{"header":{"PPQ":384,"timeSignature":[4,4],"bpm":120,"name":"--------"},"startTime":0,"duration":89.85807291666673,"tracks":[{"startTime":0,"duration":0,"length":0,"notes":[],"controlChanges":{},"id":0,"name":"--------"},{"startTime":0.0625,"duration":89.85807291666673,"length":577,"notes":[{"name":"F2","midi":41,"time":0.0625,"velocity":0.8031496062992126,"duration":0.9661458333333333},{"name":"C5","midi":72,"time":0.546875,"velocity":0.8031496062992126,"duration":0.22395833333333337},{"name":"A4","midi":69,"time":0.7890625,"velocity":0.8031496062992126,"duration":0.22395833333333326},{"name":"F3","midi":53,"time":1.03125,"velocity":0.8031496062992126,"duration":1.9348958333333335},{"name":"D5","midi":74,"time":1.03125,"velocity":0.8031496062992126,"duration":0.48177083333333326},{"name":"C5","midi":72,"time":1.515625,"velocity":0.8031496062992126,"duration":0.48177083333333326},{"name":"C5","midi":72,"time":2,"velocity":0.8031496062992126,"duration":0.22395833333333348},{"name":"A#4","midi":70,"time":2.2421875,"velocity":0.8031496062992126,"duration":0.22395833333333348},{"name":"A4","midi":69,"time":2.484375,"velocity":0.8031496062992126,"duration":0.22395833333333348},{"name":"G4","midi":67,"time":2.7265625,"velocity":0.8031496062992126,"duration":0.22395833333333348},{"name":"E3","midi":52,"time":2.96875,"velocity":0.8031496062992126,"duration":0.9661458333333335},{"name":"C5","midi":72,"time":2.96875,"velocity":0.8031496062992126,"duration":0.22395833333333348},{"name":"D5","midi":74,"time":3.2109375,"velocity":0.8031496062992126,"duration":0.22395833333333348},{"name":"A#4","midi":70,"time":3.453125,"velocity":0.8031496062992126,"duration":0.22395833333333348},{"name":"C5","midi":72,"time":3.6953125,"velocity":0.8031496062992126,"duration":0.22395833333333348},{"name":"F3","midi":53,"time":3.9375,"velocity":0.8031496062992126,"duration":0.48177083333333304},{"name":"A4","midi":69,"time":3.9375,"velocity":0.8031496062992126,"duration":0.22395833333333304},{"name":"A#4","midi":70,"time":4.1796875,"velocity":0.8031496062992126,"duration":0.22395833333333304},{"name":"A3","midi":57,"time":4.421875,"velocity":0.8031496062992126,"duration":0.234375},{"name":"C5","midi":72,"time":4.421875,"velocity":0.8031496062992126,"duration":2.419270833333333},{"name":"F5","midi":77,"time":4.421875,"velocity":0.8031496062992126,"duration":0.22395833333333304},{"name":"G3","midi":55,"time":4.6640625,"velocity":0.8031496062992126,"duration":0.234375},{"name":"E5","midi":76,"time":4.6640625,"velocity":0.8031496062992126,"duration":0.22395833333333304},{"name":"F3","midi":53,"time":4.90625,"velocity":0.8031496062992126,"duration":0.48177083333333304},{"name":"A5","midi":81,"time":4.90625,"velocity":0.8031496062992126,"duration":0.48177083333333304},{"name":"E3","midi":52,"time":5.390625,"velocity":0.8031496062992126,"duration":0.48177083333333304},{"name":"G5","midi":79,"time":5.390625,"velocity":0.8031496062992126,"duration":0.48177083333333304},{"name":"D3","midi":50,"time":5.875,"velocity":0.8031496062992126,"duration":0.48177083333333304},{"name":"G5","midi":79,"time":5.875,"velocity":0.8031496062992126,"duration":0.22395833333333304},{"name":"F5","midi":77,"time":6.1171875,"velocity":0.8031496062992126,"duration":0.22395833333333304},{"name":"G3","midi":55,"time":6.359375,"velocity":0.8031496062992126,"duration":0.234375},{"name":"E5","midi":76,"time":6.359375,"velocity":0.8031496062992126,"duration":0.22395833333333304},{"name":"F3","midi":53,"time":6.6015625,"velocity":0.8031496062992126,"duration":0.234375},{"name":"D5","midi":74,"time":6.6015625,"velocity":0.8031496062992126,"duration":0.22395833333333304},{"name":"G3","midi":55,"time":6.84375,"velocity":0.8031496062992126,"duration":0.48177083333333304},{"name":"B4","midi":71,"time":6.84375,"velocity":0.8031496062992126,"duration":0.966145833333333},{"name":"G5","midi":79,"time":6.84375,"velocity":0.8031496062992126,"duration":0.22395833333333304},{"name":"A5","midi":81,"time":7.0859375,"velocity":0.8031496062992126,"duration":0.22395833333333304},{"name":"G2","midi":43,"time":7.328125,"velocity":0.8031496062992126,"duration":0.48177083333333304},{"name":"F5","midi":77,"time":7.328125,"velocity":0.8031496062992126,"duration":0.22395833333333304},{"name":"G5","midi":79,"time":7.5703125,"velocity":0.8031496062992126,"duration":0.22395833333333304},{"name":"C3","midi":48,"time":7.8125,"velocity":0.8031496062992126,"duration":0.4817708333333339},{"name":"C5","midi":72,"time":7.8125,"velocity":0.8031496062992126,"duration":0.4817708333333339},{"name":"E5","midi":76,"time":7.8125,"velocity":0.8031496062992126,"duration":0.22395833333333393},{"name":"F5","midi":77,"time":8.0546875,"velocity":0.8031496062992126,"duration":0.22395833333333393},{"name":"C4","midi":60,"time":8.296875,"velocity":0.8031496062992126,"duration":0.234375},{"name":"A#4","midi":70,"time":8.296875,"velocity":0.8031496062992126,"duration":0.4817708333333339},{"name":"D5","midi":74,"time":8.296875,"velocity":0.8031496062992126,"duration":0.22395833333333393},{"name":"A3","midi":57,"time":8.5390625,"velocity":0.8031496062992126,"duration":0.234375},{"name":"E5","midi":76,"time":8.5390625,"velocity":0.8031496062992126,"duration":0.22395833333333393},{"name":"D4","midi":62,"time":8.78125,"velocity":0.8031496062992126,"duration":0.4817708333333339},{"name":"A4","midi":69,"time":8.78125,"velocity":0.8031496062992126,"duration":0.22395833333333393},{"name":"F5","midi":77,"time":8.78125,"velocity":0.8031496062992126,"duration":1.934895833333334},{"name":"A#4","midi":70,"time":9.0234375,"velocity":0.8031496062992126,"duration":0.22395833333333393},{"name":"C4","midi":60,"time":9.265625,"velocity":0.8031496062992126,"duration":0.4817708333333339},{"name":"C5","midi":72,"time":9.265625,"velocity":0.8031496062992126,"duration":0.22395833333333393},{"name":"D5","midi":74,"time":9.5078125,"velocity":0.8031496062992126,"duration":0.22395833333333393},{"name":"C4","midi":60,"time":9.75,"velocity":0.8031496062992126,"duration":0.234375},{"name":"G4","midi":67,"time":9.75,"velocity":0.8031496062992126,"duration":1.934895833333334},{"name":"A#3","midi":58,"time":9.9921875,"velocity":0.8031496062992126,"duration":0.234375},{"name":"A3","midi":57,"time":10.234375,"velocity":0.8031496062992126,"duration":0.234375},{"name":"G3","midi":55,"time":10.4765625,"velocity":0.8031496062992126,"duration":0.234375},{"name":"C4","midi":60,"time":10.71875,"velocity":0.8031496062992126,"duration":0.234375},{"name":"E5","midi":76,"time":10.71875,"velocity":0.8031496062992126,"duration":0.9661458333333339},{"name":"D4","midi":62,"time":10.9609375,"velocity":0.8031496062992126,"duration":0.234375},{"name":"A#3","midi":58,"time":11.203125,"velocity":0.8031496062992126,"duration":0.234375},{"name":"C4","midi":60,"time":11.4453125,"velocity":0.8031496062992126,"duration":0.234375},{"name":"A3","midi":57,"time":11.6875,"velocity":0.8031496062992126,"duration":0.4817708333333339},{"name":"F4","midi":65,"time":11.6875,"velocity":0.8031496062992126,"duration":1.2109375},{"name":"F5","midi":77,"time":11.6875,"velocity":0.8031496062992126,"duration":0.4817708333333339},{"name":"G3","midi":55,"time":12.171875,"velocity":0.8031496062992126,"duration":0.4817708333333339},{"name":"C5","midi":72,"time":12.171875,"velocity":0.8031496062992126,"duration":0.22395833333333393},{"name":"A4","midi":69,"time":12.4140625,"velocity":0.8031496062992126,"duration":0.22395833333333393},{"name":"F3","midi":53,"time":12.65625,"velocity":0.8031496062992126,"duration":0.234375},{"name":"D5","midi":74,"time":12.65625,"velocity":0.8031496062992126,"duration":1.2109375},{"name":"E3","midi":52,"time":12.8984375,"velocity":0.8031496062992126,"duration":0.234375},{"name":"F3","midi":53,"time":13.140625,"velocity":0.8031496062992126,"duration":0.234375},{"name":"A4","midi":69,"time":13.140625,"velocity":0.8031496062992126,"duration":0.22395833333333393},{"name":"D3","midi":50,"time":13.3828125,"velocity":0.8031496062992126,"duration":0.234375},{"name":"F4","midi":65,"time":13.3828125,"velocity":0.8031496062992126,"duration":0.22395833333333393},{"name":"G3","midi":55,"time":13.625,"velocity":0.8031496062992126,"duration":0.4817708333333339},{"name":"B4","midi":71,"time":13.625,"velocity":0.8031496062992126,"duration":0.7057291666666661},{"name":"G2","midi":43,"time":14.109375,"velocity":0.8031496062992126,"duration":0.48177083333333215},{"name":"D5","midi":74,"time":14.109375,"velocity":0.8031496062992126,"duration":0.22395833333333215},{"name":"B4","midi":71,"time":14.351562499999998,"velocity":0.8031496062992126,"duration":0.4791666666666661},{"name":"G3","midi":55,"time":14.593749999999998,"velocity":0.8031496062992126,"duration":0.234375},{"name":"E5","midi":76,"time":14.593749999999998,"velocity":0.8031496062992126,"duration":1.2109375},{"name":"F3","midi":53,"time":14.835937499999998,"velocity":0.8031496062992126,"duration":0.234375},{"name":"G3","midi":55,"time":15.078124999999998,"velocity":0.8031496062992126,"duration":0.234375},{"name":"B4","midi":71,"time":15.078124999999998,"velocity":0.8031496062992126,"duration":0.22395833333333393},{"name":"E3","midi":52,"time":15.320312499999998,"velocity":0.8031496062992126,"duration":0.234375},{"name":"G4","midi":67,"time":15.320312499999998,"velocity":0.8031496062992126,"duration":0.22395833333333393},{"name":"A3","midi":57,"time":15.562499999999998,"velocity":0.8031496062992126,"duration":0.4817708333333339},{"name":"C5","midi":72,"time":15.562499999999998,"velocity":0.8031496062992126,"duration":0.7057291666666696},{"name":"A2","midi":45,"time":16.046875,"velocity":0.8031496062992126,"duration":0.4817708333333357},{"name":"E5","midi":76,"time":16.046875,"velocity":0.8031496062992126,"duration":0.2239583333333357},{"name":"C5","midi":72,"time":16.289062500000004,"velocity":0.8031496062992126,"duration":0.47916666666666785},{"name":"A3","midi":57,"time":16.531250000000004,"velocity":0.8031496062992126,"duration":0.234375},{"name":"F5","midi":77,"time":16.531250000000004,"velocity":0.8031496062992126,"duration":1.2083333333333321},{"name":"G3","midi":55,"time":16.773437500000004,"velocity":0.8031496062992126,"duration":0.234375},{"name":"A3","midi":57,"time":17.015625000000004,"velocity":0.8031496062992126,"duration":0.234375},{"name":"C5","midi":72,"time":17.015625000000004,"velocity":0.8031496062992126,"duration":0.22395833333333215},{"name":"F3","midi":53,"time":17.257812500000004,"velocity":0.8031496062992126,"duration":0.234375},{"name":"A4","midi":69,"time":17.257812500000004,"velocity":0.8031496062992126,"duration":0.22395833333333215},{"name":"B3","midi":59,"time":17.500000000000004,"velocity":0.8031496062992126,"duration":0.48177083333333215},{"name":"D5","midi":74,"time":17.500000000000004,"velocity":0.8031496062992126,"duration":1.2083333333333321},{"name":"E5","midi":76,"time":17.742187500000004,"velocity":0.8031496062992126,"duration":0.22395833333333215},{"name":"G3","midi":55,"time":17.984375000000004,"velocity":0.8031496062992126,"duration":0.234375},{"name":"F5","midi":77,"time":17.984375000000004,"velocity":0.8031496062992126,"duration":0.22395833333333215},{"name":"E3","midi":52,"time":18.226562500000004,"velocity":0.8031496062992126,"duration":0.234375},{"name":"G5","midi":79,"time":18.226562500000004,"velocity":0.8031496062992126,"duration":0.22395833333333215},{"name":"A3","midi":57,"time":18.468750000000004,"velocity":0.8031496062992126,"duration":0.48177083333333215},{"name":"E5","midi":76,"time":18.468750000000004,"velocity":0.8031496062992126,"duration":0.7239583333333321},{"name":"B4","midi":71,"time":18.710937500000004,"velocity":0.8031496062992126,"duration":0.22395833333333215},{"name":"G3","midi":55,"time":18.953125000000004,"velocity":0.8031496062992126,"duration":0.48177083333333215},{"name":"C5","midi":72,"time":18.953125000000004,"velocity":0.8031496062992126,"duration":1.6927083333333321},{"name":"E5","midi":76,"time":19.195312500000004,"velocity":0.8031496062992126,"duration":0.22395833333333215},{"name":"F3","midi":53,"time":19.437500000000004,"velocity":0.8031496062992126,"duration":0.48177083333333215},{"name":"A5","midi":81,"time":19.437500000000004,"velocity":0.8031496062992126,"duration":0.22395833333333215},{"name":"F5","midi":77,"time":19.679687500000004,"velocity":0.8031496062992126,"duration":0.22395833333333215},{"name":"E3","midi":52,"time":19.921875000000004,"velocity":0.8031496062992126,"duration":0.234375},{"name":"G5","midi":79,"time":19.921875000000004,"velocity":0.8031496062992126,"duration":0.22395833333333215},{"name":"D3","midi":50,"time":20.164062500000004,"velocity":0.8031496062992126,"duration":0.234375},{"name":"A5","midi":81,"time":20.164062500000004,"velocity":0.8031496062992126,"duration":0.22395833333333215},{"name":"G3","midi":55,"time":20.406250000000004,"velocity":0.8031496062992126,"duration":0.234375},{"name":"D5","midi":74,"time":20.406250000000004,"velocity":0.8031496062992126,"duration":0.7057291666666679},{"name":"A3","midi":57,"time":20.648437500000004,"velocity":0.8031496062992126,"duration":0.234375},{"name":"A4","midi":69,"time":20.648437500000004,"velocity":0.8031496062992126,"duration":0.22395833333333215},{"name":"F3","midi":53,"time":20.890625000000004,"velocity":0.8031496062992126,"duration":0.23437500000000355},{"name":"B4","midi":71,"time":20.890625000000004,"velocity":0.8031496062992126,"duration":0.2239583333333357},{"name":"G3","midi":55,"time":21.132812500000007,"velocity":0.8031496062992126,"duration":0.234375},{"name":"D5","midi":74,"time":21.132812500000007,"velocity":0.8031496062992126,"duration":0.4791666666666643},{"name":"E3","midi":52,"time":21.375000000000007,"velocity":0.8031496062992126,"duration":0.4817708333333286},{"name":"G4","midi":67,"time":21.375000000000007,"velocity":0.8031496062992126,"duration":0.22395833333333215},{"name":"F4","midi":65,"time":21.617187500000004,"velocity":0.8031496062992126,"duration":0.22395833333333215},{"name":"A3","midi":57,"time":21.859375000000004,"velocity":0.8031496062992126,"duration":0.234375},{"name":"G4","midi":67,"time":21.859375000000004,"velocity":0.8031496062992126,"duration":0.22395833333333215},{"name":"C5","midi":72,"time":21.859375000000004,"velocity":0.8031496062992126,"duration":0.22395833333333215},{"name":"G3","midi":55,"time":22.101562500000004,"velocity":0.8031496062992126,"duration":0.234375},{"name":"E4","midi":64,"time":22.101562500000004,"velocity":0.8031496062992126,"duration":0.22395833333333215},{"name":"B4","midi":71,"time":22.101562500000004,"velocity":0.8031496062992126,"duration":0.22395833333333215},{"name":"F3","midi":53,"time":22.343750000000004,"velocity":0.8031496062992126,"duration":0.48177083333333215},{"name":"A4","midi":69,"time":22.343750000000004,"velocity":0.8031496062992126,"duration":0.48177083333333215},{"name":"C5","midi":72,"time":22.343750000000004,"velocity":0.8031496062992126,"duration":1.9348958333333321},{"name":"E3","midi":52,"time":22.828125000000004,"velocity":0.8031496062992126,"duration":0.48177083333333215},{"name":"G4","midi":67,"time":22.828125000000004,"velocity":0.8031496062992126,"duration":0.48177083333333215},{"name":"D3","midi":50,"time":23.312500000000004,"velocity":0.8031496062992126,"duration":0.48177083333333215},{"name":"F4","midi":65,"time":23.312500000000004,"velocity":0.8031496062992126,"duration":0.48177083333333215},{"name":"G3","midi":55,"time":23.796875000000004,"velocity":0.8031496062992126,"duration":0.234375},{"name":"E4","midi":64,"time":23.796875000000004,"velocity":0.8031496062992126,"duration":0.22395833333333215},{"name":"F3","midi":53,"time":24.039062500000004,"velocity":0.8031496062992126,"duration":0.234375},{"name":"D4","midi":62,"time":24.039062500000004,"velocity":0.8031496062992126,"duration":0.22395833333333215},{"name":"G3","midi":55,"time":24.281250000000004,"velocity":0.8031496062992126,"duration":0.48177083333333215},{"name":"G4","midi":67,"time":24.281250000000004,"velocity":0.8031496062992126,"duration":0.22395833333333215},{"name":"B4","midi":71,"time":24.281250000000004,"velocity":0.8031496062992126,"duration":0.9661458333333321},{"name":"A4","midi":69,"time":24.523437500000004,"velocity":0.8031496062992126,"duration":0.22395833333333215},{"name":"G2","midi":43,"time":24.765625000000004,"velocity":0.8031496062992126,"duration":0.48177083333333215},{"name":"F4","midi":65,"time":24.765625000000004,"velocity":0.8031496062992126,"duration":0.22395833333333215},{"name":"G4","midi":67,"time":25.007812500000004,"velocity":0.8031496062992126,"duration":0.22395833333333215},{"name":"C3","midi":48,"time":25.250000000000004,"velocity":0.8031496062992126,"duration":0.9583333333333357},{"name":"E4","midi":64,"time":25.250000000000004,"velocity":0.8031496062992126,"duration":0.47916666666666785},{"name":"C5","midi":72,"time":25.250000000000004,"velocity":0.8031496062992126,"duration":0.4817708333333357},{"name":"C2","midi":36,"time":25.734375000000007,"velocity":0.8031496062992126,"duration":0.7057291666666679},{"name":"G5","midi":79,"time":25.734375000000007,"velocity":0.8031496062992126,"duration":0.22395833333333215},{"name":"E5","midi":76,"time":25.976562500000007,"velocity":0.8031496062992126,"duration":0.22395833333333215},{"name":"A5","midi":81,"time":26.218750000000007,"velocity":0.8031496062992126,"duration":0.48046875},{"name":"C4","midi":60,"time":26.701822916666675,"velocity":0.8031496062992126,"duration":0.234375},{"name":"G5","midi":79,"time":26.701822916666675,"velocity":0.8031496062992126,"duration":0.48177083333333215},{"name":"A3","midi":57,"time":26.944010416666675,"velocity":0.8031496062992126,"duration":0.234375},{"name":"D4","midi":62,"time":27.186197916666675,"velocity":0.8031496062992126,"duration":0.48177083333333215},{"name":"F5","midi":77,"time":27.186197916666675,"velocity":0.8031496062992126,"duration":0.48177083333333215},{"name":"C4","midi":60,"time":27.670572916666675,"velocity":0.8031496062992126,"duration":0.48177083333333215},{"name":"E5","midi":76,"time":27.670572916666675,"velocity":0.8031496062992126,"duration":0.22395833333333215},{"name":"D5","midi":74,"time":27.912760416666675,"velocity":0.8031496062992126,"duration":0.22395833333333215},{"name":"B3","midi":59,"time":28.154947916666675,"velocity":0.8031496062992126,"duration":0.48177083333333215},{"name":"G5","midi":79,"time":28.154947916666675,"velocity":0.8031496062992126,"duration":0.22395833333333215},{"name":"A5","midi":81,"time":28.397135416666675,"velocity":0.8031496062992126,"duration":0.22395833333333215},{"name":"A3","midi":57,"time":28.639322916666675,"velocity":0.8031496062992126,"duration":0.234375},{"name":"F5","midi":77,"time":28.639322916666675,"velocity":0.8031496062992126,"duration":0.22395833333333215},{"name":"G3","midi":55,"time":28.881510416666675,"velocity":0.8031496062992126,"duration":0.234375},{"name":"G5","midi":79,"time":28.881510416666675,"velocity":0.8031496062992126,"duration":0.22395833333333215},{"name":"C4","midi":60,"time":29.123697916666675,"velocity":0.8031496062992126,"duration":0.234375},{"name":"E5","midi":76,"time":29.123697916666675,"velocity":0.8031496062992126,"duration":0.22395833333333215},{"name":"D4","midi":62,"time":29.365885416666675,"velocity":0.8031496062992126,"duration":0.234375},{"name":"D5","midi":74,"time":29.365885416666675,"velocity":0.8031496062992126,"duration":0.22395833333333215},{"name":"A#3","midi":58,"time":29.608072916666675,"velocity":0.8031496062992126,"duration":0.234375},{"name":"E5","midi":76,"time":29.608072916666675,"velocity":0.8031496062992126,"duration":0.22395833333333215},{"name":"C4","midi":60,"time":29.850260416666675,"velocity":0.8031496062992126,"duration":0.234375},{"name":"C5","midi":72,"time":29.850260416666675,"velocity":0.8031496062992126,"duration":0.22395833333333215},{"name":"A3","midi":57,"time":30.092447916666675,"velocity":0.8031496062992126,"duration":0.234375},{"name":"F5","midi":77,"time":30.092447916666675,"velocity":0.8031496062992126,"duration":0.48177083333333215},{"name":"G3","midi":55,"time":30.334635416666675,"velocity":0.8031496062992126,"duration":0.234375},{"name":"A3","midi":57,"time":30.576822916666675,"velocity":0.8031496062992126,"duration":0.234375},{"name":"E5","midi":76,"time":30.576822916666675,"velocity":0.8031496062992126,"duration":0.48177083333333215},{"name":"F3","midi":53,"time":30.819010416666675,"velocity":0.8031496062992126,"duration":0.234375},{"name":"A#3","midi":58,"time":31.061197916666675,"velocity":0.8031496062992126,"duration":0.48177083333333215},{"name":"D5","midi":74,"time":31.061197916666675,"velocity":0.8031496062992126,"duration":0.48177083333333215},{"name":"A3","midi":57,"time":31.545572916666675,"velocity":0.8031496062992126,"duration":0.48177083333333215},{"name":"C#5","midi":73,"time":31.545572916666675,"velocity":0.8031496062992126,"duration":0.22395833333333215},{"name":"B4","midi":71,"time":31.787760416666675,"velocity":0.8031496062992126,"duration":0.22395833333333215},{"name":"G3","midi":55,"time":32.02994791666667,"velocity":0.8031496062992126,"duration":0.4817708333333357},{"name":"E5","midi":76,"time":32.02994791666667,"velocity":0.8031496062992126,"duration":0.2239583333333357},{"name":"F5","midi":77,"time":32.27213541666667,"velocity":0.8031496062992126,"duration":0.2239583333333357},{"name":"F3","midi":53,"time":32.51432291666667,"velocity":0.8031496062992126,"duration":0.234375},{"name":"D5","midi":74,"time":32.51432291666667,"velocity":0.8031496062992126,"duration":0.2239583333333357},{"name":"E3","midi":52,"time":32.75651041666667,"velocity":0.8031496062992126,"duration":0.234375},{"name":"E5","midi":76,"time":32.75651041666667,"velocity":0.8031496062992126,"duration":0.2239583333333357},{"name":"A3","midi":57,"time":32.99869791666667,"velocity":0.8031496062992126,"duration":0.234375},{"name":"C#5","midi":73,"time":32.99869791666667,"velocity":0.8031496062992126,"duration":0.4817708333333357},{"name":"A#3","midi":58,"time":33.24088541666667,"velocity":0.8031496062992126,"duration":0.234375},{"name":"G3","midi":55,"time":33.48307291666667,"velocity":0.8031496062992126,"duration":0.234375},{"name":"A5","midi":81,"time":33.48307291666667,"velocity":0.8031496062992126,"duration":0.2239583333333357},{"name":"A3","midi":57,"time":33.72526041666667,"velocity":0.8031496062992126,"duration":0.234375},{"name":"F5","midi":77,"time":33.72526041666667,"velocity":0.8031496062992126,"duration":0.2239583333333357},{"name":"D3","midi":50,"time":33.96744791666667,"velocity":0.8031496062992126,"duration":0.4817708333333357},{"name":"A#5","midi":82,"time":33.96744791666667,"velocity":0.8031496062992126,"duration":0.4817708333333357},{"name":"D4","midi":62,"time":34.45182291666667,"velocity":0.8031496062992126,"duration":0.234375},{"name":"A5","midi":81,"time":34.45182291666667,"velocity":0.8031496062992126,"duration":0.4817708333333357},{"name":"B3","midi":59,"time":34.69401041666667,"velocity":0.8031496062992126,"duration":0.234375},{"name":"E4","midi":64,"time":34.93619791666667,"velocity":0.8031496062992126,"duration":0.4817708333333357},{"name":"G5","midi":79,"time":34.93619791666667,"velocity":0.8031496062992126,"duration":0.4817708333333357},{"name":"D4","midi":62,"time":35.42057291666667,"velocity":0.8031496062992126,"duration":0.4817708333333357},{"name":"F5","midi":77,"time":35.42057291666667,"velocity":0.8031496062992126,"duration":0.2239583333333357},{"name":"E5","midi":76,"time":35.66276041666667,"velocity":0.8031496062992126,"duration":0.2239583333333357},{"name":"C#4","midi":61,"time":35.90494791666667,"velocity":0.8031496062992126,"duration":0.4817708333333357},{"name":"A5","midi":81,"time":35.90494791666667,"velocity":0.8031496062992126,"duration":0.2239583333333357},{"name":"A#5","midi":82,"time":36.14713541666667,"velocity":0.8031496062992126,"duration":0.2239583333333357},{"name":"B3","midi":59,"time":36.38932291666667,"velocity":0.8031496062992126,"duration":0.234375},{"name":"G5","midi":79,"time":36.38932291666667,"velocity":0.8031496062992126,"duration":0.2239583333333357},{"name":"A3","midi":57,"time":36.63151041666667,"velocity":0.8031496062992126,"duration":0.234375},{"name":"A5","midi":81,"time":36.63151041666667,"velocity":0.8031496062992126,"duration":0.2239583333333357},{"name":"D4","midi":62,"time":36.87369791666667,"velocity":0.8031496062992126,"duration":0.234375},{"name":"F#5","midi":78,"time":36.87369791666667,"velocity":0.8031496062992126,"duration":0.4817708333333357},{"name":"C4","midi":60,"time":37.11588541666667,"velocity":0.8031496062992126,"duration":0.234375},{"name":"A#3","midi":58,"time":37.35807291666667,"velocity":0.8031496062992126,"duration":0.234375},{"name":"D5","midi":74,"time":37.35807291666667,"velocity":0.8031496062992126,"duration":0.4817708333333357},{"name":"A3","midi":57,"time":37.60026041666667,"velocity":0.8031496062992126,"duration":0.234375},{"name":"A#4","midi":70,"time":37.60026041666667,"velocity":0.8031496062992126,"duration":0.2239583333333357},{"name":"G3","midi":55,"time":37.84244791666667,"velocity":0.8031496062992126,"duration":0.234375},{"name":"D#5","midi":75,"time":37.84244791666667,"velocity":0.8031496062992126,"duration":0.4817708333333357},{"name":"G5","midi":79,"time":37.84244791666667,"velocity":0.8031496062992126,"duration":1.9348958333333357},{"name":"A3","midi":57,"time":38.08463541666667,"velocity":0.8031496062992126,"duration":0.234375},{"name":"A#3","midi":58,"time":38.32682291666667,"velocity":0.8031496062992126,"duration":0.234375},{"name":"D5","midi":74,"time":38.32682291666667,"velocity":0.8031496062992126,"duration":0.4817708333333357},{"name":"G3","midi":55,"time":38.56901041666667,"velocity":0.8031496062992126,"duration":0.234375},{"name":"A3","midi":57,"time":38.81119791666667,"velocity":0.8031496062992126,"duration":0.4817708333333357},{"name":"C5","midi":72,"time":38.81119791666667,"velocity":0.8031496062992126,"duration":0.4817708333333357},{"name":"D4","midi":62,"time":39.29557291666667,"velocity":0.8031496062992126,"duration":0.234375},{"name":"A#4","midi":70,"time":39.29557291666667,"velocity":0.8031496062992126,"duration":0.2239583333333357},{"name":"C4","midi":60,"time":39.53776041666667,"velocity":0.8031496062992126,"duration":0.234375},{"name":"A4","midi":69,"time":39.53776041666667,"velocity":0.8031496062992126,"duration":0.2239583333333357},{"name":"D4","midi":62,"time":39.77994791666667,"velocity":0.8031496062992126,"duration":0.4817708333333357},{"name":"D5","midi":74,"time":39.77994791666667,"velocity":0.8031496062992126,"duration":0.2239583333333357},{"name":"F#5","midi":78,"time":39.77994791666667,"velocity":0.8031496062992126,"duration":0.9661458333333357},{"name":"D#5","midi":75,"time":40.02213541666667,"velocity":0.8031496062992126,"duration":0.2239583333333357},{"name":"D3","midi":50,"time":40.26432291666667,"velocity":0.8031496062992126,"duration":0.4817708333333357},{"name":"C5","midi":72,"time":40.26432291666667,"velocity":0.8031496062992126,"duration":0.2239583333333357},{"name":"D5","midi":74,"time":40.50651041666667,"velocity":0.8031496062992126,"duration":0.2239583333333357},{"name":"G3","midi":55,"time":40.74869791666667,"velocity":0.8031496062992126,"duration":0.4817708333333357},{"name":"A#4","midi":70,"time":40.74869791666667,"velocity":0.8031496062992126,"duration":0.2239583333333357},{"name":"G5","midi":79,"time":40.74869791666667,"velocity":0.8031496062992126,"duration":2.4192708333333357},{"name":"A4","midi":69,"time":40.99088541666667,"velocity":0.8031496062992126,"duration":0.2239583333333357},{"name":"D3","midi":50,"time":41.23307291666667,"velocity":0.8031496062992126,"duration":0.234375},{"name":"A#4","midi":70,"time":41.23307291666667,"velocity":0.8031496062992126,"duration":0.2239583333333357},{"name":"A#2","midi":46,"time":41.47526041666667,"velocity":0.8031496062992126,"duration":0.234375},{"name":"G4","midi":67,"time":41.47526041666667,"velocity":0.8031496062992126,"duration":0.2239583333333357},{"name":"D#3","midi":51,"time":41.71744791666667,"velocity":0.8031496062992126,"duration":0.4817708333333357},{"name":"C5","midi":72,"time":41.71744791666667,"velocity":0.8031496062992126,"duration":0.2239583333333357},{"name":"D5","midi":74,"time":41.95963541666667,"velocity":0.8031496062992126,"duration":0.2239583333333357},{"name":"D3","midi":50,"time":42.20182291666667,"velocity":0.8031496062992126,"duration":0.4817708333333357},{"name":"A#4","midi":70,"time":42.20182291666667,"velocity":0.8031496062992126,"duration":0.2239583333333357},{"name":"C5","midi":72,"time":42.44401041666667,"velocity":0.8031496062992126,"duration":0.2239583333333357},{"name":"C3","midi":48,"time":42.68619791666667,"velocity":0.8031496062992126,"duration":0.4817708333333357},{"name":"A4","midi":69,"time":42.68619791666667,"velocity":0.8031496062992126,"duration":1.4505208333333357},{"name":"A#2","midi":46,"time":43.17057291666667,"velocity":0.8031496062992126,"duration":0.234375},{"name":"G5","midi":79,"time":43.17057291666667,"velocity":0.8031496062992126,"duration":0.4817708333333357},{"name":"A2","midi":45,"time":43.41276041666667,"velocity":0.8031496062992126,"duration":0.234375},{"name":"D3","midi":50,"time":43.65494791666667,"velocity":0.8031496062992126,"duration":0.234375},{"name":"F5","midi":77,"time":43.65494791666667,"velocity":0.8031496062992126,"duration":1.2109375},{"name":"D#3","midi":51,"time":43.89713541666667,"velocity":0.8031496062992126,"duration":0.234375},{"name":"C3","midi":48,"time":44.13932291666667,"velocity":0.8031496062992126,"duration":0.234375},{"name":"A4","midi":69,"time":44.13932291666667,"velocity":0.8031496062992126,"duration":0.4817708333333357},{"name":"D3","midi":50,"time":44.38151041666667,"velocity":0.8031496062992126,"duration":0.234375},{"name":"A#2","midi":46,"time":44.62369791666667,"velocity":0.8031496062992126,"duration":0.4817708333333357},{"name":"G4","midi":67,"time":44.62369791666667,"velocity":0.8031496062992126,"duration":1.4505208333333357},{"name":"G3","midi":55,"time":45.10807291666667,"velocity":0.8031496062992126,"duration":0.234375},{"name":"D#5","midi":75,"time":45.10807291666667,"velocity":0.8031496062992126,"duration":0.4817708333333357},{"name":"F3","midi":53,"time":45.35026041666667,"velocity":0.8031496062992126,"duration":0.234375},{"name":"A#3","midi":58,"time":45.59244791666667,"velocity":0.8031496062992126,"duration":0.4817708333333357},{"name":"D5","midi":74,"time":45.59244791666667,"velocity":0.8031496062992126,"duration":1.4505208333333357},{"name":"A3","midi":57,"time":46.07682291666667,"velocity":0.8031496062992126,"duration":0.4817708333333357},{"name":"F4","midi":65,"time":46.07682291666667,"velocity":0.8031496062992126,"duration":0.4817708333333357},{"name":"G3","midi":55,"time":46.56119791666667,"velocity":0.8031496062992126,"duration":0.4817708333333357},{"name":"E4","midi":64,"time":46.56119791666667,"velocity":0.8031496062992126,"duration":2.4192708333333357},{"name":"F3","midi":53,"time":47.04557291666667,"velocity":0.8031496062992126,"duration":0.234375},{"name":"D5","midi":74,"time":47.04557291666667,"velocity":0.8031496062992126,"duration":0.4817708333333357},{"name":"E3","midi":52,"time":47.28776041666667,"velocity":0.8031496062992126,"duration":0.234375},{"name":"A3","midi":57,"time":47.52994791666667,"velocity":0.8031496062992126,"duration":0.234375},{"name":"C#5","midi":73,"time":47.52994791666667,"velocity":0.8031496062992126,"duration":0.4817708333333357},{"name":"A#3","midi":58,"time":47.77213541666667,"velocity":0.8031496062992126,"duration":0.234375},{"name":"G3","midi":55,"time":48.01432291666667,"velocity":0.8031496062992126,"duration":0.234375},{"name":"E5","midi":76,"time":48.01432291666667,"velocity":0.8031496062992126,"duration":0.4817708333333357},{"name":"A3","midi":57,"time":48.25651041666667,"velocity":0.8031496062992126,"duration":0.234375},{"name":"F3","midi":53,"time":48.49869791666667,"velocity":0.8031496062992126,"duration":0.234375},{"name":"A4","midi":69,"time":48.49869791666667,"velocity":0.8031496062992126,"duration":0.2239583333333357},{"name":"E3","midi":52,"time":48.74088541666667,"velocity":0.8031496062992126,"duration":0.234375},{"name":"G4","midi":67,"time":48.74088541666667,"velocity":0.8031496062992126,"duration":0.2239583333333357},{"name":"F3","midi":53,"time":48.98307291666667,"velocity":0.8031496062992126,"duration":0.234375},{"name":"D4","midi":62,"time":48.98307291666667,"velocity":0.8031496062992126,"duration":0.2239583333333357},{"name":"A4","midi":69,"time":48.98307291666667,"velocity":0.8031496062992126,"duration":0.2239583333333357},{"name":"D3","midi":50,"time":49.22526041666667,"velocity":0.8031496062992126,"duration":0.234375},{"name":"C#4","midi":61,"time":49.22526041666667,"velocity":0.8031496062992126,"duration":0.2239583333333357},{"name":"F4","midi":65,"time":49.22526041666667,"velocity":0.8031496062992126,"duration":0.2239583333333357},{"name":"G3","midi":55,"time":49.46744791666667,"velocity":0.8031496062992126,"duration":0.4817708333333357},{"name":"D4","midi":62,"time":49.46744791666667,"velocity":0.8031496062992126,"duration":1.9348958333333357},{"name":"A#4","midi":70,"time":49.46744791666667,"velocity":0.8031496062992126,"duration":0.4817708333333357},{"name":"F3","midi":53,"time":49.95182291666667,"velocity":0.8031496062992126,"duration":0.4817708333333357},{"name":"A4","midi":69,"time":49.95182291666667,"velocity":0.8031496062992126,"duration":0.4817708333333357},{"name":"E3","midi":52,"time":50.43619791666667,"velocity":0.8031496062992126,"duration":0.4817708333333357},{"name":"G4","midi":67,"time":50.43619791666667,"velocity":0.8031496062992126,"duration":0.4817708333333357},{"name":"A3","midi":57,"time":50.92057291666667,"velocity":0.8031496062992126,"duration":0.234375},{"name":"F4","midi":65,"time":50.92057291666667,"velocity":0.8031496062992126,"duration":0.2239583333333357},{"name":"G3","midi":55,"time":51.16276041666667,"velocity":0.8031496062992126,"duration":0.234375},{"name":"E4","midi":64,"time":51.16276041666667,"velocity":0.8031496062992126,"duration":0.2239583333333357},{"name":"A3","midi":57,"time":51.40494791666667,"velocity":0.8031496062992126,"duration":0.4817708333333357},{"name":"C#4","midi":61,"time":51.40494791666667,"velocity":0.8031496062992126,"duration":0.9075520833333357},{"name":"A4","midi":69,"time":51.40494791666667,"velocity":0.8031496062992126,"duration":0.2239583333333357},{"name":"A#4","midi":70,"time":51.64713541666667,"velocity":0.8031496062992126,"duration":0.2239583333333357},{"name":"A2","midi":45,"time":51.88932291666667,"velocity":0.8031496062992126,"duration":0.4817708333333357},{"name":"G4","midi":67,"time":51.88932291666667,"velocity":0.8031496062992126,"duration":0.2239583333333357},{"name":"A4","midi":69,"time":52.13151041666667,"velocity":0.8031496062992126,"duration":0.2239583333333357},{"name":"A#2","midi":46,"time":52.37369791666667,"velocity":0.8031496062992126,"duration":0.4817708333333357},{"name":"F4","midi":65,"time":52.37369791666667,"velocity":0.8031496062992126,"duration":2.1770833333333357},{"name":"D4","midi":62,"time":52.61588541666667,"velocity":0.8031496062992126,"duration":0.2239583333333357},{"name":"A2","midi":45,"time":52.85807291666667,"velocity":0.8031496062992126,"duration":0.234375},{"name":"C4","midi":60,"time":52.85807291666667,"velocity":0.8031496062992126,"duration":0.2239583333333357},{"name":"F2","midi":41,"time":53.10026041666667,"velocity":0.8031496062992126,"duration":0.234375},{"name":"A3","midi":57,"time":53.10026041666667,"velocity":0.8031496062992126,"duration":0.2239583333333357},{"name":"G2","midi":43,"time":53.34244791666667,"velocity":0.8031496062992126,"duration":0.4817708333333357},{"name":"A#3","midi":58,"time":53.34244791666667,"velocity":0.8031496062992126,"duration":0.2239583333333357},{"name":"C#4","midi":61,"time":53.58463541666667,"velocity":0.8031496062992126,"duration":0.2239583333333357},{"name":"F2","midi":41,"time":53.82682291666667,"velocity":0.8031496062992126,"duration":0.234375},{"name":"D4","midi":62,"time":53.82682291666667,"velocity":0.8031496062992126,"duration":0.2239583333333357},{"name":"D2","midi":38,"time":54.06901041666667,"velocity":0.8031496062992126,"duration":0.234375},{"name":"A3","midi":57,"time":54.06901041666667,"velocity":0.8031496062992126,"duration":0.2239583333333357},{"name":"A#2","midi":46,"time":54.31119791666667,"velocity":0.8031496062992126,"duration":0.234375},{"name":"G3","midi":55,"time":54.31119791666667,"velocity":0.8031496062992126,"duration":1.9348958333333357},{"name":"A2","midi":45,"time":54.55338541666667,"velocity":0.8031496062992126,"duration":0.234375},{"name":"F4","midi":65,"time":54.55338541666667,"velocity":0.8031496062992126,"duration":0.2239583333333357},{"name":"A#2","midi":46,"time":54.79557291666667,"velocity":0.8031496062992126,"duration":0.234375},{"name":"E4","midi":64,"time":54.79557291666667,"velocity":0.8031496062992126,"duration":0.2239583333333357},{"name":"G2","midi":43,"time":55.03776041666667,"velocity":0.8031496062992126,"duration":0.234375},{"name":"G4","midi":67,"time":55.03776041666667,"velocity":0.8031496062992126,"duration":0.2239583333333357},{"name":"A2","midi":45,"time":55.27994791666667,"velocity":0.8031496062992126,"duration":0.4817708333333357},{"name":"D4","midi":62,"time":55.27994791666667,"velocity":0.8031496062992126,"duration":0.1380208333333357},{"name":"C#4","midi":61,"time":55.42057291666667,"velocity":0.8031496062992126,"duration":0.0859375},{"name":"D4","midi":62,"time":55.50651041666667,"velocity":0.8031496062992126,"duration":0.0859375},{"name":"C#4","midi":61,"time":55.59244791666667,"velocity":0.8031496062992126,"duration":0.0859375},{"name":"D4","midi":62,"time":55.67838541666667,"velocity":0.8031496062992126,"duration":0.0859375},{"name":"A2","midi":45,"time":55.76432291666667,"velocity":0.8031496062992126,"duration":0.4817708333333357},{"name":"C#4","midi":61,"time":55.76432291666667,"velocity":0.8031496062992126,"duration":0.2395833333333357},{"name":"D4","midi":62,"time":56.00651041666667,"velocity":0.8031496062992126,"duration":0.2239583333333357},{"name":"D2","midi":38,"time":56.24869791666667,"velocity":0.8031496062992126,"duration":1.2109375},{"name":"D4","midi":62,"time":56.24869791666667,"velocity":0.8031496062992126,"duration":1.2109375},{"name":"F3","midi":53,"time":56.73307291666667,"velocity":0.8031496062992126,"duration":0.2239583333333357},{"name":"D3","midi":50,"time":56.97526041666667,"velocity":0.8031496062992126,"duration":0.2239583333333357},{"name":"A#3","midi":58,"time":57.21744791666667,"velocity":0.8031496062992126,"duration":1.2109375},{"name":"D3","midi":50,"time":57.70182291666667,"velocity":0.8031496062992126,"duration":0.4817708333333357},{"name":"F4","midi":65,"time":57.70182291666667,"velocity":0.8031496062992126,"duration":0.2239583333333357},{"name":"D4","midi":62,"time":57.94401041666667,"velocity":0.8031496062992126,"duration":0.2239583333333357},{"name":"E3","midi":52,"time":58.18619791666667,"velocity":0.8031496062992126,"duration":0.234375},{"name":"G4","midi":67,"time":58.18619791666667,"velocity":0.8031496062992126,"duration":1.2109375},{"name":"D3","midi":50,"time":58.42838541666667,"velocity":0.8031496062992126,"duration":0.234375},{"name":"E3","midi":52,"time":58.67057291666667,"velocity":0.8031496062992126,"duration":0.234375},{"name":"A#3","midi":58,"time":58.67057291666667,"velocity":0.8031496062992126,"duration":0.2239583333333357},{"name":"F3","midi":53,"time":58.91276041666667,"velocity":0.8031496062992126,"duration":0.234375},{"name":"G3","midi":55,"time":58.91276041666667,"velocity":0.8031496062992126,"duration":0.2239583333333357},{"name":"E3","midi":52,"time":59.15494791666667,"velocity":0.8031496062992126,"duration":0.234375},{"name":"C4","midi":60,"time":59.15494791666667,"velocity":0.8031496062992126,"duration":1.2109375},{"name":"D3","midi":50,"time":59.39713541666667,"velocity":0.8031496062992126,"duration":0.234375},{"name":"E3","midi":52,"time":59.63932291666667,"velocity":0.8031496062992126,"duration":0.234375},{"name":"G4","midi":67,"time":59.63932291666667,"velocity":0.8031496062992126,"duration":0.2239583333333357},{"name":"C3","midi":48,"time":59.88151041666667,"velocity":0.8031496062992126,"duration":0.234375},{"name":"E4","midi":64,"time":59.88151041666667,"velocity":0.8031496062992126,"duration":0.2239583333333357},{"name":"F3","midi":53,"time":60.12369791666667,"velocity":0.8031496062992126,"duration":0.4817708333333357},{"name":"A4","midi":69,"time":60.12369791666667,"velocity":0.8031496062992126,"duration":0.4817708333333357},{"name":"F2","midi":41,"time":60.60807291666667,"velocity":0.8031496062992126,"duration":0.7057291666666643},{"name":"C5","midi":72,"time":60.60807291666667,"velocity":0.8031496062992126,"duration":0.2239583333333357},{"name":"A4","midi":69,"time":60.85026041666667,"velocity":0.8031496062992126,"duration":0.2239583333333357},{"name":"F5","midi":77,"time":61.09244791666667,"velocity":0.8031496062992126,"duration":1.2096354166666643},{"name":"F3","midi":53,"time":61.575520833333336,"velocity":0.8031496062992126,"duration":0.234375},{"name":"A4","midi":69,"time":61.575520833333336,"velocity":0.8031496062992126,"duration":0.2239583333333357},{"name":"D3","midi":50,"time":61.817708333333336,"velocity":0.8031496062992126,"duration":0.234375},{"name":"F4","midi":65,"time":61.817708333333336,"velocity":0.8031496062992126,"duration":0.2239583333333357},{"name":"G3","midi":55,"time":62.059895833333336,"velocity":0.8031496062992126,"duration":0.234375},{"name":"A#4","midi":70,"time":62.059895833333336,"velocity":0.8031496062992126,"duration":0.7057291666666643},{"name":"F3","midi":53,"time":62.302083333333336,"velocity":0.8031496062992126,"duration":0.234375},{"name":"G3","midi":55,"time":62.544270833333336,"velocity":0.8031496062992126,"duration":0.2343749999999929},{"name":"D5","midi":74,"time":62.544270833333336,"velocity":0.8031496062992126,"duration":0.2239583333333286},{"name":"A3","midi":57,"time":62.78645833333333,"velocity":0.8031496062992126,"duration":0.234375},{"name":"A#4","midi":70,"time":62.78645833333333,"velocity":0.8031496062992126,"duration":0.4791666666666643},{"name":"G3","midi":55,"time":63.02864583333333,"velocity":0.8031496062992126,"duration":0.234375},{"name":"D#5","midi":75,"time":63.02864583333333,"velocity":0.8031496062992126,"duration":1.2109375},{"name":"A#3","midi":58,"time":63.27083333333333,"velocity":0.8031496062992126,"duration":0.234375},{"name":"A3","midi":57,"time":63.51302083333333,"velocity":0.8031496062992126,"duration":0.234375},{"name":"C5","midi":72,"time":63.51302083333333,"velocity":0.8031496062992126,"duration":0.2239583333333357},{"name":"C4","midi":60,"time":63.75520833333333,"velocity":0.8031496062992126,"duration":0.234375},{"name":"A4","midi":69,"time":63.75520833333333,"velocity":0.8031496062992126,"duration":0.2239583333333357},{"name":"A#3","midi":58,"time":63.99739583333333,"velocity":0.8031496062992126,"duration":4.114583333333329},{"name":"F4","midi":65,"time":63.99739583333333,"velocity":0.8031496062992126,"duration":0.2239583333333286},{"name":"D#4","midi":63,"time":64.23958333333333,"velocity":0.8031496062992126,"duration":0.2239583333333286},{"name":"F4","midi":65,"time":64.48177083333333,"velocity":0.8031496062992126,"duration":0.2239583333333286},{"name":"D5","midi":74,"time":64.48177083333333,"velocity":0.8031496062992126,"duration":0.2239583333333286},{"name":"D4","midi":62,"time":64.72395833333333,"velocity":0.8031496062992126,"duration":0.2239583333333286},{"name":"A#4","midi":70,"time":64.72395833333333,"velocity":0.8031496062992126,"duration":0.2239583333333286},{"name":"G4","midi":67,"time":64.96614583333333,"velocity":0.8031496062992126,"duration":0.4817708333333286},{"name":"D#5","midi":75,"time":64.96614583333333,"velocity":0.8031496062992126,"duration":0.4817708333333286},{"name":"F4","midi":65,"time":65.45052083333333,"velocity":0.8031496062992126,"duration":0.4817708333333286},{"name":"D5","midi":74,"time":65.45052083333333,"velocity":0.8031496062992126,"duration":0.4817708333333286},{"name":"D#4","midi":63,"time":65.93489583333333,"velocity":0.8031496062992126,"duration":0.4817708333333286},{"name":"D5","midi":74,"time":65.93489583333333,"velocity":0.8031496062992126,"duration":0.2239583333333286},{"name":"C5","midi":72,"time":66.17708333333333,"velocity":0.8031496062992126,"duration":0.2239583333333286},{"name":"D4","midi":62,"time":66.41927083333333,"velocity":0.8031496062992126,"duration":0.2239583333333286},{"name":"A#4","midi":70,"time":66.41927083333333,"velocity":0.8031496062992126,"duration":0.2239583333333286},{"name":"C4","midi":60,"time":66.66145833333333,"velocity":0.8031496062992126,"duration":0.2239583333333286},{"name":"A4","midi":69,"time":66.66145833333333,"velocity":0.8031496062992126,"duration":0.2239583333333286},{"name":"F4","midi":65,"time":66.90364583333333,"velocity":0.8031496062992126,"duration":0.2239583333333286},{"name":"D5","midi":74,"time":66.90364583333333,"velocity":0.8031496062992126,"duration":0.2239583333333286},{"name":"G4","midi":67,"time":67.14583333333333,"velocity":0.8031496062992126,"duration":0.2239583333333286},{"name":"D#5","midi":75,"time":67.14583333333333,"velocity":0.8031496062992126,"duration":0.2239583333333286},{"name":"D#4","midi":63,"time":67.38802083333333,"velocity":0.8031496062992126,"duration":0.2239583333333286},{"name":"C5","midi":72,"time":67.38802083333333,"velocity":0.8031496062992126,"duration":0.2239583333333286},{"name":"F4","midi":65,"time":67.63020833333333,"velocity":0.8031496062992126,"duration":0.2239583333333286},{"name":"D5","midi":74,"time":67.63020833333333,"velocity":0.8031496062992126,"duration":0.2239583333333286},{"name":"D4","midi":62,"time":67.87239583333333,"velocity":0.8031496062992126,"duration":2.9036458333333286},{"name":"A#4","midi":70,"time":67.87239583333333,"velocity":0.8031496062992126,"duration":0.4817708333333286},{"name":"C4","midi":60,"time":68.11458333333333,"velocity":0.8031496062992126,"duration":0.234375},{"name":"A#3","midi":58,"time":68.35677083333333,"velocity":0.8031496062992126,"duration":0.234375},{"name":"F5","midi":77,"time":68.35677083333333,"velocity":0.8031496062992126,"duration":0.2239583333333286},{"name":"A3","midi":57,"time":68.59895833333333,"velocity":0.8031496062992126,"duration":0.234375},{"name":"D5","midi":74,"time":68.59895833333333,"velocity":0.8031496062992126,"duration":0.2239583333333286},{"name":"G3","midi":55,"time":68.84114583333333,"velocity":0.8031496062992126,"duration":0.234375},{"name":"G5","midi":79,"time":68.84114583333333,"velocity":0.8031496062992126,"duration":0.4817708333333286},{"name":"A3","midi":57,"time":69.08333333333333,"velocity":0.8031496062992126,"duration":0.234375},{"name":"A#3","midi":58,"time":69.32552083333333,"velocity":0.8031496062992126,"duration":0.234375},{"name":"F5","midi":77,"time":69.32552083333333,"velocity":0.8031496062992126,"duration":0.4817708333333286},{"name":"G3","midi":55,"time":69.56770833333333,"velocity":0.8031496062992126,"duration":0.234375},{"name":"C4","midi":60,"time":69.80989583333333,"velocity":0.8031496062992126,"duration":0.4817708333333286},{"name":"F5","midi":77,"time":69.80989583333333,"velocity":0.8031496062992126,"duration":0.2239583333333286},{"name":"D#5","midi":75,"time":70.05208333333333,"velocity":0.8031496062992126,"duration":0.2239583333333286},{"name":"A#3","midi":58,"time":70.29427083333333,"velocity":0.8031496062992126,"duration":0.4817708333333286},{"name":"D5","midi":74,"time":70.29427083333333,"velocity":0.8031496062992126,"duration":0.2239583333333286},{"name":"C5","midi":72,"time":70.53645833333333,"velocity":0.8031496062992126,"duration":0.2239583333333286},{"name":"A3","midi":57,"time":70.77864583333333,"velocity":0.8031496062992126,"duration":0.4817708333333286},{"name":"C4","midi":60,"time":70.77864583333333,"velocity":0.8031496062992126,"duration":0.9075520833333286},{"name":"F5","midi":77,"time":70.77864583333333,"velocity":0.8031496062992126,"duration":0.2239583333333286},{"name":"G5","midi":79,"time":71.02083333333333,"velocity":0.8031496062992126,"duration":0.2239583333333286},{"name":"G3","midi":55,"time":71.26302083333333,"velocity":0.8031496062992126,"duration":0.234375},{"name":"D#5","midi":75,"time":71.26302083333333,"velocity":0.8031496062992126,"duration":0.2239583333333286},{"name":"F3","midi":53,"time":71.50520833333333,"velocity":0.8031496062992126,"duration":0.234375},{"name":"F5","midi":77,"time":71.50520833333333,"velocity":0.8031496062992126,"duration":0.2239583333333286},{"name":"A#3","midi":58,"time":71.74739583333333,"velocity":0.8031496062992126,"duration":0.234375},{"name":"D5","midi":74,"time":71.74739583333333,"velocity":0.8031496062992126,"duration":1.2109375},{"name":"C4","midi":60,"time":71.98958333333333,"velocity":0.8031496062992126,"duration":0.234375},{"name":"A3","midi":57,"time":72.23177083333333,"velocity":0.8031496062992126,"duration":0.234375},{"name":"F4","midi":65,"time":72.23177083333333,"velocity":0.8031496062992126,"duration":0.2239583333333286},{"name":"C4","midi":60,"time":72.47395833333333,"velocity":0.8031496062992126,"duration":0.234375},{"name":"D4","midi":62,"time":72.47395833333333,"velocity":0.8031496062992126,"duration":0.2239583333333286},{"name":"A#3","midi":58,"time":72.71614583333333,"velocity":0.8031496062992126,"duration":0.234375},{"name":"G4","midi":67,"time":72.71614583333333,"velocity":0.8031496062992126,"duration":1.2109375},{"name":"C4","midi":60,"time":72.95833333333333,"velocity":0.8031496062992126,"duration":0.234375},{"name":"A#3","midi":58,"time":73.20052083333333,"velocity":0.8031496062992126,"duration":0.234375},{"name":"D5","midi":74,"time":73.20052083333333,"velocity":0.8031496062992126,"duration":0.2239583333333286},{"name":"G3","midi":55,"time":73.44270833333333,"velocity":0.8031496062992126,"duration":0.234375},{"name":"A#4","midi":70,"time":73.44270833333333,"velocity":0.8031496062992126,"duration":0.2239583333333286},{"name":"C4","midi":60,"time":73.68489583333333,"velocity":0.8031496062992126,"duration":0.4817708333333286},{"name":"E5","midi":76,"time":73.68489583333333,"velocity":0.8031496062992126,"duration":1.2109375},{"name":"C3","midi":48,"time":74.16927083333333,"velocity":0.8031496062992126,"duration":0.4817708333333286},{"name":"G4","midi":67,"time":74.16927083333333,"velocity":0.8031496062992126,"duration":0.2239583333333286},{"name":"E4","midi":64,"time":74.41145833333333,"velocity":0.8031496062992126,"duration":0.2239583333333286},{"name":"C4","midi":60,"time":74.65364583333333,"velocity":0.8031496062992126,"duration":0.234375},{"name":"A4","midi":69,"time":74.65364583333333,"velocity":0.8031496062992126,"duration":1.2109375},{"name":"A#3","midi":58,"time":74.89583333333333,"velocity":0.8031496062992126,"duration":0.234375},{"name":"C4","midi":60,"time":75.13802083333333,"velocity":0.8031496062992126,"duration":0.234375},{"name":"E5","midi":76,"time":75.13802083333333,"velocity":0.8031496062992126,"duration":0.2239583333333286},{"name":"A3","midi":57,"time":75.38020833333333,"velocity":0.8031496062992126,"duration":0.234375},{"name":"C5","midi":72,"time":75.38020833333333,"velocity":0.8031496062992126,"duration":0.2239583333333286},{"name":"D4","midi":62,"time":75.62239583333333,"velocity":0.8031496062992126,"duration":0.4817708333333286},{"name":"F5","midi":77,"time":75.62239583333333,"velocity":0.8031496062992126,"duration":1.2109375},{"name":"D3","midi":50,"time":76.10677083333333,"velocity":0.8031496062992126,"duration":0.4817708333333286},{"name":"A4","midi":69,"time":76.10677083333333,"velocity":0.8031496062992126,"duration":0.2239583333333286},{"name":"F4","midi":65,"time":76.34895833333333,"velocity":0.8031496062992126,"duration":0.2239583333333286},{"name":"D4","midi":62,"time":76.59114583333333,"velocity":0.8031496062992126,"duration":0.234375},{"name":"A#4","midi":70,"time":76.59114583333333,"velocity":0.8031496062992126,"duration":1.2057291666666714},{"name":"C4","midi":60,"time":76.83333333333333,"velocity":0.8031496062992126,"duration":0.234375},{"name":"D4","midi":62,"time":77.07552083333333,"velocity":0.8031496062992126,"duration":0.234375},{"name":"F5","midi":77,"time":77.07552083333333,"velocity":0.8031496062992126,"duration":0.2239583333333286},{"name":"A#3","midi":58,"time":77.31770833333333,"velocity":0.8031496062992126,"duration":0.234375},{"name":"D5","midi":74,"time":77.31770833333333,"velocity":0.8031496062992126,"duration":0.2239583333333286},{"name":"E4","midi":64,"time":77.55989583333333,"velocity":0.8031496062992126,"duration":0.4817708333333286},{"name":"G5","midi":79,"time":77.55989583333333,"velocity":0.8031496062992126,"duration":1.2083333333333286},{"name":"A4","midi":69,"time":77.80208333333333,"velocity":0.8031496062992126,"duration":0.2239583333333286},{"name":"C4","midi":60,"time":78.04427083333333,"velocity":0.8031496062992126,"duration":0.234375},{"name":"A#4","midi":70,"time":78.04427083333333,"velocity":0.8031496062992126,"duration":0.2239583333333286},{"name":"A3","midi":57,"time":78.28645833333333,"velocity":0.8031496062992126,"duration":0.234375},{"name":"C5","midi":72,"time":78.28645833333333,"velocity":0.8031496062992126,"duration":0.2239583333333286},{"name":"D4","midi":62,"time":78.52864583333333,"velocity":0.8031496062992126,"duration":0.4817708333333286},{"name":"A4","midi":69,"time":78.52864583333333,"velocity":0.8031496062992126,"duration":0.7239583333333286},{"name":"E5","midi":76,"time":78.77083333333333,"velocity":0.8031496062992126,"duration":0.2239583333333286},{"name":"C4","midi":60,"time":79.01302083333333,"velocity":0.8031496062992126,"duration":0.4817708333333286},{"name":"F5","midi":77,"time":79.01302083333333,"velocity":0.8031496062992126,"duration":1.2109375},{"name":"A4","midi":69,"time":79.25520833333333,"velocity":0.8031496062992126,"duration":0.2239583333333286},{"name":"A#3","midi":58,"time":79.49739583333333,"velocity":0.8031496062992126,"duration":0.4817708333333286},{"name":"D5","midi":74,"time":79.49739583333333,"velocity":0.8031496062992126,"duration":0.2239583333333286},{"name":"A#4","midi":70,"time":79.73958333333333,"velocity":0.8031496062992126,"duration":0.2239583333333286},{"name":"A3","midi":57,"time":79.98177083333333,"velocity":0.8031496062992126,"duration":0.234375},{"name":"C5","midi":72,"time":79.98177083333333,"velocity":0.8031496062992126,"duration":0.2239583333333286},{"name":"G3","midi":55,"time":80.22395833333333,"velocity":0.8031496062992126,"duration":0.234375},{"name":"D5","midi":74,"time":80.22395833333333,"velocity":0.8031496062992126,"duration":0.2239583333333286},{"name":"C4","midi":60,"time":80.46614583333333,"velocity":0.8031496062992126,"duration":0.234375},{"name":"G4","midi":67,"time":80.46614583333333,"velocity":0.8031496062992126,"duration":1.2109375},{"name":"D4","midi":62,"time":80.70833333333333,"velocity":0.8031496062992126,"duration":0.234375},{"name":"D5","midi":74,"time":80.70833333333333,"velocity":0.8031496062992126,"duration":0.2239583333333286},{"name":"A#3","midi":58,"time":80.95052083333333,"velocity":0.8031496062992126,"duration":0.234375},{"name":"E5","midi":76,"time":80.95052083333333,"velocity":0.8031496062992126,"duration":0.2239583333333286},{"name":"C4","midi":60,"time":81.19270833333333,"velocity":0.8031496062992126,"duration":0.234375},{"name":"G5","midi":79,"time":81.19270833333333,"velocity":0.8031496062992126,"duration":0.2239583333333286},{"name":"A3","midi":57,"time":81.43489583333333,"velocity":0.8031496062992126,"duration":0.4817708333333286},{"name":"C5","midi":72,"time":81.43489583333333,"velocity":0.8031496062992126,"duration":0.2239583333333286},{"name":"A#4","midi":70,"time":81.67708333333333,"velocity":0.8031496062992126,"duration":0.2239583333333286},{"name":"D4","midi":62,"time":81.91927083333333,"velocity":0.8031496062992126,"duration":0.234375},{"name":"F4","midi":65,"time":81.91927083333333,"velocity":0.8031496062992126,"duration":0.2239583333333286},{"name":"C5","midi":72,"time":81.91927083333333,"velocity":0.8031496062992126,"duration":0.2239583333333286},{"name":"C4","midi":60,"time":82.16145833333333,"velocity":0.8031496062992126,"duration":0.234375},{"name":"E4","midi":64,"time":82.16145833333333,"velocity":0.8031496062992126,"duration":0.2239583333333286},{"name":"A4","midi":69,"time":82.16145833333333,"velocity":0.8031496062992126,"duration":0.2239583333333286},{"name":"A#3","midi":58,"time":82.40364583333333,"velocity":0.8031496062992126,"duration":0.234375},{"name":"F4","midi":65,"time":82.40364583333333,"velocity":0.8031496062992126,"duration":1.9348958333333286},{"name":"D5","midi":74,"time":82.40364583333333,"velocity":0.8031496062992126,"duration":0.4817708333333286},{"name":"C4","midi":60,"time":82.64583333333333,"velocity":0.8031496062992126,"duration":0.234375},{"name":"A3","midi":57,"time":82.88802083333333,"velocity":0.8031496062992126,"duration":0.234375},{"name":"C5","midi":72,"time":82.88802083333333,"velocity":0.8031496062992126,"duration":0.4817708333333286},{"name":"A#3","midi":58,"time":83.13020833333333,"velocity":0.8031496062992126,"duration":0.234375},{"name":"G3","midi":55,"time":83.37239583333333,"velocity":0.8031496062992126,"duration":0.4817708333333286},{"name":"A#4","midi":70,"time":83.37239583333333,"velocity":0.8031496062992126,"duration":0.4817708333333286},{"name":"A3","midi":57,"time":83.85677083333333,"velocity":0.8031496062992126,"duration":0.234375},{"name":"A4","midi":69,"time":83.85677083333333,"velocity":0.8031496062992126,"duration":0.2239583333333286},{"name":"A#3","midi":58,"time":84.09895833333333,"velocity":0.8031496062992126,"duration":0.234375},{"name":"G4","midi":67,"time":84.09895833333333,"velocity":0.8031496062992126,"duration":0.2239583333333286},{"name":"C4","midi":60,"time":84.34114583333333,"velocity":0.8031496062992126,"duration":0.4817708333333286},{"name":"E4","midi":64,"time":84.34114583333333,"velocity":0.8031496062992126,"duration":0.4817708333333286},{"name":"C5","midi":72,"time":84.34114583333333,"velocity":0.8031496062992126,"duration":0.2239583333333286},{"name":"D5","midi":74,"time":84.58333333333333,"velocity":0.8031496062992126,"duration":0.2239583333333286},{"name":"E3","midi":52,"time":84.82552083333333,"velocity":0.8031496062992126,"duration":0.4817708333333286},{"name":"G4","midi":67,"time":84.82552083333333,"velocity":0.8031496062992126,"duration":0.4791666666666572},{"name":"A#4","midi":70,"time":84.82552083333333,"velocity":0.8031496062992126,"duration":0.2239583333333286},{"name":"C5","midi":72,"time":85.06770833333333,"velocity":0.8031496062992126,"duration":0.2239583333333286},{"name":"F3","midi":53,"time":85.30989583333333,"velocity":0.8031496062992126,"duration":0.5065104166666714},{"name":"A4","midi":69,"time":85.30989583333333,"velocity":0.8031496062992126,"duration":0.125},{"name":"G4","midi":67,"time":85.4375,"velocity":0.8031496062992126,"duration":0.125},{"name":"A4","midi":69,"time":85.56510416666667,"velocity":0.8031496062992126,"duration":0.5052083333333286},{"name":"D3","midi":50,"time":85.81901041666667,"velocity":0.8031496062992126,"duration":0.24609375},{"name":"F4","midi":65,"time":85.81901041666667,"velocity":0.8031496062992126,"duration":1.0130208333333712},{"name":"A#2","midi":46,"time":86.07291666666667,"velocity":0.8031496062992126,"duration":0.24609375},{"name":"A#4","midi":70,"time":86.07291666666667,"velocity":0.8031496062992126,"duration":0.2356770833333286},{"name":"C3","midi":48,"time":86.32682291666667,"velocity":0.8031496062992126,"duration":0.5052083333333712},{"name":"A4","midi":69,"time":86.32682291666667,"velocity":0.8031496062992126,"duration":0.1666666666666714},{"name":"G4","midi":67,"time":86.48567708333334,"velocity":0.8031496062992126,"duration":0.0846354166666714},{"name":"A4","midi":69,"time":86.57291666666669,"velocity":0.8031496062992126,"duration":0.0846354166666714},{"name":"G4","midi":67,"time":86.66015625000003,"velocity":0.8031496062992126,"duration":0.0846354166666714},{"name":"A4","midi":69,"time":86.74739583333337,"velocity":0.8031496062992126,"duration":0.0846354166666714},{"name":"C2","midi":36,"time":86.83463541666671,"velocity":0.8031496062992126,"duration":0.5963541666666714},{"name":"E4","midi":64,"time":86.83463541666671,"velocity":0.8031496062992126,"duration":0.5963541666666714},{"name":"G4","midi":67,"time":86.83463541666671,"velocity":0.8031496062992126,"duration":0.296875},{"name":"F4","midi":65,"time":87.13411458333339,"velocity":0.8031496062992126,"duration":0.3151041666666714},{"name":"F2","midi":41,"time":87.46484375000006,"velocity":0.8031496062992126,"duration":2.3932291666666714},{"name":"F4","midi":65,"time":87.46484375000006,"velocity":0.8031496062992126,"duration":2.3932291666666714}],"controlChanges":{"7":[{"number":7,"time":0,"value":0.7874015748031497}]},"id":1,"name":"Piano 1","instrumentNumber":6,"instrument":"harpsichord","instrumentFamily":"piano","channelNumber":0,"isPercussion":false}]}