{"header":{"PPQ":240,"timeSignature":[9,8],"bpm":160,"name":"--------"},"startTime":0,"duration":54.9,"tracks":[{"startTime":0,"duration":0,"length":0,"notes":[],"controlChanges":{},"id":0,"name":"--------"},{"startTime":0,"duration":53.3875,"length":311,"notes":[{"name":"G4","midi":67,"time":0,"velocity":0.7244094488188977,"duration":0.1703125},{"name":"B4","midi":71,"time":0.1875,"velocity":0.7244094488188977,"duration":0.17031249999999998},{"name":"D5","midi":74,"time":0.375,"velocity":0.7244094488188977,"duration":0.17031249999999998},{"name":"B4","midi":71,"time":0.5625,"velocity":0.7244094488188977,"duration":0.17031249999999998},{"name":"G4","midi":67,"time":0.75,"velocity":0.7244094488188977,"duration":0.17031249999999998},{"name":"D5","midi":74,"time":0.9375,"velocity":0.7244094488188977,"duration":0.1499999999999999},{"name":"B4","midi":71,"time":1.125,"velocity":0.7244094488188977,"duration":0.1703125000000001},{"name":"G4","midi":67,"time":1.3125,"velocity":0.7244094488188977,"duration":0.1703125000000001},{"name":"G5","midi":79,"time":1.5,"velocity":0.7244094488188977,"duration":0.1499999999999999},{"name":"F#5","midi":78,"time":1.6875,"velocity":0.7244094488188977,"duration":0.0859375},{"name":"G5","midi":79,"time":1.78125,"velocity":0.7244094488188977,"duration":0.0859375},{"name":"F#5","midi":78,"time":1.875,"velocity":0.7244094488188977,"duration":0.1703125000000001},{"name":"D5","midi":74,"time":2.0625,"velocity":0.7244094488188977,"duration":0.1703125000000001},{"name":"A5","midi":81,"time":2.25,"velocity":0.7244094488188977,"duration":0.1703125000000001},{"name":"F#5","midi":78,"time":2.4375,"velocity":0.7244094488188977,"duration":0.1703125000000001},{"name":"D5","midi":74,"time":2.625,"velocity":0.7244094488188977,"duration":0.1499999999999999},{"name":"A5","midi":81,"time":2.8125,"velocity":0.7244094488188977,"duration":0.1703125000000001},{"name":"F#5","midi":78,"time":3,"velocity":0.7244094488188977,"duration":0.1703125000000001},{"name":"D5","midi":74,"time":3.1875,"velocity":0.7244094488188977,"duration":0.1499999999999999},{"name":"G5","midi":79,"time":3.375,"velocity":0.7244094488188977,"duration":0.1703125000000001},{"name":"D5","midi":74,"time":3.5625,"velocity":0.7244094488188977,"duration":0.1703125000000001},{"name":"B4","midi":71,"time":3.75,"velocity":0.7244094488188977,"duration":0.1499999999999999},{"name":"F5","midi":77,"time":3.9375,"velocity":0.7244094488188977,"duration":0.17031249999999964},{"name":"D5","midi":74,"time":4.125,"velocity":0.7244094488188977,"duration":0.17031249999999964},{"name":"B4","midi":71,"time":4.3125,"velocity":0.7244094488188977,"duration":0.15000000000000036},{"name":"F5","midi":77,"time":4.5,"velocity":0.7244094488188977,"duration":0.17031249999999964},{"name":"D5","midi":74,"time":4.6875,"velocity":0.7244094488188977,"duration":0.17031249999999964},{"name":"B4","midi":71,"time":4.875,"velocity":0.7244094488188977,"duration":0.15000000000000036},{"name":"E5","midi":76,"time":5.0625,"velocity":0.7244094488188977,"duration":0.17031249999999964},{"name":"C5","midi":72,"time":5.25,"velocity":0.7244094488188977,"duration":0.17031249999999964},{"name":"A4","midi":69,"time":5.4375,"velocity":0.7244094488188977,"duration":0.17031249999999964},{"name":"F#4","midi":66,"time":5.625,"velocity":0.7244094488188977,"duration":0.17031249999999964},{"name":"A4","midi":69,"time":5.8125,"velocity":0.7244094488188977,"duration":0.17031249999999964},{"name":"C5","midi":72,"time":6,"velocity":0.7244094488188977,"duration":0.17031249999999964},{"name":"E5","midi":76,"time":6.1875,"velocity":0.7244094488188977,"duration":0.17031249999999964},{"name":"D5","midi":74,"time":6.375,"velocity":0.7244094488188977,"duration":0.17031249999999964},{"name":"C5","midi":72,"time":6.5625,"velocity":0.7244094488188977,"duration":0.17031249999999964},{"name":"D5","midi":74,"time":6.75,"velocity":0.7244094488188977,"duration":0.17031249999999964},{"name":"B4","midi":71,"time":6.9375,"velocity":0.7244094488188977,"duration":0.17031249999999964},{"name":"G4","midi":67,"time":7.125,"velocity":0.7244094488188977,"duration":0.17031249999999964},{"name":"E4","midi":64,"time":7.3125,"velocity":0.7244094488188977,"duration":0.17031249999999964},{"name":"G4","midi":67,"time":7.5,"velocity":0.7244094488188977,"duration":0.17031249999999964},{"name":"B4","midi":71,"time":7.6875,"velocity":0.7244094488188977,"duration":0.17031249999999964},{"name":"D5","midi":74,"time":7.875,"velocity":0.7244094488188977,"duration":0.17031249999999964},{"name":"C5","midi":72,"time":8.0625,"velocity":0.7244094488188977,"duration":0.17031249999999964},{"name":"B4","midi":71,"time":8.25,"velocity":0.7244094488188977,"duration":0.17031249999999964},{"name":"C5","midi":72,"time":8.4375,"velocity":0.7244094488188977,"duration":0.17031249999999964},{"name":"A4","midi":69,"time":8.625,"velocity":0.7244094488188977,"duration":0.17031249999999964},{"name":"F#4","midi":66,"time":8.8125,"velocity":0.7244094488188977,"duration":0.17031249999999964},{"name":"D4","midi":62,"time":9,"velocity":0.7244094488188977,"duration":0.17031249999999964},{"name":"F#4","midi":66,"time":9.1875,"velocity":0.7244094488188977,"duration":0.17031249999999964},{"name":"A4","midi":69,"time":9.375,"velocity":0.7244094488188977,"duration":0.17031249999999964},{"name":"C5","midi":72,"time":9.5625,"velocity":0.7244094488188977,"duration":0.17031249999999964},{"name":"B4","midi":71,"time":9.75,"velocity":0.7244094488188977,"duration":0.17031249999999964},{"name":"A4","midi":69,"time":9.9375,"velocity":0.7244094488188977,"duration":0.17031249999999964},{"name":"B4","midi":71,"time":10.125,"velocity":0.7244094488188977,"duration":0.17031249999999964},{"name":"C5","midi":72,"time":10.3125,"velocity":0.7244094488188977,"duration":0.17031249999999964},{"name":"D5","midi":74,"time":10.5,"velocity":0.7244094488188977,"duration":0.17031249999999964},{"name":"E5","midi":76,"time":10.6875,"velocity":0.7244094488188977,"duration":0.17031249999999964},{"name":"B4","midi":71,"time":10.875,"velocity":0.7244094488188977,"duration":0.17031249999999964},{"name":"G5","midi":79,"time":11.0625,"velocity":0.7244094488188977,"duration":0.17031249999999964},{"name":"E5","midi":76,"time":11.25,"velocity":0.7244094488188977,"duration":0.17031249999999964},{"name":"B4","midi":71,"time":11.4375,"velocity":0.7244094488188977,"duration":0.17031249999999964},{"name":"G5","midi":79,"time":11.625,"velocity":0.7244094488188977,"duration":0.17031249999999964},{"name":"A4","midi":69,"time":11.8125,"velocity":0.7244094488188977,"duration":0.17031249999999964},{"name":"B4","midi":71,"time":12,"velocity":0.7244094488188977,"duration":0.17031249999999964},{"name":"C#5","midi":73,"time":12.1875,"velocity":0.7244094488188977,"duration":0.17031249999999964},{"name":"D5","midi":74,"time":12.375,"velocity":0.7244094488188977,"duration":0.17031249999999964},{"name":"A4","midi":69,"time":12.5625,"velocity":0.7244094488188977,"duration":0.17031249999999964},{"name":"F#5","midi":78,"time":12.75,"velocity":0.7244094488188977,"duration":0.17031249999999964},{"name":"D5","midi":74,"time":12.9375,"velocity":0.7244094488188977,"duration":0.17031249999999964},{"name":"A4","midi":69,"time":13.125,"velocity":0.7244094488188977,"duration":0.17031249999999964},{"name":"F#5","midi":78,"time":13.3125,"velocity":0.7244094488188977,"duration":0.17031249999999964},{"name":"G4","midi":67,"time":13.5,"velocity":0.7244094488188977,"duration":0.0859375},{"name":"F#4","midi":66,"time":13.59375,"velocity":0.7244094488188977,"duration":0.0859375},{"name":"G4","midi":67,"time":13.6875,"velocity":0.7244094488188977,"duration":0.5453124999999996},{"name":"A4","midi":69,"time":14.25,"velocity":0.7244094488188977,"duration":0.17031249999999964},{"name":"G4","midi":67,"time":14.4375,"velocity":0.7244094488188977,"duration":0.17031249999999964},{"name":"F#4","midi":66,"time":14.625,"velocity":0.7244094488188977,"duration":0.17031249999999964},{"name":"G4","midi":67,"time":14.8125,"velocity":0.7244094488188977,"duration":0.17031249999999964},{"name":"E4","midi":64,"time":15,"velocity":0.7244094488188977,"duration":0.17031249999999964},{"name":"F#4","midi":66,"time":15.1875,"velocity":0.7244094488188977,"duration":0.17031249999999964},{"name":"G4","midi":67,"time":15.375,"velocity":0.7244094488188977,"duration":0.17031249999999964},{"name":"F#4","midi":66,"time":15.5625,"velocity":0.7244094488188977,"duration":0.17031249999999964},{"name":"E4","midi":64,"time":15.75,"velocity":0.7244094488188977,"duration":0.17031249999999964},{"name":"F#4","midi":66,"time":15.9375,"velocity":0.7244094488188977,"duration":0.17031250000000142},{"name":"D4","midi":62,"time":16.125,"velocity":0.7244094488188977,"duration":0.17031250000000142},{"name":"A4","midi":69,"time":16.3125,"velocity":0.7244094488188977,"duration":0.17031250000000142},{"name":"B4","midi":71,"time":16.5,"velocity":0.7244094488188977,"duration":0.17031250000000142},{"name":"C5","midi":72,"time":16.6875,"velocity":0.7244094488188977,"duration":0.140625},{"name":"B4","midi":71,"time":16.875,"velocity":0.7244094488188977,"duration":0.17031250000000142},{"name":"C5","midi":72,"time":17.0625,"velocity":0.7244094488188977,"duration":0.17031250000000142},{"name":"B4","midi":71,"time":17.25,"velocity":0.7244094488188977,"duration":0.17031250000000142},{"name":"A4","midi":69,"time":17.4375,"velocity":0.7244094488188977,"duration":0.17031250000000142},{"name":"B4","midi":71,"time":17.625,"velocity":0.7244094488188977,"duration":0.17031250000000142},{"name":"G4","midi":67,"time":17.8125,"velocity":0.7244094488188977,"duration":0.17031250000000142},{"name":"E5","midi":76,"time":18,"velocity":0.7244094488188977,"duration":0.17031250000000142},{"name":"F#5","midi":78,"time":18.1875,"velocity":0.7244094488188977,"duration":0.17031250000000142},{"name":"G5","midi":79,"time":18.375,"velocity":0.7244094488188977,"duration":0.140625},{"name":"C#5","midi":73,"time":18.5625,"velocity":0.7244094488188977,"duration":0.17031250000000142},{"name":"D5","midi":74,"time":18.75,"velocity":0.7244094488188977,"duration":0.17031250000000142},{"name":"C#5","midi":73,"time":18.9375,"velocity":0.7244094488188977,"duration":0.17031250000000142},{"name":"B4","midi":71,"time":19.125,"velocity":0.7244094488188977,"duration":0.17031250000000142},{"name":"C#5","midi":73,"time":19.3125,"velocity":0.7244094488188977,"duration":0.17031250000000142},{"name":"A4","midi":69,"time":19.5,"velocity":0.7244094488188977,"duration":0.17031250000000142},{"name":"G5","midi":79,"time":19.6875,"velocity":0.7244094488188977,"duration":0.17031250000000142},{"name":"A5","midi":81,"time":19.875,"velocity":0.7244094488188977,"duration":0.17031250000000142},{"name":"B5","midi":83,"time":20.0625,"velocity":0.7244094488188977,"duration":0.140625},{"name":"A5","midi":81,"time":20.25,"velocity":0.7244094488188977,"duration":0.17031250000000142},{"name":"G5","midi":79,"time":20.4375,"velocity":0.7244094488188977,"duration":0.17031250000000142},{"name":"F#5","midi":78,"time":20.625,"velocity":0.7244094488188977,"duration":0.17031250000000142},{"name":"E5","midi":76,"time":20.8125,"velocity":0.7244094488188977,"duration":0.17031250000000142},{"name":"F#5","midi":78,"time":21,"velocity":0.7244094488188977,"duration":0.17031250000000142},{"name":"D5","midi":74,"time":21.1875,"velocity":0.7244094488188977,"duration":0.17031250000000142},{"name":"A4","midi":69,"time":21.375,"velocity":0.7244094488188977,"duration":0.17031250000000142},{"name":"D5","midi":74,"time":21.5625,"velocity":0.7244094488188977,"duration":0.17031250000000142},{"name":"C#5","midi":73,"time":21.75,"velocity":0.7244094488188977,"duration":0.17031250000000142},{"name":"D5","midi":74,"time":21.9375,"velocity":0.7244094488188977,"duration":0.0859375},{"name":"C#5","midi":73,"time":22.03125,"velocity":0.7244094488188977,"duration":0.0859375},{"name":"D5","midi":74,"time":22.125,"velocity":0.7244094488188977,"duration":0.3406249999999993},{"name":"A4","midi":69,"time":23.625,"velocity":0.7244094488188977,"duration":0.17031250000000142},{"name":"C#5","midi":73,"time":23.8125,"velocity":0.7244094488188977,"duration":0.17031250000000142},{"name":"E5","midi":76,"time":24,"velocity":0.7244094488188977,"duration":0.17031250000000142},{"name":"C#5","midi":73,"time":24.1875,"velocity":0.7244094488188977,"duration":0.17031250000000142},{"name":"A4","midi":69,"time":24.375,"velocity":0.7244094488188977,"duration":0.17031250000000142},{"name":"E5","midi":76,"time":24.5625,"velocity":0.7244094488188977,"duration":0.17031250000000142},{"name":"C#5","midi":73,"time":24.75,"velocity":0.7244094488188977,"duration":0.17031250000000142},{"name":"A4","midi":69,"time":24.9375,"velocity":0.7244094488188977,"duration":0.17031250000000142},{"name":"G5","midi":79,"time":25.125,"velocity":0.7244094488188977,"duration":0.17031250000000142},{"name":"F#5","midi":78,"time":25.3125,"velocity":0.7244094488188977,"duration":0.0859375},{"name":"G5","midi":79,"time":25.40625,"velocity":0.7244094488188977,"duration":0.0859375},{"name":"F#5","midi":78,"time":25.5,"velocity":0.7244094488188977,"duration":0.3406249999999993},{"name":"D5","midi":74,"time":25.875,"velocity":0.7244094488188977,"duration":0.5124999999999993},{"name":"G4","midi":67,"time":27,"velocity":0.7244094488188977,"duration":0.17031250000000142},{"name":"B4","midi":71,"time":27.1875,"velocity":0.7244094488188977,"duration":0.17031250000000142},{"name":"D5","midi":74,"time":27.375,"velocity":0.7244094488188977,"duration":0.17031250000000142},{"name":"B4","midi":71,"time":27.5625,"velocity":0.7244094488188977,"duration":0.17031250000000142},{"name":"G4","midi":67,"time":27.75,"velocity":0.7244094488188977,"duration":0.17031250000000142},{"name":"D5","midi":74,"time":27.9375,"velocity":0.7244094488188977,"duration":0.17031250000000142},{"name":"B4","midi":71,"time":28.125,"velocity":0.7244094488188977,"duration":0.17031250000000142},{"name":"G4","midi":67,"time":28.3125,"velocity":0.7244094488188977,"duration":0.17031250000000142},{"name":"F5","midi":77,"time":28.5,"velocity":0.7244094488188977,"duration":0.13125000000000142},{"name":"E5","midi":76,"time":28.6875,"velocity":0.7244094488188977,"duration":0.17031250000000142},{"name":"C5","midi":72,"time":28.875,"velocity":0.7244094488188977,"duration":0.17031250000000142},{"name":"A4","midi":69,"time":29.0625,"velocity":0.7244094488188977,"duration":0.17031250000000142},{"name":"A5","midi":81,"time":29.25,"velocity":0.7244094488188977,"duration":0.17031250000000142},{"name":"E5","midi":76,"time":29.4375,"velocity":0.7244094488188977,"duration":0.17031250000000142},{"name":"C5","midi":72,"time":29.625,"velocity":0.7244094488188977,"duration":0.17031250000000142},{"name":"A4","midi":69,"time":29.8125,"velocity":0.7244094488188977,"duration":0.17031250000000142},{"name":"B4","midi":71,"time":30,"velocity":0.7244094488188977,"duration":0.17031250000000142},{"name":"C5","midi":72,"time":30.1875,"velocity":0.7244094488188977,"duration":0.17031250000000142},{"name":"D5","midi":74,"time":30.375,"velocity":0.7244094488188977,"duration":0.17031250000000142},{"name":"B4","midi":71,"time":30.5625,"velocity":0.7244094488188977,"duration":0.17031250000000142},{"name":"G4","midi":67,"time":30.75,"velocity":0.7244094488188977,"duration":0.17031250000000142},{"name":"G5","midi":79,"time":30.9375,"velocity":0.7244094488188977,"duration":0.17031250000000142},{"name":"D5","midi":74,"time":31.125,"velocity":0.7244094488188977,"duration":0.17031250000000142},{"name":"B4","midi":71,"time":31.3125,"velocity":0.7244094488188977,"duration":0.17031250000000142},{"name":"G4","midi":67,"time":31.5,"velocity":0.7244094488188977,"duration":0.17031250000000142},{"name":"A4","midi":69,"time":31.6875,"velocity":0.7244094488188977,"duration":0.17031250000000142},{"name":"B4","midi":71,"time":31.875,"velocity":0.7244094488188977,"duration":0.17031250000000142},{"name":"C5","midi":72,"time":32.0625,"velocity":0.7244094488188977,"duration":0.09375},{"name":"D5","midi":74,"time":32.15625,"velocity":0.7244094488188977,"duration":0.09375},{"name":"C5","midi":72,"time":32.25,"velocity":0.7244094488188977,"duration":0.09375},{"name":"D5","midi":74,"time":32.34375,"velocity":0.7244094488188977,"duration":0.09375},{"name":"C5","midi":72,"time":32.4375,"velocity":0.7244094488188977,"duration":0.09375},{"name":"D5","midi":74,"time":32.53125,"velocity":0.7244094488188977,"duration":0.09375},{"name":"C5","midi":72,"time":32.625,"velocity":0.7244094488188977,"duration":0.09375},{"name":"D5","midi":74,"time":32.71875,"velocity":0.7244094488188977,"duration":0.09375},{"name":"C5","midi":72,"time":32.8125,"velocity":0.7244094488188977,"duration":0.09375},{"name":"D5","midi":74,"time":32.90625,"velocity":0.7244094488188977,"duration":0.09375},{"name":"C5","midi":72,"time":33,"velocity":0.7244094488188977,"duration":0.09375},{"name":"D5","midi":74,"time":33.09375,"velocity":0.7244094488188977,"duration":0.09375},{"name":"C5","midi":72,"time":33.1875,"velocity":0.7244094488188977,"duration":0.09375},{"name":"D5","midi":74,"time":33.28125,"velocity":0.7244094488188977,"duration":0.09375},{"name":"C5","midi":72,"time":33.375,"velocity":0.7244094488188977,"duration":0.09375},{"name":"D5","midi":74,"time":33.46875,"velocity":0.7244094488188977,"duration":0.09375},{"name":"C5","midi":72,"time":33.5625,"velocity":0.7244094488188977,"duration":0.09375},{"name":"D5","midi":74,"time":33.65625,"velocity":0.7244094488188977,"duration":0.09375},{"name":"C5","midi":72,"time":33.75,"velocity":0.7244094488188977,"duration":0.09375},{"name":"D5","midi":74,"time":33.84375,"velocity":0.7244094488188977,"duration":0.09375},{"name":"C5","midi":72,"time":33.9375,"velocity":0.7244094488188977,"duration":0.09375},{"name":"D5","midi":74,"time":34.03125,"velocity":0.7244094488188977,"duration":0.09375},{"name":"C5","midi":72,"time":34.125,"velocity":0.7244094488188977,"duration":0.09375},{"name":"D5","midi":74,"time":34.21875,"velocity":0.7244094488188977,"duration":0.09375},{"name":"C5","midi":72,"time":34.3125,"velocity":0.7244094488188977,"duration":0.09375},{"name":"D5","midi":74,"time":34.40625,"velocity":0.7244094488188977,"duration":0.09375},{"name":"C5","midi":72,"time":34.5,"velocity":0.7244094488188977,"duration":0.09375},{"name":"D5","midi":74,"time":34.59375,"velocity":0.7244094488188977,"duration":0.09375},{"name":"C5","midi":72,"time":34.6875,"velocity":0.7244094488188977,"duration":0.09375},{"name":"D5","midi":74,"time":34.78125,"velocity":0.7244094488188977,"duration":0.09375},{"name":"C5","midi":72,"time":34.875,"velocity":0.7244094488188977,"duration":0.09375},{"name":"D5","midi":74,"time":34.96875,"velocity":0.7244094488188977,"duration":0.09375},{"name":"C5","midi":72,"time":35.0625,"velocity":0.7244094488188977,"duration":0.09375},{"name":"D5","midi":74,"time":35.15625,"velocity":0.7244094488188977,"duration":0.09375},{"name":"C5","midi":72,"time":35.25,"velocity":0.7244094488188977,"duration":0.09375},{"name":"D5","midi":74,"time":35.34375,"velocity":0.7244094488188977,"duration":0.09375},{"name":"B4","midi":71,"time":35.4375,"velocity":0.7244094488188977,"duration":0.09375},{"name":"C5","midi":72,"time":35.53125,"velocity":0.7244094488188977,"duration":0.09375},{"name":"B4","midi":71,"time":35.625,"velocity":0.7244094488188977,"duration":0.09375},{"name":"C5","midi":72,"time":35.71875,"velocity":0.7244094488188977,"duration":0.09375},{"name":"B4","midi":71,"time":35.8125,"velocity":0.7244094488188977,"duration":0.09375},{"name":"C5","midi":72,"time":35.90625,"velocity":0.7244094488188977,"duration":0.09375},{"name":"B4","midi":71,"time":36,"velocity":0.7244094488188977,"duration":0.09375},{"name":"C5","midi":72,"time":36.09375,"velocity":0.7244094488188977,"duration":0.09375},{"name":"B4","midi":71,"time":36.1875,"velocity":0.7244094488188977,"duration":0.09375},{"name":"C5","midi":72,"time":36.28125,"velocity":0.7244094488188977,"duration":0.09375},{"name":"B4","midi":71,"time":36.375,"velocity":0.7244094488188977,"duration":0.09375},{"name":"C5","midi":72,"time":36.46875,"velocity":0.7244094488188977,"duration":0.09375},{"name":"B4","midi":71,"time":36.5625,"velocity":0.7244094488188977,"duration":0.09375},{"name":"C5","midi":72,"time":36.65625,"velocity":0.7244094488188977,"duration":0.09375},{"name":"B4","midi":71,"time":36.75,"velocity":0.7244094488188977,"duration":0.09375},{"name":"C5","midi":72,"time":36.84375,"velocity":0.7244094488188977,"duration":0.09375},{"name":"B4","midi":71,"time":36.9375,"velocity":0.7244094488188977,"duration":0.09375},{"name":"C5","midi":72,"time":37.03125,"velocity":0.7244094488188977,"duration":0.09375},{"name":"B4","midi":71,"time":37.125,"velocity":0.7244094488188977,"duration":0.09375},{"name":"C5","midi":72,"time":37.21875,"velocity":0.7244094488188977,"duration":0.09375},{"name":"B4","midi":71,"time":37.3125,"velocity":0.7244094488188977,"duration":0.09375},{"name":"C5","midi":72,"time":37.40625,"velocity":0.7244094488188977,"duration":0.09375},{"name":"B4","midi":71,"time":37.5,"velocity":0.7244094488188977,"duration":0.09375},{"name":"C5","midi":72,"time":37.59375,"velocity":0.7244094488188977,"duration":0.09375},{"name":"B4","midi":71,"time":37.6875,"velocity":0.7244094488188977,"duration":0.09375},{"name":"C5","midi":72,"time":37.78125,"velocity":0.7244094488188977,"duration":0.09375},{"name":"B4","midi":71,"time":37.875,"velocity":0.7244094488188977,"duration":0.09375},{"name":"C5","midi":72,"time":37.96875,"velocity":0.7244094488188977,"duration":0.09375},{"name":"B4","midi":71,"time":38.0625,"velocity":0.7244094488188977,"duration":0.09375},{"name":"C5","midi":72,"time":38.15625,"velocity":0.7244094488188977,"duration":0.09375},{"name":"B4","midi":71,"time":38.25,"velocity":0.7244094488188977,"duration":0.09375},{"name":"C5","midi":72,"time":38.34375,"velocity":0.7244094488188977,"duration":0.09375},{"name":"B4","midi":71,"time":38.4375,"velocity":0.7244094488188977,"duration":0.09375},{"name":"C5","midi":72,"time":38.53125,"velocity":0.7244094488188977,"duration":0.09375},{"name":"B4","midi":71,"time":38.625,"velocity":0.7244094488188977,"duration":0.09375},{"name":"C5","midi":72,"time":38.71875,"velocity":0.7244094488188977,"duration":0.09375},{"name":"B4","midi":71,"time":38.8125,"velocity":0.7244094488188977,"duration":0.17031250000000142},{"name":"E5","midi":76,"time":39,"velocity":0.7244094488188977,"duration":0.17031250000000142},{"name":"D5","midi":74,"time":39.1875,"velocity":0.7244094488188977,"duration":0.17031250000000142},{"name":"C5","midi":72,"time":39.375,"velocity":0.7244094488188977,"duration":0.17031250000000142},{"name":"D5","midi":74,"time":39.5625,"velocity":0.7244094488188977,"duration":0.17031250000000142},{"name":"B4","midi":71,"time":39.75,"velocity":0.7244094488188977,"duration":0.17031250000000142},{"name":"A4","midi":69,"time":39.9375,"velocity":0.7244094488188977,"duration":0.17031250000000142},{"name":"B4","midi":71,"time":40.125,"velocity":0.7244094488188977,"duration":0.17031250000000142},{"name":"G4","midi":67,"time":40.3125,"velocity":0.7244094488188977,"duration":0.17031250000000142},{"name":"A4","midi":69,"time":40.5,"velocity":0.7244094488188977,"duration":0.17031250000000142},{"name":"C5","midi":72,"time":40.6875,"velocity":0.7244094488188977,"duration":0.17031250000000142},{"name":"B4","midi":71,"time":40.875,"velocity":0.7244094488188977,"duration":0.17031250000000142},{"name":"A4","midi":69,"time":41.0625,"velocity":0.7244094488188977,"duration":0.17031250000000142},{"name":"B4","midi":71,"time":41.25,"velocity":0.7244094488188977,"duration":0.17031250000000142},{"name":"G4","midi":67,"time":41.4375,"velocity":0.7244094488188977,"duration":0.17031250000000142},{"name":"F#4","midi":66,"time":41.625,"velocity":0.7244094488188977,"duration":0.17031250000000142},{"name":"G4","midi":67,"time":41.8125,"velocity":0.7244094488188977,"duration":0.17031250000000142},{"name":"E4","midi":64,"time":42,"velocity":0.7244094488188977,"duration":0.17031250000000142},{"name":"F#4","midi":66,"time":42.1875,"velocity":0.7244094488188977,"duration":0.0859375},{"name":"G4","midi":67,"time":42.28125,"velocity":0.7244094488188977,"duration":0.0859375},{"name":"F#4","midi":66,"time":42.375,"velocity":0.7244094488188977,"duration":0.17031250000000142},{"name":"D4","midi":62,"time":42.5625,"velocity":0.7244094488188977,"duration":0.17031250000000142},{"name":"A4","midi":69,"time":42.75,"velocity":0.7244094488188977,"duration":0.0859375},{"name":"G4","midi":67,"time":42.84375,"velocity":0.7244094488188977,"duration":0.0859375},{"name":"A4","midi":69,"time":42.9375,"velocity":0.7244094488188977,"duration":0.17031250000000142},{"name":"F#4","midi":66,"time":43.125,"velocity":0.7244094488188977,"duration":0.17031250000000142},{"name":"D5","midi":74,"time":43.3125,"velocity":0.7244094488188977,"duration":0.0859375},{"name":"C5","midi":72,"time":43.40625,"velocity":0.7244094488188977,"duration":0.0859375},{"name":"D5","midi":74,"time":43.5,"velocity":0.7244094488188977,"duration":0.13125000000000142},{"name":"F#4","midi":66,"time":43.6875,"velocity":0.7244094488188977,"duration":0.13125000000000142},{"name":"G4","midi":67,"time":43.875,"velocity":0.7244094488188977,"duration":0.17031250000000142},{"name":"B4","midi":71,"time":44.0625,"velocity":0.7244094488188977,"duration":0.17031250000000142},{"name":"D5","midi":74,"time":44.25,"velocity":0.7244094488188977,"duration":0.17031250000000142},{"name":"B4","midi":71,"time":44.4375,"velocity":0.7244094488188977,"duration":0.17031250000000142},{"name":"G4","midi":67,"time":44.625,"velocity":0.7244094488188977,"duration":0.17031250000000142},{"name":"D5","midi":74,"time":44.8125,"velocity":0.7244094488188977,"duration":0.13125000000000142},{"name":"B4","midi":71,"time":45,"velocity":0.7244094488188977,"duration":0.17031250000000142},{"name":"G4","midi":67,"time":45.1875,"velocity":0.7244094488188977,"duration":0.17031250000000142},{"name":"G5","midi":79,"time":45.375,"velocity":0.7244094488188977,"duration":0.13125000000000142},{"name":"D5","midi":74,"time":45.5625,"velocity":0.7244094488188977,"duration":0.17031250000000142},{"name":"F#5","midi":78,"time":45.75,"velocity":0.7244094488188977,"duration":0.17031250000000142},{"name":"A5","midi":81,"time":45.9375,"velocity":0.7244094488188977,"duration":0.17031250000000142},{"name":"F#5","midi":78,"time":46.125,"velocity":0.7244094488188977,"duration":0.17031250000000142},{"name":"D5","midi":74,"time":46.3125,"velocity":0.7244094488188977,"duration":0.17031250000000142},{"name":"A5","midi":81,"time":46.5,"velocity":0.7244094488188977,"duration":0.13125000000000142},{"name":"F#5","midi":78,"time":46.6875,"velocity":0.7244094488188977,"duration":0.17031250000000142},{"name":"D5","midi":74,"time":46.875,"velocity":0.7244094488188977,"duration":0.17031250000000142},{"name":"C6","midi":84,"time":47.0625,"velocity":0.7244094488188977,"duration":0.13125000000000142},{"name":"B5","midi":83,"time":47.25,"velocity":0.7244094488188977,"duration":0.17031250000000142},{"name":"A5","midi":81,"time":47.4375,"velocity":0.7244094488188977,"duration":0.17031250000000142},{"name":"G5","midi":79,"time":47.625,"velocity":0.7244094488188977,"duration":0.17031250000000142},{"name":"F#5","midi":78,"time":47.8125,"velocity":0.7244094488188977,"duration":0.17031250000000142},{"name":"G5","midi":79,"time":48,"velocity":0.7244094488188977,"duration":0.17031250000000142},{"name":"A5","midi":81,"time":48.1875,"velocity":0.7244094488188977,"duration":0.17031250000000142},{"name":"D5","midi":74,"time":48.375,"velocity":0.7244094488188977,"duration":0.1875},{"name":"G5","midi":79,"time":48.5625,"velocity":0.7244094488188977,"duration":0.17031250000000142},{"name":"F#5","midi":78,"time":48.75,"velocity":0.7244094488188977,"duration":0.17031250000000142},{"name":"G5","midi":79,"time":48.9375,"velocity":0.7244094488188977,"duration":0.1875},{"name":"F#5","midi":78,"time":49.125,"velocity":0.7244094488188977,"duration":0.1875},{"name":"E5","midi":76,"time":49.3125,"velocity":0.7244094488188977,"duration":0.17031250000000142},{"name":"D5","midi":74,"time":49.5,"velocity":0.7244094488188977,"duration":0.1875},{"name":"C5","midi":72,"time":49.6875,"velocity":0.7244094488188977,"duration":0.1875},{"name":"B4","midi":71,"time":49.875,"velocity":0.7244094488188977,"duration":0.17031250000000142},{"name":"A4","midi":69,"time":50.0625,"velocity":0.7244094488188977,"duration":0.17031250000000142},{"name":"B4","midi":71,"time":50.25,"velocity":0.7244094488188977,"duration":0.17031250000000142},{"name":"C5","midi":72,"time":50.4375,"velocity":0.7244094488188977,"duration":0.17031250000000142},{"name":"B4","midi":71,"time":50.625,"velocity":0.7244094488188977,"duration":0.1875},{"name":"A4","midi":69,"time":50.8125,"velocity":0.7244094488188977,"duration":0.17031250000000142},{"name":"G4","midi":67,"time":51,"velocity":0.7244094488188977,"duration":0.17031250000000142},{"name":"F#4","midi":66,"time":51.1875,"velocity":0.7244094488188977,"duration":0.1875},{"name":"G4","midi":67,"time":51.375,"velocity":0.7244094488188977,"duration":0.17031250000000142},{"name":"A4","midi":69,"time":51.5625,"velocity":0.7244094488188977,"duration":0.17031250000000142},{"name":"D4","midi":62,"time":51.75,"velocity":0.7244094488188977,"duration":0.1875},{"name":"G4","midi":67,"time":51.9375,"velocity":0.7244094488188977,"duration":0.17031250000000142},{"name":"F#4","midi":66,"time":52.125,"velocity":0.7244094488188977,"duration":0.17031250000000142},{"name":"G4","midi":67,"time":52.3125,"velocity":0.7244094488188977,"duration":0.17031250000000142},{"name":"D4","midi":62,"time":52.5,"velocity":0.7244094488188977,"duration":0.17031250000000142},{"name":"B3","midi":59,"time":52.6875,"velocity":0.7244094488188977,"duration":0.13125000000000142},{"name":"G3","midi":55,"time":52.875,"velocity":0.7244094488188977,"duration":0.5125000000000028}],"controlChanges":{"7":[{"number":7,"time":0,"value":0.7874015748031497}],"10":[{"number":10,"time":0,"value":0.6220472440944882}]},"id":1,"name":"Harpsichord RH","instrumentNumber":6,"instrument":"harpsichord","instrumentFamily":"piano","channelNumber":0,"isPercussion":false},{"startTime":1.6875,"duration":54.9,"length":275,"notes":[{"name":"D3","midi":50,"time":1.6875,"velocity":0.7244094488188977,"duration":0.1703125000000001},{"name":"F#3","midi":54,"time":1.875,"velocity":0.7244094488188977,"duration":0.1703125000000001},{"name":"A3","midi":57,"time":2.0625,"velocity":0.7244094488188977,"duration":0.1703125000000001},{"name":"F#3","midi":54,"time":2.25,"velocity":0.7244094488188977,"duration":0.1703125000000001},{"name":"D3","midi":50,"time":2.4375,"velocity":0.7244094488188977,"duration":0.1703125000000001},{"name":"A3","midi":57,"time":2.625,"velocity":0.7244094488188977,"duration":0.1703125000000001},{"name":"F#3","midi":54,"time":2.8125,"velocity":0.7244094488188977,"duration":0.1703125000000001},{"name":"D3","midi":50,"time":3,"velocity":0.7244094488188977,"duration":0.1703125000000001},{"name":"C4","midi":60,"time":3.1875,"velocity":0.7244094488188977,"duration":0.1703125000000001},{"name":"B3","midi":59,"time":3.375,"velocity":0.7244094488188977,"duration":0.0859375},{"name":"C4","midi":60,"time":3.46875,"velocity":0.7244094488188977,"duration":0.0859375},{"name":"B3","midi":59,"time":3.5625,"velocity":0.7244094488188977,"duration":0.1703125000000001},{"name":"G3","midi":55,"time":3.75,"velocity":0.7244094488188977,"duration":0.1703125000000001},{"name":"D4","midi":62,"time":3.9375,"velocity":0.7244094488188977,"duration":0.17031249999999964},{"name":"B3","midi":59,"time":4.125,"velocity":0.7244094488188977,"duration":0.17031249999999964},{"name":"G3","midi":55,"time":4.3125,"velocity":0.7244094488188977,"duration":0.17031249999999964},{"name":"D4","midi":62,"time":4.5,"velocity":0.7244094488188977,"duration":0.17031249999999964},{"name":"B3","midi":59,"time":4.6875,"velocity":0.7244094488188977,"duration":0.17031249999999964},{"name":"G3","midi":55,"time":4.875,"velocity":0.7244094488188977,"duration":0.17031249999999964},{"name":"C4","midi":60,"time":5.0625,"velocity":0.7244094488188977,"duration":0.17031249999999964},{"name":"E4","midi":64,"time":5.25,"velocity":0.7244094488188977,"duration":0.17031249999999964},{"name":"C4","midi":60,"time":5.4375,"velocity":0.7244094488188977,"duration":0.17031249999999964},{"name":"A3","midi":57,"time":5.625,"velocity":0.7244094488188977,"duration":0.17031249999999964},{"name":"C4","midi":60,"time":5.8125,"velocity":0.7244094488188977,"duration":0.17031249999999964},{"name":"A3","midi":57,"time":6,"velocity":0.7244094488188977,"duration":0.17031249999999964},{"name":"F#3","midi":54,"time":6.1875,"velocity":0.7244094488188977,"duration":0.17031249999999964},{"name":"G3","midi":55,"time":6.375,"velocity":0.7244094488188977,"duration":0.17031249999999964},{"name":"A3","midi":57,"time":6.5625,"velocity":0.7244094488188977,"duration":0.17031249999999964},{"name":"B3","midi":59,"time":6.75,"velocity":0.7244094488188977,"duration":0.17031249999999964},{"name":"D4","midi":62,"time":6.9375,"velocity":0.7244094488188977,"duration":0.17031249999999964},{"name":"B3","midi":59,"time":7.125,"velocity":0.7244094488188977,"duration":0.17031249999999964},{"name":"G3","midi":55,"time":7.3125,"velocity":0.7244094488188977,"duration":0.17031249999999964},{"name":"B3","midi":59,"time":7.5,"velocity":0.7244094488188977,"duration":0.17031249999999964},{"name":"G3","midi":55,"time":7.6875,"velocity":0.7244094488188977,"duration":0.17031249999999964},{"name":"E3","midi":52,"time":7.875,"velocity":0.7244094488188977,"duration":0.17031249999999964},{"name":"F#3","midi":54,"time":8.0625,"velocity":0.7244094488188977,"duration":0.17031249999999964},{"name":"G3","midi":55,"time":8.25,"velocity":0.7244094488188977,"duration":0.17031249999999964},{"name":"A3","midi":57,"time":8.4375,"velocity":0.7244094488188977,"duration":0.17031249999999964},{"name":"C4","midi":60,"time":8.625,"velocity":0.7244094488188977,"duration":0.17031249999999964},{"name":"A3","midi":57,"time":8.8125,"velocity":0.7244094488188977,"duration":0.17031249999999964},{"name":"F#3","midi":54,"time":9,"velocity":0.7244094488188977,"duration":0.17031249999999964},{"name":"A3","midi":57,"time":9.1875,"velocity":0.7244094488188977,"duration":0.17031249999999964},{"name":"F#3","midi":54,"time":9.375,"velocity":0.7244094488188977,"duration":0.17031249999999964},{"name":"D3","midi":50,"time":9.5625,"velocity":0.7244094488188977,"duration":0.17031249999999964},{"name":"E3","midi":52,"time":9.75,"velocity":0.7244094488188977,"duration":0.17031249999999964},{"name":"F#3","midi":54,"time":9.9375,"velocity":0.7244094488188977,"duration":0.17031249999999964},{"name":"G3","midi":55,"time":10.125,"velocity":0.7244094488188977,"duration":0.09375},{"name":"F#3","midi":54,"time":10.21875,"velocity":0.7244094488188977,"duration":0.09375},{"name":"G3","midi":55,"time":10.3125,"velocity":0.7244094488188977,"duration":0.5453124999999996},{"name":"F#3","midi":54,"time":10.875,"velocity":0.7244094488188977,"duration":0.17031249999999964},{"name":"E3","midi":52,"time":11.0625,"velocity":0.7244094488188977,"duration":0.17031249999999964},{"name":"D3","midi":50,"time":11.25,"velocity":0.7244094488188977,"duration":0.17031249999999964},{"name":"E3","midi":52,"time":11.4375,"velocity":0.7244094488188977,"duration":0.17031249999999964},{"name":"C#3","midi":49,"time":11.625,"velocity":0.7244094488188977,"duration":0.17031249999999964},{"name":"F#3","midi":54,"time":11.8125,"velocity":0.7244094488188977,"duration":0.09375},{"name":"E3","midi":52,"time":11.90625,"velocity":0.7244094488188977,"duration":0.09375},{"name":"F#3","midi":54,"time":12,"velocity":0.7244094488188977,"duration":0.5453124999999996},{"name":"E3","midi":52,"time":12.5625,"velocity":0.7244094488188977,"duration":0.17031249999999964},{"name":"D3","midi":50,"time":12.75,"velocity":0.7244094488188977,"duration":0.17031249999999964},{"name":"C#3","midi":49,"time":12.9375,"velocity":0.7244094488188977,"duration":0.17031249999999964},{"name":"D3","midi":50,"time":13.125,"velocity":0.7244094488188977,"duration":0.17031249999999964},{"name":"B2","midi":47,"time":13.3125,"velocity":0.7244094488188977,"duration":0.17031249999999964},{"name":"E3","midi":52,"time":13.5,"velocity":0.7244094488188977,"duration":0.17031249999999964},{"name":"F#3","midi":54,"time":13.6875,"velocity":0.7244094488188977,"duration":0.17031249999999964},{"name":"G3","midi":55,"time":13.875,"velocity":0.7244094488188977,"duration":0.17031249999999964},{"name":"A3","midi":57,"time":14.0625,"velocity":0.7244094488188977,"duration":0.17031249999999964},{"name":"E3","midi":52,"time":14.25,"velocity":0.7244094488188977,"duration":0.17031249999999964},{"name":"C#4","midi":61,"time":14.4375,"velocity":0.7244094488188977,"duration":0.17031249999999964},{"name":"A3","midi":57,"time":14.625,"velocity":0.7244094488188977,"duration":0.17031249999999964},{"name":"E3","midi":52,"time":14.8125,"velocity":0.7244094488188977,"duration":0.17031249999999964},{"name":"C#4","midi":61,"time":15,"velocity":0.7244094488188977,"duration":0.17031249999999964},{"name":"D4","midi":62,"time":15.1875,"velocity":0.7244094488188977,"duration":0.09375},{"name":"C#4","midi":61,"time":15.28125,"velocity":0.7244094488188977,"duration":0.09375},{"name":"D4","midi":62,"time":15.375,"velocity":0.7244094488188977,"duration":0.5453124999999996},{"name":"D3","midi":50,"time":15.9375,"velocity":0.7244094488188977,"duration":0.17031250000000142},{"name":"E3","midi":52,"time":16.125,"velocity":0.7244094488188977,"duration":0.17031250000000142},{"name":"F#3","midi":54,"time":16.3125,"velocity":0.7244094488188977,"duration":0.17031250000000142},{"name":"E3","midi":52,"time":16.5,"velocity":0.7244094488188977,"duration":0.17031250000000142},{"name":"D3","midi":50,"time":16.6875,"velocity":0.7244094488188977,"duration":0.140625},{"name":"G3","midi":55,"time":16.875,"velocity":0.7244094488188977,"duration":0.09375},{"name":"F#3","midi":54,"time":16.96875,"velocity":0.7244094488188977,"duration":0.09375},{"name":"G3","midi":55,"time":17.0625,"velocity":0.7244094488188977,"duration":0.5453125000000014},{"name":"E3","midi":52,"time":17.625,"velocity":0.7244094488188977,"duration":0.17031250000000142},{"name":"F#3","midi":54,"time":17.8125,"velocity":0.7244094488188977,"duration":0.17031250000000142},{"name":"G3","midi":55,"time":18,"velocity":0.7244094488188977,"duration":0.17031250000000142},{"name":"F#3","midi":54,"time":18.1875,"velocity":0.7244094488188977,"duration":0.17031250000000142},{"name":"E3","midi":52,"time":18.375,"velocity":0.7244094488188977,"duration":0.140625},{"name":"A3","midi":57,"time":18.5625,"velocity":0.7244094488188977,"duration":0.09375},{"name":"G3","midi":55,"time":18.65625,"velocity":0.7244094488188977,"duration":0.09375},{"name":"A3","midi":57,"time":18.75,"velocity":0.7244094488188977,"duration":0.5453125000000014},{"name":"G3","midi":55,"time":19.3125,"velocity":0.7244094488188977,"duration":0.17031250000000142},{"name":"F#3","midi":54,"time":19.5,"velocity":0.7244094488188977,"duration":0.17031250000000142},{"name":"E3","midi":52,"time":19.6875,"velocity":0.7244094488188977,"duration":0.17031250000000142},{"name":"D3","midi":50,"time":19.875,"velocity":0.7244094488188977,"duration":0.17031250000000142},{"name":"C#3","midi":49,"time":20.0625,"velocity":0.7244094488188977,"duration":0.140625},{"name":"D3","midi":50,"time":20.25,"velocity":0.7244094488188977,"duration":0.17031250000000142},{"name":"E3","midi":52,"time":20.4375,"velocity":0.7244094488188977,"duration":0.17031250000000142},{"name":"F#3","midi":54,"time":20.625,"velocity":0.7244094488188977,"duration":0.17031250000000142},{"name":"G3","midi":55,"time":20.8125,"velocity":0.7244094488188977,"duration":0.17031250000000142},{"name":"A3","midi":57,"time":21,"velocity":0.7244094488188977,"duration":0.17031250000000142},{"name":"B3","midi":59,"time":21.1875,"velocity":0.7244094488188977,"duration":0.17031250000000142},{"name":"A3","midi":57,"time":21.375,"velocity":0.7244094488188977,"duration":0.3406249999999993},{"name":"A2","midi":45,"time":21.75,"velocity":0.7244094488188977,"duration":0.17031250000000142},{"name":"D3","midi":50,"time":21.9375,"velocity":0.7244094488188977,"duration":0.17031250000000142},{"name":"F#3","midi":54,"time":22.125,"velocity":0.7244094488188977,"duration":0.17031250000000142},{"name":"A3","midi":57,"time":22.3125,"velocity":0.7244094488188977,"duration":0.17031250000000142},{"name":"F#3","midi":54,"time":22.5,"velocity":0.7244094488188977,"duration":0.17031250000000142},{"name":"D3","midi":50,"time":22.6875,"velocity":0.7244094488188977,"duration":0.17031250000000142},{"name":"A3","midi":57,"time":22.875,"velocity":0.7244094488188977,"duration":0.17031250000000142},{"name":"F#3","midi":54,"time":23.0625,"velocity":0.7244094488188977,"duration":0.17031250000000142},{"name":"D3","midi":50,"time":23.25,"velocity":0.7244094488188977,"duration":0.17031250000000142},{"name":"D4","midi":62,"time":23.4375,"velocity":0.7244094488188977,"duration":0.17031250000000142},{"name":"C#4","midi":61,"time":23.625,"velocity":0.7244094488188977,"duration":0.09375},{"name":"D4","midi":62,"time":23.71875,"velocity":0.7244094488188977,"duration":0.09375},{"name":"C#4","midi":61,"time":23.8125,"velocity":0.7244094488188977,"duration":0.3406249999999993},{"name":"A3","midi":57,"time":24.1875,"velocity":0.7244094488188977,"duration":0.5124999999999993},{"name":"D3","midi":50,"time":25.3125,"velocity":0.7244094488188977,"duration":0.17031250000000142},{"name":"F#3","midi":54,"time":25.5,"velocity":0.7244094488188977,"duration":0.17031250000000142},{"name":"A3","midi":57,"time":25.6875,"velocity":0.7244094488188977,"duration":0.17031250000000142},{"name":"F#3","midi":54,"time":25.875,"velocity":0.7244094488188977,"duration":0.17031250000000142},{"name":"D3","midi":50,"time":26.0625,"velocity":0.7244094488188977,"duration":0.17031250000000142},{"name":"A3","midi":57,"time":26.25,"velocity":0.7244094488188977,"duration":0.17031250000000142},{"name":"F#3","midi":54,"time":26.4375,"velocity":0.7244094488188977,"duration":0.17031250000000142},{"name":"D3","midi":50,"time":26.625,"velocity":0.7244094488188977,"duration":0.17031250000000142},{"name":"C4","midi":60,"time":26.8125,"velocity":0.7244094488188977,"duration":0.17031250000000142},{"name":"B3","midi":59,"time":27,"velocity":0.7244094488188977,"duration":0.0859375},{"name":"C4","midi":60,"time":27.09375,"velocity":0.7244094488188977,"duration":0.0859375},{"name":"B3","midi":59,"time":27.1875,"velocity":0.7244094488188977,"duration":0.3406249999999993},{"name":"G3","midi":55,"time":27.5625,"velocity":0.7244094488188977,"duration":0.5124999999999993},{"name":"C3","midi":48,"time":28.6875,"velocity":0.7244094488188977,"duration":0.0859375},{"name":"B2","midi":47,"time":28.78125,"velocity":0.7244094488188977,"duration":0.0859375},{"name":"C3","midi":48,"time":28.875,"velocity":0.7244094488188977,"duration":0.5453125000000014},{"name":"D3","midi":50,"time":29.4375,"velocity":0.7244094488188977,"duration":0.17031250000000142},{"name":"E3","midi":52,"time":29.625,"velocity":0.7244094488188977,"duration":0.17031250000000142},{"name":"F#2","midi":42,"time":29.8125,"velocity":0.7244094488188977,"duration":0.17031250000000142},{"name":"G2","midi":43,"time":30,"velocity":0.7244094488188977,"duration":0.17031250000000142},{"name":"A2","midi":45,"time":30.1875,"velocity":0.7244094488188977,"duration":0.17031250000000142},{"name":"B2","midi":47,"time":30.375,"velocity":0.7244094488188977,"duration":0.0859375},{"name":"A2","midi":45,"time":30.46875,"velocity":0.7244094488188977,"duration":0.0859375},{"name":"B2","midi":47,"time":30.5625,"velocity":0.7244094488188977,"duration":0.5453125000000014},{"name":"C3","midi":48,"time":31.125,"velocity":0.7244094488188977,"duration":0.17031250000000142},{"name":"D3","midi":50,"time":31.3125,"velocity":0.7244094488188977,"duration":0.17031250000000142},{"name":"E2","midi":40,"time":31.5,"velocity":0.7244094488188977,"duration":0.17031250000000142},{"name":"F#2","midi":42,"time":31.6875,"velocity":0.7244094488188977,"duration":0.17031250000000142},{"name":"G2","midi":43,"time":31.875,"velocity":0.7244094488188977,"duration":0.17031250000000142},{"name":"A2","midi":45,"time":32.0625,"velocity":0.7244094488188977,"duration":0.17031250000000142},{"name":"C3","midi":48,"time":32.25,"velocity":0.7244094488188977,"duration":0.17031250000000142},{"name":"E3","midi":52,"time":32.4375,"velocity":0.7244094488188977,"duration":0.17031250000000142},{"name":"A3","midi":57,"time":32.625,"velocity":0.7244094488188977,"duration":0.13125000000000142},{"name":"E3","midi":52,"time":32.8125,"velocity":0.7244094488188977,"duration":0.17031250000000142},{"name":"C3","midi":48,"time":33,"velocity":0.7244094488188977,"duration":0.17031250000000142},{"name":"A2","midi":45,"time":33.1875,"velocity":0.7244094488188977,"duration":0.17031250000000142},{"name":"B2","midi":47,"time":33.375,"velocity":0.7244094488188977,"duration":0.17031250000000142},{"name":"C3","midi":48,"time":33.5625,"velocity":0.7244094488188977,"duration":0.17031250000000142},{"name":"D3","midi":50,"time":33.75,"velocity":0.7244094488188977,"duration":0.17031250000000142},{"name":"F#3","midi":54,"time":33.9375,"velocity":0.7244094488188977,"duration":0.17031250000000142},{"name":"A3","midi":57,"time":34.125,"velocity":0.7244094488188977,"duration":0.17031250000000142},{"name":"D4","midi":62,"time":34.3125,"velocity":0.7244094488188977,"duration":0.13125000000000142},{"name":"A3","midi":57,"time":34.5,"velocity":0.7244094488188977,"duration":0.17031250000000142},{"name":"F#3","midi":54,"time":34.6875,"velocity":0.7244094488188977,"duration":0.17031250000000142},{"name":"D3","midi":50,"time":34.875,"velocity":0.7244094488188977,"duration":0.17031250000000142},{"name":"E3","midi":52,"time":35.0625,"velocity":0.7244094488188977,"duration":0.17031250000000142},{"name":"F#3","midi":54,"time":35.25,"velocity":0.7244094488188977,"duration":0.17031250000000142},{"name":"G3","midi":55,"time":35.4375,"velocity":0.7244094488188977,"duration":0.17031250000000142},{"name":"B3","midi":59,"time":35.625,"velocity":0.7244094488188977,"duration":0.17031250000000142},{"name":"D4","midi":62,"time":35.8125,"velocity":0.7244094488188977,"duration":0.17031250000000142},{"name":"G4","midi":67,"time":36,"velocity":0.7244094488188977,"duration":0.13125000000000142},{"name":"D4","midi":62,"time":36.1875,"velocity":0.7244094488188977,"duration":0.17031250000000142},{"name":"B3","midi":59,"time":36.375,"velocity":0.7244094488188977,"duration":0.17031250000000142},{"name":"G3","midi":55,"time":36.5625,"velocity":0.7244094488188977,"duration":0.17031250000000142},{"name":"A3","midi":57,"time":36.75,"velocity":0.7244094488188977,"duration":0.17031250000000142},{"name":"B3","midi":59,"time":36.9375,"velocity":0.7244094488188977,"duration":0.17031250000000142},{"name":"E3","midi":52,"time":37.125,"velocity":0.7244094488188977,"duration":0.17031250000000142},{"name":"G3","midi":55,"time":37.3125,"velocity":0.7244094488188977,"duration":0.17031250000000142},{"name":"B3","midi":59,"time":37.5,"velocity":0.7244094488188977,"duration":0.17031250000000142},{"name":"E4","midi":64,"time":37.6875,"velocity":0.7244094488188977,"duration":0.13125000000000142},{"name":"B3","midi":59,"time":37.875,"velocity":0.7244094488188977,"duration":0.17031250000000142},{"name":"G3","midi":55,"time":38.0625,"velocity":0.7244094488188977,"duration":0.17031250000000142},{"name":"E3","midi":52,"time":38.25,"velocity":0.7244094488188977,"duration":0.17031250000000142},{"name":"F#3","midi":54,"time":38.4375,"velocity":0.7244094488188977,"duration":0.17031250000000142},{"name":"G3","midi":55,"time":38.625,"velocity":0.7244094488188977,"duration":0.17031250000000142},{"name":"C3","midi":48,"time":38.8125,"velocity":0.7244094488188977,"duration":0.09375},{"name":"D3","midi":50,"time":38.90625,"velocity":0.7244094488188977,"duration":0.09375},{"name":"C3","midi":48,"time":39,"velocity":0.7244094488188977,"duration":0.09375},{"name":"D3","midi":50,"time":39.09375,"velocity":0.7244094488188977,"duration":0.09375},{"name":"C3","midi":48,"time":39.1875,"velocity":0.7244094488188977,"duration":0.09375},{"name":"D3","midi":50,"time":39.28125,"velocity":0.7244094488188977,"duration":0.09375},{"name":"C3","midi":48,"time":39.375,"velocity":0.7244094488188977,"duration":0.09375},{"name":"D3","midi":50,"time":39.46875,"velocity":0.7244094488188977,"duration":0.09375},{"name":"C3","midi":48,"time":39.5625,"velocity":0.7244094488188977,"duration":0.09375},{"name":"D3","midi":50,"time":39.65625,"velocity":0.7244094488188977,"duration":0.09375},{"name":"C3","midi":48,"time":39.75,"velocity":0.7244094488188977,"duration":0.09375},{"name":"D3","midi":50,"time":39.84375,"velocity":0.7244094488188977,"duration":0.09375},{"name":"C3","midi":48,"time":39.9375,"velocity":0.7244094488188977,"duration":0.09375},{"name":"D3","midi":50,"time":40.03125,"velocity":0.7244094488188977,"duration":0.09375},{"name":"C3","midi":48,"time":40.125,"velocity":0.7244094488188977,"duration":0.09375},{"name":"D3","midi":50,"time":40.21875,"velocity":0.7244094488188977,"duration":0.09375},{"name":"C3","midi":48,"time":40.3125,"velocity":0.7244094488188977,"duration":0.09375},{"name":"D3","midi":50,"time":40.40625,"velocity":0.7244094488188977,"duration":0.09375},{"name":"C3","midi":48,"time":40.5,"velocity":0.7244094488188977,"duration":0.09375},{"name":"D3","midi":50,"time":40.59375,"velocity":0.7244094488188977,"duration":0.09375},{"name":"C3","midi":48,"time":40.6875,"velocity":0.7244094488188977,"duration":0.09375},{"name":"D3","midi":50,"time":40.78125,"velocity":0.7244094488188977,"duration":0.09375},{"name":"C3","midi":48,"time":40.875,"velocity":0.7244094488188977,"duration":0.09375},{"name":"D3","midi":50,"time":40.96875,"velocity":0.7244094488188977,"duration":0.09375},{"name":"C3","midi":48,"time":41.0625,"velocity":0.7244094488188977,"duration":0.09375},{"name":"D3","midi":50,"time":41.15625,"velocity":0.7244094488188977,"duration":0.09375},{"name":"C3","midi":48,"time":41.25,"velocity":0.7244094488188977,"duration":0.09375},{"name":"D3","midi":50,"time":41.34375,"velocity":0.7244094488188977,"duration":0.09375},{"name":"C3","midi":48,"time":41.4375,"velocity":0.7244094488188977,"duration":0.09375},{"name":"D3","midi":50,"time":41.53125,"velocity":0.7244094488188977,"duration":0.09375},{"name":"C3","midi":48,"time":41.625,"velocity":0.7244094488188977,"duration":0.09375},{"name":"D3","midi":50,"time":41.71875,"velocity":0.7244094488188977,"duration":0.09375},{"name":"C3","midi":48,"time":41.8125,"velocity":0.7244094488188977,"duration":0.09375},{"name":"D3","midi":50,"time":41.90625,"velocity":0.7244094488188977,"duration":0.09375},{"name":"C3","midi":48,"time":42,"velocity":0.7244094488188977,"duration":0.09375},{"name":"D3","midi":50,"time":42.09375,"velocity":0.7244094488188977,"duration":0.09375},{"name":"C3","midi":48,"time":42.1875,"velocity":0.7244094488188977,"duration":0.17031250000000142},{"name":"D3","midi":50,"time":42.375,"velocity":0.7244094488188977,"duration":0.17031250000000142},{"name":"F#3","midi":54,"time":42.5625,"velocity":0.7244094488188977,"duration":0.17031250000000142},{"name":"A3","midi":57,"time":42.75,"velocity":0.7244094488188977,"duration":0.17031250000000142},{"name":"F#3","midi":54,"time":42.9375,"velocity":0.7244094488188977,"duration":0.17031250000000142},{"name":"D3","midi":50,"time":43.125,"velocity":0.7244094488188977,"duration":0.17031250000000142},{"name":"C3","midi":48,"time":43.3125,"velocity":0.7244094488188977,"duration":0.17031250000000142},{"name":"B2","midi":47,"time":43.5,"velocity":0.7244094488188977,"duration":0.13125000000000142},{"name":"A3","midi":57,"time":43.6875,"velocity":0.7244094488188977,"duration":0.13125000000000142},{"name":"B2","midi":47,"time":43.875,"velocity":0.7244094488188977,"duration":0.17031250000000142},{"name":"G2","midi":43,"time":44.0625,"velocity":0.7244094488188977,"duration":0.17031250000000142},{"name":"B2","midi":47,"time":44.25,"velocity":0.7244094488188977,"duration":0.17031250000000142},{"name":"D3","midi":50,"time":44.4375,"velocity":0.7244094488188977,"duration":0.17031250000000142},{"name":"B2","midi":47,"time":44.625,"velocity":0.7244094488188977,"duration":0.17031250000000142},{"name":"G2","midi":43,"time":44.8125,"velocity":0.7244094488188977,"duration":0.17031250000000142},{"name":"D3","midi":50,"time":45,"velocity":0.7244094488188977,"duration":0.17031250000000142},{"name":"B2","midi":47,"time":45.1875,"velocity":0.7244094488188977,"duration":0.17031250000000142},{"name":"G2","midi":43,"time":45.375,"velocity":0.7244094488188977,"duration":0.17031250000000142},{"name":"F#2","midi":42,"time":45.5625,"velocity":0.7244094488188977,"duration":0.17031250000000142},{"name":"D2","midi":38,"time":45.75,"velocity":0.7244094488188977,"duration":0.17031250000000142},{"name":"F#2","midi":42,"time":45.9375,"velocity":0.7244094488188977,"duration":0.17031250000000142},{"name":"A2","midi":45,"time":46.125,"velocity":0.7244094488188977,"duration":0.17031250000000142},{"name":"F#2","midi":42,"time":46.3125,"velocity":0.7244094488188977,"duration":0.17031250000000142},{"name":"D2","midi":38,"time":46.5,"velocity":0.7244094488188977,"duration":0.17031250000000142},{"name":"A2","midi":45,"time":46.6875,"velocity":0.7244094488188977,"duration":0.17031250000000142},{"name":"F#2","midi":42,"time":46.875,"velocity":0.7244094488188977,"duration":0.17031250000000142},{"name":"D2","midi":38,"time":47.0625,"velocity":0.7244094488188977,"duration":0.17031250000000142},{"name":"G2","midi":43,"time":47.25,"velocity":0.7244094488188977,"duration":0.17031250000000142},{"name":"A2","midi":45,"time":47.4375,"velocity":0.7244094488188977,"duration":0.17031250000000142},{"name":"B2","midi":47,"time":47.625,"velocity":0.7244094488188977,"duration":0.17031250000000142},{"name":"A2","midi":45,"time":47.8125,"velocity":0.7244094488188977,"duration":0.17031250000000142},{"name":"B2","midi":47,"time":48,"velocity":0.7244094488188977,"duration":0.17031250000000142},{"name":"C3","midi":48,"time":48.1875,"velocity":0.7244094488188977,"duration":0.17031250000000142},{"name":"B2","midi":47,"time":48.375,"velocity":0.7244094488188977,"duration":0.17031250000000142},{"name":"C3","midi":48,"time":48.5625,"velocity":0.7244094488188977,"duration":0.17031250000000142},{"name":"D3","midi":50,"time":48.75,"velocity":0.7244094488188977,"duration":0.17031250000000142},{"name":"E2","midi":40,"time":48.9375,"velocity":0.7244094488188977,"duration":0.9031250000000028},{"name":"E3","midi":52,"time":49.875,"velocity":0.7244094488188977,"duration":0.17031250000000142},{"name":"F#3","midi":54,"time":50.0625,"velocity":0.7244094488188977,"duration":0.17031250000000142},{"name":"E3","midi":52,"time":50.25,"velocity":0.7244094488188977,"duration":0.17031250000000142},{"name":"D3","midi":50,"time":50.4375,"velocity":0.7244094488188977,"duration":0.17031250000000142},{"name":"G3","midi":55,"time":50.625,"velocity":0.7244094488188977,"duration":0.09375},{"name":"F#3","midi":54,"time":50.71875,"velocity":0.7244094488188977,"duration":0.09375},{"name":"G3","midi":55,"time":50.8125,"velocity":0.7244094488188977,"duration":0.17031250000000142},{"name":"B2","midi":47,"time":51,"velocity":0.7244094488188977,"duration":0.17031250000000142},{"name":"E3","midi":52,"time":51.1875,"velocity":0.7244094488188977,"duration":0.17031250000000142},{"name":"D3","midi":50,"time":51.375,"velocity":0.7244094488188977,"duration":0.17031250000000142},{"name":"C3","midi":48,"time":51.5625,"velocity":0.7244094488188977,"duration":0.17031250000000142},{"name":"D3","midi":50,"time":51.75,"velocity":0.7244094488188977,"duration":0.09375},{"name":"C3","midi":48,"time":51.84375,"velocity":0.7244094488188977,"duration":0.09375},{"name":"D3","midi":50,"time":51.9375,"velocity":0.7244094488188977,"duration":0.17031250000000142},{"name":"D2","midi":38,"time":52.125,"velocity":0.7244094488188977,"duration":0.17031250000000142},{"name":"G2","midi":43,"time":52.3125,"velocity":0.7244094488188977,"duration":0.7328125000000014},{"name":"B2","midi":47,"time":53.0625,"velocity":0.7244094488188977,"duration":0.17031250000000142},{"name":"D3","midi":50,"time":53.25,"velocity":0.7244094488188977,"duration":0.17031250000000142},{"name":"G3","midi":55,"time":53.4375,"velocity":0.7244094488188977,"duration":0.09375},{"name":"F#3","midi":54,"time":53.53125,"velocity":0.7244094488188977,"duration":0.09375},{"name":"G3","midi":55,"time":53.625,"velocity":0.7244094488188977,"duration":1.2749999999999986}],"controlChanges":{"7":[{"number":7,"time":0,"value":0.7874015748031497}],"10":[{"number":10,"time":0,"value":0.3700787401574803}]},"id":2,"name":"Harpsichord LH","instrumentNumber":6,"instrument":"harpsichord","instrumentFamily":"piano","channelNumber":0,"isPercussion":false}]}