{"header":{"PPQ":384,"timeSignature":[4,4],"bpm":85.00004250002125,"name":"--------"},"startTime":0,"duration":691.0548015311903,"tracks":[{"startTime":0,"duration":0,"length":0,"notes":[],"controlChanges":{},"id":0,"name":"--------"},{"startTime":0.352941,"duration":691.0548015311903,"length":5308,"notes":[{"name":"A3","midi":57,"time":0.352941,"velocity":0.7637795275590551,"duration":0.35110276562500004},{"name":"A4","midi":69,"time":0.5294115,"velocity":0.7637795275590551,"duration":0.174632265625},{"name":"A2","midi":45,"time":0.705882,"velocity":0.7637795275590551,"duration":0.351102765625},{"name":"B4","midi":71,"time":0.705882,"velocity":0.7637795275590551,"duration":0.174632265625},{"name":"G#4","midi":68,"time":0.8823525,"velocity":0.7637795275590551,"duration":0.174632265625},{"name":"A3","midi":57,"time":1.058823,"velocity":0.7637795275590551,"duration":0.5147056250000002},{"name":"A4","midi":69,"time":1.058823,"velocity":0.7637795275590551,"duration":0.1746322656249999},{"name":"C5","midi":72,"time":1.2352935,"velocity":0.7637795275590551,"duration":0.17463226562500012},{"name":"D4","midi":62,"time":1.4117640000000002,"velocity":0.7637795275590551,"duration":0.1746322656249999},{"name":"B4","midi":71,"time":1.5882345000000002,"velocity":0.7637795275590551,"duration":0.1746322656249999},{"name":"G#3","midi":56,"time":1.7647050000000002,"velocity":0.7637795275590551,"duration":0.3511027656250003},{"name":"E4","midi":64,"time":1.7647050000000002,"velocity":0.7637795275590551,"duration":0.17463226562500012},{"name":"D4","midi":62,"time":1.9411755000000004,"velocity":0.7637795275590551,"duration":0.17463226562500012},{"name":"E3","midi":52,"time":2.1176460000000006,"velocity":0.7637795275590551,"duration":0.34926453125000023},{"name":"C4","midi":60,"time":2.1176460000000006,"velocity":0.7637795275590551,"duration":0.17463226562500012},{"name":"B3","midi":59,"time":2.294116500000001,"velocity":0.7637795275590551,"duration":0.17463226562500012},{"name":"C4","midi":60,"time":2.470587000000001,"velocity":0.7637795275590551,"duration":0.3511027656250003},{"name":"A3","midi":57,"time":2.647057500000001,"velocity":0.7637795275590551,"duration":0.17463226562500012},{"name":"B3","midi":59,"time":2.8235280000000014,"velocity":0.7637795275590551,"duration":0.17463226562500012},{"name":"E4","midi":64,"time":2.8235280000000014,"velocity":0.7637795275590551,"duration":0.3511027656250003},{"name":"G#3","midi":56,"time":2.9999985000000016,"velocity":0.7637795275590551,"duration":0.17463226562500012},{"name":"A3","midi":57,"time":3.1764690000000018,"velocity":0.7637795275590551,"duration":0.17463226562500012},{"name":"A4","midi":69,"time":3.1764690000000018,"velocity":0.7637795275590551,"duration":0.5294115000000006},{"name":"C4","midi":60,"time":3.352939500000002,"velocity":0.7637795275590551,"duration":0.17463226562500012},{"name":"D3","midi":50,"time":3.529410000000002,"velocity":0.7637795275590551,"duration":0.17463226562500012},{"name":"B3","midi":59,"time":3.7058805000000024,"velocity":0.7637795275590551,"duration":0.17463226562500012},{"name":"E3","midi":52,"time":3.8823510000000025,"velocity":0.7637795275590551,"duration":0.17463226562500012},{"name":"G#4","midi":68,"time":3.8823510000000025,"velocity":0.7637795275590551,"duration":0.35110276562499987},{"name":"D3","midi":50,"time":4.058821500000002,"velocity":0.7637795275590551,"duration":0.17463226562500012},{"name":"C3","midi":48,"time":4.235292000000002,"velocity":0.7637795275590551,"duration":0.17463226562500012},{"name":"B4","midi":71,"time":4.235292000000002,"velocity":0.7637795275590551,"duration":0.4044115624999991},{"name":"B2","midi":47,"time":4.411762500000002,"velocity":0.7637795275590551,"duration":0.17463226562500012},{"name":"C3","midi":48,"time":4.588233000000002,"velocity":0.7637795275590551,"duration":0.35110276562499987},{"name":"A4","midi":69,"time":4.764703500000001,"velocity":0.7637795275590551,"duration":0.17463226562500012},{"name":"E3","midi":52,"time":4.941174000000001,"velocity":0.7637795275590551,"duration":0.35110276562499987},{"name":"G#4","midi":68,"time":4.941174000000001,"velocity":0.7637795275590551,"duration":0.17463226562500012},{"name":"A4","midi":69,"time":5.117644500000001,"velocity":0.7637795275590551,"duration":0.17463226562500012},{"name":"A3","midi":57,"time":5.294115000000001,"velocity":0.7637795275590551,"duration":0.47794093749999966},{"name":"B4","midi":71,"time":5.294115000000001,"velocity":0.7637795275590551,"duration":0.17463226562500012},{"name":"C5","midi":72,"time":5.4705855,"velocity":0.7637795275590551,"duration":0.17463226562500012},{"name":"D5","midi":74,"time":5.647056,"velocity":0.7637795275590551,"duration":0.17463226562500012},{"name":"F5","midi":77,"time":5.8235265,"velocity":0.7637795275590551,"duration":0.17463226562500012},{"name":"G#3","midi":56,"time":5.999997,"velocity":0.7637795275590551,"duration":0.35110276562499987},{"name":"B4","midi":71,"time":5.999997,"velocity":0.7637795275590551,"duration":0.17463226562500012},{"name":"F5","midi":77,"time":6.176467499999999,"velocity":0.7637795275590551,"duration":0.17463226562500012},{"name":"B3","midi":59,"time":6.352937999999999,"velocity":0.7637795275590551,"duration":0.47794093749999966},{"name":"E5","midi":76,"time":6.352937999999999,"velocity":0.7637795275590551,"duration":0.17463226562500012},{"name":"D5","midi":74,"time":6.529408499999999,"velocity":0.7637795275590551,"duration":0.17463226562500012},{"name":"C5","midi":72,"time":6.705878999999999,"velocity":0.7637795275590551,"duration":0.35110276562499987},{"name":"A3","midi":57,"time":6.882349499999998,"velocity":0.7637795275590551,"duration":0.17463226562500012},{"name":"G#3","midi":56,"time":7.058819999999998,"velocity":0.7637795275590551,"duration":0.17463226562500012},{"name":"B4","midi":71,"time":7.058819999999998,"velocity":0.7637795275590551,"duration":0.17463226562500012},{"name":"A3","midi":57,"time":7.235290499999998,"velocity":0.7637795275590551,"duration":0.17463226562500012},{"name":"A4","midi":69,"time":7.235290499999998,"velocity":0.7637795275590551,"duration":0.14338228125000008},{"name":"B3","midi":59,"time":7.411760999999998,"velocity":0.7637795275590551,"duration":0.17463226562500012},{"name":"F5","midi":77,"time":7.411760999999998,"velocity":0.7637795275590551,"duration":0.6617643749999997},{"name":"C4","midi":60,"time":7.588231499999997,"velocity":0.7637795275590551,"duration":0.17463226562500012},{"name":"D4","midi":62,"time":7.764701999999997,"velocity":0.7637795275590551,"duration":0.17463226562500012},{"name":"F4","midi":65,"time":7.941172499999997,"velocity":0.7637795275590551,"duration":0.17463226562500012},{"name":"B3","midi":59,"time":8.117642999999997,"velocity":0.7637795275590551,"duration":0.17463226562500012},{"name":"E5","midi":76,"time":8.117642999999997,"velocity":0.7637795275590551,"duration":0.17463226562500012},{"name":"F4","midi":65,"time":8.294113499999998,"velocity":0.7637795275590551,"duration":0.17463226562500012},{"name":"D5","midi":74,"time":8.294113499999998,"velocity":0.7637795275590551,"duration":0.17463226562500012},{"name":"E4","midi":64,"time":8.470583999999999,"velocity":0.7637795275590551,"duration":0.17463226562500012},{"name":"G5","midi":79,"time":8.470583999999999,"velocity":0.7637795275590551,"duration":0.2941175000000005},{"name":"D4","midi":62,"time":8.6470545,"velocity":0.7637795275590551,"duration":0.17463226562500012},{"name":"C4","midi":60,"time":8.823525,"velocity":0.7637795275590551,"duration":0.35110276562500076},{"name":"E5","midi":76,"time":8.823525,"velocity":0.7637795275590551,"duration":0.17463226562500012},{"name":"C5","midi":72,"time":8.9999955,"velocity":0.7637795275590551,"duration":0.17463226562500012},{"name":"E4","midi":64,"time":9.176466000000001,"velocity":0.7637795275590551,"duration":0.34007335937500116},{"name":"D5","midi":74,"time":9.176466000000001,"velocity":0.7637795275590551,"duration":0.17463226562500012},{"name":"B4","midi":71,"time":9.352936500000002,"velocity":0.7637795275590551,"duration":0.17463226562500012},{"name":"A3","midi":57,"time":9.529407000000003,"velocity":0.7637795275590551,"duration":0.3124998437500004},{"name":"C5","midi":72,"time":9.529407000000003,"velocity":0.7637795275590551,"duration":0.17463226562500012},{"name":"E5","midi":76,"time":9.705877500000003,"velocity":0.7637795275590551,"duration":0.17463226562500012},{"name":"F4","midi":65,"time":9.882348000000004,"velocity":0.7637795275590551,"duration":0.35110276562500076},{"name":"A5","midi":81,"time":9.882348000000004,"velocity":0.7637795275590551,"duration":0.38602921875000185},{"name":"B4","midi":71,"time":10.058818500000005,"velocity":0.7637795275590551,"duration":0.17463226562500012},{"name":"D4","midi":62,"time":10.235289000000005,"velocity":0.7637795275590551,"duration":0.35110276562500076},{"name":"C5","midi":72,"time":10.235289000000005,"velocity":0.7637795275590551,"duration":0.17463226562500012},{"name":"A4","midi":69,"time":10.411759500000006,"velocity":0.7637795275590551,"duration":0.17463226562500012},{"name":"G3","midi":55,"time":10.588230000000006,"velocity":0.7637795275590551,"duration":0.35110276562500076},{"name":"B4","midi":71,"time":10.588230000000006,"velocity":0.7637795275590551,"duration":0.17463226562500012},{"name":"D5","midi":74,"time":10.764700500000007,"velocity":0.7637795275590551,"duration":0.17463226562500012},{"name":"E4","midi":64,"time":10.941171000000008,"velocity":0.7637795275590551,"duration":0.35110276562500076},{"name":"G5","midi":79,"time":10.941171000000008,"velocity":0.7637795275590551,"duration":0.38602921875000185},{"name":"A4","midi":69,"time":11.117641500000008,"velocity":0.7637795275590551,"duration":0.17463226562500012},{"name":"C4","midi":60,"time":11.294112000000009,"velocity":0.7637795275590551,"duration":0.35110276562500076},{"name":"B4","midi":71,"time":11.294112000000009,"velocity":0.7637795275590551,"duration":0.17463226562500012},{"name":"G#4","midi":68,"time":11.47058250000001,"velocity":0.7637795275590551,"duration":0.17463226562500012},{"name":"F3","midi":53,"time":11.64705300000001,"velocity":0.7637795275590551,"duration":0.35110276562500076},{"name":"A4","midi":69,"time":11.64705300000001,"velocity":0.7637795275590551,"duration":0.17463226562500012},{"name":"C5","midi":72,"time":11.823523500000011,"velocity":0.7637795275590551,"duration":0.17463226562500012},{"name":"D4","midi":62,"time":11.999994000000012,"velocity":0.7637795275590551,"duration":0.17463226562500012},{"name":"F5","midi":77,"time":11.999994000000012,"velocity":0.7637795275590551,"duration":0.40441156250000176},{"name":"B3","midi":59,"time":12.176464500000012,"velocity":0.7637795275590551,"duration":0.17463226562500012},{"name":"C4","midi":60,"time":12.352935000000013,"velocity":0.7637795275590551,"duration":0.17463226562500012},{"name":"D5","midi":74,"time":12.352935000000013,"velocity":0.7637795275590551,"duration":0.35110276562500076},{"name":"A3","midi":57,"time":12.529405500000014,"velocity":0.7637795275590551,"duration":0.17463226562500012},{"name":"B3","midi":59,"time":12.705876000000014,"velocity":0.7637795275590551,"duration":0.17463226562500012},{"name":"G4","midi":67,"time":12.705876000000014,"velocity":0.7637795275590551,"duration":0.35110276562500076},{"name":"D4","midi":62,"time":12.882346500000015,"velocity":0.7637795275590551,"duration":0.17463226562500012},{"name":"G4","midi":67,"time":13.058817000000015,"velocity":0.7637795275590551,"duration":0.17463226562500012},{"name":"E5","midi":76,"time":13.058817000000015,"velocity":0.7637795275590551,"duration":0.40441156250000176},{"name":"A3","midi":57,"time":13.235287500000016,"velocity":0.7637795275590551,"duration":0.17463226562500012},{"name":"B3","midi":59,"time":13.411758000000017,"velocity":0.7637795275590551,"duration":0.17463226562500012},{"name":"C5","midi":72,"time":13.411758000000017,"velocity":0.7637795275590551,"duration":0.35110276562500076},{"name":"G3","midi":55,"time":13.588228500000017,"velocity":0.7637795275590551,"duration":0.17463226562500012},{"name":"A3","midi":57,"time":13.764699000000018,"velocity":0.7637795275590551,"duration":0.17463226562500012},{"name":"F4","midi":65,"time":13.764699000000018,"velocity":0.7637795275590551,"duration":0.35110276562500076},{"name":"C4","midi":60,"time":13.941169500000019,"velocity":0.7637795275590551,"duration":0.17463226562500012},{"name":"F4","midi":65,"time":14.11764000000002,"velocity":0.7637795275590551,"duration":0.17463226562500012},{"name":"D5","midi":74,"time":14.11764000000002,"velocity":0.7637795275590551,"duration":0.40441156250000176},{"name":"G#3","midi":56,"time":14.29411050000002,"velocity":0.7637795275590551,"duration":0.17463226562500012},{"name":"E4","midi":64,"time":14.29411050000002,"velocity":0.7637795275590551,"duration":0.17463226562500012},{"name":"A3","midi":57,"time":14.47058100000002,"velocity":0.7637795275590551,"duration":0.17463226562500012},{"name":"F4","midi":65,"time":14.47058100000002,"velocity":0.7637795275590551,"duration":0.25735281250000064},{"name":"F#3","midi":54,"time":14.647051500000021,"velocity":0.7637795275590551,"duration":0.17463226562500012},{"name":"D4","midi":62,"time":14.647051500000021,"velocity":0.7637795275590551,"duration":0.17463226562500012},{"name":"G#3","midi":56,"time":14.823522000000022,"velocity":0.7637795275590551,"duration":0.17463226562500012},{"name":"E4","midi":64,"time":14.823522000000022,"velocity":0.7637795275590551,"duration":0.16544109374999927},{"name":"B3","midi":59,"time":14.999992500000022,"velocity":0.7637795275590551,"duration":0.17463226562500012},{"name":"G#4","midi":68,"time":14.999992500000022,"velocity":0.7637795275590551,"duration":0.16544109374999927},{"name":"E4","midi":64,"time":15.176463000000023,"velocity":0.7637795275590551,"duration":0.17463226562500012},{"name":"C5","midi":72,"time":15.176463000000023,"velocity":0.7637795275590551,"duration":0.35110276562500076},{"name":"A3","midi":57,"time":15.352933500000024,"velocity":0.7637795275590551,"duration":0.17463226562500012},{"name":"D4","midi":62,"time":15.529404000000024,"velocity":0.7637795275590551,"duration":0.17463226562500012},{"name":"B4","midi":71,"time":15.529404000000024,"velocity":0.7637795275590551,"duration":0.35110276562500076},{"name":"E3","midi":52,"time":15.705874500000025,"velocity":0.7637795275590551,"duration":0.17463226562500012},{"name":"F3","midi":53,"time":15.882345000000026,"velocity":0.7637795275590551,"duration":0.17463226562500012},{"name":"A4","midi":69,"time":15.882345000000026,"velocity":0.7637795275590551,"duration":0.35110276562500076},{"name":"D3","midi":50,"time":16.058815500000026,"velocity":0.7637795275590551,"duration":0.17463226562500012},{"name":"E3","midi":52,"time":16.235286000000027,"velocity":0.7637795275590551,"duration":0.35110276562500076},{"name":"G#4","midi":68,"time":16.235286000000027,"velocity":0.7637795275590551,"duration":0.17463226562500012},{"name":"A4","midi":69,"time":16.411756500000028,"velocity":0.7637795275590551,"duration":0.17463226562500012},{"name":"G#3","midi":56,"time":16.58822700000003,"velocity":0.7637795275590551,"duration":0.3400733593749976},{"name":"B4","midi":71,"time":16.58822700000003,"velocity":0.7637795275590551,"duration":0.17463226562500012},{"name":"F4","midi":65,"time":16.76469750000003,"velocity":0.7637795275590551,"duration":0.15624992187499842},{"name":"E3","midi":52,"time":16.941168000000026,"velocity":0.7637795275590551,"duration":0.321691015625003},{"name":"E4","midi":64,"time":16.941168000000026,"velocity":0.7637795275590551,"duration":0.14705874999999935},{"name":"D4","midi":62,"time":17.117638500000027,"velocity":0.7637795275590551,"duration":0.1286764062500012},{"name":"A3","midi":57,"time":17.294109000000027,"velocity":0.7637795275590551,"duration":0.35110276562500076},{"name":"C4","midi":60,"time":17.294109000000027,"velocity":0.7637795275590551,"duration":0.26470575000000096},{"name":"E4","midi":64,"time":17.470579500000028,"velocity":0.7637795275590551,"duration":0.17463226562500012},{"name":"A2","midi":45,"time":17.64705000000003,"velocity":0.7637795275590551,"duration":0.35110276562500076},{"name":"F4","midi":65,"time":17.64705000000003,"velocity":0.7637795275590551,"duration":0.17463226562500012},{"name":"D4","midi":62,"time":17.82352050000003,"velocity":0.7637795275590551,"duration":0.17463226562500012},{"name":"A3","midi":57,"time":17.99999100000003,"velocity":0.7637795275590551,"duration":0.47794093750000144},{"name":"E4","midi":64,"time":17.99999100000003,"velocity":0.7637795275590551,"duration":0.17463226562500012},{"name":"A4","midi":69,"time":18.17646150000003,"velocity":0.7637795275590551,"duration":0.17463226562500012},{"name":"B4","midi":71,"time":18.35293200000003,"velocity":0.7637795275590551,"duration":0.34926453125000023},{"name":"G#3","midi":56,"time":18.52940250000003,"velocity":0.7637795275590551,"duration":0.17463226562500012},{"name":"E4","midi":64,"time":18.52940250000003,"velocity":0.7637795275590551,"duration":0.17463226562500012},{"name":"A3","midi":57,"time":18.705873000000032,"velocity":0.7637795275590551,"duration":0.17463226562500012},{"name":"F4","midi":65,"time":18.705873000000032,"velocity":0.7637795275590551,"duration":0.17463226562500012},{"name":"F#3","midi":54,"time":18.882343500000033,"velocity":0.7637795275590551,"duration":0.17463226562500012},{"name":"D4","midi":62,"time":18.882343500000033,"velocity":0.7637795275590551,"duration":0.17463226562500012},{"name":"G#3","midi":56,"time":19.058814000000034,"velocity":0.7637795275590551,"duration":0.17463226562500012},{"name":"E4","midi":64,"time":19.058814000000034,"velocity":0.7637795275590551,"duration":0.17463226562500012},{"name":"E3","midi":52,"time":19.235284500000034,"velocity":0.7637795275590551,"duration":0.17463226562500012},{"name":"B4","midi":71,"time":19.235284500000034,"velocity":0.7637795275590551,"duration":0.17463226562500012},{"name":"A3","midi":57,"time":19.411755000000035,"velocity":0.7637795275590551,"duration":0.17463226562500012},{"name":"C5","midi":72,"time":19.411755000000035,"velocity":0.7637795275590551,"duration":0.34926453125000023},{"name":"G#3","midi":56,"time":19.588225500000036,"velocity":0.7637795275590551,"duration":0.17463226562500012},{"name":"E4","midi":64,"time":19.588225500000036,"velocity":0.7637795275590551,"duration":0.17463226562500012},{"name":"A3","midi":57,"time":19.764696000000036,"velocity":0.7637795275590551,"duration":0.17463226562500012},{"name":"F4","midi":65,"time":19.764696000000036,"velocity":0.7637795275590551,"duration":0.17463226562500012},{"name":"B3","midi":59,"time":19.941166500000037,"velocity":0.7637795275590551,"duration":0.17463226562500012},{"name":"D4","midi":62,"time":19.941166500000037,"velocity":0.7637795275590551,"duration":0.17463226562500012},{"name":"C4","midi":60,"time":20.117637000000038,"velocity":0.7637795275590551,"duration":0.17463226562500012},{"name":"E4","midi":64,"time":20.117637000000038,"velocity":0.7637795275590551,"duration":0.17463226562500012},{"name":"D4","midi":62,"time":20.294107500000038,"velocity":0.7637795275590551,"duration":0.17463226562500012},{"name":"C5","midi":72,"time":20.294107500000038,"velocity":0.7637795275590551,"duration":0.17463226562500012},{"name":"E4","midi":64,"time":20.47057800000004,"velocity":0.7637795275590551,"duration":0.17463226562500012},{"name":"B4","midi":71,"time":20.47057800000004,"velocity":0.7637795275590551,"duration":0.17463226562500012},{"name":"F4","midi":65,"time":20.64704850000004,"velocity":0.7637795275590551,"duration":0.17463226562500012},{"name":"A4","midi":69,"time":20.64704850000004,"velocity":0.7637795275590551,"duration":0.17463226562500012},{"name":"E4","midi":64,"time":20.82351900000004,"velocity":0.7637795275590551,"duration":0.17463226562500012},{"name":"G#4","midi":68,"time":20.82351900000004,"velocity":0.7637795275590551,"duration":0.22058812499999902},{"name":"D4","midi":62,"time":20.99998950000004,"velocity":0.7637795275590551,"duration":0.17463226562500012},{"name":"B4","midi":71,"time":20.99998950000004,"velocity":0.7637795275590551,"duration":0.17463226562500012},{"name":"C4","midi":60,"time":21.17646000000004,"velocity":0.7637795275590551,"duration":0.17463226562500012},{"name":"E4","midi":64,"time":21.17646000000004,"velocity":0.7637795275590551,"duration":0.34926453125000023},{"name":"B3","midi":59,"time":21.352930500000042,"velocity":0.7637795275590551,"duration":0.17463226562500012},{"name":"A3","midi":57,"time":21.529401000000043,"velocity":0.7637795275590551,"duration":0.6985290625000005},{"name":"E5","midi":76,"time":21.705871500000043,"velocity":0.7637795275590551,"duration":0.17463226562500012},{"name":"A2","midi":45,"time":21.882342000000044,"velocity":0.7637795275590551,"duration":0.35110276562500076},{"name":"F5","midi":77,"time":21.882342000000044,"velocity":0.7637795275590551,"duration":0.17463226562500012},{"name":"D5","midi":74,"time":22.058812500000045,"velocity":0.7637795275590551,"duration":0.17463226562500012},{"name":"A3","midi":57,"time":22.235283000000045,"velocity":0.7637795275590551,"duration":0.35110276562500076},{"name":"E5","midi":76,"time":22.235283000000045,"velocity":0.7637795275590551,"duration":0.17463226562500012},{"name":"C5","midi":72,"time":22.411753500000046,"velocity":0.7637795275590551,"duration":0.17463226562500012},{"name":"G3","midi":55,"time":22.588224000000046,"velocity":0.7637795275590551,"duration":0.6985290625000005},{"name":"B4","midi":71,"time":22.588224000000046,"velocity":0.7637795275590551,"duration":0.20220578125000088},{"name":"E5","midi":76,"time":22.764694500000047,"velocity":0.7637795275590551,"duration":0.17463226562500012},{"name":"G2","midi":43,"time":22.941165000000048,"velocity":0.7637795275590551,"duration":0.35110276562500076},{"name":"F5","midi":77,"time":22.941165000000048,"velocity":0.7637795275590551,"duration":0.17463226562500012},{"name":"D5","midi":74,"time":23.11763550000005,"velocity":0.7637795275590551,"duration":0.17463226562500012},{"name":"G3","midi":55,"time":23.29410600000005,"velocity":0.7637795275590551,"duration":0.35110276562500076},{"name":"E5","midi":76,"time":23.29410600000005,"velocity":0.7637795275590551,"duration":0.17463226562500012},{"name":"B4","midi":71,"time":23.47057650000005,"velocity":0.7637795275590551,"duration":0.17463226562500012},{"name":"F3","midi":53,"time":23.64704700000005,"velocity":0.7637795275590551,"duration":0.6985290625000005},{"name":"A4","midi":69,"time":23.64704700000005,"velocity":0.7637795275590551,"duration":0.20220578125000088},{"name":"E5","midi":76,"time":23.82351750000005,"velocity":0.7637795275590551,"duration":0.17463226562500012},{"name":"F2","midi":41,"time":23.99998800000005,"velocity":0.7637795275590551,"duration":0.35110276562500076},{"name":"F5","midi":77,"time":23.99998800000005,"velocity":0.7637795275590551,"duration":0.17463226562500012},{"name":"D5","midi":74,"time":24.176458500000052,"velocity":0.7637795275590551,"duration":0.17463226562500012},{"name":"F3","midi":53,"time":24.352929000000053,"velocity":0.7637795275590551,"duration":0.35110276562500076},{"name":"E5","midi":76,"time":24.352929000000053,"velocity":0.7637795275590551,"duration":0.17463226562500012},{"name":"A4","midi":69,"time":24.529399500000054,"velocity":0.7637795275590551,"duration":0.17463226562500012},{"name":"E3","midi":52,"time":24.705870000000054,"velocity":0.7637795275590551,"duration":0.35110276562500076},{"name":"G#4","midi":68,"time":24.705870000000054,"velocity":0.7637795275590551,"duration":0.17463226562500012},{"name":"B4","midi":71,"time":24.882340500000055,"velocity":0.7637795275590551,"duration":0.17463226562500012},{"name":"G#2","midi":44,"time":25.058811000000055,"velocity":0.7637795275590551,"duration":0.35110276562500076},{"name":"E4","midi":64,"time":25.058811000000055,"velocity":0.7637795275590551,"duration":0.17463226562500012},{"name":"C5","midi":72,"time":25.235281500000056,"velocity":0.7637795275590551,"duration":0.17463226562500012},{"name":"E2","midi":40,"time":25.411752000000057,"velocity":0.7637795275590551,"duration":0.35110276562500076},{"name":"D5","midi":74,"time":25.411752000000057,"velocity":0.7637795275590551,"duration":0.17463226562500012},{"name":"B4","midi":71,"time":25.588222500000057,"velocity":0.7637795275590551,"duration":0.17463226562500012},{"name":"A2","midi":45,"time":25.764693000000058,"velocity":0.7637795275590551,"duration":0.35110276562500076},{"name":"C5","midi":72,"time":25.764693000000058,"velocity":0.7637795275590551,"duration":0.17463226562500012},{"name":"E5","midi":76,"time":25.94116350000006,"velocity":0.7637795275590551,"duration":0.17463226562500012},{"name":"B2","midi":47,"time":26.11763400000006,"velocity":0.7637795275590551,"duration":0.35110276562500076},{"name":"A4","midi":69,"time":26.11763400000006,"velocity":0.7637795275590551,"duration":0.17463226562500012},{"name":"G#4","midi":68,"time":26.29410450000006,"velocity":0.7637795275590551,"duration":0.17463226562500012},{"name":"C3","midi":48,"time":26.47057500000006,"velocity":0.7637795275590551,"duration":0.35110276562500076},{"name":"A4","midi":69,"time":26.47057500000006,"velocity":0.7637795275590551,"duration":0.17463226562500012},{"name":"C5","midi":72,"time":26.64704550000006,"velocity":0.7637795275590551,"duration":0.17463226562500012},{"name":"D3","midi":50,"time":26.823516000000062,"velocity":0.7637795275590551,"duration":0.35110276562500076},{"name":"F#4","midi":66,"time":26.823516000000062,"velocity":0.7637795275590551,"duration":0.34926453125000023},{"name":"A4","midi":69,"time":26.999986500000063,"velocity":0.7637795275590551,"duration":0.17463226562500012},{"name":"F#3","midi":54,"time":27.176457000000063,"velocity":0.7637795275590551,"duration":0.35110276562500076},{"name":"D4","midi":62,"time":27.176457000000063,"velocity":0.7637795275590551,"duration":0.17463226562500012},{"name":"B4","midi":71,"time":27.352927500000064,"velocity":0.7637795275590551,"duration":0.17463226562500012},{"name":"D3","midi":50,"time":27.529398000000064,"velocity":0.7637795275590551,"duration":0.35110276562500076},{"name":"C5","midi":72,"time":27.529398000000064,"velocity":0.7637795275590551,"duration":0.17463226562500012},{"name":"A4","midi":69,"time":27.705868500000065,"velocity":0.7637795275590551,"duration":0.17463226562500012},{"name":"G3","midi":55,"time":27.882339000000066,"velocity":0.7637795275590551,"duration":0.35110276562500076},{"name":"B4","midi":71,"time":27.882339000000066,"velocity":0.7637795275590551,"duration":0.17463226562500012},{"name":"D5","midi":74,"time":28.058809500000066,"velocity":0.7637795275590551,"duration":0.17463226562500012},{"name":"A3","midi":57,"time":28.235280000000067,"velocity":0.7637795275590551,"duration":0.35110276562500076},{"name":"G4","midi":67,"time":28.235280000000067,"velocity":0.7637795275590551,"duration":0.17463226562500012},{"name":"F#4","midi":66,"time":28.411750500000068,"velocity":0.7637795275590551,"duration":0.17463226562500012},{"name":"B3","midi":59,"time":28.58822100000007,"velocity":0.7637795275590551,"duration":0.35110276562500076},{"name":"G4","midi":67,"time":28.58822100000007,"velocity":0.7637795275590551,"duration":0.17463226562500012},{"name":"B4","midi":71,"time":28.76469150000007,"velocity":0.7637795275590551,"duration":0.17463226562500012},{"name":"C4","midi":60,"time":28.94116200000007,"velocity":0.7637795275590551,"duration":0.35110276562500076},{"name":"E4","midi":64,"time":28.94116200000007,"velocity":0.7637795275590551,"duration":0.34926453125000023},{"name":"G4","midi":67,"time":29.11763250000007,"velocity":0.7637795275590551,"duration":0.17463226562500012},{"name":"E3","midi":52,"time":29.29410300000007,"velocity":0.7637795275590551,"duration":0.35110276562500076},{"name":"C4","midi":60,"time":29.29410300000007,"velocity":0.7637795275590551,"duration":0.17463226562500012},{"name":"A4","midi":69,"time":29.47057350000007,"velocity":0.7637795275590551,"duration":0.17463226562500012},{"name":"C3","midi":48,"time":29.647044000000072,"velocity":0.7637795275590551,"duration":0.35110276562500076},{"name":"B4","midi":71,"time":29.647044000000072,"velocity":0.7637795275590551,"duration":0.17463226562500012},{"name":"G4","midi":67,"time":29.823514500000073,"velocity":0.7637795275590551,"duration":0.17463226562500012},{"name":"F#3","midi":54,"time":29.999985000000073,"velocity":0.7637795275590551,"duration":0.35110276562500076},{"name":"A4","midi":69,"time":29.999985000000073,"velocity":0.7637795275590551,"duration":0.17463226562500012},{"name":"C5","midi":72,"time":30.176455500000074,"velocity":0.7637795275590551,"duration":0.17463226562500012},{"name":"G3","midi":55,"time":30.352926000000075,"velocity":0.7637795275590551,"duration":0.35110276562500076},{"name":"F#4","midi":66,"time":30.352926000000075,"velocity":0.7637795275590551,"duration":0.17463226562500012},{"name":"E4","midi":64,"time":30.529396500000075,"velocity":0.7637795275590551,"duration":0.17463226562500012},{"name":"A3","midi":57,"time":30.705867000000076,"velocity":0.7637795275590551,"duration":0.35110276562500076},{"name":"F#4","midi":66,"time":30.705867000000076,"velocity":0.7637795275590551,"duration":0.17463226562500012},{"name":"A4","midi":69,"time":30.882337500000077,"velocity":0.7637795275590551,"duration":0.17463226562500012},{"name":"B3","midi":59,"time":31.058808000000077,"velocity":0.7637795275590551,"duration":0.35110276562500076},{"name":"D#4","midi":63,"time":31.058808000000077,"velocity":0.7637795275590551,"duration":0.34926453125000023},{"name":"F#4","midi":66,"time":31.235278500000078,"velocity":0.7637795275590551,"duration":0.17463226562500012},{"name":"D#3","midi":51,"time":31.41174900000008,"velocity":0.7637795275590551,"duration":0.35110276562500076},{"name":"B3","midi":59,"time":31.41174900000008,"velocity":0.7637795275590551,"duration":0.17463226562500012},{"name":"G4","midi":67,"time":31.58821950000008,"velocity":0.7637795275590551,"duration":0.17463226562500012},{"name":"B2","midi":47,"time":31.76469000000008,"velocity":0.7637795275590551,"duration":0.35110276562500076},{"name":"A4","midi":69,"time":31.76469000000008,"velocity":0.7637795275590551,"duration":0.17463226562500012},{"name":"F#4","midi":66,"time":31.94116050000008,"velocity":0.7637795275590551,"duration":0.17463226562500012},{"name":"E3","midi":52,"time":32.11763100000008,"velocity":0.7637795275590551,"duration":0.17463226562500012},{"name":"G4","midi":67,"time":32.11763100000008,"velocity":0.7637795275590551,"duration":0.35110276562500076},{"name":"E4","midi":64,"time":32.29410150000008,"velocity":0.7637795275590551,"duration":0.17463226562500012},{"name":"F#4","midi":66,"time":32.47057200000008,"velocity":0.7637795275590551,"duration":0.17463226562500012},{"name":"B4","midi":71,"time":32.47057200000008,"velocity":0.7637795275590551,"duration":0.35110276562500076},{"name":"D#4","midi":63,"time":32.64704250000008,"velocity":0.7637795275590551,"duration":0.17463226562500012},{"name":"E4","midi":64,"time":32.823513000000084,"velocity":0.7637795275590551,"duration":0.17463226562500012},{"name":"E5","midi":76,"time":32.823513000000084,"velocity":0.7637795275590551,"duration":0.44117624999999805},{"name":"G4","midi":67,"time":32.999983500000084,"velocity":0.7637795275590551,"duration":0.17463226562500012},{"name":"A3","midi":57,"time":33.176454000000085,"velocity":0.7637795275590551,"duration":0.17463226562500012},{"name":"F#4","midi":66,"time":33.352924500000086,"velocity":0.7637795275590551,"duration":0.17463226562500012},{"name":"B3","midi":59,"time":33.529395000000086,"velocity":0.7637795275590551,"duration":0.17463226562500012},{"name":"D#5","midi":75,"time":33.529395000000086,"velocity":0.7637795275590551,"duration":0.35110276562500076},{"name":"A3","midi":57,"time":33.70586550000009,"velocity":0.7637795275590551,"duration":0.17463226562500012},{"name":"G3","midi":55,"time":33.88233600000009,"velocity":0.7637795275590551,"duration":0.17463226562500012},{"name":"F#5","midi":78,"time":33.88233600000009,"velocity":0.7637795275590551,"duration":0.3676468749999984},{"name":"F#3","midi":54,"time":34.05880650000009,"velocity":0.7637795275590551,"duration":0.17463226562500012},{"name":"G3","midi":55,"time":34.23527700000009,"velocity":0.7637795275590551,"duration":0.35110276562500076},{"name":"E5","midi":76,"time":34.41174750000009,"velocity":0.7637795275590551,"duration":0.17463226562500012},{"name":"B2","midi":47,"time":34.58821800000009,"velocity":0.7637795275590551,"duration":0.35110276562500076},{"name":"F#5","midi":78,"time":34.58821800000009,"velocity":0.7637795275590551,"duration":0.17463226562500012},{"name":"D#5","midi":75,"time":34.76468850000009,"velocity":0.7637795275590551,"duration":0.17463226562500012},{"name":"E3","midi":52,"time":34.94115900000009,"velocity":0.7637795275590551,"duration":0.40441156250000176},{"name":"E5","midi":76,"time":34.94115900000009,"velocity":0.7637795275590551,"duration":0.17463226562500012},{"name":"G5","midi":79,"time":35.11762950000009,"velocity":0.7637795275590551,"duration":0.17463226562500012},{"name":"A4","midi":69,"time":35.29410000000009,"velocity":0.7637795275590551,"duration":0.17463226562500012},{"name":"F#5","midi":78,"time":35.47057050000009,"velocity":0.7637795275590551,"duration":0.17463226562500012},{"name":"D#3","midi":51,"time":35.647041000000094,"velocity":0.7637795275590551,"duration":0.35110276562500076},{"name":"B4","midi":71,"time":35.647041000000094,"velocity":0.7637795275590551,"duration":0.17463226562500012},{"name":"A4","midi":69,"time":35.823511500000095,"velocity":0.7637795275590551,"duration":0.17463226562500012},{"name":"F#3","midi":54,"time":35.999982000000095,"velocity":0.7637795275590551,"duration":0.40441156250000176},{"name":"G4","midi":67,"time":35.999982000000095,"velocity":0.7637795275590551,"duration":0.17463226562500012},{"name":"F#4","midi":66,"time":36.176452500000096,"velocity":0.7637795275590551,"duration":0.17463226562500012},{"name":"G4","midi":67,"time":36.3529230000001,"velocity":0.7637795275590551,"duration":0.35110276562500076},{"name":"E3","midi":52,"time":36.5293935000001,"velocity":0.7637795275590551,"duration":0.17463226562500012},{"name":"D#3","midi":51,"time":36.7058640000001,"velocity":0.7637795275590551,"duration":0.17463226562500012},{"name":"F#4","midi":66,"time":36.7058640000001,"velocity":0.7637795275590551,"duration":0.1654410937499975},{"name":"E3","midi":52,"time":36.8823345000001,"velocity":0.7637795275590551,"duration":0.17463226562500012},{"name":"E4","midi":64,"time":36.8823345000001,"velocity":0.7637795275590551,"duration":0.1654410937499975},{"name":"F#3","midi":54,"time":37.0588050000001,"velocity":0.7637795275590551,"duration":0.17463226562500012},{"name":"C5","midi":72,"time":37.0588050000001,"velocity":0.7637795275590551,"duration":0.5698526562499993},{"name":"G3","midi":55,"time":37.2352755000001,"velocity":0.7637795275590551,"duration":0.17463226562500012},{"name":"A3","midi":57,"time":37.4117460000001,"velocity":0.7637795275590551,"duration":0.17463226562500012},{"name":"C4","midi":60,"time":37.5882165000001,"velocity":0.7637795275590551,"duration":0.17463226562500012},{"name":"F#3","midi":54,"time":37.7646870000001,"velocity":0.7637795275590551,"duration":0.17463226562500012},{"name":"B4","midi":71,"time":37.7646870000001,"velocity":0.7637795275590551,"duration":0.1654410937499975},{"name":"C4","midi":60,"time":37.9411575000001,"velocity":0.7637795275590551,"duration":0.17463226562500012},{"name":"A4","midi":69,"time":37.9411575000001,"velocity":0.7637795275590551,"duration":0.1654410937499975},{"name":"B3","midi":59,"time":38.1176280000001,"velocity":0.7637795275590551,"duration":0.17463226562500012},{"name":"D5","midi":74,"time":38.1176280000001,"velocity":0.7637795275590551,"duration":0.3308821875000021},{"name":"A3","midi":57,"time":38.2940985000001,"velocity":0.7637795275590551,"duration":0.17463226562500012},{"name":"G3","midi":55,"time":38.470569000000104,"velocity":0.7637795275590551,"duration":0.35110276562500076},{"name":"B4","midi":71,"time":38.470569000000104,"velocity":0.7637795275590551,"duration":0.17463226562500012},{"name":"C5","midi":72,"time":38.647039500000105,"velocity":0.7637795275590551,"duration":0.17463226562500012},{"name":"F#3","midi":54,"time":38.823510000000105,"velocity":0.7637795275590551,"duration":0.17463226562500012},{"name":"D5","midi":74,"time":38.823510000000105,"velocity":0.7637795275590551,"duration":0.17463226562500012},{"name":"E3","midi":52,"time":38.999980500000106,"velocity":0.7637795275590551,"duration":0.17463226562500012},{"name":"E5","midi":76,"time":38.999980500000106,"velocity":0.7637795275590551,"duration":0.17463226562500012},{"name":"C4","midi":60,"time":39.17645100000011,"velocity":0.7637795275590551,"duration":0.6433820312499989},{"name":"F#5","midi":78,"time":39.17645100000011,"velocity":0.7637795275590551,"duration":0.17463226562500012},{"name":"G5","midi":79,"time":39.35292150000011,"velocity":0.7637795275590551,"duration":0.17463226562500012},{"name":"A5","midi":81,"time":39.52939200000011,"velocity":0.7637795275590551,"duration":0.17463226562500012},{"name":"C6","midi":84,"time":39.70586250000011,"velocity":0.7637795275590551,"duration":0.17463226562500012},{"name":"B3","midi":59,"time":39.88233300000011,"velocity":0.7637795275590551,"duration":0.17463226562500012},{"name":"F#5","midi":78,"time":39.88233300000011,"velocity":0.7637795275590551,"duration":0.17463226562500012},{"name":"A3","midi":57,"time":40.05880350000011,"velocity":0.7637795275590551,"duration":0.17463226562500012},{"name":"C6","midi":84,"time":40.05880350000011,"velocity":0.7637795275590551,"duration":0.17463226562500012},{"name":"D4","midi":62,"time":40.23527400000011,"velocity":0.7637795275590551,"duration":0.3308821875000021},{"name":"B5","midi":83,"time":40.23527400000011,"velocity":0.7637795275590551,"duration":0.17463226562500012},{"name":"A5","midi":81,"time":40.41174450000011,"velocity":0.7637795275590551,"duration":0.17463226562500012},{"name":"B3","midi":59,"time":40.58821500000011,"velocity":0.7637795275590551,"duration":0.17463226562500012},{"name":"G5","midi":79,"time":40.58821500000011,"velocity":0.7637795275590551,"duration":0.35110276562500076},{"name":"G3","midi":55,"time":40.76468550000011,"velocity":0.7637795275590551,"duration":0.17463226562500012},{"name":"A3","midi":57,"time":40.94115600000011,"velocity":0.7637795275590551,"duration":0.17463226562500012},{"name":"B5","midi":83,"time":40.94115600000011,"velocity":0.7637795275590551,"duration":0.35110276562500076},{"name":"F#3","midi":54,"time":41.117626500000114,"velocity":0.7637795275590551,"duration":0.17463226562500012},{"name":"G3","midi":55,"time":41.294097000000114,"velocity":0.7637795275590551,"duration":0.17463226562500012},{"name":"E5","midi":76,"time":41.294097000000114,"velocity":0.7637795275590551,"duration":0.35110276562500076},{"name":"B3","midi":59,"time":41.470567500000115,"velocity":0.7637795275590551,"duration":0.17463226562500012},{"name":"E4","midi":64,"time":41.647038000000116,"velocity":0.7637795275590551,"duration":0.17463226562500012},{"name":"C5","midi":72,"time":41.647038000000116,"velocity":0.7637795275590551,"duration":0.3308821875000021},{"name":"F#3","midi":54,"time":41.823508500000116,"velocity":0.7637795275590551,"duration":0.17463226562500012},{"name":"G3","midi":55,"time":41.99997900000012,"velocity":0.7637795275590551,"duration":0.17463226562500012},{"name":"A5","midi":81,"time":41.99997900000012,"velocity":0.7637795275590551,"duration":0.35110276562500076},{"name":"E3","midi":52,"time":42.17644950000012,"velocity":0.7637795275590551,"duration":0.17463226562500012},{"name":"F#3","midi":54,"time":42.35292000000012,"velocity":0.7637795275590551,"duration":0.17463226562500012},{"name":"D5","midi":74,"time":42.35292000000012,"velocity":0.7637795275590551,"duration":0.35110276562500076},{"name":"A3","midi":57,"time":42.52939050000012,"velocity":0.7637795275590551,"duration":0.17463226562500012},{"name":"D4","midi":62,"time":42.70586100000012,"velocity":0.7637795275590551,"duration":0.17463226562500012},{"name":"B4","midi":71,"time":42.70586100000012,"velocity":0.7637795275590551,"duration":0.3308821875000021},{"name":"E3","midi":52,"time":42.88233150000012,"velocity":0.7637795275590551,"duration":0.17463226562500012},{"name":"F#3","midi":54,"time":43.05880200000012,"velocity":0.7637795275590551,"duration":0.17463226562500012},{"name":"G5","midi":79,"time":43.05880200000012,"velocity":0.7637795275590551,"duration":0.35110276562500076},{"name":"D3","midi":50,"time":43.23527250000012,"velocity":0.7637795275590551,"duration":0.17463226562500012},{"name":"E3","midi":52,"time":43.41174300000012,"velocity":0.7637795275590551,"duration":0.17463226562500012},{"name":"C5","midi":72,"time":43.41174300000012,"velocity":0.7637795275590551,"duration":0.35110276562500076},{"name":"G3","midi":55,"time":43.58821350000012,"velocity":0.7637795275590551,"duration":0.17463226562500012},{"name":"C4","midi":60,"time":43.76468400000012,"velocity":0.7637795275590551,"duration":0.35110276562500076},{"name":"A4","midi":69,"time":43.76468400000012,"velocity":0.7637795275590551,"duration":0.17463226562500012},{"name":"F#4","midi":66,"time":43.941154500000124,"velocity":0.7637795275590551,"duration":0.17463226562500012},{"name":"A3","midi":57,"time":44.117625000000125,"velocity":0.7637795275590551,"duration":0.35110276562500076},{"name":"G4","midi":67,"time":44.117625000000125,"velocity":0.7637795275590551,"duration":0.17463226562500012},{"name":"E4","midi":64,"time":44.294095500000125,"velocity":0.7637795275590551,"duration":0.17463226562500012},{"name":"D3","midi":50,"time":44.470566000000126,"velocity":0.7637795275590551,"duration":0.35110276562500076},{"name":"F#4","midi":66,"time":44.470566000000126,"velocity":0.7637795275590551,"duration":0.17463226562500012},{"name":"A4","midi":69,"time":44.64703650000013,"velocity":0.7637795275590551,"duration":0.17463226562500012},{"name":"B3","midi":59,"time":44.82350700000013,"velocity":0.7637795275590551,"duration":0.35110276562500076},{"name":"D5","midi":74,"time":44.82350700000013,"velocity":0.7637795275590551,"duration":0.2647057499999974},{"name":"E4","midi":64,"time":44.99997750000013,"velocity":0.7637795275590551,"duration":0.17463226562500012},{"name":"G3","midi":55,"time":45.17644800000013,"velocity":0.7637795275590551,"duration":0.35110276562500076},{"name":"F#4","midi":66,"time":45.17644800000013,"velocity":0.7637795275590551,"duration":0.17463226562500012},{"name":"D#4","midi":63,"time":45.35291850000013,"velocity":0.7637795275590551,"duration":0.17463226562500012},{"name":"C3","midi":48,"time":45.52938900000013,"velocity":0.7637795275590551,"duration":0.35110276562500076},{"name":"E4","midi":64,"time":45.52938900000013,"velocity":0.7637795275590551,"duration":0.17463226562500012},{"name":"G4","midi":67,"time":45.70585950000013,"velocity":0.7637795275590551,"duration":0.17463226562500012},{"name":"A3","midi":57,"time":45.88233000000013,"velocity":0.7637795275590551,"duration":0.17463226562500012},{"name":"C5","midi":72,"time":45.88233000000013,"velocity":0.7637795275590551,"duration":0.2647057499999974},{"name":"B2","midi":47,"time":46.05880050000013,"velocity":0.7637795275590551,"duration":0.17463226562500012},{"name":"D#4","midi":63,"time":46.05880050000013,"velocity":0.7637795275590551,"duration":0.17463226562500012},{"name":"C3","midi":48,"time":46.23527100000013,"velocity":0.7637795275590551,"duration":0.17463226562500012},{"name":"E4","midi":64,"time":46.23527100000013,"velocity":0.7637795275590551,"duration":0.17463226562500012},{"name":"A2","midi":45,"time":46.41174150000013,"velocity":0.7637795275590551,"duration":0.17463226562500012},{"name":"C#4","midi":61,"time":46.41174150000013,"velocity":0.7637795275590551,"duration":0.17463226562500012},{"name":"B2","midi":47,"time":46.588212000000134,"velocity":0.7637795275590551,"duration":0.17463226562500012},{"name":"D#4","midi":63,"time":46.588212000000134,"velocity":0.7637795275590551,"duration":0.17463226562500012},{"name":"D#3","midi":51,"time":46.764682500000134,"velocity":0.7637795275590551,"duration":0.17463226562500012},{"name":"F#4","midi":66,"time":46.764682500000134,"velocity":0.7637795275590551,"duration":0.17463226562500012},{"name":"G3","midi":55,"time":46.941153000000135,"velocity":0.7637795275590551,"duration":0.35110276562500076},{"name":"B4","midi":71,"time":46.941153000000135,"velocity":0.7637795275590551,"duration":0.22058812499999902},{"name":"E4","midi":64,"time":47.117623500000136,"velocity":0.7637795275590551,"duration":0.17463226562500012},{"name":"F#3","midi":54,"time":47.294094000000136,"velocity":0.7637795275590551,"duration":0.35110276562499365},{"name":"A4","midi":69,"time":47.294094000000136,"velocity":0.7637795275590551,"duration":0.23897046874999717},{"name":"B3","midi":59,"time":47.47056450000014,"velocity":0.7637795275590551,"duration":0.174632265624993},{"name":"E3","midi":52,"time":47.64703500000013,"velocity":0.7637795275590551,"duration":0.35110276562500076},{"name":"C4","midi":60,"time":47.64703500000013,"velocity":0.7637795275590551,"duration":0.22058812499999902},{"name":"A3","midi":57,"time":47.82350550000013,"velocity":0.7637795275590551,"duration":0.17463226562500012},{"name":"D#3","midi":51,"time":47.99997600000013,"velocity":0.7637795275590551,"duration":0.35110276562500076},{"name":"B3","midi":59,"time":47.99997600000013,"velocity":0.7637795275590551,"duration":0.22058812499999902},{"name":"D#4","midi":63,"time":48.17644650000013,"velocity":0.7637795275590551,"duration":0.17463226562500012},{"name":"B2","midi":47,"time":48.35291700000013,"velocity":0.7637795275590551,"duration":0.35110276562500076},{"name":"F#4","midi":66,"time":48.35291700000013,"velocity":0.7637795275590551,"duration":0.17463226562500012},{"name":"A4","midi":69,"time":48.529387500000134,"velocity":0.7637795275590551,"duration":0.15624992187500197},{"name":"D#3","midi":51,"time":48.705858000000134,"velocity":0.7637795275590551,"duration":0.3400733593750047},{"name":"G4","midi":67,"time":48.705858000000134,"velocity":0.7637795275590551,"duration":0.14705874999999935},{"name":"F#4","midi":66,"time":48.882328500000135,"velocity":0.7637795275590551,"duration":0.1286764062500012},{"name":"E3","midi":52,"time":49.058799000000135,"velocity":0.7637795275590551,"duration":0.6985290625000005},{"name":"G4","midi":67,"time":49.058799000000135,"velocity":0.7637795275590551,"duration":0.17463226562500012},{"name":"B4","midi":71,"time":49.235269500000136,"velocity":0.7637795275590551,"duration":0.17463226562500012},{"name":"E2","midi":40,"time":49.41174000000014,"velocity":0.7637795275590551,"duration":0.35110276562500076},{"name":"C5","midi":72,"time":49.41174000000014,"velocity":0.7637795275590551,"duration":0.17463226562500012},{"name":"A4","midi":69,"time":49.58821050000014,"velocity":0.7637795275590551,"duration":0.17463226562500012},{"name":"E3","midi":52,"time":49.76468100000014,"velocity":0.7637795275590551,"duration":0.5147056250000048},{"name":"B4","midi":71,"time":49.76468100000014,"velocity":0.7637795275590551,"duration":0.17463226562500012},{"name":"E5","midi":76,"time":49.94115150000014,"velocity":0.7637795275590551,"duration":0.17463226562500012},{"name":"F#5","midi":78,"time":50.11762200000014,"velocity":0.7637795275590551,"duration":0.2941174999999987},{"name":"D#3","midi":51,"time":50.29409250000014,"velocity":0.7637795275590551,"duration":0.17463226562500012},{"name":"B4","midi":71,"time":50.29409250000014,"velocity":0.7637795275590551,"duration":0.17463226562500012},{"name":"E3","midi":52,"time":50.47056300000014,"velocity":0.7637795275590551,"duration":0.17463226562500012},{"name":"C5","midi":72,"time":50.47056300000014,"velocity":0.7637795275590551,"duration":0.17463226562500012},{"name":"C#3","midi":49,"time":50.64703350000014,"velocity":0.7637795275590551,"duration":0.17463226562500012},{"name":"A4","midi":69,"time":50.64703350000014,"velocity":0.7637795275590551,"duration":0.17463226562500012},{"name":"D#3","midi":51,"time":50.82350400000014,"velocity":0.7637795275590551,"duration":0.17463226562500012},{"name":"B4","midi":71,"time":50.82350400000014,"velocity":0.7637795275590551,"duration":0.17463226562500012},{"name":"B2","midi":47,"time":50.99997450000014,"velocity":0.7637795275590551,"duration":0.17463226562500012},{"name":"F#5","midi":78,"time":50.99997450000014,"velocity":0.7637795275590551,"duration":0.17463226562500012},{"name":"E3","midi":52,"time":51.17644500000014,"velocity":0.7637795275590551,"duration":0.44117624999999805},{"name":"G5","midi":79,"time":51.17644500000014,"velocity":0.7637795275590551,"duration":0.2941174999999987},{"name":"B4","midi":71,"time":51.352915500000144,"velocity":0.7637795275590551,"duration":0.17463226562500012},{"name":"E2","midi":40,"time":51.529386000000144,"velocity":0.7637795275590551,"duration":0.3382351249999971},{"name":"C5","midi":72,"time":51.529386000000144,"velocity":0.7637795275590551,"duration":0.17463226562500012},{"name":"A4","midi":69,"time":51.705856500000145,"velocity":0.7637795275590551,"duration":0.174632265624993},{"name":"E3","midi":52,"time":51.88232700000014,"velocity":0.7637795275590551,"duration":0.35110276562500076},{"name":"B4","midi":71,"time":51.88232700000014,"velocity":0.7637795275590551,"duration":0.17463226562500012},{"name":"G5","midi":79,"time":52.05879750000014,"velocity":0.7637795275590551,"duration":0.17463226562500012},{"name":"B2","midi":47,"time":52.23526800000014,"velocity":0.7637795275590551,"duration":0.17463226562500012},{"name":"F#5","midi":78,"time":52.23526800000014,"velocity":0.7637795275590551,"duration":0.17463226562500012},{"name":"C3","midi":48,"time":52.41173850000014,"velocity":0.7637795275590551,"duration":0.17463226562500012},{"name":"E5","midi":76,"time":52.41173850000014,"velocity":0.7637795275590551,"duration":0.17463226562500012},{"name":"B2","midi":47,"time":52.58820900000014,"velocity":0.7637795275590551,"duration":0.17463226562500012},{"name":"D#5","midi":75,"time":52.58820900000014,"velocity":0.7637795275590551,"duration":0.17463226562500012},{"name":"A2","midi":45,"time":52.76467950000014,"velocity":0.7637795275590551,"duration":0.17463226562500012},{"name":"F#5","midi":78,"time":52.76467950000014,"velocity":0.7637795275590551,"duration":0.17463226562500012},{"name":"G2","midi":43,"time":52.94115000000014,"velocity":0.7637795275590551,"duration":0.17463226562500012},{"name":"B4","midi":71,"time":52.94115000000014,"velocity":0.7637795275590551,"duration":0.34926453125000023},{"name":"F#2","midi":42,"time":53.11762050000014,"velocity":0.7637795275590551,"duration":0.17463226562500012},{"name":"G2","midi":43,"time":53.294091000000144,"velocity":0.7637795275590551,"duration":0.17463226562500012},{"name":"B2","midi":47,"time":53.470561500000144,"velocity":0.7637795275590551,"duration":0.17463226562500012},{"name":"C3","midi":48,"time":53.647032000000145,"velocity":0.7637795275590551,"duration":0.17463226562500012},{"name":"E5","midi":76,"time":53.647032000000145,"velocity":0.7637795275590551,"duration":0.17463226562500012},{"name":"A2","midi":45,"time":53.823502500000146,"velocity":0.7637795275590551,"duration":0.17463226562500012},{"name":"F#5","midi":78,"time":53.823502500000146,"velocity":0.7637795275590551,"duration":0.17463226562500012},{"name":"B2","midi":47,"time":53.999973000000146,"velocity":0.7637795275590551,"duration":0.17463226562500012},{"name":"G5","midi":79,"time":53.999973000000146,"velocity":0.7637795275590551,"duration":0.2922792656249982},{"name":"G2","midi":43,"time":54.17644350000015,"velocity":0.7637795275590551,"duration":0.17463226562500012},{"name":"F#2","midi":42,"time":54.35291400000015,"velocity":0.7637795275590551,"duration":0.17463226562500012},{"name":"A4","midi":69,"time":54.35291400000015,"velocity":0.7637795275590551,"duration":0.3382351250000042},{"name":"B2","midi":47,"time":54.52938450000015,"velocity":0.7637795275590551,"duration":0.17463226562500012},{"name":"C3","midi":48,"time":54.70585500000015,"velocity":0.7637795275590551,"duration":0.17463226562500722},{"name":"A4","midi":69,"time":54.70585500000015,"velocity":0.7637795275590551,"duration":0.08639701562500335},{"name":"G4","midi":67,"time":54.76467850000015,"velocity":0.7637795275590551,"duration":0.08639701562500335},{"name":"A4","midi":69,"time":54.823502000000154,"velocity":0.7637795275590551,"duration":0.08639701562500335},{"name":"A2","midi":45,"time":54.88232550000016,"velocity":0.7637795275590551,"duration":0.17463226562500012},{"name":"G4","midi":67,"time":54.88232550000016,"velocity":0.7637795275590551,"duration":0.08639701562500335},{"name":"F#4","midi":66,"time":54.94114900000016,"velocity":0.7637795275590551,"duration":0.11764699999999806},{"name":"B2","midi":47,"time":55.05879600000016,"velocity":0.7637795275590551,"duration":0.17463226562500012},{"name":"G4","midi":67,"time":55.05879600000016,"velocity":0.7637795275590551,"duration":0.17463226562500012},{"name":"F#2","midi":42,"time":55.23526650000016,"velocity":0.7637795275590551,"duration":0.17463226562500012},{"name":"A4","midi":69,"time":55.23526650000016,"velocity":0.7637795275590551,"duration":0.17463226562500012},{"name":"E2","midi":40,"time":55.41173700000016,"velocity":0.7637795275590551,"duration":0.17463226562500012},{"name":"B4","midi":71,"time":55.41173700000016,"velocity":0.7637795275590551,"duration":0.17463226562500012},{"name":"B2","midi":47,"time":55.58820750000016,"velocity":0.7637795275590551,"duration":0.17463226562500012},{"name":"G4","midi":67,"time":55.58820750000016,"velocity":0.7637795275590551,"duration":0.17463226562500012},{"name":"C3","midi":48,"time":55.76467800000016,"velocity":0.7637795275590551,"duration":0.17463226562500012},{"name":"A4","midi":69,"time":55.76467800000016,"velocity":0.7637795275590551,"duration":0.17463226562500012},{"name":"A2","midi":45,"time":55.94114850000016,"velocity":0.7637795275590551,"duration":0.17463226562500012},{"name":"F#4","midi":66,"time":55.94114850000016,"velocity":0.7637795275590551,"duration":0.17463226562500012},{"name":"B2","midi":47,"time":56.11761900000016,"velocity":0.7637795275590551,"duration":0.17463226562500012},{"name":"G4","midi":67,"time":56.11761900000016,"velocity":0.7637795275590551,"duration":0.17463226562500012},{"name":"E2","midi":40,"time":56.29408950000016,"velocity":0.7637795275590551,"duration":0.17463226562500012},{"name":"E5","midi":76,"time":56.29408950000016,"velocity":0.7637795275590551,"duration":0.17463226562500012},{"name":"D#2","midi":39,"time":56.47056000000016,"velocity":0.7637795275590551,"duration":0.17463226562500722},{"name":"G4","midi":67,"time":56.47056000000016,"velocity":0.7637795275590551,"duration":0.08639701562500335},{"name":"F#4","midi":66,"time":56.531221734375166,"velocity":0.7637795275590551,"duration":0.08639701562500335},{"name":"E4","midi":64,"time":56.59188346875017,"velocity":0.7637795275590551,"duration":0.08639701562500335},{"name":"F#2","midi":42,"time":56.64703050000017,"velocity":0.7637795275590551,"duration":0.17463226562500722},{"name":"F#4","midi":66,"time":56.65254520312517,"velocity":0.7637795275590551,"duration":0.08639701562500335},{"name":"G4","midi":67,"time":56.713206937500175,"velocity":0.7637795275590551,"duration":0.08639701562500335},{"name":"F#4","midi":66,"time":56.77386867187518,"velocity":0.7637795275590551,"duration":0.08639701562500335},{"name":"B2","midi":47,"time":56.82350100000018,"velocity":0.7637795275590551,"duration":0.17463226562500722},{"name":"G4","midi":67,"time":56.83453040625018,"velocity":0.7637795275590551,"duration":0.08639701562500335},{"name":"F#4","midi":66,"time":56.895192140625184,"velocity":0.7637795275590551,"duration":0.08639701562500335},{"name":"G4","midi":67,"time":56.95585387500019,"velocity":0.7637795275590551,"duration":0.08639701562499624},{"name":"G2","midi":43,"time":56.999971500000186,"velocity":0.7637795275590551,"duration":0.17463226562500722},{"name":"F#4","midi":66,"time":57.01651560937518,"velocity":0.7637795275590551,"duration":0.08639701562500335},{"name":"G4","midi":67,"time":57.077177343750186,"velocity":0.7637795275590551,"duration":0.08639701562500335},{"name":"F#4","midi":66,"time":57.13783907812519,"velocity":0.7637795275590551,"duration":0.08639701562500335},{"name":"A2","midi":45,"time":57.17644200000019,"velocity":0.7637795275590551,"duration":0.17463226562500012},{"name":"G4","midi":67,"time":57.19850081250019,"velocity":0.7637795275590551,"duration":0.08639701562500335},{"name":"F#4","midi":66,"time":57.259162546875196,"velocity":0.7637795275590551,"duration":0.22058812499999902},{"name":"F#2","midi":42,"time":57.352912500000194,"velocity":0.7637795275590551,"duration":0.17463226562500012},{"name":"G2","midi":43,"time":57.529383000000195,"velocity":0.7637795275590551,"duration":0.35110276562500076},{"name":"B4","midi":71,"time":57.705853500000195,"velocity":0.7637795275590551,"duration":0.17463226562500012},{"name":"F#2","midi":42,"time":57.882324000000196,"velocity":0.7637795275590551,"duration":0.35110276562500076},{"name":"E5","midi":76,"time":57.882324000000196,"velocity":0.7637795275590551,"duration":0.17463226562500012},{"name":"D#5","midi":75,"time":58.0587945000002,"velocity":0.7637795275590551,"duration":0.17463226562500012},{"name":"E2","midi":40,"time":58.2352650000002,"velocity":0.7637795275590551,"duration":0.35110276562500076},{"name":"E5","midi":76,"time":58.2352650000002,"velocity":0.7637795275590551,"duration":0.17463226562500012},{"name":"G5","midi":79,"time":58.4117355000002,"velocity":0.7637795275590551,"duration":0.17463226562500012},{"name":"A2","midi":45,"time":58.5882060000002,"velocity":0.7637795275590551,"duration":0.35110276562500076},{"name":"C5","midi":72,"time":58.5882060000002,"velocity":0.7637795275590551,"duration":0.34926453125000023},{"name":"E5","midi":76,"time":58.7646765000002,"velocity":0.7637795275590551,"duration":0.17463226562500012},{"name":"C3","midi":48,"time":58.9411470000002,"velocity":0.7637795275590551,"duration":0.35110276562500076},{"name":"A4","midi":69,"time":58.9411470000002,"velocity":0.7637795275590551,"duration":0.17463226562500012},{"name":"F#5","midi":78,"time":59.1176175000002,"velocity":0.7637795275590551,"duration":0.17463226562500012},{"name":"A2","midi":45,"time":59.2940880000002,"velocity":0.7637795275590551,"duration":0.35110276562500076},{"name":"G5","midi":79,"time":59.2940880000002,"velocity":0.7637795275590551,"duration":0.17463226562500012},{"name":"E5","midi":76,"time":59.4705585000002,"velocity":0.7637795275590551,"duration":0.17463226562500012},{"name":"D3","midi":50,"time":59.6470290000002,"velocity":0.7637795275590551,"duration":0.35110276562500076},{"name":"F#5","midi":78,"time":59.6470290000002,"velocity":0.7637795275590551,"duration":0.17463226562500012},{"name":"A5","midi":81,"time":59.8234995000002,"velocity":0.7637795275590551,"duration":0.17463226562500012},{"name":"E3","midi":52,"time":59.999970000000204,"velocity":0.7637795275590551,"duration":0.35110276562500076},{"name":"D5","midi":74,"time":59.999970000000204,"velocity":0.7637795275590551,"duration":0.17463226562500012},{"name":"C#5","midi":73,"time":60.176440500000204,"velocity":0.7637795275590551,"duration":0.17463226562500012},{"name":"F#3","midi":54,"time":60.352911000000205,"velocity":0.7637795275590551,"duration":0.35110276562500076},{"name":"D5","midi":74,"time":60.352911000000205,"velocity":0.7637795275590551,"duration":0.17463226562500012},{"name":"F#5","midi":78,"time":60.529381500000206,"velocity":0.7637795275590551,"duration":0.17463226562500012},{"name":"G3","midi":55,"time":60.705852000000206,"velocity":0.7637795275590551,"duration":0.35110276562500076},{"name":"B4","midi":71,"time":60.705852000000206,"velocity":0.7637795275590551,"duration":0.34926453125000023},{"name":"D5","midi":74,"time":60.88232250000021,"velocity":0.7637795275590551,"duration":0.17463226562500012},{"name":"B3","midi":59,"time":61.05879300000021,"velocity":0.7637795275590551,"duration":0.35110276562500076},{"name":"G4","midi":67,"time":61.05879300000021,"velocity":0.7637795275590551,"duration":0.17463226562500012},{"name":"E5","midi":76,"time":61.23526350000021,"velocity":0.7637795275590551,"duration":0.17463226562500012},{"name":"G3","midi":55,"time":61.41173400000021,"velocity":0.7637795275590551,"duration":0.35110276562500076},{"name":"F#5","midi":78,"time":61.41173400000021,"velocity":0.7637795275590551,"duration":0.17463226562500012},{"name":"D#5","midi":75,"time":61.58820450000021,"velocity":0.7637795275590551,"duration":0.17463226562500012},{"name":"C4","midi":60,"time":61.76467500000021,"velocity":0.7637795275590551,"duration":0.35110276562500076},{"name":"E5","midi":76,"time":61.76467500000021,"velocity":0.7637795275590551,"duration":0.17463226562500012},{"name":"G5","midi":79,"time":61.94114550000021,"velocity":0.7637795275590551,"duration":0.17463226562500012},{"name":"E3","midi":52,"time":62.11761600000021,"velocity":0.7637795275590551,"duration":0.35110276562500076},{"name":"C5","midi":72,"time":62.11761600000021,"velocity":0.7637795275590551,"duration":0.17463226562500012},{"name":"B4","midi":71,"time":62.29408650000021,"velocity":0.7637795275590551,"duration":0.17463226562500012},{"name":"C3","midi":48,"time":62.47055700000021,"velocity":0.7637795275590551,"duration":0.35110276562500076},{"name":"C5","midi":72,"time":62.47055700000021,"velocity":0.7637795275590551,"duration":0.17463226562500012},{"name":"E5","midi":76,"time":62.64702750000021,"velocity":0.7637795275590551,"duration":0.17463226562500012},{"name":"F#3","midi":54,"time":62.823498000000214,"velocity":0.7637795275590551,"duration":0.35110276562500076},{"name":"A4","midi":69,"time":62.823498000000214,"velocity":0.7637795275590551,"duration":0.34926453125000023},{"name":"C5","midi":72,"time":62.999968500000215,"velocity":0.7637795275590551,"duration":0.17463226562500012},{"name":"A3","midi":57,"time":63.176439000000215,"velocity":0.7637795275590551,"duration":0.35110276562500076},{"name":"F#4","midi":66,"time":63.176439000000215,"velocity":0.7637795275590551,"duration":0.17463226562500012},{"name":"D#5","midi":75,"time":63.352909500000216,"velocity":0.7637795275590551,"duration":0.17463226562500012},{"name":"F#3","midi":54,"time":63.52938000000022,"velocity":0.7637795275590551,"duration":0.35110276562500076},{"name":"E5","midi":76,"time":63.52938000000022,"velocity":0.7637795275590551,"duration":0.17463226562500012},{"name":"C#5","midi":73,"time":63.70585050000022,"velocity":0.7637795275590551,"duration":0.17463226562500012},{"name":"B3","midi":59,"time":63.88232100000022,"velocity":0.7637795275590551,"duration":0.35110276562498655},{"name":"D#5","midi":75,"time":63.88232100000022,"velocity":0.7637795275590551,"duration":0.174632265624993},{"name":"F#5","midi":78,"time":64.05879150000021,"velocity":0.7637795275590551,"duration":0.174632265624993},{"name":"D#3","midi":51,"time":64.2352620000002,"velocity":0.7637795275590551,"duration":0.3400733593749976},{"name":"B4","midi":71,"time":64.2352620000002,"velocity":0.7637795275590551,"duration":0.174632265624993},{"name":"G5","midi":79,"time":64.4117325000002,"velocity":0.7637795275590551,"duration":0.17463226562500722},{"name":"B2","midi":47,"time":64.5882030000002,"velocity":0.7637795275590551,"duration":0.3400733593749976},{"name":"A5","midi":81,"time":64.5882030000002,"velocity":0.7637795275590551,"duration":0.174632265624993},{"name":"F#5","midi":78,"time":64.7646735000002,"velocity":0.7637795275590551,"duration":0.17463226562500722},{"name":"E3","midi":52,"time":64.94114400000021,"velocity":0.7637795275590551,"duration":0.174632265624993},{"name":"G5","midi":79,"time":64.94114400000021,"velocity":0.7637795275590551,"duration":0.5147056249999906},{"name":"E4","midi":64,"time":65.1176145000002,"velocity":0.7637795275590551,"duration":0.174632265624993},{"name":"F#4","midi":66,"time":65.2940850000002,"velocity":0.7637795275590551,"duration":0.17463226562500722},{"name":"D#4","midi":63,"time":65.4705555000002,"velocity":0.7637795275590551,"duration":0.174632265624993},{"name":"E4","midi":64,"time":65.6470260000002,"velocity":0.7637795275590551,"duration":0.174632265624993},{"name":"G4","midi":67,"time":65.82349650000019,"velocity":0.7637795275590551,"duration":0.174632265624993},{"name":"A3","midi":57,"time":65.99996700000018,"velocity":0.7637795275590551,"duration":0.35110276562498655},{"name":"E5","midi":76,"time":66.17643750000018,"velocity":0.7637795275590551,"duration":0.174632265624993},{"name":"C4","midi":60,"time":66.35290800000017,"velocity":0.7637795275590551,"duration":0.35110276562498655},{"name":"F#5","midi":78,"time":66.35290800000017,"velocity":0.7637795275590551,"duration":0.174632265624993},{"name":"D#5","midi":75,"time":66.52937850000016,"velocity":0.7637795275590551,"duration":0.174632265624993},{"name":"F#3","midi":54,"time":66.70584900000016,"velocity":0.7637795275590551,"duration":0.35110276562498655},{"name":"E5","midi":76,"time":66.70584900000016,"velocity":0.7637795275590551,"duration":0.174632265624993},{"name":"C6","midi":84,"time":66.88231950000015,"velocity":0.7637795275590551,"duration":0.174632265624993},{"name":"G3","midi":55,"time":67.05879000000014,"velocity":0.7637795275590551,"duration":0.35110276562500076},{"name":"B5","midi":83,"time":67.05879000000014,"velocity":0.7637795275590551,"duration":0.2941174999999987},{"name":"E5","midi":76,"time":67.23526050000014,"velocity":0.7637795275590551,"duration":0.17463226562500722},{"name":"B3","midi":59,"time":67.41173100000015,"velocity":0.7637795275590551,"duration":0.35110276562498655},{"name":"F#5","midi":78,"time":67.41173100000015,"velocity":0.7637795275590551,"duration":0.174632265624993},{"name":"D#5","midi":75,"time":67.58820150000014,"velocity":0.7637795275590551,"duration":0.174632265624993},{"name":"E3","midi":52,"time":67.76467200000013,"velocity":0.7637795275590551,"duration":0.35110276562498655},{"name":"E5","midi":76,"time":67.76467200000013,"velocity":0.7637795275590551,"duration":0.174632265624993},{"name":"B5","midi":83,"time":67.94114250000013,"velocity":0.7637795275590551,"duration":0.174632265624993},{"name":"C4","midi":60,"time":68.11761300000012,"velocity":0.7637795275590551,"duration":0.35110276562500076},{"name":"A5","midi":81,"time":68.11761300000012,"velocity":0.7637795275590551,"duration":0.3106616093750034},{"name":"A3","midi":57,"time":68.47055400000012,"velocity":0.7637795275590551,"duration":0.35110276562498655},{"name":"G5","midi":79,"time":68.47055400000012,"velocity":0.7637795275590551,"duration":0.08639701562499624},{"name":"F#5","midi":78,"time":68.55878925000012,"velocity":0.7637795275590551,"duration":0.08639701562499624},{"name":"G5","midi":79,"time":68.64702450000011,"velocity":0.7637795275590551,"duration":0.08639701562499624},{"name":"F#5","midi":78,"time":68.73525975000011,"velocity":0.7637795275590551,"duration":0.08639701562499624},{"name":"B3","midi":59,"time":68.82349500000011,"velocity":0.7637795275590551,"duration":0.35110276562498655},{"name":"G5","midi":79,"time":68.82349500000011,"velocity":0.7637795275590551,"duration":0.08639701562499624},{"name":"F#5","midi":78,"time":68.9117302500001,"velocity":0.7637795275590551,"duration":0.08639701562499624},{"name":"E5","midi":76,"time":68.9999655000001,"velocity":0.7637795275590551,"duration":0.08639701562499624},{"name":"F#5","midi":78,"time":69.0882007500001,"velocity":0.7637795275590551,"duration":0.08639701562499624},{"name":"E3","midi":52,"time":69.1764360000001,"velocity":0.7637795275590551,"duration":0.174632265624993},{"name":"E5","midi":76,"time":69.1764360000001,"velocity":0.7637795275590551,"duration":0.6985290624999863},{"name":"F#3","midi":54,"time":69.35290650000009,"velocity":0.7637795275590551,"duration":0.174632265624993},{"name":"G3","midi":55,"time":69.52937700000008,"velocity":0.7637795275590551,"duration":0.174632265624993},{"name":"A3","midi":57,"time":69.70584750000008,"velocity":0.7637795275590551,"duration":0.17463226562500722},{"name":"A#3","midi":58,"time":69.88231800000008,"velocity":0.7637795275590551,"duration":0.16176462500000355},{"name":"D3","midi":50,"time":70.05878850000009,"velocity":0.7637795275590551,"duration":0.16176462500000355},{"name":"C#3","midi":49,"time":70.2352590000001,"velocity":0.7637795275590551,"duration":0.35110276562498655},{"name":"B4","midi":71,"time":70.41172950000009,"velocity":0.7637795275590551,"duration":0.174632265624993},{"name":"E3","midi":52,"time":70.58820000000009,"velocity":0.7637795275590551,"duration":0.35110276562498655},{"name":"C#5","midi":73,"time":70.58820000000009,"velocity":0.7637795275590551,"duration":0.174632265624993},{"name":"E5","midi":76,"time":70.76467050000008,"velocity":0.7637795275590551,"duration":0.174632265624993},{"name":"C#3","midi":49,"time":70.94114100000007,"velocity":0.7637795275590551,"duration":0.35110276562498655},{"name":"G5","midi":79,"time":70.94114100000007,"velocity":0.7637795275590551,"duration":0.174632265624993},{"name":"D5","midi":74,"time":71.11761150000007,"velocity":0.7637795275590551,"duration":0.174632265624993},{"name":"A2","midi":45,"time":71.29408200000006,"velocity":0.7637795275590551,"duration":0.31249984374998974},{"name":"E5","midi":76,"time":71.29408200000006,"velocity":0.7637795275590551,"duration":0.174632265624993},{"name":"G5","midi":79,"time":71.47055250000005,"velocity":0.7637795275590551,"duration":0.174632265624993},{"name":"C#4","midi":61,"time":71.64702300000005,"velocity":0.7637795275590551,"duration":0.330882187499995},{"name":"A#5","midi":82,"time":71.64702300000005,"velocity":0.7637795275590551,"duration":0.174632265624993},{"name":"G5","midi":79,"time":71.82349350000004,"velocity":0.7637795275590551,"duration":0.17463226562500722},{"name":"E5","midi":76,"time":71.99996400000005,"velocity":0.7637795275590551,"duration":0.174632265624993},{"name":"F5","midi":77,"time":72.17643450000004,"velocity":0.7637795275590551,"duration":0.174632265624993},{"name":"E3","midi":52,"time":72.35290500000004,"velocity":0.7637795275590551,"duration":0.35110276562498655},{"name":"G5","midi":79,"time":72.35290500000004,"velocity":0.7637795275590551,"duration":0.174632265624993},{"name":"E5","midi":76,"time":72.52937550000003,"velocity":0.7637795275590551,"duration":0.174632265624993},{"name":"A3","midi":57,"time":72.70584600000002,"velocity":0.7637795275590551,"duration":0.32169101562499236},{"name":"C#5","midi":73,"time":72.70584600000002,"velocity":0.7637795275590551,"duration":0.174632265624993},{"name":"A#4","midi":70,"time":72.88231650000002,"velocity":0.7637795275590551,"duration":0.174632265624993},{"name":"C#3","midi":49,"time":73.05878700000001,"velocity":0.7637795275590551,"duration":0.32169101562499236},{"name":"A4","midi":69,"time":73.05878700000001,"velocity":0.7637795275590551,"duration":0.174632265624993},{"name":"G5","midi":79,"time":73.2352575,"velocity":0.7637795275590551,"duration":0.174632265624993},{"name":"D3","midi":50,"time":73.411728,"velocity":0.7637795275590551,"duration":0.174632265624993},{"name":"F5","midi":77,"time":73.411728,"velocity":0.7637795275590551,"duration":0.8823524999999677},{"name":"E3","midi":52,"time":73.58819849999999,"velocity":0.7637795275590551,"duration":0.174632265624993},{"name":"F3","midi":53,"time":73.76466899999998,"velocity":0.7637795275590551,"duration":0.174632265624993},{"name":"G3","midi":55,"time":73.94113949999998,"velocity":0.7637795275590551,"duration":0.174632265624993},{"name":"G#3","midi":56,"time":74.11760999999997,"velocity":0.7637795275590551,"duration":0.174632265624993},{"name":"C3","midi":48,"time":74.29408049999996,"velocity":0.7637795275590551,"duration":0.174632265624993},{"name":"B2","midi":47,"time":74.47055099999996,"velocity":0.7637795275590551,"duration":0.35110276562498655},{"name":"A4","midi":69,"time":74.64702149999995,"velocity":0.7637795275590551,"duration":0.174632265624993},{"name":"D3","midi":50,"time":74.82349199999994,"velocity":0.7637795275590551,"duration":0.35110276562498655},{"name":"B4","midi":71,"time":74.82349199999994,"velocity":0.7637795275590551,"duration":0.174632265624993},{"name":"D5","midi":74,"time":74.99996249999994,"velocity":0.7637795275590551,"duration":0.174632265624993},{"name":"B2","midi":47,"time":75.17643299999993,"velocity":0.7637795275590551,"duration":0.35110276562498655},{"name":"F5","midi":77,"time":75.17643299999993,"velocity":0.7637795275590551,"duration":0.174632265624993},{"name":"C5","midi":72,"time":75.35290349999993,"velocity":0.7637795275590551,"duration":0.174632265624993},{"name":"G2","midi":43,"time":75.52937399999992,"velocity":0.7637795275590551,"duration":0.31249984374998974},{"name":"D5","midi":74,"time":75.52937399999992,"velocity":0.7637795275590551,"duration":0.174632265624993},{"name":"F5","midi":77,"time":75.70584449999991,"velocity":0.7637795275590551,"duration":0.174632265624993},{"name":"B3","midi":59,"time":75.8823149999999,"velocity":0.7637795275590551,"duration":0.3400733593749976},{"name":"G#5","midi":80,"time":75.8823149999999,"velocity":0.7637795275590551,"duration":0.174632265624993},{"name":"F5","midi":77,"time":76.0587854999999,"velocity":0.7637795275590551,"duration":0.17463226562500722},{"name":"D5","midi":74,"time":76.23525599999991,"velocity":0.7637795275590551,"duration":0.174632265624993},{"name":"D#5","midi":75,"time":76.4117264999999,"velocity":0.7637795275590551,"duration":0.174632265624993},{"name":"D3","midi":50,"time":76.5881969999999,"velocity":0.7637795275590551,"duration":0.35110276562498655},{"name":"F5","midi":77,"time":76.5881969999999,"velocity":0.7637795275590551,"duration":0.174632265624993},{"name":"D5","midi":74,"time":76.76466749999989,"velocity":0.7637795275590551,"duration":0.174632265624993},{"name":"G3","midi":55,"time":76.94113799999988,"velocity":0.7637795275590551,"duration":0.31249984374998974},{"name":"B4","midi":71,"time":76.94113799999988,"velocity":0.7637795275590551,"duration":0.174632265624993},{"name":"G#4","midi":68,"time":77.11760849999987,"velocity":0.7637795275590551,"duration":0.174632265624993},{"name":"B2","midi":47,"time":77.29407899999987,"velocity":0.7637795275590551,"duration":0.31249984374998974},{"name":"G4","midi":67,"time":77.29407899999987,"velocity":0.7637795275590551,"duration":0.174632265624993},{"name":"F5","midi":77,"time":77.47054949999986,"velocity":0.7637795275590551,"duration":0.174632265624993},{"name":"C3","midi":48,"time":77.64701999999986,"velocity":0.7637795275590551,"duration":0.174632265624993},{"name":"E5","midi":76,"time":77.64701999999986,"velocity":0.7637795275590551,"duration":0.5147056249999906},{"name":"D3","midi":50,"time":77.82349049999985,"velocity":0.7637795275590551,"duration":0.174632265624993},{"name":"E3","midi":52,"time":77.99996099999984,"velocity":0.7637795275590551,"duration":0.17463226562500722},{"name":"B2","midi":47,"time":78.17643149999985,"velocity":0.7637795275590551,"duration":0.174632265624993},{"name":"C3","midi":48,"time":78.35290199999984,"velocity":0.7637795275590551,"duration":0.174632265624993},{"name":"A2","midi":45,"time":78.52937249999984,"velocity":0.7637795275590551,"duration":0.174632265624993},{"name":"F2","midi":41,"time":78.70584299999983,"velocity":0.7637795275590551,"duration":0.330882187499995},{"name":"A5","midi":81,"time":78.88231349999982,"velocity":0.7637795275590551,"duration":0.17463226562500722},{"name":"F3","midi":53,"time":79.05878399999983,"velocity":0.7637795275590551,"duration":0.34926453125000023},{"name":"A#5","midi":82,"time":79.05878399999983,"velocity":0.7637795275590551,"duration":0.174632265624993},{"name":"G#5","midi":80,"time":79.23525449999983,"velocity":0.7637795275590551,"duration":0.17463226562500722},{"name":"A5","midi":81,"time":79.41172499999983,"velocity":0.7637795275590551,"duration":0.174632265624993},{"name":"C6","midi":84,"time":79.58819549999983,"velocity":0.7637795275590551,"duration":0.174632265624993},{"name":"B2","midi":47,"time":79.76466599999982,"velocity":0.7637795275590551,"duration":0.330882187499995},{"name":"D5","midi":74,"time":79.76466599999982,"velocity":0.7637795275590551,"duration":0.174632265624993},{"name":"G#5","midi":80,"time":79.94113649999981,"velocity":0.7637795275590551,"duration":0.17463226562500722},{"name":"B3","midi":59,"time":80.11760699999982,"velocity":0.7637795275590551,"duration":0.34926453125000023},{"name":"A5","midi":81,"time":80.11760699999982,"velocity":0.7637795275590551,"duration":0.174632265624993},{"name":"F#5","midi":78,"time":80.29407749999982,"velocity":0.7637795275590551,"duration":0.17463226562500722},{"name":"G#5","midi":80,"time":80.47054799999982,"velocity":0.7637795275590551,"duration":0.174632265624993},{"name":"B5","midi":83,"time":80.64701849999982,"velocity":0.7637795275590551,"duration":0.174632265624993},{"name":"A3","midi":57,"time":80.82348899999981,"velocity":0.7637795275590551,"duration":0.35110276562498655},{"name":"C5","midi":72,"time":80.82348899999981,"velocity":0.7637795275590551,"duration":0.174632265624993},{"name":"A5","midi":81,"time":80.9999594999998,"velocity":0.7637795275590551,"duration":0.174632265624993},{"name":"D3","midi":50,"time":81.1764299999998,"velocity":0.7637795275590551,"duration":0.35110276562498655},{"name":"F5","midi":77,"time":81.1764299999998,"velocity":0.7637795275590551,"duration":0.174632265624993},{"name":"D5","midi":74,"time":81.35290049999979,"velocity":0.7637795275590551,"duration":0.174632265624993},{"name":"F3","midi":53,"time":81.52937099999978,"velocity":0.7637795275590551,"duration":0.35110276562498655},{"name":"B4","midi":71,"time":81.52937099999978,"velocity":0.7637795275590551,"duration":0.174632265624993},{"name":"D5","midi":74,"time":81.70584149999978,"velocity":0.7637795275590551,"duration":0.174632265624993},{"name":"E3","midi":52,"time":81.88231199999977,"velocity":0.7637795275590551,"duration":0.17463226562502143},{"name":"A4","midi":69,"time":81.88231199999977,"velocity":0.7637795275590551,"duration":0.08639701562501045},{"name":"G#4","midi":68,"time":81.94665020312478,"velocity":0.7637795275590551,"duration":0.08639701562501045},{"name":"A4","midi":69,"time":82.01098840624978,"velocity":0.7637795275590551,"duration":0.08639701562502466},{"name":"F3","midi":53,"time":82.0587824999998,"velocity":0.7637795275590551,"duration":0.17463226562502143},{"name":"G#4","midi":68,"time":82.0753266093748,"velocity":0.7637795275590551,"duration":0.08639701562501045},{"name":"A4","midi":69,"time":82.1396648124998,"velocity":0.7637795275590551,"duration":0.08639701562501045},{"name":"G#4","midi":68,"time":82.2040030156248,"velocity":0.7637795275590551,"duration":0.2187498906250056},{"name":"E3","midi":52,"time":82.23525299999982,"velocity":0.7637795275590551,"duration":0.174632265624993},{"name":"D3","midi":50,"time":82.41172349999981,"velocity":0.7637795275590551,"duration":0.17463226562500722},{"name":"F#4","midi":66,"time":82.41172349999981,"velocity":0.7637795275590551,"duration":0.17463226562500722},{"name":"C3","midi":48,"time":82.58819399999982,"velocity":0.7637795275590551,"duration":0.174632265624993},{"name":"E4","midi":64,"time":82.58819399999982,"velocity":0.7637795275590551,"duration":0.34926453125000023},{"name":"B2","midi":47,"time":82.76466449999981,"velocity":0.7637795275590551,"duration":0.17463226562500722},{"name":"A2","midi":45,"time":82.94113499999982,"velocity":0.7637795275590551,"duration":0.36580864062499074},{"name":"E5","midi":76,"time":83.11760549999981,"velocity":0.7637795275590551,"duration":0.174632265624993},{"name":"A3","midi":57,"time":83.2940759999998,"velocity":0.7637795275590551,"duration":0.3400733593750118},{"name":"F5","midi":77,"time":83.2940759999998,"velocity":0.7637795275590551,"duration":0.17463226562500722},{"name":"D5","midi":74,"time":83.47054649999981,"velocity":0.7637795275590551,"duration":0.17463226562500722},{"name":"A2","midi":45,"time":83.64701699999982,"velocity":0.7637795275590551,"duration":0.35110276562498655},{"name":"E5","midi":76,"time":83.64701699999982,"velocity":0.7637795275590551,"duration":0.174632265624993},{"name":"C5","midi":72,"time":83.82348749999981,"velocity":0.7637795275590551,"duration":0.174632265624993},{"name":"G2","midi":43,"time":83.99995799999981,"velocity":0.7637795275590551,"duration":0.36580864062499074},{"name":"B4","midi":71,"time":83.99995799999981,"velocity":0.7637795275590551,"duration":0.2573528124999882},{"name":"E5","midi":76,"time":84.1764284999998,"velocity":0.7637795275590551,"duration":0.174632265624993},{"name":"G3","midi":55,"time":84.3528989999998,"velocity":0.7637795275590551,"duration":0.3400733593750118},{"name":"F5","midi":77,"time":84.3528989999998,"velocity":0.7637795275590551,"duration":0.17463226562500722},{"name":"D5","midi":74,"time":84.5293694999998,"velocity":0.7637795275590551,"duration":0.17463226562500722},{"name":"G2","midi":43,"time":84.70583999999981,"velocity":0.7637795275590551,"duration":0.35110276562498655},{"name":"E5","midi":76,"time":84.70583999999981,"velocity":0.7637795275590551,"duration":0.174632265624993},{"name":"B4","midi":71,"time":84.8823104999998,"velocity":0.7637795275590551,"duration":0.174632265624993},{"name":"F2","midi":41,"time":85.0587809999998,"velocity":0.7637795275590551,"duration":0.36580864062499074},{"name":"A4","midi":69,"time":85.0587809999998,"velocity":0.7637795275590551,"duration":0.2573528124999882},{"name":"E5","midi":76,"time":85.23525149999979,"velocity":0.7637795275590551,"duration":0.174632265624993},{"name":"F3","midi":53,"time":85.41172199999978,"velocity":0.7637795275590551,"duration":0.3400733593750118},{"name":"F5","midi":77,"time":85.41172199999978,"velocity":0.7637795275590551,"duration":0.17463226562500722},{"name":"D5","midi":74,"time":85.58819249999979,"velocity":0.7637795275590551,"duration":0.17463226562500722},{"name":"F2","midi":41,"time":85.7646629999998,"velocity":0.7637795275590551,"duration":0.35110276562498655},{"name":"E5","midi":76,"time":85.7646629999998,"velocity":0.7637795275590551,"duration":0.174632265624993},{"name":"A4","midi":69,"time":85.9411334999998,"velocity":0.7637795275590551,"duration":0.174632265624993},{"name":"E2","midi":40,"time":86.11760399999979,"velocity":0.7637795275590551,"duration":0.35110276562498655},{"name":"G#4","midi":68,"time":86.11760399999979,"velocity":0.7637795275590551,"duration":0.2573528124999882},{"name":"B4","midi":71,"time":86.29407449999978,"velocity":0.7637795275590551,"duration":0.174632265624993},{"name":"G#2","midi":44,"time":86.47054499999977,"velocity":0.7637795275590551,"duration":0.35110276562498655},{"name":"E4","midi":64,"time":86.47054499999977,"velocity":0.7637795275590551,"duration":0.174632265624993},{"name":"C5","midi":72,"time":86.64701549999977,"velocity":0.7637795275590551,"duration":0.174632265624993},{"name":"E2","midi":40,"time":86.82348599999976,"velocity":0.7637795275590551,"duration":0.35110276562498655},{"name":"D5","midi":74,"time":86.82348599999976,"velocity":0.7637795275590551,"duration":0.174632265624993},{"name":"B4","midi":71,"time":86.99995649999975,"velocity":0.7637795275590551,"duration":0.174632265624993},{"name":"A2","midi":45,"time":87.17642699999975,"velocity":0.7637795275590551,"duration":0.35110276562500076},{"name":"C5","midi":72,"time":87.17642699999975,"velocity":0.7637795275590551,"duration":0.2941174999999987},{"name":"E5","midi":76,"time":87.35289749999974,"velocity":0.7637795275590551,"duration":0.17463226562500722},{"name":"C3","midi":48,"time":87.52936799999975,"velocity":0.7637795275590551,"duration":0.35110276562498655},{"name":"A4","midi":69,"time":87.52936799999975,"velocity":0.7637795275590551,"duration":0.174632265624993},{"name":"F5","midi":77,"time":87.70583849999974,"velocity":0.7637795275590551,"duration":0.174632265624993},{"name":"A2","midi":45,"time":87.88230899999974,"velocity":0.7637795275590551,"duration":0.35110276562498655},{"name":"G5","midi":79,"time":87.88230899999974,"velocity":0.7637795275590551,"duration":0.174632265624993},{"name":"E5","midi":76,"time":88.05877949999973,"velocity":0.7637795275590551,"duration":0.174632265624993},{"name":"D3","midi":50,"time":88.23524999999972,"velocity":0.7637795275590551,"duration":0.35110276562498655},{"name":"F5","midi":77,"time":88.23524999999972,"velocity":0.7637795275590551,"duration":0.174632265624993},{"name":"A5","midi":81,"time":88.41172049999972,"velocity":0.7637795275590551,"duration":0.174632265624993},{"name":"E3","midi":52,"time":88.58819099999971,"velocity":0.7637795275590551,"duration":0.35110276562498655},{"name":"D5","midi":74,"time":88.58819099999971,"velocity":0.7637795275590551,"duration":0.174632265624993},{"name":"C5","midi":72,"time":88.7646614999997,"velocity":0.7637795275590551,"duration":0.174632265624993},{"name":"F3","midi":53,"time":88.9411319999997,"velocity":0.7637795275590551,"duration":0.35110276562498655},{"name":"D5","midi":74,"time":88.9411319999997,"velocity":0.7637795275590551,"duration":0.174632265624993},{"name":"F5","midi":77,"time":89.11760249999969,"velocity":0.7637795275590551,"duration":0.174632265624993},{"name":"G3","midi":55,"time":89.29407299999968,"velocity":0.7637795275590551,"duration":0.35110276562500076},{"name":"B4","midi":71,"time":89.29407299999968,"velocity":0.7637795275590551,"duration":0.330882187499995},{"name":"D5","midi":74,"time":89.47054349999968,"velocity":0.7637795275590551,"duration":0.17463226562500722},{"name":"B3","midi":59,"time":89.64701399999969,"velocity":0.7637795275590551,"duration":0.35110276562498655},{"name":"G4","midi":67,"time":89.64701399999969,"velocity":0.7637795275590551,"duration":0.174632265624993},{"name":"E5","midi":76,"time":89.82348449999968,"velocity":0.7637795275590551,"duration":0.174632265624993},{"name":"G3","midi":55,"time":89.99995499999967,"velocity":0.7637795275590551,"duration":0.35110276562498655},{"name":"F5","midi":77,"time":89.99995499999967,"velocity":0.7637795275590551,"duration":0.174632265624993},{"name":"D5","midi":74,"time":90.17642549999967,"velocity":0.7637795275590551,"duration":0.174632265624993},{"name":"C3","midi":48,"time":90.35289599999966,"velocity":0.7637795275590551,"duration":0.35110276562498655},{"name":"E5","midi":76,"time":90.35289599999966,"velocity":0.7637795275590551,"duration":0.174632265624993},{"name":"G5","midi":79,"time":90.52936649999965,"velocity":0.7637795275590551,"duration":0.174632265624993},{"name":"D3","midi":50,"time":90.70583699999965,"velocity":0.7637795275590551,"duration":0.35110276562498655},{"name":"C5","midi":72,"time":90.70583699999965,"velocity":0.7637795275590551,"duration":0.174632265624993},{"name":"B4","midi":71,"time":90.88230749999964,"velocity":0.7637795275590551,"duration":0.174632265624993},{"name":"E3","midi":52,"time":91.05877799999963,"velocity":0.7637795275590551,"duration":0.35110276562498655},{"name":"C5","midi":72,"time":91.05877799999963,"velocity":0.7637795275590551,"duration":0.174632265624993},{"name":"E5","midi":76,"time":91.23524849999963,"velocity":0.7637795275590551,"duration":0.174632265624993},{"name":"F3","midi":53,"time":91.41171899999962,"velocity":0.7637795275590551,"duration":0.35110276562500076},{"name":"A4","midi":69,"time":91.41171899999962,"velocity":0.7637795275590551,"duration":0.2941174999999987},{"name":"C5","midi":72,"time":91.58818949999961,"velocity":0.7637795275590551,"duration":0.17463226562500722},{"name":"A3","midi":57,"time":91.76465999999962,"velocity":0.7637795275590551,"duration":0.35110276562498655},{"name":"F4","midi":65,"time":91.76465999999962,"velocity":0.7637795275590551,"duration":0.174632265624993},{"name":"D5","midi":74,"time":91.94113049999962,"velocity":0.7637795275590551,"duration":0.174632265624993},{"name":"F3","midi":53,"time":92.11760099999961,"velocity":0.7637795275590551,"duration":0.35110276562498655},{"name":"E5","midi":76,"time":92.11760099999961,"velocity":0.7637795275590551,"duration":0.174632265624993},{"name":"C5","midi":72,"time":92.2940714999996,"velocity":0.7637795275590551,"duration":0.174632265624993},{"name":"B2","midi":47,"time":92.4705419999996,"velocity":0.7637795275590551,"duration":0.35110276562498655},{"name":"D5","midi":74,"time":92.4705419999996,"velocity":0.7637795275590551,"duration":0.174632265624993},{"name":"F5","midi":77,"time":92.64701249999959,"velocity":0.7637795275590551,"duration":0.174632265624993},{"name":"C3","midi":48,"time":92.82348299999958,"velocity":0.7637795275590551,"duration":0.35110276562498655},{"name":"B4","midi":71,"time":92.82348299999958,"velocity":0.7637795275590551,"duration":0.174632265624993},{"name":"A4","midi":69,"time":92.99995349999958,"velocity":0.7637795275590551,"duration":0.174632265624993},{"name":"D3","midi":50,"time":93.17642399999957,"velocity":0.7637795275590551,"duration":0.35110276562498655},{"name":"B4","midi":71,"time":93.17642399999957,"velocity":0.7637795275590551,"duration":0.174632265624993},{"name":"D5","midi":74,"time":93.35289449999956,"velocity":0.7637795275590551,"duration":0.174632265624993},{"name":"E3","midi":52,"time":93.52936499999956,"velocity":0.7637795275590551,"duration":0.35110276562500076},{"name":"G#4","midi":68,"time":93.52936499999956,"velocity":0.7637795275590551,"duration":0.23897046874999717},{"name":"B4","midi":71,"time":93.70583549999955,"velocity":0.7637795275590551,"duration":0.17463226562500722},{"name":"G#3","midi":56,"time":93.88230599999956,"velocity":0.7637795275590551,"duration":0.35110276562498655},{"name":"E4","midi":64,"time":93.88230599999956,"velocity":0.7637795275590551,"duration":0.174632265624993},{"name":"C5","midi":72,"time":94.05877649999955,"velocity":0.7637795275590551,"duration":0.174632265624993},{"name":"E3","midi":52,"time":94.23524699999955,"velocity":0.7637795275590551,"duration":0.35110276562498655},{"name":"D5","midi":74,"time":94.23524699999955,"velocity":0.7637795275590551,"duration":0.174632265624993},{"name":"B4","midi":71,"time":94.41171749999954,"velocity":0.7637795275590551,"duration":0.174632265624993},{"name":"A3","midi":57,"time":94.58818799999953,"velocity":0.7637795275590551,"duration":0.35110276562498655},{"name":"C5","midi":72,"time":94.58818799999953,"velocity":0.7637795275590551,"duration":0.22058812499999192},{"name":"E5","midi":76,"time":94.76465849999953,"velocity":0.7637795275590551,"duration":0.174632265624993},{"name":"C4","midi":60,"time":94.94112899999952,"velocity":0.7637795275590551,"duration":0.35110276562498655},{"name":"A4","midi":69,"time":94.94112899999952,"velocity":0.7637795275590551,"duration":0.174632265624993},{"name":"G#4","midi":68,"time":95.11759949999951,"velocity":0.7637795275590551,"duration":0.174632265624993},{"name":"A3","midi":57,"time":95.29406999999951,"velocity":0.7637795275590551,"duration":0.35110276562498655},{"name":"A4","midi":69,"time":95.29406999999951,"velocity":0.7637795275590551,"duration":0.174632265624993},{"name":"C5","midi":72,"time":95.4705404999995,"velocity":0.7637795275590551,"duration":0.174632265624993},{"name":"F3","midi":53,"time":95.6470109999995,"velocity":0.7637795275590551,"duration":0.35110276562500076},{"name":"D5","midi":74,"time":95.6470109999995,"velocity":0.7637795275590551,"duration":0.34926453125000023},{"name":"F5","midi":77,"time":95.82348149999949,"velocity":0.7637795275590551,"duration":0.17463226562500722},{"name":"E3","midi":52,"time":95.9999519999995,"velocity":0.7637795275590551,"duration":0.35110276562498655},{"name":"A4","midi":69,"time":95.9999519999995,"velocity":0.7637795275590551,"duration":0.174632265624993},{"name":"G#4","midi":68,"time":96.17642249999949,"velocity":0.7637795275590551,"duration":0.174632265624993},{"name":"D3","midi":50,"time":96.35289299999948,"velocity":0.7637795275590551,"duration":0.35110276562498655},{"name":"A4","midi":69,"time":96.35289299999948,"velocity":0.7637795275590551,"duration":0.174632265624993},{"name":"D5","midi":74,"time":96.52936349999948,"velocity":0.7637795275590551,"duration":0.174632265624993},{"name":"C#3","midi":49,"time":96.70583399999947,"velocity":0.7637795275590551,"duration":0.35110276562498655},{"name":"E5","midi":76,"time":96.70583399999947,"velocity":0.7637795275590551,"duration":0.49632328124998537},{"name":"G5","midi":79,"time":96.88230449999946,"velocity":0.7637795275590551,"duration":0.174632265624993},{"name":"B2","midi":47,"time":97.05877499999946,"velocity":0.7637795275590551,"duration":0.35110276562498655},{"name":"A4","midi":69,"time":97.05877499999946,"velocity":0.7637795275590551,"duration":0.174632265624993},{"name":"G#4","midi":68,"time":97.23524549999945,"velocity":0.7637795275590551,"duration":0.174632265624993},{"name":"A2","midi":45,"time":97.41171599999944,"velocity":0.7637795275590551,"duration":0.35110276562498655},{"name":"A4","midi":69,"time":97.41171599999944,"velocity":0.7637795275590551,"duration":0.174632265624993},{"name":"E5","midi":76,"time":97.58818649999944,"velocity":0.7637795275590551,"duration":0.174632265624993},{"name":"D3","midi":50,"time":97.76465699999943,"velocity":0.7637795275590551,"duration":0.174632265624993},{"name":"F5","midi":77,"time":97.76465699999943,"velocity":0.7637795275590551,"duration":0.8823524999999677},{"name":"F3","midi":53,"time":97.94112749999942,"velocity":0.7637795275590551,"duration":0.174632265624993},{"name":"A3","midi":57,"time":98.11759799999942,"velocity":0.7637795275590551,"duration":0.174632265624993},{"name":"E3","midi":52,"time":98.29406849999941,"velocity":0.7637795275590551,"duration":0.174632265624993},{"name":"F3","midi":53,"time":98.4705389999994,"velocity":0.7637795275590551,"duration":0.174632265624993},{"name":"A3","midi":57,"time":98.6470094999994,"velocity":0.7637795275590551,"duration":0.174632265624993},{"name":"D4","midi":62,"time":98.82347999999939,"velocity":0.7637795275590551,"duration":0.35110276562498655},{"name":"A4","midi":69,"time":98.99995049999939,"velocity":0.7637795275590551,"duration":0.174632265624993},{"name":"F4","midi":65,"time":99.17642099999938,"velocity":0.7637795275590551,"duration":0.35110276562498655},{"name":"B4","midi":71,"time":99.17642099999938,"velocity":0.7637795275590551,"duration":0.174632265624993},{"name":"G#4","midi":68,"time":99.35289149999937,"velocity":0.7637795275590551,"duration":0.174632265624993},{"name":"B3","midi":59,"time":99.52936199999937,"velocity":0.7637795275590551,"duration":0.35110276562498655},{"name":"A4","midi":69,"time":99.52936199999937,"velocity":0.7637795275590551,"duration":0.174632265624993},{"name":"F5","midi":77,"time":99.70583249999936,"velocity":0.7637795275590551,"duration":0.174632265624993},{"name":"C4","midi":60,"time":99.88230299999935,"velocity":0.7637795275590551,"duration":0.35110276562498655},{"name":"E5","midi":76,"time":99.88230299999935,"velocity":0.7637795275590551,"duration":0.22058812499999192},{"name":"A4","midi":69,"time":100.05877349999935,"velocity":0.7637795275590551,"duration":0.174632265624993},{"name":"E4","midi":64,"time":100.23524399999934,"velocity":0.7637795275590551,"duration":0.35110276562498655},{"name":"B4","midi":71,"time":100.23524399999934,"velocity":0.7637795275590551,"duration":0.174632265624993},{"name":"G#4","midi":68,"time":100.41171449999933,"velocity":0.7637795275590551,"duration":0.174632265624993},{"name":"A3","midi":57,"time":100.58818499999933,"velocity":0.7637795275590551,"duration":0.35110276562498655},{"name":"A4","midi":69,"time":100.58818499999933,"velocity":0.7637795275590551,"duration":0.174632265624993},{"name":"E5","midi":76,"time":100.76465549999932,"velocity":0.7637795275590551,"duration":0.174632265624993},{"name":"F3","midi":53,"time":100.94112599999931,"velocity":0.7637795275590551,"duration":0.35110276562500076},{"name":"D5","midi":74,"time":100.94112599999931,"velocity":0.7637795275590551,"duration":0.3069851406250024},{"name":"D3","midi":50,"time":101.29406699999932,"velocity":0.7637795275590551,"duration":0.35110276562498655},{"name":"C5","midi":72,"time":101.29406699999932,"velocity":0.7637795275590551,"duration":0.08639701562499624},{"name":"B4","midi":71,"time":101.38230224999931,"velocity":0.7637795275590551,"duration":0.08639701562499624},{"name":"C5","midi":72,"time":101.47053749999931,"velocity":0.7637795275590551,"duration":0.08639701562499624},{"name":"B4","midi":71,"time":101.5587727499993,"velocity":0.7637795275590551,"duration":0.08639701562499624},{"name":"E3","midi":52,"time":101.6470079999993,"velocity":0.7637795275590551,"duration":0.35110276562498655},{"name":"C5","midi":72,"time":101.6470079999993,"velocity":0.7637795275590551,"duration":0.08639701562499624},{"name":"B4","midi":71,"time":101.7352432499993,"velocity":0.7637795275590551,"duration":0.08639701562499624},{"name":"A4","midi":69,"time":101.8234784999993,"velocity":0.7637795275590551,"duration":0.08639701562499624},{"name":"B4","midi":71,"time":101.9117137499993,"velocity":0.7637795275590551,"duration":0.08639701562499624},{"name":"A3","midi":57,"time":101.99994899999929,"velocity":0.7637795275590551,"duration":0.34926453125000023},{"name":"A4","midi":69,"time":101.99994899999929,"velocity":0.7637795275590551,"duration":0.174632265624993},{"name":"E4","midi":64,"time":102.17641949999928,"velocity":0.7637795275590551,"duration":0.17463226562500722},{"name":"A2","midi":45,"time":102.35288999999929,"velocity":0.7637795275590551,"duration":0.35110276562498655},{"name":"F4","midi":65,"time":102.35288999999929,"velocity":0.7637795275590551,"duration":0.174632265624993},{"name":"D4","midi":62,"time":102.52936049999929,"velocity":0.7637795275590551,"duration":0.174632265624993},{"name":"A3","midi":57,"time":102.70583099999928,"velocity":0.7637795275590551,"duration":0.5275732656249943},{"name":"E4","midi":64,"time":102.70583099999928,"velocity":0.7637795275590551,"duration":0.5147056249999906},{"name":"A4","midi":69,"time":102.88230149999927,"velocity":0.7637795275590551,"duration":0.174632265624993},{"name":"B4","midi":71,"time":103.05877199999927,"velocity":0.7637795275590551,"duration":0.17463226562500722},{"name":"G#3","midi":56,"time":103.23524249999927,"velocity":0.7637795275590551,"duration":0.174632265624993},{"name":"E4","midi":64,"time":103.23524249999927,"velocity":0.7637795275590551,"duration":0.174632265624993},{"name":"A3","midi":57,"time":103.41171299999927,"velocity":0.7637795275590551,"duration":0.174632265624993},{"name":"F4","midi":65,"time":103.41171299999927,"velocity":0.7637795275590551,"duration":0.174632265624993},{"name":"F#3","midi":54,"time":103.58818349999926,"velocity":0.7637795275590551,"duration":0.174632265624993},{"name":"D4","midi":62,"time":103.58818349999926,"velocity":0.7637795275590551,"duration":0.174632265624993},{"name":"G#3","midi":56,"time":103.76465399999925,"velocity":0.7637795275590551,"duration":0.174632265624993},{"name":"E4","midi":64,"time":103.76465399999925,"velocity":0.7637795275590551,"duration":0.5147056249999906},{"name":"E3","midi":52,"time":103.94112449999925,"velocity":0.7637795275590551,"duration":0.174632265624993},{"name":"B4","midi":71,"time":103.94112449999925,"velocity":0.7637795275590551,"duration":0.174632265624993},{"name":"A3","midi":57,"time":104.11759499999924,"velocity":0.7637795275590551,"duration":0.35110276562500076},{"name":"C5","midi":72,"time":104.11759499999924,"velocity":0.7637795275590551,"duration":0.17463226562500722},{"name":"E4","midi":64,"time":104.29406549999925,"velocity":0.7637795275590551,"duration":0.174632265624993},{"name":"A2","midi":45,"time":104.47053599999924,"velocity":0.7637795275590551,"duration":0.35110276562498655},{"name":"F4","midi":65,"time":104.47053599999924,"velocity":0.7637795275590551,"duration":0.174632265624993},{"name":"D4","midi":62,"time":104.64700649999924,"velocity":0.7637795275590551,"duration":0.174632265624993},{"name":"A3","midi":57,"time":104.82347699999923,"velocity":0.7637795275590551,"duration":0.35110276562498655},{"name":"E4","midi":64,"time":104.82347699999923,"velocity":0.7637795275590551,"duration":0.5147056249999906},{"name":"C5","midi":72,"time":104.99994749999922,"velocity":0.7637795275590551,"duration":0.174632265624993},{"name":"E3","midi":52,"time":105.17641799999922,"velocity":0.7637795275590551,"duration":0.17463226562500722},{"name":"B4","midi":71,"time":105.17641799999922,"velocity":0.7637795275590551,"duration":0.17463226562500722},{"name":"F3","midi":53,"time":105.35288849999922,"velocity":0.7637795275590551,"duration":0.174632265624993},{"name":"A4","midi":69,"time":105.35288849999922,"velocity":0.7637795275590551,"duration":0.174632265624993},{"name":"E3","midi":52,"time":105.52935899999922,"velocity":0.7637795275590551,"duration":0.174632265624993},{"name":"G#4","midi":68,"time":105.52935899999922,"velocity":0.7637795275590551,"duration":0.174632265624993},{"name":"D3","midi":50,"time":105.70582949999921,"velocity":0.7637795275590551,"duration":0.174632265624993},{"name":"F#4","midi":66,"time":105.70582949999921,"velocity":0.7637795275590551,"duration":0.174632265624993},{"name":"C3","midi":48,"time":105.8822999999992,"velocity":0.7637795275590551,"duration":0.174632265624993},{"name":"E4","midi":64,"time":105.8822999999992,"velocity":0.7637795275590551,"duration":0.174632265624993},{"name":"B2","midi":47,"time":106.0587704999992,"velocity":0.7637795275590551,"duration":0.174632265624993},{"name":"D4","midi":62,"time":106.0587704999992,"velocity":0.7637795275590551,"duration":0.174632265624993},{"name":"A2","midi":45,"time":106.23524099999919,"velocity":0.7637795275590551,"duration":0.174632265624993},{"name":"C4","midi":60,"time":106.23524099999919,"velocity":0.7637795275590551,"duration":0.34926453125000023},{"name":"E3","midi":52,"time":106.41171149999919,"velocity":0.7637795275590551,"duration":0.17463226562500722},{"name":"F3","midi":53,"time":106.5881819999992,"velocity":0.7637795275590551,"duration":0.174632265624993},{"name":"D3","midi":50,"time":106.76465249999919,"velocity":0.7637795275590551,"duration":0.174632265624993},{"name":"A4","midi":69,"time":106.76465249999919,"velocity":0.7637795275590551,"duration":0.174632265624993},{"name":"E3","midi":52,"time":106.94112299999918,"velocity":0.7637795275590551,"duration":0.174632265624993},{"name":"G#4","midi":68,"time":106.94112299999918,"velocity":0.7637795275590551,"duration":0.174632265624993},{"name":"A2","midi":45,"time":107.11759349999917,"velocity":0.7637795275590551,"duration":0.174632265624993},{"name":"A4","midi":69,"time":107.11759349999917,"velocity":0.7637795275590551,"duration":0.174632265624993},{"name":"B2","midi":47,"time":107.29406399999917,"velocity":0.7637795275590551,"duration":0.174632265624993},{"name":"D4","midi":62,"time":107.29406399999917,"velocity":0.7637795275590551,"duration":0.34926453125000023},{"name":"E3","midi":52,"time":107.47053449999916,"velocity":0.7637795275590551,"duration":0.17463226562500722},{"name":"F3","midi":53,"time":107.64700499999917,"velocity":0.7637795275590551,"duration":0.174632265624993},{"name":"D3","midi":50,"time":107.82347549999916,"velocity":0.7637795275590551,"duration":0.174632265624993},{"name":"A4","midi":69,"time":107.82347549999916,"velocity":0.7637795275590551,"duration":0.174632265624993},{"name":"E3","midi":52,"time":107.99994599999916,"velocity":0.7637795275590551,"duration":0.174632265624993},{"name":"G#4","midi":68,"time":107.99994599999916,"velocity":0.7637795275590551,"duration":0.174632265624993},{"name":"B2","midi":47,"time":108.17641649999915,"velocity":0.7637795275590551,"duration":0.174632265624993},{"name":"A4","midi":69,"time":108.17641649999915,"velocity":0.7637795275590551,"duration":0.174632265624993},{"name":"C3","midi":48,"time":108.35288699999914,"velocity":0.7637795275590551,"duration":0.174632265624993},{"name":"E4","midi":64,"time":108.35288699999914,"velocity":0.7637795275590551,"duration":0.174632265624993},{"name":"E3","midi":52,"time":108.52935749999914,"velocity":0.7637795275590551,"duration":0.174632265624993},{"name":"G#4","midi":68,"time":108.52935749999914,"velocity":0.7637795275590551,"duration":0.174632265624993},{"name":"F3","midi":53,"time":108.70582799999913,"velocity":0.7637795275590551,"duration":0.174632265624993},{"name":"A4","midi":69,"time":108.70582799999913,"velocity":0.7637795275590551,"duration":0.174632265624993},{"name":"D3","midi":50,"time":108.88229849999912,"velocity":0.7637795275590551,"duration":0.174632265624993},{"name":"B4","midi":71,"time":108.88229849999912,"velocity":0.7637795275590551,"duration":0.174632265624993},{"name":"E3","midi":52,"time":109.05876899999912,"velocity":0.7637795275590551,"duration":0.174632265624993},{"name":"C5","midi":72,"time":109.05876899999912,"velocity":0.7637795275590551,"duration":0.4595585937499891},{"name":"C3","midi":48,"time":109.23523949999911,"velocity":0.7637795275590551,"duration":0.174632265624993},{"name":"D3","midi":50,"time":109.4117099999991,"velocity":0.7637795275590551,"duration":0.8823524999999819},{"name":"A4","midi":69,"time":109.58818049999911,"velocity":0.7637795275590551,"duration":0.174632265624993},{"name":"B4","midi":71,"time":109.7646509999991,"velocity":0.7637795275590551,"duration":0.174632265624993},{"name":"G#4","midi":68,"time":109.9411214999991,"velocity":0.7637795275590551,"duration":0.174632265624993},{"name":"A4","midi":69,"time":110.11759199999909,"velocity":0.7637795275590551,"duration":0.174632265624993},{"name":"C5","midi":72,"time":110.29406249999909,"velocity":0.7637795275590551,"duration":0.174632265624993},{"name":"F5","midi":77,"time":110.47053299999908,"velocity":0.7637795275590551,"duration":1.0569847656249607},{"name":"B2","midi":47,"time":110.64700349999907,"velocity":0.7637795275590551,"duration":0.174632265624993},{"name":"C3","midi":48,"time":110.82347399999907,"velocity":0.7637795275590551,"duration":0.174632265624993},{"name":"A2","midi":45,"time":110.99994449999906,"velocity":0.7637795275590551,"duration":0.174632265624993},{"name":"B2","midi":47,"time":111.17641499999905,"velocity":0.7637795275590551,"duration":0.174632265624993},{"name":"D3","midi":50,"time":111.35288549999905,"velocity":0.7637795275590551,"duration":0.174632265624993},{"name":"G#3","midi":56,"time":111.52935599999904,"velocity":0.7637795275590551,"duration":0.919117187499964},{"name":"D5","midi":74,"time":111.70582649999903,"velocity":0.7637795275590551,"duration":0.174632265624993},{"name":"E5","midi":76,"time":111.88229699999903,"velocity":0.7637795275590551,"duration":0.174632265624993},{"name":"C#5","midi":73,"time":112.05876749999902,"velocity":0.7637795275590551,"duration":0.174632265624993},{"name":"D5","midi":74,"time":112.23523799999901,"velocity":0.7637795275590551,"duration":0.174632265624993},{"name":"F5","midi":77,"time":112.41170849999901,"velocity":0.7637795275590551,"duration":0.174632265624993},{"name":"B5","midi":83,"time":112.588178999999,"velocity":0.7637795275590551,"duration":1.0569847656249607},{"name":"E3","midi":52,"time":112.764649499999,"velocity":0.7637795275590551,"duration":0.174632265624993},{"name":"F3","midi":53,"time":112.94111999999899,"velocity":0.7637795275590551,"duration":0.174632265624993},{"name":"D3","midi":50,"time":113.11759049999898,"velocity":0.7637795275590551,"duration":0.174632265624993},{"name":"E3","midi":52,"time":113.29406099999898,"velocity":0.7637795275590551,"duration":0.174632265624993},{"name":"G#3","midi":56,"time":113.47053149999897,"velocity":0.7637795275590551,"duration":0.174632265624993},{"name":"C4","midi":60,"time":113.64700199999896,"velocity":0.7637795275590551,"duration":0.35110276562498655},{"name":"C5","midi":72,"time":113.82347249999896,"velocity":0.7637795275590551,"duration":0.174632265624993},{"name":"E4","midi":64,"time":113.99994299999895,"velocity":0.7637795275590551,"duration":0.35110276562498655},{"name":"D5","midi":74,"time":113.99994299999895,"velocity":0.7637795275590551,"duration":0.174632265624993},{"name":"B4","midi":71,"time":114.17641349999894,"velocity":0.7637795275590551,"duration":0.174632265624993},{"name":"A3","midi":57,"time":114.35288399999894,"velocity":0.7637795275590551,"duration":0.35110276562498655},{"name":"C5","midi":72,"time":114.35288399999894,"velocity":0.7637795275590551,"duration":0.174632265624993},{"name":"E5","midi":76,"time":114.52935449999893,"velocity":0.7637795275590551,"duration":0.174632265624993},{"name":"F4","midi":65,"time":114.70582499999892,"velocity":0.7637795275590551,"duration":0.35110276562498655},{"name":"A5","midi":81,"time":114.70582499999892,"velocity":0.7637795275590551,"duration":0.40441156249998755},{"name":"B4","midi":71,"time":114.88229549999892,"velocity":0.7637795275590551,"duration":0.174632265624993},{"name":"D4","midi":62,"time":115.05876599999891,"velocity":0.7637795275590551,"duration":0.35110276562500076},{"name":"C5","midi":72,"time":115.05876599999891,"velocity":0.7637795275590551,"duration":0.17463226562500722},{"name":"A4","midi":69,"time":115.23523649999892,"velocity":0.7637795275590551,"duration":0.174632265624993},{"name":"G3","midi":55,"time":115.41170699999891,"velocity":0.7637795275590551,"duration":0.35110276562498655},{"name":"B4","midi":71,"time":115.41170699999891,"velocity":0.7637795275590551,"duration":0.174632265624993},{"name":"D5","midi":74,"time":115.5881774999989,"velocity":0.7637795275590551,"duration":0.174632265624993},{"name":"E4","midi":64,"time":115.7646479999989,"velocity":0.7637795275590551,"duration":0.35110276562498655},{"name":"G5","midi":79,"time":115.7646479999989,"velocity":0.7637795275590551,"duration":0.40441156249998755},{"name":"A4","midi":69,"time":115.9411184999989,"velocity":0.7637795275590551,"duration":0.174632265624993},{"name":"C4","midi":60,"time":116.11758899999889,"velocity":0.7637795275590551,"duration":0.35110276562500076},{"name":"B4","midi":71,"time":116.11758899999889,"velocity":0.7637795275590551,"duration":0.17463226562500722},{"name":"G#4","midi":68,"time":116.2940594999989,"velocity":0.7637795275590551,"duration":0.174632265624993},{"name":"F3","midi":53,"time":116.47052999999889,"velocity":0.7637795275590551,"duration":0.35110276562498655},{"name":"A4","midi":69,"time":116.47052999999889,"velocity":0.7637795275590551,"duration":0.174632265624993},{"name":"C5","midi":72,"time":116.64700049999888,"velocity":0.7637795275590551,"duration":0.174632265624993},{"name":"D4","midi":62,"time":116.82347099999888,"velocity":0.7637795275590551,"duration":0.174632265624993},{"name":"F5","midi":77,"time":116.82347099999888,"velocity":0.7637795275590551,"duration":0.35110276562498655},{"name":"B3","midi":59,"time":116.99994149999887,"velocity":0.7637795275590551,"duration":0.174632265624993},{"name":"C4","midi":60,"time":117.17641199999886,"velocity":0.7637795275590551,"duration":0.174632265624993},{"name":"D5","midi":74,"time":117.17641199999886,"velocity":0.7637795275590551,"duration":0.35110276562498655},{"name":"A3","midi":57,"time":117.35288249999886,"velocity":0.7637795275590551,"duration":0.174632265624993},{"name":"B3","midi":59,"time":117.52935299999885,"velocity":0.7637795275590551,"duration":0.174632265624993},{"name":"G4","midi":67,"time":117.52935299999885,"velocity":0.7637795275590551,"duration":0.35110276562498655},{"name":"D4","midi":62,"time":117.70582349999884,"velocity":0.7637795275590551,"duration":0.174632265624993},{"name":"G4","midi":67,"time":117.88229399999884,"velocity":0.7637795275590551,"duration":0.174632265624993},{"name":"E5","midi":76,"time":117.88229399999884,"velocity":0.7637795275590551,"duration":0.35110276562498655},{"name":"A3","midi":57,"time":118.05876449999883,"velocity":0.7637795275590551,"duration":0.174632265624993},{"name":"B3","midi":59,"time":118.23523499999882,"velocity":0.7637795275590551,"duration":0.174632265624993},{"name":"C5","midi":72,"time":118.23523499999882,"velocity":0.7637795275590551,"duration":0.35110276562498655},{"name":"G#3","midi":56,"time":118.41170549999882,"velocity":0.7637795275590551,"duration":0.174632265624993},{"name":"A3","midi":57,"time":118.58817599999881,"velocity":0.7637795275590551,"duration":0.174632265624993},{"name":"F4","midi":65,"time":118.58817599999881,"velocity":0.7637795275590551,"duration":0.35110276562498655},{"name":"C4","midi":60,"time":118.7646464999988,"velocity":0.7637795275590551,"duration":0.174632265624993},{"name":"F4","midi":65,"time":118.9411169999988,"velocity":0.7637795275590551,"duration":0.174632265624993},{"name":"D5","midi":74,"time":118.9411169999988,"velocity":0.7637795275590551,"duration":0.44117624999998384},{"name":"G#3","midi":56,"time":119.11758749999879,"velocity":0.7637795275590551,"duration":0.174632265624993},{"name":"E4","midi":64,"time":119.11758749999879,"velocity":0.7637795275590551,"duration":0.174632265624993},{"name":"A3","midi":57,"time":119.29405799999878,"velocity":0.7637795275590551,"duration":0.174632265624993},{"name":"F4","midi":65,"time":119.29405799999878,"velocity":0.7637795275590551,"duration":0.174632265624993},{"name":"F#3","midi":54,"time":119.47052849999878,"velocity":0.7637795275590551,"duration":0.174632265624993},{"name":"D4","midi":62,"time":119.47052849999878,"velocity":0.7637795275590551,"duration":0.174632265624993},{"name":"G#3","midi":56,"time":119.64699899999877,"velocity":0.7637795275590551,"duration":0.174632265624993},{"name":"E4","midi":64,"time":119.64699899999877,"velocity":0.7637795275590551,"duration":0.174632265624993},{"name":"B3","midi":59,"time":119.82346949999877,"velocity":0.7637795275590551,"duration":0.174632265624993},{"name":"G#4","midi":68,"time":119.82346949999877,"velocity":0.7637795275590551,"duration":0.174632265624993},{"name":"E4","midi":64,"time":119.99993999999876,"velocity":0.7637795275590551,"duration":0.174632265624993},{"name":"C5","midi":72,"time":119.99993999999876,"velocity":0.7637795275590551,"duration":0.44117624999998384},{"name":"F#3","midi":54,"time":120.17641049999875,"velocity":0.7637795275590551,"duration":0.174632265624993},{"name":"D#4","midi":63,"time":120.17641049999875,"velocity":0.7637795275590551,"duration":0.174632265624993},{"name":"G#3","midi":56,"time":120.35288099999875,"velocity":0.7637795275590551,"duration":0.174632265624993},{"name":"E4","midi":64,"time":120.35288099999875,"velocity":0.7637795275590551,"duration":0.174632265624993},{"name":"E3","midi":52,"time":120.52935149999874,"velocity":0.7637795275590551,"duration":0.174632265624993},{"name":"C#4","midi":61,"time":120.52935149999874,"velocity":0.7637795275590551,"duration":0.174632265624993},{"name":"F#3","midi":54,"time":120.70582199999873,"velocity":0.7637795275590551,"duration":0.174632265624993},{"name":"D4","midi":62,"time":120.70582199999873,"velocity":0.7637795275590551,"duration":0.174632265624993},{"name":"A3","midi":57,"time":120.88229249999873,"velocity":0.7637795275590551,"duration":0.174632265624993},{"name":"F#4","midi":66,"time":120.88229249999873,"velocity":0.7637795275590551,"duration":0.174632265624993},{"name":"D#3","midi":51,"time":121.05876299999872,"velocity":0.7637795275590551,"duration":0.35110276562498655},{"name":"A4","midi":69,"time":121.05876299999872,"velocity":0.7637795275590551,"duration":0.174632265624993},{"name":"F#4","midi":66,"time":121.23523349999871,"velocity":0.7637795275590551,"duration":0.174632265624993},{"name":"F#3","midi":54,"time":121.4117039999987,"velocity":0.7637795275590551,"duration":0.35110276562498655},{"name":"D#4","midi":63,"time":121.4117039999987,"velocity":0.7637795275590551,"duration":0.174632265624993},{"name":"C4","midi":60,"time":121.5881744999987,"velocity":0.7637795275590551,"duration":0.174632265624993},{"name":"D#3","midi":51,"time":121.7646449999987,"velocity":0.7637795275590551,"duration":0.35110276562498655},{"name":"B3","midi":59,"time":121.7646449999987,"velocity":0.7637795275590551,"duration":0.174632265624993},{"name":"A4","midi":69,"time":121.94111549999869,"velocity":0.7637795275590551,"duration":0.174632265624993},{"name":"E3","midi":52,"time":122.11758599999868,"velocity":0.7637795275590551,"duration":0.174632265624993},{"name":"G#4","midi":68,"time":122.11758599999868,"velocity":0.7637795275590551,"duration":0.22426459374999297},{"name":"D3","midi":50,"time":122.29405649999867,"velocity":0.7637795275590551,"duration":0.174632265624993},{"name":"B4","midi":71,"time":122.29405649999867,"velocity":0.7637795275590551,"duration":0.174632265624993},{"name":"B2","midi":47,"time":122.47052699999867,"velocity":0.7637795275590551,"duration":0.174632265624993},{"name":"D5","midi":74,"time":122.47052699999867,"velocity":0.7637795275590551,"duration":0.174632265624993},{"name":"G#2","midi":44,"time":122.64699749999866,"velocity":0.7637795275590551,"duration":0.174632265624993},{"name":"F5","midi":77,"time":122.64699749999866,"velocity":0.7637795275590551,"duration":0.174632265624993},{"name":"B2","midi":47,"time":122.82346799999866,"velocity":0.7637795275590551,"duration":0.174632265624993},{"name":"E5","midi":76,"time":122.82346799999866,"velocity":0.7637795275590551,"duration":0.5275732656249801},{"name":"D3","midi":50,"time":122.99993849999865,"velocity":0.7637795275590551,"duration":0.174632265624993},{"name":"C2","midi":36,"time":123.17640899999864,"velocity":0.7637795275590551,"duration":0.35110276562498655},{"name":"A4","midi":69,"time":123.35287949999864,"velocity":0.7637795275590551,"duration":0.174632265624993},{"name":"D2","midi":38,"time":123.52934999999863,"velocity":0.7637795275590551,"duration":0.35110276562498655},{"name":"C5","midi":72,"time":123.52934999999863,"velocity":0.7637795275590551,"duration":0.174632265624993},{"name":"B4","midi":71,"time":123.70582049999862,"velocity":0.7637795275590551,"duration":0.174632265624993},{"name":"E2","midi":40,"time":123.88229099999862,"velocity":0.7637795275590551,"duration":0.35110276562498655},{"name":"A4","midi":69,"time":123.88229099999862,"velocity":0.7637795275590551,"duration":0.174632265624993},{"name":"G#4","midi":68,"time":124.05876149999861,"velocity":0.7637795275590551,"duration":0.174632265624993},{"name":"F2","midi":41,"time":124.2352319999986,"velocity":0.7637795275590551,"duration":0.35110276562498655},{"name":"A4","midi":69,"time":124.2352319999986,"velocity":0.7637795275590551,"duration":0.174632265624993},{"name":"E4","midi":64,"time":124.4117024999986,"velocity":0.7637795275590551,"duration":0.174632265624993},{"name":"A2","midi":45,"time":124.58817299999859,"velocity":0.7637795275590551,"duration":0.35110276562498655},{"name":"F4","midi":65,"time":124.58817299999859,"velocity":0.7637795275590551,"duration":0.174632265624993},{"name":"D4","midi":62,"time":124.76464349999858,"velocity":0.7637795275590551,"duration":0.174632265624993},{"name":"D3","midi":50,"time":124.94111399999858,"velocity":0.7637795275590551,"duration":0.35110276562498655},{"name":"A#4","midi":70,"time":124.94111399999858,"velocity":0.7637795275590551,"duration":0.174632265624993},{"name":"G#4","midi":68,"time":125.11758449999857,"velocity":0.7637795275590551,"duration":0.174632265624993},{"name":"D#3","midi":51,"time":125.29405499999856,"velocity":0.7637795275590551,"duration":0.35110276562498655},{"name":"A4","midi":69,"time":125.29405499999856,"velocity":0.7637795275590551,"duration":0.174632265624993},{"name":"C5","midi":72,"time":125.47052549999856,"velocity":0.7637795275590551,"duration":0.174632265624993},{"name":"E3","midi":52,"time":125.64699599999855,"velocity":0.7637795275590551,"duration":0.7352937499999967},{"name":"E4","midi":64,"time":125.64699599999855,"velocity":0.7637795275590551,"duration":0.174632265624993},{"name":"A4","midi":69,"time":125.82346649999855,"velocity":0.7637795275590551,"duration":0.174632265624993},{"name":"E2","midi":40,"time":125.99993699999854,"velocity":0.7637795275590551,"duration":0.369485109375006},{"name":"B4","midi":71,"time":125.99993699999854,"velocity":0.7637795275590551,"duration":0.20220578125000088},{"name":"G#4","midi":68,"time":126.20214278124854,"velocity":0.7637795275590551,"duration":0.1801469687500088},{"name":"A4","midi":69,"time":126.40802503124854,"velocity":0.7637795275590551,"duration":1.4099257656250046},{"name":"A2","midi":45,"time":126.40802503124854,"velocity":0.7637795275590551,"duration":1.4099257656250046},{"name":"E5","midi":76,"time":131.99993399999855,"velocity":0.7637795275590551,"duration":0.11764700000000516},{"name":"D5","midi":74,"time":132.09919865624855,"velocity":0.7637795275590551,"duration":0.11764700000000516},{"name":"E5","midi":76,"time":132.19846331249855,"velocity":0.7637795275590551,"duration":0.66176437499999},{"name":"A2","midi":45,"time":132.35287499999856,"velocity":0.7637795275590551,"duration":0.35110276562500076},{"name":"C3","midi":48,"time":132.70581599999855,"velocity":0.7637795275590551,"duration":0.35110276562500076},{"name":"D5","midi":74,"time":132.88228649999854,"velocity":0.7637795275590551,"duration":0.17463226562500722},{"name":"E3","midi":52,"time":133.05875699999854,"velocity":0.7637795275590551,"duration":0.35110276562500076},{"name":"C5","midi":72,"time":133.05875699999854,"velocity":0.7637795275590551,"duration":0.17463226562500722},{"name":"B4","midi":71,"time":133.23522749999853,"velocity":0.7637795275590551,"duration":0.17463226562500722},{"name":"A3","midi":57,"time":133.41169799999852,"velocity":0.7637795275590551,"duration":0.7040437656249878},{"name":"C5","midi":72,"time":133.41169799999852,"velocity":0.7637795275590551,"duration":0.35110276562500076},{"name":"B4","midi":71,"time":133.7646389999985,"velocity":0.7637795275590551,"duration":0.17463226562500722},{"name":"A4","midi":69,"time":133.9411094999985,"velocity":0.7637795275590551,"duration":0.17463226562500722},{"name":"B3","midi":59,"time":134.1175799999985,"velocity":0.7637795275590551,"duration":0.7040437656249878},{"name":"D5","midi":74,"time":134.1175799999985,"velocity":0.7637795275590551,"duration":0.35110276562500076},{"name":"C5","midi":72,"time":134.47052099999848,"velocity":0.7637795275590551,"duration":0.17463226562500722},{"name":"B4","midi":71,"time":134.64699149999848,"velocity":0.7637795275590551,"duration":0.17463226562500722},{"name":"C4","midi":60,"time":134.82346199999847,"velocity":0.7637795275590551,"duration":0.7040437656249878},{"name":"E5","midi":76,"time":134.82346199999847,"velocity":0.7637795275590551,"duration":0.35110276562500076},{"name":"D5","midi":74,"time":135.17640299999846,"velocity":0.7637795275590551,"duration":0.17463226562500722},{"name":"C5","midi":72,"time":135.35287349999845,"velocity":0.7637795275590551,"duration":0.17463226562500722},{"name":"D4","midi":62,"time":135.52934399999845,"velocity":0.7637795275590551,"duration":0.7040437656249878},{"name":"F5","midi":77,"time":135.52934399999845,"velocity":0.7637795275590551,"duration":0.5275732656249943},{"name":"A4","midi":69,"time":136.05875549999843,"velocity":0.7637795275590551,"duration":0.17463226562500722},{"name":"E4","midi":64,"time":136.23522599999842,"velocity":0.7637795275590551,"duration":0.6801467187499668},{"name":"G#4","midi":68,"time":136.23522599999842,"velocity":0.7637795275590551,"duration":2.205881249999919},{"name":"A4","midi":69,"time":136.4116964999984,"velocity":0.7637795275590551,"duration":0.17463226562500722},{"name":"B4","midi":71,"time":136.5881669999984,"velocity":0.7637795275590551,"duration":1.838234374999928},{"name":"D5","midi":74,"time":136.7646374999984,"velocity":0.7637795275590551,"duration":1.6544109374999323},{"name":"E4","midi":64,"time":136.9411079999984,"velocity":0.7637795275590551,"duration":1.762866765624949},{"name":"C4","midi":60,"time":137.1175784999984,"velocity":0.7637795275590551,"duration":0.17463226562500722},{"name":"B3","midi":59,"time":137.29404899999838,"velocity":0.7637795275590551,"duration":0.17463226562500722},{"name":"A3","midi":57,"time":137.47051949999837,"velocity":0.7637795275590551,"duration":0.17463226562500722},{"name":"G#3","midi":56,"time":137.64698999999837,"velocity":0.7637795275590551,"duration":0.35110276562500076},{"name":"A3","midi":57,"time":137.99993099999836,"velocity":0.7637795275590551,"duration":0.17463226562500722},{"name":"B3","midi":59,"time":138.17640149999835,"velocity":0.7637795275590551,"duration":0.17463226562500722},{"name":"E3","midi":52,"time":138.35287199999834,"velocity":0.7637795275590551,"duration":0.35110276562500076},{"name":"F#3","midi":54,"time":138.70581299999833,"velocity":0.7637795275590551,"duration":0.17463226562500722},{"name":"C5","midi":72,"time":138.70581299999833,"velocity":0.7637795275590551,"duration":0.17463226562500722},{"name":"G#3","midi":56,"time":138.88228349999832,"velocity":0.7637795275590551,"duration":0.17463226562500722},{"name":"B4","midi":71,"time":138.88228349999832,"velocity":0.7637795275590551,"duration":0.17463226562500722},{"name":"A3","midi":57,"time":139.05875399999832,"velocity":0.7637795275590551,"duration":0.7040437656249878},{"name":"C5","midi":72,"time":139.05875399999832,"velocity":0.7637795275590551,"duration":0.8823524999999677},{"name":"B4","midi":71,"time":139.2352244999983,"velocity":0.7637795275590551,"duration":0.17463226562500722},{"name":"A4","midi":69,"time":139.4116949999983,"velocity":0.7637795275590551,"duration":0.17463226562500722},{"name":"G#4","midi":68,"time":139.5881654999983,"velocity":0.7637795275590551,"duration":0.17463226562500722},{"name":"C4","midi":60,"time":139.7646359999983,"velocity":0.7637795275590551,"duration":0.7040437656249878},{"name":"A4","midi":69,"time":139.7646359999983,"velocity":0.7637795275590551,"duration":0.5275732656249943},{"name":"E4","midi":64,"time":140.29404749999827,"velocity":0.7637795275590551,"duration":0.17463226562500722},{"name":"D4","midi":62,"time":140.47051799999826,"velocity":0.7637795275590551,"duration":0.7040437656250162},{"name":"F4","midi":65,"time":140.47051799999826,"velocity":0.7637795275590551,"duration":0.8823524999999961},{"name":"A4","midi":69,"time":140.99992949999827,"velocity":0.7637795275590551,"duration":0.17463226562500722},{"name":"G3","midi":55,"time":141.17639999999827,"velocity":0.7637795275590551,"duration":0.7040437656249878},{"name":"D5","midi":74,"time":141.17639999999827,"velocity":0.7637795275590551,"duration":0.5275732656249943},{"name":"F4","midi":65,"time":141.70581149999825,"velocity":0.7637795275590551,"duration":0.17463226562500722},{"name":"D4","midi":62,"time":141.70581149999825,"velocity":0.7637795275590551,"duration":0.17463226562500722},{"name":"C4","midi":60,"time":141.88228199999824,"velocity":0.7637795275590551,"duration":0.6801467187499668},{"name":"D4","midi":62,"time":141.88228199999824,"velocity":0.7637795275590551,"duration":0.698529062499972},{"name":"G4","midi":67,"time":141.88228199999824,"velocity":0.7637795275590551,"duration":0.08639701562501045},{"name":"F4","midi":65,"time":141.97051724999824,"velocity":0.7637795275590551,"duration":0.08639701562501045},{"name":"G4","midi":67,"time":142.05875249999823,"velocity":0.7637795275590551,"duration":0.08639701562501045},{"name":"F4","midi":65,"time":142.14698774999823,"velocity":0.7637795275590551,"duration":0.08639701562501045},{"name":"G4","midi":67,"time":142.23522299999823,"velocity":0.7637795275590551,"duration":0.08639701562501045},{"name":"F4","midi":65,"time":142.32345824999823,"velocity":0.7637795275590551,"duration":0.08639701562501045},{"name":"G4","midi":67,"time":142.41169349999822,"velocity":0.7637795275590551,"duration":0.08639701562501045},{"name":"F4","midi":65,"time":142.49992874999822,"velocity":0.7637795275590551,"duration":0.08639701562498203},{"name":"E4","midi":64,"time":142.5881639999982,"velocity":0.7637795275590551,"duration":0.8805142656249529},{"name":"C4","midi":60,"time":142.5881639999982,"velocity":0.7637795275590551,"duration":0.698529062499972},{"name":"C3","midi":48,"time":142.76463449999818,"velocity":0.7637795275590551,"duration":0.17463226562500722},{"name":"E3","midi":52,"time":142.94110499999817,"velocity":0.7637795275590551,"duration":0.17463226562500722},{"name":"G3","midi":55,"time":143.11757549999817,"velocity":0.7637795275590551,"duration":0.1746322656249788},{"name":"C4","midi":60,"time":143.29404599999813,"velocity":0.7637795275590551,"duration":1.056984765624975},{"name":"G4","midi":67,"time":143.47051649999813,"velocity":0.7637795275590551,"duration":0.17463226562500722},{"name":"F4","midi":65,"time":143.64698699999812,"velocity":0.7637795275590551,"duration":0.17463226562500722},{"name":"E4","midi":64,"time":143.8234574999981,"velocity":0.7637795275590551,"duration":0.8731613281249793},{"name":"A4","midi":69,"time":143.9999279999981,"velocity":0.7637795275590551,"duration":0.35110276562500076},{"name":"B3","midi":59,"time":144.3528689999981,"velocity":0.7637795275590551,"duration":0.17463226562500722},{"name":"B4","midi":71,"time":144.3528689999981,"velocity":0.7637795275590551,"duration":0.17463226562500722},{"name":"A3","midi":57,"time":144.5293394999981,"velocity":0.7637795275590551,"duration":0.17463226562500722},{"name":"C5","midi":72,"time":144.5293394999981,"velocity":0.7637795275590551,"duration":1.5808815624999113},{"name":"D4","midi":62,"time":144.70580999999808,"velocity":0.7637795275590551,"duration":0.6801467187499668},{"name":"F#4","midi":66,"time":144.70580999999808,"velocity":0.7637795275590551,"duration":0.35110276562500076},{"name":"G4","midi":67,"time":145.05875099999807,"velocity":0.7637795275590551,"duration":0.17463226562500722},{"name":"A4","midi":69,"time":145.23522149999806,"velocity":0.7637795275590551,"duration":0.1746322656249788},{"name":"D4","midi":62,"time":145.41169199999803,"velocity":0.7637795275590551,"duration":0.6801467187499668},{"name":"D3","midi":50,"time":145.58816249999802,"velocity":0.7637795275590551,"duration":0.17463226562500722},{"name":"F#3","midi":54,"time":145.764632999998,"velocity":0.7637795275590551,"duration":0.17463226562500722},{"name":"A3","midi":57,"time":145.941103499998,"velocity":0.7637795275590551,"duration":0.1746322656249788},{"name":"D4","midi":62,"time":146.11757399999797,"velocity":0.7637795275590551,"duration":1.056984765624975},{"name":"A4","midi":69,"time":146.29404449999797,"velocity":0.7637795275590551,"duration":0.17463226562500722},{"name":"G4","midi":67,"time":146.47051499999796,"velocity":0.7637795275590551,"duration":0.17463226562500722},{"name":"F#4","midi":66,"time":146.64698549999795,"velocity":0.7637795275590551,"duration":0.8823524999999677},{"name":"B4","midi":71,"time":146.82345599999795,"velocity":0.7637795275590551,"duration":0.35110276562500076},{"name":"C4","midi":60,"time":147.17639699999793,"velocity":0.7637795275590551,"duration":0.17463226562500722},{"name":"C5","midi":72,"time":147.17639699999793,"velocity":0.7637795275590551,"duration":0.17463226562500722},{"name":"B3","midi":59,"time":147.35286749999793,"velocity":0.7637795275590551,"duration":0.17463226562500722},{"name":"D5","midi":74,"time":147.35286749999793,"velocity":0.7637795275590551,"duration":1.5808815624999113},{"name":"E4","midi":64,"time":147.52933799999792,"velocity":0.7637795275590551,"duration":0.6801467187499668},{"name":"G#4","midi":68,"time":147.52933799999792,"velocity":0.7637795275590551,"duration":0.35110276562500076},{"name":"A4","midi":69,"time":147.8822789999979,"velocity":0.7637795275590551,"duration":0.17463226562500722},{"name":"B4","midi":71,"time":148.0587494999979,"velocity":0.7637795275590551,"duration":0.1746322656249788},{"name":"E4","midi":64,"time":148.23521999999787,"velocity":0.7637795275590551,"duration":0.8805142656249529},{"name":"C4","midi":60,"time":148.41169049999786,"velocity":0.7637795275590551,"duration":0.17463226562500722},{"name":"B3","midi":59,"time":148.58816099999785,"velocity":0.7637795275590551,"duration":0.17463226562500722},{"name":"A3","midi":57,"time":148.76463149999785,"velocity":0.7637795275590551,"duration":0.1746322656249788},{"name":"G#3","midi":56,"time":148.9411019999978,"velocity":0.7637795275590551,"duration":0.7040437656249878},{"name":"F5","midi":77,"time":149.1175724999978,"velocity":0.7637795275590551,"duration":0.17463226562500722},{"name":"E5","midi":76,"time":149.2940429999978,"velocity":0.7637795275590551,"duration":0.17463226562500722},{"name":"D5","midi":74,"time":149.4705134999978,"velocity":0.7637795275590551,"duration":0.9926465624999707},{"name":"E3","midi":52,"time":149.6469839999978,"velocity":0.7637795275590551,"duration":0.7040437656249878},{"name":"G#5","midi":80,"time":149.6469839999978,"velocity":0.7637795275590551,"duration":0.35110276562500076},{"name":"A5","midi":81,"time":149.99992499999777,"velocity":0.7637795275590551,"duration":0.17463226562500722},{"name":"B5","midi":83,"time":150.17639549999777,"velocity":0.7637795275590551,"duration":0.17463226562500722},{"name":"C3","midi":48,"time":150.35286599999776,"velocity":0.7637795275590551,"duration":0.7040437656249878},{"name":"E5","midi":76,"time":150.35286599999776,"velocity":0.7637795275590551,"duration":1.0459553593749717},{"name":"D5","midi":74,"time":150.52933649999775,"velocity":0.7637795275590551,"duration":0.17463226562500722},{"name":"C5","midi":72,"time":150.70580699999775,"velocity":0.7637795275590551,"duration":0.17463226562500722},{"name":"B4","midi":71,"time":150.88227749999774,"velocity":0.7637795275590551,"duration":0.17463226562500722},{"name":"A3","midi":57,"time":151.05874799999773,"velocity":0.7637795275590551,"duration":1.4099257656249904},{"name":"F3","midi":53,"time":151.05874799999773,"velocity":0.7637795275590551,"duration":0.7040437656249878},{"name":"C5","midi":72,"time":151.05874799999773,"velocity":0.7637795275590551,"duration":0.6985290625000005},{"name":"A5","midi":81,"time":151.41168899999772,"velocity":0.7637795275590551,"duration":0.8823524999999961},{"name":"D3","midi":50,"time":151.7646299999977,"velocity":0.7637795275590551,"duration":0.7040437656250162},{"name":"B4","midi":71,"time":151.7646299999977,"velocity":0.7637795275590551,"duration":1.397058125000001},{"name":"F5","midi":77,"time":152.29404149999772,"velocity":0.7637795275590551,"duration":0.17463226562500722},{"name":"G#3","midi":56,"time":152.4705119999977,"velocity":0.7637795275590551,"duration":0.7040437656249878},{"name":"E3","midi":52,"time":152.4705119999977,"velocity":0.7637795275590551,"duration":0.7040437656249878},{"name":"E5","midi":76,"time":152.4705119999977,"velocity":0.7637795275590551,"duration":0.35110276562500076},{"name":"D5","midi":74,"time":152.8234529999977,"velocity":0.7637795275590551,"duration":0.35110276562500076},{"name":"A3","midi":57,"time":153.17639399999769,"velocity":0.7637795275590551,"duration":1.9301460937499542},{"name":"D5","midi":74,"time":153.17639399999769,"velocity":0.7637795275590551,"duration":0.08639701562501045},{"name":"C5","midi":72,"time":153.26462924999768,"velocity":0.7637795275590551,"duration":0.08639701562501045},{"name":"D5","midi":74,"time":153.35286449999768,"velocity":0.7637795275590551,"duration":0.08639701562501045},{"name":"C5","midi":72,"time":153.44109974999768,"velocity":0.7637795275590551,"duration":0.08639701562501045},{"name":"D5","midi":74,"time":153.52933499999767,"velocity":0.7637795275590551,"duration":0.08639701562501045},{"name":"C5","midi":72,"time":153.61757024999767,"velocity":0.7637795275590551,"duration":0.08639701562501045},{"name":"E3","midi":52,"time":153.70580549999767,"velocity":0.7637795275590551,"duration":0.17463226562500722},{"name":"D5","midi":74,"time":153.70580549999767,"velocity":0.7637795275590551,"duration":0.08639701562501045},{"name":"C5","midi":72,"time":153.79404074999766,"velocity":0.7637795275590551,"duration":0.08639701562501045},{"name":"D3","midi":50,"time":153.88227599999766,"velocity":0.7637795275590551,"duration":0.17463226562500722},{"name":"B4","midi":71,"time":153.88227599999766,"velocity":0.7637795275590551,"duration":0.35110276562500076},{"name":"C3","midi":48,"time":154.05874649999765,"velocity":0.7637795275590551,"duration":0.17463226562500722},{"name":"D3","midi":50,"time":154.23521699999765,"velocity":0.7637795275590551,"duration":0.17463226562500722},{"name":"A4","midi":69,"time":154.23521699999765,"velocity":0.7637795275590551,"duration":0.35110276562500076},{"name":"E3","midi":52,"time":154.41168749999764,"velocity":0.7637795275590551,"duration":0.17463226562500722},{"name":"A2","midi":45,"time":154.58815799999763,"velocity":0.7637795275590551,"duration":0.5275732656249943},{"name":"E5","midi":76,"time":154.58815799999763,"velocity":0.7637795275590551,"duration":0.08639701562501045},{"name":"D5","midi":74,"time":154.67639324999763,"velocity":0.7637795275590551,"duration":0.08639701562501045},{"name":"E5","midi":76,"time":154.76462849999763,"velocity":0.7637795275590551,"duration":0.35110276562500076},{"name":"A3","midi":57,"time":155.11756949999761,"velocity":0.7637795275590551,"duration":0.17463226562500722},{"name":"D5","midi":74,"time":155.11756949999761,"velocity":0.7637795275590551,"duration":0.17463226562500722},{"name":"G3","midi":55,"time":155.2940399999976,"velocity":0.7637795275590551,"duration":0.5275732656249943},{"name":"C5","midi":72,"time":155.2940399999976,"velocity":0.7637795275590551,"duration":0.17463226562500722},{"name":"B4","midi":71,"time":155.4705104999976,"velocity":0.7637795275590551,"duration":0.17463226562500722},{"name":"C5","midi":72,"time":155.6469809999976,"velocity":0.7637795275590551,"duration":0.17463226562500722},{"name":"F3","midi":53,"time":155.8234514999976,"velocity":0.7637795275590551,"duration":0.17463226562500722},{"name":"E5","midi":76,"time":155.8234514999976,"velocity":0.7637795275590551,"duration":0.17463226562500722},{"name":"E3","midi":52,"time":155.99992199999758,"velocity":0.7637795275590551,"duration":1.409925765624962},{"name":"G5","midi":79,"time":155.99992199999758,"velocity":0.7637795275590551,"duration":1.409925765624962},{"name":"D5","midi":74,"time":156.17639249999758,"velocity":0.7637795275590551,"duration":0.17463226562500722},{"name":"C5","midi":72,"time":156.35286299999757,"velocity":0.7637795275590551,"duration":0.17463226562500722},{"name":"B4","midi":71,"time":156.52933349999756,"velocity":0.7637795275590551,"duration":0.17463226562500722},{"name":"G3","midi":55,"time":156.70580399999756,"velocity":0.7637795275590551,"duration":0.7040437656249878},{"name":"C5","midi":72,"time":156.70580399999756,"velocity":0.7637795275590551,"duration":0.17463226562500722},{"name":"E5","midi":76,"time":156.88227449999755,"velocity":0.7637795275590551,"duration":0.17463226562500722},{"name":"D5","midi":74,"time":157.05874499999754,"velocity":0.7637795275590551,"duration":0.17463226562500722},{"name":"C5","midi":72,"time":157.23521549999754,"velocity":0.7637795275590551,"duration":0.17463226562500722},{"name":"F#3","midi":54,"time":157.41168599999753,"velocity":0.7637795275590551,"duration":1.409925765624962},{"name":"A5","midi":81,"time":157.41168599999753,"velocity":0.7637795275590551,"duration":1.5808815624999397},{"name":"C5","midi":72,"time":157.76462699999752,"velocity":0.7637795275590551,"duration":0.35110276562500076},{"name":"A3","midi":57,"time":158.1175679999975,"velocity":0.7637795275590551,"duration":0.7040437656249878},{"name":"D5","midi":74,"time":158.1175679999975,"velocity":0.7637795275590551,"duration":0.5275732656249943},{"name":"A4","midi":69,"time":158.64697949999749,"velocity":0.7637795275590551,"duration":0.17463226562500722},{"name":"G3","midi":55,"time":158.82344999999748,"velocity":0.7637795275590551,"duration":1.4099257656249051},{"name":"B4","midi":71,"time":158.82344999999748,"velocity":0.7637795275590551,"duration":0.698529062499972},{"name":"D5","midi":74,"time":158.99992049999747,"velocity":0.7637795275590551,"duration":0.17463226562500722},{"name":"E5","midi":76,"time":159.17639099999747,"velocity":0.7637795275590551,"duration":0.17463226562500722},{"name":"F#5","midi":78,"time":159.35286149999746,"velocity":0.7637795275590551,"duration":0.1746322656249788},{"name":"D4","midi":62,"time":159.52933199999742,"velocity":0.7637795275590551,"duration":0.698529062499972},{"name":"G5","midi":79,"time":159.52933199999742,"velocity":0.7637795275590551,"duration":0.5275732656249943},{"name":"A5","midi":81,"time":160.0587434999974,"velocity":0.7637795275590551,"duration":0.1746322656249788},{"name":"G4","midi":67,"time":160.23521399999737,"velocity":0.7637795275590551,"duration":0.698529062499972},{"name":"B5","midi":83,"time":160.23521399999737,"velocity":0.7637795275590551,"duration":0.08639701562501045},{"name":"A5","midi":81,"time":160.32344924999737,"velocity":0.7637795275590551,"duration":0.08639701562501045},{"name":"A3","midi":57,"time":160.41168449999736,"velocity":0.7637795275590551,"duration":0.17463226562500722},{"name":"B5","midi":83,"time":160.41168449999736,"velocity":0.7637795275590551,"duration":1.3602934374999336},{"name":"G3","midi":55,"time":160.58815499999736,"velocity":0.7637795275590551,"duration":0.17463226562500722},{"name":"F3","midi":53,"time":160.76462549999735,"velocity":0.7637795275590551,"duration":0.1746322656249788},{"name":"G3","midi":55,"time":160.94109599999732,"velocity":0.7637795275590551,"duration":0.17463226562500722},{"name":"E3","midi":52,"time":161.1175664999973,"velocity":0.7637795275590551,"duration":0.17463226562500722},{"name":"G3","midi":55,"time":161.2940369999973,"velocity":0.7637795275590551,"duration":0.17463226562500722},{"name":"B3","midi":59,"time":161.4705074999973,"velocity":0.7637795275590551,"duration":0.17463226562500722},{"name":"C4","midi":60,"time":161.6469779999973,"velocity":0.7637795275590551,"duration":1.9393372656249142},{"name":"E5","midi":76,"time":161.82344849999728,"velocity":0.7637795275590551,"duration":0.17463226562500722},{"name":"F#5","midi":78,"time":161.99991899999728,"velocity":0.7637795275590551,"duration":0.17463226562500722},{"name":"G#5","midi":80,"time":162.17638949999727,"velocity":0.7637795275590551,"duration":0.17463226562500722},{"name":"E4","midi":64,"time":162.35285999999726,"velocity":0.7637795275590551,"duration":0.698529062499972},{"name":"A5","midi":81,"time":162.35285999999726,"velocity":0.7637795275590551,"duration":0.5275732656249943},{"name":"B5","midi":83,"time":162.88227149999724,"velocity":0.7637795275590551,"duration":0.1746322656249788},{"name":"A4","midi":69,"time":163.0587419999972,"velocity":0.7637795275590551,"duration":1.1764699999999664},{"name":"C6","midi":84,"time":163.0587419999972,"velocity":0.7637795275590551,"duration":0.5275732656249943},{"name":"C4","midi":60,"time":163.5881534999972,"velocity":0.7637795275590551,"duration":0.17463226562500722},{"name":"F5","midi":77,"time":163.5881534999972,"velocity":0.7637795275590551,"duration":0.17463226562500722},{"name":"B3","midi":59,"time":163.76462399999718,"velocity":0.7637795275590551,"duration":0.5275732656249943},{"name":"F5","midi":77,"time":163.76462399999718,"velocity":0.7637795275590551,"duration":0.08639701562501045},{"name":"G5","midi":79,"time":163.85285924999718,"velocity":0.7637795275590551,"duration":0.08639701562501045},{"name":"A5","midi":81,"time":163.94109449999718,"velocity":0.7637795275590551,"duration":0.08639701562501045},{"name":"G5","midi":79,"time":164.02932974999717,"velocity":0.7637795275590551,"duration":0.08639701562501045},{"name":"A5","midi":81,"time":164.11756499999717,"velocity":0.7637795275590551,"duration":0.08639701562501045},{"name":"G5","midi":79,"time":164.20580024999717,"velocity":0.7637795275590551,"duration":0.08639701562501045},{"name":"A3","midi":57,"time":164.29403549999716,"velocity":0.7637795275590551,"duration":0.17463226562500722},{"name":"G4","midi":67,"time":164.29403549999716,"velocity":0.7637795275590551,"duration":0.17463226562500722},{"name":"A5","midi":81,"time":164.29403549999716,"velocity":0.7637795275590551,"duration":0.14154404687499778},{"name":"B3","midi":59,"time":164.47050599999716,"velocity":0.7637795275590551,"duration":1.409925765624962},{"name":"F#4","midi":66,"time":164.47050599999716,"velocity":0.7637795275590551,"duration":0.17463226562500722},{"name":"E5","midi":76,"time":164.47050599999716,"velocity":0.7637795275590551,"duration":0.08639701562501045},{"name":"D#5","midi":75,"time":164.55874124999715,"velocity":0.7637795275590551,"duration":0.08639701562501045},{"name":"G4","midi":67,"time":164.64697649999715,"velocity":0.7637795275590551,"duration":0.17463226562500722},{"name":"E5","midi":76,"time":164.64697649999715,"velocity":0.7637795275590551,"duration":0.08639701562501045},{"name":"D#5","midi":75,"time":164.73521174999715,"velocity":0.7637795275590551,"duration":0.08639701562501045},{"name":"F#4","midi":66,"time":164.82344699999715,"velocity":0.7637795275590551,"duration":0.17463226562500722},{"name":"E5","midi":76,"time":164.82344699999715,"velocity":0.7637795275590551,"duration":0.08639701562501045},{"name":"D#5","midi":75,"time":164.91168224999714,"velocity":0.7637795275590551,"duration":0.08639701562501045},{"name":"E4","midi":64,"time":164.99991749999714,"velocity":0.7637795275590551,"duration":0.17463226562500722},{"name":"C#5","midi":73,"time":164.99991749999714,"velocity":0.7637795275590551,"duration":0.17463226562500722},{"name":"F#4","midi":66,"time":165.17638799999713,"velocity":0.7637795275590551,"duration":0.17463226562500722},{"name":"B4","midi":71,"time":165.17638799999713,"velocity":0.7637795275590551,"duration":0.7720584374999646},{"name":"D#4","midi":63,"time":165.35285849999713,"velocity":0.7637795275590551,"duration":0.17463226562500722},{"name":"E4","midi":64,"time":165.52932899999712,"velocity":0.7637795275590551,"duration":0.17463226562500722},{"name":"F#4","midi":66,"time":165.7057994999971,"velocity":0.7637795275590551,"duration":0.17463226562500722},{"name":"A3","midi":57,"time":165.8822699999971,"velocity":0.7637795275590551,"duration":1.409925765624962},{"name":"B4","midi":71,"time":166.0587404999971,"velocity":0.7637795275590551,"duration":0.17463226562500722},{"name":"C#5","midi":73,"time":166.2352109999971,"velocity":0.7637795275590551,"duration":0.17463226562500722},{"name":"D#5","midi":75,"time":166.4116814999971,"velocity":0.7637795275590551,"duration":0.17463226562500722},{"name":"F#4","midi":66,"time":166.58815199999708,"velocity":0.7637795275590551,"duration":0.7040437656249878},{"name":"D#5","midi":75,"time":166.58815199999708,"velocity":0.7637795275590551,"duration":0.08639701562501045},{"name":"C#5","midi":73,"time":166.67638724999708,"velocity":0.7637795275590551,"duration":0.08639701562501045},{"name":"D#5","midi":75,"time":166.76462249999707,"velocity":0.7637795275590551,"duration":0.08639701562501045},{"name":"C#5","midi":73,"time":166.85285774999707,"velocity":0.7637795275590551,"duration":0.08639701562501045},{"name":"D#5","midi":75,"time":166.94109299999707,"velocity":0.7637795275590551,"duration":0.08639701562501045},{"name":"C#5","midi":73,"time":167.02932824999706,"velocity":0.7637795275590551,"duration":0.08639701562501045},{"name":"B4","midi":71,"time":167.11756349999706,"velocity":0.7637795275590551,"duration":0.17463226562500722},{"name":"G3","midi":55,"time":167.29403399999705,"velocity":0.7637795275590551,"duration":1.409925765624962},{"name":"E5","midi":76,"time":167.29403399999705,"velocity":0.7637795275590551,"duration":0.22058812500000613},{"name":"B4","midi":71,"time":167.47050449999705,"velocity":0.7637795275590551,"duration":0.17463226562500722},{"name":"C5","midi":72,"time":167.64697499999704,"velocity":0.7637795275590551,"duration":0.17463226562500722},{"name":"D5","midi":74,"time":167.82344549999704,"velocity":0.7637795275590551,"duration":0.27573515624999345},{"name":"E4","midi":64,"time":167.99991599999703,"velocity":0.7637795275590551,"duration":1.409925765624962},{"name":"C5","midi":72,"time":168.08815124999703,"velocity":0.7637795275590551,"duration":0.08639701562501045},{"name":"D5","midi":74,"time":168.17638649999702,"velocity":0.7637795275590551,"duration":0.08639701562501045},{"name":"C5","midi":72,"time":168.26462174999702,"velocity":0.7637795275590551,"duration":0.08639701562501045},{"name":"D5","midi":74,"time":168.35285699999702,"velocity":0.7637795275590551,"duration":0.08639701562501045},{"name":"C5","midi":72,"time":168.441092249997,"velocity":0.7637795275590551,"duration":0.08639701562501045},{"name":"B4","midi":71,"time":168.529327499997,"velocity":0.7637795275590551,"duration":0.17463226562500722},{"name":"F#3","midi":54,"time":168.705797999997,"velocity":0.7637795275590551,"duration":1.4099257656249335},{"name":"F#5","midi":78,"time":168.705797999997,"velocity":0.7637795275590551,"duration":0.22058812500000613},{"name":"A4","midi":69,"time":168.882268499997,"velocity":0.7637795275590551,"duration":0.17463226562500722},{"name":"B4","midi":71,"time":169.058738999997,"velocity":0.7637795275590551,"duration":0.17463226562500722},{"name":"C5","midi":72,"time":169.23520949999698,"velocity":0.7637795275590551,"duration":0.27573515624999345},{"name":"D#4","midi":63,"time":169.41167999999698,"velocity":0.7637795275590551,"duration":0.698529062499972},{"name":"B4","midi":71,"time":169.49991524999697,"velocity":0.7637795275590551,"duration":0.08639701562501045},{"name":"C5","midi":72,"time":169.58815049999697,"velocity":0.7637795275590551,"duration":0.08639701562501045},{"name":"B4","midi":71,"time":169.67638574999697,"velocity":0.7637795275590551,"duration":0.08639701562501045},{"name":"C5","midi":72,"time":169.76462099999696,"velocity":0.7637795275590551,"duration":0.08639701562501045},{"name":"B4","midi":71,"time":169.85285624999696,"velocity":0.7637795275590551,"duration":0.08639701562501045},{"name":"A4","midi":69,"time":169.94109149999696,"velocity":0.7637795275590551,"duration":0.1746322656249788},{"name":"E4","midi":64,"time":170.11756199999692,"velocity":0.7637795275590551,"duration":1.409925765624962},{"name":"G4","midi":67,"time":170.11756199999692,"velocity":0.7637795275590551,"duration":1.409925765624962},{"name":"E5","midi":76,"time":170.29403249999692,"velocity":0.7637795275590551,"duration":0.17463226562500722},{"name":"B3","midi":59,"time":170.4705029999969,"velocity":0.7637795275590551,"duration":0.35110276562500076},{"name":"F#5","midi":78,"time":170.4705029999969,"velocity":0.7637795275590551,"duration":0.17463226562500722},{"name":"G5","midi":79,"time":170.6469734999969,"velocity":0.7637795275590551,"duration":0.17463226562500722},{"name":"G3","midi":55,"time":170.8234439999969,"velocity":0.7637795275590551,"duration":0.5275732656249943},{"name":"G5","midi":79,"time":170.8234439999969,"velocity":0.7637795275590551,"duration":0.08639701562501045},{"name":"F#5","midi":78,"time":170.9116792499969,"velocity":0.7637795275590551,"duration":0.08639701562501045},{"name":"G5","midi":79,"time":170.9999144999969,"velocity":0.7637795275590551,"duration":0.08639701562501045},{"name":"F#5","midi":78,"time":171.0881497499969,"velocity":0.7637795275590551,"duration":0.08639701562501045},{"name":"G5","midi":79,"time":171.17638499999688,"velocity":0.7637795275590551,"duration":0.08639701562501045},{"name":"F#5","midi":78,"time":171.26462024999688,"velocity":0.7637795275590551,"duration":0.08639701562501045},{"name":"B3","midi":59,"time":171.35285549999688,"velocity":0.7637795275590551,"duration":0.17463226562500722},{"name":"E5","midi":76,"time":171.35285549999688,"velocity":0.7637795275590551,"duration":0.17463226562500722},{"name":"C#3","midi":49,"time":171.52932599999687,"velocity":0.7637795275590551,"duration":0.5275732656249943},{"name":"A#5","midi":82,"time":171.52932599999687,"velocity":0.7637795275590551,"duration":1.409925765624962},{"name":"E5","midi":76,"time":171.70579649999686,"velocity":0.7637795275590551,"duration":0.17463226562500722},{"name":"F#5","midi":78,"time":171.88226699999686,"velocity":0.7637795275590551,"duration":0.17463226562500722},{"name":"E3","midi":52,"time":172.05873749999685,"velocity":0.7637795275590551,"duration":0.17463226562500722},{"name":"G5","midi":79,"time":172.05873749999685,"velocity":0.7637795275590551,"duration":0.27573515624999345},{"name":"A#3","midi":58,"time":172.23520799999685,"velocity":0.7637795275590551,"duration":0.5275732656249943},{"name":"F#5","midi":78,"time":172.32344324999684,"velocity":0.7637795275590551,"duration":0.08639701562501045},{"name":"G5","midi":79,"time":172.41167849999684,"velocity":0.7637795275590551,"duration":0.08639701562501045},{"name":"F#5","midi":78,"time":172.49991374999684,"velocity":0.7637795275590551,"duration":0.08639701562501045},{"name":"G5","midi":79,"time":172.58814899999683,"velocity":0.7637795275590551,"duration":0.08639701562501045},{"name":"F#5","midi":78,"time":172.67638424999683,"velocity":0.7637795275590551,"duration":0.08639701562501045},{"name":"F#3","midi":54,"time":172.76461949999683,"velocity":0.7637795275590551,"duration":0.17463226562500722},{"name":"E5","midi":76,"time":172.76461949999683,"velocity":0.7637795275590551,"duration":0.17463226562500722},{"name":"C4","midi":60,"time":172.94108999999682,"velocity":0.7637795275590551,"duration":0.7040437656249878},{"name":"D#5","midi":75,"time":172.94108999999682,"velocity":0.7637795275590551,"duration":1.0569847656249465},{"name":"A5","midi":81,"time":173.1175604999968,"velocity":0.7637795275590551,"duration":0.17463226562500722},{"name":"G5","midi":79,"time":173.2940309999968,"velocity":0.7637795275590551,"duration":0.17463226562500722},{"name":"F#5","midi":78,"time":173.4705014999968,"velocity":0.7637795275590551,"duration":0.17463226562500722},{"name":"C4","midi":60,"time":173.6469719999968,"velocity":0.7637795275590551,"duration":0.08639701562498203},{"name":"G5","midi":79,"time":173.6469719999968,"velocity":0.7637795275590551,"duration":1.4099257656249335},{"name":"B3","midi":59,"time":173.7315307812468,"velocity":0.7637795275590551,"duration":0.08639701562498203},{"name":"C4","midi":60,"time":173.81608956249678,"velocity":0.7637795275590551,"duration":0.08639701562498203},{"name":"B3","midi":59,"time":173.90064834374678,"velocity":0.7637795275590551,"duration":0.08639701562498203},{"name":"C4","midi":60,"time":173.98520712499678,"velocity":0.7637795275590551,"duration":0.08639701562498203},{"name":"B3","midi":59,"time":174.06976590624677,"velocity":0.7637795275590551,"duration":0.08639701562498203},{"name":"A3","midi":57,"time":174.17638349999675,"velocity":0.7637795275590551,"duration":0.17463226562500722},{"name":"E5","midi":76,"time":174.17638349999675,"velocity":0.7637795275590551,"duration":0.17463226562500722},{"name":"B3","midi":59,"time":174.35285399999674,"velocity":0.7637795275590551,"duration":0.7040437656249878},{"name":"C5","midi":72,"time":174.35285399999674,"velocity":0.7637795275590551,"duration":0.17463226562500722},{"name":"B4","midi":71,"time":174.52932449999673,"velocity":0.7637795275590551,"duration":0.17463226562500722},{"name":"A4","midi":69,"time":174.70579499999673,"velocity":0.7637795275590551,"duration":1.056984765624975},{"name":"B2","midi":47,"time":175.0587359999967,"velocity":0.7637795275590551,"duration":0.7040437656249878},{"name":"F#5","midi":78,"time":175.0587359999967,"velocity":0.7637795275590551,"duration":0.5275732656249943},{"name":"D#5","midi":75,"time":175.5881474999967,"velocity":0.7637795275590551,"duration":0.17463226562500722},{"name":"E2","midi":40,"time":175.7646179999967,"velocity":0.7637795275590551,"duration":1.8382343749999848},{"name":"B4","midi":71,"time":175.7646179999967,"velocity":0.7637795275590551,"duration":1.6544109374999891},{"name":"A4","midi":69,"time":175.7646179999967,"velocity":0.7637795275590551,"duration":0.7040437656249878},{"name":"D#5","midi":75,"time":175.7646179999967,"velocity":0.7637795275590551,"duration":0.7040437656249878},{"name":"G#4","midi":68,"time":176.47049999999666,"velocity":0.7637795275590551,"duration":0.9191171875000066},{"name":"E5","midi":76,"time":176.47049999999666,"velocity":0.7637795275590551,"duration":1.1029406250000022},{"name":"B4","midi":71,"time":177.88226399999667,"velocity":0.7637795275590551,"duration":0.35110276562500076},{"name":"E2","midi":40,"time":178.23520499999665,"velocity":0.7637795275590551,"duration":0.35110276562500076},{"name":"D5","midi":74,"time":178.23520499999665,"velocity":0.7637795275590551,"duration":0.17463226562500722},{"name":"C5","midi":72,"time":178.41167549999665,"velocity":0.7637795275590551,"duration":0.17463226562500722},{"name":"G#2","midi":44,"time":178.58814599999664,"velocity":0.7637795275590551,"duration":0.35110276562500076},{"name":"B4","midi":71,"time":178.58814599999664,"velocity":0.7637795275590551,"duration":0.17463226562500722},{"name":"C5","midi":72,"time":178.76461649999663,"velocity":0.7637795275590551,"duration":0.17463226562500722},{"name":"B2","midi":47,"time":178.94108699999663,"velocity":0.7637795275590551,"duration":0.35110276562500076},{"name":"D5","midi":74,"time":178.94108699999663,"velocity":0.7637795275590551,"duration":0.35110276562500076},{"name":"E3","midi":52,"time":179.29402799999662,"velocity":0.7637795275590551,"duration":2.1139695312499214},{"name":"G#4","midi":68,"time":179.29402799999662,"velocity":0.7637795275590551,"duration":0.35110276562500076},{"name":"A4","midi":69,"time":179.6469689999966,"velocity":0.7637795275590551,"duration":0.17463226562500722},{"name":"B4","midi":71,"time":179.8234394999966,"velocity":0.7637795275590551,"duration":0.17463226562500722},{"name":"G#3","midi":56,"time":179.9999099999966,"velocity":0.7637795275590551,"duration":0.7040437656249878},{"name":"E4","midi":64,"time":179.9999099999966,"velocity":0.7637795275590551,"duration":0.35110276562500076},{"name":"G#4","midi":68,"time":180.35285099999658,"velocity":0.7637795275590551,"duration":0.17463226562500722},{"name":"B4","midi":71,"time":180.52932149999657,"velocity":0.7637795275590551,"duration":0.17463226562500722},{"name":"B3","midi":59,"time":180.70579199999656,"velocity":0.7637795275590551,"duration":0.7040437656249594},{"name":"D5","midi":74,"time":180.70579199999656,"velocity":0.7637795275590551,"duration":0.35110276562500076},{"name":"C5","midi":72,"time":181.05873299999655,"velocity":0.7637795275590551,"duration":0.17463226562500722},{"name":"B4","midi":71,"time":181.23520349999654,"velocity":0.7637795275590551,"duration":0.1746322656249788},{"name":"G#3","midi":56,"time":181.4116739999965,"velocity":0.7637795275590551,"duration":0.7040437656249878},{"name":"E3","midi":52,"time":181.4116739999965,"velocity":0.7637795275590551,"duration":0.7040437656249878},{"name":"F5","midi":77,"time":181.4116739999965,"velocity":0.7637795275590551,"duration":0.35110276562500076},{"name":"E5","midi":76,"time":181.7646149999965,"velocity":0.7637795275590551,"duration":0.17463226562500722},{"name":"D5","midi":74,"time":181.9410854999965,"velocity":0.7637795275590551,"duration":0.17463226562500722},{"name":"A3","midi":57,"time":182.11755599999648,"velocity":0.7637795275590551,"duration":0.08639701562501045},{"name":"C5","midi":72,"time":182.11755599999648,"velocity":0.7637795275590551,"duration":0.698529062499972},{"name":"G#3","midi":56,"time":182.20579124999648,"velocity":0.7637795275590551,"duration":0.08639701562501045},{"name":"A3","midi":57,"time":182.29402649999648,"velocity":0.7637795275590551,"duration":0.7040437656249594},{"name":"D5","midi":74,"time":182.47049699999647,"velocity":0.7637795275590551,"duration":0.17463226562500722},{"name":"E5","midi":76,"time":182.64696749999646,"velocity":0.7637795275590551,"duration":0.1746322656249788},{"name":"A4","midi":69,"time":182.82343799999643,"velocity":0.7637795275590551,"duration":0.8805142656249814},{"name":"B3","midi":59,"time":182.99990849999642,"velocity":0.7637795275590551,"duration":0.17463226562500722},{"name":"A3","midi":57,"time":183.17637899999642,"velocity":0.7637795275590551,"duration":0.17463226562500722},{"name":"G#3","midi":56,"time":183.3528494999964,"velocity":0.7637795275590551,"duration":0.17463226562500722},{"name":"A3","midi":57,"time":183.5293199999964,"velocity":0.7637795275590551,"duration":0.5275732656249943},{"name":"B4","midi":71,"time":183.7057904999964,"velocity":0.7637795275590551,"duration":0.17463226562500722},{"name":"C5","midi":72,"time":183.8822609999964,"velocity":0.7637795275590551,"duration":0.17463226562500722},{"name":"E3","midi":52,"time":184.05873149999638,"velocity":0.7637795275590551,"duration":0.17463226562500722},{"name":"D5","midi":74,"time":184.05873149999638,"velocity":0.7637795275590551,"duration":0.17463226562500722},{"name":"C3","midi":48,"time":184.23520199999638,"velocity":0.7637795275590551,"duration":0.5275732656249943},{"name":"E5","midi":76,"time":184.23520199999638,"velocity":0.7637795275590551,"duration":0.17463226562500722},{"name":"F5","midi":77,"time":184.41167249999637,"velocity":0.7637795275590551,"duration":0.17463226562500722},{"name":"G5","midi":79,"time":184.58814299999636,"velocity":0.7637795275590551,"duration":0.35110276562500076},{"name":"E3","midi":52,"time":184.76461349999636,"velocity":0.7637795275590551,"duration":0.17463226562500722},{"name":"A2","midi":45,"time":184.94108399999635,"velocity":0.7637795275590551,"duration":2.1139695312499214},{"name":"C#5","midi":73,"time":184.94108399999635,"velocity":0.7637795275590551,"duration":0.35110276562500076},{"name":"D5","midi":74,"time":185.29402499999634,"velocity":0.7637795275590551,"duration":0.17463226562500722},{"name":"E5","midi":76,"time":185.47049549999633,"velocity":0.7637795275590551,"duration":0.17463226562500722},{"name":"C#3","midi":49,"time":185.64696599999633,"velocity":0.7637795275590551,"duration":0.7040437656249878},{"name":"A4","midi":69,"time":185.64696599999633,"velocity":0.7637795275590551,"duration":0.35110276562500076},{"name":"C#5","midi":73,"time":185.9999069999963,"velocity":0.7637795275590551,"duration":0.17463226562500722},{"name":"E5","midi":76,"time":186.1763774999963,"velocity":0.7637795275590551,"duration":0.17463226562500722},{"name":"E3","midi":52,"time":186.3528479999963,"velocity":0.7637795275590551,"duration":0.7040437656249594},{"name":"G5","midi":79,"time":186.3528479999963,"velocity":0.7637795275590551,"duration":0.35110276562500076},{"name":"F5","midi":77,"time":186.7057889999963,"velocity":0.7637795275590551,"duration":0.17463226562500722},{"name":"E5","midi":76,"time":186.88225949999628,"velocity":0.7637795275590551,"duration":0.1746322656249788},{"name":"C#3","midi":49,"time":187.05872999999625,"velocity":0.7637795275590551,"duration":0.7040437656249878},{"name":"A2","midi":45,"time":187.05872999999625,"velocity":0.7637795275590551,"duration":0.7040437656249878},{"name":"A#5","midi":82,"time":187.05872999999625,"velocity":0.7637795275590551,"duration":0.35110276562500076},{"name":"A5","midi":81,"time":187.41167099999623,"velocity":0.7637795275590551,"duration":0.17463226562500722},{"name":"G5","midi":79,"time":187.58814149999623,"velocity":0.7637795275590551,"duration":0.17463226562500722},{"name":"D3","midi":50,"time":187.76461199999622,"velocity":0.7637795275590551,"duration":0.8805142656249814},{"name":"F5","midi":77,"time":187.76461199999622,"velocity":0.7637795275590551,"duration":0.35110276562500076},{"name":"G5","midi":79,"time":188.1175529999962,"velocity":0.7637795275590551,"duration":0.17463226562500722},{"name":"A5","midi":81,"time":188.2940234999962,"velocity":0.7637795275590551,"duration":1.056984765624975},{"name":"D5","midi":74,"time":188.4704939999962,"velocity":0.7637795275590551,"duration":0.8805142656249814},{"name":"F3","midi":53,"time":188.6469644999962,"velocity":0.7637795275590551,"duration":0.17463226562500722},{"name":"E3","midi":52,"time":188.82343499999618,"velocity":0.7637795275590551,"duration":0.17463226562500722},{"name":"D3","midi":50,"time":188.99990549999617,"velocity":0.7637795275590551,"duration":0.17463226562500722},{"name":"A#3","midi":58,"time":189.17637599999617,"velocity":0.7637795275590551,"duration":0.5275732656249943},{"name":"F5","midi":77,"time":189.35284649999616,"velocity":0.7637795275590551,"duration":0.17463226562500722},{"name":"E5","midi":76,"time":189.52931699999615,"velocity":0.7637795275590551,"duration":0.17463226562500722},{"name":"A3","midi":57,"time":189.70578749999615,"velocity":0.7637795275590551,"duration":0.17463226562500722},{"name":"D5","midi":74,"time":189.70578749999615,"velocity":0.7637795275590551,"duration":0.698529062499972},{"name":"A#3","midi":58,"time":189.88225799999614,"velocity":0.7637795275590551,"duration":0.5275732656249659},{"name":"G5","midi":79,"time":189.88225799999614,"velocity":0.7637795275590551,"duration":0.17463226562500722},{"name":"A5","midi":81,"time":190.05872849999614,"velocity":0.7637795275590551,"duration":0.17463226562500722},{"name":"A#5","midi":82,"time":190.23519899999613,"velocity":0.7637795275590551,"duration":0.698529062499972},{"name":"G3","midi":55,"time":190.4116694999961,"velocity":0.7637795275590551,"duration":0.17463226562500722},{"name":"C4","midi":60,"time":190.5881399999961,"velocity":0.7637795275590551,"duration":0.8805142656249814},{"name":"E5","midi":76,"time":190.5881399999961,"velocity":0.7637795275590551,"duration":0.35110276562500076},{"name":"F5","midi":77,"time":190.94108099999607,"velocity":0.7637795275590551,"duration":0.17463226562500722},{"name":"G5","midi":79,"time":191.11755149999607,"velocity":0.7637795275590551,"duration":0.17463226562500722},{"name":"C5","midi":72,"time":191.29402199999606,"velocity":0.7637795275590551,"duration":0.8805142656249814},{"name":"E3","midi":52,"time":191.47049249999606,"velocity":0.7637795275590551,"duration":0.17463226562500722},{"name":"D3","midi":50,"time":191.64696299999605,"velocity":0.7637795275590551,"duration":0.17463226562500722},{"name":"C3","midi":48,"time":191.82343349999604,"velocity":0.7637795275590551,"duration":0.17463226562500722},{"name":"A3","midi":57,"time":191.99990399999604,"velocity":0.7637795275590551,"duration":0.5275732656249943},{"name":"E5","midi":76,"time":192.17637449999603,"velocity":0.7637795275590551,"duration":0.17463226562500722},{"name":"D5","midi":74,"time":192.35284499999602,"velocity":0.7637795275590551,"duration":0.17463226562500722},{"name":"G3","midi":55,"time":192.52931549999602,"velocity":0.7637795275590551,"duration":0.17463226562500722},{"name":"C5","midi":72,"time":192.52931549999602,"velocity":0.7637795275590551,"duration":0.698529062499972},{"name":"A3","midi":57,"time":192.705785999996,"velocity":0.7637795275590551,"duration":0.5275732656249659},{"name":"F5","midi":77,"time":192.705785999996,"velocity":0.7637795275590551,"duration":0.17463226562500722},{"name":"G5","midi":79,"time":192.882256499996,"velocity":0.7637795275590551,"duration":0.17463226562500722},{"name":"A5","midi":81,"time":193.058726999996,"velocity":0.7637795275590551,"duration":0.698529062499972},{"name":"F3","midi":53,"time":193.23519749999596,"velocity":0.7637795275590551,"duration":0.17463226562500722},{"name":"A#3","midi":58,"time":193.41166799999596,"velocity":0.7637795275590551,"duration":0.8805142656249814},{"name":"D5","midi":74,"time":193.41166799999596,"velocity":0.7637795275590551,"duration":0.35110276562500076},{"name":"E5","midi":76,"time":193.76460899999594,"velocity":0.7637795275590551,"duration":0.17463226562500722},{"name":"F5","midi":77,"time":193.94107949999594,"velocity":0.7637795275590551,"duration":0.17463226562500722},{"name":"A#4","midi":70,"time":194.11754999999593,"velocity":0.7637795275590551,"duration":0.8805142656249814},{"name":"A3","midi":57,"time":194.29402049999592,"velocity":0.7637795275590551,"duration":0.17463226562500722},{"name":"G3","midi":55,"time":194.47049099999592,"velocity":0.7637795275590551,"duration":0.17463226562500722},{"name":"F3","midi":53,"time":194.6469614999959,"velocity":0.7637795275590551,"duration":0.17463226562500722},{"name":"E3","midi":52,"time":194.8234319999959,"velocity":0.7637795275590551,"duration":0.5275732656249943},{"name":"D5","midi":74,"time":194.9999024999959,"velocity":0.7637795275590551,"duration":0.17463226562500722},{"name":"C5","midi":72,"time":195.1763729999959,"velocity":0.7637795275590551,"duration":0.17463226562500722},{"name":"F3","midi":53,"time":195.35284349999588,"velocity":0.7637795275590551,"duration":0.17463226562500722},{"name":"A#4","midi":70,"time":195.35284349999588,"velocity":0.7637795275590551,"duration":0.698529062499972},{"name":"G3","midi":55,"time":195.52931399999588,"velocity":0.7637795275590551,"duration":0.5275732656249659},{"name":"E5","midi":76,"time":195.52931399999588,"velocity":0.7637795275590551,"duration":0.17463226562500722},{"name":"F5","midi":77,"time":195.70578449999587,"velocity":0.7637795275590551,"duration":0.17463226562500722},{"name":"G5","midi":79,"time":195.88225499999587,"velocity":0.7637795275590551,"duration":0.35110276562497233},{"name":"E3","midi":52,"time":196.05872549999583,"velocity":0.7637795275590551,"duration":0.17463226562500722},{"name":"C#4","midi":61,"time":196.23519599999582,"velocity":0.7637795275590551,"duration":0.7040437656249878},{"name":"A4","midi":69,"time":196.23519599999582,"velocity":0.7637795275590551,"duration":1.409925765624962},{"name":"G5","midi":79,"time":196.41166649999582,"velocity":0.7637795275590551,"duration":0.17463226562500722},{"name":"F5","midi":77,"time":196.5881369999958,"velocity":0.7637795275590551,"duration":0.17463226562500722},{"name":"E5","midi":76,"time":196.7646074999958,"velocity":0.7637795275590551,"duration":0.17463226562500722},{"name":"D4","midi":62,"time":196.9410779999958,"velocity":0.7637795275590551,"duration":0.7040437656249878},{"name":"F5","midi":77,"time":196.9410779999958,"velocity":0.7637795275590551,"duration":0.5275732656249943},{"name":"D5","midi":74,"time":197.47048949999578,"velocity":0.7637795275590551,"duration":0.5147056250000048},{"name":"A3","midi":57,"time":197.64695999999577,"velocity":0.7637795275590551,"duration":2.11396953124995},{"name":"G4","midi":67,"time":197.64695999999577,"velocity":0.7637795275590551,"duration":1.4099257656249904},{"name":"C#5","midi":73,"time":197.9999009999958,"velocity":0.7637795275590551,"duration":0.17463226562500722},{"name":"D5","midi":74,"time":198.17637149999578,"velocity":0.7637795275590551,"duration":0.17463226562500722},{"name":"A2","midi":45,"time":198.35284199999577,"velocity":0.7637795275590551,"duration":0.7040437656249878},{"name":"E5","midi":76,"time":198.35284199999577,"velocity":0.7637795275590551,"duration":0.17463226562500722},{"name":"D5","midi":74,"time":198.52931249999577,"velocity":0.7637795275590551,"duration":0.17463226562500722},{"name":"C#5","midi":73,"time":198.70578299999576,"velocity":0.7637795275590551,"duration":0.35110276562500076},{"name":"D3","midi":50,"time":199.05872399999575,"velocity":0.7637795275590551,"duration":1.4099257656249051},{"name":"D5","midi":74,"time":199.05872399999575,"velocity":0.7637795275590551,"duration":0.8676466249999351},{"name":"G4","midi":67,"time":199.23519449999574,"velocity":0.7637795275590551,"duration":0.17463226562500722},{"name":"F4","midi":65,"time":199.41166499999574,"velocity":0.7637795275590551,"duration":0.17463226562500722},{"name":"E4","midi":64,"time":199.58813549999573,"velocity":0.7637795275590551,"duration":0.1746322656249788},{"name":"A3","midi":57,"time":199.7646059999957,"velocity":0.7637795275590551,"duration":0.7040437656249594},{"name":"F4","midi":65,"time":199.7646059999957,"velocity":0.7637795275590551,"duration":0.1746322656249788},{"name":"G4","midi":67,"time":199.94107649999566,"velocity":0.7637795275590551,"duration":0.17463226562500722},{"name":"A4","midi":69,"time":200.11754699999565,"velocity":0.7637795275590551,"duration":0.17463226562500722},{"name":"F4","midi":65,"time":200.29401749999565,"velocity":0.7637795275590551,"duration":0.17463226562500722},{"name":"F3","midi":53,"time":200.47048799999564,"velocity":0.7637795275590551,"duration":0.7040437656249878},{"name":"D4","midi":62,"time":200.47048799999564,"velocity":0.7637795275590551,"duration":0.17463226562500722},{"name":"F4","midi":65,"time":200.64695849999563,"velocity":0.7637795275590551,"duration":0.17463226562500722},{"name":"A4","midi":69,"time":200.82342899999563,"velocity":0.7637795275590551,"duration":0.17463226562500722},{"name":"B4","midi":71,"time":200.99989949999562,"velocity":0.7637795275590551,"duration":0.17463226562500722},{"name":"D3","midi":50,"time":201.17636999999561,"velocity":0.7637795275590551,"duration":0.7040437656249878},{"name":"C5","midi":72,"time":201.17636999999561,"velocity":0.7637795275590551,"duration":0.17463226562500722},{"name":"B4","midi":71,"time":201.3528404999956,"velocity":0.7637795275590551,"duration":0.17463226562500722},{"name":"A4","midi":69,"time":201.5293109999956,"velocity":0.7637795275590551,"duration":0.17463226562500722},{"name":"C5","midi":72,"time":201.7057814999956,"velocity":0.7637795275590551,"duration":0.17463226562500722},{"name":"G3","midi":55,"time":201.8822519999956,"velocity":0.7637795275590551,"duration":2.8124985937498934},{"name":"B4","midi":71,"time":201.8822519999956,"velocity":0.7637795275590551,"duration":0.17463226562500722},{"name":"A4","midi":69,"time":202.05872249999558,"velocity":0.7637795275590551,"duration":0.17463226562500722},{"name":"G4","midi":67,"time":202.23519299999558,"velocity":0.7637795275590551,"duration":0.17463226562500722},{"name":"F#4","midi":66,"time":202.41166349999557,"velocity":0.7637795275590551,"duration":0.17463226562500722},{"name":"D3","midi":50,"time":202.58813399999556,"velocity":0.7637795275590551,"duration":0.7040437656249878},{"name":"G4","midi":67,"time":202.58813399999556,"velocity":0.7637795275590551,"duration":0.17463226562500722},{"name":"B4","midi":71,"time":202.76460449999556,"velocity":0.7637795275590551,"duration":0.17463226562500722},{"name":"D5","midi":74,"time":202.94107499999555,"velocity":0.7637795275590551,"duration":0.17463226562500722},{"name":"E5","midi":76,"time":203.11754549999554,"velocity":0.7637795275590551,"duration":0.17463226562500722},{"name":"B2","midi":47,"time":203.29401599999554,"velocity":0.7637795275590551,"duration":0.7040437656249878},{"name":"F5","midi":77,"time":203.29401599999554,"velocity":0.7637795275590551,"duration":1.4099257656249335},{"name":"C5","midi":72,"time":203.64695699999552,"velocity":0.7637795275590551,"duration":0.35110276562500076},{"name":"G2","midi":43,"time":203.9998979999955,"velocity":0.7637795275590551,"duration":0.7040437656249594},{"name":"D5","midi":74,"time":203.9998979999955,"velocity":0.7637795275590551,"duration":0.5275732656249943},{"name":"B4","midi":71,"time":204.5293094999955,"velocity":0.7637795275590551,"duration":0.1746322656249788},{"name":"C3","midi":48,"time":204.70577999999546,"velocity":0.7637795275590551,"duration":1.7647049999999354},{"name":"G4","midi":67,"time":204.70577999999546,"velocity":0.7637795275590551,"duration":1.409925765624962},{"name":"F5","midi":77,"time":204.88225049999545,"velocity":0.7637795275590551,"duration":0.17463226562500722},{"name":"E5","midi":76,"time":205.05872099999544,"velocity":0.7637795275590551,"duration":0.17463226562500722},{"name":"D5","midi":74,"time":205.23519149999544,"velocity":0.7637795275590551,"duration":0.17463226562500722},{"name":"E5","midi":76,"time":205.41166199999543,"velocity":0.7637795275590551,"duration":0.5275732656249943},{"name":"C5","midi":72,"time":205.9410734999954,"velocity":0.7637795275590551,"duration":0.17463226562500722},{"name":"A4","midi":69,"time":206.1175439999954,"velocity":0.7637795275590551,"duration":1.409925765624962},{"name":"G4","midi":67,"time":206.2940144999954,"velocity":0.7637795275590551,"duration":0.17463226562500722},{"name":"F4","midi":65,"time":206.4704849999954,"velocity":0.7637795275590551,"duration":0.17463226562500722},{"name":"C#3","midi":49,"time":206.64695549999539,"velocity":0.7637795275590551,"duration":0.17463226562500722},{"name":"E4","midi":64,"time":206.64695549999539,"velocity":0.7637795275590551,"duration":0.17463226562500722},{"name":"D3","midi":50,"time":206.82342599999538,"velocity":0.7637795275590551,"duration":0.5275732656249943},{"name":"F4","midi":65,"time":206.82342599999538,"velocity":0.7637795275590551,"duration":0.5275732656249943},{"name":"E3","midi":52,"time":207.35283749999536,"velocity":0.7637795275590551,"duration":0.17463226562500722},{"name":"D4","midi":62,"time":207.35283749999536,"velocity":0.7637795275590551,"duration":0.17463226562500722},{"name":"F3","midi":53,"time":207.52930799999535,"velocity":0.7637795275590551,"duration":0.7040437656249594},{"name":"B3","midi":59,"time":207.52930799999535,"velocity":0.7637795275590551,"duration":0.698529062499972},{"name":"G#4","midi":68,"time":207.70577849999535,"velocity":0.7637795275590551,"duration":0.17463226562500722},{"name":"A4","midi":69,"time":207.88224899999534,"velocity":0.7637795275590551,"duration":0.17463226562500722},{"name":"B4","midi":71,"time":208.05871949999533,"velocity":0.7637795275590551,"duration":0.1746322656249788},{"name":"G#2","midi":44,"time":208.2351899999953,"velocity":0.7637795275590551,"duration":0.7040437656249878},{"name":"E4","midi":64,"time":208.2351899999953,"velocity":0.7637795275590551,"duration":0.8088231249999751},{"name":"D5","midi":74,"time":208.4116604999953,"velocity":0.7637795275590551,"duration":0.17463226562500722},{"name":"C5","midi":72,"time":208.5881309999953,"velocity":0.7637795275590551,"duration":0.17463226562500722},{"name":"B4","midi":71,"time":208.76460149999528,"velocity":0.7637795275590551,"duration":0.17463226562500722},{"name":"A2","midi":45,"time":208.94107199999527,"velocity":0.7637795275590551,"duration":0.7040437656249594},{"name":"C5","midi":72,"time":208.94107199999527,"velocity":0.7637795275590551,"duration":0.5147056249999764},{"name":"A4","midi":69,"time":209.11754249999527,"velocity":0.7637795275590551,"duration":0.17463226562500722},{"name":"B4","midi":71,"time":209.29401299999526,"velocity":0.7637795275590551,"duration":0.1746322656249788},{"name":"C5","midi":72,"time":209.47048349999523,"velocity":0.7637795275590551,"duration":0.349264531249986},{"name":"F#2","midi":42,"time":209.64695399999522,"velocity":0.7637795275590551,"duration":0.7040437656249594},{"name":"D#4","midi":63,"time":209.64695399999522,"velocity":0.7637795275590551,"duration":0.698529062499972},{"name":"C5","midi":72,"time":209.8234244999952,"velocity":0.7637795275590551,"duration":0.17463226562500722},{"name":"B4","midi":71,"time":209.9998949999952,"velocity":0.7637795275590551,"duration":0.17463226562500722},{"name":"A4","midi":69,"time":210.1763654999952,"velocity":0.7637795275590551,"duration":0.1746322656249788},{"name":"E2","midi":40,"time":210.35283599999516,"velocity":0.7637795275590551,"duration":0.5147056249999764},{"name":"G#4","midi":68,"time":210.35283599999516,"velocity":0.7637795275590551,"duration":0.6985290624999436},{"name":"B2","midi":47,"time":210.52930649999516,"velocity":0.7637795275590551,"duration":0.17463226562500722},{"name":"C3","midi":48,"time":210.70577699999515,"velocity":0.7637795275590551,"duration":0.1746322656249788},{"name":"D3","midi":50,"time":210.88224749999512,"velocity":0.7637795275590551,"duration":0.1746322656249788},{"name":"E3","midi":52,"time":211.05871799999508,"velocity":0.7637795275590551,"duration":2.812498593749865},{"name":"F4","midi":65,"time":211.23518849999508,"velocity":0.7637795275590551,"duration":0.17463226562500722},{"name":"E4","midi":64,"time":211.41165899999507,"velocity":0.7637795275590551,"duration":0.17463226562500722},{"name":"D4","midi":62,"time":211.58812949999506,"velocity":0.7637795275590551,"duration":0.17463226562500722},{"name":"F#3","midi":54,"time":211.76459999999506,"velocity":0.7637795275590551,"duration":0.7040437656249594},{"name":"A4","midi":69,"time":211.76459999999506,"velocity":0.7637795275590551,"duration":0.698529062499972},{"name":"F4","midi":65,"time":211.94107049999505,"velocity":0.7637795275590551,"duration":0.17463226562500722},{"name":"E4","midi":64,"time":212.11754099999504,"velocity":0.7637795275590551,"duration":0.17463226562500722},{"name":"D4","midi":62,"time":212.29401149999504,"velocity":0.7637795275590551,"duration":0.1746322656249788},{"name":"G#3","midi":56,"time":212.470481999995,"velocity":0.7637795275590551,"duration":0.7040437656249878},{"name":"B4","midi":71,"time":212.470481999995,"velocity":0.7637795275590551,"duration":0.8400731093749698},{"name":"F4","midi":65,"time":212.646952499995,"velocity":0.7637795275590551,"duration":0.17463226562500722},{"name":"E4","midi":64,"time":212.823422999995,"velocity":0.7637795275590551,"duration":0.17463226562500722},{"name":"D4","midi":62,"time":212.99989349999498,"velocity":0.7637795275590551,"duration":0.17463226562500722},{"name":"A3","midi":57,"time":213.17636399999498,"velocity":0.7637795275590551,"duration":0.7040437656249594},{"name":"C4","midi":60,"time":213.17636399999498,"velocity":0.7637795275590551,"duration":1.4099257656249335},{"name":"A4","midi":69,"time":213.35283449999497,"velocity":0.7637795275590551,"duration":0.17463226562500722},{"name":"B4","midi":71,"time":213.52930499999496,"velocity":0.7637795275590551,"duration":0.17463226562500722},{"name":"C5","midi":72,"time":213.70577549999496,"velocity":0.7637795275590551,"duration":0.1746322656249788},{"name":"E3","midi":52,"time":213.88224599999492,"velocity":0.7637795275590551,"duration":1.409925765624962},{"name":"C5","midi":72,"time":213.88224599999492,"velocity":0.7637795275590551,"duration":0.08639701562501045},{"name":"B4","midi":71,"time":213.97048124999492,"velocity":0.7637795275590551,"duration":0.08639701562501045},{"name":"C5","midi":72,"time":214.05871649999492,"velocity":0.7637795275590551,"duration":0.08639701562501045},{"name":"B4","midi":71,"time":214.1469517499949,"velocity":0.7637795275590551,"duration":0.08639701562501045},{"name":"C5","midi":72,"time":214.2351869999949,"velocity":0.7637795275590551,"duration":0.08639701562501045},{"name":"B4","midi":71,"time":214.3234222499949,"velocity":0.7637795275590551,"duration":0.08639701562501045},{"name":"A4","midi":69,"time":214.4116574999949,"velocity":0.7637795275590551,"duration":0.17463226562500722},{"name":"D4","midi":62,"time":214.5881279999949,"velocity":0.7637795275590551,"duration":1.409925765624962},{"name":"B3","midi":59,"time":214.5881279999949,"velocity":0.7637795275590551,"duration":1.409925765624962},{"name":"G#4","midi":68,"time":214.5881279999949,"velocity":0.7637795275590551,"duration":0.17463226562500722},{"name":"B4","midi":71,"time":214.7645984999949,"velocity":0.7637795275590551,"duration":0.17463226562500722},{"name":"C5","midi":72,"time":214.94106899999488,"velocity":0.7637795275590551,"duration":0.17463226562500722},{"name":"D5","midi":74,"time":215.11753949999488,"velocity":0.7637795275590551,"duration":0.27573515624999345},{"name":"E3","midi":52,"time":215.29400999999487,"velocity":0.7637795275590551,"duration":1.409925765624962},{"name":"C5","midi":72,"time":215.38224524999487,"velocity":0.7637795275590551,"duration":0.08639701562501045},{"name":"D5","midi":74,"time":215.47048049999486,"velocity":0.7637795275590551,"duration":0.08639701562501045},{"name":"C5","midi":72,"time":215.55871574999486,"velocity":0.7637795275590551,"duration":0.08639701562501045},{"name":"D5","midi":74,"time":215.64695099999486,"velocity":0.7637795275590551,"duration":0.08639701562501045},{"name":"C5","midi":72,"time":215.73518624999485,"velocity":0.7637795275590551,"duration":0.08639701562501045},{"name":"B4","midi":71,"time":215.82342149999485,"velocity":0.7637795275590551,"duration":0.17463226562500722},{"name":"E4","midi":64,"time":215.99989199999484,"velocity":0.7637795275590551,"duration":1.409925765624962},{"name":"C4","midi":60,"time":215.99989199999484,"velocity":0.7637795275590551,"duration":1.409925765624962},{"name":"A4","midi":69,"time":215.99989199999484,"velocity":0.7637795275590551,"duration":0.17463226562500722},{"name":"E5","midi":76,"time":216.17636249999484,"velocity":0.7637795275590551,"duration":0.17463226562500722},{"name":"F#5","midi":78,"time":216.35283299999483,"velocity":0.7637795275590551,"duration":0.17463226562500722},{"name":"G5","midi":79,"time":216.52930349999482,"velocity":0.7637795275590551,"duration":0.27573515624999345},{"name":"A3","midi":57,"time":216.70577399999482,"velocity":0.7637795275590551,"duration":0.7040437656249878},{"name":"F#5","midi":78,"time":216.79400924999482,"velocity":0.7637795275590551,"duration":0.08639701562501045},{"name":"G5","midi":79,"time":216.8822444999948,"velocity":0.7637795275590551,"duration":0.08639701562501045},{"name":"F#5","midi":78,"time":216.9704797499948,"velocity":0.7637795275590551,"duration":0.08639701562501045},{"name":"G5","midi":79,"time":217.0587149999948,"velocity":0.7637795275590551,"duration":0.08639701562501045},{"name":"F#5","midi":78,"time":217.1469502499948,"velocity":0.7637795275590551,"duration":0.08639701562501045},{"name":"E5","midi":76,"time":217.2351854999948,"velocity":0.7637795275590551,"duration":0.17463226562500722},{"name":"F#3","midi":54,"time":217.4116559999948,"velocity":0.7637795275590551,"duration":0.5275732656249943},{"name":"D#5","midi":75,"time":217.4116559999948,"velocity":0.7637795275590551,"duration":1.4099257656249335},{"name":"A5","midi":81,"time":217.5881264999948,"velocity":0.7637795275590551,"duration":0.17463226562500722},{"name":"B5","midi":83,"time":217.76459699999478,"velocity":0.7637795275590551,"duration":0.17463226562500722},{"name":"A3","midi":57,"time":217.94106749999477,"velocity":0.7637795275590551,"duration":0.17463226562500722},{"name":"C6","midi":84,"time":217.94106749999477,"velocity":0.7637795275590551,"duration":0.17463226562500722},{"name":"G#3","midi":56,"time":218.11753799999477,"velocity":0.7637795275590551,"duration":0.6801467187499668},{"name":"B5","midi":83,"time":218.11753799999477,"velocity":0.7637795275590551,"duration":0.17463226562500722},{"name":"A5","midi":81,"time":218.29400849999476,"velocity":0.7637795275590551,"duration":0.17463226562500722},{"name":"G#5","midi":80,"time":218.47047899999475,"velocity":0.7637795275590551,"duration":0.17463226562500722},{"name":"F3","midi":53,"time":218.64694949999475,"velocity":0.7637795275590551,"duration":0.6985290624999436},{"name":"A5","midi":81,"time":218.64694949999475,"velocity":0.7637795275590551,"duration":0.1746322656249788},{"name":"B2","midi":47,"time":218.8234199999947,"velocity":0.7637795275590551,"duration":0.7040437656249594},{"name":"D5","midi":74,"time":218.8234199999947,"velocity":0.7637795275590551,"duration":0.17463226562500722},{"name":"F5","midi":77,"time":218.9998904999947,"velocity":0.7637795275590551,"duration":0.17463226562500722},{"name":"E5","midi":76,"time":219.1763609999947,"velocity":0.7637795275590551,"duration":0.1746322656249788},{"name":"D5","midi":74,"time":219.35283149999466,"velocity":0.7637795275590551,"duration":0.17463226562500722},{"name":"A3","midi":57,"time":219.52930199999466,"velocity":0.7637795275590551,"duration":0.698529062499972},{"name":"C3","midi":48,"time":219.52930199999466,"velocity":0.7637795275590551,"duration":0.5275732656249943},{"name":"E3","midi":52,"time":219.52930199999466,"velocity":0.7637795275590551,"duration":0.698529062499972},{"name":"E5","midi":76,"time":219.52930199999466,"velocity":0.7637795275590551,"duration":0.17463226562500722},{"name":"B4","midi":71,"time":219.70577249999465,"velocity":0.7637795275590551,"duration":0.17463226562500722},{"name":"C5","midi":72,"time":219.88224299999465,"velocity":0.7637795275590551,"duration":0.17463226562500722},{"name":"D3","midi":50,"time":220.05871349999464,"velocity":0.7637795275590551,"duration":0.1746322656249788},{"name":"A4","midi":69,"time":220.05871349999464,"velocity":0.7637795275590551,"duration":0.1746322656249788},{"name":"E3","midi":52,"time":220.2351839999946,"velocity":0.7637795275590551,"duration":0.7040437656249878},{"name":"E4","midi":64,"time":220.2351839999946,"velocity":0.7637795275590551,"duration":0.6985290625000005},{"name":"A4","midi":69,"time":220.5881249999946,"velocity":0.7637795275590551,"duration":0.35110276562500076},{"name":"E2","midi":40,"time":220.94106599999458,"velocity":0.7637795275590551,"duration":0.7040437656249594},{"name":"D4","midi":62,"time":220.94106599999458,"velocity":0.7637795275590551,"duration":0.698529062499972},{"name":"B4","midi":71,"time":220.94106599999458,"velocity":0.7637795275590551,"duration":0.5275732656249943},{"name":"G#4","midi":68,"time":221.47047749999456,"velocity":0.7637795275590551,"duration":0.1746322656249788},{"name":"A2","midi":45,"time":221.64694799999452,"velocity":0.7637795275590551,"duration":2.819851531249981},{"name":"A1","midi":33,"time":221.64694799999452,"velocity":0.7637795275590551,"duration":2.819851531249981},{"name":"D4","midi":62,"time":221.64694799999452,"velocity":0.7637795275590551,"duration":0.7040437656249878},{"name":"G#4","midi":68,"time":221.64694799999452,"velocity":0.7637795275590551,"duration":0.7040437656249878},{"name":"E4","midi":64,"time":221.64694799999452,"velocity":0.7637795275590551,"duration":2.8124985937499787},{"name":"C4","midi":60,"time":222.3528299999945,"velocity":0.7637795275590551,"duration":2.1139695312500066},{"name":"A4","midi":69,"time":222.3528299999945,"velocity":0.7637795275590551,"duration":2.1139695312500066},{"name":"D5","midi":74,"time":227.4704744999945,"velocity":0.7637795275590551,"duration":0.17463226562500722},{"name":"C5","midi":72,"time":227.6469449999945,"velocity":0.7637795275590551,"duration":0.17463226562500722},{"name":"B4","midi":71,"time":227.8234154999945,"velocity":0.7637795275590551,"duration":0.17463226562500722},{"name":"C5","midi":72,"time":227.9998859999945,"velocity":0.7637795275590551,"duration":0.44117625000001226},{"name":"A2","midi":45,"time":227.9998859999945,"velocity":0.7637795275590551,"duration":0.5147056250000048},{"name":"E5","midi":76,"time":228.5292974999945,"velocity":0.7637795275590551,"duration":0.17463226562500722},{"name":"A5","midi":81,"time":228.7057679999945,"velocity":0.7637795275590551,"duration":0.44117625000001226},{"name":"C3","midi":48,"time":228.7057679999945,"velocity":0.7637795275590551,"duration":0.5147056250000048},{"name":"E5","midi":76,"time":229.2351794999945,"velocity":0.7637795275590551,"duration":0.17463226562500722},{"name":"B5","midi":83,"time":229.4116499999945,"velocity":0.7637795275590551,"duration":0.44117625000001226},{"name":"E3","midi":52,"time":229.4116499999945,"velocity":0.7637795275590551,"duration":0.5147056250000048},{"name":"D5","midi":74,"time":229.9410614999945,"velocity":0.7637795275590551,"duration":0.17463226562500722},{"name":"C5","midi":72,"time":230.1175319999945,"velocity":0.7637795275590551,"duration":0.17463226562500722},{"name":"E5","midi":76,"time":230.2940024999945,"velocity":0.7637795275590551,"duration":0.17463226562500722},{"name":"G#3","midi":56,"time":230.2940024999945,"velocity":0.7637795275590551,"duration":0.17463226562500722},{"name":"F#5","midi":78,"time":230.47047299999448,"velocity":0.7637795275590551,"duration":0.17463226562500722},{"name":"A3","midi":57,"time":230.47047299999448,"velocity":0.7637795275590551,"duration":0.17463226562500722},{"name":"G#5","midi":80,"time":230.64694349999448,"velocity":0.7637795275590551,"duration":0.17463226562500722},{"name":"B3","midi":59,"time":230.64694349999448,"velocity":0.7637795275590551,"duration":0.17463226562500722},{"name":"A5","midi":81,"time":230.82341399999447,"velocity":0.7637795275590551,"duration":0.349264531249986},{"name":"C4","midi":60,"time":230.82341399999447,"velocity":0.7637795275590551,"duration":0.17463226562500722},{"name":"E4","midi":64,"time":230.99988449999447,"velocity":0.7637795275590551,"duration":0.1746322656249788},{"name":"D4","midi":62,"time":231.17635499999443,"velocity":0.7637795275590551,"duration":0.17463226562500722},{"name":"E5","midi":76,"time":231.35282549999442,"velocity":0.7637795275590551,"duration":0.17463226562500722},{"name":"E4","midi":64,"time":231.35282549999442,"velocity":0.7637795275590551,"duration":0.17463226562500722},{"name":"B5","midi":83,"time":231.52929599999442,"velocity":0.7637795275590551,"duration":0.349264531249986},{"name":"G#3","midi":56,"time":231.52929599999442,"velocity":0.7637795275590551,"duration":0.17463226562500722},{"name":"E4","midi":64,"time":231.7057664999944,"velocity":0.7637795275590551,"duration":0.1746322656249788},{"name":"D4","midi":62,"time":231.88223699999438,"velocity":0.7637795275590551,"duration":0.17463226562500722},{"name":"D5","midi":74,"time":232.05870749999437,"velocity":0.7637795275590551,"duration":0.17463226562500722},{"name":"E4","midi":64,"time":232.05870749999437,"velocity":0.7637795275590551,"duration":0.17463226562500722},{"name":"C5","midi":72,"time":232.23517799999436,"velocity":0.7637795275590551,"duration":0.17463226562500722},{"name":"A3","midi":57,"time":232.23517799999436,"velocity":0.7637795275590551,"duration":0.17463226562500722},{"name":"A4","midi":69,"time":232.41164849999436,"velocity":0.7637795275590551,"duration":0.17463226562500722},{"name":"C4","midi":60,"time":232.41164849999436,"velocity":0.7637795275590551,"duration":0.17463226562500722},{"name":"B4","midi":71,"time":232.58811899999435,"velocity":0.7637795275590551,"duration":0.17463226562500722},{"name":"D4","midi":62,"time":232.58811899999435,"velocity":0.7637795275590551,"duration":0.17463226562500722},{"name":"C5","midi":72,"time":232.76458949999434,"velocity":0.7637795275590551,"duration":0.17463226562500722},{"name":"E4","midi":64,"time":232.76458949999434,"velocity":0.7637795275590551,"duration":0.17463226562500722},{"name":"D5","midi":74,"time":232.94105999999434,"velocity":0.7637795275590551,"duration":0.17463226562500722},{"name":"F4","midi":65,"time":232.94105999999434,"velocity":0.7637795275590551,"duration":0.5128673906249901},{"name":"E5","midi":76,"time":233.11753049999433,"velocity":0.7637795275590551,"duration":0.17463226562500722},{"name":"F5","midi":77,"time":233.29400099999432,"velocity":0.7637795275590551,"duration":0.17463226562500722},{"name":"E5","midi":76,"time":233.47047149999432,"velocity":0.7637795275590551,"duration":0.17463226562500722},{"name":"G#3","midi":56,"time":233.47047149999432,"velocity":0.7637795275590551,"duration":0.17463226562500722},{"name":"D5","midi":74,"time":233.6469419999943,"velocity":0.7637795275590551,"duration":0.17463226562500722},{"name":"A3","midi":57,"time":233.6469419999943,"velocity":0.7637795275590551,"duration":0.5128673906249901},{"name":"C5","midi":72,"time":233.8234124999943,"velocity":0.7637795275590551,"duration":0.17463226562500722},{"name":"B4","midi":71,"time":233.9998829999943,"velocity":0.7637795275590551,"duration":0.17463226562500722},{"name":"A4","midi":69,"time":234.1763534999943,"velocity":0.7637795275590551,"duration":0.17463226562500722},{"name":"F3","midi":53,"time":234.1763534999943,"velocity":0.7637795275590551,"duration":0.17463226562500722},{"name":"G#4","midi":68,"time":234.35282399999429,"velocity":0.7637795275590551,"duration":0.17463226562500722},{"name":"E3","midi":52,"time":234.35282399999429,"velocity":0.7637795275590551,"duration":0.8455878124999856},{"name":"A4","midi":69,"time":234.52929449999428,"velocity":0.7637795275590551,"duration":0.17463226562500722},{"name":"B4","midi":71,"time":234.70576499999427,"velocity":0.7637795275590551,"duration":0.17463226562500722},{"name":"G#4","midi":68,"time":234.88223549999427,"velocity":0.7637795275590551,"duration":0.17463226562500722},{"name":"E4","midi":64,"time":235.05870599999426,"velocity":0.7637795275590551,"duration":0.8823524999999961},{"name":"G#3","midi":56,"time":235.23517649999428,"velocity":0.7637795275590551,"duration":0.17463226562500722},{"name":"B3","midi":59,"time":235.41164699999428,"velocity":0.7637795275590551,"duration":0.17463226562500722},{"name":"G#3","midi":56,"time":235.58811749999427,"velocity":0.7637795275590551,"duration":0.17463226562500722},{"name":"E3","midi":52,"time":235.76458799999426,"velocity":0.7637795275590551,"duration":0.17463226562500722},{"name":"G#3","midi":56,"time":235.94105849999426,"velocity":0.7637795275590551,"duration":0.17463226562500722},{"name":"D3","midi":50,"time":236.11752899999425,"velocity":0.7637795275590551,"duration":0.17463226562500722},{"name":"G#3","midi":56,"time":236.29399949999424,"velocity":0.7637795275590551,"duration":0.17463226562500722},{"name":"C3","midi":48,"time":236.47046999999424,"velocity":0.7637795275590551,"duration":0.5128673906249901},{"name":"D4","midi":62,"time":236.64694049999423,"velocity":0.7637795275590551,"duration":0.17463226562500722},{"name":"C4","midi":60,"time":236.82341099999422,"velocity":0.7637795275590551,"duration":0.17463226562500722},{"name":"B3","midi":59,"time":236.99988149999422,"velocity":0.7637795275590551,"duration":0.17463226562500722},{"name":"E3","midi":52,"time":236.99988149999422,"velocity":0.7637795275590551,"duration":0.17463226562500722},{"name":"C4","midi":60,"time":237.1763519999942,"velocity":0.7637795275590551,"duration":0.17463226562500722},{"name":"A2","midi":45,"time":237.1763519999942,"velocity":0.7637795275590551,"duration":0.5220585624999785},{"name":"A3","midi":57,"time":237.3528224999942,"velocity":0.7637795275590551,"duration":0.17463226562500722},{"name":"C4","midi":60,"time":237.5292929999942,"velocity":0.7637795275590551,"duration":0.1746322656249788},{"name":"E4","midi":64,"time":237.70576349999416,"velocity":0.7637795275590551,"duration":0.17463226562500722},{"name":"B2","midi":47,"time":237.70576349999416,"velocity":0.7637795275590551,"duration":0.17463226562500722},{"name":"A4","midi":69,"time":237.88223399999416,"velocity":0.7637795275590551,"duration":0.17463226562500722},{"name":"C3","midi":48,"time":237.88223399999416,"velocity":0.7637795275590551,"duration":0.5220585624999785},{"name":"G#4","midi":68,"time":238.05870449999415,"velocity":0.7637795275590551,"duration":0.17463226562500722},{"name":"F#4","midi":66,"time":238.23517499999414,"velocity":0.7637795275590551,"duration":0.1746322656249788},{"name":"E4","midi":64,"time":238.4116454999941,"velocity":0.7637795275590551,"duration":0.17463226562500722},{"name":"E3","midi":52,"time":238.4116454999941,"velocity":0.7637795275590551,"duration":0.17463226562500722},{"name":"C5","midi":72,"time":238.5881159999941,"velocity":0.7637795275590551,"duration":0.17463226562500722},{"name":"A3","midi":57,"time":238.5881159999941,"velocity":0.7637795275590551,"duration":0.44117624999998384},{"name":"B4","midi":71,"time":238.7645864999941,"velocity":0.7637795275590551,"duration":0.17463226562500722},{"name":"A4","midi":69,"time":238.9410569999941,"velocity":0.7637795275590551,"duration":0.17463226562500722},{"name":"G4","midi":67,"time":239.11752749999408,"velocity":0.7637795275590551,"duration":0.17463226562500722},{"name":"A2","midi":45,"time":239.11752749999408,"velocity":0.7637795275590551,"duration":0.17463226562500722},{"name":"F4","midi":65,"time":239.29399799999408,"velocity":0.7637795275590551,"duration":0.17463226562500722},{"name":"D3","midi":50,"time":239.29399799999408,"velocity":0.7637795275590551,"duration":0.5220585624999785},{"name":"D4","midi":62,"time":239.47046849999407,"velocity":0.7637795275590551,"duration":0.17463226562500722},{"name":"F4","midi":65,"time":239.64693899999406,"velocity":0.7637795275590551,"duration":0.1746322656249788},{"name":"A4","midi":69,"time":239.82340949999403,"velocity":0.7637795275590551,"duration":0.17463226562500722},{"name":"E3","midi":52,"time":239.82340949999403,"velocity":0.7637795275590551,"duration":0.17463226562500722},{"name":"D5","midi":74,"time":239.99987999999402,"velocity":0.7637795275590551,"duration":0.17463226562500722},{"name":"F3","midi":53,"time":239.99987999999402,"velocity":0.7637795275590551,"duration":0.5220585624999785},{"name":"C#5","midi":73,"time":240.17635049999402,"velocity":0.7637795275590551,"duration":0.17463226562500722},{"name":"B4","midi":71,"time":240.352820999994,"velocity":0.7637795275590551,"duration":0.1746322656249788},{"name":"A4","midi":69,"time":240.52929149999397,"velocity":0.7637795275590551,"duration":0.17463226562500722},{"name":"A3","midi":57,"time":240.52929149999397,"velocity":0.7637795275590551,"duration":0.17463226562500722},{"name":"F5","midi":77,"time":240.70576199999397,"velocity":0.7637795275590551,"duration":0.17463226562500722},{"name":"D4","midi":62,"time":240.70576199999397,"velocity":0.7637795275590551,"duration":0.44117624999998384},{"name":"E5","midi":76,"time":240.88223249999396,"velocity":0.7637795275590551,"duration":0.17463226562500722},{"name":"D5","midi":74,"time":241.05870299999395,"velocity":0.7637795275590551,"duration":0.17463226562500722},{"name":"C5","midi":72,"time":241.23517349999395,"velocity":0.7637795275590551,"duration":0.17463226562500722},{"name":"D3","midi":50,"time":241.23517349999395,"velocity":0.7637795275590551,"duration":0.17463226562500722},{"name":"B4","midi":71,"time":241.41164399999394,"velocity":0.7637795275590551,"duration":0.17463226562500722},{"name":"G3","midi":55,"time":241.41164399999394,"velocity":0.7637795275590551,"duration":0.5220585624999785},{"name":"G4","midi":67,"time":241.58811449999394,"velocity":0.7637795275590551,"duration":0.17463226562500722},{"name":"B4","midi":71,"time":241.76458499999393,"velocity":0.7637795275590551,"duration":0.1746322656249788},{"name":"D5","midi":74,"time":241.9410554999939,"velocity":0.7637795275590551,"duration":0.17463226562500722},{"name":"A3","midi":57,"time":241.9410554999939,"velocity":0.7637795275590551,"duration":0.17463226562500722},{"name":"G5","midi":79,"time":242.1175259999939,"velocity":0.7637795275590551,"duration":0.17463226562500722},{"name":"B3","midi":59,"time":242.1175259999939,"velocity":0.7637795275590551,"duration":0.5220585624999785},{"name":"F#5","midi":78,"time":242.29399649999388,"velocity":0.7637795275590551,"duration":0.17463226562500722},{"name":"E5","midi":76,"time":242.47046699999387,"velocity":0.7637795275590551,"duration":0.1746322656249788},{"name":"D5","midi":74,"time":242.64693749999384,"velocity":0.7637795275590551,"duration":0.17463226562500722},{"name":"D4","midi":62,"time":242.64693749999384,"velocity":0.7637795275590551,"duration":0.17463226562500722},{"name":"B5","midi":83,"time":242.82340799999383,"velocity":0.7637795275590551,"duration":0.17463226562500722},{"name":"G4","midi":67,"time":242.82340799999383,"velocity":0.7637795275590551,"duration":0.47794093749999433},{"name":"A5","midi":81,"time":242.99987849999383,"velocity":0.7637795275590551,"duration":0.17463226562500722},{"name":"G5","midi":79,"time":243.17634899999382,"velocity":0.7637795275590551,"duration":0.17463226562500722},{"name":"F5","midi":77,"time":243.3528194999938,"velocity":0.7637795275590551,"duration":0.17463226562500722},{"name":"G3","midi":55,"time":243.3528194999938,"velocity":0.7637795275590551,"duration":0.17463226562500722},{"name":"E5","midi":76,"time":243.5292899999938,"velocity":0.7637795275590551,"duration":0.17463226562500722},{"name":"C4","midi":60,"time":243.5292899999938,"velocity":0.7637795275590551,"duration":0.5220585624999785},{"name":"C5","midi":72,"time":243.7057604999938,"velocity":0.7637795275590551,"duration":0.17463226562500722},{"name":"E5","midi":76,"time":243.8822309999938,"velocity":0.7637795275590551,"duration":0.1746322656249788},{"name":"G5","midi":79,"time":244.05870149999376,"velocity":0.7637795275590551,"duration":0.17463226562500722},{"name":"D4","midi":62,"time":244.05870149999376,"velocity":0.7637795275590551,"duration":0.17463226562500722},{"name":"C6","midi":84,"time":244.23517199999375,"velocity":0.7637795275590551,"duration":0.17463226562500722},{"name":"E4","midi":64,"time":244.23517199999375,"velocity":0.7637795275590551,"duration":0.5128673906249901},{"name":"B5","midi":83,"time":244.41164249999375,"velocity":0.7637795275590551,"duration":0.17463226562500722},{"name":"A5","midi":81,"time":244.58811299999374,"velocity":0.7637795275590551,"duration":0.17463226562500722},{"name":"G5","midi":79,"time":244.76458349999373,"velocity":0.7637795275590551,"duration":0.17463226562500722},{"name":"C4","midi":60,"time":244.76458349999373,"velocity":0.7637795275590551,"duration":0.17463226562500722},{"name":"A5","midi":81,"time":244.94105399999373,"velocity":0.7637795275590551,"duration":0.5128673906249901},{"name":"F4","midi":65,"time":244.94105399999373,"velocity":0.7637795275590551,"duration":0.698529062499972},{"name":"D5","midi":74,"time":245.4704654999937,"velocity":0.7637795275590551,"duration":0.1746322656249788},{"name":"F3","midi":53,"time":245.4704654999937,"velocity":0.7637795275590551,"duration":0.1746322656249788},{"name":"E5","midi":76,"time":245.64693599999367,"velocity":0.7637795275590551,"duration":0.17463226562500722},{"name":"F4","midi":65,"time":245.64693599999367,"velocity":0.7637795275590551,"duration":0.698529062499972},{"name":"D5","midi":74,"time":245.82340649999367,"velocity":0.7637795275590551,"duration":0.17463226562500722},{"name":"C#5","midi":73,"time":245.99987699999366,"velocity":0.7637795275590551,"duration":0.17463226562500722},{"name":"D5","midi":74,"time":246.17634749999365,"velocity":0.7637795275590551,"duration":0.1746322656249788},{"name":"F3","midi":53,"time":246.17634749999365,"velocity":0.7637795275590551,"duration":0.1746322656249788},{"name":"E5","midi":76,"time":246.35281799999362,"velocity":0.7637795275590551,"duration":0.17463226562500722},{"name":"F4","midi":65,"time":246.35281799999362,"velocity":0.7637795275590551,"duration":0.8088231249999751},{"name":"D5","midi":74,"time":246.5292884999936,"velocity":0.7637795275590551,"duration":0.17463226562500722},{"name":"C#5","midi":73,"time":246.7057589999936,"velocity":0.7637795275590551,"duration":0.17463226562500722},{"name":"D5","midi":74,"time":246.8822294999936,"velocity":0.7637795275590551,"duration":0.17463226562500722},{"name":"G5","midi":79,"time":247.0586999999936,"velocity":0.7637795275590551,"duration":0.5128673906249901},{"name":"D4","midi":62,"time":247.2351704999936,"velocity":0.7637795275590551,"duration":0.17463226562500722},{"name":"E4","midi":64,"time":247.41164099999358,"velocity":0.7637795275590551,"duration":0.17463226562500722},{"name":"B4","midi":71,"time":247.58811149999357,"velocity":0.7637795275590551,"duration":0.17463226562500722},{"name":"F4","midi":65,"time":247.58811149999357,"velocity":0.7637795275590551,"duration":0.17463226562500722},{"name":"C5","midi":72,"time":247.76458199999357,"velocity":0.7637795275590551,"duration":1.8014696874999458},{"name":"E4","midi":64,"time":247.76458199999357,"velocity":0.7637795275590551,"duration":0.17463226562500722},{"name":"D4","midi":62,"time":247.94105249999356,"velocity":0.7637795275590551,"duration":0.17463226562500722},{"name":"C4","midi":60,"time":248.11752299999355,"velocity":0.7637795275590551,"duration":0.17463226562500722},{"name":"B3","midi":59,"time":248.29399349999355,"velocity":0.7637795275590551,"duration":0.17463226562500722},{"name":"A3","midi":57,"time":248.47046399999354,"velocity":0.7637795275590551,"duration":0.17463226562500722},{"name":"G3","midi":55,"time":248.64693449999353,"velocity":0.7637795275590551,"duration":0.17463226562500722},{"name":"F3","midi":53,"time":248.82340499999353,"velocity":0.7637795275590551,"duration":0.17463226562500722},{"name":"E3","midi":52,"time":248.99987549999352,"velocity":0.7637795275590551,"duration":0.17463226562500722},{"name":"D3","midi":50,"time":249.17634599999352,"velocity":0.7637795275590551,"duration":0.6985290625000005},{"name":"B4","midi":71,"time":249.70575749999352,"velocity":0.7637795275590551,"duration":0.1746322656249788},{"name":"D2","midi":38,"time":249.70575749999352,"velocity":0.7637795275590551,"duration":0.1746322656249788},{"name":"C5","midi":72,"time":249.8822279999935,"velocity":0.7637795275590551,"duration":0.17463226562500722},{"name":"D3","midi":50,"time":249.8822279999935,"velocity":0.7637795275590551,"duration":0.698529062499972},{"name":"B4","midi":71,"time":250.05869849999348,"velocity":0.7637795275590551,"duration":0.17463226562500722},{"name":"A4","midi":69,"time":250.23516899999348,"velocity":0.7637795275590551,"duration":0.17463226562500722},{"name":"B4","midi":71,"time":250.41163949999347,"velocity":0.7637795275590551,"duration":0.1746322656249788},{"name":"D2","midi":38,"time":250.41163949999347,"velocity":0.7637795275590551,"duration":0.1746322656249788},{"name":"C5","midi":72,"time":250.58810999999343,"velocity":0.7637795275590551,"duration":0.17463226562500722},{"name":"D3","midi":50,"time":250.58810999999343,"velocity":0.7637795275590551,"duration":0.8088231249999751},{"name":"B4","midi":71,"time":250.76458049999343,"velocity":0.7637795275590551,"duration":0.17463226562500722},{"name":"A4","midi":69,"time":250.94105099999342,"velocity":0.7637795275590551,"duration":0.17463226562500722},{"name":"B4","midi":71,"time":251.11752149999342,"velocity":0.7637795275590551,"duration":0.17463226562500722},{"name":"E5","midi":76,"time":251.2939919999934,"velocity":0.7637795275590551,"duration":0.5128673906249901},{"name":"B2","midi":47,"time":251.4704624999934,"velocity":0.7637795275590551,"duration":0.17463226562500722},{"name":"C3","midi":48,"time":251.6469329999934,"velocity":0.7637795275590551,"duration":0.17463226562500722},{"name":"G#4","midi":68,"time":251.8234034999934,"velocity":0.7637795275590551,"duration":0.17463226562500722},{"name":"D3","midi":50,"time":251.8234034999934,"velocity":0.7637795275590551,"duration":0.17463226562500722},{"name":"A4","midi":69,"time":251.99987399999338,"velocity":0.7637795275590551,"duration":1.4705874999999367},{"name":"C3","midi":48,"time":251.99987399999338,"velocity":0.7637795275590551,"duration":0.17463226562500722},{"name":"B2","midi":47,"time":252.17634449999338,"velocity":0.7637795275590551,"duration":0.17463226562500722},{"name":"A2","midi":45,"time":252.35281499999337,"velocity":0.7637795275590551,"duration":0.17463226562500722},{"name":"G2","midi":43,"time":252.52928549999336,"velocity":0.7637795275590551,"duration":0.17463226562500722},{"name":"F2","midi":41,"time":252.70575599999336,"velocity":0.7637795275590551,"duration":0.17463226562500722},{"name":"E2","midi":40,"time":252.88222649999335,"velocity":0.7637795275590551,"duration":0.17463226562500722},{"name":"D2","midi":38,"time":253.05869699999334,"velocity":0.7637795275590551,"duration":0.17463226562500722},{"name":"C2","midi":36,"time":253.23516749999334,"velocity":0.7637795275590551,"duration":0.17463226562500722},{"name":"B1","midi":35,"time":253.41163799999333,"velocity":0.7637795275590551,"duration":0.5128673906249901},{"name":"D5","midi":74,"time":253.58810849999333,"velocity":0.7637795275590551,"duration":0.17463226562500722},{"name":"E5","midi":76,"time":253.76457899999332,"velocity":0.7637795275590551,"duration":0.17463226562500722},{"name":"F5","midi":77,"time":253.9410494999933,"velocity":0.7637795275590551,"duration":0.17463226562500722},{"name":"G#2","midi":44,"time":253.9410494999933,"velocity":0.7637795275590551,"duration":0.17463226562500722},{"name":"E5","midi":76,"time":254.1175199999933,"velocity":0.7637795275590551,"duration":0.17463226562500722},{"name":"A2","midi":45,"time":254.1175199999933,"velocity":0.7637795275590551,"duration":0.5128673906249901},{"name":"D5","midi":74,"time":254.2939904999933,"velocity":0.7637795275590551,"duration":0.17463226562500722},{"name":"C5","midi":72,"time":254.4704609999933,"velocity":0.7637795275590551,"duration":0.17463226562500722},{"name":"B4","midi":71,"time":254.6469314999933,"velocity":0.7637795275590551,"duration":0.17463226562500722},{"name":"C2","midi":36,"time":254.6469314999933,"velocity":0.7637795275590551,"duration":0.17463226562500722},{"name":"A4","midi":69,"time":254.82340199999328,"velocity":0.7637795275590551,"duration":0.17463226562500722},{"name":"F2","midi":41,"time":254.82340199999328,"velocity":0.7637795275590551,"duration":0.5128673906249901},{"name":"G#4","midi":68,"time":254.99987249999327,"velocity":0.7637795275590551,"duration":0.17463226562500722},{"name":"A4","midi":69,"time":255.17634299999327,"velocity":0.7637795275590551,"duration":0.17463226562500722},{"name":"B4","midi":71,"time":255.35281349999326,"velocity":0.7637795275590551,"duration":0.17463226562500722},{"name":"D2","midi":38,"time":255.35281349999326,"velocity":0.7637795275590551,"duration":0.17463226562500722},{"name":"E4","midi":64,"time":255.52928399999325,"velocity":0.7637795275590551,"duration":0.22058812500000613},{"name":"E2","midi":40,"time":255.52928399999325,"velocity":0.7637795275590551,"duration":0.7040437656249878},{"name":"B4","midi":71,"time":255.70575449999325,"velocity":0.7637795275590551,"duration":0.17463226562500722},{"name":"G#4","midi":68,"time":255.88222499999324,"velocity":0.7637795275590551,"duration":0.17463226562500722},{"name":"F4","midi":65,"time":256.05869549999323,"velocity":0.7637795275590551,"duration":0.17463226562500722},{"name":"E4","midi":64,"time":256.2351659999932,"velocity":0.7637795275590551,"duration":0.22977929687499454},{"name":"C5","midi":72,"time":256.4116364999932,"velocity":0.7637795275590551,"duration":0.17463226562500722},{"name":"A4","midi":69,"time":256.5881069999932,"velocity":0.7637795275590551,"duration":0.17463226562500722},{"name":"F4","midi":65,"time":256.7645774999932,"velocity":0.7637795275590551,"duration":0.17463226562500722},{"name":"A3","midi":57,"time":256.7645774999932,"velocity":0.7637795275590551,"duration":0.17463226562500722},{"name":"E4","midi":64,"time":256.9410479999932,"velocity":0.7637795275590551,"duration":0.23897046874998296},{"name":"G#3","midi":56,"time":256.9410479999932,"velocity":0.7637795275590551,"duration":0.5128673906249901},{"name":"D5","midi":74,"time":257.1175184999932,"velocity":0.7637795275590551,"duration":0.17463226562500722},{"name":"B4","midi":71,"time":257.2939889999932,"velocity":0.7637795275590551,"duration":0.17463226562500722},{"name":"F4","midi":65,"time":257.4704594999932,"velocity":0.7637795275590551,"duration":0.17463226562500722},{"name":"D4","midi":62,"time":257.4704594999932,"velocity":0.7637795275590551,"duration":0.17463226562500722},{"name":"E4","midi":64,"time":257.6469299999932,"velocity":0.7637795275590551,"duration":0.24816164062497137},{"name":"C4","midi":60,"time":257.6469299999932,"velocity":0.7637795275590551,"duration":0.5147056249999196},{"name":"C5","midi":72,"time":257.82340049999317,"velocity":0.7637795275590551,"duration":0.17463226562495038},{"name":"A4","midi":69,"time":257.9998709999931,"velocity":0.7637795275590551,"duration":0.17463226562500722},{"name":"F4","midi":65,"time":258.1763414999931,"velocity":0.7637795275590551,"duration":0.17463226562500722},{"name":"E4","midi":64,"time":258.3528119999931,"velocity":0.7637795275590551,"duration":0.2573528125000166},{"name":"B4","midi":71,"time":258.5292824999931,"velocity":0.7637795275590551,"duration":0.17463226562500722},{"name":"G#4","midi":68,"time":258.7057529999931,"velocity":0.7637795275590551,"duration":0.17463226562500722},{"name":"F4","midi":65,"time":258.8822234999931,"velocity":0.7637795275590551,"duration":0.17463226562500722},{"name":"B3","midi":59,"time":258.8822234999931,"velocity":0.7637795275590551,"duration":0.17463226562500722},{"name":"E4","midi":64,"time":259.05869399999307,"velocity":0.7637795275590551,"duration":0.26654398437500504},{"name":"C4","midi":60,"time":259.05869399999307,"velocity":0.7637795275590551,"duration":0.5128673906249901},{"name":"C5","midi":72,"time":259.23516449999306,"velocity":0.7637795275590551,"duration":0.17463226562500722},{"name":"A4","midi":69,"time":259.41163499999305,"velocity":0.7637795275590551,"duration":0.17463226562500722},{"name":"F4","midi":65,"time":259.58810549999305,"velocity":0.7637795275590551,"duration":0.17463226562500722},{"name":"A3","midi":57,"time":259.58810549999305,"velocity":0.7637795275590551,"duration":0.17463226562500722},{"name":"E4","midi":64,"time":259.76457599999304,"velocity":0.7637795275590551,"duration":0.27573515624999345},{"name":"G#3","midi":56,"time":259.76457599999304,"velocity":0.7637795275590551,"duration":0.5147056249999764},{"name":"D5","midi":74,"time":259.94104649999304,"velocity":0.7637795275590551,"duration":0.17463226562500722},{"name":"B4","midi":71,"time":260.11751699999303,"velocity":0.7637795275590551,"duration":0.17463226562500722},{"name":"F4","midi":65,"time":260.293987499993,"velocity":0.7637795275590551,"duration":0.17463226562500722},{"name":"E4","midi":64,"time":260.470457999993,"velocity":0.7637795275590551,"duration":0.28492632812498186},{"name":"C5","midi":72,"time":260.646928499993,"velocity":0.7637795275590551,"duration":0.17463226562500722},{"name":"A4","midi":69,"time":260.823398999993,"velocity":0.7637795275590551,"duration":0.17463226562500722},{"name":"F4","midi":65,"time":260.999869499993,"velocity":0.7637795275590551,"duration":0.17463226562500722},{"name":"A3","midi":57,"time":260.999869499993,"velocity":0.7637795275590551,"duration":0.17463226562500722},{"name":"E4","midi":64,"time":261.176339999993,"velocity":0.7637795275590551,"duration":0.2941174999999703},{"name":"G#3","midi":56,"time":261.176339999993,"velocity":0.7637795275590551,"duration":0.17463226562500722},{"name":"B4","midi":71,"time":261.352810499993,"velocity":0.7637795275590551,"duration":0.17463226562495038},{"name":"D4","midi":62,"time":261.352810499993,"velocity":0.7637795275590551,"duration":0.17463226562495038},{"name":"G#4","midi":68,"time":261.5292809999929,"velocity":0.7637795275590551,"duration":0.17463226562500722},{"name":"B3","midi":59,"time":261.5292809999929,"velocity":0.7637795275590551,"duration":0.17463226562500722},{"name":"F4","midi":65,"time":261.7057514999929,"velocity":0.7637795275590551,"duration":0.17463226562500722},{"name":"G#3","midi":56,"time":261.7057514999929,"velocity":0.7637795275590551,"duration":0.17463226562500722},{"name":"E4","midi":64,"time":261.8822219999929,"velocity":0.7637795275590551,"duration":0.7040437656249878},{"name":"A3","midi":57,"time":261.8822219999929,"velocity":0.7637795275590551,"duration":0.17463226562500722},{"name":"C4","midi":60,"time":262.0586924999929,"velocity":0.7637795275590551,"duration":0.17463226562500722},{"name":"A3","midi":57,"time":262.2351629999929,"velocity":0.7637795275590551,"duration":0.17463226562500722},{"name":"E3","midi":52,"time":262.4116334999929,"velocity":0.7637795275590551,"duration":0.17463226562500722},{"name":"C5","midi":72,"time":262.5881039999929,"velocity":0.7637795275590551,"duration":0.08639701562498203},{"name":"G3","midi":55,"time":262.5881039999929,"velocity":0.7637795275590551,"duration":0.08639701562498203},{"name":"D5","midi":74,"time":262.67633924999285,"velocity":0.7637795275590551,"duration":0.08639701562498203},{"name":"F3","midi":53,"time":262.67633924999285,"velocity":0.7637795275590551,"duration":0.08639701562498203},{"name":"E5","midi":76,"time":262.7645744999928,"velocity":0.7637795275590551,"duration":0.08639701562498203},{"name":"G3","midi":55,"time":262.7645744999928,"velocity":0.7637795275590551,"duration":0.08639701562498203},{"name":"D5","midi":74,"time":262.8528097499928,"velocity":0.7637795275590551,"duration":0.08639701562498203},{"name":"F3","midi":53,"time":262.8528097499928,"velocity":0.7637795275590551,"duration":0.08639701562498203},{"name":"E5","midi":76,"time":262.94104499999276,"velocity":0.7637795275590551,"duration":0.08639701562498203},{"name":"G3","midi":55,"time":262.94104499999276,"velocity":0.7637795275590551,"duration":0.08639701562498203},{"name":"D5","midi":74,"time":263.0292802499927,"velocity":0.7637795275590551,"duration":0.08639701562498203},{"name":"F3","midi":53,"time":263.0292802499927,"velocity":0.7637795275590551,"duration":0.08639701562498203},{"name":"E5","midi":76,"time":263.1175154999927,"velocity":0.7637795275590551,"duration":0.08639701562498203},{"name":"E3","midi":52,"time":263.1175154999927,"velocity":0.7637795275590551,"duration":0.08639701562498203},{"name":"D5","midi":74,"time":263.20575074999266,"velocity":0.7637795275590551,"duration":0.08639701562498203},{"name":"F3","midi":53,"time":263.20575074999266,"velocity":0.7637795275590551,"duration":0.08639701562498203},{"name":"E5","midi":76,"time":263.29398599999263,"velocity":0.7637795275590551,"duration":0.08639701562498203},{"name":"G3","midi":55,"time":263.29398599999263,"velocity":0.7637795275590551,"duration":0.08639701562498203},{"name":"D5","midi":74,"time":263.3822212499926,"velocity":0.7637795275590551,"duration":0.08639701562498203},{"name":"F3","midi":53,"time":263.3822212499926,"velocity":0.7637795275590551,"duration":0.08639701562498203},{"name":"E5","midi":76,"time":263.47045649999257,"velocity":0.7637795275590551,"duration":0.08639701562498203},{"name":"G3","midi":55,"time":263.47045649999257,"velocity":0.7637795275590551,"duration":0.08639701562498203},{"name":"D5","midi":74,"time":263.55869174999253,"velocity":0.7637795275590551,"duration":0.08639701562498203},{"name":"F3","midi":53,"time":263.55869174999253,"velocity":0.7637795275590551,"duration":0.08639701562498203},{"name":"E5","midi":76,"time":263.6469269999925,"velocity":0.7637795275590551,"duration":0.08639701562498203},{"name":"G3","midi":55,"time":263.6469269999925,"velocity":0.7637795275590551,"duration":0.08639701562498203},{"name":"D5","midi":74,"time":263.73516224999247,"velocity":0.7637795275590551,"duration":0.08639701562498203},{"name":"F3","midi":53,"time":263.73516224999247,"velocity":0.7637795275590551,"duration":0.08639701562498203},{"name":"C5","midi":72,"time":263.82339749999244,"velocity":0.7637795275590551,"duration":0.08639701562498203},{"name":"G3","midi":55,"time":263.82339749999244,"velocity":0.7637795275590551,"duration":0.08639701562498203},{"name":"D5","midi":74,"time":263.9116327499924,"velocity":0.7637795275590551,"duration":0.08639701562498203},{"name":"F3","midi":53,"time":263.9116327499924,"velocity":0.7637795275590551,"duration":0.08639701562498203},{"name":"E5","midi":76,"time":263.9998679999924,"velocity":0.7637795275590551,"duration":0.8805142656249814},{"name":"E3","midi":52,"time":263.9998679999924,"velocity":0.7637795275590551,"duration":0.17463226562500722},{"name":"G#3","midi":56,"time":264.17633849999237,"velocity":0.7637795275590551,"duration":0.17463226562500722},{"name":"B3","midi":59,"time":264.35280899999236,"velocity":0.7637795275590551,"duration":0.17463226562500722},{"name":"G#3","midi":56,"time":264.52927949999236,"velocity":0.7637795275590551,"duration":0.17463226562500722},{"name":"E3","midi":52,"time":264.70574999999235,"velocity":0.7637795275590551,"duration":1.5073521874999756},{"name":"D5","midi":74,"time":264.88222049999234,"velocity":0.7637795275590551,"duration":0.17463226562500722},{"name":"C5","midi":72,"time":265.05869099999234,"velocity":0.7637795275590551,"duration":0.17463226562500722},{"name":"B4","midi":71,"time":265.23516149999233,"velocity":0.7637795275590551,"duration":0.17463226562500722},{"name":"G#3","midi":56,"time":265.23516149999233,"velocity":0.7637795275590551,"duration":0.17463226562500722},{"name":"C5","midi":72,"time":265.4116319999923,"velocity":0.7637795275590551,"duration":0.17463226562500722},{"name":"A3","midi":57,"time":265.4116319999923,"velocity":0.7637795275590551,"duration":0.5128673906249901},{"name":"E5","midi":76,"time":265.5881024999923,"velocity":0.7637795275590551,"duration":0.17463226562500722},{"name":"C5","midi":72,"time":265.7645729999923,"velocity":0.7637795275590551,"duration":0.17463226562500722},{"name":"A4","midi":69,"time":265.9410434999923,"velocity":0.7637795275590551,"duration":0.17463226562500722},{"name":"C4","midi":60,"time":265.9410434999923,"velocity":0.7637795275590551,"duration":0.17463226562500722},{"name":"G#4","midi":68,"time":266.1175139999923,"velocity":0.7637795275590551,"duration":0.17463226562500722},{"name":"B3","midi":59,"time":266.1175139999923,"velocity":0.7637795275590551,"duration":0.34926453125001444},{"name":"B4","midi":71,"time":266.2939844999923,"velocity":0.7637795275590551,"duration":0.17463226562500722},{"name":"G#3","midi":56,"time":266.2939844999923,"velocity":0.7637795275590551,"duration":0.17463226562500722},{"name":"G#4","midi":68,"time":266.4704549999923,"velocity":0.7637795275590551,"duration":0.17463226562500722},{"name":"B3","midi":59,"time":266.4704549999923,"velocity":0.7637795275590551,"duration":0.34926453125001444},{"name":"E4","midi":64,"time":266.6469254999923,"velocity":0.7637795275590551,"duration":0.17463226562500722},{"name":"G#3","midi":56,"time":266.6469254999923,"velocity":0.7637795275590551,"duration":0.17463226562500722},{"name":"D4","midi":62,"time":266.8233959999923,"velocity":0.7637795275590551,"duration":0.17463226562500722},{"name":"E3","midi":52,"time":266.8233959999923,"velocity":0.7637795275590551,"duration":1.2316170312499821},{"name":"F4","midi":65,"time":266.99986649999227,"velocity":0.7637795275590551,"duration":0.17463226562500722},{"name":"E4","midi":64,"time":267.17633699999226,"velocity":0.7637795275590551,"duration":0.17463226562500722},{"name":"D4","midi":62,"time":267.35280749999225,"velocity":0.7637795275590551,"duration":0.17463226562500722},{"name":"G#3","midi":56,"time":267.35280749999225,"velocity":0.7637795275590551,"duration":0.17463226562500722},{"name":"C4","midi":60,"time":267.52927799999225,"velocity":0.7637795275590551,"duration":0.17463226562500722},{"name":"A3","midi":57,"time":267.52927799999225,"velocity":0.7637795275590551,"duration":0.5128673906249901},{"name":"E4","midi":64,"time":267.70574849999224,"velocity":0.7637795275590551,"duration":0.17463226562500722},{"name":"C4","midi":60,"time":267.88221899999223,"velocity":0.7637795275590551,"duration":0.17463226562500722},{"name":"A3","midi":57,"time":268.0586894999922,"velocity":0.7637795275590551,"duration":0.17463226562500722},{"name":"F#3","midi":54,"time":268.0586894999922,"velocity":0.7637795275590551,"duration":0.17463226562500722},{"name":"G#3","midi":56,"time":268.2351599999922,"velocity":0.7637795275590551,"duration":1.2316170312499821},{"name":"E3","midi":52,"time":268.2351599999922,"velocity":0.7637795275590551,"duration":1.409925765624962},{"name":"B3","midi":59,"time":268.4116304999922,"velocity":0.7637795275590551,"duration":1.056984765624975},{"name":"E4","midi":64,"time":268.5881009999922,"velocity":0.7637795275590551,"duration":0.8823524999999677},{"name":"E2","midi":40,"time":268.9410419999922,"velocity":0.7637795275590551,"duration":0.8823524999999677},{"name":"B4","midi":71,"time":269.82339449999216,"velocity":0.7637795275590551,"duration":0.17463226562500722},{"name":"C5","midi":72,"time":269.99986499999216,"velocity":0.7637795275590551,"duration":0.17463226562500722},{"name":"A4","midi":69,"time":270.17633549999215,"velocity":0.7637795275590551,"duration":0.17463226562500722},{"name":"G#4","midi":68,"time":270.35280599999214,"velocity":0.7637795275590551,"duration":0.47794093750002276},{"name":"E2","midi":40,"time":270.35280599999214,"velocity":0.7637795275590551,"duration":0.5147056250000333},{"name":"E4","midi":64,"time":270.8822174999922,"velocity":0.7637795275590551,"duration":0.17463226562500722},{"name":"B4","midi":71,"time":271.0586879999922,"velocity":0.7637795275590551,"duration":0.47794093750002276},{"name":"E3","midi":52,"time":271.0586879999922,"velocity":0.7637795275590551,"duration":0.5147056250000333},{"name":"D4","midi":62,"time":271.5880994999922,"velocity":0.7637795275590551,"duration":0.17463226562500722},{"name":"E4","midi":64,"time":271.7645699999922,"velocity":0.7637795275590551,"duration":0.47794093750002276},{"name":"G#3","midi":56,"time":271.7645699999922,"velocity":0.7637795275590551,"duration":0.5147056250000333},{"name":"B3","midi":59,"time":272.29398149999224,"velocity":0.7637795275590551,"duration":0.17463226562500722},{"name":"C4","midi":60,"time":272.47045199999224,"velocity":0.7637795275590551,"duration":0.17463226562500722},{"name":"E4","midi":64,"time":272.64692249999223,"velocity":0.7637795275590551,"duration":0.17463226562500722},{"name":"G#3","midi":56,"time":272.64692249999223,"velocity":0.7637795275590551,"duration":0.17463226562500722},{"name":"F4","midi":65,"time":272.8233929999922,"velocity":0.7637795275590551,"duration":0.17463226562500722},{"name":"A3","midi":57,"time":272.8233929999922,"velocity":0.7637795275590551,"duration":0.17463226562500722},{"name":"D4","midi":62,"time":272.9998634999922,"velocity":0.7637795275590551,"duration":0.17463226562500722},{"name":"B3","midi":59,"time":272.9998634999922,"velocity":0.7637795275590551,"duration":0.17463226562500722},{"name":"E4","midi":64,"time":273.1763339999922,"velocity":0.7637795275590551,"duration":0.5128673906249901},{"name":"C4","midi":60,"time":273.1763339999922,"velocity":0.7637795275590551,"duration":0.17463226562500722},{"name":"E3","midi":52,"time":273.3528044999922,"velocity":0.7637795275590551,"duration":0.17463226562500722},{"name":"D3","midi":50,"time":273.5292749999922,"velocity":0.7637795275590551,"duration":0.17463226562500722},{"name":"A4","midi":69,"time":273.7057454999922,"velocity":0.7637795275590551,"duration":0.17463226562500722},{"name":"C3","midi":48,"time":273.7057454999922,"velocity":0.7637795275590551,"duration":0.17463226562500722},{"name":"G#4","midi":68,"time":273.8822159999922,"velocity":0.7637795275590551,"duration":0.5128673906249901},{"name":"B2","midi":47,"time":273.8822159999922,"velocity":0.7637795275590551,"duration":0.17463226562500722},{"name":"D3","midi":50,"time":274.0586864999922,"velocity":0.7637795275590551,"duration":0.17463226562500722},{"name":"C3","midi":48,"time":274.23515699999217,"velocity":0.7637795275590551,"duration":0.17463226562500722},{"name":"D5","midi":74,"time":274.41162749999216,"velocity":0.7637795275590551,"duration":0.17463226562500722},{"name":"B2","midi":47,"time":274.41162749999216,"velocity":0.7637795275590551,"duration":0.17463226562500722},{"name":"C5","midi":72,"time":274.58809799999216,"velocity":0.7637795275590551,"duration":0.17463226562500722},{"name":"A2","midi":45,"time":274.58809799999216,"velocity":0.7637795275590551,"duration":0.5128673906249901},{"name":"E5","midi":76,"time":274.76456849999215,"velocity":0.7637795275590551,"duration":0.17463226562500722},{"name":"A5","midi":81,"time":274.94103899999214,"velocity":0.7637795275590551,"duration":0.17463226562500722},{"name":"G5","midi":79,"time":275.11750949999214,"velocity":0.7637795275590551,"duration":0.17463226562500722},{"name":"C3","midi":48,"time":275.11750949999214,"velocity":0.7637795275590551,"duration":0.17463226562500722},{"name":"F5","midi":77,"time":275.29397999999213,"velocity":0.7637795275590551,"duration":0.17463226562500722},{"name":"D3","midi":50,"time":275.29397999999213,"velocity":0.7637795275590551,"duration":0.5128673906249901},{"name":"E5","midi":76,"time":275.4704504999921,"velocity":0.7637795275590551,"duration":0.17463226562500722},{"name":"D5","midi":74,"time":275.6469209999921,"velocity":0.7637795275590551,"duration":0.17463226562500722},{"name":"C5","midi":72,"time":275.8233914999921,"velocity":0.7637795275590551,"duration":0.17463226562500722},{"name":"F3","midi":53,"time":275.8233914999921,"velocity":0.7637795275590551,"duration":0.17463226562500722},{"name":"B4","midi":71,"time":275.9998619999921,"velocity":0.7637795275590551,"duration":0.17463226562500722},{"name":"G#3","midi":56,"time":275.9998619999921,"velocity":0.7637795275590551,"duration":0.5128673906249901},{"name":"A4","midi":69,"time":276.1763324999921,"velocity":0.7637795275590551,"duration":0.17463226562500722},{"name":"G#4","midi":68,"time":276.3528029999921,"velocity":0.7637795275590551,"duration":0.17463226562500722},{"name":"F#4","midi":66,"time":276.5292734999921,"velocity":0.7637795275590551,"duration":0.17463226562500722},{"name":"B3","midi":59,"time":276.5292734999921,"velocity":0.7637795275590551,"duration":0.17463226562500722},{"name":"E4","midi":64,"time":276.7057439999921,"velocity":0.7637795275590551,"duration":0.34926453125001444},{"name":"D5","midi":74,"time":276.8822144999921,"velocity":0.7637795275590551,"duration":0.17463226562500722},{"name":"E3","midi":52,"time":276.8822144999921,"velocity":0.7637795275590551,"duration":0.17463226562500722},{"name":"C5","midi":72,"time":277.05868499999207,"velocity":0.7637795275590551,"duration":0.17463226562500722},{"name":"F#3","midi":54,"time":277.05868499999207,"velocity":0.7637795275590551,"duration":0.17463226562500722},{"name":"B4","midi":71,"time":277.23515549999206,"velocity":0.7637795275590551,"duration":0.17463226562500722},{"name":"G#3","midi":56,"time":277.23515549999206,"velocity":0.7637795275590551,"duration":0.17463226562500722},{"name":"C5","midi":72,"time":277.41162599999205,"velocity":0.7637795275590551,"duration":0.08639701562498203},{"name":"A3","midi":57,"time":277.41162599999205,"velocity":0.7637795275590551,"duration":0.17463226562495038},{"name":"B4","midi":71,"time":277.499861249992,"velocity":0.7637795275590551,"duration":0.08639701562498203},{"name":"C5","midi":72,"time":277.588096499992,"velocity":0.7637795275590551,"duration":1.409925765624962},{"name":"C4","midi":60,"time":277.588096499992,"velocity":0.7637795275590551,"duration":0.17463226562500722},{"name":"E4","midi":64,"time":277.764566999992,"velocity":0.7637795275590551,"duration":0.17463226562500722},{"name":"C4","midi":60,"time":277.941037499992,"velocity":0.7637795275590551,"duration":0.17463226562500722},{"name":"A3","midi":57,"time":278.117507999992,"velocity":0.7637795275590551,"duration":0.17463226562500722},{"name":"C4","midi":60,"time":278.29397849999197,"velocity":0.7637795275590551,"duration":0.17463226562500722},{"name":"G3","midi":55,"time":278.47044899999196,"velocity":0.7637795275590551,"duration":0.17463226562500722},{"name":"C4","midi":60,"time":278.64691949999195,"velocity":0.7637795275590551,"duration":0.17463226562500722},{"name":"F3","midi":53,"time":278.82338999999195,"velocity":0.7637795275590551,"duration":0.8088231249999467},{"name":"B4","midi":71,"time":278.99986049999194,"velocity":0.7637795275590551,"duration":0.17463226562500722},{"name":"A4","midi":69,"time":279.17633099999193,"velocity":0.7637795275590551,"duration":0.17463226562500722},{"name":"G4","midi":67,"time":279.3528014999919,"velocity":0.7637795275590551,"duration":0.17463226562500722},{"name":"A4","midi":69,"time":279.5292719999919,"velocity":0.7637795275590551,"duration":0.17463226562495038},{"name":"F4","midi":65,"time":279.70574249999186,"velocity":0.7637795275590551,"duration":0.17463226562500722},{"name":"E3","midi":52,"time":279.70574249999186,"velocity":0.7637795275590551,"duration":0.17463226562500722},{"name":"A4","midi":69,"time":279.88221299999185,"velocity":0.7637795275590551,"duration":0.17463226562500722},{"name":"D3","midi":50,"time":279.88221299999185,"velocity":0.7637795275590551,"duration":0.17463226562500722},{"name":"C5","midi":72,"time":280.05868349999184,"velocity":0.7637795275590551,"duration":0.17463226562500722},{"name":"C3","midi":48,"time":280.05868349999184,"velocity":0.7637795275590551,"duration":0.17463226562500722},{"name":"F5","midi":77,"time":280.23515399999184,"velocity":0.7637795275590551,"duration":0.17463226562500722},{"name":"D3","midi":50,"time":280.23515399999184,"velocity":0.7637795275590551,"duration":0.5128673906249901},{"name":"E5","midi":76,"time":280.41162449999183,"velocity":0.7637795275590551,"duration":0.17463226562500722},{"name":"D5","midi":74,"time":280.5880949999918,"velocity":0.7637795275590551,"duration":0.17463226562500722},{"name":"C5","midi":72,"time":280.7645654999918,"velocity":0.7637795275590551,"duration":0.17463226562500722},{"name":"F3","midi":53,"time":280.7645654999918,"velocity":0.7637795275590551,"duration":0.17463226562500722},{"name":"D5","midi":74,"time":280.9410359999918,"velocity":0.7637795275590551,"duration":0.17463226562500722},{"name":"B2","midi":47,"time":280.9410359999918,"velocity":0.7637795275590551,"duration":0.4779409374999659},{"name":"C5","midi":72,"time":281.1175064999918,"velocity":0.7637795275590551,"duration":0.17463226562500722},{"name":"B4","midi":71,"time":281.2939769999918,"velocity":0.7637795275590551,"duration":0.17463226562500722},{"name":"A4","midi":69,"time":281.4704474999918,"velocity":0.7637795275590551,"duration":0.17463226562500722},{"name":"D3","midi":50,"time":281.4704474999918,"velocity":0.7637795275590551,"duration":0.17463226562500722},{"name":"B4","midi":71,"time":281.6469179999918,"velocity":0.7637795275590551,"duration":0.17463226562500722},{"name":"G3","midi":55,"time":281.6469179999918,"velocity":0.7637795275590551,"duration":0.4779409374999659},{"name":"G4","midi":67,"time":281.8233884999918,"velocity":0.7637795275590551,"duration":0.17463226562500722},{"name":"B4","midi":71,"time":281.9998589999918,"velocity":0.7637795275590551,"duration":0.17463226562500722},{"name":"D5","midi":74,"time":282.17632949999177,"velocity":0.7637795275590551,"duration":0.17463226562500722},{"name":"F3","midi":53,"time":282.17632949999177,"velocity":0.7637795275590551,"duration":0.17463226562500722},{"name":"G5","midi":79,"time":282.35279999999176,"velocity":0.7637795275590551,"duration":0.17463226562500722},{"name":"E3","midi":52,"time":282.35279999999176,"velocity":0.7637795275590551,"duration":0.4963232812499996},{"name":"F5","midi":77,"time":282.52927049999175,"velocity":0.7637795275590551,"duration":0.17463226562500722},{"name":"E5","midi":76,"time":282.70574099999175,"velocity":0.7637795275590551,"duration":0.17463226562500722},{"name":"D5","midi":74,"time":282.88221149999174,"velocity":0.7637795275590551,"duration":0.17463226562500722},{"name":"G3","midi":55,"time":282.88221149999174,"velocity":0.7637795275590551,"duration":0.17463226562500722},{"name":"E5","midi":76,"time":283.05868199999173,"velocity":0.7637795275590551,"duration":0.17463226562500722},{"name":"C3","midi":48,"time":283.05868199999173,"velocity":0.7637795275590551,"duration":0.4963232812499996},{"name":"D5","midi":74,"time":283.2351524999917,"velocity":0.7637795275590551,"duration":0.17463226562500722},{"name":"C5","midi":72,"time":283.4116229999917,"velocity":0.7637795275590551,"duration":0.17463226562500722},{"name":"B4","midi":71,"time":283.5880934999917,"velocity":0.7637795275590551,"duration":0.17463226562500722},{"name":"E3","midi":52,"time":283.5880934999917,"velocity":0.7637795275590551,"duration":0.17463226562500722},{"name":"C5","midi":72,"time":283.7645639999917,"velocity":0.7637795275590551,"duration":0.17463226562500722},{"name":"A3","midi":57,"time":283.7645639999917,"velocity":0.7637795275590551,"duration":0.4963232812499996},{"name":"A4","midi":69,"time":283.9410344999917,"velocity":0.7637795275590551,"duration":0.17463226562500722},{"name":"C5","midi":72,"time":284.1175049999917,"velocity":0.7637795275590551,"duration":0.17463226562500722},{"name":"E5","midi":76,"time":284.2939754999917,"velocity":0.7637795275590551,"duration":0.17463226562500722},{"name":"G3","midi":55,"time":284.2939754999917,"velocity":0.7637795275590551,"duration":0.17463226562500722},{"name":"A5","midi":81,"time":284.4704459999917,"velocity":0.7637795275590551,"duration":0.17463226562500722},{"name":"F3","midi":53,"time":284.4704459999917,"velocity":0.7637795275590551,"duration":0.4963232812499996},{"name":"G5","midi":79,"time":284.6469164999917,"velocity":0.7637795275590551,"duration":0.17463226562500722},{"name":"F5","midi":77,"time":284.82338699999167,"velocity":0.7637795275590551,"duration":0.17463226562500722},{"name":"E5","midi":76,"time":284.99985749999166,"velocity":0.7637795275590551,"duration":0.17463226562500722},{"name":"A3","midi":57,"time":284.99985749999166,"velocity":0.7637795275590551,"duration":0.17463226562500722},{"name":"D5","midi":74,"time":285.17632799999166,"velocity":0.7637795275590551,"duration":0.17463226562500722},{"name":"B2","midi":47,"time":285.17632799999166,"velocity":0.7637795275590551,"duration":0.17463226562500722},{"name":"C5","midi":72,"time":285.35279849999165,"velocity":0.7637795275590551,"duration":0.17463226562500722},{"name":"E4","midi":64,"time":285.35279849999165,"velocity":0.7637795275590551,"duration":0.17463226562500722},{"name":"B4","midi":71,"time":285.52926899999164,"velocity":0.7637795275590551,"duration":0.17463226562500722},{"name":"D4","midi":62,"time":285.52926899999164,"velocity":0.7637795275590551,"duration":0.17463226562500722},{"name":"A4","midi":69,"time":285.70573949999164,"velocity":0.7637795275590551,"duration":0.17463226562500722},{"name":"C4","midi":60,"time":285.70573949999164,"velocity":0.7637795275590551,"duration":0.17463226562500722},{"name":"G4","midi":67,"time":285.88220999999163,"velocity":0.7637795275590551,"duration":0.17463226562500722},{"name":"B3","midi":59,"time":285.88220999999163,"velocity":0.7637795275590551,"duration":0.17463226562500722},{"name":"B4","midi":71,"time":286.0586804999916,"velocity":0.7637795275590551,"duration":0.17463226562500722},{"name":"D4","midi":62,"time":286.0586804999916,"velocity":0.7637795275590551,"duration":0.17463226562500722},{"name":"C5","midi":72,"time":286.2351509999916,"velocity":0.7637795275590551,"duration":0.17463226562500722},{"name":"E4","midi":64,"time":286.2351509999916,"velocity":0.7637795275590551,"duration":0.17463226562500722},{"name":"D5","midi":74,"time":286.4116214999916,"velocity":0.7637795275590551,"duration":0.17463226562500722},{"name":"F4","midi":65,"time":286.4116214999916,"velocity":0.7637795275590551,"duration":0.2573528125000166},{"name":"C5","midi":72,"time":286.5880919999916,"velocity":0.7637795275590551,"duration":0.17463226562500722},{"name":"G3","midi":55,"time":286.5880919999916,"velocity":0.7637795275590551,"duration":0.17463226562500722},{"name":"B4","midi":71,"time":286.7645624999916,"velocity":0.7637795275590551,"duration":0.17463226562500722},{"name":"D4","midi":62,"time":286.7645624999916,"velocity":0.7637795275590551,"duration":0.17463226562500722},{"name":"A4","midi":69,"time":286.9410329999916,"velocity":0.7637795275590551,"duration":0.17463226562500722},{"name":"C4","midi":60,"time":286.9410329999916,"velocity":0.7637795275590551,"duration":0.17463226562500722},{"name":"G4","midi":67,"time":287.1175034999916,"velocity":0.7637795275590551,"duration":0.17463226562500722},{"name":"B3","midi":59,"time":287.1175034999916,"velocity":0.7637795275590551,"duration":0.17463226562500722},{"name":"C5","midi":72,"time":287.2939739999916,"velocity":0.7637795275590551,"duration":0.5128673906249901},{"name":"E4","midi":64,"time":287.2939739999916,"velocity":0.7637795275590551,"duration":0.44117625000001226},{"name":"F4","midi":65,"time":287.82338549999156,"velocity":0.7637795275590551,"duration":0.17463226562500722},{"name":"A2","midi":45,"time":287.82338549999156,"velocity":0.7637795275590551,"duration":0.17463226562500722},{"name":"G4","midi":67,"time":287.99985599999155,"velocity":0.7637795275590551,"duration":0.17463226562500722},{"name":"A3","midi":57,"time":287.99985599999155,"velocity":0.7637795275590551,"duration":0.698529062499972},{"name":"F4","midi":65,"time":288.17632649999155,"velocity":0.7637795275590551,"duration":0.17463226562500722},{"name":"E4","midi":64,"time":288.35279699999154,"velocity":0.7637795275590551,"duration":0.17463226562500722},{"name":"F4","midi":65,"time":288.52926749999153,"velocity":0.7637795275590551,"duration":0.17463226562500722},{"name":"A2","midi":45,"time":288.52926749999153,"velocity":0.7637795275590551,"duration":0.17463226562500722},{"name":"G4","midi":67,"time":288.7057379999915,"velocity":0.7637795275590551,"duration":0.17463226562500722},{"name":"A3","midi":57,"time":288.7057379999915,"velocity":0.7637795275590551,"duration":0.8088231249999467},{"name":"F4","midi":65,"time":288.8822084999915,"velocity":0.7637795275590551,"duration":0.17463226562500722},{"name":"E4","midi":64,"time":289.0586789999915,"velocity":0.7637795275590551,"duration":0.17463226562500722},{"name":"F4","midi":65,"time":289.2351494999915,"velocity":0.7637795275590551,"duration":0.17463226562500722},{"name":"B4","midi":71,"time":289.4116199999915,"velocity":0.7637795275590551,"duration":0.4779409374999659},{"name":"F3","midi":53,"time":289.5880904999915,"velocity":0.7637795275590551,"duration":0.17463226562500722},{"name":"G3","midi":55,"time":289.7645609999915,"velocity":0.7637795275590551,"duration":0.17463226562500722},{"name":"D4","midi":62,"time":289.9410314999915,"velocity":0.7637795275590551,"duration":0.17463226562500722},{"name":"A3","midi":57,"time":289.9410314999915,"velocity":0.7637795275590551,"duration":0.17463226562500722},{"name":"E4","midi":64,"time":290.1175019999915,"velocity":0.7637795275590551,"duration":0.08639701562498203},{"name":"G3","midi":55,"time":290.1175019999915,"velocity":0.7637795275590551,"duration":0.17463226562495038},{"name":"D4","midi":62,"time":290.20573724999144,"velocity":0.7637795275590551,"duration":0.08639701562498203},{"name":"E4","midi":64,"time":290.2939724999914,"velocity":0.7637795275590551,"duration":1.409925765624962},{"name":"F3","midi":53,"time":290.2939724999914,"velocity":0.7637795275590551,"duration":0.17463226562500722},{"name":"E3","midi":52,"time":290.4704429999914,"velocity":0.7637795275590551,"duration":0.17463226562500722},{"name":"D3","midi":50,"time":290.6469134999914,"velocity":0.7637795275590551,"duration":0.17463226562500722},{"name":"C3","midi":48,"time":290.8233839999914,"velocity":0.7637795275590551,"duration":0.17463226562500722},{"name":"B2","midi":47,"time":290.9998544999914,"velocity":0.7637795275590551,"duration":0.17463226562500722},{"name":"A2","midi":45,"time":291.1763249999914,"velocity":0.7637795275590551,"duration":0.17463226562500722},{"name":"G2","midi":43,"time":291.3527954999914,"velocity":0.7637795275590551,"duration":0.17463226562500722},{"name":"F2","midi":41,"time":291.52926599999137,"velocity":0.7637795275590551,"duration":0.17463226562500722},{"name":"A2","midi":45,"time":291.70573649999136,"velocity":0.7637795275590551,"duration":0.17463226562500722},{"name":"G2","midi":43,"time":291.88220699999135,"velocity":0.7637795275590551,"duration":0.17463226562500722},{"name":"D4","midi":62,"time":292.05867749999135,"velocity":0.7637795275590551,"duration":0.17463226562500722},{"name":"F2","midi":41,"time":292.05867749999135,"velocity":0.7637795275590551,"duration":0.17463226562500722},{"name":"E4","midi":64,"time":292.23514799999134,"velocity":0.7637795275590551,"duration":0.17463226562500722},{"name":"F3","midi":53,"time":292.23514799999134,"velocity":0.7637795275590551,"duration":0.698529062499972},{"name":"D4","midi":62,"time":292.41161849999133,"velocity":0.7637795275590551,"duration":0.17463226562500722},{"name":"C4","midi":60,"time":292.5880889999913,"velocity":0.7637795275590551,"duration":0.17463226562500722},{"name":"D4","midi":62,"time":292.7645594999913,"velocity":0.7637795275590551,"duration":0.17463226562500722},{"name":"F2","midi":41,"time":292.7645594999913,"velocity":0.7637795275590551,"duration":0.17463226562500722},{"name":"E4","midi":64,"time":292.9410299999913,"velocity":0.7637795275590551,"duration":0.17463226562500722},{"name":"F3","midi":53,"time":292.9410299999913,"velocity":0.7637795275590551,"duration":0.8676466249999635},{"name":"D4","midi":62,"time":293.1175004999913,"velocity":0.7637795275590551,"duration":0.17463226562500722},{"name":"C4","midi":60,"time":293.2939709999913,"velocity":0.7637795275590551,"duration":0.17463226562500722},{"name":"D4","midi":62,"time":293.4704414999913,"velocity":0.7637795275590551,"duration":0.17463226562500722},{"name":"G4","midi":67,"time":293.6469119999913,"velocity":0.7637795275590551,"duration":0.4963232812499996},{"name":"D3","midi":50,"time":293.8233824999913,"velocity":0.7637795275590551,"duration":0.17463226562500722},{"name":"E3","midi":52,"time":293.9998529999913,"velocity":0.7637795275590551,"duration":0.17463226562500722},{"name":"B3","midi":59,"time":294.17632349999127,"velocity":0.7637795275590551,"duration":0.17463226562500722},{"name":"F3","midi":53,"time":294.17632349999127,"velocity":0.7637795275590551,"duration":0.17463226562500722},{"name":"C4","midi":60,"time":294.35279399999126,"velocity":0.7637795275590551,"duration":0.08639701562498203},{"name":"E3","midi":52,"time":294.35279399999126,"velocity":0.7637795275590551,"duration":0.17463226562495038},{"name":"B3","midi":59,"time":294.44102924999123,"velocity":0.7637795275590551,"duration":0.08639701562498203},{"name":"C4","midi":60,"time":294.5292644999912,"velocity":0.7637795275590551,"duration":1.3602934374999336},{"name":"D3","midi":50,"time":294.5292644999912,"velocity":0.7637795275590551,"duration":0.17463226562500722},{"name":"C3","midi":48,"time":294.7057349999912,"velocity":0.7637795275590551,"duration":0.17463226562500722},{"name":"B2","midi":47,"time":294.8822054999912,"velocity":0.7637795275590551,"duration":0.17463226562500722},{"name":"A2","midi":45,"time":295.0586759999912,"velocity":0.7637795275590551,"duration":0.17463226562500722},{"name":"G2","midi":43,"time":295.2351464999912,"velocity":0.7637795275590551,"duration":0.17463226562500722},{"name":"F2","midi":41,"time":295.41161699999117,"velocity":0.7637795275590551,"duration":0.17463226562500722},{"name":"E2","midi":40,"time":295.58808749999116,"velocity":0.7637795275590551,"duration":0.17463226562500722},{"name":"D2","midi":38,"time":295.76455799999115,"velocity":0.7637795275590551,"duration":0.44117625000001226},{"name":"F4","midi":65,"time":295.94102849999115,"velocity":0.7637795275590551,"duration":0.17463226562500722},{"name":"G4","midi":67,"time":296.11749899999114,"velocity":0.7637795275590551,"duration":0.17463226562500722},{"name":"A4","midi":69,"time":296.29396949999114,"velocity":0.7637795275590551,"duration":0.17463226562500722},{"name":"B2","midi":47,"time":296.29396949999114,"velocity":0.7637795275590551,"duration":0.17463226562500722},{"name":"G4","midi":67,"time":296.47043999999113,"velocity":0.7637795275590551,"duration":0.17463226562500722},{"name":"C3","midi":48,"time":296.47043999999113,"velocity":0.7637795275590551,"duration":0.5220585624999785},{"name":"F4","midi":65,"time":296.6469104999911,"velocity":0.7637795275590551,"duration":0.17463226562500722},{"name":"E4","midi":64,"time":296.8233809999911,"velocity":0.7637795275590551,"duration":0.17463226562500722},{"name":"D4","midi":62,"time":296.9998514999911,"velocity":0.7637795275590551,"duration":0.17463226562500722},{"name":"G2","midi":43,"time":296.9998514999911,"velocity":0.7637795275590551,"duration":0.17463226562500722},{"name":"C4","midi":60,"time":297.1763219999911,"velocity":0.7637795275590551,"duration":0.17463226562500722},{"name":"A2","midi":45,"time":297.1763219999911,"velocity":0.7637795275590551,"duration":0.5220585624999785},{"name":"B3","midi":59,"time":297.3527924999911,"velocity":0.7637795275590551,"duration":0.17463226562500722},{"name":"C4","midi":60,"time":297.5292629999911,"velocity":0.7637795275590551,"duration":0.17463226562500722},{"name":"D4","midi":62,"time":297.7057334999911,"velocity":0.7637795275590551,"duration":0.17463226562500722},{"name":"F2","midi":41,"time":297.7057334999911,"velocity":0.7637795275590551,"duration":0.17463226562500722},{"name":"G3","midi":55,"time":297.8822039999911,"velocity":0.7637795275590551,"duration":0.5128673906249901},{"name":"G2","midi":43,"time":297.8822039999911,"velocity":0.7637795275590551,"duration":0.17463226562500722},{"name":"F3","midi":53,"time":298.05867449999107,"velocity":0.7637795275590551,"duration":0.17463226562500722},{"name":"E3","midi":52,"time":298.23514499999106,"velocity":0.7637795275590551,"duration":0.17463226562500722},{"name":"B3","midi":59,"time":298.41161549999106,"velocity":0.7637795275590551,"duration":0.17463226562500722},{"name":"D3","midi":50,"time":298.41161549999106,"velocity":0.7637795275590551,"duration":0.17463226562500722},{"name":"C4","midi":60,"time":298.58808599999105,"velocity":0.7637795275590551,"duration":0.5128673906249901},{"name":"G2","midi":43,"time":298.58808599999105,"velocity":0.7637795275590551,"duration":0.17463226562500722},{"name":"E3","midi":52,"time":298.76455649999104,"velocity":0.7637795275590551,"duration":0.17463226562500722},{"name":"D3","midi":50,"time":298.94102699999104,"velocity":0.7637795275590551,"duration":0.17463226562500722},{"name":"G3","midi":55,"time":299.11749749999103,"velocity":0.7637795275590551,"duration":0.24816164062497137},{"name":"C3","midi":48,"time":299.11749749999103,"velocity":0.7637795275590551,"duration":0.17463226562500722},{"name":"D4","midi":62,"time":299.293967999991,"velocity":0.7637795275590551,"duration":0.5128673906249333},{"name":"G2","midi":43,"time":299.293967999991,"velocity":0.7637795275590551,"duration":0.17463226562495038},{"name":"D3","midi":50,"time":299.47043849999096,"velocity":0.7637795275590551,"duration":0.17463226562500722},{"name":"C3","midi":48,"time":299.64690899999096,"velocity":0.7637795275590551,"duration":0.17463226562500722},{"name":"G3","midi":55,"time":299.82337949999095,"velocity":0.7637795275590551,"duration":0.2573528125000166},{"name":"B2","midi":47,"time":299.82337949999095,"velocity":0.7637795275590551,"duration":0.17463226562500722},{"name":"E4","midi":64,"time":299.99984999999094,"velocity":0.7637795275590551,"duration":0.5128673906249901},{"name":"G2","midi":43,"time":299.99984999999094,"velocity":0.7637795275590551,"duration":0.17463226562500722},{"name":"C3","midi":48,"time":300.17632049999094,"velocity":0.7637795275590551,"duration":0.17463226562500722},{"name":"B2","midi":47,"time":300.35279099999093,"velocity":0.7637795275590551,"duration":0.17463226562500722},{"name":"G3","midi":55,"time":300.5292614999909,"velocity":0.7637795275590551,"duration":0.26654398437500504},{"name":"A2","midi":45,"time":300.5292614999909,"velocity":0.7637795275590551,"duration":0.17463226562500722},{"name":"D4","midi":62,"time":300.7057319999909,"velocity":0.7637795275590551,"duration":0.5128673906249901},{"name":"B2","midi":47,"time":300.7057319999909,"velocity":0.7637795275590551,"duration":0.17463226562500722},{"name":"G2","midi":43,"time":300.8822024999909,"velocity":0.7637795275590551,"duration":0.17463226562500722},{"name":"A2","midi":45,"time":301.0586729999909,"velocity":0.7637795275590551,"duration":0.17463226562500722},{"name":"G3","midi":55,"time":301.2351434999909,"velocity":0.7637795275590551,"duration":0.27573515624999345},{"name":"B2","midi":47,"time":301.2351434999909,"velocity":0.7637795275590551,"duration":0.17463226562500722},{"name":"E4","midi":64,"time":301.4116139999909,"velocity":0.7637795275590551,"duration":0.5128673906249901},{"name":"C3","midi":48,"time":301.4116139999909,"velocity":0.7637795275590551,"duration":0.17463226562500722},{"name":"G2","midi":43,"time":301.5880844999909,"velocity":0.7637795275590551,"duration":0.17463226562500722},{"name":"B2","midi":47,"time":301.7645549999909,"velocity":0.7637795275590551,"duration":0.17463226562500722},{"name":"G3","midi":55,"time":301.9410254999909,"velocity":0.7637795275590551,"duration":0.28492632812498186},{"name":"C3","midi":48,"time":301.9410254999909,"velocity":0.7637795275590551,"duration":0.17463226562500722},{"name":"F4","midi":65,"time":302.11749599999087,"velocity":0.7637795275590551,"duration":0.5128673906249901},{"name":"D3","midi":50,"time":302.11749599999087,"velocity":0.7637795275590551,"duration":0.17463226562500722},{"name":"G2","midi":43,"time":302.29396649999086,"velocity":0.7637795275590551,"duration":0.17463226562500722},{"name":"A2","midi":45,"time":302.47043699999085,"velocity":0.7637795275590551,"duration":0.17463226562500722},{"name":"G3","midi":55,"time":302.64690749999085,"velocity":0.7637795275590551,"duration":0.2941174999999703},{"name":"B2","midi":47,"time":302.64690749999085,"velocity":0.7637795275590551,"duration":0.17463226562500722},{"name":"E4","midi":64,"time":302.82337799999084,"velocity":0.7637795275590551,"duration":0.5128673906249333},{"name":"C3","midi":48,"time":302.82337799999084,"velocity":0.7637795275590551,"duration":0.17463226562495038},{"name":"E3","midi":52,"time":302.9998484999908,"velocity":0.7637795275590551,"duration":0.17463226562500722},{"name":"D3","midi":50,"time":303.17631899999077,"velocity":0.7637795275590551,"duration":0.17463226562500722},{"name":"G3","midi":55,"time":303.35278949999076,"velocity":0.7637795275590551,"duration":0.30330867187501553},{"name":"C3","midi":48,"time":303.35278949999076,"velocity":0.7637795275590551,"duration":0.17463226562500722},{"name":"F4","midi":65,"time":303.52925999999076,"velocity":0.7637795275590551,"duration":0.5128673906249901},{"name":"B2","midi":47,"time":303.52925999999076,"velocity":0.7637795275590551,"duration":0.17463226562500722},{"name":"A2","midi":45,"time":303.70573049999075,"velocity":0.7637795275590551,"duration":0.17463226562500722},{"name":"G2","midi":43,"time":303.88220099999074,"velocity":0.7637795275590551,"duration":0.17463226562500722},{"name":"G3","midi":55,"time":304.05867149999074,"velocity":0.7637795275590551,"duration":0.1654410937500188},{"name":"F2","midi":41,"time":304.05867149999074,"velocity":0.7637795275590551,"duration":0.17463226562500722},{"name":"G4","midi":67,"time":304.23514199999073,"velocity":0.7637795275590551,"duration":0.17463226562500722},{"name":"E2","midi":40,"time":304.23514199999073,"velocity":0.7637795275590551,"duration":0.5128673906249901},{"name":"E4","midi":64,"time":304.4116124999907,"velocity":0.7637795275590551,"duration":0.17463226562500722},{"name":"F4","midi":65,"time":304.5880829999907,"velocity":0.7637795275590551,"duration":0.17463226562500722},{"name":"G4","midi":67,"time":304.7645534999907,"velocity":0.7637795275590551,"duration":0.17463226562500722},{"name":"E3","midi":52,"time":304.7645534999907,"velocity":0.7637795275590551,"duration":0.17463226562500722},{"name":"A4","midi":69,"time":304.9410239999907,"velocity":0.7637795275590551,"duration":0.17463226562500722},{"name":"F3","midi":53,"time":304.9410239999907,"velocity":0.7637795275590551,"duration":0.5128673906249901},{"name":"F4","midi":65,"time":305.1174944999907,"velocity":0.7637795275590551,"duration":0.17463226562500722},{"name":"E4","midi":64,"time":305.2939649999907,"velocity":0.7637795275590551,"duration":0.17463226562500722},{"name":"D4","midi":62,"time":305.4704354999907,"velocity":0.7637795275590551,"duration":0.17463226562500722},{"name":"F2","midi":41,"time":305.4704354999907,"velocity":0.7637795275590551,"duration":0.17463226562500722},{"name":"D5","midi":74,"time":305.6469059999907,"velocity":0.7637795275590551,"duration":0.17463226562500722},{"name":"G2","midi":43,"time":305.6469059999907,"velocity":0.7637795275590551,"duration":0.5128673906249901},{"name":"B4","midi":71,"time":305.8233764999907,"velocity":0.7637795275590551,"duration":0.17463226562500722},{"name":"C5","midi":72,"time":305.99984699999067,"velocity":0.7637795275590551,"duration":0.17463226562500722},{"name":"D5","midi":74,"time":306.17631749999066,"velocity":0.7637795275590551,"duration":0.17463226562500722},{"name":"G3","midi":55,"time":306.17631749999066,"velocity":0.7637795275590551,"duration":0.17463226562500722},{"name":"C5","midi":72,"time":306.35278799999065,"velocity":0.7637795275590551,"duration":0.2573528125000166},{"name":"A3","midi":57,"time":306.35278799999065,"velocity":0.7637795275590551,"duration":0.5128673906249901},{"name":"A4","midi":69,"time":306.52925849999065,"velocity":0.7637795275590551,"duration":0.17463226562500722},{"name":"G4","midi":67,"time":306.70572899999064,"velocity":0.7637795275590551,"duration":0.17463226562500722},{"name":"F4","midi":65,"time":306.88219949999063,"velocity":0.7637795275590551,"duration":0.17463226562500722},{"name":"A2","midi":45,"time":306.88219949999063,"velocity":0.7637795275590551,"duration":0.17463226562500722},{"name":"D5","midi":74,"time":307.0586699999906,"velocity":0.7637795275590551,"duration":0.2573528125000166},{"name":"B2","midi":47,"time":307.0586699999906,"velocity":0.7637795275590551,"duration":0.5128673906249901},{"name":"B4","midi":71,"time":307.2351404999906,"velocity":0.7637795275590551,"duration":0.17463226562500722},{"name":"C5","midi":72,"time":307.4116109999906,"velocity":0.7637795275590551,"duration":0.17463226562500722},{"name":"D5","midi":74,"time":307.5880814999906,"velocity":0.7637795275590551,"duration":0.17463226562500722},{"name":"B3","midi":59,"time":307.5880814999906,"velocity":0.7637795275590551,"duration":0.17463226562500722},{"name":"E5","midi":76,"time":307.7645519999906,"velocity":0.7637795275590551,"duration":0.2573528125000166},{"name":"C4","midi":60,"time":307.7645519999906,"velocity":0.7637795275590551,"duration":0.5128673906249901},{"name":"C5","midi":72,"time":307.9410224999906,"velocity":0.7637795275590551,"duration":0.17463226562500722},{"name":"B4","midi":71,"time":308.1174929999906,"velocity":0.7637795275590551,"duration":0.17463226562500722},{"name":"A4","midi":69,"time":308.2939634999906,"velocity":0.7637795275590551,"duration":0.17463226562500722},{"name":"C3","midi":48,"time":308.2939634999906,"velocity":0.7637795275590551,"duration":0.17463226562500722},{"name":"F5","midi":77,"time":308.4704339999906,"velocity":0.7637795275590551,"duration":0.2573528125000166},{"name":"D3","midi":50,"time":308.4704339999906,"velocity":0.7637795275590551,"duration":0.5128673906249901},{"name":"D5","midi":74,"time":308.64690449999057,"velocity":0.7637795275590551,"duration":0.17463226562500722},{"name":"E5","midi":76,"time":308.82337499999056,"velocity":0.7637795275590551,"duration":0.17463226562500722},{"name":"F5","midi":77,"time":308.99984549999056,"velocity":0.7637795275590551,"duration":0.17463226562500722},{"name":"D4","midi":62,"time":308.99984549999056,"velocity":0.7637795275590551,"duration":0.17463226562500722},{"name":"G5","midi":79,"time":309.17631599999055,"velocity":0.7637795275590551,"duration":0.2573528125000166},{"name":"E4","midi":64,"time":309.17631599999055,"velocity":0.7637795275590551,"duration":0.5128673906249901},{"name":"E5","midi":76,"time":309.35278649999054,"velocity":0.7637795275590551,"duration":0.17463226562500722},{"name":"D5","midi":74,"time":309.52925699999054,"velocity":0.7637795275590551,"duration":0.17463226562500722},{"name":"C5","midi":72,"time":309.70572749999053,"velocity":0.7637795275590551,"duration":0.17463226562500722},{"name":"E3","midi":52,"time":309.70572749999053,"velocity":0.7637795275590551,"duration":0.17463226562500722},{"name":"A5","midi":81,"time":309.8821979999905,"velocity":0.7637795275590551,"duration":0.17463226562500722},{"name":"F3","midi":53,"time":309.8821979999905,"velocity":0.7637795275590551,"duration":0.5128673906249901},{"name":"F5","midi":77,"time":310.0586684999905,"velocity":0.7637795275590551,"duration":0.17463226562500722},{"name":"G5","midi":79,"time":310.2351389999905,"velocity":0.7637795275590551,"duration":0.17463226562500722},{"name":"A5","midi":81,"time":310.4116094999905,"velocity":0.7637795275590551,"duration":0.17463226562500722},{"name":"F4","midi":65,"time":310.4116094999905,"velocity":0.7637795275590551,"duration":0.17463226562500722},{"name":"C5","midi":72,"time":310.5880799999905,"velocity":0.7637795275590551,"duration":0.14705874999998514},{"name":"G3","midi":55,"time":310.5880799999905,"velocity":0.7637795275590551,"duration":0.17463226562500722},{"name":"B4","midi":71,"time":310.6983740624905,"velocity":0.7637795275590551,"duration":0.08639701562498203},{"name":"B3","midi":59,"time":310.7645504999905,"velocity":0.7637795275590551,"duration":0.17463226562495038},{"name":"C5","midi":72,"time":310.78293284374047,"velocity":0.7637795275590551,"duration":0.08639701562498203},{"name":"B4","midi":71,"time":310.86749162499046,"velocity":0.7637795275590551,"duration":0.08639701562492519},{"name":"D4","midi":62,"time":310.9410209999904,"velocity":0.7637795275590551,"duration":0.17463226562495038},{"name":"C5","midi":72,"time":310.9520504062404,"velocity":0.7637795275590551,"duration":0.08639701562498203},{"name":"B4","midi":71,"time":311.0366091874904,"velocity":0.7637795275590551,"duration":0.08639701562492519},{"name":"F4","midi":65,"time":311.11749149999036,"velocity":0.7637795275590551,"duration":0.17463226562495038},{"name":"C5","midi":72,"time":311.12116796874034,"velocity":0.7637795275590551,"duration":0.08639701562498203},{"name":"B4","midi":71,"time":311.20572674999033,"velocity":0.7637795275590551,"duration":0.26286751562497557},{"name":"E4","midi":64,"time":311.2939619999903,"velocity":0.7637795275590551,"duration":0.5128673906249901},{"name":"G4","midi":67,"time":311.4704324999903,"velocity":0.7637795275590551,"duration":0.17463226562500722},{"name":"A4","midi":69,"time":311.6469029999903,"velocity":0.7637795275590551,"duration":0.17463226562500722},{"name":"B4","midi":71,"time":311.8233734999903,"velocity":0.7637795275590551,"duration":0.17463226562500722},{"name":"G3","midi":55,"time":311.8233734999903,"velocity":0.7637795275590551,"duration":0.17463226562500722},{"name":"C5","midi":72,"time":311.9998439999903,"velocity":0.7637795275590551,"duration":0.17463226562500722},{"name":"F3","midi":53,"time":311.9998439999903,"velocity":0.7637795275590551,"duration":0.5128673906249901},{"name":"D5","midi":74,"time":312.17631449999027,"velocity":0.7637795275590551,"duration":0.17463226562500722},{"name":"E5","midi":76,"time":312.35278499999026,"velocity":0.7637795275590551,"duration":0.17463226562500722},{"name":"F5","midi":77,"time":312.52925549999026,"velocity":0.7637795275590551,"duration":0.17463226562500722},{"name":"D4","midi":62,"time":312.52925549999026,"velocity":0.7637795275590551,"duration":0.17463226562500722},{"name":"G5","midi":79,"time":312.70572599999025,"velocity":0.7637795275590551,"duration":0.17463226562500722},{"name":"C4","midi":60,"time":312.70572599999025,"velocity":0.7637795275590551,"duration":0.5128673906249901},{"name":"F5","midi":77,"time":312.88219649999024,"velocity":0.7637795275590551,"duration":0.17463226562500722},{"name":"A5","midi":81,"time":313.05866699999024,"velocity":0.7637795275590551,"duration":0.17463226562500722},{"name":"G5","midi":79,"time":313.23513749999023,"velocity":0.7637795275590551,"duration":0.17463226562500722},{"name":"E3","midi":52,"time":313.23513749999023,"velocity":0.7637795275590551,"duration":0.17463226562500722},{"name":"F5","midi":77,"time":313.4116079999902,"velocity":0.7637795275590551,"duration":0.17463226562500722},{"name":"A3","midi":57,"time":313.4116079999902,"velocity":0.7637795275590551,"duration":0.5128673906249901},{"name":"E5","midi":76,"time":313.5880784999902,"velocity":0.7637795275590551,"duration":0.17463226562500722},{"name":"D5","midi":74,"time":313.7645489999902,"velocity":0.7637795275590551,"duration":0.17463226562500722},{"name":"C5","midi":72,"time":313.9410194999902,"velocity":0.7637795275590551,"duration":0.17463226562500722},{"name":"F3","midi":53,"time":313.9410194999902,"velocity":0.7637795275590551,"duration":0.17463226562500722},{"name":"E5","midi":76,"time":314.1174899999902,"velocity":0.7637795275590551,"duration":0.17463226562500722},{"name":"G3","midi":55,"time":314.1174899999902,"velocity":0.7637795275590551,"duration":0.5128673906249901},{"name":"D5","midi":74,"time":314.2939604999902,"velocity":0.7637795275590551,"duration":0.17463226562500722},{"name":"C5","midi":72,"time":314.4704309999902,"velocity":0.7637795275590551,"duration":0.17463226562500722},{"name":"B4","midi":71,"time":314.6469014999902,"velocity":0.7637795275590551,"duration":0.17463226562500722},{"name":"G2","midi":43,"time":314.6469014999902,"velocity":0.7637795275590551,"duration":0.17463226562500722},{"name":"C5","midi":72,"time":314.8233719999902,"velocity":0.7637795275590551,"duration":0.698529062499972},{"name":"C3","midi":48,"time":314.8233719999902,"velocity":0.7637795275590551,"duration":0.698529062499972},{"name":"C2","midi":36,"time":314.99984249999017,"velocity":0.7637795275590551,"duration":0.17463226562500722},{"name":"E2","midi":40,"time":315.17631299999016,"velocity":0.7637795275590551,"duration":0.17463226562500722},{"name":"G2","midi":43,"time":315.35278349999015,"velocity":0.7637795275590551,"duration":0.17463226562500722},{"name":"C3","midi":48,"time":315.52925399999015,"velocity":0.7637795275590551,"duration":0.698529062499972},{"name":"G4","midi":67,"time":315.70572449999014,"velocity":0.7637795275590551,"duration":0.17463226562500722},{"name":"C5","midi":72,"time":315.88219499999013,"velocity":0.7637795275590551,"duration":0.17463226562500722},{"name":"D5","midi":74,"time":316.0586654999901,"velocity":0.7637795275590551,"duration":0.17463226562500722},{"name":"E5","midi":76,"time":316.2351359999901,"velocity":0.7637795275590551,"duration":0.17463226562500722},{"name":"C5","midi":72,"time":316.4116064999901,"velocity":0.7637795275590551,"duration":0.17463226562500722},{"name":"E3","midi":52,"time":316.4116064999901,"velocity":0.7637795275590551,"duration":0.17463226562500722},{"name":"D5","midi":74,"time":316.5880769999901,"velocity":0.7637795275590551,"duration":0.17463226562500722},{"name":"F3","midi":53,"time":316.5880769999901,"velocity":0.7637795275590551,"duration":0.17463226562500722},{"name":"E5","midi":76,"time":316.7645474999901,"velocity":0.7637795275590551,"duration":0.17463226562500722},{"name":"G3","midi":55,"time":316.7645474999901,"velocity":0.7637795275590551,"duration":0.17463226562500722},{"name":"A4","midi":69,"time":316.9410179999901,"velocity":0.7637795275590551,"duration":0.17463226562500722},{"name":"C#3","midi":49,"time":316.9410179999901,"velocity":0.7637795275590551,"duration":0.17463226562500722},{"name":"C#5","midi":73,"time":317.1174884999901,"velocity":0.7637795275590551,"duration":0.17463226562500722},{"name":"E3","midi":52,"time":317.1174884999901,"velocity":0.7637795275590551,"duration":0.17463226562500722},{"name":"E5","midi":76,"time":317.2939589999901,"velocity":0.7637795275590551,"duration":0.17463226562500722},{"name":"G3","midi":55,"time":317.2939589999901,"velocity":0.7637795275590551,"duration":0.34926453125001444},{"name":"G5","midi":79,"time":317.4704294999901,"velocity":0.7637795275590551,"duration":0.17463226562500722},{"name":"A#5","midi":82,"time":317.64689999999007,"velocity":0.7637795275590551,"duration":0.5128673906249901},{"name":"E3","midi":52,"time":317.82337049999006,"velocity":0.7637795275590551,"duration":0.17463226562500722},{"name":"F3","midi":53,"time":317.99984099999006,"velocity":0.7637795275590551,"duration":0.17463226562500722},{"name":"C#5","midi":73,"time":318.17631149999005,"velocity":0.7637795275590551,"duration":0.17463226562500722},{"name":"G3","midi":55,"time":318.17631149999005,"velocity":0.7637795275590551,"duration":0.17463226562500722},{"name":"D5","midi":74,"time":318.35278199999004,"velocity":0.7637795275590551,"duration":0.5220585624999785},{"name":"F3","midi":53,"time":318.35278199999004,"velocity":0.7637795275590551,"duration":0.17463226562500722},{"name":"E3","midi":52,"time":318.52925249999004,"velocity":0.7637795275590551,"duration":0.17463226562500722},{"name":"D3","midi":50,"time":318.70572299999003,"velocity":0.7637795275590551,"duration":0.17463226562500722},{"name":"E5","midi":76,"time":318.88219349999,"velocity":0.7637795275590551,"duration":0.17463226562500722},{"name":"C#3","midi":49,"time":318.88219349999,"velocity":0.7637795275590551,"duration":0.17463226562500722},{"name":"F5","midi":77,"time":319.05866399999,"velocity":0.7637795275590551,"duration":0.871323093749993},{"name":"D3","midi":50,"time":319.05866399999,"velocity":0.7637795275590551,"duration":0.17463226562500722},{"name":"D2","midi":38,"time":319.23513449999,"velocity":0.7637795275590551,"duration":0.17463226562500722},{"name":"F2","midi":41,"time":319.41160499999,"velocity":0.7637795275590551,"duration":0.17463226562500722},{"name":"A2","midi":45,"time":319.58807549999,"velocity":0.7637795275590551,"duration":0.17463226562500722},{"name":"D3","midi":50,"time":319.76454599999,"velocity":0.7637795275590551,"duration":0.8639701562499909},{"name":"A4","midi":69,"time":319.94101649999,"velocity":0.7637795275590551,"duration":0.17463226562500722},{"name":"D5","midi":74,"time":320.11748699999,"velocity":0.7637795275590551,"duration":0.17463226562500722},{"name":"E5","midi":76,"time":320.29395749999,"velocity":0.7637795275590551,"duration":0.17463226562500722},{"name":"F5","midi":77,"time":320.47042799998997,"velocity":0.7637795275590551,"duration":0.17463226562500722},{"name":"D5","midi":74,"time":320.64689849998996,"velocity":0.7637795275590551,"duration":0.17463226562500722},{"name":"F3","midi":53,"time":320.64689849998996,"velocity":0.7637795275590551,"duration":0.17463226562500722},{"name":"E5","midi":76,"time":320.82336899998995,"velocity":0.7637795275590551,"duration":0.17463226562500722},{"name":"G3","midi":55,"time":320.82336899998995,"velocity":0.7637795275590551,"duration":0.17463226562500722},{"name":"F5","midi":77,"time":320.99983949998995,"velocity":0.7637795275590551,"duration":0.17463226562500722},{"name":"A3","midi":57,"time":320.99983949998995,"velocity":0.7637795275590551,"duration":0.17463226562500722},{"name":"B4","midi":71,"time":321.17630999998994,"velocity":0.7637795275590551,"duration":0.17463226562500722},{"name":"D#3","midi":51,"time":321.17630999998994,"velocity":0.7637795275590551,"duration":0.17463226562500722},{"name":"D#5","midi":75,"time":321.35278049998993,"velocity":0.7637795275590551,"duration":0.17463226562500722},{"name":"F#3","midi":54,"time":321.35278049998993,"velocity":0.7637795275590551,"duration":0.17463226562500722},{"name":"F#5","midi":78,"time":321.5292509999899,"velocity":0.7637795275590551,"duration":0.17463226562500722},{"name":"A3","midi":57,"time":321.5292509999899,"velocity":0.7637795275590551,"duration":0.40441156250000176},{"name":"A5","midi":81,"time":321.7057214999899,"velocity":0.7637795275590551,"duration":0.17463226562500722},{"name":"C6","midi":84,"time":321.8821919999899,"velocity":0.7637795275590551,"duration":0.5128673906249901},{"name":"F#3","midi":54,"time":322.0586624999899,"velocity":0.7637795275590551,"duration":0.17463226562500722},{"name":"G3","midi":55,"time":322.2351329999899,"velocity":0.7637795275590551,"duration":0.17463226562500722},{"name":"D#5","midi":75,"time":322.4116034999899,"velocity":0.7637795275590551,"duration":0.17463226562500722},{"name":"A3","midi":57,"time":322.4116034999899,"velocity":0.7637795275590551,"duration":0.17463226562500722},{"name":"E5","midi":76,"time":322.5880739999899,"velocity":0.7637795275590551,"duration":0.5220585624999785},{"name":"G3","midi":55,"time":322.5880739999899,"velocity":0.7637795275590551,"duration":0.17463226562500722},{"name":"F#3","midi":54,"time":322.7645444999899,"velocity":0.7637795275590551,"duration":0.17463226562500722},{"name":"E3","midi":52,"time":322.9410149999899,"velocity":0.7637795275590551,"duration":0.17463226562500722},{"name":"F#5","midi":78,"time":323.11748549998987,"velocity":0.7637795275590551,"duration":0.17463226562500722},{"name":"D#3","midi":51,"time":323.11748549998987,"velocity":0.7637795275590551,"duration":0.17463226562500722},{"name":"G5","midi":79,"time":323.29395599998986,"velocity":0.7637795275590551,"duration":0.8805142656249814},{"name":"E3","midi":52,"time":323.29395599998986,"velocity":0.7637795275590551,"duration":0.3308821874999808},{"name":"E2","midi":40,"time":323.47042649998986,"velocity":0.7637795275590551,"duration":0.17463226562500722},{"name":"G2","midi":43,"time":323.64689699998985,"velocity":0.7637795275590551,"duration":0.17463226562500722},{"name":"B2","midi":47,"time":323.82336749998984,"velocity":0.7637795275590551,"duration":0.17463226562500722},{"name":"E3","midi":52,"time":323.99983799998984,"velocity":0.7637795275590551,"duration":0.6617643749999615},{"name":"E5","midi":76,"time":324.17630849998983,"velocity":0.7637795275590551,"duration":0.17463226562500722},{"name":"F#5","midi":78,"time":324.3527789999898,"velocity":0.7637795275590551,"duration":0.17463226562500722},{"name":"G#5","midi":80,"time":324.5292494999898,"velocity":0.7637795275590551,"duration":0.17463226562500722},{"name":"A5","midi":81,"time":324.7057199999898,"velocity":0.7637795275590551,"duration":0.17463226562500722},{"name":"G#5","midi":80,"time":324.8821904999898,"velocity":0.7637795275590551,"duration":0.17463226562500722},{"name":"C3","midi":48,"time":324.8821904999898,"velocity":0.7637795275590551,"duration":0.17463226562500722},{"name":"F#5","midi":78,"time":325.0586609999898,"velocity":0.7637795275590551,"duration":0.17463226562500722},{"name":"D3","midi":50,"time":325.0586609999898,"velocity":0.7637795275590551,"duration":0.17463226562500722},{"name":"G#5","midi":80,"time":325.2351314999898,"velocity":0.7637795275590551,"duration":0.17463226562500722},{"name":"E3","midi":52,"time":325.2351314999898,"velocity":0.7637795275590551,"duration":0.17463226562500722},{"name":"A5","midi":81,"time":325.4116019999898,"velocity":0.7637795275590551,"duration":0.5128673906249901},{"name":"F3","midi":53,"time":325.4116019999898,"velocity":0.7637795275590551,"duration":0.17463226562500722},{"name":"E3","midi":52,"time":325.5880724999898,"velocity":0.7637795275590551,"duration":0.17463226562500722},{"name":"F3","midi":53,"time":325.76454299998977,"velocity":0.7637795275590551,"duration":0.17463226562500722},{"name":"D5","midi":74,"time":325.94101349998977,"velocity":0.7637795275590551,"duration":0.17463226562500722},{"name":"G3","midi":55,"time":325.94101349998977,"velocity":0.7637795275590551,"duration":0.17463226562500722},{"name":"C#5","midi":73,"time":326.11748399998976,"velocity":0.7637795275590551,"duration":0.17463226562500722},{"name":"A3","midi":57,"time":326.11748399998976,"velocity":0.7637795275590551,"duration":0.17463226562500722},{"name":"D5","midi":74,"time":326.29395449998975,"velocity":0.7637795275590551,"duration":0.17463226562500722},{"name":"B3","midi":59,"time":326.29395449998975,"velocity":0.7637795275590551,"duration":0.17463226562500722},{"name":"E5","midi":76,"time":326.47042499998975,"velocity":0.7637795275590551,"duration":0.17463226562500722},{"name":"C#4","midi":61,"time":326.47042499998975,"velocity":0.7637795275590551,"duration":0.17463226562500722},{"name":"F5","midi":77,"time":326.64689549998974,"velocity":0.7637795275590551,"duration":0.17463226562500722},{"name":"D4","midi":62,"time":326.64689549998974,"velocity":0.7637795275590551,"duration":0.17463226562500722},{"name":"G5","midi":79,"time":326.82336599998973,"velocity":0.7637795275590551,"duration":0.17463226562500722},{"name":"E4","midi":64,"time":326.82336599998973,"velocity":0.7637795275590551,"duration":0.5128673906249901},{"name":"F5","midi":77,"time":326.9998364999897,"velocity":0.7637795275590551,"duration":0.17463226562500722},{"name":"G5","midi":79,"time":327.1763069999897,"velocity":0.7637795275590551,"duration":0.17463226562500722},{"name":"E5","midi":76,"time":327.3527774999897,"velocity":0.7637795275590551,"duration":0.17463226562500722},{"name":"A3","midi":57,"time":327.3527774999897,"velocity":0.7637795275590551,"duration":0.17463226562500722},{"name":"F5","midi":77,"time":327.5292479999897,"velocity":0.7637795275590551,"duration":0.17463226562500722},{"name":"D4","midi":62,"time":327.5292479999897,"velocity":0.7637795275590551,"duration":0.5128673906249901},{"name":"D5","midi":74,"time":327.7057184999897,"velocity":0.7637795275590551,"duration":0.17463226562500722},{"name":"E5","midi":76,"time":327.8821889999897,"velocity":0.7637795275590551,"duration":0.17463226562500722},{"name":"F5","midi":77,"time":328.0586594999897,"velocity":0.7637795275590551,"duration":0.17463226562500722},{"name":"A3","midi":57,"time":328.0586594999897,"velocity":0.7637795275590551,"duration":0.17463226562500722},{"name":"E5","midi":76,"time":328.2351299999897,"velocity":0.7637795275590551,"duration":0.17463226562500722},{"name":"C4","midi":60,"time":328.2351299999897,"velocity":0.7637795275590551,"duration":0.5128673906249901},{"name":"C5","midi":72,"time":328.4116004999897,"velocity":0.7637795275590551,"duration":0.17463226562500722},{"name":"D5","midi":74,"time":328.58807099998967,"velocity":0.7637795275590551,"duration":0.17463226562500722},{"name":"E5","midi":76,"time":328.76454149998966,"velocity":0.7637795275590551,"duration":0.17463226562500722},{"name":"A3","midi":57,"time":328.76454149998966,"velocity":0.7637795275590551,"duration":0.17463226562500722},{"name":"D5","midi":74,"time":328.94101199998966,"velocity":0.7637795275590551,"duration":0.17463226562500722},{"name":"B3","midi":59,"time":328.94101199998966,"velocity":0.7637795275590551,"duration":0.5128673906249901},{"name":"B4","midi":71,"time":329.11748249998965,"velocity":0.7637795275590551,"duration":0.17463226562500722},{"name":"C5","midi":72,"time":329.29395299998964,"velocity":0.7637795275590551,"duration":0.17463226562500722},{"name":"D5","midi":74,"time":329.47042349998964,"velocity":0.7637795275590551,"duration":0.17463226562500722},{"name":"E3","midi":52,"time":329.47042349998964,"velocity":0.7637795275590551,"duration":0.17463226562500722},{"name":"C5","midi":72,"time":329.64689399998963,"velocity":0.7637795275590551,"duration":0.17463226562500722},{"name":"A3","midi":57,"time":329.64689399998963,"velocity":0.7637795275590551,"duration":0.5128673906249901},{"name":"A4","midi":69,"time":329.8233644999896,"velocity":0.7637795275590551,"duration":0.17463226562500722},{"name":"G#4","midi":68,"time":329.9998349999896,"velocity":0.7637795275590551,"duration":0.17463226562500722},{"name":"A4","midi":69,"time":330.1763054999896,"velocity":0.7637795275590551,"duration":0.17463226562500722},{"name":"C3","midi":48,"time":330.1763054999896,"velocity":0.7637795275590551,"duration":0.17463226562500722},{"name":"D5","midi":74,"time":330.3527759999896,"velocity":0.7637795275590551,"duration":0.17463226562500722},{"name":"F3","midi":53,"time":330.3527759999896,"velocity":0.7637795275590551,"duration":0.5128673906249901},{"name":"E5","midi":76,"time":330.5292464999896,"velocity":0.7637795275590551,"duration":0.17463226562500722},{"name":"F5","midi":77,"time":330.7057169999896,"velocity":0.7637795275590551,"duration":0.17463226562500722},{"name":"E5","midi":76,"time":330.8821874999896,"velocity":0.7637795275590551,"duration":0.17463226562500722},{"name":"G#2","midi":44,"time":330.8821874999896,"velocity":0.7637795275590551,"duration":0.17463226562500722},{"name":"D5","midi":74,"time":331.0586579999896,"velocity":0.7637795275590551,"duration":0.17463226562500722},{"name":"A2","midi":45,"time":331.0586579999896,"velocity":0.7637795275590551,"duration":0.5128673906249901},{"name":"C5","midi":72,"time":331.23512849998957,"velocity":0.7637795275590551,"duration":0.17463226562500722},{"name":"B4","midi":71,"time":331.41159899998956,"velocity":0.7637795275590551,"duration":0.17463226562500722},{"name":"A4","midi":69,"time":331.58806949998956,"velocity":0.7637795275590551,"duration":0.17463226562500722},{"name":"F2","midi":41,"time":331.58806949998956,"velocity":0.7637795275590551,"duration":0.17463226562500722},{"name":"G#4","midi":68,"time":331.76453999998955,"velocity":0.7637795275590551,"duration":0.17463226562500722},{"name":"E2","midi":40,"time":331.76453999998955,"velocity":0.7637795275590551,"duration":1.0202200781249644},{"name":"F#4","midi":66,"time":331.94101049998955,"velocity":0.7637795275590551,"duration":0.17463226562500722},{"name":"G#4","midi":68,"time":332.11748099998954,"velocity":0.7637795275590551,"duration":0.17463226562500722},{"name":"F#4","midi":66,"time":332.29395149998953,"velocity":0.7637795275590551,"duration":0.17463226562500722},{"name":"E4","midi":64,"time":332.4704219999895,"velocity":0.7637795275590551,"duration":0.698529062499972},{"name":"F#2","midi":42,"time":332.8233629999895,"velocity":0.7637795275590551,"duration":0.17463226562500722},{"name":"G#2","midi":44,"time":332.9998334999895,"velocity":0.7637795275590551,"duration":0.17463226562500722},{"name":"A2","midi":45,"time":333.1763039999895,"velocity":0.7637795275590551,"duration":0.17463226562500722},{"name":"F5","midi":77,"time":333.3527744999895,"velocity":0.7637795275590551,"duration":0.17463226562500722},{"name":"B2","midi":47,"time":333.3527744999895,"velocity":0.7637795275590551,"duration":0.17463226562500722},{"name":"E5","midi":76,"time":333.5292449999895,"velocity":0.7637795275590551,"duration":0.17463226562500722},{"name":"C3","midi":48,"time":333.5292449999895,"velocity":0.7637795275590551,"duration":0.17463226562500722},{"name":"D5","midi":74,"time":333.7057154999895,"velocity":0.7637795275590551,"duration":0.17463226562500722},{"name":"D3","midi":50,"time":333.7057154999895,"velocity":0.7637795275590551,"duration":0.17463226562500722},{"name":"C5","midi":72,"time":333.8821859999895,"velocity":0.7637795275590551,"duration":0.17463226562500722},{"name":"E3","midi":52,"time":333.8821859999895,"velocity":0.7637795275590551,"duration":0.698529062499972},{"name":"E5","midi":76,"time":334.05865649998947,"velocity":0.7637795275590551,"duration":0.17463226562500722},{"name":"G#5","midi":80,"time":334.23512699998946,"velocity":0.7637795275590551,"duration":0.17463226562500722},{"name":"A5","midi":81,"time":334.41159749998945,"velocity":0.7637795275590551,"duration":0.17463226562500722},{"name":"E2","midi":40,"time":334.41159749998945,"velocity":0.7637795275590551,"duration":0.17463226562500722},{"name":"B4","midi":71,"time":334.58806799998945,"velocity":0.7637795275590551,"duration":0.17463226562500722},{"name":"E3","midi":52,"time":334.58806799998945,"velocity":0.7637795275590551,"duration":0.698529062499972},{"name":"D5","midi":74,"time":334.76453849998944,"velocity":0.7637795275590551,"duration":0.17463226562500722},{"name":"F#5","midi":78,"time":334.94100899998944,"velocity":0.7637795275590551,"duration":0.17463226562500722},{"name":"G5","midi":79,"time":335.11747949998943,"velocity":0.7637795275590551,"duration":0.17463226562500722},{"name":"E2","midi":40,"time":335.11747949998943,"velocity":0.7637795275590551,"duration":0.17463226562500722},{"name":"A4","midi":69,"time":335.2939499999894,"velocity":0.7637795275590551,"duration":0.17463226562500722},{"name":"E3","midi":52,"time":335.2939499999894,"velocity":0.7637795275590551,"duration":0.698529062499972},{"name":"C5","midi":72,"time":335.4704204999894,"velocity":0.7637795275590551,"duration":0.17463226562500722},{"name":"E5","midi":76,"time":335.6468909999894,"velocity":0.7637795275590551,"duration":0.17463226562500722},{"name":"F5","midi":77,"time":335.8233614999894,"velocity":0.7637795275590551,"duration":0.17463226562500722},{"name":"E2","midi":40,"time":335.8233614999894,"velocity":0.7637795275590551,"duration":0.17463226562500722},{"name":"G#4","midi":68,"time":335.9998319999894,"velocity":0.7637795275590551,"duration":0.17463226562500722},{"name":"E3","midi":52,"time":335.9998319999894,"velocity":0.7637795275590551,"duration":0.698529062499972},{"name":"B4","midi":71,"time":336.1763024999894,"velocity":0.7637795275590551,"duration":0.17463226562500722},{"name":"D#5","midi":75,"time":336.3527729999894,"velocity":0.7637795275590551,"duration":0.17463226562500722},{"name":"E5","midi":76,"time":336.5292434999894,"velocity":0.7637795275590551,"duration":0.17463226562500722},{"name":"E2","midi":40,"time":336.5292434999894,"velocity":0.7637795275590551,"duration":0.17463226562500722},{"name":"F#4","midi":66,"time":336.70571399998937,"velocity":0.7637795275590551,"duration":0.17463226562500722},{"name":"E3","midi":52,"time":336.70571399998937,"velocity":0.7637795275590551,"duration":0.698529062499972},{"name":"A4","midi":69,"time":336.88218449998936,"velocity":0.7637795275590551,"duration":0.17463226562500722},{"name":"E5","midi":76,"time":337.05865499998936,"velocity":0.7637795275590551,"duration":0.17463226562500722},{"name":"C#5","midi":73,"time":337.23512549998935,"velocity":0.7637795275590551,"duration":0.17463226562500722},{"name":"E2","midi":40,"time":337.23512549998935,"velocity":0.7637795275590551,"duration":0.17463226562500722},{"name":"G#4","midi":68,"time":337.41159599998934,"velocity":0.7637795275590551,"duration":0.17463226562500722},{"name":"E3","midi":52,"time":337.41159599998934,"velocity":0.7637795275590551,"duration":0.698529062499972},{"name":"B4","midi":71,"time":337.58806649998934,"velocity":0.7637795275590551,"duration":0.17463226562500722},{"name":"D5","midi":74,"time":337.76453699998933,"velocity":0.7637795275590551,"duration":0.17463226562500722},{"name":"B4","midi":71,"time":337.9410074999893,"velocity":0.7637795275590551,"duration":0.17463226562500722},{"name":"E2","midi":40,"time":337.9410074999893,"velocity":0.7637795275590551,"duration":0.17463226562500722},{"name":"C5","midi":72,"time":338.1174779999893,"velocity":0.7637795275590551,"duration":0.17463226562500722},{"name":"E3","midi":52,"time":338.1174779999893,"velocity":0.7637795275590551,"duration":0.698529062499972},{"name":"A4","midi":69,"time":338.2939484999893,"velocity":0.7637795275590551,"duration":0.17463226562500722},{"name":"F4","midi":65,"time":338.4704189999893,"velocity":0.7637795275590551,"duration":0.17463226562500722},{"name":"E4","midi":64,"time":338.6468894999893,"velocity":0.7637795275590551,"duration":0.17463226562500722},{"name":"E2","midi":40,"time":338.6468894999893,"velocity":0.7637795275590551,"duration":0.17463226562500722},{"name":"B4","midi":71,"time":338.8233599999893,"velocity":0.7637795275590551,"duration":0.17463226562500722},{"name":"E3","midi":52,"time":338.8233599999893,"velocity":0.7637795275590551,"duration":0.5128673906249901},{"name":"G#4","midi":68,"time":338.9998304999893,"velocity":0.7637795275590551,"duration":0.17463226562500722},{"name":"E4","midi":64,"time":339.1763009999893,"velocity":0.7637795275590551,"duration":0.17463226562500722},{"name":"D4","midi":62,"time":339.3527714999893,"velocity":0.7637795275590551,"duration":0.17463226562500722},{"name":"B2","midi":47,"time":339.3527714999893,"velocity":0.7637795275590551,"duration":0.17463226562500722},{"name":"A4","midi":69,"time":339.52924199998927,"velocity":0.7637795275590551,"duration":0.17463226562500722},{"name":"C3","midi":48,"time":339.52924199998927,"velocity":0.7637795275590551,"duration":0.5128673906249901},{"name":"F#4","midi":66,"time":339.70571249998926,"velocity":0.7637795275590551,"duration":0.17463226562500722},{"name":"D#4","midi":63,"time":339.88218299998925,"velocity":0.7637795275590551,"duration":0.17463226562500722},{"name":"C4","midi":60,"time":340.05865349998925,"velocity":0.7637795275590551,"duration":0.17463226562500722},{"name":"A2","midi":45,"time":340.05865349998925,"velocity":0.7637795275590551,"duration":0.17463226562500722},{"name":"B3","midi":59,"time":340.23512399998924,"velocity":0.7637795275590551,"duration":0.17463226562500722},{"name":"D2","midi":38,"time":340.23512399998924,"velocity":0.7637795275590551,"duration":0.8088231249999467},{"name":"A4","midi":69,"time":340.41159449998923,"velocity":0.7637795275590551,"duration":0.17463226562500722},{"name":"G#4","midi":68,"time":340.58806499998923,"velocity":0.7637795275590551,"duration":0.17463226562500722},{"name":"F#4","midi":66,"time":340.7645354999892,"velocity":0.7637795275590551,"duration":0.17463226562500722},{"name":"E4","midi":64,"time":340.9410059999892,"velocity":0.7637795275590551,"duration":0.17463226562495038},{"name":"G#4","midi":68,"time":341.11747649998915,"velocity":0.7637795275590551,"duration":0.17463226562500722},{"name":"E2","midi":40,"time":341.11747649998915,"velocity":0.7637795275590551,"duration":0.17463226562500722},{"name":"B4","midi":71,"time":341.29394699998915,"velocity":0.7637795275590551,"duration":0.17463226562500722},{"name":"F#2","midi":42,"time":341.29394699998915,"velocity":0.7637795275590551,"duration":0.17463226562500722},{"name":"D5","midi":74,"time":341.47041749998914,"velocity":0.7637795275590551,"duration":0.17463226562500722},{"name":"G#2","midi":44,"time":341.47041749998914,"velocity":0.7637795275590551,"duration":0.17463226562500722},{"name":"C5","midi":72,"time":341.64688799998913,"velocity":0.7637795275590551,"duration":0.08639701562498203},{"name":"A2","midi":45,"time":341.64688799998913,"velocity":0.7637795275590551,"duration":0.17463226562495038},{"name":"B4","midi":71,"time":341.7351232499891,"velocity":0.7637795275590551,"duration":0.08639701562498203},{"name":"C5","midi":72,"time":341.82335849998907,"velocity":0.7637795275590551,"duration":0.35110276562500076},{"name":"G#2","midi":44,"time":341.82335849998907,"velocity":0.7637795275590551,"duration":0.17463226562500722},{"name":"A2","midi":45,"time":341.99982899998906,"velocity":0.7637795275590551,"duration":0.17463226562500722},{"name":"B4","midi":71,"time":342.17629949998906,"velocity":0.7637795275590551,"duration":0.17463226562500722},{"name":"B2","midi":47,"time":342.17629949998906,"velocity":0.7637795275590551,"duration":0.17463226562500722},{"name":"E5","midi":76,"time":342.35276999998905,"velocity":0.7637795275590551,"duration":0.5128673906249901},{"name":"C3","midi":48,"time":342.35276999998905,"velocity":0.7637795275590551,"duration":0.17463226562500722},{"name":"B2","midi":47,"time":342.52924049998904,"velocity":0.7637795275590551,"duration":0.17463226562500722},{"name":"C3","midi":48,"time":342.70571099998904,"velocity":0.7637795275590551,"duration":0.17463226562500722},{"name":"B4","midi":71,"time":342.88218149998903,"velocity":0.7637795275590551,"duration":0.17463226562500722},{"name":"D3","midi":50,"time":342.88218149998903,"velocity":0.7637795275590551,"duration":0.17463226562500722},{"name":"C5","midi":72,"time":343.058651999989,"velocity":0.7637795275590551,"duration":0.5128673906249901},{"name":"E3","midi":52,"time":343.058651999989,"velocity":0.7637795275590551,"duration":0.17463226562500722},{"name":"D3","midi":50,"time":343.235122499989,"velocity":0.7637795275590551,"duration":0.17463226562500722},{"name":"C3","midi":48,"time":343.411592999989,"velocity":0.7637795275590551,"duration":0.17463226562500722},{"name":"A4","midi":69,"time":343.588063499989,"velocity":0.7637795275590551,"duration":0.17463226562500722},{"name":"D3","midi":50,"time":343.588063499989,"velocity":0.7637795275590551,"duration":0.17463226562500722},{"name":"E4","midi":64,"time":343.764533999989,"velocity":0.7637795275590551,"duration":0.08639701562498203},{"name":"E3","midi":52,"time":343.764533999989,"velocity":0.7637795275590551,"duration":0.6985290624999152},{"name":"D4","midi":62,"time":343.85276924998897,"velocity":0.7637795275590551,"duration":0.08639701562498203},{"name":"E4","midi":64,"time":343.94100449998894,"velocity":0.7637795275590551,"duration":0.35110276562500076},{"name":"E2","midi":40,"time":344.11747499998893,"velocity":0.7637795275590551,"duration":0.35110276562500076},{"name":"G#4","midi":68,"time":344.2939454999889,"velocity":0.7637795275590551,"duration":0.17463226562500722},{"name":"A4","midi":69,"time":344.4704159999889,"velocity":0.7637795275590551,"duration":2.11396953124995},{"name":"A2","midi":45,"time":344.4704159999889,"velocity":0.7637795275590551,"duration":2.022057812499952},{"name":"E4","midi":64,"time":344.8233569999889,"velocity":0.7637795275590551,"duration":1.7279403124999817},{"name":"C4","midi":60,"time":344.9998274999889,"velocity":0.7637795275590551,"duration":1.544116874999986},{"name":"A3","midi":57,"time":345.1762979999889,"velocity":0.7637795275590551,"duration":1.409925765624962},{"name":"A4","midi":69,"time":349.76453099998884,"velocity":0.7637795275590551,"duration":0.35110276562500076},{"name":"A4","midi":69,"time":350.1174719999888,"velocity":0.7637795275590551,"duration":0.10661759375000202},{"name":"G#4","midi":68,"time":350.17629549998884,"velocity":0.7637795275590551,"duration":0.10661759374994517},{"name":"A4","midi":69,"time":350.2351189999888,"velocity":0.7637795275590551,"duration":0.10661759374994517},{"name":"G#4","midi":68,"time":350.29394249998876,"velocity":0.7637795275590551,"duration":0.10661759374994517},{"name":"F#4","midi":66,"time":350.3527659999887,"velocity":0.7637795275590551,"duration":0.10661759374994517},{"name":"G#4","midi":68,"time":350.4115894999887,"velocity":0.7637795275590551,"duration":0.10661759374994517},{"name":"A4","midi":69,"time":350.47041299998864,"velocity":0.7637795275590551,"duration":0.35110276562500076},{"name":"E4","midi":64,"time":350.8233539999886,"velocity":0.7637795275590551,"duration":0.10661759375000202},{"name":"D4","midi":62,"time":350.88217749998864,"velocity":0.7637795275590551,"duration":0.10661759374994517},{"name":"E4","midi":64,"time":350.9410009999886,"velocity":0.7637795275590551,"duration":0.23345576562496717},{"name":"F4","midi":65,"time":351.17629499998856,"velocity":0.7637795275590551,"duration":0.11580876562499043},{"name":"E4","midi":64,"time":351.29394199998853,"velocity":0.7637795275590551,"duration":0.11580876562499043},{"name":"D4","midi":62,"time":351.4115889999885,"velocity":0.7637795275590551,"duration":0.11580876562499043},{"name":"E4","midi":64,"time":351.5292359999885,"velocity":0.7637795275590551,"duration":0.35110276562500076},{"name":"A3","midi":57,"time":351.8821769999885,"velocity":0.7637795275590551,"duration":0.35110276562500076},{"name":"C4","midi":60,"time":351.8821769999885,"velocity":0.7637795275590551,"duration":0.35110276562500076},{"name":"E4","midi":64,"time":351.8821769999885,"velocity":0.7637795275590551,"duration":0.35110276562500076},{"name":"A3","midi":57,"time":352.23511799998846,"velocity":0.7637795275590551,"duration":0.10661759375000202},{"name":"E4","midi":64,"time":352.23511799998846,"velocity":0.7637795275590551,"duration":0.3511027656249439},{"name":"B3","midi":59,"time":352.23511799998846,"velocity":0.7637795275590551,"duration":0.3511027656249439},{"name":"G#3","midi":56,"time":352.3233532499885,"velocity":0.7637795275590551,"duration":0.10661759374994517},{"name":"F#3","midi":54,"time":352.41158849998845,"velocity":0.7637795275590551,"duration":0.10661759374994517},{"name":"G#3","midi":56,"time":352.4998237499884,"velocity":0.7637795275590551,"duration":0.10661759374994517},{"name":"A3","midi":57,"time":352.5880589999884,"velocity":0.7637795275590551,"duration":0.35110276562500076},{"name":"E4","midi":64,"time":352.5880589999884,"velocity":0.7637795275590551,"duration":0.35110276562500076},{"name":"C4","midi":60,"time":352.5880589999884,"velocity":0.7637795275590551,"duration":0.35110276562500076},{"name":"E3","midi":52,"time":352.9409999999884,"velocity":0.7637795275590551,"duration":0.35110276562500076},{"name":"A4","midi":69,"time":352.9409999999884,"velocity":0.7637795275590551,"duration":0.35110276562500076},{"name":"C5","midi":72,"time":352.9409999999884,"velocity":0.7637795275590551,"duration":0.35110276562500076},{"name":"F3","midi":53,"time":353.29394099998837,"velocity":0.7637795275590551,"duration":0.11580876562499043},{"name":"G#4","midi":68,"time":353.29394099998837,"velocity":0.7637795275590551,"duration":0.3492645312499576},{"name":"B4","midi":71,"time":353.29394099998837,"velocity":0.7637795275590551,"duration":0.3492645312499576},{"name":"E3","midi":52,"time":353.41158799998834,"velocity":0.7637795275590551,"duration":0.11580876562499043},{"name":"D3","midi":50,"time":353.5292349999883,"velocity":0.7637795275590551,"duration":0.11580876562499043},{"name":"E3","midi":52,"time":353.6468819999883,"velocity":0.7637795275590551,"duration":0.35110276562500076},{"name":"E2","midi":40,"time":353.9998229999883,"velocity":0.7637795275590551,"duration":0.35110276562500076},{"name":"C4","midi":60,"time":353.9998229999883,"velocity":0.7637795275590551,"duration":0.35110276562500076},{"name":"A4","midi":69,"time":353.9998229999883,"velocity":0.7637795275590551,"duration":0.35110276562500076},{"name":"E2","midi":40,"time":354.35276399998827,"velocity":0.7637795275590551,"duration":0.3511027656248302},{"name":"B3","midi":59,"time":354.35276399998827,"velocity":0.7637795275590551,"duration":0.3492645312498439},{"name":"A4","midi":69,"time":354.35276399998827,"velocity":0.7637795275590551,"duration":0.10661759375000202},{"name":"G#4","midi":68,"time":354.4115874999883,"velocity":0.7637795275590551,"duration":0.10661759374994517},{"name":"A4","midi":69,"time":354.47041099998825,"velocity":0.7637795275590551,"duration":0.10661759374994517},{"name":"G#4","midi":68,"time":354.5292344999882,"velocity":0.7637795275590551,"duration":0.10661759374994517},{"name":"F#4","midi":66,"time":354.58805799998817,"velocity":0.7637795275590551,"duration":0.10661759374994517},{"name":"G#4","midi":68,"time":354.6468814999881,"velocity":0.7637795275590551,"duration":0.10661759374994517},{"name":"E2","midi":40,"time":354.7057049999881,"velocity":0.7637795275590551,"duration":0.35110276562500076},{"name":"C4","midi":60,"time":354.7057049999881,"velocity":0.7637795275590551,"duration":0.35110276562500076},{"name":"A4","midi":69,"time":354.7057049999881,"velocity":0.7637795275590551,"duration":0.35110276562500076},{"name":"E3","midi":52,"time":355.0586459999881,"velocity":0.7637795275590551,"duration":0.35110276562500076},{"name":"D5","midi":74,"time":355.0586459999881,"velocity":0.7637795275590551,"duration":0.35110276562500076},{"name":"B4","midi":71,"time":355.0586459999881,"velocity":0.7637795275590551,"duration":0.35110276562500076},{"name":"F3","midi":53,"time":355.41158699998806,"velocity":0.7637795275590551,"duration":0.11580876562499043},{"name":"A4","midi":69,"time":355.41158699998806,"velocity":0.7637795275590551,"duration":0.3492645312499576},{"name":"C5","midi":72,"time":355.41158699998806,"velocity":0.7637795275590551,"duration":0.3492645312499576},{"name":"E3","midi":52,"time":355.52923399998804,"velocity":0.7637795275590551,"duration":0.11580876562499043},{"name":"D3","midi":50,"time":355.646880999988,"velocity":0.7637795275590551,"duration":0.11580876562499043},{"name":"E3","midi":52,"time":355.764527999988,"velocity":0.7637795275590551,"duration":0.35110276562500076},{"name":"E2","midi":40,"time":356.117468999988,"velocity":0.7637795275590551,"duration":0.35110276562500076},{"name":"A4","midi":69,"time":356.117468999988,"velocity":0.7637795275590551,"duration":0.35110276562500076},{"name":"C4","midi":60,"time":356.117468999988,"velocity":0.7637795275590551,"duration":0.35110276562500076},{"name":"E2","midi":40,"time":356.47040999998796,"velocity":0.7637795275590551,"duration":0.3511027656248302},{"name":"B3","midi":59,"time":356.47040999998796,"velocity":0.7637795275590551,"duration":0.3492645312498439},{"name":"A4","midi":69,"time":356.47040999998796,"velocity":0.7637795275590551,"duration":0.10661759375000202},{"name":"G#4","midi":68,"time":356.529233499988,"velocity":0.7637795275590551,"duration":0.10661759374994517},{"name":"A4","midi":69,"time":356.58805699998794,"velocity":0.7637795275590551,"duration":0.10661759374994517},{"name":"G#4","midi":68,"time":356.6468804999879,"velocity":0.7637795275590551,"duration":0.10661759374994517},{"name":"F#4","midi":66,"time":356.70570399998786,"velocity":0.7637795275590551,"duration":0.10661759374994517},{"name":"G#4","midi":68,"time":356.7645274999878,"velocity":0.7637795275590551,"duration":0.10661759374994517},{"name":"E2","midi":40,"time":356.8233509999878,"velocity":0.7637795275590551,"duration":0.35110276562500076},{"name":"A4","midi":69,"time":356.8233509999878,"velocity":0.7637795275590551,"duration":0.35110276562500076},{"name":"C4","midi":60,"time":356.8233509999878,"velocity":0.7637795275590551,"duration":0.35110276562500076},{"name":"E3","midi":52,"time":357.17629199998777,"velocity":0.7637795275590551,"duration":0.35110276562500076},{"name":"F5","midi":77,"time":357.17629199998777,"velocity":0.7637795275590551,"duration":0.35110276562500076},{"name":"A4","midi":69,"time":357.17629199998777,"velocity":0.7637795275590551,"duration":0.35110276562500076},{"name":"F3","midi":53,"time":357.52923299998776,"velocity":0.7637795275590551,"duration":0.11580876562499043},{"name":"E5","midi":76,"time":357.52923299998776,"velocity":0.7637795275590551,"duration":0.3492645312499576},{"name":"G#4","midi":68,"time":357.52923299998776,"velocity":0.7637795275590551,"duration":0.3492645312499576},{"name":"E3","midi":52,"time":357.64687999998773,"velocity":0.7637795275590551,"duration":0.11580876562499043},{"name":"D3","midi":50,"time":357.7645269999877,"velocity":0.7637795275590551,"duration":0.11580876562499043},{"name":"E3","midi":52,"time":357.8821739999877,"velocity":0.7637795275590551,"duration":0.35110276562500076},{"name":"E4","midi":64,"time":358.2351149999877,"velocity":0.7637795275590551,"duration":0.35110276562500076},{"name":"G#4","midi":68,"time":358.2351149999877,"velocity":0.7637795275590551,"duration":0.35110276562500076},{"name":"E5","midi":76,"time":358.2351149999877,"velocity":0.7637795275590551,"duration":0.35110276562500076},{"name":"F#4","midi":66,"time":358.58805599998766,"velocity":0.7637795275590551,"duration":0.35110276562500076},{"name":"A4","midi":69,"time":358.58805599998766,"velocity":0.7637795275590551,"duration":0.35110276562500076},{"name":"E5","midi":76,"time":358.58805599998766,"velocity":0.7637795275590551,"duration":0.35110276562500076},{"name":"G#4","midi":68,"time":358.94099699998765,"velocity":0.7637795275590551,"duration":0.35110276562500076},{"name":"E5","midi":76,"time":358.94099699998765,"velocity":0.7637795275590551,"duration":0.35110276562500076},{"name":"B4","midi":71,"time":358.94099699998765,"velocity":0.7637795275590551,"duration":0.35110276562500076},{"name":"A4","midi":69,"time":359.29393799998763,"velocity":0.7637795275590551,"duration":1.056984765624918},{"name":"E5","midi":76,"time":359.29393799998763,"velocity":0.7637795275590551,"duration":0.35110276562500076},{"name":"C5","midi":72,"time":359.29393799998763,"velocity":0.7637795275590551,"duration":2.1139695312497793},{"name":"A3","midi":57,"time":359.6468789999876,"velocity":0.7637795275590551,"duration":0.3511027656249439},{"name":"F5","midi":77,"time":359.6468789999876,"velocity":0.7637795275590551,"duration":0.11580876562499043},{"name":"E5","midi":76,"time":359.7645259999876,"velocity":0.7637795275590551,"duration":0.11580876562499043},{"name":"D5","midi":74,"time":359.8821729999876,"velocity":0.7637795275590551,"duration":0.11580876562499043},{"name":"A3","midi":57,"time":359.99981999998755,"velocity":0.7637795275590551,"duration":0.35110276562500076},{"name":"E5","midi":76,"time":359.99981999998755,"velocity":0.7637795275590551,"duration":0.35110276562500076},{"name":"A4","midi":69,"time":360.35276099998754,"velocity":0.7637795275590551,"duration":0.3511027656249439},{"name":"G5","midi":79,"time":360.35276099998754,"velocity":0.7637795275590551,"duration":0.11580876562499043},{"name":"F5","midi":77,"time":360.4704079999875,"velocity":0.7637795275590551,"duration":0.11580876562499043},{"name":"E5","midi":76,"time":360.5880549999875,"velocity":0.7637795275590551,"duration":0.11580876562499043},{"name":"A4","midi":69,"time":360.70570199998747,"velocity":0.7637795275590551,"duration":0.35110276562500076},{"name":"F5","midi":77,"time":360.70570199998747,"velocity":0.7637795275590551,"duration":0.35110276562500076},{"name":"A3","midi":57,"time":361.05864299998746,"velocity":0.7637795275590551,"duration":0.3511027656249439},{"name":"A5","midi":81,"time":361.05864299998746,"velocity":0.7637795275590551,"duration":0.11580876562499043},{"name":"G5","midi":79,"time":361.17628999998743,"velocity":0.7637795275590551,"duration":0.11580876562499043},{"name":"F5","midi":77,"time":361.2939369999874,"velocity":0.7637795275590551,"duration":0.11580876562499043},{"name":"E4","midi":64,"time":361.4115839999874,"velocity":0.7637795275590551,"duration":0.35110276562500076},{"name":"G5","midi":79,"time":361.4115839999874,"velocity":0.7637795275590551,"duration":1.5624992187498492},{"name":"E3","midi":52,"time":361.7645249999874,"velocity":0.7637795275590551,"duration":0.3511027656249439},{"name":"D5","midi":74,"time":361.7645249999874,"velocity":0.7637795275590551,"duration":0.11580876562499043},{"name":"C5","midi":72,"time":361.88217199998735,"velocity":0.7637795275590551,"duration":0.11580876562499043},{"name":"B4","midi":71,"time":361.9998189999873,"velocity":0.7637795275590551,"duration":0.11580876562499043},{"name":"E3","midi":52,"time":362.1174659999873,"velocity":0.7637795275590551,"duration":0.35110276562500076},{"name":"C5","midi":72,"time":362.1174659999873,"velocity":0.7637795275590551,"duration":0.35110276562500076},{"name":"E4","midi":64,"time":362.4704069999873,"velocity":0.7637795275590551,"duration":0.3511027656249439},{"name":"E5","midi":76,"time":362.4704069999873,"velocity":0.7637795275590551,"duration":0.11580876562499043},{"name":"D5","midi":74,"time":362.58805399998727,"velocity":0.7637795275590551,"duration":0.11580876562499043},{"name":"C5","midi":72,"time":362.70570099998724,"velocity":0.7637795275590551,"duration":0.11580876562499043},{"name":"E4","midi":64,"time":362.8233479999872,"velocity":0.7637795275590551,"duration":0.35110276562500076},{"name":"C5","midi":72,"time":362.8233479999872,"velocity":0.7637795275590551,"duration":0.17463226562500722},{"name":"G5","midi":79,"time":362.9998184999872,"velocity":0.7637795275590551,"duration":0.8455878124999572},{"name":"E3","midi":52,"time":363.1762889999872,"velocity":0.7637795275590551,"duration":0.35110276562500076},{"name":"A#4","midi":70,"time":363.1762889999872,"velocity":0.7637795275590551,"duration":0.35110276562500076},{"name":"F3","midi":53,"time":363.5292299999872,"velocity":0.7637795275590551,"duration":0.35110276562500076},{"name":"A4","midi":69,"time":363.5292299999872,"velocity":0.7637795275590551,"duration":0.6985290624999152},{"name":"E3","midi":52,"time":363.8821709999872,"velocity":0.7637795275590551,"duration":0.3511027656249439},{"name":"G5","midi":79,"time":363.8821709999872,"velocity":0.7637795275590551,"duration":0.11580876562499043},{"name":"F5","midi":77,"time":363.99981799998716,"velocity":0.7637795275590551,"duration":0.11580876562499043},{"name":"E5","midi":76,"time":364.11746499998713,"velocity":0.7637795275590551,"duration":0.11580876562499043},{"name":"D3","midi":50,"time":364.2351119999871,"velocity":0.7637795275590551,"duration":0.35110276562500076},{"name":"F5","midi":77,"time":364.2351119999871,"velocity":0.7637795275590551,"duration":0.35110276562500076},{"name":"G3","midi":55,"time":364.5880529999871,"velocity":0.7637795275590551,"duration":0.3511027656249439},{"name":"F5","midi":77,"time":364.5880529999871,"velocity":0.7637795275590551,"duration":0.11580876562499043},{"name":"B4","midi":71,"time":364.5880529999871,"velocity":0.7637795275590551,"duration":0.3492645312499576},{"name":"E5","midi":76,"time":364.7056999999871,"velocity":0.7637795275590551,"duration":0.11580876562499043},{"name":"D5","midi":74,"time":364.82334699998705,"velocity":0.7637795275590551,"duration":0.11580876562499043},{"name":"C4","midi":60,"time":364.94099399998703,"velocity":0.7637795275590551,"duration":0.35110276562500076},{"name":"C5","midi":72,"time":364.94099399998703,"velocity":0.7637795275590551,"duration":0.5514703124999869},{"name":"E5","midi":76,"time":364.94099399998703,"velocity":0.7637795275590551,"duration":0.35110276562500076},{"name":"F3","midi":53,"time":365.293934999987,"velocity":0.7637795275590551,"duration":0.35110276562500076},{"name":"E5","midi":76,"time":365.293934999987,"velocity":0.7637795275590551,"duration":0.11580876562499043},{"name":"D5","midi":74,"time":365.411581999987,"velocity":0.7637795275590551,"duration":0.11580876562504727},{"name":"C5","midi":72,"time":365.529228999987,"velocity":0.7637795275590551,"duration":0.11580876562499043},{"name":"G3","midi":55,"time":365.646875999987,"velocity":0.7637795275590551,"duration":0.35110276562500076},{"name":"C5","midi":72,"time":365.646875999987,"velocity":0.7637795275590551,"duration":0.35110276562500076},{"name":"E5","midi":76,"time":365.646875999987,"velocity":0.7637795275590551,"duration":0.35110276562500076},{"name":"G2","midi":43,"time":365.999816999987,"velocity":0.7637795275590551,"duration":0.35110276562500076},{"name":"D5","midi":74,"time":365.999816999987,"velocity":0.7637795275590551,"duration":0.34926453125001444},{"name":"B4","midi":71,"time":365.999816999987,"velocity":0.7637795275590551,"duration":0.34926453125001444},{"name":"G2","midi":43,"time":366.352757999987,"velocity":0.7637795275590551,"duration":0.35110276562500076},{"name":"G3","midi":55,"time":366.70569899998696,"velocity":0.7637795275590551,"duration":0.35110276562500076},{"name":"E5","midi":76,"time":366.70569899998696,"velocity":0.7637795275590551,"duration":0.35110276562500076},{"name":"C6","midi":84,"time":366.70569899998696,"velocity":0.7637795275590551,"duration":0.35110276562500076},{"name":"G3","midi":55,"time":367.05863999998695,"velocity":0.7637795275590551,"duration":0.3511027656248302},{"name":"D5","midi":74,"time":367.05863999998695,"velocity":0.7637795275590551,"duration":0.3492645312498439},{"name":"C6","midi":84,"time":367.05863999998695,"velocity":0.7637795275590551,"duration":0.10661759375000202},{"name":"B5","midi":83,"time":367.11746349998697,"velocity":0.7637795275590551,"duration":0.10661759374994517},{"name":"C6","midi":84,"time":367.1762869999869,"velocity":0.7637795275590551,"duration":0.10661759374994517},{"name":"B5","midi":83,"time":367.2351104999869,"velocity":0.7637795275590551,"duration":0.10661759374994517},{"name":"A5","midi":81,"time":367.29393399998685,"velocity":0.7637795275590551,"duration":0.10661759374994517},{"name":"B5","midi":83,"time":367.3527574999868,"velocity":0.7637795275590551,"duration":0.10661759374994517},{"name":"G2","midi":43,"time":367.41158099998677,"velocity":0.7637795275590551,"duration":0.35110276562500076},{"name":"E5","midi":76,"time":367.41158099998677,"velocity":0.7637795275590551,"duration":0.35110276562500076},{"name":"C6","midi":84,"time":367.41158099998677,"velocity":0.7637795275590551,"duration":0.35110276562500076},{"name":"G3","midi":55,"time":367.76452199998675,"velocity":0.7637795275590551,"duration":0.3511027656249439},{"name":"B4","midi":71,"time":367.76452199998675,"velocity":0.7637795275590551,"duration":0.6985290624998584},{"name":"F5","midi":77,"time":367.76452199998675,"velocity":0.7637795275590551,"duration":0.10661759375000202},{"name":"E5","midi":76,"time":367.8233454999868,"velocity":0.7637795275590551,"duration":0.10661759374994517},{"name":"F5","midi":77,"time":367.88216899998673,"velocity":0.7637795275590551,"duration":0.23345576562496717},{"name":"G2","midi":43,"time":368.1174629999867,"velocity":0.7637795275590551,"duration":0.3511027656249439},{"name":"G5","midi":79,"time":368.1174629999867,"velocity":0.7637795275590551,"duration":0.11580876562499043},{"name":"F5","midi":77,"time":368.23510999998666,"velocity":0.7637795275590551,"duration":0.11580876562499043},{"name":"E5","midi":76,"time":368.35275699998664,"velocity":0.7637795275590551,"duration":0.11580876562499043},{"name":"G2","midi":43,"time":368.4704039999866,"velocity":0.7637795275590551,"duration":0.35110276562500076},{"name":"F5","midi":77,"time":368.4704039999866,"velocity":0.7637795275590551,"duration":0.35110276562500076},{"name":"G3","midi":55,"time":368.8233449999866,"velocity":0.7637795275590551,"duration":0.3511027656249439},{"name":"A5","midi":81,"time":368.8233449999866,"velocity":0.7637795275590551,"duration":0.11580876562499043},{"name":"G5","midi":79,"time":368.9409919999866,"velocity":0.7637795275590551,"duration":0.11580876562499043},{"name":"F5","midi":77,"time":369.05863899998656,"velocity":0.7637795275590551,"duration":0.11580876562499043},{"name":"G3","midi":55,"time":369.17628599998653,"velocity":0.7637795275590551,"duration":0.3511027656249439},{"name":"G5","midi":79,"time":369.17628599998653,"velocity":0.7637795275590551,"duration":0.11580876562499043},{"name":"F5","midi":77,"time":369.2939329999865,"velocity":0.7637795275590551,"duration":0.11580876562499043},{"name":"E5","midi":76,"time":369.4115799999865,"velocity":0.7637795275590551,"duration":0.11580876562499043},{"name":"G2","midi":43,"time":369.52922699998646,"velocity":0.7637795275590551,"duration":0.3511027656249439},{"name":"F5","midi":77,"time":369.52922699998646,"velocity":0.7637795275590551,"duration":0.11580876562499043},{"name":"E5","midi":76,"time":369.64687399998644,"velocity":0.7637795275590551,"duration":0.11580876562499043},{"name":"D5","midi":74,"time":369.7645209999864,"velocity":0.7637795275590551,"duration":0.11580876562499043},{"name":"G3","midi":55,"time":369.8821679999864,"velocity":0.7637795275590551,"duration":0.3511027656249439},{"name":"E5","midi":76,"time":369.8821679999864,"velocity":0.7637795275590551,"duration":0.10661759375000202},{"name":"C5","midi":72,"time":369.8821679999864,"velocity":0.7637795275590551,"duration":0.5147056249999196},{"name":"D5","midi":74,"time":369.9409914999864,"velocity":0.7637795275590551,"duration":0.10661759374994517},{"name":"E5","midi":76,"time":369.99981499998637,"velocity":0.7637795275590551,"duration":0.23345576562496717},{"name":"G2","midi":43,"time":370.2351089999863,"velocity":0.7637795275590551,"duration":0.3511027656249439},{"name":"F5","midi":77,"time":370.2351089999863,"velocity":0.7637795275590551,"duration":0.11580876562499043},{"name":"E5","midi":76,"time":370.3527559999863,"velocity":0.7637795275590551,"duration":0.11580876562499043},{"name":"D5","midi":74,"time":370.4704029999863,"velocity":0.7637795275590551,"duration":0.11580876562499043},{"name":"G2","midi":43,"time":370.58804999998625,"velocity":0.7637795275590551,"duration":0.35110276562500076},{"name":"E5","midi":76,"time":370.58804999998625,"velocity":0.7637795275590551,"duration":0.35110276562500076},{"name":"G3","midi":55,"time":370.94099099998624,"velocity":0.7637795275590551,"duration":0.35110276562500076},{"name":"C6","midi":84,"time":370.94099099998624,"velocity":0.7637795275590551,"duration":0.35110276562500076},{"name":"E5","midi":76,"time":370.94099099998624,"velocity":0.7637795275590551,"duration":0.35110276562500076},{"name":"F3","midi":53,"time":371.2939319999862,"velocity":0.7637795275590551,"duration":0.11580876562499043},{"name":"D5","midi":74,"time":371.2939319999862,"velocity":0.7637795275590551,"duration":0.3492645312498439},{"name":"C6","midi":84,"time":371.2939319999862,"velocity":0.7637795275590551,"duration":0.10661759375000202},{"name":"B5","midi":83,"time":371.35275549998624,"velocity":0.7637795275590551,"duration":0.10661759374994517},{"name":"E3","midi":52,"time":371.4115789999862,"velocity":0.7637795275590551,"duration":0.11580876562493359},{"name":"C6","midi":84,"time":371.4115789999862,"velocity":0.7637795275590551,"duration":0.10661759374994517},{"name":"B5","midi":83,"time":371.47040249998616,"velocity":0.7637795275590551,"duration":0.10661759374994517},{"name":"F3","midi":53,"time":371.5292259999861,"velocity":0.7637795275590551,"duration":0.11580876562493359},{"name":"A5","midi":81,"time":371.5292259999861,"velocity":0.7637795275590551,"duration":0.10661759374994517},{"name":"B5","midi":83,"time":371.5880494999861,"velocity":0.7637795275590551,"duration":0.10661759374994517},{"name":"G3","midi":55,"time":371.64687299998604,"velocity":0.7637795275590551,"duration":0.11580876562499043},{"name":"C6","midi":84,"time":371.64687299998604,"velocity":0.7637795275590551,"duration":0.3511027656249439},{"name":"E5","midi":76,"time":371.64687299998604,"velocity":0.7637795275590551,"duration":0.3511027656249439},{"name":"F3","midi":53,"time":371.764519999986,"velocity":0.7637795275590551,"duration":0.11580876562499043},{"name":"E3","midi":52,"time":371.882166999986,"velocity":0.7637795275590551,"duration":0.11580876562499043},{"name":"F3","midi":53,"time":371.999813999986,"velocity":0.7637795275590551,"duration":0.3511027656249439},{"name":"B4","midi":71,"time":371.999813999986,"velocity":0.7637795275590551,"duration":0.5147056249999196},{"name":"D5","midi":74,"time":371.999813999986,"velocity":0.7637795275590551,"duration":0.10661759375000202},{"name":"C5","midi":72,"time":372.058637499986,"velocity":0.7637795275590551,"duration":0.10661759374994517},{"name":"D5","midi":74,"time":372.11746099998595,"velocity":0.7637795275590551,"duration":0.23345576562496717},{"name":"D3","midi":50,"time":372.3527549999859,"velocity":0.7637795275590551,"duration":0.3511027656249439},{"name":"F5","midi":77,"time":372.3527549999859,"velocity":0.7637795275590551,"duration":0.11580876562499043},{"name":"E5","midi":76,"time":372.4704019999859,"velocity":0.7637795275590551,"duration":0.11580876562499043},{"name":"D5","midi":74,"time":372.58804899998586,"velocity":0.7637795275590551,"duration":0.11580876562499043},{"name":"E3","midi":52,"time":372.70569599998583,"velocity":0.7637795275590551,"duration":0.3511027656249439},{"name":"G5","midi":79,"time":372.70569599998583,"velocity":0.7637795275590551,"duration":0.11580876562499043},{"name":"F5","midi":77,"time":372.8233429999858,"velocity":0.7637795275590551,"duration":0.11580876562499043},{"name":"E5","midi":76,"time":372.9409899999858,"velocity":0.7637795275590551,"duration":0.11580876562499043},{"name":"C3","midi":48,"time":373.05863699998577,"velocity":0.7637795275590551,"duration":0.3511027656249439},{"name":"F5","midi":77,"time":373.05863699998577,"velocity":0.7637795275590551,"duration":0.11580876562499043},{"name":"A4","midi":69,"time":373.05863699998577,"velocity":0.7637795275590551,"duration":0.3492645312499576},{"name":"E5","midi":76,"time":373.17628399998574,"velocity":0.7637795275590551,"duration":0.11580876562499043},{"name":"D5","midi":74,"time":373.2939309999857,"velocity":0.7637795275590551,"duration":0.11580876562499043},{"name":"G3","midi":55,"time":373.4115779999857,"velocity":0.7637795275590551,"duration":0.3511027656249439},{"name":"G4","midi":67,"time":373.4115779999857,"velocity":0.7637795275590551,"duration":0.3492645312499576},{"name":"E5","midi":76,"time":373.4115779999857,"velocity":0.7637795275590551,"duration":0.11580876562499043},{"name":"D5","midi":74,"time":373.5292249999857,"velocity":0.7637795275590551,"duration":0.11580876562499043},{"name":"C5","midi":72,"time":373.64687199998565,"velocity":0.7637795275590551,"duration":0.11580876562499043},{"name":"G2","midi":43,"time":373.7645189999856,"velocity":0.7637795275590551,"duration":0.3511027656249439},{"name":"D5","midi":74,"time":373.7645189999856,"velocity":0.7637795275590551,"duration":0.11580876562499043},{"name":"F4","midi":65,"time":373.7645189999856,"velocity":0.7637795275590551,"duration":0.3492645312499576},{"name":"C5","midi":72,"time":373.8821659999856,"velocity":0.7637795275590551,"duration":0.11580876562499043},{"name":"B4","midi":71,"time":373.9998129999856,"velocity":0.7637795275590551,"duration":0.11580876562499043},{"name":"C3","midi":48,"time":374.11745999998556,"velocity":0.7637795275590551,"duration":0.35110276562500076},{"name":"C5","midi":72,"time":374.11745999998556,"velocity":0.7637795275590551,"duration":1.056984765624975},{"name":"E4","midi":64,"time":374.11745999998556,"velocity":0.7637795275590551,"duration":1.056984765624975},{"name":"G2","midi":43,"time":374.47040099998554,"velocity":0.7637795275590551,"duration":0.35110276562500076},{"name":"C2","midi":36,"time":374.82334199998553,"velocity":0.7637795275590551,"duration":0.35110276562500076},{"name":"C4","midi":60,"time":375.1762829999855,"velocity":0.7637795275590551,"duration":0.35110276562500076},{"name":"C4","midi":60,"time":375.5292239999855,"velocity":0.7637795275590551,"duration":0.10661759375000202},{"name":"B3","midi":59,"time":375.61745924998553,"velocity":0.7637795275590551,"duration":0.10661759374994517},{"name":"A3","midi":57,"time":375.7056944999855,"velocity":0.7637795275590551,"duration":0.10661759374994517},{"name":"B3","midi":59,"time":375.79392974998547,"velocity":0.7637795275590551,"duration":0.10661759374994517},{"name":"C4","midi":60,"time":375.88216499998543,"velocity":0.7637795275590551,"duration":0.35110276562500076},{"name":"G3","midi":55,"time":376.2351059999854,"velocity":0.7637795275590551,"duration":0.35110276562500076},{"name":"A3","midi":57,"time":376.5880469999854,"velocity":0.7637795275590551,"duration":0.11580876562499043},{"name":"G3","midi":55,"time":376.7056939999854,"velocity":0.7637795275590551,"duration":0.11580876562499043},{"name":"F#3","midi":54,"time":376.82334099998536,"velocity":0.7637795275590551,"duration":0.11580876562499043},{"name":"G3","midi":55,"time":376.94098799998534,"velocity":0.7637795275590551,"duration":0.35110276562500076},{"name":"G2","midi":43,"time":377.2939289999853,"velocity":0.7637795275590551,"duration":0.3511027656249439},{"name":"E5","midi":76,"time":377.2939289999853,"velocity":0.7637795275590551,"duration":0.11580876562499043},{"name":"G5","midi":79,"time":377.2939289999853,"velocity":0.7637795275590551,"duration":0.3492645312499576},{"name":"D5","midi":74,"time":377.4115759999853,"velocity":0.7637795275590551,"duration":0.11580876562499043},{"name":"C5","midi":72,"time":377.5292229999853,"velocity":0.7637795275590551,"duration":0.11580876562499043},{"name":"G2","midi":43,"time":377.64686999998526,"velocity":0.7637795275590551,"duration":0.3511027656249439},{"name":"D5","midi":74,"time":377.64686999998526,"velocity":0.7637795275590551,"duration":0.11580876562499043},{"name":"F5","midi":77,"time":377.64686999998526,"velocity":0.7637795275590551,"duration":0.3492645312499576},{"name":"C5","midi":72,"time":377.76451699998523,"velocity":0.7637795275590551,"duration":0.11580876562499043},{"name":"B4","midi":71,"time":377.8821639999852,"velocity":0.7637795275590551,"duration":0.11580876562499043},{"name":"G2","midi":43,"time":377.9998109999852,"velocity":0.7637795275590551,"duration":0.3511027656249439},{"name":"E5","midi":76,"time":377.9998109999852,"velocity":0.7637795275590551,"duration":0.3492645312499576},{"name":"C5","midi":72,"time":377.9998109999852,"velocity":0.7637795275590551,"duration":0.11580876562499043},{"name":"B4","midi":71,"time":378.11745799998516,"velocity":0.7637795275590551,"duration":0.11580876562499043},{"name":"A4","midi":69,"time":378.23510499998514,"velocity":0.7637795275590551,"duration":0.11580876562499043},{"name":"G2","midi":43,"time":378.3527519999851,"velocity":0.7637795275590551,"duration":1.0569847656248612},{"name":"D5","midi":74,"time":378.3527519999851,"velocity":0.7637795275590551,"duration":0.3492645312499576},{"name":"B4","midi":71,"time":378.3527519999851,"velocity":0.7637795275590551,"duration":0.11580876562499043},{"name":"A4","midi":69,"time":378.4703989999851,"velocity":0.7637795275590551,"duration":0.11580876562499043},{"name":"G4","midi":67,"time":378.58804599998507,"velocity":0.7637795275590551,"duration":0.11580876562499043},{"name":"F#5","midi":78,"time":378.70569299998505,"velocity":0.7637795275590551,"duration":0.3492645312499576},{"name":"C5","midi":72,"time":378.70569299998505,"velocity":0.7637795275590551,"duration":0.11580876562499043},{"name":"B4","midi":71,"time":378.823339999985,"velocity":0.7637795275590551,"duration":0.11580876562499043},{"name":"A4","midi":69,"time":378.940986999985,"velocity":0.7637795275590551,"duration":0.11580876562499043},{"name":"B4","midi":71,"time":379.058633999985,"velocity":0.7637795275590551,"duration":0.34926453125001444},{"name":"G5","midi":79,"time":379.058633999985,"velocity":0.7637795275590551,"duration":0.34926453125001444},{"name":"D4","midi":62,"time":379.41157499998496,"velocity":0.7637795275590551,"duration":0.35110276562500076},{"name":"D4","midi":62,"time":379.76451599998495,"velocity":0.7637795275590551,"duration":0.10661759375000202},{"name":"C#4","midi":61,"time":379.852751249985,"velocity":0.7637795275590551,"duration":0.10661759374994517},{"name":"B3","midi":59,"time":379.94098649998494,"velocity":0.7637795275590551,"duration":0.10661759374994517},{"name":"C#4","midi":61,"time":380.0292217499849,"velocity":0.7637795275590551,"duration":0.10661759374994517},{"name":"D4","midi":62,"time":380.1174569999849,"velocity":0.7637795275590551,"duration":0.35110276562500076},{"name":"A3","midi":57,"time":380.47039799998487,"velocity":0.7637795275590551,"duration":0.35110276562500076},{"name":"B3","midi":59,"time":380.82333899998486,"velocity":0.7637795275590551,"duration":0.11580876562499043},{"name":"A3","midi":57,"time":380.94098599998483,"velocity":0.7637795275590551,"duration":0.11580876562499043},{"name":"G#3","midi":56,"time":381.0586329999848,"velocity":0.7637795275590551,"duration":0.11580876562499043},{"name":"A3","midi":57,"time":381.1762799999848,"velocity":0.7637795275590551,"duration":0.35110276562500076},{"name":"A2","midi":45,"time":381.5292209999848,"velocity":0.7637795275590551,"duration":0.3511027656249439},{"name":"A4","midi":69,"time":381.5292209999848,"velocity":0.7637795275590551,"duration":0.3492645312499576},{"name":"F5","midi":77,"time":381.5292209999848,"velocity":0.7637795275590551,"duration":0.11580876562499043},{"name":"E5","midi":76,"time":381.64686799998475,"velocity":0.7637795275590551,"duration":0.11580876562499043},{"name":"D5","midi":74,"time":381.7645149999847,"velocity":0.7637795275590551,"duration":0.11580876562499043},{"name":"A2","midi":45,"time":381.8821619999847,"velocity":0.7637795275590551,"duration":0.3511027656249439},{"name":"E5","midi":76,"time":381.8821619999847,"velocity":0.7637795275590551,"duration":0.11580876562499043},{"name":"G4","midi":67,"time":381.8821619999847,"velocity":0.7637795275590551,"duration":0.3492645312499576},{"name":"D5","midi":74,"time":381.9998089999847,"velocity":0.7637795275590551,"duration":0.11580876562499043},{"name":"C#5","midi":73,"time":382.11745599998466,"velocity":0.7637795275590551,"duration":0.11580876562499043},{"name":"A2","midi":45,"time":382.23510299998463,"velocity":0.7637795275590551,"duration":0.3511027656249439},{"name":"D5","midi":74,"time":382.23510299998463,"velocity":0.7637795275590551,"duration":0.11580876562499043},{"name":"F4","midi":65,"time":382.23510299998463,"velocity":0.7637795275590551,"duration":0.3492645312499576},{"name":"C#5","midi":73,"time":382.3527499999846,"velocity":0.7637795275590551,"duration":0.11580876562499043},{"name":"B4","midi":71,"time":382.4703969999846,"velocity":0.7637795275590551,"duration":0.11580876562499043},{"name":"A2","midi":45,"time":382.58804399998456,"velocity":0.7637795275590551,"duration":0.882352499999854},{"name":"E4","midi":64,"time":382.58804399998456,"velocity":0.7637795275590551,"duration":0.3492645312499576},{"name":"C#5","midi":73,"time":382.58804399998456,"velocity":0.7637795275590551,"duration":0.11580876562499043},{"name":"B4","midi":71,"time":382.70569099998454,"velocity":0.7637795275590551,"duration":0.11580876562499043},{"name":"A4","midi":69,"time":382.8233379999845,"velocity":0.7637795275590551,"duration":0.11580876562499043},{"name":"G#4","midi":68,"time":382.9409849999845,"velocity":0.7637795275590551,"duration":0.3492645312499576},{"name":"D5","midi":74,"time":382.9409849999845,"velocity":0.7637795275590551,"duration":0.11580876562499043},{"name":"C#5","midi":73,"time":383.05863199998447,"velocity":0.7637795275590551,"duration":0.11580876562499043},{"name":"B4","midi":71,"time":383.17627899998445,"velocity":0.7637795275590551,"duration":0.11580876562499043},{"name":"A4","midi":69,"time":383.2939259999844,"velocity":0.7637795275590551,"duration":0.35110276562500076},{"name":"C#5","midi":73,"time":383.2939259999844,"velocity":0.7637795275590551,"duration":0.35110276562500076},{"name":"A3","midi":57,"time":383.6468669999844,"velocity":0.7637795275590551,"duration":0.3511027656249439},{"name":"A4","midi":69,"time":383.6468669999844,"velocity":0.7637795275590551,"duration":0.11580876562499043},{"name":"B4","midi":71,"time":383.7645139999844,"velocity":0.7637795275590551,"duration":0.11580876562499043},{"name":"C#5","midi":73,"time":383.88216099998436,"velocity":0.7637795275590551,"duration":0.11580876562499043},{"name":"A3","midi":57,"time":383.99980799998434,"velocity":0.7637795275590551,"duration":0.10661759375000202},{"name":"C#5","midi":73,"time":383.99980799998434,"velocity":0.7637795275590551,"duration":0.11580876562499043},{"name":"G3","midi":55,"time":384.08804324998437,"velocity":0.7637795275590551,"duration":0.10661759374994517},{"name":"D5","midi":74,"time":384.1174549999843,"velocity":0.7637795275590551,"duration":0.11580876562499043},{"name":"F3","midi":53,"time":384.17627849998433,"velocity":0.7637795275590551,"duration":0.10661759374994517},{"name":"E5","midi":76,"time":384.2351019999843,"velocity":0.7637795275590551,"duration":0.11580876562499043},{"name":"G3","midi":55,"time":384.2645137499843,"velocity":0.7637795275590551,"duration":0.10661759374994517},{"name":"A3","midi":57,"time":384.35274899998427,"velocity":0.7637795275590551,"duration":0.3511027656249439},{"name":"E5","midi":76,"time":384.35274899998427,"velocity":0.7637795275590551,"duration":0.11580876562499043},{"name":"F5","midi":77,"time":384.47039599998425,"velocity":0.7637795275590551,"duration":0.11580876562499043},{"name":"G5","midi":79,"time":384.5880429999842,"velocity":0.7637795275590551,"duration":0.11580876562499043},{"name":"D3","midi":50,"time":384.7056899999842,"velocity":0.7637795275590551,"duration":0.3511027656249439},{"name":"F5","midi":77,"time":384.7056899999842,"velocity":0.7637795275590551,"duration":0.11580876562499043},{"name":"E5","midi":76,"time":384.8233369999842,"velocity":0.7637795275590551,"duration":0.11580876562499043},{"name":"F5","midi":77,"time":384.94098399998416,"velocity":0.7637795275590551,"duration":0.11580876562499043},{"name":"E3","midi":52,"time":385.05863099998413,"velocity":0.7637795275590551,"duration":0.11580876562499043},{"name":"G5","midi":79,"time":385.05863099998413,"velocity":0.7637795275590551,"duration":0.11580876562499043},{"name":"D3","midi":50,"time":385.1762779999841,"velocity":0.7637795275590551,"duration":0.11580876562499043},{"name":"F5","midi":77,"time":385.1762779999841,"velocity":0.7637795275590551,"duration":0.11580876562499043},{"name":"C#3","midi":49,"time":385.2939249999841,"velocity":0.7637795275590551,"duration":0.11580876562499043},{"name":"E5","midi":76,"time":385.2939249999841,"velocity":0.7637795275590551,"duration":0.11580876562499043},{"name":"D3","midi":50,"time":385.41157199998406,"velocity":0.7637795275590551,"duration":0.35110276562500076},{"name":"F5","midi":77,"time":385.41157199998406,"velocity":0.7637795275590551,"duration":0.5735291249999364},{"name":"D4","midi":62,"time":385.76451299998405,"velocity":0.7637795275590551,"duration":0.3511027656249439},{"name":"D5","midi":74,"time":385.76451299998405,"velocity":0.7637795275590551,"duration":0.11580876562499043},{"name":"E5","midi":76,"time":385.882159999984,"velocity":0.7637795275590551,"duration":0.11580876562499043},{"name":"F5","midi":77,"time":385.999806999984,"velocity":0.7637795275590551,"duration":0.11580876562499043},{"name":"D4","midi":62,"time":386.117453999984,"velocity":0.7637795275590551,"duration":0.10661759375000202},{"name":"F5","midi":77,"time":386.117453999984,"velocity":0.7637795275590551,"duration":1.4099257656247346},{"name":"C#4","midi":61,"time":386.205689249984,"velocity":0.7637795275590551,"duration":0.10661759374994517},{"name":"G5","midi":79,"time":386.23510099998396,"velocity":0.7637795275590551,"duration":0.11580876562499043},{"name":"B3","midi":59,"time":386.293924499984,"velocity":0.7637795275590551,"duration":0.10661759374994517},{"name":"A5","midi":81,"time":386.35274799998393,"velocity":0.7637795275590551,"duration":0.11580876562499043},{"name":"C#4","midi":61,"time":386.38215974998394,"velocity":0.7637795275590551,"duration":0.10661759374994517},{"name":"D4","midi":62,"time":386.4703949999839,"velocity":0.7637795275590551,"duration":0.3511027656249439},{"name":"A5","midi":81,"time":386.4703949999839,"velocity":0.7637795275590551,"duration":0.11580876562499043},{"name":"A#5","midi":82,"time":386.5880419999839,"velocity":0.7637795275590551,"duration":0.11580876562499043},{"name":"C6","midi":84,"time":386.70568899998386,"velocity":0.7637795275590551,"duration":0.11580876562499043},{"name":"G3","midi":55,"time":386.82333599998384,"velocity":0.7637795275590551,"duration":0.3511027656249439},{"name":"A#5","midi":82,"time":386.82333599998384,"velocity":0.7637795275590551,"duration":0.11580876562499043},{"name":"A5","midi":81,"time":386.9409829999838,"velocity":0.7637795275590551,"duration":0.11580876562499043},{"name":"A#5","midi":82,"time":387.0586299999838,"velocity":0.7637795275590551,"duration":0.11580876562499043},{"name":"A3","midi":57,"time":387.17627699998377,"velocity":0.7637795275590551,"duration":0.11580876562499043},{"name":"C6","midi":84,"time":387.17627699998377,"velocity":0.7637795275590551,"duration":0.11580876562499043},{"name":"G3","midi":55,"time":387.29392399998375,"velocity":0.7637795275590551,"duration":0.11580876562499043},{"name":"A#5","midi":82,"time":387.29392399998375,"velocity":0.7637795275590551,"duration":0.11580876562499043},{"name":"F3","midi":53,"time":387.4115709999837,"velocity":0.7637795275590551,"duration":0.11580876562499043},{"name":"A5","midi":81,"time":387.4115709999837,"velocity":0.7637795275590551,"duration":0.11580876562499043},{"name":"G3","midi":55,"time":387.5292179999837,"velocity":0.7637795275590551,"duration":0.35110276562500076},{"name":"A#5","midi":82,"time":387.5292179999837,"velocity":0.7637795275590551,"duration":0.35110276562500076},{"name":"E5","midi":76,"time":387.5292179999837,"velocity":0.7637795275590551,"duration":0.5735291249999364},{"name":"C4","midi":60,"time":387.8821589999837,"velocity":0.7637795275590551,"duration":0.3511027656249439},{"name":"C5","midi":72,"time":387.8821589999837,"velocity":0.7637795275590551,"duration":0.11580876562499043},{"name":"D5","midi":74,"time":387.99980599998366,"velocity":0.7637795275590551,"duration":0.11580876562499043},{"name":"E5","midi":76,"time":388.11745299998364,"velocity":0.7637795275590551,"duration":0.11580876562499043},{"name":"C4","midi":60,"time":388.2350999999836,"velocity":0.7637795275590551,"duration":0.10661759375000202},{"name":"E5","midi":76,"time":388.2350999999836,"velocity":0.7637795275590551,"duration":1.4099257656247346},{"name":"A#3","midi":58,"time":388.32333524998364,"velocity":0.7637795275590551,"duration":0.10661759374994517},{"name":"F5","midi":77,"time":388.3527469999836,"velocity":0.7637795275590551,"duration":0.11580876562499043},{"name":"A3","midi":57,"time":388.4115704999836,"velocity":0.7637795275590551,"duration":0.10661759374994517},{"name":"G5","midi":79,"time":388.47039399998357,"velocity":0.7637795275590551,"duration":0.11580876562499043},{"name":"A#3","midi":58,"time":388.4998057499836,"velocity":0.7637795275590551,"duration":0.10661759374994517},{"name":"C4","midi":60,"time":388.58804099998355,"velocity":0.7637795275590551,"duration":0.3511027656249439},{"name":"G5","midi":79,"time":388.58804099998355,"velocity":0.7637795275590551,"duration":0.11580876562499043},{"name":"A5","midi":81,"time":388.7056879999835,"velocity":0.7637795275590551,"duration":0.11580876562499043},{"name":"A#5","midi":82,"time":388.8233349999835,"velocity":0.7637795275590551,"duration":0.11580876562499043},{"name":"F3","midi":53,"time":388.9409819999835,"velocity":0.7637795275590551,"duration":0.3511027656249439},{"name":"A5","midi":81,"time":388.9409819999835,"velocity":0.7637795275590551,"duration":0.11580876562499043},{"name":"G5","midi":79,"time":389.05862899998345,"velocity":0.7637795275590551,"duration":0.11580876562499043},{"name":"A5","midi":81,"time":389.17627599998343,"velocity":0.7637795275590551,"duration":0.11580876562499043},{"name":"G3","midi":55,"time":389.2939229999834,"velocity":0.7637795275590551,"duration":0.11580876562499043},{"name":"A#5","midi":82,"time":389.2939229999834,"velocity":0.7637795275590551,"duration":0.11580876562499043},{"name":"F3","midi":53,"time":389.4115699999834,"velocity":0.7637795275590551,"duration":0.11580876562499043},{"name":"A5","midi":81,"time":389.4115699999834,"velocity":0.7637795275590551,"duration":0.11580876562499043},{"name":"E3","midi":52,"time":389.52921699998336,"velocity":0.7637795275590551,"duration":0.11580876562499043},{"name":"G5","midi":79,"time":389.52921699998336,"velocity":0.7637795275590551,"duration":0.11580876562499043},{"name":"F3","midi":53,"time":389.64686399998334,"velocity":0.7637795275590551,"duration":0.35110276562500076},{"name":"A5","midi":81,"time":389.64686399998334,"velocity":0.7637795275590551,"duration":0.35110276562500076},{"name":"D5","midi":74,"time":389.64686399998334,"velocity":0.7637795275590551,"duration":0.35110276562500076},{"name":"A#3","midi":58,"time":389.9998049999833,"velocity":0.7637795275590551,"duration":0.35110276562500076},{"name":"D5","midi":74,"time":389.9998049999833,"velocity":0.7637795275590551,"duration":0.35110276562500076},{"name":"F4","midi":65,"time":389.9998049999833,"velocity":0.7637795275590551,"duration":0.35110276562500076},{"name":"G3","midi":55,"time":390.3527459999833,"velocity":0.7637795275590551,"duration":0.35110276562500076},{"name":"G4","midi":67,"time":390.3527459999833,"velocity":0.7637795275590551,"duration":0.35110276562500076},{"name":"E5","midi":76,"time":390.3527459999833,"velocity":0.7637795275590551,"duration":0.35110276562500076},{"name":"A3","midi":57,"time":390.7056869999833,"velocity":0.7637795275590551,"duration":0.35110276562500076},{"name":"C#5","midi":73,"time":390.7056869999833,"velocity":0.7637795275590551,"duration":0.35110276562500076},{"name":"E4","midi":64,"time":390.7056869999833,"velocity":0.7637795275590551,"duration":0.35110276562500076},{"name":"D3","midi":50,"time":391.0586279999833,"velocity":0.7637795275590551,"duration":0.35110276562500076},{"name":"D5","midi":74,"time":391.0586279999833,"velocity":0.7637795275590551,"duration":0.698529062499972},{"name":"F4","midi":65,"time":391.0586279999833,"velocity":0.7637795275590551,"duration":0.8823524999999677},{"name":"A2","midi":45,"time":391.4115689999833,"velocity":0.7637795275590551,"duration":0.35110276562500076},{"name":"D2","midi":38,"time":391.76450999998326,"velocity":0.7637795275590551,"duration":0.35110276562500076},{"name":"A3","midi":57,"time":392.11745099998325,"velocity":0.7637795275590551,"duration":0.11580876562499043},{"name":"F5","midi":77,"time":392.11745099998325,"velocity":0.7637795275590551,"duration":0.3511027656249439},{"name":"D5","midi":74,"time":392.11745099998325,"velocity":0.7637795275590551,"duration":0.3511027656249439},{"name":"G3","midi":55,"time":392.2350979999832,"velocity":0.7637795275590551,"duration":0.11580876562499043},{"name":"F3","midi":53,"time":392.3527449999832,"velocity":0.7637795275590551,"duration":0.11580876562499043},{"name":"F3","midi":53,"time":392.4703919999832,"velocity":0.7637795275590551,"duration":0.11580876562499043},{"name":"F5","midi":77,"time":392.4703919999832,"velocity":0.7637795275590551,"duration":0.3511027656249439},{"name":"D5","midi":74,"time":392.4703919999832,"velocity":0.7637795275590551,"duration":0.3511027656249439},{"name":"E3","midi":52,"time":392.58803899998316,"velocity":0.7637795275590551,"duration":0.11580876562499043},{"name":"D3","midi":50,"time":392.70568599998313,"velocity":0.7637795275590551,"duration":0.11580876562499043},{"name":"D3","midi":50,"time":392.8233329999831,"velocity":0.7637795275590551,"duration":0.11580876562499043},{"name":"F5","midi":77,"time":392.8233329999831,"velocity":0.7637795275590551,"duration":0.3511027656249439},{"name":"D5","midi":74,"time":392.8233329999831,"velocity":0.7637795275590551,"duration":0.3511027656249439},{"name":"C3","midi":48,"time":392.9409799999831,"velocity":0.7637795275590551,"duration":0.11580876562499043},{"name":"B2","midi":47,"time":393.05862699998306,"velocity":0.7637795275590551,"duration":0.11580876562499043},{"name":"B2","midi":47,"time":393.17627399998304,"velocity":0.7637795275590551,"duration":0.11580876562499043},{"name":"F5","midi":77,"time":393.17627399998304,"velocity":0.7637795275590551,"duration":1.0569847656248044},{"name":"D5","midi":74,"time":393.17627399998304,"velocity":0.7637795275590551,"duration":1.0569847656248044},{"name":"A2","midi":45,"time":393.293920999983,"velocity":0.7637795275590551,"duration":0.11580876562499043},{"name":"G2","midi":43,"time":393.411567999983,"velocity":0.7637795275590551,"duration":0.11580876562499043},{"name":"G2","midi":43,"time":393.52921499998297,"velocity":0.7637795275590551,"duration":0.11580876562499043},{"name":"A2","midi":45,"time":393.64686199998295,"velocity":0.7637795275590551,"duration":0.11580876562499043},{"name":"B2","midi":47,"time":393.7645089999829,"velocity":0.7637795275590551,"duration":0.11580876562499043},{"name":"B2","midi":47,"time":393.8821559999829,"velocity":0.7637795275590551,"duration":0.11580876562499043},{"name":"C3","midi":48,"time":393.9998029999829,"velocity":0.7637795275590551,"duration":0.11580876562499043},{"name":"D3","midi":50,"time":394.11744999998285,"velocity":0.7637795275590551,"duration":0.11580876562499043},{"name":"D3","midi":50,"time":394.23509699998283,"velocity":0.7637795275590551,"duration":0.11580876562499043},{"name":"F5","midi":77,"time":394.23509699998283,"velocity":0.7637795275590551,"duration":0.3511027656249439},{"name":"D5","midi":74,"time":394.23509699998283,"velocity":0.7637795275590551,"duration":0.3511027656249439},{"name":"E3","midi":52,"time":394.3527439999828,"velocity":0.7637795275590551,"duration":0.11580876562499043},{"name":"F3","midi":53,"time":394.4703909999828,"velocity":0.7637795275590551,"duration":0.11580876562499043},{"name":"G3","midi":55,"time":394.58803799998276,"velocity":0.7637795275590551,"duration":0.3511027656249439},{"name":"E5","midi":76,"time":394.58803799998276,"velocity":0.7637795275590551,"duration":0.11580876562499043},{"name":"C5","midi":72,"time":394.58803799998276,"velocity":0.7637795275590551,"duration":0.3492645312499576},{"name":"D5","midi":74,"time":394.70568499998274,"velocity":0.7637795275590551,"duration":0.11580876562499043},{"name":"E5","midi":76,"time":394.8233319999827,"velocity":0.7637795275590551,"duration":0.11580876562499043},{"name":"G2","midi":43,"time":394.9409789999827,"velocity":0.7637795275590551,"duration":0.3511027656249439},{"name":"B4","midi":71,"time":394.9409789999827,"velocity":0.7637795275590551,"duration":0.3492645312499576},{"name":"F5","midi":77,"time":394.9409789999827,"velocity":0.7637795275590551,"duration":0.11580876562499043},{"name":"E5","midi":76,"time":395.05862599998267,"velocity":0.7637795275590551,"duration":0.11580876562499043},{"name":"D5","midi":74,"time":395.17627299998264,"velocity":0.7637795275590551,"duration":0.11580876562499043},{"name":"C3","midi":48,"time":395.2939199999826,"velocity":0.7637795275590551,"duration":0.11580876562499043},{"name":"E5","midi":76,"time":395.2939199999826,"velocity":0.7637795275590551,"duration":0.3511027656249439},{"name":"C5","midi":72,"time":395.2939199999826,"velocity":0.7637795275590551,"duration":0.3511027656249439},{"name":"D3","midi":50,"time":395.4115669999826,"velocity":0.7637795275590551,"duration":0.11580876562499043},{"name":"E3","midi":52,"time":395.5292139999826,"velocity":0.7637795275590551,"duration":0.11580876562499043},{"name":"E3","midi":52,"time":395.64686099998255,"velocity":0.7637795275590551,"duration":0.11580876562499043},{"name":"D5","midi":74,"time":395.64686099998255,"velocity":0.7637795275590551,"duration":0.17463226562495038},{"name":"F3","midi":53,"time":395.7645079999825,"velocity":0.7637795275590551,"duration":0.11580876562493359},{"name":"E5","midi":76,"time":395.8233314999825,"velocity":0.7637795275590551,"duration":0.17463226562495038},{"name":"G3","midi":55,"time":395.88215499998245,"velocity":0.7637795275590551,"duration":0.11580876562499043},{"name":"G3","midi":55,"time":395.9998019999824,"velocity":0.7637795275590551,"duration":0.11580876562499043},{"name":"C5","midi":72,"time":395.9998019999824,"velocity":0.7637795275590551,"duration":0.3511027656249439},{"name":"A3","midi":57,"time":396.1174489999824,"velocity":0.7637795275590551,"duration":0.11580876562499043},{"name":"B3","midi":59,"time":396.2350959999824,"velocity":0.7637795275590551,"duration":0.11580876562499043},{"name":"C4","midi":60,"time":396.35274299998235,"velocity":0.7637795275590551,"duration":0.35110276562500076},{"name":"E4","midi":64,"time":396.35274299998235,"velocity":0.7637795275590551,"duration":0.35110276562500076},{"name":"A5","midi":81,"time":396.35274299998235,"velocity":0.7637795275590551,"duration":0.35110276562500076},{"name":"B3","midi":59,"time":396.70568399998234,"velocity":0.7637795275590551,"duration":0.3511027656248302},{"name":"D4","midi":62,"time":396.70568399998234,"velocity":0.7637795275590551,"duration":0.3511027656248302},{"name":"A5","midi":81,"time":396.70568399998234,"velocity":0.7637795275590551,"duration":0.10661759375000202},{"name":"G#5","midi":80,"time":396.76450749998236,"velocity":0.7637795275590551,"duration":0.10661759374994517},{"name":"A5","midi":81,"time":396.8233309999823,"velocity":0.7637795275590551,"duration":0.10661759374994517},{"name":"G#5","midi":80,"time":396.8821544999823,"velocity":0.7637795275590551,"duration":0.10661759374994517},{"name":"F#5","midi":78,"time":396.94097799998224,"velocity":0.7637795275590551,"duration":0.10661759374994517},{"name":"G#5","midi":80,"time":396.9998014999822,"velocity":0.7637795275590551,"duration":0.10661759374994517},{"name":"C4","midi":60,"time":397.05862499998216,"velocity":0.7637795275590551,"duration":0.35110276562500076},{"name":"A3","midi":57,"time":397.05862499998216,"velocity":0.7637795275590551,"duration":0.35110276562500076},{"name":"A5","midi":81,"time":397.05862499998216,"velocity":0.7637795275590551,"duration":0.35110276562500076},{"name":"G#3","midi":56,"time":397.41156599998214,"velocity":0.7637795275590551,"duration":0.35110276562500076},{"name":"B3","midi":59,"time":397.41156599998214,"velocity":0.7637795275590551,"duration":0.35110276562500076},{"name":"D5","midi":74,"time":397.41156599998214,"velocity":0.7637795275590551,"duration":0.35110276562500076},{"name":"A3","midi":57,"time":397.76450699998213,"velocity":0.7637795275590551,"duration":0.3511027656249439},{"name":"F#3","midi":54,"time":397.76450699998213,"velocity":0.7637795275590551,"duration":0.3511027656249439},{"name":"E5","midi":76,"time":397.76450699998213,"velocity":0.7637795275590551,"duration":0.11580876562499043},{"name":"D5","midi":74,"time":397.8821539999821,"velocity":0.7637795275590551,"duration":0.11580876562499043},{"name":"C5","midi":72,"time":397.9998009999821,"velocity":0.7637795275590551,"duration":0.11580876562499043},{"name":"G#3","midi":56,"time":398.11744799998206,"velocity":0.7637795275590551,"duration":0.3511027656249439},{"name":"B3","midi":59,"time":398.11744799998206,"velocity":0.7637795275590551,"duration":0.3511027656249439},{"name":"D5","midi":74,"time":398.11744799998206,"velocity":0.7637795275590551,"duration":0.11580876562499043},{"name":"C5","midi":72,"time":398.23509499998204,"velocity":0.7637795275590551,"duration":0.11580876562499043},{"name":"B4","midi":71,"time":398.352741999982,"velocity":0.7637795275590551,"duration":0.11580876562499043},{"name":"E4","midi":64,"time":398.470388999982,"velocity":0.7637795275590551,"duration":0.3511027656249439},{"name":"A3","midi":57,"time":398.470388999982,"velocity":0.7637795275590551,"duration":0.3511027656249439},{"name":"C5","midi":72,"time":398.470388999982,"velocity":0.7637795275590551,"duration":0.11580876562499043},{"name":"B4","midi":71,"time":398.58803599998197,"velocity":0.7637795275590551,"duration":0.11580876562499043},{"name":"A4","midi":69,"time":398.70568299998195,"velocity":0.7637795275590551,"duration":0.11580876562499043},{"name":"F3","midi":53,"time":398.8233299999819,"velocity":0.7637795275590551,"duration":0.3511027656249439},{"name":"D4","midi":62,"time":398.8233299999819,"velocity":0.7637795275590551,"duration":0.3511027656249439},{"name":"B4","midi":71,"time":398.8233299999819,"velocity":0.7637795275590551,"duration":0.11580876562499043},{"name":"A4","midi":69,"time":398.9409769999819,"velocity":0.7637795275590551,"duration":0.11580876562499043},{"name":"G#4","midi":68,"time":399.0586239999819,"velocity":0.7637795275590551,"duration":0.11580876562499043},{"name":"C4","midi":60,"time":399.17627099998185,"velocity":0.7637795275590551,"duration":0.3511027656249439},{"name":"D3","midi":50,"time":399.17627099998185,"velocity":0.7637795275590551,"duration":0.3511027656249439},{"name":"A4","midi":69,"time":399.17627099998185,"velocity":0.7637795275590551,"duration":0.11580876562499043},{"name":"G#4","midi":68,"time":399.29391799998183,"velocity":0.7637795275590551,"duration":0.11580876562499043},{"name":"F#4","midi":66,"time":399.4115649999818,"velocity":0.7637795275590551,"duration":0.11580876562499043},{"name":"E3","midi":52,"time":399.5292119999818,"velocity":0.7637795275590551,"duration":0.3511027656249439},{"name":"B3","midi":59,"time":399.5292119999818,"velocity":0.7637795275590551,"duration":0.3511027656249439},{"name":"G#4","midi":68,"time":399.5292119999818,"velocity":0.7637795275590551,"duration":0.11580876562499043},{"name":"A4","midi":69,"time":399.64685899998176,"velocity":0.7637795275590551,"duration":0.11580876562499043},{"name":"B4","midi":71,"time":399.76450599998174,"velocity":0.7637795275590551,"duration":0.11580876562499043},{"name":"E2","midi":40,"time":399.8821529999817,"velocity":0.7637795275590551,"duration":0.3511027656249439},{"name":"A4","midi":69,"time":399.8821529999817,"velocity":0.7637795275590551,"duration":0.11580876562499043},{"name":"G#4","midi":68,"time":399.9997999999817,"velocity":0.7637795275590551,"duration":0.11580876562499043},{"name":"F#4","midi":66,"time":400.11744699998167,"velocity":0.7637795275590551,"duration":0.11580876562499043},{"name":"E2","midi":40,"time":400.23509399998164,"velocity":0.7637795275590551,"duration":0.35110276562500076},{"name":"E4","midi":64,"time":400.23509399998164,"velocity":0.7637795275590551,"duration":0.35110276562500076},{"name":"E3","midi":52,"time":400.58803499998163,"velocity":0.7637795275590551,"duration":0.35110276562500076},{"name":"C5","midi":72,"time":400.58803499998163,"velocity":0.7637795275590551,"duration":0.35110276562500076},{"name":"A4","midi":69,"time":400.58803499998163,"velocity":0.7637795275590551,"duration":0.35110276562500076},{"name":"E3","midi":52,"time":400.9409759999816,"velocity":0.7637795275590551,"duration":0.3511027656248302},{"name":"G#4","midi":68,"time":400.9409759999816,"velocity":0.7637795275590551,"duration":0.3492645312498439},{"name":"C5","midi":72,"time":400.9409759999816,"velocity":0.7637795275590551,"duration":0.10661759375000202},{"name":"B4","midi":71,"time":400.99979949998163,"velocity":0.7637795275590551,"duration":0.10661759374994517},{"name":"C5","midi":72,"time":401.0586229999816,"velocity":0.7637795275590551,"duration":0.10661759374994517},{"name":"B4","midi":71,"time":401.11744649998155,"velocity":0.7637795275590551,"duration":0.10661759374994517},{"name":"A4","midi":69,"time":401.1762699999815,"velocity":0.7637795275590551,"duration":0.10661759374994517},{"name":"B4","midi":71,"time":401.2350934999815,"velocity":0.7637795275590551,"duration":0.10661759374994517},{"name":"E2","midi":40,"time":401.29391699998143,"velocity":0.7637795275590551,"duration":0.35110276562500076},{"name":"A4","midi":69,"time":401.29391699998143,"velocity":0.7637795275590551,"duration":0.35110276562500076},{"name":"C5","midi":72,"time":401.29391699998143,"velocity":0.7637795275590551,"duration":0.35110276562500076},{"name":"E3","midi":52,"time":401.6468579999814,"velocity":0.7637795275590551,"duration":0.3511027656249439},{"name":"D5","midi":74,"time":401.6468579999814,"velocity":0.7637795275590551,"duration":0.10661759375000202},{"name":"B4","midi":71,"time":401.6468579999814,"velocity":0.7637795275590551,"duration":0.5147056249999196},{"name":"C5","midi":72,"time":401.70568149998144,"velocity":0.7637795275590551,"duration":0.10661759374994517},{"name":"D5","midi":74,"time":401.7645049999814,"velocity":0.7637795275590551,"duration":0.23345576562496717},{"name":"E2","midi":40,"time":401.99979899998135,"velocity":0.7637795275590551,"duration":0.3511027656249439},{"name":"C5","midi":72,"time":401.99979899998135,"velocity":0.7637795275590551,"duration":0.11580876562499043},{"name":"D5","midi":74,"time":402.1174459999813,"velocity":0.7637795275590551,"duration":0.11580876562499043},{"name":"E5","midi":76,"time":402.2350929999813,"velocity":0.7637795275590551,"duration":0.11580876562499043},{"name":"E2","midi":40,"time":402.3527399999813,"velocity":0.7637795275590551,"duration":0.35110276562500076},{"name":"D5","midi":74,"time":402.3527399999813,"velocity":0.7637795275590551,"duration":0.35110276562500076},{"name":"E3","midi":52,"time":402.70568099998127,"velocity":0.7637795275590551,"duration":0.3511027656249439},{"name":"B4","midi":71,"time":402.70568099998127,"velocity":0.7637795275590551,"duration":0.11580876562499043},{"name":"G#4","midi":68,"time":402.70568099998127,"velocity":0.7637795275590551,"duration":0.3492645312499576},{"name":"C5","midi":72,"time":402.82332799998125,"velocity":0.7637795275590551,"duration":0.11580876562499043},{"name":"D5","midi":74,"time":402.9409749999812,"velocity":0.7637795275590551,"duration":0.11580876562499043},{"name":"E3","midi":52,"time":403.0586219999812,"velocity":0.7637795275590551,"duration":0.3511027656249439},{"name":"C5","midi":72,"time":403.0586219999812,"velocity":0.7637795275590551,"duration":0.11580876562499043},{"name":"A4","midi":69,"time":403.0586219999812,"velocity":0.7637795275590551,"duration":0.3492645312499576},{"name":"D5","midi":74,"time":403.1762689999812,"velocity":0.7637795275590551,"duration":0.11580876562499043},{"name":"E5","midi":76,"time":403.29391599998115,"velocity":0.7637795275590551,"duration":0.11580876562499043},{"name":"E2","midi":40,"time":403.41156299998113,"velocity":0.7637795275590551,"duration":0.3511027656249439},{"name":"D5","midi":74,"time":403.41156299998113,"velocity":0.7637795275590551,"duration":0.11580876562499043},{"name":"B4","midi":71,"time":403.41156299998113,"velocity":0.7637795275590551,"duration":0.3492645312499576},{"name":"E5","midi":76,"time":403.5292099999811,"velocity":0.7637795275590551,"duration":0.11580876562499043},{"name":"F5","midi":77,"time":403.6468569999811,"velocity":0.7637795275590551,"duration":0.11580876562499043},{"name":"D3","midi":50,"time":403.76450399998106,"velocity":0.7637795275590551,"duration":0.3511027656249439},{"name":"G#4","midi":68,"time":403.76450399998106,"velocity":0.7637795275590551,"duration":0.6985290624998584},{"name":"E5","midi":76,"time":403.76450399998106,"velocity":0.7637795275590551,"duration":0.11580876562499043},{"name":"D5","midi":74,"time":403.88215099998104,"velocity":0.7637795275590551,"duration":0.11580876562499043},{"name":"E5","midi":76,"time":403.999797999981,"velocity":0.7637795275590551,"duration":0.11580876562499043},{"name":"D2","midi":38,"time":404.117444999981,"velocity":0.7637795275590551,"duration":0.3511027656249439},{"name":"F5","midi":77,"time":404.117444999981,"velocity":0.7637795275590551,"duration":0.11580876562499043},{"name":"E5","midi":76,"time":404.23509199998097,"velocity":0.7637795275590551,"duration":0.11580876562499043},{"name":"D5","midi":74,"time":404.35273899998094,"velocity":0.7637795275590551,"duration":0.11580876562499043},{"name":"D2","midi":38,"time":404.4703859999809,"velocity":0.7637795275590551,"duration":0.2573528125000166},{"name":"E5","midi":76,"time":404.4703859999809,"velocity":0.7637795275590551,"duration":0.35110276562500076},{"name":"C4","midi":60,"time":404.8233269999809,"velocity":0.7637795275590551,"duration":0.35110276562500076},{"name":"A5","midi":81,"time":404.8233269999809,"velocity":0.7637795275590551,"duration":0.35110276562500076},{"name":"E5","midi":76,"time":404.8233269999809,"velocity":0.7637795275590551,"duration":0.35110276562500076},{"name":"B3","midi":59,"time":405.1762679999809,"velocity":0.7637795275590551,"duration":0.11580876562499043},{"name":"D5","midi":74,"time":405.1762679999809,"velocity":0.7637795275590551,"duration":0.3492645312498439},{"name":"A5","midi":81,"time":405.1762679999809,"velocity":0.7637795275590551,"duration":0.10661759375000202},{"name":"G#5","midi":80,"time":405.2350914999809,"velocity":0.7637795275590551,"duration":0.10661759374994517},{"name":"A3","midi":57,"time":405.29391499998087,"velocity":0.7637795275590551,"duration":0.11580876562493359},{"name":"A5","midi":81,"time":405.29391499998087,"velocity":0.7637795275590551,"duration":0.10661759374994517},{"name":"G#5","midi":80,"time":405.35273849998083,"velocity":0.7637795275590551,"duration":0.10661759374994517},{"name":"B3","midi":59,"time":405.4115619999808,"velocity":0.7637795275590551,"duration":0.11580876562493359},{"name":"F#5","midi":78,"time":405.4115619999808,"velocity":0.7637795275590551,"duration":0.10661759374994517},{"name":"G#5","midi":80,"time":405.47038549998075,"velocity":0.7637795275590551,"duration":0.10661759374994517},{"name":"C4","midi":60,"time":405.5292089999807,"velocity":0.7637795275590551,"duration":0.11580876562499043},{"name":"A5","midi":81,"time":405.5292089999807,"velocity":0.7637795275590551,"duration":0.3511027656249439},{"name":"E5","midi":76,"time":405.5292089999807,"velocity":0.7637795275590551,"duration":0.3511027656249439},{"name":"B3","midi":59,"time":405.6468559999807,"velocity":0.7637795275590551,"duration":0.11580876562499043},{"name":"A3","midi":57,"time":405.76450299998066,"velocity":0.7637795275590551,"duration":0.11580876562499043},{"name":"G#3","midi":56,"time":405.88214999998064,"velocity":0.7637795275590551,"duration":0.3511027656249439},{"name":"D5","midi":74,"time":405.88214999998064,"velocity":0.7637795275590551,"duration":0.10661759375000202},{"name":"B4","midi":71,"time":405.88214999998064,"velocity":0.7637795275590551,"duration":0.6985290624998584},{"name":"C5","midi":72,"time":405.94097349998066,"velocity":0.7637795275590551,"duration":0.10661759374994517},{"name":"D5","midi":74,"time":405.9997969999806,"velocity":0.7637795275590551,"duration":0.23345576562496717},{"name":"E3","midi":52,"time":406.23509099998057,"velocity":0.7637795275590551,"duration":0.3511027656249439},{"name":"F5","midi":77,"time":406.23509099998057,"velocity":0.7637795275590551,"duration":0.11580876562499043},{"name":"E5","midi":76,"time":406.35273799998055,"velocity":0.7637795275590551,"duration":0.11580876562499043},{"name":"D5","midi":74,"time":406.4703849999805,"velocity":0.7637795275590551,"duration":0.11580876562499043},{"name":"C3","midi":48,"time":406.5880319999805,"velocity":0.7637795275590551,"duration":0.3511027656249439},{"name":"E5","midi":76,"time":406.5880319999805,"velocity":0.7637795275590551,"duration":0.11580876562499043},{"name":"D5","midi":74,"time":406.7056789999805,"velocity":0.7637795275590551,"duration":0.11580876562499043},{"name":"C5","midi":72,"time":406.82332599998045,"velocity":0.7637795275590551,"duration":0.11580876562499043},{"name":"A2","midi":45,"time":406.94097299998043,"velocity":0.7637795275590551,"duration":0.3511027656249439},{"name":"D5","midi":74,"time":406.94097299998043,"velocity":0.7637795275590551,"duration":0.11580876562499043},{"name":"F4","midi":65,"time":406.94097299998043,"velocity":0.7637795275590551,"duration":0.3492645312499576},{"name":"C5","midi":72,"time":407.0586199999804,"velocity":0.7637795275590551,"duration":0.11580876562499043},{"name":"B4","midi":71,"time":407.1762669999804,"velocity":0.7637795275590551,"duration":0.11580876562499043},{"name":"E3","midi":52,"time":407.29391399998036,"velocity":0.7637795275590551,"duration":0.3511027656249439},{"name":"C5","midi":72,"time":407.29391399998036,"velocity":0.7637795275590551,"duration":0.11580876562499043},{"name":"E4","midi":64,"time":407.29391399998036,"velocity":0.7637795275590551,"duration":0.3492645312499576},{"name":"B4","midi":71,"time":407.41156099998034,"velocity":0.7637795275590551,"duration":0.11580876562499043},{"name":"A4","midi":69,"time":407.5292079999803,"velocity":0.7637795275590551,"duration":0.11580876562499043},{"name":"E2","midi":40,"time":407.6468549999803,"velocity":0.7637795275590551,"duration":0.3511027656249439},{"name":"D4","midi":62,"time":407.6468549999803,"velocity":0.7637795275590551,"duration":0.3492645312499576},{"name":"B4","midi":71,"time":407.6468549999803,"velocity":0.7637795275590551,"duration":0.11580876562499043},{"name":"A4","midi":69,"time":407.76450199998027,"velocity":0.7637795275590551,"duration":0.11580876562499043},{"name":"G#4","midi":68,"time":407.88214899998025,"velocity":0.7637795275590551,"duration":0.11580876562499043},{"name":"A2","midi":45,"time":407.9997959999802,"velocity":0.7637795275590551,"duration":0.4227939062499786},{"name":"A4","midi":69,"time":407.9997959999802,"velocity":0.7637795275590551,"duration":2.1139695312500066},{"name":"C4","midi":60,"time":407.9997959999802,"velocity":0.7637795275590551,"duration":2.1139695312500066},{"name":"E3","midi":52,"time":408.3895016874802,"velocity":0.7637795275590551,"duration":0.40441156250000176},{"name":"A3","midi":57,"time":408.7939132499802,"velocity":0.7637795275590551,"duration":1.3419110937500136},{"name":"A4","midi":69,"time":414.3527339999802,"velocity":0.7637795275590551,"duration":0.36580864062500495},{"name":"C3","midi":48,"time":414.3527339999802,"velocity":0.7637795275590551,"duration":0.6985290625000289},{"name":"A2","midi":45,"time":414.3527339999802,"velocity":0.7637795275590551,"duration":0.6985290625000289},{"name":"E3","midi":52,"time":414.3527339999802,"velocity":0.7637795275590551,"duration":0.6985290625000289},{"name":"A3","midi":57,"time":414.3527339999802,"velocity":0.7637795275590551,"duration":0.6985290625000289},{"name":"B4","midi":71,"time":414.7056749999802,"velocity":0.7637795275590551,"duration":0.3658086406250618},{"name":"C5","midi":72,"time":415.05861599998025,"velocity":0.7637795275590551,"duration":0.11580876562499043},{"name":"B4","midi":71,"time":415.1762629999802,"velocity":0.7637795275590551,"duration":0.11580876562499043},{"name":"C5","midi":72,"time":415.2939099999802,"velocity":0.7637795275590551,"duration":0.11580876562499043},{"name":"B4","midi":71,"time":415.4115569999802,"velocity":0.7637795275590551,"duration":0.11580876562499043},{"name":"A4","midi":69,"time":415.52920399998015,"velocity":0.7637795275590551,"duration":0.11580876562499043},{"name":"B4","midi":71,"time":415.64685099998013,"velocity":0.7637795275590551,"duration":0.11580876562499043},{"name":"C5","midi":72,"time":415.7644979999801,"velocity":0.7637795275590551,"duration":0.3308821874999808},{"name":"G#4","midi":68,"time":416.1174389999801,"velocity":0.7637795275590551,"duration":0.3308821874999808},{"name":"A4","midi":69,"time":416.4703799999801,"velocity":0.7637795275590551,"duration":0.5147056249999764},{"name":"A3","midi":57,"time":416.4703799999801,"velocity":0.7637795275590551,"duration":0.35110276562500076},{"name":"B3","midi":59,"time":416.82332099998007,"velocity":0.7637795275590551,"duration":0.35110276562500076},{"name":"E4","midi":64,"time":417.17626199998006,"velocity":0.7637795275590551,"duration":0.5147056249999764},{"name":"C4","midi":60,"time":417.17626199998006,"velocity":0.7637795275590551,"duration":0.17463226562500722},{"name":"B3","midi":59,"time":417.35273249998005,"velocity":0.7637795275590551,"duration":0.17463226562500722},{"name":"A3","midi":57,"time":417.52920299998004,"velocity":0.7637795275590551,"duration":0.17463226562500722},{"name":"B3","midi":59,"time":417.70567349998004,"velocity":0.7637795275590551,"duration":0.17463226562500722},{"name":"A4","midi":69,"time":417.88214399998003,"velocity":0.7637795275590551,"duration":0.5147056249999764},{"name":"C4","midi":60,"time":417.88214399998003,"velocity":0.7637795275590551,"duration":0.35110276562500076},{"name":"A3","midi":57,"time":418.23508499998,"velocity":0.7637795275590551,"duration":0.35110276562500076},{"name":"B4","midi":71,"time":418.58802599998,"velocity":0.7637795275590551,"duration":0.36580864062500495},{"name":"G#3","midi":56,"time":418.58802599998,"velocity":0.7637795275590551,"duration":0.6617643750000184},{"name":"C5","midi":72,"time":418.94096699998,"velocity":0.7637795275590551,"duration":0.3658086406250618},{"name":"D5","midi":74,"time":419.29390799998004,"velocity":0.7637795275590551,"duration":0.11580876562499043},{"name":"A3","midi":57,"time":419.29390799998004,"velocity":0.7637795275590551,"duration":0.6617643749999047},{"name":"C5","midi":72,"time":419.41155499998,"velocity":0.7637795275590551,"duration":0.11580876562499043},{"name":"D5","midi":74,"time":419.52920199998,"velocity":0.7637795275590551,"duration":0.11580876562499043},{"name":"C5","midi":72,"time":419.64684899997997,"velocity":0.7637795275590551,"duration":0.11580876562499043},{"name":"B4","midi":71,"time":419.76449599997994,"velocity":0.7637795275590551,"duration":0.11580876562499043},{"name":"C5","midi":72,"time":419.8821429999799,"velocity":0.7637795275590551,"duration":0.11580876562504727},{"name":"D5","midi":74,"time":419.99978999997995,"velocity":0.7637795275590551,"duration":0.35110276562500076},{"name":"F3","midi":53,"time":419.99978999997995,"velocity":0.7637795275590551,"duration":0.6617643749999615},{"name":"A4","midi":69,"time":420.35273099997994,"velocity":0.7637795275590551,"duration":0.35110276562500076},{"name":"B4","midi":71,"time":420.7056719999799,"velocity":0.7637795275590551,"duration":0.08639701562498203},{"name":"E3","midi":52,"time":420.7056719999799,"velocity":0.7637795275590551,"duration":0.3511027656249439},{"name":"A4","midi":69,"time":420.7939072499799,"velocity":0.7637795275590551,"duration":0.08639701562498203},{"name":"B4","midi":71,"time":420.88214249997986,"velocity":0.7637795275590551,"duration":0.5275732656249943},{"name":"F#3","midi":54,"time":421.05861299997986,"velocity":0.7637795275590551,"duration":0.35110276562500076},{"name":"E5","midi":76,"time":421.41155399997984,"velocity":0.7637795275590551,"duration":0.6249996875000079},{"name":"G#3","midi":56,"time":421.41155399997984,"velocity":0.7637795275590551,"duration":0.17463226562500722},{"name":"F#3","midi":54,"time":421.58802449997984,"velocity":0.7637795275590551,"duration":0.17463226562500722},{"name":"E3","midi":52,"time":421.76449499997983,"velocity":0.7637795275590551,"duration":0.17463226562500722},{"name":"F#3","midi":54,"time":421.9409654999798,"velocity":0.7637795275590551,"duration":0.17463226562500722},{"name":"D5","midi":74,"time":422.1174359999798,"velocity":0.7637795275590551,"duration":0.6433820312499847},{"name":"G#3","midi":56,"time":422.1174359999798,"velocity":0.7637795275590551,"duration":0.35110276562500076},{"name":"E3","midi":52,"time":422.4703769999798,"velocity":0.7637795275590551,"duration":0.35110276562500076},{"name":"D5","midi":74,"time":422.8233179999798,"velocity":0.7637795275590551,"duration":0.17463226562500722},{"name":"A3","midi":57,"time":422.8233179999798,"velocity":0.7637795275590551,"duration":0.35110276562500076},{"name":"C5","midi":72,"time":422.9997884999798,"velocity":0.7637795275590551,"duration":0.17463226562500722},{"name":"B4","midi":71,"time":423.1762589999798,"velocity":0.7637795275590551,"duration":0.17463226562500722},{"name":"A2","midi":45,"time":423.1762589999798,"velocity":0.7637795275590551,"duration":0.5275732656249943},{"name":"C5","midi":72,"time":423.3527294999798,"velocity":0.7637795275590551,"duration":0.8731613281249793},{"name":"F5","midi":77,"time":423.52919999997977,"velocity":0.7637795275590551,"duration":0.7040437656249878},{"name":"A4","midi":69,"time":423.70567049997976,"velocity":0.7637795275590551,"duration":0.17463226562500722},{"name":"G4","midi":67,"time":423.88214099997975,"velocity":0.7637795275590551,"duration":0.17463226562500722},{"name":"F4","midi":65,"time":424.05861149997975,"velocity":0.7637795275590551,"duration":0.35110276562500076},{"name":"B4","midi":71,"time":424.23508199997974,"velocity":0.7637795275590551,"duration":0.6617643749999615},{"name":"E5","midi":76,"time":424.23508199997974,"velocity":0.7637795275590551,"duration":0.7040437656249878},{"name":"G4","midi":67,"time":424.41155249997973,"velocity":0.7637795275590551,"duration":0.17463226562500722},{"name":"F4","midi":65,"time":424.5880229999797,"velocity":0.7637795275590551,"duration":0.17463226562500722},{"name":"E4","midi":64,"time":424.7644934999797,"velocity":0.7637795275590551,"duration":0.17463226562500722},{"name":"B4","midi":71,"time":424.9409639999797,"velocity":0.7637795275590551,"duration":0.17463226562500722},{"name":"F4","midi":65,"time":424.9409639999797,"velocity":0.7637795275590551,"duration":0.35110276562500076},{"name":"A4","midi":69,"time":425.1174344999797,"velocity":0.7637795275590551,"duration":0.17463226562500722},{"name":"G#4","midi":68,"time":425.2939049999797,"velocity":0.7637795275590551,"duration":0.17463226562500722},{"name":"F3","midi":53,"time":425.2939049999797,"velocity":0.7637795275590551,"duration":0.5275732656249943},{"name":"A4","midi":69,"time":425.4703754999797,"velocity":0.7637795275590551,"duration":0.8731613281249793},{"name":"D5","midi":74,"time":425.6468459999797,"velocity":0.7637795275590551,"duration":0.7040437656249878},{"name":"F4","midi":65,"time":425.8233164999797,"velocity":0.7637795275590551,"duration":0.17463226562500722},{"name":"E4","midi":64,"time":425.9997869999797,"velocity":0.7637795275590551,"duration":0.17463226562500722},{"name":"D4","midi":62,"time":426.17625749997967,"velocity":0.7637795275590551,"duration":0.35110276562500076},{"name":"C5","midi":72,"time":426.35272799997966,"velocity":0.7637795275590551,"duration":0.7352937499999825},{"name":"G4","midi":67,"time":426.35272799997966,"velocity":0.7637795275590551,"duration":0.6801467187499952},{"name":"E4","midi":64,"time":426.52919849997966,"velocity":0.7637795275590551,"duration":0.17463226562500722},{"name":"D4","midi":62,"time":426.70566899997965,"velocity":0.7637795275590551,"duration":0.17463226562500722},{"name":"C4","midi":60,"time":426.88213949997964,"velocity":0.7637795275590551,"duration":0.17463226562500722},{"name":"D4","midi":62,"time":427.05860999997964,"velocity":0.7637795275590551,"duration":0.35110276562500076},{"name":"F4","midi":65,"time":427.05860999997964,"velocity":0.7637795275590551,"duration":0.698529062499972},{"name":"B4","midi":71,"time":427.23508049997963,"velocity":0.7637795275590551,"duration":0.17463226562500722},{"name":"A4","midi":69,"time":427.4115509999796,"velocity":0.7637795275590551,"duration":0.17463226562500722},{"name":"B3","midi":59,"time":427.4115509999796,"velocity":0.7637795275590551,"duration":0.35110276562500076},{"name":"G#4","midi":68,"time":427.5880214999796,"velocity":0.7637795275590551,"duration":0.17463226562500722},{"name":"A4","midi":69,"time":427.7644919999796,"velocity":0.7637795275590551,"duration":0.17463226562500722},{"name":"C4","midi":60,"time":427.7644919999796,"velocity":0.7637795275590551,"duration":0.35110276562500076},{"name":"E4","midi":64,"time":427.7644919999796,"velocity":0.7637795275590551,"duration":1.056984765624975},{"name":"B4","midi":71,"time":427.9409624999796,"velocity":0.7637795275590551,"duration":0.17463226562500722},{"name":"C5","midi":72,"time":428.1174329999796,"velocity":0.7637795275590551,"duration":0.17463226562500722},{"name":"A3","midi":57,"time":428.1174329999796,"velocity":0.7637795275590551,"duration":0.17463226562500722},{"name":"D5","midi":74,"time":428.2939034999796,"velocity":0.7637795275590551,"duration":0.17463226562500722},{"name":"B3","midi":59,"time":428.2939034999796,"velocity":0.7637795275590551,"duration":0.17463226562500722},{"name":"E5","midi":76,"time":428.4703739999796,"velocity":0.7637795275590551,"duration":0.17463226562500722},{"name":"C4","midi":60,"time":428.4703739999796,"velocity":0.7637795275590551,"duration":0.35110276562500076},{"name":"D5","midi":74,"time":428.6468444999796,"velocity":0.7637795275590551,"duration":0.17463226562500722},{"name":"E5","midi":76,"time":428.8233149999796,"velocity":0.7637795275590551,"duration":0.17463226562500722},{"name":"D4","midi":62,"time":428.8233149999796,"velocity":0.7637795275590551,"duration":0.35110276562500076},{"name":"F5","midi":77,"time":428.99978549997957,"velocity":0.7637795275590551,"duration":0.17463226562500722},{"name":"A4","midi":69,"time":429.17625599997956,"velocity":0.7637795275590551,"duration":0.11580876562499043},{"name":"E4","midi":64,"time":429.17625599997956,"velocity":0.7637795275590551,"duration":0.3511027656249439},{"name":"G#4","midi":68,"time":429.29390299997954,"velocity":0.7637795275590551,"duration":0.11580876562499043},{"name":"A4","midi":69,"time":429.4115499999795,"velocity":0.7637795275590551,"duration":0.11580876562499043},{"name":"G#4","midi":68,"time":429.5291969999795,"velocity":0.7637795275590551,"duration":0.11580876562499043},{"name":"F4","midi":65,"time":429.5291969999795,"velocity":0.7637795275590551,"duration":0.3511027656249439},{"name":"A4","midi":69,"time":429.64684399997947,"velocity":0.7637795275590551,"duration":0.11580876562499043},{"name":"G#4","midi":68,"time":429.76449099997944,"velocity":0.7637795275590551,"duration":0.11580876562499043},{"name":"A4","midi":69,"time":429.8821379999794,"velocity":0.7637795275590551,"duration":0.11580876562499043},{"name":"E4","midi":64,"time":429.8821379999794,"velocity":0.7637795275590551,"duration":0.35110276562500076},{"name":"G#4","midi":68,"time":429.9997849999794,"velocity":0.7637795275590551,"duration":0.23345576562502401},{"name":"F#4","midi":66,"time":430.2350789999794,"velocity":0.7637795275590551,"duration":0.35110276562500076},{"name":"D4","midi":62,"time":430.2350789999794,"velocity":0.7637795275590551,"duration":0.35110276562500076},{"name":"E4","midi":64,"time":430.5880199999794,"velocity":0.7637795275590551,"duration":0.5147056249999764},{"name":"C4","midi":60,"time":430.5880199999794,"velocity":0.7637795275590551,"duration":0.35110276562500076},{"name":"B3","midi":59,"time":430.9409609999794,"velocity":0.7637795275590551,"duration":0.35110276562500076},{"name":"C5","midi":72,"time":431.29390199997937,"velocity":0.7637795275590551,"duration":2.205881249999777},{"name":"A3","midi":57,"time":431.29390199997937,"velocity":0.7637795275590551,"duration":0.35110276562500076},{"name":"E4","midi":64,"time":431.64684299997936,"velocity":0.7637795275590551,"duration":0.17463226562500722},{"name":"A2","midi":45,"time":431.64684299997936,"velocity":0.7637795275590551,"duration":0.40441156250000176},{"name":"F4","midi":65,"time":431.82331349997935,"velocity":0.7637795275590551,"duration":0.17463226562500722},{"name":"G4","midi":67,"time":431.99978399997934,"velocity":0.7637795275590551,"duration":0.11580876562499043},{"name":"F4","midi":65,"time":432.1174309999793,"velocity":0.7637795275590551,"duration":0.11580876562499043},{"name":"A3","midi":57,"time":432.17625449997934,"velocity":0.7637795275590551,"duration":0.17463226562495038},{"name":"G4","midi":67,"time":432.2350779999793,"velocity":0.7637795275590551,"duration":0.11580876562499043},{"name":"F4","midi":65,"time":432.3527249999793,"velocity":0.7637795275590551,"duration":0.11580876562499043},{"name":"G3","midi":55,"time":432.3527249999793,"velocity":0.7637795275590551,"duration":0.17463226562495038},{"name":"E4","midi":64,"time":432.47037199997925,"velocity":0.7637795275590551,"duration":0.11580876562493359},{"name":"F3","midi":53,"time":432.5291954999792,"velocity":0.7637795275590551,"duration":0.17463226562495038},{"name":"F4","midi":65,"time":432.58801899997917,"velocity":0.7637795275590551,"duration":0.11580876562499043},{"name":"G4","midi":67,"time":432.70566599997915,"velocity":0.7637795275590551,"duration":0.35110276562500076},{"name":"E3","midi":52,"time":432.70566599997915,"velocity":0.7637795275590551,"duration":0.17463226562500722},{"name":"G3","midi":55,"time":432.88213649997914,"velocity":0.7637795275590551,"duration":0.17463226562500722},{"name":"C4","midi":60,"time":433.05860699997913,"velocity":0.7637795275590551,"duration":0.35110276562500076},{"name":"E3","midi":52,"time":433.05860699997913,"velocity":0.7637795275590551,"duration":0.17463226562500722},{"name":"C3","midi":48,"time":433.2350774999791,"velocity":0.7637795275590551,"duration":0.17463226562500722},{"name":"A4","midi":69,"time":433.4115479999791,"velocity":0.7637795275590551,"duration":1.0569847656250317},{"name":"F3","midi":53,"time":433.4115479999791,"velocity":0.7637795275590551,"duration":0.3511027656250576},{"name":"C5","midi":72,"time":433.58801849997917,"velocity":0.7637795275590551,"duration":0.17463226562500722},{"name":"B4","midi":71,"time":433.76448899997916,"velocity":0.7637795275590551,"duration":0.17463226562500722},{"name":"F2","midi":41,"time":433.76448899997916,"velocity":0.7637795275590551,"duration":0.35110276562500076},{"name":"C5","midi":72,"time":433.94095949997916,"velocity":0.7637795275590551,"duration":0.17463226562500722},{"name":"D5","midi":74,"time":434.11742999997915,"velocity":0.7637795275590551,"duration":0.17463226562500722},{"name":"A3","midi":57,"time":434.11742999997915,"velocity":0.7637795275590551,"duration":0.35110276562500076},{"name":"C5","midi":72,"time":434.29390049997915,"velocity":0.7637795275590551,"duration":0.17463226562500722},{"name":"B4","midi":71,"time":434.47037099997914,"velocity":0.7637795275590551,"duration":0.17463226562500722},{"name":"G3","midi":55,"time":434.47037099997914,"velocity":0.7637795275590551,"duration":0.35110276562500076},{"name":"C5","midi":72,"time":434.64684149997913,"velocity":0.7637795275590551,"duration":0.17463226562500722},{"name":"A5","midi":81,"time":434.8233119999791,"velocity":0.7637795275590551,"duration":0.17463226562500722},{"name":"G3","midi":55,"time":434.8233119999791,"velocity":0.7637795275590551,"duration":0.35110276562500076},{"name":"C5","midi":72,"time":434.9997824999791,"velocity":0.7637795275590551,"duration":0.17463226562500722},{"name":"B4","midi":71,"time":435.1762529999791,"velocity":0.7637795275590551,"duration":0.17463226562500722},{"name":"F#3","midi":54,"time":435.1762529999791,"velocity":0.7637795275590551,"duration":0.35110276562500076},{"name":"C5","midi":72,"time":435.3527234999791,"velocity":0.7637795275590551,"duration":0.17463226562500722},{"name":"D5","midi":74,"time":435.5291939999791,"velocity":0.7637795275590551,"duration":2.205881249999777},{"name":"F#3","midi":54,"time":435.5291939999791,"velocity":0.7637795275590551,"duration":0.35110276562500076},{"name":"A4","midi":69,"time":435.8821349999791,"velocity":0.7637795275590551,"duration":0.17463226562500722},{"name":"F#2","midi":42,"time":435.8821349999791,"velocity":0.7637795275590551,"duration":0.40441156250000176},{"name":"B4","midi":71,"time":436.0586054999791,"velocity":0.7637795275590551,"duration":0.17463226562500722},{"name":"C5","midi":72,"time":436.2350759999791,"velocity":0.7637795275590551,"duration":0.11580876562499043},{"name":"B4","midi":71,"time":436.35272299997905,"velocity":0.7637795275590551,"duration":0.11580876562499043},{"name":"F#3","midi":54,"time":436.41154649997907,"velocity":0.7637795275590551,"duration":0.17463226562495038},{"name":"C5","midi":72,"time":436.470369999979,"velocity":0.7637795275590551,"duration":0.11580876562499043},{"name":"B4","midi":71,"time":436.588016999979,"velocity":0.7637795275590551,"duration":0.11580876562499043},{"name":"G3","midi":55,"time":436.588016999979,"velocity":0.7637795275590551,"duration":0.17463226562495038},{"name":"A4","midi":69,"time":436.705663999979,"velocity":0.7637795275590551,"duration":0.11580876562493359},{"name":"A3","midi":57,"time":436.76448749997894,"velocity":0.7637795275590551,"duration":0.17463226562495038},{"name":"B4","midi":71,"time":436.8233109999789,"velocity":0.7637795275590551,"duration":0.11580876562499043},{"name":"C5","midi":72,"time":436.9409579999789,"velocity":0.7637795275590551,"duration":0.35110276562500076},{"name":"G3","midi":55,"time":436.9409579999789,"velocity":0.7637795275590551,"duration":0.17463226562500722},{"name":"F#3","midi":54,"time":437.11742849997887,"velocity":0.7637795275590551,"duration":0.17463226562500722},{"name":"A4","midi":69,"time":437.29389899997886,"velocity":0.7637795275590551,"duration":0.35110276562500076},{"name":"E3","midi":52,"time":437.29389899997886,"velocity":0.7637795275590551,"duration":0.17463226562500722},{"name":"D3","midi":50,"time":437.47036949997886,"velocity":0.7637795275590551,"duration":0.17463226562500722},{"name":"B4","midi":71,"time":437.64683999997885,"velocity":0.7637795275590551,"duration":0.17463226562500722},{"name":"G3","midi":55,"time":437.64683999997885,"velocity":0.7637795275590551,"duration":0.35110276562500076},{"name":"D5","midi":74,"time":437.82331049997885,"velocity":0.7637795275590551,"duration":0.17463226562500722},{"name":"C5","midi":72,"time":437.99978099997884,"velocity":0.7637795275590551,"duration":0.17463226562500722},{"name":"G2","midi":43,"time":437.99978099997884,"velocity":0.7637795275590551,"duration":0.35110276562500076},{"name":"D5","midi":74,"time":438.17625149997883,"velocity":0.7637795275590551,"duration":0.17463226562500722},{"name":"E5","midi":76,"time":438.3527219999788,"velocity":0.7637795275590551,"duration":0.17463226562500722},{"name":"B3","midi":59,"time":438.3527219999788,"velocity":0.7637795275590551,"duration":0.35110276562500076},{"name":"D5","midi":74,"time":438.5291924999788,"velocity":0.7637795275590551,"duration":0.17463226562500722},{"name":"C5","midi":72,"time":438.7056629999788,"velocity":0.7637795275590551,"duration":0.17463226562500722},{"name":"A3","midi":57,"time":438.7056629999788,"velocity":0.7637795275590551,"duration":0.35110276562500076},{"name":"D5","midi":74,"time":438.8821334999788,"velocity":0.7637795275590551,"duration":0.17463226562500722},{"name":"B5","midi":83,"time":439.0586039999788,"velocity":0.7637795275590551,"duration":0.17463226562500722},{"name":"A3","midi":57,"time":439.0586039999788,"velocity":0.7637795275590551,"duration":0.35110276562500076},{"name":"D5","midi":74,"time":439.2350744999788,"velocity":0.7637795275590551,"duration":0.17463226562500722},{"name":"C5","midi":72,"time":439.4115449999788,"velocity":0.7637795275590551,"duration":0.17463226562500722},{"name":"G#3","midi":56,"time":439.4115449999788,"velocity":0.7637795275590551,"duration":0.35110276562500076},{"name":"D5","midi":74,"time":439.5880154999788,"velocity":0.7637795275590551,"duration":0.17463226562500722},{"name":"E5","midi":76,"time":439.7644859999788,"velocity":0.7637795275590551,"duration":0.6066173437499742},{"name":"G#3","midi":56,"time":439.7644859999788,"velocity":0.7637795275590551,"duration":0.17463226562500722},{"name":"F4","midi":65,"time":439.94095649997877,"velocity":0.7637795275590551,"duration":0.17463226562500722},{"name":"G#4","midi":68,"time":440.11742699997876,"velocity":0.7637795275590551,"duration":0.35110276562500076},{"name":"E4","midi":64,"time":440.11742699997876,"velocity":0.7637795275590551,"duration":0.17463226562500722},{"name":"D4","midi":62,"time":440.29389749997875,"velocity":0.7637795275590551,"duration":0.17463226562500722},{"name":"F#5","midi":78,"time":440.47036799997875,"velocity":0.7637795275590551,"duration":0.35110276562500076},{"name":"A4","midi":69,"time":440.47036799997875,"velocity":0.7637795275590551,"duration":0.35110276562500076},{"name":"C4","midi":60,"time":440.47036799997875,"velocity":0.7637795275590551,"duration":0.17463226562500722},{"name":"E4","midi":64,"time":440.64683849997874,"velocity":0.7637795275590551,"duration":0.17463226562500722},{"name":"G#5","midi":80,"time":440.82330899997874,"velocity":0.7637795275590551,"duration":0.35110276562500076},{"name":"B4","midi":71,"time":440.82330899997874,"velocity":0.7637795275590551,"duration":0.35110276562500076},{"name":"D4","midi":62,"time":440.82330899997874,"velocity":0.7637795275590551,"duration":0.17463226562500722},{"name":"C4","midi":60,"time":440.99977949997873,"velocity":0.7637795275590551,"duration":0.17463226562500722},{"name":"A5","midi":81,"time":441.1762499999787,"velocity":0.7637795275590551,"duration":0.35110276562500076},{"name":"C5","midi":72,"time":441.1762499999787,"velocity":0.7637795275590551,"duration":0.35110276562500076},{"name":"B3","midi":59,"time":441.1762499999787,"velocity":0.7637795275590551,"duration":0.17463226562500722},{"name":"D4","midi":62,"time":441.3527204999787,"velocity":0.7637795275590551,"duration":0.17463226562500722},{"name":"D5","midi":74,"time":441.5291909999787,"velocity":0.7637795275590551,"duration":0.35110276562500076},{"name":"B5","midi":83,"time":441.5291909999787,"velocity":0.7637795275590551,"duration":0.35110276562500076},{"name":"C4","midi":60,"time":441.5291909999787,"velocity":0.7637795275590551,"duration":0.17463226562500722},{"name":"B3","midi":59,"time":441.7056614999787,"velocity":0.7637795275590551,"duration":0.17463226562500722},{"name":"E5","midi":76,"time":441.8821319999787,"velocity":0.7637795275590551,"duration":0.34926453125001444},{"name":"C6","midi":84,"time":441.8821319999787,"velocity":0.7637795275590551,"duration":0.17463226562500722},{"name":"A3","midi":57,"time":441.8821319999787,"velocity":0.7637795275590551,"duration":0.698529062499972},{"name":"A5","midi":81,"time":442.0586024999787,"velocity":0.7637795275590551,"duration":0.17463226562500722},{"name":"G5","midi":79,"time":442.2350729999787,"velocity":0.7637795275590551,"duration":0.17463226562500722},{"name":"F#4","midi":66,"time":442.2350729999787,"velocity":0.7637795275590551,"duration":0.698529062499972},{"name":"A5","midi":81,"time":442.4115434999787,"velocity":0.7637795275590551,"duration":0.17463226562500722},{"name":"B5","midi":83,"time":442.58801399997867,"velocity":0.7637795275590551,"duration":0.17463226562500722},{"name":"G3","midi":55,"time":442.58801399997867,"velocity":0.7637795275590551,"duration":0.698529062499972},{"name":"G5","midi":79,"time":442.76448449997866,"velocity":0.7637795275590551,"duration":0.17463226562500722},{"name":"F#5","midi":78,"time":442.94095499997866,"velocity":0.7637795275590551,"duration":0.17463226562500722},{"name":"E4","midi":64,"time":442.94095499997866,"velocity":0.7637795275590551,"duration":0.698529062499972},{"name":"G5","midi":79,"time":443.11742549997865,"velocity":0.7637795275590551,"duration":0.17463226562500722},{"name":"A5","midi":81,"time":443.29389599997864,"velocity":0.7637795275590551,"duration":0.17463226562500722},{"name":"F#3","midi":54,"time":443.29389599997864,"velocity":0.7637795275590551,"duration":0.698529062499972},{"name":"F#5","midi":78,"time":443.47036649997864,"velocity":0.7637795275590551,"duration":0.17463226562500722},{"name":"E5","midi":76,"time":443.64683699997863,"velocity":0.7637795275590551,"duration":0.17463226562500722},{"name":"D#4","midi":63,"time":443.64683699997863,"velocity":0.7637795275590551,"duration":0.35110276562500076},{"name":"F#5","midi":78,"time":443.8233074999786,"velocity":0.7637795275590551,"duration":0.17463226562500722},{"name":"G5","midi":79,"time":443.9997779999786,"velocity":0.7637795275590551,"duration":0.17463226562500722},{"name":"E3","midi":52,"time":443.9997779999786,"velocity":0.7637795275590551,"duration":0.35110276562500076},{"name":"E4","midi":64,"time":443.9997779999786,"velocity":0.7637795275590551,"duration":0.698529062499972},{"name":"E5","midi":76,"time":444.1762484999786,"velocity":0.7637795275590551,"duration":0.17463226562500722},{"name":"D#5","midi":75,"time":444.3527189999786,"velocity":0.7637795275590551,"duration":0.17463226562500722},{"name":"F#3","midi":54,"time":444.3527189999786,"velocity":0.7637795275590551,"duration":0.17463226562500722},{"name":"E5","midi":76,"time":444.5291894999786,"velocity":0.7637795275590551,"duration":0.17463226562500722},{"name":"G3","midi":55,"time":444.5291894999786,"velocity":0.7637795275590551,"duration":0.17463226562500722},{"name":"F#5","midi":78,"time":444.7056599999786,"velocity":0.7637795275590551,"duration":0.698529062499972},{"name":"A2","midi":45,"time":444.7056599999786,"velocity":0.7637795275590551,"duration":0.7040437656249878},{"name":"C5","midi":72,"time":445.0586009999786,"velocity":0.7637795275590551,"duration":0.5147056249999764},{"name":"D#5","midi":75,"time":445.41154199997857,"velocity":0.7637795275590551,"duration":0.698529062499972},{"name":"B2","midi":47,"time":445.41154199997857,"velocity":0.7637795275590551,"duration":0.7040437656249878},{"name":"B4","midi":71,"time":445.76448299997855,"velocity":0.7637795275590551,"duration":0.35110276562500076},{"name":"A4","midi":69,"time":446.11742399997854,"velocity":0.7637795275590551,"duration":0.7040437656249878},{"name":"E5","midi":76,"time":446.11742399997854,"velocity":0.7637795275590551,"duration":1.8014696874999458},{"name":"E2","midi":40,"time":446.11742399997854,"velocity":0.7637795275590551,"duration":0.7040437656249878},{"name":"G#4","midi":68,"time":446.8233059999785,"velocity":0.7637795275590551,"duration":1.409925765624962},{"name":"B2","midi":47,"time":446.8233059999785,"velocity":0.7637795275590551,"duration":0.7040437656249878},{"name":"E3","midi":52,"time":447.5291879999785,"velocity":0.7637795275590551,"duration":0.7040437656249878},{"name":"B4","midi":71,"time":448.23506999997846,"velocity":0.7637795275590551,"duration":0.35110276562500076},{"name":"E3","midi":52,"time":448.23506999997846,"velocity":0.7637795275590551,"duration":1.409925765624962},{"name":"G#3","midi":56,"time":448.23506999997846,"velocity":0.7637795275590551,"duration":0.35110276562500076},{"name":"C5","midi":72,"time":448.58801099997845,"velocity":0.7637795275590551,"duration":0.35110276562500076},{"name":"A3","midi":57,"time":448.58801099997845,"velocity":0.7637795275590551,"duration":0.35110276562500076},{"name":"D5","midi":74,"time":448.94095199997844,"velocity":0.7637795275590551,"duration":0.17463226562500722},{"name":"B3","midi":59,"time":448.94095199997844,"velocity":0.7637795275590551,"duration":0.17463226562500722},{"name":"C5","midi":72,"time":449.11742249997843,"velocity":0.7637795275590551,"duration":0.17463226562500722},{"name":"A3","midi":57,"time":449.11742249997843,"velocity":0.7637795275590551,"duration":0.17463226562500722},{"name":"B4","midi":71,"time":449.2938929999784,"velocity":0.7637795275590551,"duration":0.17463226562500722},{"name":"G#3","midi":56,"time":449.2938929999784,"velocity":0.7637795275590551,"duration":0.17463226562500722},{"name":"C5","midi":72,"time":449.4703634999784,"velocity":0.7637795275590551,"duration":0.17463226562500722},{"name":"A3","midi":57,"time":449.4703634999784,"velocity":0.7637795275590551,"duration":0.17463226562500722},{"name":"D5","midi":74,"time":449.6468339999784,"velocity":0.7637795275590551,"duration":0.35110276562500076},{"name":"B3","midi":59,"time":449.6468339999784,"velocity":0.7637795275590551,"duration":0.40441156250000176},{"name":"B4","midi":71,"time":449.9997749999784,"velocity":0.7637795275590551,"duration":0.35110276562500076},{"name":"F4","midi":65,"time":450.3527159999784,"velocity":0.7637795275590551,"duration":0.35110276562500076},{"name":"B3","midi":59,"time":450.3527159999784,"velocity":0.7637795275590551,"duration":0.6617643749999615},{"name":"G#3","midi":56,"time":450.3527159999784,"velocity":0.7637795275590551,"duration":0.6617643749999615},{"name":"E4","midi":64,"time":450.7056569999784,"velocity":0.7637795275590551,"duration":0.35110276562500076},{"name":"F4","midi":65,"time":451.05859799997836,"velocity":0.7637795275590551,"duration":0.35110276562500076},{"name":"B3","midi":59,"time":451.05859799997836,"velocity":0.7637795275590551,"duration":0.6617643749999615},{"name":"G#3","midi":56,"time":451.05859799997836,"velocity":0.7637795275590551,"duration":0.6617643749999615},{"name":"D4","midi":62,"time":451.41153899997835,"velocity":0.7637795275590551,"duration":0.35110276562500076},{"name":"E4","midi":64,"time":451.76447999997833,"velocity":0.7637795275590551,"duration":0.35110276562500076},{"name":"G#3","midi":56,"time":451.76447999997833,"velocity":0.7637795275590551,"duration":0.6617643749999615},{"name":"B3","midi":59,"time":451.76447999997833,"velocity":0.7637795275590551,"duration":0.6617643749999615},{"name":"B4","midi":71,"time":452.1174209999783,"velocity":0.7637795275590551,"duration":0.35110276562500076},{"name":"C#5","midi":73,"time":452.4703619999783,"velocity":0.7637795275590551,"duration":0.35110276562500076},{"name":"E4","midi":64,"time":452.4703619999783,"velocity":0.7637795275590551,"duration":0.35110276562500076},{"name":"G3","midi":55,"time":452.4703619999783,"velocity":0.7637795275590551,"duration":1.409925765624962},{"name":"D5","midi":74,"time":452.8233029999783,"velocity":0.7637795275590551,"duration":0.35110276562500076},{"name":"F4","midi":65,"time":452.8233029999783,"velocity":0.7637795275590551,"duration":0.35110276562500076},{"name":"E5","midi":76,"time":453.1762439999783,"velocity":0.7637795275590551,"duration":0.17463226562500722},{"name":"G4","midi":67,"time":453.1762439999783,"velocity":0.7637795275590551,"duration":0.17463226562500722},{"name":"D5","midi":74,"time":453.3527144999783,"velocity":0.7637795275590551,"duration":0.17463226562500722},{"name":"F4","midi":65,"time":453.3527144999783,"velocity":0.7637795275590551,"duration":0.17463226562500722},{"name":"C#5","midi":73,"time":453.52918499997827,"velocity":0.7637795275590551,"duration":0.17463226562500722},{"name":"E4","midi":64,"time":453.52918499997827,"velocity":0.7637795275590551,"duration":0.17463226562500722},{"name":"D5","midi":74,"time":453.70565549997826,"velocity":0.7637795275590551,"duration":0.17463226562500722},{"name":"F4","midi":65,"time":453.70565549997826,"velocity":0.7637795275590551,"duration":0.17463226562500722},{"name":"E5","midi":76,"time":453.88212599997826,"velocity":0.7637795275590551,"duration":0.35110276562500076},{"name":"G4","midi":67,"time":453.88212599997826,"velocity":0.7637795275590551,"duration":0.44117625000001226},{"name":"C#5","midi":73,"time":454.23506699997824,"velocity":0.7637795275590551,"duration":0.35110276562500076},{"name":"A#4","midi":70,"time":454.58800799997823,"velocity":0.7637795275590551,"duration":0.35110276562500076},{"name":"C#4","midi":61,"time":454.58800799997823,"velocity":0.7637795275590551,"duration":0.6617643749999615},{"name":"E4","midi":64,"time":454.58800799997823,"velocity":0.7637795275590551,"duration":0.6617643749999615},{"name":"A4","midi":69,"time":454.9409489999782,"velocity":0.7637795275590551,"duration":0.35110276562500076},{"name":"A#4","midi":70,"time":455.2938899999782,"velocity":0.7637795275590551,"duration":0.35110276562500076},{"name":"E4","midi":64,"time":455.2938899999782,"velocity":0.7637795275590551,"duration":0.6617643749999615},{"name":"C#4","midi":61,"time":455.2938899999782,"velocity":0.7637795275590551,"duration":0.6617643749999615},{"name":"G4","midi":67,"time":455.6468309999782,"velocity":0.7637795275590551,"duration":0.35110276562500076},{"name":"A4","midi":69,"time":455.9997719999782,"velocity":0.7637795275590551,"duration":0.35110276562500076},{"name":"C#4","midi":61,"time":455.9997719999782,"velocity":0.7637795275590551,"duration":0.6617643749999615},{"name":"E4","midi":64,"time":455.9997719999782,"velocity":0.7637795275590551,"duration":0.6617643749999615},{"name":"G5","midi":79,"time":456.35271299997817,"velocity":0.7637795275590551,"duration":0.35110276562500076},{"name":"F5","midi":77,"time":456.70565399997815,"velocity":0.7637795275590551,"duration":0.17463226562500722},{"name":"D4","midi":62,"time":456.70565399997815,"velocity":0.7637795275590551,"duration":0.7169114062499489},{"name":"D5","midi":74,"time":456.88212449997815,"velocity":0.7637795275590551,"duration":0.17463226562500722},{"name":"C#5","midi":73,"time":457.05859499997814,"velocity":0.7637795275590551,"duration":0.17463226562500722},{"name":"D3","midi":50,"time":457.05859499997814,"velocity":0.7637795275590551,"duration":0.34926453125001444},{"name":"D5","midi":74,"time":457.23506549997813,"velocity":0.7637795275590551,"duration":0.17463226562500722},{"name":"A#5","midi":82,"time":457.4115359999781,"velocity":0.7637795275590551,"duration":0.698529062499972},{"name":"F5","midi":77,"time":457.4115359999781,"velocity":0.7637795275590551,"duration":0.698529062499972},{"name":"D5","midi":74,"time":457.5880064999781,"velocity":0.7637795275590551,"duration":0.17463226562500722},{"name":"C5","midi":72,"time":457.7644769999781,"velocity":0.7637795275590551,"duration":0.17463226562500722},{"name":"A#4","midi":70,"time":457.9409474999781,"velocity":0.7637795275590551,"duration":0.17463226562500722},{"name":"A5","midi":81,"time":458.1174179999781,"velocity":0.7637795275590551,"duration":0.698529062499972},{"name":"E5","midi":76,"time":458.1174179999781,"velocity":0.7637795275590551,"duration":0.8823524999999677},{"name":"C5","midi":72,"time":458.2938884999781,"velocity":0.7637795275590551,"duration":0.17463226562500722},{"name":"A#4","midi":70,"time":458.4703589999781,"velocity":0.7637795275590551,"duration":0.17463226562500722},{"name":"A4","midi":69,"time":458.6468294999781,"velocity":0.7637795275590551,"duration":0.17463226562500722},{"name":"A#4","midi":70,"time":458.8232999999781,"velocity":0.7637795275590551,"duration":0.34926453125001444},{"name":"D5","midi":74,"time":458.99977049997807,"velocity":0.7637795275590551,"duration":0.17463226562500722},{"name":"C#5","midi":73,"time":459.17624099997806,"velocity":0.7637795275590551,"duration":0.17463226562500722},{"name":"A#3","midi":58,"time":459.17624099997806,"velocity":0.7637795275590551,"duration":0.40441156250000176},{"name":"D5","midi":74,"time":459.35271149997806,"velocity":0.7637795275590551,"duration":0.8639701562499909},{"name":"G5","midi":79,"time":459.52918199997805,"velocity":0.7637795275590551,"duration":0.698529062499972},{"name":"A#4","midi":70,"time":459.70565249997804,"velocity":0.7637795275590551,"duration":0.17463226562500722},{"name":"A4","midi":69,"time":459.88212299997804,"velocity":0.7637795275590551,"duration":0.17463226562500722},{"name":"G4","midi":67,"time":460.05859349997803,"velocity":0.7637795275590551,"duration":0.17463226562500722},{"name":"C5","midi":72,"time":460.235063999978,"velocity":0.7637795275590551,"duration":0.698529062499972},{"name":"F5","midi":77,"time":460.235063999978,"velocity":0.7637795275590551,"duration":0.698529062499972},{"name":"A4","midi":69,"time":460.411534499978,"velocity":0.7637795275590551,"duration":0.17463226562500722},{"name":"G4","midi":67,"time":460.588004999978,"velocity":0.7637795275590551,"duration":0.17463226562500722},{"name":"F4","midi":65,"time":460.764475499978,"velocity":0.7637795275590551,"duration":0.17463226562500722},{"name":"G4","midi":67,"time":460.940945999978,"velocity":0.7637795275590551,"duration":0.35110276562500076},{"name":"A#4","midi":70,"time":460.940945999978,"velocity":0.7637795275590551,"duration":0.698529062499972},{"name":"E5","midi":76,"time":461.293886999978,"velocity":0.7637795275590551,"duration":0.35110276562500076},{"name":"G3","midi":55,"time":461.293886999978,"velocity":0.7637795275590551,"duration":0.35110276562500076},{"name":"A4","midi":69,"time":461.646827999978,"velocity":0.7637795275590551,"duration":0.35110276562500076},{"name":"F5","midi":77,"time":461.646827999978,"velocity":0.7637795275590551,"duration":0.35110276562500076},{"name":"A3","midi":57,"time":461.646827999978,"velocity":0.7637795275590551,"duration":0.7040437656249878},{"name":"G4","midi":67,"time":461.99976899997796,"velocity":0.7637795275590551,"duration":0.35110276562500076},{"name":"E5","midi":76,"time":461.99976899997796,"velocity":0.7637795275590551,"duration":0.35110276562500076},{"name":"D5","midi":74,"time":462.35270999997795,"velocity":0.7637795275590551,"duration":0.35110276562500076},{"name":"F4","midi":65,"time":462.35270999997795,"velocity":0.7637795275590551,"duration":0.35110276562500076},{"name":"A2","midi":45,"time":462.35270999997795,"velocity":0.7637795275590551,"duration":0.7040437656249878},{"name":"C#5","midi":73,"time":462.70565099997793,"velocity":0.7637795275590551,"duration":0.35110276562500076},{"name":"E4","midi":64,"time":462.70565099997793,"velocity":0.7637795275590551,"duration":0.35110276562500076},{"name":"D5","midi":74,"time":463.0585919999779,"velocity":0.7637795275590551,"duration":1.7647049999999354},{"name":"F4","midi":65,"time":463.0585919999779,"velocity":0.7637795275590551,"duration":2.0588224999999625},{"name":"D3","midi":50,"time":463.0585919999779,"velocity":0.7637795275590551,"duration":0.35110276562500076},{"name":"A2","midi":45,"time":463.4115329999779,"velocity":0.7637795275590551,"duration":0.17463226562500722},{"name":"G2","midi":43,"time":463.5880034999779,"velocity":0.7637795275590551,"duration":0.17463226562500722},{"name":"F2","midi":41,"time":463.7644739999779,"velocity":0.7637795275590551,"duration":0.17463226562500722},{"name":"G2","midi":43,"time":463.9409444999779,"velocity":0.7637795275590551,"duration":0.17463226562500722},{"name":"A2","midi":45,"time":464.1174149999779,"velocity":0.7637795275590551,"duration":0.35110276562500076},{"name":"D2","midi":38,"time":464.47035599997787,"velocity":0.7637795275590551,"duration":0.6985290625000289},{"name":"F5","midi":77,"time":465.1762379999779,"velocity":0.7637795275590551,"duration":2.2058812499999476},{"name":"D3","midi":50,"time":465.3527084999779,"velocity":0.7637795275590551,"duration":0.17463226562500722},{"name":"D5","midi":74,"time":465.5291789999779,"velocity":0.7637795275590551,"duration":0.35110276562500076},{"name":"E3","midi":52,"time":465.5291789999779,"velocity":0.7637795275590551,"duration":0.17463226562500722},{"name":"F3","midi":53,"time":465.7056494999779,"velocity":0.7637795275590551,"duration":0.17463226562500722},{"name":"C#5","midi":73,"time":465.8821199999779,"velocity":0.7637795275590551,"duration":0.35110276562500076},{"name":"G3","midi":55,"time":465.8821199999779,"velocity":0.7637795275590551,"duration":0.17463226562500722},{"name":"A3","midi":57,"time":466.05859049997787,"velocity":0.7637795275590551,"duration":0.17463226562500722},{"name":"D5","midi":74,"time":466.23506099997786,"velocity":0.7637795275590551,"duration":0.35110276562500076},{"name":"B3","midi":59,"time":466.23506099997786,"velocity":0.7637795275590551,"duration":0.17463226562500722},{"name":"C#4","midi":61,"time":466.41153149997785,"velocity":0.7637795275590551,"duration":0.17463226562500722},{"name":"A4","midi":69,"time":466.58800199997785,"velocity":0.7637795275590551,"duration":0.35110276562500076},{"name":"D4","midi":62,"time":466.58800199997785,"velocity":0.7637795275590551,"duration":0.17463226562500722},{"name":"E4","midi":64,"time":466.76447249997784,"velocity":0.7637795275590551,"duration":0.17463226562500722},{"name":"D5","midi":74,"time":466.94094299997784,"velocity":0.7637795275590551,"duration":0.5275732656249943},{"name":"F4","midi":65,"time":466.94094299997784,"velocity":0.7637795275590551,"duration":0.17463226562500722},{"name":"D4","midi":62,"time":467.11741349997783,"velocity":0.7637795275590551,"duration":0.17463226562500722},{"name":"G4","midi":67,"time":467.2938839999778,"velocity":0.7637795275590551,"duration":0.35110276562500076},{"name":"B4","midi":71,"time":467.4703544999778,"velocity":0.7637795275590551,"duration":0.17463226562500722},{"name":"A4","midi":69,"time":467.6468249999778,"velocity":0.7637795275590551,"duration":0.17463226562500722},{"name":"D4","midi":62,"time":467.6468249999778,"velocity":0.7637795275590551,"duration":0.35110276562500076},{"name":"B4","midi":71,"time":467.8232954999778,"velocity":0.7637795275590551,"duration":0.17463226562500722},{"name":"C5","midi":72,"time":467.9997659999778,"velocity":0.7637795275590551,"duration":0.17463226562500722},{"name":"G3","midi":55,"time":467.9997659999778,"velocity":0.7637795275590551,"duration":0.35110276562500076},{"name":"B4","midi":71,"time":468.1762364999778,"velocity":0.7637795275590551,"duration":0.17463226562500722},{"name":"A4","midi":69,"time":468.3527069999778,"velocity":0.7637795275590551,"duration":0.17463226562500722},{"name":"D3","midi":50,"time":468.3527069999778,"velocity":0.7637795275590551,"duration":0.35110276562500076},{"name":"B4","midi":71,"time":468.5291774999778,"velocity":0.7637795275590551,"duration":0.17463226562500722},{"name":"D5","midi":74,"time":468.70564799997777,"velocity":0.7637795275590551,"duration":0.17463226562500722},{"name":"G2","midi":43,"time":468.70564799997777,"velocity":0.7637795275590551,"duration":0.698529062499972},{"name":"B4","midi":71,"time":468.88211849997776,"velocity":0.7637795275590551,"duration":0.17463226562500722},{"name":"A4","midi":69,"time":469.05858899997776,"velocity":0.7637795275590551,"duration":0.17463226562500722},{"name":"B4","midi":71,"time":469.23505949997775,"velocity":0.7637795275590551,"duration":0.17463226562500722},{"name":"E5","midi":76,"time":469.41152999997774,"velocity":0.7637795275590551,"duration":2.2058812499999476},{"name":"C3","midi":48,"time":469.58800049997774,"velocity":0.7637795275590551,"duration":0.17463226562500722},{"name":"C5","midi":72,"time":469.76447099997773,"velocity":0.7637795275590551,"duration":0.35110276562500076},{"name":"D3","midi":50,"time":469.76447099997773,"velocity":0.7637795275590551,"duration":0.17463226562500722},{"name":"E3","midi":52,"time":469.9409414999777,"velocity":0.7637795275590551,"duration":0.17463226562500722},{"name":"B4","midi":71,"time":470.1174119999777,"velocity":0.7637795275590551,"duration":0.35110276562500076},{"name":"F3","midi":53,"time":470.1174119999777,"velocity":0.7637795275590551,"duration":0.17463226562500722},{"name":"G3","midi":55,"time":470.2938824999777,"velocity":0.7637795275590551,"duration":0.17463226562500722},{"name":"C5","midi":72,"time":470.4703529999777,"velocity":0.7637795275590551,"duration":0.35110276562500076},{"name":"A3","midi":57,"time":470.4703529999777,"velocity":0.7637795275590551,"duration":0.17463226562500722},{"name":"B3","midi":59,"time":470.6468234999777,"velocity":0.7637795275590551,"duration":0.17463226562500722},{"name":"G4","midi":67,"time":470.8232939999777,"velocity":0.7637795275590551,"duration":0.35110276562500076},{"name":"C4","midi":60,"time":470.8232939999777,"velocity":0.7637795275590551,"duration":0.17463226562500722},{"name":"D4","midi":62,"time":470.9997644999777,"velocity":0.7637795275590551,"duration":0.17463226562500722},{"name":"C5","midi":72,"time":471.1762349999777,"velocity":0.7637795275590551,"duration":0.5275732656249943},{"name":"E4","midi":64,"time":471.1762349999777,"velocity":0.7637795275590551,"duration":0.17463226562500722},{"name":"C4","midi":60,"time":471.3527054999777,"velocity":0.7637795275590551,"duration":0.17463226562500722},{"name":"F4","midi":65,"time":471.52917599997767,"velocity":0.7637795275590551,"duration":0.35110276562500076},{"name":"A4","midi":69,"time":471.70564649997766,"velocity":0.7637795275590551,"duration":0.17463226562500722},{"name":"G#4","midi":68,"time":471.88211699997765,"velocity":0.7637795275590551,"duration":0.17463226562500722},{"name":"C4","midi":60,"time":471.88211699997765,"velocity":0.7637795275590551,"duration":0.35110276562500076},{"name":"A4","midi":69,"time":472.05858749997765,"velocity":0.7637795275590551,"duration":0.17463226562500722},{"name":"B4","midi":71,"time":472.23505799997764,"velocity":0.7637795275590551,"duration":0.17463226562500722},{"name":"F3","midi":53,"time":472.23505799997764,"velocity":0.7637795275590551,"duration":0.35110276562500076},{"name":"A4","midi":69,"time":472.41152849997763,"velocity":0.7637795275590551,"duration":0.17463226562500722},{"name":"G#4","midi":68,"time":472.58799899997763,"velocity":0.7637795275590551,"duration":0.17463226562500722},{"name":"C3","midi":48,"time":472.58799899997763,"velocity":0.7637795275590551,"duration":0.35110276562500076},{"name":"A4","midi":69,"time":472.7644694999776,"velocity":0.7637795275590551,"duration":0.17463226562500722},{"name":"C5","midi":72,"time":472.9409399999776,"velocity":0.7637795275590551,"duration":0.17463226562500722},{"name":"F2","midi":41,"time":472.9409399999776,"velocity":0.7637795275590551,"duration":0.698529062499972},{"name":"A4","midi":69,"time":473.1174104999776,"velocity":0.7637795275590551,"duration":0.17463226562500722},{"name":"G#4","midi":68,"time":473.2938809999776,"velocity":0.7637795275590551,"duration":0.17463226562500722},{"name":"A4","midi":69,"time":473.4703514999776,"velocity":0.7637795275590551,"duration":0.17463226562500722},{"name":"D5","midi":74,"time":473.6468219999776,"velocity":0.7637795275590551,"duration":0.17463226562500722},{"name":"E5","midi":76,"time":473.8232924999776,"velocity":0.7637795275590551,"duration":0.17463226562500722},{"name":"F5","midi":77,"time":473.9997629999776,"velocity":0.7637795275590551,"duration":0.4963232812499996},{"name":"B2","midi":47,"time":473.9997629999776,"velocity":0.7637795275590551,"duration":0.35110276562500076},{"name":"C3","midi":48,"time":474.35270399997756,"velocity":0.7637795275590551,"duration":0.35110276562500076},{"name":"E5","midi":76,"time":474.52917449997756,"velocity":0.7637795275590551,"duration":0.17463226562500722},{"name":"D5","midi":74,"time":474.70564499997755,"velocity":0.7637795275590551,"duration":0.17463226562500722},{"name":"D3","midi":50,"time":474.70564499997755,"velocity":0.7637795275590551,"duration":0.35110276562500076},{"name":"C5","midi":72,"time":474.88211549997754,"velocity":0.7637795275590551,"duration":0.17463226562500722},{"name":"D5","midi":74,"time":475.05858599997754,"velocity":0.7637795275590551,"duration":0.17463226562500722},{"name":"E3","midi":52,"time":475.05858599997754,"velocity":0.7637795275590551,"duration":0.35110276562500076},{"name":"C5","midi":72,"time":475.23505649997753,"velocity":0.7637795275590551,"duration":0.17463226562500722},{"name":"B4","midi":71,"time":475.4115269999775,"velocity":0.7637795275590551,"duration":0.17463226562500722},{"name":"F#3","midi":54,"time":475.4115269999775,"velocity":0.7637795275590551,"duration":0.35110276562500076},{"name":"A4","midi":69,"time":475.5879974999775,"velocity":0.7637795275590551,"duration":0.17463226562500722},{"name":"B4","midi":71,"time":475.7644679999775,"velocity":0.7637795275590551,"duration":0.17463226562500722},{"name":"G#3","midi":56,"time":475.7644679999775,"velocity":0.7637795275590551,"duration":0.35110276562500076},{"name":"C5","midi":72,"time":475.9409384999775,"velocity":0.7637795275590551,"duration":0.17463226562500722},{"name":"D5","midi":74,"time":476.1174089999775,"velocity":0.7637795275590551,"duration":0.505514453124988},{"name":"E3","midi":52,"time":476.1174089999775,"velocity":0.7637795275590551,"duration":0.35110276562500076},{"name":"F#3","midi":54,"time":476.4703499999775,"velocity":0.7637795275590551,"duration":0.35110276562500076},{"name":"C5","midi":72,"time":476.6468204999775,"velocity":0.7637795275590551,"duration":0.17463226562500722},{"name":"B4","midi":71,"time":476.8232909999775,"velocity":0.7637795275590551,"duration":0.17463226562500722},{"name":"G#3","midi":56,"time":476.8232909999775,"velocity":0.7637795275590551,"duration":0.35110276562500076},{"name":"A4","midi":69,"time":476.99976149997747,"velocity":0.7637795275590551,"duration":0.17463226562500722},{"name":"B4","midi":71,"time":477.17623199997746,"velocity":0.7637795275590551,"duration":0.17463226562500722},{"name":"A3","midi":57,"time":477.17623199997746,"velocity":0.7637795275590551,"duration":0.35110276562500076},{"name":"A4","midi":69,"time":477.35270249997745,"velocity":0.7637795275590551,"duration":0.17463226562500722},{"name":"G#4","midi":68,"time":477.52917299997745,"velocity":0.7637795275590551,"duration":0.17463226562500722},{"name":"B3","midi":59,"time":477.52917299997745,"velocity":0.7637795275590551,"duration":0.35110276562500076},{"name":"F#4","midi":66,"time":477.70564349997744,"velocity":0.7637795275590551,"duration":0.17463226562500722},{"name":"E4","midi":64,"time":477.88211399997743,"velocity":0.7637795275590551,"duration":0.17463226562500722},{"name":"C4","midi":60,"time":477.88211399997743,"velocity":0.7637795275590551,"duration":0.35110276562500076},{"name":"G#4","midi":68,"time":478.0585844999774,"velocity":0.7637795275590551,"duration":0.17463226562500722},{"name":"F#4","midi":66,"time":478.2350549999774,"velocity":0.7637795275590551,"duration":0.17463226562500722},{"name":"B3","midi":59,"time":478.2350549999774,"velocity":0.7637795275590551,"duration":0.35110276562500076},{"name":"E4","midi":64,"time":478.4115254999774,"velocity":0.7637795275590551,"duration":0.17463226562500722},{"name":"A4","midi":69,"time":478.5879959999774,"velocity":0.7637795275590551,"duration":0.17463226562500722},{"name":"C4","midi":60,"time":478.5879959999774,"velocity":0.7637795275590551,"duration":0.35110276562500076},{"name":"C5","midi":72,"time":478.7644664999774,"velocity":0.7637795275590551,"duration":0.17463226562500722},{"name":"B4","midi":71,"time":478.9409369999774,"velocity":0.7637795275590551,"duration":0.17463226562500722},{"name":"D4","midi":62,"time":478.9409369999774,"velocity":0.7637795275590551,"duration":0.35110276562500076},{"name":"A4","midi":69,"time":479.1174074999774,"velocity":0.7637795275590551,"duration":0.17463226562500722},{"name":"D5","midi":74,"time":479.2938779999774,"velocity":0.7637795275590551,"duration":0.17463226562500722},{"name":"G#3","midi":56,"time":479.2938779999774,"velocity":0.7637795275590551,"duration":0.35110276562500076},{"name":"C5","midi":72,"time":479.4703484999774,"velocity":0.7637795275590551,"duration":0.17463226562500722},{"name":"B4","midi":71,"time":479.64681899997737,"velocity":0.7637795275590551,"duration":0.17463226562500722},{"name":"A3","midi":57,"time":479.64681899997737,"velocity":0.7637795275590551,"duration":0.35110276562500076},{"name":"A4","midi":69,"time":479.82328949997736,"velocity":0.7637795275590551,"duration":0.17463226562500722},{"name":"E5","midi":76,"time":479.99975999997736,"velocity":0.7637795275590551,"duration":0.35110276562500076},{"name":"G#3","midi":56,"time":479.99975999997736,"velocity":0.7637795275590551,"duration":0.17463226562500722},{"name":"A3","midi":57,"time":480.17623049997735,"velocity":0.7637795275590551,"duration":0.17463226562500722},{"name":"D5","midi":74,"time":480.35270099997734,"velocity":0.7637795275590551,"duration":0.17463226562500722},{"name":"B3","midi":59,"time":480.35270099997734,"velocity":0.7637795275590551,"duration":0.5275732656249943},{"name":"C5","midi":72,"time":480.52917149997734,"velocity":0.7637795275590551,"duration":0.17463226562500722},{"name":"B4","midi":71,"time":480.70564199997733,"velocity":0.7637795275590551,"duration":0.17463226562500722},{"name":"A4","midi":69,"time":480.8821124999773,"velocity":0.7637795275590551,"duration":0.15624992187497355},{"name":"A3","midi":57,"time":480.8821124999773,"velocity":0.7637795275590551,"duration":0.16544109374996196},{"name":"G#4","midi":68,"time":481.05858299997726,"velocity":0.7637795275590551,"duration":0.15624992187497355},{"name":"G#3","midi":56,"time":481.05858299997726,"velocity":0.7637795275590551,"duration":0.16544109374996196},{"name":"F#4","midi":66,"time":481.2350534999772,"velocity":0.7637795275590551,"duration":0.15624992187497355},{"name":"F#3","midi":54,"time":481.2350534999772,"velocity":0.7637795275590551,"duration":0.16544109374996196},{"name":"E4","midi":64,"time":481.41152399997713,"velocity":0.7637795275590551,"duration":0.15624992187497355},{"name":"E3","midi":52,"time":481.41152399997713,"velocity":0.7637795275590551,"duration":0.16544109374996196},{"name":"D4","midi":62,"time":481.58799449997707,"velocity":0.7637795275590551,"duration":0.15624992187497355},{"name":"D3","midi":50,"time":481.58799449997707,"velocity":0.7637795275590551,"duration":0.16544109374996196},{"name":"C4","midi":60,"time":481.764464999977,"velocity":0.7637795275590551,"duration":0.15624992187497355},{"name":"C3","midi":48,"time":481.764464999977,"velocity":0.7637795275590551,"duration":0.16544109374996196},{"name":"B3","midi":59,"time":481.94093549997694,"velocity":0.7637795275590551,"duration":0.15624992187497355},{"name":"B2","midi":47,"time":481.94093549997694,"velocity":0.7637795275590551,"duration":0.16544109374996196},{"name":"C3","midi":48,"time":482.1174059999769,"velocity":0.7637795275590551,"duration":0.35110276562500076},{"name":"E4","midi":64,"time":482.2938764999769,"velocity":0.7637795275590551,"duration":0.17463226562500722},{"name":"D4","midi":62,"time":482.47034699997687,"velocity":0.7637795275590551,"duration":0.17463226562500722},{"name":"C4","midi":60,"time":482.47034699997687,"velocity":0.7637795275590551,"duration":0.35110276562500076},{"name":"E4","midi":64,"time":482.64681749997686,"velocity":0.7637795275590551,"duration":0.17463226562500722},{"name":"F#4","midi":66,"time":482.82328799997686,"velocity":0.7637795275590551,"duration":0.17463226562500722},{"name":"B3","midi":59,"time":482.82328799997686,"velocity":0.7637795275590551,"duration":0.35110276562500076},{"name":"E4","midi":64,"time":482.99975849997685,"velocity":0.7637795275590551,"duration":0.17463226562500722},{"name":"D4","midi":62,"time":483.17622899997684,"velocity":0.7637795275590551,"duration":0.17463226562500722},{"name":"C3","midi":48,"time":483.17622899997684,"velocity":0.7637795275590551,"duration":0.35110276562500076},{"name":"E4","midi":64,"time":483.35269949997684,"velocity":0.7637795275590551,"duration":0.17463226562500722},{"name":"G4","midi":67,"time":483.52916999997683,"velocity":0.7637795275590551,"duration":0.20220578124997246},{"name":"C#3","midi":49,"time":483.52916999997683,"velocity":0.7637795275590551,"duration":0.35110276562500076},{"name":"E4","midi":64,"time":483.7056404999768,"velocity":0.7637795275590551,"duration":0.17463226562500722},{"name":"D4","midi":62,"time":483.8821109999768,"velocity":0.7637795275590551,"duration":0.17463226562500722},{"name":"A3","midi":57,"time":483.8821109999768,"velocity":0.7637795275590551,"duration":0.35110276562500076},{"name":"E4","midi":64,"time":484.0585814999768,"velocity":0.7637795275590551,"duration":0.1654410937500188},{"name":"D3","midi":50,"time":484.2350519999768,"velocity":0.7637795275590551,"duration":0.35110276562500076},{"name":"F#4","midi":66,"time":484.4115224999768,"velocity":0.7637795275590551,"duration":0.17463226562500722},{"name":"E4","midi":64,"time":484.5879929999768,"velocity":0.7637795275590551,"duration":0.17463226562500722},{"name":"D4","midi":62,"time":484.5879929999768,"velocity":0.7637795275590551,"duration":0.35110276562500076},{"name":"F#4","midi":66,"time":484.7644634999768,"velocity":0.7637795275590551,"duration":0.17463226562500722},{"name":"G#4","midi":68,"time":484.9409339999768,"velocity":0.7637795275590551,"duration":0.17463226562500722},{"name":"C4","midi":60,"time":484.9409339999768,"velocity":0.7637795275590551,"duration":0.35110276562500076},{"name":"F#4","midi":66,"time":485.1174044999768,"velocity":0.7637795275590551,"duration":0.17463226562500722},{"name":"E4","midi":64,"time":485.29387499997677,"velocity":0.7637795275590551,"duration":0.17463226562500722},{"name":"D3","midi":50,"time":485.29387499997677,"velocity":0.7637795275590551,"duration":0.35110276562500076},{"name":"F#4","midi":66,"time":485.47034549997676,"velocity":0.7637795275590551,"duration":0.17463226562500722},{"name":"A4","midi":69,"time":485.64681599997675,"velocity":0.7637795275590551,"duration":0.22058812500000613},{"name":"D#3","midi":51,"time":485.64681599997675,"velocity":0.7637795275590551,"duration":0.35110276562500076},{"name":"F#4","midi":66,"time":485.82328649997675,"velocity":0.7637795275590551,"duration":0.17463226562500722},{"name":"E4","midi":64,"time":485.99975699997674,"velocity":0.7637795275590551,"duration":0.17463226562500722},{"name":"B3","midi":59,"time":485.99975699997674,"velocity":0.7637795275590551,"duration":0.35110276562500076},{"name":"F#4","midi":66,"time":486.17622749997673,"velocity":0.7637795275590551,"duration":0.1654410937500188},{"name":"E3","midi":52,"time":486.3526979999767,"velocity":0.7637795275590551,"duration":0.35110276562500076},{"name":"G#4","midi":68,"time":486.5291684999767,"velocity":0.7637795275590551,"duration":0.17463226562500722},{"name":"F#4","midi":66,"time":486.7056389999767,"velocity":0.7637795275590551,"duration":0.17463226562500722},{"name":"E4","midi":64,"time":486.7056389999767,"velocity":0.7637795275590551,"duration":0.35110276562500076},{"name":"G#4","midi":68,"time":486.8821094999767,"velocity":0.7637795275590551,"duration":0.17463226562500722},{"name":"A4","midi":69,"time":487.0585799999767,"velocity":0.7637795275590551,"duration":0.17463226562500722},{"name":"D4","midi":62,"time":487.0585799999767,"velocity":0.7637795275590551,"duration":0.35110276562500076},{"name":"G#4","midi":68,"time":487.2350504999767,"velocity":0.7637795275590551,"duration":0.17463226562500722},{"name":"F#4","midi":66,"time":487.4115209999767,"velocity":0.7637795275590551,"duration":0.17463226562500722},{"name":"E3","midi":52,"time":487.4115209999767,"velocity":0.7637795275590551,"duration":0.35110276562500076},{"name":"G#4","midi":68,"time":487.5879914999767,"velocity":0.7637795275590551,"duration":0.17463226562500722},{"name":"B4","midi":71,"time":487.7644619999767,"velocity":0.7637795275590551,"duration":0.23897046874998296},{"name":"F3","midi":53,"time":487.7644619999767,"velocity":0.7637795275590551,"duration":0.35110276562500076},{"name":"G#4","midi":68,"time":487.94093249997667,"velocity":0.7637795275590551,"duration":0.17463226562500722},{"name":"F#4","midi":66,"time":488.11740299997666,"velocity":0.7637795275590551,"duration":0.17463226562500722},{"name":"D4","midi":62,"time":488.11740299997666,"velocity":0.7637795275590551,"duration":0.35110276562500076},{"name":"G#4","midi":68,"time":488.29387349997666,"velocity":0.7637795275590551,"duration":0.1654410937500188},{"name":"C4","midi":60,"time":488.47034399997665,"velocity":0.7637795275590551,"duration":0.35110276562500076},{"name":"A4","midi":69,"time":488.64681449997664,"velocity":0.7637795275590551,"duration":0.17463226562500722},{"name":"G#4","midi":68,"time":488.82328499997664,"velocity":0.7637795275590551,"duration":0.17463226562500722},{"name":"B3","midi":59,"time":488.82328499997664,"velocity":0.7637795275590551,"duration":0.35110276562500076},{"name":"A4","midi":69,"time":488.99975549997663,"velocity":0.7637795275590551,"duration":0.17463226562500722},{"name":"B4","midi":71,"time":489.1762259999766,"velocity":0.7637795275590551,"duration":0.20220578124997246},{"name":"A3","midi":57,"time":489.1762259999766,"velocity":0.7637795275590551,"duration":0.35110276562500076},{"name":"A4","midi":69,"time":489.3526964999766,"velocity":0.7637795275590551,"duration":0.17463226562500722},{"name":"G#4","midi":68,"time":489.5291669999766,"velocity":0.7637795275590551,"duration":0.17463226562500722},{"name":"F4","midi":65,"time":489.5291669999766,"velocity":0.7637795275590551,"duration":0.35110276562500076},{"name":"A4","midi":69,"time":489.7056374999766,"velocity":0.7637795275590551,"duration":0.17463226562500722},{"name":"C#5","midi":73,"time":489.8821079999766,"velocity":0.7637795275590551,"duration":0.18198520312500932},{"name":"G3","midi":55,"time":489.8821079999766,"velocity":0.7637795275590551,"duration":0.35110276562500076},{"name":"A4","midi":69,"time":490.0585784999766,"velocity":0.7637795275590551,"duration":0.17463226562500722},{"name":"G#4","midi":68,"time":490.2350489999766,"velocity":0.7637795275590551,"duration":0.17463226562500722},{"name":"E4","midi":64,"time":490.2350489999766,"velocity":0.7637795275590551,"duration":0.35110276562500076},{"name":"A4","midi":69,"time":490.4115194999766,"velocity":0.7637795275590551,"duration":0.17463226562500722},{"name":"D5","midi":74,"time":490.58798999997657,"velocity":0.7637795275590551,"duration":0.20220578124997246},{"name":"F3","midi":53,"time":490.58798999997657,"velocity":0.7637795275590551,"duration":0.35110276562500076},{"name":"A4","midi":69,"time":490.76446049997656,"velocity":0.7637795275590551,"duration":0.17463226562500722},{"name":"G#4","midi":68,"time":490.94093099997656,"velocity":0.7637795275590551,"duration":0.17463226562500722},{"name":"D4","midi":62,"time":490.94093099997656,"velocity":0.7637795275590551,"duration":0.35110276562500076},{"name":"A4","midi":69,"time":491.11740149997655,"velocity":0.7637795275590551,"duration":0.17463226562500722},{"name":"E5","midi":76,"time":491.29387199997655,"velocity":0.7637795275590551,"duration":0.20220578124997246},{"name":"E3","midi":52,"time":491.29387199997655,"velocity":0.7637795275590551,"duration":0.35110276562500076},{"name":"A4","midi":69,"time":491.47034249997654,"velocity":0.7637795275590551,"duration":0.17463226562500722},{"name":"G#4","midi":68,"time":491.64681299997653,"velocity":0.7637795275590551,"duration":0.17463226562500722},{"name":"C#4","midi":61,"time":491.64681299997653,"velocity":0.7637795275590551,"duration":0.35110276562500076},{"name":"A4","midi":69,"time":491.8232834999765,"velocity":0.7637795275590551,"duration":0.17463226562500722},{"name":"F5","midi":77,"time":491.9997539999765,"velocity":0.7637795275590551,"duration":0.8805142656249814},{"name":"D3","midi":50,"time":491.9997539999765,"velocity":0.7637795275590551,"duration":1.056984765624975},{"name":"D4","midi":62,"time":492.3526949999765,"velocity":0.7637795275590551,"duration":0.35110276562500076},{"name":"G#3","midi":56,"time":492.7056359999765,"velocity":0.7637795275590551,"duration":0.35110276562500076},{"name":"D5","midi":74,"time":492.8821064999765,"velocity":0.7637795275590551,"duration":0.17463226562500722},{"name":"C5","midi":72,"time":493.0585769999765,"velocity":0.7637795275590551,"duration":0.17463226562500722},{"name":"B3","midi":59,"time":493.0585769999765,"velocity":0.7637795275590551,"duration":0.698529062499972},{"name":"D5","midi":74,"time":493.2350474999765,"velocity":0.7637795275590551,"duration":0.17463226562500722},{"name":"E5","midi":76,"time":493.41151799997647,"velocity":0.7637795275590551,"duration":0.17463226562500722},{"name":"C3","midi":48,"time":493.41151799997647,"velocity":0.7637795275590551,"duration":0.698529062499972},{"name":"C5","midi":72,"time":493.58798849997646,"velocity":0.7637795275590551,"duration":0.17463226562500722},{"name":"B4","midi":71,"time":493.76445899997645,"velocity":0.7637795275590551,"duration":0.17463226562500722},{"name":"A3","midi":57,"time":493.76445899997645,"velocity":0.7637795275590551,"duration":0.698529062499972},{"name":"C5","midi":72,"time":493.94092949997645,"velocity":0.7637795275590551,"duration":0.17463226562500722},{"name":"D5","midi":74,"time":494.11739999997644,"velocity":0.7637795275590551,"duration":0.17463226562500722},{"name":"B2","midi":47,"time":494.11739999997644,"velocity":0.7637795275590551,"duration":0.698529062499972},{"name":"B4","midi":71,"time":494.29387049997644,"velocity":0.7637795275590551,"duration":0.17463226562500722},{"name":"A4","midi":69,"time":494.47034099997643,"velocity":0.7637795275590551,"duration":0.17463226562500722},{"name":"G#3","midi":56,"time":494.47034099997643,"velocity":0.7637795275590551,"duration":0.35110276562500076},{"name":"B4","midi":71,"time":494.6468114999764,"velocity":0.7637795275590551,"duration":0.17463226562500722},{"name":"C5","midi":72,"time":494.8232819999764,"velocity":0.7637795275590551,"duration":0.17463226562500722},{"name":"A3","midi":57,"time":494.8232819999764,"velocity":0.7637795275590551,"duration":0.698529062499972},{"name":"A2","midi":45,"time":494.8232819999764,"velocity":0.7637795275590551,"duration":0.35110276562500076},{"name":"A4","midi":69,"time":494.9997524999764,"velocity":0.7637795275590551,"duration":0.17463226562500722},{"name":"G#4","midi":68,"time":495.1762229999764,"velocity":0.7637795275590551,"duration":0.17463226562500722},{"name":"B2","midi":47,"time":495.1762229999764,"velocity":0.7637795275590551,"duration":0.17463226562500722},{"name":"A4","midi":69,"time":495.3526934999764,"velocity":0.7637795275590551,"duration":0.17463226562500722},{"name":"C3","midi":48,"time":495.3526934999764,"velocity":0.7637795275590551,"duration":0.17463226562500722},{"name":"B4","midi":71,"time":495.5291639999764,"velocity":0.7637795275590551,"duration":0.698529062499972},{"name":"D2","midi":38,"time":495.5291639999764,"velocity":0.7637795275590551,"duration":0.7040437656249878},{"name":"F4","midi":65,"time":495.8821049999764,"velocity":0.7637795275590551,"duration":0.5147056249999764},{"name":"G#4","midi":68,"time":496.23504599997636,"velocity":0.7637795275590551,"duration":0.698529062499972},{"name":"E2","midi":40,"time":496.23504599997636,"velocity":0.7637795275590551,"duration":0.7040437656249878},{"name":"E4","midi":64,"time":496.58798699997635,"velocity":0.7637795275590551,"duration":0.35110276562500076},{"name":"D4","midi":62,"time":496.94092799997634,"velocity":0.7637795275590551,"duration":0.7040437656249878},{"name":"A4","midi":69,"time":496.94092799997634,"velocity":0.7637795275590551,"duration":3.492645312499917},{"name":"A2","midi":45,"time":496.94092799997634,"velocity":0.7637795275590551,"duration":1.056984765624975},{"name":"C4","midi":60,"time":497.6909276249763,"velocity":0.7637795275590551,"duration":1.409925765624962},{"name":"E3","midi":52,"time":497.6909276249763,"velocity":0.7637795275590551,"duration":0.7481613906250004},{"name":"A3","midi":57,"time":498.4409272499763,"velocity":0.7637795275590551,"duration":1.470587499999965},{"name":"A2","midi":45,"time":500.47033799997627,"velocity":0.7637795275590551,"duration":0.34926453125001444},{"name":"C3","midi":48,"time":500.47033799997627,"velocity":0.7637795275590551,"duration":0.34926453125001444},{"name":"A3","midi":57,"time":500.47033799997627,"velocity":0.7637795275590551,"duration":0.34926453125001444},{"name":"E3","midi":52,"time":500.47033799997627,"velocity":0.7637795275590551,"duration":0.34926453125001444},{"name":"E5","midi":76,"time":500.47033799997627,"velocity":0.7637795275590551,"duration":0.17463226562500722},{"name":"C5","midi":72,"time":500.64680849997626,"velocity":0.7637795275590551,"duration":0.17463226562500722},{"name":"A4","midi":69,"time":500.82327899997625,"velocity":0.7637795275590551,"duration":0.7040437656249878},{"name":"C3","midi":48,"time":501.17621999997624,"velocity":0.7637795275590551,"duration":0.34926453125001444},{"name":"A3","midi":57,"time":501.17621999997624,"velocity":0.7637795275590551,"duration":0.34926453125001444},{"name":"E3","midi":52,"time":501.17621999997624,"velocity":0.7637795275590551,"duration":0.34926453125001444},{"name":"G#4","midi":68,"time":501.5291609999762,"velocity":0.7637795275590551,"duration":0.17463226562500722},{"name":"A4","midi":69,"time":501.7056314999762,"velocity":0.7637795275590551,"duration":0.17463226562500722},{"name":"G#3","midi":56,"time":501.8821019999762,"velocity":0.7637795275590551,"duration":0.34926453125001444},{"name":"E3","midi":52,"time":501.8821019999762,"velocity":0.7637795275590551,"duration":0.34926453125001444},{"name":"B4","midi":71,"time":501.8821019999762,"velocity":0.7637795275590551,"duration":0.17463226562500722},{"name":"C5","midi":72,"time":502.0585724999762,"velocity":0.7637795275590551,"duration":0.17463226562500722},{"name":"D5","midi":74,"time":502.2350429999762,"velocity":0.7637795275590551,"duration":0.17463226562500722},{"name":"B4","midi":71,"time":502.4115134999762,"velocity":0.7637795275590551,"duration":0.17463226562500722},{"name":"A3","midi":57,"time":502.5879839999762,"velocity":0.7637795275590551,"duration":0.34926453125001444},{"name":"D5","midi":74,"time":502.5879839999762,"velocity":0.7637795275590551,"duration":0.17463226562500722},{"name":"C5","midi":72,"time":502.7644544999762,"velocity":0.7637795275590551,"duration":0.17463226562500722},{"name":"B4","midi":71,"time":502.9409249999762,"velocity":0.7637795275590551,"duration":0.1654410937500188},{"name":"A4","midi":69,"time":503.11739549997617,"velocity":0.7637795275590551,"duration":0.13786757812499673},{"name":"A3","midi":57,"time":503.29386599997616,"velocity":0.7637795275590551,"duration":0.34926453125001444},{"name":"A2","midi":45,"time":503.29386599997616,"velocity":0.7637795275590551,"duration":0.34926453125001444},{"name":"C3","midi":48,"time":503.29386599997616,"velocity":0.7637795275590551,"duration":0.34926453125001444},{"name":"E3","midi":52,"time":503.29386599997616,"velocity":0.7637795275590551,"duration":0.34926453125001444},{"name":"E5","midi":76,"time":503.29386599997616,"velocity":0.7637795275590551,"duration":0.17463226562500722},{"name":"D5","midi":74,"time":503.47033649997616,"velocity":0.7637795275590551,"duration":0.17463226562500722},{"name":"C5","midi":72,"time":503.64680699997615,"velocity":0.7637795275590551,"duration":0.17463226562500722},{"name":"B4","midi":71,"time":503.82327749997614,"velocity":0.7637795275590551,"duration":0.17463226562500722},{"name":"A3","midi":57,"time":503.99974799997614,"velocity":0.7637795275590551,"duration":0.34926453125001444},{"name":"E3","midi":52,"time":503.99974799997614,"velocity":0.7637795275590551,"duration":0.34926453125001444},{"name":"C3","midi":48,"time":503.99974799997614,"velocity":0.7637795275590551,"duration":0.34926453125001444},{"name":"A4","midi":69,"time":503.99974799997614,"velocity":0.7637795275590551,"duration":0.17463226562500722},{"name":"E4","midi":64,"time":504.17621849997613,"velocity":0.7637795275590551,"duration":0.17463226562500722},{"name":"A4","midi":69,"time":504.3526889999761,"velocity":0.7637795275590551,"duration":0.17463226562500722},{"name":"C5","midi":72,"time":504.5291594999761,"velocity":0.7637795275590551,"duration":0.17463226562500722},{"name":"G#3","midi":56,"time":504.7056299999761,"velocity":0.7637795275590551,"duration":0.34926453125001444},{"name":"E3","midi":52,"time":504.7056299999761,"velocity":0.7637795275590551,"duration":0.34926453125001444},{"name":"B4","midi":71,"time":504.7056299999761,"velocity":0.7637795275590551,"duration":0.17463226562500722},{"name":"E4","midi":64,"time":504.8821004999761,"velocity":0.7637795275590551,"duration":0.17463226562500722},{"name":"B4","midi":71,"time":505.0585709999761,"velocity":0.7637795275590551,"duration":0.17463226562500722},{"name":"D5","midi":74,"time":505.2350414999761,"velocity":0.7637795275590551,"duration":0.17463226562500722},{"name":"A3","midi":57,"time":505.4115119999761,"velocity":0.7637795275590551,"duration":0.34926453125001444},{"name":"C5","midi":72,"time":505.4115119999761,"velocity":0.7637795275590551,"duration":0.17463226562500722},{"name":"E5","midi":76,"time":505.5879824999761,"velocity":0.7637795275590551,"duration":0.17463226562500722},{"name":"C5","midi":72,"time":505.7644529999761,"velocity":0.7637795275590551,"duration":0.17463226562500722},{"name":"A4","midi":69,"time":505.94092349997607,"velocity":0.7637795275590551,"duration":0.17463226562500722},{"name":"A2","midi":45,"time":506.11739399997606,"velocity":0.7637795275590551,"duration":0.35110276562500076},{"name":"C5","midi":72,"time":506.11739399997606,"velocity":0.7637795275590551,"duration":0.17463226562500722},{"name":"A4","midi":69,"time":506.29386449997605,"velocity":0.7637795275590551,"duration":0.17463226562500722},{"name":"A3","midi":57,"time":506.47033499997605,"velocity":0.7637795275590551,"duration":0.35110276562500076},{"name":"G4","midi":67,"time":506.47033499997605,"velocity":0.7637795275590551,"duration":0.17463226562500722},{"name":"F4","midi":65,"time":506.64680549997604,"velocity":0.7637795275590551,"duration":0.17463226562500722},{"name":"G3","midi":55,"time":506.82327599997603,"velocity":0.7637795275590551,"duration":0.35110276562500076},{"name":"E4","midi":64,"time":506.82327599997603,"velocity":0.7637795275590551,"duration":0.17463226562500722},{"name":"G4","midi":67,"time":506.999746499976,"velocity":0.7637795275590551,"duration":0.17463226562500722},{"name":"G2","midi":43,"time":507.176216999976,"velocity":0.7637795275590551,"duration":0.35110276562500076},{"name":"A4","midi":69,"time":507.176216999976,"velocity":0.7637795275590551,"duration":0.17463226562500722},{"name":"B4","midi":71,"time":507.352687499976,"velocity":0.7637795275590551,"duration":0.17463226562500722},{"name":"F2","midi":41,"time":507.529157999976,"velocity":0.7637795275590551,"duration":0.35110276562500076},{"name":"C5","midi":72,"time":507.529157999976,"velocity":0.7637795275590551,"duration":0.17463226562500722},{"name":"F4","midi":65,"time":507.705628499976,"velocity":0.7637795275590551,"duration":0.17463226562500722},{"name":"F3","midi":53,"time":507.882098999976,"velocity":0.7637795275590551,"duration":0.35110276562500076},{"name":"E4","midi":64,"time":507.882098999976,"velocity":0.7637795275590551,"duration":0.17463226562500722},{"name":"D4","midi":62,"time":508.058569499976,"velocity":0.7637795275590551,"duration":0.17463226562500722},{"name":"E3","midi":52,"time":508.235039999976,"velocity":0.7637795275590551,"duration":0.35110276562500076},{"name":"C4","midi":60,"time":508.235039999976,"velocity":0.7637795275590551,"duration":0.17463226562500722},{"name":"G4","midi":67,"time":508.411510499976,"velocity":0.7637795275590551,"duration":0.17463226562500722},{"name":"E2","midi":40,"time":508.58798099997597,"velocity":0.7637795275590551,"duration":0.35110276562500076},{"name":"A4","midi":69,"time":508.58798099997597,"velocity":0.7637795275590551,"duration":0.17463226562500722},{"name":"B4","midi":71,"time":508.76445149997596,"velocity":0.7637795275590551,"duration":0.17463226562500722},{"name":"A2","midi":45,"time":508.94092199997596,"velocity":0.7637795275590551,"duration":0.35110276562500076},{"name":"C5","midi":72,"time":508.94092199997596,"velocity":0.7637795275590551,"duration":0.17463226562500722},{"name":"B4","midi":71,"time":509.11739249997595,"velocity":0.7637795275590551,"duration":0.17463226562500722},{"name":"F3","midi":53,"time":509.29386299997594,"velocity":0.7637795275590551,"duration":0.35110276562500076},{"name":"C5","midi":72,"time":509.29386299997594,"velocity":0.7637795275590551,"duration":0.17463226562500722},{"name":"A4","midi":69,"time":509.47033349997594,"velocity":0.7637795275590551,"duration":0.17463226562500722},{"name":"E3","midi":52,"time":509.64680399997593,"velocity":0.7637795275590551,"duration":0.35110276562500076},{"name":"C5","midi":72,"time":509.64680399997593,"velocity":0.7637795275590551,"duration":0.17463226562500722},{"name":"B4","midi":71,"time":509.8232744999759,"velocity":0.7637795275590551,"duration":0.17463226562500722},{"name":"G2","midi":43,"time":509.9997449999759,"velocity":0.7637795275590551,"duration":0.35110276562500076},{"name":"C5","midi":72,"time":509.9997449999759,"velocity":0.7637795275590551,"duration":0.17463226562500722},{"name":"G4","midi":67,"time":510.1762154999759,"velocity":0.7637795275590551,"duration":0.17463226562500722},{"name":"F2","midi":41,"time":510.3526859999759,"velocity":0.7637795275590551,"duration":0.35110276562500076},{"name":"C5","midi":72,"time":510.3526859999759,"velocity":0.7637795275590551,"duration":0.17463226562500722},{"name":"B4","midi":71,"time":510.5291564999759,"velocity":0.7637795275590551,"duration":0.17463226562500722},{"name":"D3","midi":50,"time":510.7056269999759,"velocity":0.7637795275590551,"duration":0.35110276562500076},{"name":"C5","midi":72,"time":510.7056269999759,"velocity":0.7637795275590551,"duration":0.17463226562500722},{"name":"F4","midi":65,"time":510.8820974999759,"velocity":0.7637795275590551,"duration":0.17463226562500722},{"name":"C3","midi":48,"time":511.0585679999759,"velocity":0.7637795275590551,"duration":0.35110276562500076},{"name":"E4","midi":64,"time":511.0585679999759,"velocity":0.7637795275590551,"duration":0.17463226562500722},{"name":"G4","midi":67,"time":511.2350384999759,"velocity":0.7637795275590551,"duration":0.17463226562500722},{"name":"E2","midi":40,"time":511.41150899997587,"velocity":0.7637795275590551,"duration":0.35110276562500076},{"name":"A4","midi":69,"time":511.41150899997587,"velocity":0.7637795275590551,"duration":0.17463226562500722},{"name":"B4","midi":71,"time":511.58797949997586,"velocity":0.7637795275590551,"duration":0.17463226562500722},{"name":"G2","midi":43,"time":511.76444999997585,"velocity":0.7637795275590551,"duration":0.3511027656249439},{"name":"C5","midi":72,"time":511.76444999997585,"velocity":0.7637795275590551,"duration":0.17463226562500722},{"name":"D5","midi":74,"time":511.94092049997585,"velocity":0.7637795275590551,"duration":0.17463226562495038},{"name":"C3","midi":48,"time":512.1173909999758,"velocity":0.7637795275590551,"duration":0.35110276562500076},{"name":"E5","midi":76,"time":512.1173909999758,"velocity":0.7637795275590551,"duration":0.44117625000001226},{"name":"F2","midi":41,"time":512.4703319999758,"velocity":0.7637795275590551,"duration":0.35110276562500076},{"name":"D5","midi":74,"time":512.6468024999758,"velocity":0.7637795275590551,"duration":0.17463226562495038},{"name":"A2","midi":45,"time":512.8232729999758,"velocity":0.7637795275590551,"duration":0.35110276562488707},{"name":"E5","midi":76,"time":512.8232729999758,"velocity":0.7637795275590551,"duration":0.17463226562495038},{"name":"F5","midi":77,"time":512.9997434999757,"velocity":0.7637795275590551,"duration":0.17463226562495038},{"name":"D3","midi":50,"time":513.1762139999756,"velocity":0.7637795275590551,"duration":0.35110276562488707},{"name":"E5","midi":76,"time":513.1762139999756,"velocity":0.7637795275590551,"duration":0.17463226562495038},{"name":"D5","midi":74,"time":513.3526844999756,"velocity":0.7637795275590551,"duration":0.17463226562495038},{"name":"F3","midi":53,"time":513.5291549999755,"velocity":0.7637795275590551,"duration":0.5275732656248238},{"name":"C5","midi":72,"time":513.5291549999755,"velocity":0.7637795275590551,"duration":0.17463226562495038},{"name":"B4","midi":71,"time":513.7056254999754,"velocity":0.7637795275590551,"duration":0.17463226562495038},{"name":"A4","midi":69,"time":513.8820959999754,"velocity":0.7637795275590551,"duration":0.17463226562495038},{"name":"E3","midi":52,"time":514.0585664999753,"velocity":0.7637795275590551,"duration":0.17463226562495038},{"name":"G4","midi":67,"time":514.0585664999753,"velocity":0.7637795275590551,"duration":0.17463226562495038},{"name":"D3","midi":50,"time":514.2350369999753,"velocity":0.7637795275590551,"duration":0.17463226562495038},{"name":"A4","midi":69,"time":514.2350369999753,"velocity":0.7637795275590551,"duration":0.17463226562495038},{"name":"C3","midi":48,"time":514.4115074999752,"velocity":0.7637795275590551,"duration":0.17463226562495038},{"name":"B4","midi":71,"time":514.4115074999752,"velocity":0.7637795275590551,"duration":0.17463226562495038},{"name":"B2","midi":47,"time":514.5879779999751,"velocity":0.7637795275590551,"duration":0.17463226562495038},{"name":"C5","midi":72,"time":514.5879779999751,"velocity":0.7637795275590551,"duration":0.17463226562495038},{"name":"A2","midi":45,"time":514.7644484999751,"velocity":0.7637795275590551,"duration":0.17463226562495038},{"name":"D5","midi":74,"time":514.7644484999751,"velocity":0.7637795275590551,"duration":0.17463226562495038},{"name":"G2","midi":43,"time":514.940918999975,"velocity":0.7637795275590551,"duration":0.17463226562495038},{"name":"E5","midi":76,"time":514.940918999975,"velocity":0.7637795275590551,"duration":0.17463226562495038},{"name":"F2","midi":41,"time":515.1173894999749,"velocity":0.7637795275590551,"duration":0.17463226562495038},{"name":"F5","midi":77,"time":515.1173894999749,"velocity":0.7637795275590551,"duration":0.17463226562495038},{"name":"E2","midi":40,"time":515.2938599999749,"velocity":0.7637795275590551,"duration":0.2647057499999619},{"name":"G5","midi":79,"time":515.2938599999749,"velocity":0.7637795275590551,"duration":0.35110276562500076},{"name":"A2","midi":45,"time":515.6468009999749,"velocity":0.7637795275590551,"duration":0.2647057499999619},{"name":"C5","midi":72,"time":515.6468009999749,"velocity":0.7637795275590551,"duration":0.35110276562500076},{"name":"F2","midi":41,"time":515.9997419999748,"velocity":0.7637795275590551,"duration":0.2647057499999619},{"name":"E5","midi":76,"time":515.9997419999748,"velocity":0.7637795275590551,"duration":0.17463226562495038},{"name":"D5","midi":74,"time":516.1762124999748,"velocity":0.7637795275590551,"duration":0.17463226562506406},{"name":"G2","midi":43,"time":516.3526829999748,"velocity":0.7637795275590551,"duration":0.2647057499999619},{"name":"C5","midi":72,"time":516.3526829999748,"velocity":0.7637795275590551,"duration":0.17463226562495038},{"name":"B4","midi":71,"time":516.5291534999748,"velocity":0.7637795275590551,"duration":0.17463226562506406},{"name":"C2","midi":36,"time":516.7056239999748,"velocity":0.7637795275590551,"duration":0.6617643749998479},{"name":"C5","midi":72,"time":516.7056239999748,"velocity":0.7637795275590551,"duration":0.17463226562495038},{"name":"B4","midi":71,"time":516.8820944999748,"velocity":0.7637795275590551,"duration":0.17463226562495038},{"name":"C5","midi":72,"time":517.0585649999747,"velocity":0.7637795275590551,"duration":0.35110276562500076},{"name":"C3","midi":48,"time":517.4115059999747,"velocity":0.7637795275590551,"duration":0.34926453124990076},{"name":"E3","midi":52,"time":517.4115059999747,"velocity":0.7637795275590551,"duration":0.34926453124990076},{"name":"C4","midi":60,"time":517.4115059999747,"velocity":0.7637795275590551,"duration":0.34926453124990076},{"name":"G3","midi":55,"time":517.4115059999747,"velocity":0.7637795275590551,"duration":0.34926453124990076},{"name":"G5","midi":79,"time":517.4115059999747,"velocity":0.7637795275590551,"duration":0.17463226562495038},{"name":"E5","midi":76,"time":517.5879764999746,"velocity":0.7637795275590551,"duration":0.17463226562495038},{"name":"C5","midi":72,"time":517.7644469999746,"velocity":0.7637795275590551,"duration":0.7040437656249878},{"name":"E3","midi":52,"time":518.1173879999745,"velocity":0.7637795275590551,"duration":0.34926453125001444},{"name":"C4","midi":60,"time":518.1173879999745,"velocity":0.7637795275590551,"duration":0.34926453125001444},{"name":"G3","midi":55,"time":518.1173879999745,"velocity":0.7637795275590551,"duration":0.34926453125001444},{"name":"B4","midi":71,"time":518.4703289999745,"velocity":0.7637795275590551,"duration":0.17463226562495038},{"name":"C5","midi":72,"time":518.6467994999745,"velocity":0.7637795275590551,"duration":0.17463226562495038},{"name":"G3","midi":55,"time":518.8232699999744,"velocity":0.7637795275590551,"duration":0.34926453124990076},{"name":"B3","midi":59,"time":518.8232699999744,"velocity":0.7637795275590551,"duration":0.34926453124990076},{"name":"D5","midi":74,"time":518.8232699999744,"velocity":0.7637795275590551,"duration":0.17463226562495038},{"name":"E5","midi":76,"time":518.9997404999743,"velocity":0.7637795275590551,"duration":0.17463226562495038},{"name":"F5","midi":77,"time":519.1762109999743,"velocity":0.7637795275590551,"duration":0.17463226562495038},{"name":"D5","midi":74,"time":519.3526814999742,"velocity":0.7637795275590551,"duration":0.17463226562495038},{"name":"C4","midi":60,"time":519.5291519999741,"velocity":0.7637795275590551,"duration":0.34926453124990076},{"name":"F5","midi":77,"time":519.5291519999741,"velocity":0.7637795275590551,"duration":0.17463226562495038},{"name":"E5","midi":76,"time":519.7056224999741,"velocity":0.7637795275590551,"duration":0.17463226562495038},{"name":"D5","midi":74,"time":519.882092999974,"velocity":0.7637795275590551,"duration":0.1654410937500188},{"name":"C5","midi":72,"time":520.0585634999741,"velocity":0.7637795275590551,"duration":0.13786757812499673},{"name":"F3","midi":53,"time":520.2350339999741,"velocity":0.7637795275590551,"duration":0.34926453124990076},{"name":"D4","midi":62,"time":520.2350339999741,"velocity":0.7637795275590551,"duration":0.34926453124990076},{"name":"A3","midi":57,"time":520.2350339999741,"velocity":0.7637795275590551,"duration":0.34926453124990076},{"name":"A5","midi":81,"time":520.2350339999741,"velocity":0.7637795275590551,"duration":0.17463226562495038},{"name":"F5","midi":77,"time":520.4115044999741,"velocity":0.7637795275590551,"duration":0.17463226562495038},{"name":"D5","midi":74,"time":520.587974999974,"velocity":0.7637795275590551,"duration":0.7040437656249878},{"name":"A#3","midi":58,"time":520.940915999974,"velocity":0.7637795275590551,"duration":0.34926453125001444},{"name":"G3","midi":55,"time":520.940915999974,"velocity":0.7637795275590551,"duration":0.34926453125001444},{"name":"C#5","midi":73,"time":521.293856999974,"velocity":0.7637795275590551,"duration":0.17463226562495038},{"name":"D5","midi":74,"time":521.4703274999739,"velocity":0.7637795275590551,"duration":0.17463226562495038},{"name":"E3","midi":52,"time":521.6467979999738,"velocity":0.7637795275590551,"duration":0.34926453124990076},{"name":"C#3","midi":49,"time":521.6467979999738,"velocity":0.7637795275590551,"duration":0.34926453124990076},{"name":"A3","midi":57,"time":521.6467979999738,"velocity":0.7637795275590551,"duration":0.34926453124990076},{"name":"E5","midi":76,"time":521.6467979999738,"velocity":0.7637795275590551,"duration":0.17463226562495038},{"name":"F5","midi":77,"time":521.8232684999738,"velocity":0.7637795275590551,"duration":0.17463226562495038},{"name":"G5","midi":79,"time":521.9997389999737,"velocity":0.7637795275590551,"duration":0.17463226562495038},{"name":"E5","midi":76,"time":522.1762094999737,"velocity":0.7637795275590551,"duration":0.17463226562495038},{"name":"A3","midi":57,"time":522.3526799999736,"velocity":0.7637795275590551,"duration":0.34926453124990076},{"name":"D3","midi":50,"time":522.3526799999736,"velocity":0.7637795275590551,"duration":0.34926453124990076},{"name":"G5","midi":79,"time":522.3526799999736,"velocity":0.7637795275590551,"duration":0.17463226562495038},{"name":"F5","midi":77,"time":522.5291504999735,"velocity":0.7637795275590551,"duration":0.17463226562495038},{"name":"E5","midi":76,"time":522.7056209999735,"velocity":0.7637795275590551,"duration":0.17463226562495038},{"name":"D5","midi":74,"time":522.8820914999734,"velocity":0.7637795275590551,"duration":0.1654410937500188},{"name":"D4","midi":62,"time":523.0585619999734,"velocity":0.7637795275590551,"duration":0.35110276562488707},{"name":"A#5","midi":82,"time":523.0585619999734,"velocity":0.7637795275590551,"duration":0.17463226562495038},{"name":"C6","midi":84,"time":523.2350324999734,"velocity":0.7637795275590551,"duration":0.17463226562495038},{"name":"D3","midi":50,"time":523.4115029999733,"velocity":0.7637795275590551,"duration":0.35110276562488707},{"name":"A#5","midi":82,"time":523.4115029999733,"velocity":0.7637795275590551,"duration":0.17463226562495038},{"name":"G5","midi":79,"time":523.5879734999733,"velocity":0.7637795275590551,"duration":0.17463226562495038},{"name":"C3","midi":48,"time":523.7644439999732,"velocity":0.7637795275590551,"duration":0.35110276562488707},{"name":"A5","midi":81,"time":523.7644439999732,"velocity":0.7637795275590551,"duration":0.17463226562495038},{"name":"D6","midi":86,"time":523.9409144999731,"velocity":0.7637795275590551,"duration":0.17463226562495038},{"name":"C4","midi":60,"time":524.1173849999731,"velocity":0.7637795275590551,"duration":0.35110276562488707},{"name":"A5","midi":81,"time":524.1173849999731,"velocity":0.7637795275590551,"duration":0.17463226562495038},{"name":"F5","midi":77,"time":524.293855499973,"velocity":0.7637795275590551,"duration":0.17463226562495038},{"name":"A#3","midi":58,"time":524.4703259999729,"velocity":0.7637795275590551,"duration":0.35110276562488707},{"name":"G5","midi":79,"time":524.4703259999729,"velocity":0.7637795275590551,"duration":0.17463226562495038},{"name":"A5","midi":81,"time":524.6467964999729,"velocity":0.7637795275590551,"duration":0.17463226562495038},{"name":"A#2","midi":46,"time":524.8232669999728,"velocity":0.7637795275590551,"duration":0.35110276562488707},{"name":"G5","midi":79,"time":524.8232669999728,"velocity":0.7637795275590551,"duration":0.17463226562495038},{"name":"E5","midi":76,"time":524.9997374999728,"velocity":0.7637795275590551,"duration":0.17463226562495038},{"name":"A2","midi":45,"time":525.1762079999727,"velocity":0.7637795275590551,"duration":0.35110276562511444},{"name":"F5","midi":77,"time":525.1762079999727,"velocity":0.7637795275590551,"duration":0.22058812500006297},{"name":"D6","midi":86,"time":525.3526784999727,"velocity":0.7637795275590551,"duration":0.17463226562506406},{"name":"A3","midi":57,"time":525.5291489999728,"velocity":0.7637795275590551,"duration":0.35110276562488707},{"name":"F5","midi":77,"time":525.5291489999728,"velocity":0.7637795275590551,"duration":0.17463226562495038},{"name":"D5","midi":74,"time":525.7056194999727,"velocity":0.7637795275590551,"duration":0.17463226562495038},{"name":"G3","midi":55,"time":525.8820899999727,"velocity":0.7637795275590551,"duration":0.35110276562488707},{"name":"D#5","midi":75,"time":525.8820899999727,"velocity":0.7637795275590551,"duration":0.17463226562495038},{"name":"A#5","midi":82,"time":526.0585604999726,"velocity":0.7637795275590551,"duration":0.17463226562495038},{"name":"G2","midi":43,"time":526.2350309999725,"velocity":0.7637795275590551,"duration":0.4411762499998986},{"name":"G5","midi":79,"time":526.2350309999725,"velocity":0.7637795275590551,"duration":0.17463226562495038},{"name":"D#5","midi":75,"time":526.4115014999725,"velocity":0.7637795275590551,"duration":0.17463226562495038},{"name":"C#5","midi":73,"time":526.5879719999724,"velocity":0.7637795275590551,"duration":0.17463226562506406},{"name":"E3","midi":52,"time":526.7644424999725,"velocity":0.7637795275590551,"duration":0.17463226562495038},{"name":"A4","midi":69,"time":526.7644424999725,"velocity":0.7637795275590551,"duration":0.17463226562495038},{"name":"F3","midi":53,"time":526.9409129999724,"velocity":0.7637795275590551,"duration":0.17463226562495038},{"name":"A5","midi":81,"time":526.9409129999724,"velocity":0.7637795275590551,"duration":0.35110276562488707},{"name":"G3","midi":55,"time":527.1173834999723,"velocity":0.7637795275590551,"duration":0.17463226562495038},{"name":"A3","midi":57,"time":527.2938539999723,"velocity":0.7637795275590551,"duration":0.35110276562511444},{"name":"D5","midi":74,"time":527.2938539999723,"velocity":0.7637795275590551,"duration":0.11580876562504727},{"name":"C#5","midi":73,"time":527.4115009999723,"velocity":0.7637795275590551,"duration":0.11580876562504727},{"name":"D5","midi":74,"time":527.5291479999723,"velocity":0.7637795275590551,"duration":0.11580876562504727},{"name":"A2","midi":45,"time":527.6467949999724,"velocity":0.7637795275590551,"duration":0.35110276562488707},{"name":"E5","midi":76,"time":527.6467949999724,"velocity":0.7637795275590551,"duration":0.17463226562495038},{"name":"C#5","midi":73,"time":527.8232654999723,"velocity":0.7637795275590551,"duration":0.17463226562495038},{"name":"D3","midi":50,"time":527.9997359999722,"velocity":0.7637795275590551,"duration":0.17463226562506406},{"name":"D5","midi":74,"time":527.9997359999722,"velocity":0.7637795275590551,"duration":0.11580876562504727},{"name":"C#5","midi":73,"time":528.1173829999723,"velocity":0.7637795275590551,"duration":0.11580876562504727},{"name":"A2","midi":45,"time":528.1762064999723,"velocity":0.7637795275590551,"duration":0.17463226562506406},{"name":"D5","midi":74,"time":528.2350299999723,"velocity":0.7637795275590551,"duration":0.34926453125001444},{"name":"F2","midi":41,"time":528.3526769999723,"velocity":0.7637795275590551,"duration":0.17463226562495038},{"name":"A2","midi":45,"time":528.5291474999723,"velocity":0.7637795275590551,"duration":0.17463226562506406},{"name":"D2","midi":38,"time":528.7056179999723,"velocity":0.7637795275590551,"duration":0.35110276562488707},{"name":"F5","midi":77,"time":528.7056179999723,"velocity":0.7637795275590551,"duration":0.17463226562495038},{"name":"D5","midi":74,"time":528.8820884999723,"velocity":0.7637795275590551,"duration":0.17463226562495038},{"name":"F2","midi":41,"time":529.0585589999722,"velocity":0.7637795275590551,"duration":0.17463226562495038},{"name":"A4","midi":69,"time":529.0585589999722,"velocity":0.7637795275590551,"duration":0.6249996874998942},{"name":"A2","midi":45,"time":529.2350294999721,"velocity":0.7637795275590551,"duration":0.17463226562495038},{"name":"D3","midi":50,"time":529.4114999999721,"velocity":0.7637795275590551,"duration":0.35110276562500076},{"name":"C3","midi":48,"time":529.7644409999721,"velocity":0.7637795275590551,"duration":0.35110276562488707},{"name":"B4","midi":71,"time":529.7644409999721,"velocity":0.7637795275590551,"duration":0.17463226562495038},{"name":"C5","midi":72,"time":529.940911499972,"velocity":0.7637795275590551,"duration":0.17463226562495038},{"name":"B2","midi":47,"time":530.1173819999719,"velocity":0.7637795275590551,"duration":0.35110276562488707},{"name":"D5","midi":74,"time":530.1173819999719,"velocity":0.7637795275590551,"duration":0.17463226562495038},{"name":"E5","midi":76,"time":530.2938524999719,"velocity":0.7637795275590551,"duration":0.17463226562495038},{"name":"A2","midi":45,"time":530.4703229999718,"velocity":0.7637795275590551,"duration":0.35110276562488707},{"name":"F5","midi":77,"time":530.4703229999718,"velocity":0.7637795275590551,"duration":0.17463226562495038},{"name":"D5","midi":74,"time":530.6467934999717,"velocity":0.7637795275590551,"duration":0.17463226562495038},{"name":"G2","midi":43,"time":530.8232639999717,"velocity":0.7637795275590551,"duration":0.35110276562488707},{"name":"C5","midi":72,"time":530.8232639999717,"velocity":0.7637795275590551,"duration":0.17463226562495038},{"name":"B4","midi":71,"time":530.9997344999716,"velocity":0.7637795275590551,"duration":0.17463226562495038},{"name":"A2","midi":45,"time":531.1762049999716,"velocity":0.7637795275590551,"duration":0.17463226562506406},{"name":"A4","midi":69,"time":531.1762049999716,"velocity":0.7637795275590551,"duration":0.1654410937500188},{"name":"B2","midi":47,"time":531.3526754999716,"velocity":0.7637795275590551,"duration":0.17463226562495038},{"name":"G4","midi":67,"time":531.3526754999716,"velocity":0.7637795275590551,"duration":0.15624992187497355},{"name":"C3","midi":48,"time":531.5291459999715,"velocity":0.7637795275590551,"duration":0.17463226562495038},{"name":"E5","midi":76,"time":531.5291459999715,"velocity":0.7637795275590551,"duration":0.17463226562495038},{"name":"D3","midi":50,"time":531.7056164999715,"velocity":0.7637795275590551,"duration":0.17463226562495038},{"name":"C5","midi":72,"time":531.7056164999715,"velocity":0.7637795275590551,"duration":0.17463226562495038},{"name":"E3","midi":52,"time":531.8820869999714,"velocity":0.7637795275590551,"duration":0.17463226562495038},{"name":"G#4","midi":68,"time":531.8820869999714,"velocity":0.7637795275590551,"duration":0.6249996874998942},{"name":"C3","midi":48,"time":532.0585574999714,"velocity":0.7637795275590551,"duration":0.17463226562495038},{"name":"F3","midi":53,"time":532.2350279999713,"velocity":0.7637795275590551,"duration":0.35110276562500076},{"name":"E3","midi":52,"time":532.5879689999713,"velocity":0.7637795275590551,"duration":0.35110276562488707},{"name":"A4","midi":69,"time":532.5879689999713,"velocity":0.7637795275590551,"duration":0.17463226562495038},{"name":"B4","midi":71,"time":532.7644394999712,"velocity":0.7637795275590551,"duration":0.17463226562495038},{"name":"D3","midi":50,"time":532.9409099999712,"velocity":0.7637795275590551,"duration":0.35110276562488707},{"name":"C5","midi":72,"time":532.9409099999712,"velocity":0.7637795275590551,"duration":0.17463226562495038},{"name":"D5","midi":74,"time":533.1173804999711,"velocity":0.7637795275590551,"duration":0.17463226562495038},{"name":"C3","midi":48,"time":533.293850999971,"velocity":0.7637795275590551,"duration":0.35110276562488707},{"name":"E5","midi":76,"time":533.293850999971,"velocity":0.7637795275590551,"duration":0.17463226562495038},{"name":"C5","midi":72,"time":533.470321499971,"velocity":0.7637795275590551,"duration":0.17463226562495038},{"name":"D3","midi":50,"time":533.6467919999709,"velocity":0.7637795275590551,"duration":0.35110276562488707},{"name":"B4","midi":71,"time":533.6467919999709,"velocity":0.7637795275590551,"duration":0.17463226562495038},{"name":"A4","midi":69,"time":533.8232624999708,"velocity":0.7637795275590551,"duration":0.17463226562495038},{"name":"C3","midi":48,"time":533.9997329999708,"velocity":0.7637795275590551,"duration":0.35110276562500076},{"name":"G#4","midi":68,"time":533.9997329999708,"velocity":0.7637795275590551,"duration":0.17463226562495038},{"name":"A4","midi":69,"time":534.1762034999707,"velocity":0.7637795275590551,"duration":0.1654410937500188},{"name":"B2","midi":47,"time":534.3526739999708,"velocity":0.7637795275590551,"duration":0.35110276562488707},{"name":"D5","midi":74,"time":534.3526739999708,"velocity":0.7637795275590551,"duration":0.17463226562495038},{"name":"F4","midi":65,"time":534.5291444999707,"velocity":0.7637795275590551,"duration":0.17463226562495038},{"name":"A2","midi":45,"time":534.7056149999706,"velocity":0.7637795275590551,"duration":0.35110276562488707},{"name":"E4","midi":64,"time":534.7056149999706,"velocity":0.7637795275590551,"duration":0.17463226562495038},{"name":"D4","midi":62,"time":534.8820854999706,"velocity":0.7637795275590551,"duration":0.17463226562495038},{"name":"B2","midi":47,"time":535.0585559999705,"velocity":0.7637795275590551,"duration":0.35110276562488707},{"name":"D5","midi":74,"time":535.0585559999705,"velocity":0.7637795275590551,"duration":0.17463226562495038},{"name":"G#4","midi":68,"time":535.2350264999704,"velocity":0.7637795275590551,"duration":0.17463226562495038},{"name":"A2","midi":45,"time":535.4114969999704,"velocity":0.7637795275590551,"duration":0.35110276562488707},{"name":"F#4","midi":66,"time":535.4114969999704,"velocity":0.7637795275590551,"duration":0.17463226562495038},{"name":"E4","midi":64,"time":535.5879674999703,"velocity":0.7637795275590551,"duration":0.17463226562495038},{"name":"G#2","midi":44,"time":535.7644379999703,"velocity":0.7637795275590551,"duration":0.35110276562488707},{"name":"D5","midi":74,"time":535.7644379999703,"velocity":0.7637795275590551,"duration":0.17463226562495038},{"name":"B4","midi":71,"time":535.9409084999702,"velocity":0.7637795275590551,"duration":0.17463226562495038},{"name":"F#2","midi":42,"time":536.1173789999701,"velocity":0.7637795275590551,"duration":0.35110276562488707},{"name":"A4","midi":69,"time":536.1173789999701,"velocity":0.7637795275590551,"duration":0.17463226562495038},{"name":"G#4","midi":68,"time":536.2938494999701,"velocity":0.7637795275590551,"duration":0.17463226562495038},{"name":"G#2","midi":44,"time":536.47031999997,"velocity":0.7637795275590551,"duration":0.35110276562488707},{"name":"D5","midi":74,"time":536.47031999997,"velocity":0.7637795275590551,"duration":0.17463226562495038},{"name":"C5","midi":72,"time":536.6467904999699,"velocity":0.7637795275590551,"duration":0.17463226562495038},{"name":"E3","midi":52,"time":536.8232609999699,"velocity":0.7637795275590551,"duration":0.35110276562488707},{"name":"B4","midi":71,"time":536.8232609999699,"velocity":0.7637795275590551,"duration":0.17463226562495038},{"name":"F5","midi":77,"time":536.9997314999698,"velocity":0.7637795275590551,"duration":0.17463226562495038},{"name":"F#3","midi":54,"time":537.1762019999697,"velocity":0.7637795275590551,"duration":0.35110276562488707},{"name":"E5","midi":76,"time":537.1762019999697,"velocity":0.7637795275590551,"duration":0.17463226562495038},{"name":"D5","midi":74,"time":537.3526724999697,"velocity":0.7637795275590551,"duration":0.17463226562495038},{"name":"G#3","midi":56,"time":537.5291429999696,"velocity":0.7637795275590551,"duration":0.35110276562488707},{"name":"C5","midi":72,"time":537.5291429999696,"velocity":0.7637795275590551,"duration":0.17463226562495038},{"name":"B4","midi":71,"time":537.7056134999696,"velocity":0.7637795275590551,"duration":0.17463226562495038},{"name":"A3","midi":57,"time":537.8820839999695,"velocity":0.7637795275590551,"duration":0.35110276562488707},{"name":"C5","midi":72,"time":537.8820839999695,"velocity":0.7637795275590551,"duration":0.17463226562495038},{"name":"B4","midi":71,"time":538.0585544999694,"velocity":0.7637795275590551,"duration":0.17463226562495038},{"name":"F3","midi":53,"time":538.2350249999694,"velocity":0.7637795275590551,"duration":0.35110276562488707},{"name":"D5","midi":74,"time":538.2350249999694,"velocity":0.7637795275590551,"duration":0.17463226562495038},{"name":"C5","midi":72,"time":538.4114954999693,"velocity":0.7637795275590551,"duration":0.17463226562495038},{"name":"D3","midi":50,"time":538.5879659999692,"velocity":0.7637795275590551,"duration":0.35110276562488707},{"name":"B4","midi":71,"time":538.5879659999692,"velocity":0.7637795275590551,"duration":0.17463226562495038},{"name":"A4","midi":69,"time":538.7644364999692,"velocity":0.7637795275590551,"duration":0.17463226562495038},{"name":"F3","midi":53,"time":538.9409069999691,"velocity":0.7637795275590551,"duration":0.35110276562488707},{"name":"G#4","midi":68,"time":538.9409069999691,"velocity":0.7637795275590551,"duration":0.17463226562495038},{"name":"A4","midi":69,"time":539.117377499969,"velocity":0.7637795275590551,"duration":0.17463226562495038},{"name":"E3","midi":52,"time":539.293847999969,"velocity":0.7637795275590551,"duration":0.35110276562488707},{"name":"B4","midi":71,"time":539.293847999969,"velocity":0.7637795275590551,"duration":0.17463226562495038},{"name":"G#4","midi":68,"time":539.4703184999689,"velocity":0.7637795275590551,"duration":0.17463226562495038},{"name":"D3","midi":50,"time":539.6467889999689,"velocity":0.7637795275590551,"duration":0.35110276562500076},{"name":"F#4","midi":66,"time":539.6467889999689,"velocity":0.7637795275590551,"duration":0.1654410937500188},{"name":"E4","midi":64,"time":539.8232594999689,"velocity":0.7637795275590551,"duration":0.13786757812499673},{"name":"C3","midi":48,"time":539.9997299999688,"velocity":0.7637795275590551,"duration":0.34926453124990076},{"name":"E3","midi":52,"time":539.9997299999688,"velocity":0.7637795275590551,"duration":0.34926453124990076},{"name":"A3","midi":57,"time":539.9997299999688,"velocity":0.7637795275590551,"duration":0.34926453124990076},{"name":"E5","midi":76,"time":539.9997299999688,"velocity":0.7637795275590551,"duration":0.17463226562495038},{"name":"C5","midi":72,"time":540.1762004999688,"velocity":0.7637795275590551,"duration":0.17463226562495038},{"name":"A4","midi":69,"time":540.3526709999687,"velocity":0.7637795275590551,"duration":0.5275732656249374},{"name":"D3","midi":50,"time":540.7056119999687,"velocity":0.7637795275590551,"duration":0.34926453124990076},{"name":"B2","midi":47,"time":540.7056119999687,"velocity":0.7637795275590551,"duration":0.34926453124990076},{"name":"F3","midi":53,"time":540.7056119999687,"velocity":0.7637795275590551,"duration":0.34926453124990076},{"name":"B3","midi":59,"time":540.7056119999687,"velocity":0.7637795275590551,"duration":0.34926453124990076},{"name":"G#4","midi":68,"time":540.8820824999686,"velocity":0.7637795275590551,"duration":0.17463226562495038},{"name":"A4","midi":69,"time":541.0585529999686,"velocity":0.7637795275590551,"duration":0.35110276562500076},{"name":"A2","midi":45,"time":541.4114939999686,"velocity":0.7637795275590551,"duration":0.34926453125001444},{"name":"B2","midi":47,"time":541.4114939999686,"velocity":0.7637795275590551,"duration":0.1654410937500188},{"name":"D3","midi":50,"time":541.4114939999686,"velocity":0.7637795275590551,"duration":0.34926453125001444},{"name":"F3","midi":53,"time":541.4114939999686,"velocity":0.7637795275590551,"duration":0.34926453125001444},{"name":"B4","midi":71,"time":541.4114939999686,"velocity":0.7637795275590551,"duration":0.17463226562506406},{"name":"C5","midi":72,"time":541.5879644999686,"velocity":0.7637795275590551,"duration":0.17463226562495038},{"name":"D5","midi":74,"time":541.7644349999686,"velocity":0.7637795275590551,"duration":0.17463226562495038},{"name":"E5","midi":76,"time":541.9409054999685,"velocity":0.7637795275590551,"duration":0.17463226562495038},{"name":"D3","midi":50,"time":542.1173759999684,"velocity":0.7637795275590551,"duration":0.34926453124990076},{"name":"G#2","midi":44,"time":542.1173759999684,"velocity":0.7637795275590551,"duration":0.17463226562495038},{"name":"B2","midi":47,"time":542.1173759999684,"velocity":0.7637795275590551,"duration":0.17463226562495038},{"name":"F5","midi":77,"time":542.1173759999684,"velocity":0.7637795275590551,"duration":0.17463226562495038},{"name":"A2","midi":45,"time":542.2938464999684,"velocity":0.7637795275590551,"duration":0.17463226562495038},{"name":"E5","midi":76,"time":542.2938464999684,"velocity":0.7637795275590551,"duration":0.17463226562495038},{"name":"B2","midi":47,"time":542.4703169999683,"velocity":0.7637795275590551,"duration":0.17463226562495038},{"name":"D5","midi":74,"time":542.4703169999683,"velocity":0.7637795275590551,"duration":0.17463226562495038},{"name":"C3","midi":48,"time":542.6467874999682,"velocity":0.7637795275590551,"duration":0.17463226562495038},{"name":"F5","midi":77,"time":542.6467874999682,"velocity":0.7637795275590551,"duration":0.17463226562495038},{"name":"D3","midi":50,"time":542.8232579999682,"velocity":0.7637795275590551,"duration":0.17463226562495038},{"name":"E5","midi":76,"time":542.8232579999682,"velocity":0.7637795275590551,"duration":0.17463226562495038},{"name":"E3","midi":52,"time":542.9997284999681,"velocity":0.7637795275590551,"duration":0.17463226562495038},{"name":"D5","midi":74,"time":542.9997284999681,"velocity":0.7637795275590551,"duration":0.17463226562495038},{"name":"F#3","midi":54,"time":543.176198999968,"velocity":0.7637795275590551,"duration":0.17463226562495038},{"name":"C5","midi":72,"time":543.176198999968,"velocity":0.7637795275590551,"duration":0.17463226562495038},{"name":"G#3","midi":56,"time":543.352669499968,"velocity":0.7637795275590551,"duration":0.17463226562495038},{"name":"B4","midi":71,"time":543.352669499968,"velocity":0.7637795275590551,"duration":0.17463226562495038},{"name":"A3","midi":57,"time":543.5291399999679,"velocity":0.7637795275590551,"duration":0.35110276562488707},{"name":"C5","midi":72,"time":543.5291399999679,"velocity":0.7637795275590551,"duration":0.17463226562495038},{"name":"D5","midi":74,"time":543.7056104999679,"velocity":0.7637795275590551,"duration":0.17463226562495038},{"name":"C3","midi":48,"time":543.8820809999678,"velocity":0.7637795275590551,"duration":0.35110276562488707},{"name":"E5","midi":76,"time":543.8820809999678,"velocity":0.7637795275590551,"duration":0.17463226562495038},{"name":"A4","midi":69,"time":544.0585514999677,"velocity":0.7637795275590551,"duration":0.17463226562495038},{"name":"D3","midi":50,"time":544.2350219999677,"velocity":0.7637795275590551,"duration":0.35110276562488707},{"name":"C5","midi":72,"time":544.2350219999677,"velocity":0.7637795275590551,"duration":0.17463226562495038},{"name":"B4","midi":71,"time":544.4114924999676,"velocity":0.7637795275590551,"duration":0.17463226562495038},{"name":"E3","midi":52,"time":544.5879629999675,"velocity":0.7637795275590551,"duration":0.35110276562488707},{"name":"A4","midi":69,"time":544.5879629999675,"velocity":0.7637795275590551,"duration":0.17463226562495038},{"name":"G#4","midi":68,"time":544.7644334999675,"velocity":0.7637795275590551,"duration":0.17463226562495038},{"name":"A2","midi":45,"time":544.9409039999674,"velocity":0.7637795275590551,"duration":1.404411062500003},{"name":"A4","midi":69,"time":544.9409039999674,"velocity":0.7637795275590551,"duration":0.08639701562503888},{"name":"G#4","midi":68,"time":545.0291392499674,"velocity":0.7637795275590551,"duration":0.08639701562503888},{"name":"A4","midi":69,"time":545.1173744999675,"velocity":0.7637795275590551,"duration":2.281248859374955},{"name":"E4","midi":64,"time":547.5732556249674,"velocity":0.7637795275590551,"duration":0.18933814062495458},{"name":"A3","midi":57,"time":547.7644319999673,"velocity":0.7637795275590551,"duration":0.22977929687499454},{"name":"C4","midi":60,"time":547.9997259999673,"velocity":0.7637795275590551,"duration":0.22977929687499454},{"name":"E4","midi":64,"time":548.2350199999672,"velocity":0.7637795275590551,"duration":0.22977929687499454},{"name":"A4","midi":69,"time":548.4703139999672,"velocity":0.7637795275590551,"duration":0.22977929687499454},{"name":"G#4","midi":68,"time":548.7056079999671,"velocity":0.7637795275590551,"duration":0.22977929687499454},{"name":"A4","midi":69,"time":548.9409019999671,"velocity":0.7637795275590551,"duration":0.22977929687499454},{"name":"B3","midi":59,"time":549.176195999967,"velocity":0.7637795275590551,"duration":0.22977929687499454},{"name":"D4","midi":62,"time":549.411489999967,"velocity":0.7637795275590551,"duration":0.22977929687499454},{"name":"E4","midi":64,"time":549.6467839999669,"velocity":0.7637795275590551,"duration":0.22977929687499454},{"name":"A4","midi":69,"time":549.8820779999669,"velocity":0.7637795275590551,"duration":0.22977929687499454},{"name":"G#4","midi":68,"time":550.1173719999668,"velocity":0.7637795275590551,"duration":0.22977929687499454},{"name":"A4","midi":69,"time":550.3526659999668,"velocity":0.7637795275590551,"duration":0.22977929687499454},{"name":"C4","midi":60,"time":550.5879599999668,"velocity":0.7637795275590551,"duration":0.22977929687499454},{"name":"E4","midi":64,"time":550.8232539999667,"velocity":0.7637795275590551,"duration":0.22977929687499454},{"name":"G#4","midi":68,"time":551.0585479999667,"velocity":0.7637795275590551,"duration":0.22977929687499454},{"name":"A4","midi":69,"time":551.2938419999666,"velocity":0.7637795275590551,"duration":0.22977929687499454},{"name":"B4","midi":71,"time":551.5291359999666,"velocity":0.7637795275590551,"duration":0.22977929687499454},{"name":"C5","midi":72,"time":551.7644299999665,"velocity":0.7637795275590551,"duration":0.22977929687499454},{"name":"D4","midi":62,"time":551.9997239999665,"velocity":0.7637795275590551,"duration":0.22977929687499454},{"name":"C5","midi":72,"time":552.2350179999664,"velocity":0.7637795275590551,"duration":0.22977929687499454},{"name":"A4","midi":69,"time":552.4703119999664,"velocity":0.7637795275590551,"duration":0.22977929687499454},{"name":"A#4","midi":70,"time":552.7056059999663,"velocity":0.7637795275590551,"duration":0.22977929687499454},{"name":"D5","midi":74,"time":552.9408999999663,"velocity":0.7637795275590551,"duration":0.22977929687499454},{"name":"A3","midi":57,"time":553.1761939999662,"velocity":0.7637795275590551,"duration":0.22977929687499454},{"name":"A4","midi":69,"time":553.1761939999662,"velocity":0.7637795275590551,"duration":0.22977929687499454},{"name":"E3","midi":52,"time":553.4114879999662,"velocity":0.7637795275590551,"duration":0.22977929687499454},{"name":"G#4","midi":68,"time":553.4114879999662,"velocity":0.7637795275590551,"duration":0.8823524999999108},{"name":"G#3","midi":56,"time":553.6467819999662,"velocity":0.7637795275590551,"duration":0.22977929687499454},{"name":"B3","midi":59,"time":553.8820759999661,"velocity":0.7637795275590551,"duration":0.22977929687499454},{"name":"E4","midi":64,"time":554.1173699999661,"velocity":0.7637795275590551,"duration":0.22977929687499454},{"name":"D#4","midi":63,"time":554.352663999966,"velocity":0.7637795275590551,"duration":0.22977929687499454},{"name":"F#4","midi":66,"time":554.352663999966,"velocity":0.7637795275590551,"duration":0.22977929687499454},{"name":"E4","midi":64,"time":554.587957999966,"velocity":0.7637795275590551,"duration":0.22977929687499454},{"name":"G4","midi":67,"time":554.587957999966,"velocity":0.7637795275590551,"duration":0.22977929687499454},{"name":"F#3","midi":54,"time":554.8232519999659,"velocity":0.7637795275590551,"duration":0.22977929687499454},{"name":"A4","midi":69,"time":554.8232519999659,"velocity":0.7637795275590551,"duration":0.8823524999999108},{"name":"A3","midi":57,"time":555.0585459999659,"velocity":0.7637795275590551,"duration":0.22977929687499454},{"name":"B3","midi":59,"time":555.2938399999658,"velocity":0.7637795275590551,"duration":0.22977929687499454},{"name":"E4","midi":64,"time":555.5291339999658,"velocity":0.7637795275590551,"duration":0.22977929687499454},{"name":"D#4","midi":63,"time":555.7644279999657,"velocity":0.7637795275590551,"duration":0.22977929687499454},{"name":"B4","midi":71,"time":555.7644279999657,"velocity":0.7637795275590551,"duration":0.22977929687499454},{"name":"E4","midi":64,"time":555.9997219999657,"velocity":0.7637795275590551,"duration":0.22977929687499454},{"name":"C5","midi":72,"time":555.9997219999657,"velocity":0.7637795275590551,"duration":0.22977929687499454},{"name":"G3","midi":55,"time":556.2350159999656,"velocity":0.7637795275590551,"duration":0.22977929687499454},{"name":"B4","midi":71,"time":556.2350159999656,"velocity":0.7637795275590551,"duration":0.9099260156248192},{"name":"B3","midi":59,"time":556.4703099999656,"velocity":0.7637795275590551,"duration":0.22977929687499454},{"name":"D#4","midi":63,"time":556.7056039999655,"velocity":0.7637795275590551,"duration":0.22977929687499454},{"name":"E4","midi":64,"time":556.9408979999655,"velocity":0.7637795275590551,"duration":0.22977929687499454},{"name":"F#4","midi":66,"time":557.1761919999655,"velocity":0.7637795275590551,"duration":0.22977929687499454},{"name":"D#5","midi":75,"time":557.1761919999655,"velocity":0.7637795275590551,"duration":0.22977929687499454},{"name":"G4","midi":67,"time":557.4114859999654,"velocity":0.7637795275590551,"duration":0.22977929687499454},{"name":"E5","midi":76,"time":557.4114859999654,"velocity":0.7637795275590551,"duration":0.22977929687499454},{"name":"A3","midi":57,"time":557.6467799999654,"velocity":0.7637795275590551,"duration":0.22977929687499454},{"name":"C5","midi":72,"time":557.6467799999654,"velocity":0.7637795275590551,"duration":1.6415432968747155},{"name":"G4","midi":67,"time":557.8820739999653,"velocity":0.7637795275590551,"duration":0.22977929687499454},{"name":"E4","midi":64,"time":558.1173679999653,"velocity":0.7637795275590551,"duration":0.22977929687499454},{"name":"F4","midi":65,"time":558.3526619999652,"velocity":0.7637795275590551,"duration":0.22977929687499454},{"name":"A4","midi":69,"time":558.5879559999652,"velocity":0.7637795275590551,"duration":0.22977929687499454},{"name":"E4","midi":64,"time":558.8232499999651,"velocity":0.7637795275590551,"duration":0.22977929687499454},{"name":"D#4","midi":63,"time":559.0585439999651,"velocity":0.7637795275590551,"duration":0.935661296874855},{"name":"B4","midi":71,"time":559.293837999965,"velocity":0.7637795275590551,"duration":0.22977929687499454},{"name":"A4","midi":69,"time":559.529131999965,"velocity":0.7637795275590551,"duration":0.22977929687499454},{"name":"B4","midi":71,"time":559.7644259999649,"velocity":0.7637795275590551,"duration":0.22977929687499454},{"name":"C#4","midi":61,"time":559.9997199999649,"velocity":0.7637795275590551,"duration":0.22977929687499454},{"name":"F#5","midi":78,"time":559.9997199999649,"velocity":0.7637795275590551,"duration":0.22977929687499454},{"name":"D#4","midi":63,"time":560.2350139999648,"velocity":0.7637795275590551,"duration":0.22977929687499454},{"name":"A4","midi":69,"time":560.2350139999648,"velocity":0.7637795275590551,"duration":0.42279390624992175},{"name":"E4","midi":64,"time":560.4703079999648,"velocity":0.7637795275590551,"duration":0.935661296874855},{"name":"G4","midi":67,"time":560.7056019999648,"velocity":0.7637795275590551,"duration":0.22977929687499454},{"name":"F#4","midi":66,"time":560.9408959999647,"velocity":0.7637795275590551,"duration":0.22977929687499454},{"name":"G4","midi":67,"time":561.1761899999647,"velocity":0.7637795275590551,"duration":0.8823524999999108},{"name":"B3","midi":59,"time":561.4114839999646,"velocity":0.7637795275590551,"duration":0.22977929687499454},{"name":"D4","midi":62,"time":561.6467779999646,"velocity":0.7637795275590551,"duration":0.22977929687499454},{"name":"C#4","midi":61,"time":561.8820719999645,"velocity":0.7637795275590551,"duration":0.9356612968749687},{"name":"A4","midi":69,"time":562.1173659999646,"velocity":0.7637795275590551,"duration":0.22977929687499454},{"name":"G4","midi":67,"time":562.3526599999645,"velocity":0.7637795275590551,"duration":0.22977929687499454},{"name":"A4","midi":69,"time":562.5879539999645,"velocity":0.7637795275590551,"duration":0.22977929687499454},{"name":"B3","midi":59,"time":562.8232479999645,"velocity":0.7637795275590551,"duration":0.22977929687499454},{"name":"E5","midi":76,"time":562.8232479999645,"velocity":0.7637795275590551,"duration":0.22977929687499454},{"name":"C#4","midi":61,"time":563.0585419999644,"velocity":0.7637795275590551,"duration":0.22977929687499454},{"name":"G4","midi":67,"time":563.0585419999644,"velocity":0.7637795275590551,"duration":0.4411762499998986},{"name":"D4","midi":62,"time":563.2938359999644,"velocity":0.7637795275590551,"duration":0.935661296874855},{"name":"F4","midi":65,"time":563.5291299999643,"velocity":0.7637795275590551,"duration":0.22977929687499454},{"name":"E4","midi":64,"time":563.7644239999643,"velocity":0.7637795275590551,"duration":0.22977929687499454},{"name":"F4","midi":65,"time":563.9997179999642,"velocity":0.7637795275590551,"duration":0.8823524999999108},{"name":"A3","midi":57,"time":564.2350119999642,"velocity":0.7637795275590551,"duration":0.22977929687499454},{"name":"C4","midi":60,"time":564.4703059999641,"velocity":0.7637795275590551,"duration":0.22977929687499454},{"name":"B3","midi":59,"time":564.7055999999641,"velocity":0.7637795275590551,"duration":0.4650732968750617},{"name":"F4","midi":65,"time":564.9408939999641,"velocity":0.7637795275590551,"duration":0.22977929687499454},{"name":"C4","midi":60,"time":565.1761879999641,"velocity":0.7637795275590551,"duration":0.22977929687499454},{"name":"E4","midi":64,"time":565.1761879999641,"velocity":0.7637795275590551,"duration":0.22977929687499454},{"name":"B3","midi":59,"time":565.411481999964,"velocity":0.7637795275590551,"duration":0.46507329687494803},{"name":"F4","midi":65,"time":565.411481999964,"velocity":0.7637795275590551,"duration":0.22977929687499454},{"name":"D5","midi":74,"time":565.646775999964,"velocity":0.7637795275590551,"duration":0.22977929687499454},{"name":"A3","midi":57,"time":565.882069999964,"velocity":0.7637795275590551,"duration":0.22977929687499454},{"name":"F4","midi":65,"time":565.882069999964,"velocity":0.7637795275590551,"duration":0.46507329687494803},{"name":"G#3","midi":56,"time":566.1173639999639,"velocity":0.7637795275590551,"duration":0.46507329687494803},{"name":"E4","midi":64,"time":566.3526579999639,"velocity":0.7637795275590551,"duration":0.22977929687499454},{"name":"B3","midi":59,"time":566.5879519999638,"velocity":0.7637795275590551,"duration":0.22977929687499454},{"name":"D4","midi":62,"time":566.5879519999638,"velocity":0.7637795275590551,"duration":0.22977929687499454},{"name":"G#3","midi":56,"time":566.8232459999638,"velocity":0.7637795275590551,"duration":0.46507329687494803},{"name":"E4","midi":64,"time":566.8232459999638,"velocity":0.7637795275590551,"duration":0.22977929687499454},{"name":"D5","midi":74,"time":567.0585399999637,"velocity":0.7637795275590551,"duration":0.22977929687499454},{"name":"E3","midi":52,"time":567.2938339999637,"velocity":0.7637795275590551,"duration":0.22977929687499454},{"name":"E4","midi":64,"time":567.2938339999637,"velocity":0.7637795275590551,"duration":0.22977929687499454},{"name":"A3","midi":57,"time":567.5291279999636,"velocity":0.7637795275590551,"duration":0.46874976562492066},{"name":"A2","midi":45,"time":567.5291279999636,"velocity":0.7637795275590551,"duration":0.22977929687499454},{"name":"C5","midi":72,"time":567.5291279999636,"velocity":0.7637795275590551,"duration":0.9393377656248276},{"name":"C3","midi":48,"time":567.7644219999636,"velocity":0.7637795275590551,"duration":0.22977929687499454},{"name":"E3","midi":52,"time":567.9997159999635,"velocity":0.7637795275590551,"duration":0.22977929687499454},{"name":"G#4","midi":68,"time":567.9997159999635,"velocity":0.7637795275590551,"duration":0.22977929687499454},{"name":"A3","midi":57,"time":568.2350099999635,"velocity":0.7637795275590551,"duration":0.22977929687499454},{"name":"A4","midi":69,"time":568.2350099999635,"velocity":0.7637795275590551,"duration":1.1764699999997674},{"name":"G#3","midi":56,"time":568.4703039999634,"velocity":0.7637795275590551,"duration":0.22977929687499454},{"name":"B4","midi":71,"time":568.4703039999634,"velocity":0.7637795275590551,"duration":0.22977929687499454},{"name":"A3","midi":57,"time":568.7055979999634,"velocity":0.7637795275590551,"duration":0.22977929687499454},{"name":"C5","midi":72,"time":568.7055979999634,"velocity":0.7637795275590551,"duration":0.22977929687499454},{"name":"B2","midi":47,"time":568.9408919999634,"velocity":0.7637795275590551,"duration":0.22977929687499454},{"name":"D5","midi":74,"time":568.9408919999634,"velocity":0.7637795275590551,"duration":0.9393377656248276},{"name":"D3","midi":50,"time":569.1761859999633,"velocity":0.7637795275590551,"duration":0.22977929687499454},{"name":"E3","midi":52,"time":569.4114799999633,"velocity":0.7637795275590551,"duration":0.22977929687499454},{"name":"G#4","midi":68,"time":569.4114799999633,"velocity":0.7637795275590551,"duration":0.22977929687499454},{"name":"A3","midi":57,"time":569.6467739999632,"velocity":0.7637795275590551,"duration":0.22977929687499454},{"name":"B4","midi":71,"time":569.6467739999632,"velocity":0.7637795275590551,"duration":0.9393377656248276},{"name":"G#3","midi":56,"time":569.8820679999632,"velocity":0.7637795275590551,"duration":0.22977929687499454},{"name":"E5","midi":76,"time":569.8820679999632,"velocity":0.7637795275590551,"duration":0.22977929687499454},{"name":"A3","midi":57,"time":570.1173619999631,"velocity":0.7637795275590551,"duration":0.22977929687499454},{"name":"F5","midi":77,"time":570.1173619999631,"velocity":0.7637795275590551,"duration":0.22977929687499454},{"name":"C3","midi":48,"time":570.3526559999631,"velocity":0.7637795275590551,"duration":0.22977929687499454},{"name":"E5","midi":76,"time":570.3526559999631,"velocity":0.7637795275590551,"duration":0.9393377656248276},{"name":"E3","midi":52,"time":570.587949999963,"velocity":0.7637795275590551,"duration":0.22977929687499454},{"name":"A4","midi":69,"time":570.587949999963,"velocity":0.7637795275590551,"duration":0.22977929687499454},{"name":"G#3","midi":56,"time":570.823243999963,"velocity":0.7637795275590551,"duration":0.22977929687499454},{"name":"B4","midi":71,"time":570.823243999963,"velocity":0.7637795275590551,"duration":0.22977929687499454},{"name":"A3","midi":57,"time":571.0585379999629,"velocity":0.7637795275590551,"duration":0.22977929687499454},{"name":"C5","midi":72,"time":571.0585379999629,"velocity":0.7637795275590551,"duration":0.9393377656248276},{"name":"B3","midi":59,"time":571.2938319999629,"velocity":0.7637795275590551,"duration":0.22977929687499454},{"name":"G#5","midi":80,"time":571.2938319999629,"velocity":0.7637795275590551,"duration":0.22977929687499454},{"name":"C4","midi":60,"time":571.5291259999628,"velocity":0.7637795275590551,"duration":0.22977929687499454},{"name":"A5","midi":81,"time":571.5291259999628,"velocity":0.7637795275590551,"duration":0.22977929687499454},{"name":"D3","midi":50,"time":571.7644199999628,"velocity":0.7637795275590551,"duration":0.22977929687499454},{"name":"F5","midi":77,"time":571.7644199999628,"velocity":0.7637795275590551,"duration":0.9393377656248276},{"name":"C4","midi":60,"time":571.9997139999628,"velocity":0.7637795275590551,"duration":0.22977929687499454},{"name":"A4","midi":69,"time":571.9997139999628,"velocity":0.7637795275590551,"duration":0.22977929687499454},{"name":"A3","midi":57,"time":572.2350079999627,"velocity":0.7637795275590551,"duration":0.22977929687499454},{"name":"C#5","midi":73,"time":572.2350079999627,"velocity":0.7637795275590551,"duration":0.22977929687499454},{"name":"A#3","midi":58,"time":572.4703019999627,"velocity":0.7637795275590551,"duration":0.22977929687499454},{"name":"D5","midi":74,"time":572.4703019999627,"velocity":0.7637795275590551,"duration":0.22977929687499454},{"name":"D4","midi":62,"time":572.7055959999626,"velocity":0.7637795275590551,"duration":0.22977929687499454},{"name":"F5","midi":77,"time":572.7055959999626,"velocity":0.7637795275590551,"duration":0.22977929687499454},{"name":"A3","midi":57,"time":572.9408899999626,"velocity":0.7637795275590551,"duration":0.22977929687499454},{"name":"C5","midi":72,"time":572.9408899999626,"velocity":0.7637795275590551,"duration":0.22977929687499454},{"name":"G#3","midi":56,"time":573.1761839999625,"velocity":0.7637795275590551,"duration":0.46507329687494803},{"name":"B4","midi":71,"time":573.1761839999625,"velocity":0.7637795275590551,"duration":1.4099257656247346},{"name":"E5","midi":76,"time":573.4114779999625,"velocity":0.7637795275590551,"duration":0.22977929687499454},{"name":"B3","midi":59,"time":573.6467719999624,"velocity":0.7637795275590551,"duration":0.22977929687499454},{"name":"D5","midi":74,"time":573.6467719999624,"velocity":0.7637795275590551,"duration":0.22977929687499454},{"name":"G#3","midi":56,"time":573.8820659999624,"velocity":0.7637795275590551,"duration":0.46507329687494803},{"name":"E5","midi":76,"time":573.8820659999624,"velocity":0.7637795275590551,"duration":0.22977929687499454},{"name":"B5","midi":83,"time":574.1173599999623,"velocity":0.7637795275590551,"duration":0.22977929687499454},{"name":"E3","midi":52,"time":574.3526539999623,"velocity":0.7637795275590551,"duration":0.22977929687499454},{"name":"D5","midi":74,"time":574.3526539999623,"velocity":0.7637795275590551,"duration":0.22977929687499454},{"name":"A2","midi":45,"time":574.5879479999622,"velocity":0.7637795275590551,"duration":0.22977929687499454},{"name":"C5","midi":72,"time":574.5879479999622,"velocity":0.7637795275590551,"duration":1.4099257656247346},{"name":"C3","midi":48,"time":574.8232419999622,"velocity":0.7637795275590551,"duration":0.22977929687499454},{"name":"A4","midi":69,"time":574.8232419999622,"velocity":0.7637795275590551,"duration":0.22977929687499454},{"name":"E3","midi":52,"time":575.0585359999621,"velocity":0.7637795275590551,"duration":0.22977929687499454},{"name":"E4","midi":64,"time":575.0585359999621,"velocity":0.7637795275590551,"duration":0.22977929687499454},{"name":"A3","midi":57,"time":575.2938299999621,"velocity":0.7637795275590551,"duration":0.22977929687499454},{"name":"C4","midi":60,"time":575.2938299999621,"velocity":0.7637795275590551,"duration":0.22977929687499454},{"name":"C4","midi":60,"time":575.529123999962,"velocity":0.7637795275590551,"duration":0.22977929687499454},{"name":"E4","midi":64,"time":575.529123999962,"velocity":0.7637795275590551,"duration":0.22977929687499454},{"name":"A3","midi":57,"time":575.764417999962,"velocity":0.7637795275590551,"duration":0.22977929687499454},{"name":"A4","midi":69,"time":575.764417999962,"velocity":0.7637795275590551,"duration":0.22977929687499454},{"name":"F#3","midi":54,"time":575.999711999962,"velocity":0.7637795275590551,"duration":0.22977929687499454},{"name":"D4","midi":62,"time":575.999711999962,"velocity":0.7637795275590551,"duration":0.22977929687499454},{"name":"A3","midi":57,"time":576.2350059999619,"velocity":0.7637795275590551,"duration":0.22977929687499454},{"name":"A4","midi":69,"time":576.2350059999619,"velocity":0.7637795275590551,"duration":0.22977929687499454},{"name":"D4","midi":62,"time":576.4702999999619,"velocity":0.7637795275590551,"duration":0.22977929687499454},{"name":"F#4","midi":66,"time":576.4702999999619,"velocity":0.7637795275590551,"duration":0.22977929687499454},{"name":"D3","midi":50,"time":576.7055939999618,"velocity":0.7637795275590551,"duration":0.22977929687499454},{"name":"A4","midi":69,"time":576.7055939999618,"velocity":0.7637795275590551,"duration":0.22977929687499454},{"name":"F#3","midi":54,"time":576.9408879999618,"velocity":0.7637795275590551,"duration":0.22977929687499454},{"name":"F#4","midi":66,"time":576.9408879999618,"velocity":0.7637795275590551,"duration":0.22977929687499454},{"name":"A3","midi":57,"time":577.1761819999617,"velocity":0.7637795275590551,"duration":0.22977929687499454},{"name":"D4","midi":62,"time":577.1761819999617,"velocity":0.7637795275590551,"duration":0.22977929687499454},{"name":"G2","midi":43,"time":577.4114759999617,"velocity":0.7637795275590551,"duration":0.22977929687499454},{"name":"B4","midi":71,"time":577.4114759999617,"velocity":0.7637795275590551,"duration":1.4099257656247346},{"name":"B2","midi":47,"time":577.6467699999616,"velocity":0.7637795275590551,"duration":0.22977929687499454},{"name":"G4","midi":67,"time":577.6467699999616,"velocity":0.7637795275590551,"duration":0.22977929687499454},{"name":"D3","midi":50,"time":577.8820639999616,"velocity":0.7637795275590551,"duration":0.22977929687499454},{"name":"D4","midi":62,"time":577.8820639999616,"velocity":0.7637795275590551,"duration":0.22977929687499454},{"name":"G3","midi":55,"time":578.1173579999615,"velocity":0.7637795275590551,"duration":0.22977929687499454},{"name":"B3","midi":59,"time":578.1173579999615,"velocity":0.7637795275590551,"duration":0.22977929687499454},{"name":"B3","midi":59,"time":578.3526519999615,"velocity":0.7637795275590551,"duration":0.22977929687499454},{"name":"D4","midi":62,"time":578.3526519999615,"velocity":0.7637795275590551,"duration":0.22977929687499454},{"name":"G3","midi":55,"time":578.5879459999614,"velocity":0.7637795275590551,"duration":0.22977929687499454},{"name":"G4","midi":67,"time":578.5879459999614,"velocity":0.7637795275590551,"duration":0.22977929687499454},{"name":"E3","midi":52,"time":578.8232399999614,"velocity":0.7637795275590551,"duration":0.22977929687499454},{"name":"C4","midi":60,"time":578.8232399999614,"velocity":0.7637795275590551,"duration":0.22977929687499454},{"name":"G3","midi":55,"time":579.0585339999614,"velocity":0.7637795275590551,"duration":0.22977929687499454},{"name":"G4","midi":67,"time":579.0585339999614,"velocity":0.7637795275590551,"duration":0.22977929687499454},{"name":"C4","midi":60,"time":579.2938279999613,"velocity":0.7637795275590551,"duration":0.22977929687499454},{"name":"E4","midi":64,"time":579.2938279999613,"velocity":0.7637795275590551,"duration":0.22977929687499454},{"name":"C3","midi":48,"time":579.5291219999613,"velocity":0.7637795275590551,"duration":0.22977929687499454},{"name":"G4","midi":67,"time":579.5291219999613,"velocity":0.7637795275590551,"duration":0.22977929687499454},{"name":"E3","midi":52,"time":579.7644159999612,"velocity":0.7637795275590551,"duration":0.22977929687499454},{"name":"E4","midi":64,"time":579.7644159999612,"velocity":0.7637795275590551,"duration":0.22977929687499454},{"name":"G3","midi":55,"time":579.9997099999612,"velocity":0.7637795275590551,"duration":0.22977929687499454},{"name":"C4","midi":60,"time":579.9997099999612,"velocity":0.7637795275590551,"duration":0.22977929687499454},{"name":"F#2","midi":42,"time":580.2350039999611,"velocity":0.7637795275590551,"duration":0.22977929687499454},{"name":"A4","midi":69,"time":580.2350039999611,"velocity":0.7637795275590551,"duration":0.9393377656248276},{"name":"A2","midi":45,"time":580.4702979999611,"velocity":0.7637795275590551,"duration":0.22977929687499454},{"name":"F#4","midi":66,"time":580.4702979999611,"velocity":0.7637795275590551,"duration":0.22977929687499454},{"name":"C3","midi":48,"time":580.705591999961,"velocity":0.7637795275590551,"duration":0.22977929687499454},{"name":"E4","midi":64,"time":580.705591999961,"velocity":0.7637795275590551,"duration":0.22977929687499454},{"name":"F#3","midi":54,"time":580.940885999961,"velocity":0.7637795275590551,"duration":0.22977929687499454},{"name":"D#4","midi":63,"time":580.940885999961,"velocity":0.7637795275590551,"duration":0.22977929687499454},{"name":"A3","midi":57,"time":581.1761799999609,"velocity":0.7637795275590551,"duration":0.22977929687499454},{"name":"E4","midi":64,"time":581.1761799999609,"velocity":0.7637795275590551,"duration":0.22977929687499454},{"name":"F#3","midi":54,"time":581.4114739999609,"velocity":0.7637795275590551,"duration":0.22977929687499454},{"name":"F#4","midi":66,"time":581.4114739999609,"velocity":0.7637795275590551,"duration":0.22977929687499454},{"name":"D#3","midi":51,"time":581.6467679999608,"velocity":0.7637795275590551,"duration":0.22977929687499454},{"name":"B3","midi":59,"time":581.6467679999608,"velocity":0.7637795275590551,"duration":0.22977929687499454},{"name":"F#3","midi":54,"time":581.8820619999608,"velocity":0.7637795275590551,"duration":0.22977929687499454},{"name":"F#4","midi":66,"time":581.8820619999608,"velocity":0.7637795275590551,"duration":0.22977929687499454},{"name":"B3","midi":59,"time":582.1173559999608,"velocity":0.7637795275590551,"duration":0.22977929687499454},{"name":"D#4","midi":63,"time":582.1173559999608,"velocity":0.7637795275590551,"duration":0.22977929687499454},{"name":"B2","midi":47,"time":582.3526499999607,"velocity":0.7637795275590551,"duration":0.22977929687499454},{"name":"F#4","midi":66,"time":582.3526499999607,"velocity":0.7637795275590551,"duration":0.22977929687499454},{"name":"D#3","midi":51,"time":582.5879439999607,"velocity":0.7637795275590551,"duration":0.22977929687499454},{"name":"D#4","midi":63,"time":582.5879439999607,"velocity":0.7637795275590551,"duration":0.22977929687499454},{"name":"F#3","midi":54,"time":582.8232379999606,"velocity":0.7637795275590551,"duration":0.22977929687499454},{"name":"B3","midi":59,"time":582.8232379999606,"velocity":0.7637795275590551,"duration":0.22977929687499454},{"name":"E2","midi":40,"time":583.0585319999606,"velocity":0.7637795275590551,"duration":0.22977929687499454},{"name":"G4","midi":67,"time":583.0585319999606,"velocity":0.7637795275590551,"duration":0.9393377656248276},{"name":"G2","midi":43,"time":583.2938259999605,"velocity":0.7637795275590551,"duration":0.22977929687499454},{"name":"B4","midi":71,"time":583.2938259999605,"velocity":0.7637795275590551,"duration":0.22977929687499454},{"name":"B2","midi":47,"time":583.5291199999605,"velocity":0.7637795275590551,"duration":0.22977929687499454},{"name":"D#5","midi":75,"time":583.5291199999605,"velocity":0.7637795275590551,"duration":0.22977929687499454},{"name":"E3","midi":52,"time":583.7644139999604,"velocity":0.7637795275590551,"duration":0.22977929687499454},{"name":"E5","midi":76,"time":583.7644139999604,"velocity":0.7637795275590551,"duration":0.9393377656248276},{"name":"D#3","midi":51,"time":583.9997079999604,"velocity":0.7637795275590551,"duration":0.22977929687499454},{"name":"F#4","midi":66,"time":583.9997079999604,"velocity":0.7637795275590551,"duration":0.22977929687499454},{"name":"E3","midi":52,"time":584.2350019999603,"velocity":0.7637795275590551,"duration":0.22977929687499454},{"name":"G4","midi":67,"time":584.2350019999603,"velocity":0.7637795275590551,"duration":0.22977929687499454},{"name":"F#2","midi":42,"time":584.4702959999603,"velocity":0.7637795275590551,"duration":0.22977929687499454},{"name":"A4","midi":69,"time":584.4702959999603,"velocity":0.7637795275590551,"duration":0.9393377656248276},{"name":"A2","midi":45,"time":584.7055899999602,"velocity":0.7637795275590551,"duration":0.22977929687499454},{"name":"B2","midi":47,"time":584.9408839999602,"velocity":0.7637795275590551,"duration":0.22977929687499454},{"name":"D#5","midi":75,"time":584.9408839999602,"velocity":0.7637795275590551,"duration":0.22977929687499454},{"name":"E3","midi":52,"time":585.1761779999601,"velocity":0.7637795275590551,"duration":0.22977929687499454},{"name":"F#5","midi":78,"time":585.1761779999601,"velocity":0.7637795275590551,"duration":0.9393377656248276},{"name":"D#3","midi":51,"time":585.4114719999601,"velocity":0.7637795275590551,"duration":0.22977929687499454},{"name":"B4","midi":71,"time":585.4114719999601,"velocity":0.7637795275590551,"duration":0.22977929687499454},{"name":"E3","midi":52,"time":585.64676599996,"velocity":0.7637795275590551,"duration":0.22977929687499454},{"name":"C5","midi":72,"time":585.64676599996,"velocity":0.7637795275590551,"duration":0.22977929687499454},{"name":"G2","midi":43,"time":585.88205999996,"velocity":0.7637795275590551,"duration":0.22977929687499454},{"name":"B4","midi":71,"time":585.88205999996,"velocity":0.7637795275590551,"duration":0.9393377656248276},{"name":"B2","midi":47,"time":586.11735399996,"velocity":0.7637795275590551,"duration":0.22977929687499454},{"name":"E5","midi":76,"time":586.11735399996,"velocity":0.7637795275590551,"duration":0.22977929687499454},{"name":"D#3","midi":51,"time":586.3526479999599,"velocity":0.7637795275590551,"duration":0.22977929687499454},{"name":"F#5","midi":78,"time":586.3526479999599,"velocity":0.7637795275590551,"duration":0.22977929687499454},{"name":"E3","midi":52,"time":586.5879419999599,"velocity":0.7637795275590551,"duration":0.22977929687499454},{"name":"G5","midi":79,"time":586.5879419999599,"velocity":0.7637795275590551,"duration":0.9393377656248276},{"name":"F#3","midi":54,"time":586.8232359999598,"velocity":0.7637795275590551,"duration":0.22977929687499454},{"name":"D#5","midi":75,"time":586.8232359999598,"velocity":0.7637795275590551,"duration":0.22977929687499454},{"name":"G3","midi":55,"time":587.0585299999598,"velocity":0.7637795275590551,"duration":0.22977929687499454},{"name":"E5","midi":76,"time":587.0585299999598,"velocity":0.7637795275590551,"duration":0.22977929687499454},{"name":"A2","midi":45,"time":587.2938239999597,"velocity":0.7637795275590551,"duration":0.22977929687499454},{"name":"C5","midi":72,"time":587.2938239999597,"velocity":0.7637795275590551,"duration":1.617646249999666},{"name":"G3","midi":55,"time":587.5291179999597,"velocity":0.7637795275590551,"duration":0.22977929687499454},{"name":"E5","midi":76,"time":587.5291179999597,"velocity":0.7637795275590551,"duration":0.22977929687499454},{"name":"E3","midi":52,"time":587.7644119999596,"velocity":0.7637795275590551,"duration":0.22977929687499454},{"name":"G#5","midi":80,"time":587.7644119999596,"velocity":0.7637795275590551,"duration":0.22977929687499454},{"name":"F3","midi":53,"time":587.9997059999596,"velocity":0.7637795275590551,"duration":0.22977929687499454},{"name":"A5","midi":81,"time":587.9997059999596,"velocity":0.7637795275590551,"duration":0.22977929687499454},{"name":"A3","midi":57,"time":588.2349999999595,"velocity":0.7637795275590551,"duration":0.22977929687499454},{"name":"C6","midi":84,"time":588.2349999999595,"velocity":0.7637795275590551,"duration":0.22977929687499454},{"name":"E3","midi":52,"time":588.4702939999595,"velocity":0.7637795275590551,"duration":0.22977929687499454},{"name":"G5","midi":79,"time":588.4702939999595,"velocity":0.7637795275590551,"duration":0.22977929687499454},{"name":"D#3","midi":51,"time":588.7055879999594,"velocity":0.7637795275590551,"duration":0.935661296874855},{"name":"F#5","midi":78,"time":588.7055879999594,"velocity":0.7637795275590551,"duration":0.9393377656248276},{"name":"B4","midi":71,"time":588.9408819999594,"velocity":0.7637795275590551,"duration":0.23345576562496717},{"name":"A4","midi":69,"time":589.1761759999594,"velocity":0.7637795275590551,"duration":0.22977929687499454},{"name":"B4","midi":71,"time":589.4114699999593,"velocity":0.7637795275590551,"duration":0.22977929687499454},{"name":"C#3","midi":49,"time":589.6467639999593,"velocity":0.7637795275590551,"duration":0.22977929687499454},{"name":"F#5","midi":78,"time":589.6467639999593,"velocity":0.7637795275590551,"duration":0.22977929687499454},{"name":"D#3","midi":51,"time":589.8820579999592,"velocity":0.7637795275590551,"duration":0.22977929687499454},{"name":"A4","midi":69,"time":589.8820579999592,"velocity":0.7637795275590551,"duration":0.22977929687499454},{"name":"E2","midi":40,"time":590.1173519999592,"velocity":0.7637795275590551,"duration":0.22977929687499454},{"name":"G4","midi":67,"time":590.1173519999592,"velocity":0.7637795275590551,"duration":1.617646249999666},{"name":"G2","midi":43,"time":590.3526459999591,"velocity":0.7637795275590551,"duration":0.22977929687499454},{"name":"E5","midi":76,"time":590.3526459999591,"velocity":0.7637795275590551,"duration":0.22977929687499454},{"name":"B2","midi":47,"time":590.5879399999591,"velocity":0.7637795275590551,"duration":0.22977929687499454},{"name":"D#5","midi":75,"time":590.5879399999591,"velocity":0.7637795275590551,"duration":0.22977929687499454},{"name":"E3","midi":52,"time":590.823233999959,"velocity":0.7637795275590551,"duration":0.22977929687499454},{"name":"E5","midi":76,"time":590.823233999959,"velocity":0.7637795275590551,"duration":0.46507329687494803},{"name":"G3","midi":55,"time":591.058527999959,"velocity":0.7637795275590551,"duration":0.22977929687499454},{"name":"E3","midi":52,"time":591.2938219999589,"velocity":0.7637795275590551,"duration":0.22977929687499454},{"name":"B4","midi":71,"time":591.2938219999589,"velocity":0.7637795275590551,"duration":0.22977929687499454},{"name":"C#3","midi":49,"time":591.5291159999589,"velocity":0.7637795275590551,"duration":0.935661296874855},{"name":"E5","midi":76,"time":591.5291159999589,"velocity":0.7637795275590551,"duration":0.9393377656248276},{"name":"A4","midi":69,"time":591.7644099999588,"velocity":0.7637795275590551,"duration":0.22977929687499454},{"name":"G4","midi":67,"time":591.9997039999588,"velocity":0.7637795275590551,"duration":0.22977929687499454},{"name":"A4","midi":69,"time":592.2349979999588,"velocity":0.7637795275590551,"duration":0.22977929687499454},{"name":"B2","midi":47,"time":592.4702919999587,"velocity":0.7637795275590551,"duration":0.22977929687499454},{"name":"E5","midi":76,"time":592.4702919999587,"velocity":0.7637795275590551,"duration":0.22977929687499454},{"name":"C#3","midi":49,"time":592.7055859999587,"velocity":0.7637795275590551,"duration":0.22977929687499454},{"name":"G4","midi":67,"time":592.7055859999587,"velocity":0.7637795275590551,"duration":0.22977929687499454},{"name":"D2","midi":38,"time":592.9408799999586,"velocity":0.7637795275590551,"duration":0.22977929687499454},{"name":"F4","midi":65,"time":592.9408799999586,"velocity":0.7637795275590551,"duration":1.617646249999666},{"name":"F2","midi":41,"time":593.1761739999586,"velocity":0.7637795275590551,"duration":0.22977929687499454},{"name":"D5","midi":74,"time":593.1761739999586,"velocity":0.7637795275590551,"duration":0.22977929687499454},{"name":"A2","midi":45,"time":593.4114679999585,"velocity":0.7637795275590551,"duration":0.22977929687499454},{"name":"C#5","midi":73,"time":593.4114679999585,"velocity":0.7637795275590551,"duration":0.22977929687499454},{"name":"D3","midi":50,"time":593.6467619999585,"velocity":0.7637795275590551,"duration":0.22977929687499454},{"name":"D5","midi":74,"time":593.6467619999585,"velocity":0.7637795275590551,"duration":0.46507329687494803},{"name":"F3","midi":53,"time":593.8820559999584,"velocity":0.7637795275590551,"duration":0.22977929687499454},{"name":"D3","midi":50,"time":594.1173499999584,"velocity":0.7637795275590551,"duration":0.22977929687499454},{"name":"A4","midi":69,"time":594.1173499999584,"velocity":0.7637795275590551,"duration":0.22977929687499454},{"name":"B2","midi":47,"time":594.3526439999583,"velocity":0.7637795275590551,"duration":0.935661296874855},{"name":"D5","midi":74,"time":594.3526439999583,"velocity":0.7637795275590551,"duration":0.9393377656248276},{"name":"G4","midi":67,"time":594.5879379999583,"velocity":0.7637795275590551,"duration":0.22977929687499454},{"name":"F4","midi":65,"time":594.8232319999582,"velocity":0.7637795275590551,"duration":0.22977929687499454},{"name":"G4","midi":67,"time":595.0585259999582,"velocity":0.7637795275590551,"duration":0.22977929687499454},{"name":"A2","midi":45,"time":595.2938199999581,"velocity":0.7637795275590551,"duration":0.22977929687499454},{"name":"D5","midi":74,"time":595.2938199999581,"velocity":0.7637795275590551,"duration":0.22977929687499454},{"name":"B2","midi":47,"time":595.5291139999581,"velocity":0.7637795275590551,"duration":0.22977929687499454},{"name":"F4","midi":65,"time":595.5291139999581,"velocity":0.7637795275590551,"duration":0.22977929687499454},{"name":"C2","midi":36,"time":595.764407999958,"velocity":0.7637795275590551,"duration":0.22977929687499454},{"name":"E4","midi":64,"time":595.764407999958,"velocity":0.7637795275590551,"duration":1.617646249999666},{"name":"E2","midi":40,"time":595.999701999958,"velocity":0.7637795275590551,"duration":0.22977929687499454},{"name":"C5","midi":72,"time":595.999701999958,"velocity":0.7637795275590551,"duration":0.22977929687499454},{"name":"G2","midi":43,"time":596.234995999958,"velocity":0.7637795275590551,"duration":0.22977929687499454},{"name":"B4","midi":71,"time":596.234995999958,"velocity":0.7637795275590551,"duration":0.22977929687499454},{"name":"C3","midi":48,"time":596.4702899999579,"velocity":0.7637795275590551,"duration":0.22977929687499454},{"name":"C5","midi":72,"time":596.4702899999579,"velocity":0.7637795275590551,"duration":0.46507329687494803},{"name":"E3","midi":52,"time":596.7055839999579,"velocity":0.7637795275590551,"duration":0.22977929687499454},{"name":"C3","midi":48,"time":596.9408779999578,"velocity":0.7637795275590551,"duration":0.22977929687499454},{"name":"G#4","midi":68,"time":596.9408779999578,"velocity":0.7637795275590551,"duration":0.22977929687499454},{"name":"F2","midi":41,"time":597.1761719999578,"velocity":0.7637795275590551,"duration":0.22977929687499454},{"name":"A4","midi":69,"time":597.1761719999578,"velocity":0.7637795275590551,"duration":1.121322968749837},{"name":"A2","midi":45,"time":597.4114659999577,"velocity":0.7637795275590551,"duration":0.22977929687499454},{"name":"C3","midi":48,"time":597.6467599999577,"velocity":0.7637795275590551,"duration":0.22977929687499454},{"name":"A3","midi":57,"time":597.6467599999577,"velocity":0.7637795275590551,"duration":0.22977929687499454},{"name":"F3","midi":53,"time":597.8820539999576,"velocity":0.7637795275590551,"duration":0.22977929687499454},{"name":"D4","midi":62,"time":597.8820539999576,"velocity":0.7637795275590551,"duration":0.8823524999999108},{"name":"A3","midi":57,"time":598.1173479999576,"velocity":0.7637795275590551,"duration":0.22977929687499454},{"name":"F3","midi":53,"time":598.3526419999575,"velocity":0.7637795275590551,"duration":0.22977929687499454},{"name":"A4","midi":69,"time":598.3526419999575,"velocity":0.7637795275590551,"duration":0.22977929687499454},{"name":"B2","midi":47,"time":598.5879359999575,"velocity":0.7637795275590551,"duration":0.22977929687499454},{"name":"D5","midi":74,"time":598.5879359999575,"velocity":0.7637795275590551,"duration":1.617646249999666},{"name":"D3","midi":50,"time":598.8232299999574,"velocity":0.7637795275590551,"duration":0.22977929687499454},{"name":"F4","midi":65,"time":598.8232299999574,"velocity":0.7637795275590551,"duration":0.22977929687499454},{"name":"F3","midi":53,"time":599.0585239999574,"velocity":0.7637795275590551,"duration":0.22977929687499454},{"name":"A4","midi":69,"time":599.0585239999574,"velocity":0.7637795275590551,"duration":0.22977929687499454},{"name":"B3","midi":59,"time":599.2938179999574,"velocity":0.7637795275590551,"duration":0.22977929687499454},{"name":"G#4","midi":68,"time":599.2938179999574,"velocity":0.7637795275590551,"duration":0.22977929687499454},{"name":"D4","midi":62,"time":599.5291119999573,"velocity":0.7637795275590551,"duration":0.22977929687499454},{"name":"B4","midi":71,"time":599.5291119999573,"velocity":0.7637795275590551,"duration":0.22977929687499454},{"name":"B3","midi":59,"time":599.7644059999573,"velocity":0.7637795275590551,"duration":0.22977929687499454},{"name":"A4","midi":69,"time":599.7644059999573,"velocity":0.7637795275590551,"duration":0.22977929687499454},{"name":"E3","midi":52,"time":599.9996999999572,"velocity":0.7637795275590551,"duration":0.22977929687499454},{"name":"B4","midi":71,"time":599.9996999999572,"velocity":0.7637795275590551,"duration":0.46874976562492066},{"name":"G#3","midi":56,"time":600.2349939999572,"velocity":0.7637795275590551,"duration":0.22977929687499454},{"name":"B5","midi":83,"time":600.2349939999572,"velocity":0.7637795275590551,"duration":0.22977929687499454},{"name":"B3","midi":59,"time":600.4702879999571,"velocity":0.7637795275590551,"duration":0.22977929687499454},{"name":"G#5","midi":80,"time":600.4702879999571,"velocity":0.7637795275590551,"duration":0.22977929687499454},{"name":"E4","midi":64,"time":600.7055819999571,"velocity":0.7637795275590551,"duration":0.22977929687499454},{"name":"E5","midi":76,"time":600.7055819999571,"velocity":0.7637795275590551,"duration":0.22977929687499454},{"name":"G#4","midi":68,"time":600.940875999957,"velocity":0.7637795275590551,"duration":0.22977929687499454},{"name":"B4","midi":71,"time":600.940875999957,"velocity":0.7637795275590551,"duration":0.22977929687499454},{"name":"E4","midi":64,"time":601.176169999957,"velocity":0.7637795275590551,"duration":0.22977929687499454},{"name":"E5","midi":76,"time":601.176169999957,"velocity":0.7637795275590551,"duration":0.22977929687499454},{"name":"C4","midi":60,"time":601.4114639999569,"velocity":0.7637795275590551,"duration":1.4099257656247346},{"name":"A4","midi":69,"time":601.4114639999569,"velocity":0.7637795275590551,"duration":0.22977929687499454},{"name":"C5","midi":72,"time":601.6467579999569,"velocity":0.7637795275590551,"duration":0.22977929687499454},{"name":"E5","midi":76,"time":601.8820519999568,"velocity":0.7637795275590551,"duration":0.22977929687499454},{"name":"E4","midi":64,"time":602.1173459999568,"velocity":0.7637795275590551,"duration":0.7003672968749015},{"name":"A5","midi":81,"time":602.1173459999568,"velocity":0.7637795275590551,"duration":0.22977929687499454},{"name":"G#5","midi":80,"time":602.3526399999568,"velocity":0.7637795275590551,"duration":0.22977929687499454},{"name":"A5","midi":81,"time":602.5879339999567,"velocity":0.7637795275590551,"duration":0.22977929687499454},{"name":"D4","midi":62,"time":602.8232279999567,"velocity":0.7637795275590551,"duration":0.46507329687494803},{"name":"F4","midi":65,"time":602.8232279999567,"velocity":0.7637795275590551,"duration":0.46507329687494803},{"name":"B4","midi":71,"time":602.8232279999567,"velocity":0.7637795275590551,"duration":0.22977929687499454},{"name":"D5","midi":74,"time":603.0585219999566,"velocity":0.7637795275590551,"duration":0.22977929687499454},{"name":"E4","midi":64,"time":603.2938159999566,"velocity":0.7637795275590551,"duration":0.22977929687499454},{"name":"C4","midi":60,"time":603.2938159999566,"velocity":0.7637795275590551,"duration":0.22977929687499454},{"name":"E5","midi":76,"time":603.2938159999566,"velocity":0.7637795275590551,"duration":0.22977929687499454},{"name":"D4","midi":62,"time":603.5291099999565,"velocity":0.7637795275590551,"duration":0.7003672968749015},{"name":"B3","midi":59,"time":603.5291099999565,"velocity":0.7637795275590551,"duration":0.7003672968749015},{"name":"A5","midi":81,"time":603.5291099999565,"velocity":0.7637795275590551,"duration":0.22977929687499454},{"name":"G#5","midi":80,"time":603.7644039999565,"velocity":0.7637795275590551,"duration":0.22977929687499454},{"name":"A5","midi":81,"time":603.9996979999564,"velocity":0.7637795275590551,"duration":0.22977929687499454},{"name":"E4","midi":64,"time":604.2349919999564,"velocity":0.7637795275590551,"duration":0.46507329687494803},{"name":"A3","midi":57,"time":604.2349919999564,"velocity":0.7637795275590551,"duration":1.1819847031247264},{"name":"C5","midi":72,"time":604.2349919999564,"velocity":0.7637795275590551,"duration":0.22977929687499454},{"name":"E5","midi":76,"time":604.4702859999563,"velocity":0.7637795275590551,"duration":0.22977929687499454},{"name":"B3","midi":59,"time":604.7055799999563,"velocity":0.7637795275590551,"duration":0.22977929687499454},{"name":"G#5","midi":80,"time":604.7055799999563,"velocity":0.7637795275590551,"duration":0.22977929687499454},{"name":"C4","midi":60,"time":604.9408739999562,"velocity":0.7637795275590551,"duration":0.46507329687494803},{"name":"A5","midi":81,"time":604.9408739999562,"velocity":0.7637795275590551,"duration":0.22977929687499454},{"name":"B5","midi":83,"time":605.1761679999562,"velocity":0.7637795275590551,"duration":0.22977929687499454},{"name":"G3","midi":55,"time":605.4114619999561,"velocity":0.7637795275590551,"duration":0.22977929687499454},{"name":"E4","midi":64,"time":605.4114619999561,"velocity":0.7637795275590551,"duration":0.22977929687499454},{"name":"C6","midi":84,"time":605.4114619999561,"velocity":0.7637795275590551,"duration":0.22977929687499454},{"name":"F3","midi":53,"time":605.6467559999561,"velocity":0.7637795275590551,"duration":1.4099257656247346},{"name":"A3","midi":57,"time":605.6467559999561,"velocity":0.7637795275590551,"duration":0.7003672968749015},{"name":"D5","midi":74,"time":605.6467559999561,"velocity":0.7637795275590551,"duration":0.22977929687499454},{"name":"C6","midi":84,"time":605.882049999956,"velocity":0.7637795275590551,"duration":0.22977929687499454},{"name":"A5","midi":81,"time":606.117343999956,"velocity":0.7637795275590551,"duration":0.22977929687499454},{"name":"D4","midi":62,"time":606.352637999956,"velocity":0.7637795275590551,"duration":0.8823524999999108},{"name":"A#5","midi":82,"time":606.352637999956,"velocity":0.7637795275590551,"duration":0.22977929687499454},{"name":"D6","midi":86,"time":606.5879319999559,"velocity":0.7637795275590551,"duration":0.22977929687499454},{"name":"A5","midi":81,"time":606.8232259999559,"velocity":0.7637795275590551,"duration":0.22977929687499454},{"name":"E3","midi":52,"time":607.0585199999558,"velocity":0.7637795275590551,"duration":0.22977929687499454},{"name":"G#5","midi":80,"time":607.0585199999558,"velocity":0.7637795275590551,"duration":0.22977929687499454},{"name":"G#3","midi":56,"time":607.2938139999558,"velocity":0.7637795275590551,"duration":0.22977929687499454},{"name":"B5","midi":83,"time":607.2938139999558,"velocity":0.7637795275590551,"duration":0.22977929687499454},{"name":"B3","midi":59,"time":607.5291079999557,"velocity":0.7637795275590551,"duration":0.22977929687499454},{"name":"G#5","midi":80,"time":607.5291079999557,"velocity":0.7637795275590551,"duration":0.22977929687499454},{"name":"E4","midi":64,"time":607.7644019999557,"velocity":0.7637795275590551,"duration":0.22977929687499454},{"name":"E5","midi":76,"time":607.7644019999557,"velocity":0.7637795275590551,"duration":0.22977929687499454},{"name":"G#4","midi":68,"time":607.9996959999556,"velocity":0.7637795275590551,"duration":0.22977929687499454},{"name":"B4","midi":71,"time":607.9996959999556,"velocity":0.7637795275590551,"duration":0.22977929687499454},{"name":"E4","midi":64,"time":608.2349899999556,"velocity":0.7637795275590551,"duration":0.22977929687499454},{"name":"D5","midi":74,"time":608.2349899999556,"velocity":0.7637795275590551,"duration":0.22977929687499454},{"name":"A2","midi":45,"time":608.4702839999555,"velocity":0.7637795275590551,"duration":0.22977929687499454},{"name":"C5","midi":72,"time":608.4702839999555,"velocity":0.7637795275590551,"duration":0.22977929687499454},{"name":"A4","midi":69,"time":608.4702839999555,"velocity":0.7637795275590551,"duration":0.46874976562492066},{"name":"C3","midi":48,"time":608.7055779999555,"velocity":0.7637795275590551,"duration":0.22977929687499454},{"name":"E5","midi":76,"time":608.7055779999555,"velocity":0.7637795275590551,"duration":0.22977929687499454},{"name":"E3","midi":52,"time":608.9408719999554,"velocity":0.7637795275590551,"duration":0.22977929687499454},{"name":"C5","midi":72,"time":608.9408719999554,"velocity":0.7637795275590551,"duration":0.22977929687499454},{"name":"A3","midi":57,"time":609.1761659999554,"velocity":0.7637795275590551,"duration":0.22977929687499454},{"name":"A4","midi":69,"time":609.1761659999554,"velocity":0.7637795275590551,"duration":0.22977929687499454},{"name":"C4","midi":60,"time":609.4114599999554,"velocity":0.7637795275590551,"duration":0.22977929687499454},{"name":"E4","midi":64,"time":609.4114599999554,"velocity":0.7637795275590551,"duration":0.22977929687499454},{"name":"A3","midi":57,"time":609.6467539999553,"velocity":0.7637795275590551,"duration":0.22977929687499454},{"name":"G4","midi":67,"time":609.6467539999553,"velocity":0.7637795275590551,"duration":0.22977929687499454},{"name":"D3","midi":50,"time":609.8820479999553,"velocity":0.7637795275590551,"duration":0.6985290624999152},{"name":"F4","midi":65,"time":609.8820479999553,"velocity":0.7637795275590551,"duration":0.22977929687499454},{"name":"F3","midi":53,"time":610.1173419999552,"velocity":0.7637795275590551,"duration":0.22977929687499454},{"name":"A5","midi":81,"time":610.1173419999552,"velocity":0.7637795275590551,"duration":0.22977929687499454},{"name":"A3","midi":57,"time":610.3526359999552,"velocity":0.7637795275590551,"duration":0.22977929687499454},{"name":"F5","midi":77,"time":610.3526359999552,"velocity":0.7637795275590551,"duration":0.22977929687499454},{"name":"D4","midi":62,"time":610.5879299999551,"velocity":0.7637795275590551,"duration":0.22977929687499454},{"name":"D5","midi":74,"time":610.5879299999551,"velocity":0.7637795275590551,"duration":0.22977929687499454},{"name":"F4","midi":65,"time":610.8232239999551,"velocity":0.7637795275590551,"duration":0.22977929687499454},{"name":"A4","midi":69,"time":610.8232239999551,"velocity":0.7637795275590551,"duration":0.22977929687499454},{"name":"D4","midi":62,"time":611.058517999955,"velocity":0.7637795275590551,"duration":0.22977929687499454},{"name":"C5","midi":72,"time":611.058517999955,"velocity":0.7637795275590551,"duration":0.22977929687499454},{"name":"G2","midi":43,"time":611.293811999955,"velocity":0.7637795275590551,"duration":0.22977929687499454},{"name":"B4","midi":71,"time":611.293811999955,"velocity":0.7637795275590551,"duration":0.22977929687499454},{"name":"G4","midi":67,"time":611.293811999955,"velocity":0.7637795275590551,"duration":0.6985290624999152},{"name":"B2","midi":47,"time":611.5291059999549,"velocity":0.7637795275590551,"duration":0.22977929687499454},{"name":"D5","midi":74,"time":611.5291059999549,"velocity":0.7637795275590551,"duration":0.22977929687499454},{"name":"D3","midi":50,"time":611.7643999999549,"velocity":0.7637795275590551,"duration":0.22977929687499454},{"name":"B4","midi":71,"time":611.7643999999549,"velocity":0.7637795275590551,"duration":0.22977929687499454},{"name":"G3","midi":55,"time":611.9996939999548,"velocity":0.7637795275590551,"duration":0.22977929687499454},{"name":"G4","midi":67,"time":611.9996939999548,"velocity":0.7637795275590551,"duration":0.22977929687499454},{"name":"B3","midi":59,"time":612.2349879999548,"velocity":0.7637795275590551,"duration":0.22977929687499454},{"name":"D4","midi":62,"time":612.2349879999548,"velocity":0.7637795275590551,"duration":0.22977929687499454},{"name":"G3","midi":55,"time":612.4702819999548,"velocity":0.7637795275590551,"duration":0.22977929687499454},{"name":"F4","midi":65,"time":612.4702819999548,"velocity":0.7637795275590551,"duration":0.22977929687499454},{"name":"C3","midi":48,"time":612.7055759999547,"velocity":0.7637795275590551,"duration":0.46507329687494803},{"name":"E4","midi":64,"time":612.7055759999547,"velocity":0.7637795275590551,"duration":0.22977929687499454},{"name":"E5","midi":76,"time":612.9408699999547,"velocity":0.7637795275590551,"duration":0.9393377656248276},{"name":"A2","midi":45,"time":613.1761639999546,"velocity":0.7637795275590551,"duration":0.22977929687499454},{"name":"C5","midi":72,"time":613.1761639999546,"velocity":0.7637795275590551,"duration":0.22977929687499454},{"name":"F3","midi":53,"time":613.4114579999546,"velocity":0.7637795275590551,"duration":0.46507329687494803},{"name":"B4","midi":71,"time":613.4114579999546,"velocity":0.7637795275590551,"duration":0.22977929687499454},{"name":"A4","midi":69,"time":613.6467519999545,"velocity":0.7637795275590551,"duration":0.5514703124998732},{"name":"F2","midi":41,"time":613.8820459999545,"velocity":0.7637795275590551,"duration":0.22977929687499454},{"name":"D5","midi":74,"time":613.8820459999545,"velocity":0.7637795275590551,"duration":0.22977929687499454},{"name":"E2","midi":40,"time":614.1173399999544,"velocity":0.7637795275590551,"duration":0.22977929687499454},{"name":"E5","midi":76,"time":614.1173399999544,"velocity":0.7637795275590551,"duration":1.409925765624962},{"name":"C5","midi":72,"time":614.2349869999543,"velocity":0.7637795275590551,"duration":0.10294112500002939},{"name":"G#2","midi":44,"time":614.3526339999544,"velocity":0.7637795275590551,"duration":0.22977929687510823},{"name":"B4","midi":71,"time":614.3526339999544,"velocity":0.7637795275590551,"duration":0.10294112500002939},{"name":"A4","midi":69,"time":614.4702809999544,"velocity":0.7637795275590551,"duration":0.10294112500002939},{"name":"B2","midi":47,"time":614.5879279999544,"velocity":0.7637795275590551,"duration":0.22977929687510823},{"name":"G#4","midi":68,"time":614.5879279999544,"velocity":0.7637795275590551,"duration":0.09926465625005676},{"name":"F#4","midi":66,"time":614.7055749999545,"velocity":0.7637795275590551,"duration":0.10294112500002939},{"name":"E3","midi":52,"time":614.8232219999545,"velocity":0.7637795275590551,"duration":0.46507329687494803},{"name":"E4","midi":64,"time":614.8232219999545,"velocity":0.7637795275590551,"duration":0.6985290624999152},{"name":"B3","midi":59,"time":615.2938099999544,"velocity":0.7637795275590551,"duration":0.22977929687499454},{"name":"E4","midi":64,"time":615.5291039999544,"velocity":0.7637795275590551,"duration":0.22977929687499454},{"name":"B3","midi":59,"time":615.7643979999543,"velocity":0.7637795275590551,"duration":0.22977929687499454},{"name":"G#3","midi":56,"time":615.9996919999543,"velocity":0.7637795275590551,"duration":0.22977929687499454},{"name":"E3","midi":52,"time":616.2349859999542,"velocity":0.7637795275590551,"duration":0.22977929687499454},{"name":"D#3","midi":51,"time":616.4702799999542,"velocity":0.7637795275590551,"duration":0.22977929687499454},{"name":"E3","midi":52,"time":616.7055739999541,"velocity":0.7637795275590551,"duration":0.22977929687499454},{"name":"D4","midi":62,"time":616.9408679999541,"velocity":0.7637795275590551,"duration":0.22977929687499454},{"name":"B3","midi":59,"time":617.176161999954,"velocity":0.7637795275590551,"duration":0.22977929687499454},{"name":"G#3","midi":56,"time":617.411455999954,"velocity":0.7637795275590551,"duration":0.22977929687499454},{"name":"E3","midi":52,"time":617.646749999954,"velocity":0.7637795275590551,"duration":0.22977929687499454},{"name":"D#3","midi":51,"time":617.8820439999539,"velocity":0.7637795275590551,"duration":0.22977929687499454},{"name":"E3","midi":52,"time":618.1173379999539,"velocity":0.7637795275590551,"duration":0.22977929687499454},{"name":"C4","midi":60,"time":618.3526319999538,"velocity":0.7637795275590551,"duration":0.22977929687499454},{"name":"A3","midi":57,"time":618.5879259999538,"velocity":0.7637795275590551,"duration":0.22977929687499454},{"name":"F3","midi":53,"time":618.8232199999537,"velocity":0.7637795275590551,"duration":0.22977929687499454},{"name":"E3","midi":52,"time":619.0585139999537,"velocity":0.7637795275590551,"duration":0.22977929687499454},{"name":"G#3","midi":56,"time":619.2938079999536,"velocity":0.7637795275590551,"duration":0.22977929687499454},{"name":"A3","midi":57,"time":619.5291019999536,"velocity":0.7637795275590551,"duration":0.22977929687499454},{"name":"F3","midi":53,"time":619.7643959999535,"velocity":0.7637795275590551,"duration":0.22977929687499454},{"name":"D3","midi":50,"time":619.9996899999535,"velocity":0.7637795275590551,"duration":0.22977929687499454},{"name":"B2","midi":47,"time":620.2349839999534,"velocity":0.7637795275590551,"duration":0.22977929687499454},{"name":"G#2","midi":44,"time":620.4702779999534,"velocity":0.7637795275590551,"duration":0.22977929687499454},{"name":"E3","midi":52,"time":620.7055719999533,"velocity":0.7637795275590551,"duration":0.22977929687499454},{"name":"D3","midi":50,"time":620.9408659999533,"velocity":0.7637795275590551,"duration":0.22977929687499454},{"name":"E4","midi":64,"time":620.9408659999533,"velocity":0.7637795275590551,"duration":0.22977929687499454},{"name":"C3","midi":48,"time":621.1761599999533,"velocity":0.7637795275590551,"duration":0.9393377656248276},{"name":"A4","midi":69,"time":621.1761599999533,"velocity":0.7637795275590551,"duration":0.22977929687499454},{"name":"E4","midi":64,"time":621.4114539999532,"velocity":0.7637795275590551,"duration":0.22977929687499454},{"name":"C4","midi":60,"time":621.6467479999532,"velocity":0.7637795275590551,"duration":0.22977929687499454},{"name":"A3","midi":57,"time":621.8820419999531,"velocity":0.7637795275590551,"duration":0.22977929687499454},{"name":"G#3","midi":56,"time":622.1173359999531,"velocity":0.7637795275590551,"duration":0.22977929687499454},{"name":"B2","midi":47,"time":622.1173359999531,"velocity":0.7637795275590551,"duration":0.22977929687499454},{"name":"C3","midi":48,"time":622.352629999953,"velocity":0.7637795275590551,"duration":0.22977929687499454},{"name":"A3","midi":57,"time":622.352629999953,"velocity":0.7637795275590551,"duration":0.22977929687499454},{"name":"C#3","midi":49,"time":622.587923999953,"velocity":0.7637795275590551,"duration":0.9393377656248276},{"name":"G4","midi":67,"time":622.587923999953,"velocity":0.7637795275590551,"duration":0.22977929687499454},{"name":"E4","midi":64,"time":622.8232179999529,"velocity":0.7637795275590551,"duration":0.22977929687499454},{"name":"C#4","midi":61,"time":623.0585119999529,"velocity":0.7637795275590551,"duration":0.22977929687499454},{"name":"A3","midi":57,"time":623.2938059999528,"velocity":0.7637795275590551,"duration":0.22977929687499454},{"name":"G#3","midi":56,"time":623.5290999999528,"velocity":0.7637795275590551,"duration":0.22977929687499454},{"name":"B2","midi":47,"time":623.5290999999528,"velocity":0.7637795275590551,"duration":0.22977929687499454},{"name":"A3","midi":57,"time":623.7643939999527,"velocity":0.7637795275590551,"duration":0.22977929687499454},{"name":"C#3","midi":49,"time":623.7643939999527,"velocity":0.7637795275590551,"duration":0.22977929687499454},{"name":"D3","midi":50,"time":623.9996879999527,"velocity":0.7637795275590551,"duration":0.9393377656248276},{"name":"F4","midi":65,"time":623.9996879999527,"velocity":0.7637795275590551,"duration":0.22977929687499454},{"name":"D4","midi":62,"time":624.2349819999527,"velocity":0.7637795275590551,"duration":0.22977929687499454},{"name":"A#3","midi":58,"time":624.4702759999526,"velocity":0.7637795275590551,"duration":0.22977929687499454},{"name":"A3","midi":57,"time":624.7055699999526,"velocity":0.7637795275590551,"duration":0.22977929687499454},{"name":"C#4","midi":61,"time":624.9408639999525,"velocity":0.7637795275590551,"duration":0.22977929687499454},{"name":"E3","midi":52,"time":624.9408639999525,"velocity":0.7637795275590551,"duration":0.22977929687499454},{"name":"F3","midi":53,"time":625.1761579999525,"velocity":0.7637795275590551,"duration":0.22977929687499454},{"name":"D4","midi":62,"time":625.1761579999525,"velocity":0.7637795275590551,"duration":0.22977929687499454},{"name":"A#3","midi":58,"time":625.4114519999524,"velocity":0.7637795275590551,"duration":0.22977929687499454},{"name":"G2","midi":43,"time":625.4114519999524,"velocity":0.7637795275590551,"duration":0.34926453124990076},{"name":"G3","midi":55,"time":625.6467459999524,"velocity":0.7637795275590551,"duration":0.22977929687499454},{"name":"E3","midi":52,"time":625.8820399999523,"velocity":0.7637795275590551,"duration":0.22977929687499454},{"name":"A2","midi":45,"time":626.1173339999523,"velocity":0.7637795275590551,"duration":0.34926453124990076},{"name":"C#3","midi":49,"time":626.1173339999523,"velocity":0.7637795275590551,"duration":0.22977929687499454},{"name":"A3","midi":57,"time":626.3526279999522,"velocity":0.7637795275590551,"duration":0.22977929687499454},{"name":"G3","midi":55,"time":626.5879219999522,"velocity":0.7637795275590551,"duration":0.22977929687499454},{"name":"F3","midi":53,"time":626.8232159999521,"velocity":0.7637795275590551,"duration":0.22977929687499454},{"name":"D2","midi":38,"time":626.8232159999521,"velocity":0.7637795275590551,"duration":0.46874976562492066},{"name":"A3","midi":57,"time":627.0585099999521,"velocity":0.7637795275590551,"duration":0.22977929687499454},{"name":"F3","midi":53,"time":627.293803999952,"velocity":0.7637795275590551,"duration":0.22977929687499454},{"name":"D3","midi":50,"time":627.529097999952,"velocity":0.7637795275590551,"duration":0.22977929687499454},{"name":"A2","midi":45,"time":627.764391999952,"velocity":0.7637795275590551,"duration":0.22977929687499454},{"name":"C3","midi":48,"time":627.9996859999519,"velocity":0.7637795275590551,"duration":0.22977929687499454},{"name":"B2","midi":47,"time":628.2349799999519,"velocity":0.7637795275590551,"duration":1.4099257656247346},{"name":"F#3","midi":54,"time":628.4702739999518,"velocity":0.7637795275590551,"duration":0.22977929687499454},{"name":"G3","midi":55,"time":628.7055679999518,"velocity":0.7637795275590551,"duration":0.22977929687499454},{"name":"B3","midi":59,"time":628.9408619999517,"velocity":0.7637795275590551,"duration":0.22977929687499454},{"name":"D4","midi":62,"time":629.1761559999517,"velocity":0.7637795275590551,"duration":0.22977929687499454},{"name":"F3","midi":53,"time":629.4114499999516,"velocity":0.7637795275590551,"duration":0.22977929687499454},{"name":"E3","midi":52,"time":629.6467439999516,"velocity":0.7637795275590551,"duration":0.22977929687499454},{"name":"G3","midi":55,"time":629.8820379999515,"velocity":0.7637795275590551,"duration":0.22977929687499454},{"name":"E3","midi":52,"time":630.1173319999515,"velocity":0.7637795275590551,"duration":0.22977929687499454},{"name":"C3","midi":48,"time":630.3526259999514,"velocity":0.7637795275590551,"duration":0.22977929687499454},{"name":"G#2","midi":44,"time":630.5879199999514,"velocity":0.7637795275590551,"duration":0.22977929687499454},{"name":"B2","midi":47,"time":630.8232139999513,"velocity":0.7637795275590551,"duration":0.22977929687499454},{"name":"A2","midi":45,"time":631.0585079999513,"velocity":0.7637795275590551,"duration":1.4099257656247346},{"name":"E3","midi":52,"time":631.2938019999513,"velocity":0.7637795275590551,"duration":0.22977929687499454},{"name":"F3","midi":53,"time":631.5290959999512,"velocity":0.7637795275590551,"duration":0.22977929687499454},{"name":"A3","midi":57,"time":631.7643899999512,"velocity":0.7637795275590551,"duration":0.22977929687499454},{"name":"C4","midi":60,"time":631.9996839999511,"velocity":0.7637795275590551,"duration":0.22977929687499454},{"name":"E3","midi":52,"time":632.2349779999511,"velocity":0.7637795275590551,"duration":0.22977929687499454},{"name":"D3","midi":50,"time":632.470271999951,"velocity":0.7637795275590551,"duration":0.22977929687499454},{"name":"F3","midi":53,"time":632.705565999951,"velocity":0.7637795275590551,"duration":0.22977929687499454},{"name":"D3","midi":50,"time":632.9408599999509,"velocity":0.7637795275590551,"duration":0.22977929687499454},{"name":"B2","midi":47,"time":633.1761539999509,"velocity":0.7637795275590551,"duration":0.22977929687499454},{"name":"F#2","midi":42,"time":633.4114479999508,"velocity":0.7637795275590551,"duration":0.22977929687499454},{"name":"A2","midi":45,"time":633.6467419999508,"velocity":0.7637795275590551,"duration":0.22977929687499454},{"name":"G#2","midi":44,"time":633.8820359999507,"velocity":0.7637795275590551,"duration":0.9393377656248276},{"name":"D3","midi":50,"time":634.1173299999507,"velocity":0.7637795275590551,"duration":0.22977929687499454},{"name":"E3","midi":52,"time":634.3526239999507,"velocity":0.7637795275590551,"duration":0.22977929687499454},{"name":"G#3","midi":56,"time":634.5879179999506,"velocity":0.7637795275590551,"duration":0.22977929687499454},{"name":"E2","midi":40,"time":634.8232119999506,"velocity":0.7637795275590551,"duration":0.22977929687499454},{"name":"B3","midi":59,"time":634.8232119999506,"velocity":0.7637795275590551,"duration":0.22977929687499454},{"name":"G#2","midi":44,"time":635.0585059999505,"velocity":0.7637795275590551,"duration":0.22977929687499454},{"name":"D3","midi":50,"time":635.0585059999505,"velocity":0.7637795275590551,"duration":0.22977929687499454},{"name":"C3","midi":48,"time":635.2937999999505,"velocity":0.7637795275590551,"duration":0.22977929687499454},{"name":"A2","midi":45,"time":635.2937999999505,"velocity":0.7637795275590551,"duration":0.9393377656248276},{"name":"E3","midi":52,"time":635.5290939999504,"velocity":0.7637795275590551,"duration":0.22977929687499454},{"name":"F3","midi":53,"time":635.7643879999504,"velocity":0.7637795275590551,"duration":0.22977929687499454},{"name":"A3","midi":57,"time":635.9996819999503,"velocity":0.7637795275590551,"duration":0.22977929687499454},{"name":"F2","midi":41,"time":636.2349759999503,"velocity":0.7637795275590551,"duration":0.22977929687499454},{"name":"C4","midi":60,"time":636.2349759999503,"velocity":0.7637795275590551,"duration":0.22977929687499454},{"name":"A2","midi":45,"time":636.4702699999502,"velocity":0.7637795275590551,"duration":0.22977929687499454},{"name":"E3","midi":52,"time":636.4702699999502,"velocity":0.7637795275590551,"duration":0.22977929687499454},{"name":"D3","midi":50,"time":636.7055639999502,"velocity":0.7637795275590551,"duration":0.22977929687499454},{"name":"B2","midi":47,"time":636.7055639999502,"velocity":0.7637795275590551,"duration":0.9393377656248276},{"name":"F#3","midi":54,"time":636.9408579999501,"velocity":0.7637795275590551,"duration":0.22977929687499454},{"name":"G3","midi":55,"time":637.1761519999501,"velocity":0.7637795275590551,"duration":0.22977929687499454},{"name":"B3","midi":59,"time":637.41144599995,"velocity":0.7637795275590551,"duration":0.22977929687499454},{"name":"G2","midi":43,"time":637.64673999995,"velocity":0.7637795275590551,"duration":0.22977929687499454},{"name":"D4","midi":62,"time":637.64673999995,"velocity":0.7637795275590551,"duration":0.22977929687499454},{"name":"B2","midi":47,"time":637.88203399995,"velocity":0.7637795275590551,"duration":0.22977929687499454},{"name":"F3","midi":53,"time":637.88203399995,"velocity":0.7637795275590551,"duration":0.22977929687499454},{"name":"C3","midi":48,"time":638.1173279999499,"velocity":0.7637795275590551,"duration":0.9393377656248276},{"name":"E3","midi":52,"time":638.1173279999499,"velocity":0.7637795275590551,"duration":0.22977929687499454},{"name":"G#3","midi":56,"time":638.3526219999499,"velocity":0.7637795275590551,"duration":0.22977929687499454},{"name":"A3","midi":57,"time":638.5879159999498,"velocity":0.7637795275590551,"duration":0.22977929687499454},{"name":"C4","midi":60,"time":638.8232099999498,"velocity":0.7637795275590551,"duration":0.22977929687499454},{"name":"A2","midi":45,"time":639.0585039999497,"velocity":0.7637795275590551,"duration":0.22977929687499454},{"name":"E4","midi":64,"time":639.0585039999497,"velocity":0.7637795275590551,"duration":0.22977929687499454},{"name":"C#3","midi":49,"time":639.2937979999497,"velocity":0.7637795275590551,"duration":0.22977929687499454},{"name":"G3","midi":55,"time":639.2937979999497,"velocity":0.7637795275590551,"duration":0.22977929687499454},{"name":"D3","midi":50,"time":639.5290919999496,"velocity":0.7637795275590551,"duration":2.1139695312496087},{"name":"F3","midi":53,"time":639.5290919999496,"velocity":0.7637795275590551,"duration":0.22977929687499454},{"name":"A3","midi":57,"time":639.7643859999496,"velocity":0.7637795275590551,"duration":0.22977929687499454},{"name":"A#3","midi":58,"time":639.9996799999495,"velocity":0.7637795275590551,"duration":0.22977929687499454},{"name":"D4","midi":62,"time":640.2349739999495,"velocity":0.7637795275590551,"duration":0.22977929687499454},{"name":"F4","midi":65,"time":640.4702679999494,"velocity":0.7637795275590551,"duration":0.22977929687499454},{"name":"A3","midi":57,"time":640.7055619999494,"velocity":0.7637795275590551,"duration":0.22977929687499454},{"name":"B4","midi":71,"time":640.7055619999494,"velocity":0.7637795275590551,"duration":0.22977929687499454},{"name":"G#3","midi":56,"time":640.9408559999493,"velocity":0.7637795275590551,"duration":0.7003672968749015},{"name":"E5","midi":76,"time":640.9408559999493,"velocity":0.7637795275590551,"duration":0.22977929687499454},{"name":"B4","midi":71,"time":641.1761499999493,"velocity":0.7637795275590551,"duration":0.22977929687499454},{"name":"G#4","midi":68,"time":641.4114439999493,"velocity":0.7637795275590551,"duration":0.22977929687499454},{"name":"A3","midi":57,"time":641.6467379999492,"velocity":0.7637795275590551,"duration":1.4099257656247346},{"name":"C3","midi":48,"time":641.6467379999492,"velocity":0.7637795275590551,"duration":0.7003672968749015},{"name":"E4","midi":64,"time":641.6467379999492,"velocity":0.7637795275590551,"duration":0.22977929687499454},{"name":"D#4","midi":63,"time":641.8820319999492,"velocity":0.7637795275590551,"duration":0.22977929687499454},{"name":"E4","midi":64,"time":642.1173259999491,"velocity":0.7637795275590551,"duration":0.22977929687499454},{"name":"B2","midi":47,"time":642.3526199999491,"velocity":0.7637795275590551,"duration":0.7003672968749015},{"name":"D5","midi":74,"time":642.3526199999491,"velocity":0.7637795275590551,"duration":0.22977929687499454},{"name":"B4","midi":71,"time":642.587913999949,"velocity":0.7637795275590551,"duration":0.22977929687499454},{"name":"G#4","midi":68,"time":642.823207999949,"velocity":0.7637795275590551,"duration":0.22977929687499454},{"name":"G#3","midi":56,"time":643.0585019999489,"velocity":0.7637795275590551,"duration":0.7003672968749015},{"name":"E3","midi":52,"time":643.0585019999489,"velocity":0.7637795275590551,"duration":0.7003672968749015},{"name":"E4","midi":64,"time":643.0585019999489,"velocity":0.7637795275590551,"duration":0.22977929687499454},{"name":"D#4","midi":63,"time":643.2937959999489,"velocity":0.7637795275590551,"duration":0.22977929687499454},{"name":"E4","midi":64,"time":643.5290899999488,"velocity":0.7637795275590551,"duration":0.22977929687499454},{"name":"A3","midi":57,"time":643.7643839999488,"velocity":0.7637795275590551,"duration":0.7003672968749015},{"name":"A2","midi":45,"time":643.7643839999488,"velocity":0.7637795275590551,"duration":0.7003672968749015},{"name":"C5","midi":72,"time":643.7643839999488,"velocity":0.7637795275590551,"duration":0.22977929687499454},{"name":"A4","midi":69,"time":643.9996779999487,"velocity":0.7637795275590551,"duration":0.22977929687499454},{"name":"F4","midi":65,"time":644.2349719999487,"velocity":0.7637795275590551,"duration":0.22977929687499454},{"name":"C3","midi":48,"time":644.4702659999487,"velocity":0.7637795275590551,"duration":0.7003672968749015},{"name":"E4","midi":64,"time":644.4702659999487,"velocity":0.7637795275590551,"duration":0.22977929687499454},{"name":"G#4","midi":68,"time":644.7055599999486,"velocity":0.7637795275590551,"duration":0.22977929687499454},{"name":"A4","midi":69,"time":644.9408539999486,"velocity":0.7637795275590551,"duration":0.22977929687499454},{"name":"D3","midi":50,"time":645.1761479999485,"velocity":0.7637795275590551,"duration":0.7003672968749015},{"name":"F4","midi":65,"time":645.1761479999485,"velocity":0.7637795275590551,"duration":0.22977929687499454},{"name":"D4","midi":62,"time":645.4114419999485,"velocity":0.7637795275590551,"duration":0.22977929687499454},{"name":"B3","midi":59,"time":645.6467359999484,"velocity":0.7637795275590551,"duration":0.22977929687499454},{"name":"B3","midi":59,"time":645.8820299999484,"velocity":0.7637795275590551,"duration":0.9393377656248276},{"name":"E3","midi":52,"time":645.8820299999484,"velocity":0.7637795275590551,"duration":0.7003672968749015},{"name":"G#3","midi":56,"time":645.8820299999484,"velocity":0.7637795275590551,"duration":0.22977929687499454},{"name":"E4","midi":64,"time":646.1173239999483,"velocity":0.7637795275590551,"duration":0.22977929687499454},{"name":"D4","midi":62,"time":646.3526179999483,"velocity":0.7637795275590551,"duration":0.22977929687499454},{"name":"A2","midi":45,"time":646.5879119999482,"velocity":0.7637795275590551,"duration":0.6985290624999152},{"name":"C4","midi":60,"time":646.5879119999482,"velocity":0.7637795275590551,"duration":0.22977929687499454},{"name":"C3","midi":48,"time":646.8232059999482,"velocity":0.7637795275590551,"duration":0.22977929687499454},{"name":"E4","midi":64,"time":646.8232059999482,"velocity":0.7637795275590551,"duration":0.22977929687499454},{"name":"E3","midi":52,"time":647.0584999999481,"velocity":0.7637795275590551,"duration":0.22977929687499454},{"name":"A4","midi":69,"time":647.0584999999481,"velocity":0.7637795275590551,"duration":0.22977929687499454},{"name":"A3","midi":57,"time":647.2937939999481,"velocity":0.7637795275590551,"duration":0.22977929687499454},{"name":"C5","midi":72,"time":647.2937939999481,"velocity":0.7637795275590551,"duration":0.22977929687499454},{"name":"B3","midi":59,"time":647.529087999948,"velocity":0.7637795275590551,"duration":0.22977929687499454},{"name":"G#4","midi":68,"time":647.529087999948,"velocity":0.7637795275590551,"duration":0.22977929687499454},{"name":"C4","midi":60,"time":647.764381999948,"velocity":0.7637795275590551,"duration":0.22977929687499454},{"name":"A4","midi":69,"time":647.764381999948,"velocity":0.7637795275590551,"duration":0.22977929687499454},{"name":"D4","midi":62,"time":647.999675999948,"velocity":0.7637795275590551,"duration":0.22977929687499454},{"name":"C5","midi":72,"time":647.999675999948,"velocity":0.7637795275590551,"duration":0.22977929687499454},{"name":"A3","midi":57,"time":648.2349699999479,"velocity":0.7637795275590551,"duration":0.22977929687499454},{"name":"F#4","midi":66,"time":648.2349699999479,"velocity":0.7637795275590551,"duration":0.22977929687499454},{"name":"B3","midi":59,"time":648.4702639999479,"velocity":0.7637795275590551,"duration":0.22977929687499454},{"name":"G4","midi":67,"time":648.4702639999479,"velocity":0.7637795275590551,"duration":0.22977929687499454},{"name":"F#3","midi":54,"time":648.7055579999478,"velocity":0.7637795275590551,"duration":0.22977929687499454},{"name":"C5","midi":72,"time":648.7055579999478,"velocity":0.7637795275590551,"duration":0.22977929687499454},{"name":"G3","midi":55,"time":648.9408519999478,"velocity":0.7637795275590551,"duration":0.22977929687499454},{"name":"E4","midi":64,"time":648.9408519999478,"velocity":0.7637795275590551,"duration":0.22977929687499454},{"name":"A3","midi":57,"time":649.1761459999477,"velocity":0.7637795275590551,"duration":0.46874976562492066},{"name":"F#4","midi":66,"time":649.1761459999477,"velocity":0.7637795275590551,"duration":0.22977929687499454},{"name":"G2","midi":43,"time":649.4114399999477,"velocity":0.7637795275590551,"duration":0.6985290624999152},{"name":"B3","midi":59,"time":649.4114399999477,"velocity":0.7637795275590551,"duration":0.22977929687499454},{"name":"B2","midi":47,"time":649.6467339999476,"velocity":0.7637795275590551,"duration":0.22977929687499454},{"name":"D4","midi":62,"time":649.6467339999476,"velocity":0.7637795275590551,"duration":0.22977929687499454},{"name":"D3","midi":50,"time":649.8820279999476,"velocity":0.7637795275590551,"duration":0.22977929687499454},{"name":"G4","midi":67,"time":649.8820279999476,"velocity":0.7637795275590551,"duration":0.22977929687499454},{"name":"G3","midi":55,"time":650.1173219999475,"velocity":0.7637795275590551,"duration":0.22977929687499454},{"name":"B4","midi":71,"time":650.1173219999475,"velocity":0.7637795275590551,"duration":0.22977929687499454},{"name":"A3","midi":57,"time":650.3526159999475,"velocity":0.7637795275590551,"duration":0.22977929687499454},{"name":"F#4","midi":66,"time":650.3526159999475,"velocity":0.7637795275590551,"duration":0.22977929687499454},{"name":"B3","midi":59,"time":650.5879099999474,"velocity":0.7637795275590551,"duration":0.22977929687499454},{"name":"G4","midi":67,"time":650.5879099999474,"velocity":0.7637795275590551,"duration":0.22977929687499454},{"name":"C4","midi":60,"time":650.8232039999474,"velocity":0.7637795275590551,"duration":0.22977929687499454},{"name":"B4","midi":71,"time":650.8232039999474,"velocity":0.7637795275590551,"duration":0.22977929687499454},{"name":"G3","midi":55,"time":651.0584979999473,"velocity":0.7637795275590551,"duration":0.22977929687499454},{"name":"E4","midi":64,"time":651.0584979999473,"velocity":0.7637795275590551,"duration":0.22977929687499454},{"name":"A3","midi":57,"time":651.2937919999473,"velocity":0.7637795275590551,"duration":0.22977929687499454},{"name":"F#4","midi":66,"time":651.2937919999473,"velocity":0.7637795275590551,"duration":0.22977929687499454},{"name":"E3","midi":52,"time":651.5290859999473,"velocity":0.7637795275590551,"duration":0.22977929687499454},{"name":"B4","midi":71,"time":651.5290859999473,"velocity":0.7637795275590551,"duration":0.22977929687499454},{"name":"F#3","midi":54,"time":651.7643799999472,"velocity":0.7637795275590551,"duration":0.22977929687499454},{"name":"D#4","midi":63,"time":651.7643799999472,"velocity":0.7637795275590551,"duration":0.22977929687499454},{"name":"G3","midi":55,"time":651.9996739999472,"velocity":0.7637795275590551,"duration":0.46874976562492066},{"name":"E4","midi":64,"time":651.9996739999472,"velocity":0.7637795275590551,"duration":0.22977929687499454},{"name":"F#2","midi":42,"time":652.2349679999471,"velocity":0.7637795275590551,"duration":0.6985290624999152},{"name":"A3","midi":57,"time":652.2349679999471,"velocity":0.7637795275590551,"duration":0.22977929687499454},{"name":"A2","midi":45,"time":652.4702619999471,"velocity":0.7637795275590551,"duration":0.22977929687499454},{"name":"C4","midi":60,"time":652.4702619999471,"velocity":0.7637795275590551,"duration":0.22977929687499454},{"name":"C3","midi":48,"time":652.705555999947,"velocity":0.7637795275590551,"duration":0.22977929687499454},{"name":"E4","midi":64,"time":652.705555999947,"velocity":0.7637795275590551,"duration":0.22977929687499454},{"name":"F#3","midi":54,"time":652.940849999947,"velocity":0.7637795275590551,"duration":0.22977929687499454},{"name":"A4","midi":69,"time":652.940849999947,"velocity":0.7637795275590551,"duration":0.22977929687499454},{"name":"G3","midi":55,"time":653.1761439999469,"velocity":0.7637795275590551,"duration":0.22977929687499454},{"name":"E4","midi":64,"time":653.1761439999469,"velocity":0.7637795275590551,"duration":0.22977929687499454},{"name":"A3","midi":57,"time":653.4114379999469,"velocity":0.7637795275590551,"duration":0.22977929687499454},{"name":"F#4","midi":66,"time":653.4114379999469,"velocity":0.7637795275590551,"duration":0.22977929687499454},{"name":"B3","midi":59,"time":653.6467319999468,"velocity":0.7637795275590551,"duration":0.22977929687499454},{"name":"A4","midi":69,"time":653.6467319999468,"velocity":0.7637795275590551,"duration":0.22977929687499454},{"name":"F#3","midi":54,"time":653.8820259999468,"velocity":0.7637795275590551,"duration":0.22977929687499454},{"name":"D#4","midi":63,"time":653.8820259999468,"velocity":0.7637795275590551,"duration":0.22977929687499454},{"name":"G3","midi":55,"time":654.1173199999467,"velocity":0.7637795275590551,"duration":0.22977929687499454},{"name":"E4","midi":64,"time":654.1173199999467,"velocity":0.7637795275590551,"duration":0.22977929687499454},{"name":"D#3","midi":51,"time":654.3526139999467,"velocity":0.7637795275590551,"duration":0.22977929687499454},{"name":"A4","midi":69,"time":654.3526139999467,"velocity":0.7637795275590551,"duration":0.22977929687499454},{"name":"E3","midi":52,"time":654.5879079999467,"velocity":0.7637795275590551,"duration":0.22977929687499454},{"name":"C#4","midi":61,"time":654.5879079999467,"velocity":0.7637795275590551,"duration":0.22977929687499454},{"name":"F#3","midi":54,"time":654.8232019999466,"velocity":0.7637795275590551,"duration":0.22977929687499454},{"name":"D#4","midi":63,"time":654.8232019999466,"velocity":0.7637795275590551,"duration":0.22977929687499454},{"name":"E2","midi":40,"time":655.0584959999466,"velocity":0.7637795275590551,"duration":0.23345576562496717},{"name":"G4","midi":67,"time":655.0584959999466,"velocity":0.7637795275590551,"duration":0.6985290624999152},{"name":"G2","midi":43,"time":655.2937899999465,"velocity":0.7637795275590551,"duration":0.22977929687499454},{"name":"E4","midi":64,"time":655.2937899999465,"velocity":0.7637795275590551,"duration":0.22977929687499454},{"name":"B2","midi":47,"time":655.5290839999465,"velocity":0.7637795275590551,"duration":0.22977929687499454},{"name":"B3","midi":59,"time":655.5290839999465,"velocity":0.7637795275590551,"duration":0.22977929687499454},{"name":"E3","midi":52,"time":655.7643779999464,"velocity":0.7637795275590551,"duration":0.22977929687499454},{"name":"G3","midi":55,"time":655.7643779999464,"velocity":0.7637795275590551,"duration":0.22977929687499454},{"name":"D#3","midi":51,"time":655.9996719999464,"velocity":0.7637795275590551,"duration":0.22977929687499454},{"name":"F#3","midi":54,"time":655.9996719999464,"velocity":0.7637795275590551,"duration":0.22977929687499454},{"name":"E3","midi":52,"time":656.2349659999463,"velocity":0.7637795275590551,"duration":0.22977929687499454},{"name":"G3","midi":55,"time":656.2349659999463,"velocity":0.7637795275590551,"duration":0.22977929687499454},{"name":"A2","midi":45,"time":656.4702599999463,"velocity":0.7637795275590551,"duration":0.22977929687499454},{"name":"G4","midi":67,"time":656.4702599999463,"velocity":0.7637795275590551,"duration":0.6985290624999152},{"name":"C#3","midi":49,"time":656.7055539999462,"velocity":0.7637795275590551,"duration":0.22977929687499454},{"name":"E4","midi":64,"time":656.7055539999462,"velocity":0.7637795275590551,"duration":0.22977929687499454},{"name":"E3","midi":52,"time":656.9408479999462,"velocity":0.7637795275590551,"duration":0.22977929687499454},{"name":"D4","midi":62,"time":656.9408479999462,"velocity":0.7637795275590551,"duration":0.22977929687499454},{"name":"A3","midi":57,"time":657.1761419999461,"velocity":0.7637795275590551,"duration":0.22977929687499454},{"name":"C#4","midi":61,"time":657.1761419999461,"velocity":0.7637795275590551,"duration":0.22977929687499454},{"name":"G#3","midi":56,"time":657.4114359999461,"velocity":0.7637795275590551,"duration":0.22977929687499454},{"name":"B3","midi":59,"time":657.4114359999461,"velocity":0.7637795275590551,"duration":0.22977929687499454},{"name":"A3","midi":57,"time":657.646729999946,"velocity":0.7637795275590551,"duration":0.22977929687499454},{"name":"C#4","midi":61,"time":657.646729999946,"velocity":0.7637795275590551,"duration":0.22977929687499454},{"name":"D2","midi":38,"time":657.882023999946,"velocity":0.7637795275590551,"duration":0.22977929687499454},{"name":"F#4","midi":66,"time":657.882023999946,"velocity":0.7637795275590551,"duration":0.6985290624999152},{"name":"F#2","midi":42,"time":658.117317999946,"velocity":0.7637795275590551,"duration":0.22977929687499454},{"name":"D4","midi":62,"time":658.117317999946,"velocity":0.7637795275590551,"duration":0.22977929687499454},{"name":"A2","midi":45,"time":658.3526119999459,"velocity":0.7637795275590551,"duration":0.22977929687499454},{"name":"A3","midi":57,"time":658.3526119999459,"velocity":0.7637795275590551,"duration":0.22977929687499454},{"name":"D3","midi":50,"time":658.5879059999459,"velocity":0.7637795275590551,"duration":0.22977929687499454},{"name":"F#3","midi":54,"time":658.5879059999459,"velocity":0.7637795275590551,"duration":0.22977929687499454},{"name":"C#3","midi":49,"time":658.8231999999458,"velocity":0.7637795275590551,"duration":0.22977929687499454},{"name":"F3","midi":53,"time":658.8231999999458,"velocity":0.7637795275590551,"duration":0.22977929687499454},{"name":"D3","midi":50,"time":659.0584939999458,"velocity":0.7637795275590551,"duration":0.22977929687499454},{"name":"F#3","midi":54,"time":659.0584939999458,"velocity":0.7637795275590551,"duration":0.22977929687499454},{"name":"G2","midi":43,"time":659.2937879999457,"velocity":0.7637795275590551,"duration":0.22977929687499454},{"name":"F#4","midi":66,"time":659.2937879999457,"velocity":0.7637795275590551,"duration":0.6985290624999152},{"name":"B2","midi":47,"time":659.5290819999457,"velocity":0.7637795275590551,"duration":0.22977929687499454},{"name":"D4","midi":62,"time":659.5290819999457,"velocity":0.7637795275590551,"duration":0.22977929687499454},{"name":"D3","midi":50,"time":659.7643759999456,"velocity":0.7637795275590551,"duration":0.22977929687499454},{"name":"C#4","midi":61,"time":659.7643759999456,"velocity":0.7637795275590551,"duration":0.22977929687499454},{"name":"G3","midi":55,"time":659.9996699999456,"velocity":0.7637795275590551,"duration":0.22977929687499454},{"name":"B3","midi":59,"time":659.9996699999456,"velocity":0.7637795275590551,"duration":0.22977929687499454},{"name":"F#3","midi":54,"time":660.2349639999455,"velocity":0.7637795275590551,"duration":0.22977929687499454},{"name":"A#3","midi":58,"time":660.2349639999455,"velocity":0.7637795275590551,"duration":0.22977929687499454},{"name":"G3","midi":55,"time":660.4702579999455,"velocity":0.7637795275590551,"duration":0.22977929687499454},{"name":"B3","midi":59,"time":660.4702579999455,"velocity":0.7637795275590551,"duration":0.22977929687499454},{"name":"C#2","midi":37,"time":660.7055519999454,"velocity":0.7637795275590551,"duration":0.22977929687499454},{"name":"E4","midi":64,"time":660.7055519999454,"velocity":0.7637795275590551,"duration":0.6985290624999152},{"name":"E2","midi":40,"time":660.9408459999454,"velocity":0.7637795275590551,"duration":0.22977929687499454},{"name":"C#4","midi":61,"time":660.9408459999454,"velocity":0.7637795275590551,"duration":0.22977929687499454},{"name":"G2","midi":43,"time":661.1761399999453,"velocity":0.7637795275590551,"duration":0.22977929687499454},{"name":"A#3","midi":58,"time":661.1761399999453,"velocity":0.7637795275590551,"duration":0.22977929687499454},{"name":"C#3","midi":49,"time":661.4114339999453,"velocity":0.7637795275590551,"duration":0.22977929687499454},{"name":"E3","midi":52,"time":661.4114339999453,"velocity":0.7637795275590551,"duration":0.22977929687499454},{"name":"B2","midi":47,"time":661.6467279999453,"velocity":0.7637795275590551,"duration":0.22977929687499454},{"name":"D#3","midi":51,"time":661.6467279999453,"velocity":0.7637795275590551,"duration":0.22977929687499454},{"name":"C#3","midi":49,"time":661.8820219999452,"velocity":0.7637795275590551,"duration":0.22977929687499454},{"name":"E3","midi":52,"time":661.8820219999452,"velocity":0.7637795275590551,"duration":0.22977929687499454},{"name":"F#2","midi":42,"time":662.1173159999452,"velocity":0.7637795275590551,"duration":0.22977929687499454},{"name":"E4","midi":64,"time":662.1173159999452,"velocity":0.7637795275590551,"duration":0.23529399999995348},{"name":"G#2","midi":44,"time":662.3526099999451,"velocity":0.7637795275590551,"duration":0.22977929687499454},{"name":"C#4","midi":61,"time":662.3526099999451,"velocity":0.7637795275590551,"duration":0.22977929687499454},{"name":"C#3","midi":49,"time":662.5879039999451,"velocity":0.7637795275590551,"duration":0.22977929687499454},{"name":"B3","midi":59,"time":662.5879039999451,"velocity":0.7637795275590551,"duration":0.22977929687499454},{"name":"F#3","midi":54,"time":662.823197999945,"velocity":0.7637795275590551,"duration":0.22977929687499454},{"name":"A#3","midi":58,"time":662.823197999945,"velocity":0.7637795275590551,"duration":0.22977929687499454},{"name":"E3","midi":52,"time":663.058491999945,"velocity":0.7637795275590551,"duration":0.22977929687499454},{"name":"G#3","midi":56,"time":663.058491999945,"velocity":0.7637795275590551,"duration":0.22977929687499454},{"name":"A#3","midi":58,"time":663.2937859999449,"velocity":0.7637795275590551,"duration":0.22977929687499454},{"name":"F#3","midi":54,"time":663.2937859999449,"velocity":0.7637795275590551,"duration":0.22977929687499454},{"name":"F#5","midi":78,"time":663.2937859999449,"velocity":0.7637795275590551,"duration":0.22977929687499454},{"name":"F#3","midi":54,"time":663.5290799999449,"velocity":0.7637795275590551,"duration":0.6985290624999152},{"name":"D3","midi":50,"time":663.5290799999449,"velocity":0.7637795275590551,"duration":0.935661296874855},{"name":"B5","midi":83,"time":663.5290799999449,"velocity":0.7637795275590551,"duration":0.22977929687499454},{"name":"F#5","midi":78,"time":663.7643739999448,"velocity":0.7637795275590551,"duration":0.22977929687499454},{"name":"D5","midi":74,"time":663.9996679999448,"velocity":0.7637795275590551,"duration":0.22977929687499454},{"name":"B4","midi":71,"time":664.2349619999447,"velocity":0.7637795275590551,"duration":0.22977929687499454},{"name":"C#3","midi":49,"time":664.4702559999447,"velocity":0.7637795275590551,"duration":0.22977929687499454},{"name":"A#4","midi":70,"time":664.4702559999447,"velocity":0.7637795275590551,"duration":0.22977929687499454},{"name":"D3","midi":50,"time":664.7055499999447,"velocity":0.7637795275590551,"duration":0.22977929687499454},{"name":"B4","midi":71,"time":664.7055499999447,"velocity":0.7637795275590551,"duration":0.22977929687499454},{"name":"B3","midi":59,"time":664.9408439999446,"velocity":0.7637795275590551,"duration":0.6985290624999152},{"name":"D#3","midi":51,"time":664.9408439999446,"velocity":0.7637795275590551,"duration":0.935661296874855},{"name":"A5","midi":81,"time":664.9408439999446,"velocity":0.7637795275590551,"duration":0.22977929687499454},{"name":"F#5","midi":78,"time":665.1761379999446,"velocity":0.7637795275590551,"duration":0.22977929687499454},{"name":"D#5","midi":75,"time":665.4114319999445,"velocity":0.7637795275590551,"duration":0.22977929687499454},{"name":"B4","midi":71,"time":665.6467259999445,"velocity":0.7637795275590551,"duration":0.22977929687499454},{"name":"C#3","midi":49,"time":665.8820199999444,"velocity":0.7637795275590551,"duration":0.22977929687499454},{"name":"A#4","midi":70,"time":665.8820199999444,"velocity":0.7637795275590551,"duration":0.22977929687499454},{"name":"D#3","midi":51,"time":666.1173139999444,"velocity":0.7637795275590551,"duration":0.22977929687499454},{"name":"B4","midi":71,"time":666.1173139999444,"velocity":0.7637795275590551,"duration":0.22977929687499454},{"name":"B3","midi":59,"time":666.3526079999443,"velocity":0.7637795275590551,"duration":0.6985290624999152},{"name":"E3","midi":52,"time":666.3526079999443,"velocity":0.7637795275590551,"duration":0.935661296874855},{"name":"G5","midi":79,"time":666.3526079999443,"velocity":0.7637795275590551,"duration":0.22977929687499454},{"name":"E5","midi":76,"time":666.5879019999443,"velocity":0.7637795275590551,"duration":0.22977929687499454},{"name":"C5","midi":72,"time":666.8231959999442,"velocity":0.7637795275590551,"duration":0.22977929687499454},{"name":"B4","midi":71,"time":667.0584899999442,"velocity":0.7637795275590551,"duration":0.22977929687499454},{"name":"F#3","midi":54,"time":667.2937839999441,"velocity":0.7637795275590551,"duration":0.22977929687499454},{"name":"D#5","midi":75,"time":667.2937839999441,"velocity":0.7637795275590551,"duration":0.22977929687499454},{"name":"G3","midi":55,"time":667.5290779999441,"velocity":0.7637795275590551,"duration":0.22977929687499454},{"name":"E5","midi":76,"time":667.5290779999441,"velocity":0.7637795275590551,"duration":0.22977929687499454},{"name":"A3","midi":57,"time":667.764371999944,"velocity":0.7637795275590551,"duration":0.23529399999995348},{"name":"C5","midi":72,"time":667.764371999944,"velocity":0.7637795275590551,"duration":0.22977929687499454},{"name":"A4","midi":69,"time":667.999665999944,"velocity":0.7637795275590551,"duration":0.22977929687499454},{"name":"F#4","midi":66,"time":668.234959999944,"velocity":0.7637795275590551,"duration":0.22977929687499454},{"name":"B3","midi":59,"time":668.4702539999439,"velocity":0.7637795275590551,"duration":0.23529399999995348},{"name":"D#4","midi":63,"time":668.4702539999439,"velocity":0.7637795275590551,"duration":0.22977929687499454},{"name":"B4","midi":71,"time":668.7055479999439,"velocity":0.7637795275590551,"duration":0.22977929687499454},{"name":"B4","midi":71,"time":668.9408419999438,"velocity":0.7637795275590551,"duration":0.22977929687499454},{"name":"A4","midi":69,"time":668.9408419999438,"velocity":0.7637795275590551,"duration":0.22977929687499454},{"name":"E3","midi":52,"time":669.1761359999438,"velocity":0.7637795275590551,"duration":0.23529399999995348},{"name":"E5","midi":76,"time":669.1761359999438,"velocity":0.7637795275590551,"duration":0.22977929687499454},{"name":"G4","midi":67,"time":669.1761359999438,"velocity":0.7637795275590551,"duration":0.46874976562492066},{"name":"B4","midi":71,"time":669.4114299999437,"velocity":0.7637795275590551,"duration":0.22977929687499454},{"name":"G4","midi":67,"time":669.6467239999437,"velocity":0.7637795275590551,"duration":0.22977929687499454},{"name":"E4","midi":64,"time":669.8820179999436,"velocity":0.7637795275590551,"duration":0.22977929687499454},{"name":"D#4","midi":63,"time":670.1173119999436,"velocity":0.7637795275590551,"duration":0.22977929687499454},{"name":"F#5","midi":78,"time":670.1173119999436,"velocity":0.7637795275590551,"duration":0.22977929687499454},{"name":"E4","midi":64,"time":670.3526059999435,"velocity":0.7637795275590551,"duration":0.22977929687499454},{"name":"G5","midi":79,"time":670.3526059999435,"velocity":0.7637795275590551,"duration":0.22977929687499454},{"name":"D5","midi":74,"time":670.5878999999435,"velocity":0.7637795275590551,"duration":0.22977929687499454},{"name":"G#5","midi":80,"time":670.5878999999435,"velocity":0.7637795275590551,"duration":0.9393377656248276},{"name":"B4","midi":71,"time":670.8231939999434,"velocity":0.7637795275590551,"duration":0.22977929687499454},{"name":"G#4","midi":68,"time":671.0584879999434,"velocity":0.7637795275590551,"duration":0.22977929687499454},{"name":"E4","midi":64,"time":671.2937819999433,"velocity":0.7637795275590551,"duration":0.22977929687499454},{"name":"D#4","midi":63,"time":671.5290759999433,"velocity":0.7637795275590551,"duration":0.22977929687499454},{"name":"F#5","midi":78,"time":671.5290759999433,"velocity":0.7637795275590551,"duration":0.22977929687499454},{"name":"E4","midi":64,"time":671.7643699999433,"velocity":0.7637795275590551,"duration":0.22977929687499454},{"name":"G#5","midi":80,"time":671.7643699999433,"velocity":0.7637795275590551,"duration":0.22977929687499454},{"name":"C5","midi":72,"time":671.9996639999432,"velocity":0.7637795275590551,"duration":0.22977929687499454},{"name":"A5","midi":81,"time":671.9996639999432,"velocity":0.7637795275590551,"duration":0.935661296874855},{"name":"A4","midi":69,"time":672.2349579999432,"velocity":0.7637795275590551,"duration":0.22977929687499454},{"name":"F4","midi":65,"time":672.4702519999431,"velocity":0.7637795275590551,"duration":0.22977929687499454},{"name":"E4","midi":64,"time":672.7055459999431,"velocity":0.7637795275590551,"duration":0.22977929687499454},{"name":"G#4","midi":68,"time":672.940839999943,"velocity":0.7637795275590551,"duration":0.22977929687499454},{"name":"B5","midi":83,"time":672.940839999943,"velocity":0.7637795275590551,"duration":0.22977929687499454},{"name":"A4","midi":69,"time":673.176133999943,"velocity":0.7637795275590551,"duration":0.22977929687499454},{"name":"C6","midi":84,"time":673.176133999943,"velocity":0.7637795275590551,"duration":0.22977929687499454},{"name":"F4","midi":65,"time":673.4114279999429,"velocity":0.7637795275590551,"duration":0.22977929687499454},{"name":"D5","midi":74,"time":673.4114279999429,"velocity":0.7637795275590551,"duration":0.46507329687494803},{"name":"D4","midi":62,"time":673.6467219999429,"velocity":0.7637795275590551,"duration":0.22977929687499454},{"name":"B3","midi":59,"time":673.8820159999428,"velocity":0.7637795275590551,"duration":0.22977929687499454},{"name":"F5","midi":77,"time":673.8820159999428,"velocity":0.7637795275590551,"duration":0.22977929687499454},{"name":"G#3","midi":56,"time":674.1173099999428,"velocity":0.7637795275590551,"duration":0.22977929687499454},{"name":"B4","midi":71,"time":674.1173099999428,"velocity":0.7637795275590551,"duration":0.46507329687494803},{"name":"E4","midi":64,"time":674.3526039999427,"velocity":0.7637795275590551,"duration":0.22977929687499454},{"name":"E4","midi":64,"time":674.5878979999427,"velocity":0.7637795275590551,"duration":0.22977929687499454},{"name":"D4","midi":62,"time":674.5878979999427,"velocity":0.7637795275590551,"duration":0.22977929687499454},{"name":"G#5","midi":80,"time":674.5878979999427,"velocity":0.7637795275590551,"duration":0.22977929687499454},{"name":"A4","midi":69,"time":674.8231919999427,"velocity":0.7637795275590551,"duration":0.22977929687499454},{"name":"C4","midi":60,"time":674.8231919999427,"velocity":0.7637795275590551,"duration":0.46874976562492066},{"name":"A5","midi":81,"time":674.8231919999427,"velocity":0.7637795275590551,"duration":2.1139695312496087},{"name":"E4","midi":64,"time":675.0584859999426,"velocity":0.7637795275590551,"duration":0.22977929687499454},{"name":"C4","midi":60,"time":675.2937799999426,"velocity":0.7637795275590551,"duration":0.22977929687499454},{"name":"A3","midi":57,"time":675.5290739999425,"velocity":0.7637795275590551,"duration":0.22977929687499454},{"name":"G#3","midi":56,"time":675.7643679999425,"velocity":0.7637795275590551,"duration":0.22977929687499454},{"name":"B4","midi":71,"time":675.7643679999425,"velocity":0.7637795275590551,"duration":0.22977929687499454},{"name":"A3","midi":57,"time":675.9996619999424,"velocity":0.7637795275590551,"duration":0.22977929687499454},{"name":"C5","midi":72,"time":675.9996619999424,"velocity":0.7637795275590551,"duration":0.22977929687499454},{"name":"G4","midi":67,"time":676.2349559999424,"velocity":0.7637795275590551,"duration":0.22977929687499454},{"name":"C#5","midi":73,"time":676.2349559999424,"velocity":0.7637795275590551,"duration":0.935661296874855},{"name":"E4","midi":64,"time":676.4702499999423,"velocity":0.7637795275590551,"duration":0.22977929687499454},{"name":"C#4","midi":61,"time":676.7055439999423,"velocity":0.7637795275590551,"duration":0.22977929687499454},{"name":"A3","midi":57,"time":676.9408379999422,"velocity":0.7637795275590551,"duration":0.22977929687499454},{"name":"G#3","midi":56,"time":677.1761319999422,"velocity":0.7637795275590551,"duration":0.22977929687499454},{"name":"B4","midi":71,"time":677.1761319999422,"velocity":0.7637795275590551,"duration":0.22977929687499454},{"name":"A3","midi":57,"time":677.4114259999421,"velocity":0.7637795275590551,"duration":0.22977929687499454},{"name":"C#5","midi":73,"time":677.4114259999421,"velocity":0.7637795275590551,"duration":0.22977929687499454},{"name":"F4","midi":65,"time":677.6467199999421,"velocity":0.7637795275590551,"duration":0.22977929687499454},{"name":"D5","midi":74,"time":677.6467199999421,"velocity":0.7637795275590551,"duration":0.935661296874855},{"name":"D4","midi":62,"time":677.882013999942,"velocity":0.7637795275590551,"duration":0.22977929687499454},{"name":"A#3","midi":58,"time":678.117307999942,"velocity":0.7637795275590551,"duration":0.22977929687499454},{"name":"A3","midi":57,"time":678.352601999942,"velocity":0.7637795275590551,"duration":0.22977929687499454},{"name":"C#4","midi":61,"time":678.5878959999419,"velocity":0.7637795275590551,"duration":0.22977929687499454},{"name":"E5","midi":76,"time":678.5878959999419,"velocity":0.7637795275590551,"duration":0.22977929687499454},{"name":"D4","midi":62,"time":678.8231899999419,"velocity":0.7637795275590551,"duration":0.22977929687499454},{"name":"F5","midi":77,"time":678.8231899999419,"velocity":0.7637795275590551,"duration":0.22977929687499454},{"name":"A#3","midi":58,"time":679.0584839999418,"velocity":0.7637795275590551,"duration":0.22977929687499454},{"name":"G5","midi":79,"time":679.0584839999418,"velocity":0.7637795275590551,"duration":2.1139695312496087},{"name":"E5","midi":76,"time":679.0584839999418,"velocity":0.7637795275590551,"duration":0.935661296874855},{"name":"G3","midi":55,"time":679.2937779999418,"velocity":0.7637795275590551,"duration":0.22977929687499454},{"name":"E3","midi":52,"time":679.5290719999417,"velocity":0.7637795275590551,"duration":0.22977929687499454},{"name":"C#3","midi":49,"time":679.7643659999417,"velocity":0.7637795275590551,"duration":0.22977929687499454},{"name":"A3","midi":57,"time":679.9996599999416,"velocity":0.7637795275590551,"duration":0.22977929687499454},{"name":"C#5","midi":73,"time":679.9996599999416,"velocity":0.7637795275590551,"duration":0.22977929687499454},{"name":"G3","midi":55,"time":680.2349539999416,"velocity":0.7637795275590551,"duration":0.22977929687499454},{"name":"E5","midi":76,"time":680.2349539999416,"velocity":0.7637795275590551,"duration":0.22977929687499454},{"name":"F3","midi":53,"time":680.4702479999415,"velocity":0.7637795275590551,"duration":0.22977929687499454},{"name":"A4","midi":69,"time":680.4702479999415,"velocity":0.7637795275590551,"duration":1.1727935312497948},{"name":"A3","midi":57,"time":680.7055419999415,"velocity":0.7637795275590551,"duration":0.22977929687499454},{"name":"C#4","midi":61,"time":680.9408359999414,"velocity":0.7637795275590551,"duration":0.22977929687499454},{"name":"E5","midi":76,"time":680.9408359999414,"velocity":0.7637795275590551,"duration":0.22977929687499454},{"name":"D4","midi":62,"time":681.1761299999414,"velocity":0.7637795275590551,"duration":0.22977929687499454},{"name":"F5","midi":77,"time":681.1761299999414,"velocity":0.7637795275590551,"duration":1.1617641249997632},{"name":"A3","midi":57,"time":681.4114239999413,"velocity":0.7637795275590551,"duration":0.22977929687499454},{"name":"F3","midi":53,"time":681.6467179999413,"velocity":0.7637795275590551,"duration":0.22977929687499454},{"name":"C#5","midi":73,"time":681.6467179999413,"velocity":0.7637795275590551,"duration":0.22977929687499454},{"name":"D3","midi":50,"time":681.8820119999413,"velocity":0.7637795275590551,"duration":0.22977929687499454},{"name":"D5","midi":74,"time":681.8820119999413,"velocity":0.7637795275590551,"duration":1.1617641249997632},{"name":"F3","midi":53,"time":682.1173059999412,"velocity":0.7637795275590551,"duration":0.22977929687499454},{"name":"G#3","midi":56,"time":682.3525999999412,"velocity":0.7637795275590551,"duration":0.22977929687499454},{"name":"E5","midi":76,"time":682.3525999999412,"velocity":0.7637795275590551,"duration":0.22977929687499454},{"name":"A3","midi":57,"time":682.5878939999411,"velocity":0.7637795275590551,"duration":0.22977929687499454},{"name":"F5","midi":77,"time":682.5878939999411,"velocity":0.7637795275590551,"duration":1.1617641249997632},{"name":"F3","midi":53,"time":682.8231879999411,"velocity":0.7637795275590551,"duration":0.22977929687499454},{"name":"D3","midi":50,"time":683.058481999941,"velocity":0.7637795275590551,"duration":0.22977929687499454},{"name":"A4","midi":69,"time":683.058481999941,"velocity":0.7637795275590551,"duration":0.22977929687499454},{"name":"B2","midi":47,"time":683.293775999941,"velocity":0.7637795275590551,"duration":0.22977929687499454},{"name":"D5","midi":74,"time":683.293775999941,"velocity":0.7637795275590551,"duration":0.46507329687494803},{"name":"D3","midi":50,"time":683.5290699999409,"velocity":0.7637795275590551,"duration":0.22977929687499454},{"name":"G#3","midi":56,"time":683.7643639999409,"velocity":0.7637795275590551,"duration":0.22977929687499454},{"name":"D5","midi":74,"time":683.7643639999409,"velocity":0.7637795275590551,"duration":0.22977929687499454},{"name":"B5","midi":83,"time":683.7643639999409,"velocity":0.7637795275590551,"duration":0.22977929687499454},{"name":"A2","midi":45,"time":683.9996579999408,"velocity":0.7637795275590551,"duration":0.22977929687499454},{"name":"D5","midi":74,"time":683.9996579999408,"velocity":0.7637795275590551,"duration":0.46507329687494803},{"name":"B5","midi":83,"time":683.9996579999408,"velocity":0.7637795275590551,"duration":0.46507329687494803},{"name":"D3","midi":50,"time":684.2349519999408,"velocity":0.7637795275590551,"duration":0.22977929687499454},{"name":"F3","midi":53,"time":684.4702459999407,"velocity":0.7637795275590551,"duration":0.22977929687499454},{"name":"B4","midi":71,"time":684.4702459999407,"velocity":0.7637795275590551,"duration":0.22977929687499454},{"name":"D5","midi":74,"time":684.4702459999407,"velocity":0.7637795275590551,"duration":0.22977929687499454},{"name":"G#2","midi":44,"time":684.7055399999407,"velocity":0.7637795275590551,"duration":0.22977929687499454},{"name":"D5","midi":74,"time":684.7055399999407,"velocity":0.7637795275590551,"duration":0.46507329687494803},{"name":"B4","midi":71,"time":684.7055399999407,"velocity":0.7637795275590551,"duration":0.46507329687494803},{"name":"B2","midi":47,"time":684.9408339999407,"velocity":0.7637795275590551,"duration":0.22977929687499454},{"name":"D3","midi":50,"time":685.1761279999406,"velocity":0.7637795275590551,"duration":0.22977929687499454},{"name":"B4","midi":71,"time":685.1761279999406,"velocity":0.7637795275590551,"duration":0.22977929687499454},{"name":"G#4","midi":68,"time":685.1761279999406,"velocity":0.7637795275590551,"duration":0.22977929687499454},{"name":"F3","midi":53,"time":685.4114219999406,"velocity":0.7637795275590551,"duration":0.22977929687499454},{"name":"G#4","midi":68,"time":685.4114219999406,"velocity":0.7637795275590551,"duration":0.46507329687494803},{"name":"B4","midi":71,"time":685.4114219999406,"velocity":0.7637795275590551,"duration":0.46507329687494803},{"name":"E3","midi":52,"time":685.6467159999405,"velocity":0.7637795275590551,"duration":0.22977929687499454},{"name":"D3","midi":50,"time":685.8820099999405,"velocity":0.7637795275590551,"duration":0.22977929687499454},{"name":"E5","midi":76,"time":685.8820099999405,"velocity":0.7637795275590551,"duration":0.22977929687499454},{"name":"G#4","midi":68,"time":685.8820099999405,"velocity":0.7637795275590551,"duration":0.22977929687499454},{"name":"C3","midi":48,"time":686.1173039999404,"velocity":0.7637795275590551,"duration":0.22977929687499454},{"name":"E5","midi":76,"time":686.1173039999404,"velocity":0.7637795275590551,"duration":0.22977929687499454},{"name":"A4","midi":69,"time":686.1173039999404,"velocity":0.7637795275590551,"duration":1.1617641249997632},{"name":"B2","midi":47,"time":686.3525979999404,"velocity":0.7637795275590551,"duration":0.22977929687499454},{"name":"D5","midi":74,"time":686.3525979999404,"velocity":0.7637795275590551,"duration":0.22977929687499454},{"name":"A2","midi":45,"time":686.5878919999403,"velocity":0.7637795275590551,"duration":0.22977929687499454},{"name":"C5","midi":72,"time":686.5878919999403,"velocity":0.7637795275590551,"duration":0.22977929687499454},{"name":"E3","midi":52,"time":686.8231859999403,"velocity":0.7637795275590551,"duration":0.46507329687494803},{"name":"D5","midi":74,"time":686.8231859999403,"velocity":0.7637795275590551,"duration":0.22977929687499454},{"name":"C5","midi":72,"time":687.0584799999402,"velocity":0.7637795275590551,"duration":0.22977929687499454},{"name":"E2","midi":40,"time":687.2937739999402,"velocity":0.7637795275590551,"duration":0.22977929687499454},{"name":"B4","midi":71,"time":687.2937739999402,"velocity":0.7637795275590551,"duration":0.22977929687499454},{"name":"G#4","midi":68,"time":687.2937739999402,"velocity":0.7637795275590551,"duration":0.22977929687499454},{"name":"A2","midi":45,"time":687.5290679999401,"velocity":0.7637795275590551,"duration":0.22977929687499454},{"name":"A4","midi":69,"time":687.5290679999401,"velocity":0.7637795275590551,"duration":0.7536760937501867},{"name":"F4","midi":65,"time":687.6614208749402,"velocity":0.7637795275590551,"duration":0.12132346875000621},{"name":"E4","midi":64,"time":687.7937737499402,"velocity":0.7637795275590551,"duration":0.12132346875000621},{"name":"C#3","midi":49,"time":687.7937737499402,"velocity":0.7637795275590551,"duration":0.22977929687499454},{"name":"D4","midi":62,"time":687.9261266249403,"velocity":0.7637795275590551,"duration":0.12132346875000621},{"name":"C#4","midi":61,"time":688.0584794999403,"velocity":0.7637795275590551,"duration":0.12132346875000621},{"name":"E3","midi":52,"time":688.0584794999403,"velocity":0.7637795275590551,"duration":0.22977929687499454},{"name":"B3","midi":59,"time":688.1981853124403,"velocity":0.7637795275590551,"duration":0.12132346875000621},{"name":"A3","midi":57,"time":688.3525969999403,"velocity":0.7637795275590551,"duration":2.702204531250004}],"controlChanges":{"7":[{"number":7,"time":0,"value":0.7874015748031497}]},"id":1,"name":"Harpsichord","instrumentNumber":7,"instrument":"clavi","instrumentFamily":"piano","channelNumber":0,"isPercussion":false}]}