{"header":{"PPQ":384,"timeSignature":[2,4],"bpm":120,"name":"--------"},"startTime":0,"duration":713.8854166666678,"tracks":[{"startTime":0,"duration":0,"length":0,"notes":[],"controlChanges":{},"id":0,"name":"--------"},{"startTime":0.25,"duration":713.8854166666678,"length":5804,"notes":[{"name":"C3","midi":48,"time":0.25,"velocity":0.7637795275590551,"duration":1.9947916666666665},{"name":"D#3","midi":51,"time":0.2513020833333333,"velocity":0.7637795275590551,"duration":1.9947916666666667},{"name":"G3","midi":55,"time":0.25260416666666663,"velocity":0.7637795275590551,"duration":1.994791666666667},{"name":"C4","midi":60,"time":0.25390624999999994,"velocity":0.7637795275590551,"duration":1.994791666666667},{"name":"G4","midi":67,"time":0.25520833333333326,"velocity":0.7637795275590551,"duration":1.9947916666666672},{"name":"D#5","midi":75,"time":0.25520833333333326,"velocity":0.7637795275590551,"duration":1.9947916666666672},{"name":"C5","midi":72,"time":0.25520833333333326,"velocity":0.7637795275590551,"duration":1.9947916666666672},{"name":"C5","midi":72,"time":2.7500000000000004,"velocity":0.7637795275590551,"duration":0.49869791666666696},{"name":"D#5","midi":75,"time":2.751302083333334,"velocity":0.7637795275590551,"duration":0.49869791666666696},{"name":"B4","midi":71,"time":3.250000000000001,"velocity":0.7637795275590551,"duration":0.748697916666667},{"name":"D5","midi":74,"time":3.2513020833333344,"velocity":0.7637795275590551,"duration":0.7486979166666665},{"name":"C5","midi":72,"time":4.031250000000001,"velocity":0.7637795275590551,"duration":0.21354166666666607},{"name":"D#5","midi":75,"time":4.032552083333334,"velocity":0.7637795275590551,"duration":0.21354166666666607},{"name":"C3","midi":48,"time":4.25,"velocity":0.7637795275590551,"duration":2.083333333333332},{"name":"D3","midi":50,"time":4.251302083333333,"velocity":0.7637795275590551,"duration":2.083333333333332},{"name":"F3","midi":53,"time":4.252604166666666,"velocity":0.7637795275590551,"duration":2.083333333333332},{"name":"G#3","midi":56,"time":4.253906249999999,"velocity":0.7637795275590551,"duration":2.083333333333332},{"name":"B3","midi":59,"time":4.255208333333332,"velocity":0.7637795275590551,"duration":2.083333333333332},{"name":"D5","midi":74,"time":4.255208333333332,"velocity":0.7637795275590551,"duration":1.994791666666667},{"name":"F5","midi":77,"time":4.255208333333332,"velocity":0.7637795275590551,"duration":1.994791666666667},{"name":"F5","midi":77,"time":6.781249999999997,"velocity":0.7637795275590551,"duration":0.46614583333333304},{"name":"D5","midi":74,"time":6.781249999999997,"velocity":0.7637795275590551,"duration":0.46614583333333304},{"name":"D5","midi":74,"time":7.249999999999997,"velocity":0.7637795275590551,"duration":0.748697916666667},{"name":"F5","midi":77,"time":7.249999999999997,"velocity":0.7637795275590551,"duration":0.748697916666667},{"name":"G5","midi":79,"time":8.031249999999998,"velocity":0.7637795275590551,"duration":0.21484375},{"name":"D#5","midi":75,"time":8.031249999999998,"velocity":0.7637795275590551,"duration":0.21484375},{"name":"F5","midi":77,"time":8.249999999999998,"velocity":0.7637795275590551,"duration":1.432291666666666},{"name":"G#5","midi":80,"time":8.249999999999998,"velocity":0.7637795275590551,"duration":1.432291666666666},{"name":"G#5","midi":80,"time":9.781249999999998,"velocity":0.7637795275590551,"duration":0.4661458333333339},{"name":"F5","midi":77,"time":9.781249999999998,"velocity":0.7637795275590551,"duration":0.4661458333333339},{"name":"C3","midi":48,"time":10.249999999999998,"velocity":0.7637795275590551,"duration":1.9986979166666696},{"name":"D3","midi":50,"time":10.251302083333332,"velocity":0.7637795275590551,"duration":1.9986979166666696},{"name":"F3","midi":53,"time":10.252604166666666,"velocity":0.7637795275590551,"duration":1.9986979166666696},{"name":"B3","midi":59,"time":10.25390625,"velocity":0.7637795275590551,"duration":1.9986979166666696},{"name":"F5","midi":77,"time":10.255208333333334,"velocity":0.7637795275590551,"duration":0.7434895833333321},{"name":"G#5","midi":80,"time":10.255208333333334,"velocity":0.7637795275590551,"duration":0.4986979166666661},{"name":"G5","midi":79,"time":10.75,"velocity":0.7637795275590551,"duration":0.24869791666666607},{"name":"F5","midi":77,"time":11,"velocity":0.7637795275590551,"duration":0.24869791666666607},{"name":"G5","midi":79,"time":11.25,"velocity":0.7637795275590551,"duration":0.9114583333333339},{"name":"D5","midi":74,"time":12.03125,"velocity":0.7637795275590551,"duration":0.21354166666666785},{"name":"C3","midi":48,"time":12.250000000000002,"velocity":0.7637795275590551,"duration":2.2135416666666696},{"name":"D#3","midi":51,"time":12.251302083333336,"velocity":0.7637795275590551,"duration":2.2135416666666696},{"name":"G3","midi":55,"time":12.25260416666667,"velocity":0.7637795275590551,"duration":2.2135416666666696},{"name":"C4","midi":60,"time":12.253906250000004,"velocity":0.7637795275590551,"duration":2.2135416666666696},{"name":"G4","midi":67,"time":12.255208333333337,"velocity":0.7637795275590551,"duration":2.2135416666666696},{"name":"D#5","midi":75,"time":12.255208333333337,"velocity":0.7637795275590551,"duration":2.1484375},{"name":"C5","midi":72,"time":12.255208333333337,"velocity":0.7637795275590551,"duration":2.1484375},{"name":"G5","midi":79,"time":14.656250000000007,"velocity":0.7637795275590551,"duration":0.4661458333333339},{"name":"D#5","midi":75,"time":14.656250000000007,"velocity":0.7637795275590551,"duration":0.4661458333333339},{"name":"G5","midi":79,"time":15.125000000000007,"velocity":0.7637795275590551,"duration":0.7486979166666661},{"name":"D#5","midi":75,"time":15.125000000000007,"velocity":0.7637795275590551,"duration":0.7486979166666661},{"name":"G#5","midi":80,"time":15.906250000000007,"velocity":0.7637795275590551,"duration":0.21354166666666785},{"name":"F5","midi":77,"time":15.906250000000007,"velocity":0.7637795275590551,"duration":0.21354166666666785},{"name":"C3","midi":48,"time":16.125000000000007,"velocity":0.7637795275590551,"duration":2.4986979166666643},{"name":"E3","midi":52,"time":16.12630208333334,"velocity":0.7637795275590551,"duration":2.4986979166666643},{"name":"G3","midi":55,"time":16.12760416666667,"velocity":0.7637795275590551,"duration":2.4986979166666643},{"name":"C4","midi":60,"time":16.128906250000004,"velocity":0.7637795275590551,"duration":2.4986979166666643},{"name":"C5","midi":72,"time":16.130208333333336,"velocity":0.7637795275590551,"duration":1.9947916666666679},{"name":"G5","midi":79,"time":16.130208333333336,"velocity":0.7637795275590551,"duration":1.9947916666666679},{"name":"A#5","midi":82,"time":16.130208333333336,"velocity":0.7637795275590551,"duration":1.9947916666666679},{"name":"A#4","midi":70,"time":18.65625,"velocity":0.7637795275590551,"duration":0.46614583333333215},{"name":"G4","midi":67,"time":18.65625,"velocity":0.7637795275590551,"duration":0.46614583333333215},{"name":"A#4","midi":70,"time":19.125,"velocity":0.7637795275590551,"duration":0.7486979166666679},{"name":"G4","midi":67,"time":19.125,"velocity":0.7637795275590551,"duration":0.7486979166666679},{"name":"C5","midi":72,"time":19.90625,"velocity":0.7637795275590551,"duration":0.21484375},{"name":"G#4","midi":68,"time":19.90625,"velocity":0.7637795275590551,"duration":0.21484375},{"name":"C#5","midi":73,"time":20.125,"velocity":0.7637795275590551,"duration":1.4322916666666679},{"name":"A#4","midi":70,"time":20.125,"velocity":0.7637795275590551,"duration":1.53125},{"name":"A#4","midi":70,"time":21.65625,"velocity":0.7637795275590551,"duration":0.4557291666666643},{"name":"C#5","midi":73,"time":21.65625,"velocity":0.7637795275590551,"duration":0.44270833333333215},{"name":"C3","midi":48,"time":22.124999999999996,"velocity":0.7637795275590551,"duration":1.9986979166666643},{"name":"G3","midi":55,"time":22.12630208333333,"velocity":0.7637795275590551,"duration":1.9986979166666643},{"name":"C4","midi":60,"time":22.12760416666666,"velocity":0.7637795275590551,"duration":1.9986979166666643},{"name":"A#4","midi":70,"time":22.128906249999993,"velocity":0.7637795275590551,"duration":0.7434895833333321},{"name":"C#5","midi":73,"time":22.130208333333325,"velocity":0.7637795275590551,"duration":0.49869791666666785},{"name":"E5","midi":76,"time":22.130208333333325,"velocity":0.7637795275590551,"duration":1.6927083333333357},{"name":"C5","midi":72,"time":22.624999999999993,"velocity":0.7637795275590551,"duration":0.24609375},{"name":"A#4","midi":70,"time":22.874999999999993,"velocity":0.7637795275590551,"duration":0.24869791666666785},{"name":"C5","midi":72,"time":23.124999999999993,"velocity":0.7637795275590551,"duration":0.9986979166666679},{"name":"G4","midi":67,"time":23.906249999999993,"velocity":0.7637795275590551,"duration":0.21354166666666785},{"name":"C3","midi":48,"time":24.124999999999993,"velocity":0.7637795275590551,"duration":2.0833333333333286},{"name":"F3","midi":53,"time":24.126302083333325,"velocity":0.7637795275590551,"duration":2.0833333333333286},{"name":"G#3","midi":56,"time":24.127604166666657,"velocity":0.7637795275590551,"duration":2.0833333333333286},{"name":"C4","midi":60,"time":24.12890624999999,"velocity":0.7637795275590551,"duration":2.0833333333333286},{"name":"G#4","midi":68,"time":24.13020833333332,"velocity":0.7637795275590551,"duration":2.0833333333333286},{"name":"F5","midi":77,"time":24.13020833333332,"velocity":0.7637795275590551,"duration":1.9947916666666679},{"name":"C5","midi":72,"time":24.13020833333332,"velocity":0.7637795275590551,"duration":2.0833333333333286},{"name":"F5","midi":77,"time":26.624999999999982,"velocity":0.7637795275590551,"duration":0.49869791666666785},{"name":"G5","midi":79,"time":27.124999999999982,"velocity":0.7637795275590551,"duration":0.7486979166666679},{"name":"G#5","midi":80,"time":27.906249999999982,"velocity":0.7637795275590551,"duration":0.20572916666666785},{"name":"D5","midi":74,"time":28.124999999999982,"velocity":0.7637795275590551,"duration":1.9947916666666572},{"name":"C3","midi":48,"time":28.624999999999982,"velocity":0.7637795275590551,"duration":0.4986979166666643},{"name":"D3","midi":50,"time":28.626302083333314,"velocity":0.7637795275590551,"duration":0.4986979166666643},{"name":"G#3","midi":56,"time":28.627604166666647,"velocity":0.7637795275590551,"duration":0.4986979166666643},{"name":"F4","midi":65,"time":28.62890624999998,"velocity":0.7637795275590551,"duration":0.4986979166666643},{"name":"C3","midi":48,"time":29.12499999999998,"velocity":0.7637795275590551,"duration":0.7486979166666643},{"name":"D3","midi":50,"time":29.12630208333331,"velocity":0.7637795275590551,"duration":0.7486979166666643},{"name":"G#3","midi":56,"time":29.127604166666643,"velocity":0.7637795275590551,"duration":0.7486979166666643},{"name":"F4","midi":65,"time":29.128906249999975,"velocity":0.7637795275590551,"duration":0.7486979166666643},{"name":"G3","midi":55,"time":29.90624999999997,"velocity":0.7637795275590551,"duration":0.20572916666666785},{"name":"D3","midi":50,"time":29.90624999999997,"velocity":0.7637795275590551,"duration":0.20572916666666785},{"name":"A#2","midi":46,"time":29.90624999999997,"velocity":0.7637795275590551,"duration":0.20572916666666785},{"name":"G4","midi":67,"time":29.90624999999997,"velocity":0.7637795275590551,"duration":0.20572916666666785},{"name":"A#2","midi":46,"time":30.12499999999997,"velocity":0.7637795275590551,"duration":2.2135416666666643},{"name":"D3","midi":50,"time":30.126302083333304,"velocity":0.7637795275590551,"duration":2.213541666666668},{"name":"G3","midi":55,"time":30.127604166666636,"velocity":0.7637795275590551,"duration":2.2135416666666714},{"name":"G4","midi":67,"time":30.128906249999968,"velocity":0.7637795275590551,"duration":2.213541666666675},{"name":"D5","midi":74,"time":30.624999999999968,"velocity":0.7637795275590551,"duration":0.49869791666666785},{"name":"G5","midi":79,"time":31.124999999999968,"velocity":0.7637795275590551,"duration":0.7486979166666679},{"name":"D#5","midi":75,"time":31.874999999999968,"velocity":0.7637795275590551,"duration":0.24869791666666785},{"name":"C5","midi":72,"time":32.12499999999997,"velocity":0.7637795275590551,"duration":2.2486979166667},{"name":"A#2","midi":46,"time":32.62499999999998,"velocity":0.7637795275590551,"duration":0.4986979166666714},{"name":"C3","midi":48,"time":32.626302083333314,"velocity":0.7637795275590551,"duration":0.4986979166666714},{"name":"G3","midi":55,"time":32.62760416666665,"velocity":0.7637795275590551,"duration":0.4986979166666714},{"name":"D#4","midi":63,"time":32.628906249999986,"velocity":0.7637795275590551,"duration":0.4986979166666714},{"name":"A#2","midi":46,"time":33.124999999999986,"velocity":0.7637795275590551,"duration":0.7486979166666714},{"name":"C3","midi":48,"time":33.12630208333332,"velocity":0.7637795275590551,"duration":0.7486979166666714},{"name":"G3","midi":55,"time":33.12760416666666,"velocity":0.7637795275590551,"duration":0.7486979166666714},{"name":"D#4","midi":63,"time":33.12890624999999,"velocity":0.7637795275590551,"duration":0.7486979166666714},{"name":"F3","midi":53,"time":33.90625,"velocity":0.7637795275590551,"duration":0.2057291666666714},{"name":"C3","midi":48,"time":33.90625,"velocity":0.7637795275590551,"duration":0.2057291666666714},{"name":"G#2","midi":44,"time":33.90625,"velocity":0.7637795275590551,"duration":0.2057291666666714},{"name":"F4","midi":65,"time":33.90625,"velocity":0.7637795275590551,"duration":0.2057291666666714},{"name":"A#2","midi":46,"time":34.110677083333336,"velocity":0.7637795275590551,"duration":0.1692708333333357},{"name":"F4","midi":65,"time":34.12500000000001,"velocity":0.7637795275590551,"duration":1.757812499999993},{"name":"F3","midi":53,"time":34.12500000000001,"velocity":0.7637795275590551,"duration":1.9921875},{"name":"C3","midi":48,"time":34.12500000000001,"velocity":0.7637795275590551,"duration":1.9921875},{"name":"G#2","midi":44,"time":34.22265625000001,"velocity":0.7637795275590551,"duration":0.1692708333333357},{"name":"A#2","midi":46,"time":34.33463541666667,"velocity":0.7637795275590551,"duration":0.1692708333333357},{"name":"D#5","midi":75,"time":34.37500000000001,"velocity":0.7637795275590551,"duration":0.2486979166666643},{"name":"G#2","midi":44,"time":34.44531250000001,"velocity":0.7637795275590551,"duration":0.1692708333333286},{"name":"A#2","midi":46,"time":34.55729166666667,"velocity":0.7637795275590551,"duration":0.1692708333333357},{"name":"C#5","midi":73,"time":34.62500000000001,"velocity":0.7637795275590551,"duration":0.2486979166666643},{"name":"G#2","midi":44,"time":34.66927083333334,"velocity":0.7637795275590551,"duration":0.1692708333333286},{"name":"A#2","midi":46,"time":34.78125000000001,"velocity":0.7637795275590551,"duration":0.1692708333333357},{"name":"C5","midi":72,"time":34.87500000000001,"velocity":0.7637795275590551,"duration":0.2486979166666643},{"name":"G#2","midi":44,"time":34.89192708333334,"velocity":0.7637795275590551,"duration":0.1692708333333286},{"name":"A#2","midi":46,"time":35.00390625000001,"velocity":0.7637795275590551,"duration":0.1692708333333357},{"name":"G#2","midi":44,"time":35.114583333333336,"velocity":0.7637795275590551,"duration":0.1692708333333357},{"name":"C#5","midi":73,"time":35.12500000000001,"velocity":0.7637795275590551,"duration":0.7486979166666572},{"name":"A#2","midi":46,"time":35.22656250000001,"velocity":0.7637795275590551,"duration":0.1692708333333286},{"name":"G#2","midi":44,"time":35.337239583333336,"velocity":0.7637795275590551,"duration":0.1692708333333357},{"name":"A#2","midi":46,"time":35.44791666666667,"velocity":0.7637795275590551,"duration":0.1692708333333286},{"name":"G#2","midi":44,"time":35.548177083333336,"velocity":0.7637795275590551,"duration":0.1627604166666643},{"name":"A#2","midi":46,"time":35.658854166666664,"velocity":0.7637795275590551,"duration":0.15625},{"name":"G#2","midi":44,"time":35.76953125,"velocity":0.7637795275590551,"duration":0.1497395833333357},{"name":"F5","midi":77,"time":35.875,"velocity":0.7637795275590551,"duration":0.2486979166666714},{"name":"A#2","midi":46,"time":35.880208333333336,"velocity":0.7637795275590551,"duration":0.1432291666666714},{"name":"G#2","midi":44,"time":35.99088541666667,"velocity":0.7637795275590551,"duration":0.1367187500000071},{"name":"G2","midi":43,"time":36.12500000000001,"velocity":0.7637795275590551,"duration":1.7578125000000142},{"name":"D3","midi":50,"time":36.12630208333334,"velocity":0.7637795275590551,"duration":1.7578125000000142},{"name":"G4","midi":67,"time":36.12760416666668,"velocity":0.7637795275590551,"duration":0.7486979166666714},{"name":"B4","midi":71,"time":36.128906250000014,"velocity":0.7637795275590551,"duration":0.7486979166666714},{"name":"C5","midi":72,"time":36.90625000000002,"velocity":0.7637795275590551,"duration":0.2057291666666643},{"name":"A4","midi":69,"time":36.90625000000002,"velocity":0.7637795275590551,"duration":0.2057291666666643},{"name":"B4","midi":71,"time":37.12500000000002,"velocity":0.7637795275590551,"duration":0.7486979166666643},{"name":"G4","midi":67,"time":37.12500000000002,"velocity":0.7637795275590551,"duration":0.7486979166666643},{"name":"C5","midi":72,"time":37.90625000000002,"velocity":0.7637795275590551,"duration":0.2057291666666643},{"name":"A4","midi":69,"time":37.90625000000002,"velocity":0.7637795275590551,"duration":0.2057291666666643},{"name":"D5","midi":74,"time":38.12500000000002,"velocity":0.7637795275590551,"duration":5.078125},{"name":"B4","midi":71,"time":38.12500000000002,"velocity":0.7637795275590551,"duration":0.4986979166666643},{"name":"F3","midi":53,"time":38.62500000000002,"velocity":0.7637795275590551,"duration":0.4986979166666643},{"name":"D3","midi":50,"time":38.62500000000002,"velocity":0.7637795275590551,"duration":0.4986979166666643},{"name":"F3","midi":53,"time":39.12500000000002,"velocity":0.7637795275590551,"duration":0.7486979166666643},{"name":"D3","midi":50,"time":39.12500000000002,"velocity":0.7637795275590551,"duration":0.7486979166666643},{"name":"G3","midi":55,"time":39.90625000000002,"velocity":0.7637795275590551,"duration":0.2057291666666643},{"name":"D#3","midi":51,"time":39.90625000000002,"velocity":0.7637795275590551,"duration":0.2057291666666643},{"name":"G#3","midi":56,"time":40.12500000000002,"velocity":0.7637795275590551,"duration":1.5234375},{"name":"F3","midi":53,"time":40.12500000000002,"velocity":0.7637795275590551,"duration":1.5234375},{"name":"D4","midi":62,"time":41.65625000000002,"velocity":0.7637795275590551,"duration":0.4427083333333357},{"name":"G#3","midi":56,"time":41.65625000000002,"velocity":0.7637795275590551,"duration":0.4427083333333357},{"name":"F3","midi":53,"time":41.65625000000002,"velocity":0.7637795275590551,"duration":0.4427083333333357},{"name":"B2","midi":47,"time":42.12500000000002,"velocity":0.7637795275590551,"duration":1.4973958333333357},{"name":"G2","midi":43,"time":42.12500000000002,"velocity":0.7637795275590551,"duration":1.4973958333333357},{"name":"F4","midi":65,"time":42.12630208333336,"velocity":0.7637795275590551,"duration":1.4973958333333357},{"name":"G3","midi":55,"time":42.62500000000002,"velocity":0.7637795275590551,"duration":0.2486979166666643},{"name":"F3","midi":53,"time":42.87500000000002,"velocity":0.7637795275590551,"duration":0.2486979166666643},{"name":"G3","midi":55,"time":43.12500000000002,"velocity":0.7637795275590551,"duration":0.4986979166666714},{"name":"B2","midi":47,"time":43.62500000000003,"velocity":0.7637795275590551,"duration":0.4817708333333357},{"name":"D3","midi":50,"time":43.626302083333364,"velocity":0.7637795275590551,"duration":0.4817708333333357},{"name":"G#4","midi":68,"time":43.6276041666667,"velocity":0.7637795275590551,"duration":0.4817708333333357},{"name":"G2","midi":43,"time":44.125000000000036,"velocity":0.7637795275590551,"duration":2.343750000000007},{"name":"C3","midi":48,"time":44.12630208333337,"velocity":0.7637795275590551,"duration":2.343750000000007},{"name":"D#3","midi":51,"time":44.12760416666671,"velocity":0.7637795275590551,"duration":2.343750000000007},{"name":"G4","midi":67,"time":44.12890625000004,"velocity":0.7637795275590551,"duration":0.74609375},{"name":"G4","midi":67,"time":44.87500000000004,"velocity":0.7637795275590551,"duration":0.2486979166666643},{"name":"F4","midi":65,"time":44.87500000000004,"velocity":0.7637795275590551,"duration":0.2486979166666643},{"name":"A4","midi":69,"time":45.12500000000004,"velocity":0.7637795275590551,"duration":0.7486979166666643},{"name":"D#4","midi":63,"time":45.12500000000004,"velocity":0.7637795275590551,"duration":0.7486979166666643},{"name":"B4","midi":71,"time":45.90625000000004,"velocity":0.7637795275590551,"duration":0.2135416666666643},{"name":"D4","midi":62,"time":45.90625000000004,"velocity":0.7637795275590551,"duration":0.2135416666666643},{"name":"C5","midi":72,"time":46.12500000000004,"velocity":0.7637795275590551,"duration":0.7486979166666714},{"name":"D#4","midi":63,"time":46.12500000000004,"velocity":0.7637795275590551,"duration":0.7486979166666714},{"name":"B4","midi":71,"time":46.90625000000005,"velocity":0.7637795275590551,"duration":0.2135416666666643},{"name":"G4","midi":67,"time":46.90625000000005,"velocity":0.7637795275590551,"duration":0.2135416666666643},{"name":"D4","midi":62,"time":46.90625000000005,"velocity":0.7637795275590551,"duration":0.2135416666666643},{"name":"A4","midi":69,"time":47.12500000000005,"velocity":0.7637795275590551,"duration":0.7486979166666643},{"name":"C5","midi":72,"time":47.12500000000005,"velocity":0.7637795275590551,"duration":0.7486979166666643},{"name":"D#4","midi":63,"time":47.12500000000005,"velocity":0.7637795275590551,"duration":0.7486979166666643},{"name":"D5","midi":74,"time":47.90625000000005,"velocity":0.7637795275590551,"duration":0.2135416666666643},{"name":"B4","midi":71,"time":47.90625000000005,"velocity":0.7637795275590551,"duration":0.2135416666666643},{"name":"F4","midi":65,"time":47.90625000000005,"velocity":0.7637795275590551,"duration":0.2135416666666643},{"name":"G4","midi":67,"time":48.12500000000005,"velocity":0.7637795275590551,"duration":1.992187500000007},{"name":"C5","midi":72,"time":48.126302083333385,"velocity":0.7637795275590551,"duration":1.484375},{"name":"D#5","midi":75,"time":48.12760416666672,"velocity":0.7637795275590551,"duration":1.484375},{"name":"D#5","midi":75,"time":49.62500000000006,"velocity":0.7637795275590551,"duration":0.4986979166666643},{"name":"C5","midi":72,"time":49.62500000000006,"velocity":0.7637795275590551,"duration":0.4986979166666643},{"name":"G2","midi":43,"time":50.12500000000006,"velocity":0.7637795275590551,"duration":1.9986979166666785},{"name":"C3","midi":48,"time":50.12630208333339,"velocity":0.7637795275590551,"duration":1.9986979166666785},{"name":"D#3","midi":51,"time":50.12760416666673,"velocity":0.7637795275590551,"duration":1.9986979166666785},{"name":"A3","midi":57,"time":50.128906250000064,"velocity":0.7637795275590551,"duration":1.9986979166666785},{"name":"A4","midi":69,"time":50.1302083333334,"velocity":0.7637795275590551,"duration":1.6276041666666643},{"name":"F#5","midi":78,"time":50.1302083333334,"velocity":0.7637795275590551,"duration":1.9921875},{"name":"D#5","midi":75,"time":50.1302083333334,"velocity":0.7637795275590551,"duration":0.4986979166666643},{"name":"C5","midi":72,"time":50.1302083333334,"velocity":0.7637795275590551,"duration":0.3515625},{"name":"D5","midi":74,"time":50.625000000000064,"velocity":0.7637795275590551,"duration":0.2486979166666643},{"name":"C5","midi":72,"time":50.875000000000064,"velocity":0.7637795275590551,"duration":0.2486979166666643},{"name":"D5","midi":74,"time":51.125000000000064,"velocity":0.7637795275590551,"duration":0.7486979166666643},{"name":"A4","midi":69,"time":51.875000000000064,"velocity":0.7637795275590551,"duration":0.2486979166666714},{"name":"G2","midi":43,"time":52.12500000000007,"velocity":0.7637795275590551,"duration":3.3854166666666785},{"name":"D3","midi":50,"time":52.12630208333341,"velocity":0.7637795275590551,"duration":3.3854166666666785},{"name":"G3","midi":55,"time":52.12760416666674,"velocity":0.7637795275590551,"duration":3.3854166666666785},{"name":"B4","midi":71,"time":52.12890625000008,"velocity":0.7637795275590551,"duration":3.3854166666666785},{"name":"D5","midi":74,"time":52.130208333333414,"velocity":0.7637795275590551,"duration":3.3854166666666785},{"name":"G5","midi":79,"time":52.130208333333414,"velocity":0.7637795275590551,"duration":3.7760416666666785},{"name":"C3","midi":48,"time":56.00000000000009,"velocity":0.7637795275590551,"duration":0.4986979166666643},{"name":"G4","midi":67,"time":56.00000000000009,"velocity":0.7637795275590551,"duration":0.2486979166666643},{"name":"C5","midi":72,"time":56.25000000000009,"velocity":0.7637795275590551,"duration":0.1236979166666643},{"name":"D5","midi":74,"time":56.37500000000009,"velocity":0.7637795275590551,"duration":0.1236979166666643},{"name":"C4","midi":60,"time":56.50000000000009,"velocity":0.7637795275590551,"duration":0.4986979166666643},{"name":"D#5","midi":75,"time":56.50000000000009,"velocity":0.7637795275590551,"duration":0.6901041666666643},{"name":"F3","midi":53,"time":57.00000000000009,"velocity":0.7637795275590551,"duration":0.4986979166666643},{"name":"D5","midi":74,"time":57.25000000000009,"velocity":0.7637795275590551,"duration":0.1236979166666643},{"name":"C5","midi":72,"time":57.37500000000009,"velocity":0.7637795275590551,"duration":0.1236979166666643},{"name":"G3","midi":55,"time":57.50000000000009,"velocity":0.7637795275590551,"duration":0.4986979166666643},{"name":"D#5","midi":75,"time":57.50000000000009,"velocity":0.7637795275590551,"duration":0.1236979166666643},{"name":"D5","midi":74,"time":57.62500000000009,"velocity":0.7637795275590551,"duration":0.1236979166666643},{"name":"C5","midi":72,"time":57.75000000000009,"velocity":0.7637795275590551,"duration":0.1236979166666643},{"name":"B4","midi":71,"time":57.87500000000009,"velocity":0.7637795275590551,"duration":0.1236979166666643},{"name":"D#3","midi":51,"time":58.00000000000009,"velocity":0.7637795275590551,"duration":0.4986979166666643},{"name":"C5","midi":72,"time":58.00000000000009,"velocity":0.7637795275590551,"duration":0.2486979166666643},{"name":"G4","midi":67,"time":58.25000000000009,"velocity":0.7637795275590551,"duration":0.2486979166666643},{"name":"C3","midi":48,"time":58.50000000000009,"velocity":0.7637795275590551,"duration":0.4986979166666643},{"name":"G#4","midi":68,"time":58.50000000000009,"velocity":0.7637795275590551,"duration":0.2486979166666643},{"name":"F4","midi":65,"time":58.75000000000009,"velocity":0.7637795275590551,"duration":0.2486979166666643},{"name":"D#3","midi":51,"time":59.00000000000009,"velocity":0.7637795275590551,"duration":0.4986979166666643},{"name":"G4","midi":67,"time":59.00000000000009,"velocity":0.7637795275590551,"duration":0.2486979166666643},{"name":"C5","midi":72,"time":59.25000000000009,"velocity":0.7637795275590551,"duration":0.2486979166666643},{"name":"G3","midi":55,"time":59.50000000000009,"velocity":0.7637795275590551,"duration":0.4986979166666643},{"name":"G4","midi":67,"time":59.50000000000009,"velocity":0.7637795275590551,"duration":0.2486979166666643},{"name":"F4","midi":65,"time":59.75000000000009,"velocity":0.7637795275590551,"duration":0.2486979166666643},{"name":"C4","midi":60,"time":60.00000000000009,"velocity":0.7637795275590551,"duration":0.4986979166666643},{"name":"D#4","midi":63,"time":60.00000000000009,"velocity":0.7637795275590551,"duration":0.2486979166666643},{"name":"C5","midi":72,"time":60.25000000000009,"velocity":0.7637795275590551,"duration":0.1236979166666643},{"name":"D5","midi":74,"time":60.37500000000009,"velocity":0.7637795275590551,"duration":0.1236979166666643},{"name":"G#3","midi":56,"time":60.50000000000009,"velocity":0.7637795275590551,"duration":0.4986979166666643},{"name":"D#5","midi":75,"time":60.50000000000009,"velocity":0.7637795275590551,"duration":0.1236979166666643},{"name":"D5","midi":74,"time":60.62500000000009,"velocity":0.7637795275590551,"duration":0.1236979166666643},{"name":"C5","midi":72,"time":60.75000000000009,"velocity":0.7637795275590551,"duration":0.2486979166666643},{"name":"D#3","midi":51,"time":61.00000000000009,"velocity":0.7637795275590551,"duration":0.4986979166666643},{"name":"G5","midi":79,"time":61.00000000000009,"velocity":0.7637795275590551,"duration":0.2486979166666643},{"name":"C5","midi":72,"time":61.25000000000009,"velocity":0.7637795275590551,"duration":0.2486979166666643},{"name":"F3","midi":53,"time":61.50000000000009,"velocity":0.7637795275590551,"duration":0.4986979166666643},{"name":"G#5","midi":80,"time":61.50000000000009,"velocity":0.7637795275590551,"duration":0.2486979166666643},{"name":"C5","midi":72,"time":61.75000000000009,"velocity":0.7637795275590551,"duration":0.2486979166666643},{"name":"G3","midi":55,"time":62.00000000000009,"velocity":0.7637795275590551,"duration":0.9986979166666643},{"name":"B4","midi":71,"time":62.00000000000009,"velocity":0.7637795275590551,"duration":0.2486979166666643},{"name":"C5","midi":72,"time":62.25000000000009,"velocity":0.7637795275590551,"duration":0.2486979166666643},{"name":"G2","midi":43,"time":62.50000000000009,"velocity":0.7637795275590551,"duration":0.7486979166666643},{"name":"D5","midi":74,"time":62.50000000000009,"velocity":0.7637795275590551,"duration":0.2486979166666643},{"name":"B4","midi":71,"time":62.75000000000009,"velocity":0.7637795275590551,"duration":0.2486979166666643},{"name":"G4","midi":67,"time":63.00000000000009,"velocity":0.7637795275590551,"duration":0.7486979166666643},{"name":"F4","midi":65,"time":63.25000000000009,"velocity":0.7637795275590551,"duration":0.2486979166666643},{"name":"D#4","midi":63,"time":63.50000000000009,"velocity":0.7637795275590551,"duration":0.2486979166666643},{"name":"D4","midi":62,"time":63.75000000000009,"velocity":0.7637795275590551,"duration":0.2486979166666643},{"name":"D#4","midi":63,"time":64.00000000000009,"velocity":0.7637795275590551,"duration":0.4986979166666714},{"name":"G5","midi":79,"time":64.00000000000009,"velocity":0.7637795275590551,"duration":0.1236979166666714},{"name":"F5","midi":77,"time":64.12500000000009,"velocity":0.7637795275590551,"duration":0.1236979166666714},{"name":"D#5","midi":75,"time":64.25000000000009,"velocity":0.7637795275590551,"duration":0.1236979166666714},{"name":"D5","midi":74,"time":64.37500000000009,"velocity":0.7637795275590551,"duration":0.1236979166666714},{"name":"G4","midi":67,"time":64.50000000000009,"velocity":0.7637795275590551,"duration":0.4986979166666714},{"name":"C5","midi":72,"time":64.50000000000009,"velocity":0.7637795275590551,"duration":0.2486979166666714},{"name":"A#4","midi":70,"time":64.75000000000009,"velocity":0.7637795275590551,"duration":0.4166666666666714},{"name":"E4","midi":64,"time":65.00000000000009,"velocity":0.7637795275590551,"duration":0.4986979166666714},{"name":"C#5","midi":73,"time":65.25000000000009,"velocity":0.7637795275590551,"duration":0.4817708333333286},{"name":"C4","midi":60,"time":65.50000000000009,"velocity":0.7637795275590551,"duration":0.4986979166666714},{"name":"C5","midi":72,"time":65.75000000000009,"velocity":0.7637795275590551,"duration":0.2486979166666714},{"name":"F4","midi":65,"time":66.00000000000009,"velocity":0.7637795275590551,"duration":0.4986979166666714},{"name":"G#5","midi":80,"time":66.00000000000009,"velocity":0.7637795275590551,"duration":0.1236979166666714},{"name":"G5","midi":79,"time":66.12500000000009,"velocity":0.7637795275590551,"duration":0.1236979166666714},{"name":"F5","midi":77,"time":66.25000000000009,"velocity":0.7637795275590551,"duration":0.1236979166666714},{"name":"E5","midi":76,"time":66.37500000000009,"velocity":0.7637795275590551,"duration":0.1236979166666714},{"name":"G#4","midi":68,"time":66.50000000000009,"velocity":0.7637795275590551,"duration":0.4986979166666714},{"name":"F5","midi":77,"time":66.50000000000009,"velocity":0.7637795275590551,"duration":0.5989583333333286},{"name":"F4","midi":65,"time":67.00000000000009,"velocity":0.7637795275590551,"duration":0.4986979166666714},{"name":"G5","midi":79,"time":67.12500000000009,"velocity":0.7637795275590551,"duration":0.1236979166666714},{"name":"G#5","midi":80,"time":67.25000000000009,"velocity":0.7637795275590551,"duration":0.1236979166666714},{"name":"G5","midi":79,"time":67.37500000000009,"velocity":0.7637795275590551,"duration":0.1236979166666714},{"name":"C4","midi":60,"time":67.50000000000009,"velocity":0.7637795275590551,"duration":0.4986979166666714},{"name":"F5","midi":77,"time":67.50000000000009,"velocity":0.7637795275590551,"duration":0.1236979166666714},{"name":"D#5","midi":75,"time":67.62500000000009,"velocity":0.7637795275590551,"duration":0.1236979166666714},{"name":"D5","midi":74,"time":67.75000000000009,"velocity":0.7637795275590551,"duration":0.1236979166666714},{"name":"D#5","midi":75,"time":67.87500000000009,"velocity":0.7637795275590551,"duration":0.1236979166666714},{"name":"D4","midi":62,"time":68.00000000000009,"velocity":0.7637795275590551,"duration":0.4986979166666714},{"name":"F5","midi":77,"time":68.00000000000009,"velocity":0.7637795275590551,"duration":0.1236979166666714},{"name":"D#5","midi":75,"time":68.12500000000009,"velocity":0.7637795275590551,"duration":0.1236979166666714},{"name":"D5","midi":74,"time":68.25000000000009,"velocity":0.7637795275590551,"duration":0.1236979166666714},{"name":"C5","midi":72,"time":68.37500000000009,"velocity":0.7637795275590551,"duration":0.1236979166666714},{"name":"F4","midi":65,"time":68.50000000000009,"velocity":0.7637795275590551,"duration":0.4986979166666714},{"name":"A#4","midi":70,"time":68.50000000000009,"velocity":0.7637795275590551,"duration":0.2486979166666714},{"name":"G#4","midi":68,"time":68.75000000000009,"velocity":0.7637795275590551,"duration":0.4166666666666714},{"name":"D4","midi":62,"time":69.00000000000009,"velocity":0.7637795275590551,"duration":0.4986979166666714},{"name":"C5","midi":72,"time":69.25000000000009,"velocity":0.7637795275590551,"duration":0.4817708333333286},{"name":"A#3","midi":58,"time":69.50000000000009,"velocity":0.7637795275590551,"duration":0.4986979166666714},{"name":"A#4","midi":70,"time":69.75000000000009,"velocity":0.7637795275590551,"duration":0.2486979166666714},{"name":"D#4","midi":63,"time":70.00000000000009,"velocity":0.7637795275590551,"duration":0.4986979166666714},{"name":"G5","midi":79,"time":70.00000000000009,"velocity":0.7637795275590551,"duration":0.1236979166666714},{"name":"F5","midi":77,"time":70.12500000000009,"velocity":0.7637795275590551,"duration":0.1236979166666714},{"name":"D#5","midi":75,"time":70.25000000000009,"velocity":0.7637795275590551,"duration":0.1236979166666714},{"name":"D5","midi":74,"time":70.37500000000009,"velocity":0.7637795275590551,"duration":0.1236979166666714},{"name":"G4","midi":67,"time":70.50000000000009,"velocity":0.7637795275590551,"duration":0.4986979166666714},{"name":"D#5","midi":75,"time":70.50000000000009,"velocity":0.7637795275590551,"duration":0.5989583333333286},{"name":"D#4","midi":63,"time":71.00000000000009,"velocity":0.7637795275590551,"duration":0.4986979166666714},{"name":"F5","midi":77,"time":71.12500000000009,"velocity":0.7637795275590551,"duration":0.1236979166666714},{"name":"G5","midi":79,"time":71.25000000000009,"velocity":0.7637795275590551,"duration":0.1236979166666714},{"name":"F5","midi":77,"time":71.37500000000009,"velocity":0.7637795275590551,"duration":0.1236979166666714},{"name":"C4","midi":60,"time":71.50000000000009,"velocity":0.7637795275590551,"duration":0.4986979166666714},{"name":"D#5","midi":75,"time":71.50000000000009,"velocity":0.7637795275590551,"duration":0.1236979166666714},{"name":"D5","midi":74,"time":71.62500000000009,"velocity":0.7637795275590551,"duration":0.1236979166666714},{"name":"C5","midi":72,"time":71.75000000000009,"velocity":0.7637795275590551,"duration":0.1236979166666714},{"name":"B4","midi":71,"time":71.87500000000009,"velocity":0.7637795275590551,"duration":0.1236979166666714},{"name":"G#3","midi":56,"time":72.00000000000009,"velocity":0.7637795275590551,"duration":0.4986979166666714},{"name":"C5","midi":72,"time":72.00000000000009,"velocity":0.7637795275590551,"duration":0.1236979166666714},{"name":"A#4","midi":70,"time":72.12500000000009,"velocity":0.7637795275590551,"duration":0.1236979166666714},{"name":"G#4","midi":68,"time":72.25000000000009,"velocity":0.7637795275590551,"duration":0.1236979166666714},{"name":"G4","midi":67,"time":72.37500000000009,"velocity":0.7637795275590551,"duration":0.1236979166666714},{"name":"C4","midi":60,"time":72.50000000000009,"velocity":0.7637795275590551,"duration":0.4986979166666714},{"name":"F4","midi":65,"time":72.50000000000009,"velocity":0.7637795275590551,"duration":0.234375},{"name":"D#5","midi":75,"time":72.75000000000009,"velocity":0.7637795275590551,"duration":0.46875},{"name":"F4","midi":65,"time":73.00000000000009,"velocity":0.7637795275590551,"duration":0.4986979166666714},{"name":"D5","midi":74,"time":73.25000000000009,"velocity":0.7637795275590551,"duration":0.1236979166666714},{"name":"C5","midi":72,"time":73.37500000000009,"velocity":0.7637795275590551,"duration":0.1236979166666714},{"name":"G#3","midi":56,"time":73.50000000000009,"velocity":0.7637795275590551,"duration":0.4986979166666714},{"name":"D#5","midi":75,"time":73.50000000000009,"velocity":0.7637795275590551,"duration":0.1236979166666714},{"name":"D5","midi":74,"time":73.62500000000009,"velocity":0.7637795275590551,"duration":0.1236979166666714},{"name":"C5","midi":72,"time":73.75000000000009,"velocity":0.7637795275590551,"duration":0.1236979166666714},{"name":"B4","midi":71,"time":73.87500000000009,"velocity":0.7637795275590551,"duration":0.1236979166666714},{"name":"G3","midi":55,"time":74.00000000000009,"velocity":0.7637795275590551,"duration":0.4986979166666714},{"name":"C5","midi":72,"time":74.00000000000009,"velocity":0.7637795275590551,"duration":0.1236979166666714},{"name":"D5","midi":74,"time":74.12500000000009,"velocity":0.7637795275590551,"duration":0.1236979166666714},{"name":"D#5","midi":75,"time":74.25000000000009,"velocity":0.7637795275590551,"duration":0.1236979166666714},{"name":"F5","midi":77,"time":74.37500000000009,"velocity":0.7637795275590551,"duration":0.1236979166666714},{"name":"C4","midi":60,"time":74.50000000000009,"velocity":0.7637795275590551,"duration":0.4986979166666714},{"name":"G5","midi":79,"time":74.50000000000009,"velocity":0.7637795275590551,"duration":0.234375},{"name":"C5","midi":72,"time":74.75000000000009,"velocity":0.7637795275590551,"duration":0.46875},{"name":"D#4","midi":63,"time":75.00000000000009,"velocity":0.7637795275590551,"duration":0.4986979166666714},{"name":"B4","midi":71,"time":75.25000000000009,"velocity":0.7637795275590551,"duration":0.1236979166666714},{"name":"C5","midi":72,"time":75.37500000000009,"velocity":0.7637795275590551,"duration":0.1236979166666714},{"name":"G3","midi":55,"time":75.50000000000009,"velocity":0.7637795275590551,"duration":0.4986979166666714},{"name":"D5","midi":74,"time":75.50000000000009,"velocity":0.7637795275590551,"duration":0.1236979166666714},{"name":"C5","midi":72,"time":75.62500000000009,"velocity":0.7637795275590551,"duration":0.1236979166666714},{"name":"B4","midi":71,"time":75.75000000000009,"velocity":0.7637795275590551,"duration":0.1236979166666714},{"name":"C5","midi":72,"time":75.87500000000009,"velocity":0.7637795275590551,"duration":0.1080729166666714},{"name":"F3","midi":53,"time":76.00000000000009,"velocity":0.7637795275590551,"duration":0.4986979166666714},{"name":"G#5","midi":80,"time":76.00000000000009,"velocity":0.7637795275590551,"duration":0.1236979166666714},{"name":"G5","midi":79,"time":76.12500000000009,"velocity":0.7637795275590551,"duration":0.1236979166666714},{"name":"F5","midi":77,"time":76.25000000000009,"velocity":0.7637795275590551,"duration":0.1236979166666714},{"name":"E5","midi":76,"time":76.37500000000009,"velocity":0.7637795275590551,"duration":0.1236979166666714},{"name":"G#3","midi":56,"time":76.50000000000009,"velocity":0.7637795275590551,"duration":0.4986979166666714},{"name":"F5","midi":77,"time":76.50000000000009,"velocity":0.7637795275590551,"duration":0.234375},{"name":"C#5","midi":73,"time":76.75000000000009,"velocity":0.7637795275590551,"duration":0.46875},{"name":"G3","midi":55,"time":77.00000000000009,"velocity":0.7637795275590551,"duration":0.4986979166666714},{"name":"C5","midi":72,"time":77.25000000000009,"velocity":0.7637795275590551,"duration":0.1236979166666714},{"name":"C#5","midi":73,"time":77.37500000000009,"velocity":0.7637795275590551,"duration":0.1236979166666714},{"name":"F3","midi":53,"time":77.50000000000009,"velocity":0.7637795275590551,"duration":0.4986979166666714},{"name":"D#5","midi":75,"time":77.50000000000009,"velocity":0.7637795275590551,"duration":0.1236979166666714},{"name":"C#5","midi":73,"time":77.62500000000009,"velocity":0.7637795275590551,"duration":0.1236979166666714},{"name":"C5","midi":72,"time":77.75000000000009,"velocity":0.7637795275590551,"duration":0.1236979166666714},{"name":"C#5","midi":73,"time":77.87500000000009,"velocity":0.7637795275590551,"duration":0.1236979166666714},{"name":"D#3","midi":51,"time":78.00000000000009,"velocity":0.7637795275590551,"duration":0.4986979166666714},{"name":"G5","midi":79,"time":78.00000000000009,"velocity":0.7637795275590551,"duration":0.1236979166666714},{"name":"F5","midi":77,"time":78.12500000000009,"velocity":0.7637795275590551,"duration":0.1236979166666714},{"name":"D#5","midi":75,"time":78.25000000000009,"velocity":0.7637795275590551,"duration":0.1236979166666714},{"name":"D5","midi":74,"time":78.37500000000009,"velocity":0.7637795275590551,"duration":0.1236979166666714},{"name":"G3","midi":55,"time":78.50000000000009,"velocity":0.7637795275590551,"duration":0.4986979166666714},{"name":"D#5","midi":75,"time":78.50000000000009,"velocity":0.7637795275590551,"duration":0.234375},{"name":"C5","midi":72,"time":78.75000000000009,"velocity":0.7637795275590551,"duration":0.46875},{"name":"F3","midi":53,"time":79.00000000000009,"velocity":0.7637795275590551,"duration":0.4986979166666714},{"name":"B4","midi":71,"time":79.25000000000009,"velocity":0.7637795275590551,"duration":0.1236979166666714},{"name":"C5","midi":72,"time":79.37500000000009,"velocity":0.7637795275590551,"duration":0.1236979166666714},{"name":"D#3","midi":51,"time":79.50000000000009,"velocity":0.7637795275590551,"duration":0.4986979166666714},{"name":"D5","midi":74,"time":79.50000000000009,"velocity":0.7637795275590551,"duration":0.1236979166666714},{"name":"C5","midi":72,"time":79.62500000000009,"velocity":0.7637795275590551,"duration":0.1236979166666714},{"name":"B4","midi":71,"time":79.75000000000009,"velocity":0.7637795275590551,"duration":0.1236979166666714},{"name":"C5","midi":72,"time":79.87500000000009,"velocity":0.7637795275590551,"duration":0.1236979166666714},{"name":"D3","midi":50,"time":80.00000000000009,"velocity":0.7637795275590551,"duration":0.4986979166666714},{"name":"F5","midi":77,"time":80.00000000000009,"velocity":0.7637795275590551,"duration":0.1236979166666714},{"name":"C5","midi":72,"time":80.12500000000009,"velocity":0.7637795275590551,"duration":0.1236979166666714},{"name":"B4","midi":71,"time":80.25000000000009,"velocity":0.7637795275590551,"duration":0.1236979166666714},{"name":"A4","midi":69,"time":80.37500000000009,"velocity":0.7637795275590551,"duration":0.1236979166666714},{"name":"F3","midi":53,"time":80.50000000000009,"velocity":0.7637795275590551,"duration":0.4986979166666714},{"name":"B4","midi":71,"time":80.50000000000009,"velocity":0.7637795275590551,"duration":0.2486979166666714},{"name":"D5","midi":74,"time":80.75000000000009,"velocity":0.7637795275590551,"duration":0.2486979166666714},{"name":"G#3","midi":56,"time":81.00000000000009,"velocity":0.7637795275590551,"duration":0.4986979166666714},{"name":"F5","midi":77,"time":81.00000000000009,"velocity":0.7637795275590551,"duration":0.1236979166666714},{"name":"A#4","midi":70,"time":81.12500000000009,"velocity":0.7637795275590551,"duration":0.1236979166666714},{"name":"G#4","midi":68,"time":81.25000000000009,"velocity":0.7637795275590551,"duration":0.1236979166666714},{"name":"G4","midi":67,"time":81.37500000000009,"velocity":0.7637795275590551,"duration":0.1236979166666714},{"name":"C3","midi":48,"time":81.50000000000009,"velocity":0.7637795275590551,"duration":0.4986979166666714},{"name":"G#4","midi":68,"time":81.50000000000009,"velocity":0.7637795275590551,"duration":0.2486979166666714},{"name":"C5","midi":72,"time":81.75000000000009,"velocity":0.7637795275590551,"duration":0.2486979166666714},{"name":"B2","midi":47,"time":82.00000000000009,"velocity":0.7637795275590551,"duration":0.4986979166666714},{"name":"F5","midi":77,"time":82.00000000000009,"velocity":0.7637795275590551,"duration":0.1236979166666714},{"name":"G#4","midi":68,"time":82.12500000000009,"velocity":0.7637795275590551,"duration":0.1236979166666714},{"name":"G4","midi":67,"time":82.25000000000009,"velocity":0.7637795275590551,"duration":0.1236979166666714},{"name":"F4","midi":65,"time":82.37500000000009,"velocity":0.7637795275590551,"duration":0.1236979166666714},{"name":"D3","midi":50,"time":82.50000000000009,"velocity":0.7637795275590551,"duration":0.4986979166666714},{"name":"G4","midi":67,"time":82.50000000000009,"velocity":0.7637795275590551,"duration":0.5208333333333286},{"name":"G3","midi":55,"time":83.00000000000009,"velocity":0.7637795275590551,"duration":0.4986979166666714},{"name":"F5","midi":77,"time":83.12500000000009,"velocity":0.7637795275590551,"duration":0.1236979166666714},{"name":"G5","midi":79,"time":83.25000000000009,"velocity":0.7637795275590551,"duration":0.1236979166666714},{"name":"G#5","midi":80,"time":83.37500000000009,"velocity":0.7637795275590551,"duration":0.1236979166666714},{"name":"D3","midi":50,"time":83.50000000000009,"velocity":0.7637795275590551,"duration":0.4986979166666714},{"name":"G5","midi":79,"time":83.50000000000009,"velocity":0.7637795275590551,"duration":0.2486979166666714},{"name":"F5","midi":77,"time":83.75000000000009,"velocity":0.7637795275590551,"duration":0.2486979166666714},{"name":"D#3","midi":51,"time":84.00000000000009,"velocity":0.7637795275590551,"duration":0.4986979166666714},{"name":"G5","midi":79,"time":84.00000000000009,"velocity":0.7637795275590551,"duration":0.234375},{"name":"B4","midi":71,"time":84.25000000000009,"velocity":0.7637795275590551,"duration":0.4427083333333286},{"name":"G#2","midi":44,"time":84.50000000000009,"velocity":0.7637795275590551,"duration":0.4986979166666714},{"name":"C5","midi":72,"time":84.75000000000009,"velocity":0.7637795275590551,"duration":0.4817708333333286},{"name":"F2","midi":41,"time":85.00000000000009,"velocity":0.7637795275590551,"duration":0.4986979166666714},{"name":"A#4","midi":70,"time":85.25000000000009,"velocity":0.7637795275590551,"duration":0.1236979166666714},{"name":"G#4","midi":68,"time":85.37500000000009,"velocity":0.7637795275590551,"duration":0.1236979166666714},{"name":"G2","midi":43,"time":85.50000000000009,"velocity":0.7637795275590551,"duration":0.4986979166666714},{"name":"G4","midi":67,"time":85.50000000000009,"velocity":0.7637795275590551,"duration":0.1236979166666714},{"name":"F4","midi":65,"time":85.62500000000009,"velocity":0.7637795275590551,"duration":0.1236979166666714},{"name":"D#4","midi":63,"time":85.75000000000009,"velocity":0.7637795275590551,"duration":0.1236979166666714},{"name":"D4","midi":62,"time":85.87500000000009,"velocity":0.7637795275590551,"duration":0.1236979166666714},{"name":"C2","midi":36,"time":86.00000000000009,"velocity":0.7637795275590551,"duration":1.171875},{"name":"D#4","midi":63,"time":86.00000000000009,"velocity":0.7637795275590551,"duration":0.1236979166666714},{"name":"G4","midi":67,"time":86.12500000000009,"velocity":0.7637795275590551,"duration":0.1236979166666714},{"name":"F4","midi":65,"time":86.25000000000009,"velocity":0.7637795275590551,"duration":0.1236979166666714},{"name":"D#4","midi":63,"time":86.37500000000009,"velocity":0.7637795275590551,"duration":0.1236979166666714},{"name":"F4","midi":65,"time":86.50000000000009,"velocity":0.7637795275590551,"duration":0.1236979166666714},{"name":"D#4","midi":63,"time":86.62500000000009,"velocity":0.7637795275590551,"duration":0.1236979166666714},{"name":"D4","midi":62,"time":86.75000000000009,"velocity":0.7637795275590551,"duration":0.1236979166666714},{"name":"D#4","midi":63,"time":86.87500000000009,"velocity":0.7637795275590551,"duration":0.1236979166666714},{"name":"D4","midi":62,"time":87.00000000000009,"velocity":0.7637795275590551,"duration":0.4986979166666714},{"name":"D2","midi":38,"time":87.25000000000009,"velocity":0.7637795275590551,"duration":0.1236979166666714},{"name":"D#2","midi":39,"time":87.37500000000009,"velocity":0.7637795275590551,"duration":0.1236979166666714},{"name":"F2","midi":41,"time":87.50000000000009,"velocity":0.7637795275590551,"duration":0.1236979166666714},{"name":"C4","midi":60,"time":87.50000000000009,"velocity":0.7637795275590551,"duration":0.4947916666666714},{"name":"G2","midi":43,"time":87.62500000000009,"velocity":0.7637795275590551,"duration":0.1236979166666714},{"name":"A2","midi":45,"time":87.75000000000009,"velocity":0.7637795275590551,"duration":0.1236979166666714},{"name":"B2","midi":47,"time":87.87500000000009,"velocity":0.7637795275590551,"duration":0.1236979166666714},{"name":"C3","midi":48,"time":88.00000000000009,"velocity":0.7637795275590551,"duration":0.4986979166666714},{"name":"C4","midi":60,"time":88.50000000000009,"velocity":0.7637795275590551,"duration":0.4986979166666714},{"name":"G4","midi":67,"time":88.50000000000009,"velocity":0.7637795275590551,"duration":0.6236979166666714},{"name":"A#3","midi":58,"time":89.00000000000009,"velocity":0.7637795275590551,"duration":0.4986979166666714},{"name":"G#4","midi":68,"time":89.12500000000009,"velocity":0.7637795275590551,"duration":0.1236979166666714},{"name":"G4","midi":67,"time":89.25000000000009,"velocity":0.7637795275590551,"duration":0.1236979166666714},{"name":"F4","midi":65,"time":89.37500000000009,"velocity":0.7637795275590551,"duration":0.1236979166666714},{"name":"G#3","midi":56,"time":89.50000000000009,"velocity":0.7637795275590551,"duration":0.4986979166666714},{"name":"G4","midi":67,"time":89.50000000000009,"velocity":0.7637795275590551,"duration":0.2486979166666714},{"name":"G#4","midi":68,"time":89.75000000000009,"velocity":0.7637795275590551,"duration":0.2486979166666714},{"name":"G3","midi":55,"time":90.00000000000009,"velocity":0.7637795275590551,"duration":0.4986979166666714},{"name":"A#4","midi":70,"time":90.00000000000009,"velocity":0.7637795275590551,"duration":0.2486979166666714},{"name":"D5","midi":74,"time":90.25000000000009,"velocity":0.7637795275590551,"duration":0.2486979166666714},{"name":"A#3","midi":58,"time":90.50000000000009,"velocity":0.7637795275590551,"duration":0.4986979166666714},{"name":"D#5","midi":75,"time":90.50000000000009,"velocity":0.7637795275590551,"duration":0.5729166666666714},{"name":"G3","midi":55,"time":91.00000000000009,"velocity":0.7637795275590551,"duration":0.4986979166666714},{"name":"A#4","midi":70,"time":91.12500000000009,"velocity":0.7637795275590551,"duration":0.1236979166666714},{"name":"D#5","midi":75,"time":91.25000000000009,"velocity":0.7637795275590551,"duration":0.1236979166666714},{"name":"F5","midi":77,"time":91.37500000000009,"velocity":0.7637795275590551,"duration":0.1236979166666714},{"name":"D#3","midi":51,"time":91.50000000000009,"velocity":0.7637795275590551,"duration":0.4986979166666714},{"name":"G5","midi":79,"time":91.50000000000009,"velocity":0.7637795275590551,"duration":0.2486979166666714},{"name":"D#5","midi":75,"time":91.75000000000009,"velocity":0.7637795275590551,"duration":0.2486979166666714},{"name":"G#3","midi":56,"time":92.00000000000009,"velocity":0.7637795275590551,"duration":0.4986979166666572},{"name":"C#5","midi":73,"time":92.00000000000009,"velocity":0.7637795275590551,"duration":0.2486979166666714},{"name":"C5","midi":72,"time":92.25000000000009,"velocity":0.7637795275590551,"duration":0.2395833333333286},{"name":"C4","midi":60,"time":92.50000000000007,"velocity":0.7637795275590551,"duration":0.4986979166666714},{"name":"F5","midi":77,"time":92.50000000000007,"velocity":0.7637795275590551,"duration":0.5729166666666714},{"name":"G#3","midi":56,"time":93.00000000000007,"velocity":0.7637795275590551,"duration":0.4986979166666714},{"name":"C5","midi":72,"time":93.12500000000007,"velocity":0.7637795275590551,"duration":0.1236979166666714},{"name":"F5","midi":77,"time":93.25000000000007,"velocity":0.7637795275590551,"duration":0.1236979166666714},{"name":"G5","midi":79,"time":93.37500000000007,"velocity":0.7637795275590551,"duration":0.1236979166666714},{"name":"F3","midi":53,"time":93.50000000000007,"velocity":0.7637795275590551,"duration":0.4986979166666714},{"name":"G#5","midi":80,"time":93.50000000000007,"velocity":0.7637795275590551,"duration":0.2486979166666714},{"name":"F5","midi":77,"time":93.75000000000007,"velocity":0.7637795275590551,"duration":0.2486979166666714},{"name":"A#3","midi":58,"time":94.00000000000007,"velocity":0.7637795275590551,"duration":0.4986979166666714},{"name":"D#5","midi":75,"time":94.00000000000007,"velocity":0.7637795275590551,"duration":0.2486979166666714},{"name":"C5","midi":72,"time":94.25000000000007,"velocity":0.7637795275590551,"duration":0.2486979166666714},{"name":"G#3","midi":56,"time":94.50000000000007,"velocity":0.7637795275590551,"duration":0.4986979166666714},{"name":"D5","midi":74,"time":94.50260416666674,"velocity":0.7637795275590551,"duration":0.4661458333333286},{"name":"G3","midi":55,"time":95.00000000000007,"velocity":0.7637795275590551,"duration":0.4986979166666714},{"name":"F5","midi":77,"time":95.12500000000007,"velocity":0.7637795275590551,"duration":0.1236979166666714},{"name":"G5","midi":79,"time":95.25000000000007,"velocity":0.7637795275590551,"duration":0.1236979166666714},{"name":"G#5","midi":80,"time":95.37500000000007,"velocity":0.7637795275590551,"duration":0.1236979166666714},{"name":"F3","midi":53,"time":95.50000000000007,"velocity":0.7637795275590551,"duration":0.4986979166666714},{"name":"A#5","midi":82,"time":95.50000000000007,"velocity":0.7637795275590551,"duration":0.1236979166666714},{"name":"G#5","midi":80,"time":95.62500000000007,"velocity":0.7637795275590551,"duration":0.1236979166666714},{"name":"G5","midi":79,"time":95.75000000000007,"velocity":0.7637795275590551,"duration":0.1236979166666714},{"name":"G#5","midi":80,"time":95.87500000000007,"velocity":0.7637795275590551,"duration":0.1236979166666714},{"name":"E3","midi":52,"time":96.00000000000007,"velocity":0.7637795275590551,"duration":0.4986979166666714},{"name":"A#5","midi":82,"time":96.00000000000007,"velocity":0.7637795275590551,"duration":0.1236979166666714},{"name":"G#5","midi":80,"time":96.12500000000007,"velocity":0.7637795275590551,"duration":0.1236979166666714},{"name":"G5","midi":79,"time":96.25000000000007,"velocity":0.7637795275590551,"duration":0.3385416666666714},{"name":"G3","midi":55,"time":96.50000000000007,"velocity":0.7637795275590551,"duration":0.4986979166666714},{"name":"F5","midi":77,"time":96.62500000000007,"velocity":0.7637795275590551,"duration":0.1236979166666714},{"name":"E5","midi":76,"time":96.75000000000007,"velocity":0.7637795275590551,"duration":0.3385416666666714},{"name":"C4","midi":60,"time":97.00000000000007,"velocity":0.7637795275590551,"duration":0.4986979166666714},{"name":"D5","midi":74,"time":97.12500000000007,"velocity":0.7637795275590551,"duration":0.1236979166666714},{"name":"C5","midi":72,"time":97.25000000000007,"velocity":0.7637795275590551,"duration":0.3736979166666714},{"name":"E3","midi":52,"time":97.50000000000007,"velocity":0.7637795275590551,"duration":0.4986979166666714},{"name":"G5","midi":79,"time":97.62500000000007,"velocity":0.7637795275590551,"duration":0.1236979166666714},{"name":"G#5","midi":80,"time":97.75000000000007,"velocity":0.7637795275590551,"duration":0.1236979166666714},{"name":"A#5","midi":82,"time":97.87500000000007,"velocity":0.7637795275590551,"duration":0.1236979166666714},{"name":"F3","midi":53,"time":98.00000000000007,"velocity":0.7637795275590551,"duration":0.4986979166666714},{"name":"G#5","midi":80,"time":98.00000000000007,"velocity":0.7637795275590551,"duration":0.1236979166666714},{"name":"G5","midi":79,"time":98.12500000000007,"velocity":0.7637795275590551,"duration":0.1236979166666714},{"name":"F5","midi":77,"time":98.25000000000007,"velocity":0.7637795275590551,"duration":0.3385416666666714},{"name":"G#3","midi":56,"time":98.50000000000007,"velocity":0.7637795275590551,"duration":0.4986979166666714},{"name":"D#5","midi":75,"time":98.62500000000007,"velocity":0.7637795275590551,"duration":0.1236979166666714},{"name":"C#5","midi":73,"time":98.75000000000007,"velocity":0.7637795275590551,"duration":0.3385416666666714},{"name":"F3","midi":53,"time":99.00000000000007,"velocity":0.7637795275590551,"duration":0.4986979166666714},{"name":"C5","midi":72,"time":99.12500000000007,"velocity":0.7637795275590551,"duration":0.1236979166666714},{"name":"A#4","midi":70,"time":99.25000000000007,"velocity":0.7637795275590551,"duration":0.3645833333333286},{"name":"C#3","midi":49,"time":99.50000000000007,"velocity":0.7637795275590551,"duration":0.4986979166666714},{"name":"F5","midi":77,"time":99.62500000000007,"velocity":0.7637795275590551,"duration":0.1236979166666714},{"name":"G5","midi":79,"time":99.75000000000007,"velocity":0.7637795275590551,"duration":0.1236979166666714},{"name":"G#5","midi":80,"time":99.87500000000007,"velocity":0.7637795275590551,"duration":0.1236979166666714},{"name":"A#2","midi":46,"time":100.00000000000007,"velocity":0.7637795275590551,"duration":0.4986979166666572},{"name":"G5","midi":79,"time":100.00000000000007,"velocity":0.7637795275590551,"duration":0.2083333333333286},{"name":"F5","midi":77,"time":100.12500000000007,"velocity":0.7637795275590551,"duration":0.12369791666665719},{"name":"E5","midi":76,"time":100.25000000000006,"velocity":0.7637795275590551,"duration":0.1236979166666714},{"name":"F5","midi":77,"time":100.37500000000006,"velocity":0.7637795275590551,"duration":0.1236979166666714},{"name":"G2","midi":43,"time":100.50000000000006,"velocity":0.7637795275590551,"duration":0.4986979166666572},{"name":"A#5","midi":82,"time":100.50000000000006,"velocity":0.7637795275590551,"duration":0.2473958333333286},{"name":"F5","midi":77,"time":100.62500000000006,"velocity":0.7637795275590551,"duration":0.12369791666665719},{"name":"E5","midi":76,"time":100.75000000000004,"velocity":0.7637795275590551,"duration":0.1236979166666714},{"name":"F5","midi":77,"time":100.87500000000004,"velocity":0.7637795275590551,"duration":0.1236979166666714},{"name":"C3","midi":48,"time":101.00000000000004,"velocity":0.7637795275590551,"duration":0.4986979166666714},{"name":"G#5","midi":80,"time":101.00000000000004,"velocity":0.7637795275590551,"duration":0.234375},{"name":"F5","midi":77,"time":101.12500000000004,"velocity":0.7637795275590551,"duration":0.1236979166666714},{"name":"E5","midi":76,"time":101.25000000000004,"velocity":0.7637795275590551,"duration":0.1236979166666714},{"name":"F5","midi":77,"time":101.37500000000004,"velocity":0.7637795275590551,"duration":0.1236979166666714},{"name":"C2","midi":36,"time":101.50000000000004,"velocity":0.7637795275590551,"duration":0.4986979166666714},{"name":"G5","midi":79,"time":101.50000000000004,"velocity":0.7637795275590551,"duration":0.1432291666666714},{"name":"F5","midi":77,"time":101.62500000000004,"velocity":0.7637795275590551,"duration":0.1236979166666714},{"name":"E5","midi":76,"time":101.75000000000004,"velocity":0.7637795275590551,"duration":0.1236979166666714},{"name":"F5","midi":77,"time":101.87500000000004,"velocity":0.7637795275590551,"duration":0.1236979166666714},{"name":"F2","midi":41,"time":102.00000000000004,"velocity":0.7637795275590551,"duration":0.2486979166666714},{"name":"F5","midi":77,"time":102.00000000000004,"velocity":0.7637795275590551,"duration":0.9986979166666714},{"name":"G2","midi":43,"time":102.25000000000004,"velocity":0.7637795275590551,"duration":0.1236979166666714},{"name":"G#2","midi":44,"time":102.37500000000004,"velocity":0.7637795275590551,"duration":0.1236979166666714},{"name":"A#2","midi":46,"time":102.50000000000004,"velocity":0.7637795275590551,"duration":0.1236979166666714},{"name":"C3","midi":48,"time":102.62500000000004,"velocity":0.7637795275590551,"duration":0.1236979166666714},{"name":"D3","midi":50,"time":102.75000000000004,"velocity":0.7637795275590551,"duration":0.1236979166666714},{"name":"E3","midi":52,"time":102.87500000000004,"velocity":0.7637795275590551,"duration":0.1236979166666714},{"name":"F3","midi":53,"time":103.00000000000004,"velocity":0.7637795275590551,"duration":0.46875},{"name":"D#5","midi":75,"time":103.12500000000004,"velocity":0.7637795275590551,"duration":0.1236979166666714},{"name":"D5","midi":74,"time":103.25000000000004,"velocity":0.7637795275590551,"duration":0.1236979166666714},{"name":"D#5","midi":75,"time":103.37500000000004,"velocity":0.7637795275590551,"duration":0.1236979166666714},{"name":"D#3","midi":51,"time":103.50000000000004,"velocity":0.7637795275590551,"duration":0.4986979166666714},{"name":"F5","midi":77,"time":103.50000000000004,"velocity":0.7637795275590551,"duration":0.1236979166666714},{"name":"D5","midi":74,"time":103.62500000000004,"velocity":0.7637795275590551,"duration":0.1236979166666714},{"name":"D#5","midi":75,"time":103.75000000000004,"velocity":0.7637795275590551,"duration":0.1236979166666714},{"name":"F5","midi":77,"time":103.87500000000004,"velocity":0.7637795275590551,"duration":0.1236979166666714},{"name":"D3","midi":50,"time":104.00000000000004,"velocity":0.7637795275590551,"duration":0.4986979166666714},{"name":"A#4","midi":70,"time":104.00000000000004,"velocity":0.7637795275590551,"duration":0.1236979166666714},{"name":"D5","midi":74,"time":104.12500000000004,"velocity":0.7637795275590551,"duration":0.1236979166666714},{"name":"F5","midi":77,"time":104.25000000000004,"velocity":0.7637795275590551,"duration":0.1236979166666714},{"name":"G5","midi":79,"time":104.37500000000004,"velocity":0.7637795275590551,"duration":0.1236979166666714},{"name":"F3","midi":53,"time":104.50000000000004,"velocity":0.7637795275590551,"duration":0.4986979166666714},{"name":"G#5","midi":80,"time":104.50000000000004,"velocity":0.7637795275590551,"duration":0.5729166666666714},{"name":"D3","midi":50,"time":105.00000000000004,"velocity":0.7637795275590551,"duration":0.4986979166666714},{"name":"G5","midi":79,"time":105.12500000000004,"velocity":0.7637795275590551,"duration":0.1236979166666714},{"name":"F5","midi":77,"time":105.25000000000004,"velocity":0.7637795275590551,"duration":0.1236979166666714},{"name":"G#5","midi":80,"time":105.37500000000004,"velocity":0.7637795275590551,"duration":0.1236979166666714},{"name":"A#2","midi":46,"time":105.50000000000004,"velocity":0.7637795275590551,"duration":0.4986979166666714},{"name":"G5","midi":79,"time":105.50000000000004,"velocity":0.7637795275590551,"duration":0.1236979166666714},{"name":"F5","midi":77,"time":105.62500000000004,"velocity":0.7637795275590551,"duration":0.1236979166666714},{"name":"D#5","midi":75,"time":105.75000000000004,"velocity":0.7637795275590551,"duration":0.1236979166666714},{"name":"D5","midi":74,"time":105.87500000000004,"velocity":0.7637795275590551,"duration":0.1236979166666714},{"name":"G3","midi":55,"time":106.00000000000004,"velocity":0.7637795275590551,"duration":0.4986979166666714},{"name":"D#5","midi":75,"time":106.00000000000004,"velocity":0.7637795275590551,"duration":0.1236979166666714},{"name":"A#4","midi":70,"time":106.12500000000004,"velocity":0.7637795275590551,"duration":0.1236979166666714},{"name":"D#5","midi":75,"time":106.25000000000004,"velocity":0.7637795275590551,"duration":0.1236979166666714},{"name":"F5","midi":77,"time":106.37500000000004,"velocity":0.7637795275590551,"duration":0.1236979166666714},{"name":"A#3","midi":58,"time":106.50000000000004,"velocity":0.7637795275590551,"duration":0.4986979166666714},{"name":"G5","midi":79,"time":106.50000000000004,"velocity":0.7637795275590551,"duration":0.5729166666666714},{"name":"D#3","midi":51,"time":107.00000000000004,"velocity":0.7637795275590551,"duration":0.4986979166666714},{"name":"F5","midi":77,"time":107.12500000000004,"velocity":0.7637795275590551,"duration":0.1236979166666714},{"name":"D#5","midi":75,"time":107.25000000000004,"velocity":0.7637795275590551,"duration":0.1236979166666714},{"name":"G5","midi":79,"time":107.37500000000004,"velocity":0.7637795275590551,"duration":0.1236979166666714},{"name":"G3","midi":55,"time":107.50000000000004,"velocity":0.7637795275590551,"duration":0.4986979166666856},{"name":"F5","midi":77,"time":107.50000000000004,"velocity":0.7637795275590551,"duration":0.1236979166666714},{"name":"D#5","midi":75,"time":107.62369791666671,"velocity":0.7637795275590551,"duration":0.1236979166666714},{"name":"D5","midi":74,"time":107.74739583333339,"velocity":0.7637795275590551,"duration":0.1236979166666714},{"name":"C5","midi":72,"time":107.87109375000006,"velocity":0.7637795275590551,"duration":0.08984375},{"name":"A2","midi":45,"time":108.00000000000006,"velocity":0.7637795275590551,"duration":0.4986979166666714},{"name":"A#5","midi":82,"time":108.00000000000006,"velocity":0.7637795275590551,"duration":0.1236979166666714},{"name":"A5","midi":81,"time":108.12500000000006,"velocity":0.7637795275590551,"duration":0.1236979166666714},{"name":"G5","midi":79,"time":108.25000000000006,"velocity":0.7637795275590551,"duration":0.1236979166666714},{"name":"F#5","midi":78,"time":108.37500000000006,"velocity":0.7637795275590551,"duration":0.1236979166666714},{"name":"F#3","midi":54,"time":108.50000000000006,"velocity":0.7637795275590551,"duration":0.4986979166666714},{"name":"D#5","midi":75,"time":108.50000000000006,"velocity":0.7637795275590551,"duration":0.2486979166666714},{"name":"D5","midi":74,"time":108.75000000000006,"velocity":0.7637795275590551,"duration":0.3385416666666714},{"name":"G3","midi":55,"time":109.00000000000006,"velocity":0.7637795275590551,"duration":0.4986979166666714},{"name":"G5","midi":79,"time":109.12500000000006,"velocity":0.7637795275590551,"duration":0.1236979166666714},{"name":"A5","midi":81,"time":109.25000000000006,"velocity":0.7637795275590551,"duration":0.1236979166666714},{"name":"A#5","midi":82,"time":109.37500000000006,"velocity":0.7637795275590551,"duration":0.1236979166666714},{"name":"G2","midi":43,"time":109.50000000000006,"velocity":0.7637795275590551,"duration":0.4986979166666714},{"name":"C#5","midi":73,"time":109.50000000000006,"velocity":0.7637795275590551,"duration":0.2486979166666714},{"name":"D5","midi":74,"time":109.75000000000006,"velocity":0.7637795275590551,"duration":0.3385416666666714},{"name":"D3","midi":50,"time":110.00000000000006,"velocity":0.7637795275590551,"duration":0.4986979166666714},{"name":"F#5","midi":78,"time":110.12500000000006,"velocity":0.7637795275590551,"duration":0.1236979166666714},{"name":"G5","midi":79,"time":110.25000000000006,"velocity":0.7637795275590551,"duration":0.1236979166666714},{"name":"A5","midi":81,"time":110.37500000000006,"velocity":0.7637795275590551,"duration":0.1236979166666714},{"name":"A3","midi":57,"time":110.50000000000006,"velocity":0.7637795275590551,"duration":0.4986979166666714},{"name":"C5","midi":72,"time":110.50000000000006,"velocity":0.7637795275590551,"duration":0.1236979166666714},{"name":"D#5","midi":75,"time":110.62500000000006,"velocity":0.7637795275590551,"duration":0.1236979166666714},{"name":"D5","midi":74,"time":110.75000000000006,"velocity":0.7637795275590551,"duration":0.1236979166666714},{"name":"C5","midi":72,"time":110.87500000000006,"velocity":0.7637795275590551,"duration":0.1236979166666714},{"name":"C4","midi":60,"time":111.00000000000006,"velocity":0.7637795275590551,"duration":0.4986979166666714},{"name":"F#5","midi":78,"time":111.00000000000006,"velocity":0.7637795275590551,"duration":0.1236979166666714},{"name":"D5","midi":74,"time":111.12500000000006,"velocity":0.7637795275590551,"duration":0.1236979166666714},{"name":"E5","midi":76,"time":111.25000000000006,"velocity":0.7637795275590551,"duration":0.1236979166666714},{"name":"F#5","midi":78,"time":111.37500000000006,"velocity":0.7637795275590551,"duration":0.1236979166666714},{"name":"D3","midi":50,"time":111.50000000000006,"velocity":0.7637795275590551,"duration":0.4986979166666714},{"name":"G5","midi":79,"time":111.50000000000006,"velocity":0.7637795275590551,"duration":0.1236979166666714},{"name":"A5","midi":81,"time":111.62500000000006,"velocity":0.7637795275590551,"duration":0.1236979166666714},{"name":"A#5","midi":82,"time":111.75000000000006,"velocity":0.7637795275590551,"duration":0.1236979166666714},{"name":"C6","midi":84,"time":111.87500000000006,"velocity":0.7637795275590551,"duration":0.1171875},{"name":"G3","midi":55,"time":112.00000000000006,"velocity":0.7637795275590551,"duration":0.4986979166666714},{"name":"A#5","midi":82,"time":112.00000000000006,"velocity":0.7637795275590551,"duration":0.1432291666666714},{"name":"A5","midi":81,"time":112.12500000000006,"velocity":0.7637795275590551,"duration":0.1236979166666714},{"name":"G5","midi":79,"time":112.25000000000006,"velocity":0.7637795275590551,"duration":0.1236979166666714},{"name":"F#5","midi":78,"time":112.37500000000006,"velocity":0.7637795275590551,"duration":0.2734375},{"name":"A3","midi":57,"time":112.50000000000006,"velocity":0.7637795275590551,"duration":0.4986979166666714},{"name":"G5","midi":79,"time":112.75000000000006,"velocity":0.7637795275590551,"duration":0.4427083333333286},{"name":"A#3","midi":58,"time":113.00000000000006,"velocity":0.7637795275590551,"duration":0.4986979166666714},{"name":"D5","midi":74,"time":113.25000000000006,"velocity":0.7637795275590551,"duration":0.4427083333333286},{"name":"B3","midi":59,"time":113.50000000000006,"velocity":0.7637795275590551,"duration":0.4986979166666714},{"name":"D#5","midi":75,"time":113.75000000000006,"velocity":0.7637795275590551,"duration":0.4427083333333286},{"name":"C4","midi":60,"time":114.00000000000006,"velocity":0.7637795275590551,"duration":0.4986979166666714},{"name":"B4","midi":71,"time":114.25000000000006,"velocity":0.7637795275590551,"duration":0.4427083333333286},{"name":"D4","midi":62,"time":114.50000000000006,"velocity":0.7637795275590551,"duration":0.4986979166666714},{"name":"C5","midi":72,"time":114.75000000000006,"velocity":0.7637795275590551,"duration":0.3606770833333286},{"name":"D#4","midi":63,"time":115.00000000000006,"velocity":0.7637795275590551,"duration":0.4986979166666714},{"name":"A#4","midi":70,"time":115.12500000000006,"velocity":0.7637795275590551,"duration":0.1236979166666714},{"name":"G#4","midi":68,"time":115.25000000000006,"velocity":0.7637795275590551,"duration":0.1236979166666714},{"name":"G4","midi":67,"time":115.37500000000006,"velocity":0.7637795275590551,"duration":0.1236979166666714},{"name":"C4","midi":60,"time":115.50000000000006,"velocity":0.7637795275590551,"duration":0.4986979166666714},{"name":"G#4","midi":68,"time":115.50000000000006,"velocity":0.7637795275590551,"duration":0.2486979166666714},{"name":"C5","midi":72,"time":115.75000000000006,"velocity":0.7637795275590551,"duration":0.234375},{"name":"A3","midi":57,"time":116.00000000000006,"velocity":0.7637795275590551,"duration":0.4986979166666572},{"name":"F#4","midi":66,"time":116.00000000000006,"velocity":0.7637795275590551,"duration":0.1171875},{"name":"D#5","midi":75,"time":116.12500000000006,"velocity":0.7637795275590551,"duration":0.1236979166666714},{"name":"D5","midi":74,"time":116.25000000000006,"velocity":0.7637795275590551,"duration":0.1236979166666714},{"name":"C5","midi":72,"time":116.37500000000006,"velocity":0.7637795275590551,"duration":0.1028645833333286},{"name":"G3","midi":55,"time":116.50000000000004,"velocity":0.7637795275590551,"duration":0.4986979166666714},{"name":"A#5","midi":82,"time":116.50000000000004,"velocity":0.7637795275590551,"duration":0.3515625},{"name":"A5","midi":81,"time":116.87500000000004,"velocity":0.7637795275590551,"duration":0.1236979166666714},{"name":"D4","midi":62,"time":117.00000000000004,"velocity":0.7637795275590551,"duration":0.9986979166666714},{"name":"G5","midi":79,"time":117.00000000000004,"velocity":0.7637795275590551,"duration":0.5859375},{"name":"D3","midi":50,"time":117.50000000000004,"velocity":0.7637795275590551,"duration":0.4986979166666714},{"name":"F#5","midi":78,"time":117.56250000000004,"velocity":0.7637795275590551,"duration":0.0833333333333286},{"name":"G5","midi":79,"time":117.62500000000004,"velocity":0.7637795275590551,"duration":0.0833333333333286},{"name":"F#5","midi":78,"time":117.68750000000004,"velocity":0.7637795275590551,"duration":0.2473958333333286},{"name":"G5","midi":79,"time":117.93750000000004,"velocity":0.7637795275590551,"duration":0.05859375},{"name":"G3","midi":55,"time":118.00000000000004,"velocity":0.7637795275590551,"duration":0.4986979166666714},{"name":"G5","midi":79,"time":118.00000000000004,"velocity":0.7637795275590551,"duration":0.9986979166666714},{"name":"A3","midi":57,"time":118.50000000000004,"velocity":0.7637795275590551,"duration":0.4986979166666714},{"name":"B3","midi":59,"time":119.00000000000004,"velocity":0.7637795275590551,"duration":0.4986979166666714},{"name":"F5","midi":77,"time":119.12500000000004,"velocity":0.7637795275590551,"duration":0.1236979166666714},{"name":"G5","midi":79,"time":119.25000000000004,"velocity":0.7637795275590551,"duration":0.1236979166666714},{"name":"G#5","midi":80,"time":119.37500000000004,"velocity":0.7637795275590551,"duration":0.1236979166666714},{"name":"G3","midi":55,"time":119.50000000000004,"velocity":0.7637795275590551,"duration":0.4986979166666714},{"name":"G5","midi":79,"time":119.50000000000004,"velocity":0.7637795275590551,"duration":0.1236979166666714},{"name":"F5","midi":77,"time":119.62500000000004,"velocity":0.7637795275590551,"duration":0.1236979166666714},{"name":"D#5","midi":75,"time":119.75000000000004,"velocity":0.7637795275590551,"duration":0.1236979166666714},{"name":"D5","midi":74,"time":119.87500000000004,"velocity":0.7637795275590551,"duration":0.1236979166666714},{"name":"C4","midi":60,"time":120.00000000000004,"velocity":0.7637795275590551,"duration":0.4986979166666714},{"name":"F5","midi":77,"time":120.00000000000004,"velocity":0.7637795275590551,"duration":0.1236979166666714},{"name":"D#5","midi":75,"time":120.12500000000004,"velocity":0.7637795275590551,"duration":0.1236979166666714},{"name":"D5","midi":74,"time":120.25000000000004,"velocity":0.7637795275590551,"duration":0.1236979166666714},{"name":"C5","midi":72,"time":120.37500000000004,"velocity":0.7637795275590551,"duration":0.1236979166666714},{"name":"D#4","midi":63,"time":120.50000000000004,"velocity":0.7637795275590551,"duration":0.4986979166666714},{"name":"G5","midi":79,"time":120.50000000000004,"velocity":0.7637795275590551,"duration":0.4947916666666714},{"name":"C4","midi":60,"time":121.00000000000004,"velocity":0.7637795275590551,"duration":0.4986979166666714},{"name":"D#5","midi":75,"time":121.12500000000004,"velocity":0.7637795275590551,"duration":0.1236979166666714},{"name":"F5","midi":77,"time":121.25000000000004,"velocity":0.7637795275590551,"duration":0.1236979166666714},{"name":"G5","midi":79,"time":121.37500000000004,"velocity":0.7637795275590551,"duration":0.1236979166666714},{"name":"A3","midi":57,"time":121.50000000000004,"velocity":0.7637795275590551,"duration":0.4986979166666714},{"name":"F5","midi":77,"time":121.50000000000004,"velocity":0.7637795275590551,"duration":0.1236979166666714},{"name":"D#5","midi":75,"time":121.62500000000004,"velocity":0.7637795275590551,"duration":0.1236979166666714},{"name":"D5","midi":74,"time":121.75000000000004,"velocity":0.7637795275590551,"duration":0.1236979166666714},{"name":"C5","midi":72,"time":121.87500000000004,"velocity":0.7637795275590551,"duration":0.1236979166666714},{"name":"A#3","midi":58,"time":122.00000000000004,"velocity":0.7637795275590551,"duration":0.4986979166666714},{"name":"D#5","midi":75,"time":122.00000000000004,"velocity":0.7637795275590551,"duration":0.1236979166666714},{"name":"D5","midi":74,"time":122.12500000000004,"velocity":0.7637795275590551,"duration":0.1236979166666714},{"name":"C5","midi":72,"time":122.25000000000004,"velocity":0.7637795275590551,"duration":0.1236979166666714},{"name":"A#4","midi":70,"time":122.37500000000004,"velocity":0.7637795275590551,"duration":0.1236979166666714},{"name":"D4","midi":62,"time":122.50000000000004,"velocity":0.7637795275590551,"duration":0.4986979166666714},{"name":"G5","midi":79,"time":122.50000000000004,"velocity":0.7637795275590551,"duration":0.4947916666666714},{"name":"A#3","midi":58,"time":123.00000000000004,"velocity":0.7637795275590551,"duration":0.4986979166666714},{"name":"D5","midi":74,"time":123.12500000000004,"velocity":0.7637795275590551,"duration":0.1236979166666714},{"name":"D#5","midi":75,"time":123.25000000000004,"velocity":0.7637795275590551,"duration":0.1236979166666714},{"name":"F5","midi":77,"time":123.37500000000004,"velocity":0.7637795275590551,"duration":0.1236979166666714},{"name":"G3","midi":55,"time":123.50000000000004,"velocity":0.7637795275590551,"duration":0.4986979166666714},{"name":"D#5","midi":75,"time":123.50000000000004,"velocity":0.7637795275590551,"duration":0.1236979166666714},{"name":"D5","midi":74,"time":123.62500000000004,"velocity":0.7637795275590551,"duration":0.1236979166666714},{"name":"C5","midi":72,"time":123.75000000000004,"velocity":0.7637795275590551,"duration":0.1236979166666714},{"name":"A#4","midi":70,"time":123.87500000000004,"velocity":0.7637795275590551,"duration":0.1236979166666714},{"name":"A3","midi":57,"time":124.00000000000004,"velocity":0.7637795275590551,"duration":0.4986979166666714},{"name":"D5","midi":74,"time":124.00000000000004,"velocity":0.7637795275590551,"duration":0.1236979166666714},{"name":"C5","midi":72,"time":124.12500000000004,"velocity":0.7637795275590551,"duration":0.1236979166666714},{"name":"A#4","midi":70,"time":124.25000000000004,"velocity":0.7637795275590551,"duration":0.1236979166666714},{"name":"A4","midi":69,"time":124.37500000000004,"velocity":0.7637795275590551,"duration":0.1236979166666714},{"name":"C4","midi":60,"time":124.50000000000004,"velocity":0.7637795275590551,"duration":0.4986979166666714},{"name":"G5","midi":79,"time":124.50000000000004,"velocity":0.7637795275590551,"duration":0.4947916666666714},{"name":"A3","midi":57,"time":125.00000000000004,"velocity":0.7637795275590551,"duration":0.4986979166666714},{"name":"C5","midi":72,"time":125.12500000000004,"velocity":0.7637795275590551,"duration":0.1236979166666714},{"name":"D5","midi":74,"time":125.25000000000004,"velocity":0.7637795275590551,"duration":0.1236979166666714},{"name":"D#5","midi":75,"time":125.37500000000004,"velocity":0.7637795275590551,"duration":0.1236979166666714},{"name":"F#3","midi":54,"time":125.50000000000004,"velocity":0.7637795275590551,"duration":0.4986979166666714},{"name":"D5","midi":74,"time":125.50000000000004,"velocity":0.7637795275590551,"duration":0.1236979166666714},{"name":"C5","midi":72,"time":125.62500000000004,"velocity":0.7637795275590551,"duration":0.1236979166666714},{"name":"A#4","midi":70,"time":125.75000000000004,"velocity":0.7637795275590551,"duration":0.1236979166666714},{"name":"A4","midi":69,"time":125.87500000000004,"velocity":0.7637795275590551,"duration":0.1236979166666714},{"name":"G3","midi":55,"time":126.00000000000004,"velocity":0.7637795275590551,"duration":0.4986979166666714},{"name":"C5","midi":72,"time":126.00000000000004,"velocity":0.7637795275590551,"duration":0.1236979166666714},{"name":"A#4","midi":70,"time":126.12500000000004,"velocity":0.7637795275590551,"duration":0.1236979166666714},{"name":"A4","midi":69,"time":126.25000000000004,"velocity":0.7637795275590551,"duration":0.1236979166666714},{"name":"G4","midi":67,"time":126.37500000000004,"velocity":0.7637795275590551,"duration":0.2473958333333286},{"name":"A#3","midi":58,"time":126.50000000000004,"velocity":0.7637795275590551,"duration":0.4986979166666572},{"name":"G5","midi":79,"time":126.50000000000004,"velocity":0.7637795275590551,"duration":0.4947916666666572},{"name":"G3","midi":55,"time":127.00000000000003,"velocity":0.7637795275590551,"duration":0.4986979166666714},{"name":"A#4","midi":70,"time":127.12500000000003,"velocity":0.7637795275590551,"duration":0.1236979166666714},{"name":"C5","midi":72,"time":127.25000000000003,"velocity":0.7637795275590551,"duration":0.1236979166666714},{"name":"D5","midi":74,"time":127.37500000000003,"velocity":0.7637795275590551,"duration":0.1236979166666714},{"name":"D#3","midi":51,"time":127.50000000000003,"velocity":0.7637795275590551,"duration":0.4986979166666714},{"name":"C5","midi":72,"time":127.50000000000003,"velocity":0.7637795275590551,"duration":0.1236979166666714},{"name":"A#4","midi":70,"time":127.62500000000003,"velocity":0.7637795275590551,"duration":0.1236979166666714},{"name":"G#4","midi":68,"time":127.75000000000003,"velocity":0.7637795275590551,"duration":0.1236979166666714},{"name":"G4","midi":67,"time":127.87500000000003,"velocity":0.7637795275590551,"duration":0.1236979166666714},{"name":"C3","midi":48,"time":128.00000000000003,"velocity":0.7637795275590551,"duration":0.2486979166666572},{"name":"G#4","midi":68,"time":128.00000000000003,"velocity":0.7637795275590551,"duration":0.9986979166666572},{"name":"D3","midi":50,"time":128.25000000000003,"velocity":0.7637795275590551,"duration":0.12369791666665719},{"name":"D#3","midi":51,"time":128.37500000000003,"velocity":0.7637795275590551,"duration":0.12369791666665719},{"name":"F3","midi":53,"time":128.50000000000003,"velocity":0.7637795275590551,"duration":0.12369791666665719},{"name":"G3","midi":55,"time":128.62500000000003,"velocity":0.7637795275590551,"duration":0.12369791666665719},{"name":"G#3","midi":56,"time":128.75000000000003,"velocity":0.7637795275590551,"duration":0.12369791666665719},{"name":"A#3","midi":58,"time":128.87500000000003,"velocity":0.7637795275590551,"duration":0.12369791666665719},{"name":"C4","midi":60,"time":129.00000000000003,"velocity":0.7637795275590551,"duration":0.4947916666666572},{"name":"G#4","midi":68,"time":129.12500000000003,"velocity":0.7637795275590551,"duration":0.12369791666665719},{"name":"C3","midi":48,"time":129.25000000000003,"velocity":0.7637795275590551,"duration":0.375},{"name":"G4","midi":67,"time":129.25000000000003,"velocity":0.7637795275590551,"duration":0.12369791666665719},{"name":"G#4","midi":68,"time":129.37500000000003,"velocity":0.7637795275590551,"duration":0.12369791666665719},{"name":"C4","midi":60,"time":129.50000000000003,"velocity":0.7637795275590551,"duration":0.6770833333333428},{"name":"A#4","midi":70,"time":129.50000000000003,"velocity":0.7637795275590551,"duration":0.12369791666665719},{"name":"G#4","midi":68,"time":129.62500000000003,"velocity":0.7637795275590551,"duration":0.12369791666665719},{"name":"G4","midi":67,"time":129.75000000000003,"velocity":0.7637795275590551,"duration":0.12369791666665719},{"name":"G#4","midi":68,"time":129.87500000000003,"velocity":0.7637795275590551,"duration":0.12369791666665719},{"name":"D#5","midi":75,"time":130.00000000000003,"velocity":0.7637795275590551,"duration":0.9986979166666856},{"name":"C3","midi":48,"time":130.12500000000003,"velocity":0.7637795275590551,"duration":0.12369791666668561},{"name":"D3","midi":50,"time":130.25000000000006,"velocity":0.7637795275590551,"duration":0.12369791666665719},{"name":"D#3","midi":51,"time":130.37500000000006,"velocity":0.7637795275590551,"duration":0.12369791666665719},{"name":"F3","midi":53,"time":130.50000000000006,"velocity":0.7637795275590551,"duration":0.12369791666665719},{"name":"G3","midi":55,"time":130.62500000000006,"velocity":0.7637795275590551,"duration":0.12369791666665719},{"name":"G#3","midi":56,"time":130.75000000000006,"velocity":0.7637795275590551,"duration":0.12369791666665719},{"name":"A#3","midi":58,"time":130.87500000000006,"velocity":0.7637795275590551,"duration":0.12369791666665719},{"name":"C4","midi":60,"time":131.00000000000006,"velocity":0.7637795275590551,"duration":0.4947916666666572},{"name":"C5","midi":72,"time":131.12500000000006,"velocity":0.7637795275590551,"duration":0.12369791666665719},{"name":"C3","midi":48,"time":131.25000000000006,"velocity":0.7637795275590551,"duration":0.3125},{"name":"B4","midi":71,"time":131.25000000000006,"velocity":0.7637795275590551,"duration":0.12369791666665719},{"name":"C5","midi":72,"time":131.37500000000006,"velocity":0.7637795275590551,"duration":0.12369791666665719},{"name":"C4","midi":60,"time":131.50000000000006,"velocity":0.7637795275590551,"duration":1.3671875},{"name":"D5","midi":74,"time":131.50000000000006,"velocity":0.7637795275590551,"duration":0.12369791666665719},{"name":"C5","midi":72,"time":131.62500000000006,"velocity":0.7637795275590551,"duration":0.12369791666665719},{"name":"B4","midi":71,"time":131.75000000000006,"velocity":0.7637795275590551,"duration":0.12369791666665719},{"name":"C5","midi":72,"time":131.87500000000006,"velocity":0.7637795275590551,"duration":0.12369791666665719},{"name":"F#5","midi":78,"time":132.00000000000006,"velocity":0.7637795275590551,"duration":0.2083333333333428},{"name":"D#5","midi":75,"time":132.25000000000006,"velocity":0.7637795275590551,"duration":0.4986979166666572},{"name":"C3","midi":48,"time":132.50000000000006,"velocity":0.7637795275590551,"duration":0.4986979166666572},{"name":"D5","midi":74,"time":132.75000000000006,"velocity":0.7637795275590551,"duration":0.2486979166666572},{"name":"A#2","midi":46,"time":133.00000000000006,"velocity":0.7637795275590551,"duration":0.4986979166666572},{"name":"G5","midi":79,"time":133.00000000000006,"velocity":0.7637795275590551,"duration":0.2083333333333428},{"name":"D5","midi":74,"time":133.25000000000006,"velocity":0.7637795275590551,"duration":0.4986979166666572},{"name":"A#3","midi":58,"time":133.50000000000006,"velocity":0.7637795275590551,"duration":0.4986979166666572},{"name":"C5","midi":72,"time":133.75000000000006,"velocity":0.7637795275590551,"duration":0.2486979166666572},{"name":"F#3","midi":54,"time":134.00000000000006,"velocity":0.7637795275590551,"duration":0.4986979166666572},{"name":"A5","midi":81,"time":134.00000000000006,"velocity":0.7637795275590551,"duration":0.2083333333333428},{"name":"C5","midi":72,"time":134.25000000000006,"velocity":0.7637795275590551,"duration":0.4986979166666572},{"name":"D3","midi":50,"time":134.50000000000006,"velocity":0.7637795275590551,"duration":0.4986979166666572},{"name":"A#4","midi":70,"time":134.75000000000006,"velocity":0.7637795275590551,"duration":0.2864583333333428},{"name":"G3","midi":55,"time":135.00000000000006,"velocity":0.7637795275590551,"duration":0.4986979166666572},{"name":"D5","midi":74,"time":135.12500000000006,"velocity":0.7637795275590551,"duration":0.12369791666665719},{"name":"C5","midi":72,"time":135.25000000000006,"velocity":0.7637795275590551,"duration":0.12369791666665719},{"name":"A#4","midi":70,"time":135.37500000000006,"velocity":0.7637795275590551,"duration":0.12369791666665719},{"name":"D#3","midi":51,"time":135.50000000000006,"velocity":0.7637795275590551,"duration":0.4986979166666572},{"name":"G5","midi":79,"time":135.50000000000006,"velocity":0.7637795275590551,"duration":0.12369791666665719},{"name":"A#4","midi":70,"time":135.62500000000006,"velocity":0.7637795275590551,"duration":0.12369791666665719},{"name":"A4","midi":69,"time":135.75000000000006,"velocity":0.7637795275590551,"duration":0.12369791666665719},{"name":"G4","midi":67,"time":135.87500000000006,"velocity":0.7637795275590551,"duration":0.15625},{"name":"A#5","midi":82,"time":136.03125000000006,"velocity":0.7637795275590551,"duration":1.1236979166666856},{"name":"C#3","midi":49,"time":136.03125000000006,"velocity":0.7637795275590551,"duration":2.3437500000000284},{"name":"E3","midi":52,"time":136.0364583333334,"velocity":0.7637795275590551,"duration":2.3437500000000284},{"name":"G3","midi":55,"time":136.04166666666674,"velocity":0.7637795275590551,"duration":2.3437500000000284},{"name":"A5","midi":81,"time":137.15625000000009,"velocity":0.7637795275590551,"duration":0.12369791666665719},{"name":"G5","midi":79,"time":137.28125000000009,"velocity":0.7637795275590551,"duration":0.12369791666665719},{"name":"F#5","midi":78,"time":137.40625000000009,"velocity":0.7637795275590551,"duration":0.12369791666665719},{"name":"G5","midi":79,"time":137.53125000000009,"velocity":0.7637795275590551,"duration":0.12369791666665719},{"name":"A#5","midi":82,"time":137.65625000000009,"velocity":0.7637795275590551,"duration":0.12369791666665719},{"name":"A5","midi":81,"time":137.78125000000009,"velocity":0.7637795275590551,"duration":0.12369791666665719},{"name":"G5","midi":79,"time":137.90625000000009,"velocity":0.7637795275590551,"duration":0.12369791666665719},{"name":"F#5","midi":78,"time":138.03125000000009,"velocity":0.7637795275590551,"duration":0.12369791666665719},{"name":"E5","midi":76,"time":138.15625000000009,"velocity":0.7637795275590551,"duration":0.12369791666665719},{"name":"D5","midi":74,"time":138.28125000000009,"velocity":0.7637795275590551,"duration":0.12369791666668561},{"name":"C5","midi":72,"time":138.4062500000001,"velocity":0.7637795275590551,"duration":0.12369791666665719},{"name":"A#4","midi":70,"time":138.5312500000001,"velocity":0.7637795275590551,"duration":0.12369791666665719},{"name":"D3","midi":50,"time":138.5312500000001,"velocity":0.7637795275590551,"duration":6.380208333333314},{"name":"G3","midi":55,"time":138.5351562500001,"velocity":0.7637795275590551,"duration":1.9986979166666572},{"name":"A#3","midi":58,"time":138.5390625000001,"velocity":0.7637795275590551,"duration":1.9986979166666572},{"name":"D4","midi":62,"time":138.54166666666677,"velocity":0.7637795275590551,"duration":1.9986979166666572},{"name":"D5","midi":74,"time":138.6562500000001,"velocity":0.7637795275590551,"duration":0.12369791666665719},{"name":"C5","midi":72,"time":138.7812500000001,"velocity":0.7637795275590551,"duration":0.12369791666665719},{"name":"D#5","midi":75,"time":138.9062500000001,"velocity":0.7637795275590551,"duration":0.12369791666665719},{"name":"D5","midi":74,"time":139.0312500000001,"velocity":0.7637795275590551,"duration":0.12369791666665719},{"name":"G5","midi":79,"time":139.1562500000001,"velocity":0.7637795275590551,"duration":0.12369791666665719},{"name":"F#5","midi":78,"time":139.2812500000001,"velocity":0.7637795275590551,"duration":0.12369791666665719},{"name":"E5","midi":76,"time":139.4062500000001,"velocity":0.7637795275590551,"duration":0.12369791666665719},{"name":"D5","midi":74,"time":139.5312500000001,"velocity":0.7637795275590551,"duration":0.12369791666665719},{"name":"C5","midi":72,"time":139.6562500000001,"velocity":0.7637795275590551,"duration":0.12369791666665719},{"name":"A#4","midi":70,"time":139.7812500000001,"velocity":0.7637795275590551,"duration":0.12369791666665719},{"name":"A4","midi":69,"time":139.9062500000001,"velocity":0.7637795275590551,"duration":0.12369791666665719},{"name":"A#4","midi":70,"time":140.0312500000001,"velocity":0.7637795275590551,"duration":0.12369791666665719},{"name":"D5","midi":74,"time":140.1562500000001,"velocity":0.7637795275590551,"duration":0.12369791666665719},{"name":"A#4","midi":70,"time":140.2812500000001,"velocity":0.7637795275590551,"duration":0.12369791666665719},{"name":"G4","midi":67,"time":140.4062500000001,"velocity":0.7637795275590551,"duration":0.4986979166666572},{"name":"C#4","midi":61,"time":140.5312500000001,"velocity":0.7637795275590551,"duration":1.8736979166666572},{"name":"E5","midi":76,"time":140.9062500000001,"velocity":0.7637795275590551,"duration":0.12369791666665719},{"name":"F#5","midi":78,"time":141.0312500000001,"velocity":0.7637795275590551,"duration":0.12369791666665719},{"name":"G5","midi":79,"time":141.1562500000001,"velocity":0.7637795275590551,"duration":0.06119791666665719},{"name":"F#5","midi":78,"time":141.2187500000001,"velocity":0.7637795275590551,"duration":0.06119791666665719},{"name":"G5","midi":79,"time":141.2812500000001,"velocity":0.7637795275590551,"duration":0.06119791666665719},{"name":"F#5","midi":78,"time":141.3437500000001,"velocity":0.7637795275590551,"duration":0.06119791666665719},{"name":"E5","midi":76,"time":141.4062500000001,"velocity":0.7637795275590551,"duration":0.06119791666665719},{"name":"F#5","midi":78,"time":141.4687500000001,"velocity":0.7637795275590551,"duration":0.06119791666665719},{"name":"G5","midi":79,"time":141.5312500000001,"velocity":0.7637795275590551,"duration":0.12369791666665719},{"name":"A#4","midi":70,"time":141.6562500000001,"velocity":0.7637795275590551,"duration":0.12369791666665719},{"name":"A4","midi":69,"time":141.7812500000001,"velocity":0.7637795275590551,"duration":0.12369791666665719},{"name":"G4","midi":67,"time":141.9062500000001,"velocity":0.7637795275590551,"duration":0.12369791666665719},{"name":"F#4","midi":66,"time":142.0312500000001,"velocity":0.7637795275590551,"duration":0.12369791666665719},{"name":"G4","midi":67,"time":142.1562500000001,"velocity":0.7637795275590551,"duration":0.2486979166666572},{"name":"A#4","midi":70,"time":142.4062500000001,"velocity":0.7637795275590551,"duration":0.4986979166666572},{"name":"C#4","midi":61,"time":142.4062500000001,"velocity":0.7637795275590551,"duration":0.2486979166666572},{"name":"D4","midi":62,"time":142.6562500000001,"velocity":0.7637795275590551,"duration":0.4986979166666572},{"name":"C5","midi":72,"time":142.9062500000001,"velocity":0.7637795275590551,"duration":0.12369791666665719},{"name":"A#4","midi":70,"time":143.0312500000001,"velocity":0.7637795275590551,"duration":0.12369791666665719},{"name":"A4","midi":69,"time":143.1562500000001,"velocity":0.7637795275590551,"duration":0.12369791666665719},{"name":"C4","midi":60,"time":143.1562500000001,"velocity":0.7637795275590551,"duration":0.2486979166666572},{"name":"A#4","midi":70,"time":143.2812500000001,"velocity":0.7637795275590551,"duration":0.12369791666665719},{"name":"C5","midi":72,"time":143.4062500000001,"velocity":0.7637795275590551,"duration":0.12369791666665719},{"name":"A#3","midi":58,"time":143.4062500000001,"velocity":0.7637795275590551,"duration":0.2486979166666572},{"name":"A4","midi":69,"time":143.5312500000001,"velocity":0.7637795275590551,"duration":0.12369791666665719},{"name":"G4","midi":67,"time":143.6562500000001,"velocity":0.7637795275590551,"duration":0.12369791666665719},{"name":"A3","midi":57,"time":143.6562500000001,"velocity":0.7637795275590551,"duration":0.2486979166666572},{"name":"F#4","midi":66,"time":143.7812500000001,"velocity":0.7637795275590551,"duration":0.06119791666665719},{"name":"G4","midi":67,"time":143.8437500000001,"velocity":0.7637795275590551,"duration":0.06119791666665719},{"name":"F#4","midi":66,"time":143.9062500000001,"velocity":0.7637795275590551,"duration":0.06119791666665719},{"name":"A#3","midi":58,"time":143.9062500000001,"velocity":0.7637795275590551,"duration":0.2486979166666572},{"name":"G4","midi":67,"time":143.9687500000001,"velocity":0.7637795275590551,"duration":0.06119791666665719},{"name":"F#4","midi":66,"time":144.0312500000001,"velocity":0.7637795275590551,"duration":0.06119791666665719},{"name":"G4","midi":67,"time":144.0937500000001,"velocity":0.7637795275590551,"duration":0.06119791666665719},{"name":"F#4","midi":66,"time":144.1562500000001,"velocity":0.7637795275590551,"duration":0.06119791666665719},{"name":"C4","midi":60,"time":144.1562500000001,"velocity":0.7637795275590551,"duration":0.8294270833333144},{"name":"G4","midi":67,"time":144.2187500000001,"velocity":0.7637795275590551,"duration":0.06119791666665719},{"name":"F#4","midi":66,"time":144.2812500000001,"velocity":0.7637795275590551,"duration":0.06119791666665719},{"name":"G4","midi":67,"time":144.3437500000001,"velocity":0.7637795275590551,"duration":0.06119791666665719},{"name":"F#4","midi":66,"time":144.4062500000001,"velocity":0.7637795275590551,"duration":0.3385416666666572},{"name":"G4","midi":67,"time":144.85677083333343,"velocity":0.7637795275590551,"duration":0.1276041666666572},{"name":"G2","midi":43,"time":144.98958333333343,"velocity":0.7637795275590551,"duration":0.2604166666666572},{"name":"G4","midi":67,"time":144.98958333333343,"velocity":0.7637795275590551,"duration":0.2330729166666572},{"name":"D4","midi":62,"time":144.98958333333343,"velocity":0.7637795275590551,"duration":0.2604166666666572},{"name":"B3","midi":59,"time":144.98958333333343,"velocity":0.7637795275590551,"duration":0.2604166666666572},{"name":"G3","midi":55,"time":144.98958333333343,"velocity":0.7637795275590551,"duration":0.2604166666666572},{"name":"G4","midi":67,"time":145.23958333333343,"velocity":0.7637795275590551,"duration":0.12369791666665719},{"name":"A4","midi":69,"time":145.36458333333343,"velocity":0.7637795275590551,"duration":0.12369791666665719},{"name":"B4","midi":71,"time":145.48958333333343,"velocity":0.7637795275590551,"duration":0.2486979166666572},{"name":"C5","midi":72,"time":145.73958333333343,"velocity":0.7637795275590551,"duration":0.2486979166666572},{"name":"D5","midi":74,"time":145.98958333333343,"velocity":0.7637795275590551,"duration":0.2486979166666572},{"name":"D#5","midi":75,"time":146.23958333333343,"velocity":0.7637795275590551,"duration":0.2486979166666572},{"name":"F5","midi":77,"time":146.48958333333343,"velocity":0.7637795275590551,"duration":0.12369791666665719},{"name":"D#5","midi":75,"time":146.61458333333343,"velocity":0.7637795275590551,"duration":0.12369791666665719},{"name":"D5","midi":74,"time":146.73958333333343,"velocity":0.7637795275590551,"duration":0.12369791666665719},{"name":"D#5","midi":75,"time":146.86458333333343,"velocity":0.7637795275590551,"duration":0.12369791666665719},{"name":"F5","midi":77,"time":146.98958333333343,"velocity":0.7637795275590551,"duration":0.2486979166666572},{"name":"G5","midi":79,"time":147.23958333333343,"velocity":0.7637795275590551,"duration":0.2486979166666572},{"name":"G#5","midi":80,"time":147.48958333333343,"velocity":0.7637795275590551,"duration":0.234375},{"name":"D5","midi":74,"time":147.73958333333343,"velocity":0.7637795275590551,"duration":0.234375},{"name":"F5","midi":77,"time":147.98958333333343,"velocity":0.7637795275590551,"duration":0.234375},{"name":"B4","midi":71,"time":148.23958333333343,"velocity":0.7637795275590551,"duration":0.234375},{"name":"D5","midi":74,"time":148.48958333333343,"velocity":0.7637795275590551,"duration":0.234375},{"name":"G4","midi":67,"time":148.73958333333343,"velocity":0.7637795275590551,"duration":0.234375},{"name":"G5","midi":79,"time":148.98958333333343,"velocity":0.7637795275590551,"duration":0.12369791666665719},{"name":"F5","midi":77,"time":149.11458333333343,"velocity":0.7637795275590551,"duration":0.12369791666665719},{"name":"D#5","midi":75,"time":149.23958333333343,"velocity":0.7637795275590551,"duration":0.12369791666665719},{"name":"D5","midi":74,"time":149.36458333333343,"velocity":0.7637795275590551,"duration":0.12369791666665719},{"name":"D#5","midi":75,"time":149.48958333333343,"velocity":0.7637795275590551,"duration":0.2083333333333428},{"name":"C4","midi":60,"time":149.73958333333343,"velocity":0.7637795275590551,"duration":0.12369791666665719},{"name":"C6","midi":84,"time":149.73958333333343,"velocity":0.7637795275590551,"duration":0.4986979166666572},{"name":"D4","midi":62,"time":149.86458333333343,"velocity":0.7637795275590551,"duration":0.12369791666665719},{"name":"D#4","midi":63,"time":149.98958333333343,"velocity":0.7637795275590551,"duration":0.2486979166666572},{"name":"F4","midi":65,"time":150.23958333333343,"velocity":0.7637795275590551,"duration":0.2486979166666572},{"name":"A#5","midi":82,"time":150.23958333333343,"velocity":0.7637795275590551,"duration":0.12369791666665719},{"name":"G#5","midi":80,"time":150.36458333333343,"velocity":0.7637795275590551,"duration":0.12369791666665719},{"name":"G4","midi":67,"time":150.48958333333343,"velocity":0.7637795275590551,"duration":0.2486979166666572},{"name":"G5","midi":79,"time":150.48958333333343,"velocity":0.7637795275590551,"duration":0.12369791666665719},{"name":"F5","midi":77,"time":150.61458333333343,"velocity":0.7637795275590551,"duration":0.12369791666665719},{"name":"G#4","midi":68,"time":150.73958333333343,"velocity":0.7637795275590551,"duration":0.2486979166666572},{"name":"D#5","midi":75,"time":150.73958333333343,"velocity":0.7637795275590551,"duration":0.12369791666665719},{"name":"D5","midi":74,"time":150.86458333333343,"velocity":0.7637795275590551,"duration":0.12369791666665719},{"name":"A#4","midi":70,"time":150.98958333333343,"velocity":0.7637795275590551,"duration":0.12369791666665719},{"name":"C5","midi":72,"time":150.98958333333343,"velocity":0.7637795275590551,"duration":0.5989583333333428},{"name":"G#4","midi":68,"time":151.11458333333343,"velocity":0.7637795275590551,"duration":0.12369791666665719},{"name":"G4","midi":67,"time":151.23958333333343,"velocity":0.7637795275590551,"duration":0.12369791666665719},{"name":"G#4","midi":68,"time":151.36458333333343,"velocity":0.7637795275590551,"duration":0.12369791666665719},{"name":"A#4","midi":70,"time":151.48958333333343,"velocity":0.7637795275590551,"duration":0.2486979166666572},{"name":"D5","midi":74,"time":151.61458333333343,"velocity":0.7637795275590551,"duration":0.12369791666665719},{"name":"C5","midi":72,"time":151.73958333333343,"velocity":0.7637795275590551,"duration":0.2486979166666572},{"name":"E5","midi":76,"time":151.73958333333343,"velocity":0.7637795275590551,"duration":0.12369791666665719},{"name":"F5","midi":77,"time":151.86458333333343,"velocity":0.7637795275590551,"duration":0.12369791666665719},{"name":"C#5","midi":73,"time":151.98958333333343,"velocity":0.7637795275590551,"duration":0.234375},{"name":"G5","midi":79,"time":151.98958333333343,"velocity":0.7637795275590551,"duration":0.12369791666665719},{"name":"G#5","midi":80,"time":152.11458333333343,"velocity":0.7637795275590551,"duration":0.12369791666665719},{"name":"G4","midi":67,"time":152.23958333333343,"velocity":0.7637795275590551,"duration":0.234375},{"name":"A#5","midi":82,"time":152.23958333333343,"velocity":0.7637795275590551,"duration":0.12369791666665719},{"name":"G5","midi":79,"time":152.36458333333343,"velocity":0.7637795275590551,"duration":0.12369791666665719},{"name":"A#4","midi":70,"time":152.48958333333343,"velocity":0.7637795275590551,"duration":0.2473958333333428},{"name":"E5","midi":76,"time":152.48958333333343,"velocity":0.7637795275590551,"duration":0.2083333333333428},{"name":"E4","midi":64,"time":152.73958333333343,"velocity":0.7637795275590551,"duration":0.234375},{"name":"C#6","midi":85,"time":152.73958333333343,"velocity":0.7637795275590551,"duration":0.3515625},{"name":"G4","midi":67,"time":152.98958333333343,"velocity":0.7637795275590551,"duration":0.234375},{"name":"G5","midi":79,"time":153.11458333333343,"velocity":0.7637795275590551,"duration":0.12369791666665719},{"name":"C4","midi":60,"time":153.23958333333343,"velocity":0.7637795275590551,"duration":0.234375},{"name":"G#5","midi":80,"time":153.23958333333343,"velocity":0.7637795275590551,"duration":0.12369791666665719},{"name":"A#5","midi":82,"time":153.36458333333343,"velocity":0.7637795275590551,"duration":0.12369791666665719},{"name":"C5","midi":72,"time":153.48958333333343,"velocity":0.7637795275590551,"duration":0.12369791666665719},{"name":"G#5","midi":80,"time":153.48958333333343,"velocity":0.7637795275590551,"duration":0.12369791666665719},{"name":"A#4","midi":70,"time":153.61458333333343,"velocity":0.7637795275590551,"duration":0.12369791666665719},{"name":"G5","midi":79,"time":153.61458333333343,"velocity":0.7637795275590551,"duration":0.12369791666665719},{"name":"G#4","midi":68,"time":153.73958333333343,"velocity":0.7637795275590551,"duration":0.12369791666665719},{"name":"F5","midi":77,"time":153.73958333333343,"velocity":0.7637795275590551,"duration":0.12369791666665719},{"name":"G4","midi":67,"time":153.86458333333343,"velocity":0.7637795275590551,"duration":0.12369791666665719},{"name":"E5","midi":76,"time":153.86458333333343,"velocity":0.7637795275590551,"duration":0.12369791666665719},{"name":"G#4","midi":68,"time":153.98958333333343,"velocity":0.7637795275590551,"duration":0.2486979166666572},{"name":"F5","midi":77,"time":153.98958333333343,"velocity":0.7637795275590551,"duration":0.12369791666665719},{"name":"G5","midi":79,"time":154.11458333333343,"velocity":0.7637795275590551,"duration":0.12369791666665719},{"name":"F4","midi":65,"time":154.23958333333343,"velocity":0.7637795275590551,"duration":0.2486979166666572},{"name":"G#5","midi":80,"time":154.23958333333343,"velocity":0.7637795275590551,"duration":0.3125},{"name":"G4","midi":67,"time":154.48958333333343,"velocity":0.7637795275590551,"duration":0.2486979166666572},{"name":"G5","midi":79,"time":154.61458333333343,"velocity":0.7637795275590551,"duration":0.12369791666665719},{"name":"G#4","midi":68,"time":154.73958333333343,"velocity":0.7637795275590551,"duration":0.2486979166666572},{"name":"F5","midi":77,"time":154.73958333333343,"velocity":0.7637795275590551,"duration":0.12369791666665719},{"name":"D#5","midi":75,"time":154.86458333333343,"velocity":0.7637795275590551,"duration":0.12369791666665719},{"name":"A#4","midi":70,"time":154.98958333333343,"velocity":0.7637795275590551,"duration":0.2486979166666572},{"name":"D5","midi":74,"time":154.98958333333343,"velocity":0.7637795275590551,"duration":0.12369791666665719},{"name":"C5","midi":72,"time":155.11458333333343,"velocity":0.7637795275590551,"duration":0.12369791666665719},{"name":"G#4","midi":68,"time":155.23958333333343,"velocity":0.7637795275590551,"duration":0.2486979166666572},{"name":"D5","midi":74,"time":155.23958333333343,"velocity":0.7637795275590551,"duration":0.12369791666665719},{"name":"F5","midi":77,"time":155.36458333333343,"velocity":0.7637795275590551,"duration":0.12369791666665719},{"name":"G4","midi":67,"time":155.48958333333343,"velocity":0.7637795275590551,"duration":0.2486979166666572},{"name":"D#5","midi":75,"time":155.48958333333343,"velocity":0.7637795275590551,"duration":0.12369791666665719},{"name":"F5","midi":77,"time":155.61458333333343,"velocity":0.7637795275590551,"duration":0.12369791666665719},{"name":"D#4","midi":63,"time":155.73958333333343,"velocity":0.7637795275590551,"duration":0.2486979166666572},{"name":"G5","midi":79,"time":155.73958333333343,"velocity":0.7637795275590551,"duration":0.3385416666666572},{"name":"F4","midi":65,"time":155.98958333333343,"velocity":0.7637795275590551,"duration":0.2486979166666572},{"name":"F5","midi":77,"time":156.11458333333343,"velocity":0.7637795275590551,"duration":0.12369791666665719},{"name":"G4","midi":67,"time":156.23958333333343,"velocity":0.7637795275590551,"duration":0.2486979166666572},{"name":"D#5","midi":75,"time":156.23958333333343,"velocity":0.7637795275590551,"duration":0.12369791666665719},{"name":"D5","midi":74,"time":156.36458333333343,"velocity":0.7637795275590551,"duration":0.12369791666665719},{"name":"G#4","midi":68,"time":156.48958333333343,"velocity":0.7637795275590551,"duration":0.2486979166666572},{"name":"C5","midi":72,"time":156.48958333333343,"velocity":0.7637795275590551,"duration":0.12369791666665719},{"name":"B4","midi":71,"time":156.61458333333343,"velocity":0.7637795275590551,"duration":0.12369791666665719},{"name":"G4","midi":67,"time":156.73958333333343,"velocity":0.7637795275590551,"duration":0.2486979166666572},{"name":"C5","midi":72,"time":156.73958333333343,"velocity":0.7637795275590551,"duration":0.12369791666665719},{"name":"D#5","midi":75,"time":156.86458333333343,"velocity":0.7637795275590551,"duration":0.12369791666665719},{"name":"F4","midi":65,"time":156.98958333333343,"velocity":0.7637795275590551,"duration":0.2486979166666572},{"name":"D5","midi":74,"time":156.98958333333343,"velocity":0.7637795275590551,"duration":0.15625},{"name":"G#5","midi":80,"time":157.11458333333343,"velocity":0.7637795275590551,"duration":0.12369791666665719},{"name":"D#4","midi":63,"time":157.23958333333343,"velocity":0.7637795275590551,"duration":0.2486979166666572},{"name":"D5","midi":74,"time":157.23958333333343,"velocity":0.7637795275590551,"duration":0.12369791666665719},{"name":"C5","midi":72,"time":157.36458333333343,"velocity":0.7637795275590551,"duration":0.12369791666665719},{"name":"F4","midi":65,"time":157.48958333333343,"velocity":0.7637795275590551,"duration":0.2486979166666572},{"name":"D5","midi":74,"time":157.48958333333343,"velocity":0.7637795275590551,"duration":0.12369791666665719},{"name":"D#5","midi":75,"time":157.61458333333343,"velocity":0.7637795275590551,"duration":0.12369791666665719},{"name":"D4","midi":62,"time":157.73958333333343,"velocity":0.7637795275590551,"duration":0.2486979166666572},{"name":"F5","midi":77,"time":157.73958333333343,"velocity":0.7637795275590551,"duration":0.12369791666665719},{"name":"G5","midi":79,"time":157.86458333333343,"velocity":0.7637795275590551,"duration":0.12369791666665719},{"name":"D#4","midi":63,"time":157.98958333333343,"velocity":0.7637795275590551,"duration":0.2486979166666572},{"name":"F5","midi":77,"time":157.98958333333343,"velocity":0.7637795275590551,"duration":0.12369791666665719},{"name":"D#5","midi":75,"time":158.11458333333343,"velocity":0.7637795275590551,"duration":0.12369791666665719},{"name":"F4","midi":65,"time":158.23958333333343,"velocity":0.7637795275590551,"duration":0.2486979166666572},{"name":"D5","midi":74,"time":158.23958333333343,"velocity":0.7637795275590551,"duration":0.12369791666665719},{"name":"C5","midi":72,"time":158.36458333333343,"velocity":0.7637795275590551,"duration":0.12369791666665719},{"name":"G4","midi":67,"time":158.48958333333343,"velocity":0.7637795275590551,"duration":0.2486979166666572},{"name":"B4","midi":71,"time":158.48958333333343,"velocity":0.7637795275590551,"duration":0.15625},{"name":"G5","midi":79,"time":158.61458333333343,"velocity":0.7637795275590551,"duration":0.12369791666665719},{"name":"G3","midi":55,"time":158.73958333333343,"velocity":0.7637795275590551,"duration":0.12369791666665719},{"name":"F5","midi":77,"time":158.73958333333343,"velocity":0.7637795275590551,"duration":0.12369791666665719},{"name":"A3","midi":57,"time":158.86458333333343,"velocity":0.7637795275590551,"duration":0.12369791666665719},{"name":"D#5","midi":75,"time":158.86458333333343,"velocity":0.7637795275590551,"duration":0.12369791666665719},{"name":"B3","midi":59,"time":158.98958333333343,"velocity":0.7637795275590551,"duration":0.2486979166666572},{"name":"D5","midi":74,"time":158.98958333333343,"velocity":0.7637795275590551,"duration":0.12369791666665719},{"name":"F5","midi":77,"time":159.11458333333343,"velocity":0.7637795275590551,"duration":0.12369791666665719},{"name":"C4","midi":60,"time":159.23958333333343,"velocity":0.7637795275590551,"duration":0.2486979166666572},{"name":"D5","midi":74,"time":159.23958333333343,"velocity":0.7637795275590551,"duration":0.12369791666665719},{"name":"C5","midi":72,"time":159.36458333333343,"velocity":0.7637795275590551,"duration":0.12369791666665719},{"name":"D4","midi":62,"time":159.48958333333343,"velocity":0.7637795275590551,"duration":0.2486979166666572},{"name":"B4","midi":71,"time":159.48958333333343,"velocity":0.7637795275590551,"duration":0.12369791666665719},{"name":"D5","midi":74,"time":159.61458333333343,"velocity":0.7637795275590551,"duration":0.12369791666665719},{"name":"D#4","midi":63,"time":159.73958333333343,"velocity":0.7637795275590551,"duration":0.2486979166666572},{"name":"B4","midi":71,"time":159.73958333333343,"velocity":0.7637795275590551,"duration":0.12369791666665719},{"name":"A4","midi":69,"time":159.86458333333343,"velocity":0.7637795275590551,"duration":0.12369791666665719},{"name":"F4","midi":65,"time":159.98958333333343,"velocity":0.7637795275590551,"duration":0.12369791666665719},{"name":"G4","midi":67,"time":159.98958333333343,"velocity":0.7637795275590551,"duration":0.12369791666665719},{"name":"D#4","midi":63,"time":160.11458333333343,"velocity":0.7637795275590551,"duration":0.12369791666665719},{"name":"A4","midi":69,"time":160.11458333333343,"velocity":0.7637795275590551,"duration":0.12369791666665719},{"name":"D4","midi":62,"time":160.23958333333343,"velocity":0.7637795275590551,"duration":0.12369791666665719},{"name":"B4","midi":71,"time":160.23958333333343,"velocity":0.7637795275590551,"duration":0.12369791666665719},{"name":"D#4","midi":63,"time":160.36458333333343,"velocity":0.7637795275590551,"duration":0.12369791666665719},{"name":"C5","midi":72,"time":160.36458333333343,"velocity":0.7637795275590551,"duration":0.12369791666665719},{"name":"F4","midi":65,"time":160.48958333333343,"velocity":0.7637795275590551,"duration":0.2486979166666572},{"name":"D5","midi":74,"time":160.48958333333343,"velocity":0.7637795275590551,"duration":0.12369791666665719},{"name":"C5","midi":72,"time":160.61458333333343,"velocity":0.7637795275590551,"duration":0.12369791666665719},{"name":"G4","midi":67,"time":160.73958333333343,"velocity":0.7637795275590551,"duration":0.2486979166666572},{"name":"B4","midi":71,"time":160.73958333333343,"velocity":0.7637795275590551,"duration":0.12369791666665719},{"name":"C5","midi":72,"time":160.86458333333343,"velocity":0.7637795275590551,"duration":0.12369791666665719},{"name":"G#4","midi":68,"time":160.98958333333343,"velocity":0.7637795275590551,"duration":0.2486979166666572},{"name":"D5","midi":74,"time":160.98958333333343,"velocity":0.7637795275590551,"duration":0.12369791666665719},{"name":"D#5","midi":75,"time":161.11458333333343,"velocity":0.7637795275590551,"duration":0.12369791666665719},{"name":"D4","midi":62,"time":161.23958333333343,"velocity":0.7637795275590551,"duration":0.2486979166666572},{"name":"F5","midi":77,"time":161.23958333333343,"velocity":0.7637795275590551,"duration":0.12369791666665719},{"name":"D5","midi":74,"time":161.36458333333343,"velocity":0.7637795275590551,"duration":0.12369791666665719},{"name":"F4","midi":65,"time":161.48958333333343,"velocity":0.7637795275590551,"duration":0.2486979166666572},{"name":"B4","midi":71,"time":161.48958333333343,"velocity":0.7637795275590551,"duration":0.12369791666665719},{"name":"C5","midi":72,"time":161.61458333333343,"velocity":0.7637795275590551,"duration":0.12369791666665719},{"name":"B3","midi":59,"time":161.73958333333343,"velocity":0.7637795275590551,"duration":0.2486979166666572},{"name":"D5","midi":74,"time":161.73958333333343,"velocity":0.7637795275590551,"duration":0.12369791666665719},{"name":"D#5","midi":75,"time":161.86458333333343,"velocity":0.7637795275590551,"duration":0.12369791666665719},{"name":"D4","midi":62,"time":161.98958333333343,"velocity":0.7637795275590551,"duration":0.2486979166666572},{"name":"F5","midi":77,"time":161.98958333333343,"velocity":0.7637795275590551,"duration":0.12369791666665719},{"name":"G#5","midi":80,"time":162.11458333333343,"velocity":0.7637795275590551,"duration":0.12369791666665719},{"name":"G3","midi":55,"time":162.23958333333343,"velocity":0.7637795275590551,"duration":0.2486979166666572},{"name":"G5","midi":79,"time":162.23958333333343,"velocity":0.7637795275590551,"duration":0.12369791666665719},{"name":"F5","midi":77,"time":162.36458333333343,"velocity":0.7637795275590551,"duration":0.12369791666665719},{"name":"G4","midi":67,"time":162.48958333333343,"velocity":0.7637795275590551,"duration":0.12369791666665719},{"name":"D#5","midi":75,"time":162.48958333333343,"velocity":0.7637795275590551,"duration":0.12369791666665719},{"name":"F4","midi":65,"time":162.61458333333343,"velocity":0.7637795275590551,"duration":0.12369791666665719},{"name":"D5","midi":74,"time":162.61458333333343,"velocity":0.7637795275590551,"duration":0.12369791666665719},{"name":"D#4","midi":63,"time":162.73958333333343,"velocity":0.7637795275590551,"duration":0.12369791666665719},{"name":"C5","midi":72,"time":162.73958333333343,"velocity":0.7637795275590551,"duration":0.12369791666665719},{"name":"D4","midi":62,"time":162.86458333333343,"velocity":0.7637795275590551,"duration":0.12369791666665719},{"name":"B4","midi":71,"time":162.86458333333343,"velocity":0.7637795275590551,"duration":0.12369791666665719},{"name":"D#4","midi":63,"time":162.98958333333343,"velocity":0.7637795275590551,"duration":0.12369791666665719},{"name":"C5","midi":72,"time":162.98958333333343,"velocity":0.7637795275590551,"duration":0.12369791666665719},{"name":"D4","midi":62,"time":163.11458333333343,"velocity":0.7637795275590551,"duration":0.12369791666665719},{"name":"D5","midi":74,"time":163.11458333333343,"velocity":0.7637795275590551,"duration":0.12369791666665719},{"name":"C4","midi":60,"time":163.23958333333343,"velocity":0.7637795275590551,"duration":0.3255208333333428},{"name":"D#5","midi":75,"time":163.23958333333343,"velocity":0.7637795275590551,"duration":0.12369791666665719},{"name":"C5","midi":72,"time":163.36458333333343,"velocity":0.7637795275590551,"duration":0.12369791666665719},{"name":"A4","midi":69,"time":163.48958333333343,"velocity":0.7637795275590551,"duration":0.2486979166666572},{"name":"D#4","midi":63,"time":163.61458333333343,"velocity":0.7637795275590551,"duration":0.12369791666665719},{"name":"D4","midi":62,"time":163.73958333333343,"velocity":0.7637795275590551,"duration":0.12369791666665719},{"name":"C5","midi":72,"time":163.73958333333343,"velocity":0.7637795275590551,"duration":0.2486979166666572},{"name":"C4","midi":60,"time":163.86458333333343,"velocity":0.7637795275590551,"duration":0.12369791666665719},{"name":"A#3","midi":58,"time":163.98958333333343,"velocity":0.7637795275590551,"duration":0.12369791666665719},{"name":"F4","midi":65,"time":163.98958333333343,"velocity":0.7637795275590551,"duration":0.2486979166666572},{"name":"A3","midi":57,"time":164.11458333333343,"velocity":0.7637795275590551,"duration":0.12369791666665719},{"name":"G3","midi":55,"time":164.23958333333343,"velocity":0.7637795275590551,"duration":0.12369791666665719},{"name":"D#5","midi":75,"time":164.23958333333343,"velocity":0.7637795275590551,"duration":0.2486979166666572},{"name":"F3","midi":53,"time":164.36458333333343,"velocity":0.7637795275590551,"duration":0.12369791666665719},{"name":"D4","midi":62,"time":164.48958333333343,"velocity":0.7637795275590551,"duration":0.12369791666665719},{"name":"A#4","midi":70,"time":164.48958333333343,"velocity":0.7637795275590551,"duration":0.12369791666665719},{"name":"C4","midi":60,"time":164.61458333333343,"velocity":0.7637795275590551,"duration":0.12369791666665719},{"name":"C5","midi":72,"time":164.61458333333343,"velocity":0.7637795275590551,"duration":0.12369791666665719},{"name":"A#3","midi":58,"time":164.73958333333343,"velocity":0.7637795275590551,"duration":0.3385416666666572},{"name":"D5","midi":74,"time":164.73958333333343,"velocity":0.7637795275590551,"duration":0.12369791666665719},{"name":"A#4","midi":70,"time":164.86458333333343,"velocity":0.7637795275590551,"duration":0.12369791666665719},{"name":"G4","midi":67,"time":164.98958333333343,"velocity":0.7637795275590551,"duration":0.2486979166666572},{"name":"D4","midi":62,"time":165.11458333333343,"velocity":0.7637795275590551,"duration":0.12369791666665719},{"name":"C4","midi":60,"time":165.23958333333343,"velocity":0.7637795275590551,"duration":0.12369791666665719},{"name":"A#4","midi":70,"time":165.23958333333343,"velocity":0.7637795275590551,"duration":0.2486979166666572},{"name":"A#3","midi":58,"time":165.36458333333343,"velocity":0.7637795275590551,"duration":0.12369791666665719},{"name":"A3","midi":57,"time":165.48958333333343,"velocity":0.7637795275590551,"duration":0.12369791666665719},{"name":"D#4","midi":63,"time":165.48958333333343,"velocity":0.7637795275590551,"duration":0.2486979166666572},{"name":"G3","midi":55,"time":165.61458333333343,"velocity":0.7637795275590551,"duration":0.12369791666665719},{"name":"F#3","midi":54,"time":165.73958333333343,"velocity":0.7637795275590551,"duration":0.12369791666665719},{"name":"D5","midi":74,"time":165.73958333333343,"velocity":0.7637795275590551,"duration":0.2486979166666572},{"name":"G3","midi":55,"time":165.86458333333343,"velocity":0.7637795275590551,"duration":0.12369791666665719},{"name":"C4","midi":60,"time":165.98958333333343,"velocity":0.7637795275590551,"duration":0.12369791666665719},{"name":"A4","midi":69,"time":165.98958333333343,"velocity":0.7637795275590551,"duration":0.12369791666665719},{"name":"A#3","midi":58,"time":166.11458333333343,"velocity":0.7637795275590551,"duration":0.12369791666665719},{"name":"A#4","midi":70,"time":166.11458333333343,"velocity":0.7637795275590551,"duration":0.12369791666665719},{"name":"A3","midi":57,"time":166.23958333333343,"velocity":0.7637795275590551,"duration":0.3515625},{"name":"C5","midi":72,"time":166.23958333333343,"velocity":0.7637795275590551,"duration":0.12369791666665719},{"name":"A4","midi":69,"time":166.36458333333343,"velocity":0.7637795275590551,"duration":0.12369791666665719},{"name":"F#4","midi":66,"time":166.48958333333343,"velocity":0.7637795275590551,"duration":0.2486979166666572},{"name":"C4","midi":60,"time":166.61458333333343,"velocity":0.7637795275590551,"duration":0.12369791666665719},{"name":"A#3","midi":58,"time":166.73958333333343,"velocity":0.7637795275590551,"duration":0.12369791666665719},{"name":"A4","midi":69,"time":166.73958333333343,"velocity":0.7637795275590551,"duration":0.2486979166666572},{"name":"A3","midi":57,"time":166.86458333333343,"velocity":0.7637795275590551,"duration":0.12369791666665719},{"name":"G3","midi":55,"time":166.98958333333343,"velocity":0.7637795275590551,"duration":0.12369791666665719},{"name":"D4","midi":62,"time":166.98958333333343,"velocity":0.7637795275590551,"duration":0.2486979166666572},{"name":"F#3","midi":54,"time":167.11458333333343,"velocity":0.7637795275590551,"duration":0.12369791666665719},{"name":"E3","midi":52,"time":167.23958333333343,"velocity":0.7637795275590551,"duration":0.12369791666665719},{"name":"C5","midi":72,"time":167.23958333333343,"velocity":0.7637795275590551,"duration":0.2486979166666572},{"name":"D3","midi":50,"time":167.36458333333343,"velocity":0.7637795275590551,"duration":0.12369791666665719},{"name":"A#3","midi":58,"time":167.48958333333343,"velocity":0.7637795275590551,"duration":0.2486979166666572},{"name":"G4","midi":67,"time":167.48958333333343,"velocity":0.7637795275590551,"duration":0.12369791666665719},{"name":"A4","midi":69,"time":167.61458333333343,"velocity":0.7637795275590551,"duration":0.12369791666665719},{"name":"D4","midi":62,"time":167.73958333333343,"velocity":0.7637795275590551,"duration":0.2486979166666572},{"name":"A#4","midi":70,"time":167.73958333333343,"velocity":0.7637795275590551,"duration":0.12369791666665719},{"name":"G4","midi":67,"time":167.86458333333343,"velocity":0.7637795275590551,"duration":0.12369791666665719},{"name":"G3","midi":55,"time":167.98958333333343,"velocity":0.7637795275590551,"duration":0.2486979166666572},{"name":"D#4","midi":63,"time":167.98958333333343,"velocity":0.7637795275590551,"duration":0.12369791666665719},{"name":"G4","midi":67,"time":168.11458333333343,"velocity":0.7637795275590551,"duration":0.12369791666665719},{"name":"A#3","midi":58,"time":168.23958333333343,"velocity":0.7637795275590551,"duration":0.2486979166666572},{"name":"D4","midi":62,"time":168.23958333333343,"velocity":0.7637795275590551,"duration":0.12369791666665719},{"name":"G4","midi":67,"time":168.36458333333343,"velocity":0.7637795275590551,"duration":0.12369791666665719},{"name":"E3","midi":52,"time":168.48958333333343,"velocity":0.7637795275590551,"duration":0.2486979166666572},{"name":"C#4","midi":61,"time":168.48958333333343,"velocity":0.7637795275590551,"duration":0.12369791666665719},{"name":"A#4","midi":70,"time":168.61458333333343,"velocity":0.7637795275590551,"duration":0.12369791666665719},{"name":"C#4","midi":61,"time":168.73958333333343,"velocity":0.7637795275590551,"duration":0.2486979166666572},{"name":"A4","midi":69,"time":168.73958333333343,"velocity":0.7637795275590551,"duration":0.12369791666665719},{"name":"G4","midi":67,"time":168.86458333333343,"velocity":0.7637795275590551,"duration":0.12369791666665719},{"name":"D4","midi":62,"time":168.98958333333343,"velocity":0.7637795275590551,"duration":0.2486979166666572},{"name":"F#4","midi":66,"time":168.98958333333343,"velocity":0.7637795275590551,"duration":0.12369791666665719},{"name":"E4","midi":64,"time":169.11458333333343,"velocity":0.7637795275590551,"duration":0.12369791666665719},{"name":"D3","midi":50,"time":169.23958333333343,"velocity":0.7637795275590551,"duration":0.4817708333333428},{"name":"D4","midi":62,"time":169.23958333333343,"velocity":0.7637795275590551,"duration":0.12369791666665719},{"name":"E4","midi":64,"time":169.36458333333343,"velocity":0.7637795275590551,"duration":0.12369791666665719},{"name":"F#4","midi":66,"time":169.48958333333343,"velocity":0.7637795275590551,"duration":0.24869791666668561},{"name":"C3","midi":48,"time":169.73958333333346,"velocity":0.7637795275590551,"duration":0.12369791666665719},{"name":"G4","midi":67,"time":169.73958333333346,"velocity":0.7637795275590551,"duration":0.2486979166666572},{"name":"A#2","midi":46,"time":169.86458333333346,"velocity":0.7637795275590551,"duration":0.12369791666665719},{"name":"A2","midi":45,"time":169.98958333333346,"velocity":0.7637795275590551,"duration":0.12369791666665719},{"name":"A4","midi":69,"time":169.98958333333346,"velocity":0.7637795275590551,"duration":0.2486979166666572},{"name":"G2","midi":43,"time":170.11458333333346,"velocity":0.7637795275590551,"duration":0.12369791666665719},{"name":"F#2","midi":42,"time":170.23958333333346,"velocity":0.7637795275590551,"duration":0.12369791666665719},{"name":"A#4","midi":70,"time":170.23958333333346,"velocity":0.7637795275590551,"duration":0.2486979166666572},{"name":"E2","midi":40,"time":170.36458333333346,"velocity":0.7637795275590551,"duration":0.12369791666665719},{"name":"D2","midi":38,"time":170.48958333333346,"velocity":0.7637795275590551,"duration":0.5729166666666572},{"name":"C5","midi":72,"time":170.48958333333346,"velocity":0.7637795275590551,"duration":0.12369791666665719},{"name":"A#4","midi":70,"time":170.61458333333346,"velocity":0.7637795275590551,"duration":0.12369791666665719},{"name":"A4","midi":69,"time":170.73958333333346,"velocity":0.7637795275590551,"duration":0.12369791666665719},{"name":"A#4","midi":70,"time":170.86458333333346,"velocity":0.7637795275590551,"duration":0.12369791666665719},{"name":"C5","midi":72,"time":170.98958333333346,"velocity":0.7637795275590551,"duration":0.2486979166666572},{"name":"E2","midi":40,"time":171.11458333333346,"velocity":0.7637795275590551,"duration":0.12369791666665719},{"name":"F#2","midi":42,"time":171.23958333333346,"velocity":0.7637795275590551,"duration":0.12369791666665719},{"name":"D5","midi":74,"time":171.23958333333346,"velocity":0.7637795275590551,"duration":0.2486979166666572},{"name":"G2","midi":43,"time":171.36458333333346,"velocity":0.7637795275590551,"duration":0.12369791666665719},{"name":"A2","midi":45,"time":171.48958333333346,"velocity":0.7637795275590551,"duration":0.12369791666665719},{"name":"D#5","midi":75,"time":171.48958333333346,"velocity":0.7637795275590551,"duration":0.234375},{"name":"A#2","midi":46,"time":171.61458333333346,"velocity":0.7637795275590551,"duration":0.12369791666665719},{"name":"C3","midi":48,"time":171.73958333333346,"velocity":0.7637795275590551,"duration":0.12369791666665719},{"name":"A4","midi":69,"time":171.73958333333346,"velocity":0.7637795275590551,"duration":0.234375},{"name":"A2","midi":45,"time":171.86458333333346,"velocity":0.7637795275590551,"duration":0.12369791666665719},{"name":"F#2","midi":42,"time":171.98958333333346,"velocity":0.7637795275590551,"duration":0.234375},{"name":"C5","midi":72,"time":171.98958333333346,"velocity":0.7637795275590551,"duration":0.234375},{"name":"D#3","midi":51,"time":172.23958333333346,"velocity":0.7637795275590551,"duration":0.3515625},{"name":"F#4","midi":66,"time":172.23958333333346,"velocity":0.7637795275590551,"duration":0.234375},{"name":"A4","midi":69,"time":172.48958333333346,"velocity":0.7637795275590551,"duration":0.234375},{"name":"A2","midi":45,"time":172.61458333333346,"velocity":0.7637795275590551,"duration":0.12369791666665719},{"name":"A#2","midi":46,"time":172.73958333333346,"velocity":0.7637795275590551,"duration":0.12369791666665719},{"name":"D4","midi":62,"time":172.73958333333346,"velocity":0.7637795275590551,"duration":0.234375},{"name":"C3","midi":48,"time":172.86458333333346,"velocity":0.7637795275590551,"duration":0.12369791666665719},{"name":"A#2","midi":46,"time":172.98958333333346,"velocity":0.7637795275590551,"duration":0.12369791666665719},{"name":"D5","midi":74,"time":172.98958333333346,"velocity":0.7637795275590551,"duration":0.12369791666665719},{"name":"A2","midi":45,"time":173.11458333333346,"velocity":0.7637795275590551,"duration":0.12369791666665719},{"name":"C5","midi":72,"time":173.11458333333346,"velocity":0.7637795275590551,"duration":0.12369791666665719},{"name":"G2","midi":43,"time":173.23958333333346,"velocity":0.7637795275590551,"duration":0.12369791666665719},{"name":"A#4","midi":70,"time":173.23958333333346,"velocity":0.7637795275590551,"duration":0.12369791666665719},{"name":"F#2","midi":42,"time":173.36458333333346,"velocity":0.7637795275590551,"duration":0.12369791666665719},{"name":"A4","midi":69,"time":173.36458333333346,"velocity":0.7637795275590551,"duration":0.12369791666665719},{"name":"G2","midi":43,"time":173.48958333333346,"velocity":0.7637795275590551,"duration":0.546875},{"name":"A#4","midi":70,"time":173.48958333333346,"velocity":0.7637795275590551,"duration":0.12369791666665719},{"name":"A4","midi":69,"time":173.61458333333346,"velocity":0.7637795275590551,"duration":0.12369791666665719},{"name":"G4","midi":67,"time":173.73958333333346,"velocity":0.7637795275590551,"duration":0.12369791666665719},{"name":"A4","midi":69,"time":173.86458333333346,"velocity":0.7637795275590551,"duration":0.12369791666665719},{"name":"A#4","midi":70,"time":173.98958333333346,"velocity":0.7637795275590551,"duration":0.2486979166666572},{"name":"G3","midi":55,"time":174.11458333333346,"velocity":0.7637795275590551,"duration":0.12369791666665719},{"name":"G#3","midi":56,"time":174.23958333333346,"velocity":0.7637795275590551,"duration":0.12369791666665719},{"name":"C5","midi":72,"time":174.23958333333346,"velocity":0.7637795275590551,"duration":0.2486979166666572},{"name":"A#3","midi":58,"time":174.36458333333346,"velocity":0.7637795275590551,"duration":0.12369791666665719},{"name":"G#3","midi":56,"time":174.48958333333346,"velocity":0.7637795275590551,"duration":0.12369791666665719},{"name":"D5","midi":74,"time":174.48958333333346,"velocity":0.7637795275590551,"duration":0.2486979166666572},{"name":"G3","midi":55,"time":174.61458333333346,"velocity":0.7637795275590551,"duration":0.12369791666665719},{"name":"F3","midi":53,"time":174.73958333333346,"velocity":0.7637795275590551,"duration":0.12369791666665719},{"name":"D#5","midi":75,"time":174.73958333333346,"velocity":0.7637795275590551,"duration":0.2486979166666572},{"name":"D#3","midi":51,"time":174.86458333333346,"velocity":0.7637795275590551,"duration":0.12369791666665719},{"name":"D3","midi":50,"time":174.98958333333346,"velocity":0.7637795275590551,"duration":0.2486979166666572},{"name":"F5","midi":77,"time":174.98958333333346,"velocity":0.7637795275590551,"duration":0.12369791666665719},{"name":"D#5","midi":75,"time":175.11458333333346,"velocity":0.7637795275590551,"duration":0.12369791666665719},{"name":"F3","midi":53,"time":175.23958333333346,"velocity":0.7637795275590551,"duration":0.2486979166666572},{"name":"D5","midi":74,"time":175.23958333333346,"velocity":0.7637795275590551,"duration":0.12369791666665719},{"name":"C5","midi":72,"time":175.36458333333346,"velocity":0.7637795275590551,"duration":0.12369791666665719},{"name":"D3","midi":50,"time":175.48958333333346,"velocity":0.7637795275590551,"duration":0.2486979166666572},{"name":"A#4","midi":70,"time":175.48958333333346,"velocity":0.7637795275590551,"duration":0.1822916666666572},{"name":"F5","midi":77,"time":175.61458333333346,"velocity":0.7637795275590551,"duration":0.12369791666665719},{"name":"A#2","midi":46,"time":175.73958333333346,"velocity":0.7637795275590551,"duration":0.2486979166666572},{"name":"C5","midi":72,"time":175.73958333333346,"velocity":0.7637795275590551,"duration":0.12369791666665719},{"name":"A#4","midi":70,"time":175.86458333333346,"velocity":0.7637795275590551,"duration":0.12369791666665719},{"name":"C3","midi":48,"time":175.98958333333346,"velocity":0.7637795275590551,"duration":0.2486979166666572},{"name":"G#4","midi":68,"time":175.98958333333346,"velocity":0.7637795275590551,"duration":0.1822916666666572},{"name":"F5","midi":77,"time":176.11458333333346,"velocity":0.7637795275590551,"duration":0.12369791666665719},{"name":"D3","midi":50,"time":176.23958333333346,"velocity":0.7637795275590551,"duration":0.2486979166666572},{"name":"A#4","midi":70,"time":176.23958333333346,"velocity":0.7637795275590551,"duration":0.12369791666665719},{"name":"G#4","midi":68,"time":176.36458333333346,"velocity":0.7637795275590551,"duration":0.12369791666665719},{"name":"D#3","midi":51,"time":176.48958333333346,"velocity":0.7637795275590551,"duration":0.3645833333333428},{"name":"G4","midi":67,"time":176.48958333333346,"velocity":0.7637795275590551,"duration":0.12369791666665719},{"name":"F4","midi":65,"time":176.61458333333346,"velocity":0.7637795275590551,"duration":0.12369791666665719},{"name":"D#2","midi":39,"time":176.73958333333346,"velocity":0.7637795275590551,"duration":0.3125000000000284},{"name":"D#4","midi":63,"time":176.73958333333346,"velocity":0.7637795275590551,"duration":0.12369791666668561},{"name":"F4","midi":65,"time":176.86458333333348,"velocity":0.7637795275590551,"duration":0.12369791666665719},{"name":"G4","midi":67,"time":176.98958333333348,"velocity":0.7637795275590551,"duration":0.2486979166666572},{"name":"D#3","midi":51,"time":177.11458333333348,"velocity":0.7637795275590551,"duration":0.12369791666665719},{"name":"F3","midi":53,"time":177.23958333333348,"velocity":0.7637795275590551,"duration":0.12369791666665719},{"name":"A4","midi":69,"time":177.23958333333348,"velocity":0.7637795275590551,"duration":0.2486979166666572},{"name":"G3","midi":55,"time":177.36458333333348,"velocity":0.7637795275590551,"duration":0.12369791666665719},{"name":"F3","midi":53,"time":177.48958333333348,"velocity":0.7637795275590551,"duration":0.12369791666665719},{"name":"B4","midi":71,"time":177.48958333333348,"velocity":0.7637795275590551,"duration":0.2486979166666572},{"name":"D#3","midi":51,"time":177.61458333333348,"velocity":0.7637795275590551,"duration":0.12369791666665719},{"name":"D3","midi":50,"time":177.73958333333348,"velocity":0.7637795275590551,"duration":0.12369791666665719},{"name":"C5","midi":72,"time":177.73958333333348,"velocity":0.7637795275590551,"duration":0.2486979166666572},{"name":"C3","midi":48,"time":177.86458333333348,"velocity":0.7637795275590551,"duration":0.12369791666665719},{"name":"B2","midi":47,"time":177.98958333333348,"velocity":0.7637795275590551,"duration":0.2486979166666572},{"name":"D5","midi":74,"time":177.98958333333348,"velocity":0.7637795275590551,"duration":0.12369791666665719},{"name":"C5","midi":72,"time":178.11458333333348,"velocity":0.7637795275590551,"duration":0.12369791666665719},{"name":"D3","midi":50,"time":178.23958333333348,"velocity":0.7637795275590551,"duration":0.2486979166666572},{"name":"B4","midi":71,"time":178.23958333333348,"velocity":0.7637795275590551,"duration":0.12369791666665719},{"name":"A4","midi":69,"time":178.36458333333348,"velocity":0.7637795275590551,"duration":0.12369791666665719},{"name":"B2","midi":47,"time":178.48958333333348,"velocity":0.7637795275590551,"duration":0.24869791666668561},{"name":"G4","midi":67,"time":178.48958333333348,"velocity":0.7637795275590551,"duration":0.2083333333333428},{"name":"D5","midi":74,"time":178.61458333333348,"velocity":0.7637795275590551,"duration":0.12369791666668561},{"name":"G2","midi":43,"time":178.7395833333335,"velocity":0.7637795275590551,"duration":0.2486979166666572},{"name":"A4","midi":69,"time":178.7395833333335,"velocity":0.7637795275590551,"duration":0.12369791666665719},{"name":"G4","midi":67,"time":178.8645833333335,"velocity":0.7637795275590551,"duration":0.12369791666665719},{"name":"A2","midi":45,"time":178.9895833333335,"velocity":0.7637795275590551,"duration":0.2486979166666572},{"name":"F4","midi":65,"time":178.9895833333335,"velocity":0.7637795275590551,"duration":0.2213541666666572},{"name":"D5","midi":74,"time":179.1145833333335,"velocity":0.7637795275590551,"duration":0.12369791666665719},{"name":"B2","midi":47,"time":179.2395833333335,"velocity":0.7637795275590551,"duration":0.2486979166666572},{"name":"G4","midi":67,"time":179.2395833333335,"velocity":0.7637795275590551,"duration":0.12369791666665719},{"name":"F4","midi":65,"time":179.3645833333335,"velocity":0.7637795275590551,"duration":0.12369791666665719},{"name":"C3","midi":48,"time":179.4895833333335,"velocity":0.7637795275590551,"duration":0.4947916666666856},{"name":"D#4","midi":63,"time":179.4895833333335,"velocity":0.7637795275590551,"duration":0.2473958333333428},{"name":"C5","midi":72,"time":179.6145833333335,"velocity":0.7637795275590551,"duration":0.12369791666668561},{"name":"C2","midi":36,"time":179.73958333333354,"velocity":0.7637795275590551,"duration":0.3125},{"name":"G4","midi":67,"time":179.73958333333354,"velocity":0.7637795275590551,"duration":0.12369791666665719},{"name":"F4","midi":65,"time":179.86458333333354,"velocity":0.7637795275590551,"duration":0.12369791666665719},{"name":"D#4","midi":63,"time":179.98958333333354,"velocity":0.7637795275590551,"duration":0.12369791666665719},{"name":"D4","midi":62,"time":180.11458333333354,"velocity":0.7637795275590551,"duration":0.12369791666665719},{"name":"F4","midi":65,"time":180.11458333333354,"velocity":0.7637795275590551,"duration":0.12369791666665719},{"name":"D#4","midi":63,"time":180.23958333333354,"velocity":0.7637795275590551,"duration":0.12369791666665719},{"name":"G4","midi":67,"time":180.23958333333354,"velocity":0.7637795275590551,"duration":0.12369791666665719},{"name":"F4","midi":65,"time":180.36458333333354,"velocity":0.7637795275590551,"duration":0.12369791666665719},{"name":"G#4","midi":68,"time":180.36458333333354,"velocity":0.7637795275590551,"duration":0.12369791666665719},{"name":"D#4","midi":63,"time":180.48958333333354,"velocity":0.7637795275590551,"duration":0.2486979166666572},{"name":"G4","midi":67,"time":180.48958333333354,"velocity":0.7637795275590551,"duration":0.12369791666665719},{"name":"C5","midi":72,"time":180.61458333333354,"velocity":0.7637795275590551,"duration":0.12369791666665719},{"name":"D4","midi":62,"time":180.73958333333354,"velocity":0.7637795275590551,"duration":0.2486979166666572},{"name":"G4","midi":67,"time":180.73958333333354,"velocity":0.7637795275590551,"duration":0.12369791666665719},{"name":"F4","midi":65,"time":180.86458333333354,"velocity":0.7637795275590551,"duration":0.12369791666665719},{"name":"C4","midi":60,"time":180.98958333333354,"velocity":0.7637795275590551,"duration":0.4947916666666572},{"name":"D#4","midi":63,"time":180.98958333333354,"velocity":0.7637795275590551,"duration":0.234375},{"name":"C5","midi":72,"time":181.11458333333354,"velocity":0.7637795275590551,"duration":0.12369791666665719},{"name":"C3","midi":48,"time":181.23958333333354,"velocity":0.7637795275590551,"duration":0.3125},{"name":"G4","midi":67,"time":181.23958333333354,"velocity":0.7637795275590551,"duration":0.12369791666665719},{"name":"F4","midi":65,"time":181.36458333333354,"velocity":0.7637795275590551,"duration":0.12369791666665719},{"name":"D#4","midi":63,"time":181.48958333333354,"velocity":0.7637795275590551,"duration":0.12369791666665719},{"name":"G#3","midi":56,"time":181.61458333333354,"velocity":0.7637795275590551,"duration":0.12369791666665719},{"name":"F4","midi":65,"time":181.61458333333354,"velocity":0.7637795275590551,"duration":0.12369791666665719},{"name":"A#3","midi":58,"time":181.73958333333354,"velocity":0.7637795275590551,"duration":0.12369791666665719},{"name":"G4","midi":67,"time":181.73958333333354,"velocity":0.7637795275590551,"duration":0.12369791666665719},{"name":"C4","midi":60,"time":181.86458333333354,"velocity":0.7637795275590551,"duration":0.12369791666665719},{"name":"G#4","midi":68,"time":181.86458333333354,"velocity":0.7637795275590551,"duration":0.12369791666665719},{"name":"A#3","midi":58,"time":181.98958333333354,"velocity":0.7637795275590551,"duration":0.24869791666668561},{"name":"G4","midi":67,"time":181.98958333333354,"velocity":0.7637795275590551,"duration":0.2083333333333428},{"name":"C5","midi":72,"time":182.11458333333354,"velocity":0.7637795275590551,"duration":0.12369791666668561},{"name":"G#3","midi":56,"time":182.23958333333357,"velocity":0.7637795275590551,"duration":0.2486979166666572},{"name":"G4","midi":67,"time":182.23958333333357,"velocity":0.7637795275590551,"duration":0.12369791666665719},{"name":"F4","midi":65,"time":182.36458333333357,"velocity":0.7637795275590551,"duration":0.12369791666665719},{"name":"G3","midi":55,"time":182.48958333333357,"velocity":0.7637795275590551,"duration":0.36458333333337123},{"name":"E4","midi":64,"time":182.48958333333357,"velocity":0.7637795275590551,"duration":0.2473958333333428},{"name":"A#4","midi":70,"time":182.61458333333357,"velocity":0.7637795275590551,"duration":0.12369791666668561},{"name":"C3","midi":48,"time":182.7395833333336,"velocity":0.7637795275590551,"duration":0.3125000000000284},{"name":"G4","midi":67,"time":182.7395833333336,"velocity":0.7637795275590551,"duration":0.12369791666668561},{"name":"F4","midi":65,"time":182.86458333333363,"velocity":0.7637795275590551,"duration":0.12369791666665719},{"name":"E4","midi":64,"time":182.98958333333363,"velocity":0.7637795275590551,"duration":0.12369791666665719},{"name":"D4","midi":62,"time":183.11458333333363,"velocity":0.7637795275590551,"duration":0.12369791666665719},{"name":"F4","midi":65,"time":183.11458333333363,"velocity":0.7637795275590551,"duration":0.12369791666665719},{"name":"E4","midi":64,"time":183.23958333333363,"velocity":0.7637795275590551,"duration":0.12369791666665719},{"name":"G4","midi":67,"time":183.23958333333363,"velocity":0.7637795275590551,"duration":0.12369791666665719},{"name":"F4","midi":65,"time":183.36458333333363,"velocity":0.7637795275590551,"duration":0.12369791666665719},{"name":"G#4","midi":68,"time":183.36458333333363,"velocity":0.7637795275590551,"duration":0.12369791666665719},{"name":"E4","midi":64,"time":183.48958333333363,"velocity":0.7637795275590551,"duration":0.2486979166666572},{"name":"G4","midi":67,"time":183.48958333333363,"velocity":0.7637795275590551,"duration":0.1822916666666572},{"name":"A#4","midi":70,"time":183.61458333333363,"velocity":0.7637795275590551,"duration":0.12369791666665719},{"name":"D4","midi":62,"time":183.73958333333363,"velocity":0.7637795275590551,"duration":0.2486979166666572},{"name":"G4","midi":67,"time":183.73958333333363,"velocity":0.7637795275590551,"duration":0.12369791666665719},{"name":"F4","midi":65,"time":183.86458333333363,"velocity":0.7637795275590551,"duration":0.12369791666665719},{"name":"C4","midi":60,"time":183.98958333333363,"velocity":0.7637795275590551,"duration":0.4947916666666856},{"name":"E4","midi":64,"time":183.98958333333363,"velocity":0.7637795275590551,"duration":0.2473958333333428},{"name":"A#4","midi":70,"time":184.11458333333363,"velocity":0.7637795275590551,"duration":0.12369791666668561},{"name":"C3","midi":48,"time":184.23958333333366,"velocity":0.7637795275590551,"duration":0.3125},{"name":"G4","midi":67,"time":184.23958333333366,"velocity":0.7637795275590551,"duration":0.12369791666665719},{"name":"F4","midi":65,"time":184.36458333333366,"velocity":0.7637795275590551,"duration":0.12369791666665719},{"name":"E4","midi":64,"time":184.48958333333366,"velocity":0.7637795275590551,"duration":0.12369791666665719},{"name":"D3","midi":50,"time":184.61458333333366,"velocity":0.7637795275590551,"duration":0.12369791666665719},{"name":"G4","midi":67,"time":184.61458333333366,"velocity":0.7637795275590551,"duration":0.12369791666665719},{"name":"E3","midi":52,"time":184.73958333333366,"velocity":0.7637795275590551,"duration":0.12369791666665719},{"name":"A#4","midi":70,"time":184.73958333333366,"velocity":0.7637795275590551,"duration":0.12369791666665719},{"name":"F3","midi":53,"time":184.86458333333366,"velocity":0.7637795275590551,"duration":0.12369791666665719},{"name":"C#5","midi":73,"time":184.86458333333366,"velocity":0.7637795275590551,"duration":0.12369791666665719},{"name":"E3","midi":52,"time":184.98958333333366,"velocity":0.7637795275590551,"duration":0.2486979166666572},{"name":"C5","midi":72,"time":184.98958333333366,"velocity":0.7637795275590551,"duration":0.12369791666665719},{"name":"A#4","midi":70,"time":185.11458333333366,"velocity":0.7637795275590551,"duration":0.12369791666665719},{"name":"C3","midi":48,"time":185.23958333333366,"velocity":0.7637795275590551,"duration":0.2486979166666572},{"name":"G#4","midi":68,"time":185.23958333333366,"velocity":0.7637795275590551,"duration":0.12369791666665719},{"name":"G4","midi":67,"time":185.36458333333366,"velocity":0.7637795275590551,"duration":0.12369791666665719},{"name":"F3","midi":53,"time":185.48958333333366,"velocity":0.7637795275590551,"duration":0.4947916666666572},{"name":"G#4","midi":68,"time":185.48958333333366,"velocity":0.7637795275590551,"duration":0.3125},{"name":"F5","midi":77,"time":185.61458333333366,"velocity":0.7637795275590551,"duration":0.12369791666665719},{"name":"F2","midi":41,"time":185.73958333333366,"velocity":0.7637795275590551,"duration":0.3125},{"name":"C5","midi":72,"time":185.73958333333366,"velocity":0.7637795275590551,"duration":0.12369791666665719},{"name":"A#4","midi":70,"time":185.86458333333366,"velocity":0.7637795275590551,"duration":0.12369791666665719},{"name":"G#4","midi":68,"time":185.98958333333366,"velocity":0.7637795275590551,"duration":0.12369791666665719},{"name":"G4","midi":67,"time":186.11458333333366,"velocity":0.7637795275590551,"duration":0.12369791666665719},{"name":"A#4","midi":70,"time":186.11458333333366,"velocity":0.7637795275590551,"duration":0.12369791666665719},{"name":"G#4","midi":68,"time":186.23958333333366,"velocity":0.7637795275590551,"duration":0.12369791666665719},{"name":"C5","midi":72,"time":186.23958333333366,"velocity":0.7637795275590551,"duration":0.12369791666665719},{"name":"A#4","midi":70,"time":186.36458333333366,"velocity":0.7637795275590551,"duration":0.12369791666665719},{"name":"C#5","midi":73,"time":186.36458333333366,"velocity":0.7637795275590551,"duration":0.12369791666665719},{"name":"G#4","midi":68,"time":186.48958333333366,"velocity":0.7637795275590551,"duration":0.2486979166666572},{"name":"C5","midi":72,"time":186.48958333333366,"velocity":0.7637795275590551,"duration":0.1822916666666572},{"name":"F5","midi":77,"time":186.61458333333366,"velocity":0.7637795275590551,"duration":0.12369791666665719},{"name":"G4","midi":67,"time":186.73958333333366,"velocity":0.7637795275590551,"duration":0.2486979166666572},{"name":"C5","midi":72,"time":186.73958333333366,"velocity":0.7637795275590551,"duration":0.12369791666665719},{"name":"A#4","midi":70,"time":186.86458333333366,"velocity":0.7637795275590551,"duration":0.12369791666665719},{"name":"F4","midi":65,"time":186.98958333333366,"velocity":0.7637795275590551,"duration":0.4947916666666572},{"name":"G#4","midi":68,"time":186.98958333333366,"velocity":0.7637795275590551,"duration":0.3125},{"name":"F5","midi":77,"time":187.11458333333366,"velocity":0.7637795275590551,"duration":0.12369791666665719},{"name":"F3","midi":53,"time":187.23958333333366,"velocity":0.7637795275590551,"duration":0.3125},{"name":"C5","midi":72,"time":187.23958333333366,"velocity":0.7637795275590551,"duration":0.12369791666665719},{"name":"A#4","midi":70,"time":187.36458333333366,"velocity":0.7637795275590551,"duration":0.12369791666665719},{"name":"G#4","midi":68,"time":187.48958333333366,"velocity":0.7637795275590551,"duration":0.12369791666665719},{"name":"C#4","midi":61,"time":187.61458333333366,"velocity":0.7637795275590551,"duration":0.12369791666665719},{"name":"A#4","midi":70,"time":187.61458333333366,"velocity":0.7637795275590551,"duration":0.12369791666665719},{"name":"D#4","midi":63,"time":187.73958333333366,"velocity":0.7637795275590551,"duration":0.12369791666665719},{"name":"C5","midi":72,"time":187.73958333333366,"velocity":0.7637795275590551,"duration":0.12369791666665719},{"name":"F4","midi":65,"time":187.86458333333366,"velocity":0.7637795275590551,"duration":0.12369791666665719},{"name":"C#5","midi":73,"time":187.86458333333366,"velocity":0.7637795275590551,"duration":0.12369791666665719},{"name":"D#4","midi":63,"time":187.98958333333366,"velocity":0.7637795275590551,"duration":0.2486979166666572},{"name":"C5","midi":72,"time":187.98958333333366,"velocity":0.7637795275590551,"duration":0.1822916666666572},{"name":"F5","midi":77,"time":188.11458333333366,"velocity":0.7637795275590551,"duration":0.12369791666665719},{"name":"C#4","midi":61,"time":188.23958333333366,"velocity":0.7637795275590551,"duration":0.2486979166666572},{"name":"C5","midi":72,"time":188.23958333333366,"velocity":0.7637795275590551,"duration":0.12369791666665719},{"name":"A#4","midi":70,"time":188.36458333333366,"velocity":0.7637795275590551,"duration":0.12369791666665719},{"name":"C4","midi":60,"time":188.48958333333366,"velocity":0.7637795275590551,"duration":0.3645833333333428},{"name":"A4","midi":69,"time":188.48958333333366,"velocity":0.7637795275590551,"duration":0.3125},{"name":"D#5","midi":75,"time":188.61458333333366,"velocity":0.7637795275590551,"duration":0.12369791666665719},{"name":"F3","midi":53,"time":188.73958333333366,"velocity":0.7637795275590551,"duration":0.3125000000000284},{"name":"C5","midi":72,"time":188.73958333333366,"velocity":0.7637795275590551,"duration":0.12369791666668561},{"name":"A#4","midi":70,"time":188.86458333333368,"velocity":0.7637795275590551,"duration":0.12369791666665719},{"name":"A4","midi":69,"time":188.98958333333368,"velocity":0.7637795275590551,"duration":0.12369791666665719},{"name":"G4","midi":67,"time":189.11458333333368,"velocity":0.7637795275590551,"duration":0.12369791666665719},{"name":"A#4","midi":70,"time":189.11458333333368,"velocity":0.7637795275590551,"duration":0.12369791666665719},{"name":"A4","midi":69,"time":189.23958333333368,"velocity":0.7637795275590551,"duration":0.12369791666665719},{"name":"C5","midi":72,"time":189.23958333333368,"velocity":0.7637795275590551,"duration":0.12369791666665719},{"name":"A#4","midi":70,"time":189.36458333333368,"velocity":0.7637795275590551,"duration":0.12369791666665719},{"name":"C#5","midi":73,"time":189.36458333333368,"velocity":0.7637795275590551,"duration":0.12369791666665719},{"name":"A4","midi":69,"time":189.48958333333368,"velocity":0.7637795275590551,"duration":0.2486979166666572},{"name":"C5","midi":72,"time":189.48958333333368,"velocity":0.7637795275590551,"duration":0.1822916666666572},{"name":"D#5","midi":75,"time":189.61458333333368,"velocity":0.7637795275590551,"duration":0.12369791666665719},{"name":"G4","midi":67,"time":189.73958333333368,"velocity":0.7637795275590551,"duration":0.2486979166666572},{"name":"C5","midi":72,"time":189.73958333333368,"velocity":0.7637795275590551,"duration":0.12369791666665719},{"name":"A#4","midi":70,"time":189.86458333333368,"velocity":0.7637795275590551,"duration":0.12369791666665719},{"name":"F4","midi":65,"time":189.98958333333368,"velocity":0.7637795275590551,"duration":0.4947916666666856},{"name":"A4","midi":69,"time":189.98958333333368,"velocity":0.7637795275590551,"duration":0.2473958333333428},{"name":"D#5","midi":75,"time":190.11458333333368,"velocity":0.7637795275590551,"duration":0.12369791666668561},{"name":"F3","midi":53,"time":190.2395833333337,"velocity":0.7637795275590551,"duration":0.3125},{"name":"C5","midi":72,"time":190.2395833333337,"velocity":0.7637795275590551,"duration":0.12369791666665719},{"name":"A#4","midi":70,"time":190.3645833333337,"velocity":0.7637795275590551,"duration":0.12369791666665719},{"name":"A4","midi":69,"time":190.4895833333337,"velocity":0.7637795275590551,"duration":0.12369791666665719},{"name":"G3","midi":55,"time":190.6145833333337,"velocity":0.7637795275590551,"duration":0.12369791666665719},{"name":"C5","midi":72,"time":190.6145833333337,"velocity":0.7637795275590551,"duration":0.12369791666665719},{"name":"A3","midi":57,"time":190.7395833333337,"velocity":0.7637795275590551,"duration":0.12369791666665719},{"name":"D#5","midi":75,"time":190.7395833333337,"velocity":0.7637795275590551,"duration":0.12369791666665719},{"name":"A#3","midi":58,"time":190.8645833333337,"velocity":0.7637795275590551,"duration":0.12369791666665719},{"name":"F#5","midi":78,"time":190.8645833333337,"velocity":0.7637795275590551,"duration":0.12369791666665719},{"name":"A3","midi":57,"time":190.9895833333337,"velocity":0.7637795275590551,"duration":0.2486979166666572},{"name":"F5","midi":77,"time":190.9895833333337,"velocity":0.7637795275590551,"duration":0.12369791666665719},{"name":"D#5","midi":75,"time":191.1145833333337,"velocity":0.7637795275590551,"duration":0.12369791666665719},{"name":"F3","midi":53,"time":191.2395833333337,"velocity":0.7637795275590551,"duration":0.2486979166666572},{"name":"C#5","midi":73,"time":191.2395833333337,"velocity":0.7637795275590551,"duration":0.12369791666665719},{"name":"C5","midi":72,"time":191.3645833333337,"velocity":0.7637795275590551,"duration":0.12369791666665719},{"name":"A#3","midi":58,"time":191.4895833333337,"velocity":0.7637795275590551,"duration":0.12369791666665719},{"name":"C#5","midi":73,"time":191.4895833333337,"velocity":0.7637795275590551,"duration":0.1953125},{"name":"C4","midi":60,"time":191.6145833333337,"velocity":0.7637795275590551,"duration":0.12369791666665719},{"name":"C#4","midi":61,"time":191.7395833333337,"velocity":0.7637795275590551,"duration":0.3515625},{"name":"A#4","midi":70,"time":191.7395833333337,"velocity":0.7637795275590551,"duration":0.2486979166666572},{"name":"C5","midi":72,"time":191.9895833333337,"velocity":0.7637795275590551,"duration":0.2486979166666572},{"name":"C4","midi":60,"time":192.1145833333337,"velocity":0.7637795275590551,"duration":0.12369791666665719},{"name":"A#3","midi":58,"time":192.2395833333337,"velocity":0.7637795275590551,"duration":0.12369791666665719},{"name":"C#5","midi":73,"time":192.2395833333337,"velocity":0.7637795275590551,"duration":0.2486979166666572},{"name":"G#3","midi":56,"time":192.3645833333337,"velocity":0.7637795275590551,"duration":0.12369791666665719},{"name":"G3","midi":55,"time":192.4895833333337,"velocity":0.7637795275590551,"duration":0.12369791666665719},{"name":"D#5","midi":75,"time":192.4895833333337,"velocity":0.7637795275590551,"duration":0.2486979166666572},{"name":"F3","midi":53,"time":192.6145833333337,"velocity":0.7637795275590551,"duration":0.12369791666665719},{"name":"G3","midi":55,"time":192.7395833333337,"velocity":0.7637795275590551,"duration":0.12369791666665719},{"name":"C#5","midi":73,"time":192.7395833333337,"velocity":0.7637795275590551,"duration":0.2486979166666572},{"name":"A#3","midi":58,"time":192.8645833333337,"velocity":0.7637795275590551,"duration":0.12369791666665719},{"name":"G#3","midi":56,"time":192.9895833333337,"velocity":0.7637795275590551,"duration":0.12369791666665719},{"name":"C5","midi":72,"time":192.9895833333337,"velocity":0.7637795275590551,"duration":0.1953125},{"name":"A#3","midi":58,"time":193.1145833333337,"velocity":0.7637795275590551,"duration":0.12369791666665719},{"name":"C4","midi":60,"time":193.2395833333337,"velocity":0.7637795275590551,"duration":0.3515625},{"name":"G#4","midi":68,"time":193.2395833333337,"velocity":0.7637795275590551,"duration":0.2486979166666572},{"name":"A#4","midi":70,"time":193.4895833333337,"velocity":0.7637795275590551,"duration":0.2486979166666572},{"name":"A#3","midi":58,"time":193.6145833333337,"velocity":0.7637795275590551,"duration":0.12369791666665719},{"name":"G#3","midi":56,"time":193.7395833333337,"velocity":0.7637795275590551,"duration":0.12369791666665719},{"name":"C5","midi":72,"time":193.7395833333337,"velocity":0.7637795275590551,"duration":0.2486979166666572},{"name":"G3","midi":55,"time":193.8645833333337,"velocity":0.7637795275590551,"duration":0.12369791666665719},{"name":"F3","midi":53,"time":193.9895833333337,"velocity":0.7637795275590551,"duration":0.12369791666665719},{"name":"C#5","midi":73,"time":193.9895833333337,"velocity":0.7637795275590551,"duration":0.2486979166666572},{"name":"E3","midi":52,"time":194.1145833333337,"velocity":0.7637795275590551,"duration":0.12369791666665719},{"name":"F3","midi":53,"time":194.2395833333337,"velocity":0.7637795275590551,"duration":0.12369791666665719},{"name":"C5","midi":72,"time":194.2395833333337,"velocity":0.7637795275590551,"duration":0.2486979166666572},{"name":"G#3","midi":56,"time":194.3645833333337,"velocity":0.7637795275590551,"duration":0.12369791666665719},{"name":"G3","midi":55,"time":194.4895833333337,"velocity":0.7637795275590551,"duration":0.12369791666665719},{"name":"A#4","midi":70,"time":194.4895833333337,"velocity":0.7637795275590551,"duration":0.2486979166666572},{"name":"C#4","midi":61,"time":194.6145833333337,"velocity":0.7637795275590551,"duration":0.12369791666665719},{"name":"G3","midi":55,"time":194.7395833333337,"velocity":0.7637795275590551,"duration":0.12369791666665719},{"name":"G#4","midi":68,"time":194.7395833333337,"velocity":0.7637795275590551,"duration":0.2486979166666572},{"name":"F3","midi":53,"time":194.8645833333337,"velocity":0.7637795275590551,"duration":0.12369791666665719},{"name":"G3","midi":55,"time":194.9895833333337,"velocity":0.7637795275590551,"duration":0.12369791666665719},{"name":"A#4","midi":70,"time":194.9895833333337,"velocity":0.7637795275590551,"duration":0.2486979166666572},{"name":"G#3","midi":56,"time":195.1145833333337,"velocity":0.7637795275590551,"duration":0.12369791666665719},{"name":"A#3","midi":58,"time":195.2395833333337,"velocity":0.7637795275590551,"duration":0.12369791666665719},{"name":"G4","midi":67,"time":195.2395833333337,"velocity":0.7637795275590551,"duration":0.2486979166666572},{"name":"C4","midi":60,"time":195.3645833333337,"velocity":0.7637795275590551,"duration":0.12369791666665719},{"name":"A#3","midi":58,"time":195.4895833333337,"velocity":0.7637795275590551,"duration":0.12369791666665719},{"name":"G#4","midi":68,"time":195.4895833333337,"velocity":0.7637795275590551,"duration":0.2486979166666572},{"name":"G#3","midi":56,"time":195.6145833333337,"velocity":0.7637795275590551,"duration":0.12369791666665719},{"name":"G3","midi":55,"time":195.7395833333337,"velocity":0.7637795275590551,"duration":0.12369791666665719},{"name":"A#4","midi":70,"time":195.7395833333337,"velocity":0.7637795275590551,"duration":0.2213541666666572},{"name":"F3","midi":53,"time":195.8645833333337,"velocity":0.7637795275590551,"duration":0.12369791666665719},{"name":"C4","midi":60,"time":195.9895833333337,"velocity":0.7637795275590551,"duration":0.2486979166666572},{"name":"E4","midi":64,"time":195.9895833333337,"velocity":0.7637795275590551,"duration":0.12369791666665719},{"name":"D4","midi":62,"time":196.1145833333337,"velocity":0.7637795275590551,"duration":0.12369791666665719},{"name":"A#3","midi":58,"time":196.2395833333337,"velocity":0.7637795275590551,"duration":0.12369791666665719},{"name":"C4","midi":60,"time":196.2395833333337,"velocity":0.7637795275590551,"duration":0.12369791666665719},{"name":"G#3","midi":56,"time":196.3645833333337,"velocity":0.7637795275590551,"duration":0.12369791666665719},{"name":"D4","midi":62,"time":196.3645833333337,"velocity":0.7637795275590551,"duration":0.12369791666665719},{"name":"G3","midi":55,"time":196.4895833333337,"velocity":0.7637795275590551,"duration":0.12369791666665719},{"name":"E4","midi":64,"time":196.4895833333337,"velocity":0.7637795275590551,"duration":0.2486979166666572},{"name":"C4","midi":60,"time":196.6145833333337,"velocity":0.7637795275590551,"duration":0.12369791666665719},{"name":"A#3","midi":58,"time":196.7395833333337,"velocity":0.7637795275590551,"duration":0.12369791666665719},{"name":"F4","midi":65,"time":196.7395833333337,"velocity":0.7637795275590551,"duration":0.2486979166666572},{"name":"G#3","midi":56,"time":196.8645833333337,"velocity":0.7637795275590551,"duration":0.12369791666665719},{"name":"G3","midi":55,"time":196.9895833333337,"velocity":0.7637795275590551,"duration":0.12369791666665719},{"name":"G4","midi":67,"time":196.9895833333337,"velocity":0.7637795275590551,"duration":0.2486979166666572},{"name":"F3","midi":53,"time":197.1145833333337,"velocity":0.7637795275590551,"duration":0.12369791666665719},{"name":"E3","midi":52,"time":197.2395833333337,"velocity":0.7637795275590551,"duration":0.12369791666665719},{"name":"G#4","midi":68,"time":197.2395833333337,"velocity":0.7637795275590551,"duration":0.2486979166666572},{"name":"D3","midi":50,"time":197.3645833333337,"velocity":0.7637795275590551,"duration":0.12369791666665719},{"name":"C3","midi":48,"time":197.4895833333337,"velocity":0.7637795275590551,"duration":0.5729166666666572},{"name":"A#4","midi":70,"time":197.4895833333337,"velocity":0.7637795275590551,"duration":0.12369791666665719},{"name":"G#4","midi":68,"time":197.6145833333337,"velocity":0.7637795275590551,"duration":0.12369791666665719},{"name":"G4","midi":67,"time":197.7395833333337,"velocity":0.7637795275590551,"duration":0.12369791666665719},{"name":"G#4","midi":68,"time":197.8645833333337,"velocity":0.7637795275590551,"duration":0.12369791666665719},{"name":"A#4","midi":70,"time":197.9895833333337,"velocity":0.7637795275590551,"duration":0.2486979166666572},{"name":"D3","midi":50,"time":198.1145833333337,"velocity":0.7637795275590551,"duration":0.12369791666665719},{"name":"E3","midi":52,"time":198.2395833333337,"velocity":0.7637795275590551,"duration":0.12369791666665719},{"name":"C5","midi":72,"time":198.2395833333337,"velocity":0.7637795275590551,"duration":0.2486979166666572},{"name":"F3","midi":53,"time":198.3645833333337,"velocity":0.7637795275590551,"duration":0.12369791666665719},{"name":"G3","midi":55,"time":198.4895833333337,"velocity":0.7637795275590551,"duration":0.12369791666665719},{"name":"C#5","midi":73,"time":198.4895833333337,"velocity":0.7637795275590551,"duration":0.234375},{"name":"G#3","midi":56,"time":198.6145833333337,"velocity":0.7637795275590551,"duration":0.12369791666665719},{"name":"A#3","midi":58,"time":198.7395833333337,"velocity":0.7637795275590551,"duration":0.12369791666665719},{"name":"G4","midi":67,"time":198.7395833333337,"velocity":0.7637795275590551,"duration":0.234375},{"name":"G3","midi":55,"time":198.8645833333337,"velocity":0.7637795275590551,"duration":0.12369791666665719},{"name":"E3","midi":52,"time":198.9895833333337,"velocity":0.7637795275590551,"duration":0.234375},{"name":"A#4","midi":70,"time":198.9895833333337,"velocity":0.7637795275590551,"duration":0.234375},{"name":"C#4","midi":61,"time":199.2395833333337,"velocity":0.7637795275590551,"duration":0.2994791666666572},{"name":"E4","midi":64,"time":199.2395833333337,"velocity":0.7637795275590551,"duration":0.234375},{"name":"G4","midi":67,"time":199.4895833333337,"velocity":0.7637795275590551,"duration":0.234375},{"name":"G3","midi":55,"time":199.6145833333337,"velocity":0.7637795275590551,"duration":0.12369791666665719},{"name":"G#3","midi":56,"time":199.7395833333337,"velocity":0.7637795275590551,"duration":0.12369791666665719},{"name":"C4","midi":60,"time":199.7395833333337,"velocity":0.7637795275590551,"duration":0.234375},{"name":"A#3","midi":58,"time":199.8645833333337,"velocity":0.7637795275590551,"duration":0.12369791666665719},{"name":"G#3","midi":56,"time":199.9895833333337,"velocity":0.7637795275590551,"duration":0.12369791666665719},{"name":"C5","midi":72,"time":199.9895833333337,"velocity":0.7637795275590551,"duration":0.12369791666665719},{"name":"G3","midi":55,"time":200.1145833333337,"velocity":0.7637795275590551,"duration":0.12369791666665719},{"name":"A#4","midi":70,"time":200.1145833333337,"velocity":0.7637795275590551,"duration":0.12369791666665719},{"name":"F3","midi":53,"time":200.2395833333337,"velocity":0.7637795275590551,"duration":0.12369791666665719},{"name":"G#4","midi":68,"time":200.2395833333337,"velocity":0.7637795275590551,"duration":0.12369791666665719},{"name":"E3","midi":52,"time":200.3645833333337,"velocity":0.7637795275590551,"duration":0.12369791666665719},{"name":"G4","midi":67,"time":200.3645833333337,"velocity":0.7637795275590551,"duration":0.12369791666665719},{"name":"F3","midi":53,"time":200.4895833333337,"velocity":0.7637795275590551,"duration":0.12369791666665719},{"name":"G#4","midi":68,"time":200.4895833333337,"velocity":0.7637795275590551,"duration":0.12369791666665719},{"name":"G3","midi":55,"time":200.6145833333337,"velocity":0.7637795275590551,"duration":0.12369791666665719},{"name":"G4","midi":67,"time":200.6145833333337,"velocity":0.7637795275590551,"duration":0.12369791666665719},{"name":"G#3","midi":56,"time":200.7395833333337,"velocity":0.7637795275590551,"duration":0.12369791666665719},{"name":"F4","midi":65,"time":200.7395833333337,"velocity":0.7637795275590551,"duration":0.3125},{"name":"F3","midi":53,"time":200.8645833333337,"velocity":0.7637795275590551,"duration":0.12369791666665719},{"name":"D3","midi":50,"time":200.9895833333337,"velocity":0.7637795275590551,"duration":0.2486979166666572},{"name":"G#4","midi":68,"time":201.1145833333337,"velocity":0.7637795275590551,"duration":0.12369791666665719},{"name":"F3","midi":53,"time":201.2395833333337,"velocity":0.7637795275590551,"duration":0.2486979166666572},{"name":"G4","midi":67,"time":201.2395833333337,"velocity":0.7637795275590551,"duration":0.12369791666665719},{"name":"F4","midi":65,"time":201.3645833333337,"velocity":0.7637795275590551,"duration":0.12369791666665719},{"name":"A#2","midi":46,"time":201.4895833333337,"velocity":0.7637795275590551,"duration":0.2486979166666572},{"name":"D#4","midi":63,"time":201.4895833333337,"velocity":0.7637795275590551,"duration":0.12369791666665719},{"name":"D4","midi":62,"time":201.6145833333337,"velocity":0.7637795275590551,"duration":0.12369791666665719},{"name":"G#3","midi":56,"time":201.7395833333337,"velocity":0.7637795275590551,"duration":0.2486979166666572},{"name":"C4","midi":60,"time":201.7395833333337,"velocity":0.7637795275590551,"duration":0.12369791666665719},{"name":"A#3","midi":58,"time":201.8645833333337,"velocity":0.7637795275590551,"duration":0.12369791666665719},{"name":"D#3","midi":51,"time":201.9895833333337,"velocity":0.7637795275590551,"duration":0.12369791666665719},{"name":"G4","midi":67,"time":201.9895833333337,"velocity":0.7637795275590551,"duration":0.12369791666665719},{"name":"F3","midi":53,"time":202.1145833333337,"velocity":0.7637795275590551,"duration":0.12369791666665719},{"name":"F4","midi":65,"time":202.1145833333337,"velocity":0.7637795275590551,"duration":0.12369791666665719},{"name":"G3","midi":55,"time":202.2395833333337,"velocity":0.7637795275590551,"duration":0.12369791666665719},{"name":"D#4","midi":63,"time":202.2395833333337,"velocity":0.7637795275590551,"duration":0.3125},{"name":"D#3","midi":51,"time":202.3645833333337,"velocity":0.7637795275590551,"duration":0.12369791666665719},{"name":"C3","midi":48,"time":202.4895833333337,"velocity":0.7637795275590551,"duration":0.2486979166666572},{"name":"G4","midi":67,"time":202.6145833333337,"velocity":0.7637795275590551,"duration":0.12369791666665719},{"name":"D#3","midi":51,"time":202.7395833333337,"velocity":0.7637795275590551,"duration":0.2486979166666572},{"name":"F4","midi":65,"time":202.7395833333337,"velocity":0.7637795275590551,"duration":0.12369791666665719},{"name":"D#4","midi":63,"time":202.8645833333337,"velocity":0.7637795275590551,"duration":0.12369791666665719},{"name":"G#2","midi":44,"time":202.9895833333337,"velocity":0.7637795275590551,"duration":0.2486979166666572},{"name":"D4","midi":62,"time":202.9895833333337,"velocity":0.7637795275590551,"duration":0.12369791666665719},{"name":"C4","midi":60,"time":203.1145833333337,"velocity":0.7637795275590551,"duration":0.12369791666665719},{"name":"G3","midi":55,"time":203.2395833333337,"velocity":0.7637795275590551,"duration":0.2486979166666572},{"name":"B3","midi":59,"time":203.2395833333337,"velocity":0.7637795275590551,"duration":0.12369791666665719},{"name":"C4","midi":60,"time":203.3645833333337,"velocity":0.7637795275590551,"duration":0.12369791666665719},{"name":"D3","midi":50,"time":203.4895833333337,"velocity":0.7637795275590551,"duration":0.12369791666665719},{"name":"F4","midi":65,"time":203.4895833333337,"velocity":0.7637795275590551,"duration":0.12369791666665719},{"name":"D#3","midi":51,"time":203.6145833333337,"velocity":0.7637795275590551,"duration":0.12369791666665719},{"name":"D#4","midi":63,"time":203.6145833333337,"velocity":0.7637795275590551,"duration":0.12369791666665719},{"name":"F3","midi":53,"time":203.7395833333337,"velocity":0.7637795275590551,"duration":0.12369791666665719},{"name":"D4","midi":62,"time":203.7395833333337,"velocity":0.7637795275590551,"duration":0.3125},{"name":"D3","midi":50,"time":203.8645833333337,"velocity":0.7637795275590551,"duration":0.12369791666665719},{"name":"B2","midi":47,"time":203.9895833333337,"velocity":0.7637795275590551,"duration":0.2486979166666572},{"name":"F4","midi":65,"time":204.1145833333337,"velocity":0.7637795275590551,"duration":0.12369791666665719},{"name":"D3","midi":50,"time":204.2395833333337,"velocity":0.7637795275590551,"duration":0.2486979166666572},{"name":"D#4","midi":63,"time":204.2395833333337,"velocity":0.7637795275590551,"duration":0.12369791666665719},{"name":"D4","midi":62,"time":204.3645833333337,"velocity":0.7637795275590551,"duration":0.12369791666665719},{"name":"G2","midi":43,"time":204.4895833333337,"velocity":0.7637795275590551,"duration":0.2486979166666572},{"name":"C4","midi":60,"time":204.4895833333337,"velocity":0.7637795275590551,"duration":0.12369791666665719},{"name":"B3","midi":59,"time":204.6145833333337,"velocity":0.7637795275590551,"duration":0.12369791666665719},{"name":"F3","midi":53,"time":204.7395833333337,"velocity":0.7637795275590551,"duration":0.2486979166666572},{"name":"A3","midi":57,"time":204.7395833333337,"velocity":0.7637795275590551,"duration":0.12369791666665719},{"name":"G3","midi":55,"time":204.8645833333337,"velocity":0.7637795275590551,"duration":0.12369791666665719},{"name":"C3","midi":48,"time":204.9895833333337,"velocity":0.7637795275590551,"duration":0.12369791666665719},{"name":"D#4","midi":63,"time":204.9895833333337,"velocity":0.7637795275590551,"duration":0.12369791666665719},{"name":"D3","midi":50,"time":205.1145833333337,"velocity":0.7637795275590551,"duration":0.12369791666665719},{"name":"F4","midi":65,"time":205.1145833333337,"velocity":0.7637795275590551,"duration":0.12369791666665719},{"name":"D#3","midi":51,"time":205.2395833333337,"velocity":0.7637795275590551,"duration":0.12369791666665719},{"name":"G4","midi":67,"time":205.2395833333337,"velocity":0.7637795275590551,"duration":0.46875},{"name":"C3","midi":48,"time":205.3645833333337,"velocity":0.7637795275590551,"duration":0.12369791666665719},{"name":"G#2","midi":44,"time":205.4895833333337,"velocity":0.7637795275590551,"duration":0.12369791666665719},{"name":"C3","midi":48,"time":205.6145833333337,"velocity":0.7637795275590551,"duration":0.12369791666665719},{"name":"G2","midi":43,"time":205.7395833333337,"velocity":0.7637795275590551,"duration":0.12369791666665719},{"name":"F4","midi":65,"time":205.7395833333337,"velocity":0.7637795275590551,"duration":0.12369791666665719},{"name":"C3","midi":48,"time":205.8645833333337,"velocity":0.7637795275590551,"duration":0.12369791666665719},{"name":"D#4","midi":63,"time":205.8645833333337,"velocity":0.7637795275590551,"duration":0.12369791666665719},{"name":"F#2","midi":42,"time":205.9895833333337,"velocity":0.7637795275590551,"duration":0.12369791666665719},{"name":"D4","midi":62,"time":205.9895833333337,"velocity":0.7637795275590551,"duration":0.12369791666665719},{"name":"D#3","midi":51,"time":206.1145833333337,"velocity":0.7637795275590551,"duration":0.12369791666665719},{"name":"A4","midi":69,"time":206.1145833333337,"velocity":0.7637795275590551,"duration":0.12369791666665719},{"name":"D3","midi":50,"time":206.2395833333337,"velocity":0.7637795275590551,"duration":0.12369791666665719},{"name":"B4","midi":71,"time":206.2395833333337,"velocity":0.7637795275590551,"duration":0.12369791666665719},{"name":"C3","midi":48,"time":206.3645833333337,"velocity":0.7637795275590551,"duration":0.12369791666665719},{"name":"C5","midi":72,"time":206.3645833333337,"velocity":0.7637795275590551,"duration":0.12369791666665719},{"name":"B2","midi":47,"time":206.4895833333337,"velocity":0.7637795275590551,"duration":0.12369791666665719},{"name":"D5","midi":74,"time":206.4895833333337,"velocity":0.7637795275590551,"duration":0.12369791666665719},{"name":"A2","midi":45,"time":206.6145833333337,"velocity":0.7637795275590551,"duration":0.12369791666665719},{"name":"C5","midi":72,"time":206.6145833333337,"velocity":0.7637795275590551,"duration":0.12369791666665719},{"name":"G2","midi":43,"time":206.7395833333337,"velocity":0.7637795275590551,"duration":0.12369791666665719},{"name":"B4","midi":71,"time":206.7395833333337,"velocity":0.7637795275590551,"duration":0.12369791666665719},{"name":"A2","midi":45,"time":206.8645833333337,"velocity":0.7637795275590551,"duration":0.12369791666665719},{"name":"C5","midi":72,"time":206.8645833333337,"velocity":0.7637795275590551,"duration":0.12369791666665719},{"name":"B2","midi":47,"time":206.9895833333337,"velocity":0.7637795275590551,"duration":0.2486979166666572},{"name":"D5","midi":74,"time":206.9895833333337,"velocity":0.7637795275590551,"duration":0.12369791666665719},{"name":"G5","midi":79,"time":207.1145833333337,"velocity":0.7637795275590551,"duration":0.12369791666665719},{"name":"C3","midi":48,"time":207.2395833333337,"velocity":0.7637795275590551,"duration":0.2486979166666572},{"name":"F5","midi":77,"time":207.2395833333337,"velocity":0.7637795275590551,"duration":0.12369791666665719},{"name":"D#5","midi":75,"time":207.3645833333337,"velocity":0.7637795275590551,"duration":0.12369791666665719},{"name":"D3","midi":50,"time":207.4895833333337,"velocity":0.7637795275590551,"duration":0.2486979166666572},{"name":"D5","midi":74,"time":207.4895833333337,"velocity":0.7637795275590551,"duration":0.12369791666665719},{"name":"C5","midi":72,"time":207.6145833333337,"velocity":0.7637795275590551,"duration":0.12369791666665719},{"name":"D#3","midi":51,"time":207.7395833333337,"velocity":0.7637795275590551,"duration":0.2486979166666572},{"name":"B4","midi":71,"time":207.7395833333337,"velocity":0.7637795275590551,"duration":0.12369791666665719},{"name":"A4","midi":69,"time":207.8645833333337,"velocity":0.7637795275590551,"duration":0.12369791666665719},{"name":"F3","midi":53,"time":207.9895833333337,"velocity":0.7637795275590551,"duration":0.12369791666665719},{"name":"G4","midi":67,"time":207.9895833333337,"velocity":0.7637795275590551,"duration":0.5989583333333428},{"name":"D#3","midi":51,"time":208.1145833333337,"velocity":0.7637795275590551,"duration":0.12369791666665719},{"name":"D3","midi":50,"time":208.2395833333337,"velocity":0.7637795275590551,"duration":0.12369791666665719},{"name":"D#3","midi":51,"time":208.3645833333337,"velocity":0.7637795275590551,"duration":0.12369791666665719},{"name":"F3","midi":53,"time":208.4895833333337,"velocity":0.7637795275590551,"duration":0.2486979166666572},{"name":"A4","midi":69,"time":208.6145833333337,"velocity":0.7637795275590551,"duration":0.12369791666665719},{"name":"G3","midi":55,"time":208.7395833333337,"velocity":0.7637795275590551,"duration":0.2486979166666572},{"name":"B4","midi":71,"time":208.7395833333337,"velocity":0.7637795275590551,"duration":0.12369791666665719},{"name":"C5","midi":72,"time":208.8645833333337,"velocity":0.7637795275590551,"duration":0.12369791666665719},{"name":"G#3","midi":56,"time":208.9895833333337,"velocity":0.7637795275590551,"duration":0.234375},{"name":"D5","midi":74,"time":208.9895833333337,"velocity":0.7637795275590551,"duration":0.12369791666665719},{"name":"D#5","midi":75,"time":209.1145833333337,"velocity":0.7637795275590551,"duration":0.12369791666665719},{"name":"D3","midi":50,"time":209.2395833333337,"velocity":0.7637795275590551,"duration":0.234375},{"name":"F5","midi":77,"time":209.2395833333337,"velocity":0.7637795275590551,"duration":0.12369791666665719},{"name":"D5","midi":74,"time":209.3645833333337,"velocity":0.7637795275590551,"duration":0.12369791666665719},{"name":"F3","midi":53,"time":209.4895833333337,"velocity":0.7637795275590551,"duration":0.234375},{"name":"B4","midi":71,"time":209.4895833333337,"velocity":0.7637795275590551,"duration":0.2213541666666572},{"name":"B2","midi":47,"time":209.7395833333337,"velocity":0.7637795275590551,"duration":0.234375},{"name":"G#5","midi":80,"time":209.7395833333337,"velocity":0.7637795275590551,"duration":0.3125},{"name":"D3","midi":50,"time":209.9895833333337,"velocity":0.7637795275590551,"duration":0.234375},{"name":"D5","midi":74,"time":210.1145833333337,"velocity":0.7637795275590551,"duration":0.12369791666665719},{"name":"G2","midi":43,"time":210.2395833333337,"velocity":0.7637795275590551,"duration":0.234375},{"name":"D#5","midi":75,"time":210.2395833333337,"velocity":0.7637795275590551,"duration":0.12369791666665719},{"name":"F5","midi":77,"time":210.3645833333337,"velocity":0.7637795275590551,"duration":0.12369791666665719},{"name":"G3","midi":55,"time":210.4895833333337,"velocity":0.7637795275590551,"duration":0.12369791666665719},{"name":"D#5","midi":75,"time":210.4895833333337,"velocity":0.7637795275590551,"duration":0.12369791666665719},{"name":"F3","midi":53,"time":210.6145833333337,"velocity":0.7637795275590551,"duration":0.12369791666665719},{"name":"D5","midi":74,"time":210.6145833333337,"velocity":0.7637795275590551,"duration":0.12369791666665719},{"name":"D#3","midi":51,"time":210.7395833333337,"velocity":0.7637795275590551,"duration":0.12369791666665719},{"name":"C5","midi":72,"time":210.7395833333337,"velocity":0.7637795275590551,"duration":0.12369791666665719},{"name":"D3","midi":50,"time":210.8645833333337,"velocity":0.7637795275590551,"duration":0.12369791666665719},{"name":"B4","midi":71,"time":210.8645833333337,"velocity":0.7637795275590551,"duration":0.12369791666665719},{"name":"D#3","midi":51,"time":210.9895833333337,"velocity":0.7637795275590551,"duration":0.12369791666665719},{"name":"C5","midi":72,"time":210.9895833333337,"velocity":0.7637795275590551,"duration":0.4947916666666572},{"name":"D3","midi":50,"time":211.1145833333337,"velocity":0.7637795275590551,"duration":0.12369791666665719},{"name":"C3","midi":48,"time":211.2395833333337,"velocity":0.7637795275590551,"duration":0.12369791666665719},{"name":"D3","midi":50,"time":211.3645833333337,"velocity":0.7637795275590551,"duration":0.12369791666665719},{"name":"D#3","midi":51,"time":211.4895833333337,"velocity":0.7637795275590551,"duration":0.2486979166666572},{"name":"G5","midi":79,"time":211.6145833333337,"velocity":0.7637795275590551,"duration":0.12369791666665719},{"name":"F3","midi":53,"time":211.7395833333337,"velocity":0.7637795275590551,"duration":0.2486979166666572},{"name":"C#5","midi":73,"time":211.7395833333337,"velocity":0.7637795275590551,"duration":0.12369791666665719},{"name":"C5","midi":72,"time":211.8645833333337,"velocity":0.7637795275590551,"duration":0.12369791666665719},{"name":"G3","midi":55,"time":211.9895833333337,"velocity":0.7637795275590551,"duration":0.2486979166666572},{"name":"A#4","midi":70,"time":211.9895833333337,"velocity":0.7637795275590551,"duration":0.12369791666665719},{"name":"D#5","midi":75,"time":212.1145833333337,"velocity":0.7637795275590551,"duration":0.12369791666665719},{"name":"G#3","midi":56,"time":212.2395833333337,"velocity":0.7637795275590551,"duration":0.2486979166666572},{"name":"A#4","midi":70,"time":212.2395833333337,"velocity":0.7637795275590551,"duration":0.12369791666665719},{"name":"G#4","midi":68,"time":212.3645833333337,"velocity":0.7637795275590551,"duration":0.12369791666665719},{"name":"A#3","midi":58,"time":212.4895833333337,"velocity":0.7637795275590551,"duration":0.12369791666665719},{"name":"G4","midi":67,"time":212.4895833333337,"velocity":0.7637795275590551,"duration":0.12369791666665719},{"name":"G#3","midi":56,"time":212.6145833333337,"velocity":0.7637795275590551,"duration":0.12369791666665719},{"name":"G#4","midi":68,"time":212.6145833333337,"velocity":0.7637795275590551,"duration":0.12369791666665719},{"name":"G3","midi":55,"time":212.7395833333337,"velocity":0.7637795275590551,"duration":0.12369791666665719},{"name":"A#4","midi":70,"time":212.7395833333337,"velocity":0.7637795275590551,"duration":0.12369791666665719},{"name":"F3","midi":53,"time":212.8645833333337,"velocity":0.7637795275590551,"duration":0.12369791666665719},{"name":"C5","midi":72,"time":212.8645833333337,"velocity":0.7637795275590551,"duration":0.12369791666665719},{"name":"D#3","midi":51,"time":212.9895833333337,"velocity":0.7637795275590551,"duration":0.12369791666665719},{"name":"C#5","midi":73,"time":212.9895833333337,"velocity":0.7637795275590551,"duration":0.2408854166666572},{"name":"A#3","midi":58,"time":213.1145833333337,"velocity":0.7637795275590551,"duration":0.12369791666665719},{"name":"F3","midi":53,"time":213.2395833333337,"velocity":0.7637795275590551,"duration":0.12369791666665719},{"name":"A#4","midi":70,"time":213.2395833333337,"velocity":0.7637795275590551,"duration":0.2213541666666572},{"name":"D#3","midi":51,"time":213.3645833333337,"velocity":0.7637795275590551,"duration":0.12369791666665719},{"name":"C#3","midi":49,"time":213.4895833333337,"velocity":0.7637795275590551,"duration":0.12369791666665719},{"name":"G5","midi":79,"time":213.4895833333337,"velocity":0.7637795275590551,"duration":0.625},{"name":"A#3","midi":58,"time":213.6145833333337,"velocity":0.7637795275590551,"duration":0.12369791666665719},{"name":"D#3","midi":51,"time":213.7395833333337,"velocity":0.7637795275590551,"duration":0.12369791666665719},{"name":"C#3","midi":49,"time":213.8645833333337,"velocity":0.7637795275590551,"duration":0.12369791666665719},{"name":"C3","midi":48,"time":213.9895833333337,"velocity":0.7637795275590551,"duration":0.12369791666665719},{"name":"A#2","midi":46,"time":214.1145833333337,"velocity":0.7637795275590551,"duration":0.12369791666665719},{"name":"G#2","midi":44,"time":214.2395833333337,"velocity":0.7637795275590551,"duration":0.12369791666665719},{"name":"C5","midi":72,"time":214.2395833333337,"velocity":0.7637795275590551,"duration":0.12369791666665719},{"name":"A#2","midi":46,"time":214.3645833333337,"velocity":0.7637795275590551,"duration":0.12369791666665719},{"name":"A#4","midi":70,"time":214.3645833333337,"velocity":0.7637795275590551,"duration":0.12369791666665719},{"name":"C3","midi":48,"time":214.4895833333337,"velocity":0.7637795275590551,"duration":0.2486979166666572},{"name":"G#4","midi":68,"time":214.4895833333337,"velocity":0.7637795275590551,"duration":0.12369791666665719},{"name":"F5","midi":77,"time":214.6145833333337,"velocity":0.7637795275590551,"duration":0.12369791666665719},{"name":"D3","midi":50,"time":214.7395833333337,"velocity":0.7637795275590551,"duration":0.2486979166666572},{"name":"A#4","midi":70,"time":214.7395833333337,"velocity":0.7637795275590551,"duration":0.12369791666665719},{"name":"G#4","midi":68,"time":214.8645833333337,"velocity":0.7637795275590551,"duration":0.12369791666665719},{"name":"E3","midi":52,"time":214.9895833333337,"velocity":0.7637795275590551,"duration":0.2486979166666572},{"name":"G4","midi":67,"time":214.9895833333337,"velocity":0.7637795275590551,"duration":0.12369791666665719},{"name":"C#5","midi":73,"time":215.1145833333337,"velocity":0.7637795275590551,"duration":0.12369791666665719},{"name":"F3","midi":53,"time":215.2395833333337,"velocity":0.7637795275590551,"duration":0.2486979166666572},{"name":"G4","midi":67,"time":215.2395833333337,"velocity":0.7637795275590551,"duration":0.12369791666665719},{"name":"F4","midi":65,"time":215.3645833333337,"velocity":0.7637795275590551,"duration":0.12369791666665719},{"name":"G3","midi":55,"time":215.4895833333337,"velocity":0.7637795275590551,"duration":0.12369791666665719},{"name":"E4","midi":64,"time":215.4895833333337,"velocity":0.7637795275590551,"duration":0.12369791666665719},{"name":"F3","midi":53,"time":215.6145833333337,"velocity":0.7637795275590551,"duration":0.12369791666665719},{"name":"F4","midi":65,"time":215.6145833333337,"velocity":0.7637795275590551,"duration":0.12369791666665719},{"name":"E3","midi":52,"time":215.7395833333337,"velocity":0.7637795275590551,"duration":0.12369791666665719},{"name":"G4","midi":67,"time":215.7395833333337,"velocity":0.7637795275590551,"duration":0.12369791666665719},{"name":"D3","midi":50,"time":215.8645833333337,"velocity":0.7637795275590551,"duration":0.12369791666665719},{"name":"G#4","midi":68,"time":215.8645833333337,"velocity":0.7637795275590551,"duration":0.12369791666665719},{"name":"C3","midi":48,"time":215.9895833333337,"velocity":0.7637795275590551,"duration":0.12369791666665719},{"name":"A#4","midi":70,"time":215.9895833333337,"velocity":0.7637795275590551,"duration":0.2408854166666572},{"name":"G3","midi":55,"time":216.1145833333337,"velocity":0.7637795275590551,"duration":0.12369791666665719},{"name":"C#3","midi":49,"time":216.2395833333337,"velocity":0.7637795275590551,"duration":0.12369791666665719},{"name":"G4","midi":67,"time":216.2395833333337,"velocity":0.7637795275590551,"duration":0.2408854166666572},{"name":"C3","midi":48,"time":216.3645833333337,"velocity":0.7637795275590551,"duration":0.12369791666665719},{"name":"A#2","midi":46,"time":216.4895833333337,"velocity":0.7637795275590551,"duration":0.12369791666668561},{"name":"F5","midi":77,"time":216.4895833333337,"velocity":0.7637795275590551,"duration":0.08203125},{"name":"E5","midi":76,"time":216.57291666666706,"velocity":0.7637795275590551,"duration":0.08203125000002842},{"name":"G3","midi":55,"time":216.61458333333374,"velocity":0.7637795275590551,"duration":0.12369791666668561},{"name":"F5","midi":77,"time":216.65625000000043,"velocity":0.7637795275590551,"duration":0.08203125},{"name":"C3","midi":48,"time":216.73958333333377,"velocity":0.7637795275590551,"duration":0.12369791666668561},{"name":"E5","midi":76,"time":216.73958333333377,"velocity":0.7637795275590551,"duration":0.08203125},{"name":"D5","midi":74,"time":216.8229166666671,"velocity":0.7637795275590551,"duration":0.08203125000002842},{"name":"A#2","midi":46,"time":216.8645833333338,"velocity":0.7637795275590551,"duration":0.12369791666668561},{"name":"E5","midi":76,"time":216.90625000000048,"velocity":0.7637795275590551,"duration":0.08203125},{"name":"G#2","midi":44,"time":216.98958333333383,"velocity":0.7637795275590551,"duration":0.12369791666665719},{"name":"F5","midi":77,"time":216.98958333333383,"velocity":0.7637795275590551,"duration":0.2486979166666572},{"name":"F3","midi":53,"time":217.11458333333383,"velocity":0.7637795275590551,"duration":0.12369791666665719},{"name":"G#2","midi":44,"time":217.23958333333383,"velocity":0.7637795275590551,"duration":0.12369791666665719},{"name":"F4","midi":65,"time":217.23958333333383,"velocity":0.7637795275590551,"duration":0.12369791666665719},{"name":"G2","midi":43,"time":217.36458333333383,"velocity":0.7637795275590551,"duration":0.12369791666665719},{"name":"G4","midi":67,"time":217.36458333333383,"velocity":0.7637795275590551,"duration":0.12369791666665719},{"name":"F2","midi":41,"time":217.48958333333383,"velocity":0.7637795275590551,"duration":0.12369791666665719},{"name":"G#4","midi":68,"time":217.48958333333383,"velocity":0.7637795275590551,"duration":0.2486979166666572},{"name":"C3","midi":48,"time":217.61458333333383,"velocity":0.7637795275590551,"duration":0.12369791666665719},{"name":"C#3","midi":49,"time":217.73958333333383,"velocity":0.7637795275590551,"duration":0.12369791666665719},{"name":"A#4","midi":70,"time":217.73958333333383,"velocity":0.7637795275590551,"duration":0.2486979166666572},{"name":"G2","midi":43,"time":217.86458333333383,"velocity":0.7637795275590551,"duration":0.12369791666665719},{"name":"A2","midi":45,"time":217.98958333333383,"velocity":0.7637795275590551,"duration":0.12369791666665719},{"name":"C5","midi":72,"time":217.98958333333383,"velocity":0.7637795275590551,"duration":0.2486979166666572},{"name":"D#3","midi":51,"time":218.11458333333383,"velocity":0.7637795275590551,"duration":0.12369791666665719},{"name":"F3","midi":53,"time":218.23958333333383,"velocity":0.7637795275590551,"duration":0.12369791666665719},{"name":"D5","midi":74,"time":218.23958333333383,"velocity":0.7637795275590551,"duration":0.2486979166666572},{"name":"B2","midi":47,"time":218.36458333333383,"velocity":0.7637795275590551,"duration":0.12369791666665719},{"name":"C3","midi":48,"time":218.48958333333383,"velocity":0.7637795275590551,"duration":0.12369791666665719},{"name":"D#5","midi":75,"time":218.48958333333383,"velocity":0.7637795275590551,"duration":0.12369791666665719},{"name":"F3","midi":53,"time":218.61458333333383,"velocity":0.7637795275590551,"duration":0.12369791666665719},{"name":"D5","midi":74,"time":218.61458333333383,"velocity":0.7637795275590551,"duration":0.12369791666665719},{"name":"D#3","midi":51,"time":218.73958333333383,"velocity":0.7637795275590551,"duration":0.12369791666665719},{"name":"C5","midi":72,"time":218.73958333333383,"velocity":0.7637795275590551,"duration":0.12369791666665719},{"name":"D3","midi":50,"time":218.86458333333383,"velocity":0.7637795275590551,"duration":0.12369791666665719},{"name":"D5","midi":74,"time":218.86458333333383,"velocity":0.7637795275590551,"duration":0.12369791666665719},{"name":"C3","midi":48,"time":218.98958333333383,"velocity":0.7637795275590551,"duration":0.12369791666665719},{"name":"D#5","midi":75,"time":218.98958333333383,"velocity":0.7637795275590551,"duration":0.2486979166666572},{"name":"G3","midi":55,"time":219.11458333333383,"velocity":0.7637795275590551,"duration":0.12369791666665719},{"name":"G#3","midi":56,"time":219.23958333333383,"velocity":0.7637795275590551,"duration":0.12369791666665719},{"name":"F5","midi":77,"time":219.23958333333383,"velocity":0.7637795275590551,"duration":0.2486979166666572},{"name":"D3","midi":50,"time":219.36458333333383,"velocity":0.7637795275590551,"duration":0.12369791666665719},{"name":"D#3","midi":51,"time":219.48958333333383,"velocity":0.7637795275590551,"duration":0.12369791666665719},{"name":"G5","midi":79,"time":219.48958333333383,"velocity":0.7637795275590551,"duration":0.2486979166666572},{"name":"B3","midi":59,"time":219.61458333333383,"velocity":0.7637795275590551,"duration":0.12369791666665719},{"name":"C4","midi":60,"time":219.73958333333383,"velocity":0.7637795275590551,"duration":0.12369791666665719},{"name":"G#5","midi":80,"time":219.73958333333383,"velocity":0.7637795275590551,"duration":0.2486979166666572},{"name":"F3","midi":53,"time":219.86458333333383,"velocity":0.7637795275590551,"duration":0.12369791666665719},{"name":"G3","midi":55,"time":219.98958333333383,"velocity":0.7637795275590551,"duration":0.3645833333333428},{"name":"B4","midi":71,"time":219.98958333333383,"velocity":0.7637795275590551,"duration":0.3750000000000284},{"name":"G5","midi":79,"time":220.11458333333383,"velocity":0.7637795275590551,"duration":0.12369791666665719},{"name":"G2","midi":43,"time":220.23958333333383,"velocity":0.7637795275590551,"duration":0.24739583333337123},{"name":"D5","midi":74,"time":220.23958333333383,"velocity":0.7637795275590551,"duration":0.12369791666668561},{"name":"C5","midi":72,"time":220.36458333333385,"velocity":0.7637795275590551,"duration":0.12369791666668561},{"name":"B4","midi":71,"time":220.48958333333388,"velocity":0.7637795275590551,"duration":0.12369791666665719},{"name":"A4","midi":69,"time":220.61458333333388,"velocity":0.7637795275590551,"duration":0.12369791666665719},{"name":"C5","midi":72,"time":220.61458333333388,"velocity":0.7637795275590551,"duration":0.12369791666665719},{"name":"B4","midi":71,"time":220.73958333333388,"velocity":0.7637795275590551,"duration":0.12369791666665719},{"name":"D5","midi":74,"time":220.73958333333388,"velocity":0.7637795275590551,"duration":0.12369791666665719},{"name":"C5","midi":72,"time":220.86458333333388,"velocity":0.7637795275590551,"duration":0.12369791666665719},{"name":"D#5","midi":75,"time":220.86458333333388,"velocity":0.7637795275590551,"duration":0.12369791666665719},{"name":"B4","midi":71,"time":220.98958333333388,"velocity":0.7637795275590551,"duration":0.2486979166666572},{"name":"D5","midi":74,"time":220.98958333333388,"velocity":0.7637795275590551,"duration":0.1822916666666572},{"name":"G5","midi":79,"time":221.11458333333388,"velocity":0.7637795275590551,"duration":0.12369791666665719},{"name":"A4","midi":69,"time":221.23958333333388,"velocity":0.7637795275590551,"duration":0.2486979166666572},{"name":"D5","midi":74,"time":221.23958333333388,"velocity":0.7637795275590551,"duration":0.12369791666665719},{"name":"C5","midi":72,"time":221.36458333333388,"velocity":0.7637795275590551,"duration":0.12369791666665719},{"name":"G4","midi":67,"time":221.48958333333388,"velocity":0.7637795275590551,"duration":0.4947916666666856},{"name":"B4","midi":71,"time":221.48958333333388,"velocity":0.7637795275590551,"duration":0.3645833333333428},{"name":"G5","midi":79,"time":221.61458333333388,"velocity":0.7637795275590551,"duration":0.12369791666665719},{"name":"G3","midi":55,"time":221.73958333333388,"velocity":0.7637795275590551,"duration":0.3385416666666856},{"name":"D5","midi":74,"time":221.73958333333388,"velocity":0.7637795275590551,"duration":0.12369791666668561},{"name":"C5","midi":72,"time":221.8645833333339,"velocity":0.7637795275590551,"duration":0.12369791666665719},{"name":"B4","midi":71,"time":221.9895833333339,"velocity":0.7637795275590551,"duration":0.12369791666665719},{"name":"D#4","midi":63,"time":222.1145833333339,"velocity":0.7637795275590551,"duration":0.12369791666665719},{"name":"C5","midi":72,"time":222.1145833333339,"velocity":0.7637795275590551,"duration":0.12369791666665719},{"name":"F4","midi":65,"time":222.2395833333339,"velocity":0.7637795275590551,"duration":0.12369791666665719},{"name":"D5","midi":74,"time":222.2395833333339,"velocity":0.7637795275590551,"duration":0.12369791666665719},{"name":"G4","midi":67,"time":222.3645833333339,"velocity":0.7637795275590551,"duration":0.12369791666665719},{"name":"D#5","midi":75,"time":222.3645833333339,"velocity":0.7637795275590551,"duration":0.12369791666665719},{"name":"F4","midi":65,"time":222.4895833333339,"velocity":0.7637795275590551,"duration":0.2486979166666572},{"name":"D5","midi":74,"time":222.4895833333339,"velocity":0.7637795275590551,"duration":0.1822916666666572},{"name":"G5","midi":79,"time":222.6145833333339,"velocity":0.7637795275590551,"duration":0.12369791666665719},{"name":"D#4","midi":63,"time":222.7395833333339,"velocity":0.7637795275590551,"duration":0.2486979166666572},{"name":"D5","midi":74,"time":222.7395833333339,"velocity":0.7637795275590551,"duration":0.12369791666665719},{"name":"C5","midi":72,"time":222.8645833333339,"velocity":0.7637795275590551,"duration":0.12369791666665719},{"name":"D4","midi":62,"time":222.9895833333339,"velocity":0.7637795275590551,"duration":0.36458333333337123},{"name":"B4","midi":71,"time":222.9895833333339,"velocity":0.7637795275590551,"duration":0.2083333333333428},{"name":"F5","midi":77,"time":223.1145833333339,"velocity":0.7637795275590551,"duration":0.12369791666668561},{"name":"G3","midi":55,"time":223.23958333333394,"velocity":0.7637795275590551,"duration":0.3385416666666856},{"name":"D5","midi":74,"time":223.23958333333394,"velocity":0.7637795275590551,"duration":0.12369791666668561},{"name":"C5","midi":72,"time":223.36458333333397,"velocity":0.7637795275590551,"duration":0.12369791666665719},{"name":"B4","midi":71,"time":223.48958333333397,"velocity":0.7637795275590551,"duration":0.12369791666665719},{"name":"A3","midi":57,"time":223.61458333333397,"velocity":0.7637795275590551,"duration":0.12369791666665719},{"name":"C5","midi":72,"time":223.61458333333397,"velocity":0.7637795275590551,"duration":0.12369791666665719},{"name":"B3","midi":59,"time":223.73958333333397,"velocity":0.7637795275590551,"duration":0.12369791666665719},{"name":"D5","midi":74,"time":223.73958333333397,"velocity":0.7637795275590551,"duration":0.12369791666665719},{"name":"C4","midi":60,"time":223.86458333333397,"velocity":0.7637795275590551,"duration":0.12369791666665719},{"name":"D#5","midi":75,"time":223.86458333333397,"velocity":0.7637795275590551,"duration":0.12369791666665719},{"name":"B3","midi":59,"time":223.98958333333397,"velocity":0.7637795275590551,"duration":0.24869791666668561},{"name":"D5","midi":74,"time":223.98958333333397,"velocity":0.7637795275590551,"duration":0.1692708333333428},{"name":"F5","midi":77,"time":224.11458333333397,"velocity":0.7637795275590551,"duration":0.12369791666668561},{"name":"A3","midi":57,"time":224.239583333334,"velocity":0.7637795275590551,"duration":0.2486979166666572},{"name":"D5","midi":74,"time":224.239583333334,"velocity":0.7637795275590551,"duration":0.12369791666665719},{"name":"C5","midi":72,"time":224.364583333334,"velocity":0.7637795275590551,"duration":0.12369791666665719},{"name":"G3","midi":55,"time":224.489583333334,"velocity":0.7637795275590551,"duration":0.4947916666666856},{"name":"B4","midi":71,"time":224.489583333334,"velocity":0.7637795275590551,"duration":0.2473958333333428},{"name":"F5","midi":77,"time":224.614583333334,"velocity":0.7637795275590551,"duration":0.12369791666668561},{"name":"G2","midi":43,"time":224.73958333333402,"velocity":0.7637795275590551,"duration":0.3645833333333428},{"name":"D5","midi":74,"time":224.73958333333402,"velocity":0.7637795275590551,"duration":0.12369791666665719},{"name":"C5","midi":72,"time":224.86458333333402,"velocity":0.7637795275590551,"duration":0.12369791666665719},{"name":"B4","midi":71,"time":224.98958333333402,"velocity":0.7637795275590551,"duration":0.12369791666668561},{"name":"D5","midi":74,"time":225.11458333333405,"velocity":0.7637795275590551,"duration":0.12369791666665719},{"name":"G4","midi":67,"time":225.23958333333405,"velocity":0.7637795275590551,"duration":0.12369791666665719},{"name":"F5","midi":77,"time":225.23958333333405,"velocity":0.7637795275590551,"duration":0.12369791666665719},{"name":"F4","midi":65,"time":225.36458333333405,"velocity":0.7637795275590551,"duration":0.12369791666665719},{"name":"G#5","midi":80,"time":225.36458333333405,"velocity":0.7637795275590551,"duration":0.12369791666665719},{"name":"D#4","midi":63,"time":225.48958333333405,"velocity":0.7637795275590551,"duration":0.12369791666665719},{"name":"G5","midi":79,"time":225.48958333333405,"velocity":0.7637795275590551,"duration":0.12369791666665719},{"name":"D4","midi":62,"time":225.61458333333405,"velocity":0.7637795275590551,"duration":0.12369791666665719},{"name":"F5","midi":77,"time":225.61458333333405,"velocity":0.7637795275590551,"duration":0.12369791666665719},{"name":"C4","midi":60,"time":225.73958333333405,"velocity":0.7637795275590551,"duration":0.12369791666665719},{"name":"D#5","midi":75,"time":225.73958333333405,"velocity":0.7637795275590551,"duration":0.12369791666665719},{"name":"B3","midi":59,"time":225.86458333333405,"velocity":0.7637795275590551,"duration":0.12369791666665719},{"name":"D5","midi":74,"time":225.86458333333405,"velocity":0.7637795275590551,"duration":0.12369791666665719},{"name":"C4","midi":60,"time":225.98958333333405,"velocity":0.7637795275590551,"duration":0.2486979166666572},{"name":"D#5","midi":75,"time":225.98958333333405,"velocity":0.7637795275590551,"duration":0.12369791666665719},{"name":"F5","midi":77,"time":226.11458333333405,"velocity":0.7637795275590551,"duration":0.12369791666665719},{"name":"C3","midi":48,"time":226.23958333333405,"velocity":0.7637795275590551,"duration":0.12369791666665719},{"name":"G5","midi":79,"time":226.23958333333405,"velocity":0.7637795275590551,"duration":0.12369791666665719},{"name":"D3","midi":50,"time":226.36458333333405,"velocity":0.7637795275590551,"duration":0.12369791666665719},{"name":"D#5","midi":75,"time":226.36458333333405,"velocity":0.7637795275590551,"duration":0.12369791666665719},{"name":"D#3","midi":51,"time":226.48958333333405,"velocity":0.7637795275590551,"duration":0.2486979166666572},{"name":"C5","midi":72,"time":226.48958333333405,"velocity":0.7637795275590551,"duration":0.12369791666665719},{"name":"G5","midi":79,"time":226.61458333333405,"velocity":0.7637795275590551,"duration":0.12369791666665719},{"name":"F3","midi":53,"time":226.73958333333405,"velocity":0.7637795275590551,"duration":0.2486979166666572},{"name":"F5","midi":77,"time":226.73958333333405,"velocity":0.7637795275590551,"duration":0.12369791666665719},{"name":"D#5","midi":75,"time":226.86458333333405,"velocity":0.7637795275590551,"duration":0.12369791666665719},{"name":"G3","midi":55,"time":226.98958333333405,"velocity":0.7637795275590551,"duration":0.2486979166666572},{"name":"D5","midi":74,"time":226.98958333333405,"velocity":0.7637795275590551,"duration":0.12369791666665719},{"name":"C5","midi":72,"time":227.11458333333405,"velocity":0.7637795275590551,"duration":0.12369791666665719},{"name":"G#3","midi":56,"time":227.23958333333405,"velocity":0.7637795275590551,"duration":0.2486979166666572},{"name":"A#4","midi":70,"time":227.23958333333405,"velocity":0.7637795275590551,"duration":0.12369791666665719},{"name":"G#4","midi":68,"time":227.36458333333405,"velocity":0.7637795275590551,"duration":0.12369791666665719},{"name":"A#3","midi":58,"time":227.48958333333405,"velocity":0.7637795275590551,"duration":0.12369791666665719},{"name":"G4","midi":67,"time":227.48958333333405,"velocity":0.7637795275590551,"duration":0.12369791666665719},{"name":"G#3","midi":56,"time":227.61458333333405,"velocity":0.7637795275590551,"duration":0.12369791666665719},{"name":"G#4","midi":68,"time":227.61458333333405,"velocity":0.7637795275590551,"duration":0.12369791666665719},{"name":"G3","midi":55,"time":227.73958333333405,"velocity":0.7637795275590551,"duration":0.12369791666665719},{"name":"A#4","midi":70,"time":227.73958333333405,"velocity":0.7637795275590551,"duration":0.3385416666666572},{"name":"G#3","midi":56,"time":227.86458333333405,"velocity":0.7637795275590551,"duration":0.12369791666665719},{"name":"A#3","midi":58,"time":227.98958333333405,"velocity":0.7637795275590551,"duration":0.2486979166666572},{"name":"C5","midi":72,"time":228.11458333333405,"velocity":0.7637795275590551,"duration":0.12369791666665719},{"name":"C4","midi":60,"time":228.23958333333405,"velocity":0.7637795275590551,"duration":0.2486979166666572},{"name":"A#4","midi":70,"time":228.23958333333405,"velocity":0.7637795275590551,"duration":0.12369791666665719},{"name":"G#4","midi":68,"time":228.36458333333405,"velocity":0.7637795275590551,"duration":0.12369791666665719},{"name":"C#4","midi":61,"time":228.48958333333405,"velocity":0.7637795275590551,"duration":0.234375},{"name":"G4","midi":67,"time":228.48958333333405,"velocity":0.7637795275590551,"duration":0.12369791666665719},{"name":"F4","midi":65,"time":228.61458333333405,"velocity":0.7637795275590551,"duration":0.12369791666665719},{"name":"G3","midi":55,"time":228.73958333333405,"velocity":0.7637795275590551,"duration":0.234375},{"name":"E4","midi":64,"time":228.73958333333405,"velocity":0.7637795275590551,"duration":0.12369791666665719},{"name":"D4","midi":62,"time":228.86458333333405,"velocity":0.7637795275590551,"duration":0.12369791666665719},{"name":"A#3","midi":58,"time":228.98958333333405,"velocity":0.7637795275590551,"duration":0.234375},{"name":"C4","midi":60,"time":228.98958333333405,"velocity":0.7637795275590551,"duration":0.12369791666665719},{"name":"G4","midi":67,"time":229.11458333333405,"velocity":0.7637795275590551,"duration":0.12369791666665719},{"name":"E3","midi":52,"time":229.23958333333405,"velocity":0.7637795275590551,"duration":0.234375},{"name":"C4","midi":60,"time":229.23958333333405,"velocity":0.7637795275590551,"duration":0.12369791666665719},{"name":"A#3","midi":58,"time":229.36458333333405,"velocity":0.7637795275590551,"duration":0.12369791666665719},{"name":"G3","midi":55,"time":229.48958333333405,"velocity":0.7637795275590551,"duration":0.234375},{"name":"C4","midi":60,"time":229.48958333333405,"velocity":0.7637795275590551,"duration":0.12369791666665719},{"name":"D4","midi":62,"time":229.61458333333405,"velocity":0.7637795275590551,"duration":0.12369791666665719},{"name":"C3","midi":48,"time":229.73958333333405,"velocity":0.7637795275590551,"duration":0.234375},{"name":"E4","midi":64,"time":229.73958333333405,"velocity":0.7637795275590551,"duration":0.12369791666665719},{"name":"F4","midi":65,"time":229.86458333333405,"velocity":0.7637795275590551,"duration":0.12369791666665719},{"name":"C4","midi":60,"time":229.98958333333405,"velocity":0.7637795275590551,"duration":0.12369791666665719},{"name":"E4","midi":64,"time":229.98958333333405,"velocity":0.7637795275590551,"duration":0.12369791666665719},{"name":"A#3","midi":58,"time":230.11458333333405,"velocity":0.7637795275590551,"duration":0.12369791666665719},{"name":"G4","midi":67,"time":230.11458333333405,"velocity":0.7637795275590551,"duration":0.12369791666665719},{"name":"G#3","midi":56,"time":230.23958333333405,"velocity":0.7637795275590551,"duration":0.12369791666665719},{"name":"C4","midi":60,"time":230.23958333333405,"velocity":0.7637795275590551,"duration":0.12369791666665719},{"name":"G3","midi":55,"time":230.36458333333405,"velocity":0.7637795275590551,"duration":0.12369791666665719},{"name":"A#3","midi":58,"time":230.36458333333405,"velocity":0.7637795275590551,"duration":0.12369791666665719},{"name":"G#3","midi":56,"time":230.48958333333405,"velocity":0.7637795275590551,"duration":0.546875},{"name":"C4","midi":60,"time":230.48958333333405,"velocity":0.7637795275590551,"duration":0.12369791666665719},{"name":"G4","midi":67,"time":230.61458333333405,"velocity":0.7637795275590551,"duration":0.12369791666665719},{"name":"F4","midi":65,"time":230.73958333333405,"velocity":0.7637795275590551,"duration":0.12369791666665719},{"name":"E4","midi":64,"time":230.86458333333405,"velocity":0.7637795275590551,"duration":0.12369791666665719},{"name":"F4","midi":65,"time":230.98958333333405,"velocity":0.7637795275590551,"duration":0.12369791666665719},{"name":"A#3","midi":58,"time":231.11458333333405,"velocity":0.7637795275590551,"duration":0.12369791666665719},{"name":"C4","midi":60,"time":231.11458333333405,"velocity":0.7637795275590551,"duration":0.12369791666665719},{"name":"G#3","midi":56,"time":231.23958333333405,"velocity":0.7637795275590551,"duration":0.12369791666665719},{"name":"F4","midi":65,"time":231.23958333333405,"velocity":0.7637795275590551,"duration":0.12369791666665719},{"name":"G3","midi":55,"time":231.36458333333405,"velocity":0.7637795275590551,"duration":0.12369791666665719},{"name":"G4","midi":67,"time":231.36458333333405,"velocity":0.7637795275590551,"duration":0.12369791666665719},{"name":"F3","midi":53,"time":231.48958333333405,"velocity":0.7637795275590551,"duration":0.12369791666665719},{"name":"G#4","midi":68,"time":231.48958333333405,"velocity":0.7637795275590551,"duration":0.12369791666665719},{"name":"G3","midi":55,"time":231.61458333333405,"velocity":0.7637795275590551,"duration":0.12369791666665719},{"name":"A#4","midi":70,"time":231.61458333333405,"velocity":0.7637795275590551,"duration":0.12369791666665719},{"name":"G#3","midi":56,"time":231.73958333333405,"velocity":0.7637795275590551,"duration":0.12369791666665719},{"name":"C5","midi":72,"time":231.73958333333405,"velocity":0.7637795275590551,"duration":0.12369791666665719},{"name":"F3","midi":53,"time":231.86458333333405,"velocity":0.7637795275590551,"duration":0.12369791666665719},{"name":"D5","midi":74,"time":231.86458333333405,"velocity":0.7637795275590551,"duration":0.12369791666665719},{"name":"G3","midi":55,"time":231.98958333333405,"velocity":0.7637795275590551,"duration":0.12369791666665719},{"name":"D#5","midi":75,"time":231.98958333333405,"velocity":0.7637795275590551,"duration":0.12369791666665719},{"name":"F3","midi":53,"time":232.11458333333405,"velocity":0.7637795275590551,"duration":0.12369791666665719},{"name":"D5","midi":74,"time":232.11458333333405,"velocity":0.7637795275590551,"duration":0.12369791666665719},{"name":"D#3","midi":51,"time":232.23958333333405,"velocity":0.7637795275590551,"duration":0.12369791666665719},{"name":"C5","midi":72,"time":232.23958333333405,"velocity":0.7637795275590551,"duration":0.12369791666665719},{"name":"D3","midi":50,"time":232.36458333333405,"velocity":0.7637795275590551,"duration":0.12369791666665719},{"name":"D5","midi":74,"time":232.36458333333405,"velocity":0.7637795275590551,"duration":0.12369791666665719},{"name":"C3","midi":48,"time":232.48958333333405,"velocity":0.7637795275590551,"duration":0.12369791666665719},{"name":"D#5","midi":75,"time":232.48958333333405,"velocity":0.7637795275590551,"duration":0.2486979166666572},{"name":"A#2","midi":46,"time":232.61458333333405,"velocity":0.7637795275590551,"duration":0.12369791666665719},{"name":"G#2","midi":44,"time":232.73958333333405,"velocity":0.7637795275590551,"duration":0.12369791666665719},{"name":"F5","midi":77,"time":232.73958333333405,"velocity":0.7637795275590551,"duration":0.12369791666665719},{"name":"G2","midi":43,"time":232.86458333333405,"velocity":0.7637795275590551,"duration":0.12369791666665719},{"name":"G5","midi":79,"time":232.86458333333405,"velocity":0.7637795275590551,"duration":0.12369791666665719},{"name":"F2","midi":41,"time":232.98958333333405,"velocity":0.7637795275590551,"duration":0.2473958333333428},{"name":"G#5","midi":80,"time":232.98958333333405,"velocity":0.7637795275590551,"duration":0.234375},{"name":"F3","midi":53,"time":233.11458333333405,"velocity":0.7637795275590551,"duration":0.12369791666668561},{"name":"E3","midi":52,"time":233.23958333333408,"velocity":0.7637795275590551,"duration":0.12369791666665719},{"name":"C#5","midi":73,"time":233.23958333333408,"velocity":0.7637795275590551,"duration":0.234375},{"name":"F3","midi":53,"time":233.36458333333408,"velocity":0.7637795275590551,"duration":0.12369791666665719},{"name":"G#3","midi":56,"time":233.48958333333408,"velocity":0.7637795275590551,"duration":0.2083333333333428},{"name":"F5","midi":77,"time":233.48958333333408,"velocity":0.7637795275590551,"duration":0.234375},{"name":"F3","midi":53,"time":233.61458333333408,"velocity":0.7637795275590551,"duration":0.12369791666665719},{"name":"E3","midi":52,"time":233.73958333333408,"velocity":0.7637795275590551,"duration":0.12369791666665719},{"name":"B4","midi":71,"time":233.73958333333408,"velocity":0.7637795275590551,"duration":0.234375},{"name":"F3","midi":53,"time":233.86458333333408,"velocity":0.7637795275590551,"duration":0.12369791666665719},{"name":"B2","midi":47,"time":233.98958333333408,"velocity":0.7637795275590551,"duration":0.2083333333333428},{"name":"D5","midi":74,"time":233.98958333333408,"velocity":0.7637795275590551,"duration":0.234375},{"name":"F3","midi":53,"time":234.11458333333408,"velocity":0.7637795275590551,"duration":0.12369791666665719},{"name":"D#3","midi":51,"time":234.23958333333408,"velocity":0.7637795275590551,"duration":0.12369791666665719},{"name":"G4","midi":67,"time":234.23958333333408,"velocity":0.7637795275590551,"duration":0.234375},{"name":"D3","midi":50,"time":234.36458333333408,"velocity":0.7637795275590551,"duration":0.12369791666665719},{"name":"D#3","midi":51,"time":234.48958333333408,"velocity":0.7637795275590551,"duration":0.15625},{"name":"G5","midi":79,"time":234.48958333333408,"velocity":0.7637795275590551,"duration":0.12369791666665719},{"name":"G3","midi":55,"time":234.61458333333408,"velocity":0.7637795275590551,"duration":0.12369791666665719},{"name":"F5","midi":77,"time":234.61458333333408,"velocity":0.7637795275590551,"duration":0.12369791666665719},{"name":"C3","midi":48,"time":234.73958333333408,"velocity":0.7637795275590551,"duration":0.15625},{"name":"D#5","midi":75,"time":234.73958333333408,"velocity":0.7637795275590551,"duration":0.12369791666665719},{"name":"D#3","midi":51,"time":234.86458333333408,"velocity":0.7637795275590551,"duration":0.12369791666665719},{"name":"D5","midi":74,"time":234.86458333333408,"velocity":0.7637795275590551,"duration":0.12369791666665719},{"name":"F#2","midi":42,"time":234.98958333333408,"velocity":0.7637795275590551,"duration":0.7486979166666572},{"name":"D#5","midi":75,"time":234.98958333333408,"velocity":0.7637795275590551,"duration":0.7486979166666572},{"name":"A4","midi":69,"time":236.23958333333408,"velocity":0.7637795275590551,"duration":0.12369791666665719},{"name":"C5","midi":72,"time":236.23958333333408,"velocity":0.7637795275590551,"duration":0.12369791666665719},{"name":"F#3","midi":54,"time":236.23958333333408,"velocity":0.7637795275590551,"duration":0.12369791666665719},{"name":"D#4","midi":63,"time":236.23958333333408,"velocity":0.7637795275590551,"duration":0.12369791666665719},{"name":"G4","midi":67,"time":236.36458333333408,"velocity":0.7637795275590551,"duration":1.6276041666666572},{"name":"C5","midi":72,"time":236.36458333333408,"velocity":0.7637795275590551,"duration":0.8111979166666572},{"name":"G3","midi":55,"time":236.36458333333408,"velocity":0.7637795275590551,"duration":1.7578125},{"name":"D4","midi":62,"time":236.36458333333408,"velocity":0.7637795275590551,"duration":0.7486979166666572},{"name":"G2","midi":43,"time":237.1354166666674,"velocity":0.7637795275590551,"duration":0.9986979166666856},{"name":"B4","midi":71,"time":237.1979166666674,"velocity":0.7637795275590551,"duration":0.06119791666665719},{"name":"C5","midi":72,"time":237.2604166666674,"velocity":0.7637795275590551,"duration":0.06119791666665719},{"name":"B4","midi":71,"time":237.3229166666674,"velocity":0.7637795275590551,"duration":0.06119791666665719},{"name":"C5","midi":72,"time":237.3854166666674,"velocity":0.7637795275590551,"duration":0.06119791666665719},{"name":"B4","midi":71,"time":237.4479166666674,"velocity":0.7637795275590551,"duration":0.06119791666665719},{"name":"C5","midi":72,"time":237.5104166666674,"velocity":0.7637795275590551,"duration":0.06119791666665719},{"name":"B4","midi":71,"time":237.5729166666674,"velocity":0.7637795275590551,"duration":0.32421875},{"name":"C5","midi":72,"time":237.9322916666674,"velocity":0.7637795275590551,"duration":0.21875000000002842},{"name":"C2","midi":36,"time":238.17708333333408,"velocity":0.7637795275590551,"duration":1.6927083333333428},{"name":"D#4","midi":63,"time":238.17708333333408,"velocity":0.7637795275590551,"duration":1.6927083333333428},{"name":"G4","midi":67,"time":238.17708333333408,"velocity":0.7637795275590551,"duration":1.6927083333333428},{"name":"C5","midi":72,"time":238.17708333333408,"velocity":0.7637795275590551,"duration":1.6927083333333428},{"name":"G#5","midi":80,"time":241.73958333333408,"velocity":0.7637795275590551,"duration":0.2486979166666572},{"name":"G5","midi":79,"time":241.98958333333408,"velocity":0.7637795275590551,"duration":0.2486979166666572},{"name":"F5","midi":77,"time":242.23958333333408,"velocity":0.7637795275590551,"duration":0.2486979166666572},{"name":"C3","midi":48,"time":242.48958333333408,"velocity":0.7637795275590551,"duration":0.9375},{"name":"G5","midi":79,"time":242.48958333333408,"velocity":0.7637795275590551,"duration":0.2486979166666572},{"name":"D5","midi":74,"time":242.73958333333408,"velocity":0.7637795275590551,"duration":0.2486979166666572},{"name":"C2","midi":36,"time":242.98958333333408,"velocity":0.7637795275590551,"duration":0.6770833333333428},{"name":"D#5","midi":75,"time":242.98958333333408,"velocity":0.7637795275590551,"duration":0.2486979166666572},{"name":"B4","midi":71,"time":243.23958333333408,"velocity":0.7637795275590551,"duration":0.2486979166666572},{"name":"C5","midi":72,"time":243.48958333333408,"velocity":0.7637795275590551,"duration":0.24869791666668561},{"name":"G#4","midi":68,"time":243.7395833333341,"velocity":0.7637795275590551,"duration":0.2486979166666572},{"name":"F5","midi":77,"time":243.7395833333341,"velocity":0.7637795275590551,"duration":0.2486979166666572},{"name":"G4","midi":67,"time":243.9895833333341,"velocity":0.7637795275590551,"duration":0.2486979166666572},{"name":"D#5","midi":75,"time":243.9895833333341,"velocity":0.7637795275590551,"duration":0.2486979166666572},{"name":"F4","midi":65,"time":244.2395833333341,"velocity":0.7637795275590551,"duration":0.2486979166666572},{"name":"D5","midi":74,"time":244.2395833333341,"velocity":0.7637795275590551,"duration":0.2486979166666572},{"name":"G4","midi":67,"time":244.4895833333341,"velocity":0.7637795275590551,"duration":0.2486979166666572},{"name":"D#5","midi":75,"time":244.4895833333341,"velocity":0.7637795275590551,"duration":0.2486979166666572},{"name":"D4","midi":62,"time":244.7395833333341,"velocity":0.7637795275590551,"duration":0.2486979166666572},{"name":"B4","midi":71,"time":244.7395833333341,"velocity":0.7637795275590551,"duration":0.2486979166666572},{"name":"D#4","midi":63,"time":244.9895833333341,"velocity":0.7637795275590551,"duration":0.2486979166666572},{"name":"C5","midi":72,"time":244.9895833333341,"velocity":0.7637795275590551,"duration":0.2486979166666572},{"name":"B3","midi":59,"time":245.2395833333341,"velocity":0.7637795275590551,"duration":0.2486979166666572},{"name":"G4","midi":67,"time":245.2395833333341,"velocity":0.7637795275590551,"duration":0.2486979166666572},{"name":"C4","midi":60,"time":245.4895833333341,"velocity":0.7637795275590551,"duration":0.2486979166666572},{"name":"G#4","midi":68,"time":245.4895833333341,"velocity":0.7637795275590551,"duration":0.2486979166666572},{"name":"F4","midi":65,"time":245.7395833333341,"velocity":0.7637795275590551,"duration":0.2486979166666572},{"name":"D5","midi":74,"time":245.7395833333341,"velocity":0.7637795275590551,"duration":0.2486979166666572},{"name":"D#4","midi":63,"time":245.9895833333341,"velocity":0.7637795275590551,"duration":0.2486979166666572},{"name":"C5","midi":72,"time":245.9895833333341,"velocity":0.7637795275590551,"duration":0.2486979166666572},{"name":"D4","midi":62,"time":246.2395833333341,"velocity":0.7637795275590551,"duration":0.2486979166666572},{"name":"B4","midi":71,"time":246.2395833333341,"velocity":0.7637795275590551,"duration":0.2486979166666572},{"name":"D#4","midi":63,"time":246.4895833333341,"velocity":0.7637795275590551,"duration":0.2486979166666572},{"name":"C5","midi":72,"time":246.4895833333341,"velocity":0.7637795275590551,"duration":0.2486979166666572},{"name":"B3","midi":59,"time":246.7395833333341,"velocity":0.7637795275590551,"duration":0.2486979166666572},{"name":"G4","midi":67,"time":246.7395833333341,"velocity":0.7637795275590551,"duration":0.2486979166666572},{"name":"C4","midi":60,"time":246.9895833333341,"velocity":0.7637795275590551,"duration":0.2486979166666572},{"name":"G#4","midi":68,"time":246.9895833333341,"velocity":0.7637795275590551,"duration":0.2486979166666572},{"name":"G3","midi":55,"time":247.2395833333341,"velocity":0.7637795275590551,"duration":0.2486979166666572},{"name":"D#4","midi":63,"time":247.2395833333341,"velocity":0.7637795275590551,"duration":0.2486979166666572},{"name":"G#3","midi":56,"time":247.4895833333341,"velocity":0.7637795275590551,"duration":0.4986979166666572},{"name":"F4","midi":65,"time":247.4895833333341,"velocity":0.7637795275590551,"duration":0.2486979166666572},{"name":"D#5","midi":75,"time":247.7395833333341,"velocity":0.7637795275590551,"duration":0.2486979166666572},{"name":"F3","midi":53,"time":247.9895833333341,"velocity":0.7637795275590551,"duration":0.4986979166666572},{"name":"D5","midi":74,"time":247.9895833333341,"velocity":0.7637795275590551,"duration":0.2486979166666572},{"name":"C5","midi":72,"time":248.2395833333341,"velocity":0.7637795275590551,"duration":0.2486979166666572},{"name":"G3","midi":55,"time":248.4895833333341,"velocity":0.7637795275590551,"duration":0.9375},{"name":"B4","midi":71,"time":248.4895833333341,"velocity":0.7637795275590551,"duration":0.12369791666665719},{"name":"C5","midi":72,"time":248.6145833333341,"velocity":0.7637795275590551,"duration":0.12369791666665719},{"name":"B4","midi":71,"time":248.7395833333341,"velocity":0.7637795275590551,"duration":0.4986979166666572},{"name":"G2","midi":43,"time":248.9895833333341,"velocity":0.7637795275590551,"duration":0.6770833333333428},{"name":"A4","midi":69,"time":249.2395833333341,"velocity":0.7637795275590551,"duration":0.2486979166666572},{"name":"G4","midi":67,"time":249.4895833333341,"velocity":0.7637795275590551,"duration":0.4986979166666572},{"name":"F3","midi":53,"time":249.7395833333341,"velocity":0.7637795275590551,"duration":0.2486979166666572},{"name":"D#3","midi":51,"time":249.9895833333341,"velocity":0.7637795275590551,"duration":0.2486979166666572},{"name":"B4","midi":71,"time":249.9895833333341,"velocity":0.7637795275590551,"duration":0.4986979166666572},{"name":"D3","midi":50,"time":250.2395833333341,"velocity":0.7637795275590551,"duration":0.2486979166666572},{"name":"D#3","midi":51,"time":250.4895833333341,"velocity":0.7637795275590551,"duration":0.2486979166666572},{"name":"C5","midi":72,"time":250.4895833333341,"velocity":0.7637795275590551,"duration":0.2486979166666572},{"name":"B2","midi":47,"time":250.7395833333341,"velocity":0.7637795275590551,"duration":0.2486979166666572},{"name":"D5","midi":74,"time":250.7395833333341,"velocity":0.7637795275590551,"duration":0.2486979166666572},{"name":"C3","midi":48,"time":250.9895833333341,"velocity":0.7637795275590551,"duration":0.2486979166666572},{"name":"D#5","midi":75,"time":250.9895833333341,"velocity":0.7637795275590551,"duration":0.625},{"name":"G2","midi":43,"time":251.2395833333341,"velocity":0.7637795275590551,"duration":0.2486979166666572},{"name":"G#2","midi":44,"time":251.4895833333341,"velocity":0.7637795275590551,"duration":0.2486979166666572},{"name":"F4","midi":65,"time":251.4895833333341,"velocity":0.7637795275590551,"duration":0.2486979166666572},{"name":"G3","midi":55,"time":251.7395833333341,"velocity":0.7637795275590551,"duration":0.2486979166666572},{"name":"D#5","midi":75,"time":251.7395833333341,"velocity":0.7637795275590551,"duration":0.2486979166666572},{"name":"F3","midi":53,"time":251.9895833333341,"velocity":0.7637795275590551,"duration":0.2486979166666572},{"name":"D5","midi":74,"time":251.9895833333341,"velocity":0.7637795275590551,"duration":0.2486979166666572},{"name":"D#3","midi":51,"time":252.2395833333341,"velocity":0.7637795275590551,"duration":0.2486979166666572},{"name":"C5","midi":72,"time":252.2395833333341,"velocity":0.7637795275590551,"duration":0.2486979166666572},{"name":"F3","midi":53,"time":252.4895833333341,"velocity":0.7637795275590551,"duration":0.2486979166666572},{"name":"D5","midi":74,"time":252.4895833333341,"velocity":0.7637795275590551,"duration":0.2486979166666572},{"name":"C3","midi":48,"time":252.7395833333341,"velocity":0.7637795275590551,"duration":0.2486979166666572},{"name":"D#5","midi":75,"time":252.7395833333341,"velocity":0.7637795275590551,"duration":0.2486979166666572},{"name":"D3","midi":50,"time":252.9895833333341,"velocity":0.7637795275590551,"duration":0.2486979166666572},{"name":"F5","midi":77,"time":252.9895833333341,"velocity":0.7637795275590551,"duration":0.625},{"name":"A2","midi":45,"time":253.2395833333341,"velocity":0.7637795275590551,"duration":0.2486979166666572},{"name":"B2","midi":47,"time":253.4895833333341,"velocity":0.7637795275590551,"duration":0.2486979166666572},{"name":"G4","midi":67,"time":253.4895833333341,"velocity":0.7637795275590551,"duration":0.2486979166666572},{"name":"G#3","midi":56,"time":253.7395833333341,"velocity":0.7637795275590551,"duration":0.2486979166666572},{"name":"F5","midi":77,"time":253.7395833333341,"velocity":0.7637795275590551,"duration":0.2486979166666572},{"name":"G3","midi":55,"time":253.9895833333341,"velocity":0.7637795275590551,"duration":0.2486979166666572},{"name":"D#5","midi":75,"time":253.9895833333341,"velocity":0.7637795275590551,"duration":0.2486979166666572},{"name":"F3","midi":53,"time":254.2395833333341,"velocity":0.7637795275590551,"duration":0.2486979166666572},{"name":"D5","midi":74,"time":254.2395833333341,"velocity":0.7637795275590551,"duration":0.2486979166666572},{"name":"G3","midi":55,"time":254.4895833333341,"velocity":0.7637795275590551,"duration":0.2486979166666572},{"name":"D#5","midi":75,"time":254.4895833333341,"velocity":0.7637795275590551,"duration":0.2486979166666572},{"name":"D3","midi":50,"time":254.7395833333341,"velocity":0.7637795275590551,"duration":0.2486979166666572},{"name":"F5","midi":77,"time":254.7395833333341,"velocity":0.7637795275590551,"duration":0.2486979166666572},{"name":"D#3","midi":51,"time":254.9895833333341,"velocity":0.7637795275590551,"duration":0.2486979166666572},{"name":"G5","midi":79,"time":254.9895833333341,"velocity":0.7637795275590551,"duration":0.625},{"name":"B2","midi":47,"time":255.2395833333341,"velocity":0.7637795275590551,"duration":0.2486979166666572},{"name":"C3","midi":48,"time":255.4895833333341,"velocity":0.7637795275590551,"duration":0.2486979166666572},{"name":"G#4","midi":68,"time":255.4895833333341,"velocity":0.7637795275590551,"duration":0.2486979166666572},{"name":"A#3","midi":58,"time":255.7395833333341,"velocity":0.7637795275590551,"duration":0.2486979166666572},{"name":"G5","midi":79,"time":255.7395833333341,"velocity":0.7637795275590551,"duration":0.2486979166666572},{"name":"G#3","midi":56,"time":255.9895833333341,"velocity":0.7637795275590551,"duration":0.24869791666668561},{"name":"F5","midi":77,"time":255.9895833333341,"velocity":0.7637795275590551,"duration":0.24869791666668561},{"name":"G3","midi":55,"time":256.2395833333341,"velocity":0.7637795275590551,"duration":0.24869791666668561},{"name":"D#5","midi":75,"time":256.2395833333341,"velocity":0.7637795275590551,"duration":0.24869791666668561},{"name":"G#3","midi":56,"time":256.4895833333341,"velocity":0.7637795275590551,"duration":0.24869791666668561},{"name":"F5","midi":77,"time":256.4895833333341,"velocity":0.7637795275590551,"duration":0.24869791666668561},{"name":"D#3","midi":51,"time":256.7395833333341,"velocity":0.7637795275590551,"duration":0.24869791666668561},{"name":"G5","midi":79,"time":256.7395833333341,"velocity":0.7637795275590551,"duration":0.24869791666668561},{"name":"F3","midi":53,"time":256.9895833333341,"velocity":0.7637795275590551,"duration":0.24869791666668561},{"name":"G#5","midi":80,"time":256.9895833333341,"velocity":0.7637795275590551,"duration":0.625},{"name":"C3","midi":48,"time":257.2395833333341,"velocity":0.7637795275590551,"duration":0.24869791666668561},{"name":"D3","midi":50,"time":257.4895833333341,"velocity":0.7637795275590551,"duration":0.4986979166666856},{"name":"B4","midi":71,"time":257.4895833333341,"velocity":0.7637795275590551,"duration":0.24869791666668561},{"name":"G#5","midi":80,"time":257.7395833333341,"velocity":0.7637795275590551,"duration":0.24869791666668561},{"name":"B3","midi":59,"time":257.9895833333341,"velocity":0.7637795275590551,"duration":0.4986979166666856},{"name":"G5","midi":79,"time":257.9895833333341,"velocity":0.7637795275590551,"duration":0.24869791666668561},{"name":"F5","midi":77,"time":258.2395833333341,"velocity":0.7637795275590551,"duration":0.24869791666668561},{"name":"C4","midi":60,"time":258.4895833333341,"velocity":0.7637795275590551,"duration":0.4947916666666856},{"name":"D#5","midi":75,"time":258.4895833333341,"velocity":0.7637795275590551,"duration":1.7486979166666856},{"name":"B4","midi":71,"time":258.7395833333341,"velocity":0.7637795275590551,"duration":0.24869791666668561},{"name":"D#4","midi":63,"time":258.9895833333341,"velocity":0.7637795275590551,"duration":0.4947916666666856},{"name":"C5","midi":72,"time":258.9895833333341,"velocity":0.7637795275590551,"duration":0.24739583333331439},{"name":"G4","midi":67,"time":259.2395833333341,"velocity":0.7637795275590551,"duration":0.24869791666668561},{"name":"F3","midi":53,"time":259.4895833333341,"velocity":0.7637795275590551,"duration":0.4947916666666856},{"name":"G#4","midi":68,"time":259.4895833333341,"velocity":0.7637795275590551,"duration":0.24739583333331439},{"name":"D#4","midi":63,"time":259.7395833333341,"velocity":0.7637795275590551,"duration":0.24869791666668561},{"name":"G#3","midi":56,"time":259.9895833333341,"velocity":0.7637795275590551,"duration":0.4986979166666856},{"name":"F4","midi":65,"time":259.9895833333341,"velocity":0.7637795275590551,"duration":0.4986979166666856},{"name":"C5","midi":72,"time":260.2395833333341,"velocity":0.7637795275590551,"duration":0.24869791666668561},{"name":"B2","midi":47,"time":260.4895833333341,"velocity":0.7637795275590551,"duration":0.4348958333333144},{"name":"D5","midi":74,"time":260.4895833333341,"velocity":0.7637795275590551,"duration":1.7486979166666288},{"name":"G4","midi":67,"time":260.7395833333341,"velocity":0.7637795275590551,"duration":0.24869791666662877},{"name":"D3","midi":50,"time":260.98958333333405,"velocity":0.7637795275590551,"duration":0.4947916666666856},{"name":"G#4","midi":68,"time":260.98958333333405,"velocity":0.7637795275590551,"duration":0.24739583333331439},{"name":"F4","midi":65,"time":261.23958333333405,"velocity":0.7637795275590551,"duration":0.24869791666668561},{"name":"D#2","midi":39,"time":261.48958333333405,"velocity":0.7637795275590551,"duration":0.4947916666666856},{"name":"G4","midi":67,"time":261.48958333333405,"velocity":0.7637795275590551,"duration":0.24739583333331439},{"name":"D4","midi":62,"time":261.73958333333405,"velocity":0.7637795275590551,"duration":0.24869791666668561},{"name":"G2","midi":43,"time":261.98958333333405,"velocity":0.7637795275590551,"duration":0.4947916666666856},{"name":"D#4","midi":63,"time":261.98958333333405,"velocity":0.7637795275590551,"duration":0.7291666666666856},{"name":"B4","midi":71,"time":262.23958333333405,"velocity":0.7637795275590551,"duration":0.24869791666668561},{"name":"G#2","midi":44,"time":262.48958333333405,"velocity":0.7637795275590551,"duration":0.4947916666666856},{"name":"C5","midi":72,"time":262.48958333333405,"velocity":0.7637795275590551,"duration":1.7486979166666856},{"name":"F4","midi":65,"time":262.73958333333405,"velocity":0.7637795275590551,"duration":0.1171875},{"name":"G4","midi":67,"time":262.86458333333405,"velocity":0.7637795275590551,"duration":0.12369791666668561},{"name":"F2","midi":41,"time":262.98958333333405,"velocity":0.7637795275590551,"duration":0.4947916666666856},{"name":"G#4","midi":68,"time":262.98958333333405,"velocity":0.7637795275590551,"duration":0.24739583333331439},{"name":"F4","midi":65,"time":263.23958333333405,"velocity":0.7637795275590551,"duration":0.24869791666668561},{"name":"G2","midi":43,"time":263.48958333333405,"velocity":0.7637795275590551,"duration":0.4947916666666856},{"name":"D4","midi":62,"time":263.48958333333405,"velocity":0.7637795275590551,"duration":0.24739583333331439},{"name":"F4","midi":65,"time":263.73958333333405,"velocity":0.7637795275590551,"duration":0.9895833333333144},{"name":"G3","midi":55,"time":263.98958333333405,"velocity":0.7637795275590551,"duration":0.4947916666666856},{"name":"B4","midi":71,"time":264.23958333333405,"velocity":0.7637795275590551,"duration":0.24869791666668561},{"name":"C3","midi":48,"time":264.48958333333405,"velocity":0.7637795275590551,"duration":0.4947916666666856},{"name":"C5","midi":72,"time":264.48958333333405,"velocity":0.7637795275590551,"duration":1.2486979166666856},{"name":"F4","midi":65,"time":264.73958333333405,"velocity":0.7637795275590551,"duration":0.24869791666668561},{"name":"G3","midi":55,"time":264.98958333333405,"velocity":0.7637795275590551,"duration":0.4947916666666856},{"name":"D#4","midi":63,"time":264.98958333333405,"velocity":0.7637795275590551,"duration":0.24739583333331439},{"name":"D4","midi":62,"time":265.23958333333405,"velocity":0.7637795275590551,"duration":0.24869791666668561},{"name":"C4","midi":60,"time":265.48958333333405,"velocity":0.7637795275590551,"duration":0.4947916666666856},{"name":"D#4","midi":63,"time":265.48958333333405,"velocity":0.7637795275590551,"duration":0.4947916666666856},{"name":"C5","midi":72,"time":265.73958333333405,"velocity":0.7637795275590551,"duration":0.24869791666668561},{"name":"D4","midi":62,"time":265.98958333333405,"velocity":0.7637795275590551,"duration":0.4986979166666856},{"name":"F4","midi":65,"time":265.98958333333405,"velocity":0.7637795275590551,"duration":0.4986979166666856},{"name":"A#4","midi":70,"time":265.98958333333405,"velocity":0.7637795275590551,"duration":0.24869791666668561},{"name":"G#4","midi":68,"time":266.23958333333405,"velocity":0.7637795275590551,"duration":0.24869791666668561},{"name":"C4","midi":60,"time":266.48958333333405,"velocity":0.7637795275590551,"duration":0.7486979166666856},{"name":"D#4","midi":63,"time":266.48958333333405,"velocity":0.7637795275590551,"duration":0.9986979166666856},{"name":"G4","midi":67,"time":266.48958333333405,"velocity":0.7637795275590551,"duration":0.24869791666668561},{"name":"C5","midi":72,"time":266.73958333333405,"velocity":0.7637795275590551,"duration":0.12369791666668561},{"name":"D5","midi":74,"time":266.86458333333405,"velocity":0.7637795275590551,"duration":0.12369791666668561},{"name":"D#5","midi":75,"time":266.98958333333405,"velocity":0.7637795275590551,"duration":0.24869791666668561},{"name":"G3","midi":55,"time":267.23958333333405,"velocity":0.7637795275590551,"duration":0.1171875},{"name":"C5","midi":72,"time":267.23958333333405,"velocity":0.7637795275590551,"duration":0.24869791666668561},{"name":"F3","midi":53,"time":267.36458333333405,"velocity":0.7637795275590551,"duration":0.12369791666668561},{"name":"D#3","midi":51,"time":267.48958333333405,"velocity":0.7637795275590551,"duration":0.12369791666668561},{"name":"G4","midi":67,"time":267.48958333333405,"velocity":0.7637795275590551,"duration":0.4986979166666856},{"name":"F3","midi":53,"time":267.61458333333405,"velocity":0.7637795275590551,"duration":0.12369791666668561},{"name":"G3","midi":55,"time":267.73958333333405,"velocity":0.7637795275590551,"duration":0.24869791666668561},{"name":"C3","midi":48,"time":267.98958333333405,"velocity":0.7637795275590551,"duration":0.12369791666668561},{"name":"G#4","midi":68,"time":267.98958333333405,"velocity":0.7637795275590551,"duration":0.4986979166666856},{"name":"D3","midi":50,"time":268.11458333333405,"velocity":0.7637795275590551,"duration":0.12369791666668561},{"name":"D#3","midi":51,"time":268.23958333333405,"velocity":0.7637795275590551,"duration":0.24869791666668561},{"name":"G2","midi":43,"time":268.48958333333405,"velocity":0.7637795275590551,"duration":0.7486979166666856},{"name":"A#4","midi":70,"time":268.48958333333405,"velocity":0.7637795275590551,"duration":1.4986979166666856},{"name":"F4","midi":65,"time":268.73958333333405,"velocity":0.7637795275590551,"duration":0.24739583333331439},{"name":"G4","midi":67,"time":268.98958333333405,"velocity":0.7637795275590551,"duration":0.24869791666668561},{"name":"A#2","midi":46,"time":269.23958333333405,"velocity":0.7637795275590551,"duration":0.1171875},{"name":"D4","midi":62,"time":269.23958333333405,"velocity":0.7637795275590551,"duration":0.24739583333331439},{"name":"G#2","midi":44,"time":269.36458333333405,"velocity":0.7637795275590551,"duration":0.12239583333331439},{"name":"G2","midi":43,"time":269.48958333333405,"velocity":0.7637795275590551,"duration":0.11848958333331439},{"name":"D#4","midi":63,"time":269.48958333333405,"velocity":0.7637795275590551,"duration":0.4947916666666856},{"name":"G#2","midi":44,"time":269.61458333333405,"velocity":0.7637795275590551,"duration":0.11979166666668561},{"name":"A#2","midi":46,"time":269.73958333333405,"velocity":0.7637795275590551,"duration":0.24869791666668561},{"name":"D#2","midi":39,"time":269.98958333333405,"velocity":0.7637795275590551,"duration":0.12369791666668561},{"name":"G5","midi":79,"time":269.98958333333405,"velocity":0.7637795275590551,"duration":0.7486979166666856},{"name":"F2","midi":41,"time":270.11458333333405,"velocity":0.7637795275590551,"duration":0.12369791666668561},{"name":"G2","midi":43,"time":270.23958333333405,"velocity":0.7637795275590551,"duration":0.24869791666668561},{"name":"A1","midi":33,"time":270.48958333333405,"velocity":0.7637795275590551,"duration":0.4986979166666856},{"name":"C5","midi":72,"time":270.73958333333405,"velocity":0.7637795275590551,"duration":0.12369791666668561},{"name":"D5","midi":74,"time":270.86458333333405,"velocity":0.7637795275590551,"duration":0.12369791666668561},{"name":"C2","midi":36,"time":270.98958333333405,"velocity":0.7637795275590551,"duration":0.4986979166666856},{"name":"D#5","midi":75,"time":270.98958333333405,"velocity":0.7637795275590551,"duration":0.24869791666668561},{"name":"C5","midi":72,"time":271.23958333333405,"velocity":0.7637795275590551,"duration":0.24869791666668561},{"name":"F2","midi":41,"time":271.48958333333405,"velocity":0.7637795275590551,"duration":0.4986979166666856},{"name":"A4","midi":69,"time":271.48958333333405,"velocity":0.7637795275590551,"duration":0.24869791666668561},{"name":"F5","midi":77,"time":271.73958333333405,"velocity":0.7637795275590551,"duration":0.24869791666668561},{"name":"A2","midi":45,"time":271.98958333333405,"velocity":0.7637795275590551,"duration":0.4986979166666856},{"name":"C5","midi":72,"time":271.98958333333405,"velocity":0.7637795275590551,"duration":0.12369791666668561},{"name":"D5","midi":74,"time":272.11458333333405,"velocity":0.7637795275590551,"duration":0.12369791666668561},{"name":"D#5","midi":75,"time":272.23958333333405,"velocity":0.7637795275590551,"duration":0.24869791666668561},{"name":"A#2","midi":46,"time":272.48958333333405,"velocity":0.7637795275590551,"duration":0.7291666666666856},{"name":"D5","midi":74,"time":272.48958333333405,"velocity":0.7637795275590551,"duration":1.4986979166666288},{"name":"A4","midi":69,"time":272.73958333333405,"velocity":0.7637795275590551,"duration":0.24739583333331439},{"name":"A#4","midi":70,"time":272.98958333333405,"velocity":0.7637795275590551,"duration":0.9348958333333144},{"name":"F4","midi":65,"time":273.23958333333405,"velocity":0.7637795275590551,"duration":0.1171875},{"name":"D#4","midi":63,"time":273.36458333333405,"velocity":0.7637795275590551,"duration":0.1171875},{"name":"D4","midi":62,"time":273.48958333333405,"velocity":0.7637795275590551,"duration":0.1171875},{"name":"D#4","midi":63,"time":273.61458333333405,"velocity":0.7637795275590551,"duration":0.1171875},{"name":"F4","midi":65,"time":273.73958333333405,"velocity":0.7637795275590551,"duration":0.24869791666662877},{"name":"A#3","midi":58,"time":273.989583333334,"velocity":0.7637795275590551,"duration":0.11848958333331439},{"name":"F#4","midi":66,"time":273.989583333334,"velocity":0.7637795275590551,"duration":0.4947916666666856},{"name":"D5","midi":74,"time":273.989583333334,"velocity":0.7637795275590551,"duration":0.4986979166666856},{"name":"C4","midi":60,"time":274.114583333334,"velocity":0.7637795275590551,"duration":0.1171875},{"name":"D4","midi":62,"time":274.239583333334,"velocity":0.7637795275590551,"duration":0.24869791666668561},{"name":"D#3","midi":51,"time":274.489583333334,"velocity":0.7637795275590551,"duration":0.24739583333331439},{"name":"G4","midi":67,"time":274.489583333334,"velocity":0.7637795275590551,"duration":0.9348958333332575},{"name":"D5","midi":74,"time":274.489583333334,"velocity":0.7637795275590551,"duration":0.49869791666662877},{"name":"G3","midi":55,"time":274.739583333334,"velocity":0.7637795275590551,"duration":0.24739583333331439},{"name":"A3","midi":57,"time":274.98958333333394,"velocity":0.7637795275590551,"duration":0.24739583333331439},{"name":"C5","midi":72,"time":274.98958333333394,"velocity":0.7637795275590551,"duration":0.7486979166666288},{"name":"A#3","midi":58,"time":275.23958333333394,"velocity":0.7637795275590551,"duration":0.24869791666662877},{"name":"C4","midi":60,"time":275.4895833333339,"velocity":0.7637795275590551,"duration":0.24869791666668561},{"name":"D4","midi":62,"time":275.7395833333339,"velocity":0.7637795275590551,"duration":0.24869791666668561},{"name":"F#5","midi":78,"time":275.7395833333339,"velocity":0.7637795275590551,"duration":0.24869791666668561},{"name":"D#4","midi":63,"time":275.9895833333339,"velocity":0.7637795275590551,"duration":0.24869791666668561},{"name":"G5","midi":79,"time":275.9895833333339,"velocity":0.7637795275590551,"duration":0.24869791666668561},{"name":"C4","midi":60,"time":276.2395833333339,"velocity":0.7637795275590551,"duration":0.24869791666668561},{"name":"A5","midi":81,"time":276.2395833333339,"velocity":0.7637795275590551,"duration":0.24869791666668561},{"name":"F#3","midi":54,"time":276.4895833333339,"velocity":0.7637795275590551,"duration":0.24739583333331439},{"name":"A4","midi":69,"time":276.4895833333339,"velocity":0.7637795275590551,"duration":0.9348958333332575},{"name":"D#5","midi":75,"time":276.4895833333339,"velocity":0.7637795275590551,"duration":0.49869791666662877},{"name":"A3","midi":57,"time":276.7395833333339,"velocity":0.7637795275590551,"duration":0.24739583333331439},{"name":"A#3","midi":58,"time":276.9895833333338,"velocity":0.7637795275590551,"duration":0.24739583333331439},{"name":"D5","midi":74,"time":276.9895833333338,"velocity":0.7637795275590551,"duration":0.7486979166666288},{"name":"C4","midi":60,"time":277.2395833333338,"velocity":0.7637795275590551,"duration":0.24869791666662877},{"name":"D4","midi":62,"time":277.48958333333377,"velocity":0.7637795275590551,"duration":0.24869791666668561},{"name":"E4","midi":64,"time":277.73958333333377,"velocity":0.7637795275590551,"duration":0.24869791666668561},{"name":"G5","midi":79,"time":277.73958333333377,"velocity":0.7637795275590551,"duration":0.24869791666668561},{"name":"F#4","midi":66,"time":277.98958333333377,"velocity":0.7637795275590551,"duration":0.24869791666668561},{"name":"A5","midi":81,"time":277.98958333333377,"velocity":0.7637795275590551,"duration":0.24869791666668561},{"name":"D4","midi":62,"time":278.23958333333377,"velocity":0.7637795275590551,"duration":0.24869791666668561},{"name":"A#5","midi":82,"time":278.23958333333377,"velocity":0.7637795275590551,"duration":0.24869791666668561},{"name":"G3","midi":55,"time":278.48958333333377,"velocity":0.7637795275590551,"duration":0.24739583333331439},{"name":"A#4","midi":70,"time":278.48958333333377,"velocity":0.7637795275590551,"duration":0.9348958333332575},{"name":"F5","midi":77,"time":278.48958333333377,"velocity":0.7637795275590551,"duration":0.49869791666662877},{"name":"A#3","midi":58,"time":278.73958333333377,"velocity":0.7637795275590551,"duration":0.24739583333331439},{"name":"C4","midi":60,"time":278.9895833333337,"velocity":0.7637795275590551,"duration":0.24739583333331439},{"name":"E5","midi":76,"time":278.9895833333337,"velocity":0.7637795275590551,"duration":0.7486979166666856},{"name":"D4","midi":62,"time":279.2395833333337,"velocity":0.7637795275590551,"duration":0.24739583333331439},{"name":"E4","midi":64,"time":279.4895833333337,"velocity":0.7637795275590551,"duration":0.24869791666668561},{"name":"F#4","midi":66,"time":279.7395833333337,"velocity":0.7637795275590551,"duration":0.24869791666668561},{"name":"A5","midi":81,"time":279.7395833333337,"velocity":0.7637795275590551,"duration":0.24869791666668561},{"name":"G4","midi":67,"time":279.9895833333337,"velocity":0.7637795275590551,"duration":0.24869791666668561},{"name":"A#5","midi":82,"time":279.9895833333337,"velocity":0.7637795275590551,"duration":0.24869791666668561},{"name":"D#4","midi":63,"time":280.2395833333337,"velocity":0.7637795275590551,"duration":0.24869791666668561},{"name":"C6","midi":84,"time":280.2395833333337,"velocity":0.7637795275590551,"duration":0.24869791666668561},{"name":"A3","midi":57,"time":280.4895833333337,"velocity":0.7637795275590551,"duration":0.24739583333331439},{"name":"C5","midi":72,"time":280.4895833333337,"velocity":0.7637795275590551,"duration":0.9348958333332575},{"name":"G5","midi":79,"time":280.4895833333337,"velocity":0.7637795275590551,"duration":0.49869791666662877},{"name":"C4","midi":60,"time":280.7395833333337,"velocity":0.7637795275590551,"duration":0.24739583333331439},{"name":"D4","midi":62,"time":280.98958333333366,"velocity":0.7637795275590551,"duration":0.24739583333331439},{"name":"F#5","midi":78,"time":280.98958333333366,"velocity":0.7637795275590551,"duration":0.7486979166666288},{"name":"D#4","midi":63,"time":281.23958333333366,"velocity":0.7637795275590551,"duration":0.24869791666662877},{"name":"D4","midi":62,"time":281.4895833333336,"velocity":0.7637795275590551,"duration":0.24869791666668561},{"name":"C4","midi":60,"time":281.7395833333336,"velocity":0.7637795275590551,"duration":0.24869791666668561},{"name":"D#5","midi":75,"time":281.7395833333336,"velocity":0.7637795275590551,"duration":0.24869791666668561},{"name":"A#3","midi":58,"time":281.9895833333336,"velocity":0.7637795275590551,"duration":0.24869791666668561},{"name":"D5","midi":74,"time":281.9895833333336,"velocity":0.7637795275590551,"duration":0.24869791666668561},{"name":"A3","midi":57,"time":282.2395833333336,"velocity":0.7637795275590551,"duration":0.24869791666668561},{"name":"C5","midi":72,"time":282.2395833333336,"velocity":0.7637795275590551,"duration":0.24869791666668561},{"name":"A#3","midi":58,"time":282.4895833333336,"velocity":0.7637795275590551,"duration":0.24869791666668561},{"name":"D5","midi":74,"time":282.4895833333336,"velocity":0.7637795275590551,"duration":0.24869791666668561},{"name":"C4","midi":60,"time":282.7395833333336,"velocity":0.7637795275590551,"duration":0.24869791666668561},{"name":"A4","midi":69,"time":282.7395833333336,"velocity":0.7637795275590551,"duration":0.24869791666668561},{"name":"D4","midi":62,"time":282.9895833333336,"velocity":0.7637795275590551,"duration":0.24869791666668561},{"name":"A#4","midi":70,"time":282.9895833333336,"velocity":0.7637795275590551,"duration":0.24869791666668561},{"name":"A3","midi":57,"time":283.2395833333336,"velocity":0.7637795275590551,"duration":0.24869791666668561},{"name":"F#4","midi":66,"time":283.2395833333336,"velocity":0.7637795275590551,"duration":0.24869791666668561},{"name":"A#3","midi":58,"time":283.4895833333336,"velocity":0.7637795275590551,"duration":0.24869791666668561},{"name":"G4","midi":67,"time":283.4895833333336,"velocity":0.7637795275590551,"duration":0.24869791666668561},{"name":"D#4","midi":63,"time":283.7395833333336,"velocity":0.7637795275590551,"duration":0.24869791666668561},{"name":"C5","midi":72,"time":283.7395833333336,"velocity":0.7637795275590551,"duration":0.24869791666668561},{"name":"D4","midi":62,"time":283.9895833333336,"velocity":0.7637795275590551,"duration":0.24869791666668561},{"name":"A#4","midi":70,"time":283.9895833333336,"velocity":0.7637795275590551,"duration":0.24869791666668561},{"name":"C4","midi":60,"time":284.2395833333336,"velocity":0.7637795275590551,"duration":0.24869791666668561},{"name":"A4","midi":69,"time":284.2395833333336,"velocity":0.7637795275590551,"duration":0.24869791666668561},{"name":"D4","midi":62,"time":284.4895833333336,"velocity":0.7637795275590551,"duration":0.24869791666668561},{"name":"A#4","midi":70,"time":284.4895833333336,"velocity":0.7637795275590551,"duration":0.24869791666668561},{"name":"A3","midi":57,"time":284.7395833333336,"velocity":0.7637795275590551,"duration":0.24869791666668561},{"name":"F#4","midi":66,"time":284.7395833333336,"velocity":0.7637795275590551,"duration":0.24869791666668561},{"name":"A#3","midi":58,"time":284.9895833333336,"velocity":0.7637795275590551,"duration":0.24869791666668561},{"name":"G4","midi":67,"time":284.9895833333336,"velocity":0.7637795275590551,"duration":0.24869791666668561},{"name":"F#3","midi":54,"time":285.2395833333336,"velocity":0.7637795275590551,"duration":0.24869791666668561},{"name":"D4","midi":62,"time":285.2395833333336,"velocity":0.7637795275590551,"duration":0.24869791666668561},{"name":"G3","midi":55,"time":285.4895833333336,"velocity":0.7637795275590551,"duration":0.24869791666668561},{"name":"D#4","midi":63,"time":285.4895833333336,"velocity":0.7637795275590551,"duration":0.24869791666668561},{"name":"C4","midi":60,"time":285.7395833333336,"velocity":0.7637795275590551,"duration":0.24869791666668561},{"name":"A4","midi":69,"time":285.7395833333336,"velocity":0.7637795275590551,"duration":0.24869791666668561},{"name":"A#3","midi":58,"time":285.9895833333336,"velocity":0.7637795275590551,"duration":0.24869791666668561},{"name":"G4","midi":67,"time":285.9895833333336,"velocity":0.7637795275590551,"duration":0.24869791666668561},{"name":"A3","midi":57,"time":286.2395833333336,"velocity":0.7637795275590551,"duration":0.24869791666668561},{"name":"F#4","midi":66,"time":286.2395833333336,"velocity":0.7637795275590551,"duration":0.24869791666668561},{"name":"A#3","midi":58,"time":286.4895833333336,"velocity":0.7637795275590551,"duration":0.24869791666668561},{"name":"G4","midi":67,"time":286.4895833333336,"velocity":0.7637795275590551,"duration":0.24869791666668561},{"name":"F#3","midi":54,"time":286.7395833333336,"velocity":0.7637795275590551,"duration":0.24869791666668561},{"name":"D4","midi":62,"time":286.7395833333336,"velocity":0.7637795275590551,"duration":0.24869791666668561},{"name":"G3","midi":55,"time":286.9895833333336,"velocity":0.7637795275590551,"duration":0.24869791666668561},{"name":"D#4","midi":63,"time":286.9895833333336,"velocity":0.7637795275590551,"duration":0.24869791666668561},{"name":"D3","midi":50,"time":287.2395833333336,"velocity":0.7637795275590551,"duration":0.24869791666668561},{"name":"B3","midi":59,"time":287.2395833333336,"velocity":0.7637795275590551,"duration":0.24869791666668561},{"name":"D#3","midi":51,"time":287.4895833333336,"velocity":0.7637795275590551,"duration":0.12369791666668561},{"name":"C4","midi":60,"time":287.4895833333336,"velocity":0.7637795275590551,"duration":0.24869791666668561},{"name":"F3","midi":53,"time":287.6145833333336,"velocity":0.7637795275590551,"duration":0.12369791666668561},{"name":"G3","midi":55,"time":287.7395833333336,"velocity":0.7637795275590551,"duration":0.24869791666668561},{"name":"F4","midi":65,"time":287.7395833333336,"velocity":0.7637795275590551,"duration":0.24869791666668561},{"name":"C3","midi":48,"time":287.9895833333336,"velocity":0.7637795275590551,"duration":0.12369791666668561},{"name":"D#4","midi":63,"time":287.9895833333336,"velocity":0.7637795275590551,"duration":0.24869791666668561},{"name":"D3","midi":50,"time":288.1145833333336,"velocity":0.7637795275590551,"duration":0.12369791666668561},{"name":"D#3","midi":51,"time":288.2395833333336,"velocity":0.7637795275590551,"duration":0.24869791666668561},{"name":"D4","midi":62,"time":288.2395833333336,"velocity":0.7637795275590551,"duration":0.24869791666668561},{"name":"F#2","midi":42,"time":288.4895833333336,"velocity":0.7637795275590551,"duration":1.1197916666666856},{"name":"D#4","midi":63,"time":288.4895833333336,"velocity":0.7637795275590551,"duration":0.24869791666668561},{"name":"C4","midi":60,"time":288.7395833333336,"velocity":0.7637795275590551,"duration":0.24869791666668561},{"name":"D4","midi":62,"time":288.9895833333336,"velocity":0.7637795275590551,"duration":0.24869791666668561},{"name":"F#4","midi":66,"time":289.2395833333336,"velocity":0.7637795275590551,"duration":0.24869791666668561},{"name":"A4","midi":69,"time":289.4895833333336,"velocity":0.7637795275590551,"duration":0.24869791666668561},{"name":"D#4","midi":63,"time":289.7395833333336,"velocity":0.7637795275590551,"duration":0.24869791666668561},{"name":"D2","midi":38,"time":289.9895833333336,"velocity":0.7637795275590551,"duration":0.4986979166666856},{"name":"D4","midi":62,"time":289.9895833333336,"velocity":0.7637795275590551,"duration":0.24869791666668561},{"name":"C4","midi":60,"time":290.2395833333336,"velocity":0.7637795275590551,"duration":0.24869791666668561},{"name":"G2","midi":43,"time":290.4895833333336,"velocity":0.7637795275590551,"duration":0.4986979166666856},{"name":"A#3","midi":58,"time":290.4895833333336,"velocity":0.7637795275590551,"duration":0.24869791666668561},{"name":"D4","midi":62,"time":290.7395833333336,"velocity":0.7637795275590551,"duration":0.24869791666668561},{"name":"A#3","midi":58,"time":290.9895833333336,"velocity":0.7637795275590551,"duration":0.4986979166666856},{"name":"G4","midi":67,"time":290.9895833333336,"velocity":0.7637795275590551,"duration":0.24869791666668561},{"name":"A#4","midi":70,"time":291.2395833333336,"velocity":0.7637795275590551,"duration":0.4986979166666856},{"name":"D#3","midi":51,"time":291.4895833333336,"velocity":0.7637795275590551,"duration":0.4986979166666856},{"name":"F#4","midi":66,"time":291.7395833333336,"velocity":0.7637795275590551,"duration":0.24869791666668561},{"name":"D3","midi":50,"time":291.9895833333336,"velocity":0.7637795275590551,"duration":0.4986979166666856},{"name":"G4","midi":67,"time":291.9895833333336,"velocity":0.7637795275590551,"duration":0.24869791666668561},{"name":"A#3","midi":58,"time":292.2395833333336,"velocity":0.7637795275590551,"duration":0.24869791666668561},{"name":"A2","midi":45,"time":292.4895833333336,"velocity":0.7637795275590551,"duration":0.4986979166666856},{"name":"C4","midi":60,"time":292.4895833333336,"velocity":0.7637795275590551,"duration":0.24869791666668561},{"name":"D#4","midi":63,"time":292.7395833333336,"velocity":0.7637795275590551,"duration":0.24869791666668561},{"name":"C4","midi":60,"time":292.9895833333336,"velocity":0.7637795275590551,"duration":0.4986979166666856},{"name":"G4","midi":67,"time":292.9895833333336,"velocity":0.7637795275590551,"duration":0.24869791666668561},{"name":"A#4","midi":70,"time":293.2395833333336,"velocity":0.7637795275590551,"duration":0.4986979166666856},{"name":"D#3","midi":51,"time":293.4895833333336,"velocity":0.7637795275590551,"duration":0.4986979166666856},{"name":"F#4","midi":66,"time":293.7395833333336,"velocity":0.7637795275590551,"duration":0.24869791666668561},{"name":"D3","midi":50,"time":293.9895833333336,"velocity":0.7637795275590551,"duration":0.4986979166666856},{"name":"G4","midi":67,"time":293.9895833333336,"velocity":0.7637795275590551,"duration":0.24869791666668561},{"name":"C4","midi":60,"time":294.2395833333336,"velocity":0.7637795275590551,"duration":0.24869791666668561},{"name":"A#2","midi":46,"time":294.4895833333336,"velocity":0.7637795275590551,"duration":0.4986979166666856},{"name":"D4","midi":62,"time":294.4895833333336,"velocity":0.7637795275590551,"duration":0.24869791666668561},{"name":"F#4","midi":66,"time":294.7395833333336,"velocity":0.7637795275590551,"duration":0.24869791666668561},{"name":"D4","midi":62,"time":294.9895833333336,"velocity":0.7637795275590551,"duration":0.4986979166666856},{"name":"G4","midi":67,"time":294.9895833333336,"velocity":0.7637795275590551,"duration":0.24869791666668561},{"name":"A#4","midi":70,"time":295.2395833333336,"velocity":0.7637795275590551,"duration":0.4986979166666856},{"name":"D#3","midi":51,"time":295.4895833333336,"velocity":0.7637795275590551,"duration":0.4986979166666856},{"name":"F#4","midi":66,"time":295.7395833333336,"velocity":0.7637795275590551,"duration":0.24869791666668561},{"name":"D3","midi":50,"time":295.9895833333336,"velocity":0.7637795275590551,"duration":0.4986979166666856},{"name":"G4","midi":67,"time":295.9895833333336,"velocity":0.7637795275590551,"duration":0.24869791666668561},{"name":"D4","midi":62,"time":296.2395833333336,"velocity":0.7637795275590551,"duration":0.24869791666668561},{"name":"C3","midi":48,"time":296.4895833333336,"velocity":0.7637795275590551,"duration":0.4986979166666856},{"name":"D#4","midi":63,"time":296.4895833333336,"velocity":0.7637795275590551,"duration":0.24869791666668561},{"name":"F#4","midi":66,"time":296.7395833333336,"velocity":0.7637795275590551,"duration":0.24869791666668561},{"name":"D#4","midi":63,"time":296.9895833333336,"velocity":0.7637795275590551,"duration":0.4986979166666856},{"name":"G4","midi":67,"time":296.9895833333336,"velocity":0.7637795275590551,"duration":0.24869791666668561},{"name":"A#4","midi":70,"time":297.2395833333336,"velocity":0.7637795275590551,"duration":0.4986979166666856},{"name":"D#3","midi":51,"time":297.4895833333336,"velocity":0.7637795275590551,"duration":0.4986979166666856},{"name":"F#4","midi":66,"time":297.7395833333336,"velocity":0.7637795275590551,"duration":0.24869791666668561},{"name":"D3","midi":50,"time":297.9895833333336,"velocity":0.7637795275590551,"duration":0.4986979166666856},{"name":"G4","midi":67,"time":297.9895833333336,"velocity":0.7637795275590551,"duration":0.24869791666668561},{"name":"A#4","midi":70,"time":298.2395833333336,"velocity":0.7637795275590551,"duration":0.24869791666668561},{"name":"C#3","midi":49,"time":298.4895833333336,"velocity":0.7637795275590551,"duration":1.4986979166666856},{"name":"C#2","midi":37,"time":298.4895833333336,"velocity":0.7637795275590551,"duration":1.4986979166666856},{"name":"E5","midi":76,"time":298.4895833333336,"velocity":0.7637795275590551,"duration":0.24869791666668561},{"name":"A4","midi":69,"time":298.7395833333336,"velocity":0.7637795275590551,"duration":0.24869791666668561},{"name":"A#4","midi":70,"time":298.9895833333336,"velocity":0.7637795275590551,"duration":0.24869791666668561},{"name":"F#4","midi":66,"time":299.2395833333336,"velocity":0.7637795275590551,"duration":0.24869791666668561},{"name":"G4","midi":67,"time":299.4895833333336,"velocity":0.7637795275590551,"duration":0.24869791666668561},{"name":"A#4","midi":70,"time":299.7395833333336,"velocity":0.7637795275590551,"duration":0.24869791666668561},{"name":"C#3","midi":49,"time":299.9895833333336,"velocity":0.7637795275590551,"duration":0.4986979166666856},{"name":"A4","midi":69,"time":299.9895833333336,"velocity":0.7637795275590551,"duration":0.24869791666668561},{"name":"G4","midi":67,"time":300.2395833333336,"velocity":0.7637795275590551,"duration":0.24869791666668561},{"name":"D3","midi":50,"time":300.4895833333336,"velocity":0.7637795275590551,"duration":0.4986979166666856},{"name":"F#4","midi":66,"time":300.4895833333336,"velocity":0.7637795275590551,"duration":0.24869791666668561},{"name":"D4","midi":62,"time":300.7395833333336,"velocity":0.7637795275590551,"duration":0.24869791666668561},{"name":"A2","midi":45,"time":300.9895833333336,"velocity":0.7637795275590551,"duration":0.4986979166666856},{"name":"D#4","midi":63,"time":300.9895833333336,"velocity":0.7637795275590551,"duration":0.24869791666668561},{"name":"A#3","midi":58,"time":301.2395833333336,"velocity":0.7637795275590551,"duration":0.24869791666668561},{"name":"F#2","midi":42,"time":301.4895833333336,"velocity":0.7637795275590551,"duration":0.4986979166666856},{"name":"C4","midi":60,"time":301.4895833333336,"velocity":0.7637795275590551,"duration":0.24869791666668561},{"name":"D#4","midi":63,"time":301.7395833333336,"velocity":0.7637795275590551,"duration":0.24869791666668561},{"name":"D2","midi":38,"time":301.9895833333336,"velocity":0.7637795275590551,"duration":0.4986979166666856},{"name":"D4","midi":62,"time":301.9895833333336,"velocity":0.7637795275590551,"duration":0.24869791666668561},{"name":"C4","midi":60,"time":302.2395833333336,"velocity":0.7637795275590551,"duration":0.24869791666668561},{"name":"G2","midi":43,"time":302.4895833333336,"velocity":0.7637795275590551,"duration":0.24869791666668561},{"name":"A#3","midi":58,"time":302.4895833333336,"velocity":0.7637795275590551,"duration":0.4986979166666856},{"name":"A2","midi":45,"time":302.7395833333336,"velocity":0.7637795275590551,"duration":0.24869791666668561},{"name":"A#2","midi":46,"time":302.9895833333336,"velocity":0.7637795275590551,"duration":0.21354166666668561},{"name":"G4","midi":67,"time":302.9895833333336,"velocity":0.7637795275590551,"duration":0.4348958333333144},{"name":"D4","midi":62,"time":302.9895833333336,"velocity":0.7637795275590551,"duration":0.4348958333333144},{"name":"D5","midi":74,"time":302.9895833333336,"velocity":0.7637795275590551,"duration":0.49869791666662877},{"name":"C3","midi":48,"time":303.2395833333336,"velocity":0.7637795275590551,"duration":0.24869791666662877},{"name":"D3","midi":50,"time":303.48958333333354,"velocity":0.7637795275590551,"duration":0.4986979166666856},{"name":"G4","midi":67,"time":303.48958333333354,"velocity":0.7637795275590551,"duration":0.4986979166666856},{"name":"D4","midi":62,"time":303.48958333333354,"velocity":0.7637795275590551,"duration":0.4986979166666856},{"name":"A#4","midi":70,"time":303.48958333333354,"velocity":0.7637795275590551,"duration":0.4986979166666856},{"name":"D2","midi":38,"time":303.98958333333354,"velocity":0.7637795275590551,"duration":0.4986979166666856},{"name":"F#4","midi":66,"time":303.98958333333354,"velocity":0.7637795275590551,"duration":0.4986979166666856},{"name":"C4","midi":60,"time":303.98958333333354,"velocity":0.7637795275590551,"duration":0.4986979166666856},{"name":"A4","midi":69,"time":303.98958333333354,"velocity":0.7637795275590551,"duration":0.24869791666668561},{"name":"G4","midi":67,"time":304.23958333333354,"velocity":0.7637795275590551,"duration":0.24869791666668561},{"name":"G2","midi":43,"time":304.48958333333354,"velocity":0.7637795275590551,"duration":1.9348958333333144},{"name":"G4","midi":67,"time":304.48958333333354,"velocity":0.7637795275590551,"duration":1.2486979166666856},{"name":"D4","midi":62,"time":304.73958333333354,"velocity":0.7637795275590551,"duration":1.6848958333333144},{"name":"B3","midi":59,"time":304.98958333333354,"velocity":0.7637795275590551,"duration":1.4348958333333144},{"name":"D3","midi":50,"time":305.23958333333354,"velocity":0.7637795275590551,"duration":0.21354166666668561},{"name":"G3","midi":55,"time":305.48958333333354,"velocity":0.7637795275590551,"duration":0.9986979166666288},{"name":"D#5","midi":75,"time":305.73958333333354,"velocity":0.7637795275590551,"duration":0.24869791666668561},{"name":"D5","midi":74,"time":305.98958333333354,"velocity":0.7637795275590551,"duration":0.24869791666668561},{"name":"C5","midi":72,"time":306.23958333333354,"velocity":0.7637795275590551,"duration":0.24869791666662877},{"name":"G2","midi":43,"time":306.4895833333335,"velocity":0.7637795275590551,"duration":0.4986979166666856},{"name":"D5","midi":74,"time":306.4895833333335,"velocity":0.7637795275590551,"duration":0.24869791666668561},{"name":"A4","midi":69,"time":306.7395833333335,"velocity":0.7637795275590551,"duration":0.24869791666668561},{"name":"G3","midi":55,"time":306.9895833333335,"velocity":0.7637795275590551,"duration":0.7486979166666856},{"name":"B4","midi":71,"time":306.9895833333335,"velocity":0.7637795275590551,"duration":0.24869791666668561},{"name":"G4","midi":67,"time":307.2395833333335,"velocity":0.7637795275590551,"duration":0.24869791666668561},{"name":"G#4","midi":68,"time":307.4895833333335,"velocity":0.7637795275590551,"duration":0.24869791666668561},{"name":"G#3","midi":56,"time":307.7395833333335,"velocity":0.7637795275590551,"duration":0.24869791666668561},{"name":"F4","midi":65,"time":307.7395833333335,"velocity":0.7637795275590551,"duration":0.24869791666668561},{"name":"G3","midi":55,"time":307.9895833333335,"velocity":0.7637795275590551,"duration":0.24869791666668561},{"name":"D#4","midi":63,"time":307.9895833333335,"velocity":0.7637795275590551,"duration":0.24869791666668561},{"name":"F3","midi":53,"time":308.2395833333335,"velocity":0.7637795275590551,"duration":0.24869791666668561},{"name":"D4","midi":62,"time":308.2395833333335,"velocity":0.7637795275590551,"duration":0.24869791666668561},{"name":"G3","midi":55,"time":308.4895833333335,"velocity":0.7637795275590551,"duration":0.24869791666668561},{"name":"D#4","midi":63,"time":308.4895833333335,"velocity":0.7637795275590551,"duration":0.24869791666668561},{"name":"D3","midi":50,"time":308.7395833333335,"velocity":0.7637795275590551,"duration":0.24869791666668561},{"name":"F4","midi":65,"time":308.7395833333335,"velocity":0.7637795275590551,"duration":0.12369791666668561},{"name":"G4","midi":67,"time":308.8645833333335,"velocity":0.7637795275590551,"duration":0.12369791666668561},{"name":"D#3","midi":51,"time":308.9895833333335,"velocity":0.7637795275590551,"duration":0.24869791666668561},{"name":"C4","midi":60,"time":308.9895833333335,"velocity":0.7637795275590551,"duration":0.7486979166666856},{"name":"B2","midi":47,"time":309.2395833333335,"velocity":0.7637795275590551,"duration":0.24869791666668561},{"name":"C3","midi":48,"time":309.4895833333335,"velocity":0.7637795275590551,"duration":0.24869791666668561},{"name":"F2","midi":41,"time":309.7395833333335,"velocity":0.7637795275590551,"duration":0.24869791666668561},{"name":"G#5","midi":80,"time":309.7395833333335,"velocity":0.7637795275590551,"duration":0.24869791666668561},{"name":"D#2","midi":39,"time":309.9895833333335,"velocity":0.7637795275590551,"duration":0.24869791666668561},{"name":"G5","midi":79,"time":309.9895833333335,"velocity":0.7637795275590551,"duration":0.24869791666668561},{"name":"D2","midi":38,"time":310.2395833333335,"velocity":0.7637795275590551,"duration":0.24869791666668561},{"name":"F5","midi":77,"time":310.2395833333335,"velocity":0.7637795275590551,"duration":0.24869791666668561},{"name":"C2","midi":36,"time":310.4895833333335,"velocity":0.7637795275590551,"duration":0.4986979166666856},{"name":"G5","midi":79,"time":310.4895833333335,"velocity":0.7637795275590551,"duration":0.24869791666668561},{"name":"D5","midi":74,"time":310.7395833333335,"velocity":0.7637795275590551,"duration":0.24869791666668561},{"name":"C3","midi":48,"time":310.9895833333335,"velocity":0.7637795275590551,"duration":0.7486979166666856},{"name":"E5","midi":76,"time":310.9895833333335,"velocity":0.7637795275590551,"duration":0.24869791666668561},{"name":"C5","midi":72,"time":311.2395833333335,"velocity":0.7637795275590551,"duration":0.24869791666668561},{"name":"C#5","midi":73,"time":311.4895833333335,"velocity":0.7637795275590551,"duration":0.24869791666668561},{"name":"C#4","midi":61,"time":311.7395833333335,"velocity":0.7637795275590551,"duration":0.24869791666668561},{"name":"A#4","midi":70,"time":311.7395833333335,"velocity":0.7637795275590551,"duration":0.24869791666668561},{"name":"C4","midi":60,"time":311.9895833333335,"velocity":0.7637795275590551,"duration":0.24869791666668561},{"name":"G#4","midi":68,"time":311.9895833333335,"velocity":0.7637795275590551,"duration":0.24869791666668561},{"name":"A#3","midi":58,"time":312.2395833333335,"velocity":0.7637795275590551,"duration":0.24869791666668561},{"name":"G4","midi":67,"time":312.2395833333335,"velocity":0.7637795275590551,"duration":0.24869791666668561},{"name":"C4","midi":60,"time":312.4895833333335,"velocity":0.7637795275590551,"duration":0.24869791666668561},{"name":"G#4","midi":68,"time":312.4895833333335,"velocity":0.7637795275590551,"duration":0.24869791666668561},{"name":"G3","midi":55,"time":312.7395833333335,"velocity":0.7637795275590551,"duration":0.24869791666668561},{"name":"A#4","midi":70,"time":312.7395833333335,"velocity":0.7637795275590551,"duration":0.12369791666668561},{"name":"C5","midi":72,"time":312.8645833333335,"velocity":0.7637795275590551,"duration":0.12369791666668561},{"name":"G#3","midi":56,"time":312.9895833333335,"velocity":0.7637795275590551,"duration":0.24869791666668561},{"name":"F4","midi":65,"time":312.9895833333335,"velocity":0.7637795275590551,"duration":0.7486979166666856},{"name":"E3","midi":52,"time":313.2395833333335,"velocity":0.7637795275590551,"duration":0.24869791666668561},{"name":"F3","midi":53,"time":313.4895833333335,"velocity":0.7637795275590551,"duration":0.24869791666668561},{"name":"A#2","midi":46,"time":313.7395833333335,"velocity":0.7637795275590551,"duration":0.24869791666668561},{"name":"C4","midi":60,"time":313.7395833333335,"velocity":0.7637795275590551,"duration":0.24869791666668561},{"name":"G#2","midi":44,"time":313.9895833333335,"velocity":0.7637795275590551,"duration":0.24869791666668561},{"name":"F4","midi":65,"time":313.9895833333335,"velocity":0.7637795275590551,"duration":0.24869791666668561},{"name":"G2","midi":43,"time":314.2395833333335,"velocity":0.7637795275590551,"duration":0.24869791666668561},{"name":"G4","midi":67,"time":314.2395833333335,"velocity":0.7637795275590551,"duration":0.24869791666668561},{"name":"F2","midi":41,"time":314.4895833333335,"velocity":0.7637795275590551,"duration":0.24869791666668561},{"name":"G#4","midi":68,"time":314.4895833333335,"velocity":0.7637795275590551,"duration":0.24869791666668561},{"name":"G2","midi":43,"time":314.7395833333335,"velocity":0.7637795275590551,"duration":0.24869791666668561},{"name":"E4","midi":64,"time":314.7395833333335,"velocity":0.7637795275590551,"duration":0.24869791666668561},{"name":"G#2","midi":44,"time":314.9895833333335,"velocity":0.7637795275590551,"duration":0.4986979166666856},{"name":"F4","midi":65,"time":314.9895833333335,"velocity":0.7637795275590551,"duration":0.24869791666668561},{"name":"C4","midi":60,"time":315.2395833333335,"velocity":0.7637795275590551,"duration":0.24869791666668561},{"name":"A#1","midi":34,"time":315.4895833333335,"velocity":0.7637795275590551,"duration":0.24869791666668561},{"name":"C#4","midi":61,"time":315.4895833333335,"velocity":0.7637795275590551,"duration":0.24869791666668561},{"name":"G#2","midi":44,"time":315.7395833333335,"velocity":0.7637795275590551,"duration":0.24869791666668561},{"name":"C5","midi":72,"time":315.7395833333335,"velocity":0.7637795275590551,"duration":0.24869791666668561},{"name":"G2","midi":43,"time":315.9895833333335,"velocity":0.7637795275590551,"duration":0.24869791666668561},{"name":"A#4","midi":70,"time":315.9895833333335,"velocity":0.7637795275590551,"duration":0.24869791666668561},{"name":"F2","midi":41,"time":316.2395833333335,"velocity":0.7637795275590551,"duration":0.24869791666668561},{"name":"G#4","midi":68,"time":316.2395833333335,"velocity":0.7637795275590551,"duration":0.24869791666668561},{"name":"G2","midi":43,"time":316.4895833333335,"velocity":0.7637795275590551,"duration":0.24869791666668561},{"name":"A#4","midi":70,"time":316.4895833333335,"velocity":0.7637795275590551,"duration":0.24869791666668561},{"name":"G#2","midi":44,"time":316.7395833333335,"velocity":0.7637795275590551,"duration":0.24869791666668561},{"name":"F4","midi":65,"time":316.7395833333335,"velocity":0.7637795275590551,"duration":0.24869791666668561},{"name":"A#2","midi":46,"time":316.9895833333335,"velocity":0.7637795275590551,"duration":0.4986979166666856},{"name":"G4","midi":67,"time":316.9895833333335,"velocity":0.7637795275590551,"duration":0.24869791666668561},{"name":"D4","midi":62,"time":317.2395833333335,"velocity":0.7637795275590551,"duration":0.24869791666668561},{"name":"C2","midi":36,"time":317.4895833333335,"velocity":0.7637795275590551,"duration":0.24869791666668561},{"name":"E4","midi":64,"time":317.4895833333335,"velocity":0.7637795275590551,"duration":0.24869791666668561},{"name":"A#2","midi":46,"time":317.7395833333335,"velocity":0.7637795275590551,"duration":0.24869791666668561},{"name":"C#5","midi":73,"time":317.7395833333335,"velocity":0.7637795275590551,"duration":0.24869791666668561},{"name":"G#2","midi":44,"time":317.9895833333335,"velocity":0.7637795275590551,"duration":0.24869791666668561},{"name":"C5","midi":72,"time":317.9895833333335,"velocity":0.7637795275590551,"duration":0.24869791666668561},{"name":"G2","midi":43,"time":318.2395833333335,"velocity":0.7637795275590551,"duration":0.24869791666668561},{"name":"A#4","midi":70,"time":318.2395833333335,"velocity":0.7637795275590551,"duration":0.24869791666668561},{"name":"G#2","midi":44,"time":318.4895833333335,"velocity":0.7637795275590551,"duration":0.24869791666668561},{"name":"C5","midi":72,"time":318.4895833333335,"velocity":0.7637795275590551,"duration":0.24869791666668561},{"name":"A#2","midi":46,"time":318.7395833333335,"velocity":0.7637795275590551,"duration":0.24869791666668561},{"name":"G4","midi":67,"time":318.7395833333335,"velocity":0.7637795275590551,"duration":0.24869791666668561},{"name":"C3","midi":48,"time":318.9895833333335,"velocity":0.7637795275590551,"duration":0.4986979166666856},{"name":"G#4","midi":68,"time":318.9895833333335,"velocity":0.7637795275590551,"duration":0.24869791666668561},{"name":"E4","midi":64,"time":319.2395833333335,"velocity":0.7637795275590551,"duration":0.24869791666668561},{"name":"C#2","midi":37,"time":319.4895833333335,"velocity":0.7637795275590551,"duration":0.24869791666668561},{"name":"F4","midi":65,"time":319.4895833333335,"velocity":0.7637795275590551,"duration":0.24869791666668561},{"name":"C3","midi":48,"time":319.7395833333335,"velocity":0.7637795275590551,"duration":0.24869791666668561},{"name":"D#5","midi":75,"time":319.7395833333335,"velocity":0.7637795275590551,"duration":0.24869791666668561},{"name":"A#2","midi":46,"time":319.9895833333335,"velocity":0.7637795275590551,"duration":0.24869791666668561},{"name":"C#5","midi":73,"time":319.9895833333335,"velocity":0.7637795275590551,"duration":0.24869791666668561},{"name":"G#2","midi":44,"time":320.2395833333335,"velocity":0.7637795275590551,"duration":0.24869791666668561},{"name":"C5","midi":72,"time":320.2395833333335,"velocity":0.7637795275590551,"duration":0.24869791666668561},{"name":"A#2","midi":46,"time":320.4895833333335,"velocity":0.7637795275590551,"duration":0.24869791666668561},{"name":"C#5","midi":73,"time":320.4895833333335,"velocity":0.7637795275590551,"duration":0.24869791666668561},{"name":"C3","midi":48,"time":320.7395833333335,"velocity":0.7637795275590551,"duration":0.24869791666668561},{"name":"A4","midi":69,"time":320.7395833333335,"velocity":0.7637795275590551,"duration":0.24869791666668561},{"name":"C#3","midi":49,"time":320.9895833333335,"velocity":0.7637795275590551,"duration":0.4986979166666856},{"name":"A#4","midi":70,"time":320.9895833333335,"velocity":0.7637795275590551,"duration":0.24869791666668561},{"name":"G4","midi":67,"time":321.2395833333335,"velocity":0.7637795275590551,"duration":0.24869791666668561},{"name":"E2","midi":40,"time":321.4895833333335,"velocity":0.7637795275590551,"duration":0.24869791666668561},{"name":"G5","midi":79,"time":321.4895833333335,"velocity":0.7637795275590551,"duration":1.2486979166666856},{"name":"C#3","midi":49,"time":321.7395833333335,"velocity":0.7637795275590551,"duration":0.24869791666668561},{"name":"C3","midi":48,"time":321.9895833333335,"velocity":0.7637795275590551,"duration":0.24869791666668561},{"name":"A#2","midi":46,"time":322.2395833333335,"velocity":0.7637795275590551,"duration":0.24869791666668561},{"name":"G#2","midi":44,"time":322.4895833333335,"velocity":0.7637795275590551,"duration":0.4986979166666856},{"name":"C5","midi":72,"time":322.7395833333335,"velocity":0.7637795275590551,"duration":0.24869791666668561},{"name":"C3","midi":48,"time":322.9895833333335,"velocity":0.7637795275590551,"duration":0.4986979166666856},{"name":"F5","midi":77,"time":322.9895833333335,"velocity":0.7637795275590551,"duration":0.24869791666668561},{"name":"E5","midi":76,"time":323.2395833333335,"velocity":0.7637795275590551,"duration":0.24869791666668561},{"name":"F2","midi":41,"time":323.4895833333335,"velocity":0.7637795275590551,"duration":0.4986979166666856},{"name":"G#5","midi":80,"time":323.4895833333335,"velocity":0.7637795275590551,"duration":0.24869791666668561},{"name":"G5","midi":79,"time":323.7395833333335,"velocity":0.7637795275590551,"duration":0.24869791666668561},{"name":"G#2","midi":44,"time":323.9895833333335,"velocity":0.7637795275590551,"duration":0.4986979166666856},{"name":"F5","midi":77,"time":323.9895833333335,"velocity":0.7637795275590551,"duration":0.24869791666668561},{"name":"E5","midi":76,"time":324.2395833333335,"velocity":0.7637795275590551,"duration":0.24869791666668561},{"name":"C#3","midi":49,"time":324.4895833333335,"velocity":0.7637795275590551,"duration":0.4986979166666856},{"name":"F5","midi":77,"time":324.4895833333335,"velocity":0.7637795275590551,"duration":0.24869791666668561},{"name":"C5","midi":72,"time":324.7395833333335,"velocity":0.7637795275590551,"duration":0.24869791666668561},{"name":"F3","midi":53,"time":324.9895833333335,"velocity":0.7637795275590551,"duration":0.4986979166666856},{"name":"D#5","midi":75,"time":324.9895833333335,"velocity":0.7637795275590551,"duration":0.24869791666668561},{"name":"C#5","midi":73,"time":325.2395833333335,"velocity":0.7637795275590551,"duration":0.24869791666668561},{"name":"G2","midi":43,"time":325.4895833333335,"velocity":0.7637795275590551,"duration":0.4986979166666856},{"name":"A#5","midi":82,"time":325.4895833333335,"velocity":0.7637795275590551,"duration":0.24869791666668561},{"name":"G#5","midi":80,"time":325.7395833333335,"velocity":0.7637795275590551,"duration":0.24869791666668561},{"name":"A#2","midi":46,"time":325.9895833333335,"velocity":0.7637795275590551,"duration":0.7486979166666856},{"name":"G5","midi":79,"time":325.9895833333335,"velocity":0.7637795275590551,"duration":0.24869791666668561},{"name":"F5","midi":77,"time":326.2395833333335,"velocity":0.7637795275590551,"duration":0.24869791666668561},{"name":"E5","midi":76,"time":326.4895833333335,"velocity":0.7637795275590551,"duration":0.24869791666668561},{"name":"F5","midi":77,"time":326.7395833333335,"velocity":0.7637795275590551,"duration":0.12369791666668561},{"name":"G5","midi":79,"time":326.8645833333335,"velocity":0.7637795275590551,"duration":0.12369791666668561},{"name":"G#2","midi":44,"time":326.9895833333335,"velocity":0.7637795275590551,"duration":0.24869791666668561},{"name":"C5","midi":72,"time":326.9895833333335,"velocity":0.7637795275590551,"duration":0.24869791666668561},{"name":"A#2","midi":46,"time":327.2395833333335,"velocity":0.7637795275590551,"duration":0.24869791666668561},{"name":"A#4","midi":70,"time":327.2395833333335,"velocity":0.7637795275590551,"duration":0.24869791666668561},{"name":"C3","midi":48,"time":327.4895833333335,"velocity":0.7637795275590551,"duration":0.4986979166666856},{"name":"G#4","midi":68,"time":327.4895833333335,"velocity":0.7637795275590551,"duration":0.24869791666668561},{"name":"F5","midi":77,"time":327.7395833333335,"velocity":0.7637795275590551,"duration":0.24869791666668561},{"name":"C2","midi":36,"time":327.9895833333335,"velocity":0.7637795275590551,"duration":0.4986979166666856},{"name":"G4","midi":67,"time":327.9895833333335,"velocity":0.7637795275590551,"duration":0.24869791666668561},{"name":"E5","midi":76,"time":328.2395833333335,"velocity":0.7637795275590551,"duration":0.24869791666668561},{"name":"F2","midi":41,"time":328.4895833333335,"velocity":0.7637795275590551,"duration":0.24869791666668561},{"name":"F5","midi":77,"time":328.4895833333335,"velocity":0.7637795275590551,"duration":1.1236979166666856},{"name":"C3","midi":48,"time":328.7395833333335,"velocity":0.7637795275590551,"duration":0.24869791666668561},{"name":"F3","midi":53,"time":328.9895833333335,"velocity":0.7637795275590551,"duration":0.24869791666668561},{"name":"G3","midi":55,"time":329.2395833333335,"velocity":0.7637795275590551,"duration":0.24869791666668561},{"name":"G#3","midi":56,"time":329.4895833333335,"velocity":0.7637795275590551,"duration":0.24869791666668561},{"name":"G5","midi":79,"time":329.6145833333335,"velocity":0.7637795275590551,"duration":0.12369791666668561},{"name":"F3","midi":53,"time":329.7395833333335,"velocity":0.7637795275590551,"duration":0.24869791666668561},{"name":"F5","midi":77,"time":329.7395833333335,"velocity":0.7637795275590551,"duration":0.12369791666668561},{"name":"E5","midi":76,"time":329.8645833333335,"velocity":0.7637795275590551,"duration":0.12369791666668561},{"name":"G#3","midi":56,"time":329.9895833333335,"velocity":0.7637795275590551,"duration":0.24869791666668561},{"name":"F5","midi":77,"time":329.9895833333335,"velocity":0.7637795275590551,"duration":0.24869791666668561},{"name":"C4","midi":60,"time":330.2395833333335,"velocity":0.7637795275590551,"duration":0.24869791666668561},{"name":"G5","midi":79,"time":330.2395833333335,"velocity":0.7637795275590551,"duration":0.24869791666668561},{"name":"F4","midi":65,"time":330.4895833333335,"velocity":0.7637795275590551,"duration":0.4986979166666856},{"name":"G#5","midi":80,"time":330.4895833333335,"velocity":0.7637795275590551,"duration":0.24869791666668561},{"name":"E5","midi":76,"time":330.7395833333335,"velocity":0.7637795275590551,"duration":0.24869791666668561},{"name":"G#3","midi":56,"time":330.9895833333335,"velocity":0.7637795275590551,"duration":0.4986979166666856},{"name":"F5","midi":77,"time":330.9895833333335,"velocity":0.7637795275590551,"duration":0.24869791666668561},{"name":"C5","midi":72,"time":331.2395833333335,"velocity":0.7637795275590551,"duration":0.24869791666668561},{"name":"C4","midi":60,"time":331.4895833333335,"velocity":0.7637795275590551,"duration":0.4986979166666856},{"name":"G#4","midi":68,"time":331.4895833333335,"velocity":0.7637795275590551,"duration":0.24869791666668561},{"name":"F4","midi":65,"time":331.7395833333335,"velocity":0.7637795275590551,"duration":0.24869791666668561},{"name":"F3","midi":53,"time":331.9895833333335,"velocity":0.7637795275590551,"duration":0.4986979166666856},{"name":"D#5","midi":75,"time":331.9895833333335,"velocity":0.7637795275590551,"duration":0.24869791666668561},{"name":"C5","midi":72,"time":332.2395833333335,"velocity":0.7637795275590551,"duration":0.24869791666668561},{"name":"A#3","midi":58,"time":332.4895833333335,"velocity":0.7637795275590551,"duration":0.4986979166666856},{"name":"D5","midi":74,"time":332.4895833333335,"velocity":0.7637795275590551,"duration":0.24869791666668561},{"name":"A4","midi":69,"time":332.7395833333335,"velocity":0.7637795275590551,"duration":0.24869791666668561},{"name":"F4","midi":65,"time":332.9895833333335,"velocity":0.7637795275590551,"duration":0.4986979166666856},{"name":"A#4","midi":70,"time":332.9895833333335,"velocity":0.7637795275590551,"duration":0.24869791666668561},{"name":"D5","midi":74,"time":333.2395833333335,"velocity":0.7637795275590551,"duration":0.24869791666668561},{"name":"D4","midi":62,"time":333.4895833333335,"velocity":0.7637795275590551,"duration":0.4986979166666856},{"name":"F5","midi":77,"time":333.4895833333335,"velocity":0.7637795275590551,"duration":0.24869791666668561},{"name":"G#5","midi":80,"time":333.7395833333335,"velocity":0.7637795275590551,"duration":0.24869791666668561},{"name":"A#3","midi":58,"time":333.9895833333335,"velocity":0.7637795275590551,"duration":0.4986979166666856},{"name":"G5","midi":79,"time":333.9895833333335,"velocity":0.7637795275590551,"duration":0.24869791666668561},{"name":"F5","midi":77,"time":334.2395833333335,"velocity":0.7637795275590551,"duration":0.24869791666668561},{"name":"D#4","midi":63,"time":334.4895833333335,"velocity":0.7637795275590551,"duration":0.4986979166666856},{"name":"G5","midi":79,"time":334.4895833333335,"velocity":0.7637795275590551,"duration":0.24869791666668561},{"name":"D5","midi":74,"time":334.7395833333335,"velocity":0.7637795275590551,"duration":0.24869791666668561},{"name":"G3","midi":55,"time":334.9895833333335,"velocity":0.7637795275590551,"duration":0.4986979166666856},{"name":"D#5","midi":75,"time":334.9895833333335,"velocity":0.7637795275590551,"duration":0.24869791666668561},{"name":"A#4","midi":70,"time":335.2395833333335,"velocity":0.7637795275590551,"duration":0.24869791666668561},{"name":"A#3","midi":58,"time":335.4895833333335,"velocity":0.7637795275590551,"duration":0.4986979166666856},{"name":"G4","midi":67,"time":335.4895833333335,"velocity":0.7637795275590551,"duration":0.24869791666668561},{"name":"D#4","midi":63,"time":335.7395833333335,"velocity":0.7637795275590551,"duration":0.24869791666668561},{"name":"D#3","midi":51,"time":335.9895833333335,"velocity":0.7637795275590551,"duration":0.4986979166666856},{"name":"D5","midi":74,"time":335.9895833333335,"velocity":0.7637795275590551,"duration":0.24869791666668561},{"name":"B4","midi":71,"time":336.2395833333335,"velocity":0.7637795275590551,"duration":0.24869791666668561},{"name":"G#3","midi":56,"time":336.4895833333335,"velocity":0.7637795275590551,"duration":0.4986979166666856},{"name":"C5","midi":72,"time":336.4895833333335,"velocity":0.7637795275590551,"duration":0.24869791666668561},{"name":"G4","midi":67,"time":336.7395833333335,"velocity":0.7637795275590551,"duration":0.24869791666668561},{"name":"D#4","midi":63,"time":336.9895833333335,"velocity":0.7637795275590551,"duration":0.4986979166666856},{"name":"G#4","midi":68,"time":336.9895833333335,"velocity":0.7637795275590551,"duration":0.24869791666668561},{"name":"C5","midi":72,"time":337.2395833333335,"velocity":0.7637795275590551,"duration":0.24869791666668561},{"name":"C4","midi":60,"time":337.4895833333335,"velocity":0.7637795275590551,"duration":0.4986979166666856},{"name":"D#5","midi":75,"time":337.4895833333335,"velocity":0.7637795275590551,"duration":0.24869791666668561},{"name":"G5","midi":79,"time":337.7395833333335,"velocity":0.7637795275590551,"duration":0.24869791666668561},{"name":"G#3","midi":56,"time":337.9895833333335,"velocity":0.7637795275590551,"duration":0.4986979166666856},{"name":"F5","midi":77,"time":337.9895833333335,"velocity":0.7637795275590551,"duration":0.24869791666668561},{"name":"D#5","midi":75,"time":338.2395833333335,"velocity":0.7637795275590551,"duration":0.24869791666668561},{"name":"D4","midi":62,"time":338.4895833333335,"velocity":0.7637795275590551,"duration":0.4986979166666856},{"name":"F5","midi":77,"time":338.4895833333335,"velocity":0.7637795275590551,"duration":0.24869791666668561},{"name":"C5","midi":72,"time":338.7395833333335,"velocity":0.7637795275590551,"duration":0.24869791666668561},{"name":"F3","midi":53,"time":338.9895833333335,"velocity":0.7637795275590551,"duration":0.4986979166666856},{"name":"D5","midi":74,"time":338.9895833333335,"velocity":0.7637795275590551,"duration":0.24869791666668561},{"name":"G#4","midi":68,"time":339.2395833333335,"velocity":0.7637795275590551,"duration":0.24869791666668561},{"name":"G#3","midi":56,"time":339.4895833333335,"velocity":0.7637795275590551,"duration":0.4986979166666856},{"name":"F4","midi":65,"time":339.4895833333335,"velocity":0.7637795275590551,"duration":0.24869791666668561},{"name":"D4","midi":62,"time":339.7395833333335,"velocity":0.7637795275590551,"duration":0.24869791666668561},{"name":"D3","midi":50,"time":339.9895833333335,"velocity":0.7637795275590551,"duration":0.4986979166666856},{"name":"C5","midi":72,"time":339.9895833333335,"velocity":0.7637795275590551,"duration":0.24869791666668561},{"name":"A4","midi":69,"time":340.2395833333335,"velocity":0.7637795275590551,"duration":0.24869791666668561},{"name":"G3","midi":55,"time":340.4895833333335,"velocity":0.7637795275590551,"duration":0.4986979166666856},{"name":"B4","midi":71,"time":340.4895833333335,"velocity":0.7637795275590551,"duration":0.24869791666668561},{"name":"F#4","midi":66,"time":340.7395833333335,"velocity":0.7637795275590551,"duration":0.24869791666668561},{"name":"D4","midi":62,"time":340.9895833333335,"velocity":0.7637795275590551,"duration":0.4986979166666856},{"name":"G4","midi":67,"time":340.9895833333335,"velocity":0.7637795275590551,"duration":0.24869791666668561},{"name":"B4","midi":71,"time":341.2395833333335,"velocity":0.7637795275590551,"duration":0.24869791666668561},{"name":"B3","midi":59,"time":341.4895833333335,"velocity":0.7637795275590551,"duration":0.4986979166666856},{"name":"D5","midi":74,"time":341.4895833333335,"velocity":0.7637795275590551,"duration":0.24869791666668561},{"name":"F5","midi":77,"time":341.7395833333335,"velocity":0.7637795275590551,"duration":0.24869791666668561},{"name":"G3","midi":55,"time":341.9895833333335,"velocity":0.7637795275590551,"duration":0.4986979166666856},{"name":"D#5","midi":75,"time":341.9895833333335,"velocity":0.7637795275590551,"duration":0.24869791666668561},{"name":"D5","midi":74,"time":342.2395833333335,"velocity":0.7637795275590551,"duration":0.24869791666668561},{"name":"C4","midi":60,"time":342.4895833333335,"velocity":0.7637795275590551,"duration":0.4986979166666856},{"name":"D#5","midi":75,"time":342.4895833333335,"velocity":0.7637795275590551,"duration":0.24869791666668561},{"name":"B4","midi":71,"time":342.7395833333335,"velocity":0.7637795275590551,"duration":0.24869791666668561},{"name":"D#3","midi":51,"time":342.9895833333335,"velocity":0.7637795275590551,"duration":0.4986979166666856},{"name":"C5","midi":72,"time":342.9895833333335,"velocity":0.7637795275590551,"duration":0.24869791666668561},{"name":"G#4","midi":68,"time":343.2395833333335,"velocity":0.7637795275590551,"duration":0.24869791666668561},{"name":"G#3","midi":56,"time":343.4895833333335,"velocity":0.7637795275590551,"duration":0.4986979166666856},{"name":"G4","midi":67,"time":343.4895833333335,"velocity":0.7637795275590551,"duration":0.24869791666668561},{"name":"F4","midi":65,"time":343.7395833333335,"velocity":0.7637795275590551,"duration":0.24869791666668561},{"name":"F3","midi":53,"time":343.9895833333335,"velocity":0.7637795275590551,"duration":0.4986979166666856},{"name":"D#5","midi":75,"time":343.9895833333335,"velocity":0.7637795275590551,"duration":0.24869791666668561},{"name":"D5","midi":74,"time":344.2395833333335,"velocity":0.7637795275590551,"duration":0.24869791666668561},{"name":"G3","midi":55,"time":344.4895833333335,"velocity":0.7637795275590551,"duration":0.4986979166666856},{"name":"C5","midi":72,"time":344.4895833333335,"velocity":0.7637795275590551,"duration":0.24869791666668561},{"name":"B4","midi":71,"time":344.7395833333335,"velocity":0.7637795275590551,"duration":0.24869791666668561},{"name":"G2","midi":43,"time":344.9895833333335,"velocity":0.7637795275590551,"duration":0.7486979166666856},{"name":"C5","midi":72,"time":344.9895833333335,"velocity":0.7637795275590551,"duration":0.24869791666668561},{"name":"D5","midi":74,"time":345.2395833333335,"velocity":0.7637795275590551,"duration":0.24869791666668561},{"name":"G4","midi":67,"time":345.4895833333335,"velocity":0.7637795275590551,"duration":0.4986979166666856},{"name":"G#3","midi":56,"time":345.7395833333335,"velocity":0.7637795275590551,"duration":0.24869791666668561},{"name":"G3","midi":55,"time":345.9895833333335,"velocity":0.7637795275590551,"duration":0.24869791666668561},{"name":"D5","midi":74,"time":345.9895833333335,"velocity":0.7637795275590551,"duration":0.4986979166666856},{"name":"F3","midi":53,"time":346.2395833333335,"velocity":0.7637795275590551,"duration":0.24869791666668561},{"name":"G3","midi":55,"time":346.4895833333335,"velocity":0.7637795275590551,"duration":0.24869791666668561},{"name":"D#5","midi":75,"time":346.4895833333335,"velocity":0.7637795275590551,"duration":0.24869791666668561},{"name":"D3","midi":50,"time":346.7395833333335,"velocity":0.7637795275590551,"duration":0.24869791666668561},{"name":"G5","midi":79,"time":346.7395833333335,"velocity":0.7637795275590551,"duration":0.24869791666668561},{"name":"D#3","midi":51,"time":346.9895833333335,"velocity":0.7637795275590551,"duration":0.24869791666668561},{"name":"C6","midi":84,"time":346.9895833333335,"velocity":0.7637795275590551,"duration":0.24869791666668561},{"name":"B2","midi":47,"time":347.2395833333335,"velocity":0.7637795275590551,"duration":0.24869791666668561},{"name":"G5","midi":79,"time":347.2395833333335,"velocity":0.7637795275590551,"duration":0.24869791666668561},{"name":"C3","midi":48,"time":347.4895833333335,"velocity":0.7637795275590551,"duration":0.24869791666668561},{"name":"D#5","midi":75,"time":347.4895833333335,"velocity":0.7637795275590551,"duration":0.24869791666668561},{"name":"F3","midi":53,"time":347.7395833333335,"velocity":0.7637795275590551,"duration":0.24869791666668561},{"name":"D5","midi":74,"time":347.7395833333335,"velocity":0.7637795275590551,"duration":0.24869791666668561},{"name":"D#3","midi":51,"time":347.9895833333335,"velocity":0.7637795275590551,"duration":0.24869791666668561},{"name":"C5","midi":72,"time":347.9895833333335,"velocity":0.7637795275590551,"duration":0.24869791666668561},{"name":"D3","midi":50,"time":348.2395833333335,"velocity":0.7637795275590551,"duration":0.24869791666668561},{"name":"B4","midi":71,"time":348.2395833333335,"velocity":0.7637795275590551,"duration":0.24869791666668561},{"name":"D#3","midi":51,"time":348.4895833333335,"velocity":0.7637795275590551,"duration":0.24869791666668561},{"name":"C5","midi":72,"time":348.4895833333335,"velocity":0.7637795275590551,"duration":0.24869791666668561},{"name":"B2","midi":47,"time":348.7395833333335,"velocity":0.7637795275590551,"duration":0.24869791666668561},{"name":"D#5","midi":75,"time":348.7395833333335,"velocity":0.7637795275590551,"duration":0.24869791666668561},{"name":"C3","midi":48,"time":348.9895833333335,"velocity":0.7637795275590551,"duration":0.24869791666668561},{"name":"G5","midi":79,"time":348.9895833333335,"velocity":0.7637795275590551,"duration":0.625},{"name":"G2","midi":43,"time":349.2395833333335,"velocity":0.7637795275590551,"duration":0.24869791666668561},{"name":"G#2","midi":44,"time":349.4895833333335,"velocity":0.7637795275590551,"duration":0.24869791666668561},{"name":"C#3","midi":49,"time":349.7395833333335,"velocity":0.7637795275590551,"duration":0.24869791666668561},{"name":"A#4","midi":70,"time":349.7395833333335,"velocity":0.7637795275590551,"duration":0.24869791666668561},{"name":"C3","midi":48,"time":349.9895833333335,"velocity":0.7637795275590551,"duration":0.24869791666668561},{"name":"G#4","midi":68,"time":349.9895833333335,"velocity":0.7637795275590551,"duration":0.24869791666668561},{"name":"A#2","midi":46,"time":350.2395833333335,"velocity":0.7637795275590551,"duration":0.24869791666668561},{"name":"G4","midi":67,"time":350.2395833333335,"velocity":0.7637795275590551,"duration":0.24869791666668561},{"name":"C3","midi":48,"time":350.4895833333335,"velocity":0.7637795275590551,"duration":0.24869791666668561},{"name":"G#4","midi":68,"time":350.4895833333335,"velocity":0.7637795275590551,"duration":0.24869791666668561},{"name":"G2","midi":43,"time":350.7395833333335,"velocity":0.7637795275590551,"duration":0.24869791666668561},{"name":"C5","midi":72,"time":350.7395833333335,"velocity":0.7637795275590551,"duration":0.24869791666668561},{"name":"G#2","midi":44,"time":350.9895833333335,"velocity":0.7637795275590551,"duration":0.24869791666668561},{"name":"F5","midi":77,"time":350.9895833333335,"velocity":0.7637795275590551,"duration":0.24869791666668561},{"name":"E2","midi":40,"time":351.2395833333335,"velocity":0.7637795275590551,"duration":0.24869791666668561},{"name":"C5","midi":72,"time":351.2395833333335,"velocity":0.7637795275590551,"duration":0.24869791666668561},{"name":"F2","midi":41,"time":351.4895833333335,"velocity":0.7637795275590551,"duration":0.24869791666668561},{"name":"G#4","midi":68,"time":351.4895833333335,"velocity":0.7637795275590551,"duration":0.24869791666668561},{"name":"A#2","midi":46,"time":351.7395833333335,"velocity":0.7637795275590551,"duration":0.24869791666668561},{"name":"G4","midi":67,"time":351.7395833333335,"velocity":0.7637795275590551,"duration":0.24869791666668561},{"name":"G#2","midi":44,"time":351.9895833333335,"velocity":0.7637795275590551,"duration":0.24869791666668561},{"name":"F4","midi":65,"time":351.9895833333335,"velocity":0.7637795275590551,"duration":0.24869791666668561},{"name":"G2","midi":43,"time":352.2395833333335,"velocity":0.7637795275590551,"duration":0.24869791666668561},{"name":"E4","midi":64,"time":352.2395833333335,"velocity":0.7637795275590551,"duration":0.24869791666668561},{"name":"G#2","midi":44,"time":352.4895833333335,"velocity":0.7637795275590551,"duration":0.24869791666668561},{"name":"F4","midi":65,"time":352.4895833333335,"velocity":0.7637795275590551,"duration":0.24869791666668561},{"name":"F2","midi":41,"time":352.7395833333335,"velocity":0.7637795275590551,"duration":0.24869791666668561},{"name":"B4","midi":71,"time":352.7395833333335,"velocity":0.7637795275590551,"duration":0.24869791666668561},{"name":"G2","midi":43,"time":352.9895833333335,"velocity":0.7637795275590551,"duration":0.24869791666668561},{"name":"D5","midi":74,"time":352.9895833333335,"velocity":0.7637795275590551,"duration":0.625},{"name":"B2","midi":47,"time":353.2395833333335,"velocity":0.7637795275590551,"duration":0.24869791666668561},{"name":"D3","midi":50,"time":353.4895833333335,"velocity":0.7637795275590551,"duration":0.24869791666668561},{"name":"G#2","midi":44,"time":353.7395833333335,"velocity":0.7637795275590551,"duration":0.24869791666668561},{"name":"F4","midi":65,"time":353.7395833333335,"velocity":0.7637795275590551,"duration":0.24869791666668561},{"name":"G2","midi":43,"time":353.9895833333335,"velocity":0.7637795275590551,"duration":0.24869791666668561},{"name":"D#4","midi":63,"time":353.9895833333335,"velocity":0.7637795275590551,"duration":0.24869791666668561},{"name":"F2","midi":41,"time":354.2395833333335,"velocity":0.7637795275590551,"duration":0.24869791666668561},{"name":"D4","midi":62,"time":354.2395833333335,"velocity":0.7637795275590551,"duration":0.24869791666668561},{"name":"D#2","midi":39,"time":354.4895833333335,"velocity":0.7637795275590551,"duration":0.24869791666668561},{"name":"C4","midi":60,"time":354.4895833333335,"velocity":0.7637795275590551,"duration":0.4986979166666856},{"name":"G2","midi":43,"time":354.7395833333335,"velocity":0.7637795275590551,"duration":0.24869791666668561},{"name":"C3","midi":48,"time":354.9895833333335,"velocity":0.7637795275590551,"duration":0.24869791666668561},{"name":"D#5","midi":75,"time":354.9895833333335,"velocity":0.7637795275590551,"duration":0.4986979166666856},{"name":"D#3","midi":51,"time":355.2395833333335,"velocity":0.7637795275590551,"duration":0.4986979166666856},{"name":"G#4","midi":68,"time":355.4895833333335,"velocity":0.7637795275590551,"duration":0.4986979166666856},{"name":"B2","midi":47,"time":355.7395833333335,"velocity":0.7637795275590551,"duration":0.24869791666668561},{"name":"C3","midi":48,"time":355.9895833333335,"velocity":0.7637795275590551,"duration":0.24869791666668561},{"name":"G4","midi":67,"time":355.9895833333335,"velocity":0.7637795275590551,"duration":0.4986979166666856},{"name":"D#2","midi":39,"time":356.2395833333335,"velocity":0.7637795275590551,"duration":0.24869791666668561},{"name":"F2","midi":41,"time":356.4895833333335,"velocity":0.7637795275590551,"duration":0.24869791666668561},{"name":"D4","midi":62,"time":356.4895833333335,"velocity":0.7637795275590551,"duration":0.4986979166666856},{"name":"G#2","midi":44,"time":356.7395833333335,"velocity":0.7637795275590551,"duration":0.24869791666668561},{"name":"C3","midi":48,"time":356.9895833333335,"velocity":0.7637795275590551,"duration":0.24869791666668561},{"name":"F5","midi":77,"time":356.9895833333335,"velocity":0.7637795275590551,"duration":0.4986979166666856},{"name":"D#3","midi":51,"time":357.2395833333335,"velocity":0.7637795275590551,"duration":0.4986979166666856},{"name":"G#4","midi":68,"time":357.4895833333335,"velocity":0.7637795275590551,"duration":0.4986979166666856},{"name":"B2","midi":47,"time":357.7395833333335,"velocity":0.7637795275590551,"duration":0.24869791666668561},{"name":"C3","midi":48,"time":357.9895833333335,"velocity":0.7637795275590551,"duration":0.24869791666668561},{"name":"G4","midi":67,"time":357.9895833333335,"velocity":0.7637795275590551,"duration":0.4986979166666856},{"name":"F2","midi":41,"time":358.2395833333335,"velocity":0.7637795275590551,"duration":0.24869791666668561},{"name":"G2","midi":43,"time":358.4895833333335,"velocity":0.7637795275590551,"duration":0.24869791666668561},{"name":"D#4","midi":63,"time":358.4895833333335,"velocity":0.7637795275590551,"duration":0.4986979166666856},{"name":"B2","midi":47,"time":358.7395833333335,"velocity":0.7637795275590551,"duration":0.24869791666668561},{"name":"C3","midi":48,"time":358.9895833333335,"velocity":0.7637795275590551,"duration":0.24869791666668561},{"name":"G5","midi":79,"time":358.9895833333335,"velocity":0.7637795275590551,"duration":0.4986979166666856},{"name":"D#3","midi":51,"time":359.2395833333335,"velocity":0.7637795275590551,"duration":0.4986979166666856},{"name":"G#4","midi":68,"time":359.4895833333335,"velocity":0.7637795275590551,"duration":0.4986979166666856},{"name":"B2","midi":47,"time":359.7395833333335,"velocity":0.7637795275590551,"duration":0.24869791666668561},{"name":"C3","midi":48,"time":359.9895833333335,"velocity":0.7637795275590551,"duration":0.24869791666668561},{"name":"G4","midi":67,"time":359.9895833333335,"velocity":0.7637795275590551,"duration":0.4986979166666856},{"name":"G2","midi":43,"time":360.2395833333335,"velocity":0.7637795275590551,"duration":0.24869791666668561},{"name":"G#2","midi":44,"time":360.4895833333335,"velocity":0.7637795275590551,"duration":0.24869791666668561},{"name":"F4","midi":65,"time":360.4895833333335,"velocity":0.7637795275590551,"duration":0.4986979166666856},{"name":"B2","midi":47,"time":360.7395833333335,"velocity":0.7637795275590551,"duration":0.24869791666668561},{"name":"C3","midi":48,"time":360.9895833333335,"velocity":0.7637795275590551,"duration":0.24869791666668561},{"name":"G#5","midi":80,"time":360.9895833333335,"velocity":0.7637795275590551,"duration":0.24869791666668561},{"name":"D#3","midi":51,"time":361.2395833333335,"velocity":0.7637795275590551,"duration":0.4986979166666856},{"name":"G5","midi":79,"time":361.2395833333335,"velocity":0.7637795275590551,"duration":0.24869791666668561},{"name":"G#5","midi":80,"time":361.4895833333335,"velocity":0.7637795275590551,"duration":0.24869791666668561},{"name":"B2","midi":47,"time":361.7395833333335,"velocity":0.7637795275590551,"duration":0.24869791666668561},{"name":"G5","midi":79,"time":361.7395833333335,"velocity":0.7637795275590551,"duration":0.24869791666668561},{"name":"C3","midi":48,"time":361.9895833333335,"velocity":0.7637795275590551,"duration":0.24869791666668561},{"name":"F#5","midi":78,"time":361.9895833333335,"velocity":0.7637795275590551,"duration":0.24869791666668561},{"name":"D#3","midi":51,"time":362.2395833333335,"velocity":0.7637795275590551,"duration":0.24869791666668561},{"name":"G5","midi":79,"time":362.2395833333335,"velocity":0.7637795275590551,"duration":0.38671875},{"name":"A3","midi":57,"time":362.4895833333335,"velocity":0.7637795275590551,"duration":0.24869791666668561},{"name":"F#5","midi":78,"time":362.6145833333335,"velocity":0.7637795275590551,"duration":0.16536458333331439},{"name":"D3","midi":50,"time":362.7395833333335,"velocity":0.7637795275590551,"duration":0.24869791666662877},{"name":"G5","midi":79,"time":362.7395833333335,"velocity":0.7637795275590551,"duration":0.16536458333331439},{"name":"F#5","midi":78,"time":362.8645833333335,"velocity":0.7637795275590551,"duration":0.16536458333325754},{"name":"D#3","midi":51,"time":362.9895833333334,"velocity":0.7637795275590551,"duration":0.24869791666662877},{"name":"G5","midi":79,"time":362.9895833333334,"velocity":0.7637795275590551,"duration":0.16536458333331439},{"name":"F#5","midi":78,"time":363.1145833333334,"velocity":0.7637795275590551,"duration":0.16536458333325754},{"name":"B2","midi":47,"time":363.23958333333337,"velocity":0.7637795275590551,"duration":0.24869791666662877},{"name":"G5","midi":79,"time":363.23958333333337,"velocity":0.7637795275590551,"duration":0.16536458333331439},{"name":"F#5","midi":78,"time":363.36458333333337,"velocity":0.7637795275590551,"duration":0.16536458333325754},{"name":"C3","midi":48,"time":363.4895833333333,"velocity":0.7637795275590551,"duration":0.24869791666662877},{"name":"G5","midi":79,"time":363.4895833333333,"velocity":0.7637795275590551,"duration":0.16536458333331439},{"name":"F#5","midi":78,"time":363.6145833333333,"velocity":0.7637795275590551,"duration":0.16536458333325754},{"name":"D#3","midi":51,"time":363.73958333333326,"velocity":0.7637795275590551,"duration":0.24869791666662877},{"name":"G5","midi":79,"time":363.73958333333326,"velocity":0.7637795275590551,"duration":0.16536458333331439},{"name":"F#5","midi":78,"time":363.86458333333326,"velocity":0.7637795275590551,"duration":0.19791666666662877},{"name":"D3","midi":50,"time":363.9895833333332,"velocity":0.7637795275590551,"duration":0.24869791666662877},{"name":"G5","midi":79,"time":363.9895833333332,"velocity":0.7637795275590551,"duration":0.16536458333331439},{"name":"F#5","midi":78,"time":364.1145833333332,"velocity":0.7637795275590551,"duration":0.19791666666662877},{"name":"C3","midi":48,"time":364.23958333333314,"velocity":0.7637795275590551,"duration":0.24869791666668561},{"name":"E5","midi":76,"time":364.23958333333314,"velocity":0.7637795275590551,"duration":0.15625},{"name":"F#5","midi":78,"time":364.36458333333314,"velocity":0.7637795275590551,"duration":0.12369791666668561},{"name":"B2","midi":47,"time":364.48958333333314,"velocity":0.7637795275590551,"duration":0.24869791666668561},{"name":"G5","midi":79,"time":364.48958333333314,"velocity":0.7637795275590551,"duration":0.24869791666668561},{"name":"G2","midi":43,"time":364.73958333333314,"velocity":0.7637795275590551,"duration":0.24869791666668561},{"name":"D5","midi":74,"time":364.73958333333314,"velocity":0.7637795275590551,"duration":0.24869791666668561},{"name":"G#2","midi":44,"time":364.98958333333314,"velocity":0.7637795275590551,"duration":0.24869791666668561},{"name":"F5","midi":77,"time":364.98958333333314,"velocity":0.7637795275590551,"duration":0.24869791666668561},{"name":"D#2","midi":39,"time":365.23958333333314,"velocity":0.7637795275590551,"duration":0.24869791666668561},{"name":"D#5","midi":75,"time":365.23958333333314,"velocity":0.7637795275590551,"duration":0.24869791666668561},{"name":"F2","midi":41,"time":365.48958333333314,"velocity":0.7637795275590551,"duration":0.24869791666668561},{"name":"D5","midi":74,"time":365.48958333333314,"velocity":0.7637795275590551,"duration":0.24869791666668561},{"name":"G#2","midi":44,"time":365.73958333333314,"velocity":0.7637795275590551,"duration":0.24869791666668561},{"name":"C5","midi":72,"time":365.73958333333314,"velocity":0.7637795275590551,"duration":0.24869791666668561},{"name":"G2","midi":43,"time":365.98958333333314,"velocity":0.7637795275590551,"duration":0.24869791666668561},{"name":"B4","midi":71,"time":365.98958333333314,"velocity":0.7637795275590551,"duration":0.24869791666668561},{"name":"F2","midi":41,"time":366.23958333333314,"velocity":0.7637795275590551,"duration":0.24869791666668561},{"name":"A4","midi":69,"time":366.23958333333314,"velocity":0.7637795275590551,"duration":0.24869791666668561},{"name":"D#2","midi":39,"time":366.48958333333314,"velocity":0.7637795275590551,"duration":0.24869791666668561},{"name":"G4","midi":67,"time":366.48958333333314,"velocity":0.7637795275590551,"duration":0.4986979166666856},{"name":"G2","midi":43,"time":366.73958333333314,"velocity":0.7637795275590551,"duration":0.24869791666668561},{"name":"G4","midi":67,"time":367.0104166666665,"velocity":0.7637795275590551,"duration":0.4348958333333144},{"name":"C5","midi":72,"time":367.0104166666665,"velocity":0.7637795275590551,"duration":0.4348958333333144},{"name":"D#5","midi":75,"time":367.0104166666665,"velocity":0.7637795275590551,"duration":0.4348958333333144},{"name":"C3","midi":48,"time":367.0104166666665,"velocity":0.7637795275590551,"duration":0.21354166666668561},{"name":"G5","midi":79,"time":367.0104166666665,"velocity":0.7637795275590551,"duration":0.49869791666662877},{"name":"D#3","midi":51,"time":367.2604166666665,"velocity":0.7637795275590551,"duration":0.24869791666662877},{"name":"G3","midi":55,"time":367.53124999999983,"velocity":0.7637795275590551,"duration":0.4986979166666856},{"name":"C5","midi":72,"time":367.53124999999983,"velocity":0.7637795275590551,"duration":0.4986979166666856},{"name":"G4","midi":67,"time":367.53124999999983,"velocity":0.7637795275590551,"duration":0.4986979166666856},{"name":"D#5","midi":75,"time":367.53124999999983,"velocity":0.7637795275590551,"duration":0.4986979166666856},{"name":"F4","midi":65,"time":368.0520833333332,"velocity":0.7637795275590551,"duration":0.5338541666666288},{"name":"B4","midi":71,"time":368.0520833333332,"velocity":0.7637795275590551,"duration":0.5013020833333144},{"name":"G2","midi":43,"time":368.0520833333332,"velocity":0.7637795275590551,"duration":0.5338541666666288},{"name":"D5","midi":74,"time":368.0520833333332,"velocity":0.7637795275590551,"duration":0.24869791666668561},{"name":"C5","midi":72,"time":368.3645833333332,"velocity":0.7637795275590551,"duration":0.21614583333331439},{"name":"C2","midi":36,"time":368.59374999999983,"velocity":0.7637795275590551,"duration":3.2473958333333144},{"name":"C3","midi":48,"time":368.59374999999983,"velocity":0.7637795275590551,"duration":3.2473958333333144},{"name":"D#4","midi":63,"time":368.59374999999983,"velocity":0.7637795275590551,"duration":3.2473958333333144},{"name":"G4","midi":67,"time":368.59374999999983,"velocity":0.7637795275590551,"duration":3.2473958333333144},{"name":"C5","midi":72,"time":368.59895833333314,"velocity":0.7637795275590551,"duration":3.2473958333333144},{"name":"C5","midi":72,"time":376.23958333333314,"velocity":0.7637795275590551,"duration":0.234375},{"name":"C5","midi":72,"time":376.48958333333314,"velocity":0.7637795275590551,"duration":0.6236979166666856},{"name":"D#4","midi":63,"time":376.48958333333314,"velocity":0.7637795275590551,"duration":0.6236979166666856},{"name":"G4","midi":67,"time":376.48958333333314,"velocity":0.7637795275590551,"duration":0.6236979166666856},{"name":"C4","midi":60,"time":376.48958333333314,"velocity":0.7637795275590551,"duration":1.4973958333333144},{"name":"C3","midi":48,"time":376.98958333333314,"velocity":0.7637795275590551,"duration":2.4986979166666288},{"name":"G4","midi":67,"time":377.11458333333314,"velocity":0.7637795275590551,"duration":0.12369791666668561},{"name":"A4","midi":69,"time":377.23958333333314,"velocity":0.7637795275590551,"duration":0.12369791666668561},{"name":"B4","midi":71,"time":377.36458333333314,"velocity":0.7637795275590551,"duration":0.12369791666668561},{"name":"C5","midi":72,"time":377.48958333333314,"velocity":0.7637795275590551,"duration":0.24869791666668561},{"name":"D#3","midi":51,"time":377.48958333333314,"velocity":0.7637795275590551,"duration":0.49869791666662877},{"name":"D5","midi":74,"time":377.73958333333314,"velocity":0.7637795275590551,"duration":0.24869791666662877},{"name":"D#5","midi":75,"time":377.9895833333331,"velocity":0.7637795275590551,"duration":0.24869791666668561},{"name":"G3","midi":55,"time":377.9895833333331,"velocity":0.7637795275590551,"duration":0.4986979166666856},{"name":"C5","midi":72,"time":378.2395833333331,"velocity":0.7637795275590551,"duration":0.24869791666668561},{"name":"G#5","midi":80,"time":378.4895833333331,"velocity":0.7637795275590551,"duration":0.7486979166666856},{"name":"C4","midi":60,"time":378.4895833333331,"velocity":0.7637795275590551,"duration":0.4986979166666856},{"name":"F5","midi":77,"time":378.7395833333331,"velocity":0.7637795275590551,"duration":0.8854166666666856},{"name":"D5","midi":74,"time":378.9895833333331,"velocity":0.7637795275590551,"duration":0.7486979166666856},{"name":"B3","midi":59,"time":378.9895833333331,"velocity":0.7637795275590551,"duration":0.4986979166666856},{"name":"G#5","midi":80,"time":379.2395833333331,"velocity":0.7637795275590551,"duration":0.24869791666668561},{"name":"G5","midi":79,"time":379.4895833333331,"velocity":0.7637795275590551,"duration":2.4986979166666856},{"name":"C4","midi":60,"time":379.4895833333331,"velocity":0.7637795275590551,"duration":0.6236979166666856},{"name":"C3","midi":48,"time":379.4895833333331,"velocity":0.7637795275590551,"duration":0.6236979166666856},{"name":"F5","midi":77,"time":379.7395833333331,"velocity":0.7637795275590551,"duration":0.24869791666668561},{"name":"D#5","midi":75,"time":379.9895833333331,"velocity":0.7637795275590551,"duration":0.24869791666668561},{"name":"G3","midi":55,"time":380.1145833333331,"velocity":0.7637795275590551,"duration":0.12369791666668561},{"name":"D5","midi":74,"time":380.2395833333331,"velocity":0.7637795275590551,"duration":0.24869791666668561},{"name":"A3","midi":57,"time":380.2395833333331,"velocity":0.7637795275590551,"duration":0.12369791666668561},{"name":"B3","midi":59,"time":380.3645833333331,"velocity":0.7637795275590551,"duration":0.12369791666668561},{"name":"D#5","midi":75,"time":380.4895833333331,"velocity":0.7637795275590551,"duration":0.4986979166666856},{"name":"C4","midi":60,"time":380.4895833333331,"velocity":0.7637795275590551,"duration":0.24869791666668561},{"name":"D4","midi":62,"time":380.7395833333331,"velocity":0.7637795275590551,"duration":0.24869791666668561},{"name":"C5","midi":72,"time":380.9895833333331,"velocity":0.7637795275590551,"duration":0.7486979166666856},{"name":"D#4","midi":63,"time":380.9895833333331,"velocity":0.7637795275590551,"duration":0.24869791666668561},{"name":"C4","midi":60,"time":381.2395833333331,"velocity":0.7637795275590551,"duration":0.24869791666668561},{"name":"G#4","midi":68,"time":381.4895833333331,"velocity":0.7637795275590551,"duration":0.7486979166666856},{"name":"C5","midi":72,"time":381.7395833333331,"velocity":0.7637795275590551,"duration":0.4986979166666856},{"name":"F5","midi":77,"time":381.9895833333331,"velocity":0.7637795275590551,"duration":0.6236979166666856},{"name":"D5","midi":74,"time":382.2395833333331,"velocity":0.7637795275590551,"duration":0.24869791666668561},{"name":"G#4","midi":68,"time":382.2395833333331,"velocity":0.7637795275590551,"duration":0.24869791666668561},{"name":"B4","midi":71,"time":382.4895833333331,"velocity":0.7637795275590551,"duration":1.2486979166666856},{"name":"G4","midi":67,"time":382.4895833333331,"velocity":0.7637795275590551,"duration":1.7486979166666856},{"name":"G#5","midi":80,"time":382.6145833333331,"velocity":0.7637795275590551,"duration":0.12369791666668561},{"name":"G5","midi":79,"time":382.7395833333331,"velocity":0.7637795275590551,"duration":0.12369791666668561},{"name":"F5","midi":77,"time":382.8645833333331,"velocity":0.7637795275590551,"duration":0.12369791666668561},{"name":"G5","midi":79,"time":382.9895833333331,"velocity":0.7637795275590551,"duration":0.24869791666668561},{"name":"D5","midi":74,"time":383.2395833333331,"velocity":0.7637795275590551,"duration":0.24869791666668561},{"name":"D#5","midi":75,"time":383.4895833333331,"velocity":0.7637795275590551,"duration":1.2486979166666856},{"name":"B4","midi":71,"time":383.7395833333331,"velocity":0.7637795275590551,"duration":0.24869791666668561},{"name":"C5","midi":72,"time":383.9895833333331,"velocity":0.7637795275590551,"duration":0.9986979166666856},{"name":"G#4","midi":68,"time":384.2395833333331,"velocity":0.7637795275590551,"duration":0.24869791666668561},{"name":"F#4","midi":66,"time":384.4895833333331,"velocity":0.7637795275590551,"duration":0.9986979166666856},{"name":"D#5","midi":75,"time":384.7395833333331,"velocity":0.7637795275590551,"duration":0.24869791666668561},{"name":"D5","midi":74,"time":384.9895833333331,"velocity":0.7637795275590551,"duration":0.24869791666668561},{"name":"A4","midi":69,"time":384.9895833333331,"velocity":0.7637795275590551,"duration":0.4947916666666856},{"name":"C5","midi":72,"time":385.2395833333331,"velocity":0.7637795275590551,"duration":0.24869791666668561},{"name":"C5","midi":72,"time":385.4895833333331,"velocity":0.7637795275590551,"duration":0.1875},{"name":"G4","midi":67,"time":385.6145833333331,"velocity":0.7637795275590551,"duration":0.12369791666668561},{"name":"B4","midi":71,"time":385.6562499999998,"velocity":0.7637795275590551,"duration":0.08203125},{"name":"C5","midi":72,"time":385.7395833333331,"velocity":0.7637795275590551,"duration":0.08203125},{"name":"F4","midi":65,"time":385.7395833333331,"velocity":0.7637795275590551,"duration":0.12369791666662877},{"name":"B4","midi":71,"time":385.8229166666664,"velocity":0.7637795275590551,"duration":0.08203124999994316},{"name":"D#4","midi":63,"time":385.86458333333303,"velocity":0.7637795275590551,"duration":0.12369791666662877},{"name":"C5","midi":72,"time":385.90624999999966,"velocity":0.7637795275590551,"duration":0.08203125},{"name":"B4","midi":71,"time":385.989583333333,"velocity":0.7637795275590551,"duration":0.24609375},{"name":"F4","midi":65,"time":385.989583333333,"velocity":0.7637795275590551,"duration":0.24869791666668561},{"name":"C5","midi":72,"time":386.239583333333,"velocity":0.7637795275590551,"duration":0.24869791666662877},{"name":"D4","midi":62,"time":386.239583333333,"velocity":0.7637795275590551,"duration":0.24739583333331439},{"name":"D5","midi":74,"time":386.4895833333329,"velocity":0.7637795275590551,"duration":1.2486979166666856},{"name":"B3","midi":59,"time":386.4895833333329,"velocity":0.7637795275590551,"duration":0.8854166666666856},{"name":"G4","midi":67,"time":386.7395833333329,"velocity":0.7637795275590551,"duration":0.24869791666668561},{"name":"D4","midi":62,"time":386.9895833333329,"velocity":0.7637795275590551,"duration":0.24869791666668561},{"name":"F4","midi":65,"time":387.2395833333329,"velocity":0.7637795275590551,"duration":0.24869791666668561},{"name":"D#4","midi":63,"time":387.4895833333329,"velocity":0.7637795275590551,"duration":0.4986979166666856},{"name":"C4","midi":60,"time":387.4895833333329,"velocity":0.7637795275590551,"duration":0.4986979166666856},{"name":"C5","midi":72,"time":387.7395833333329,"velocity":0.7637795275590551,"duration":0.24869791666668561},{"name":"D#5","midi":75,"time":387.9895833333329,"velocity":0.7637795275590551,"duration":0.24869791666668561},{"name":"G4","midi":67,"time":387.9895833333329,"velocity":0.7637795275590551,"duration":0.9986979166666856},{"name":"A#3","midi":58,"time":387.9895833333329,"velocity":0.7637795275590551,"duration":0.4986979166666856},{"name":"G5","midi":79,"time":388.2395833333329,"velocity":0.7637795275590551,"duration":0.24869791666668561},{"name":"C6","midi":84,"time":388.4895833333329,"velocity":0.7637795275590551,"duration":0.12369791666668561},{"name":"G#3","midi":56,"time":388.4895833333329,"velocity":0.7637795275590551,"duration":0.4986979166666856},{"name":"A#5","midi":82,"time":388.6145833333329,"velocity":0.7637795275590551,"duration":0.12369791666668561},{"name":"G#5","midi":80,"time":388.7395833333329,"velocity":0.7637795275590551,"duration":0.12369791666668561},{"name":"C4","midi":60,"time":388.7395833333329,"velocity":0.7637795275590551,"duration":0.4986979166666856},{"name":"G5","midi":79,"time":388.8645833333329,"velocity":0.7637795275590551,"duration":0.12369791666668561},{"name":"G#5","midi":80,"time":388.9895833333329,"velocity":0.7637795275590551,"duration":0.24869791666668561},{"name":"D3","midi":50,"time":388.9895833333329,"velocity":0.7637795275590551,"duration":0.49869791666662877},{"name":"F5","midi":77,"time":389.2395833333329,"velocity":0.7637795275590551,"duration":0.24869791666662877},{"name":"B3","midi":59,"time":389.2395833333329,"velocity":0.7637795275590551,"duration":0.24739583333331439},{"name":"G5","midi":79,"time":389.48958333333286,"velocity":0.7637795275590551,"duration":1.2486979166666856},{"name":"D#3","midi":51,"time":389.48958333333286,"velocity":0.7637795275590551,"duration":0.7486979166666856},{"name":"D5","midi":74,"time":389.73958333333286,"velocity":0.7637795275590551,"duration":0.24869791666668561},{"name":"G3","midi":55,"time":389.73958333333286,"velocity":0.7637795275590551,"duration":0.24869791666668561},{"name":"D#5","midi":75,"time":389.98958333333286,"velocity":0.7637795275590551,"duration":0.24869791666668561},{"name":"C4","midi":60,"time":389.98958333333286,"velocity":0.7637795275590551,"duration":0.4986979166666856},{"name":"C5","midi":72,"time":390.23958333333286,"velocity":0.7637795275590551,"duration":0.24869791666668561},{"name":"F3","midi":53,"time":390.23958333333286,"velocity":0.7637795275590551,"duration":0.24869791666668561},{"name":"B4","midi":71,"time":390.48958333333286,"velocity":0.7637795275590551,"duration":0.9986979166666856},{"name":"G3","midi":55,"time":390.48958333333286,"velocity":0.7637795275590551,"duration":1.498697916666572},{"name":"G#5","midi":80,"time":390.73958333333286,"velocity":0.7637795275590551,"duration":0.24869791666668561},{"name":"G5","midi":79,"time":390.98958333333286,"velocity":0.7637795275590551,"duration":0.24869791666668561},{"name":"G2","midi":43,"time":390.98958333333286,"velocity":0.7637795275590551,"duration":0.4986979166666856},{"name":"F5","midi":77,"time":391.23958333333286,"velocity":0.7637795275590551,"duration":0.24869791666668561},{"name":"F5","midi":77,"time":391.48958333333286,"velocity":0.7637795275590551,"duration":0.08203125},{"name":"C5","midi":72,"time":391.48958333333286,"velocity":0.7637795275590551,"duration":0.6249999999998863},{"name":"C3","midi":48,"time":391.48958333333286,"velocity":0.7637795275590551,"duration":1.498697916666572},{"name":"D#5","midi":75,"time":391.5729166666662,"velocity":0.7637795275590551,"duration":0.08203125},{"name":"F5","midi":77,"time":391.6562499999995,"velocity":0.7637795275590551,"duration":0.08203125},{"name":"D#5","midi":75,"time":391.7395833333328,"velocity":0.7637795275590551,"duration":0.08203125},{"name":"F5","midi":77,"time":391.8229166666661,"velocity":0.7637795275590551,"duration":0.08203125},{"name":"D#5","midi":75,"time":391.90624999999943,"velocity":0.7637795275590551,"duration":0.20833333333331439},{"name":"D#3","midi":51,"time":391.98958333333275,"velocity":0.7637795275590551,"duration":0.4986979166666856},{"name":"D5","midi":74,"time":392.11458333333275,"velocity":0.7637795275590551,"duration":0.08203125},{"name":"C5","midi":72,"time":392.23958333333275,"velocity":0.7637795275590551,"duration":0.12369791666668561},{"name":"B4","midi":71,"time":392.36458333333275,"velocity":0.7637795275590551,"duration":0.12369791666668561},{"name":"C5","midi":72,"time":392.48958333333275,"velocity":0.7637795275590551,"duration":0.24869791666668561},{"name":"G3","midi":55,"time":392.48958333333275,"velocity":0.7637795275590551,"duration":0.4947916666666856},{"name":"D5","midi":74,"time":392.73958333333275,"velocity":0.7637795275590551,"duration":0.24869791666668561},{"name":"D#5","midi":75,"time":392.98958333333275,"velocity":0.7637795275590551,"duration":0.24869791666668561},{"name":"C4","midi":60,"time":392.98958333333275,"velocity":0.7637795275590551,"duration":0.4986979166666856},{"name":"F5","midi":77,"time":393.23958333333275,"velocity":0.7637795275590551,"duration":0.24869791666668561},{"name":"G5","midi":79,"time":393.48958333333275,"velocity":0.7637795275590551,"duration":0.24869791666668561},{"name":"A#3","midi":58,"time":393.48958333333275,"velocity":0.7637795275590551,"duration":0.12369791666668561},{"name":"C4","midi":60,"time":393.61458333333275,"velocity":0.7637795275590551,"duration":0.12369791666668561},{"name":"F5","midi":77,"time":393.73958333333275,"velocity":0.7637795275590551,"duration":0.12369791666668561},{"name":"A#3","midi":58,"time":393.73958333333275,"velocity":0.7637795275590551,"duration":0.24869791666668561},{"name":"D#5","midi":75,"time":393.86458333333275,"velocity":0.7637795275590551,"duration":0.12369791666668561},{"name":"A#5","midi":82,"time":393.98958333333275,"velocity":0.7637795275590551,"duration":0.3736979166666856},{"name":"G#3","midi":56,"time":393.98958333333275,"velocity":0.7637795275590551,"duration":0.4986979166666856},{"name":"A#5","midi":82,"time":394.36458333333275,"velocity":0.7637795275590551,"duration":0.12369791666668561},{"name":"A#5","midi":82,"time":394.48958333333275,"velocity":0.7637795275590551,"duration":0.6236979166666288},{"name":"G3","midi":55,"time":394.48958333333275,"velocity":0.7637795275590551,"duration":1.4986979166666288},{"name":"G5","midi":79,"time":394.55208333333275,"velocity":0.7637795275590551,"duration":0.49479166666662877},{"name":"D#5","midi":75,"time":394.61458333333275,"velocity":0.7637795275590551,"duration":0.41666666666662877},{"name":"A#4","midi":70,"time":394.67708333333275,"velocity":0.7637795275590551,"duration":0.3450520833333144},{"name":"A#3","midi":58,"time":394.98958333333275,"velocity":0.7637795275590551,"duration":0.49869791666662877},{"name":"G#5","midi":80,"time":395.1145833333327,"velocity":0.7637795275590551,"duration":0.12369791666668561},{"name":"G5","midi":79,"time":395.2395833333327,"velocity":0.7637795275590551,"duration":0.12369791666668561},{"name":"F5","midi":77,"time":395.3645833333327,"velocity":0.7637795275590551,"duration":0.12369791666668561},{"name":"G5","midi":79,"time":395.4895833333327,"velocity":0.7637795275590551,"duration":1.2486979166666856},{"name":"D#4","midi":63,"time":395.4895833333327,"velocity":0.7637795275590551,"duration":1.4986979166666856},{"name":"F5","midi":77,"time":395.6145833333327,"velocity":0.7637795275590551,"duration":0.12369791666668561},{"name":"D#5","midi":75,"time":395.7395833333327,"velocity":0.7637795275590551,"duration":0.12369791666668561},{"name":"D5","midi":74,"time":395.8645833333327,"velocity":0.7637795275590551,"duration":0.12369791666668561},{"name":"D#5","midi":75,"time":395.9895833333327,"velocity":0.7637795275590551,"duration":0.24869791666668561},{"name":"G3","midi":55,"time":395.9895833333327,"velocity":0.7637795275590551,"duration":0.4986979166666856},{"name":"A#4","midi":70,"time":396.2395833333327,"velocity":0.7637795275590551,"duration":0.24869791666668561},{"name":"C5","midi":72,"time":396.4895833333327,"velocity":0.7637795275590551,"duration":1.1236979166666856},{"name":"A3","midi":57,"time":396.4895833333327,"velocity":0.7637795275590551,"duration":0.4986979166666856},{"name":"G5","midi":79,"time":396.7395833333327,"velocity":0.7637795275590551,"duration":0.24869791666668561},{"name":"F5","midi":77,"time":396.9895833333327,"velocity":0.7637795275590551,"duration":0.24869791666668561},{"name":"A3","midi":57,"time":396.9895833333327,"velocity":0.7637795275590551,"duration":0.4986979166666856},{"name":"F3","midi":53,"time":396.9895833333327,"velocity":0.7637795275590551,"duration":0.4986979166666856},{"name":"D#5","midi":75,"time":397.2395833333327,"velocity":0.7637795275590551,"duration":0.24869791666668561},{"name":"D5","midi":74,"time":397.4895833333327,"velocity":0.7637795275590551,"duration":1.7486979166666856},{"name":"A#3","midi":58,"time":397.4895833333327,"velocity":0.7637795275590551,"duration":0.6236979166666856},{"name":"C5","midi":72,"time":397.6145833333327,"velocity":0.7637795275590551,"duration":0.12369791666668561},{"name":"A#4","midi":70,"time":397.7395833333327,"velocity":0.7637795275590551,"duration":0.12369791666668561},{"name":"A4","midi":69,"time":397.8645833333327,"velocity":0.7637795275590551,"duration":0.12369791666668561},{"name":"A#4","midi":70,"time":397.9895833333327,"velocity":0.7637795275590551,"duration":0.24869791666668561},{"name":"F2","midi":41,"time":398.1145833333327,"velocity":0.7637795275590551,"duration":0.12369791666668561},{"name":"F4","midi":65,"time":398.2395833333327,"velocity":0.7637795275590551,"duration":0.24869791666668561},{"name":"G2","midi":43,"time":398.2395833333327,"velocity":0.7637795275590551,"duration":0.12369791666668561},{"name":"A2","midi":45,"time":398.3645833333327,"velocity":0.7637795275590551,"duration":0.12369791666668561},{"name":"D4","midi":62,"time":398.4895833333327,"velocity":0.7637795275590551,"duration":0.24869791666668561},{"name":"A#2","midi":46,"time":398.4895833333327,"velocity":0.7637795275590551,"duration":0.24869791666668561},{"name":"F4","midi":65,"time":398.7395833333327,"velocity":0.7637795275590551,"duration":0.24869791666668561},{"name":"C3","midi":48,"time":398.7395833333327,"velocity":0.7637795275590551,"duration":0.24869791666668561},{"name":"A#4","midi":70,"time":398.9895833333327,"velocity":0.7637795275590551,"duration":0.4986979166666856},{"name":"D3","midi":50,"time":398.9895833333327,"velocity":0.7637795275590551,"duration":0.24869791666668561},{"name":"D5","midi":74,"time":399.2395833333327,"velocity":0.7637795275590551,"duration":0.4986979166666856},{"name":"A#2","midi":46,"time":399.2395833333327,"velocity":0.7637795275590551,"duration":0.24869791666668561},{"name":"G4","midi":67,"time":399.4895833333327,"velocity":0.7637795275590551,"duration":0.7486979166666856},{"name":"D#3","midi":51,"time":399.4895833333327,"velocity":0.7637795275590551,"duration":0.7486979166666856},{"name":"A#4","midi":70,"time":399.7395833333327,"velocity":0.7637795275590551,"duration":0.24869791666668561},{"name":"C5","midi":72,"time":399.9895833333327,"velocity":0.7637795275590551,"duration":0.6236979166666856},{"name":"A4","midi":69,"time":400.2395833333327,"velocity":0.7637795275590551,"duration":0.24869791666668561},{"name":"D#3","midi":51,"time":400.2395833333327,"velocity":0.7637795275590551,"duration":0.24869791666668561},{"name":"F#4","midi":66,"time":400.4895833333327,"velocity":0.7637795275590551,"duration":0.9986979166666856},{"name":"D3","midi":50,"time":400.4895833333327,"velocity":0.7637795275590551,"duration":2.9947916666666856},{"name":"D#5","midi":75,"time":400.6145833333327,"velocity":0.7637795275590551,"duration":0.12369791666668561},{"name":"D5","midi":74,"time":400.7395833333327,"velocity":0.7637795275590551,"duration":0.12369791666668561},{"name":"C5","midi":72,"time":400.8645833333327,"velocity":0.7637795275590551,"duration":0.12369791666668561},{"name":"D5","midi":74,"time":400.9895833333327,"velocity":0.7637795275590551,"duration":0.24869791666668561},{"name":"A3","midi":57,"time":400.9895833333327,"velocity":0.7637795275590551,"duration":0.4986979166666856},{"name":"A4","midi":69,"time":401.2395833333327,"velocity":0.7637795275590551,"duration":0.24869791666668561},{"name":"A#4","midi":70,"time":401.4895833333327,"velocity":0.7637795275590551,"duration":0.24869791666668561},{"name":"G4","midi":67,"time":401.4895833333327,"velocity":0.7637795275590551,"duration":0.4947916666666856},{"name":"D4","midi":62,"time":401.4895833333327,"velocity":0.7637795275590551,"duration":0.4986979166666856},{"name":"D5","midi":74,"time":401.7395833333327,"velocity":0.7637795275590551,"duration":0.24869791666668561},{"name":"G5","midi":79,"time":401.9895833333327,"velocity":0.7637795275590551,"duration":0.24869791666668561},{"name":"A#3","midi":58,"time":401.9895833333327,"velocity":0.7637795275590551,"duration":0.4986979166666856},{"name":"A#5","midi":82,"time":402.2395833333327,"velocity":0.7637795275590551,"duration":0.4986979166666856},{"name":"C#5","midi":73,"time":402.4895833333327,"velocity":0.7637795275590551,"duration":0.9986979166666856},{"name":"G3","midi":55,"time":402.4895833333327,"velocity":0.7637795275590551,"duration":0.4986979166666856},{"name":"A#5","midi":82,"time":402.7395833333327,"velocity":0.7637795275590551,"duration":0.24869791666668561},{"name":"A5","midi":81,"time":402.9895833333327,"velocity":0.7637795275590551,"duration":0.24869791666668561},{"name":"E3","midi":52,"time":402.9895833333327,"velocity":0.7637795275590551,"duration":0.4986979166666856},{"name":"G5","midi":79,"time":403.2395833333327,"velocity":0.7637795275590551,"duration":0.24869791666668561},{"name":"G5","midi":79,"time":403.4895833333327,"velocity":0.7637795275590551,"duration":0.15625},{"name":"D5","midi":74,"time":403.4895833333327,"velocity":0.7637795275590551,"duration":1.9921874999998295},{"name":"D3","midi":50,"time":403.4895833333327,"velocity":0.7637795275590551,"duration":0.12369791666668561},{"name":"D4","midi":62,"time":403.6145833333327,"velocity":0.7637795275590551,"duration":0.12369791666668561},{"name":"F#5","midi":78,"time":403.6562499999994,"velocity":0.7637795275590551,"duration":0.08203125},{"name":"G5","midi":79,"time":403.7395833333327,"velocity":0.7637795275590551,"duration":0.08203125},{"name":"C4","midi":60,"time":403.7395833333327,"velocity":0.7637795275590551,"duration":0.12369791666662877},{"name":"F#5","midi":78,"time":403.822916666666,"velocity":0.7637795275590551,"duration":0.08203124999994316},{"name":"A#3","midi":58,"time":403.86458333333263,"velocity":0.7637795275590551,"duration":0.12369791666662877},{"name":"G5","midi":79,"time":403.90624999999926,"velocity":0.7637795275590551,"duration":0.08203125},{"name":"F#5","midi":78,"time":403.9895833333326,"velocity":0.7637795275590551,"duration":0.24739583333331439},{"name":"C4","midi":60,"time":403.9895833333326,"velocity":0.7637795275590551,"duration":0.24869791666662877},{"name":"G5","midi":79,"time":404.2395833333325,"velocity":0.7637795275590551,"duration":0.24739583333331439},{"name":"A3","midi":57,"time":404.2395833333325,"velocity":0.7637795275590551,"duration":0.24739583333331439},{"name":"A5","midi":81,"time":404.4895833333325,"velocity":0.7637795275590551,"duration":0.9986979166666856},{"name":"F#3","midi":54,"time":404.4895833333325,"velocity":0.7637795275590551,"duration":0.9986979166666856},{"name":"D4","midi":62,"time":404.7395833333325,"velocity":0.7637795275590551,"duration":0.24869791666668561},{"name":"A3","midi":57,"time":404.9895833333325,"velocity":0.7637795275590551,"duration":0.24869791666668561},{"name":"C4","midi":60,"time":405.2395833333325,"velocity":0.7637795275590551,"duration":0.24869791666668561},{"name":"A#3","midi":58,"time":405.4895833333325,"velocity":0.7637795275590551,"duration":1.2486979166666856},{"name":"G5","midi":79,"time":405.6145833333325,"velocity":0.7637795275590551,"duration":0.12369791666668561},{"name":"F5","midi":77,"time":405.7395833333325,"velocity":0.7637795275590551,"duration":0.12369791666668561},{"name":"D#5","midi":75,"time":405.8645833333325,"velocity":0.7637795275590551,"duration":0.12369791666668561},{"name":"F5","midi":77,"time":405.9895833333325,"velocity":0.7637795275590551,"duration":0.24869791666668561},{"name":"G3","midi":55,"time":405.9895833333325,"velocity":0.7637795275590551,"duration":0.4986979166666856},{"name":"D5","midi":74,"time":406.2395833333325,"velocity":0.7637795275590551,"duration":0.24869791666668561},{"name":"D#5","midi":75,"time":406.4895833333325,"velocity":0.7637795275590551,"duration":0.12369791666668561},{"name":"C3","midi":48,"time":406.4895833333325,"velocity":0.7637795275590551,"duration":0.4986979166666856},{"name":"D5","midi":74,"time":406.6145833333325,"velocity":0.7637795275590551,"duration":0.12369791666668561},{"name":"C5","midi":72,"time":406.7395833333325,"velocity":0.7637795275590551,"duration":0.12369791666668561},{"name":"A3","midi":57,"time":406.7395833333325,"velocity":0.7637795275590551,"duration":0.7486979166666856},{"name":"B4","midi":71,"time":406.8645833333325,"velocity":0.7637795275590551,"duration":0.12369791666668561},{"name":"C5","midi":72,"time":406.9895833333325,"velocity":0.7637795275590551,"duration":0.24869791666668561},{"name":"D#3","midi":51,"time":406.9895833333325,"velocity":0.7637795275590551,"duration":0.24869791666668561},{"name":"F#5","midi":78,"time":407.2395833333325,"velocity":0.7637795275590551,"duration":0.24869791666668561},{"name":"D3","midi":50,"time":407.2395833333325,"velocity":0.7637795275590551,"duration":0.24869791666668561},{"name":"G5","midi":79,"time":407.4895833333325,"velocity":0.7637795275590551,"duration":0.24869791666668561},{"name":"C3","midi":48,"time":407.4895833333325,"velocity":0.7637795275590551,"duration":0.24869791666668561},{"name":"G4","midi":67,"time":407.7395833333325,"velocity":0.7637795275590551,"duration":0.24869791666668561},{"name":"A#2","midi":46,"time":407.7395833333325,"velocity":0.7637795275590551,"duration":0.24869791666668561},{"name":"C5","midi":72,"time":407.9895833333325,"velocity":0.7637795275590551,"duration":0.12369791666668561},{"name":"D#3","midi":51,"time":407.9895833333325,"velocity":0.7637795275590551,"duration":0.24869791666668561},{"name":"A#4","midi":70,"time":408.1145833333325,"velocity":0.7637795275590551,"duration":0.12369791666668561},{"name":"A4","midi":69,"time":408.2395833333325,"velocity":0.7637795275590551,"duration":0.24869791666668561},{"name":"C3","midi":48,"time":408.2395833333325,"velocity":0.7637795275590551,"duration":0.24869791666668561},{"name":"A#4","midi":70,"time":408.4895833333325,"velocity":0.7637795275590551,"duration":0.08203125},{"name":"D3","midi":50,"time":408.4895833333325,"velocity":0.7637795275590551,"duration":0.9986979166665151},{"name":"F#4","midi":66,"time":408.4895833333325,"velocity":0.7637795275590551,"duration":0.7473958333332007},{"name":"A4","midi":69,"time":408.57291666666583,"velocity":0.7637795275590551,"duration":0.08203125},{"name":"A#4","midi":70,"time":408.65624999999915,"velocity":0.7637795275590551,"duration":0.08203125},{"name":"A4","midi":69,"time":408.73958333333246,"velocity":0.7637795275590551,"duration":0.08203125},{"name":"A#4","midi":70,"time":408.8229166666658,"velocity":0.7637795275590551,"duration":0.08203125},{"name":"A4","midi":69,"time":408.9062499999991,"velocity":0.7637795275590551,"duration":0.33203124999994316},{"name":"D2","midi":38,"time":408.9895833333324,"velocity":0.7637795275590551,"duration":0.49869791666662877},{"name":"G4","midi":67,"time":409.23958333333235,"velocity":0.7637795275590551,"duration":0.24869791666668561},{"name":"G4","midi":67,"time":409.48958333333235,"velocity":0.7637795275590551,"duration":1.4986979166666856},{"name":"G2","midi":43,"time":409.48958333333235,"velocity":0.7637795275590551,"duration":2.8645833333333144},{"name":"D3","midi":50,"time":409.98958333333235,"velocity":0.7637795275590551,"duration":0.4986979166666856},{"name":"F4","midi":65,"time":410.11458333333235,"velocity":0.7637795275590551,"duration":0.12369791666668561},{"name":"D#4","midi":63,"time":410.23958333333235,"velocity":0.7637795275590551,"duration":0.12369791666668561},{"name":"D4","midi":62,"time":410.36458333333235,"velocity":0.7637795275590551,"duration":0.12369791666668561},{"name":"D#4","midi":63,"time":410.48958333333235,"velocity":0.7637795275590551,"duration":0.24869791666668561},{"name":"F#3","midi":54,"time":410.48958333333235,"velocity":0.7637795275590551,"duration":0.4986979166666856},{"name":"C4","midi":60,"time":410.73958333333235,"velocity":0.7637795275590551,"duration":0.24869791666668561},{"name":"G4","midi":67,"time":410.98958333333235,"velocity":0.7637795275590551,"duration":1.2486979166666856},{"name":"B3","midi":59,"time":410.98958333333235,"velocity":0.7637795275590551,"duration":1.3671875},{"name":"D4","midi":62,"time":410.98958333333235,"velocity":0.7637795275590551,"duration":1.3671875},{"name":"G3","midi":55,"time":410.98958333333235,"velocity":0.7637795275590551,"duration":1.3671875},{"name":"D5","midi":74,"time":412.23958333333235,"velocity":0.7637795275590551,"duration":0.24869791666668561},{"name":"D5","midi":74,"time":412.48958333333235,"velocity":0.7637795275590551,"duration":0.6236979166666856},{"name":"B4","midi":71,"time":412.48958333333235,"velocity":0.7637795275590551,"duration":0.9986979166666856},{"name":"G4","midi":67,"time":412.48958333333235,"velocity":0.7637795275590551,"duration":0.7486979166666856},{"name":"G3","midi":55,"time":412.98958333333235,"velocity":0.7637795275590551,"duration":2.4986979166667425},{"name":"G5","midi":79,"time":413.11458333333235,"velocity":0.7637795275590551,"duration":0.12369791666668561},{"name":"F5","midi":77,"time":413.23958333333235,"velocity":0.7637795275590551,"duration":0.12369791666668561},{"name":"A3","midi":57,"time":413.23958333333235,"velocity":0.7637795275590551,"duration":0.24869791666668561},{"name":"D#5","midi":75,"time":413.36458333333235,"velocity":0.7637795275590551,"duration":0.12369791666668561},{"name":"D5","midi":74,"time":413.48958333333235,"velocity":0.7637795275590551,"duration":0.24869791666668561},{"name":"B3","midi":59,"time":413.48958333333235,"velocity":0.7637795275590551,"duration":0.24869791666668561},{"name":"C5","midi":72,"time":413.73958333333235,"velocity":0.7637795275590551,"duration":0.24869791666668561},{"name":"C4","midi":60,"time":413.73958333333235,"velocity":0.7637795275590551,"duration":0.24869791666668561},{"name":"B4","midi":71,"time":413.98958333333235,"velocity":0.7637795275590551,"duration":0.24869791666668561},{"name":"D4","midi":62,"time":413.98958333333235,"velocity":0.7637795275590551,"duration":0.24869791666668561},{"name":"C5","midi":72,"time":414.23958333333235,"velocity":0.7637795275590551,"duration":0.12369791666668561},{"name":"D#4","midi":63,"time":414.23958333333235,"velocity":0.7637795275590551,"duration":0.24869791666668561},{"name":"D5","midi":74,"time":414.36458333333235,"velocity":0.7637795275590551,"duration":0.12369791666668561},{"name":"G#4","midi":68,"time":414.48958333333235,"velocity":0.7637795275590551,"duration":0.078125},{"name":"F4","midi":65,"time":414.48958333333235,"velocity":0.7637795275590551,"duration":0.24739583333342807},{"name":"G4","midi":67,"time":414.56119791666566,"velocity":0.7637795275590551,"duration":0.07812500000005684},{"name":"G#4","midi":68,"time":414.63281249999903,"velocity":0.7637795275590551,"duration":0.07812500000005684},{"name":"G4","midi":67,"time":414.7044270833324,"velocity":0.7637795275590551,"duration":0.5208333333333712},{"name":"D4","midi":62,"time":414.73958333333246,"velocity":0.7637795275590551,"duration":0.24869791666668561},{"name":"D#4","midi":63,"time":414.98958333333246,"velocity":0.7637795275590551,"duration":0.24869791666662877},{"name":"G4","midi":67,"time":415.2395833333324,"velocity":0.7637795275590551,"duration":0.24869791666668561},{"name":"F4","midi":65,"time":415.2395833333324,"velocity":0.7637795275590551,"duration":0.24869791666668561},{"name":"G4","midi":67,"time":415.4895833333324,"velocity":0.7637795275590551,"duration":0.5859374999999432},{"name":"F5","midi":77,"time":415.4895833333324,"velocity":0.7637795275590551,"duration":1.248697916666572},{"name":"D5","midi":74,"time":415.4895833333324,"velocity":0.7637795275590551,"duration":0.9986979166665719},{"name":"C4","midi":60,"time":415.4895833333324,"velocity":0.7637795275590551,"duration":0.12369791666662877},{"name":"G3","midi":55,"time":415.4895833333324,"velocity":0.7637795275590551,"duration":0.6236979166666288},{"name":"B3","midi":59,"time":415.6002604166657,"velocity":0.7637795275590551,"duration":0.12369791666662877},{"name":"C4","midi":60,"time":415.71093749999903,"velocity":0.7637795275590551,"duration":0.12369791666662877},{"name":"B3","midi":59,"time":415.82161458333235,"velocity":0.7637795275590551,"duration":0.3645833333333144},{"name":"G4","midi":67,"time":416.11458333333235,"velocity":0.7637795275590551,"duration":0.12369791666662877},{"name":"F4","midi":65,"time":416.2395833333323,"velocity":0.7637795275590551,"duration":0.12369791666668561},{"name":"D#4","midi":63,"time":416.3645833333323,"velocity":0.7637795275590551,"duration":0.12369791666668561},{"name":"D4","midi":62,"time":416.4895833333323,"velocity":0.7637795275590551,"duration":0.24869791666668561},{"name":"G#5","midi":80,"time":416.7395833333323,"velocity":0.7637795275590551,"duration":0.24869791666668561},{"name":"C4","midi":60,"time":416.7395833333323,"velocity":0.7637795275590551,"duration":0.24869791666668561},{"name":"G5","midi":79,"time":416.9895833333323,"velocity":0.7637795275590551,"duration":0.24869791666668561},{"name":"B3","midi":59,"time":416.9895833333323,"velocity":0.7637795275590551,"duration":0.24869791666668561},{"name":"F5","midi":77,"time":417.2395833333323,"velocity":0.7637795275590551,"duration":0.24869791666668561},{"name":"C4","midi":60,"time":417.2395833333323,"velocity":0.7637795275590551,"duration":0.12369791666668561},{"name":"D4","midi":62,"time":417.3645833333323,"velocity":0.7637795275590551,"duration":0.12369791666668561},{"name":"D#5","midi":75,"time":417.4895833333323,"velocity":0.7637795275590551,"duration":0.24869791666668561},{"name":"G#3","midi":56,"time":417.4895833333323,"velocity":0.7637795275590551,"duration":0.12369791666668561},{"name":"G3","midi":55,"time":417.6145833333323,"velocity":0.7637795275590551,"duration":0.061197916666685614},{"name":"G#3","midi":56,"time":417.6770833333323,"velocity":0.7637795275590551,"duration":0.061197916666685614},{"name":"D5","midi":74,"time":417.7395833333323,"velocity":0.7637795275590551,"duration":0.24869791666668561},{"name":"G3","midi":55,"time":417.7395833333323,"velocity":0.7637795275590551,"duration":0.4986979166666856},{"name":"C5","midi":72,"time":417.9895833333323,"velocity":0.7637795275590551,"duration":0.24869791666668561},{"name":"B4","midi":71,"time":418.2395833333323,"velocity":0.7637795275590551,"duration":0.24739583333331439},{"name":"G3","midi":55,"time":418.2395833333323,"velocity":0.7637795275590551,"duration":0.24869791666662877},{"name":"C5","midi":72,"time":418.48958333333223,"velocity":0.7637795275590551,"duration":0.7486979166666856},{"name":"G#3","midi":56,"time":418.48958333333223,"velocity":0.7637795275590551,"duration":0.4986979166666856},{"name":"D#5","midi":75,"time":418.61458333333223,"velocity":0.7637795275590551,"duration":0.12369791666668561},{"name":"F5","midi":77,"time":418.73958333333223,"velocity":0.7637795275590551,"duration":0.12369791666668561},{"name":"G5","midi":79,"time":418.86458333333223,"velocity":0.7637795275590551,"duration":0.12369791666668561},{"name":"G#5","midi":80,"time":418.98958333333223,"velocity":0.7637795275590551,"duration":0.4986979166666856},{"name":"D3","midi":50,"time":418.98958333333223,"velocity":0.7637795275590551,"duration":0.4986979166666856},{"name":"F5","midi":77,"time":419.23958333333223,"velocity":0.7637795275590551,"duration":0.4986979166666856},{"name":"G5","midi":79,"time":419.48958333333223,"velocity":0.7637795275590551,"duration":0.9986979166666856},{"name":"D#3","midi":51,"time":419.48958333333223,"velocity":0.7637795275590551,"duration":0.4986979166666856},{"name":"F5","midi":77,"time":419.73958333333223,"velocity":0.7637795275590551,"duration":0.12369791666668561},{"name":"D#5","midi":75,"time":419.86458333333223,"velocity":0.7637795275590551,"duration":0.12369791666668561},{"name":"D5","midi":74,"time":419.98958333333223,"velocity":0.7637795275590551,"duration":0.12369791666668561},{"name":"F3","midi":53,"time":419.98958333333223,"velocity":0.7637795275590551,"duration":0.4986979166666856},{"name":"D#5","midi":75,"time":420.11458333333223,"velocity":0.7637795275590551,"duration":0.12369791666668561},{"name":"F5","midi":77,"time":420.23958333333223,"velocity":0.7637795275590551,"duration":0.24869791666668561},{"name":"B4","midi":71,"time":420.48958333333223,"velocity":0.7637795275590551,"duration":0.9986979166666856},{"name":"G3","midi":55,"time":420.48958333333223,"velocity":0.7637795275590551,"duration":0.9986979166666856},{"name":"D5","midi":74,"time":420.73958333333223,"velocity":0.7637795275590551,"duration":0.24869791666668561},{"name":"F5","midi":77,"time":420.98958333333223,"velocity":0.7637795275590551,"duration":0.24869791666668561},{"name":"G2","midi":43,"time":420.98958333333223,"velocity":0.7637795275590551,"duration":0.4986979166666856},{"name":"G5","midi":79,"time":421.23958333333223,"velocity":0.7637795275590551,"duration":0.24869791666668561},{"name":"F5","midi":77,"time":421.48958333333223,"velocity":0.7637795275590551,"duration":0.24869791666668561},{"name":"C5","midi":72,"time":421.48958333333223,"velocity":0.7637795275590551,"duration":0.7421875},{"name":"G3","midi":55,"time":421.48958333333223,"velocity":0.7637795275590551,"duration":0.4947916666666856},{"name":"C3","midi":48,"time":421.48958333333223,"velocity":0.7637795275590551,"duration":0.6236979166666856},{"name":"D#5","midi":75,"time":421.73958333333223,"velocity":0.7637795275590551,"duration":0.24869791666668561},{"name":"D5","midi":74,"time":421.98958333333223,"velocity":0.7637795275590551,"duration":0.24869791666668561},{"name":"G2","midi":43,"time":422.11458333333223,"velocity":0.7637795275590551,"duration":0.12369791666668561},{"name":"C5","midi":72,"time":422.23958333333223,"velocity":0.7637795275590551,"duration":0.24869791666668561},{"name":"A2","midi":45,"time":422.23958333333223,"velocity":0.7637795275590551,"duration":0.12369791666668561},{"name":"B2","midi":47,"time":422.36458333333223,"velocity":0.7637795275590551,"duration":0.12369791666668561},{"name":"D#5","midi":75,"time":422.48958333333223,"velocity":0.7637795275590551,"duration":0.08203125},{"name":"C3","midi":48,"time":422.48958333333223,"velocity":0.7637795275590551,"duration":0.24869791666662877},{"name":"D5","midi":74,"time":422.57291666666555,"velocity":0.7637795275590551,"duration":0.08203125},{"name":"D#5","midi":75,"time":422.65624999999886,"velocity":0.7637795275590551,"duration":0.5729166666666288},{"name":"D3","midi":50,"time":422.7395833333322,"velocity":0.7637795275590551,"duration":0.24869791666668561},{"name":"D#3","midi":51,"time":422.9895833333322,"velocity":0.7637795275590551,"duration":0.24869791666662877},{"name":"D#5","midi":75,"time":423.2395833333321,"velocity":0.7637795275590551,"duration":0.24869791666668561},{"name":"C3","midi":48,"time":423.2395833333321,"velocity":0.7637795275590551,"duration":0.24869791666668561},{"name":"G4","midi":67,"time":423.4895833333321,"velocity":0.7637795275590551,"duration":0.7486979166666856},{"name":"A#3","midi":58,"time":423.4895833333321,"velocity":0.7637795275590551,"duration":0.7486979166666856},{"name":"C4","midi":60,"time":423.7395833333321,"velocity":0.7637795275590551,"duration":0.24869791666668561},{"name":"C#4","midi":61,"time":423.9895833333321,"velocity":0.7637795275590551,"duration":0.6236979166666856},{"name":"G#4","midi":68,"time":424.2395833333321,"velocity":0.7637795275590551,"duration":0.24869791666668561},{"name":"G#3","midi":56,"time":424.2395833333321,"velocity":0.7637795275590551,"duration":0.24869791666668561},{"name":"A#4","midi":70,"time":424.4895833333321,"velocity":0.7637795275590551,"duration":1.1236979166666856},{"name":"G3","midi":55,"time":424.4895833333321,"velocity":0.7637795275590551,"duration":0.7486979166666856},{"name":"C#4","midi":61,"time":424.6145833333321,"velocity":0.7637795275590551,"duration":0.12369791666668561},{"name":"C4","midi":60,"time":424.7395833333321,"velocity":0.7637795275590551,"duration":0.12369791666668561},{"name":"A#3","midi":58,"time":424.8645833333321,"velocity":0.7637795275590551,"duration":0.12369791666668561},{"name":"E4","midi":64,"time":424.9895833333321,"velocity":0.7637795275590551,"duration":0.24869791666668561},{"name":"F4","midi":65,"time":425.2395833333321,"velocity":0.7637795275590551,"duration":0.24869791666668561},{"name":"F3","midi":53,"time":425.2395833333321,"velocity":0.7637795275590551,"duration":0.24869791666668561},{"name":"G4","midi":67,"time":425.4895833333321,"velocity":0.7637795275590551,"duration":0.9986979166666856},{"name":"E3","midi":52,"time":425.4895833333321,"velocity":0.7637795275590551,"duration":0.24869791666668561},{"name":"C#5","midi":73,"time":425.6145833333321,"velocity":0.7637795275590551,"duration":0.12369791666668561},{"name":"C5","midi":72,"time":425.7395833333321,"velocity":0.7637795275590551,"duration":0.12369791666668561},{"name":"F3","midi":53,"time":425.7395833333321,"velocity":0.7637795275590551,"duration":0.24869791666668561},{"name":"A#4","midi":70,"time":425.8645833333321,"velocity":0.7637795275590551,"duration":0.12369791666668561},{"name":"E5","midi":76,"time":425.9895833333321,"velocity":0.7637795275590551,"duration":0.24869791666668561},{"name":"G3","midi":55,"time":425.9895833333321,"velocity":0.7637795275590551,"duration":0.24869791666668561},{"name":"F5","midi":77,"time":426.2395833333321,"velocity":0.7637795275590551,"duration":0.24869791666668561},{"name":"G#3","midi":56,"time":426.2395833333321,"velocity":0.7637795275590551,"duration":0.24869791666668561},{"name":"G5","midi":79,"time":426.4895833333321,"velocity":0.7637795275590551,"duration":0.7486979166666856},{"name":"A#3","midi":58,"time":426.4895833333321,"velocity":0.7637795275590551,"duration":0.24869791666668561},{"name":"A#4","midi":70,"time":426.7395833333321,"velocity":0.7637795275590551,"duration":0.24869791666668561},{"name":"C#4","midi":61,"time":426.7395833333321,"velocity":0.7637795275590551,"duration":0.24869791666668561},{"name":"E5","midi":76,"time":426.9895833333321,"velocity":0.7637795275590551,"duration":0.4986979166666856},{"name":"C4","midi":60,"time":426.9895833333321,"velocity":0.7637795275590551,"duration":0.24869791666668561},{"name":"G5","midi":79,"time":427.2395833333321,"velocity":0.7637795275590551,"duration":0.3736979166666856},{"name":"A#3","midi":58,"time":427.2395833333321,"velocity":0.7637795275590551,"duration":0.24869791666668561},{"name":"C5","midi":72,"time":427.4895833333321,"velocity":0.7637795275590551,"duration":0.9986979166666856},{"name":"G#3","midi":56,"time":427.4895833333321,"velocity":0.7637795275590551,"duration":0.24869791666668561},{"name":"G5","midi":79,"time":427.6145833333321,"velocity":0.7637795275590551,"duration":0.12369791666668561},{"name":"F5","midi":77,"time":427.7395833333321,"velocity":0.7637795275590551,"duration":0.12369791666668561},{"name":"C4","midi":60,"time":427.7395833333321,"velocity":0.7637795275590551,"duration":0.24869791666668561},{"name":"E5","midi":76,"time":427.8645833333321,"velocity":0.7637795275590551,"duration":0.12369791666668561},{"name":"F5","midi":77,"time":427.9895833333321,"velocity":0.7637795275590551,"duration":0.12369791666668561},{"name":"G#3","midi":56,"time":427.9895833333321,"velocity":0.7637795275590551,"duration":0.24869791666668561},{"name":"G5","midi":79,"time":428.1145833333321,"velocity":0.7637795275590551,"duration":0.12369791666668561},{"name":"G#5","midi":80,"time":428.2395833333321,"velocity":0.7637795275590551,"duration":0.12369791666668561},{"name":"F3","midi":53,"time":428.2395833333321,"velocity":0.7637795275590551,"duration":0.24869791666668561},{"name":"F5","midi":77,"time":428.3645833333321,"velocity":0.7637795275590551,"duration":0.12369791666668561},{"name":"A#5","midi":82,"time":428.4895833333321,"velocity":0.7637795275590551,"duration":0.7486979166666856},{"name":"C#3","midi":49,"time":428.4895833333321,"velocity":0.7637795275590551,"duration":0.4986979166666856},{"name":"E5","midi":76,"time":428.7395833333321,"velocity":0.7637795275590551,"duration":0.24869791666668561},{"name":"F5","midi":77,"time":428.9895833333321,"velocity":0.7637795275590551,"duration":0.7486979166666856},{"name":"A#2","midi":46,"time":428.9895833333321,"velocity":0.7637795275590551,"duration":0.4986979166666856},{"name":"G#5","midi":80,"time":429.2395833333321,"velocity":0.7637795275590551,"duration":0.24869791666668561},{"name":"G5","midi":79,"time":429.4895833333321,"velocity":0.7637795275590551,"duration":0.7486979166666856},{"name":"C3","midi":48,"time":429.4895833333321,"velocity":0.7637795275590551,"duration":0.4986979166666856},{"name":"F5","midi":77,"time":429.7395833333321,"velocity":0.7637795275590551,"duration":0.24869791666668561},{"name":"E5","midi":76,"time":429.9895833333321,"velocity":0.7637795275590551,"duration":0.4986979166666856},{"name":"C2","midi":36,"time":429.9895833333321,"velocity":0.7637795275590551,"duration":0.4986979166666856},{"name":"C6","midi":84,"time":430.2395833333321,"velocity":0.7637795275590551,"duration":0.24869791666668561},{"name":"A#5","midi":82,"time":430.4895833333321,"velocity":0.7637795275590551,"duration":0.24869791666668561},{"name":"F5","midi":77,"time":430.4895833333321,"velocity":0.7637795275590551,"duration":0.4947916666666856},{"name":"F2","midi":41,"time":430.4895833333321,"velocity":0.7637795275590551,"duration":1.1236979166666856},{"name":"G#5","midi":80,"time":430.7343749999988,"velocity":0.7637795275590551,"duration":0.24869791666668561},{"name":"G5","midi":79,"time":430.9791666666655,"velocity":0.7637795275590551,"duration":0.24869791666662877},{"name":"F5","midi":77,"time":431.2239583333321,"velocity":0.7637795275590551,"duration":0.20833333333331439},{"name":"D#5","midi":75,"time":431.4895833333321,"velocity":0.7637795275590551,"duration":0.4986979166666856},{"name":"A#3","midi":58,"time":431.6145833333321,"velocity":0.7637795275590551,"duration":0.12369791666668561},{"name":"G#3","midi":56,"time":431.7395833333321,"velocity":0.7637795275590551,"duration":0.12369791666668561},{"name":"G3","midi":55,"time":431.8645833333321,"velocity":0.7637795275590551,"duration":0.12369791666668561},{"name":"D#5","midi":75,"time":431.9895833333321,"velocity":0.7637795275590551,"duration":0.08203125},{"name":"F3","midi":53,"time":431.9895833333321,"velocity":0.7637795275590551,"duration":0.24869791666662877},{"name":"D5","midi":74,"time":432.07291666666544,"velocity":0.7637795275590551,"duration":0.08203125},{"name":"D#5","midi":75,"time":432.15624999999875,"velocity":0.7637795275590551,"duration":0.08203125},{"name":"D5","midi":74,"time":432.23958333333206,"velocity":0.7637795275590551,"duration":0.12369791666668561},{"name":"D#3","midi":51,"time":432.23958333333206,"velocity":0.7637795275590551,"duration":0.24869791666668561},{"name":"D#5","midi":75,"time":432.36458333333206,"velocity":0.7637795275590551,"duration":0.12369791666668561},{"name":"F5","midi":77,"time":432.48958333333206,"velocity":0.7637795275590551,"duration":1.1236979166666856},{"name":"D3","midi":50,"time":432.48958333333206,"velocity":0.7637795275590551,"duration":0.4986979166666856},{"name":"A#4","midi":70,"time":432.61458333333206,"velocity":0.7637795275590551,"duration":0.12369791666668561},{"name":"G#4","midi":68,"time":432.73958333333206,"velocity":0.7637795275590551,"duration":0.12369791666668561},{"name":"G4","midi":67,"time":432.86458333333206,"velocity":0.7637795275590551,"duration":0.12369791666668561},{"name":"G#4","midi":68,"time":432.98958333333206,"velocity":0.7637795275590551,"duration":0.24869791666668561},{"name":"A#2","midi":46,"time":432.98958333333206,"velocity":0.7637795275590551,"duration":0.4986979166666856},{"name":"F4","midi":65,"time":433.23958333333206,"velocity":0.7637795275590551,"duration":0.24869791666668561},{"name":"G4","midi":67,"time":433.48958333333206,"velocity":0.7637795275590551,"duration":1.6236979166666856},{"name":"D#3","midi":51,"time":433.48958333333206,"velocity":0.7637795275590551,"duration":0.625},{"name":"A#4","midi":70,"time":433.61458333333206,"velocity":0.7637795275590551,"duration":0.12369791666668561},{"name":"C5","midi":72,"time":433.73958333333206,"velocity":0.7637795275590551,"duration":0.12369791666668561},{"name":"D5","midi":74,"time":433.86458333333206,"velocity":0.7637795275590551,"duration":0.12369791666668561},{"name":"D#5","midi":75,"time":433.98958333333206,"velocity":0.7637795275590551,"duration":0.6236979166666856},{"name":"G2","midi":43,"time":434.11458333333206,"velocity":0.7637795275590551,"duration":0.12369791666668561},{"name":"A2","midi":45,"time":434.23958333333206,"velocity":0.7637795275590551,"duration":0.12369791666668561},{"name":"B2","midi":47,"time":434.36458333333206,"velocity":0.7637795275590551,"duration":0.12369791666668561},{"name":"C3","midi":48,"time":434.48958333333206,"velocity":0.7637795275590551,"duration":0.24869791666668561},{"name":"D5","midi":74,"time":434.61458333333206,"velocity":0.7637795275590551,"duration":0.12369791666668561},{"name":"D#5","midi":75,"time":434.73958333333206,"velocity":0.7637795275590551,"duration":0.12369791666668561},{"name":"D3","midi":50,"time":434.73958333333206,"velocity":0.7637795275590551,"duration":0.24869791666668561},{"name":"F5","midi":77,"time":434.86458333333206,"velocity":0.7637795275590551,"duration":0.12369791666668561},{"name":"G5","midi":79,"time":434.98958333333206,"velocity":0.7637795275590551,"duration":0.9986979166666856},{"name":"D#3","midi":51,"time":434.98958333333206,"velocity":0.7637795275590551,"duration":0.24869791666668561},{"name":"F5","midi":77,"time":435.11458333333206,"velocity":0.7637795275590551,"duration":0.12369791666668561},{"name":"D#5","midi":75,"time":435.23958333333206,"velocity":0.7637795275590551,"duration":0.12369791666668561},{"name":"C3","midi":48,"time":435.23958333333206,"velocity":0.7637795275590551,"duration":0.24869791666668561},{"name":"D5","midi":74,"time":435.36458333333206,"velocity":0.7637795275590551,"duration":0.12369791666668561},{"name":"D#5","midi":75,"time":435.48958333333206,"velocity":0.7637795275590551,"duration":0.24869791666668561},{"name":"G#3","midi":56,"time":435.48958333333206,"velocity":0.7637795275590551,"duration":0.7486979166666856},{"name":"C5","midi":72,"time":435.73958333333206,"velocity":0.7637795275590551,"duration":0.4986979166666856},{"name":"F5","midi":77,"time":435.98958333333206,"velocity":0.7637795275590551,"duration":0.6236979166666856},{"name":"D5","midi":74,"time":436.23958333333206,"velocity":0.7637795275590551,"duration":0.24869791666668561},{"name":"G#3","midi":56,"time":436.23958333333206,"velocity":0.7637795275590551,"duration":0.24869791666668561},{"name":"B4","midi":71,"time":436.48958333333206,"velocity":0.7637795275590551,"duration":0.9986979166666856},{"name":"G3","midi":55,"time":436.48958333333206,"velocity":0.7637795275590551,"duration":3.1236979166666856},{"name":"G#5","midi":80,"time":436.61458333333206,"velocity":0.7637795275590551,"duration":0.12369791666668561},{"name":"G5","midi":79,"time":436.73958333333206,"velocity":0.7637795275590551,"duration":0.12369791666668561},{"name":"F5","midi":77,"time":436.86458333333206,"velocity":0.7637795275590551,"duration":0.12369791666668561},{"name":"G5","midi":79,"time":436.98958333333206,"velocity":0.7637795275590551,"duration":0.24869791666668561},{"name":"D4","midi":62,"time":436.98958333333206,"velocity":0.7637795275590551,"duration":0.4986979166666856},{"name":"D5","midi":74,"time":437.23958333333206,"velocity":0.7637795275590551,"duration":0.24869791666668561},{"name":"D#5","midi":75,"time":437.48958333333206,"velocity":0.7637795275590551,"duration":0.24869791666668561},{"name":"C5","midi":72,"time":437.48958333333206,"velocity":0.7637795275590551,"duration":0.4986979166666856},{"name":"G4","midi":67,"time":437.48958333333206,"velocity":0.7637795275590551,"duration":0.4986979166666856},{"name":"F5","midi":77,"time":437.73958333333206,"velocity":0.7637795275590551,"duration":0.12369791666668561},{"name":"G5","midi":79,"time":437.86458333333206,"velocity":0.7637795275590551,"duration":0.12369791666668561},{"name":"C5","midi":72,"time":437.98958333333206,"velocity":0.7637795275590551,"duration":0.24869791666668561},{"name":"A4","midi":69,"time":437.98958333333206,"velocity":0.7637795275590551,"duration":0.4986979166666856},{"name":"D#4","midi":63,"time":437.98958333333206,"velocity":0.7637795275590551,"duration":0.4986979166666856},{"name":"D#5","midi":75,"time":438.23958333333206,"velocity":0.7637795275590551,"duration":0.4986979166666856},{"name":"F#4","midi":66,"time":438.48958333333206,"velocity":0.7637795275590551,"duration":0.9986979166666856},{"name":"C4","midi":60,"time":438.48958333333206,"velocity":0.7637795275590551,"duration":0.4986979166666856},{"name":"D#5","midi":75,"time":438.73958333333206,"velocity":0.7637795275590551,"duration":0.24869791666668561},{"name":"D5","midi":74,"time":438.98958333333206,"velocity":0.7637795275590551,"duration":0.24869791666668561},{"name":"A3","midi":57,"time":438.98958333333206,"velocity":0.7637795275590551,"duration":0.4986979166666856},{"name":"C5","midi":72,"time":439.23958333333206,"velocity":0.7637795275590551,"duration":0.24869791666668561},{"name":"C5","midi":72,"time":439.48958333333206,"velocity":0.7637795275590551,"duration":0.12369791666668561},{"name":"G4","midi":67,"time":439.48958333333206,"velocity":0.7637795275590551,"duration":0.9986979166666856},{"name":"D4","midi":62,"time":439.48958333333206,"velocity":0.7637795275590551,"duration":0.9986979166666856},{"name":"B4","midi":71,"time":439.61458333333206,"velocity":0.7637795275590551,"duration":0.061197916666685614},{"name":"G3","midi":55,"time":439.61458333333206,"velocity":0.7637795275590551,"duration":0.12369791666668561},{"name":"C5","midi":72,"time":439.67708333333206,"velocity":0.7637795275590551,"duration":0.061197916666685614},{"name":"B4","midi":71,"time":439.73958333333206,"velocity":0.7637795275590551,"duration":0.061197916666685614},{"name":"F3","midi":53,"time":439.73958333333206,"velocity":0.7637795275590551,"duration":0.12369791666668561},{"name":"C5","midi":72,"time":439.80208333333206,"velocity":0.7637795275590551,"duration":0.061197916666685614},{"name":"B4","midi":71,"time":439.86458333333206,"velocity":0.7637795275590551,"duration":0.3736979166666856},{"name":"D#3","midi":51,"time":439.86458333333206,"velocity":0.7637795275590551,"duration":0.12369791666668561},{"name":"F3","midi":53,"time":439.98958333333206,"velocity":0.7637795275590551,"duration":0.24869791666668561},{"name":"C5","midi":72,"time":440.23958333333206,"velocity":0.7637795275590551,"duration":0.24869791666668561},{"name":"D3","midi":50,"time":440.23958333333206,"velocity":0.7637795275590551,"duration":0.24869791666668561},{"name":"D5","midi":74,"time":440.48958333333206,"velocity":0.7637795275590551,"duration":1.1236979166666856},{"name":"B2","midi":47,"time":440.48958333333206,"velocity":0.7637795275590551,"duration":0.9986979166666856},{"name":"G4","midi":67,"time":440.73958333333206,"velocity":0.7637795275590551,"duration":0.24869791666668561},{"name":"D4","midi":62,"time":440.98958333333206,"velocity":0.7637795275590551,"duration":0.24869791666668561},{"name":"G3","midi":55,"time":440.98958333333206,"velocity":0.7637795275590551,"duration":0.9986979166666856},{"name":"F4","midi":65,"time":441.23958333333206,"velocity":0.7637795275590551,"duration":0.24869791666668561},{"name":"D#4","midi":63,"time":441.48958333333206,"velocity":0.7637795275590551,"duration":1.2486979166666856},{"name":"C3","midi":48,"time":441.48958333333206,"velocity":0.7637795275590551,"duration":0.9986979166666856},{"name":"C5","midi":72,"time":441.61458333333206,"velocity":0.7637795275590551,"duration":0.12369791666668561},{"name":"A#4","midi":70,"time":441.73958333333206,"velocity":0.7637795275590551,"duration":0.12369791666668561},{"name":"G#4","midi":68,"time":441.86458333333206,"velocity":0.7637795275590551,"duration":0.12369791666668561},{"name":"A#4","midi":70,"time":441.98958333333206,"velocity":0.7637795275590551,"duration":0.24869791666668561},{"name":"C4","midi":60,"time":441.98958333333206,"velocity":0.7637795275590551,"duration":0.9986979166666856},{"name":"G4","midi":67,"time":442.23958333333206,"velocity":0.7637795275590551,"duration":0.24869791666668561},{"name":"G#4","midi":68,"time":442.48958333333206,"velocity":0.7637795275590551,"duration":0.12369791666668561},{"name":"F3","midi":53,"time":442.48958333333206,"velocity":0.7637795275590551,"duration":0.7486979166666856},{"name":"G4","midi":67,"time":442.61458333333206,"velocity":0.7637795275590551,"duration":0.12369791666668561},{"name":"F4","midi":65,"time":442.73958333333206,"velocity":0.7637795275590551,"duration":0.12369791666668561},{"name":"G#3","midi":56,"time":442.73958333333206,"velocity":0.7637795275590551,"duration":0.24869791666668561},{"name":"E4","midi":64,"time":442.86458333333206,"velocity":0.7637795275590551,"duration":0.12369791666668561},{"name":"F4","midi":65,"time":442.98958333333206,"velocity":0.7637795275590551,"duration":0.24869791666668561},{"name":"D4","midi":62,"time":442.98958333333206,"velocity":0.7637795275590551,"duration":0.4947916666666856},{"name":"G#3","midi":56,"time":442.98958333333206,"velocity":0.7637795275590551,"duration":0.4986979166666856},{"name":"B4","midi":71,"time":443.23958333333206,"velocity":0.7637795275590551,"duration":0.24869791666668561},{"name":"D3","midi":50,"time":443.23958333333206,"velocity":0.7637795275590551,"duration":0.24869791666668561},{"name":"C5","midi":72,"time":443.48958333333206,"velocity":0.7637795275590551,"duration":0.24869791666668561},{"name":"G3","midi":55,"time":443.48958333333206,"velocity":0.7637795275590551,"duration":0.4986979166666856},{"name":"D#3","midi":51,"time":443.48958333333206,"velocity":0.7637795275590551,"duration":0.4986979166666856},{"name":"G4","midi":67,"time":443.73958333333206,"velocity":0.7637795275590551,"duration":0.24869791666668561},{"name":"C4","midi":60,"time":443.73958333333206,"velocity":0.7637795275590551,"duration":0.7486979166666856},{"name":"F5","midi":77,"time":443.98958333333206,"velocity":0.7637795275590551,"duration":0.12369791666668561},{"name":"G#3","midi":56,"time":443.98958333333206,"velocity":0.7637795275590551,"duration":0.4986979166666856},{"name":"D#5","midi":75,"time":444.11458333333206,"velocity":0.7637795275590551,"duration":0.12369791666668561},{"name":"D5","midi":74,"time":444.23958333333206,"velocity":0.7637795275590551,"duration":0.24869791666668561},{"name":"F3","midi":53,"time":444.23958333333206,"velocity":0.7637795275590551,"duration":0.24869791666668561},{"name":"D#5","midi":75,"time":444.48958333333206,"velocity":0.7637795275590551,"duration":0.08463541666662877},{"name":"B4","midi":71,"time":444.48958333333206,"velocity":0.7637795275590551,"duration":0.9986979166666288},{"name":"G3","midi":55,"time":444.48958333333206,"velocity":0.7637795275590551,"duration":0.9986979166666288},{"name":"D5","midi":74,"time":444.5729166666654,"velocity":0.7637795275590551,"duration":0.08463541666662877},{"name":"D#5","midi":75,"time":444.6562499999987,"velocity":0.7637795275590551,"duration":0.08463541666662877},{"name":"D5","midi":74,"time":444.739583333332,"velocity":0.7637795275590551,"duration":0.4947916666666856},{"name":"G2","midi":43,"time":444.989583333332,"velocity":0.7637795275590551,"duration":0.4986979166666856},{"name":"C5","midi":72,"time":445.239583333332,"velocity":0.7637795275590551,"duration":0.24869791666668561},{"name":"C5","midi":72,"time":445.489583333332,"velocity":0.7637795275590551,"duration":1.4986979166666856},{"name":"C2","midi":36,"time":445.489583333332,"velocity":0.7637795275590551,"duration":3.75},{"name":"G2","midi":43,"time":445.989583333332,"velocity":0.7637795275590551,"duration":3.2421875},{"name":"A#4","midi":70,"time":446.114583333332,"velocity":0.7637795275590551,"duration":0.12369791666668561},{"name":"G#4","midi":68,"time":446.239583333332,"velocity":0.7637795275590551,"duration":0.12369791666668561},{"name":"G4","midi":67,"time":446.364583333332,"velocity":0.7637795275590551,"duration":0.12369791666668561},{"name":"G#4","midi":68,"time":446.489583333332,"velocity":0.7637795275590551,"duration":0.24869791666668561},{"name":"B2","midi":47,"time":446.489583333332,"velocity":0.7637795275590551,"duration":0.4986979166666856},{"name":"F4","midi":65,"time":446.739583333332,"velocity":0.7637795275590551,"duration":0.24869791666668561},{"name":"C5","midi":72,"time":446.989583333332,"velocity":0.7637795275590551,"duration":2.2526041666666856},{"name":"G4","midi":67,"time":446.989583333332,"velocity":0.7637795275590551,"duration":2.2526041666666856},{"name":"D#4","midi":63,"time":446.989583333332,"velocity":0.7637795275590551,"duration":2.2526041666666856},{"name":"C3","midi":48,"time":446.989583333332,"velocity":0.7637795275590551,"duration":2.2526041666666856},{"name":"G4","midi":67,"time":452.489583333332,"velocity":0.7637795275590551,"duration":0.4947916666666856},{"name":"C3","midi":48,"time":452.489583333332,"velocity":0.7637795275590551,"duration":0.4986979166666856},{"name":"C5","midi":72,"time":452.739583333332,"velocity":0.7637795275590551,"duration":0.24869791666668561},{"name":"D5","midi":74,"time":452.989583333332,"velocity":0.7637795275590551,"duration":0.24869791666668561},{"name":"C4","midi":60,"time":452.989583333332,"velocity":0.7637795275590551,"duration":0.7486979166666856},{"name":"D#5","midi":75,"time":453.239583333332,"velocity":0.7637795275590551,"duration":0.24869791666668561},{"name":"F4","midi":65,"time":453.489583333332,"velocity":0.7637795275590551,"duration":0.4947916666666856},{"name":"D#5","midi":75,"time":453.739583333332,"velocity":0.7637795275590551,"duration":0.24869791666668561},{"name":"A#3","midi":58,"time":453.739583333332,"velocity":0.7637795275590551,"duration":0.24869791666668561},{"name":"D5","midi":74,"time":453.989583333332,"velocity":0.7637795275590551,"duration":0.6901041666666856},{"name":"G#3","midi":56,"time":453.989583333332,"velocity":0.7637795275590551,"duration":0.24869791666668561},{"name":"G3","midi":55,"time":454.239583333332,"velocity":0.7637795275590551,"duration":0.24869791666668561},{"name":"G#3","midi":56,"time":454.489583333332,"velocity":0.7637795275590551,"duration":0.4986979166666856},{"name":"F4","midi":65,"time":454.739583333332,"velocity":0.7637795275590551,"duration":0.24869791666668561},{"name":"G4","midi":67,"time":454.989583333332,"velocity":0.7637795275590551,"duration":0.24869791666668561},{"name":"C3","midi":48,"time":454.989583333332,"velocity":0.7637795275590551,"duration":0.4986979166666856},{"name":"G#4","midi":68,"time":455.239583333332,"velocity":0.7637795275590551,"duration":0.24869791666668561},{"name":"G4","midi":67,"time":455.489583333332,"velocity":0.7637795275590551,"duration":0.4947916666666856},{"name":"B2","midi":47,"time":455.489583333332,"velocity":0.7637795275590551,"duration":0.4986979166666856},{"name":"D5","midi":74,"time":455.739583333332,"velocity":0.7637795275590551,"duration":0.24869791666668561},{"name":"D#5","midi":75,"time":455.989583333332,"velocity":0.7637795275590551,"duration":0.24869791666668561},{"name":"G3","midi":55,"time":455.989583333332,"velocity":0.7637795275590551,"duration":0.7486979166666856},{"name":"F5","midi":77,"time":456.239583333332,"velocity":0.7637795275590551,"duration":0.24869791666668561},{"name":"D#5","midi":75,"time":456.489583333332,"velocity":0.7637795275590551,"duration":0.4947916666666856},{"name":"B4","midi":71,"time":456.739583333332,"velocity":0.7637795275590551,"duration":0.24869791666668561},{"name":"F3","midi":53,"time":456.739583333332,"velocity":0.7637795275590551,"duration":0.24869791666668561},{"name":"C5","midi":72,"time":456.989583333332,"velocity":0.7637795275590551,"duration":0.6901041666666856},{"name":"D#3","midi":51,"time":456.989583333332,"velocity":0.7637795275590551,"duration":0.24869791666668561},{"name":"D3","midi":50,"time":457.239583333332,"velocity":0.7637795275590551,"duration":0.24869791666668561},{"name":"D#3","midi":51,"time":457.489583333332,"velocity":0.7637795275590551,"duration":0.4986979166666856},{"name":"G4","midi":67,"time":457.739583333332,"velocity":0.7637795275590551,"duration":0.24869791666668561},{"name":"G#4","midi":68,"time":457.989583333332,"velocity":0.7637795275590551,"duration":0.24869791666668561},{"name":"G2","midi":43,"time":457.989583333332,"velocity":0.7637795275590551,"duration":0.4986979166666856},{"name":"A#4","midi":70,"time":458.239583333332,"velocity":0.7637795275590551,"duration":0.24869791666668561},{"name":"A4","midi":69,"time":458.489583333332,"velocity":0.7637795275590551,"duration":0.4947916666666856},{"name":"C2","midi":36,"time":458.489583333332,"velocity":0.7637795275590551,"duration":0.5729166666666856},{"name":"D#5","midi":75,"time":458.739583333332,"velocity":0.7637795275590551,"duration":0.24869791666668561},{"name":"F5","midi":77,"time":458.989583333332,"velocity":0.7637795275590551,"duration":0.24869791666668561},{"name":"C3","midi":48,"time":458.989583333332,"velocity":0.7637795275590551,"duration":0.4986979166666856},{"name":"G5","midi":79,"time":459.239583333332,"velocity":0.7637795275590551,"duration":0.24869791666668561},{"name":"B4","midi":71,"time":459.489583333332,"velocity":0.7637795275590551,"duration":0.4947916666666856},{"name":"D3","midi":50,"time":459.489583333332,"velocity":0.7637795275590551,"duration":0.7486979166666856},{"name":"F5","midi":77,"time":459.739583333332,"velocity":0.7637795275590551,"duration":0.24869791666668561},{"name":"G5","midi":79,"time":459.989583333332,"velocity":0.7637795275590551,"duration":0.24869791666668561},{"name":"D2","midi":38,"time":459.989583333332,"velocity":0.7637795275590551,"duration":0.4986979166666856},{"name":"G#5","midi":80,"time":460.239583333332,"velocity":0.7637795275590551,"duration":0.24869791666668561},{"name":"C5","midi":72,"time":460.489583333332,"velocity":0.7637795275590551,"duration":0.4947916666666856},{"name":"D#2","midi":39,"time":460.489583333332,"velocity":0.7637795275590551,"duration":0.5729166666666856},{"name":"G5","midi":79,"time":460.739583333332,"velocity":0.7637795275590551,"duration":0.24869791666668561},{"name":"F5","midi":77,"time":460.989583333332,"velocity":0.7637795275590551,"duration":0.24869791666668561},{"name":"D#3","midi":51,"time":460.989583333332,"velocity":0.7637795275590551,"duration":0.4986979166666856},{"name":"D#5","midi":75,"time":461.239583333332,"velocity":0.7637795275590551,"duration":0.24869791666668561},{"name":"D5","midi":74,"time":461.489583333332,"velocity":0.7637795275590551,"duration":0.24869791666668561},{"name":"F3","midi":53,"time":461.489583333332,"velocity":0.7637795275590551,"duration":0.24869791666668561},{"name":"D#5","midi":75,"time":461.739583333332,"velocity":0.7637795275590551,"duration":0.24869791666668561},{"name":"G3","midi":55,"time":461.739583333332,"velocity":0.7637795275590551,"duration":0.24869791666668561},{"name":"F5","midi":77,"time":461.989583333332,"velocity":0.7637795275590551,"duration":0.24869791666668561},{"name":"G#3","midi":56,"time":461.989583333332,"velocity":0.7637795275590551,"duration":0.24869791666668561},{"name":"D5","midi":74,"time":462.239583333332,"velocity":0.7637795275590551,"duration":0.24869791666668561},{"name":"F3","midi":53,"time":462.239583333332,"velocity":0.7637795275590551,"duration":0.24869791666668561},{"name":"C5","midi":72,"time":462.489583333332,"velocity":0.7637795275590551,"duration":0.16666666666668561},{"name":"G3","midi":55,"time":462.489583333332,"velocity":0.7637795275590551,"duration":0.24869791666668561},{"name":"B4","midi":71,"time":462.6562499999987,"velocity":0.7637795275590551,"duration":0.08333333333331439},{"name":"C5","midi":72,"time":462.739583333332,"velocity":0.7637795275590551,"duration":0.08333333333331439},{"name":"A3","midi":57,"time":462.739583333332,"velocity":0.7637795275590551,"duration":0.24869791666662877},{"name":"B4","midi":71,"time":462.8229166666653,"velocity":0.7637795275590551,"duration":0.08333333333331439},{"name":"C5","midi":72,"time":462.90624999999864,"velocity":0.7637795275590551,"duration":0.08333333333331439},{"name":"B4","midi":71,"time":462.98958333333195,"velocity":0.7637795275590551,"duration":0.08333333333331439},{"name":"B3","midi":59,"time":462.98958333333195,"velocity":0.7637795275590551,"duration":0.24869791666662877},{"name":"C5","midi":72,"time":463.07291666666526,"velocity":0.7637795275590551,"duration":0.08333333333331439},{"name":"B4","midi":71,"time":463.1562499999986,"velocity":0.7637795275590551,"duration":0.08333333333331439},{"name":"A4","midi":69,"time":463.2395833333319,"velocity":0.7637795275590551,"duration":0.24869791666668561},{"name":"C4","midi":60,"time":463.2395833333319,"velocity":0.7637795275590551,"duration":0.24869791666668561},{"name":"G4","midi":67,"time":463.4895833333319,"velocity":0.7637795275590551,"duration":0.7486979166666856},{"name":"D4","midi":62,"time":463.4895833333319,"velocity":0.7637795275590551,"duration":0.24869791666668561},{"name":"F4","midi":65,"time":463.7395833333319,"velocity":0.7637795275590551,"duration":0.24869791666668561},{"name":"D#4","midi":63,"time":463.9895833333319,"velocity":0.7637795275590551,"duration":0.24869791666668561},{"name":"D4","midi":62,"time":464.2395833333319,"velocity":0.7637795275590551,"duration":0.24869791666668561},{"name":"D#5","midi":75,"time":464.4895833333319,"velocity":0.7637795275590551,"duration":0.4947916666666856},{"name":"C4","midi":60,"time":464.4895833333319,"velocity":0.7637795275590551,"duration":0.7486979166666856},{"name":"G4","midi":67,"time":464.7395833333319,"velocity":0.7637795275590551,"duration":0.24869791666668561},{"name":"G#4","midi":68,"time":464.9895833333319,"velocity":0.7637795275590551,"duration":0.24869791666668561},{"name":"C3","midi":48,"time":464.9895833333319,"velocity":0.7637795275590551,"duration":0.4986979166666856},{"name":"A#4","midi":70,"time":465.2395833333319,"velocity":0.7637795275590551,"duration":0.24869791666668561},{"name":"G#4","midi":68,"time":465.4895833333319,"velocity":0.7637795275590551,"duration":0.24869791666668561},{"name":"F3","midi":53,"time":465.4895833333319,"velocity":0.7637795275590551,"duration":0.24869791666668561},{"name":"G4","midi":67,"time":465.7395833333319,"velocity":0.7637795275590551,"duration":0.24869791666668561},{"name":"G3","midi":55,"time":465.7395833333319,"velocity":0.7637795275590551,"duration":0.24869791666668561},{"name":"F4","midi":65,"time":465.9895833333319,"velocity":0.7637795275590551,"duration":0.703125},{"name":"G#3","midi":56,"time":465.9895833333319,"velocity":0.7637795275590551,"duration":0.24869791666668561},{"name":"A#3","midi":58,"time":466.2395833333319,"velocity":0.7637795275590551,"duration":0.24869791666668561},{"name":"C4","midi":60,"time":466.4895833333319,"velocity":0.7637795275590551,"duration":0.4986979166666856},{"name":"C5","midi":72,"time":466.7395833333319,"velocity":0.7637795275590551,"duration":0.24869791666668561},{"name":"D5","midi":74,"time":466.9895833333319,"velocity":0.7637795275590551,"duration":0.24869791666668561},{"name":"F3","midi":53,"time":466.9895833333319,"velocity":0.7637795275590551,"duration":0.4986979166666856},{"name":"D#5","midi":75,"time":467.2395833333319,"velocity":0.7637795275590551,"duration":0.24869791666668561},{"name":"D5","midi":74,"time":467.4895833333319,"velocity":0.7637795275590551,"duration":0.4947916666666856},{"name":"A#3","midi":58,"time":467.4895833333319,"velocity":0.7637795275590551,"duration":0.7486979166666856},{"name":"F4","midi":65,"time":467.7395833333319,"velocity":0.7637795275590551,"duration":0.24869791666668561},{"name":"G4","midi":67,"time":467.9895833333319,"velocity":0.7637795275590551,"duration":0.24869791666668561},{"name":"A#2","midi":46,"time":467.9895833333319,"velocity":0.7637795275590551,"duration":0.4986979166666856},{"name":"G#4","midi":68,"time":468.2395833333319,"velocity":0.7637795275590551,"duration":0.24869791666668561},{"name":"G4","midi":67,"time":468.4895833333319,"velocity":0.7637795275590551,"duration":0.24869791666668561},{"name":"D#3","midi":51,"time":468.4895833333319,"velocity":0.7637795275590551,"duration":0.24869791666668561},{"name":"F4","midi":65,"time":468.7395833333319,"velocity":0.7637795275590551,"duration":0.24869791666668561},{"name":"F3","midi":53,"time":468.7395833333319,"velocity":0.7637795275590551,"duration":0.24869791666668561},{"name":"D#4","midi":63,"time":468.9895833333319,"velocity":0.7637795275590551,"duration":0.703125},{"name":"G3","midi":55,"time":468.9895833333319,"velocity":0.7637795275590551,"duration":0.24869791666668561},{"name":"G#3","midi":56,"time":469.2395833333319,"velocity":0.7637795275590551,"duration":0.24869791666668561},{"name":"A#3","midi":58,"time":469.4895833333319,"velocity":0.7637795275590551,"duration":0.4986979166666856},{"name":"A#4","midi":70,"time":469.7395833333319,"velocity":0.7637795275590551,"duration":0.24869791666668561},{"name":"C5","midi":72,"time":469.9895833333319,"velocity":0.7637795275590551,"duration":0.24869791666668561},{"name":"D#3","midi":51,"time":469.9895833333319,"velocity":0.7637795275590551,"duration":0.4986979166666856},{"name":"C#5","midi":73,"time":470.2395833333319,"velocity":0.7637795275590551,"duration":0.24869791666668561},{"name":"C5","midi":72,"time":470.4895833333319,"velocity":0.7637795275590551,"duration":0.4947916666666856},{"name":"G#3","midi":56,"time":470.4895833333319,"velocity":0.7637795275590551,"duration":0.7486979166666856},{"name":"G4","midi":67,"time":470.7395833333319,"velocity":0.7637795275590551,"duration":0.24869791666668561},{"name":"F4","midi":65,"time":470.9895833333319,"velocity":0.7637795275590551,"duration":0.24869791666668561},{"name":"G#2","midi":44,"time":470.9895833333319,"velocity":0.7637795275590551,"duration":0.4986979166666856},{"name":"D#4","midi":63,"time":471.2395833333319,"velocity":0.7637795275590551,"duration":0.24869791666668561},{"name":"D4","midi":62,"time":471.4895833333319,"velocity":0.7637795275590551,"duration":0.4947916666666856},{"name":"A#2","midi":46,"time":471.4895833333319,"velocity":0.7637795275590551,"duration":0.24869791666668561},{"name":"C5","midi":72,"time":471.7395833333319,"velocity":0.7637795275590551,"duration":0.24869791666668561},{"name":"G#3","midi":56,"time":471.7395833333319,"velocity":0.7637795275590551,"duration":0.24869791666668561},{"name":"A#4","midi":70,"time":471.9895833333319,"velocity":0.7637795275590551,"duration":0.24869791666668561},{"name":"G3","midi":55,"time":471.9895833333319,"velocity":0.7637795275590551,"duration":0.24869791666668561},{"name":"G#4","midi":68,"time":472.2395833333319,"velocity":0.7637795275590551,"duration":0.24869791666668561},{"name":"F3","midi":53,"time":472.2395833333319,"velocity":0.7637795275590551,"duration":0.24869791666668561},{"name":"F5","midi":77,"time":472.4895833333319,"velocity":0.7637795275590551,"duration":0.625},{"name":"D#3","midi":51,"time":472.4895833333319,"velocity":0.7637795275590551,"duration":0.24869791666668561},{"name":"D3","midi":50,"time":472.7395833333319,"velocity":0.7637795275590551,"duration":0.24869791666668561},{"name":"C3","midi":48,"time":472.9895833333319,"velocity":0.7637795275590551,"duration":0.24869791666668561},{"name":"A#2","midi":46,"time":473.2395833333319,"velocity":0.7637795275590551,"duration":0.24869791666662877},{"name":"G#4","midi":68,"time":473.2408854166652,"velocity":0.7637795275590551,"duration":0.24869791666662877},{"name":"F4","midi":65,"time":473.2408854166652,"velocity":0.7637795275590551,"duration":0.24869791666662877},{"name":"D4","midi":62,"time":473.2408854166652,"velocity":0.7637795275590551,"duration":0.24869791666662877},{"name":"A#3","midi":58,"time":473.2408854166652,"velocity":0.7637795275590551,"duration":0.24869791666662877},{"name":"D4","midi":62,"time":473.48958333333184,"velocity":0.7637795275590551,"duration":0.9986979166666856},{"name":"A#3","midi":58,"time":473.48958333333184,"velocity":0.7637795275590551,"duration":0.9986979166666856},{"name":"G#4","midi":68,"time":473.48958333333184,"velocity":0.7637795275590551,"duration":0.9986979166666856},{"name":"F4","midi":65,"time":473.48958333333184,"velocity":0.7637795275590551,"duration":0.9986979166666856},{"name":"D#3","midi":51,"time":473.48958333333184,"velocity":0.7637795275590551,"duration":0.24869791666668561},{"name":"G2","midi":43,"time":473.73958333333184,"velocity":0.7637795275590551,"duration":0.24869791666668561},{"name":"G#2","midi":44,"time":473.98958333333184,"velocity":0.7637795275590551,"duration":0.24869791666668561},{"name":"A#2","midi":46,"time":474.23958333333184,"velocity":0.7637795275590551,"duration":0.24869791666668561},{"name":"A#3","midi":58,"time":474.48958333333184,"velocity":0.7637795275590551,"duration":1.6927083333333144},{"name":"G4","midi":67,"time":474.48958333333184,"velocity":0.7637795275590551,"duration":1.6927083333333144},{"name":"D#4","midi":63,"time":474.48958333333184,"velocity":0.7637795275590551,"duration":1.6927083333333144},{"name":"D#2","midi":39,"time":474.48958333333184,"velocity":0.7637795275590551,"duration":0.4986979166666856},{"name":"G2","midi":43,"time":474.98958333333184,"velocity":0.7637795275590551,"duration":0.24869791666668561},{"name":"A#2","midi":46,"time":475.23958333333184,"velocity":0.7637795275590551,"duration":0.24869791666668561},{"name":"D#3","midi":51,"time":475.48958333333184,"velocity":0.7637795275590551,"duration":0.9986979166666288},{"name":"A#4","midi":70,"time":476.4895833333318,"velocity":0.7637795275590551,"duration":0.24869791666668561},{"name":"D#3","midi":51,"time":476.4895833333318,"velocity":0.7637795275590551,"duration":0.24869791666668561},{"name":"D#5","midi":75,"time":476.7395833333318,"velocity":0.7637795275590551,"duration":0.24869791666668561},{"name":"G3","midi":55,"time":476.7395833333318,"velocity":0.7637795275590551,"duration":0.24869791666668561},{"name":"G5","midi":79,"time":476.9895833333318,"velocity":0.7637795275590551,"duration":0.703125},{"name":"A#3","midi":58,"time":476.9895833333318,"velocity":0.7637795275590551,"duration":0.24869791666668561},{"name":"D4","midi":62,"time":477.2395833333318,"velocity":0.7637795275590551,"duration":0.24869791666668561},{"name":"D#4","midi":63,"time":477.4895833333318,"velocity":0.7637795275590551,"duration":0.24869791666668561},{"name":"C5","midi":72,"time":477.7395833333318,"velocity":0.7637795275590551,"duration":0.24869791666668561},{"name":"G4","midi":67,"time":477.7395833333318,"velocity":0.7637795275590551,"duration":0.24869791666668561},{"name":"A#4","midi":70,"time":477.9895833333318,"velocity":0.7637795275590551,"duration":0.24869791666668561},{"name":"D#3","midi":51,"time":477.9895833333318,"velocity":0.7637795275590551,"duration":0.7291666666666856},{"name":"G#4","midi":68,"time":478.2395833333318,"velocity":0.7637795275590551,"duration":0.24869791666668561},{"name":"A#4","midi":70,"time":478.4895833333318,"velocity":0.7637795275590551,"duration":0.24869791666668561},{"name":"D#5","midi":75,"time":478.7395833333318,"velocity":0.7637795275590551,"duration":0.24869791666668561},{"name":"G3","midi":55,"time":478.7395833333318,"velocity":0.7637795275590551,"duration":0.24869791666668561},{"name":"F5","midi":77,"time":478.9895833333318,"velocity":0.7637795275590551,"duration":0.24869791666668561},{"name":"F3","midi":53,"time":478.9895833333318,"velocity":0.7637795275590551,"duration":0.24869791666668561},{"name":"G5","midi":79,"time":479.2395833333318,"velocity":0.7637795275590551,"duration":0.24869791666668561},{"name":"D#3","midi":51,"time":479.2395833333318,"velocity":0.7637795275590551,"duration":0.24869791666668561},{"name":"F5","midi":77,"time":479.4895833333318,"velocity":0.7637795275590551,"duration":0.24869791666668561},{"name":"D3","midi":50,"time":479.4895833333318,"velocity":0.7637795275590551,"duration":0.24869791666668561},{"name":"A5","midi":81,"time":479.7395833333318,"velocity":0.7637795275590551,"duration":0.24869791666668561},{"name":"F3","midi":53,"time":479.7395833333318,"velocity":0.7637795275590551,"duration":0.24869791666668561},{"name":"A#5","midi":82,"time":479.9895833333318,"velocity":0.7637795275590551,"duration":0.703125},{"name":"G3","midi":55,"time":479.9895833333318,"velocity":0.7637795275590551,"duration":0.24869791666668561},{"name":"A3","midi":57,"time":480.2395833333318,"velocity":0.7637795275590551,"duration":0.24869791666668561},{"name":"A#3","midi":58,"time":480.4895833333318,"velocity":0.7637795275590551,"duration":0.24869791666668561},{"name":"G5","midi":79,"time":480.7395833333318,"velocity":0.7637795275590551,"duration":0.24869791666668561},{"name":"D4","midi":62,"time":480.7395833333318,"velocity":0.7637795275590551,"duration":0.24869791666668561},{"name":"F5","midi":77,"time":480.9895833333318,"velocity":0.7637795275590551,"duration":0.24869791666668561},{"name":"D3","midi":50,"time":480.9895833333318,"velocity":0.7637795275590551,"duration":0.7291666666666856},{"name":"D#5","midi":75,"time":481.2395833333318,"velocity":0.7637795275590551,"duration":0.24869791666668561},{"name":"F5","midi":77,"time":481.4895833333318,"velocity":0.7637795275590551,"duration":0.24869791666668561},{"name":"A#4","midi":70,"time":481.7395833333318,"velocity":0.7637795275590551,"duration":0.24869791666668561},{"name":"F3","midi":53,"time":481.7395833333318,"velocity":0.7637795275590551,"duration":0.24869791666668561},{"name":"A4","midi":69,"time":481.9895833333318,"velocity":0.7637795275590551,"duration":0.24869791666668561},{"name":"D#3","midi":51,"time":481.9895833333318,"velocity":0.7637795275590551,"duration":0.24869791666668561},{"name":"A#4","midi":70,"time":482.2395833333318,"velocity":0.7637795275590551,"duration":0.24869791666668561},{"name":"D3","midi":50,"time":482.2395833333318,"velocity":0.7637795275590551,"duration":0.24869791666668561},{"name":"D#5","midi":75,"time":482.4895833333318,"velocity":0.7637795275590551,"duration":0.24869791666668561},{"name":"C3","midi":48,"time":482.4895833333318,"velocity":0.7637795275590551,"duration":0.24869791666668561},{"name":"D5","midi":74,"time":482.7395833333318,"velocity":0.7637795275590551,"duration":0.24869791666668561},{"name":"G3","midi":55,"time":482.7395833333318,"velocity":0.7637795275590551,"duration":0.24869791666668561},{"name":"C5","midi":72,"time":482.9895833333318,"velocity":0.7637795275590551,"duration":0.4947916666666856},{"name":"A3","midi":57,"time":482.9895833333318,"velocity":0.7637795275590551,"duration":0.24869791666668561},{"name":"A#3","midi":58,"time":483.2395833333318,"velocity":0.7637795275590551,"duration":0.24869791666668561},{"name":"A3","midi":57,"time":483.4895833333318,"velocity":0.7637795275590551,"duration":0.24869791666668561},{"name":"G5","midi":79,"time":483.7395833333318,"velocity":0.7637795275590551,"duration":0.24869791666668561},{"name":"A#3","midi":58,"time":483.7395833333318,"velocity":0.7637795275590551,"duration":0.24869791666668561},{"name":"F5","midi":77,"time":483.9895833333318,"velocity":0.7637795275590551,"duration":0.24869791666668561},{"name":"C4","midi":60,"time":483.9895833333318,"velocity":0.7637795275590551,"duration":0.703125},{"name":"D#5","midi":75,"time":484.2395833333318,"velocity":0.7637795275590551,"duration":0.24869791666668561},{"name":"A5","midi":81,"time":484.4895833333318,"velocity":0.7637795275590551,"duration":0.24869791666668561},{"name":"A#5","midi":82,"time":484.7395833333318,"velocity":0.7637795275590551,"duration":0.24869791666668561},{"name":"D#3","midi":51,"time":484.7395833333318,"velocity":0.7637795275590551,"duration":0.24869791666668561},{"name":"C6","midi":84,"time":484.9895833333318,"velocity":0.7637795275590551,"duration":0.703125},{"name":"D3","midi":50,"time":484.9895833333318,"velocity":0.7637795275590551,"duration":0.24869791666668561},{"name":"C3","midi":48,"time":485.2395833333318,"velocity":0.7637795275590551,"duration":0.24869791666668561},{"name":"A#2","midi":46,"time":485.4895833333318,"velocity":0.7637795275590551,"duration":0.24869791666668561},{"name":"D#5","midi":75,"time":485.7395833333318,"velocity":0.7637795275590551,"duration":0.24869791666668561},{"name":"F3","midi":53,"time":485.7395833333318,"velocity":0.7637795275590551,"duration":0.24869791666668561},{"name":"D5","midi":74,"time":485.9895833333318,"velocity":0.7637795275590551,"duration":0.24869791666668561},{"name":"G3","midi":55,"time":485.9895833333318,"velocity":0.7637795275590551,"duration":0.24869791666668561},{"name":"C5","midi":72,"time":486.2395833333318,"velocity":0.7637795275590551,"duration":0.24869791666668561},{"name":"A3","midi":57,"time":486.2395833333318,"velocity":0.7637795275590551,"duration":0.24869791666668561},{"name":"D5","midi":74,"time":486.4895833333318,"velocity":0.7637795275590551,"duration":0.24869791666668561},{"name":"A#3","midi":58,"time":486.4895833333318,"velocity":0.7637795275590551,"duration":0.24869791666668561},{"name":"F5","midi":77,"time":486.7395833333318,"velocity":0.7637795275590551,"duration":0.24869791666668561},{"name":"D4","midi":62,"time":486.7395833333318,"velocity":0.7637795275590551,"duration":0.24869791666668561},{"name":"D5","midi":74,"time":486.9895833333318,"velocity":0.7637795275590551,"duration":0.24869791666668561},{"name":"A#2","midi":46,"time":486.9895833333318,"velocity":0.7637795275590551,"duration":0.7291666666666856},{"name":"A4","midi":69,"time":487.2395833333318,"velocity":0.7637795275590551,"duration":0.24869791666668561},{"name":"A#4","midi":70,"time":487.4895833333318,"velocity":0.7637795275590551,"duration":0.9986979166666856},{"name":"G#3","midi":56,"time":487.7395833333318,"velocity":0.7637795275590551,"duration":0.24869791666668561},{"name":"G3","midi":55,"time":487.9895833333318,"velocity":0.7637795275590551,"duration":0.24869791666668561},{"name":"F3","midi":53,"time":488.2395833333318,"velocity":0.7637795275590551,"duration":0.24869791666668561},{"name":"E3","midi":52,"time":488.4895833333318,"velocity":0.7637795275590551,"duration":0.4986979166666856},{"name":"C#5","midi":73,"time":488.7395833333318,"velocity":0.7637795275590551,"duration":0.24869791666668561},{"name":"C5","midi":72,"time":488.9895833333318,"velocity":0.7637795275590551,"duration":0.24869791666668561},{"name":"G3","midi":55,"time":488.9895833333318,"velocity":0.7637795275590551,"duration":0.4986979166666856},{"name":"A#4","midi":70,"time":489.2395833333318,"velocity":0.7637795275590551,"duration":0.24869791666668561},{"name":"G5","midi":79,"time":489.4895833333318,"velocity":0.7637795275590551,"duration":0.4947916666666856},{"name":"C4","midi":60,"time":489.4895833333318,"velocity":0.7637795275590551,"duration":0.4986979166666856},{"name":"A#4","midi":70,"time":489.7395833333318,"velocity":0.7637795275590551,"duration":0.24869791666668561},{"name":"G#4","midi":68,"time":489.9895833333318,"velocity":0.7637795275590551,"duration":0.24869791666668561},{"name":"E3","midi":52,"time":489.9895833333318,"velocity":0.7637795275590551,"duration":0.4986979166666856},{"name":"G4","midi":67,"time":490.2395833333318,"velocity":0.7637795275590551,"duration":0.24869791666668561},{"name":"G#4","midi":68,"time":490.4895833333318,"velocity":0.7637795275590551,"duration":0.4947916666666856},{"name":"F3","midi":53,"time":490.4895833333318,"velocity":0.7637795275590551,"duration":0.4986979166666856},{"name":"C5","midi":72,"time":490.7395833333318,"velocity":0.7637795275590551,"duration":0.24869791666668561},{"name":"F5","midi":77,"time":490.9895833333318,"velocity":0.7637795275590551,"duration":0.24869791666668561},{"name":"C4","midi":60,"time":490.9895833333318,"velocity":0.7637795275590551,"duration":0.4986979166666856},{"name":"G5","midi":79,"time":491.2395833333318,"velocity":0.7637795275590551,"duration":0.24869791666668561},{"name":"A5","midi":81,"time":491.4895833333318,"velocity":0.7637795275590551,"duration":0.24869791666668561},{"name":"D#4","midi":63,"time":491.4895833333318,"velocity":0.7637795275590551,"duration":0.4986979166666856},{"name":"F#5","midi":78,"time":491.7395833333318,"velocity":0.7637795275590551,"duration":0.24869791666668561},{"name":"F5","midi":77,"time":491.9895833333318,"velocity":0.7637795275590551,"duration":0.24869791666668561},{"name":"F#4","midi":66,"time":491.9895833333318,"velocity":0.7637795275590551,"duration":0.4986979166666856},{"name":"D#5","midi":75,"time":492.2395833333318,"velocity":0.7637795275590551,"duration":0.24869791666668561},{"name":"C6","midi":84,"time":492.4895833333318,"velocity":0.7637795275590551,"duration":0.4947916666666856},{"name":"A3","midi":57,"time":492.4895833333318,"velocity":0.7637795275590551,"duration":0.4986979166666856},{"name":"D#5","midi":75,"time":492.7395833333318,"velocity":0.7637795275590551,"duration":0.24869791666668561},{"name":"C#5","midi":73,"time":492.9895833333318,"velocity":0.7637795275590551,"duration":0.24869791666668561},{"name":"F4","midi":65,"time":492.9895833333318,"velocity":0.7637795275590551,"duration":0.4986979166666856},{"name":"C5","midi":72,"time":493.2395833333318,"velocity":0.7637795275590551,"duration":0.24869791666668561},{"name":"C#5","midi":73,"time":493.4895833333318,"velocity":0.7637795275590551,"duration":0.4947916666666856},{"name":"A#3","midi":58,"time":493.4895833333318,"velocity":0.7637795275590551,"duration":0.4986979166666856},{"name":"F5","midi":77,"time":493.7395833333318,"velocity":0.7637795275590551,"duration":0.24869791666668561},{"name":"A#5","midi":82,"time":493.9895833333318,"velocity":0.7637795275590551,"duration":0.24869791666668561},{"name":"C#4","midi":61,"time":493.9895833333318,"velocity":0.7637795275590551,"duration":0.4986979166666856},{"name":"G#5","midi":80,"time":494.2395833333318,"velocity":0.7637795275590551,"duration":0.24869791666668561},{"name":"F#5","midi":78,"time":494.4895833333318,"velocity":0.7637795275590551,"duration":0.24869791666668561},{"name":"A#3","midi":58,"time":494.4895833333318,"velocity":0.7637795275590551,"duration":0.4986979166666856},{"name":"F5","midi":77,"time":494.7395833333318,"velocity":0.7637795275590551,"duration":0.24869791666668561},{"name":"E5","midi":76,"time":494.9895833333318,"velocity":0.7637795275590551,"duration":0.24869791666668561},{"name":"G3","midi":55,"time":494.9895833333318,"velocity":0.7637795275590551,"duration":0.4986979166666856},{"name":"F5","midi":77,"time":495.2395833333318,"velocity":0.7637795275590551,"duration":0.24869791666668561},{"name":"C#5","midi":73,"time":495.4895833333318,"velocity":0.7637795275590551,"duration":0.24869791666668561},{"name":"G#3","midi":56,"time":495.4895833333318,"velocity":0.7637795275590551,"duration":0.4986979166666856},{"name":"C5","midi":72,"time":495.7395833333318,"velocity":0.7637795275590551,"duration":0.24869791666668561},{"name":"B4","midi":71,"time":495.9895833333318,"velocity":0.7637795275590551,"duration":0.24869791666668561},{"name":"F3","midi":53,"time":495.9895833333318,"velocity":0.7637795275590551,"duration":0.4986979166666856},{"name":"C5","midi":72,"time":496.2395833333318,"velocity":0.7637795275590551,"duration":0.24869791666668561},{"name":"G#5","midi":80,"time":496.4895833333318,"velocity":0.7637795275590551,"duration":0.24869791666668561},{"name":"C4","midi":60,"time":496.4895833333318,"velocity":0.7637795275590551,"duration":0.625},{"name":"G5","midi":79,"time":496.7395833333318,"velocity":0.7637795275590551,"duration":0.24869791666668561},{"name":"F5","midi":77,"time":496.9895833333318,"velocity":0.7637795275590551,"duration":0.24869791666668561},{"name":"C3","midi":48,"time":496.9895833333318,"velocity":0.7637795275590551,"duration":0.4986979166666856},{"name":"E5","midi":76,"time":497.2395833333318,"velocity":0.7637795275590551,"duration":0.24869791666668561},{"name":"F5","midi":77,"time":497.4895833333318,"velocity":0.7637795275590551,"duration":0.7486979166666856},{"name":"F3","midi":53,"time":497.4895833333318,"velocity":0.7637795275590551,"duration":0.9986979166666856},{"name":"C5","midi":72,"time":497.7395833333318,"velocity":0.7637795275590551,"duration":0.24869791666668561},{"name":"C#5","midi":73,"time":497.9895833333318,"velocity":0.7637795275590551,"duration":0.24869791666668561},{"name":"F2","midi":41,"time":497.9895833333318,"velocity":0.7637795275590551,"duration":0.4986979166666856},{"name":"E5","midi":76,"time":498.2395833333318,"velocity":0.7637795275590551,"duration":0.24869791666668561},{"name":"F5","midi":77,"time":498.4895833333318,"velocity":0.7637795275590551,"duration":0.9986979166666856},{"name":"G#2","midi":44,"time":498.4895833333318,"velocity":0.7637795275590551,"duration":0.4986979166666856},{"name":"A#4","midi":70,"time":498.7395833333318,"velocity":0.7637795275590551,"duration":0.24869791666668561},{"name":"G#4","midi":68,"time":498.9895833333318,"velocity":0.7637795275590551,"duration":0.24869791666668561},{"name":"C3","midi":48,"time":498.9895833333318,"velocity":0.7637795275590551,"duration":0.4986979166666856},{"name":"G4","midi":67,"time":499.2395833333318,"velocity":0.7637795275590551,"duration":0.24869791666668561},{"name":"F4","midi":65,"time":499.4895833333318,"velocity":0.7637795275590551,"duration":0.9986979166666856},{"name":"F3","midi":53,"time":499.4895833333318,"velocity":0.7637795275590551,"duration":0.4986979166666856},{"name":"D#3","midi":51,"time":499.9895833333318,"velocity":0.7637795275590551,"duration":0.4986979166666856},{"name":"D3","midi":50,"time":500.4895833333318,"velocity":0.7637795275590551,"duration":0.4986979166666856},{"name":"D#5","midi":75,"time":500.7395833333318,"velocity":0.7637795275590551,"duration":0.24869791666668561},{"name":"D5","midi":74,"time":500.9895833333318,"velocity":0.7637795275590551,"duration":0.24869791666668561},{"name":"F3","midi":53,"time":500.9895833333318,"velocity":0.7637795275590551,"duration":0.4986979166666856},{"name":"C5","midi":72,"time":501.2395833333318,"velocity":0.7637795275590551,"duration":0.24869791666668561},{"name":"D5","midi":74,"time":501.4895833333318,"velocity":0.7637795275590551,"duration":0.3645833333333144},{"name":"A#2","midi":46,"time":501.4895833333318,"velocity":0.7637795275590551,"duration":0.49869791666662877},{"name":"G#5","midi":80,"time":501.7395833333318,"velocity":0.7637795275590551,"duration":0.36458333333325754},{"name":"A#4","midi":70,"time":501.9895833333317,"velocity":0.7637795275590551,"duration":0.3645833333333144},{"name":"D3","midi":50,"time":501.9895833333317,"velocity":0.7637795275590551,"duration":0.49869791666662877},{"name":"F5","midi":77,"time":502.2395833333317,"velocity":0.7637795275590551,"duration":0.24869791666662877},{"name":"G5","midi":79,"time":502.48958333333167,"velocity":0.7637795275590551,"duration":0.4947916666666856},{"name":"D#2","midi":39,"time":502.48958333333167,"velocity":0.7637795275590551,"duration":0.4986979166666856},{"name":"G#4","midi":68,"time":502.73958333333167,"velocity":0.7637795275590551,"duration":0.24869791666668561},{"name":"G4","midi":67,"time":502.98958333333167,"velocity":0.7637795275590551,"duration":0.24869791666668561},{"name":"D3","midi":50,"time":502.98958333333167,"velocity":0.7637795275590551,"duration":0.4986979166666856},{"name":"F4","midi":65,"time":503.23958333333167,"velocity":0.7637795275590551,"duration":0.24869791666668561},{"name":"D#4","midi":63,"time":503.48958333333167,"velocity":0.7637795275590551,"duration":0.4947916666666856},{"name":"C3","midi":48,"time":503.48958333333167,"velocity":0.7637795275590551,"duration":0.4986979166666856},{"name":"D5","midi":74,"time":503.73958333333167,"velocity":0.7637795275590551,"duration":0.24869791666668561},{"name":"C5","midi":72,"time":503.98958333333167,"velocity":0.7637795275590551,"duration":0.24869791666668561},{"name":"D#3","midi":51,"time":503.98958333333167,"velocity":0.7637795275590551,"duration":0.4986979166666856},{"name":"B4","midi":71,"time":504.23958333333167,"velocity":0.7637795275590551,"duration":0.24869791666668561},{"name":"C5","midi":72,"time":504.48958333333167,"velocity":0.7637795275590551,"duration":0.3645833333333144},{"name":"G#2","midi":44,"time":504.48958333333167,"velocity":0.7637795275590551,"duration":0.49869791666662877},{"name":"G5","midi":79,"time":504.73958333333167,"velocity":0.7637795275590551,"duration":0.36458333333325754},{"name":"G#4","midi":68,"time":504.9895833333316,"velocity":0.7637795275590551,"duration":0.3645833333333144},{"name":"C3","midi":48,"time":504.9895833333316,"velocity":0.7637795275590551,"duration":0.49869791666662877},{"name":"D#5","midi":75,"time":505.2395833333316,"velocity":0.7637795275590551,"duration":0.24869791666662877},{"name":"F5","midi":77,"time":505.48958333333155,"velocity":0.7637795275590551,"duration":0.4947916666666856},{"name":"D2","midi":38,"time":505.48958333333155,"velocity":0.7637795275590551,"duration":0.4986979166666856},{"name":"G4","midi":67,"time":505.73958333333155,"velocity":0.7637795275590551,"duration":0.24869791666668561},{"name":"F4","midi":65,"time":505.98958333333155,"velocity":0.7637795275590551,"duration":0.24869791666668561},{"name":"C3","midi":48,"time":505.98958333333155,"velocity":0.7637795275590551,"duration":0.4986979166666856},{"name":"D#4","midi":63,"time":506.23958333333155,"velocity":0.7637795275590551,"duration":0.24869791666668561},{"name":"D4","midi":62,"time":506.48958333333155,"velocity":0.7637795275590551,"duration":0.4947916666666856},{"name":"B2","midi":47,"time":506.48958333333155,"velocity":0.7637795275590551,"duration":0.4986979166666856},{"name":"C5","midi":72,"time":506.73958333333155,"velocity":0.7637795275590551,"duration":0.24869791666668561},{"name":"B4","midi":71,"time":506.98958333333155,"velocity":0.7637795275590551,"duration":0.24869791666668561},{"name":"D3","midi":50,"time":506.98958333333155,"velocity":0.7637795275590551,"duration":0.4986979166666856},{"name":"A4","midi":69,"time":507.23958333333155,"velocity":0.7637795275590551,"duration":0.24869791666668561},{"name":"B4","midi":71,"time":507.48958333333155,"velocity":0.7637795275590551,"duration":0.3645833333333144},{"name":"G2","midi":43,"time":507.48958333333155,"velocity":0.7637795275590551,"duration":0.49869791666662877},{"name":"F5","midi":77,"time":507.73958333333155,"velocity":0.7637795275590551,"duration":0.36458333333325754},{"name":"G4","midi":67,"time":507.9895833333315,"velocity":0.7637795275590551,"duration":0.3645833333333144},{"name":"B2","midi":47,"time":507.9895833333315,"velocity":0.7637795275590551,"duration":0.49869791666662877},{"name":"D5","midi":74,"time":508.2395833333315,"velocity":0.7637795275590551,"duration":0.24869791666662877},{"name":"D#5","midi":75,"time":508.48958333333144,"velocity":0.7637795275590551,"duration":0.4947916666666856},{"name":"C2","midi":36,"time":508.48958333333144,"velocity":0.7637795275590551,"duration":0.4986979166666856},{"name":"F4","midi":65,"time":508.73958333333144,"velocity":0.7637795275590551,"duration":0.24869791666668561},{"name":"D#4","midi":63,"time":508.98958333333144,"velocity":0.7637795275590551,"duration":0.24869791666668561},{"name":"B2","midi":47,"time":508.98958333333144,"velocity":0.7637795275590551,"duration":0.4986979166666856},{"name":"D4","midi":62,"time":509.23958333333144,"velocity":0.7637795275590551,"duration":0.24869791666668561},{"name":"C4","midi":60,"time":509.48958333333144,"velocity":0.7637795275590551,"duration":0.3645833333333144},{"name":"A2","midi":45,"time":509.48958333333144,"velocity":0.7637795275590551,"duration":0.49869791666662877},{"name":"G4","midi":67,"time":509.73958333333144,"velocity":0.7637795275590551,"duration":0.24869791666662877},{"name":"F#4","midi":66,"time":509.9895833333314,"velocity":0.7637795275590551,"duration":0.24869791666668561},{"name":"D2","midi":38,"time":509.9895833333314,"velocity":0.7637795275590551,"duration":0.4986979166666856},{"name":"A4","midi":69,"time":510.2395833333314,"velocity":0.7637795275590551,"duration":0.24869791666668561},{"name":"C5","midi":72,"time":510.4895833333314,"velocity":0.7637795275590551,"duration":0.3645833333333144},{"name":"D3","midi":50,"time":510.4895833333314,"velocity":0.7637795275590551,"duration":0.49869791666662877},{"name":"A4","midi":69,"time":510.7395833333314,"velocity":0.7637795275590551,"duration":0.24869791666662877},{"name":"B4","midi":71,"time":510.9895833333313,"velocity":0.7637795275590551,"duration":0.24869791666668561},{"name":"G2","midi":43,"time":510.9895833333313,"velocity":0.7637795275590551,"duration":0.4986979166666856},{"name":"D5","midi":74,"time":511.2395833333313,"velocity":0.7637795275590551,"duration":0.24869791666668561},{"name":"G4","midi":67,"time":511.4895833333313,"velocity":0.7637795275590551,"duration":0.4947916666666856},{"name":"G3","midi":55,"time":511.4895833333313,"velocity":0.7637795275590551,"duration":0.4986979166666856},{"name":"F5","midi":77,"time":511.7395833333313,"velocity":0.7637795275590551,"duration":0.24869791666668561},{"name":"D#5","midi":75,"time":511.9895833333313,"velocity":0.7637795275590551,"duration":0.24869791666662877},{"name":"B3","midi":59,"time":511.9895833333313,"velocity":0.7637795275590551,"duration":0.49869791666662877},{"name":"D5","midi":74,"time":512.2395833333313,"velocity":0.7637795275590551,"duration":0.24869791666662877},{"name":"D#5","midi":75,"time":512.4895833333313,"velocity":0.7637795275590551,"duration":0.24869791666662877},{"name":"C4","midi":60,"time":512.4895833333313,"velocity":0.7637795275590551,"duration":0.49869791666662877},{"name":"G5","midi":79,"time":512.7395833333313,"velocity":0.7637795275590551,"duration":0.24869791666662877},{"name":"C5","midi":72,"time":512.9895833333313,"velocity":0.7637795275590551,"duration":0.24869791666662877},{"name":"D4","midi":62,"time":512.9895833333313,"velocity":0.7637795275590551,"duration":0.49869791666662877},{"name":"B4","midi":71,"time":513.2395833333313,"velocity":0.7637795275590551,"duration":0.24869791666662877},{"name":"C5","midi":72,"time":513.4895833333313,"velocity":0.7637795275590551,"duration":0.9986979166666288},{"name":"D#4","midi":63,"time":513.4895833333313,"velocity":0.7637795275590551,"duration":0.24869791666662877},{"name":"G4","midi":67,"time":513.7395833333313,"velocity":0.7637795275590551,"duration":0.24869791666662877},{"name":"C4","midi":60,"time":513.9895833333313,"velocity":0.7637795275590551,"duration":0.24869791666662877},{"name":"A#3","midi":58,"time":514.2395833333313,"velocity":0.7637795275590551,"duration":0.24869791666662877},{"name":"G#3","midi":56,"time":514.4895833333313,"velocity":0.7637795275590551,"duration":0.49869791666662877},{"name":"D#5","midi":75,"time":514.7395833333313,"velocity":0.7637795275590551,"duration":0.24869791666662877},{"name":"G#4","midi":68,"time":514.9895833333313,"velocity":0.7637795275590551,"duration":0.24869791666662877},{"name":"A#3","midi":58,"time":514.9895833333313,"velocity":0.7637795275590551,"duration":0.49869791666662877},{"name":"G4","midi":67,"time":515.2395833333313,"velocity":0.7637795275590551,"duration":0.24869791666662877},{"name":"G#4","midi":68,"time":515.4895833333313,"velocity":0.7637795275590551,"duration":0.9986979166666288},{"name":"C4","midi":60,"time":515.4895833333313,"velocity":0.7637795275590551,"duration":0.24869791666662877},{"name":"D#4","midi":63,"time":515.7395833333313,"velocity":0.7637795275590551,"duration":0.24869791666662877},{"name":"G#3","midi":56,"time":515.9895833333313,"velocity":0.7637795275590551,"duration":0.24869791666662877},{"name":"G3","midi":55,"time":516.2395833333313,"velocity":0.7637795275590551,"duration":0.24869791666662877},{"name":"F3","midi":53,"time":516.4895833333313,"velocity":0.7637795275590551,"duration":0.49869791666662877},{"name":"C5","midi":72,"time":516.7395833333313,"velocity":0.7637795275590551,"duration":0.24869791666662877},{"name":"F4","midi":65,"time":516.9895833333313,"velocity":0.7637795275590551,"duration":0.24869791666662877},{"name":"G3","midi":55,"time":516.9895833333313,"velocity":0.7637795275590551,"duration":0.49869791666662877},{"name":"E4","midi":64,"time":517.2395833333313,"velocity":0.7637795275590551,"duration":0.24869791666662877},{"name":"F4","midi":65,"time":517.4895833333313,"velocity":0.7637795275590551,"duration":0.9986979166666288},{"name":"G#3","midi":56,"time":517.4895833333313,"velocity":0.7637795275590551,"duration":0.24869791666662877},{"name":"C4","midi":60,"time":517.7395833333313,"velocity":0.7637795275590551,"duration":0.24869791666662877},{"name":"F3","midi":53,"time":517.9895833333313,"velocity":0.7637795275590551,"duration":0.24869791666662877},{"name":"D#3","midi":51,"time":518.2395833333313,"velocity":0.7637795275590551,"duration":0.24869791666662877},{"name":"C#3","midi":49,"time":518.4895833333313,"velocity":0.7637795275590551,"duration":0.49869791666662877},{"name":"G#4","midi":68,"time":518.7395833333313,"velocity":0.7637795275590551,"duration":0.24869791666662877},{"name":"C#5","midi":73,"time":518.9895833333313,"velocity":0.7637795275590551,"duration":0.24869791666662877},{"name":"F3","midi":53,"time":518.9895833333313,"velocity":0.7637795275590551,"duration":0.49869791666662877},{"name":"C5","midi":72,"time":519.2395833333313,"velocity":0.7637795275590551,"duration":0.24869791666662877},{"name":"E5","midi":76,"time":519.4895833333313,"velocity":0.7637795275590551,"duration":0.24869791666662877},{"name":"G#2","midi":44,"time":519.4895833333313,"velocity":0.7637795275590551,"duration":0.49869791666662877},{"name":"F5","midi":77,"time":519.7395833333313,"velocity":0.7637795275590551,"duration":0.24869791666662877},{"name":"B4","midi":71,"time":519.9895833333313,"velocity":0.7637795275590551,"duration":0.24869791666662877},{"name":"F#3","midi":54,"time":519.9895833333313,"velocity":0.7637795275590551,"duration":0.49869791666662877},{"name":"C5","midi":72,"time":520.2395833333313,"velocity":0.7637795275590551,"duration":0.24869791666662877},{"name":"F#4","midi":66,"time":520.4895833333313,"velocity":0.7637795275590551,"duration":0.24869791666662877},{"name":"G3","midi":55,"time":520.4895833333313,"velocity":0.7637795275590551,"duration":0.49869791666662877},{"name":"G4","midi":67,"time":520.7395833333313,"velocity":0.7637795275590551,"duration":0.24869791666662877},{"name":"D#5","midi":75,"time":520.9895833333313,"velocity":0.7637795275590551,"duration":0.24869791666662877},{"name":"G2","midi":43,"time":520.9895833333313,"velocity":0.7637795275590551,"duration":0.49869791666662877},{"name":"B4","midi":71,"time":521.2395833333313,"velocity":0.7637795275590551,"duration":0.24869791666662877},{"name":"C5","midi":72,"time":521.4895833333313,"velocity":0.7637795275590551,"duration":0.9986979166666288},{"name":"C3","midi":48,"time":521.4895833333313,"velocity":0.7637795275590551,"duration":1.4973958333333712},{"name":"F4","midi":65,"time":521.7395833333313,"velocity":0.7637795275590551,"duration":0.24869791666662877},{"name":"D#4","midi":63,"time":521.9895833333313,"velocity":0.7637795275590551,"duration":0.24869791666662877},{"name":"D4","midi":62,"time":522.2395833333313,"velocity":0.7637795275590551,"duration":0.24869791666662877},{"name":"C5","midi":72,"time":522.4895833333313,"velocity":0.7637795275590551,"duration":2.7343750000001137},{"name":"G4","midi":67,"time":522.4895833333313,"velocity":0.7637795275590551,"duration":2.7343750000001137},{"name":"D#4","midi":63,"time":522.4895833333313,"velocity":0.7637795275590551,"duration":2.7343750000001137},{"name":"D#2","midi":39,"time":522.7708333333313,"velocity":0.7637795275590551,"duration":0.26041666666674246},{"name":"F2","midi":41,"time":523.0520833333314,"velocity":0.7637795275590551,"duration":0.26041666666662877},{"name":"G2","midi":43,"time":523.3333333333314,"velocity":0.7637795275590551,"duration":0.26041666666662877},{"name":"C2","midi":36,"time":523.6145833333314,"velocity":0.7637795275590551,"duration":1.8229166666666288},{"name":"C6","midi":84,"time":529.4895833333314,"velocity":0.7637795275590551,"duration":0.24869791666662877},{"name":"C5","midi":72,"time":529.7395833333314,"velocity":0.7637795275590551,"duration":0.24869791666662877},{"name":"D#5","midi":75,"time":529.9895833333314,"velocity":0.7637795275590551,"duration":0.06119791666662877},{"name":"D5","midi":74,"time":530.0520833333314,"velocity":0.7637795275590551,"duration":0.06119791666662877},{"name":"C5","midi":72,"time":530.1145833333314,"velocity":0.7637795275590551,"duration":0.06119791666662877},{"name":"D5","midi":74,"time":530.1770833333314,"velocity":0.7637795275590551,"duration":0.06119791666662877},{"name":"D#5","midi":75,"time":530.2395833333314,"velocity":0.7637795275590551,"duration":0.49869791666662877},{"name":"C5","midi":72,"time":530.2395833333314,"velocity":0.7637795275590551,"duration":0.24869791666662877},{"name":"C4","midi":60,"time":530.4895833333314,"velocity":0.7637795275590551,"duration":0.24869791666662877},{"name":"F5","midi":77,"time":530.7395833333314,"velocity":0.7637795275590551,"duration":0.24869791666662877},{"name":"D4","midi":62,"time":530.7395833333314,"velocity":0.7637795275590551,"duration":0.24869791666662877},{"name":"G5","midi":79,"time":530.9895833333314,"velocity":0.7637795275590551,"duration":0.24739583333337123},{"name":"D#4","midi":63,"time":530.9895833333314,"velocity":0.7637795275590551,"duration":0.24869791666674246},{"name":"G#4","midi":68,"time":531.2395833333316,"velocity":0.7637795275590551,"duration":0.49479166666662877},{"name":"F4","midi":65,"time":531.4895833333316,"velocity":0.7637795275590551,"duration":0.24869791666662877},{"name":"F5","midi":77,"time":531.7395833333316,"velocity":0.7637795275590551,"duration":0.24739583333337123},{"name":"D4","midi":62,"time":531.7395833333316,"velocity":0.7637795275590551,"duration":0.24869791666674246},{"name":"G4","midi":67,"time":531.9895833333317,"velocity":0.7637795275590551,"duration":0.49479166666662877},{"name":"D#4","midi":63,"time":532.2395833333317,"velocity":0.7637795275590551,"duration":0.24869791666662877},{"name":"D#5","midi":75,"time":532.4895833333317,"velocity":0.7637795275590551,"duration":0.24739583333337123},{"name":"C4","midi":60,"time":532.4895833333317,"velocity":0.7637795275590551,"duration":0.24869791666674246},{"name":"F4","midi":65,"time":532.7395833333318,"velocity":0.7637795275590551,"duration":0.49479166666662877},{"name":"D4","midi":62,"time":532.9895833333318,"velocity":0.7637795275590551,"duration":0.24869791666662877},{"name":"D5","midi":74,"time":533.2395833333318,"velocity":0.7637795275590551,"duration":0.24739583333337123},{"name":"B3","midi":59,"time":533.2395833333318,"velocity":0.7637795275590551,"duration":0.24869791666674246},{"name":"D#4","midi":63,"time":533.4895833333319,"velocity":0.7637795275590551,"duration":0.49479166666662877},{"name":"C4","midi":60,"time":533.7395833333319,"velocity":0.7637795275590551,"duration":0.24869791666662877},{"name":"G#3","midi":56,"time":533.9895833333319,"velocity":0.7637795275590551,"duration":0.24869791666662877},{"name":"C5","midi":72,"time":534.2395833333319,"velocity":0.7637795275590551,"duration":0.12369791666662877},{"name":"F3","midi":53,"time":534.2395833333319,"velocity":0.7637795275590551,"duration":0.24869791666662877},{"name":"B4","midi":71,"time":534.3645833333319,"velocity":0.7637795275590551,"duration":0.12369791666662877},{"name":"C5","midi":72,"time":534.4895833333319,"velocity":0.7637795275590551,"duration":0.12369791666662877},{"name":"D3","midi":50,"time":534.4895833333319,"velocity":0.7637795275590551,"duration":0.24869791666662877},{"name":"D5","midi":74,"time":534.6145833333319,"velocity":0.7637795275590551,"duration":0.12369791666662877},{"name":"B4","midi":71,"time":534.7395833333319,"velocity":0.7637795275590551,"duration":0.12369791666662877},{"name":"G3","midi":55,"time":534.7395833333319,"velocity":0.7637795275590551,"duration":0.37369791666662877},{"name":"A4","midi":69,"time":534.8645833333319,"velocity":0.7637795275590551,"duration":0.12369791666662877},{"name":"G4","midi":67,"time":534.9895833333319,"velocity":0.7637795275590551,"duration":0.12369791666662877},{"name":"F4","midi":65,"time":535.1145833333319,"velocity":0.7637795275590551,"duration":0.12369791666662877},{"name":"D#4","midi":63,"time":535.2395833333319,"velocity":0.7637795275590551,"duration":0.12369791666662877},{"name":"D4","midi":62,"time":535.3645833333319,"velocity":0.7637795275590551,"duration":0.12369791666662877},{"name":"C6","midi":84,"time":535.4895833333319,"velocity":0.7637795275590551,"duration":0.24869791666662877},{"name":"C4","midi":60,"time":535.4895833333319,"velocity":0.7637795275590551,"duration":0.7486979166666288},{"name":"C5","midi":72,"time":535.7395833333319,"velocity":0.7637795275590551,"duration":0.24869791666662877},{"name":"D5","midi":74,"time":535.9895833333319,"velocity":0.7637795275590551,"duration":0.24869791666662877},{"name":"D#5","midi":75,"time":536.2395833333319,"velocity":0.7637795275590551,"duration":0.49869791666662877},{"name":"C5","midi":72,"time":536.2395833333319,"velocity":0.7637795275590551,"duration":0.24869791666662877},{"name":"C4","midi":60,"time":536.4895833333319,"velocity":0.7637795275590551,"duration":0.24869791666662877},{"name":"F5","midi":77,"time":536.7395833333319,"velocity":0.7637795275590551,"duration":0.24869791666662877},{"name":"D4","midi":62,"time":536.7395833333319,"velocity":0.7637795275590551,"duration":0.24869791666662877},{"name":"G5","midi":79,"time":536.9895833333319,"velocity":0.7637795275590551,"duration":0.24739583333337123},{"name":"D#4","midi":63,"time":536.9895833333319,"velocity":0.7637795275590551,"duration":0.24869791666674246},{"name":"G#4","midi":68,"time":537.239583333332,"velocity":0.7637795275590551,"duration":0.24869791666662877},{"name":"F4","midi":65,"time":537.489583333332,"velocity":0.7637795275590551,"duration":0.24869791666662877},{"name":"F5","midi":77,"time":537.739583333332,"velocity":0.7637795275590551,"duration":0.24739583333337123},{"name":"D4","midi":62,"time":537.739583333332,"velocity":0.7637795275590551,"duration":0.24869791666674246},{"name":"G4","midi":67,"time":537.9895833333321,"velocity":0.7637795275590551,"duration":0.24869791666662877},{"name":"D#4","midi":63,"time":538.2395833333321,"velocity":0.7637795275590551,"duration":0.24869791666662877},{"name":"D#5","midi":75,"time":538.4895833333321,"velocity":0.7637795275590551,"duration":0.24739583333337123},{"name":"C4","midi":60,"time":538.4895833333321,"velocity":0.7637795275590551,"duration":0.24869791666674246},{"name":"F4","midi":65,"time":538.7395833333322,"velocity":0.7637795275590551,"duration":0.24869791666662877},{"name":"D4","midi":62,"time":538.9895833333322,"velocity":0.7637795275590551,"duration":0.24869791666662877},{"name":"D5","midi":74,"time":539.2395833333322,"velocity":0.7637795275590551,"duration":0.24739583333337123},{"name":"B3","midi":59,"time":539.2395833333322,"velocity":0.7637795275590551,"duration":0.24869791666674246},{"name":"D#4","midi":63,"time":539.4895833333323,"velocity":0.7637795275590551,"duration":0.24869791666662877},{"name":"C4","midi":60,"time":539.7395833333323,"velocity":0.7637795275590551,"duration":0.24869791666662877},{"name":"G#3","midi":56,"time":539.9895833333323,"velocity":0.7637795275590551,"duration":0.24869791666662877},{"name":"C5","midi":72,"time":540.1145833333323,"velocity":0.7637795275590551,"duration":0.12369791666662877},{"name":"D4","midi":62,"time":540.2395833333323,"velocity":0.7637795275590551,"duration":0.12369791666662877},{"name":"F3","midi":53,"time":540.2395833333323,"velocity":0.7637795275590551,"duration":0.24869791666662877},{"name":"F4","midi":65,"time":540.3645833333323,"velocity":0.7637795275590551,"duration":0.12369791666662877},{"name":"C5","midi":72,"time":540.4895833333323,"velocity":0.7637795275590551,"duration":0.12369791666662877},{"name":"G3","midi":55,"time":540.4895833333323,"velocity":0.7637795275590551,"duration":0.24869791666662877},{"name":"B4","midi":71,"time":540.6145833333323,"velocity":0.7637795275590551,"duration":0.12369791666662877},{"name":"C5","midi":72,"time":540.7395833333323,"velocity":0.7637795275590551,"duration":0.625},{"name":"C3","midi":48,"time":540.7395833333323,"velocity":0.7637795275590551,"duration":0.24869791666662877},{"name":"G2","midi":43,"time":540.9895833333323,"velocity":0.7637795275590551,"duration":0.24869791666662877},{"name":"D#2","midi":39,"time":541.2395833333323,"velocity":0.7637795275590551,"duration":0.24869791666662877},{"name":"D#4","midi":63,"time":541.4895833333323,"velocity":0.7637795275590551,"duration":0.12369791666662877},{"name":"C2","midi":36,"time":541.4895833333323,"velocity":0.7637795275590551,"duration":0.36458333333337123},{"name":"D4","midi":62,"time":541.6145833333323,"velocity":0.7637795275590551,"duration":0.12369791666662877},{"name":"D#4","midi":63,"time":541.7395833333323,"velocity":0.7637795275590551,"duration":0.12369791666674246},{"name":"F4","midi":65,"time":541.8645833333325,"velocity":0.7637795275590551,"duration":0.12369791666662877},{"name":"G4","midi":67,"time":541.9895833333325,"velocity":0.7637795275590551,"duration":0.12369791666662877},{"name":"G#4","midi":68,"time":542.1145833333325,"velocity":0.7637795275590551,"duration":0.12369791666662877},{"name":"A#4","midi":70,"time":542.2395833333325,"velocity":0.7637795275590551,"duration":0.12369791666662877},{"name":"G3","midi":55,"time":542.2395833333325,"velocity":0.7637795275590551,"duration":0.24869791666662877},{"name":"D#5","midi":75,"time":542.3645833333325,"velocity":0.7637795275590551,"duration":0.12369791666662877},{"name":"A#4","midi":70,"time":542.4895833333325,"velocity":0.7637795275590551,"duration":0.12369791666662877},{"name":"F3","midi":53,"time":542.4895833333325,"velocity":0.7637795275590551,"duration":0.24869791666662877},{"name":"G#4","midi":68,"time":542.6145833333325,"velocity":0.7637795275590551,"duration":0.12369791666662877},{"name":"A#4","midi":70,"time":542.7395833333325,"velocity":0.7637795275590551,"duration":0.28645833333337123},{"name":"D#3","midi":51,"time":542.7395833333325,"velocity":0.7637795275590551,"duration":0.24869791666662877},{"name":"D3","midi":50,"time":542.9895833333325,"velocity":0.7637795275590551,"duration":0.24869791666662877},{"name":"F5","midi":77,"time":543.1145833333325,"velocity":0.7637795275590551,"duration":0.12369791666662877},{"name":"A#4","midi":70,"time":543.2395833333325,"velocity":0.7637795275590551,"duration":0.12369791666662877},{"name":"C3","midi":48,"time":543.2395833333325,"velocity":0.7637795275590551,"duration":0.24869791666662877},{"name":"G#4","midi":68,"time":543.3645833333325,"velocity":0.7637795275590551,"duration":0.12369791666662877},{"name":"A#4","midi":70,"time":543.4895833333325,"velocity":0.7637795275590551,"duration":0.28645833333337123},{"name":"A#2","midi":46,"time":543.4895833333325,"velocity":0.7637795275590551,"duration":0.24869791666662877},{"name":"D#3","midi":51,"time":543.7395833333325,"velocity":0.7637795275590551,"duration":0.24869791666662877},{"name":"G5","midi":79,"time":543.8645833333325,"velocity":0.7637795275590551,"duration":0.12369791666662877},{"name":"A#4","midi":70,"time":543.9895833333325,"velocity":0.7637795275590551,"duration":0.12369791666662877},{"name":"G3","midi":55,"time":543.9895833333325,"velocity":0.7637795275590551,"duration":0.24869791666662877},{"name":"G#4","midi":68,"time":544.1145833333325,"velocity":0.7637795275590551,"duration":0.12369791666662877},{"name":"A#4","midi":70,"time":544.2395833333325,"velocity":0.7637795275590551,"duration":0.28645833333337123},{"name":"F3","midi":53,"time":544.2395833333325,"velocity":0.7637795275590551,"duration":0.24869791666662877},{"name":"E3","midi":52,"time":544.4895833333325,"velocity":0.7637795275590551,"duration":0.24869791666662877},{"name":"C#5","midi":73,"time":544.6145833333325,"velocity":0.7637795275590551,"duration":0.12369791666662877},{"name":"C5","midi":72,"time":544.7395833333325,"velocity":0.7637795275590551,"duration":0.12369791666662877},{"name":"G3","midi":55,"time":544.7395833333325,"velocity":0.7637795275590551,"duration":0.24869791666662877},{"name":"A#4","midi":70,"time":544.8645833333325,"velocity":0.7637795275590551,"duration":0.12369791666662877},{"name":"G#4","midi":68,"time":544.9895833333325,"velocity":0.7637795275590551,"duration":0.12369791666662877},{"name":"C3","midi":48,"time":544.9895833333325,"velocity":0.7637795275590551,"duration":0.24869791666662877},{"name":"G4","midi":67,"time":545.1145833333325,"velocity":0.7637795275590551,"duration":0.12369791666662877},{"name":"G#4","midi":68,"time":545.2395833333325,"velocity":0.7637795275590551,"duration":0.12369791666662877},{"name":"F3","midi":53,"time":545.2395833333325,"velocity":0.7637795275590551,"duration":0.24869791666662877},{"name":"C5","midi":72,"time":545.3645833333325,"velocity":0.7637795275590551,"duration":0.12369791666662877},{"name":"F5","midi":77,"time":545.4895833333325,"velocity":0.7637795275590551,"duration":0.12369791666662877},{"name":"G#3","midi":56,"time":545.4895833333325,"velocity":0.7637795275590551,"duration":0.24869791666662877},{"name":"C5","midi":72,"time":545.6145833333325,"velocity":0.7637795275590551,"duration":0.10416666666662877},{"name":"G#5","midi":80,"time":545.7395833333325,"velocity":0.7637795275590551,"duration":0.37369791666662877},{"name":"C#3","midi":49,"time":545.7395833333325,"velocity":0.7637795275590551,"duration":0.24869791666662877},{"name":"A#3","midi":58,"time":545.9895833333325,"velocity":0.7637795275590551,"duration":0.24869791666662877},{"name":"F5","midi":77,"time":546.1145833333325,"velocity":0.7637795275590551,"duration":0.109375},{"name":"G#5","midi":80,"time":546.2395833333325,"velocity":0.7637795275590551,"duration":0.12369791666662877},{"name":"C3","midi":48,"time":546.2395833333325,"velocity":0.7637795275590551,"duration":0.24869791666662877},{"name":"G5","midi":79,"time":546.3645833333325,"velocity":0.7637795275590551,"duration":0.12369791666662877},{"name":"F5","midi":77,"time":546.4895833333325,"velocity":0.7637795275590551,"duration":0.12369791666662877},{"name":"C4","midi":60,"time":546.4895833333325,"velocity":0.7637795275590551,"duration":0.24869791666662877},{"name":"E5","midi":76,"time":546.6145833333325,"velocity":0.7637795275590551,"duration":0.12369791666662877},{"name":"F5","midi":77,"time":546.7395833333325,"velocity":0.7637795275590551,"duration":0.625},{"name":"A#3","midi":58,"time":546.7395833333325,"velocity":0.7637795275590551,"duration":0.12369791666662877},{"name":"G#3","midi":56,"time":546.8645833333325,"velocity":0.7637795275590551,"duration":0.12369791666662877},{"name":"A#3","midi":58,"time":546.9895833333325,"velocity":0.7637795275590551,"duration":0.12369791666662877},{"name":"G#3","midi":56,"time":547.1145833333325,"velocity":0.7637795275590551,"duration":0.12369791666662877},{"name":"G3","midi":55,"time":547.2395833333325,"velocity":0.7637795275590551,"duration":0.12369791666662877},{"name":"F3","midi":53,"time":547.3645833333325,"velocity":0.7637795275590551,"duration":0.12369791666662877},{"name":"A#3","midi":58,"time":547.4895833333325,"velocity":0.7637795275590551,"duration":0.24869791666662877},{"name":"G#5","midi":80,"time":547.6145833333325,"velocity":0.7637795275590551,"duration":0.12369791666662877},{"name":"D5","midi":74,"time":547.7395833333325,"velocity":0.7637795275590551,"duration":0.12369791666662877},{"name":"F3","midi":53,"time":547.7395833333325,"velocity":0.7637795275590551,"duration":0.24869791666662877},{"name":"D#5","midi":75,"time":547.8645833333325,"velocity":0.7637795275590551,"duration":0.12369791666662877},{"name":"F5","midi":77,"time":547.9895833333325,"velocity":0.7637795275590551,"duration":0.12369791666662877},{"name":"G#3","midi":56,"time":547.9895833333325,"velocity":0.7637795275590551,"duration":0.24869791666662877},{"name":"D5","midi":74,"time":548.1145833333325,"velocity":0.7637795275590551,"duration":0.12369791666662877},{"name":"C5","midi":72,"time":548.2395833333325,"velocity":0.7637795275590551,"duration":0.12369791666662877},{"name":"D3","midi":50,"time":548.2395833333325,"velocity":0.7637795275590551,"duration":0.24869791666662877},{"name":"A#4","midi":70,"time":548.3645833333325,"velocity":0.7637795275590551,"duration":0.12369791666662877},{"name":"C5","midi":72,"time":548.4895833333325,"velocity":0.7637795275590551,"duration":0.12369791666662877},{"name":"F3","midi":53,"time":548.4895833333325,"velocity":0.7637795275590551,"duration":0.24869791666662877},{"name":"D5","midi":74,"time":548.6145833333325,"velocity":0.7637795275590551,"duration":0.12369791666662877},{"name":"D#5","midi":75,"time":548.7395833333325,"velocity":0.7637795275590551,"duration":0.12369791666662877},{"name":"A#2","midi":46,"time":548.7395833333325,"velocity":0.7637795275590551,"duration":0.24869791666662877},{"name":"F5","midi":77,"time":548.8645833333325,"velocity":0.7637795275590551,"duration":0.12369791666662877},{"name":"G5","midi":79,"time":548.9895833333325,"velocity":0.7637795275590551,"duration":0.12369791666662877},{"name":"D#2","midi":39,"time":548.9895833333325,"velocity":0.7637795275590551,"duration":0.24869791666662877},{"name":"A#5","midi":82,"time":549.1145833333325,"velocity":0.7637795275590551,"duration":0.12369791666662877},{"name":"D#5","midi":75,"time":549.2395833333325,"velocity":0.7637795275590551,"duration":0.12369791666662877},{"name":"G3","midi":55,"time":549.2395833333325,"velocity":0.7637795275590551,"duration":0.24869791666662877},{"name":"F5","midi":77,"time":549.3645833333325,"velocity":0.7637795275590551,"duration":0.12369791666662877},{"name":"G5","midi":79,"time":549.4895833333325,"velocity":0.7637795275590551,"duration":0.12369791666662877},{"name":"A#3","midi":58,"time":549.4895833333325,"velocity":0.7637795275590551,"duration":0.24869791666662877},{"name":"D#5","midi":75,"time":549.6145833333325,"velocity":0.7637795275590551,"duration":0.12369791666662877},{"name":"C#5","midi":73,"time":549.7395833333325,"velocity":0.7637795275590551,"duration":0.12369791666662877},{"name":"E3","midi":52,"time":549.7395833333325,"velocity":0.7637795275590551,"duration":0.24869791666662877},{"name":"C5","midi":72,"time":549.8645833333325,"velocity":0.7637795275590551,"duration":0.12369791666662877},{"name":"D5","midi":74,"time":549.9895833333325,"velocity":0.7637795275590551,"duration":0.12369791666662877},{"name":"G3","midi":55,"time":549.9895833333325,"velocity":0.7637795275590551,"duration":0.24869791666662877},{"name":"E5","midi":76,"time":550.1145833333325,"velocity":0.7637795275590551,"duration":0.12369791666662877},{"name":"F5","midi":77,"time":550.2395833333325,"velocity":0.7637795275590551,"duration":0.12369791666662877},{"name":"C3","midi":48,"time":550.2395833333325,"velocity":0.7637795275590551,"duration":0.24869791666662877},{"name":"G5","midi":79,"time":550.3645833333325,"velocity":0.7637795275590551,"duration":0.12369791666662877},{"name":"G#5","midi":80,"time":550.4895833333325,"velocity":0.7637795275590551,"duration":0.12369791666662877},{"name":"F2","midi":41,"time":550.4895833333325,"velocity":0.7637795275590551,"duration":0.24869791666662877},{"name":"C6","midi":84,"time":550.6145833333325,"velocity":0.7637795275590551,"duration":0.12369791666662877},{"name":"F5","midi":77,"time":550.7395833333325,"velocity":0.7637795275590551,"duration":0.12369791666662877},{"name":"G#3","midi":56,"time":550.7395833333325,"velocity":0.7637795275590551,"duration":0.24869791666662877},{"name":"G5","midi":79,"time":550.8645833333325,"velocity":0.7637795275590551,"duration":0.12369791666662877},{"name":"G#5","midi":80,"time":550.9895833333325,"velocity":0.7637795275590551,"duration":0.12369791666662877},{"name":"C4","midi":60,"time":550.9895833333325,"velocity":0.7637795275590551,"duration":0.24869791666662877},{"name":"F5","midi":77,"time":551.1145833333325,"velocity":0.7637795275590551,"duration":0.12369791666662877},{"name":"D#5","midi":75,"time":551.2395833333325,"velocity":0.7637795275590551,"duration":0.12369791666662877},{"name":"F3","midi":53,"time":551.2395833333325,"velocity":0.7637795275590551,"duration":0.24869791666662877},{"name":"C#5","midi":73,"time":551.3645833333325,"velocity":0.7637795275590551,"duration":0.12369791666662877},{"name":"C5","midi":72,"time":551.4895833333325,"velocity":0.7637795275590551,"duration":0.12369791666662877},{"name":"G#3","midi":56,"time":551.4895833333325,"velocity":0.7637795275590551,"duration":0.24869791666662877},{"name":"B4","midi":71,"time":551.6145833333325,"velocity":0.7637795275590551,"duration":0.12369791666662877},{"name":"G5","midi":79,"time":551.7395833333325,"velocity":0.7637795275590551,"duration":0.33854166666662877},{"name":"D3","midi":50,"time":551.7395833333325,"velocity":0.7637795275590551,"duration":0.24869791666662877},{"name":"D#3","midi":51,"time":551.9895833333325,"velocity":0.7637795275590551,"duration":0.24869791666662877},{"name":"C5","midi":72,"time":552.1145833333325,"velocity":0.7637795275590551,"duration":0.12369791666662877},{"name":"F5","midi":77,"time":552.2395833333325,"velocity":0.7637795275590551,"duration":0.12369791666662877},{"name":"G#2","midi":44,"time":552.2395833333325,"velocity":0.7637795275590551,"duration":0.24869791666662877},{"name":"D#5","midi":75,"time":552.3645833333325,"velocity":0.7637795275590551,"duration":0.12369791666662877},{"name":"D5","midi":74,"time":552.4895833333325,"velocity":0.7637795275590551,"duration":0.12369791666662877},{"name":"F3","midi":53,"time":552.4895833333325,"velocity":0.7637795275590551,"duration":0.24869791666662877},{"name":"C5","midi":72,"time":552.6145833333325,"velocity":0.7637795275590551,"duration":0.12369791666662877},{"name":"B4","midi":71,"time":552.7395833333325,"velocity":0.7637795275590551,"duration":0.12369791666662877},{"name":"G2","midi":43,"time":552.7395833333325,"velocity":0.7637795275590551,"duration":0.24869791666662877},{"name":"C5","midi":72,"time":552.8645833333325,"velocity":0.7637795275590551,"duration":0.12369791666662877},{"name":"D5","midi":74,"time":552.9895833333325,"velocity":0.7637795275590551,"duration":0.12369791666662877},{"name":"G3","midi":55,"time":552.9895833333325,"velocity":0.7637795275590551,"duration":0.37369791666662877},{"name":"B4","midi":71,"time":553.1145833333325,"velocity":0.7637795275590551,"duration":0.12369791666662877},{"name":"G4","midi":67,"time":553.2395833333325,"velocity":0.7637795275590551,"duration":0.12369791666662877},{"name":"F4","midi":65,"time":553.3645833333325,"velocity":0.7637795275590551,"duration":0.12369791666662877},{"name":"C6","midi":84,"time":553.4895833333325,"velocity":0.7637795275590551,"duration":0.24869791666662877},{"name":"D#4","midi":63,"time":553.4895833333325,"velocity":0.7637795275590551,"duration":0.12369791666662877},{"name":"F4","midi":65,"time":553.6145833333325,"velocity":0.7637795275590551,"duration":0.12369791666662877},{"name":"C5","midi":72,"time":553.7395833333325,"velocity":0.7637795275590551,"duration":0.24869791666662877},{"name":"G4","midi":67,"time":553.7395833333325,"velocity":0.7637795275590551,"duration":0.12369791666662877},{"name":"A4","midi":69,"time":553.8645833333325,"velocity":0.7637795275590551,"duration":0.12369791666662877},{"name":"D5","midi":74,"time":553.9895833333325,"velocity":0.7637795275590551,"duration":0.24869791666662877},{"name":"B4","midi":71,"time":553.9895833333325,"velocity":0.7637795275590551,"duration":0.12369791666662877},{"name":"G4","midi":67,"time":554.1145833333325,"velocity":0.7637795275590551,"duration":0.12369791666662877},{"name":"D#5","midi":75,"time":554.2395833333325,"velocity":0.7637795275590551,"duration":0.49869791666662877},{"name":"C5","midi":72,"time":554.2395833333325,"velocity":0.7637795275590551,"duration":0.24869791666662877},{"name":"C4","midi":60,"time":554.4895833333325,"velocity":0.7637795275590551,"duration":0.24869791666662877},{"name":"F5","midi":77,"time":554.7395833333325,"velocity":0.7637795275590551,"duration":0.24869791666662877},{"name":"D4","midi":62,"time":554.7395833333325,"velocity":0.7637795275590551,"duration":0.24869791666662877},{"name":"G5","midi":79,"time":554.9895833333325,"velocity":0.7637795275590551,"duration":0.49479166666662877},{"name":"D#4","midi":63,"time":554.9895833333325,"velocity":0.7637795275590551,"duration":0.24869791666662877},{"name":"G#4","midi":68,"time":555.2395833333325,"velocity":0.7637795275590551,"duration":0.24869791666662877},{"name":"F4","midi":65,"time":555.4895833333325,"velocity":0.7637795275590551,"duration":0.24869791666662877},{"name":"F5","midi":77,"time":555.7395833333325,"velocity":0.7637795275590551,"duration":0.49479166666662877},{"name":"D4","midi":62,"time":555.7395833333325,"velocity":0.7637795275590551,"duration":0.24869791666662877},{"name":"G4","midi":67,"time":555.9895833333325,"velocity":0.7637795275590551,"duration":0.24869791666662877},{"name":"D#4","midi":63,"time":556.2395833333325,"velocity":0.7637795275590551,"duration":0.24869791666662877},{"name":"D#5","midi":75,"time":556.4895833333325,"velocity":0.7637795275590551,"duration":0.49479166666662877},{"name":"C4","midi":60,"time":556.4895833333325,"velocity":0.7637795275590551,"duration":0.24869791666662877},{"name":"F4","midi":65,"time":556.7395833333325,"velocity":0.7637795275590551,"duration":0.24869791666662877},{"name":"D4","midi":62,"time":556.9895833333325,"velocity":0.7637795275590551,"duration":0.24869791666662877},{"name":"D5","midi":74,"time":557.2395833333325,"velocity":0.7637795275590551,"duration":0.49479166666662877},{"name":"B3","midi":59,"time":557.2395833333325,"velocity":0.7637795275590551,"duration":0.24869791666662877},{"name":"D#4","midi":63,"time":557.4895833333325,"velocity":0.7637795275590551,"duration":0.24869791666662877},{"name":"C4","midi":60,"time":557.7395833333325,"velocity":0.7637795275590551,"duration":0.24869791666662877},{"name":"G#3","midi":56,"time":557.9895833333325,"velocity":0.7637795275590551,"duration":0.24869791666662877},{"name":"C5","midi":72,"time":558.2395833333325,"velocity":0.7637795275590551,"duration":0.12369791666662877},{"name":"F3","midi":53,"time":558.2395833333325,"velocity":0.7637795275590551,"duration":0.24869791666662877},{"name":"B4","midi":71,"time":558.3645833333325,"velocity":0.7637795275590551,"duration":0.12369791666662877},{"name":"C5","midi":72,"time":558.4895833333325,"velocity":0.7637795275590551,"duration":0.12369791666662877},{"name":"D3","midi":50,"time":558.4895833333325,"velocity":0.7637795275590551,"duration":0.24869791666662877},{"name":"D5","midi":74,"time":558.6145833333325,"velocity":0.7637795275590551,"duration":0.12369791666662877},{"name":"B4","midi":71,"time":558.7395833333325,"velocity":0.7637795275590551,"duration":0.12369791666662877},{"name":"G3","midi":55,"time":558.7395833333325,"velocity":0.7637795275590551,"duration":0.24739583333337123},{"name":"A4","midi":69,"time":558.8645833333325,"velocity":0.7637795275590551,"duration":0.12369791666674246},{"name":"G4","midi":67,"time":558.9895833333326,"velocity":0.7637795275590551,"duration":0.49479166666662877},{"name":"F4","midi":65,"time":559.1145833333326,"velocity":0.7637795275590551,"duration":0.12369791666662877},{"name":"D#4","midi":63,"time":559.2395833333326,"velocity":0.7637795275590551,"duration":0.12369791666662877},{"name":"D4","midi":62,"time":559.3645833333326,"velocity":0.7637795275590551,"duration":0.12369791666662877},{"name":"C6","midi":84,"time":559.4895833333326,"velocity":0.7637795275590551,"duration":0.24869791666674246},{"name":"C4","midi":60,"time":559.4895833333326,"velocity":0.7637795275590551,"duration":0.24739583333337123},{"name":"C5","midi":72,"time":559.7395833333327,"velocity":0.7637795275590551,"duration":0.9986979166666288},{"name":"D5","midi":74,"time":559.9895833333327,"velocity":0.7637795275590551,"duration":0.24869791666662877},{"name":"D#5","midi":75,"time":560.2395833333327,"velocity":0.7637795275590551,"duration":0.49869791666662877},{"name":"C4","midi":60,"time":560.4895833333327,"velocity":0.7637795275590551,"duration":0.24869791666662877},{"name":"F5","midi":77,"time":560.7395833333327,"velocity":0.7637795275590551,"duration":0.24869791666662877},{"name":"D4","midi":62,"time":560.7395833333327,"velocity":0.7637795275590551,"duration":0.24869791666662877},{"name":"G5","midi":79,"time":560.9895833333327,"velocity":0.7637795275590551,"duration":0.24739583333337123},{"name":"D#4","midi":63,"time":560.9895833333327,"velocity":0.7637795275590551,"duration":0.7486979166666288},{"name":"G#4","midi":68,"time":561.2395833333327,"velocity":0.7637795275590551,"duration":0.24869791666662877},{"name":"F4","midi":65,"time":561.4895833333327,"velocity":0.7637795275590551,"duration":0.24869791666662877},{"name":"F5","midi":77,"time":561.7395833333327,"velocity":0.7637795275590551,"duration":0.24739583333337123},{"name":"D4","midi":62,"time":561.7395833333327,"velocity":0.7637795275590551,"duration":0.7486979166666288},{"name":"G4","midi":67,"time":561.9895833333327,"velocity":0.7637795275590551,"duration":0.24869791666662877},{"name":"D#4","midi":63,"time":562.2395833333327,"velocity":0.7637795275590551,"duration":0.24869791666662877},{"name":"D#5","midi":75,"time":562.4895833333327,"velocity":0.7637795275590551,"duration":0.24739583333337123},{"name":"C4","midi":60,"time":562.4895833333327,"velocity":0.7637795275590551,"duration":0.7486979166666288},{"name":"F4","midi":65,"time":562.7395833333327,"velocity":0.7637795275590551,"duration":0.24869791666662877},{"name":"D4","midi":62,"time":562.9895833333327,"velocity":0.7637795275590551,"duration":0.24869791666662877},{"name":"D5","midi":74,"time":563.2395833333327,"velocity":0.7637795275590551,"duration":0.24739583333337123},{"name":"B3","midi":59,"time":563.2395833333327,"velocity":0.7637795275590551,"duration":0.49479166666662877},{"name":"D#4","midi":63,"time":563.4895833333327,"velocity":0.7637795275590551,"duration":0.24869791666662877},{"name":"C4","midi":60,"time":563.7395833333327,"velocity":0.7637795275590551,"duration":0.24869791666662877},{"name":"G#3","midi":56,"time":563.9895833333327,"velocity":0.7637795275590551,"duration":0.24869791666662877},{"name":"C5","midi":72,"time":564.1145833333327,"velocity":0.7637795275590551,"duration":0.12369791666662877},{"name":"D4","midi":62,"time":564.2395833333327,"velocity":0.7637795275590551,"duration":0.12369791666662877},{"name":"F3","midi":53,"time":564.2395833333327,"velocity":0.7637795275590551,"duration":0.24869791666662877},{"name":"F4","midi":65,"time":564.3645833333327,"velocity":0.7637795275590551,"duration":0.12369791666662877},{"name":"C5","midi":72,"time":564.4895833333327,"velocity":0.7637795275590551,"duration":0.12369791666662877},{"name":"G3","midi":55,"time":564.4895833333327,"velocity":0.7637795275590551,"duration":0.24869791666662877},{"name":"B4","midi":71,"time":564.6145833333327,"velocity":0.7637795275590551,"duration":0.12369791666662877},{"name":"C5","midi":72,"time":564.7395833333327,"velocity":0.7637795275590551,"duration":0.49479166666662877},{"name":"C3","midi":48,"time":564.7395833333327,"velocity":0.7637795275590551,"duration":0.12369791666662877},{"name":"D#3","midi":51,"time":564.8645833333327,"velocity":0.7637795275590551,"duration":0.12369791666662877},{"name":"G3","midi":55,"time":564.9895833333327,"velocity":0.7637795275590551,"duration":0.12369791666662877},{"name":"C3","midi":48,"time":565.1145833333327,"velocity":0.7637795275590551,"duration":0.12369791666662877},{"name":"D#3","midi":51,"time":565.2395833333327,"velocity":0.7637795275590551,"duration":0.12369791666662877},{"name":"G3","midi":55,"time":565.3645833333327,"velocity":0.7637795275590551,"duration":0.12369791666662877},{"name":"C4","midi":60,"time":565.4895833333327,"velocity":0.7637795275590551,"duration":0.49479166666662877},{"name":"D#5","midi":75,"time":565.6145833333327,"velocity":0.7637795275590551,"duration":0.12369791666662877},{"name":"C5","midi":72,"time":565.7395833333327,"velocity":0.7637795275590551,"duration":0.12369791666662877},{"name":"C3","midi":48,"time":565.7395833333327,"velocity":0.7637795275590551,"duration":0.24869791666662877},{"name":"G4","midi":67,"time":565.8645833333327,"velocity":0.7637795275590551,"duration":0.12369791666662877},{"name":"G#4","midi":68,"time":565.9895833333327,"velocity":0.7637795275590551,"duration":0.12369791666662877},{"name":"C4","midi":60,"time":565.9895833333327,"velocity":0.7637795275590551,"duration":0.5989583333333712},{"name":"D#4","midi":63,"time":566.1145833333327,"velocity":0.7637795275590551,"duration":0.12369791666662877},{"name":"F4","midi":65,"time":566.2395833333327,"velocity":0.7637795275590551,"duration":0.12369791666662877},{"name":"G#4","midi":68,"time":566.3645833333327,"velocity":0.7637795275590551,"duration":0.12369791666662877},{"name":"D5","midi":74,"time":566.4895833333327,"velocity":0.7637795275590551,"duration":0.6236979166667425},{"name":"C3","midi":48,"time":566.4895833333327,"velocity":0.7637795275590551,"duration":0.12369791666674246},{"name":"C4","midi":60,"time":566.6145833333328,"velocity":0.7637795275590551,"duration":0.12369791666662877},{"name":"A#3","midi":58,"time":566.7395833333328,"velocity":0.7637795275590551,"duration":0.12369791666662877},{"name":"G#3","midi":56,"time":566.8645833333328,"velocity":0.7637795275590551,"duration":0.12369791666662877},{"name":"A#3","midi":58,"time":566.9895833333328,"velocity":0.7637795275590551,"duration":0.49479166666662877},{"name":"D5","midi":74,"time":567.1145833333328,"velocity":0.7637795275590551,"duration":0.12369791666662877},{"name":"A#4","midi":70,"time":567.2395833333328,"velocity":0.7637795275590551,"duration":0.12369791666662877},{"name":"A#2","midi":46,"time":567.2395833333328,"velocity":0.7637795275590551,"duration":0.24869791666662877},{"name":"F#4","midi":66,"time":567.3645833333328,"velocity":0.7637795275590551,"duration":0.12369791666662877},{"name":"G4","midi":67,"time":567.4895833333328,"velocity":0.7637795275590551,"duration":0.12369791666662877},{"name":"A#3","midi":58,"time":567.4895833333328,"velocity":0.7637795275590551,"duration":0.5598958333333712},{"name":"D4","midi":62,"time":567.6145833333328,"velocity":0.7637795275590551,"duration":0.12369791666662877},{"name":"E4","midi":64,"time":567.7395833333328,"velocity":0.7637795275590551,"duration":0.12369791666662877},{"name":"G4","midi":67,"time":567.8645833333328,"velocity":0.7637795275590551,"duration":0.12369791666662877},{"name":"C5","midi":72,"time":567.9895833333328,"velocity":0.7637795275590551,"duration":0.6236979166667425},{"name":"A#2","midi":46,"time":567.9895833333328,"velocity":0.7637795275590551,"duration":0.12369791666674246},{"name":"A#3","midi":58,"time":568.1145833333329,"velocity":0.7637795275590551,"duration":0.12369791666662877},{"name":"G#3","midi":56,"time":568.2395833333329,"velocity":0.7637795275590551,"duration":0.12369791666662877},{"name":"G3","midi":55,"time":568.3645833333329,"velocity":0.7637795275590551,"duration":0.12369791666662877},{"name":"G#3","midi":56,"time":568.4895833333329,"velocity":0.7637795275590551,"duration":0.49479166666662877},{"name":"C5","midi":72,"time":568.6145833333329,"velocity":0.7637795275590551,"duration":0.12369791666662877},{"name":"G#4","midi":68,"time":568.7395833333329,"velocity":0.7637795275590551,"duration":0.12369791666662877},{"name":"G#2","midi":44,"time":568.7395833333329,"velocity":0.7637795275590551,"duration":0.24869791666662877},{"name":"E4","midi":64,"time":568.8645833333329,"velocity":0.7637795275590551,"duration":0.12369791666662877},{"name":"F4","midi":65,"time":568.9895833333329,"velocity":0.7637795275590551,"duration":0.12369791666662877},{"name":"G#3","midi":56,"time":568.9895833333329,"velocity":0.7637795275590551,"duration":0.5598958333333712},{"name":"C4","midi":60,"time":569.1145833333329,"velocity":0.7637795275590551,"duration":0.12369791666662877},{"name":"D4","midi":62,"time":569.2395833333329,"velocity":0.7637795275590551,"duration":0.12369791666662877},{"name":"F4","midi":65,"time":569.3645833333329,"velocity":0.7637795275590551,"duration":0.12369791666662877},{"name":"A#4","midi":70,"time":569.4895833333329,"velocity":0.7637795275590551,"duration":0.6236979166667425},{"name":"G#2","midi":44,"time":569.4895833333329,"velocity":0.7637795275590551,"duration":0.12369791666674246},{"name":"G#3","midi":56,"time":569.614583333333,"velocity":0.7637795275590551,"duration":0.12369791666662877},{"name":"G3","midi":55,"time":569.739583333333,"velocity":0.7637795275590551,"duration":0.12369791666662877},{"name":"F3","midi":53,"time":569.864583333333,"velocity":0.7637795275590551,"duration":0.12369791666662877},{"name":"G3","midi":55,"time":569.989583333333,"velocity":0.7637795275590551,"duration":0.24869791666662877},{"name":"A#4","midi":70,"time":570.114583333333,"velocity":0.7637795275590551,"duration":0.12369791666662877},{"name":"C5","midi":72,"time":570.239583333333,"velocity":0.7637795275590551,"duration":0.12369791666662877},{"name":"F3","midi":53,"time":570.239583333333,"velocity":0.7637795275590551,"duration":0.24869791666662877},{"name":"D5","midi":74,"time":570.364583333333,"velocity":0.7637795275590551,"duration":0.12369791666662877},{"name":"D#5","midi":75,"time":570.489583333333,"velocity":0.7637795275590551,"duration":0.12369791666662877},{"name":"D#3","midi":51,"time":570.489583333333,"velocity":0.7637795275590551,"duration":0.24869791666662877},{"name":"F5","midi":77,"time":570.614583333333,"velocity":0.7637795275590551,"duration":0.12369791666662877},{"name":"G5","midi":79,"time":570.739583333333,"velocity":0.7637795275590551,"duration":0.12369791666662877},{"name":"A#3","midi":58,"time":570.739583333333,"velocity":0.7637795275590551,"duration":0.49479166666662877},{"name":"D#5","midi":75,"time":570.864583333333,"velocity":0.7637795275590551,"duration":0.12369791666662877},{"name":"F5","midi":77,"time":570.989583333333,"velocity":0.7637795275590551,"duration":0.12369791666662877},{"name":"A#2","midi":46,"time":570.989583333333,"velocity":0.7637795275590551,"duration":0.24869791666662877},{"name":"D5","midi":74,"time":571.114583333333,"velocity":0.7637795275590551,"duration":0.12369791666662877},{"name":"A#4","midi":70,"time":571.239583333333,"velocity":0.7637795275590551,"duration":0.12369791666662877},{"name":"A#3","midi":58,"time":571.239583333333,"velocity":0.7637795275590551,"duration":0.49869791666662877},{"name":"D5","midi":74,"time":571.364583333333,"velocity":0.7637795275590551,"duration":0.12369791666662877},{"name":"F5","midi":77,"time":571.489583333333,"velocity":0.7637795275590551,"duration":0.12369791666662877},{"name":"G#5","midi":80,"time":571.614583333333,"velocity":0.7637795275590551,"duration":0.12369791666662877},{"name":"G5","midi":79,"time":571.739583333333,"velocity":0.7637795275590551,"duration":0.12369791666662877},{"name":"D#3","midi":51,"time":571.739583333333,"velocity":0.7637795275590551,"duration":0.24869791666662877},{"name":"D#5","midi":75,"time":571.864583333333,"velocity":0.7637795275590551,"duration":0.12369791666662877},{"name":"A#4","midi":70,"time":571.989583333333,"velocity":0.7637795275590551,"duration":0.12369791666662877},{"name":"F3","midi":53,"time":571.989583333333,"velocity":0.7637795275590551,"duration":0.24869791666662877},{"name":"D5","midi":74,"time":572.114583333333,"velocity":0.7637795275590551,"duration":0.12369791666662877},{"name":"D#5","midi":75,"time":572.239583333333,"velocity":0.7637795275590551,"duration":0.12369791666662877},{"name":"G3","midi":55,"time":572.239583333333,"velocity":0.7637795275590551,"duration":0.24869791666662877},{"name":"G5","midi":79,"time":572.364583333333,"velocity":0.7637795275590551,"duration":0.12369791666662877},{"name":"F5","midi":77,"time":572.489583333333,"velocity":0.7637795275590551,"duration":0.12369791666662877},{"name":"A#3","midi":58,"time":572.489583333333,"velocity":0.7637795275590551,"duration":0.49869791666662877},{"name":"D5","midi":74,"time":572.614583333333,"velocity":0.7637795275590551,"duration":0.12369791666662877},{"name":"G#4","midi":68,"time":572.739583333333,"velocity":0.7637795275590551,"duration":0.12369791666662877},{"name":"C5","midi":72,"time":572.864583333333,"velocity":0.7637795275590551,"duration":0.12369791666662877},{"name":"D5","midi":74,"time":572.989583333333,"velocity":0.7637795275590551,"duration":0.12369791666662877},{"name":"G#3","midi":56,"time":572.989583333333,"velocity":0.7637795275590551,"duration":0.24869791666662877},{"name":"F5","midi":77,"time":573.114583333333,"velocity":0.7637795275590551,"duration":0.12369791666662877},{"name":"D#5","midi":75,"time":573.239583333333,"velocity":0.7637795275590551,"duration":0.12369791666662877},{"name":"G3","midi":55,"time":573.239583333333,"velocity":0.7637795275590551,"duration":0.24869791666662877},{"name":"C5","midi":72,"time":573.364583333333,"velocity":0.7637795275590551,"duration":0.12369791666662877},{"name":"F#4","midi":66,"time":573.489583333333,"velocity":0.7637795275590551,"duration":0.12369791666662877},{"name":"D#3","midi":51,"time":573.489583333333,"velocity":0.7637795275590551,"duration":0.24869791666662877},{"name":"A4","midi":69,"time":573.614583333333,"velocity":0.7637795275590551,"duration":0.12369791666662877},{"name":"C5","midi":72,"time":573.739583333333,"velocity":0.7637795275590551,"duration":0.12369791666662877},{"name":"A#2","midi":46,"time":573.739583333333,"velocity":0.7637795275590551,"duration":0.24869791666662877},{"name":"D#5","midi":75,"time":573.864583333333,"velocity":0.7637795275590551,"duration":0.12369791666662877},{"name":"D5","midi":74,"time":573.989583333333,"velocity":0.7637795275590551,"duration":0.12369791666662877},{"name":"A#3","midi":58,"time":573.989583333333,"velocity":0.7637795275590551,"duration":0.24869791666662877},{"name":"A#4","midi":70,"time":574.114583333333,"velocity":0.7637795275590551,"duration":0.12369791666662877},{"name":"F4","midi":65,"time":574.239583333333,"velocity":0.7637795275590551,"duration":0.12369791666662877},{"name":"G#3","midi":56,"time":574.239583333333,"velocity":0.7637795275590551,"duration":0.24869791666662877},{"name":"G#4","midi":68,"time":574.364583333333,"velocity":0.7637795275590551,"duration":0.12369791666662877},{"name":"A#4","midi":70,"time":574.489583333333,"velocity":0.7637795275590551,"duration":0.12369791666662877},{"name":"G3","midi":55,"time":574.489583333333,"velocity":0.7637795275590551,"duration":0.49479166666662877},{"name":"D#5","midi":75,"time":574.614583333333,"velocity":0.7637795275590551,"duration":0.12369791666662877},{"name":"A#4","midi":70,"time":574.739583333333,"velocity":0.7637795275590551,"duration":0.12369791666662877},{"name":"G2","midi":43,"time":574.739583333333,"velocity":0.7637795275590551,"duration":0.24869791666662877},{"name":"G4","midi":67,"time":574.864583333333,"velocity":0.7637795275590551,"duration":0.12369791666662877},{"name":"D#4","midi":63,"time":574.989583333333,"velocity":0.7637795275590551,"duration":0.12369791666662877},{"name":"G3","midi":55,"time":574.989583333333,"velocity":0.7637795275590551,"duration":0.7486979166666288},{"name":"D4","midi":62,"time":575.114583333333,"velocity":0.7637795275590551,"duration":0.12369791666662877},{"name":"D#4","midi":63,"time":575.239583333333,"velocity":0.7637795275590551,"duration":0.12369791666662877},{"name":"A#4","midi":70,"time":575.364583333333,"velocity":0.7637795275590551,"duration":0.12369791666662877},{"name":"G4","midi":67,"time":575.489583333333,"velocity":0.7637795275590551,"duration":0.12369791666662877},{"name":"G#2","midi":44,"time":575.489583333333,"velocity":0.7637795275590551,"duration":0.24869791666662877},{"name":"D#4","midi":63,"time":575.614583333333,"velocity":0.7637795275590551,"duration":0.12369791666662877},{"name":"A#3","midi":58,"time":575.739583333333,"velocity":0.7637795275590551,"duration":0.12369791666662877},{"name":"G3","midi":55,"time":575.739583333333,"velocity":0.7637795275590551,"duration":0.7486979166666288},{"name":"G#3","midi":56,"time":575.864583333333,"velocity":0.7637795275590551,"duration":0.12369791666662877},{"name":"A#3","midi":58,"time":575.989583333333,"velocity":0.7637795275590551,"duration":0.12369791666662877},{"name":"G4","midi":67,"time":576.114583333333,"velocity":0.7637795275590551,"duration":0.12369791666662877},{"name":"D#4","midi":63,"time":576.239583333333,"velocity":0.7637795275590551,"duration":0.12369791666662877},{"name":"A#2","midi":46,"time":576.239583333333,"velocity":0.7637795275590551,"duration":0.24869791666662877},{"name":"A#3","midi":58,"time":576.364583333333,"velocity":0.7637795275590551,"duration":0.12369791666662877},{"name":"G#3","midi":56,"time":576.489583333333,"velocity":0.7637795275590551,"duration":0.12369791666662877},{"name":"F3","midi":53,"time":576.489583333333,"velocity":0.7637795275590551,"duration":0.24869791666662877},{"name":"D4","midi":62,"time":576.614583333333,"velocity":0.7637795275590551,"duration":0.12369791666662877},{"name":"G3","midi":55,"time":576.739583333333,"velocity":0.7637795275590551,"duration":0.12369791666662877},{"name":"D#3","midi":51,"time":576.739583333333,"velocity":0.7637795275590551,"duration":0.49479166666662877},{"name":"D#4","midi":63,"time":576.864583333333,"velocity":0.7637795275590551,"duration":0.12369791666662877},{"name":"A#3","midi":58,"time":576.989583333333,"velocity":0.7637795275590551,"duration":0.12369791666662877},{"name":"G3","midi":55,"time":577.114583333333,"velocity":0.7637795275590551,"duration":0.12369791666662877},{"name":"D#3","midi":51,"time":577.239583333333,"velocity":0.7637795275590551,"duration":0.12369791666662877},{"name":"D3","midi":50,"time":577.364583333333,"velocity":0.7637795275590551,"duration":0.12369791666662877},{"name":"D#3","midi":51,"time":577.489583333333,"velocity":0.7637795275590551,"duration":0.12369791666662877},{"name":"G4","midi":67,"time":577.614583333333,"velocity":0.7637795275590551,"duration":0.12369791666662877},{"name":"F3","midi":53,"time":577.614583333333,"velocity":0.7637795275590551,"duration":0.12369791666662877},{"name":"A4","midi":69,"time":577.739583333333,"velocity":0.7637795275590551,"duration":0.12369791666662877},{"name":"D#3","midi":51,"time":577.739583333333,"velocity":0.7637795275590551,"duration":0.12369791666662877},{"name":"B4","midi":71,"time":577.864583333333,"velocity":0.7637795275590551,"duration":0.12369791666662877},{"name":"D3","midi":50,"time":577.864583333333,"velocity":0.7637795275590551,"duration":0.12369791666662877},{"name":"C5","midi":72,"time":577.989583333333,"velocity":0.7637795275590551,"duration":0.12369791666662877},{"name":"C3","midi":48,"time":577.989583333333,"velocity":0.7637795275590551,"duration":0.12369791666662877},{"name":"D5","midi":74,"time":578.114583333333,"velocity":0.7637795275590551,"duration":0.12369791666662877},{"name":"B2","midi":47,"time":578.114583333333,"velocity":0.7637795275590551,"duration":0.12369791666662877},{"name":"D#5","midi":75,"time":578.239583333333,"velocity":0.7637795275590551,"duration":0.12369791666662877},{"name":"C3","midi":48,"time":578.239583333333,"velocity":0.7637795275590551,"duration":0.12369791666662877},{"name":"D5","midi":74,"time":578.364583333333,"velocity":0.7637795275590551,"duration":0.12369791666662877},{"name":"G3","midi":55,"time":578.364583333333,"velocity":0.7637795275590551,"duration":0.12369791666662877},{"name":"C5","midi":72,"time":578.489583333333,"velocity":0.7637795275590551,"duration":0.12369791666662877},{"name":"A3","midi":57,"time":578.489583333333,"velocity":0.7637795275590551,"duration":0.12369791666662877},{"name":"D5","midi":74,"time":578.614583333333,"velocity":0.7637795275590551,"duration":0.12369791666662877},{"name":"B3","midi":59,"time":578.614583333333,"velocity":0.7637795275590551,"duration":0.12369791666662877},{"name":"D#5","midi":75,"time":578.739583333333,"velocity":0.7637795275590551,"duration":0.12369791666662877},{"name":"C4","midi":60,"time":578.739583333333,"velocity":0.7637795275590551,"duration":0.12369791666662877},{"name":"F5","midi":77,"time":578.864583333333,"velocity":0.7637795275590551,"duration":0.12369791666662877},{"name":"D4","midi":62,"time":578.864583333333,"velocity":0.7637795275590551,"duration":0.12369791666662877},{"name":"G5","midi":79,"time":578.989583333333,"velocity":0.7637795275590551,"duration":0.12369791666662877},{"name":"D#4","midi":63,"time":578.989583333333,"velocity":0.7637795275590551,"duration":0.24869791666662877},{"name":"G4","midi":67,"time":579.114583333333,"velocity":0.7637795275590551,"duration":0.12369791666662877},{"name":"G#4","midi":68,"time":579.239583333333,"velocity":0.7637795275590551,"duration":0.12369791666662877},{"name":"F3","midi":53,"time":579.239583333333,"velocity":0.7637795275590551,"duration":0.37369791666662877},{"name":"C5","midi":72,"time":579.364583333333,"velocity":0.7637795275590551,"duration":0.12369791666662877},{"name":"F5","midi":77,"time":579.489583333333,"velocity":0.7637795275590551,"duration":0.3515625},{"name":"D#4","midi":63,"time":579.614583333333,"velocity":0.7637795275590551,"duration":0.12369791666662877},{"name":"D4","midi":62,"time":579.739583333333,"velocity":0.7637795275590551,"duration":0.24869791666662877},{"name":"F4","midi":65,"time":579.864583333333,"velocity":0.7637795275590551,"duration":0.12369791666662877},{"name":"G4","midi":67,"time":579.989583333333,"velocity":0.7637795275590551,"duration":0.12369791666662877},{"name":"D#3","midi":51,"time":579.989583333333,"velocity":0.7637795275590551,"duration":0.37369791666662877},{"name":"A#4","midi":70,"time":580.114583333333,"velocity":0.7637795275590551,"duration":0.12369791666662877},{"name":"D#5","midi":75,"time":580.239583333333,"velocity":0.7637795275590551,"duration":0.3515625},{"name":"D4","midi":62,"time":580.364583333333,"velocity":0.7637795275590551,"duration":0.12369791666662877},{"name":"C4","midi":60,"time":580.489583333333,"velocity":0.7637795275590551,"duration":0.24869791666662877},{"name":"D#4","midi":63,"time":580.614583333333,"velocity":0.7637795275590551,"duration":0.12369791666662877},{"name":"F4","midi":65,"time":580.739583333333,"velocity":0.7637795275590551,"duration":0.12369791666662877},{"name":"D3","midi":50,"time":580.739583333333,"velocity":0.7637795275590551,"duration":0.37369791666662877},{"name":"B4","midi":71,"time":580.864583333333,"velocity":0.7637795275590551,"duration":0.12369791666662877},{"name":"D5","midi":74,"time":580.989583333333,"velocity":0.7637795275590551,"duration":0.3515625},{"name":"C4","midi":60,"time":581.114583333333,"velocity":0.7637795275590551,"duration":0.12369791666662877},{"name":"B3","midi":59,"time":581.239583333333,"velocity":0.7637795275590551,"duration":0.24869791666662877},{"name":"D4","midi":62,"time":581.364583333333,"velocity":0.7637795275590551,"duration":0.12369791666662877},{"name":"D#4","midi":63,"time":581.489583333333,"velocity":0.7637795275590551,"duration":0.12369791666662877},{"name":"C3","midi":48,"time":581.489583333333,"velocity":0.7637795275590551,"duration":0.37369791666662877},{"name":"G4","midi":67,"time":581.614583333333,"velocity":0.7637795275590551,"duration":0.12369791666662877},{"name":"C5","midi":72,"time":581.739583333333,"velocity":0.7637795275590551,"duration":0.3515625},{"name":"D#3","midi":51,"time":581.864583333333,"velocity":0.7637795275590551,"duration":0.12369791666662877},{"name":"G#3","midi":56,"time":581.989583333333,"velocity":0.7637795275590551,"duration":0.24869791666662877},{"name":"B4","midi":71,"time":582.114583333333,"velocity":0.7637795275590551,"duration":0.12369791666662877},{"name":"C5","midi":72,"time":582.239583333333,"velocity":0.7637795275590551,"duration":0.12369791666662877},{"name":"G3","midi":55,"time":582.239583333333,"velocity":0.7637795275590551,"duration":0.24869791666662877},{"name":"D#5","midi":75,"time":582.364583333333,"velocity":0.7637795275590551,"duration":0.12369791666662877},{"name":"G#5","midi":80,"time":582.489583333333,"velocity":0.7637795275590551,"duration":0.12369791666662877},{"name":"F3","midi":53,"time":582.489583333333,"velocity":0.7637795275590551,"duration":0.24869791666662877},{"name":"C5","midi":72,"time":582.614583333333,"velocity":0.7637795275590551,"duration":0.12369791666662877},{"name":"B4","midi":71,"time":582.739583333333,"velocity":0.7637795275590551,"duration":0.12369791666662877},{"name":"G3","midi":55,"time":582.739583333333,"velocity":0.7637795275590551,"duration":0.12369791666662877},{"name":"A4","midi":69,"time":582.864583333333,"velocity":0.7637795275590551,"duration":0.12369791666662877},{"name":"F3","midi":53,"time":582.864583333333,"velocity":0.7637795275590551,"duration":0.12369791666662877},{"name":"G4","midi":67,"time":582.989583333333,"velocity":0.7637795275590551,"duration":0.36458333333337123},{"name":"G3","midi":55,"time":582.989583333333,"velocity":0.7637795275590551,"duration":0.12369791666662877},{"name":"G#3","midi":56,"time":583.114583333333,"velocity":0.7637795275590551,"duration":0.12369791666662877},{"name":"F3","midi":53,"time":583.239583333333,"velocity":0.7637795275590551,"duration":0.12369791666674246},{"name":"G3","midi":55,"time":583.3645833333331,"velocity":0.7637795275590551,"duration":0.12369791666662877},{"name":"C6","midi":84,"time":583.4895833333331,"velocity":0.7637795275590551,"duration":0.49479166666662877},{"name":"D#3","midi":51,"time":583.4895833333331,"velocity":0.7637795275590551,"duration":0.12369791666662877},{"name":"D3","midi":50,"time":583.6145833333331,"velocity":0.7637795275590551,"duration":0.12369791666662877},{"name":"C5","midi":72,"time":583.7395833333331,"velocity":0.7637795275590551,"duration":0.24869791666662877},{"name":"D#3","midi":51,"time":583.7395833333331,"velocity":0.7637795275590551,"duration":0.12369791666662877},{"name":"F3","midi":53,"time":583.8645833333331,"velocity":0.7637795275590551,"duration":0.12369791666662877},{"name":"D5","midi":74,"time":583.9895833333331,"velocity":0.7637795275590551,"duration":0.24869791666662877},{"name":"D3","midi":50,"time":583.9895833333331,"velocity":0.7637795275590551,"duration":0.12369791666662877},{"name":"D#3","midi":51,"time":584.1145833333331,"velocity":0.7637795275590551,"duration":0.12369791666662877},{"name":"D#5","midi":75,"time":584.2395833333331,"velocity":0.7637795275590551,"duration":0.49869791666662877},{"name":"C3","midi":48,"time":584.2395833333331,"velocity":0.7637795275590551,"duration":0.24869791666662877},{"name":"C4","midi":60,"time":584.4895833333331,"velocity":0.7637795275590551,"duration":0.24869791666662877},{"name":"F5","midi":77,"time":584.7395833333331,"velocity":0.7637795275590551,"duration":0.24869791666662877},{"name":"D4","midi":62,"time":584.7395833333331,"velocity":0.7637795275590551,"duration":0.24869791666662877},{"name":"G5","midi":79,"time":584.9895833333331,"velocity":0.7637795275590551,"duration":0.24739583333337123},{"name":"D#4","midi":63,"time":584.9895833333331,"velocity":0.7637795275590551,"duration":0.24869791666674246},{"name":"G#4","midi":68,"time":585.2395833333333,"velocity":0.7637795275590551,"duration":0.36458333333337123},{"name":"F4","midi":65,"time":585.4895833333333,"velocity":0.7637795275590551,"duration":0.24869791666674246},{"name":"F5","midi":77,"time":585.7395833333334,"velocity":0.7637795275590551,"duration":0.24739583333337123},{"name":"D4","midi":62,"time":585.7395833333334,"velocity":0.7637795275590551,"duration":0.24869791666674246},{"name":"G4","midi":67,"time":585.9895833333335,"velocity":0.7637795275590551,"duration":0.36458333333337123},{"name":"D#4","midi":63,"time":586.2395833333335,"velocity":0.7637795275590551,"duration":0.24869791666674246},{"name":"D#5","midi":75,"time":586.4895833333336,"velocity":0.7637795275590551,"duration":0.24739583333337123},{"name":"C4","midi":60,"time":586.4895833333336,"velocity":0.7637795275590551,"duration":0.24869791666674246},{"name":"F4","midi":65,"time":586.7395833333337,"velocity":0.7637795275590551,"duration":0.36458333333337123},{"name":"D4","midi":62,"time":586.9895833333337,"velocity":0.7637795275590551,"duration":0.24869791666674246},{"name":"D5","midi":74,"time":587.2395833333338,"velocity":0.7637795275590551,"duration":0.24739583333337123},{"name":"B3","midi":59,"time":587.2395833333338,"velocity":0.7637795275590551,"duration":0.24869791666674246},{"name":"D#4","midi":63,"time":587.4895833333339,"velocity":0.7637795275590551,"duration":0.36458333333337123},{"name":"C4","midi":60,"time":587.7395833333339,"velocity":0.7637795275590551,"duration":0.24869791666674246},{"name":"G#3","midi":56,"time":587.989583333334,"velocity":0.7637795275590551,"duration":0.24869791666662877},{"name":"C5","midi":72,"time":588.114583333334,"velocity":0.7637795275590551,"duration":0.12369791666662877},{"name":"D4","midi":62,"time":588.239583333334,"velocity":0.7637795275590551,"duration":0.12369791666662877},{"name":"F3","midi":53,"time":588.239583333334,"velocity":0.7637795275590551,"duration":0.24869791666662877},{"name":"F4","midi":65,"time":588.364583333334,"velocity":0.7637795275590551,"duration":0.12369791666662877},{"name":"C5","midi":72,"time":588.489583333334,"velocity":0.7637795275590551,"duration":0.12369791666662877},{"name":"G3","midi":55,"time":588.489583333334,"velocity":0.7637795275590551,"duration":0.24869791666662877},{"name":"B4","midi":71,"time":588.614583333334,"velocity":0.7637795275590551,"duration":0.12369791666662877},{"name":"C5","midi":72,"time":588.739583333334,"velocity":0.7637795275590551,"duration":0.625},{"name":"C3","midi":48,"time":588.739583333334,"velocity":0.7637795275590551,"duration":0.24869791666662877},{"name":"G2","midi":43,"time":588.989583333334,"velocity":0.7637795275590551,"duration":0.12369791666662877},{"name":"F2","midi":41,"time":589.114583333334,"velocity":0.7637795275590551,"duration":0.12369791666662877},{"name":"D#2","midi":39,"time":589.239583333334,"velocity":0.7637795275590551,"duration":0.12369791666662877},{"name":"D2","midi":38,"time":589.364583333334,"velocity":0.7637795275590551,"duration":0.12369791666662877},{"name":"D#5","midi":75,"time":589.489583333334,"velocity":0.7637795275590551,"duration":1.1848958333333712},{"name":"C2","midi":36,"time":589.489583333334,"velocity":0.7637795275590551,"duration":0.24869791666662877},{"name":"C4","midi":60,"time":589.739583333334,"velocity":0.7637795275590551,"duration":0.24869791666662877},{"name":"G4","midi":67,"time":589.989583333334,"velocity":0.7637795275590551,"duration":0.21354166666662877},{"name":"A#3","midi":58,"time":589.989583333334,"velocity":0.7637795275590551,"duration":0.24869791666662877},{"name":"C5","midi":72,"time":590.239583333334,"velocity":0.7637795275590551,"duration":1.184895833333485},{"name":"A3","midi":57,"time":590.239583333334,"velocity":0.7637795275590551,"duration":0.24869791666662877},{"name":"G3","midi":55,"time":590.489583333334,"velocity":0.7637795275590551,"duration":0.24869791666674246},{"name":"D5","midi":74,"time":590.7395833333342,"velocity":0.7637795275590551,"duration":0.10546875},{"name":"F3","midi":53,"time":590.7395833333342,"velocity":0.7637795275590551,"duration":0.24869791666662877},{"name":"D#5","midi":75,"time":590.8645833333342,"velocity":0.7637795275590551,"duration":0.05078125},{"name":"F5","midi":77,"time":590.9270833333342,"velocity":0.7637795275590551,"duration":0.05078125},{"name":"D5","midi":74,"time":590.9895833333342,"velocity":0.7637795275590551,"duration":0.7473958333334849},{"name":"A#2","midi":46,"time":590.9895833333342,"velocity":0.7637795275590551,"duration":0.24869791666662877},{"name":"A#3","midi":58,"time":591.2395833333342,"velocity":0.7637795275590551,"duration":0.24869791666674246},{"name":"F4","midi":65,"time":591.4895833333343,"velocity":0.7637795275590551,"duration":0.24869791666674246},{"name":"A3","midi":57,"time":591.4895833333343,"velocity":0.7637795275590551,"duration":0.24869791666674246},{"name":"D#5","midi":75,"time":591.7395833333344,"velocity":0.7637795275590551,"duration":0.24739583333337123},{"name":"A#4","midi":70,"time":591.7395833333344,"velocity":0.7637795275590551,"duration":0.9635416666667425},{"name":"G3","midi":55,"time":591.7395833333344,"velocity":0.7637795275590551,"duration":0.24869791666674246},{"name":"D#5","midi":75,"time":591.9895833333345,"velocity":0.7637795275590551,"duration":0.12369791666662877},{"name":"F3","midi":53,"time":591.9895833333345,"velocity":0.7637795275590551,"duration":0.24869791666662877},{"name":"F5","midi":77,"time":592.1145833333345,"velocity":0.7637795275590551,"duration":0.12369791666662877},{"name":"G5","midi":79,"time":592.2395833333345,"velocity":0.7637795275590551,"duration":0.12369791666662877},{"name":"D#3","midi":51,"time":592.2395833333345,"velocity":0.7637795275590551,"duration":0.24869791666662877},{"name":"D#5","midi":75,"time":592.3645833333345,"velocity":0.7637795275590551,"duration":0.12369791666662877},{"name":"D5","midi":74,"time":592.4895833333345,"velocity":0.7637795275590551,"duration":0.24869791666662877},{"name":"A2","midi":45,"time":592.4895833333345,"velocity":0.7637795275590551,"duration":0.24869791666662877},{"name":"C5","midi":72,"time":592.7395833333345,"velocity":0.7637795275590551,"duration":0.7135416666666288},{"name":"A4","midi":69,"time":592.7395833333345,"velocity":0.7637795275590551,"duration":0.12369791666662877},{"name":"A3","midi":57,"time":592.7395833333345,"velocity":0.7637795275590551,"duration":0.24869791666662877},{"name":"G4","midi":67,"time":592.8645833333345,"velocity":0.7637795275590551,"duration":0.12369791666662877},{"name":"F#4","midi":66,"time":592.9895833333345,"velocity":0.7637795275590551,"duration":0.12369791666662877},{"name":"G3","midi":55,"time":592.9895833333345,"velocity":0.7637795275590551,"duration":0.24869791666662877},{"name":"G4","midi":67,"time":593.1145833333345,"velocity":0.7637795275590551,"duration":0.12369791666662877},{"name":"A4","midi":69,"time":593.2395833333345,"velocity":0.7637795275590551,"duration":0.43489583333337123},{"name":"F#3","midi":54,"time":593.2395833333345,"velocity":0.7637795275590551,"duration":0.24869791666662877},{"name":"D5","midi":74,"time":593.4895833333345,"velocity":0.7637795275590551,"duration":0.08203125},{"name":"E3","midi":52,"time":593.4895833333345,"velocity":0.7637795275590551,"duration":0.24869791666674246},{"name":"C5","midi":72,"time":593.5729166666679,"velocity":0.7637795275590551,"duration":0.08203125},{"name":"A#4","midi":70,"time":593.6562500000013,"velocity":0.7637795275590551,"duration":0.08203125},{"name":"C5","midi":72,"time":593.7395833333346,"velocity":0.7637795275590551,"duration":0.08072916666662877},{"name":"D3","midi":50,"time":593.7395833333346,"velocity":0.7637795275590551,"duration":0.24869791666674246},{"name":"A#4","midi":70,"time":593.8177083333346,"velocity":0.7637795275590551,"duration":0.08203125},{"name":"A4","midi":69,"time":593.901041666668,"velocity":0.7637795275590551,"duration":0.08203125},{"name":"A#4","midi":70,"time":593.9895833333347,"velocity":0.7637795275590551,"duration":0.07682291666662877},{"name":"G3","midi":55,"time":593.9895833333347,"velocity":0.7637795275590551,"duration":0.24869791666674246},{"name":"A4","midi":69,"time":594.0677083333347,"velocity":0.7637795275590551,"duration":0.08203125},{"name":"G4","midi":67,"time":594.1510416666681,"velocity":0.7637795275590551,"duration":0.08723958333337123},{"name":"C5","midi":72,"time":594.2395833333348,"velocity":0.7637795275590551,"duration":0.07682291666662877},{"name":"D#3","midi":51,"time":594.2395833333348,"velocity":0.7637795275590551,"duration":0.24869791666674246},{"name":"A#4","midi":70,"time":594.3177083333348,"velocity":0.7637795275590551,"duration":0.08203125},{"name":"A4","midi":69,"time":594.4010416666682,"velocity":0.7637795275590551,"duration":0.08723958333337123},{"name":"A#4","midi":70,"time":594.489583333335,"velocity":0.7637795275590551,"duration":0.07682291666662877},{"name":"C3","midi":48,"time":594.489583333335,"velocity":0.7637795275590551,"duration":0.24869791666674246},{"name":"A4","midi":69,"time":594.567708333335,"velocity":0.7637795275590551,"duration":0.08203125},{"name":"G4","midi":67,"time":594.6510416666683,"velocity":0.7637795275590551,"duration":0.08723958333337123},{"name":"F#4","midi":66,"time":594.7395833333351,"velocity":0.7637795275590551,"duration":0.37369791666662877},{"name":"D3","midi":50,"time":594.7395833333351,"velocity":0.7637795275590551,"duration":0.12369791666662877},{"name":"D#3","midi":51,"time":594.8645833333351,"velocity":0.7637795275590551,"duration":0.12369791666662877},{"name":"D3","midi":50,"time":594.9895833333351,"velocity":0.7637795275590551,"duration":0.12369791666662877},{"name":"A4","midi":69,"time":595.1145833333351,"velocity":0.7637795275590551,"duration":0.12369791666662877},{"name":"C3","midi":48,"time":595.1145833333351,"velocity":0.7637795275590551,"duration":0.12369791666662877},{"name":"D5","midi":74,"time":595.2395833333351,"velocity":0.7637795275590551,"duration":0.12369791666662877},{"name":"A#2","midi":46,"time":595.2395833333351,"velocity":0.7637795275590551,"duration":0.12369791666662877},{"name":"C5","midi":72,"time":595.3645833333351,"velocity":0.7637795275590551,"duration":0.12369791666662877},{"name":"A2","midi":45,"time":595.3645833333351,"velocity":0.7637795275590551,"duration":0.12369791666662877},{"name":"A#4","midi":70,"time":595.4895833333351,"velocity":0.7637795275590551,"duration":0.12369791666662877},{"name":"G2","midi":43,"time":595.4895833333351,"velocity":0.7637795275590551,"duration":0.24869791666662877},{"name":"A4","midi":69,"time":595.6145833333351,"velocity":0.7637795275590551,"duration":0.12369791666662877},{"name":"A#4","midi":70,"time":595.7395833333351,"velocity":0.7637795275590551,"duration":0.12369791666662877},{"name":"G3","midi":55,"time":595.7395833333351,"velocity":0.7637795275590551,"duration":0.24869791666662877},{"name":"D5","midi":74,"time":595.8645833333351,"velocity":0.7637795275590551,"duration":0.12369791666662877},{"name":"C5","midi":72,"time":595.9895833333351,"velocity":0.7637795275590551,"duration":0.12369791666662877},{"name":"A3","midi":57,"time":595.9895833333351,"velocity":0.7637795275590551,"duration":0.24869791666662877},{"name":"D#5","midi":75,"time":596.1145833333351,"velocity":0.7637795275590551,"duration":0.12369791666662877},{"name":"D5","midi":74,"time":596.2395833333351,"velocity":0.7637795275590551,"duration":0.12369791666662877},{"name":"A#3","midi":58,"time":596.2395833333351,"velocity":0.7637795275590551,"duration":0.49869791666662877},{"name":"A#4","midi":70,"time":596.3645833333351,"velocity":0.7637795275590551,"duration":0.12369791666662877},{"name":"G4","midi":67,"time":596.4895833333351,"velocity":0.7637795275590551,"duration":0.12369791666662877},{"name":"G5","midi":79,"time":596.6145833333351,"velocity":0.7637795275590551,"duration":0.12369791666662877},{"name":"A4","midi":69,"time":596.7395833333351,"velocity":0.7637795275590551,"duration":0.12369791666662877},{"name":"C4","midi":60,"time":596.7395833333351,"velocity":0.7637795275590551,"duration":0.24869791666662877},{"name":"G5","midi":79,"time":596.8645833333351,"velocity":0.7637795275590551,"duration":0.12369791666662877},{"name":"A#4","midi":70,"time":596.9895833333351,"velocity":0.7637795275590551,"duration":0.12369791666662877},{"name":"D4","midi":62,"time":596.9895833333351,"velocity":0.7637795275590551,"duration":0.24869791666662877},{"name":"G5","midi":79,"time":597.1145833333351,"velocity":0.7637795275590551,"duration":0.12369791666662877},{"name":"C5","midi":72,"time":597.2395833333351,"velocity":0.7637795275590551,"duration":0.12369791666662877},{"name":"D#3","midi":51,"time":597.2395833333351,"velocity":0.7637795275590551,"duration":0.36458333333337123},{"name":"D5","midi":74,"time":597.3645833333351,"velocity":0.7637795275590551,"duration":0.12369791666662877},{"name":"D#5","midi":75,"time":597.4895833333351,"velocity":0.7637795275590551,"duration":0.12369791666674246},{"name":"C5","midi":72,"time":597.6145833333352,"velocity":0.7637795275590551,"duration":0.12369791666662877},{"name":"A4","midi":69,"time":597.7395833333352,"velocity":0.7637795275590551,"duration":0.12369791666662877},{"name":"C4","midi":60,"time":597.7395833333352,"velocity":0.7637795275590551,"duration":0.24869791666662877},{"name":"F5","midi":77,"time":597.8645833333352,"velocity":0.7637795275590551,"duration":0.12369791666662877},{"name":"A#4","midi":70,"time":597.9895833333352,"velocity":0.7637795275590551,"duration":0.12369791666662877},{"name":"D3","midi":50,"time":597.9895833333352,"velocity":0.7637795275590551,"duration":0.36458333333337123},{"name":"C5","midi":72,"time":598.1145833333352,"velocity":0.7637795275590551,"duration":0.12369791666662877},{"name":"D5","midi":74,"time":598.2395833333352,"velocity":0.7637795275590551,"duration":0.12369791666674246},{"name":"A#4","midi":70,"time":598.3645833333353,"velocity":0.7637795275590551,"duration":0.12369791666662877},{"name":"G4","midi":67,"time":598.4895833333353,"velocity":0.7637795275590551,"duration":0.12369791666662877},{"name":"A#3","midi":58,"time":598.4895833333353,"velocity":0.7637795275590551,"duration":0.24869791666662877},{"name":"D#5","midi":75,"time":598.6145833333353,"velocity":0.7637795275590551,"duration":0.12369791666662877},{"name":"A4","midi":69,"time":598.7395833333353,"velocity":0.7637795275590551,"duration":0.12369791666662877},{"name":"C3","midi":48,"time":598.7395833333353,"velocity":0.7637795275590551,"duration":0.36458333333337123},{"name":"A#4","midi":70,"time":598.8645833333353,"velocity":0.7637795275590551,"duration":0.12369791666662877},{"name":"C5","midi":72,"time":598.9895833333353,"velocity":0.7637795275590551,"duration":0.12369791666674246},{"name":"A4","midi":69,"time":599.1145833333354,"velocity":0.7637795275590551,"duration":0.12369791666662877},{"name":"F#4","midi":66,"time":599.2395833333354,"velocity":0.7637795275590551,"duration":0.12369791666662877},{"name":"A3","midi":57,"time":599.2395833333354,"velocity":0.7637795275590551,"duration":0.24869791666662877},{"name":"D5","midi":74,"time":599.3645833333354,"velocity":0.7637795275590551,"duration":0.12369791666662877},{"name":"G4","midi":67,"time":599.4895833333354,"velocity":0.7637795275590551,"duration":0.12369791666662877},{"name":"A#2","midi":46,"time":599.4895833333354,"velocity":0.7637795275590551,"duration":0.36458333333337123},{"name":"A4","midi":69,"time":599.6145833333354,"velocity":0.7637795275590551,"duration":0.12369791666662877},{"name":"A#4","midi":70,"time":599.7395833333354,"velocity":0.7637795275590551,"duration":0.12369791666674246},{"name":"G4","midi":67,"time":599.8645833333355,"velocity":0.7637795275590551,"duration":0.12369791666662877},{"name":"D4","midi":62,"time":599.9895833333355,"velocity":0.7637795275590551,"duration":0.12369791666662877},{"name":"C5","midi":72,"time":600.1145833333355,"velocity":0.7637795275590551,"duration":0.12369791666662877},{"name":"A#4","midi":70,"time":600.2395833333355,"velocity":0.7637795275590551,"duration":0.12369791666662877},{"name":"C3","midi":48,"time":600.2395833333355,"velocity":0.7637795275590551,"duration":0.24869791666662877},{"name":"A4","midi":69,"time":600.3645833333355,"velocity":0.7637795275590551,"duration":0.12369791666662877},{"name":"G4","midi":67,"time":600.4895833333355,"velocity":0.7637795275590551,"duration":0.12369791666662877},{"name":"D3","midi":50,"time":600.4895833333355,"velocity":0.7637795275590551,"duration":0.24869791666662877},{"name":"F#4","midi":66,"time":600.6145833333355,"velocity":0.7637795275590551,"duration":0.12369791666662877},{"name":"G4","midi":67,"time":600.7395833333355,"velocity":0.7637795275590551,"duration":0.625},{"name":"G2","midi":43,"time":600.7395833333355,"velocity":0.7637795275590551,"duration":0.12369791666662877},{"name":"G#3","midi":56,"time":600.8645833333355,"velocity":0.7637795275590551,"duration":0.12369791666662877},{"name":"G3","midi":55,"time":600.9895833333355,"velocity":0.7637795275590551,"duration":0.12369791666662877},{"name":"F3","midi":53,"time":601.1145833333355,"velocity":0.7637795275590551,"duration":0.12369791666662877},{"name":"D#3","midi":51,"time":601.2395833333355,"velocity":0.7637795275590551,"duration":0.12369791666662877},{"name":"D3","midi":50,"time":601.3645833333355,"velocity":0.7637795275590551,"duration":0.12369791666662877},{"name":"D#3","midi":51,"time":601.4895833333355,"velocity":0.7637795275590551,"duration":0.24869791666662877},{"name":"C6","midi":84,"time":601.6145833333355,"velocity":0.7637795275590551,"duration":0.12369791666662877},{"name":"B5","midi":83,"time":601.7395833333355,"velocity":0.7637795275590551,"duration":0.12369791666662877},{"name":"F3","midi":53,"time":601.7395833333355,"velocity":0.7637795275590551,"duration":0.24869791666662877},{"name":"A5","midi":81,"time":601.8645833333355,"velocity":0.7637795275590551,"duration":0.12369791666662877},{"name":"G5","midi":79,"time":601.9895833333355,"velocity":0.7637795275590551,"duration":0.12369791666662877},{"name":"G3","midi":55,"time":601.9895833333355,"velocity":0.7637795275590551,"duration":0.24869791666662877},{"name":"F5","midi":77,"time":602.1145833333355,"velocity":0.7637795275590551,"duration":0.12369791666662877},{"name":"D#5","midi":75,"time":602.2395833333355,"velocity":0.7637795275590551,"duration":0.49869791666662877},{"name":"C3","midi":48,"time":602.2395833333355,"velocity":0.7637795275590551,"duration":0.12369791666662877},{"name":"C5","midi":72,"time":602.3645833333355,"velocity":0.7637795275590551,"duration":0.12369791666662877},{"name":"B4","midi":71,"time":602.4895833333355,"velocity":0.7637795275590551,"duration":0.12369791666662877},{"name":"A4","midi":69,"time":602.6145833333355,"velocity":0.7637795275590551,"duration":0.12369791666662877},{"name":"F5","midi":77,"time":602.7395833333355,"velocity":0.7637795275590551,"duration":0.24869791666662877},{"name":"G4","midi":67,"time":602.7395833333355,"velocity":0.7637795275590551,"duration":0.12369791666662877},{"name":"F4","midi":65,"time":602.8645833333355,"velocity":0.7637795275590551,"duration":0.12369791666662877},{"name":"G5","midi":79,"time":602.9895833333355,"velocity":0.7637795275590551,"duration":0.12369791666662877},{"name":"D#4","midi":63,"time":602.9895833333355,"velocity":0.7637795275590551,"duration":0.36458333333337123},{"name":"A#4","midi":70,"time":603.1145833333355,"velocity":0.7637795275590551,"duration":0.12369791666662877},{"name":"G#4","midi":68,"time":603.2395833333355,"velocity":0.7637795275590551,"duration":0.49479166666662877},{"name":"G4","midi":67,"time":603.3645833333355,"velocity":0.7637795275590551,"duration":0.12369791666662877},{"name":"F4","midi":65,"time":603.4895833333355,"velocity":0.7637795275590551,"duration":0.12369791666662877},{"name":"D#4","midi":63,"time":603.6145833333355,"velocity":0.7637795275590551,"duration":0.12369791666662877},{"name":"F5","midi":77,"time":603.7395833333355,"velocity":0.7637795275590551,"duration":0.12369791666662877},{"name":"D4","midi":62,"time":603.7395833333355,"velocity":0.7637795275590551,"duration":0.36458333333337123},{"name":"G#4","midi":68,"time":603.8645833333355,"velocity":0.7637795275590551,"duration":0.12369791666662877},{"name":"G4","midi":67,"time":603.9895833333355,"velocity":0.7637795275590551,"duration":0.49479166666662877},{"name":"F4","midi":65,"time":604.1145833333355,"velocity":0.7637795275590551,"duration":0.12369791666662877},{"name":"D#4","midi":63,"time":604.2395833333355,"velocity":0.7637795275590551,"duration":0.12369791666662877},{"name":"D4","midi":62,"time":604.3645833333355,"velocity":0.7637795275590551,"duration":0.12369791666662877},{"name":"D#5","midi":75,"time":604.4895833333355,"velocity":0.7637795275590551,"duration":0.12369791666662877},{"name":"C4","midi":60,"time":604.4895833333355,"velocity":0.7637795275590551,"duration":0.36458333333337123},{"name":"G4","midi":67,"time":604.6145833333355,"velocity":0.7637795275590551,"duration":0.12369791666662877},{"name":"F4","midi":65,"time":604.7395833333355,"velocity":0.7637795275590551,"duration":0.49479166666662877},{"name":"D#4","midi":63,"time":604.8645833333355,"velocity":0.7637795275590551,"duration":0.12369791666662877},{"name":"D4","midi":62,"time":604.9895833333355,"velocity":0.7637795275590551,"duration":0.12369791666662877},{"name":"C4","midi":60,"time":605.1145833333355,"velocity":0.7637795275590551,"duration":0.12369791666662877},{"name":"D5","midi":74,"time":605.2395833333355,"velocity":0.7637795275590551,"duration":0.12369791666662877},{"name":"B3","midi":59,"time":605.2395833333355,"velocity":0.7637795275590551,"duration":0.36458333333337123},{"name":"F4","midi":65,"time":605.3645833333355,"velocity":0.7637795275590551,"duration":0.12369791666662877},{"name":"D#4","midi":63,"time":605.4895833333355,"velocity":0.7637795275590551,"duration":0.49479166666662877},{"name":"D4","midi":62,"time":605.6145833333355,"velocity":0.7637795275590551,"duration":0.12369791666662877},{"name":"C4","midi":60,"time":605.7395833333355,"velocity":0.7637795275590551,"duration":0.12369791666662877},{"name":"A#3","midi":58,"time":605.8645833333355,"velocity":0.7637795275590551,"duration":0.12369791666662877},{"name":"G#3","midi":56,"time":605.9895833333355,"velocity":0.7637795275590551,"duration":0.24869791666662877},{"name":"G5","midi":79,"time":606.1145833333355,"velocity":0.7637795275590551,"duration":0.12369791666662877},{"name":"F5","midi":77,"time":606.2395833333355,"velocity":0.7637795275590551,"duration":0.12369791666662877},{"name":"G#4","midi":68,"time":606.2395833333355,"velocity":0.7637795275590551,"duration":0.24869791666662877},{"name":"D#5","midi":75,"time":606.3645833333355,"velocity":0.7637795275590551,"duration":0.12369791666662877},{"name":"D5","midi":74,"time":606.4895833333355,"velocity":0.7637795275590551,"duration":0.12369791666662877},{"name":"F4","midi":65,"time":606.4895833333355,"velocity":0.7637795275590551,"duration":0.24869791666662877},{"name":"C5","midi":72,"time":606.6145833333355,"velocity":0.7637795275590551,"duration":0.12369791666662877},{"name":"B4","midi":71,"time":606.7395833333355,"velocity":0.7637795275590551,"duration":0.12369791666662877},{"name":"G4","midi":67,"time":606.7395833333355,"velocity":0.7637795275590551,"duration":0.12369791666662877},{"name":"C5","midi":72,"time":606.8645833333355,"velocity":0.7637795275590551,"duration":0.12369791666662877},{"name":"G#4","midi":68,"time":606.8645833333355,"velocity":0.7637795275590551,"duration":0.12369791666662877},{"name":"D5","midi":74,"time":606.9895833333355,"velocity":0.7637795275590551,"duration":0.12369791666662877},{"name":"G4","midi":67,"time":606.9895833333355,"velocity":0.7637795275590551,"duration":0.12369791666662877},{"name":"B4","midi":71,"time":607.1145833333355,"velocity":0.7637795275590551,"duration":0.12369791666662877},{"name":"F4","midi":65,"time":607.1145833333355,"velocity":0.7637795275590551,"duration":0.12369791666662877},{"name":"G4","midi":67,"time":607.2395833333355,"velocity":0.7637795275590551,"duration":0.24739583333337123},{"name":"D#4","midi":63,"time":607.2395833333355,"velocity":0.7637795275590551,"duration":0.12369791666662877},{"name":"D4","midi":62,"time":607.3645833333355,"velocity":0.7637795275590551,"duration":0.12369791666674246},{"name":"C4","midi":60,"time":607.4895833333356,"velocity":0.7637795275590551,"duration":0.12369791666662877},{"name":"C5","midi":72,"time":607.6145833333356,"velocity":0.7637795275590551,"duration":0.12369791666662877},{"name":"D#4","midi":63,"time":607.6145833333356,"velocity":0.7637795275590551,"duration":0.12369791666662877},{"name":"A#4","midi":70,"time":607.7395833333356,"velocity":0.7637795275590551,"duration":0.12369791666662877},{"name":"D4","midi":62,"time":607.7395833333356,"velocity":0.7637795275590551,"duration":0.12369791666662877},{"name":"G#4","midi":68,"time":607.8645833333356,"velocity":0.7637795275590551,"duration":0.12369791666662877},{"name":"C4","midi":60,"time":607.8645833333356,"velocity":0.7637795275590551,"duration":0.12369791666662877},{"name":"G4","midi":67,"time":607.9895833333356,"velocity":0.7637795275590551,"duration":0.12369791666662877},{"name":"A#3","midi":58,"time":607.9895833333356,"velocity":0.7637795275590551,"duration":0.12369791666662877},{"name":"F4","midi":65,"time":608.1145833333356,"velocity":0.7637795275590551,"duration":0.12369791666662877},{"name":"G#3","midi":56,"time":608.1145833333356,"velocity":0.7637795275590551,"duration":0.12369791666662877},{"name":"D#4","midi":63,"time":608.2395833333356,"velocity":0.7637795275590551,"duration":0.49479166666662877},{"name":"G3","midi":55,"time":608.2395833333356,"velocity":0.7637795275590551,"duration":0.12369791666662877},{"name":"C4","midi":60,"time":608.3645833333356,"velocity":0.7637795275590551,"duration":0.12369791666662877},{"name":"A#3","midi":58,"time":608.4895833333356,"velocity":0.7637795275590551,"duration":0.12369791666662877},{"name":"G#3","midi":56,"time":608.6145833333356,"velocity":0.7637795275590551,"duration":0.12369791666662877},{"name":"F4","midi":65,"time":608.7395833333356,"velocity":0.7637795275590551,"duration":0.24739583333337123},{"name":"G3","midi":55,"time":608.7395833333356,"velocity":0.7637795275590551,"duration":0.12369791666662877},{"name":"F3","midi":53,"time":608.8645833333356,"velocity":0.7637795275590551,"duration":0.12369791666674246},{"name":"G4","midi":67,"time":608.9895833333358,"velocity":0.7637795275590551,"duration":0.36458333333337123},{"name":"D#3","midi":51,"time":608.9895833333358,"velocity":0.7637795275590551,"duration":0.6145833333334849},{"name":"A#3","midi":58,"time":609.1145833333358,"velocity":0.7637795275590551,"duration":0.12369791666662877},{"name":"G#3","midi":56,"time":609.2395833333358,"velocity":0.7637795275590551,"duration":0.12369791666674246},{"name":"G3","midi":55,"time":609.3645833333359,"velocity":0.7637795275590551,"duration":0.12369791666662877},{"name":"F3","midi":53,"time":609.4895833333359,"velocity":0.7637795275590551,"duration":0.12369791666674246},{"name":"D#3","midi":51,"time":609.614583333336,"velocity":0.7637795275590551,"duration":0.12369791666662877},{"name":"F4","midi":65,"time":609.739583333336,"velocity":0.7637795275590551,"duration":0.36458333333337123},{"name":"D3","midi":50,"time":609.739583333336,"velocity":0.7637795275590551,"duration":0.6145833333334849},{"name":"G#3","midi":56,"time":609.864583333336,"velocity":0.7637795275590551,"duration":0.12369791666662877},{"name":"G3","midi":55,"time":609.989583333336,"velocity":0.7637795275590551,"duration":0.12369791666674246},{"name":"F3","midi":53,"time":610.1145833333361,"velocity":0.7637795275590551,"duration":0.12369791666662877},{"name":"D#3","midi":51,"time":610.2395833333361,"velocity":0.7637795275590551,"duration":0.12369791666674246},{"name":"D3","midi":50,"time":610.3645833333362,"velocity":0.7637795275590551,"duration":0.12369791666662877},{"name":"D#4","midi":63,"time":610.4895833333362,"velocity":0.7637795275590551,"duration":0.36458333333337123},{"name":"C3","midi":48,"time":610.4895833333362,"velocity":0.7637795275590551,"duration":0.6145833333334849},{"name":"G3","midi":55,"time":610.6145833333362,"velocity":0.7637795275590551,"duration":0.12369791666662877},{"name":"F3","midi":53,"time":610.7395833333362,"velocity":0.7637795275590551,"duration":0.12369791666674246},{"name":"D#3","midi":51,"time":610.8645833333363,"velocity":0.7637795275590551,"duration":0.12369791666662877},{"name":"D3","midi":50,"time":610.9895833333363,"velocity":0.7637795275590551,"duration":0.12369791666674246},{"name":"C3","midi":48,"time":611.1145833333364,"velocity":0.7637795275590551,"duration":0.12369791666662877},{"name":"D4","midi":62,"time":611.2395833333364,"velocity":0.7637795275590551,"duration":0.36458333333337123},{"name":"B2","midi":47,"time":611.2395833333364,"velocity":0.7637795275590551,"duration":0.36458333333337123},{"name":"F3","midi":53,"time":611.3645833333364,"velocity":0.7637795275590551,"duration":0.12369791666662877},{"name":"D#3","midi":51,"time":611.4895833333364,"velocity":0.7637795275590551,"duration":0.12369791666674246},{"name":"D3","midi":50,"time":611.6145833333366,"velocity":0.7637795275590551,"duration":0.12369791666662877},{"name":"C3","midi":48,"time":611.7395833333366,"velocity":0.7637795275590551,"duration":0.12369791666662877},{"name":"A#2","midi":46,"time":611.8645833333366,"velocity":0.7637795275590551,"duration":0.12369791666662877},{"name":"G#2","midi":44,"time":611.9895833333366,"velocity":0.7637795275590551,"duration":0.234375},{"name":"C3","midi":48,"time":612.1145833333366,"velocity":0.7637795275590551,"duration":0.12369791666662877},{"name":"D#3","midi":51,"time":612.2526041666698,"velocity":0.7637795275590551,"duration":0.24869791666662877},{"name":"F2","midi":41,"time":612.2526041666698,"velocity":0.7637795275590551,"duration":0.24869791666662877},{"name":"G#3","midi":56,"time":612.2526041666698,"velocity":0.7637795275590551,"duration":0.24869791666662877},{"name":"C4","midi":60,"time":612.2526041666698,"velocity":0.7637795275590551,"duration":0.24869791666662877},{"name":"B3","midi":59,"time":612.5494791666698,"velocity":0.7637795275590551,"duration":0.24869791666662877},{"name":"G3","midi":55,"time":612.5494791666698,"velocity":0.7637795275590551,"duration":0.24869791666662877},{"name":"D3","midi":50,"time":612.5494791666698,"velocity":0.7637795275590551,"duration":0.24869791666662877},{"name":"G2","midi":43,"time":612.5494791666698,"velocity":0.7637795275590551,"duration":0.24869791666662877},{"name":"C4","midi":60,"time":612.8763020833364,"velocity":0.7637795275590551,"duration":0.5859375},{"name":"D#3","midi":51,"time":612.8763020833364,"velocity":0.7637795275590551,"duration":0.5859375},{"name":"G3","midi":55,"time":612.8763020833364,"velocity":0.7637795275590551,"duration":0.5859375},{"name":"C2","midi":36,"time":612.8763020833364,"velocity":0.7637795275590551,"duration":0.5859375},{"name":"C3","midi":48,"time":617.2395833333364,"velocity":0.7637795275590551,"duration":0.49479166666662877},{"name":"D#3","midi":51,"time":617.2395833333364,"velocity":0.7637795275590551,"duration":0.49479166666662877},{"name":"G4","midi":67,"time":617.4895833333364,"velocity":0.7637795275590551,"duration":0.24739583333325754},{"name":"C5","midi":72,"time":617.7395833333363,"velocity":0.7637795275590551,"duration":0.7473958333333712},{"name":"C3","midi":48,"time":617.9895833333363,"velocity":0.7637795275590551,"duration":0.24739583333337123},{"name":"D#3","midi":51,"time":617.9895833333363,"velocity":0.7637795275590551,"duration":0.24739583333337123},{"name":"D3","midi":50,"time":618.2395833333363,"velocity":0.7637795275590551,"duration":0.49479166666662877},{"name":"F3","midi":53,"time":618.2395833333363,"velocity":0.7637795275590551,"duration":0.49479166666662877},{"name":"D5","midi":74,"time":618.4895833333363,"velocity":0.7637795275590551,"duration":0.12239583333337123},{"name":"C5","midi":72,"time":618.6145833333363,"velocity":0.7637795275590551,"duration":0.12239583333325754},{"name":"B4","midi":71,"time":618.7395833333362,"velocity":0.7637795275590551,"duration":0.12239583333337123},{"name":"A4","midi":69,"time":618.8645833333362,"velocity":0.7637795275590551,"duration":0.12239583333337123},{"name":"G4","midi":67,"time":618.9895833333362,"velocity":0.7637795275590551,"duration":0.12239583333337123},{"name":"B3","midi":59,"time":618.9895833333362,"velocity":0.7637795275590551,"duration":0.24739583333337123},{"name":"F4","midi":65,"time":619.1145833333362,"velocity":0.7637795275590551,"duration":0.12239583333337123},{"name":"D#4","midi":63,"time":619.2395833333362,"velocity":0.7637795275590551,"duration":0.24739583333337123},{"name":"C4","midi":60,"time":619.2395833333362,"velocity":0.7637795275590551,"duration":0.7473958333333712},{"name":"G5","midi":79,"time":619.4895833333362,"velocity":0.7637795275590551,"duration":0.24739583333337123},{"name":"D#3","midi":51,"time":619.4895833333362,"velocity":0.7637795275590551,"duration":0.24739583333337123},{"name":"D4","midi":62,"time":619.7395833333362,"velocity":0.7637795275590551,"duration":0.24739583333337123},{"name":"F3","midi":53,"time":619.7395833333362,"velocity":0.7637795275590551,"duration":0.24739583333337123},{"name":"F5","midi":77,"time":619.9895833333362,"velocity":0.7637795275590551,"duration":0.24739583333337123},{"name":"G3","midi":55,"time":619.9895833333362,"velocity":0.7637795275590551,"duration":0.24739583333337123},{"name":"B3","midi":59,"time":619.9895833333362,"velocity":0.7637795275590551,"duration":0.24739583333337123},{"name":"D#5","midi":75,"time":620.2395833333362,"velocity":0.7637795275590551,"duration":0.12239583333337123},{"name":"C3","midi":48,"time":620.2395833333362,"velocity":0.7637795275590551,"duration":0.24739583333337123},{"name":"C4","midi":60,"time":620.2395833333362,"velocity":0.7637795275590551,"duration":0.24739583333337123},{"name":"D5","midi":74,"time":620.3645833333362,"velocity":0.7637795275590551,"duration":0.12239583333337123},{"name":"C5","midi":72,"time":620.4895833333362,"velocity":0.7637795275590551,"duration":0.12239583333337123},{"name":"C4","midi":60,"time":620.4895833333362,"velocity":0.7637795275590551,"duration":0.24739583333337123},{"name":"D5","midi":74,"time":620.6145833333362,"velocity":0.7637795275590551,"duration":0.12239583333337123},{"name":"E5","midi":76,"time":620.7395833333362,"velocity":0.7637795275590551,"duration":0.12239583333337123},{"name":"A#3","midi":58,"time":620.7395833333362,"velocity":0.7637795275590551,"duration":0.24739583333337123},{"name":"F#5","midi":78,"time":620.8645833333362,"velocity":0.7637795275590551,"duration":0.12239583333337123},{"name":"G5","midi":79,"time":620.9895833333362,"velocity":0.7637795275590551,"duration":0.12239583333337123},{"name":"A3","midi":57,"time":620.9895833333362,"velocity":0.7637795275590551,"duration":0.24739583333337123},{"name":"A5","midi":81,"time":621.1145833333362,"velocity":0.7637795275590551,"duration":0.12239583333337123},{"name":"A#5","midi":82,"time":621.2395833333362,"velocity":0.7637795275590551,"duration":0.12239583333337123},{"name":"G3","midi":55,"time":621.2395833333362,"velocity":0.7637795275590551,"duration":0.49479166666662877},{"name":"G5","midi":79,"time":621.3645833333362,"velocity":0.7637795275590551,"duration":0.12239583333337123},{"name":"F#5","midi":78,"time":621.4895833333362,"velocity":0.7637795275590551,"duration":0.12239583333337123},{"name":"D4","midi":62,"time":621.4895833333362,"velocity":0.7637795275590551,"duration":0.24739583333325754},{"name":"G5","midi":79,"time":621.6145833333362,"velocity":0.7637795275590551,"duration":0.12239583333325754},{"name":"D5","midi":74,"time":621.7395833333361,"velocity":0.7637795275590551,"duration":0.12239583333337123},{"name":"G4","midi":67,"time":621.7395833333361,"velocity":0.7637795275590551,"duration":0.7473958333333712},{"name":"G5","midi":79,"time":621.8645833333361,"velocity":0.7637795275590551,"duration":0.12239583333337123},{"name":"F#5","midi":78,"time":621.9895833333361,"velocity":0.7637795275590551,"duration":0.12239583333337123},{"name":"G3","midi":55,"time":621.9895833333361,"velocity":0.7637795275590551,"duration":0.24739583333337123},{"name":"G5","midi":79,"time":622.1145833333361,"velocity":0.7637795275590551,"duration":0.12239583333337123},{"name":"C6","midi":84,"time":622.2395833333361,"velocity":0.7637795275590551,"duration":0.12239583333337123},{"name":"A3","midi":57,"time":622.2395833333361,"velocity":0.7637795275590551,"duration":0.49479166666662877},{"name":"G5","midi":79,"time":622.3645833333361,"velocity":0.7637795275590551,"duration":0.12239583333337123},{"name":"F#5","midi":78,"time":622.4895833333361,"velocity":0.7637795275590551,"duration":0.12239583333337123},{"name":"A4","midi":69,"time":622.4895833333361,"velocity":0.7637795275590551,"duration":0.12239583333337123},{"name":"G5","midi":79,"time":622.6145833333361,"velocity":0.7637795275590551,"duration":0.12239583333325754},{"name":"G4","midi":67,"time":622.6145833333361,"velocity":0.7637795275590551,"duration":0.12239583333325754},{"name":"A5","midi":81,"time":622.739583333336,"velocity":0.7637795275590551,"duration":0.12239583333337123},{"name":"F#4","midi":66,"time":622.739583333336,"velocity":0.7637795275590551,"duration":0.12239583333337123},{"name":"G5","midi":79,"time":622.864583333336,"velocity":0.7637795275590551,"duration":0.12239583333337123},{"name":"E4","midi":64,"time":622.864583333336,"velocity":0.7637795275590551,"duration":0.12239583333337123},{"name":"F#5","midi":78,"time":622.989583333336,"velocity":0.7637795275590551,"duration":0.12239583333337123},{"name":"D4","midi":62,"time":622.989583333336,"velocity":0.7637795275590551,"duration":0.12239583333337123},{"name":"G5","midi":79,"time":623.114583333336,"velocity":0.7637795275590551,"duration":0.12239583333337123},{"name":"C4","midi":60,"time":623.114583333336,"velocity":0.7637795275590551,"duration":0.12239583333337123},{"name":"D5","midi":74,"time":623.239583333336,"velocity":0.7637795275590551,"duration":0.24739583333337123},{"name":"A#3","midi":58,"time":623.239583333336,"velocity":0.7637795275590551,"duration":0.24739583333337123},{"name":"G5","midi":79,"time":623.489583333336,"velocity":0.7637795275590551,"duration":0.49739583333337123},{"name":"A#2","midi":46,"time":623.489583333336,"velocity":0.7637795275590551,"duration":0.24739583333337123},{"name":"D5","midi":74,"time":623.489583333336,"velocity":0.7637795275590551,"duration":0.24739583333337123},{"name":"C3","midi":48,"time":623.739583333336,"velocity":0.7637795275590551,"duration":0.24739583333337123},{"name":"A3","midi":57,"time":623.739583333336,"velocity":0.7637795275590551,"duration":0.24739583333337123},{"name":"F#5","midi":78,"time":623.989583333336,"velocity":0.7637795275590551,"duration":0.24739583333337123},{"name":"D3","midi":50,"time":623.989583333336,"velocity":0.7637795275590551,"duration":0.24739583333337123},{"name":"C5","midi":72,"time":623.989583333336,"velocity":0.7637795275590551,"duration":0.37239583333337123},{"name":"G5","midi":79,"time":624.239583333336,"velocity":0.7637795275590551,"duration":0.24739583333337123},{"name":"G2","midi":43,"time":624.239583333336,"velocity":0.7637795275590551,"duration":0.24739583333337123},{"name":"A#4","midi":70,"time":624.364583333336,"velocity":0.7637795275590551,"duration":0.12239583333337123},{"name":"D3","midi":50,"time":624.489583333336,"velocity":0.7637795275590551,"duration":0.24739583333337123},{"name":"A4","midi":69,"time":624.489583333336,"velocity":0.7637795275590551,"duration":0.12239583333337123},{"name":"C5","midi":72,"time":624.614583333336,"velocity":0.7637795275590551,"duration":0.12239583333337123},{"name":"G3","midi":55,"time":624.739583333336,"velocity":0.7637795275590551,"duration":0.7473958333333712},{"name":"A#4","midi":70,"time":624.739583333336,"velocity":0.7637795275590551,"duration":0.12239583333337123},{"name":"A4","midi":69,"time":624.864583333336,"velocity":0.7637795275590551,"duration":0.12239583333337123},{"name":"G4","midi":67,"time":624.989583333336,"velocity":0.7637795275590551,"duration":0.12239583333337123},{"name":"F4","midi":65,"time":625.114583333336,"velocity":0.7637795275590551,"duration":0.12239583333337123},{"name":"D#4","midi":63,"time":625.239583333336,"velocity":0.7637795275590551,"duration":0.24739583333337123},{"name":"C5","midi":72,"time":625.364583333336,"velocity":0.7637795275590551,"duration":0.12239583333337123},{"name":"F#4","midi":66,"time":625.489583333336,"velocity":0.7637795275590551,"duration":0.12239583333337123},{"name":"A3","midi":57,"time":625.489583333336,"velocity":0.7637795275590551,"duration":0.12239583333337123},{"name":"C4","midi":60,"time":625.489583333336,"velocity":0.7637795275590551,"duration":0.24739583333337123},{"name":"G4","midi":67,"time":625.614583333336,"velocity":0.7637795275590551,"duration":0.12239583333337123},{"name":"G3","midi":55,"time":625.614583333336,"velocity":0.7637795275590551,"duration":0.12239583333337123},{"name":"A4","midi":69,"time":625.739583333336,"velocity":0.7637795275590551,"duration":0.12239583333337123},{"name":"F#3","midi":54,"time":625.739583333336,"velocity":0.7637795275590551,"duration":0.12239583333337123},{"name":"A#4","midi":70,"time":625.864583333336,"velocity":0.7637795275590551,"duration":0.12239583333337123},{"name":"E3","midi":52,"time":625.864583333336,"velocity":0.7637795275590551,"duration":0.12239583333337123},{"name":"C5","midi":72,"time":625.989583333336,"velocity":0.7637795275590551,"duration":0.37239583333337123},{"name":"D3","midi":50,"time":625.989583333336,"velocity":0.7637795275590551,"duration":0.12239583333337123},{"name":"F#4","midi":66,"time":625.989583333336,"velocity":0.7637795275590551,"duration":0.24739583333337123},{"name":"C3","midi":48,"time":626.114583333336,"velocity":0.7637795275590551,"duration":0.12239583333337123},{"name":"A#2","midi":46,"time":626.239583333336,"velocity":0.7637795275590551,"duration":0.24739583333337123},{"name":"G4","midi":67,"time":626.239583333336,"velocity":0.7637795275590551,"duration":0.24739583333337123},{"name":"A#4","midi":70,"time":626.364583333336,"velocity":0.7637795275590551,"duration":0.12239583333337123},{"name":"A4","midi":69,"time":626.489583333336,"velocity":0.7637795275590551,"duration":0.12239583333337123},{"name":"D4","midi":62,"time":626.489583333336,"velocity":0.7637795275590551,"duration":0.24739583333337123},{"name":"A#4","midi":70,"time":626.614583333336,"velocity":0.7637795275590551,"duration":0.12239583333337123},{"name":"C5","midi":72,"time":626.739583333336,"velocity":0.7637795275590551,"duration":0.12239583333337123},{"name":"A2","midi":45,"time":626.739583333336,"velocity":0.7637795275590551,"duration":0.24739583333337123},{"name":"D5","midi":74,"time":626.864583333336,"velocity":0.7637795275590551,"duration":0.12239583333337123},{"name":"E5","midi":76,"time":626.989583333336,"velocity":0.7637795275590551,"duration":0.12239583333337123},{"name":"C4","midi":60,"time":626.989583333336,"velocity":0.7637795275590551,"duration":0.24739583333337123},{"name":"A4","midi":69,"time":626.989583333336,"velocity":0.7637795275590551,"duration":0.24739583333337123},{"name":"F#5","midi":78,"time":627.114583333336,"velocity":0.7637795275590551,"duration":0.12239583333337123},{"name":"G5","midi":79,"time":627.239583333336,"velocity":0.7637795275590551,"duration":0.24739583333337123},{"name":"G2","midi":43,"time":627.239583333336,"velocity":0.7637795275590551,"duration":0.24739583333337123},{"name":"A#4","midi":70,"time":627.239583333336,"velocity":0.7637795275590551,"duration":0.12239583333337123},{"name":"D5","midi":74,"time":627.364583333336,"velocity":0.7637795275590551,"duration":0.37239583333337123},{"name":"F#5","midi":78,"time":627.489583333336,"velocity":0.7637795275590551,"duration":0.12239583333337123},{"name":"A#3","midi":58,"time":627.489583333336,"velocity":0.7637795275590551,"duration":0.24739583333337123},{"name":"G5","midi":79,"time":627.614583333336,"velocity":0.7637795275590551,"duration":0.8723958333333712},{"name":"F2","midi":41,"time":627.739583333336,"velocity":0.7637795275590551,"duration":0.24739583333337123},{"name":"A#4","midi":70,"time":627.739583333336,"velocity":0.7637795275590551,"duration":0.12239583333337123},{"name":"C#5","midi":73,"time":627.864583333336,"velocity":0.7637795275590551,"duration":0.12239583333337123},{"name":"G#3","midi":56,"time":627.989583333336,"velocity":0.7637795275590551,"duration":0.24739583333337123},{"name":"C5","midi":72,"time":627.989583333336,"velocity":0.7637795275590551,"duration":0.12239583333337123},{"name":"C#5","midi":73,"time":628.114583333336,"velocity":0.7637795275590551,"duration":0.12239583333337123},{"name":"E2","midi":40,"time":628.239583333336,"velocity":0.7637795275590551,"duration":0.24739583333337123},{"name":"A#4","midi":70,"time":628.239583333336,"velocity":0.7637795275590551,"duration":0.12239583333337123},{"name":"C#5","midi":73,"time":628.364583333336,"velocity":0.7637795275590551,"duration":0.37239583333337123},{"name":"E5","midi":76,"time":628.489583333336,"velocity":0.7637795275590551,"duration":0.12239583333337123},{"name":"G3","midi":55,"time":628.489583333336,"velocity":0.7637795275590551,"duration":0.24739583333337123},{"name":"G5","midi":79,"time":628.614583333336,"velocity":0.7637795275590551,"duration":0.8723958333333712},{"name":"C2","midi":36,"time":628.739583333336,"velocity":0.7637795275590551,"duration":0.24739583333337123},{"name":"A#4","midi":70,"time":628.739583333336,"velocity":0.7637795275590551,"duration":0.12239583333337123},{"name":"C5","midi":72,"time":628.864583333336,"velocity":0.7637795275590551,"duration":0.12239583333337123},{"name":"E3","midi":52,"time":628.989583333336,"velocity":0.7637795275590551,"duration":0.24739583333337123},{"name":"A#4","midi":70,"time":628.989583333336,"velocity":0.7637795275590551,"duration":0.12239583333337123},{"name":"C5","midi":72,"time":629.114583333336,"velocity":0.7637795275590551,"duration":0.12239583333337123},{"name":"F2","midi":41,"time":629.239583333336,"velocity":0.7637795275590551,"duration":0.24739583333337123},{"name":"G#4","midi":68,"time":629.239583333336,"velocity":0.7637795275590551,"duration":0.12239583333337123},{"name":"C5","midi":72,"time":629.364583333336,"velocity":0.7637795275590551,"duration":0.37239583333337123},{"name":"E5","midi":76,"time":629.489583333336,"velocity":0.7637795275590551,"duration":0.12239583333337123},{"name":"G#3","midi":56,"time":629.489583333336,"velocity":0.7637795275590551,"duration":0.24739583333337123},{"name":"F5","midi":77,"time":629.614583333336,"velocity":0.7637795275590551,"duration":0.8723958333333712},{"name":"D#2","midi":39,"time":629.739583333336,"velocity":0.7637795275590551,"duration":0.24739583333337123},{"name":"G#4","midi":68,"time":629.739583333336,"velocity":0.7637795275590551,"duration":0.12239583333337123},{"name":"C5","midi":72,"time":629.864583333336,"velocity":0.7637795275590551,"duration":0.12239583333337123},{"name":"G3","midi":55,"time":629.989583333336,"velocity":0.7637795275590551,"duration":0.24739583333337123},{"name":"A#4","midi":70,"time":629.989583333336,"velocity":0.7637795275590551,"duration":0.12239583333337123},{"name":"C5","midi":72,"time":630.114583333336,"velocity":0.7637795275590551,"duration":0.12239583333337123},{"name":"D2","midi":38,"time":630.239583333336,"velocity":0.7637795275590551,"duration":0.24739583333337123},{"name":"G#4","midi":68,"time":630.239583333336,"velocity":0.7637795275590551,"duration":0.12239583333337123},{"name":"A#4","midi":70,"time":630.364583333336,"velocity":0.7637795275590551,"duration":0.37239583333337123},{"name":"D5","midi":74,"time":630.489583333336,"velocity":0.7637795275590551,"duration":0.12239583333337123},{"name":"F3","midi":53,"time":630.489583333336,"velocity":0.7637795275590551,"duration":0.24739583333337123},{"name":"F5","midi":77,"time":630.614583333336,"velocity":0.7637795275590551,"duration":0.7473958333333712},{"name":"A#1","midi":34,"time":630.739583333336,"velocity":0.7637795275590551,"duration":0.24739583333337123},{"name":"G#4","midi":68,"time":630.739583333336,"velocity":0.7637795275590551,"duration":0.12239583333337123},{"name":"A#4","midi":70,"time":630.864583333336,"velocity":0.7637795275590551,"duration":0.12239583333337123},{"name":"D3","midi":50,"time":630.989583333336,"velocity":0.7637795275590551,"duration":0.24739583333337123},{"name":"G#4","midi":68,"time":630.989583333336,"velocity":0.7637795275590551,"duration":0.12239583333337123},{"name":"A#4","midi":70,"time":631.114583333336,"velocity":0.7637795275590551,"duration":0.12239583333337123},{"name":"D#2","midi":39,"time":631.239583333336,"velocity":0.7637795275590551,"duration":0.24739583333337123},{"name":"G4","midi":67,"time":631.239583333336,"velocity":0.7637795275590551,"duration":0.24739583333337123},{"name":"D#5","midi":75,"time":631.364583333336,"velocity":0.7637795275590551,"duration":0.12239583333337123},{"name":"D5","midi":74,"time":631.489583333336,"velocity":0.7637795275590551,"duration":0.12239583333337123},{"name":"D#3","midi":51,"time":631.489583333336,"velocity":0.7637795275590551,"duration":0.24739583333337123},{"name":"F5","midi":77,"time":631.614583333336,"velocity":0.7637795275590551,"duration":0.12239583333337123},{"name":"D#5","midi":75,"time":631.739583333336,"velocity":0.7637795275590551,"duration":0.12239583333337123},{"name":"F3","midi":53,"time":631.739583333336,"velocity":0.7637795275590551,"duration":0.24739583333337123},{"name":"D5","midi":74,"time":631.864583333336,"velocity":0.7637795275590551,"duration":0.12239583333337123},{"name":"C5","midi":72,"time":631.989583333336,"velocity":0.7637795275590551,"duration":0.12239583333337123},{"name":"G3","midi":55,"time":631.989583333336,"velocity":0.7637795275590551,"duration":0.24739583333337123},{"name":"B4","midi":71,"time":632.114583333336,"velocity":0.7637795275590551,"duration":0.12239583333337123},{"name":"C5","midi":72,"time":632.239583333336,"velocity":0.7637795275590551,"duration":0.12239583333337123},{"name":"G#3","midi":56,"time":632.239583333336,"velocity":0.7637795275590551,"duration":0.24739583333337123},{"name":"B4","midi":71,"time":632.364583333336,"velocity":0.7637795275590551,"duration":0.12239583333337123},{"name":"C5","midi":72,"time":632.489583333336,"velocity":0.7637795275590551,"duration":0.12239583333337123},{"name":"D#4","midi":63,"time":632.489583333336,"velocity":0.7637795275590551,"duration":0.12239583333337123},{"name":"D5","midi":74,"time":632.614583333336,"velocity":0.7637795275590551,"duration":0.12239583333337123},{"name":"F4","midi":65,"time":632.614583333336,"velocity":0.7637795275590551,"duration":0.12239583333337123},{"name":"D#5","midi":75,"time":632.739583333336,"velocity":0.7637795275590551,"duration":0.12239583333337123},{"name":"G4","midi":67,"time":632.739583333336,"velocity":0.7637795275590551,"duration":0.12239583333337123},{"name":"F5","midi":77,"time":632.864583333336,"velocity":0.7637795275590551,"duration":0.12239583333337123},{"name":"A4","midi":69,"time":632.864583333336,"velocity":0.7637795275590551,"duration":0.12239583333337123},{"name":"G5","midi":79,"time":632.989583333336,"velocity":0.7637795275590551,"duration":0.37239583333337123},{"name":"B4","midi":71,"time":632.989583333336,"velocity":0.7637795275590551,"duration":0.12239583333337123},{"name":"C5","midi":72,"time":633.114583333336,"velocity":0.7637795275590551,"duration":0.12239583333337123},{"name":"D5","midi":74,"time":633.239583333336,"velocity":0.7637795275590551,"duration":0.24739583333337123},{"name":"F5","midi":77,"time":633.364583333336,"velocity":0.7637795275590551,"duration":0.12239583333337123},{"name":"D#5","midi":75,"time":633.489583333336,"velocity":0.7637795275590551,"duration":0.12239583333337123},{"name":"D3","midi":50,"time":633.489583333336,"velocity":0.7637795275590551,"duration":0.24739583333337123},{"name":"G5","midi":79,"time":633.614583333336,"velocity":0.7637795275590551,"duration":0.12239583333337123},{"name":"F5","midi":77,"time":633.739583333336,"velocity":0.7637795275590551,"duration":0.12239583333337123},{"name":"D#3","midi":51,"time":633.739583333336,"velocity":0.7637795275590551,"duration":0.24739583333337123},{"name":"D#5","midi":75,"time":633.864583333336,"velocity":0.7637795275590551,"duration":0.12239583333337123},{"name":"D5","midi":74,"time":633.989583333336,"velocity":0.7637795275590551,"duration":0.12239583333337123},{"name":"F3","midi":53,"time":633.989583333336,"velocity":0.7637795275590551,"duration":0.24739583333337123},{"name":"C5","midi":72,"time":634.114583333336,"velocity":0.7637795275590551,"duration":0.12239583333337123},{"name":"B4","midi":71,"time":634.239583333336,"velocity":0.7637795275590551,"duration":0.12239583333337123},{"name":"G3","midi":55,"time":634.239583333336,"velocity":0.7637795275590551,"duration":0.24739583333337123},{"name":"A4","midi":69,"time":634.364583333336,"velocity":0.7637795275590551,"duration":0.12239583333337123},{"name":"B4","midi":71,"time":634.489583333336,"velocity":0.7637795275590551,"duration":0.12239583333337123},{"name":"D4","midi":62,"time":634.489583333336,"velocity":0.7637795275590551,"duration":0.12239583333337123},{"name":"C5","midi":72,"time":634.614583333336,"velocity":0.7637795275590551,"duration":0.12239583333337123},{"name":"D#4","midi":63,"time":634.614583333336,"velocity":0.7637795275590551,"duration":0.12239583333337123},{"name":"D5","midi":74,"time":634.739583333336,"velocity":0.7637795275590551,"duration":0.12239583333337123},{"name":"F4","midi":65,"time":634.739583333336,"velocity":0.7637795275590551,"duration":0.12239583333337123},{"name":"D#5","midi":75,"time":634.864583333336,"velocity":0.7637795275590551,"duration":0.12239583333337123},{"name":"G4","midi":67,"time":634.864583333336,"velocity":0.7637795275590551,"duration":0.12239583333337123},{"name":"F5","midi":77,"time":634.989583333336,"velocity":0.7637795275590551,"duration":0.37239583333337123},{"name":"A4","midi":69,"time":634.989583333336,"velocity":0.7637795275590551,"duration":0.12239583333337123},{"name":"B4","midi":71,"time":635.114583333336,"velocity":0.7637795275590551,"duration":0.12239583333337123},{"name":"C5","midi":72,"time":635.239583333336,"velocity":0.7637795275590551,"duration":0.24739583333337123},{"name":"G#5","midi":80,"time":635.364583333336,"velocity":0.7637795275590551,"duration":0.12239583333337123},{"name":"G5","midi":79,"time":635.489583333336,"velocity":0.7637795275590551,"duration":0.12239583333337123},{"name":"G3","midi":55,"time":635.489583333336,"velocity":0.7637795275590551,"duration":0.24739583333337123},{"name":"F5","midi":77,"time":635.614583333336,"velocity":0.7637795275590551,"duration":0.12239583333337123},{"name":"D#5","midi":75,"time":635.739583333336,"velocity":0.7637795275590551,"duration":0.12239583333337123},{"name":"C4","midi":60,"time":635.739583333336,"velocity":0.7637795275590551,"duration":0.7473958333333712},{"name":"D5","midi":74,"time":635.864583333336,"velocity":0.7637795275590551,"duration":0.12239583333337123},{"name":"C5","midi":72,"time":635.989583333336,"velocity":0.7637795275590551,"duration":0.12239583333337123},{"name":"A#4","midi":70,"time":636.114583333336,"velocity":0.7637795275590551,"duration":0.12239583333337123},{"name":"G#4","midi":68,"time":636.239583333336,"velocity":0.7637795275590551,"duration":0.12239583333337123},{"name":"C5","midi":72,"time":636.364583333336,"velocity":0.7637795275590551,"duration":0.12239583333337123},{"name":"F5","midi":77,"time":636.489583333336,"velocity":0.7637795275590551,"duration":0.12239583333337123},{"name":"D4","midi":62,"time":636.489583333336,"velocity":0.7637795275590551,"duration":0.12239583333337123},{"name":"D#5","midi":75,"time":636.614583333336,"velocity":0.7637795275590551,"duration":0.12239583333337123},{"name":"C4","midi":60,"time":636.614583333336,"velocity":0.7637795275590551,"duration":0.12239583333337123},{"name":"D5","midi":74,"time":636.739583333336,"velocity":0.7637795275590551,"duration":0.12239583333337123},{"name":"B3","midi":59,"time":636.739583333336,"velocity":0.7637795275590551,"duration":0.12239583333337123},{"name":"C5","midi":72,"time":636.864583333336,"velocity":0.7637795275590551,"duration":0.12239583333337123},{"name":"A3","midi":57,"time":636.864583333336,"velocity":0.7637795275590551,"duration":0.12239583333337123},{"name":"B4","midi":71,"time":636.989583333336,"velocity":0.7637795275590551,"duration":0.12239583333337123},{"name":"G3","midi":55,"time":636.989583333336,"velocity":0.7637795275590551,"duration":0.12239583333337123},{"name":"D5","midi":74,"time":637.114583333336,"velocity":0.7637795275590551,"duration":0.12239583333337123},{"name":"F3","midi":53,"time":637.114583333336,"velocity":0.7637795275590551,"duration":0.12239583333337123},{"name":"G5","midi":79,"time":637.239583333336,"velocity":0.7637795275590551,"duration":0.12239583333337123},{"name":"D#3","midi":51,"time":637.239583333336,"velocity":0.7637795275590551,"duration":0.24739583333337123},{"name":"F5","midi":77,"time":637.364583333336,"velocity":0.7637795275590551,"duration":0.12239583333337123},{"name":"D#5","midi":75,"time":637.489583333336,"velocity":0.7637795275590551,"duration":0.12239583333337123},{"name":"G4","midi":67,"time":637.489583333336,"velocity":0.7637795275590551,"duration":0.24739583333337123},{"name":"C5","midi":72,"time":637.489583333336,"velocity":0.7637795275590551,"duration":0.49739583333337123},{"name":"G5","midi":79,"time":637.614583333336,"velocity":0.7637795275590551,"duration":0.12239583333337123},{"name":"F5","midi":77,"time":637.739583333336,"velocity":0.7637795275590551,"duration":0.12239583333337123},{"name":"D3","midi":50,"time":637.739583333336,"velocity":0.7637795275590551,"duration":0.24739583333337123},{"name":"D#5","midi":75,"time":637.864583333336,"velocity":0.7637795275590551,"duration":0.12239583333337123},{"name":"D5","midi":74,"time":637.989583333336,"velocity":0.7637795275590551,"duration":0.12239583333337123},{"name":"F4","midi":65,"time":637.989583333336,"velocity":0.7637795275590551,"duration":0.24739583333337123},{"name":"B4","midi":71,"time":637.989583333336,"velocity":0.7637795275590551,"duration":0.24739583333337123},{"name":"F5","midi":77,"time":638.114583333336,"velocity":0.7637795275590551,"duration":0.12239583333337123},{"name":"D#5","midi":75,"time":638.239583333336,"velocity":0.7637795275590551,"duration":0.49479166666662877},{"name":"C3","midi":48,"time":638.239583333336,"velocity":0.7637795275590551,"duration":0.24739583333337123},{"name":"C5","midi":72,"time":638.364583333336,"velocity":0.7637795275590551,"duration":0.12239583333337123},{"name":"D#4","midi":63,"time":638.489583333336,"velocity":0.7637795275590551,"duration":0.12239583333337123},{"name":"B4","midi":71,"time":638.489583333336,"velocity":0.7637795275590551,"duration":0.12239583333337123},{"name":"D4","midi":62,"time":638.614583333336,"velocity":0.7637795275590551,"duration":0.12239583333325754},{"name":"C5","midi":72,"time":638.614583333336,"velocity":0.7637795275590551,"duration":0.12239583333325754},{"name":"C4","midi":60,"time":638.7395833333359,"velocity":0.7637795275590551,"duration":0.24739583333337123},{"name":"G4","midi":67,"time":638.7395833333359,"velocity":0.7637795275590551,"duration":0.12239583333337123},{"name":"C5","midi":72,"time":638.8645833333359,"velocity":0.7637795275590551,"duration":0.12239583333337123},{"name":"D#4","midi":63,"time":638.9895833333359,"velocity":0.7637795275590551,"duration":0.24739583333337123},{"name":"B4","midi":71,"time":638.9895833333359,"velocity":0.7637795275590551,"duration":0.12239583333337123},{"name":"C5","midi":72,"time":639.1145833333359,"velocity":0.7637795275590551,"duration":0.12239583333337123},{"name":"A3","midi":57,"time":639.2395833333359,"velocity":0.7637795275590551,"duration":0.24739583333337123},{"name":"D#5","midi":75,"time":639.2395833333359,"velocity":0.7637795275590551,"duration":0.12239583333337123},{"name":"C5","midi":72,"time":639.3645833333359,"velocity":0.7637795275590551,"duration":0.12239583333337123},{"name":"C4","midi":60,"time":639.4895833333359,"velocity":0.7637795275590551,"duration":0.24739583333337123},{"name":"A5","midi":81,"time":639.4895833333359,"velocity":0.7637795275590551,"duration":0.12239583333337123},{"name":"D#5","midi":75,"time":639.6145833333359,"velocity":0.7637795275590551,"duration":0.12239583333337123},{"name":"F3","midi":53,"time":639.7395833333359,"velocity":0.7637795275590551,"duration":0.24739583333337123},{"name":"C6","midi":84,"time":639.7395833333359,"velocity":0.7637795275590551,"duration":0.12239583333337123},{"name":"D#5","midi":75,"time":639.8645833333359,"velocity":0.7637795275590551,"duration":0.12239583333337123},{"name":"A3","midi":57,"time":639.9895833333359,"velocity":0.7637795275590551,"duration":0.24739583333337123},{"name":"D5","midi":74,"time":639.9895833333359,"velocity":0.7637795275590551,"duration":0.12239583333337123},{"name":"C5","midi":72,"time":640.1145833333359,"velocity":0.7637795275590551,"duration":0.12239583333337123},{"name":"A#2","midi":46,"time":640.2395833333359,"velocity":0.7637795275590551,"duration":0.24739583333337123},{"name":"D5","midi":74,"time":640.2395833333359,"velocity":0.7637795275590551,"duration":0.12239583333337123},{"name":"A#4","midi":70,"time":640.3645833333359,"velocity":0.7637795275590551,"duration":0.12239583333337123},{"name":"D4","midi":62,"time":640.4895833333359,"velocity":0.7637795275590551,"duration":0.12239583333337123},{"name":"A4","midi":69,"time":640.4895833333359,"velocity":0.7637795275590551,"duration":0.12239583333337123},{"name":"C4","midi":60,"time":640.6145833333359,"velocity":0.7637795275590551,"duration":0.12239583333337123},{"name":"A#4","midi":70,"time":640.6145833333359,"velocity":0.7637795275590551,"duration":0.12239583333337123},{"name":"A#3","midi":58,"time":640.7395833333359,"velocity":0.7637795275590551,"duration":0.24739583333337123},{"name":"F4","midi":65,"time":640.7395833333359,"velocity":0.7637795275590551,"duration":0.12239583333337123},{"name":"A#4","midi":70,"time":640.8645833333359,"velocity":0.7637795275590551,"duration":0.12239583333337123},{"name":"D4","midi":62,"time":640.9895833333359,"velocity":0.7637795275590551,"duration":0.24739583333337123},{"name":"A4","midi":69,"time":640.9895833333359,"velocity":0.7637795275590551,"duration":0.12239583333337123},{"name":"A#4","midi":70,"time":641.1145833333359,"velocity":0.7637795275590551,"duration":0.12239583333337123},{"name":"G3","midi":55,"time":641.2395833333359,"velocity":0.7637795275590551,"duration":0.24739583333337123},{"name":"D5","midi":74,"time":641.2395833333359,"velocity":0.7637795275590551,"duration":0.12239583333337123},{"name":"A#4","midi":70,"time":641.3645833333359,"velocity":0.7637795275590551,"duration":0.12239583333337123},{"name":"A#3","midi":58,"time":641.4895833333359,"velocity":0.7637795275590551,"duration":0.24739583333337123},{"name":"G5","midi":79,"time":641.4895833333359,"velocity":0.7637795275590551,"duration":0.12239583333337123},{"name":"D5","midi":74,"time":641.6145833333359,"velocity":0.7637795275590551,"duration":0.12239583333337123},{"name":"D#3","midi":51,"time":641.7395833333359,"velocity":0.7637795275590551,"duration":0.24739583333337123},{"name":"A#5","midi":82,"time":641.7395833333359,"velocity":0.7637795275590551,"duration":0.12239583333337123},{"name":"D5","midi":74,"time":641.8645833333359,"velocity":0.7637795275590551,"duration":0.12239583333337123},{"name":"G3","midi":55,"time":641.9895833333359,"velocity":0.7637795275590551,"duration":0.24739583333337123},{"name":"C5","midi":72,"time":641.9895833333359,"velocity":0.7637795275590551,"duration":0.12239583333337123},{"name":"A#4","midi":70,"time":642.1145833333359,"velocity":0.7637795275590551,"duration":0.12239583333337123},{"name":"A2","midi":45,"time":642.2395833333359,"velocity":0.7637795275590551,"duration":0.24739583333337123},{"name":"C5","midi":72,"time":642.2395833333359,"velocity":0.7637795275590551,"duration":0.12239583333337123},{"name":"A4","midi":69,"time":642.3645833333359,"velocity":0.7637795275590551,"duration":0.12239583333337123},{"name":"C4","midi":60,"time":642.4895833333359,"velocity":0.7637795275590551,"duration":0.12239583333337123},{"name":"G4","midi":67,"time":642.4895833333359,"velocity":0.7637795275590551,"duration":0.12239583333337123},{"name":"A#3","midi":58,"time":642.6145833333359,"velocity":0.7637795275590551,"duration":0.12239583333337123},{"name":"A4","midi":69,"time":642.6145833333359,"velocity":0.7637795275590551,"duration":0.12239583333337123},{"name":"A3","midi":57,"time":642.7395833333359,"velocity":0.7637795275590551,"duration":0.24739583333337123},{"name":"F#4","midi":66,"time":642.7395833333359,"velocity":0.7637795275590551,"duration":0.12239583333337123},{"name":"A4","midi":69,"time":642.8645833333359,"velocity":0.7637795275590551,"duration":0.12239583333337123},{"name":"C4","midi":60,"time":642.9895833333359,"velocity":0.7637795275590551,"duration":0.24739583333337123},{"name":"G4","midi":67,"time":642.9895833333359,"velocity":0.7637795275590551,"duration":0.12239583333337123},{"name":"A4","midi":69,"time":643.1145833333359,"velocity":0.7637795275590551,"duration":0.12239583333337123},{"name":"F#3","midi":54,"time":643.2395833333359,"velocity":0.7637795275590551,"duration":0.24739583333337123},{"name":"C5","midi":72,"time":643.2395833333359,"velocity":0.7637795275590551,"duration":0.12239583333337123},{"name":"A4","midi":69,"time":643.3645833333359,"velocity":0.7637795275590551,"duration":0.12239583333337123},{"name":"A3","midi":57,"time":643.4895833333359,"velocity":0.7637795275590551,"duration":0.24739583333337123},{"name":"F#5","midi":78,"time":643.4895833333359,"velocity":0.7637795275590551,"duration":0.12239583333337123},{"name":"C5","midi":72,"time":643.6145833333359,"velocity":0.7637795275590551,"duration":0.12239583333337123},{"name":"D3","midi":50,"time":643.7395833333359,"velocity":0.7637795275590551,"duration":0.24739583333337123},{"name":"A5","midi":81,"time":643.7395833333359,"velocity":0.7637795275590551,"duration":0.12239583333337123},{"name":"C5","midi":72,"time":643.8645833333359,"velocity":0.7637795275590551,"duration":0.12239583333337123},{"name":"F#3","midi":54,"time":643.9895833333359,"velocity":0.7637795275590551,"duration":0.24739583333337123},{"name":"A#4","midi":70,"time":643.9895833333359,"velocity":0.7637795275590551,"duration":0.12239583333337123},{"name":"A4","midi":69,"time":644.1145833333359,"velocity":0.7637795275590551,"duration":0.12239583333337123},{"name":"G2","midi":43,"time":644.2395833333359,"velocity":0.7637795275590551,"duration":0.24739583333337123},{"name":"A#4","midi":70,"time":644.2395833333359,"velocity":0.7637795275590551,"duration":0.24739583333337123},{"name":"G3","midi":55,"time":644.3645833333359,"velocity":0.7637795275590551,"duration":0.12239583333337123},{"name":"F#3","midi":54,"time":644.4895833333359,"velocity":0.7637795275590551,"duration":0.12239583333337123},{"name":"D5","midi":74,"time":644.4895833333359,"velocity":0.7637795275590551,"duration":0.24739583333337123},{"name":"G3","midi":55,"time":644.6145833333359,"velocity":0.7637795275590551,"duration":0.12239583333337123},{"name":"D3","midi":50,"time":644.7395833333359,"velocity":0.7637795275590551,"duration":0.12239583333337123},{"name":"A#2","midi":46,"time":644.7395833333359,"velocity":0.7637795275590551,"duration":0.24739583333337123},{"name":"G5","midi":79,"time":644.7395833333359,"velocity":0.7637795275590551,"duration":0.7473958333333712},{"name":"G3","midi":55,"time":644.8645833333359,"velocity":0.7637795275590551,"duration":0.12239583333337123},{"name":"F#3","midi":54,"time":644.9895833333359,"velocity":0.7637795275590551,"duration":0.12239583333337123},{"name":"G3","midi":55,"time":645.1145833333359,"velocity":0.7637795275590551,"duration":0.12239583333337123},{"name":"C3","midi":48,"time":645.2395833333359,"velocity":0.7637795275590551,"duration":0.12239583333337123},{"name":"A2","midi":45,"time":645.2395833333359,"velocity":0.7637795275590551,"duration":0.24739583333337123},{"name":"G3","midi":55,"time":645.3645833333359,"velocity":0.7637795275590551,"duration":0.12239583333337123},{"name":"F#3","midi":54,"time":645.4895833333359,"velocity":0.7637795275590551,"duration":0.12239583333337123},{"name":"A5","midi":81,"time":645.4895833333359,"velocity":0.7637795275590551,"duration":0.12239583333337123},{"name":"G3","midi":55,"time":645.6145833333359,"velocity":0.7637795275590551,"duration":0.12239583333337123},{"name":"G5","midi":79,"time":645.6145833333359,"velocity":0.7637795275590551,"duration":0.12239583333337123},{"name":"A3","midi":57,"time":645.7395833333359,"velocity":0.7637795275590551,"duration":0.12239583333337123},{"name":"C3","midi":48,"time":645.7395833333359,"velocity":0.7637795275590551,"duration":0.24739583333337123},{"name":"F#5","midi":78,"time":645.7395833333359,"velocity":0.7637795275590551,"duration":0.12239583333337123},{"name":"G3","midi":55,"time":645.8645833333359,"velocity":0.7637795275590551,"duration":0.12239583333337123},{"name":"E5","midi":76,"time":645.8645833333359,"velocity":0.7637795275590551,"duration":0.12239583333337123},{"name":"F#3","midi":54,"time":645.9895833333359,"velocity":0.7637795275590551,"duration":0.12239583333337123},{"name":"D5","midi":74,"time":645.9895833333359,"velocity":0.7637795275590551,"duration":0.12239583333337123},{"name":"E3","midi":52,"time":646.1145833333359,"velocity":0.7637795275590551,"duration":0.12239583333337123},{"name":"C5","midi":72,"time":646.1145833333359,"velocity":0.7637795275590551,"duration":0.12239583333337123},{"name":"D3","midi":50,"time":646.2395833333359,"velocity":0.7637795275590551,"duration":0.24739583333337123},{"name":"A#4","midi":70,"time":646.2395833333359,"velocity":0.7637795275590551,"duration":0.24739583333337123},{"name":"G3","midi":55,"time":646.4895833333359,"velocity":0.7637795275590551,"duration":0.49739583333337123},{"name":"A#2","midi":46,"time":646.4895833333359,"velocity":0.7637795275590551,"duration":0.24739583333337123},{"name":"D6","midi":86,"time":646.4895833333359,"velocity":0.7637795275590551,"duration":0.24739583333337123},{"name":"C3","midi":48,"time":646.7395833333359,"velocity":0.7637795275590551,"duration":0.24739583333337123},{"name":"A4","midi":69,"time":646.7395833333359,"velocity":0.7637795275590551,"duration":0.24739583333337123},{"name":"F#3","midi":54,"time":646.9895833333359,"velocity":0.7637795275590551,"duration":0.24739583333337123},{"name":"D3","midi":50,"time":646.9895833333359,"velocity":0.7637795275590551,"duration":0.24739583333337123},{"name":"C6","midi":84,"time":646.9895833333359,"velocity":0.7637795275590551,"duration":0.24739583333337123},{"name":"G2","midi":43,"time":647.2395833333359,"velocity":0.7637795275590551,"duration":0.24739583333337123},{"name":"G4","midi":67,"time":647.2395833333359,"velocity":0.7637795275590551,"duration":0.24739583333337123},{"name":"G3","midi":55,"time":647.3645833333359,"velocity":0.7637795275590551,"duration":0.12239583333337123},{"name":"F#3","midi":54,"time":647.4895833333359,"velocity":0.7637795275590551,"duration":0.12239583333337123},{"name":"A#5","midi":82,"time":647.4895833333359,"velocity":0.7637795275590551,"duration":0.12239583333337123},{"name":"G3","midi":55,"time":647.6145833333359,"velocity":0.7637795275590551,"duration":0.12239583333337123},{"name":"A5","midi":81,"time":647.6145833333359,"velocity":0.7637795275590551,"duration":0.12239583333337123},{"name":"D3","midi":50,"time":647.7395833333359,"velocity":0.7637795275590551,"duration":0.12239583333337123},{"name":"A#2","midi":46,"time":647.7395833333359,"velocity":0.7637795275590551,"duration":0.24739583333337123},{"name":"G5","midi":79,"time":647.7395833333359,"velocity":0.7637795275590551,"duration":0.24739583333337123},{"name":"G3","midi":55,"time":647.8645833333359,"velocity":0.7637795275590551,"duration":0.12239583333337123},{"name":"F#3","midi":54,"time":647.9895833333359,"velocity":0.7637795275590551,"duration":0.12239583333337123},{"name":"A#5","midi":82,"time":647.9895833333359,"velocity":0.7637795275590551,"duration":0.24739583333337123},{"name":"G3","midi":55,"time":648.1145833333359,"velocity":0.7637795275590551,"duration":0.12239583333337123},{"name":"A#3","midi":58,"time":648.2395833333359,"velocity":0.7637795275590551,"duration":0.12239583333337123},{"name":"E5","midi":76,"time":648.2395833333359,"velocity":0.7637795275590551,"duration":0.24739583333337123},{"name":"G3","midi":55,"time":648.3645833333359,"velocity":0.7637795275590551,"duration":0.12239583333337123},{"name":"E4","midi":64,"time":648.4895833333359,"velocity":0.7637795275590551,"duration":0.12239583333337123},{"name":"G5","midi":79,"time":648.4895833333359,"velocity":0.7637795275590551,"duration":0.24739583333337123},{"name":"A#3","midi":58,"time":648.6145833333359,"velocity":0.7637795275590551,"duration":0.12239583333337123},{"name":"G4","midi":67,"time":648.7395833333359,"velocity":0.7637795275590551,"duration":0.12239583333337123},{"name":"C3","midi":48,"time":648.7395833333359,"velocity":0.7637795275590551,"duration":0.24739583333337123},{"name":"A#4","midi":70,"time":648.7395833333359,"velocity":0.7637795275590551,"duration":0.24739583333337123},{"name":"A#3","midi":58,"time":648.8645833333359,"velocity":0.7637795275590551,"duration":0.12239583333337123},{"name":"G#3","midi":56,"time":648.9895833333359,"velocity":0.7637795275590551,"duration":0.12239583333337123},{"name":"E5","midi":76,"time":648.9895833333359,"velocity":0.7637795275590551,"duration":0.24739583333337123},{"name":"G3","midi":55,"time":649.1145833333359,"velocity":0.7637795275590551,"duration":0.12239583333337123},{"name":"G#3","midi":56,"time":649.2395833333359,"velocity":0.7637795275590551,"duration":0.12239583333337123},{"name":"F3","midi":53,"time":649.2395833333359,"velocity":0.7637795275590551,"duration":0.12239583333337123},{"name":"F4","midi":65,"time":649.2395833333359,"velocity":0.7637795275590551,"duration":0.24739583333337123},{"name":"F3","midi":53,"time":649.3645833333359,"velocity":0.7637795275590551,"duration":0.12239583333337123},{"name":"E3","midi":52,"time":649.4895833333359,"velocity":0.7637795275590551,"duration":0.12239583333337123},{"name":"G#5","midi":80,"time":649.4895833333359,"velocity":0.7637795275590551,"duration":0.12239583333337123},{"name":"F3","midi":53,"time":649.6145833333359,"velocity":0.7637795275590551,"duration":0.12239583333337123},{"name":"G5","midi":79,"time":649.6145833333359,"velocity":0.7637795275590551,"duration":0.12239583333337123},{"name":"C3","midi":48,"time":649.7395833333359,"velocity":0.7637795275590551,"duration":0.12239583333337123},{"name":"G#2","midi":44,"time":649.7395833333359,"velocity":0.7637795275590551,"duration":0.24739583333337123},{"name":"F5","midi":77,"time":649.7395833333359,"velocity":0.7637795275590551,"duration":0.24739583333337123},{"name":"F3","midi":53,"time":649.8645833333359,"velocity":0.7637795275590551,"duration":0.12239583333337123},{"name":"E3","midi":52,"time":649.9895833333359,"velocity":0.7637795275590551,"duration":0.12239583333337123},{"name":"G#5","midi":80,"time":649.9895833333359,"velocity":0.7637795275590551,"duration":0.24739583333337123},{"name":"F3","midi":53,"time":650.1145833333359,"velocity":0.7637795275590551,"duration":0.12239583333337123},{"name":"G#3","midi":56,"time":650.2395833333359,"velocity":0.7637795275590551,"duration":0.12239583333337123},{"name":"D5","midi":74,"time":650.2395833333359,"velocity":0.7637795275590551,"duration":0.24739583333337123},{"name":"F3","midi":53,"time":650.3645833333359,"velocity":0.7637795275590551,"duration":0.12239583333337123},{"name":"D4","midi":62,"time":650.4895833333359,"velocity":0.7637795275590551,"duration":0.12239583333337123},{"name":"F5","midi":77,"time":650.4895833333359,"velocity":0.7637795275590551,"duration":0.24739583333337123},{"name":"G#3","midi":56,"time":650.6145833333359,"velocity":0.7637795275590551,"duration":0.12239583333337123},{"name":"F4","midi":65,"time":650.7395833333359,"velocity":0.7637795275590551,"duration":0.12239583333337123},{"name":"A#2","midi":46,"time":650.7395833333359,"velocity":0.7637795275590551,"duration":0.24739583333337123},{"name":"G#4","midi":68,"time":650.7395833333359,"velocity":0.7637795275590551,"duration":0.24739583333337123},{"name":"G#3","midi":56,"time":650.8645833333359,"velocity":0.7637795275590551,"duration":0.12239583333337123},{"name":"G3","midi":55,"time":650.9895833333359,"velocity":0.7637795275590551,"duration":0.12239583333337123},{"name":"D5","midi":74,"time":650.9895833333359,"velocity":0.7637795275590551,"duration":0.24739583333337123},{"name":"F3","midi":53,"time":651.1145833333359,"velocity":0.7637795275590551,"duration":0.12239583333337123},{"name":"G3","midi":55,"time":651.2395833333359,"velocity":0.7637795275590551,"duration":0.24739583333337123},{"name":"D#4","midi":63,"time":651.2395833333359,"velocity":0.7637795275590551,"duration":0.49479166666662877},{"name":"F3","midi":53,"time":651.3645833333359,"velocity":0.7637795275590551,"duration":0.12239583333337123},{"name":"A#3","midi":58,"time":651.4895833333359,"velocity":0.7637795275590551,"duration":0.24739583333325754},{"name":"D#3","midi":51,"time":651.4895833333359,"velocity":0.7637795275590551,"duration":0.12239583333337123},{"name":"D3","midi":50,"time":651.6145833333359,"velocity":0.7637795275590551,"duration":0.12239583333325754},{"name":"D#4","midi":63,"time":651.7395833333358,"velocity":0.7637795275590551,"duration":0.7473958333333712},{"name":"C3","midi":48,"time":651.7395833333358,"velocity":0.7637795275590551,"duration":0.12239583333337123},{"name":"A#2","midi":46,"time":651.8645833333358,"velocity":0.7637795275590551,"duration":0.12239583333337123},{"name":"G#2","midi":44,"time":651.9895833333358,"velocity":0.7637795275590551,"duration":0.12239583333337123},{"name":"C5","midi":72,"time":651.9895833333358,"velocity":0.7637795275590551,"duration":0.24739583333337123},{"name":"G2","midi":43,"time":652.1145833333358,"velocity":0.7637795275590551,"duration":0.12239583333337123},{"name":"F2","midi":41,"time":652.2395833333358,"velocity":0.7637795275590551,"duration":0.12239583333337123},{"name":"G#4","midi":68,"time":652.2395833333358,"velocity":0.7637795275590551,"duration":0.49479166666662877},{"name":"D#3","midi":51,"time":652.3645833333358,"velocity":0.7637795275590551,"duration":0.12239583333337123},{"name":"F4","midi":65,"time":652.4895833333358,"velocity":0.7637795275590551,"duration":0.12239583333337123},{"name":"D3","midi":50,"time":652.4895833333358,"velocity":0.7637795275590551,"duration":0.12239583333337123},{"name":"D#4","midi":63,"time":652.6145833333358,"velocity":0.7637795275590551,"duration":0.12239583333325754},{"name":"C3","midi":48,"time":652.6145833333358,"velocity":0.7637795275590551,"duration":0.12239583333325754},{"name":"D4","midi":62,"time":652.7395833333356,"velocity":0.7637795275590551,"duration":0.12239583333337123},{"name":"A#2","midi":46,"time":652.7395833333356,"velocity":0.7637795275590551,"duration":0.12239583333337123},{"name":"C4","midi":60,"time":652.8645833333356,"velocity":0.7637795275590551,"duration":0.12239583333337123},{"name":"G#2","midi":44,"time":652.8645833333356,"velocity":0.7637795275590551,"duration":0.12239583333337123},{"name":"A#3","midi":58,"time":652.9895833333356,"velocity":0.7637795275590551,"duration":0.12239583333337123},{"name":"G2","midi":43,"time":652.9895833333356,"velocity":0.7637795275590551,"duration":0.12239583333337123},{"name":"G#3","midi":56,"time":653.1145833333356,"velocity":0.7637795275590551,"duration":0.12239583333337123},{"name":"F2","midi":41,"time":653.1145833333356,"velocity":0.7637795275590551,"duration":0.12239583333337123},{"name":"G3","midi":55,"time":653.2395833333356,"velocity":0.7637795275590551,"duration":0.49479166666662877},{"name":"D#2","midi":39,"time":653.2395833333356,"velocity":0.7637795275590551,"duration":0.12239583333337123},{"name":"D3","midi":50,"time":653.3645833333356,"velocity":0.7637795275590551,"duration":0.12239583333337123},{"name":"C3","midi":48,"time":653.4895833333356,"velocity":0.7637795275590551,"duration":0.12239583333337123},{"name":"G4","midi":67,"time":653.4895833333356,"velocity":0.7637795275590551,"duration":0.24739583333325754},{"name":"A#2","midi":46,"time":653.6145833333356,"velocity":0.7637795275590551,"duration":0.12239583333325754},{"name":"G#2","midi":44,"time":653.7395833333355,"velocity":0.7637795275590551,"duration":0.12239583333337123},{"name":"C5","midi":72,"time":653.7395833333355,"velocity":0.7637795275590551,"duration":0.7473958333333712},{"name":"G2","midi":43,"time":653.8645833333355,"velocity":0.7637795275590551,"duration":0.12239583333337123},{"name":"C4","midi":60,"time":653.9895833333355,"velocity":0.7637795275590551,"duration":0.24739583333337123},{"name":"F2","midi":41,"time":653.9895833333355,"velocity":0.7637795275590551,"duration":0.12239583333337123},{"name":"D#2","midi":39,"time":654.1145833333355,"velocity":0.7637795275590551,"duration":0.12239583333337123},{"name":"F4","midi":65,"time":654.2395833333355,"velocity":0.7637795275590551,"duration":0.49479166666662877},{"name":"D2","midi":38,"time":654.2395833333355,"velocity":0.7637795275590551,"duration":0.12239583333337123},{"name":"C3","midi":48,"time":654.3645833333355,"velocity":0.7637795275590551,"duration":0.12239583333337123},{"name":"A#2","midi":46,"time":654.4895833333355,"velocity":0.7637795275590551,"duration":0.12239583333337123},{"name":"D5","midi":74,"time":654.4895833333355,"velocity":0.7637795275590551,"duration":0.12239583333337123},{"name":"G#2","midi":44,"time":654.6145833333355,"velocity":0.7637795275590551,"duration":0.12239583333325754},{"name":"C5","midi":72,"time":654.6145833333355,"velocity":0.7637795275590551,"duration":0.12239583333325754},{"name":"G2","midi":43,"time":654.7395833333354,"velocity":0.7637795275590551,"duration":0.12239583333337123},{"name":"B4","midi":71,"time":654.7395833333354,"velocity":0.7637795275590551,"duration":0.12239583333337123},{"name":"F2","midi":41,"time":654.8645833333354,"velocity":0.7637795275590551,"duration":0.12239583333337123},{"name":"A4","midi":69,"time":654.8645833333354,"velocity":0.7637795275590551,"duration":0.12239583333337123},{"name":"D#2","midi":39,"time":654.9895833333354,"velocity":0.7637795275590551,"duration":0.12239583333337123},{"name":"G4","midi":67,"time":654.9895833333354,"velocity":0.7637795275590551,"duration":0.12239583333337123},{"name":"D2","midi":38,"time":655.1145833333354,"velocity":0.7637795275590551,"duration":0.12239583333337123},{"name":"F4","midi":65,"time":655.1145833333354,"velocity":0.7637795275590551,"duration":0.12239583333337123},{"name":"C2","midi":36,"time":655.2395833333354,"velocity":0.7637795275590551,"duration":0.24739583333337123},{"name":"D#4","midi":63,"time":655.2395833333354,"velocity":0.7637795275590551,"duration":0.24739583333337123},{"name":"D#3","midi":51,"time":655.4895833333354,"velocity":0.7637795275590551,"duration":0.24739583333337123},{"name":"C3","midi":48,"time":655.4895833333354,"velocity":0.7637795275590551,"duration":0.49739583333337123},{"name":"G5","midi":79,"time":655.4895833333354,"velocity":0.7637795275590551,"duration":0.24739583333337123},{"name":"F3","midi":53,"time":655.7395833333354,"velocity":0.7637795275590551,"duration":0.24739583333337123},{"name":"D4","midi":62,"time":655.7395833333354,"velocity":0.7637795275590551,"duration":0.24739583333337123},{"name":"G3","midi":55,"time":655.9895833333354,"velocity":0.7637795275590551,"duration":0.49739583333337123},{"name":"B2","midi":47,"time":655.9895833333354,"velocity":0.7637795275590551,"duration":0.24739583333337123},{"name":"F5","midi":77,"time":655.9895833333354,"velocity":0.7637795275590551,"duration":0.37239583333337123},{"name":"C3","midi":48,"time":656.2395833333354,"velocity":0.7637795275590551,"duration":0.49479166666662877},{"name":"D#5","midi":75,"time":656.3645833333354,"velocity":0.7637795275590551,"duration":0.12239583333337123},{"name":"G3","midi":55,"time":656.4895833333354,"velocity":0.7637795275590551,"duration":0.24739583333325754},{"name":"D5","midi":74,"time":656.4895833333354,"velocity":0.7637795275590551,"duration":0.12239583333337123},{"name":"F5","midi":77,"time":656.6145833333354,"velocity":0.7637795275590551,"duration":0.12239583333325754},{"name":"C4","midi":60,"time":656.7395833333353,"velocity":0.7637795275590551,"duration":0.7473958333333712},{"name":"D#5","midi":75,"time":656.7395833333353,"velocity":0.7637795275590551,"duration":0.12239583333337123},{"name":"C3","midi":48,"time":656.8645833333353,"velocity":0.7637795275590551,"duration":0.12239583333337123},{"name":"D5","midi":74,"time":656.8645833333353,"velocity":0.7637795275590551,"duration":0.12239583333337123},{"name":"D3","midi":50,"time":656.9895833333353,"velocity":0.7637795275590551,"duration":0.12239583333337123},{"name":"C5","midi":72,"time":656.9895833333353,"velocity":0.7637795275590551,"duration":0.12239583333337123},{"name":"D#3","midi":51,"time":657.1145833333353,"velocity":0.7637795275590551,"duration":0.12239583333337123},{"name":"A#4","midi":70,"time":657.1145833333353,"velocity":0.7637795275590551,"duration":0.12239583333337123},{"name":"F3","midi":53,"time":657.2395833333353,"velocity":0.7637795275590551,"duration":0.24739583333337123},{"name":"G#4","midi":68,"time":657.2395833333353,"velocity":0.7637795275590551,"duration":0.12239583333337123},{"name":"G4","midi":67,"time":657.3645833333353,"velocity":0.7637795275590551,"duration":0.12239583333337123},{"name":"C4","midi":60,"time":657.4895833333353,"velocity":0.7637795275590551,"duration":0.12239583333337123},{"name":"G#4","midi":68,"time":657.4895833333353,"velocity":0.7637795275590551,"duration":0.12239583333337123},{"name":"D4","midi":62,"time":657.6145833333353,"velocity":0.7637795275590551,"duration":0.12239583333337123},{"name":"A#4","midi":70,"time":657.6145833333353,"velocity":0.7637795275590551,"duration":0.12239583333337123},{"name":"D#4","midi":63,"time":657.7395833333353,"velocity":0.7637795275590551,"duration":0.12239583333337123},{"name":"C5","midi":72,"time":657.7395833333353,"velocity":0.7637795275590551,"duration":0.12239583333337123},{"name":"F4","midi":65,"time":657.8645833333353,"velocity":0.7637795275590551,"duration":0.12239583333337123},{"name":"D5","midi":74,"time":657.8645833333353,"velocity":0.7637795275590551,"duration":0.12239583333337123},{"name":"G4","midi":67,"time":657.9895833333353,"velocity":0.7637795275590551,"duration":0.12239583333337123},{"name":"D#5","midi":75,"time":657.9895833333353,"velocity":0.7637795275590551,"duration":0.37239583333337123},{"name":"G#4","midi":68,"time":658.1145833333353,"velocity":0.7637795275590551,"duration":0.12239583333337123},{"name":"A#4","midi":70,"time":658.2395833333353,"velocity":0.7637795275590551,"duration":0.24739583333337123},{"name":"A#2","midi":46,"time":658.2395833333353,"velocity":0.7637795275590551,"duration":0.49479166666662877},{"name":"D5","midi":74,"time":658.3645833333353,"velocity":0.7637795275590551,"duration":0.12239583333337123},{"name":"F3","midi":53,"time":658.4895833333353,"velocity":0.7637795275590551,"duration":0.24739583333325754},{"name":"C5","midi":72,"time":658.4895833333353,"velocity":0.7637795275590551,"duration":0.12239583333337123},{"name":"D#5","midi":75,"time":658.6145833333353,"velocity":0.7637795275590551,"duration":0.12239583333325754},{"name":"A#3","midi":58,"time":658.7395833333352,"velocity":0.7637795275590551,"duration":0.7473958333333712},{"name":"D5","midi":74,"time":658.7395833333352,"velocity":0.7637795275590551,"duration":0.12239583333337123},{"name":"A#2","midi":46,"time":658.8645833333352,"velocity":0.7637795275590551,"duration":0.12239583333337123},{"name":"C5","midi":72,"time":658.8645833333352,"velocity":0.7637795275590551,"duration":0.12239583333337123},{"name":"C3","midi":48,"time":658.9895833333352,"velocity":0.7637795275590551,"duration":0.12239583333337123},{"name":"A#4","midi":70,"time":658.9895833333352,"velocity":0.7637795275590551,"duration":0.12239583333337123},{"name":"D3","midi":50,"time":659.1145833333352,"velocity":0.7637795275590551,"duration":0.12239583333337123},{"name":"G#4","midi":68,"time":659.1145833333352,"velocity":0.7637795275590551,"duration":0.12239583333337123},{"name":"D#3","midi":51,"time":659.2395833333352,"velocity":0.7637795275590551,"duration":0.24739583333337123},{"name":"G4","midi":67,"time":659.2395833333352,"velocity":0.7637795275590551,"duration":0.12239583333337123},{"name":"F4","midi":65,"time":659.3645833333352,"velocity":0.7637795275590551,"duration":0.12239583333337123},{"name":"A#3","midi":58,"time":659.4895833333352,"velocity":0.7637795275590551,"duration":0.12239583333337123},{"name":"G4","midi":67,"time":659.4895833333352,"velocity":0.7637795275590551,"duration":0.12239583333337123},{"name":"C4","midi":60,"time":659.6145833333352,"velocity":0.7637795275590551,"duration":0.12239583333337123},{"name":"G#4","midi":68,"time":659.6145833333352,"velocity":0.7637795275590551,"duration":0.12239583333337123},{"name":"C#4","midi":61,"time":659.7395833333352,"velocity":0.7637795275590551,"duration":0.12239583333337123},{"name":"A#4","midi":70,"time":659.7395833333352,"velocity":0.7637795275590551,"duration":0.12239583333337123},{"name":"D#4","midi":63,"time":659.8645833333352,"velocity":0.7637795275590551,"duration":0.12239583333337123},{"name":"C5","midi":72,"time":659.8645833333352,"velocity":0.7637795275590551,"duration":0.12239583333337123},{"name":"F4","midi":65,"time":659.9895833333352,"velocity":0.7637795275590551,"duration":0.12239583333337123},{"name":"C#5","midi":73,"time":659.9895833333352,"velocity":0.7637795275590551,"duration":0.37239583333337123},{"name":"G4","midi":67,"time":660.1145833333352,"velocity":0.7637795275590551,"duration":0.12239583333337123},{"name":"G#4","midi":68,"time":660.2395833333352,"velocity":0.7637795275590551,"duration":0.24739583333337123},{"name":"C5","midi":72,"time":660.3645833333352,"velocity":0.7637795275590551,"duration":0.12239583333337123},{"name":"G3","midi":55,"time":660.4895833333352,"velocity":0.7637795275590551,"duration":0.24739583333337123},{"name":"G#2","midi":44,"time":660.4895833333352,"velocity":0.7637795275590551,"duration":0.24739583333337123},{"name":"A#4","midi":70,"time":660.4895833333352,"velocity":0.7637795275590551,"duration":0.12239583333337123},{"name":"C#5","midi":73,"time":660.6145833333352,"velocity":0.7637795275590551,"duration":0.12239583333337123},{"name":"F3","midi":53,"time":660.7395833333352,"velocity":0.7637795275590551,"duration":0.24739583333337123},{"name":"A#2","midi":46,"time":660.7395833333352,"velocity":0.7637795275590551,"duration":0.24739583333337123},{"name":"C5","midi":72,"time":660.7395833333352,"velocity":0.7637795275590551,"duration":0.12239583333337123},{"name":"A#4","midi":70,"time":660.8645833333352,"velocity":0.7637795275590551,"duration":0.12239583333337123},{"name":"E3","midi":52,"time":660.9895833333352,"velocity":0.7637795275590551,"duration":0.24739583333337123},{"name":"C3","midi":48,"time":660.9895833333352,"velocity":0.7637795275590551,"duration":0.24739583333337123},{"name":"G#4","midi":68,"time":660.9895833333352,"velocity":0.7637795275590551,"duration":0.12239583333337123},{"name":"G4","midi":67,"time":661.1145833333352,"velocity":0.7637795275590551,"duration":0.12239583333337123},{"name":"F3","midi":53,"time":661.2395833333352,"velocity":0.7637795275590551,"duration":0.12239583333337123},{"name":"F2","midi":41,"time":661.2395833333352,"velocity":0.7637795275590551,"duration":0.24739583333337123},{"name":"G#4","midi":68,"time":661.2395833333352,"velocity":0.7637795275590551,"duration":1.2473958333333712},{"name":"F4","midi":65,"time":661.3645833333352,"velocity":0.7637795275590551,"duration":0.12239583333337123},{"name":"E4","midi":64,"time":661.4895833333352,"velocity":0.7637795275590551,"duration":0.12239583333337123},{"name":"C3","midi":48,"time":661.4895833333352,"velocity":0.7637795275590551,"duration":0.24739583333337123},{"name":"G4","midi":67,"time":661.6145833333352,"velocity":0.7637795275590551,"duration":0.12239583333337123},{"name":"F4","midi":65,"time":661.7395833333352,"velocity":0.7637795275590551,"duration":0.12239583333337123},{"name":"F3","midi":53,"time":661.7395833333352,"velocity":0.7637795275590551,"duration":0.6223958333333712},{"name":"D#4","midi":63,"time":661.8645833333352,"velocity":0.7637795275590551,"duration":0.12239583333337123},{"name":"D4","midi":62,"time":661.9895833333352,"velocity":0.7637795275590551,"duration":0.12239583333337123},{"name":"C4","midi":60,"time":662.1145833333352,"velocity":0.7637795275590551,"duration":0.12239583333337123},{"name":"B3","midi":59,"time":662.2395833333352,"velocity":0.7637795275590551,"duration":0.49479166666662877},{"name":"D#3","midi":51,"time":662.3645833333352,"velocity":0.7637795275590551,"duration":0.12239583333337123},{"name":"D3","midi":50,"time":662.4895833333352,"velocity":0.7637795275590551,"duration":0.12239583333337123},{"name":"G4","midi":67,"time":662.4895833333352,"velocity":0.7637795275590551,"duration":0.24739583333325754},{"name":"F3","midi":53,"time":662.6145833333352,"velocity":0.7637795275590551,"duration":0.12239583333325754},{"name":"D#3","midi":51,"time":662.7395833333351,"velocity":0.7637795275590551,"duration":0.12239583333337123},{"name":"G4","midi":67,"time":662.7395833333351,"velocity":0.7637795275590551,"duration":0.7473958333333712},{"name":"D3","midi":50,"time":662.8645833333351,"velocity":0.7637795275590551,"duration":0.12239583333337123},{"name":"D#4","midi":63,"time":662.9895833333351,"velocity":0.7637795275590551,"duration":0.24739583333337123},{"name":"C3","midi":48,"time":662.9895833333351,"velocity":0.7637795275590551,"duration":0.12239583333337123},{"name":"A#2","midi":46,"time":663.1145833333351,"velocity":0.7637795275590551,"duration":0.12239583333337123},{"name":"C4","midi":60,"time":663.2395833333351,"velocity":0.7637795275590551,"duration":0.859375},{"name":"G#2","midi":44,"time":663.2395833333351,"velocity":0.7637795275590551,"duration":0.24739583333337123},{"name":"G2","midi":43,"time":663.4895833333351,"velocity":0.7637795275590551,"duration":0.24739583333337123},{"name":"G#4","midi":68,"time":663.4895833333351,"velocity":0.7637795275590551,"duration":0.12239583333337123},{"name":"G4","midi":67,"time":663.6145833333351,"velocity":0.7637795275590551,"duration":0.12239583333337123},{"name":"A#2","midi":46,"time":663.7395833333351,"velocity":0.7637795275590551,"duration":0.05989583333337123},{"name":"F4","midi":65,"time":663.7395833333351,"velocity":0.7637795275590551,"duration":0.12239583333337123},{"name":"G#2","midi":44,"time":663.8020833333351,"velocity":0.7637795275590551,"duration":0.05989583333337123},{"name":"A#2","midi":46,"time":663.8645833333351,"velocity":0.7637795275590551,"duration":0.05989583333337123},{"name":"D#4","midi":63,"time":663.8645833333351,"velocity":0.7637795275590551,"duration":0.12239583333337123},{"name":"G#2","midi":44,"time":663.9270833333351,"velocity":0.7637795275590551,"duration":0.05989583333337123},{"name":"A#2","midi":46,"time":663.9895833333351,"velocity":0.7637795275590551,"duration":0.05989583333337123},{"name":"D4","midi":62,"time":663.9895833333351,"velocity":0.7637795275590551,"duration":0.12239583333337123},{"name":"G#2","midi":44,"time":664.0520833333351,"velocity":0.7637795275590551,"duration":0.05989583333337123},{"name":"G2","midi":43,"time":664.1145833333351,"velocity":0.7637795275590551,"duration":0.05989583333337123},{"name":"C4","midi":60,"time":664.1145833333351,"velocity":0.7637795275590551,"duration":0.12239583333337123},{"name":"G#2","midi":44,"time":664.1770833333351,"velocity":0.7637795275590551,"duration":0.05989583333337123},{"name":"G4","midi":67,"time":664.2395833333351,"velocity":0.7637795275590551,"duration":0.9986979166667425},{"name":"G2","midi":43,"time":664.2395833333351,"velocity":0.7637795275590551,"duration":0.9973958333333712},{"name":"B3","midi":59,"time":664.2395833333351,"velocity":0.7637795275590551,"duration":0.9973958333333712},{"name":"G3","midi":55,"time":665.2395833333352,"velocity":0.7637795275590551,"duration":0.49479166666662877},{"name":"B3","midi":59,"time":665.2395833333352,"velocity":0.7637795275590551,"duration":0.49479166666662877},{"name":"D5","midi":74,"time":665.4895833333352,"velocity":0.7637795275590551,"duration":0.24739583333325754},{"name":"G4","midi":67,"time":665.7395833333351,"velocity":0.7637795275590551,"duration":0.7473958333333712},{"name":"F3","midi":53,"time":665.9895833333351,"velocity":0.7637795275590551,"duration":0.24739583333337123},{"name":"D4","midi":62,"time":665.9895833333351,"velocity":0.7637795275590551,"duration":0.24739583333337123},{"name":"D#3","midi":51,"time":666.2395833333351,"velocity":0.7637795275590551,"duration":0.49739583333337123},{"name":"G3","midi":55,"time":666.2395833333351,"velocity":0.7637795275590551,"duration":0.24739583333337123},{"name":"F4","midi":65,"time":666.4895833333351,"velocity":0.7637795275590551,"duration":0.12239583333337123},{"name":"C4","midi":60,"time":666.4895833333351,"velocity":0.7637795275590551,"duration":0.49739583333337123},{"name":"G4","midi":67,"time":666.6145833333351,"velocity":0.7637795275590551,"duration":0.12239583333337123},{"name":"A4","midi":69,"time":666.7395833333351,"velocity":0.7637795275590551,"duration":0.12239583333337123},{"name":"D3","midi":50,"time":666.7395833333351,"velocity":0.7637795275590551,"duration":0.49739583333337123},{"name":"B4","midi":71,"time":666.8645833333351,"velocity":0.7637795275590551,"duration":0.12239583333337123},{"name":"C5","midi":72,"time":666.9895833333351,"velocity":0.7637795275590551,"duration":0.12239583333337123},{"name":"B3","midi":59,"time":666.9895833333351,"velocity":0.7637795275590551,"duration":0.24739583333337123},{"name":"D5","midi":74,"time":667.1145833333351,"velocity":0.7637795275590551,"duration":0.12239583333337123},{"name":"D#5","midi":75,"time":667.2395833333351,"velocity":0.7637795275590551,"duration":0.24739583333337123},{"name":"C3","midi":48,"time":667.2395833333351,"velocity":0.7637795275590551,"duration":0.24739583333337123},{"name":"G3","midi":55,"time":667.3645833333351,"velocity":0.7637795275590551,"duration":0.12239583333337123},{"name":"C4","midi":60,"time":667.4895833333351,"velocity":0.7637795275590551,"duration":0.24739583333337123},{"name":"G#3","midi":56,"time":667.4895833333351,"velocity":0.7637795275590551,"duration":0.12239583333337123},{"name":"G3","midi":55,"time":667.6145833333351,"velocity":0.7637795275590551,"duration":0.12369791666674246},{"name":"F5","midi":77,"time":667.7395833333352,"velocity":0.7637795275590551,"duration":0.24739583333337123},{"name":"D3","midi":50,"time":667.7395833333352,"velocity":0.7637795275590551,"duration":0.24739583333337123},{"name":"F3","midi":53,"time":667.8645833333352,"velocity":0.7637795275590551,"duration":0.12239583333337123},{"name":"D4","midi":62,"time":667.9895833333352,"velocity":0.7637795275590551,"duration":0.24739583333337123},{"name":"G3","midi":55,"time":667.9895833333352,"velocity":0.7637795275590551,"duration":0.12239583333337123},{"name":"F3","midi":53,"time":668.1145833333352,"velocity":0.7637795275590551,"duration":0.12239583333337123},{"name":"G5","midi":79,"time":668.2395833333352,"velocity":0.7637795275590551,"duration":0.12239583333337123},{"name":"D#3","midi":51,"time":668.2395833333352,"velocity":0.7637795275590551,"duration":0.24739583333337123},{"name":"D#3","midi":51,"time":668.2395833333352,"velocity":0.7637795275590551,"duration":0.49479166666662877},{"name":"G#5","midi":80,"time":668.3645833333352,"velocity":0.7637795275590551,"duration":0.12239583333337123},{"name":"G5","midi":79,"time":668.4895833333352,"velocity":0.7637795275590551,"duration":0.12239583333337123},{"name":"G4","midi":67,"time":668.4895833333352,"velocity":0.7637795275590551,"duration":0.24739583333325754},{"name":"F5","midi":77,"time":668.6145833333352,"velocity":0.7637795275590551,"duration":0.12239583333325754},{"name":"D#5","midi":75,"time":668.7395833333351,"velocity":0.7637795275590551,"duration":0.12239583333337123},{"name":"C4","midi":60,"time":668.7395833333351,"velocity":0.7637795275590551,"duration":0.7473958333333712},{"name":"D5","midi":74,"time":668.8645833333351,"velocity":0.7637795275590551,"duration":0.12239583333337123},{"name":"C5","midi":72,"time":668.9895833333351,"velocity":0.7637795275590551,"duration":0.12239583333337123},{"name":"E3","midi":52,"time":668.9895833333351,"velocity":0.7637795275590551,"duration":0.24739583333337123},{"name":"A#4","midi":70,"time":669.1145833333351,"velocity":0.7637795275590551,"duration":0.12239583333337123},{"name":"G#4","midi":68,"time":669.2395833333351,"velocity":0.7637795275590551,"duration":0.24739583333337123},{"name":"F3","midi":53,"time":669.2395833333351,"velocity":0.7637795275590551,"duration":0.49739583333337123},{"name":"F5","midi":77,"time":669.4895833333351,"velocity":0.7637795275590551,"duration":0.24739583333337123},{"name":"A#3","midi":58,"time":669.4895833333351,"velocity":0.7637795275590551,"duration":0.12239583333337123},{"name":"C4","midi":60,"time":669.6145833333351,"velocity":0.7637795275590551,"duration":0.12239583333337123},{"name":"G4","midi":67,"time":669.7395833333351,"velocity":0.7637795275590551,"duration":0.24739583333337123},{"name":"A#3","midi":58,"time":669.7395833333351,"velocity":0.7637795275590551,"duration":0.24739583333337123},{"name":"D4","midi":62,"time":669.7395833333351,"velocity":0.7637795275590551,"duration":0.12239583333337123},{"name":"E4","midi":64,"time":669.8645833333351,"velocity":0.7637795275590551,"duration":0.12239583333337123},{"name":"E5","midi":76,"time":669.9895833333351,"velocity":0.7637795275590551,"duration":0.24739583333337123},{"name":"C4","midi":60,"time":669.9895833333351,"velocity":0.7637795275590551,"duration":0.24739583333337123},{"name":"F4","midi":65,"time":669.9895833333351,"velocity":0.7637795275590551,"duration":0.12239583333337123},{"name":"G4","midi":67,"time":670.1145833333351,"velocity":0.7637795275590551,"duration":0.12239583333337123},{"name":"F5","midi":77,"time":670.2395833333351,"velocity":0.7637795275590551,"duration":0.12239583333337123},{"name":"F4","midi":65,"time":670.2395833333351,"velocity":0.7637795275590551,"duration":0.24739583333337123},{"name":"G#4","midi":68,"time":670.2395833333351,"velocity":0.7637795275590551,"duration":0.24739583333337123},{"name":"C6","midi":84,"time":670.3645833333351,"velocity":0.7637795275590551,"duration":0.12239583333337123},{"name":"E5","midi":76,"time":670.4895833333351,"velocity":0.7637795275590551,"duration":0.12239583333337123},{"name":"F3","midi":53,"time":670.4895833333351,"velocity":0.7637795275590551,"duration":0.24739583333337123},{"name":"F5","midi":77,"time":670.6145833333351,"velocity":0.7637795275590551,"duration":0.12369791666674246},{"name":"G4","midi":67,"time":670.7395833333352,"velocity":0.7637795275590551,"duration":0.24739583333337123},{"name":"A#4","midi":70,"time":670.7395833333352,"velocity":0.7637795275590551,"duration":0.24739583333337123},{"name":"C6","midi":84,"time":670.8645833333352,"velocity":0.7637795275590551,"duration":0.12239583333337123},{"name":"E5","midi":76,"time":670.9895833333352,"velocity":0.7637795275590551,"duration":0.12239583333337123},{"name":"G3","midi":55,"time":670.9895833333352,"velocity":0.7637795275590551,"duration":0.24739583333337123},{"name":"F5","midi":77,"time":671.1145833333352,"velocity":0.7637795275590551,"duration":0.24739583333337123},{"name":"G#4","midi":68,"time":671.2395833333352,"velocity":0.7637795275590551,"duration":0.24739583333337123},{"name":"C5","midi":72,"time":671.2395833333352,"velocity":0.7637795275590551,"duration":0.12239583333337123},{"name":"C#5","midi":73,"time":671.3645833333352,"velocity":0.7637795275590551,"duration":0.12239583333337123},{"name":"F3","midi":53,"time":671.4895833333352,"velocity":0.7637795275590551,"duration":0.24739583333337123},{"name":"C5","midi":72,"time":671.4895833333352,"velocity":0.7637795275590551,"duration":0.12239583333337123},{"name":"A#4","midi":70,"time":671.6145833333352,"velocity":0.7637795275590551,"duration":0.12239583333337123},{"name":"G3","midi":55,"time":671.7395833333352,"velocity":0.7637795275590551,"duration":0.24739583333337123},{"name":"G#4","midi":68,"time":671.7395833333352,"velocity":0.7637795275590551,"duration":0.12239583333337123},{"name":"G4","midi":67,"time":671.8645833333352,"velocity":0.7637795275590551,"duration":0.12239583333337123},{"name":"G#3","midi":56,"time":671.9895833333352,"velocity":0.7637795275590551,"duration":0.24739583333337123},{"name":"F4","midi":65,"time":671.9895833333352,"velocity":0.7637795275590551,"duration":0.12239583333337123},{"name":"D#4","midi":63,"time":672.1145833333352,"velocity":0.7637795275590551,"duration":0.12239583333337123},{"name":"A#3","midi":58,"time":672.2395833333352,"velocity":0.7637795275590551,"duration":0.24739583333337123},{"name":"D4","midi":62,"time":672.2395833333352,"velocity":0.7637795275590551,"duration":0.12239583333337123},{"name":"C4","midi":60,"time":672.3645833333352,"velocity":0.7637795275590551,"duration":0.12239583333337123},{"name":"F5","midi":77,"time":672.4895833333352,"velocity":0.7637795275590551,"duration":0.12239583333337123},{"name":"D4","midi":62,"time":672.4895833333352,"velocity":0.7637795275590551,"duration":0.12239583333337123},{"name":"G5","midi":79,"time":672.6145833333352,"velocity":0.7637795275590551,"duration":0.12239583333337123},{"name":"D#4","midi":63,"time":672.6145833333352,"velocity":0.7637795275590551,"duration":0.12239583333337123},{"name":"G#5","midi":80,"time":672.7395833333352,"velocity":0.7637795275590551,"duration":0.12239583333337123},{"name":"F4","midi":65,"time":672.7395833333352,"velocity":0.7637795275590551,"duration":0.12239583333337123},{"name":"A#5","midi":82,"time":672.8645833333352,"velocity":0.7637795275590551,"duration":0.12239583333337123},{"name":"G4","midi":67,"time":672.8645833333352,"velocity":0.7637795275590551,"duration":0.12239583333337123},{"name":"C6","midi":84,"time":672.9895833333352,"velocity":0.7637795275590551,"duration":0.12239583333337123},{"name":"G#4","midi":68,"time":672.9895833333352,"velocity":0.7637795275590551,"duration":0.37239583333337123},{"name":"D5","midi":74,"time":673.1145833333352,"velocity":0.7637795275590551,"duration":0.12239583333337123},{"name":"D#5","midi":75,"time":673.2395833333352,"velocity":0.7637795275590551,"duration":0.24739583333337123},{"name":"C5","midi":72,"time":673.3645833333352,"velocity":0.7637795275590551,"duration":0.12239583333337123},{"name":"D#3","midi":51,"time":673.4895833333352,"velocity":0.7637795275590551,"duration":0.24739583333337123},{"name":"A#4","midi":70,"time":673.4895833333352,"velocity":0.7637795275590551,"duration":0.12239583333337123},{"name":"G#4","midi":68,"time":673.6145833333352,"velocity":0.7637795275590551,"duration":0.12239583333337123},{"name":"F3","midi":53,"time":673.7395833333352,"velocity":0.7637795275590551,"duration":0.24739583333337123},{"name":"G4","midi":67,"time":673.7395833333352,"velocity":0.7637795275590551,"duration":0.12239583333337123},{"name":"F4","midi":65,"time":673.8645833333352,"velocity":0.7637795275590551,"duration":0.12239583333337123},{"name":"G3","midi":55,"time":673.9895833333352,"velocity":0.7637795275590551,"duration":0.24739583333337123},{"name":"D#4","midi":63,"time":673.9895833333352,"velocity":0.7637795275590551,"duration":0.12239583333337123},{"name":"D4","midi":62,"time":674.1145833333352,"velocity":0.7637795275590551,"duration":0.12239583333337123},{"name":"G#3","midi":56,"time":674.2395833333352,"velocity":0.7637795275590551,"duration":0.24739583333337123},{"name":"C4","midi":60,"time":674.2395833333352,"velocity":0.7637795275590551,"duration":0.12239583333337123},{"name":"B3","midi":59,"time":674.3645833333352,"velocity":0.7637795275590551,"duration":0.12239583333337123},{"name":"D#5","midi":75,"time":674.4895833333352,"velocity":0.7637795275590551,"duration":0.12239583333337123},{"name":"C4","midi":60,"time":674.4895833333352,"velocity":0.7637795275590551,"duration":0.12239583333337123},{"name":"F5","midi":77,"time":674.6145833333352,"velocity":0.7637795275590551,"duration":0.12239583333337123},{"name":"D4","midi":62,"time":674.6145833333352,"velocity":0.7637795275590551,"duration":0.12239583333337123},{"name":"G5","midi":79,"time":674.7395833333352,"velocity":0.7637795275590551,"duration":0.12239583333337123},{"name":"D#4","midi":63,"time":674.7395833333352,"velocity":0.7637795275590551,"duration":0.12239583333337123},{"name":"G#5","midi":80,"time":674.8645833333352,"velocity":0.7637795275590551,"duration":0.12239583333337123},{"name":"F4","midi":65,"time":674.8645833333352,"velocity":0.7637795275590551,"duration":0.12239583333337123},{"name":"A#5","midi":82,"time":674.9895833333352,"velocity":0.7637795275590551,"duration":0.12239583333337123},{"name":"G4","midi":67,"time":674.9895833333352,"velocity":0.7637795275590551,"duration":0.37239583333337123},{"name":"G5","midi":79,"time":675.1145833333352,"velocity":0.7637795275590551,"duration":0.12239583333337123},{"name":"G#5","midi":80,"time":675.2395833333352,"velocity":0.7637795275590551,"duration":0.24739583333337123},{"name":"A#4","midi":70,"time":675.3645833333352,"velocity":0.7637795275590551,"duration":0.12239583333337123},{"name":"D3","midi":50,"time":675.4895833333352,"velocity":0.7637795275590551,"duration":0.24739583333337123},{"name":"G#4","midi":68,"time":675.4895833333352,"velocity":0.7637795275590551,"duration":0.12239583333337123},{"name":"G4","midi":67,"time":675.6145833333352,"velocity":0.7637795275590551,"duration":0.12239583333337123},{"name":"D#3","midi":51,"time":675.7395833333352,"velocity":0.7637795275590551,"duration":0.24739583333337123},{"name":"F4","midi":65,"time":675.7395833333352,"velocity":0.7637795275590551,"duration":0.12239583333337123},{"name":"D#4","midi":63,"time":675.8645833333352,"velocity":0.7637795275590551,"duration":0.12239583333337123},{"name":"F3","midi":53,"time":675.9895833333352,"velocity":0.7637795275590551,"duration":0.24739583333337123},{"name":"D4","midi":62,"time":675.9895833333352,"velocity":0.7637795275590551,"duration":0.12239583333337123},{"name":"C4","midi":60,"time":676.1145833333352,"velocity":0.7637795275590551,"duration":0.12239583333337123},{"name":"G3","midi":55,"time":676.2395833333352,"velocity":0.7637795275590551,"duration":0.24739583333337123},{"name":"B3","midi":59,"time":676.2395833333352,"velocity":0.7637795275590551,"duration":0.24739583333337123},{"name":"G5","midi":79,"time":676.3645833333352,"velocity":0.7637795275590551,"duration":0.12239583333337123},{"name":"F5","midi":77,"time":676.4895833333352,"velocity":0.7637795275590551,"duration":0.12239583333337123},{"name":"D3","midi":50,"time":676.4895833333352,"velocity":0.7637795275590551,"duration":0.24739583333337123},{"name":"D#5","midi":75,"time":676.6145833333352,"velocity":0.7637795275590551,"duration":0.12239583333337123},{"name":"D5","midi":74,"time":676.7395833333352,"velocity":0.7637795275590551,"duration":0.12239583333337123},{"name":"G2","midi":43,"time":676.7395833333352,"velocity":0.7637795275590551,"duration":0.7473958333333712},{"name":"C5","midi":72,"time":676.8645833333352,"velocity":0.7637795275590551,"duration":0.12239583333337123},{"name":"B4","midi":71,"time":676.9895833333352,"velocity":0.7637795275590551,"duration":0.12239583333337123},{"name":"A4","midi":69,"time":677.1145833333352,"velocity":0.7637795275590551,"duration":0.12239583333337123},{"name":"B4","midi":71,"time":677.2395833333352,"velocity":0.7637795275590551,"duration":0.12239583333337123},{"name":"C5","midi":72,"time":677.3645833333352,"velocity":0.7637795275590551,"duration":0.12239583333337123},{"name":"D5","midi":74,"time":677.4895833333352,"velocity":0.7637795275590551,"duration":0.12239583333337123},{"name":"F2","midi":41,"time":677.4895833333352,"velocity":0.7637795275590551,"duration":0.12239583333337123},{"name":"D#5","midi":75,"time":677.6145833333352,"velocity":0.7637795275590551,"duration":0.12239583333337123},{"name":"G2","midi":43,"time":677.6145833333352,"velocity":0.7637795275590551,"duration":0.12239583333337123},{"name":"F5","midi":77,"time":677.7395833333352,"velocity":0.7637795275590551,"duration":0.6223958333333712},{"name":"A2","midi":45,"time":677.7395833333352,"velocity":0.7637795275590551,"duration":0.12239583333337123},{"name":"B2","midi":47,"time":677.8645833333352,"velocity":0.7637795275590551,"duration":0.12239583333337123},{"name":"C3","midi":48,"time":677.9895833333352,"velocity":0.7637795275590551,"duration":0.12239583333337123},{"name":"D5","midi":74,"time":677.9895833333352,"velocity":0.7637795275590551,"duration":0.24739583333337123},{"name":"D3","midi":50,"time":678.1145833333352,"velocity":0.7637795275590551,"duration":0.12239583333337123},{"name":"D#3","midi":51,"time":678.2395833333352,"velocity":0.7637795275590551,"duration":0.24739583333337123},{"name":"G4","midi":67,"time":678.2395833333352,"velocity":0.7637795275590551,"duration":0.49739583333337123},{"name":"D#5","midi":75,"time":678.3645833333352,"velocity":0.7637795275590551,"duration":0.12239583333337123},{"name":"B4","midi":71,"time":678.4895833333352,"velocity":0.7637795275590551,"duration":0.12239583333337123},{"name":"C2","midi":36,"time":678.4895833333352,"velocity":0.7637795275590551,"duration":0.24739583333337123},{"name":"C5","midi":72,"time":678.6145833333352,"velocity":0.7637795275590551,"duration":0.12369791666674246},{"name":"F3","midi":53,"time":678.7395833333353,"velocity":0.7637795275590551,"duration":0.24739583333337123},{"name":"F4","midi":65,"time":678.7395833333353,"velocity":0.7637795275590551,"duration":0.49739583333337123},{"name":"D#5","midi":75,"time":678.8645833333353,"velocity":0.7637795275590551,"duration":0.12239583333337123},{"name":"B4","midi":71,"time":678.9895833333353,"velocity":0.7637795275590551,"duration":0.12239583333337123},{"name":"D2","midi":38,"time":678.9895833333353,"velocity":0.7637795275590551,"duration":0.24739583333337123},{"name":"C5","midi":72,"time":679.1145833333353,"velocity":0.7637795275590551,"duration":0.12369791666674246},{"name":"G3","midi":55,"time":679.2395833333354,"velocity":0.7637795275590551,"duration":0.24739583333337123},{"name":"D#4","midi":63,"time":679.2395833333354,"velocity":0.7637795275590551,"duration":0.49739583333337123},{"name":"D5","midi":74,"time":679.3645833333354,"velocity":0.7637795275590551,"duration":0.12239583333337123},{"name":"B4","midi":71,"time":679.4895833333354,"velocity":0.7637795275590551,"duration":0.12239583333337123},{"name":"D#2","midi":39,"time":679.4895833333354,"velocity":0.7637795275590551,"duration":0.24739583333337123},{"name":"C5","midi":72,"time":679.6145833333354,"velocity":0.7637795275590551,"duration":0.12239583333337123},{"name":"G#3","midi":56,"time":679.7395833333354,"velocity":0.7637795275590551,"duration":0.24739583333337123},{"name":"D4","midi":62,"time":679.7395833333354,"velocity":0.7637795275590551,"duration":0.49739583333337123},{"name":"C5","midi":72,"time":679.8645833333354,"velocity":0.7637795275590551,"duration":0.12239583333337123},{"name":"B4","midi":71,"time":679.9895833333354,"velocity":0.7637795275590551,"duration":0.12239583333337123},{"name":"F2","midi":41,"time":679.9895833333354,"velocity":0.7637795275590551,"duration":0.24739583333337123},{"name":"C5","midi":72,"time":680.1145833333354,"velocity":0.7637795275590551,"duration":0.36458333333337123},{"name":"G3","midi":55,"time":680.2395833333354,"velocity":0.7637795275590551,"duration":0.12239583333337123},{"name":"D#4","midi":63,"time":680.2395833333354,"velocity":0.7637795275590551,"duration":0.24739583333337123},{"name":"G2","midi":43,"time":680.3645833333354,"velocity":0.7637795275590551,"duration":0.12239583333337123},{"name":"G5","midi":79,"time":680.4895833333354,"velocity":0.7637795275590551,"duration":0.24739583333337123},{"name":"G3","midi":55,"time":680.4895833333354,"velocity":0.7637795275590551,"duration":0.12239583333337123},{"name":"D#5","midi":75,"time":680.4895833333354,"velocity":0.7637795275590551,"duration":0.24739583333337123},{"name":"G#3","midi":56,"time":680.6145833333354,"velocity":0.7637795275590551,"duration":0.12239583333337123},{"name":"D5","midi":74,"time":680.7395833333354,"velocity":0.7637795275590551,"duration":0.24739583333337123},{"name":"G3","midi":55,"time":680.7395833333354,"velocity":0.7637795275590551,"duration":0.12239583333337123},{"name":"B4","midi":71,"time":680.7395833333354,"velocity":0.7637795275590551,"duration":0.24739583333337123},{"name":"F3","midi":53,"time":680.8645833333354,"velocity":0.7637795275590551,"duration":0.12239583333337123},{"name":"F5","midi":77,"time":680.9895833333354,"velocity":0.7637795275590551,"duration":0.36458333333337123},{"name":"D#3","midi":51,"time":680.9895833333354,"velocity":0.7637795275590551,"duration":0.12239583333337123},{"name":"D5","midi":74,"time":680.9895833333354,"velocity":0.7637795275590551,"duration":0.9973958333333712},{"name":"D3","midi":50,"time":681.1145833333354,"velocity":0.7637795275590551,"duration":0.12239583333337123},{"name":"C3","midi":48,"time":681.2395833333354,"velocity":0.7637795275590551,"duration":0.12239583333337123},{"name":"G3","midi":55,"time":681.3645833333354,"velocity":0.7637795275590551,"duration":0.12239583333337123},{"name":"D#5","midi":75,"time":681.4895833333354,"velocity":0.7637795275590551,"duration":0.12239583333337123},{"name":"C4","midi":60,"time":681.4895833333354,"velocity":0.7637795275590551,"duration":0.12239583333337123},{"name":"F5","midi":77,"time":681.6145833333354,"velocity":0.7637795275590551,"duration":0.12239583333337123},{"name":"D4","midi":62,"time":681.6145833333354,"velocity":0.7637795275590551,"duration":0.12239583333337123},{"name":"G5","midi":79,"time":681.7395833333354,"velocity":0.7637795275590551,"duration":0.625},{"name":"C4","midi":60,"time":681.7395833333354,"velocity":0.7637795275590551,"duration":0.12239583333337123},{"name":"A#3","midi":58,"time":681.8645833333354,"velocity":0.7637795275590551,"duration":0.12239583333337123},{"name":"A3","midi":57,"time":681.9895833333354,"velocity":0.7637795275590551,"duration":0.12239583333337123},{"name":"C5","midi":72,"time":681.9895833333354,"velocity":0.7637795275590551,"duration":0.12239583333337123},{"name":"G3","midi":55,"time":682.1145833333354,"velocity":0.7637795275590551,"duration":0.12239583333337123},{"name":"A#4","midi":70,"time":682.1145833333354,"velocity":0.7637795275590551,"duration":0.12239583333337123},{"name":"F3","midi":53,"time":682.2395833333354,"velocity":0.7637795275590551,"duration":0.12239583333337123},{"name":"A4","midi":69,"time":682.2395833333354,"velocity":0.7637795275590551,"duration":0.7473958333333712},{"name":"F2","midi":41,"time":682.3645833333354,"velocity":0.7637795275590551,"duration":0.12239583333337123},{"name":"F5","midi":77,"time":682.4895833333354,"velocity":0.7637795275590551,"duration":0.24739583333337123},{"name":"F3","midi":53,"time":682.4895833333354,"velocity":0.7637795275590551,"duration":0.12239583333337123},{"name":"G3","midi":55,"time":682.6145833333354,"velocity":0.7637795275590551,"duration":0.12239583333337123},{"name":"C5","midi":72,"time":682.7395833333354,"velocity":0.7637795275590551,"duration":0.24739583333337123},{"name":"F3","midi":53,"time":682.7395833333354,"velocity":0.7637795275590551,"duration":0.12239583333337123},{"name":"D#3","midi":51,"time":682.8645833333354,"velocity":0.7637795275590551,"duration":0.12239583333337123},{"name":"D#5","midi":75,"time":682.9895833333354,"velocity":0.7637795275590551,"duration":0.44270833333337123},{"name":"D3","midi":50,"time":682.9895833333354,"velocity":0.7637795275590551,"duration":0.12239583333337123},{"name":"C5","midi":72,"time":682.9895833333354,"velocity":0.7637795275590551,"duration":0.9973958333333712},{"name":"C3","midi":48,"time":683.1145833333354,"velocity":0.7637795275590551,"duration":0.12239583333337123},{"name":"A#2","midi":46,"time":683.2395833333354,"velocity":0.7637795275590551,"duration":0.12239583333337123},{"name":"F3","midi":53,"time":683.3645833333354,"velocity":0.7637795275590551,"duration":0.12239583333337123},{"name":"D5","midi":74,"time":683.4895833333354,"velocity":0.7637795275590551,"duration":0.12239583333337123},{"name":"A#3","midi":58,"time":683.4895833333354,"velocity":0.7637795275590551,"duration":0.12239583333337123},{"name":"D#5","midi":75,"time":683.6145833333354,"velocity":0.7637795275590551,"duration":0.12239583333337123},{"name":"C4","midi":60,"time":683.6145833333354,"velocity":0.7637795275590551,"duration":0.12239583333337123},{"name":"F5","midi":77,"time":683.7395833333354,"velocity":0.7637795275590551,"duration":0.703125},{"name":"A#3","midi":58,"time":683.7395833333354,"velocity":0.7637795275590551,"duration":0.12239583333337123},{"name":"G#3","midi":56,"time":683.8645833333354,"velocity":0.7637795275590551,"duration":0.12239583333337123},{"name":"G3","midi":55,"time":683.9895833333354,"velocity":0.7637795275590551,"duration":0.12239583333337123},{"name":"A#4","midi":70,"time":683.9895833333354,"velocity":0.7637795275590551,"duration":0.12239583333337123},{"name":"F3","midi":53,"time":684.1145833333354,"velocity":0.7637795275590551,"duration":0.12239583333337123},{"name":"G#4","midi":68,"time":684.1145833333354,"velocity":0.7637795275590551,"duration":0.12239583333337123},{"name":"D#3","midi":51,"time":684.2395833333354,"velocity":0.7637795275590551,"duration":0.12239583333337123},{"name":"G4","midi":67,"time":684.2395833333354,"velocity":0.7637795275590551,"duration":0.49479166666662877},{"name":"D#2","midi":39,"time":684.3645833333354,"velocity":0.7637795275590551,"duration":0.12239583333337123},{"name":"D#5","midi":75,"time":684.4895833333354,"velocity":0.7637795275590551,"duration":0.12239583333337123},{"name":"D#3","midi":51,"time":684.4895833333354,"velocity":0.7637795275590551,"duration":0.12239583333337123},{"name":"D5","midi":74,"time":684.6145833333354,"velocity":0.7637795275590551,"duration":0.12239583333325754},{"name":"F3","midi":53,"time":684.6145833333354,"velocity":0.7637795275590551,"duration":0.12239583333325754},{"name":"C5","midi":72,"time":684.7395833333353,"velocity":0.7637795275590551,"duration":0.12239583333337123},{"name":"D#3","midi":51,"time":684.7395833333353,"velocity":0.7637795275590551,"duration":0.12239583333337123},{"name":"A#4","midi":70,"time":684.8645833333353,"velocity":0.7637795275590551,"duration":0.12239583333337123},{"name":"D3","midi":50,"time":684.8645833333353,"velocity":0.7637795275590551,"duration":0.12239583333337123},{"name":"A4","midi":69,"time":684.9895833333353,"velocity":0.7637795275590551,"duration":0.12239583333337123},{"name":"C3","midi":48,"time":684.9895833333353,"velocity":0.7637795275590551,"duration":0.12239583333337123},{"name":"G4","midi":67,"time":685.1145833333353,"velocity":0.7637795275590551,"duration":0.12239583333337123},{"name":"A#2","midi":46,"time":685.1145833333353,"velocity":0.7637795275590551,"duration":0.12239583333337123},{"name":"C5","midi":72,"time":685.2395833333353,"velocity":0.7637795275590551,"duration":1.7473958333333712},{"name":"A2","midi":45,"time":685.2395833333353,"velocity":0.7637795275590551,"duration":0.12239583333337123},{"name":"G2","midi":43,"time":685.3645833333353,"velocity":0.7637795275590551,"duration":0.12239583333337123},{"name":"A2","midi":45,"time":685.4895833333353,"velocity":0.7637795275590551,"duration":0.12239583333337123},{"name":"A#4","midi":70,"time":685.4895833333353,"velocity":0.7637795275590551,"duration":0.24739583333337123},{"name":"A#2","midi":46,"time":685.6145833333353,"velocity":0.7637795275590551,"duration":0.12239583333337123},{"name":"C3","midi":48,"time":685.7395833333353,"velocity":0.7637795275590551,"duration":0.12239583333337123},{"name":"A4","midi":69,"time":685.7395833333353,"velocity":0.7637795275590551,"duration":0.24739583333337123},{"name":"D3","midi":50,"time":685.8645833333353,"velocity":0.7637795275590551,"duration":0.12239583333337123},{"name":"D#3","midi":51,"time":685.9895833333353,"velocity":0.7637795275590551,"duration":0.12239583333337123},{"name":"G4","midi":67,"time":685.9895833333353,"velocity":0.7637795275590551,"duration":0.24739583333337123},{"name":"C3","midi":48,"time":686.1145833333353,"velocity":0.7637795275590551,"duration":0.12239583333337123},{"name":"D3","midi":50,"time":686.2395833333353,"velocity":0.7637795275590551,"duration":0.12239583333337123},{"name":"F#4","midi":66,"time":686.2395833333353,"velocity":0.7637795275590551,"duration":0.24739583333337123},{"name":"C3","midi":48,"time":686.3645833333353,"velocity":0.7637795275590551,"duration":0.12239583333337123},{"name":"D3","midi":50,"time":686.4895833333353,"velocity":0.7637795275590551,"duration":0.12239583333337123},{"name":"A4","midi":69,"time":686.4895833333353,"velocity":0.7637795275590551,"duration":0.24739583333337123},{"name":"E3","midi":52,"time":686.6145833333353,"velocity":0.7637795275590551,"duration":0.12239583333337123},{"name":"F#3","midi":54,"time":686.7395833333353,"velocity":0.7637795275590551,"duration":0.12239583333337123},{"name":"D4","midi":62,"time":686.7395833333353,"velocity":0.7637795275590551,"duration":0.7473958333333712},{"name":"G3","midi":55,"time":686.8645833333353,"velocity":0.7637795275590551,"duration":0.12239583333337123},{"name":"C5","midi":72,"time":686.9895833333353,"velocity":0.7637795275590551,"duration":0.24739583333337123},{"name":"A3","midi":57,"time":686.9895833333353,"velocity":0.7637795275590551,"duration":0.12239583333337123},{"name":"F#3","midi":54,"time":687.1145833333353,"velocity":0.7637795275590551,"duration":0.12239583333337123},{"name":"A#4","midi":70,"time":687.2395833333353,"velocity":0.7637795275590551,"duration":0.49739583333337123},{"name":"G3","midi":55,"time":687.2395833333353,"velocity":0.7637795275590551,"duration":0.24739583333337123},{"name":"D#3","midi":51,"time":687.4895833333353,"velocity":0.7637795275590551,"duration":0.24739583333337123},{"name":"C4","midi":60,"time":687.4895833333353,"velocity":0.7637795275590551,"duration":0.12239583333337123},{"name":"D4","midi":62,"time":687.6145833333353,"velocity":0.7637795275590551,"duration":0.12239583333337123},{"name":"A4","midi":69,"time":687.7395833333353,"velocity":0.7637795275590551,"duration":0.36458333333337123},{"name":"C3","midi":48,"time":687.7395833333353,"velocity":0.7637795275590551,"duration":0.24739583333337123},{"name":"E4","midi":64,"time":687.7395833333353,"velocity":0.7637795275590551,"duration":0.12239583333337123},{"name":"F#4","midi":66,"time":687.8645833333353,"velocity":0.7637795275590551,"duration":0.12239583333337123},{"name":"D3","midi":50,"time":687.9895833333353,"velocity":0.7637795275590551,"duration":0.24739583333337123},{"name":"G4","midi":67,"time":687.9895833333353,"velocity":0.7637795275590551,"duration":0.12239583333337123},{"name":"A4","midi":69,"time":688.1145833333353,"velocity":0.7637795275590551,"duration":0.12239583333337123},{"name":"G2","midi":43,"time":688.2395833333353,"velocity":0.7637795275590551,"duration":0.24739583333337123},{"name":"A#4","midi":70,"time":688.2395833333353,"velocity":0.7637795275590551,"duration":0.24739583333337123},{"name":"A5","midi":81,"time":688.3645833333353,"velocity":0.7637795275590551,"duration":0.12239583333337123},{"name":"F#5","midi":78,"time":688.4895833333353,"velocity":0.7637795275590551,"duration":0.12239583333337123},{"name":"G3","midi":55,"time":688.4895833333353,"velocity":0.7637795275590551,"duration":0.24739583333337123},{"name":"G5","midi":79,"time":688.6145833333353,"velocity":0.7637795275590551,"duration":0.12369791666674246},{"name":"D#3","midi":51,"time":688.7395833333354,"velocity":0.7637795275590551,"duration":0.24739583333337123},{"name":"C5","midi":72,"time":688.7395833333354,"velocity":0.7637795275590551,"duration":0.24739583333337123},{"name":"A5","midi":81,"time":688.8645833333354,"velocity":0.7637795275590551,"duration":0.12239583333337123},{"name":"F#5","midi":78,"time":688.9895833333354,"velocity":0.7637795275590551,"duration":0.12239583333337123},{"name":"A3","midi":57,"time":688.9895833333354,"velocity":0.7637795275590551,"duration":0.24739583333337123},{"name":"G5","midi":79,"time":689.1145833333354,"velocity":0.7637795275590551,"duration":0.12369791666674246},{"name":"A#2","midi":46,"time":689.2395833333355,"velocity":0.7637795275590551,"duration":0.12239583333337123},{"name":"D5","midi":74,"time":689.2395833333355,"velocity":0.7637795275590551,"duration":0.7473958333333712},{"name":"G3","midi":55,"time":689.3645833333355,"velocity":0.7637795275590551,"duration":0.12239583333337123},{"name":"G5","midi":79,"time":689.4895833333355,"velocity":0.7637795275590551,"duration":0.24739583333337123},{"name":"F#3","midi":54,"time":689.4895833333355,"velocity":0.7637795275590551,"duration":0.12239583333337123},{"name":"G3","midi":55,"time":689.6145833333355,"velocity":0.7637795275590551,"duration":0.12239583333337123},{"name":"D#5","midi":75,"time":689.7395833333355,"velocity":0.7637795275590551,"duration":0.7473958333333712},{"name":"C3","midi":48,"time":689.7395833333355,"velocity":0.7637795275590551,"duration":0.12239583333337123},{"name":"A3","midi":57,"time":689.8645833333355,"velocity":0.7637795275590551,"duration":0.12239583333337123},{"name":"F#3","midi":54,"time":689.9895833333355,"velocity":0.7637795275590551,"duration":0.12239583333337123},{"name":"C5","midi":72,"time":689.9895833333355,"velocity":0.7637795275590551,"duration":0.24739583333337123},{"name":"G3","midi":55,"time":690.1145833333355,"velocity":0.7637795275590551,"duration":0.12239583333337123},{"name":"D3","midi":50,"time":690.2395833333355,"velocity":0.7637795275590551,"duration":0.12239583333337123},{"name":"F#4","midi":66,"time":690.2395833333355,"velocity":0.7637795275590551,"duration":0.24739583333337123},{"name":"A#3","midi":58,"time":690.3645833333355,"velocity":0.7637795275590551,"duration":0.12239583333337123},{"name":"D5","midi":74,"time":690.4895833333355,"velocity":0.7637795275590551,"duration":0.49739583333337123},{"name":"F#3","midi":54,"time":690.4895833333355,"velocity":0.7637795275590551,"duration":0.12239583333337123},{"name":"A#4","midi":70,"time":690.4895833333355,"velocity":0.7637795275590551,"duration":0.49739583333337123},{"name":"G3","midi":55,"time":690.6145833333355,"velocity":0.7637795275590551,"duration":0.12239583333337123},{"name":"D#3","midi":51,"time":690.7395833333355,"velocity":0.7637795275590551,"duration":0.12239583333337123},{"name":"C4","midi":60,"time":690.8645833333355,"velocity":0.7637795275590551,"duration":0.12239583333337123},{"name":"C5","midi":72,"time":690.9895833333355,"velocity":0.7637795275590551,"duration":0.49739583333337123},{"name":"F#3","midi":54,"time":690.9895833333355,"velocity":0.7637795275590551,"duration":0.12239583333337123},{"name":"A4","midi":69,"time":690.9895833333355,"velocity":0.7637795275590551,"duration":0.49739583333337123},{"name":"G3","midi":55,"time":691.1145833333355,"velocity":0.7637795275590551,"duration":0.12239583333337123},{"name":"F#2","midi":42,"time":691.2395833333355,"velocity":0.7637795275590551,"duration":0.12239583333337123},{"name":"D#3","midi":51,"time":691.3645833333355,"velocity":0.7637795275590551,"duration":0.12239583333337123},{"name":"D#5","midi":75,"time":691.4895833333355,"velocity":0.7637795275590551,"duration":0.24739583333337123},{"name":"D3","midi":50,"time":691.4895833333355,"velocity":0.7637795275590551,"duration":0.12239583333337123},{"name":"F#4","midi":66,"time":691.4895833333355,"velocity":0.7637795275590551,"duration":0.24739583333337123},{"name":"C3","midi":48,"time":691.6145833333355,"velocity":0.7637795275590551,"duration":0.12239583333337123},{"name":"D5","midi":74,"time":691.7395833333355,"velocity":0.7637795275590551,"duration":0.24739583333337123},{"name":"A#2","midi":46,"time":691.7395833333355,"velocity":0.7637795275590551,"duration":0.12239583333337123},{"name":"G4","midi":67,"time":691.7395833333355,"velocity":0.7637795275590551,"duration":0.24739583333337123},{"name":"A2","midi":45,"time":691.8645833333355,"velocity":0.7637795275590551,"duration":0.12239583333337123},{"name":"C5","midi":72,"time":691.9895833333355,"velocity":0.7637795275590551,"duration":0.24739583333337123},{"name":"G2","midi":43,"time":691.9895833333355,"velocity":0.7637795275590551,"duration":0.12239583333337123},{"name":"A4","midi":69,"time":691.9895833333355,"velocity":0.7637795275590551,"duration":0.24739583333337123},{"name":"F#2","midi":42,"time":692.1145833333355,"velocity":0.7637795275590551,"duration":0.12239583333337123},{"name":"A#4","midi":70,"time":692.2395833333355,"velocity":0.7637795275590551,"duration":0.24739583333337123},{"name":"G2","midi":43,"time":692.2395833333355,"velocity":0.7637795275590551,"duration":0.12239583333337123},{"name":"D4","midi":62,"time":692.2395833333355,"velocity":0.7637795275590551,"duration":0.24739583333337123},{"name":"F2","midi":41,"time":692.3645833333355,"velocity":0.7637795275590551,"duration":0.12239583333337123},{"name":"G5","midi":79,"time":692.4895833333355,"velocity":0.7637795275590551,"duration":0.24739583333337123},{"name":"D#2","midi":39,"time":692.4895833333355,"velocity":0.7637795275590551,"duration":0.12239583333337123},{"name":"D2","midi":38,"time":692.6145833333355,"velocity":0.7637795275590551,"duration":0.12239583333337123},{"name":"A4","midi":69,"time":692.7395833333355,"velocity":0.7637795275590551,"duration":0.24739583333337123},{"name":"C2","midi":36,"time":692.7395833333355,"velocity":0.7637795275590551,"duration":0.24739583333337123},{"name":"D#5","midi":75,"time":692.8645833333355,"velocity":0.7637795275590551,"duration":0.12239583333337123},{"name":"F#5","midi":78,"time":692.9895833333355,"velocity":0.7637795275590551,"duration":0.24739583333337123},{"name":"D2","midi":38,"time":692.9895833333355,"velocity":0.7637795275590551,"duration":0.24739583333337123},{"name":"D5","midi":74,"time":692.9895833333355,"velocity":0.7637795275590551,"duration":0.12239583333337123},{"name":"C5","midi":72,"time":693.1145833333355,"velocity":0.7637795275590551,"duration":0.12239583333337123},{"name":"G5","midi":79,"time":693.2395833333355,"velocity":0.7637795275590551,"duration":0.49479166666662877},{"name":"G2","midi":43,"time":693.2395833333355,"velocity":0.7637795275590551,"duration":0.12239583333337123},{"name":"B4","midi":71,"time":693.2395833333355,"velocity":0.7637795275590551,"duration":0.24739583333337123},{"name":"F#2","midi":42,"time":693.3645833333355,"velocity":0.7637795275590551,"duration":0.12239583333337123},{"name":"G2","midi":43,"time":693.4895833333355,"velocity":0.7637795275590551,"duration":0.12239583333337123},{"name":"D5","midi":74,"time":693.4895833333355,"velocity":0.7637795275590551,"duration":0.24739583333325754},{"name":"A2","midi":45,"time":693.6145833333355,"velocity":0.7637795275590551,"duration":0.12239583333325754},{"name":"B2","midi":47,"time":693.7395833333354,"velocity":0.7637795275590551,"duration":0.12239583333337123},{"name":"G4","midi":67,"time":693.7395833333354,"velocity":0.7637795275590551,"duration":0.7473958333333712},{"name":"C3","midi":48,"time":693.8645833333354,"velocity":0.7637795275590551,"duration":0.12239583333337123},{"name":"F5","midi":77,"time":693.9895833333354,"velocity":0.7637795275590551,"duration":0.24739583333337123},{"name":"D3","midi":50,"time":693.9895833333354,"velocity":0.7637795275590551,"duration":0.12239583333337123},{"name":"D#3","midi":51,"time":694.1145833333354,"velocity":0.7637795275590551,"duration":0.12239583333337123},{"name":"B4","midi":71,"time":694.2395833333354,"velocity":0.7637795275590551,"duration":0.49479166666662877},{"name":"F3","midi":53,"time":694.2395833333354,"velocity":0.7637795275590551,"duration":0.12239583333337123},{"name":"D#3","midi":51,"time":694.3645833333354,"velocity":0.7637795275590551,"duration":0.12239583333337123},{"name":"D3","midi":50,"time":694.4895833333354,"velocity":0.7637795275590551,"duration":0.12239583333337123},{"name":"F4","midi":65,"time":694.4895833333354,"velocity":0.7637795275590551,"duration":0.12239583333337123},{"name":"D#3","midi":51,"time":694.6145833333354,"velocity":0.7637795275590551,"duration":0.12239583333325754},{"name":"G4","midi":67,"time":694.6145833333354,"velocity":0.7637795275590551,"duration":0.12239583333325754},{"name":"F3","midi":53,"time":694.7395833333353,"velocity":0.7637795275590551,"duration":0.12239583333337123},{"name":"A4","midi":69,"time":694.7395833333353,"velocity":0.7637795275590551,"duration":0.12239583333337123},{"name":"G3","midi":55,"time":694.8645833333353,"velocity":0.7637795275590551,"duration":0.12239583333337123},{"name":"B4","midi":71,"time":694.8645833333353,"velocity":0.7637795275590551,"duration":0.12239583333337123},{"name":"A3","midi":57,"time":694.9895833333353,"velocity":0.7637795275590551,"duration":0.12239583333337123},{"name":"C5","midi":72,"time":694.9895833333353,"velocity":0.7637795275590551,"duration":0.12239583333337123},{"name":"B3","midi":59,"time":695.1145833333353,"velocity":0.7637795275590551,"duration":0.12239583333337123},{"name":"D5","midi":74,"time":695.1145833333353,"velocity":0.7637795275590551,"duration":0.12239583333337123},{"name":"C4","midi":60,"time":695.2395833333353,"velocity":0.7637795275590551,"duration":0.12239583333337123},{"name":"D#5","midi":75,"time":695.2395833333353,"velocity":0.7637795275590551,"duration":0.12239583333337123},{"name":"B3","midi":59,"time":695.3645833333353,"velocity":0.7637795275590551,"duration":0.12239583333337123},{"name":"G5","midi":79,"time":695.4895833333353,"velocity":0.7637795275590551,"duration":0.24739583333337123},{"name":"C4","midi":60,"time":695.4895833333353,"velocity":0.7637795275590551,"duration":0.12239583333337123},{"name":"D4","midi":62,"time":695.6145833333353,"velocity":0.7637795275590551,"duration":0.12239583333337123},{"name":"C5","midi":72,"time":695.7395833333353,"velocity":0.7637795275590551,"duration":0.7473958333333712},{"name":"D#4","midi":63,"time":695.7395833333353,"velocity":0.7637795275590551,"duration":0.12239583333337123},{"name":"F4","midi":65,"time":695.8645833333353,"velocity":0.7637795275590551,"duration":0.12239583333337123},{"name":"C4","midi":60,"time":695.9895833333353,"velocity":0.7637795275590551,"duration":0.24739583333337123},{"name":"G4","midi":67,"time":695.9895833333353,"velocity":0.7637795275590551,"duration":0.12239583333337123},{"name":"G#4","midi":68,"time":696.1145833333353,"velocity":0.7637795275590551,"duration":0.12239583333337123},{"name":"E3","midi":52,"time":696.2395833333353,"velocity":0.7637795275590551,"duration":0.24739583333337123},{"name":"A#4","midi":70,"time":696.2395833333353,"velocity":0.7637795275590551,"duration":0.12239583333337123},{"name":"G#4","midi":68,"time":696.3645833333353,"velocity":0.7637795275590551,"duration":0.12239583333337123},{"name":"A#4","midi":70,"time":696.4895833333353,"velocity":0.7637795275590551,"duration":0.12239583333337123},{"name":"G4","midi":67,"time":696.4895833333353,"velocity":0.7637795275590551,"duration":0.12239583333337123},{"name":"C5","midi":72,"time":696.6145833333353,"velocity":0.7637795275590551,"duration":0.12239583333337123},{"name":"G#4","midi":68,"time":696.6145833333353,"velocity":0.7637795275590551,"duration":0.12239583333337123},{"name":"D5","midi":74,"time":696.7395833333353,"velocity":0.7637795275590551,"duration":0.12239583333337123},{"name":"A#4","midi":70,"time":696.7395833333353,"velocity":0.7637795275590551,"duration":0.12239583333337123},{"name":"E5","midi":76,"time":696.8645833333353,"velocity":0.7637795275590551,"duration":0.12239583333337123},{"name":"C5","midi":72,"time":696.8645833333353,"velocity":0.7637795275590551,"duration":0.12239583333337123},{"name":"F5","midi":77,"time":696.9895833333353,"velocity":0.7637795275590551,"duration":0.12239583333337123},{"name":"C4","midi":60,"time":696.9895833333353,"velocity":0.7637795275590551,"duration":0.24739583333337123},{"name":"D5","midi":74,"time":696.9895833333353,"velocity":0.7637795275590551,"duration":0.12239583333337123},{"name":"G5","midi":79,"time":697.1145833333353,"velocity":0.7637795275590551,"duration":0.12239583333337123},{"name":"E5","midi":76,"time":697.1145833333353,"velocity":0.7637795275590551,"duration":0.12239583333337123},{"name":"G#5","midi":80,"time":697.2395833333353,"velocity":0.7637795275590551,"duration":0.12239583333337123},{"name":"F3","midi":53,"time":697.2395833333353,"velocity":0.7637795275590551,"duration":0.24739583333337123},{"name":"F5","midi":77,"time":697.2395833333353,"velocity":0.7637795275590551,"duration":0.24739583333337123},{"name":"C6","midi":84,"time":697.3645833333353,"velocity":0.7637795275590551,"duration":0.37239583333337123},{"name":"G#4","midi":68,"time":697.4895833333353,"velocity":0.7637795275590551,"duration":0.24739583333337123},{"name":"E5","midi":76,"time":697.4895833333353,"velocity":0.7637795275590551,"duration":0.12239583333337123},{"name":"F5","midi":77,"time":697.6145833333353,"velocity":0.7637795275590551,"duration":0.8723958333333712},{"name":"G#5","midi":80,"time":697.7395833333353,"velocity":0.7637795275590551,"duration":0.12239583333337123},{"name":"D#3","midi":51,"time":697.7395833333353,"velocity":0.7637795275590551,"duration":0.24739583333337123},{"name":"C6","midi":84,"time":697.8645833333353,"velocity":0.7637795275590551,"duration":0.12239583333337123},{"name":"A#5","midi":82,"time":697.9895833333353,"velocity":0.7637795275590551,"duration":0.12239583333337123},{"name":"G4","midi":67,"time":697.9895833333353,"velocity":0.7637795275590551,"duration":0.24739583333337123},{"name":"C6","midi":84,"time":698.1145833333353,"velocity":0.7637795275590551,"duration":0.12239583333337123},{"name":"G#5","midi":80,"time":698.2395833333353,"velocity":0.7637795275590551,"duration":0.12239583333337123},{"name":"D3","midi":50,"time":698.2395833333353,"velocity":0.7637795275590551,"duration":0.24739583333337123},{"name":"C6","midi":84,"time":698.3645833333353,"velocity":0.7637795275590551,"duration":0.37239583333337123},{"name":"F4","midi":65,"time":698.4895833333353,"velocity":0.7637795275590551,"duration":0.24739583333337123},{"name":"E5","midi":76,"time":698.4895833333353,"velocity":0.7637795275590551,"duration":0.12239583333337123},{"name":"F5","midi":77,"time":698.6145833333353,"velocity":0.7637795275590551,"duration":0.8723958333333712},{"name":"G#5","midi":80,"time":698.7395833333353,"velocity":0.7637795275590551,"duration":0.12239583333337123},{"name":"A#2","midi":46,"time":698.7395833333353,"velocity":0.7637795275590551,"duration":0.24739583333337123},{"name":"A#5","midi":82,"time":698.8645833333353,"velocity":0.7637795275590551,"duration":0.12239583333337123},{"name":"G#5","midi":80,"time":698.9895833333353,"velocity":0.7637795275590551,"duration":0.12239583333337123},{"name":"D4","midi":62,"time":698.9895833333353,"velocity":0.7637795275590551,"duration":0.24739583333337123},{"name":"A#5","midi":82,"time":699.1145833333353,"velocity":0.7637795275590551,"duration":0.12239583333337123},{"name":"G5","midi":79,"time":699.2395833333353,"velocity":0.7637795275590551,"duration":0.12239583333337123},{"name":"D#3","midi":51,"time":699.2395833333353,"velocity":0.7637795275590551,"duration":0.24739583333337123},{"name":"A#5","midi":82,"time":699.3645833333353,"velocity":0.7637795275590551,"duration":0.37239583333337123},{"name":"G4","midi":67,"time":699.4895833333353,"velocity":0.7637795275590551,"duration":0.24739583333337123},{"name":"D5","midi":74,"time":699.4895833333353,"velocity":0.7637795275590551,"duration":0.12239583333337123},{"name":"D#5","midi":75,"time":699.6145833333353,"velocity":0.7637795275590551,"duration":0.8723958333333712},{"name":"G5","midi":79,"time":699.7395833333353,"velocity":0.7637795275590551,"duration":0.12239583333337123},{"name":"D3","midi":50,"time":699.7395833333353,"velocity":0.7637795275590551,"duration":0.24739583333337123},{"name":"A#5","midi":82,"time":699.8645833333353,"velocity":0.7637795275590551,"duration":0.12239583333337123},{"name":"G#5","midi":80,"time":699.9895833333353,"velocity":0.7637795275590551,"duration":0.12239583333337123},{"name":"F4","midi":65,"time":699.9895833333353,"velocity":0.7637795275590551,"duration":0.24739583333337123},{"name":"A#5","midi":82,"time":700.1145833333353,"velocity":0.7637795275590551,"duration":0.12239583333337123},{"name":"G5","midi":79,"time":700.2395833333353,"velocity":0.7637795275590551,"duration":0.12239583333337123},{"name":"C3","midi":48,"time":700.2395833333353,"velocity":0.7637795275590551,"duration":0.24739583333337123},{"name":"A#5","midi":82,"time":700.3645833333353,"velocity":0.7637795275590551,"duration":0.37239583333337123},{"name":"D#4","midi":63,"time":700.4895833333353,"velocity":0.7637795275590551,"duration":0.24739583333337123},{"name":"D5","midi":74,"time":700.4895833333353,"velocity":0.7637795275590551,"duration":0.12239583333337123},{"name":"D#5","midi":75,"time":700.6145833333353,"velocity":0.7637795275590551,"duration":0.8723958333333712},{"name":"G5","midi":79,"time":700.7395833333353,"velocity":0.7637795275590551,"duration":0.12239583333337123},{"name":"G#2","midi":44,"time":700.7395833333353,"velocity":0.7637795275590551,"duration":0.24739583333337123},{"name":"G#5","midi":80,"time":700.8645833333353,"velocity":0.7637795275590551,"duration":0.12239583333337123},{"name":"G5","midi":79,"time":700.9895833333353,"velocity":0.7637795275590551,"duration":0.12239583333337123},{"name":"C4","midi":60,"time":700.9895833333353,"velocity":0.7637795275590551,"duration":0.24739583333337123},{"name":"G#5","midi":80,"time":701.1145833333353,"velocity":0.7637795275590551,"duration":0.12239583333337123},{"name":"F5","midi":77,"time":701.2395833333353,"velocity":0.7637795275590551,"duration":0.12239583333337123},{"name":"D3","midi":50,"time":701.2395833333353,"velocity":0.7637795275590551,"duration":0.24739583333337123},{"name":"G#5","midi":80,"time":701.3645833333353,"velocity":0.7637795275590551,"duration":0.37239583333337123},{"name":"F4","midi":65,"time":701.4895833333353,"velocity":0.7637795275590551,"duration":0.24739583333337123},{"name":"C5","midi":72,"time":701.4895833333353,"velocity":0.7637795275590551,"duration":0.12239583333337123},{"name":"D5","midi":74,"time":701.6145833333353,"velocity":0.7637795275590551,"duration":0.8723958333333712},{"name":"F5","midi":77,"time":701.7395833333353,"velocity":0.7637795275590551,"duration":0.12239583333337123},{"name":"C3","midi":48,"time":701.7395833333353,"velocity":0.7637795275590551,"duration":0.24739583333337123},{"name":"G#5","midi":80,"time":701.8645833333353,"velocity":0.7637795275590551,"duration":0.12239583333337123},{"name":"G5","midi":79,"time":701.9895833333353,"velocity":0.7637795275590551,"duration":0.12239583333337123},{"name":"D#4","midi":63,"time":701.9895833333353,"velocity":0.7637795275590551,"duration":0.24739583333337123},{"name":"G#5","midi":80,"time":702.1145833333353,"velocity":0.7637795275590551,"duration":0.12239583333337123},{"name":"F5","midi":77,"time":702.2395833333353,"velocity":0.7637795275590551,"duration":0.12239583333337123},{"name":"B2","midi":47,"time":702.2395833333353,"velocity":0.7637795275590551,"duration":0.24739583333337123},{"name":"G#5","midi":80,"time":702.3645833333353,"velocity":0.7637795275590551,"duration":0.37239583333337123},{"name":"D4","midi":62,"time":702.4895833333353,"velocity":0.7637795275590551,"duration":0.24739583333337123},{"name":"C5","midi":72,"time":702.4895833333353,"velocity":0.7637795275590551,"duration":0.12239583333337123},{"name":"D5","midi":74,"time":702.6145833333353,"velocity":0.7637795275590551,"duration":0.6223958333333712},{"name":"F5","midi":77,"time":702.7395833333353,"velocity":0.7637795275590551,"duration":0.12239583333337123},{"name":"G2","midi":43,"time":702.7395833333353,"velocity":0.7637795275590551,"duration":0.24739583333337123},{"name":"G5","midi":79,"time":702.8645833333353,"velocity":0.7637795275590551,"duration":0.12239583333337123},{"name":"F5","midi":77,"time":702.9895833333353,"velocity":0.7637795275590551,"duration":0.12239583333337123},{"name":"B3","midi":59,"time":702.9895833333353,"velocity":0.7637795275590551,"duration":0.24739583333337123},{"name":"G5","midi":79,"time":703.1145833333353,"velocity":0.7637795275590551,"duration":0.12239583333337123},{"name":"D#5","midi":75,"time":703.2395833333353,"velocity":0.7637795275590551,"duration":0.12239583333337123},{"name":"C3","midi":48,"time":703.2395833333353,"velocity":0.7637795275590551,"duration":0.24739583333337123},{"name":"C5","midi":72,"time":703.2395833333353,"velocity":0.7637795275590551,"duration":0.24739583333337123},{"name":"G5","midi":79,"time":703.3645833333353,"velocity":0.7637795275590551,"duration":0.12239583333337123},{"name":"D5","midi":74,"time":703.4895833333353,"velocity":0.7637795275590551,"duration":0.12239583333337123},{"name":"G3","midi":55,"time":703.4895833333353,"velocity":0.7637795275590551,"duration":0.24739583333337123},{"name":"A#4","midi":70,"time":703.4895833333353,"velocity":0.7637795275590551,"duration":0.24739583333337123},{"name":"G5","midi":79,"time":703.6145833333353,"velocity":0.7637795275590551,"duration":0.12239583333337123},{"name":"C5","midi":72,"time":703.7395833333353,"velocity":0.7637795275590551,"duration":0.12239583333337123},{"name":"C4","midi":60,"time":703.7395833333353,"velocity":0.7637795275590551,"duration":0.7473958333333712},{"name":"G#4","midi":68,"time":703.7395833333353,"velocity":0.7637795275590551,"duration":0.24739583333337123},{"name":"F5","midi":77,"time":703.8645833333353,"velocity":0.7637795275590551,"duration":0.12239583333337123},{"name":"A#4","midi":70,"time":703.9895833333353,"velocity":0.7637795275590551,"duration":0.12239583333337123},{"name":"G4","midi":67,"time":703.9895833333353,"velocity":0.7637795275590551,"duration":0.24739583333337123},{"name":"D#5","midi":75,"time":704.1145833333353,"velocity":0.7637795275590551,"duration":0.12239583333337123},{"name":"G#4","midi":68,"time":704.2395833333353,"velocity":0.7637795275590551,"duration":0.12239583333337123},{"name":"F4","midi":65,"time":704.2395833333353,"velocity":0.7637795275590551,"duration":0.49479166666662877},{"name":"C5","midi":72,"time":704.3645833333353,"velocity":0.7637795275590551,"duration":0.12239583333337123},{"name":"F5","midi":77,"time":704.4895833333353,"velocity":0.7637795275590551,"duration":0.12239583333337123},{"name":"D4","midi":62,"time":704.4895833333353,"velocity":0.7637795275590551,"duration":0.12239583333337123},{"name":"D#5","midi":75,"time":704.6145833333353,"velocity":0.7637795275590551,"duration":0.12239583333325754},{"name":"C4","midi":60,"time":704.6145833333353,"velocity":0.7637795275590551,"duration":0.12239583333325754},{"name":"F5","midi":77,"time":704.7395833333352,"velocity":0.7637795275590551,"duration":0.49479166666662877},{"name":"B3","midi":59,"time":704.7395833333352,"velocity":0.7637795275590551,"duration":0.12239583333337123},{"name":"A3","midi":57,"time":704.8645833333352,"velocity":0.7637795275590551,"duration":0.12239583333337123},{"name":"C5","midi":72,"time":704.8645833333352,"velocity":0.7637795275590551,"duration":0.12239583333337123},{"name":"G3","midi":55,"time":704.9895833333352,"velocity":0.7637795275590551,"duration":0.12239583333337123},{"name":"B4","midi":71,"time":704.9895833333352,"velocity":0.7637795275590551,"duration":0.12239583333337123},{"name":"F3","midi":53,"time":705.1145833333352,"velocity":0.7637795275590551,"duration":0.12239583333325754},{"name":"D5","midi":74,"time":705.1145833333352,"velocity":0.7637795275590551,"duration":0.12239583333325754},{"name":"D#3","midi":51,"time":705.2395833333351,"velocity":0.7637795275590551,"duration":0.12239583333337123},{"name":"G4","midi":67,"time":705.2395833333351,"velocity":0.7637795275590551,"duration":0.49479166666662877},{"name":"D3","midi":50,"time":705.3645833333351,"velocity":0.7637795275590551,"duration":0.12239583333337123},{"name":"C5","midi":72,"time":705.4895833333351,"velocity":0.7637795275590551,"duration":0.24739583333325754},{"name":"C3","midi":48,"time":705.4895833333351,"velocity":0.7637795275590551,"duration":0.12239583333337123},{"name":"D3","midi":50,"time":705.6145833333351,"velocity":0.7637795275590551,"duration":0.12239583333325754},{"name":"G5","midi":79,"time":705.739583333335,"velocity":0.7637795275590551,"duration":0.7473958333333712},{"name":"D#3","midi":51,"time":705.739583333335,"velocity":0.7637795275590551,"duration":0.12239583333337123},{"name":"F3","midi":53,"time":705.864583333335,"velocity":0.7637795275590551,"duration":0.12239583333337123},{"name":"G3","midi":55,"time":705.989583333335,"velocity":0.7637795275590551,"duration":0.12239583333337123},{"name":"D#5","midi":75,"time":705.989583333335,"velocity":0.7637795275590551,"duration":0.24739583333337123},{"name":"D#3","midi":51,"time":706.114583333335,"velocity":0.7637795275590551,"duration":0.12239583333337123},{"name":"G#3","midi":56,"time":706.239583333335,"velocity":0.7637795275590551,"duration":0.12239583333337123},{"name":"C5","midi":72,"time":706.239583333335,"velocity":0.7637795275590551,"duration":0.49479166666662877},{"name":"G3","midi":55,"time":706.364583333335,"velocity":0.7637795275590551,"duration":0.12239583333337123},{"name":"G#5","midi":80,"time":706.489583333335,"velocity":0.7637795275590551,"duration":0.12239583333337123},{"name":"F3","midi":53,"time":706.489583333335,"velocity":0.7637795275590551,"duration":0.12239583333337123},{"name":"G5","midi":79,"time":706.614583333335,"velocity":0.7637795275590551,"duration":0.12239583333325754},{"name":"G3","midi":55,"time":706.614583333335,"velocity":0.7637795275590551,"duration":0.12239583333325754},{"name":"F5","midi":77,"time":706.7395833333348,"velocity":0.7637795275590551,"duration":0.12239583333337123},{"name":"G#3","midi":56,"time":706.7395833333348,"velocity":0.7637795275590551,"duration":0.6223958333333712},{"name":"D#5","midi":75,"time":706.8645833333348,"velocity":0.7637795275590551,"duration":0.12239583333337123},{"name":"D5","midi":74,"time":706.9895833333348,"velocity":0.7637795275590551,"duration":0.12239583333337123},{"name":"C5","midi":72,"time":707.1145833333348,"velocity":0.7637795275590551,"duration":0.12239583333337123},{"name":"B4","midi":71,"time":707.2395833333348,"velocity":0.7637795275590551,"duration":0.49479166666662877},{"name":"G#3","midi":56,"time":707.3645833333348,"velocity":0.7637795275590551,"duration":0.12239583333337123},{"name":"G3","midi":55,"time":707.4895833333348,"velocity":0.7637795275590551,"duration":0.12239583333337123},{"name":"D4","midi":62,"time":707.4895833333348,"velocity":0.7637795275590551,"duration":0.24739583333325754},{"name":"F3","midi":53,"time":707.6145833333348,"velocity":0.7637795275590551,"duration":0.12239583333325754},{"name":"D#3","midi":51,"time":707.7395833333347,"velocity":0.7637795275590551,"duration":0.12239583333337123},{"name":"G4","midi":67,"time":707.7395833333347,"velocity":0.7637795275590551,"duration":0.7473958333333712},{"name":"D3","midi":50,"time":707.8645833333347,"velocity":0.7637795275590551,"duration":0.12239583333337123},{"name":"D#5","midi":75,"time":707.9895833333347,"velocity":0.7637795275590551,"duration":0.24739583333337123},{"name":"C3","midi":48,"time":707.9895833333347,"velocity":0.7637795275590551,"duration":0.12239583333337123},{"name":"A#2","midi":46,"time":708.1145833333347,"velocity":0.7637795275590551,"duration":0.12239583333337123},{"name":"C5","midi":72,"time":708.2395833333347,"velocity":0.7637795275590551,"duration":0.49479166666662877},{"name":"G#2","midi":44,"time":708.2395833333347,"velocity":0.7637795275590551,"duration":0.12239583333337123},{"name":"G3","midi":55,"time":708.3645833333347,"velocity":0.7637795275590551,"duration":0.12239583333337123},{"name":"F3","midi":53,"time":708.4895833333347,"velocity":0.7637795275590551,"duration":0.12239583333337123},{"name":"G#4","midi":68,"time":708.4895833333347,"velocity":0.7637795275590551,"duration":0.12239583333337123},{"name":"D#3","midi":51,"time":708.6145833333347,"velocity":0.7637795275590551,"duration":0.12239583333325754},{"name":"G4","midi":67,"time":708.6145833333347,"velocity":0.7637795275590551,"duration":0.12239583333325754},{"name":"D3","midi":50,"time":708.7395833333346,"velocity":0.7637795275590551,"duration":0.12239583333337123},{"name":"F4","midi":65,"time":708.7395833333346,"velocity":0.7637795275590551,"duration":0.12239583333337123},{"name":"C3","midi":48,"time":708.8645833333346,"velocity":0.7637795275590551,"duration":0.12239583333337123},{"name":"D#4","midi":63,"time":708.8645833333346,"velocity":0.7637795275590551,"duration":0.12239583333337123},{"name":"B2","midi":47,"time":708.9895833333346,"velocity":0.7637795275590551,"duration":0.12239583333337123},{"name":"D4","midi":62,"time":708.9895833333346,"velocity":0.7637795275590551,"duration":0.12239583333337123},{"name":"A2","midi":45,"time":709.1145833333346,"velocity":0.7637795275590551,"duration":0.12239583333337123},{"name":"C4","midi":60,"time":709.1145833333346,"velocity":0.7637795275590551,"duration":0.12239583333337123},{"name":"G2","midi":43,"time":709.2395833333346,"velocity":0.7637795275590551,"duration":0.12239583333337123},{"name":"B3","midi":59,"time":709.2395833333346,"velocity":0.7637795275590551,"duration":0.49479166666662877},{"name":"D#3","midi":51,"time":709.3645833333346,"velocity":0.7637795275590551,"duration":0.12239583333337123},{"name":"G4","midi":67,"time":709.4895833333346,"velocity":0.7637795275590551,"duration":0.24739583333325754},{"name":"D3","midi":50,"time":709.4895833333346,"velocity":0.7637795275590551,"duration":0.12239583333337123},{"name":"C3","midi":48,"time":709.6145833333346,"velocity":0.7637795275590551,"duration":0.12239583333325754},{"name":"F5","midi":77,"time":709.7395833333345,"velocity":0.7637795275590551,"duration":0.7473958333333712},{"name":"B2","midi":47,"time":709.7395833333345,"velocity":0.7637795275590551,"duration":0.12239583333337123},{"name":"A2","midi":45,"time":709.8645833333345,"velocity":0.7637795275590551,"duration":0.12239583333337123},{"name":"G2","midi":43,"time":709.9895833333345,"velocity":0.7637795275590551,"duration":0.12239583333337123},{"name":"D5","midi":74,"time":709.9895833333345,"velocity":0.7637795275590551,"duration":0.24739583333337123},{"name":"F2","midi":41,"time":710.1145833333345,"velocity":0.7637795275590551,"duration":0.12239583333337123},{"name":"D#2","midi":39,"time":710.2395833333345,"velocity":0.7637795275590551,"duration":0.12239583333337123},{"name":"G4","midi":67,"time":710.2395833333345,"velocity":0.7637795275590551,"duration":0.24739583333337123},{"name":"G#2","midi":44,"time":710.3645833333345,"velocity":0.7637795275590551,"duration":0.12239583333337123},{"name":"D5","midi":74,"time":710.4895833333345,"velocity":0.7637795275590551,"duration":0.24739583333337123},{"name":"G2","midi":43,"time":710.4895833333345,"velocity":0.7637795275590551,"duration":0.12239583333337123},{"name":"B4","midi":71,"time":710.4895833333345,"velocity":0.7637795275590551,"duration":0.24739583333337123},{"name":"F2","midi":41,"time":710.6145833333345,"velocity":0.7637795275590551,"duration":0.12239583333337123},{"name":"G5","midi":79,"time":710.7395833333345,"velocity":0.7637795275590551,"duration":0.24739583333337123},{"name":"D#2","midi":39,"time":710.7395833333345,"velocity":0.7637795275590551,"duration":0.12239583333337123},{"name":"C5","midi":72,"time":710.7395833333345,"velocity":0.7637795275590551,"duration":0.24739583333337123},{"name":"D2","midi":38,"time":710.8645833333345,"velocity":0.7637795275590551,"duration":0.12239583333337123},{"name":"F5","midi":77,"time":710.9895833333345,"velocity":0.7637795275590551,"duration":0.24739583333337123},{"name":"D#2","midi":39,"time":710.9895833333345,"velocity":0.7637795275590551,"duration":0.12239583333337123},{"name":"D5","midi":74,"time":710.9895833333345,"velocity":0.7637795275590551,"duration":0.49479166666662877},{"name":"G#4","midi":68,"time":710.9895833333345,"velocity":0.7637795275590551,"duration":0.24739583333337123},{"name":"F2","midi":41,"time":711.1145833333345,"velocity":0.7637795275590551,"duration":0.12239583333337123},{"name":"D#5","midi":75,"time":711.2395833333345,"velocity":0.7637795275590551,"duration":0.49739583333325754},{"name":"G2","midi":43,"time":711.2395833333345,"velocity":0.7637795275590551,"duration":0.12239583333337123},{"name":"G4","midi":67,"time":711.2395833333345,"velocity":0.7637795275590551,"duration":0.49479166666662877},{"name":"C3","midi":48,"time":711.3723958333345,"velocity":0.7637795275590551,"duration":0.12890625},{"name":"C5","midi":72,"time":711.5052083333345,"velocity":0.7637795275590551,"duration":0.4947916666665151},{"name":"D#3","midi":51,"time":711.5052083333345,"velocity":0.7637795275590551,"duration":0.12890625},{"name":"F#3","midi":54,"time":711.6380208333345,"velocity":0.7637795275590551,"duration":0.1289062499998863},{"name":"D5","midi":74,"time":711.769531250001,"velocity":0.7637795275590551,"duration":0.49739583333337123},{"name":"F4","midi":65,"time":711.7708333333344,"velocity":0.7637795275590551,"duration":0.49479166666662877},{"name":"G3","midi":55,"time":711.7708333333344,"velocity":0.7637795275590551,"duration":0.44270833333325754},{"name":"G2","midi":43,"time":712.031250000001,"velocity":0.7637795275590551,"duration":0.26041666666674246},{"name":"B4","midi":71,"time":712.031250000001,"velocity":0.7637795275590551,"duration":0.24739583333337123},{"name":"C5","midi":72,"time":712.3229166666678,"velocity":0.7637795275590551,"duration":1.5625},{"name":"C3","midi":48,"time":712.3229166666678,"velocity":0.7637795275590551,"duration":1.5625},{"name":"C2","midi":36,"time":712.3229166666678,"velocity":0.7637795275590551,"duration":1.5625},{"name":"G4","midi":67,"time":712.3229166666678,"velocity":0.7637795275590551,"duration":1.5625},{"name":"D#4","midi":63,"time":712.3229166666678,"velocity":0.7637795275590551,"duration":1.5625}],"controlChanges":{"7":[{"number":7,"time":0,"value":0.7874015748031497}]},"id":1,"name":"Harpsichord","instrumentNumber":7,"instrument":"clavi","instrumentFamily":"piano","channelNumber":0,"isPercussion":false}]}