{"header":{"PPQ":240,"timeSignature":[1,4],"bpm":120,"name":""},"startTime":5.133333333333334,"duration":175.9520833333314,"tracks":[{"startTime":5.133333333333334,"duration":175.9520833333314,"length":2412,"notes":[{"name":"G4","midi":67,"time":5.133333333333334,"velocity":0.7637795275590551,"duration":0.10833333333333339},{"name":"G3","midi":55,"time":5.133333333333334,"velocity":0.7637795275590551,"duration":0.3166666666666673},{"name":"B4","midi":71,"time":5.241666666666667,"velocity":0.7322834645669292,"duration":0.10625000000000018},{"name":"D5","midi":74,"time":5.347916666666667,"velocity":0.7322834645669292,"duration":0.10208333333333375},{"name":"G5","midi":79,"time":5.450000000000001,"velocity":0.7322834645669292,"duration":0.10208333333333286},{"name":"G2","midi":43,"time":5.452083333333334,"velocity":0.7637795275590551,"duration":0.29999999999999893},{"name":"D5","midi":74,"time":5.552083333333334,"velocity":0.7322834645669292,"duration":0.09791666666666643},{"name":"B4","midi":71,"time":5.652083333333334,"velocity":0.7322834645669292,"duration":0.09999999999999964},{"name":"D5","midi":74,"time":5.754166666666666,"velocity":0.7322834645669292,"duration":0.09583333333333321},{"name":"B4","midi":71,"time":5.85,"velocity":0.7322834645669292,"duration":0.09583333333333321},{"name":"G4","midi":67,"time":5.945833333333333,"velocity":0.7637795275590551,"duration":0.09791666666666643},{"name":"B4","midi":71,"time":6.0458333333333325,"velocity":0.7322834645669292,"duration":0.09375},{"name":"G3","midi":55,"time":6.0458333333333325,"velocity":0.7637795275590551,"duration":0.2624999999999993},{"name":"G4","midi":67,"time":6.141666666666666,"velocity":0.7637795275590551,"duration":0.09583333333333321},{"name":"D4","midi":62,"time":6.239583333333332,"velocity":0.7637795275590551,"duration":0.09999999999999964},{"name":"G3","midi":55,"time":6.341666666666665,"velocity":0.7637795275590551,"duration":0.29999999999999893},{"name":"E4","midi":64,"time":6.341666666666665,"velocity":0.7637795275590551,"duration":0.09791666666666643},{"name":"G4","midi":67,"time":6.441666666666665,"velocity":0.7637795275590551,"duration":0.09791666666666643},{"name":"C5","midi":72,"time":6.541666666666664,"velocity":0.7322834645669292,"duration":0.09791666666666643},{"name":"E5","midi":76,"time":6.641666666666664,"velocity":0.7322834645669292,"duration":0.09791666666666643},{"name":"G2","midi":43,"time":6.643749999999997,"velocity":0.7637795275590551,"duration":0.30208333333333215},{"name":"C5","midi":72,"time":6.741666666666664,"velocity":0.7322834645669292,"duration":0.09999999999999964},{"name":"G4","midi":67,"time":6.8437499999999964,"velocity":0.7637795275590551,"duration":0.09999999999999964},{"name":"C5","midi":72,"time":6.945833333333329,"velocity":0.7322834645669292,"duration":0.09791666666666643},{"name":"G4","midi":67,"time":7.045833333333329,"velocity":0.7637795275590551,"duration":0.09999999999999964},{"name":"E4","midi":64,"time":7.147916666666662,"velocity":0.7637795275590551,"duration":0.09791666666666643},{"name":"G3","midi":55,"time":7.2479166666666615,"velocity":0.7637795275590551,"duration":0.28541666666666554},{"name":"G4","midi":67,"time":7.2479166666666615,"velocity":0.7637795275590551,"duration":0.09791666666666643},{"name":"E4","midi":64,"time":7.347916666666661,"velocity":0.7637795275590551,"duration":0.09999999999999964},{"name":"C4","midi":60,"time":7.449999999999994,"velocity":0.7637795275590551,"duration":0.10208333333333286},{"name":"A3","midi":57,"time":7.54791666666666,"velocity":0.7637795275590551,"duration":0.10416666666666607},{"name":"G3","midi":55,"time":7.549999999999994,"velocity":0.7637795275590551,"duration":0.2979166666666657},{"name":"C4","midi":60,"time":7.64791666666666,"velocity":0.7637795275590551,"duration":0.10208333333333286},{"name":"F#4","midi":66,"time":7.74791666666666,"velocity":0.7637795275590551,"duration":0.09791666666666643},{"name":"A4","midi":69,"time":7.847916666666659,"velocity":0.7322834645669292,"duration":0.08749999999999947},{"name":"G2","midi":43,"time":7.8499999999999925,"velocity":0.7637795275590551,"duration":0.2916666666666661},{"name":"F#4","midi":66,"time":7.945833333333326,"velocity":0.7637795275590551,"duration":0.08750000000000036},{"name":"C4","midi":60,"time":8.043749999999992,"velocity":0.7637795275590551,"duration":0.09166666666666679},{"name":"F#4","midi":66,"time":8.143749999999992,"velocity":0.7637795275590551,"duration":0.15416666666666679},{"name":"C4","midi":60,"time":8.241666666666658,"velocity":0.7637795275590551,"duration":0.09166666666666679},{"name":"A3","midi":57,"time":8.341666666666658,"velocity":0.7637795275590551,"duration":0.09166666666666679},{"name":"C4","midi":60,"time":8.439583333333324,"velocity":0.7637795275590551,"duration":0.09375},{"name":"G3","midi":55,"time":8.441666666666658,"velocity":0.7637795275590551,"duration":0.1999999999999993},{"name":"A3","midi":57,"time":8.539583333333324,"velocity":0.7637795275590551,"duration":0.09166666666666679},{"name":"F#3","midi":54,"time":8.641666666666657,"velocity":0.7637795275590551,"duration":0.08958333333333357},{"name":"G3","midi":55,"time":8.73749999999999,"velocity":0.7637795275590551,"duration":0.29999999999999893},{"name":"B3","midi":59,"time":8.839583333333323,"velocity":0.7637795275590551,"duration":0.09166666666666679},{"name":"D4","midi":62,"time":8.939583333333323,"velocity":0.7637795275590551,"duration":0.09166666666666679},{"name":"G4","midi":67,"time":9.039583333333322,"velocity":0.7637795275590551,"duration":0.09999999999999964},{"name":"G2","midi":43,"time":9.041666666666655,"velocity":0.7637795275590551,"duration":0.2979166666666657},{"name":"D4","midi":62,"time":9.141666666666655,"velocity":0.7637795275590551,"duration":0.09999999999999964},{"name":"B3","midi":59,"time":9.239583333333321,"velocity":0.7637795275590551,"duration":0.10416666666666607},{"name":"D4","midi":62,"time":9.341666666666654,"velocity":0.7637795275590551,"duration":0.09999999999999964},{"name":"B3","midi":59,"time":9.43958333333332,"velocity":0.7637795275590551,"duration":0.10208333333333286},{"name":"G3","midi":55,"time":9.537499999999987,"velocity":0.7637795275590551,"duration":0.08750000000000036},{"name":"B3","midi":59,"time":9.635416666666654,"velocity":0.7637795275590551,"duration":0.10416666666666607},{"name":"G3","midi":55,"time":9.637499999999987,"velocity":0.7637795275590551,"duration":0.08541666666666714},{"name":"G3","midi":55,"time":9.735416666666653,"velocity":0.7637795275590551,"duration":0.10624999999999929},{"name":"E3","midi":52,"time":9.837499999999986,"velocity":0.7637795275590551,"duration":0.10624999999999929},{"name":"A3","midi":57,"time":9.939583333333319,"velocity":0.7637795275590551,"duration":0.10624999999999929},{"name":"G3","midi":55,"time":9.941666666666652,"velocity":0.7637795275590551,"duration":0.3083333333333318},{"name":"C#4","midi":61,"time":10.041666666666652,"velocity":0.7637795275590551,"duration":0.10416666666666607},{"name":"E4","midi":64,"time":10.145833333333318,"velocity":0.7637795275590551,"duration":0.10208333333333286},{"name":"A4","midi":69,"time":10.24791666666665,"velocity":0.7322834645669292,"duration":0.09999999999999964},{"name":"G2","midi":43,"time":10.24791666666665,"velocity":0.7637795275590551,"duration":0.2979166666666657},{"name":"E4","midi":64,"time":10.34791666666665,"velocity":0.7637795275590551,"duration":0.09791666666666643},{"name":"C#4","midi":61,"time":10.44791666666665,"velocity":0.7637795275590551,"duration":0.09583333333333321},{"name":"E4","midi":64,"time":10.54791666666665,"velocity":0.7637795275590551,"duration":0.09583333333333321},{"name":"C#4","midi":61,"time":10.643749999999983,"velocity":0.7637795275590551,"duration":0.09999999999999964},{"name":"A3","midi":57,"time":10.743749999999983,"velocity":0.7637795275590551,"duration":0.09999999999999964},{"name":"G3","midi":55,"time":10.843749999999982,"velocity":0.7637795275590551,"duration":0.29999999999999893},{"name":"C#4","midi":61,"time":10.843749999999982,"velocity":0.7637795275590551,"duration":0.09999999999999964},{"name":"A3","midi":57,"time":10.943749999999982,"velocity":0.7637795275590551,"duration":0.09999999999999964},{"name":"E3","midi":52,"time":11.043749999999982,"velocity":0.7637795275590551,"duration":0.10208333333333286},{"name":"D4","midi":62,"time":11.143749999999981,"velocity":0.7637795275590551,"duration":0.30208333333333215},{"name":"F#3","midi":54,"time":11.145833333333314,"velocity":0.7637795275590551,"duration":0.09791666666666643},{"name":"A3","midi":57,"time":11.24374999999998,"velocity":0.7637795275590551,"duration":0.10208333333333286},{"name":"C#4","midi":61,"time":11.345833333333314,"velocity":0.7637795275590551,"duration":0.09999999999999964},{"name":"D4","midi":62,"time":11.447916666666647,"velocity":0.7637795275590551,"duration":0.09583333333333321},{"name":"A3","midi":57,"time":11.54374999999998,"velocity":0.7637795275590551,"duration":0.09791666666666643},{"name":"F#3","midi":54,"time":11.641666666666646,"velocity":0.7637795275590551,"duration":0.10208333333333286},{"name":"A3","midi":57,"time":11.741666666666646,"velocity":0.7637795275590551,"duration":0.10208333333333286},{"name":"F#3","midi":54,"time":11.841666666666645,"velocity":0.7637795275590551,"duration":0.10624999999999929},{"name":"D3","midi":50,"time":11.943749999999978,"velocity":0.7637795275590551,"duration":0.10624999999999929},{"name":"F#3","midi":54,"time":12.045833333333311,"velocity":0.7637795275590551,"duration":0.10416666666666607},{"name":"D4","midi":62,"time":12.045833333333311,"velocity":0.7637795275590551,"duration":0.3062499999999986},{"name":"D3","midi":50,"time":12.147916666666644,"velocity":0.7637795275590551,"duration":0.10624999999999929},{"name":"B2","midi":47,"time":12.249999999999977,"velocity":0.7637795275590551,"duration":0.09999999999999964},{"name":"D4","midi":62,"time":12.35208333333331,"velocity":0.7637795275590551,"duration":0.09999999999999964},{"name":"E3","midi":52,"time":12.354166666666643,"velocity":0.7637795275590551,"duration":0.29999999999999893},{"name":"C#4","midi":61,"time":12.454166666666643,"velocity":0.7637795275590551,"duration":0.09791666666666643},{"name":"D4","midi":62,"time":12.554166666666642,"velocity":0.7637795275590551,"duration":0.09791666666666643},{"name":"E4","midi":64,"time":12.654166666666642,"velocity":0.7637795275590551,"duration":0.09791666666666643},{"name":"E2","midi":40,"time":12.656249999999975,"velocity":0.7637795275590551,"duration":0.2979166666666657},{"name":"C#4","midi":61,"time":12.754166666666642,"velocity":0.7637795275590551,"duration":0.09999999999999964},{"name":"D4","midi":62,"time":12.856249999999974,"velocity":0.7637795275590551,"duration":0.09583333333333321},{"name":"F#4","midi":66,"time":12.95416666666664,"velocity":0.7637795275590551,"duration":0.09791666666666643},{"name":"C#4","midi":61,"time":13.05416666666664,"velocity":0.7637795275590551,"duration":0.09791666666666643},{"name":"D4","midi":62,"time":13.15416666666664,"velocity":0.7637795275590551,"duration":0.09583333333333321},{"name":"E3","midi":52,"time":13.252083333333307,"velocity":0.7637795275590551,"duration":0.2979166666666657},{"name":"G4","midi":67,"time":13.252083333333307,"velocity":0.7637795275590551,"duration":0.09791666666666643},{"name":"C#4","midi":61,"time":13.352083333333306,"velocity":0.7637795275590551,"duration":0.09791666666666643},{"name":"D4","midi":62,"time":13.452083333333306,"velocity":0.7637795275590551,"duration":0.09791666666666643},{"name":"A4","midi":69,"time":13.549999999999972,"velocity":0.7322834645669292,"duration":0.09999999999999964},{"name":"C#3","midi":49,"time":13.552083333333306,"velocity":0.7637795275590551,"duration":0.30208333333333215},{"name":"C#4","midi":61,"time":13.652083333333305,"velocity":0.7637795275590551,"duration":0.09999999999999964},{"name":"D4","midi":62,"time":13.752083333333305,"velocity":0.7637795275590551,"duration":0.09999999999999964},{"name":"B4","midi":71,"time":13.854166666666638,"velocity":0.7322834645669292,"duration":0.09999999999999964},{"name":"A2","midi":45,"time":13.85624999999997,"velocity":0.7637795275590551,"duration":0.30416666666666536},{"name":"C#4","midi":61,"time":13.95624999999997,"velocity":0.7637795275590551,"duration":0.09999999999999964},{"name":"D4","midi":62,"time":14.058333333333303,"velocity":0.7637795275590551,"duration":0.09999999999999964},{"name":"A4","midi":69,"time":14.160416666666636,"velocity":0.7322834645669292,"duration":0.09791666666666643},{"name":"B2","midi":47,"time":14.16249999999997,"velocity":0.7637795275590551,"duration":0.29999999999999893},{"name":"C#4","midi":61,"time":14.260416666666636,"velocity":0.7637795275590551,"duration":0.09999999999999964},{"name":"D4","midi":62,"time":14.362499999999969,"velocity":0.7637795275590551,"duration":0.10416666666666607},{"name":"C#3","midi":49,"time":14.464583333333302,"velocity":0.7637795275590551,"duration":0.30416666666666536},{"name":"G4","midi":67,"time":14.464583333333302,"velocity":0.7637795275590551,"duration":0.10416666666666607},{"name":"C#4","midi":61,"time":14.564583333333301,"velocity":0.7637795275590551,"duration":0.10208333333333286},{"name":"D4","midi":62,"time":14.668749999999967,"velocity":0.7637795275590551,"duration":0.10416666666666607},{"name":"F#4","midi":66,"time":14.7708333333333,"velocity":0.7637795275590551,"duration":0.30208333333333215},{"name":"D3","midi":50,"time":14.7708333333333,"velocity":0.7637795275590551,"duration":0.10416666666666607},{"name":"C#4","midi":61,"time":14.868749999999967,"velocity":0.7637795275590551,"duration":0.10208333333333286},{"name":"D4","midi":62,"time":14.9708333333333,"velocity":0.7637795275590551,"duration":0.10208333333333286},{"name":"E3","midi":52,"time":15.072916666666632,"velocity":0.7637795275590551,"duration":0.10208333333333286},{"name":"G4","midi":67,"time":15.074999999999966,"velocity":0.7637795275590551,"duration":0.29999999999999893},{"name":"C#4","midi":61,"time":15.170833333333299,"velocity":0.7637795275590551,"duration":0.09999999999999964},{"name":"D4","midi":62,"time":15.272916666666632,"velocity":0.7637795275590551,"duration":0.10208333333333286},{"name":"A4","midi":69,"time":15.374999999999964,"velocity":0.7322834645669292,"duration":0.30416666666666536},{"name":"F#3","midi":54,"time":15.374999999999964,"velocity":0.7637795275590551,"duration":0.10416666666666607},{"name":"C#4","midi":61,"time":15.474999999999964,"velocity":0.7637795275590551,"duration":0.10208333333333286},{"name":"D4","midi":62,"time":15.577083333333297,"velocity":0.7637795275590551,"duration":0.09999999999999964},{"name":"B4","midi":71,"time":15.67916666666663,"velocity":0.7322834645669292,"duration":0.3062499999999986},{"name":"G3","midi":55,"time":15.67916666666663,"velocity":0.7637795275590551,"duration":0.10416666666666607},{"name":"C#4","midi":61,"time":15.77916666666663,"velocity":0.7637795275590551,"duration":0.10208333333333286},{"name":"D4","midi":62,"time":15.883333333333296,"velocity":0.7637795275590551,"duration":0.09999999999999964},{"name":"A4","midi":69,"time":15.985416666666628,"velocity":0.7322834645669292,"duration":0.30416666666667247},{"name":"F#3","midi":54,"time":15.987499999999962,"velocity":0.7637795275590551,"duration":0.10000000000000142},{"name":"C#4","midi":61,"time":16.085416666666628,"velocity":0.7637795275590551,"duration":0.10000000000000142},{"name":"D4","midi":62,"time":16.187499999999964,"velocity":0.7637795275590551,"duration":0.10000000000000142},{"name":"E3","midi":52,"time":16.2895833333333,"velocity":0.7637795275590551,"duration":0.10208333333333641},{"name":"G4","midi":67,"time":16.291666666666636,"velocity":0.7637795275590551,"duration":0.3000000000000078},{"name":"C#4","midi":61,"time":16.38749999999997,"velocity":0.7637795275590551,"duration":0.10000000000000142},{"name":"D4","midi":62,"time":16.489583333333307,"velocity":0.7637795275590551,"duration":0.10000000000000142},{"name":"D3","midi":50,"time":16.591666666666644,"velocity":0.7637795275590551,"duration":0.10208333333333641},{"name":"F#4","midi":66,"time":16.59374999999998,"velocity":0.7637795275590551,"duration":0.3000000000000078},{"name":"C#4","midi":61,"time":16.689583333333314,"velocity":0.7637795275590551,"duration":0.10000000000000142},{"name":"D4","midi":62,"time":16.79166666666665,"velocity":0.7637795275590551,"duration":0.10000000000000142},{"name":"A4","midi":69,"time":16.893749999999986,"velocity":0.7322834645669292,"duration":0.3020833333333428},{"name":"F#3","midi":54,"time":16.89583333333332,"velocity":0.7637795275590551,"duration":0.10000000000000142},{"name":"C#4","midi":61,"time":16.991666666666656,"velocity":0.7637795275590551,"duration":0.10000000000000142},{"name":"D4","midi":62,"time":17.093749999999993,"velocity":0.7637795275590551,"duration":0.10000000000000142},{"name":"G#4","midi":68,"time":17.19583333333333,"velocity":0.7322834645669292,"duration":0.09583333333333499},{"name":"B2","midi":47,"time":17.197916666666664,"velocity":0.7637795275590551,"duration":0.287500000000005},{"name":"B4","midi":71,"time":17.29375,"velocity":0.7322834645669292,"duration":0.09583333333333499},{"name":"D5","midi":74,"time":17.39166666666667,"velocity":0.7322834645669292,"duration":0.09166666666666501},{"name":"F5","midi":77,"time":17.48541666666667,"velocity":0.7322834645669292,"duration":0.09166666666666856},{"name":"B3","midi":59,"time":17.487500000000004,"velocity":0.7637795275590551,"duration":0.28125000000000355},{"name":"D5","midi":74,"time":17.579166666666673,"velocity":0.7322834645669292,"duration":0.09375},{"name":"B4","midi":71,"time":17.672916666666673,"velocity":0.7322834645669292,"duration":0.09583333333333499},{"name":"D5","midi":74,"time":17.770833333333343,"velocity":0.7322834645669292,"duration":0.09583333333333499},{"name":"B4","midi":71,"time":17.866666666666678,"velocity":0.7322834645669292,"duration":0.10000000000000142},{"name":"G#4","midi":68,"time":17.96666666666668,"velocity":0.7322834645669292,"duration":0.09791666666666643},{"name":"B4","midi":71,"time":18.064583333333346,"velocity":0.7322834645669292,"duration":0.10000000000000142},{"name":"A3","midi":57,"time":18.06666666666668,"velocity":0.7637795275590551,"duration":0.2958333333333343},{"name":"G#4","midi":68,"time":18.164583333333347,"velocity":0.7322834645669292,"duration":0.10000000000000142},{"name":"E4","midi":64,"time":18.26458333333335,"velocity":0.7637795275590551,"duration":0.09791666666666643},{"name":"G#3","midi":56,"time":18.36458333333335,"velocity":0.7637795275590551,"duration":0.2958333333333343},{"name":"D4","midi":62,"time":18.36458333333335,"velocity":0.7637795275590551,"duration":0.09791666666666643},{"name":"F4","midi":65,"time":18.462500000000016,"velocity":0.7637795275590551,"duration":0.10000000000000142},{"name":"G#4","midi":68,"time":18.562500000000018,"velocity":0.7322834645669292,"duration":0.09791666666666643},{"name":"B4","midi":71,"time":18.66250000000002,"velocity":0.7322834645669292,"duration":0.09375},{"name":"G#2","midi":44,"time":18.66250000000002,"velocity":0.7637795275590551,"duration":0.29166666666666785},{"name":"G#4","midi":68,"time":18.75625000000002,"velocity":0.7322834645669292,"duration":0.09791666666666643},{"name":"F4","midi":65,"time":18.854166666666686,"velocity":0.7637795275590551,"duration":0.10000000000000142},{"name":"G#4","midi":68,"time":18.956250000000022,"velocity":0.7322834645669292,"duration":0.09583333333333499},{"name":"F4","midi":65,"time":19.052083333333357,"velocity":0.7637795275590551,"duration":0.10000000000000142},{"name":"D4","midi":62,"time":19.15208333333336,"velocity":0.7637795275590551,"duration":0.10000000000000142},{"name":"F4","midi":65,"time":19.25208333333336,"velocity":0.7637795275590551,"duration":0.09791666666666998},{"name":"G#3","midi":56,"time":19.254166666666695,"velocity":0.7637795275590551,"duration":0.29583333333333783},{"name":"D4","midi":62,"time":19.35000000000003,"velocity":0.7637795275590551,"duration":0.10000000000000142},{"name":"B3","midi":59,"time":19.45000000000003,"velocity":0.7637795275590551,"duration":0.10000000000000142},{"name":"C4","midi":60,"time":19.552083333333368,"velocity":0.7637795275590551,"duration":0.09375},{"name":"A3","midi":57,"time":19.552083333333368,"velocity":0.7637795275590551,"duration":0.09791666666666643},{"name":"C4","midi":60,"time":19.650000000000034,"velocity":0.7637795275590551,"duration":0.10208333333333286},{"name":"E4","midi":64,"time":19.752083333333367,"velocity":0.7637795275590551,"duration":0.10208333333333286},{"name":"E5","midi":76,"time":19.8541666666667,"velocity":0.7322834645669292,"duration":0.3062500000000057},{"name":"A4","midi":69,"time":19.856250000000035,"velocity":0.7322834645669292,"duration":0.09791666666666643},{"name":"E4","midi":64,"time":19.9541666666667,"velocity":0.7637795275590551,"duration":0.10208333333333286},{"name":"C4","midi":60,"time":20.05833333333337,"velocity":0.7637795275590551,"duration":0.10000000000000142},{"name":"C5","midi":72,"time":20.160416666666706,"velocity":0.7322834645669292,"duration":0.30208333333333925},{"name":"E4","midi":64,"time":20.160416666666706,"velocity":0.7637795275590551,"duration":0.09791666666666643},{"name":"C4","midi":60,"time":20.260416666666707,"velocity":0.7637795275590551,"duration":0.10000000000000142},{"name":"A3","midi":57,"time":20.362500000000043,"velocity":0.7637795275590551,"duration":0.10000000000000142},{"name":"A4","midi":69,"time":20.46458333333338,"velocity":0.7322834645669292,"duration":0.3041666666666778},{"name":"C4","midi":60,"time":20.466666666666715,"velocity":0.7637795275590551,"duration":0.09583333333333499},{"name":"A3","midi":57,"time":20.564583333333385,"velocity":0.7637795275590551,"duration":0.10000000000000142},{"name":"E3","midi":52,"time":20.66666666666672,"velocity":0.7637795275590551,"duration":0.10000000000000142},{"name":"E4","midi":64,"time":20.768750000000058,"velocity":0.7637795275590551,"duration":0.30000000000000426},{"name":"C3","midi":48,"time":20.768750000000058,"velocity":0.7637795275590551,"duration":0.09791666666666643},{"name":"E3","midi":52,"time":20.86875000000006,"velocity":0.7637795275590551,"duration":0.09791666666666643},{"name":"A3","midi":57,"time":20.96875000000006,"velocity":0.7637795275590551,"duration":0.09791666666666643},{"name":"E5","midi":76,"time":21.068750000000062,"velocity":0.7322834645669292,"duration":0.3000000000000078},{"name":"C4","midi":60,"time":21.070833333333397,"velocity":0.7637795275590551,"duration":0.09583333333333499},{"name":"A3","midi":57,"time":21.168750000000067,"velocity":0.7637795275590551,"duration":0.09791666666666643},{"name":"E3","midi":52,"time":21.268750000000068,"velocity":0.7637795275590551,"duration":0.09791666666666643},{"name":"C5","midi":72,"time":21.36875000000007,"velocity":0.7322834645669292,"duration":0.2979166666666728},{"name":"A3","midi":57,"time":21.370833333333405,"velocity":0.7637795275590551,"duration":0.09375},{"name":"E3","midi":52,"time":21.46666666666674,"velocity":0.7637795275590551,"duration":0.09791666666666643},{"name":"C3","midi":48,"time":21.56666666666674,"velocity":0.7637795275590551,"duration":0.09791666666666643},{"name":"A4","midi":69,"time":21.666666666666742,"velocity":0.7322834645669292,"duration":0.2979166666666728},{"name":"E3","midi":52,"time":21.668750000000077,"velocity":0.7637795275590551,"duration":0.09375},{"name":"C3","midi":48,"time":21.764583333333412,"velocity":0.7637795275590551,"duration":0.09791666666666643},{"name":"A2","midi":45,"time":21.864583333333414,"velocity":0.7637795275590551,"duration":0.09791666666666643},{"name":"D#5","midi":75,"time":21.964583333333415,"velocity":0.7007874015748031,"duration":0.09791666666666998},{"name":"F#2","midi":42,"time":21.96666666666675,"velocity":0.7637795275590551,"duration":0.29375000000000995},{"name":"F#5","midi":78,"time":22.06458333333342,"velocity":0.6771653543307087,"duration":0.09583333333333499},{"name":"A5","midi":81,"time":22.16250000000009,"velocity":0.6771653543307087,"duration":0.09583333333333499},{"name":"C6","midi":84,"time":22.26041666666676,"velocity":0.6771653543307087,"duration":0.09583333333333499},{"name":"F#3","midi":54,"time":22.262500000000095,"velocity":0.7637795275590551,"duration":0.28541666666667},{"name":"A5","midi":81,"time":22.35833333333343,"velocity":0.6771653543307087,"duration":0.09166666666666501},{"name":"F#5","midi":78,"time":22.45208333333343,"velocity":0.6771653543307087,"duration":0.09583333333333499},{"name":"A5","midi":81,"time":22.5500000000001,"velocity":0.6771653543307087,"duration":0.09375},{"name":"F#5","midi":78,"time":22.6437500000001,"velocity":0.6771653543307087,"duration":0.10000000000000142},{"name":"D#5","midi":75,"time":22.7437500000001,"velocity":0.7007874015748031,"duration":0.10000000000000142},{"name":"F#5","midi":78,"time":22.843750000000103,"velocity":0.7007874015748031,"duration":0.10000000000000142},{"name":"E3","midi":52,"time":22.845833333333438,"velocity":0.7637795275590551,"duration":0.29791666666666927},{"name":"D#5","midi":75,"time":22.943750000000104,"velocity":0.7322834645669292,"duration":0.10000000000000142},{"name":"B4","midi":71,"time":23.043750000000106,"velocity":0.7322834645669292,"duration":0.10000000000000142},{"name":"A4","midi":69,"time":23.145833333333442,"velocity":0.7322834645669292,"duration":0.09583333333333499},{"name":"D#3","midi":51,"time":23.145833333333442,"velocity":0.7637795275590551,"duration":0.287500000000005},{"name":"C5","midi":72,"time":23.241666666666777,"velocity":0.7322834645669292,"duration":0.09583333333333499},{"name":"D#5","midi":75,"time":23.337500000000112,"velocity":0.7322834645669292,"duration":0.09583333333333499},{"name":"F#5","midi":78,"time":23.435416666666782,"velocity":0.7322834645669292,"duration":0.09166666666666501},{"name":"D#2","midi":39,"time":23.435416666666782,"velocity":0.7637795275590551,"duration":0.28958333333333286},{"name":"D#5","midi":75,"time":23.527083333333447,"velocity":0.7322834645669292,"duration":0.10000000000000142},{"name":"C5","midi":72,"time":23.62708333333345,"velocity":0.7322834645669292,"duration":0.09791666666666643},{"name":"D#5","midi":75,"time":23.72708333333345,"velocity":0.7322834645669292,"duration":0.09791666666666643},{"name":"C5","midi":72,"time":23.825000000000117,"velocity":0.7322834645669292,"duration":0.10000000000000142},{"name":"A4","midi":69,"time":23.925000000000118,"velocity":0.7322834645669292,"duration":0.10000000000000142},{"name":"C5","midi":72,"time":24.027083333333454,"velocity":0.7322834645669292,"duration":0.09791666666666643},{"name":"D#3","midi":51,"time":24.027083333333454,"velocity":0.7637795275590551,"duration":0.3000000000000007},{"name":"A4","midi":69,"time":24.12500000000012,"velocity":0.7322834645669292,"duration":0.10000000000000142},{"name":"F#4","midi":66,"time":24.225000000000122,"velocity":0.7637795275590551,"duration":0.10208333333333286},{"name":"G4","midi":67,"time":24.32916666666679,"velocity":0.7637795275590551,"duration":0.30416666666666714},{"name":"E3","midi":52,"time":24.32916666666679,"velocity":0.7637795275590551,"duration":0.10000000000000142},{"name":"D#4","midi":63,"time":24.42916666666679,"velocity":0.7637795275590551,"duration":0.10208333333333286},{"name":"E4","midi":64,"time":24.531250000000124,"velocity":0.7637795275590551,"duration":0.10208333333333286},{"name":"A4","midi":69,"time":24.635416666666792,"velocity":0.7322834645669292,"duration":0.3062500000000057},{"name":"F#3","midi":54,"time":24.635416666666792,"velocity":0.7637795275590551,"duration":0.10000000000000142},{"name":"D#4","midi":63,"time":24.735416666666794,"velocity":0.7637795275590551,"duration":0.10208333333333286},{"name":"E4","midi":64,"time":24.83958333333346,"velocity":0.7637795275590551,"duration":0.10000000000000142},{"name":"B4","midi":71,"time":24.941666666666798,"velocity":0.7322834645669292,"duration":0.30625000000000924},{"name":"G3","midi":55,"time":24.941666666666798,"velocity":0.7637795275590551,"duration":0.10000000000000142},{"name":"D#4","midi":63,"time":25.043750000000134,"velocity":0.7637795275590551,"duration":0.10000000000000142},{"name":"E4","midi":64,"time":25.14583333333347,"velocity":0.7637795275590551,"duration":0.10000000000000142},{"name":"C5","midi":72,"time":25.247916666666807,"velocity":0.7322834645669292,"duration":0.3041666666666707},{"name":"A3","midi":57,"time":25.247916666666807,"velocity":0.7637795275590551,"duration":0.10000000000000142},{"name":"D#4","midi":63,"time":25.350000000000144,"velocity":0.7637795275590551,"duration":0.10000000000000142},{"name":"E4","midi":64,"time":25.450000000000145,"velocity":0.7637795275590551,"duration":0.10208333333333286},{"name":"B4","midi":71,"time":25.552083333333478,"velocity":0.7322834645669292,"duration":0.3041666666666707},{"name":"G3","midi":55,"time":25.554166666666813,"velocity":0.7637795275590551,"duration":0.10000000000000142},{"name":"D#4","midi":63,"time":25.654166666666814,"velocity":0.7637795275590551,"duration":0.10208333333333286},{"name":"E4","midi":64,"time":25.756250000000147,"velocity":0.7637795275590551,"duration":0.10000000000000142},{"name":"A4","midi":69,"time":25.858333333333483,"velocity":0.7322834645669292,"duration":0.30416666666666714},{"name":"F#3","midi":54,"time":25.858333333333483,"velocity":0.7637795275590551,"duration":0.10000000000000142},{"name":"D#4","midi":63,"time":25.958333333333485,"velocity":0.7637795275590551,"duration":0.10208333333333286},{"name":"E4","midi":64,"time":26.060416666666818,"velocity":0.7637795275590551,"duration":0.10208333333333286},{"name":"G4","midi":67,"time":26.164583333333486,"velocity":0.7637795275590551,"duration":0.3020833333333357},{"name":"E3","midi":52,"time":26.164583333333486,"velocity":0.7637795275590551,"duration":0.10000000000000142},{"name":"D#4","midi":63,"time":26.264583333333487,"velocity":0.7637795275590551,"duration":0.10000000000000142},{"name":"E4","midi":64,"time":26.36458333333349,"velocity":0.7637795275590551,"duration":0.10208333333333286},{"name":"B4","midi":71,"time":26.468750000000156,"velocity":0.7322834645669292,"duration":0.30416666666666714},{"name":"G3","midi":55,"time":26.468750000000156,"velocity":0.7637795275590551,"duration":0.10000000000000142},{"name":"D#4","midi":63,"time":26.568750000000158,"velocity":0.7637795275590551,"duration":0.10208333333333286},{"name":"E4","midi":64,"time":26.67083333333349,"velocity":0.7637795275590551,"duration":0.10208333333333286},{"name":"A4","midi":69,"time":26.77500000000016,"velocity":0.7322834645669292,"duration":0.10000000000000142},{"name":"C#3","midi":49,"time":26.77500000000016,"velocity":0.7637795275590551,"duration":0.30208333333333925},{"name":"G#4","midi":68,"time":26.87500000000016,"velocity":0.7322834645669292,"duration":0.10000000000000142},{"name":"A4","midi":69,"time":26.97500000000016,"velocity":0.7322834645669292,"duration":0.10000000000000142},{"name":"B4","midi":71,"time":27.077083333333498,"velocity":0.7322834645669292,"duration":0.09791666666666998},{"name":"D3","midi":50,"time":27.079166666666833,"velocity":0.7637795275590551,"duration":0.3000000000000078},{"name":"G#4","midi":68,"time":27.177083333333503,"velocity":0.7322834645669292,"duration":0.10000000000000142},{"name":"A4","midi":69,"time":27.27916666666684,"velocity":0.7322834645669292,"duration":0.09791666666666643},{"name":"C#5","midi":73,"time":27.37916666666684,"velocity":0.7322834645669292,"duration":0.10000000000000142},{"name":"E3","midi":52,"time":27.381250000000176,"velocity":0.7637795275590551,"duration":0.2979166666666728},{"name":"G#4","midi":68,"time":27.481250000000177,"velocity":0.7322834645669292,"duration":0.09791666666666643},{"name":"A4","midi":69,"time":27.58125000000018,"velocity":0.7322834645669292,"duration":0.09583333333333499},{"name":"D5","midi":74,"time":27.67916666666685,"velocity":0.7322834645669292,"duration":0.09791666666666998},{"name":"F#3","midi":54,"time":27.681250000000183,"velocity":0.7637795275590551,"duration":0.2979166666666728},{"name":"G#4","midi":68,"time":27.779166666666853,"velocity":0.7322834645669292,"duration":0.09791666666666643},{"name":"A4","midi":69,"time":27.879166666666855,"velocity":0.7322834645669292,"duration":0.09791666666666643},{"name":"E5","midi":76,"time":27.979166666666856,"velocity":0.7322834645669292,"duration":0.09791666666666998},{"name":"C#3","midi":49,"time":27.98125000000019,"velocity":0.7637795275590551,"duration":0.3000000000000078},{"name":"G#4","midi":68,"time":28.07916666666686,"velocity":0.7322834645669292,"duration":0.10000000000000142},{"name":"A4","midi":69,"time":28.181250000000198,"velocity":0.7322834645669292,"duration":0.09791666666666643},{"name":"F#5","midi":78,"time":28.2812500000002,"velocity":0.7322834645669292,"duration":0.09791666666666998},{"name":"B2","midi":47,"time":28.283333333333534,"velocity":0.7637795275590551,"duration":0.3020833333333428},{"name":"G#4","midi":68,"time":28.381250000000204,"velocity":0.7322834645669292,"duration":0.10000000000000142},{"name":"A4","midi":69,"time":28.48333333333354,"velocity":0.7322834645669292,"duration":0.10000000000000142},{"name":"G5","midi":79,"time":28.585416666666877,"velocity":0.7322834645669292,"duration":0.09791666666666998},{"name":"A2","midi":45,"time":28.58750000000021,"velocity":0.7637795275590551,"duration":0.3000000000000078},{"name":"E5","midi":76,"time":28.68541666666688,"velocity":0.7165354330708661,"duration":0.10000000000000142},{"name":"C#5","midi":73,"time":28.787500000000218,"velocity":0.7165354330708661,"duration":0.09791666666666643},{"name":"A4","midi":69,"time":28.88750000000022,"velocity":0.7165354330708661,"duration":0.09791666666666998},{"name":"C#3","midi":49,"time":28.889583333333555,"velocity":0.7637795275590551,"duration":0.30208333333333925},{"name":"C#5","midi":73,"time":28.987500000000225,"velocity":0.7165354330708661,"duration":0.10000000000000142},{"name":"E5","midi":76,"time":29.08958333333356,"velocity":0.7165354330708661,"duration":0.10208333333333286},{"name":"F#5","midi":78,"time":29.19375000000023,"velocity":0.7165354330708661,"duration":0.30416666666667425},{"name":"D3","midi":50,"time":29.19375000000023,"velocity":0.7637795275590551,"duration":0.10000000000000142},{"name":"F#3","midi":54,"time":29.29375000000023,"velocity":0.7637795275590551,"duration":0.10000000000000142},{"name":"A3","midi":57,"time":29.395833333333567,"velocity":0.7637795275590551,"duration":0.10000000000000142},{"name":"D4","midi":62,"time":29.497916666666903,"velocity":0.7637795275590551,"duration":0.10000000000000142},{"name":"A3","midi":57,"time":29.60000000000024,"velocity":0.7637795275590551,"duration":0.10000000000000142},{"name":"F#3","midi":54,"time":29.702083333333576,"velocity":0.7637795275590551,"duration":0.10000000000000142},{"name":"A5","midi":81,"time":29.804166666666912,"velocity":0.7165354330708661,"duration":0.09791666666666643},{"name":"D3","midi":50,"time":29.804166666666912,"velocity":0.7637795275590551,"duration":0.30625000000000213},{"name":"F#5","midi":78,"time":29.90208333333358,"velocity":0.7165354330708661,"duration":0.10208333333333286},{"name":"D5","midi":74,"time":30.006250000000247,"velocity":0.7165354330708661,"duration":0.10208333333333286},{"name":"C5","midi":72,"time":30.110416666666914,"velocity":0.7165354330708661,"duration":0.10208333333333286},{"name":"D4","midi":62,"time":30.110416666666914,"velocity":0.7637795275590551,"duration":0.3083333333333371},{"name":"D5","midi":74,"time":30.212500000000247,"velocity":0.7165354330708661,"duration":0.10208333333333286},{"name":"F#5","midi":78,"time":30.316666666666915,"velocity":0.7165354330708661,"duration":0.10000000000000142},{"name":"A5","midi":81,"time":30.41875000000025,"velocity":0.7165354330708661,"duration":0.30416666666667425},{"name":"D3","midi":50,"time":30.41875000000025,"velocity":0.7637795275590551,"duration":0.09791666666666643},{"name":"G3","midi":55,"time":30.518750000000253,"velocity":0.7637795275590551,"duration":0.10000000000000142},{"name":"B3","midi":59,"time":30.62083333333359,"velocity":0.7637795275590551,"duration":0.10000000000000142},{"name":"G5","midi":79,"time":30.722916666666926,"velocity":0.7165354330708661,"duration":0.30208333333333925},{"name":"D4","midi":62,"time":30.72500000000026,"velocity":0.7637795275590551,"duration":0.09791666666666643},{"name":"B3","midi":59,"time":30.825000000000262,"velocity":0.7637795275590551,"duration":0.10000000000000142},{"name":"G3","midi":55,"time":30.925000000000264,"velocity":0.7637795275590551,"duration":0.09791666666666643},{"name":"G5","midi":79,"time":31.025000000000265,"velocity":0.7165354330708661,"duration":0.09583333333333499},{"name":"D3","midi":50,"time":31.025000000000265,"velocity":0.7637795275590551,"duration":0.3000000000000078},{"name":"E5","midi":76,"time":31.122916666666935,"velocity":0.7165354330708661,"duration":0.10000000000000142},{"name":"C#5","midi":73,"time":31.22500000000027,"velocity":0.7165354330708661,"duration":0.10000000000000142},{"name":"A4","midi":69,"time":31.327083333333608,"velocity":0.7165354330708661,"duration":0.10000000000000142},{"name":"D4","midi":62,"time":31.327083333333608,"velocity":0.7637795275590551,"duration":0.30416666666666714},{"name":"C#5","midi":73,"time":31.42708333333361,"velocity":0.7165354330708661,"duration":0.10208333333333286},{"name":"E5","midi":76,"time":31.529166666666942,"velocity":0.7165354330708661,"duration":0.10208333333333286},{"name":"G5","midi":79,"time":31.63333333333361,"velocity":0.7165354330708661,"duration":0.30416666666666714},{"name":"D3","midi":50,"time":31.63333333333361,"velocity":0.7637795275590551,"duration":0.10000000000000142},{"name":"A3","midi":57,"time":31.73333333333361,"velocity":0.7637795275590551,"duration":0.10208333333333286},{"name":"C#4","midi":61,"time":31.835416666666944,"velocity":0.7637795275590551,"duration":0.10208333333333286},{"name":"F#5","midi":78,"time":31.939583333333612,"velocity":0.7322834645669292,"duration":0.30208333333333215},{"name":"D4","midi":62,"time":31.939583333333612,"velocity":0.7637795275590551,"duration":0.09791666666666643},{"name":"A3","midi":57,"time":32.03750000000028,"velocity":0.7637795275590551,"duration":0.10208333333333286},{"name":"F#3","midi":54,"time":32.13958333333361,"velocity":0.7637795275590551,"duration":0.10208333333333286},{"name":"F#5","midi":78,"time":32.243750000000276,"velocity":0.7322834645669292,"duration":0.09583333333333144},{"name":"D3","midi":50,"time":32.243750000000276,"velocity":0.7637795275590551,"duration":0.2958333333333343},{"name":"D5","midi":74,"time":32.33958333333361,"velocity":0.7322834645669292,"duration":0.10000000000000142},{"name":"B4","midi":71,"time":32.43958333333361,"velocity":0.7322834645669292,"duration":0.10000000000000142},{"name":"G4","midi":67,"time":32.54166666666694,"velocity":0.7637795275590551,"duration":0.09791666666666998},{"name":"D4","midi":62,"time":32.54166666666694,"velocity":0.7637795275590551,"duration":0.3020833333333357},{"name":"B4","midi":71,"time":32.63958333333361,"velocity":0.7322834645669292,"duration":0.1041666666666643},{"name":"D5","midi":74,"time":32.743750000000276,"velocity":0.7322834645669292,"duration":0.10000000000000142},{"name":"F#5","midi":78,"time":32.84583333333361,"velocity":0.7322834645669292,"duration":0.30416666666666714},{"name":"D3","midi":50,"time":32.84583333333361,"velocity":0.7637795275590551,"duration":0.10000000000000142},{"name":"E3","midi":52,"time":32.94583333333361,"velocity":0.7637795275590551,"duration":0.10208333333333286},{"name":"G3","midi":55,"time":33.04791666666694,"velocity":0.7637795275590551,"duration":0.10208333333333286},{"name":"E5","midi":76,"time":33.150000000000276,"velocity":0.7322834645669292,"duration":0.30416666666666714},{"name":"B3","midi":59,"time":33.15208333333361,"velocity":0.7637795275590551,"duration":0.09791666666666998},{"name":"G3","midi":55,"time":33.25208333333361,"velocity":0.7637795275590551,"duration":0.09791666666666998},{"name":"E3","midi":52,"time":33.35208333333361,"velocity":0.7637795275590551,"duration":0.10000000000000142},{"name":"E5","midi":76,"time":33.45416666666694,"velocity":0.7322834645669292,"duration":0.09583333333333144},{"name":"D3","midi":50,"time":33.456250000000274,"velocity":0.7637795275590551,"duration":0.2958333333333343},{"name":"C#5","midi":73,"time":33.552083333333606,"velocity":0.7322834645669292,"duration":0.09791666666666998},{"name":"A4","midi":69,"time":33.65208333333361,"velocity":0.7322834645669292,"duration":0.10000000000000142},{"name":"G4","midi":67,"time":33.75208333333361,"velocity":0.7637795275590551,"duration":0.10000000000000142},{"name":"D4","midi":62,"time":33.75416666666694,"velocity":0.7637795275590551,"duration":0.3020833333333357},{"name":"A4","midi":69,"time":33.85416666666694,"velocity":0.7322834645669292,"duration":0.10000000000000142},{"name":"C#5","midi":73,"time":33.956250000000274,"velocity":0.7322834645669292,"duration":0.09791666666666998},{"name":"E5","midi":76,"time":34.056250000000276,"velocity":0.7322834645669292,"duration":0.30833333333333},{"name":"D3","midi":50,"time":34.05833333333361,"velocity":0.7637795275590551,"duration":0.10000000000000142},{"name":"F#3","midi":54,"time":34.16041666666694,"velocity":0.7637795275590551,"duration":0.10000000000000142},{"name":"A3","midi":57,"time":34.26250000000027,"velocity":0.7637795275590551,"duration":0.10000000000000142},{"name":"D5","midi":74,"time":34.364583333333606,"velocity":0.7322834645669292,"duration":0.31041666666666146},{"name":"D4","midi":62,"time":34.36666666666694,"velocity":0.7637795275590551,"duration":0.10000000000000142},{"name":"A3","midi":57,"time":34.46666666666694,"velocity":0.7637795275590551,"duration":0.1041666666666643},{"name":"F#3","midi":54,"time":34.5708333333336,"velocity":0.7637795275590551,"duration":0.10208333333333286},{"name":"A3","midi":57,"time":34.67500000000027,"velocity":0.7637795275590551,"duration":0.10208333333333286},{"name":"F#3","midi":54,"time":34.77916666666693,"velocity":0.7637795275590551,"duration":0.10000000000000142},{"name":"D3","midi":50,"time":34.881250000000264,"velocity":0.7637795275590551,"duration":0.10208333333333286},{"name":"D5","midi":74,"time":34.98541666666693,"velocity":0.7322834645669292,"duration":0.30833333333333},{"name":"F#3","midi":54,"time":34.98541666666693,"velocity":0.7637795275590551,"duration":0.10208333333333286},{"name":"D3","midi":50,"time":35.08958333333359,"velocity":0.7637795275590551,"duration":0.10000000000000142},{"name":"C3","midi":48,"time":35.191666666666926,"velocity":0.7637795275590551,"duration":0.10000000000000142},{"name":"D5","midi":74,"time":35.29375000000026,"velocity":0.7322834645669292,"duration":0.10000000000000142},{"name":"B2","midi":47,"time":35.29375000000026,"velocity":0.7637795275590551,"duration":0.09791666666666998},{"name":"C5","midi":72,"time":35.39375000000026,"velocity":0.7322834645669292,"duration":0.10208333333333286},{"name":"D3","midi":50,"time":35.39583333333359,"velocity":0.7637795275590551,"duration":0.09791666666666998},{"name":"B4","midi":71,"time":35.49583333333359,"velocity":0.7322834645669292,"duration":0.08124999999999716},{"name":"F#3","midi":54,"time":35.497916666666924,"velocity":0.7637795275590551,"duration":0.09791666666666288},{"name":"B4","midi":71,"time":35.59791666666692,"velocity":0.7322834645669292,"duration":0.10000000000000142},{"name":"G3","midi":55,"time":35.59791666666692,"velocity":0.7637795275590551,"duration":0.09791666666666998},{"name":"A4","midi":69,"time":35.69791666666692,"velocity":0.7322834645669292,"duration":0.10208333333333286},{"name":"D3","midi":50,"time":35.70000000000025,"velocity":0.7637795275590551,"duration":0.09791666666666998},{"name":"G4","midi":67,"time":35.80000000000025,"velocity":0.7637795275590551,"duration":0.08124999999999716},{"name":"B2","midi":47,"time":35.80000000000025,"velocity":0.7637795275590551,"duration":0.09791666666666288},{"name":"G4","midi":67,"time":35.90000000000025,"velocity":0.7637795275590551,"duration":0.10000000000000142},{"name":"D3","midi":50,"time":35.90000000000025,"velocity":0.7637795275590551,"duration":0.09791666666666998},{"name":"B4","midi":71,"time":36.00000000000025,"velocity":0.7322834645669292,"duration":0.10000000000000142},{"name":"B2","midi":47,"time":36.00000000000025,"velocity":0.7637795275590551,"duration":0.10000000000000142},{"name":"D5","midi":74,"time":36.10208333333358,"velocity":0.7322834645669292,"duration":0.09791666666666998},{"name":"G2","midi":43,"time":36.10208333333358,"velocity":0.7637795275590551,"duration":0.09791666666666998},{"name":"F5","midi":77,"time":36.20208333333358,"velocity":0.7322834645669292,"duration":0.09791666666666998},{"name":"B2","midi":47,"time":36.20208333333358,"velocity":0.7637795275590551,"duration":0.09791666666666998},{"name":"E5","midi":76,"time":36.302083333333584,"velocity":0.7322834645669292,"duration":0.09791666666666998},{"name":"G2","midi":43,"time":36.302083333333584,"velocity":0.7637795275590551,"duration":0.09791666666666998},{"name":"D5","midi":74,"time":36.402083333333586,"velocity":0.7322834645669292,"duration":0.08124999999999716},{"name":"F2","midi":41,"time":36.402083333333586,"velocity":0.7637795275590551,"duration":0.09791666666666288},{"name":"D5","midi":74,"time":36.50000000000025,"velocity":0.7322834645669292,"duration":0.1041666666666643},{"name":"E2","midi":40,"time":36.50208333333358,"velocity":0.7637795275590551,"duration":0.10208333333333286},{"name":"E5","midi":76,"time":36.606250000000244,"velocity":0.7322834645669292,"duration":0.10000000000000142},{"name":"G2","midi":43,"time":36.606250000000244,"velocity":0.7637795275590551,"duration":0.10000000000000142},{"name":"F5","midi":77,"time":36.70833333333358,"velocity":0.7322834645669292,"duration":0.10000000000000142},{"name":"B2","midi":47,"time":36.70833333333358,"velocity":0.7637795275590551,"duration":0.10000000000000142},{"name":"E5","midi":76,"time":36.81041666666691,"velocity":0.7322834645669292,"duration":0.3062499999999986},{"name":"C3","midi":48,"time":36.81041666666691,"velocity":0.7637795275590551,"duration":0.10208333333333286},{"name":"E3","midi":52,"time":36.91250000000024,"velocity":0.7637795275590551,"duration":0.10208333333333286},{"name":"G3","midi":55,"time":37.014583333333576,"velocity":0.7637795275590551,"duration":0.10208333333333286},{"name":"C4","midi":60,"time":37.11875000000024,"velocity":0.7637795275590551,"duration":0.10208333333333286},{"name":"G3","midi":55,"time":37.22083333333357,"velocity":0.7637795275590551,"duration":0.10208333333333286},{"name":"E3","midi":52,"time":37.322916666666906,"velocity":0.7637795275590551,"duration":0.10208333333333286},{"name":"E5","midi":76,"time":37.42708333333357,"velocity":0.7322834645669292,"duration":0.30833333333333},{"name":"G3","midi":55,"time":37.42708333333357,"velocity":0.7637795275590551,"duration":0.10000000000000142},{"name":"E3","midi":52,"time":37.5291666666669,"velocity":0.7637795275590551,"duration":0.10000000000000142},{"name":"D3","midi":50,"time":37.631250000000236,"velocity":0.7637795275590551,"duration":0.10208333333333286},{"name":"E5","midi":76,"time":37.7354166666669,"velocity":0.7322834645669292,"duration":0.10208333333333286},{"name":"C#3","midi":49,"time":37.73750000000023,"velocity":0.7637795275590551,"duration":0.09791666666666998},{"name":"D5","midi":74,"time":37.83750000000023,"velocity":0.7322834645669292,"duration":0.10208333333333286},{"name":"E3","midi":52,"time":37.839583333333564,"velocity":0.7637795275590551,"duration":0.09791666666666998},{"name":"C#5","midi":73,"time":37.939583333333566,"velocity":0.7322834645669292,"duration":0.0833333333333286},{"name":"G3","midi":55,"time":37.9416666666669,"velocity":0.7637795275590551,"duration":0.09583333333333144},{"name":"C#5","midi":73,"time":38.03958333333356,"velocity":0.7322834645669292,"duration":0.10208333333333286},{"name":"A3","midi":57,"time":38.03958333333356,"velocity":0.7637795275590551,"duration":0.10000000000000142},{"name":"B4","midi":71,"time":38.14166666666689,"velocity":0.7322834645669292,"duration":0.10208333333333286},{"name":"E3","midi":52,"time":38.143750000000225,"velocity":0.7637795275590551,"duration":0.09791666666666998},{"name":"A4","midi":69,"time":38.243750000000226,"velocity":0.7322834645669292,"duration":0.08124999999999716},{"name":"C#3","midi":49,"time":38.24583333333356,"velocity":0.7637795275590551,"duration":0.09583333333333144},{"name":"A4","midi":69,"time":38.34375000000022,"velocity":0.7322834645669292,"duration":0.10208333333333286},{"name":"E3","midi":52,"time":38.34375000000022,"velocity":0.7637795275590551,"duration":0.10000000000000142},{"name":"C#5","midi":73,"time":38.44583333333355,"velocity":0.7322834645669292,"duration":0.10208333333333286},{"name":"C#3","midi":49,"time":38.447916666666885,"velocity":0.7637795275590551,"duration":0.09791666666666998},{"name":"E5","midi":76,"time":38.547916666666886,"velocity":0.7322834645669292,"duration":0.10208333333333286},{"name":"A2","midi":45,"time":38.55000000000022,"velocity":0.7637795275590551,"duration":0.09791666666666998},{"name":"G5","midi":79,"time":38.65000000000022,"velocity":0.7322834645669292,"duration":0.10000000000000142},{"name":"C#3","midi":49,"time":38.65000000000022,"velocity":0.7637795275590551,"duration":0.09791666666666998},{"name":"F#5","midi":78,"time":38.75000000000022,"velocity":0.7322834645669292,"duration":0.10000000000000142},{"name":"A2","midi":45,"time":38.75000000000022,"velocity":0.7637795275590551,"duration":0.10000000000000142},{"name":"E5","midi":76,"time":38.85208333333355,"velocity":0.7322834645669292,"duration":0.08124999999999716},{"name":"G2","midi":43,"time":38.85208333333355,"velocity":0.7637795275590551,"duration":0.09791666666666288},{"name":"E5","midi":76,"time":38.950000000000216,"velocity":0.7322834645669292,"duration":0.10000000000000142},{"name":"F#2","midi":42,"time":38.95208333333355,"velocity":0.7637795275590551,"duration":0.09791666666666998},{"name":"F#5","midi":78,"time":39.05208333333355,"velocity":0.7322834645669292,"duration":0.10208333333333286},{"name":"A2","midi":45,"time":39.05208333333355,"velocity":0.7637795275590551,"duration":0.10208333333333286},{"name":"G5","midi":79,"time":39.15625000000021,"velocity":0.7322834645669292,"duration":0.10000000000000142},{"name":"C#3","midi":49,"time":39.15625000000021,"velocity":0.7637795275590551,"duration":0.10000000000000142},{"name":"F#5","midi":78,"time":39.258333333333546,"velocity":0.7322834645669292,"duration":0.31041666666666146},{"name":"D3","midi":50,"time":39.258333333333546,"velocity":0.7637795275590551,"duration":0.10000000000000142},{"name":"F#3","midi":54,"time":39.36041666666688,"velocity":0.7637795275590551,"duration":0.10208333333333286},{"name":"A3","midi":57,"time":39.46250000000021,"velocity":0.7637795275590551,"duration":0.1041666666666643},{"name":"D4","midi":62,"time":39.56875000000021,"velocity":0.7637795275590551,"duration":0.10000000000000142},{"name":"A3","midi":57,"time":39.67083333333354,"velocity":0.7637795275590551,"duration":0.10000000000000142},{"name":"F#3","midi":54,"time":39.77083333333354,"velocity":0.7637795275590551,"duration":0.1041666666666643},{"name":"A5","midi":81,"time":39.875000000000206,"velocity":0.7322834645669292,"duration":0.30833333333333},{"name":"A3","midi":57,"time":39.87708333333354,"velocity":0.7637795275590551,"duration":0.10000000000000142},{"name":"F#3","midi":54,"time":39.97708333333354,"velocity":0.7637795275590551,"duration":0.10208333333333286},{"name":"D3","midi":50,"time":40.07916666666687,"velocity":0.7637795275590551,"duration":0.1041666666666643},{"name":"A5","midi":81,"time":40.18541666666687,"velocity":0.7322834645669292,"duration":0.10000000000000142},{"name":"F#3","midi":54,"time":40.18541666666687,"velocity":0.7637795275590551,"duration":0.10000000000000142},{"name":"G5","midi":79,"time":40.2875000000002,"velocity":0.7322834645669292,"duration":0.09791666666666998},{"name":"D3","midi":50,"time":40.2875000000002,"velocity":0.7637795275590551,"duration":0.09791666666666998},{"name":"F#5","midi":78,"time":40.3875000000002,"velocity":0.7322834645669292,"duration":0.08124999999999716},{"name":"A2","midi":45,"time":40.3875000000002,"velocity":0.7637795275590551,"duration":0.09999999999999432},{"name":"F#5","midi":78,"time":40.487500000000196,"velocity":0.7322834645669292,"duration":0.10208333333333286},{"name":"D3","midi":50,"time":40.48958333333353,"velocity":0.7637795275590551,"duration":0.10000000000000142},{"name":"E5","midi":76,"time":40.59166666666686,"velocity":0.7322834645669292,"duration":0.09791666666666998},{"name":"A2","midi":45,"time":40.59166666666686,"velocity":0.7637795275590551,"duration":0.09791666666666998},{"name":"D5","midi":74,"time":40.69166666666686,"velocity":0.7322834645669292,"duration":0.08124999999999716},{"name":"F#2","midi":42,"time":40.69166666666686,"velocity":0.7637795275590551,"duration":0.09999999999999432},{"name":"D5","midi":74,"time":40.791666666666856,"velocity":0.7322834645669292,"duration":0.10208333333333286},{"name":"D2","midi":38,"time":40.79375000000019,"velocity":0.7637795275590551,"duration":0.3020833333333357},{"name":"F#5","midi":78,"time":40.89375000000019,"velocity":0.7322834645669292,"duration":0.10000000000000142},{"name":"A5","midi":81,"time":40.99375000000019,"velocity":0.7322834645669292,"duration":0.10208333333333286},{"name":"C6","midi":84,"time":41.097916666666855,"velocity":0.7322834645669292,"duration":0.10000000000000142},{"name":"D3","midi":50,"time":41.097916666666855,"velocity":0.7637795275590551,"duration":0.3020833333333357},{"name":"B5","midi":83,"time":41.197916666666856,"velocity":0.7322834645669292,"duration":0.10000000000000142},{"name":"A5","midi":81,"time":41.29791666666686,"velocity":0.7322834645669292,"duration":0.08541666666666714},{"name":"A5","midi":81,"time":41.40000000000019,"velocity":0.7322834645669292,"duration":0.10000000000000142},{"name":"G2","midi":43,"time":41.40000000000019,"velocity":0.7637795275590551,"duration":0.3958333333333428},{"name":"B5","midi":83,"time":41.50000000000019,"velocity":0.7322834645669292,"duration":0.10000000000000142},{"name":"C6","midi":84,"time":41.60000000000019,"velocity":0.7322834645669292,"duration":0.09791666666666998},{"name":"B5","midi":83,"time":41.69791666666686,"velocity":0.7322834645669292,"duration":0.39166666666667993},{"name":"B2","midi":47,"time":41.79583333333353,"velocity":0.7637795275590551,"duration":0.09791666666666998},{"name":"D3","midi":50,"time":41.8937500000002,"velocity":0.7637795275590551,"duration":0.09791666666666998},{"name":"G3","midi":55,"time":41.99166666666687,"velocity":0.7637795275590551,"duration":0.09791666666666998},{"name":"A5","midi":81,"time":42.091666666666875,"velocity":0.6614173228346457,"duration":0.09791666666666998},{"name":"A3","midi":57,"time":42.091666666666875,"velocity":0.7637795275590551,"duration":0.09791666666666998},{"name":"G5","midi":79,"time":42.191666666666876,"velocity":0.6614173228346457,"duration":0.09999999999999432},{"name":"B3","midi":59,"time":42.191666666666876,"velocity":0.7637795275590551,"duration":0.08124999999999716},{"name":"F5","midi":77,"time":42.29166666666687,"velocity":0.7322834645669292,"duration":0.10000000000000142},{"name":"B3","midi":59,"time":42.2937500000002,"velocity":0.7637795275590551,"duration":0.09791666666666998},{"name":"E5","midi":76,"time":42.3937500000002,"velocity":0.7322834645669292,"duration":0.10000000000000142},{"name":"C4","midi":60,"time":42.3937500000002,"velocity":0.7637795275590551,"duration":0.10000000000000142},{"name":"D5","midi":74,"time":42.495833333333536,"velocity":0.7322834645669292,"duration":0.09791666666666998},{"name":"D4","midi":62,"time":42.495833333333536,"velocity":0.7637795275590551,"duration":0.09791666666666998},{"name":"C5","midi":72,"time":42.59583333333354,"velocity":0.7322834645669292,"duration":0.09791666666666998},{"name":"E4","midi":64,"time":42.59583333333354,"velocity":0.7637795275590551,"duration":0.30000000000000426},{"name":"E5","midi":76,"time":42.69375000000021,"velocity":0.7322834645669292,"duration":0.10000000000000142},{"name":"G5","midi":79,"time":42.79375000000021,"velocity":0.6614173228346457,"duration":0.10208333333333286},{"name":"A5","midi":81,"time":42.89791666666687,"velocity":0.6614173228346457,"duration":0.09791666666666998},{"name":"C4","midi":60,"time":42.89791666666687,"velocity":0.7637795275590551,"duration":0.09791666666666998},{"name":"F#5","midi":78,"time":42.997916666666875,"velocity":0.6614173228346457,"duration":0.09791666666666998},{"name":"A3","midi":57,"time":42.997916666666875,"velocity":0.7637795275590551,"duration":0.10208333333333286},{"name":"D5","midi":74,"time":43.095833333333545,"velocity":0.7322834645669292,"duration":0.09999999999999432},{"name":"F#3","midi":54,"time":43.097916666666876,"velocity":0.7637795275590551,"duration":0.10208333333332575},{"name":"B4","midi":71,"time":43.19583333333354,"velocity":0.7322834645669292,"duration":0.09791666666666288},{"name":"D4","midi":62,"time":43.19791666666687,"velocity":0.7637795275590551,"duration":0.2958333333333343},{"name":"D5","midi":74,"time":43.2937500000002,"velocity":0.7322834645669292,"duration":0.10000000000000142},{"name":"F#5","midi":78,"time":43.3937500000002,"velocity":0.6614173228346457,"duration":0.10000000000000142},{"name":"G5","midi":79,"time":43.495833333333536,"velocity":0.6614173228346457,"duration":0.09583333333333144},{"name":"B3","midi":59,"time":43.495833333333536,"velocity":0.7637795275590551,"duration":0.09999999999999432},{"name":"E5","midi":76,"time":43.59166666666687,"velocity":0.7322834645669292,"duration":0.09999999999999432},{"name":"G3","midi":55,"time":43.5937500000002,"velocity":0.7637795275590551,"duration":0.10208333333332575},{"name":"C5","midi":72,"time":43.69166666666686,"velocity":0.7322834645669292,"duration":0.09999999999999432},{"name":"E3","midi":52,"time":43.69375000000019,"velocity":0.7637795275590551,"duration":0.10208333333332575},{"name":"A4","midi":69,"time":43.791666666666856,"velocity":0.7322834645669292,"duration":0.1041666666666643},{"name":"C4","midi":60,"time":43.79375000000019,"velocity":0.7637795275590551,"duration":0.28958333333332575},{"name":"C5","midi":72,"time":43.88750000000019,"velocity":0.7322834645669292,"duration":0.10624999999999574},{"name":"E5","midi":76,"time":43.98541666666685,"velocity":0.7322834645669292,"duration":0.10624999999999574},{"name":"F#5","midi":78,"time":44.085416666666845,"velocity":0.6614173228346457,"duration":0.1041666666666643},{"name":"A3","midi":57,"time":44.085416666666845,"velocity":0.7637795275590551,"duration":0.09583333333333144},{"name":"D5","midi":74,"time":44.18333333333351,"velocity":0.7322834645669292,"duration":0.10208333333333286},{"name":"F#3","midi":54,"time":44.18333333333351,"velocity":0.7637795275590551,"duration":0.09791666666666288},{"name":"B4","midi":71,"time":44.27708333333351,"velocity":0.7322834645669292,"duration":0.09791666666666288},{"name":"D3","midi":50,"time":44.27916666666684,"velocity":0.7637795275590551,"duration":0.09999999999999432},{"name":"G4","midi":67,"time":44.3770833333335,"velocity":0.7637795275590551,"duration":0.10624999999999574},{"name":"B3","midi":59,"time":44.3770833333335,"velocity":0.7637795275590551,"duration":0.29999999999999716},{"name":"B4","midi":71,"time":44.47291666666683,"velocity":0.7322834645669292,"duration":0.09791666666666288},{"name":"D5","midi":74,"time":44.570833333333496,"velocity":0.7322834645669292,"duration":0.09791666666666998},{"name":"E5","midi":76,"time":44.668750000000166,"velocity":0.7322834645669292,"duration":0.1041666666666643},{"name":"G3","midi":55,"time":44.6708333333335,"velocity":0.7637795275590551,"duration":0.09583333333333144},{"name":"C5","midi":72,"time":44.7645833333335,"velocity":0.7322834645669292,"duration":0.10624999999999574},{"name":"E3","midi":52,"time":44.76666666666683,"velocity":0.7637795275590551,"duration":0.09791666666666288},{"name":"A4","midi":69,"time":44.86250000000016,"velocity":0.7322834645669292,"duration":0.1041666666666643},{"name":"C3","midi":48,"time":44.86250000000016,"velocity":0.7637795275590551,"duration":0.09583333333333144},{"name":"F#4","midi":66,"time":44.96041666666682,"velocity":0.7637795275590551,"duration":0.1041666666666643},{"name":"A3","midi":57,"time":44.96041666666682,"velocity":0.7637795275590551,"duration":0.2979166666666657},{"name":"A4","midi":69,"time":45.05416666666682,"velocity":0.7322834645669292,"duration":0.09791666666666288},{"name":"C5","midi":72,"time":45.152083333333486,"velocity":0.7322834645669292,"duration":0.1041666666666714},{"name":"D5","midi":74,"time":45.250000000000156,"velocity":0.7322834645669292,"duration":0.10208333333333286},{"name":"F#3","midi":54,"time":45.250000000000156,"velocity":0.7637795275590551,"duration":0.09791666666666288},{"name":"B4","midi":71,"time":45.34583333333349,"velocity":0.7322834645669292,"duration":0.1041666666666714},{"name":"D3","midi":50,"time":45.34583333333349,"velocity":0.7637795275590551,"duration":0.10000000000000142},{"name":"G4","midi":67,"time":45.44375000000016,"velocity":0.7637795275590551,"duration":0.09999999999999432},{"name":"B2","midi":47,"time":45.44375000000016,"velocity":0.7637795275590551,"duration":0.09583333333333144},{"name":"E4","midi":64,"time":45.54166666666682,"velocity":0.7637795275590551,"duration":0.09791666666666288},{"name":"G3","midi":55,"time":45.54166666666682,"velocity":0.7637795275590551,"duration":0.29374999999999574},{"name":"G4","midi":67,"time":45.63750000000015,"velocity":0.7637795275590551,"duration":0.09999999999999432},{"name":"B4","midi":71,"time":45.735416666666815,"velocity":0.7322834645669292,"duration":0.10625000000000284},{"name":"C5","midi":72,"time":45.835416666666816,"velocity":0.7322834645669292,"duration":0.1041666666666643},{"name":"E3","midi":52,"time":45.83750000000015,"velocity":0.7637795275590551,"duration":0.09166666666666856},{"name":"A4","midi":69,"time":45.93125000000015,"velocity":0.7322834645669292,"duration":0.09791666666666288},{"name":"C3","midi":48,"time":45.93333333333348,"velocity":0.7637795275590551,"duration":0.09375},{"name":"F#4","midi":66,"time":46.02916666666681,"velocity":0.7637795275590551,"duration":0.09999999999999432},{"name":"A2","midi":45,"time":46.03125000000014,"velocity":0.7637795275590551,"duration":0.09375},{"name":"D4","midi":62,"time":46.12708333333347,"velocity":0.7637795275590551,"duration":0.09791666666666288},{"name":"F#3","midi":54,"time":46.12708333333347,"velocity":0.7637795275590551,"duration":0.2916666666666643},{"name":"F#4","midi":66,"time":46.225000000000136,"velocity":0.7637795275590551,"duration":0.10000000000000142},{"name":"A4","midi":69,"time":46.32083333333347,"velocity":0.7322834645669292,"duration":0.09791666666666998},{"name":"B4","midi":71,"time":46.42083333333347,"velocity":0.7322834645669292,"duration":0.09583333333333144},{"name":"D3","midi":50,"time":46.42083333333347,"velocity":0.7637795275590551,"duration":0.09583333333333144},{"name":"G4","midi":67,"time":46.51875000000013,"velocity":0.7637795275590551,"duration":0.09999999999999432},{"name":"B2","midi":47,"time":46.51875000000013,"velocity":0.7637795275590551,"duration":0.09583333333333144},{"name":"E4","midi":64,"time":46.614583333333464,"velocity":0.7637795275590551,"duration":0.09999999999999432},{"name":"G2","midi":43,"time":46.616666666666795,"velocity":0.7637795275590551,"duration":0.09375},{"name":"C4","midi":60,"time":46.710416666666795,"velocity":0.7637795275590551,"duration":0.10208333333332575},{"name":"E3","midi":52,"time":46.71250000000013,"velocity":0.7637795275590551,"duration":0.09583333333333144},{"name":"E4","midi":64,"time":46.80833333333346,"velocity":0.7637795275590551,"duration":0.10208333333332575},{"name":"C3","midi":48,"time":46.81041666666679,"velocity":0.7637795275590551,"duration":0.09583333333333144},{"name":"G4","midi":67,"time":46.90625000000012,"velocity":0.7637795275590551,"duration":0.10208333333332575},{"name":"A2","midi":45,"time":46.90833333333345,"velocity":0.7637795275590551,"duration":0.09583333333333144},{"name":"A4","midi":69,"time":47.004166666666784,"velocity":0.7322834645669292,"duration":0.09791666666666288},{"name":"F#3","midi":54,"time":47.006250000000115,"velocity":0.7637795275590551,"duration":0.09583333333333144},{"name":"F#4","midi":66,"time":47.10416666666678,"velocity":0.7637795275590551,"duration":0.09999999999999432},{"name":"D3","midi":50,"time":47.10416666666678,"velocity":0.7637795275590551,"duration":0.09583333333333144},{"name":"D4","midi":62,"time":47.20000000000011,"velocity":0.7637795275590551,"duration":0.09999999999999432},{"name":"B2","midi":47,"time":47.20208333333344,"velocity":0.7637795275590551,"duration":0.09375},{"name":"G3","midi":55,"time":47.29791666666677,"velocity":0.7637795275590551,"duration":0.2854166666666629},{"name":"B3","midi":59,"time":47.29791666666677,"velocity":0.7637795275590551,"duration":0.09583333333333144},{"name":"D4","midi":62,"time":47.39166666666677,"velocity":0.7637795275590551,"duration":0.10208333333333286},{"name":"F#4","midi":66,"time":47.487500000000104,"velocity":0.7637795275590551,"duration":0.09375},{"name":"G4","midi":67,"time":47.583333333333435,"velocity":0.7637795275590551,"duration":0.09791666666666288},{"name":"E3","midi":52,"time":47.58541666666677,"velocity":0.7637795275590551,"duration":0.2916666666666643},{"name":"E4","midi":64,"time":47.68333333333343,"velocity":0.7637795275590551,"duration":0.10000000000000142},{"name":"C4","midi":60,"time":47.77916666666676,"velocity":0.7637795275590551,"duration":0.10208333333333286},{"name":"A3","midi":57,"time":47.87916666666676,"velocity":0.7637795275590551,"duration":0.1041666666666714},{"name":"C3","midi":48,"time":47.87916666666676,"velocity":0.7637795275590551,"duration":0.30416666666666714},{"name":"C4","midi":60,"time":47.979166666666764,"velocity":0.7637795275590551,"duration":0.10208333333333286},{"name":"E4","midi":64,"time":48.079166666666765,"velocity":0.7637795275590551,"duration":0.10208333333333286},{"name":"F#4","midi":66,"time":48.18333333333343,"velocity":0.7637795275590551,"duration":0.1041666666666643},{"name":"D3","midi":50,"time":48.18541666666676,"velocity":0.7637795275590551,"duration":0.33541666666666003},{"name":"D4","midi":62,"time":48.28541666666676,"velocity":0.7637795275590551,"duration":0.1041666666666643},{"name":"C4","midi":60,"time":48.39166666666676,"velocity":0.7637795275590551,"duration":0.11041666666666572},{"name":"G4","midi":67,"time":48.49791666666676,"velocity":0.5748031496062992,"duration":1.937499999999993},{"name":"B3","midi":59,"time":48.50000000000009,"velocity":0.5748031496062992,"duration":1.93333333333333},{"name":"D4","midi":62,"time":48.50000000000009,"velocity":0.5748031496062992,"duration":1.93333333333333},{"name":"G2","midi":43,"time":48.50000000000009,"velocity":0.6929133858267716,"duration":1.93333333333333},{"name":"G4","midi":67,"time":51.63541666666676,"velocity":0.7007874015748031,"duration":0.25416666666667},{"name":"A4","midi":69,"time":51.88958333333343,"velocity":0.7007874015748031,"duration":0.11874999999999858},{"name":"G4","midi":67,"time":52.01041666666676,"velocity":0.7007874015748031,"duration":0.11666666666666714},{"name":"F#4","midi":66,"time":52.127083333333424,"velocity":0.7007874015748031,"duration":0.11666666666666714},{"name":"G4","midi":67,"time":52.24375000000009,"velocity":0.7007874015748031,"duration":0.11041666666666572},{"name":"A4","midi":69,"time":52.35625000000009,"velocity":0.7007874015748031,"duration":0.22708333333333286},{"name":"B4","midi":71,"time":52.58333333333342,"velocity":0.7007874015748031,"duration":0.11249999999999716},{"name":"A4","midi":69,"time":52.69583333333342,"velocity":0.7007874015748031,"duration":0.11041666666666572},{"name":"G4","midi":67,"time":52.808333333333415,"velocity":0.7007874015748031,"duration":0.11249999999999716},{"name":"A4","midi":69,"time":52.922916666666744,"velocity":0.7007874015748031,"duration":0.11041666666666572},{"name":"B4","midi":71,"time":53.03333333333341,"velocity":0.7007874015748031,"duration":0.22500000000000142},{"name":"A4","midi":69,"time":53.26041666666674,"velocity":0.7007874015748031,"duration":0.2291666666666643},{"name":"G4","midi":67,"time":53.48958333333341,"velocity":0.7007874015748031,"duration":0.2291666666666643},{"name":"D4","midi":62,"time":53.71875000000007,"velocity":0.7007874015748031,"duration":0.22708333333333286},{"name":"C5","midi":72,"time":53.945833333333404,"velocity":0.7007874015748031,"duration":0.48125000000000284},{"name":"B4","midi":71,"time":54.42708333333341,"velocity":0.7007874015748031,"duration":0.2291666666666643},{"name":"A4","midi":69,"time":54.65625000000007,"velocity":0.7007874015748031,"duration":0.22500000000000142},{"name":"G4","midi":67,"time":54.883333333333404,"velocity":0.6929133858267716,"duration":0.2291666666666643},{"name":"F#4","midi":66,"time":55.11250000000007,"velocity":0.6929133858267716,"duration":0.23125000000000284},{"name":"E5","midi":76,"time":55.3458333333334,"velocity":0.6535433070866141,"duration":0.4583333333333357},{"name":"D5","midi":74,"time":55.80416666666674,"velocity":0.7007874015748031,"duration":0.22291666666666998},{"name":"E5","midi":76,"time":56.02916666666674,"velocity":0.6535433070866141,"duration":0.11041666666666572},{"name":"D5","midi":74,"time":56.14166666666674,"velocity":0.7007874015748031,"duration":0.11041666666666572},{"name":"C5","midi":72,"time":56.2520833333334,"velocity":0.7007874015748031,"duration":0.1145833333333357},{"name":"B4","midi":71,"time":56.36666666666674,"velocity":0.7007874015748031,"duration":0.11249999999999716},{"name":"A4","midi":69,"time":56.48125000000007,"velocity":0.7007874015748031,"duration":0.22500000000000142},{"name":"C5","midi":72,"time":56.70625000000007,"velocity":0.7165354330708661,"duration":0.11249999999999716},{"name":"B4","midi":71,"time":56.818750000000065,"velocity":0.7165354330708661,"duration":0.11041666666666572},{"name":"A4","midi":69,"time":56.93125000000006,"velocity":0.7165354330708661,"duration":0.11249999999999716},{"name":"G4","midi":67,"time":57.04583333333339,"velocity":0.7086614173228346,"duration":0.11041666666666572},{"name":"F#4","midi":66,"time":57.15625000000006,"velocity":0.7086614173228346,"duration":0.22708333333333286},{"name":"D4","midi":62,"time":57.15833333333339,"velocity":0.7086614173228346,"duration":0.22291666666666998},{"name":"G4","midi":67,"time":57.38333333333339,"velocity":0.7086614173228346,"duration":0.22291666666666288},{"name":"E4","midi":64,"time":57.38541666666672,"velocity":0.7086614173228346,"duration":0.10833333333333428},{"name":"D4","midi":62,"time":57.49583333333339,"velocity":0.7322834645669292,"duration":0.11041666666666572},{"name":"A4","midi":69,"time":57.608333333333384,"velocity":0.7322834645669292,"duration":0.22291666666666288},{"name":"C#4","midi":61,"time":57.608333333333384,"velocity":0.7322834645669292,"duration":0.11041666666666572},{"name":"D4","midi":62,"time":57.71875000000005,"velocity":0.7322834645669292,"duration":0.11041666666666572},{"name":"G4","midi":67,"time":57.83125000000005,"velocity":0.7322834645669292,"duration":0.22291666666666288},{"name":"E4","midi":64,"time":57.83333333333338,"velocity":0.7322834645669292,"duration":0.22083333333333144},{"name":"A4","midi":69,"time":58.05625000000004,"velocity":0.7165354330708661,"duration":0.22291666666666288},{"name":"F#4","midi":66,"time":58.05625000000004,"velocity":0.7322834645669292,"duration":0.10833333333333428},{"name":"E4","midi":64,"time":58.164583333333375,"velocity":0.7322834645669292,"duration":0.11249999999999716},{"name":"B4","midi":71,"time":58.279166666666704,"velocity":0.7165354330708661,"duration":0.22708333333332575},{"name":"D4","midi":62,"time":58.281250000000036,"velocity":0.7322834645669292,"duration":0.11041666666666572},{"name":"E4","midi":64,"time":58.39375000000003,"velocity":0.7322834645669292,"duration":0.11249999999999716},{"name":"A4","midi":69,"time":58.50833333333336,"velocity":0.7165354330708661,"duration":0.22291666666666998},{"name":"F#4","midi":66,"time":58.50833333333336,"velocity":0.7322834645669292,"duration":0.22291666666666998},{"name":"B4","midi":71,"time":58.73125000000003,"velocity":0.7165354330708661,"duration":0.11249999999999716},{"name":"E4","midi":64,"time":58.73333333333336,"velocity":0.7322834645669292,"duration":0.22291666666666288},{"name":"C#5","midi":73,"time":58.84375000000003,"velocity":0.7165354330708661,"duration":0.11041666666666572},{"name":"D5","midi":74,"time":58.956250000000026,"velocity":0.7165354330708661,"duration":0.11249999999999716},{"name":"D4","midi":62,"time":58.956250000000026,"velocity":0.7322834645669292,"duration":0.22499999999999432},{"name":"B4","midi":71,"time":59.070833333333354,"velocity":0.7165354330708661,"duration":0.11041666666666572},{"name":"C#5","midi":73,"time":59.18333333333335,"velocity":0.7165354330708661,"duration":0.11249999999999716},{"name":"A3","midi":57,"time":59.18333333333335,"velocity":0.7322834645669292,"duration":0.22708333333332575},{"name":"B4","midi":71,"time":59.29791666666668,"velocity":0.7165354330708661,"duration":0.11041666666666572},{"name":"C#5","midi":73,"time":59.41041666666668,"velocity":0.7165354330708661,"duration":0.11249999999999716},{"name":"G4","midi":67,"time":59.41250000000001,"velocity":0.7322834645669292,"duration":0.4541666666666586},{"name":"D5","midi":74,"time":59.522916666666674,"velocity":0.7165354330708661,"duration":0.1145833333333357},{"name":"E5","midi":76,"time":59.63750000000001,"velocity":0.6692913385826772,"duration":0.11249999999999716},{"name":"C#5","midi":73,"time":59.75208333333334,"velocity":0.7165354330708661,"duration":0.11249999999999716},{"name":"D5","midi":74,"time":59.86666666666667,"velocity":0.7165354330708661,"duration":0.11041666666666572},{"name":"F#4","midi":66,"time":59.86875,"velocity":0.7322834645669292,"duration":0.22083333333333144},{"name":"C#5","midi":73,"time":59.97708333333333,"velocity":0.7165354330708661,"duration":0.11249999999999716},{"name":"D5","midi":74,"time":60.09166666666666,"velocity":0.7007874015748031,"duration":0.11041666666666572},{"name":"E4","midi":64,"time":60.09166666666666,"velocity":0.7322834645669292,"duration":0.22499999999999432},{"name":"E5","midi":76,"time":60.20416666666666,"velocity":0.6535433070866141,"duration":0.11041666666666572},{"name":"F#5","midi":78,"time":60.316666666666656,"velocity":0.6535433070866141,"duration":0.11249999999999716},{"name":"D4","midi":62,"time":60.31874999999999,"velocity":0.7322834645669292,"duration":0.22291666666666288},{"name":"D5","midi":74,"time":60.42916666666665,"velocity":0.7007874015748031,"duration":0.11249999999999716},{"name":"E5","midi":76,"time":60.54374999999998,"velocity":0.6535433070866141,"duration":0.10833333333333428},{"name":"C#4","midi":61,"time":60.54374999999998,"velocity":0.7322834645669292,"duration":0.22499999999999432},{"name":"D5","midi":74,"time":60.65416666666665,"velocity":0.7007874015748031,"duration":0.11249999999999716},{"name":"E5","midi":76,"time":60.768749999999976,"velocity":0.6535433070866141,"duration":0.11041666666666572},{"name":"B4","midi":71,"time":60.77083333333331,"velocity":0.7007874015748031,"duration":0.4479166666666643},{"name":"F#5","midi":78,"time":60.87916666666664,"velocity":0.6535433070866141,"duration":0.1145833333333357},{"name":"G5","midi":79,"time":60.99374999999998,"velocity":0.6535433070866141,"duration":0.11041666666666572},{"name":"E5","midi":76,"time":61.106249999999974,"velocity":0.6535433070866141,"duration":0.11041666666666572},{"name":"F#5","midi":78,"time":61.21874999999997,"velocity":0.6535433070866141,"duration":0.22291666666666288},{"name":"A4","midi":69,"time":61.2208333333333,"velocity":0.7007874015748031,"duration":0.22083333333333144},{"name":"B4","midi":71,"time":61.443749999999966,"velocity":0.7007874015748031,"duration":0.10833333333333428},{"name":"G5","midi":79,"time":61.443749999999966,"velocity":0.6535433070866141,"duration":0.11041666666666572},{"name":"F#5","midi":78,"time":61.55416666666663,"velocity":0.6535433070866141,"duration":0.11249999999999716},{"name":"A4","midi":69,"time":61.55624999999996,"velocity":0.7007874015748031,"duration":0.10833333333333428},{"name":"E5","midi":76,"time":61.66666666666663,"velocity":0.6535433070866141,"duration":0.11041666666666572},{"name":"G4","midi":67,"time":61.66874999999996,"velocity":0.7637795275590551,"duration":0.10833333333333428},{"name":"D5","midi":74,"time":61.779166666666626,"velocity":0.7007874015748031,"duration":0.11041666666666572},{"name":"F#4","midi":66,"time":61.779166666666626,"velocity":0.7637795275590551,"duration":0.11041666666666572},{"name":"G5","midi":79,"time":61.89166666666662,"velocity":0.6535433070866141,"duration":0.7833333333333172},{"name":"E4","midi":64,"time":61.89166666666662,"velocity":0.7637795275590551,"duration":0.22083333333333144},{"name":"G4","midi":67,"time":62.114583333333286,"velocity":0.7637795275590551,"duration":0.11041666666666572},{"name":"F#4","midi":66,"time":62.22499999999995,"velocity":0.7637795275590551,"duration":0.11249999999999716},{"name":"E4","midi":64,"time":62.33749999999995,"velocity":0.7637795275590551,"duration":0.11249999999999716},{"name":"D4","midi":62,"time":62.449999999999946,"velocity":0.7637795275590551,"duration":0.11041666666666572},{"name":"C#4","midi":61,"time":62.56249999999994,"velocity":0.7637795275590551,"duration":0.22708333333333286},{"name":"F#5","midi":78,"time":62.67499999999994,"velocity":0.6535433070866141,"duration":0.1145833333333357},{"name":"E5","midi":76,"time":62.79166666666661,"velocity":0.6535433070866141,"duration":0.11249999999999716},{"name":"G4","midi":67,"time":62.79166666666661,"velocity":0.7637795275590551,"duration":0.2291666666666572},{"name":"G5","midi":79,"time":62.906249999999936,"velocity":0.6535433070866141,"duration":0.11249999999999716},{"name":"D5","midi":74,"time":63.020833333333265,"velocity":0.7007874015748031,"duration":0.11249999999999716},{"name":"F#4","midi":66,"time":63.022916666666596,"velocity":0.7637795275590551,"duration":0.22500000000000142},{"name":"G5","midi":79,"time":63.13333333333326,"velocity":0.6535433070866141,"duration":0.1145833333333357},{"name":"C#5","midi":73,"time":63.24999999999993,"velocity":0.7007874015748031,"duration":0.11249999999999716},{"name":"E4","midi":64,"time":63.24999999999993,"velocity":0.7637795275590551,"duration":0.22708333333332575},{"name":"G5","midi":79,"time":63.36458333333326,"velocity":0.6535433070866141,"duration":0.11249999999999716},{"name":"B4","midi":71,"time":63.479166666666586,"velocity":0.7007874015748031,"duration":0.11249999999999716},{"name":"D4","midi":62,"time":63.479166666666586,"velocity":0.7637795275590551,"duration":0.22708333333333286},{"name":"G5","midi":79,"time":63.59166666666658,"velocity":0.6535433070866141,"duration":0.1145833333333357},{"name":"A4","midi":69,"time":63.70624999999992,"velocity":0.7007874015748031,"duration":0.11666666666666714},{"name":"C#4","midi":61,"time":63.70833333333325,"velocity":0.7637795275590551,"duration":0.2291666666666643},{"name":"G5","midi":79,"time":63.822916666666586,"velocity":0.6535433070866141,"duration":0.11249999999999716},{"name":"F#5","midi":78,"time":63.937499999999915,"velocity":0.6535433070866141,"duration":0.22499999999999432},{"name":"D4","midi":62,"time":63.937499999999915,"velocity":0.7637795275590551,"duration":0.11041666666666572},{"name":"E4","midi":64,"time":64.04791666666658,"velocity":0.7637795275590551,"duration":0.1145833333333286},{"name":"D5","midi":74,"time":64.16249999999991,"velocity":0.7007874015748031,"duration":0.22708333333332575},{"name":"F#4","midi":66,"time":64.16458333333324,"velocity":0.7637795275590551,"duration":0.11041666666666572},{"name":"D4","midi":62,"time":64.2749999999999,"velocity":0.7637795275590551,"duration":0.11249999999999716},{"name":"E5","midi":76,"time":64.38958333333323,"velocity":0.6535433070866141,"duration":0.22291666666666288},{"name":"G4","midi":67,"time":64.39166666666657,"velocity":0.7637795275590551,"duration":0.10833333333333428},{"name":"D4","midi":62,"time":64.4999999999999,"velocity":0.7637795275590551,"duration":0.11249999999999716},{"name":"F#5","midi":78,"time":64.61458333333323,"velocity":0.6535433070866141,"duration":0.22708333333332575},{"name":"A4","midi":69,"time":64.61458333333323,"velocity":0.7007874015748031,"duration":0.11041666666666572},{"name":"D4","midi":62,"time":64.72708333333323,"velocity":0.7637795275590551,"duration":0.11249999999999716},{"name":"G5","midi":79,"time":64.84166666666655,"velocity":0.6535433070866141,"duration":0.22499999999999432},{"name":"B4","midi":71,"time":64.84374999999989,"velocity":0.7007874015748031,"duration":0.11041666666666572},{"name":"D4","midi":62,"time":64.95416666666655,"velocity":0.7637795275590551,"duration":0.11249999999999716},{"name":"A5","midi":81,"time":65.06874999999988,"velocity":0.6535433070866141,"duration":0.45624999999999716},{"name":"C5","midi":72,"time":65.06874999999988,"velocity":0.7007874015748031,"duration":0.11041666666666572},{"name":"D4","midi":62,"time":65.18124999999988,"velocity":0.7637795275590551,"duration":0.11249999999999716},{"name":"B4","midi":71,"time":65.2958333333332,"velocity":0.7165354330708661,"duration":0.6854166666666544},{"name":"G3","midi":55,"time":65.2958333333332,"velocity":0.7637795275590551,"duration":0.2291666666666714},{"name":"D5","midi":74,"time":65.52499999999988,"velocity":0.7244094488188977,"duration":0.22708333333332575},{"name":"A3","midi":57,"time":65.52708333333321,"velocity":0.7637795275590551,"duration":0.11041666666666572},{"name":"G3","midi":55,"time":65.6395833333332,"velocity":0.7637795275590551,"duration":0.11249999999999716},{"name":"G5","midi":79,"time":65.75416666666653,"velocity":0.6771653543307087,"duration":0.4541666666666515},{"name":"F#3","midi":54,"time":65.75416666666653,"velocity":0.7637795275590551,"duration":0.1145833333333286},{"name":"G3","midi":55,"time":65.86874999999986,"velocity":0.7637795275590551,"duration":0.11041666666666572},{"name":"C5","midi":72,"time":65.98124999999986,"velocity":0.7244094488188977,"duration":0.908333333333303},{"name":"A3","midi":57,"time":65.98333333333319,"velocity":0.7637795275590551,"duration":0.22499999999999432},{"name":"F#5","midi":78,"time":66.21041666666652,"velocity":0.6771653543307087,"duration":0.22499999999999432},{"name":"B3","midi":59,"time":66.21041666666652,"velocity":0.7637795275590551,"duration":0.11249999999999716},{"name":"A3","midi":57,"time":66.32291666666652,"velocity":0.7637795275590551,"duration":0.11041666666666572},{"name":"E5","midi":76,"time":66.43541666666651,"velocity":0.6771653543307087,"duration":0.22499999999999432},{"name":"G3","midi":55,"time":66.43749999999984,"velocity":0.7637795275590551,"duration":0.10833333333333428},{"name":"A3","midi":57,"time":66.54791666666651,"velocity":0.7637795275590551,"duration":0.11249999999999716},{"name":"D5","midi":74,"time":66.66249999999984,"velocity":0.7244094488188977,"duration":0.22708333333332575},{"name":"B3","midi":59,"time":66.66249999999984,"velocity":0.7637795275590551,"duration":0.22499999999999432},{"name":"C5","midi":72,"time":66.8916666666665,"velocity":0.7244094488188977,"duration":0.22708333333332575},{"name":"F#4","midi":66,"time":66.8916666666665,"velocity":0.7637795275590551,"duration":0.22499999999999432},{"name":"A3","midi":57,"time":66.89374999999983,"velocity":0.7637795275590551,"duration":0.22291666666666288},{"name":"B4","midi":71,"time":67.11874999999982,"velocity":0.7244094488188977,"duration":0.22499999999999432},{"name":"G4","midi":67,"time":67.12083333333315,"velocity":0.7637795275590551,"duration":0.4479166666666572},{"name":"G3","midi":55,"time":67.12083333333315,"velocity":0.7637795275590551,"duration":0.22083333333333144},{"name":"A4","midi":69,"time":67.34374999999982,"velocity":0.7244094488188977,"duration":0.45208333333332007},{"name":"D3","midi":50,"time":67.34583333333315,"velocity":0.7637795275590551,"duration":0.22291666666666288},{"name":"C4","midi":60,"time":67.57083333333314,"velocity":0.7637795275590551,"duration":0.4479166666666572},{"name":"F#4","midi":66,"time":67.57083333333314,"velocity":0.7637795275590551,"duration":0.10833333333333428},{"name":"G4","midi":67,"time":67.6812499999998,"velocity":0.7637795275590551,"duration":0.11249999999999716},{"name":"A4","midi":69,"time":67.79583333333314,"velocity":0.7244094488188977,"duration":0.11041666666666572},{"name":"F#4","midi":66,"time":67.9062499999998,"velocity":0.7637795275590551,"duration":0.11249999999999716},{"name":"B3","midi":59,"time":68.02083333333313,"velocity":0.7637795275590551,"duration":0.22708333333332575},{"name":"G4","midi":67,"time":68.02083333333313,"velocity":0.7637795275590551,"duration":0.11041666666666572},{"name":"F#4","midi":66,"time":68.13333333333313,"velocity":0.7637795275590551,"duration":0.11249999999999716},{"name":"A3","midi":57,"time":68.24791666666646,"velocity":0.7637795275590551,"duration":0.22499999999999432},{"name":"G4","midi":67,"time":68.24999999999979,"velocity":0.7637795275590551,"duration":0.11041666666666572},{"name":"A4","midi":69,"time":68.36041666666645,"velocity":0.7244094488188977,"duration":0.11249999999999716},{"name":"B4","midi":71,"time":68.47499999999978,"velocity":0.7244094488188977,"duration":0.11249999999999716},{"name":"D5","midi":74,"time":68.47499999999978,"velocity":0.7244094488188977,"duration":0.45208333333332007},{"name":"G3","midi":55,"time":68.47499999999978,"velocity":0.7637795275590551,"duration":0.22708333333332575},{"name":"G4","midi":67,"time":68.58749999999978,"velocity":0.7637795275590551,"duration":0.11249999999999716},{"name":"A4","midi":69,"time":68.7020833333331,"velocity":0.7244094488188977,"duration":0.11041666666666572},{"name":"F#3","midi":54,"time":68.7020833333331,"velocity":0.7637795275590551,"duration":0.22499999999999432},{"name":"G4","midi":67,"time":68.8145833333331,"velocity":0.7637795275590551,"duration":0.11249999999999716},{"name":"A4","midi":69,"time":68.92916666666643,"velocity":0.7244094488188977,"duration":0.11041666666666572},{"name":"C5","midi":72,"time":68.92916666666643,"velocity":0.7244094488188977,"duration":0.2291666666666572},{"name":"E4","midi":64,"time":68.93124999999976,"velocity":0.7637795275590551,"duration":0.4541666666666515},{"name":"B4","midi":71,"time":69.04166666666643,"velocity":0.7244094488188977,"duration":0.1145833333333286},{"name":"A5","midi":81,"time":69.15833333333309,"velocity":0.6771653543307087,"duration":0.4541666666666515},{"name":"C5","midi":72,"time":69.16041666666642,"velocity":0.7244094488188977,"duration":0.11041666666666572},{"name":"A4","midi":69,"time":69.27083333333309,"velocity":0.7244094488188977,"duration":0.1145833333333286},{"name":"B4","midi":71,"time":69.38749999999975,"velocity":0.7244094488188977,"duration":0.22499999999999432},{"name":"D4","midi":62,"time":69.38749999999975,"velocity":0.7637795275590551,"duration":0.22291666666666288},{"name":"G5","midi":79,"time":69.61458333333307,"velocity":0.6771653543307087,"duration":0.6708333333333201},{"name":"C5","midi":72,"time":69.61458333333307,"velocity":0.7244094488188977,"duration":0.11041666666666572},{"name":"E4","midi":64,"time":69.6166666666664,"velocity":0.7637795275590551,"duration":0.10625000000000284},{"name":"B4","midi":71,"time":69.72499999999974,"velocity":0.7244094488188977,"duration":0.11249999999999716},{"name":"D4","midi":62,"time":69.72499999999974,"velocity":0.7637795275590551,"duration":0.11249999999999716},{"name":"A4","midi":69,"time":69.83958333333307,"velocity":0.7244094488188977,"duration":0.11041666666666572},{"name":"C4","midi":60,"time":69.83958333333307,"velocity":0.7637795275590551,"duration":0.11041666666666572},{"name":"B3","midi":59,"time":69.94999999999973,"velocity":0.7637795275590551,"duration":0.11249999999999716},{"name":"G4","midi":67,"time":69.95208333333306,"velocity":0.7637795275590551,"duration":0.10833333333333428},{"name":"C5","midi":72,"time":70.06249999999973,"velocity":0.7244094488188977,"duration":0.7874999999999943},{"name":"A3","midi":57,"time":70.06458333333306,"velocity":0.7637795275590551,"duration":0.22083333333333144},{"name":"A5","midi":81,"time":70.28749999999972,"velocity":0.6771653543307087,"duration":0.11041666666666572},{"name":"C4","midi":60,"time":70.28749999999972,"velocity":0.7637795275590551,"duration":0.11041666666666572},{"name":"G5","midi":79,"time":70.39999999999972,"velocity":0.6771653543307087,"duration":0.11041666666666572},{"name":"B3","midi":59,"time":70.39999999999972,"velocity":0.7637795275590551,"duration":0.10833333333333428},{"name":"F#5","midi":78,"time":70.51041666666639,"velocity":0.6771653543307087,"duration":0.11249999999999716},{"name":"A3","midi":57,"time":70.51249999999972,"velocity":0.7637795275590551,"duration":0.10833333333333428},{"name":"E5","midi":76,"time":70.62291666666638,"velocity":0.6771653543307087,"duration":0.11249999999999716},{"name":"G3","midi":55,"time":70.62499999999972,"velocity":0.7637795275590551,"duration":0.11041666666666572},{"name":"D5","midi":74,"time":70.73749999999971,"velocity":0.7244094488188977,"duration":1.5958333333332746},{"name":"F#3","midi":54,"time":70.73749999999971,"velocity":0.7637795275590551,"duration":0.46041666666666003},{"name":"B4","midi":71,"time":70.85208333333306,"velocity":0.7244094488188977,"duration":0.1145833333333286},{"name":"A4","midi":69,"time":70.96874999999972,"velocity":0.7244094488188977,"duration":0.1145833333333286},{"name":"C5","midi":72,"time":71.08333333333304,"velocity":0.7244094488188977,"duration":0.1145833333333286},{"name":"E3","midi":52,"time":71.1999999999997,"velocity":0.7637795275590551,"duration":0.2291666666666572},{"name":"G4","midi":67,"time":71.1999999999997,"velocity":0.7637795275590551,"duration":0.11249999999999716},{"name":"C5","midi":72,"time":71.31458333333303,"velocity":0.7244094488188977,"duration":0.1145833333333286},{"name":"F#4","midi":66,"time":71.4312499999997,"velocity":0.7637795275590551,"duration":0.1145833333333286},{"name":"D3","midi":50,"time":71.4312499999997,"velocity":0.7637795275590551,"duration":0.1145833333333286},{"name":"C5","midi":72,"time":71.54791666666635,"velocity":0.7244094488188977,"duration":0.1145833333333286},{"name":"E3","midi":52,"time":71.54791666666635,"velocity":0.7637795275590551,"duration":0.11249999999999716},{"name":"D3","midi":50,"time":71.66249999999968,"velocity":0.7637795275590551,"duration":0.11666666666666003},{"name":"E4","midi":64,"time":71.66458333333301,"velocity":0.7637795275590551,"duration":0.1145833333333286},{"name":"C5","midi":72,"time":71.78124999999967,"velocity":0.7244094488188977,"duration":0.11249999999999716},{"name":"C3","midi":48,"time":71.78124999999967,"velocity":0.7637795275590551,"duration":0.11249999999999716},{"name":"D4","midi":62,"time":71.895833333333,"velocity":0.7637795275590551,"duration":0.1145833333333286},{"name":"B2","midi":47,"time":71.895833333333,"velocity":0.7637795275590551,"duration":0.11249999999999716},{"name":"C5","midi":72,"time":72.01041666666633,"velocity":0.7244094488188977,"duration":0.1145833333333286},{"name":"A2","midi":45,"time":72.01249999999966,"velocity":0.7637795275590551,"duration":0.11249999999999716},{"name":"B4","midi":71,"time":72.12708333333299,"velocity":0.7244094488188977,"duration":0.22499999999999432},{"name":"G2","midi":43,"time":72.12708333333299,"velocity":0.7637795275590551,"duration":0.11249999999999716},{"name":"A2","midi":45,"time":72.23958333333299,"velocity":0.7637795275590551,"duration":0.11041666666666572},{"name":"D5","midi":74,"time":72.35208333333298,"velocity":0.7244094488188977,"duration":0.23124999999998863},{"name":"F4","midi":65,"time":72.35416666666632,"velocity":0.7637795275590551,"duration":0.22708333333332575},{"name":"B2","midi":47,"time":72.35416666666632,"velocity":0.7637795275590551,"duration":0.11249999999999716},{"name":"G2","midi":43,"time":72.46874999999964,"velocity":0.7637795275590551,"duration":0.11249999999999716},{"name":"C5","midi":72,"time":72.58333333333297,"velocity":0.7244094488188977,"duration":0.22708333333332575},{"name":"E4","midi":64,"time":72.5854166666663,"velocity":0.7637795275590551,"duration":0.22499999999999432},{"name":"C3","midi":48,"time":72.5854166666663,"velocity":0.7637795275590551,"duration":0.11041666666666572},{"name":"G2","midi":43,"time":72.69583333333297,"velocity":0.7637795275590551,"duration":0.11249999999999716},{"name":"B4","midi":71,"time":72.81249999999963,"velocity":0.7244094488188977,"duration":0.2291666666666572},{"name":"D4","midi":62,"time":72.81249999999963,"velocity":0.7637795275590551,"duration":0.22708333333332575},{"name":"D3","midi":50,"time":72.81458333333296,"velocity":0.7637795275590551,"duration":0.11041666666666572},{"name":"G2","midi":43,"time":72.92708333333296,"velocity":0.7637795275590551,"duration":0.11249999999999716},{"name":"A4","midi":69,"time":73.04166666666629,"velocity":0.7244094488188977,"duration":0.22708333333332575},{"name":"C4","midi":60,"time":73.04374999999962,"velocity":0.7637795275590551,"duration":0.22499999999999432},{"name":"E3","midi":52,"time":73.04374999999962,"velocity":0.7637795275590551,"duration":0.10833333333333428},{"name":"G2","midi":43,"time":73.15416666666628,"velocity":0.7637795275590551,"duration":0.1145833333333286},{"name":"G4","midi":67,"time":73.27083333333294,"velocity":0.7637795275590551,"duration":0.22499999999999432},{"name":"B3","midi":59,"time":73.27083333333294,"velocity":0.7637795275590551,"duration":0.22499999999999432},{"name":"F3","midi":53,"time":73.27291666666628,"velocity":0.7637795275590551,"duration":0.10625000000000284},{"name":"G2","midi":43,"time":73.37916666666628,"velocity":0.7637795275590551,"duration":0.1145833333333286},{"name":"C5","midi":72,"time":73.49583333333294,"velocity":0.7559055118110236,"duration":0.11666666666666003},{"name":"E3","midi":52,"time":73.49791666666627,"velocity":0.7637795275590551,"duration":0.1145833333333286},{"name":"D5","midi":74,"time":73.6124999999996,"velocity":0.7559055118110236,"duration":0.11666666666666003},{"name":"D3","midi":50,"time":73.61458333333293,"velocity":0.7637795275590551,"duration":0.11249999999999716},{"name":"E5","midi":76,"time":73.72916666666626,"velocity":0.7086614173228346,"duration":0.5854166666666316},{"name":"C3","midi":48,"time":73.72916666666626,"velocity":0.7637795275590551,"duration":0.11666666666666003},{"name":"E3","midi":52,"time":73.84791666666625,"velocity":0.7637795275590551,"duration":0.11666666666666003},{"name":"G4","midi":67,"time":73.96458333333291,"velocity":0.7637795275590551,"duration":0.2354166666666515},{"name":"B2","midi":47,"time":73.96458333333291,"velocity":0.7637795275590551,"duration":0.1145833333333286},{"name":"E3","midi":52,"time":74.08124999999957,"velocity":0.7637795275590551,"duration":0.11666666666666003},{"name":"F#4","midi":66,"time":74.19999999999956,"velocity":0.7637795275590551,"duration":1.137499999999946},{"name":"A2","midi":45,"time":74.19999999999956,"velocity":0.7637795275590551,"duration":0.1145833333333286},{"name":"D5","midi":74,"time":74.31666666666622,"velocity":0.7559055118110236,"duration":0.1145833333333286},{"name":"E3","midi":52,"time":74.31666666666622,"velocity":0.7637795275590551,"duration":0.11249999999999716},{"name":"C5","midi":72,"time":74.43124999999955,"velocity":0.7559055118110236,"duration":0.11666666666666003},{"name":"G2","midi":43,"time":74.43333333333288,"velocity":0.7637795275590551,"duration":0.11249999999999716},{"name":"B4","midi":71,"time":74.54791666666621,"velocity":0.7559055118110236,"duration":0.11666666666666003},{"name":"E3","midi":52,"time":74.54999999999954,"velocity":0.7637795275590551,"duration":0.1145833333333286},{"name":"A4","midi":69,"time":74.6666666666662,"velocity":0.7559055118110236,"duration":0.11666666666666003},{"name":"F#2","midi":42,"time":74.6666666666662,"velocity":0.7637795275590551,"duration":0.1145833333333286},{"name":"C5","midi":72,"time":74.78333333333286,"velocity":0.7559055118110236,"duration":0.11666666666666003},{"name":"E3","midi":52,"time":74.7854166666662,"velocity":0.7637795275590551,"duration":0.11249999999999716},{"name":"B4","midi":71,"time":74.89999999999952,"velocity":0.7559055118110236,"duration":0.1145833333333286},{"name":"D3","midi":50,"time":74.89999999999952,"velocity":0.7637795275590551,"duration":0.1145833333333286},{"name":"C5","midi":72,"time":75.01666666666618,"velocity":0.7559055118110236,"duration":0.11249999999999716},{"name":"C3","midi":48,"time":75.01666666666618,"velocity":0.7637795275590551,"duration":0.11041666666666572},{"name":"D5","midi":74,"time":75.12916666666618,"velocity":0.7559055118110236,"duration":0.5708333333333115},{"name":"B2","midi":47,"time":75.13124999999951,"velocity":0.7637795275590551,"duration":0.11041666666666572},{"name":"D3","midi":50,"time":75.24374999999951,"velocity":0.7637795275590551,"duration":0.11249999999999716},{"name":"F#4","midi":66,"time":75.3562499999995,"velocity":0.7637795275590551,"duration":0.23124999999998863},{"name":"A2","midi":45,"time":75.35833333333284,"velocity":0.7637795275590551,"duration":0.1145833333333286},{"name":"D3","midi":50,"time":75.47291666666617,"velocity":0.7637795275590551,"duration":0.11249999999999716},{"name":"E4","midi":64,"time":75.5874999999995,"velocity":0.7637795275590551,"duration":1.1249999999999574},{"name":"G2","midi":43,"time":75.58958333333283,"velocity":0.7637795275590551,"duration":0.11041666666666572},{"name":"C5","midi":72,"time":75.70208333333282,"velocity":0.7559055118110236,"duration":0.11249999999999716},{"name":"D3","midi":50,"time":75.70208333333282,"velocity":0.7637795275590551,"duration":0.11249999999999716},{"name":"B4","midi":71,"time":75.81666666666615,"velocity":0.7559055118110236,"duration":0.1145833333333286},{"name":"F#2","midi":42,"time":75.81666666666615,"velocity":0.7637795275590551,"duration":0.11249999999999716},{"name":"A4","midi":69,"time":75.93124999999948,"velocity":0.7637795275590551,"duration":0.1145833333333286},{"name":"D3","midi":50,"time":75.93333333333281,"velocity":0.7637795275590551,"duration":0.11041666666666572},{"name":"G4","midi":67,"time":76.04583333333281,"velocity":0.7637795275590551,"duration":0.1145833333333286},{"name":"E2","midi":40,"time":76.04791666666614,"velocity":0.7637795275590551,"duration":0.11249999999999716},{"name":"B4","midi":71,"time":76.16249999999947,"velocity":0.7637795275590551,"duration":0.1145833333333286},{"name":"D3","midi":50,"time":76.16249999999947,"velocity":0.7637795275590551,"duration":0.11249999999999716},{"name":"A4","midi":69,"time":76.2770833333328,"velocity":0.7637795275590551,"duration":0.11666666666666003},{"name":"C3","midi":48,"time":76.27916666666613,"velocity":0.7637795275590551,"duration":0.11249999999999716},{"name":"B4","midi":71,"time":76.39374999999946,"velocity":0.7637795275590551,"duration":0.11041666666666572},{"name":"B2","midi":47,"time":76.39583333333279,"velocity":0.7637795275590551,"duration":0.10833333333333428},{"name":"C5","midi":72,"time":76.50624999999945,"velocity":0.7637795275590551,"duration":0.5666666666666487},{"name":"A2","midi":45,"time":76.50624999999945,"velocity":0.7637795275590551,"duration":0.11249999999999716},{"name":"C3","midi":48,"time":76.61874999999945,"velocity":0.7637795275590551,"duration":0.11249999999999716},{"name":"E4","midi":64,"time":76.73333333333278,"velocity":0.7637795275590551,"duration":0.22499999999999432},{"name":"G2","midi":43,"time":76.73333333333278,"velocity":0.7637795275590551,"duration":0.11041666666666572},{"name":"C3","midi":48,"time":76.84583333333278,"velocity":0.7637795275590551,"duration":0.11249999999999716},{"name":"D4","midi":62,"time":76.9604166666661,"velocity":0.7637795275590551,"duration":0.6812499999999773},{"name":"F#2","midi":42,"time":76.9604166666661,"velocity":0.7637795275590551,"duration":0.11249999999999716},{"name":"B4","midi":71,"time":77.07499999999943,"velocity":0.7637795275590551,"duration":0.11249999999999716},{"name":"C3","midi":48,"time":77.07499999999943,"velocity":0.7637795275590551,"duration":0.11041666666666572},{"name":"A4","midi":69,"time":77.18749999999943,"velocity":0.7637795275590551,"duration":0.11249999999999716},{"name":"E2","midi":40,"time":77.18958333333276,"velocity":0.7637795275590551,"duration":0.11041666666666572},{"name":"G4","midi":67,"time":77.30208333333276,"velocity":0.7637795275590551,"duration":0.11249999999999716},{"name":"C3","midi":48,"time":77.30208333333276,"velocity":0.7637795275590551,"duration":0.11249999999999716},{"name":"F#4","midi":66,"time":77.41666666666609,"velocity":0.7637795275590551,"duration":0.11041666666666572},{"name":"D2","midi":38,"time":77.41666666666609,"velocity":0.7637795275590551,"duration":0.10833333333333428},{"name":"A4","midi":69,"time":77.52708333333275,"velocity":0.7637795275590551,"duration":0.1145833333333286},{"name":"C3","midi":48,"time":77.52916666666609,"velocity":0.7637795275590551,"duration":0.11041666666666572},{"name":"G4","midi":67,"time":77.64374999999941,"velocity":0.7637795275590551,"duration":0.10625000000000284},{"name":"D4","midi":62,"time":77.64374999999941,"velocity":0.7637795275590551,"duration":0.22083333333333144},{"name":"B2","midi":47,"time":77.64583333333275,"velocity":0.7637795275590551,"duration":0.21666666666666856},{"name":"A4","midi":69,"time":77.74999999999942,"velocity":0.7637795275590551,"duration":0.11249999999999716},{"name":"B4","midi":71,"time":77.86458333333275,"velocity":0.7637795275590551,"duration":0.6812499999999773},{"name":"C4","midi":60,"time":77.86666666666608,"velocity":0.7637795275590551,"duration":0.10833333333333428},{"name":"A2","midi":45,"time":77.86666666666608,"velocity":0.7637795275590551,"duration":0.22083333333333144},{"name":"D4","midi":62,"time":77.97499999999941,"velocity":0.7637795275590551,"duration":0.11249999999999716},{"name":"E4","midi":64,"time":78.08749999999941,"velocity":0.7637795275590551,"duration":0.11249999999999716},{"name":"G2","midi":43,"time":78.08958333333274,"velocity":0.7637795275590551,"duration":0.22708333333332575},{"name":"D4","midi":62,"time":78.20208333333274,"velocity":0.7637795275590551,"duration":0.11249999999999716},{"name":"C4","midi":60,"time":78.31666666666607,"velocity":0.7637795275590551,"duration":0.22708333333332575},{"name":"A2","midi":45,"time":78.31666666666607,"velocity":0.7637795275590551,"duration":0.22499999999999432},{"name":"E4","midi":64,"time":78.54583333333272,"velocity":0.7637795275590551,"duration":0.22708333333332575},{"name":"B3","midi":59,"time":78.54583333333272,"velocity":0.7637795275590551,"duration":0.11041666666666572},{"name":"G2","midi":43,"time":78.54791666666605,"velocity":0.7637795275590551,"duration":0.22499999999999432},{"name":"C4","midi":60,"time":78.65833333333272,"velocity":0.7637795275590551,"duration":0.11249999999999716},{"name":"A4","midi":69,"time":78.77499999999938,"velocity":0.7637795275590551,"duration":0.3437499999999858},{"name":"D4","midi":62,"time":78.77499999999938,"velocity":0.7637795275590551,"duration":0.11041666666666572},{"name":"F#2","midi":42,"time":78.77499999999938,"velocity":0.7637795275590551,"duration":0.22708333333332575},{"name":"C4","midi":60,"time":78.88541666666605,"velocity":0.7637795275590551,"duration":0.1145833333333286},{"name":"B3","midi":59,"time":79.0020833333327,"velocity":0.7637795275590551,"duration":0.2354166666666515},{"name":"G2","midi":43,"time":79.0020833333327,"velocity":0.7637795275590551,"duration":0.1145833333333286},{"name":"G4","midi":67,"time":79.11874999999937,"velocity":0.7637795275590551,"duration":0.11666666666666003},{"name":"G3","midi":55,"time":79.11874999999937,"velocity":0.7637795275590551,"duration":0.11666666666666003},{"name":"A4","midi":69,"time":79.23749999999936,"velocity":0.7637795275590551,"duration":0.23749999999998295},{"name":"C4","midi":60,"time":79.23958333333269,"velocity":0.7637795275590551,"duration":0.2354166666666515},{"name":"F3","midi":53,"time":79.23958333333269,"velocity":0.7637795275590551,"duration":0.1145833333333286},{"name":"E3","midi":52,"time":79.35624999999935,"velocity":0.7637795275590551,"duration":0.11666666666666003},{"name":"B4","midi":71,"time":79.47499999999934,"velocity":0.7559055118110236,"duration":0.2395833333333286},{"name":"D3","midi":50,"time":79.47708333333267,"velocity":0.7637795275590551,"duration":0.11666666666666003},{"name":"D4","midi":62,"time":79.47708333333267,"velocity":0.7637795275590551,"duration":0.23749999999999716},{"name":"F3","midi":53,"time":79.59374999999933,"velocity":0.7637795275590551,"duration":0.11875000000000568},{"name":"C5","midi":72,"time":79.716666666666,"velocity":0.7559055118110236,"duration":0.1145833333333286},{"name":"G4","midi":67,"time":79.716666666666,"velocity":0.7637795275590551,"duration":0.23333333333332007},{"name":"E3","midi":52,"time":79.71874999999933,"velocity":0.7637795275590551,"duration":0.11249999999999716},{"name":"D5","midi":74,"time":79.83333333333266,"velocity":0.7559055118110236,"duration":0.11666666666666003},{"name":"F3","midi":53,"time":79.83333333333266,"velocity":0.7637795275590551,"duration":0.11666666666666003},{"name":"C5","midi":72,"time":79.95208333333265,"velocity":0.7559055118110236,"duration":0.11666666666666003},{"name":"A3","midi":57,"time":79.95208333333265,"velocity":0.7637795275590551,"duration":0.47291666666663446},{"name":"E3","midi":52,"time":79.95416666666598,"velocity":0.7637795275590551,"duration":0.11249999999999716},{"name":"B4","midi":71,"time":80.06874999999931,"velocity":0.7559055118110236,"duration":0.1145833333333286},{"name":"D3","midi":50,"time":80.07083333333264,"velocity":0.7637795275590551,"duration":0.11249999999999716},{"name":"A4","midi":69,"time":80.18541666666597,"velocity":0.7559055118110236,"duration":0.11666666666666003},{"name":"C3","midi":48,"time":80.18541666666597,"velocity":0.7637795275590551,"duration":0.1145833333333286},{"name":"G4","midi":67,"time":80.30208333333263,"velocity":0.7637795275590551,"duration":0.09999999999999432},{"name":"E3","midi":52,"time":80.30416666666596,"velocity":0.7637795275590551,"duration":0.12083333333332291},{"name":"B3","midi":59,"time":80.42708333333262,"velocity":0.7637795275590551,"duration":0.29583333333332007},{"name":"G4","midi":67,"time":80.42708333333262,"velocity":0.7637795275590551,"duration":0.054166666666660035},{"name":"D3","midi":50,"time":80.42916666666595,"velocity":0.7637795275590551,"duration":0.15000000000000568},{"name":"F#4","midi":66,"time":80.48124999999928,"velocity":0.7637795275590551,"duration":0.056250000000005684},{"name":"G4","midi":67,"time":80.53749999999928,"velocity":0.7637795275590551,"duration":0.05833333333333712},{"name":"E3","midi":52,"time":80.57916666666596,"velocity":0.7637795275590551,"duration":0.1416666666666515},{"name":"F#4","midi":66,"time":80.59583333333262,"velocity":0.7637795275590551,"duration":0.054166666666660035},{"name":"G4","midi":67,"time":80.65208333333261,"velocity":0.7637795275590551,"duration":0.04791666666666572},{"name":"F#4","midi":66,"time":80.69999999999928,"velocity":0.7637795275590551,"duration":0.04583333333332007},{"name":"D3","midi":50,"time":80.72291666666594,"velocity":0.7637795275590551,"duration":0.12291666666666856},{"name":"C4","midi":60,"time":80.72499999999927,"velocity":0.7637795275590551,"duration":0.24166666666667425},{"name":"G4","midi":67,"time":80.7458333333326,"velocity":0.7637795275590551,"duration":0.04583333333333428},{"name":"F#4","midi":66,"time":80.79166666666593,"velocity":0.7637795275590551,"duration":0.04583333333333428},{"name":"E4","midi":64,"time":80.8458333333326,"velocity":0.7637795275590551,"duration":0.05833333333333712},{"name":"C3","midi":48,"time":80.84791666666594,"velocity":0.7637795275590551,"duration":0.11875000000000568},{"name":"F#4","midi":66,"time":80.90624999999928,"velocity":0.7637795275590551,"duration":0.05833333333333712},{"name":"D4","midi":62,"time":80.96874999999928,"velocity":0.7637795275590551,"duration":0.2395833333333286},{"name":"G4","midi":67,"time":80.96874999999928,"velocity":0.7637795275590551,"duration":0.35833333333332007},{"name":"B2","midi":47,"time":80.9708333333326,"velocity":0.7637795275590551,"duration":0.11666666666666003},{"name":"D3","midi":50,"time":81.08749999999927,"velocity":0.7637795275590551,"duration":0.11875000000000568},{"name":"E4","midi":64,"time":81.2083333333326,"velocity":0.7637795275590551,"duration":0.24166666666664582},{"name":"C3","midi":48,"time":81.21041666666594,"velocity":0.7637795275590551,"duration":0.11666666666666003},{"name":"B4","midi":71,"time":81.32916666666593,"velocity":0.7559055118110236,"duration":0.11874999999999147},{"name":"D3","midi":50,"time":81.32916666666593,"velocity":0.7637795275590551,"duration":0.11874999999999147},{"name":"A4","midi":69,"time":81.44999999999925,"velocity":0.7559055118110236,"duration":0.11666666666666003},{"name":"F#3","midi":54,"time":81.44999999999925,"velocity":0.7637795275590551,"duration":0.47708333333331154},{"name":"C3","midi":48,"time":81.45208333333258,"velocity":0.7637795275590551,"duration":0.11249999999999716},{"name":"G4","midi":67,"time":81.56666666666591,"velocity":0.7637795275590551,"duration":0.11666666666666003},{"name":"B2","midi":47,"time":81.56874999999924,"velocity":0.7637795275590551,"duration":0.1145833333333286},{"name":"F#4","midi":66,"time":81.6854166666659,"velocity":0.7637795275590551,"duration":0.11874999999999147},{"name":"A2","midi":45,"time":81.6854166666659,"velocity":0.7637795275590551,"duration":0.11666666666666003},{"name":"E4","midi":64,"time":81.80416666666589,"velocity":0.7637795275590551,"duration":0.12083333333333712},{"name":"C3","midi":48,"time":81.80624999999922,"velocity":0.7637795275590551,"duration":0.11875000000000568},{"name":"D4","midi":62,"time":81.92708333333256,"velocity":0.7637795275590551,"duration":0.23333333333332007},{"name":"G3","midi":55,"time":81.92916666666589,"velocity":0.7637795275590551,"duration":0.21041666666666003},{"name":"B2","midi":47,"time":81.92916666666589,"velocity":0.7637795275590551,"duration":0.1145833333333286},{"name":"C3","midi":48,"time":82.04374999999922,"velocity":0.7637795275590551,"duration":0.1145833333333286},{"name":"G3","midi":55,"time":82.16041666666588,"velocity":0.7637795275590551,"duration":0.1145833333333286},{"name":"B2","midi":47,"time":82.16249999999921,"velocity":0.7637795275590551,"duration":0.11249999999999716},{"name":"A3","midi":57,"time":82.27708333333254,"velocity":0.7637795275590551,"duration":0.1145833333333286},{"name":"A2","midi":45,"time":82.27708333333254,"velocity":0.7637795275590551,"duration":0.1145833333333286},{"name":"B3","midi":59,"time":82.3937499999992,"velocity":0.7637795275590551,"duration":0.1145833333333286},{"name":"G2","midi":43,"time":82.3937499999992,"velocity":0.7637795275590551,"duration":0.11249999999999716},{"name":"C#4","midi":61,"time":82.50833333333253,"velocity":0.7637795275590551,"duration":0.11666666666666003},{"name":"A2","midi":45,"time":82.51041666666586,"velocity":0.7637795275590551,"duration":0.11249999999999716},{"name":"D4","midi":62,"time":82.62499999999919,"velocity":0.7637795275590551,"duration":0.23333333333332007},{"name":"B2","midi":47,"time":82.62499999999919,"velocity":0.7637795275590551,"duration":0.1145833333333286},{"name":"C#3","midi":49,"time":82.73958333333252,"velocity":0.7637795275590551,"duration":0.11666666666666003},{"name":"D3","midi":50,"time":82.85833333333251,"velocity":0.7637795275590551,"duration":0.11666666666666003},{"name":"B3","midi":59,"time":82.86041666666584,"velocity":0.7637795275590551,"duration":0.11249999999999716},{"name":"C#4","midi":61,"time":82.97499999999917,"velocity":0.7637795275590551,"duration":0.1145833333333286},{"name":"E3","midi":52,"time":82.97499999999917,"velocity":0.7637795275590551,"duration":0.1145833333333286},{"name":"F#3","midi":54,"time":83.09166666666583,"velocity":0.7637795275590551,"duration":0.1145833333333286},{"name":"D4","midi":62,"time":83.09166666666583,"velocity":0.7637795275590551,"duration":0.1145833333333286},{"name":"G3","midi":55,"time":83.20624999999916,"velocity":0.7637795275590551,"duration":0.11874999999999147},{"name":"E4","midi":64,"time":83.20833333333249,"velocity":0.7637795275590551,"duration":0.1145833333333286},{"name":"A4","midi":69,"time":83.32499999999915,"velocity":0.6692913385826772,"duration":0.23749999999999716},{"name":"F#4","midi":66,"time":83.32499999999915,"velocity":0.7637795275590551,"duration":0.23749999999999716},{"name":"F#3","midi":54,"time":83.32708333333248,"velocity":0.7637795275590551,"duration":0.23541666666666572},{"name":"G4","midi":67,"time":83.56458333333248,"velocity":0.7637795275590551,"duration":0.1145833333333286},{"name":"E4","midi":64,"time":83.56458333333248,"velocity":0.7637795275590551,"duration":0.23333333333332007},{"name":"B3","midi":59,"time":83.56666666666581,"velocity":0.7637795275590551,"duration":0.23124999999998863},{"name":"A4","midi":69,"time":83.68124999999914,"velocity":0.7637795275590551,"duration":0.1145833333333286},{"name":"B4","midi":71,"time":83.79999999999913,"velocity":0.7637795275590551,"duration":0.11666666666666003},{"name":"D#4","midi":63,"time":83.79999999999913,"velocity":0.7637795275590551,"duration":0.2354166666666515},{"name":"B2","midi":47,"time":83.79999999999913,"velocity":0.7637795275590551,"duration":0.2354166666666515},{"name":"A4","midi":69,"time":83.91666666666579,"velocity":0.7637795275590551,"duration":0.11666666666666003},{"name":"G4","midi":67,"time":84.03541666666578,"velocity":0.7637795275590551,"duration":0.23749999999999716},{"name":"E4","midi":64,"time":84.03749999999911,"velocity":0.7637795275590551,"duration":0.23333333333333428},{"name":"E3","midi":52,"time":84.03958333333244,"velocity":0.7637795275590551,"duration":0.23125000000000284},{"name":"F#4","midi":66,"time":84.27291666666578,"velocity":0.7637795275590551,"duration":0.1145833333333286},{"name":"A3","midi":57,"time":84.27499999999911,"velocity":0.7637795275590551,"duration":0.23333333333333428},{"name":"D4","midi":62,"time":84.27499999999911,"velocity":0.7637795275590551,"duration":0.23541666666666572},{"name":"G4","midi":67,"time":84.38958333333244,"velocity":0.7637795275590551,"duration":0.11875000000000568},{"name":"A4","midi":69,"time":84.51041666666578,"velocity":0.7637795275590551,"duration":0.11666666666666003},{"name":"C#4","midi":61,"time":84.51249999999911,"velocity":0.7637795275590551,"duration":0.2354166666666515},{"name":"A2","midi":45,"time":84.51249999999911,"velocity":0.7637795275590551,"duration":0.2354166666666515},{"name":"F#4","midi":66,"time":84.62916666666577,"velocity":0.7637795275590551,"duration":0.11666666666666003},{"name":"G4","midi":67,"time":84.74999999999909,"velocity":0.7637795275590551,"duration":0.23333333333333428},{"name":"D4","midi":62,"time":84.74999999999909,"velocity":0.7637795275590551,"duration":0.23333333333333428},{"name":"D3","midi":50,"time":84.74999999999909,"velocity":0.7637795275590551,"duration":0.23125000000000284},{"name":"A4","midi":69,"time":84.98541666666576,"velocity":0.7637795275590551,"duration":0.2291666666666572},{"name":"C#4","midi":61,"time":84.98541666666576,"velocity":0.7637795275590551,"duration":0.11041666666666572},{"name":"E3","midi":52,"time":84.98749999999909,"velocity":0.7637795275590551,"duration":0.22499999999999432},{"name":"B3","midi":59,"time":85.09791666666575,"velocity":0.7637795275590551,"duration":0.1145833333333286},{"name":"B4","midi":71,"time":85.21458333333241,"velocity":0.7637795275590551,"duration":0.23333333333332007},{"name":"F#3","midi":54,"time":85.21666666666574,"velocity":0.7637795275590551,"duration":0.4687499999999858},{"name":"A3","midi":57,"time":85.21666666666574,"velocity":0.7637795275590551,"duration":0.11249999999999716},{"name":"C4","midi":60,"time":85.33124999999907,"velocity":0.7637795275590551,"duration":0.1145833333333286},{"name":"D5","midi":74,"time":85.44791666666573,"velocity":0.7637795275590551,"duration":0.23749999999999716},{"name":"B3","midi":59,"time":85.44999999999906,"velocity":0.7637795275590551,"duration":0.11249999999999716},{"name":"C4","midi":60,"time":85.56249999999906,"velocity":0.7637795275590551,"duration":0.12083333333333712},{"name":"F#4","midi":66,"time":85.68749999999906,"velocity":0.7637795275590551,"duration":0.04791666666666572},{"name":"B3","midi":59,"time":85.68749999999906,"velocity":0.7637795275590551,"duration":0.13958333333332007},{"name":"G3","midi":55,"time":85.6895833333324,"velocity":0.7637795275590551,"duration":0.26874999999998295},{"name":"E4","midi":64,"time":85.73749999999906,"velocity":0.7637795275590551,"duration":0.04999999999999716},{"name":"F#4","midi":66,"time":85.78958333333239,"velocity":0.7637795275590551,"duration":0.052083333333328596},{"name":"A3","midi":57,"time":85.82916666666571,"velocity":0.7637795275590551,"duration":0.12916666666666288},{"name":"E4","midi":64,"time":85.84374999999905,"velocity":0.7637795275590551,"duration":0.04583333333333428},{"name":"F#4","midi":66,"time":85.89166666666571,"velocity":0.7637795275590551,"duration":0.04375000000000284},{"name":"E4","midi":64,"time":85.93749999999905,"velocity":0.7637795275590551,"duration":0.04583333333332007},{"name":"G3","midi":55,"time":85.96041666666571,"velocity":0.7637795275590551,"duration":0.12083333333332291},{"name":"C#3","midi":49,"time":85.96041666666571,"velocity":0.7637795275590551,"duration":0.23958333333331439},{"name":"F#4","midi":66,"time":85.9854166666657,"velocity":0.7637795275590551,"duration":0.04375000000000284},{"name":"E4","midi":64,"time":86.03124999999903,"velocity":0.7637795275590551,"duration":0.04375000000000284},{"name":"F#4","midi":66,"time":86.07499999999904,"velocity":0.7637795275590551,"duration":0.04374999999998863},{"name":"B3","midi":59,"time":86.08333333333236,"velocity":0.7637795275590551,"duration":0.1145833333333286},{"name":"E4","midi":64,"time":86.11874999999903,"velocity":0.7637795275590551,"duration":0.07500000000000284},{"name":"F#4","midi":66,"time":86.19999999999902,"velocity":0.7637795275590551,"duration":0.2291666666666572},{"name":"A3","midi":57,"time":86.19999999999902,"velocity":0.7637795275590551,"duration":0.11249999999999716},{"name":"D3","midi":50,"time":86.20208333333235,"velocity":0.7637795275590551,"duration":0.22708333333332575},{"name":"B3","midi":59,"time":86.31249999999902,"velocity":0.7637795275590551,"duration":0.1145833333333286},{"name":"A3","midi":57,"time":86.43124999999901,"velocity":0.7637795275590551,"duration":0.11041666666666572},{"name":"G4","midi":67,"time":86.43124999999901,"velocity":0.7637795275590551,"duration":0.22708333333332575},{"name":"G3","midi":55,"time":86.54374999999901,"velocity":0.7637795275590551,"duration":0.1145833333333286},{"name":"A4","midi":69,"time":86.66041666666567,"velocity":0.7637795275590551,"duration":0.2291666666666572},{"name":"F#3","midi":54,"time":86.66041666666567,"velocity":0.7637795275590551,"duration":0.11249999999999716},{"name":"A3","midi":57,"time":86.77291666666567,"velocity":0.7637795275590551,"duration":0.1145833333333286},{"name":"B4","midi":71,"time":86.88958333333233,"velocity":0.7637795275590551,"duration":0.2291666666666572},{"name":"G3","midi":55,"time":86.89166666666566,"velocity":0.7637795275590551,"duration":0.11249999999999716},{"name":"A3","midi":57,"time":87.00416666666565,"velocity":0.7637795275590551,"duration":0.1145833333333286},{"name":"D4","midi":62,"time":87.12083333333231,"velocity":0.7637795275590551,"duration":0.04999999999999716},{"name":"G3","midi":55,"time":87.12083333333231,"velocity":0.7637795275590551,"duration":0.1354166666666572},{"name":"C#4","midi":61,"time":87.17083333333231,"velocity":0.7637795275590551,"duration":0.04999999999999716},{"name":"D4","midi":62,"time":87.22083333333231,"velocity":0.7637795275590551,"duration":0.04999999999999716},{"name":"F#3","midi":54,"time":87.25624999999897,"velocity":0.7637795275590551,"duration":0.12916666666666288},{"name":"C#4","midi":61,"time":87.2708333333323,"velocity":0.7637795275590551,"duration":0.04791666666666572},{"name":"D4","midi":62,"time":87.31874999999897,"velocity":0.7637795275590551,"duration":0.04791666666666572},{"name":"C#4","midi":61,"time":87.36666666666564,"velocity":0.7637795275590551,"duration":0.04374999999998863},{"name":"E3","midi":52,"time":87.38749999999897,"velocity":0.7637795275590551,"duration":0.11666666666666003},{"name":"D4","midi":62,"time":87.41041666666563,"velocity":0.7637795275590551,"duration":0.04375000000000284},{"name":"C#4","midi":61,"time":87.45416666666563,"velocity":0.7637795275590551,"duration":0.041666666666671404},{"name":"D4","midi":62,"time":87.49791666666563,"velocity":0.7637795275590551,"duration":0.04166666666665719},{"name":"G3","midi":55,"time":87.50416666666563,"velocity":0.7637795275590551,"duration":0.11666666666666003},{"name":"C#4","midi":61,"time":87.54166666666562,"velocity":0.7637795275590551,"duration":0.07708333333333428},{"name":"D4","midi":62,"time":87.62083333333229,"velocity":0.7637795275590551,"duration":0.21249999999999147},{"name":"F#3","midi":54,"time":87.62291666666562,"velocity":0.7637795275590551,"duration":0.1145833333333286},{"name":"G3","midi":55,"time":87.73958333333228,"velocity":0.7637795275590551,"duration":0.1145833333333286},{"name":"D4","midi":62,"time":87.8541666666656,"velocity":0.7637795275590551,"duration":0.11666666666666003},{"name":"F#3","midi":54,"time":87.85624999999894,"velocity":0.7637795275590551,"duration":0.1145833333333286},{"name":"E3","midi":52,"time":87.9729166666656,"velocity":0.7637795275590551,"duration":0.1145833333333286},{"name":"E4","midi":64,"time":87.9729166666656,"velocity":0.7637795275590551,"duration":0.1145833333333286},{"name":"F#4","midi":66,"time":88.08749999999893,"velocity":0.7637795275590551,"duration":0.1145833333333286},{"name":"D3","midi":50,"time":88.08958333333226,"velocity":0.7637795275590551,"duration":0.11249999999999716},{"name":"G4","midi":67,"time":88.20416666666559,"velocity":0.7637795275590551,"duration":0.1145833333333286},{"name":"E3","midi":52,"time":88.20416666666559,"velocity":0.7637795275590551,"duration":0.1145833333333286},{"name":"A4","midi":69,"time":88.32083333333225,"velocity":0.7559055118110236,"duration":0.23333333333332007},{"name":"F#3","midi":54,"time":88.32291666666558,"velocity":0.7637795275590551,"duration":0.11249999999999716},{"name":"G3","midi":55,"time":88.43541666666557,"velocity":0.7637795275590551,"duration":0.11666666666666003},{"name":"F#4","midi":66,"time":88.55416666666557,"velocity":0.7637795275590551,"duration":0.11666666666666003},{"name":"A3","midi":57,"time":88.5562499999989,"velocity":0.7637795275590551,"duration":0.11249999999999716},{"name":"G4","midi":67,"time":88.67083333333223,"velocity":0.7637795275590551,"duration":0.1145833333333286},{"name":"B3","midi":59,"time":88.67291666666556,"velocity":0.7637795275590551,"duration":0.11249999999999716},{"name":"A4","midi":69,"time":88.78749999999889,"velocity":0.7559055118110236,"duration":0.1145833333333286},{"name":"C4","midi":60,"time":88.78749999999889,"velocity":0.7637795275590551,"duration":0.11249999999999716},{"name":"B4","midi":71,"time":88.90208333333221,"velocity":0.7559055118110236,"duration":0.11666666666666003},{"name":"D4","midi":62,"time":88.90416666666555,"velocity":0.7637795275590551,"duration":0.11249999999999716},{"name":"C5","midi":72,"time":89.01874999999887,"velocity":0.7559055118110236,"duration":0.4687499999999858},{"name":"F#3","midi":54,"time":89.0208333333322,"velocity":0.7637795275590551,"duration":0.23125000000000284},{"name":"D3","midi":50,"time":89.0208333333322,"velocity":0.7637795275590551,"duration":0.2291666666666714},{"name":"A4","midi":69,"time":89.25208333333221,"velocity":0.7559055118110236,"duration":0.23333333333332007},{"name":"C3","midi":48,"time":89.25416666666554,"velocity":0.7637795275590551,"duration":0.1145833333333286},{"name":"D3","midi":50,"time":89.3708333333322,"velocity":0.7637795275590551,"duration":0.1145833333333286},{"name":"B4","midi":71,"time":89.48749999999886,"velocity":0.7559055118110236,"duration":0.23124999999998863},{"name":"E3","midi":52,"time":89.48958333333219,"velocity":0.7637795275590551,"duration":0.11041666666666572},{"name":"G4","midi":67,"time":89.48958333333219,"velocity":0.7637795275590551,"duration":0.4624999999999915},{"name":"D3","midi":50,"time":89.60208333333219,"velocity":0.7637795275590551,"duration":0.1145833333333286},{"name":"A4","midi":69,"time":89.71874999999885,"velocity":0.7559055118110236,"duration":0.7020833333333059},{"name":"C3","midi":48,"time":89.72083333333218,"velocity":0.7637795275590551,"duration":0.2291666666666714},{"name":"G4","midi":67,"time":89.95208333333218,"velocity":0.7637795275590551,"duration":0.23124999999998863},{"name":"B2","midi":47,"time":89.95416666666551,"velocity":0.7637795275590551,"duration":0.11249999999999716},{"name":"C3","midi":48,"time":90.06874999999884,"velocity":0.7637795275590551,"duration":0.1145833333333286},{"name":"D3","midi":50,"time":90.1854166666655,"velocity":0.7637795275590551,"duration":0.1145833333333286},{"name":"F#4","midi":66,"time":90.1854166666655,"velocity":0.7637795275590551,"duration":0.2354166666666515},{"name":"C3","midi":48,"time":90.30208333333216,"velocity":0.7637795275590551,"duration":0.11666666666666003},{"name":"G4","midi":67,"time":90.42291666666549,"velocity":0.7637795275590551,"duration":0.22708333333332575},{"name":"B2","midi":47,"time":90.42291666666549,"velocity":0.7637795275590551,"duration":0.22708333333332575},{"name":"G5","midi":79,"time":90.53333333333215,"velocity":0.7086614173228346,"duration":0.11666666666666003},{"name":"F#5","midi":78,"time":90.65208333333214,"velocity":0.7086614173228346,"duration":0.11249999999999716},{"name":"C3","midi":48,"time":90.65208333333214,"velocity":0.7637795275590551,"duration":0.2291666666666572},{"name":"E5","midi":76,"time":90.76666666666547,"velocity":0.7086614173228346,"duration":0.1145833333333286},{"name":"D5","midi":74,"time":90.88333333333213,"velocity":0.7559055118110236,"duration":0.11666666666666003},{"name":"D3","midi":50,"time":90.88333333333213,"velocity":0.7637795275590551,"duration":0.23333333333332007},{"name":"F#5","midi":78,"time":90.99999999999879,"velocity":0.7086614173228346,"duration":0.1145833333333286},{"name":"E5","midi":76,"time":91.11666666666545,"velocity":0.7086614173228346,"duration":0.1145833333333286},{"name":"G3","midi":55,"time":91.11874999999878,"velocity":0.7637795275590551,"duration":0.2291666666666572},{"name":"F#5","midi":78,"time":91.23124999999878,"velocity":0.7086614173228346,"duration":0.11666666666666003},{"name":"E5","midi":76,"time":91.34999999999877,"velocity":0.7086614173228346,"duration":0.1145833333333286},{"name":"A2","midi":45,"time":91.34999999999877,"velocity":0.7637795275590551,"duration":0.4604166666666458},{"name":"D5","midi":74,"time":91.46666666666543,"velocity":0.7559055118110236,"duration":0.11249999999999716},{"name":"C5","midi":72,"time":91.57916666666543,"velocity":0.7559055118110236,"duration":0.11666666666666003},{"name":"E5","midi":76,"time":91.69583333333209,"velocity":0.7086614173228346,"duration":0.11249999999999716},{"name":"D5","midi":74,"time":91.81041666666542,"velocity":0.7559055118110236,"duration":0.11249999999999716},{"name":"B2","midi":47,"time":91.81249999999875,"velocity":0.7637795275590551,"duration":0.22291666666666288},{"name":"E5","midi":76,"time":91.92499999999875,"velocity":0.7086614173228346,"duration":0.11041666666666572},{"name":"D5","midi":74,"time":92.03749999999874,"velocity":0.7559055118110236,"duration":0.11249999999999716},{"name":"C3","midi":48,"time":92.03749999999874,"velocity":0.7637795275590551,"duration":0.22499999999999432},{"name":"C5","midi":72,"time":92.14999999999874,"velocity":0.7559055118110236,"duration":0.11041666666666572},{"name":"B4","midi":71,"time":92.26249999999874,"velocity":0.7559055118110236,"duration":0.11249999999999716},{"name":"D3","midi":50,"time":92.26458333333207,"velocity":0.7637795275590551,"duration":0.22499999999999432},{"name":"D5","midi":74,"time":92.37499999999874,"velocity":0.7559055118110236,"duration":0.1145833333333286},{"name":"C5","midi":72,"time":92.4916666666654,"velocity":0.7559055118110236,"duration":0.11041666666666572},{"name":"E3","midi":52,"time":92.4916666666654,"velocity":0.7637795275590551,"duration":0.22708333333332575},{"name":"D5","midi":74,"time":92.60416666666539,"velocity":0.7559055118110236,"duration":0.1145833333333286},{"name":"C5","midi":72,"time":92.71874999999872,"velocity":0.7559055118110236,"duration":0.11249999999999716},{"name":"F#2","midi":42,"time":92.72083333333205,"velocity":0.7637795275590551,"duration":0.4541666666666515},{"name":"B4","midi":71,"time":92.83124999999872,"velocity":0.7559055118110236,"duration":0.11249999999999716},{"name":"A4","midi":69,"time":92.94583333333205,"velocity":0.7559055118110236,"duration":0.11249999999999716},{"name":"C5","midi":72,"time":93.05833333333204,"velocity":0.7559055118110236,"duration":0.11666666666666003},{"name":"B4","midi":71,"time":93.1749999999987,"velocity":0.7559055118110236,"duration":0.1145833333333286},{"name":"G2","midi":43,"time":93.17708333333204,"velocity":0.7637795275590551,"duration":0.11041666666666572},{"name":"A4","midi":69,"time":93.28958333333203,"velocity":0.7559055118110236,"duration":0.1145833333333286},{"name":"A2","midi":45,"time":93.29166666666536,"velocity":0.7637795275590551,"duration":0.11249999999999716},{"name":"G4","midi":67,"time":93.40624999999869,"velocity":0.7637795275590551,"duration":0.1145833333333286},{"name":"B2","midi":47,"time":93.40624999999869,"velocity":0.7637795275590551,"duration":0.5749999999999744},{"name":"B4","midi":71,"time":93.52083333333202,"velocity":0.7559055118110236,"duration":0.11249999999999716},{"name":"F#4","midi":66,"time":93.63541666666535,"velocity":0.7637795275590551,"duration":0.1145833333333286},{"name":"D4","midi":62,"time":93.63541666666535,"velocity":0.7637795275590551,"duration":0.23124999999998863},{"name":"B4","midi":71,"time":93.74999999999868,"velocity":0.7559055118110236,"duration":0.11666666666666003},{"name":"C#4","midi":61,"time":93.86874999999867,"velocity":0.7637795275590551,"duration":0.22708333333332575},{"name":"E4","midi":64,"time":93.86874999999867,"velocity":0.7637795275590551,"duration":0.11041666666666572},{"name":"B4","midi":71,"time":93.98124999999867,"velocity":0.7559055118110236,"duration":0.1145833333333286},{"name":"A2","midi":45,"time":93.983333333332,"velocity":0.7637795275590551,"duration":0.11041666666666572},{"name":"D4","midi":62,"time":94.09791666666533,"velocity":0.7637795275590551,"duration":0.11041666666666572},{"name":"G2","midi":43,"time":94.09791666666533,"velocity":0.7637795275590551,"duration":0.11041666666666572},{"name":"B4","midi":71,"time":94.21041666666532,"velocity":0.7559055118110236,"duration":0.1145833333333286},{"name":"F#2","midi":42,"time":94.21041666666532,"velocity":0.7637795275590551,"duration":0.1145833333333286},{"name":"C#4","midi":61,"time":94.32499999999865,"velocity":0.7637795275590551,"duration":0.1145833333333286},{"name":"E2","midi":40,"time":94.32708333333198,"velocity":0.7637795275590551,"duration":0.11041666666666572},{"name":"B4","midi":71,"time":94.43958333333198,"velocity":0.7559055118110236,"duration":0.11249999999999716},{"name":"G2","midi":43,"time":94.44166666666531,"velocity":0.7637795275590551,"duration":0.11041666666666572},{"name":"A4","midi":69,"time":94.55416666666531,"velocity":0.7559055118110236,"duration":0.11041666666666572},{"name":"F#2","midi":42,"time":94.55416666666531,"velocity":0.7637795275590551,"duration":0.11041666666666572},{"name":"G4","midi":67,"time":94.66666666666531,"velocity":0.7637795275590551,"duration":0.11249999999999716},{"name":"G2","midi":43,"time":94.66666666666531,"velocity":0.7637795275590551,"duration":0.11041666666666572},{"name":"F#4","midi":66,"time":94.7791666666653,"velocity":0.7637795275590551,"duration":0.11041666666666572},{"name":"A2","midi":45,"time":94.78124999999864,"velocity":0.7637795275590551,"duration":0.5624999999999858},{"name":"A4","midi":69,"time":94.8916666666653,"velocity":0.7559055118110236,"duration":0.11249999999999716},{"name":"E4","midi":64,"time":95.0041666666653,"velocity":0.7637795275590551,"duration":0.11249999999999716},{"name":"C#4","midi":61,"time":95.00624999999863,"velocity":0.7637795275590551,"duration":0.22291666666666288},{"name":"A4","midi":69,"time":95.1166666666653,"velocity":0.7559055118110236,"duration":0.11041666666666572},{"name":"D4","midi":62,"time":95.2291666666653,"velocity":0.7637795275590551,"duration":0.11249999999999716},{"name":"B3","midi":59,"time":95.23124999999862,"velocity":0.7637795275590551,"duration":0.22499999999999432},{"name":"A4","midi":69,"time":95.34374999999862,"velocity":0.7559055118110236,"duration":0.11249999999999716},{"name":"G2","midi":43,"time":95.34583333333195,"velocity":0.7637795275590551,"duration":0.10833333333333428},{"name":"C#4","midi":61,"time":95.45833333333195,"velocity":0.7637795275590551,"duration":0.11041666666666572},{"name":"F#2","midi":42,"time":95.45833333333195,"velocity":0.7637795275590551,"duration":0.11041666666666572},{"name":"A4","midi":69,"time":95.57083333333195,"velocity":0.7559055118110236,"duration":0.11041666666666572},{"name":"E2","midi":40,"time":95.57083333333195,"velocity":0.7637795275590551,"duration":0.10833333333333428},{"name":"B3","midi":59,"time":95.68124999999861,"velocity":0.7637795275590551,"duration":0.11249999999999716},{"name":"D2","midi":38,"time":95.68333333333194,"velocity":0.7637795275590551,"duration":0.10833333333333428},{"name":"A4","midi":69,"time":95.79374999999861,"velocity":0.7559055118110236,"duration":0.11249999999999716},{"name":"F#2","midi":42,"time":95.79583333333194,"velocity":0.7637795275590551,"duration":0.11041666666666572},{"name":"G4","midi":67,"time":95.90833333333194,"velocity":0.7637795275590551,"duration":0.11249999999999716},{"name":"E2","midi":40,"time":95.90833333333194,"velocity":0.7637795275590551,"duration":0.11249999999999716},{"name":"F#4","midi":66,"time":96.02291666666527,"velocity":0.7637795275590551,"duration":0.11041666666666572},{"name":"F#2","midi":42,"time":96.02291666666527,"velocity":0.7637795275590551,"duration":0.10833333333333428},{"name":"E4","midi":64,"time":96.13333333333193,"velocity":0.7637795275590551,"duration":0.11249999999999716},{"name":"G2","midi":43,"time":96.13541666666526,"velocity":0.7637795275590551,"duration":0.5645833333333172},{"name":"G4","midi":67,"time":96.24791666666526,"velocity":0.7637795275590551,"duration":0.11041666666666572},{"name":"D4","midi":62,"time":96.35833333333193,"velocity":0.7637795275590551,"duration":0.1145833333333286},{"name":"B3","midi":59,"time":96.36041666666526,"velocity":0.7637795275590551,"duration":0.22708333333332575},{"name":"G4","midi":67,"time":96.47291666666526,"velocity":0.7637795275590551,"duration":0.11249999999999716},{"name":"C#4","midi":61,"time":96.58749999999858,"velocity":0.7637795275590551,"duration":0.11249999999999716},{"name":"A3","midi":57,"time":96.58958333333192,"velocity":0.7637795275590551,"duration":0.22708333333332575},{"name":"G4","midi":67,"time":96.70208333333191,"velocity":0.7637795275590551,"duration":0.11249999999999716},{"name":"F#2","midi":42,"time":96.70208333333191,"velocity":0.7637795275590551,"duration":0.11249999999999716},{"name":"B3","midi":59,"time":96.81666666666524,"velocity":0.7637795275590551,"duration":0.11249999999999716},{"name":"E2","midi":40,"time":96.81874999999857,"velocity":0.7637795275590551,"duration":0.10833333333333428},{"name":"G4","midi":67,"time":96.92916666666524,"velocity":0.7637795275590551,"duration":0.11249999999999716},{"name":"D2","midi":38,"time":96.93124999999857,"velocity":0.7637795275590551,"duration":0.10833333333333428},{"name":"A3","midi":57,"time":97.04166666666524,"velocity":0.7637795275590551,"duration":0.11041666666666572},{"name":"C#2","midi":37,"time":97.04374999999857,"velocity":0.7637795275590551,"duration":0.10833333333333428},{"name":"G4","midi":67,"time":97.15416666666523,"velocity":0.7637795275590551,"duration":0.1145833333333286},{"name":"E2","midi":40,"time":97.15416666666523,"velocity":0.7637795275590551,"duration":0.11249999999999716},{"name":"F#4","midi":66,"time":97.26874999999856,"velocity":0.7637795275590551,"duration":0.10833333333333428},{"name":"D2","midi":38,"time":97.2708333333319,"velocity":0.7637795275590551,"duration":0.10625000000000284},{"name":"D5","midi":74,"time":97.37916666666523,"velocity":0.7559055118110236,"duration":0.10833333333333428},{"name":"E2","midi":40,"time":97.37916666666523,"velocity":0.7637795275590551,"duration":0.10833333333333428},{"name":"C5","midi":72,"time":97.4895833333319,"velocity":0.7559055118110236,"duration":0.10833333333333428},{"name":"F#2","midi":42,"time":97.4895833333319,"velocity":0.7637795275590551,"duration":0.10833333333333428},{"name":"B4","midi":71,"time":97.59999999999856,"velocity":0.7559055118110236,"duration":0.10833333333333428},{"name":"D2","midi":38,"time":97.59999999999856,"velocity":0.7637795275590551,"duration":0.10833333333333428},{"name":"A4","midi":69,"time":97.71041666666522,"velocity":0.7559055118110236,"duration":0.10833333333333428},{"name":"G2","midi":43,"time":97.71041666666522,"velocity":0.7637795275590551,"duration":0.10833333333333428},{"name":"G4","midi":67,"time":97.82083333333189,"velocity":0.7637795275590551,"duration":0.11041666666666572},{"name":"D2","midi":38,"time":97.82083333333189,"velocity":0.7637795275590551,"duration":0.10833333333333428},{"name":"F#4","midi":66,"time":97.93124999999856,"velocity":0.7637795275590551,"duration":0.11041666666666572},{"name":"A2","midi":45,"time":97.93333333333189,"velocity":0.7637795275590551,"duration":0.10625000000000284},{"name":"E4","midi":64,"time":98.04374999999855,"velocity":0.7637795275590551,"duration":0.10833333333333428},{"name":"D2","midi":38,"time":98.04374999999855,"velocity":0.7637795275590551,"duration":0.10833333333333428},{"name":"D4","midi":62,"time":98.15416666666522,"velocity":0.7637795275590551,"duration":0.11041666666666572},{"name":"B2","midi":47,"time":98.15624999999855,"velocity":0.7637795275590551,"duration":0.10833333333333428},{"name":"C4","midi":60,"time":98.26666666666522,"velocity":0.7637795275590551,"duration":0.10833333333333428},{"name":"D2","midi":38,"time":98.26874999999855,"velocity":0.7637795275590551,"duration":0.10625000000000284},{"name":"B3","midi":59,"time":98.37499999999855,"velocity":0.7637795275590551,"duration":0.11249999999999716},{"name":"C3","midi":48,"time":98.37708333333188,"velocity":0.7637795275590551,"duration":0.11041666666666572},{"name":"A3","midi":57,"time":98.48958333333188,"velocity":0.7637795275590551,"duration":0.11041666666666572},{"name":"D2","midi":38,"time":98.48958333333188,"velocity":0.7637795275590551,"duration":0.11041666666666572},{"name":"G3","midi":55,"time":98.59999999999854,"velocity":0.7637795275590551,"duration":0.1145833333333286},{"name":"B2","midi":47,"time":98.59999999999854,"velocity":0.7637795275590551,"duration":0.11249999999999716},{"name":"A3","midi":57,"time":98.71458333333187,"velocity":0.7637795275590551,"duration":0.1145833333333286},{"name":"G3","midi":55,"time":98.71458333333187,"velocity":0.7637795275590551,"duration":0.1145833333333286},{"name":"B3","midi":59,"time":98.83124999999853,"velocity":0.7637795275590551,"duration":0.11041666666666572},{"name":"F3","midi":53,"time":98.83124999999853,"velocity":0.7637795275590551,"duration":0.11041666666666572},{"name":"E3","midi":52,"time":98.94374999999853,"velocity":0.7637795275590551,"duration":0.11041666666666572},{"name":"G3","midi":55,"time":98.94374999999853,"velocity":0.7637795275590551,"duration":0.11249999999999716},{"name":"C4","midi":60,"time":99.05624999999853,"velocity":0.7637795275590551,"duration":0.1145833333333286},{"name":"D3","midi":50,"time":99.05833333333186,"velocity":0.7637795275590551,"duration":0.11041666666666572},{"name":"G3","midi":55,"time":99.17083333333186,"velocity":0.7637795275590551,"duration":0.11041666666666572},{"name":"C3","midi":48,"time":99.17291666666519,"velocity":0.7637795275590551,"duration":0.10833333333333428},{"name":"D4","midi":62,"time":99.28333333333185,"velocity":0.7637795275590551,"duration":0.11249999999999716},{"name":"B2","midi":47,"time":99.28333333333185,"velocity":0.7637795275590551,"duration":0.11249999999999716},{"name":"G3","midi":55,"time":99.39791666666518,"velocity":0.7637795275590551,"duration":0.11041666666666572},{"name":"A2","midi":45,"time":99.39791666666518,"velocity":0.7637795275590551,"duration":0.10833333333333428},{"name":"E4","midi":64,"time":99.50833333333185,"velocity":0.7637795275590551,"duration":0.1145833333333286},{"name":"G2","midi":43,"time":99.51041666666518,"velocity":0.7637795275590551,"duration":0.11041666666666572},{"name":"G3","midi":55,"time":99.62291666666518,"velocity":0.7637795275590551,"duration":0.11249999999999716},{"name":"F2","midi":41,"time":99.62499999999851,"velocity":0.7637795275590551,"duration":0.11041666666666572},{"name":"F4","midi":65,"time":99.7374999999985,"velocity":0.7637795275590551,"duration":0.11249999999999716},{"name":"E2","midi":40,"time":99.7374999999985,"velocity":0.7637795275590551,"duration":0.11249999999999716},{"name":"G3","midi":55,"time":99.8499999999985,"velocity":0.7637795275590551,"duration":0.1145833333333286},{"name":"D2","midi":38,"time":99.85208333333183,"velocity":0.7637795275590551,"duration":0.11041666666666572},{"name":"E4","midi":64,"time":99.96458333333183,"velocity":0.7637795275590551,"duration":0.11249999999999716},{"name":"C2","midi":36,"time":99.96666666666516,"velocity":0.7637795275590551,"duration":0.11041666666666572},{"name":"C5","midi":72,"time":100.07916666666516,"velocity":0.7559055118110236,"duration":0.11041666666666572},{"name":"D2","midi":38,"time":100.07916666666516,"velocity":0.7637795275590551,"duration":0.11041666666666572},{"name":"B4","midi":71,"time":100.19166666666516,"velocity":0.7559055118110236,"duration":0.11249999999999716},{"name":"E2","midi":40,"time":100.19166666666516,"velocity":0.7637795275590551,"duration":0.11041666666666572},{"name":"D5","midi":74,"time":100.30416666666515,"velocity":0.7559055118110236,"duration":0.11249999999999716},{"name":"F#2","midi":42,"time":100.30624999999849,"velocity":0.7637795275590551,"duration":0.10833333333333428},{"name":"A4","midi":69,"time":100.41666666666515,"velocity":0.7559055118110236,"duration":0.11249999999999716},{"name":"G#2","midi":44,"time":100.41874999999848,"velocity":0.7637795275590551,"duration":0.11041666666666572},{"name":"D5","midi":74,"time":100.53124999999848,"velocity":0.7559055118110236,"duration":0.11041666666666572},{"name":"A2","midi":45,"time":100.53124999999848,"velocity":0.7637795275590551,"duration":0.11041666666666572},{"name":"G#4","midi":68,"time":100.64374999999848,"velocity":0.7559055118110236,"duration":0.11041666666666572},{"name":"B2","midi":47,"time":100.64374999999848,"velocity":0.7637795275590551,"duration":0.10833333333333428},{"name":"D5","midi":74,"time":100.75416666666514,"velocity":0.7559055118110236,"duration":0.1145833333333286},{"name":"C3","midi":48,"time":100.75624999999847,"velocity":0.7637795275590551,"duration":0.11041666666666572},{"name":"F#4","midi":66,"time":100.86874999999847,"velocity":0.7637795275590551,"duration":0.11041666666666572},{"name":"D3","midi":50,"time":100.8708333333318,"velocity":0.7637795275590551,"duration":0.10833333333333428},{"name":"D5","midi":74,"time":100.98124999999847,"velocity":0.7559055118110236,"duration":0.11249999999999716},{"name":"E3","midi":52,"time":100.98124999999847,"velocity":0.7637795275590551,"duration":0.11249999999999716},{"name":"E4","midi":64,"time":101.0958333333318,"velocity":0.7637795275590551,"duration":0.11249999999999716},{"name":"F#3","midi":54,"time":101.0958333333318,"velocity":0.7637795275590551,"duration":0.11041666666666572},{"name":"D5","midi":74,"time":101.2083333333318,"velocity":0.7559055118110236,"duration":0.11249999999999716},{"name":"G#3","midi":56,"time":101.21041666666513,"velocity":0.7637795275590551,"duration":0.10833333333333428},{"name":"C5","midi":72,"time":101.32083333333179,"velocity":0.7559055118110236,"duration":0.11249999999999716},{"name":"A3","midi":57,"time":101.32291666666512,"velocity":0.7637795275590551,"duration":0.11041666666666572},{"name":"A4","midi":69,"time":101.43541666666512,"velocity":0.7559055118110236,"duration":0.11249999999999716},{"name":"G3","midi":55,"time":101.43541666666512,"velocity":0.7637795275590551,"duration":0.11249999999999716},{"name":"B4","midi":71,"time":101.54999999999845,"velocity":0.7559055118110236,"duration":0.11249999999999716},{"name":"F#3","midi":54,"time":101.54999999999845,"velocity":0.7637795275590551,"duration":0.11041666666666572},{"name":"C#5","midi":73,"time":101.66249999999845,"velocity":0.7559055118110236,"duration":0.11249999999999716},{"name":"A3","midi":57,"time":101.66458333333178,"velocity":0.7637795275590551,"duration":0.11041666666666572},{"name":"D#5","midi":75,"time":101.77708333333177,"velocity":0.7559055118110236,"duration":0.1145833333333286},{"name":"E3","midi":52,"time":101.77708333333177,"velocity":0.7637795275590551,"duration":0.1145833333333286},{"name":"E5","midi":76,"time":101.89374999999843,"velocity":0.7086614173228346,"duration":0.11249999999999716},{"name":"A3","midi":57,"time":101.89374999999843,"velocity":0.7637795275590551,"duration":0.11041666666666572},{"name":"F#5","midi":78,"time":102.00624999999843,"velocity":0.7086614173228346,"duration":0.1145833333333286},{"name":"D#3","midi":51,"time":102.00833333333176,"velocity":0.7637795275590551,"duration":0.11041666666666572},{"name":"G5","midi":79,"time":102.12083333333176,"velocity":0.7086614173228346,"duration":0.11249999999999716},{"name":"A3","midi":57,"time":102.12291666666509,"velocity":0.7637795275590551,"duration":0.11041666666666572},{"name":"A5","midi":81,"time":102.23541666666509,"velocity":0.7086614173228346,"duration":0.11249999999999716},{"name":"C#3","midi":49,"time":102.23541666666509,"velocity":0.7637795275590551,"duration":0.11249999999999716},{"name":"B5","midi":83,"time":102.34999999999842,"velocity":0.7086614173228346,"duration":0.11041666666666572},{"name":"A3","midi":57,"time":102.34999999999842,"velocity":0.7637795275590551,"duration":0.11041666666666572},{"name":"C6","midi":84,"time":102.46041666666508,"velocity":0.7086614173228346,"duration":0.11249999999999716},{"name":"B2","midi":47,"time":102.46249999999841,"velocity":0.7637795275590551,"duration":0.11041666666666572},{"name":"D#5","midi":75,"time":102.57291666666508,"velocity":0.7559055118110236,"duration":0.11666666666666003},{"name":"A3","midi":57,"time":102.57499999999841,"velocity":0.7637795275590551,"duration":0.11249999999999716},{"name":"E5","midi":76,"time":102.68958333333174,"velocity":0.7086614173228346,"duration":0.22499999999999432},{"name":"G3","midi":55,"time":102.68958333333174,"velocity":0.7637795275590551,"duration":0.22499999999999432},{"name":"F#5","midi":78,"time":102.91666666666507,"velocity":0.7086614173228346,"duration":0.10833333333333428},{"name":"C4","midi":60,"time":102.91666666666507,"velocity":0.7637795275590551,"duration":0.22708333333332575},{"name":"E5","midi":76,"time":103.0249999999984,"velocity":0.7086614173228346,"duration":0.11666666666666003},{"name":"D#5","midi":75,"time":103.14374999999839,"velocity":0.7559055118110236,"duration":0.1145833333333286},{"name":"B3","midi":59,"time":103.14583333333172,"velocity":0.7637795275590551,"duration":0.22708333333332575},{"name":"E5","midi":76,"time":103.25833333333172,"velocity":0.7086614173228346,"duration":0.1145833333333286},{"name":"F#5","midi":78,"time":103.37499999999838,"velocity":0.7086614173228346,"duration":0.22499999999999432},{"name":"A3","midi":57,"time":103.37499999999838,"velocity":0.7637795275590551,"duration":0.22499999999999432},{"name":"G5","midi":79,"time":103.6020833333317,"velocity":0.7086614173228346,"duration":0.1145833333333286},{"name":"B3","midi":59,"time":103.6020833333317,"velocity":0.7637795275590551,"duration":0.23124999999998863},{"name":"F#5","midi":78,"time":103.71666666666503,"velocity":0.7086614173228346,"duration":0.1145833333333286},{"name":"E5","midi":76,"time":103.8333333333317,"velocity":0.7086614173228346,"duration":0.11249999999999716},{"name":"B2","midi":47,"time":103.83541666666503,"velocity":0.7637795275590551,"duration":0.22499999999999432},{"name":"F#5","midi":78,"time":103.94791666666502,"velocity":0.7086614173228346,"duration":0.11249999999999716},{"name":"G5","midi":79,"time":104.06249999999835,"velocity":0.7086614173228346,"duration":0.2291666666666572},{"name":"E3","midi":52,"time":104.06249999999835,"velocity":0.7637795275590551,"duration":0.11249999999999716},{"name":"F#3","midi":54,"time":104.17499999999835,"velocity":0.7637795275590551,"duration":0.1145833333333286},{"name":"F#5","midi":78,"time":104.29166666666501,"velocity":0.7086614173228346,"duration":0.23124999999998863},{"name":"G3","midi":55,"time":104.29374999999834,"velocity":0.7637795275590551,"duration":0.11249999999999716},{"name":"E3","midi":52,"time":104.40624999999834,"velocity":0.7637795275590551,"duration":0.11666666666666003},{"name":"E5","midi":76,"time":104.52499999999833,"velocity":0.7086614173228346,"duration":0.22708333333332575},{"name":"A3","midi":57,"time":104.52499999999833,"velocity":0.7637795275590551,"duration":0.11041666666666572},{"name":"E3","midi":52,"time":104.63749999999833,"velocity":0.7637795275590551,"duration":0.1145833333333286},{"name":"B4","midi":71,"time":104.75416666666499,"velocity":0.7559055118110236,"duration":0.2291666666666572},{"name":"B3","midi":59,"time":104.75416666666499,"velocity":0.7637795275590551,"duration":0.1145833333333286},{"name":"E3","midi":52,"time":104.86874999999831,"velocity":0.7637795275590551,"duration":0.11249999999999716},{"name":"A5","midi":81,"time":104.98333333333164,"velocity":0.7086614173228346,"duration":0.4604166666666458},{"name":"C#4","midi":61,"time":104.98541666666497,"velocity":0.7637795275590551,"duration":0.11249999999999716},{"name":"E3","midi":52,"time":105.0999999999983,"velocity":0.7637795275590551,"duration":0.11249999999999716},{"name":"D#4","midi":63,"time":105.2124999999983,"velocity":0.7637795275590551,"duration":0.11249999999999716},{"name":"E3","midi":52,"time":105.32708333333163,"velocity":0.7637795275590551,"duration":0.1145833333333286},{"name":"G5","midi":79,"time":105.44374999999829,"velocity":0.7086614173228346,"duration":0.23124999999998863},{"name":"E4","midi":64,"time":105.44583333333162,"velocity":0.7637795275590551,"duration":0.22708333333332575},{"name":"D#4","midi":63,"time":105.55624999999829,"velocity":0.7637795275590551,"duration":0.11666666666666003},{"name":"F#5","midi":78,"time":105.67499999999828,"velocity":0.7086614173228346,"duration":0.22499999999999432},{"name":"E4","midi":64,"time":105.67499999999828,"velocity":0.7637795275590551,"duration":0.11041666666666572},{"name":"F#4","midi":66,"time":105.78541666666494,"velocity":0.7637795275590551,"duration":0.1145833333333286},{"name":"E5","midi":76,"time":105.9020833333316,"velocity":0.7086614173228346,"duration":0.23124999999998863},{"name":"G4","midi":67,"time":105.9020833333316,"velocity":0.7637795275590551,"duration":0.1145833333333286},{"name":"E4","midi":64,"time":106.01666666666493,"velocity":0.7637795275590551,"duration":0.1145833333333286},{"name":"D#5","midi":75,"time":106.13333333333159,"velocity":0.7559055118110236,"duration":0.2291666666666572},{"name":"F#4","midi":66,"time":106.13541666666492,"velocity":0.7637795275590551,"duration":0.11249999999999716},{"name":"E4","midi":64,"time":106.24999999999825,"velocity":0.7637795275590551,"duration":0.11249999999999716},{"name":"C6","midi":84,"time":106.36458333333158,"velocity":0.6771653543307087,"duration":0.4583333333333144},{"name":"F#4","midi":66,"time":106.36458333333158,"velocity":0.7637795275590551,"duration":0.11249999999999716},{"name":"G4","midi":67,"time":106.47916666666491,"velocity":0.7637795275590551,"duration":0.11249999999999716},{"name":"A4","midi":69,"time":106.59374999999824,"velocity":0.7244094488188977,"duration":0.1145833333333286},{"name":"F#4","midi":66,"time":106.70833333333157,"velocity":0.7637795275590551,"duration":0.1145833333333286},{"name":"B5","midi":83,"time":106.82499999999823,"velocity":0.6771653543307087,"duration":0.22499999999999432},{"name":"G4","midi":67,"time":106.82499999999823,"velocity":0.7637795275590551,"duration":0.22499999999999432},{"name":"C6","midi":84,"time":107.05208333333155,"velocity":0.6771653543307087,"duration":0.1145833333333286},{"name":"A4","midi":69,"time":107.05208333333155,"velocity":0.7244094488188977,"duration":0.1145833333333286},{"name":"B5","midi":83,"time":107.16874999999821,"velocity":0.6771653543307087,"duration":0.11249999999999716},{"name":"G4","midi":67,"time":107.16874999999821,"velocity":0.7637795275590551,"duration":0.11249999999999716},{"name":"A5","midi":81,"time":107.28124999999821,"velocity":0.6771653543307087,"duration":0.1145833333333286},{"name":"F#4","midi":66,"time":107.28333333333154,"velocity":0.7637795275590551,"duration":0.11041666666666572},{"name":"G5","midi":79,"time":107.39583333333154,"velocity":0.6771653543307087,"duration":0.1145833333333286},{"name":"E4","midi":64,"time":107.39791666666487,"velocity":0.7637795275590551,"duration":0.11041666666666572},{"name":"A4","midi":69,"time":107.51041666666487,"velocity":0.7244094488188977,"duration":0.799999999999983},{"name":"F#5","midi":78,"time":107.51041666666487,"velocity":0.6771653543307087,"duration":0.2291666666666714},{"name":"A5","midi":81,"time":107.73958333333154,"velocity":0.6771653543307087,"duration":0.11249999999999716},{"name":"G5","midi":79,"time":107.85416666666487,"velocity":0.6771653543307087,"duration":0.11249999999999716},{"name":"F#5","midi":78,"time":107.9687499999982,"velocity":0.6771653543307087,"duration":0.1145833333333286},{"name":"E5","midi":76,"time":108.08333333333152,"velocity":0.6771653543307087,"duration":0.1145833333333286},{"name":"D#5","midi":75,"time":108.19791666666485,"velocity":0.7244094488188977,"duration":0.22708333333332575},{"name":"G4","midi":67,"time":108.31249999999818,"velocity":0.7637795275590551,"duration":0.11249999999999716},{"name":"A5","midi":81,"time":108.42708333333151,"velocity":0.6771653543307087,"duration":0.2291666666666572},{"name":"F#4","midi":66,"time":108.42708333333151,"velocity":0.7637795275590551,"duration":0.1145833333333286},{"name":"A4","midi":69,"time":108.54166666666484,"velocity":0.7244094488188977,"duration":0.11249999999999716},{"name":"G5","midi":79,"time":108.65624999999817,"velocity":0.6771653543307087,"duration":0.22708333333332575},{"name":"E4","midi":64,"time":108.6583333333315,"velocity":0.7637795275590551,"duration":0.11041666666666572},{"name":"A4","midi":69,"time":108.7708333333315,"velocity":0.7244094488188977,"duration":0.11249999999999716},{"name":"F#5","midi":78,"time":108.88541666666482,"velocity":0.6771653543307087,"duration":0.22499999999999432},{"name":"D#4","midi":63,"time":108.88541666666482,"velocity":0.7637795275590551,"duration":0.11041666666666572},{"name":"A4","midi":69,"time":108.99583333333149,"velocity":0.7244094488188977,"duration":0.11249999999999716},{"name":"E5","midi":76,"time":109.11041666666482,"velocity":0.6771653543307087,"duration":0.22708333333332575},{"name":"C#4","midi":61,"time":109.11249999999815,"velocity":0.7637795275590551,"duration":0.11041666666666572},{"name":"A4","midi":69,"time":109.22499999999815,"velocity":0.7244094488188977,"duration":0.11249999999999716},{"name":"D#5","midi":75,"time":109.33958333333148,"velocity":0.7244094488188977,"duration":0.22708333333332575},{"name":"B3","midi":59,"time":109.33958333333148,"velocity":0.7637795275590551,"duration":0.11041666666666572},{"name":"A4","midi":69,"time":109.45208333333147,"velocity":0.7244094488188977,"duration":0.11249999999999716},{"name":"E5","midi":76,"time":109.5666666666648,"velocity":0.6771653543307087,"duration":0.22499999999999432},{"name":"G4","midi":67,"time":109.56874999999813,"velocity":0.7637795275590551,"duration":0.22291666666666288},{"name":"D5","midi":74,"time":109.79374999999813,"velocity":0.7244094488188977,"duration":0.22708333333332575},{"name":"F#4","midi":66,"time":109.79374999999813,"velocity":0.7637795275590551,"duration":0.11041666666666572},{"name":"G4","midi":67,"time":109.90624999999812,"velocity":0.7637795275590551,"duration":0.11249999999999716},{"name":"C5","midi":72,"time":110.02083333333145,"velocity":0.7244094488188977,"duration":0.22499999999999432},{"name":"A4","midi":69,"time":110.02291666666478,"velocity":0.7244094488188977,"duration":0.11041666666666572},{"name":"G4","midi":67,"time":110.13333333333145,"velocity":0.7637795275590551,"duration":0.11249999999999716},{"name":"D5","midi":74,"time":110.24791666666478,"velocity":0.7244094488188977,"duration":0.22291666666666288},{"name":"F#4","midi":66,"time":110.24791666666478,"velocity":0.7637795275590551,"duration":0.22083333333333144},{"name":"C5","midi":72,"time":110.47083333333144,"velocity":0.7244094488188977,"duration":0.22291666666666288},{"name":"E4","midi":64,"time":110.47291666666477,"velocity":0.7637795275590551,"duration":0.10833333333333428},{"name":"F#4","midi":66,"time":110.58124999999811,"velocity":0.7637795275590551,"duration":0.11249999999999716},{"name":"B4","midi":71,"time":110.69583333333144,"velocity":0.7244094488188977,"duration":0.22708333333332575},{"name":"G4","midi":67,"time":110.69583333333144,"velocity":0.7637795275590551,"duration":0.11041666666666572},{"name":"F#4","midi":66,"time":110.80833333333143,"velocity":0.7637795275590551,"duration":0.11249999999999716},{"name":"C5","midi":72,"time":110.92291666666476,"velocity":0.7244094488188977,"duration":0.1145833333333286},{"name":"E4","midi":64,"time":110.9249999999981,"velocity":0.7637795275590551,"duration":0.2291666666666572},{"name":"C6","midi":84,"time":111.03749999999809,"velocity":0.6771653543307087,"duration":0.1145833333333286},{"name":"B5","midi":83,"time":111.15416666666475,"velocity":0.6771653543307087,"duration":0.1145833333333286},{"name":"F#4","midi":66,"time":111.15624999999808,"velocity":0.7637795275590551,"duration":0.23333333333332007},{"name":"A5","midi":81,"time":111.27083333333141,"velocity":0.6771653543307087,"duration":0.11666666666666003},{"name":"G5","midi":79,"time":111.3895833333314,"velocity":0.6771653543307087,"duration":0.1145833333333286},{"name":"G4","midi":67,"time":111.3895833333314,"velocity":0.7637795275590551,"duration":0.2354166666666515},{"name":"B5","midi":83,"time":111.50624999999806,"velocity":0.6771653543307087,"duration":0.11666666666666003},{"name":"A5","midi":81,"time":111.62499999999805,"velocity":0.6771653543307087,"duration":0.11666666666666003},{"name":"C5","midi":72,"time":111.62499999999805,"velocity":0.7244094488188977,"duration":0.2354166666666515},{"name":"B5","midi":83,"time":111.74166666666471,"velocity":0.6771653543307087,"duration":0.11666666666666003},{"name":"A5","midi":81,"time":111.8604166666647,"velocity":0.6771653543307087,"duration":0.11249999999999716},{"name":"D#4","midi":63,"time":111.86249999999804,"velocity":0.7637795275590551,"duration":0.4604166666666458},{"name":"G5","midi":79,"time":111.97499999999803,"velocity":0.6771653543307087,"duration":0.1145833333333286},{"name":"F#5","midi":78,"time":112.08958333333136,"velocity":0.6771653543307087,"duration":0.1145833333333286},{"name":"A5","midi":81,"time":112.20624999999802,"velocity":0.6771653543307087,"duration":0.11666666666666003},{"name":"G5","midi":79,"time":112.32499999999801,"velocity":0.6771653543307087,"duration":0.11041666666666572},{"name":"E4","midi":64,"time":112.32499999999801,"velocity":0.7637795275590551,"duration":0.22499999999999432},{"name":"A5","midi":81,"time":112.43749999999801,"velocity":0.6771653543307087,"duration":0.11249999999999716},{"name":"G5","midi":79,"time":112.55208333333134,"velocity":0.6771653543307087,"duration":0.11666666666666003},{"name":"F#4","midi":66,"time":112.55208333333134,"velocity":0.7637795275590551,"duration":0.23124999999998863},{"name":"F#5","midi":78,"time":112.668749999998,"velocity":0.6771653543307087,"duration":0.1145833333333286},{"name":"E5","midi":76,"time":112.78541666666466,"velocity":0.6771653543307087,"duration":0.11666666666666003},{"name":"G4","midi":67,"time":112.78749999999799,"velocity":0.7637795275590551,"duration":0.2291666666666572},{"name":"G5","midi":79,"time":112.90208333333132,"velocity":0.6771653543307087,"duration":0.1145833333333286},{"name":"F#5","midi":78,"time":113.01874999999798,"velocity":0.6771653543307087,"duration":0.10833333333333428},{"name":"A4","midi":69,"time":113.01874999999798,"velocity":0.7244094488188977,"duration":0.22499999999999432},{"name":"G5","midi":79,"time":113.12916666666464,"velocity":0.6771653543307087,"duration":0.11249999999999716},{"name":"F#5","midi":78,"time":113.24374999999797,"velocity":0.6771653543307087,"duration":0.11041666666666572},{"name":"B3","midi":59,"time":113.2458333333313,"velocity":0.7637795275590551,"duration":0.45208333333332007},{"name":"E5","midi":76,"time":113.35416666666464,"velocity":0.6771653543307087,"duration":0.1145833333333286},{"name":"D#5","midi":75,"time":113.46874999999797,"velocity":0.7244094488188977,"duration":0.11249999999999716},{"name":"F#5","midi":78,"time":113.5833333333313,"velocity":0.6771653543307087,"duration":0.11249999999999716},{"name":"E5","midi":76,"time":113.69791666666463,"velocity":0.6771653543307087,"duration":0.2291666666666572},{"name":"C4","midi":60,"time":113.69999999999796,"velocity":0.7637795275590551,"duration":0.11249999999999716},{"name":"B3","midi":59,"time":113.81249999999795,"velocity":0.7637795275590551,"duration":0.11249999999999716},{"name":"F#5","midi":78,"time":113.92708333333128,"velocity":0.6771653543307087,"duration":0.1145833333333286},{"name":"A3","midi":57,"time":113.92916666666461,"velocity":0.7637795275590551,"duration":0.11041666666666572},{"name":"G5","midi":79,"time":114.04166666666461,"velocity":0.6771653543307087,"duration":0.11249999999999716},{"name":"B3","midi":59,"time":114.04374999999794,"velocity":0.7637795275590551,"duration":0.11041666666666572},{"name":"A5","midi":81,"time":114.15624999999794,"velocity":0.6771653543307087,"duration":0.45624999999998295},{"name":"C4","midi":60,"time":114.15624999999794,"velocity":0.7637795275590551,"duration":0.1145833333333286},{"name":"D4","midi":62,"time":114.27083333333127,"velocity":0.7637795275590551,"duration":0.11249999999999716},{"name":"E4","midi":64,"time":114.3854166666646,"velocity":0.7637795275590551,"duration":0.11249999999999716},{"name":"D#4","midi":63,"time":114.49999999999793,"velocity":0.7637795275590551,"duration":0.11249999999999716},{"name":"G5","midi":79,"time":114.61458333333125,"velocity":0.6771653543307087,"duration":0.1145833333333286},{"name":"E4","midi":64,"time":114.61458333333125,"velocity":0.7637795275590551,"duration":0.11249999999999716},{"name":"A5","midi":81,"time":114.72916666666458,"velocity":0.6771653543307087,"duration":0.11249999999999716},{"name":"F#4","midi":66,"time":114.73124999999791,"velocity":0.7637795275590551,"duration":0.10833333333333428},{"name":"B5","midi":83,"time":114.84166666666458,"velocity":0.6771653543307087,"duration":0.4541666666666515},{"name":"G4","midi":67,"time":114.84374999999791,"velocity":0.7637795275590551,"duration":0.11041666666666572},{"name":"A4","midi":69,"time":114.95416666666458,"velocity":0.7244094488188977,"duration":0.1145833333333286},{"name":"B4","midi":71,"time":115.0687499999979,"velocity":0.7244094488188977,"duration":0.9062499999999716},{"name":"B2","midi":47,"time":115.17916666666457,"velocity":0.7637795275590551,"duration":0.05833333333333712},{"name":"C#3","midi":49,"time":115.23958333333124,"velocity":0.7637795275590551,"duration":0.054166666666660035},{"name":"A5","midi":81,"time":115.29583333333123,"velocity":0.6771653543307087,"duration":0.22499999999999432},{"name":"D#3","midi":51,"time":115.29791666666456,"velocity":0.7637795275590551,"duration":0.10833333333333428},{"name":"B2","midi":47,"time":115.4062499999979,"velocity":0.7637795275590551,"duration":0.1145833333333286},{"name":"G5","midi":79,"time":115.52291666666456,"velocity":0.6771653543307087,"duration":0.22499999999999432},{"name":"E3","midi":52,"time":115.52291666666456,"velocity":0.7637795275590551,"duration":0.10833333333333428},{"name":"B2","midi":47,"time":115.63333333333122,"velocity":0.7637795275590551,"duration":0.11249999999999716},{"name":"F#5","midi":78,"time":115.74791666666455,"velocity":0.6771653543307087,"duration":0.11249999999999716},{"name":"F#3","midi":54,"time":115.74999999999788,"velocity":0.7637795275590551,"duration":0.11041666666666572},{"name":"G5","midi":79,"time":115.86249999999788,"velocity":0.6771653543307087,"duration":0.11249999999999716},{"name":"B2","midi":47,"time":115.86249999999788,"velocity":0.7637795275590551,"duration":0.11249999999999716},{"name":"C5","midi":72,"time":115.97708333333121,"velocity":0.7244094488188977,"duration":0.2291666666666572},{"name":"A5","midi":81,"time":115.97708333333121,"velocity":0.6771653543307087,"duration":0.23124999999998863},{"name":"G3","midi":55,"time":115.97916666666454,"velocity":0.7637795275590551,"duration":0.11041666666666572},{"name":"B2","midi":47,"time":116.09166666666454,"velocity":0.7637795275590551,"duration":0.1145833333333286},{"name":"D#5","midi":75,"time":116.2083333333312,"velocity":0.7244094488188977,"duration":0.2291666666666572},{"name":"F#4","midi":66,"time":116.21041666666453,"velocity":0.7637795275590551,"duration":0.22708333333332575},{"name":"A3","midi":57,"time":116.21041666666453,"velocity":0.7637795275590551,"duration":0.11041666666666572},{"name":"B2","midi":47,"time":116.3208333333312,"velocity":0.7637795275590551,"duration":0.1145833333333286},{"name":"E5","midi":76,"time":116.43958333333119,"velocity":0.6771653543307087,"duration":0.4479166666666572},{"name":"E4","midi":64,"time":116.43958333333119,"velocity":0.7637795275590551,"duration":0.11041666666666572},{"name":"G3","midi":55,"time":116.44166666666452,"velocity":0.7637795275590551,"duration":0.10625000000000284},{"name":"F#3","midi":54,"time":116.54999999999785,"velocity":0.7637795275590551,"duration":0.1145833333333286},{"name":"F#4","midi":66,"time":116.54999999999785,"velocity":0.7637795275590551,"duration":0.11249999999999716},{"name":"E3","midi":52,"time":116.66458333333118,"velocity":0.7637795275590551,"duration":0.11041666666666572},{"name":"G4","midi":67,"time":116.66666666666451,"velocity":0.7637795275590551,"duration":0.5604166666666544},{"name":"G3","midi":55,"time":116.77499999999785,"velocity":0.7637795275590551,"duration":0.11249999999999716},{"name":"B4","midi":71,"time":116.88749999999784,"velocity":0.7480314960629921,"duration":0.22499999999999432},{"name":"D3","midi":50,"time":116.88958333333117,"velocity":0.7637795275590551,"duration":0.11041666666666572},{"name":"G3","midi":55,"time":116.99999999999784,"velocity":0.7637795275590551,"duration":0.11249999999999716},{"name":"A4","midi":69,"time":117.11458333333117,"velocity":0.7480314960629921,"duration":1.1083333333333059},{"name":"C#3","midi":49,"time":117.11458333333117,"velocity":0.7637795275590551,"duration":0.11041666666666572},{"name":"G3","midi":55,"time":117.22708333333117,"velocity":0.7637795275590551,"duration":0.11249999999999716},{"name":"F#4","midi":66,"time":117.2291666666645,"velocity":0.7637795275590551,"duration":0.10833333333333428},{"name":"E4","midi":64,"time":117.3416666666645,"velocity":0.7637795275590551,"duration":0.11249999999999716},{"name":"B2","midi":47,"time":117.3416666666645,"velocity":0.7637795275590551,"duration":0.11041666666666572},{"name":"D4","midi":62,"time":117.45416666666449,"velocity":0.7637795275590551,"duration":0.11041666666666572},{"name":"G3","midi":55,"time":117.45416666666449,"velocity":0.7637795275590551,"duration":0.11041666666666572},{"name":"C#4","midi":61,"time":117.56666666666449,"velocity":0.7637795275590551,"duration":0.11041666666666572},{"name":"A2","midi":45,"time":117.56874999999782,"velocity":0.7637795275590551,"duration":0.10833333333333428},{"name":"G3","midi":55,"time":117.67708333333115,"velocity":0.7637795275590551,"duration":0.1145833333333286},{"name":"E4","midi":64,"time":117.67916666666449,"velocity":0.7637795275590551,"duration":0.11249999999999716},{"name":"D4","midi":62,"time":117.79374999999781,"velocity":0.7637795275590551,"duration":0.11041666666666572},{"name":"F#3","midi":54,"time":117.79374999999781,"velocity":0.7637795275590551,"duration":0.10833333333333428},{"name":"E3","midi":52,"time":117.90416666666448,"velocity":0.7637795275590551,"duration":0.1145833333333286},{"name":"E4","midi":64,"time":117.90624999999781,"velocity":0.7637795275590551,"duration":0.11041666666666572},{"name":"F#4","midi":66,"time":118.01874999999781,"velocity":0.7637795275590551,"duration":0.44999999999998863},{"name":"D3","midi":50,"time":118.01874999999781,"velocity":0.7637795275590551,"duration":0.11041666666666572},{"name":"F#3","midi":54,"time":118.12916666666447,"velocity":0.7637795275590551,"duration":0.1145833333333286},{"name":"A4","midi":69,"time":118.2437499999978,"velocity":0.7480314960629921,"duration":0.22499999999999432},{"name":"C#3","midi":49,"time":118.24583333333113,"velocity":0.7637795275590551,"duration":0.10833333333333428},{"name":"F#3","midi":54,"time":118.35416666666447,"velocity":0.7637795275590551,"duration":0.11249999999999716},{"name":"G4","midi":67,"time":118.47083333333113,"velocity":0.7637795275590551,"duration":1.104166666666643},{"name":"B2","midi":47,"time":118.47083333333113,"velocity":0.7637795275590551,"duration":0.10833333333333428},{"name":"E4","midi":64,"time":118.57916666666446,"velocity":0.7637795275590551,"duration":0.10625000000000284},{"name":"F#3","midi":54,"time":118.5812499999978,"velocity":0.7637795275590551,"duration":0.11041666666666572},{"name":"D4","midi":62,"time":118.69166666666446,"velocity":0.7637795275590551,"duration":0.10833333333333428},{"name":"A2","midi":45,"time":118.69374999999779,"velocity":0.7637795275590551,"duration":0.11041666666666572},{"name":"C#4","midi":61,"time":118.80624999999779,"velocity":0.7637795275590551,"duration":0.10625000000000284},{"name":"F#3","midi":54,"time":118.80624999999779,"velocity":0.7637795275590551,"duration":0.11249999999999716},{"name":"B3","midi":59,"time":118.92083333333112,"velocity":0.7637795275590551,"duration":0.10625000000000284},{"name":"G2","midi":43,"time":118.92083333333112,"velocity":0.7637795275590551,"duration":0.11249999999999716},{"name":"F#3","midi":54,"time":119.03333333333111,"velocity":0.7637795275590551,"duration":0.1145833333333286},{"name":"D4","midi":62,"time":119.03541666666445,"velocity":0.7637795275590551,"duration":0.11249999999999716},{"name":"C#4","midi":61,"time":119.14999999999777,"velocity":0.7637795275590551,"duration":0.10833333333333428},{"name":"E3","midi":52,"time":119.14999999999777,"velocity":0.7637795275590551,"duration":0.10625000000000284},{"name":"D3","midi":50,"time":119.25833333333111,"velocity":0.7637795275590551,"duration":0.11249999999999716},{"name":"D4","midi":62,"time":119.26041666666444,"velocity":0.7637795275590551,"duration":0.10833333333333428},{"name":"C#3","midi":49,"time":119.3708333333311,"velocity":0.7637795275590551,"duration":0.11041666666666572},{"name":"E4","midi":64,"time":119.37291666666444,"velocity":0.7637795275590551,"duration":0.5645833333333172},{"name":"E3","midi":52,"time":119.48124999999777,"velocity":0.7637795275590551,"duration":0.1145833333333286},{"name":"G4","midi":67,"time":119.5958333333311,"velocity":0.7637795275590551,"duration":0.2291666666666572},{"name":"B2","midi":47,"time":119.59791666666443,"velocity":0.7637795275590551,"duration":0.11041666666666572},{"name":"E3","midi":52,"time":119.71041666666443,"velocity":0.7637795275590551,"duration":0.11249999999999716},{"name":"F#4","midi":66,"time":119.82499999999776,"velocity":0.7637795275590551,"duration":0.7958333333333059},{"name":"A#2","midi":46,"time":119.82499999999776,"velocity":0.7637795275590551,"duration":0.11249999999999716},{"name":"D4","midi":62,"time":119.93958333333109,"velocity":0.7637795275590551,"duration":0.11041666666666572},{"name":"E3","midi":52,"time":119.93958333333109,"velocity":0.7637795275590551,"duration":0.11249999999999716},{"name":"C#4","midi":61,"time":120.05208333333108,"velocity":0.7637795275590551,"duration":0.11249999999999716},{"name":"G#2","midi":44,"time":120.05416666666441,"velocity":0.7637795275590551,"duration":0.10833333333333428},{"name":"E3","midi":52,"time":120.16458333333108,"velocity":0.7637795275590551,"duration":0.11249999999999716},{"name":"B3","midi":59,"time":120.16666666666441,"velocity":0.7637795275590551,"duration":0.11041666666666572},{"name":"A#3","midi":58,"time":120.27916666666441,"velocity":0.7637795275590551,"duration":0.11249999999999716},{"name":"F#2","midi":42,"time":120.27916666666441,"velocity":0.7637795275590551,"duration":0.11249999999999716},{"name":"C#4","midi":61,"time":120.39374999999774,"velocity":0.7637795275590551,"duration":0.11041666666666572},{"name":"E3","midi":52,"time":120.39374999999774,"velocity":0.7637795275590551,"duration":0.11249999999999716},{"name":"B3","midi":59,"time":120.50624999999773,"velocity":0.7637795275590551,"duration":0.2354166666666515},{"name":"D3","midi":50,"time":120.50833333333107,"velocity":0.7637795275590551,"duration":0.11249999999999716},{"name":"B4","midi":71,"time":120.6229166666644,"velocity":0.7244094488188977,"duration":0.11666666666666003},{"name":"F#3","midi":54,"time":120.6229166666644,"velocity":0.7637795275590551,"duration":0.11666666666666003},{"name":"C#5","midi":73,"time":120.74166666666439,"velocity":0.7244094488188977,"duration":0.11874999999999147},{"name":"E3","midi":52,"time":120.74374999999772,"velocity":0.7637795275590551,"duration":0.1145833333333286},{"name":"B4","midi":71,"time":120.86041666666438,"velocity":0.7244094488188977,"duration":0.11666666666666003},{"name":"D3","midi":50,"time":120.86249999999771,"velocity":0.7637795275590551,"duration":0.1145833333333286},{"name":"A#4","midi":70,"time":120.97916666666437,"velocity":0.7244094488188977,"duration":0.11249999999999716},{"name":"C#3","midi":49,"time":120.97916666666437,"velocity":0.7637795275590551,"duration":0.11249999999999716},{"name":"B4","midi":71,"time":121.0937499999977,"velocity":0.7244094488188977,"duration":0.1145833333333286},{"name":"B2","midi":47,"time":121.0937499999977,"velocity":0.7637795275590551,"duration":0.11249999999999716},{"name":"C#5","midi":73,"time":121.20833333333103,"velocity":0.7244094488188977,"duration":0.22499999999999432},{"name":"A#2","midi":46,"time":121.21041666666436,"velocity":0.7637795275590551,"duration":0.10833333333333428},{"name":"C#3","midi":49,"time":121.32083333333102,"velocity":0.7637795275590551,"duration":0.11249999999999716},{"name":"D5","midi":74,"time":121.43541666666435,"velocity":0.7244094488188977,"duration":0.11041666666666572},{"name":"B2","midi":47,"time":121.43541666666435,"velocity":0.7637795275590551,"duration":0.11041666666666572},{"name":"C#5","midi":73,"time":121.54791666666435,"velocity":0.7244094488188977,"duration":0.11041666666666572},{"name":"A#2","midi":46,"time":121.54791666666435,"velocity":0.7637795275590551,"duration":0.10833333333333428},{"name":"B4","midi":71,"time":121.65833333333102,"velocity":0.7244094488188977,"duration":0.11249999999999716},{"name":"G#2","midi":44,"time":121.66041666666435,"velocity":0.7637795275590551,"duration":0.10833333333333428},{"name":"C#5","midi":73,"time":121.77083333333101,"velocity":0.7244094488188977,"duration":0.11249999999999716},{"name":"F#2","midi":42,"time":121.77291666666434,"velocity":0.7637795275590551,"duration":0.11041666666666572},{"name":"D5","midi":74,"time":121.88541666666434,"velocity":0.7244094488188977,"duration":0.22708333333332575},{"name":"B2","midi":47,"time":121.88541666666434,"velocity":0.7637795275590551,"duration":0.22499999999999432},{"name":"C#5","midi":73,"time":122.11249999999767,"velocity":0.7244094488188977,"duration":0.2291666666666572},{"name":"C#3","midi":49,"time":122.114583333331,"velocity":0.7637795275590551,"duration":0.11249999999999716},{"name":"B2","midi":47,"time":122.22916666666433,"velocity":0.7637795275590551,"duration":0.11249999999999716},{"name":"B4","midi":71,"time":122.34374999999766,"velocity":0.7244094488188977,"duration":0.22499999999999432},{"name":"A#2","midi":46,"time":122.34583333333099,"velocity":0.7637795275590551,"duration":0.10833333333333428},{"name":"B2","midi":47,"time":122.45624999999765,"velocity":0.7637795275590551,"duration":0.11249999999999716},{"name":"A#4","midi":70,"time":122.57083333333098,"velocity":0.7244094488188977,"duration":0.22499999999999432},{"name":"C#3","midi":49,"time":122.57083333333098,"velocity":0.7637795275590551,"duration":0.22291666666666288},{"name":"G5","midi":79,"time":122.79583333333098,"velocity":0.6771653543307087,"duration":0.44999999999998863},{"name":"D3","midi":50,"time":122.7979166666643,"velocity":0.7637795275590551,"duration":0.10833333333333428},{"name":"C#3","midi":49,"time":122.90624999999764,"velocity":0.7637795275590551,"duration":0.1145833333333286},{"name":"B2","midi":47,"time":123.02083333333097,"velocity":0.7637795275590551,"duration":0.11041666666666572},{"name":"C#3","midi":49,"time":123.13333333333097,"velocity":0.7637795275590551,"duration":0.11041666666666572},{"name":"F#5","midi":78,"time":123.24583333333096,"velocity":0.6771653543307087,"duration":0.22499999999999432},{"name":"D3","midi":50,"time":123.2479166666643,"velocity":0.7637795275590551,"duration":0.22291666666666288},{"name":"G5","midi":79,"time":123.47291666666429,"velocity":0.6771653543307087,"duration":0.11041666666666572},{"name":"C#3","midi":49,"time":123.47291666666429,"velocity":0.7637795275590551,"duration":0.22499999999999432},{"name":"F#5","midi":78,"time":123.58541666666429,"velocity":0.6771653543307087,"duration":0.11041666666666572},{"name":"E5","midi":76,"time":123.69791666666428,"velocity":0.6771653543307087,"duration":0.11041666666666572},{"name":"B2","midi":47,"time":123.69999999999762,"velocity":0.7637795275590551,"duration":0.22291666666666288},{"name":"D5","midi":74,"time":123.80833333333095,"velocity":0.7244094488188977,"duration":0.1145833333333286},{"name":"C#5","midi":73,"time":123.92499999999761,"velocity":0.7244094488188977,"duration":0.22291666666666288},{"name":"A#2","midi":46,"time":123.92499999999761,"velocity":0.7637795275590551,"duration":0.22083333333333144},{"name":"E5","midi":76,"time":124.14791666666427,"velocity":0.6771653543307087,"duration":0.11249999999999716},{"name":"G3","midi":55,"time":124.1499999999976,"velocity":0.7637795275590551,"duration":0.44999999999998863},{"name":"D5","midi":74,"time":124.26041666666427,"velocity":0.7244094488188977,"duration":0.11249999999999716},{"name":"C#5","midi":73,"time":124.37291666666427,"velocity":0.7244094488188977,"duration":0.11249999999999716},{"name":"B4","midi":71,"time":124.4874999999976,"velocity":0.7244094488188977,"duration":0.11249999999999716},{"name":"A#4","midi":70,"time":124.60208333333092,"velocity":0.7244094488188977,"duration":0.11249999999999716},{"name":"F#3","midi":54,"time":124.60208333333092,"velocity":0.7637795275590551,"duration":0.11249999999999716},{"name":"B4","midi":71,"time":124.71666666666425,"velocity":0.7244094488188977,"duration":0.11249999999999716},{"name":"G#3","midi":56,"time":124.71666666666425,"velocity":0.7637795275590551,"duration":0.11041666666666572},{"name":"C#5","midi":73,"time":124.82916666666425,"velocity":0.7244094488188977,"duration":0.1145833333333286},{"name":"A#3","midi":58,"time":124.83124999999758,"velocity":0.7637795275590551,"duration":0.11041666666666572},{"name":"A#4","midi":70,"time":124.94374999999758,"velocity":0.7244094488188977,"duration":0.11041666666666572},{"name":"F#3","midi":54,"time":124.94583333333091,"velocity":0.7637795275590551,"duration":0.10833333333333428},{"name":"D5","midi":74,"time":125.05624999999758,"velocity":0.7244094488188977,"duration":0.11249999999999716},{"name":"B3","midi":59,"time":125.05624999999758,"velocity":0.7637795275590551,"duration":0.11249999999999716},{"name":"A#4","midi":70,"time":125.1708333333309,"velocity":0.7244094488188977,"duration":0.11249999999999716},{"name":"F#3","midi":54,"time":125.1708333333309,"velocity":0.7637795275590551,"duration":0.11041666666666572},{"name":"E5","midi":76,"time":125.2833333333309,"velocity":0.6771653543307087,"duration":0.1145833333333286},{"name":"C#4","midi":61,"time":125.28541666666423,"velocity":0.7637795275590551,"duration":0.11041666666666572},{"name":"A#4","midi":70,"time":125.39791666666423,"velocity":0.7244094488188977,"duration":0.11249999999999716},{"name":"F#3","midi":54,"time":125.39999999999756,"velocity":0.7637795275590551,"duration":0.11041666666666572},{"name":"F#5","midi":78,"time":125.51249999999756,"velocity":0.6771653543307087,"duration":0.11249999999999716},{"name":"D4","midi":62,"time":125.51249999999756,"velocity":0.7637795275590551,"duration":0.11249999999999716},{"name":"A#4","midi":70,"time":125.62499999999756,"velocity":0.7244094488188977,"duration":0.11249999999999716},{"name":"F#3","midi":54,"time":125.62708333333089,"velocity":0.7637795275590551,"duration":0.10833333333333428},{"name":"G5","midi":79,"time":125.73749999999755,"velocity":0.6771653543307087,"duration":0.1145833333333286},{"name":"E4","midi":64,"time":125.73958333333088,"velocity":0.7637795275590551,"duration":0.11249999999999716},{"name":"A#4","midi":70,"time":125.85416666666421,"velocity":0.7244094488188977,"duration":0.11249999999999716},{"name":"F#3","midi":54,"time":125.85416666666421,"velocity":0.7637795275590551,"duration":0.11249999999999716},{"name":"F#5","midi":78,"time":125.96874999999754,"velocity":0.6771653543307087,"duration":0.1145833333333286},{"name":"D4","midi":62,"time":125.96874999999754,"velocity":0.7637795275590551,"duration":0.11249999999999716},{"name":"A#4","midi":70,"time":126.08333333333087,"velocity":0.7244094488188977,"duration":0.1145833333333286},{"name":"F#3","midi":54,"time":126.0854166666642,"velocity":0.7637795275590551,"duration":0.11041666666666572},{"name":"B4","midi":71,"time":126.1979166666642,"velocity":0.7244094488188977,"duration":0.11249999999999716},{"name":"G3","midi":55,"time":126.19999999999753,"velocity":0.7637795275590551,"duration":0.11041666666666572},{"name":"F#5","midi":78,"time":126.31249999999753,"velocity":0.6299212598425197,"duration":0.11249999999999716},{"name":"D4","midi":62,"time":126.31249999999753,"velocity":0.7637795275590551,"duration":0.11249999999999716},{"name":"E5","midi":76,"time":126.42499999999752,"velocity":0.6299212598425197,"duration":0.0625},{"name":"C#4","midi":61,"time":126.42708333333086,"velocity":0.7637795275590551,"duration":0.05833333333333712},{"name":"D5","midi":74,"time":126.48749999999752,"velocity":0.6771653543307087,"duration":0.07083333333332575},{"name":"B3","midi":59,"time":126.48958333333086,"velocity":0.7637795275590551,"duration":0.06874999999999432},{"name":"C#5","midi":73,"time":126.56041666666418,"velocity":0.6771653543307087,"duration":0.06874999999999432},{"name":"A#3","midi":58,"time":126.56041666666418,"velocity":0.7637795275590551,"duration":0.06666666666666288},{"name":"D5","midi":74,"time":126.62916666666418,"velocity":0.6771653543307087,"duration":0.06666666666666288},{"name":"B3","midi":59,"time":126.63124999999751,"velocity":0.7637795275590551,"duration":0.0625},{"name":"E5","midi":76,"time":126.69583333333084,"velocity":0.6299212598425197,"duration":0.12083333333333712},{"name":"C#4","midi":61,"time":126.69791666666417,"velocity":0.7637795275590551,"duration":0.11875000000000568},{"name":"G#4","midi":68,"time":126.81874999999751,"velocity":0.7244094488188977,"duration":0.11875000000000568},{"name":"E3","midi":52,"time":126.81874999999751,"velocity":0.7637795275590551,"duration":0.11875000000000568},{"name":"A4","midi":69,"time":126.93958333333084,"velocity":0.7244094488188977,"duration":0.11874999999999147},{"name":"F#3","midi":54,"time":126.93958333333084,"velocity":0.7637795275590551,"duration":0.11666666666666003},{"name":"E5","midi":76,"time":127.05833333333084,"velocity":0.6299212598425197,"duration":0.11875000000000568},{"name":"C#4","midi":61,"time":127.05833333333084,"velocity":0.7637795275590551,"duration":0.11875000000000568},{"name":"D5","midi":74,"time":127.17916666666417,"velocity":0.6771653543307087,"duration":0.0625},{"name":"B3","midi":59,"time":127.17916666666417,"velocity":0.7637795275590551,"duration":0.0625},{"name":"C#5","midi":73,"time":127.24166666666417,"velocity":0.6771653543307087,"duration":0.06666666666666288},{"name":"A3","midi":57,"time":127.2437499999975,"velocity":0.7637795275590551,"duration":0.0625},{"name":"B4","midi":71,"time":127.30833333333084,"velocity":0.6771653543307087,"duration":0.06458333333333144},{"name":"G#3","midi":56,"time":127.30833333333084,"velocity":0.7637795275590551,"duration":0.0625},{"name":"C#5","midi":73,"time":127.37291666666417,"velocity":0.6771653543307087,"duration":0.06458333333333144},{"name":"A3","midi":57,"time":127.37291666666417,"velocity":0.7637795275590551,"duration":0.06458333333333144},{"name":"D5","midi":74,"time":127.4374999999975,"velocity":0.6771653543307087,"duration":2.887500000000159},{"name":"B3","midi":59,"time":127.43958333333083,"velocity":0.7637795275590551,"duration":0.22708333333332575},{"name":"C#4","midi":61,"time":127.5499999999975,"velocity":0.7637795275590551,"duration":0.1145833333333286},{"name":"D4","midi":62,"time":127.66666666666416,"velocity":0.7637795275590551,"duration":0.1145833333333286},{"name":"B3","midi":59,"time":127.78124999999748,"velocity":0.7637795275590551,"duration":0.1145833333333286},{"name":"E4","midi":64,"time":127.89583333333081,"velocity":0.7637795275590551,"duration":0.11250000000001137},{"name":"B3","midi":59,"time":128.01041666666416,"velocity":0.7637795275590551,"duration":0.11250000000001137},{"name":"F#4","midi":66,"time":128.1249999999975,"velocity":0.7637795275590551,"duration":0.11458333333334281},{"name":"B3","midi":59,"time":128.23958333333084,"velocity":0.7637795275590551,"duration":0.11458333333334281},{"name":"G#4","midi":68,"time":128.35624999999752,"velocity":0.7244094488188977,"duration":0.11250000000001137},{"name":"B3","midi":59,"time":128.47083333333086,"velocity":0.7637795275590551,"duration":0.11458333333334281},{"name":"A4","midi":69,"time":128.5854166666642,"velocity":0.7244094488188977,"duration":0.11458333333334281},{"name":"B2","midi":47,"time":128.58749999999753,"velocity":0.7637795275590551,"duration":0.22708333333335418},{"name":"B3","midi":59,"time":128.69999999999754,"velocity":0.7637795275590551,"duration":0.11250000000001137},{"name":"G#4","midi":68,"time":128.8145833333309,"velocity":0.7244094488188977,"duration":0.2333333333333485},{"name":"E3","midi":52,"time":128.81666666666422,"velocity":0.7637795275590551,"duration":0.11458333333334281},{"name":"F#3","midi":54,"time":128.93124999999756,"velocity":0.7637795275590551,"duration":0.11666666666667425},{"name":"G#3","midi":56,"time":129.04999999999757,"velocity":0.7637795275590551,"duration":0.11250000000001137},{"name":"E4","midi":64,"time":129.04999999999757,"velocity":0.7637795275590551,"duration":0.22708333333335418},{"name":"E3","midi":52,"time":129.1645833333309,"velocity":0.7637795275590551,"duration":0.11250000000001137},{"name":"F#4","midi":66,"time":129.27916666666425,"velocity":0.7637795275590551,"duration":0.23125000000001705},{"name":"A3","midi":57,"time":129.27916666666425,"velocity":0.7637795275590551,"duration":0.11458333333334281},{"name":"E3","midi":52,"time":129.3937499999976,"velocity":0.7637795275590551,"duration":0.11458333333334281},{"name":"G#4","midi":68,"time":129.51041666666427,"velocity":0.7244094488188977,"duration":0.2333333333333485},{"name":"B3","midi":59,"time":129.5124999999976,"velocity":0.7637795275590551,"duration":0.11250000000001137},{"name":"E3","midi":52,"time":129.6249999999976,"velocity":0.7637795275590551,"duration":0.11875000000000568},{"name":"A4","midi":69,"time":129.74583333333095,"velocity":0.7244094488188977,"duration":0.22916666666668561},{"name":"C#4","midi":61,"time":129.74583333333095,"velocity":0.7637795275590551,"duration":0.11250000000001137},{"name":"E3","midi":52,"time":129.8604166666643,"velocity":0.7637795275590551,"duration":0.11458333333334281},{"name":"B4","midi":71,"time":129.97708333333097,"velocity":0.7244094488188977,"duration":0.2333333333333485},{"name":"D4","midi":62,"time":129.97708333333097,"velocity":0.7637795275590551,"duration":0.11458333333334281},{"name":"E3","midi":52,"time":130.0916666666643,"velocity":0.7637795275590551,"duration":0.11666666666667425},{"name":"E4","midi":64,"time":130.21041666666432,"velocity":0.7637795275590551,"duration":0.3708333333333371},{"name":"C#4","midi":61,"time":130.21249999999765,"velocity":0.7637795275590551,"duration":0.25208333333333144},{"name":"F#4","midi":66,"time":130.32499999999766,"velocity":0.7637795275590551,"duration":0.06874999999999432},{"name":"G#4","midi":68,"time":130.39374999999765,"velocity":0.7244094488188977,"duration":0.06874999999999432},{"name":"A4","midi":69,"time":130.46458333333098,"velocity":0.7244094488188977,"duration":0.11666666666667425},{"name":"E4","midi":64,"time":130.58333333333098,"velocity":0.7637795275590551,"duration":0.11458333333334281},{"name":"D4","midi":62,"time":130.58333333333098,"velocity":0.7637795275590551,"duration":0.11458333333334281},{"name":"B4","midi":71,"time":130.69999999999766,"velocity":0.7244094488188977,"duration":0.11458333333334281},{"name":"C#4","midi":61,"time":130.69999999999766,"velocity":0.7637795275590551,"duration":0.11250000000001137},{"name":"E4","midi":64,"time":130.814583333331,"velocity":0.7637795275590551,"duration":0.11458333333334281},{"name":"B3","midi":59,"time":130.81666666666433,"velocity":0.7637795275590551,"duration":0.11250000000001137},{"name":"C#5","midi":73,"time":130.93124999999768,"velocity":0.7244094488188977,"duration":0.11666666666667425},{"name":"A3","midi":57,"time":130.93124999999768,"velocity":0.7637795275590551,"duration":0.11666666666667425},{"name":"E4","midi":64,"time":131.04999999999768,"velocity":0.7637795275590551,"duration":0.11458333333334281},{"name":"B3","midi":59,"time":131.04999999999768,"velocity":0.7637795275590551,"duration":0.11250000000001137},{"name":"D5","midi":74,"time":131.16458333333102,"velocity":0.7244094488188977,"duration":0.11666666666667425},{"name":"A3","midi":57,"time":131.16666666666436,"velocity":0.7637795275590551,"duration":0.11458333333334281},{"name":"F#4","midi":66,"time":131.28333333333103,"velocity":0.7637795275590551,"duration":0.11458333333334281},{"name":"G3","midi":55,"time":131.28333333333103,"velocity":0.7637795275590551,"duration":0.11458333333334281},{"name":"E5","midi":76,"time":131.3999999999977,"velocity":0.6771653543307087,"duration":0.11458333333334281},{"name":"C#3","midi":49,"time":131.3999999999977,"velocity":0.7637795275590551,"duration":0.23125000000001705},{"name":"F#3","midi":54,"time":131.3999999999977,"velocity":0.7637795275590551,"duration":0.11250000000001137},{"name":"G4","midi":67,"time":131.51458333333105,"velocity":0.7637795275590551,"duration":0.11458333333334281},{"name":"E3","midi":52,"time":131.51666666666438,"velocity":0.7637795275590551,"duration":0.11250000000001137},{"name":"F#4","midi":66,"time":131.63124999999772,"velocity":0.7637795275590551,"duration":0.11875000000000568},{"name":"D3","midi":50,"time":131.63333333333105,"velocity":0.7637795275590551,"duration":0.36666666666667425},{"name":"G4","midi":67,"time":131.74999999999773,"velocity":0.7637795275590551,"duration":0.07083333333332575},{"name":"A4","midi":69,"time":131.82083333333105,"velocity":0.7244094488188977,"duration":0.06458333333333144},{"name":"B4","midi":71,"time":131.88749999999771,"velocity":0.7244094488188977,"duration":0.12291666666666856},{"name":"F#4","midi":66,"time":131.99999999999773,"velocity":0.7637795275590551,"duration":0.11458333333331439},{"name":"E3","midi":52,"time":132.00208333333106,"velocity":0.7637795275590551,"duration":0.11249999999998295},{"name":"C#5","midi":73,"time":132.11458333333104,"velocity":0.7244094488188977,"duration":0.12708333333333144},{"name":"D3","midi":50,"time":132.11666666666437,"velocity":0.7637795275590551,"duration":0.11250000000001137},{"name":"F#4","midi":66,"time":132.23124999999771,"velocity":0.7637795275590551,"duration":0.11458333333331439},{"name":"C#3","midi":49,"time":132.23124999999771,"velocity":0.7637795275590551,"duration":0.11249999999998295},{"name":"D5","midi":74,"time":132.34583333333103,"velocity":0.7244094488188977,"duration":0.125},{"name":"B2","midi":47,"time":132.34791666666436,"velocity":0.7637795275590551,"duration":0.11250000000001137},{"name":"C#3","midi":49,"time":132.4624999999977,"velocity":0.7637795275590551,"duration":0.11249999999998295},{"name":"F#4","midi":66,"time":132.4624999999977,"velocity":0.7637795275590551,"duration":0.11249999999998295},{"name":"E5","midi":76,"time":132.5749999999977,"velocity":0.6771653543307087,"duration":0.12708333333333144},{"name":"B2","midi":47,"time":132.57708333333102,"velocity":0.7637795275590551,"duration":0.11250000000001137},{"name":"G4","midi":67,"time":132.69166666666436,"velocity":0.7637795275590551,"duration":0.11458333333331439},{"name":"A2","midi":45,"time":132.69166666666436,"velocity":0.7637795275590551,"duration":0.11458333333331439},{"name":"F#5","midi":78,"time":132.808333333331,"velocity":0.6771653543307087,"duration":0.12708333333333144},{"name":"G2","midi":43,"time":132.808333333331,"velocity":0.7637795275590551,"duration":0.11666666666667425},{"name":"A4","midi":69,"time":132.92499999999768,"velocity":0.7244094488188977,"duration":0.12708333333330302},{"name":"F#2","midi":42,"time":132.927083333331,"velocity":0.7637795275590551,"duration":0.11249999999998295},{"name":"G4","midi":67,"time":133.04166666666433,"velocity":0.7637795275590551,"duration":0.11666666666664582},{"name":"E2","midi":40,"time":133.04374999999766,"velocity":0.7637795275590551,"duration":0.23333333333332007},{"name":"F#4","midi":66,"time":133.15833333333097,"velocity":0.7637795275590551,"duration":0.11666666666667425},{"name":"G4","midi":67,"time":133.27708333333098,"velocity":0.7637795275590551,"duration":0.11875000000000568},{"name":"D3","midi":50,"time":133.2791666666643,"velocity":0.7637795275590551,"duration":0.23541666666667993},{"name":"B4","midi":71,"time":133.39791666666432,"velocity":0.7244094488188977,"duration":0.11666666666667425},{"name":"E5","midi":76,"time":133.51666666666432,"velocity":0.6771653543307087,"duration":0.11458333333334281},{"name":"C#3","midi":49,"time":133.51666666666432,"velocity":0.7637795275590551,"duration":0.2333333333333485},{"name":"G4","midi":67,"time":133.633333333331,"velocity":0.7637795275590551,"duration":0.11458333333334281},{"name":"F#4","midi":66,"time":133.74999999999767,"velocity":0.7637795275590551,"duration":0.11458333333334281},{"name":"D3","midi":50,"time":133.74999999999767,"velocity":0.7637795275590551,"duration":0.2333333333333485},{"name":"B4","midi":71,"time":133.864583333331,"velocity":0.7244094488188977,"duration":0.11666666666667425},{"name":"A4","midi":69,"time":133.98333333333102,"velocity":0.7244094488188977,"duration":0.11666666666667425},{"name":"E3","midi":52,"time":133.98541666666435,"velocity":0.7637795275590551,"duration":0.11250000000001137},{"name":"C#5","midi":73,"time":134.0999999999977,"velocity":0.7244094488188977,"duration":0.11458333333334281},{"name":"D3","midi":50,"time":134.0999999999977,"velocity":0.7637795275590551,"duration":0.11458333333334281},{"name":"D5","midi":74,"time":134.21666666666437,"velocity":0.7244094488188977,"duration":0.46666666666666856},{"name":"C#3","midi":49,"time":134.21666666666437,"velocity":0.7637795275590551,"duration":0.11458333333334281},{"name":"B2","midi":47,"time":134.2187499999977,"velocity":0.7637795275590551,"duration":0.23125000000001705},{"name":"D3","midi":50,"time":134.33333333333104,"velocity":0.7637795275590551,"duration":0.11666666666667425},{"name":"E3","midi":52,"time":134.45208333333105,"velocity":0.7637795275590551,"duration":0.23124999999998863},{"name":"G2","midi":43,"time":134.45208333333105,"velocity":0.7637795275590551,"duration":0.2291666666666572},{"name":"C#5","midi":73,"time":134.68541666666437,"velocity":0.7244094488188977,"duration":0.45416666666667993},{"name":"F#3","midi":54,"time":134.68541666666437,"velocity":0.7637795275590551,"duration":0.11041666666665151},{"name":"A2","midi":45,"time":134.6874999999977,"velocity":0.7637795275590551,"duration":0.4520833333333485},{"name":"E3","midi":52,"time":134.79791666666435,"velocity":0.7637795275590551,"duration":0.11250000000001137},{"name":"D3","midi":50,"time":134.91041666666436,"velocity":0.7637795275590551,"duration":0.11458333333334281},{"name":"E3","midi":52,"time":135.0249999999977,"velocity":0.7637795275590551,"duration":0.11250000000001137},{"name":"D5","midi":74,"time":135.14166666666438,"velocity":0.7244094488188977,"duration":0.2291666666666572},{"name":"F#3","midi":54,"time":135.14166666666438,"velocity":0.7637795275590551,"duration":0.22708333333332575},{"name":"D3","midi":50,"time":135.1437499999977,"velocity":0.7637795275590551,"duration":0.22499999999999432},{"name":"E5","midi":76,"time":135.37083333333103,"velocity":0.6771653543307087,"duration":0.11458333333334281},{"name":"C#3","midi":49,"time":135.37291666666437,"velocity":0.7637795275590551,"duration":0.22916666666668561},{"name":"E3","midi":52,"time":135.37291666666437,"velocity":0.7637795275590551,"duration":0.23125000000001705},{"name":"D5","midi":74,"time":135.4874999999977,"velocity":0.7244094488188977,"duration":0.11458333333334281},{"name":"C#5","midi":73,"time":135.60416666666438,"velocity":0.7244094488188977,"duration":0.11458333333334281},{"name":"D3","midi":50,"time":135.60624999999771,"velocity":0.7637795275590551,"duration":0.23125000000001705},{"name":"B2","midi":47,"time":135.60624999999771,"velocity":0.7637795275590551,"duration":0.23125000000001705},{"name":"D5","midi":74,"time":135.71874999999773,"velocity":0.7244094488188977,"duration":0.11666666666667425},{"name":"E5","midi":76,"time":135.83958333333106,"velocity":0.6771653543307087,"duration":0.22499999999999432},{"name":"C#3","midi":49,"time":135.83958333333106,"velocity":0.7637795275590551,"duration":0.22499999999999432},{"name":"A2","midi":45,"time":135.8416666666644,"velocity":0.7637795275590551,"duration":3.927083333333144},{"name":"F#5","midi":78,"time":136.0666666666644,"velocity":0.6771653543307087,"duration":0.11041666666667993},{"name":"B3","midi":59,"time":136.0666666666644,"velocity":0.7637795275590551,"duration":0.44375000000002274},{"name":"E5","midi":76,"time":136.1791666666644,"velocity":0.6771653543307087,"duration":0.10833333333332007},{"name":"D5","midi":74,"time":136.28958333333105,"velocity":0.7244094488188977,"duration":0.11041666666667993},{"name":"E5","midi":76,"time":136.39999999999773,"velocity":0.6771653543307087,"duration":0.11041666666667993},{"name":"F#5","midi":78,"time":136.51249999999774,"velocity":0.6771653543307087,"duration":0.22291666666666288},{"name":"A3","midi":57,"time":136.51249999999774,"velocity":0.7637795275590551,"duration":0.22083333333333144},{"name":"G5","midi":79,"time":136.7354166666644,"velocity":0.6771653543307087,"duration":0.11041666666665151},{"name":"B3","midi":59,"time":136.73749999999774,"velocity":0.7637795275590551,"duration":0.10833333333332007},{"name":"F#5","midi":78,"time":136.84583333333106,"velocity":0.6771653543307087,"duration":0.11041666666665151},{"name":"A3","midi":57,"time":136.8479166666644,"velocity":0.7637795275590551,"duration":0.10833333333332007},{"name":"E5","midi":76,"time":136.95833333333104,"velocity":0.6771653543307087,"duration":0.11041666666665151},{"name":"G3","midi":55,"time":136.96041666666437,"velocity":0.7637795275590551,"duration":0.10833333333332007},{"name":"D5","midi":74,"time":137.07083333333102,"velocity":0.7244094488188977,"duration":0.11041666666667993},{"name":"F#3","midi":54,"time":137.07083333333102,"velocity":0.7637795275590551,"duration":0.11041666666667993},{"name":"C#5","midi":73,"time":137.18333333333103,"velocity":0.7244094488188977,"duration":0.21875},{"name":"E3","midi":52,"time":137.18333333333103,"velocity":0.7637795275590551,"duration":0.21666666666666856},{"name":"B5","midi":83,"time":137.40208333333103,"velocity":0.6771653543307087,"duration":0.5479166666666515},{"name":"G3","midi":55,"time":137.40416666666437,"velocity":0.7637795275590551,"duration":0.10624999999998863},{"name":"F#3","midi":54,"time":137.5124999999977,"velocity":0.7637795275590551,"duration":0.10624999999998863},{"name":"E3","midi":52,"time":137.620833333331,"velocity":0.7637795275590551,"duration":0.10624999999998863},{"name":"D3","midi":50,"time":137.727083333331,"velocity":0.7637795275590551,"duration":0.11041666666667993},{"name":"C#3","midi":49,"time":137.83749999999768,"velocity":0.7637795275590551,"duration":0.4437499999999943},{"name":"A5","midi":81,"time":137.9499999999977,"velocity":0.6771653543307087,"duration":0.10833333333332007},{"name":"B5","midi":83,"time":138.06041666666434,"velocity":0.6771653543307087,"duration":0.11041666666667993},{"name":"A5","midi":81,"time":138.17291666666435,"velocity":0.6771653543307087,"duration":0.10833333333332007},{"name":"G5","midi":79,"time":138.283333333331,"velocity":0.6771653543307087,"duration":0.11041666666667993},{"name":"D3","midi":50,"time":138.283333333331,"velocity":0.7637795275590551,"duration":0.35625000000001705},{"name":"F#5","midi":78,"time":138.39374999999768,"velocity":0.6771653543307087,"duration":0.10833333333332007},{"name":"F#5","midi":78,"time":138.50416666666433,"velocity":0.6299212598425197,"duration":0.04791666666667993},{"name":"E5","midi":76,"time":138.55416666666434,"velocity":0.6299212598425197,"duration":0.04791666666667993},{"name":"F#5","midi":78,"time":138.60416666666436,"velocity":0.6299212598425197,"duration":0.04791666666665151},{"name":"G3","midi":55,"time":138.63958333333102,"velocity":0.7637795275590551,"duration":0.06458333333333144},{"name":"E5","midi":76,"time":138.652083333331,"velocity":0.6299212598425197,"duration":0.04791666666667993},{"name":"F#5","midi":78,"time":138.70208333333102,"velocity":0.6299212598425197,"duration":0.04374999999998863},{"name":"F#3","midi":54,"time":138.70624999999768,"velocity":0.7637795275590551,"duration":0.05833333333333712},{"name":"E5","midi":76,"time":138.745833333331,"velocity":0.6299212598425197,"duration":0.04583333333334849},{"name":"E3","midi":52,"time":138.76666666666435,"velocity":0.7637795275590551,"duration":0.12291666666664014},{"name":"F#5","midi":78,"time":138.79166666666436,"velocity":0.6299212598425197,"duration":0.04583333333332007},{"name":"E5","midi":76,"time":138.83749999999768,"velocity":0.6299212598425197,"duration":0.04374999999998863},{"name":"F#5","midi":78,"time":138.88124999999766,"velocity":0.6299212598425197,"duration":0.04583333333332007},{"name":"G3","midi":55,"time":138.889583333331,"velocity":0.7637795275590551,"duration":0.1208333333333087},{"name":"E5","midi":76,"time":138.92708333333098,"velocity":0.6299212598425197,"duration":0.04583333333332007},{"name":"F#5","midi":78,"time":138.9729166666643,"velocity":0.6299212598425197,"duration":0.04374999999998863},{"name":"D3","midi":50,"time":139.01249999999763,"velocity":0.7637795275590551,"duration":0.13750000000001705},{"name":"E5","midi":76,"time":139.01874999999762,"velocity":0.6299212598425197,"duration":0.04791666666667993},{"name":"F#5","midi":78,"time":139.06874999999764,"velocity":0.6299212598425197,"duration":0.04791666666667993},{"name":"E5","midi":76,"time":139.11874999999765,"velocity":0.6299212598425197,"duration":0.04791666666667993},{"name":"G3","midi":55,"time":139.14999999999765,"velocity":0.7637795275590551,"duration":0.12291666666664014},{"name":"F#5","midi":78,"time":139.16874999999766,"velocity":0.6299212598425197,"duration":0.04374999999998863},{"name":"E5","midi":76,"time":139.21458333333098,"velocity":0.6299212598425197,"duration":0.04166666666665719},{"name":"F#5","midi":78,"time":139.25833333333097,"velocity":0.6299212598425197,"duration":0.04166666666665719},{"name":"C#3","midi":49,"time":139.27499999999762,"velocity":0.7637795275590551,"duration":0.11874999999997726},{"name":"E5","midi":76,"time":139.29999999999762,"velocity":0.6299212598425197,"duration":0.04583333333332007},{"name":"F#5","midi":78,"time":139.34583333333094,"velocity":0.6299212598425197,"duration":0.04374999999998863},{"name":"E5","midi":76,"time":139.38958333333093,"velocity":0.6299212598425197,"duration":0.04583333333332007},{"name":"G3","midi":55,"time":139.3937499999976,"velocity":0.7637795275590551,"duration":0.12499999999997158},{"name":"F#5","midi":78,"time":139.43541666666425,"velocity":0.6299212598425197,"duration":0.04583333333332007},{"name":"E5","midi":76,"time":139.48124999999757,"velocity":0.6299212598425197,"duration":0.04583333333332007},{"name":"B2","midi":47,"time":139.5208333333309,"velocity":0.7637795275590551,"duration":0.125},{"name":"F#5","midi":78,"time":139.5270833333309,"velocity":0.6299212598425197,"duration":0.04791666666667993},{"name":"E5","midi":76,"time":139.57499999999757,"velocity":0.6299212598425197,"duration":0.04583333333332007},{"name":"F#5","midi":78,"time":139.62291666666422,"velocity":0.6299212598425197,"duration":0.04375000000001705},{"name":"G3","midi":55,"time":139.6458333333309,"velocity":0.7637795275590551,"duration":0.1208333333333087},{"name":"E5","midi":76,"time":139.66874999999757,"velocity":0.6299212598425197,"duration":0.04166666666665719},{"name":"F#5","midi":78,"time":139.71249999999756,"velocity":0.6299212598425197,"duration":0.04166666666665719},{"name":"E5","midi":76,"time":139.75624999999755,"velocity":0.6299212598425197,"duration":0.04374999999998863},{"name":"A2","midi":45,"time":139.76874999999754,"velocity":0.7637795275590551,"duration":0.1208333333333087},{"name":"F#5","midi":78,"time":139.80208333333087,"velocity":0.6299212598425197,"duration":0.04374999999998863},{"name":"E5","midi":76,"time":139.84583333333086,"velocity":0.6299212598425197,"duration":0.04374999999998863},{"name":"F#5","midi":78,"time":139.89166666666418,"velocity":0.6299212598425197,"duration":0.04374999999998863},{"name":"G3","midi":55,"time":139.89166666666418,"velocity":0.7637795275590551,"duration":0.11874999999997726},{"name":"E5","midi":76,"time":139.93541666666417,"velocity":0.6299212598425197,"duration":0.04374999999998863},{"name":"F#5","midi":78,"time":139.97916666666416,"velocity":0.6299212598425197,"duration":0.04583333333332007},{"name":"F#3","midi":54,"time":140.0124999999975,"velocity":0.7637795275590551,"duration":0.12291666666666856},{"name":"E5","midi":76,"time":140.02499999999748,"velocity":0.6299212598425197,"duration":0.125},{"name":"A5","midi":81,"time":140.13541666666416,"velocity":0.6771653543307087,"duration":0.0625},{"name":"G3","midi":55,"time":140.1374999999975,"velocity":0.7637795275590551,"duration":0.12291666666666856},{"name":"G5","midi":79,"time":140.19791666666416,"velocity":0.6771653543307087,"duration":0.06041666666666856},{"name":"F#5","midi":78,"time":140.26041666666416,"velocity":0.6771653543307087,"duration":0.125},{"name":"A3","midi":57,"time":140.2624999999975,"velocity":0.7637795275590551,"duration":0.6145833333333428},{"name":"A5","midi":81,"time":140.38541666666416,"velocity":0.6771653543307087,"duration":0.125},{"name":"E3","midi":52,"time":140.3874999999975,"velocity":0.7637795275590551,"duration":0.12291666666666856},{"name":"E5","midi":76,"time":140.5124999999975,"velocity":0.6771653543307087,"duration":0.12083333333333712},{"name":"D3","midi":50,"time":140.5124999999975,"velocity":0.7637795275590551,"duration":0.12083333333333712},{"name":"A5","midi":81,"time":140.63541666666416,"velocity":0.6771653543307087,"duration":0.12291666666666856},{"name":"C#3","midi":49,"time":140.63541666666416,"velocity":0.7637795275590551,"duration":0.12083333333333712},{"name":"D5","midi":74,"time":140.75833333333082,"velocity":0.7244094488188977,"duration":0.11875000000000568},{"name":"B2","midi":47,"time":140.76041666666416,"velocity":0.7637795275590551,"duration":0.4833333333333485},{"name":"A5","midi":81,"time":140.87916666666416,"velocity":0.6771653543307087,"duration":0.11875000000000568},{"name":"G3","midi":55,"time":140.87916666666416,"velocity":0.7637795275590551,"duration":0.11875000000000568},{"name":"C#5","midi":73,"time":140.9999999999975,"velocity":0.7244094488188977,"duration":0.12083333333333712},{"name":"F#3","midi":54,"time":140.9999999999975,"velocity":0.7637795275590551,"duration":0.11875000000000568},{"name":"A5","midi":81,"time":141.12083333333084,"velocity":0.6771653543307087,"duration":0.12083333333333712},{"name":"E3","midi":52,"time":141.12291666666417,"velocity":0.7637795275590551,"duration":0.11875000000000568},{"name":"B4","midi":71,"time":141.2437499999975,"velocity":0.7244094488188977,"duration":0.12083333333333712},{"name":"D3","midi":50,"time":141.24583333333084,"velocity":0.7637795275590551,"duration":0.11666666666667425},{"name":"A5","midi":81,"time":141.36458333333084,"velocity":0.6771653543307087,"duration":0.125},{"name":"F#3","midi":54,"time":141.36666666666417,"velocity":0.7637795275590551,"duration":0.12083333333333712},{"name":"G5","midi":79,"time":141.48958333333084,"velocity":0.6771653543307087,"duration":0.12291666666666856},{"name":"E3","midi":52,"time":141.48958333333084,"velocity":0.7637795275590551,"duration":0.12291666666666856},{"name":"F#5","midi":78,"time":141.6124999999975,"velocity":0.6771653543307087,"duration":0.12291666666666856},{"name":"F#3","midi":54,"time":141.61458333333084,"velocity":0.7637795275590551,"duration":0.11875000000000568},{"name":"E5","midi":76,"time":141.73541666666418,"velocity":0.6771653543307087,"duration":0.11875000000000568},{"name":"G3","midi":55,"time":141.73541666666418,"velocity":0.7637795275590551,"duration":0.6000000000000227},{"name":"G5","midi":79,"time":141.85416666666418,"velocity":0.6771653543307087,"duration":0.12083333333333712},{"name":"D3","midi":50,"time":141.85416666666418,"velocity":0.7637795275590551,"duration":0.12083333333333712},{"name":"D5","midi":74,"time":141.97499999999752,"velocity":0.7244094488188977,"duration":0.11875000000000568},{"name":"C#3","midi":49,"time":141.97708333333085,"velocity":0.7637795275590551,"duration":0.11666666666667425},{"name":"G5","midi":79,"time":142.09583333333086,"velocity":0.6771653543307087,"duration":0.11875000000000568},{"name":"B2","midi":47,"time":142.0979166666642,"velocity":0.7637795275590551,"duration":0.11666666666667425},{"name":"C#5","midi":73,"time":142.2166666666642,"velocity":0.7244094488188977,"duration":0.11666666666667425},{"name":"A2","midi":45,"time":142.2166666666642,"velocity":0.7637795275590551,"duration":0.4770833333333542},{"name":"G5","midi":79,"time":142.3354166666642,"velocity":0.6771653543307087,"duration":0.11666666666667425},{"name":"F#3","midi":54,"time":142.33749999999753,"velocity":0.7637795275590551,"duration":0.11458333333334281},{"name":"B4","midi":71,"time":142.4541666666642,"velocity":0.7244094488188977,"duration":0.11875000000000568},{"name":"E3","midi":52,"time":142.4541666666642,"velocity":0.7637795275590551,"duration":0.11875000000000568},{"name":"G5","midi":79,"time":142.57499999999754,"velocity":0.6771653543307087,"duration":0.11875000000000568},{"name":"D3","midi":50,"time":142.57499999999754,"velocity":0.7637795275590551,"duration":0.11666666666667425},{"name":"A4","midi":69,"time":142.69583333333088,"velocity":0.7244094488188977,"duration":0.11666666666667425},{"name":"C#3","midi":49,"time":142.69583333333088,"velocity":0.7637795275590551,"duration":0.11666666666667425},{"name":"G5","midi":79,"time":142.8145833333309,"velocity":0.6771653543307087,"duration":0.11875000000000568},{"name":"E3","midi":52,"time":142.8145833333309,"velocity":0.7637795275590551,"duration":0.11666666666667425},{"name":"F#5","midi":78,"time":142.9333333333309,"velocity":0.6771653543307087,"duration":0.12083333333333712},{"name":"D3","midi":50,"time":142.93541666666422,"velocity":0.7637795275590551,"duration":0.11875000000000568},{"name":"E5","midi":76,"time":143.05624999999756,"velocity":0.6771653543307087,"duration":0.12083333333333712},{"name":"E3","midi":52,"time":143.05624999999756,"velocity":0.7637795275590551,"duration":0.11875000000000568},{"name":"D5","midi":74,"time":143.1770833333309,"velocity":0.7244094488188977,"duration":0.11875000000000568},{"name":"F#3","midi":54,"time":143.17916666666423,"velocity":0.7637795275590551,"duration":0.5979166666666913},{"name":"F#5","midi":78,"time":143.29791666666424,"velocity":0.6771653543307087,"duration":0.11875000000000568},{"name":"C3","midi":48,"time":143.29791666666424,"velocity":0.7637795275590551,"duration":0.11875000000000568},{"name":"C5","midi":72,"time":143.41874999999757,"velocity":0.7244094488188977,"duration":0.11875000000000568},{"name":"B2","midi":47,"time":143.41874999999757,"velocity":0.7637795275590551,"duration":0.11666666666667425},{"name":"F#5","midi":78,"time":143.53749999999758,"velocity":0.6771653543307087,"duration":0.11875000000000568},{"name":"A2","midi":45,"time":143.5395833333309,"velocity":0.7637795275590551,"duration":0.11666666666667425},{"name":"B4","midi":71,"time":143.65833333333092,"velocity":0.7244094488188977,"duration":0.11666666666667425},{"name":"G2","midi":43,"time":143.65833333333092,"velocity":0.7637795275590551,"duration":0.23750000000001137},{"name":"F#5","midi":78,"time":143.77708333333092,"velocity":0.6771653543307087,"duration":0.11875000000000568},{"name":"B2","midi":47,"time":143.77916666666425,"velocity":0.7637795275590551,"duration":0.11458333333334281},{"name":"A4","midi":69,"time":143.89791666666426,"velocity":0.7244094488188977,"duration":0.11666666666667425},{"name":"C#3","midi":49,"time":143.89791666666426,"velocity":0.7637795275590551,"duration":0.11666666666667425},{"name":"F#5","midi":78,"time":144.01666666666426,"velocity":0.6771653543307087,"duration":0.11875000000000568},{"name":"D3","midi":50,"time":144.01666666666426,"velocity":0.7637795275590551,"duration":0.11666666666667425},{"name":"G4","midi":67,"time":144.13541666666427,"velocity":0.7637795275590551,"duration":0.11875000000000568},{"name":"E3","midi":52,"time":144.1374999999976,"velocity":0.7637795275590551,"duration":0.11666666666667425},{"name":"F#5","midi":78,"time":144.2562499999976,"velocity":0.6771653543307087,"duration":0.12083333333333712},{"name":"F#3","midi":54,"time":144.2562499999976,"velocity":0.7637795275590551,"duration":0.11875000000000568},{"name":"E5","midi":76,"time":144.37708333333094,"velocity":0.6771653543307087,"duration":0.12291666666666856},{"name":"G3","midi":55,"time":144.37916666666428,"velocity":0.7637795275590551,"duration":0.11875000000000568},{"name":"D5","midi":74,"time":144.4999999999976,"velocity":0.7244094488188977,"duration":0.11875000000000568},{"name":"A3","midi":57,"time":144.4999999999976,"velocity":0.7637795275590551,"duration":0.11875000000000568},{"name":"C#5","midi":73,"time":144.62083333333095,"velocity":0.7244094488188977,"duration":0.11875000000000568},{"name":"G3","midi":55,"time":144.62083333333095,"velocity":0.7637795275590551,"duration":0.11666666666667425},{"name":"E5","midi":76,"time":144.73958333333096,"velocity":0.6771653543307087,"duration":0.11875000000000568},{"name":"F#3","midi":54,"time":144.7416666666643,"velocity":0.7637795275590551,"duration":0.11666666666667425},{"name":"B4","midi":71,"time":144.8604166666643,"velocity":0.7244094488188977,"duration":0.11875000000000568},{"name":"E3","midi":52,"time":144.8604166666643,"velocity":0.7637795275590551,"duration":0.11666666666667425},{"name":"E5","midi":76,"time":144.9791666666643,"velocity":0.6771653543307087,"duration":0.12083333333333712},{"name":"D3","midi":50,"time":144.98124999999763,"velocity":0.7637795275590551,"duration":0.11666666666667425},{"name":"A4","midi":69,"time":145.09999999999764,"velocity":0.7244094488188977,"duration":0.11666666666667425},{"name":"C#3","midi":49,"time":145.09999999999764,"velocity":0.7637795275590551,"duration":0.23750000000001137},{"name":"E5","midi":76,"time":145.2166666666643,"velocity":0.6771653543307087,"duration":0.12083333333333712},{"name":"A2","midi":45,"time":145.21874999999764,"velocity":0.7637795275590551,"duration":0.11666666666667425},{"name":"G4","midi":67,"time":145.33958333333098,"velocity":0.7637795275590551,"duration":0.11666666666667425},{"name":"B2","midi":47,"time":145.33958333333098,"velocity":0.7637795275590551,"duration":0.11666666666667425},{"name":"E5","midi":76,"time":145.45833333333098,"velocity":0.6771653543307087,"duration":0.12083333333333712},{"name":"C#3","midi":49,"time":145.45833333333098,"velocity":0.7637795275590551,"duration":0.11875000000000568},{"name":"F#4","midi":66,"time":145.57916666666432,"velocity":0.7637795275590551,"duration":0.12083333333333712},{"name":"D3","midi":50,"time":145.58124999999765,"velocity":0.7637795275590551,"duration":0.11875000000000568},{"name":"E5","midi":76,"time":145.702083333331,"velocity":0.6771653543307087,"duration":0.12083333333333712},{"name":"E3","midi":52,"time":145.702083333331,"velocity":0.7637795275590551,"duration":0.12083333333333712},{"name":"D5","midi":74,"time":145.82499999999766,"velocity":0.7244094488188977,"duration":0.11875000000000568},{"name":"F#3","midi":54,"time":145.82499999999766,"velocity":0.7637795275590551,"duration":0.11666666666667425},{"name":"F#4","midi":66,"time":145.94374999999766,"velocity":0.7637795275590551,"duration":0.11666666666667425},{"name":"G3","midi":55,"time":145.945833333331,"velocity":0.7637795275590551,"duration":0.11458333333334281},{"name":"E4","midi":64,"time":146.06249999999767,"velocity":0.7637795275590551,"duration":0.11666666666667425},{"name":"A3","midi":57,"time":146.06249999999767,"velocity":0.7637795275590551,"duration":0.23750000000001137},{"name":"G4","midi":67,"time":146.18124999999768,"velocity":0.7637795275590551,"duration":0.11875000000000568},{"name":"D5","midi":74,"time":146.302083333331,"velocity":0.7401574803149606,"duration":0.11875000000000568},{"name":"A2","midi":45,"time":146.302083333331,"velocity":0.7637795275590551,"duration":0.2395833333333428},{"name":"C#5","midi":73,"time":146.42083333333102,"velocity":0.7401574803149606,"duration":0.12083333333333712},{"name":"E5","midi":76,"time":146.5437499999977,"velocity":0.6456692913385826,"duration":0.04583333333332007},{"name":"D3","midi":50,"time":146.5437499999977,"velocity":0.7637795275590551,"duration":0.279166666666697},{"name":"D5","midi":74,"time":146.59166666666434,"velocity":0.6929133858267716,"duration":0.05208333333334281},{"name":"E5","midi":76,"time":146.645833333331,"velocity":0.6456692913385826,"duration":0.054166666666674246},{"name":"D5","midi":74,"time":146.6999999999977,"velocity":0.6929133858267716,"duration":0.05000000000001137},{"name":"E5","midi":76,"time":146.7499999999977,"velocity":0.6456692913385826,"duration":0.05000000000001137},{"name":"D5","midi":74,"time":146.80208333333104,"velocity":0.6929133858267716,"duration":0.04791666666667993},{"name":"C3","midi":48,"time":146.82499999999771,"velocity":0.7637795275590551,"duration":0.14375000000001137},{"name":"E5","midi":76,"time":146.84999999999772,"velocity":0.6456692913385826,"duration":0.056250000000005684},{"name":"D5","midi":74,"time":146.90624999999773,"velocity":0.6929133858267716,"duration":0.05208333333334281},{"name":"E5","midi":76,"time":146.95833333333107,"velocity":0.6456692913385826,"duration":0.052083333333314386},{"name":"D3","midi":50,"time":146.97083333333106,"velocity":0.7637795275590551,"duration":0.14375000000001137},{"name":"D5","midi":74,"time":147.01041666666438,"velocity":0.6929133858267716,"duration":0.054166666666674246},{"name":"E5","midi":76,"time":147.0666666666644,"velocity":0.6456692913385826,"duration":0.054166666666674246},{"name":"E3","midi":52,"time":147.1166666666644,"velocity":0.7637795275590551,"duration":0.1395833333333485},{"name":"D5","midi":74,"time":147.12083333333106,"velocity":0.6929133858267716,"duration":0.05000000000001137},{"name":"E5","midi":76,"time":147.17083333333107,"velocity":0.6456692913385826,"duration":0.05208333333334281},{"name":"D5","midi":74,"time":147.22291666666442,"velocity":0.6929133858267716,"duration":0.05208333333334281},{"name":"D3","midi":50,"time":147.25833333333108,"velocity":0.7637795275590551,"duration":0.14583333333337123},{"name":"E5","midi":76,"time":147.2770833333311,"velocity":0.6456692913385826,"duration":0.054166666666674246},{"name":"D5","midi":74,"time":147.33124999999777,"velocity":0.6929133858267716,"duration":0.05208333333334281},{"name":"E5","midi":76,"time":147.38541666666444,"velocity":0.6456692913385826,"duration":0.05000000000001137},{"name":"C3","midi":48,"time":147.40624999999778,"velocity":0.7637795275590551,"duration":0.25833333333329733},{"name":"D5","midi":74,"time":147.43749999999778,"velocity":0.6929133858267716,"duration":0.04791666666667993},{"name":"E5","midi":76,"time":147.48541666666446,"velocity":0.6456692913385826,"duration":0.04374999999998863},{"name":"D5","midi":74,"time":147.53124999999778,"velocity":0.6929133858267716,"duration":0.04583333333332007},{"name":"E5","midi":76,"time":147.5770833333311,"velocity":0.6456692913385826,"duration":0.04583333333332007},{"name":"D5","midi":74,"time":147.62291666666442,"velocity":0.6929133858267716,"duration":0.04999999999998295},{"name":"B2","midi":47,"time":147.6666666666644,"velocity":0.7637795275590551,"duration":0.13125000000002274},{"name":"E5","midi":76,"time":147.6729166666644,"velocity":0.6456692913385826,"duration":0.05000000000001137},{"name":"D5","midi":74,"time":147.72291666666442,"velocity":0.6929133858267716,"duration":0.04791666666667993},{"name":"E5","midi":76,"time":147.7708333333311,"velocity":0.6456692913385826,"duration":0.04791666666667993},{"name":"C3","midi":48,"time":147.79791666666443,"velocity":0.7637795275590551,"duration":0.13333333333332575},{"name":"D5","midi":74,"time":147.8208333333311,"velocity":0.6929133858267716,"duration":0.04583333333332007},{"name":"E5","midi":76,"time":147.86666666666443,"velocity":0.6456692913385826,"duration":0.04791666666667993},{"name":"D5","midi":74,"time":147.91666666666444,"velocity":0.6929133858267716,"duration":0.054166666666645824},{"name":"D3","midi":50,"time":147.93124999999776,"velocity":0.7637795275590551,"duration":0.13958333333332007},{"name":"E5","midi":76,"time":147.97291666666442,"velocity":0.6456692913385826,"duration":0.05000000000001137},{"name":"D5","midi":74,"time":148.02291666666443,"velocity":0.6929133858267716,"duration":0.04583333333332007},{"name":"E5","midi":76,"time":148.07083333333108,"velocity":0.6456692913385826,"duration":0.04583333333332007},{"name":"C3","midi":48,"time":148.0729166666644,"velocity":0.7637795275590551,"duration":0.12291666666664014},{"name":"D5","midi":74,"time":148.1166666666644,"velocity":0.6929133858267716,"duration":0.04374999999998863},{"name":"E5","midi":76,"time":148.16249999999772,"velocity":0.6456692913385826,"duration":0.04374999999998863},{"name":"B2","midi":47,"time":148.19583333333105,"velocity":0.7637795275590551,"duration":0.2812499999999716},{"name":"D5","midi":74,"time":148.2062499999977,"velocity":0.6929133858267716,"duration":0.054166666666674246},{"name":"E5","midi":76,"time":148.26249999999771,"velocity":0.6456692913385826,"duration":0.05208333333334281},{"name":"D5","midi":74,"time":148.3166666666644,"velocity":0.6929133858267716,"duration":0.054166666666674246},{"name":"G4","midi":67,"time":148.3416666666644,"velocity":0.7637795275590551,"duration":0.13541666666662877},{"name":"E5","midi":76,"time":148.3729166666644,"velocity":0.6456692913385826,"duration":0.04583333333332007},{"name":"D5","midi":74,"time":148.42083333333105,"velocity":0.6929133858267716,"duration":0.04583333333332007},{"name":"E5","midi":76,"time":148.4687499999977,"velocity":0.6456692913385826,"duration":0.04999999999998295},{"name":"F4","midi":65,"time":148.47916666666436,"velocity":0.7637795275590551,"duration":0.12916666666663446},{"name":"C3","midi":48,"time":148.47916666666436,"velocity":0.7637795275590551,"duration":0.2666666666666515},{"name":"D5","midi":74,"time":148.520833333331,"velocity":0.6929133858267716,"duration":0.04374999999998863},{"name":"E5","midi":76,"time":148.56666666666433,"velocity":0.6456692913385826,"duration":0.04583333333332007},{"name":"E4","midi":64,"time":148.61041666666432,"velocity":0.7637795275590551,"duration":0.13541666666668561},{"name":"D5","midi":74,"time":148.61458333333098,"velocity":0.6929133858267716,"duration":0.04791666666667993},{"name":"E5","midi":76,"time":148.664583333331,"velocity":0.6456692913385826,"duration":0.04791666666667993},{"name":"D5","midi":74,"time":148.714583333331,"velocity":0.6929133858267716,"duration":0.04791666666665151},{"name":"D3","midi":50,"time":148.74791666666434,"velocity":0.7637795275590551,"duration":0.26458333333329165},{"name":"D4","midi":62,"time":148.74791666666434,"velocity":0.7637795275590551,"duration":0.13124999999999432},{"name":"E5","midi":76,"time":148.764583333331,"velocity":0.6456692913385826,"duration":0.04583333333332007},{"name":"D5","midi":74,"time":148.81249999999764,"velocity":0.6929133858267716,"duration":0.04791666666667993},{"name":"E5","midi":76,"time":148.86249999999765,"velocity":0.6456692913385826,"duration":0.04791666666667993},{"name":"F4","midi":65,"time":148.87916666666433,"velocity":0.7637795275590551,"duration":0.1312499999999659},{"name":"D5","midi":74,"time":148.91249999999766,"velocity":0.6929133858267716,"duration":0.04583333333332007},{"name":"E5","midi":76,"time":148.96041666666432,"velocity":0.6456692913385826,"duration":0.04583333333332007},{"name":"D5","midi":74,"time":149.00833333333097,"velocity":0.6929133858267716,"duration":0.04166666666665719},{"name":"E4","midi":64,"time":149.01249999999763,"velocity":0.7637795275590551,"duration":0.1208333333333087},{"name":"G3","midi":55,"time":149.01458333333096,"velocity":0.7637795275590551,"duration":0.23958333333331439},{"name":"E5","midi":76,"time":149.05208333333096,"velocity":0.6456692913385826,"duration":0.04374999999998863},{"name":"D5","midi":74,"time":149.09583333333094,"velocity":0.6929133858267716,"duration":0.12083333333333712},{"name":"F4","midi":65,"time":149.13333333333094,"velocity":0.7637795275590551,"duration":0.11875000000000568},{"name":"C5","midi":72,"time":149.25416666666428,"velocity":0.7244094488188977,"duration":0.7270833333333542},{"name":"E4","midi":64,"time":149.2562499999976,"velocity":0.7637795275590551,"duration":0.11875000000000568},{"name":"A2","midi":45,"time":149.2562499999976,"velocity":0.7637795275590551,"duration":0.48125000000001705},{"name":"D4","midi":62,"time":149.3749999999976,"velocity":0.7637795275590551,"duration":0.12083333333333712},{"name":"C4","midi":60,"time":149.49583333333095,"velocity":0.7637795275590551,"duration":0.11875000000000568},{"name":"E4","midi":64,"time":149.6166666666643,"velocity":0.7637795275590551,"duration":0.12083333333333712},{"name":"D4","midi":62,"time":149.73958333333096,"velocity":0.7637795275590551,"duration":0.11666666666667425},{"name":"B2","midi":47,"time":149.73958333333096,"velocity":0.7637795275590551,"duration":0.2395833333333428},{"name":"E4","midi":64,"time":149.85833333333096,"velocity":0.7637795275590551,"duration":0.12083333333333712},{"name":"B4","midi":71,"time":149.98124999999763,"velocity":0.7244094488188977,"duration":0.7354166666666799},{"name":"D4","midi":62,"time":149.98333333333096,"velocity":0.7637795275590551,"duration":0.11666666666667425},{"name":"C3","midi":48,"time":149.98333333333096,"velocity":0.7637795275590551,"duration":0.24166666666667425},{"name":"C4","midi":60,"time":150.10208333333097,"velocity":0.7637795275590551,"duration":0.12083333333333712},{"name":"D3","midi":50,"time":150.22499999999764,"velocity":0.7637795275590551,"duration":0.24583333333333712},{"name":"B3","midi":59,"time":150.22499999999764,"velocity":0.7637795275590551,"duration":0.12291666666666856},{"name":"D4","midi":62,"time":150.3479166666643,"velocity":0.7637795275590551,"duration":0.12083333333333712},{"name":"C4","midi":60,"time":150.47083333333097,"velocity":0.7637795275590551,"duration":0.12083333333333712},{"name":"E3","midi":52,"time":150.4729166666643,"velocity":0.7637795275590551,"duration":0.24375000000000568},{"name":"D4","midi":62,"time":150.5916666666643,"velocity":0.7637795275590551,"duration":0.12291666666666856},{"name":"A4","midi":69,"time":150.71874999999764,"velocity":0.7244094488188977,"duration":0.48125000000001705},{"name":"C4","midi":60,"time":150.71874999999764,"velocity":0.7637795275590551,"duration":0.11875000000000568},{"name":"F#2","midi":42,"time":150.72083333333097,"velocity":0.7637795275590551,"duration":0.4791666666666856},{"name":"B3","midi":59,"time":150.83749999999765,"velocity":0.7637795275590551,"duration":0.12291666666666856},{"name":"A3","midi":57,"time":150.96041666666432,"velocity":0.7637795275590551,"duration":0.11666666666667425},{"name":"C4","midi":60,"time":151.077083333331,"velocity":0.7637795275590551,"duration":0.12083333333333712},{"name":"B3","midi":59,"time":151.19999999999766,"velocity":0.7637795275590551,"duration":0.7229166666666913},{"name":"G2","midi":43,"time":151.19999999999766,"velocity":0.7637795275590551,"duration":0.2395833333333428},{"name":"G4","midi":67,"time":151.31666666666433,"velocity":0.7637795275590551,"duration":0.12083333333333712},{"name":"A4","midi":69,"time":151.439583333331,"velocity":0.7244094488188977,"duration":0.11875000000000568},{"name":"F#2","midi":42,"time":151.439583333331,"velocity":0.7637795275590551,"duration":0.11666666666667425},{"name":"G4","midi":67,"time":151.56041666666434,"velocity":0.7637795275590551,"duration":0.11875000000000568},{"name":"G2","midi":43,"time":151.56041666666434,"velocity":0.7637795275590551,"duration":0.11666666666667425},{"name":"F#4","midi":66,"time":151.67916666666434,"velocity":0.7637795275590551,"duration":0.12083333333333712},{"name":"A2","midi":45,"time":151.68124999999768,"velocity":0.7637795275590551,"duration":0.11875000000000568},{"name":"G4","midi":67,"time":151.802083333331,"velocity":0.7637795275590551,"duration":0.11875000000000568},{"name":"B2","midi":47,"time":151.802083333331,"velocity":0.7637795275590551,"duration":0.11875000000000568},{"name":"F#4","midi":66,"time":151.92291666666435,"velocity":0.7637795275590551,"duration":0.12291666666666856},{"name":"A3","midi":57,"time":151.92499999999768,"velocity":0.7637795275590551,"duration":0.28125},{"name":"C2","midi":36,"time":151.92499999999768,"velocity":0.7637795275590551,"duration":0.27916666666666856},{"name":"D4","midi":62,"time":152.04791666666435,"velocity":0.7637795275590551,"duration":0.07708333333332007},{"name":"E4","midi":64,"time":152.12499999999767,"velocity":0.7637795275590551,"duration":0.07916666666667993},{"name":"F#4","midi":66,"time":152.20624999999768,"velocity":0.7637795275590551,"duration":0.125},{"name":"C4","midi":60,"time":152.208333333331,"velocity":0.7637795275590551,"duration":0.12083333333333712},{"name":"D4","midi":62,"time":152.33124999999768,"velocity":0.7637795275590551,"duration":0.12291666666666856},{"name":"B3","midi":59,"time":152.333333333331,"velocity":0.7637795275590551,"duration":0.12083333333333712},{"name":"A3","midi":57,"time":152.45624999999768,"velocity":0.7637795275590551,"duration":0.12083333333333712},{"name":"G4","midi":67,"time":152.45624999999768,"velocity":0.7637795275590551,"duration":0.12291666666666856},{"name":"D4","midi":62,"time":152.57916666666435,"velocity":0.7637795275590551,"duration":0.12291666666666856},{"name":"G3","midi":55,"time":152.58124999999768,"velocity":0.7637795275590551,"duration":0.12083333333333712},{"name":"A4","midi":69,"time":152.70416666666435,"velocity":0.7244094488188977,"duration":0.12291666666666856},{"name":"F#3","midi":54,"time":152.70416666666435,"velocity":0.7637795275590551,"duration":0.12083333333333712},{"name":"D4","midi":62,"time":152.82708333333102,"velocity":0.7637795275590551,"duration":0.12291666666666856},{"name":"E3","midi":52,"time":152.82916666666435,"velocity":0.7637795275590551,"duration":0.12083333333333712},{"name":"B4","midi":71,"time":152.95208333333102,"velocity":0.7244094488188977,"duration":0.12083333333333712},{"name":"D3","midi":50,"time":152.95208333333102,"velocity":0.7637795275590551,"duration":0.12083333333333712},{"name":"D4","midi":62,"time":153.0749999999977,"velocity":0.7637795275590551,"duration":0.12083333333333712},{"name":"C3","midi":48,"time":153.0749999999977,"velocity":0.7637795275590551,"duration":0.11875000000000568},{"name":"C5","midi":72,"time":153.19583333333102,"velocity":0.7244094488188977,"duration":0.12083333333333712},{"name":"B2","midi":47,"time":153.19791666666436,"velocity":0.7637795275590551,"duration":0.11875000000000568},{"name":"D4","midi":62,"time":153.3187499999977,"velocity":0.7637795275590551,"duration":0.11875000000000568},{"name":"A2","midi":45,"time":153.3187499999977,"velocity":0.7637795275590551,"duration":0.11666666666667425},{"name":"B4","midi":71,"time":153.4374999999977,"velocity":0.7244094488188977,"duration":0.11666666666667425},{"name":"G2","midi":43,"time":153.43958333333103,"velocity":0.7637795275590551,"duration":0.11458333333334281},{"name":"G5","midi":79,"time":153.5562499999977,"velocity":0.6771653543307087,"duration":0.11458333333334281},{"name":"A2","midi":45,"time":153.5562499999977,"velocity":0.7637795275590551,"duration":0.11458333333334281},{"name":"F5","midi":77,"time":153.67291666666438,"velocity":0.6771653543307087,"duration":0.11666666666667425},{"name":"B2","midi":47,"time":153.67291666666438,"velocity":0.7637795275590551,"duration":0.11458333333334281},{"name":"E5","midi":76,"time":153.78958333333105,"velocity":0.6771653543307087,"duration":0.11666666666667425},{"name":"G2","midi":43,"time":153.79166666666438,"velocity":0.7637795275590551,"duration":0.11458333333334281},{"name":"D5","midi":74,"time":153.90833333333106,"velocity":0.7244094488188977,"duration":0.11458333333334281},{"name":"C3","midi":48,"time":153.90833333333106,"velocity":0.7637795275590551,"duration":0.11458333333334281},{"name":"C5","midi":72,"time":154.02499999999773,"velocity":0.7244094488188977,"duration":0.11666666666667425},{"name":"G2","midi":43,"time":154.02499999999773,"velocity":0.7637795275590551,"duration":0.11458333333334281},{"name":"B4","midi":71,"time":154.1416666666644,"velocity":0.7244094488188977,"duration":0.11666666666667425},{"name":"D3","midi":50,"time":154.14374999999774,"velocity":0.7637795275590551,"duration":0.11458333333334281},{"name":"A4","midi":69,"time":154.2604166666644,"velocity":0.7244094488188977,"duration":0.11666666666667425},{"name":"G2","midi":43,"time":154.2604166666644,"velocity":0.7637795275590551,"duration":0.11458333333334281},{"name":"G4","midi":67,"time":154.3770833333311,"velocity":0.7637795275590551,"duration":0.12083333333333712},{"name":"E3","midi":52,"time":154.37916666666442,"velocity":0.7637795275590551,"duration":0.11666666666667425},{"name":"F4","midi":65,"time":154.49791666666442,"velocity":0.7637795275590551,"duration":0.11666666666667425},{"name":"G2","midi":43,"time":154.49999999999775,"velocity":0.7637795275590551,"duration":0.11458333333334281},{"name":"E4","midi":64,"time":154.61666666666443,"velocity":0.7637795275590551,"duration":0.11875000000000568},{"name":"F3","midi":53,"time":154.61666666666443,"velocity":0.7637795275590551,"duration":0.11666666666667425},{"name":"D4","midi":62,"time":154.73541666666443,"velocity":0.7637795275590551,"duration":0.11666666666667425},{"name":"G2","midi":43,"time":154.73749999999777,"velocity":0.7637795275590551,"duration":0.11458333333334281},{"name":"C4","midi":60,"time":154.85416666666444,"velocity":0.7637795275590551,"duration":0.11875000000000568},{"name":"E3","midi":52,"time":154.85416666666444,"velocity":0.7637795275590551,"duration":0.11875000000000568},{"name":"E5","midi":76,"time":154.97499999999778,"velocity":0.6771653543307087,"duration":0.11875000000000568},{"name":"E2","midi":40,"time":154.97499999999778,"velocity":0.7637795275590551,"duration":0.056250000000005684},{"name":"F#2","midi":42,"time":155.03333333333111,"velocity":0.7637795275590551,"duration":0.05833333333333712},{"name":"D5","midi":74,"time":155.09374999999778,"velocity":0.7244094488188977,"duration":0.11875000000000568},{"name":"G#2","midi":44,"time":155.09583333333111,"velocity":0.7637795275590551,"duration":0.11666666666667425},{"name":"C5","midi":72,"time":155.21458333333112,"velocity":0.7244094488188977,"duration":0.11666666666667425},{"name":"E2","midi":40,"time":155.21458333333112,"velocity":0.7637795275590551,"duration":0.11458333333334281},{"name":"B4","midi":71,"time":155.3312499999978,"velocity":0.7244094488188977,"duration":0.11875000000000568},{"name":"A2","midi":45,"time":155.33333333333113,"velocity":0.7637795275590551,"duration":0.11458333333334281},{"name":"A4","midi":69,"time":155.4499999999978,"velocity":0.7244094488188977,"duration":0.11666666666667425},{"name":"E2","midi":40,"time":155.4499999999978,"velocity":0.7637795275590551,"duration":0.11666666666667425},{"name":"G#4","midi":68,"time":155.5687499999978,"velocity":0.7244094488188977,"duration":0.11666666666667425},{"name":"B2","midi":47,"time":155.5687499999978,"velocity":0.7637795275590551,"duration":0.11458333333334281},{"name":"F#4","midi":66,"time":155.68541666666448,"velocity":0.7637795275590551,"duration":0.11875000000000568},{"name":"E2","midi":40,"time":155.6874999999978,"velocity":0.7637795275590551,"duration":0.11666666666667425},{"name":"E4","midi":64,"time":155.80624999999782,"velocity":0.7637795275590551,"duration":0.11875000000000568},{"name":"C3","midi":48,"time":155.80624999999782,"velocity":0.7637795275590551,"duration":0.11875000000000568},{"name":"D4","midi":62,"time":155.92499999999782,"velocity":0.7637795275590551,"duration":0.12083333333333712},{"name":"E2","midi":40,"time":155.92708333333115,"velocity":0.7637795275590551,"duration":0.11875000000000568},{"name":"C4","midi":60,"time":156.04583333333116,"velocity":0.7637795275590551,"duration":0.11875000000000568},{"name":"D3","midi":50,"time":156.0479166666645,"velocity":0.7637795275590551,"duration":0.11666666666667425},{"name":"B3","midi":59,"time":156.1666666666645,"velocity":0.7637795275590551,"duration":0.11875000000000568},{"name":"E2","midi":40,"time":156.1666666666645,"velocity":0.7637795275590551,"duration":0.11875000000000568},{"name":"A3","midi":57,"time":156.28749999999783,"velocity":0.7637795275590551,"duration":0.11875000000000568},{"name":"C#3","midi":49,"time":156.28749999999783,"velocity":0.7637795275590551,"duration":0.11666666666667425},{"name":"B3","midi":59,"time":156.40624999999784,"velocity":0.7637795275590551,"duration":0.11875000000000568},{"name":"A3","midi":57,"time":156.40833333333117,"velocity":0.7637795275590551,"duration":0.11666666666667425},{"name":"C#4","midi":61,"time":156.52708333333118,"velocity":0.7637795275590551,"duration":0.11875000000000568},{"name":"G3","midi":55,"time":156.52708333333118,"velocity":0.7637795275590551,"duration":0.11666666666667425},{"name":"A3","midi":57,"time":156.6479166666645,"velocity":0.7637795275590551,"duration":0.11875000000000568},{"name":"F#3","midi":54,"time":156.6479166666645,"velocity":0.7637795275590551,"duration":0.11666666666667425},{"name":"D4","midi":62,"time":156.76666666666452,"velocity":0.7637795275590551,"duration":0.11666666666667425},{"name":"E3","midi":52,"time":156.76666666666452,"velocity":0.7637795275590551,"duration":0.11666666666667425},{"name":"D3","midi":50,"time":156.88541666666453,"velocity":0.7637795275590551,"duration":0.11458333333334281},{"name":"A3","midi":57,"time":156.88541666666453,"velocity":0.7637795275590551,"duration":0.11666666666667425},{"name":"E4","midi":64,"time":157.0020833333312,"velocity":0.7637795275590551,"duration":0.11875000000000568},{"name":"C#3","midi":49,"time":157.00416666666453,"velocity":0.7637795275590551,"duration":0.11458333333334281},{"name":"A3","midi":57,"time":157.1208333333312,"velocity":0.7637795275590551,"duration":0.11875000000000568},{"name":"B2","midi":47,"time":157.12291666666454,"velocity":0.7637795275590551,"duration":0.11666666666667425},{"name":"F#4","midi":66,"time":157.24166666666454,"velocity":0.7637795275590551,"duration":0.11666666666667425},{"name":"A2","midi":45,"time":157.24166666666454,"velocity":0.7637795275590551,"duration":0.11458333333334281},{"name":"A3","midi":57,"time":157.35833333333122,"velocity":0.7637795275590551,"duration":0.11666666666667425},{"name":"G2","midi":43,"time":157.36041666666455,"velocity":0.7637795275590551,"duration":0.11458333333334281},{"name":"G4","midi":67,"time":157.47708333333122,"velocity":0.7637795275590551,"duration":0.11666666666667425},{"name":"F#2","midi":42,"time":157.47708333333122,"velocity":0.7637795275590551,"duration":0.11666666666667425},{"name":"A3","midi":57,"time":157.59583333333123,"velocity":0.7637795275590551,"duration":0.11666666666667425},{"name":"E2","midi":40,"time":157.59583333333123,"velocity":0.7637795275590551,"duration":0.11458333333334281},{"name":"D4","midi":62,"time":157.7124999999979,"velocity":0.7637795275590551,"duration":0.2291666666666572},{"name":"F#4","midi":66,"time":157.71458333333123,"velocity":0.7637795275590551,"duration":0.22708333333332575},{"name":"D2","midi":38,"time":157.71458333333123,"velocity":0.7637795275590551,"duration":1.5041666666666913},{"name":"B4","midi":71,"time":157.9437499999979,"velocity":0.7244094488188977,"duration":0.22708333333332575},{"name":"C4","midi":60,"time":157.9437499999979,"velocity":0.7637795275590551,"duration":0.10833333333332007},{"name":"D4","midi":62,"time":158.05416666666454,"velocity":0.7637795275590551,"duration":0.11458333333334281},{"name":"G4","midi":67,"time":158.17083333333122,"velocity":0.7637795275590551,"duration":0.22708333333335418},{"name":"E4","midi":64,"time":158.17291666666455,"velocity":0.7637795275590551,"duration":0.11041666666667993},{"name":"D4","midi":62,"time":158.28333333333123,"velocity":0.7637795275590551,"duration":0.11458333333334281},{"name":"C4","midi":60,"time":158.3999999999979,"velocity":0.7637795275590551,"duration":0.22708333333332575},{"name":"E4","midi":64,"time":158.3999999999979,"velocity":0.7637795275590551,"duration":0.22708333333332575},{"name":"A4","midi":69,"time":158.62916666666456,"velocity":0.7244094488188977,"duration":0.2333333333333485},{"name":"B3","midi":59,"time":158.62916666666456,"velocity":0.7637795275590551,"duration":0.11458333333334281},{"name":"C4","midi":60,"time":158.7437499999979,"velocity":0.7637795275590551,"duration":0.11666666666667425},{"name":"F#4","midi":66,"time":158.8624999999979,"velocity":0.7637795275590551,"duration":0.23750000000001137},{"name":"D4","midi":62,"time":158.86458333333124,"velocity":0.7637795275590551,"duration":0.11666666666667425},{"name":"C4","midi":60,"time":158.9812499999979,"velocity":0.7637795275590551,"duration":0.11875000000000568},{"name":"B3","midi":59,"time":159.09999999999792,"velocity":0.7637795275590551,"duration":0.2395833333333428},{"name":"G4","midi":67,"time":159.10208333333125,"velocity":0.7637795275590551,"duration":0.8291666666667084},{"name":"D3","midi":50,"time":159.22083333333126,"velocity":0.7637795275590551,"duration":0.11875000000000568},{"name":"C4","midi":60,"time":159.3416666666646,"velocity":0.7637795275590551,"duration":0.2333333333333485},{"name":"C3","midi":48,"time":159.3416666666646,"velocity":0.7637795275590551,"duration":0.11458333333334281},{"name":"D3","midi":50,"time":159.45833333333127,"velocity":0.7637795275590551,"duration":0.11666666666667425},{"name":"E3","midi":52,"time":159.57708333333127,"velocity":0.7637795275590551,"duration":0.11875000000000568},{"name":"D4","midi":62,"time":159.57708333333127,"velocity":0.7637795275590551,"duration":0.23750000000001137},{"name":"D3","midi":50,"time":159.69583333333128,"velocity":0.7637795275590551,"duration":0.11666666666667425},{"name":"E4","midi":64,"time":159.81458333333129,"velocity":0.7637795275590551,"duration":0.23749999999998295},{"name":"C3","midi":48,"time":159.81666666666462,"velocity":0.7637795275590551,"duration":0.23333333333332007},{"name":"A4","midi":69,"time":159.93124999999796,"velocity":0.7244094488188977,"duration":0.09999999999999432},{"name":"B4","midi":71,"time":160.03541666666462,"velocity":0.7244094488188977,"duration":0.04374999999998863},{"name":"F#3","midi":54,"time":160.05208333333127,"velocity":0.7637795275590551,"duration":0.5479166666666799},{"name":"B2","midi":47,"time":160.0541666666646,"velocity":0.7637795275590551,"duration":0.1395833333333485},{"name":"A4","midi":69,"time":160.0791666666646,"velocity":0.7244094488188977,"duration":0.054166666666674246},{"name":"B4","midi":71,"time":160.13333333333128,"velocity":0.7244094488188977,"duration":0.056250000000005684},{"name":"A4","midi":69,"time":160.18958333333129,"velocity":0.7244094488188977,"duration":0.054166666666674246},{"name":"C3","midi":48,"time":160.19374999999795,"velocity":0.7637795275590551,"duration":0.1395833333333485},{"name":"B4","midi":71,"time":160.24374999999796,"velocity":0.7244094488188977,"duration":0.054166666666674246},{"name":"A4","midi":69,"time":160.29791666666463,"velocity":0.7244094488188977,"duration":0.15208333333333712},{"name":"D3","midi":50,"time":160.3333333333313,"velocity":0.7637795275590551,"duration":0.11666666666667425},{"name":"G4","midi":67,"time":160.44999999999797,"velocity":0.7637795275590551,"duration":0.07291666666665719},{"name":"C3","midi":48,"time":160.4520833333313,"velocity":0.7637795275590551,"duration":0.14583333333331439},{"name":"A4","midi":69,"time":160.52499999999796,"velocity":0.7244094488188977,"duration":0.07291666666665719},{"name":"B4","midi":71,"time":160.59999999999795,"velocity":0.7244094488188977,"duration":0.23124999999998863},{"name":"G3","midi":55,"time":160.59999999999795,"velocity":0.7637795275590551,"duration":0.2291666666666572},{"name":"B2","midi":47,"time":160.60208333333128,"velocity":0.7637795275590551,"duration":0.22708333333332575},{"name":"C5","midi":72,"time":160.83124999999794,"velocity":0.7244094488188977,"duration":0.11666666666667425},{"name":"A4","midi":69,"time":160.83333333333127,"velocity":0.7244094488188977,"duration":0.11458333333334281},{"name":"A2","midi":45,"time":160.83333333333127,"velocity":0.7637795275590551,"duration":0.11250000000001137},{"name":"B4","midi":71,"time":160.9479166666646,"velocity":0.7244094488188977,"duration":0.11666666666667425},{"name":"G4","midi":67,"time":160.94999999999794,"velocity":0.7637795275590551,"duration":0.11250000000001137},{"name":"B2","midi":47,"time":160.94999999999794,"velocity":0.7637795275590551,"duration":0.11041666666667993},{"name":"A4","midi":69,"time":161.06458333333129,"velocity":0.7244094488188977,"duration":0.11458333333334281},{"name":"F#4","midi":66,"time":161.06458333333129,"velocity":0.7637795275590551,"duration":0.11250000000001137},{"name":"C3","midi":48,"time":161.06666666666462,"velocity":0.7637795275590551,"duration":0.11041666666667993},{"name":"B4","midi":71,"time":161.17916666666463,"velocity":0.7244094488188977,"duration":0.11458333333334281},{"name":"G4","midi":67,"time":161.18124999999796,"velocity":0.7637795275590551,"duration":0.11041666666667993},{"name":"B2","midi":47,"time":161.18124999999796,"velocity":0.7637795275590551,"duration":0.11041666666667993},{"name":"C5","midi":72,"time":161.29374999999797,"velocity":0.7244094488188977,"duration":0.2291666666666572},{"name":"A4","midi":69,"time":161.2958333333313,"velocity":0.7244094488188977,"duration":0.22708333333332575},{"name":"A2","midi":45,"time":161.2958333333313,"velocity":0.7637795275590551,"duration":0.22708333333332575},{"name":"D5","midi":74,"time":161.52499999999796,"velocity":0.7244094488188977,"duration":0.11250000000001137},{"name":"B4","midi":71,"time":161.52499999999796,"velocity":0.7244094488188977,"duration":0.11250000000001137},{"name":"G2","midi":43,"time":161.52499999999796,"velocity":0.7637795275590551,"duration":0.11041666666667993},{"name":"C5","midi":72,"time":161.6395833333313,"velocity":0.7244094488188977,"duration":0.11250000000001137},{"name":"A4","midi":69,"time":161.6395833333313,"velocity":0.7244094488188977,"duration":0.11041666666667993},{"name":"A2","midi":45,"time":161.6395833333313,"velocity":0.7637795275590551,"duration":0.11041666666667993},{"name":"B4","midi":71,"time":161.7520833333313,"velocity":0.7244094488188977,"duration":0.11666666666667425},{"name":"G4","midi":67,"time":161.75416666666464,"velocity":0.7637795275590551,"duration":0.11250000000001137},{"name":"B2","midi":47,"time":161.75416666666464,"velocity":0.7637795275590551,"duration":0.11250000000001137},{"name":"C5","midi":72,"time":161.868749999998,"velocity":0.7244094488188977,"duration":0.11458333333334281},{"name":"A4","midi":69,"time":161.868749999998,"velocity":0.7244094488188977,"duration":0.11458333333334281},{"name":"A2","midi":45,"time":161.87083333333132,"velocity":0.7637795275590551,"duration":0.11041666666667993},{"name":"B4","midi":71,"time":161.98541666666466,"velocity":0.7244094488188977,"duration":0.24583333333333712},{"name":"D5","midi":74,"time":161.98541666666466,"velocity":0.7244094488188977,"duration":0.24583333333333712},{"name":"G2","midi":43,"time":161.98541666666466,"velocity":0.7637795275590551,"duration":0.11458333333334281},{"name":"G3","midi":55,"time":162.099999999998,"velocity":0.7637795275590551,"duration":0.06666666666666288},{"name":"F#3","midi":54,"time":162.16666666666467,"velocity":0.7637795275590551,"duration":0.0625},{"name":"C5","midi":72,"time":162.23333333333133,"velocity":0.7244094488188977,"duration":0.23541666666667993},{"name":"A4","midi":69,"time":162.23333333333133,"velocity":0.7244094488188977,"duration":0.2333333333333485},{"name":"E3","midi":52,"time":162.23541666666466,"velocity":0.7637795275590551,"duration":0.11250000000001137},{"name":"G3","midi":55,"time":162.349999999998,"velocity":0.7637795275590551,"duration":0.11666666666667425},{"name":"B4","midi":71,"time":162.468749999998,"velocity":0.7244094488188977,"duration":0.23125000000001705},{"name":"D3","midi":50,"time":162.47083333333134,"velocity":0.7637795275590551,"duration":0.11041666666667993},{"name":"G4","midi":67,"time":162.47083333333134,"velocity":0.7637795275590551,"duration":0.4625000000000341},{"name":"G3","midi":55,"time":162.58333333333135,"velocity":0.7637795275590551,"duration":0.11458333333334281},{"name":"A4","midi":69,"time":162.69999999999803,"velocity":0.7244094488188977,"duration":0.2333333333333485},{"name":"C#3","midi":49,"time":162.69999999999803,"velocity":0.7637795275590551,"duration":0.11458333333334281},{"name":"G3","midi":55,"time":162.81458333333137,"velocity":0.7637795275590551,"duration":0.11666666666667425},{"name":"D5","midi":74,"time":162.9354166666647,"velocity":0.7244094488188977,"duration":0.22916666666668561},{"name":"G5","midi":79,"time":162.9354166666647,"velocity":0.6771653543307087,"duration":0.4625000000000341},{"name":"B2","midi":47,"time":162.93749999999804,"velocity":0.7637795275590551,"duration":0.11041666666667993},{"name":"G3","midi":55,"time":163.04999999999805,"velocity":0.7637795275590551,"duration":0.11458333333334281},{"name":"C#5","midi":73,"time":163.16666666666472,"velocity":0.7244094488188977,"duration":0.23125000000001705},{"name":"A2","midi":45,"time":163.16666666666472,"velocity":0.7637795275590551,"duration":0.11250000000001137},{"name":"G3","midi":55,"time":163.28124999999807,"velocity":0.7637795275590551,"duration":0.11458333333334281},{"name":"D5","midi":74,"time":163.39999999999807,"velocity":0.7244094488188977,"duration":0.22916666666668561},{"name":"F#5","midi":78,"time":163.39999999999807,"velocity":0.6771653543307087,"duration":0.22916666666668561},{"name":"D3","midi":50,"time":163.39999999999807,"velocity":0.7637795275590551,"duration":0.11250000000001137},{"name":"C3","midi":48,"time":163.51249999999808,"velocity":0.7637795275590551,"duration":0.11458333333334281},{"name":"E5","midi":76,"time":163.6312499999981,"velocity":0.6771653543307087,"duration":0.2333333333333485},{"name":"G4","midi":67,"time":163.6312499999981,"velocity":0.7637795275590551,"duration":0.23125000000001705},{"name":"A#2","midi":46,"time":163.63333333333142,"velocity":0.7637795275590551,"duration":0.11250000000001137},{"name":"D3","midi":50,"time":163.74791666666476,"velocity":0.7637795275590551,"duration":0.11458333333334281},{"name":"D5","midi":74,"time":163.86458333333144,"velocity":0.7244094488188977,"duration":0.23541666666667993},{"name":"F#4","midi":66,"time":163.86666666666477,"velocity":0.7637795275590551,"duration":0.2333333333333485},{"name":"A2","midi":45,"time":163.86666666666477,"velocity":0.7637795275590551,"duration":0.11250000000001137},{"name":"D3","midi":50,"time":163.9812499999981,"velocity":0.7637795275590551,"duration":0.11666666666667425},{"name":"C#5","midi":73,"time":164.09999999999812,"velocity":0.7244094488188977,"duration":0.23125000000001705},{"name":"E4","midi":64,"time":164.10208333333145,"velocity":0.7637795275590551,"duration":0.22916666666668561},{"name":"G2","midi":43,"time":164.10208333333145,"velocity":0.7637795275590551,"duration":0.11458333333334281},{"name":"E3","midi":52,"time":164.2166666666648,"velocity":0.7637795275590551,"duration":0.11250000000001137},{"name":"C#5","midi":73,"time":164.33333333333147,"velocity":0.7244094488188977,"duration":0.4562500000000398},{"name":"A#5","midi":82,"time":164.33333333333147,"velocity":0.6771653543307087,"duration":0.4562500000000398},{"name":"F#2","midi":42,"time":164.3354166666648,"velocity":0.7637795275590551,"duration":0.11041666666667993},{"name":"E3","midi":52,"time":164.4479166666648,"velocity":0.7637795275590551,"duration":0.11250000000001137},{"name":"E2","midi":40,"time":164.56041666666482,"velocity":0.7637795275590551,"duration":0.11458333333334281},{"name":"E3","midi":52,"time":164.67499999999816,"velocity":0.7637795275590551,"duration":0.11250000000001137},{"name":"C5","midi":72,"time":164.79166666666484,"velocity":0.7244094488188977,"duration":0.4687500000000284},{"name":"A5","midi":81,"time":164.79166666666484,"velocity":0.6771653543307087,"duration":0.11458333333334281},{"name":"F#2","midi":42,"time":164.79374999999817,"velocity":0.7637795275590551,"duration":0.23125000000001705},{"name":"G5","midi":79,"time":164.90624999999818,"velocity":0.6771653543307087,"duration":0.11875000000000568},{"name":"F#5","midi":78,"time":165.0249999999982,"velocity":0.6771653543307087,"duration":0.11666666666667425},{"name":"D2","midi":38,"time":165.02708333333152,"velocity":0.7637795275590551,"duration":0.23125000000001705},{"name":"E5","midi":76,"time":165.1437499999982,"velocity":0.6771653543307087,"duration":0.11458333333334281},{"name":"D5","midi":74,"time":165.26041666666487,"velocity":0.7244094488188977,"duration":0.25833333333332575},{"name":"G2","midi":43,"time":165.2624999999982,"velocity":0.7637795275590551,"duration":0.2541666666666629},{"name":"B4","midi":71,"time":165.3749999999982,"velocity":0.7244094488188977,"duration":0.07083333333332575},{"name":"A4","midi":69,"time":165.44791666666487,"velocity":0.7244094488188977,"duration":0.06874999999999432},{"name":"B4","midi":71,"time":165.5187499999982,"velocity":0.7244094488188977,"duration":0.23750000000001137},{"name":"E2","midi":40,"time":165.52083333333152,"velocity":0.7637795275590551,"duration":0.2333333333333485},{"name":"G5","midi":79,"time":165.63541666666487,"velocity":0.6771653543307087,"duration":0.23750000000001137},{"name":"A4","midi":69,"time":165.7562499999982,"velocity":0.7244094488188977,"duration":0.4729166666666913},{"name":"C2","midi":36,"time":165.7562499999982,"velocity":0.7637795275590551,"duration":0.23541666666667993},{"name":"C5","midi":72,"time":165.87291666666488,"velocity":0.7244094488188977,"duration":0.11875000000000568},{"name":"G5","midi":79,"time":165.99374999999822,"velocity":0.6771653543307087,"duration":0.11666666666667425},{"name":"D2","midi":38,"time":165.99374999999822,"velocity":0.7637795275590551,"duration":0.23541666666667993},{"name":"F#5","midi":78,"time":166.11249999999822,"velocity":0.6771653543307087,"duration":0.11666666666667425},{"name":"B4","midi":71,"time":166.23124999999823,"velocity":0.7244094488188977,"duration":0.24375000000000568},{"name":"G5","midi":79,"time":166.23124999999823,"velocity":0.6771653543307087,"duration":0.11875000000000568},{"name":"G2","midi":43,"time":166.23333333333156,"velocity":0.7637795275590551,"duration":0.7500000000000284},{"name":"F#5","midi":78,"time":166.34999999999823,"velocity":0.6771653543307087,"duration":0.07083333333332575},{"name":"E5","midi":76,"time":166.4229166666649,"velocity":0.6771653543307087,"duration":0.07291666666668561},{"name":"D5","midi":74,"time":166.49583333333157,"velocity":0.7244094488188977,"duration":0.12291666666666856},{"name":"B4","midi":71,"time":166.4979166666649,"velocity":0.7244094488188977,"duration":0.24166666666667425},{"name":"G5","midi":79,"time":166.62083333333157,"velocity":0.6771653543307087,"duration":0.11875000000000568},{"name":"C5","midi":72,"time":166.7416666666649,"velocity":0.7244094488188977,"duration":0.11666666666667425},{"name":"A4","midi":69,"time":166.7416666666649,"velocity":0.7244094488188977,"duration":0.2395833333333428},{"name":"G5","midi":79,"time":166.86041666666492,"velocity":0.6771653543307087,"duration":0.12083333333333712},{"name":"B4","midi":71,"time":166.9833333333316,"velocity":0.7244094488188977,"duration":0.2708333333333144},{"name":"G4","midi":67,"time":166.98541666666492,"velocity":0.7637795275590551,"duration":0.5145833333333201},{"name":"G2","midi":43,"time":167.11041666666492,"velocity":0.7637795275590551,"duration":0.07708333333332007},{"name":"A2","midi":45,"time":167.18749999999824,"velocity":0.7637795275590551,"duration":0.06458333333333144},{"name":"G5","midi":79,"time":167.2541666666649,"velocity":0.6771653543307087,"duration":0.24375000000000568},{"name":"B2","midi":47,"time":167.25624999999823,"velocity":0.7637795275590551,"duration":0.11666666666667425},{"name":"G2","midi":43,"time":167.37499999999824,"velocity":0.7637795275590551,"duration":0.12291666666666856},{"name":"A4","midi":69,"time":167.49999999999824,"velocity":0.7244094488188977,"duration":0.24375000000000568},{"name":"F#4","midi":66,"time":167.49999999999824,"velocity":0.7637795275590551,"duration":0.24375000000000568},{"name":"C3","midi":48,"time":167.50208333333157,"velocity":0.7637795275590551,"duration":0.11666666666667425},{"name":"G2","midi":43,"time":167.62083333333157,"velocity":0.7637795275590551,"duration":0.3645833333333428},{"name":"B4","midi":71,"time":167.74583333333157,"velocity":0.7244094488188977,"duration":0.12083333333333712},{"name":"G4","midi":67,"time":167.74583333333157,"velocity":0.7637795275590551,"duration":0.26666666666667993},{"name":"D3","midi":50,"time":167.7479166666649,"velocity":0.7637795275590551,"duration":0.2645833333333485},{"name":"D5","midi":74,"time":167.86874999999824,"velocity":0.7244094488188977,"duration":0.06666666666666288},{"name":"C5","midi":72,"time":167.9354166666649,"velocity":0.7244094488188977,"duration":0.07500000000001705},{"name":"B4","midi":71,"time":168.0145833333316,"velocity":0.7244094488188977,"duration":0.12291666666666856},{"name":"G4","midi":67,"time":168.0145833333316,"velocity":0.7637795275590551,"duration":0.24791666666666856},{"name":"G2","midi":43,"time":168.01666666666492,"velocity":0.7637795275590551,"duration":8.222916666666464},{"name":"D5","midi":74,"time":168.13749999999825,"velocity":0.7244094488188977,"duration":0.12291666666666856},{"name":"A4","midi":69,"time":168.26249999999825,"velocity":0.7244094488188977,"duration":0.12083333333333712},{"name":"F4","midi":65,"time":168.2645833333316,"velocity":0.7637795275590551,"duration":0.24166666666667425},{"name":"B2","midi":47,"time":168.2645833333316,"velocity":0.7637795275590551,"duration":0.24166666666667425},{"name":"D5","midi":74,"time":168.3833333333316,"velocity":0.7244094488188977,"duration":0.12083333333333712},{"name":"E4","midi":64,"time":168.5083333333316,"velocity":0.7637795275590551,"duration":0.5416666666666288},{"name":"G4","midi":67,"time":168.5083333333316,"velocity":0.7637795275590551,"duration":0.28541666666663446},{"name":"C3","midi":48,"time":168.51041666666492,"velocity":0.7637795275590551,"duration":0.05833333333333712},{"name":"B2","midi":47,"time":168.5708333333316,"velocity":0.7637795275590551,"duration":0.07499999999998863},{"name":"C3","midi":48,"time":168.64583333333158,"velocity":0.7637795275590551,"duration":0.07499999999998863},{"name":"D3","midi":50,"time":168.7229166666649,"velocity":0.7637795275590551,"duration":0.07083333333332575},{"name":"C5","midi":72,"time":168.79583333333156,"velocity":0.7244094488188977,"duration":0.6395833333333201},{"name":"E3","midi":52,"time":168.79583333333156,"velocity":0.7637795275590551,"duration":0.125},{"name":"C3","midi":48,"time":168.9229166666649,"velocity":0.7637795275590551,"duration":0.12708333333333144},{"name":"F#3","midi":54,"time":169.04999999999822,"velocity":0.7637795275590551,"duration":0.12291666666666856},{"name":"D#4","midi":63,"time":169.05208333333155,"velocity":0.7637795275590551,"duration":0.24583333333333712},{"name":"C3","midi":48,"time":169.17499999999822,"velocity":0.7637795275590551,"duration":0.12291666666666856},{"name":"G3","midi":55,"time":169.29999999999822,"velocity":0.7637795275590551,"duration":6.939583333333161},{"name":"D4","midi":62,"time":169.29999999999822,"velocity":0.7637795275590551,"duration":0.2874999999999659},{"name":"G4","midi":67,"time":169.36249999999822,"velocity":0.7637795275590551,"duration":0.07291666666665719},{"name":"A4","midi":69,"time":169.4374999999982,"velocity":0.7244094488188977,"duration":0.07291666666665719},{"name":"B4","midi":71,"time":169.5124999999982,"velocity":0.7244094488188977,"duration":0.07499999999998863},{"name":"C5","midi":72,"time":169.58958333333152,"velocity":0.7244094488188977,"duration":0.13333333333332575},{"name":"E4","midi":64,"time":169.58958333333152,"velocity":0.7637795275590551,"duration":0.26874999999998295},{"name":"G4","midi":67,"time":169.72499999999818,"velocity":0.7637795275590551,"duration":0.13124999999999432},{"name":"D5","midi":74,"time":169.8583333333315,"velocity":0.7244094488188977,"duration":0.1354166666666572},{"name":"B4","midi":71,"time":169.86041666666483,"velocity":0.7244094488188977,"duration":0.2729166666666458},{"name":"F4","midi":65,"time":169.86041666666483,"velocity":0.7637795275590551,"duration":0.2708333333333144},{"name":"G4","midi":67,"time":169.99374999999816,"velocity":0.7637795275590551,"duration":0.13749999999998863},{"name":"C5","midi":72,"time":170.13333333333148,"velocity":0.7244094488188977,"duration":0.14791666666664582},{"name":"E5","midi":76,"time":170.1354166666648,"velocity":0.6771653543307087,"duration":0.06666666666666288},{"name":"G4","midi":67,"time":170.1354166666648,"velocity":0.7637795275590551,"duration":0.3562499999999602},{"name":"B4","midi":71,"time":170.2041666666648,"velocity":0.7244094488188977,"duration":0.0895833333333087},{"name":"C5","midi":72,"time":170.2937499999981,"velocity":0.7244094488188977,"duration":0.09999999999999432},{"name":"D5","midi":74,"time":170.3937499999981,"velocity":0.7244094488188977,"duration":0.09791666666666288},{"name":"E5","midi":76,"time":170.4937499999981,"velocity":0.6771653543307087,"duration":0.18958333333333144},{"name":"G4","midi":67,"time":170.4937499999981,"velocity":0.7637795275590551,"duration":0.40625},{"name":"C5","midi":72,"time":170.68541666666476,"velocity":0.7244094488188977,"duration":0.21458333333333712},{"name":"F#5","midi":78,"time":170.8999999999981,"velocity":0.6771653543307087,"duration":0.25},{"name":"A4","midi":69,"time":170.90208333333143,"velocity":0.7244094488188977,"duration":0.5687499999999943},{"name":"C5","midi":72,"time":171.1499999999981,"velocity":0.7244094488188977,"duration":0.32083333333332575},{"name":"G5","midi":79,"time":171.47291666666476,"velocity":0.6771653543307087,"duration":1.6833333333333087},{"name":"B4","midi":71,"time":171.47291666666476,"velocity":0.7244094488188977,"duration":1.3041666666666458},{"name":"D5","midi":74,"time":171.76458333333142,"velocity":0.7244094488188977,"duration":0.29583333333332007},{"name":"E5","midi":76,"time":172.06041666666474,"velocity":0.6771653543307087,"duration":0.35208333333332575},{"name":"C5","midi":72,"time":172.41249999999806,"velocity":0.7244094488188977,"duration":1.3625000000000114},{"name":"A4","midi":69,"time":172.77916666666474,"velocity":0.7244094488188977,"duration":1.0208333333333144},{"name":"F#5","midi":78,"time":173.15624999999807,"velocity":0.6771653543307087,"duration":0.6187500000000057},{"name":"D5","midi":74,"time":173.7833333333314,"velocity":0.6771653543307087,"duration":2.17083333333332},{"name":"B4","midi":71,"time":173.78541666666473,"velocity":0.6771653543307087,"duration":2.1687499999999886},{"name":"G5","midi":79,"time":173.78541666666473,"velocity":0.6771653543307087,"duration":2.166666666666657}],"controlChanges":{"7":[{"number":7,"time":0,"value":0.7874015748031497},{"number":7,"time":0,"value":0.8267716535433071},{"number":7,"time":0,"value":0.8267716535433071}],"10":[{"number":10,"time":0,"value":0.49606299212598426},{"number":10,"time":0,"value":0.3779527559055118},{"number":10,"time":0,"value":0.3779527559055118},{"number":10,"time":4.622916666666667,"value":0.5275590551181102},{"number":10,"time":4.685416666666667,"value":0.6220472440944882},{"number":10,"time":4.689583333333333,"value":0.47244094488188976},{"number":10,"time":4.720833333333333,"value":0.5196850393700787},{"number":10,"time":4.766666666666667,"value":0.5905511811023622},{"number":10,"time":4.777083333333334,"value":0.4566929133858268},{"number":10,"time":4.80625,"value":0.4330708661417323},{"number":10,"time":4.820833333333334,"value":0.5826771653543307},{"number":10,"time":4.866666666666667,"value":0.4645669291338583}]},"id":0,"name":"--------","instrumentNumber":0,"instrument":"acoustic grand piano","instrumentFamily":"piano","channelNumber":0,"isPercussion":false}]}