{"header":{"PPQ":240,"timeSignature":[3,8],"bpm":72.00002880001152,"name":"--------"},"startTime":0,"duration":155.66660440000058,"tracks":[{"startTime":0,"duration":0,"length":0,"notes":[],"controlChanges":{},"id":0,"name":"--------"},{"startTime":0.20833325,"duration":155.6666043999991,"length":598,"notes":[{"name":"E5","midi":76,"time":0.20833325,"velocity":0.84251968503937,"duration":0.38194429166666666},{"name":"D#5","midi":75,"time":0.62499975,"velocity":0.84251968503937,"duration":0.38194429166666666},{"name":"D5","midi":74,"time":1.04166625,"velocity":0.84251968503937,"duration":0.39930539583333324},{"name":"C#5","midi":73,"time":1.4583327499999998,"velocity":0.84251968503937,"duration":0.38194429166666666},{"name":"B4","midi":71,"time":1.87499925,"velocity":0.84251968503937,"duration":0.3819442916666669},{"name":"A4","midi":69,"time":2.29166575,"velocity":0.84251968503937,"duration":0.39930539583333324},{"name":"G#4","midi":68,"time":2.7083322499999998,"velocity":0.84251968503937,"duration":0.38194429166666666},{"name":"F#4","midi":66,"time":3.1249987499999996,"velocity":0.84251968503937,"duration":0.38194429166666666},{"name":"G#4","midi":68,"time":3.5416652499999994,"velocity":0.84251968503937,"duration":0.19097214583333333},{"name":"G#4","midi":68,"time":3.7499984999999993,"velocity":0.84251968503937,"duration":0.2048610291666666},{"name":"B4","midi":71,"time":3.9583317499999993,"velocity":0.84251968503937,"duration":0.10069440416666708},{"name":"A4","midi":69,"time":4.062498375,"velocity":0.84251968503937,"duration":0.10069440416666708},{"name":"B4","midi":71,"time":4.166665,"velocity":0.84251968503937,"duration":0.2048610291666666},{"name":"G#4","midi":68,"time":4.37499825,"velocity":0.84251968503937,"duration":0.10069440416666708},{"name":"F#4","midi":66,"time":4.479164875,"velocity":0.84251968503937,"duration":0.10069440416666708},{"name":"G#4","midi":68,"time":4.583331500000001,"velocity":0.84251968503937,"duration":0.2048610291666666},{"name":"E4","midi":64,"time":4.791664750000001,"velocity":0.84251968503937,"duration":0.10069440416666708},{"name":"D#4","midi":63,"time":4.895831375000001,"velocity":0.84251968503937,"duration":0.10069440416666708},{"name":"E4","midi":64,"time":4.9999980000000015,"velocity":0.84251968503937,"duration":0.41666649999999983},{"name":"F#4","midi":66,"time":5.416664500000001,"velocity":0.84251968503937,"duration":0.41666649999999983},{"name":"G#4","midi":68,"time":5.833331000000001,"velocity":0.84251968503937,"duration":0.41666649999999983},{"name":"A4","midi":69,"time":6.249997500000001,"velocity":0.84251968503937,"duration":0.41666649999999983},{"name":"B4","midi":71,"time":6.666664000000001,"velocity":0.84251968503937,"duration":0.41666649999999983},{"name":"C#5","midi":73,"time":7.083330500000001,"velocity":0.84251968503937,"duration":0.41666649999999983},{"name":"D#5","midi":75,"time":7.4999970000000005,"velocity":0.84251968503937,"duration":0.4097220583333332},{"name":"E5","midi":76,"time":7.9166635,"velocity":0.84251968503937,"duration":0.2048610291666666},{"name":"D#5","midi":75,"time":8.124996750000001,"velocity":0.84251968503937,"duration":0.2048610291666666},{"name":"C#5","midi":73,"time":8.333330000000002,"velocity":0.84251968503937,"duration":0.2048610291666666},{"name":"B4","midi":71,"time":8.541663250000003,"velocity":0.84251968503937,"duration":0.2048610291666666},{"name":"E5","midi":76,"time":8.749996500000004,"velocity":0.84251968503937,"duration":0.41666649999999983},{"name":"E4","midi":64,"time":9.166663000000003,"velocity":0.84251968503937,"duration":0.41666649999999983},{"name":"G#5","midi":80,"time":10.208329250000004,"velocity":0.84251968503937,"duration":0.41666649999999983},{"name":"E5","midi":76,"time":10.624995750000004,"velocity":0.84251968503937,"duration":0.41666649999999983},{"name":"C#5","midi":73,"time":11.041662250000003,"velocity":0.84251968503937,"duration":0.4131942791666674},{"name":"E5","midi":76,"time":11.458328750000005,"velocity":0.84251968503937,"duration":0.10069440416666708},{"name":"D#5","midi":75,"time":11.562495375000006,"velocity":0.84251968503937,"duration":0.10069440416666708},{"name":"E5","midi":76,"time":11.666662000000008,"velocity":0.84251968503937,"duration":0.2048610291666666},{"name":"C#5","midi":73,"time":11.874995250000008,"velocity":0.84251968503937,"duration":0.2048610291666666},{"name":"A#4","midi":70,"time":12.08332850000001,"velocity":0.84251968503937,"duration":0.2048610291666666},{"name":"F#4","midi":66,"time":12.29166175000001,"velocity":0.84251968503937,"duration":0.41666649999999983},{"name":"F#5","midi":78,"time":12.70832825000001,"velocity":0.84251968503937,"duration":0.41666649999999983},{"name":"D#5","midi":75,"time":13.12499475000001,"velocity":0.84251968503937,"duration":0.41666649999999983},{"name":"B4","midi":71,"time":13.54166125000001,"velocity":0.84251968503937,"duration":0.4131942791666674},{"name":"D#5","midi":75,"time":13.958327750000011,"velocity":0.84251968503937,"duration":0.10069440416666708},{"name":"C#5","midi":73,"time":14.062494375000012,"velocity":0.84251968503937,"duration":0.10069440416666708},{"name":"D#5","midi":75,"time":14.166661000000014,"velocity":0.84251968503937,"duration":0.2048610291666666},{"name":"B4","midi":71,"time":14.374994250000015,"velocity":0.84251968503937,"duration":0.2048610291666666},{"name":"G#4","midi":68,"time":14.583327500000015,"velocity":0.84251968503937,"duration":0.2048610291666666},{"name":"E4","midi":64,"time":14.791660750000016,"velocity":0.84251968503937,"duration":0.41666649999999983},{"name":"E5","midi":76,"time":15.208327250000016,"velocity":0.84251968503937,"duration":0.41666649999999983},{"name":"C#5","midi":73,"time":15.624993750000016,"velocity":0.84251968503937,"duration":0.4166665000000016},{"name":"A#4","midi":70,"time":16.041660250000017,"velocity":0.84251968503937,"duration":0.4166665000000016},{"name":"G#5","midi":80,"time":16.45832675000002,"velocity":0.84251968503937,"duration":0.4166665000000016},{"name":"F#5","midi":78,"time":16.87499325000002,"velocity":0.84251968503937,"duration":0.4166665000000016},{"name":"E5","midi":76,"time":17.291659750000022,"velocity":0.84251968503937,"duration":0.4166665000000016},{"name":"D#5","midi":75,"time":17.708326250000024,"velocity":0.84251968503937,"duration":0.4166665000000016},{"name":"C#5","midi":73,"time":18.124992750000025,"velocity":0.84251968503937,"duration":0.4166665000000016},{"name":"B4","midi":71,"time":18.541659250000027,"velocity":0.84251968503937,"duration":0.20833324999999903},{"name":"A#4","midi":70,"time":18.749992500000026,"velocity":0.84251968503937,"duration":0.20486102916666837},{"name":"E4","midi":64,"time":18.95832575000003,"velocity":0.84251968503937,"duration":0.10069440416666708},{"name":"D#4","midi":63,"time":19.06249237500003,"velocity":0.84251968503937,"duration":0.10069440416666708},{"name":"E4","midi":64,"time":19.16665900000003,"velocity":0.84251968503937,"duration":0.20486102916666837},{"name":"A#4","midi":70,"time":19.374992250000034,"velocity":0.84251968503937,"duration":0.10069440416666708},{"name":"G#4","midi":68,"time":19.479158875000035,"velocity":0.84251968503937,"duration":0.10069440416666708},{"name":"A#4","midi":70,"time":19.583325500000036,"velocity":0.84251968503937,"duration":0.20486102916666837},{"name":"B4","midi":71,"time":19.79165875000004,"velocity":0.84251968503937,"duration":0.10069440416666708},{"name":"A#4","midi":70,"time":19.89582537500004,"velocity":0.84251968503937,"duration":0.10069440416666708},{"name":"B4","midi":71,"time":19.99999200000004,"velocity":0.84251968503937,"duration":0.20486102916666837},{"name":"D#4","midi":63,"time":20.208325250000044,"velocity":0.84251968503937,"duration":0.20486102916666837},{"name":"C#4","midi":61,"time":20.416658500000047,"velocity":0.84251968503937,"duration":0.20486102916666837},{"name":"B4","midi":71,"time":20.62499175000005,"velocity":0.84251968503937,"duration":0.20486102916666837},{"name":"C#4","midi":61,"time":20.833325000000052,"velocity":0.84251968503937,"duration":0.20486102916666837},{"name":"A#4","midi":70,"time":21.041658250000054,"velocity":0.84251968503937,"duration":0.20486102916666837},{"name":"B4","midi":71,"time":21.249991500000057,"velocity":0.84251968503937,"duration":0.4166665000000016},{"name":"B4","midi":71,"time":21.874991250000058,"velocity":0.84251968503937,"duration":0.20833324999999903},{"name":"D#5","midi":75,"time":22.083324500000057,"velocity":0.84251968503937,"duration":0.20833324999999903},{"name":"F#5","midi":78,"time":22.291657750000056,"velocity":0.84251968503937,"duration":0.20833324999999903},{"name":"B5","midi":83,"time":22.499991000000055,"velocity":0.84251968503937,"duration":0.4166665000000016},{"name":"B5","midi":83,"time":23.124990750000055,"velocity":0.84251968503937,"duration":0.20833324999999903},{"name":"F#5","midi":78,"time":23.333324000000054,"velocity":0.84251968503937,"duration":0.20833324999999903},{"name":"D#5","midi":75,"time":23.541657250000053,"velocity":0.84251968503937,"duration":0.20833324999999903},{"name":"B4","midi":71,"time":23.749990500000052,"velocity":0.84251968503937,"duration":0.20833324999999903},{"name":"F#4","midi":66,"time":23.95832375000005,"velocity":0.84251968503937,"duration":0.20833324999999903},{"name":"D#4","midi":63,"time":24.16665700000005,"velocity":0.84251968503937,"duration":0.20833324999999903},{"name":"B3","midi":59,"time":24.37499025000005,"velocity":0.84251968503937,"duration":0.33333319999999844},{"name":"E5","midi":76,"time":25.20832325000005,"velocity":0.84251968503937,"duration":0.38194429166666666},{"name":"D#5","midi":75,"time":25.62498975000005,"velocity":0.84251968503937,"duration":0.38194429166666666},{"name":"D5","midi":74,"time":26.041656250000052,"velocity":0.84251968503937,"duration":0.39930539583333413},{"name":"C#5","midi":73,"time":26.458322750000054,"velocity":0.84251968503937,"duration":0.38194429166666666},{"name":"B4","midi":71,"time":26.874989250000056,"velocity":0.84251968503937,"duration":0.38194429166666666},{"name":"A4","midi":69,"time":27.291655750000057,"velocity":0.84251968503937,"duration":0.39930539583333413},{"name":"G#4","midi":68,"time":27.70832225000006,"velocity":0.84251968503937,"duration":0.38194429166666666},{"name":"F#4","midi":66,"time":28.12498875000006,"velocity":0.84251968503937,"duration":0.38194429166666666},{"name":"G#4","midi":68,"time":28.541655250000062,"velocity":0.84251968503937,"duration":0.1909721458333351},{"name":"G#4","midi":68,"time":28.749988500000065,"velocity":0.84251968503937,"duration":0.20486102916666837},{"name":"B4","midi":71,"time":28.958321750000067,"velocity":0.84251968503937,"duration":0.10069440416666708},{"name":"A4","midi":69,"time":29.06248837500007,"velocity":0.84251968503937,"duration":0.10069440416666708},{"name":"B4","midi":71,"time":29.16665500000007,"velocity":0.84251968503937,"duration":0.20486102916666837},{"name":"G#4","midi":68,"time":29.374988250000072,"velocity":0.84251968503937,"duration":0.10069440416666708},{"name":"F#4","midi":66,"time":29.479154875000074,"velocity":0.84251968503937,"duration":0.10069440416666708},{"name":"G#4","midi":68,"time":29.583321500000075,"velocity":0.84251968503937,"duration":0.20486102916666837},{"name":"E4","midi":64,"time":29.791654750000077,"velocity":0.84251968503937,"duration":0.10069440416666708},{"name":"D#4","midi":63,"time":29.89582137500008,"velocity":0.84251968503937,"duration":0.10069440416666708},{"name":"E4","midi":64,"time":29.99998800000008,"velocity":0.84251968503937,"duration":0.4166665000000016},{"name":"F#4","midi":66,"time":30.41665450000008,"velocity":0.84251968503937,"duration":0.4166665000000016},{"name":"G#4","midi":68,"time":30.833321000000083,"velocity":0.84251968503937,"duration":0.4166665000000016},{"name":"A4","midi":69,"time":31.249987500000085,"velocity":0.84251968503937,"duration":0.4166665000000016},{"name":"B4","midi":71,"time":31.666654000000086,"velocity":0.84251968503937,"duration":0.41666649999999805},{"name":"C#5","midi":73,"time":32.083320500000085,"velocity":0.84251968503937,"duration":0.41666649999999805},{"name":"D#5","midi":75,"time":32.49998700000008,"velocity":0.84251968503937,"duration":0.40972205833333675},{"name":"E5","midi":76,"time":32.91665350000009,"velocity":0.84251968503937,"duration":0.20486102916666482},{"name":"D#5","midi":75,"time":33.12498675000008,"velocity":0.84251968503937,"duration":0.20486102916666482},{"name":"C#5","midi":73,"time":33.33332000000008,"velocity":0.84251968503937,"duration":0.20486102916666482},{"name":"B4","midi":71,"time":33.541653250000074,"velocity":0.84251968503937,"duration":0.20486102916666482},{"name":"E5","midi":76,"time":33.74998650000007,"velocity":0.84251968503937,"duration":0.41666649999999805},{"name":"E4","midi":64,"time":34.16665300000007,"velocity":0.84251968503937,"duration":0.41666649999999805},{"name":"G#5","midi":80,"time":35.208319250000066,"velocity":0.84251968503937,"duration":0.41666649999999805},{"name":"E5","midi":76,"time":35.624985750000064,"velocity":0.84251968503937,"duration":0.41666649999999805},{"name":"C#5","midi":73,"time":36.04165225000006,"velocity":0.84251968503937,"duration":0.4131942791666674},{"name":"E5","midi":76,"time":36.45831875000006,"velocity":0.84251968503937,"duration":0.10069440416666708},{"name":"D#5","midi":75,"time":36.56248537500006,"velocity":0.84251968503937,"duration":0.10069440416666708},{"name":"E5","midi":76,"time":36.666652000000056,"velocity":0.84251968503937,"duration":0.20486102916666482},{"name":"C#5","midi":73,"time":36.87498525000005,"velocity":0.84251968503937,"duration":0.20486102916666482},{"name":"A#4","midi":70,"time":37.08331850000005,"velocity":0.84251968503937,"duration":0.20486102916666482},{"name":"F#4","midi":66,"time":37.29165175000004,"velocity":0.84251968503937,"duration":0.41666649999999805},{"name":"F#5","midi":78,"time":37.70831825000004,"velocity":0.84251968503937,"duration":0.41666649999999805},{"name":"D#5","midi":75,"time":38.12498475000004,"velocity":0.84251968503937,"duration":0.41666649999999805},{"name":"B4","midi":71,"time":38.54165125000004,"velocity":0.84251968503937,"duration":0.4131942791666674},{"name":"D#5","midi":75,"time":38.958317750000035,"velocity":0.84251968503937,"duration":0.10069440416666708},{"name":"C#5","midi":73,"time":39.06248437500003,"velocity":0.84251968503937,"duration":0.10069440416666708},{"name":"D#5","midi":75,"time":39.16665100000003,"velocity":0.84251968503937,"duration":0.20486102916666482},{"name":"B4","midi":71,"time":39.374984250000026,"velocity":0.84251968503937,"duration":0.20486102916666482},{"name":"G#4","midi":68,"time":39.58331750000002,"velocity":0.84251968503937,"duration":0.20486102916666482},{"name":"E4","midi":64,"time":39.79165075000002,"velocity":0.84251968503937,"duration":0.41666649999999805},{"name":"E5","midi":76,"time":40.208317250000015,"velocity":0.84251968503937,"duration":0.41666649999999805},{"name":"C#5","midi":73,"time":40.62498375000001,"velocity":0.84251968503937,"duration":0.41666649999999805},{"name":"A#4","midi":70,"time":41.04165025000001,"velocity":0.84251968503937,"duration":0.41666649999999805},{"name":"G#5","midi":80,"time":41.45831675000001,"velocity":0.84251968503937,"duration":0.41666649999999805},{"name":"F#5","midi":78,"time":41.87498325000001,"velocity":0.84251968503937,"duration":0.41666649999999805},{"name":"E5","midi":76,"time":42.291649750000005,"velocity":0.84251968503937,"duration":0.41666649999999805},{"name":"D#5","midi":75,"time":42.70831625,"velocity":0.84251968503937,"duration":0.41666649999999805},{"name":"C#5","midi":73,"time":43.12498275,"velocity":0.84251968503937,"duration":0.41666649999999805},{"name":"B4","midi":71,"time":43.54164925,"velocity":0.84251968503937,"duration":0.20833325000000258},{"name":"A#4","midi":70,"time":43.7499825,"velocity":0.84251968503937,"duration":0.20486102916666482},{"name":"E4","midi":64,"time":43.95831575,"velocity":0.84251968503937,"duration":0.10069440416666708},{"name":"D#4","midi":63,"time":44.062482374999995,"velocity":0.84251968503937,"duration":0.10069440416666708},{"name":"E4","midi":64,"time":44.16664899999999,"velocity":0.84251968503937,"duration":0.20486102916666482},{"name":"A#4","midi":70,"time":44.37498224999999,"velocity":0.84251968503937,"duration":0.10069440416666708},{"name":"G#4","midi":68,"time":44.479148874999986,"velocity":0.84251968503937,"duration":0.10069440416666708},{"name":"A#4","midi":70,"time":44.58331549999998,"velocity":0.84251968503937,"duration":0.20486102916666482},{"name":"B4","midi":71,"time":44.79164874999998,"velocity":0.84251968503937,"duration":0.10069440416666708},{"name":"A#4","midi":70,"time":44.89581537499998,"velocity":0.84251968503937,"duration":0.10069440416666708},{"name":"B4","midi":71,"time":44.999981999999974,"velocity":0.84251968503937,"duration":0.20486102916666482},{"name":"D#4","midi":63,"time":45.20831524999997,"velocity":0.84251968503937,"duration":0.20486102916666482},{"name":"C#4","midi":61,"time":45.416648499999965,"velocity":0.84251968503937,"duration":0.20486102916666482},{"name":"B4","midi":71,"time":45.62498174999996,"velocity":0.84251968503937,"duration":0.20486102916666482},{"name":"C#4","midi":61,"time":45.833314999999956,"velocity":0.84251968503937,"duration":0.20486102916666482},{"name":"A#4","midi":70,"time":46.04164824999995,"velocity":0.84251968503937,"duration":0.20486102916666482},{"name":"B4","midi":71,"time":46.24998149999995,"velocity":0.84251968503937,"duration":0.41666649999999805},{"name":"B4","midi":71,"time":46.87498124999995,"velocity":0.84251968503937,"duration":0.20833325000000258},{"name":"D#5","midi":75,"time":47.08331449999995,"velocity":0.84251968503937,"duration":0.20833325000000258},{"name":"F#5","midi":78,"time":47.29164774999995,"velocity":0.84251968503937,"duration":0.20833325000000258},{"name":"B5","midi":83,"time":47.499980999999956,"velocity":0.84251968503937,"duration":0.41666649999999805},{"name":"B5","midi":83,"time":48.124980749999956,"velocity":0.84251968503937,"duration":0.20833325000000258},{"name":"F#5","midi":78,"time":48.33331399999996,"velocity":0.84251968503937,"duration":0.20833325000000258},{"name":"D#5","midi":75,"time":48.54164724999996,"velocity":0.84251968503937,"duration":0.20833325000000258},{"name":"B4","midi":71,"time":48.749980499999964,"velocity":0.84251968503937,"duration":0.20833325000000258},{"name":"F#4","midi":66,"time":48.95831374999997,"velocity":0.84251968503937,"duration":0.20833325000000258},{"name":"D#4","midi":63,"time":49.16664699999997,"velocity":0.84251968503937,"duration":0.20833325000000258},{"name":"B3","midi":59,"time":49.37498024999997,"velocity":0.84251968503937,"duration":0.33333319999999844},{"name":"B3","midi":59,"time":49.99997999999997,"velocity":0.84251968503937,"duration":0.20833325000000258},{"name":"C#4","midi":61,"time":50.41664649999998,"velocity":0.84251968503937,"duration":0.41666649999999805},{"name":"D#4","midi":63,"time":50.833312999999976,"velocity":0.84251968503937,"duration":0.41666649999999805},{"name":"E4","midi":64,"time":51.249979499999974,"velocity":0.84251968503937,"duration":0.41666649999999805},{"name":"F#4","midi":66,"time":51.66664599999997,"velocity":0.84251968503937,"duration":0.41666649999999805},{"name":"G#4","midi":68,"time":52.08331249999997,"velocity":0.84251968503937,"duration":0.41666649999999805},{"name":"A#4","midi":70,"time":52.49997899999997,"velocity":0.84251968503937,"duration":0.41666649999999805},{"name":"B4","midi":71,"time":52.916645499999966,"velocity":0.84251968503937,"duration":0.20833325000000258},{"name":"A#4","midi":70,"time":53.12497874999997,"velocity":0.84251968503937,"duration":0.20833325000000258},{"name":"G#4","midi":68,"time":53.33331199999997,"velocity":0.84251968503937,"duration":0.20833325000000258},{"name":"F#4","midi":66,"time":53.54164524999997,"velocity":0.84251968503937,"duration":0.20833325000000258},{"name":"B4","midi":71,"time":53.749978499999976,"velocity":0.84251968503937,"duration":0.41666649999999805},{"name":"B3","midi":59,"time":54.166644999999974,"velocity":0.84251968503937,"duration":0.41666649999999805},{"name":"B5","midi":83,"time":55.20831124999997,"velocity":0.84251968503937,"duration":0.41666649999999805},{"name":"A#5","midi":82,"time":55.62497774999997,"velocity":0.84251968503937,"duration":0.41666649999999805},{"name":"A5","midi":81,"time":56.04164424999997,"velocity":0.84251968503937,"duration":0.41666649999999805},{"name":"G#5","midi":80,"time":56.45831074999997,"velocity":0.84251968503937,"duration":0.41666649999999805},{"name":"F#5","midi":78,"time":56.874977249999965,"velocity":0.84251968503937,"duration":0.41666649999999805},{"name":"E5","midi":76,"time":57.29164374999996,"velocity":0.84251968503937,"duration":0.41666649999999805},{"name":"D#5","midi":75,"time":57.70831024999996,"velocity":0.84251968503937,"duration":0.41666649999999805},{"name":"C#5","midi":73,"time":58.12497674999996,"velocity":0.84251968503937,"duration":0.41666649999999805},{"name":"D#5","midi":75,"time":58.54164324999996,"velocity":0.84251968503937,"duration":0.10416662499999774},{"name":"D#5","midi":75,"time":58.74997649999995,"velocity":0.84251968503937,"duration":0.20486102916666482},{"name":"F#5","midi":78,"time":58.95830974999995,"velocity":0.84251968503937,"duration":0.10069440416666708},{"name":"E5","midi":76,"time":59.062476374999946,"velocity":0.84251968503937,"duration":0.10069440416666708},{"name":"F#5","midi":78,"time":59.166642999999944,"velocity":0.84251968503937,"duration":0.20486102916666482},{"name":"D#5","midi":75,"time":59.37497624999994,"velocity":0.84251968503937,"duration":0.10069440416666708},{"name":"C#5","midi":73,"time":59.47914287499994,"velocity":0.84251968503937,"duration":0.10069440416666708},{"name":"D#5","midi":75,"time":59.583309499999935,"velocity":0.84251968503937,"duration":0.20486102916666482},{"name":"B4","midi":71,"time":59.79164274999993,"velocity":0.84251968503937,"duration":0.10069440416666708},{"name":"A#4","midi":70,"time":59.89580937499993,"velocity":0.84251968503937,"duration":0.10069440416666708},{"name":"B4","midi":71,"time":59.999975999999926,"velocity":0.84251968503937,"duration":0.20486102916666482},{"name":"D#5","midi":75,"time":60.20830924999992,"velocity":0.84251968503937,"duration":0.10069440416666708},{"name":"C#5","midi":73,"time":60.31247587499992,"velocity":0.84251968503937,"duration":0.10069440416666708},{"name":"D#5","midi":75,"time":60.41664249999992,"velocity":0.84251968503937,"duration":0.20486102916666482},{"name":"G#5","midi":80,"time":60.62497574999991,"velocity":0.84251968503937,"duration":0.10069440416666708},{"name":"G5","midi":79,"time":60.72914237499991,"velocity":0.84251968503937,"duration":0.10069440416666708},{"name":"G#5","midi":80,"time":60.83330899999991,"velocity":0.84251968503937,"duration":0.20486102916666482},{"name":"C#5","midi":73,"time":61.0416422499999,"velocity":0.84251968503937,"duration":0.10069440416666708},{"name":"B4","midi":71,"time":61.1458088749999,"velocity":0.84251968503937,"duration":0.10069440416666708},{"name":"C#5","midi":73,"time":61.2499754999999,"velocity":0.84251968503937,"duration":0.20486102916666482},{"name":"E5","midi":76,"time":61.458308749999894,"velocity":0.84251968503937,"duration":0.10069440416666708},{"name":"D#5","midi":75,"time":61.56247537499989,"velocity":0.84251968503937,"duration":0.10069440416666708},{"name":"E5","midi":76,"time":61.66664199999989,"velocity":0.84251968503937,"duration":0.20486102916666482},{"name":"A#5","midi":82,"time":61.874975249999885,"velocity":0.84251968503937,"duration":0.10069440416666708},{"name":"G#5","midi":80,"time":61.97914187499988,"velocity":0.84251968503937,"duration":0.10069440416666708},{"name":"A#5","midi":82,"time":62.08330849999988,"velocity":0.84251968503937,"duration":0.20486102916666482},{"name":"D#5","midi":75,"time":62.291641749999876,"velocity":0.84251968503937,"duration":0.10069440416666708},{"name":"C#5","midi":73,"time":62.39580837499987,"velocity":0.84251968503937,"duration":0.10069440416666708},{"name":"D#5","midi":75,"time":62.49997499999987,"velocity":0.84251968503937,"duration":0.20486102916666482},{"name":"G#5","midi":80,"time":62.70830824999987,"velocity":0.84251968503937,"duration":0.10069440416666708},{"name":"G5","midi":79,"time":62.812474874999864,"velocity":0.84251968503937,"duration":0.10069440416666708},{"name":"G#5","midi":80,"time":62.91664149999986,"velocity":0.84251968503937,"duration":0.20486102916666482},{"name":"B5","midi":83,"time":63.12497474999986,"velocity":0.84251968503937,"duration":0.10069440416666708},{"name":"A#5","midi":82,"time":63.229141374999855,"velocity":0.84251968503937,"duration":0.10069440416666708},{"name":"B5","midi":83,"time":63.33330799999985,"velocity":0.84251968503937,"duration":0.20486102916666482},{"name":"D#5","midi":75,"time":63.54164124999985,"velocity":0.84251968503937,"duration":0.10069440416666708},{"name":"D5","midi":74,"time":63.645807874999846,"velocity":0.84251968503937,"duration":0.10069440416666708},{"name":"D#5","midi":75,"time":63.749974499999844,"velocity":0.84251968503937,"duration":0.20486102916666482},{"name":"A#5","midi":82,"time":63.95830774999984,"velocity":0.84251968503937,"duration":0.10069440416666708},{"name":"G#5","midi":80,"time":64.06247437499984,"velocity":0.84251968503937,"duration":0.10069440416665998},{"name":"A#5","midi":82,"time":64.16664099999983,"velocity":0.84251968503937,"duration":0.20486102916666482},{"name":"G5","midi":79,"time":64.37497424999982,"velocity":0.84251968503937,"duration":0.10069440416665998},{"name":"F5","midi":77,"time":64.47914087499981,"velocity":0.84251968503937,"duration":0.10069440416665998},{"name":"G5","midi":79,"time":64.5833074999998,"velocity":0.84251968503937,"duration":0.20486102916666482},{"name":"D#5","midi":75,"time":64.7916407499998,"velocity":0.84251968503937,"duration":0.10069440416665998},{"name":"D5","midi":74,"time":64.89580737499979,"velocity":0.84251968503937,"duration":0.10069440416665998},{"name":"D5","midi":74,"time":64.99997399999978,"velocity":0.84251968503937,"duration":0.20833324999999547},{"name":"A5","midi":81,"time":65.20830724999978,"velocity":0.84251968503937,"duration":0.41666650000000516},{"name":"G#5","midi":80,"time":65.62497374999978,"velocity":0.84251968503937,"duration":0.41666650000000516},{"name":"F#5","midi":78,"time":66.04164024999979,"velocity":0.84251968503937,"duration":0.4131942791666603},{"name":"E5","midi":76,"time":66.45830674999978,"velocity":0.84251968503937,"duration":0.10069440416665998},{"name":"D#5","midi":75,"time":66.56247337499977,"velocity":0.84251968503937,"duration":0.10069440416665998},{"name":"E5","midi":76,"time":66.66663999999976,"velocity":0.84251968503937,"duration":0.20486102916666482},{"name":"C#5","midi":73,"time":66.87497324999975,"velocity":0.84251968503937,"duration":0.10069440416665998},{"name":"C5","midi":72,"time":66.97913987499975,"velocity":0.84251968503937,"duration":0.10069440416665998},{"name":"C#5","midi":73,"time":67.08330649999974,"velocity":0.84251968503937,"duration":0.20486102916666482},{"name":"E5","midi":76,"time":67.29163974999973,"velocity":0.84251968503937,"duration":0.10069440416665998},{"name":"D#5","midi":75,"time":67.39580637499972,"velocity":0.84251968503937,"duration":0.10069440416665998},{"name":"E5","midi":76,"time":67.49997299999971,"velocity":0.84251968503937,"duration":0.20833324999999547},{"name":"G#5","midi":80,"time":67.70830624999971,"velocity":0.84251968503937,"duration":0.41666650000000516},{"name":"F#5","midi":78,"time":68.12497274999971,"velocity":0.84251968503937,"duration":0.41666650000000516},{"name":"E5","midi":76,"time":68.54163924999972,"velocity":0.84251968503937,"duration":0.4131942791666603},{"name":"D#5","midi":75,"time":68.95830574999971,"velocity":0.84251968503937,"duration":0.10069440416665998},{"name":"C#5","midi":73,"time":69.0624723749997,"velocity":0.84251968503937,"duration":0.10069440416665998},{"name":"D#5","midi":75,"time":69.16663899999969,"velocity":0.84251968503937,"duration":0.20486102916666482},{"name":"B4","midi":71,"time":69.37497224999969,"velocity":0.84251968503937,"duration":0.10069440416665998},{"name":"A#4","midi":70,"time":69.47913887499968,"velocity":0.84251968503937,"duration":0.10069440416665998},{"name":"B4","midi":71,"time":69.58330549999967,"velocity":0.84251968503937,"duration":0.20486102916666482},{"name":"C#5","midi":73,"time":69.79163874999966,"velocity":0.84251968503937,"duration":0.10069440416665998},{"name":"B4","midi":71,"time":69.89580537499965,"velocity":0.84251968503937,"duration":0.10069440416665998},{"name":"C#5","midi":73,"time":69.99997199999964,"velocity":0.84251968503937,"duration":0.20833324999999547},{"name":"E5","midi":76,"time":70.20830524999964,"velocity":0.84251968503937,"duration":0.41666650000000516},{"name":"D#5","midi":75,"time":70.62497174999964,"velocity":0.84251968503937,"duration":0.41666650000000516},{"name":"C#5","midi":73,"time":71.04163824999965,"velocity":0.84251968503937,"duration":0.41666650000000516},{"name":"B4","midi":71,"time":71.45830474999966,"velocity":0.84251968503937,"duration":0.10416662500000484},{"name":"A#4","midi":70,"time":71.56247137499966,"velocity":0.84251968503937,"duration":0.10416662500000484},{"name":"B4","midi":71,"time":71.66663799999966,"velocity":0.84251968503937,"duration":0.20833324999999547},{"name":"G#4","midi":68,"time":71.87497124999966,"velocity":0.84251968503937,"duration":0.10416662500000484},{"name":"G4","midi":67,"time":71.97913787499967,"velocity":0.84251968503937,"duration":0.10416662500000484},{"name":"G#4","midi":68,"time":72.08330449999967,"velocity":0.84251968503937,"duration":0.20833324999999547},{"name":"A4","midi":69,"time":72.29163774999967,"velocity":0.84251968503937,"duration":0.10416662500000484},{"name":"A4","midi":69,"time":72.49997099999968,"velocity":0.84251968503937,"duration":0.20833324999999547},{"name":"C#5","midi":73,"time":72.70830424999967,"velocity":0.84251968503937,"duration":0.10416662500000484},{"name":"B4","midi":71,"time":72.81247087499968,"velocity":0.84251968503937,"duration":0.10416662500000484},{"name":"C#5","midi":73,"time":72.91663749999968,"velocity":0.84251968503937,"duration":0.20833324999999547},{"name":"A4","midi":69,"time":73.12497074999968,"velocity":0.84251968503937,"duration":0.10416662500000484},{"name":"G#4","midi":68,"time":73.22913737499968,"velocity":0.84251968503937,"duration":0.10416662500000484},{"name":"A4","midi":69,"time":73.33330399999969,"velocity":0.84251968503937,"duration":0.20833324999999547},{"name":"E5","midi":76,"time":73.54163724999968,"velocity":0.84251968503937,"duration":0.10416662500000484},{"name":"E5","midi":76,"time":73.74997049999969,"velocity":0.84251968503937,"duration":0.20486102916666482},{"name":"G4","midi":67,"time":73.95830374999969,"velocity":0.84251968503937,"duration":0.10069440416665998},{"name":"F4","midi":65,"time":74.06247037499968,"velocity":0.84251968503937,"duration":0.10069440416665998},{"name":"G4","midi":67,"time":74.16663699999967,"velocity":0.84251968503937,"duration":0.20486102916666482},{"name":"A#4","midi":70,"time":74.37497024999966,"velocity":0.84251968503937,"duration":0.10069440416665998},{"name":"G#4","midi":68,"time":74.47913687499965,"velocity":0.84251968503937,"duration":0.10069440416665998},{"name":"A#4","midi":70,"time":74.58330349999964,"velocity":0.84251968503937,"duration":0.20486102916666482},{"name":"B3","midi":59,"time":74.79163674999964,"velocity":0.84251968503937,"duration":0.10069440416665998},{"name":"A#3","midi":58,"time":74.89580337499963,"velocity":0.84251968503937,"duration":0.10069440416665998},{"name":"B3","midi":59,"time":74.99996999999962,"velocity":0.84251968503937,"duration":0.20486102916666482},{"name":"G#4","midi":68,"time":75.20830324999962,"velocity":0.84251968503937,"duration":0.20486102916666482},{"name":"E4","midi":64,"time":75.41663649999961,"velocity":0.84251968503937,"duration":0.20486102916666482},{"name":"C#4","midi":61,"time":75.62496974999961,"velocity":0.84251968503937,"duration":0.20486102916666482},{"name":"A#3","midi":58,"time":75.8333029999996,"velocity":0.84251968503937,"duration":0.20486102916666482},{"name":"G4","midi":67,"time":76.0416362499996,"velocity":0.84251968503937,"duration":0.20486102916666482},{"name":"G#4","midi":68,"time":76.2499694999996,"velocity":0.84251968503937,"duration":0.20486102916666482},{"name":"D#4","midi":63,"time":76.45830274999959,"velocity":0.84251968503937,"duration":0.20486102916666482},{"name":"B3","midi":59,"time":76.66663599999958,"velocity":0.84251968503937,"duration":0.20486102916666482},{"name":"G#3","midi":56,"time":76.87496924999958,"velocity":0.84251968503937,"duration":0.20486102916666482},{"name":"E4","midi":64,"time":77.49996899999958,"velocity":0.84251968503937,"duration":0.41666650000000516},{"name":"F#4","midi":66,"time":77.91663549999959,"velocity":0.84251968503937,"duration":0.41666650000000516},{"name":"G#4","midi":68,"time":78.33330199999959,"velocity":0.84251968503937,"duration":0.41666650000000516},{"name":"A4","midi":69,"time":78.7499684999996,"velocity":0.84251968503937,"duration":0.41666650000000516},{"name":"B4","midi":71,"time":79.1666349999996,"velocity":0.84251968503937,"duration":0.41666650000000516},{"name":"C#5","midi":73,"time":79.5833014999996,"velocity":0.84251968503937,"duration":0.41666650000000516},{"name":"D#5","midi":75,"time":79.99996799999961,"velocity":0.84251968503937,"duration":0.41666650000000516},{"name":"E5","midi":76,"time":80.41663449999962,"velocity":0.84251968503937,"duration":0.20833324999999547},{"name":"D#5","midi":75,"time":80.62496774999961,"velocity":0.84251968503937,"duration":0.20833324999999547},{"name":"C#5","midi":73,"time":80.83330099999961,"velocity":0.84251968503937,"duration":0.20833324999999547},{"name":"B4","midi":71,"time":81.0416342499996,"velocity":0.84251968503937,"duration":0.20833324999999547},{"name":"E5","midi":76,"time":81.2499674999996,"velocity":0.84251968503937,"duration":0.6111108666666638},{"name":"B4","midi":71,"time":81.8749672499996,"velocity":0.84251968503937,"duration":0.10069440416665998},{"name":"A4","midi":69,"time":81.97913387499959,"velocity":0.84251968503937,"duration":0.10069440416665998},{"name":"B4","midi":71,"time":82.08330049999958,"velocity":0.84251968503937,"duration":0.20486102916666482},{"name":"G#4","midi":68,"time":82.29163374999958,"velocity":0.84251968503937,"duration":0.10069440416665998},{"name":"F#4","midi":66,"time":82.39580037499957,"velocity":0.84251968503937,"duration":0.10069440416665998},{"name":"G#4","midi":68,"time":82.49996699999956,"velocity":0.84251968503937,"duration":0.20833324999999547},{"name":"E5","midi":76,"time":82.70830024999955,"velocity":0.84251968503937,"duration":0.41666650000000516},{"name":"D#5","midi":75,"time":83.12496674999956,"velocity":0.84251968503937,"duration":0.41666650000000516},{"name":"D5","midi":74,"time":83.54163324999956,"velocity":0.84251968503937,"duration":0.41666650000000516},{"name":"C#5","midi":73,"time":83.95829974999957,"velocity":0.84251968503937,"duration":0.41666650000000516},{"name":"B4","midi":71,"time":84.37496624999957,"velocity":0.84251968503937,"duration":0.41666650000000516},{"name":"A4","midi":69,"time":84.79163274999958,"velocity":0.84251968503937,"duration":0.41666650000000516},{"name":"G#4","midi":68,"time":85.20829924999958,"velocity":0.84251968503937,"duration":0.41666650000000516},{"name":"F#4","midi":66,"time":85.62496574999959,"velocity":0.84251968503937,"duration":0.41666650000000516},{"name":"G#4","midi":68,"time":86.0416322499996,"velocity":0.84251968503937,"duration":0.10416662500000484},{"name":"G#4","midi":68,"time":86.2499654999996,"velocity":0.84251968503937,"duration":0.20486102916666482},{"name":"B4","midi":71,"time":86.4582987499996,"velocity":0.84251968503937,"duration":0.10069440416665998},{"name":"A4","midi":69,"time":86.56246537499959,"velocity":0.84251968503937,"duration":0.10069440416665998},{"name":"B4","midi":71,"time":86.66663199999958,"velocity":0.84251968503937,"duration":0.20486102916666482},{"name":"G#4","midi":68,"time":86.87496524999958,"velocity":0.84251968503937,"duration":0.10069440416665998},{"name":"F#4","midi":66,"time":86.97913187499957,"velocity":0.84251968503937,"duration":0.10069440416665998},{"name":"G#4","midi":68,"time":87.08329849999956,"velocity":0.84251968503937,"duration":0.20486102916666482},{"name":"E4","midi":64,"time":87.29163174999955,"velocity":0.84251968503937,"duration":0.10069440416665998},{"name":"D#4","midi":63,"time":87.39579837499954,"velocity":0.84251968503937,"duration":0.10069440416665998},{"name":"E4","midi":64,"time":87.49996499999953,"velocity":0.84251968503937,"duration":0.41666650000000516},{"name":"F#4","midi":66,"time":87.91663149999954,"velocity":0.84251968503937,"duration":0.41666650000000516},{"name":"A4","midi":69,"time":88.33329799999954,"velocity":0.84251968503937,"duration":0.41666650000000516},{"name":"B4","midi":71,"time":88.74996449999955,"velocity":0.84251968503937,"duration":0.41666650000000516},{"name":"D#5","midi":75,"time":89.16663099999955,"velocity":0.84251968503937,"duration":0.41666650000000516},{"name":"F#5","midi":78,"time":89.58329749999956,"velocity":0.84251968503937,"duration":0.41666650000000516},{"name":"D#4","midi":63,"time":89.99996399999957,"velocity":0.84251968503937,"duration":0.41666650000000516},{"name":"E4","midi":64,"time":90.41663049999957,"velocity":0.84251968503937,"duration":0.41666650000000516},{"name":"G#4","midi":68,"time":90.83329699999958,"velocity":0.84251968503937,"duration":0.41666650000000516},{"name":"A4","midi":69,"time":91.24996349999958,"velocity":0.84251968503937,"duration":0.41666650000000516},{"name":"C#5","midi":73,"time":91.66662999999959,"velocity":0.84251968503937,"duration":0.41666650000000516},{"name":"E5","midi":76,"time":92.08329649999959,"velocity":0.84251968503937,"duration":0.41666650000000516},{"name":"C#4","midi":61,"time":92.4999629999996,"velocity":0.84251968503937,"duration":0.41666650000000516},{"name":"F#4","midi":66,"time":92.9166294999996,"velocity":0.84251968503937,"duration":0.41666650000000516},{"name":"A4","midi":69,"time":93.3332959999996,"velocity":0.84251968503937,"duration":0.41666650000000516},{"name":"B4","midi":71,"time":93.74996249999961,"velocity":0.84251968503937,"duration":0.41666650000000516},{"name":"C#5","midi":73,"time":94.16662899999962,"velocity":0.84251968503937,"duration":0.41666650000000516},{"name":"D#5","midi":75,"time":94.58329549999962,"velocity":0.84251968503937,"duration":0.41666650000000516},{"name":"E5","midi":76,"time":94.99996199999963,"velocity":0.84251968503937,"duration":0.41666650000000516},{"name":"C#5","midi":73,"time":95.41662849999963,"velocity":0.84251968503937,"duration":0.41666650000000516},{"name":"A4","midi":69,"time":95.83329499999964,"velocity":0.84251968503937,"duration":0.41666650000000516},{"name":"F#5","midi":78,"time":96.24996149999964,"velocity":0.84251968503937,"duration":1.454860529166666},{"name":"E5","midi":76,"time":97.70829424999964,"velocity":0.84251968503937,"duration":0.20486102916666482},{"name":"D#5","midi":75,"time":97.91662749999963,"velocity":0.84251968503937,"duration":0.20486102916666482},{"name":"C#5","midi":73,"time":98.12496074999963,"velocity":0.84251968503937,"duration":0.20486102916666482},{"name":"B4","midi":71,"time":98.33329399999963,"velocity":0.84251968503937,"duration":0.20486102916666482},{"name":"A4","midi":69,"time":98.54162724999962,"velocity":0.84251968503937,"duration":0.20486102916666482},{"name":"G#4","midi":68,"time":98.74996049999962,"velocity":0.84251968503937,"duration":0.20486102916666482},{"name":"E4","midi":64,"time":98.95829374999961,"velocity":0.84251968503937,"duration":0.10069440416665998},{"name":"D#4","midi":63,"time":99.0624603749996,"velocity":0.84251968503937,"duration":0.10069440416665998},{"name":"E4","midi":64,"time":99.1666269999996,"velocity":0.84251968503937,"duration":0.20486102916666482},{"name":"G#4","midi":68,"time":99.37496024999959,"velocity":0.84251968503937,"duration":0.10069440416665998},{"name":"F#4","midi":66,"time":99.47912687499958,"velocity":0.84251968503937,"duration":0.10069440416665998},{"name":"G#4","midi":68,"time":99.58329349999957,"velocity":0.84251968503937,"duration":0.20486102916666482},{"name":"B4","midi":71,"time":99.79162674999957,"velocity":0.84251968503937,"duration":0.10069440416665998},{"name":"A4","midi":69,"time":99.89579337499956,"velocity":0.84251968503937,"duration":0.10069440416665998},{"name":"B4","midi":71,"time":99.99995999999955,"velocity":0.84251968503937,"duration":0.20486102916666482},{"name":"G#4","midi":68,"time":100.20829324999954,"velocity":0.84251968503937,"duration":0.10069440416665998},{"name":"F#4","midi":66,"time":100.31245987499953,"velocity":0.84251968503937,"duration":0.10069440416665998},{"name":"G#4","midi":68,"time":100.41662649999952,"velocity":0.84251968503937,"duration":0.20486102916666482},{"name":"B4","midi":71,"time":100.62495974999952,"velocity":0.84251968503937,"duration":0.10069440416665998},{"name":"A4","midi":69,"time":100.72912637499951,"velocity":0.84251968503937,"duration":0.10069440416665998},{"name":"B4","midi":71,"time":100.8332929999995,"velocity":0.84251968503937,"duration":0.20486102916666482},{"name":"E5","midi":76,"time":101.0416262499995,"velocity":0.84251968503937,"duration":0.10069440416665998},{"name":"D#5","midi":75,"time":101.14579287499949,"velocity":0.84251968503937,"duration":0.10069440416665998},{"name":"E5","midi":76,"time":101.24995949999948,"velocity":0.84251968503937,"duration":0.20486102916666482},{"name":"B4","midi":71,"time":101.45829274999947,"velocity":0.84251968503937,"duration":0.20486102916666482},{"name":"G#4","midi":68,"time":101.66662599999947,"velocity":0.84251968503937,"duration":0.20486102916666482},{"name":"E4","midi":64,"time":101.87495924999946,"velocity":0.84251968503937,"duration":0.40972205833332964},{"name":"B3","midi":59,"time":102.49995899999946,"velocity":0.84251968503937,"duration":0.20833324999999547},{"name":"C#4","midi":61,"time":102.91662549999945,"velocity":0.84251968503937,"duration":0.41666650000000516},{"name":"D#4","midi":63,"time":103.33329199999946,"velocity":0.84251968503937,"duration":0.41666650000000516},{"name":"E4","midi":64,"time":103.74995849999947,"velocity":0.84251968503937,"duration":0.41666650000000516},{"name":"F#4","midi":66,"time":104.16662499999947,"velocity":0.84251968503937,"duration":0.41666650000000516},{"name":"G#4","midi":68,"time":104.58329149999948,"velocity":0.84251968503937,"duration":0.41666650000000516},{"name":"A#4","midi":70,"time":104.99995799999948,"velocity":0.84251968503937,"duration":0.41666650000000516},{"name":"B4","midi":71,"time":105.41662449999949,"velocity":0.84251968503937,"duration":0.20833324999999547},{"name":"A#4","midi":70,"time":105.62495774999948,"velocity":0.84251968503937,"duration":0.20833324999999547},{"name":"G#4","midi":68,"time":105.83329099999948,"velocity":0.84251968503937,"duration":0.20833324999999547},{"name":"F#4","midi":66,"time":106.04162424999947,"velocity":0.84251968503937,"duration":0.20833324999999547},{"name":"B4","midi":71,"time":106.24995749999947,"velocity":0.84251968503937,"duration":0.41666650000000516},{"name":"B3","midi":59,"time":106.66662399999947,"velocity":0.84251968503937,"duration":0.41666650000000516},{"name":"B5","midi":83,"time":107.70829024999948,"velocity":0.84251968503937,"duration":0.41666650000000516},{"name":"A#5","midi":82,"time":108.12495674999948,"velocity":0.84251968503937,"duration":0.41666650000000516},{"name":"A5","midi":81,"time":108.54162324999949,"velocity":0.84251968503937,"duration":0.41666650000000516},{"name":"G#5","midi":80,"time":108.9582897499995,"velocity":0.84251968503937,"duration":0.41666650000000516},{"name":"F#5","midi":78,"time":109.3749562499995,"velocity":0.84251968503937,"duration":0.41666650000000516},{"name":"E5","midi":76,"time":109.7916227499995,"velocity":0.84251968503937,"duration":0.41666650000000516},{"name":"D#5","midi":75,"time":110.20828924999951,"velocity":0.84251968503937,"duration":0.41666650000000516},{"name":"C#5","midi":73,"time":110.62495574999951,"velocity":0.84251968503937,"duration":0.41666650000000516},{"name":"D#5","midi":75,"time":111.04162224999952,"velocity":0.84251968503937,"duration":0.10416662500000484},{"name":"D#5","midi":75,"time":111.24995549999953,"velocity":0.84251968503937,"duration":0.20486102916666482},{"name":"F#5","midi":78,"time":111.45828874999953,"velocity":0.84251968503937,"duration":0.10069440416665998},{"name":"E5","midi":76,"time":111.56245537499952,"velocity":0.84251968503937,"duration":0.10069440416665998},{"name":"F#5","midi":78,"time":111.6666219999995,"velocity":0.84251968503937,"duration":0.20486102916666482},{"name":"D#5","midi":75,"time":111.8749552499995,"velocity":0.84251968503937,"duration":0.10069440416665998},{"name":"C#5","midi":73,"time":111.97912187499949,"velocity":0.84251968503937,"duration":0.10069440416665998},{"name":"D#5","midi":75,"time":112.08328849999948,"velocity":0.84251968503937,"duration":0.20486102916666482},{"name":"B4","midi":71,"time":112.29162174999948,"velocity":0.84251968503937,"duration":0.10069440416665998},{"name":"A#4","midi":70,"time":112.39578837499947,"velocity":0.84251968503937,"duration":0.10069440416665998},{"name":"B4","midi":71,"time":112.49995499999946,"velocity":0.84251968503937,"duration":0.20486102916666482},{"name":"D#5","midi":75,"time":112.70828824999946,"velocity":0.84251968503937,"duration":0.10069440416665998},{"name":"C#5","midi":73,"time":112.81245487499945,"velocity":0.84251968503937,"duration":0.10069440416665998},{"name":"D#5","midi":75,"time":112.91662149999944,"velocity":0.84251968503937,"duration":0.20486102916666482},{"name":"G#5","midi":80,"time":113.12495474999943,"velocity":0.84251968503937,"duration":0.10069440416665998},{"name":"G5","midi":79,"time":113.22912137499942,"velocity":0.84251968503937,"duration":0.10069440416665998},{"name":"G#5","midi":80,"time":113.33328799999941,"velocity":0.84251968503937,"duration":0.20486102916666482},{"name":"C#5","midi":73,"time":113.54162124999941,"velocity":0.84251968503937,"duration":0.10069440416665998},{"name":"B4","midi":71,"time":113.6457878749994,"velocity":0.84251968503937,"duration":0.10069440416665998},{"name":"C#5","midi":73,"time":113.74995449999939,"velocity":0.84251968503937,"duration":0.20486102916666482},{"name":"E5","midi":76,"time":113.95828774999939,"velocity":0.84251968503937,"duration":0.10069440416665998},{"name":"D#5","midi":75,"time":114.06245437499938,"velocity":0.84251968503937,"duration":0.10069440416665998},{"name":"E5","midi":76,"time":114.16662099999937,"velocity":0.84251968503937,"duration":0.20486102916666482},{"name":"A#5","midi":82,"time":114.37495424999936,"velocity":0.84251968503937,"duration":0.10069440416665998},{"name":"G#5","midi":80,"time":114.47912087499935,"velocity":0.84251968503937,"duration":0.10069440416665998},{"name":"A#5","midi":82,"time":114.58328749999934,"velocity":0.84251968503937,"duration":0.20486102916666482},{"name":"D#5","midi":75,"time":114.79162074999934,"velocity":0.84251968503937,"duration":0.10069440416665998},{"name":"C#5","midi":73,"time":114.89578737499933,"velocity":0.84251968503937,"duration":0.10069440416665998},{"name":"D#5","midi":75,"time":114.99995399999932,"velocity":0.84251968503937,"duration":0.20486102916666482},{"name":"G#5","midi":80,"time":115.20828724999932,"velocity":0.84251968503937,"duration":0.10069440416665998},{"name":"G5","midi":79,"time":115.3124538749993,"velocity":0.84251968503937,"duration":0.10069440416665998},{"name":"G#5","midi":80,"time":115.4166204999993,"velocity":0.84251968503937,"duration":0.20486102916666482},{"name":"B5","midi":83,"time":115.62495374999929,"velocity":0.84251968503937,"duration":0.10069440416665998},{"name":"A#5","midi":82,"time":115.72912037499928,"velocity":0.84251968503937,"duration":0.10069440416665998},{"name":"B5","midi":83,"time":115.83328699999927,"velocity":0.84251968503937,"duration":0.20486102916666482},{"name":"D#5","midi":75,"time":116.04162024999927,"velocity":0.84251968503937,"duration":0.10069440416665998},{"name":"D5","midi":74,"time":116.14578687499926,"velocity":0.84251968503937,"duration":0.10069440416665998},{"name":"D#5","midi":75,"time":116.24995349999925,"velocity":0.84251968503937,"duration":0.20486102916666482},{"name":"A#5","midi":82,"time":116.45828674999925,"velocity":0.84251968503937,"duration":0.10069440416665998},{"name":"G#5","midi":80,"time":116.56245337499924,"velocity":0.84251968503937,"duration":0.10069440416665998},{"name":"A#5","midi":82,"time":116.66661999999923,"velocity":0.84251968503937,"duration":0.20486102916666482},{"name":"G5","midi":79,"time":116.87495324999922,"velocity":0.84251968503937,"duration":0.10069440416665998},{"name":"F5","midi":77,"time":116.97911987499921,"velocity":0.84251968503937,"duration":0.10069440416665998},{"name":"G5","midi":79,"time":117.0832864999992,"velocity":0.84251968503937,"duration":0.20486102916666482},{"name":"D#5","midi":75,"time":117.2916197499992,"velocity":0.84251968503937,"duration":0.10069440416665998},{"name":"D5","midi":74,"time":117.39578637499919,"velocity":0.84251968503937,"duration":0.10069440416665998},{"name":"D5","midi":74,"time":117.49995299999918,"velocity":0.84251968503937,"duration":0.20833324999999547},{"name":"A5","midi":81,"time":117.70828624999918,"velocity":0.84251968503937,"duration":0.41666650000000516},{"name":"G#5","midi":80,"time":118.12495274999918,"velocity":0.84251968503937,"duration":0.41666650000000516},{"name":"F#5","midi":78,"time":118.54161924999919,"velocity":0.84251968503937,"duration":0.4131942791666603},{"name":"E5","midi":76,"time":118.95828574999918,"velocity":0.84251968503937,"duration":0.10069440416665998},{"name":"D#5","midi":75,"time":119.06245237499917,"velocity":0.84251968503937,"duration":0.10069440416665998},{"name":"E5","midi":76,"time":119.16661899999916,"velocity":0.84251968503937,"duration":0.20486102916666482},{"name":"C#5","midi":73,"time":119.37495224999915,"velocity":0.84251968503937,"duration":0.10069440416665998},{"name":"C5","midi":72,"time":119.47911887499914,"velocity":0.84251968503937,"duration":0.10069440416665998},{"name":"C#5","midi":73,"time":119.58328549999914,"velocity":0.84251968503937,"duration":0.20486102916666482},{"name":"E5","midi":76,"time":119.79161874999913,"velocity":0.84251968503937,"duration":0.10069440416665998},{"name":"D#5","midi":75,"time":119.89578537499912,"velocity":0.84251968503937,"duration":0.10069440416665998},{"name":"E5","midi":76,"time":119.99995199999911,"velocity":0.84251968503937,"duration":0.20833324999999547},{"name":"G#5","midi":80,"time":120.20828524999911,"velocity":0.84251968503937,"duration":0.41666650000000516},{"name":"F#5","midi":78,"time":120.62495174999911,"velocity":0.84251968503937,"duration":0.41666650000000516},{"name":"E5","midi":76,"time":121.04161824999912,"velocity":0.84251968503937,"duration":0.4131942791666603},{"name":"D#5","midi":75,"time":121.45828474999911,"velocity":0.84251968503937,"duration":0.10069440416665998},{"name":"C#5","midi":73,"time":121.5624513749991,"velocity":0.84251968503937,"duration":0.10069440416665998},{"name":"D#5","midi":75,"time":121.66661799999909,"velocity":0.84251968503937,"duration":0.20486102916666482},{"name":"B4","midi":71,"time":121.87495124999909,"velocity":0.84251968503937,"duration":0.10069440416665998},{"name":"A#4","midi":70,"time":121.97911787499908,"velocity":0.84251968503937,"duration":0.10069440416665998},{"name":"B4","midi":71,"time":122.08328449999907,"velocity":0.84251968503937,"duration":0.20486102916666482},{"name":"C#5","midi":73,"time":122.29161774999906,"velocity":0.84251968503937,"duration":0.10069440416665998},{"name":"B4","midi":71,"time":122.39578437499905,"velocity":0.84251968503937,"duration":0.10069440416665998},{"name":"C#5","midi":73,"time":122.49995099999904,"velocity":0.84251968503937,"duration":0.20833324999999547},{"name":"E5","midi":76,"time":122.70828424999904,"velocity":0.84251968503937,"duration":0.41666650000000516},{"name":"D#5","midi":75,"time":123.12495074999904,"velocity":0.84251968503937,"duration":0.41666650000000516},{"name":"C#5","midi":73,"time":123.54161724999905,"velocity":0.84251968503937,"duration":0.41666650000000516},{"name":"B4","midi":71,"time":123.95828374999905,"velocity":0.84251968503937,"duration":0.10416662500000484},{"name":"A#4","midi":70,"time":124.06245037499906,"velocity":0.84251968503937,"duration":0.10416662500000484},{"name":"B4","midi":71,"time":124.16661699999906,"velocity":0.84251968503937,"duration":0.20833324999999547},{"name":"G#4","midi":68,"time":124.37495024999906,"velocity":0.84251968503937,"duration":0.10416662500000484},{"name":"G4","midi":67,"time":124.47911687499906,"velocity":0.84251968503937,"duration":0.10416662500000484},{"name":"G#4","midi":68,"time":124.58328349999907,"velocity":0.84251968503937,"duration":0.20833324999999547},{"name":"A4","midi":69,"time":124.79161674999906,"velocity":0.84251968503937,"duration":0.10416662500000484},{"name":"A4","midi":69,"time":124.99994999999907,"velocity":0.84251968503937,"duration":0.20833324999999547},{"name":"C#5","midi":73,"time":125.20828324999907,"velocity":0.84251968503937,"duration":0.10416662500000484},{"name":"B4","midi":71,"time":125.31244987499907,"velocity":0.84251968503937,"duration":0.10416662500000484},{"name":"C#5","midi":73,"time":125.41661649999908,"velocity":0.84251968503937,"duration":0.20833324999999547},{"name":"A4","midi":69,"time":125.62494974999908,"velocity":0.84251968503937,"duration":0.10416662500000484},{"name":"G#4","midi":68,"time":125.72911637499908,"velocity":0.84251968503937,"duration":0.10416662500000484},{"name":"A4","midi":69,"time":125.83328299999908,"velocity":0.84251968503937,"duration":0.20833324999999547},{"name":"E5","midi":76,"time":126.04161624999908,"velocity":0.84251968503937,"duration":0.10416662500000484},{"name":"E5","midi":76,"time":126.24994949999909,"velocity":0.84251968503937,"duration":0.20486102916666482},{"name":"G4","midi":67,"time":126.45828274999909,"velocity":0.84251968503937,"duration":0.10069440416665998},{"name":"F4","midi":65,"time":126.56244937499908,"velocity":0.84251968503937,"duration":0.10069440416665998},{"name":"G4","midi":67,"time":126.66661599999907,"velocity":0.84251968503937,"duration":0.20486102916666482},{"name":"A#4","midi":70,"time":126.87494924999906,"velocity":0.84251968503937,"duration":0.10069440416665998},{"name":"G#4","midi":68,"time":126.97911587499905,"velocity":0.84251968503937,"duration":0.10069440416665998},{"name":"A#4","midi":70,"time":127.08328249999904,"velocity":0.84251968503937,"duration":0.20486102916666482},{"name":"B3","midi":59,"time":127.29161574999904,"velocity":0.84251968503937,"duration":0.10069440416665998},{"name":"A#3","midi":58,"time":127.39578237499903,"velocity":0.84251968503937,"duration":0.10069440416665998},{"name":"B3","midi":59,"time":127.49994899999902,"velocity":0.84251968503937,"duration":0.20486102916666482},{"name":"G#4","midi":68,"time":127.70828224999902,"velocity":0.84251968503937,"duration":0.20486102916666482},{"name":"E4","midi":64,"time":127.91661549999901,"velocity":0.84251968503937,"duration":0.20486102916666482},{"name":"C#4","midi":61,"time":128.12494874999902,"velocity":0.84251968503937,"duration":0.20486102916666482},{"name":"A#3","midi":58,"time":128.33328199999903,"velocity":0.84251968503937,"duration":0.20486102916666482},{"name":"G4","midi":67,"time":128.54161524999904,"velocity":0.84251968503937,"duration":0.20486102916666482},{"name":"G#4","midi":68,"time":128.74994849999905,"velocity":0.84251968503937,"duration":0.20486102916666482},{"name":"D#4","midi":63,"time":128.95828174999906,"velocity":0.84251968503937,"duration":0.20486102916666482},{"name":"B3","midi":59,"time":129.16661499999907,"velocity":0.84251968503937,"duration":0.20486102916666482},{"name":"G#3","midi":56,"time":129.37494824999908,"velocity":0.84251968503937,"duration":0.20486102916666482},{"name":"E4","midi":64,"time":129.99994799999908,"velocity":0.84251968503937,"duration":0.41666649999999095},{"name":"F#4","midi":66,"time":130.41661449999907,"velocity":0.84251968503937,"duration":0.41666649999999095},{"name":"G#4","midi":68,"time":130.83328099999906,"velocity":0.84251968503937,"duration":0.41666649999999095},{"name":"A4","midi":69,"time":131.24994749999905,"velocity":0.84251968503937,"duration":0.41666649999999095},{"name":"B4","midi":71,"time":131.66661399999904,"velocity":0.84251968503937,"duration":0.41666649999999095},{"name":"C#5","midi":73,"time":132.08328049999903,"velocity":0.84251968503937,"duration":0.41666649999999095},{"name":"D#5","midi":75,"time":132.49994699999903,"velocity":0.84251968503937,"duration":0.41666649999999095},{"name":"E5","midi":76,"time":132.91661349999902,"velocity":0.84251968503937,"duration":0.20833325000000968},{"name":"D#5","midi":75,"time":133.12494674999903,"velocity":0.84251968503937,"duration":0.20833325000000968},{"name":"C#5","midi":73,"time":133.33327999999904,"velocity":0.84251968503937,"duration":0.20833325000000968},{"name":"B4","midi":71,"time":133.54161324999905,"velocity":0.84251968503937,"duration":0.20833325000000968},{"name":"E5","midi":76,"time":133.74994649999906,"velocity":0.84251968503937,"duration":0.611110866666678},{"name":"B4","midi":71,"time":134.37494624999906,"velocity":0.84251968503937,"duration":0.10069440416665998},{"name":"A4","midi":69,"time":134.47911287499906,"velocity":0.84251968503937,"duration":0.10069440416665998},{"name":"B4","midi":71,"time":134.58327949999907,"velocity":0.84251968503937,"duration":0.20486102916666482},{"name":"G#4","midi":68,"time":134.79161274999908,"velocity":0.84251968503937,"duration":0.10069440416665998},{"name":"F#4","midi":66,"time":134.89577937499908,"velocity":0.84251968503937,"duration":0.10069440416665998},{"name":"G#4","midi":68,"time":134.99994599999908,"velocity":0.84251968503937,"duration":0.20833325000000968},{"name":"E5","midi":76,"time":135.2082792499991,"velocity":0.84251968503937,"duration":0.41666649999999095},{"name":"D#5","midi":75,"time":135.62494574999909,"velocity":0.84251968503937,"duration":0.41666649999999095},{"name":"D5","midi":74,"time":136.04161224999908,"velocity":0.84251968503937,"duration":0.41666649999999095},{"name":"C#5","midi":73,"time":136.45827874999907,"velocity":0.84251968503937,"duration":0.41666649999999095},{"name":"B4","midi":71,"time":136.87494524999906,"velocity":0.84251968503937,"duration":0.41666649999999095},{"name":"A4","midi":69,"time":137.29161174999905,"velocity":0.84251968503937,"duration":0.41666649999999095},{"name":"G#4","midi":68,"time":137.70827824999904,"velocity":0.84251968503937,"duration":0.41666649999999095},{"name":"F#4","midi":66,"time":138.12494474999903,"velocity":0.84251968503937,"duration":0.41666649999999095},{"name":"G#4","midi":68,"time":138.54161124999902,"velocity":0.84251968503937,"duration":0.10416662500000484},{"name":"G#4","midi":68,"time":138.74994449999903,"velocity":0.84251968503937,"duration":0.20486102916666482},{"name":"B4","midi":71,"time":138.95827774999904,"velocity":0.84251968503937,"duration":0.10069440416665998},{"name":"A4","midi":69,"time":139.06244437499905,"velocity":0.84251968503937,"duration":0.10069440416665998},{"name":"B4","midi":71,"time":139.16661099999905,"velocity":0.84251968503937,"duration":0.20486102916666482},{"name":"G#4","midi":68,"time":139.37494424999906,"velocity":0.84251968503937,"duration":0.10069440416665998},{"name":"F#4","midi":66,"time":139.47911087499907,"velocity":0.84251968503937,"duration":0.10069440416665998},{"name":"G#4","midi":68,"time":139.58327749999907,"velocity":0.84251968503937,"duration":0.20486102916666482},{"name":"E4","midi":64,"time":139.79161074999908,"velocity":0.84251968503937,"duration":0.10069440416665998},{"name":"D#4","midi":63,"time":139.89577737499908,"velocity":0.84251968503937,"duration":0.10069440416665998},{"name":"E4","midi":64,"time":139.9999439999991,"velocity":0.84251968503937,"duration":0.41666649999999095},{"name":"F#4","midi":66,"time":140.41661049999908,"velocity":0.84251968503937,"duration":0.41666649999999095},{"name":"A4","midi":69,"time":140.83327699999907,"velocity":0.84251968503937,"duration":0.41666649999999095},{"name":"B4","midi":71,"time":141.24994349999906,"velocity":0.84251968503937,"duration":0.41666649999999095},{"name":"D#5","midi":75,"time":141.66660999999905,"velocity":0.84251968503937,"duration":0.41666649999999095},{"name":"F#5","midi":78,"time":142.08327649999904,"velocity":0.84251968503937,"duration":0.41666649999999095},{"name":"D#4","midi":63,"time":142.49994299999904,"velocity":0.84251968503937,"duration":0.41666649999999095},{"name":"E4","midi":64,"time":142.91660949999903,"velocity":0.84251968503937,"duration":0.41666649999999095},{"name":"G#4","midi":68,"time":143.33327599999902,"velocity":0.84251968503937,"duration":0.41666649999999095},{"name":"A4","midi":69,"time":143.749942499999,"velocity":0.84251968503937,"duration":0.41666649999999095},{"name":"C#5","midi":73,"time":144.166608999999,"velocity":0.84251968503937,"duration":0.41666649999999095},{"name":"E5","midi":76,"time":144.583275499999,"velocity":0.84251968503937,"duration":0.41666649999999095},{"name":"C#4","midi":61,"time":144.99994199999898,"velocity":0.84251968503937,"duration":0.41666649999999095},{"name":"F#4","midi":66,"time":145.41660849999897,"velocity":0.84251968503937,"duration":0.41666649999999095},{"name":"A4","midi":69,"time":145.83327499999896,"velocity":0.84251968503937,"duration":0.41666649999999095},{"name":"B4","midi":71,"time":146.24994149999895,"velocity":0.84251968503937,"duration":0.41666649999999095},{"name":"C#5","midi":73,"time":146.66660799999894,"velocity":0.84251968503937,"duration":0.41666649999999095},{"name":"D#5","midi":75,"time":147.08327449999894,"velocity":0.84251968503937,"duration":0.41666649999999095},{"name":"E5","midi":76,"time":147.49994099999893,"velocity":0.84251968503937,"duration":0.41666649999999095},{"name":"C#5","midi":73,"time":147.91660749999892,"velocity":0.84251968503937,"duration":0.41666649999999095},{"name":"A4","midi":69,"time":148.3332739999989,"velocity":0.84251968503937,"duration":0.41666649999999095},{"name":"F#5","midi":78,"time":148.7499404999989,"velocity":0.84251968503937,"duration":1.454860529166666},{"name":"E5","midi":76,"time":150.2082732499989,"velocity":0.84251968503937,"duration":0.20486102916666482},{"name":"D#5","midi":75,"time":150.41660649999892,"velocity":0.84251968503937,"duration":0.20486102916666482},{"name":"C#5","midi":73,"time":150.62493974999893,"velocity":0.84251968503937,"duration":0.20486102916666482},{"name":"B4","midi":71,"time":150.83327299999894,"velocity":0.84251968503937,"duration":0.20486102916666482},{"name":"A4","midi":69,"time":151.04160624999895,"velocity":0.84251968503937,"duration":0.20486102916666482},{"name":"G#4","midi":68,"time":151.24993949999896,"velocity":0.84251968503937,"duration":0.20486102916666482},{"name":"E4","midi":64,"time":151.45827274999897,"velocity":0.84251968503937,"duration":0.10069440416665998},{"name":"D#4","midi":63,"time":151.56243937499897,"velocity":0.84251968503937,"duration":0.10069440416665998},{"name":"E4","midi":64,"time":151.66660599999898,"velocity":0.84251968503937,"duration":0.20486102916666482},{"name":"G#4","midi":68,"time":151.874939249999,"velocity":0.84251968503937,"duration":0.10069440416665998},{"name":"F#4","midi":66,"time":151.979105874999,"velocity":0.84251968503937,"duration":0.10069440416665998},{"name":"G#4","midi":68,"time":152.083272499999,"velocity":0.84251968503937,"duration":0.20486102916666482},{"name":"B4","midi":71,"time":152.291605749999,"velocity":0.84251968503937,"duration":0.10069440416665998},{"name":"A4","midi":69,"time":152.395772374999,"velocity":0.84251968503937,"duration":0.10069440416665998},{"name":"B4","midi":71,"time":152.49993899999902,"velocity":0.84251968503937,"duration":0.20486102916666482},{"name":"G#4","midi":68,"time":152.70827224999903,"velocity":0.84251968503937,"duration":0.10069440416665998},{"name":"F#4","midi":66,"time":152.81243887499903,"velocity":0.84251968503937,"duration":0.10069440416665998},{"name":"G#4","midi":68,"time":152.91660549999904,"velocity":0.84251968503937,"duration":0.20486102916666482},{"name":"B4","midi":71,"time":153.12493874999905,"velocity":0.84251968503937,"duration":0.10069440416665998},{"name":"A4","midi":69,"time":153.22910537499905,"velocity":0.84251968503937,"duration":0.10069440416665998},{"name":"B4","midi":71,"time":153.33327199999906,"velocity":0.84251968503937,"duration":0.20486102916666482},{"name":"E5","midi":76,"time":153.54160524999907,"velocity":0.84251968503937,"duration":0.10069440416665998},{"name":"D#5","midi":75,"time":153.64577187499907,"velocity":0.84251968503937,"duration":0.10069440416665998},{"name":"E5","midi":76,"time":153.74993849999908,"velocity":0.84251968503937,"duration":0.20486102916666482},{"name":"B4","midi":71,"time":153.95827174999908,"velocity":0.84251968503937,"duration":0.20486102916666482},{"name":"G#4","midi":68,"time":154.1666049999991,"velocity":0.84251968503937,"duration":0.20486102916666482},{"name":"E4","midi":64,"time":154.3749382499991,"velocity":0.84251968503937,"duration":1.2916661499999975}],"controlChanges":{"7":[{"number":7,"time":0,"value":0.7874015748031497}],"10":[{"number":10,"time":0,"value":0.6299212598425197}]},"id":1,"name":"Harpsichord RH","instrumentNumber":6,"instrument":"harpsichord","instrumentFamily":"piano","channelNumber":0,"isPercussion":false},{"startTime":0,"duration":155.66660440000058,"length":480,"notes":[{"name":"E3","midi":52,"time":0,"velocity":0.84251968503937,"duration":0.38194429166666666},{"name":"F#3","midi":54,"time":0.4166665,"velocity":0.84251968503937,"duration":0.3819442916666667},{"name":"G#3","midi":56,"time":0.833333,"velocity":0.84251968503937,"duration":0.38194429166666677},{"name":"A3","midi":57,"time":1.2499995000000002,"velocity":0.84251968503937,"duration":0.38194429166666666},{"name":"B3","midi":59,"time":1.6666660000000002,"velocity":0.84251968503937,"duration":0.38194429166666666},{"name":"C#4","midi":61,"time":2.0833325,"velocity":0.84251968503937,"duration":0.38194429166666666},{"name":"D#4","midi":63,"time":2.499999,"velocity":0.84251968503937,"duration":0.38194429166666666},{"name":"E4","midi":64,"time":2.9166654999999997,"velocity":0.84251968503937,"duration":0.19097214583333333},{"name":"D#4","midi":63,"time":3.1249987499999996,"velocity":0.84251968503937,"duration":0.19097214583333333},{"name":"C#4","midi":61,"time":3.3333319999999995,"velocity":0.84251968503937,"duration":0.19097214583333333},{"name":"B3","midi":59,"time":3.5416652499999994,"velocity":0.84251968503937,"duration":0.19097214583333333},{"name":"E4","midi":64,"time":3.7499984999999993,"velocity":0.84251968503937,"duration":0.38194429166666666},{"name":"E3","midi":52,"time":4.166664999999999,"velocity":0.84251968503937,"duration":0.7673608041666666},{"name":"E3","midi":52,"time":5.208331249999999,"velocity":0.84251968503937,"duration":0.38194429166666666},{"name":"D#3","midi":51,"time":5.624997749999999,"velocity":0.84251968503937,"duration":0.38194429166666666},{"name":"D3","midi":50,"time":6.041664249999998,"velocity":0.84251968503937,"duration":0.39930539583333324},{"name":"C#3","midi":49,"time":6.458330749999998,"velocity":0.84251968503937,"duration":0.38194429166666666},{"name":"B2","midi":47,"time":6.874997249999998,"velocity":0.84251968503937,"duration":0.38194429166666666},{"name":"A2","midi":45,"time":7.291663749999998,"velocity":0.84251968503937,"duration":0.39930539583333324},{"name":"G#2","midi":44,"time":7.708330249999998,"velocity":0.84251968503937,"duration":0.38194429166666666},{"name":"F#2","midi":42,"time":8.124996749999998,"velocity":0.84251968503937,"duration":0.38194429166666666},{"name":"G#2","midi":44,"time":8.541663249999997,"velocity":0.84251968503937,"duration":0.19097214583333333},{"name":"G#2","midi":44,"time":8.749996499999998,"velocity":0.84251968503937,"duration":0.19097214583333333},{"name":"B2","midi":47,"time":8.958329749999999,"velocity":0.84251968503937,"duration":0.09722218333333288},{"name":"A2","midi":45,"time":9.062496374999998,"velocity":0.84251968503937,"duration":0.09722218333333288},{"name":"B2","midi":47,"time":9.166662999999998,"velocity":0.84251968503937,"duration":0.19097214583333333},{"name":"G#2","midi":44,"time":9.374996249999999,"velocity":0.84251968503937,"duration":0.09722218333333288},{"name":"F#2","midi":42,"time":9.479162874999998,"velocity":0.84251968503937,"duration":0.09722218333333288},{"name":"G#2","midi":44,"time":9.583329499999998,"velocity":0.84251968503937,"duration":0.19097214583333333},{"name":"E2","midi":40,"time":9.791662749999999,"velocity":0.84251968503937,"duration":0.09722218333333288},{"name":"D#2","midi":39,"time":9.895829374999998,"velocity":0.84251968503937,"duration":0.09722218333333288},{"name":"E2","midi":40,"time":9.999995999999998,"velocity":0.84251968503937,"duration":0.38194429166666666},{"name":"C#3","midi":49,"time":10.416662499999997,"velocity":0.84251968503937,"duration":0.38194429166666666},{"name":"E3","midi":52,"time":10.833328999999997,"velocity":0.84251968503937,"duration":0.38194429166666666},{"name":"F#3","midi":54,"time":11.249995499999997,"velocity":0.84251968503937,"duration":0.38194429166666666},{"name":"A#3","midi":58,"time":11.666661999999997,"velocity":0.84251968503937,"duration":0.38194429166666666},{"name":"C#4","midi":61,"time":12.083328499999997,"velocity":0.84251968503937,"duration":0.38194429166666666},{"name":"D#2","midi":39,"time":12.499994999999997,"velocity":0.84251968503937,"duration":0.38194429166666666},{"name":"B2","midi":47,"time":12.916661499999996,"velocity":0.84251968503937,"duration":0.38194429166666666},{"name":"D#3","midi":51,"time":13.333327999999996,"velocity":0.84251968503937,"duration":0.38194429166666666},{"name":"E3","midi":52,"time":13.749994499999996,"velocity":0.84251968503937,"duration":0.38194429166666666},{"name":"G#3","midi":56,"time":14.166660999999996,"velocity":0.84251968503937,"duration":0.38194429166666666},{"name":"B3","midi":59,"time":14.583327499999996,"velocity":0.84251968503937,"duration":0.38194429166666666},{"name":"C#2","midi":37,"time":14.999993999999996,"velocity":0.84251968503937,"duration":0.38194429166666666},{"name":"C#3","midi":49,"time":15.416660499999995,"velocity":0.84251968503937,"duration":0.38194429166666666},{"name":"E3","midi":52,"time":15.833326999999995,"velocity":0.84251968503937,"duration":0.3819442916666649},{"name":"F#3","midi":54,"time":16.249993499999995,"velocity":0.84251968503937,"duration":0.38194429166666666},{"name":"G#3","midi":56,"time":16.666659999999997,"velocity":0.84251968503937,"duration":0.38194429166666666},{"name":"A#3","midi":58,"time":17.0833265,"velocity":0.84251968503937,"duration":0.38194429166666666},{"name":"B3","midi":59,"time":17.499993,"velocity":0.84251968503937,"duration":0.38194429166666666},{"name":"E3","midi":52,"time":17.9166595,"velocity":0.84251968503937,"duration":0.38194429166666666},{"name":"G#3","midi":56,"time":18.333326000000003,"velocity":0.84251968503937,"duration":0.38194429166666666},{"name":"F#3","midi":54,"time":18.749992500000005,"velocity":0.84251968503937,"duration":0.1909721458333351},{"name":"C#4","midi":61,"time":18.958325750000007,"velocity":0.84251968503937,"duration":0.1909721458333351},{"name":"A#3","midi":58,"time":19.16665900000001,"velocity":0.84251968503937,"duration":0.1909721458333351},{"name":"C#4","midi":61,"time":19.374992250000012,"velocity":0.84251968503937,"duration":0.1909721458333351},{"name":"E3","midi":52,"time":19.583325500000015,"velocity":0.84251968503937,"duration":0.1909721458333351},{"name":"C#4","midi":61,"time":19.791658750000018,"velocity":0.84251968503937,"duration":0.1909721458333351},{"name":"D#3","midi":51,"time":19.99999200000002,"velocity":0.84251968503937,"duration":0.38194429166666666},{"name":"E3","midi":52,"time":20.416658500000022,"velocity":0.84251968503937,"duration":0.38194429166666666},{"name":"F#3","midi":54,"time":20.833325000000023,"velocity":0.84251968503937,"duration":0.38194429166666666},{"name":"B2","midi":47,"time":21.249991500000025,"velocity":0.84251968503937,"duration":0.20486102916666837},{"name":"B3","midi":59,"time":21.458324750000028,"velocity":0.84251968503937,"duration":0.10069440416666708},{"name":"A#3","midi":58,"time":21.56249137500003,"velocity":0.84251968503937,"duration":0.10069440416666708},{"name":"B3","midi":59,"time":21.66665800000003,"velocity":0.84251968503937,"duration":0.20486102916666837},{"name":"F#3","midi":54,"time":21.874991250000033,"velocity":0.84251968503937,"duration":0.10069440416666708},{"name":"E3","midi":52,"time":21.979157875000034,"velocity":0.84251968503937,"duration":0.10069440416666708},{"name":"F#3","midi":54,"time":22.083324500000035,"velocity":0.84251968503937,"duration":0.20486102916666837},{"name":"D#3","midi":51,"time":22.291657750000038,"velocity":0.84251968503937,"duration":0.10069440416666708},{"name":"C#3","midi":49,"time":22.39582437500004,"velocity":0.84251968503937,"duration":0.10069440416666708},{"name":"D#3","midi":51,"time":22.49999100000004,"velocity":0.84251968503937,"duration":0.19097214583333155},{"name":"F#3","midi":54,"time":22.70832425000004,"velocity":0.84251968503937,"duration":0.09722218333333288},{"name":"E3","midi":52,"time":22.81249087500004,"velocity":0.84251968503937,"duration":0.09722218333333288},{"name":"F#3","midi":54,"time":22.916657500000042,"velocity":0.84251968503937,"duration":0.1909721458333351},{"name":"D#3","midi":51,"time":23.124990750000045,"velocity":0.84251968503937,"duration":0.09722218333333288},{"name":"C#3","midi":49,"time":23.229157375000046,"velocity":0.84251968503937,"duration":0.09722218333333288},{"name":"D#3","midi":51,"time":23.333324000000047,"velocity":0.84251968503937,"duration":0.1909721458333351},{"name":"B2","midi":47,"time":23.54165725000005,"velocity":0.84251968503937,"duration":0.09722218333333288},{"name":"A#2","midi":46,"time":23.64582387500005,"velocity":0.84251968503937,"duration":0.09722218333333288},{"name":"B2","midi":47,"time":23.749990500000052,"velocity":0.84251968503937,"duration":0.7673608041666675},{"name":"B1","midi":35,"time":24.583323500000052,"velocity":0.84251968503937,"duration":0.38194429166666666},{"name":"E3","midi":52,"time":24.999990000000054,"velocity":0.84251968503937,"duration":0.38194429166666666},{"name":"F#3","midi":54,"time":25.416656500000055,"velocity":0.84251968503937,"duration":0.38194429166666666},{"name":"G#3","midi":56,"time":25.833323000000057,"velocity":0.84251968503937,"duration":0.38194429166666666},{"name":"A3","midi":57,"time":26.24998950000006,"velocity":0.84251968503937,"duration":0.38194429166666666},{"name":"B3","midi":59,"time":26.66665600000006,"velocity":0.84251968503937,"duration":0.38194429166666666},{"name":"C#4","midi":61,"time":27.08332250000006,"velocity":0.84251968503937,"duration":0.38194429166666666},{"name":"D#4","midi":63,"time":27.499989000000063,"velocity":0.84251968503937,"duration":0.38194429166666666},{"name":"E4","midi":64,"time":27.916655500000065,"velocity":0.84251968503937,"duration":0.19097214583333155},{"name":"D#4","midi":63,"time":28.124988750000064,"velocity":0.84251968503937,"duration":0.1909721458333351},{"name":"C#4","midi":61,"time":28.333322000000067,"velocity":0.84251968503937,"duration":0.1909721458333351},{"name":"B3","midi":59,"time":28.54165525000007,"velocity":0.84251968503937,"duration":0.1909721458333351},{"name":"E4","midi":64,"time":28.74998850000007,"velocity":0.84251968503937,"duration":0.38194429166666666},{"name":"E3","midi":52,"time":29.166655000000073,"velocity":0.84251968503937,"duration":0.7673608041666675},{"name":"E3","midi":52,"time":30.208321250000076,"velocity":0.84251968503937,"duration":0.38194429166666666},{"name":"D#3","midi":51,"time":30.624987750000077,"velocity":0.84251968503937,"duration":0.38194429166666666},{"name":"D3","midi":50,"time":31.04165425000008,"velocity":0.84251968503937,"duration":0.39930539583333413},{"name":"C#3","midi":49,"time":31.45832075000008,"velocity":0.84251968503937,"duration":0.38194429166666666},{"name":"B2","midi":47,"time":31.874987250000082,"velocity":0.84251968503937,"duration":0.3819442916666631},{"name":"A2","midi":45,"time":32.29165375000008,"velocity":0.84251968503937,"duration":0.3993053958333306},{"name":"G#2","midi":44,"time":32.70832025000008,"velocity":0.84251968503937,"duration":0.3819442916666631},{"name":"F#2","midi":42,"time":33.124986750000076,"velocity":0.84251968503937,"duration":0.3819442916666702},{"name":"G#2","midi":44,"time":33.54165325000008,"velocity":0.84251968503937,"duration":0.1909721458333351},{"name":"G#2","midi":44,"time":33.749986500000084,"velocity":0.84251968503937,"duration":0.1909721458333351},{"name":"B2","midi":47,"time":33.958319750000086,"velocity":0.84251968503937,"duration":0.09722218333333643},{"name":"A2","midi":45,"time":34.06248637500009,"velocity":0.84251968503937,"duration":0.09722218333333643},{"name":"B2","midi":47,"time":34.166653000000096,"velocity":0.84251968503937,"duration":0.1909721458333351},{"name":"G#2","midi":44,"time":34.3749862500001,"velocity":0.84251968503937,"duration":0.09722218333333643},{"name":"F#2","midi":42,"time":34.4791528750001,"velocity":0.84251968503937,"duration":0.09722218333333643},{"name":"G#2","midi":44,"time":34.58331950000011,"velocity":0.84251968503937,"duration":0.1909721458333351},{"name":"E2","midi":40,"time":34.79165275000011,"velocity":0.84251968503937,"duration":0.09722218333333643},{"name":"D#2","midi":39,"time":34.895819375000116,"velocity":0.84251968503937,"duration":0.09722218333333643},{"name":"E2","midi":40,"time":34.99998600000012,"velocity":0.84251968503937,"duration":0.3819442916666702},{"name":"C#3","midi":49,"time":35.416652500000126,"velocity":0.84251968503937,"duration":0.3819442916666702},{"name":"E3","midi":52,"time":35.83331900000013,"velocity":0.84251968503937,"duration":0.3819442916666702},{"name":"F#3","midi":54,"time":36.249985500000136,"velocity":0.84251968503937,"duration":0.3819442916666702},{"name":"A#3","midi":58,"time":36.66665200000014,"velocity":0.84251968503937,"duration":0.3819442916666702},{"name":"C#4","midi":61,"time":37.083318500000146,"velocity":0.84251968503937,"duration":0.3819442916666702},{"name":"D#2","midi":39,"time":37.49998500000015,"velocity":0.84251968503937,"duration":0.3819442916666702},{"name":"B2","midi":47,"time":37.91665150000016,"velocity":0.84251968503937,"duration":0.3819442916666702},{"name":"D#3","midi":51,"time":38.33331800000016,"velocity":0.84251968503937,"duration":0.3819442916666702},{"name":"E3","midi":52,"time":38.74998450000017,"velocity":0.84251968503937,"duration":0.3819442916666702},{"name":"G#3","midi":56,"time":39.16665100000017,"velocity":0.84251968503937,"duration":0.3819442916666702},{"name":"B3","midi":59,"time":39.58331750000018,"velocity":0.84251968503937,"duration":0.3819442916666702},{"name":"C#2","midi":37,"time":39.99998400000018,"velocity":0.84251968503937,"duration":0.3819442916666702},{"name":"C#3","midi":49,"time":40.41665050000019,"velocity":0.84251968503937,"duration":0.3819442916666702},{"name":"E3","midi":52,"time":40.83331700000019,"velocity":0.84251968503937,"duration":0.3819442916666702},{"name":"F#3","midi":54,"time":41.2499835000002,"velocity":0.84251968503937,"duration":0.3819442916666702},{"name":"G#3","midi":56,"time":41.6666500000002,"velocity":0.84251968503937,"duration":0.3819442916666702},{"name":"A#3","midi":58,"time":42.08331650000021,"velocity":0.84251968503937,"duration":0.3819442916666702},{"name":"B3","midi":59,"time":42.49998300000021,"velocity":0.84251968503937,"duration":0.3819442916666702},{"name":"E3","midi":52,"time":42.91664950000022,"velocity":0.84251968503937,"duration":0.3819442916666702},{"name":"G#3","midi":56,"time":43.333316000000224,"velocity":0.84251968503937,"duration":0.3819442916666702},{"name":"F#3","midi":54,"time":43.74998250000023,"velocity":0.84251968503937,"duration":0.1909721458333351},{"name":"C#4","midi":61,"time":43.95831575000023,"velocity":0.84251968503937,"duration":0.1909721458333351},{"name":"A#3","midi":58,"time":44.166649000000234,"velocity":0.84251968503937,"duration":0.1909721458333351},{"name":"C#4","midi":61,"time":44.37498225000024,"velocity":0.84251968503937,"duration":0.1909721458333351},{"name":"E3","midi":52,"time":44.58331550000024,"velocity":0.84251968503937,"duration":0.1909721458333351},{"name":"C#4","midi":61,"time":44.79164875000024,"velocity":0.84251968503937,"duration":0.1909721458333351},{"name":"D#3","midi":51,"time":44.999982000000244,"velocity":0.84251968503937,"duration":0.3819442916666702},{"name":"E3","midi":52,"time":45.41664850000025,"velocity":0.84251968503937,"duration":0.3819442916666702},{"name":"F#3","midi":54,"time":45.833315000000255,"velocity":0.84251968503937,"duration":0.3819442916666702},{"name":"B2","midi":47,"time":46.24998150000026,"velocity":0.84251968503937,"duration":0.20486102916666482},{"name":"B3","midi":59,"time":46.458314750000255,"velocity":0.84251968503937,"duration":0.10069440416666708},{"name":"A#3","midi":58,"time":46.56248137500025,"velocity":0.84251968503937,"duration":0.10069440416666708},{"name":"B3","midi":59,"time":46.66664800000025,"velocity":0.84251968503937,"duration":0.20486102916666482},{"name":"F#3","midi":54,"time":46.874981250000246,"velocity":0.84251968503937,"duration":0.10069440416666708},{"name":"E3","midi":52,"time":46.979147875000244,"velocity":0.84251968503937,"duration":0.10069440416666708},{"name":"F#3","midi":54,"time":47.08331450000024,"velocity":0.84251968503937,"duration":0.20486102916666482},{"name":"D#3","midi":51,"time":47.29164775000024,"velocity":0.84251968503937,"duration":0.10069440416666708},{"name":"C#3","midi":49,"time":47.395814375000235,"velocity":0.84251968503937,"duration":0.10069440416666708},{"name":"D#3","midi":51,"time":47.49998100000023,"velocity":0.84251968503937,"duration":0.1909721458333351},{"name":"F#3","midi":54,"time":47.708314250000235,"velocity":0.84251968503937,"duration":0.09722218333333643},{"name":"E3","midi":52,"time":47.81248087500024,"velocity":0.84251968503937,"duration":0.09722218333333643},{"name":"F#3","midi":54,"time":47.916647500000245,"velocity":0.84251968503937,"duration":0.1909721458333351},{"name":"D#3","midi":51,"time":48.12498075000025,"velocity":0.84251968503937,"duration":0.09722218333333643},{"name":"C#3","midi":49,"time":48.22914737500025,"velocity":0.84251968503937,"duration":0.09722218333333643},{"name":"D#3","midi":51,"time":48.33331400000026,"velocity":0.84251968503937,"duration":0.1909721458333351},{"name":"B2","midi":47,"time":48.54164725000026,"velocity":0.84251968503937,"duration":0.09722218333333643},{"name":"A#2","midi":46,"time":48.645813875000265,"velocity":0.84251968503937,"duration":0.09722218333333643},{"name":"B2","midi":47,"time":48.74998050000027,"velocity":0.84251968503937,"duration":0.767360804166664},{"name":"B1","midi":35,"time":49.583313500000266,"velocity":0.84251968503937,"duration":0.3819442916666631},{"name":"B3","midi":59,"time":50.20831325000026,"velocity":0.84251968503937,"duration":0.3819442916666702},{"name":"A#3","midi":58,"time":50.624979750000264,"velocity":0.84251968503937,"duration":0.3819442916666702},{"name":"A3","midi":57,"time":51.04164625000027,"velocity":0.84251968503937,"duration":0.3993053958333306},{"name":"G#3","midi":56,"time":51.45831275000027,"velocity":0.84251968503937,"duration":0.3819442916666631},{"name":"F#3","midi":54,"time":51.874979250000266,"velocity":0.84251968503937,"duration":0.3819442916666702},{"name":"E3","midi":52,"time":52.29164575000027,"velocity":0.84251968503937,"duration":0.3993053958333306},{"name":"D#3","midi":51,"time":52.70831225000027,"velocity":0.84251968503937,"duration":0.3819442916666631},{"name":"C#3","midi":49,"time":53.12497875000027,"velocity":0.84251968503937,"duration":0.3819442916666702},{"name":"D#3","midi":51,"time":53.54164525000027,"velocity":0.84251968503937,"duration":0.1909721458333351},{"name":"D#3","midi":51,"time":53.749978500000275,"velocity":0.84251968503937,"duration":0.20486102916666482},{"name":"F#3","midi":54,"time":53.95831175000027,"velocity":0.84251968503937,"duration":0.10069440416666708},{"name":"E3","midi":52,"time":54.06247837500027,"velocity":0.84251968503937,"duration":0.10069440416666708},{"name":"F#3","midi":54,"time":54.166645000000265,"velocity":0.84251968503937,"duration":0.20486102916666482},{"name":"D#3","midi":51,"time":54.37497825000026,"velocity":0.84251968503937,"duration":0.10069440416666708},{"name":"C#3","midi":49,"time":54.47914487500026,"velocity":0.84251968503937,"duration":0.10069440416666708},{"name":"D#3","midi":51,"time":54.583311500000256,"velocity":0.84251968503937,"duration":0.20486102916666482},{"name":"B2","midi":47,"time":54.79164475000025,"velocity":0.84251968503937,"duration":0.10069440416666708},{"name":"A#2","midi":46,"time":54.89581137500025,"velocity":0.84251968503937,"duration":0.10069440416666708},{"name":"B2","midi":47,"time":54.99997800000025,"velocity":0.84251968503937,"duration":0.3819442916666631},{"name":"C#3","midi":49,"time":55.416644500000245,"velocity":0.84251968503937,"duration":0.3819442916666702},{"name":"D#3","midi":51,"time":55.83331100000025,"velocity":0.84251968503937,"duration":0.3819442916666702},{"name":"E3","midi":52,"time":56.249977500000256,"velocity":0.84251968503937,"duration":0.3819442916666702},{"name":"F#3","midi":54,"time":56.66664400000026,"velocity":0.84251968503937,"duration":0.3819442916666702},{"name":"G#3","midi":56,"time":57.083310500000266,"velocity":0.84251968503937,"duration":0.3819442916666702},{"name":"A#3","midi":58,"time":57.49997700000027,"velocity":0.84251968503937,"duration":0.3819442916666702},{"name":"B3","midi":59,"time":57.916643500000276,"velocity":0.84251968503937,"duration":0.1909721458333351},{"name":"A#3","midi":58,"time":58.12497675000028,"velocity":0.84251968503937,"duration":0.1909721458333351},{"name":"G#3","midi":56,"time":58.33331000000028,"velocity":0.84251968503937,"duration":0.1909721458333351},{"name":"F#3","midi":54,"time":58.541643250000284,"velocity":0.84251968503937,"duration":0.1909721458333351},{"name":"B3","midi":59,"time":58.74997650000029,"velocity":0.84251968503937,"duration":0.3819442916666702},{"name":"B2","midi":47,"time":59.16664300000029,"velocity":0.84251968503937,"duration":0.767360804166664},{"name":"G#3","midi":56,"time":59.99997600000029,"velocity":0.84251968503937,"duration":0.3819442916666702},{"name":"B3","midi":59,"time":60.41664250000029,"velocity":0.84251968503937,"duration":0.3819442916666702},{"name":"D#4","midi":63,"time":60.8333090000003,"velocity":0.84251968503937,"duration":0.3819442916666702},{"name":"G3","midi":55,"time":61.2499755000003,"velocity":0.84251968503937,"duration":0.3819442916666702},{"name":"A#3","midi":58,"time":61.66664200000031,"velocity":0.84251968503937,"duration":0.3819442916666702},{"name":"D#4","midi":63,"time":62.083308500000314,"velocity":0.84251968503937,"duration":0.3819442916666702},{"name":"G#3","midi":56,"time":62.49997500000032,"velocity":0.84251968503937,"duration":0.3819442916666702},{"name":"B3","midi":59,"time":62.916641500000324,"velocity":0.84251968503937,"duration":0.3819442916666702},{"name":"D#4","midi":63,"time":63.33330800000033,"velocity":0.84251968503937,"duration":0.3819442916666702},{"name":"D#3","midi":51,"time":63.749974500000334,"velocity":0.84251968503937,"duration":0.3819442916666702},{"name":"D#4","midi":63,"time":64.16664100000034,"velocity":0.84251968503937,"duration":0.3819442916666702},{"name":"C#4","midi":61,"time":64.58330750000034,"velocity":0.84251968503937,"duration":0.3819442916666702},{"name":"C4","midi":60,"time":64.99997400000035,"velocity":0.84251968503937,"duration":0.3819442916666702},{"name":"C#4","midi":61,"time":65.41664050000036,"velocity":0.84251968503937,"duration":0.3819442916666702},{"name":"D#4","midi":63,"time":65.83330700000036,"velocity":0.84251968503937,"duration":0.3819442916666702},{"name":"G#3","midi":56,"time":66.24997350000037,"velocity":0.84251968503937,"duration":0.3819442916666702},{"name":"C#4","midi":61,"time":66.66664000000037,"velocity":0.84251968503937,"duration":0.3819442916666702},{"name":"B3","midi":59,"time":67.08330650000038,"velocity":0.84251968503937,"duration":0.3819442916666702},{"name":"A#3","midi":58,"time":67.49997300000038,"velocity":0.84251968503937,"duration":0.3819442916666702},{"name":"B3","midi":59,"time":67.91663950000039,"velocity":0.84251968503937,"duration":0.3819442916666702},{"name":"C#4","midi":61,"time":68.33330600000039,"velocity":0.84251968503937,"duration":0.3819442916666702},{"name":"F#3","midi":54,"time":68.7499725000004,"velocity":0.84251968503937,"duration":0.3819442916666702},{"name":"B3","midi":59,"time":69.1666390000004,"velocity":0.84251968503937,"duration":0.3819442916666702},{"name":"D#4","midi":63,"time":69.5833055000004,"velocity":0.84251968503937,"duration":0.3819442916666702},{"name":"G3","midi":55,"time":69.99997200000041,"velocity":0.84251968503937,"duration":0.3819442916666702},{"name":"G#3","midi":56,"time":70.41663850000042,"velocity":0.84251968503937,"duration":0.3819442916666702},{"name":"A#3","midi":58,"time":70.83330500000042,"velocity":0.84251968503937,"duration":0.3819442916666702},{"name":"D#3","midi":51,"time":71.24997150000043,"velocity":0.84251968503937,"duration":0.3819442916666702},{"name":"G#3","midi":56,"time":71.66663800000043,"velocity":0.84251968503937,"duration":0.3819442916666702},{"name":"B3","midi":59,"time":72.08330450000044,"velocity":0.84251968503937,"duration":0.3819442916666702},{"name":"C#3","midi":49,"time":72.49997100000044,"velocity":0.84251968503937,"duration":0.7673608041666711},{"name":"C#4","midi":61,"time":73.33330400000045,"velocity":0.84251968503937,"duration":0.7986107916666612},{"name":"A#3","midi":58,"time":74.16663700000045,"velocity":0.84251968503937,"duration":0.3819442916666702},{"name":"G3","midi":55,"time":74.58330350000045,"velocity":0.84251968503937,"duration":0.3819442916666702},{"name":"G#3","midi":56,"time":74.99997000000046,"velocity":0.84251968503937,"duration":0.3819442916666702},{"name":"C#3","midi":49,"time":75.41663650000046,"velocity":0.84251968503937,"duration":0.3819442916666702},{"name":"D#3","midi":51,"time":75.83330300000047,"velocity":0.84251968503937,"duration":0.3819442916666702},{"name":"G#2","midi":44,"time":76.24996950000047,"velocity":0.84251968503937,"duration":0.5763886583333289},{"name":"G#2","midi":44,"time":76.87496925000048,"velocity":0.84251968503937,"duration":0.190972145833328},{"name":"G#3","midi":56,"time":77.08330250000047,"velocity":0.84251968503937,"duration":0.190972145833328},{"name":"F#3","midi":54,"time":77.29163575000047,"velocity":0.84251968503937,"duration":0.3993053958333377},{"name":"E3","midi":52,"time":77.70830225000047,"velocity":0.84251968503937,"duration":0.3819442916666702},{"name":"D#3","midi":51,"time":78.12496875000048,"velocity":0.84251968503937,"duration":0.3819442916666702},{"name":"D3","midi":50,"time":78.54163525000048,"velocity":0.84251968503937,"duration":0.3993053958333377},{"name":"C#3","midi":49,"time":78.95830175000049,"velocity":0.84251968503937,"duration":0.3819442916666702},{"name":"B2","midi":47,"time":79.37496825000049,"velocity":0.84251968503937,"duration":0.3819442916666702},{"name":"A2","midi":45,"time":79.7916347500005,"velocity":0.84251968503937,"duration":0.3993053958333377},{"name":"G#2","midi":44,"time":80.2083012500005,"velocity":0.84251968503937,"duration":0.3819442916666702},{"name":"F#2","midi":42,"time":80.62496775000051,"velocity":0.84251968503937,"duration":0.3819442916666702},{"name":"G#2","midi":44,"time":81.04163425000051,"velocity":0.84251968503937,"duration":0.190972145833328},{"name":"G#2","midi":44,"time":81.24996750000051,"velocity":0.84251968503937,"duration":0.190972145833328},{"name":"B2","midi":47,"time":81.4583007500005,"velocity":0.84251968503937,"duration":0.09722218333332933},{"name":"A2","midi":45,"time":81.5624673750005,"velocity":0.84251968503937,"duration":0.09722218333332933},{"name":"B2","midi":47,"time":81.66663400000049,"velocity":0.84251968503937,"duration":0.190972145833328},{"name":"G#2","midi":44,"time":81.87496725000048,"velocity":0.84251968503937,"duration":0.09722218333332933},{"name":"F#2","midi":42,"time":81.97913387500047,"velocity":0.84251968503937,"duration":0.09722218333332933},{"name":"G#2","midi":44,"time":82.08330050000046,"velocity":0.84251968503937,"duration":0.190972145833328},{"name":"E2","midi":40,"time":82.29163375000046,"velocity":0.84251968503937,"duration":0.09722218333332933},{"name":"D#2","midi":39,"time":82.39580037500045,"velocity":0.84251968503937,"duration":0.09722218333332933},{"name":"E2","midi":40,"time":82.49996700000044,"velocity":0.84251968503937,"duration":0.3819442916666702},{"name":"F#2","midi":42,"time":82.91663350000044,"velocity":0.84251968503937,"duration":0.3819442916666702},{"name":"G#2","midi":44,"time":83.33330000000045,"velocity":0.84251968503937,"duration":0.3819442916666702},{"name":"A2","midi":45,"time":83.74996650000045,"velocity":0.84251968503937,"duration":0.3819442916666702},{"name":"B2","midi":47,"time":84.16663300000046,"velocity":0.84251968503937,"duration":0.3819442916666702},{"name":"C#3","midi":49,"time":84.58329950000046,"velocity":0.84251968503937,"duration":0.3819442916666702},{"name":"D#3","midi":51,"time":84.99996600000047,"velocity":0.84251968503937,"duration":0.3819442916666702},{"name":"E3","midi":52,"time":85.41663250000047,"velocity":0.84251968503937,"duration":0.190972145833328},{"name":"D#3","midi":51,"time":85.62496575000047,"velocity":0.84251968503937,"duration":0.190972145833328},{"name":"C#3","midi":49,"time":85.83329900000047,"velocity":0.84251968503937,"duration":0.190972145833328},{"name":"B2","midi":47,"time":86.04163225000046,"velocity":0.84251968503937,"duration":0.190972145833328},{"name":"E3","midi":52,"time":86.24996550000046,"velocity":0.84251968503937,"duration":0.5763886583333289},{"name":"B3","midi":59,"time":86.87496525000046,"velocity":0.84251968503937,"duration":0.09722218333332933},{"name":"A3","midi":57,"time":86.97913187500045,"velocity":0.84251968503937,"duration":0.09722218333332933},{"name":"B3","midi":59,"time":87.08329850000044,"velocity":0.84251968503937,"duration":0.190972145833328},{"name":"G#3","midi":56,"time":87.29163175000043,"velocity":0.84251968503937,"duration":0.09722218333332933},{"name":"F#3","midi":54,"time":87.39579837500042,"velocity":0.84251968503937,"duration":0.09722218333332933},{"name":"G#3","midi":56,"time":87.49996500000042,"velocity":0.84251968503937,"duration":0.190972145833328},{"name":"C#4","midi":61,"time":87.70829825000041,"velocity":0.84251968503937,"duration":0.3819442916666702},{"name":"A3","midi":57,"time":88.12496475000042,"velocity":0.84251968503937,"duration":0.3819442916666702},{"name":"F#3","midi":54,"time":88.54163125000042,"velocity":0.84251968503937,"duration":0.4131942791666603},{"name":"A3","midi":57,"time":88.95829775000041,"velocity":0.84251968503937,"duration":0.10069440416665998},{"name":"G#3","midi":56,"time":89.0624643750004,"velocity":0.84251968503937,"duration":0.10069440416665998},{"name":"A3","midi":57,"time":89.1666310000004,"velocity":0.84251968503937,"duration":0.20486102916666482},{"name":"F#3","midi":54,"time":89.37496425000039,"velocity":0.84251968503937,"duration":0.20486102916666482},{"name":"D#3","midi":51,"time":89.58329750000038,"velocity":0.84251968503937,"duration":0.20486102916666482},{"name":"B2","midi":47,"time":89.79163075000038,"velocity":0.84251968503937,"duration":0.3993053958333377},{"name":"B3","midi":59,"time":90.20829725000038,"velocity":0.84251968503937,"duration":0.3819442916666702},{"name":"G#3","midi":56,"time":90.62496375000039,"velocity":0.84251968503937,"duration":0.3819442916666702},{"name":"E3","midi":52,"time":91.0416302500004,"velocity":0.84251968503937,"duration":0.4131942791666603},{"name":"G#3","midi":56,"time":91.45829675000039,"velocity":0.84251968503937,"duration":0.10069440416665998},{"name":"F#3","midi":54,"time":91.56246337500038,"velocity":0.84251968503937,"duration":0.10069440416665998},{"name":"G#3","midi":56,"time":91.66663000000037,"velocity":0.84251968503937,"duration":0.20486102916666482},{"name":"E3","midi":52,"time":91.87496325000036,"velocity":0.84251968503937,"duration":0.20486102916666482},{"name":"C#3","midi":49,"time":92.08329650000036,"velocity":0.84251968503937,"duration":0.20486102916666482},{"name":"A2","midi":45,"time":92.29162975000035,"velocity":0.84251968503937,"duration":0.3993053958333377},{"name":"A3","midi":57,"time":92.70829625000036,"velocity":0.84251968503937,"duration":0.3819442916666702},{"name":"F#3","midi":54,"time":93.12496275000036,"velocity":0.84251968503937,"duration":0.3819442916666702},{"name":"D#3","midi":51,"time":93.54162925000037,"velocity":0.84251968503937,"duration":0.3993053958333377},{"name":"C#4","midi":61,"time":93.95829575000037,"velocity":0.84251968503937,"duration":0.3819442916666702},{"name":"B3","midi":59,"time":94.37496225000038,"velocity":0.84251968503937,"duration":0.3819442916666702},{"name":"A3","midi":57,"time":94.79162875000038,"velocity":0.84251968503937,"duration":0.3993053958333377},{"name":"G#3","midi":56,"time":95.20829525000039,"velocity":0.84251968503937,"duration":0.3819442916666702},{"name":"F#3","midi":54,"time":95.6249617500004,"velocity":0.84251968503937,"duration":0.3819442916666702},{"name":"E3","midi":52,"time":96.0416282500004,"velocity":0.84251968503937,"duration":0.190972145833328},{"name":"D#3","midi":51,"time":96.2499615000004,"velocity":0.84251968503937,"duration":0.20486102916666482},{"name":"A3","midi":57,"time":96.45829475000039,"velocity":0.84251968503937,"duration":0.10069440416665998},{"name":"G#3","midi":56,"time":96.56246137500038,"velocity":0.84251968503937,"duration":0.10069440416665998},{"name":"A3","midi":57,"time":96.66662800000037,"velocity":0.84251968503937,"duration":0.20486102916666482},{"name":"D#3","midi":51,"time":96.87496125000037,"velocity":0.84251968503937,"duration":0.10069440416665998},{"name":"C#3","midi":49,"time":96.97912787500036,"velocity":0.84251968503937,"duration":0.10069440416665998},{"name":"D#3","midi":51,"time":97.08329450000035,"velocity":0.84251968503937,"duration":0.20486102916666482},{"name":"G#3","midi":56,"time":97.29162775000034,"velocity":0.84251968503937,"duration":0.10069440416665998},{"name":"F#3","midi":54,"time":97.39579437500034,"velocity":0.84251968503937,"duration":0.10069440416665998},{"name":"G#3","midi":56,"time":97.49996100000033,"velocity":0.84251968503937,"duration":0.3819442916666702},{"name":"A3","midi":57,"time":97.91662750000033,"velocity":0.84251968503937,"duration":0.3819442916666702},{"name":"B3","midi":59,"time":98.33329400000034,"velocity":0.84251968503937,"duration":0.3819442916666702},{"name":"E3","midi":52,"time":98.74996050000034,"velocity":0.84251968503937,"duration":0.5763886583333289},{"name":"E4","midi":64,"time":99.37496025000034,"velocity":0.84251968503937,"duration":0.190972145833328},{"name":"B3","midi":59,"time":99.58329350000034,"velocity":0.84251968503937,"duration":0.190972145833328},{"name":"G#3","midi":56,"time":99.79162675000033,"velocity":0.84251968503937,"duration":0.190972145833328},{"name":"E3","midi":52,"time":99.99996000000033,"velocity":0.84251968503937,"duration":0.190972145833328},{"name":"B3","midi":59,"time":100.20829325000032,"velocity":0.84251968503937,"duration":0.190972145833328},{"name":"G#3","midi":56,"time":100.41662650000032,"velocity":0.84251968503937,"duration":0.190972145833328},{"name":"E3","midi":52,"time":100.62495975000031,"velocity":0.84251968503937,"duration":0.190972145833328},{"name":"B2","midi":47,"time":100.83329300000031,"velocity":0.84251968503937,"duration":0.190972145833328},{"name":"G#2","midi":44,"time":101.0416262500003,"velocity":0.84251968503937,"duration":0.190972145833328},{"name":"E2","midi":40,"time":101.2499595000003,"velocity":0.84251968503937,"duration":0.7673608041666711},{"name":"E3","midi":52,"time":102.08329250000031,"velocity":0.84251968503937,"duration":0.3819442916666702},{"name":"B3","midi":59,"time":102.70829225000031,"velocity":0.84251968503937,"duration":0.3819442916666702},{"name":"A#3","midi":58,"time":103.12495875000032,"velocity":0.84251968503937,"duration":0.3819442916666702},{"name":"A3","midi":57,"time":103.54162525000032,"velocity":0.84251968503937,"duration":0.3993053958333377},{"name":"G#3","midi":56,"time":103.95829175000033,"velocity":0.84251968503937,"duration":0.3819442916666702},{"name":"F#3","midi":54,"time":104.37495825000033,"velocity":0.84251968503937,"duration":0.3819442916666702},{"name":"E3","midi":52,"time":104.79162475000034,"velocity":0.84251968503937,"duration":0.3993053958333377},{"name":"D#3","midi":51,"time":105.20829125000034,"velocity":0.84251968503937,"duration":0.3819442916666702},{"name":"C#3","midi":49,"time":105.62495775000035,"velocity":0.84251968503937,"duration":0.3819442916666702},{"name":"D#3","midi":51,"time":106.04162425000035,"velocity":0.84251968503937,"duration":0.190972145833328},{"name":"D#3","midi":51,"time":106.24995750000035,"velocity":0.84251968503937,"duration":0.20486102916666482},{"name":"F#3","midi":54,"time":106.45829075000034,"velocity":0.84251968503937,"duration":0.10069440416665998},{"name":"E3","midi":52,"time":106.56245737500033,"velocity":0.84251968503937,"duration":0.10069440416665998},{"name":"F#3","midi":54,"time":106.66662400000033,"velocity":0.84251968503937,"duration":0.20486102916666482},{"name":"D#3","midi":51,"time":106.87495725000032,"velocity":0.84251968503937,"duration":0.10069440416665998},{"name":"C#3","midi":49,"time":106.97912387500031,"velocity":0.84251968503937,"duration":0.10069440416665998},{"name":"D#3","midi":51,"time":107.0832905000003,"velocity":0.84251968503937,"duration":0.20486102916666482},{"name":"B2","midi":47,"time":107.2916237500003,"velocity":0.84251968503937,"duration":0.10069440416665998},{"name":"A#2","midi":46,"time":107.39579037500029,"velocity":0.84251968503937,"duration":0.10069440416665998},{"name":"B2","midi":47,"time":107.49995700000028,"velocity":0.84251968503937,"duration":0.3819442916666702},{"name":"C#3","midi":49,"time":107.91662350000028,"velocity":0.84251968503937,"duration":0.3819442916666702},{"name":"D#3","midi":51,"time":108.33329000000029,"velocity":0.84251968503937,"duration":0.3819442916666702},{"name":"E3","midi":52,"time":108.7499565000003,"velocity":0.84251968503937,"duration":0.3819442916666702},{"name":"F#3","midi":54,"time":109.1666230000003,"velocity":0.84251968503937,"duration":0.3819442916666702},{"name":"G#3","midi":56,"time":109.5832895000003,"velocity":0.84251968503937,"duration":0.3819442916666702},{"name":"A#3","midi":58,"time":109.99995600000031,"velocity":0.84251968503937,"duration":0.3819442916666702},{"name":"B3","midi":59,"time":110.41662250000032,"velocity":0.84251968503937,"duration":0.190972145833328},{"name":"A#3","midi":58,"time":110.62495575000031,"velocity":0.84251968503937,"duration":0.190972145833328},{"name":"G#3","midi":56,"time":110.8332890000003,"velocity":0.84251968503937,"duration":0.190972145833328},{"name":"F#3","midi":54,"time":111.0416222500003,"velocity":0.84251968503937,"duration":0.190972145833328},{"name":"B3","midi":59,"time":111.2499555000003,"velocity":0.84251968503937,"duration":0.3819442916666702},{"name":"B2","midi":47,"time":111.6666220000003,"velocity":0.84251968503937,"duration":0.7673608041666711},{"name":"G#3","midi":56,"time":112.49995500000031,"velocity":0.84251968503937,"duration":0.3819442916666702},{"name":"B3","midi":59,"time":112.91662150000032,"velocity":0.84251968503937,"duration":0.3819442916666702},{"name":"D#4","midi":63,"time":113.33328800000032,"velocity":0.84251968503937,"duration":0.3819442916666702},{"name":"G3","midi":55,"time":113.74995450000033,"velocity":0.84251968503937,"duration":0.3819442916666702},{"name":"A#3","midi":58,"time":114.16662100000033,"velocity":0.84251968503937,"duration":0.3819442916666702},{"name":"D#4","midi":63,"time":114.58328750000034,"velocity":0.84251968503937,"duration":0.3819442916666702},{"name":"G#3","midi":56,"time":114.99995400000034,"velocity":0.84251968503937,"duration":0.3819442916666702},{"name":"B3","midi":59,"time":115.41662050000035,"velocity":0.84251968503937,"duration":0.3819442916666702},{"name":"D#4","midi":63,"time":115.83328700000035,"velocity":0.84251968503937,"duration":0.3819442916666702},{"name":"D#3","midi":51,"time":116.24995350000036,"velocity":0.84251968503937,"duration":0.3819442916666702},{"name":"D#4","midi":63,"time":116.66662000000036,"velocity":0.84251968503937,"duration":0.3819442916666702},{"name":"C#4","midi":61,"time":117.08328650000037,"velocity":0.84251968503937,"duration":0.3819442916666702},{"name":"C4","midi":60,"time":117.49995300000037,"velocity":0.84251968503937,"duration":0.3819442916666702},{"name":"C#4","midi":61,"time":117.91661950000038,"velocity":0.84251968503937,"duration":0.3819442916666702},{"name":"D#4","midi":63,"time":118.33328600000038,"velocity":0.84251968503937,"duration":0.3819442916666702},{"name":"G#3","midi":56,"time":118.74995250000039,"velocity":0.84251968503937,"duration":0.3819442916666702},{"name":"C#4","midi":61,"time":119.1666190000004,"velocity":0.84251968503937,"duration":0.3819442916666702},{"name":"B3","midi":59,"time":119.5832855000004,"velocity":0.84251968503937,"duration":0.3819442916666702},{"name":"A#3","midi":58,"time":119.9999520000004,"velocity":0.84251968503937,"duration":0.3819442916666702},{"name":"B3","midi":59,"time":120.41661850000041,"velocity":0.84251968503937,"duration":0.3819442916666702},{"name":"C#4","midi":61,"time":120.83328500000042,"velocity":0.84251968503937,"duration":0.3819442916666702},{"name":"F#3","midi":54,"time":121.24995150000042,"velocity":0.84251968503937,"duration":0.3819442916666702},{"name":"B3","midi":59,"time":121.66661800000043,"velocity":0.84251968503937,"duration":0.3819442916666702},{"name":"D#4","midi":63,"time":122.08328450000043,"velocity":0.84251968503937,"duration":0.3819442916666702},{"name":"G3","midi":55,"time":122.49995100000044,"velocity":0.84251968503937,"duration":0.3819442916666702},{"name":"G#3","midi":56,"time":122.91661750000044,"velocity":0.84251968503937,"duration":0.3819442916666702},{"name":"A#3","midi":58,"time":123.33328400000045,"velocity":0.84251968503937,"duration":0.3819442916666702},{"name":"D#3","midi":51,"time":123.74995050000045,"velocity":0.84251968503937,"duration":0.3819442916666702},{"name":"G#3","midi":56,"time":124.16661700000046,"velocity":0.84251968503937,"duration":0.3819442916666702},{"name":"B3","midi":59,"time":124.58328350000046,"velocity":0.84251968503937,"duration":0.3819442916666702},{"name":"C#3","midi":49,"time":124.99995000000047,"velocity":0.84251968503937,"duration":0.7673608041666711},{"name":"C#4","midi":61,"time":125.83328300000048,"velocity":0.84251968503937,"duration":0.7986107916666612},{"name":"A#3","midi":58,"time":126.66661600000047,"velocity":0.84251968503937,"duration":0.3819442916666702},{"name":"G3","midi":55,"time":127.08328250000048,"velocity":0.84251968503937,"duration":0.3819442916666702},{"name":"G#3","midi":56,"time":127.49994900000048,"velocity":0.84251968503937,"duration":0.3819442916666702},{"name":"C#3","midi":49,"time":127.91661550000049,"velocity":0.84251968503937,"duration":0.381944291666656},{"name":"D#3","midi":51,"time":128.33328200000048,"velocity":0.84251968503937,"duration":0.381944291666656},{"name":"G#2","midi":44,"time":128.74994850000047,"velocity":0.84251968503937,"duration":0.5763886583333431},{"name":"G#2","midi":44,"time":129.37494825000047,"velocity":0.84251968503937,"duration":0.1909721458333422},{"name":"G#3","midi":56,"time":129.58328150000048,"velocity":0.84251968503937,"duration":0.1909721458333422},{"name":"F#3","midi":54,"time":129.7916147500005,"velocity":0.84251968503937,"duration":0.3993053958333235},{"name":"E3","midi":52,"time":130.20828125000048,"velocity":0.84251968503937,"duration":0.381944291666656},{"name":"D#3","midi":51,"time":130.62494775000047,"velocity":0.84251968503937,"duration":0.381944291666656},{"name":"D3","midi":50,"time":131.04161425000046,"velocity":0.84251968503937,"duration":0.3993053958333235},{"name":"C#3","midi":49,"time":131.45828075000045,"velocity":0.84251968503937,"duration":0.381944291666656},{"name":"B2","midi":47,"time":131.87494725000045,"velocity":0.84251968503937,"duration":0.381944291666656},{"name":"A2","midi":45,"time":132.29161375000044,"velocity":0.84251968503937,"duration":0.3993053958333235},{"name":"G#2","midi":44,"time":132.70828025000043,"velocity":0.84251968503937,"duration":0.381944291666656},{"name":"F#2","midi":42,"time":133.12494675000042,"velocity":0.84251968503937,"duration":0.381944291666656},{"name":"G#2","midi":44,"time":133.5416132500004,"velocity":0.84251968503937,"duration":0.1909721458333422},{"name":"G#2","midi":44,"time":133.74994650000042,"velocity":0.84251968503937,"duration":0.1909721458333422},{"name":"B2","midi":47,"time":133.95827975000043,"velocity":0.84251968503937,"duration":0.09722218333334354},{"name":"A2","midi":45,"time":134.06244637500043,"velocity":0.84251968503937,"duration":0.09722218333334354},{"name":"B2","midi":47,"time":134.16661300000044,"velocity":0.84251968503937,"duration":0.1909721458333422},{"name":"G#2","midi":44,"time":134.37494625000045,"velocity":0.84251968503937,"duration":0.09722218333334354},{"name":"F#2","midi":42,"time":134.47911287500045,"velocity":0.84251968503937,"duration":0.09722218333334354},{"name":"G#2","midi":44,"time":134.58327950000046,"velocity":0.84251968503937,"duration":0.1909721458333422},{"name":"E2","midi":40,"time":134.79161275000047,"velocity":0.84251968503937,"duration":0.09722218333334354},{"name":"D#2","midi":39,"time":134.89577937500047,"velocity":0.84251968503937,"duration":0.09722218333334354},{"name":"E2","midi":40,"time":134.99994600000048,"velocity":0.84251968503937,"duration":0.381944291666656},{"name":"F#2","midi":42,"time":135.41661250000047,"velocity":0.84251968503937,"duration":0.381944291666656},{"name":"G#2","midi":44,"time":135.83327900000046,"velocity":0.84251968503937,"duration":0.381944291666656},{"name":"A2","midi":45,"time":136.24994550000045,"velocity":0.84251968503937,"duration":0.381944291666656},{"name":"B2","midi":47,"time":136.66661200000044,"velocity":0.84251968503937,"duration":0.381944291666656},{"name":"C#3","midi":49,"time":137.08327850000043,"velocity":0.84251968503937,"duration":0.381944291666656},{"name":"D#3","midi":51,"time":137.49994500000042,"velocity":0.84251968503937,"duration":0.381944291666656},{"name":"E3","midi":52,"time":137.9166115000004,"velocity":0.84251968503937,"duration":0.1909721458333422},{"name":"D#3","midi":51,"time":138.12494475000042,"velocity":0.84251968503937,"duration":0.1909721458333422},{"name":"C#3","midi":49,"time":138.33327800000043,"velocity":0.84251968503937,"duration":0.1909721458333422},{"name":"B2","midi":47,"time":138.54161125000044,"velocity":0.84251968503937,"duration":0.1909721458333422},{"name":"E3","midi":52,"time":138.74994450000045,"velocity":0.84251968503937,"duration":0.5763886583333431},{"name":"B3","midi":59,"time":139.37494425000045,"velocity":0.84251968503937,"duration":0.09722218333334354},{"name":"A3","midi":57,"time":139.47911087500046,"velocity":0.84251968503937,"duration":0.09722218333334354},{"name":"B3","midi":59,"time":139.58327750000046,"velocity":0.84251968503937,"duration":0.1909721458333422},{"name":"G#3","midi":56,"time":139.79161075000047,"velocity":0.84251968503937,"duration":0.09722218333334354},{"name":"F#3","midi":54,"time":139.89577737500048,"velocity":0.84251968503937,"duration":0.09722218333334354},{"name":"G#3","midi":56,"time":139.99994400000048,"velocity":0.84251968503937,"duration":0.1909721458333422},{"name":"C#4","midi":61,"time":140.2082772500005,"velocity":0.84251968503937,"duration":0.381944291666656},{"name":"A3","midi":57,"time":140.62494375000048,"velocity":0.84251968503937,"duration":0.381944291666656},{"name":"F#3","midi":54,"time":141.04161025000047,"velocity":0.84251968503937,"duration":0.4131942791666745},{"name":"A3","midi":57,"time":141.4582767500005,"velocity":0.84251968503937,"duration":0.10069440416665998},{"name":"G#3","midi":56,"time":141.5624433750005,"velocity":0.84251968503937,"duration":0.10069440416665998},{"name":"A3","midi":57,"time":141.6666100000005,"velocity":0.84251968503937,"duration":0.20486102916666482},{"name":"F#3","midi":54,"time":141.8749432500005,"velocity":0.84251968503937,"duration":0.20486102916666482},{"name":"D#3","midi":51,"time":142.08327650000052,"velocity":0.84251968503937,"duration":0.20486102916666482},{"name":"B2","midi":47,"time":142.29160975000053,"velocity":0.84251968503937,"duration":0.3993053958333235},{"name":"B3","midi":59,"time":142.70827625000052,"velocity":0.84251968503937,"duration":0.381944291666656},{"name":"G#3","midi":56,"time":143.1249427500005,"velocity":0.84251968503937,"duration":0.381944291666656},{"name":"E3","midi":52,"time":143.5416092500005,"velocity":0.84251968503937,"duration":0.4131942791666745},{"name":"G#3","midi":56,"time":143.95827575000052,"velocity":0.84251968503937,"duration":0.10069440416665998},{"name":"F#3","midi":54,"time":144.06244237500053,"velocity":0.84251968503937,"duration":0.10069440416665998},{"name":"G#3","midi":56,"time":144.16660900000053,"velocity":0.84251968503937,"duration":0.20486102916666482},{"name":"E3","midi":52,"time":144.37494225000054,"velocity":0.84251968503937,"duration":0.20486102916666482},{"name":"C#3","midi":49,"time":144.58327550000055,"velocity":0.84251968503937,"duration":0.20486102916666482},{"name":"A2","midi":45,"time":144.79160875000056,"velocity":0.84251968503937,"duration":0.3993053958333235},{"name":"A3","midi":57,"time":145.20827525000055,"velocity":0.84251968503937,"duration":0.381944291666656},{"name":"F#3","midi":54,"time":145.62494175000054,"velocity":0.84251968503937,"duration":0.381944291666656},{"name":"D#3","midi":51,"time":146.04160825000054,"velocity":0.84251968503937,"duration":0.3993053958333235},{"name":"C#4","midi":61,"time":146.45827475000053,"velocity":0.84251968503937,"duration":0.381944291666656},{"name":"B3","midi":59,"time":146.87494125000052,"velocity":0.84251968503937,"duration":0.381944291666656},{"name":"A3","midi":57,"time":147.2916077500005,"velocity":0.84251968503937,"duration":0.3993053958333235},{"name":"G#3","midi":56,"time":147.7082742500005,"velocity":0.84251968503937,"duration":0.381944291666656},{"name":"F#3","midi":54,"time":148.1249407500005,"velocity":0.84251968503937,"duration":0.381944291666656},{"name":"E3","midi":52,"time":148.54160725000048,"velocity":0.84251968503937,"duration":0.1909721458333422},{"name":"D#3","midi":51,"time":148.7499405000005,"velocity":0.84251968503937,"duration":0.20486102916666482},{"name":"A3","midi":57,"time":148.9582737500005,"velocity":0.84251968503937,"duration":0.10069440416665998},{"name":"G#3","midi":56,"time":149.0624403750005,"velocity":0.84251968503937,"duration":0.10069440416665998},{"name":"A3","midi":57,"time":149.1666070000005,"velocity":0.84251968503937,"duration":0.20486102916666482},{"name":"D#3","midi":51,"time":149.37494025000052,"velocity":0.84251968503937,"duration":0.10069440416665998},{"name":"C#3","midi":49,"time":149.47910687500053,"velocity":0.84251968503937,"duration":0.10069440416665998},{"name":"D#3","midi":51,"time":149.58327350000053,"velocity":0.84251968503937,"duration":0.20486102916666482},{"name":"G#3","midi":56,"time":149.79160675000054,"velocity":0.84251968503937,"duration":0.10069440416665998},{"name":"F#3","midi":54,"time":149.89577337500054,"velocity":0.84251968503937,"duration":0.10069440416665998},{"name":"G#3","midi":56,"time":149.99994000000055,"velocity":0.84251968503937,"duration":0.381944291666656},{"name":"A3","midi":57,"time":150.41660650000054,"velocity":0.84251968503937,"duration":0.381944291666656},{"name":"B3","midi":59,"time":150.83327300000053,"velocity":0.84251968503937,"duration":0.381944291666656},{"name":"E3","midi":52,"time":151.24993950000052,"velocity":0.84251968503937,"duration":0.5763886583333431},{"name":"E4","midi":64,"time":151.87493925000052,"velocity":0.84251968503937,"duration":0.1909721458333422},{"name":"B3","midi":59,"time":152.08327250000053,"velocity":0.84251968503937,"duration":0.1909721458333422},{"name":"G#3","midi":56,"time":152.29160575000054,"velocity":0.84251968503937,"duration":0.1909721458333422},{"name":"E3","midi":52,"time":152.49993900000055,"velocity":0.84251968503937,"duration":0.1909721458333422},{"name":"B3","midi":59,"time":152.70827225000056,"velocity":0.84251968503937,"duration":0.1909721458333422},{"name":"G#3","midi":56,"time":152.91660550000057,"velocity":0.84251968503937,"duration":0.1909721458333422},{"name":"E3","midi":52,"time":153.12493875000058,"velocity":0.84251968503937,"duration":0.1909721458333422},{"name":"B2","midi":47,"time":153.3332720000006,"velocity":0.84251968503937,"duration":0.1909721458333422},{"name":"G#2","midi":44,"time":153.5416052500006,"velocity":0.84251968503937,"duration":0.1909721458333422},{"name":"E2","midi":40,"time":153.7499385000006,"velocity":0.84251968503937,"duration":0.7673608041666569},{"name":"E3","midi":52,"time":154.5832715000006,"velocity":0.84251968503937,"duration":1.0833328999999878}],"controlChanges":{"7":[{"number":7,"time":0,"value":0.7874015748031497}],"10":[{"number":10,"time":0,"value":0.3779527559055118}]},"id":2,"name":"Harpsichord LH","instrumentNumber":6,"instrument":"harpsichord","instrumentFamily":"piano","channelNumber":0,"isPercussion":false}]}