{"header":{"PPQ":384,"timeSignature":[4,4],"bpm":120,"name":"--------"},"startTime":0,"duration":271.71223958333667,"tracks":[{"startTime":0,"duration":0,"length":0,"notes":[],"controlChanges":{},"id":0,"name":"--------"},{"startTime":0.125,"duration":271.71223958333667,"length":1859,"notes":[{"name":"C5","midi":72,"time":0.125,"velocity":0.7244094488188977,"duration":0.6302083333333334},{"name":"F5","midi":77,"time":0.7838541666666667,"velocity":0.7244094488188977,"duration":0.12369791666666663},{"name":"E5","midi":76,"time":0.9010416666666667,"velocity":0.7244094488188977,"duration":0.125},{"name":"F5","midi":77,"time":1.0169270833333335,"velocity":0.7244094488188977,"duration":0.4166666666666665},{"name":"C5","midi":72,"time":1.4440104166666667,"velocity":0.7244094488188977,"duration":0.6575520833333333},{"name":"F3","midi":53,"time":2.1028645833333335,"velocity":0.7244094488188977,"duration":0.6588541666666665},{"name":"C5","midi":72,"time":2.1028645833333335,"velocity":0.7244094488188977,"duration":0.3697916666666665},{"name":"D5","midi":74,"time":2.484375,"velocity":0.7244094488188977,"duration":0.09765625},{"name":"C5","midi":72,"time":2.5794270833333335,"velocity":0.7244094488188977,"duration":0.08072916666666652},{"name":"D5","midi":74,"time":2.6809895833333335,"velocity":0.7244094488188977,"duration":0.39453125},{"name":"A#3","midi":58,"time":2.7630208333333335,"velocity":0.7244094488188977,"duration":0.6575520833333335},{"name":"C5","midi":72,"time":3.092447916666667,"velocity":0.7244094488188977,"duration":0.328125},{"name":"F3","midi":53,"time":3.4218750000000004,"velocity":0.7244094488188977,"duration":0.6562500000000004},{"name":"D5","midi":74,"time":3.4218750000000004,"velocity":0.7244094488188977,"duration":0.14583333333333348},{"name":"C5","midi":72,"time":3.5690104166666674,"velocity":0.7244094488188977,"duration":0.14583333333333348},{"name":"D5","midi":74,"time":3.7161458333333344,"velocity":0.7244094488188977,"duration":0.1796875},{"name":"D#5","midi":75,"time":3.902343750000001,"velocity":0.7244094488188977,"duration":0.16536458333333304},{"name":"A3","midi":57,"time":4.079427083333334,"velocity":0.7244094488188977,"duration":1.3138020833333321},{"name":"D5","midi":74,"time":4.079427083333334,"velocity":0.7244094488188977,"duration":0.08072916666666696},{"name":"C4","midi":60,"time":4.079427083333334,"velocity":0.7244094488188977,"duration":0.649739583333333},{"name":"C5","midi":72,"time":4.161458333333334,"velocity":0.7244094488188977,"duration":0.08072916666666696},{"name":"D5","midi":74,"time":4.243489583333334,"velocity":0.7244094488188977,"duration":0.08072916666666696},{"name":"C5","midi":72,"time":4.325520833333334,"velocity":0.7244094488188977,"duration":0.08072916666666696},{"name":"D5","midi":74,"time":4.407552083333334,"velocity":0.7244094488188977,"duration":0.08072916666666696},{"name":"C5","midi":72,"time":4.489583333333334,"velocity":0.7244094488188977,"duration":0.08072916666666696},{"name":"D5","midi":74,"time":4.571614583333334,"velocity":0.7244094488188977,"duration":0.08072916666666696},{"name":"C5","midi":72,"time":4.653645833333334,"velocity":0.7244094488188977,"duration":0.08072916666666607},{"name":"F4","midi":65,"time":4.735677083333333,"velocity":0.7244094488188977,"duration":0.65234375},{"name":"D5","midi":74,"time":4.735677083333333,"velocity":0.7244094488188977,"duration":0.08072916666666696},{"name":"C5","midi":72,"time":4.817708333333333,"velocity":0.7244094488188977,"duration":0.24609375},{"name":"A#4","midi":70,"time":5.065104166666666,"velocity":0.7244094488188977,"duration":0.328125},{"name":"A3","midi":57,"time":5.394531249999999,"velocity":0.7244094488188977,"duration":0.657552083333333},{"name":"C4","midi":60,"time":5.394531249999999,"velocity":0.7244094488188977,"duration":0.65234375},{"name":"C5","midi":72,"time":5.394531249999999,"velocity":0.7244094488188977,"duration":0.08984375},{"name":"A#4","midi":70,"time":5.483072916666666,"velocity":0.7244094488188977,"duration":0.08984375},{"name":"C5","midi":72,"time":5.572916666666666,"velocity":0.7244094488188977,"duration":0.1875},{"name":"D5","midi":74,"time":5.760416666666666,"velocity":0.7244094488188977,"duration":0.2877604166666661},{"name":"G3","midi":55,"time":6.053385416666665,"velocity":0.7244094488188977,"duration":0.6549479166666661},{"name":"C5","midi":72,"time":6.053385416666665,"velocity":0.7244094488188977,"duration":0.16276041666666696},{"name":"D4","midi":62,"time":6.053385416666665,"velocity":0.7244094488188977,"duration":0.649739583333333},{"name":"A#4","midi":70,"time":6.217447916666665,"velocity":0.7244094488188977,"duration":0.08072916666666696},{"name":"C5","midi":72,"time":6.299479166666665,"velocity":0.7244094488188977,"duration":0.08072916666666696},{"name":"A#4","midi":70,"time":6.381510416666665,"velocity":0.7244094488188977,"duration":0.08072916666666696},{"name":"C5","midi":72,"time":6.463541666666665,"velocity":0.7244094488188977,"duration":0.08072916666666696},{"name":"A#4","midi":70,"time":6.545572916666665,"velocity":0.7244094488188977,"duration":0.08072916666666696},{"name":"C5","midi":72,"time":6.627604166666665,"velocity":0.7244094488188977,"duration":0.08072916666666607},{"name":"C4","midi":60,"time":6.709635416666664,"velocity":0.7244094488188977,"duration":0.658854166666667},{"name":"E4","midi":64,"time":6.709635416666664,"velocity":0.7244094488188977,"duration":1.31640625},{"name":"A#4","midi":70,"time":6.709635416666664,"velocity":0.7244094488188977,"duration":0.32682291666666696},{"name":"A4","midi":69,"time":7.040364583333331,"velocity":0.7244094488188977,"duration":0.328125},{"name":"C3","midi":48,"time":7.369791666666664,"velocity":0.7244094488188977,"duration":0.65625},{"name":"A#4","midi":70,"time":7.369791666666664,"velocity":0.7244094488188977,"duration":0.08072916666666696},{"name":"A4","midi":69,"time":7.451822916666664,"velocity":0.7244094488188977,"duration":0.08072916666666696},{"name":"A#4","midi":70,"time":7.533854166666664,"velocity":0.7244094488188977,"duration":0.16276041666666696},{"name":"C5","midi":72,"time":7.697916666666664,"velocity":0.7244094488188977,"duration":0.328125},{"name":"F3","midi":53,"time":8.027343749999998,"velocity":0.7244094488188977,"duration":3.291666666666666},{"name":"C4","midi":60,"time":8.027343749999998,"velocity":0.7244094488188977,"duration":0.6549479166666643},{"name":"A#4","midi":70,"time":8.027343749999998,"velocity":0.7244094488188977,"duration":0.06901041666666607},{"name":"A4","midi":69,"time":8.096354166666664,"velocity":0.7244094488188977,"duration":0.06901041666666607},{"name":"A#4","midi":70,"time":8.16536458333333,"velocity":0.7244094488188977,"duration":0.06901041666666607},{"name":"A4","midi":69,"time":8.234374999999996,"velocity":0.7244094488188977,"duration":0.06901041666666607},{"name":"A#4","midi":70,"time":8.303385416666663,"velocity":0.7244094488188977,"duration":0.06901041666666607},{"name":"A4","midi":69,"time":8.376302083333329,"velocity":0.7244094488188977,"duration":0.2890625},{"name":"F4","midi":65,"time":8.688802083333329,"velocity":0.7244094488188977,"duration":0.6575520833333339},{"name":"A3","midi":57,"time":9.347656249999996,"velocity":0.7244094488188977,"duration":0.6575520833333339},{"name":"F4","midi":65,"time":9.347656249999996,"velocity":0.7244094488188977,"duration":0.6575520833333339},{"name":"C4","midi":60,"time":10.006510416666664,"velocity":0.7244094488188977,"duration":0.08072916666666607},{"name":"D5","midi":74,"time":10.006510416666664,"velocity":0.7244094488188977,"duration":0.6549479166666661},{"name":"G4","midi":67,"time":10.006510416666664,"velocity":0.7244094488188977,"duration":1.311197916666666},{"name":"B3","midi":59,"time":10.088541666666664,"velocity":0.7244094488188977,"duration":0.08072916666666607},{"name":"C4","midi":60,"time":10.170572916666664,"velocity":0.7244094488188977,"duration":0.08072916666666607},{"name":"B3","midi":59,"time":10.252604166666664,"velocity":0.7244094488188977,"duration":0.08072916666666607},{"name":"C4","midi":60,"time":10.334635416666664,"velocity":0.7244094488188977,"duration":0.08072916666666607},{"name":"B3","midi":59,"time":10.416666666666664,"velocity":0.7244094488188977,"duration":0.08072916666666607},{"name":"C4","midi":60,"time":10.498697916666664,"velocity":0.7244094488188977,"duration":0.08072916666666607},{"name":"B3","midi":59,"time":10.580729166666664,"velocity":0.7244094488188977,"duration":0.08072916666666607},{"name":"C4","midi":60,"time":10.662760416666664,"velocity":0.7244094488188977,"duration":0.08072916666666607},{"name":"G5","midi":79,"time":10.662760416666664,"velocity":0.7244094488188977,"duration":0.6549479166666661},{"name":"B3","midi":59,"time":10.744791666666664,"velocity":0.7244094488188977,"duration":0.08072916666666607},{"name":"C4","midi":60,"time":10.826822916666664,"velocity":0.7244094488188977,"duration":0.08072916666666607},{"name":"B3","midi":59,"time":10.908854166666664,"velocity":0.7244094488188977,"duration":0.08072916666666607},{"name":"C4","midi":60,"time":10.990885416666664,"velocity":0.7244094488188977,"duration":0.08072916666666607},{"name":"B3","midi":59,"time":11.072916666666664,"velocity":0.7244094488188977,"duration":0.08072916666666607},{"name":"C4","midi":60,"time":11.154947916666664,"velocity":0.7244094488188977,"duration":0.08072916666666607},{"name":"B3","midi":59,"time":11.236979166666664,"velocity":0.7244094488188977,"duration":0.08072916666666607},{"name":"C4","midi":60,"time":11.319010416666664,"velocity":0.7244094488188977,"duration":0.65625},{"name":"E3","midi":52,"time":11.319010416666664,"velocity":0.7244094488188977,"duration":0.65625},{"name":"G4","midi":67,"time":11.319010416666664,"velocity":0.7244094488188977,"duration":0.08072916666666607},{"name":"F4","midi":65,"time":11.401041666666664,"velocity":0.7244094488188977,"duration":0.08072916666666607},{"name":"G4","midi":67,"time":11.483072916666664,"velocity":0.7244094488188977,"duration":0.4921875},{"name":"F3","midi":53,"time":11.976562499999998,"velocity":0.7244094488188977,"duration":1.973958333333334},{"name":"G4","midi":67,"time":11.976562499999998,"velocity":0.7244094488188977,"duration":0.65234375},{"name":"A3","midi":57,"time":12.305989583333332,"velocity":0.7244094488188977,"duration":0.328125},{"name":"A4","midi":69,"time":12.305989583333332,"velocity":0.7244094488188977,"duration":0.65234375},{"name":"D4","midi":62,"time":12.635416666666666,"velocity":0.7244094488188977,"duration":1.31640625},{"name":"F4","midi":65,"time":12.635416666666666,"velocity":0.7244094488188977,"duration":1.31640625},{"name":"D5","midi":74,"time":12.964843749999998,"velocity":0.7244094488188977,"duration":0.328125},{"name":"A4","midi":69,"time":13.294270833333332,"velocity":0.7244094488188977,"duration":0.328125},{"name":"B4","midi":71,"time":13.623697916666666,"velocity":0.7244094488188977,"duration":0.328125},{"name":"C4","midi":60,"time":13.953125,"velocity":0.7244094488188977,"duration":0.6575520833333339},{"name":"A3","midi":57,"time":13.953125,"velocity":0.7244094488188977,"duration":0.6575520833333339},{"name":"F#4","midi":66,"time":13.953125,"velocity":0.7244094488188977,"duration":0.6575520833333339},{"name":"C5","midi":72,"time":13.953125,"velocity":0.7244094488188977,"duration":0.6575520833333339},{"name":"G3","midi":55,"time":14.611979166666668,"velocity":0.7244094488188977,"duration":0.6549479166666661},{"name":"D4","midi":62,"time":14.611979166666668,"velocity":0.7244094488188977,"duration":0.6549479166666661},{"name":"G4","midi":67,"time":14.611979166666668,"velocity":0.7244094488188977,"duration":1.313802083333334},{"name":"D5","midi":74,"time":14.611979166666668,"velocity":0.7244094488188977,"duration":0.16276041666666607},{"name":"C5","midi":72,"time":14.776041666666668,"velocity":0.7244094488188977,"duration":0.08072916666666607},{"name":"D5","midi":74,"time":14.858072916666668,"velocity":0.7244094488188977,"duration":0.08072916666666607},{"name":"C5","midi":72,"time":14.940104166666668,"velocity":0.7244094488188977,"duration":0.08072916666666607},{"name":"D5","midi":74,"time":15.022135416666668,"velocity":0.7244094488188977,"duration":0.08072916666666607},{"name":"C5","midi":72,"time":15.104166666666668,"velocity":0.7244094488188977,"duration":0.08072916666666607},{"name":"D5","midi":74,"time":15.186197916666668,"velocity":0.7244094488188977,"duration":0.08072916666666607},{"name":"G2","midi":43,"time":15.268229166666668,"velocity":0.7244094488188977,"duration":0.6575520833333339},{"name":"C5","midi":72,"time":15.268229166666668,"velocity":0.7244094488188977,"duration":0.33463541666666785},{"name":"B4","midi":71,"time":15.597656250000002,"velocity":0.7244094488188977,"duration":0.328125},{"name":"C3","midi":48,"time":15.927083333333336,"velocity":0.7244094488188977,"duration":0.9856770833333321},{"name":"G3","midi":55,"time":15.927083333333336,"velocity":0.7244094488188977,"duration":0.65625},{"name":"C5","midi":72,"time":15.927083333333336,"velocity":0.7244094488188977,"duration":0.08072916666666785},{"name":"E4","midi":64,"time":15.927083333333336,"velocity":0.7244094488188977,"duration":1.3151041666666643},{"name":"B4","midi":71,"time":16.009114583333336,"velocity":0.7244094488188977,"duration":0.08072916666666785},{"name":"C5","midi":72,"time":16.091145833333336,"velocity":0.7244094488188977,"duration":1.1497395833333321},{"name":"C4","midi":60,"time":16.584635416666668,"velocity":0.7244094488188977,"duration":0.65234375},{"name":"D3","midi":50,"time":16.9140625,"velocity":0.7244094488188977,"duration":0.328125},{"name":"E3","midi":52,"time":17.243489583333332,"velocity":0.7244094488188977,"duration":0.328125},{"name":"G3","midi":55,"time":17.243489583333332,"velocity":0.7244094488188977,"duration":0.65234375},{"name":"D3","midi":50,"time":17.572916666666664,"velocity":0.7244094488188977,"duration":0.328125},{"name":"C3","midi":48,"time":17.902343749999996,"velocity":0.7244094488188977,"duration":0.65234375},{"name":"A3","midi":57,"time":17.902343749999996,"velocity":0.7244094488188977,"duration":0.13802083333333215},{"name":"G3","midi":55,"time":18.031249999999996,"velocity":0.7244094488188977,"duration":0.13411458333333215},{"name":"A3","midi":57,"time":18.160156249999996,"velocity":0.7244094488188977,"duration":0.7395833333333321},{"name":"F3","midi":53,"time":18.561197916666664,"velocity":0.7244094488188977,"duration":0.6523437499999964},{"name":"G3","midi":55,"time":18.890624999999996,"velocity":0.7244094488188977,"duration":0.32812499999999645},{"name":"A2","midi":45,"time":19.220052083333325,"velocity":0.7244094488188977,"duration":0.6510416666666643},{"name":"A3","midi":57,"time":19.220052083333325,"velocity":0.7244094488188977,"duration":0.13671875},{"name":"G3","midi":55,"time":19.356770833333325,"velocity":0.7244094488188977,"duration":0.13671875},{"name":"A3","midi":57,"time":19.493489583333325,"velocity":0.7244094488188977,"duration":0.16015625},{"name":"A#3","midi":58,"time":19.670572916666657,"velocity":0.7244094488188977,"duration":0.2109375},{"name":"A3","midi":57,"time":19.877604166666657,"velocity":0.7244094488188977,"duration":0.08072916666666785},{"name":"B2","midi":47,"time":19.877604166666657,"velocity":0.7244094488188977,"duration":0.6497395833333321},{"name":"G3","midi":55,"time":19.959635416666657,"velocity":0.7244094488188977,"duration":0.08072916666666785},{"name":"A3","midi":57,"time":20.041666666666657,"velocity":0.7244094488188977,"duration":0.08072916666666785},{"name":"G3","midi":55,"time":20.123697916666657,"velocity":0.7244094488188977,"duration":0.08072916666666785},{"name":"A3","midi":57,"time":20.205729166666657,"velocity":0.7244094488188977,"duration":0.08072916666666785},{"name":"G3","midi":55,"time":20.287760416666657,"velocity":0.7244094488188977,"duration":0.08072916666666785},{"name":"A3","midi":57,"time":20.369791666666657,"velocity":0.7244094488188977,"duration":0.08072916666666785},{"name":"G3","midi":55,"time":20.451822916666657,"velocity":0.7244094488188977,"duration":0.40625},{"name":"C#3","midi":49,"time":20.533854166666657,"velocity":0.7244094488188977,"duration":0.65234375},{"name":"F3","midi":53,"time":20.86328124999999,"velocity":0.7244094488188977,"duration":0.328125},{"name":"A2","midi":45,"time":21.19270833333332,"velocity":0.7244094488188977,"duration":0.6497395833333357},{"name":"G3","midi":55,"time":21.19270833333332,"velocity":0.7244094488188977,"duration":0.13671875},{"name":"F3","midi":53,"time":21.32942708333332,"velocity":0.7244094488188977,"duration":0.13671875},{"name":"G3","midi":55,"time":21.46614583333332,"velocity":0.7244094488188977,"duration":0.16276041666666785},{"name":"A3","midi":57,"time":21.63020833333332,"velocity":0.7244094488188977,"duration":0.20572916666666785},{"name":"D3","midi":50,"time":21.848958333333325,"velocity":0.7244094488188977,"duration":0.65234375},{"name":"F3","midi":53,"time":21.848958333333325,"velocity":0.7244094488188977,"duration":0.9869791666666643},{"name":"A3","midi":57,"time":21.848958333333325,"velocity":0.7244094488188977,"duration":0.6575520833333321},{"name":"D4","midi":62,"time":22.50781249999999,"velocity":0.7244094488188977,"duration":0.6575520833333321},{"name":"E3","midi":52,"time":22.83723958333332,"velocity":0.7244094488188977,"duration":0.328125},{"name":"F3","midi":53,"time":23.166666666666654,"velocity":0.7244094488188977,"duration":0.328125},{"name":"D3","midi":50,"time":23.166666666666654,"velocity":0.7244094488188977,"duration":0.65234375},{"name":"A3","midi":57,"time":23.166666666666654,"velocity":0.7244094488188977,"duration":0.6575520833333321},{"name":"G3","midi":55,"time":23.496093749999986,"velocity":0.7244094488188977,"duration":0.328125},{"name":"A2","midi":45,"time":23.825520833333318,"velocity":0.7244094488188977,"duration":0.65625},{"name":"E3","midi":52,"time":23.825520833333318,"velocity":0.7244094488188977,"duration":0.65625},{"name":"C4","midi":60,"time":23.825520833333318,"velocity":0.7244094488188977,"duration":0.13671875},{"name":"B3","midi":59,"time":23.962239583333318,"velocity":0.7244094488188977,"duration":0.13671875},{"name":"C4","midi":60,"time":24.098958333333318,"velocity":0.7244094488188977,"duration":0.7200520833333321},{"name":"F#3","midi":54,"time":24.48307291666665,"velocity":0.7244094488188977,"duration":1.31640625},{"name":"D3","midi":50,"time":24.48307291666665,"velocity":0.7244094488188977,"duration":0.6575520833333321},{"name":"B3","midi":59,"time":24.812499999999982,"velocity":0.7244094488188977,"duration":0.328125},{"name":"D2","midi":38,"time":25.141927083333314,"velocity":0.7244094488188977,"duration":0.6575520833333357},{"name":"C4","midi":60,"time":25.141927083333314,"velocity":0.7244094488188977,"duration":0.11979166666666785},{"name":"B3","midi":59,"time":25.270833333333314,"velocity":0.7244094488188977,"duration":0.11979166666666785},{"name":"C4","midi":60,"time":25.399739583333314,"velocity":0.7244094488188977,"duration":0.18229166666666785},{"name":"D4","midi":62,"time":25.583333333333314,"velocity":0.7244094488188977,"duration":0.19401041666666785},{"name":"G2","midi":43,"time":25.800781249999982,"velocity":0.7244094488188977,"duration":0.6497395833333321},{"name":"G3","midi":55,"time":25.800781249999982,"velocity":0.7244094488188977,"duration":0.32682291666666785},{"name":"C4","midi":60,"time":25.800781249999982,"velocity":0.7244094488188977,"duration":0.08072916666666785},{"name":"B3","midi":59,"time":25.882812499999982,"velocity":0.7244094488188977,"duration":0.08072916666666785},{"name":"C4","midi":60,"time":25.964843749999982,"velocity":0.7244094488188977,"duration":0.08072916666666785},{"name":"B3","midi":59,"time":26.046874999999982,"velocity":0.7244094488188977,"duration":0.08072916666666785},{"name":"F3","midi":53,"time":26.128906249999982,"velocity":0.7244094488188977,"duration":0.3268229166666643},{"name":"C4","midi":60,"time":26.128906249999982,"velocity":0.7244094488188977,"duration":0.08072916666666785},{"name":"B3","midi":59,"time":26.210937499999982,"velocity":0.7244094488188977,"duration":0.08072916666666785},{"name":"C4","midi":60,"time":26.292968749999982,"velocity":0.7244094488188977,"duration":0.08072916666666785},{"name":"B3","midi":59,"time":26.374999999999982,"velocity":0.7244094488188977,"duration":0.0807291666666643},{"name":"E3","midi":52,"time":26.45703124999998,"velocity":0.7244094488188977,"duration":0.328125},{"name":"G4","midi":67,"time":26.45703124999998,"velocity":0.7244094488188977,"duration":0.6575520833333321},{"name":"D3","midi":50,"time":26.78645833333331,"velocity":0.7244094488188977,"duration":0.328125},{"name":"D3","midi":50,"time":27.115885416666643,"velocity":0.7244094488188977,"duration":0.08072916666666785},{"name":"D4","midi":62,"time":27.115885416666643,"velocity":0.7244094488188977,"duration":0.65625},{"name":"C3","midi":48,"time":27.197916666666643,"velocity":0.7244094488188977,"duration":0.08072916666666785},{"name":"D3","midi":50,"time":27.279947916666643,"velocity":0.7244094488188977,"duration":0.08072916666666785},{"name":"C3","midi":48,"time":27.361979166666643,"velocity":0.7244094488188977,"duration":0.08072916666666785},{"name":"B2","midi":47,"time":27.444010416666643,"velocity":0.7244094488188977,"duration":0.328125},{"name":"C3","midi":48,"time":27.773437499999975,"velocity":0.7244094488188977,"duration":0.328125},{"name":"E4","midi":64,"time":27.773437499999975,"velocity":0.7244094488188977,"duration":0.328125},{"name":"B2","midi":47,"time":28.102864583333307,"velocity":0.7244094488188977,"duration":0.328125},{"name":"D4","midi":62,"time":28.102864583333307,"velocity":0.7244094488188977,"duration":0.328125},{"name":"C3","midi":48,"time":28.43229166666664,"velocity":0.7244094488188977,"duration":0.08072916666666785},{"name":"E4","midi":64,"time":28.43229166666664,"velocity":0.7244094488188977,"duration":0.08072916666666785},{"name":"B2","midi":47,"time":28.51432291666664,"velocity":0.7244094488188977,"duration":0.08072916666666785},{"name":"D4","midi":62,"time":28.51432291666664,"velocity":0.7244094488188977,"duration":0.08072916666666785},{"name":"C3","midi":48,"time":28.59635416666664,"velocity":0.7244094488188977,"duration":0.16276041666666785},{"name":"E4","midi":64,"time":28.59635416666664,"velocity":0.7244094488188977,"duration":0.16276041666666785},{"name":"D3","midi":50,"time":28.76041666666664,"velocity":0.7244094488188977,"duration":0.328125},{"name":"F4","midi":65,"time":28.76041666666664,"velocity":0.7244094488188977,"duration":0.328125},{"name":"E3","midi":52,"time":29.08984374999997,"velocity":0.7244094488188977,"duration":0.328125},{"name":"G4","midi":67,"time":29.08984374999997,"velocity":0.7244094488188977,"duration":0.328125},{"name":"F3","midi":53,"time":29.419270833333304,"velocity":0.7244094488188977,"duration":0.328125},{"name":"A4","midi":69,"time":29.419270833333304,"velocity":0.7244094488188977,"duration":0.328125},{"name":"G3","midi":55,"time":29.748697916666636,"velocity":0.7244094488188977,"duration":0.6575520833333321},{"name":"B4","midi":71,"time":29.748697916666636,"velocity":0.7244094488188977,"duration":0.328125},{"name":"D4","midi":62,"time":29.748697916666636,"velocity":0.7244094488188977,"duration":0.65234375},{"name":"A4","midi":69,"time":30.078124999999968,"velocity":0.7244094488188977,"duration":0.328125},{"name":"B3","midi":59,"time":30.4075520833333,"velocity":0.7244094488188977,"duration":0.6575520833333321},{"name":"B4","midi":71,"time":30.4075520833333,"velocity":0.7244094488188977,"duration":0.10286458333333215},{"name":"G4","midi":67,"time":30.4075520833333,"velocity":0.7244094488188977,"duration":0.65234375},{"name":"A4","midi":69,"time":30.510416666666632,"velocity":0.7244094488188977,"duration":0.10286458333333215},{"name":"B4","midi":71,"time":30.613281249999964,"velocity":0.7244094488188977,"duration":0.1302083333333357},{"name":"D5","midi":74,"time":30.736979166666632,"velocity":0.7244094488188977,"duration":0.328125},{"name":"C4","midi":60,"time":31.066406249999964,"velocity":0.7244094488188977,"duration":0.65625},{"name":"C5","midi":72,"time":31.066406249999964,"velocity":0.7244094488188977,"duration":0.08072916666666785},{"name":"E4","midi":64,"time":31.066406249999964,"velocity":0.7244094488188977,"duration":0.6510416666666679},{"name":"B4","midi":71,"time":31.148437499999964,"velocity":0.7244094488188977,"duration":0.08072916666666785},{"name":"C5","midi":72,"time":31.230468749999964,"velocity":0.7244094488188977,"duration":0.16276041666666785},{"name":"B4","midi":71,"time":31.394531249999964,"velocity":0.7244094488188977,"duration":0.328125},{"name":"D4","midi":62,"time":31.723958333333297,"velocity":0.7244094488188977,"duration":0.6575520833333393},{"name":"A4","midi":69,"time":31.723958333333297,"velocity":0.7244094488188977,"duration":0.32812500000000355},{"name":"F4","midi":65,"time":31.723958333333297,"velocity":0.7244094488188977,"duration":1.9726562500000107},{"name":"G4","midi":67,"time":32.053385416666636,"velocity":0.7244094488188977,"duration":0.328125},{"name":"A3","midi":57,"time":32.38281249999997,"velocity":0.7244094488188977,"duration":0.6575520833333357},{"name":"A4","midi":69,"time":32.38281249999997,"velocity":0.7244094488188977,"duration":0.328125},{"name":"C5","midi":72,"time":32.71223958333331,"velocity":0.7244094488188977,"duration":0.328125},{"name":"D4","midi":62,"time":33.04166666666664,"velocity":0.7244094488188977,"duration":1.3151041666666714},{"name":"B4","midi":71,"time":33.04166666666664,"velocity":0.7244094488188977,"duration":0.0807291666666643},{"name":"A4","midi":69,"time":33.12369791666664,"velocity":0.7244094488188977,"duration":0.0807291666666643},{"name":"B4","midi":71,"time":33.20572916666664,"velocity":0.7244094488188977,"duration":0.1627604166666643},{"name":"A4","midi":69,"time":33.36979166666664,"velocity":0.7244094488188977,"duration":0.328125},{"name":"G4","midi":67,"time":33.69921874999998,"velocity":0.7244094488188977,"duration":0.328125},{"name":"E4","midi":64,"time":33.69921874999998,"velocity":0.7244094488188977,"duration":1.9739583333333428},{"name":"F4","midi":65,"time":34.028645833333314,"velocity":0.7244094488188977,"duration":0.328125},{"name":"C#4","midi":61,"time":34.35807291666665,"velocity":0.7244094488188977,"duration":0.6575520833333357},{"name":"G4","midi":67,"time":34.35807291666665,"velocity":0.7244094488188977,"duration":0.328125},{"name":"A#4","midi":70,"time":34.687499999999986,"velocity":0.7244094488188977,"duration":0.328125},{"name":"A3","midi":57,"time":35.01692708333332,"velocity":0.7244094488188977,"duration":0.6575520833333357},{"name":"A#4","midi":70,"time":35.01692708333332,"velocity":0.7244094488188977,"duration":0.1028645833333357},{"name":"A4","midi":69,"time":35.11588541666666,"velocity":0.7244094488188977,"duration":0.1041666666666643},{"name":"A#4","midi":70,"time":35.21614583333332,"velocity":0.7244094488188977,"duration":0.1041666666666643},{"name":"A4","midi":69,"time":35.316406249999986,"velocity":0.7244094488188977,"duration":0.1028645833333357},{"name":"G4","midi":67,"time":35.42057291666666,"velocity":0.7244094488188977,"duration":0.24609375},{"name":"D4","midi":62,"time":35.67578124999999,"velocity":0.7244094488188977,"duration":0.328125},{"name":"A4","midi":69,"time":35.67578124999999,"velocity":0.7244094488188977,"duration":0.6575520833333357},{"name":"F4","midi":65,"time":35.67578124999999,"velocity":0.7244094488188977,"duration":0.6575520833333357},{"name":"C#4","midi":61,"time":36.00520833333333,"velocity":0.7244094488188977,"duration":0.328125},{"name":"D4","midi":62,"time":36.334635416666664,"velocity":0.7244094488188977,"duration":0.328125},{"name":"D5","midi":74,"time":36.334635416666664,"velocity":0.7244094488188977,"duration":0.6575520833333357},{"name":"E4","midi":64,"time":36.6640625,"velocity":0.7244094488188977,"duration":0.328125},{"name":"F#4","midi":66,"time":36.993489583333336,"velocity":0.7244094488188977,"duration":0.328125},{"name":"A4","midi":69,"time":36.993489583333336,"velocity":0.7244094488188977,"duration":0.6575520833333357},{"name":"D4","midi":62,"time":37.32291666666667,"velocity":0.7244094488188977,"duration":0.328125},{"name":"G4","midi":67,"time":37.65234375000001,"velocity":0.7244094488188977,"duration":0.6575520833333357},{"name":"A#4","midi":70,"time":37.65234375000001,"velocity":0.7244094488188977,"duration":0.328125},{"name":"D5","midi":74,"time":37.65234375000001,"velocity":0.7244094488188977,"duration":0.65234375},{"name":"A4","midi":69,"time":37.98177083333334,"velocity":0.7244094488188977,"duration":0.328125},{"name":"D#4","midi":63,"time":38.31119791666668,"velocity":0.7244094488188977,"duration":0.6562500000000071},{"name":"A#4","midi":70,"time":38.31119791666668,"velocity":0.7244094488188977,"duration":0.3255208333333357},{"name":"G5","midi":79,"time":38.31119791666668,"velocity":0.7244094488188977,"duration":0.1041666666666714},{"name":"F5","midi":77,"time":38.414062500000014,"velocity":0.7244094488188977,"duration":0.1028645833333357},{"name":"G5","midi":79,"time":38.51692708333335,"velocity":0.7244094488188977,"duration":0.4205729166666643},{"name":"G4","midi":67,"time":38.640625000000014,"velocity":0.7244094488188977,"duration":0.3255208333333357},{"name":"F4","midi":65,"time":38.96875000000002,"velocity":0.7244094488188977,"duration":0.6549479166666785},{"name":"A4","midi":69,"time":38.96875000000002,"velocity":0.7244094488188977,"duration":0.3255208333333357},{"name":"D#5","midi":75,"time":38.96875000000002,"velocity":0.7244094488188977,"duration":0.0807291666666643},{"name":"D5","midi":74,"time":39.05078125000002,"velocity":0.7244094488188977,"duration":0.0807291666666643},{"name":"D#5","midi":75,"time":39.13281250000002,"velocity":0.7244094488188977,"duration":0.0807291666666643},{"name":"D5","midi":74,"time":39.21484375000002,"velocity":0.7244094488188977,"duration":0.0807291666666714},{"name":"B4","midi":71,"time":39.29687500000003,"velocity":0.7244094488188977,"duration":0.3255208333333357},{"name":"D#5","midi":75,"time":39.29687500000003,"velocity":0.7244094488188977,"duration":0.0807291666666643},{"name":"D5","midi":74,"time":39.37890625000003,"velocity":0.7244094488188977,"duration":0.0807291666666643},{"name":"C5","midi":72,"time":39.46093750000003,"velocity":0.7244094488188977,"duration":0.0807291666666643},{"name":"D5","midi":74,"time":39.54296875000003,"velocity":0.7244094488188977,"duration":0.0807291666666714},{"name":"C4","midi":60,"time":39.625000000000036,"velocity":0.7244094488188977,"duration":0.3268229166666643},{"name":"C5","midi":72,"time":39.625000000000036,"velocity":0.7244094488188977,"duration":0.6510416666666643},{"name":"D#5","midi":75,"time":39.625000000000036,"velocity":0.7244094488188977,"duration":0.0807291666666643},{"name":"D5","midi":74,"time":39.707031250000036,"velocity":0.7244094488188977,"duration":0.0807291666666643},{"name":"D#5","midi":75,"time":39.789062500000036,"velocity":0.7244094488188977,"duration":0.8229166666666714},{"name":"D4","midi":62,"time":39.953125000000036,"velocity":0.7244094488188977,"duration":0.328125},{"name":"D#4","midi":63,"time":40.28255208333337,"velocity":0.7244094488188977,"duration":0.328125},{"name":"G4","midi":67,"time":40.28255208333337,"velocity":0.7244094488188977,"duration":0.65234375},{"name":"C4","midi":60,"time":40.61197916666671,"velocity":0.7244094488188977,"duration":0.328125},{"name":"D5","midi":74,"time":40.61197916666671,"velocity":0.7244094488188977,"duration":0.328125},{"name":"D#4","midi":63,"time":40.94140625000004,"velocity":0.7244094488188977,"duration":0.328125},{"name":"C5","midi":72,"time":40.94140625000004,"velocity":0.7244094488188977,"duration":0.8919270833333357},{"name":"F4","midi":65,"time":41.27083333333338,"velocity":0.7244094488188977,"duration":0.328125},{"name":"G4","midi":67,"time":41.600260416666714,"velocity":0.7244094488188977,"duration":0.6523437499999929},{"name":"D5","midi":74,"time":41.92968750000004,"velocity":0.7244094488188977,"duration":0.328125},{"name":"D4","midi":62,"time":42.25911458333338,"velocity":0.7244094488188977,"duration":0.6510416666666643},{"name":"C5","midi":72,"time":42.25911458333338,"velocity":0.7244094488188977,"duration":0.0807291666666643},{"name":"B4","midi":71,"time":42.34114583333338,"velocity":0.7244094488188977,"duration":0.0807291666666643},{"name":"C5","midi":72,"time":42.42317708333338,"velocity":0.7244094488188977,"duration":0.0807291666666643},{"name":"B4","midi":71,"time":42.50520833333338,"velocity":0.7244094488188977,"duration":0.0807291666666643},{"name":"A4","midi":69,"time":42.58723958333338,"velocity":0.7244094488188977,"duration":0.328125},{"name":"A#4","midi":70,"time":42.916666666666714,"velocity":0.7244094488188977,"duration":0.0807291666666643},{"name":"G4","midi":67,"time":42.916666666666714,"velocity":0.7244094488188977,"duration":0.6510416666666643},{"name":"A4","midi":69,"time":42.998697916666714,"velocity":0.7244094488188977,"duration":0.0807291666666643},{"name":"A#4","midi":70,"time":43.080729166666714,"velocity":0.7244094488188977,"duration":0.1627604166666643},{"name":"C5","midi":72,"time":43.244791666666714,"velocity":0.7244094488188977,"duration":0.328125},{"name":"A3","midi":57,"time":43.57421875000005,"velocity":0.7244094488188977,"duration":0.65625},{"name":"A#4","midi":70,"time":43.57421875000005,"velocity":0.7244094488188977,"duration":0.0807291666666643},{"name":"A4","midi":69,"time":43.65625000000005,"velocity":0.7244094488188977,"duration":0.0807291666666643},{"name":"A#4","midi":70,"time":43.73828125000005,"velocity":0.7244094488188977,"duration":0.0807291666666643},{"name":"A4","midi":69,"time":43.82031250000005,"velocity":0.7244094488188977,"duration":0.0807291666666643},{"name":"G4","midi":67,"time":43.90234375000005,"velocity":0.7244094488188977,"duration":0.328125},{"name":"D4","midi":62,"time":44.231770833333385,"velocity":0.7244094488188977,"duration":0.6588541666666501},{"name":"G4","midi":67,"time":44.231770833333385,"velocity":0.7244094488188977,"duration":0.0807291666666643},{"name":"F#4","midi":66,"time":44.326822916666714,"velocity":0.7244094488188977,"duration":0.0807291666666643},{"name":"G4","midi":67,"time":44.42187500000004,"velocity":0.7244094488188977,"duration":0.0807291666666643},{"name":"F#4","midi":66,"time":44.51692708333337,"velocity":0.7244094488188977,"duration":0.0807291666666643},{"name":"E4","midi":64,"time":44.59895833333337,"velocity":0.7244094488188977,"duration":0.2916666666666643},{"name":"A#3","midi":58,"time":44.89192708333337,"velocity":0.7244094488188977,"duration":0.6575520833333357},{"name":"D5","midi":74,"time":44.89192708333337,"velocity":0.7244094488188977,"duration":0.9869791666666714},{"name":"F4","midi":65,"time":44.89192708333337,"velocity":0.7244094488188977,"duration":0.328125},{"name":"G4","midi":67,"time":45.22135416666671,"velocity":0.7244094488188977,"duration":0.328125},{"name":"G3","midi":55,"time":45.55078125000004,"velocity":0.7244094488188977,"duration":0.6575520833333357},{"name":"E4","midi":64,"time":45.55078125000004,"velocity":0.7244094488188977,"duration":0.65234375},{"name":"E5","midi":76,"time":45.88020833333338,"velocity":0.7244094488188977,"duration":0.328125},{"name":"A3","midi":57,"time":46.209635416666714,"velocity":0.7244094488188977,"duration":0.65625},{"name":"D5","midi":74,"time":46.209635416666714,"velocity":0.7244094488188977,"duration":0.0807291666666643},{"name":"E4","midi":64,"time":46.209635416666714,"velocity":0.7244094488188977,"duration":0.6510416666666643},{"name":"C#5","midi":73,"time":46.291666666666714,"velocity":0.7244094488188977,"duration":0.0807291666666643},{"name":"D5","midi":74,"time":46.373697916666714,"velocity":0.7244094488188977,"duration":0.0807291666666643},{"name":"C#5","midi":73,"time":46.455729166666714,"velocity":0.7244094488188977,"duration":0.0807291666666643},{"name":"B4","midi":71,"time":46.537760416666714,"velocity":0.7244094488188977,"duration":0.328125},{"name":"C3","midi":48,"time":46.86718750000005,"velocity":0.7244094488188977,"duration":0.65625},{"name":"C5","midi":72,"time":46.86718750000005,"velocity":0.7244094488188977,"duration":0.0807291666666643},{"name":"A4","midi":69,"time":46.86718750000005,"velocity":0.7244094488188977,"duration":0.984375},{"name":"B4","midi":71,"time":46.94921875000005,"velocity":0.7244094488188977,"duration":0.0807291666666643},{"name":"C5","midi":72,"time":47.03125000000005,"velocity":0.7244094488188977,"duration":0.1627604166666643},{"name":"D5","midi":74,"time":47.19531250000005,"velocity":0.7244094488188977,"duration":0.328125},{"name":"D3","midi":50,"time":47.524739583333385,"velocity":0.7244094488188977,"duration":0.65625},{"name":"C5","midi":72,"time":47.524739583333385,"velocity":0.7244094488188977,"duration":0.0807291666666643},{"name":"A#4","midi":70,"time":47.606770833333385,"velocity":0.7244094488188977,"duration":0.0807291666666643},{"name":"C5","midi":72,"time":47.688802083333385,"velocity":0.7244094488188977,"duration":0.0807291666666643},{"name":"A#4","midi":70,"time":47.770833333333385,"velocity":0.7244094488188977,"duration":1.0651041666666714},{"name":"A4","midi":69,"time":47.852864583333385,"velocity":0.7244094488188977,"duration":0.328125},{"name":"E3","midi":52,"time":48.18229166666672,"velocity":0.7244094488188977,"duration":0.6575520833333357},{"name":"G4","midi":67,"time":48.18229166666672,"velocity":0.7244094488188977,"duration":0.328125},{"name":"F4","midi":65,"time":48.51171875000006,"velocity":0.7244094488188977,"duration":0.328125},{"name":"C3","midi":48,"time":48.84114583333339,"velocity":0.7244094488188977,"duration":0.6575520833333357},{"name":"G4","midi":67,"time":48.84114583333339,"velocity":0.7244094488188977,"duration":0.65234375},{"name":"C5","midi":72,"time":49.17057291666673,"velocity":0.7244094488188977,"duration":0.328125},{"name":"F3","midi":53,"time":49.500000000000064,"velocity":0.7244094488188977,"duration":1.3151041666666714},{"name":"C4","midi":60,"time":49.500000000000064,"velocity":0.7244094488188977,"duration":0.6575520833333357},{"name":"A4","midi":69,"time":49.500000000000064,"velocity":0.7244094488188977,"duration":1.3151041666666714},{"name":"C5","midi":72,"time":49.500000000000064,"velocity":0.7244094488188977,"duration":0.6575520833333357},{"name":"A3","midi":57,"time":50.158854166666735,"velocity":0.7244094488188977,"duration":0.65625},{"name":"F5","midi":77,"time":50.158854166666735,"velocity":0.7244094488188977,"duration":0.1536458333333357},{"name":"E5","midi":76,"time":50.295572916666735,"velocity":0.7244094488188977,"duration":0.1536458333333357},{"name":"F5","midi":77,"time":50.432291666666735,"velocity":0.7244094488188977,"duration":0.4453125},{"name":"D#4","midi":63,"time":50.81640625000007,"velocity":0.7244094488188977,"duration":0.6575520833333286},{"name":"F3","midi":53,"time":50.81640625000007,"velocity":0.7244094488188977,"duration":0.6575520833333286},{"name":"F4","midi":65,"time":50.81640625000007,"velocity":0.7244094488188977,"duration":1.31640625},{"name":"A4","midi":69,"time":50.81640625000007,"velocity":0.7244094488188977,"duration":0.6575520833333286},{"name":"G3","midi":55,"time":51.475260416666735,"velocity":0.7244094488188977,"duration":0.6575520833333357},{"name":"D4","midi":62,"time":51.475260416666735,"velocity":0.7244094488188977,"duration":0.6575520833333357},{"name":"A#4","midi":70,"time":51.475260416666735,"velocity":0.7244094488188977,"duration":0.6575520833333357},{"name":"A3","midi":57,"time":52.13411458333341,"velocity":0.7244094488188977,"duration":0.65625},{"name":"C4","midi":60,"time":52.13411458333341,"velocity":0.7244094488188977,"duration":0.65625},{"name":"C5","midi":72,"time":52.13411458333341,"velocity":0.7244094488188977,"duration":1.972656250000007},{"name":"F4","midi":65,"time":52.13411458333341,"velocity":0.7244094488188977,"duration":0.0807291666666643},{"name":"D#4","midi":63,"time":52.21614583333341,"velocity":0.7244094488188977,"duration":0.0807291666666643},{"name":"F4","midi":65,"time":52.29817708333341,"velocity":0.7244094488188977,"duration":0.0807291666666643},{"name":"D#4","midi":63,"time":52.38020833333341,"velocity":0.7244094488188977,"duration":0.0807291666666643},{"name":"D4","midi":62,"time":52.46223958333341,"velocity":0.7244094488188977,"duration":0.328125},{"name":"A3","midi":57,"time":52.79166666666674,"velocity":0.7244094488188977,"duration":0.6575520833333357},{"name":"F3","midi":53,"time":52.79166666666674,"velocity":0.7244094488188977,"duration":0.6575520833333357},{"name":"D#4","midi":63,"time":52.79166666666674,"velocity":0.7244094488188977,"duration":0.328125},{"name":"F4","midi":65,"time":53.12109375000008,"velocity":0.7244094488188977,"duration":0.328125},{"name":"A#2","midi":46,"time":53.450520833333414,"velocity":0.7244094488188977,"duration":1.972656250000007},{"name":"A#3","midi":58,"time":53.450520833333414,"velocity":0.7244094488188977,"duration":0.6575520833333357},{"name":"D4","midi":62,"time":53.450520833333414,"velocity":0.7244094488188977,"duration":1.972656250000007},{"name":"F3","midi":53,"time":54.109375000000085,"velocity":0.7244094488188977,"duration":0.6575520833333357},{"name":"A#4","midi":70,"time":54.109375000000085,"velocity":0.7244094488188977,"duration":0.328125},{"name":"C5","midi":72,"time":54.43880208333342,"velocity":0.7244094488188977,"duration":0.328125},{"name":"A#3","midi":58,"time":54.76822916666676,"velocity":0.7244094488188977,"duration":0.65625},{"name":"C5","midi":72,"time":54.76822916666676,"velocity":0.7244094488188977,"duration":0.0807291666666643},{"name":"A#4","midi":70,"time":54.85026041666676,"velocity":0.7244094488188977,"duration":0.0807291666666643},{"name":"C5","midi":72,"time":54.93229166666676,"velocity":0.7244094488188977,"duration":0.0807291666666643},{"name":"A#4","midi":70,"time":55.01432291666676,"velocity":0.7244094488188977,"duration":0.0807291666666643},{"name":"G#4","midi":68,"time":55.09635416666676,"velocity":0.7244094488188977,"duration":0.328125},{"name":"D#3","midi":51,"time":55.42578125000009,"velocity":0.7244094488188977,"duration":0.6575520833333357},{"name":"A#3","midi":58,"time":55.42578125000009,"velocity":0.7244094488188977,"duration":0.6575520833333357},{"name":"D#4","midi":63,"time":55.42578125000009,"velocity":0.7244094488188977,"duration":1.972656250000007},{"name":"G4","midi":67,"time":55.42578125000009,"velocity":0.7244094488188977,"duration":0.6575520833333357},{"name":"C3","midi":48,"time":56.084635416666764,"velocity":0.7244094488188977,"duration":1.3151041666666714},{"name":"C4","midi":60,"time":56.084635416666764,"velocity":0.7244094488188977,"duration":0.6575520833333357},{"name":"G#4","midi":68,"time":56.084635416666764,"velocity":0.7244094488188977,"duration":0.328125},{"name":"A#4","midi":70,"time":56.4140625000001,"velocity":0.7244094488188977,"duration":0.328125},{"name":"A#3","midi":58,"time":56.743489583333435,"velocity":0.7244094488188977,"duration":0.65625},{"name":"A#4","midi":70,"time":56.743489583333435,"velocity":0.7244094488188977,"duration":0.0807291666666643},{"name":"G#4","midi":68,"time":56.825520833333435,"velocity":0.7244094488188977,"duration":0.0807291666666643},{"name":"A#4","midi":70,"time":56.907552083333435,"velocity":0.7244094488188977,"duration":0.0807291666666643},{"name":"G#4","midi":68,"time":56.989583333333435,"velocity":0.7244094488188977,"duration":0.0807291666666643},{"name":"G4","midi":67,"time":57.071614583333435,"velocity":0.7244094488188977,"duration":0.328125},{"name":"C3","midi":48,"time":57.40104166666677,"velocity":0.7244094488188977,"duration":0.6575520833333357},{"name":"G#3","midi":56,"time":57.40104166666677,"velocity":0.7244094488188977,"duration":0.6575520833333357},{"name":"D4","midi":62,"time":57.40104166666677,"velocity":0.7244094488188977,"duration":1.9739583333333428},{"name":"F4","midi":65,"time":57.40104166666677,"velocity":0.7244094488188977,"duration":0.9869791666666714},{"name":"B2","midi":47,"time":58.05989583333344,"velocity":0.7244094488188977,"duration":0.6575520833333357},{"name":"G3","midi":55,"time":58.05989583333344,"velocity":0.7244094488188977,"duration":1.316406250000007},{"name":"E4","midi":64,"time":58.38932291666678,"velocity":0.7244094488188977,"duration":0.328125},{"name":"G2","midi":43,"time":58.718750000000114,"velocity":0.7244094488188977,"duration":0.6575520833333357},{"name":"F4","midi":65,"time":58.718750000000114,"velocity":0.7244094488188977,"duration":0.328125},{"name":"G4","midi":67,"time":59.04817708333345,"velocity":0.7244094488188977,"duration":0.328125},{"name":"C3","midi":48,"time":59.377604166666785,"velocity":0.7244094488188977,"duration":1.3151041666666714},{"name":"G3","midi":55,"time":59.377604166666785,"velocity":0.7244094488188977,"duration":1.3151041666666714},{"name":"E4","midi":64,"time":59.377604166666785,"velocity":0.7244094488188977,"duration":0.328125},{"name":"C4","midi":60,"time":59.377604166666785,"velocity":0.7244094488188977,"duration":0.65234375},{"name":"F4","midi":65,"time":59.70703125000012,"velocity":0.7244094488188977,"duration":0.328125},{"name":"G4","midi":67,"time":60.03645833333346,"velocity":0.7244094488188977,"duration":0.0807291666666643},{"name":"F4","midi":65,"time":60.11848958333346,"velocity":0.7244094488188977,"duration":0.0807291666666643},{"name":"G4","midi":67,"time":60.20052083333346,"velocity":0.7244094488188977,"duration":0.1627604166666643},{"name":"A4","midi":69,"time":60.36458333333346,"velocity":0.7244094488188977,"duration":0.328125},{"name":"E3","midi":52,"time":60.69401041666679,"velocity":0.7244094488188977,"duration":0.65625},{"name":"G3","midi":55,"time":60.69401041666679,"velocity":0.7244094488188977,"duration":0.65625},{"name":"A#4","midi":70,"time":60.69401041666679,"velocity":0.7244094488188977,"duration":0.0807291666666643},{"name":"C4","midi":60,"time":60.69401041666679,"velocity":0.7244094488188977,"duration":0.6510416666666643},{"name":"A4","midi":69,"time":60.77604166666679,"velocity":0.7244094488188977,"duration":0.0807291666666643},{"name":"A#4","midi":70,"time":60.85807291666679,"velocity":0.7244094488188977,"duration":0.1627604166666643},{"name":"C5","midi":72,"time":61.02213541666679,"velocity":0.7244094488188977,"duration":0.328125},{"name":"F3","midi":53,"time":61.35156250000013,"velocity":0.7244094488188977,"duration":0.696614583333357},{"name":"A#4","midi":70,"time":61.35156250000013,"velocity":0.7244094488188977,"duration":0.14453125},{"name":"C4","midi":60,"time":61.35156250000013,"velocity":0.7244094488188977,"duration":2.4609375},{"name":"A4","midi":69,"time":61.49218750000013,"velocity":0.7244094488188977,"duration":0.0911458333333357},{"name":"A#4","midi":70,"time":61.5846354166668,"velocity":0.7244094488188977,"duration":0.0911458333333357},{"name":"A4","midi":69,"time":61.67708333333347,"velocity":0.7244094488188977,"duration":0.0911458333333357},{"name":"G4","midi":67,"time":61.76953125000014,"velocity":0.7244094488188977,"duration":0.0911458333333357},{"name":"A4","midi":69,"time":61.86197916666681,"velocity":0.7244094488188977,"duration":0.0911458333333357},{"name":"A#4","midi":70,"time":61.954427083333485,"velocity":0.7244094488188977,"duration":0.0911458333333357},{"name":"A2","midi":45,"time":62.04947916666682,"velocity":0.7244094488188977,"duration":0.8815104166666572},{"name":"F3","midi":53,"time":62.04947916666682,"velocity":0.7244094488188977,"duration":1.32291666666665},{"name":"C5","midi":72,"time":62.04947916666682,"velocity":0.7244094488188977,"duration":0.1080729166666643},{"name":"A#4","midi":70,"time":62.16015625000015,"velocity":0.7244094488188977,"duration":0.1080729166666643},{"name":"C5","midi":72,"time":62.27083333333348,"velocity":0.7244094488188977,"duration":0.4388020833333357},{"name":"A#4","midi":70,"time":62.71223958333348,"velocity":0.7244094488188977,"duration":0.1953125},{"name":"C3","midi":48,"time":62.93359375000014,"velocity":0.7244094488188977,"duration":0.9101562499999858},{"name":"A#4","midi":70,"time":62.93359375000014,"velocity":0.7244094488188977,"duration":0.1588541666666643},{"name":"A4","midi":69,"time":63.080729166666806,"velocity":0.7244094488188977,"duration":0.1588541666666643},{"name":"A#4","midi":70,"time":63.22786458333347,"velocity":0.7244094488188977,"duration":0.1588541666666643},{"name":"E3","midi":52,"time":63.375000000000135,"velocity":0.7244094488188977,"duration":0.4518229166666572},{"name":"A4","midi":69,"time":63.375000000000135,"velocity":0.7244094488188977,"duration":0.1471354166666643},{"name":"G4","midi":67,"time":63.5221354166668,"velocity":0.7244094488188977,"duration":0.1471354166666643},{"name":"F4","midi":65,"time":63.669270833333464,"velocity":0.7244094488188977,"duration":0.1080729166666643},{"name":"F4","midi":65,"time":63.83854166666679,"velocity":0.7244094488188977,"duration":3.125000000000007},{"name":"A3","midi":57,"time":63.83854166666679,"velocity":0.7244094488188977,"duration":3.3854166666666643},{"name":"C4","midi":60,"time":63.83854166666679,"velocity":0.7244094488188977,"duration":3.2552083333333357},{"name":"F3","midi":53,"time":63.83854166666679,"velocity":0.7244094488188977,"duration":3.515624999999993},{"name":"F2","midi":41,"time":63.83854166666679,"velocity":0.7244094488188977,"duration":3.3854166666666643},{"name":"F4","midi":65,"time":67.22005208333346,"velocity":0.7244094488188977,"duration":0.3125},{"name":"F3","midi":53,"time":67.57031250000013,"velocity":0.7244094488188977,"duration":0.0768229166666714},{"name":"A3","midi":57,"time":67.57031250000013,"velocity":0.7244094488188977,"duration":0.9440104166666856},{"name":"E3","midi":52,"time":67.64973958333347,"velocity":0.7244094488188977,"duration":0.0768229166666714},{"name":"C4","midi":60,"time":67.68880208333347,"velocity":0.7244094488188977,"duration":0.8463541666666856},{"name":"F3","midi":53,"time":67.72916666666681,"velocity":0.7244094488188977,"duration":1.4283854166666714},{"name":"C3","midi":48,"time":67.80859375000014,"velocity":0.7244094488188977,"duration":0.2356770833333286},{"name":"F4","midi":65,"time":67.80859375000014,"velocity":0.7244094488188977,"duration":0.6953125},{"name":"A2","midi":45,"time":68.04687500000014,"velocity":0.7244094488188977,"duration":1.4283854166666714},{"name":"C3","midi":48,"time":68.28515625000014,"velocity":0.7244094488188977,"duration":1.1927083333333428},{"name":"F2","midi":41,"time":68.52473958333348,"velocity":0.7244094488188977,"duration":0.9427083333333286},{"name":"C4","midi":60,"time":68.76302083333348,"velocity":0.7244094488188977,"duration":0.2356770833333286},{"name":"C4","midi":60,"time":69.00130208333348,"velocity":0.7244094488188977,"duration":0.2356770833333286},{"name":"C4","midi":60,"time":69.23958333333348,"velocity":0.7244094488188977,"duration":0.2356770833333286},{"name":"C4","midi":60,"time":69.47786458333348,"velocity":0.7244094488188977,"duration":0.0768229166666714},{"name":"A#3","midi":58,"time":69.55729166666683,"velocity":0.7244094488188977,"duration":0.0768229166666714},{"name":"C4","midi":60,"time":69.63671875000017,"velocity":0.7244094488188977,"duration":0.90625},{"name":"F3","midi":53,"time":69.7161458333335,"velocity":0.7244094488188977,"duration":0.2356770833333286},{"name":"C3","midi":48,"time":69.9544270833335,"velocity":0.7244094488188977,"duration":1.4270833333333286},{"name":"F3","midi":53,"time":70.1927083333335,"velocity":0.7244094488188977,"duration":1.19140625},{"name":"A2","midi":45,"time":70.4309895833335,"velocity":0.7244094488188977,"duration":0.9427083333333286},{"name":"F4","midi":65,"time":70.6692708333335,"velocity":0.7244094488188977,"duration":0.2356770833333286},{"name":"F4","midi":65,"time":70.9075520833335,"velocity":0.7244094488188977,"duration":0.2356770833333286},{"name":"F4","midi":65,"time":71.1458333333335,"velocity":0.7244094488188977,"duration":0.2356770833333286},{"name":"D4","midi":62,"time":71.3841145833335,"velocity":0.7244094488188977,"duration":0.9427083333333428},{"name":"F4","midi":65,"time":71.3841145833335,"velocity":0.7244094488188977,"duration":0.0768229166666714},{"name":"E4","midi":64,"time":71.46354166666684,"velocity":0.7244094488188977,"duration":0.0768229166666714},{"name":"F4","midi":65,"time":71.54296875000018,"velocity":0.7244094488188977,"duration":0.90625},{"name":"F3","midi":53,"time":71.62239583333351,"velocity":0.7244094488188977,"duration":0.2356770833333286},{"name":"D3","midi":50,"time":71.86067708333351,"velocity":0.7244094488188977,"duration":1.4270833333333286},{"name":"F3","midi":53,"time":72.09895833333351,"velocity":0.7244094488188977,"duration":1.19140625},{"name":"A#2","midi":46,"time":72.33723958333351,"velocity":0.7244094488188977,"duration":0.9505208333333286},{"name":"D5","midi":74,"time":72.57552083333351,"velocity":0.7244094488188977,"duration":0.2356770833333286},{"name":"D5","midi":74,"time":72.81380208333351,"velocity":0.7244094488188977,"duration":0.2356770833333286},{"name":"D5","midi":74,"time":73.05208333333351,"velocity":0.7244094488188977,"duration":0.2356770833333286},{"name":"G3","midi":55,"time":73.29036458333351,"velocity":0.7244094488188977,"duration":1.9036458333333286},{"name":"D3","midi":50,"time":73.29036458333351,"velocity":0.7244094488188977,"duration":1.9036458333333286},{"name":"B2","midi":47,"time":73.29036458333351,"velocity":0.7244094488188977,"duration":1.9036458333333286},{"name":"G4","midi":67,"time":73.29036458333351,"velocity":0.7244094488188977,"duration":0.2356770833333286},{"name":"D5","midi":74,"time":73.52864583333351,"velocity":0.7244094488188977,"duration":0.2356770833333286},{"name":"B4","midi":71,"time":73.76692708333351,"velocity":0.7244094488188977,"duration":0.2356770833333286},{"name":"D5","midi":74,"time":74.00520833333351,"velocity":0.7244094488188977,"duration":0.2356770833333286},{"name":"G4","midi":67,"time":74.24348958333351,"velocity":0.7244094488188977,"duration":0.2356770833333286},{"name":"B4","midi":71,"time":74.48177083333351,"velocity":0.7244094488188977,"duration":0.2356770833333286},{"name":"D4","midi":62,"time":74.72005208333351,"velocity":0.7244094488188977,"duration":0.2356770833333286},{"name":"G4","midi":67,"time":74.95833333333351,"velocity":0.7244094488188977,"duration":0.2356770833333286},{"name":"C3","midi":48,"time":75.19661458333351,"velocity":0.7244094488188977,"duration":2.3828125000000284},{"name":"G3","midi":55,"time":75.19661458333351,"velocity":0.7244094488188977,"duration":0.9505208333333286},{"name":"E4","midi":64,"time":75.19661458333351,"velocity":0.7244094488188977,"duration":0.9427083333333286},{"name":"C5","midi":72,"time":75.43489583333351,"velocity":0.7244094488188977,"duration":0.2356770833333286},{"name":"C5","midi":72,"time":75.67317708333351,"velocity":0.7244094488188977,"duration":0.2356770833333286},{"name":"C5","midi":72,"time":75.91145833333351,"velocity":0.7244094488188977,"duration":0.2356770833333286},{"name":"A3","midi":57,"time":76.14973958333351,"velocity":0.7244094488188977,"duration":0.9505208333333428},{"name":"A4","midi":69,"time":76.14973958333351,"velocity":0.7244094488188977,"duration":0.2356770833333286},{"name":"F4","midi":65,"time":76.14973958333351,"velocity":0.7244094488188977,"duration":0.4713541666666714},{"name":"C5","midi":72,"time":76.38802083333351,"velocity":0.7244094488188977,"duration":0.2356770833333428},{"name":"F4","midi":65,"time":76.62630208333353,"velocity":0.7244094488188977,"duration":0.2356770833333286},{"name":"A4","midi":69,"time":76.86458333333353,"velocity":0.7244094488188977,"duration":0.2356770833333286},{"name":"A3","midi":57,"time":77.10286458333353,"velocity":0.7244094488188977,"duration":0.4739583333333428},{"name":"C4","midi":60,"time":77.10286458333353,"velocity":0.7244094488188977,"duration":0.4713541666666714},{"name":"A4","midi":69,"time":77.34114583333353,"velocity":0.7244094488188977,"duration":0.2356770833333428},{"name":"A#2","midi":46,"time":77.57942708333354,"velocity":0.7244094488188977,"duration":0.4713541666666714},{"name":"A#3","midi":58,"time":77.57942708333354,"velocity":0.7244094488188977,"duration":0.2356770833333286},{"name":"D4","midi":62,"time":77.57942708333354,"velocity":0.7244094488188977,"duration":0.4713541666666714},{"name":"G4","midi":67,"time":77.57942708333354,"velocity":0.7244094488188977,"duration":0.2356770833333286},{"name":"A3","midi":57,"time":77.81770833333354,"velocity":0.7244094488188977,"duration":0.2356770833333428},{"name":"F4","midi":65,"time":77.81770833333354,"velocity":0.7244094488188977,"duration":0.2356770833333428},{"name":"G3","midi":55,"time":78.05598958333356,"velocity":0.7244094488188977,"duration":0.4739583333333286},{"name":"C3","midi":48,"time":78.05598958333356,"velocity":0.7244094488188977,"duration":0.9427083333333286},{"name":"C4","midi":60,"time":78.05598958333356,"velocity":0.7244094488188977,"duration":0.9427083333333286},{"name":"F4","midi":65,"time":78.05598958333356,"velocity":0.7244094488188977,"duration":0.1588541666666714},{"name":"E4","midi":64,"time":78.21484375000023,"velocity":0.7244094488188977,"duration":0.07421875},{"name":"F4","midi":65,"time":78.29427083333356,"velocity":0.7244094488188977,"duration":0.07421875},{"name":"E4","midi":64,"time":78.37369791666688,"velocity":0.7244094488188977,"duration":0.07421875},{"name":"F4","midi":65,"time":78.45312500000021,"velocity":0.7244094488188977,"duration":0.07421875},{"name":"A#3","midi":58,"time":78.53255208333356,"velocity":0.7244094488188977,"duration":0.4739583333333286},{"name":"E4","midi":64,"time":78.53255208333356,"velocity":0.7244094488188977,"duration":0.2356770833333286},{"name":"F4","midi":65,"time":78.77083333333356,"velocity":0.7244094488188977,"duration":0.2356770833333286},{"name":"F3","midi":53,"time":79.00911458333356,"velocity":0.7244094488188977,"duration":1.3893229166666714},{"name":"F4","midi":65,"time":79.00911458333356,"velocity":0.7244094488188977,"duration":1.19140625},{"name":"C4","midi":60,"time":79.24739583333356,"velocity":0.7244094488188977,"duration":1.1914062500000142},{"name":"A3","midi":57,"time":79.48567708333356,"velocity":0.7244094488188977,"duration":0.6953125},{"name":"C3","midi":48,"time":79.72395833333356,"velocity":0.7244094488188977,"duration":0.6953125000000142},{"name":"F2","midi":41,"time":79.96223958333356,"velocity":0.7244094488188977,"duration":0.4466145833333428},{"name":"A4","midi":69,"time":80.20052083333356,"velocity":0.7244094488188977,"duration":0.2356770833333428},{"name":"G4","midi":67,"time":80.43880208333357,"velocity":0.7244094488188977,"duration":0.0768229166666714},{"name":"A4","midi":69,"time":80.51822916666691,"velocity":0.7244094488188977,"duration":0.0768229166666714},{"name":"G4","midi":67,"time":80.59765625000026,"velocity":0.7244094488188977,"duration":0.08203125},{"name":"F4","midi":65,"time":80.67708333333358,"velocity":0.7244094488188977,"duration":0.2356770833333428},{"name":"G4","midi":67,"time":80.9153645833336,"velocity":0.7244094488188977,"duration":0.9427083333333286},{"name":"G3","midi":55,"time":81.1536458333336,"velocity":0.7244094488188977,"duration":0.2356770833333286},{"name":"D3","midi":50,"time":81.3919270833336,"velocity":0.7244094488188977,"duration":1.1666666666666714},{"name":"G3","midi":55,"time":81.6302083333336,"velocity":0.7244094488188977,"duration":0.9440104166666714},{"name":"A#2","midi":46,"time":81.8684895833336,"velocity":0.7244094488188977,"duration":0.6953125},{"name":"D5","midi":74,"time":82.1067708333336,"velocity":0.7244094488188977,"duration":0.2356770833333286},{"name":"D5","midi":74,"time":82.3450520833336,"velocity":0.7244094488188977,"duration":0.2369791666666714},{"name":"D5","midi":74,"time":82.58463541666694,"velocity":0.7244094488188977,"duration":0.2356770833333286},{"name":"E5","midi":76,"time":82.82291666666694,"velocity":0.7244094488188977,"duration":0.0768229166666714},{"name":"D5","midi":74,"time":82.90234375000028,"velocity":0.7244094488188977,"duration":0.0768229166666714},{"name":"E5","midi":76,"time":82.98177083333363,"velocity":0.7244094488188977,"duration":0.90625},{"name":"C4","midi":60,"time":83.06119791666696,"velocity":0.7244094488188977,"duration":0.2356770833333286},{"name":"G3","midi":55,"time":83.29947916666696,"velocity":0.7244094488188977,"duration":1.427083333333357},{"name":"C4","midi":60,"time":83.53776041666696,"velocity":0.7244094488188977,"duration":1.1914062500000284},{"name":"C3","midi":48,"time":83.77604166666696,"velocity":0.7244094488188977,"duration":0.4739583333333286},{"name":"E5","midi":76,"time":84.01432291666696,"velocity":0.7244094488188977,"duration":0.2356770833333286},{"name":"D3","midi":50,"time":84.25260416666696,"velocity":0.7244094488188977,"duration":0.23567708333335702},{"name":"F5","midi":77,"time":84.25260416666696,"velocity":0.7244094488188977,"duration":0.0768229166666714},{"name":"E5","midi":76,"time":84.3320312500003,"velocity":0.7244094488188977,"duration":0.0768229166666714},{"name":"F5","midi":77,"time":84.41145833333364,"velocity":0.7244094488188977,"duration":0.0768229166666714},{"name":"E3","midi":52,"time":84.49088541666698,"velocity":0.7244094488188977,"duration":0.2356770833333286},{"name":"G5","midi":79,"time":84.49088541666698,"velocity":0.7244094488188977,"duration":0.2356770833333286},{"name":"F3","midi":53,"time":84.72916666666698,"velocity":0.7244094488188977,"duration":0.0768229166666714},{"name":"A5","midi":81,"time":84.72916666666698,"velocity":0.7244094488188977,"duration":0.4713541666666856},{"name":"E3","midi":52,"time":84.80859375000033,"velocity":0.7244094488188977,"duration":0.0768229166666714},{"name":"F3","midi":53,"time":84.88802083333367,"velocity":0.7244094488188977,"duration":0.8932291666666714},{"name":"A4","midi":69,"time":84.967447916667,"velocity":0.7244094488188977,"duration":0.4713541666666714},{"name":"F2","midi":41,"time":85.205729166667,"velocity":0.7244094488188977,"duration":0.34765625},{"name":"C5","midi":72,"time":85.205729166667,"velocity":0.7244094488188977,"duration":0.4713541666666714},{"name":"A4","midi":69,"time":85.444010416667,"velocity":0.7244094488188977,"duration":0.2356770833333428},{"name":"E5","midi":76,"time":85.68229166666701,"velocity":0.7244094488188977,"duration":0.11588541666665719},{"name":"D5","midi":74,"time":85.81770833333367,"velocity":0.7244094488188977,"duration":0.1171875},{"name":"E5","midi":76,"time":85.95442708333367,"velocity":0.7244094488188977,"duration":0.1731770833333286},{"name":"A3","midi":57,"time":86.15755208333367,"velocity":0.7244094488188977,"duration":0.4739583333333286},{"name":"F3","midi":53,"time":86.15755208333367,"velocity":0.7244094488188977,"duration":0.4739583333333286},{"name":"D4","midi":62,"time":86.15755208333367,"velocity":0.7244094488188977,"duration":0.4739583333333286},{"name":"F5","midi":77,"time":86.15755208333367,"velocity":0.7244094488188977,"duration":0.2356770833333286},{"name":"D5","midi":74,"time":86.39583333333367,"velocity":0.7244094488188977,"duration":0.2356770833333286},{"name":"F3","midi":53,"time":86.63411458333367,"velocity":0.7244094488188977,"duration":0.9505208333333286},{"name":"G3","midi":55,"time":86.63411458333367,"velocity":0.7244094488188977,"duration":0.9505208333333286},{"name":"D4","midi":62,"time":86.63411458333367,"velocity":0.7244094488188977,"duration":0.9505208333333286},{"name":"G5","midi":79,"time":86.63411458333367,"velocity":0.7244094488188977,"duration":0.2356770833333286},{"name":"G4","midi":67,"time":86.87239583333367,"velocity":0.7244094488188977,"duration":0.2356770833333286},{"name":"B4","midi":71,"time":87.11067708333367,"velocity":0.7244094488188977,"duration":0.2356770833333286},{"name":"G4","midi":67,"time":87.34895833333367,"velocity":0.7244094488188977,"duration":0.2356770833333286},{"name":"G3","midi":55,"time":87.58723958333367,"velocity":0.7244094488188977,"duration":0.9505208333333286},{"name":"E3","midi":52,"time":87.58723958333367,"velocity":0.7244094488188977,"duration":0.9505208333333286},{"name":"C4","midi":60,"time":87.58723958333367,"velocity":0.7244094488188977,"duration":1.4270833333333286},{"name":"C5","midi":72,"time":87.58723958333367,"velocity":0.7244094488188977,"duration":0.2356770833333286},{"name":"E4","midi":64,"time":87.82552083333367,"velocity":0.7244094488188977,"duration":0.2356770833333286},{"name":"G4","midi":67,"time":88.06380208333367,"velocity":0.7244094488188977,"duration":0.2356770833333286},{"name":"E4","midi":64,"time":88.30208333333367,"velocity":0.7244094488188977,"duration":0.2356770833333286},{"name":"F3","midi":53,"time":88.54036458333367,"velocity":0.7244094488188977,"duration":0.4739583333333286},{"name":"A4","midi":69,"time":88.54036458333367,"velocity":0.7244094488188977,"duration":0.2356770833333286},{"name":"B3","midi":59,"time":88.77864583333367,"velocity":0.7244094488188977,"duration":0.2356770833333286},{"name":"E3","midi":52,"time":89.01692708333367,"velocity":0.7244094488188977,"duration":0.23567708333335702},{"name":"C4","midi":60,"time":89.01692708333367,"velocity":0.7244094488188977,"duration":0.0768229166666714},{"name":"B3","midi":59,"time":89.09635416666701,"velocity":0.7244094488188977,"duration":0.0768229166666714},{"name":"C4","midi":60,"time":89.17578125000036,"velocity":0.7244094488188977,"duration":0.0768229166666714},{"name":"F3","midi":53,"time":89.2552083333337,"velocity":0.7244094488188977,"duration":0.2356770833333286},{"name":"D4","midi":62,"time":89.2552083333337,"velocity":0.7244094488188977,"duration":0.2356770833333286},{"name":"G3","midi":55,"time":89.4934895833337,"velocity":0.7244094488188977,"duration":0.9440104166666572},{"name":"E4","midi":64,"time":89.4934895833337,"velocity":0.7244094488188977,"duration":0.1692708333333428},{"name":"D4","midi":62,"time":89.65234375000037,"velocity":0.7244094488188977,"duration":0.07552083333334281},{"name":"E4","midi":64,"time":89.73307291666704,"velocity":0.7244094488188977,"duration":0.07421875},{"name":"D4","midi":62,"time":89.81250000000037,"velocity":0.7244094488188977,"duration":0.07421875},{"name":"E4","midi":64,"time":89.8919270833337,"velocity":0.7244094488188977,"duration":0.07421875},{"name":"G2","midi":43,"time":89.97135416666703,"velocity":0.7244094488188977,"duration":0.4713541666666572},{"name":"D4","midi":62,"time":89.97135416666703,"velocity":0.7244094488188977,"duration":0.2356770833333286},{"name":"C4","midi":60,"time":90.20963541666703,"velocity":0.7244094488188977,"duration":0.2356770833333286},{"name":"C4","midi":60,"time":90.44791666666703,"velocity":0.7244094488188977,"duration":0.9427083333333286},{"name":"C3","midi":48,"time":90.68619791666703,"velocity":0.7244094488188977,"duration":0.2356770833333286},{"name":"G2","midi":43,"time":90.92447916666703,"velocity":0.7244094488188977,"duration":1.4270833333333286},{"name":"C3","midi":48,"time":91.16276041666703,"velocity":0.7244094488188977,"duration":1.6510416666666856},{"name":"E2","midi":40,"time":91.40104166666703,"velocity":0.7244094488188977,"duration":0.9479166666666572},{"name":"G4","midi":67,"time":91.6419270833337,"velocity":0.7244094488188977,"duration":0.2356770833333286},{"name":"G4","midi":67,"time":91.89843750000036,"velocity":0.7244094488188977,"duration":0.2356770833333286},{"name":"G4","midi":67,"time":92.13671875000036,"velocity":0.7244094488188977,"duration":0.2356770833333286},{"name":"G#4","midi":68,"time":92.37500000000036,"velocity":0.7244094488188977,"duration":0.0768229166666714},{"name":"F2","midi":41,"time":92.37500000000036,"velocity":0.7244094488188977,"duration":1.903645833333357},{"name":"G4","midi":67,"time":92.4544270833337,"velocity":0.7244094488188977,"duration":0.0768229166666714},{"name":"G#4","midi":68,"time":92.53385416666704,"velocity":0.7244094488188977,"duration":0.0768229166666714},{"name":"A#4","midi":70,"time":92.61328125000038,"velocity":0.7244094488188977,"duration":0.2356770833333286},{"name":"G4","midi":67,"time":92.85156250000038,"velocity":0.7244094488188977,"duration":0.2356770833333286},{"name":"E3","midi":52,"time":92.85156250000038,"velocity":0.7244094488188977,"duration":0.4739583333333286},{"name":"A#4","midi":70,"time":93.08984375000038,"velocity":0.7244094488188977,"duration":0.2356770833333286},{"name":"G#4","midi":68,"time":93.32812500000038,"velocity":0.7244094488188977,"duration":0.2356770833333286},{"name":"F3","midi":53,"time":93.32812500000038,"velocity":0.7244094488188977,"duration":0.9427083333333286},{"name":"G4","midi":67,"time":93.56640625000038,"velocity":0.7244094488188977,"duration":0.2356770833333286},{"name":"G#4","midi":68,"time":93.80468750000038,"velocity":0.7244094488188977,"duration":0.2356770833333286},{"name":"D3","midi":50,"time":93.80468750000038,"velocity":0.7244094488188977,"duration":0.4739583333333286},{"name":"A#4","midi":70,"time":94.04296875000038,"velocity":0.7244094488188977,"duration":0.2356770833333286},{"name":"G4","midi":67,"time":94.28125000000038,"velocity":0.7244094488188977,"duration":0.2356770833333286},{"name":"C3","midi":48,"time":94.28125000000038,"velocity":0.7244094488188977,"duration":0.9427083333333286},{"name":"E3","midi":52,"time":94.28125000000038,"velocity":0.7244094488188977,"duration":0.9427083333333286},{"name":"C5","midi":72,"time":94.51953125000038,"velocity":0.7244094488188977,"duration":0.2356770833333286},{"name":"C5","midi":72,"time":94.75781250000038,"velocity":0.7244094488188977,"duration":0.2356770833333286},{"name":"C5","midi":72,"time":94.99609375000038,"velocity":0.7244094488188977,"duration":0.2356770833333286},{"name":"C5","midi":72,"time":95.23437500000038,"velocity":0.7244094488188977,"duration":0.0768229166666714},{"name":"B4","midi":71,"time":95.31380208333373,"velocity":0.7244094488188977,"duration":0.0768229166666714},{"name":"C5","midi":72,"time":95.39322916666707,"velocity":0.7244094488188977,"duration":0.0768229166666714},{"name":"C4","midi":60,"time":95.47265625000041,"velocity":0.7244094488188977,"duration":0.2356770833333286},{"name":"G4","midi":67,"time":95.71093750000041,"velocity":0.7244094488188977,"duration":0.0768229166666714},{"name":"F3","midi":53,"time":95.71093750000041,"velocity":0.7244094488188977,"duration":0.473958333333357},{"name":"B2","midi":47,"time":95.71093750000041,"velocity":0.7244094488188977,"duration":0.473958333333357},{"name":"D3","midi":50,"time":95.71093750000041,"velocity":0.7244094488188977,"duration":0.473958333333357},{"name":"G2","midi":43,"time":95.71093750000041,"velocity":0.7244094488188977,"duration":0.473958333333357},{"name":"F4","midi":65,"time":95.79036458333375,"velocity":0.7244094488188977,"duration":0.0768229166666714},{"name":"G4","midi":67,"time":95.8697916666671,"velocity":0.7244094488188977,"duration":0.0768229166666714},{"name":"G4","midi":67,"time":95.94921875000044,"velocity":0.7244094488188977,"duration":0.2356770833333286},{"name":"G4","midi":67,"time":96.18750000000044,"velocity":0.7244094488188977,"duration":1.4270833333333428},{"name":"C3","midi":48,"time":96.18750000000044,"velocity":0.7244094488188977,"duration":0.0768229166666714},{"name":"B2","midi":47,"time":96.26692708333378,"velocity":0.7244094488188977,"duration":0.0768229166666714},{"name":"C3","midi":48,"time":96.34635416666713,"velocity":0.7244094488188977,"duration":1.7317708333333286},{"name":"E4","midi":64,"time":96.42578125000045,"velocity":0.7244094488188977,"duration":1.19140625},{"name":"C4","midi":60,"time":96.66406250000045,"velocity":0.7244094488188977,"duration":1.1888020833333286},{"name":"C2","midi":36,"time":97.14062500000045,"velocity":0.7244094488188977,"duration":0.9505208333333286},{"name":"E5","midi":76,"time":97.87630208333378,"velocity":0.7244094488188977,"duration":0.2356770833333286},{"name":"C4","midi":60,"time":98.11458333333378,"velocity":0.7244094488188977,"duration":1.9049479166666856},{"name":"G4","midi":67,"time":98.11458333333378,"velocity":0.7244094488188977,"duration":0.9427083333333286},{"name":"C5","midi":72,"time":98.23307291666711,"velocity":0.7244094488188977,"duration":0.83203125},{"name":"G3","midi":55,"time":98.35156250000044,"velocity":0.7244094488188977,"duration":0.2356770833333286},{"name":"E5","midi":76,"time":98.35156250000044,"velocity":0.7244094488188977,"duration":0.6953125},{"name":"E3","midi":52,"time":98.58984375000044,"velocity":0.7244094488188977,"duration":1.180989583333357},{"name":"G3","midi":55,"time":98.82812500000044,"velocity":0.7244094488188977,"duration":0.9453125000000284},{"name":"C3","midi":48,"time":99.06770833333378,"velocity":0.7244094488188977,"duration":0.6953125000000142},{"name":"E5","midi":76,"time":99.30598958333378,"velocity":0.7244094488188977,"duration":0.2356770833333286},{"name":"D5","midi":74,"time":99.54427083333378,"velocity":0.7244094488188977,"duration":0.0768229166666714},{"name":"E5","midi":76,"time":99.62369791666713,"velocity":0.7244094488188977,"duration":0.0768229166666714},{"name":"D5","midi":74,"time":99.70312500000047,"velocity":0.7244094488188977,"duration":0.078125},{"name":"C5","midi":72,"time":99.78385416666714,"velocity":0.7244094488188977,"duration":0.2356770833333286},{"name":"F5","midi":77,"time":100.02213541666714,"velocity":0.7244094488188977,"duration":0.0768229166666714},{"name":"E5","midi":76,"time":100.10156250000048,"velocity":0.7244094488188977,"duration":0.0768229166666714},{"name":"F5","midi":77,"time":100.18098958333383,"velocity":0.7244094488188977,"duration":0.90625},{"name":"A3","midi":57,"time":100.26041666666715,"velocity":0.7244094488188977,"duration":1.1927083333333428},{"name":"F3","midi":53,"time":100.49869791666715,"velocity":0.7244094488188977,"duration":0.9440104166666714},{"name":"C3","midi":48,"time":100.73697916666715,"velocity":0.7244094488188977,"duration":0.6953125},{"name":"A2","midi":45,"time":100.97526041666715,"velocity":0.7244094488188977,"duration":0.9440104166666998},{"name":"C5","midi":72,"time":101.21354166666715,"velocity":0.7244094488188977,"duration":0.2369791666666714},{"name":"F3","midi":53,"time":101.4531250000005,"velocity":0.7244094488188977,"duration":0.942708333333357},{"name":"D5","midi":74,"time":101.4531250000005,"velocity":0.7244094488188977,"duration":0.0768229166666714},{"name":"C5","midi":72,"time":101.53255208333384,"velocity":0.7244094488188977,"duration":0.0768229166666714},{"name":"D5","midi":74,"time":101.61197916666718,"velocity":0.7244094488188977,"duration":0.0768229166666714},{"name":"D#5","midi":75,"time":101.69140625000053,"velocity":0.7244094488188977,"duration":0.2356770833333286},{"name":"A#2","midi":46,"time":101.92968750000053,"velocity":0.7244094488188977,"duration":0.4739583333333286},{"name":"D5","midi":74,"time":101.92968750000053,"velocity":0.7244094488188977,"duration":0.2356770833333286},{"name":"F4","midi":65,"time":102.16796875000053,"velocity":0.7244094488188977,"duration":0.2356770833333286},{"name":"A#3","midi":58,"time":102.40625000000053,"velocity":0.7244094488188977,"duration":0.9427083333333286},{"name":"D3","midi":50,"time":102.40625000000053,"velocity":0.7244094488188977,"duration":0.4739583333333286},{"name":"F4","midi":65,"time":102.40625000000053,"velocity":0.7244094488188977,"duration":0.2356770833333286},{"name":"F4","midi":65,"time":102.64453125000053,"velocity":0.7244094488188977,"duration":0.2356770833333286},{"name":"D#3","midi":51,"time":102.88281250000053,"velocity":0.7244094488188977,"duration":0.942708333333357},{"name":"G4","midi":67,"time":102.88281250000053,"velocity":0.7244094488188977,"duration":0.2356770833333286},{"name":"A#4","midi":70,"time":103.12109375000053,"velocity":0.7244094488188977,"duration":0.2356770833333286},{"name":"C4","midi":60,"time":103.35937500000053,"velocity":0.7244094488188977,"duration":0.473958333333357},{"name":"A4","midi":69,"time":103.35937500000053,"velocity":0.7244094488188977,"duration":0.0768229166666714},{"name":"A#4","midi":70,"time":103.43880208333387,"velocity":0.7244094488188977,"duration":0.0768229166666714},{"name":"A4","midi":69,"time":103.51822916666721,"velocity":0.7244094488188977,"duration":0.0768229166666714},{"name":"G4","midi":67,"time":103.59765625000055,"velocity":0.7244094488188977,"duration":0.2356770833333286},{"name":"D3","midi":50,"time":103.83593750000055,"velocity":0.7244094488188977,"duration":0.6953125},{"name":"F#3","midi":54,"time":103.83593750000055,"velocity":0.7244094488188977,"duration":0.6953125},{"name":"A3","midi":57,"time":103.83593750000055,"velocity":0.7244094488188977,"duration":0.6953125},{"name":"D5","midi":74,"time":103.83593750000055,"velocity":0.7244094488188977,"duration":0.2356770833333286},{"name":"F#4","midi":66,"time":104.07421875000055,"velocity":0.7244094488188977,"duration":0.2356770833333286},{"name":"F#4","midi":66,"time":104.31250000000055,"velocity":0.7244094488188977,"duration":0.2356770833333286},{"name":"F#4","midi":66,"time":104.55078125000055,"velocity":0.7244094488188977,"duration":0.2356770833333286},{"name":"A4","midi":69,"time":104.78906250000055,"velocity":0.7244094488188977,"duration":0.0768229166666714},{"name":"G4","midi":67,"time":104.8684895833339,"velocity":0.7244094488188977,"duration":0.0768229166666714},{"name":"A4","midi":69,"time":104.94791666666724,"velocity":0.7244094488188977,"duration":0.3151041666666572},{"name":"E3","midi":52,"time":105.02734375000057,"velocity":0.7244094488188977,"duration":0.2356770833333286},{"name":"D3","midi":50,"time":105.26562500000057,"velocity":0.7244094488188977,"duration":0.0768229166666714},{"name":"D4","midi":62,"time":105.26562500000057,"velocity":0.7244094488188977,"duration":0.712239583333357},{"name":"E3","midi":52,"time":105.34505208333391,"velocity":0.7244094488188977,"duration":0.0768229166666714},{"name":"D3","midi":50,"time":105.42447916666725,"velocity":0.7244094488188977,"duration":0.0768229166666714},{"name":"C3","midi":48,"time":105.5039062500006,"velocity":0.7244094488188977,"duration":0.2356770833333286},{"name":"G3","midi":55,"time":105.7421875000006,"velocity":0.7244094488188977,"duration":0.9427083333333286},{"name":"D3","midi":50,"time":105.7421875000006,"velocity":0.7244094488188977,"duration":0.9427083333333286},{"name":"B2","midi":47,"time":105.7421875000006,"velocity":0.7244094488188977,"duration":0.9427083333333286},{"name":"B4","midi":71,"time":105.9804687500006,"velocity":0.7244094488188977,"duration":0.2356770833333286},{"name":"D5","midi":74,"time":106.2187500000006,"velocity":0.7244094488188977,"duration":1.1927083333333428},{"name":"B4","midi":71,"time":106.4570312500006,"velocity":0.7244094488188977,"duration":0.9440104166666714},{"name":"G4","midi":67,"time":106.6953125000006,"velocity":0.7244094488188977,"duration":0.6953125},{"name":"G3","midi":55,"time":106.9335937500006,"velocity":0.7244094488188977,"duration":0.2356770833333286},{"name":"A3","midi":57,"time":107.1718750000006,"velocity":0.7244094488188977,"duration":0.2369791666666714},{"name":"B3","midi":59,"time":107.41145833333394,"velocity":0.7244094488188977,"duration":0.2356770833333286},{"name":"C4","midi":60,"time":107.64973958333394,"velocity":0.7244094488188977,"duration":0.0768229166666714},{"name":"B3","midi":59,"time":107.72916666666728,"velocity":0.7244094488188977,"duration":0.0768229166666714},{"name":"C4","midi":60,"time":107.80859375000063,"velocity":0.7244094488188977,"duration":0.9427083333333428},{"name":"G4","midi":67,"time":107.88802083333395,"velocity":0.7244094488188977,"duration":0.2356770833333286},{"name":"G4","midi":67,"time":108.12630208333395,"velocity":0.7244094488188977,"duration":0.2356770833333286},{"name":"G4","midi":67,"time":108.36458333333395,"velocity":0.7244094488188977,"duration":0.2356770833333286},{"name":"C5","midi":72,"time":108.60286458333395,"velocity":0.7244094488188977,"duration":0.0768229166666714},{"name":"B4","midi":71,"time":108.6822916666673,"velocity":0.7244094488188977,"duration":0.0768229166666714},{"name":"C5","midi":72,"time":108.76171875000064,"velocity":0.7244094488188977,"duration":0.9062500000000284},{"name":"D3","midi":50,"time":108.84114583333397,"velocity":0.7244094488188977,"duration":0.2356770833333286},{"name":"C3","midi":48,"time":109.07942708333397,"velocity":0.7244094488188977,"duration":0.0768229166666714},{"name":"D3","midi":50,"time":109.15885416666731,"velocity":0.7244094488188977,"duration":0.0768229166666714},{"name":"C3","midi":48,"time":109.23828125000065,"velocity":0.7244094488188977,"duration":0.0768229166666714},{"name":"A#2","midi":46,"time":109.317708333334,"velocity":0.7244094488188977,"duration":0.2356770833333286},{"name":"A2","midi":45,"time":109.555989583334,"velocity":0.7244094488188977,"duration":0.8932291666666714},{"name":"F3","midi":53,"time":109.555989583334,"velocity":0.7244094488188977,"duration":0.8932291666666714},{"name":"C3","midi":48,"time":109.555989583334,"velocity":0.7244094488188977,"duration":0.8932291666666714},{"name":"C5","midi":72,"time":109.794270833334,"velocity":0.7244094488188977,"duration":0.2356770833333286},{"name":"C5","midi":72,"time":110.032552083334,"velocity":0.7244094488188977,"duration":0.2356770833333286},{"name":"C5","midi":72,"time":110.270833333334,"velocity":0.7244094488188977,"duration":0.2356770833333428},{"name":"F5","midi":77,"time":110.50911458333401,"velocity":0.7244094488188977,"duration":0.0768229166666714},{"name":"E5","midi":76,"time":110.58854166666735,"velocity":0.7244094488188977,"duration":0.0768229166666714},{"name":"F5","midi":77,"time":110.6679687500007,"velocity":0.7244094488188977,"duration":0.6953125000000284},{"name":"A3","midi":57,"time":110.74739583333402,"velocity":0.7244094488188977,"duration":0.2356770833333286},{"name":"G3","midi":55,"time":110.98567708333402,"velocity":0.7244094488188977,"duration":0.0768229166666714},{"name":"A3","midi":57,"time":111.06510416666737,"velocity":0.7244094488188977,"duration":0.0768229166666714},{"name":"G3","midi":55,"time":111.14453125000071,"velocity":0.7244094488188977,"duration":0.0768229166666714},{"name":"F3","midi":53,"time":111.22395833333405,"velocity":0.7244094488188977,"duration":0.2356770833333428},{"name":"A#3","midi":58,"time":111.46223958333407,"velocity":0.7244094488188977,"duration":0.942708333333357},{"name":"F4","midi":65,"time":111.70052083333407,"velocity":0.7244094488188977,"duration":0.2356770833333286},{"name":"G4","midi":67,"time":111.93880208333407,"velocity":0.7244094488188977,"duration":0.0768229166666714},{"name":"F4","midi":65,"time":112.01822916666741,"velocity":0.7244094488188977,"duration":0.0768229166666714},{"name":"G4","midi":67,"time":112.09765625000075,"velocity":0.7244094488188977,"duration":0.0768229166666714},{"name":"A4","midi":69,"time":112.1770833333341,"velocity":0.7244094488188977,"duration":0.2356770833333286},{"name":"A#4","midi":70,"time":112.4153645833341,"velocity":0.7244094488188977,"duration":0.2356770833333286},{"name":"C5","midi":72,"time":112.6536458333341,"velocity":0.7244094488188977,"duration":0.2356770833333286},{"name":"F3","midi":53,"time":112.8919270833341,"velocity":0.7244094488188977,"duration":0.473958333333357},{"name":"D3","midi":50,"time":112.8919270833341,"velocity":0.7244094488188977,"duration":0.473958333333357},{"name":"A#2","midi":46,"time":112.8919270833341,"velocity":0.7244094488188977,"duration":0.473958333333357},{"name":"A#4","midi":70,"time":112.8919270833341,"velocity":0.7244094488188977,"duration":0.0768229166666714},{"name":"C5","midi":72,"time":112.97135416666744,"velocity":0.7244094488188977,"duration":0.0768229166666714},{"name":"A#4","midi":70,"time":113.05078125000078,"velocity":0.7244094488188977,"duration":0.0768229166666714},{"name":"A4","midi":69,"time":113.13020833333412,"velocity":0.7244094488188977,"duration":0.2356770833333286},{"name":"B2","midi":47,"time":113.36848958333412,"velocity":0.7244094488188977,"duration":0.9427083333333286},{"name":"D3","midi":50,"time":113.36848958333412,"velocity":0.7244094488188977,"duration":0.9427083333333286},{"name":"G3","midi":55,"time":113.36848958333412,"velocity":0.7244094488188977,"duration":0.9427083333333286},{"name":"G4","midi":67,"time":113.36848958333412,"velocity":0.7244094488188977,"duration":0.2356770833333286},{"name":"D5","midi":74,"time":113.60677083333412,"velocity":0.7244094488188977,"duration":0.2356770833333286},{"name":"D5","midi":74,"time":113.84505208333412,"velocity":0.7244094488188977,"duration":0.2356770833333286},{"name":"D5","midi":74,"time":114.08333333333412,"velocity":0.7244094488188977,"duration":0.2356770833333286},{"name":"G5","midi":79,"time":114.32161458333412,"velocity":0.7244094488188977,"duration":0.0768229166666714},{"name":"F5","midi":77,"time":114.40104166666747,"velocity":0.7244094488188977,"duration":0.0768229166666714},{"name":"G5","midi":79,"time":114.48046875000081,"velocity":0.7244094488188977,"duration":0.6953125},{"name":"G3","midi":55,"time":114.55989583333414,"velocity":0.7244094488188977,"duration":0.2356770833333286},{"name":"A3","midi":57,"time":114.79817708333414,"velocity":0.7244094488188977,"duration":0.2356770833333286},{"name":"B3","midi":59,"time":115.03645833333414,"velocity":0.7244094488188977,"duration":0.2356770833333428},{"name":"C4","midi":60,"time":115.27473958333415,"velocity":0.7244094488188977,"duration":0.4739583333333286},{"name":"G4","midi":67,"time":115.51302083333415,"velocity":0.7244094488188977,"duration":0.2356770833333286},{"name":"C3","midi":48,"time":115.75130208333415,"velocity":0.7244094488188977,"duration":0.4713541666666714},{"name":"E4","midi":64,"time":115.75130208333415,"velocity":0.7244094488188977,"duration":0.2356770833333286},{"name":"G4","midi":67,"time":115.98958333333415,"velocity":0.7244094488188977,"duration":0.2356770833333428},{"name":"C4","midi":60,"time":116.22786458333417,"velocity":0.7244094488188977,"duration":0.942708333333357},{"name":"A#3","midi":58,"time":116.46614583333417,"velocity":0.7244094488188977,"duration":0.2356770833333286},{"name":"A3","midi":57,"time":116.70442708333417,"velocity":0.7244094488188977,"duration":0.0768229166666714},{"name":"A#3","midi":58,"time":116.78385416666751,"velocity":0.7244094488188977,"duration":0.0768229166666714},{"name":"A3","midi":57,"time":116.86328125000085,"velocity":0.7244094488188977,"duration":0.0768229166666714},{"name":"G3","midi":55,"time":116.9427083333342,"velocity":0.7244094488188977,"duration":0.2356770833333286},{"name":"F#3","midi":54,"time":117.1809895833342,"velocity":0.7244094488188977,"duration":0.4713541666666714},{"name":"A4","midi":69,"time":117.4192708333342,"velocity":0.7244094488188977,"duration":0.2356770833333428},{"name":"A4","midi":69,"time":117.65755208333421,"velocity":0.7244094488188977,"duration":0.2356770833333286},{"name":"A4","midi":69,"time":117.89583333333421,"velocity":0.7244094488188977,"duration":0.2356770833333286},{"name":"D5","midi":74,"time":118.13411458333421,"velocity":0.7244094488188977,"duration":0.0768229166666714},{"name":"C5","midi":72,"time":118.21354166666755,"velocity":0.7244094488188977,"duration":0.0768229166666714},{"name":"D5","midi":74,"time":118.2929687500009,"velocity":0.7244094488188977,"duration":0.9427083333333286},{"name":"D3","midi":50,"time":118.37239583333422,"velocity":0.7244094488188977,"duration":0.2356770833333286},{"name":"E3","midi":52,"time":118.61067708333422,"velocity":0.7244094488188977,"duration":0.2356770833333286},{"name":"F#3","midi":54,"time":118.84895833333422,"velocity":0.7244094488188977,"duration":0.2356770833333286},{"name":"G3","midi":55,"time":119.08723958333422,"velocity":0.7244094488188977,"duration":0.942708333333357},{"name":"F#4","midi":66,"time":119.32552083333422,"velocity":0.7244094488188977,"duration":0.2356770833333286},{"name":"G4","midi":67,"time":119.56380208333422,"velocity":0.7244094488188977,"duration":0.0768229166666714},{"name":"F#4","midi":66,"time":119.64322916666757,"velocity":0.7244094488188977,"duration":0.0768229166666714},{"name":"G4","midi":67,"time":119.72265625000091,"velocity":0.7244094488188977,"duration":0.0768229166666714},{"name":"A4","midi":69,"time":119.80208333333425,"velocity":0.7244094488188977,"duration":0.2356770833333286},{"name":"A#4","midi":70,"time":120.04036458333425,"velocity":0.7244094488188977,"duration":0.0768229166666714},{"name":"A4","midi":69,"time":120.1197916666676,"velocity":0.7244094488188977,"duration":0.0768229166666714},{"name":"A#4","midi":70,"time":120.19921875000094,"velocity":0.7244094488188977,"duration":0.9062500000000284},{"name":"A3","midi":57,"time":120.27864583333427,"velocity":0.7244094488188977,"duration":0.2356770833333286},{"name":"G3","midi":55,"time":120.51692708333427,"velocity":0.7244094488188977,"duration":0.0768229166666714},{"name":"A3","midi":57,"time":120.59635416666761,"velocity":0.7244094488188977,"duration":0.0768229166666714},{"name":"G3","midi":55,"time":120.67578125000095,"velocity":0.7244094488188977,"duration":0.0768229166666714},{"name":"F3","midi":53,"time":120.7552083333343,"velocity":0.7244094488188977,"duration":0.2356770833333286},{"name":"E3","midi":52,"time":120.9934895833343,"velocity":0.7244094488188977,"duration":0.9427083333333286},{"name":"G4","midi":67,"time":121.2317708333343,"velocity":0.7244094488188977,"duration":0.2356770833333286},{"name":"G4","midi":67,"time":121.4700520833343,"velocity":0.7244094488188977,"duration":0.2356770833333286},{"name":"G4","midi":67,"time":121.7083333333343,"velocity":0.7244094488188977,"duration":0.2356770833333286},{"name":"C5","midi":72,"time":121.9466145833343,"velocity":0.7244094488188977,"duration":0.0768229166666714},{"name":"A#4","midi":70,"time":122.02604166666764,"velocity":0.7244094488188977,"duration":0.0768229166666714},{"name":"C5","midi":72,"time":122.10546875000098,"velocity":0.7244094488188977,"duration":1.0299479166666572},{"name":"C3","midi":48,"time":122.18489583333431,"velocity":0.7244094488188977,"duration":0.2356770833333286},{"name":"D3","midi":50,"time":122.42317708333431,"velocity":0.7244094488188977,"duration":0.2356770833333286},{"name":"E3","midi":52,"time":122.66145833333431,"velocity":0.7244094488188977,"duration":0.2356770833333286},{"name":"F3","midi":53,"time":122.89973958333431,"velocity":0.7244094488188977,"duration":0.4739583333333286},{"name":"C5","midi":72,"time":123.13802083333431,"velocity":0.7244094488188977,"duration":0.2356770833333286},{"name":"D#3","midi":51,"time":123.37630208333431,"velocity":0.7244094488188977,"duration":0.4739583333333286},{"name":"D5","midi":74,"time":123.37630208333431,"velocity":0.7244094488188977,"duration":0.2356770833333286},{"name":"D#5","midi":75,"time":123.61458333333431,"velocity":0.7244094488188977,"duration":0.2356770833333286},{"name":"D3","midi":50,"time":123.85286458333431,"velocity":0.7244094488188977,"duration":0.4739583333333286},{"name":"F5","midi":77,"time":123.85286458333431,"velocity":0.7244094488188977,"duration":0.9427083333333286},{"name":"F4","midi":65,"time":124.09114583333431,"velocity":0.7244094488188977,"duration":0.2356770833333286},{"name":"C3","midi":48,"time":124.32942708333431,"velocity":0.7244094488188977,"duration":0.4739583333333286},{"name":"F4","midi":65,"time":124.32942708333431,"velocity":0.7244094488188977,"duration":0.2356770833333286},{"name":"F4","midi":65,"time":124.56770833333431,"velocity":0.7244094488188977,"duration":0.2356770833333286},{"name":"A#2","midi":46,"time":124.80598958333431,"velocity":0.7244094488188977,"duration":0.4739583333333286},{"name":"D5","midi":74,"time":124.80598958333431,"velocity":0.7244094488188977,"duration":0.9427083333333286},{"name":"F4","midi":65,"time":125.04427083333431,"velocity":0.7244094488188977,"duration":0.2356770833333286},{"name":"A#3","midi":58,"time":125.28255208333431,"velocity":0.7244094488188977,"duration":0.4739583333333286},{"name":"F4","midi":65,"time":125.28255208333431,"velocity":0.7244094488188977,"duration":0.2356770833333286},{"name":"F4","midi":65,"time":125.52083333333431,"velocity":0.7244094488188977,"duration":0.2356770833333286},{"name":"A3","midi":57,"time":125.75911458333431,"velocity":0.7244094488188977,"duration":0.4739583333333286},{"name":"C5","midi":72,"time":125.75911458333431,"velocity":0.7244094488188977,"duration":0.9427083333333286},{"name":"F4","midi":65,"time":125.99739583333431,"velocity":0.7244094488188977,"duration":0.2356770833333286},{"name":"F3","midi":53,"time":126.23567708333431,"velocity":0.7244094488188977,"duration":0.4739583333333286},{"name":"F4","midi":65,"time":126.23567708333431,"velocity":0.7244094488188977,"duration":0.2356770833333286},{"name":"F4","midi":65,"time":126.47395833333431,"velocity":0.7244094488188977,"duration":0.2356770833333286},{"name":"A#3","midi":58,"time":126.71223958333431,"velocity":0.7244094488188977,"duration":0.4739583333333428},{"name":"D5","midi":74,"time":126.71223958333431,"velocity":0.7244094488188977,"duration":0.4713541666666714},{"name":"F4","midi":65,"time":126.95052083333431,"velocity":0.7244094488188977,"duration":0.2356770833333428},{"name":"A#2","midi":46,"time":127.18880208333432,"velocity":0.7244094488188977,"duration":0.4739583333333428},{"name":"E5","midi":76,"time":127.18880208333432,"velocity":0.7244094488188977,"duration":0.4713541666666714},{"name":"G4","midi":67,"time":127.42708333333432,"velocity":0.7244094488188977,"duration":0.2356770833333428},{"name":"A2","midi":45,"time":127.66536458333434,"velocity":0.7244094488188977,"duration":0.4739583333333144},{"name":"F5","midi":77,"time":127.66536458333434,"velocity":0.7244094488188977,"duration":0.4713541666666572},{"name":"A4","midi":69,"time":127.90364583333434,"velocity":0.7244094488188977,"duration":0.23567708333331439},{"name":"G2","midi":43,"time":128.1419270833343,"velocity":0.7244094488188977,"duration":0.4739583333333144},{"name":"G5","midi":79,"time":128.1419270833343,"velocity":0.7244094488188977,"duration":0.4713541666666572},{"name":"B4","midi":71,"time":128.3802083333343,"velocity":0.7244094488188977,"duration":0.23567708333331439},{"name":"C3","midi":48,"time":128.61848958333428,"velocity":0.7244094488188977,"duration":0.9427083333333428},{"name":"E5","midi":76,"time":128.61848958333428,"velocity":0.7244094488188977,"duration":1.9036458333333144},{"name":"G4","midi":67,"time":128.85677083333428,"velocity":0.7244094488188977,"duration":0.2356770833333428},{"name":"G4","midi":67,"time":129.09505208333428,"velocity":0.7244094488188977,"duration":0.2356770833333428},{"name":"G4","midi":67,"time":129.33333333333428,"velocity":0.7244094488188977,"duration":0.2356770833333428},{"name":"C5","midi":72,"time":129.57161458333428,"velocity":0.7244094488188977,"duration":0.07682291666665719},{"name":"A#4","midi":70,"time":129.6510416666676,"velocity":0.7244094488188977,"duration":0.07682291666665719},{"name":"C5","midi":72,"time":129.7304687500009,"velocity":0.7244094488188977,"duration":0.90625},{"name":"C4","midi":60,"time":129.80989583333425,"velocity":0.7244094488188977,"duration":0.2356770833333428},{"name":"C4","midi":60,"time":130.04817708333425,"velocity":0.7244094488188977,"duration":0.2356770833333428},{"name":"C4","midi":60,"time":130.28645833333425,"velocity":0.7244094488188977,"duration":0.2356770833333428},{"name":"A3","midi":57,"time":130.52473958333425,"velocity":0.7244094488188977,"duration":0.9427083333333428},{"name":"F5","midi":77,"time":130.76302083333425,"velocity":0.7244094488188977,"duration":0.2356770833333428},{"name":"F5","midi":77,"time":131.00130208333425,"velocity":0.7244094488188977,"duration":0.2356770833333428},{"name":"F5","midi":77,"time":131.23958333333425,"velocity":0.7244094488188977,"duration":0.2356770833333428},{"name":"C5","midi":72,"time":131.47786458333425,"velocity":0.7244094488188977,"duration":0.07682291666665719},{"name":"A#4","midi":70,"time":131.55729166666757,"velocity":0.7244094488188977,"duration":0.07682291666665719},{"name":"C5","midi":72,"time":131.63671875000088,"velocity":0.7244094488188977,"duration":0.9062499999999432},{"name":"A3","midi":57,"time":131.71614583333422,"velocity":0.7244094488188977,"duration":0.2356770833333428},{"name":"G3","midi":55,"time":131.95442708333422,"velocity":0.7244094488188977,"duration":0.07682291666665719},{"name":"A3","midi":57,"time":132.03385416666754,"velocity":0.7244094488188977,"duration":0.07682291666665719},{"name":"G3","midi":55,"time":132.11328125000085,"velocity":0.7244094488188977,"duration":0.07682291666665719},{"name":"F3","midi":53,"time":132.19270833333417,"velocity":0.7244094488188977,"duration":0.2356770833333428},{"name":"E3","midi":52,"time":132.43098958333417,"velocity":0.7244094488188977,"duration":0.9505208333333428},{"name":"C4","midi":60,"time":132.43098958333417,"velocity":0.7244094488188977,"duration":0.9505208333333428},{"name":"G3","midi":55,"time":132.43098958333417,"velocity":0.7244094488188977,"duration":0.9505208333333428},{"name":"C5","midi":72,"time":132.66927083333417,"velocity":0.7244094488188977,"duration":0.2356770833333428},{"name":"C5","midi":72,"time":132.90755208333417,"velocity":0.7244094488188977,"duration":0.2356770833333428},{"name":"C5","midi":72,"time":133.14583333333417,"velocity":0.7244094488188977,"duration":0.2356770833333428},{"name":"F3","midi":53,"time":133.38411458333417,"velocity":0.7244094488188977,"duration":2.3815104166666856},{"name":"A4","midi":69,"time":133.38411458333417,"velocity":0.7244094488188977,"duration":0.2356770833333428},{"name":"C5","midi":72,"time":133.62239583333417,"velocity":0.7244094488188977,"duration":0.2356770833333428},{"name":"A2","midi":45,"time":133.86067708333417,"velocity":0.7244094488188977,"duration":0.4739583333333428},{"name":"C5","midi":72,"time":133.86067708333417,"velocity":0.7244094488188977,"duration":0.2356770833333428},{"name":"C5","midi":72,"time":134.09895833333417,"velocity":0.7244094488188977,"duration":0.2356770833333428},{"name":"A#2","midi":46,"time":134.33723958333417,"velocity":0.7244094488188977,"duration":0.4726562500000284},{"name":"D5","midi":74,"time":134.33723958333417,"velocity":0.7244094488188977,"duration":0.09895833333334281},{"name":"C5","midi":72,"time":134.4361979166675,"velocity":0.7244094488188977,"duration":0.09895833333334281},{"name":"D5","midi":74,"time":134.53515625000085,"velocity":0.7244094488188977,"duration":0.09895833333334281},{"name":"E5","midi":76,"time":134.6341145833342,"velocity":0.7244094488188977,"duration":0.12369791666665719},{"name":"D3","midi":50,"time":134.81250000000085,"velocity":0.7244094488188977,"duration":0.4739583333333428},{"name":"F5","midi":77,"time":134.81250000000085,"velocity":0.7244094488188977,"duration":0.2356770833333428},{"name":"A#4","midi":70,"time":135.05078125000085,"velocity":0.7244094488188977,"duration":0.2356770833333428},{"name":"C3","midi":48,"time":135.28906250000085,"velocity":0.7244094488188977,"duration":0.9427083333333428},{"name":"A4","midi":69,"time":135.28906250000085,"velocity":0.7244094488188977,"duration":0.2356770833333428},{"name":"A#4","midi":70,"time":135.52734375000085,"velocity":0.7244094488188977,"duration":0.2356770833333428},{"name":"E3","midi":52,"time":135.76562500000085,"velocity":0.7244094488188977,"duration":0.4713541666666856},{"name":"G4","midi":67,"time":135.76562500000085,"velocity":0.7244094488188977,"duration":0.2356770833333428},{"name":"A4","midi":69,"time":136.00390625000085,"velocity":0.7244094488188977,"duration":0.2356770833333428},{"name":"F4","midi":65,"time":136.24218750000085,"velocity":0.7244094488188977,"duration":0.07682291666665719},{"name":"E4","midi":64,"time":136.32161458333417,"velocity":0.7244094488188977,"duration":0.07682291666665719},{"name":"F4","midi":65,"time":136.40104166666748,"velocity":0.7244094488188977,"duration":0.9427083333333428},{"name":"F3","midi":53,"time":136.48046875000082,"velocity":0.7244094488188977,"duration":0.2356770833333428},{"name":"F3","midi":53,"time":136.71875000000082,"velocity":0.7244094488188977,"duration":0.2356770833333428},{"name":"F3","midi":53,"time":136.95703125000082,"velocity":0.7244094488188977,"duration":1.4401041666666856},{"name":"F2","midi":41,"time":137.19531250000082,"velocity":0.7244094488188977,"duration":0.2356770833333428},{"name":"A2","midi":45,"time":137.43359375000082,"velocity":0.7244094488188977,"duration":0.2356770833333428},{"name":"C3","midi":48,"time":137.67187500000082,"velocity":0.7244094488188977,"duration":0.2356770833333428},{"name":"A2","midi":45,"time":137.91015625000082,"velocity":0.7244094488188977,"duration":0.2356770833333428},{"name":"F2","midi":41,"time":138.16927083333417,"velocity":0.7244094488188977,"duration":1.1914062499999716},{"name":"A4","midi":69,"time":138.40755208333417,"velocity":0.7244094488188977,"duration":0.4713541666666572},{"name":"C4","midi":60,"time":138.64583333333417,"velocity":0.7244094488188977,"duration":0.4713541666666572},{"name":"A4","midi":69,"time":138.88411458333417,"velocity":0.7244094488188977,"duration":0.23567708333331439},{"name":"D4","midi":62,"time":139.12239583333414,"velocity":0.7244094488188977,"duration":0.4713541666666572},{"name":"A#4","midi":70,"time":139.36067708333414,"velocity":0.7244094488188977,"duration":0.4713541666666572},{"name":"E4","midi":64,"time":139.59895833333414,"velocity":0.7244094488188977,"duration":0.4713541666666572},{"name":"E3","midi":52,"time":139.59895833333414,"velocity":0.7244094488188977,"duration":0.4739583333333144},{"name":"A#2","midi":46,"time":139.59895833333414,"velocity":0.7244094488188977,"duration":0.4739583333333144},{"name":"F2","midi":41,"time":139.59895833333414,"velocity":0.7244094488188977,"duration":0.4739583333333144},{"name":"C5","midi":72,"time":139.83723958333414,"velocity":0.7244094488188977,"duration":0.23567708333331439},{"name":"F4","midi":65,"time":140.0755208333341,"velocity":0.7244094488188977,"duration":0.26953125},{"name":"A4","midi":69,"time":140.0755208333341,"velocity":0.7244094488188977,"duration":0.26953125},{"name":"F3","midi":53,"time":140.0755208333341,"velocity":0.7244094488188977,"duration":1.631510416666572},{"name":"C3","midi":48,"time":140.0755208333341,"velocity":0.7244094488188977,"duration":1.631510416666572},{"name":"A2","midi":45,"time":140.0755208333341,"velocity":0.7244094488188977,"duration":1.631510416666572},{"name":"F2","midi":41,"time":140.0755208333341,"velocity":0.7244094488188977,"duration":1.631510416666572},{"name":"F5","midi":77,"time":140.34765625000077,"velocity":0.7244094488188977,"duration":0.26953125},{"name":"F5","midi":77,"time":140.61979166666742,"velocity":0.7244094488188977,"duration":0.26953125},{"name":"F5","midi":77,"time":140.89192708333408,"velocity":0.7244094488188977,"duration":0.26953125},{"name":"F5","midi":77,"time":141.16406250000074,"velocity":0.7244094488188977,"duration":0.08854166666665719},{"name":"E5","midi":76,"time":141.25520833333405,"velocity":0.7244094488188977,"duration":0.08854166666665719},{"name":"F5","midi":77,"time":141.34635416666737,"velocity":0.7244094488188977,"duration":0.08854166666665719},{"name":"F4","midi":65,"time":141.43750000000068,"velocity":0.7244094488188977,"duration":0.26953125},{"name":"C5","midi":72,"time":141.70963541666734,"velocity":0.7244094488188977,"duration":0.26953125},{"name":"E4","midi":64,"time":141.70963541666734,"velocity":0.7244094488188977,"duration":0.26953125},{"name":"G4","midi":67,"time":141.70963541666734,"velocity":0.7244094488188977,"duration":0.26953125},{"name":"A#4","midi":70,"time":141.70963541666734,"velocity":0.7244094488188977,"duration":0.26953125},{"name":"C5","midi":72,"time":141.981770833334,"velocity":0.7244094488188977,"duration":0.26953125},{"name":"A#4","midi":70,"time":141.981770833334,"velocity":0.7244094488188977,"duration":0.26953125},{"name":"G4","midi":67,"time":141.981770833334,"velocity":0.7244094488188977,"duration":0.26953125},{"name":"E4","midi":64,"time":141.981770833334,"velocity":0.7244094488188977,"duration":0.26953125},{"name":"C5","midi":72,"time":142.25390625000065,"velocity":0.7244094488188977,"duration":3.2643229166666288},{"name":"A4","midi":69,"time":142.25390625000065,"velocity":0.7244094488188977,"duration":3.2643229166666288},{"name":"F4","midi":65,"time":142.25390625000065,"velocity":0.7244094488188977,"duration":3.2643229166666288},{"name":"C4","midi":60,"time":142.5260416666673,"velocity":0.7244094488188977,"duration":2.8815104166666288},{"name":"F2","midi":41,"time":142.5260416666673,"velocity":0.7244094488188977,"duration":3.264322916666657},{"name":"A2","midi":45,"time":142.79817708333397,"velocity":0.7244094488188977,"duration":2.725260416666657},{"name":"C3","midi":48,"time":143.07031250000063,"velocity":0.7244094488188977,"duration":2.178385416666657},{"name":"F3","midi":53,"time":143.34244791666728,"velocity":0.7244094488188977,"duration":2.6093750000000284},{"name":"F5","midi":77,"time":148.25000000000065,"velocity":0.7244094488188977,"duration":0.54296875},{"name":"A4","midi":69,"time":148.7955729166673,"velocity":0.7244094488188977,"duration":0.9453125},{"name":"C5","midi":72,"time":148.7955729166673,"velocity":0.7244094488188977,"duration":0.9453125},{"name":"F5","midi":77,"time":148.7955729166673,"velocity":0.7244094488188977,"duration":0.9453125},{"name":"F3","midi":53,"time":148.7955729166673,"velocity":0.7244094488188977,"duration":2.514322916666714},{"name":"A3","midi":57,"time":149.42708333333397,"velocity":0.7244094488188977,"duration":0.6289062500000284},{"name":"F5","midi":77,"time":149.74218750000065,"velocity":0.7244094488188977,"duration":0.3138020833333428},{"name":"F5","midi":77,"time":150.05729166666734,"velocity":0.7244094488188977,"duration":0.625},{"name":"C4","midi":60,"time":150.05729166666734,"velocity":0.7244094488188977,"duration":0.6302083333333428},{"name":"F4","midi":65,"time":150.37369791666734,"velocity":0.7244094488188977,"duration":0.3138020833333428},{"name":"D5","midi":74,"time":150.68880208333402,"velocity":0.7244094488188977,"duration":0.10546875},{"name":"A#3","midi":58,"time":150.68880208333402,"velocity":0.7244094488188977,"duration":0.3138020833333428},{"name":"C5","midi":72,"time":150.79557291666737,"velocity":0.7244094488188977,"duration":0.10546875},{"name":"D5","midi":74,"time":150.9023437500007,"velocity":0.7244094488188977,"duration":0.10546875},{"name":"A3","midi":57,"time":151.0039062500007,"velocity":0.7244094488188977,"duration":0.3138020833333144},{"name":"C5","midi":72,"time":151.0078125000007,"velocity":0.7244094488188977,"duration":0.2877604166666572},{"name":"C5","midi":72,"time":151.31901041666737,"velocity":0.7244094488188977,"duration":0.23567708333331439},{"name":"G3","midi":55,"time":151.31901041666737,"velocity":0.7244094488188977,"duration":1.259114583333286},{"name":"A#4","midi":70,"time":151.53645833333402,"velocity":0.7244094488188977,"duration":0.07682291666665719},{"name":"C5","midi":72,"time":151.62109375000068,"velocity":0.7244094488188977,"duration":0.07682291666665719},{"name":"A#4","midi":70,"time":151.70572916666734,"velocity":0.7244094488188977,"duration":0.07682291666665719},{"name":"C5","midi":72,"time":151.790364583334,"velocity":0.7244094488188977,"duration":0.07682291666665719},{"name":"A#4","midi":70,"time":151.87500000000065,"velocity":0.7244094488188977,"duration":0.39453125},{"name":"E3","midi":52,"time":151.9479166666673,"velocity":0.7244094488188977,"duration":0.6302083333333428},{"name":"A4","midi":69,"time":152.2643229166673,"velocity":0.7244094488188977,"duration":0.3138020833333428},{"name":"A#4","midi":70,"time":152.579427083334,"velocity":0.7244094488188977,"duration":0.6236979166666856},{"name":"F3","midi":53,"time":152.579427083334,"velocity":0.7244094488188977,"duration":0.3138020833333428},{"name":"G3","midi":55,"time":152.89453125000068,"velocity":0.7244094488188977,"duration":0.3138020833333428},{"name":"A4","midi":69,"time":153.20833333333402,"velocity":0.7244094488188977,"duration":0.23046875},{"name":"A3","midi":57,"time":153.20963541666737,"velocity":0.7244094488188977,"duration":0.6302083333333428},{"name":"C5","midi":72,"time":153.52604166666737,"velocity":0.7244094488188977,"duration":0.3138020833333428},{"name":"A#4","midi":70,"time":153.84114583333405,"velocity":0.7244094488188977,"duration":0.109375},{"name":"F3","midi":53,"time":153.84114583333405,"velocity":0.7244094488188977,"duration":0.6302083333333428},{"name":"C5","midi":72,"time":153.94661458333405,"velocity":0.7244094488188977,"duration":0.11067708333334281},{"name":"A#4","midi":70,"time":154.05208333333405,"velocity":0.7244094488188977,"duration":0.10546875},{"name":"A4","midi":69,"time":154.15755208333405,"velocity":0.7244094488188977,"duration":0.3138020833333428},{"name":"D5","midi":74,"time":154.47265625000074,"velocity":0.7244094488188977,"duration":0.07682291666665719},{"name":"A#3","midi":58,"time":154.47265625000074,"velocity":0.7244094488188977,"duration":0.9427083333333712},{"name":"C5","midi":72,"time":154.55078125000074,"velocity":0.7244094488188977,"duration":0.07682291666665719},{"name":"D5","midi":74,"time":154.62890625000074,"velocity":0.7244094488188977,"duration":0.15625},{"name":"D#5","midi":75,"time":154.78645833333408,"velocity":0.7244094488188977,"duration":0.3138020833333428},{"name":"D5","midi":74,"time":155.10156250000077,"velocity":0.7244094488188977,"duration":0.3138020833333428},{"name":"A#2","midi":46,"time":155.10156250000077,"velocity":0.7244094488188977,"duration":1.256510416666714},{"name":"C5","midi":72,"time":155.41666666666745,"velocity":0.7244094488188977,"duration":0.3138020833333428},{"name":"A3","midi":57,"time":155.41666666666745,"velocity":0.7244094488188977,"duration":0.3138020833333428},{"name":"C5","midi":72,"time":155.73177083333414,"velocity":0.7244094488188977,"duration":0.07682291666665719},{"name":"A3","midi":57,"time":155.73177083333414,"velocity":0.7244094488188977,"duration":0.07682291666665719},{"name":"A#4","midi":70,"time":155.80989583333414,"velocity":0.7244094488188977,"duration":0.07682291666665719},{"name":"G3","midi":55,"time":155.80989583333414,"velocity":0.7244094488188977,"duration":0.07682291666665719},{"name":"C5","midi":72,"time":155.88802083333414,"velocity":0.7244094488188977,"duration":0.07682291666665719},{"name":"A3","midi":57,"time":155.88802083333414,"velocity":0.7244094488188977,"duration":0.07682291666665719},{"name":"A#4","midi":70,"time":155.96614583333414,"velocity":0.7244094488188977,"duration":0.07682291666665719},{"name":"G3","midi":55,"time":155.96614583333414,"velocity":0.7244094488188977,"duration":0.07682291666665719},{"name":"A4","midi":69,"time":156.04427083333414,"velocity":0.7244094488188977,"duration":0.3138020833333428},{"name":"F3","midi":53,"time":156.04427083333414,"velocity":0.7244094488188977,"duration":0.3138020833333428},{"name":"A4","midi":69,"time":156.35937500000082,"velocity":0.7244094488188977,"duration":0.2239583333333428},{"name":"A#2","midi":46,"time":156.35937500000082,"velocity":0.7244094488188977,"duration":0.6276041666666288},{"name":"E3","midi":52,"time":156.35937500000082,"velocity":0.7244094488188977,"duration":0.6276041666666288},{"name":"G4","midi":67,"time":156.54687500000082,"velocity":0.7244094488188977,"duration":0.078125},{"name":"A4","midi":69,"time":156.64973958333417,"velocity":0.7244094488188977,"duration":0.07682291666665719},{"name":"G4","midi":67,"time":156.73437500000082,"velocity":0.7244094488188977,"duration":0.07682291666665719},{"name":"F4","midi":65,"time":156.81901041666748,"velocity":0.7244094488188977,"duration":0.07682291666665719},{"name":"G4","midi":67,"time":156.90364583333414,"velocity":0.7244094488188977,"duration":0.07682291666665719},{"name":"A4","midi":69,"time":156.9882812500008,"velocity":0.7244094488188977,"duration":0.6302083333333428},{"name":"F3","midi":53,"time":156.9882812500008,"velocity":0.7244094488188977,"duration":0.6302083333333428},{"name":"A2","midi":45,"time":156.9882812500008,"velocity":0.7244094488188977,"duration":0.6302083333333428},{"name":"C5","midi":72,"time":157.61979166666748,"velocity":0.7244094488188977,"duration":0.10416666666665719},{"name":"E3","midi":52,"time":157.61979166666748,"velocity":0.7244094488188977,"duration":0.6315104166666572},{"name":"G2","midi":43,"time":157.61979166666748,"velocity":0.7244094488188977,"duration":0.6315104166666572},{"name":"A#4","midi":70,"time":157.72526041666748,"velocity":0.7244094488188977,"duration":0.10416666666665719},{"name":"C5","midi":72,"time":157.83072916666748,"velocity":0.7244094488188977,"duration":0.10416666666665719},{"name":"A#4","midi":70,"time":157.93619791666748,"velocity":0.7244094488188977,"duration":0.1484375},{"name":"C5","midi":72,"time":158.09505208333414,"velocity":0.7244094488188977,"duration":0.1484375},{"name":"A4","midi":69,"time":158.25260416666748,"velocity":0.7244094488188977,"duration":0.3138020833333428},{"name":"F3","midi":53,"time":158.25260416666748,"velocity":0.7244094488188977,"duration":1.2630208333333712},{"name":"F2","midi":41,"time":158.25260416666748,"velocity":0.7244094488188977,"duration":0.6289062500000284},{"name":"A#4","midi":70,"time":158.56770833333417,"velocity":0.7244094488188977,"duration":0.15625},{"name":"C5","midi":72,"time":158.7252604166675,"velocity":0.7244094488188977,"duration":0.15625},{"name":"A#4","midi":70,"time":158.88281250000085,"velocity":0.7244094488188977,"duration":0.1653645833333428},{"name":"C3","midi":48,"time":158.88281250000085,"velocity":0.7244094488188977,"duration":1.2630208333333428},{"name":"A4","midi":69,"time":159.0403645833342,"velocity":0.7244094488188977,"duration":0.09895833333334281},{"name":"A#4","midi":70,"time":159.13541666666754,"velocity":0.7244094488188977,"duration":0.10026041666665719},{"name":"A4","midi":69,"time":159.2317708333342,"velocity":0.7244094488188977,"duration":0.10026041666665719},{"name":"A#4","midi":70,"time":159.32812500000085,"velocity":0.7244094488188977,"duration":0.10026041666665719},{"name":"A4","midi":69,"time":159.4244791666675,"velocity":0.7244094488188977,"duration":0.09895833333334281},{"name":"E3","midi":52,"time":159.5169270833342,"velocity":0.7244094488188977,"duration":0.62890625},{"name":"A#4","midi":70,"time":159.5299479166675,"velocity":0.7244094488188977,"duration":0.13671875},{"name":"A4","midi":69,"time":159.6744791666675,"velocity":0.7244094488188977,"duration":0.15625},{"name":"G4","midi":67,"time":159.83203125000085,"velocity":0.7244094488188977,"duration":0.15625},{"name":"F4","midi":65,"time":159.9895833333342,"velocity":0.7244094488188977,"duration":0.15625},{"name":"F4","midi":65,"time":160.14713541666754,"velocity":0.7244094488188977,"duration":0.9466145833333428},{"name":"F3","midi":53,"time":160.14713541666754,"velocity":0.7244094488188977,"duration":1.26171875},{"name":"C4","midi":60,"time":160.46354166666754,"velocity":0.7244094488188977,"duration":0.6302083333333428},{"name":"A3","midi":57,"time":160.77994791666754,"velocity":0.7244094488188977,"duration":0.3125},{"name":"F2","midi":41,"time":160.77994791666754,"velocity":0.7244094488188977,"duration":0.62890625},{"name":"A4","midi":69,"time":161.11588541666754,"velocity":0.7244094488188977,"duration":0.3138020833333428},{"name":"F3","midi":53,"time":161.43098958333422,"velocity":0.7244094488188977,"duration":0.6263020833333428},{"name":"A4","midi":69,"time":161.43098958333422,"velocity":0.7244094488188977,"duration":0.07682291666665719},{"name":"G4","midi":67,"time":161.50911458333422,"velocity":0.7244094488188977,"duration":0.07682291666665719},{"name":"A4","midi":69,"time":161.58723958333422,"velocity":0.7244094488188977,"duration":0.07682291666665719},{"name":"G4","midi":67,"time":161.66536458333422,"velocity":0.7244094488188977,"duration":0.07682291666665719},{"name":"F4","midi":65,"time":161.74348958333422,"velocity":0.7244094488188977,"duration":0.3138020833333428},{"name":"E3","midi":52,"time":162.0585937500009,"velocity":0.7244094488188977,"duration":1.2591145833333144},{"name":"G4","midi":67,"time":162.0585937500009,"velocity":0.7244094488188977,"duration":0.07682291666665719},{"name":"F4","midi":65,"time":162.15364583333422,"velocity":0.7244094488188977,"duration":0.07682291666665719},{"name":"G4","midi":67,"time":162.24869791666754,"velocity":0.7244094488188977,"duration":0.4596354166666856},{"name":"G3","midi":55,"time":162.37369791666754,"velocity":0.7244094488188977,"duration":0.3138020833333428},{"name":"C4","midi":60,"time":162.68880208333422,"velocity":0.7244094488188977,"duration":0.62890625},{"name":"D5","midi":74,"time":163.00390625000088,"velocity":0.7244094488188977,"duration":0.3138020833333428},{"name":"D3","midi":50,"time":163.31901041666757,"velocity":0.7244094488188977,"duration":0.6289062500000284},{"name":"B3","midi":59,"time":163.31901041666757,"velocity":0.7244094488188977,"duration":0.6289062500000284},{"name":"D5","midi":74,"time":163.31901041666757,"velocity":0.7244094488188977,"duration":0.3138020833333428},{"name":"D5","midi":74,"time":163.63411458333425,"velocity":0.7244094488188977,"duration":0.3138020833333428},{"name":"C4","midi":60,"time":163.94921875000094,"velocity":0.7244094488188977,"duration":2.513020833333485},{"name":"E5","midi":76,"time":163.94921875000094,"velocity":0.7244094488188977,"duration":0.07682291666665719},{"name":"D5","midi":74,"time":164.02734375000094,"velocity":0.7244094488188977,"duration":0.07682291666665719},{"name":"E5","midi":76,"time":164.10546875000094,"velocity":0.7244094488188977,"duration":0.15625},{"name":"G4","midi":67,"time":164.26302083333428,"velocity":0.7244094488188977,"duration":0.3138020833333428},{"name":"C3","midi":48,"time":164.57812500000097,"velocity":0.7244094488188977,"duration":0.6289062500000284},{"name":"A4","midi":69,"time":164.57812500000097,"velocity":0.7244094488188977,"duration":0.3138020833333428},{"name":"B4","midi":71,"time":164.89322916666765,"velocity":0.7244094488188977,"duration":0.3138020833333428},{"name":"E3","midi":52,"time":165.20833333333434,"velocity":0.7244094488188977,"duration":0.6289062500000284},{"name":"C5","midi":72,"time":165.20833333333434,"velocity":0.7244094488188977,"duration":0.3138020833333428},{"name":"G4","midi":67,"time":165.52343750000102,"velocity":0.7244094488188977,"duration":0.3138020833333428},{"name":"F3","midi":53,"time":165.8385416666677,"velocity":0.7244094488188977,"duration":1.8906250000001137},{"name":"A4","midi":69,"time":165.8385416666677,"velocity":0.7244094488188977,"duration":0.08723958333334281},{"name":"G4","midi":67,"time":165.92968750000105,"velocity":0.7244094488188977,"duration":0.08723958333334281},{"name":"A4","midi":69,"time":166.0208333333344,"velocity":0.7244094488188977,"duration":0.1302083333333428},{"name":"C5","midi":72,"time":166.15625000000108,"velocity":0.7244094488188977,"duration":0.3138020833333428},{"name":"A3","midi":57,"time":166.47135416666777,"velocity":0.7244094488188977,"duration":0.6289062500000284},{"name":"D5","midi":74,"time":166.47135416666777,"velocity":0.7244094488188977,"duration":0.3138020833333428},{"name":"E5","midi":76,"time":166.78645833333445,"velocity":0.7244094488188977,"duration":0.3138020833333428},{"name":"D4","midi":62,"time":167.10156250000114,"velocity":0.7244094488188977,"duration":1.2591145833333997},{"name":"F5","midi":77,"time":167.10156250000114,"velocity":0.7244094488188977,"duration":0.3138020833333428},{"name":"A4","midi":69,"time":167.41666666666782,"velocity":0.7244094488188977,"duration":0.3138020833333428},{"name":"G3","midi":55,"time":167.7317708333345,"velocity":0.7244094488188977,"duration":3.776041666666771},{"name":"B4","midi":71,"time":167.7317708333345,"velocity":0.7244094488188977,"duration":0.3138020833333428},{"name":"D5","midi":74,"time":168.0468750000012,"velocity":0.7244094488188977,"duration":0.3138020833333428},{"name":"B3","midi":59,"time":168.36197916666788,"velocity":0.7244094488188977,"duration":0.6276041666666856},{"name":"E5","midi":76,"time":168.36197916666788,"velocity":0.7244094488188977,"duration":0.07682291666665719},{"name":"D5","midi":74,"time":168.44010416666788,"velocity":0.7244094488188977,"duration":0.07682291666665719},{"name":"E5","midi":76,"time":168.51822916666788,"velocity":0.7244094488188977,"duration":0.15625},{"name":"F5","midi":77,"time":168.67578125000122,"velocity":0.7244094488188977,"duration":0.3138020833333428},{"name":"F4","midi":65,"time":168.9908854166679,"velocity":0.7244094488188977,"duration":0.6289062500000284},{"name":"G5","midi":79,"time":168.9908854166679,"velocity":0.7244094488188977,"duration":0.3138020833333428},{"name":"B4","midi":71,"time":169.3059895833346,"velocity":0.7244094488188977,"duration":0.3138020833333428},{"name":"E4","midi":64,"time":169.62109375000128,"velocity":0.7244094488188977,"duration":0.6315104166666572},{"name":"C5","midi":72,"time":169.62109375000128,"velocity":0.7244094488188977,"duration":0.12890625},{"name":"B4","midi":71,"time":169.74479166666794,"velocity":0.7244094488188977,"duration":0.12890625},{"name":"C5","midi":72,"time":169.87760416666794,"velocity":0.7244094488188977,"duration":0.1302083333333428},{"name":"D5","midi":74,"time":170.01432291666794,"velocity":0.7244094488188977,"duration":0.2330729166666572},{"name":"D4","midi":62,"time":170.25390625000128,"velocity":0.7244094488188977,"duration":1.2591145833333428},{"name":"C5","midi":72,"time":170.25390625000128,"velocity":0.7244094488188977,"duration":0.2109375},{"name":"B4","midi":71,"time":170.49088541666794,"velocity":0.7244094488188977,"duration":0.07682291666665719},{"name":"C5","midi":72,"time":170.56901041666794,"velocity":0.7244094488188977,"duration":0.07682291666665719},{"name":"B4","midi":71,"time":170.64713541666794,"velocity":0.7244094488188977,"duration":0.07682291666665719},{"name":"C5","midi":72,"time":170.72526041666794,"velocity":0.7244094488188977,"duration":0.07682291666665719},{"name":"B4","midi":71,"time":170.80338541666794,"velocity":0.7244094488188977,"duration":0.3971354166666856},{"name":"F4","midi":65,"time":170.88281250000128,"velocity":0.7244094488188977,"duration":0.625},{"name":"C5","midi":72,"time":171.19921875000128,"velocity":0.7244094488188977,"duration":0.3138020833333428},{"name":"C5","midi":72,"time":171.51432291666796,"velocity":0.7244094488188977,"duration":0.07682291666665719},{"name":"B4","midi":71,"time":171.59244791666796,"velocity":0.7244094488188977,"duration":0.07682291666665719},{"name":"C5","midi":72,"time":171.67057291666796,"velocity":0.7244094488188977,"duration":0.7877604166666856},{"name":"C3","midi":48,"time":171.8281250000013,"velocity":0.7244094488188977,"duration":1.576822916666714},{"name":"E3","midi":52,"time":172.1445312500013,"velocity":0.7244094488188977,"duration":1.2473958333333712},{"name":"G3","midi":55,"time":172.459635416668,"velocity":0.7244094488188977,"duration":0.3138020833333428},{"name":"G4","midi":67,"time":172.459635416668,"velocity":0.7244094488188977,"duration":0.3138020833333428},{"name":"G4","midi":67,"time":172.795572916668,"velocity":0.7244094488188977,"duration":0.3138020833333428},{"name":"C4","midi":60,"time":172.795572916668,"velocity":0.7244094488188977,"duration":0.6236979166666856},{"name":"G4","midi":67,"time":173.11067708333468,"velocity":0.7244094488188977,"duration":0.3138020833333428},{"name":"G#4","midi":68,"time":173.42578125000136,"velocity":0.7244094488188977,"duration":0.07682291666665719},{"name":"G4","midi":67,"time":173.50390625000136,"velocity":0.7244094488188977,"duration":0.07682291666665719},{"name":"G#4","midi":68,"time":173.58203125000136,"velocity":0.7244094488188977,"duration":0.4596354166666856},{"name":"F4","midi":65,"time":173.7395833333347,"velocity":0.7244094488188977,"duration":0.6236979166666856},{"name":"C5","midi":72,"time":174.0546875000014,"velocity":0.7244094488188977,"duration":0.6236979166666572},{"name":"F4","midi":65,"time":174.36979166666805,"velocity":0.7244094488188977,"duration":0.3138020833333428},{"name":"F4","midi":65,"time":174.68489583333474,"velocity":0.7244094488188977,"duration":0.07682291666665719},{"name":"B3","midi":59,"time":174.68489583333474,"velocity":0.7244094488188977,"duration":0.6263020833333428},{"name":"D3","midi":50,"time":174.68489583333474,"velocity":0.7244094488188977,"duration":0.6263020833333428},{"name":"F3","midi":53,"time":174.68489583333474,"velocity":0.7244094488188977,"duration":0.6263020833333428},{"name":"E4","midi":64,"time":174.76302083333474,"velocity":0.7244094488188977,"duration":0.07682291666665719},{"name":"F4","midi":65,"time":174.84114583333474,"velocity":0.7244094488188977,"duration":0.07682291666665719},{"name":"E4","midi":64,"time":174.91927083333474,"velocity":0.7244094488188977,"duration":0.07682291666665719},{"name":"F4","midi":65,"time":174.99739583333474,"velocity":0.7244094488188977,"duration":0.3138020833333428},{"name":"G#4","midi":68,"time":175.31250000000142,"velocity":0.7244094488188977,"duration":0.07682291666665719},{"name":"C4","midi":60,"time":175.31250000000142,"velocity":0.7244094488188977,"duration":0.9414062500000284},{"name":"C3","midi":48,"time":175.31250000000142,"velocity":0.7244094488188977,"duration":1.2578125000000284},{"name":"F3","midi":53,"time":175.31250000000142,"velocity":0.7244094488188977,"duration":0.07682291666665719},{"name":"G4","midi":67,"time":175.39062500000142,"velocity":0.7244094488188977,"duration":0.07682291666665719},{"name":"E3","midi":52,"time":175.39062500000142,"velocity":0.7244094488188977,"duration":0.07682291666665719},{"name":"G#4","midi":68,"time":175.46875000000142,"velocity":0.7244094488188977,"duration":0.07682291666665719},{"name":"F3","midi":53,"time":175.46875000000142,"velocity":0.7244094488188977,"duration":0.07682291666665719},{"name":"G4","midi":67,"time":175.54687500000142,"velocity":0.7244094488188977,"duration":0.7122395833333712},{"name":"E3","midi":52,"time":175.54687500000142,"velocity":0.7244094488188977,"duration":0.07682291666665719},{"name":"D3","midi":50,"time":175.62500000000142,"velocity":0.7244094488188977,"duration":0.3138020833333428},{"name":"E3","midi":52,"time":175.9401041666681,"velocity":0.7244094488188977,"duration":1.2591145833333712},{"name":"G3","midi":55,"time":176.2552083333348,"velocity":0.7244094488188977,"duration":0.3151041666666572},{"name":"G2","midi":43,"time":176.5716145833348,"velocity":0.7244094488188977,"duration":0.6223958333333428},{"name":"C4","midi":60,"time":176.5716145833348,"velocity":0.7244094488188977,"duration":0.07682291666665719},{"name":"B3","midi":59,"time":176.6497395833348,"velocity":0.7244094488188977,"duration":0.07682291666665719},{"name":"C4","midi":60,"time":176.7278645833348,"velocity":0.7244094488188977,"duration":0.15625},{"name":"C4","midi":60,"time":176.88541666666814,"velocity":0.7244094488188977,"duration":0.3138020833333428},{"name":"C4","midi":60,"time":177.20052083333482,"velocity":0.7244094488188977,"duration":1.8932291666666856},{"name":"E3","midi":52,"time":177.20052083333482,"velocity":0.7244094488188977,"duration":1.8932291666666856},{"name":"G3","midi":55,"time":177.20052083333482,"velocity":0.7244094488188977,"duration":1.8932291666666856},{"name":"C3","midi":48,"time":177.20052083333482,"velocity":0.7244094488188977,"duration":1.8932291666666856},{"name":"G4","midi":67,"time":178.77994791666816,"velocity":0.7244094488188977,"duration":0.3138020833333428},{"name":"E4","midi":64,"time":179.09505208333485,"velocity":0.7244094488188977,"duration":0.9440104166666856},{"name":"G4","midi":67,"time":179.09505208333485,"velocity":0.7244094488188977,"duration":0.9440104166666856},{"name":"C4","midi":60,"time":179.09505208333485,"velocity":0.7244094488188977,"duration":0.07682291666665719},{"name":"B3","midi":59,"time":179.17317708333485,"velocity":0.7244094488188977,"duration":0.07682291666665719},{"name":"C4","midi":60,"time":179.25130208333485,"velocity":0.7244094488188977,"duration":0.47265625},{"name":"C3","midi":48,"time":179.7252604166682,"velocity":0.7244094488188977,"duration":0.6289062500000284},{"name":"G4","midi":67,"time":180.04036458333488,"velocity":0.7244094488188977,"duration":0.3138020833333428},{"name":"A4","midi":69,"time":180.35546875000156,"velocity":0.7244094488188977,"duration":0.09244791666665719},{"name":"A#2","midi":46,"time":180.35546875000156,"velocity":0.7244094488188977,"duration":0.6302083333333144},{"name":"G4","midi":67,"time":180.45442708333488,"velocity":0.7244094488188977,"duration":0.09244791666665719},{"name":"A4","midi":69,"time":180.5533854166682,"velocity":0.7244094488188977,"duration":0.11328125},{"name":"A#4","midi":70,"time":180.67187500000153,"velocity":0.7244094488188977,"duration":0.3138020833333428},{"name":"C5","midi":72,"time":180.98697916666822,"velocity":0.7244094488188977,"duration":0.3138020833333428},{"name":"A2","midi":45,"time":180.98697916666822,"velocity":0.7244094488188977,"duration":1.8919270833333997},{"name":"F4","midi":65,"time":181.3020833333349,"velocity":0.7244094488188977,"duration":0.3138020833333428},{"name":"G4","midi":67,"time":181.6171875000016,"velocity":0.7244094488188977,"duration":0.15625},{"name":"C3","midi":48,"time":181.6171875000016,"velocity":0.7244094488188977,"duration":0.6315104166666856},{"name":"F4","midi":65,"time":181.77473958333493,"velocity":0.7244094488188977,"duration":0.0859375},{"name":"G4","midi":67,"time":181.86458333333493,"velocity":0.7244094488188977,"duration":0.0859375},{"name":"F4","midi":65,"time":181.95052083333493,"velocity":0.7244094488188977,"duration":0.5598958333333428},{"name":"F3","midi":53,"time":182.25000000000162,"velocity":0.7244094488188977,"duration":0.9453125000000284},{"name":"D#4","midi":63,"time":182.56640625000162,"velocity":0.7244094488188977,"duration":0.3138020833333428},{"name":"D#4","midi":63,"time":182.8815104166683,"velocity":0.7244094488188977,"duration":0.3138020833333428},{"name":"A#2","midi":46,"time":182.8815104166683,"velocity":0.7244094488188977,"duration":1.2591145833333997},{"name":"D4","midi":62,"time":183.196614583335,"velocity":0.7244094488188977,"duration":0.6289062500000284},{"name":"D3","midi":50,"time":183.196614583335,"velocity":0.7244094488188977,"duration":0.3138020833333428},{"name":"G3","midi":55,"time":183.51171875000168,"velocity":0.7244094488188977,"duration":0.6289062500000284},{"name":"A#4","midi":70,"time":183.82682291666836,"velocity":0.7244094488188977,"duration":0.3138020833333428},{"name":"A#4","midi":70,"time":184.14192708333505,"velocity":0.7244094488188977,"duration":0.07682291666665719},{"name":"C3","midi":48,"time":184.14192708333505,"velocity":0.7244094488188977,"duration":0.62109375},{"name":"C4","midi":60,"time":184.14192708333505,"velocity":0.7244094488188977,"duration":0.3111979166666572},{"name":"A4","midi":69,"time":184.22005208333505,"velocity":0.7244094488188977,"duration":0.07682291666665719},{"name":"A#4","midi":70,"time":184.29817708333505,"velocity":0.7244094488188977,"duration":0.07682291666665719},{"name":"A4","midi":69,"time":184.37630208333505,"velocity":0.7244094488188977,"duration":0.07682291666665719},{"name":"G4","midi":67,"time":184.45442708333505,"velocity":0.7244094488188977,"duration":0.3138020833333428},{"name":"A#3","midi":58,"time":184.45442708333505,"velocity":0.7244094488188977,"duration":0.3138020833333428},{"name":"G4","midi":67,"time":184.76953125000173,"velocity":0.7244094488188977,"duration":0.07682291666665719},{"name":"D3","midi":50,"time":184.76953125000173,"velocity":0.7244094488188977,"duration":0.9401041666666856},{"name":"A3","midi":57,"time":184.76953125000173,"velocity":0.7244094488188977,"duration":0.62109375},{"name":"F#4","midi":66,"time":184.84765625000173,"velocity":0.7244094488188977,"duration":0.07682291666665719},{"name":"G4","midi":67,"time":184.92578125000173,"velocity":0.7244094488188977,"duration":0.07682291666665719},{"name":"F#4","midi":66,"time":185.00390625000173,"velocity":0.7244094488188977,"duration":0.07682291666665719},{"name":"D4","midi":62,"time":185.08203125000173,"velocity":0.7244094488188977,"duration":0.3138020833333428},{"name":"D5","midi":74,"time":185.39713541666842,"velocity":0.7244094488188977,"duration":0.07682291666665719},{"name":"C5","midi":72,"time":185.47526041666842,"velocity":0.7244094488188977,"duration":0.07682291666665719},{"name":"D5","midi":74,"time":185.55338541666842,"velocity":0.7244094488188977,"duration":0.7864583333333712},{"name":"D#3","midi":51,"time":185.71093750000176,"velocity":0.7244094488188977,"duration":0.3138020833333428},{"name":"D3","midi":50,"time":186.02604166666845,"velocity":0.7244094488188977,"duration":0.3138020833333428},{"name":"D5","midi":74,"time":186.34114583333513,"velocity":0.7244094488188977,"duration":0.3138020833333428},{"name":"C3","midi":48,"time":186.34114583333513,"velocity":0.7244094488188977,"duration":0.3138020833333428},{"name":"D5","midi":74,"time":186.65625000000182,"velocity":0.7244094488188977,"duration":0.9453125000000284},{"name":"A#2","midi":46,"time":186.65625000000182,"velocity":0.7244094488188977,"duration":1.260416666666714},{"name":"D3","midi":50,"time":186.97265625000182,"velocity":0.7244094488188977,"duration":0.3138020833333428},{"name":"G3","midi":55,"time":187.2877604166685,"velocity":0.7244094488188977,"duration":0.6289062500000284},{"name":"D#5","midi":75,"time":187.6028645833352,"velocity":0.7244094488188977,"duration":0.3138020833333428},{"name":"D#5","midi":75,"time":187.91796875000188,"velocity":0.7244094488188977,"duration":0.07682291666665719},{"name":"F#3","midi":54,"time":187.91796875000188,"velocity":0.7244094488188977,"duration":0.6263020833333428},{"name":"A2","midi":45,"time":187.91796875000188,"velocity":0.7244094488188977,"duration":0.6263020833333428},{"name":"D5","midi":74,"time":187.99609375000188,"velocity":0.7244094488188977,"duration":0.07682291666665719},{"name":"D#5","midi":75,"time":188.07421875000188,"velocity":0.7244094488188977,"duration":0.07682291666665719},{"name":"D5","midi":74,"time":188.15234375000188,"velocity":0.7244094488188977,"duration":0.07682291666665719},{"name":"C5","midi":72,"time":188.23046875000188,"velocity":0.7244094488188977,"duration":0.3138020833333428},{"name":"B4","midi":71,"time":188.54557291666856,"velocity":0.7244094488188977,"duration":0.885416666666714},{"name":"G2","midi":43,"time":188.54557291666856,"velocity":0.7244094488188977,"duration":0.3138020833333428},{"name":"G3","midi":55,"time":188.54557291666856,"velocity":0.7244094488188977,"duration":0.3138020833333428},{"name":"G#3","midi":56,"time":188.86067708333525,"velocity":0.7244094488188977,"duration":0.3138020833333428},{"name":"G3","midi":55,"time":189.17578125000193,"velocity":0.7244094488188977,"duration":0.3138020833333428},{"name":"D5","midi":74,"time":189.49088541666862,"velocity":0.7244094488188977,"duration":0.3138020833333428},{"name":"F3","midi":53,"time":189.49088541666862,"velocity":0.7244094488188977,"duration":0.3138020833333428},{"name":"D5","midi":74,"time":189.8059895833353,"velocity":0.7244094488188977,"duration":0.3138020833333428},{"name":"D#3","midi":51,"time":189.8059895833353,"velocity":0.7244094488188977,"duration":0.3138020833333428},{"name":"D5","midi":74,"time":190.121093750002,"velocity":0.7244094488188977,"duration":0.3138020833333428},{"name":"D3","midi":50,"time":190.121093750002,"velocity":0.7244094488188977,"duration":0.3138020833333428},{"name":"D#5","midi":75,"time":190.43619791666868,"velocity":0.7244094488188977,"duration":0.07682291666665719},{"name":"C3","midi":48,"time":190.43619791666868,"velocity":0.7244094488188977,"duration":0.3125},{"name":"D5","midi":74,"time":190.51432291666868,"velocity":0.7244094488188977,"duration":0.07682291666665719},{"name":"D#5","midi":75,"time":190.59244791666868,"velocity":0.7244094488188977,"duration":0.7864583333333712},{"name":"B2","midi":47,"time":190.75000000000202,"velocity":0.7244094488188977,"duration":0.3138020833333428},{"name":"C3","midi":48,"time":191.0651041666687,"velocity":0.7244094488188977,"duration":0.3138020833333428},{"name":"D5","midi":74,"time":191.3802083333354,"velocity":0.7244094488188977,"duration":0.3138020833333428},{"name":"D3","midi":50,"time":191.3802083333354,"velocity":0.7244094488188977,"duration":0.3138020833333428},{"name":"C5","midi":72,"time":191.69531250000207,"velocity":0.7244094488188977,"duration":0.3138020833333428},{"name":"D#3","midi":51,"time":191.69531250000207,"velocity":0.7244094488188977,"duration":0.3138020833333428},{"name":"D5","midi":74,"time":192.01041666666876,"velocity":0.7244094488188977,"duration":0.3138020833333428},{"name":"F3","midi":53,"time":192.01041666666876,"velocity":0.7244094488188977,"duration":0.3138020833333428},{"name":"B4","midi":71,"time":192.32552083333545,"velocity":0.7244094488188977,"duration":0.10416666666665719},{"name":"G3","midi":55,"time":192.32552083333545,"velocity":0.7244094488188977,"duration":1.2591145833333428},{"name":"A4","midi":69,"time":192.43098958333545,"velocity":0.7244094488188977,"duration":0.10416666666665719},{"name":"B4","midi":71,"time":192.53645833333545,"velocity":0.7244094488188977,"duration":0.10416666666665719},{"name":"C5","midi":72,"time":192.64192708333545,"velocity":0.7244094488188977,"duration":0.3138020833333428},{"name":"C3","midi":48,"time":192.64192708333545,"velocity":0.7244094488188977,"duration":0.3138020833333428},{"name":"A#4","midi":70,"time":192.95703125000213,"velocity":0.7244094488188977,"duration":0.07682291666665719},{"name":"D3","midi":50,"time":192.95703125000213,"velocity":0.7244094488188977,"duration":1.2591145833333428},{"name":"A4","midi":69,"time":193.03515625000213,"velocity":0.7244094488188977,"duration":0.07682291666665719},{"name":"A#4","midi":70,"time":193.11328125000213,"velocity":0.7244094488188977,"duration":0.07682291666665719},{"name":"A4","midi":69,"time":193.19140625000213,"velocity":0.7244094488188977,"duration":0.625},{"name":"F#3","midi":54,"time":193.58593750000213,"velocity":0.7244094488188977,"duration":0.6302083333333428},{"name":"G4","midi":67,"time":193.90234375000213,"velocity":0.7244094488188977,"duration":0.3138020833333428},{"name":"G4","midi":67,"time":194.21744791666882,"velocity":0.7244094488188977,"duration":0.07682291666665719},{"name":"G3","midi":55,"time":194.21744791666882,"velocity":0.7244094488188977,"duration":0.3125},{"name":"F4","midi":65,"time":194.29557291666882,"velocity":0.7244094488188977,"duration":0.07682291666665719},{"name":"G4","midi":67,"time":194.37369791666882,"velocity":0.7244094488188977,"duration":0.6250000000000284},{"name":"F#3","midi":54,"time":194.53125000000216,"velocity":0.7244094488188977,"duration":0.3138020833333428},{"name":"G3","midi":55,"time":194.84635416666885,"velocity":0.7244094488188977,"duration":0.3138020833333428},{"name":"B4","midi":71,"time":195.16145833333553,"velocity":0.7244094488188977,"duration":0.3138020833333428},{"name":"A3","midi":57,"time":195.16145833333553,"velocity":0.7244094488188977,"duration":0.3138020833333428},{"name":"B4","midi":71,"time":195.47656250000222,"velocity":0.7244094488188977,"duration":0.3111979166666572},{"name":"A3","midi":57,"time":195.47656250000222,"velocity":0.7244094488188977,"duration":0.07682291666665719},{"name":"G3","midi":55,"time":195.55468750000222,"velocity":0.7244094488188977,"duration":0.07682291666665719},{"name":"A3","midi":57,"time":195.63281250000222,"velocity":0.7244094488188977,"duration":0.07682291666665719},{"name":"G3","midi":55,"time":195.71093750000222,"velocity":0.7244094488188977,"duration":0.07682291666665719},{"name":"B4","midi":71,"time":195.78906250000222,"velocity":0.7244094488188977,"duration":0.3138020833333428},{"name":"F3","midi":53,"time":195.78906250000222,"velocity":0.7244094488188977,"duration":0.3138020833333428},{"name":"C5","midi":72,"time":196.1041666666689,"velocity":0.7244094488188977,"duration":0.07682291666665719},{"name":"E3","midi":52,"time":196.1041666666689,"velocity":0.7244094488188977,"duration":0.9414062500000284},{"name":"B4","midi":71,"time":196.1822916666689,"velocity":0.7244094488188977,"duration":0.07682291666665719},{"name":"C5","midi":72,"time":196.2604166666689,"velocity":0.7244094488188977,"duration":0.15625},{"name":"G4","midi":67,"time":196.41796875000225,"velocity":0.7244094488188977,"duration":0.3138020833333428},{"name":"G5","midi":79,"time":196.73307291666893,"velocity":0.7244094488188977,"duration":0.07682291666665719},{"name":"F5","midi":77,"time":196.81119791666893,"velocity":0.7244094488188977,"duration":0.07682291666665719},{"name":"G5","midi":79,"time":196.88932291666893,"velocity":0.7244094488188977,"duration":0.7838541666666856},{"name":"D3","midi":50,"time":197.04687500000227,"velocity":0.7244094488188977,"duration":0.3138020833333428},{"name":"D3","midi":50,"time":197.36197916666896,"velocity":0.7244094488188977,"duration":0.07682291666665719},{"name":"C3","midi":48,"time":197.44010416666896,"velocity":0.7244094488188977,"duration":0.07682291666665719},{"name":"D3","midi":50,"time":197.51822916666896,"velocity":0.7244094488188977,"duration":0.07682291666665719},{"name":"C3","midi":48,"time":197.59635416666896,"velocity":0.7244094488188977,"duration":0.07682291666665719},{"name":"G5","midi":79,"time":197.67447916666896,"velocity":0.7244094488188977,"duration":0.3138020833333428},{"name":"B2","midi":47,"time":197.67447916666896,"velocity":0.7244094488188977,"duration":0.3138020833333428},{"name":"E5","midi":76,"time":197.98958333333564,"velocity":0.7244094488188977,"duration":0.3138020833333428},{"name":"C3","midi":48,"time":197.98958333333564,"velocity":0.7244094488188977,"duration":0.3138020833333428},{"name":"F5","midi":77,"time":198.30468750000233,"velocity":0.7244094488188977,"duration":0.3138020833333428},{"name":"B2","midi":47,"time":198.30468750000233,"velocity":0.7244094488188977,"duration":0.3138020833333428},{"name":"E5","midi":76,"time":198.61979166666902,"velocity":0.7244094488188977,"duration":0.3138020833333428},{"name":"C3","midi":48,"time":198.61979166666902,"velocity":0.7244094488188977,"duration":0.3138020833333428},{"name":"D5","midi":74,"time":198.9348958333357,"velocity":0.7244094488188977,"duration":0.3138020833333428},{"name":"D3","midi":50,"time":198.9348958333357,"velocity":0.7244094488188977,"duration":0.3138020833333428},{"name":"D5","midi":74,"time":199.2500000000024,"velocity":0.7244094488188977,"duration":0.07682291666665719},{"name":"E3","midi":52,"time":199.2500000000024,"velocity":0.7244094488188977,"duration":0.3111979166666572},{"name":"C5","midi":72,"time":199.3281250000024,"velocity":0.7244094488188977,"duration":0.07682291666665719},{"name":"D5","midi":74,"time":199.4062500000024,"velocity":0.7244094488188977,"duration":0.07682291666665719},{"name":"C5","midi":72,"time":199.4843750000024,"velocity":0.7244094488188977,"duration":0.07682291666665719},{"name":"A#4","midi":70,"time":199.5625000000024,"velocity":0.7244094488188977,"duration":0.3138020833333428},{"name":"C3","midi":48,"time":199.5625000000024,"velocity":0.7244094488188977,"duration":0.3138020833333428},{"name":"A4","midi":69,"time":199.87760416666907,"velocity":0.7244094488188977,"duration":0.3138020833333428},{"name":"F3","midi":53,"time":199.87760416666907,"velocity":0.7244094488188977,"duration":0.9414062500000284},{"name":"F4","midi":65,"time":200.19270833333576,"velocity":0.7244094488188977,"duration":0.3138020833333428},{"name":"G5","midi":79,"time":200.50781250000244,"velocity":0.7244094488188977,"duration":0.07682291666665719},{"name":"F5","midi":77,"time":200.58593750000244,"velocity":0.7244094488188977,"duration":0.07682291666665719},{"name":"G5","midi":79,"time":200.66406250000244,"velocity":0.7244094488188977,"duration":0.07682291666665719},{"name":"F5","midi":77,"time":200.74218750000244,"velocity":0.7244094488188977,"duration":0.6236979166666856},{"name":"D3","midi":50,"time":200.82031250000244,"velocity":0.7244094488188977,"duration":0.3138020833333428},{"name":"E3","midi":52,"time":201.13541666666913,"velocity":0.7244094488188977,"duration":0.3138020833333428},{"name":"D5","midi":74,"time":201.45052083333582,"velocity":0.7244094488188977,"duration":0.3138020833333428},{"name":"F3","midi":53,"time":201.45052083333582,"velocity":0.7244094488188977,"duration":0.3138020833333428},{"name":"C5","midi":72,"time":201.7656250000025,"velocity":0.7244094488188977,"duration":0.07682291666665719},{"name":"G3","midi":55,"time":201.7656250000025,"velocity":0.7244094488188977,"duration":0.9401041666666856},{"name":"A#4","midi":70,"time":201.8437500000025,"velocity":0.7244094488188977,"duration":0.07682291666665719},{"name":"C5","midi":72,"time":201.9218750000025,"velocity":0.7244094488188977,"duration":0.07682291666665719},{"name":"A#4","midi":70,"time":202.0000000000025,"velocity":0.7244094488188977,"duration":0.07682291666665719},{"name":"G4","midi":67,"time":202.0781250000025,"velocity":0.7244094488188977,"duration":0.3138020833333428},{"name":"G5","midi":79,"time":202.3932291666692,"velocity":0.7244094488188977,"duration":0.07682291666665719},{"name":"F5","midi":77,"time":202.4713541666692,"velocity":0.7244094488188977,"duration":0.07682291666665719},{"name":"G5","midi":79,"time":202.5494791666692,"velocity":0.7244094488188977,"duration":0.7864583333333712},{"name":"E3","midi":52,"time":202.70703125000253,"velocity":0.7244094488188977,"duration":0.3138020833333428},{"name":"F3","midi":53,"time":203.02213541666922,"velocity":0.7244094488188977,"duration":0.3138020833333428},{"name":"E5","midi":76,"time":203.3372395833359,"velocity":0.7244094488188977,"duration":0.3138020833333428},{"name":"G3","midi":55,"time":203.3372395833359,"velocity":0.7244094488188977,"duration":0.3138020833333428},{"name":"D5","midi":74,"time":203.6523437500026,"velocity":0.7244094488188977,"duration":0.07682291666665719},{"name":"A3","midi":57,"time":203.6523437500026,"velocity":0.7244094488188977,"duration":0.9414062500000284},{"name":"C5","midi":72,"time":203.7304687500026,"velocity":0.7244094488188977,"duration":0.07682291666665719},{"name":"D5","midi":74,"time":203.8085937500026,"velocity":0.7244094488188977,"duration":0.07682291666665719},{"name":"C5","midi":72,"time":203.8867187500026,"velocity":0.7244094488188977,"duration":0.07682291666665719},{"name":"A4","midi":69,"time":203.9648437500026,"velocity":0.7244094488188977,"duration":0.3138020833333428},{"name":"F5","midi":77,"time":204.27994791666927,"velocity":0.7244094488188977,"duration":0.1575520833333428},{"name":"E5","midi":76,"time":204.43750000000261,"velocity":0.7244094488188977,"duration":0.1575520833333428},{"name":"F5","midi":77,"time":204.59505208333596,"velocity":0.7244094488188977,"duration":0.6236979166666856},{"name":"G3","midi":55,"time":204.59505208333596,"velocity":0.7244094488188977,"duration":0.3138020833333428},{"name":"A3","midi":57,"time":204.91015625000264,"velocity":0.7244094488188977,"duration":0.3138020833333428},{"name":"D#5","midi":75,"time":205.22526041666933,"velocity":0.7244094488188977,"duration":0.3138020833333428},{"name":"F3","midi":53,"time":205.22526041666933,"velocity":0.7244094488188977,"duration":0.3138020833333428},{"name":"D5","midi":74,"time":205.54036458333601,"velocity":0.7244094488188977,"duration":0.3138020833333428},{"name":"A#3","midi":58,"time":205.54036458333601,"velocity":0.7244094488188977,"duration":0.6289062500000284},{"name":"D#5","midi":75,"time":205.8554687500027,"velocity":0.7244094488188977,"duration":0.3138020833333428},{"name":"D5","midi":74,"time":206.17057291666939,"velocity":0.7244094488188977,"duration":0.3138020833333428},{"name":"A#2","midi":46,"time":206.17057291666939,"velocity":0.7244094488188977,"duration":1.260416666666714},{"name":"C5","midi":72,"time":206.48567708333607,"velocity":0.7244094488188977,"duration":0.3138020833333428},{"name":"A#4","midi":70,"time":206.80078125000276,"velocity":0.7244094488188977,"duration":0.10416666666665719},{"name":"F3","midi":53,"time":206.80078125000276,"velocity":0.7244094488188977,"duration":0.6302083333333428},{"name":"C5","midi":72,"time":206.90625000000276,"velocity":0.7244094488188977,"duration":0.10416666666665719},{"name":"A#4","midi":70,"time":207.01171875000276,"velocity":0.7244094488188977,"duration":0.10416666666665719},{"name":"A4","midi":69,"time":207.11718750000276,"velocity":0.7244094488188977,"duration":0.3138020833333428},{"name":"G4","midi":67,"time":207.43229166666944,"velocity":0.7244094488188977,"duration":0.3138020833333428},{"name":"D3","midi":50,"time":207.43229166666944,"velocity":0.7244094488188977,"duration":1.888020833333428},{"name":"G3","midi":55,"time":207.43229166666944,"velocity":0.7244094488188977,"duration":2.506510416666771},{"name":"B2","midi":47,"time":207.43229166666944,"velocity":0.7244094488188977,"duration":1.888020833333428},{"name":"A4","midi":69,"time":207.74739583333613,"velocity":0.7244094488188977,"duration":0.3138020833333428},{"name":"D4","midi":62,"time":208.0625000000028,"velocity":0.7244094488188977,"duration":0.3138020833333428},{"name":"E4","midi":64,"time":208.3776041666695,"velocity":0.7244094488188977,"duration":0.3138020833333428},{"name":"F4","midi":65,"time":208.69270833333618,"velocity":0.7244094488188977,"duration":0.07682291666665719},{"name":"E4","midi":64,"time":208.77083333333618,"velocity":0.7244094488188977,"duration":0.07682291666665719},{"name":"F4","midi":65,"time":208.84895833333618,"velocity":0.7244094488188977,"duration":0.15625},{"name":"G4","midi":67,"time":209.00651041666953,"velocity":0.7244094488188977,"duration":0.3138020833333428},{"name":"F4","midi":65,"time":209.3216145833362,"velocity":0.7244094488188977,"duration":0.15625},{"name":"C3","midi":48,"time":209.3216145833362,"velocity":0.7244094488188977,"duration":0.3125},{"name":"E4","midi":64,"time":209.47916666666956,"velocity":0.7244094488188977,"duration":0.07682291666665719},{"name":"F4","midi":65,"time":209.55729166666956,"velocity":0.7244094488188977,"duration":0.07682291666665719},{"name":"E4","midi":64,"time":209.63541666666956,"velocity":0.7244094488188977,"duration":0.07682291666665719},{"name":"D3","midi":50,"time":209.63541666666956,"velocity":0.7244094488188977,"duration":0.3111979166666572},{"name":"F4","midi":65,"time":209.71354166666956,"velocity":0.7244094488188977,"duration":0.07682291666665719},{"name":"E4","midi":64,"time":209.79166666666956,"velocity":0.7244094488188977,"duration":0.07682291666665719},{"name":"F4","midi":65,"time":209.86979166666956,"velocity":0.7244094488188977,"duration":0.07682291666665719},{"name":"E4","midi":64,"time":209.94791666666956,"velocity":0.7244094488188977,"duration":0.3138020833333428},{"name":"E3","midi":52,"time":209.94791666666956,"velocity":0.7244094488188977,"duration":0.3138020833333428},{"name":"D3","midi":50,"time":210.28385416666956,"velocity":0.7244094488188977,"duration":0.3138020833333428},{"name":"G4","midi":67,"time":210.28385416666956,"velocity":0.7244094488188977,"duration":0.3138020833333428},{"name":"C3","midi":48,"time":210.59895833333624,"velocity":0.7244094488188977,"duration":0.3151041666666572},{"name":"A#4","midi":70,"time":210.59895833333624,"velocity":0.7244094488188977,"duration":0.09895833333334281},{"name":"A4","midi":69,"time":210.70442708333624,"velocity":0.7244094488188977,"duration":0.09895833333334281},{"name":"A#4","midi":70,"time":210.80989583333624,"velocity":0.7244094488188977,"duration":0.3932291666666572},{"name":"A#2","midi":46,"time":210.91536458333624,"velocity":0.7244094488188977,"duration":0.3138020833333144},{"name":"A2","midi":45,"time":211.2304687500029,"velocity":0.7244094488188977,"duration":1.888020833333428},{"name":"C5","midi":72,"time":211.2304687500029,"velocity":0.7244094488188977,"duration":0.3138020833333428},{"name":"D5","midi":74,"time":211.54557291666958,"velocity":0.7244094488188977,"duration":0.3138020833333428},{"name":"C3","midi":48,"time":211.86067708333627,"velocity":0.7244094488188977,"duration":0.6289062500000284},{"name":"D#5","midi":75,"time":211.86067708333627,"velocity":0.7244094488188977,"duration":0.3138020833333428},{"name":"C5","midi":72,"time":212.17578125000296,"velocity":0.7244094488188977,"duration":0.3138020833333428},{"name":"F3","midi":53,"time":212.49088541666964,"velocity":0.7244094488188977,"duration":0.944010416666714},{"name":"F5","midi":77,"time":212.49088541666964,"velocity":0.7244094488188977,"duration":0.3138020833333428},{"name":"D#5","midi":75,"time":212.80598958333633,"velocity":0.7244094488188977,"duration":0.3138020833333428},{"name":"A#2","midi":46,"time":213.121093750003,"velocity":0.7244094488188977,"duration":1.8854166666667425},{"name":"D5","midi":74,"time":213.121093750003,"velocity":0.7244094488188977,"duration":0.944010416666714},{"name":"D#3","midi":51,"time":213.4361979166697,"velocity":0.7244094488188977,"duration":0.3138020833333428},{"name":"D3","midi":50,"time":213.75130208333638,"velocity":0.7244094488188977,"duration":0.3138020833333428},{"name":"D#3","midi":51,"time":214.06640625000307,"velocity":0.7244094488188977,"duration":0.3138020833333428},{"name":"D5","midi":74,"time":214.06640625000307,"velocity":0.7244094488188977,"duration":0.3138020833333428},{"name":"D3","midi":50,"time":214.38151041666976,"velocity":0.7244094488188977,"duration":0.3111979166666572},{"name":"F5","midi":77,"time":214.38151041666976,"velocity":0.7244094488188977,"duration":0.07682291666665719},{"name":"D#5","midi":75,"time":214.45963541666976,"velocity":0.7244094488188977,"duration":0.07682291666665719},{"name":"F5","midi":77,"time":214.53776041666976,"velocity":0.7244094488188977,"duration":0.07682291666665719},{"name":"D#5","midi":75,"time":214.61588541666976,"velocity":0.7244094488188977,"duration":0.07682291666665719},{"name":"C3","midi":48,"time":214.69401041666976,"velocity":0.7244094488188977,"duration":0.3138020833333428},{"name":"F5","midi":77,"time":214.69401041666976,"velocity":0.7244094488188977,"duration":0.3138020833333428},{"name":"A#2","midi":46,"time":215.00911458333644,"velocity":0.7244094488188977,"duration":1.888020833333428},{"name":"G5","midi":79,"time":215.00911458333644,"velocity":0.7244094488188977,"duration":0.09895833333334281},{"name":"F5","midi":77,"time":215.10807291666978,"velocity":0.7244094488188977,"duration":0.09895833333334281},{"name":"G5","midi":79,"time":215.20703125000313,"velocity":0.7244094488188977,"duration":0.09895833333334281},{"name":"A5","midi":81,"time":215.32552083333647,"velocity":0.7244094488188977,"duration":0.3138020833333428},{"name":"D3","midi":50,"time":215.64062500000315,"velocity":0.7244094488188977,"duration":0.6289062500000284},{"name":"A#5","midi":82,"time":215.64062500000315,"velocity":0.7244094488188977,"duration":0.3138020833333428},{"name":"D5","midi":74,"time":215.95572916666984,"velocity":0.7244094488188977,"duration":0.3138020833333428},{"name":"G3","midi":55,"time":216.27083333333653,"velocity":0.7244094488188977,"duration":2.5117187500001137},{"name":"E5","midi":76,"time":216.27083333333653,"velocity":0.7244094488188977,"duration":0.07682291666665719},{"name":"D5","midi":74,"time":216.34895833333653,"velocity":0.7244094488188977,"duration":0.07682291666665719},{"name":"E5","midi":76,"time":216.42708333333653,"velocity":0.7244094488188977,"duration":0.15625},{"name":"F5","midi":77,"time":216.58463541666987,"velocity":0.7244094488188977,"duration":0.3138020833333428},{"name":"C3","midi":48,"time":216.89973958333655,"velocity":0.7244094488188977,"duration":0.6289062500000284},{"name":"E5","midi":76,"time":216.89973958333655,"velocity":0.7244094488188977,"duration":0.3138020833333428},{"name":"F5","midi":77,"time":217.21484375000324,"velocity":0.7244094488188977,"duration":0.3138020833333428},{"name":"D3","midi":50,"time":217.52994791666993,"velocity":0.7244094488188977,"duration":0.6289062500000284},{"name":"E5","midi":76,"time":217.52994791666993,"velocity":0.7244094488188977,"duration":0.3138020833333428},{"name":"D5","midi":74,"time":217.8450520833366,"velocity":0.7244094488188977,"duration":0.3138020833333428},{"name":"E3","midi":52,"time":218.1601562500033,"velocity":0.7244094488188977,"duration":0.6302083333333428},{"name":"C5","midi":72,"time":218.1601562500033,"velocity":0.7244094488188977,"duration":0.10546875},{"name":"D5","midi":74,"time":218.2656250000033,"velocity":0.7244094488188977,"duration":0.10546875},{"name":"C5","midi":72,"time":218.3710937500033,"velocity":0.7244094488188977,"duration":0.10546875},{"name":"A#4","midi":70,"time":218.4765625000033,"velocity":0.7244094488188977,"duration":0.3138020833333428},{"name":"F3","midi":53,"time":218.79166666666998,"velocity":0.7244094488188977,"duration":1.2552083333333712},{"name":"A4","midi":69,"time":218.79166666666998,"velocity":0.7244094488188977,"duration":0.3138020833333428},{"name":"A#2","midi":46,"time":219.10677083333667,"velocity":0.7244094488188977,"duration":0.3138020833333428},{"name":"A#4","midi":70,"time":219.10677083333667,"velocity":0.7244094488188977,"duration":0.3138020833333428},{"name":"C3","midi":48,"time":219.42187500000335,"velocity":0.7244094488188977,"duration":1.2552083333333712},{"name":"A4","midi":69,"time":219.42187500000335,"velocity":0.7244094488188977,"duration":0.15625},{"name":"G4","midi":67,"time":219.5794270833367,"velocity":0.7244094488188977,"duration":0.07682291666665719},{"name":"A4","midi":69,"time":219.6575520833367,"velocity":0.7244094488188977,"duration":0.07682291666665719},{"name":"G4","midi":67,"time":219.7356770833367,"velocity":0.7244094488188977,"duration":0.07682291666665719},{"name":"A4","midi":69,"time":219.8138020833367,"velocity":0.7244094488188977,"duration":0.07682291666665719},{"name":"G4","midi":67,"time":219.8919270833367,"velocity":0.7244094488188977,"duration":0.07682291666665719},{"name":"A4","midi":69,"time":219.9700520833367,"velocity":0.7244094488188977,"duration":0.07682291666665719},{"name":"E3","midi":52,"time":220.0481770833367,"velocity":0.7244094488188977,"duration":0.6289062500000284},{"name":"G4","midi":67,"time":220.0481770833367,"velocity":0.7244094488188977,"duration":0.3138020833333428},{"name":"F4","midi":65,"time":220.36328125000338,"velocity":0.7244094488188977,"duration":0.3138020833333428},{"name":"F3","midi":53,"time":220.67838541667007,"velocity":0.7244094488188977,"duration":0.62890625},{"name":"F4","midi":65,"time":220.67838541667007,"velocity":0.7244094488188977,"duration":0.07682291666665719},{"name":"E4","midi":64,"time":220.75651041667007,"velocity":0.7244094488188977,"duration":0.07682291666665719},{"name":"F4","midi":65,"time":220.83463541667007,"velocity":0.7244094488188977,"duration":0.7877604166666856},{"name":"F2","midi":41,"time":221.3085937500034,"velocity":0.7244094488188977,"duration":4.191406250000114},{"name":"C5","midi":72,"time":221.6236979166701,"velocity":0.7244094488188977,"duration":0.3138020833333428},{"name":"C3","midi":48,"time":221.93880208333678,"velocity":0.7244094488188977,"duration":3.5611979166667425},{"name":"A4","midi":69,"time":221.93880208333678,"velocity":0.7244094488188977,"duration":0.3138020833333428},{"name":"A4","midi":69,"time":222.25390625000347,"velocity":0.7244094488188977,"duration":0.3138020833333428},{"name":"F3","midi":53,"time":222.56901041667015,"velocity":0.7244094488188977,"duration":2.9309895833333712},{"name":"F4","midi":65,"time":222.56901041667015,"velocity":0.7244094488188977,"duration":2.9309895833333712},{"name":"A#4","midi":70,"time":222.56901041667015,"velocity":0.7244094488188977,"duration":0.08072916666668561},{"name":"A4","midi":69,"time":222.6484375000035,"velocity":0.7244094488188977,"duration":0.07682291666668561},{"name":"A#4","midi":70,"time":222.72656250000352,"velocity":0.7244094488188977,"duration":0.07682291666665719},{"name":"A4","midi":69,"time":222.80468750000352,"velocity":0.7244094488188977,"duration":2.8203125},{"name":"C4","midi":60,"time":227.35807291667018,"velocity":0.7244094488188977,"duration":0.2981770833333428},{"name":"F3","midi":53,"time":227.35807291667018,"velocity":0.7244094488188977,"duration":2.388020833333428},{"name":"A5","midi":81,"time":227.35807291667018,"velocity":0.7244094488188977,"duration":0.2981770833333428},{"name":"A#3","midi":58,"time":227.65755208333687,"velocity":0.7244094488188977,"duration":0.2981770833333428},{"name":"G5","midi":79,"time":227.65755208333687,"velocity":0.7244094488188977,"duration":0.2981770833333428},{"name":"A3","midi":57,"time":227.95703125000355,"velocity":0.7244094488188977,"duration":0.2981770833333428},{"name":"F5","midi":77,"time":227.95703125000355,"velocity":0.7244094488188977,"duration":0.2981770833333428},{"name":"G3","midi":55,"time":228.25651041667024,"velocity":0.7244094488188977,"duration":0.2981770833333428},{"name":"E5","midi":76,"time":228.25651041667024,"velocity":0.7244094488188977,"duration":0.2981770833333428},{"name":"A3","midi":57,"time":228.55598958333692,"velocity":0.7244094488188977,"duration":0.59765625},{"name":"F5","midi":77,"time":228.55598958333692,"velocity":0.7244094488188977,"duration":0.3294270833333428},{"name":"C5","midi":72,"time":228.89192708333692,"velocity":0.7244094488188977,"duration":0.2591145833333428},{"name":"G3","midi":55,"time":229.15494791667027,"velocity":0.7244094488188977,"duration":1.1979166666666856},{"name":"C5","midi":72,"time":229.15494791667027,"velocity":0.7244094488188977,"duration":0.09895833333334281},{"name":"A#4","midi":70,"time":229.26432291667027,"velocity":0.7244094488188977,"duration":0.109375},{"name":"C5","midi":72,"time":229.37369791667027,"velocity":0.7244094488188977,"duration":0.109375},{"name":"A#4","midi":70,"time":229.48307291667027,"velocity":0.7244094488188977,"duration":0.109375},{"name":"C5","midi":72,"time":229.59244791667027,"velocity":0.7244094488188977,"duration":0.109375},{"name":"A#4","midi":70,"time":229.70182291667027,"velocity":0.7244094488188977,"duration":0.10937500000002842},{"name":"E3","midi":52,"time":229.75520833333695,"velocity":0.7244094488188977,"duration":0.59765625},{"name":"C5","midi":72,"time":229.8111979166703,"velocity":0.7244094488188977,"duration":0.109375},{"name":"A#4","midi":70,"time":229.9205729166703,"velocity":0.7244094488188977,"duration":0.109375},{"name":"A4","midi":69,"time":230.0299479166703,"velocity":0.7244094488188977,"duration":0.109375},{"name":"A#4","midi":70,"time":230.1393229166703,"velocity":0.7244094488188977,"duration":0.109375},{"name":"C5","midi":72,"time":230.2486979166703,"velocity":0.7244094488188977,"duration":0.10807291666665719},{"name":"F2","midi":41,"time":230.3541666666703,"velocity":0.7244094488188977,"duration":0.5950520833333428},{"name":"F3","midi":53,"time":230.3541666666703,"velocity":0.7244094488188977,"duration":0.5950520833333428},{"name":"A#4","midi":70,"time":230.3541666666703,"velocity":0.7244094488188977,"duration":0.07291666666665719},{"name":"A4","midi":69,"time":230.4283854166703,"velocity":0.7244094488188977,"duration":0.07291666666665719},{"name":"A#4","midi":70,"time":230.5026041666703,"velocity":0.7244094488188977,"duration":0.07291666666665719},{"name":"A4","midi":69,"time":230.5768229166703,"velocity":0.7244094488188977,"duration":0.07291666666665719},{"name":"F4","midi":65,"time":230.6510416666703,"velocity":0.7244094488188977,"duration":0.2981770833333428},{"name":"F3","midi":53,"time":230.95052083333698,"velocity":0.7244094488188977,"duration":1.794270833333428},{"name":"F4","midi":65,"time":230.95052083333698,"velocity":0.7244094488188977,"duration":0.2981770833333428},{"name":"A5","midi":81,"time":230.95052083333698,"velocity":0.7244094488188977,"duration":0.2981770833333428},{"name":"E4","midi":64,"time":231.25000000000367,"velocity":0.7244094488188977,"duration":0.2981770833333428},{"name":"G5","midi":79,"time":231.25000000000367,"velocity":0.7244094488188977,"duration":0.2981770833333428},{"name":"D4","midi":62,"time":231.54947916667035,"velocity":0.7244094488188977,"duration":0.2981770833333428},{"name":"F5","midi":77,"time":231.54947916667035,"velocity":0.7244094488188977,"duration":0.2981770833333428},{"name":"C4","midi":60,"time":231.84895833333704,"velocity":0.7244094488188977,"duration":0.2981770833333428},{"name":"E5","midi":76,"time":231.84895833333704,"velocity":0.7244094488188977,"duration":0.2981770833333428},{"name":"F4","midi":65,"time":232.14843750000372,"velocity":0.7244094488188977,"duration":0.2981770833333428},{"name":"D5","midi":74,"time":232.14843750000372,"velocity":0.7244094488188977,"duration":0.3138020833333428},{"name":"E4","midi":64,"time":232.4479166666704,"velocity":0.7244094488188977,"duration":0.2981770833333428},{"name":"C5","midi":72,"time":232.4479166666704,"velocity":0.7244094488188977,"duration":0.28125},{"name":"D4","midi":62,"time":232.7473958333371,"velocity":0.7244094488188977,"duration":1.1979166666666856},{"name":"G3","midi":55,"time":232.7473958333371,"velocity":0.7244094488188977,"duration":1.1979166666666856},{"name":"C5","midi":72,"time":232.7473958333371,"velocity":0.7244094488188977,"duration":0.1263020833333428},{"name":"B4","midi":71,"time":232.8723958333371,"velocity":0.7244094488188977,"duration":0.09895833333334281},{"name":"C5","midi":72,"time":232.9661458333371,"velocity":0.7244094488188977,"duration":0.09895833333334281},{"name":"B4","midi":71,"time":233.0598958333371,"velocity":0.7244094488188977,"duration":0.09895833333334281},{"name":"C5","midi":72,"time":233.1536458333371,"velocity":0.7244094488188977,"duration":0.09895833333334281},{"name":"B4","midi":71,"time":233.2473958333371,"velocity":0.7244094488188977,"duration":0.3984375},{"name":"C5","midi":72,"time":233.64713541667044,"velocity":0.7244094488188977,"duration":0.2981770833333428},{"name":"C3","midi":48,"time":233.94661458333712,"velocity":0.7244094488188977,"duration":0.5989583333333428},{"name":"C4","midi":60,"time":233.94661458333712,"velocity":0.7244094488188977,"duration":0.5989583333333428},{"name":"C5","midi":72,"time":233.94661458333712,"velocity":0.7244094488188977,"duration":0.5989583333333428},{"name":"C4","midi":60,"time":234.5468750000038,"velocity":0.7244094488188977,"duration":1.1966145833333997},{"name":"E4","midi":64,"time":234.5468750000038,"velocity":0.7244094488188977,"duration":1.1966145833333997},{"name":"G5","midi":79,"time":234.5468750000038,"velocity":0.7244094488188977,"duration":0.2981770833333428},{"name":"F5","midi":77,"time":234.8463541666705,"velocity":0.7244094488188977,"duration":0.2981770833333428},{"name":"G5","midi":79,"time":235.14583333333718,"velocity":0.7244094488188977,"duration":0.2981770833333428},{"name":"A#5","midi":82,"time":235.44531250000387,"velocity":0.7244094488188977,"duration":0.2981770833333428},{"name":"F3","midi":53,"time":235.74479166667055,"velocity":0.7244094488188977,"duration":0.5976562500000284},{"name":"F4","midi":65,"time":235.74479166667055,"velocity":0.7244094488188977,"duration":0.5976562500000284},{"name":"A5","midi":81,"time":235.74479166667055,"velocity":0.7244094488188977,"duration":0.1484375},{"name":"G5","midi":79,"time":235.8945312500039,"velocity":0.7244094488188977,"duration":0.1484375},{"name":"A5","midi":81,"time":236.04427083333724,"velocity":0.7244094488188977,"duration":0.1484375},{"name":"A#5","midi":82,"time":236.19401041667058,"velocity":0.7244094488188977,"duration":0.1484375},{"name":"E4","midi":64,"time":236.34375000000392,"velocity":0.7244094488188977,"duration":1.7955729166667425},{"name":"C4","midi":60,"time":236.34375000000392,"velocity":0.7244094488188977,"duration":1.7955729166667425},{"name":"G5","midi":79,"time":236.34375000000392,"velocity":0.7244094488188977,"duration":0.2981770833333428},{"name":"F5","midi":77,"time":236.6432291666706,"velocity":0.7244094488188977,"duration":0.2981770833333428},{"name":"E5","midi":76,"time":236.9427083333373,"velocity":0.7244094488188977,"duration":0.2981770833333428},{"name":"F5","midi":77,"time":237.24218750000398,"velocity":0.7244094488188977,"duration":0.2981770833333428},{"name":"G5","midi":79,"time":237.54166666667066,"velocity":0.7244094488188977,"duration":0.078125},{"name":"F5","midi":77,"time":237.617187500004,"velocity":0.7244094488188977,"duration":0.07682291666665719},{"name":"G5","midi":79,"time":237.691406250004,"velocity":0.7244094488188977,"duration":0.4375},{"name":"C#4","midi":61,"time":238.140625000004,"velocity":0.7244094488188977,"duration":0.5976562500000284},{"name":"E4","midi":64,"time":238.140625000004,"velocity":0.7244094488188977,"duration":0.5976562500000284},{"name":"A5","midi":81,"time":238.140625000004,"velocity":0.7244094488188977,"duration":0.2981770833333428},{"name":"G5","midi":79,"time":238.4401041666707,"velocity":0.7244094488188977,"duration":0.2981770833333428},{"name":"D4","midi":62,"time":238.73958333333738,"velocity":0.7244094488188977,"duration":0.2981770833333428},{"name":"F5","midi":77,"time":238.73958333333738,"velocity":0.7244094488188977,"duration":0.2981770833333428},{"name":"C4","midi":60,"time":239.03906250000406,"velocity":0.7244094488188977,"duration":0.2981770833333428},{"name":"E5","midi":76,"time":239.03906250000406,"velocity":0.7244094488188977,"duration":0.2981770833333428},{"name":"A#3","midi":58,"time":239.33854166667075,"velocity":0.7244094488188977,"duration":0.2981770833333428},{"name":"D5","midi":74,"time":239.33854166667075,"velocity":0.7244094488188977,"duration":0.2981770833333428},{"name":"A3","midi":57,"time":239.63802083333744,"velocity":0.7244094488188977,"duration":0.2981770833333428},{"name":"E5","midi":76,"time":239.63802083333744,"velocity":0.7244094488188977,"duration":0.2981770833333428},{"name":"A3","midi":57,"time":239.93750000000412,"velocity":0.7244094488188977,"duration":0.5963541666666856},{"name":"D5","midi":74,"time":239.93750000000412,"velocity":0.7244094488188977,"duration":0.2252604166666572},{"name":"C#5","midi":73,"time":240.16276041667078,"velocity":0.7244094488188977,"duration":0.10026041666668561},{"name":"D5","midi":74,"time":240.24609375000412,"velocity":0.7244094488188977,"duration":0.09895833333334281},{"name":"C#5","midi":73,"time":240.32812500000412,"velocity":0.7244094488188977,"duration":0.09895833333334281},{"name":"D5","midi":74,"time":240.41015625000412,"velocity":0.7244094488188977,"duration":0.09895833333334281},{"name":"C#5","midi":73,"time":240.49218750000412,"velocity":0.7244094488188977,"duration":0.31770833333337123},{"name":"A2","midi":45,"time":240.53515625000415,"velocity":0.7244094488188977,"duration":0.5976562500000284},{"name":"D5","midi":74,"time":240.83463541667084,"velocity":0.7244094488188977,"duration":0.2981770833333428},{"name":"D3","midi":50,"time":241.13411458333752,"velocity":0.7244094488188977,"duration":0.5989583333333428},{"name":"D5","midi":74,"time":241.13411458333752,"velocity":0.7244094488188977,"duration":0.5989583333333428},{"name":"A3","midi":57,"time":241.7343750000042,"velocity":0.7244094488188977,"duration":0.2981770833333428},{"name":"D3","midi":50,"time":241.7343750000042,"velocity":0.7244094488188977,"duration":1.1966145833333997},{"name":"F5","midi":77,"time":241.7343750000042,"velocity":0.7244094488188977,"duration":0.2981770833333428},{"name":"G3","midi":55,"time":242.0338541666709,"velocity":0.7244094488188977,"duration":0.2981770833333428},{"name":"E5","midi":76,"time":242.0338541666709,"velocity":0.7244094488188977,"duration":0.2981770833333428},{"name":"F3","midi":53,"time":242.33333333333758,"velocity":0.7244094488188977,"duration":0.5976562500000284},{"name":"D5","midi":74,"time":242.33333333333758,"velocity":0.7244094488188977,"duration":0.2981770833333428},{"name":"E5","midi":76,"time":242.63281250000426,"velocity":0.7244094488188977,"duration":0.2981770833333428},{"name":"G3","midi":55,"time":242.93229166667095,"velocity":0.7244094488188977,"duration":0.5976562500000284},{"name":"E3","midi":52,"time":242.93229166667095,"velocity":0.7244094488188977,"duration":0.5976562500000284},{"name":"C5","midi":72,"time":242.93229166667095,"velocity":0.7244094488188977,"duration":0.2981770833333428},{"name":"A#4","midi":70,"time":243.23177083333763,"velocity":0.7244094488188977,"duration":0.2981770833333428},{"name":"F3","midi":53,"time":243.53125000000432,"velocity":0.7244094488188977,"duration":0.897135416666714},{"name":"A4","midi":69,"time":243.53125000000432,"velocity":0.7244094488188977,"duration":0.2981770833333428},{"name":"A#4","midi":70,"time":243.830729166671,"velocity":0.7244094488188977,"duration":0.2981770833333428},{"name":"F2","midi":41,"time":244.1302083333377,"velocity":0.7244094488188977,"duration":0.5937500000000284},{"name":"A4","midi":69,"time":244.1302083333377,"velocity":0.7244094488188977,"duration":0.2981770833333428},{"name":"E3","midi":52,"time":244.42968750000438,"velocity":0.7244094488188977,"duration":0.2994791666666856},{"name":"G4","midi":67,"time":244.42968750000438,"velocity":0.7244094488188977,"duration":0.2994791666666856},{"name":"D3","midi":50,"time":244.7304687500044,"velocity":0.7244094488188977,"duration":0.2981770833333428},{"name":"F4","midi":65,"time":244.7304687500044,"velocity":0.7244094488188977,"duration":0.5976562500000284},{"name":"C3","midi":48,"time":245.0299479166711,"velocity":0.7244094488188977,"duration":0.2981770833333428},{"name":"A#2","midi":46,"time":245.32942708333778,"velocity":0.7244094488188977,"duration":0.2981770833333428},{"name":"G4","midi":67,"time":245.32942708333778,"velocity":0.7244094488188977,"duration":0.2981770833333428},{"name":"A2","midi":45,"time":245.62890625000446,"velocity":0.7244094488188977,"duration":0.2981770833333428},{"name":"A4","midi":69,"time":245.62890625000446,"velocity":0.7244094488188977,"duration":0.2981770833333428},{"name":"G2","midi":43,"time":245.92838541667115,"velocity":0.7244094488188977,"duration":0.5937500000000284},{"name":"D3","midi":50,"time":245.92838541667115,"velocity":0.7244094488188977,"duration":0.2981770833333428},{"name":"A#4","midi":70,"time":245.92838541667115,"velocity":0.7244094488188977,"duration":0.2981770833333428},{"name":"E3","midi":52,"time":246.22786458333783,"velocity":0.7244094488188977,"duration":0.2994791666666856},{"name":"C5","midi":72,"time":246.22786458333783,"velocity":0.7244094488188977,"duration":0.2994791666666856},{"name":"F2","midi":41,"time":246.52864583333786,"velocity":0.7244094488188977,"duration":0.2981770833333428},{"name":"F3","midi":53,"time":246.52864583333786,"velocity":0.7244094488188977,"duration":1.1979166666667709},{"name":"A4","midi":69,"time":246.52864583333786,"velocity":0.7244094488188977,"duration":0.2981770833333428},{"name":"A#2","midi":46,"time":246.82812500000455,"velocity":0.7244094488188977,"duration":0.2981770833333428},{"name":"A#4","midi":70,"time":246.82812500000455,"velocity":0.7244094488188977,"duration":0.2981770833333428},{"name":"C3","midi":48,"time":247.12760416667123,"velocity":0.7244094488188977,"duration":1.1979166666667709},{"name":"A4","midi":69,"time":247.12760416667123,"velocity":0.7244094488188977,"duration":0.1979166666666572},{"name":"G4","midi":67,"time":247.32682291667123,"velocity":0.7244094488188977,"duration":0.09895833333334281},{"name":"A4","midi":69,"time":247.42708333333792,"velocity":0.7244094488188977,"duration":0.09895833333334281},{"name":"G4","midi":67,"time":247.5273437500046,"velocity":0.7244094488188977,"duration":0.09895833333334281},{"name":"A4","midi":69,"time":247.6276041666713,"velocity":0.7244094488188977,"duration":0.09895833333334281},{"name":"E3","midi":52,"time":247.72786458333798,"velocity":0.7244094488188977,"duration":0.5976562500000284},{"name":"G4","midi":67,"time":247.72786458333798,"velocity":0.7244094488188977,"duration":0.2981770833333428},{"name":"F4","midi":65,"time":248.02734375000466,"velocity":0.7244094488188977,"duration":0.2981770833333428},{"name":"F2","midi":41,"time":248.32682291667135,"velocity":0.7244094488188977,"duration":0.5989583333333428},{"name":"F3","midi":53,"time":248.32682291667135,"velocity":0.7244094488188977,"duration":0.5989583333333428},{"name":"F4","midi":65,"time":248.32682291667135,"velocity":0.7244094488188977,"duration":0.5989583333333428},{"name":"F3","midi":53,"time":248.92708333333803,"velocity":0.7244094488188977,"duration":1.1966145833333997},{"name":"F4","midi":65,"time":248.92708333333803,"velocity":0.7244094488188977,"duration":0.2981770833333428},{"name":"A5","midi":81,"time":248.92708333333803,"velocity":0.7244094488188977,"duration":0.1484375},{"name":"A#5","midi":82,"time":249.07682291667138,"velocity":0.7244094488188977,"duration":0.1484375},{"name":"E4","midi":64,"time":249.22656250000472,"velocity":0.7244094488188977,"duration":0.2981770833333428},{"name":"A5","midi":81,"time":249.22656250000472,"velocity":0.7244094488188977,"duration":0.1484375},{"name":"G5","midi":79,"time":249.37630208333806,"velocity":0.7244094488188977,"duration":0.1484375},{"name":"D4","midi":62,"time":249.5260416666714,"velocity":0.7244094488188977,"duration":0.1484375},{"name":"F5","midi":77,"time":249.5260416666714,"velocity":0.7244094488188977,"duration":0.1484375},{"name":"E4","midi":64,"time":249.67578125000475,"velocity":0.7244094488188977,"duration":0.1484375},{"name":"G5","midi":79,"time":249.67578125000475,"velocity":0.7244094488188977,"duration":0.1484375},{"name":"D4","midi":62,"time":249.8255208333381,"velocity":0.7244094488188977,"duration":0.1484375},{"name":"F5","midi":77,"time":249.8255208333381,"velocity":0.7244094488188977,"duration":0.1484375},{"name":"C4","midi":60,"time":249.97526041667143,"velocity":0.7244094488188977,"duration":0.1484375},{"name":"E5","midi":76,"time":249.97526041667143,"velocity":0.7244094488188977,"duration":0.1484375},{"name":"A#3","midi":58,"time":250.12500000000477,"velocity":0.7244094488188977,"duration":0.1484375},{"name":"D5","midi":74,"time":250.12500000000477,"velocity":0.7244094488188977,"duration":0.1484375},{"name":"C4","midi":60,"time":250.27473958333812,"velocity":0.7244094488188977,"duration":0.1484375},{"name":"E5","midi":76,"time":250.27473958333812,"velocity":0.7244094488188977,"duration":0.1484375},{"name":"A#3","midi":58,"time":250.42447916667146,"velocity":0.7244094488188977,"duration":0.1484375},{"name":"D5","midi":74,"time":250.42447916667146,"velocity":0.7244094488188977,"duration":0.1484375},{"name":"A3","midi":57,"time":250.5742187500048,"velocity":0.7244094488188977,"duration":0.1484375},{"name":"C5","midi":72,"time":250.5742187500048,"velocity":0.7244094488188977,"duration":0.1484375},{"name":"G3","midi":55,"time":250.72395833333815,"velocity":0.7244094488188977,"duration":0.2981770833333428},{"name":"A#4","midi":70,"time":250.72395833333815,"velocity":0.7244094488188977,"duration":0.1484375},{"name":"A4","midi":69,"time":250.8736979166715,"velocity":0.7244094488188977,"duration":0.1484375},{"name":"F3","midi":53,"time":251.02343750000483,"velocity":0.7244094488188977,"duration":0.2981770833333428},{"name":"A#4","midi":70,"time":251.02343750000483,"velocity":0.7244094488188977,"duration":0.1484375},{"name":"C5","midi":72,"time":251.17317708333817,"velocity":0.7244094488188977,"duration":0.1484375},{"name":"E3","midi":52,"time":251.32291666667152,"velocity":0.7244094488188977,"duration":0.1484375},{"name":"A#4","midi":70,"time":251.32291666667152,"velocity":0.7244094488188977,"duration":0.1484375},{"name":"C3","midi":48,"time":251.47265625000486,"velocity":0.7244094488188977,"duration":0.1484375},{"name":"D5","midi":74,"time":251.47265625000486,"velocity":0.7244094488188977,"duration":0.1484375},{"name":"D3","midi":50,"time":251.6223958333382,"velocity":0.7244094488188977,"duration":0.1484375},{"name":"C5","midi":72,"time":251.6223958333382,"velocity":0.7244094488188977,"duration":0.1484375},{"name":"E3","midi":52,"time":251.77213541667155,"velocity":0.7244094488188977,"duration":0.1484375},{"name":"A#4","midi":70,"time":251.77213541667155,"velocity":0.7244094488188977,"duration":0.1484375},{"name":"F3","midi":53,"time":251.9218750000049,"velocity":0.7244094488188977,"duration":0.1484375},{"name":"A4","midi":69,"time":251.9218750000049,"velocity":0.7244094488188977,"duration":0.10026041666665719},{"name":"A#4","midi":70,"time":252.02213541667155,"velocity":0.7244094488188977,"duration":0.09895833333334281},{"name":"C3","midi":48,"time":252.07161458333823,"velocity":0.7244094488188977,"duration":0.1484375},{"name":"A4","midi":69,"time":252.1210937500049,"velocity":0.7244094488188977,"duration":0.10026041666668561},{"name":"A2","midi":45,"time":252.22135416667157,"velocity":0.7244094488188977,"duration":0.1484375},{"name":"F4","midi":65,"time":252.22135416667157,"velocity":0.7244094488188977,"duration":0.2981770833333428},{"name":"C3","midi":48,"time":252.37109375000492,"velocity":0.7244094488188977,"duration":0.1484375},{"name":"F2","midi":41,"time":252.52083333333826,"velocity":0.7244094488188977,"duration":0.5976562500000284},{"name":"A5","midi":81,"time":252.52083333333826,"velocity":0.7244094488188977,"duration":0.1484375},{"name":"A#5","midi":82,"time":252.6705729166716,"velocity":0.7244094488188977,"duration":0.1484375},{"name":"A5","midi":81,"time":252.82031250000495,"velocity":0.7244094488188977,"duration":0.1484375},{"name":"G5","midi":79,"time":252.9700520833383,"velocity":0.7244094488188977,"duration":0.1484375},{"name":"F3","midi":53,"time":253.11979166667163,"velocity":0.7244094488188977,"duration":1.1966145833333997},{"name":"D4","midi":62,"time":253.11979166667163,"velocity":0.7244094488188977,"duration":0.1484375},{"name":"F5","midi":77,"time":253.11979166667163,"velocity":0.7244094488188977,"duration":0.1484375},{"name":"E4","midi":64,"time":253.26953125000497,"velocity":0.7244094488188977,"duration":0.1484375},{"name":"G5","midi":79,"time":253.26953125000497,"velocity":0.7244094488188977,"duration":0.1484375},{"name":"D4","midi":62,"time":253.41927083333832,"velocity":0.7244094488188977,"duration":0.1484375},{"name":"F5","midi":77,"time":253.41927083333832,"velocity":0.7244094488188977,"duration":0.1484375},{"name":"C4","midi":60,"time":253.56901041667166,"velocity":0.7244094488188977,"duration":0.1484375},{"name":"E5","midi":76,"time":253.56901041667166,"velocity":0.7244094488188977,"duration":0.1484375},{"name":"B3","midi":59,"time":253.718750000005,"velocity":0.7244094488188977,"duration":0.1484375},{"name":"D5","midi":74,"time":253.718750000005,"velocity":0.7244094488188977,"duration":0.1484375},{"name":"C4","midi":60,"time":253.86848958333835,"velocity":0.7244094488188977,"duration":0.1484375},{"name":"E5","midi":76,"time":253.86848958333835,"velocity":0.7244094488188977,"duration":0.1484375},{"name":"B3","midi":59,"time":254.0182291666717,"velocity":0.7244094488188977,"duration":0.1484375},{"name":"D5","midi":74,"time":254.0182291666717,"velocity":0.7244094488188977,"duration":0.1484375},{"name":"A3","midi":57,"time":254.16796875000503,"velocity":0.7244094488188977,"duration":0.1484375},{"name":"C5","midi":72,"time":254.16796875000503,"velocity":0.7244094488188977,"duration":0.1484375},{"name":"G3","midi":55,"time":254.31770833333837,"velocity":0.7244094488188977,"duration":0.2981770833333428},{"name":"B4","midi":71,"time":254.31770833333837,"velocity":0.7244094488188977,"duration":0.1484375},{"name":"D5","midi":74,"time":254.46744791667172,"velocity":0.7244094488188977,"duration":0.1484375},{"name":"F3","midi":53,"time":254.61718750000506,"velocity":0.7244094488188977,"duration":0.2981770833333428},{"name":"E5","midi":76,"time":254.61718750000506,"velocity":0.7244094488188977,"duration":0.1484375},{"name":"F5","midi":77,"time":254.7669270833384,"velocity":0.7244094488188977,"duration":0.1484375},{"name":"E3","midi":52,"time":254.91666666667174,"velocity":0.7244094488188977,"duration":0.1484375},{"name":"G5","midi":79,"time":254.91666666667174,"velocity":0.7244094488188977,"duration":0.1484375},{"name":"F3","midi":53,"time":255.0664062500051,"velocity":0.7244094488188977,"duration":0.1484375},{"name":"A5","midi":81,"time":255.0664062500051,"velocity":0.7244094488188977,"duration":0.1484375},{"name":"E3","midi":52,"time":255.21614583333843,"velocity":0.7244094488188977,"duration":0.1484375},{"name":"G5","midi":79,"time":255.21614583333843,"velocity":0.7244094488188977,"duration":0.1484375},{"name":"D3","midi":50,"time":255.36588541667177,"velocity":0.7244094488188977,"duration":0.1484375},{"name":"F5","midi":77,"time":255.36588541667177,"velocity":0.7244094488188977,"duration":0.1484375},{"name":"C3","midi":48,"time":255.51562500000512,"velocity":0.7244094488188977,"duration":0.1471354166666572},{"name":"F5","midi":77,"time":255.51562500000512,"velocity":0.7244094488188977,"duration":0.07291666666665719},{"name":"E5","midi":76,"time":255.58984375000512,"velocity":0.7244094488188977,"duration":0.07291666666665719},{"name":"D3","midi":50,"time":255.66406250000512,"velocity":0.7244094488188977,"duration":0.1471354166666572},{"name":"F5","midi":77,"time":255.66406250000512,"velocity":0.7244094488188977,"duration":0.07291666666665719},{"name":"E5","midi":76,"time":255.73828125000512,"velocity":0.7244094488188977,"duration":0.07291666666665719},{"name":"E3","midi":52,"time":255.81250000000512,"velocity":0.7244094488188977,"duration":0.1484375},{"name":"C5","midi":72,"time":255.81250000000512,"velocity":0.7244094488188977,"duration":0.29817708333337123},{"name":"C3","midi":48,"time":255.96223958333846,"velocity":0.7244094488188977,"duration":0.14843750000002842},{"name":"C4","midi":60,"time":256.1119791666718,"velocity":0.7244094488188977,"duration":0.2981770833333144},{"name":"E4","midi":64,"time":256.1119791666718,"velocity":0.7244094488188977,"duration":0.5924479166666288},{"name":"G5","midi":79,"time":256.1119791666718,"velocity":0.7244094488188977,"duration":0.1484375},{"name":"F5","midi":77,"time":256.2617187500051,"velocity":0.7244094488188977,"duration":0.1484375},{"name":"B3","midi":59,"time":256.41145833333843,"velocity":0.7244094488188977,"duration":0.2981770833333144},{"name":"E5","midi":76,"time":256.41145833333843,"velocity":0.7244094488188977,"duration":0.1484375},{"name":"D5","midi":74,"time":256.56119791667174,"velocity":0.7244094488188977,"duration":0.1484375},{"name":"A3","midi":57,"time":256.71093750000506,"velocity":0.7244094488188977,"duration":0.2981770833333144},{"name":"C5","midi":72,"time":256.71093750000506,"velocity":0.7244094488188977,"duration":0.1484375},{"name":"G5","midi":79,"time":256.8606770833384,"velocity":0.7244094488188977,"duration":0.1484375},{"name":"G3","midi":55,"time":257.0104166666717,"velocity":0.7244094488188977,"duration":0.2981770833333144},{"name":"A5","midi":81,"time":257.0104166666717,"velocity":0.7244094488188977,"duration":0.1484375},{"name":"A#5","midi":82,"time":257.160156250005,"velocity":0.7244094488188977,"duration":0.1484375},{"name":"F3","midi":53,"time":257.3098958333383,"velocity":0.7244094488188977,"duration":0.1484375},{"name":"A5","midi":81,"time":257.3098958333383,"velocity":0.7244094488188977,"duration":0.1484375},{"name":"G3","midi":55,"time":257.45963541667163,"velocity":0.7244094488188977,"duration":0.1484375},{"name":"G5","midi":79,"time":257.45963541667163,"velocity":0.7244094488188977,"duration":0.1484375},{"name":"A3","midi":57,"time":257.60937500000495,"velocity":0.7244094488188977,"duration":0.1484375},{"name":"F5","midi":77,"time":257.60937500000495,"velocity":0.7244094488188977,"duration":0.1484375},{"name":"F3","midi":53,"time":257.75911458333826,"velocity":0.7244094488188977,"duration":0.1484375},{"name":"G5","midi":79,"time":257.75911458333826,"velocity":0.7244094488188977,"duration":0.1484375},{"name":"G3","midi":55,"time":257.9088541666716,"velocity":0.7244094488188977,"duration":0.2981770833333144},{"name":"E5","midi":76,"time":257.9088541666716,"velocity":0.7244094488188977,"duration":0.1484375},{"name":"G4","midi":67,"time":258.0585937500049,"velocity":0.7244094488188977,"duration":0.1484375},{"name":"F3","midi":53,"time":258.2083333333382,"velocity":0.7244094488188977,"duration":0.2981770833333144},{"name":"A4","midi":69,"time":258.2083333333382,"velocity":0.7244094488188977,"duration":0.1484375},{"name":"B4","midi":71,"time":258.3580729166715,"velocity":0.7244094488188977,"duration":0.1484375},{"name":"E3","midi":52,"time":258.50781250000483,"velocity":0.7244094488188977,"duration":0.2981770833333144},{"name":"C5","midi":72,"time":258.50781250000483,"velocity":0.7244094488188977,"duration":0.1484375},{"name":"D5","midi":74,"time":258.65755208333815,"velocity":0.7244094488188977,"duration":0.1484375},{"name":"D3","midi":50,"time":258.80729166667146,"velocity":0.7244094488188977,"duration":0.2981770833333144},{"name":"E5","midi":76,"time":258.80729166667146,"velocity":0.7244094488188977,"duration":0.1484375},{"name":"F5","midi":77,"time":258.9570312500048,"velocity":0.7244094488188977,"duration":0.1484375},{"name":"C3","midi":48,"time":259.1067708333381,"velocity":0.7244094488188977,"duration":0.1484375},{"name":"G5","midi":79,"time":259.1067708333381,"velocity":0.7244094488188977,"duration":0.2981770833333144},{"name":"D3","midi":50,"time":259.2565104166714,"velocity":0.7244094488188977,"duration":0.1484375},{"name":"E3","midi":52,"time":259.4062500000047,"velocity":0.7244094488188977,"duration":0.1484375},{"name":"C5","midi":72,"time":259.4062500000047,"velocity":0.7244094488188977,"duration":0.2981770833333144},{"name":"D3","midi":50,"time":259.55598958333803,"velocity":0.7244094488188977,"duration":0.1484375},{"name":"C#3","midi":49,"time":259.70572916667135,"velocity":0.7244094488188977,"duration":0.5976562499999432},{"name":"E3","midi":52,"time":259.70572916667135,"velocity":0.7244094488188977,"duration":0.5976562499999432},{"name":"A5","midi":81,"time":259.70572916667135,"velocity":0.7244094488188977,"duration":0.1484375},{"name":"E5","midi":76,"time":259.85546875000466,"velocity":0.7244094488188977,"duration":0.1484375},{"name":"A4","midi":69,"time":260.005208333338,"velocity":0.7244094488188977,"duration":0.1484375},{"name":"G5","midi":79,"time":260.1549479166713,"velocity":0.7244094488188977,"duration":0.1484375},{"name":"D3","midi":50,"time":260.3046875000046,"velocity":0.7244094488188977,"duration":0.2981770833333144},{"name":"F5","midi":77,"time":260.3046875000046,"velocity":0.7244094488188977,"duration":0.1484375},{"name":"A4","midi":69,"time":260.4544270833379,"velocity":0.7244094488188977,"duration":0.1484375},{"name":"F3","midi":53,"time":260.60416666667123,"velocity":0.7244094488188977,"duration":0.2981770833333144},{"name":"D5","midi":74,"time":260.60416666667123,"velocity":0.7244094488188977,"duration":0.1484375},{"name":"C5","midi":72,"time":260.75390625000455,"velocity":0.7244094488188977,"duration":0.1484375},{"name":"G3","midi":55,"time":260.90364583333786,"velocity":0.7244094488188977,"duration":0.2981770833333144},{"name":"B4","midi":71,"time":260.90364583333786,"velocity":0.7244094488188977,"duration":0.1484375},{"name":"D5","midi":74,"time":261.0533854166712,"velocity":0.7244094488188977,"duration":0.1484375},{"name":"E3","midi":52,"time":261.2031250000045,"velocity":0.7244094488188977,"duration":0.2981770833333144},{"name":"G5","midi":79,"time":261.2031250000045,"velocity":0.7244094488188977,"duration":0.1484375},{"name":"B4","midi":71,"time":261.3528645833378,"velocity":0.7244094488188977,"duration":0.1484375},{"name":"A3","midi":57,"time":261.5026041666711,"velocity":0.7244094488188977,"duration":0.2981770833333144},{"name":"C#5","midi":73,"time":261.5026041666711,"velocity":0.7244094488188977,"duration":0.1484375},{"name":"A4","midi":69,"time":261.65234375000443,"velocity":0.7244094488188977,"duration":0.1484375},{"name":"F3","midi":53,"time":261.80208333333775,"velocity":0.7244094488188977,"duration":0.1484375},{"name":"D5","midi":74,"time":261.80208333333775,"velocity":0.7244094488188977,"duration":0.1484375},{"name":"G3","midi":55,"time":261.95182291667106,"velocity":0.7244094488188977,"duration":0.1484375},{"name":"E5","midi":76,"time":261.95182291667106,"velocity":0.7244094488188977,"duration":0.1484375},{"name":"A3","midi":57,"time":262.1015625000044,"velocity":0.7244094488188977,"duration":0.2981770833333144},{"name":"C#5","midi":73,"time":262.1015625000044,"velocity":0.7244094488188977,"duration":0.1484375},{"name":"E5","midi":76,"time":262.2513020833377,"velocity":0.7244094488188977,"duration":0.1484375},{"name":"A2","midi":45,"time":262.401041666671,"velocity":0.7244094488188977,"duration":0.2981770833333144},{"name":"A5","midi":81,"time":262.401041666671,"velocity":0.7244094488188977,"duration":0.1484375},{"name":"G5","midi":79,"time":262.5507812500043,"velocity":0.7244094488188977,"duration":0.1484375},{"name":"D3","midi":50,"time":262.70052083333763,"velocity":0.7244094488188977,"duration":0.1484375},{"name":"F5","midi":77,"time":262.70052083333763,"velocity":0.7244094488188977,"duration":0.2981770833333144},{"name":"E3","midi":52,"time":262.85026041667095,"velocity":0.7244094488188977,"duration":0.1484375},{"name":"C3","midi":48,"time":263.00000000000426,"velocity":0.7244094488188977,"duration":0.1484375},{"name":"D5","midi":74,"time":263.00000000000426,"velocity":0.7244094488188977,"duration":0.2981770833333144},{"name":"A#2","midi":46,"time":263.1497395833376,"velocity":0.7244094488188977,"duration":0.1484375},{"name":"A2","midi":45,"time":263.2994791666709,"velocity":0.7244094488188977,"duration":0.5976562499999432},{"name":"C3","midi":48,"time":263.2994791666709,"velocity":0.7244094488188977,"duration":0.5976562499999432},{"name":"F3","midi":53,"time":263.2994791666709,"velocity":0.7244094488188977,"duration":0.5976562499999432},{"name":"F5","midi":77,"time":263.2994791666709,"velocity":0.7244094488188977,"duration":0.1484375},{"name":"G5","midi":79,"time":263.4492187500042,"velocity":0.7244094488188977,"duration":0.1484375},{"name":"F5","midi":77,"time":263.5989583333375,"velocity":0.7244094488188977,"duration":0.1484375},{"name":"D#5","midi":75,"time":263.74869791667084,"velocity":0.7244094488188977,"duration":0.1484375},{"name":"A#2","midi":46,"time":263.89843750000415,"velocity":0.7244094488188977,"duration":0.2981770833333144},{"name":"D5","midi":74,"time":263.89843750000415,"velocity":0.7244094488188977,"duration":0.1484375},{"name":"C5","midi":72,"time":264.04817708333746,"velocity":0.7244094488188977,"duration":0.1484375},{"name":"A#3","midi":58,"time":264.1979166666708,"velocity":0.7244094488188977,"duration":0.2981770833333144},{"name":"D5","midi":74,"time":264.1979166666708,"velocity":0.7244094488188977,"duration":0.1484375},{"name":"D#5","midi":75,"time":264.3476562500041,"velocity":0.7244094488188977,"duration":0.1484375},{"name":"E3","midi":52,"time":264.4973958333374,"velocity":0.7244094488188977,"duration":0.2981770833333144},{"name":"C5","midi":72,"time":264.4973958333374,"velocity":0.7244094488188977,"duration":0.1484375},{"name":"D5","midi":74,"time":264.6471354166707,"velocity":0.7244094488188977,"duration":0.1484375},{"name":"C3","midi":48,"time":264.79687500000404,"velocity":0.7244094488188977,"duration":0.2981770833333144},{"name":"C5","midi":72,"time":264.79687500000404,"velocity":0.7244094488188977,"duration":0.1484375},{"name":"A#4","midi":70,"time":264.94661458333735,"velocity":0.7244094488188977,"duration":0.1484375},{"name":"F3","midi":53,"time":265.09635416667066,"velocity":0.7244094488188977,"duration":0.2981770833333144},{"name":"A4","midi":69,"time":265.09635416667066,"velocity":0.7244094488188977,"duration":0.1484375},{"name":"G4","midi":67,"time":265.246093750004,"velocity":0.7244094488188977,"duration":0.1484375},{"name":"G3","midi":55,"time":265.3958333333373,"velocity":0.7244094488188977,"duration":0.2981770833333144},{"name":"A4","midi":69,"time":265.3958333333373,"velocity":0.7244094488188977,"duration":0.1484375},{"name":"A#4","midi":70,"time":265.5455729166706,"velocity":0.7244094488188977,"duration":0.1484375},{"name":"A3","midi":57,"time":265.6953125000039,"velocity":0.7244094488188977,"duration":0.2981770833333144},{"name":"C5","midi":72,"time":265.6953125000039,"velocity":0.7244094488188977,"duration":0.1484375},{"name":"D5","midi":74,"time":265.84505208333724,"velocity":0.7244094488188977,"duration":0.1484375},{"name":"E3","midi":52,"time":265.99479166667055,"velocity":0.7244094488188977,"duration":0.2981770833333144},{"name":"G4","midi":67,"time":265.99479166667055,"velocity":0.7244094488188977,"duration":0.1484375},{"name":"A#4","midi":70,"time":266.14453125000387,"velocity":0.7244094488188977,"duration":0.1484375},{"name":"F3","midi":53,"time":266.2942708333372,"velocity":0.7244094488188977,"duration":0.14843749999994316},{"name":"A#4","midi":70,"time":266.2942708333372,"velocity":0.7244094488188977,"duration":0.07682291666662877},{"name":"A4","midi":69,"time":266.3697916666705,"velocity":0.7244094488188977,"duration":0.07291666666662877},{"name":"G3","midi":55,"time":266.44401041667044,"velocity":0.7244094488188977,"duration":0.1484375},{"name":"A#4","midi":70,"time":266.44401041667044,"velocity":0.7244094488188977,"duration":0.07552083333331439},{"name":"A4","midi":69,"time":266.51953125000375,"velocity":0.7244094488188977,"duration":0.07421875},{"name":"A3","midi":57,"time":266.59375000000375,"velocity":0.7244094488188977,"duration":0.1484375},{"name":"F4","midi":65,"time":266.59375000000375,"velocity":0.7244094488188977,"duration":0.2981770833333144},{"name":"F3","midi":53,"time":266.74348958333707,"velocity":0.7244094488188977,"duration":0.1484375},{"name":"A#3","midi":58,"time":266.8932291666704,"velocity":0.7244094488188977,"duration":0.2981770833333144},{"name":"G4","midi":67,"time":266.8932291666704,"velocity":0.7244094488188977,"duration":0.1484375},{"name":"A4","midi":69,"time":267.0429687500037,"velocity":0.7244094488188977,"duration":0.1484375},{"name":"F#3","midi":54,"time":267.192708333337,"velocity":0.7244094488188977,"duration":0.2981770833333144},{"name":"A#4","midi":70,"time":267.192708333337,"velocity":0.7244094488188977,"duration":0.1484375},{"name":"C5","midi":72,"time":267.3424479166703,"velocity":0.7244094488188977,"duration":0.1484375},{"name":"G3","midi":55,"time":267.49218750000364,"velocity":0.7244094488188977,"duration":0.2981770833333144},{"name":"A#4","midi":70,"time":267.49218750000364,"velocity":0.7244094488188977,"duration":0.1484375},{"name":"D5","midi":74,"time":267.64192708333695,"velocity":0.7244094488188977,"duration":0.1484375},{"name":"E3","midi":52,"time":267.79166666667027,"velocity":0.7244094488188977,"duration":0.2981770833333144},{"name":"C5","midi":72,"time":267.79166666667027,"velocity":0.7244094488188977,"duration":0.1484375},{"name":"A#4","midi":70,"time":267.9414062500036,"velocity":0.7244094488188977,"duration":0.1484375},{"name":"F3","midi":53,"time":268.0911458333369,"velocity":0.7244094488188977,"duration":0.2981770833333144},{"name":"A4","midi":69,"time":268.0911458333369,"velocity":0.7244094488188977,"duration":0.1484375},{"name":"F5","midi":77,"time":268.2408854166702,"velocity":0.7244094488188977,"duration":0.1484375},{"name":"A#2","midi":46,"time":268.3906250000035,"velocity":0.7244094488188977,"duration":0.2981770833333144},{"name":"E5","midi":76,"time":268.3906250000035,"velocity":0.7244094488188977,"duration":0.1484375},{"name":"D5","midi":74,"time":268.54036458333684,"velocity":0.7244094488188977,"duration":0.1484375},{"name":"C3","midi":48,"time":268.69010416667015,"velocity":0.7244094488188977,"duration":0.5976562499999432},{"name":"C5","midi":72,"time":268.69010416667015,"velocity":0.7244094488188977,"duration":0.1484375},{"name":"F5","midi":77,"time":268.83984375000347,"velocity":0.7244094488188977,"duration":0.1484375},{"name":"A4","midi":69,"time":268.9895833333368,"velocity":0.7244094488188977,"duration":0.1484375},{"name":"A#4","midi":70,"time":269.1393229166701,"velocity":0.7244094488188977,"duration":0.1484375},{"name":"C2","midi":36,"time":269.2890625000034,"velocity":0.7244094488188977,"duration":0.6419270833332575},{"name":"C5","midi":72,"time":269.2890625000034,"velocity":0.7244094488188977,"duration":0.1484375},{"name":"A#4","midi":70,"time":269.4388020833367,"velocity":0.7244094488188977,"duration":0.15755208333331439},{"name":"A4","midi":69,"time":269.60156250000335,"velocity":0.7244094488188977,"duration":0.15755208333331439},{"name":"G4","midi":67,"time":269.77864583333667,"velocity":0.7244094488188977,"duration":0.18619791666668561},{"name":"F2","midi":41,"time":269.95833333333667,"velocity":0.7244094488188977,"duration":0.8984375},{"name":"F4","midi":65,"time":269.95833333333667,"velocity":0.7244094488188977,"duration":1.5625},{"name":"C3","midi":48,"time":270.48828125000335,"velocity":0.7244094488188977,"duration":0.16927083333331439},{"name":"F3","midi":53,"time":271.08723958333667,"velocity":0.7244094488188977,"duration":0.625}],"controlChanges":{"7":[{"number":7,"time":0,"value":0.7874015748031497}]},"id":1,"name":"Harpsichord","instrumentNumber":6,"instrument":"harpsichord","instrumentFamily":"piano","channelNumber":0,"isPercussion":false}]}