{"header":{"PPQ":384,"timeSignature":[4,4],"bpm":120,"name":"--------"},"startTime":0,"duration":218.23437500000355,"tracks":[{"startTime":0,"duration":0,"length":0,"notes":[],"controlChanges":{},"id":0,"name":"--------"},{"startTime":0.08333333333333333,"duration":218.23437500000355,"length":1602,"notes":[{"name":"D3","midi":50,"time":0.08333333333333333,"velocity":0.7244094488188977,"duration":0.4466145833333333},{"name":"D3","midi":50,"time":0.53515625,"velocity":0.7244094488188977,"duration":0.44661458333333326},{"name":"A4","midi":69,"time":0.8372395833333333,"velocity":0.7244094488188977,"duration":0.2109375},{"name":"F4","midi":65,"time":0.9882812499999999,"velocity":0.7244094488188977,"duration":0.28255208333333337},{"name":"D3","midi":50,"time":0.9882812499999999,"velocity":0.7244094488188977,"duration":0.44661458333333337},{"name":"D4","midi":62,"time":1.1380208333333333,"velocity":0.7244094488188977,"duration":0.2109375},{"name":"A4","midi":69,"time":1.2890625,"velocity":0.7244094488188977,"duration":0.21093749999999978},{"name":"F4","midi":65,"time":1.4401041666666665,"velocity":0.7244094488188977,"duration":0.28255208333333326},{"name":"D3","midi":50,"time":1.4401041666666665,"velocity":0.7244094488188977,"duration":0.44661458333333326},{"name":"D4","midi":62,"time":1.591145833333333,"velocity":0.7244094488188977,"duration":0.2109375},{"name":"D5","midi":74,"time":1.7421874999999998,"velocity":0.7244094488188977,"duration":0.2109375},{"name":"A#4","midi":70,"time":1.8932291666666665,"velocity":0.7244094488188977,"duration":0.2825520833333335},{"name":"D3","midi":50,"time":1.8932291666666665,"velocity":0.7244094488188977,"duration":0.4466145833333335},{"name":"G4","midi":67,"time":2.04296875,"velocity":0.7244094488188977,"duration":0.2109375},{"name":"A#4","midi":70,"time":2.1940104166666665,"velocity":0.7244094488188977,"duration":0.21093750000000044},{"name":"G4","midi":67,"time":2.3450520833333335,"velocity":0.7244094488188977,"duration":0.2825520833333335},{"name":"D3","midi":50,"time":2.3450520833333335,"velocity":0.7244094488188977,"duration":0.4466145833333335},{"name":"E4","midi":64,"time":2.4960937500000004,"velocity":0.7244094488188977,"duration":0.2109375},{"name":"G4","midi":67,"time":2.647135416666667,"velocity":0.7244094488188977,"duration":0.2109375},{"name":"E4","midi":64,"time":2.7981770833333335,"velocity":0.7244094488188977,"duration":0.2825520833333335},{"name":"D3","midi":50,"time":2.7981770833333335,"velocity":0.7244094488188977,"duration":0.4466145833333335},{"name":"C#4","midi":61,"time":2.947916666666667,"velocity":0.7244094488188977,"duration":0.2109375},{"name":"G4","midi":67,"time":3.0989583333333335,"velocity":0.7244094488188977,"duration":0.21093750000000044},{"name":"E4","midi":64,"time":3.2500000000000004,"velocity":0.7244094488188977,"duration":0.2825520833333335},{"name":"D3","midi":50,"time":3.2500000000000004,"velocity":0.7244094488188977,"duration":0.4466145833333335},{"name":"C#4","midi":61,"time":3.4010416666666674,"velocity":0.7244094488188977,"duration":0.2109375},{"name":"A4","midi":69,"time":3.552083333333334,"velocity":0.7244094488188977,"duration":0.2109375},{"name":"F4","midi":65,"time":3.7031250000000004,"velocity":0.7244094488188977,"duration":0.2825520833333335},{"name":"D3","midi":50,"time":3.7031250000000004,"velocity":0.7244094488188977,"duration":0.44661458333333437},{"name":"D4","midi":62,"time":3.8541666666666674,"velocity":0.7244094488188977,"duration":0.21093750000000044},{"name":"A4","midi":69,"time":4.003906250000001,"velocity":0.7244094488188977,"duration":0.2109375},{"name":"F4","midi":65,"time":4.154947916666668,"velocity":0.7244094488188977,"duration":0.1874999999999991},{"name":"D3","midi":50,"time":4.154947916666668,"velocity":0.7244094488188977,"duration":0.44661458333333304},{"name":"D4","midi":62,"time":4.305989583333334,"velocity":0.7244094488188977,"duration":0.12890625},{"name":"A5","midi":81,"time":4.457031250000001,"velocity":0.7244094488188977,"duration":0.2109375},{"name":"F5","midi":77,"time":4.608072916666668,"velocity":0.7244094488188977,"duration":0.28255208333333304},{"name":"D4","midi":62,"time":4.608072916666668,"velocity":0.7244094488188977,"duration":0.4466145833333339},{"name":"D5","midi":74,"time":4.759114583333334,"velocity":0.7244094488188977,"duration":0.2109375000000009},{"name":"F5","midi":77,"time":4.908854166666668,"velocity":0.7244094488188977,"duration":0.2109375},{"name":"D5","midi":74,"time":5.059895833333335,"velocity":0.7244094488188977,"duration":0.28255208333333304},{"name":"D4","midi":62,"time":5.059895833333335,"velocity":0.7244094488188977,"duration":0.44661458333333304},{"name":"A4","midi":69,"time":5.210937500000001,"velocity":0.7244094488188977,"duration":0.2109375},{"name":"D5","midi":74,"time":5.361979166666668,"velocity":0.7244094488188977,"duration":0.2109375},{"name":"A#4","midi":70,"time":5.513020833333335,"velocity":0.7244094488188977,"duration":0.28255208333333304},{"name":"G3","midi":55,"time":5.513020833333335,"velocity":0.7244094488188977,"duration":0.4466145833333339},{"name":"G4","midi":67,"time":5.664062500000001,"velocity":0.7244094488188977,"duration":0.2109375000000009},{"name":"D5","midi":74,"time":5.813802083333335,"velocity":0.7244094488188977,"duration":0.2109375},{"name":"A#4","midi":70,"time":5.964843750000002,"velocity":0.7244094488188977,"duration":0.28255208333333304},{"name":"G3","midi":55,"time":5.964843750000002,"velocity":0.7244094488188977,"duration":0.44661458333333304},{"name":"G4","midi":67,"time":6.115885416666668,"velocity":0.7244094488188977,"duration":0.2109375},{"name":"G5","midi":79,"time":6.266927083333335,"velocity":0.7244094488188977,"duration":0.2109375},{"name":"E5","midi":76,"time":6.417968750000002,"velocity":0.7244094488188977,"duration":0.28255208333333304},{"name":"C4","midi":60,"time":6.417968750000002,"velocity":0.7244094488188977,"duration":0.4466145833333339},{"name":"C5","midi":72,"time":6.569010416666668,"velocity":0.7244094488188977,"duration":0.2109375000000009},{"name":"E5","midi":76,"time":6.718750000000002,"velocity":0.7244094488188977,"duration":0.2109375},{"name":"C5","midi":72,"time":6.869791666666669,"velocity":0.7244094488188977,"duration":0.28255208333333304},{"name":"C4","midi":60,"time":6.869791666666669,"velocity":0.7244094488188977,"duration":0.44661458333333304},{"name":"G4","midi":67,"time":7.020833333333335,"velocity":0.7244094488188977,"duration":0.2109375},{"name":"C5","midi":72,"time":7.171875000000002,"velocity":0.7244094488188977,"duration":0.2109375},{"name":"A4","midi":69,"time":7.322916666666669,"velocity":0.7244094488188977,"duration":0.28255208333333304},{"name":"F3","midi":53,"time":7.322916666666669,"velocity":0.7244094488188977,"duration":0.44661458333333304},{"name":"F4","midi":65,"time":7.473958333333335,"velocity":0.7244094488188977,"duration":0.2109375},{"name":"C5","midi":72,"time":7.625000000000002,"velocity":0.7244094488188977,"duration":0.2109375},{"name":"A4","midi":69,"time":7.774739583333335,"velocity":0.7244094488188977,"duration":0.2109375},{"name":"F3","midi":53,"time":7.774739583333335,"velocity":0.7244094488188977,"duration":0.44661458333333304},{"name":"F4","midi":65,"time":7.925781250000002,"velocity":0.7244094488188977,"duration":0.2109375},{"name":"F5","midi":77,"time":8.076822916666668,"velocity":0.7244094488188977,"duration":0.2109375},{"name":"D5","midi":74,"time":8.227864583333334,"velocity":0.7244094488188977,"duration":0.2825520833333339},{"name":"A#3","midi":58,"time":8.227864583333334,"velocity":0.7244094488188977,"duration":0.4466145833333339},{"name":"A#4","midi":70,"time":8.378906250000002,"velocity":0.7244094488188977,"duration":0.2109375},{"name":"D5","midi":74,"time":8.529947916666668,"velocity":0.7244094488188977,"duration":0.2109375},{"name":"A#4","midi":70,"time":8.679687500000002,"velocity":0.7244094488188977,"duration":0.2109375},{"name":"G3","midi":55,"time":8.679687500000002,"velocity":0.7244094488188977,"duration":0.4466145833333339},{"name":"G4","midi":67,"time":8.830729166666668,"velocity":0.7244094488188977,"duration":0.21093750000000178},{"name":"G5","midi":79,"time":8.981770833333336,"velocity":0.7244094488188977,"duration":0.2109375},{"name":"E5","midi":76,"time":9.132812500000002,"velocity":0.7244094488188977,"duration":0.2825520833333339},{"name":"C4","midi":60,"time":9.132812500000002,"velocity":0.7244094488188977,"duration":0.4466145833333339},{"name":"C5","midi":72,"time":9.28385416666667,"velocity":0.7244094488188977,"duration":0.2109375},{"name":"E5","midi":76,"time":9.434895833333336,"velocity":0.7244094488188977,"duration":0.2109375},{"name":"C5","midi":72,"time":9.58463541666667,"velocity":0.7244094488188977,"duration":0.2109375},{"name":"A3","midi":57,"time":9.58463541666667,"velocity":0.7244094488188977,"duration":0.4466145833333339},{"name":"A4","midi":69,"time":9.735677083333336,"velocity":0.7244094488188977,"duration":0.21093750000000178},{"name":"A5","midi":81,"time":9.886718750000004,"velocity":0.7244094488188977,"duration":0.2109375},{"name":"F5","midi":77,"time":10.03776041666667,"velocity":0.7244094488188977,"duration":0.2825520833333339},{"name":"D4","midi":62,"time":10.03776041666667,"velocity":0.7244094488188977,"duration":0.4466145833333339},{"name":"D5","midi":74,"time":10.188802083333337,"velocity":0.7244094488188977,"duration":0.2109375},{"name":"F5","midi":77,"time":10.339843750000004,"velocity":0.7244094488188977,"duration":0.2109375},{"name":"D5","midi":74,"time":10.489583333333337,"velocity":0.7244094488188977,"duration":0.2109375},{"name":"D3","midi":50,"time":10.489583333333337,"velocity":0.7244094488188977,"duration":0.4466145833333339},{"name":"A#4","midi":70,"time":10.640625000000004,"velocity":0.7244094488188977,"duration":0.21093750000000178},{"name":"A#5","midi":82,"time":10.791666666666671,"velocity":0.7244094488188977,"duration":0.2109375},{"name":"G5","midi":79,"time":10.942708333333337,"velocity":0.7244094488188977,"duration":0.2825520833333339},{"name":"E3","midi":52,"time":10.942708333333337,"velocity":0.7244094488188977,"duration":0.4466145833333339},{"name":"E5","midi":76,"time":11.093750000000005,"velocity":0.7244094488188977,"duration":0.2109375},{"name":"G5","midi":79,"time":11.244791666666671,"velocity":0.7244094488188977,"duration":0.2109375},{"name":"E5","midi":76,"time":11.395833333333337,"velocity":0.7244094488188977,"duration":0.2109375},{"name":"C3","midi":48,"time":11.395833333333337,"velocity":0.7244094488188977,"duration":0.4466145833333339},{"name":"C5","midi":72,"time":11.545572916666671,"velocity":0.7244094488188977,"duration":0.2109375},{"name":"C6","midi":84,"time":11.696614583333337,"velocity":0.7244094488188977,"duration":0.21093750000000178},{"name":"A5","midi":81,"time":11.847656250000005,"velocity":0.7244094488188977,"duration":0.2825520833333339},{"name":"F3","midi":53,"time":11.847656250000005,"velocity":0.7244094488188977,"duration":0.4466145833333339},{"name":"F5","midi":77,"time":11.998697916666673,"velocity":0.7244094488188977,"duration":0.2109375},{"name":"A5","midi":81,"time":12.14973958333334,"velocity":0.7244094488188977,"duration":0.2109375},{"name":"F5","midi":77,"time":12.300781250000005,"velocity":0.7244094488188977,"duration":0.2825520833333339},{"name":"E3","midi":52,"time":12.300781250000005,"velocity":0.7244094488188977,"duration":0.4466145833333339},{"name":"C5","midi":72,"time":12.45052083333334,"velocity":0.7244094488188977,"duration":0.2109375},{"name":"A5","midi":81,"time":12.601562500000005,"velocity":0.7244094488188977,"duration":0.21093750000000178},{"name":"F5","midi":77,"time":12.752604166666673,"velocity":0.7244094488188977,"duration":0.2825520833333339},{"name":"D3","midi":50,"time":12.752604166666673,"velocity":0.7244094488188977,"duration":0.4466145833333339},{"name":"D5","midi":74,"time":12.903645833333341,"velocity":0.7244094488188977,"duration":0.2109375},{"name":"F5","midi":77,"time":13.054687500000007,"velocity":0.7244094488188977,"duration":0.2109375},{"name":"D5","midi":74,"time":13.205729166666673,"velocity":0.7244094488188977,"duration":0.2825520833333339},{"name":"C3","midi":48,"time":13.205729166666673,"velocity":0.7244094488188977,"duration":0.4466145833333339},{"name":"A4","midi":69,"time":13.355468750000007,"velocity":0.7244094488188977,"duration":0.2109375},{"name":"F5","midi":77,"time":13.506510416666673,"velocity":0.7244094488188977,"duration":0.21093750000000178},{"name":"D5","midi":74,"time":13.657552083333341,"velocity":0.7244094488188977,"duration":0.2825520833333339},{"name":"A#2","midi":46,"time":13.657552083333341,"velocity":0.7244094488188977,"duration":0.4466145833333339},{"name":"A#4","midi":70,"time":13.808593750000009,"velocity":0.7244094488188977,"duration":0.2109375},{"name":"D5","midi":74,"time":13.959635416666675,"velocity":0.7244094488188977,"duration":0.2109375},{"name":"A#4","midi":70,"time":14.110677083333341,"velocity":0.7244094488188977,"duration":0.2825520833333339},{"name":"A2","midi":45,"time":14.110677083333341,"velocity":0.7244094488188977,"duration":0.4466145833333339},{"name":"F4","midi":65,"time":14.260416666666675,"velocity":0.7244094488188977,"duration":0.2109375},{"name":"D5","midi":74,"time":14.411458333333341,"velocity":0.7244094488188977,"duration":0.21093750000000178},{"name":"A#4","midi":70,"time":14.562500000000009,"velocity":0.7244094488188977,"duration":0.2825520833333339},{"name":"G2","midi":43,"time":14.562500000000009,"velocity":0.7244094488188977,"duration":0.4466145833333339},{"name":"G4","midi":67,"time":14.713541666666677,"velocity":0.7244094488188977,"duration":0.2109375},{"name":"A#4","midi":70,"time":14.864583333333343,"velocity":0.7244094488188977,"duration":0.2109375},{"name":"G4","midi":67,"time":15.015625000000009,"velocity":0.7244094488188977,"duration":0.2825520833333339},{"name":"F2","midi":41,"time":15.015625000000009,"velocity":0.7244094488188977,"duration":0.44661458333333215},{"name":"D4","midi":62,"time":15.166666666666677,"velocity":0.7244094488188977,"duration":0.21093749999999822},{"name":"A#4","midi":70,"time":15.316406250000009,"velocity":0.7244094488188977,"duration":0.2109375},{"name":"G4","midi":67,"time":15.467447916666675,"velocity":0.7244094488188977,"duration":0.2825520833333339},{"name":"E2","midi":40,"time":15.467447916666675,"velocity":0.7244094488188977,"duration":0.4466145833333339},{"name":"C4","midi":60,"time":15.618489583333343,"velocity":0.7244094488188977,"duration":0.2109375},{"name":"A#4","midi":70,"time":15.769531250000009,"velocity":0.7244094488188977,"duration":0.2109375},{"name":"G4","midi":67,"time":15.920572916666675,"velocity":0.7244094488188977,"duration":0.2109375},{"name":"C2","midi":36,"time":15.920572916666675,"velocity":0.7244094488188977,"duration":0.4466145833333357},{"name":"E4","midi":64,"time":16.071614583333343,"velocity":0.7244094488188977,"duration":0.2109375},{"name":"A#4","midi":70,"time":16.221354166666675,"velocity":0.7244094488188977,"duration":0.2109375},{"name":"A4","midi":69,"time":16.372395833333343,"velocity":0.7244094488188977,"duration":0.28255208333333215},{"name":"F2","midi":41,"time":16.372395833333343,"velocity":0.7244094488188977,"duration":0.44661458333333215},{"name":"F4","midi":65,"time":16.523437500000007,"velocity":0.7244094488188977,"duration":0.2109375},{"name":"A4","midi":69,"time":16.674479166666675,"velocity":0.7244094488188977,"duration":0.2109375},{"name":"F4","midi":65,"time":16.825520833333343,"velocity":0.7244094488188977,"duration":0.28255208333333215},{"name":"A2","midi":45,"time":16.825520833333343,"velocity":0.7244094488188977,"duration":0.4466145833333357},{"name":"C4","midi":60,"time":16.976562500000007,"velocity":0.7244094488188977,"duration":0.21093750000000355},{"name":"F4","midi":65,"time":17.126302083333343,"velocity":0.7244094488188977,"duration":0.2109375},{"name":"D4","midi":62,"time":17.27734375000001,"velocity":0.7244094488188977,"duration":0.28255208333333215},{"name":"A#2","midi":46,"time":17.27734375000001,"velocity":0.7244094488188977,"duration":0.44661458333333215},{"name":"A#3","midi":58,"time":17.428385416666675,"velocity":0.7244094488188977,"duration":0.2109375},{"name":"F4","midi":65,"time":17.579427083333343,"velocity":0.7244094488188977,"duration":0.2109375},{"name":"C4","midi":60,"time":17.73046875000001,"velocity":0.7244094488188977,"duration":0.28255208333333215},{"name":"C3","midi":48,"time":17.73046875000001,"velocity":0.7244094488188977,"duration":0.4466145833333357},{"name":"A#3","midi":58,"time":17.881510416666675,"velocity":0.7244094488188977,"duration":0.21093750000000355},{"name":"E4","midi":64,"time":18.03125000000001,"velocity":0.7244094488188977,"duration":0.2109375},{"name":"C4","midi":60,"time":18.18229166666668,"velocity":0.7244094488188977,"duration":0.21093749999999645},{"name":"F2","midi":41,"time":18.18229166666668,"velocity":0.7244094488188977,"duration":0.8945312499999858},{"name":"A3","midi":57,"time":18.333333333333343,"velocity":0.7244094488188977,"duration":0.21093749999999645},{"name":"F4","midi":65,"time":18.484375000000007,"velocity":0.7244094488188977,"duration":0.21093749999999645},{"name":"C4","midi":60,"time":18.63541666666667,"velocity":0.7244094488188977,"duration":0.21093749999999645},{"name":"F3","midi":53,"time":18.63541666666667,"velocity":0.7244094488188977,"duration":0.5937499999999964},{"name":"A3","midi":57,"time":18.786458333333336,"velocity":0.7244094488188977,"duration":0.21093749999999645},{"name":"C4","midi":60,"time":18.9375,"velocity":0.7244094488188977,"duration":0.2109375},{"name":"A3","midi":57,"time":19.087239583333332,"velocity":0.7244094488188977,"duration":0.2109375},{"name":"F3","midi":53,"time":19.23828125,"velocity":0.7244094488188977,"duration":0.21093749999999645},{"name":"C4","midi":60,"time":19.389322916666664,"velocity":0.7244094488188977,"duration":0.21093749999999645},{"name":"A3","midi":57,"time":19.54036458333333,"velocity":0.7244094488188977,"duration":0.21093749999999645},{"name":"D#3","midi":51,"time":19.54036458333333,"velocity":0.7244094488188977,"duration":0.4466145833333286},{"name":"F3","midi":53,"time":19.691406249999993,"velocity":0.7244094488188977,"duration":0.21093749999999645},{"name":"C4","midi":60,"time":19.842447916666657,"velocity":0.7244094488188977,"duration":0.2109375},{"name":"A3","midi":57,"time":19.99218749999999,"velocity":0.7244094488188977,"duration":0.2109375},{"name":"D3","midi":50,"time":19.99218749999999,"velocity":0.7244094488188977,"duration":0.44661458333333215},{"name":"F#3","midi":54,"time":20.143229166666657,"velocity":0.7244094488188977,"duration":0.21093749999999645},{"name":"C4","midi":60,"time":20.29427083333332,"velocity":0.7244094488188977,"duration":0.2825520833333357},{"name":"A3","midi":57,"time":20.44531249999999,"velocity":0.7244094488188977,"duration":0.2109375},{"name":"C3","midi":48,"time":20.44531249999999,"velocity":0.7244094488188977,"duration":0.44661458333333215},{"name":"F#3","midi":54,"time":20.596354166666657,"velocity":0.7244094488188977,"duration":0.21093749999999645},{"name":"D#4","midi":63,"time":20.74739583333332,"velocity":0.7244094488188977,"duration":0.28255208333333215},{"name":"A3","midi":57,"time":20.897135416666654,"velocity":0.7244094488188977,"duration":0.2109375},{"name":"A#2","midi":46,"time":20.897135416666654,"velocity":0.7244094488188977,"duration":0.44661458333333215},{"name":"F#3","midi":54,"time":21.04817708333332,"velocity":0.7244094488188977,"duration":0.21093749999999645},{"name":"D4","midi":62,"time":21.199218749999986,"velocity":0.7244094488188977,"duration":0.2825520833333357},{"name":"A3","midi":57,"time":21.350260416666654,"velocity":0.7244094488188977,"duration":0.2109375},{"name":"A2","midi":45,"time":21.350260416666654,"velocity":0.7244094488188977,"duration":0.44661458333333215},{"name":"F#3","midi":54,"time":21.50130208333332,"velocity":0.7244094488188977,"duration":0.21093749999999645},{"name":"C4","midi":60,"time":21.652343749999986,"velocity":0.7244094488188977,"duration":0.2109375},{"name":"A#3","midi":58,"time":21.802083333333318,"velocity":0.7244094488188977,"duration":0.2825520833333357},{"name":"G2","midi":43,"time":21.802083333333318,"velocity":0.7244094488188977,"duration":0.4466145833333357},{"name":"G3","midi":55,"time":21.953124999999986,"velocity":0.7244094488188977,"duration":0.2109375},{"name":"D4","midi":62,"time":22.104166666666654,"velocity":0.7244094488188977,"duration":0.2109375},{"name":"A#3","midi":58,"time":22.25520833333332,"velocity":0.7244094488188977,"duration":0.21093749999999645},{"name":"A#2","midi":46,"time":22.25520833333332,"velocity":0.7244094488188977,"duration":0.4466145833333286},{"name":"G3","midi":55,"time":22.406249999999986,"velocity":0.7244094488188977,"duration":0.21093749999999645},{"name":"D4","midi":62,"time":22.55729166666665,"velocity":0.7244094488188977,"duration":0.2825520833333357},{"name":"A#3","midi":58,"time":22.708333333333318,"velocity":0.7244094488188977,"duration":0.21093750000000355},{"name":"C3","midi":48,"time":22.708333333333318,"velocity":0.7244094488188977,"duration":0.4466145833333357},{"name":"G3","midi":55,"time":22.858072916666654,"velocity":0.7244094488188977,"duration":0.2109375},{"name":"E4","midi":64,"time":23.00911458333332,"velocity":0.7244094488188977,"duration":0.28255208333333215},{"name":"A#3","midi":58,"time":23.160156249999986,"velocity":0.7244094488188977,"duration":0.2109375},{"name":"D3","midi":50,"time":23.160156249999986,"velocity":0.7244094488188977,"duration":0.44661458333333215},{"name":"G3","midi":55,"time":23.311197916666654,"velocity":0.7244094488188977,"duration":0.21093749999999645},{"name":"F#4","midi":66,"time":23.462239583333318,"velocity":0.7244094488188977,"duration":0.2825520833333357},{"name":"A#3","midi":58,"time":23.613281249999986,"velocity":0.7244094488188977,"duration":0.21093750000000355},{"name":"D#3","midi":51,"time":23.613281249999986,"velocity":0.7244094488188977,"duration":0.4466145833333357},{"name":"G3","midi":55,"time":23.76302083333332,"velocity":0.7244094488188977,"duration":0.2109375},{"name":"G4","midi":67,"time":23.91406249999999,"velocity":0.7244094488188977,"duration":0.21093749999999645},{"name":"D4","midi":62,"time":24.065104166666654,"velocity":0.7244094488188977,"duration":0.28255208333333215},{"name":"A#2","midi":46,"time":24.065104166666654,"velocity":0.7244094488188977,"duration":0.44661458333333215},{"name":"A#3","midi":58,"time":24.216145833333318,"velocity":0.7244094488188977,"duration":0.2109375},{"name":"G4","midi":67,"time":24.367187499999986,"velocity":0.7244094488188977,"duration":0.2109375},{"name":"D#4","midi":63,"time":24.518229166666654,"velocity":0.7244094488188977,"duration":0.28255208333333215},{"name":"C3","midi":48,"time":24.518229166666654,"velocity":0.7244094488188977,"duration":0.44661458333333215},{"name":"A3","midi":57,"time":24.667968749999986,"velocity":0.7244094488188977,"duration":0.2109375},{"name":"G4","midi":67,"time":24.819010416666654,"velocity":0.7244094488188977,"duration":0.21093749999999645},{"name":"D4","midi":62,"time":24.970052083333318,"velocity":0.7244094488188977,"duration":0.28255208333333215},{"name":"D3","midi":50,"time":24.970052083333318,"velocity":0.7244094488188977,"duration":0.44661458333333215},{"name":"A3","midi":57,"time":25.121093749999982,"velocity":0.7244094488188977,"duration":0.2109375},{"name":"F#4","midi":66,"time":25.27213541666665,"velocity":0.7244094488188977,"duration":0.2109375},{"name":"D4","midi":62,"time":25.423177083333318,"velocity":0.7244094488188977,"duration":0.28255208333333215},{"name":"G2","midi":43,"time":25.423177083333318,"velocity":0.7244094488188977,"duration":0.8945312499999929},{"name":"A#3","midi":58,"time":25.57291666666665,"velocity":0.7244094488188977,"duration":0.2109375},{"name":"G4","midi":67,"time":25.723958333333318,"velocity":0.7244094488188977,"duration":0.21093749999999645},{"name":"D4","midi":62,"time":25.874999999999982,"velocity":0.7244094488188977,"duration":0.21093749999999645},{"name":"G3","midi":55,"time":25.874999999999982,"velocity":0.7244094488188977,"duration":0.5976562499999964},{"name":"A#3","midi":58,"time":26.026041666666647,"velocity":0.7244094488188977,"duration":0.21093749999999645},{"name":"D4","midi":62,"time":26.17708333333331,"velocity":0.7244094488188977,"duration":0.2109375},{"name":"A#3","midi":58,"time":26.32812499999998,"velocity":0.7244094488188977,"duration":0.2109375},{"name":"G3","midi":55,"time":26.479166666666647,"velocity":0.7244094488188977,"duration":0.2109375},{"name":"D4","midi":62,"time":26.62890624999998,"velocity":0.7244094488188977,"duration":0.2109375},{"name":"A#3","midi":58,"time":26.779947916666647,"velocity":0.7244094488188977,"duration":0.21093749999999645},{"name":"F3","midi":53,"time":26.779947916666647,"velocity":0.7244094488188977,"duration":0.4466145833333286},{"name":"G3","midi":55,"time":26.93098958333331,"velocity":0.7244094488188977,"duration":0.21093749999999645},{"name":"D4","midi":62,"time":27.082031249999975,"velocity":0.7244094488188977,"duration":0.2825520833333357},{"name":"B3","midi":59,"time":27.233072916666643,"velocity":0.7244094488188977,"duration":0.2109375},{"name":"E3","midi":52,"time":27.233072916666643,"velocity":0.7244094488188977,"duration":0.4466145833333357},{"name":"G#3","midi":56,"time":27.38411458333331,"velocity":0.7244094488188977,"duration":0.2109375},{"name":"D4","midi":62,"time":27.533854166666643,"velocity":0.7244094488188977,"duration":0.2825520833333357},{"name":"B3","midi":59,"time":27.68489583333331,"velocity":0.7244094488188977,"duration":0.2109375},{"name":"D3","midi":50,"time":27.68489583333331,"velocity":0.7244094488188977,"duration":0.44661458333333215},{"name":"G#3","midi":56,"time":27.83593749999998,"velocity":0.7244094488188977,"duration":0.21093749999999645},{"name":"F4","midi":65,"time":27.986979166666643,"velocity":0.7244094488188977,"duration":0.2825520833333357},{"name":"B3","midi":59,"time":28.13802083333331,"velocity":0.7244094488188977,"duration":0.2109375},{"name":"C3","midi":48,"time":28.13802083333331,"velocity":0.7244094488188977,"duration":0.4466145833333357},{"name":"G#3","midi":56,"time":28.28906249999998,"velocity":0.7244094488188977,"duration":0.2109375},{"name":"E4","midi":64,"time":28.43880208333331,"velocity":0.7244094488188977,"duration":0.2825520833333357},{"name":"B3","midi":59,"time":28.58984374999998,"velocity":0.7244094488188977,"duration":0.2109375},{"name":"B2","midi":47,"time":28.58984374999998,"velocity":0.7244094488188977,"duration":0.44661458333333215},{"name":"G#3","midi":56,"time":28.740885416666647,"velocity":0.7244094488188977,"duration":0.21093749999999645},{"name":"D4","midi":62,"time":28.89192708333331,"velocity":0.7244094488188977,"duration":0.2109375},{"name":"C4","midi":60,"time":29.04296874999998,"velocity":0.7244094488188977,"duration":0.28255208333333215},{"name":"A2","midi":45,"time":29.04296874999998,"velocity":0.7244094488188977,"duration":0.4466145833333357},{"name":"A3","midi":57,"time":29.194010416666643,"velocity":0.7244094488188977,"duration":0.21093750000000355},{"name":"E4","midi":64,"time":29.34374999999998,"velocity":0.7244094488188977,"duration":0.2109375},{"name":"C4","midi":60,"time":29.494791666666647,"velocity":0.7244094488188977,"duration":0.21093749999999645},{"name":"C3","midi":48,"time":29.494791666666647,"velocity":0.7244094488188977,"duration":0.4466145833333286},{"name":"A3","midi":57,"time":29.64583333333331,"velocity":0.7244094488188977,"duration":0.21093749999999645},{"name":"E4","midi":64,"time":29.796874999999975,"velocity":0.7244094488188977,"duration":0.2825520833333357},{"name":"C4","midi":60,"time":29.947916666666643,"velocity":0.7244094488188977,"duration":0.2109375},{"name":"D3","midi":50,"time":29.947916666666643,"velocity":0.7244094488188977,"duration":0.44661458333333215},{"name":"A3","midi":57,"time":30.09895833333331,"velocity":0.7244094488188977,"duration":0.21093749999999645},{"name":"F#4","midi":66,"time":30.249999999999975,"velocity":0.7244094488188977,"duration":0.28255208333333215},{"name":"C4","midi":60,"time":30.399739583333307,"velocity":0.7244094488188977,"duration":0.2109375},{"name":"E3","midi":52,"time":30.399739583333307,"velocity":0.7244094488188977,"duration":0.44661458333333215},{"name":"A3","midi":57,"time":30.550781249999975,"velocity":0.7244094488188977,"duration":0.21093749999999645},{"name":"G#4","midi":68,"time":30.70182291666664,"velocity":0.7244094488188977,"duration":0.2825520833333357},{"name":"C4","midi":60,"time":30.852864583333307,"velocity":0.7244094488188977,"duration":0.2109375},{"name":"F3","midi":53,"time":30.852864583333307,"velocity":0.7244094488188977,"duration":0.44661458333333215},{"name":"A3","midi":57,"time":31.003906249999975,"velocity":0.7244094488188977,"duration":0.21093749999999645},{"name":"A4","midi":69,"time":31.15494791666664,"velocity":0.7244094488188977,"duration":0.2109375},{"name":"E4","midi":64,"time":31.30468749999997,"velocity":0.7244094488188977,"duration":0.2825520833333357},{"name":"C3","midi":48,"time":31.30468749999997,"velocity":0.7244094488188977,"duration":0.4466145833333357},{"name":"C4","midi":60,"time":31.45572916666664,"velocity":0.7244094488188977,"duration":0.2109375},{"name":"A4","midi":69,"time":31.606770833333307,"velocity":0.7244094488188977,"duration":0.2109375},{"name":"F4","midi":65,"time":31.757812499999975,"velocity":0.7244094488188977,"duration":0.28255208333333215},{"name":"D3","midi":50,"time":31.757812499999975,"velocity":0.7244094488188977,"duration":0.44661458333333215},{"name":"B3","midi":59,"time":31.90885416666664,"velocity":0.7244094488188977,"duration":0.21093750000000355},{"name":"A4","midi":69,"time":32.05989583333331,"velocity":0.7244094488188977,"duration":0.2109375},{"name":"E4","midi":64,"time":32.20963541666664,"velocity":0.7244094488188977,"duration":0.2825520833333286},{"name":"E3","midi":52,"time":32.20963541666664,"velocity":0.7244094488188977,"duration":0.4466145833333286},{"name":"B3","midi":59,"time":32.36067708333331,"velocity":0.7244094488188977,"duration":0.2109375},{"name":"G#4","midi":68,"time":32.51171874999997,"velocity":0.7244094488188977,"duration":0.2109375},{"name":"E4","midi":64,"time":32.662760416666636,"velocity":0.7244094488188977,"duration":0.2109375000000071},{"name":"A2","midi":45,"time":32.662760416666636,"velocity":0.7244094488188977,"duration":0.5651041666666785},{"name":"C4","midi":60,"time":32.81380208333331,"velocity":0.7244094488188977,"duration":0.2109375000000071},{"name":"A4","midi":69,"time":32.96484374999998,"velocity":0.7244094488188977,"duration":0.2109375},{"name":"E4","midi":64,"time":33.114583333333314,"velocity":0.7244094488188977,"duration":0.2109375},{"name":"A3","midi":57,"time":33.114583333333314,"velocity":0.7244094488188977,"duration":0.4466145833333357},{"name":"C4","midi":60,"time":33.26562499999998,"velocity":0.7244094488188977,"duration":0.2109375000000071},{"name":"C5","midi":72,"time":33.41666666666665,"velocity":0.7244094488188977,"duration":0.2825520833333286},{"name":"F4","midi":65,"time":33.567708333333314,"velocity":0.7244094488188977,"duration":0.2109375},{"name":"A3","midi":57,"time":33.567708333333314,"velocity":0.7244094488188977,"duration":0.4466145833333357},{"name":"D4","midi":62,"time":33.71874999999998,"velocity":0.7244094488188977,"duration":0.2109375000000071},{"name":"A#4","midi":70,"time":33.86979166666665,"velocity":0.7244094488188977,"duration":0.2825520833333286},{"name":"G4","midi":67,"time":34.020833333333314,"velocity":0.7244094488188977,"duration":0.2109374999999929},{"name":"G3","midi":55,"time":34.020833333333314,"velocity":0.7244094488188977,"duration":0.4466145833333286},{"name":"E4","midi":64,"time":34.17057291666664,"velocity":0.7244094488188977,"duration":0.2109375},{"name":"A#4","midi":70,"time":34.32161458333331,"velocity":0.7244094488188977,"duration":0.2825520833333357},{"name":"A4","midi":69,"time":34.47265624999998,"velocity":0.7244094488188977,"duration":0.2109375},{"name":"F3","midi":53,"time":34.47265624999998,"velocity":0.7244094488188977,"duration":0.5651041666666785},{"name":"F4","midi":65,"time":34.62369791666664,"velocity":0.7244094488188977,"duration":0.2109375000000071},{"name":"A4","midi":69,"time":34.774739583333314,"velocity":0.7244094488188977,"duration":0.2109375000000071},{"name":"C4","midi":60,"time":34.925781249999986,"velocity":0.7244094488188977,"duration":0.2825520833333357},{"name":"F2","midi":41,"time":34.925781249999986,"velocity":0.7244094488188977,"duration":0.4466145833333357},{"name":"A3","midi":57,"time":35.07552083333332,"velocity":0.7244094488188977,"duration":0.2109375},{"name":"A4","midi":69,"time":35.226562499999986,"velocity":0.7244094488188977,"duration":0.2109375000000071},{"name":"D4","midi":62,"time":35.37760416666666,"velocity":0.7244094488188977,"duration":0.2825520833333357},{"name":"F2","midi":41,"time":35.37760416666666,"velocity":0.7244094488188977,"duration":0.4466145833333357},{"name":"B3","midi":59,"time":35.52864583333333,"velocity":0.7244094488188977,"duration":0.2109375},{"name":"G4","midi":67,"time":35.67968749999999,"velocity":0.7244094488188977,"duration":0.2109375},{"name":"E4","midi":64,"time":35.83072916666666,"velocity":0.7244094488188977,"duration":0.2825520833333357},{"name":"E2","midi":40,"time":35.83072916666666,"velocity":0.7244094488188977,"duration":0.4466145833333357},{"name":"C#4","midi":61,"time":35.98046874999999,"velocity":0.7244094488188977,"duration":0.2109375},{"name":"G4","midi":67,"time":36.13151041666666,"velocity":0.7244094488188977,"duration":0.2109375000000071},{"name":"F4","midi":65,"time":36.28255208333333,"velocity":0.7244094488188977,"duration":0.2109375000000071},{"name":"D2","midi":38,"time":36.28255208333333,"velocity":0.7244094488188977,"duration":0.5651041666666785},{"name":"D4","midi":62,"time":36.43359375,"velocity":0.7244094488188977,"duration":0.2109375000000071},{"name":"D5","midi":74,"time":36.58463541666667,"velocity":0.7244094488188977,"duration":0.2825520833333357},{"name":"A4","midi":69,"time":36.73567708333334,"velocity":0.7244094488188977,"duration":0.2109374999999929},{"name":"D3","midi":50,"time":36.73567708333334,"velocity":0.7244094488188977,"duration":0.4466145833333286},{"name":"F4","midi":65,"time":36.88541666666667,"velocity":0.7244094488188977,"duration":0.2109375},{"name":"F5","midi":77,"time":37.036458333333336,"velocity":0.7244094488188977,"duration":0.2825520833333357},{"name":"A#4","midi":70,"time":37.18750000000001,"velocity":0.7244094488188977,"duration":0.2109375},{"name":"D3","midi":50,"time":37.18750000000001,"velocity":0.7244094488188977,"duration":0.4466145833333357},{"name":"G4","midi":67,"time":37.33854166666667,"velocity":0.7244094488188977,"duration":0.2109375000000071},{"name":"D#5","midi":75,"time":37.48958333333334,"velocity":0.7244094488188977,"duration":0.2825520833333286},{"name":"C5","midi":72,"time":37.64062500000001,"velocity":0.7244094488188977,"duration":0.2109375},{"name":"C3","midi":48,"time":37.64062500000001,"velocity":0.7244094488188977,"duration":0.4466145833333286},{"name":"A4","midi":69,"time":37.79166666666667,"velocity":0.7244094488188977,"duration":0.2109375},{"name":"D#5","midi":75,"time":37.94140625000001,"velocity":0.7244094488188977,"duration":0.2109375},{"name":"D5","midi":74,"time":38.09244791666667,"velocity":0.7244094488188977,"duration":0.2825520833333357},{"name":"A#2","midi":46,"time":38.09244791666667,"velocity":0.7244094488188977,"duration":0.5651041666666785},{"name":"A#4","midi":70,"time":38.24348958333334,"velocity":0.7244094488188977,"duration":0.2109375},{"name":"D5","midi":74,"time":38.39453125000001,"velocity":0.7244094488188977,"duration":0.2109375000000071},{"name":"F4","midi":65,"time":38.54557291666668,"velocity":0.7244094488188977,"duration":0.2825520833333357},{"name":"A#3","midi":58,"time":38.54557291666668,"velocity":0.7244094488188977,"duration":0.4466145833333286},{"name":"D4","midi":62,"time":38.69661458333335,"velocity":0.7244094488188977,"duration":0.2109374999999929},{"name":"D5","midi":74,"time":38.84635416666668,"velocity":0.7244094488188977,"duration":0.2109375},{"name":"G4","midi":67,"time":38.99739583333334,"velocity":0.7244094488188977,"duration":0.2825520833333357},{"name":"A#3","midi":58,"time":38.99739583333334,"velocity":0.7244094488188977,"duration":0.4466145833333357},{"name":"E4","midi":64,"time":39.148437500000014,"velocity":0.7244094488188977,"duration":0.2109375},{"name":"C5","midi":72,"time":39.29947916666668,"velocity":0.7244094488188977,"duration":0.2109375},{"name":"A4","midi":69,"time":39.45052083333334,"velocity":0.7244094488188977,"duration":0.2825520833333357},{"name":"A3","midi":57,"time":39.45052083333334,"velocity":0.7244094488188977,"duration":0.4466145833333286},{"name":"F#4","midi":66,"time":39.601562500000014,"velocity":0.7244094488188977,"duration":0.2109374999999929},{"name":"C5","midi":72,"time":39.75130208333334,"velocity":0.7244094488188977,"duration":0.2109375},{"name":"A#4","midi":70,"time":39.90234375000001,"velocity":0.7244094488188977,"duration":0.2109375000000071},{"name":"G3","midi":55,"time":39.90234375000001,"velocity":0.7244094488188977,"duration":1.130208333333357},{"name":"G4","midi":67,"time":40.05338541666668,"velocity":0.7244094488188977,"duration":0.2109375000000071},{"name":"D5","midi":74,"time":40.20442708333335,"velocity":0.7244094488188977,"duration":0.2109375000000071},{"name":"A#4","midi":70,"time":40.35546875000002,"velocity":0.7244094488188977,"duration":0.2109375000000071},{"name":"G4","midi":67,"time":40.50651041666669,"velocity":0.7244094488188977,"duration":0.2109375},{"name":"G5","midi":79,"time":40.65625000000003,"velocity":0.7244094488188977,"duration":0.2109375},{"name":"D#5","midi":75,"time":40.80729166666669,"velocity":0.7244094488188977,"duration":0.2825520833333357},{"name":"G4","midi":67,"time":40.958333333333364,"velocity":0.7244094488188977,"duration":0.2109375},{"name":"G5","midi":79,"time":41.10937500000003,"velocity":0.7244094488188977,"duration":0.2109375000000071},{"name":"D5","midi":74,"time":41.2604166666667,"velocity":0.7244094488188977,"duration":0.2825520833333357},{"name":"A#3","midi":58,"time":41.2604166666667,"velocity":0.7244094488188977,"duration":0.4466145833333357},{"name":"G4","midi":67,"time":41.41145833333337,"velocity":0.7244094488188977,"duration":0.2109375},{"name":"G5","midi":79,"time":41.562500000000036,"velocity":0.7244094488188977,"duration":0.2109375},{"name":"C#5","midi":73,"time":41.71223958333337,"velocity":0.7244094488188977,"duration":0.2109375},{"name":"A3","midi":57,"time":41.71223958333337,"velocity":0.7244094488188977,"duration":0.4466145833333357},{"name":"A4","midi":69,"time":41.863281250000036,"velocity":0.7244094488188977,"duration":0.2825520833333357},{"name":"G5","midi":79,"time":42.01432291666671,"velocity":0.7244094488188977,"duration":0.2109375},{"name":"E5","midi":76,"time":42.16536458333337,"velocity":0.7244094488188977,"duration":0.2109375000000071},{"name":"G3","midi":55,"time":42.16536458333337,"velocity":0.7244094488188977,"duration":0.4466145833333428},{"name":"C#5","midi":73,"time":42.31640625000004,"velocity":0.7244094488188977,"duration":0.2109375000000071},{"name":"A#5","midi":82,"time":42.467447916666714,"velocity":0.7244094488188977,"duration":0.2825520833333357},{"name":"E5","midi":76,"time":42.61718750000005,"velocity":0.7244094488188977,"duration":0.2109375},{"name":"F3","midi":53,"time":42.61718750000005,"velocity":0.7244094488188977,"duration":0.4466145833333357},{"name":"C#5","midi":73,"time":42.768229166666714,"velocity":0.7244094488188977,"duration":0.2109375000000071},{"name":"A5","midi":81,"time":42.919270833333385,"velocity":0.7244094488188977,"duration":0.2825520833333286},{"name":"E5","midi":76,"time":43.07031250000005,"velocity":0.7244094488188977,"duration":0.2109375},{"name":"E3","midi":52,"time":43.07031250000005,"velocity":0.7244094488188977,"duration":0.4466145833333357},{"name":"C#5","midi":73,"time":43.221354166666714,"velocity":0.7244094488188977,"duration":0.2109375000000071},{"name":"G5","midi":79,"time":43.372395833333385,"velocity":0.7244094488188977,"duration":0.140625},{"name":"F5","midi":77,"time":43.52213541666672,"velocity":0.7244094488188977,"duration":0.2825520833333286},{"name":"D3","midi":50,"time":43.52213541666672,"velocity":0.7244094488188977,"duration":0.4466145833333286},{"name":"D5","midi":74,"time":43.673177083333385,"velocity":0.7244094488188977,"duration":0.15234375},{"name":"A4","midi":69,"time":43.82421875000005,"velocity":0.7244094488188977,"duration":0.15234375},{"name":"F4","midi":65,"time":43.975260416666714,"velocity":0.7244094488188977,"duration":0.2109375000000071},{"name":"F3","midi":53,"time":43.975260416666714,"velocity":0.7244094488188977,"duration":0.4466145833333428},{"name":"D4","midi":62,"time":44.126302083333385,"velocity":0.7244094488188977,"duration":0.2109375000000071},{"name":"A4","midi":69,"time":44.27734375000006,"velocity":0.7244094488188977,"duration":0.2825520833333357},{"name":"F4","midi":65,"time":44.42708333333339,"velocity":0.7244094488188977,"duration":0.2109375},{"name":"G3","midi":55,"time":44.42708333333339,"velocity":0.7244094488188977,"duration":0.4466145833333357},{"name":"D4","midi":62,"time":44.57812500000006,"velocity":0.7244094488188977,"duration":0.2109375000000071},{"name":"B4","midi":71,"time":44.72916666666673,"velocity":0.7244094488188977,"duration":0.2825520833333286},{"name":"F4","midi":65,"time":44.88020833333339,"velocity":0.7244094488188977,"duration":0.2109375},{"name":"A3","midi":57,"time":44.88020833333339,"velocity":0.7244094488188977,"duration":0.4466145833333357},{"name":"D4","midi":62,"time":45.03125000000006,"velocity":0.7244094488188977,"duration":0.2109375000000071},{"name":"C#5","midi":73,"time":45.18229166666673,"velocity":0.7244094488188977,"duration":0.2825520833333286},{"name":"F4","midi":65,"time":45.33333333333339,"velocity":0.7244094488188977,"duration":0.2109374999999929},{"name":"A#3","midi":58,"time":45.33333333333339,"velocity":0.7244094488188977,"duration":0.4466145833333286},{"name":"D4","midi":62,"time":45.48307291666672,"velocity":0.7244094488188977,"duration":0.2109375},{"name":"D5","midi":74,"time":45.634114583333385,"velocity":0.7244094488188977,"duration":0.2825520833333357},{"name":"F4","midi":65,"time":45.78515625000006,"velocity":0.7244094488188977,"duration":0.2109375},{"name":"F3","midi":53,"time":45.78515625000006,"velocity":0.7244094488188977,"duration":0.4466145833333357},{"name":"D4","midi":62,"time":45.93619791666672,"velocity":0.7244094488188977,"duration":0.2109375000000071},{"name":"A4","midi":69,"time":46.08723958333339,"velocity":0.7244094488188977,"duration":0.2825520833333286},{"name":"F4","midi":65,"time":46.23828125000006,"velocity":0.7244094488188977,"duration":0.2109374999999929},{"name":"G3","midi":55,"time":46.23828125000006,"velocity":0.7244094488188977,"duration":0.4466145833333286},{"name":"D4","midi":62,"time":46.388020833333385,"velocity":0.7244094488188977,"duration":0.2109375},{"name":"A#4","midi":70,"time":46.53906250000005,"velocity":0.7244094488188977,"duration":0.2825520833333357},{"name":"E4","midi":64,"time":46.69010416666672,"velocity":0.7244094488188977,"duration":0.2109375},{"name":"A3","midi":57,"time":46.69010416666672,"velocity":0.7244094488188977,"duration":0.4466145833333357},{"name":"C#4","midi":61,"time":46.841145833333385,"velocity":0.7244094488188977,"duration":0.2109375000000071},{"name":"A4","midi":69,"time":46.99218750000006,"velocity":0.7244094488188977,"duration":0.2825520833333286},{"name":"E4","midi":64,"time":47.14322916666672,"velocity":0.7244094488188977,"duration":0.2109374999999929},{"name":"A#2","midi":46,"time":47.14322916666672,"velocity":0.7244094488188977,"duration":0.4466145833333286},{"name":"C#4","midi":61,"time":47.29296875000005,"velocity":0.7244094488188977,"duration":0.2109375},{"name":"G4","midi":67,"time":47.444010416666714,"velocity":0.7244094488188977,"duration":0.2825520833333357},{"name":"D4","midi":62,"time":47.595052083333385,"velocity":0.7244094488188977,"duration":0.2109375},{"name":"F2","midi":41,"time":47.595052083333385,"velocity":0.7244094488188977,"duration":0.4466145833333357},{"name":"A3","midi":57,"time":47.74609375000005,"velocity":0.7244094488188977,"duration":0.2109375000000071},{"name":"F4","midi":65,"time":47.89713541666672,"velocity":0.7244094488188977,"duration":0.2825520833333286},{"name":"D4","midi":62,"time":48.048177083333385,"velocity":0.7244094488188977,"duration":0.2109374999999929},{"name":"G2","midi":43,"time":48.048177083333385,"velocity":0.7244094488188977,"duration":0.4466145833333286},{"name":"A#3","midi":58,"time":48.197916666666714,"velocity":0.7244094488188977,"duration":0.2109375},{"name":"E4","midi":64,"time":48.34895833333338,"velocity":0.7244094488188977,"duration":0.2825520833333357},{"name":"C4","midi":60,"time":48.50000000000005,"velocity":0.7244094488188977,"duration":0.2109375},{"name":"A2","midi":45,"time":48.50000000000005,"velocity":0.7244094488188977,"duration":0.4466145833333357},{"name":"F3","midi":53,"time":48.651041666666714,"velocity":0.7244094488188977,"duration":0.2109375000000071},{"name":"D#4","midi":63,"time":48.802083333333385,"velocity":0.7244094488188977,"duration":0.2825520833333286},{"name":"A#3","midi":58,"time":48.95312500000005,"velocity":0.7244094488188977,"duration":0.2109375},{"name":"A#2","midi":46,"time":48.95312500000005,"velocity":0.7244094488188977,"duration":0.4466145833333286},{"name":"F3","midi":53,"time":49.104166666666714,"velocity":0.7244094488188977,"duration":0.2109375},{"name":"D4","midi":62,"time":49.25390625000005,"velocity":0.7244094488188977,"duration":0.2109375},{"name":"A3","midi":57,"time":49.404947916666714,"velocity":0.7244094488188977,"duration":0.2825520833333357},{"name":"F2","midi":41,"time":49.404947916666714,"velocity":0.7244094488188977,"duration":0.4466145833333357},{"name":"F3","midi":53,"time":49.555989583333385,"velocity":0.7244094488188977,"duration":0.2109375},{"name":"D4","midi":62,"time":49.70703125000005,"velocity":0.7244094488188977,"duration":0.2109375},{"name":"A#3","midi":58,"time":49.858072916666714,"velocity":0.7244094488188977,"duration":0.2825520833333357},{"name":"G2","midi":43,"time":49.858072916666714,"velocity":0.7244094488188977,"duration":0.4466145833333286},{"name":"E3","midi":52,"time":50.009114583333385,"velocity":0.7244094488188977,"duration":0.2109374999999929},{"name":"D4","midi":62,"time":50.158854166666714,"velocity":0.7244094488188977,"duration":0.2109375},{"name":"A3","midi":57,"time":50.30989583333338,"velocity":0.7244094488188977,"duration":0.2825520833333357},{"name":"A2","midi":45,"time":50.30989583333338,"velocity":0.7244094488188977,"duration":0.4466145833333357},{"name":"E3","midi":52,"time":50.46093750000005,"velocity":0.7244094488188977,"duration":0.2109375},{"name":"C#4","midi":61,"time":50.611979166666714,"velocity":0.7244094488188977,"duration":0.2109375},{"name":"A3","midi":57,"time":50.76302083333338,"velocity":0.7244094488188977,"duration":0.2109375},{"name":"D2","midi":38,"time":50.76302083333338,"velocity":0.7244094488188977,"duration":2.8281250000000284},{"name":"F#3","midi":54,"time":50.93489583333338,"velocity":0.7244094488188977,"duration":0.2109375},{"name":"A3","midi":57,"time":51.084635416666714,"velocity":0.7244094488188977,"duration":0.2109375},{"name":"C4","midi":60,"time":51.23567708333338,"velocity":0.7244094488188977,"duration":0.2109375000000071},{"name":"A3","midi":57,"time":51.38671875000005,"velocity":0.7244094488188977,"duration":0.2109375000000071},{"name":"C4","midi":60,"time":51.53776041666672,"velocity":0.7244094488188977,"duration":0.2109375000000071},{"name":"D#4","midi":63,"time":51.68880208333339,"velocity":0.7244094488188977,"duration":0.2109375000000071},{"name":"C4","midi":60,"time":51.839843750000064,"velocity":0.7244094488188977,"duration":0.2109375},{"name":"D#4","midi":63,"time":51.9895833333334,"velocity":0.7244094488188977,"duration":0.2109375},{"name":"F#4","midi":66,"time":52.140625000000064,"velocity":0.7244094488188977,"duration":0.4466145833333357},{"name":"F#2","midi":42,"time":52.291666666666735,"velocity":0.7244094488188977,"duration":0.1640625},{"name":"A2","midi":45,"time":52.4427083333334,"velocity":0.7244094488188977,"duration":0.1640625},{"name":"D3","midi":50,"time":52.593750000000064,"velocity":0.7244094488188977,"duration":2.261718750000014},{"name":"A#3","midi":58,"time":52.593750000000064,"velocity":0.7244094488188977,"duration":0.2109375},{"name":"G3","midi":55,"time":52.765625000000064,"velocity":0.7244094488188977,"duration":0.2109375},{"name":"A#3","midi":58,"time":52.91666666666673,"velocity":0.7244094488188977,"duration":0.2109375},{"name":"D4","midi":62,"time":53.066406250000064,"velocity":0.7244094488188977,"duration":0.2109375},{"name":"A#3","midi":58,"time":53.21744791666673,"velocity":0.7244094488188977,"duration":0.2109375000000071},{"name":"D4","midi":62,"time":53.3684895833334,"velocity":0.7244094488188977,"duration":0.2109375000000071},{"name":"G4","midi":67,"time":53.51953125000007,"velocity":0.7244094488188977,"duration":0.2109375000000071},{"name":"D4","midi":62,"time":53.67057291666674,"velocity":0.7244094488188977,"duration":0.2109375000000071},{"name":"G4","midi":67,"time":53.821614583333414,"velocity":0.7244094488188977,"duration":0.2109375},{"name":"A#4","midi":70,"time":53.97135416666675,"velocity":0.7244094488188977,"duration":0.59765625},{"name":"G3","midi":55,"time":54.122395833333414,"velocity":0.7244094488188977,"duration":0.1640625},{"name":"A#3","midi":58,"time":54.27343750000008,"velocity":0.7244094488188977,"duration":0.1640625000000071},{"name":"C#4","midi":61,"time":54.42447916666675,"velocity":0.7244094488188977,"duration":0.89453125},{"name":"G4","midi":67,"time":54.575520833333414,"velocity":0.7244094488188977,"duration":0.2109375},{"name":"E5","midi":76,"time":54.72656250000008,"velocity":0.7244094488188977,"duration":0.3763020833333357},{"name":"A#4","midi":70,"time":54.876302083333414,"velocity":0.7244094488188977,"duration":0.2109375},{"name":"D3","midi":50,"time":54.876302083333414,"velocity":0.7244094488188977,"duration":0.89453125},{"name":"G4","midi":67,"time":55.02734375000008,"velocity":0.7244094488188977,"duration":0.2109375000000071},{"name":"G5","midi":79,"time":55.17838541666675,"velocity":0.7244094488188977,"duration":0.3763020833333286},{"name":"A#4","midi":70,"time":55.329427083333414,"velocity":0.7244094488188977,"duration":0.2109375},{"name":"C#4","midi":61,"time":55.329427083333414,"velocity":0.7244094488188977,"duration":0.89453125},{"name":"G4","midi":67,"time":55.48046875000008,"velocity":0.7244094488188977,"duration":0.2109375},{"name":"E5","midi":76,"time":55.63151041666674,"velocity":0.7244094488188977,"duration":0.3763020833333357},{"name":"A#4","midi":70,"time":55.78125000000008,"velocity":0.7244094488188977,"duration":0.2109375},{"name":"D3","midi":50,"time":55.78125000000008,"velocity":0.7244094488188977,"duration":0.89453125},{"name":"G4","midi":67,"time":55.93229166666674,"velocity":0.7244094488188977,"duration":0.2109375000000071},{"name":"C#5","midi":73,"time":56.083333333333414,"velocity":0.7244094488188977,"duration":0.3763020833333286},{"name":"A#4","midi":70,"time":56.23437500000008,"velocity":0.7244094488188977,"duration":0.2109375},{"name":"C#4","midi":61,"time":56.23437500000008,"velocity":0.7244094488188977,"duration":0.89453125},{"name":"G4","midi":67,"time":56.38541666666674,"velocity":0.7244094488188977,"duration":0.2109375},{"name":"E5","midi":76,"time":56.53645833333341,"velocity":0.7244094488188977,"duration":0.3763020833333357},{"name":"A#4","midi":70,"time":56.68750000000008,"velocity":0.7244094488188977,"duration":0.2109375},{"name":"D3","midi":50,"time":56.68750000000008,"velocity":0.7244094488188977,"duration":0.8945312499999929},{"name":"G4","midi":67,"time":56.837239583333414,"velocity":0.7244094488188977,"duration":0.2109375},{"name":"G5","midi":79,"time":56.98828125000008,"velocity":0.7244094488188977,"duration":0.3763020833333286},{"name":"A#4","midi":70,"time":57.13932291666674,"velocity":0.7244094488188977,"duration":0.2109375},{"name":"C#4","midi":61,"time":57.13932291666674,"velocity":0.7244094488188977,"duration":0.8945312499999929},{"name":"G4","midi":67,"time":57.29036458333341,"velocity":0.7244094488188977,"duration":0.2109375},{"name":"E5","midi":76,"time":57.44140625000007,"velocity":0.7244094488188977,"duration":0.3763020833333286},{"name":"A#4","midi":70,"time":57.592447916666735,"velocity":0.7244094488188977,"duration":0.2109375},{"name":"D3","midi":50,"time":57.592447916666735,"velocity":0.7244094488188977,"duration":0.8945312499999929},{"name":"G4","midi":67,"time":57.74218750000007,"velocity":0.7244094488188977,"duration":0.2109375},{"name":"C#5","midi":73,"time":57.893229166666735,"velocity":0.7244094488188977,"duration":0.3763020833333286},{"name":"A4","midi":69,"time":58.0442708333334,"velocity":0.7244094488188977,"duration":0.2109375},{"name":"C4","midi":60,"time":58.0442708333334,"velocity":0.7244094488188977,"duration":0.8945312499999929},{"name":"F#4","midi":66,"time":58.195312500000064,"velocity":0.7244094488188977,"duration":0.2109375},{"name":"D5","midi":74,"time":58.34635416666673,"velocity":0.7244094488188977,"duration":0.3763020833333286},{"name":"A4","midi":69,"time":58.49739583333339,"velocity":0.7244094488188977,"duration":0.2109375},{"name":"D3","midi":50,"time":58.49739583333339,"velocity":0.7244094488188977,"duration":0.8945312499999929},{"name":"F#4","midi":66,"time":58.64713541666673,"velocity":0.7244094488188977,"duration":0.2109375},{"name":"D#5","midi":75,"time":58.79817708333339,"velocity":0.7244094488188977,"duration":0.3763020833333286},{"name":"A4","midi":69,"time":58.94921875000006,"velocity":0.7244094488188977,"duration":0.2109375},{"name":"C4","midi":60,"time":58.94921875000006,"velocity":0.7244094488188977,"duration":0.8945312499999929},{"name":"F#4","midi":66,"time":59.10026041666672,"velocity":0.7244094488188977,"duration":0.2109375},{"name":"D5","midi":74,"time":59.251302083333385,"velocity":0.7244094488188977,"duration":0.3763020833333286},{"name":"A4","midi":69,"time":59.40234375000005,"velocity":0.7244094488188977,"duration":0.2109375},{"name":"D3","midi":50,"time":59.40234375000005,"velocity":0.7244094488188977,"duration":0.8945312499999929},{"name":"F#4","midi":66,"time":59.552083333333385,"velocity":0.7244094488188977,"duration":0.2109375},{"name":"C5","midi":72,"time":59.70312500000005,"velocity":0.7244094488188977,"duration":0.3763020833333286},{"name":"A4","midi":69,"time":59.854166666666714,"velocity":0.7244094488188977,"duration":0.2109375},{"name":"C4","midi":60,"time":59.854166666666714,"velocity":0.7244094488188977,"duration":0.8945312499999929},{"name":"F#4","midi":66,"time":60.00520833333338,"velocity":0.7244094488188977,"duration":0.2109375},{"name":"D5","midi":74,"time":60.15625000000004,"velocity":0.7244094488188977,"duration":0.3763020833333286},{"name":"A4","midi":69,"time":60.30729166666671,"velocity":0.7244094488188977,"duration":0.2109375},{"name":"D3","midi":50,"time":60.30729166666671,"velocity":0.7244094488188977,"duration":0.8945312499999929},{"name":"F#4","midi":66,"time":60.45833333333337,"velocity":0.7244094488188977,"duration":0.2109375},{"name":"D#5","midi":75,"time":60.60807291666671,"velocity":0.7244094488188977,"duration":0.3763020833333286},{"name":"A4","midi":69,"time":60.75911458333337,"velocity":0.7244094488188977,"duration":0.2109375},{"name":"C4","midi":60,"time":60.75911458333337,"velocity":0.7244094488188977,"duration":0.8945312499999929},{"name":"F#4","midi":66,"time":60.910156250000036,"velocity":0.7244094488188977,"duration":0.2109375},{"name":"D5","midi":74,"time":61.0611979166667,"velocity":0.7244094488188977,"duration":0.3763020833333286},{"name":"A4","midi":69,"time":61.212239583333364,"velocity":0.7244094488188977,"duration":0.2109375},{"name":"D3","midi":50,"time":61.212239583333364,"velocity":0.7244094488188977,"duration":0.8945312500000071},{"name":"F#4","midi":66,"time":61.36328125000003,"velocity":0.7244094488188977,"duration":0.2109375},{"name":"C5","midi":72,"time":61.513020833333364,"velocity":0.7244094488188977,"duration":0.2109375},{"name":"G4","midi":67,"time":61.66406250000003,"velocity":0.7244094488188977,"duration":0.2109375000000071},{"name":"A#3","midi":58,"time":61.66406250000003,"velocity":0.7244094488188977,"duration":0.8945312500000142},{"name":"D4","midi":62,"time":61.8151041666667,"velocity":0.7244094488188977,"duration":0.2109375000000071},{"name":"G4","midi":67,"time":61.96614583333337,"velocity":0.7244094488188977,"duration":0.2109375},{"name":"A#4","midi":70,"time":62.117187500000036,"velocity":0.7244094488188977,"duration":0.2109375000000071},{"name":"D3","midi":50,"time":62.117187500000036,"velocity":0.7244094488188977,"duration":0.8945312500000142},{"name":"G4","midi":67,"time":62.26822916666671,"velocity":0.7244094488188977,"duration":0.2109375},{"name":"A#4","midi":70,"time":62.41796875000004,"velocity":0.7244094488188977,"duration":0.2109375},{"name":"D5","midi":74,"time":62.56901041666671,"velocity":0.7244094488188977,"duration":0.2109375000000071},{"name":"A#3","midi":58,"time":62.56901041666671,"velocity":0.7244094488188977,"duration":0.8945312500000142},{"name":"A#4","midi":70,"time":62.72005208333338,"velocity":0.7244094488188977,"duration":0.2109375000000071},{"name":"D5","midi":74,"time":62.87109375000005,"velocity":0.7244094488188977,"duration":0.2109375},{"name":"G5","midi":79,"time":63.022135416666714,"velocity":0.7244094488188977,"duration":0.2109375000000071},{"name":"D3","midi":50,"time":63.022135416666714,"velocity":0.7244094488188977,"duration":0.8945312500000142},{"name":"D5","midi":74,"time":63.173177083333385,"velocity":0.7244094488188977,"duration":0.2109375},{"name":"G5","midi":79,"time":63.32291666666672,"velocity":0.7244094488188977,"duration":0.2109375},{"name":"A#5","midi":82,"time":63.473958333333385,"velocity":0.7244094488188977,"duration":0.2109375000000071},{"name":"G3","midi":55,"time":63.473958333333385,"velocity":0.7244094488188977,"duration":0.8945312499999858},{"name":"A5","midi":81,"time":63.62500000000006,"velocity":0.7244094488188977,"duration":0.2109375000000071},{"name":"G5","midi":79,"time":63.77604166666673,"velocity":0.7244094488188977,"duration":0.2109375},{"name":"F5","midi":77,"time":63.92708333333339,"velocity":0.7244094488188977,"duration":0.2109374999999929},{"name":"D3","midi":50,"time":63.92708333333339,"velocity":0.7244094488188977,"duration":0.8945312499999787},{"name":"E5","midi":76,"time":64.07812500000006,"velocity":0.7244094488188977,"duration":0.2109374999999858},{"name":"D5","midi":74,"time":64.22916666666671,"velocity":0.7244094488188977,"duration":0.2109375},{"name":"C#5","midi":73,"time":64.37890625000004,"velocity":0.7244094488188977,"duration":0.2109375},{"name":"G3","midi":55,"time":64.37890625000004,"velocity":0.7244094488188977,"duration":0.8945312499999716},{"name":"A4","midi":69,"time":64.52994791666671,"velocity":0.7244094488188977,"duration":0.2109374999999858},{"name":"C#5","midi":73,"time":64.68098958333337,"velocity":0.7244094488188977,"duration":0.2109375},{"name":"E5","midi":76,"time":64.83203125000004,"velocity":0.7244094488188977,"duration":0.2109374999999858},{"name":"D3","midi":50,"time":64.83203125000004,"velocity":0.7244094488188977,"duration":0.8945312499999716},{"name":"C#5","midi":73,"time":64.9830729166667,"velocity":0.7244094488188977,"duration":0.2109374999999858},{"name":"E5","midi":76,"time":65.13411458333336,"velocity":0.7244094488188977,"duration":0.2109375},{"name":"G5","midi":79,"time":65.28385416666669,"velocity":0.7244094488188977,"duration":0.2109375},{"name":"E3","midi":52,"time":65.28385416666669,"velocity":0.7244094488188977,"duration":0.8945312499999716},{"name":"E5","midi":76,"time":65.43489583333336,"velocity":0.7244094488188977,"duration":0.2109374999999858},{"name":"D5","midi":74,"time":65.58593750000001,"velocity":0.7244094488188977,"duration":0.2109375},{"name":"C#5","midi":73,"time":65.73697916666669,"velocity":0.7244094488188977,"duration":0.2109374999999858},{"name":"D3","midi":50,"time":65.73697916666669,"velocity":0.7244094488188977,"duration":0.8945312499999716},{"name":"B4","midi":71,"time":65.88802083333334,"velocity":0.7244094488188977,"duration":0.2109374999999858},{"name":"A4","midi":69,"time":66.0390625,"velocity":0.7244094488188977,"duration":0.2109375},{"name":"G4","midi":67,"time":66.18880208333333,"velocity":0.7244094488188977,"duration":0.2109375},{"name":"E3","midi":52,"time":66.18880208333333,"velocity":0.7244094488188977,"duration":0.8945312499999716},{"name":"E4","midi":64,"time":66.33984375,"velocity":0.7244094488188977,"duration":0.2109374999999858},{"name":"G4","midi":67,"time":66.49088541666666,"velocity":0.7244094488188977,"duration":0.2109375},{"name":"A#4","midi":70,"time":66.64192708333333,"velocity":0.7244094488188977,"duration":0.2109374999999858},{"name":"D3","midi":50,"time":66.64192708333333,"velocity":0.7244094488188977,"duration":0.8945312499999858},{"name":"G4","midi":67,"time":66.79296874999999,"velocity":0.7244094488188977,"duration":0.2109374999999858},{"name":"A#4","midi":70,"time":66.94401041666664,"velocity":0.7244094488188977,"duration":0.2109375},{"name":"C#5","midi":73,"time":67.09374999999997,"velocity":0.7244094488188977,"duration":0.2825520833333428},{"name":"E3","midi":52,"time":67.09374999999997,"velocity":0.7244094488188977,"duration":0.89453125},{"name":"G4","midi":67,"time":67.24479166666664,"velocity":0.7244094488188977,"duration":0.2109375},{"name":"E5","midi":76,"time":67.39583333333331,"velocity":0.7244094488188977,"duration":0.2109375},{"name":"C#5","midi":73,"time":67.54687499999999,"velocity":0.7244094488188977,"duration":0.2825520833333286},{"name":"D3","midi":50,"time":67.54687499999999,"velocity":0.7244094488188977,"duration":0.8945312499999858},{"name":"A#4","midi":70,"time":67.69791666666664,"velocity":0.7244094488188977,"duration":0.2109375},{"name":"E5","midi":76,"time":67.84895833333331,"velocity":0.7244094488188977,"duration":0.2109374999999858},{"name":"C#5","midi":73,"time":67.99999999999997,"velocity":0.7244094488188977,"duration":0.2825520833333286},{"name":"E3","midi":52,"time":67.99999999999997,"velocity":0.7244094488188977,"duration":0.89453125},{"name":"A4","midi":69,"time":68.1497395833333,"velocity":0.7244094488188977,"duration":0.2109375},{"name":"E5","midi":76,"time":68.30078124999997,"velocity":0.7244094488188977,"duration":0.2109375},{"name":"C#5","midi":73,"time":68.45182291666664,"velocity":0.7244094488188977,"duration":0.2825520833333286},{"name":"D3","midi":50,"time":68.45182291666664,"velocity":0.7244094488188977,"duration":0.89453125},{"name":"G4","midi":67,"time":68.6028645833333,"velocity":0.7244094488188977,"duration":0.2109375},{"name":"E5","midi":76,"time":68.75390624999997,"velocity":0.7244094488188977,"duration":0.2109375},{"name":"C5","midi":72,"time":68.90494791666664,"velocity":0.7244094488188977,"duration":0.2591145833333286},{"name":"F#3","midi":54,"time":68.90494791666664,"velocity":0.7244094488188977,"duration":0.89453125},{"name":"A4","midi":69,"time":69.05468749999997,"velocity":0.7244094488188977,"duration":0.2109375},{"name":"D5","midi":74,"time":69.20572916666664,"velocity":0.7244094488188977,"duration":0.2109375},{"name":"A#4","midi":70,"time":69.35677083333331,"velocity":0.7244094488188977,"duration":0.2591145833333286},{"name":"D3","midi":50,"time":69.35677083333331,"velocity":0.7244094488188977,"duration":0.89453125},{"name":"G4","midi":67,"time":69.50781249999997,"velocity":0.7244094488188977,"duration":0.2109375},{"name":"D#5","midi":75,"time":69.65885416666664,"velocity":0.7244094488188977,"duration":0.2109375},{"name":"A4","midi":69,"time":69.80989583333331,"velocity":0.7244094488188977,"duration":0.2356770833333286},{"name":"F#3","midi":54,"time":69.80989583333331,"velocity":0.7244094488188977,"duration":0.8945312499999858},{"name":"F#4","midi":66,"time":69.95963541666664,"velocity":0.7244094488188977,"duration":0.2109375},{"name":"D5","midi":74,"time":70.11067708333331,"velocity":0.7244094488188977,"duration":0.2109375},{"name":"A4","midi":69,"time":70.26171874999999,"velocity":0.7244094488188977,"duration":0.2109374999999858},{"name":"D3","midi":50,"time":70.26171874999999,"velocity":0.7244094488188977,"duration":4.066406249999986},{"name":"F#4","midi":66,"time":70.41276041666664,"velocity":0.7244094488188977,"duration":0.2109374999999858},{"name":"C5","midi":72,"time":70.5638020833333,"velocity":0.7244094488188977,"duration":0.2109375},{"name":"G4","midi":67,"time":70.71484374999997,"velocity":0.7244094488188977,"duration":0.2825520833333286},{"name":"G3","midi":55,"time":70.71484374999997,"velocity":0.7244094488188977,"duration":0.4466145833333286},{"name":"D4","midi":62,"time":70.8645833333333,"velocity":0.7244094488188977,"duration":0.2109375},{"name":"A#4","midi":70,"time":71.01562499999997,"velocity":0.7244094488188977,"duration":0.2109374999999858},{"name":"G4","midi":67,"time":71.16666666666663,"velocity":0.7244094488188977,"duration":0.2825520833333286},{"name":"A3","midi":57,"time":71.16666666666663,"velocity":0.7244094488188977,"duration":0.4466145833333286},{"name":"F4","midi":65,"time":71.31770833333329,"velocity":0.7244094488188977,"duration":0.2109375},{"name":"A#4","midi":70,"time":71.46874999999996,"velocity":0.7244094488188977,"duration":0.2109375},{"name":"G4","midi":67,"time":71.61979166666663,"velocity":0.7244094488188977,"duration":0.2825520833333286},{"name":"G3","midi":55,"time":71.61979166666663,"velocity":0.7244094488188977,"duration":0.4466145833333428},{"name":"D#4","midi":63,"time":71.77083333333329,"velocity":0.7244094488188977,"duration":0.2109375000000142},{"name":"A#4","midi":70,"time":71.92057291666663,"velocity":0.7244094488188977,"duration":0.2109375},{"name":"G4","midi":67,"time":72.0716145833333,"velocity":0.7244094488188977,"duration":0.2825520833333286},{"name":"F3","midi":53,"time":72.0716145833333,"velocity":0.7244094488188977,"duration":0.4466145833333286},{"name":"D4","midi":62,"time":72.22265624999996,"velocity":0.7244094488188977,"duration":0.2109375},{"name":"A#4","midi":70,"time":72.37369791666663,"velocity":0.7244094488188977,"duration":0.2109375},{"name":"G4","midi":67,"time":72.5247395833333,"velocity":0.7244094488188977,"duration":0.2825520833333286},{"name":"E3","midi":52,"time":72.5247395833333,"velocity":0.7244094488188977,"duration":0.4466145833333428},{"name":"C#4","midi":61,"time":72.67578124999996,"velocity":0.7244094488188977,"duration":0.2109375000000142},{"name":"A#4","midi":70,"time":72.8255208333333,"velocity":0.7244094488188977,"duration":0.2109375},{"name":"E4","midi":64,"time":72.97656249999997,"velocity":0.7244094488188977,"duration":0.2708333333333286},{"name":"G3","midi":55,"time":72.97656249999997,"velocity":0.7244094488188977,"duration":0.4466145833333286},{"name":"C#4","midi":61,"time":73.12760416666663,"velocity":0.7244094488188977,"duration":0.2109375},{"name":"A#4","midi":70,"time":73.2786458333333,"velocity":0.7244094488188977,"duration":0.2109375},{"name":"E4","midi":64,"time":73.42968749999997,"velocity":0.7244094488188977,"duration":0.2591145833333286},{"name":"F3","midi":53,"time":73.42968749999997,"velocity":0.7244094488188977,"duration":0.4466145833333428},{"name":"C#4","midi":61,"time":73.58072916666663,"velocity":0.7244094488188977,"duration":0.2109375000000142},{"name":"A4","midi":69,"time":73.73046874999997,"velocity":0.7244094488188977,"duration":0.2109375},{"name":"E4","midi":64,"time":73.88151041666664,"velocity":0.7244094488188977,"duration":0.2473958333333286},{"name":"E3","midi":52,"time":73.88151041666664,"velocity":0.7244094488188977,"duration":0.4635416666666572},{"name":"C#4","midi":61,"time":74.0325520833333,"velocity":0.7244094488188977,"duration":0.2109375},{"name":"G4","midi":67,"time":74.18359374999997,"velocity":0.7244094488188977,"duration":0.2109375},{"name":"D3","midi":50,"time":74.34765624999997,"velocity":0.7244094488188977,"duration":0.4466145833333428},{"name":"G#2","midi":44,"time":74.34765624999997,"velocity":0.7244094488188977,"duration":1.3541666666666288},{"name":"D4","midi":62,"time":74.34765624999997,"velocity":0.7244094488188977,"duration":0.2109375},{"name":"B3","midi":59,"time":74.50651041666664,"velocity":0.7244094488188977,"duration":0.2109375},{"name":"F4","midi":65,"time":74.65624999999997,"velocity":0.7244094488188977,"duration":0.2109375},{"name":"E3","midi":52,"time":74.80729166666664,"velocity":0.7244094488188977,"duration":0.4466145833333144},{"name":"D4","midi":62,"time":74.80729166666664,"velocity":0.7244094488188977,"duration":0.2109374999999858},{"name":"C#4","midi":61,"time":74.9583333333333,"velocity":0.7244094488188977,"duration":0.2109374999999858},{"name":"F4","midi":65,"time":75.10937499999996,"velocity":0.7244094488188977,"duration":0.2109375},{"name":"F3","midi":53,"time":75.26041666666663,"velocity":0.7244094488188977,"duration":0.8945312499999716},{"name":"D4","midi":62,"time":75.26041666666663,"velocity":0.7244094488188977,"duration":0.2109374999999858},{"name":"B3","midi":59,"time":75.41145833333329,"velocity":0.7244094488188977,"duration":0.2109374999999858},{"name":"F4","midi":65,"time":75.56249999999994,"velocity":0.7244094488188977,"duration":0.2109375},{"name":"A2","midi":45,"time":75.71223958333327,"velocity":0.7244094488188977,"duration":0.4466145833333286},{"name":"D4","midi":62,"time":75.71223958333327,"velocity":0.7244094488188977,"duration":0.2109375},{"name":"A3","midi":57,"time":75.86328124999994,"velocity":0.7244094488188977,"duration":0.2109374999999858},{"name":"F4","midi":65,"time":76.0143229166666,"velocity":0.7244094488188977,"duration":0.2109375},{"name":"E3","midi":52,"time":76.17578124999993,"velocity":0.7244094488188977,"duration":0.4466145833333428},{"name":"A#2","midi":46,"time":76.17578124999993,"velocity":0.7244094488188977,"duration":1.807291666666643},{"name":"C#4","midi":61,"time":76.17578124999993,"velocity":0.7244094488188977,"duration":0.2109375000000142},{"name":"G3","midi":55,"time":76.33723958333327,"velocity":0.7244094488188977,"duration":0.2109375},{"name":"E4","midi":64,"time":76.48828124999994,"velocity":0.7244094488188977,"duration":0.2109375},{"name":"C#4","midi":61,"time":76.63802083333327,"velocity":0.7244094488188977,"duration":0.2109375},{"name":"G3","midi":55,"time":76.63802083333327,"velocity":0.7244094488188977,"duration":0.4466145833333286},{"name":"A#3","midi":58,"time":76.78906249999994,"velocity":0.7244094488188977,"duration":0.2109374999999858},{"name":"E4","midi":64,"time":76.9401041666666,"velocity":0.7244094488188977,"duration":0.2109375},{"name":"C#4","midi":61,"time":77.09114583333327,"velocity":0.7244094488188977,"duration":0.2109374999999858},{"name":"F3","midi":53,"time":77.09114583333327,"velocity":0.7244094488188977,"duration":0.4466145833333144},{"name":"A3","midi":57,"time":77.24218749999993,"velocity":0.7244094488188977,"duration":0.2109374999999858},{"name":"E4","midi":64,"time":77.39322916666659,"velocity":0.7244094488188977,"duration":0.2109375},{"name":"C#4","midi":61,"time":77.54296874999991,"velocity":0.7244094488188977,"duration":0.2109375},{"name":"E3","midi":52,"time":77.54296874999991,"velocity":0.7244094488188977,"duration":0.4466145833333286},{"name":"G3","midi":55,"time":77.69401041666659,"velocity":0.7244094488188977,"duration":0.2109374999999858},{"name":"E4","midi":64,"time":77.84505208333324,"velocity":0.7244094488188977,"duration":0.2109375},{"name":"B3","midi":59,"time":77.99609374999991,"velocity":0.7244094488188977,"duration":0.2109375},{"name":"B2","midi":47,"time":77.99609374999991,"velocity":0.7244094488188977,"duration":1.354166666666643},{"name":"F3","midi":53,"time":77.99609374999991,"velocity":0.7244094488188977,"duration":0.4466145833333286},{"name":"G#3","midi":56,"time":78.16796874999991,"velocity":0.7244094488188977,"duration":0.2109375},{"name":"D4","midi":62,"time":78.31901041666659,"velocity":0.7244094488188977,"duration":0.2109375},{"name":"E3","midi":52,"time":78.46874999999991,"velocity":0.7244094488188977,"duration":0.4466145833333286},{"name":"C#4","midi":61,"time":78.46874999999991,"velocity":0.7244094488188977,"duration":0.2109375},{"name":"G#3","midi":56,"time":78.61979166666659,"velocity":0.7244094488188977,"duration":0.2109374999999858},{"name":"E4","midi":64,"time":78.77083333333324,"velocity":0.7244094488188977,"duration":0.2109375},{"name":"F3","midi":53,"time":78.92187499999991,"velocity":0.7244094488188977,"duration":0.6002604166666572},{"name":"D4","midi":62,"time":78.92187499999991,"velocity":0.7244094488188977,"duration":0.2109374999999858},{"name":"G#3","midi":56,"time":79.07291666666657,"velocity":0.7244094488188977,"duration":0.2109374999999858},{"name":"F4","midi":65,"time":79.22395833333323,"velocity":0.7244094488188977,"duration":0.140625},{"name":"A#2","midi":46,"time":79.3749999999999,"velocity":0.7244094488188977,"duration":0.4466145833333428},{"name":"G3","midi":55,"time":79.3749999999999,"velocity":0.7244094488188977,"duration":0.59765625},{"name":"E3","midi":52,"time":79.52473958333324,"velocity":0.7244094488188977,"duration":0.1640625},{"name":"D3","midi":50,"time":79.67578124999991,"velocity":0.7244094488188977,"duration":0.1640624999999858},{"name":"A2","midi":45,"time":79.82682291666657,"velocity":0.7244094488188977,"duration":1.4908854166666288},{"name":"C#3","midi":49,"time":79.82682291666657,"velocity":0.7244094488188977,"duration":0.4466145833333286},{"name":"E3","midi":52,"time":79.97786458333323,"velocity":0.7244094488188977,"duration":0.2109375},{"name":"G3","midi":55,"time":80.14973958333323,"velocity":0.7244094488188977,"duration":0.2109375},{"name":"C#4","midi":61,"time":80.3007812499999,"velocity":0.7244094488188977,"duration":0.2109375},{"name":"E3","midi":52,"time":80.3007812499999,"velocity":0.7244094488188977,"duration":0.4466145833333286},{"name":"G3","midi":55,"time":80.45052083333323,"velocity":0.7244094488188977,"duration":0.2109375},{"name":"C#4","midi":61,"time":80.6015624999999,"velocity":0.7244094488188977,"duration":0.2109374999999858},{"name":"E4","midi":64,"time":80.75260416666656,"velocity":0.7244094488188977,"duration":0.2109374999999858},{"name":"G3","midi":55,"time":80.75260416666656,"velocity":0.7244094488188977,"duration":0.4466145833333144},{"name":"C#4","midi":61,"time":80.90364583333321,"velocity":0.7244094488188977,"duration":0.2109374999999858},{"name":"E4","midi":64,"time":81.05468749999987,"velocity":0.7244094488188977,"duration":0.2109375},{"name":"G4","midi":67,"time":81.20572916666654,"velocity":0.7244094488188977,"duration":0.4466145833333286},{"name":"A#3","midi":58,"time":81.20572916666654,"velocity":0.7244094488188977,"duration":0.4466145833333286},{"name":"C#3","midi":49,"time":81.35546874999987,"velocity":0.7244094488188977,"duration":0.1640625},{"name":"E3","midi":52,"time":81.50651041666654,"velocity":0.7244094488188977,"duration":0.1640624999999858},{"name":"F4","midi":65,"time":81.6575520833332,"velocity":0.7244094488188977,"duration":0.2109375},{"name":"A3","midi":57,"time":81.6575520833332,"velocity":0.7244094488188977,"duration":1.4908854166666288},{"name":"D4","midi":62,"time":81.8294270833332,"velocity":0.7244094488188977,"duration":0.2109375},{"name":"F4","midi":65,"time":81.98046874999987,"velocity":0.7244094488188977,"duration":0.2109374999999858},{"name":"D4","midi":62,"time":82.13151041666653,"velocity":0.7244094488188977,"duration":0.4466145833333286},{"name":"A4","midi":69,"time":82.13151041666653,"velocity":0.7244094488188977,"duration":0.2109375},{"name":"F4","midi":65,"time":82.28124999999986,"velocity":0.7244094488188977,"duration":0.2109375},{"name":"A4","midi":69,"time":82.43229166666653,"velocity":0.7244094488188977,"duration":0.2109374999999858},{"name":"F4","midi":65,"time":82.58333333333319,"velocity":0.7244094488188977,"duration":0.4466145833333144},{"name":"D5","midi":74,"time":82.58333333333319,"velocity":0.7244094488188977,"duration":0.2109374999999858},{"name":"A4","midi":69,"time":82.73437499999984,"velocity":0.7244094488188977,"duration":0.2109374999999858},{"name":"D5","midi":74,"time":82.8854166666665,"velocity":0.7244094488188977,"duration":0.2109375},{"name":"A4","midi":69,"time":83.03645833333317,"velocity":0.7244094488188977,"duration":0.4466145833333286},{"name":"F5","midi":77,"time":83.03645833333317,"velocity":0.7244094488188977,"duration":0.5976562499999858},{"name":"D4","midi":62,"time":83.18749999999983,"velocity":0.7244094488188977,"duration":0.1640625},{"name":"F4","midi":65,"time":83.33723958333316,"velocity":0.7244094488188977,"duration":0.1640625},{"name":"G#4","midi":68,"time":83.48828124999983,"velocity":0.7244094488188977,"duration":0.6783854166666572},{"name":"B4","midi":71,"time":83.66015624999983,"velocity":0.7244094488188977,"duration":0.2109375},{"name":"D5","midi":74,"time":83.8111979166665,"velocity":0.7244094488188977,"duration":0.2109374999999858},{"name":"F5","midi":77,"time":83.96223958333316,"velocity":0.7244094488188977,"duration":0.2109375},{"name":"D5","midi":74,"time":84.11328124999982,"velocity":0.7244094488188977,"duration":0.2109375000000142},{"name":"F5","midi":77,"time":84.26302083333316,"velocity":0.7244094488188977,"duration":0.2109375},{"name":"G#5","midi":80,"time":84.41406249999983,"velocity":0.7244094488188977,"duration":0.2109374999999858},{"name":"F5","midi":77,"time":84.56510416666649,"velocity":0.7244094488188977,"duration":0.2109374999999858},{"name":"G#5","midi":80,"time":84.71614583333314,"velocity":0.7244094488188977,"duration":0.2109374999999858},{"name":"B5","midi":83,"time":84.8671874999998,"velocity":0.7244094488188977,"duration":0.4231770833333144},{"name":"G#5","midi":80,"time":85.01822916666646,"velocity":0.7244094488188977,"duration":0.2708333333333286},{"name":"F5","midi":77,"time":85.16796874999979,"velocity":0.7244094488188977,"duration":0.2031249999999858},{"name":"A#5","midi":82,"time":85.31901041666644,"velocity":0.7244094488188977,"duration":0.3697916666666714},{"name":"G5","midi":79,"time":85.44921874999977,"velocity":0.7244094488188977,"duration":0.2369791666666714},{"name":"E5","midi":76,"time":85.58203124999977,"velocity":0.7244094488188977,"duration":0.18229166666668561},{"name":"A5","midi":81,"time":85.71484374999979,"velocity":0.7244094488188977,"duration":0.3554687500000142},{"name":"F#5","midi":78,"time":85.83984374999979,"velocity":0.7244094488188977,"duration":0.2278645833333428},{"name":"D#5","midi":75,"time":85.96744791666646,"velocity":0.7244094488188977,"duration":0.1770833333333428},{"name":"G#5","midi":80,"time":86.09505208333313,"velocity":0.7244094488188977,"duration":0.3515625},{"name":"F5","midi":77,"time":86.2187499999998,"velocity":0.7244094488188977,"duration":0.2252604166666572},{"name":"D5","midi":74,"time":86.34505208333313,"velocity":0.7244094488188977,"duration":0.17578125},{"name":"G5","midi":79,"time":86.47135416666646,"velocity":0.7244094488188977,"duration":0.3515625},{"name":"E5","midi":76,"time":86.59505208333313,"velocity":0.7244094488188977,"duration":0.2252604166666572},{"name":"C#5","midi":73,"time":86.72135416666646,"velocity":0.7244094488188977,"duration":0.17578125},{"name":"F#5","midi":78,"time":86.84765624999979,"velocity":0.7244094488188977,"duration":0.3515625},{"name":"D#5","midi":75,"time":86.97135416666646,"velocity":0.7244094488188977,"duration":0.2252604166666572},{"name":"C5","midi":72,"time":87.09765624999979,"velocity":0.7244094488188977,"duration":0.17578125},{"name":"F5","midi":77,"time":87.22265624999979,"velocity":0.7244094488188977,"duration":0.3515625},{"name":"D5","midi":74,"time":87.34635416666646,"velocity":0.7244094488188977,"duration":0.2252604166666572},{"name":"B4","midi":71,"time":87.47265624999979,"velocity":0.7244094488188977,"duration":0.17578125},{"name":"E5","midi":76,"time":87.59895833333312,"velocity":0.7244094488188977,"duration":0.3515625},{"name":"C#5","midi":73,"time":87.72265624999979,"velocity":0.7244094488188977,"duration":0.2252604166666572},{"name":"A#4","midi":70,"time":87.84895833333312,"velocity":0.7244094488188977,"duration":0.17578125},{"name":"D#5","midi":75,"time":87.97526041666644,"velocity":0.7244094488188977,"duration":0.3515625},{"name":"C5","midi":72,"time":88.09895833333312,"velocity":0.7244094488188977,"duration":0.2252604166666572},{"name":"A4","midi":69,"time":88.22526041666644,"velocity":0.7244094488188977,"duration":0.2421875},{"name":"D5","midi":74,"time":88.34635416666644,"velocity":0.7244094488188977,"duration":0.6705729166666714},{"name":"B2","midi":47,"time":89.04557291666644,"velocity":0.7244094488188977,"duration":0.8216145833333428},{"name":"D4","midi":62,"time":89.04817708333312,"velocity":0.7244094488188977,"duration":0.8216145833333428},{"name":"B4","midi":71,"time":89.04817708333312,"velocity":0.7244094488188977,"duration":0.8216145833333428},{"name":"D5","midi":74,"time":89.04817708333312,"velocity":0.7244094488188977,"duration":0.8216145833333428},{"name":"F4","midi":65,"time":89.04817708333312,"velocity":0.7244094488188977,"duration":0.8216145833333428},{"name":"G#3","midi":56,"time":89.04817708333312,"velocity":0.7244094488188977,"duration":0.8216145833333428},{"name":"D3","midi":50,"time":89.04817708333312,"velocity":0.7244094488188977,"duration":0.8216145833333428},{"name":"F3","midi":53,"time":89.04817708333312,"velocity":0.7244094488188977,"duration":0.8216145833333428},{"name":"A2","midi":45,"time":89.87369791666646,"velocity":0.7244094488188977,"duration":0.8216145833333286},{"name":"A4","midi":69,"time":89.87499999999979,"velocity":0.7244094488188977,"duration":0.8216145833333286},{"name":"D5","midi":74,"time":89.87499999999979,"velocity":0.7244094488188977,"duration":0.8216145833333286},{"name":"D4","midi":62,"time":89.87499999999979,"velocity":0.7244094488188977,"duration":0.8216145833333286},{"name":"F4","midi":65,"time":89.87499999999979,"velocity":0.7244094488188977,"duration":0.8216145833333286},{"name":"A3","midi":57,"time":89.87499999999979,"velocity":0.7244094488188977,"duration":0.8216145833333286},{"name":"D3","midi":50,"time":89.87499999999979,"velocity":0.7244094488188977,"duration":0.8216145833333286},{"name":"F3","midi":53,"time":89.87499999999979,"velocity":0.7244094488188977,"duration":0.8216145833333286},{"name":"A2","midi":45,"time":90.70052083333312,"velocity":0.7244094488188977,"duration":0.8216145833333428},{"name":"C#5","midi":73,"time":90.70312499999979,"velocity":0.7244094488188977,"duration":0.8216145833333428},{"name":"G4","midi":67,"time":90.70312499999979,"velocity":0.7244094488188977,"duration":0.8216145833333428},{"name":"E4","midi":64,"time":90.70312499999979,"velocity":0.7244094488188977,"duration":0.8216145833333428},{"name":"A3","midi":57,"time":90.70312499999979,"velocity":0.7244094488188977,"duration":0.8216145833333428},{"name":"E3","midi":52,"time":90.70312499999979,"velocity":0.7244094488188977,"duration":0.8216145833333428},{"name":"D2","midi":38,"time":91.52864583333313,"velocity":0.7244094488188977,"duration":5.519531250000014},{"name":"A2","midi":45,"time":91.5312499999998,"velocity":0.7244094488188977,"duration":5.519531250000014},{"name":"D3","midi":50,"time":91.53385416666647,"velocity":0.7244094488188977,"duration":5.519531250000014},{"name":"D4","midi":62,"time":91.5351562499998,"velocity":0.7244094488188977,"duration":5.519531250000014},{"name":"F#4","midi":66,"time":91.53776041666647,"velocity":0.7244094488188977,"duration":5.519531250000014},{"name":"A4","midi":69,"time":91.54036458333314,"velocity":0.7244094488188977,"duration":5.519531250000014},{"name":"D5","midi":74,"time":91.54296874999982,"velocity":0.7244094488188977,"duration":5.519531250000014},{"name":"D4","midi":62,"time":97.30208333333316,"velocity":0.7244094488188977,"duration":0.4401041666666714},{"name":"E4","midi":64,"time":97.74739583333316,"velocity":0.7244094488188977,"duration":0.4401041666666714},{"name":"F4","midi":65,"time":98.19270833333316,"velocity":0.7244094488188977,"duration":0.4401041666666714},{"name":"G4","midi":67,"time":98.63802083333316,"velocity":0.7244094488188977,"duration":0.4401041666666714},{"name":"E4","midi":64,"time":99.08333333333316,"velocity":0.7244094488188977,"duration":0.4401041666666714},{"name":"F4","midi":65,"time":99.5299479166665,"velocity":0.7244094488188977,"duration":0.21875},{"name":"D4","midi":62,"time":99.75390624999983,"velocity":0.7244094488188977,"duration":0.21875},{"name":"C#4","midi":61,"time":99.97656249999983,"velocity":0.7244094488188977,"duration":0.21875},{"name":"D4","midi":62,"time":100.20052083333316,"velocity":0.7244094488188977,"duration":0.21875},{"name":"A#4","midi":70,"time":100.42447916666649,"velocity":0.7244094488188977,"duration":0.8854166666666714},{"name":"A4","midi":69,"time":101.31640624999983,"velocity":0.7244094488188977,"duration":0.1614583333333286},{"name":"G4","midi":67,"time":101.46484374999983,"velocity":0.7244094488188977,"duration":0.1614583333333286},{"name":"A4","midi":69,"time":101.61328124999983,"velocity":0.7244094488188977,"duration":0.1614583333333286},{"name":"G4","midi":67,"time":101.76171874999983,"velocity":0.7244094488188977,"duration":0.1614583333333286},{"name":"F4","midi":65,"time":101.91015624999983,"velocity":0.7244094488188977,"duration":0.1614583333333286},{"name":"G4","midi":67,"time":102.05859374999983,"velocity":0.7244094488188977,"duration":0.1614583333333286},{"name":"A4","midi":69,"time":102.20703124999983,"velocity":0.7244094488188977,"duration":1.109375},{"name":"A3","midi":57,"time":102.65234374999983,"velocity":0.7244094488188977,"duration":0.4401041666666714},{"name":"B3","midi":59,"time":103.09765624999983,"velocity":0.7244094488188977,"duration":0.4427083333333286},{"name":"G4","midi":67,"time":103.32161458333316,"velocity":0.7244094488188977,"duration":0.21875},{"name":"C#4","midi":61,"time":103.54557291666649,"velocity":0.7244094488188977,"duration":0.4427083333333286},{"name":"F4","midi":65,"time":103.54557291666649,"velocity":0.7244094488188977,"duration":0.21875},{"name":"E4","midi":64,"time":103.76953124999982,"velocity":0.7244094488188977,"duration":0.21875},{"name":"D4","midi":62,"time":103.99348958333314,"velocity":0.7244094488188977,"duration":0.4427083333333286},{"name":"G4","midi":67,"time":103.99348958333314,"velocity":0.7244094488188977,"duration":0.21875},{"name":"F4","midi":65,"time":104.21744791666647,"velocity":0.7244094488188977,"duration":0.21875},{"name":"B3","midi":59,"time":104.4414062499998,"velocity":0.7244094488188977,"duration":0.4427083333333286},{"name":"E4","midi":64,"time":104.4414062499998,"velocity":0.7244094488188977,"duration":0.21875},{"name":"D4","midi":62,"time":104.66536458333313,"velocity":0.7244094488188977,"duration":0.21875},{"name":"C4","midi":60,"time":104.88932291666646,"velocity":0.7244094488188977,"duration":0.21875},{"name":"E4","midi":64,"time":104.88932291666646,"velocity":0.7244094488188977,"duration":0.4427083333333286},{"name":"A3","midi":57,"time":105.11197916666646,"velocity":0.7244094488188977,"duration":0.21875},{"name":"G#3","midi":56,"time":105.33593749999979,"velocity":0.7244094488188977,"duration":0.21875},{"name":"C5","midi":72,"time":105.33593749999979,"velocity":0.7244094488188977,"duration":0.6666666666666572},{"name":"A3","midi":57,"time":105.55989583333312,"velocity":0.7244094488188977,"duration":0.21875},{"name":"F4","midi":65,"time":105.78385416666644,"velocity":0.7244094488188977,"duration":0.8906249999999858},{"name":"B4","midi":71,"time":106.00781249999977,"velocity":0.7244094488188977,"duration":0.21875},{"name":"A4","midi":69,"time":106.2317708333331,"velocity":0.7244094488188977,"duration":0.21875},{"name":"B4","midi":71,"time":106.45572916666643,"velocity":0.7244094488188977,"duration":0.21875},{"name":"E4","midi":64,"time":106.67968749999976,"velocity":0.7244094488188977,"duration":0.1614583333333286},{"name":"B4","midi":71,"time":106.67968749999976,"velocity":0.7244094488188977,"duration":0.21875},{"name":"D4","midi":62,"time":106.82812499999976,"velocity":0.7244094488188977,"duration":0.1640624999999858},{"name":"A4","midi":69,"time":106.90364583333309,"velocity":0.7244094488188977,"duration":0.2187499999999858},{"name":"E4","midi":64,"time":106.97916666666642,"velocity":0.7244094488188977,"duration":0.16145833333331439},{"name":"D4","midi":62,"time":107.1276041666664,"velocity":0.7244094488188977,"duration":0.1614583333333286},{"name":"G#4","midi":68,"time":107.1276041666664,"velocity":0.7244094488188977,"duration":0.21875},{"name":"C#4","midi":61,"time":107.2760416666664,"velocity":0.7244094488188977,"duration":0.1640624999999858},{"name":"A4","midi":69,"time":107.35156249999973,"velocity":0.7244094488188977,"duration":0.2187499999999858},{"name":"D4","midi":62,"time":107.42708333333306,"velocity":0.7244094488188977,"duration":0.16145833333331439},{"name":"E4","midi":64,"time":107.57552083333304,"velocity":0.7244094488188977,"duration":1.1145833333333144},{"name":"A4","midi":69,"time":107.57552083333304,"velocity":0.7244094488188977,"duration":0.21875},{"name":"G4","midi":67,"time":107.79947916666637,"velocity":0.7244094488188977,"duration":0.21875},{"name":"F#4","midi":66,"time":108.0234374999997,"velocity":0.7244094488188977,"duration":0.21875},{"name":"G4","midi":67,"time":108.24739583333303,"velocity":0.7244094488188977,"duration":0.21875},{"name":"E5","midi":76,"time":108.47135416666636,"velocity":0.7244094488188977,"duration":0.8906249999999858},{"name":"D4","midi":62,"time":108.69531249999969,"velocity":0.7244094488188977,"duration":0.21875},{"name":"C#4","midi":61,"time":108.91927083333302,"velocity":0.7244094488188977,"duration":0.21875},{"name":"B3","midi":59,"time":109.14322916666634,"velocity":0.7244094488188977,"duration":0.21875},{"name":"D4","midi":62,"time":109.36718749999967,"velocity":0.7244094488188977,"duration":0.21875},{"name":"G4","midi":67,"time":109.36718749999967,"velocity":0.7244094488188977,"duration":0.8906249999999858},{"name":"C#4","midi":61,"time":109.58984374999967,"velocity":0.7244094488188977,"duration":0.21875},{"name":"B3","midi":59,"time":109.813802083333,"velocity":0.7244094488188977,"duration":0.21875},{"name":"A3","midi":57,"time":110.03776041666633,"velocity":0.7244094488188977,"duration":0.21875},{"name":"D4","midi":62,"time":110.26171874999966,"velocity":0.7244094488188977,"duration":0.8802083333333286},{"name":"F4","midi":65,"time":110.26171874999966,"velocity":0.7244094488188977,"duration":0.4401041666666714},{"name":"D3","midi":50,"time":110.70703124999966,"velocity":0.7244094488188977,"duration":0.4401041666666572},{"name":"D5","midi":74,"time":110.70703124999966,"velocity":0.7244094488188977,"duration":0.6640625},{"name":"E3","midi":52,"time":111.15364583333299,"velocity":0.7244094488188977,"duration":0.4427083333333286},{"name":"C5","midi":72,"time":111.37630208333299,"velocity":0.7244094488188977,"duration":0.21875},{"name":"F3","midi":53,"time":111.60026041666632,"velocity":0.7244094488188977,"duration":0.4427083333333286},{"name":"A#4","midi":70,"time":111.60026041666632,"velocity":0.7244094488188977,"duration":0.21875},{"name":"A4","midi":69,"time":111.82421874999964,"velocity":0.7244094488188977,"duration":0.21875},{"name":"G3","midi":55,"time":112.04817708333297,"velocity":0.7244094488188977,"duration":0.4427083333333286},{"name":"C5","midi":72,"time":112.04817708333297,"velocity":0.7244094488188977,"duration":0.21875},{"name":"A#4","midi":70,"time":112.2721354166663,"velocity":0.7244094488188977,"duration":0.21875},{"name":"E3","midi":52,"time":112.49609374999963,"velocity":0.7244094488188977,"duration":0.4427083333333286},{"name":"A4","midi":69,"time":112.49609374999963,"velocity":0.7244094488188977,"duration":0.21875},{"name":"G4","midi":67,"time":112.72005208333296,"velocity":0.7244094488188977,"duration":0.21875},{"name":"F3","midi":53,"time":112.94401041666629,"velocity":0.7244094488188977,"duration":0.21875},{"name":"A4","midi":69,"time":112.94401041666629,"velocity":0.7244094488188977,"duration":0.8906249999999858},{"name":"D3","midi":50,"time":113.16796874999962,"velocity":0.7244094488188977,"duration":0.21875},{"name":"C#3","midi":49,"time":113.39192708333294,"velocity":0.7244094488188977,"duration":0.21875},{"name":"F4","midi":65,"time":113.39192708333294,"velocity":0.7244094488188977,"duration":0.6666666666666572},{"name":"D3","midi":50,"time":113.61588541666627,"velocity":0.7244094488188977,"duration":0.21875},{"name":"A#3","midi":58,"time":113.8398437499996,"velocity":0.7244094488188977,"duration":0.8906249999999858},{"name":"G4","midi":67,"time":113.8398437499996,"velocity":0.7244094488188977,"duration":2.231770833333286},{"name":"E4","midi":64,"time":114.06380208333293,"velocity":0.7244094488188977,"duration":0.21875},{"name":"D4","midi":62,"time":114.28776041666626,"velocity":0.7244094488188977,"duration":0.21875},{"name":"E4","midi":64,"time":114.51171874999959,"velocity":0.7244094488188977,"duration":0.21875},{"name":"A3","midi":57,"time":114.73567708333292,"velocity":0.7244094488188977,"duration":0.1614583333333286},{"name":"E4","midi":64,"time":114.73567708333292,"velocity":0.7244094488188977,"duration":0.21875},{"name":"G3","midi":55,"time":114.88411458333292,"velocity":0.7244094488188977,"duration":0.1640624999999858},{"name":"D4","midi":62,"time":114.95963541666625,"velocity":0.7244094488188977,"duration":0.2187499999999858},{"name":"A3","midi":57,"time":115.03515624999957,"velocity":0.7244094488188977,"duration":0.16145833333331439},{"name":"G3","midi":55,"time":115.18359374999956,"velocity":0.7244094488188977,"duration":0.1614583333333286},{"name":"C#4","midi":61,"time":115.18359374999956,"velocity":0.7244094488188977,"duration":0.21875},{"name":"F3","midi":53,"time":115.33203124999956,"velocity":0.7244094488188977,"duration":0.1640625},{"name":"D4","midi":62,"time":115.40755208333289,"velocity":0.7244094488188977,"duration":0.21875},{"name":"G3","midi":55,"time":115.48177083333289,"velocity":0.7244094488188977,"duration":0.1614583333333286},{"name":"A3","midi":57,"time":115.63151041666622,"velocity":0.7244094488188977,"duration":1.109375},{"name":"C#4","midi":61,"time":115.63151041666622,"velocity":0.7244094488188977,"duration":0.8854166666666714},{"name":"E4","midi":64,"time":116.07682291666622,"velocity":0.7244094488188977,"duration":0.4401041666666714},{"name":"D4","midi":62,"time":116.52213541666622,"velocity":0.7244094488188977,"duration":0.4427083333333286},{"name":"F4","midi":65,"time":116.52213541666622,"velocity":0.7244094488188977,"duration":0.4427083333333286},{"name":"G3","midi":55,"time":116.74609374999955,"velocity":0.7244094488188977,"duration":0.21875},{"name":"F3","midi":53,"time":116.97005208333287,"velocity":0.7244094488188977,"duration":0.21875},{"name":"E4","midi":64,"time":116.97005208333287,"velocity":0.7244094488188977,"duration":0.4427083333333286},{"name":"G4","midi":67,"time":116.97005208333287,"velocity":0.7244094488188977,"duration":0.4427083333333286},{"name":"E3","midi":52,"time":117.1940104166662,"velocity":0.7244094488188977,"duration":0.21875},{"name":"G3","midi":55,"time":117.4166666666662,"velocity":0.7244094488188977,"duration":0.21875},{"name":"C#4","midi":61,"time":117.4166666666662,"velocity":0.7244094488188977,"duration":0.4427083333333286},{"name":"A4","midi":69,"time":117.4166666666662,"velocity":0.7244094488188977,"duration":0.4427083333333286},{"name":"F3","midi":53,"time":117.64062499999953,"velocity":0.7244094488188977,"duration":0.21875},{"name":"E3","midi":52,"time":117.86458333333286,"velocity":0.7244094488188977,"duration":0.21875},{"name":"D4","midi":62,"time":117.86458333333286,"velocity":0.7244094488188977,"duration":0.4427083333333286},{"name":"F4","midi":65,"time":117.86458333333286,"velocity":0.7244094488188977,"duration":0.4427083333333286},{"name":"D3","midi":50,"time":118.08854166666619,"velocity":0.7244094488188977,"duration":0.21875},{"name":"G3","midi":55,"time":118.31249999999952,"velocity":0.7244094488188977,"duration":0.4427083333333286},{"name":"D#4","midi":63,"time":118.31249999999952,"velocity":0.7244094488188977,"duration":0.4427083333333286},{"name":"A#4","midi":70,"time":118.31249999999952,"velocity":0.7244094488188977,"duration":0.21875},{"name":"G4","midi":67,"time":118.53645833333285,"velocity":0.7244094488188977,"duration":0.21875},{"name":"A#3","midi":58,"time":118.76041666666617,"velocity":0.7244094488188977,"duration":0.6666666666666572},{"name":"D4","midi":62,"time":118.76041666666617,"velocity":0.7244094488188977,"duration":0.4427083333333286},{"name":"F#4","midi":66,"time":118.76041666666617,"velocity":0.7244094488188977,"duration":0.21875},{"name":"G4","midi":67,"time":118.9843749999995,"velocity":0.7244094488188977,"duration":0.21875},{"name":"G4","midi":67,"time":119.20833333333283,"velocity":0.7244094488188977,"duration":0.8906249999999858},{"name":"D#5","midi":75,"time":119.20833333333283,"velocity":0.7244094488188977,"duration":0.8906249999999858},{"name":"A3","midi":57,"time":119.43229166666616,"velocity":0.7244094488188977,"duration":0.21875},{"name":"G3","midi":55,"time":119.65624999999949,"velocity":0.7244094488188977,"duration":0.21875},{"name":"A3","midi":57,"time":119.88020833333282,"velocity":0.7244094488188977,"duration":0.21875},{"name":"A3","midi":57,"time":120.10416666666615,"velocity":0.7244094488188977,"duration":0.21875},{"name":"E4","midi":64,"time":120.10416666666615,"velocity":0.7244094488188977,"duration":0.8854166666666288},{"name":"D5","midi":74,"time":120.10416666666615,"velocity":0.7244094488188977,"duration":0.1614583333333286},{"name":"C#5","midi":73,"time":120.25260416666615,"velocity":0.7244094488188977,"duration":0.1640624999999858},{"name":"G3","midi":55,"time":120.32812499999947,"velocity":0.7244094488188977,"duration":0.2187499999999858},{"name":"D5","midi":74,"time":120.4036458333328,"velocity":0.7244094488188977,"duration":0.16145833333331439},{"name":"F3","midi":53,"time":120.55208333333279,"velocity":0.7244094488188977,"duration":0.21875},{"name":"C#5","midi":73,"time":120.55208333333279,"velocity":0.7244094488188977,"duration":0.1614583333333286},{"name":"B4","midi":71,"time":120.70052083333279,"velocity":0.7244094488188977,"duration":0.1640624999999858},{"name":"G3","midi":55,"time":120.77604166666612,"velocity":0.7244094488188977,"duration":0.2187499999999858},{"name":"C#5","midi":73,"time":120.85156249999945,"velocity":0.7244094488188977,"duration":0.16145833333331439},{"name":"G3","midi":55,"time":120.99999999999943,"velocity":0.7244094488188977,"duration":0.21875},{"name":"D5","midi":74,"time":120.99999999999943,"velocity":0.7244094488188977,"duration":0.8906249999999858},{"name":"F3","midi":53,"time":121.22395833333276,"velocity":0.7244094488188977,"duration":0.21875},{"name":"A4","midi":69,"time":121.22395833333276,"velocity":0.7244094488188977,"duration":0.21875},{"name":"E3","midi":52,"time":121.44791666666609,"velocity":0.7244094488188977,"duration":0.21875},{"name":"G4","midi":67,"time":121.44791666666609,"velocity":0.7244094488188977,"duration":0.21875},{"name":"F3","midi":53,"time":121.67187499999942,"velocity":0.7244094488188977,"duration":0.21875},{"name":"A4","midi":69,"time":121.67187499999942,"velocity":0.7244094488188977,"duration":0.21875},{"name":"A3","midi":57,"time":121.89453124999942,"velocity":0.7244094488188977,"duration":0.21875},{"name":"F4","midi":65,"time":121.89453124999942,"velocity":0.7244094488188977,"duration":0.8906249999999858},{"name":"D5","midi":74,"time":121.89453124999942,"velocity":0.7244094488188977,"duration":0.8906249999999858},{"name":"G3","midi":55,"time":122.11848958333275,"velocity":0.7244094488188977,"duration":0.21875},{"name":"F3","midi":53,"time":122.34244791666607,"velocity":0.7244094488188977,"duration":0.21875},{"name":"G3","midi":55,"time":122.5664062499994,"velocity":0.7244094488188977,"duration":0.21875},{"name":"G3","midi":55,"time":122.79036458333273,"velocity":0.7244094488188977,"duration":0.21875},{"name":"D4","midi":62,"time":122.79036458333273,"velocity":0.7244094488188977,"duration":0.8854166666666288},{"name":"C5","midi":72,"time":122.79036458333273,"velocity":0.7244094488188977,"duration":0.1614583333333286},{"name":"B4","midi":71,"time":122.93880208333273,"velocity":0.7244094488188977,"duration":0.1640624999999858},{"name":"F3","midi":53,"time":123.01432291666606,"velocity":0.7244094488188977,"duration":0.2187499999999858},{"name":"C5","midi":72,"time":123.08984374999939,"velocity":0.7244094488188977,"duration":0.16145833333331439},{"name":"E3","midi":52,"time":123.23828124999937,"velocity":0.7244094488188977,"duration":0.21875},{"name":"B4","midi":71,"time":123.23828124999937,"velocity":0.7244094488188977,"duration":0.1614583333333286},{"name":"A4","midi":69,"time":123.38671874999937,"velocity":0.7244094488188977,"duration":0.1640624999999858},{"name":"F3","midi":53,"time":123.4622395833327,"velocity":0.7244094488188977,"duration":0.2187499999999858},{"name":"B4","midi":71,"time":123.53776041666603,"velocity":0.7244094488188977,"duration":0.16145833333331439},{"name":"F3","midi":53,"time":123.68619791666602,"velocity":0.7244094488188977,"duration":0.21875},{"name":"C5","midi":72,"time":123.68619791666602,"velocity":0.7244094488188977,"duration":0.8906249999999858},{"name":"E3","midi":52,"time":123.91015624999935,"velocity":0.7244094488188977,"duration":0.21875},{"name":"G4","midi":67,"time":123.91015624999935,"velocity":0.7244094488188977,"duration":0.21875},{"name":"D3","midi":50,"time":124.13411458333267,"velocity":0.7244094488188977,"duration":0.21875},{"name":"F4","midi":65,"time":124.13411458333267,"velocity":0.7244094488188977,"duration":0.21875},{"name":"E3","midi":52,"time":124.358072916666,"velocity":0.7244094488188977,"duration":0.21875},{"name":"G4","midi":67,"time":124.358072916666,"velocity":0.7244094488188977,"duration":0.21875},{"name":"G3","midi":55,"time":124.58203124999933,"velocity":0.7244094488188977,"duration":0.21875},{"name":"D#4","midi":63,"time":124.58203124999933,"velocity":0.7244094488188977,"duration":0.8906249999999858},{"name":"C5","midi":72,"time":124.58203124999933,"velocity":0.7244094488188977,"duration":0.8906249999999858},{"name":"F3","midi":53,"time":124.80598958333266,"velocity":0.7244094488188977,"duration":0.21875},{"name":"D#3","midi":51,"time":125.02994791666599,"velocity":0.7244094488188977,"duration":0.21875},{"name":"F3","midi":53,"time":125.25390624999932,"velocity":0.7244094488188977,"duration":0.21875},{"name":"F3","midi":53,"time":125.47786458333265,"velocity":0.7244094488188977,"duration":0.21875},{"name":"C4","midi":60,"time":125.47786458333265,"velocity":0.7244094488188977,"duration":0.670572916666643},{"name":"A#4","midi":70,"time":125.47786458333265,"velocity":0.7244094488188977,"duration":0.1614583333333286},{"name":"A4","midi":69,"time":125.62630208333265,"velocity":0.7244094488188977,"duration":0.1640624999999858},{"name":"D#3","midi":51,"time":125.70182291666598,"velocity":0.7244094488188977,"duration":0.2187499999999858},{"name":"A#4","midi":70,"time":125.7773437499993,"velocity":0.7244094488188977,"duration":0.16145833333331439},{"name":"D3","midi":50,"time":125.92578124999929,"velocity":0.7244094488188977,"duration":0.21875},{"name":"A4","midi":69,"time":125.92578124999929,"velocity":0.7244094488188977,"duration":0.1614583333333286},{"name":"G4","midi":67,"time":126.07421874999929,"velocity":0.7244094488188977,"duration":0.1640625},{"name":"D#3","midi":51,"time":126.14973958333262,"velocity":0.7244094488188977,"duration":0.21875},{"name":"A4","midi":69,"time":126.22395833333262,"velocity":0.7244094488188977,"duration":0.1614583333333286},{"name":"D#3","midi":51,"time":126.37239583333262,"velocity":0.7244094488188977,"duration":0.21875},{"name":"A#4","midi":70,"time":126.37239583333262,"velocity":0.7244094488188977,"duration":3.1171875000000426},{"name":"D3","midi":50,"time":126.59635416666595,"velocity":0.7244094488188977,"duration":0.21875},{"name":"C#3","midi":49,"time":126.82031249999928,"velocity":0.7244094488188977,"duration":0.21875},{"name":"A4","midi":69,"time":126.82031249999928,"velocity":0.7244094488188977,"duration":0.4427083333333286},{"name":"D3","midi":50,"time":127.0442708333326,"velocity":0.7244094488188977,"duration":0.21875},{"name":"A#3","midi":58,"time":127.26822916666593,"velocity":0.7244094488188977,"duration":0.8684895833333286},{"name":"G4","midi":67,"time":127.26822916666593,"velocity":0.7244094488188977,"duration":0.4401041666666714},{"name":"F4","midi":65,"time":127.71354166666593,"velocity":0.7244094488188977,"duration":0.4401041666666714},{"name":"A3","midi":57,"time":128.15885416666595,"velocity":0.7244094488188977,"duration":0.1614583333333428},{"name":"E4","midi":64,"time":128.15885416666595,"velocity":0.7244094488188977,"duration":0.4401041666666856},{"name":"G3","midi":55,"time":128.30729166666595,"velocity":0.7244094488188977,"duration":0.1614583333333428},{"name":"A3","midi":57,"time":128.4570312499993,"velocity":0.7244094488188977,"duration":0.1614583333333428},{"name":"G3","midi":55,"time":128.6054687499993,"velocity":0.7244094488188977,"duration":0.1614583333333428},{"name":"G4","midi":67,"time":128.6054687499993,"velocity":0.7244094488188977,"duration":0.4401041666666856},{"name":"F3","midi":53,"time":128.7539062499993,"velocity":0.7244094488188977,"duration":0.1614583333333428},{"name":"G3","midi":55,"time":128.9023437499993,"velocity":0.7244094488188977,"duration":0.16145833333337123},{"name":"A3","midi":57,"time":129.05078124999932,"velocity":0.7244094488188977,"duration":1.109375},{"name":"C#4","midi":61,"time":129.05078124999932,"velocity":0.7244094488188977,"duration":0.8854166666666572},{"name":"A4","midi":69,"time":129.49609374999932,"velocity":0.7244094488188977,"duration":0.4401041666666572},{"name":"D4","midi":62,"time":129.94140624999932,"velocity":0.7244094488188977,"duration":0.4427083333333428},{"name":"B4","midi":71,"time":129.94140624999932,"velocity":0.7244094488188977,"duration":0.4427083333333428},{"name":"G3","midi":55,"time":130.16536458333266,"velocity":0.7244094488188977,"duration":0.21875},{"name":"F3","midi":53,"time":130.389322916666,"velocity":0.7244094488188977,"duration":0.21875},{"name":"E4","midi":64,"time":130.389322916666,"velocity":0.7244094488188977,"duration":0.4427083333333428},{"name":"C#5","midi":73,"time":130.389322916666,"velocity":0.7244094488188977,"duration":0.4427083333333428},{"name":"E3","midi":52,"time":130.61328124999935,"velocity":0.7244094488188977,"duration":0.21875},{"name":"G3","midi":55,"time":130.8372395833327,"velocity":0.7244094488188977,"duration":0.21875},{"name":"A3","midi":57,"time":130.8372395833327,"velocity":0.7244094488188977,"duration":0.7916666666666856},{"name":"D5","midi":74,"time":130.8372395833327,"velocity":0.7244094488188977,"duration":0.4427083333333428},{"name":"F3","midi":53,"time":131.06119791666603,"velocity":0.7244094488188977,"duration":0.21875},{"name":"E3","midi":52,"time":131.28515624999937,"velocity":0.7244094488188977,"duration":0.21875},{"name":"B4","midi":71,"time":131.28515624999937,"velocity":0.7244094488188977,"duration":0.4401041666666856},{"name":"D3","midi":50,"time":131.50781249999937,"velocity":0.7244094488188977,"duration":0.2161458333333428},{"name":"E3","midi":52,"time":131.7304687499994,"velocity":0.7244094488188977,"duration":0.4427083333333428},{"name":"C#5","midi":73,"time":131.7304687499994,"velocity":0.7244094488188977,"duration":0.21875},{"name":"A4","midi":69,"time":131.95442708333275,"velocity":0.7244094488188977,"duration":0.21875},{"name":"C#3","midi":49,"time":132.1783854166661,"velocity":0.7244094488188977,"duration":0.4427083333333428},{"name":"E4","midi":64,"time":132.1783854166661,"velocity":0.7244094488188977,"duration":0.4427083333333428},{"name":"G#4","midi":68,"time":132.1783854166661,"velocity":0.7244094488188977,"duration":0.21875},{"name":"A4","midi":69,"time":132.4010416666661,"velocity":0.7244094488188977,"duration":0.21875},{"name":"D3","midi":50,"time":132.62499999999943,"velocity":0.7244094488188977,"duration":0.4401041666666572},{"name":"D4","midi":62,"time":132.62499999999943,"velocity":0.7244094488188977,"duration":0.4401041666666572},{"name":"F5","midi":77,"time":132.62499999999943,"velocity":0.7244094488188977,"duration":0.8268229166666572},{"name":"E3","midi":52,"time":133.07161458333275,"velocity":0.7244094488188977,"duration":0.4427083333333428},{"name":"C#4","midi":61,"time":133.07161458333275,"velocity":0.7244094488188977,"duration":0.4427083333333428},{"name":"F3","midi":53,"time":133.5182291666661,"velocity":0.7244094488188977,"duration":0.4401041666666856},{"name":"B3","midi":59,"time":133.5182291666661,"velocity":0.7244094488188977,"duration":0.4401041666666856},{"name":"E5","midi":76,"time":133.5182291666661,"velocity":0.7244094488188977,"duration":0.1614583333333428},{"name":"D5","midi":74,"time":133.6666666666661,"velocity":0.7244094488188977,"duration":0.1614583333333428},{"name":"E5","midi":76,"time":133.8151041666661,"velocity":0.7244094488188977,"duration":0.16145833333337123},{"name":"D3","midi":50,"time":133.96354166666612,"velocity":0.7244094488188977,"duration":0.4401041666666856},{"name":"D4","midi":62,"time":133.96354166666612,"velocity":0.7244094488188977,"duration":0.4401041666666856},{"name":"D5","midi":74,"time":133.96354166666612,"velocity":0.7244094488188977,"duration":0.1614583333333428},{"name":"C#5","midi":73,"time":134.11328124999946,"velocity":0.7244094488188977,"duration":0.1614583333333428},{"name":"D5","midi":74,"time":134.26171874999946,"velocity":0.7244094488188977,"duration":0.1614583333333428},{"name":"A3","midi":57,"time":134.41015624999946,"velocity":0.7244094488188977,"duration":0.6705729166666856},{"name":"C#4","midi":61,"time":134.41015624999946,"velocity":0.7244094488188977,"duration":0.21875},{"name":"E5","midi":76,"time":134.41015624999946,"velocity":0.7244094488188977,"duration":0.4427083333333428},{"name":"E4","midi":64,"time":134.6341145833328,"velocity":0.7244094488188977,"duration":0.21875},{"name":"F4","midi":65,"time":134.8567708333328,"velocity":0.7244094488188977,"duration":0.21875},{"name":"A5","midi":81,"time":134.8567708333328,"velocity":0.7244094488188977,"duration":0.6666666666666856},{"name":"E4","midi":64,"time":135.08072916666615,"velocity":0.7244094488188977,"duration":0.21875},{"name":"F#3","midi":54,"time":135.3046874999995,"velocity":0.7244094488188977,"duration":0.4427083333333428},{"name":"A3","midi":57,"time":135.3046874999995,"velocity":0.7244094488188977,"duration":0.8906250000000284},{"name":"G5","midi":79,"time":135.52864583333283,"velocity":0.7244094488188977,"duration":0.21875},{"name":"E3","midi":52,"time":135.75260416666617,"velocity":0.7244094488188977,"duration":0.4427083333333428},{"name":"F#5","midi":78,"time":135.75260416666617,"velocity":0.7244094488188977,"duration":0.21875},{"name":"E5","midi":76,"time":135.97656249999952,"velocity":0.7244094488188977,"duration":0.21875},{"name":"D3","midi":50,"time":136.20052083333286,"velocity":0.7244094488188977,"duration":0.4427083333333428},{"name":"C4","midi":60,"time":136.20052083333286,"velocity":0.7244094488188977,"duration":0.8906250000000284},{"name":"G5","midi":79,"time":136.20052083333286,"velocity":0.7244094488188977,"duration":0.21875},{"name":"F#5","midi":78,"time":136.4244791666662,"velocity":0.7244094488188977,"duration":0.21875},{"name":"F#3","midi":54,"time":136.64843749999955,"velocity":0.7244094488188977,"duration":0.4427083333333428},{"name":"E5","midi":76,"time":136.64843749999955,"velocity":0.7244094488188977,"duration":0.21875},{"name":"D5","midi":74,"time":136.8723958333329,"velocity":0.7244094488188977,"duration":0.21875},{"name":"G3","midi":55,"time":137.09635416666623,"velocity":0.7244094488188977,"duration":0.6705729166666856},{"name":"A#3","midi":58,"time":137.09635416666623,"velocity":0.7244094488188977,"duration":0.21875},{"name":"D#5","midi":75,"time":137.09635416666623,"velocity":0.7244094488188977,"duration":0.21875},{"name":"D4","midi":62,"time":137.32031249999957,"velocity":0.7244094488188977,"duration":0.21875},{"name":"C6","midi":84,"time":137.32031249999957,"velocity":0.7244094488188977,"duration":0.21875},{"name":"D#4","midi":63,"time":137.54427083333292,"velocity":0.7244094488188977,"duration":0.21875},{"name":"A#5","midi":82,"time":137.54427083333292,"velocity":0.7244094488188977,"duration":0.6028645833333428},{"name":"D4","midi":62,"time":137.76822916666626,"velocity":0.7244094488188977,"duration":0.21875},{"name":"G#3","midi":56,"time":137.9921874999996,"velocity":0.7244094488188977,"duration":0.4427083333333144},{"name":"B3","midi":59,"time":137.9921874999996,"velocity":0.7244094488188977,"duration":0.890625},{"name":"A5","midi":81,"time":138.21614583333292,"velocity":0.7244094488188977,"duration":0.21875},{"name":"F#3","midi":54,"time":138.44010416666626,"velocity":0.7244094488188977,"duration":0.4427083333333428},{"name":"G#5","midi":80,"time":138.44010416666626,"velocity":0.7244094488188977,"duration":0.21875},{"name":"F#5","midi":78,"time":138.6640624999996,"velocity":0.7244094488188977,"duration":0.21875},{"name":"E3","midi":52,"time":138.88802083333294,"velocity":0.7244094488188977,"duration":0.4427083333333428},{"name":"E4","midi":64,"time":138.88802083333294,"velocity":0.7244094488188977,"duration":1.3398437500000284},{"name":"A5","midi":81,"time":138.88802083333294,"velocity":0.7244094488188977,"duration":0.21875},{"name":"G#5","midi":80,"time":139.1119791666663,"velocity":0.7244094488188977,"duration":0.21875},{"name":"G#3","midi":56,"time":139.3346354166663,"velocity":0.7244094488188977,"duration":0.4427083333333428},{"name":"F#5","midi":78,"time":139.3346354166663,"velocity":0.7244094488188977,"duration":0.21875},{"name":"E5","midi":76,"time":139.55859374999963,"velocity":0.7244094488188977,"duration":0.21875},{"name":"A3","midi":57,"time":139.78255208333297,"velocity":0.7244094488188977,"duration":2.238281250000057},{"name":"D5","midi":74,"time":139.78255208333297,"velocity":0.7244094488188977,"duration":0.21875},{"name":"C5","midi":72,"time":140.00651041666632,"velocity":0.7244094488188977,"duration":0.21875},{"name":"A2","midi":45,"time":140.23046874999963,"velocity":0.7244094488188977,"duration":0.4427083333333428},{"name":"B4","midi":71,"time":140.23046874999963,"velocity":0.7244094488188977,"duration":0.21875},{"name":"C5","midi":72,"time":140.45442708333297,"velocity":0.7244094488188977,"duration":0.21875},{"name":"B2","midi":47,"time":140.67838541666632,"velocity":0.7244094488188977,"duration":0.4427083333333428},{"name":"C5","midi":72,"time":140.67838541666632,"velocity":0.7244094488188977,"duration":0.21875},{"name":"B4","midi":71,"time":140.90234374999966,"velocity":0.7244094488188977,"duration":0.21875},{"name":"C3","midi":48,"time":141.126302083333,"velocity":0.7244094488188977,"duration":0.4427083333333428},{"name":"A4","midi":69,"time":141.126302083333,"velocity":0.7244094488188977,"duration":0.21875},{"name":"B4","midi":71,"time":141.35026041666634,"velocity":0.7244094488188977,"duration":0.21875},{"name":"D3","midi":50,"time":141.5742187499997,"velocity":0.7244094488188977,"duration":0.4427083333333428},{"name":"B4","midi":71,"time":141.5742187499997,"velocity":0.7244094488188977,"duration":0.21875},{"name":"A4","midi":69,"time":141.79817708333303,"velocity":0.7244094488188977,"duration":0.21875},{"name":"B2","midi":47,"time":142.02213541666637,"velocity":0.7244094488188977,"duration":0.4427083333333428},{"name":"G#4","midi":68,"time":142.02213541666637,"velocity":0.7244094488188977,"duration":0.21875},{"name":"A4","midi":69,"time":142.24609374999972,"velocity":0.7244094488188977,"duration":0.21875},{"name":"C#3","midi":49,"time":142.47005208333306,"velocity":0.7244094488188977,"duration":0.21875},{"name":"G4","midi":67,"time":142.47005208333306,"velocity":0.7244094488188977,"duration":1.1145833333333712},{"name":"A2","midi":45,"time":142.6940104166664,"velocity":0.7244094488188977,"duration":0.21875},{"name":"G#2","midi":44,"time":142.91796874999974,"velocity":0.7244094488188977,"duration":0.21875},{"name":"A3","midi":57,"time":142.91796874999974,"velocity":0.7244094488188977,"duration":0.4427083333333428},{"name":"A2","midi":45,"time":143.1419270833331,"velocity":0.7244094488188977,"duration":0.21875},{"name":"F3","midi":53,"time":143.36588541666643,"velocity":0.7244094488188977,"duration":0.8906250000000284},{"name":"B3","midi":59,"time":143.36588541666643,"velocity":0.7244094488188977,"duration":0.4427083333333428},{"name":"F4","midi":65,"time":143.58984374999977,"velocity":0.7244094488188977,"duration":0.21875},{"name":"C#4","midi":61,"time":143.81249999999977,"velocity":0.7244094488188977,"duration":0.4427083333333428},{"name":"E4","midi":64,"time":143.81249999999977,"velocity":0.7244094488188977,"duration":0.21875},{"name":"F4","midi":65,"time":144.03645833333312,"velocity":0.7244094488188977,"duration":0.21875},{"name":"E3","midi":52,"time":144.26041666666646,"velocity":0.7244094488188977,"duration":0.1614583333333428},{"name":"D4","midi":62,"time":144.26041666666646,"velocity":0.7244094488188977,"duration":0.44270833333337123},{"name":"F4","midi":65,"time":144.26041666666646,"velocity":0.7244094488188977,"duration":0.21875},{"name":"D3","midi":50,"time":144.40885416666646,"velocity":0.7244094488188977,"duration":0.16406250000002842},{"name":"E4","midi":64,"time":144.4843749999998,"velocity":0.7244094488188977,"duration":0.21875000000002842},{"name":"E3","midi":52,"time":144.55989583333314,"velocity":0.7244094488188977,"duration":0.16145833333337123},{"name":"D3","midi":50,"time":144.70833333333317,"velocity":0.7244094488188977,"duration":0.1614583333333428},{"name":"B3","midi":59,"time":144.70833333333317,"velocity":0.7244094488188977,"duration":0.44270833333337123},{"name":"D4","midi":62,"time":144.70833333333317,"velocity":0.7244094488188977,"duration":0.21875},{"name":"C3","midi":48,"time":144.85677083333317,"velocity":0.7244094488188977,"duration":0.16406250000002842},{"name":"A4","midi":69,"time":144.93229166666652,"velocity":0.7244094488188977,"duration":0.21875000000002842},{"name":"D3","midi":50,"time":145.00781249999986,"velocity":0.7244094488188977,"duration":0.16145833333337123},{"name":"E3","midi":52,"time":145.1562499999999,"velocity":0.7244094488188977,"duration":0.4427083333333428},{"name":"C4","midi":60,"time":145.1562499999999,"velocity":0.7244094488188977,"duration":0.21875},{"name":"A4","midi":69,"time":145.1562499999999,"velocity":0.7244094488188977,"duration":3.795572916666856},{"name":"A3","midi":57,"time":145.38020833333323,"velocity":0.7244094488188977,"duration":0.21875},{"name":"F3","midi":53,"time":145.60416666666657,"velocity":0.7244094488188977,"duration":0.4427083333333428},{"name":"G#3","midi":56,"time":145.60416666666657,"velocity":0.7244094488188977,"duration":0.21875},{"name":"A3","midi":57,"time":145.82812499999991,"velocity":0.7244094488188977,"duration":0.21875},{"name":"E3","midi":52,"time":146.05208333333326,"velocity":0.7244094488188977,"duration":0.21875},{"name":"F4","midi":65,"time":146.05208333333326,"velocity":0.7244094488188977,"duration":0.8736979166666856},{"name":"D3","midi":50,"time":146.2760416666666,"velocity":0.7244094488188977,"duration":0.21875},{"name":"C3","midi":48,"time":146.49999999999994,"velocity":0.7244094488188977,"duration":0.21875},{"name":"D3","midi":50,"time":146.7239583333333,"velocity":0.7244094488188977,"duration":0.21875},{"name":"D3","midi":50,"time":146.94791666666663,"velocity":0.7244094488188977,"duration":0.21875},{"name":"E4","midi":64,"time":146.94791666666663,"velocity":0.7244094488188977,"duration":0.1614583333333428},{"name":"D4","midi":62,"time":147.09635416666663,"velocity":0.7244094488188977,"duration":0.16406250000002842},{"name":"C3","midi":48,"time":147.17187499999997,"velocity":0.7244094488188977,"duration":0.21875000000002842},{"name":"E4","midi":64,"time":147.24739583333331,"velocity":0.7244094488188977,"duration":0.16145833333337123},{"name":"B2","midi":47,"time":147.39583333333334,"velocity":0.7244094488188977,"duration":0.21875},{"name":"D4","midi":62,"time":147.39583333333334,"velocity":0.7244094488188977,"duration":0.1614583333333428},{"name":"C4","midi":60,"time":147.54427083333334,"velocity":0.7244094488188977,"duration":0.16406250000002842},{"name":"C3","midi":48,"time":147.61979166666669,"velocity":0.7244094488188977,"duration":0.21875000000002842},{"name":"D4","midi":62,"time":147.69531250000003,"velocity":0.7244094488188977,"duration":0.16145833333337123},{"name":"C3","midi":48,"time":147.84375000000006,"velocity":0.7244094488188977,"duration":0.4401041666666856},{"name":"E4","midi":64,"time":147.84375000000006,"velocity":0.7244094488188977,"duration":0.4401041666666856},{"name":"D3","midi":50,"time":148.28906250000009,"velocity":0.7244094488188977,"duration":0.4401041666666572},{"name":"F4","midi":65,"time":148.28906250000009,"velocity":0.7244094488188977,"duration":0.4401041666666572},{"name":"E3","midi":52,"time":148.73437500000009,"velocity":0.7244094488188977,"duration":0.4427083333333144},{"name":"C4","midi":60,"time":148.73437500000009,"velocity":0.7244094488188977,"duration":1.1119791666666856},{"name":"D#5","midi":75,"time":148.9583333333334,"velocity":0.7244094488188977,"duration":0.21875},{"name":"D3","midi":50,"time":149.18229166666674,"velocity":0.7244094488188977,"duration":0.4427083333333428},{"name":"E5","midi":76,"time":149.18229166666674,"velocity":0.7244094488188977,"duration":0.21875},{"name":"A4","midi":69,"time":149.40625000000009,"velocity":0.7244094488188977,"duration":0.21875},{"name":"E3","midi":52,"time":149.63020833333343,"velocity":0.7244094488188977,"duration":0.8906250000000284},{"name":"C5","midi":72,"time":149.63020833333343,"velocity":0.7244094488188977,"duration":0.21875},{"name":"B4","midi":71,"time":149.85416666666677,"velocity":0.7244094488188977,"duration":0.21875},{"name":"B3","midi":59,"time":149.85416666666677,"velocity":0.7244094488188977,"duration":0.1614583333333428},{"name":"C4","midi":60,"time":149.9648437500001,"velocity":0.7244094488188977,"duration":0.1640625},{"name":"A4","midi":69,"time":150.07682291666677,"velocity":0.7244094488188977,"duration":0.21875},{"name":"B3","midi":59,"time":150.07682291666677,"velocity":0.7244094488188977,"duration":0.4427083333333428},{"name":"G#4","midi":68,"time":150.3007812500001,"velocity":0.7244094488188977,"duration":0.21875},{"name":"A3","midi":57,"time":150.52473958333346,"velocity":0.7244094488188977,"duration":2.2356770833333997},{"name":"A4","midi":69,"time":150.52473958333346,"velocity":0.7244094488188977,"duration":0.21875},{"name":"G#4","midi":68,"time":150.7486979166668,"velocity":0.7244094488188977,"duration":0.21875},{"name":"A2","midi":45,"time":150.97265625000014,"velocity":0.7244094488188977,"duration":0.4401041666666572},{"name":"A4","midi":69,"time":150.97265625000014,"velocity":0.7244094488188977,"duration":0.6640625},{"name":"B2","midi":47,"time":151.41796875000014,"velocity":0.7244094488188977,"duration":0.4427083333333428},{"name":"G4","midi":67,"time":151.64192708333348,"velocity":0.7244094488188977,"duration":0.21875},{"name":"C#3","midi":49,"time":151.86588541666683,"velocity":0.7244094488188977,"duration":0.4427083333333428},{"name":"F4","midi":65,"time":151.86588541666683,"velocity":0.7244094488188977,"duration":0.21875},{"name":"E4","midi":64,"time":152.08984375000017,"velocity":0.7244094488188977,"duration":0.21875},{"name":"D3","midi":50,"time":152.3138020833335,"velocity":0.7244094488188977,"duration":0.4427083333333428},{"name":"G4","midi":67,"time":152.3138020833335,"velocity":0.7244094488188977,"duration":0.21875},{"name":"F4","midi":65,"time":152.53776041666686,"velocity":0.7244094488188977,"duration":0.21875},{"name":"B2","midi":47,"time":152.7617187500002,"velocity":0.7244094488188977,"duration":0.4427083333333428},{"name":"E4","midi":64,"time":152.7617187500002,"velocity":0.7244094488188977,"duration":0.21875},{"name":"D4","midi":62,"time":152.98567708333354,"velocity":0.7244094488188977,"duration":0.21875},{"name":"C#3","midi":49,"time":153.20963541666688,"velocity":0.7244094488188977,"duration":0.21875},{"name":"E4","midi":64,"time":153.20963541666688,"velocity":0.7244094488188977,"duration":0.4427083333333428},{"name":"A2","midi":45,"time":153.43359375000023,"velocity":0.7244094488188977,"duration":0.21875},{"name":"G#2","midi":44,"time":153.65755208333357,"velocity":0.7244094488188977,"duration":0.21875},{"name":"E5","midi":76,"time":153.65755208333357,"velocity":0.7244094488188977,"duration":0.4427083333333428},{"name":"A2","midi":45,"time":153.8815104166669,"velocity":0.7244094488188977,"duration":0.21875},{"name":"F3","midi":53,"time":154.10546875000026,"velocity":0.7244094488188977,"duration":0.8684895833333428},{"name":"D5","midi":74,"time":154.10546875000026,"velocity":0.7244094488188977,"duration":0.4401041666666572},{"name":"C#5","midi":73,"time":154.55078125000026,"velocity":0.7244094488188977,"duration":0.4401041666666856},{"name":"E3","midi":52,"time":154.99609375000028,"velocity":0.7244094488188977,"duration":0.1614583333333428},{"name":"B4","midi":71,"time":154.99609375000028,"velocity":0.7244094488188977,"duration":0.4401041666666856},{"name":"D3","midi":50,"time":155.14453125000028,"velocity":0.7244094488188977,"duration":0.1614583333333428},{"name":"E3","midi":52,"time":155.29296875000028,"velocity":0.7244094488188977,"duration":0.16145833333337123},{"name":"D3","midi":50,"time":155.4414062500003,"velocity":0.7244094488188977,"duration":0.1614583333333428},{"name":"D5","midi":74,"time":155.4414062500003,"velocity":0.7244094488188977,"duration":0.4401041666666856},{"name":"C#3","midi":49,"time":155.5898437500003,"velocity":0.7244094488188977,"duration":0.1614583333333428},{"name":"D3","midi":50,"time":155.7382812500003,"velocity":0.7244094488188977,"duration":0.16145833333337123},{"name":"A3","midi":57,"time":155.88671875000034,"velocity":0.7244094488188977,"duration":0.8854166666666856},{"name":"C#5","midi":73,"time":155.88671875000034,"velocity":0.7244094488188977,"duration":0.21875},{"name":"E5","midi":76,"time":156.11067708333368,"velocity":0.7244094488188977,"duration":0.21875},{"name":"F3","midi":53,"time":156.33463541666703,"velocity":0.7244094488188977,"duration":0.4427083333333428},{"name":"F5","midi":77,"time":156.33463541666703,"velocity":0.7244094488188977,"duration":0.21875},{"name":"E5","midi":76,"time":156.55859375000037,"velocity":0.7244094488188977,"duration":0.21875},{"name":"E3","midi":52,"time":156.7825520833337,"velocity":0.7244094488188977,"duration":0.4401041666666572},{"name":"G4","midi":67,"time":156.7825520833337,"velocity":0.7244094488188977,"duration":0.8854166666666572},{"name":"D3","midi":50,"time":157.2278645833337,"velocity":0.7244094488188977,"duration":0.4401041666666572},{"name":"C#3","midi":49,"time":157.6731770833337,"velocity":0.7244094488188977,"duration":0.4401041666666572},{"name":"G4","midi":67,"time":157.6731770833337,"velocity":0.7244094488188977,"duration":0.171875},{"name":"A4","midi":69,"time":157.84765625000037,"velocity":0.7244094488188977,"duration":0.171875},{"name":"A#4","midi":70,"time":158.02213541666703,"velocity":0.7244094488188977,"duration":0.7630208333333428},{"name":"E3","midi":52,"time":158.1184895833337,"velocity":0.7244094488188977,"duration":0.4401041666666572},{"name":"D3","midi":50,"time":158.5638020833337,"velocity":0.7244094488188977,"duration":0.21875},{"name":"F3","midi":53,"time":158.78776041666703,"velocity":0.7244094488188977,"duration":0.21875},{"name":"A4","midi":69,"time":158.78776041666703,"velocity":0.7244094488188977,"duration":0.21875},{"name":"G3","midi":55,"time":159.01171875000037,"velocity":0.7244094488188977,"duration":0.21875},{"name":"G4","midi":67,"time":159.01171875000037,"velocity":0.7244094488188977,"duration":0.21875},{"name":"F3","midi":53,"time":159.2356770833337,"velocity":0.7244094488188977,"duration":0.21875},{"name":"A4","midi":69,"time":159.2356770833337,"velocity":0.7244094488188977,"duration":0.21875},{"name":"A2","midi":45,"time":159.45963541666706,"velocity":0.7244094488188977,"duration":0.8736979166666856},{"name":"A4","midi":69,"time":159.45963541666706,"velocity":0.7244094488188977,"duration":0.21875},{"name":"G4","midi":67,"time":159.6835937500004,"velocity":0.7244094488188977,"duration":0.21875},{"name":"F4","midi":65,"time":159.90755208333374,"velocity":0.7244094488188977,"duration":0.21875},{"name":"G4","midi":67,"time":160.13151041666708,"velocity":0.7244094488188977,"duration":0.21875},{"name":"D3","midi":50,"time":160.35546875000043,"velocity":0.7244094488188977,"duration":0.1614583333333428},{"name":"G4","midi":67,"time":160.35546875000043,"velocity":0.7244094488188977,"duration":0.21875},{"name":"C#3","midi":49,"time":160.50390625000043,"velocity":0.7244094488188977,"duration":0.16406250000002842},{"name":"F4","midi":65,"time":160.57942708333377,"velocity":0.7244094488188977,"duration":0.21875000000002842},{"name":"D3","midi":50,"time":160.6549479166671,"velocity":0.7244094488188977,"duration":0.16145833333337123},{"name":"C#3","midi":49,"time":160.80338541666714,"velocity":0.7244094488188977,"duration":0.1614583333333428},{"name":"E4","midi":64,"time":160.80338541666714,"velocity":0.7244094488188977,"duration":0.21875},{"name":"B2","midi":47,"time":160.95182291666714,"velocity":0.7244094488188977,"duration":0.16406250000002842},{"name":"F4","midi":65,"time":161.02734375000048,"velocity":0.7244094488188977,"duration":0.21875000000002842},{"name":"C#3","midi":49,"time":161.10286458333383,"velocity":0.7244094488188977,"duration":0.16145833333337123},{"name":"D3","midi":50,"time":161.25130208333385,"velocity":0.7244094488188977,"duration":2.695312500000142},{"name":"F4","midi":65,"time":161.25130208333385,"velocity":0.7244094488188977,"duration":1.1184895833333428},{"name":"D4","midi":62,"time":161.70052083333385,"velocity":0.7244094488188977,"duration":0.4440104166666572},{"name":"C4","midi":60,"time":162.14973958333385,"velocity":0.7244094488188977,"duration":0.4453125000000284},{"name":"E4","midi":64,"time":162.37500000000054,"velocity":0.7244094488188977,"duration":0.2200520833333428},{"name":"A#3","midi":58,"time":162.60026041666723,"velocity":0.7244094488188977,"duration":0.4453125000000284},{"name":"F#4","midi":66,"time":162.60026041666723,"velocity":0.7244094488188977,"duration":0.2200520833333428},{"name":"G4","midi":67,"time":162.8255208333339,"velocity":0.7244094488188977,"duration":0.2200520833333428},{"name":"A3","midi":57,"time":163.0507812500006,"velocity":0.7244094488188977,"duration":0.4453125000000284},{"name":"F#4","midi":66,"time":163.0507812500006,"velocity":0.7244094488188977,"duration":0.2200520833333428},{"name":"G4","midi":67,"time":163.27604166666728,"velocity":0.7244094488188977,"duration":0.2200520833333428},{"name":"C4","midi":60,"time":163.50130208333397,"velocity":0.7244094488188977,"duration":0.4453125000000284},{"name":"A4","midi":69,"time":163.50130208333397,"velocity":0.7244094488188977,"duration":0.2200520833333428},{"name":"G4","midi":67,"time":163.72656250000065,"velocity":0.7244094488188977,"duration":0.2200520833333428},{"name":"A#3","midi":58,"time":163.950520833334,"velocity":0.7244094488188977,"duration":0.8958333333333997},{"name":"G4","midi":67,"time":163.950520833334,"velocity":0.7244094488188977,"duration":0.2200520833333428},{"name":"A4","midi":69,"time":164.17578125000068,"velocity":0.7244094488188977,"duration":0.2200520833333428},{"name":"G3","midi":55,"time":164.40104166666737,"velocity":0.7244094488188977,"duration":0.4453125000000284},{"name":"A#4","midi":70,"time":164.40104166666737,"velocity":0.7244094488188977,"duration":0.2200520833333428},{"name":"A4","midi":69,"time":164.62630208333405,"velocity":0.7244094488188977,"duration":0.2200520833333428},{"name":"F#3","midi":54,"time":164.85156250000074,"velocity":0.7244094488188977,"duration":0.4453125000000284},{"name":"D4","midi":62,"time":164.85156250000074,"velocity":0.7244094488188977,"duration":1.7955729166667993},{"name":"A4","midi":69,"time":164.85156250000074,"velocity":0.7244094488188977,"duration":0.2200520833333428},{"name":"B4","midi":71,"time":165.07682291666742,"velocity":0.7244094488188977,"duration":0.2200520833333428},{"name":"E3","midi":52,"time":165.3020833333341,"velocity":0.7244094488188977,"duration":0.4453125000000284},{"name":"C5","midi":72,"time":165.3020833333341,"velocity":0.7244094488188977,"duration":0.2200520833333428},{"name":"B4","midi":71,"time":165.5273437500008,"velocity":0.7244094488188977,"duration":0.2200520833333428},{"name":"D3","midi":50,"time":165.75260416666748,"velocity":0.7244094488188977,"duration":0.4453125000000284},{"name":"B4","midi":71,"time":165.75260416666748,"velocity":0.7244094488188977,"duration":0.2200520833333428},{"name":"C#5","midi":73,"time":165.97786458333417,"velocity":0.7244094488188977,"duration":0.2200520833333428},{"name":"F3","midi":53,"time":166.20312500000085,"velocity":0.7244094488188977,"duration":0.4453125000000284},{"name":"D5","midi":74,"time":166.20312500000085,"velocity":0.7244094488188977,"duration":0.2200520833333428},{"name":"C#5","midi":73,"time":166.42838541666754,"velocity":0.7244094488188977,"duration":0.2200520833333428},{"name":"E3","midi":52,"time":166.65364583333422,"velocity":0.7244094488188977,"duration":1.1184895833333712},{"name":"G3","midi":55,"time":166.65364583333422,"velocity":0.7244094488188977,"duration":0.8880208333333428},{"name":"C#5","midi":73,"time":166.65364583333422,"velocity":0.7244094488188977,"duration":0.4440104166666572},{"name":"A5","midi":81,"time":167.10286458333422,"velocity":0.7244094488188977,"duration":0.4440104166666856},{"name":"G5","midi":79,"time":167.55208333333425,"velocity":0.7244094488188977,"duration":0.4453125000000284},{"name":"D3","midi":50,"time":167.77734375000094,"velocity":0.7244094488188977,"duration":0.2200520833333428},{"name":"C#3","midi":49,"time":168.00260416666762,"velocity":0.7244094488188977,"duration":0.2200520833333428},{"name":"F5","midi":77,"time":168.00260416666762,"velocity":0.7244094488188977,"duration":0.4453125000000284},{"name":"B2","midi":47,"time":168.2278645833343,"velocity":0.7244094488188977,"duration":0.2200520833333428},{"name":"D3","midi":50,"time":168.453125000001,"velocity":0.7244094488188977,"duration":0.2200520833333428},{"name":"E5","midi":76,"time":168.453125000001,"velocity":0.7244094488188977,"duration":0.4453125000000284},{"name":"C#3","midi":49,"time":168.67838541666768,"velocity":0.7244094488188977,"duration":0.2200520833333428},{"name":"B2","midi":47,"time":168.90364583333437,"velocity":0.7244094488188977,"duration":0.2200520833333428},{"name":"G5","midi":79,"time":168.90364583333437,"velocity":0.7244094488188977,"duration":0.4453125000000284},{"name":"A2","midi":45,"time":169.12890625000105,"velocity":0.7244094488188977,"duration":0.2200520833333428},{"name":"D3","midi":50,"time":169.35416666666774,"velocity":0.7244094488188977,"duration":0.8906250000000568},{"name":"F5","midi":77,"time":169.35416666666774,"velocity":0.7244094488188977,"duration":0.2200520833333428},{"name":"A5","midi":81,"time":169.57942708333442,"velocity":0.7244094488188977,"duration":0.2200520833333428},{"name":"D4","midi":62,"time":169.8046875000011,"velocity":0.7244094488188977,"duration":0.4453125000000284},{"name":"A#5","midi":82,"time":169.8046875000011,"velocity":0.7244094488188977,"duration":0.2200520833333428},{"name":"A5","midi":81,"time":170.02864583333445,"velocity":0.7244094488188977,"duration":0.2200520833333428},{"name":"E4","midi":64,"time":170.25390625000114,"velocity":0.7244094488188977,"duration":0.4440104166666572},{"name":"C#5","midi":73,"time":170.25390625000114,"velocity":0.7244094488188977,"duration":0.8932291666666572},{"name":"F4","midi":65,"time":170.70442708333445,"velocity":0.7244094488188977,"duration":0.4440104166666856},{"name":"G4","midi":67,"time":171.15364583333448,"velocity":0.7244094488188977,"duration":0.4440104166666572},{"name":"E5","midi":76,"time":171.15364583333448,"velocity":0.7244094488188977,"duration":1.3437500000000284},{"name":"E4","midi":64,"time":171.60286458333448,"velocity":0.7244094488188977,"duration":0.4440104166666572},{"name":"F4","midi":65,"time":172.05208333333448,"velocity":0.7244094488188977,"duration":0.2200520833333428},{"name":"D4","midi":62,"time":172.27734375000117,"velocity":0.7244094488188977,"duration":0.2200520833333428},{"name":"A3","midi":57,"time":172.50260416666785,"velocity":0.7244094488188977,"duration":0.4453125000000284},{"name":"C#4","midi":61,"time":172.50260416666785,"velocity":0.7244094488188977,"duration":0.2200520833333428},{"name":"A4","midi":69,"time":172.50260416666785,"velocity":0.7244094488188977,"duration":0.4453125000000284},{"name":"D4","midi":62,"time":172.72786458333454,"velocity":0.7244094488188977,"duration":0.2200520833333428},{"name":"G3","midi":55,"time":172.95312500000122,"velocity":0.7244094488188977,"duration":0.4440104166666572},{"name":"A#4","midi":70,"time":172.95312500000122,"velocity":0.7244094488188977,"duration":0.87890625},{"name":"D5","midi":74,"time":172.95312500000122,"velocity":0.7244094488188977,"duration":0.8932291666666572},{"name":"F3","midi":53,"time":173.40234375000122,"velocity":0.7244094488188977,"duration":0.4440104166666572},{"name":"E3","midi":52,"time":173.85156250000122,"velocity":0.7244094488188977,"duration":0.4440104166666856},{"name":"A4","midi":69,"time":173.85156250000122,"velocity":0.7244094488188977,"duration":0.16276041666668561},{"name":"C5","midi":72,"time":173.85156250000122,"velocity":0.7244094488188977,"duration":1.3437500000000853},{"name":"G4","midi":67,"time":174.00130208333456,"velocity":0.7244094488188977,"duration":0.16276041666668561},{"name":"A4","midi":69,"time":174.1510416666679,"velocity":0.7244094488188977,"duration":0.16276041666668561},{"name":"G3","midi":55,"time":174.30078125000125,"velocity":0.7244094488188977,"duration":0.4440104166666856},{"name":"G4","midi":67,"time":174.30078125000125,"velocity":0.7244094488188977,"duration":0.16276041666668561},{"name":"F#4","midi":66,"time":174.4505208333346,"velocity":0.7244094488188977,"duration":0.16276041666668561},{"name":"G4","midi":67,"time":174.60026041666794,"velocity":0.7244094488188977,"duration":0.16276041666668561},{"name":"F#3","midi":54,"time":174.75000000000128,"velocity":0.7244094488188977,"duration":0.8906250000000568},{"name":"A4","midi":69,"time":174.75000000000128,"velocity":0.7244094488188977,"duration":0.8958333333333997},{"name":"A3","midi":57,"time":174.97526041666796,"velocity":0.7244094488188977,"duration":0.2200520833333428},{"name":"A#3","midi":58,"time":175.20052083333465,"velocity":0.7244094488188977,"duration":0.2200520833333428},{"name":"D#5","midi":75,"time":175.20052083333465,"velocity":0.7244094488188977,"duration":0.670572916666714},{"name":"A3","midi":57,"time":175.42578125000134,"velocity":0.7244094488188977,"duration":0.2200520833333428},{"name":"D3","midi":50,"time":175.65104166666802,"velocity":0.7244094488188977,"duration":0.8671875000000568},{"name":"F#3","midi":54,"time":175.65104166666802,"velocity":0.7244094488188977,"duration":0.8671875000000568},{"name":"D5","midi":74,"time":175.8763020833347,"velocity":0.7244094488188977,"duration":0.2200520833333428},{"name":"C5","midi":72,"time":176.1015625000014,"velocity":0.7244094488188977,"duration":0.2200520833333428},{"name":"D5","midi":74,"time":176.32682291666808,"velocity":0.7244094488188977,"duration":0.2200520833333428},{"name":"F#3","midi":54,"time":176.55208333333476,"velocity":0.7244094488188977,"duration":0.8671875000000568},{"name":"A3","midi":57,"time":176.55208333333476,"velocity":0.7244094488188977,"duration":0.8671875000000568},{"name":"D5","midi":74,"time":176.55208333333476,"velocity":0.7244094488188977,"duration":0.2200520833333428},{"name":"C5","midi":72,"time":176.77734375000145,"velocity":0.7244094488188977,"duration":0.2200520833333428},{"name":"A#4","midi":70,"time":177.0013020833348,"velocity":0.7244094488188977,"duration":0.2200520833333428},{"name":"C5","midi":72,"time":177.22656250000148,"velocity":0.7244094488188977,"duration":0.2200520833333428},{"name":"G2","midi":43,"time":177.45182291666816,"velocity":0.7244094488188977,"duration":0.8958333333333997},{"name":"C5","midi":72,"time":177.45182291666816,"velocity":0.7244094488188977,"duration":0.2200520833333428},{"name":"G3","midi":55,"time":177.67708333333485,"velocity":0.7244094488188977,"duration":0.2200520833333428},{"name":"A#4","midi":70,"time":177.67708333333485,"velocity":0.7244094488188977,"duration":0.2200520833333428},{"name":"F#3","midi":54,"time":177.90234375000153,"velocity":0.7244094488188977,"duration":0.2200520833333428},{"name":"A4","midi":69,"time":177.90234375000153,"velocity":0.7244094488188977,"duration":0.2200520833333428},{"name":"G3","midi":55,"time":178.12760416666822,"velocity":0.7244094488188977,"duration":0.2200520833333428},{"name":"A#4","midi":70,"time":178.12760416666822,"velocity":0.7244094488188977,"duration":0.2200520833333428},{"name":"C3","midi":48,"time":178.3528645833349,"velocity":0.7244094488188977,"duration":0.8671875000000568},{"name":"E3","midi":52,"time":178.3528645833349,"velocity":0.7244094488188977,"duration":0.8671875000000568},{"name":"D5","midi":74,"time":178.3528645833349,"velocity":0.7244094488188977,"duration":0.2200520833333428},{"name":"C5","midi":72,"time":178.5781250000016,"velocity":0.7244094488188977,"duration":0.2200520833333428},{"name":"A#4","midi":70,"time":178.80338541666828,"velocity":0.7244094488188977,"duration":0.2200520833333428},{"name":"C5","midi":72,"time":179.02864583333496,"velocity":0.7244094488188977,"duration":0.2200520833333428},{"name":"E3","midi":52,"time":179.25390625000165,"velocity":0.7244094488188977,"duration":0.8671875000000568},{"name":"G3","midi":55,"time":179.25390625000165,"velocity":0.7244094488188977,"duration":0.8671875000000568},{"name":"C5","midi":72,"time":179.25390625000165,"velocity":0.7244094488188977,"duration":0.2200520833333428},{"name":"A#4","midi":70,"time":179.47916666666833,"velocity":0.7244094488188977,"duration":0.2200520833333428},{"name":"A4","midi":69,"time":179.70442708333502,"velocity":0.7244094488188977,"duration":0.2200520833333428},{"name":"A#4","midi":70,"time":179.9296875000017,"velocity":0.7244094488188977,"duration":0.2200520833333428},{"name":"F2","midi":41,"time":180.1549479166684,"velocity":0.7244094488188977,"duration":0.8958333333333997},{"name":"A#4","midi":70,"time":180.1549479166684,"velocity":0.7244094488188977,"duration":0.2200520833333428},{"name":"F3","midi":53,"time":180.38020833333508,"velocity":0.7244094488188977,"duration":0.2200520833333428},{"name":"A4","midi":69,"time":180.38020833333508,"velocity":0.7244094488188977,"duration":0.2200520833333428},{"name":"E3","midi":52,"time":180.60546875000176,"velocity":0.7244094488188977,"duration":0.2200520833333428},{"name":"G4","midi":67,"time":180.60546875000176,"velocity":0.7244094488188977,"duration":0.2200520833333428},{"name":"F3","midi":53,"time":180.83072916666845,"velocity":0.7244094488188977,"duration":0.2200520833333428},{"name":"A4","midi":69,"time":180.83072916666845,"velocity":0.7244094488188977,"duration":0.2200520833333428},{"name":"A#2","midi":46,"time":181.05598958333513,"velocity":0.7244094488188977,"duration":0.8671875000000568},{"name":"D3","midi":50,"time":181.05598958333513,"velocity":0.7244094488188977,"duration":0.8671875000000568},{"name":"C5","midi":72,"time":181.05598958333513,"velocity":0.7244094488188977,"duration":0.2200520833333428},{"name":"A#4","midi":70,"time":181.28125000000182,"velocity":0.7244094488188977,"duration":0.2200520833333428},{"name":"A4","midi":69,"time":181.50520833333516,"velocity":0.7244094488188977,"duration":0.2200520833333428},{"name":"A#4","midi":70,"time":181.73046875000185,"velocity":0.7244094488188977,"duration":0.2200520833333428},{"name":"D3","midi":50,"time":181.95572916666853,"velocity":0.7244094488188977,"duration":0.8671875000000568},{"name":"F3","midi":53,"time":181.95572916666853,"velocity":0.7244094488188977,"duration":0.8671875000000568},{"name":"A#4","midi":70,"time":181.95572916666853,"velocity":0.7244094488188977,"duration":0.2200520833333428},{"name":"A4","midi":69,"time":182.18098958333522,"velocity":0.7244094488188977,"duration":0.2200520833333428},{"name":"G4","midi":67,"time":182.4062500000019,"velocity":0.7244094488188977,"duration":0.2200520833333428},{"name":"A4","midi":69,"time":182.6315104166686,"velocity":0.7244094488188977,"duration":0.2200520833333428},{"name":"E3","midi":52,"time":182.85677083333528,"velocity":0.7244094488188977,"duration":2.692708333333485},{"name":"A4","midi":69,"time":182.85677083333528,"velocity":0.7244094488188977,"duration":0.2200520833333428},{"name":"G4","midi":67,"time":183.08203125000196,"velocity":0.7244094488188977,"duration":0.2200520833333428},{"name":"F3","midi":53,"time":183.30729166666865,"velocity":0.7244094488188977,"duration":0.4453125000000284},{"name":"F4","midi":65,"time":183.30729166666865,"velocity":0.7244094488188977,"duration":0.2200520833333428},{"name":"G4","midi":67,"time":183.53255208333533,"velocity":0.7244094488188977,"duration":0.2200520833333428},{"name":"G3","midi":55,"time":183.75781250000202,"velocity":0.7244094488188977,"duration":0.4440104166666572},{"name":"E5","midi":76,"time":183.75781250000202,"velocity":0.7244094488188977,"duration":0.8763020833333428},{"name":"A3","midi":57,"time":184.20703125000202,"velocity":0.7244094488188977,"duration":0.4440104166666856},{"name":"A#3","midi":58,"time":184.65625000000205,"velocity":0.7244094488188977,"duration":0.4440104166666856},{"name":"D5","midi":74,"time":184.65625000000205,"velocity":0.7244094488188977,"duration":0.16276041666668561},{"name":"C#5","midi":73,"time":184.8059895833354,"velocity":0.7244094488188977,"duration":0.16276041666668561},{"name":"D5","midi":74,"time":184.95572916666873,"velocity":0.7244094488188977,"duration":0.16276041666668561},{"name":"G3","midi":55,"time":185.10546875000207,"velocity":0.7244094488188977,"duration":0.4440104166666856},{"name":"C#5","midi":73,"time":185.10546875000207,"velocity":0.7244094488188977,"duration":0.16276041666668561},{"name":"B4","midi":71,"time":185.25520833333542,"velocity":0.7244094488188977,"duration":0.16276041666668561},{"name":"C#5","midi":73,"time":185.40494791666876,"velocity":0.7244094488188977,"duration":0.16276041666668561},{"name":"F3","midi":53,"time":185.5546875000021,"velocity":0.7244094488188977,"duration":0.4440104166666856},{"name":"A3","midi":57,"time":185.5546875000021,"velocity":0.7244094488188977,"duration":0.4440104166666856},{"name":"D5","midi":74,"time":185.5546875000021,"velocity":0.7244094488188977,"duration":1.1184895833333712},{"name":"D3","midi":50,"time":186.00390625000213,"velocity":0.7244094488188977,"duration":0.4440104166666572},{"name":"F3","midi":53,"time":186.00390625000213,"velocity":0.7244094488188977,"duration":0.4440104166666572},{"name":"E3","midi":52,"time":186.45312500000213,"velocity":0.7244094488188977,"duration":0.4453125000000284},{"name":"G3","midi":55,"time":186.45312500000213,"velocity":0.7244094488188977,"duration":0.4453125000000284},{"name":"C5","midi":72,"time":186.67838541666882,"velocity":0.7244094488188977,"duration":0.2200520833333428},{"name":"F#3","midi":54,"time":186.9036458333355,"velocity":0.7244094488188977,"duration":0.4453125000000284},{"name":"A3","midi":57,"time":186.9036458333355,"velocity":0.7244094488188977,"duration":0.4453125000000284},{"name":"A#4","midi":70,"time":186.9036458333355,"velocity":0.7244094488188977,"duration":0.2200520833333428},{"name":"A4","midi":69,"time":187.1289062500022,"velocity":0.7244094488188977,"duration":0.2200520833333428},{"name":"G3","midi":55,"time":187.35416666666887,"velocity":0.7244094488188977,"duration":0.4453125000000284},{"name":"C5","midi":72,"time":187.35416666666887,"velocity":0.7244094488188977,"duration":0.2200520833333428},{"name":"A#4","midi":70,"time":187.57942708333556,"velocity":0.7244094488188977,"duration":0.2200520833333428},{"name":"E3","midi":52,"time":187.80468750000225,"velocity":0.7244094488188977,"duration":0.4453125000000284},{"name":"A4","midi":69,"time":187.80468750000225,"velocity":0.7244094488188977,"duration":0.2200520833333428},{"name":"G4","midi":67,"time":188.02994791666893,"velocity":0.7244094488188977,"duration":0.2200520833333428},{"name":"F#3","midi":54,"time":188.25520833333562,"velocity":0.7244094488188977,"duration":0.2200520833333428},{"name":"A4","midi":69,"time":188.25520833333562,"velocity":0.7244094488188977,"duration":0.4453125000000284},{"name":"D3","midi":50,"time":188.4804687500023,"velocity":0.7244094488188977,"duration":0.2200520833333428},{"name":"C#3","midi":49,"time":188.705729166669,"velocity":0.7244094488188977,"duration":0.2200520833333428},{"name":"A3","midi":57,"time":188.705729166669,"velocity":0.7244094488188977,"duration":0.4453125000000284},{"name":"F#4","midi":66,"time":188.705729166669,"velocity":0.7244094488188977,"duration":0.4453125000000284},{"name":"D3","midi":50,"time":188.93098958333567,"velocity":0.7244094488188977,"duration":0.2200520833333428},{"name":"G3","midi":55,"time":189.15625000000236,"velocity":0.7244094488188977,"duration":0.4440104166666572},{"name":"A#3","midi":58,"time":189.15625000000236,"velocity":0.7244094488188977,"duration":0.4440104166666572},{"name":"G4","midi":67,"time":189.15625000000236,"velocity":0.7244094488188977,"duration":0.4440104166666572},{"name":"F#3","midi":54,"time":189.60546875000236,"velocity":0.7244094488188977,"duration":0.4440104166666572},{"name":"A3","midi":57,"time":189.60546875000236,"velocity":0.7244094488188977,"duration":0.4440104166666572},{"name":"A4","midi":69,"time":189.60546875000236,"velocity":0.7244094488188977,"duration":0.4440104166666572},{"name":"E3","midi":52,"time":190.05468750000236,"velocity":0.7244094488188977,"duration":0.4440104166666572},{"name":"G3","midi":55,"time":190.05468750000236,"velocity":0.7244094488188977,"duration":0.4440104166666572},{"name":"A#4","midi":70,"time":190.05468750000236,"velocity":0.7244094488188977,"duration":0.4440104166666572},{"name":"G3","midi":55,"time":190.50390625000236,"velocity":0.7244094488188977,"duration":0.4453125000000284},{"name":"A#3","midi":58,"time":190.50390625000236,"velocity":0.7244094488188977,"duration":0.4453125000000284},{"name":"A4","midi":69,"time":190.50390625000236,"velocity":0.7244094488188977,"duration":0.2200520833333428},{"name":"G4","midi":67,"time":190.72916666666904,"velocity":0.7244094488188977,"duration":0.2200520833333428},{"name":"F#3","midi":54,"time":190.95442708333573,"velocity":0.7244094488188977,"duration":0.4453125},{"name":"A3","midi":57,"time":190.95442708333573,"velocity":0.7244094488188977,"duration":0.4453125},{"name":"A4","midi":69,"time":190.95442708333573,"velocity":0.7244094488188977,"duration":0.2200520833333428},{"name":"C5","midi":72,"time":191.17968750000242,"velocity":0.7244094488188977,"duration":0.1861979166666572},{"name":"G3","midi":55,"time":191.40494791666907,"velocity":0.7244094488188977,"duration":0.4440104166666572},{"name":"A#3","midi":58,"time":191.40494791666907,"velocity":0.7244094488188977,"duration":0.4440104166666572},{"name":"D#5","midi":75,"time":191.40494791666907,"velocity":0.7244094488188977,"duration":0.6692708333333428},{"name":"F#3","midi":54,"time":191.85416666666907,"velocity":0.7244094488188977,"duration":0.4453125000000284},{"name":"A3","midi":57,"time":191.85416666666907,"velocity":0.7244094488188977,"duration":0.4453125000000284},{"name":"D5","midi":74,"time":192.07942708333576,"velocity":0.7244094488188977,"duration":0.2200520833333428},{"name":"E3","midi":52,"time":192.30468750000244,"velocity":0.7244094488188977,"duration":0.4453125000000284},{"name":"G3","midi":55,"time":192.30468750000244,"velocity":0.7244094488188977,"duration":0.4453125000000284},{"name":"C5","midi":72,"time":192.30468750000244,"velocity":0.7244094488188977,"duration":0.2200520833333428},{"name":"A#4","midi":70,"time":192.52994791666913,"velocity":0.7244094488188977,"duration":0.2200520833333428},{"name":"D3","midi":50,"time":192.75520833333582,"velocity":0.7244094488188977,"duration":0.4453125000000284},{"name":"F#3","midi":54,"time":192.75520833333582,"velocity":0.7244094488188977,"duration":0.4453125000000284},{"name":"D5","midi":74,"time":192.75520833333582,"velocity":0.7244094488188977,"duration":0.2200520833333428},{"name":"C5","midi":72,"time":192.9804687500025,"velocity":0.7244094488188977,"duration":0.2200520833333428},{"name":"F#3","midi":54,"time":193.2057291666692,"velocity":0.7244094488188977,"duration":0.4453125000000284},{"name":"A3","midi":57,"time":193.2057291666692,"velocity":0.7244094488188977,"duration":0.4453125000000284},{"name":"A#4","midi":70,"time":193.2057291666692,"velocity":0.7244094488188977,"duration":0.2200520833333428},{"name":"A4","midi":69,"time":193.43098958333587,"velocity":0.7244094488188977,"duration":0.2200520833333428},{"name":"G2","midi":43,"time":193.65625000000256,"velocity":0.7244094488188977,"duration":0.4453125},{"name":"G3","midi":55,"time":193.65625000000256,"velocity":0.7244094488188977,"duration":0.4453125},{"name":"A#4","midi":70,"time":193.65625000000256,"velocity":0.7244094488188977,"duration":0.2200520833333428},{"name":"D5","midi":74,"time":193.88151041666924,"velocity":0.7244094488188977,"duration":0.1861979166666572},{"name":"A3","midi":57,"time":194.1067708333359,"velocity":0.7244094488188977,"duration":0.4440104166666572},{"name":"C4","midi":60,"time":194.1067708333359,"velocity":0.7244094488188977,"duration":0.4440104166666572},{"name":"F5","midi":77,"time":194.1067708333359,"velocity":0.7244094488188977,"duration":0.6692708333333428},{"name":"G#3","midi":56,"time":194.5559895833359,"velocity":0.7244094488188977,"duration":0.4453125000000284},{"name":"B3","midi":59,"time":194.5559895833359,"velocity":0.7244094488188977,"duration":0.4453125000000284},{"name":"E5","midi":76,"time":194.7812500000026,"velocity":0.7244094488188977,"duration":0.2200520833333428},{"name":"F#3","midi":54,"time":195.00651041666927,"velocity":0.7244094488188977,"duration":0.4453125000000284},{"name":"A3","midi":57,"time":195.00651041666927,"velocity":0.7244094488188977,"duration":0.4453125000000284},{"name":"D5","midi":74,"time":195.00651041666927,"velocity":0.7244094488188977,"duration":0.2200520833333428},{"name":"C#5","midi":73,"time":195.23046875000261,"velocity":0.7244094488188977,"duration":0.2200520833333428},{"name":"E3","midi":52,"time":195.4557291666693,"velocity":0.7244094488188977,"duration":0.4453125000000284},{"name":"G#3","midi":56,"time":195.4557291666693,"velocity":0.7244094488188977,"duration":0.4453125000000284},{"name":"E5","midi":76,"time":195.4557291666693,"velocity":0.7244094488188977,"duration":0.2200520833333428},{"name":"D5","midi":74,"time":195.680989583336,"velocity":0.7244094488188977,"duration":0.2200520833333428},{"name":"G#3","midi":56,"time":195.90625000000267,"velocity":0.7244094488188977,"duration":0.4453125000000284},{"name":"B3","midi":59,"time":195.90625000000267,"velocity":0.7244094488188977,"duration":0.4453125000000284},{"name":"C#5","midi":73,"time":195.90625000000267,"velocity":0.7244094488188977,"duration":0.2200520833333428},{"name":"B4","midi":71,"time":196.13151041666936,"velocity":0.7244094488188977,"duration":0.2200520833333428},{"name":"A2","midi":45,"time":196.35677083333604,"velocity":0.7244094488188977,"duration":0.4453125},{"name":"A3","midi":57,"time":196.35677083333604,"velocity":0.7244094488188977,"duration":0.4453125},{"name":"C#5","midi":73,"time":196.35677083333604,"velocity":0.7244094488188977,"duration":0.2200520833333428},{"name":"E5","midi":76,"time":196.58203125000273,"velocity":0.7244094488188977,"duration":0.1861979166666572},{"name":"D4","midi":62,"time":196.80729166666939,"velocity":0.7244094488188977,"duration":0.4440104166666572},{"name":"F4","midi":65,"time":196.80729166666939,"velocity":0.7244094488188977,"duration":0.4440104166666572},{"name":"A#5","midi":82,"time":196.80729166666939,"velocity":0.7244094488188977,"duration":0.6692708333333428},{"name":"C#4","midi":61,"time":197.25651041666939,"velocity":0.7244094488188977,"duration":0.4453125000000284},{"name":"E4","midi":64,"time":197.25651041666939,"velocity":0.7244094488188977,"duration":0.4453125000000284},{"name":"A5","midi":81,"time":197.48177083333607,"velocity":0.7244094488188977,"duration":0.2200520833333428},{"name":"B3","midi":59,"time":197.70703125000276,"velocity":0.7244094488188977,"duration":0.4453125000000284},{"name":"D4","midi":62,"time":197.70703125000276,"velocity":0.7244094488188977,"duration":0.4453125000000284},{"name":"G5","midi":79,"time":197.70703125000276,"velocity":0.7244094488188977,"duration":0.2200520833333428},{"name":"F5","midi":77,"time":197.93229166666944,"velocity":0.7244094488188977,"duration":0.2200520833333428},{"name":"A3","midi":57,"time":198.15755208333613,"velocity":0.7244094488188977,"duration":0.4453125000000284},{"name":"C#4","midi":61,"time":198.15755208333613,"velocity":0.7244094488188977,"duration":0.4453125000000284},{"name":"A5","midi":81,"time":198.15755208333613,"velocity":0.7244094488188977,"duration":0.2200520833333428},{"name":"G5","midi":79,"time":198.3828125000028,"velocity":0.7244094488188977,"duration":0.2200520833333428},{"name":"C#4","midi":61,"time":198.6080729166695,"velocity":0.7244094488188977,"duration":0.4453125000000284},{"name":"E4","midi":64,"time":198.6080729166695,"velocity":0.7244094488188977,"duration":0.4453125000000284},{"name":"F5","midi":77,"time":198.6080729166695,"velocity":0.7244094488188977,"duration":0.2200520833333428},{"name":"E5","midi":76,"time":198.83333333333618,"velocity":0.7244094488188977,"duration":0.2200520833333428},{"name":"D4","midi":62,"time":199.05859375000287,"velocity":0.7244094488188977,"duration":0.8906250000000568},{"name":"G5","midi":79,"time":199.05859375000287,"velocity":0.7244094488188977,"duration":0.2200520833333428},{"name":"F5","midi":77,"time":199.28385416666956,"velocity":0.7244094488188977,"duration":0.2200520833333428},{"name":"D3","midi":50,"time":199.50911458333624,"velocity":0.7244094488188977,"duration":0.4453125000000284},{"name":"E5","midi":76,"time":199.50911458333624,"velocity":0.7244094488188977,"duration":0.2200520833333428},{"name":"F5","midi":77,"time":199.73437500000293,"velocity":0.7244094488188977,"duration":0.2200520833333428},{"name":"E3","midi":52,"time":199.9596354166696,"velocity":0.7244094488188977,"duration":0.4453125000000284},{"name":"F5","midi":77,"time":199.9596354166696,"velocity":0.7244094488188977,"duration":0.2200520833333428},{"name":"E5","midi":76,"time":200.1848958333363,"velocity":0.7244094488188977,"duration":0.2200520833333428},{"name":"F3","midi":53,"time":200.41015625000298,"velocity":0.7244094488188977,"duration":0.4453125000000284},{"name":"D5","midi":74,"time":200.41015625000298,"velocity":0.7244094488188977,"duration":0.2200520833333428},{"name":"E5","midi":76,"time":200.63411458333633,"velocity":0.7244094488188977,"duration":0.2200520833333428},{"name":"G3","midi":55,"time":200.859375000003,"velocity":0.7244094488188977,"duration":0.4453125000000284},{"name":"E5","midi":76,"time":200.859375000003,"velocity":0.7244094488188977,"duration":0.2200520833333428},{"name":"D5","midi":74,"time":201.0846354166697,"velocity":0.7244094488188977,"duration":0.2200520833333428},{"name":"E3","midi":52,"time":201.30989583333638,"velocity":0.7244094488188977,"duration":0.4453125000000284},{"name":"C#5","midi":73,"time":201.30989583333638,"velocity":0.7244094488188977,"duration":0.2200520833333428},{"name":"D5","midi":74,"time":201.53515625000307,"velocity":0.7244094488188977,"duration":0.2200520833333428},{"name":"F#3","midi":54,"time":201.76041666666976,"velocity":0.7244094488188977,"duration":0.2200520833333428},{"name":"C5","midi":72,"time":201.76041666666976,"velocity":0.7244094488188977,"duration":1.1210937500000853},{"name":"D3","midi":50,"time":201.98567708333644,"velocity":0.7244094488188977,"duration":0.2200520833333428},{"name":"C#3","midi":49,"time":202.21093750000313,"velocity":0.7244094488188977,"duration":0.2200520833333428},{"name":"D4","midi":62,"time":202.21093750000313,"velocity":0.7244094488188977,"duration":0.4453125000000284},{"name":"D3","midi":50,"time":202.4361979166698,"velocity":0.7244094488188977,"duration":0.2200520833333428},{"name":"A#3","midi":58,"time":202.6614583333365,"velocity":0.7244094488188977,"duration":0.8789062500000568},{"name":"E4","midi":64,"time":202.6614583333365,"velocity":0.7244094488188977,"duration":0.4453125000000284},{"name":"A#4","midi":70,"time":202.88671875000318,"velocity":0.7244094488188977,"duration":0.2200520833333428},{"name":"F#4","midi":66,"time":203.11197916666987,"velocity":0.7244094488188977,"duration":0.4453125000000284},{"name":"A4","midi":69,"time":203.11197916666987,"velocity":0.7244094488188977,"duration":0.2200520833333428},{"name":"A#4","midi":70,"time":203.33723958333655,"velocity":0.7244094488188977,"duration":0.2200520833333428},{"name":"A3","midi":57,"time":203.56250000000324,"velocity":0.7244094488188977,"duration":0.16276041666668561},{"name":"G4","midi":67,"time":203.56250000000324,"velocity":0.7244094488188977,"duration":0.4453125000000284},{"name":"A#4","midi":70,"time":203.56250000000324,"velocity":0.7244094488188977,"duration":0.2200520833333428},{"name":"G3","midi":55,"time":203.71223958333658,"velocity":0.7244094488188977,"duration":0.16406250000002842},{"name":"A4","midi":69,"time":203.78776041666993,"velocity":0.7244094488188977,"duration":0.2200520833333428},{"name":"A3","midi":57,"time":203.86328125000327,"velocity":0.7244094488188977,"duration":0.16276041666668561},{"name":"G3","midi":55,"time":204.0130208333366,"velocity":0.7244094488188977,"duration":0.16276041666668561},{"name":"E4","midi":64,"time":204.0130208333366,"velocity":0.7244094488188977,"duration":0.4453125000000284},{"name":"G4","midi":67,"time":204.0130208333366,"velocity":0.7244094488188977,"duration":0.2200520833333428},{"name":"F3","midi":53,"time":204.16276041666995,"velocity":0.7244094488188977,"duration":0.16406250000002842},{"name":"D5","midi":74,"time":204.2382812500033,"velocity":0.7244094488188977,"duration":0.2200520833333428},{"name":"G3","midi":55,"time":204.31380208333664,"velocity":0.7244094488188977,"duration":0.16276041666668561},{"name":"A3","midi":57,"time":204.46354166666998,"velocity":0.7244094488188977,"duration":0.4453125000000284},{"name":"F4","midi":65,"time":204.46354166666998,"velocity":0.7244094488188977,"duration":0.2200520833333428},{"name":"D5","midi":74,"time":204.46354166666998,"velocity":0.7244094488188977,"duration":3.901041666666913},{"name":"D4","midi":62,"time":204.68880208333667,"velocity":0.7244094488188977,"duration":0.2200520833333428},{"name":"A#3","midi":58,"time":204.91406250000335,"velocity":0.7244094488188977,"duration":0.4453125000000284},{"name":"C#4","midi":61,"time":204.91406250000335,"velocity":0.7244094488188977,"duration":0.2200520833333428},{"name":"D4","midi":62,"time":205.1380208333367,"velocity":0.7244094488188977,"duration":0.2200520833333428},{"name":"A3","midi":57,"time":205.36328125000338,"velocity":0.7244094488188977,"duration":0.2200520833333428},{"name":"A#4","midi":70,"time":205.36328125000338,"velocity":0.7244094488188977,"duration":0.8789062500000568},{"name":"G3","midi":55,"time":205.58854166667007,"velocity":0.7244094488188977,"duration":0.2200520833333428},{"name":"F3","midi":53,"time":205.81380208333675,"velocity":0.7244094488188977,"duration":0.2200520833333428},{"name":"G3","midi":55,"time":206.03906250000344,"velocity":0.7244094488188977,"duration":0.2200520833333428},{"name":"G3","midi":55,"time":206.26432291667012,"velocity":0.7244094488188977,"duration":0.2200520833333428},{"name":"A4","midi":69,"time":206.26432291667012,"velocity":0.7244094488188977,"duration":0.16276041666668561},{"name":"G4","midi":67,"time":206.41406250000347,"velocity":0.7244094488188977,"duration":0.16406250000002842},{"name":"F3","midi":53,"time":206.4895833333368,"velocity":0.7244094488188977,"duration":0.2200520833333428},{"name":"A4","midi":69,"time":206.56510416667015,"velocity":0.7244094488188977,"duration":0.16276041666668561},{"name":"E3","midi":52,"time":206.7148437500035,"velocity":0.7244094488188977,"duration":0.2200520833333428},{"name":"G4","midi":67,"time":206.7148437500035,"velocity":0.7244094488188977,"duration":0.16276041666668561},{"name":"F4","midi":65,"time":206.86458333333684,"velocity":0.7244094488188977,"duration":0.16406250000002842},{"name":"F3","midi":53,"time":206.94010416667018,"velocity":0.7244094488188977,"duration":0.2200520833333428},{"name":"G4","midi":67,"time":207.01562500000352,"velocity":0.7244094488188977,"duration":0.16276041666668561},{"name":"F3","midi":53,"time":207.16536458333687,"velocity":0.7244094488188977,"duration":0.47265625},{"name":"A4","midi":69,"time":207.16536458333687,"velocity":0.7244094488188977,"duration":0.47265625},{"name":"G3","midi":55,"time":207.6432291666702,"velocity":0.7244094488188977,"duration":0.47265625},{"name":"A#4","midi":70,"time":207.6432291666702,"velocity":0.7244094488188977,"duration":0.47265625},{"name":"A3","midi":57,"time":208.12109375000355,"velocity":0.7244094488188977,"duration":0.4960937500000284},{"name":"F4","midi":65,"time":208.12109375000355,"velocity":0.7244094488188977,"duration":0.18229166666668561},{"name":"E4","midi":64,"time":208.2864583333369,"velocity":0.7244094488188977,"duration":0.18229166666668561},{"name":"G#5","midi":80,"time":208.36979166667024,"velocity":0.7244094488188977,"duration":0.2473958333333428},{"name":"F4","midi":65,"time":208.45312500000358,"velocity":0.7244094488188977,"duration":0.1848958333333428},{"name":"G3","midi":55,"time":208.62239583333692,"velocity":0.7244094488188977,"duration":0.4986979166666572},{"name":"E4","midi":64,"time":208.62239583333692,"velocity":0.7244094488188977,"duration":0.1848958333333428},{"name":"A5","midi":81,"time":208.62239583333692,"velocity":0.7244094488188977,"duration":0.24609375},{"name":"F4","midi":65,"time":208.79036458333692,"velocity":0.7244094488188977,"duration":0.1822916666666572},{"name":"D5","midi":74,"time":208.87239583333692,"velocity":0.7244094488188977,"duration":0.24739583333331439},{"name":"E4","midi":64,"time":208.95703125000358,"velocity":0.7244094488188977,"duration":0.1848958333333428},{"name":"A3","midi":57,"time":209.12500000000358,"velocity":0.7244094488188977,"duration":1.0000000000000284},{"name":"F4","midi":65,"time":209.12500000000358,"velocity":0.7244094488188977,"duration":0.1848958333333428},{"name":"F5","midi":77,"time":209.12500000000358,"velocity":0.7244094488188977,"duration":0.24609375},{"name":"E4","midi":64,"time":209.29427083333692,"velocity":0.7244094488188977,"duration":0.18229166666668561},{"name":"E5","midi":76,"time":209.37630208333692,"velocity":0.7244094488188977,"duration":0.2473958333333428},{"name":"F4","midi":65,"time":209.45963541667027,"velocity":0.7244094488188977,"duration":0.1848958333333428},{"name":"E4","midi":64,"time":209.6289062500036,"velocity":0.7244094488188977,"duration":0.49609375},{"name":"D5","midi":74,"time":209.6289062500036,"velocity":0.7244094488188977,"duration":0.24609375},{"name":"C#5","midi":73,"time":209.88020833333695,"velocity":0.7244094488188977,"duration":0.2447916666666572},{"name":"D3","midi":50,"time":210.13020833333695,"velocity":0.7244094488188977,"duration":3.6158854166666003},{"name":"D4","midi":62,"time":210.13020833333695,"velocity":0.7244094488188977,"duration":0.5963541666666572},{"name":"D5","midi":74,"time":210.13020833333695,"velocity":0.7244094488188977,"duration":3.6158854166666003},{"name":"F#3","midi":54,"time":210.7343750000036,"velocity":0.7244094488188977,"duration":0.5963541666666572},{"name":"A4","midi":69,"time":210.7343750000036,"velocity":0.7244094488188977,"duration":0.5963541666666572},{"name":"C5","midi":72,"time":210.7343750000036,"velocity":0.7244094488188977,"duration":0.5963541666666572},{"name":"G3","midi":55,"time":211.33723958333692,"velocity":0.7244094488188977,"duration":0.5963541666666572},{"name":"E3","midi":52,"time":211.33723958333692,"velocity":0.7244094488188977,"duration":0.5963541666666572},{"name":"G4","midi":67,"time":211.33723958333692,"velocity":0.7244094488188977,"duration":0.5963541666666572},{"name":"A#4","midi":70,"time":211.33723958333692,"velocity":0.7244094488188977,"duration":0.5963541666666572},{"name":"F#3","midi":54,"time":211.94140625000358,"velocity":0.7244094488188977,"duration":0.5963541666666572},{"name":"A3","midi":57,"time":211.94140625000358,"velocity":0.7244094488188977,"duration":0.5963541666666572},{"name":"F#4","midi":66,"time":211.94140625000358,"velocity":0.7244094488188977,"duration":0.5963541666666572},{"name":"A4","midi":69,"time":211.94140625000358,"velocity":0.7244094488188977,"duration":0.5963541666666572},{"name":"A#3","midi":58,"time":212.54557291667024,"velocity":0.7244094488188977,"duration":0.5963541666666572},{"name":"G3","midi":55,"time":212.54557291667024,"velocity":0.7244094488188977,"duration":0.5963541666666572},{"name":"E4","midi":64,"time":212.54557291667024,"velocity":0.7244094488188977,"duration":0.5963541666666572},{"name":"G4","midi":67,"time":212.54557291667024,"velocity":0.7244094488188977,"duration":0.5963541666666572},{"name":"E3","midi":52,"time":213.1497395833369,"velocity":0.7244094488188977,"duration":0.5963541666666572},{"name":"G3","midi":55,"time":213.1497395833369,"velocity":0.7244094488188977,"duration":0.5963541666666572},{"name":"G4","midi":67,"time":213.1497395833369,"velocity":0.7244094488188977,"duration":0.5963541666666572},{"name":"A#4","midi":70,"time":213.1497395833369,"velocity":0.7244094488188977,"duration":0.5963541666666572},{"name":"D5","midi":74,"time":213.77343750000355,"velocity":0.7244094488188977,"duration":4.4609375},{"name":"D4","midi":62,"time":213.77343750000355,"velocity":0.7244094488188977,"duration":4.4609375},{"name":"A4","midi":69,"time":213.77343750000355,"velocity":0.7244094488188977,"duration":4.4609375},{"name":"F#4","midi":66,"time":213.77343750000355,"velocity":0.7244094488188977,"duration":4.4609375},{"name":"A3","midi":57,"time":213.77343750000355,"velocity":0.7244094488188977,"duration":4.4609375},{"name":"D3","midi":50,"time":213.77343750000355,"velocity":0.7244094488188977,"duration":4.4609375},{"name":"F#3","midi":54,"time":213.77343750000355,"velocity":0.7244094488188977,"duration":4.4609375}],"controlChanges":{"7":[{"number":7,"time":0,"value":0.7874015748031497}]},"id":1,"name":"Harpsichord","instrumentNumber":6,"instrument":"harpsichord","instrumentFamily":"piano","channelNumber":0,"isPercussion":false}]}