{"header":{"PPQ":240,"timeSignature":[1,4],"bpm":120,"name":""},"startTime":5.102083333333333,"duration":252.36458333333135,"tracks":[{"startTime":5.102083333333333,"duration":252.36458333333135,"length":1523,"notes":[{"name":"C#4","midi":61,"time":5.102083333333333,"velocity":0.5275590551181102,"duration":1.364583333333333},{"name":"A#3","midi":58,"time":5.104166666666666,"velocity":0.5275590551181102,"duration":0.7312500000000002},{"name":"A#4","midi":70,"time":5.872916666666666,"velocity":0.4881889763779528,"duration":0.3125},{"name":"F4","midi":65,"time":5.874999999999999,"velocity":0.5275590551181102,"duration":0.6270833333333332},{"name":"A#3","midi":58,"time":5.874999999999999,"velocity":0.5275590551181102,"duration":0.6291666666666664},{"name":"C5","midi":72,"time":6.2020833333333325,"velocity":0.4881889763779528,"duration":0.31666666666666643},{"name":"C#5","midi":73,"time":6.537499999999999,"velocity":0.4881889763779528,"duration":0.6791666666666663},{"name":"A#4","midi":70,"time":6.537499999999999,"velocity":0.4881889763779528,"duration":0.6791666666666663},{"name":"A#3","midi":58,"time":6.539583333333332,"velocity":0.5275590551181102,"duration":0.6749999999999998},{"name":"A#4","midi":70,"time":7.252083333333331,"velocity":0.4881889763779528,"duration":0.6833333333333336},{"name":"C#5","midi":73,"time":7.252083333333331,"velocity":0.4881889763779528,"duration":0.6854166666666668},{"name":"A#3","midi":58,"time":7.252083333333331,"velocity":0.5275590551181102,"duration":0.6833333333333336},{"name":"F4","midi":65,"time":7.254166666666665,"velocity":0.5275590551181102,"duration":0.6791666666666671},{"name":"C#4","midi":61,"time":7.254166666666665,"velocity":0.5275590551181102,"duration":0.6791666666666671},{"name":"C#5","midi":73,"time":7.970833333333331,"velocity":0.4881889763779528,"duration":0.6875},{"name":"A#4","midi":70,"time":7.970833333333331,"velocity":0.4881889763779528,"duration":0.6875},{"name":"D#4","midi":63,"time":7.972916666666665,"velocity":0.5275590551181102,"duration":1.3249999999999975},{"name":"A#3","midi":58,"time":7.972916666666665,"velocity":0.5275590551181102,"duration":0.6854166666666668},{"name":"F#4","midi":66,"time":7.974999999999998,"velocity":0.5275590551181102,"duration":1.320833333333331},{"name":"C5","midi":72,"time":8.691666666666665,"velocity":0.4881889763779528,"duration":0.3229166666666661},{"name":"A4","midi":69,"time":8.693749999999998,"velocity":0.4881889763779528,"duration":0.32083333333333286},{"name":"A#3","midi":58,"time":8.693749999999998,"velocity":0.5275590551181102,"duration":0.6354166666666643},{"name":"C#5","midi":73,"time":9.029166666666663,"velocity":0.4881889763779528,"duration":0.31874999999999964},{"name":"A#4","midi":70,"time":9.031249999999996,"velocity":0.4881889763779528,"duration":0.3145833333333332},{"name":"C5","midi":72,"time":9.36458333333333,"velocity":0.4881889763779528,"duration":0.6687499999999993},{"name":"D#5","midi":75,"time":9.36458333333333,"velocity":0.4881889763779528,"duration":0.6687499999999993},{"name":"A#3","midi":58,"time":9.366666666666664,"velocity":0.5275590551181102,"duration":0.6645833333333329},{"name":"A4","midi":69,"time":10.066666666666663,"velocity":0.4881889763779528,"duration":0.6604166666666664},{"name":"C5","midi":72,"time":10.066666666666663,"velocity":0.4881889763779528,"duration":0.6604166666666664},{"name":"D#5","midi":75,"time":10.068749999999996,"velocity":0.4881889763779528,"duration":0.65625},{"name":"F#4","midi":66,"time":10.068749999999996,"velocity":0.5275590551181102,"duration":0.65625},{"name":"C4","midi":60,"time":10.07083333333333,"velocity":0.5275590551181102,"duration":0.6520833333333336},{"name":"D#4","midi":63,"time":10.07083333333333,"velocity":0.5275590551181102,"duration":0.6541666666666668},{"name":"A#3","midi":58,"time":10.072916666666663,"velocity":0.5275590551181102,"duration":0.6500000000000004},{"name":"C5","midi":72,"time":10.756249999999996,"velocity":0.4881889763779528,"duration":0.7062499999999989},{"name":"D#5","midi":75,"time":10.756249999999996,"velocity":0.4881889763779528,"duration":0.7083333333333321},{"name":"C#4","midi":61,"time":10.75833333333333,"velocity":0.5275590551181102,"duration":1.3333333333333321},{"name":"A#3","midi":58,"time":10.75833333333333,"velocity":0.5275590551181102,"duration":0.7041666666666657},{"name":"F4","midi":65,"time":10.760416666666663,"velocity":0.5275590551181102,"duration":1.3291666666666657},{"name":"C#5","midi":73,"time":11.497916666666661,"velocity":0.4881889763779528,"duration":0.3125},{"name":"A#4","midi":70,"time":11.497916666666661,"velocity":0.4881889763779528,"duration":0.3125},{"name":"A#3","midi":58,"time":11.497916666666661,"velocity":0.5275590551181102,"duration":0.6270833333333332},{"name":"C5","midi":72,"time":11.827083333333329,"velocity":0.4881889763779528,"duration":0.31666666666666643},{"name":"D#5","midi":75,"time":11.827083333333329,"velocity":0.4881889763779528,"duration":0.31874999999999964},{"name":"F5","midi":77,"time":12.160416666666661,"velocity":0.3937007874015748,"duration":0.6708333333333325},{"name":"C#5","midi":73,"time":12.162499999999994,"velocity":0.4881889763779528,"duration":0.6666666666666661},{"name":"A#3","midi":58,"time":12.162499999999994,"velocity":0.5275590551181102,"duration":0.6666666666666661},{"name":"F5","midi":77,"time":12.868749999999993,"velocity":0.3937007874015748,"duration":0.6833333333333336},{"name":"A#4","midi":70,"time":12.870833333333326,"velocity":0.4881889763779528,"duration":0.6812500000000004},{"name":"C#5","midi":73,"time":12.870833333333326,"velocity":0.4881889763779528,"duration":0.6812500000000004},{"name":"F4","midi":65,"time":12.87291666666666,"velocity":0.5275590551181102,"duration":0.6770833333333339},{"name":"A#3","midi":58,"time":12.87291666666666,"velocity":0.5275590551181102,"duration":0.6770833333333339},{"name":"C#4","midi":61,"time":12.874999999999993,"velocity":0.5275590551181102,"duration":0.6750000000000007},{"name":"C#5","midi":73,"time":13.58541666666666,"velocity":0.4881889763779528,"duration":0.6729166666666657},{"name":"F5","midi":77,"time":13.58541666666666,"velocity":0.3937007874015748,"duration":0.6729166666666657},{"name":"A4","midi":69,"time":13.587499999999993,"velocity":0.4881889763779528,"duration":1.333333333333334},{"name":"A#3","midi":58,"time":13.587499999999993,"velocity":0.5275590551181102,"duration":0.6687499999999993},{"name":"C4","midi":60,"time":13.589583333333326,"velocity":0.5275590551181102,"duration":1.3291666666666675},{"name":"D#5","midi":75,"time":14.291666666666659,"velocity":0.4881889763779528,"duration":0.3333333333333339},{"name":"C5","midi":72,"time":14.291666666666659,"velocity":0.4881889763779528,"duration":0.3333333333333339},{"name":"A#3","midi":58,"time":14.293749999999992,"velocity":0.5275590551181102,"duration":0.6625000000000014},{"name":"F5","midi":77,"time":14.643749999999994,"velocity":0.3937007874015748,"duration":0.3333333333333339},{"name":"C#5","midi":73,"time":14.643749999999994,"velocity":0.4881889763779528,"duration":0.3333333333333339},{"name":"F#5","midi":78,"time":14.997916666666661,"velocity":0.3937007874015748,"duration":0.7083333333333339},{"name":"D#5","midi":75,"time":14.997916666666661,"velocity":0.4881889763779528,"duration":0.7083333333333339},{"name":"A#3","midi":58,"time":14.999999999999995,"velocity":0.5275590551181102,"duration":0.7041666666666675},{"name":"F#5","midi":78,"time":15.743749999999995,"velocity":0.3937007874015748,"duration":0.7104166666666707},{"name":"A4","midi":69,"time":15.743749999999995,"velocity":0.4881889763779528,"duration":0.7104166666666707},{"name":"D#5","midi":75,"time":15.745833333333328,"velocity":0.4881889763779528,"duration":0.7062500000000025},{"name":"C4","midi":60,"time":15.745833333333328,"velocity":0.5275590551181102,"duration":0.7062500000000025},{"name":"A#3","midi":58,"time":15.747916666666661,"velocity":0.5275590551181102,"duration":0.7020833333333343},{"name":"F#5","midi":78,"time":16.491666666666667,"velocity":0.3937007874015748,"duration":0.6937500000000014},{"name":"A#4","midi":70,"time":16.493750000000002,"velocity":0.4881889763779528,"duration":1.310416666666665},{"name":"A#3","midi":58,"time":16.493750000000002,"velocity":0.5275590551181102,"duration":0.6916666666666664},{"name":"C#5","midi":73,"time":17.225,"velocity":0.4881889763779528,"duration":0.6104166666666657},{"name":"F5","midi":77,"time":17.225,"velocity":0.3937007874015748,"duration":0.30833333333333357},{"name":"A#3","midi":58,"time":17.225,"velocity":0.5275590551181102,"duration":0.30833333333333357},{"name":"D#5","midi":75,"time":17.55,"velocity":0.4881889763779528,"duration":0.30208333333333215},{"name":"C4","midi":60,"time":17.55,"velocity":0.5275590551181102,"duration":0.30208333333333215},{"name":"F5","midi":77,"time":17.86875,"velocity":0.3937007874015748,"duration":0.6958333333333329},{"name":"C#4","midi":61,"time":17.86875,"velocity":0.5275590551181102,"duration":0.6958333333333329},{"name":"A#4","midi":70,"time":18.599999999999998,"velocity":0.4881889763779528,"duration":0.6979166666666714},{"name":"F5","midi":77,"time":18.599999999999998,"velocity":0.3937007874015748,"duration":0.7000000000000064},{"name":"C#5","midi":73,"time":18.602083333333333,"velocity":0.4881889763779528,"duration":0.6958333333333364},{"name":"C#4","midi":61,"time":18.602083333333333,"velocity":0.5275590551181102,"duration":0.6937500000000014},{"name":"F5","midi":77,"time":19.331250000000004,"velocity":0.3937007874015748,"duration":0.6979166666666714},{"name":"A#4","midi":70,"time":19.33333333333334,"velocity":0.4881889763779528,"duration":1.3312500000000078},{"name":"C#4","midi":61,"time":19.33333333333334,"velocity":0.5275590551181102,"duration":0.6958333333333364},{"name":"G4","midi":67,"time":19.335416666666674,"velocity":0.5275590551181102,"duration":0.6916666666666664},{"name":"D#5","midi":75,"time":20.064583333333342,"velocity":0.4881889763779528,"duration":0.31666666666667},{"name":"C4","midi":60,"time":20.064583333333342,"velocity":0.5275590551181102,"duration":0.314583333333335},{"name":"F#4","midi":66,"time":20.066666666666677,"velocity":0.5275590551181102,"duration":0.631250000000005},{"name":"C#5","midi":73,"time":20.397916666666678,"velocity":0.4881889763779528,"duration":0.3208333333333364},{"name":"C#4","midi":61,"time":20.400000000000013,"velocity":0.5275590551181102,"duration":0.3187500000000014},{"name":"C5","midi":72,"time":20.737500000000015,"velocity":0.4881889763779528,"duration":0.69166666666667},{"name":"D#4","midi":63,"time":20.73958333333335,"velocity":0.5275590551181102,"duration":0.6875},{"name":"A#4","midi":70,"time":21.460416666666685,"velocity":0.4881889763779528,"duration":0.6312500000000014},{"name":"C#5","midi":73,"time":21.46250000000002,"velocity":0.4881889763779528,"duration":0.3062499999999986},{"name":"D#4","midi":63,"time":21.46250000000002,"velocity":0.5275590551181102,"duration":0.6166666666666636},{"name":"F#4","midi":66,"time":21.46250000000002,"velocity":0.5275590551181102,"duration":0.622916666666665},{"name":"D#5","midi":75,"time":21.785416666666684,"velocity":0.4881889763779528,"duration":0.37083333333333357},{"name":"A4","midi":69,"time":22.10000000000002,"velocity":0.4881889763779528,"duration":0.7062499999999972},{"name":"F4","midi":65,"time":22.10000000000002,"velocity":0.5275590551181102,"duration":1.341666666666665},{"name":"D#4","midi":63,"time":22.10000000000002,"velocity":0.5275590551181102,"duration":0.7062499999999972},{"name":"F5","midi":77,"time":22.837500000000016,"velocity":0.3937007874015748,"duration":1.3729166666666721},{"name":"A#4","midi":70,"time":22.837500000000016,"velocity":0.4881889763779528,"duration":0.30625000000000213},{"name":"C#4","midi":61,"time":22.83958333333335,"velocity":0.5275590551181102,"duration":0.30208333333333215},{"name":"C5","midi":72,"time":23.160416666666684,"velocity":0.4881889763779528,"duration":0.33958333333333357},{"name":"D#4","midi":63,"time":23.16250000000002,"velocity":0.5275590551181102,"duration":0.3374999999999986},{"name":"C#5","midi":73,"time":23.51875000000002,"velocity":0.4881889763779528,"duration":2.0208333333333393},{"name":"F4","midi":65,"time":23.520833333333353,"velocity":0.5275590551181102,"duration":0.7291666666666679},{"name":"G5","midi":79,"time":24.289583333333354,"velocity":0.3937007874015748,"duration":0.2958333333333343},{"name":"F4","midi":65,"time":24.289583333333354,"velocity":0.5275590551181102,"duration":0.5916666666666686},{"name":"A5","midi":81,"time":24.600000000000023,"velocity":0.3937007874015748,"duration":0.3000000000000007},{"name":"A#5","midi":82,"time":24.91666666666669,"velocity":0.3937007874015748,"duration":2.0062500000000156},{"name":"F#4","midi":66,"time":24.918750000000024,"velocity":0.5275590551181102,"duration":3.3312500000000185},{"name":"F4","midi":65,"time":24.918750000000024,"velocity":0.5275590551181102,"duration":0.689583333333335},{"name":"C5","midi":72,"time":25.641666666666694,"velocity":0.4881889763779528,"duration":0.31041666666666856},{"name":"D#4","midi":63,"time":25.641666666666694,"velocity":0.5275590551181102,"duration":0.30833333333333357},{"name":"C#5","midi":73,"time":25.966666666666697,"velocity":0.4881889763779528,"duration":0.3041666666666707},{"name":"C#4","midi":61,"time":25.968750000000032,"velocity":0.5275590551181102,"duration":0.3000000000000007},{"name":"D#5","midi":75,"time":26.285416666666702,"velocity":0.4881889763779528,"duration":2.03958333333334},{"name":"C4","midi":60,"time":26.287500000000037,"velocity":0.5275590551181102,"duration":0.7104166666666671},{"name":"A5","midi":81,"time":27.035416666666706,"velocity":0.3937007874015748,"duration":0.30625000000000213},{"name":"A#3","midi":58,"time":27.03750000000004,"velocity":0.5275590551181102,"duration":0.6229166666666686},{"name":"A#5","midi":82,"time":27.356250000000042,"velocity":0.3937007874015748,"duration":0.32083333333333286},{"name":"C6","midi":84,"time":27.695833333333375,"velocity":0.3937007874015748,"duration":1.9520833333333378},{"name":"A3","midi":57,"time":27.69791666666671,"velocity":0.5275590551181102,"duration":1.9479166666666679},{"name":"F#5","midi":78,"time":28.437500000000043,"velocity":0.3937007874015748,"duration":0.30625000000000213},{"name":"D#5","midi":75,"time":28.439583333333378,"velocity":0.4881889763779528,"duration":0.30208333333333215},{"name":"C#5","midi":73,"time":28.75833333333338,"velocity":0.4881889763779528,"duration":0.28958333333333286},{"name":"F5","midi":77,"time":28.75833333333338,"velocity":0.3937007874015748,"duration":0.29166666666666785},{"name":"C5","midi":72,"time":29.066666666666713,"velocity":0.4881889763779528,"duration":1.9000000000000057},{"name":"D#5","midi":75,"time":29.066666666666713,"velocity":0.4881889763779528,"duration":1.9000000000000057},{"name":"C6","midi":84,"time":29.747916666666715,"velocity":0.3937007874015748,"duration":0.3125},{"name":"A3","midi":57,"time":29.75000000000005,"velocity":0.5275590551181102,"duration":0.310416666666665},{"name":"A#5","midi":82,"time":30.07500000000005,"velocity":0.3937007874015748,"duration":0.29375000000000284},{"name":"A#3","midi":58,"time":30.077083333333384,"velocity":0.5275590551181102,"duration":0.29166666666666785},{"name":"A5","midi":81,"time":30.385416666666718,"velocity":0.3937007874015748,"duration":1.8791666666666664},{"name":"C4","midi":60,"time":30.387500000000053,"velocity":0.5275590551181102,"duration":1.8770833333333314},{"name":"D#5","midi":75,"time":31.06875000000005,"velocity":0.4881889763779528,"duration":0.3000000000000007},{"name":"C5","midi":72,"time":31.070833333333386,"velocity":0.4881889763779528,"duration":0.2979166666666657},{"name":"C#5","midi":73,"time":31.38125000000005,"velocity":0.4881889763779528,"duration":0.2875000000000014},{"name":"A#4","midi":70,"time":31.383333333333386,"velocity":0.4881889763779528,"duration":0.28541666666666643},{"name":"C5","midi":72,"time":31.68541666666672,"velocity":0.4881889763779528,"duration":1.92083333333332},{"name":"A4","midi":69,"time":31.68541666666672,"velocity":0.4881889763779528,"duration":1.9229166666666515},{"name":"A5","midi":81,"time":32.36666666666672,"velocity":0.3937007874015748,"duration":0.3124999999999929},{"name":"C4","midi":60,"time":32.36875000000005,"velocity":0.5275590551181102,"duration":0.30833333333333},{"name":"C6","midi":84,"time":32.695833333333375,"velocity":0.3937007874015748,"duration":0.28958333333333286},{"name":"C#4","midi":61,"time":32.695833333333375,"velocity":0.5275590551181102,"duration":0.28958333333333286},{"name":"F5","midi":77,"time":33.00000000000004,"velocity":0.3937007874015748,"duration":5.852083333333319},{"name":"D#4","midi":63,"time":33.002083333333374,"velocity":0.5275590551181102,"duration":1.9708333333333314},{"name":"A4","midi":69,"time":33.71458333333337,"velocity":0.4881889763779528,"duration":0.32083333333333286},{"name":"F4","midi":65,"time":33.716666666666704,"velocity":0.5275590551181102,"duration":0.3187500000000014},{"name":"A#4","midi":70,"time":34.05000000000004,"velocity":0.4881889763779528,"duration":0.2979166666666657},{"name":"G4","midi":67,"time":34.05208333333337,"velocity":0.5275590551181102,"duration":0.2958333333333343},{"name":"C5","midi":72,"time":34.36250000000004,"velocity":0.4881889763779528,"duration":0.6812499999999986},{"name":"A4","midi":69,"time":34.36458333333337,"velocity":0.4881889763779528,"duration":1.99166666666666},{"name":"C5","midi":72,"time":35.07708333333337,"velocity":0.4881889763779528,"duration":0.3333333333333286},{"name":"D#4","midi":63,"time":35.07708333333337,"velocity":0.5275590551181102,"duration":0.33124999999999716},{"name":"C#5","midi":73,"time":35.42500000000003,"velocity":0.4881889763779528,"duration":0.3062499999999986},{"name":"C#4","midi":61,"time":35.42500000000003,"velocity":0.5275590551181102,"duration":0.3062499999999986},{"name":"D#5","midi":75,"time":35.75000000000003,"velocity":0.4881889763779528,"duration":0.6770833333333357},{"name":"C4","midi":60,"time":35.75000000000003,"velocity":0.5275590551181102,"duration":0.6770833333333357},{"name":"A4","midi":69,"time":36.464583333333366,"velocity":0.4881889763779528,"duration":0.3270833333333343},{"name":"C5","midi":72,"time":36.464583333333366,"velocity":0.4881889763779528,"duration":0.3291666666666657},{"name":"C4","midi":60,"time":36.464583333333366,"velocity":0.5275590551181102,"duration":0.3270833333333343},{"name":"A#4","midi":70,"time":36.808333333333366,"velocity":0.4881889763779528,"duration":0.31041666666666146},{"name":"C#5","midi":73,"time":36.808333333333366,"velocity":0.4881889763779528,"duration":0.31041666666666146},{"name":"A#3","midi":58,"time":36.8104166666667,"velocity":0.5275590551181102,"duration":0.3062499999999986},{"name":"D#5","midi":75,"time":37.13541666666669,"velocity":0.4881889763779528,"duration":1.9895833333333357},{"name":"C5","midi":72,"time":37.137500000000024,"velocity":0.4881889763779528,"duration":0.6791666666666671},{"name":"A3","midi":57,"time":37.137500000000024,"velocity":0.5275590551181102,"duration":0.6770833333333357},{"name":"A4","midi":69,"time":37.85000000000002,"velocity":0.4881889763779528,"duration":0.6354166666666714},{"name":"G3","midi":55,"time":37.85000000000002,"velocity":0.5275590551181102,"duration":0.32500000000000284},{"name":"F3","midi":53,"time":38.19166666666669,"velocity":0.5275590551181102,"duration":0.31041666666666856},{"name":"A#3","midi":58,"time":38.518750000000026,"velocity":0.5275590551181102,"duration":3.25416666666667},{"name":"F4","midi":65,"time":38.518750000000026,"velocity":0.5275590551181102,"duration":1.9604166666666742},{"name":"F5","midi":77,"time":39.23125000000003,"velocity":0.3937007874015748,"duration":0.31458333333333144},{"name":"C#5","midi":73,"time":39.23333333333336,"velocity":0.4881889763779528,"duration":0.31041666666666856},{"name":"D#5","midi":75,"time":39.5604166666667,"velocity":0.4881889763779528,"duration":0.2958333333333343},{"name":"C5","midi":72,"time":39.5604166666667,"velocity":0.4881889763779528,"duration":0.2958333333333343},{"name":"A#4","midi":70,"time":39.8729166666667,"velocity":0.4881889763779528,"duration":0.6770833333333357},{"name":"C#5","midi":73,"time":39.8729166666667,"velocity":0.4881889763779528,"duration":0.6770833333333357},{"name":"D#5","midi":75,"time":40.5854166666667,"velocity":0.4881889763779528,"duration":0.3166666666666629},{"name":"A4","midi":69,"time":40.587500000000034,"velocity":0.4881889763779528,"duration":0.6187499999999986},{"name":"F#4","midi":66,"time":40.587500000000034,"velocity":0.5275590551181102,"duration":0.31458333333333144},{"name":"C5","midi":72,"time":40.91875000000003,"velocity":0.4881889763779528,"duration":0.30416666666666714},{"name":"D#4","midi":63,"time":40.92083333333336,"velocity":0.5275590551181102,"duration":0.3020833333333357},{"name":"A#4","midi":70,"time":41.239583333333364,"velocity":0.4881889763779528,"duration":1.0104166666666643},{"name":"C#5","midi":73,"time":41.239583333333364,"velocity":0.4881889763779528,"duration":0.6770833333333286},{"name":"F4","midi":65,"time":41.241666666666696,"velocity":0.5275590551181102,"duration":1.3125},{"name":"A#4","midi":70,"time":41.95208333333336,"velocity":0.4881889763779528,"duration":0.6333333333333329},{"name":"C#4","midi":61,"time":41.954166666666694,"velocity":0.5275590551181102,"duration":0.3270833333333343},{"name":"C5","midi":72,"time":42.300000000000026,"velocity":0.4881889763779528,"duration":0.30416666666666714},{"name":"C4","midi":60,"time":42.300000000000026,"velocity":0.5275590551181102,"duration":0.3020833333333357},{"name":"C#5","midi":73,"time":42.62083333333336,"velocity":0.4881889763779528,"duration":0.6791666666666671},{"name":"A#3","midi":58,"time":42.62291666666669,"velocity":0.5275590551181102,"duration":0.6770833333333357},{"name":"C#5","midi":73,"time":43.335416666666696,"velocity":0.4881889763779528,"duration":0.6812499999999986},{"name":"A#4","midi":70,"time":43.335416666666696,"velocity":0.4881889763779528,"duration":0.68333333333333},{"name":"G#3","midi":56,"time":43.33750000000003,"velocity":0.5275590551181102,"duration":0.6770833333333357},{"name":"F4","midi":65,"time":43.33750000000003,"velocity":0.5275590551181102,"duration":0.6791666666666671},{"name":"A#4","midi":70,"time":44.050000000000026,"velocity":0.4881889763779528,"duration":0.6812499999999986},{"name":"C#5","midi":73,"time":44.050000000000026,"velocity":0.4881889763779528,"duration":0.6812499999999986},{"name":"G3","midi":55,"time":44.050000000000026,"velocity":0.5275590551181102,"duration":0.6791666666666671},{"name":"D#4","midi":63,"time":44.05208333333336,"velocity":0.5275590551181102,"duration":0.6770833333333357},{"name":"C5","midi":72,"time":44.764583333333356,"velocity":0.4881889763779528,"duration":0.3270833333333272},{"name":"G#4","midi":68,"time":44.76666666666669,"velocity":0.4881889763779528,"duration":0.6229166666666615},{"name":"G#3","midi":56,"time":44.76666666666669,"velocity":0.5275590551181102,"duration":0.32499999999999574},{"name":"D#4","midi":63,"time":44.76875000000002,"velocity":0.5275590551181102,"duration":0.62083333333333},{"name":"A#4","midi":70,"time":45.10625000000002,"velocity":0.4881889763779528,"duration":0.29999999999999716},{"name":"G3","midi":55,"time":45.10833333333335,"velocity":0.5275590551181102,"duration":0.2958333333333343},{"name":"C5","midi":72,"time":45.42083333333335,"velocity":0.4881889763779528,"duration":0.6791666666666671},{"name":"F3","midi":53,"time":45.42083333333335,"velocity":0.5275590551181102,"duration":0.6791666666666671},{"name":"G#4","midi":68,"time":46.135416666666686,"velocity":0.4881889763779528,"duration":0.67916666666666},{"name":"C5","midi":72,"time":46.135416666666686,"velocity":0.4881889763779528,"duration":0.6812499999999915},{"name":"F4","midi":65,"time":46.13750000000002,"velocity":0.5275590551181102,"duration":0.6749999999999972},{"name":"D#3","midi":51,"time":46.13750000000002,"velocity":0.5275590551181102,"duration":0.6770833333333286},{"name":"G#4","midi":68,"time":46.85000000000001,"velocity":0.4881889763779528,"duration":0.67916666666666},{"name":"C5","midi":72,"time":46.85000000000001,"velocity":0.4881889763779528,"duration":0.67916666666666},{"name":"F4","midi":65,"time":46.85208333333334,"velocity":0.5275590551181102,"duration":0.6749999999999972},{"name":"D3","midi":50,"time":46.85208333333334,"velocity":0.5275590551181102,"duration":0.6770833333333286},{"name":"A#4","midi":70,"time":47.56458333333334,"velocity":0.4881889763779528,"duration":0.32083333333333286},{"name":"G3","midi":55,"time":47.56458333333334,"velocity":0.5275590551181102,"duration":0.3187500000000014},{"name":"G4","midi":67,"time":47.56666666666667,"velocity":0.5275590551181102,"duration":0.62916666666667},{"name":"F4","midi":65,"time":47.56666666666667,"velocity":0.5275590551181102,"duration":0.6312500000000014},{"name":"G#4","midi":68,"time":47.900000000000006,"velocity":0.4881889763779528,"duration":0.31458333333333144},{"name":"F3","midi":53,"time":47.900000000000006,"velocity":0.5275590551181102,"duration":0.31458333333333144},{"name":"A#4","midi":70,"time":48.23125,"velocity":0.4881889763779528,"duration":0.6812499999999986},{"name":"E3","midi":52,"time":48.233333333333334,"velocity":0.5275590551181102,"duration":0.6791666666666671},{"name":"A#4","midi":70,"time":48.94583333333333,"velocity":0.4881889763779528,"duration":0.6999999999999957},{"name":"G3","midi":55,"time":48.947916666666664,"velocity":0.5275590551181102,"duration":0.6958333333333329},{"name":"F4","midi":65,"time":48.947916666666664,"velocity":0.5275590551181102,"duration":0.6958333333333329},{"name":"G4","midi":67,"time":48.949999999999996,"velocity":0.5275590551181102,"duration":0.69166666666667},{"name":"A#4","midi":70,"time":49.67708333333333,"velocity":0.4881889763779528,"duration":0.68333333333333},{"name":"G4","midi":67,"time":49.67916666666666,"velocity":0.5275590551181102,"duration":0.6791666666666671},{"name":"E4","midi":64,"time":49.67916666666666,"velocity":0.5275590551181102,"duration":0.6812499999999986},{"name":"C3","midi":48,"time":49.68124999999999,"velocity":0.5275590551181102,"duration":0.6770833333333357},{"name":"G#4","midi":68,"time":50.39166666666666,"velocity":0.4881889763779528,"duration":0.3229166666666643},{"name":"C4","midi":60,"time":50.39374999999999,"velocity":0.5275590551181102,"duration":0.6124999999999972},{"name":"F3","midi":53,"time":50.39374999999999,"velocity":0.5275590551181102,"duration":0.32083333333333286},{"name":"F4","midi":65,"time":50.39583333333332,"velocity":0.5275590551181102,"duration":0.6104166666666657},{"name":"D#3","midi":51,"time":50.73124999999999,"velocity":0.5275590551181102,"duration":0.29374999999999574},{"name":"G4","midi":67,"time":50.73124999999999,"velocity":0.5275590551181102,"duration":0.29374999999999574},{"name":"G#4","midi":68,"time":51.04374999999998,"velocity":0.4881889763779528,"duration":0.6770833333333286},{"name":"C#3","midi":49,"time":51.054166666666646,"velocity":0.5275590551181102,"duration":0.6770833333333286},{"name":"G#4","midi":68,"time":51.75624999999997,"velocity":0.4881889763779528,"duration":0.6812499999999915},{"name":"F4","midi":65,"time":51.758333333333304,"velocity":0.5275590551181102,"duration":0.6770833333333286},{"name":"C4","midi":60,"time":51.758333333333304,"velocity":0.5275590551181102,"duration":0.6770833333333286},{"name":"C3","midi":48,"time":51.760416666666636,"velocity":0.5275590551181102,"duration":0.6499999999999986},{"name":"G#4","midi":68,"time":52.470833333333296,"velocity":0.4881889763779528,"duration":0.6812499999999915},{"name":"F4","midi":65,"time":52.47291666666663,"velocity":0.5275590551181102,"duration":0.6770833333333286},{"name":"C#4","midi":61,"time":52.47291666666663,"velocity":0.5275590551181102,"duration":0.6770833333333286},{"name":"A#2","midi":46,"time":52.47499999999996,"velocity":0.5275590551181102,"duration":0.6749999999999972},{"name":"A#3","midi":58,"time":53.18541666666662,"velocity":0.5275590551181102,"duration":0.6458333333333286},{"name":"G4","midi":67,"time":53.18541666666662,"velocity":0.5275590551181102,"duration":0.3270833333333343},{"name":"C#4","midi":61,"time":53.18749999999995,"velocity":0.5275590551181102,"duration":0.6416666666666657},{"name":"A#2","midi":46,"time":53.18749999999995,"velocity":0.5275590551181102,"duration":0.6416666666666657},{"name":"G#4","midi":68,"time":53.52916666666662,"velocity":0.4881889763779528,"duration":0.3187499999999943},{"name":"A#4","midi":70,"time":53.86458333333328,"velocity":0.4881889763779528,"duration":0.6791666666666671},{"name":"A#2","midi":46,"time":53.86666666666661,"velocity":0.5275590551181102,"duration":0.6770833333333357},{"name":"C#4","midi":61,"time":54.579166666666616,"velocity":0.5275590551181102,"duration":0.67916666666666},{"name":"A#3","midi":58,"time":54.579166666666616,"velocity":0.5275590551181102,"duration":0.6812499999999915},{"name":"G4","midi":67,"time":54.58124999999995,"velocity":0.5275590551181102,"duration":0.6770833333333286},{"name":"A#2","midi":46,"time":54.58124999999995,"velocity":0.5275590551181102,"duration":0.6749999999999972},{"name":"C4","midi":60,"time":55.29374999999994,"velocity":0.5275590551181102,"duration":0.6687499999999957},{"name":"E4","midi":64,"time":55.29374999999994,"velocity":0.5275590551181102,"duration":0.6708333333333272},{"name":"G3","midi":55,"time":55.29583333333327,"velocity":0.5275590551181102,"duration":0.6666666666666643},{"name":"A#2","midi":46,"time":55.29583333333327,"velocity":0.5275590551181102,"duration":0.6645833333333329},{"name":"C5","midi":72,"time":55.995833333333266,"velocity":0.4881889763779528,"duration":1.3104166666666544},{"name":"F4","midi":65,"time":55.995833333333266,"velocity":0.5275590551181102,"duration":0.30416666666666714},{"name":"G#3","midi":56,"time":55.9979166666666,"velocity":0.5275590551181102,"duration":1.308333333333323},{"name":"G#2","midi":44,"time":55.9979166666666,"velocity":0.5275590551181102,"duration":0.6104166666666657},{"name":"E4","midi":64,"time":56.31874999999993,"velocity":0.5275590551181102,"duration":0.30833333333333},{"name":"F4","midi":65,"time":56.64583333333326,"velocity":0.5275590551181102,"duration":0.6958333333333329},{"name":"C#3","midi":49,"time":56.64791666666659,"velocity":0.5275590551181102,"duration":0.6937500000000014},{"name":"A#4","midi":70,"time":57.37708333333326,"velocity":0.4881889763779528,"duration":0.3229166666666643},{"name":"F4","midi":65,"time":57.37916666666659,"velocity":0.5275590551181102,"duration":0.6104166666666657},{"name":"C#3","midi":49,"time":57.37916666666659,"velocity":0.5275590551181102,"duration":0.6124999999999972},{"name":"G3","midi":55,"time":57.38124999999992,"velocity":0.5275590551181102,"duration":0.3187500000000014},{"name":"G#4","midi":68,"time":57.71458333333326,"velocity":0.4881889763779528,"duration":0.29374999999999574},{"name":"F3","midi":53,"time":57.71458333333326,"velocity":0.5275590551181102,"duration":0.29374999999999574},{"name":"A#4","midi":70,"time":58.02499999999992,"velocity":0.4881889763779528,"duration":0.6999999999999957},{"name":"F4","midi":65,"time":58.02708333333325,"velocity":0.5275590551181102,"duration":0.6958333333333329},{"name":"C#3","midi":49,"time":58.02708333333325,"velocity":0.5275590551181102,"duration":0.6979166666666643},{"name":"G3","midi":55,"time":58.02916666666658,"velocity":0.5275590551181102,"duration":0.6937500000000014},{"name":"A#4","midi":70,"time":58.75833333333325,"velocity":0.4881889763779528,"duration":1.4041666666666615},{"name":"E4","midi":64,"time":58.75833333333325,"velocity":0.5275590551181102,"duration":0.33541666666666003},{"name":"G3","midi":55,"time":58.76041666666658,"velocity":0.5275590551181102,"duration":0.6333333333333329},{"name":"C3","midi":48,"time":58.76041666666658,"velocity":0.5275590551181102,"duration":0.33124999999999716},{"name":"D4","midi":62,"time":59.10833333333324,"velocity":0.5275590551181102,"duration":0.30416666666666714},{"name":"A#2","midi":46,"time":59.10833333333324,"velocity":0.5275590551181102,"duration":0.30416666666666714},{"name":"E4","midi":64,"time":59.429166666666575,"velocity":0.5275590551181102,"duration":0.6979166666666643},{"name":"G3","midi":55,"time":59.431249999999906,"velocity":0.5275590551181102,"duration":0.6958333333333329},{"name":"C3","midi":48,"time":59.431249999999906,"velocity":0.5275590551181102,"duration":0.6937500000000014},{"name":"G#4","midi":68,"time":60.16249999999991,"velocity":0.4881889763779528,"duration":0.3583333333333272},{"name":"E4","midi":64,"time":60.16458333333324,"velocity":0.5275590551181102,"duration":0.6437499999999972},{"name":"C4","midi":60,"time":60.16458333333324,"velocity":0.5275590551181102,"duration":0.6458333333333286},{"name":"C3","midi":48,"time":60.16666666666657,"velocity":0.5275590551181102,"duration":0.6416666666666657},{"name":"G4","midi":67,"time":60.493749999999906,"velocity":0.5275590551181102,"duration":0.35624999999998863},{"name":"G#4","midi":68,"time":60.82083333333323,"velocity":0.4881889763779528,"duration":0.6812499999999915},{"name":"C4","midi":60,"time":60.822916666666565,"velocity":0.5275590551181102,"duration":0.6770833333333286},{"name":"E4","midi":64,"time":60.822916666666565,"velocity":0.5275590551181102,"duration":0.67916666666666},{"name":"C3","midi":48,"time":60.824999999999896,"velocity":0.5275590551181102,"duration":0.6749999999999972},{"name":"G#4","midi":68,"time":61.537499999999895,"velocity":0.4881889763779528,"duration":1.2958333333333272},{"name":"F4","midi":65,"time":61.537499999999895,"velocity":0.5275590551181102,"duration":0.30416666666666714},{"name":"C4","midi":60,"time":61.539583333333226,"velocity":0.5275590551181102,"duration":1.2937499999999957},{"name":"F2","midi":41,"time":61.539583333333226,"velocity":0.5275590551181102,"duration":0.6125000000000043},{"name":"D#4","midi":63,"time":61.856249999999896,"velocity":0.5275590551181102,"duration":0.31458333333333144},{"name":"C#4","midi":61,"time":62.189583333333225,"velocity":0.5275590551181102,"duration":0.6812499999999986},{"name":"A#2","midi":46,"time":62.189583333333225,"velocity":0.5275590551181102,"duration":0.6791666666666671},{"name":"F#4","midi":66,"time":62.90208333333322,"velocity":0.5275590551181102,"duration":0.3229166666666643},{"name":"C#4","midi":61,"time":62.904166666666555,"velocity":0.5275590551181102,"duration":0.625},{"name":"A#3","midi":58,"time":62.904166666666555,"velocity":0.5275590551181102,"duration":0.32083333333333286},{"name":"A#2","midi":46,"time":62.906249999999886,"velocity":0.5275590551181102,"duration":0.6229166666666686},{"name":"A3","midi":57,"time":63.24166666666655,"velocity":0.5275590551181102,"duration":0.3062499999999986},{"name":"F4","midi":65,"time":63.24166666666655,"velocity":0.5275590551181102,"duration":0.3062499999999986},{"name":"F#4","midi":66,"time":63.56458333333322,"velocity":0.5275590551181102,"duration":0.6833333333333229},{"name":"A#3","midi":58,"time":63.56666666666655,"velocity":0.5275590551181102,"duration":0.67916666666666},{"name":"C#4","midi":61,"time":63.56666666666655,"velocity":0.5275590551181102,"duration":0.6812499999999915},{"name":"A#2","midi":46,"time":63.56874999999988,"velocity":0.5275590551181102,"duration":0.6770833333333286},{"name":"C#5","midi":73,"time":64.28124999999987,"velocity":0.4881889763779528,"duration":1.308333333333323},{"name":"A#4","midi":70,"time":64.28124999999987,"velocity":0.4881889763779528,"duration":0.33541666666666003},{"name":"F#3","midi":54,"time":64.2833333333332,"velocity":0.5275590551181102,"duration":0.33124999999999716},{"name":"A#2","midi":46,"time":64.2833333333332,"velocity":0.5275590551181102,"duration":0.6291666666666629},{"name":"A4","midi":69,"time":64.63124999999987,"velocity":0.4881889763779528,"duration":0.2979166666666657},{"name":"F3","midi":53,"time":64.63124999999987,"velocity":0.5275590551181102,"duration":0.2979166666666657},{"name":"A#4","midi":70,"time":64.94791666666653,"velocity":0.4881889763779528,"duration":1.2791666666666544},{"name":"F#3","midi":54,"time":64.94791666666653,"velocity":0.5275590551181102,"duration":1.2791666666666544},{"name":"A#2","midi":46,"time":64.94999999999986,"velocity":0.5275590551181102,"duration":0.6749999999999972},{"name":"C5","midi":72,"time":65.66249999999985,"velocity":0.4881889763779528,"duration":0.31041666666666856},{"name":"A#2","midi":46,"time":65.66249999999985,"velocity":0.5275590551181102,"duration":0.59375},{"name":"A#4","midi":70,"time":65.98749999999986,"velocity":0.4881889763779528,"duration":0.28333333333333144},{"name":"E5","midi":76,"time":66.28749999999985,"velocity":0.4251968503937008,"duration":0.6791666666666742},{"name":"G3","midi":55,"time":66.28958333333318,"velocity":0.5275590551181102,"duration":0.6770833333333428},{"name":"A#2","midi":46,"time":66.28958333333318,"velocity":0.5275590551181102,"duration":0.6770833333333428},{"name":"C5","midi":72,"time":66.29999999999986,"velocity":0.3937007874015748,"duration":0.6520833333333371},{"name":"C5","midi":72,"time":67.00208333333319,"velocity":0.4881889763779528,"duration":0.6354166666666572},{"name":"F4","midi":65,"time":67.00208333333319,"velocity":0.5275590551181102,"duration":0.3395833333333229},{"name":"G#3","midi":56,"time":67.00416666666652,"velocity":0.5275590551181102,"duration":0.33541666666666003},{"name":"G#2","midi":44,"time":67.00416666666652,"velocity":0.5275590551181102,"duration":0.6312499999999943},{"name":"G3","midi":55,"time":67.35624999999985,"velocity":0.5275590551181102,"duration":0.29375000000000284},{"name":"G4","midi":67,"time":67.35624999999985,"velocity":0.5275590551181102,"duration":0.29375000000000284},{"name":"F5","midi":77,"time":67.66666666666652,"velocity":0.3937007874015748,"duration":2.5437499999999744},{"name":"G#4","midi":68,"time":67.66666666666652,"velocity":0.4881889763779528,"duration":0.6604166666666629},{"name":"F3","midi":53,"time":67.66874999999985,"velocity":0.5275590551181102,"duration":1.9145833333333115},{"name":"C#3","midi":49,"time":67.66874999999985,"velocity":0.5275590551181102,"duration":0.65625},{"name":"G#4","midi":68,"time":68.36041666666651,"velocity":0.4881889763779528,"duration":0.6187499999999915},{"name":"C5","midi":72,"time":68.36041666666651,"velocity":0.4881889763779528,"duration":0.6187499999999915},{"name":"C3","midi":48,"time":68.36249999999984,"velocity":0.5275590551181102,"duration":0.6145833333333286},{"name":"G#4","midi":68,"time":69.01249999999983,"velocity":0.4881889763779528,"duration":0.6416666666666657},{"name":"C#5","midi":73,"time":69.01249999999983,"velocity":0.4881889763779528,"duration":0.6437499999999972},{"name":"A#2","midi":46,"time":69.01458333333316,"velocity":0.5275590551181102,"duration":0.6395833333333343},{"name":"A#4","midi":70,"time":69.68749999999983,"velocity":0.4881889763779528,"duration":0.6187499999999915},{"name":"G4","midi":67,"time":69.68958333333316,"velocity":0.5275590551181102,"duration":0.3125},{"name":"C#3","midi":49,"time":69.68958333333316,"velocity":0.5275590551181102,"duration":0.61666666666666},{"name":"E3","midi":52,"time":69.69166666666649,"velocity":0.5275590551181102,"duration":0.31041666666666856},{"name":"G#4","midi":68,"time":70.01874999999983,"velocity":0.4881889763779528,"duration":0.30416666666666003},{"name":"F3","midi":53,"time":70.01874999999983,"velocity":0.5275590551181102,"duration":0.30416666666666003},{"name":"E5","midi":76,"time":70.33958333333315,"velocity":0.4881889763779528,"duration":1.3208333333333258},{"name":"A#4","midi":70,"time":70.33958333333315,"velocity":0.4881889763779528,"duration":0.6604166666666629},{"name":"G3","midi":55,"time":70.33958333333315,"velocity":0.5275590551181102,"duration":0.6604166666666629},{"name":"C3","midi":48,"time":70.34166666666648,"velocity":0.5275590551181102,"duration":0.65625},{"name":"C5","midi":72,"time":71.03333333333315,"velocity":0.4881889763779528,"duration":0.6645833333333258},{"name":"A#4","midi":70,"time":71.03333333333315,"velocity":0.4881889763779528,"duration":0.6666666666666572},{"name":"G3","midi":55,"time":71.03541666666648,"velocity":0.5275590551181102,"duration":0.6624999999999943},{"name":"C3","midi":48,"time":71.03541666666648,"velocity":0.5275590551181102,"duration":0.6604166666666629},{"name":"F5","midi":77,"time":71.72916666666647,"velocity":0.3937007874015748,"duration":1.3083333333333087},{"name":"C5","midi":72,"time":71.72916666666647,"velocity":0.4881889763779528,"duration":0.6812499999999915},{"name":"A#4","midi":70,"time":71.7312499999998,"velocity":0.4881889763779528,"duration":0.6770833333333286},{"name":"F3","midi":53,"time":71.7312499999998,"velocity":0.5275590551181102,"duration":1.3041666666666458},{"name":"F2","midi":41,"time":71.73333333333314,"velocity":0.5275590551181102,"duration":1.3020833333333144},{"name":"G#4","midi":68,"time":72.44583333333313,"velocity":0.4881889763779528,"duration":0.3166666666666629},{"name":"C5","midi":72,"time":72.44583333333313,"velocity":0.4881889763779528,"duration":0.3187499999999943},{"name":"A#4","midi":70,"time":72.77916666666646,"velocity":0.4881889763779528,"duration":0.31041666666665435},{"name":"G4","midi":67,"time":72.77916666666646,"velocity":0.5275590551181102,"duration":0.31041666666665435},{"name":"G#4","midi":68,"time":73.10624999999978,"velocity":0.4881889763779528,"duration":1.3166666666666629},{"name":"C5","midi":72,"time":73.1083333333331,"velocity":0.4881889763779528,"duration":1.3125},{"name":"F5","midi":77,"time":73.82083333333311,"velocity":0.3937007874015748,"duration":0.3291666666666657},{"name":"F3","midi":53,"time":73.82291666666644,"velocity":0.5275590551181102,"duration":0.6291666666666629},{"name":"D#5","midi":75,"time":74.16458333333311,"velocity":0.4881889763779528,"duration":0.3062499999999915},{"name":"D5","midi":74,"time":74.4895833333331,"velocity":0.4881889763779528,"duration":1.3250000000000028},{"name":"A#3","midi":58,"time":74.4895833333331,"velocity":0.5275590551181102,"duration":1.3229166666666714},{"name":"G#4","midi":68,"time":75.20416666666644,"velocity":0.4881889763779528,"duration":0.3333333333333286},{"name":"B4","midi":71,"time":75.20416666666644,"velocity":0.4881889763779528,"duration":0.3333333333333286},{"name":"A#4","midi":70,"time":75.55416666666643,"velocity":0.4881889763779528,"duration":0.31041666666666856},{"name":"F#4","midi":66,"time":75.55416666666643,"velocity":0.5275590551181102,"duration":0.3083333333333371},{"name":"G#4","midi":68,"time":75.88124999999977,"velocity":0.4881889763779528,"duration":1.3187500000000085},{"name":"F4","midi":65,"time":75.8833333333331,"velocity":0.5275590551181102,"duration":1.316666666666677},{"name":"D#5","midi":75,"time":76.5958333333331,"velocity":0.4881889763779528,"duration":0.3270833333333343},{"name":"A#3","midi":58,"time":76.59791666666644,"velocity":0.5275590551181102,"duration":0.63333333333334},{"name":"F5","midi":77,"time":76.93749999999977,"velocity":0.3937007874015748,"duration":0.3125},{"name":"F#5","midi":78,"time":77.2645833333331,"velocity":0.3937007874015748,"duration":1.3166666666666629},{"name":"D#3","midi":51,"time":77.2645833333331,"velocity":0.5275590551181102,"duration":1.3145833333333314},{"name":"F#4","midi":66,"time":77.97916666666644,"velocity":0.5275590551181102,"duration":0.3291666666666657},{"name":"D#4","midi":63,"time":77.98124999999978,"velocity":0.5275590551181102,"duration":0.3270833333333343},{"name":"G#4","midi":68,"time":78.32499999999978,"velocity":0.4881889763779528,"duration":0.30416666666666003},{"name":"F4","midi":65,"time":78.32499999999978,"velocity":0.5275590551181102,"duration":0.3020833333333286},{"name":"A#4","midi":70,"time":78.64374999999977,"velocity":0.4881889763779528,"duration":1.3291666666666657},{"name":"F#4","midi":66,"time":78.6458333333331,"velocity":0.5275590551181102,"duration":1.3250000000000028},{"name":"D#5","midi":75,"time":79.3583333333331,"velocity":0.4881889763779528,"duration":0.3333333333333286},{"name":"D#3","midi":51,"time":79.3583333333331,"velocity":0.5275590551181102,"duration":0.6437499999999972},{"name":"C#5","midi":73,"time":79.7083333333331,"velocity":0.4881889763779528,"duration":0.31041666666666856},{"name":"C5","midi":72,"time":80.03541666666644,"velocity":0.4881889763779528,"duration":1.3208333333333258},{"name":"G#3","midi":56,"time":80.03541666666644,"velocity":0.5275590551181102,"duration":1.3208333333333258},{"name":"D#4","midi":63,"time":80.74999999999977,"velocity":0.5275590551181102,"duration":0.3374999999999915},{"name":"C4","midi":60,"time":80.7520833333331,"velocity":0.5275590551181102,"duration":0.3333333333333286},{"name":"F4","midi":65,"time":81.1020833333331,"velocity":0.5275590551181102,"duration":0.3020833333333286},{"name":"C#4","midi":61,"time":81.10416666666643,"velocity":0.5275590551181102,"duration":0.29999999999999716},{"name":"F#4","midi":66,"time":81.42083333333309,"velocity":0.5275590551181102,"duration":1.2937499999999886},{"name":"D#4","midi":63,"time":81.42291666666642,"velocity":0.5275590551181102,"duration":1.2895833333333258},{"name":"C#5","midi":73,"time":82.13124999999975,"velocity":0.4881889763779528,"duration":0.3187499999999943},{"name":"G#3","midi":56,"time":82.13124999999975,"velocity":0.5275590551181102,"duration":0.6124999999999972},{"name":"D#5","midi":75,"time":82.46458333333308,"velocity":0.4881889763779528,"duration":0.29375000000000284},{"name":"F5","midi":77,"time":82.77291666666642,"velocity":0.3937007874015748,"duration":1.3145833333333314},{"name":"C#3","midi":49,"time":82.77499999999975,"velocity":0.5275590551181102,"duration":1.3125},{"name":"G#4","midi":68,"time":83.48749999999976,"velocity":0.4881889763779528,"duration":0.3270833333333343},{"name":"F4","midi":65,"time":83.48958333333309,"velocity":0.5275590551181102,"duration":0.3229166666666714},{"name":"D#4","midi":63,"time":83.83124999999976,"velocity":0.5275590551181102,"duration":0.30416666666666003},{"name":"F#4","midi":66,"time":83.83124999999976,"velocity":0.5275590551181102,"duration":0.30416666666666003},{"name":"C#4","midi":61,"time":84.14999999999975,"velocity":0.5275590551181102,"duration":0.67916666666666},{"name":"F4","midi":65,"time":84.14999999999975,"velocity":0.5275590551181102,"duration":0.67916666666666},{"name":"C#5","midi":73,"time":84.8666666666664,"velocity":0.4881889763779528,"duration":0.32083333333332575},{"name":"F4","midi":65,"time":84.8666666666664,"velocity":0.5275590551181102,"duration":0.6333333333333258},{"name":"C#3","midi":49,"time":84.8666666666664,"velocity":0.5275590551181102,"duration":0.6333333333333258},{"name":"C#4","midi":61,"time":84.86874999999974,"velocity":0.5275590551181102,"duration":0.6312499999999943},{"name":"C5","midi":72,"time":85.20208333333306,"velocity":0.4881889763779528,"duration":0.31458333333333144},{"name":"A#4","midi":70,"time":85.53541666666639,"velocity":0.4881889763779528,"duration":0.6833333333333229},{"name":"F#4","midi":66,"time":85.53749999999972,"velocity":0.5275590551181102,"duration":0.67916666666666},{"name":"F#3","midi":54,"time":85.53749999999972,"velocity":0.5275590551181102,"duration":0.67916666666666},{"name":"C#4","midi":61,"time":85.53958333333306,"velocity":0.5275590551181102,"duration":0.6749999999999972},{"name":"A#4","midi":70,"time":86.24999999999972,"velocity":0.4881889763779528,"duration":0.6812500000000057},{"name":"F#3","midi":54,"time":86.24999999999972,"velocity":0.5275590551181102,"duration":0.3395833333333371},{"name":"C#4","midi":61,"time":86.25208333333305,"velocity":0.5275590551181102,"duration":0.6770833333333428},{"name":"F#4","midi":66,"time":86.25208333333305,"velocity":0.5275590551181102,"duration":0.6770833333333428},{"name":"F3","midi":53,"time":86.60833333333305,"velocity":0.5275590551181102,"duration":0.3395833333333371},{"name":"A#4","midi":70,"time":86.96666666666638,"velocity":0.4881889763779528,"duration":0.6729166666666657},{"name":"F#5","midi":78,"time":86.96666666666638,"velocity":0.3937007874015748,"duration":0.6749999999999972},{"name":"D#4","midi":63,"time":86.96874999999972,"velocity":0.5275590551181102,"duration":0.6687500000000028},{"name":"D#3","midi":51,"time":86.96874999999972,"velocity":0.5275590551181102,"duration":0.6708333333333343},{"name":"A#4","midi":70,"time":87.67083333333305,"velocity":0.4881889763779528,"duration":0.6187499999999915},{"name":"F#5","midi":78,"time":87.67083333333305,"velocity":0.3937007874015748,"duration":0.29999999999999716},{"name":"D#3","midi":51,"time":87.67291666666638,"velocity":0.5275590551181102,"duration":0.6145833333333286},{"name":"D#4","midi":63,"time":87.67291666666638,"velocity":0.5275590551181102,"duration":0.2979166666666657},{"name":"F5","midi":77,"time":87.98749999999971,"velocity":0.3937007874015748,"duration":0.3166666666666629},{"name":"F4","midi":65,"time":87.98958333333304,"velocity":0.5275590551181102,"duration":0.31458333333333144},{"name":"A#4","midi":70,"time":88.32083333333304,"velocity":0.4881889763779528,"duration":0.6666666666666572},{"name":"D#5","midi":75,"time":88.32083333333304,"velocity":0.4881889763779528,"duration":0.6687499999999886},{"name":"F#4","midi":66,"time":88.32291666666637,"velocity":0.5275590551181102,"duration":0.6624999999999943},{"name":"C4","midi":60,"time":88.32291666666637,"velocity":0.5275590551181102,"duration":0.6645833333333258},{"name":"D#5","midi":75,"time":89.02083333333303,"velocity":0.4881889763779528,"duration":0.6104166666666657},{"name":"A4","midi":69,"time":89.02083333333303,"velocity":0.4881889763779528,"duration":0.3125},{"name":"F#4","midi":66,"time":89.02291666666636,"velocity":0.5275590551181102,"duration":0.6062500000000028},{"name":"C4","midi":60,"time":89.02291666666636,"velocity":0.5275590551181102,"duration":0.3083333333333371},{"name":"A#4","midi":70,"time":89.34791666666636,"velocity":0.4881889763779528,"duration":0.29999999999999716},{"name":"A#3","midi":58,"time":89.3499999999997,"velocity":0.5275590551181102,"duration":0.2958333333333343},{"name":"C5","midi":72,"time":89.66458333333303,"velocity":0.4881889763779528,"duration":0.6812499999999915},{"name":"C6","midi":84,"time":89.66458333333303,"velocity":0.3937007874015748,"duration":0.65625},{"name":"F#4","midi":66,"time":89.66666666666636,"velocity":0.5275590551181102,"duration":0.6770833333333286},{"name":"A3","midi":57,"time":89.66666666666636,"velocity":0.5275590551181102,"duration":0.67916666666666},{"name":"C5","midi":72,"time":90.38124999999968,"velocity":0.4881889763779528,"duration":0.6312499999999943},{"name":"C6","midi":84,"time":90.38124999999968,"velocity":0.3937007874015748,"duration":0.32500000000000284},{"name":"A3","midi":57,"time":90.38124999999968,"velocity":0.5275590551181102,"duration":0.6312499999999943},{"name":"F4","midi":65,"time":90.38333333333301,"velocity":0.5275590551181102,"duration":0.6270833333333314},{"name":"A#5","midi":82,"time":90.72291666666635,"velocity":0.3937007874015748,"duration":0.3062499999999915},{"name":"F5","midi":77,"time":91.04791666666634,"velocity":0.3937007874015748,"duration":0.6645833333333258},{"name":"A5","midi":81,"time":91.04791666666634,"velocity":0.3937007874015748,"duration":0.6666666666666572},{"name":"C5","midi":72,"time":91.04999999999967,"velocity":0.4881889763779528,"duration":0.6604166666666629},{"name":"D#4","midi":63,"time":91.04999999999967,"velocity":0.5275590551181102,"duration":0.6604166666666629},{"name":"F5","midi":77,"time":91.74791666666633,"velocity":0.3937007874015748,"duration":0.6624999999999943},{"name":"A5","midi":81,"time":91.74791666666633,"velocity":0.3937007874015748,"duration":0.6624999999999943},{"name":"C5","midi":72,"time":91.74999999999966,"velocity":0.4881889763779528,"duration":0.6583333333333314},{"name":"F4","midi":65,"time":91.74999999999966,"velocity":0.5275590551181102,"duration":0.3291666666666657},{"name":"D#4","midi":63,"time":92.09583333333299,"velocity":0.5275590551181102,"duration":0.33124999999999716},{"name":"A#4","midi":70,"time":92.44374999999965,"velocity":0.4881889763779528,"duration":0.6624999999999943},{"name":"A#5","midi":82,"time":92.44374999999965,"velocity":0.3937007874015748,"duration":0.6645833333333258},{"name":"F5","midi":77,"time":92.44583333333298,"velocity":0.3937007874015748,"duration":0.5916666666666686},{"name":"D4","midi":62,"time":92.44583333333298,"velocity":0.5275590551181102,"duration":0.6729166666666657},{"name":"F5","midi":77,"time":93.14166666666631,"velocity":0.3937007874015748,"duration":0.6270833333333314},{"name":"A#4","midi":70,"time":93.14166666666631,"velocity":0.4881889763779528,"duration":0.6520833333333229},{"name":"A#5","midi":82,"time":93.14374999999964,"velocity":0.3937007874015748,"duration":0.31041666666666856},{"name":"D4","midi":62,"time":93.14374999999964,"velocity":0.5275590551181102,"duration":0.6375000000000028},{"name":"G#5","midi":80,"time":93.47083333333298,"velocity":0.3937007874015748,"duration":0.3166666666666629},{"name":"F5","midi":77,"time":93.80208333333297,"velocity":0.3937007874015748,"duration":0.6833333333333229},{"name":"A#4","midi":70,"time":93.8041666666663,"velocity":0.4881889763779528,"duration":0.67916666666666},{"name":"F#5","midi":78,"time":93.8041666666663,"velocity":0.3937007874015748,"duration":0.67916666666666},{"name":"D#4","midi":63,"time":93.80624999999964,"velocity":0.5275590551181102,"duration":0.6875},{"name":"D#5","midi":75,"time":94.5166666666663,"velocity":0.4881889763779528,"duration":0.6520833333333229},{"name":"A#4","midi":70,"time":94.51874999999963,"velocity":0.4881889763779528,"duration":0.64791666666666},{"name":"F#5","midi":78,"time":94.51874999999963,"velocity":0.3937007874015748,"duration":0.6499999999999915},{"name":"D#4","midi":63,"time":94.52083333333296,"velocity":0.5275590551181102,"duration":0.3291666666666657},{"name":"C#4","midi":61,"time":94.86666666666629,"velocity":0.5275590551181102,"duration":0.3166666666666629},{"name":"F#5","midi":78,"time":95.19999999999962,"velocity":0.3937007874015748,"duration":0.6458333333333286},{"name":"D#5","midi":75,"time":95.19999999999962,"velocity":0.4881889763779528,"duration":0.64791666666666},{"name":"A#4","midi":70,"time":95.20208333333295,"velocity":0.4881889763779528,"duration":0.6437499999999972},{"name":"C4","midi":60,"time":95.20208333333295,"velocity":0.5275590551181102,"duration":0.6520833333333229},{"name":"D#5","midi":75,"time":95.87916666666628,"velocity":0.4881889763779528,"duration":0.6041666666666572},{"name":"A4","midi":69,"time":95.88124999999961,"velocity":0.4881889763779528,"duration":0.3020833333333286},{"name":"F#5","midi":78,"time":95.88124999999961,"velocity":0.3937007874015748,"duration":0.6020833333333258},{"name":"C4","midi":60,"time":95.88333333333294,"velocity":0.5275590551181102,"duration":0.2979166666666657},{"name":"A#4","midi":70,"time":96.19791666666627,"velocity":0.4881889763779528,"duration":0.3020833333333286},{"name":"A#3","midi":58,"time":96.1999999999996,"velocity":0.5275590551181102,"duration":0.29999999999999716},{"name":"D#5","midi":75,"time":96.51666666666627,"velocity":0.4881889763779528,"duration":0.6624999999999943},{"name":"F#5","midi":78,"time":96.51666666666627,"velocity":0.3937007874015748,"duration":0.6645833333333258},{"name":"C5","midi":72,"time":96.5187499999996,"velocity":0.4881889763779528,"duration":0.6604166666666629},{"name":"A3","midi":57,"time":96.5187499999996,"velocity":0.5275590551181102,"duration":0.6583333333333314},{"name":"C#5","midi":73,"time":97.2124999999996,"velocity":0.4881889763779528,"duration":0.31041666666666856},{"name":"F5","midi":77,"time":97.2124999999996,"velocity":0.3937007874015748,"duration":0.61666666666666},{"name":"F4","midi":65,"time":97.21458333333293,"velocity":0.5275590551181102,"duration":0.3083333333333371},{"name":"A3","midi":57,"time":97.21458333333293,"velocity":0.5275590551181102,"duration":0.6124999999999972},{"name":"C5","midi":72,"time":97.5374999999996,"velocity":0.4881889763779528,"duration":0.31041666666665435},{"name":"D#4","midi":63,"time":97.53958333333293,"velocity":0.5275590551181102,"duration":0.3062499999999915},{"name":"A#4","midi":70,"time":97.86458333333292,"velocity":0.4881889763779528,"duration":0.6645833333333258},{"name":"F5","midi":77,"time":97.86458333333292,"velocity":0.3937007874015748,"duration":0.6666666666666572},{"name":"C#4","midi":61,"time":97.86666666666625,"velocity":0.5275590551181102,"duration":0.6604166666666629},{"name":"A#3","midi":58,"time":97.86666666666625,"velocity":0.5275590551181102,"duration":0.6624999999999943},{"name":"A#4","midi":70,"time":98.56249999999957,"velocity":0.4881889763779528,"duration":0.6291666666666629},{"name":"F#5","midi":78,"time":98.56249999999957,"velocity":0.3937007874015748,"duration":0.32083333333332575},{"name":"C#4","midi":61,"time":98.5645833333329,"velocity":0.5275590551181102,"duration":0.625},{"name":"A#3","midi":58,"time":98.5645833333329,"velocity":0.5275590551181102,"duration":0.3166666666666629},{"name":"F5","midi":77,"time":98.89791666666623,"velocity":0.3937007874015748,"duration":0.31041666666666856},{"name":"G#3","midi":56,"time":98.89999999999957,"velocity":0.5275590551181102,"duration":0.3083333333333371},{"name":"A#4","midi":70,"time":99.22499999999957,"velocity":0.4881889763779528,"duration":0.6666666666666572},{"name":"D#5","midi":75,"time":99.22499999999957,"velocity":0.4881889763779528,"duration":0.6687499999999886},{"name":"F#3","midi":54,"time":99.22499999999957,"velocity":0.5275590551181102,"duration":0.6666666666666572},{"name":"C#4","midi":61,"time":99.2270833333329,"velocity":0.5275590551181102,"duration":0.6624999999999943},{"name":"A4","midi":69,"time":99.92499999999956,"velocity":0.4881889763779528,"duration":0.31458333333333144},{"name":"D#5","midi":75,"time":99.92499999999956,"velocity":0.4881889763779528,"duration":0.3166666666666629},{"name":"C4","midi":60,"time":99.92708333333289,"velocity":0.5275590551181102,"duration":0.31041666666666856},{"name":"F#3","midi":54,"time":99.92708333333289,"velocity":0.5275590551181102,"duration":0.3125},{"name":"C#5","midi":73,"time":100.25416666666622,"velocity":0.4881889763779528,"duration":0.3083333333333229},{"name":"A#4","midi":70,"time":100.25624999999955,"velocity":0.4881889763779528,"duration":0.3062499999999915},{"name":"F3","midi":53,"time":100.25624999999955,"velocity":0.5275590551181102,"duration":0.30416666666666003},{"name":"C#4","midi":61,"time":100.25833333333289,"velocity":0.5275590551181102,"duration":0.3020833333333286},{"name":"A#4","midi":70,"time":100.57916666666621,"velocity":0.4881889763779528,"duration":0.6645833333333258},{"name":"C5","midi":72,"time":100.57916666666621,"velocity":0.4881889763779528,"duration":0.6645833333333258},{"name":"D#4","midi":63,"time":100.58124999999954,"velocity":0.5275590551181102,"duration":0.6604166666666629},{"name":"D#3","midi":51,"time":100.58124999999954,"velocity":0.5275590551181102,"duration":0.6604166666666629},{"name":"A4","midi":69,"time":101.27708333333287,"velocity":0.4881889763779528,"duration":0.31458333333333144},{"name":"C5","midi":72,"time":101.27708333333287,"velocity":0.4881889763779528,"duration":0.31458333333333144},{"name":"F4","midi":65,"time":101.2791666666662,"velocity":0.5275590551181102,"duration":0.61666666666666},{"name":"D#3","midi":51,"time":101.2791666666662,"velocity":0.5275590551181102,"duration":0.3125},{"name":"C#5","midi":73,"time":101.60624999999953,"velocity":0.4881889763779528,"duration":0.3062499999999915},{"name":"A#4","midi":70,"time":101.60833333333287,"velocity":0.4881889763779528,"duration":0.30416666666666003},{"name":"C#3","midi":49,"time":101.60833333333287,"velocity":0.5275590551181102,"duration":0.3020833333333286},{"name":"A4","midi":69,"time":101.92916666666619,"velocity":0.4881889763779528,"duration":0.6708333333333343},{"name":"D#5","midi":75,"time":101.92916666666619,"velocity":0.4881889763779528,"duration":0.6708333333333343},{"name":"F#4","midi":66,"time":101.93124999999952,"velocity":0.5275590551181102,"duration":0.6666666666666714},{"name":"C3","midi":48,"time":101.93124999999952,"velocity":0.5275590551181102,"duration":0.6666666666666714},{"name":"C5","midi":72,"time":102.63124999999953,"velocity":0.4881889763779528,"duration":0.3270833333333343},{"name":"A4","midi":69,"time":102.63124999999953,"velocity":0.4881889763779528,"duration":0.3270833333333343},{"name":"F#4","midi":66,"time":102.63333333333286,"velocity":0.5275590551181102,"duration":0.63333333333334},{"name":"C3","midi":48,"time":102.63333333333286,"velocity":0.5275590551181102,"duration":0.3229166666666714},{"name":"C#5","midi":73,"time":102.9729166666662,"velocity":0.4881889763779528,"duration":0.3125},{"name":"A#4","midi":70,"time":102.97499999999953,"velocity":0.4881889763779528,"duration":0.3083333333333371},{"name":"A#2","midi":46,"time":102.97499999999953,"velocity":0.5275590551181102,"duration":0.3083333333333371},{"name":"D#5","midi":75,"time":103.29999999999953,"velocity":0.4881889763779528,"duration":0.6729166666666657},{"name":"C5","midi":72,"time":103.30208333333286,"velocity":0.4881889763779528,"duration":0.6687500000000028},{"name":"F4","midi":65,"time":103.30208333333286,"velocity":0.5275590551181102,"duration":0.6687500000000028},{"name":"A2","midi":45,"time":103.30416666666619,"velocity":0.5275590551181102,"duration":0.66458333333334},{"name":"C#5","midi":73,"time":104.00208333333286,"velocity":0.4881889763779528,"duration":0.32083333333332575},{"name":"A#4","midi":70,"time":104.0041666666662,"velocity":0.4881889763779528,"duration":0.3166666666666629},{"name":"F4","midi":65,"time":104.0041666666662,"velocity":0.5275590551181102,"duration":0.6333333333333258},{"name":"F2","midi":41,"time":104.00624999999953,"velocity":0.5275590551181102,"duration":0.6312499999999943},{"name":"C5","midi":72,"time":104.33749999999952,"velocity":0.4881889763779528,"duration":0.3166666666666629},{"name":"A4","midi":69,"time":104.33749999999952,"velocity":0.4881889763779528,"duration":0.3187499999999943},{"name":"C#5","midi":73,"time":104.67499999999951,"velocity":0.4881889763779528,"duration":3.279166666666626},{"name":"A#4","midi":70,"time":104.67499999999951,"velocity":0.4881889763779528,"duration":1.3249999999999886},{"name":"F4","midi":65,"time":104.67499999999951,"velocity":0.5275590551181102,"duration":1.3249999999999886},{"name":"A#2","midi":46,"time":104.67708333333285,"velocity":0.5275590551181102,"duration":0.6729166666666657},{"name":"A#2","midi":46,"time":105.3874999999995,"velocity":0.5275590551181102,"duration":0.3375000000000057},{"name":"G#2","midi":44,"time":105.74374999999951,"velocity":0.5275590551181102,"duration":0.3062499999999915},{"name":"F#2","midi":42,"time":106.07083333333283,"velocity":0.5275590551181102,"duration":0.6624999999999943},{"name":"A#4","midi":70,"time":106.76874999999949,"velocity":0.4881889763779528,"duration":0.6291666666666629},{"name":"F4","midi":65,"time":106.76874999999949,"velocity":0.5275590551181102,"duration":0.6270833333333314},{"name":"F#2","midi":42,"time":106.77083333333282,"velocity":0.5275590551181102,"duration":0.3187499999999943},{"name":"F2","midi":41,"time":107.10624999999948,"velocity":0.5275590551181102,"duration":0.3083333333333371},{"name":"A#4","midi":70,"time":107.43124999999948,"velocity":0.4881889763779528,"duration":1.3166666666666487},{"name":"F#4","midi":66,"time":107.43333333333281,"velocity":0.5275590551181102,"duration":1.3124999999999858},{"name":"D#2","midi":39,"time":107.43333333333281,"velocity":0.5275590551181102,"duration":0.6604166666666629},{"name":"F#5","midi":78,"time":108.1270833333328,"velocity":0.4251968503937008,"duration":0.3291666666666657},{"name":"D#2","midi":39,"time":108.12916666666614,"velocity":0.5275590551181102,"duration":0.6499999999999915},{"name":"F5","midi":77,"time":108.47291666666614,"velocity":0.4251968503937008,"duration":0.3229166666666572},{"name":"D#5","midi":75,"time":108.81458333333279,"velocity":0.5196850393700787,"duration":0.3375000000000057},{"name":"D#2","midi":39,"time":108.81458333333279,"velocity":0.5275590551181102,"duration":0.6625000000000085},{"name":"C#5","midi":73,"time":109.1708333333328,"velocity":0.5196850393700787,"duration":0.3229166666666714},{"name":"C5","midi":72,"time":109.51249999999946,"velocity":0.5196850393700787,"duration":0.3062499999999915},{"name":"F#4","midi":66,"time":109.5145833333328,"velocity":0.5275590551181102,"duration":0.6062499999999886},{"name":"D#4","midi":63,"time":109.5145833333328,"velocity":0.5275590551181102,"duration":0.30416666666666003},{"name":"D#2","midi":39,"time":109.5145833333328,"velocity":0.5275590551181102,"duration":0.6062499999999886},{"name":"A#4","midi":70,"time":109.83333333333279,"velocity":0.5196850393700787,"duration":0.30416666666666003},{"name":"C#4","midi":61,"time":109.83333333333279,"velocity":0.5275590551181102,"duration":0.30416666666666003},{"name":"A4","midi":69,"time":110.15208333333278,"velocity":0.5196850393700787,"duration":0.6708333333333343},{"name":"F4","midi":65,"time":110.15416666666611,"velocity":0.5275590551181102,"duration":0.9895833333333286},{"name":"C4","midi":60,"time":110.15416666666611,"velocity":0.5275590551181102,"duration":0.6666666666666714},{"name":"F2","midi":41,"time":110.15624999999945,"velocity":0.5275590551181102,"duration":0.66458333333334},{"name":"F4","midi":65,"time":110.85416666666612,"velocity":0.5275590551181102,"duration":0.6374999999999886},{"name":"A3","midi":57,"time":110.85624999999945,"velocity":0.5275590551181102,"duration":0.32083333333332575},{"name":"F3","midi":53,"time":110.85624999999945,"velocity":0.5275590551181102,"duration":0.6354166666666572},{"name":"A#3","midi":58,"time":111.19374999999944,"velocity":0.5275590551181102,"duration":0.31458333333333144},{"name":"G4","midi":67,"time":111.19374999999944,"velocity":0.5275590551181102,"duration":0.3166666666666629},{"name":"A4","midi":69,"time":111.52499999999944,"velocity":0.5196850393700787,"duration":0.6645833333333258},{"name":"C4","midi":60,"time":111.52499999999944,"velocity":0.5275590551181102,"duration":0.6645833333333258},{"name":"F3","midi":53,"time":111.53124999999943,"velocity":0.5275590551181102,"duration":0.6645833333333258},{"name":"A4","midi":69,"time":112.22708333333276,"velocity":0.5196850393700787,"duration":0.6666666666666572},{"name":"F4","midi":65,"time":112.22708333333276,"velocity":0.5275590551181102,"duration":0.6645833333333258},{"name":"C4","midi":60,"time":112.22916666666609,"velocity":0.5275590551181102,"duration":0.6624999999999943},{"name":"F3","midi":53,"time":112.23333333333275,"velocity":0.5275590551181102,"duration":0.6645833333333258},{"name":"D#4","midi":63,"time":112.23958333333275,"velocity":0.5275590551181102,"duration":0.6624999999999943},{"name":"A4","midi":69,"time":112.9249999999994,"velocity":0.5196850393700787,"duration":0.6666666666666572},{"name":"F4","midi":65,"time":112.9249999999994,"velocity":0.5275590551181102,"duration":0.6645833333333258},{"name":"C#4","midi":61,"time":112.92708333333273,"velocity":0.5275590551181102,"duration":1.2437499999999915},{"name":"F3","midi":53,"time":112.92708333333273,"velocity":0.5275590551181102,"duration":0.6624999999999943},{"name":"A#3","midi":58,"time":112.9312499999994,"velocity":0.5275590551181102,"duration":1.245833333333323},{"name":"E4","midi":64,"time":113.62083333333273,"velocity":0.5275590551181102,"duration":0.29999999999999716},{"name":"F3","midi":53,"time":113.62291666666606,"velocity":0.5275590551181102,"duration":0.5791666666666657},{"name":"G4","midi":67,"time":113.62291666666606,"velocity":0.5275590551181102,"duration":0.2958333333333343},{"name":"A4","midi":69,"time":113.93333333333273,"velocity":0.5196850393700787,"duration":0.2874999999999943},{"name":"F4","midi":65,"time":113.93333333333273,"velocity":0.5275590551181102,"duration":0.2854166666666629},{"name":"A#4","midi":70,"time":114.23749999999939,"velocity":0.5196850393700787,"duration":0.64791666666666},{"name":"F3","midi":53,"time":114.24374999999938,"velocity":0.5275590551181102,"duration":0.64791666666666},{"name":"G4","midi":67,"time":114.24999999999937,"velocity":0.5275590551181102,"duration":0.6458333333333286},{"name":"A#4","midi":70,"time":114.91874999999936,"velocity":0.5196850393700787,"duration":0.6437499999999972},{"name":"C#4","midi":61,"time":114.91874999999936,"velocity":0.5275590551181102,"duration":0.6416666666666657},{"name":"E4","midi":64,"time":114.91874999999936,"velocity":0.5275590551181102,"duration":0.6437499999999972},{"name":"F3","midi":53,"time":114.9208333333327,"velocity":0.5275590551181102,"duration":0.6395833333333343},{"name":"G4","midi":67,"time":114.92291666666603,"velocity":0.5275590551181102,"duration":0.6354166666666714},{"name":"A#4","midi":70,"time":115.59374999999936,"velocity":0.5196850393700787,"duration":0.6812499999999915},{"name":"F3","midi":53,"time":115.59583333333269,"velocity":0.5275590551181102,"duration":0.67916666666666},{"name":"G4","midi":67,"time":115.59583333333269,"velocity":0.5275590551181102,"duration":0.67916666666666},{"name":"E4","midi":64,"time":115.59791666666602,"velocity":0.5275590551181102,"duration":0.6749999999999972},{"name":"C4","midi":60,"time":115.59791666666602,"velocity":0.5275590551181102,"duration":0.6749999999999972},{"name":"A4","midi":69,"time":116.30833333333268,"velocity":0.5196850393700787,"duration":0.3229166666666572},{"name":"F4","midi":65,"time":116.30833333333268,"velocity":0.5275590551181102,"duration":0.3229166666666572},{"name":"C4","midi":60,"time":116.31041666666601,"velocity":0.5275590551181102,"duration":0.3187499999999943},{"name":"F3","midi":53,"time":116.31041666666601,"velocity":0.5275590551181102,"duration":0.6312499999999943},{"name":"A#4","midi":70,"time":116.64583333333267,"velocity":0.5196850393700787,"duration":0.3166666666666629},{"name":"C#4","midi":61,"time":116.647916666666,"velocity":0.5275590551181102,"duration":0.3125},{"name":"G4","midi":67,"time":116.647916666666,"velocity":0.5275590551181102,"duration":0.3125},{"name":"A4","midi":69,"time":116.97708333333267,"velocity":0.5196850393700787,"duration":0.6666666666666572},{"name":"C5","midi":72,"time":116.979166666666,"velocity":0.5196850393700787,"duration":0.6624999999999943},{"name":"F3","midi":53,"time":116.979166666666,"velocity":0.5275590551181102,"duration":0.6624999999999943},{"name":"D#4","midi":63,"time":116.98124999999933,"velocity":0.5275590551181102,"duration":0.6583333333333314},{"name":"A4","midi":69,"time":117.67499999999933,"velocity":0.5196850393700787,"duration":0.64791666666666},{"name":"C5","midi":72,"time":117.67499999999933,"velocity":0.5196850393700787,"duration":0.6499999999999915},{"name":"F3","midi":53,"time":117.67499999999933,"velocity":0.5275590551181102,"duration":0.64791666666666},{"name":"F4","midi":65,"time":117.67708333333266,"velocity":0.5275590551181102,"duration":0.6437499999999972},{"name":"D#4","midi":63,"time":117.67708333333266,"velocity":0.5275590551181102,"duration":0.6437499999999972},{"name":"C5","midi":72,"time":118.35624999999932,"velocity":0.5196850393700787,"duration":0.6645833333333258},{"name":"A4","midi":69,"time":118.35624999999932,"velocity":0.5196850393700787,"duration":0.6645833333333258},{"name":"C#4","midi":61,"time":118.35833333333265,"velocity":0.5275590551181102,"duration":0.6604166666666629},{"name":"F3","midi":53,"time":118.35833333333265,"velocity":0.5275590551181102,"duration":0.6604166666666629},{"name":"F4","midi":65,"time":118.36041666666598,"velocity":0.5275590551181102,"duration":1.291666666666643},{"name":"A#4","midi":70,"time":119.05416666666598,"velocity":0.5196850393700787,"duration":0.3229166666666572},{"name":"G4","midi":67,"time":119.05416666666598,"velocity":0.5275590551181102,"duration":0.3229166666666572},{"name":"F3","midi":53,"time":119.05624999999931,"velocity":0.5275590551181102,"duration":0.6312499999999801},{"name":"C#4","midi":61,"time":119.05624999999931,"velocity":0.5275590551181102,"duration":0.3187499999999943},{"name":"C5","midi":72,"time":119.39166666666597,"velocity":0.5196850393700787,"duration":0.31666666666664867},{"name":"A4","midi":69,"time":119.3937499999993,"velocity":0.5196850393700787,"duration":0.3124999999999858},{"name":"C4","midi":60,"time":119.39583333333263,"velocity":0.5275590551181102,"duration":0.31041666666665435},{"name":"C#5","midi":73,"time":119.72499999999928,"velocity":0.5196850393700787,"duration":0.6583333333333314},{"name":"A#4","midi":70,"time":119.72499999999928,"velocity":0.5196850393700787,"duration":0.6604166666666629},{"name":"A#3","midi":58,"time":119.72708333333262,"velocity":0.5275590551181102,"duration":0.6541666666666686},{"name":"F3","midi":53,"time":119.72708333333262,"velocity":0.5275590551181102,"duration":0.65625},{"name":"A#4","midi":70,"time":120.41666666666595,"velocity":0.5196850393700787,"duration":0.6395833333333343},{"name":"C#5","midi":73,"time":120.41874999999928,"velocity":0.5196850393700787,"duration":0.6375000000000028},{"name":"F4","midi":65,"time":120.41874999999928,"velocity":0.5275590551181102,"duration":0.6625000000000085},{"name":"F3","midi":53,"time":120.42083333333261,"velocity":0.5275590551181102,"duration":0.6604166666666771},{"name":"A#3","midi":58,"time":120.42083333333261,"velocity":0.5275590551181102,"duration":0.3125},{"name":"G#3","midi":56,"time":120.74999999999928,"velocity":0.5275590551181102,"duration":0.37083333333335133},{"name":"C#5","midi":73,"time":121.09166666666596,"velocity":0.5196850393700787,"duration":0.6979166666666714},{"name":"A#4","midi":70,"time":121.09166666666596,"velocity":0.5196850393700787,"duration":0.7000000000000028},{"name":"F#3","midi":54,"time":121.09374999999929,"velocity":0.5275590551181102,"duration":0.6937500000000085},{"name":"F3","midi":53,"time":121.09374999999929,"velocity":0.5275590551181102,"duration":0.69583333333334},{"name":"F#4","midi":66,"time":121.09583333333262,"velocity":0.5275590551181102,"duration":0.6916666666666771},{"name":"C5","midi":72,"time":121.82291666666596,"velocity":0.5196850393700787,"duration":0.3374999999999915},{"name":"A4","midi":69,"time":121.82499999999929,"velocity":0.5196850393700787,"duration":0.3333333333333286},{"name":"F#3","midi":54,"time":121.82499999999929,"velocity":0.5275590551181102,"duration":0.33124999999999716},{"name":"D#3","midi":51,"time":121.82499999999929,"velocity":0.5275590551181102,"duration":0.3333333333333286},{"name":"F#4","midi":66,"time":121.82708333333262,"velocity":0.5275590551181102,"duration":0.6333333333333258},{"name":"A#4","midi":70,"time":122.17291666666596,"velocity":0.5196850393700787,"duration":0.3062499999999915},{"name":"C#5","midi":73,"time":122.17499999999929,"velocity":0.5196850393700787,"duration":0.30416666666666003},{"name":"C#3","midi":49,"time":122.17499999999929,"velocity":0.5275590551181102,"duration":0.3020833333333286},{"name":"F3","midi":53,"time":122.17499999999929,"velocity":0.5275590551181102,"duration":0.3020833333333286},{"name":"C5","midi":72,"time":122.49374999999928,"velocity":0.5196850393700787,"duration":0.6979166666666572},{"name":"D#5","midi":75,"time":122.49374999999928,"velocity":0.5196850393700787,"duration":0.6999999999999886},{"name":"A4","midi":69,"time":122.49583333333261,"velocity":0.5196850393700787,"duration":0.6958333333333258},{"name":"D#3","midi":51,"time":122.49583333333261,"velocity":0.5275590551181102,"duration":0.6937499999999943},{"name":"F#4","midi":66,"time":122.49791666666594,"velocity":0.5275590551181102,"duration":0.6895833333333314},{"name":"F#3","midi":54,"time":122.49791666666594,"velocity":0.5275590551181102,"duration":0.6916666666666629},{"name":"C3","midi":48,"time":122.49999999999928,"velocity":0.5275590551181102,"duration":0.6875},{"name":"C5","midi":72,"time":123.22499999999927,"velocity":0.5196850393700787,"duration":0.3333333333333286},{"name":"D#5","midi":75,"time":123.22499999999927,"velocity":0.5196850393700787,"duration":0.33541666666666003},{"name":"A4","midi":69,"time":123.2270833333326,"velocity":0.5196850393700787,"duration":0.6395833333333343},{"name":"D#3","midi":51,"time":123.2270833333326,"velocity":0.5275590551181102,"duration":0.33124999999999716},{"name":"F#4","midi":66,"time":123.22916666666593,"velocity":0.5275590551181102,"duration":0.6354166666666714},{"name":"F#3","midi":54,"time":123.22916666666593,"velocity":0.5275590551181102,"duration":0.6375000000000028},{"name":"C3","midi":48,"time":123.23124999999926,"velocity":0.5275590551181102,"duration":0.32500000000000284},{"name":"F5","midi":77,"time":123.57291666666593,"velocity":0.4251968503937008,"duration":0.3125},{"name":"C#5","midi":73,"time":123.57499999999926,"velocity":0.5196850393700787,"duration":0.31041666666666856},{"name":"C#3","midi":49,"time":123.57499999999926,"velocity":0.5275590551181102,"duration":0.3083333333333371},{"name":"A#2","midi":46,"time":123.57499999999926,"velocity":0.5275590551181102,"duration":0.3083333333333371},{"name":"C5","midi":72,"time":123.90416666666593,"velocity":0.5196850393700787,"duration":1.2208333333333172},{"name":"F#5","midi":78,"time":123.90416666666593,"velocity":0.4251968503937008,"duration":1.2208333333333172},{"name":"D#5","midi":75,"time":123.90416666666593,"velocity":0.5196850393700787,"duration":1.2229166666666487},{"name":"A4","midi":69,"time":123.90624999999926,"velocity":0.5196850393700787,"duration":1.2187499999999858},{"name":"D#3","midi":51,"time":123.90624999999926,"velocity":0.5275590551181102,"duration":1.2166666666666544},{"name":"F#4","midi":66,"time":123.90833333333259,"velocity":0.5275590551181102,"duration":1.2124999999999915},{"name":"F#3","midi":54,"time":123.90833333333259,"velocity":0.5275590551181102,"duration":1.214583333333323},{"name":"C3","midi":48,"time":123.91041666666592,"velocity":0.5275590551181102,"duration":1.2083333333333286},{"name":"A2","midi":45,"time":123.91041666666592,"velocity":0.5275590551181102,"duration":1.21041666666666},{"name":"F5","midi":77,"time":125.28541666666591,"velocity":0.4251968503937008,"duration":0.7604166666666572},{"name":"C5","midi":72,"time":125.28749999999924,"velocity":0.5196850393700787,"duration":0.6937499999999943},{"name":"F4","midi":65,"time":125.28749999999924,"velocity":0.5275590551181102,"duration":0.6916666666666629},{"name":"A3","midi":57,"time":125.28958333333257,"velocity":0.5275590551181102,"duration":0.6895833333333314},{"name":"A#4","midi":70,"time":126.0166666666659,"velocity":0.5196850393700787,"duration":0.6520833333333371},{"name":"C#5","midi":73,"time":126.0166666666659,"velocity":0.5196850393700787,"duration":0.7145833333333371},{"name":"F4","midi":65,"time":126.01874999999923,"velocity":0.5275590551181102,"duration":0.6479166666666742},{"name":"A#3","midi":58,"time":126.01874999999923,"velocity":0.5275590551181102,"duration":0.6479166666666742},{"name":"A#4","midi":70,"time":126.70208333333257,"velocity":0.5196850393700787,"duration":0.6229166666666686},{"name":"D#5","midi":75,"time":126.70208333333257,"velocity":0.5196850393700787,"duration":0.3375000000000057},{"name":"A#3","midi":58,"time":126.7041666666659,"velocity":0.5275590551181102,"duration":0.31041666666666856},{"name":"F#3","midi":54,"time":126.7041666666659,"velocity":0.5275590551181102,"duration":0.31041666666666856},{"name":"C5","midi":72,"time":127.0291666666659,"velocity":0.5196850393700787,"duration":0.31458333333333144},{"name":"D#3","midi":51,"time":127.03124999999923,"velocity":0.5275590551181102,"duration":0.3125},{"name":"F#4","midi":66,"time":127.03124999999923,"velocity":0.5275590551181102,"duration":0.31041666666666856},{"name":"A#4","midi":70,"time":127.3604166666659,"velocity":0.5196850393700787,"duration":0.6770833333333286},{"name":"C#5","midi":73,"time":127.3604166666659,"velocity":0.5196850393700787,"duration":0.6770833333333286},{"name":"F3","midi":53,"time":127.36249999999923,"velocity":0.5275590551181102,"duration":1.9729166666667055},{"name":"F4","midi":65,"time":127.36249999999923,"velocity":0.5275590551181102,"duration":0.6729166666666657},{"name":"A4","midi":69,"time":128.06874999999923,"velocity":0.5196850393700787,"duration":0.6354166666666856},{"name":"C5","midi":72,"time":128.06874999999923,"velocity":0.5196850393700787,"duration":0.3187499999999943},{"name":"D#4","midi":63,"time":128.07083333333256,"velocity":0.5275590551181102,"duration":0.6312500000000227},{"name":"F2","midi":41,"time":128.07083333333256,"velocity":0.5275590551181102,"duration":0.6312500000000227},{"name":"A#4","midi":70,"time":128.4041666666659,"velocity":0.5196850393700787,"duration":0.3166666666666913},{"name":"A#4","midi":70,"time":128.7395833333326,"velocity":0.5196850393700787,"duration":10.279166666666583},{"name":"D4","midi":62,"time":128.7395833333326,"velocity":0.5275590551181102,"duration":0.6666666666666572},{"name":"A#2","midi":46,"time":128.7395833333326,"velocity":0.5275590551181102,"duration":0.6666666666666572},{"name":"F3","midi":53,"time":129.44166666666592,"velocity":0.5275590551181102,"duration":0.32083333333332575},{"name":"F4","midi":65,"time":129.44166666666592,"velocity":0.5275590551181102,"duration":0.32083333333332575},{"name":"D4","midi":62,"time":129.44166666666592,"velocity":0.5275590551181102,"duration":0.3229166666666572},{"name":"A#2","midi":46,"time":129.44374999999926,"velocity":0.5275590551181102,"duration":0.6312499999999659},{"name":"D#3","midi":51,"time":129.7791666666659,"velocity":0.5275590551181102,"duration":0.3124999999999716},{"name":"D#4","midi":63,"time":129.7791666666659,"velocity":0.5275590551181102,"duration":0.3124999999999716},{"name":"F#4","midi":66,"time":129.78124999999923,"velocity":0.5275590551181102,"duration":0.3083333333333087},{"name":"G#4","midi":68,"time":130.10833333333255,"velocity":0.5196850393700787,"duration":0.6666666666666856},{"name":"F4","midi":65,"time":130.11041666666588,"velocity":0.5275590551181102,"duration":0.6625000000000227},{"name":"D3","midi":50,"time":130.11041666666588,"velocity":0.5275590551181102,"duration":0.33125000000001137},{"name":"A#2","midi":46,"time":130.11249999999922,"velocity":0.5275590551181102,"duration":0.6604166666666913},{"name":"C3","midi":48,"time":130.45833333333258,"velocity":0.5275590551181102,"duration":0.3333333333333428},{"name":"G#4","midi":68,"time":130.80624999999924,"velocity":0.5196850393700787,"duration":0.6812500000000057},{"name":"F4","midi":65,"time":130.80833333333257,"velocity":0.5275590551181102,"duration":0.6770833333333428},{"name":"D#3","midi":51,"time":130.80833333333257,"velocity":0.5275590551181102,"duration":0.3375000000000057},{"name":"A#2","midi":46,"time":130.8104166666659,"velocity":0.5275590551181102,"duration":0.6750000000000114},{"name":"D3","midi":50,"time":131.16249999999926,"velocity":0.5275590551181102,"duration":0.3395833333333087},{"name":"G#4","midi":68,"time":131.52083333333258,"velocity":0.5196850393700787,"duration":0.6499999999999773},{"name":"F4","midi":65,"time":131.5229166666659,"velocity":0.5275590551181102,"duration":0.6479166666666458},{"name":"D3","midi":50,"time":131.5229166666659,"velocity":0.5275590551181102,"duration":0.5999999999999943},{"name":"A#2","midi":46,"time":131.52499999999924,"velocity":0.5275590551181102,"duration":0.643749999999983},{"name":"D#3","midi":51,"time":132.20208333333255,"velocity":0.5275590551181102,"duration":0.33541666666667425},{"name":"D#4","midi":63,"time":132.20416666666588,"velocity":0.5275590551181102,"duration":1.5916666666666686},{"name":"F#4","midi":66,"time":132.20416666666588,"velocity":0.5275590551181102,"duration":1.5916666666666686},{"name":"A#2","midi":46,"time":132.20624999999922,"velocity":0.5275590551181102,"duration":0.6437500000000114},{"name":"F3","midi":53,"time":132.56874999999923,"velocity":0.5275590551181102,"duration":0.3062500000000057},{"name":"F#3","midi":54,"time":132.88124999999923,"velocity":0.5275590551181102,"duration":0.9208333333333201},{"name":"A#2","midi":46,"time":132.88124999999923,"velocity":0.5275590551181102,"duration":0.8895833333333201},{"name":"F#3","midi":54,"time":133.82083333333256,"velocity":0.5275590551181102,"duration":0.9312499999999773},{"name":"D4","midi":62,"time":133.82083333333256,"velocity":0.5275590551181102,"duration":0.48333333333332007},{"name":"F4","midi":65,"time":133.82083333333256,"velocity":0.5275590551181102,"duration":0.4854166666666515},{"name":"A#2","midi":46,"time":133.8229166666659,"velocity":0.5275590551181102,"duration":0.8999999999999773},{"name":"D#4","midi":63,"time":134.31666666666587,"velocity":0.5275590551181102,"duration":0.4416666666666629},{"name":"C4","midi":60,"time":134.31666666666587,"velocity":0.5275590551181102,"duration":0.4437499999999943},{"name":"F3","midi":53,"time":134.76666666666586,"velocity":0.5275590551181102,"duration":4.9375},{"name":"D4","midi":62,"time":134.76666666666586,"velocity":0.5275590551181102,"duration":4.939583333333331},{"name":"F4","midi":65,"time":134.7687499999992,"velocity":0.5275590551181102,"duration":4.935416666666669},{"name":"A#2","midi":46,"time":134.7687499999992,"velocity":0.5275590551181102,"duration":4.75},{"name":"A#4","midi":70,"time":141.2312499999992,"velocity":0.4881889763779528,"duration":1.4625000000000057},{"name":"F4","midi":65,"time":142.75208333333254,"velocity":0.5275590551181102,"duration":1.4250000000000114},{"name":"F#5","midi":78,"time":144.52083333333255,"velocity":0.3937007874015748,"duration":0.5250000000000057},{"name":"F5","midi":77,"time":145.0729166666659,"velocity":0.3937007874015748,"duration":0.47708333333332575},{"name":"D#5","midi":75,"time":145.57499999999922,"velocity":0.4881889763779528,"duration":0.46666666666666856},{"name":"C#5","midi":73,"time":146.0666666666659,"velocity":0.4881889763779528,"duration":0.45625000000001137},{"name":"F4","midi":65,"time":146.0666666666659,"velocity":0.5275590551181102,"duration":0.9104166666666913},{"name":"C5","midi":72,"time":146.54583333333258,"velocity":0.4881889763779528,"duration":0.45625000000001137},{"name":"C#5","midi":73,"time":147.02499999999927,"velocity":0.4881889763779528,"duration":0.44999999999998863},{"name":"A#3","midi":58,"time":147.0270833333326,"velocity":0.5275590551181102,"duration":1.07708333333332},{"name":"D#5","midi":75,"time":147.49999999999926,"velocity":0.4881889763779528,"duration":0.4479166666666572},{"name":"F5","midi":77,"time":147.97291666666592,"velocity":0.3937007874015748,"duration":0.4312500000000057},{"name":"C#5","midi":73,"time":148.4270833333326,"velocity":0.4881889763779528,"duration":0.4312500000000057},{"name":"E5","midi":76,"time":148.4270833333326,"velocity":0.4881889763779528,"duration":0.21458333333333712},{"name":"F5","midi":77,"time":148.65416666666593,"velocity":0.3937007874015748,"duration":0.21666666666666856},{"name":"G5","midi":79,"time":148.88124999999926,"velocity":0.3937007874015748,"duration":1.293750000000017},{"name":"C5","midi":72,"time":148.88124999999926,"velocity":0.4881889763779528,"duration":0.4312500000000057},{"name":"A#4","midi":70,"time":149.33749999999927,"velocity":0.4881889763779528,"duration":0.42916666666667425},{"name":"G#4","midi":68,"time":149.79166666666595,"velocity":0.4881889763779528,"duration":0.4291666666666458},{"name":"G#5","midi":80,"time":150.24374999999927,"velocity":0.3937007874015748,"duration":0.21250000000000568},{"name":"G4","midi":67,"time":150.24374999999927,"velocity":0.5275590551181102,"duration":0.4270833333333144},{"name":"G5","midi":79,"time":150.46874999999926,"velocity":0.3937007874015748,"duration":0.2145833333333087},{"name":"F5","midi":77,"time":150.69374999999923,"velocity":0.3937007874015748,"duration":1.2833333333333599},{"name":"G#4","midi":68,"time":150.69374999999923,"velocity":0.4881889763779528,"duration":0.42916666666667425},{"name":"A#4","midi":70,"time":151.14583333333258,"velocity":0.4881889763779528,"duration":0.4270833333333428},{"name":"C5","midi":72,"time":151.59791666666592,"velocity":0.4881889763779528,"duration":1.2708333333333144},{"name":"D#5","midi":75,"time":152.04374999999925,"velocity":0.4881889763779528,"duration":0.21250000000000568},{"name":"C#5","midi":73,"time":152.2666666666659,"velocity":0.4881889763779528,"duration":0.21458333333333712},{"name":"D#5","midi":75,"time":152.4916666666659,"velocity":0.4881889763779528,"duration":0.42083333333332007},{"name":"F5","midi":77,"time":152.93749999999923,"velocity":0.3937007874015748,"duration":0.42083333333332007},{"name":"A#4","midi":70,"time":152.93958333333256,"velocity":0.4881889763779528,"duration":0.2083333333333428},{"name":"A4","midi":69,"time":153.15833333333256,"velocity":0.4881889763779528,"duration":0.21041666666664582},{"name":"F#5","midi":78,"time":153.3812499999992,"velocity":0.3937007874015748,"duration":1.2416666666666742},{"name":"A#4","midi":70,"time":153.3812499999992,"velocity":0.4881889763779528,"duration":0.4124999999999943},{"name":"C5","midi":72,"time":153.81666666666587,"velocity":0.4881889763779528,"duration":0.4124999999999943},{"name":"C#5","midi":73,"time":154.25208333333254,"velocity":0.4881889763779528,"duration":1.2395833333333428},{"name":"F5","midi":77,"time":154.6874999999992,"velocity":0.3937007874015748,"duration":0.2083333333333428},{"name":"D#5","midi":75,"time":154.9062499999992,"velocity":0.4881889763779528,"duration":0.2083333333333428},{"name":"F5","midi":77,"time":155.1249999999992,"velocity":0.3937007874015748,"duration":0.4104166666666629},{"name":"G5","midi":79,"time":155.55833333333254,"velocity":0.3937007874015748,"duration":0.4104166666666629},{"name":"C5","midi":72,"time":155.55833333333254,"velocity":0.4881889763779528,"duration":0.20416666666667993},{"name":"A#4","midi":70,"time":155.7749999999992,"velocity":0.4881889763779528,"duration":0.20208333333332007},{"name":"G#5","midi":80,"time":155.9874999999992,"velocity":0.3937007874015748,"duration":1.231250000000017},{"name":"C5","midi":72,"time":155.98958333333252,"velocity":0.4881889763779528,"duration":0.40833333333333144},{"name":"D5","midi":74,"time":156.42083333333252,"velocity":0.4881889763779528,"duration":0.4104166666666629},{"name":"D#5","midi":75,"time":156.85416666666586,"velocity":0.4881889763779528,"duration":1.2208333333333599},{"name":"G5","midi":79,"time":157.2812499999992,"velocity":0.3937007874015748,"duration":0.20416666666667993},{"name":"F5","midi":77,"time":157.49583333333254,"velocity":0.3937007874015748,"duration":0.20416666666667993},{"name":"G5","midi":79,"time":157.71041666666588,"velocity":0.3937007874015748,"duration":0.4104166666666629},{"name":"A5","midi":81,"time":158.14166666666588,"velocity":0.3937007874015748,"duration":0.4104166666666629},{"name":"C#5","midi":73,"time":158.14166666666588,"velocity":0.4881889763779528,"duration":0.20416666666667993},{"name":"C5","midi":72,"time":158.35624999999922,"velocity":0.4881889763779528,"duration":0.20624999999998295},{"name":"A#5","midi":82,"time":158.57291666666586,"velocity":0.4094488188976378,"duration":1.2062500000000114},{"name":"C#5","midi":73,"time":158.5749999999992,"velocity":0.5039370078740157,"duration":0.4000000000000057},{"name":"A#3","midi":58,"time":158.5749999999992,"velocity":0.5275590551181102,"duration":0.8437500000000284},{"name":"D#5","midi":75,"time":158.99791666666587,"velocity":0.5039370078740157,"duration":0.39791666666667425},{"name":"F5","midi":77,"time":159.42083333333255,"velocity":0.4094488188976378,"duration":1.2124999999999773},{"name":"F3","midi":53,"time":159.42083333333255,"velocity":0.5275590551181102,"duration":0.8499999999999659},{"name":"A5","midi":81,"time":159.8437499999992,"velocity":0.4094488188976378,"duration":0.20208333333332007},{"name":"G5","midi":79,"time":160.05624999999918,"velocity":0.4094488188976378,"duration":0.20416666666667993},{"name":"A5","midi":81,"time":160.27291666666585,"velocity":0.4094488188976378,"duration":0.4020833333333371},{"name":"A#5","midi":82,"time":160.69791666666586,"velocity":0.4094488188976378,"duration":0.39999999999997726},{"name":"D#5","midi":75,"time":160.69791666666586,"velocity":0.5039370078740157,"duration":0.19999999999998863},{"name":"F#4","midi":66,"time":160.6999999999992,"velocity":0.5275590551181102,"duration":0.4187499999999602},{"name":"C#5","midi":73,"time":160.90624999999918,"velocity":0.5039370078740157,"duration":0.20208333333332007},{"name":"C6","midi":84,"time":161.12083333333248,"velocity":0.4094488188976378,"duration":1.2041666666666515},{"name":"D#5","midi":75,"time":161.12083333333248,"velocity":0.5039370078740157,"duration":1.2041666666666515},{"name":"F4","midi":65,"time":161.12291666666582,"velocity":0.5275590551181102,"duration":0.42083333333332007},{"name":"D#4","midi":63,"time":161.54374999999914,"velocity":0.5275590551181102,"duration":0.42500000000001137},{"name":"F3","midi":53,"time":161.97083333333248,"velocity":0.5275590551181102,"duration":0.8374999999999488},{"name":"C#4","midi":61,"time":161.97083333333248,"velocity":0.5275590551181102,"duration":0.4166666666666572},{"name":"A#5","midi":82,"time":162.38749999999914,"velocity":0.4094488188976378,"duration":0.19999999999998863},{"name":"F5","midi":77,"time":162.38958333333247,"velocity":0.4094488188976378,"duration":0.1979166666666572},{"name":"C4","midi":60,"time":162.38958333333247,"velocity":0.5275590551181102,"duration":0.41666666666662877},{"name":"A5","midi":81,"time":162.59791666666578,"velocity":0.4094488188976378,"duration":0.19999999999998863},{"name":"D#5","midi":75,"time":162.59791666666578,"velocity":0.5039370078740157,"duration":0.19999999999998863},{"name":"A#5","midi":82,"time":162.80833333333243,"velocity":0.4094488188976378,"duration":0.4000000000000057},{"name":"C#5","midi":73,"time":162.81041666666576,"velocity":0.5039370078740157,"duration":0.3958333333333428},{"name":"A#3","midi":58,"time":162.81041666666576,"velocity":0.5275590551181102,"duration":0.4166666666666856},{"name":"A#2","midi":46,"time":162.8124999999991,"velocity":0.5275590551181102,"duration":0.8375000000000341},{"name":"C5","midi":72,"time":163.22916666666578,"velocity":0.5196850393700787,"duration":0.39791666666667425},{"name":"G#5","midi":80,"time":163.22916666666578,"velocity":0.4251968503937008,"duration":0.39791666666667425},{"name":"C4","midi":60,"time":163.22916666666578,"velocity":0.5275590551181102,"duration":0.2083333333333428},{"name":"C#4","midi":61,"time":163.43958333333245,"velocity":0.5275590551181102,"duration":0.2083333333333428},{"name":"A#4","midi":70,"time":163.64999999999912,"velocity":0.5196850393700787,"duration":1.1604166666666629},{"name":"F#5","midi":78,"time":163.64999999999912,"velocity":0.4251968503937008,"duration":0.3854166666666572},{"name":"D#4","midi":63,"time":163.65208333333246,"velocity":0.5275590551181102,"duration":0.40416666666666856},{"name":"F5","midi":77,"time":164.05624999999912,"velocity":0.4251968503937008,"duration":0.38749999999998863},{"name":"F4","midi":65,"time":164.05833333333246,"velocity":0.5275590551181102,"duration":0.40625},{"name":"C#4","midi":61,"time":164.05833333333246,"velocity":0.5275590551181102,"duration":0.40625},{"name":"D#5","midi":75,"time":164.4666666666658,"velocity":0.5196850393700787,"duration":1.1604166666666345},{"name":"F#4","midi":66,"time":164.4666666666658,"velocity":0.5275590551181102,"duration":0.8166666666666345},{"name":"C4","midi":60,"time":164.46874999999912,"velocity":0.5275590551181102,"duration":0.40625},{"name":"A4","midi":69,"time":164.87499999999912,"velocity":0.5196850393700787,"duration":0.19166666666666288},{"name":"A#3","midi":58,"time":164.87499999999912,"velocity":0.5275590551181102,"duration":0.4062499999999716},{"name":"A#4","midi":70,"time":165.07708333333244,"velocity":0.5196850393700787,"duration":0.19374999999999432},{"name":"C5","midi":72,"time":165.28333333333242,"velocity":0.5196850393700787,"duration":0.38749999999998863},{"name":"A3","midi":57,"time":165.28541666666575,"velocity":0.5275590551181102,"duration":0.40416666666666856},{"name":"F4","midi":65,"time":165.28541666666575,"velocity":0.5275590551181102,"duration":0.40625},{"name":"F5","midi":77,"time":165.69166666666575,"velocity":0.4251968503937008,"duration":0.19166666666666288},{"name":"A4","midi":69,"time":165.69374999999908,"velocity":0.5196850393700787,"duration":0.38333333333332575},{"name":"D#4","midi":63,"time":165.69374999999908,"velocity":0.5275590551181102,"duration":0.4062499999999716},{"name":"F3","midi":53,"time":165.69583333333242,"velocity":0.5275590551181102,"duration":0.4020833333333087},{"name":"F#5","midi":78,"time":165.89374999999907,"velocity":0.4251968503937008,"duration":0.19374999999999432},{"name":"F5","midi":77,"time":166.09999999999906,"velocity":0.4251968503937008,"duration":0.38749999999998863},{"name":"A#4","midi":70,"time":166.09999999999906,"velocity":0.5196850393700787,"duration":0.3854166666666572},{"name":"G3","midi":55,"time":166.1020833333324,"velocity":0.5275590551181102,"duration":0.40416666666666856},{"name":"C#4","midi":61,"time":166.1020833333324,"velocity":0.5275590551181102,"duration":0.40416666666666856},{"name":"C5","midi":72,"time":166.5083333333324,"velocity":0.5196850393700787,"duration":0.7791666666666686},{"name":"D#5","midi":75,"time":166.5083333333324,"velocity":0.5196850393700787,"duration":0.3854166666666572},{"name":"C4","midi":60,"time":166.51041666666572,"velocity":0.5275590551181102,"duration":0.40416666666666856},{"name":"A3","midi":57,"time":166.51041666666572,"velocity":0.5275590551181102,"duration":0.40416666666666856},{"name":"C#5","midi":73,"time":166.91666666666572,"velocity":0.5196850393700787,"duration":1.5812499999999545},{"name":"C#4","midi":61,"time":166.91666666666572,"velocity":0.5275590551181102,"duration":0.41458333333332575},{"name":"A#3","midi":58,"time":166.91874999999905,"velocity":0.5275590551181102,"duration":0.4104166666666629},{"name":"A#2","midi":46,"time":166.91874999999905,"velocity":0.5275590551181102,"duration":0.8312499999999545},{"name":"A#4","midi":70,"time":167.33124999999905,"velocity":0.5196850393700787,"duration":0.19583333333332575},{"name":"D#4","midi":63,"time":167.33333333333238,"velocity":0.5275590551181102,"duration":0.41666666666662877},{"name":"C3","midi":48,"time":167.33333333333238,"velocity":0.5275590551181102,"duration":0.41458333333329733},{"name":"A4","midi":69,"time":167.53749999999903,"velocity":0.5196850393700787,"duration":0.1979166666666572},{"name":"A#4","midi":70,"time":167.749999999999,"velocity":0.5196850393700787,"duration":1.5562500000000057},{"name":"C#3","midi":49,"time":167.75208333333234,"velocity":0.5275590551181102,"duration":0.4124999999999943},{"name":"F4","midi":65,"time":167.75208333333234,"velocity":0.5275590551181102,"duration":0.41458333333332575},{"name":"F2","midi":41,"time":167.75416666666567,"velocity":0.5275590551181102,"duration":0.8291666666666799},{"name":"F#4","midi":66,"time":168.16666666666566,"velocity":0.5275590551181102,"duration":0.4145833333333542},{"name":"D#3","midi":51,"time":168.16666666666566,"velocity":0.5275590551181102,"duration":0.4145833333333542},{"name":"C5","midi":72,"time":168.58333333333235,"velocity":0.5196850393700787,"duration":1.5291666666666686},{"name":"C4","midi":60,"time":168.58333333333235,"velocity":0.5275590551181102,"duration":0.8041666666666742},{"name":"F3","midi":53,"time":168.58541666666568,"velocity":0.5275590551181102,"duration":0.4000000000000057},{"name":"F#3","midi":54,"time":168.98541666666569,"velocity":0.5275590551181102,"duration":0.4020833333333371},{"name":"G#4","midi":68,"time":169.38958333333235,"velocity":0.5196850393700787,"duration":2.2729166666666742},{"name":"F4","midi":65,"time":169.38958333333235,"velocity":0.5275590551181102,"duration":1.2020833333333485},{"name":"G#3","midi":56,"time":169.39166666666569,"velocity":0.5275590551181102,"duration":0.8020833333333428},{"name":"F3","midi":53,"time":169.39166666666569,"velocity":0.5275590551181102,"duration":0.39791666666667425},{"name":"D#3","midi":51,"time":169.78958333333236,"velocity":0.5275590551181102,"duration":0.40416666666666856},{"name":"A#4","midi":70,"time":170.19583333333236,"velocity":0.5196850393700787,"duration":2.6333333333333258},{"name":"A#3","midi":58,"time":170.19583333333236,"velocity":0.5275590551181102,"duration":3.166666666666657},{"name":"D3","midi":50,"time":170.1979166666657,"velocity":0.5275590551181102,"duration":0.39375000000001137},{"name":"D4","midi":62,"time":170.59374999999903,"velocity":0.5275590551181102,"duration":0.3958333333333144},{"name":"A#2","midi":46,"time":170.59374999999903,"velocity":0.5275590551181102,"duration":0.3958333333333144},{"name":"D#4","midi":63,"time":170.99166666666568,"velocity":0.5275590551181102,"duration":0.39375000000001137},{"name":"C3","midi":48,"time":170.99166666666568,"velocity":0.5275590551181102,"duration":0.39375000000001137},{"name":"F4","midi":65,"time":171.38749999999902,"velocity":0.5275590551181102,"duration":0.7895833333333542},{"name":"D3","midi":50,"time":171.38749999999902,"velocity":0.5275590551181102,"duration":0.3958333333333428},{"name":"F#4","midi":66,"time":171.7854166666657,"velocity":0.5275590551181102,"duration":2.981249999999932},{"name":"D#3","midi":51,"time":171.7854166666657,"velocity":0.5275590551181102,"duration":0.39166666666667993},{"name":"F3","midi":53,"time":172.1791666666657,"velocity":0.5275590551181102,"duration":0.3958333333333144},{"name":"D#4","midi":63,"time":172.1791666666657,"velocity":0.5275590551181102,"duration":0.19583333333332575},{"name":"D4","midi":62,"time":172.37499999999903,"velocity":0.5275590551181102,"duration":0.19999999999998863},{"name":"D#4","midi":63,"time":172.57499999999902,"velocity":0.5275590551181102,"duration":2.3499999999999375},{"name":"D#3","midi":51,"time":172.57499999999902,"velocity":0.5275590551181102,"duration":0.39374999999998295},{"name":"D#5","midi":75,"time":172.968749999999,"velocity":0.5196850393700787,"duration":0.37291666666666856},{"name":"C#3","midi":49,"time":172.968749999999,"velocity":0.5275590551181102,"duration":0.39375000000001137},{"name":"G#4","midi":68,"time":173.36458333333235,"velocity":0.5196850393700787,"duration":2.227083333333269},{"name":"C4","midi":60,"time":173.36458333333235,"velocity":0.5275590551181102,"duration":0.38749999999998863},{"name":"C3","midi":48,"time":173.36666666666568,"velocity":0.5275590551181102,"duration":0.3854166666666572},{"name":"C3","midi":48,"time":173.75416666666567,"velocity":0.5275590551181102,"duration":0.38749999999998863},{"name":"G#2","midi":44,"time":173.75416666666567,"velocity":0.5275590551181102,"duration":0.38958333333332007},{"name":"C#3","midi":49,"time":174.143749999999,"velocity":0.5275590551181102,"duration":0.38958333333332007},{"name":"A#2","midi":46,"time":174.14583333333232,"velocity":0.5275590551181102,"duration":0.3854166666666572},{"name":"D#3","midi":51,"time":174.5333333333323,"velocity":0.5275590551181102,"duration":0.38958333333332007},{"name":"C3","midi":48,"time":174.53541666666564,"velocity":0.5275590551181102,"duration":0.38749999999998863},{"name":"C#4","midi":61,"time":174.92499999999896,"velocity":0.5275590551181102,"duration":0.7874999999999943},{"name":"F4","midi":65,"time":174.92499999999896,"velocity":0.5275590551181102,"duration":0.7458333333333371},{"name":"C#3","midi":49,"time":174.9270833333323,"velocity":0.5275590551181102,"duration":0.7833333333333314},{"name":"F3","midi":53,"time":174.9270833333323,"velocity":0.5275590551181102,"duration":0.38958333333332007},{"name":"D#3","midi":51,"time":175.3166666666656,"velocity":0.5275590551181102,"duration":0.39375000000001137},{"name":"A#4","midi":70,"time":175.71249999999895,"velocity":0.5196850393700787,"duration":0.7416666666666458},{"name":"C#5","midi":73,"time":175.71458333333229,"velocity":0.5196850393700787,"duration":0.7395833333333144},{"name":"F4","midi":65,"time":175.71458333333229,"velocity":0.5275590551181102,"duration":2.3229166666666003},{"name":"F3","midi":53,"time":175.71666666666562,"velocity":0.5275590551181102,"duration":0.3854166666666572},{"name":"A#2","midi":46,"time":175.71666666666562,"velocity":0.5275590551181102,"duration":0.7791666666666401},{"name":"F#3","midi":54,"time":176.10208333333227,"velocity":0.5275590551181102,"duration":0.3916666666666515},{"name":"G#4","midi":68,"time":176.49583333333226,"velocity":0.5196850393700787,"duration":0.7354166666666515},{"name":"C5","midi":72,"time":176.4979166666656,"velocity":0.5196850393700787,"duration":0.7312499999999886},{"name":"G#3","midi":56,"time":176.4979166666656,"velocity":0.5275590551181102,"duration":0.38333333333332575},{"name":"F3","midi":53,"time":176.49999999999892,"velocity":0.5275590551181102,"duration":0.768749999999983},{"name":"A#3","midi":58,"time":176.88333333333225,"velocity":0.5275590551181102,"duration":0.19166666666666288},{"name":"C4","midi":60,"time":177.07708333333224,"velocity":0.5275590551181102,"duration":0.19166666666666288},{"name":"F5","midi":77,"time":177.27083333333223,"velocity":0.4251968503937008,"duration":1.4499999999999886},{"name":"C#5","midi":73,"time":177.27083333333223,"velocity":0.5196850393700787,"duration":1.0895833333333087},{"name":"C#3","midi":49,"time":177.27291666666557,"velocity":0.5275590551181102,"duration":0.7645833333333201},{"name":"A#3","midi":58,"time":177.27291666666557,"velocity":0.5275590551181102,"duration":0.3791666666666629},{"name":"G#3","midi":56,"time":177.65416666666556,"velocity":0.5275590551181102,"duration":0.38333333333332575},{"name":"A#4","midi":70,"time":178.03958333333222,"velocity":0.5196850393700787,"duration":0.3791666666666629},{"name":"F#3","midi":54,"time":178.03958333333222,"velocity":0.5275590551181102,"duration":0.3791666666666629},{"name":"D#3","midi":51,"time":178.04166666666555,"velocity":0.5275590551181102,"duration":0.375},{"name":"G#4","midi":68,"time":178.4208333333322,"velocity":0.5196850393700787,"duration":0.3791666666666913},{"name":"B4","midi":71,"time":178.4208333333322,"velocity":0.5196850393700787,"duration":0.35625000000001705},{"name":"F3","midi":53,"time":178.4208333333322,"velocity":0.5275590551181102,"duration":0.37708333333335986},{"name":"G#3","midi":56,"time":178.42291666666554,"velocity":0.5275590551181102,"duration":0.3750000000000284},{"name":"A#4","midi":70,"time":178.7999999999989,"velocity":0.5196850393700787,"duration":0.71875},{"name":"D#5","midi":75,"time":178.7999999999989,"velocity":0.5196850393700787,"duration":0.35833333333332007},{"name":"F#3","midi":54,"time":178.80208333333223,"velocity":0.5275590551181102,"duration":1.1270833333333599},{"name":"F#4","midi":66,"time":178.80208333333223,"velocity":0.5275590551181102,"duration":0.375},{"name":"A#3","midi":58,"time":178.80416666666557,"velocity":0.5275590551181102,"duration":0.37291666666666856},{"name":"C#5","midi":73,"time":179.17916666666557,"velocity":0.5196850393700787,"duration":0.3583333333333485},{"name":"F4","midi":65,"time":179.17916666666557,"velocity":0.5275590551181102,"duration":0.3791666666666913},{"name":"C4","midi":60,"time":179.1812499999989,"velocity":0.5275590551181102,"duration":0.1875},{"name":"C#4","midi":61,"time":179.3687499999989,"velocity":0.5275590551181102,"duration":0.18750000000002842},{"name":"G#4","midi":68,"time":179.55833333333226,"velocity":0.5196850393700787,"duration":1.7729166666666742},{"name":"C5","midi":72,"time":179.5604166666656,"velocity":0.5196850393700787,"duration":0.7041666666666799},{"name":"G#3","midi":56,"time":179.5604166666656,"velocity":0.5275590551181102,"duration":2.2416666666667027},{"name":"D#4","midi":63,"time":179.56249999999892,"velocity":0.5275590551181102,"duration":0.7416666666666742},{"name":"F3","midi":53,"time":179.9291666666656,"velocity":0.5275590551181102,"duration":0.37291666666666856},{"name":"C#5","midi":73,"time":180.3041666666656,"velocity":0.5196850393700787,"duration":1.42291666666668},{"name":"F4","midi":65,"time":180.30624999999893,"velocity":0.5275590551181102,"duration":0.7416666666666742},{"name":"D#3","midi":51,"time":180.30624999999893,"velocity":0.5275590551181102,"duration":0.3687500000000057},{"name":"C#3","midi":49,"time":180.67499999999893,"velocity":0.5275590551181102,"duration":0.37291666666666856},{"name":"G#3","midi":56,"time":181.04999999999893,"velocity":0.5275590551181102,"duration":2.268750000000068},{"name":"D#4","midi":63,"time":181.04999999999893,"velocity":0.5275590551181102,"duration":1.5083333333333826},{"name":"A#4","midi":70,"time":181.42499999999893,"velocity":0.5196850393700787,"duration":0.3583333333333485},{"name":"C5","midi":72,"time":181.80416666666562,"velocity":0.5196850393700787,"duration":0.7145833333333371},{"name":"G#4","midi":68,"time":181.80416666666562,"velocity":0.5196850393700787,"duration":0.35624999999998863},{"name":"G#2","midi":44,"time":181.80624999999895,"velocity":0.5275590551181102,"duration":0.7500000000000284},{"name":"F#4","midi":66,"time":182.17916666666562,"velocity":0.5275590551181102,"duration":0.36041666666667993},{"name":"C#5","midi":73,"time":182.56041666666565,"velocity":0.5196850393700787,"duration":0.7166666666666686},{"name":"F4","midi":65,"time":182.56041666666565,"velocity":0.5275590551181102,"duration":0.35624999999998863},{"name":"C#4","midi":61,"time":182.56041666666565,"velocity":0.5275590551181102,"duration":0.37708333333333144},{"name":"C#3","midi":49,"time":182.56249999999898,"velocity":0.5275590551181102,"duration":0.7541666666666913},{"name":"D#4","midi":63,"time":182.9395833333323,"velocity":0.5275590551181102,"duration":0.35625000000001705},{"name":"C4","midi":60,"time":182.9395833333323,"velocity":0.5275590551181102,"duration":0.37708333333335986},{"name":"G#4","midi":68,"time":183.318749999999,"velocity":0.5196850393700787,"duration":0.7125000000000057},{"name":"C#4","midi":61,"time":183.32083333333233,"velocity":0.5275590551181102,"duration":0.37291666666666856},{"name":"F4","midi":65,"time":183.32083333333233,"velocity":0.5275590551181102,"duration":0.35208333333332575},{"name":"F#4","midi":66,"time":183.69583333333233,"velocity":0.5275590551181102,"duration":0.35625000000001705},{"name":"D#4","midi":63,"time":183.69583333333233,"velocity":0.5275590551181102,"duration":0.3750000000000284},{"name":"G#4","midi":68,"time":184.07083333333236,"velocity":0.5196850393700787,"duration":0.7145833333333371},{"name":"F4","midi":65,"time":184.0729166666657,"velocity":0.5275590551181102,"duration":0.7520833333333599},{"name":"B5","midi":83,"time":184.4479166666657,"velocity":0.4251968503937008,"duration":0.3583333333333485},{"name":"A#5","midi":82,"time":184.82499999999905,"velocity":0.4251968503937008,"duration":0.3541666666666572},{"name":"F4","midi":65,"time":184.82499999999905,"velocity":0.5275590551181102,"duration":0.7083333333333428},{"name":"D4","midi":62,"time":184.82708333333238,"velocity":0.5275590551181102,"duration":0.7458333333333655},{"name":"G#5","midi":80,"time":185.19791666666572,"velocity":0.4251968503937008,"duration":0.3541666666666856},{"name":"F#5","midi":78,"time":185.57291666666575,"velocity":0.4251968503937008,"duration":0.35208333333332575},{"name":"A#4","midi":70,"time":185.57499999999908,"velocity":0.5196850393700787,"duration":0.700000000000017},{"name":"D#4","midi":63,"time":185.57499999999908,"velocity":0.5275590551181102,"duration":1.1062500000000455},{"name":"F5","midi":77,"time":185.94166666666575,"velocity":0.4251968503937008,"duration":0.3520833333333542},{"name":"F#5","midi":78,"time":186.31249999999912,"velocity":0.4251968503937008,"duration":0.35208333333332575},{"name":"D#4","midi":63,"time":186.31249999999912,"velocity":0.5275590551181102,"duration":0.7041666666666799},{"name":"G#5","midi":80,"time":186.68333333333246,"velocity":0.4251968503937008,"duration":0.35000000000002274},{"name":"F4","midi":65,"time":186.68333333333246,"velocity":0.5275590551181102,"duration":0.37083333333336554},{"name":"A#5","midi":82,"time":187.05416666666582,"velocity":0.4251968503937008,"duration":0.35833333333332007},{"name":"F#4","midi":66,"time":187.05624999999915,"velocity":0.5275590551181102,"duration":0.375},{"name":"F#5","midi":78,"time":187.43124999999915,"velocity":0.4251968503937008,"duration":0.35833333333332007},{"name":"A5","midi":81,"time":187.43124999999915,"velocity":0.4251968503937008,"duration":0.17916666666667425},{"name":"D#4","midi":63,"time":187.43333333333248,"velocity":0.5275590551181102,"duration":0.3749999999999716},{"name":"A#5","midi":82,"time":187.62083333333248,"velocity":0.4251968503937008,"duration":0.17708333333331439},{"name":"C6","midi":84,"time":187.8104166666658,"velocity":0.4251968503937008,"duration":1.0708333333333258},{"name":"F5","midi":77,"time":187.8104166666658,"velocity":0.4251968503937008,"duration":0.35624999999998863},{"name":"A4","midi":69,"time":187.81249999999912,"velocity":0.5196850393700787,"duration":0.375},{"name":"D#5","midi":75,"time":188.18749999999912,"velocity":0.5196850393700787,"duration":0.35624999999998863},{"name":"G4","midi":67,"time":188.18749999999912,"velocity":0.5275590551181102,"duration":0.1875},{"name":"F4","midi":65,"time":188.37499999999912,"velocity":0.5275590551181102,"duration":0.1875},{"name":"C#5","midi":73,"time":188.56458333333245,"velocity":0.5196850393700787,"duration":0.7062500000000114},{"name":"A#4","midi":70,"time":188.56458333333245,"velocity":0.5196850393700787,"duration":0.37291666666666856},{"name":"A#3","midi":58,"time":188.56666666666578,"velocity":0.5275590551181102,"duration":0.7437500000000057},{"name":"A#5","midi":82,"time":188.93749999999912,"velocity":0.4251968503937008,"duration":0.7083333333333428},{"name":"F5","midi":77,"time":188.93958333333245,"velocity":0.4251968503937008,"duration":0.3687500000000057},{"name":"C5","midi":72,"time":189.3104166666658,"velocity":0.5196850393700787,"duration":0.7083333333333428},{"name":"D#5","midi":75,"time":189.31249999999912,"velocity":0.5196850393700787,"duration":0.7437500000000341},{"name":"F3","midi":53,"time":189.31249999999912,"velocity":0.5275590551181102,"duration":0.7416666666667027},{"name":"A5","midi":81,"time":189.68124999999912,"velocity":0.4251968503937008,"duration":0.35625000000001705},{"name":"A#4","midi":70,"time":190.05624999999915,"velocity":0.5196850393700787,"duration":7.199999999999875},{"name":"A#5","midi":82,"time":190.05833333333248,"velocity":0.4251968503937008,"duration":2.091666666666697},{"name":"D5","midi":74,"time":190.05833333333248,"velocity":0.5196850393700787,"duration":0.700000000000017},{"name":"F#4","midi":66,"time":190.42499999999916,"velocity":0.5275590551181102,"duration":0.3708333333333371},{"name":"D#5","midi":75,"time":190.79791666666583,"velocity":0.5196850393700787,"duration":0.6979166666666856},{"name":"F4","midi":65,"time":190.79791666666583,"velocity":0.5275590551181102,"duration":0.3645833333333428},{"name":"D#4","midi":63,"time":191.1645833333325,"velocity":0.5275590551181102,"duration":0.3687500000000057},{"name":"F5","midi":77,"time":191.5333333333325,"velocity":0.4251968503937008,"duration":1.7208333333333314},{"name":"D4","midi":62,"time":191.53541666666584,"velocity":0.5275590551181102,"duration":0.36041666666667993},{"name":"A#3","midi":58,"time":191.89583333333252,"velocity":0.5275590551181102,"duration":0.36249999999998295},{"name":"G#5","midi":80,"time":192.26041666666583,"velocity":0.4251968503937008,"duration":0.6854166666666686},{"name":"C4","midi":60,"time":192.26041666666583,"velocity":0.5275590551181102,"duration":0.36250000000001137},{"name":"D4","midi":62,"time":192.62291666666584,"velocity":0.5275590551181102,"duration":0.35833333333332007},{"name":"F#5","midi":78,"time":192.9833333333325,"velocity":0.4251968503937008,"duration":1.3708333333332803},{"name":"D#4","midi":63,"time":192.9833333333325,"velocity":0.5275590551181102,"duration":0.36041666666667993},{"name":"D#3","midi":51,"time":192.98541666666583,"velocity":0.5275590551181102,"duration":0.720833333333303},{"name":"D#5","midi":75,"time":193.3458333333325,"velocity":0.5196850393700787,"duration":0.16874999999998863},{"name":"F3","midi":53,"time":193.3458333333325,"velocity":0.5275590551181102,"duration":0.3604166666666231},{"name":"D5","midi":74,"time":193.52499999999915,"velocity":0.5196850393700787,"duration":0.17083333333332007},{"name":"D#5","midi":75,"time":193.70833333333246,"velocity":0.5196850393700787,"duration":1.360416666666623},{"name":"F#3","midi":54,"time":193.70833333333246,"velocity":0.5275590551181102,"duration":0.35833333333332007},{"name":"A#2","midi":46,"time":193.7104166666658,"velocity":0.5275590551181102,"duration":0.7166666666666401},{"name":"G#3","midi":56,"time":194.06666666666578,"velocity":0.5275590551181102,"duration":0.35833333333332007},{"name":"F5","midi":77,"time":194.42708333333243,"velocity":0.4251968503937008,"duration":0.6770833333333144},{"name":"A#3","midi":58,"time":194.42916666666576,"velocity":0.5275590551181102,"duration":0.35208333333332575},{"name":"B3","midi":59,"time":194.78333333333242,"velocity":0.5275590551181102,"duration":0.35624999999998863},{"name":"C#5","midi":73,"time":195.14166666666574,"velocity":0.5196850393700787,"duration":1.0083333333332973},{"name":"E5","midi":76,"time":195.14166666666574,"velocity":0.5196850393700787,"duration":0.6770833333333144},{"name":"C#4","midi":61,"time":195.14374999999907,"velocity":0.5275590551181102,"duration":0.7083333333333144},{"name":"A#3","midi":58,"time":195.14374999999907,"velocity":0.5275590551181102,"duration":0.3541666666666572},{"name":"G#3","midi":56,"time":195.49999999999906,"velocity":0.5275590551181102,"duration":0.35208333333332575},{"name":"D#5","midi":75,"time":195.85416666666572,"velocity":0.5196850393700787,"duration":0.5166666666666515},{"name":"D#4","midi":63,"time":195.85416666666572,"velocity":0.5275590551181102,"duration":0.3479166666666629},{"name":"G3","midi":55,"time":195.85624999999905,"velocity":0.5275590551181102,"duration":0.34583333333333144},{"name":"D#5","midi":75,"time":196.2041666666657,"velocity":0.5196850393700787,"duration":0.6854166666666401},{"name":"D#3","midi":51,"time":196.2041666666657,"velocity":0.5275590551181102,"duration":0.35208333333329733},{"name":"G3","midi":55,"time":196.20624999999905,"velocity":0.5275590551181102,"duration":0.3499999999999659},{"name":"E5","midi":76,"time":196.37708333333237,"velocity":0.5196850393700787,"duration":0.16874999999998863},{"name":"D#5","midi":75,"time":196.55833333333234,"velocity":0.5196850393700787,"duration":1.2958333333333485},{"name":"F3","midi":53,"time":196.55833333333234,"velocity":0.5275590551181102,"duration":0.35000000000002274},{"name":"G#3","midi":56,"time":196.56041666666567,"velocity":0.5275590551181102,"duration":0.3479166666666913},{"name":"C#5","midi":73,"time":196.9104166666657,"velocity":0.5196850393700787,"duration":0.32708333333332007},{"name":"G3","midi":55,"time":196.9104166666657,"velocity":0.5275590551181102,"duration":0.34375},{"name":"A#3","midi":58,"time":196.91249999999903,"velocity":0.5275590551181102,"duration":0.34166666666666856},{"name":"G#4","midi":68,"time":197.25833333333236,"velocity":0.5196850393700787,"duration":0.3499999999999943},{"name":"B4","midi":71,"time":197.25833333333236,"velocity":0.5196850393700787,"duration":0.6666666666666572},{"name":"B3","midi":59,"time":197.25833333333236,"velocity":0.5275590551181102,"duration":0.3499999999999943},{"name":"G#3","midi":56,"time":197.2604166666657,"velocity":0.5275590551181102,"duration":0.34583333333333144},{"name":"A#4","midi":70,"time":197.60833333333235,"velocity":0.5196850393700787,"duration":0.35624999999998863},{"name":"F#3","midi":54,"time":197.61041666666569,"velocity":0.5275590551181102,"duration":0.3541666666666572},{"name":"A#3","midi":58,"time":197.61041666666569,"velocity":0.5275590551181102,"duration":0.35208333333332575},{"name":"E5","midi":76,"time":197.96458333333234,"velocity":0.5196850393700787,"duration":0.8416666666666401},{"name":"G#5","midi":80,"time":197.96666666666567,"velocity":0.4251968503937008,"duration":1.333333333333286},{"name":"B4","midi":71,"time":197.968749999999,"velocity":0.5196850393700787,"duration":0.7083333333333144},{"name":"E3","midi":52,"time":197.968749999999,"velocity":0.5275590551181102,"duration":0.3499999999999943},{"name":"G#3","midi":56,"time":197.968749999999,"velocity":0.5275590551181102,"duration":0.35208333333332575},{"name":"D#3","midi":51,"time":198.32083333333233,"velocity":0.5275590551181102,"duration":0.3541666666666572},{"name":"F#3","midi":54,"time":198.32291666666566,"velocity":0.5275590551181102,"duration":0.35208333333332575},{"name":"A#4","midi":70,"time":198.67708333333232,"velocity":0.5196850393700787,"duration":1.393749999999926},{"name":"C#3","midi":49,"time":198.67916666666565,"velocity":0.5275590551181102,"duration":0.345833333333303},{"name":"E3","midi":52,"time":198.67916666666565,"velocity":0.5275590551181102,"duration":0.6937499999999659},{"name":"D#5","midi":75,"time":198.84999999999897,"velocity":0.5196850393700787,"duration":0.1666666666666572},{"name":"C#5","midi":73,"time":199.02499999999895,"velocity":0.5196850393700787,"duration":0.4937500000000057},{"name":"A#2","midi":46,"time":199.02708333333229,"velocity":0.5275590551181102,"duration":0.34375},{"name":"G5","midi":79,"time":199.37291666666562,"velocity":0.4251968503937008,"duration":0.6624999999999659},{"name":"D#3","midi":51,"time":199.37499999999895,"velocity":0.5275590551181102,"duration":1.0395833333332973},{"name":"E5","midi":76,"time":199.5458333333323,"velocity":0.5196850393700787,"duration":0.1666666666666572},{"name":"D#5","midi":75,"time":199.72083333333228,"velocity":0.5196850393700787,"duration":0.1666666666666572},{"name":"D#2","midi":39,"time":199.7229166666656,"velocity":0.5275590551181102,"duration":0.345833333333303},{"name":"C#5","midi":73,"time":199.8979166666656,"velocity":0.5196850393700787,"duration":0.16249999999999432},{"name":"C5","midi":72,"time":200.07083333333225,"velocity":0.5196850393700787,"duration":0.6541666666666686},{"name":"G#5","midi":80,"time":200.07291666666558,"velocity":0.4251968503937008,"duration":0.6500000000000057},{"name":"G#4","midi":68,"time":200.07291666666558,"velocity":0.5196850393700787,"duration":0.6875},{"name":"G#2","midi":44,"time":200.0749999999989,"velocity":0.5275590551181102,"duration":0.6854166666666686},{"name":"G#3","midi":56,"time":200.41666666666558,"velocity":0.5275590551181102,"duration":0.34166666666666856},{"name":"F#3","midi":54,"time":200.7624999999989,"velocity":0.5275590551181102,"duration":0.3395833333333371},{"name":"C#4","midi":61,"time":200.7624999999989,"velocity":0.5275590551181102,"duration":0.6833333333333371},{"name":"A#2","midi":46,"time":200.76458333333224,"velocity":0.5275590551181102,"duration":0.33541666666667425},{"name":"F3","midi":53,"time":201.10208333333225,"velocity":0.5275590551181102,"duration":0.34166666666666856},{"name":"G#2","midi":44,"time":201.10416666666558,"velocity":0.5275590551181102,"duration":0.3395833333333371},{"name":"D#3","midi":51,"time":201.44583333333225,"velocity":0.5275590551181102,"duration":0.3375000000000057},{"name":"F#2","midi":42,"time":201.44791666666558,"velocity":0.5275590551181102,"duration":0.6770833333333428},{"name":"F5","midi":77,"time":201.78541666666558,"velocity":0.4251968503937008,"duration":0.3187499999999943},{"name":"C#3","midi":49,"time":201.78541666666558,"velocity":0.5275590551181102,"duration":0.3375000000000057},{"name":"D#5","midi":75,"time":202.12499999999892,"velocity":0.5196850393700787,"duration":0.3229166666666572},{"name":"F#3","midi":54,"time":202.12499999999892,"velocity":0.5275590551181102,"duration":1.0124999999999886},{"name":"A#3","midi":58,"time":202.12708333333225,"velocity":0.5275590551181102,"duration":0.6770833333333144},{"name":"C#5","midi":73,"time":202.4624999999989,"velocity":0.5196850393700787,"duration":0.3229166666666572},{"name":"C5","midi":72,"time":202.80416666666557,"velocity":0.5196850393700787,"duration":0.31458333333333144},{"name":"G#3","midi":56,"time":202.8062499999989,"velocity":0.5275590551181102,"duration":0.32916666666667993},{"name":"G#4","midi":68,"time":203.1374999999989,"velocity":0.5196850393700787,"duration":0.31458333333333144},{"name":"F3","midi":53,"time":203.13958333333224,"velocity":0.5275590551181102,"duration":0.33125000000001137},{"name":"F#4","midi":66,"time":203.13958333333224,"velocity":0.5275590551181102,"duration":0.33125000000001137},{"name":"A#4","midi":70,"time":203.47291666666558,"velocity":0.5196850393700787,"duration":0.31458333333333144},{"name":"F#3","midi":54,"time":203.47291666666558,"velocity":0.5275590551181102,"duration":0.33125000000001137},{"name":"F4","midi":65,"time":203.47499999999891,"velocity":0.5275590551181102,"duration":0.32916666666667993},{"name":"C5","midi":72,"time":203.80624999999893,"velocity":0.5196850393700787,"duration":0.3187499999999943},{"name":"G#3","midi":56,"time":203.80624999999893,"velocity":0.5275590551181102,"duration":0.3375000000000057},{"name":"D#4","midi":63,"time":203.80833333333226,"velocity":0.5275590551181102,"duration":0.3333333333333428},{"name":"C#5","midi":73,"time":204.14374999999893,"velocity":0.5196850393700787,"duration":1.8416666666666117},{"name":"A#3","midi":58,"time":204.14583333333226,"velocity":0.5275590551181102,"duration":0.6416666666666515},{"name":"C#4","midi":61,"time":204.14583333333226,"velocity":0.5275590551181102,"duration":0.32083333333332575},{"name":"F#4","midi":66,"time":204.4666666666656,"velocity":0.5275590551181102,"duration":0.643749999999983},{"name":"F#3","midi":54,"time":204.78958333333225,"velocity":0.5275590551181102,"duration":0.6458333333333144},{"name":"F4","midi":65,"time":205.11041666666557,"velocity":0.5275590551181102,"duration":0.3229166666666572},{"name":"G#3","midi":56,"time":205.43541666666556,"velocity":0.5275590551181102,"duration":0.3229166666666572},{"name":"D#4","midi":63,"time":205.4374999999989,"velocity":0.5275590551181102,"duration":1.287499999999966},{"name":"A#3","midi":58,"time":205.75833333333222,"velocity":0.5275590551181102,"duration":0.3229166666666572},{"name":"C5","midi":72,"time":206.0833333333322,"velocity":0.5196850393700787,"duration":0.6062499999999886},{"name":"G#3","midi":56,"time":206.0833333333322,"velocity":0.5275590551181102,"duration":0.32083333333332575},{"name":"F#3","midi":54,"time":206.40416666666553,"velocity":0.5275590551181102,"duration":0.3187499999999943},{"name":"C#5","midi":73,"time":206.72499999999886,"velocity":0.5196850393700787,"duration":0.30000000000001137},{"name":"F3","midi":53,"time":206.72499999999886,"velocity":0.5275590551181102,"duration":0.9499999999999886},{"name":"G#3","midi":56,"time":206.72499999999886,"velocity":0.5275590551181102,"duration":0.6333333333333258},{"name":"B4","midi":71,"time":207.0395833333322,"velocity":0.5196850393700787,"duration":0.15208333333333712},{"name":"A#4","midi":70,"time":207.19999999999885,"velocity":0.5196850393700787,"duration":0.15000000000000568},{"name":"C5","midi":72,"time":207.36041666666551,"velocity":0.5196850393700787,"duration":0.8916666666666515},{"name":"G#4","midi":68,"time":207.36041666666551,"velocity":0.5196850393700787,"duration":0.31458333333333144},{"name":"D#3","midi":51,"time":207.67499999999885,"velocity":0.5275590551181102,"duration":0.15625},{"name":"F#4","midi":66,"time":207.67708333333218,"velocity":0.5275590551181102,"duration":0.15416666666666856},{"name":"C#3","midi":49,"time":207.83333333333218,"velocity":0.5275590551181102,"duration":0.15625},{"name":"F4","midi":65,"time":207.83333333333218,"velocity":0.5275590551181102,"duration":0.15625},{"name":"F#4","midi":66,"time":207.9916666666655,"velocity":0.5275590551181102,"duration":0.3083333333333371},{"name":"D#3","midi":51,"time":207.9916666666655,"velocity":0.5275590551181102,"duration":0.3083333333333371},{"name":"A#4","midi":70,"time":208.29999999999885,"velocity":0.5196850393700787,"duration":0.14791666666667425},{"name":"C#4","midi":61,"time":208.30208333333218,"velocity":0.5275590551181102,"duration":0.6166666666666742},{"name":"F3","midi":53,"time":208.30208333333218,"velocity":0.5275590551181102,"duration":0.3062500000000057},{"name":"G#4","midi":68,"time":208.45416666666551,"velocity":0.5196850393700787,"duration":0.1458333333333428},{"name":"A#4","midi":70,"time":208.61041666666551,"velocity":0.5196850393700787,"duration":0.2916666666666572},{"name":"F#3","midi":54,"time":208.61041666666551,"velocity":0.5275590551181102,"duration":0.9270833333333428},{"name":"C5","midi":72,"time":208.92083333333218,"velocity":0.5196850393700787,"duration":0.28958333333332575},{"name":"D#4","midi":63,"time":208.92083333333218,"velocity":0.5275590551181102,"duration":0.3062500000000057},{"name":"C#5","midi":73,"time":209.2270833333322,"velocity":0.5196850393700787,"duration":0.8833333333333258},{"name":"G#3","midi":56,"time":209.22916666666552,"velocity":0.5275590551181102,"duration":0.3083333333333371},{"name":"G#4","midi":68,"time":209.5395833333322,"velocity":0.5196850393700787,"duration":0.15416666666666856},{"name":"F3","midi":53,"time":209.5395833333322,"velocity":0.5275590551181102,"duration":0.15416666666666856},{"name":"D#3","midi":51,"time":209.6958333333322,"velocity":0.5275590551181102,"duration":0.15416666666666856},{"name":"F#4","midi":66,"time":209.6958333333322,"velocity":0.5275590551181102,"duration":0.15416666666666856},{"name":"G#4","midi":68,"time":209.84999999999886,"velocity":0.5196850393700787,"duration":0.31041666666666856},{"name":"F3","midi":53,"time":209.8520833333322,"velocity":0.5275590551181102,"duration":0.3062500000000057},{"name":"C5","midi":72,"time":210.16041666666553,"velocity":0.5196850393700787,"duration":0.1458333333333428},{"name":"D#4","midi":63,"time":210.16249999999886,"velocity":0.5275590551181102,"duration":0.6229166666666686},{"name":"G3","midi":55,"time":210.16249999999886,"velocity":0.5275590551181102,"duration":0.31041666666666856},{"name":"A#4","midi":70,"time":210.3145833333322,"velocity":0.5196850393700787,"duration":0.15000000000000568},{"name":"C5","midi":72,"time":210.47499999999886,"velocity":0.5196850393700787,"duration":0.29374999999998863},{"name":"G#3","midi":56,"time":210.47499999999886,"velocity":0.5275590551181102,"duration":0.9250000000000114},{"name":"D5","midi":74,"time":210.78541666666553,"velocity":0.5196850393700787,"duration":0.2916666666666572},{"name":"F4","midi":65,"time":210.78749999999886,"velocity":0.5275590551181102,"duration":0.3062500000000057},{"name":"D#5","midi":75,"time":211.09374999999886,"velocity":0.5196850393700787,"duration":0.8791666666666629},{"name":"A#3","midi":58,"time":211.0958333333322,"velocity":0.5275590551181102,"duration":0.9250000000000114},{"name":"G3","midi":55,"time":211.39999999999887,"velocity":0.5275590551181102,"duration":0.15416666666666856},{"name":"F3","midi":53,"time":211.55624999999887,"velocity":0.5275590551181102,"duration":0.15416666666666856},{"name":"G3","midi":55,"time":211.71041666666554,"velocity":0.5275590551181102,"duration":0.31041666666666856},{"name":"C#5","midi":73,"time":212.02291666666554,"velocity":0.5196850393700787,"duration":0.14375000000001137},{"name":"F4","midi":65,"time":212.02291666666554,"velocity":0.5275590551181102,"duration":0.6229166666666686},{"name":"A3","midi":57,"time":212.02291666666554,"velocity":0.5275590551181102,"duration":0.3083333333333371},{"name":"C5","midi":72,"time":212.17499999999887,"velocity":0.5196850393700787,"duration":0.14791666666667425},{"name":"C#5","midi":73,"time":212.3333333333322,"velocity":0.5196850393700787,"duration":0.1458333333333428},{"name":"A#3","midi":58,"time":212.3333333333322,"velocity":0.5275590551181102,"duration":0.15416666666666856},{"name":"D#5","midi":75,"time":212.4895833333322,"velocity":0.5196850393700787,"duration":0.1458333333333428},{"name":"C4","midi":60,"time":212.4895833333322,"velocity":0.5275590551181102,"duration":0.15416666666666856},{"name":"C#5","midi":73,"time":212.6458333333322,"velocity":0.5196850393700787,"duration":0.1458333333333428},{"name":"A#3","midi":58,"time":212.64791666666554,"velocity":0.5275590551181102,"duration":0.3083333333333371},{"name":"D#5","midi":75,"time":212.79999999999887,"velocity":0.5196850393700787,"duration":0.14791666666667425},{"name":"C4","midi":60,"time":212.79999999999887,"velocity":0.5275590551181102,"duration":0.15625},{"name":"F5","midi":77,"time":212.9583333333322,"velocity":0.4251968503937008,"duration":0.5770833333333485},{"name":"C#4","midi":61,"time":212.9583333333322,"velocity":0.5275590551181102,"duration":0.15208333333333712},{"name":"C4","midi":60,"time":213.11041666666554,"velocity":0.5275590551181102,"duration":0.15208333333333712},{"name":"C#5","midi":73,"time":213.26249999999888,"velocity":0.5196850393700787,"duration":0.30416666666667425},{"name":"A#3","midi":58,"time":213.2645833333322,"velocity":0.5275590551181102,"duration":0.15000000000000568},{"name":"G#3","midi":56,"time":213.41458333333222,"velocity":0.5275590551181102,"duration":0.15208333333333712},{"name":"D#5","midi":75,"time":213.5687499999989,"velocity":0.5196850393700787,"duration":0.875},{"name":"C5","midi":72,"time":213.5687499999989,"velocity":0.5196850393700787,"duration":0.30416666666667425},{"name":"F#3","midi":54,"time":213.57083333333222,"velocity":0.5275590551181102,"duration":0.15000000000000568},{"name":"F3","midi":53,"time":213.72083333333222,"velocity":0.5275590551181102,"duration":0.15208333333333712},{"name":"A#4","midi":70,"time":213.8749999999989,"velocity":0.5196850393700787,"duration":0.3062500000000057},{"name":"F#3","midi":54,"time":213.8749999999989,"velocity":0.5275590551181102,"duration":0.15000000000000568},{"name":"D#3","midi":51,"time":214.02708333333223,"velocity":0.5275590551181102,"duration":0.15208333333333712},{"name":"A4","midi":69,"time":214.1812499999989,"velocity":0.5196850393700787,"duration":0.15208333333333712},{"name":"F3","midi":53,"time":214.18333333333223,"velocity":0.5275590551181102,"duration":0.6187499999999773},{"name":"A#4","midi":70,"time":214.33541666666557,"velocity":0.5196850393700787,"duration":0.15416666666664014},{"name":"D#5","midi":75,"time":214.49166666666554,"velocity":0.5196850393700787,"duration":0.29374999999998863},{"name":"C5","midi":72,"time":214.49166666666554,"velocity":0.5196850393700787,"duration":0.15416666666666856},{"name":"A4","midi":69,"time":214.64791666666554,"velocity":0.5196850393700787,"duration":0.15416666666666856},{"name":"C#5","midi":73,"time":214.80416666666554,"velocity":0.5196850393700787,"duration":0.2916666666666572},{"name":"F4","midi":65,"time":214.80416666666554,"velocity":0.5275590551181102,"duration":0.3083333333333371},{"name":"A#2","midi":46,"time":214.80624999999887,"velocity":0.5275590551181102,"duration":0.6166666666666458},{"name":"G#4","midi":68,"time":215.11249999999887,"velocity":0.5196850393700787,"duration":0.31041666666664014},{"name":"C5","midi":72,"time":215.1145833333322,"velocity":0.5196850393700787,"duration":0.29374999999998863},{"name":"A#4","midi":70,"time":215.42499999999885,"velocity":0.5196850393700787,"duration":0.14791666666667425},{"name":"F#4","midi":66,"time":215.42499999999885,"velocity":0.5275590551181102,"duration":0.31041666666666856},{"name":"C5","midi":72,"time":215.57916666666551,"velocity":0.5196850393700787,"duration":0.14791666666667425},{"name":"C#5","midi":73,"time":215.73749999999885,"velocity":0.5196850393700787,"duration":0.1458333333333428},{"name":"C#4","midi":61,"time":215.73749999999885,"velocity":0.5275590551181102,"duration":0.31458333333333144},{"name":"F4","midi":65,"time":215.73958333333218,"velocity":0.5275590551181102,"duration":0.3125},{"name":"A#4","midi":70,"time":215.89166666666551,"velocity":0.5196850393700787,"duration":0.15000000000000568},{"name":"G#4","midi":68,"time":216.0541666666655,"velocity":0.44881889763779526,"duration":0.037499999999994316},{"name":"D#4","midi":63,"time":216.0541666666655,"velocity":0.5275590551181102,"duration":0.9729166666665208},{"name":"C4","midi":60,"time":216.05624999999884,"velocity":0.5275590551181102,"duration":0.3312499999999261},{"name":"F#4","midi":66,"time":216.09583333333217,"velocity":0.49606299212598426,"duration":0.039583333333325754},{"name":"G#4","midi":68,"time":216.13749999999882,"velocity":0.44881889763779526,"duration":0.04166666666665719},{"name":"F#4","midi":66,"time":216.1812499999988,"velocity":0.49606299212598426,"duration":0.04166666666665719},{"name":"G#4","midi":68,"time":216.2249999999988,"velocity":0.44881889763779526,"duration":0.039583333333325754},{"name":"F#4","midi":66,"time":216.26666666666546,"velocity":0.49606299212598426,"duration":0.037499999999994316},{"name":"G#4","midi":68,"time":216.30833333333211,"velocity":0.44881889763779526,"duration":0.037499999999994316},{"name":"F#4","midi":66,"time":216.34791666666544,"velocity":0.49606299212598426,"duration":0.037499999999994316},{"name":"G#4","midi":68,"time":216.3895833333321,"velocity":0.44881889763779526,"duration":0.037499999999994316},{"name":"A#3","midi":58,"time":216.3895833333321,"velocity":0.5275590551181102,"duration":0.32291666666660035},{"name":"F#4","midi":66,"time":216.43124999999876,"velocity":0.49606299212598426,"duration":0.037499999999994316},{"name":"G#4","midi":68,"time":216.4729166666654,"velocity":0.44881889763779526,"duration":0.03541666666666288},{"name":"F#4","midi":66,"time":216.51249999999874,"velocity":0.49606299212598426,"duration":0.037499999999994316},{"name":"G#4","midi":68,"time":216.55208333333206,"velocity":0.44881889763779526,"duration":0.037499999999994316},{"name":"F#4","midi":66,"time":216.59374999999872,"velocity":0.49606299212598426,"duration":0.03541666666666288},{"name":"G#4","midi":68,"time":216.63124999999872,"velocity":0.44881889763779526,"duration":0.039583333333325754},{"name":"F#4","midi":66,"time":216.67291666666537,"velocity":0.49606299212598426,"duration":0.03541666666666288},{"name":"F5","midi":77,"time":216.71458333333203,"velocity":0.4251968503937008,"duration":0.59375},{"name":"A3","midi":57,"time":216.71458333333203,"velocity":0.5275590551181102,"duration":0.31041666666666856},{"name":"F4","midi":65,"time":216.71458333333203,"velocity":0.5275590551181102,"duration":0.59375},{"name":"G#3","midi":56,"time":217.02708333333203,"velocity":0.5275590551181102,"duration":0.625},{"name":"D4","midi":62,"time":217.02916666666536,"velocity":0.5275590551181102,"duration":0.15416666666666856},{"name":"C4","midi":60,"time":217.18333333333203,"velocity":0.5275590551181102,"duration":0.15833333333333144},{"name":"A#4","midi":70,"time":217.34166666666536,"velocity":0.5196850393700787,"duration":0.5895833333333371},{"name":"D4","midi":62,"time":217.3437499999987,"velocity":0.5275590551181102,"duration":0.6229166666666686},{"name":"F#3","midi":54,"time":217.65416666666536,"velocity":0.5275590551181102,"duration":0.15416666666666856},{"name":"F3","midi":53,"time":217.81041666666536,"velocity":0.5275590551181102,"duration":0.15416666666666856},{"name":"F#3","midi":54,"time":217.96666666666536,"velocity":0.5275590551181102,"duration":0.31458333333333144},{"name":"D#4","midi":63,"time":217.9687499999987,"velocity":0.5275590551181102,"duration":0.6270833333333314},{"name":"B5","midi":83,"time":218.2812499999987,"velocity":0.4251968503937008,"duration":0.2979166666666515},{"name":"G#3","midi":56,"time":218.28333333333202,"velocity":0.5275590551181102,"duration":0.3125},{"name":"A#5","midi":82,"time":218.59791666666536,"velocity":0.4251968503937008,"duration":0.29583333333332007},{"name":"D4","midi":62,"time":218.59791666666536,"velocity":0.5275590551181102,"duration":0.6270833333332746},{"name":"A#3","midi":58,"time":218.5999999999987,"velocity":0.5275590551181102,"duration":0.6229166666666117},{"name":"G#5","midi":80,"time":218.908333333332,"velocity":0.4251968503937008,"duration":0.29999999999998295},{"name":"F5","midi":77,"time":218.91041666666533,"velocity":0.4251968503937008,"duration":0.29583333333332007},{"name":"D#5","midi":75,"time":219.22499999999863,"velocity":0.5196850393700787,"duration":0.2979166666666515},{"name":"F#5","midi":78,"time":219.22499999999863,"velocity":0.4251968503937008,"duration":0.5979166666666629},{"name":"D#3","midi":51,"time":219.22708333333196,"velocity":0.5275590551181102,"duration":0.6291666666666629},{"name":"D#4","midi":63,"time":219.22708333333196,"velocity":0.5275590551181102,"duration":0.3125},{"name":"A#4","midi":70,"time":219.53958333333196,"velocity":0.5196850393700787,"duration":0.31458333333333144},{"name":"C#5","midi":73,"time":219.5416666666653,"velocity":0.5196850393700787,"duration":0.29791666666667993},{"name":"B4","midi":71,"time":219.85624999999862,"velocity":0.5196850393700787,"duration":0.59375},{"name":"F5","midi":77,"time":219.85833333333196,"velocity":0.4251968503937008,"duration":0.29374999999998863},{"name":"G#4","midi":68,"time":219.85833333333196,"velocity":0.5196850393700787,"duration":0.31041666666666856},{"name":"G#2","midi":44,"time":219.8604166666653,"velocity":0.5275590551181102,"duration":0.935416666666697},{"name":"D#5","midi":75,"time":220.17083333333196,"velocity":0.5196850393700787,"duration":0.2958333333333485},{"name":"F#4","midi":66,"time":220.17083333333196,"velocity":0.5275590551181102,"duration":0.3125000000000284},{"name":"A#4","midi":70,"time":220.48333333333198,"velocity":0.5196850393700787,"duration":2.370833333333337},{"name":"D5","midi":74,"time":220.48541666666532,"velocity":0.5196850393700787,"duration":0.5916666666666686},{"name":"F4","midi":65,"time":220.48541666666532,"velocity":0.5275590551181102,"duration":0.625},{"name":"F3","midi":53,"time":220.48749999999865,"velocity":0.5275590551181102,"duration":0.6229166666666686},{"name":"F#2","midi":42,"time":220.79791666666532,"velocity":0.5275590551181102,"duration":0.31041666666666856},{"name":"D#5","midi":75,"time":221.11249999999865,"velocity":0.5196850393700787,"duration":1.1854166666666686},{"name":"F#4","midi":66,"time":221.11249999999865,"velocity":0.5275590551181102,"duration":0.6291666666666629},{"name":"A#2","midi":46,"time":221.11458333333198,"velocity":0.5275590551181102,"duration":0.625},{"name":"F2","midi":41,"time":221.11458333333198,"velocity":0.5275590551181102,"duration":0.31041666666666856},{"name":"D#2","midi":39,"time":221.42499999999865,"velocity":0.5275590551181102,"duration":0.31458333333333144},{"name":"F4","midi":65,"time":221.7416666666653,"velocity":0.5275590551181102,"duration":1.2395833333333428},{"name":"A#2","midi":46,"time":221.74374999999864,"velocity":0.5275590551181102,"duration":1.2375000000000114},{"name":"B3","midi":59,"time":222.04999999999865,"velocity":0.5275590551181102,"duration":0.31041666666666856},{"name":"D5","midi":74,"time":222.36041666666532,"velocity":0.5196850393700787,"duration":0.5875000000000057},{"name":"A#3","midi":58,"time":222.36249999999865,"velocity":0.5275590551181102,"duration":0.3083333333333371},{"name":"G#3","midi":56,"time":222.67083333333198,"velocity":0.5275590551181102,"duration":0.3083333333333371},{"name":"A#4","midi":70,"time":222.98333333333198,"velocity":0.5196850393700787,"duration":0.5916666666666686},{"name":"D#5","midi":75,"time":222.98333333333198,"velocity":0.5196850393700787,"duration":0.5916666666666686},{"name":"D#3","midi":51,"time":222.98541666666532,"velocity":0.5275590551181102,"duration":0.9354166666666686},{"name":"D#4","midi":63,"time":222.98541666666532,"velocity":0.5275590551181102,"duration":0.6208333333333371},{"name":"F#3","midi":54,"time":222.98541666666532,"velocity":0.5275590551181102,"duration":0.3083333333333371},{"name":"F3","midi":53,"time":223.29583333333198,"velocity":0.5275590551181102,"duration":0.31041666666666856},{"name":"D#4","midi":63,"time":223.60833333333198,"velocity":0.5275590551181102,"duration":0.5958333333333314},{"name":"F#3","midi":54,"time":223.60833333333198,"velocity":0.5275590551181102,"duration":0.3125},{"name":"A#3","midi":58,"time":223.61041666666532,"velocity":0.5275590551181102,"duration":0.6270833333333314},{"name":"G#3","midi":56,"time":223.92291666666532,"velocity":0.5275590551181102,"duration":0.3125},{"name":"F3","midi":53,"time":223.92291666666532,"velocity":0.5275590551181102,"duration":0.31458333333333144},{"name":"F#3","midi":54,"time":224.23958333333198,"velocity":0.5275590551181102,"duration":1.5166666666665947},{"name":"A#3","midi":58,"time":224.23958333333198,"velocity":0.5275590551181102,"duration":0.3020833333333428},{"name":"F5","midi":77,"time":224.54374999999865,"velocity":0.4251968503937008,"duration":0.2874999999999943},{"name":"C#5","midi":73,"time":224.54374999999865,"velocity":0.5196850393700787,"duration":0.2854166666666629},{"name":"C4","midi":60,"time":224.54583333333198,"velocity":0.5275590551181102,"duration":0.14791666666667425},{"name":"C#4","midi":61,"time":224.695833333332,"velocity":0.5275590551181102,"duration":0.14999999999997726},{"name":"D#5","midi":75,"time":224.8479166666653,"velocity":0.5196850393700787,"duration":0.2854166666666629},{"name":"C5","midi":72,"time":224.8479166666653,"velocity":0.5196850393700787,"duration":0.2874999999999943},{"name":"D#4","midi":63,"time":224.84999999999863,"velocity":0.5275590551181102,"duration":0.9062499999999432},{"name":"C#5","midi":73,"time":225.14791666666528,"velocity":0.5196850393700787,"duration":0.2874999999999943},{"name":"A#4","midi":70,"time":225.1499999999986,"velocity":0.5196850393700787,"duration":0.28333333333333144},{"name":"C5","midi":72,"time":225.4499999999986,"velocity":0.5196850393700787,"duration":0.28958333333332575},{"name":"A4","midi":69,"time":225.4499999999986,"velocity":0.5196850393700787,"duration":0.2916666666666572},{"name":"A#4","midi":70,"time":225.7583333333319,"velocity":0.5196850393700787,"duration":0.28958333333332575},{"name":"G4","midi":67,"time":225.7583333333319,"velocity":0.5275590551181102,"duration":0.2874999999999943},{"name":"F3","midi":53,"time":225.76041666666524,"velocity":0.5275590551181102,"duration":0.3020833333333144},{"name":"C#4","midi":61,"time":225.76041666666524,"velocity":0.5275590551181102,"duration":0.3020833333333144},{"name":"C5","midi":72,"time":226.06458333333188,"velocity":0.5196850393700787,"duration":0.28958333333332575},{"name":"A4","midi":69,"time":226.06458333333188,"velocity":0.5196850393700787,"duration":0.28958333333332575},{"name":"C4","midi":60,"time":226.0666666666652,"velocity":0.5275590551181102,"duration":0.30416666666667425},{"name":"D#3","midi":51,"time":226.0666666666652,"velocity":0.5275590551181102,"duration":0.30416666666667425},{"name":"A#4","midi":70,"time":226.37291666666522,"velocity":0.5196850393700787,"duration":0.28958333333332575},{"name":"C#5","midi":73,"time":226.37291666666522,"velocity":0.5196850393700787,"duration":0.28958333333332575},{"name":"C#3","midi":49,"time":226.37499999999855,"velocity":0.5275590551181102,"duration":0.30416666666667425},{"name":"A#3","midi":58,"time":226.37499999999855,"velocity":0.5275590551181102,"duration":0.30416666666667425},{"name":"D#5","midi":75,"time":226.68124999999856,"velocity":0.5196850393700787,"duration":0.28958333333332575},{"name":"C5","midi":72,"time":226.68124999999856,"velocity":0.5196850393700787,"duration":0.28958333333332575},{"name":"A3","midi":57,"time":226.68124999999856,"velocity":0.5275590551181102,"duration":0.612499999999983},{"name":"C3","midi":48,"time":226.6833333333319,"velocity":0.5275590551181102,"duration":0.6104166666666515},{"name":"D#5","midi":75,"time":226.9854166666652,"velocity":0.5196850393700787,"duration":0.28958333333332575},{"name":"F#5","midi":78,"time":226.9854166666652,"velocity":0.4251968503937008,"duration":0.2916666666666572},{"name":"F5","midi":77,"time":227.29583333333187,"velocity":0.4251968503937008,"duration":0.2874999999999943},{"name":"C#5","midi":73,"time":227.29583333333187,"velocity":0.5196850393700787,"duration":0.28958333333332575},{"name":"G#3","midi":56,"time":227.2979166666652,"velocity":0.5275590551181102,"duration":1.2124999999999204},{"name":"F3","midi":53,"time":227.2979166666652,"velocity":0.5275590551181102,"duration":0.6083333333332916},{"name":"D#5","midi":75,"time":227.59999999999852,"velocity":0.5196850393700787,"duration":0.2916666666666572},{"name":"B4","midi":71,"time":227.59999999999852,"velocity":0.5196850393700787,"duration":0.28958333333332575},{"name":"D5","midi":74,"time":227.90833333333183,"velocity":0.5196850393700787,"duration":0.2874999999999943},{"name":"A#4","midi":70,"time":227.90833333333183,"velocity":0.5196850393700787,"duration":0.2874999999999943},{"name":"A#2","midi":46,"time":227.91041666666516,"velocity":0.5275590551181102,"duration":0.5979166666666345},{"name":"F5","midi":77,"time":228.21041666666514,"velocity":0.4251968503937008,"duration":0.2854166666666629},{"name":"D5","midi":74,"time":228.21249999999847,"velocity":0.5196850393700787,"duration":0.28333333333333144},{"name":"C5","midi":72,"time":228.51041666666512,"velocity":0.5196850393700787,"duration":0.2854166666666629},{"name":"D#5","midi":75,"time":228.51249999999845,"velocity":0.5196850393700787,"duration":0.28333333333333144},{"name":"D#3","midi":51,"time":228.51249999999845,"velocity":0.5275590551181102,"duration":0.8999999999999773},{"name":"F#3","midi":54,"time":228.51458333333179,"velocity":0.5275590551181102,"duration":0.8958333333333144},{"name":"C#5","midi":73,"time":228.80833333333177,"velocity":0.5196850393700787,"duration":0.2874999999999943},{"name":"A#4","midi":70,"time":228.8104166666651,"velocity":0.5196850393700787,"duration":0.2854166666666629},{"name":"A4","midi":69,"time":229.1104166666651,"velocity":0.5196850393700787,"duration":0.5687499999999943},{"name":"C5","midi":72,"time":229.11249999999842,"velocity":0.5196850393700787,"duration":0.5666666666666629},{"name":"C#3","midi":49,"time":229.41249999999843,"velocity":0.5275590551181102,"duration":0.2979166666666515},{"name":"F3","midi":53,"time":229.41458333333176,"velocity":0.5275590551181102,"duration":0.29374999999998863},{"name":"C#5","midi":73,"time":229.71041666666508,"velocity":0.5196850393700787,"duration":0.8520833333333258},{"name":"A#4","midi":70,"time":229.7124999999984,"velocity":0.5196850393700787,"duration":0.5645833333333314},{"name":"D#3","midi":51,"time":229.7124999999984,"velocity":0.5275590551181102,"duration":0.29583333333332007},{"name":"C3","midi":48,"time":229.71458333333175,"velocity":0.5275590551181102,"duration":0.2916666666666572},{"name":"C#3","midi":49,"time":230.00833333333173,"velocity":0.5275590551181102,"duration":0.30000000000001137},{"name":"A#2","midi":46,"time":230.01041666666507,"velocity":0.5275590551181102,"duration":0.2958333333333485},{"name":"D#4","midi":63,"time":230.30833333333175,"velocity":0.5275590551181102,"duration":0.5708333333333258},{"name":"A#3","midi":58,"time":230.31041666666508,"velocity":0.5275590551181102,"duration":0.8979166666666742},{"name":"F#3","midi":54,"time":230.31041666666508,"velocity":0.5275590551181102,"duration":0.5999999999999943},{"name":"C5","midi":72,"time":230.60833333333173,"velocity":0.5196850393700787,"duration":0.5708333333333542},{"name":"G3","midi":55,"time":230.91041666666507,"velocity":0.5275590551181102,"duration":0.5979166666666629},{"name":"E4","midi":64,"time":230.91041666666507,"velocity":0.5275590551181102,"duration":0.5666666666666913},{"name":"A#4","midi":70,"time":231.21041666666508,"velocity":0.5196850393700787,"duration":0.28125},{"name":"C4","midi":60,"time":231.21041666666508,"velocity":0.5275590551181102,"duration":0.29583333333332007},{"name":"A4","midi":69,"time":231.51041666666507,"velocity":0.5196850393700787,"duration":0.2750000000000057},{"name":"F3","midi":53,"time":231.51041666666507,"velocity":0.5275590551181102,"duration":1.7687499999999545},{"name":"F4","midi":65,"time":231.51041666666507,"velocity":0.5275590551181102,"duration":0.27291666666667425},{"name":"C#4","midi":61,"time":231.5124999999984,"velocity":0.5275590551181102,"duration":0.2874999999999943},{"name":"F#5","midi":78,"time":231.7999999999984,"velocity":0.4251968503937008,"duration":0.27916666666666856},{"name":"A4","midi":69,"time":231.80208333333172,"velocity":0.5196850393700787,"duration":0.2770833333333371},{"name":"C4","midi":60,"time":231.80208333333172,"velocity":0.5275590551181102,"duration":0.29375000000001705},{"name":"F5","midi":77,"time":232.09791666666507,"velocity":0.4251968503937008,"duration":0.28333333333333144},{"name":"A#4","midi":70,"time":232.09791666666507,"velocity":0.5196850393700787,"duration":0.28333333333333144},{"name":"C#4","midi":61,"time":232.0999999999984,"velocity":0.5275590551181102,"duration":0.29583333333332007},{"name":"D#5","midi":75,"time":232.39791666666505,"velocity":0.5196850393700787,"duration":0.27916666666666856},{"name":"C5","midi":72,"time":232.39791666666505,"velocity":0.5196850393700787,"duration":0.5604166666666401},{"name":"D#4","midi":63,"time":232.39999999999839,"velocity":0.5275590551181102,"duration":0.2916666666666572},{"name":"C#5","midi":73,"time":232.69374999999837,"velocity":0.5196850393700787,"duration":0.5562499999999773},{"name":"F4","midi":65,"time":232.69374999999837,"velocity":0.5275590551181102,"duration":1.7333333333332632},{"name":"A#4","midi":70,"time":232.98749999999836,"velocity":0.5196850393700787,"duration":0.5562499999999773},{"name":"C5","midi":72,"time":233.28124999999835,"velocity":0.5196850393700787,"duration":0.549999999999983},{"name":"F2","midi":41,"time":233.28124999999835,"velocity":0.5275590551181102,"duration":0.5791666666666231},{"name":"A4","midi":69,"time":233.572916666665,"velocity":0.5196850393700787,"duration":0.2729166666666458},{"name":"A#4","midi":70,"time":233.86041666666497,"velocity":0.5196850393700787,"duration":1.07708333333332},{"name":"F#2","midi":42,"time":233.8624999999983,"velocity":0.5275590551181102,"duration":1.4166666666666288},{"name":"G#4","midi":68,"time":234.1437499999983,"velocity":0.5196850393700787,"duration":0.2708333333333428},{"name":"F#4","midi":66,"time":234.42916666666497,"velocity":0.5275590551181102,"duration":0.26875000000001137},{"name":"D#4","midi":63,"time":234.42916666666497,"velocity":0.5275590551181102,"duration":0.28333333333333144},{"name":"C#4","midi":61,"time":234.7124999999983,"velocity":0.5275590551181102,"duration":0.2812499999999716},{"name":"F4","midi":65,"time":234.71458333333163,"velocity":0.5275590551181102,"duration":0.26458333333332007},{"name":"G#4","midi":68,"time":234.9958333333316,"velocity":0.5196850393700787,"duration":1.0812499999999545},{"name":"D#4","midi":63,"time":234.9958333333316,"velocity":0.5275590551181102,"duration":0.2708333333333428},{"name":"B3","midi":59,"time":234.99791666666493,"velocity":0.5275590551181102,"duration":1.1374999999999602},{"name":"D4","midi":62,"time":235.28124999999827,"velocity":0.5275590551181102,"duration":0.1354166666666572},{"name":"F2","midi":41,"time":235.28124999999827,"velocity":0.5275590551181102,"duration":0.28541666666663446},{"name":"D#4","midi":63,"time":235.42499999999825,"velocity":0.5275590551181102,"duration":0.1354166666666572},{"name":"F4","midi":65,"time":235.5666666666649,"velocity":0.5275590551181102,"duration":0.8104166666666686},{"name":"D#2","midi":39,"time":235.56874999999823,"velocity":0.5275590551181102,"duration":0.28125},{"name":"D2","midi":38,"time":235.85208333333156,"velocity":0.5275590551181102,"duration":0.28125},{"name":"F#4","midi":66,"time":236.1354166666649,"velocity":0.5275590551181102,"duration":1.0875000000000057},{"name":"A#3","midi":58,"time":236.13749999999823,"velocity":0.5275590551181102,"duration":0.28333333333333144},{"name":"D#2","midi":39,"time":236.13749999999823,"velocity":0.5275590551181102,"duration":0.5687499999999943},{"name":"F4","midi":65,"time":236.4229166666649,"velocity":0.5275590551181102,"duration":0.26666666666667993},{"name":"C#4","midi":61,"time":236.4229166666649,"velocity":0.5275590551181102,"duration":0.28125},{"name":"D#3","midi":51,"time":236.70624999999822,"velocity":0.5275590551181102,"duration":0.8625000000000114},{"name":"D#4","midi":63,"time":236.70833333333155,"velocity":0.5275590551181102,"duration":0.26875000000001137},{"name":"C4","midi":60,"time":236.70833333333155,"velocity":0.5275590551181102,"duration":0.2854166666666913},{"name":"A#3","midi":58,"time":236.99374999999824,"velocity":0.5275590551181102,"duration":0.28541666666663446},{"name":"C#4","midi":61,"time":236.99583333333157,"velocity":0.5275590551181102,"duration":0.2708333333333144},{"name":"C4","midi":60,"time":237.27916666666488,"velocity":0.5275590551181102,"duration":0.27291666666667425},{"name":"F4","midi":65,"time":237.2812499999982,"velocity":0.5275590551181102,"duration":1.091666666666697},{"name":"A3","midi":57,"time":237.2812499999982,"velocity":0.5275590551181102,"duration":0.5770833333333769},{"name":"D#4","midi":63,"time":237.57083333333156,"velocity":0.5275590551181102,"duration":0.543750000000017},{"name":"C#3","midi":49,"time":237.57083333333156,"velocity":0.5275590551181102,"duration":0.14166666666667993},{"name":"C3","midi":48,"time":237.71458333333157,"velocity":0.5275590551181102,"duration":0.14166666666667993},{"name":"A#4","midi":70,"time":237.8583333333316,"velocity":0.5196850393700787,"duration":0.5437499999999886},{"name":"C#3","midi":49,"time":237.86041666666492,"velocity":0.5275590551181102,"duration":0.28333333333333144},{"name":"A#3","midi":58,"time":237.86041666666492,"velocity":0.5275590551181102,"duration":0.5708333333332973},{"name":"D#3","midi":51,"time":238.14374999999825,"velocity":0.5275590551181102,"duration":0.2874999999999659},{"name":"C#4","midi":61,"time":238.14583333333158,"velocity":0.5275590551181102,"duration":0.2708333333333144},{"name":"C4","midi":60,"time":238.43333333333155,"velocity":0.5275590551181102,"duration":0.549999999999983},{"name":"F4","midi":65,"time":238.43333333333155,"velocity":0.5275590551181102,"duration":0.549999999999983},{"name":"A3","midi":57,"time":238.43541666666488,"velocity":0.5275590551181102,"duration":0.5770833333333201},{"name":"F3","midi":53,"time":238.43541666666488,"velocity":0.5275590551181102,"duration":0.2874999999999943},{"name":"D#3","midi":51,"time":238.7249999999982,"velocity":0.5275590551181102,"duration":0.2854166666666629},{"name":"C#3","midi":49,"time":239.0124999999982,"velocity":0.5275590551181102,"duration":0.2874999999999943},{"name":"A#3","midi":58,"time":239.01458333333153,"velocity":0.5275590551181102,"duration":0.5354166666666629},{"name":"F#5","midi":78,"time":239.2999999999982,"velocity":0.4251968503937008,"duration":0.26666666666667993},{"name":"C3","midi":48,"time":239.2999999999982,"velocity":0.5275590551181102,"duration":0.28125},{"name":"F5","midi":77,"time":239.5812499999982,"velocity":0.4251968503937008,"duration":0.26875000000001137},{"name":"F3","midi":53,"time":239.58333333333152,"velocity":0.5275590551181102,"duration":0.5666666666666629},{"name":"C#3","midi":49,"time":239.58333333333152,"velocity":0.5275590551181102,"duration":0.28125},{"name":"C5","midi":72,"time":239.86666666666486,"velocity":0.5196850393700787,"duration":0.26875000000001137},{"name":"D#5","midi":75,"time":239.86666666666486,"velocity":0.5196850393700787,"duration":0.26875000000001137},{"name":"A2","midi":45,"time":239.8687499999982,"velocity":0.5275590551181102,"duration":0.28125},{"name":"C#5","midi":73,"time":240.1499999999982,"velocity":0.5196850393700787,"duration":0.2750000000000057},{"name":"A#4","midi":70,"time":240.15208333333152,"velocity":0.5196850393700787,"duration":0.2708333333333428},{"name":"A#2","midi":46,"time":240.15208333333152,"velocity":0.5275590551181102,"duration":0.5708333333333258},{"name":"A4","midi":69,"time":240.43749999999818,"velocity":0.5196850393700787,"duration":0.26875000000001137},{"name":"C5","midi":72,"time":240.43749999999818,"velocity":0.5196850393700787,"duration":0.2708333333333428},{"name":"F#4","midi":66,"time":240.4395833333315,"velocity":0.5275590551181102,"duration":0.28125},{"name":"C#5","midi":73,"time":240.72291666666484,"velocity":0.5196850393700787,"duration":0.2708333333333428},{"name":"A#4","midi":70,"time":240.72499999999818,"velocity":0.5196850393700787,"duration":0.26875000000001137},{"name":"F4","midi":65,"time":240.72499999999818,"velocity":0.5275590551181102,"duration":0.28333333333333144},{"name":"F2","midi":41,"time":240.72499999999818,"velocity":0.5275590551181102,"duration":0.5749999999999886},{"name":"D#5","midi":75,"time":241.0083333333315,"velocity":0.5196850393700787,"duration":0.2750000000000057},{"name":"A4","midi":69,"time":241.0083333333315,"velocity":0.5196850393700787,"duration":0.2750000000000057},{"name":"D#4","midi":63,"time":241.01041666666484,"velocity":0.5275590551181102,"duration":0.28958333333332575},{"name":"C4","midi":60,"time":241.01041666666484,"velocity":0.5275590551181102,"duration":0.2874999999999943},{"name":"A#4","midi":70,"time":241.29999999999816,"velocity":0.5196850393700787,"duration":0.2708333333333428},{"name":"F5","midi":77,"time":241.29999999999816,"velocity":0.4251968503937008,"duration":0.27291666666667425},{"name":"A#3","midi":58,"time":241.3020833333315,"velocity":0.5275590551181102,"duration":0.28333333333333144},{"name":"C#4","midi":61,"time":241.3020833333315,"velocity":0.5275590551181102,"duration":0.28333333333333144},{"name":"D#5","midi":75,"time":241.58749999999816,"velocity":0.5196850393700787,"duration":0.27291666666667425},{"name":"C5","midi":72,"time":241.5895833333315,"velocity":0.5196850393700787,"duration":0.26875000000001137},{"name":"C4","midi":60,"time":241.5895833333315,"velocity":0.5275590551181102,"duration":0.2854166666666629},{"name":"A3","midi":57,"time":241.5895833333315,"velocity":0.5275590551181102,"duration":0.2854166666666629},{"name":"F#3","midi":54,"time":241.59166666666482,"velocity":0.5275590551181102,"duration":0.28333333333333144},{"name":"A#4","midi":70,"time":241.87708333333148,"velocity":0.5196850393700787,"duration":0.2770833333333371},{"name":"C#5","midi":73,"time":241.87708333333148,"velocity":0.5196850393700787,"duration":0.27916666666666856},{"name":"F3","midi":53,"time":241.87916666666482,"velocity":0.5275590551181102,"duration":0.29375000000001705},{"name":"A#3","midi":58,"time":241.87916666666482,"velocity":0.5275590551181102,"duration":0.2958333333333485},{"name":"C#4","midi":61,"time":241.87916666666482,"velocity":0.5275590551181102,"duration":0.14375000000001137},{"name":"D#4","midi":63,"time":242.02291666666483,"velocity":0.5275590551181102,"duration":0.15000000000000568},{"name":"C5","midi":72,"time":242.17499999999816,"velocity":0.5196850393700787,"duration":0.2750000000000057},{"name":"A4","midi":69,"time":242.17499999999816,"velocity":0.5196850393700787,"duration":0.27291666666667425},{"name":"F4","midi":65,"time":242.1770833333315,"velocity":0.5275590551181102,"duration":0.5749999999999886},{"name":"C4","midi":60,"time":242.1770833333315,"velocity":0.5275590551181102,"duration":0.2854166666666629},{"name":"D#3","midi":51,"time":242.1770833333315,"velocity":0.5275590551181102,"duration":0.2854166666666629},{"name":"A#4","midi":70,"time":242.4645833333315,"velocity":0.5196850393700787,"duration":0.8125},{"name":"C#4","midi":61,"time":242.4645833333315,"velocity":0.5275590551181102,"duration":0.2854166666666629},{"name":"C#3","midi":49,"time":242.46666666666482,"velocity":0.5275590551181102,"duration":0.28333333333333144},{"name":"F#4","midi":66,"time":242.75208333333148,"velocity":0.5275590551181102,"duration":0.26875000000001137},{"name":"D#4","midi":63,"time":242.75416666666482,"velocity":0.5275590551181102,"duration":0.28125},{"name":"C3","midi":48,"time":242.75416666666482,"velocity":0.5275590551181102,"duration":0.27916666666666856},{"name":"G#4","midi":68,"time":243.03541666666482,"velocity":0.5196850393700787,"duration":0.27291666666667425},{"name":"A#3","midi":58,"time":243.03749999999815,"velocity":0.5275590551181102,"duration":1.1374999999999318},{"name":"F4","midi":65,"time":243.03749999999815,"velocity":0.5275590551181102,"duration":0.2854166666666629},{"name":"D3","midi":50,"time":243.03958333333148,"velocity":0.5275590551181102,"duration":0.28333333333333144},{"name":"C5","midi":72,"time":243.32499999999814,"velocity":0.5196850393700787,"duration":0.26874999999998295},{"name":"D#4","midi":63,"time":243.32499999999814,"velocity":0.5275590551181102,"duration":0.2812499999999716},{"name":"F#4","midi":66,"time":243.32499999999814,"velocity":0.5275590551181102,"duration":0.2666666666666515},{"name":"D#3","midi":51,"time":243.32708333333147,"velocity":0.5275590551181102,"duration":0.27916666666664014},{"name":"C#5","midi":73,"time":243.60833333333144,"velocity":0.5196850393700787,"duration":0.7999999999999545},{"name":"F4","midi":65,"time":243.60833333333144,"velocity":0.5275590551181102,"duration":0.5354166666666345},{"name":"C#4","midi":61,"time":243.61041666666478,"velocity":0.5275590551181102,"duration":0.564583333333303},{"name":"F3","midi":53,"time":243.61041666666478,"velocity":0.5275590551181102,"duration":0.13749999999998863},{"name":"F#3","midi":54,"time":243.7499999999981,"velocity":0.5275590551181102,"duration":0.13749999999998863},{"name":"E3","midi":52,"time":243.88958333333142,"velocity":0.5275590551181102,"duration":0.13958333333332007},{"name":"F3","midi":53,"time":244.03124999999807,"velocity":0.5275590551181102,"duration":0.14375000000001137},{"name":"F#4","midi":66,"time":244.1770833333314,"velocity":0.5275590551181102,"duration":1.0729166666666288},{"name":"E2","midi":40,"time":244.1770833333314,"velocity":0.5275590551181102,"duration":1.1333333333332973},{"name":"C#5","midi":73,"time":244.44999999999806,"velocity":0.5196850393700787,"duration":0.26458333333332007},{"name":"C5","midi":72,"time":244.72708333333136,"velocity":0.5196850393700787,"duration":0.2708333333333428},{"name":"C4","midi":60,"time":244.7291666666647,"velocity":0.5275590551181102,"duration":1.1750000000000114},{"name":"A#4","midi":70,"time":245.01249999999803,"velocity":0.5196850393700787,"duration":0.28125},{"name":"A#4","midi":70,"time":245.3104166666647,"velocity":0.5196850393700787,"duration":0.5916666666666686},{"name":"C4","midi":60,"time":245.31249999999804,"velocity":0.5275590551181102,"duration":1.2666666666666515},{"name":"F4","midi":65,"time":245.31249999999804,"velocity":0.5275590551181102,"duration":0.2750000000000057},{"name":"F2","midi":41,"time":245.31458333333137,"velocity":0.5275590551181102,"duration":1.26458333333332},{"name":"F#4","midi":66,"time":245.60208333333136,"velocity":0.5275590551181102,"duration":0.30000000000001137},{"name":"A4","midi":69,"time":245.9041666666647,"velocity":0.5196850393700787,"duration":0.6708333333333201},{"name":"F3","midi":53,"time":245.90624999999804,"velocity":0.5275590551181102,"duration":6.460416666666646},{"name":"F4","midi":65,"time":245.90624999999804,"velocity":0.5275590551181102,"duration":0.32083333333332575},{"name":"D#4","midi":63,"time":246.2291666666647,"velocity":0.5275590551181102,"duration":0.3499999999999943},{"name":"A#4","midi":70,"time":246.58124999999802,"velocity":0.44881889763779526,"duration":5.447916666666657},{"name":"D4","midi":62,"time":246.58333333333135,"velocity":0.4566929133858268,"duration":5.445833333333326},{"name":"A#3","midi":58,"time":246.58333333333135,"velocity":0.4566929133858268,"duration":5.78125},{"name":"A#2","midi":46,"time":246.58333333333135,"velocity":0.48031496062992124,"duration":5.78125}],"controlChanges":{"7":[{"number":7,"time":0,"value":0.8267716535433071},{"number":7,"time":0,"value":0.7874015748031497},{"number":7,"time":0,"value":0.7874015748031497}],"10":[{"number":10,"time":0,"value":0.49606299212598426},{"number":10,"time":0,"value":0.5039370078740157},{"number":10,"time":0,"value":0.3700787401574803},{"number":10,"time":4.46875,"value":0.5275590551181102},{"number":10,"time":4.472916666666666,"value":0.6220472440944882},{"number":10,"time":4.477083333333333,"value":0.47244094488188976},{"number":10,"time":4.522916666666666,"value":0.5905511811023622},{"number":10,"time":4.535416666666666,"value":0.5196850393700787},{"number":10,"time":4.570833333333333,"value":0.5826771653543307},{"number":10,"time":4.572916666666666,"value":0.4566929133858268},{"number":10,"time":4.614583333333333,"value":0.4330708661417323},{"number":10,"time":4.641666666666667,"value":0.4645669291338583}],"64":[{"number":64,"time":255.70624999999802,"value":0},{"number":64,"time":255.70833333333135,"value":0},{"number":64,"time":255.71041666666468,"value":0},{"number":64,"time":255.7604166666647,"value":0},{"number":64,"time":255.76249999999803,"value":0},{"number":64,"time":255.76458333333136,"value":0}]},"id":0,"name":"--------","instrumentNumber":0,"instrument":"acoustic grand piano","instrumentFamily":"piano","channelNumber":0,"isPercussion":false}]}