{"header":{"PPQ":192,"timeSignature":[3,8],"bpm":55.00000458333371,"name":"--------"},"startTime":0,"duration":119.27271733333326,"tracks":[{"startTime":0,"duration":0,"length":0,"notes":[],"controlChanges":{},"id":0,"name":"--------"},{"startTime":0,"duration":119.27271733333319,"length":505,"notes":[{"name":"E4","midi":64,"time":0,"velocity":0.7874015748031497,"duration":0.12499998958333335},{"name":"F#4","midi":66,"time":0.13636362500000002,"velocity":0.7874015748031497,"duration":0.12499998958333333},{"name":"G4","midi":67,"time":0.27272725000000003,"velocity":0.7874015748031497,"duration":0.12499998958333336},{"name":"A4","midi":69,"time":0.4090908750000001,"velocity":0.7874015748031497,"duration":0.12499998958333336},{"name":"B4","midi":71,"time":0.5454545000000001,"velocity":0.7874015748031497,"duration":0.12499998958333336},{"name":"C#5","midi":73,"time":0.681818125,"velocity":0.7874015748031497,"duration":0.12499998958333336},{"name":"D#5","midi":75,"time":0.81818175,"velocity":0.7874015748031497,"duration":0.12499998958333336},{"name":"E5","midi":76,"time":0.954545375,"velocity":0.7874015748031497,"duration":0.12499998958333325},{"name":"D#5","midi":75,"time":1.090909,"velocity":0.7874015748031497,"duration":0.12499998958333336},{"name":"C#5","midi":73,"time":1.227272625,"velocity":0.7874015748031497,"duration":0.12499998958333336},{"name":"B4","midi":71,"time":1.3636362499999999,"velocity":0.7874015748031497,"duration":0.12499998958333336},{"name":"A4","midi":69,"time":1.4999998749999999,"velocity":0.7874015748031497,"duration":0.12499998958333336},{"name":"G4","midi":67,"time":1.6363634999999999,"velocity":0.7874015748031497,"duration":0.12499998958333336},{"name":"F#4","midi":66,"time":1.7727271249999998,"velocity":0.7874015748031497,"duration":0.12499998958333336},{"name":"E4","midi":64,"time":1.9090907499999998,"velocity":0.7874015748031497,"duration":0.26136361458333335},{"name":"C5","midi":72,"time":2.45454525,"velocity":0.7874015748031497,"duration":0.26136361458333335},{"name":"B4","midi":71,"time":2.7272724999999998,"velocity":0.7874015748031497,"duration":0.26136361458333335},{"name":"A#4","midi":70,"time":2.9999997499999997,"velocity":0.7874015748031497,"duration":0.26136361458333335},{"name":"A#4","midi":70,"time":3.2727269999999997,"velocity":0.7874015748031497,"duration":0.12499998958333336},{"name":"B4","midi":71,"time":3.4090906249999997,"velocity":0.7874015748031497,"duration":0.12499998958333336},{"name":"B3","midi":59,"time":3.5454542499999997,"velocity":0.7874015748031497,"duration":0.1818181666666665},{"name":"A#4","midi":70,"time":4.09090875,"velocity":0.7874015748031497,"duration":0.2613636145833338},{"name":"A4","midi":69,"time":4.3636360000000005,"velocity":0.7874015748031497,"duration":0.2613636145833338},{"name":"G#4","midi":68,"time":4.636363250000001,"velocity":0.7874015748031497,"duration":0.2613636145833338},{"name":"G#4","midi":68,"time":4.909090500000002,"velocity":0.7874015748031497,"duration":0.12499998958333336},{"name":"A4","midi":69,"time":5.045454125000003,"velocity":0.7874015748031497,"duration":0.12499998958333336},{"name":"A3","midi":57,"time":5.181817750000003,"velocity":0.7874015748031497,"duration":0.18181816666666695},{"name":"A4","midi":69,"time":5.5909086250000035,"velocity":0.7874015748031497,"duration":0.12499998958333336},{"name":"C5","midi":72,"time":5.727272250000004,"velocity":0.7874015748031497,"duration":0.12499998958333336},{"name":"E5","midi":76,"time":5.863635875000004,"velocity":0.7874015748031497,"duration":0.12499998958333336},{"name":"A5","midi":81,"time":5.999999500000005,"velocity":0.7874015748031497,"duration":0.12499998958333336},{"name":"G5","midi":79,"time":6.136363125000005,"velocity":0.7874015748031497,"duration":0.12499998958333336},{"name":"F#5","midi":78,"time":6.272726750000006,"velocity":0.7874015748031497,"duration":0.12499998958333336},{"name":"E5","midi":76,"time":6.409090375000006,"velocity":0.7874015748031497,"duration":0.12499998958333336},{"name":"D#5","midi":75,"time":6.5454540000000065,"velocity":0.7874015748031497,"duration":0.12499998958333336},{"name":"F#5","midi":78,"time":6.681817625000007,"velocity":0.7874015748031497,"duration":0.12499998958333336},{"name":"G5","midi":79,"time":6.818181250000007,"velocity":0.7874015748031497,"duration":0.39772723958333334},{"name":"E5","midi":76,"time":7.227272125000008,"velocity":0.7874015748031497,"duration":0.12499998958333336},{"name":"A#4","midi":70,"time":7.363635750000008,"velocity":0.7874015748031497,"duration":0.39772723958333334},{"name":"A4","midi":69,"time":7.772726625000009,"velocity":0.7874015748031497,"duration":0.12499998958333336},{"name":"F#5","midi":78,"time":7.909090250000009,"velocity":0.7874015748031497,"duration":0.12499998958333336},{"name":"A4","midi":69,"time":8.045453875000009,"velocity":0.7874015748031497,"duration":0.12499998958333336},{"name":"A4","midi":69,"time":8.181817500000008,"velocity":0.7874015748031497,"duration":0.12499998958333336},{"name":"F#4","midi":66,"time":8.318181125000008,"velocity":0.7874015748031497,"duration":0.12499998958333336},{"name":"G4","midi":67,"time":8.454544750000007,"velocity":0.7874015748031497,"duration":0.12499998958333336},{"name":"C5","midi":72,"time":8.590908375000007,"velocity":0.7874015748031497,"duration":0.12499998958333336},{"name":"C5","midi":72,"time":8.727272000000006,"velocity":0.7874015748031497,"duration":0.12499998958333336},{"name":"A#4","midi":70,"time":8.863635625000006,"velocity":0.7874015748031497,"duration":0.12499998958333336},{"name":"B4","midi":71,"time":8.999999250000005,"velocity":0.7874015748031497,"duration":0.12499998958333336},{"name":"F#5","midi":78,"time":9.136362875000005,"velocity":0.7874015748031497,"duration":0.12499998958333336},{"name":"E5","midi":76,"time":9.272726500000005,"velocity":0.7874015748031497,"duration":0.12499998958333336},{"name":"D5","midi":74,"time":9.409090125000004,"velocity":0.7874015748031497,"duration":0.12499998958333336},{"name":"E5","midi":76,"time":9.545453750000004,"velocity":0.7874015748031497,"duration":0.12499998958333336},{"name":"A#4","midi":70,"time":9.681817375000003,"velocity":0.7874015748031497,"duration":0.12499998958333336},{"name":"D5","midi":74,"time":9.818181000000003,"velocity":0.7874015748031497,"duration":0.12499998958333336},{"name":"C#5","midi":73,"time":9.954544625000002,"velocity":0.7874015748031497,"duration":0.12499998958333336},{"name":"B4","midi":71,"time":10.090908250000002,"velocity":0.7874015748031497,"duration":0.2613636145833329},{"name":"B4","midi":71,"time":11.999999000000003,"velocity":0.7874015748031497,"duration":0.5454545},{"name":"B5","midi":83,"time":12.545453500000002,"velocity":0.7874015748031497,"duration":0.5454545},{"name":"A#5","midi":82,"time":13.090908000000002,"velocity":0.7874015748031497,"duration":0.18181816666666606},{"name":"A4","midi":69,"time":13.636362500000002,"velocity":0.7874015748031497,"duration":0.5454545},{"name":"A5","midi":81,"time":14.181817000000002,"velocity":0.7874015748031497,"duration":0.5454545},{"name":"G#5","midi":80,"time":14.727271500000002,"velocity":0.7874015748031497,"duration":0.18181816666666606},{"name":"G4","midi":67,"time":15.272726000000002,"velocity":0.7874015748031497,"duration":0.5340908645833338},{"name":"G5","midi":79,"time":15.818180500000002,"velocity":0.7874015748031497,"duration":0.534090864583332},{"name":"F#5","midi":78,"time":16.363635000000002,"velocity":0.7874015748031497,"duration":0.5340908645833338},{"name":"G#5","midi":80,"time":16.909089500000004,"velocity":0.7874015748031497,"duration":0.5340908645833338},{"name":"A#5","midi":82,"time":17.454544000000006,"velocity":0.7874015748031497,"duration":0.5340908645833338},{"name":"B5","midi":83,"time":17.999998500000007,"velocity":0.7874015748031497,"duration":0.18181816666666606},{"name":"B4","midi":71,"time":19.090907500000007,"velocity":0.7874015748031497,"duration":0.6704544895833351},{"name":"G#4","midi":68,"time":19.77272562500001,"velocity":0.7874015748031497,"duration":0.12499998958333336},{"name":"A4","midi":69,"time":19.90908925000001,"velocity":0.7874015748031497,"duration":0.12499998958333336},{"name":"D5","midi":74,"time":20.045452875000013,"velocity":0.7874015748031497,"duration":0.12499998958333336},{"name":"D5","midi":74,"time":20.181816500000014,"velocity":0.7874015748031497,"duration":0.12499998958333336},{"name":"B4","midi":71,"time":20.318180125000016,"velocity":0.7874015748031497,"duration":0.12499998958333336},{"name":"C5","midi":72,"time":20.454543750000017,"velocity":0.7874015748031497,"duration":0.12499998958333336},{"name":"B5","midi":83,"time":20.590907375000018,"velocity":0.7874015748031497,"duration":0.12499998958333336},{"name":"A5","midi":81,"time":20.72727100000002,"velocity":0.7874015748031497,"duration":0.12499998958333336},{"name":"G5","midi":79,"time":20.86363462500002,"velocity":0.7874015748031497,"duration":0.12499998958333336},{"name":"A5","midi":81,"time":20.999998250000022,"velocity":0.7874015748031497,"duration":0.12499998958333336},{"name":"D#5","midi":75,"time":21.136361875000024,"velocity":0.7874015748031497,"duration":0.12499998958333336},{"name":"G5","midi":79,"time":21.272725500000025,"velocity":0.7874015748031497,"duration":0.18181816666666606},{"name":"G4","midi":67,"time":22.363634500000025,"velocity":0.7874015748031497,"duration":0.6704544895833351},{"name":"E4","midi":64,"time":23.045452625000028,"velocity":0.7874015748031497,"duration":0.12499998958333336},{"name":"F#4","midi":66,"time":23.18181625000003,"velocity":0.7874015748031497,"duration":0.12499998958333336},{"name":"B4","midi":71,"time":23.31817987500003,"velocity":0.7874015748031497,"duration":0.12499998958333336},{"name":"B4","midi":71,"time":23.45454350000003,"velocity":0.7874015748031497,"duration":0.12499998958333336},{"name":"G4","midi":67,"time":23.590907125000033,"velocity":0.7874015748031497,"duration":0.12499998958333336},{"name":"A4","midi":69,"time":23.727270750000034,"velocity":0.7874015748031497,"duration":0.12499998958333336},{"name":"G5","midi":79,"time":23.863634375000036,"velocity":0.7874015748031497,"duration":0.12499998958333336},{"name":"F#5","midi":78,"time":23.999998000000037,"velocity":0.7874015748031497,"duration":0.12499998958333336},{"name":"E5","midi":76,"time":24.13636162500004,"velocity":0.7874015748031497,"duration":0.12499998958333336},{"name":"F#5","midi":78,"time":24.27272525000004,"velocity":0.7874015748031497,"duration":0.12499998958333336},{"name":"B4","midi":71,"time":24.40908887500004,"velocity":0.7874015748031497,"duration":0.12499998958333336},{"name":"E5","midi":76,"time":24.545452500000042,"velocity":0.7874015748031497,"duration":0.18181816666666606},{"name":"E4","midi":64,"time":25.636361500000042,"velocity":0.7874015748031497,"duration":0.6704544895833351},{"name":"C#4","midi":61,"time":26.318179625000045,"velocity":0.7874015748031497,"duration":0.12499998958333336},{"name":"D#4","midi":63,"time":26.454543250000047,"velocity":0.7874015748031497,"duration":0.12499998958333336},{"name":"G4","midi":67,"time":26.590906875000048,"velocity":0.7874015748031497,"duration":0.12499998958333336},{"name":"G4","midi":67,"time":26.72727050000005,"velocity":0.7874015748031497,"duration":0.12499998958333336},{"name":"E4","midi":64,"time":26.86363412500005,"velocity":0.7874015748031497,"duration":0.12499998958333336},{"name":"F#4","midi":66,"time":26.999997750000052,"velocity":0.7874015748031497,"duration":0.12499998958333336},{"name":"E5","midi":76,"time":27.136361375000053,"velocity":0.7874015748031497,"duration":0.12499998958333336},{"name":"D#5","midi":75,"time":27.272725000000055,"velocity":0.7874015748031497,"duration":0.12499998958333336},{"name":"C#5","midi":73,"time":27.409088625000056,"velocity":0.7874015748031497,"duration":0.12499998958333336},{"name":"D#5","midi":75,"time":27.545452250000057,"velocity":0.7874015748031497,"duration":0.12499998958333336},{"name":"A4","midi":69,"time":27.68181587500006,"velocity":0.7874015748031497,"duration":0.12499998958333336},{"name":"G4","midi":67,"time":27.81817950000006,"velocity":0.7874015748031497,"duration":0.12499998958333336},{"name":"F#4","midi":66,"time":27.95454312500006,"velocity":0.7874015748031497,"duration":0.12499998958333336},{"name":"E4","midi":64,"time":28.090906750000062,"velocity":0.7874015748031497,"duration":0.2613636145833347},{"name":"E4","midi":64,"time":29.454543000000065,"velocity":0.7874015748031497,"duration":0.12499998958333336},{"name":"F#4","midi":66,"time":29.590906625000066,"velocity":0.7874015748031497,"duration":0.12499998958333336},{"name":"G4","midi":67,"time":29.727270250000068,"velocity":0.7874015748031497,"duration":0.12499998958333336},{"name":"A4","midi":69,"time":29.86363387500007,"velocity":0.7874015748031497,"duration":0.12499998958333336},{"name":"B4","midi":71,"time":29.99999750000007,"velocity":0.7874015748031497,"duration":0.12499998958333336},{"name":"C#5","midi":73,"time":30.13636112500007,"velocity":0.7874015748031497,"duration":0.12499998958333336},{"name":"D#5","midi":75,"time":30.272724750000073,"velocity":0.7874015748031497,"duration":0.12499998958333336},{"name":"E5","midi":76,"time":30.409088375000074,"velocity":0.7874015748031497,"duration":0.12499998958333336},{"name":"D#5","midi":75,"time":30.545452000000076,"velocity":0.7874015748031497,"duration":0.12499998958333336},{"name":"C#5","midi":73,"time":30.681815625000077,"velocity":0.7874015748031497,"duration":0.12499998958333336},{"name":"B4","midi":71,"time":30.818179250000078,"velocity":0.7874015748031497,"duration":0.12499998958333336},{"name":"A4","midi":69,"time":30.95454287500008,"velocity":0.7874015748031497,"duration":0.12499998958333336},{"name":"G4","midi":67,"time":31.09090650000008,"velocity":0.7874015748031497,"duration":0.12499998958333336},{"name":"F#4","midi":66,"time":31.227270125000082,"velocity":0.7874015748031497,"duration":0.12499998958333336},{"name":"E4","midi":64,"time":31.363633750000083,"velocity":0.7874015748031497,"duration":0.12499998958333336},{"name":"F#4","midi":66,"time":31.499997375000085,"velocity":0.7874015748031497,"duration":0.12499998958333336},{"name":"G4","midi":67,"time":31.636361000000086,"velocity":0.7874015748031497,"duration":0.12499998958333336},{"name":"A4","midi":69,"time":31.772724625000087,"velocity":0.7874015748031497,"duration":0.12499998958333336},{"name":"B4","midi":71,"time":31.90908825000009,"velocity":0.7874015748031497,"duration":0.1249999895833298},{"name":"C5","midi":72,"time":32.04545187500008,"velocity":0.7874015748031497,"duration":0.1249999895833298},{"name":"B4","midi":71,"time":32.18181550000008,"velocity":0.7874015748031497,"duration":0.1249999895833298},{"name":"A4","midi":69,"time":32.31817912500007,"velocity":0.7874015748031497,"duration":0.1249999895833298},{"name":"G4","midi":67,"time":32.454542750000066,"velocity":0.7874015748031497,"duration":0.1249999895833298},{"name":"F#4","midi":66,"time":32.59090637500006,"velocity":0.7874015748031497,"duration":0.1249999895833298},{"name":"E4","midi":64,"time":32.727270000000054,"velocity":0.7874015748031497,"duration":0.1249999895833298},{"name":"F#4","midi":66,"time":32.86363362500005,"velocity":0.7874015748031497,"duration":0.1249999895833298},{"name":"G4","midi":67,"time":32.99999725000004,"velocity":0.7874015748031497,"duration":0.1249999895833298},{"name":"A4","midi":69,"time":33.13636087500004,"velocity":0.7874015748031497,"duration":0.1249999895833298},{"name":"B4","midi":71,"time":33.27272450000003,"velocity":0.7874015748031497,"duration":0.1249999895833298},{"name":"C#5","midi":73,"time":33.409088125000025,"velocity":0.7874015748031497,"duration":0.1249999895833298},{"name":"D#5","midi":75,"time":33.54545175000002,"velocity":0.7874015748031497,"duration":0.1249999895833298},{"name":"E5","midi":76,"time":33.68181537500001,"velocity":0.7874015748031497,"duration":0.1249999895833298},{"name":"D#5","midi":75,"time":33.81817900000001,"velocity":0.7874015748031497,"duration":0.1249999895833298},{"name":"C#5","midi":73,"time":33.954542625,"velocity":0.7874015748031497,"duration":0.1249999895833298},{"name":"B4","midi":71,"time":34.090906249999996,"velocity":0.7874015748031497,"duration":0.1249999895833298},{"name":"A4","midi":69,"time":34.22726987499999,"velocity":0.7874015748031497,"duration":0.1249999895833298},{"name":"G4","midi":67,"time":34.363633499999985,"velocity":0.7874015748031497,"duration":0.1249999895833298},{"name":"F#4","midi":66,"time":34.49999712499998,"velocity":0.7874015748031497,"duration":0.1249999895833298},{"name":"E4","midi":64,"time":34.63636074999997,"velocity":0.7874015748031497,"duration":0.2613636145833311},{"name":"C6","midi":84,"time":35.18181524999997,"velocity":0.7874015748031497,"duration":0.2613636145833311},{"name":"B5","midi":83,"time":35.45454249999997,"velocity":0.7874015748031497,"duration":0.2613636145833311},{"name":"A#5","midi":82,"time":35.72726974999996,"velocity":0.7874015748031497,"duration":0.2613636145833311},{"name":"A#5","midi":82,"time":35.99999699999996,"velocity":0.7874015748031497,"duration":0.1249999895833298},{"name":"B5","midi":83,"time":36.13636062499995,"velocity":0.7874015748031497,"duration":0.1249999895833298},{"name":"B4","midi":71,"time":36.272724249999946,"velocity":0.7874015748031497,"duration":0.18181816666666606},{"name":"A#5","midi":82,"time":36.818178749999944,"velocity":0.7874015748031497,"duration":0.2613636145833311},{"name":"A5","midi":81,"time":37.09090599999994,"velocity":0.7874015748031497,"duration":0.2613636145833311},{"name":"G#5","midi":80,"time":37.363633249999936,"velocity":0.7874015748031497,"duration":0.2613636145833311},{"name":"G#5","midi":80,"time":37.63636049999993,"velocity":0.7874015748031497,"duration":0.1249999895833298},{"name":"A5","midi":81,"time":37.772724124999925,"velocity":0.7874015748031497,"duration":0.1249999895833298},{"name":"A4","midi":69,"time":37.90908774999992,"velocity":0.7874015748031497,"duration":0.18181816666666606},{"name":"A4","midi":69,"time":38.318178624999916,"velocity":0.7874015748031497,"duration":0.1249999895833298},{"name":"C5","midi":72,"time":38.45454224999991,"velocity":0.7874015748031497,"duration":0.1249999895833298},{"name":"E5","midi":76,"time":38.590905874999905,"velocity":0.7874015748031497,"duration":0.1249999895833298},{"name":"A5","midi":81,"time":38.7272694999999,"velocity":0.7874015748031497,"duration":0.1249999895833298},{"name":"G5","midi":79,"time":38.86363312499989,"velocity":0.7874015748031497,"duration":0.1249999895833298},{"name":"F#5","midi":78,"time":38.99999674999989,"velocity":0.7874015748031497,"duration":0.1249999895833298},{"name":"E5","midi":76,"time":39.13636037499988,"velocity":0.7874015748031497,"duration":0.1249999895833298},{"name":"D#5","midi":75,"time":39.272723999999876,"velocity":0.7874015748031497,"duration":0.1249999895833298},{"name":"F#5","midi":78,"time":39.40908762499987,"velocity":0.7874015748031497,"duration":0.1249999895833298},{"name":"G5","midi":79,"time":39.545451249999864,"velocity":0.7874015748031497,"duration":0.39772723958333245},{"name":"E5","midi":76,"time":39.95454212499986,"velocity":0.7874015748031497,"duration":0.1249999895833298},{"name":"A#4","midi":70,"time":40.090905749999855,"velocity":0.7874015748031497,"duration":0.39772723958333245},{"name":"A4","midi":69,"time":40.49999662499985,"velocity":0.7874015748031497,"duration":0.1249999895833298},{"name":"F#5","midi":78,"time":40.636360249999846,"velocity":0.7874015748031497,"duration":0.1249999895833298},{"name":"A4","midi":69,"time":40.77272387499984,"velocity":0.7874015748031497,"duration":0.1249999895833298},{"name":"G#4","midi":68,"time":40.909087499999835,"velocity":0.7874015748031497,"duration":0.1249999895833298},{"name":"B4","midi":71,"time":41.04545112499983,"velocity":0.7874015748031497,"duration":0.1249999895833298},{"name":"C5","midi":72,"time":41.18181474999982,"velocity":0.7874015748031497,"duration":0.39772723958333245},{"name":"A4","midi":69,"time":41.59090562499982,"velocity":0.7874015748031497,"duration":0.1249999895833298},{"name":"D#4","midi":63,"time":41.727269249999814,"velocity":0.7874015748031497,"duration":0.39772723958333245},{"name":"E4","midi":64,"time":42.13636012499981,"velocity":0.7874015748031497,"duration":0.1249999895833298},{"name":"B4","midi":71,"time":42.272723749999805,"velocity":0.7874015748031497,"duration":0.1249999895833298},{"name":"D5","midi":74,"time":42.4090873749998,"velocity":0.7874015748031497,"duration":0.1249999895833298},{"name":"C#5","midi":73,"time":42.545450999999794,"velocity":0.7874015748031497,"duration":0.1249999895833298},{"name":"E5","midi":76,"time":42.68181462499979,"velocity":0.7874015748031497,"duration":0.1249999895833298},{"name":"F5","midi":77,"time":42.81817824999978,"velocity":0.7874015748031497,"duration":0.39772723958333245},{"name":"D5","midi":74,"time":43.22726912499978,"velocity":0.7874015748031497,"duration":0.1249999895833298},{"name":"G#4","midi":68,"time":43.36363274999977,"velocity":0.7874015748031497,"duration":0.39772723958333245},{"name":"G4","midi":67,"time":43.77272362499977,"velocity":0.7874015748031497,"duration":0.1249999895833298},{"name":"E5","midi":76,"time":43.909087249999764,"velocity":0.7874015748031497,"duration":0.1249999895833298},{"name":"G4","midi":67,"time":44.04545087499976,"velocity":0.7874015748031497,"duration":0.1249999895833298},{"name":"F#4","midi":66,"time":44.18181449999975,"velocity":0.7874015748031497,"duration":0.1249999895833298},{"name":"A4","midi":69,"time":44.31817812499975,"velocity":0.7874015748031497,"duration":0.1249999895833298},{"name":"A#4","midi":70,"time":44.45454174999974,"velocity":0.7874015748031497,"duration":0.39772723958333245},{"name":"G4","midi":67,"time":44.86363262499974,"velocity":0.7874015748031497,"duration":0.1249999895833298},{"name":"C#4","midi":61,"time":44.99999624999973,"velocity":0.7874015748031497,"duration":0.39772723958333245},{"name":"D4","midi":62,"time":45.40908712499973,"velocity":0.7874015748031497,"duration":0.1249999895833298},{"name":"A4","midi":69,"time":45.54545074999972,"velocity":0.7874015748031497,"duration":0.1249999895833298},{"name":"C5","midi":72,"time":45.68181437499972,"velocity":0.7874015748031497,"duration":0.1249999895833298},{"name":"B4","midi":71,"time":45.81817799999971,"velocity":0.7874015748031497,"duration":0.1249999895833298},{"name":"A4","midi":69,"time":45.954541624999706,"velocity":0.7874015748031497,"duration":0.1249999895833298},{"name":"G4","midi":67,"time":46.0909052499997,"velocity":0.7874015748031497,"duration":0.1249999895833298},{"name":"A4","midi":69,"time":46.227268874999695,"velocity":0.7874015748031497,"duration":0.1249999895833298},{"name":"B4","midi":71,"time":46.36363249999969,"velocity":0.7874015748031497,"duration":0.1249999895833298},{"name":"C5","midi":72,"time":46.49999612499968,"velocity":0.7874015748031497,"duration":0.1249999895833298},{"name":"D5","midi":74,"time":46.63635974999968,"velocity":0.7874015748031497,"duration":0.1249999895833298},{"name":"E5","midi":76,"time":46.77272337499967,"velocity":0.7874015748031497,"duration":0.1249999895833298},{"name":"F#5","midi":78,"time":46.909086999999666,"velocity":0.7874015748031497,"duration":0.1249999895833298},{"name":"G5","midi":79,"time":47.04545062499966,"velocity":0.7874015748031497,"duration":0.1249999895833298},{"name":"F#5","midi":78,"time":47.181814249999654,"velocity":0.7874015748031497,"duration":0.1249999895833298},{"name":"E5","midi":76,"time":47.31817787499965,"velocity":0.7874015748031497,"duration":0.1249999895833298},{"name":"D5","midi":74,"time":47.45454149999964,"velocity":0.7874015748031497,"duration":0.1249999895833298},{"name":"C5","midi":72,"time":47.59090512499964,"velocity":0.7874015748031497,"duration":0.1249999895833298},{"name":"B4","midi":71,"time":47.72726874999963,"velocity":0.7874015748031497,"duration":0.1249999895833298},{"name":"A4","midi":69,"time":47.863632374999625,"velocity":0.7874015748031497,"duration":0.1249999895833298},{"name":"G4","midi":67,"time":47.99999599999962,"velocity":0.7874015748031497,"duration":0.5340908645833338},{"name":"G5","midi":79,"time":48.54545049999962,"velocity":0.7874015748031497,"duration":0.5454544999999982},{"name":"F#5","midi":78,"time":49.090904999999616,"velocity":0.7874015748031497,"duration":0.18181816666666606},{"name":"F4","midi":65,"time":49.636359499999614,"velocity":0.7874015748031497,"duration":0.5454544999999982},{"name":"F5","midi":77,"time":50.18181399999961,"velocity":0.7874015748031497,"duration":0.5454544999999982},{"name":"E5","midi":76,"time":50.72726849999961,"velocity":0.7874015748031497,"duration":0.18181816666666606},{"name":"D#4","midi":63,"time":51.27272299999961,"velocity":0.7874015748031497,"duration":0.5340908645833338},{"name":"D#5","midi":75,"time":51.81817749999961,"velocity":0.7874015748031497,"duration":0.5340908645833338},{"name":"D5","midi":74,"time":52.363631999999605,"velocity":0.7874015748031497,"duration":0.5340908645833338},{"name":"E5","midi":76,"time":52.9090864999996,"velocity":0.7874015748031497,"duration":0.5340908645833338},{"name":"F#5","midi":78,"time":53.4545409999996,"velocity":0.7874015748031497,"duration":0.5340908645833338},{"name":"G4","midi":67,"time":53.9999954999996,"velocity":0.7874015748031497,"duration":0.5340908645833338},{"name":"F#4","midi":66,"time":54.5454499999996,"velocity":0.7874015748031497,"duration":0.5340908645833338},{"name":"E4","midi":64,"time":55.090904499999596,"velocity":0.7874015748031497,"duration":0.5340908645833338},{"name":"D4","midi":62,"time":55.636358999999594,"velocity":0.7874015748031497,"duration":0.1249999895833298},{"name":"E4","midi":64,"time":55.77272262499959,"velocity":0.7874015748031497,"duration":0.1249999895833298},{"name":"F#4","midi":66,"time":55.90908624999958,"velocity":0.7874015748031497,"duration":0.1249999895833298},{"name":"G4","midi":67,"time":56.045449874999576,"velocity":0.7874015748031497,"duration":0.1249999895833298},{"name":"A4","midi":69,"time":56.18181349999957,"velocity":0.7874015748031497,"duration":0.1249999895833298},{"name":"B4","midi":71,"time":56.318177124999565,"velocity":0.7874015748031497,"duration":0.1249999895833298},{"name":"C#5","midi":73,"time":56.45454074999956,"velocity":0.7874015748031497,"duration":0.1249999895833298},{"name":"D5","midi":74,"time":56.59090437499955,"velocity":0.7874015748031497,"duration":0.1249999895833298},{"name":"C#5","midi":73,"time":56.72726799999955,"velocity":0.7874015748031497,"duration":0.1249999895833298},{"name":"B4","midi":71,"time":56.86363162499954,"velocity":0.7874015748031497,"duration":0.1249999895833298},{"name":"A4","midi":69,"time":56.999995249999536,"velocity":0.7874015748031497,"duration":0.1249999895833298},{"name":"G4","midi":67,"time":57.13635887499953,"velocity":0.7874015748031497,"duration":0.1249999895833298},{"name":"F#4","midi":66,"time":57.272722499999524,"velocity":0.7874015748031497,"duration":0.1249999895833298},{"name":"E4","midi":64,"time":57.40908612499952,"velocity":0.7874015748031497,"duration":0.1249999895833298},{"name":"D4","midi":62,"time":57.54544974999951,"velocity":0.7874015748031497,"duration":0.2613636145833311},{"name":"A#4","midi":70,"time":58.09090424999951,"velocity":0.7874015748031497,"duration":0.2613636145833311},{"name":"A4","midi":69,"time":58.36363149999951,"velocity":0.7874015748031497,"duration":0.2613636145833311},{"name":"G#4","midi":68,"time":58.6363587499995,"velocity":0.7874015748031497,"duration":0.2613636145833311},{"name":"G#4","midi":68,"time":58.9090859999995,"velocity":0.7874015748031497,"duration":0.1249999895833298},{"name":"A4","midi":69,"time":59.04544962499949,"velocity":0.7874015748031497,"duration":0.1249999895833298},{"name":"A3","midi":57,"time":59.181813249999486,"velocity":0.7874015748031497,"duration":0.18181816666666606},{"name":"G#4","midi":68,"time":59.727267749999484,"velocity":0.7874015748031497,"duration":0.2613636145833311},{"name":"G4","midi":67,"time":59.99999499999948,"velocity":0.7874015748031497,"duration":0.2613636145833311},{"name":"F#4","midi":66,"time":60.272722249999475,"velocity":0.7874015748031497,"duration":0.2613636145833311},{"name":"F#4","midi":66,"time":60.54544949999947,"velocity":0.7874015748031497,"duration":0.1249999895833298},{"name":"G4","midi":67,"time":60.681813124999465,"velocity":0.7874015748031497,"duration":0.1249999895833298},{"name":"G3","midi":55,"time":60.81817674999946,"velocity":0.7874015748031497,"duration":0.18181816666666606},{"name":"G4","midi":67,"time":61.227267624999456,"velocity":0.7874015748031497,"duration":0.1249999895833298},{"name":"A#4","midi":70,"time":61.36363124999945,"velocity":0.7874015748031497,"duration":0.1249999895833298},{"name":"D5","midi":74,"time":61.499994874999445,"velocity":0.7874015748031497,"duration":0.1249999895833298},{"name":"G5","midi":79,"time":61.63635849999944,"velocity":0.7874015748031497,"duration":0.1249999895833298},{"name":"F5","midi":77,"time":61.77272212499943,"velocity":0.7874015748031497,"duration":0.1249999895833298},{"name":"E5","midi":76,"time":61.90908574999943,"velocity":0.7874015748031497,"duration":0.1249999895833298},{"name":"D5","midi":74,"time":62.04544937499942,"velocity":0.7874015748031497,"duration":0.1249999895833298},{"name":"C#5","midi":73,"time":62.181812999999416,"velocity":0.7874015748031497,"duration":0.1249999895833298},{"name":"E5","midi":76,"time":62.31817662499941,"velocity":0.7874015748031497,"duration":0.1249999895833298},{"name":"F5","midi":77,"time":62.454540249999404,"velocity":0.7874015748031497,"duration":0.39772723958333245},{"name":"D5","midi":74,"time":62.8636311249994,"velocity":0.7874015748031497,"duration":0.1249999895833298},{"name":"G#4","midi":68,"time":62.999994749999395,"velocity":0.7874015748031497,"duration":0.39772723958333245},{"name":"G4","midi":67,"time":63.40908562499939,"velocity":0.7874015748031497,"duration":0.1249999895833298},{"name":"E5","midi":76,"time":63.545449249999386,"velocity":0.7874015748031497,"duration":0.1249999895833298},{"name":"G4","midi":67,"time":63.68181287499938,"velocity":0.7874015748031497,"duration":0.1249999895833298},{"name":"G4","midi":67,"time":63.818176499999375,"velocity":0.7874015748031497,"duration":0.1249999895833298},{"name":"E4","midi":64,"time":63.95454012499937,"velocity":0.7874015748031497,"duration":0.1249999895833298},{"name":"F4","midi":65,"time":64.09090374999937,"velocity":0.7874015748031497,"duration":0.1249999895833298},{"name":"A#4","midi":70,"time":64.22726737499937,"velocity":0.7874015748031497,"duration":0.1249999895833298},{"name":"A#4","midi":70,"time":64.36363099999937,"velocity":0.7874015748031497,"duration":0.1249999895833298},{"name":"G#4","midi":68,"time":64.49999462499937,"velocity":0.7874015748031497,"duration":0.1249999895833298},{"name":"A4","midi":69,"time":64.63635824999938,"velocity":0.7874015748031497,"duration":0.1249999895833298},{"name":"G5","midi":79,"time":64.77272187499938,"velocity":0.7874015748031497,"duration":0.1249999895833298},{"name":"F5","midi":77,"time":64.90908549999938,"velocity":0.7874015748031497,"duration":0.1249999895833298},{"name":"E5","midi":76,"time":65.04544912499938,"velocity":0.7874015748031497,"duration":0.1249999895833298},{"name":"F5","midi":77,"time":65.18181274999938,"velocity":0.7874015748031497,"duration":0.1249999895833298},{"name":"B4","midi":71,"time":65.31817637499938,"velocity":0.7874015748031497,"duration":0.1249999895833298},{"name":"E5","midi":76,"time":65.45453999999938,"velocity":0.7874015748031497,"duration":0.18181816666667316},{"name":"E4","midi":64,"time":66.5454489999994,"velocity":0.7874015748031497,"duration":0.6704544895833351},{"name":"C#4","midi":61,"time":67.2272671249994,"velocity":0.7874015748031497,"duration":0.1249999895833298},{"name":"D4","midi":62,"time":67.3636307499994,"velocity":0.7874015748031497,"duration":0.1249999895833298},{"name":"A4","midi":69,"time":67.4999943749994,"velocity":0.7874015748031497,"duration":0.1249999895833298},{"name":"A4","midi":69,"time":67.6363579999994,"velocity":0.7874015748031497,"duration":0.1249999895833298},{"name":"F#4","midi":66,"time":67.7727216249994,"velocity":0.7874015748031497,"duration":0.1249999895833298},{"name":"G#4","midi":68,"time":67.9090852499994,"velocity":0.7874015748031497,"duration":0.1249999895833298},{"name":"E5","midi":76,"time":68.04544887499941,"velocity":0.7874015748031497,"duration":0.1249999895833298},{"name":"D5","midi":74,"time":68.18181249999941,"velocity":0.7874015748031497,"duration":0.1249999895833298},{"name":"C#5","midi":73,"time":68.31817612499941,"velocity":0.7874015748031497,"duration":0.1249999895833298},{"name":"D5","midi":74,"time":68.45453974999941,"velocity":0.7874015748031497,"duration":0.1249999895833298},{"name":"G#4","midi":68,"time":68.59090337499941,"velocity":0.7874015748031497,"duration":0.1249999895833298},{"name":"C5","midi":72,"time":68.72726699999942,"velocity":0.7874015748031497,"duration":0.18181816666667316},{"name":"C4","midi":60,"time":69.81817599999943,"velocity":0.7874015748031497,"duration":0.6704544895833351},{"name":"A#3","midi":58,"time":70.49999412499943,"velocity":0.7874015748031497,"duration":0.1249999895833298},{"name":"B3","midi":59,"time":70.63635774999943,"velocity":0.7874015748031497,"duration":0.1249999895833298},{"name":"F#4","midi":66,"time":70.77272137499943,"velocity":0.7874015748031497,"duration":0.1249999895833298},{"name":"F#4","midi":66,"time":70.90908499999944,"velocity":0.7874015748031497,"duration":0.1249999895833298},{"name":"D#4","midi":63,"time":71.04544862499944,"velocity":0.7874015748031497,"duration":0.1249999895833298},{"name":"E4","midi":64,"time":71.18181224999944,"velocity":0.7874015748031497,"duration":0.1249999895833298},{"name":"C5","midi":72,"time":71.31817587499944,"velocity":0.7874015748031497,"duration":0.1249999895833298},{"name":"B4","midi":71,"time":71.45453949999944,"velocity":0.7874015748031497,"duration":0.1249999895833298},{"name":"A#4","midi":70,"time":71.59090312499944,"velocity":0.7874015748031497,"duration":0.1249999895833298},{"name":"B4","midi":71,"time":71.72726674999944,"velocity":0.7874015748031497,"duration":0.1249999895833298},{"name":"E4","midi":64,"time":71.86363037499945,"velocity":0.7874015748031497,"duration":0.1249999895833298},{"name":"A#4","midi":70,"time":71.99999399999945,"velocity":0.7874015748031497,"duration":0.18181816666667316},{"name":"B4","midi":71,"time":73.63635749999945,"velocity":0.7874015748031497,"duration":0.1249999895833298},{"name":"C#5","midi":73,"time":73.77272112499945,"velocity":0.7874015748031497,"duration":0.1249999895833298},{"name":"D5","midi":74,"time":73.90908474999945,"velocity":0.7874015748031497,"duration":0.1249999895833298},{"name":"E5","midi":76,"time":74.04544837499945,"velocity":0.7874015748031497,"duration":0.1249999895833298},{"name":"F#5","midi":78,"time":74.18181199999945,"velocity":0.7874015748031497,"duration":0.1249999895833298},{"name":"G#5","midi":80,"time":74.31817562499945,"velocity":0.7874015748031497,"duration":0.1249999895833298},{"name":"A#5","midi":82,"time":74.45453924999946,"velocity":0.7874015748031497,"duration":0.1249999895833298},{"name":"B5","midi":83,"time":74.59090287499946,"velocity":0.7874015748031497,"duration":0.1249999895833298},{"name":"A#5","midi":82,"time":74.72726649999946,"velocity":0.7874015748031497,"duration":0.1249999895833298},{"name":"G#5","midi":80,"time":74.86363012499946,"velocity":0.7874015748031497,"duration":0.1249999895833298},{"name":"F#5","midi":78,"time":74.99999374999946,"velocity":0.7874015748031497,"duration":0.1249999895833298},{"name":"E5","midi":76,"time":75.13635737499946,"velocity":0.7874015748031497,"duration":0.1249999895833298},{"name":"D5","midi":74,"time":75.27272099999946,"velocity":0.7874015748031497,"duration":0.1249999895833298},{"name":"C#5","midi":73,"time":75.40908462499947,"velocity":0.7874015748031497,"duration":0.1249999895833298},{"name":"B4","midi":71,"time":75.54544824999947,"velocity":0.7874015748031497,"duration":0.1249999895833298},{"name":"C#5","midi":73,"time":75.68181187499947,"velocity":0.7874015748031497,"duration":0.1249999895833298},{"name":"D5","midi":74,"time":75.81817549999947,"velocity":0.7874015748031497,"duration":0.1249999895833298},{"name":"E5","midi":76,"time":75.95453912499947,"velocity":0.7874015748031497,"duration":0.1249999895833298},{"name":"F#5","midi":78,"time":76.09090274999947,"velocity":0.7874015748031497,"duration":0.1249999895833298},{"name":"G5","midi":79,"time":76.22726637499947,"velocity":0.7874015748031497,"duration":0.1249999895833298},{"name":"F#5","midi":78,"time":76.36362999999947,"velocity":0.7874015748031497,"duration":0.1249999895833298},{"name":"E5","midi":76,"time":76.49999362499948,"velocity":0.7874015748031497,"duration":0.1249999895833298},{"name":"D5","midi":74,"time":76.63635724999948,"velocity":0.7874015748031497,"duration":0.1249999895833298},{"name":"C#5","midi":73,"time":76.77272087499948,"velocity":0.7874015748031497,"duration":0.1249999895833298},{"name":"B4","midi":71,"time":76.90908449999948,"velocity":0.7874015748031497,"duration":0.1249999895833298},{"name":"C#5","midi":73,"time":77.04544812499948,"velocity":0.7874015748031497,"duration":0.1249999895833298},{"name":"D5","midi":74,"time":77.18181174999948,"velocity":0.7874015748031497,"duration":0.1249999895833298},{"name":"E5","midi":76,"time":77.31817537499948,"velocity":0.7874015748031497,"duration":0.1249999895833298},{"name":"F#5","midi":78,"time":77.45453899999949,"velocity":0.7874015748031497,"duration":0.1249999895833298},{"name":"G#5","midi":80,"time":77.59090262499949,"velocity":0.7874015748031497,"duration":0.1249999895833298},{"name":"A#5","midi":82,"time":77.72726624999949,"velocity":0.7874015748031497,"duration":0.1249999895833298},{"name":"B5","midi":83,"time":77.86362987499949,"velocity":0.7874015748031497,"duration":0.1249999895833298},{"name":"A#5","midi":82,"time":77.99999349999949,"velocity":0.7874015748031497,"duration":0.1249999895833298},{"name":"G#5","midi":80,"time":78.13635712499949,"velocity":0.7874015748031497,"duration":0.1249999895833298},{"name":"F#5","midi":78,"time":78.2727207499995,"velocity":0.7874015748031497,"duration":0.1249999895833298},{"name":"E5","midi":76,"time":78.4090843749995,"velocity":0.7874015748031497,"duration":0.1249999895833298},{"name":"D5","midi":74,"time":78.5454479999995,"velocity":0.7874015748031497,"duration":0.1249999895833298},{"name":"C#5","midi":73,"time":78.6818116249995,"velocity":0.7874015748031497,"duration":0.1249999895833298},{"name":"B4","midi":71,"time":78.8181752499995,"velocity":0.7874015748031497,"duration":0.1249999895833298},{"name":"C#5","midi":73,"time":78.9545388749995,"velocity":0.7874015748031497,"duration":0.1249999895833298},{"name":"D5","midi":74,"time":79.0909024999995,"velocity":0.7874015748031497,"duration":0.1249999895833298},{"name":"E5","midi":76,"time":79.2272661249995,"velocity":0.7874015748031497,"duration":0.1249999895833298},{"name":"F#5","midi":78,"time":79.3636297499995,"velocity":0.7874015748031497,"duration":0.1249999895833298},{"name":"G5","midi":79,"time":79.4999933749995,"velocity":0.7874015748031497,"duration":0.1249999895833298},{"name":"F#5","midi":78,"time":79.6363569999995,"velocity":0.7874015748031497,"duration":0.1249999895833298},{"name":"E5","midi":76,"time":79.77272062499951,"velocity":0.7874015748031497,"duration":0.1249999895833298},{"name":"D5","midi":74,"time":79.90908424999951,"velocity":0.7874015748031497,"duration":0.1249999895833298},{"name":"C#5","midi":73,"time":80.04544787499951,"velocity":0.7874015748031497,"duration":0.1249999895833298},{"name":"B4","midi":71,"time":80.18181149999951,"velocity":0.7874015748031497,"duration":0.18181816666667316},{"name":"B5","midi":83,"time":80.72726599999952,"velocity":0.7874015748031497,"duration":0.5454545000000053},{"name":"B4","midi":71,"time":81.27272049999952,"velocity":0.7874015748031497,"duration":0.5454545000000053},{"name":"A#4","midi":70,"time":81.81817499999953,"velocity":0.7874015748031497,"duration":0.18181816666667316},{"name":"A5","midi":81,"time":82.36362949999953,"velocity":0.7874015748031497,"duration":0.5454545000000053},{"name":"A4","midi":69,"time":82.90908399999954,"velocity":0.7874015748031497,"duration":0.5454545000000053},{"name":"G#4","midi":68,"time":83.45453849999954,"velocity":0.7874015748031497,"duration":0.18181816666667316},{"name":"G5","midi":79,"time":83.99999299999955,"velocity":0.7874015748031497,"duration":0.5340908645833338},{"name":"G4","midi":67,"time":84.54544749999955,"velocity":0.7874015748031497,"duration":0.5340908645833338},{"name":"F#4","midi":66,"time":85.09090199999956,"velocity":0.7874015748031497,"duration":0.5454545000000053},{"name":"G#4","midi":68,"time":85.63635649999956,"velocity":0.7874015748031497,"duration":0.5454545000000053},{"name":"A#4","midi":70,"time":86.18181099999957,"velocity":0.7874015748031497,"duration":0.5454545000000053},{"name":"B4","midi":71,"time":86.72726549999958,"velocity":0.7874015748031497,"duration":0.5454545000000053},{"name":"C#5","midi":73,"time":87.27271999999958,"velocity":0.7874015748031497,"duration":0.5454545000000053},{"name":"D#5","midi":75,"time":87.81817449999959,"velocity":0.7874015748031497,"duration":0.18181816666667316},{"name":"E4","midi":64,"time":88.36362899999959,"velocity":0.7874015748031497,"duration":0.5454545000000053},{"name":"F#4","midi":66,"time":88.9090834999996,"velocity":0.7874015748031497,"duration":0.5454545000000053},{"name":"G#4","midi":68,"time":89.4545379999996,"velocity":0.7874015748031497,"duration":0.5454545000000053},{"name":"A4","midi":69,"time":89.9999924999996,"velocity":0.7874015748031497,"duration":0.5454545000000053},{"name":"B4","midi":71,"time":90.54544699999961,"velocity":0.7874015748031497,"duration":0.5454545000000053},{"name":"C#5","midi":73,"time":91.09090149999962,"velocity":0.7874015748031497,"duration":0.18181816666667316},{"name":"D5","midi":74,"time":91.63635599999962,"velocity":0.7874015748031497,"duration":0.1249999895833298},{"name":"C#5","midi":73,"time":91.77271962499962,"velocity":0.7874015748031497,"duration":0.1249999895833298},{"name":"B4","midi":71,"time":91.90908324999963,"velocity":0.7874015748031497,"duration":0.1249999895833298},{"name":"A4","midi":69,"time":92.04544687499963,"velocity":0.7874015748031497,"duration":0.1249999895833298},{"name":"G#4","midi":68,"time":92.18181049999963,"velocity":0.7874015748031497,"duration":0.1249999895833298},{"name":"F#4","midi":66,"time":92.31817412499963,"velocity":0.7874015748031497,"duration":0.1249999895833298},{"name":"E4","midi":64,"time":92.45453774999963,"velocity":0.7874015748031497,"duration":0.1249999895833298},{"name":"D#4","midi":63,"time":92.59090137499963,"velocity":0.7874015748031497,"duration":0.1249999895833298},{"name":"E4","midi":64,"time":92.72726499999963,"velocity":0.7874015748031497,"duration":0.1249999895833298},{"name":"F#4","midi":66,"time":92.86362862499963,"velocity":0.7874015748031497,"duration":0.1249999895833298},{"name":"G#4","midi":68,"time":92.99999224999964,"velocity":0.7874015748031497,"duration":0.1249999895833298},{"name":"A4","midi":69,"time":93.13635587499964,"velocity":0.7874015748031497,"duration":0.1249999895833298},{"name":"B4","midi":71,"time":93.27271949999964,"velocity":0.7874015748031497,"duration":0.1249999895833298},{"name":"C5","midi":72,"time":93.40908312499964,"velocity":0.7874015748031497,"duration":0.1249999895833298},{"name":"D5","midi":74,"time":93.54544674999964,"velocity":0.7874015748031497,"duration":0.2613636145833311},{"name":"D5","midi":74,"time":94.49999212499964,"velocity":0.7874015748031497,"duration":0.1249999895833298},{"name":"C5","midi":72,"time":94.63635574999964,"velocity":0.7874015748031497,"duration":0.1249999895833298},{"name":"B4","midi":71,"time":94.77271937499964,"velocity":0.7874015748031497,"duration":0.1249999895833298},{"name":"A4","midi":69,"time":94.90908299999964,"velocity":0.7874015748031497,"duration":0.1249999895833298},{"name":"B4","midi":71,"time":95.04544662499964,"velocity":0.7874015748031497,"duration":0.1249999895833298},{"name":"C5","midi":72,"time":95.18181024999964,"velocity":0.7874015748031497,"duration":0.1249999895833298},{"name":"D5","midi":74,"time":95.31817387499964,"velocity":0.7874015748031497,"duration":0.1249999895833298},{"name":"E5","midi":76,"time":95.45453749999965,"velocity":0.7874015748031497,"duration":0.1249999895833298},{"name":"F#5","midi":78,"time":95.59090112499965,"velocity":0.7874015748031497,"duration":0.1249999895833298},{"name":"G5","midi":79,"time":95.72726474999965,"velocity":0.7874015748031497,"duration":0.1249999895833298},{"name":"A5","midi":81,"time":95.86362837499965,"velocity":0.7874015748031497,"duration":0.1249999895833298},{"name":"G5","midi":79,"time":95.99999199999965,"velocity":0.7874015748031497,"duration":0.1249999895833298},{"name":"F#5","midi":78,"time":96.13635562499965,"velocity":0.7874015748031497,"duration":0.1249999895833298},{"name":"E5","midi":76,"time":96.27271924999965,"velocity":0.7874015748031497,"duration":0.1249999895833298},{"name":"D#5","midi":75,"time":96.40908287499965,"velocity":0.7874015748031497,"duration":0.1249999895833298},{"name":"C6","midi":84,"time":96.54544649999966,"velocity":0.7874015748031497,"duration":0.1249999895833298},{"name":"A5","midi":81,"time":96.68181012499966,"velocity":0.7874015748031497,"duration":0.1249999895833298},{"name":"B5","midi":83,"time":96.81817374999966,"velocity":0.7874015748031497,"duration":0.2613636145833311},{"name":"A4","midi":69,"time":97.77271912499965,"velocity":0.7874015748031497,"duration":0.1249999895833298},{"name":"G4","midi":67,"time":97.90908274999965,"velocity":0.7874015748031497,"duration":0.1249999895833298},{"name":"F#4","midi":66,"time":98.04544637499966,"velocity":0.7874015748031497,"duration":0.1249999895833298},{"name":"E4","midi":64,"time":98.18180999999966,"velocity":0.7874015748031497,"duration":0.1249999895833298},{"name":"F#4","midi":66,"time":98.31817362499966,"velocity":0.7874015748031497,"duration":0.1249999895833298},{"name":"G4","midi":67,"time":98.45453724999966,"velocity":0.7874015748031497,"duration":0.1249999895833298},{"name":"A4","midi":69,"time":98.59090087499966,"velocity":0.7874015748031497,"duration":0.1249999895833298},{"name":"B4","midi":71,"time":98.72726449999966,"velocity":0.7874015748031497,"duration":0.1249999895833298},{"name":"C#5","midi":73,"time":98.86362812499966,"velocity":0.7874015748031497,"duration":0.1249999895833298},{"name":"D#5","midi":75,"time":98.99999174999967,"velocity":0.7874015748031497,"duration":0.1249999895833298},{"name":"E5","midi":76,"time":99.13635537499967,"velocity":0.7874015748031497,"duration":0.1249999895833298},{"name":"D#5","midi":75,"time":99.27271899999967,"velocity":0.7874015748031497,"duration":0.1249999895833298},{"name":"C#5","midi":73,"time":99.40908262499967,"velocity":0.7874015748031497,"duration":0.1249999895833298},{"name":"B4","midi":71,"time":99.54544624999967,"velocity":0.7874015748031497,"duration":0.1249999895833298},{"name":"A4","midi":69,"time":99.68180987499967,"velocity":0.7874015748031497,"duration":0.1249999895833298},{"name":"G4","midi":67,"time":99.81817349999967,"velocity":0.7874015748031497,"duration":0.1249999895833298},{"name":"F#4","midi":66,"time":99.95453712499967,"velocity":0.7874015748031497,"duration":0.1249999895833298},{"name":"E4","midi":64,"time":100.09090074999968,"velocity":0.7874015748031497,"duration":0.2613636145833311},{"name":"C5","midi":72,"time":100.63635524999967,"velocity":0.7874015748031497,"duration":0.2613636145833311},{"name":"B4","midi":71,"time":100.90908249999967,"velocity":0.7874015748031497,"duration":0.2613636145833311},{"name":"A#4","midi":70,"time":101.18180974999967,"velocity":0.7874015748031497,"duration":0.2613636145833311},{"name":"A#4","midi":70,"time":101.45453699999968,"velocity":0.7874015748031497,"duration":0.1249999895833298},{"name":"B4","midi":71,"time":101.59090062499968,"velocity":0.7874015748031497,"duration":0.1249999895833298},{"name":"B3","midi":59,"time":101.72726424999968,"velocity":0.7874015748031497,"duration":0.18181816666667316},{"name":"A#4","midi":70,"time":102.27271874999968,"velocity":0.7874015748031497,"duration":0.2613636145833311},{"name":"A4","midi":69,"time":102.54544599999969,"velocity":0.7874015748031497,"duration":0.2613636145833311},{"name":"G#4","midi":68,"time":102.81817324999969,"velocity":0.7874015748031497,"duration":0.2613636145833311},{"name":"G#4","midi":68,"time":103.09090049999969,"velocity":0.7874015748031497,"duration":0.1249999895833298},{"name":"A4","midi":69,"time":103.22726412499969,"velocity":0.7874015748031497,"duration":0.1249999895833298},{"name":"A3","midi":57,"time":103.3636277499997,"velocity":0.7874015748031497,"duration":0.18181816666667316},{"name":"A4","midi":69,"time":103.7727186249997,"velocity":0.7874015748031497,"duration":0.1249999895833298},{"name":"C5","midi":72,"time":103.9090822499997,"velocity":0.7874015748031497,"duration":0.1249999895833298},{"name":"E5","midi":76,"time":104.0454458749997,"velocity":0.7874015748031497,"duration":0.1249999895833298},{"name":"A5","midi":81,"time":104.1818094999997,"velocity":0.7874015748031497,"duration":0.1249999895833298},{"name":"G5","midi":79,"time":104.3181731249997,"velocity":0.7874015748031497,"duration":0.1249999895833298},{"name":"F#5","midi":78,"time":104.4545367499997,"velocity":0.7874015748031497,"duration":0.1249999895833298},{"name":"E5","midi":76,"time":104.5909003749997,"velocity":0.7874015748031497,"duration":0.1249999895833298},{"name":"D#5","midi":75,"time":104.7272639999997,"velocity":0.7874015748031497,"duration":0.1249999895833298},{"name":"F#5","midi":78,"time":104.86362762499971,"velocity":0.7874015748031497,"duration":0.1249999895833298},{"name":"G5","midi":79,"time":104.99999124999971,"velocity":0.7874015748031497,"duration":0.39772723958333245},{"name":"E5","midi":76,"time":105.40908212499971,"velocity":0.7874015748031497,"duration":0.1249999895833298},{"name":"A#4","midi":70,"time":105.54544574999971,"velocity":0.7874015748031497,"duration":0.39772723958333245},{"name":"A4","midi":69,"time":105.95453662499972,"velocity":0.7874015748031497,"duration":0.1249999895833298},{"name":"F#5","midi":78,"time":106.09090024999972,"velocity":0.7874015748031497,"duration":0.1249999895833298},{"name":"A4","midi":69,"time":106.22726387499972,"velocity":0.7874015748031497,"duration":0.1249999895833298},{"name":"G4","midi":67,"time":106.36362749999972,"velocity":0.7874015748031497,"duration":0.1249999895833298},{"name":"F#4","midi":66,"time":106.49999112499972,"velocity":0.7874015748031497,"duration":0.1249999895833298},{"name":"E4","midi":64,"time":106.63635474999973,"velocity":0.7874015748031497,"duration":0.1249999895833298},{"name":"F#4","midi":66,"time":106.77271837499973,"velocity":0.7874015748031497,"duration":0.1249999895833298},{"name":"G4","midi":67,"time":106.90908199999973,"velocity":0.7874015748031497,"duration":0.1249999895833298},{"name":"A4","midi":69,"time":107.04544562499973,"velocity":0.7874015748031497,"duration":0.1249999895833298},{"name":"B4","midi":71,"time":107.18180924999973,"velocity":0.7874015748031497,"duration":0.1249999895833298},{"name":"C#5","midi":73,"time":107.31817287499973,"velocity":0.7874015748031497,"duration":0.1249999895833298},{"name":"D#5","midi":75,"time":107.45453649999973,"velocity":0.7874015748031497,"duration":0.1249999895833298},{"name":"E5","midi":76,"time":107.59090012499973,"velocity":0.7874015748031497,"duration":0.1249999895833298},{"name":"D#5","midi":75,"time":107.72726374999974,"velocity":0.7874015748031497,"duration":0.1249999895833298},{"name":"C#5","midi":73,"time":107.86362737499974,"velocity":0.7874015748031497,"duration":0.1249999895833298},{"name":"B4","midi":71,"time":107.99999099999974,"velocity":0.7874015748031497,"duration":0.1249999895833298},{"name":"A4","midi":69,"time":108.13635462499974,"velocity":0.7874015748031497,"duration":0.1249999895833298},{"name":"G4","midi":67,"time":108.27271824999974,"velocity":0.7874015748031497,"duration":0.1249999895833298},{"name":"F#4","midi":66,"time":108.40908187499974,"velocity":0.7874015748031497,"duration":0.1249999895833298},{"name":"E4","midi":64,"time":108.54544549999974,"velocity":0.7874015748031497,"duration":0.5340908645833338},{"name":"E5","midi":76,"time":109.09089999999975,"velocity":0.7874015748031497,"duration":0.5454545000000053},{"name":"D#5","midi":75,"time":109.63635449999975,"velocity":0.7874015748031497,"duration":0.18181816666667316},{"name":"D4","midi":62,"time":110.18180899999976,"velocity":0.7874015748031497,"duration":0.5454545000000053},{"name":"D5","midi":74,"time":110.72726349999976,"velocity":0.7874015748031497,"duration":0.5454545000000053},{"name":"C#5","midi":73,"time":111.27271799999977,"velocity":0.7874015748031497,"duration":0.18181816666667316},{"name":"C4","midi":60,"time":111.81817249999978,"velocity":0.7874015748031497,"duration":0.5340908645833338},{"name":"C5","midi":72,"time":112.36362699999978,"velocity":0.7874015748031497,"duration":0.5340908645833338},{"name":"B4","midi":71,"time":112.90908149999979,"velocity":0.7874015748031497,"duration":0.5340908645833338},{"name":"C#5","midi":73,"time":113.45453599999979,"velocity":0.7874015748031497,"duration":0.5340908645833338},{"name":"D#5","midi":75,"time":113.9999904999998,"velocity":0.7874015748031497,"duration":1.3522726145833417},{"name":"D5","midi":74,"time":114.67044498958313,"velocity":0.007874015748031496,"duration":0},{"name":"D5","midi":74,"time":114.67044498958313,"velocity":0.007874015748031496,"duration":0},{"name":"D5","midi":74,"time":114.67044498958313,"velocity":0.007874015748031496,"duration":0},{"name":"D5","midi":74,"time":114.67044498958313,"velocity":0.007874015748031496,"duration":0},{"name":"A#4","midi":70,"time":114.6818086249998,"velocity":0.7874015748031497,"duration":0.1249999895833298},{"name":"B4","midi":71,"time":114.8181722499998,"velocity":0.7874015748031497,"duration":0.39772723958333245},{"name":"D#5","midi":75,"time":115.22726312499981,"velocity":0.7874015748031497,"duration":0.6704544895833351},{"name":"E5","midi":76,"time":115.36362674999981,"velocity":0.7874015748031497,"duration":0.39772723958333245},{"name":"D#5","midi":75,"time":115.77271762499981,"velocity":0.7874015748031497,"duration":1.5795453229166867},{"name":"A5","midi":81,"time":115.90908124999982,"velocity":0.7874015748031497,"duration":0.39772723958333245},{"name":"G5","midi":79,"time":116.31817212499982,"velocity":0.7874015748031497,"duration":0.1249999895833298},{"name":"F#5","midi":78,"time":116.45453574999982,"velocity":0.7874015748031497,"duration":0.1249999895833298},{"name":"E5","midi":76,"time":116.59089937499982,"velocity":0.7874015748031497,"duration":0.1249999895833298},{"name":"F#5","midi":78,"time":116.72726299999982,"velocity":0.7874015748031497,"duration":0.5340908645833338},{"name":"D#5","midi":75,"time":117.27271749999983,"velocity":0.7874015748031497,"duration":0.26136361458335955},{"name":"E5","midi":76,"time":117.36362658333317,"velocity":0.7874015748031497,"duration":0.07954544791667217},{"name":"D#5","midi":75,"time":117.45453566666652,"velocity":0.7874015748031497,"duration":0.3522726979166748},{"name":"C#5","midi":73,"time":117.54544474999986,"velocity":0.7874015748031497,"duration":0.1249999895833298},{"name":"D#5","midi":75,"time":117.68180837499986,"velocity":0.7874015748031497,"duration":1.5909089583333298},{"name":"E5","midi":76,"time":117.81817199999986,"velocity":0.7874015748031497,"duration":1.4545453333333285}],"controlChanges":{"7":[{"number":7,"time":0,"value":0.905511811023622}],"10":[{"number":10,"time":0,"value":0.6220472440944882}]},"id":1,"name":"R.H.","instrumentNumber":6,"instrument":"harpsichord","instrumentFamily":"piano","channelNumber":0,"isPercussion":false},{"startTime":2.1818180000000003,"duration":119.27271733333326,"length":491,"notes":[{"name":"E2","midi":40,"time":2.1818180000000003,"velocity":0.7480314960629921,"duration":0.5454545},{"name":"E3","midi":52,"time":2.7272725,"velocity":0.7480314960629921,"duration":0.5454545},{"name":"D#3","midi":51,"time":3.272727,"velocity":0.7480314960629921,"duration":0.1818181666666665},{"name":"D2","midi":38,"time":3.8181815,"velocity":0.7480314960629921,"duration":0.5454545000000004},{"name":"D3","midi":50,"time":4.3636360000000005,"velocity":0.7480314960629921,"duration":0.5454545},{"name":"C#3","midi":49,"time":4.9090905000000005,"velocity":0.7480314960629921,"duration":0.18181816666666695},{"name":"C2","midi":36,"time":5.454545,"velocity":0.7480314960629921,"duration":0.5340908645833329},{"name":"C3","midi":48,"time":5.9999995,"velocity":0.7480314960629921,"duration":0.5340908645833329},{"name":"B2","midi":47,"time":6.545454,"velocity":0.7480314960629921,"duration":0.5340908645833329},{"name":"C#3","midi":49,"time":7.0909085,"velocity":0.7480314960629921,"duration":0.5340908645833329},{"name":"D#3","midi":51,"time":7.636363,"velocity":0.7480314960629921,"duration":0.5340908645833329},{"name":"E3","midi":52,"time":8.1818175,"velocity":0.7480314960629921,"duration":0.5340908645833338},{"name":"D3","midi":50,"time":8.727272,"velocity":0.7480314960629921,"duration":0.5340908645833338},{"name":"C#3","midi":49,"time":9.2727265,"velocity":0.7480314960629921,"duration":0.5340908645833338},{"name":"B2","midi":47,"time":9.818181,"velocity":0.7480314960629921,"duration":0.12499998958333336},{"name":"C#3","midi":49,"time":9.954544624999999,"velocity":0.7480314960629921,"duration":0.12499998958333336},{"name":"D3","midi":50,"time":10.090908249999998,"velocity":0.7480314960629921,"duration":0.12499998958333336},{"name":"E3","midi":52,"time":10.227271874999998,"velocity":0.7480314960629921,"duration":0.12499998958333336},{"name":"F#3","midi":54,"time":10.363635499999997,"velocity":0.7480314960629921,"duration":0.12499998958333336},{"name":"G#3","midi":56,"time":10.499999124999997,"velocity":0.7480314960629921,"duration":0.12499998958333336},{"name":"A#3","midi":58,"time":10.636362749999996,"velocity":0.7480314960629921,"duration":0.12499998958333336},{"name":"B3","midi":59,"time":10.772726374999996,"velocity":0.7480314960629921,"duration":0.12499998958333336},{"name":"A#3","midi":58,"time":10.909089999999996,"velocity":0.7480314960629921,"duration":0.12499998958333336},{"name":"G#3","midi":56,"time":11.045453624999995,"velocity":0.7480314960629921,"duration":0.12499998958333336},{"name":"F#3","midi":54,"time":11.181817249999995,"velocity":0.7480314960629921,"duration":0.12499998958333336},{"name":"E3","midi":52,"time":11.318180874999994,"velocity":0.7480314960629921,"duration":0.12499998958333336},{"name":"D3","midi":50,"time":11.454544499999994,"velocity":0.7480314960629921,"duration":0.12499998958333336},{"name":"C#3","midi":49,"time":11.590908124999993,"velocity":0.7480314960629921,"duration":0.12499998958333336},{"name":"B2","midi":47,"time":11.727271749999993,"velocity":0.7480314960629921,"duration":0.2613636145833329},{"name":"G3","midi":55,"time":12.272726249999993,"velocity":0.7480314960629921,"duration":0.2613636145833329},{"name":"F#3","midi":54,"time":12.545453499999992,"velocity":0.7480314960629921,"duration":0.2613636145833329},{"name":"F3","midi":53,"time":12.818180749999991,"velocity":0.7480314960629921,"duration":0.2613636145833329},{"name":"F3","midi":53,"time":13.09090799999999,"velocity":0.7480314960629921,"duration":0.12499998958333336},{"name":"F#3","midi":54,"time":13.22727162499999,"velocity":0.7480314960629921,"duration":0.12499998958333336},{"name":"F#2","midi":42,"time":13.363635249999989,"velocity":0.7480314960629921,"duration":0.18181816666666606},{"name":"F3","midi":53,"time":13.909089749999989,"velocity":0.7480314960629921,"duration":0.2613636145833329},{"name":"E3","midi":52,"time":14.181816999999988,"velocity":0.7480314960629921,"duration":0.2613636145833329},{"name":"D#3","midi":51,"time":14.454544249999987,"velocity":0.7480314960629921,"duration":0.2613636145833329},{"name":"D#3","midi":51,"time":14.727271499999986,"velocity":0.7480314960629921,"duration":0.12499998958333336},{"name":"E3","midi":52,"time":14.863635124999986,"velocity":0.7480314960629921,"duration":0.12499998958333336},{"name":"E2","midi":40,"time":14.999998749999985,"velocity":0.7480314960629921,"duration":0.18181816666666606},{"name":"E3","midi":52,"time":15.409089624999984,"velocity":0.7480314960629921,"duration":0.12499998958333336},{"name":"G3","midi":55,"time":15.545453249999984,"velocity":0.7480314960629921,"duration":0.12499998958333336},{"name":"B3","midi":59,"time":15.681816874999983,"velocity":0.7480314960629921,"duration":0.12499998958333336},{"name":"E4","midi":64,"time":15.818180499999983,"velocity":0.7480314960629921,"duration":0.12499998958333336},{"name":"D4","midi":62,"time":15.954544124999982,"velocity":0.7480314960629921,"duration":0.12499998958333158},{"name":"C#4","midi":61,"time":16.09090774999998,"velocity":0.7480314960629921,"duration":0.12499998958333336},{"name":"B3","midi":59,"time":16.227271374999983,"velocity":0.7480314960629921,"duration":0.12499998958333336},{"name":"A#3","midi":58,"time":16.363634999999984,"velocity":0.7480314960629921,"duration":0.12499998958333336},{"name":"C#4","midi":61,"time":16.499998624999986,"velocity":0.7480314960629921,"duration":0.12499998958333336},{"name":"D4","midi":62,"time":16.636362249999987,"velocity":0.7480314960629921,"duration":0.39772723958333245},{"name":"B3","midi":59,"time":17.045453124999987,"velocity":0.7480314960629921,"duration":0.12499998958333336},{"name":"F3","midi":53,"time":17.18181674999999,"velocity":0.7480314960629921,"duration":0.39772723958333245},{"name":"E3","midi":52,"time":17.59090762499999,"velocity":0.7480314960629921,"duration":0.12499998958333336},{"name":"C#4","midi":61,"time":17.72727124999999,"velocity":0.7480314960629921,"duration":0.12499998958333336},{"name":"E3","midi":52,"time":17.863634874999992,"velocity":0.7480314960629921,"duration":0.12499998958333336},{"name":"E3","midi":52,"time":17.999998499999993,"velocity":0.7480314960629921,"duration":0.12499998958333336},{"name":"C#3","midi":49,"time":18.136362124999994,"velocity":0.7480314960629921,"duration":0.12499998958333336},{"name":"D3","midi":50,"time":18.272725749999996,"velocity":0.7480314960629921,"duration":0.12499998958333336},{"name":"G3","midi":55,"time":18.409089374999997,"velocity":0.7480314960629921,"duration":0.12499998958333336},{"name":"G3","midi":55,"time":18.545453,"velocity":0.7480314960629921,"duration":0.12499998958333336},{"name":"E3","midi":52,"time":18.681816625,"velocity":0.7480314960629921,"duration":0.12499998958333336},{"name":"F#3","midi":54,"time":18.81818025,"velocity":0.7480314960629921,"duration":0.12499998958333336},{"name":"E4","midi":64,"time":18.954543875000002,"velocity":0.7480314960629921,"duration":0.12499998958333336},{"name":"D4","midi":62,"time":19.090907500000004,"velocity":0.7480314960629921,"duration":0.12499998958333336},{"name":"C#4","midi":61,"time":19.227271125000005,"velocity":0.7480314960629921,"duration":0.12499998958333336},{"name":"D4","midi":62,"time":19.363634750000006,"velocity":0.7480314960629921,"duration":0.12499998958333336},{"name":"G#3","midi":56,"time":19.499998375000008,"velocity":0.7480314960629921,"duration":0.12499998958333336},{"name":"C4","midi":60,"time":19.63636200000001,"velocity":0.7480314960629921,"duration":0.5340908645833338},{"name":"C3","midi":48,"time":20.72727100000001,"velocity":0.7480314960629921,"duration":0.6704544895833351},{"name":"A2","midi":45,"time":21.409089125000012,"velocity":0.7480314960629921,"duration":0.12499998958333336},{"name":"B2","midi":47,"time":21.545452750000013,"velocity":0.7480314960629921,"duration":0.12499998958333336},{"name":"F#3","midi":54,"time":21.681816375000015,"velocity":0.7480314960629921,"duration":0.12499998958333336},{"name":"F#3","midi":54,"time":21.818180000000016,"velocity":0.7480314960629921,"duration":0.12499998958333336},{"name":"D#3","midi":51,"time":21.954543625000017,"velocity":0.7480314960629921,"duration":0.12499998958333336},{"name":"E3","midi":52,"time":22.09090725000002,"velocity":0.7480314960629921,"duration":0.12499998958333336},{"name":"C4","midi":60,"time":22.22727087500002,"velocity":0.7480314960629921,"duration":0.12499998958333336},{"name":"B3","midi":59,"time":22.36363450000002,"velocity":0.7480314960629921,"duration":0.12499998958333336},{"name":"A3","midi":57,"time":22.499998125000022,"velocity":0.7480314960629921,"duration":0.12499998958333336},{"name":"B3","midi":59,"time":22.636361750000024,"velocity":0.7480314960629921,"duration":0.12499998958333336},{"name":"E3","midi":52,"time":22.772725375000025,"velocity":0.7480314960629921,"duration":0.12499998958333336},{"name":"A3","midi":57,"time":22.909089000000026,"velocity":0.7480314960629921,"duration":0.5340908645833338},{"name":"A2","midi":45,"time":23.999998000000026,"velocity":0.7480314960629921,"duration":0.6704544895833351},{"name":"F#2","midi":42,"time":24.68181612500003,"velocity":0.7480314960629921,"duration":0.12499998958333336},{"name":"G2","midi":43,"time":24.81817975000003,"velocity":0.7480314960629921,"duration":0.12499998958333336},{"name":"C3","midi":48,"time":24.954543375000032,"velocity":0.7480314960629921,"duration":0.12499998958333336},{"name":"C3","midi":48,"time":25.090907000000033,"velocity":0.7480314960629921,"duration":0.12499998958333336},{"name":"A2","midi":45,"time":25.227270625000035,"velocity":0.7480314960629921,"duration":0.12499998958333336},{"name":"B2","midi":47,"time":25.363634250000036,"velocity":0.7480314960629921,"duration":0.12499998958333336},{"name":"A3","midi":57,"time":25.499997875000037,"velocity":0.7480314960629921,"duration":0.12499998958333336},{"name":"G3","midi":55,"time":25.63636150000004,"velocity":0.7480314960629921,"duration":0.12499998958333336},{"name":"F#3","midi":54,"time":25.77272512500004,"velocity":0.7480314960629921,"duration":0.12499998958333336},{"name":"G3","midi":55,"time":25.90908875000004,"velocity":0.7480314960629921,"duration":0.12499998958333336},{"name":"C#3","midi":49,"time":26.045452375000043,"velocity":0.7480314960629921,"duration":0.12499998958333336},{"name":"F#3","midi":54,"time":26.181816000000044,"velocity":0.7480314960629921,"duration":0.5340908645833338},{"name":"B2","midi":47,"time":27.272725000000044,"velocity":0.7480314960629921,"duration":0.5340908645833338},{"name":"E3","midi":52,"time":27.818179500000046,"velocity":0.7480314960629921,"duration":0.12499998958333336},{"name":"F#3","midi":54,"time":27.954543125000047,"velocity":0.7480314960629921,"duration":0.12499998958333336},{"name":"G3","midi":55,"time":28.090906750000048,"velocity":0.7480314960629921,"duration":0.12499998958333336},{"name":"A3","midi":57,"time":28.22727037500005,"velocity":0.7480314960629921,"duration":0.12499998958333336},{"name":"B3","midi":59,"time":28.36363400000005,"velocity":0.7480314960629921,"duration":0.12499998958333336},{"name":"C#4","midi":61,"time":28.499997625000052,"velocity":0.7480314960629921,"duration":0.12499998958333336},{"name":"D#4","midi":63,"time":28.636361250000054,"velocity":0.7480314960629921,"duration":0.12499998958333336},{"name":"E4","midi":64,"time":28.772724875000055,"velocity":0.7480314960629921,"duration":0.12499998958333336},{"name":"D#4","midi":63,"time":28.909088500000056,"velocity":0.7480314960629921,"duration":0.12499998958333336},{"name":"C#4","midi":61,"time":29.045452125000057,"velocity":0.7480314960629921,"duration":0.12499998958333336},{"name":"B3","midi":59,"time":29.18181575000006,"velocity":0.7480314960629921,"duration":0.12499998958333336},{"name":"A3","midi":57,"time":29.31817937500006,"velocity":0.7480314960629921,"duration":0.12499998958333336},{"name":"G3","midi":55,"time":29.45454300000006,"velocity":0.7480314960629921,"duration":0.12499998958333336},{"name":"F#3","midi":54,"time":29.590906625000063,"velocity":0.7480314960629921,"duration":0.12499998958333336},{"name":"E3","midi":52,"time":29.727270250000064,"velocity":0.7480314960629921,"duration":0.12499998958333336},{"name":"F#3","midi":54,"time":29.863633875000065,"velocity":0.7480314960629921,"duration":0.12499998958333336},{"name":"G3","midi":55,"time":29.999997500000067,"velocity":0.7480314960629921,"duration":0.12499998958333336},{"name":"A3","midi":57,"time":30.136361125000068,"velocity":0.7480314960629921,"duration":0.12499998958333336},{"name":"B3","midi":59,"time":30.27272475000007,"velocity":0.7480314960629921,"duration":0.12499998958333336},{"name":"C4","midi":60,"time":30.40908837500007,"velocity":0.7480314960629921,"duration":0.12499998958333336},{"name":"B3","midi":59,"time":30.545452000000072,"velocity":0.7480314960629921,"duration":0.12499998958333336},{"name":"A3","midi":57,"time":30.681815625000073,"velocity":0.7480314960629921,"duration":0.12499998958333336},{"name":"G3","midi":55,"time":30.818179250000075,"velocity":0.7480314960629921,"duration":0.12499998958333336},{"name":"F#3","midi":54,"time":30.954542875000076,"velocity":0.7480314960629921,"duration":0.12499998958333336},{"name":"E3","midi":52,"time":31.090906500000077,"velocity":0.7480314960629921,"duration":0.12499998958333336},{"name":"F#3","midi":54,"time":31.22727012500008,"velocity":0.7480314960629921,"duration":0.12499998958333336},{"name":"G3","midi":55,"time":31.36363375000008,"velocity":0.7480314960629921,"duration":0.12499998958333336},{"name":"A3","midi":57,"time":31.49999737500008,"velocity":0.7480314960629921,"duration":0.12499998958333336},{"name":"B3","midi":59,"time":31.636361000000083,"velocity":0.7480314960629921,"duration":0.12499998958333336},{"name":"C#4","midi":61,"time":31.772724625000084,"velocity":0.7480314960629921,"duration":0.12499998958333336},{"name":"D#4","midi":63,"time":31.909088250000085,"velocity":0.7480314960629921,"duration":0.12499998958333336},{"name":"E4","midi":64,"time":32.04545187500008,"velocity":0.7480314960629921,"duration":0.1249999895833298},{"name":"D#4","midi":63,"time":32.18181550000008,"velocity":0.7480314960629921,"duration":0.1249999895833298},{"name":"C#4","midi":61,"time":32.31817912500007,"velocity":0.7480314960629921,"duration":0.1249999895833298},{"name":"B3","midi":59,"time":32.454542750000066,"velocity":0.7480314960629921,"duration":0.1249999895833298},{"name":"A3","midi":57,"time":32.59090637500006,"velocity":0.7480314960629921,"duration":0.1249999895833298},{"name":"G3","midi":55,"time":32.727270000000054,"velocity":0.7480314960629921,"duration":0.1249999895833298},{"name":"F#3","midi":54,"time":32.86363362500005,"velocity":0.7480314960629921,"duration":0.1249999895833298},{"name":"E3","midi":52,"time":32.99999725000004,"velocity":0.7480314960629921,"duration":0.1249999895833298},{"name":"F#3","midi":54,"time":33.13636087500004,"velocity":0.7480314960629921,"duration":0.1249999895833298},{"name":"G3","midi":55,"time":33.27272450000003,"velocity":0.7480314960629921,"duration":0.1249999895833298},{"name":"A3","midi":57,"time":33.409088125000025,"velocity":0.7480314960629921,"duration":0.1249999895833298},{"name":"B3","midi":59,"time":33.54545175000002,"velocity":0.7480314960629921,"duration":0.1249999895833298},{"name":"C4","midi":60,"time":33.68181537500001,"velocity":0.7480314960629921,"duration":0.1249999895833298},{"name":"B3","midi":59,"time":33.81817900000001,"velocity":0.7480314960629921,"duration":0.1249999895833298},{"name":"A3","midi":57,"time":33.954542625,"velocity":0.7480314960629921,"duration":0.1249999895833298},{"name":"G3","midi":55,"time":34.090906249999996,"velocity":0.7480314960629921,"duration":0.1249999895833298},{"name":"F#3","midi":54,"time":34.22726987499999,"velocity":0.7480314960629921,"duration":0.1249999895833298},{"name":"E3","midi":52,"time":34.363633499999985,"velocity":0.7480314960629921,"duration":0.18181816666666606},{"name":"E4","midi":64,"time":34.90908799999998,"velocity":0.7480314960629921,"duration":0.5340908645833338},{"name":"E3","midi":52,"time":35.45454249999998,"velocity":0.7480314960629921,"duration":0.5340908645833338},{"name":"D#3","midi":51,"time":35.99999699999998,"velocity":0.7480314960629921,"duration":0.5340908645833338},{"name":"D4","midi":62,"time":36.54545149999998,"velocity":0.7480314960629921,"duration":0.5340908645833338},{"name":"D3","midi":50,"time":37.090905999999976,"velocity":0.7480314960629921,"duration":0.5340908645833338},{"name":"C#3","midi":49,"time":37.636360499999974,"velocity":0.7480314960629921,"duration":0.5340908645833338},{"name":"C4","midi":60,"time":38.18181499999997,"velocity":0.7480314960629921,"duration":0.5340908645833338},{"name":"C3","midi":48,"time":38.72726949999997,"velocity":0.7480314960629921,"duration":0.5340908645833338},{"name":"B2","midi":47,"time":39.27272399999997,"velocity":0.7480314960629921,"duration":0.5454544999999982},{"name":"C#3","midi":49,"time":39.818178499999966,"velocity":0.7480314960629921,"duration":0.5454544999999982},{"name":"D#3","midi":51,"time":40.363632999999965,"velocity":0.7480314960629921,"duration":0.5454544999999982},{"name":"E3","midi":52,"time":40.90908749999996,"velocity":0.7480314960629921,"duration":0.5454544999999982},{"name":"F#3","midi":54,"time":41.45454199999996,"velocity":0.7480314960629921,"duration":0.5454544999999982},{"name":"G#3","midi":56,"time":41.99999649999996,"velocity":0.7480314960629921,"duration":0.18181816666666606},{"name":"A2","midi":45,"time":42.54545099999996,"velocity":0.7480314960629921,"duration":0.5454544999999982},{"name":"B2","midi":47,"time":43.090905499999955,"velocity":0.7480314960629921,"duration":0.5454544999999982},{"name":"C#3","midi":49,"time":43.636359999999954,"velocity":0.7480314960629921,"duration":0.5454544999999982},{"name":"D3","midi":50,"time":44.18181449999995,"velocity":0.7480314960629921,"duration":0.5454544999999982},{"name":"E3","midi":52,"time":44.72726899999995,"velocity":0.7480314960629921,"duration":0.5454544999999982},{"name":"F#3","midi":54,"time":45.27272349999995,"velocity":0.7480314960629921,"duration":0.18181816666666606},{"name":"G2","midi":43,"time":45.818177999999946,"velocity":0.7480314960629921,"duration":0.1249999895833298},{"name":"A2","midi":45,"time":45.95454162499994,"velocity":0.7480314960629921,"duration":0.1249999895833298},{"name":"B2","midi":47,"time":46.090905249999935,"velocity":0.7480314960629921,"duration":0.1249999895833298},{"name":"C3","midi":48,"time":46.22726887499993,"velocity":0.7480314960629921,"duration":0.1249999895833298},{"name":"D3","midi":50,"time":46.36363249999992,"velocity":0.7480314960629921,"duration":0.1249999895833298},{"name":"E3","midi":52,"time":46.49999612499992,"velocity":0.7480314960629921,"duration":0.1249999895833298},{"name":"F#3","midi":54,"time":46.63635974999991,"velocity":0.7480314960629921,"duration":0.1249999895833298},{"name":"G3","midi":55,"time":46.772723374999906,"velocity":0.7480314960629921,"duration":0.1249999895833298},{"name":"F#3","midi":54,"time":46.9090869999999,"velocity":0.7480314960629921,"duration":0.1249999895833298},{"name":"E3","midi":52,"time":47.045450624999894,"velocity":0.7480314960629921,"duration":0.1249999895833298},{"name":"D3","midi":50,"time":47.18181424999989,"velocity":0.7480314960629921,"duration":0.1249999895833298},{"name":"C3","midi":48,"time":47.31817787499988,"velocity":0.7480314960629921,"duration":0.1249999895833298},{"name":"B2","midi":47,"time":47.45454149999988,"velocity":0.7480314960629921,"duration":0.1249999895833298},{"name":"A2","midi":45,"time":47.59090512499987,"velocity":0.7480314960629921,"duration":0.1249999895833298},{"name":"G2","midi":43,"time":47.727268749999865,"velocity":0.7480314960629921,"duration":0.2613636145833311},{"name":"D#3","midi":51,"time":48.27272324999986,"velocity":0.7480314960629921,"duration":0.2613636145833311},{"name":"D3","midi":50,"time":48.54545049999986,"velocity":0.7480314960629921,"duration":0.2613636145833311},{"name":"C#3","midi":49,"time":48.818177749999855,"velocity":0.7480314960629921,"duration":0.2613636145833311},{"name":"C#3","midi":49,"time":49.09090499999985,"velocity":0.7480314960629921,"duration":0.1249999895833298},{"name":"D3","midi":50,"time":49.227268624999844,"velocity":0.7480314960629921,"duration":0.1249999895833298},{"name":"D2","midi":38,"time":49.36363224999984,"velocity":0.7480314960629921,"duration":0.18181816666666606},{"name":"C#3","midi":49,"time":49.90908674999984,"velocity":0.7480314960629921,"duration":0.2613636145833311},{"name":"C3","midi":48,"time":50.18181399999983,"velocity":0.7480314960629921,"duration":0.2613636145833311},{"name":"B2","midi":47,"time":50.45454124999983,"velocity":0.7480314960629921,"duration":0.2613636145833311},{"name":"B2","midi":47,"time":50.72726849999982,"velocity":0.7480314960629921,"duration":0.1249999895833298},{"name":"C3","midi":48,"time":50.86363212499982,"velocity":0.7480314960629921,"duration":0.1249999895833298},{"name":"C2","midi":36,"time":50.99999574999981,"velocity":0.7480314960629921,"duration":0.18181816666666606},{"name":"C3","midi":48,"time":51.40908662499981,"velocity":0.7480314960629921,"duration":0.1249999895833298},{"name":"D#3","midi":51,"time":51.5454502499998,"velocity":0.7480314960629921,"duration":0.1249999895833298},{"name":"G3","midi":55,"time":51.6818138749998,"velocity":0.7480314960629921,"duration":0.1249999895833298},{"name":"C4","midi":60,"time":51.81817749999979,"velocity":0.7480314960629921,"duration":0.1249999895833298},{"name":"A#3","midi":58,"time":51.954541124999785,"velocity":0.7480314960629921,"duration":0.1249999895833298},{"name":"A3","midi":57,"time":52.09090474999978,"velocity":0.7480314960629921,"duration":0.1249999895833298},{"name":"G3","midi":55,"time":52.227268374999774,"velocity":0.7480314960629921,"duration":0.1249999895833298},{"name":"F#3","midi":54,"time":52.36363199999977,"velocity":0.7480314960629921,"duration":0.1249999895833298},{"name":"A3","midi":57,"time":52.49999562499976,"velocity":0.7480314960629921,"duration":0.1249999895833298},{"name":"A#3","midi":58,"time":52.63635924999976,"velocity":0.7480314960629921,"duration":0.39772723958333245},{"name":"G3","midi":55,"time":53.04545012499975,"velocity":0.7480314960629921,"duration":0.1249999895833298},{"name":"C#3","midi":49,"time":53.18181374999975,"velocity":0.7480314960629921,"duration":0.39772723958333245},{"name":"C3","midi":48,"time":53.590904624999744,"velocity":0.7480314960629921,"duration":0.1249999895833298},{"name":"A3","midi":57,"time":53.72726824999974,"velocity":0.7480314960629921,"duration":0.1249999895833298},{"name":"C3","midi":48,"time":53.86363187499973,"velocity":0.7480314960629921,"duration":0.1249999895833298},{"name":"C3","midi":48,"time":53.99999549999973,"velocity":0.7480314960629921,"duration":0.1249999895833298},{"name":"A2","midi":45,"time":54.13635912499972,"velocity":0.7480314960629921,"duration":0.1249999895833298},{"name":"B2","midi":47,"time":54.272722749999716,"velocity":0.7480314960629921,"duration":0.1249999895833298},{"name":"E3","midi":52,"time":54.40908637499971,"velocity":0.7480314960629921,"duration":0.1249999895833298},{"name":"E3","midi":52,"time":54.545449999999704,"velocity":0.7480314960629921,"duration":0.1249999895833298},{"name":"C#3","midi":49,"time":54.6818136249997,"velocity":0.7480314960629921,"duration":0.1249999895833298},{"name":"D3","midi":50,"time":54.81817724999969,"velocity":0.7480314960629921,"duration":0.1249999895833298},{"name":"A3","midi":57,"time":54.95454087499969,"velocity":0.7480314960629921,"duration":0.1249999895833298},{"name":"G3","midi":55,"time":55.09090449999968,"velocity":0.7480314960629921,"duration":0.1249999895833298},{"name":"F#3","midi":54,"time":55.227268124999675,"velocity":0.7480314960629921,"duration":0.1249999895833298},{"name":"G3","midi":55,"time":55.36363174999967,"velocity":0.7480314960629921,"duration":0.1249999895833298},{"name":"C#3","midi":49,"time":55.49999537499966,"velocity":0.7480314960629921,"duration":0.1249999895833298},{"name":"F#3","midi":54,"time":55.63635899999966,"velocity":0.7480314960629921,"duration":0.1249999895833298},{"name":"E3","midi":52,"time":55.77272262499965,"velocity":0.7480314960629921,"duration":0.1249999895833298},{"name":"D3","midi":50,"time":55.909086249999646,"velocity":0.7480314960629921,"duration":0.1249999895833298},{"name":"E3","midi":52,"time":56.04544987499964,"velocity":0.7480314960629921,"duration":0.1249999895833298},{"name":"F#3","midi":54,"time":56.181813499999635,"velocity":0.7480314960629921,"duration":0.1249999895833298},{"name":"G3","midi":55,"time":56.31817712499963,"velocity":0.7480314960629921,"duration":0.1249999895833298},{"name":"A3","midi":57,"time":56.45454074999962,"velocity":0.7480314960629921,"duration":0.1249999895833298},{"name":"B3","midi":59,"time":56.59090437499962,"velocity":0.7480314960629921,"duration":0.1249999895833298},{"name":"C#4","midi":61,"time":56.72726799999961,"velocity":0.7480314960629921,"duration":0.1249999895833298},{"name":"D4","midi":62,"time":56.863631624999606,"velocity":0.7480314960629921,"duration":0.1249999895833298},{"name":"C#4","midi":61,"time":56.9999952499996,"velocity":0.7480314960629921,"duration":0.1249999895833298},{"name":"B3","midi":59,"time":57.136358874999594,"velocity":0.7480314960629921,"duration":0.1249999895833298},{"name":"A3","midi":57,"time":57.27272249999959,"velocity":0.7480314960629921,"duration":0.1249999895833298},{"name":"G3","midi":55,"time":57.40908612499958,"velocity":0.7480314960629921,"duration":0.1249999895833298},{"name":"F#3","midi":54,"time":57.54544974999958,"velocity":0.7480314960629921,"duration":0.1249999895833298},{"name":"E3","midi":52,"time":57.68181337499957,"velocity":0.7480314960629921,"duration":0.1249999895833298},{"name":"D3","midi":50,"time":57.818176999999565,"velocity":0.7480314960629921,"duration":0.5340908645833338},{"name":"D4","midi":62,"time":58.36363149999956,"velocity":0.7480314960629921,"duration":0.5454544999999982},{"name":"C#4","midi":61,"time":58.90908599999956,"velocity":0.7480314960629921,"duration":0.18181816666666606},{"name":"C3","midi":48,"time":59.45454049999956,"velocity":0.7480314960629921,"duration":0.5454544999999982},{"name":"C4","midi":60,"time":59.99999499999956,"velocity":0.7480314960629921,"duration":0.5454544999999982},{"name":"B3","midi":59,"time":60.545449499999556,"velocity":0.7480314960629921,"duration":0.18181816666666606},{"name":"A#2","midi":46,"time":61.090903999999554,"velocity":0.7480314960629921,"duration":0.5340908645833338},{"name":"A#3","midi":58,"time":61.63635849999955,"velocity":0.7480314960629921,"duration":0.5340908645833338},{"name":"A3","midi":57,"time":62.18181299999955,"velocity":0.7480314960629921,"duration":0.5340908645833338},{"name":"B3","midi":59,"time":62.72726749999955,"velocity":0.7480314960629921,"duration":0.5340908645833338},{"name":"C#4","midi":61,"time":63.27272199999955,"velocity":0.7480314960629921,"duration":0.5340908645833338},{"name":"D4","midi":62,"time":63.818176499999545,"velocity":0.7480314960629921,"duration":0.5340908645833267},{"name":"D3","midi":50,"time":64.90908549999953,"velocity":0.7480314960629921,"duration":0.6704544895833351},{"name":"B2","midi":47,"time":65.59090362499954,"velocity":0.7480314960629921,"duration":0.1249999895833298},{"name":"C3","midi":48,"time":65.72726724999954,"velocity":0.7480314960629921,"duration":0.1249999895833298},{"name":"F3","midi":53,"time":65.86363087499954,"velocity":0.7480314960629921,"duration":0.1249999895833298},{"name":"F3","midi":53,"time":65.99999449999954,"velocity":0.7480314960629921,"duration":0.1249999895833298},{"name":"D#3","midi":51,"time":66.13635812499955,"velocity":0.7480314960629921,"duration":0.1249999895833298},{"name":"E3","midi":52,"time":66.27272174999955,"velocity":0.7480314960629921,"duration":0.1249999895833298},{"name":"D4","midi":62,"time":66.40908537499955,"velocity":0.7480314960629921,"duration":0.1249999895833298},{"name":"C4","midi":60,"time":66.54544899999955,"velocity":0.7480314960629921,"duration":0.1249999895833298},{"name":"B3","midi":59,"time":66.68181262499955,"velocity":0.7480314960629921,"duration":0.1249999895833298},{"name":"C4","midi":60,"time":66.81817624999955,"velocity":0.7480314960629921,"duration":0.1249999895833298},{"name":"F#3","midi":54,"time":66.95453987499955,"velocity":0.7480314960629921,"duration":0.1249999895833298},{"name":"B3","midi":59,"time":67.09090349999956,"velocity":0.7480314960629921,"duration":0.5340908645833338},{"name":"B2","midi":47,"time":68.18181249999955,"velocity":0.7480314960629921,"duration":0.6704544895833351},{"name":"G#2","midi":44,"time":68.86363062499956,"velocity":0.7480314960629921,"duration":0.1249999895833298},{"name":"A2","midi":45,"time":68.99999424999956,"velocity":0.7480314960629921,"duration":0.1249999895833298},{"name":"D3","midi":50,"time":69.13635787499956,"velocity":0.7480314960629921,"duration":0.1249999895833298},{"name":"D3","midi":50,"time":69.27272149999956,"velocity":0.7480314960629921,"duration":0.1249999895833298},{"name":"B2","midi":47,"time":69.40908512499956,"velocity":0.7480314960629921,"duration":0.1249999895833298},{"name":"C3","midi":48,"time":69.54544874999957,"velocity":0.7480314960629921,"duration":0.1249999895833298},{"name":"B3","midi":59,"time":69.68181237499957,"velocity":0.7480314960629921,"duration":0.1249999895833298},{"name":"A3","midi":57,"time":69.81817599999957,"velocity":0.7480314960629921,"duration":0.1249999895833298},{"name":"G3","midi":55,"time":69.95453962499957,"velocity":0.7480314960629921,"duration":0.1249999895833298},{"name":"A3","midi":57,"time":70.09090324999957,"velocity":0.7480314960629921,"duration":0.1249999895833298},{"name":"D#3","midi":51,"time":70.22726687499957,"velocity":0.7480314960629921,"duration":0.1249999895833298},{"name":"G3","midi":55,"time":70.36363049999957,"velocity":0.7480314960629921,"duration":0.5340908645833338},{"name":"G2","midi":43,"time":71.45453949999957,"velocity":0.7480314960629921,"duration":0.6704544895833351},{"name":"F2","midi":41,"time":72.13635762499958,"velocity":0.7480314960629921,"duration":0.1249999895833298},{"name":"F#2","midi":42,"time":72.27272124999958,"velocity":0.7480314960629921,"duration":0.1249999895833298},{"name":"B2","midi":47,"time":72.40908487499958,"velocity":0.7480314960629921,"duration":0.1249999895833298},{"name":"B2","midi":47,"time":72.54544849999958,"velocity":0.7480314960629921,"duration":0.1249999895833298},{"name":"G#2","midi":44,"time":72.68181212499958,"velocity":0.7480314960629921,"duration":0.1249999895833298},{"name":"A#2","midi":46,"time":72.81817574999958,"velocity":0.7480314960629921,"duration":0.1249999895833298},{"name":"F#3","midi":54,"time":72.95453937499958,"velocity":0.7480314960629921,"duration":0.1249999895833298},{"name":"E3","midi":52,"time":73.09090299999959,"velocity":0.7480314960629921,"duration":0.1249999895833298},{"name":"D3","midi":50,"time":73.22726662499959,"velocity":0.7480314960629921,"duration":0.1249999895833298},{"name":"E3","midi":52,"time":73.36363024999959,"velocity":0.7480314960629921,"duration":0.1249999895833298},{"name":"A#2","midi":46,"time":73.49999387499959,"velocity":0.7480314960629921,"duration":0.1249999895833298},{"name":"D3","midi":50,"time":73.63635749999959,"velocity":0.7480314960629921,"duration":0.1249999895833298},{"name":"C#3","midi":49,"time":73.77272112499959,"velocity":0.7480314960629921,"duration":0.1249999895833298},{"name":"B2","midi":47,"time":73.9090847499996,"velocity":0.7480314960629921,"duration":0.2613636145833311},{"name":"B2","midi":47,"time":75.27272099999959,"velocity":0.7480314960629921,"duration":0.1249999895833298},{"name":"C#3","midi":49,"time":75.4090846249996,"velocity":0.7480314960629921,"duration":0.1249999895833298},{"name":"D3","midi":50,"time":75.5454482499996,"velocity":0.7480314960629921,"duration":0.1249999895833298},{"name":"E3","midi":52,"time":75.6818118749996,"velocity":0.7480314960629921,"duration":0.1249999895833298},{"name":"F#3","midi":54,"time":75.8181754999996,"velocity":0.7480314960629921,"duration":0.1249999895833298},{"name":"G#3","midi":56,"time":75.9545391249996,"velocity":0.7480314960629921,"duration":0.1249999895833298},{"name":"A#3","midi":58,"time":76.0909027499996,"velocity":0.7480314960629921,"duration":0.1249999895833298},{"name":"B3","midi":59,"time":76.2272663749996,"velocity":0.7480314960629921,"duration":0.1249999895833298},{"name":"A#3","midi":58,"time":76.3636299999996,"velocity":0.7480314960629921,"duration":0.1249999895833298},{"name":"G#3","midi":56,"time":76.4999936249996,"velocity":0.7480314960629921,"duration":0.1249999895833298},{"name":"F#3","midi":54,"time":76.6363572499996,"velocity":0.7480314960629921,"duration":0.1249999895833298},{"name":"E3","midi":52,"time":76.7727208749996,"velocity":0.7480314960629921,"duration":0.1249999895833298},{"name":"D3","midi":50,"time":76.90908449999961,"velocity":0.7480314960629921,"duration":0.1249999895833298},{"name":"C#3","midi":49,"time":77.04544812499961,"velocity":0.7480314960629921,"duration":0.1249999895833298},{"name":"B2","midi":47,"time":77.18181174999961,"velocity":0.7480314960629921,"duration":0.1249999895833298},{"name":"C#3","midi":49,"time":77.31817537499961,"velocity":0.7480314960629921,"duration":0.1249999895833298},{"name":"D3","midi":50,"time":77.45453899999961,"velocity":0.7480314960629921,"duration":0.1249999895833298},{"name":"E3","midi":52,"time":77.59090262499961,"velocity":0.7480314960629921,"duration":0.1249999895833298},{"name":"F#3","midi":54,"time":77.72726624999962,"velocity":0.7480314960629921,"duration":0.1249999895833298},{"name":"G3","midi":55,"time":77.86362987499962,"velocity":0.7480314960629921,"duration":0.1249999895833298},{"name":"F#3","midi":54,"time":77.99999349999962,"velocity":0.7480314960629921,"duration":0.1249999895833298},{"name":"E3","midi":52,"time":78.13635712499962,"velocity":0.7480314960629921,"duration":0.1249999895833298},{"name":"D3","midi":50,"time":78.27272074999962,"velocity":0.7480314960629921,"duration":0.1249999895833298},{"name":"C#3","midi":49,"time":78.40908437499962,"velocity":0.7480314960629921,"duration":0.1249999895833298},{"name":"B2","midi":47,"time":78.54544799999962,"velocity":0.7480314960629921,"duration":0.1249999895833298},{"name":"C#3","midi":49,"time":78.68181162499963,"velocity":0.7480314960629921,"duration":0.1249999895833298},{"name":"D3","midi":50,"time":78.81817524999963,"velocity":0.7480314960629921,"duration":0.1249999895833298},{"name":"E3","midi":52,"time":78.95453887499963,"velocity":0.7480314960629921,"duration":0.1249999895833298},{"name":"F#3","midi":54,"time":79.09090249999963,"velocity":0.7480314960629921,"duration":0.1249999895833298},{"name":"G#3","midi":56,"time":79.22726612499963,"velocity":0.7480314960629921,"duration":0.1249999895833298},{"name":"A#3","midi":58,"time":79.36362974999963,"velocity":0.7480314960629921,"duration":0.1249999895833298},{"name":"B3","midi":59,"time":79.49999337499963,"velocity":0.7480314960629921,"duration":0.1249999895833298},{"name":"A#3","midi":58,"time":79.63635699999963,"velocity":0.7480314960629921,"duration":0.1249999895833298},{"name":"G#3","midi":56,"time":79.77272062499964,"velocity":0.7480314960629921,"duration":0.1249999895833298},{"name":"F#3","midi":54,"time":79.90908424999964,"velocity":0.7480314960629921,"duration":0.1249999895833298},{"name":"E3","midi":52,"time":80.04544787499964,"velocity":0.7480314960629921,"duration":0.1249999895833298},{"name":"D3","midi":50,"time":80.18181149999964,"velocity":0.7480314960629921,"duration":0.1249999895833298},{"name":"C#3","midi":49,"time":80.31817512499964,"velocity":0.7480314960629921,"duration":0.1249999895833298},{"name":"B2","midi":47,"time":80.45453874999964,"velocity":0.7480314960629921,"duration":0.2613636145833311},{"name":"G3","midi":55,"time":80.99999324999963,"velocity":0.7480314960629921,"duration":0.2613636145833311},{"name":"F#3","midi":54,"time":81.27272049999964,"velocity":0.7480314960629921,"duration":0.2613636145833311},{"name":"F3","midi":53,"time":81.54544774999964,"velocity":0.7480314960629921,"duration":0.2613636145833311},{"name":"F3","midi":53,"time":81.81817499999964,"velocity":0.7480314960629921,"duration":0.1249999895833298},{"name":"F#3","midi":54,"time":81.95453862499964,"velocity":0.7480314960629921,"duration":0.1249999895833298},{"name":"F#2","midi":42,"time":82.09090224999964,"velocity":0.7480314960629921,"duration":0.2613636145833311},{"name":"F3","midi":53,"time":82.63635674999963,"velocity":0.7480314960629921,"duration":0.2613636145833311},{"name":"E3","midi":52,"time":82.90908399999964,"velocity":0.7480314960629921,"duration":0.2613636145833311},{"name":"D#3","midi":51,"time":83.18181124999964,"velocity":0.7480314960629921,"duration":0.2613636145833311},{"name":"D#3","midi":51,"time":83.45453849999964,"velocity":0.7480314960629921,"duration":0.1249999895833298},{"name":"E3","midi":52,"time":83.59090212499964,"velocity":0.7480314960629921,"duration":0.1249999895833298},{"name":"E2","midi":40,"time":83.72726574999965,"velocity":0.7480314960629921,"duration":0.2613636145833311},{"name":"E3","midi":52,"time":84.13635662499965,"velocity":0.7480314960629921,"duration":0.1249999895833298},{"name":"G3","midi":55,"time":84.27272024999965,"velocity":0.7480314960629921,"duration":0.1249999895833298},{"name":"B3","midi":59,"time":84.40908387499965,"velocity":0.7480314960629921,"duration":0.1249999895833298},{"name":"E4","midi":64,"time":84.54544749999965,"velocity":0.7480314960629921,"duration":0.1249999895833298},{"name":"D4","midi":62,"time":84.68181112499965,"velocity":0.7480314960629921,"duration":0.1249999895833298},{"name":"C#4","midi":61,"time":84.81817474999966,"velocity":0.7480314960629921,"duration":0.1249999895833298},{"name":"B3","midi":59,"time":84.95453837499966,"velocity":0.7480314960629921,"duration":0.1249999895833298},{"name":"A#3","midi":58,"time":85.09090199999966,"velocity":0.7480314960629921,"duration":0.1249999895833298},{"name":"C#4","midi":61,"time":85.22726562499966,"velocity":0.7480314960629921,"duration":0.1249999895833298},{"name":"D4","midi":62,"time":85.36362924999966,"velocity":0.7480314960629921,"duration":0.39772723958333245},{"name":"B3","midi":59,"time":85.77272012499967,"velocity":0.7480314960629921,"duration":0.1249999895833298},{"name":"F3","midi":53,"time":85.90908374999967,"velocity":0.7480314960629921,"duration":0.39772723958333245},{"name":"E3","midi":52,"time":86.31817462499967,"velocity":0.7480314960629921,"duration":0.1249999895833298},{"name":"C#4","midi":61,"time":86.45453824999967,"velocity":0.7480314960629921,"duration":0.1249999895833298},{"name":"E3","midi":52,"time":86.59090187499967,"velocity":0.7480314960629921,"duration":0.1249999895833298},{"name":"D#3","midi":51,"time":86.72726549999967,"velocity":0.7480314960629921,"duration":0.1249999895833298},{"name":"F#3","midi":54,"time":86.86362912499968,"velocity":0.7480314960629921,"duration":0.1249999895833298},{"name":"G3","midi":55,"time":86.99999274999968,"velocity":0.7480314960629921,"duration":0.39772723958333245},{"name":"E3","midi":52,"time":87.40908362499968,"velocity":0.7480314960629921,"duration":0.1249999895833298},{"name":"A#2","midi":46,"time":87.54544724999968,"velocity":0.7480314960629921,"duration":0.39772723958333245},{"name":"B2","midi":47,"time":87.95453812499969,"velocity":0.7480314960629921,"duration":0.1249999895833298},{"name":"F#3","midi":54,"time":88.09090174999969,"velocity":0.7480314960629921,"duration":0.1249999895833298},{"name":"A3","midi":57,"time":88.22726537499969,"velocity":0.7480314960629921,"duration":0.1249999895833298},{"name":"G#3","midi":56,"time":88.36362899999969,"velocity":0.7480314960629921,"duration":0.1249999895833298},{"name":"B3","midi":59,"time":88.49999262499969,"velocity":0.7480314960629921,"duration":0.1249999895833298},{"name":"C4","midi":60,"time":88.6363562499997,"velocity":0.7480314960629921,"duration":0.39772723958333245},{"name":"A3","midi":57,"time":89.0454471249997,"velocity":0.7480314960629921,"duration":0.1249999895833298},{"name":"D#3","midi":51,"time":89.1818107499997,"velocity":0.7480314960629921,"duration":0.39772723958333245},{"name":"D3","midi":50,"time":89.5909016249997,"velocity":0.7480314960629921,"duration":0.1249999895833298},{"name":"B3","midi":59,"time":89.7272652499997,"velocity":0.7480314960629921,"duration":0.1249999895833298},{"name":"D3","midi":50,"time":89.8636288749997,"velocity":0.7480314960629921,"duration":0.1249999895833298},{"name":"C#3","midi":49,"time":89.9999924999997,"velocity":0.7480314960629921,"duration":0.1249999895833298},{"name":"E3","midi":52,"time":90.13635612499971,"velocity":0.7480314960629921,"duration":0.1249999895833298},{"name":"F3","midi":53,"time":90.27271974999971,"velocity":0.7480314960629921,"duration":0.39772723958333245},{"name":"D3","midi":50,"time":90.68181062499971,"velocity":0.7480314960629921,"duration":0.1249999895833298},{"name":"G#2","midi":44,"time":90.81817424999971,"velocity":0.7480314960629921,"duration":0.39772723958333245},{"name":"A2","midi":45,"time":91.22726512499972,"velocity":0.7480314960629921,"duration":0.1249999895833298},{"name":"E3","midi":52,"time":91.36362874999972,"velocity":0.7480314960629921,"duration":0.1249999895833298},{"name":"G3","midi":55,"time":91.49999237499972,"velocity":0.7480314960629921,"duration":0.1249999895833298},{"name":"F3","midi":53,"time":91.63635599999972,"velocity":0.7480314960629921,"duration":0.1249999895833298},{"name":"E3","midi":52,"time":91.77271962499972,"velocity":0.7480314960629921,"duration":0.1249999895833298},{"name":"D3","midi":50,"time":91.90908324999972,"velocity":0.7480314960629921,"duration":0.2613636145833311},{"name":"D3","midi":50,"time":92.86362862499972,"velocity":0.7480314960629921,"duration":0.1249999895833298},{"name":"E3","midi":52,"time":92.99999224999972,"velocity":0.7480314960629921,"duration":0.1249999895833298},{"name":"F3","midi":53,"time":93.13635587499972,"velocity":0.7480314960629921,"duration":0.1249999895833298},{"name":"E3","midi":52,"time":93.27271949999972,"velocity":0.7480314960629921,"duration":0.1249999895833298},{"name":"D3","midi":50,"time":93.40908312499973,"velocity":0.7480314960629921,"duration":0.1249999895833298},{"name":"C3","midi":48,"time":93.54544674999973,"velocity":0.7480314960629921,"duration":0.1249999895833298},{"name":"B2","midi":47,"time":93.68181037499973,"velocity":0.7480314960629921,"duration":0.1249999895833298},{"name":"A2","midi":45,"time":93.81817399999973,"velocity":0.7480314960629921,"duration":0.1249999895833298},{"name":"G#2","midi":44,"time":93.95453762499973,"velocity":0.7480314960629921,"duration":0.1249999895833298},{"name":"F#2","midi":42,"time":94.09090124999973,"velocity":0.7480314960629921,"duration":0.1249999895833298},{"name":"E2","midi":40,"time":94.22726487499973,"velocity":0.7480314960629921,"duration":0.1249999895833298},{"name":"F#2","midi":42,"time":94.36362849999973,"velocity":0.7480314960629921,"duration":0.1249999895833298},{"name":"G#2","midi":44,"time":94.49999212499974,"velocity":0.7480314960629921,"duration":0.1249999895833298},{"name":"A2","midi":45,"time":94.63635574999974,"velocity":0.7480314960629921,"duration":0.1249999895833298},{"name":"B2","midi":47,"time":94.77271937499974,"velocity":0.7480314960629921,"duration":0.1249999895833298},{"name":"C3","midi":48,"time":94.90908299999974,"velocity":0.7480314960629921,"duration":0.1249999895833298},{"name":"D3","midi":50,"time":95.04544662499974,"velocity":0.7480314960629921,"duration":0.1249999895833298},{"name":"E3","midi":52,"time":95.18181024999974,"velocity":0.7480314960629921,"duration":0.2613636145833311},{"name":"A3","midi":57,"time":96.13635562499974,"velocity":0.7480314960629921,"duration":0.1249999895833298},{"name":"B3","midi":59,"time":96.27271924999974,"velocity":0.7480314960629921,"duration":0.1249999895833298},{"name":"C4","midi":60,"time":96.40908287499974,"velocity":0.7480314960629921,"duration":0.1249999895833298},{"name":"D3","midi":50,"time":96.54544649999974,"velocity":0.7480314960629921,"duration":0.1249999895833298},{"name":"F#3","midi":54,"time":96.68181012499974,"velocity":0.7480314960629921,"duration":0.1249999895833298},{"name":"G3","midi":55,"time":96.81817374999974,"velocity":0.7480314960629921,"duration":0.1249999895833298},{"name":"A3","midi":57,"time":96.95453737499975,"velocity":0.7480314960629921,"duration":0.1249999895833298},{"name":"B3","midi":59,"time":97.09090099999975,"velocity":0.7480314960629921,"duration":0.1249999895833298},{"name":"C#4","midi":61,"time":97.22726462499975,"velocity":0.7480314960629921,"duration":0.1249999895833298},{"name":"D#4","midi":63,"time":97.36362824999975,"velocity":0.7480314960629921,"duration":0.1249999895833298},{"name":"E4","midi":64,"time":97.49999187499975,"velocity":0.7480314960629921,"duration":0.1249999895833298},{"name":"D#4","midi":63,"time":97.63635549999975,"velocity":0.7480314960629921,"duration":0.1249999895833298},{"name":"C#4","midi":61,"time":97.77271912499975,"velocity":0.7480314960629921,"duration":0.1249999895833298},{"name":"B3","midi":59,"time":97.90908274999975,"velocity":0.7480314960629921,"duration":0.1249999895833298},{"name":"A3","midi":57,"time":98.04544637499976,"velocity":0.7480314960629921,"duration":0.1249999895833298},{"name":"G3","midi":55,"time":98.18180999999976,"velocity":0.7480314960629921,"duration":0.1249999895833298},{"name":"F#3","midi":54,"time":98.31817362499976,"velocity":0.7480314960629921,"duration":0.1249999895833298},{"name":"E3","midi":52,"time":98.45453724999976,"velocity":0.7480314960629921,"duration":0.1249999895833298},{"name":"F#3","midi":54,"time":98.59090087499976,"velocity":0.7480314960629921,"duration":0.1249999895833298},{"name":"G3","midi":55,"time":98.72726449999976,"velocity":0.7480314960629921,"duration":0.1249999895833298},{"name":"A3","midi":57,"time":98.86362812499976,"velocity":0.7480314960629921,"duration":0.1249999895833298},{"name":"B3","midi":59,"time":98.99999174999977,"velocity":0.7480314960629921,"duration":0.1249999895833298},{"name":"C#4","midi":61,"time":99.13635537499977,"velocity":0.7480314960629921,"duration":0.1249999895833298},{"name":"D#4","midi":63,"time":99.27271899999977,"velocity":0.7480314960629921,"duration":0.1249999895833298},{"name":"E4","midi":64,"time":99.40908262499977,"velocity":0.7480314960629921,"duration":0.1249999895833298},{"name":"D#4","midi":63,"time":99.54544624999977,"velocity":0.7480314960629921,"duration":0.1249999895833298},{"name":"C#4","midi":61,"time":99.68180987499977,"velocity":0.7480314960629921,"duration":0.1249999895833298},{"name":"B3","midi":59,"time":99.81817349999977,"velocity":0.7480314960629921,"duration":0.1249999895833298},{"name":"A3","midi":57,"time":99.95453712499977,"velocity":0.7480314960629921,"duration":0.1249999895833298},{"name":"G3","midi":55,"time":100.09090074999978,"velocity":0.7480314960629921,"duration":0.1249999895833298},{"name":"F#3","midi":54,"time":100.22726437499978,"velocity":0.7480314960629921,"duration":0.1249999895833298},{"name":"E3","midi":52,"time":100.36362799999978,"velocity":0.7480314960629921,"duration":0.5340908645833338},{"name":"E4","midi":64,"time":100.90908249999978,"velocity":0.7480314960629921,"duration":0.5454545000000053},{"name":"D#4","midi":63,"time":101.45453699999979,"velocity":0.7480314960629921,"duration":0.18181816666667316},{"name":"D3","midi":50,"time":101.9999914999998,"velocity":0.7480314960629921,"duration":0.5454545000000053},{"name":"D4","midi":62,"time":102.5454459999998,"velocity":0.7480314960629921,"duration":0.5454545000000053},{"name":"C#4","midi":61,"time":103.0909004999998,"velocity":0.7480314960629921,"duration":0.18181816666667316},{"name":"C3","midi":48,"time":103.63635499999981,"velocity":0.7480314960629921,"duration":0.5340908645833338},{"name":"C4","midi":60,"time":104.18180949999982,"velocity":0.7480314960629921,"duration":0.5340908645833338},{"name":"B3","midi":59,"time":104.72726399999982,"velocity":0.7480314960629921,"duration":0.5340908645833338},{"name":"C#4","midi":61,"time":105.27271849999983,"velocity":0.7480314960629921,"duration":0.5340908645833338},{"name":"D#4","midi":63,"time":105.81817299999983,"velocity":0.7480314960629921,"duration":0.5340908645833338},{"name":"E3","midi":52,"time":106.36362749999984,"velocity":0.7480314960629921,"duration":0.1249999895833298},{"name":"F#3","midi":54,"time":106.49999112499984,"velocity":0.7480314960629921,"duration":0.1249999895833298},{"name":"G3","midi":55,"time":106.63635474999984,"velocity":0.7480314960629921,"duration":0.1249999895833298},{"name":"A3","midi":57,"time":106.77271837499984,"velocity":0.7480314960629921,"duration":0.1249999895833298},{"name":"B3","midi":59,"time":106.90908199999984,"velocity":0.7480314960629921,"duration":0.1249999895833298},{"name":"C#4","midi":61,"time":107.04544562499984,"velocity":0.7480314960629921,"duration":0.1249999895833298},{"name":"D#4","midi":63,"time":107.18180924999984,"velocity":0.7480314960629921,"duration":0.1249999895833298},{"name":"E4","midi":64,"time":107.31817287499985,"velocity":0.7480314960629921,"duration":0.1249999895833298},{"name":"D#4","midi":63,"time":107.45453649999985,"velocity":0.7480314960629921,"duration":0.1249999895833298},{"name":"C#4","midi":61,"time":107.59090012499985,"velocity":0.7480314960629921,"duration":0.1249999895833298},{"name":"B3","midi":59,"time":107.72726374999985,"velocity":0.7480314960629921,"duration":0.1249999895833298},{"name":"A3","midi":57,"time":107.86362737499985,"velocity":0.7480314960629921,"duration":0.1249999895833298},{"name":"G3","midi":55,"time":107.99999099999985,"velocity":0.7480314960629921,"duration":0.1249999895833298},{"name":"F#3","midi":54,"time":108.13635462499985,"velocity":0.7480314960629921,"duration":0.1249999895833298},{"name":"E3","midi":52,"time":108.27271824999985,"velocity":0.7480314960629921,"duration":0.2613636145833311},{"name":"C4","midi":60,"time":108.81817274999985,"velocity":0.7480314960629921,"duration":0.2613636145833311},{"name":"B3","midi":59,"time":109.09089999999985,"velocity":0.7480314960629921,"duration":0.2613636145833311},{"name":"A#3","midi":58,"time":109.36362724999985,"velocity":0.7480314960629921,"duration":0.2613636145833311},{"name":"A#3","midi":58,"time":109.63635449999985,"velocity":0.7480314960629921,"duration":0.1249999895833298},{"name":"B3","midi":59,"time":109.77271812499986,"velocity":0.7480314960629921,"duration":0.1249999895833298},{"name":"B2","midi":47,"time":109.90908174999986,"velocity":0.7480314960629921,"duration":0.18181816666667316},{"name":"A#3","midi":58,"time":110.45453624999986,"velocity":0.7480314960629921,"duration":0.2613636145833311},{"name":"A3","midi":57,"time":110.72726349999986,"velocity":0.7480314960629921,"duration":0.2613636145833311},{"name":"G#3","midi":56,"time":110.99999074999987,"velocity":0.7480314960629921,"duration":0.2613636145833311},{"name":"G#3","midi":56,"time":111.27271799999987,"velocity":0.7480314960629921,"duration":0.1249999895833298},{"name":"A3","midi":57,"time":111.40908162499987,"velocity":0.7480314960629921,"duration":0.1249999895833298},{"name":"A2","midi":45,"time":111.54544524999987,"velocity":0.7480314960629921,"duration":0.18181816666667316},{"name":"A2","midi":45,"time":111.95453612499988,"velocity":0.7480314960629921,"duration":0.1249999895833298},{"name":"C3","midi":48,"time":112.09089974999988,"velocity":0.7480314960629921,"duration":0.1249999895833298},{"name":"E3","midi":52,"time":112.22726337499988,"velocity":0.7480314960629921,"duration":0.1249999895833298},{"name":"A3","midi":57,"time":112.36362699999988,"velocity":0.7480314960629921,"duration":0.1249999895833298},{"name":"G3","midi":55,"time":112.49999062499988,"velocity":0.7480314960629921,"duration":0.1249999895833298},{"name":"F#3","midi":54,"time":112.63635424999988,"velocity":0.7480314960629921,"duration":0.1249999895833298},{"name":"E3","midi":52,"time":112.77271787499988,"velocity":0.7480314960629921,"duration":0.1249999895833298},{"name":"D#3","midi":51,"time":112.90908149999989,"velocity":0.7480314960629921,"duration":0.1249999895833298},{"name":"F#3","midi":54,"time":113.04544512499989,"velocity":0.7480314960629921,"duration":0.1249999895833298},{"name":"G3","midi":55,"time":113.18180874999989,"velocity":0.7480314960629921,"duration":0.39772723958333245},{"name":"E3","midi":52,"time":113.59089962499989,"velocity":0.7480314960629921,"duration":0.1249999895833298},{"name":"A#2","midi":46,"time":113.7272632499999,"velocity":0.7480314960629921,"duration":0.39772723958333245},{"name":"A2","midi":45,"time":114.1363541249999,"velocity":0.7480314960629921,"duration":0.1249999895833298},{"name":"F#3","midi":54,"time":114.2727177499999,"velocity":0.7480314960629921,"duration":0.1249999895833298},{"name":"A2","midi":45,"time":114.4090813749999,"velocity":0.7480314960629921,"duration":0.1249999895833298},{"name":"G#2","midi":44,"time":114.5454449999999,"velocity":0.7480314960629921,"duration":0.5340908645833338},{"name":"G2","midi":43,"time":115.0908994999999,"velocity":0.7480314960629921,"duration":0.5340908645833338},{"name":"F#2","midi":42,"time":115.63635399999991,"velocity":0.7480314960629921,"duration":0.5340908645833338},{"name":"E2","midi":40,"time":116.18180849999992,"velocity":0.7480314960629921,"duration":0.2613636145833311},{"name":"C3","midi":48,"time":116.45453574999992,"velocity":0.7480314960629921,"duration":0.2613636145833311},{"name":"A2","midi":45,"time":116.72726299999992,"velocity":0.7480314960629921,"duration":0.5340908645833338},{"name":"B2","midi":47,"time":117.27271749999993,"velocity":0.7480314960629921,"duration":0.5340908645833338},{"name":"E2","midi":40,"time":117.81817199999993,"velocity":0.7480314960629921,"duration":1.4545453333333285}],"controlChanges":{"7":[{"number":7,"time":0,"value":0.905511811023622}],"10":[{"number":10,"time":0,"value":0.3700787401574803}]},"id":2,"name":"L.H.","instrumentNumber":6,"instrument":"harpsichord","instrumentFamily":"piano","channelNumber":0,"isPercussion":false}]}