{"header":{"PPQ":120,"timeSignature":[4,4],"bpm":69.99998833333528,"name":"--------"},"startTime":0,"duration":92.5714440000002,"tracks":[{"startTime":0,"duration":0,"length":0,"notes":[],"controlChanges":{},"id":0,"name":"--------"},{"startTime":6.857144,"duration":92.5714439999999,"length":274,"notes":[{"name":"A4","midi":69,"time":6.857144,"velocity":0.5905511811023622,"duration":0.14285716666666648},{"name":"B4","midi":71,"time":7.000001166666666,"velocity":0.5905511811023622,"duration":0.1357143083333332},{"name":"C5","midi":72,"time":7.135715475,"velocity":0.5905511811023622,"duration":0.15000002499999976},{"name":"D5","midi":74,"time":7.285715499999999,"velocity":0.5905511811023622,"duration":0.14285716666666648},{"name":"C5","midi":72,"time":7.428572666666666,"velocity":0.5905511811023622,"duration":0.1357143083333332},{"name":"B4","midi":71,"time":7.564286974999999,"velocity":0.5905511811023622,"duration":0.15000002499999976},{"name":"C5","midi":72,"time":7.714286999999999,"velocity":0.5905511811023622,"duration":0.14285716666666648},{"name":"D5","midi":74,"time":7.857144166666665,"velocity":0.5905511811023622,"duration":0.1357143083333332},{"name":"E5","midi":76,"time":7.9928584749999985,"velocity":0.5905511811023622,"duration":0.15000002500000065},{"name":"F5","midi":77,"time":8.142858499999999,"velocity":0.5905511811023622,"duration":0.14285716666666737},{"name":"E5","midi":76,"time":8.285715666666666,"velocity":0.5905511811023622,"duration":0.1357143083333341},{"name":"D5","midi":74,"time":8.421429975,"velocity":0.5905511811023622,"duration":0.15000002500000065},{"name":"E5","midi":76,"time":8.571430000000001,"velocity":0.5905511811023622,"duration":0.4285715000000003},{"name":"A5","midi":81,"time":9.000001500000002,"velocity":0.5905511811023622,"duration":0.4285715000000003},{"name":"G#5","midi":80,"time":9.428573000000002,"velocity":0.5905511811023622,"duration":0.4285715000000003},{"name":"G5","midi":79,"time":9.857144500000002,"velocity":0.5905511811023622,"duration":0.4285715000000003},{"name":"F#5","midi":78,"time":10.285716000000003,"velocity":0.5905511811023622,"duration":0.4285715000000003},{"name":"F5","midi":77,"time":10.714287500000003,"velocity":0.5905511811023622,"duration":0.4285715000000003},{"name":"E5","midi":76,"time":11.142859000000003,"velocity":0.5905511811023622,"duration":0.4285715000000003},{"name":"D5","midi":74,"time":11.571430500000004,"velocity":0.5905511811023622,"duration":0.8571430000000007},{"name":"C5","midi":72,"time":12.428573500000004,"velocity":0.5905511811023622,"duration":0.4285715000000003},{"name":"B4","midi":71,"time":12.857145000000004,"velocity":0.5905511811023622,"duration":0.4285715000000003},{"name":"E5","midi":76,"time":13.285716500000005,"velocity":0.5905511811023622,"duration":0.4285715000000003},{"name":"A4","midi":69,"time":13.714288000000005,"velocity":0.5905511811023622,"duration":0.4285715000000003},{"name":"B4","midi":71,"time":14.142859500000005,"velocity":0.5905511811023622,"duration":0.4285715000000003},{"name":"C5","midi":72,"time":14.571431000000006,"velocity":0.5905511811023622,"duration":0.4285715000000003},{"name":"G#4","midi":68,"time":15.000002500000006,"velocity":0.5905511811023622,"duration":0.4285715000000003},{"name":"A4","midi":69,"time":15.428574000000006,"velocity":0.5905511811023622,"duration":0.14285716666666737},{"name":"G4","midi":67,"time":15.571431166666674,"velocity":0.5905511811023622,"duration":0.1357143083333341},{"name":"F4","midi":65,"time":15.707145475000008,"velocity":0.5905511811023622,"duration":0.15000002500000065},{"name":"E4","midi":64,"time":15.857145500000009,"velocity":0.5905511811023622,"duration":0.1428571666666656},{"name":"F4","midi":65,"time":16.000002666666674,"velocity":0.5905511811023622,"duration":0.1357143083333341},{"name":"G4","midi":67,"time":16.13571697500001,"velocity":0.5905511811023622,"duration":0.15000002500000065},{"name":"F4","midi":65,"time":16.28571700000001,"velocity":0.5905511811023622,"duration":0.1428571666666656},{"name":"E4","midi":64,"time":16.428574166666674,"velocity":0.5905511811023622,"duration":0.1357143083333341},{"name":"D4","midi":62,"time":16.56428847500001,"velocity":0.5905511811023622,"duration":0.15000002500000065},{"name":"C#4","midi":61,"time":16.71428850000001,"velocity":0.5905511811023622,"duration":0.1428571666666656},{"name":"D4","midi":62,"time":16.857145666666675,"velocity":0.5905511811023622,"duration":0.1357143083333341},{"name":"E4","midi":64,"time":16.99285997500001,"velocity":0.5905511811023622,"duration":0.15000002500000065},{"name":"D4","midi":62,"time":17.14286000000001,"velocity":0.5905511811023622,"duration":0.4285715000000003},{"name":"C#4","midi":61,"time":17.57143150000001,"velocity":0.5905511811023622,"duration":0.4285715000000003},{"name":"D4","midi":62,"time":18.00000300000001,"velocity":0.5905511811023622,"duration":0.4285715000000003},{"name":"G4","midi":67,"time":18.42857450000001,"velocity":0.5905511811023622,"duration":0.6428572499999987},{"name":"E4","midi":64,"time":19.07143175000001,"velocity":0.5905511811023622,"duration":0.2142857499999984},{"name":"F4","midi":65,"time":19.285717500000008,"velocity":0.5905511811023622,"duration":0.2142857499999984},{"name":"G4","midi":67,"time":19.500003250000006,"velocity":0.5905511811023622,"duration":0.2142857499999984},{"name":"A4","midi":69,"time":19.714289000000004,"velocity":0.5905511811023622,"duration":0.2142857499999984},{"name":"B4","midi":71,"time":19.928574750000003,"velocity":0.5905511811023622,"duration":0.2142857499999984},{"name":"C5","midi":72,"time":20.1428605,"velocity":0.5905511811023622,"duration":0.2142857499999984},{"name":"A4","midi":69,"time":20.35714625,"velocity":0.5905511811023622,"duration":0.2142857499999984},{"name":"D5","midi":74,"time":20.571431999999998,"velocity":0.5905511811023622,"duration":0.2142857499999984},{"name":"C#5","midi":73,"time":20.785717749999996,"velocity":0.5905511811023622,"duration":0.2142857499999984},{"name":"D5","midi":74,"time":21.000003499999995,"velocity":0.5905511811023622,"duration":0.2142857499999984},{"name":"E5","midi":76,"time":21.214289249999993,"velocity":0.5905511811023622,"duration":0.2142857499999984},{"name":"F5","midi":77,"time":21.42857499999999,"velocity":0.5905511811023622,"duration":0.2142857499999984},{"name":"B4","midi":71,"time":21.64286074999999,"velocity":0.5905511811023622,"duration":0.2142857499999984},{"name":"E5","midi":76,"time":21.85714649999999,"velocity":0.5905511811023622,"duration":0.2142857499999984},{"name":"D5","midi":74,"time":22.071432249999987,"velocity":0.5905511811023622,"duration":0.2142857499999984},{"name":"C#5","midi":73,"time":22.285717999999985,"velocity":0.5905511811023622,"duration":0.2142857499999984},{"name":"A4","midi":69,"time":22.500003749999983,"velocity":0.5905511811023622,"duration":0.2142857499999984},{"name":"D5","midi":74,"time":22.714289499999982,"velocity":0.5905511811023622,"duration":0.8571430000000007},{"name":"C5","midi":72,"time":23.571432499999982,"velocity":0.5905511811023622,"duration":0.8571430000000007},{"name":"A#4","midi":70,"time":24.428575499999983,"velocity":0.5905511811023622,"duration":0.4285715000000003},{"name":"A4","midi":69,"time":24.857146999999983,"velocity":0.5905511811023622,"duration":0.8571430000000007},{"name":"G4","midi":67,"time":25.714289999999984,"velocity":0.5905511811023622,"duration":0.2142857499999984},{"name":"G5","midi":79,"time":25.928575749999982,"velocity":0.5905511811023622,"duration":0.2142857499999984},{"name":"A5","midi":81,"time":26.14286149999998,"velocity":0.5905511811023622,"duration":0.2142857499999984},{"name":"G5","midi":79,"time":26.35714724999998,"velocity":0.5905511811023622,"duration":0.2142857499999984},{"name":"F5","midi":77,"time":26.571432999999978,"velocity":0.5905511811023622,"duration":0.2142857499999984},{"name":"A5","midi":81,"time":26.785718749999976,"velocity":0.5905511811023622,"duration":0.2142857499999984},{"name":"G5","midi":79,"time":27.000004499999974,"velocity":0.5905511811023622,"duration":0.2142857499999984},{"name":"F5","midi":77,"time":27.214290249999973,"velocity":0.5905511811023622,"duration":0.2142857499999984},{"name":"E5","midi":76,"time":27.42857599999997,"velocity":0.5905511811023622,"duration":0.2142857499999984},{"name":"C5","midi":72,"time":27.64286174999997,"velocity":0.5905511811023622,"duration":0.2142857499999984},{"name":"F5","midi":77,"time":27.857147499999968,"velocity":0.5905511811023622,"duration":0.8571430000000007},{"name":"E5","midi":76,"time":28.71429049999997,"velocity":0.5905511811023622,"duration":0.6428572499999987},{"name":"F5","midi":77,"time":29.357147749999967,"velocity":0.5905511811023622,"duration":0.4285715000000003},{"name":"E5","midi":76,"time":29.785719249999968,"velocity":0.5905511811023622,"duration":0.4285715000000003},{"name":"D5","midi":74,"time":30.214290749999968,"velocity":0.5905511811023622,"duration":0.4285715000000003},{"name":"C#5","midi":73,"time":30.64286224999997,"velocity":0.5905511811023622,"duration":0.2142857499999984},{"name":"D5","midi":74,"time":30.857147999999967,"velocity":0.5905511811023622,"duration":0.4285715000000003},{"name":"A#4","midi":70,"time":31.285719499999967,"velocity":0.5905511811023622,"duration":0.4285715000000003},{"name":"A4","midi":69,"time":31.714290999999967,"velocity":0.5905511811023622,"duration":0.1428571666666656},{"name":"G4","midi":67,"time":31.857148166666633,"velocity":0.5905511811023622,"duration":0.1357143083333341},{"name":"F4","midi":65,"time":31.992862474999967,"velocity":0.5905511811023622,"duration":0.1500000249999971},{"name":"E4","midi":64,"time":32.142862499999964,"velocity":0.5905511811023622,"duration":0.1428571666666656},{"name":"F4","midi":65,"time":32.28571966666663,"velocity":0.5905511811023622,"duration":0.1357143083333341},{"name":"G4","midi":67,"time":32.421433974999964,"velocity":0.5905511811023622,"duration":0.1500000249999971},{"name":"F4","midi":65,"time":32.57143399999996,"velocity":0.5905511811023622,"duration":0.1428571666666656},{"name":"E4","midi":64,"time":32.71429116666663,"velocity":0.5905511811023622,"duration":0.1357143083333341},{"name":"D4","midi":62,"time":32.85000547499996,"velocity":0.5905511811023622,"duration":0.1500000249999971},{"name":"C#4","midi":61,"time":33.00000549999996,"velocity":0.5905511811023622,"duration":0.1428571666666656},{"name":"D4","midi":62,"time":33.14286266666662,"velocity":0.5905511811023622,"duration":0.1357143083333341},{"name":"E4","midi":64,"time":33.27857697499996,"velocity":0.5905511811023622,"duration":0.1500000249999971},{"name":"D4","midi":62,"time":33.428576999999954,"velocity":0.5905511811023622,"duration":0.1428571666666656},{"name":"E4","midi":64,"time":33.57143416666662,"velocity":0.5905511811023622,"duration":0.1357143083333341},{"name":"F4","midi":65,"time":33.707148474999954,"velocity":0.5905511811023622,"duration":0.1500000249999971},{"name":"G4","midi":67,"time":33.85714849999995,"velocity":0.5905511811023622,"duration":0.1428571666666656},{"name":"F4","midi":65,"time":34.00000566666662,"velocity":0.5905511811023622,"duration":0.1357143083333341},{"name":"E4","midi":64,"time":34.13571997499995,"velocity":0.5905511811023622,"duration":0.1500000249999971},{"name":"F4","midi":65,"time":34.28571999999995,"velocity":0.5905511811023622,"duration":0.1428571666666656},{"name":"G4","midi":67,"time":34.428577166666614,"velocity":0.5905511811023622,"duration":0.1357143083333341},{"name":"A4","midi":69,"time":34.56429147499995,"velocity":0.5905511811023622,"duration":0.1500000249999971},{"name":"A#4","midi":70,"time":34.714291499999945,"velocity":0.5905511811023622,"duration":0.1428571666666656},{"name":"A4","midi":69,"time":34.85714866666661,"velocity":0.5905511811023622,"duration":0.1357143083333341},{"name":"G4","midi":67,"time":34.992862974999944,"velocity":0.5905511811023622,"duration":0.1500000249999971},{"name":"A4","midi":69,"time":35.14286299999994,"velocity":0.5905511811023622,"duration":0.4285714999999968},{"name":"D5","midi":74,"time":35.57143449999994,"velocity":0.5905511811023622,"duration":0.4285714999999968},{"name":"C#5","midi":73,"time":36.000005999999935,"velocity":0.5905511811023622,"duration":0.4285714999999968},{"name":"C5","midi":72,"time":36.42857749999993,"velocity":0.5905511811023622,"duration":0.4285714999999968},{"name":"B4","midi":71,"time":36.85714899999993,"velocity":0.5905511811023622,"duration":0.4285714999999968},{"name":"A#4","midi":70,"time":37.285720499999925,"velocity":0.5905511811023622,"duration":0.4285714999999968},{"name":"A4","midi":69,"time":37.71429199999992,"velocity":0.5905511811023622,"duration":0.4285714999999968},{"name":"A5","midi":81,"time":38.14286349999992,"velocity":0.5905511811023622,"duration":0.4285714999999968},{"name":"G#5","midi":80,"time":38.571434999999916,"velocity":0.5905511811023622,"duration":0.4285714999999968},{"name":"G5","midi":79,"time":39.00000649999991,"velocity":0.5905511811023622,"duration":0.4285714999999968},{"name":"F#5","midi":78,"time":39.42857799999991,"velocity":0.5905511811023622,"duration":0.4285714999999968},{"name":"F5","midi":77,"time":39.857149499999906,"velocity":0.5905511811023622,"duration":0.4285714999999968},{"name":"E5","midi":76,"time":40.2857209999999,"velocity":0.5905511811023622,"duration":1.2857144999999974},{"name":"D5","midi":74,"time":41.5714354999999,"velocity":0.5905511811023622,"duration":0.8571430000000007},{"name":"C#5","midi":73,"time":42.4285784999999,"velocity":0.5905511811023622,"duration":0.4285714999999968},{"name":"A5","midi":81,"time":43.0714357499999,"velocity":0.5905511811023622,"duration":0.21428575000000194},{"name":"A#5","midi":82,"time":43.2857214999999,"velocity":0.5905511811023622,"duration":0.21428575000000194},{"name":"A5","midi":81,"time":43.5000072499999,"velocity":0.5905511811023622,"duration":0.21428575000000194},{"name":"G5","midi":79,"time":43.714292999999905,"velocity":0.5905511811023622,"duration":0.21428575000000194},{"name":"A#5","midi":82,"time":43.92857874999991,"velocity":0.5905511811023622,"duration":0.21428575000000194},{"name":"A5","midi":81,"time":44.14286449999991,"velocity":0.5905511811023622,"duration":0.21428575000000194},{"name":"G5","midi":79,"time":44.35715024999991,"velocity":0.5905511811023622,"duration":0.21428575000000194},{"name":"F5","midi":77,"time":44.57143599999991,"velocity":0.5905511811023622,"duration":0.1428571666666656},{"name":"E5","midi":76,"time":44.71429316666658,"velocity":0.5905511811023622,"duration":0.1357143083333341},{"name":"D5","midi":74,"time":44.85000747499991,"velocity":0.5905511811023622,"duration":0.1500000249999971},{"name":"C#5","midi":73,"time":45.00000749999991,"velocity":0.5905511811023622,"duration":0.1428571666666656},{"name":"D5","midi":74,"time":45.142864666666576,"velocity":0.5905511811023622,"duration":0.1357143083333341},{"name":"E5","midi":76,"time":45.27857897499991,"velocity":0.5905511811023622,"duration":0.1500000249999971},{"name":"A4","midi":69,"time":45.42857899999991,"velocity":0.5905511811023622,"duration":0.1428571666666656},{"name":"B4","midi":71,"time":45.57143616666657,"velocity":0.5905511811023622,"duration":0.1357143083333341},{"name":"C#5","midi":73,"time":45.70715047499991,"velocity":0.5905511811023622,"duration":0.1500000249999971},{"name":"D5","midi":74,"time":45.857150499999904,"velocity":0.5905511811023622,"duration":0.1428571666666656},{"name":"C#5","midi":73,"time":46.00000766666657,"velocity":0.5905511811023622,"duration":0.1357143083333341},{"name":"B4","midi":71,"time":46.1357219749999,"velocity":0.5905511811023622,"duration":0.1500000249999971},{"name":"C#5","midi":73,"time":46.2857219999999,"velocity":0.5905511811023622,"duration":0.1428571666666656},{"name":"D5","midi":74,"time":46.428579166666566,"velocity":0.5905511811023622,"duration":0.1357143083333341},{"name":"E5","midi":76,"time":46.5642934749999,"velocity":0.5905511811023622,"duration":0.1500000249999971},{"name":"F5","midi":77,"time":46.7142934999999,"velocity":0.5905511811023622,"duration":0.1428571666666656},{"name":"E5","midi":76,"time":46.85715066666656,"velocity":0.5905511811023622,"duration":0.1357143083333341},{"name":"D5","midi":74,"time":46.9928649749999,"velocity":0.5905511811023622,"duration":0.1500000249999971},{"name":"E5","midi":76,"time":47.142864999999894,"velocity":0.5905511811023622,"duration":0.4285714999999968},{"name":"A5","midi":81,"time":47.57143649999989,"velocity":0.5905511811023622,"duration":0.4285714999999968},{"name":"G#5","midi":80,"time":48.00000799999989,"velocity":0.5905511811023622,"duration":0.4285714999999968},{"name":"G5","midi":79,"time":48.428579499999884,"velocity":0.5905511811023622,"duration":0.4285714999999968},{"name":"F#5","midi":78,"time":48.85715099999988,"velocity":0.5905511811023622,"duration":0.4285714999999968},{"name":"F5","midi":77,"time":49.28572249999988,"velocity":0.5905511811023622,"duration":0.4285714999999968},{"name":"E5","midi":76,"time":49.714293999999875,"velocity":0.5905511811023622,"duration":0.4285714999999968},{"name":"D5","midi":74,"time":50.14286549999987,"velocity":0.5905511811023622,"duration":0.8571430000000007},{"name":"C5","midi":72,"time":51.00000849999987,"velocity":0.5905511811023622,"duration":0.4285714999999968},{"name":"B4","midi":71,"time":51.42857999999987,"velocity":0.5905511811023622,"duration":0.4285714999999968},{"name":"A#4","midi":70,"time":51.857151499999866,"velocity":0.5905511811023622,"duration":0.8571430000000007},{"name":"A4","midi":69,"time":52.714294499999866,"velocity":0.5905511811023622,"duration":0.4285714999999968},{"name":"G#4","midi":68,"time":53.14286599999986,"velocity":0.5905511811023622,"duration":0.4285714999999968},{"name":"G4","midi":67,"time":53.57143749999986,"velocity":0.5905511811023622,"duration":0.8571430000000007},{"name":"F4","midi":65,"time":54.42858049999986,"velocity":0.5905511811023622,"duration":0.1357143083333341},{"name":"G4","midi":67,"time":54.5000090833332,"velocity":0.5905511811023622,"duration":0.06428572499999774},{"name":"G4","midi":67,"time":54.571437666666526,"velocity":0.5905511811023622,"duration":0.06428572499999774},{"name":"F4","midi":65,"time":54.571437666666526,"velocity":0.5905511811023622,"duration":0.06428572499999774},{"name":"F4","midi":65,"time":54.642866249999855,"velocity":0.5905511811023622,"duration":0.06428572499999774},{"name":"E4","midi":64,"time":54.714294833333184,"velocity":0.5905511811023622,"duration":0.06428572499999774},{"name":"F4","midi":65,"time":54.785723416666514,"velocity":0.5905511811023622,"duration":0.06428572499999774},{"name":"E4","midi":64,"time":54.85715199999984,"velocity":0.5905511811023622,"duration":0.4285714999999968},{"name":"D4","midi":62,"time":57.5714381666665,"velocity":0.5905511811023622,"duration":0.1357143083333341},{"name":"E4","midi":64,"time":57.70715247499984,"velocity":0.5905511811023622,"duration":0.1500000249999971},{"name":"F4","midi":65,"time":57.857152499999835,"velocity":0.5905511811023622,"duration":0.1428571666666656},{"name":"E4","midi":64,"time":58.0000096666665,"velocity":0.5905511811023622,"duration":0.1357143083333341},{"name":"D4","midi":62,"time":58.135723974999834,"velocity":0.5905511811023622,"duration":0.1500000249999971},{"name":"A#4","midi":70,"time":58.4285811666665,"velocity":0.5905511811023622,"duration":0.1357143083333341},{"name":"A4","midi":69,"time":58.56429547499983,"velocity":0.5905511811023622,"duration":0.1500000249999971},{"name":"G4","midi":67,"time":58.71429549999983,"velocity":0.5905511811023622,"duration":0.1428571666666656},{"name":"A4","midi":69,"time":58.857152666666494,"velocity":0.5905511811023622,"duration":0.1357143083333341},{"name":"A#4","midi":70,"time":58.99286697499983,"velocity":0.5905511811023622,"duration":0.1500000249999971},{"name":"A4","midi":69,"time":59.28572416666649,"velocity":0.5905511811023622,"duration":0.1357143083333341},{"name":"A#4","midi":70,"time":59.421438474999825,"velocity":0.5905511811023622,"duration":0.1500000249999971},{"name":"C5","midi":72,"time":59.57143849999982,"velocity":0.5905511811023622,"duration":0.1428571666666656},{"name":"A#4","midi":70,"time":59.71429566666649,"velocity":0.5905511811023622,"duration":0.1357143083333341},{"name":"A4","midi":69,"time":59.85000997499982,"velocity":0.5905511811023622,"duration":0.1500000249999971},{"name":"A#4","midi":70,"time":60.00000999999982,"velocity":0.5905511811023622,"duration":0.4285714999999968},{"name":"F#4","midi":66,"time":60.428581499999815,"velocity":0.5905511811023622,"duration":0.4285714999999968},{"name":"G4","midi":67,"time":60.85715299999981,"velocity":0.5905511811023622,"duration":0.1428571666666656},{"name":"A4","midi":69,"time":61.00001016666648,"velocity":0.5905511811023622,"duration":0.1357143083333341},{"name":"A#4","midi":70,"time":61.13572447499981,"velocity":0.5905511811023622,"duration":0.1500000249999971},{"name":"C5","midi":72,"time":61.28572449999981,"velocity":0.5905511811023622,"duration":0.1428571666666656},{"name":"A#4","midi":70,"time":61.428581666666474,"velocity":0.5905511811023622,"duration":0.1357143083333341},{"name":"A4","midi":69,"time":61.56429597499981,"velocity":0.5905511811023622,"duration":0.1500000249999971},{"name":"A#4","midi":70,"time":61.714295999999806,"velocity":0.5905511811023622,"duration":0.1428571666666656},{"name":"C5","midi":72,"time":61.85715316666647,"velocity":0.5905511811023622,"duration":0.1357143083333341},{"name":"D5","midi":74,"time":61.992867474999805,"velocity":0.5905511811023622,"duration":0.1500000249999971},{"name":"D#5","midi":75,"time":62.1428674999998,"velocity":0.5905511811023622,"duration":0.1428571666666656},{"name":"D5","midi":74,"time":62.28572466666647,"velocity":0.5905511811023622,"duration":0.1357143083333341},{"name":"C#5","midi":73,"time":62.4214389749998,"velocity":0.5905511811023622,"duration":0.1500000249999971},{"name":"D5","midi":74,"time":62.5714389999998,"velocity":0.5905511811023622,"duration":1.2857144999999974},{"name":"G5","midi":79,"time":64.2857249999998,"velocity":0.5905511811023622,"duration":0.1428571666666727},{"name":"F5","midi":77,"time":64.42858216666647,"velocity":0.5905511811023622,"duration":0.1357143083333341},{"name":"E5","midi":76,"time":64.56429647499981,"velocity":0.5905511811023622,"duration":0.1500000249999971},{"name":"D5","midi":74,"time":64.7142964999998,"velocity":0.5905511811023622,"duration":0.1428571666666727},{"name":"E5","midi":76,"time":64.85715366666648,"velocity":0.5905511811023622,"duration":0.1357143083333341},{"name":"F5","midi":77,"time":64.99286797499981,"velocity":0.5905511811023622,"duration":0.1500000249999971},{"name":"E5","midi":76,"time":65.14286799999981,"velocity":0.5905511811023622,"duration":0.2785714750000068},{"name":"G5","midi":79,"time":65.57143949999981,"velocity":0.5905511811023622,"duration":0.2785714750000068},{"name":"C5","midi":72,"time":66.00001099999982,"velocity":0.5905511811023622,"duration":0.2785714750000068},{"name":"F5","midi":77,"time":67.71429699999982,"velocity":0.5905511811023622,"duration":0.1428571666666727},{"name":"D#5","midi":75,"time":67.85715416666649,"velocity":0.5905511811023622,"duration":0.1357143083333341},{"name":"D5","midi":74,"time":67.99286847499982,"velocity":0.5905511811023622,"duration":0.1500000249999971},{"name":"C5","midi":72,"time":68.14286849999982,"velocity":0.5905511811023622,"duration":0.1428571666666727},{"name":"D5","midi":74,"time":68.2857256666665,"velocity":0.5905511811023622,"duration":0.1357143083333341},{"name":"D#5","midi":75,"time":68.42143997499983,"velocity":0.5905511811023622,"duration":0.1500000249999971},{"name":"D5","midi":74,"time":68.57143999999982,"velocity":0.5905511811023622,"duration":0.8571429999999935},{"name":"C#5","midi":73,"time":69.42858299999982,"velocity":0.5905511811023622,"duration":0.1428571666666727},{"name":"D5","midi":74,"time":69.57144016666649,"velocity":0.5905511811023622,"duration":0.1357143083333341},{"name":"E5","midi":76,"time":69.70715447499983,"velocity":0.5905511811023622,"duration":0.1500000249999971},{"name":"F5","midi":77,"time":69.85715449999982,"velocity":0.5905511811023622,"duration":0.1428571666666727},{"name":"E5","midi":76,"time":70.0000116666665,"velocity":0.5905511811023622,"duration":0.1357143083333341},{"name":"D5","midi":74,"time":70.13572597499983,"velocity":0.5905511811023622,"duration":0.1500000249999971},{"name":"E5","midi":76,"time":70.28572599999983,"velocity":0.5905511811023622,"duration":0.1428571666666727},{"name":"F5","midi":77,"time":70.4285831666665,"velocity":0.5905511811023622,"duration":0.1357143083333341},{"name":"G5","midi":79,"time":70.56429747499983,"velocity":0.5905511811023622,"duration":0.1500000249999971},{"name":"A5","midi":81,"time":70.71429749999983,"velocity":0.5905511811023622,"duration":0.1428571666666727},{"name":"G5","midi":79,"time":70.8571546666665,"velocity":0.5905511811023622,"duration":0.1357143083333341},{"name":"F5","midi":77,"time":70.99286897499984,"velocity":0.5905511811023622,"duration":0.1500000249999971},{"name":"G5","midi":79,"time":71.14286899999983,"velocity":0.5905511811023622,"duration":0.4285715000000039},{"name":"F5","midi":77,"time":71.57144049999984,"velocity":0.5905511811023622,"duration":0.4285715000000039},{"name":"E5","midi":76,"time":72.00001199999984,"velocity":0.5905511811023622,"duration":1.0714287499999955},{"name":"D5","midi":74,"time":73.07144074999984,"velocity":0.5905511811023622,"duration":0.21428575000000194},{"name":"D#5","midi":75,"time":73.28572649999984,"velocity":0.5905511811023622,"duration":0.21428575000000194},{"name":"D5","midi":74,"time":73.50001224999984,"velocity":0.5905511811023622,"duration":0.21428575000000194},{"name":"C#5","midi":73,"time":73.71429799999984,"velocity":0.5905511811023622,"duration":0.21428575000000194},{"name":"E5","midi":76,"time":73.92858374999985,"velocity":0.5905511811023622,"duration":0.21428575000000194},{"name":"D5","midi":74,"time":74.14286949999985,"velocity":0.5905511811023622,"duration":0.21428575000000194},{"name":"C5","midi":72,"time":74.35715524999985,"velocity":0.5905511811023622,"duration":0.21428575000000194},{"name":"B4","midi":71,"time":74.57144099999985,"velocity":0.5905511811023622,"duration":0.4285715000000039},{"name":"A#4","midi":70,"time":75.00001249999985,"velocity":0.5905511811023622,"duration":0.4285715000000039},{"name":"A4","midi":69,"time":75.42858399999986,"velocity":0.5905511811023622,"duration":1.2857144999999974},{"name":"G4","midi":67,"time":76.71429849999986,"velocity":0.5905511811023622,"duration":0.8571429999999935},{"name":"F4","midi":65,"time":77.57144149999985,"velocity":0.5905511811023622,"duration":0.4285715000000039},{"name":"E4","midi":64,"time":78.00001299999985,"velocity":0.5905511811023622,"duration":0.8571429999999935},{"name":"D4","midi":62,"time":78.85715599999985,"velocity":0.5905511811023622,"duration":0.8571429999999935},{"name":"D4","midi":62,"time":84.00001399999984,"velocity":0.5905511811023622,"duration":0.1428571666666727},{"name":"E4","midi":64,"time":84.14287116666651,"velocity":0.5905511811023622,"duration":0.1357143083333341},{"name":"F4","midi":65,"time":84.27858547499984,"velocity":0.5905511811023622,"duration":0.1500000249999971},{"name":"G4","midi":67,"time":84.42858549999984,"velocity":0.5905511811023622,"duration":0.1428571666666727},{"name":"F4","midi":65,"time":84.57144266666651,"velocity":0.5905511811023622,"duration":0.1357143083333341},{"name":"E4","midi":64,"time":84.70715697499985,"velocity":0.5905511811023622,"duration":0.1500000249999971},{"name":"F4","midi":65,"time":84.85715699999984,"velocity":0.5905511811023622,"duration":0.1428571666666727},{"name":"G4","midi":67,"time":85.00001416666652,"velocity":0.5905511811023622,"duration":0.1357143083333341},{"name":"A4","midi":69,"time":85.13572847499985,"velocity":0.5905511811023622,"duration":0.1500000249999971},{"name":"A#4","midi":70,"time":85.28572849999985,"velocity":0.5905511811023622,"duration":0.1428571666666727},{"name":"A4","midi":69,"time":85.42858566666652,"velocity":0.5905511811023622,"duration":0.1357143083333341},{"name":"G4","midi":67,"time":85.56429997499986,"velocity":0.5905511811023622,"duration":0.1500000249999971},{"name":"A4","midi":69,"time":85.71429999999985,"velocity":0.5905511811023622,"duration":0.4285715000000039},{"name":"D5","midi":74,"time":86.14287149999986,"velocity":0.5905511811023622,"duration":0.4285715000000039},{"name":"C#5","midi":73,"time":86.57144299999986,"velocity":0.5905511811023622,"duration":0.4285715000000039},{"name":"C5","midi":72,"time":87.00001449999986,"velocity":0.5905511811023622,"duration":0.4285715000000039},{"name":"B4","midi":71,"time":87.42858599999987,"velocity":0.5905511811023622,"duration":0.4285715000000039},{"name":"A#4","midi":70,"time":87.85715749999987,"velocity":0.5905511811023622,"duration":0.4285715000000039},{"name":"A4","midi":69,"time":88.28572899999988,"velocity":0.5905511811023622,"duration":0.4285715000000039},{"name":"G4","midi":67,"time":88.71430049999988,"velocity":0.5905511811023622,"duration":0.6428572500000058},{"name":"G4","midi":67,"time":89.35715774999989,"velocity":0.5905511811023622,"duration":0.21428575000000194},{"name":"F4","midi":65,"time":89.57144349999989,"velocity":0.5905511811023622,"duration":0.21428575000000194},{"name":"E4","midi":64,"time":89.78572924999989,"velocity":0.5905511811023622,"duration":0.21428575000000194},{"name":"F4","midi":65,"time":90.00001499999989,"velocity":0.5905511811023622,"duration":0.20714289166666333},{"name":"E4","midi":64,"time":90.17144359999989,"velocity":0.5905511811023622,"duration":0.10714287499999386},{"name":"F4","midi":65,"time":90.22858646666656,"velocity":0.5905511811023622,"duration":0.09285715833333086},{"name":"E4","midi":64,"time":90.30001504999989,"velocity":0.5905511811023622,"duration":0.06428572500000485},{"name":"F4","midi":65,"time":90.37144363333323,"velocity":0.5905511811023622,"duration":0.06428572500000485},{"name":"E4","midi":64,"time":90.4714436499999,"velocity":0.5905511811023622,"duration":0.19285717500000032},{"name":"D4","midi":62,"time":90.6428722499999,"velocity":0.5905511811023622,"duration":0.21428575000000194},{"name":"D4","midi":62,"time":90.8571579999999,"velocity":0.5905511811023622,"duration":1.7142860000000013}],"controlChanges":{"7":[{"number":7,"time":0,"value":0.7874015748031497}],"10":[{"number":10,"time":0,"value":0.6220472440944882}]},"id":1,"name":"BWV 875/2","instrumentNumber":6,"instrument":"harpsichord","instrumentFamily":"piano","channelNumber":0,"isPercussion":false},{"startTime":0,"duration":90.85715800000004,"length":259,"notes":[{"name":"D4","midi":62,"time":0,"velocity":0.5905511811023622,"duration":0.14285716666666665},{"name":"E4","midi":64,"time":0.14285716666666665,"velocity":0.5905511811023622,"duration":0.13571430833333337},{"name":"F4","midi":65,"time":0.278571475,"velocity":0.5905511811023622,"duration":0.15000002499999998},{"name":"G4","midi":67,"time":0.4285715,"velocity":0.5905511811023622,"duration":0.1428571666666666},{"name":"F4","midi":65,"time":0.5714286666666666,"velocity":0.5905511811023622,"duration":0.1357143083333333},{"name":"E4","midi":64,"time":0.7071429749999999,"velocity":0.5905511811023622,"duration":0.15000002499999998},{"name":"F4","midi":65,"time":0.8571429999999999,"velocity":0.5905511811023622,"duration":0.1428571666666666},{"name":"G4","midi":67,"time":1.0000001666666665,"velocity":0.5905511811023622,"duration":0.13571430833333342},{"name":"A4","midi":69,"time":1.135714475,"velocity":0.5905511811023622,"duration":0.15000002499999998},{"name":"A#4","midi":70,"time":1.2857144999999999,"velocity":0.5905511811023622,"duration":0.1428571666666667},{"name":"A4","midi":69,"time":1.4285716666666666,"velocity":0.5905511811023622,"duration":0.13571430833333342},{"name":"G4","midi":67,"time":1.564285975,"velocity":0.5905511811023622,"duration":0.15000002499999998},{"name":"A4","midi":69,"time":1.714286,"velocity":0.5905511811023622,"duration":0.4285714999999999},{"name":"D5","midi":74,"time":2.1428575,"velocity":0.5905511811023622,"duration":0.4285714999999999},{"name":"C#5","midi":73,"time":2.5714289999999997,"velocity":0.5905511811023622,"duration":0.4285714999999999},{"name":"C5","midi":72,"time":3.0000004999999996,"velocity":0.5905511811023622,"duration":0.4285714999999999},{"name":"B4","midi":71,"time":3.4285719999999995,"velocity":0.5905511811023622,"duration":0.4285714999999999},{"name":"A#4","midi":70,"time":3.8571434999999994,"velocity":0.5905511811023622,"duration":0.4285715000000003},{"name":"A4","midi":69,"time":4.285715,"velocity":0.5905511811023622,"duration":0.4285715000000003},{"name":"G4","midi":67,"time":4.7142865,"velocity":0.5905511811023622,"duration":0.8571429999999998},{"name":"F4","midi":65,"time":5.5714295,"velocity":0.5905511811023622,"duration":0.4285715000000003},{"name":"E4","midi":64,"time":6.000001,"velocity":0.5905511811023622,"duration":0.4285715000000003},{"name":"A4","midi":69,"time":6.4285725000000005,"velocity":0.5905511811023622,"duration":0.4285715000000003},{"name":"F4","midi":65,"time":6.857144000000001,"velocity":0.5905511811023622,"duration":0.4285715000000003},{"name":"D4","midi":62,"time":7.285715500000001,"velocity":0.5905511811023622,"duration":0.4285715000000003},{"name":"A4","midi":69,"time":7.7142870000000014,"velocity":0.5905511811023622,"duration":0.42857149999999944},{"name":"B3","midi":59,"time":8.785715750000001,"velocity":0.5905511811023622,"duration":0.21428575000000016},{"name":"C4","midi":60,"time":9.000001500000002,"velocity":0.5905511811023622,"duration":0.21428575000000016},{"name":"D4","midi":62,"time":9.214287250000002,"velocity":0.5905511811023622,"duration":0.21428575000000016},{"name":"E4","midi":64,"time":9.428573000000002,"velocity":0.5905511811023622,"duration":0.21428575000000016},{"name":"F#4","midi":66,"time":9.642858750000002,"velocity":0.5905511811023622,"duration":0.21428575000000016},{"name":"G4","midi":67,"time":9.857144500000002,"velocity":0.5905511811023622,"duration":0.21428575000000016},{"name":"E4","midi":64,"time":10.071430250000002,"velocity":0.5905511811023622,"duration":0.21428575000000016},{"name":"A4","midi":69,"time":10.285716000000003,"velocity":0.5905511811023622,"duration":0.21428575000000016},{"name":"G#4","midi":68,"time":10.500001750000003,"velocity":0.5905511811023622,"duration":0.21428575000000016},{"name":"A4","midi":69,"time":10.714287500000003,"velocity":0.5905511811023622,"duration":0.21428575000000016},{"name":"B4","midi":71,"time":10.928573250000003,"velocity":0.5905511811023622,"duration":0.21428575000000016},{"name":"C5","midi":72,"time":11.142859000000003,"velocity":0.5905511811023622,"duration":0.21428575000000016},{"name":"F#4","midi":66,"time":11.357144750000003,"velocity":0.5905511811023622,"duration":0.21428575000000016},{"name":"B4","midi":71,"time":11.571430500000004,"velocity":0.5905511811023622,"duration":0.21428575000000016},{"name":"A4","midi":69,"time":11.785716250000004,"velocity":0.5905511811023622,"duration":0.21428575000000016},{"name":"G#4","midi":68,"time":12.000002000000004,"velocity":0.5905511811023622,"duration":0.21428575000000016},{"name":"E4","midi":64,"time":12.214287750000004,"velocity":0.5905511811023622,"duration":0.21428575000000016},{"name":"A4","midi":69,"time":12.428573500000004,"velocity":0.5905511811023622,"duration":0.8571430000000007},{"name":"G4","midi":67,"time":13.285716500000005,"velocity":0.5905511811023622,"duration":0.5714286666666659},{"name":"F4","midi":65,"time":13.85714516666667,"velocity":0.5905511811023622,"duration":0.1357143083333341},{"name":"E4","midi":64,"time":13.992859475000005,"velocity":0.5905511811023622,"duration":0.15000002500000065},{"name":"D4","midi":62,"time":14.142859500000005,"velocity":0.5905511811023622,"duration":0.14285716666666737},{"name":"E4","midi":64,"time":14.285716666666673,"velocity":0.5905511811023622,"duration":0.1357143083333341},{"name":"F4","midi":65,"time":14.421430975000007,"velocity":0.5905511811023622,"duration":0.15000002500000065},{"name":"E4","midi":64,"time":14.571431000000008,"velocity":0.5905511811023622,"duration":0.14285716666666737},{"name":"D4","midi":62,"time":14.714288166666675,"velocity":0.5905511811023622,"duration":0.1357143083333341},{"name":"C4","midi":60,"time":14.850002475000009,"velocity":0.5905511811023622,"duration":0.15000002500000065},{"name":"B3","midi":59,"time":15.00000250000001,"velocity":0.5905511811023622,"duration":0.14285716666666737},{"name":"C4","midi":60,"time":15.142859666666677,"velocity":0.5905511811023622,"duration":0.1357143083333341},{"name":"D4","midi":62,"time":15.278573975000011,"velocity":0.5905511811023622,"duration":0.15000002500000065},{"name":"C4","midi":60,"time":15.428574000000012,"velocity":0.5905511811023622,"duration":0.4285715000000003},{"name":"C#4","midi":61,"time":15.857145500000012,"velocity":0.5905511811023622,"duration":0.4285715000000003},{"name":"D4","midi":62,"time":16.285717000000012,"velocity":0.5905511811023622,"duration":0.4285715000000003},{"name":"G3","midi":55,"time":16.714288500000013,"velocity":0.5905511811023622,"duration":0.4285715000000003},{"name":"F3","midi":53,"time":17.142860000000013,"velocity":0.5905511811023622,"duration":0.4285715000000003},{"name":"A#3","midi":58,"time":17.571431500000013,"velocity":0.5905511811023622,"duration":0.4285715000000003},{"name":"A3","midi":57,"time":18.000003000000014,"velocity":0.5905511811023622,"duration":0.4285715000000003},{"name":"D4","midi":62,"time":18.428574500000014,"velocity":0.5905511811023622,"duration":0.4285715000000003},{"name":"C#4","midi":61,"time":18.857146000000014,"velocity":0.5905511811023622,"duration":0.4285715000000003},{"name":"D4","midi":62,"time":19.285717500000015,"velocity":0.5905511811023622,"duration":0.4285715000000003},{"name":"E4","midi":64,"time":19.714289000000015,"velocity":0.5905511811023622,"duration":0.8571430000000007},{"name":"D4","midi":62,"time":20.571432000000016,"velocity":0.5905511811023622,"duration":0.8571430000000007},{"name":"A4","midi":69,"time":22.500003750000015,"velocity":0.5905511811023622,"duration":0.2142857499999984},{"name":"A#4","midi":70,"time":22.714289500000014,"velocity":0.5905511811023622,"duration":0.2142857499999984},{"name":"A4","midi":69,"time":22.928575250000012,"velocity":0.5905511811023622,"duration":0.2142857499999984},{"name":"G4","midi":67,"time":23.14286100000001,"velocity":0.5905511811023622,"duration":0.2142857499999984},{"name":"A#4","midi":70,"time":23.35714675000001,"velocity":0.5905511811023622,"duration":0.2142857499999984},{"name":"A4","midi":69,"time":23.571432500000007,"velocity":0.5905511811023622,"duration":0.2142857499999984},{"name":"G4","midi":67,"time":23.785718250000006,"velocity":0.5905511811023622,"duration":0.2142857499999984},{"name":"F#4","midi":66,"time":24.000004000000004,"velocity":0.5905511811023622,"duration":0.4285715000000003},{"name":"G4","midi":67,"time":24.428575500000004,"velocity":0.5905511811023622,"duration":0.8571430000000007},{"name":"F4","midi":65,"time":25.285718500000005,"velocity":0.5905511811023622,"duration":0.8571430000000007},{"name":"E4","midi":64,"time":26.142861500000006,"velocity":0.5905511811023622,"duration":0.4285715000000003},{"name":"D4","midi":62,"time":26.571433000000006,"velocity":0.5905511811023622,"duration":0.8571430000000007},{"name":"C4","midi":60,"time":27.428576000000007,"velocity":0.5905511811023622,"duration":0.2142857499999984},{"name":"C5","midi":72,"time":27.642861750000005,"velocity":0.5905511811023622,"duration":0.2142857499999984},{"name":"D5","midi":74,"time":27.857147500000004,"velocity":0.5905511811023622,"duration":0.2142857499999984},{"name":"C5","midi":72,"time":28.071433250000002,"velocity":0.5905511811023622,"duration":0.2142857499999984},{"name":"A#4","midi":70,"time":28.285719,"velocity":0.5905511811023622,"duration":0.2142857499999984},{"name":"D5","midi":74,"time":28.50000475,"velocity":0.5905511811023622,"duration":0.2142857499999984},{"name":"C5","midi":72,"time":28.714290499999997,"velocity":0.5905511811023622,"duration":0.2142857499999984},{"name":"A#4","midi":70,"time":28.928576249999995,"velocity":0.5905511811023622,"duration":0.2142857499999984},{"name":"A4","midi":69,"time":29.142861999999994,"velocity":0.5905511811023622,"duration":0.4285715000000003},{"name":"G4","midi":67,"time":29.571433499999994,"velocity":0.5905511811023622,"duration":0.4285715000000003},{"name":"F4","midi":65,"time":30.000004999999994,"velocity":0.5905511811023622,"duration":0.4285715000000003},{"name":"E4","midi":64,"time":30.428576499999995,"velocity":0.5905511811023622,"duration":0.4285715000000003},{"name":"F4","midi":65,"time":30.857147999999995,"velocity":0.5905511811023622,"duration":0.4285715000000003},{"name":"C#4","midi":61,"time":31.285719499999995,"velocity":0.5905511811023622,"duration":0.4285715000000003},{"name":"D4","midi":62,"time":31.714290999999996,"velocity":0.5905511811023622,"duration":1.2857144999999974},{"name":"A#3","midi":58,"time":33.00000549999999,"velocity":0.5905511811023622,"duration":0.4285714999999968},{"name":"A3","midi":57,"time":33.42857699999999,"velocity":0.5905511811023622,"duration":1.0000001666666662},{"name":"G3","midi":55,"time":34.428577166666656,"velocity":0.5905511811023622,"duration":0.1357143083333341},{"name":"F3","midi":53,"time":34.56429147499999,"velocity":0.5905511811023622,"duration":0.1500000249999971},{"name":"E3","midi":52,"time":34.71429149999999,"velocity":0.5905511811023622,"duration":0.1428571666666656},{"name":"F3","midi":53,"time":34.85714866666665,"velocity":0.5905511811023622,"duration":0.1357143083333341},{"name":"G3","midi":55,"time":34.99286297499999,"velocity":0.5905511811023622,"duration":0.1500000249999971},{"name":"F3","midi":53,"time":35.142862999999984,"velocity":0.5905511811023622,"duration":0.6428572499999987},{"name":"G3","midi":55,"time":35.78572024999998,"velocity":0.5905511811023622,"duration":0.21428575000000194},{"name":"G3","midi":55,"time":36.21429174999999,"velocity":0.5905511811023622,"duration":0.21428575000000194},{"name":"F#3","midi":54,"time":36.42857749999999,"velocity":0.5905511811023622,"duration":0.4285714999999968},{"name":"F3","midi":53,"time":37.07143474999999,"velocity":0.5905511811023622,"duration":0.21428575000000194},{"name":"E3","midi":52,"time":37.28572049999999,"velocity":0.5905511811023622,"duration":0.4285714999999968},{"name":"D#3","midi":51,"time":37.92857774999999,"velocity":0.5905511811023622,"duration":0.21428575000000194},{"name":"D3","midi":50,"time":38.14286349999999,"velocity":0.5905511811023622,"duration":0.4285714999999968},{"name":"D3","midi":50,"time":38.78572074999999,"velocity":0.5905511811023622,"duration":0.21428575000000194},{"name":"C#3","midi":49,"time":39.00000649999999,"velocity":0.5905511811023622,"duration":0.4285714999999968},{"name":"D3","midi":50,"time":39.42857799999999,"velocity":0.5905511811023622,"duration":0.21428575000000194},{"name":"A4","midi":69,"time":39.64286374999999,"velocity":0.5905511811023622,"duration":0.21428575000000194},{"name":"A#4","midi":70,"time":39.85714949999999,"velocity":0.5905511811023622,"duration":0.21428575000000194},{"name":"A4","midi":69,"time":40.07143524999999,"velocity":0.5905511811023622,"duration":0.21428575000000194},{"name":"G4","midi":67,"time":40.285720999999995,"velocity":0.5905511811023622,"duration":0.21428575000000194},{"name":"A#4","midi":70,"time":40.50000675,"velocity":0.5905511811023622,"duration":0.21428575000000194},{"name":"A4","midi":69,"time":40.7142925,"velocity":0.5905511811023622,"duration":0.21428575000000194},{"name":"G4","midi":67,"time":40.92857825,"velocity":0.5905511811023622,"duration":0.21428575000000194},{"name":"F4","midi":65,"time":41.142864,"velocity":0.5905511811023622,"duration":0.8571430000000007},{"name":"E4","midi":64,"time":42.000007000000004,"velocity":0.5905511811023622,"duration":1.2857144999999974},{"name":"D4","midi":62,"time":43.2857215,"velocity":0.5905511811023622,"duration":0.8571430000000007},{"name":"C#4","midi":61,"time":44.1428645,"velocity":0.5905511811023622,"duration":0.4285714999999968},{"name":"D4","midi":62,"time":44.571436,"velocity":0.5905511811023622,"duration":0.1428571666666656},{"name":"E4","midi":64,"time":44.714293166666664,"velocity":0.5905511811023622,"duration":0.1357143083333341},{"name":"F4","midi":65,"time":44.850007475,"velocity":0.5905511811023622,"duration":0.1500000249999971},{"name":"G4","midi":67,"time":45.000007499999995,"velocity":0.5905511811023622,"duration":0.1428571666666656},{"name":"F4","midi":65,"time":45.14286466666666,"velocity":0.5905511811023622,"duration":0.1357143083333341},{"name":"E4","midi":64,"time":45.278578974999995,"velocity":0.5905511811023622,"duration":0.1500000249999971},{"name":"F4","midi":65,"time":45.42857899999999,"velocity":0.5905511811023622,"duration":0.1428571666666656},{"name":"G4","midi":67,"time":45.57143616666666,"velocity":0.5905511811023622,"duration":0.1357143083333341},{"name":"A4","midi":69,"time":45.70715047499999,"velocity":0.5905511811023622,"duration":0.1500000249999971},{"name":"A#4","midi":70,"time":45.85715049999999,"velocity":0.5905511811023622,"duration":0.1428571666666656},{"name":"A4","midi":69,"time":46.000007666666654,"velocity":0.5905511811023622,"duration":0.1357143083333341},{"name":"G4","midi":67,"time":46.13572197499999,"velocity":0.5905511811023622,"duration":0.1500000249999971},{"name":"A4","midi":69,"time":46.285721999999986,"velocity":0.5905511811023622,"duration":0.4285714999999968},{"name":"D5","midi":74,"time":46.71429349999998,"velocity":0.5905511811023622,"duration":0.4285714999999968},{"name":"C#5","midi":73,"time":47.14286499999998,"velocity":0.5905511811023622,"duration":0.4285714999999968},{"name":"C5","midi":72,"time":47.571436499999976,"velocity":0.5905511811023622,"duration":0.4285714999999968},{"name":"B4","midi":71,"time":48.00000799999997,"velocity":0.5905511811023622,"duration":0.4285714999999968},{"name":"A#4","midi":70,"time":48.42857949999997,"velocity":0.5905511811023622,"duration":0.4285714999999968},{"name":"A4","midi":69,"time":48.857150999999966,"velocity":0.5905511811023622,"duration":1.2857144999999974},{"name":"F4","midi":65,"time":50.357151249999966,"velocity":0.5905511811023622,"duration":0.21428575000000194},{"name":"E4","midi":64,"time":50.57143699999997,"velocity":0.5905511811023622,"duration":0.6428572499999987},{"name":"E4","midi":64,"time":51.214294249999966,"velocity":0.5905511811023622,"duration":0.21428575000000194},{"name":"D4","midi":62,"time":51.42857999999997,"velocity":0.5905511811023622,"duration":0.6428572499999987},{"name":"D4","midi":62,"time":52.07143724999997,"velocity":0.5905511811023622,"duration":0.21428575000000194},{"name":"C4","midi":60,"time":52.28572299999997,"velocity":0.5905511811023622,"duration":0.6428572499999987},{"name":"C4","midi":60,"time":52.92858024999997,"velocity":0.5905511811023622,"duration":0.21428575000000194},{"name":"B3","midi":59,"time":53.14286599999997,"velocity":0.5905511811023622,"duration":0.6428572499999987},{"name":"A#3","midi":58,"time":53.78572324999997,"velocity":0.5905511811023622,"duration":0.21428575000000194},{"name":"A3","midi":57,"time":54.00000899999997,"velocity":0.5905511811023622,"duration":0.4285714999999968},{"name":"A4","midi":69,"time":54.857151999999964,"velocity":0.5905511811023622,"duration":0.1428571666666656},{"name":"G4","midi":67,"time":55.00000916666663,"velocity":0.5905511811023622,"duration":0.1357143083333341},{"name":"F4","midi":65,"time":55.13572347499996,"velocity":0.5905511811023622,"duration":0.1500000249999971},{"name":"E4","midi":64,"time":55.28572349999996,"velocity":0.5905511811023622,"duration":0.1428571666666656},{"name":"F4","midi":65,"time":55.428580666666626,"velocity":0.5905511811023622,"duration":0.1357143083333341},{"name":"G4","midi":67,"time":55.56429497499996,"velocity":0.5905511811023622,"duration":0.1500000249999971},{"name":"F4","midi":65,"time":55.71429499999996,"velocity":0.5905511811023622,"duration":0.1428571666666656},{"name":"E4","midi":64,"time":55.85715216666662,"velocity":0.5905511811023622,"duration":0.1357143083333341},{"name":"D4","midi":62,"time":55.99286647499996,"velocity":0.5905511811023622,"duration":0.1500000249999971},{"name":"C#4","midi":61,"time":56.142866499999954,"velocity":0.5905511811023622,"duration":0.1428571666666656},{"name":"D4","midi":62,"time":56.28572366666662,"velocity":0.5905511811023622,"duration":0.1357143083333341},{"name":"E4","midi":64,"time":56.421437974999954,"velocity":0.5905511811023622,"duration":0.1500000249999971},{"name":"D4","midi":62,"time":56.57143799999995,"velocity":0.5905511811023622,"duration":0.4285714999999968},{"name":"A3","midi":57,"time":57.00000949999995,"velocity":0.5905511811023622,"duration":0.4285714999999968},{"name":"A#3","midi":58,"time":57.428580999999944,"velocity":0.5905511811023622,"duration":0.4285714999999968},{"name":"B3","midi":59,"time":57.85715249999994,"velocity":0.5905511811023622,"duration":0.4285714999999968},{"name":"C4","midi":60,"time":58.28572399999994,"velocity":0.5905511811023622,"duration":0.4285714999999968},{"name":"C#4","midi":61,"time":58.714295499999935,"velocity":0.5905511811023622,"duration":0.4285714999999968},{"name":"D4","midi":62,"time":59.14286699999993,"velocity":0.5905511811023622,"duration":2.142857499999998},{"name":"D5","midi":74,"time":62.57143899999993,"velocity":0.5905511811023622,"duration":0.1428571666666656},{"name":"C5","midi":72,"time":62.71429616666659,"velocity":0.5905511811023622,"duration":0.1357143083333341},{"name":"A#4","midi":70,"time":62.85001047499993,"velocity":0.5905511811023622,"duration":0.1500000249999971},{"name":"A4","midi":69,"time":63.000010499999924,"velocity":0.5905511811023622,"duration":0.1428571666666656},{"name":"A#4","midi":70,"time":63.14286766666659,"velocity":0.5905511811023622,"duration":0.1357143083333341},{"name":"C5","midi":72,"time":63.27858197499992,"velocity":0.5905511811023622,"duration":0.1500000249999971},{"name":"A#4","midi":70,"time":63.42858199999992,"velocity":0.5905511811023622,"duration":0.2785714749999997},{"name":"D5","midi":74,"time":63.85715349999992,"velocity":0.5905511811023622,"duration":0.2785714749999997},{"name":"G4","midi":67,"time":64.28572499999991,"velocity":0.5905511811023622,"duration":0.2785714750000068},{"name":"B4","midi":71,"time":64.71429649999992,"velocity":0.5905511811023622,"duration":0.4285715000000039},{"name":"C5","midi":72,"time":65.14286799999992,"velocity":0.5905511811023622,"duration":0.4285715000000039},{"name":"C5","midi":72,"time":66.00001099999993,"velocity":0.5905511811023622,"duration":0.1428571666666727},{"name":"A#4","midi":70,"time":66.1428681666666,"velocity":0.5905511811023622,"duration":0.1357143083333341},{"name":"A4","midi":69,"time":66.27858247499994,"velocity":0.5905511811023622,"duration":0.1500000249999971},{"name":"G4","midi":67,"time":66.42858249999993,"velocity":0.5905511811023622,"duration":0.1428571666666727},{"name":"A4","midi":69,"time":66.5714396666666,"velocity":0.5905511811023622,"duration":0.1357143083333341},{"name":"A#4","midi":70,"time":66.70715397499994,"velocity":0.5905511811023622,"duration":0.1500000249999971},{"name":"A4","midi":69,"time":66.85715399999994,"velocity":0.5905511811023622,"duration":0.2785714750000068},{"name":"C5","midi":72,"time":67.28572549999994,"velocity":0.5905511811023622,"duration":0.2785714750000068},{"name":"F4","midi":65,"time":67.71429699999995,"velocity":0.5905511811023622,"duration":0.2785714750000068},{"name":"A4","midi":69,"time":68.14286849999995,"velocity":0.5905511811023622,"duration":0.4285715000000039},{"name":"A#4","midi":70,"time":68.57143999999995,"velocity":0.5905511811023622,"duration":0.4285715000000039},{"name":"A4","midi":69,"time":69.00001149999996,"velocity":0.5905511811023622,"duration":2.357143249999993},{"name":"A4","midi":69,"time":71.35715474999995,"velocity":0.5905511811023622,"duration":0.21428575000000194},{"name":"A#4","midi":70,"time":71.57144049999995,"velocity":0.5905511811023622,"duration":0.21428575000000194},{"name":"A4","midi":69,"time":71.78572624999995,"velocity":0.5905511811023622,"duration":0.21428575000000194},{"name":"G4","midi":67,"time":72.00001199999996,"velocity":0.5905511811023622,"duration":0.21428575000000194},{"name":"A#4","midi":70,"time":72.21429774999996,"velocity":0.5905511811023622,"duration":0.21428575000000194},{"name":"A4","midi":69,"time":72.42858349999996,"velocity":0.5905511811023622,"duration":0.21428575000000194},{"name":"G4","midi":67,"time":72.64286924999996,"velocity":0.5905511811023622,"duration":0.21428575000000194},{"name":"F4","midi":65,"time":72.85715499999996,"velocity":0.5905511811023622,"duration":0.2785714750000068},{"name":"A#3","midi":58,"time":73.28572649999997,"velocity":0.5905511811023622,"duration":0.4285715000000039},{"name":"A3","midi":57,"time":73.71429799999997,"velocity":0.5905511811023622,"duration":0.8571429999999935},{"name":"G3","midi":55,"time":74.57144099999996,"velocity":0.5905511811023622,"duration":0.2785714750000068},{"name":"G4","midi":67,"time":75.00001249999997,"velocity":0.5905511811023622,"duration":0.8571429999999935},{"name":"F4","midi":65,"time":75.85715549999996,"velocity":0.5905511811023622,"duration":0.21428575000000194},{"name":"E4","midi":64,"time":76.07144124999996,"velocity":0.5905511811023622,"duration":0.21428575000000194},{"name":"D4","midi":62,"time":76.28572699999997,"velocity":0.5905511811023622,"duration":0.21428575000000194},{"name":"F4","midi":65,"time":76.50001274999997,"velocity":0.5905511811023622,"duration":0.21428575000000194},{"name":"E4","midi":64,"time":76.71429849999997,"velocity":0.5905511811023622,"duration":0.21428575000000194},{"name":"D4","midi":62,"time":76.92858424999997,"velocity":0.5905511811023622,"duration":0.21428575000000194},{"name":"C#4","midi":61,"time":77.14286999999997,"velocity":0.5905511811023622,"duration":0.4285715000000039},{"name":"D4","midi":62,"time":77.57144149999998,"velocity":0.5905511811023622,"duration":0.8571429999999935},{"name":"C#4","midi":61,"time":78.42858449999997,"velocity":0.5905511811023622,"duration":0.4285715000000039},{"name":"C4","midi":60,"time":79.07144174999998,"velocity":0.5905511811023622,"duration":0.21428575000000194},{"name":"A#3","midi":58,"time":79.28572749999998,"velocity":0.5905511811023622,"duration":0.21428575000000194},{"name":"A3","midi":57,"time":79.50001324999998,"velocity":0.5905511811023622,"duration":0.21428575000000194},{"name":"G3","midi":55,"time":79.71429899999998,"velocity":0.5905511811023622,"duration":0.21428575000000194},{"name":"A#3","midi":58,"time":79.92858474999998,"velocity":0.5905511811023622,"duration":0.21428575000000194},{"name":"A3","midi":57,"time":80.14287049999999,"velocity":0.5905511811023622,"duration":0.21428575000000194},{"name":"G3","midi":55,"time":80.35715624999999,"velocity":0.5905511811023622,"duration":0.21428575000000194},{"name":"F3","midi":53,"time":80.57144199999999,"velocity":0.5905511811023622,"duration":0.21428575000000194},{"name":"A3","midi":57,"time":80.78572774999999,"velocity":0.5905511811023622,"duration":0.21428575000000194},{"name":"G3","midi":55,"time":81.0000135,"velocity":0.5905511811023622,"duration":0.21428575000000194},{"name":"F3","midi":53,"time":81.21429925,"velocity":0.5905511811023622,"duration":0.21428575000000194},{"name":"E3","midi":52,"time":81.428585,"velocity":0.5905511811023622,"duration":0.21428575000000194},{"name":"D3","midi":50,"time":81.64287075,"velocity":0.5905511811023622,"duration":0.21428575000000194},{"name":"C#3","midi":49,"time":81.8571565,"velocity":0.5905511811023622,"duration":0.21428575000000194},{"name":"E3","midi":52,"time":82.07144225,"velocity":0.5905511811023622,"duration":0.21428575000000194},{"name":"D3","midi":50,"time":82.285728,"velocity":0.5905511811023622,"duration":0.1428571666666727},{"name":"E3","midi":52,"time":82.42858516666668,"velocity":0.5905511811023622,"duration":0.1357143083333341},{"name":"F3","midi":53,"time":82.56429947500001,"velocity":0.5905511811023622,"duration":0.1500000249999971},{"name":"G3","midi":55,"time":82.71429950000001,"velocity":0.5905511811023622,"duration":0.1428571666666727},{"name":"F3","midi":53,"time":82.85715666666668,"velocity":0.5905511811023622,"duration":0.1357143083333341},{"name":"E3","midi":52,"time":82.99287097500002,"velocity":0.5905511811023622,"duration":0.1500000249999971},{"name":"F3","midi":53,"time":83.14287100000001,"velocity":0.5905511811023622,"duration":0.1428571666666727},{"name":"G3","midi":55,"time":83.28572816666669,"velocity":0.5905511811023622,"duration":0.1357143083333341},{"name":"A3","midi":57,"time":83.42144247500002,"velocity":0.5905511811023622,"duration":0.1500000249999971},{"name":"A#3","midi":58,"time":83.57144250000002,"velocity":0.5905511811023622,"duration":0.1428571666666727},{"name":"A3","midi":57,"time":83.71429966666669,"velocity":0.5905511811023622,"duration":0.1357143083333341},{"name":"G3","midi":55,"time":83.85001397500002,"velocity":0.5905511811023622,"duration":0.1500000249999971},{"name":"A3","midi":57,"time":84.00001400000002,"velocity":0.5905511811023622,"duration":1.0000001666666662},{"name":"G3","midi":55,"time":85.00001416666669,"velocity":0.5905511811023622,"duration":0.1357143083333341},{"name":"F3","midi":53,"time":85.13572847500002,"velocity":0.5905511811023622,"duration":0.1500000249999971},{"name":"E3","midi":52,"time":85.28572850000002,"velocity":0.5905511811023622,"duration":0.1428571666666727},{"name":"F3","midi":53,"time":85.42858566666669,"velocity":0.5905511811023622,"duration":0.1357143083333341},{"name":"G3","midi":55,"time":85.56429997500003,"velocity":0.5905511811023622,"duration":0.1500000249999971},{"name":"F3","midi":53,"time":85.71430000000002,"velocity":0.5905511811023622,"duration":0.4285715000000039},{"name":"F4","midi":65,"time":86.14287150000003,"velocity":0.5905511811023622,"duration":0.4285715000000039},{"name":"E4","midi":64,"time":86.57144300000003,"velocity":0.5905511811023622,"duration":0.4285715000000039},{"name":"A4","midi":69,"time":87.00001450000003,"velocity":0.5905511811023622,"duration":1.0714287499999955},{"name":"G4","midi":67,"time":88.07144325000003,"velocity":0.5905511811023622,"duration":0.4285715000000039},{"name":"F4","midi":65,"time":88.50001475000003,"velocity":0.5905511811023622,"duration":0.4285715000000039},{"name":"F4","midi":65,"time":88.92858625000004,"velocity":0.5905511811023622,"duration":0.21428575000000194},{"name":"E4","midi":64,"time":89.14287200000004,"velocity":0.5905511811023622,"duration":0.4285715000000039},{"name":"D4","midi":62,"time":89.57144350000004,"velocity":0.5905511811023622,"duration":0.8571429999999935},{"name":"C#4","midi":61,"time":90.42858650000004,"velocity":0.5905511811023622,"duration":0.4285715000000039}],"controlChanges":{"7":[{"number":7,"time":0,"value":0.7874015748031497}]},"id":2,"name":"sequenced by","instrumentNumber":6,"instrument":"harpsichord","instrumentFamily":"piano","channelNumber":0,"isPercussion":false},{"startTime":17.14286,"duration":92.5714440000002,"length":274,"notes":[{"name":"D3","midi":50,"time":17.14286,"velocity":0.5905511811023622,"duration":0.1428571666666656},{"name":"E3","midi":52,"time":17.285717166666664,"velocity":0.5905511811023622,"duration":0.1357143083333341},{"name":"F3","midi":53,"time":17.421431475,"velocity":0.5905511811023622,"duration":0.15000002500000065},{"name":"G3","midi":55,"time":17.5714315,"velocity":0.5905511811023622,"duration":0.1428571666666656},{"name":"F3","midi":53,"time":17.714288666666665,"velocity":0.5905511811023622,"duration":0.1357143083333341},{"name":"E3","midi":52,"time":17.850002975,"velocity":0.5905511811023622,"duration":0.15000002500000065},{"name":"F3","midi":53,"time":18.000003,"velocity":0.5905511811023622,"duration":0.1428571666666656},{"name":"G3","midi":55,"time":18.142860166666665,"velocity":0.5905511811023622,"duration":0.1357143083333341},{"name":"A3","midi":57,"time":18.278574475,"velocity":0.5905511811023622,"duration":0.15000002500000065},{"name":"A#3","midi":58,"time":18.4285745,"velocity":0.5905511811023622,"duration":0.1428571666666656},{"name":"A3","midi":57,"time":18.571431666666665,"velocity":0.5905511811023622,"duration":0.1357143083333341},{"name":"G3","midi":55,"time":18.707145975,"velocity":0.5905511811023622,"duration":0.15000002500000065},{"name":"A3","midi":57,"time":18.857146,"velocity":0.5905511811023622,"duration":0.4285715000000003},{"name":"C#4","midi":61,"time":19.714289,"velocity":0.5905511811023622,"duration":0.4285715000000003},{"name":"C4","midi":60,"time":20.1428605,"velocity":0.5905511811023622,"duration":0.4285715000000003},{"name":"B3","midi":59,"time":20.571432,"velocity":0.5905511811023622,"duration":0.4285715000000003},{"name":"A#3","midi":58,"time":21.000003500000002,"velocity":0.5905511811023622,"duration":0.4285715000000003},{"name":"A3","midi":57,"time":21.428575000000002,"velocity":0.5905511811023622,"duration":0.4285715000000003},{"name":"G3","midi":55,"time":21.857146500000002,"velocity":0.5905511811023622,"duration":0.8571430000000007},{"name":"F3","midi":53,"time":22.714289500000003,"velocity":0.5905511811023622,"duration":0.4285715000000003},{"name":"E3","midi":52,"time":23.142861000000003,"velocity":0.5905511811023622,"duration":0.4285715000000003},{"name":"A3","midi":57,"time":23.571432500000004,"velocity":0.5905511811023622,"duration":0.4285715000000003},{"name":"D3","midi":50,"time":24.000004000000004,"velocity":0.5905511811023622,"duration":0.2142857499999984},{"name":"D4","midi":62,"time":24.214289750000002,"velocity":0.5905511811023622,"duration":0.2142857499999984},{"name":"D#4","midi":63,"time":24.4285755,"velocity":0.5905511811023622,"duration":0.2142857499999984},{"name":"D4","midi":62,"time":24.64286125,"velocity":0.5905511811023622,"duration":0.2142857499999984},{"name":"C4","midi":60,"time":24.857146999999998,"velocity":0.5905511811023622,"duration":0.2142857499999984},{"name":"D#4","midi":63,"time":25.071432749999996,"velocity":0.5905511811023622,"duration":0.2142857499999984},{"name":"D4","midi":62,"time":25.285718499999994,"velocity":0.5905511811023622,"duration":0.2142857499999984},{"name":"C4","midi":60,"time":25.500004249999993,"velocity":0.5905511811023622,"duration":0.2142857499999984},{"name":"B3","midi":59,"time":25.71428999999999,"velocity":0.5905511811023622,"duration":0.2142857499999984},{"name":"G3","midi":55,"time":25.92857574999999,"velocity":0.5905511811023622,"duration":0.2142857499999984},{"name":"C4","midi":60,"time":26.142861499999988,"velocity":0.5905511811023622,"duration":0.8571430000000007},{"name":"A#3","midi":58,"time":27.00000449999999,"velocity":0.5905511811023622,"duration":0.8571430000000007},{"name":"A3","midi":57,"time":27.85714749999999,"velocity":0.5905511811023622,"duration":0.4285715000000003},{"name":"G3","midi":55,"time":28.28571899999999,"velocity":0.5905511811023622,"duration":0.4285715000000003},{"name":"C4","midi":60,"time":28.71429049999999,"velocity":0.5905511811023622,"duration":0.4285715000000003},{"name":"F3","midi":53,"time":29.14286199999999,"velocity":0.5905511811023622,"duration":0.1428571666666656},{"name":"G3","midi":55,"time":29.285719166666656,"velocity":0.5905511811023622,"duration":0.1357143083333341},{"name":"A3","midi":57,"time":29.42143347499999,"velocity":0.5905511811023622,"duration":0.15000002500000065},{"name":"A#3","midi":58,"time":29.57143349999999,"velocity":0.5905511811023622,"duration":0.1428571666666656},{"name":"A3","midi":57,"time":29.714290666666656,"velocity":0.5905511811023622,"duration":0.1357143083333341},{"name":"G3","midi":55,"time":29.85000497499999,"velocity":0.5905511811023622,"duration":0.15000002500000065},{"name":"A3","midi":57,"time":30.00000499999999,"velocity":0.5905511811023622,"duration":0.2785714749999997},{"name":"A2","midi":45,"time":30.42857649999999,"velocity":0.5905511811023622,"duration":0.2785714749999997},{"name":"D3","midi":50,"time":30.85714799999999,"velocity":0.5905511811023622,"duration":0.1428571666666656},{"name":"E3","midi":52,"time":31.000005166666657,"velocity":0.5905511811023622,"duration":0.1357143083333341},{"name":"F3","midi":53,"time":31.13571947499999,"velocity":0.5905511811023622,"duration":0.15000002500000065},{"name":"G3","midi":55,"time":31.285719499999992,"velocity":0.5905511811023622,"duration":0.1428571666666656},{"name":"F3","midi":53,"time":31.428576666666658,"velocity":0.5905511811023622,"duration":0.1357143083333341},{"name":"E3","midi":52,"time":31.56429097499999,"velocity":0.5905511811023622,"duration":0.15000002500000065},{"name":"F3","midi":53,"time":31.714290999999992,"velocity":0.5905511811023622,"duration":0.1428571666666656},{"name":"G3","midi":55,"time":31.857148166666658,"velocity":0.5905511811023622,"duration":0.1357143083333341},{"name":"A3","midi":57,"time":31.992862474999992,"velocity":0.5905511811023622,"duration":0.15000002500000065},{"name":"A#3","midi":58,"time":32.14286249999999,"velocity":0.5905511811023622,"duration":0.1428571666666656},{"name":"A3","midi":57,"time":32.28571966666666,"velocity":0.5905511811023622,"duration":0.1357143083333341},{"name":"G3","midi":55,"time":32.42143397499999,"velocity":0.5905511811023622,"duration":0.1500000249999971},{"name":"A3","midi":57,"time":32.57143399999999,"velocity":0.5905511811023622,"duration":0.4285714999999968},{"name":"G3","midi":55,"time":33.000005499999986,"velocity":0.5905511811023622,"duration":0.4285714999999968},{"name":"F3","midi":53,"time":33.42857699999998,"velocity":0.5905511811023622,"duration":0.1428571666666656},{"name":"E3","midi":52,"time":33.57143416666665,"velocity":0.5905511811023622,"duration":0.1357143083333341},{"name":"D3","midi":50,"time":33.70714847499998,"velocity":0.5905511811023622,"duration":0.1500000249999971},{"name":"C#3","midi":49,"time":33.85714849999998,"velocity":0.5905511811023622,"duration":0.1428571666666656},{"name":"D3","midi":50,"time":34.000005666666645,"velocity":0.5905511811023622,"duration":0.1357143083333341},{"name":"E3","midi":52,"time":34.13571997499998,"velocity":0.5905511811023622,"duration":0.1500000249999971},{"name":"D3","midi":50,"time":34.285719999999976,"velocity":0.5905511811023622,"duration":1.0714287500000026},{"name":"C3","midi":48,"time":35.35714874999998,"velocity":0.5905511811023622,"duration":0.21428575000000194},{"name":"A#2","midi":46,"time":35.57143449999998,"velocity":0.5905511811023622,"duration":0.4285714999999968},{"name":"A2","midi":45,"time":36.00000599999998,"velocity":0.5905511811023622,"duration":0.6428572499999987},{"name":"D3","midi":50,"time":36.64286324999998,"velocity":0.5905511811023622,"duration":0.21428575000000194},{"name":"G2","midi":43,"time":36.85714899999998,"velocity":0.5905511811023622,"duration":0.6428572499999987},{"name":"C3","midi":48,"time":37.50000624999998,"velocity":0.5905511811023622,"duration":0.21428575000000194},{"name":"F2","midi":41,"time":37.71429199999998,"velocity":0.5905511811023622,"duration":0.6428572499999987},{"name":"A#2","midi":46,"time":38.35714924999998,"velocity":0.5905511811023622,"duration":0.21428575000000194},{"name":"E2","midi":40,"time":38.57143499999998,"velocity":0.5905511811023622,"duration":0.6428572499999987},{"name":"A2","midi":45,"time":39.21429224999998,"velocity":0.5905511811023622,"duration":0.21428575000000194},{"name":"D2","midi":38,"time":39.42857799999998,"velocity":0.5905511811023622,"duration":0.4285714999999968},{"name":"D3","midi":50,"time":39.85714949999998,"velocity":0.5905511811023622,"duration":0.8571430000000007},{"name":"C#3","midi":49,"time":40.71429249999998,"velocity":0.5905511811023622,"duration":0.4285714999999968},{"name":"D3","midi":50,"time":41.142863999999975,"velocity":0.5905511811023622,"duration":0.21428575000000194},{"name":"A3","midi":57,"time":41.35714974999998,"velocity":0.5905511811023622,"duration":0.21428575000000194},{"name":"A#3","midi":58,"time":41.57143549999998,"velocity":0.5905511811023622,"duration":0.21428575000000194},{"name":"A3","midi":57,"time":41.78572124999998,"velocity":0.5905511811023622,"duration":0.21428575000000194},{"name":"G3","midi":55,"time":42.00000699999998,"velocity":0.5905511811023622,"duration":0.21428575000000194},{"name":"A#3","midi":58,"time":42.214292749999984,"velocity":0.5905511811023622,"duration":0.21428575000000194},{"name":"A3","midi":57,"time":42.428578499999986,"velocity":0.5905511811023622,"duration":0.21428575000000194},{"name":"G3","midi":55,"time":42.64286424999999,"velocity":0.5905511811023622,"duration":0.21428575000000194},{"name":"F3","midi":53,"time":42.85714999999999,"velocity":0.5905511811023622,"duration":0.8571430000000007},{"name":"E3","midi":52,"time":43.71429299999999,"velocity":0.5905511811023622,"duration":0.8571430000000007},{"name":"D3","midi":50,"time":44.57143599999999,"velocity":0.5905511811023622,"duration":0.4285714999999968},{"name":"B2","midi":47,"time":47.35715074999999,"velocity":0.5905511811023622,"duration":0.21428575000000194},{"name":"C3","midi":48,"time":47.57143649999999,"velocity":0.5905511811023622,"duration":0.21428575000000194},{"name":"D3","midi":50,"time":47.78572224999999,"velocity":0.5905511811023622,"duration":0.21428575000000194},{"name":"E3","midi":52,"time":48.000007999999994,"velocity":0.5905511811023622,"duration":0.21428575000000194},{"name":"F#3","midi":54,"time":48.214293749999996,"velocity":0.5905511811023622,"duration":0.21428575000000194},{"name":"G3","midi":55,"time":48.4285795,"velocity":0.5905511811023622,"duration":0.21428575000000194},{"name":"E3","midi":52,"time":48.64286525,"velocity":0.5905511811023622,"duration":0.21428575000000194},{"name":"A3","midi":57,"time":48.857151,"velocity":0.5905511811023622,"duration":0.21428575000000194},{"name":"G#3","midi":56,"time":49.071436750000004,"velocity":0.5905511811023622,"duration":0.21428575000000194},{"name":"A3","midi":57,"time":49.285722500000006,"velocity":0.5905511811023622,"duration":0.21428575000000194},{"name":"B3","midi":59,"time":49.50000825000001,"velocity":0.5905511811023622,"duration":0.21428575000000194},{"name":"C4","midi":60,"time":49.71429400000001,"velocity":0.5905511811023622,"duration":0.21428575000000194},{"name":"F#3","midi":54,"time":49.92857975000001,"velocity":0.5905511811023622,"duration":0.21428575000000194},{"name":"B3","midi":59,"time":50.14286550000001,"velocity":0.5905511811023622,"duration":0.21428575000000194},{"name":"A3","midi":57,"time":50.357151250000015,"velocity":0.5905511811023622,"duration":0.21428575000000194},{"name":"G#3","midi":56,"time":50.57143700000002,"velocity":0.5905511811023622,"duration":0.21428575000000194},{"name":"E3","midi":52,"time":50.78572275000002,"velocity":0.5905511811023622,"duration":0.21428575000000194},{"name":"A3","midi":57,"time":51.00000850000002,"velocity":0.5905511811023622,"duration":0.6428572499999987},{"name":"D3","midi":50,"time":51.64286575000002,"velocity":0.5905511811023622,"duration":0.21428575000000194},{"name":"G3","midi":55,"time":51.85715150000002,"velocity":0.5905511811023622,"duration":0.21428575000000194},{"name":"F3","midi":53,"time":52.071437250000024,"velocity":0.5905511811023622,"duration":0.21428575000000194},{"name":"E3","midi":52,"time":52.285723000000026,"velocity":0.5905511811023622,"duration":0.21428575000000194},{"name":"C3","midi":48,"time":52.50000875000003,"velocity":0.5905511811023622,"duration":0.21428575000000194},{"name":"F3","midi":53,"time":52.71429450000003,"velocity":0.5905511811023622,"duration":0.6428572499999987},{"name":"B2","midi":47,"time":53.35715175000003,"velocity":0.5905511811023622,"duration":0.21428575000000194},{"name":"E3","midi":52,"time":53.57143750000003,"velocity":0.5905511811023622,"duration":0.21428575000000194},{"name":"D3","midi":50,"time":53.78572325000003,"velocity":0.5905511811023622,"duration":0.21428575000000194},{"name":"C#3","midi":49,"time":54.000009000000034,"velocity":0.5905511811023622,"duration":0.21428575000000194},{"name":"A2","midi":45,"time":54.214294750000036,"velocity":0.5905511811023622,"duration":0.21428575000000194},{"name":"D3","midi":50,"time":54.42858050000004,"velocity":0.5905511811023622,"duration":0.8571430000000007},{"name":"C#3","midi":49,"time":55.28572350000004,"velocity":0.5905511811023622,"duration":0.4285714999999968},{"name":"D3","midi":50,"time":55.714295000000035,"velocity":0.5905511811023622,"duration":0.1428571666666656},{"name":"C3","midi":48,"time":55.8571521666667,"velocity":0.5905511811023622,"duration":0.1357143083333341},{"name":"A#2","midi":46,"time":55.992866475000035,"velocity":0.5905511811023622,"duration":0.1500000249999971},{"name":"A2","midi":45,"time":56.14286650000003,"velocity":0.5905511811023622,"duration":0.1428571666666656},{"name":"A#2","midi":46,"time":56.2857236666667,"velocity":0.5905511811023622,"duration":0.1357143083333341},{"name":"C3","midi":48,"time":56.42143797500003,"velocity":0.5905511811023622,"duration":0.1500000249999971},{"name":"A#2","midi":46,"time":56.57143800000003,"velocity":0.5905511811023622,"duration":0.1428571666666656},{"name":"A2","midi":45,"time":56.714295166666695,"velocity":0.5905511811023622,"duration":0.1357143083333341},{"name":"G2","midi":43,"time":56.85000947500003,"velocity":0.5905511811023622,"duration":0.1500000249999971},{"name":"F#2","midi":42,"time":57.000009500000026,"velocity":0.5905511811023622,"duration":0.1428571666666656},{"name":"G2","midi":43,"time":57.14286666666669,"velocity":0.5905511811023622,"duration":0.1357143083333341},{"name":"A2","midi":45,"time":57.278580975000025,"velocity":0.5905511811023622,"duration":0.1500000249999971},{"name":"G2","midi":43,"time":57.42858100000002,"velocity":0.5905511811023622,"duration":0.4285714999999968},{"name":"D2","midi":38,"time":57.85715250000002,"velocity":0.5905511811023622,"duration":0.4285714999999968},{"name":"D#2","midi":39,"time":58.285724000000016,"velocity":0.5905511811023622,"duration":0.4285714999999968},{"name":"E2","midi":40,"time":58.71429550000001,"velocity":0.5905511811023622,"duration":0.4285714999999968},{"name":"F2","midi":41,"time":59.14286700000001,"velocity":0.5905511811023622,"duration":0.4285714999999968},{"name":"F#2","midi":42,"time":59.571438500000006,"velocity":0.5905511811023622,"duration":0.4285714999999968},{"name":"G2","midi":43,"time":60.00001,"velocity":0.5905511811023622,"duration":0.1428571666666656},{"name":"A2","midi":45,"time":60.14286716666667,"velocity":0.5905511811023622,"duration":0.1357143083333341},{"name":"A#2","midi":46,"time":60.278581475,"velocity":0.5905511811023622,"duration":0.1500000249999971},{"name":"C3","midi":48,"time":60.4285815,"velocity":0.5905511811023622,"duration":0.1428571666666656},{"name":"A#2","midi":46,"time":60.571438666666666,"velocity":0.5905511811023622,"duration":0.1357143083333341},{"name":"A2","midi":45,"time":60.707152975,"velocity":0.5905511811023622,"duration":0.1500000249999971},{"name":"A#2","midi":46,"time":60.857153,"velocity":0.5905511811023622,"duration":0.1428571666666656},{"name":"C3","midi":48,"time":61.00001016666666,"velocity":0.5905511811023622,"duration":0.1357143083333341},{"name":"D3","midi":50,"time":61.135724474999996,"velocity":0.5905511811023622,"duration":0.1500000249999971},{"name":"D#3","midi":51,"time":61.28572449999999,"velocity":0.5905511811023622,"duration":0.1428571666666656},{"name":"D3","midi":50,"time":61.42858166666666,"velocity":0.5905511811023622,"duration":0.1357143083333341},{"name":"C3","midi":48,"time":61.56429597499999,"velocity":0.5905511811023622,"duration":0.1500000249999971},{"name":"D3","midi":50,"time":61.71429599999999,"velocity":0.5905511811023622,"duration":0.4285714999999968},{"name":"G3","midi":55,"time":62.14286749999999,"velocity":0.5905511811023622,"duration":0.8571430000000007},{"name":"F#3","midi":54,"time":63.00001049999999,"velocity":0.5905511811023622,"duration":0.4285714999999968},{"name":"G3","midi":55,"time":63.428581999999984,"velocity":0.5905511811023622,"duration":0.1428571666666656},{"name":"F3","midi":53,"time":63.57143916666665,"velocity":0.5905511811023622,"duration":0.1357143083333341},{"name":"E3","midi":52,"time":63.707153474999984,"velocity":0.5905511811023622,"duration":0.1500000249999971},{"name":"D3","midi":50,"time":63.85715349999998,"velocity":0.5905511811023622,"duration":0.1428571666666727},{"name":"E3","midi":52,"time":64.00001066666665,"velocity":0.5905511811023622,"duration":0.1357143083333341},{"name":"F3","midi":53,"time":64.13572497499999,"velocity":0.5905511811023622,"duration":0.1500000249999971},{"name":"E3","midi":52,"time":64.28572499999999,"velocity":0.5905511811023622,"duration":0.2785714750000068},{"name":"G3","midi":55,"time":64.71429649999999,"velocity":0.5905511811023622,"duration":0.2785714750000068},{"name":"C4","midi":60,"time":65.14286799999999,"velocity":0.5905511811023622,"duration":0.1428571666666727},{"name":"A#3","midi":58,"time":65.28572516666667,"velocity":0.5905511811023622,"duration":0.1357143083333341},{"name":"A3","midi":57,"time":65.421439475,"velocity":0.5905511811023622,"duration":0.1500000249999971},{"name":"G3","midi":55,"time":65.5714395,"velocity":0.5905511811023622,"duration":0.1428571666666727},{"name":"A3","midi":57,"time":65.71429666666667,"velocity":0.5905511811023622,"duration":0.1357143083333341},{"name":"A#3","midi":58,"time":65.850010975,"velocity":0.5905511811023622,"duration":0.1500000249999971},{"name":"A3","midi":57,"time":66.000011,"velocity":0.5905511811023622,"duration":0.2785714750000068},{"name":"C4","midi":60,"time":66.4285825,"velocity":0.5905511811023622,"duration":0.2785714750000068},{"name":"F3","midi":53,"time":66.85715400000001,"velocity":0.5905511811023622,"duration":0.1428571666666727},{"name":"D#3","midi":51,"time":67.00001116666668,"velocity":0.5905511811023622,"duration":0.1357143083333341},{"name":"D3","midi":50,"time":67.13572547500002,"velocity":0.5905511811023622,"duration":0.1500000249999971},{"name":"C3","midi":48,"time":67.28572550000001,"velocity":0.5905511811023622,"duration":0.1428571666666727},{"name":"D3","midi":50,"time":67.42858266666668,"velocity":0.5905511811023622,"duration":0.1357143083333341},{"name":"D#3","midi":51,"time":67.56429697500002,"velocity":0.5905511811023622,"duration":0.1500000249999971},{"name":"D3","midi":50,"time":67.71429700000002,"velocity":0.5905511811023622,"duration":0.2785714750000068},{"name":"F3","midi":53,"time":68.14286850000002,"velocity":0.5905511811023622,"duration":0.2785714750000068},{"name":"A#3","midi":58,"time":68.57144000000002,"velocity":0.5905511811023622,"duration":0.1428571666666727},{"name":"A3","midi":57,"time":68.7142971666667,"velocity":0.5905511811023622,"duration":0.1357143083333341},{"name":"G3","midi":55,"time":68.85001147500003,"velocity":0.5905511811023622,"duration":0.1500000249999971},{"name":"F#3","midi":54,"time":69.00001150000003,"velocity":0.5905511811023622,"duration":0.1428571666666727},{"name":"G3","midi":55,"time":69.1428686666667,"velocity":0.5905511811023622,"duration":0.1357143083333341},{"name":"A3","midi":57,"time":69.27858297500003,"velocity":0.5905511811023622,"duration":0.1500000249999971},{"name":"G3","midi":55,"time":69.42858300000003,"velocity":0.5905511811023622,"duration":0.1428571666666727},{"name":"F3","midi":53,"time":69.5714401666667,"velocity":0.5905511811023622,"duration":0.1357143083333341},{"name":"E3","midi":52,"time":69.70715447500004,"velocity":0.5905511811023622,"duration":0.1500000249999971},{"name":"D3","midi":50,"time":69.85715450000004,"velocity":0.5905511811023622,"duration":0.1428571666666727},{"name":"E3","midi":52,"time":70.00001166666671,"velocity":0.5905511811023622,"duration":0.1357143083333341},{"name":"F3","midi":53,"time":70.13572597500004,"velocity":0.5905511811023622,"duration":0.1500000249999971},{"name":"E3","midi":52,"time":70.28572600000004,"velocity":0.5905511811023622,"duration":0.1428571666666727},{"name":"D3","midi":50,"time":70.42858316666671,"velocity":0.5905511811023622,"duration":0.1357143083333341},{"name":"C3","midi":48,"time":70.56429747500005,"velocity":0.5905511811023622,"duration":0.1500000249999971},{"name":"B2","midi":47,"time":70.71429750000004,"velocity":0.5905511811023622,"duration":0.1428571666666727},{"name":"C#3","midi":49,"time":70.85715466666672,"velocity":0.5905511811023622,"duration":0.1357143083333341},{"name":"D3","midi":50,"time":70.99286897500005,"velocity":0.5905511811023622,"duration":0.1500000249999971},{"name":"C#3","midi":49,"time":71.14286900000005,"velocity":0.5905511811023622,"duration":0.21428575000000194},{"name":"A2","midi":45,"time":71.35715475000005,"velocity":0.5905511811023622,"duration":0.21428575000000194},{"name":"D3","midi":50,"time":71.57144050000005,"velocity":0.5905511811023622,"duration":0.8571429999999935},{"name":"C#3","midi":49,"time":72.42858350000004,"velocity":0.5905511811023622,"duration":0.4285715000000039},{"name":"D3","midi":50,"time":72.85715500000005,"velocity":0.5905511811023622,"duration":0.2785714750000068},{"name":"G3","midi":55,"time":73.28572650000005,"velocity":0.5905511811023622,"duration":0.8571429999999935},{"name":"F#3","midi":54,"time":74.14286950000005,"velocity":0.5905511811023622,"duration":0.4285715000000039},{"name":"G3","midi":55,"time":74.57144100000005,"velocity":0.5905511811023622,"duration":0.21428575000000194},{"name":"F3","midi":53,"time":74.78572675000005,"velocity":0.5905511811023622,"duration":0.21428575000000194},{"name":"E3","midi":52,"time":75.00001250000005,"velocity":0.5905511811023622,"duration":0.21428575000000194},{"name":"D3","midi":50,"time":75.21429825000006,"velocity":0.5905511811023622,"duration":0.21428575000000194},{"name":"C#3","midi":49,"time":75.42858400000006,"velocity":0.5905511811023622,"duration":0.21428575000000194},{"name":"E3","midi":52,"time":75.64286975000006,"velocity":0.5905511811023622,"duration":0.21428575000000194},{"name":"D3","midi":50,"time":75.85715550000006,"velocity":0.5905511811023622,"duration":0.21428575000000194},{"name":"C3","midi":48,"time":76.07144125000006,"velocity":0.5905511811023622,"duration":0.21428575000000194},{"name":"B2","midi":47,"time":76.28572700000007,"velocity":0.5905511811023622,"duration":0.4285715000000039},{"name":"A#2","midi":46,"time":76.71429850000007,"velocity":0.5905511811023622,"duration":0.4285715000000039},{"name":"A2","midi":45,"time":77.14287000000007,"velocity":0.5905511811023622,"duration":0.21428575000000194},{"name":"A3","midi":57,"time":77.35715575000008,"velocity":0.5905511811023622,"duration":0.21428575000000194},{"name":"A#3","midi":58,"time":77.57144150000008,"velocity":0.5905511811023622,"duration":0.21428575000000194},{"name":"A3","midi":57,"time":77.78572725000008,"velocity":0.5905511811023622,"duration":0.21428575000000194},{"name":"G3","midi":55,"time":78.00001300000008,"velocity":0.5905511811023622,"duration":0.21428575000000194},{"name":"A#3","midi":58,"time":78.21429875000008,"velocity":0.5905511811023622,"duration":0.21428575000000194},{"name":"A3","midi":57,"time":78.42858450000008,"velocity":0.5905511811023622,"duration":0.21428575000000194},{"name":"G3","midi":55,"time":78.64287025000009,"velocity":0.5905511811023622,"duration":0.21428575000000194},{"name":"F3","midi":53,"time":78.85715600000009,"velocity":0.5905511811023622,"duration":0.21428575000000194},{"name":"A3","midi":57,"time":79.07144175000009,"velocity":0.5905511811023622,"duration":0.21428575000000194},{"name":"G3","midi":55,"time":79.28572750000009,"velocity":0.5905511811023622,"duration":0.21428575000000194},{"name":"F3","midi":53,"time":79.5000132500001,"velocity":0.5905511811023622,"duration":0.21428575000000194},{"name":"E3","midi":52,"time":79.7142990000001,"velocity":0.5905511811023622,"duration":0.21428575000000194},{"name":"D3","midi":50,"time":79.9285847500001,"velocity":0.5905511811023622,"duration":0.21428575000000194},{"name":"C#3","midi":49,"time":80.1428705000001,"velocity":0.5905511811023622,"duration":0.21428575000000194},{"name":"E3","midi":52,"time":80.3571562500001,"velocity":0.5905511811023622,"duration":0.21428575000000194},{"name":"D3","midi":50,"time":80.5714420000001,"velocity":0.5905511811023622,"duration":0.21428575000000194},{"name":"C3","midi":48,"time":80.7857277500001,"velocity":0.5905511811023622,"duration":0.21428575000000194},{"name":"A#2","midi":46,"time":81.00001350000011,"velocity":0.5905511811023622,"duration":0.21428575000000194},{"name":"A2","midi":45,"time":81.21429925000011,"velocity":0.5905511811023622,"duration":0.21428575000000194},{"name":"G2","midi":43,"time":81.42858500000011,"velocity":0.5905511811023622,"duration":0.21428575000000194},{"name":"A#2","midi":46,"time":81.64287075000011,"velocity":0.5905511811023622,"duration":0.21428575000000194},{"name":"A2","midi":45,"time":81.85715650000012,"velocity":0.5905511811023622,"duration":0.21428575000000194},{"name":"G2","midi":43,"time":82.07144225000012,"velocity":0.5905511811023622,"duration":0.21428575000000194},{"name":"F2","midi":41,"time":82.28572800000012,"velocity":0.5905511811023622,"duration":0.4285715000000039},{"name":"A#2","midi":46,"time":82.71429950000012,"velocity":0.5905511811023622,"duration":0.4285715000000039},{"name":"A2","midi":45,"time":83.14287100000013,"velocity":0.5905511811023622,"duration":0.1428571666666727},{"name":"G2","midi":43,"time":83.2857281666668,"velocity":0.5905511811023622,"duration":0.1357143083333341},{"name":"F2","midi":41,"time":83.42144247500013,"velocity":0.5905511811023622,"duration":0.1500000249999971},{"name":"E2","midi":40,"time":83.57144250000013,"velocity":0.5905511811023622,"duration":0.1428571666666727},{"name":"F2","midi":41,"time":83.7142996666668,"velocity":0.5905511811023622,"duration":0.1357143083333341},{"name":"G2","midi":43,"time":83.85001397500014,"velocity":0.5905511811023622,"duration":0.1500000249999971},{"name":"F2","midi":41,"time":84.00001400000014,"velocity":0.5905511811023622,"duration":0.1428571666666727},{"name":"E2","midi":40,"time":84.14287116666681,"velocity":0.5905511811023622,"duration":0.1357143083333341},{"name":"D2","midi":38,"time":84.27858547500014,"velocity":0.5905511811023622,"duration":0.1500000249999971},{"name":"C#2","midi":37,"time":84.42858550000014,"velocity":0.5905511811023622,"duration":0.1428571666666727},{"name":"D2","midi":38,"time":84.57144266666681,"velocity":0.5905511811023622,"duration":0.1357143083333341},{"name":"E2","midi":40,"time":84.70715697500015,"velocity":0.5905511811023622,"duration":0.1500000249999971},{"name":"D2","midi":38,"time":84.85715700000014,"velocity":0.5905511811023622,"duration":0.4285715000000039},{"name":"E2","midi":40,"time":85.92858575000015,"velocity":0.5905511811023622,"duration":0.21428575000000194},{"name":"F2","midi":41,"time":86.14287150000015,"velocity":0.5905511811023622,"duration":0.21428575000000194},{"name":"G2","midi":43,"time":86.35715725000016,"velocity":0.5905511811023622,"duration":0.21428575000000194},{"name":"A2","midi":45,"time":86.57144300000016,"velocity":0.5905511811023622,"duration":0.21428575000000194},{"name":"B2","midi":47,"time":86.78572875000016,"velocity":0.5905511811023622,"duration":0.21428575000000194},{"name":"C3","midi":48,"time":87.00001450000016,"velocity":0.5905511811023622,"duration":0.21428575000000194},{"name":"A2","midi":45,"time":87.21430025000016,"velocity":0.5905511811023622,"duration":0.21428575000000194},{"name":"D3","midi":50,"time":87.42858600000017,"velocity":0.5905511811023622,"duration":0.21428575000000194},{"name":"C#3","midi":49,"time":87.64287175000017,"velocity":0.5905511811023622,"duration":0.21428575000000194},{"name":"D3","midi":50,"time":87.85715750000017,"velocity":0.5905511811023622,"duration":0.21428575000000194},{"name":"E3","midi":52,"time":88.07144325000017,"velocity":0.5905511811023622,"duration":0.21428575000000194},{"name":"F3","midi":53,"time":88.28572900000017,"velocity":0.5905511811023622,"duration":0.21428575000000194},{"name":"B2","midi":47,"time":88.50001475000018,"velocity":0.5905511811023622,"duration":0.21428575000000194},{"name":"E3","midi":52,"time":88.71430050000018,"velocity":0.5905511811023622,"duration":0.21428575000000194},{"name":"D3","midi":50,"time":88.92858625000018,"velocity":0.5905511811023622,"duration":0.21428575000000194},{"name":"C#3","midi":49,"time":89.14287200000018,"velocity":0.5905511811023622,"duration":0.21428575000000194},{"name":"A2","midi":45,"time":89.35715775000018,"velocity":0.5905511811023622,"duration":0.21428575000000194},{"name":"D3","midi":50,"time":89.57144350000019,"velocity":0.5905511811023622,"duration":0.21428575000000194},{"name":"G3","midi":55,"time":89.78572925000019,"velocity":0.5905511811023622,"duration":0.21428575000000194},{"name":"A3","midi":57,"time":90.00001500000019,"velocity":0.5905511811023622,"duration":0.4285715000000039},{"name":"A2","midi":45,"time":90.4285865000002,"velocity":0.5905511811023622,"duration":0.4285715000000039},{"name":"D2","midi":38,"time":90.8571580000002,"velocity":0.5905511811023622,"duration":1.7142860000000013}],"controlChanges":{"7":[{"number":7,"time":0,"value":0.7952755905511811}],"10":[{"number":10,"time":0,"value":0.3700787401574803}]},"id":3,"name":"Yo Tomita","instrumentNumber":6,"instrument":"harpsichord","instrumentFamily":"piano","channelNumber":0,"isPercussion":false}]}