{"header":{"PPQ":240,"timeSignature":[3,4],"bpm":120,"name":"--------"},"startTime":0,"duration":49.983333333333334,"tracks":[{"startTime":0,"duration":0,"length":0,"notes":[],"controlChanges":{},"id":0,"name":"--------"},{"startTime":0.25,"duration":49.983333333333334,"length":299,"notes":[{"name":"F4","midi":65,"time":0.25,"velocity":0.7637795275590551,"duration":0.11249999999999999},{"name":"A4","midi":69,"time":0.5,"velocity":0.7637795275590551,"duration":0.11250000000000004},{"name":"F4","midi":65,"time":0.75,"velocity":0.7637795275590551,"duration":0.11250000000000004},{"name":"C5","midi":72,"time":1,"velocity":0.7637795275590551,"duration":0.11250000000000004},{"name":"F4","midi":65,"time":1.25,"velocity":0.7637795275590551,"duration":0.11250000000000004},{"name":"F5","midi":77,"time":1.5,"velocity":0.7637795275590551,"duration":0.2416666666666667},{"name":"E5","midi":76,"time":1.75,"velocity":0.7637795275590551,"duration":0.12083333333333335},{"name":"D5","midi":74,"time":1.875,"velocity":0.7637795275590551,"duration":0.12083333333333335},{"name":"C5","midi":72,"time":2,"velocity":0.7637795275590551,"duration":0.12083333333333313},{"name":"D5","midi":74,"time":2.125,"velocity":0.7637795275590551,"duration":0.12083333333333313},{"name":"C5","midi":72,"time":2.25,"velocity":0.7637795275590551,"duration":0.12083333333333313},{"name":"A#4","midi":70,"time":2.375,"velocity":0.7637795275590551,"duration":0.12083333333333313},{"name":"A4","midi":69,"time":2.5,"velocity":0.7637795275590551,"duration":0.12083333333333313},{"name":"A#4","midi":70,"time":2.625,"velocity":0.7637795275590551,"duration":0.12083333333333313},{"name":"A4","midi":69,"time":2.75,"velocity":0.7637795275590551,"duration":0.12083333333333313},{"name":"G4","midi":67,"time":2.875,"velocity":0.7637795275590551,"duration":0.12083333333333313},{"name":"A4","midi":69,"time":3.25,"velocity":0.7637795275590551,"duration":0.11249999999999982},{"name":"C5","midi":72,"time":3.5,"velocity":0.7637795275590551,"duration":0.11249999999999982},{"name":"A4","midi":69,"time":3.75,"velocity":0.7637795275590551,"duration":0.11249999999999982},{"name":"F5","midi":77,"time":4,"velocity":0.7637795275590551,"duration":0.11249999999999982},{"name":"C5","midi":72,"time":4.25,"velocity":0.7637795275590551,"duration":0.11249999999999982},{"name":"A5","midi":81,"time":4.5,"velocity":0.7637795275590551,"duration":0.12083333333333357},{"name":"C6","midi":84,"time":4.625,"velocity":0.7637795275590551,"duration":0.12083333333333357},{"name":"A#5","midi":82,"time":4.75,"velocity":0.7637795275590551,"duration":0.12083333333333357},{"name":"C6","midi":84,"time":4.875,"velocity":0.7637795275590551,"duration":0.12083333333333357},{"name":"A5","midi":81,"time":5,"velocity":0.7637795275590551,"duration":0.12083333333333357},{"name":"C6","midi":84,"time":5.125,"velocity":0.7637795275590551,"duration":0.12083333333333357},{"name":"A#5","midi":82,"time":5.25,"velocity":0.7637795275590551,"duration":0.12083333333333357},{"name":"C6","midi":84,"time":5.375,"velocity":0.7637795275590551,"duration":0.12083333333333357},{"name":"A5","midi":81,"time":5.5,"velocity":0.7637795275590551,"duration":0.12083333333333357},{"name":"C6","midi":84,"time":5.625,"velocity":0.7637795275590551,"duration":0.12083333333333357},{"name":"A#5","midi":82,"time":5.75,"velocity":0.7637795275590551,"duration":0.12083333333333357},{"name":"C6","midi":84,"time":5.875,"velocity":0.7637795275590551,"duration":0.12083333333333357},{"name":"F5","midi":77,"time":6,"velocity":0.7637795275590551,"duration":0.12083333333333357},{"name":"A5","midi":81,"time":6.125,"velocity":0.7637795275590551,"duration":0.12083333333333357},{"name":"G5","midi":79,"time":6.25,"velocity":0.7637795275590551,"duration":0.12083333333333357},{"name":"A5","midi":81,"time":6.375,"velocity":0.7637795275590551,"duration":0.12083333333333357},{"name":"F5","midi":77,"time":6.5,"velocity":0.7637795275590551,"duration":0.12083333333333357},{"name":"A5","midi":81,"time":6.625,"velocity":0.7637795275590551,"duration":0.12083333333333357},{"name":"G5","midi":79,"time":6.75,"velocity":0.7637795275590551,"duration":0.12083333333333357},{"name":"A5","midi":81,"time":6.875,"velocity":0.7637795275590551,"duration":0.12083333333333357},{"name":"F5","midi":77,"time":7,"velocity":0.7637795275590551,"duration":0.12083333333333357},{"name":"A5","midi":81,"time":7.125,"velocity":0.7637795275590551,"duration":0.12083333333333357},{"name":"G5","midi":79,"time":7.25,"velocity":0.7637795275590551,"duration":0.12083333333333357},{"name":"A5","midi":81,"time":7.375,"velocity":0.7637795275590551,"duration":0.12083333333333357},{"name":"D5","midi":74,"time":7.5,"velocity":0.7637795275590551,"duration":0.12083333333333357},{"name":"F5","midi":77,"time":7.625,"velocity":0.7637795275590551,"duration":0.12083333333333357},{"name":"E5","midi":76,"time":7.75,"velocity":0.7637795275590551,"duration":0.12083333333333357},{"name":"F5","midi":77,"time":7.875,"velocity":0.7637795275590551,"duration":0.12083333333333357},{"name":"D5","midi":74,"time":8,"velocity":0.7637795275590551,"duration":0.12083333333333357},{"name":"F5","midi":77,"time":8.125,"velocity":0.7637795275590551,"duration":0.12083333333333357},{"name":"E5","midi":76,"time":8.25,"velocity":0.7637795275590551,"duration":0.12083333333333357},{"name":"F5","midi":77,"time":8.375,"velocity":0.7637795275590551,"duration":0.12083333333333357},{"name":"D5","midi":74,"time":8.5,"velocity":0.7637795275590551,"duration":0.12083333333333357},{"name":"F5","midi":77,"time":8.625,"velocity":0.7637795275590551,"duration":0.12083333333333357},{"name":"E5","midi":76,"time":8.75,"velocity":0.7637795275590551,"duration":0.12083333333333357},{"name":"F5","midi":77,"time":8.875,"velocity":0.7637795275590551,"duration":0.12083333333333357},{"name":"B4","midi":71,"time":9,"velocity":0.7637795275590551,"duration":0.24166666666666714},{"name":"G4","midi":67,"time":9.25,"velocity":0.7637795275590551,"duration":0.24166666666666714},{"name":"D5","midi":74,"time":9.5,"velocity":0.7637795275590551,"duration":0.24166666666666714},{"name":"B4","midi":71,"time":9.75,"velocity":0.7637795275590551,"duration":0.24166666666666714},{"name":"F5","midi":77,"time":10,"velocity":0.7637795275590551,"duration":0.24166666666666714},{"name":"D5","midi":74,"time":10.25,"velocity":0.7637795275590551,"duration":0.24166666666666714},{"name":"G5","midi":79,"time":10.5,"velocity":0.7637795275590551,"duration":0.12083333333333357},{"name":"A5","midi":81,"time":10.625,"velocity":0.7637795275590551,"duration":0.12083333333333357},{"name":"G5","midi":79,"time":10.75,"velocity":0.7637795275590551,"duration":0.12083333333333357},{"name":"F5","midi":77,"time":10.875,"velocity":0.7637795275590551,"duration":0.12083333333333357},{"name":"E5","midi":76,"time":11,"velocity":0.7637795275590551,"duration":0.12083333333333357},{"name":"F5","midi":77,"time":11.125,"velocity":0.7637795275590551,"duration":0.12083333333333357},{"name":"E5","midi":76,"time":11.25,"velocity":0.7637795275590551,"duration":0.12083333333333357},{"name":"D5","midi":74,"time":11.375,"velocity":0.7637795275590551,"duration":0.12083333333333357},{"name":"C5","midi":72,"time":11.5,"velocity":0.7637795275590551,"duration":0.12083333333333357},{"name":"D5","midi":74,"time":11.625,"velocity":0.7637795275590551,"duration":0.12083333333333357},{"name":"C5","midi":72,"time":11.75,"velocity":0.7637795275590551,"duration":0.12083333333333357},{"name":"B4","midi":71,"time":11.875,"velocity":0.7637795275590551,"duration":0.12083333333333357},{"name":"A4","midi":69,"time":12,"velocity":0.7637795275590551,"duration":0.24166666666666714},{"name":"D5","midi":74,"time":12.25,"velocity":0.7637795275590551,"duration":0.12083333333333357},{"name":"C5","midi":72,"time":12.375,"velocity":0.7637795275590551,"duration":0.12083333333333357},{"name":"B4","midi":71,"time":12.5,"velocity":0.7637795275590551,"duration":0.12083333333333357},{"name":"C5","midi":72,"time":12.625,"velocity":0.7637795275590551,"duration":0.12083333333333357},{"name":"B4","midi":71,"time":12.75,"velocity":0.7637795275590551,"duration":0.12083333333333357},{"name":"A4","midi":69,"time":12.875,"velocity":0.7637795275590551,"duration":0.12083333333333357},{"name":"G4","midi":67,"time":13,"velocity":0.7637795275590551,"duration":0.12083333333333357},{"name":"A4","midi":69,"time":13.125,"velocity":0.7637795275590551,"duration":0.12083333333333357},{"name":"G4","midi":67,"time":13.25,"velocity":0.7637795275590551,"duration":0.12083333333333357},{"name":"F4","midi":65,"time":13.375,"velocity":0.7637795275590551,"duration":0.12083333333333357},{"name":"E4","midi":64,"time":13.5,"velocity":0.7637795275590551,"duration":0.12083333333333357},{"name":"F4","midi":65,"time":13.625,"velocity":0.7637795275590551,"duration":0.12083333333333357},{"name":"E4","midi":64,"time":13.75,"velocity":0.7637795275590551,"duration":0.12083333333333357},{"name":"D4","midi":62,"time":13.875,"velocity":0.7637795275590551,"duration":0.12083333333333357},{"name":"C4","midi":60,"time":14,"velocity":0.7637795275590551,"duration":0.24166666666666714},{"name":"C5","midi":72,"time":14.25,"velocity":0.7637795275590551,"duration":0.12083333333333357},{"name":"B4","midi":71,"time":14.375,"velocity":0.7637795275590551,"duration":0.12083333333333357},{"name":"C5","midi":72,"time":14.5,"velocity":0.7637795275590551,"duration":0.11250000000000071},{"name":"E4","midi":64,"time":14.75,"velocity":0.7637795275590551,"duration":0.11250000000000071},{"name":"F4","midi":65,"time":15,"velocity":0.7637795275590551,"duration":0.11250000000000071},{"name":"C5","midi":72,"time":15.25,"velocity":0.7637795275590551,"duration":0.11250000000000071},{"name":"E4","midi":64,"time":15.5,"velocity":0.7637795275590551,"duration":0.11250000000000071},{"name":"C5","midi":72,"time":15.75,"velocity":0.7637795275590551,"duration":0.11250000000000071},{"name":"D4","midi":62,"time":16,"velocity":0.7637795275590551,"duration":0.11250000000000071},{"name":"B4","midi":71,"time":16.25,"velocity":0.7637795275590551,"duration":0.11250000000000071},{"name":"F4","midi":65,"time":16.25,"velocity":0.7637795275590551,"duration":0.11250000000000071},{"name":"E4","midi":64,"time":16.5,"velocity":0.7637795275590551,"duration":0.4833333333333343},{"name":"C5","midi":72,"time":16.5,"velocity":0.7637795275590551,"duration":0.4833333333333343},{"name":"C5","midi":72,"time":18.25,"velocity":0.7637795275590551,"duration":0.11250000000000071},{"name":"E5","midi":76,"time":18.5,"velocity":0.7637795275590551,"duration":0.11250000000000071},{"name":"C5","midi":72,"time":18.75,"velocity":0.7637795275590551,"duration":0.11250000000000071},{"name":"G5","midi":79,"time":19,"velocity":0.7637795275590551,"duration":0.11250000000000071},{"name":"C5","midi":72,"time":19.25,"velocity":0.7637795275590551,"duration":0.11250000000000071},{"name":"C6","midi":84,"time":19.5,"velocity":0.7637795275590551,"duration":0.24166666666666714},{"name":"B5","midi":83,"time":19.75,"velocity":0.7637795275590551,"duration":0.12083333333333357},{"name":"A5","midi":81,"time":19.875,"velocity":0.7637795275590551,"duration":0.12083333333333357},{"name":"G5","midi":79,"time":20,"velocity":0.7637795275590551,"duration":0.12083333333333357},{"name":"A5","midi":81,"time":20.125,"velocity":0.7637795275590551,"duration":0.12083333333333357},{"name":"G5","midi":79,"time":20.25,"velocity":0.7637795275590551,"duration":0.12083333333333357},{"name":"F5","midi":77,"time":20.375,"velocity":0.7637795275590551,"duration":0.12083333333333357},{"name":"E5","midi":76,"time":20.5,"velocity":0.7637795275590551,"duration":0.12083333333333357},{"name":"F5","midi":77,"time":20.625,"velocity":0.7637795275590551,"duration":0.12083333333333357},{"name":"E5","midi":76,"time":20.75,"velocity":0.7637795275590551,"duration":0.12083333333333357},{"name":"D5","midi":74,"time":20.875,"velocity":0.7637795275590551,"duration":0.12083333333333357},{"name":"C5","midi":72,"time":21,"velocity":0.7637795275590551,"duration":0.12083333333333357},{"name":"A#4","midi":70,"time":21.125,"velocity":0.7637795275590551,"duration":0.12083333333333357},{"name":"C5","midi":72,"time":21.25,"velocity":0.7637795275590551,"duration":0.12083333333333357},{"name":"A5","midi":81,"time":21.375,"velocity":0.7637795275590551,"duration":0.12083333333333357},{"name":"C5","midi":72,"time":21.5,"velocity":0.7637795275590551,"duration":0.12083333333333357},{"name":"A5","midi":81,"time":21.625,"velocity":0.7637795275590551,"duration":0.12083333333333357},{"name":"A#4","midi":70,"time":21.75,"velocity":0.7637795275590551,"duration":0.12083333333333357},{"name":"A5","midi":81,"time":21.875,"velocity":0.7637795275590551,"duration":0.12083333333333357},{"name":"C5","midi":72,"time":22,"velocity":0.7637795275590551,"duration":0.12083333333333357},{"name":"A5","midi":81,"time":22.125,"velocity":0.7637795275590551,"duration":0.12083333333333357},{"name":"A4","midi":69,"time":22.25,"velocity":0.7637795275590551,"duration":0.12083333333333357},{"name":"A5","midi":81,"time":22.375,"velocity":0.7637795275590551,"duration":0.12083333333333357},{"name":"A#4","midi":70,"time":22.5,"velocity":0.7637795275590551,"duration":0.11250000000000071},{"name":"G4","midi":67,"time":22.75,"velocity":0.7637795275590551,"duration":0.11250000000000071},{"name":"A#4","midi":70,"time":23,"velocity":0.7637795275590551,"duration":0.11250000000000071},{"name":"G4","midi":67,"time":23.25,"velocity":0.7637795275590551,"duration":0.11250000000000071},{"name":"D5","midi":74,"time":23.5,"velocity":0.7637795275590551,"duration":0.11250000000000071},{"name":"G4","midi":67,"time":23.75,"velocity":0.7637795275590551,"duration":0.11250000000000071},{"name":"G5","midi":79,"time":24,"velocity":0.7637795275590551,"duration":0.24166666666666714},{"name":"F5","midi":77,"time":24.25,"velocity":0.7637795275590551,"duration":0.12083333333333357},{"name":"D#5","midi":75,"time":24.375,"velocity":0.7637795275590551,"duration":0.12083333333333357},{"name":"D5","midi":74,"time":24.5,"velocity":0.7637795275590551,"duration":0.12083333333333357},{"name":"D#5","midi":75,"time":24.625,"velocity":0.7637795275590551,"duration":0.12083333333333357},{"name":"D5","midi":74,"time":24.75,"velocity":0.7637795275590551,"duration":0.12083333333333357},{"name":"C5","midi":72,"time":24.875,"velocity":0.7637795275590551,"duration":0.12083333333333357},{"name":"A#4","midi":70,"time":25,"velocity":0.7637795275590551,"duration":0.12083333333333357},{"name":"C5","midi":72,"time":25.125,"velocity":0.7637795275590551,"duration":0.12083333333333357},{"name":"A#4","midi":70,"time":25.25,"velocity":0.7637795275590551,"duration":0.12083333333333357},{"name":"A4","midi":69,"time":25.375,"velocity":0.7637795275590551,"duration":0.12083333333333357},{"name":"A#4","midi":70,"time":25.75,"velocity":0.7637795275590551,"duration":0.11250000000000071},{"name":"D5","midi":74,"time":26,"velocity":0.7637795275590551,"duration":0.11250000000000071},{"name":"A#4","midi":70,"time":26.25,"velocity":0.7637795275590551,"duration":0.11250000000000071},{"name":"G5","midi":79,"time":26.5,"velocity":0.7637795275590551,"duration":0.11250000000000071},{"name":"D5","midi":74,"time":26.75,"velocity":0.7637795275590551,"duration":0.11250000000000071},{"name":"A#5","midi":82,"time":27,"velocity":0.7637795275590551,"duration":0.11250000000000071},{"name":"C#5","midi":73,"time":27.25,"velocity":0.7637795275590551,"duration":0.11250000000000071},{"name":"A#5","midi":82,"time":27.5,"velocity":0.7637795275590551,"duration":0.11250000000000071},{"name":"C#5","midi":73,"time":27.75,"velocity":0.7637795275590551,"duration":0.11250000000000071},{"name":"A#5","midi":82,"time":28,"velocity":0.7637795275590551,"duration":0.11250000000000071},{"name":"C#5","midi":73,"time":28.25,"velocity":0.7637795275590551,"duration":0.11250000000000071},{"name":"D5","midi":74,"time":28.5,"velocity":0.7637795275590551,"duration":0.11250000000000071},{"name":"A4","midi":69,"time":28.75,"velocity":0.7637795275590551,"duration":0.11250000000000071},{"name":"F5","midi":77,"time":29,"velocity":0.7637795275590551,"duration":0.11250000000000071},{"name":"D5","midi":74,"time":29.25,"velocity":0.7637795275590551,"duration":0.11250000000000071},{"name":"A5","midi":81,"time":29.5,"velocity":0.7637795275590551,"duration":0.11250000000000071},{"name":"F5","midi":77,"time":29.75,"velocity":0.7637795275590551,"duration":0.11250000000000071},{"name":"G5","midi":79,"time":30,"velocity":0.7637795275590551,"duration":0.12083333333333357},{"name":"F5","midi":77,"time":30.125,"velocity":0.7637795275590551,"duration":0.12083333333333357},{"name":"G5","midi":79,"time":30.25,"velocity":0.7637795275590551,"duration":0.12083333333333357},{"name":"A#5","midi":82,"time":30.375,"velocity":0.7637795275590551,"duration":0.12083333333333357},{"name":"C5","midi":72,"time":30.5,"velocity":0.7637795275590551,"duration":0.12083333333333357},{"name":"A#5","midi":82,"time":30.625,"velocity":0.7637795275590551,"duration":0.12083333333333357},{"name":"D5","midi":74,"time":30.75,"velocity":0.7637795275590551,"duration":0.12083333333333357},{"name":"A#5","midi":82,"time":30.875,"velocity":0.7637795275590551,"duration":0.12083333333333357},{"name":"E5","midi":76,"time":31,"velocity":0.7637795275590551,"duration":0.12083333333333357},{"name":"A#5","midi":82,"time":31.125,"velocity":0.7637795275590551,"duration":0.12083333333333357},{"name":"C5","midi":72,"time":31.25,"velocity":0.7637795275590551,"duration":0.12083333333333357},{"name":"A#5","midi":82,"time":31.375,"velocity":0.7637795275590551,"duration":0.12083333333333357},{"name":"F5","midi":77,"time":31.5,"velocity":0.7637795275590551,"duration":0.12083333333333357},{"name":"E5","midi":76,"time":31.625,"velocity":0.7637795275590551,"duration":0.12083333333333357},{"name":"F5","midi":77,"time":31.75,"velocity":0.7637795275590551,"duration":0.12083333333333357},{"name":"A5","midi":81,"time":31.875,"velocity":0.7637795275590551,"duration":0.12083333333333357},{"name":"B4","midi":71,"time":32,"velocity":0.7637795275590551,"duration":0.12083333333333002},{"name":"A5","midi":81,"time":32.125,"velocity":0.7637795275590551,"duration":0.12083333333333002},{"name":"C#5","midi":73,"time":32.25,"velocity":0.7637795275590551,"duration":0.12083333333333002},{"name":"A5","midi":81,"time":32.375,"velocity":0.7637795275590551,"duration":0.12083333333333002},{"name":"D5","midi":74,"time":32.5,"velocity":0.7637795275590551,"duration":0.12083333333333002},{"name":"A5","midi":81,"time":32.625,"velocity":0.7637795275590551,"duration":0.12083333333333002},{"name":"B4","midi":71,"time":32.75,"velocity":0.7637795275590551,"duration":0.12083333333333002},{"name":"A5","midi":81,"time":32.875,"velocity":0.7637795275590551,"duration":0.12083333333333002},{"name":"E5","midi":76,"time":33,"velocity":0.7637795275590551,"duration":0.12083333333333002},{"name":"D5","midi":74,"time":33.125,"velocity":0.7637795275590551,"duration":0.12083333333333002},{"name":"E5","midi":76,"time":33.25,"velocity":0.7637795275590551,"duration":0.12083333333333002},{"name":"G5","midi":79,"time":33.375,"velocity":0.7637795275590551,"duration":0.12083333333333002},{"name":"A4","midi":69,"time":33.5,"velocity":0.7637795275590551,"duration":0.12083333333333002},{"name":"G5","midi":79,"time":33.625,"velocity":0.7637795275590551,"duration":0.12083333333333002},{"name":"B4","midi":71,"time":33.75,"velocity":0.7637795275590551,"duration":0.12083333333333002},{"name":"G5","midi":79,"time":33.875,"velocity":0.7637795275590551,"duration":0.12083333333333002},{"name":"C#5","midi":73,"time":34,"velocity":0.7637795275590551,"duration":0.12083333333333002},{"name":"G5","midi":79,"time":34.125,"velocity":0.7637795275590551,"duration":0.12083333333333002},{"name":"A4","midi":69,"time":34.25,"velocity":0.7637795275590551,"duration":0.12083333333333002},{"name":"G5","midi":79,"time":34.375,"velocity":0.7637795275590551,"duration":0.12083333333333002},{"name":"F5","midi":77,"time":34.5,"velocity":0.7637795275590551,"duration":0.24166666666666714},{"name":"D5","midi":74,"time":34.75,"velocity":0.7637795275590551,"duration":0.24166666666666714},{"name":"A#4","midi":70,"time":35,"velocity":0.7637795275590551,"duration":0.24166666666666714},{"name":"D5","midi":74,"time":35.25,"velocity":0.7637795275590551,"duration":0.24166666666666714},{"name":"G4","midi":67,"time":35.5,"velocity":0.7637795275590551,"duration":0.24166666666666714},{"name":"F5","midi":77,"time":35.75,"velocity":0.7637795275590551,"duration":0.24166666666666714},{"name":"E5","midi":76,"time":36,"velocity":0.7637795275590551,"duration":0.24166666666666714},{"name":"C5","midi":72,"time":36.25,"velocity":0.7637795275590551,"duration":0.24166666666666714},{"name":"A4","midi":69,"time":36.5,"velocity":0.7637795275590551,"duration":0.11249999999999716},{"name":"C5","midi":72,"time":36.75,"velocity":0.7637795275590551,"duration":0.11249999999999716},{"name":"F4","midi":65,"time":37,"velocity":0.7637795275590551,"duration":0.11249999999999716},{"name":"D#5","midi":75,"time":37.25,"velocity":0.7637795275590551,"duration":0.11249999999999716},{"name":"D5","midi":74,"time":37.5,"velocity":0.7637795275590551,"duration":0.12083333333333002},{"name":"F5","midi":77,"time":37.625,"velocity":0.7637795275590551,"duration":0.12083333333333002},{"name":"D#5","midi":75,"time":37.75,"velocity":0.7637795275590551,"duration":0.12083333333333002},{"name":"F5","midi":77,"time":37.875,"velocity":0.7637795275590551,"duration":0.12083333333333002},{"name":"D5","midi":74,"time":38,"velocity":0.7637795275590551,"duration":0.12083333333333002},{"name":"F5","midi":77,"time":38.125,"velocity":0.7637795275590551,"duration":0.12083333333333002},{"name":"D#5","midi":75,"time":38.25,"velocity":0.7637795275590551,"duration":0.12083333333333002},{"name":"F5","midi":77,"time":38.375,"velocity":0.7637795275590551,"duration":0.12083333333333002},{"name":"D5","midi":74,"time":38.5,"velocity":0.7637795275590551,"duration":0.12083333333333002},{"name":"F5","midi":77,"time":38.625,"velocity":0.7637795275590551,"duration":0.12083333333333002},{"name":"D#5","midi":75,"time":38.75,"velocity":0.7637795275590551,"duration":0.12083333333333002},{"name":"F5","midi":77,"time":38.875,"velocity":0.7637795275590551,"duration":0.12083333333333002},{"name":"A#4","midi":70,"time":39,"velocity":0.7637795275590551,"duration":0.12083333333333002},{"name":"D5","midi":74,"time":39.125,"velocity":0.7637795275590551,"duration":0.12083333333333002},{"name":"C5","midi":72,"time":39.25,"velocity":0.7637795275590551,"duration":0.12083333333333002},{"name":"D5","midi":74,"time":39.375,"velocity":0.7637795275590551,"duration":0.12083333333333002},{"name":"A#4","midi":70,"time":39.5,"velocity":0.7637795275590551,"duration":0.12083333333333002},{"name":"D5","midi":74,"time":39.625,"velocity":0.7637795275590551,"duration":0.12083333333333002},{"name":"C5","midi":72,"time":39.75,"velocity":0.7637795275590551,"duration":0.12083333333333002},{"name":"D5","midi":74,"time":39.875,"velocity":0.7637795275590551,"duration":0.12083333333333002},{"name":"A#4","midi":70,"time":40,"velocity":0.7637795275590551,"duration":0.12083333333333002},{"name":"D5","midi":74,"time":40.125,"velocity":0.7637795275590551,"duration":0.12083333333333002},{"name":"C5","midi":72,"time":40.25,"velocity":0.7637795275590551,"duration":0.12083333333333002},{"name":"D5","midi":74,"time":40.375,"velocity":0.7637795275590551,"duration":0.12083333333333002},{"name":"G4","midi":67,"time":40.5,"velocity":0.7637795275590551,"duration":0.12083333333333002},{"name":"A#4","midi":70,"time":40.625,"velocity":0.7637795275590551,"duration":0.12083333333333002},{"name":"A4","midi":69,"time":40.75,"velocity":0.7637795275590551,"duration":0.12083333333333002},{"name":"A#4","midi":70,"time":40.875,"velocity":0.7637795275590551,"duration":0.12083333333333002},{"name":"G4","midi":67,"time":41,"velocity":0.7637795275590551,"duration":0.12083333333333002},{"name":"A#4","midi":70,"time":41.125,"velocity":0.7637795275590551,"duration":0.12083333333333002},{"name":"A4","midi":69,"time":41.25,"velocity":0.7637795275590551,"duration":0.12083333333333002},{"name":"A#4","midi":70,"time":41.375,"velocity":0.7637795275590551,"duration":0.12083333333333002},{"name":"G4","midi":67,"time":41.5,"velocity":0.7637795275590551,"duration":0.12083333333333002},{"name":"A#4","midi":70,"time":41.625,"velocity":0.7637795275590551,"duration":0.12083333333333002},{"name":"A4","midi":69,"time":41.75,"velocity":0.7637795275590551,"duration":0.12083333333333002},{"name":"A#4","midi":70,"time":41.875,"velocity":0.7637795275590551,"duration":0.12083333333333002},{"name":"E4","midi":64,"time":42,"velocity":0.7637795275590551,"duration":0.11249999999999716},{"name":"C4","midi":60,"time":42.25,"velocity":0.7637795275590551,"duration":0.11249999999999716},{"name":"G4","midi":67,"time":42.5,"velocity":0.7637795275590551,"duration":0.11249999999999716},{"name":"E4","midi":64,"time":42.75,"velocity":0.7637795275590551,"duration":0.11249999999999716},{"name":"A#4","midi":70,"time":43,"velocity":0.7637795275590551,"duration":0.11249999999999716},{"name":"A4","midi":69,"time":43.25,"velocity":0.7637795275590551,"duration":0.11249999999999716},{"name":"C5","midi":72,"time":43.5,"velocity":0.7637795275590551,"duration":0.12083333333333002},{"name":"D5","midi":74,"time":43.625,"velocity":0.7637795275590551,"duration":0.12083333333333002},{"name":"C5","midi":72,"time":43.75,"velocity":0.7637795275590551,"duration":0.12083333333333002},{"name":"A#4","midi":70,"time":43.875,"velocity":0.7637795275590551,"duration":0.12083333333333002},{"name":"A4","midi":69,"time":44,"velocity":0.7637795275590551,"duration":0.12083333333333002},{"name":"A#4","midi":70,"time":44.125,"velocity":0.7637795275590551,"duration":0.12083333333333002},{"name":"A4","midi":69,"time":44.25,"velocity":0.7637795275590551,"duration":0.12083333333333002},{"name":"G4","midi":67,"time":44.375,"velocity":0.7637795275590551,"duration":0.12083333333333002},{"name":"F4","midi":65,"time":44.5,"velocity":0.7637795275590551,"duration":0.12083333333333002},{"name":"G4","midi":67,"time":44.625,"velocity":0.7637795275590551,"duration":0.12083333333333002},{"name":"F4","midi":65,"time":44.75,"velocity":0.7637795275590551,"duration":0.12083333333333002},{"name":"D#4","midi":63,"time":44.875,"velocity":0.7637795275590551,"duration":0.12083333333333002},{"name":"D4","midi":62,"time":45,"velocity":0.7637795275590551,"duration":0.11249999999999716},{"name":"G4","midi":67,"time":45.25,"velocity":0.7637795275590551,"duration":0.12083333333333002},{"name":"F4","midi":65,"time":45.375,"velocity":0.7637795275590551,"duration":0.12083333333333002},{"name":"E4","midi":64,"time":45.5,"velocity":0.7637795275590551,"duration":0.12083333333333002},{"name":"F4","midi":65,"time":45.625,"velocity":0.7637795275590551,"duration":0.12083333333333002},{"name":"E4","midi":64,"time":45.75,"velocity":0.7637795275590551,"duration":0.12083333333333002},{"name":"D4","midi":62,"time":45.875,"velocity":0.7637795275590551,"duration":0.12083333333333002},{"name":"C4","midi":60,"time":46,"velocity":0.7637795275590551,"duration":0.12083333333333002},{"name":"D4","midi":62,"time":46.125,"velocity":0.7637795275590551,"duration":0.12083333333333002},{"name":"C4","midi":60,"time":46.25,"velocity":0.7637795275590551,"duration":0.12083333333333002},{"name":"A#3","midi":58,"time":46.375,"velocity":0.7637795275590551,"duration":0.12083333333333002},{"name":"A3","midi":57,"time":46.5,"velocity":0.7637795275590551,"duration":0.12083333333333002},{"name":"A#3","midi":58,"time":46.625,"velocity":0.7637795275590551,"duration":0.12083333333333002},{"name":"A3","midi":57,"time":46.75,"velocity":0.7637795275590551,"duration":0.12083333333333002},{"name":"G3","midi":55,"time":46.875,"velocity":0.7637795275590551,"duration":0.12083333333333002},{"name":"F3","midi":53,"time":47,"velocity":0.7637795275590551,"duration":0.24166666666666714},{"name":"F4","midi":65,"time":47.25,"velocity":0.7637795275590551,"duration":0.12083333333333002},{"name":"E4","midi":64,"time":47.375,"velocity":0.7637795275590551,"duration":0.12083333333333002},{"name":"F4","midi":65,"time":47.5,"velocity":0.7637795275590551,"duration":0.11249999999999716},{"name":"A3","midi":57,"time":47.75,"velocity":0.7637795275590551,"duration":0.11249999999999716},{"name":"A#3","midi":58,"time":48,"velocity":0.7637795275590551,"duration":0.11249999999999716},{"name":"F4","midi":65,"time":48.25,"velocity":0.7637795275590551,"duration":0.11249999999999716},{"name":"A3","midi":57,"time":48.5,"velocity":0.7637795275590551,"duration":0.11249999999999716},{"name":"F4","midi":65,"time":48.75,"velocity":0.7637795275590551,"duration":0.11249999999999716},{"name":"G3","midi":55,"time":49,"velocity":0.7637795275590551,"duration":0.11249999999999716},{"name":"E4","midi":64,"time":49.25,"velocity":0.7637795275590551,"duration":0.11249999999999716},{"name":"A#3","midi":58,"time":49.25,"velocity":0.7637795275590551,"duration":0.11249999999999716},{"name":"G3","midi":55,"time":49.25,"velocity":0.7637795275590551,"duration":0.11249999999999716},{"name":"C4","midi":60,"time":49.5,"velocity":0.7637795275590551,"duration":0.4833333333333343},{"name":"F4","midi":65,"time":49.5,"velocity":0.7637795275590551,"duration":0.4833333333333343},{"name":"A3","midi":57,"time":49.5,"velocity":0.7637795275590551,"duration":0.4833333333333343}],"controlChanges":{"7":[{"number":7,"time":0,"value":0.7874015748031497}],"10":[{"number":10,"time":0,"value":0.6299212598425197}]},"id":1,"name":"Harpsichord RH","instrumentNumber":6,"instrument":"harpsichord","instrumentFamily":"piano","channelNumber":0,"isPercussion":false},{"startTime":1.75,"duration":49.983333333333334,"length":301,"notes":[{"name":"F3","midi":53,"time":1.75,"velocity":0.7637795275590551,"duration":0.11250000000000004},{"name":"A3","midi":57,"time":2,"velocity":0.7637795275590551,"duration":0.11249999999999982},{"name":"F3","midi":53,"time":2.25,"velocity":0.7637795275590551,"duration":0.11249999999999982},{"name":"C4","midi":60,"time":2.5,"velocity":0.7637795275590551,"duration":0.11249999999999982},{"name":"F3","midi":53,"time":2.75,"velocity":0.7637795275590551,"duration":0.11249999999999982},{"name":"F4","midi":65,"time":3,"velocity":0.7637795275590551,"duration":0.2416666666666667},{"name":"E4","midi":64,"time":3.25,"velocity":0.7637795275590551,"duration":0.12083333333333313},{"name":"D4","midi":62,"time":3.375,"velocity":0.7637795275590551,"duration":0.12083333333333313},{"name":"C4","midi":60,"time":3.5,"velocity":0.7637795275590551,"duration":0.12083333333333313},{"name":"D4","midi":62,"time":3.625,"velocity":0.7637795275590551,"duration":0.12083333333333313},{"name":"C4","midi":60,"time":3.75,"velocity":0.7637795275590551,"duration":0.12083333333333313},{"name":"A#3","midi":58,"time":3.875,"velocity":0.7637795275590551,"duration":0.12083333333333313},{"name":"A3","midi":57,"time":4,"velocity":0.7637795275590551,"duration":0.12083333333333357},{"name":"A#3","midi":58,"time":4.125,"velocity":0.7637795275590551,"duration":0.12083333333333357},{"name":"A3","midi":57,"time":4.25,"velocity":0.7637795275590551,"duration":0.12083333333333357},{"name":"G3","midi":55,"time":4.375,"velocity":0.7637795275590551,"duration":0.12083333333333357},{"name":"F3","midi":53,"time":4.5,"velocity":0.7637795275590551,"duration":0.11249999999999982},{"name":"A3","midi":57,"time":4.75,"velocity":0.7637795275590551,"duration":0.11249999999999982},{"name":"C4","midi":60,"time":5,"velocity":0.7637795275590551,"duration":0.11249999999999982},{"name":"A3","midi":57,"time":5.25,"velocity":0.7637795275590551,"duration":0.11249999999999982},{"name":"F4","midi":65,"time":5.5,"velocity":0.7637795275590551,"duration":0.24166666666666625},{"name":"C4","midi":60,"time":5.75,"velocity":0.7637795275590551,"duration":0.11249999999999982},{"name":"A4","midi":69,"time":6,"velocity":0.7637795275590551,"duration":0.12083333333333357},{"name":"C5","midi":72,"time":6.125,"velocity":0.7637795275590551,"duration":0.12083333333333357},{"name":"A#4","midi":70,"time":6.25,"velocity":0.7637795275590551,"duration":0.12083333333333357},{"name":"C5","midi":72,"time":6.375,"velocity":0.7637795275590551,"duration":0.12083333333333357},{"name":"A4","midi":69,"time":6.5,"velocity":0.7637795275590551,"duration":0.12083333333333357},{"name":"C5","midi":72,"time":6.625,"velocity":0.7637795275590551,"duration":0.12083333333333357},{"name":"A#4","midi":70,"time":6.75,"velocity":0.7637795275590551,"duration":0.12083333333333357},{"name":"C5","midi":72,"time":6.875,"velocity":0.7637795275590551,"duration":0.12083333333333357},{"name":"A4","midi":69,"time":7,"velocity":0.7637795275590551,"duration":0.12083333333333357},{"name":"C5","midi":72,"time":7.125,"velocity":0.7637795275590551,"duration":0.12083333333333357},{"name":"A#4","midi":70,"time":7.25,"velocity":0.7637795275590551,"duration":0.12083333333333357},{"name":"C5","midi":72,"time":7.375,"velocity":0.7637795275590551,"duration":0.12083333333333357},{"name":"F4","midi":65,"time":7.5,"velocity":0.7637795275590551,"duration":0.12083333333333357},{"name":"A4","midi":69,"time":7.625,"velocity":0.7637795275590551,"duration":0.12083333333333357},{"name":"G4","midi":67,"time":7.75,"velocity":0.7637795275590551,"duration":0.12083333333333357},{"name":"A4","midi":69,"time":7.875,"velocity":0.7637795275590551,"duration":0.12083333333333357},{"name":"F4","midi":65,"time":8,"velocity":0.7637795275590551,"duration":0.12083333333333357},{"name":"A4","midi":69,"time":8.125,"velocity":0.7637795275590551,"duration":0.12083333333333357},{"name":"G4","midi":67,"time":8.25,"velocity":0.7637795275590551,"duration":0.12083333333333357},{"name":"A4","midi":69,"time":8.375,"velocity":0.7637795275590551,"duration":0.12083333333333357},{"name":"F4","midi":65,"time":8.5,"velocity":0.7637795275590551,"duration":0.12083333333333357},{"name":"A4","midi":69,"time":8.625,"velocity":0.7637795275590551,"duration":0.12083333333333357},{"name":"G4","midi":67,"time":8.75,"velocity":0.7637795275590551,"duration":0.12083333333333357},{"name":"A4","midi":69,"time":8.875,"velocity":0.7637795275590551,"duration":0.12083333333333357},{"name":"D4","midi":62,"time":9,"velocity":0.7637795275590551,"duration":0.12083333333333357},{"name":"F4","midi":65,"time":9.125,"velocity":0.7637795275590551,"duration":0.12083333333333357},{"name":"E4","midi":64,"time":9.25,"velocity":0.7637795275590551,"duration":0.12083333333333357},{"name":"F4","midi":65,"time":9.375,"velocity":0.7637795275590551,"duration":0.12083333333333357},{"name":"D4","midi":62,"time":9.5,"velocity":0.7637795275590551,"duration":0.12083333333333357},{"name":"F4","midi":65,"time":9.625,"velocity":0.7637795275590551,"duration":0.12083333333333357},{"name":"E4","midi":64,"time":9.75,"velocity":0.7637795275590551,"duration":0.12083333333333357},{"name":"F4","midi":65,"time":9.875,"velocity":0.7637795275590551,"duration":0.12083333333333357},{"name":"D4","midi":62,"time":10,"velocity":0.7637795275590551,"duration":0.12083333333333357},{"name":"F4","midi":65,"time":10.125,"velocity":0.7637795275590551,"duration":0.12083333333333357},{"name":"E4","midi":64,"time":10.25,"velocity":0.7637795275590551,"duration":0.12083333333333357},{"name":"F4","midi":65,"time":10.375,"velocity":0.7637795275590551,"duration":0.12083333333333357},{"name":"B3","midi":59,"time":10.5,"velocity":0.7637795275590551,"duration":0.11250000000000071},{"name":"G3","midi":55,"time":10.75,"velocity":0.7637795275590551,"duration":0.11250000000000071},{"name":"C4","midi":60,"time":11,"velocity":0.7637795275590551,"duration":0.11250000000000071},{"name":"G3","midi":55,"time":11.25,"velocity":0.7637795275590551,"duration":0.11250000000000071},{"name":"E4","midi":64,"time":11.5,"velocity":0.7637795275590551,"duration":0.11250000000000071},{"name":"C4","midi":60,"time":11.75,"velocity":0.7637795275590551,"duration":0.11250000000000071},{"name":"F4","midi":65,"time":12,"velocity":0.7637795275590551,"duration":0.12083333333333357},{"name":"G4","midi":67,"time":12.125,"velocity":0.7637795275590551,"duration":0.12083333333333357},{"name":"F4","midi":65,"time":12.25,"velocity":0.7637795275590551,"duration":0.12083333333333357},{"name":"E4","midi":64,"time":12.375,"velocity":0.7637795275590551,"duration":0.12083333333333357},{"name":"D4","midi":62,"time":12.5,"velocity":0.7637795275590551,"duration":0.12083333333333357},{"name":"E4","midi":64,"time":12.625,"velocity":0.7637795275590551,"duration":0.12083333333333357},{"name":"D4","midi":62,"time":12.75,"velocity":0.7637795275590551,"duration":0.12083333333333357},{"name":"C4","midi":60,"time":12.875,"velocity":0.7637795275590551,"duration":0.12083333333333357},{"name":"B3","midi":59,"time":13,"velocity":0.7637795275590551,"duration":0.12083333333333357},{"name":"C4","midi":60,"time":13.125,"velocity":0.7637795275590551,"duration":0.12083333333333357},{"name":"B3","midi":59,"time":13.25,"velocity":0.7637795275590551,"duration":0.12083333333333357},{"name":"A3","midi":57,"time":13.375,"velocity":0.7637795275590551,"duration":0.12083333333333357},{"name":"G3","midi":55,"time":13.5,"velocity":0.7637795275590551,"duration":0.24166666666666714},{"name":"C4","midi":60,"time":13.75,"velocity":0.7637795275590551,"duration":0.12083333333333357},{"name":"B3","midi":59,"time":13.875,"velocity":0.7637795275590551,"duration":0.12083333333333357},{"name":"A3","midi":57,"time":14,"velocity":0.7637795275590551,"duration":0.12083333333333357},{"name":"B3","midi":59,"time":14.125,"velocity":0.7637795275590551,"duration":0.12083333333333357},{"name":"A3","midi":57,"time":14.25,"velocity":0.7637795275590551,"duration":0.12083333333333357},{"name":"G3","midi":55,"time":14.375,"velocity":0.7637795275590551,"duration":0.12083333333333357},{"name":"F3","midi":53,"time":14.5,"velocity":0.7637795275590551,"duration":0.12083333333333357},{"name":"G3","midi":55,"time":14.625,"velocity":0.7637795275590551,"duration":0.12083333333333357},{"name":"F3","midi":53,"time":14.75,"velocity":0.7637795275590551,"duration":0.12083333333333357},{"name":"E3","midi":52,"time":14.875,"velocity":0.7637795275590551,"duration":0.12083333333333357},{"name":"D3","midi":50,"time":15,"velocity":0.7637795275590551,"duration":0.12083333333333357},{"name":"E3","midi":52,"time":15.125,"velocity":0.7637795275590551,"duration":0.12083333333333357},{"name":"D3","midi":50,"time":15.25,"velocity":0.7637795275590551,"duration":0.12083333333333357},{"name":"C3","midi":48,"time":15.375,"velocity":0.7637795275590551,"duration":0.12083333333333357},{"name":"G3","midi":55,"time":15.5,"velocity":0.7637795275590551,"duration":0.12083333333333357},{"name":"F3","midi":53,"time":15.625,"velocity":0.7637795275590551,"duration":0.12083333333333357},{"name":"E3","midi":52,"time":15.75,"velocity":0.7637795275590551,"duration":0.12083333333333357},{"name":"F3","midi":53,"time":15.875,"velocity":0.7637795275590551,"duration":0.12083333333333357},{"name":"G3","midi":55,"time":16,"velocity":0.7637795275590551,"duration":0.11250000000000071},{"name":"G2","midi":43,"time":16.25,"velocity":0.7637795275590551,"duration":0.11250000000000071},{"name":"C3","midi":48,"time":16.75,"velocity":0.7637795275590551,"duration":0.11250000000000071},{"name":"E3","midi":52,"time":17,"velocity":0.7637795275590551,"duration":0.11250000000000071},{"name":"C3","midi":48,"time":17.25,"velocity":0.7637795275590551,"duration":0.11250000000000071},{"name":"G3","midi":55,"time":17.5,"velocity":0.7637795275590551,"duration":0.11250000000000071},{"name":"C3","midi":48,"time":17.75,"velocity":0.7637795275590551,"duration":0.11250000000000071},{"name":"C4","midi":60,"time":18,"velocity":0.7637795275590551,"duration":0.24166666666666714},{"name":"B3","midi":59,"time":18.25,"velocity":0.7637795275590551,"duration":0.12083333333333357},{"name":"A3","midi":57,"time":18.375,"velocity":0.7637795275590551,"duration":0.12083333333333357},{"name":"G3","midi":55,"time":18.5,"velocity":0.7637795275590551,"duration":0.12083333333333357},{"name":"A3","midi":57,"time":18.625,"velocity":0.7637795275590551,"duration":0.12083333333333357},{"name":"G3","midi":55,"time":18.75,"velocity":0.7637795275590551,"duration":0.12083333333333357},{"name":"F3","midi":53,"time":18.875,"velocity":0.7637795275590551,"duration":0.12083333333333357},{"name":"E3","midi":52,"time":19,"velocity":0.7637795275590551,"duration":0.12083333333333357},{"name":"F3","midi":53,"time":19.125,"velocity":0.7637795275590551,"duration":0.12083333333333357},{"name":"E3","midi":52,"time":19.25,"velocity":0.7637795275590551,"duration":0.12083333333333357},{"name":"D3","midi":50,"time":19.375,"velocity":0.7637795275590551,"duration":0.12083333333333357},{"name":"C3","midi":48,"time":19.5,"velocity":0.7637795275590551,"duration":0.11250000000000071},{"name":"E3","midi":52,"time":19.75,"velocity":0.7637795275590551,"duration":0.11250000000000071},{"name":"G3","midi":55,"time":20,"velocity":0.7637795275590551,"duration":0.11250000000000071},{"name":"E3","midi":52,"time":20.25,"velocity":0.7637795275590551,"duration":0.11250000000000071},{"name":"C4","midi":60,"time":20.5,"velocity":0.7637795275590551,"duration":0.11250000000000071},{"name":"G3","midi":55,"time":20.75,"velocity":0.7637795275590551,"duration":0.11250000000000071},{"name":"D#4","midi":63,"time":21,"velocity":0.7637795275590551,"duration":0.11250000000000071},{"name":"F#3","midi":54,"time":21.25,"velocity":0.7637795275590551,"duration":0.11250000000000071},{"name":"D#4","midi":63,"time":21.5,"velocity":0.7637795275590551,"duration":0.11250000000000071},{"name":"F#3","midi":54,"time":21.75,"velocity":0.7637795275590551,"duration":0.11250000000000071},{"name":"D#4","midi":63,"time":22,"velocity":0.7637795275590551,"duration":0.11250000000000071},{"name":"F#3","midi":54,"time":22.25,"velocity":0.7637795275590551,"duration":0.11250000000000071},{"name":"G3","midi":55,"time":22.5,"velocity":0.7637795275590551,"duration":0.24166666666666714},{"name":"F3","midi":53,"time":22.75,"velocity":0.7637795275590551,"duration":0.12083333333333357},{"name":"D#3","midi":51,"time":22.875,"velocity":0.7637795275590551,"duration":0.12083333333333357},{"name":"D3","midi":50,"time":23,"velocity":0.7637795275590551,"duration":0.12083333333333357},{"name":"D#3","midi":51,"time":23.125,"velocity":0.7637795275590551,"duration":0.12083333333333357},{"name":"D3","midi":50,"time":23.25,"velocity":0.7637795275590551,"duration":0.12083333333333357},{"name":"C3","midi":48,"time":23.375,"velocity":0.7637795275590551,"duration":0.12083333333333357},{"name":"A#2","midi":46,"time":23.5,"velocity":0.7637795275590551,"duration":0.12083333333333357},{"name":"C3","midi":48,"time":23.625,"velocity":0.7637795275590551,"duration":0.12083333333333357},{"name":"A#2","midi":46,"time":23.75,"velocity":0.7637795275590551,"duration":0.12083333333333357},{"name":"A2","midi":45,"time":23.875,"velocity":0.7637795275590551,"duration":0.12083333333333357},{"name":"G2","midi":43,"time":24,"velocity":0.7637795275590551,"duration":0.11250000000000071},{"name":"G3","midi":55,"time":24.25,"velocity":0.7637795275590551,"duration":0.11250000000000071},{"name":"A#3","midi":58,"time":24.5,"velocity":0.7637795275590551,"duration":0.11250000000000071},{"name":"G3","midi":55,"time":24.75,"velocity":0.7637795275590551,"duration":0.11250000000000071},{"name":"D4","midi":62,"time":25,"velocity":0.7637795275590551,"duration":0.11250000000000071},{"name":"G3","midi":55,"time":25.25,"velocity":0.7637795275590551,"duration":0.11250000000000071},{"name":"G4","midi":67,"time":25.5,"velocity":0.7637795275590551,"duration":0.24166666666666714},{"name":"F4","midi":65,"time":25.75,"velocity":0.7637795275590551,"duration":0.12083333333333357},{"name":"D#4","midi":63,"time":25.875,"velocity":0.7637795275590551,"duration":0.12083333333333357},{"name":"D4","midi":62,"time":26,"velocity":0.7637795275590551,"duration":0.12083333333333357},{"name":"D#4","midi":63,"time":26.125,"velocity":0.7637795275590551,"duration":0.12083333333333357},{"name":"D4","midi":62,"time":26.25,"velocity":0.7637795275590551,"duration":0.12083333333333357},{"name":"C4","midi":60,"time":26.375,"velocity":0.7637795275590551,"duration":0.12083333333333357},{"name":"A#3","midi":58,"time":26.5,"velocity":0.7637795275590551,"duration":0.12083333333333357},{"name":"C4","midi":60,"time":26.625,"velocity":0.7637795275590551,"duration":0.12083333333333357},{"name":"A#3","midi":58,"time":26.75,"velocity":0.7637795275590551,"duration":0.12083333333333357},{"name":"A3","midi":57,"time":26.875,"velocity":0.7637795275590551,"duration":0.12083333333333357},{"name":"G3","midi":55,"time":27,"velocity":0.7637795275590551,"duration":0.12083333333333357},{"name":"F3","midi":53,"time":27.125,"velocity":0.7637795275590551,"duration":0.12083333333333357},{"name":"G3","midi":55,"time":27.25,"velocity":0.7637795275590551,"duration":0.12083333333333357},{"name":"E4","midi":64,"time":27.375,"velocity":0.7637795275590551,"duration":0.12083333333333357},{"name":"G3","midi":55,"time":27.5,"velocity":0.7637795275590551,"duration":0.12083333333333357},{"name":"E4","midi":64,"time":27.625,"velocity":0.7637795275590551,"duration":0.12083333333333357},{"name":"F3","midi":53,"time":27.75,"velocity":0.7637795275590551,"duration":0.12083333333333357},{"name":"E4","midi":64,"time":27.875,"velocity":0.7637795275590551,"duration":0.12083333333333357},{"name":"G3","midi":55,"time":28,"velocity":0.7637795275590551,"duration":0.12083333333333357},{"name":"E4","midi":64,"time":28.125,"velocity":0.7637795275590551,"duration":0.12083333333333357},{"name":"E3","midi":52,"time":28.25,"velocity":0.7637795275590551,"duration":0.12083333333333357},{"name":"E4","midi":64,"time":28.375,"velocity":0.7637795275590551,"duration":0.12083333333333357},{"name":"F3","midi":53,"time":28.5,"velocity":0.7637795275590551,"duration":0.12083333333333357},{"name":"E3","midi":52,"time":28.625,"velocity":0.7637795275590551,"duration":0.12083333333333357},{"name":"F3","midi":53,"time":28.75,"velocity":0.7637795275590551,"duration":0.12083333333333357},{"name":"D4","midi":62,"time":28.875,"velocity":0.7637795275590551,"duration":0.12083333333333357},{"name":"F3","midi":53,"time":29,"velocity":0.7637795275590551,"duration":0.12083333333333357},{"name":"D4","midi":62,"time":29.125,"velocity":0.7637795275590551,"duration":0.12083333333333357},{"name":"E3","midi":52,"time":29.25,"velocity":0.7637795275590551,"duration":0.12083333333333357},{"name":"D4","midi":62,"time":29.375,"velocity":0.7637795275590551,"duration":0.12083333333333357},{"name":"F3","midi":53,"time":29.5,"velocity":0.7637795275590551,"duration":0.12083333333333357},{"name":"D4","midi":62,"time":29.625,"velocity":0.7637795275590551,"duration":0.12083333333333357},{"name":"D3","midi":50,"time":29.75,"velocity":0.7637795275590551,"duration":0.12083333333333357},{"name":"D4","midi":62,"time":29.875,"velocity":0.7637795275590551,"duration":0.12083333333333357},{"name":"A#3","midi":58,"time":30,"velocity":0.7637795275590551,"duration":0.24166666666666714},{"name":"G3","midi":55,"time":30.25,"velocity":0.7637795275590551,"duration":0.24166666666666714},{"name":"E3","midi":52,"time":30.5,"velocity":0.7637795275590551,"duration":0.11250000000000071},{"name":"G3","midi":55,"time":30.75,"velocity":0.7637795275590551,"duration":0.11250000000000071},{"name":"C3","midi":48,"time":31,"velocity":0.7637795275590551,"duration":0.11250000000000071},{"name":"E3","midi":52,"time":31.25,"velocity":0.7637795275590551,"duration":0.11250000000000071},{"name":"A3","midi":57,"time":31.5,"velocity":0.7637795275590551,"duration":0.24166666666666714},{"name":"F3","midi":53,"time":31.75,"velocity":0.7637795275590551,"duration":0.24166666666666714},{"name":"D3","midi":50,"time":32,"velocity":0.7637795275590551,"duration":0.11249999999999716},{"name":"F3","midi":53,"time":32.25,"velocity":0.7637795275590551,"duration":0.11249999999999716},{"name":"B2","midi":47,"time":32.5,"velocity":0.7637795275590551,"duration":0.11249999999999716},{"name":"D3","midi":50,"time":32.75,"velocity":0.7637795275590551,"duration":0.11249999999999716},{"name":"G3","midi":55,"time":33,"velocity":0.7637795275590551,"duration":0.24166666666666714},{"name":"E3","midi":52,"time":33.25,"velocity":0.7637795275590551,"duration":0.24166666666666714},{"name":"C#3","midi":49,"time":33.5,"velocity":0.7637795275590551,"duration":0.11249999999999716},{"name":"E3","midi":52,"time":33.75,"velocity":0.7637795275590551,"duration":0.11249999999999716},{"name":"A2","midi":45,"time":34,"velocity":0.7637795275590551,"duration":0.11249999999999716},{"name":"C#3","midi":49,"time":34.25,"velocity":0.7637795275590551,"duration":0.11249999999999716},{"name":"D2","midi":38,"time":34.5,"velocity":0.7637795275590551,"duration":0.12083333333333002},{"name":"D3","midi":50,"time":34.625,"velocity":0.7637795275590551,"duration":0.12083333333333002},{"name":"C3","midi":48,"time":34.75,"velocity":0.7637795275590551,"duration":0.12083333333333002},{"name":"D3","midi":50,"time":34.875,"velocity":0.7637795275590551,"duration":0.12083333333333002},{"name":"G2","midi":43,"time":35,"velocity":0.7637795275590551,"duration":0.12083333333333002},{"name":"D3","midi":50,"time":35.125,"velocity":0.7637795275590551,"duration":0.12083333333333002},{"name":"A2","midi":45,"time":35.25,"velocity":0.7637795275590551,"duration":0.12083333333333002},{"name":"D3","midi":50,"time":35.375,"velocity":0.7637795275590551,"duration":0.12083333333333002},{"name":"A#2","midi":46,"time":35.5,"velocity":0.7637795275590551,"duration":0.12083333333333002},{"name":"D3","midi":50,"time":35.625,"velocity":0.7637795275590551,"duration":0.12083333333333002},{"name":"G2","midi":43,"time":35.75,"velocity":0.7637795275590551,"duration":0.12083333333333002},{"name":"D3","midi":50,"time":35.875,"velocity":0.7637795275590551,"duration":0.12083333333333002},{"name":"C2","midi":36,"time":36,"velocity":0.7637795275590551,"duration":0.12083333333333002},{"name":"C3","midi":48,"time":36.125,"velocity":0.7637795275590551,"duration":0.12083333333333002},{"name":"A#2","midi":46,"time":36.25,"velocity":0.7637795275590551,"duration":0.12083333333333002},{"name":"C3","midi":48,"time":36.375,"velocity":0.7637795275590551,"duration":0.12083333333333002},{"name":"F2","midi":41,"time":36.5,"velocity":0.7637795275590551,"duration":0.12083333333333002},{"name":"C3","midi":48,"time":36.625,"velocity":0.7637795275590551,"duration":0.12083333333333002},{"name":"G2","midi":43,"time":36.75,"velocity":0.7637795275590551,"duration":0.12083333333333002},{"name":"C3","midi":48,"time":36.875,"velocity":0.7637795275590551,"duration":0.12083333333333002},{"name":"A2","midi":45,"time":37,"velocity":0.7637795275590551,"duration":0.12083333333333002},{"name":"C3","midi":48,"time":37.125,"velocity":0.7637795275590551,"duration":0.12083333333333002},{"name":"F2","midi":41,"time":37.25,"velocity":0.7637795275590551,"duration":0.12083333333333002},{"name":"C3","midi":48,"time":37.375,"velocity":0.7637795275590551,"duration":0.12083333333333002},{"name":"A#2","midi":46,"time":37.5,"velocity":0.7637795275590551,"duration":0.11249999999999716},{"name":"D3","midi":50,"time":37.75,"velocity":0.7637795275590551,"duration":0.11249999999999716},{"name":"F3","midi":53,"time":38,"velocity":0.7637795275590551,"duration":0.11249999999999716},{"name":"D3","midi":50,"time":38.25,"velocity":0.7637795275590551,"duration":0.11249999999999716},{"name":"A#3","midi":58,"time":38.5,"velocity":0.7637795275590551,"duration":0.11249999999999716},{"name":"F3","midi":53,"time":38.75,"velocity":0.7637795275590551,"duration":0.11249999999999716},{"name":"D4","midi":62,"time":39,"velocity":0.7637795275590551,"duration":0.12083333333333002},{"name":"F4","midi":65,"time":39.125,"velocity":0.7637795275590551,"duration":0.12083333333333002},{"name":"D#4","midi":63,"time":39.25,"velocity":0.7637795275590551,"duration":0.12083333333333002},{"name":"F4","midi":65,"time":39.375,"velocity":0.7637795275590551,"duration":0.12083333333333002},{"name":"D4","midi":62,"time":39.5,"velocity":0.7637795275590551,"duration":0.12083333333333002},{"name":"F4","midi":65,"time":39.625,"velocity":0.7637795275590551,"duration":0.12083333333333002},{"name":"D#4","midi":63,"time":39.75,"velocity":0.7637795275590551,"duration":0.12083333333333002},{"name":"F4","midi":65,"time":39.875,"velocity":0.7637795275590551,"duration":0.12083333333333002},{"name":"D4","midi":62,"time":40,"velocity":0.7637795275590551,"duration":0.12083333333333002},{"name":"F4","midi":65,"time":40.125,"velocity":0.7637795275590551,"duration":0.12083333333333002},{"name":"D#4","midi":63,"time":40.25,"velocity":0.7637795275590551,"duration":0.12083333333333002},{"name":"F4","midi":65,"time":40.375,"velocity":0.7637795275590551,"duration":0.12083333333333002},{"name":"A#3","midi":58,"time":40.5,"velocity":0.7637795275590551,"duration":0.12083333333333002},{"name":"D4","midi":62,"time":40.625,"velocity":0.7637795275590551,"duration":0.12083333333333002},{"name":"C4","midi":60,"time":40.75,"velocity":0.7637795275590551,"duration":0.12083333333333002},{"name":"D4","midi":62,"time":40.875,"velocity":0.7637795275590551,"duration":0.12083333333333002},{"name":"A#3","midi":58,"time":41,"velocity":0.7637795275590551,"duration":0.12083333333333002},{"name":"D4","midi":62,"time":41.125,"velocity":0.7637795275590551,"duration":0.12083333333333002},{"name":"C4","midi":60,"time":41.25,"velocity":0.7637795275590551,"duration":0.12083333333333002},{"name":"D4","midi":62,"time":41.375,"velocity":0.7637795275590551,"duration":0.12083333333333002},{"name":"A#3","midi":58,"time":41.5,"velocity":0.7637795275590551,"duration":0.12083333333333002},{"name":"D4","midi":62,"time":41.625,"velocity":0.7637795275590551,"duration":0.12083333333333002},{"name":"C4","midi":60,"time":41.75,"velocity":0.7637795275590551,"duration":0.12083333333333002},{"name":"D4","midi":62,"time":41.875,"velocity":0.7637795275590551,"duration":0.12083333333333002},{"name":"G3","midi":55,"time":42,"velocity":0.7637795275590551,"duration":0.12083333333333002},{"name":"A#3","midi":58,"time":42.125,"velocity":0.7637795275590551,"duration":0.12083333333333002},{"name":"A3","midi":57,"time":42.25,"velocity":0.7637795275590551,"duration":0.12083333333333002},{"name":"A#3","midi":58,"time":42.375,"velocity":0.7637795275590551,"duration":0.12083333333333002},{"name":"G3","midi":55,"time":42.5,"velocity":0.7637795275590551,"duration":0.12083333333333002},{"name":"A#3","midi":58,"time":42.625,"velocity":0.7637795275590551,"duration":0.12083333333333002},{"name":"A3","midi":57,"time":42.75,"velocity":0.7637795275590551,"duration":0.12083333333333002},{"name":"A#3","midi":58,"time":42.875,"velocity":0.7637795275590551,"duration":0.12083333333333002},{"name":"G3","midi":55,"time":43,"velocity":0.7637795275590551,"duration":0.12083333333333002},{"name":"A#3","midi":58,"time":43.125,"velocity":0.7637795275590551,"duration":0.12083333333333002},{"name":"A3","midi":57,"time":43.25,"velocity":0.7637795275590551,"duration":0.12083333333333002},{"name":"A#3","midi":58,"time":43.375,"velocity":0.7637795275590551,"duration":0.12083333333333002},{"name":"E3","midi":52,"time":43.5,"velocity":0.7637795275590551,"duration":0.11249999999999716},{"name":"C3","midi":48,"time":43.75,"velocity":0.7637795275590551,"duration":0.11249999999999716},{"name":"F3","midi":53,"time":44,"velocity":0.7637795275590551,"duration":0.11249999999999716},{"name":"C3","midi":48,"time":44.25,"velocity":0.7637795275590551,"duration":0.11249999999999716},{"name":"A3","midi":57,"time":44.5,"velocity":0.7637795275590551,"duration":0.11249999999999716},{"name":"F3","midi":53,"time":44.75,"velocity":0.7637795275590551,"duration":0.11249999999999716},{"name":"A#3","midi":58,"time":45,"velocity":0.7637795275590551,"duration":0.12083333333333002},{"name":"C4","midi":60,"time":45.125,"velocity":0.7637795275590551,"duration":0.12083333333333002},{"name":"A#3","midi":58,"time":45.25,"velocity":0.7637795275590551,"duration":0.12083333333333002},{"name":"A3","midi":57,"time":45.375,"velocity":0.7637795275590551,"duration":0.12083333333333002},{"name":"G3","midi":55,"time":45.5,"velocity":0.7637795275590551,"duration":0.12083333333333002},{"name":"A3","midi":57,"time":45.625,"velocity":0.7637795275590551,"duration":0.12083333333333002},{"name":"G3","midi":55,"time":45.75,"velocity":0.7637795275590551,"duration":0.12083333333333002},{"name":"F3","midi":53,"time":45.875,"velocity":0.7637795275590551,"duration":0.12083333333333002},{"name":"E3","midi":52,"time":46,"velocity":0.7637795275590551,"duration":0.12083333333333002},{"name":"F3","midi":53,"time":46.125,"velocity":0.7637795275590551,"duration":0.12083333333333002},{"name":"E3","midi":52,"time":46.25,"velocity":0.7637795275590551,"duration":0.12083333333333002},{"name":"D3","midi":50,"time":46.375,"velocity":0.7637795275590551,"duration":0.12083333333333002},{"name":"C3","midi":48,"time":46.5,"velocity":0.7637795275590551,"duration":0.24166666666666714},{"name":"F3","midi":53,"time":46.75,"velocity":0.7637795275590551,"duration":0.12083333333333002},{"name":"E3","midi":52,"time":46.875,"velocity":0.7637795275590551,"duration":0.12083333333333002},{"name":"D3","midi":50,"time":47,"velocity":0.7637795275590551,"duration":0.12083333333333002},{"name":"E3","midi":52,"time":47.125,"velocity":0.7637795275590551,"duration":0.12083333333333002},{"name":"D3","midi":50,"time":47.25,"velocity":0.7637795275590551,"duration":0.12083333333333002},{"name":"C3","midi":48,"time":47.375,"velocity":0.7637795275590551,"duration":0.12083333333333002},{"name":"A#2","midi":46,"time":47.5,"velocity":0.7637795275590551,"duration":0.12083333333333002},{"name":"C3","midi":48,"time":47.625,"velocity":0.7637795275590551,"duration":0.12083333333333002},{"name":"A#2","midi":46,"time":47.75,"velocity":0.7637795275590551,"duration":0.12083333333333002},{"name":"A2","midi":45,"time":47.875,"velocity":0.7637795275590551,"duration":0.12083333333333002},{"name":"G2","midi":43,"time":48,"velocity":0.7637795275590551,"duration":0.12083333333333002},{"name":"A2","midi":45,"time":48.125,"velocity":0.7637795275590551,"duration":0.12083333333333002},{"name":"G2","midi":43,"time":48.25,"velocity":0.7637795275590551,"duration":0.12083333333333002},{"name":"F2","midi":41,"time":48.375,"velocity":0.7637795275590551,"duration":0.12083333333333002},{"name":"C3","midi":48,"time":48.5,"velocity":0.7637795275590551,"duration":0.12083333333333002},{"name":"A#2","midi":46,"time":48.625,"velocity":0.7637795275590551,"duration":0.12083333333333002},{"name":"A2","midi":45,"time":48.75,"velocity":0.7637795275590551,"duration":0.12083333333333002},{"name":"A#2","midi":46,"time":48.875,"velocity":0.7637795275590551,"duration":0.12083333333333002},{"name":"C3","midi":48,"time":49,"velocity":0.7637795275590551,"duration":0.11249999999999716},{"name":"C2","midi":36,"time":49.25,"velocity":0.7637795275590551,"duration":0.11249999999999716},{"name":"F2","midi":41,"time":49.5,"velocity":0.7637795275590551,"duration":0.4833333333333343}],"controlChanges":{"7":[{"number":7,"time":0,"value":0.7874015748031497}],"10":[{"number":10,"time":0,"value":0.3779527559055118}]},"id":2,"name":"Harpsichord LH","instrumentNumber":6,"instrument":"harpsichord","instrumentFamily":"piano","channelNumber":0,"isPercussion":false}]}