{"header":{"PPQ":384,"timeSignature":[2,4],"bpm":64,"name":"--------"},"startTime":0,"duration":494.31640625,"tracks":[{"startTime":0,"duration":0,"length":0,"notes":[],"controlChanges":{},"id":0,"name":"--------"},{"startTime":0.234375,"duration":494.31640625,"length":2844,"notes":[{"name":"A#3","midi":58,"time":0.234375,"velocity":0.8031496062992126,"duration":0.1953125},{"name":"A#3","midi":58,"time":0.46875,"velocity":0.8031496062992126,"duration":0.68359375},{"name":"D#2","midi":39,"time":0.46875,"velocity":0.8031496062992126,"duration":1.87255859375},{"name":"F3","midi":53,"time":0.703125,"velocity":0.8031496062992126,"duration":0.23193359375},{"name":"G3","midi":55,"time":0.9375,"velocity":0.8031496062992126,"duration":0.23193359375},{"name":"A#3","midi":58,"time":1.171875,"velocity":0.8031496062992126,"duration":0.23193359375},{"name":"D#3","midi":51,"time":1.40625,"velocity":0.8031496062992126,"duration":0.927734375},{"name":"G3","midi":55,"time":1.640625,"velocity":0.8031496062992126,"duration":0.23193359375},{"name":"A#3","midi":58,"time":1.875,"velocity":0.8031496062992126,"duration":0.23193359375},{"name":"C#4","midi":61,"time":2.109375,"velocity":0.8031496062992126,"duration":0.23193359375},{"name":"C4","midi":60,"time":2.34375,"velocity":0.8031496062992126,"duration":0.68359375},{"name":"D#2","midi":39,"time":2.34375,"velocity":0.8031496062992126,"duration":1.87255859375},{"name":"G3","midi":55,"time":2.578125,"velocity":0.8031496062992126,"duration":0.23193359375},{"name":"G#3","midi":56,"time":2.8125,"velocity":0.8031496062992126,"duration":0.23193359375},{"name":"C4","midi":60,"time":3.046875,"velocity":0.8031496062992126,"duration":0.23193359375},{"name":"D#3","midi":51,"time":3.28125,"velocity":0.8031496062992126,"duration":0.927734375},{"name":"G#3","midi":56,"time":3.515625,"velocity":0.8031496062992126,"duration":0.23193359375},{"name":"C4","midi":60,"time":3.75,"velocity":0.8031496062992126,"duration":0.23193359375},{"name":"D#4","midi":63,"time":3.984375,"velocity":0.8031496062992126,"duration":0.23193359375},{"name":"D4","midi":62,"time":4.21875,"velocity":0.8031496062992126,"duration":0.68359375},{"name":"F2","midi":41,"time":4.21875,"velocity":0.8031496062992126,"duration":1.87255859375},{"name":"G3","midi":55,"time":4.453125,"velocity":0.8031496062992126,"duration":0.23193359375},{"name":"G#3","midi":56,"time":4.6875,"velocity":0.8031496062992126,"duration":0.23193359375},{"name":"D4","midi":62,"time":4.921875,"velocity":0.8031496062992126,"duration":0.23193359375},{"name":"F3","midi":53,"time":5.15625,"velocity":0.8031496062992126,"duration":0.927734375},{"name":"G#3","midi":56,"time":5.390625,"velocity":0.8031496062992126,"duration":0.23193359375},{"name":"D4","midi":62,"time":5.625,"velocity":0.8031496062992126,"duration":0.23193359375},{"name":"F4","midi":65,"time":5.859375,"velocity":0.8031496062992126,"duration":0.23193359375},{"name":"F4","midi":65,"time":6.09375,"velocity":0.8031496062992126,"duration":0.23193359375},{"name":"G2","midi":43,"time":6.09375,"velocity":0.8031496062992126,"duration":1.87255859375},{"name":"D4","midi":62,"time":6.328125,"velocity":0.8031496062992126,"duration":0.23193359375},{"name":"D#4","midi":63,"time":6.5625,"velocity":0.8031496062992126,"duration":0.4638671875},{"name":"G4","midi":67,"time":6.796875,"velocity":0.8031496062992126,"duration":0.23193359375},{"name":"A#3","midi":58,"time":7.03125,"velocity":0.8031496062992126,"duration":0.23193359375},{"name":"G3","midi":55,"time":7.03125,"velocity":0.8031496062992126,"duration":0.93505859375},{"name":"D4","midi":62,"time":7.265625,"velocity":0.8031496062992126,"duration":0.23193359375},{"name":"D#4","midi":63,"time":7.5,"velocity":0.8031496062992126,"duration":0.23193359375},{"name":"G4","midi":67,"time":7.734375,"velocity":0.8031496062992126,"duration":0.23193359375},{"name":"G4","midi":67,"time":7.96875,"velocity":0.8031496062992126,"duration":0.23193359375},{"name":"G#2","midi":44,"time":7.96875,"velocity":0.8031496062992126,"duration":1.87255859375},{"name":"D#4","midi":63,"time":8.203125,"velocity":0.8031496062992126,"duration":0.23193359375},{"name":"F4","midi":65,"time":8.4375,"velocity":0.8031496062992126,"duration":0.4638671875},{"name":"G#4","midi":68,"time":8.671875,"velocity":0.8031496062992126,"duration":0.23193359375},{"name":"C4","midi":60,"time":8.90625,"velocity":0.8031496062992126,"duration":0.23193359375},{"name":"G#3","midi":56,"time":8.90625,"velocity":0.8031496062992126,"duration":1.87255859375},{"name":"D#4","midi":63,"time":9.140625,"velocity":0.8031496062992126,"duration":0.23193359375},{"name":"F4","midi":65,"time":9.375,"velocity":0.8031496062992126,"duration":0.23193359375},{"name":"G#4","midi":68,"time":9.609375,"velocity":0.8031496062992126,"duration":0.23193359375},{"name":"D4","midi":62,"time":9.84375,"velocity":0.8031496062992126,"duration":0.68359375},{"name":"A#2","midi":46,"time":9.84375,"velocity":0.8031496062992126,"duration":5.615234375},{"name":"C5","midi":72,"time":10.078125,"velocity":0.8031496062992126,"duration":0.23193359375},{"name":"A#4","midi":70,"time":10.3125,"velocity":0.8031496062992126,"duration":0.23193359375},{"name":"D4","midi":62,"time":10.546875,"velocity":0.8031496062992126,"duration":0.23193359375},{"name":"D#4","midi":63,"time":10.78125,"velocity":0.8031496062992126,"duration":0.23193359375},{"name":"G3","midi":55,"time":10.78125,"velocity":0.8031496062992126,"duration":0.93505859375},{"name":"A#4","midi":70,"time":11.015625,"velocity":0.8031496062992126,"duration":0.23193359375},{"name":"G4","midi":67,"time":11.25,"velocity":0.8031496062992126,"duration":0.23193359375},{"name":"D#4","midi":63,"time":11.484375,"velocity":0.8031496062992126,"duration":0.23193359375},{"name":"C4","midi":60,"time":11.71875,"velocity":0.8031496062992126,"duration":0.68359375},{"name":"D#3","midi":51,"time":11.71875,"velocity":0.8031496062992126,"duration":0.93505859375},{"name":"A#4","midi":70,"time":11.953125,"velocity":0.8031496062992126,"duration":0.23193359375},{"name":"G#4","midi":68,"time":12.1875,"velocity":0.8031496062992126,"duration":0.23193359375},{"name":"C4","midi":60,"time":12.421875,"velocity":0.8031496062992126,"duration":0.23193359375},{"name":"D4","midi":62,"time":12.65625,"velocity":0.8031496062992126,"duration":0.23193359375},{"name":"F3","midi":53,"time":12.65625,"velocity":0.8031496062992126,"duration":0.93505859375},{"name":"G#4","midi":68,"time":12.890625,"velocity":0.8031496062992126,"duration":0.23193359375},{"name":"F4","midi":65,"time":13.125,"velocity":0.8031496062992126,"duration":0.23193359375},{"name":"D4","midi":62,"time":13.359375,"velocity":0.8031496062992126,"duration":0.23193359375},{"name":"A#3","midi":58,"time":13.59375,"velocity":0.8031496062992126,"duration":0.68359375},{"name":"D3","midi":50,"time":13.59375,"velocity":0.8031496062992126,"duration":0.93505859375},{"name":"G#4","midi":68,"time":13.828125,"velocity":0.8031496062992126,"duration":0.23193359375},{"name":"G4","midi":67,"time":14.0625,"velocity":0.8031496062992126,"duration":0.23193359375},{"name":"A#3","midi":58,"time":14.296875,"velocity":0.8031496062992126,"duration":0.23193359375},{"name":"C4","midi":60,"time":14.53125,"velocity":0.8031496062992126,"duration":0.23193359375},{"name":"D#3","midi":51,"time":14.53125,"velocity":0.8031496062992126,"duration":1.87255859375},{"name":"G4","midi":67,"time":14.765625,"velocity":0.8031496062992126,"duration":0.23193359375},{"name":"D#4","midi":63,"time":15,"velocity":0.8031496062992126,"duration":0.23193359375},{"name":"C4","midi":60,"time":15.234375,"velocity":0.8031496062992126,"duration":0.23193359375},{"name":"G#3","midi":56,"time":15.46875,"velocity":0.8031496062992126,"duration":0.68359375},{"name":"C3","midi":48,"time":15.46875,"velocity":0.8031496062992126,"duration":0.93505859375},{"name":"G4","midi":67,"time":15.703125,"velocity":0.8031496062992126,"duration":0.23193359375},{"name":"F4","midi":65,"time":15.9375,"velocity":0.8031496062992126,"duration":0.23193359375},{"name":"G#3","midi":56,"time":16.171875,"velocity":0.8031496062992126,"duration":0.23193359375},{"name":"A#3","midi":58,"time":16.40625,"velocity":0.8031496062992126,"duration":0.23193359375},{"name":"F3","midi":53,"time":16.40625,"velocity":0.8031496062992126,"duration":0.93505859375},{"name":"D3","midi":50,"time":16.40625,"velocity":0.8031496062992126,"duration":0.93505859375},{"name":"F4","midi":65,"time":16.640625,"velocity":0.8031496062992126,"duration":0.23193359375},{"name":"D4","midi":62,"time":16.875,"velocity":0.8031496062992126,"duration":0.23193359375},{"name":"A#3","midi":58,"time":17.109375,"velocity":0.8031496062992126,"duration":0.23193359375},{"name":"G3","midi":55,"time":17.34375,"velocity":0.8031496062992126,"duration":0.927734375},{"name":"D#3","midi":51,"time":17.34375,"velocity":0.8031496062992126,"duration":0.46630859375},{"name":"A#3","midi":58,"time":17.578125,"velocity":0.8031496062992126,"duration":0.23193359375},{"name":"D4","midi":62,"time":17.8125,"velocity":0.8031496062992126,"duration":0.23193359375},{"name":"D3","midi":50,"time":17.8125,"velocity":0.8031496062992126,"duration":0.46630859375},{"name":"F4","midi":65,"time":18.046875,"velocity":0.8031496062992126,"duration":0.23193359375},{"name":"D#4","midi":63,"time":18.28125,"velocity":0.8031496062992126,"duration":0.927734375},{"name":"C3","midi":48,"time":18.28125,"velocity":0.8031496062992126,"duration":0.46630859375},{"name":"G4","midi":67,"time":18.515625,"velocity":0.8031496062992126,"duration":0.23193359375},{"name":"A#4","midi":70,"time":18.75,"velocity":0.8031496062992126,"duration":0.23193359375},{"name":"A#2","midi":46,"time":18.75,"velocity":0.8031496062992126,"duration":0.46630859375},{"name":"C#5","midi":73,"time":18.984375,"velocity":0.8031496062992126,"duration":0.23193359375},{"name":"C5","midi":72,"time":19.21875,"velocity":0.8031496062992126,"duration":1.171875},{"name":"G#2","midi":44,"time":19.21875,"velocity":0.8031496062992126,"duration":0.927734375},{"name":"G4","midi":67,"time":19.453125,"velocity":0.8031496062992126,"duration":0.23193359375},{"name":"G#4","midi":68,"time":19.6875,"velocity":0.8031496062992126,"duration":0.23193359375},{"name":"F3","midi":53,"time":19.6875,"velocity":0.8031496062992126,"duration":0.927734375},{"name":"F4","midi":65,"time":19.921875,"velocity":0.8031496062992126,"duration":0.23193359375},{"name":"D4","midi":62,"time":20.15625,"velocity":0.8031496062992126,"duration":0.927734375},{"name":"A#2","midi":46,"time":20.15625,"velocity":0.8031496062992126,"duration":0.927734375},{"name":"C5","midi":72,"time":20.390625,"velocity":0.8031496062992126,"duration":0.23193359375},{"name":"A#4","midi":70,"time":20.625,"velocity":0.8031496062992126,"duration":0.23193359375},{"name":"A#3","midi":58,"time":20.625,"velocity":0.8031496062992126,"duration":0.927734375},{"name":"G#4","midi":68,"time":20.859375,"velocity":0.8031496062992126,"duration":0.23193359375},{"name":"G4","midi":67,"time":21.09375,"velocity":0.8031496062992126,"duration":0.23193359375},{"name":"D#3","midi":51,"time":21.09375,"velocity":0.8031496062992126,"duration":0.46630859375},{"name":"F4","midi":65,"time":21.328125,"velocity":0.8031496062992126,"duration":0.23193359375},{"name":"G4","midi":67,"time":21.5625,"velocity":0.8031496062992126,"duration":0.68359375},{"name":"F3","midi":53,"time":21.5625,"velocity":0.8031496062992126,"duration":0.46630859375},{"name":"A#4","midi":70,"time":21.796875,"velocity":0.8031496062992126,"duration":0.23193359375},{"name":"D#5","midi":75,"time":22.03125,"velocity":0.8031496062992126,"duration":1.171875},{"name":"G3","midi":55,"time":22.03125,"velocity":0.8031496062992126,"duration":0.46630859375},{"name":"A#4","midi":70,"time":22.265625,"velocity":0.8031496062992126,"duration":0.23193359375},{"name":"C5","midi":72,"time":22.5,"velocity":0.8031496062992126,"duration":0.23193359375},{"name":"G#3","midi":56,"time":22.5,"velocity":0.8031496062992126,"duration":0.46630859375},{"name":"G#4","midi":68,"time":22.734375,"velocity":0.8031496062992126,"duration":0.23193359375},{"name":"F4","midi":65,"time":22.96875,"velocity":0.8031496062992126,"duration":0.927734375},{"name":"A#3","midi":58,"time":22.96875,"velocity":0.8031496062992126,"duration":0.46630859375},{"name":"D#5","midi":75,"time":23.203125,"velocity":0.8031496062992126,"duration":0.23193359375},{"name":"D5","midi":74,"time":23.4375,"velocity":0.8031496062992126,"duration":0.23193359375},{"name":"A3","midi":57,"time":23.4375,"velocity":0.8031496062992126,"duration":0.46630859375},{"name":"C5","midi":72,"time":23.671875,"velocity":0.8031496062992126,"duration":0.23193359375},{"name":"D5","midi":74,"time":23.90625,"velocity":0.8031496062992126,"duration":1.40380859375},{"name":"B3","midi":59,"time":23.90625,"velocity":0.8031496062992126,"duration":0.46630859375},{"name":"A4","midi":69,"time":24.140625,"velocity":0.8031496062992126,"duration":0.23193359375},{"name":"B4","midi":71,"time":24.375,"velocity":0.8031496062992126,"duration":0.23193359375},{"name":"G3","midi":55,"time":24.375,"velocity":0.8031496062992126,"duration":0.46630859375},{"name":"G4","midi":67,"time":24.609375,"velocity":0.8031496062992126,"duration":0.23193359375},{"name":"F4","midi":65,"time":24.84375,"velocity":0.8031496062992126,"duration":0.23193359375},{"name":"C4","midi":60,"time":24.84375,"velocity":0.8031496062992126,"duration":0.46630859375},{"name":"D4","midi":62,"time":25.078125,"velocity":0.8031496062992126,"duration":0.23193359375},{"name":"D#4","midi":63,"time":25.3125,"velocity":0.8031496062992126,"duration":0.68359375},{"name":"C3","midi":48,"time":25.3125,"velocity":0.8031496062992126,"duration":0.46630859375},{"name":"G4","midi":67,"time":25.546875,"velocity":0.8031496062992126,"duration":0.23193359375},{"name":"C5","midi":72,"time":25.78125,"velocity":0.8031496062992126,"duration":1.171875},{"name":"D#3","midi":51,"time":25.78125,"velocity":0.8031496062992126,"duration":0.46630859375},{"name":"G4","midi":67,"time":26.015625,"velocity":0.8031496062992126,"duration":0.23193359375},{"name":"G#4","midi":68,"time":26.25,"velocity":0.8031496062992126,"duration":0.23193359375},{"name":"F3","midi":53,"time":26.25,"velocity":0.8031496062992126,"duration":0.46630859375},{"name":"F4","midi":65,"time":26.484375,"velocity":0.8031496062992126,"duration":0.23193359375},{"name":"D4","midi":62,"time":26.71875,"velocity":0.8031496062992126,"duration":1.171875},{"name":"G3","midi":55,"time":26.71875,"velocity":0.8031496062992126,"duration":0.46630859375},{"name":"C5","midi":72,"time":26.953125,"velocity":0.8031496062992126,"duration":0.23193359375},{"name":"A#4","midi":70,"time":27.1875,"velocity":0.8031496062992126,"duration":0.23193359375},{"name":"F3","midi":53,"time":27.1875,"velocity":0.8031496062992126,"duration":0.46630859375},{"name":"G#4","midi":68,"time":27.421875,"velocity":0.8031496062992126,"duration":0.23193359375},{"name":"A#4","midi":70,"time":27.65625,"velocity":0.8031496062992126,"duration":0.927734375},{"name":"G3","midi":55,"time":27.65625,"velocity":0.8031496062992126,"duration":0.46630859375},{"name":"F4","midi":65,"time":27.890625,"velocity":0.8031496062992126,"duration":0.23193359375},{"name":"G4","midi":67,"time":28.125,"velocity":0.8031496062992126,"duration":0.23193359375},{"name":"D#3","midi":51,"time":28.125,"velocity":0.8031496062992126,"duration":0.46630859375},{"name":"C#4","midi":61,"time":28.359375,"velocity":0.8031496062992126,"duration":0.23193359375},{"name":"C4","midi":60,"time":28.59375,"velocity":0.8031496062992126,"duration":0.927734375},{"name":"G#3","midi":56,"time":28.59375,"velocity":0.8031496062992126,"duration":0.46630859375},{"name":"D#4","midi":63,"time":28.828125,"velocity":0.8031496062992126,"duration":0.23193359375},{"name":"G4","midi":67,"time":29.0625,"velocity":0.8031496062992126,"duration":0.23193359375},{"name":"G3","midi":55,"time":29.0625,"velocity":0.8031496062992126,"duration":0.46630859375},{"name":"A#4","midi":70,"time":29.296875,"velocity":0.8031496062992126,"duration":0.23193359375},{"name":"G#4","midi":68,"time":29.53125,"velocity":0.8031496062992126,"duration":1.171875},{"name":"F3","midi":53,"time":29.53125,"velocity":0.8031496062992126,"duration":0.46630859375},{"name":"C5","midi":72,"time":29.765625,"velocity":0.8031496062992126,"duration":0.23193359375},{"name":"D#5","midi":75,"time":30,"velocity":0.8031496062992126,"duration":0.23193359375},{"name":"D#3","midi":51,"time":30,"velocity":0.8031496062992126,"duration":0.46630859375},{"name":"G5","midi":79,"time":30.234375,"velocity":0.8031496062992126,"duration":0.23193359375},{"name":"F5","midi":77,"time":30.46875,"velocity":0.8031496062992126,"duration":0.927734375},{"name":"D3","midi":50,"time":30.46875,"velocity":0.8031496062992126,"duration":0.46630859375},{"name":"G4","midi":67,"time":30.703125,"velocity":0.8031496062992126,"duration":0.23193359375},{"name":"G#4","midi":68,"time":30.9375,"velocity":0.8031496062992126,"duration":0.23193359375},{"name":"F3","midi":53,"time":30.9375,"velocity":0.8031496062992126,"duration":0.46630859375},{"name":"C5","midi":72,"time":31.171875,"velocity":0.8031496062992126,"duration":0.23193359375},{"name":"F5","midi":77,"time":31.40625,"velocity":0.8031496062992126,"duration":0.4638671875},{"name":"D3","midi":50,"time":31.40625,"velocity":0.8031496062992126,"duration":0.46630859375},{"name":"C5","midi":72,"time":31.640625,"velocity":0.8031496062992126,"duration":0.23193359375},{"name":"D5","midi":74,"time":31.875,"velocity":0.8031496062992126,"duration":0.4638671875},{"name":"A#2","midi":46,"time":31.875,"velocity":0.8031496062992126,"duration":0.46630859375},{"name":"G#4","midi":68,"time":32.109375,"velocity":0.8031496062992126,"duration":0.23193359375},{"name":"G4","midi":67,"time":32.34375,"velocity":0.8031496062992126,"duration":1.171875},{"name":"D#3","midi":51,"time":32.34375,"velocity":0.8031496062992126,"duration":0.46630859375},{"name":"A#4","midi":70,"time":32.578125,"velocity":0.8031496062992126,"duration":0.23193359375},{"name":"D5","midi":74,"time":32.8125,"velocity":0.8031496062992126,"duration":0.23193359375},{"name":"D3","midi":50,"time":32.8125,"velocity":0.8031496062992126,"duration":0.46630859375},{"name":"F5","midi":77,"time":33.046875,"velocity":0.8031496062992126,"duration":0.23193359375},{"name":"D#5","midi":75,"time":33.28125,"velocity":0.8031496062992126,"duration":1.171875},{"name":"C3","midi":48,"time":33.28125,"velocity":0.8031496062992126,"duration":0.46630859375},{"name":"A4","midi":69,"time":33.515625,"velocity":0.8031496062992126,"duration":0.23193359375},{"name":"C5","midi":72,"time":33.75,"velocity":0.8031496062992126,"duration":0.23193359375},{"name":"A#2","midi":46,"time":33.75,"velocity":0.8031496062992126,"duration":0.46630859375},{"name":"F#4","midi":66,"time":33.984375,"velocity":0.8031496062992126,"duration":0.23193359375},{"name":"F4","midi":65,"time":34.21875,"velocity":0.8031496062992126,"duration":0.927734375},{"name":"A2","midi":45,"time":34.21875,"velocity":0.8031496062992126,"duration":0.46630859375},{"name":"D#5","midi":75,"time":34.453125,"velocity":0.8031496062992126,"duration":0.23193359375},{"name":"D5","midi":74,"time":34.6875,"velocity":0.8031496062992126,"duration":0.23193359375},{"name":"A#2","midi":46,"time":34.6875,"velocity":0.8031496062992126,"duration":0.46630859375},{"name":"A#4","midi":70,"time":34.921875,"velocity":0.8031496062992126,"duration":0.23193359375},{"name":"G4","midi":67,"time":35.15625,"velocity":0.8031496062992126,"duration":0.4638671875},{"name":"D#3","midi":51,"time":35.15625,"velocity":0.8031496062992126,"duration":0.46630859375},{"name":"C5","midi":72,"time":35.390625,"velocity":0.8031496062992126,"duration":0.4638671875},{"name":"D#4","midi":63,"time":35.625,"velocity":0.8031496062992126,"duration":0.4638671875},{"name":"F3","midi":53,"time":35.625,"velocity":0.8031496062992126,"duration":0.46630859375},{"name":"A4","midi":69,"time":35.859375,"velocity":0.8031496062992126,"duration":0.23193359375},{"name":"A#4","midi":70,"time":36.09375,"velocity":0.8031496062992126,"duration":1.40380859375},{"name":"A#2","midi":46,"time":36.09375,"velocity":0.8031496062992126,"duration":1.40380859375},{"name":"C4","midi":60,"time":36.328125,"velocity":0.8031496062992126,"duration":0.23193359375},{"name":"D4","midi":62,"time":36.5625,"velocity":0.8031496062992126,"duration":0.927734375},{"name":"F4","midi":65,"time":36.796875,"velocity":0.8031496062992126,"duration":0.23193359375},{"name":"A#3","midi":58,"time":37.03125,"velocity":0.8031496062992126,"duration":0.634765625},{"name":"F5","midi":77,"time":37.734375,"velocity":0.8031496062992126,"duration":0.23193359375},{"name":"F5","midi":77,"time":37.96875,"velocity":0.8031496062992126,"duration":0.68359375},{"name":"A#3","midi":58,"time":37.96875,"velocity":0.8031496062992126,"duration":1.87255859375},{"name":"C5","midi":72,"time":38.203125,"velocity":0.8031496062992126,"duration":0.23193359375},{"name":"D5","midi":74,"time":38.4375,"velocity":0.8031496062992126,"duration":0.23193359375},{"name":"F5","midi":77,"time":38.671875,"velocity":0.8031496062992126,"duration":0.23193359375},{"name":"A#4","midi":70,"time":38.90625,"velocity":0.8031496062992126,"duration":0.927734375},{"name":"D5","midi":74,"time":39.140625,"velocity":0.8031496062992126,"duration":0.23193359375},{"name":"F5","midi":77,"time":39.375,"velocity":0.8031496062992126,"duration":0.23193359375},{"name":"G#5","midi":80,"time":39.609375,"velocity":0.8031496062992126,"duration":0.23193359375},{"name":"G5","midi":79,"time":39.84375,"velocity":0.8031496062992126,"duration":0.68359375},{"name":"A#3","midi":58,"time":39.84375,"velocity":0.8031496062992126,"duration":1.87255859375},{"name":"D5","midi":74,"time":40.078125,"velocity":0.8031496062992126,"duration":0.23193359375},{"name":"D#5","midi":75,"time":40.3125,"velocity":0.8031496062992126,"duration":0.23193359375},{"name":"G5","midi":79,"time":40.546875,"velocity":0.8031496062992126,"duration":0.23193359375},{"name":"A#4","midi":70,"time":40.78125,"velocity":0.8031496062992126,"duration":0.927734375},{"name":"D#5","midi":75,"time":41.015625,"velocity":0.8031496062992126,"duration":0.23193359375},{"name":"G5","midi":79,"time":41.25,"velocity":0.8031496062992126,"duration":0.23193359375},{"name":"A#5","midi":82,"time":41.484375,"velocity":0.8031496062992126,"duration":0.23193359375},{"name":"A5","midi":81,"time":41.71875,"velocity":0.8031496062992126,"duration":0.68359375},{"name":"A#3","midi":58,"time":41.71875,"velocity":0.8031496062992126,"duration":1.87255859375},{"name":"C5","midi":72,"time":41.953125,"velocity":0.8031496062992126,"duration":0.23193359375},{"name":"D#5","midi":75,"time":42.1875,"velocity":0.8031496062992126,"duration":0.23193359375},{"name":"A5","midi":81,"time":42.421875,"velocity":0.8031496062992126,"duration":0.23193359375},{"name":"F#4","midi":66,"time":42.65625,"velocity":0.8031496062992126,"duration":0.927734375},{"name":"D#5","midi":75,"time":42.890625,"velocity":0.8031496062992126,"duration":0.23193359375},{"name":"A5","midi":81,"time":43.125,"velocity":0.8031496062992126,"duration":0.23193359375},{"name":"C6","midi":84,"time":43.359375,"velocity":0.8031496062992126,"duration":0.23193359375},{"name":"C6","midi":84,"time":43.59375,"velocity":0.8031496062992126,"duration":0.23193359375},{"name":"A#3","midi":58,"time":43.59375,"velocity":0.8031496062992126,"duration":1.87255859375},{"name":"A5","midi":81,"time":43.828125,"velocity":0.8031496062992126,"duration":0.23193359375},{"name":"A#5","midi":82,"time":44.0625,"velocity":0.8031496062992126,"duration":0.4638671875},{"name":"F5","midi":77,"time":44.296875,"velocity":0.8031496062992126,"duration":0.23193359375},{"name":"F4","midi":65,"time":44.53125,"velocity":0.8031496062992126,"duration":0.927734375},{"name":"D#5","midi":75,"time":44.53125,"velocity":0.8031496062992126,"duration":0.4638671875},{"name":"C5","midi":72,"time":44.765625,"velocity":0.8031496062992126,"duration":0.23193359375},{"name":"D5","midi":74,"time":45,"velocity":0.8031496062992126,"duration":0.23193359375},{"name":"F5","midi":77,"time":45.234375,"velocity":0.8031496062992126,"duration":0.2197265625},{"name":"F5","midi":77,"time":45.46875,"velocity":0.8031496062992126,"duration":0.927734375},{"name":"G#4","midi":68,"time":45.46875,"velocity":0.8031496062992126,"duration":0.23193359375},{"name":"B3","midi":59,"time":45.46875,"velocity":0.8031496062992126,"duration":1.87255859375},{"name":"F4","midi":65,"time":45.703125,"velocity":0.8031496062992126,"duration":0.23193359375},{"name":"G4","midi":67,"time":45.9375,"velocity":0.8031496062992126,"duration":1.6357421875},{"name":"B4","midi":71,"time":46.171875,"velocity":0.8031496062992126,"duration":0.23193359375},{"name":"D5","midi":74,"time":46.40625,"velocity":0.8031496062992126,"duration":0.23193359375},{"name":"F5","midi":77,"time":46.640625,"velocity":0.8031496062992126,"duration":0.23193359375},{"name":"D#5","midi":75,"time":46.875,"velocity":0.8031496062992126,"duration":0.23193359375},{"name":"D5","midi":74,"time":47.109375,"velocity":0.8031496062992126,"duration":0.23193359375},{"name":"D#5","midi":75,"time":47.34375,"velocity":0.8031496062992126,"duration":1.87255859375},{"name":"C4","midi":60,"time":47.34375,"velocity":0.8031496062992126,"duration":1.40380859375},{"name":"B4","midi":71,"time":47.578125,"velocity":0.8031496062992126,"duration":0.23193359375},{"name":"C5","midi":72,"time":47.8125,"velocity":0.8031496062992126,"duration":1.40380859375},{"name":"G4","midi":67,"time":48.046875,"velocity":0.8031496062992126,"duration":1.171875},{"name":"D#4","midi":63,"time":48.28125,"velocity":0.8031496062992126,"duration":0.23193359375},{"name":"B3","midi":59,"time":48.515625,"velocity":0.8031496062992126,"duration":0.23193359375},{"name":"C4","midi":60,"time":48.75,"velocity":0.8031496062992126,"duration":0.23193359375},{"name":"G3","midi":55,"time":48.984375,"velocity":0.8031496062992126,"duration":0.2197265625},{"name":"G#3","midi":56,"time":49.21875,"velocity":0.8031496062992126,"duration":1.87255859375},{"name":"C4","midi":60,"time":49.453125,"velocity":0.8031496062992126,"duration":0.4638671875},{"name":"D#4","midi":63,"time":49.6875,"velocity":0.8031496062992126,"duration":0.4638671875},{"name":"G4","midi":67,"time":49.921875,"velocity":0.8031496062992126,"duration":0.23193359375},{"name":"F4","midi":65,"time":50.15625,"velocity":0.8031496062992126,"duration":2.099609375},{"name":"D#5","midi":75,"time":50.390625,"velocity":0.8031496062992126,"duration":0.23193359375},{"name":"D5","midi":74,"time":50.625,"velocity":0.8031496062992126,"duration":0.23193359375},{"name":"F5","midi":77,"time":50.859375,"velocity":0.8031496062992126,"duration":0.23193359375},{"name":"C5","midi":72,"time":51.09375,"velocity":0.8031496062992126,"duration":0.23193359375},{"name":"G3","midi":55,"time":51.09375,"velocity":0.8031496062992126,"duration":1.6357421875},{"name":"A4","midi":69,"time":51.328125,"velocity":0.8031496062992126,"duration":0.23193359375},{"name":"B4","midi":71,"time":51.5625,"velocity":0.8031496062992126,"duration":1.171875},{"name":"D5","midi":74,"time":51.796875,"velocity":0.8031496062992126,"duration":0.927734375},{"name":"G5","midi":79,"time":52.03125,"velocity":0.8031496062992126,"duration":0.68359375},{"name":"D4","midi":62,"time":52.265625,"velocity":0.8031496062992126,"duration":0.23193359375},{"name":"B3","midi":59,"time":52.5,"velocity":0.8031496062992126,"duration":0.23193359375},{"name":"G3","midi":55,"time":52.734375,"velocity":0.8031496062992126,"duration":0.23193359375},{"name":"E4","midi":64,"time":52.96875,"velocity":0.8031496062992126,"duration":1.87255859375},{"name":"A#5","midi":82,"time":53.203125,"velocity":0.8031496062992126,"duration":0.23193359375},{"name":"G5","midi":79,"time":53.4375,"velocity":0.8031496062992126,"duration":0.23193359375},{"name":"A#3","midi":58,"time":53.4375,"velocity":0.8031496062992126,"duration":0.46630859375},{"name":"C#5","midi":73,"time":53.671875,"velocity":0.8031496062992126,"duration":0.23193359375},{"name":"A#4","midi":70,"time":53.90625,"velocity":0.8031496062992126,"duration":0.23193359375},{"name":"G#3","midi":56,"time":53.90625,"velocity":0.8031496062992126,"duration":0.46630859375},{"name":"G5","midi":79,"time":54.140625,"velocity":0.8031496062992126,"duration":0.23193359375},{"name":"E5","midi":76,"time":54.375,"velocity":0.8031496062992126,"duration":0.23193359375},{"name":"G3","midi":55,"time":54.375,"velocity":0.8031496062992126,"duration":0.46630859375},{"name":"C5","midi":72,"time":54.609375,"velocity":0.8031496062992126,"duration":0.23193359375},{"name":"F4","midi":65,"time":54.84375,"velocity":0.8031496062992126,"duration":0.927734375},{"name":"G#5","midi":80,"time":54.84375,"velocity":0.8031496062992126,"duration":0.4638671875},{"name":"F3","midi":53,"time":54.84375,"velocity":0.8031496062992126,"duration":0.46630859375},{"name":"F5","midi":77,"time":55.078125,"velocity":0.8031496062992126,"duration":0.23193359375},{"name":"D5","midi":74,"time":55.3125,"velocity":0.8031496062992126,"duration":0.23193359375},{"name":"D#3","midi":51,"time":55.3125,"velocity":0.8031496062992126,"duration":0.46630859375},{"name":"C5","midi":72,"time":55.546875,"velocity":0.8031496062992126,"duration":0.23193359375},{"name":"B4","midi":71,"time":55.78125,"velocity":0.8031496062992126,"duration":0.341796875},{"name":"D3","midi":50,"time":55.78125,"velocity":0.8031496062992126,"duration":0.46630859375},{"name":"F5","midi":77,"time":56.015625,"velocity":0.8031496062992126,"duration":0.23193359375},{"name":"D5","midi":74,"time":56.25,"velocity":0.8031496062992126,"duration":0.23193359375},{"name":"C3","midi":48,"time":56.25,"velocity":0.8031496062992126,"duration":0.46630859375},{"name":"B4","midi":71,"time":56.484375,"velocity":0.8031496062992126,"duration":0.23193359375},{"name":"G4","midi":67,"time":56.71875,"velocity":0.8031496062992126,"duration":0.68359375},{"name":"F3","midi":53,"time":56.71875,"velocity":0.8031496062992126,"duration":0.46630859375},{"name":"B4","midi":71,"time":56.953125,"velocity":0.8031496062992126,"duration":0.23193359375},{"name":"C5","midi":72,"time":57.1875,"velocity":0.8031496062992126,"duration":0.23193359375},{"name":"D#3","midi":51,"time":57.1875,"velocity":0.8031496062992126,"duration":0.23193359375},{"name":"D#5","midi":75,"time":57.421875,"velocity":0.8031496062992126,"duration":0.4638671875},{"name":"F3","midi":53,"time":57.421875,"velocity":0.8031496062992126,"duration":0.23193359375},{"name":"F4","midi":65,"time":57.65625,"velocity":0.8031496062992126,"duration":1.171875},{"name":"G3","midi":55,"time":57.65625,"velocity":0.8031496062992126,"duration":0.46630859375},{"name":"D5","midi":74,"time":57.890625,"velocity":0.8031496062992126,"duration":0.23193359375},{"name":"C5","midi":72,"time":58.125,"velocity":0.8031496062992126,"duration":0.23193359375},{"name":"G2","midi":43,"time":58.125,"velocity":0.8031496062992126,"duration":0.46630859375},{"name":"B4","midi":71,"time":58.359375,"velocity":0.8031496062992126,"duration":0.23193359375},{"name":"C5","midi":72,"time":58.59375,"velocity":0.8031496062992126,"duration":1.87255859375},{"name":"C3","midi":48,"time":58.59375,"velocity":0.8031496062992126,"duration":1.16943359375},{"name":"D4","midi":62,"time":58.828125,"velocity":0.8031496062992126,"duration":0.23193359375},{"name":"D#4","midi":63,"time":59.0625,"velocity":0.8031496062992126,"duration":1.40380859375},{"name":"G4","midi":67,"time":59.296875,"velocity":0.8031496062992126,"duration":1.171875},{"name":"C4","midi":60,"time":59.53125,"velocity":0.8031496062992126,"duration":0.927734375},{"name":"G3","midi":55,"time":59.765625,"velocity":0.8031496062992126,"duration":0.23193359375},{"name":"D#3","midi":51,"time":60,"velocity":0.8031496062992126,"duration":0.23193359375},{"name":"C3","midi":48,"time":60.234375,"velocity":0.8031496062992126,"duration":0.23193359375},{"name":"G2","midi":43,"time":60.46875,"velocity":0.8031496062992126,"duration":0.46630859375},{"name":"D4","midi":62,"time":60.703125,"velocity":0.8031496062992126,"duration":0.23193359375},{"name":"D#4","midi":63,"time":60.9375,"velocity":0.8031496062992126,"duration":0.23193359375},{"name":"F2","midi":41,"time":60.9375,"velocity":0.8031496062992126,"duration":0.46630859375},{"name":"G4","midi":67,"time":61.171875,"velocity":0.8031496062992126,"duration":0.23193359375},{"name":"A#4","midi":70,"time":61.40625,"velocity":0.8031496062992126,"duration":0.4638671875},{"name":"G2","midi":43,"time":61.40625,"velocity":0.8031496062992126,"duration":0.46630859375},{"name":"F4","midi":65,"time":61.640625,"velocity":0.8031496062992126,"duration":0.23193359375},{"name":"G4","midi":67,"time":61.875,"velocity":0.8031496062992126,"duration":0.23193359375},{"name":"D#2","midi":39,"time":61.875,"velocity":0.8031496062992126,"duration":0.46630859375},{"name":"A#4","midi":70,"time":62.109375,"velocity":0.8031496062992126,"duration":0.23193359375},{"name":"C#5","midi":73,"time":62.34375,"velocity":0.8031496062992126,"duration":0.68359375},{"name":"G#2","midi":44,"time":62.34375,"velocity":0.8031496062992126,"duration":1.123046875},{"name":"G4","midi":67,"time":62.578125,"velocity":0.8031496062992126,"duration":0.23193359375},{"name":"G#4","midi":68,"time":62.8125,"velocity":0.8031496062992126,"duration":1.171875},{"name":"C5","midi":72,"time":63.046875,"velocity":0.8031496062992126,"duration":1.40380859375},{"name":"D#4","midi":63,"time":63.28125,"velocity":0.8031496062992126,"duration":0.68359375},{"name":"G#2","midi":44,"time":63.515625,"velocity":0.8031496062992126,"duration":0.23193359375},{"name":"G2","midi":43,"time":63.75,"velocity":0.8031496062992126,"duration":0.23193359375},{"name":"F2","midi":41,"time":63.984375,"velocity":0.8031496062992126,"duration":0.23193359375},{"name":"E2","midi":40,"time":64.21875,"velocity":0.8031496062992126,"duration":0.46630859375},{"name":"B4","midi":71,"time":64.453125,"velocity":0.8031496062992126,"duration":0.23193359375},{"name":"C5","midi":72,"time":64.6875,"velocity":0.8031496062992126,"duration":0.23193359375},{"name":"D2","midi":38,"time":64.6875,"velocity":0.8031496062992126,"duration":0.46630859375},{"name":"E5","midi":76,"time":64.921875,"velocity":0.8031496062992126,"duration":0.23193359375},{"name":"G5","midi":79,"time":65.15625,"velocity":0.8031496062992126,"duration":0.341796875},{"name":"E2","midi":40,"time":65.15625,"velocity":0.8031496062992126,"duration":0.46630859375},{"name":"A#4","midi":70,"time":65.390625,"velocity":0.8031496062992126,"duration":0.23193359375},{"name":"C5","midi":72,"time":65.625,"velocity":0.8031496062992126,"duration":0.29296875},{"name":"C2","midi":36,"time":65.625,"velocity":0.8031496062992126,"duration":0.46630859375},{"name":"G4","midi":67,"time":65.859375,"velocity":0.8031496062992126,"duration":0.23193359375},{"name":"G#4","midi":68,"time":66.09375,"velocity":0.8031496062992126,"duration":0.68359375},{"name":"F2","midi":41,"time":66.09375,"velocity":0.8031496062992126,"duration":1.16943359375},{"name":"E4","midi":64,"time":66.328125,"velocity":0.8031496062992126,"duration":0.23193359375},{"name":"F4","midi":65,"time":66.5625,"velocity":0.8031496062992126,"duration":1.171875},{"name":"G#4","midi":68,"time":66.796875,"velocity":0.8031496062992126,"duration":1.40380859375},{"name":"C4","midi":60,"time":67.03125,"velocity":0.8031496062992126,"duration":0.68359375},{"name":"G2","midi":43,"time":67.265625,"velocity":0.8031496062992126,"duration":0.23193359375},{"name":"F2","midi":41,"time":67.5,"velocity":0.8031496062992126,"duration":0.23193359375},{"name":"D#2","midi":39,"time":67.734375,"velocity":0.8031496062992126,"duration":0.23193359375},{"name":"D2","midi":38,"time":67.96875,"velocity":0.8031496062992126,"duration":0.46630859375},{"name":"A#3","midi":58,"time":68.203125,"velocity":0.8031496062992126,"duration":0.23193359375},{"name":"F4","midi":65,"time":68.4375,"velocity":0.8031496062992126,"duration":0.23193359375},{"name":"A#2","midi":46,"time":68.4375,"velocity":0.8031496062992126,"duration":0.46630859375},{"name":"G#4","midi":68,"time":68.671875,"velocity":0.8031496062992126,"duration":0.23193359375},{"name":"G4","midi":67,"time":68.90625,"velocity":0.8031496062992126,"duration":0.927734375},{"name":"D#3","midi":51,"time":68.90625,"velocity":0.8031496062992126,"duration":0.46630859375},{"name":"D4","midi":62,"time":69.140625,"velocity":0.8031496062992126,"duration":0.23193359375},{"name":"D#4","midi":63,"time":69.375,"velocity":0.8031496062992126,"duration":0.23193359375},{"name":"C#2","midi":37,"time":69.375,"velocity":0.8031496062992126,"duration":0.46630859375},{"name":"A#3","midi":58,"time":69.609375,"velocity":0.8031496062992126,"duration":0.23193359375},{"name":"G#3","midi":56,"time":69.84375,"velocity":0.8031496062992126,"duration":0.23193359375},{"name":"C2","midi":36,"time":69.84375,"velocity":0.8031496062992126,"duration":0.46630859375},{"name":"C4","midi":60,"time":70.078125,"velocity":0.8031496062992126,"duration":0.23193359375},{"name":"D#4","midi":63,"time":70.3125,"velocity":0.8031496062992126,"duration":0.23193359375},{"name":"C3","midi":48,"time":70.3125,"velocity":0.8031496062992126,"duration":0.46630859375},{"name":"G4","midi":67,"time":70.546875,"velocity":0.8031496062992126,"duration":0.23193359375},{"name":"F4","midi":65,"time":70.78125,"velocity":0.8031496062992126,"duration":0.4638671875},{"name":"D3","midi":50,"time":70.78125,"velocity":0.8031496062992126,"duration":0.46630859375},{"name":"D5","midi":74,"time":71.015625,"velocity":0.8031496062992126,"duration":0.23193359375},{"name":"G#2","midi":44,"time":71.25,"velocity":0.8031496062992126,"duration":0.478515625},{"name":"D4","midi":62,"time":71.25,"velocity":0.8031496062992126,"duration":0.23681640625},{"name":"C4","midi":60,"time":71.4892578125,"velocity":0.8031496062992126,"duration":0.23681640625},{"name":"G2","midi":43,"time":71.73095703125,"velocity":0.8031496062992126,"duration":0.478515625},{"name":"A#3","midi":58,"time":71.73095703125,"velocity":0.8031496062992126,"duration":0.47607421875},{"name":"D4","midi":62,"time":71.97265625,"velocity":0.8031496062992126,"duration":0.23681640625},{"name":"D#4","midi":63,"time":72.21435546875,"velocity":0.8031496062992126,"duration":0.24169921875},{"name":"C3","midi":48,"time":72.21435546875,"velocity":0.8031496062992126,"duration":0.49072265625},{"name":"G4","midi":67,"time":72.4609375,"velocity":0.8031496062992126,"duration":0.24169921875},{"name":"C4","midi":60,"time":72.7099609375,"velocity":0.8031496062992126,"duration":0.48828125},{"name":"G#2","midi":44,"time":72.7099609375,"velocity":0.8031496062992126,"duration":0.49072265625},{"name":"F4","midi":65,"time":72.958984375,"velocity":0.8031496062992126,"duration":0.48828125},{"name":"A#2","midi":46,"time":73.2080078125,"velocity":0.8031496062992126,"duration":0.50537109375},{"name":"G#3","midi":56,"time":73.2080078125,"velocity":0.8031496062992126,"duration":0.5029296875},{"name":"D4","midi":62,"time":73.4619140625,"velocity":0.8031496062992126,"duration":0.24658203125},{"name":"D#2","midi":39,"time":73.71826171875,"velocity":0.8031496062992126,"duration":2.04345703125},{"name":"D#4","midi":63,"time":73.71826171875,"velocity":0.8031496062992126,"duration":2.65625},{"name":"F3","midi":53,"time":73.974609375,"velocity":0.8031496062992126,"duration":0.24658203125},{"name":"G3","midi":55,"time":74.23095703125,"velocity":0.8031496062992126,"duration":1.62109375},{"name":"A#3","midi":58,"time":74.4970703125,"velocity":0.8031496062992126,"duration":1.3525390625},{"name":"D#3","midi":51,"time":74.8193359375,"velocity":0.8031496062992126,"duration":1.48193359375},{"name":"A#3","midi":58,"time":78.75,"velocity":0.8031496062992126,"duration":0.2392578125},{"name":"A#3","midi":58,"time":79.0625,"velocity":0.8031496062992126,"duration":0.830078125},{"name":"D#3","midi":51,"time":79.0625,"velocity":0.8031496062992126,"duration":1.66015625},{"name":"F3","midi":53,"time":79.4775390625,"velocity":0.8031496062992126,"duration":0.205078125},{"name":"G3","midi":55,"time":79.6875,"velocity":0.8031496062992126,"duration":0.4150390625},{"name":"C4","midi":60,"time":79.89501953125,"velocity":0.8031496062992126,"duration":0.205078125},{"name":"D4","midi":62,"time":80.1025390625,"velocity":0.8031496062992126,"duration":0.1708984375},{"name":"F3","midi":53,"time":80.1025390625,"velocity":0.8031496062992126,"duration":0.205078125},{"name":"D#4","midi":63,"time":80.3125,"velocity":0.8031496062992126,"duration":0.205078125},{"name":"G3","midi":55,"time":80.3125,"velocity":0.8031496062992126,"duration":0.4150390625},{"name":"F4","midi":65,"time":80.52001953125,"velocity":0.8031496062992126,"duration":0.205078125},{"name":"G4","midi":67,"time":80.7275390625,"velocity":0.8031496062992126,"duration":0.1708984375},{"name":"A#3","midi":58,"time":80.7275390625,"velocity":0.8031496062992126,"duration":0.205078125},{"name":"G4","midi":67,"time":80.9375,"velocity":0.8031496062992126,"duration":0.205078125},{"name":"G#3","midi":56,"time":80.9375,"velocity":0.8031496062992126,"duration":0.4150390625},{"name":"D#4","midi":63,"time":81.14501953125,"velocity":0.8031496062992126,"duration":0.205078125},{"name":"F4","midi":65,"time":81.3525390625,"velocity":0.8031496062992126,"duration":0.1708984375},{"name":"D#3","midi":51,"time":81.3525390625,"velocity":0.8031496062992126,"duration":0.205078125},{"name":"D5","midi":74,"time":81.5625,"velocity":0.8031496062992126,"duration":0.78125},{"name":"F3","midi":53,"time":81.5625,"velocity":0.8031496062992126,"duration":0.4150390625},{"name":"D#3","midi":51,"time":81.9775390625,"velocity":0.8031496062992126,"duration":0.205078125},{"name":"F3","midi":53,"time":82.1875,"velocity":0.8031496062992126,"duration":0.4150390625},{"name":"D#5","midi":75,"time":82.39501953125,"velocity":0.8031496062992126,"duration":0.205078125},{"name":"F5","midi":77,"time":82.6025390625,"velocity":0.8031496062992126,"duration":0.1708984375},{"name":"G#3","midi":56,"time":82.6025390625,"velocity":0.8031496062992126,"duration":0.205078125},{"name":"D#5","midi":75,"time":82.8125,"velocity":0.8031496062992126,"duration":0.205078125},{"name":"G3","midi":55,"time":82.8125,"velocity":0.8031496062992126,"duration":0.4150390625},{"name":"D5","midi":74,"time":83.02001953125,"velocity":0.8031496062992126,"duration":0.205078125},{"name":"C5","midi":72,"time":83.2275390625,"velocity":0.8031496062992126,"duration":0.1708984375},{"name":"A#3","midi":58,"time":83.2275390625,"velocity":0.8031496062992126,"duration":0.205078125},{"name":"A#4","midi":70,"time":83.4375,"velocity":0.8031496062992126,"duration":0.205078125},{"name":"D#4","midi":63,"time":83.4375,"velocity":0.8031496062992126,"duration":0.4150390625},{"name":"G#4","midi":68,"time":83.64501953125,"velocity":0.8031496062992126,"duration":0.21484375},{"name":"G4","midi":67,"time":83.8525390625,"velocity":0.8031496062992126,"duration":0.1708984375},{"name":"G#3","midi":56,"time":83.8525390625,"velocity":0.8031496062992126,"duration":0.205078125},{"name":"F4","midi":65,"time":84.0625,"velocity":0.8031496062992126,"duration":0.205078125},{"name":"A#3","midi":58,"time":84.0625,"velocity":0.8031496062992126,"duration":0.4150390625},{"name":"G4","midi":67,"time":84.27001953125,"velocity":0.8031496062992126,"duration":0.2197265625},{"name":"G#4","midi":68,"time":84.4775390625,"velocity":0.8031496062992126,"duration":0.1708984375},{"name":"A#2","midi":46,"time":84.4775390625,"velocity":0.8031496062992126,"duration":0.205078125},{"name":"G#4","midi":68,"time":84.6875,"velocity":0.8031496062992126,"duration":0.205078125},{"name":"D#3","midi":51,"time":84.6875,"velocity":0.8031496062992126,"duration":0.4150390625},{"name":"F4","midi":65,"time":84.89501953125,"velocity":0.8031496062992126,"duration":0.205078125},{"name":"G4","midi":67,"time":85.1025390625,"velocity":0.8031496062992126,"duration":0.1708984375},{"name":"A#2","midi":46,"time":85.1025390625,"velocity":0.8031496062992126,"duration":0.205078125},{"name":"D#4","midi":63,"time":85.3125,"velocity":0.8031496062992126,"duration":0.205078125},{"name":"G2","midi":43,"time":85.3125,"velocity":0.8031496062992126,"duration":0.4150390625},{"name":"G4","midi":67,"time":85.52001953125,"velocity":0.8031496062992126,"duration":0.205078125},{"name":"A#4","midi":70,"time":85.7275390625,"velocity":0.8031496062992126,"duration":0.1708984375},{"name":"D#2","midi":39,"time":85.7275390625,"velocity":0.8031496062992126,"duration":0.205078125},{"name":"D#5","midi":75,"time":85.9375,"velocity":0.8031496062992126,"duration":0.205078125},{"name":"G2","midi":43,"time":85.9375,"velocity":0.8031496062992126,"duration":0.4150390625},{"name":"G5","midi":79,"time":86.14501953125,"velocity":0.8031496062992126,"duration":0.205078125},{"name":"F5","midi":77,"time":86.3525390625,"velocity":0.8031496062992126,"duration":0.1708984375},{"name":"A#2","midi":46,"time":86.3525390625,"velocity":0.8031496062992126,"duration":0.205078125},{"name":"G5","midi":79,"time":86.5625,"velocity":0.8031496062992126,"duration":0.830078125},{"name":"D#3","midi":51,"time":86.5625,"velocity":0.8031496062992126,"duration":0.205078125},{"name":"D3","midi":50,"time":86.77001953125,"velocity":0.8031496062992126,"duration":0.205078125},{"name":"C3","midi":48,"time":86.9775390625,"velocity":0.8031496062992126,"duration":0.205078125},{"name":"B2","midi":47,"time":87.1875,"velocity":0.8031496062992126,"duration":0.4150390625},{"name":"G#5","midi":80,"time":87.39501953125,"velocity":0.8031496062992126,"duration":0.205078125},{"name":"G5","midi":79,"time":87.6025390625,"velocity":0.8031496062992126,"duration":0.1708984375},{"name":"D3","midi":50,"time":87.6025390625,"velocity":0.8031496062992126,"duration":0.205078125},{"name":"F5","midi":77,"time":87.8125,"velocity":0.8031496062992126,"duration":0.205078125},{"name":"G2","midi":43,"time":87.8125,"velocity":0.8031496062992126,"duration":0.4150390625},{"name":"D#5","midi":75,"time":88.02001953125,"velocity":0.8031496062992126,"duration":0.205078125},{"name":"D5","midi":74,"time":88.2275390625,"velocity":0.8031496062992126,"duration":0.1708984375},{"name":"B2","midi":47,"time":88.2275390625,"velocity":0.8031496062992126,"duration":0.205078125},{"name":"D#5","midi":75,"time":88.4375,"velocity":0.8031496062992126,"duration":0.205078125},{"name":"C3","midi":48,"time":88.4375,"velocity":0.8031496062992126,"duration":0.4150390625},{"name":"C5","midi":72,"time":88.64501953125,"velocity":0.8031496062992126,"duration":0.205078125},{"name":"D5","midi":74,"time":88.8525390625,"velocity":0.8031496062992126,"duration":0.1708984375},{"name":"G2","midi":43,"time":88.8525390625,"velocity":0.8031496062992126,"duration":0.205078125},{"name":"D#5","midi":75,"time":89.0625,"velocity":0.8031496062992126,"duration":0.205078125},{"name":"C2","midi":36,"time":89.0625,"velocity":0.8031496062992126,"duration":0.4150390625},{"name":"F5","midi":77,"time":89.27001953125,"velocity":0.8031496062992126,"duration":0.205078125},{"name":"G5","midi":79,"time":89.4775390625,"velocity":0.8031496062992126,"duration":0.1708984375},{"name":"C3","midi":48,"time":89.4775390625,"velocity":0.8031496062992126,"duration":0.205078125},{"name":"A#4","midi":70,"time":89.6875,"velocity":0.8031496062992126,"duration":0.205078125},{"name":"D3","midi":50,"time":89.6875,"velocity":0.8031496062992126,"duration":0.4150390625},{"name":"G4","midi":67,"time":89.89501953125,"velocity":0.8031496062992126,"duration":0.205078125},{"name":"A4","midi":69,"time":90.1025390625,"velocity":0.8031496062992126,"duration":0.1708984375},{"name":"D#3","midi":51,"time":90.1025390625,"velocity":0.8031496062992126,"duration":0.205078125},{"name":"F5","midi":77,"time":90.3125,"velocity":0.8031496062992126,"duration":0.830078125},{"name":"D3","midi":50,"time":90.3125,"velocity":0.8031496062992126,"duration":0.205078125},{"name":"C3","midi":48,"time":90.52001953125,"velocity":0.8031496062992126,"duration":0.205078125},{"name":"A#2","midi":46,"time":90.7275390625,"velocity":0.8031496062992126,"duration":0.205078125},{"name":"A2","midi":45,"time":90.9375,"velocity":0.8031496062992126,"duration":0.4150390625},{"name":"G5","midi":79,"time":91.14501953125,"velocity":0.8031496062992126,"duration":0.205078125},{"name":"F5","midi":77,"time":91.3525390625,"velocity":0.8031496062992126,"duration":0.1708984375},{"name":"C3","midi":48,"time":91.3525390625,"velocity":0.8031496062992126,"duration":0.205078125},{"name":"D#5","midi":75,"time":91.5625,"velocity":0.8031496062992126,"duration":0.205078125},{"name":"F2","midi":41,"time":91.5625,"velocity":0.8031496062992126,"duration":0.4150390625},{"name":"D5","midi":74,"time":91.77001953125,"velocity":0.8031496062992126,"duration":0.205078125},{"name":"C5","midi":72,"time":91.9775390625,"velocity":0.8031496062992126,"duration":0.1708984375},{"name":"A2","midi":45,"time":91.9775390625,"velocity":0.8031496062992126,"duration":0.205078125},{"name":"D5","midi":74,"time":92.1875,"velocity":0.8031496062992126,"duration":0.205078125},{"name":"A#2","midi":46,"time":92.1875,"velocity":0.8031496062992126,"duration":0.927734375},{"name":"A#4","midi":70,"time":92.39501953125,"velocity":0.8031496062992126,"duration":0.205078125},{"name":"C5","midi":72,"time":92.6025390625,"velocity":0.8031496062992126,"duration":0.1708984375},{"name":"D5","midi":74,"time":92.8125,"velocity":0.8031496062992126,"duration":0.205078125},{"name":"D#5","midi":75,"time":93.02001953125,"velocity":0.8031496062992126,"duration":0.205078125},{"name":"F5","midi":77,"time":93.2275390625,"velocity":0.8031496062992126,"duration":0.1708984375},{"name":"D3","midi":50,"time":93.2275390625,"velocity":0.8031496062992126,"duration":0.205078125},{"name":"G#4","midi":68,"time":93.4375,"velocity":0.8031496062992126,"duration":0.205078125},{"name":"F3","midi":53,"time":93.4375,"velocity":0.8031496062992126,"duration":0.4150390625},{"name":"F4","midi":65,"time":93.64501953125,"velocity":0.8031496062992126,"duration":0.205078125},{"name":"G4","midi":67,"time":93.8525390625,"velocity":0.8031496062992126,"duration":0.1708984375},{"name":"A#3","midi":58,"time":93.8525390625,"velocity":0.8031496062992126,"duration":0.205078125},{"name":"G4","midi":67,"time":94.0625,"velocity":0.8031496062992126,"duration":0.205078125},{"name":"D#3","midi":51,"time":94.0625,"velocity":0.8031496062992126,"duration":0.927734375},{"name":"A#4","midi":70,"time":94.27001953125,"velocity":0.8031496062992126,"duration":0.205078125},{"name":"A4","midi":69,"time":94.4775390625,"velocity":0.8031496062992126,"duration":0.1708984375},{"name":"A#4","midi":70,"time":94.6875,"velocity":0.8031496062992126,"duration":0.205078125},{"name":"C5","midi":72,"time":94.89501953125,"velocity":0.8031496062992126,"duration":0.205078125},{"name":"D5","midi":74,"time":95.1025390625,"velocity":0.8031496062992126,"duration":0.1708984375},{"name":"F3","midi":53,"time":95.1025390625,"velocity":0.8031496062992126,"duration":0.205078125},{"name":"C5","midi":72,"time":95.3125,"velocity":0.8031496062992126,"duration":0.205078125},{"name":"D#3","midi":51,"time":95.3125,"velocity":0.8031496062992126,"duration":0.4150390625},{"name":"A4","midi":69,"time":95.52001953125,"velocity":0.8031496062992126,"duration":0.205078125},{"name":"A#4","midi":70,"time":95.7275390625,"velocity":0.8031496062992126,"duration":0.1708984375},{"name":"D3","midi":50,"time":95.7275390625,"velocity":0.8031496062992126,"duration":0.205078125},{"name":"D#5","midi":75,"time":95.9375,"velocity":0.8031496062992126,"duration":0.205078125},{"name":"C3","midi":48,"time":95.9375,"velocity":0.8031496062992126,"duration":0.927734375},{"name":"C5","midi":72,"time":96.14501953125,"velocity":0.8031496062992126,"duration":0.205078125},{"name":"D5","midi":74,"time":96.3525390625,"velocity":0.8031496062992126,"duration":0.1708984375},{"name":"D#5","midi":75,"time":96.5625,"velocity":0.8031496062992126,"duration":0.205078125},{"name":"F5","midi":77,"time":96.77001953125,"velocity":0.8031496062992126,"duration":0.205078125},{"name":"G5","midi":79,"time":96.9775390625,"velocity":0.8031496062992126,"duration":0.1708984375},{"name":"A#2","midi":46,"time":96.9775390625,"velocity":0.8031496062992126,"duration":0.205078125},{"name":"F5","midi":77,"time":97.1875,"velocity":0.8031496062992126,"duration":0.205078125},{"name":"A2","midi":45,"time":97.1875,"velocity":0.8031496062992126,"duration":0.4150390625},{"name":"D5","midi":74,"time":97.39501953125,"velocity":0.8031496062992126,"duration":0.205078125},{"name":"D#5","midi":75,"time":97.6025390625,"velocity":0.8031496062992126,"duration":0.1708984375},{"name":"G2","midi":43,"time":97.6025390625,"velocity":0.8031496062992126,"duration":0.205078125},{"name":"A5","midi":81,"time":97.8125,"velocity":0.8031496062992126,"duration":0.205078125},{"name":"F2","midi":41,"time":97.8125,"velocity":0.8031496062992126,"duration":0.4150390625},{"name":"F5","midi":77,"time":98.02001953125,"velocity":0.8031496062992126,"duration":0.205078125},{"name":"G5","midi":79,"time":98.2275390625,"velocity":0.8031496062992126,"duration":0.1708984375},{"name":"C3","midi":48,"time":98.2275390625,"velocity":0.8031496062992126,"duration":0.205078125},{"name":"A5","midi":81,"time":98.4375,"velocity":0.8031496062992126,"duration":0.205078125},{"name":"F3","midi":53,"time":98.4375,"velocity":0.8031496062992126,"duration":0.4150390625},{"name":"A#5","midi":82,"time":98.64501953125,"velocity":0.8031496062992126,"duration":0.205078125},{"name":"C6","midi":84,"time":98.8525390625,"velocity":0.8031496062992126,"duration":0.1708984375},{"name":"G3","midi":55,"time":98.8525390625,"velocity":0.8031496062992126,"duration":0.205078125},{"name":"D#5","midi":75,"time":99.0625,"velocity":0.8031496062992126,"duration":0.205078125},{"name":"A3","midi":57,"time":99.0625,"velocity":0.8031496062992126,"duration":0.4150390625},{"name":"C5","midi":72,"time":99.27001953125,"velocity":0.8031496062992126,"duration":0.205078125},{"name":"D5","midi":74,"time":99.4775390625,"velocity":0.8031496062992126,"duration":0.1708984375},{"name":"F3","midi":53,"time":99.4775390625,"velocity":0.8031496062992126,"duration":0.205078125},{"name":"D5","midi":74,"time":99.6875,"velocity":0.8031496062992126,"duration":0.205078125},{"name":"A#3","midi":58,"time":99.6875,"velocity":0.8031496062992126,"duration":0.4150390625},{"name":"A4","midi":69,"time":99.89501953125,"velocity":0.8031496062992126,"duration":0.205078125},{"name":"A#4","midi":70,"time":100.1025390625,"velocity":0.8031496062992126,"duration":0.1708984375},{"name":"G3","midi":55,"time":100.1025390625,"velocity":0.8031496062992126,"duration":0.205078125},{"name":"A#4","midi":70,"time":100.3125,"velocity":0.8031496062992126,"duration":0.205078125},{"name":"D#3","midi":51,"time":100.3125,"velocity":0.8031496062992126,"duration":0.4150390625},{"name":"G4","midi":67,"time":100.52001953125,"velocity":0.8031496062992126,"duration":0.205078125},{"name":"A4","midi":69,"time":100.7275390625,"velocity":0.8031496062992126,"duration":0.1708984375},{"name":"C3","midi":48,"time":100.7275390625,"velocity":0.8031496062992126,"duration":0.205078125},{"name":"A#4","midi":70,"time":100.9375,"velocity":0.8031496062992126,"duration":0.07568359375},{"name":"F3","midi":53,"time":100.9375,"velocity":0.8031496062992126,"duration":0.4150390625},{"name":"A4","midi":69,"time":101.015625,"velocity":0.8031496062992126,"duration":0.07568359375},{"name":"A#4","midi":70,"time":101.09375,"velocity":0.8031496062992126,"duration":0.07568359375},{"name":"A4","midi":69,"time":101.171875,"velocity":0.8031496062992126,"duration":0.185546875},{"name":"A#4","midi":70,"time":101.3525390625,"velocity":0.8031496062992126,"duration":0.205078125},{"name":"F2","midi":41,"time":101.3525390625,"velocity":0.8031496062992126,"duration":0.205078125},{"name":"A#4","midi":70,"time":101.5625,"velocity":0.8031496062992126,"duration":0.830078125},{"name":"A#2","midi":46,"time":101.5625,"velocity":0.8031496062992126,"duration":0.205078125},{"name":"D3","midi":50,"time":101.77001953125,"velocity":0.8031496062992126,"duration":0.205078125},{"name":"F3","midi":53,"time":101.9775390625,"velocity":0.8031496062992126,"duration":0.205078125},{"name":"A#3","midi":58,"time":102.1875,"velocity":0.8031496062992126,"duration":0.4150390625},{"name":"D4","midi":62,"time":102.39501953125,"velocity":0.8031496062992126,"duration":0.205078125},{"name":"D#4","midi":63,"time":102.6025390625,"velocity":0.8031496062992126,"duration":0.1708984375},{"name":"C3","midi":48,"time":102.6025390625,"velocity":0.8031496062992126,"duration":0.205078125},{"name":"F4","midi":65,"time":102.8125,"velocity":0.8031496062992126,"duration":0.205078125},{"name":"D3","midi":50,"time":102.8125,"velocity":0.8031496062992126,"duration":0.4150390625},{"name":"G4","midi":67,"time":103.02001953125,"velocity":0.8031496062992126,"duration":0.205078125},{"name":"G#4","midi":68,"time":103.2275390625,"velocity":0.8031496062992126,"duration":0.1708984375},{"name":"A#2","midi":46,"time":103.2275390625,"velocity":0.8031496062992126,"duration":0.205078125},{"name":"G4","midi":67,"time":103.4375,"velocity":0.8031496062992126,"duration":0.830078125},{"name":"D#3","midi":51,"time":103.4375,"velocity":0.8031496062992126,"duration":0.4150390625},{"name":"D4","midi":62,"time":103.64501953125,"velocity":0.8031496062992126,"duration":0.205078125},{"name":"D#4","midi":63,"time":103.8525390625,"velocity":0.8031496062992126,"duration":0.1708984375},{"name":"C3","midi":48,"time":103.8525390625,"velocity":0.8031496062992126,"duration":0.205078125},{"name":"C4","midi":60,"time":104.0625,"velocity":0.8031496062992126,"duration":0.205078125},{"name":"F3","midi":53,"time":104.0625,"velocity":0.8031496062992126,"duration":0.4150390625},{"name":"A#4","midi":70,"time":104.27001953125,"velocity":0.8031496062992126,"duration":0.205078125},{"name":"A4","midi":69,"time":104.4775390625,"velocity":0.8031496062992126,"duration":0.1708984375},{"name":"D3","midi":50,"time":104.4775390625,"velocity":0.8031496062992126,"duration":0.205078125},{"name":"A#4","midi":70,"time":104.6875,"velocity":0.8031496062992126,"duration":0.830078125},{"name":"G3","midi":55,"time":104.6875,"velocity":0.8031496062992126,"duration":0.4150390625},{"name":"F4","midi":65,"time":104.89501953125,"velocity":0.8031496062992126,"duration":0.205078125},{"name":"G4","midi":67,"time":105.1025390625,"velocity":0.8031496062992126,"duration":0.1708984375},{"name":"D#3","midi":51,"time":105.1025390625,"velocity":0.8031496062992126,"duration":0.205078125},{"name":"D#4","midi":63,"time":105.3125,"velocity":0.8031496062992126,"duration":0.205078125},{"name":"A3","midi":57,"time":105.3125,"velocity":0.8031496062992126,"duration":0.4150390625},{"name":"D5","midi":74,"time":105.52001953125,"velocity":0.8031496062992126,"duration":0.205078125},{"name":"C5","midi":72,"time":105.7275390625,"velocity":0.8031496062992126,"duration":0.1708984375},{"name":"F3","midi":53,"time":105.7275390625,"velocity":0.8031496062992126,"duration":0.205078125},{"name":"D5","midi":74,"time":105.9375,"velocity":0.8031496062992126,"duration":0.205078125},{"name":"A#3","midi":58,"time":105.9375,"velocity":0.8031496062992126,"duration":0.4150390625},{"name":"D#5","midi":75,"time":106.14501953125,"velocity":0.8031496062992126,"duration":0.205078125},{"name":"F5","midi":77,"time":106.3525390625,"velocity":0.8031496062992126,"duration":0.1708984375},{"name":"D#3","midi":51,"time":106.3525390625,"velocity":0.8031496062992126,"duration":0.205078125},{"name":"F4","midi":65,"time":106.5625,"velocity":0.8031496062992126,"duration":0.205078125},{"name":"F3","midi":53,"time":106.5625,"velocity":0.8031496062992126,"duration":0.4150390625},{"name":"A#4","midi":70,"time":106.77001953125,"velocity":0.8031496062992126,"duration":0.205078125},{"name":"A4","midi":69,"time":106.9775390625,"velocity":0.8031496062992126,"duration":0.1708984375},{"name":"F2","midi":41,"time":106.9775390625,"velocity":0.8031496062992126,"duration":0.205078125},{"name":"A#4","midi":70,"time":107.1875,"velocity":0.8031496062992126,"duration":0.62255859375},{"name":"A#2","midi":46,"time":107.1875,"velocity":0.8031496062992126,"duration":0.830078125},{"name":"F4","midi":65,"time":107.39501953125,"velocity":0.8031496062992126,"duration":0.205078125},{"name":"D4","midi":62,"time":107.6025390625,"velocity":0.8031496062992126,"duration":0.1708984375},{"name":"A#3","midi":58,"time":107.8125,"velocity":0.8031496062992126,"duration":1.0400390625},{"name":"F3","midi":53,"time":108.02001953125,"velocity":0.8031496062992126,"duration":0.205078125},{"name":"D3","midi":50,"time":108.2275390625,"velocity":0.8031496062992126,"duration":0.205078125},{"name":"A#2","midi":46,"time":108.4375,"velocity":0.8031496062992126,"duration":0.62255859375},{"name":"D5","midi":74,"time":108.8525390625,"velocity":0.8031496062992126,"duration":0.205078125},{"name":"D5","midi":74,"time":109.0625,"velocity":0.8031496062992126,"duration":0.830078125},{"name":"A#2","midi":46,"time":109.0625,"velocity":0.8031496062992126,"duration":0.205078125},{"name":"D3","midi":50,"time":109.27001953125,"velocity":0.8031496062992126,"duration":0.205078125},{"name":"F3","midi":53,"time":109.4775390625,"velocity":0.8031496062992126,"duration":0.205078125},{"name":"A#3","midi":58,"time":109.6875,"velocity":0.8031496062992126,"duration":0.205078125},{"name":"F5","midi":77,"time":109.89501953125,"velocity":0.8031496062992126,"duration":0.205078125},{"name":"D4","midi":62,"time":109.89501953125,"velocity":0.8031496062992126,"duration":0.205078125},{"name":"D#5","midi":75,"time":110.1025390625,"velocity":0.8031496062992126,"duration":0.1708984375},{"name":"F4","midi":65,"time":110.1025390625,"velocity":0.8031496062992126,"duration":0.205078125},{"name":"D5","midi":74,"time":110.3125,"velocity":0.8031496062992126,"duration":0.205078125},{"name":"A#4","midi":70,"time":110.3125,"velocity":0.8031496062992126,"duration":0.205078125},{"name":"C5","midi":72,"time":110.52001953125,"velocity":0.8031496062992126,"duration":0.205078125},{"name":"G#4","midi":68,"time":110.52001953125,"velocity":0.8031496062992126,"duration":0.205078125},{"name":"A#4","midi":70,"time":110.7275390625,"velocity":0.8031496062992126,"duration":0.1708984375},{"name":"G4","midi":67,"time":110.7275390625,"velocity":0.8031496062992126,"duration":0.205078125},{"name":"G#5","midi":80,"time":110.9375,"velocity":0.8031496062992126,"duration":0.205078125},{"name":"F4","midi":65,"time":110.9375,"velocity":0.8031496062992126,"duration":0.830078125},{"name":"F5","midi":77,"time":111.14501953125,"velocity":0.8031496062992126,"duration":0.205078125},{"name":"G5","midi":79,"time":111.3525390625,"velocity":0.8031496062992126,"duration":0.1708984375},{"name":"B4","midi":71,"time":111.5625,"velocity":0.8031496062992126,"duration":0.830078125},{"name":"G4","midi":67,"time":111.77001953125,"velocity":0.8031496062992126,"duration":0.205078125},{"name":"G#4","midi":68,"time":111.9775390625,"velocity":0.8031496062992126,"duration":0.1708984375},{"name":"G4","midi":67,"time":112.1875,"velocity":0.8031496062992126,"duration":0.4150390625},{"name":"C5","midi":72,"time":112.39501953125,"velocity":0.8031496062992126,"duration":0.205078125},{"name":"D5","midi":74,"time":112.6025390625,"velocity":0.8031496062992126,"duration":0.1708984375},{"name":"F4","midi":65,"time":112.6025390625,"velocity":0.8031496062992126,"duration":0.205078125},{"name":"C5","midi":72,"time":112.8125,"velocity":0.8031496062992126,"duration":0.205078125},{"name":"D#4","midi":63,"time":112.8125,"velocity":0.8031496062992126,"duration":0.4150390625},{"name":"A#4","midi":70,"time":113.02001953125,"velocity":0.8031496062992126,"duration":0.205078125},{"name":"G#4","midi":68,"time":113.2275390625,"velocity":0.8031496062992126,"duration":0.1708984375},{"name":"C4","midi":60,"time":113.2275390625,"velocity":0.8031496062992126,"duration":0.205078125},{"name":"G4","midi":67,"time":113.4375,"velocity":0.8031496062992126,"duration":0.205078125},{"name":"G#3","midi":56,"time":113.4375,"velocity":0.8031496062992126,"duration":0.4150390625},{"name":"F4","midi":65,"time":113.64501953125,"velocity":0.8031496062992126,"duration":0.205078125},{"name":"D#4","midi":63,"time":113.8525390625,"velocity":0.8031496062992126,"duration":0.1708984375},{"name":"F3","midi":53,"time":113.8525390625,"velocity":0.8031496062992126,"duration":0.205078125},{"name":"D4","midi":62,"time":114.0625,"velocity":0.8031496062992126,"duration":0.205078125},{"name":"G3","midi":55,"time":114.0625,"velocity":0.8031496062992126,"duration":0.4150390625},{"name":"D#4","midi":63,"time":114.27001953125,"velocity":0.8031496062992126,"duration":0.205078125},{"name":"F4","midi":65,"time":114.4775390625,"velocity":0.8031496062992126,"duration":0.1708984375},{"name":"G2","midi":43,"time":114.4775390625,"velocity":0.8031496062992126,"duration":0.205078125},{"name":"F4","midi":65,"time":114.6875,"velocity":0.8031496062992126,"duration":0.205078125},{"name":"C3","midi":48,"time":114.6875,"velocity":0.8031496062992126,"duration":0.4150390625},{"name":"D4","midi":62,"time":114.89501953125,"velocity":0.8031496062992126,"duration":0.205078125},{"name":"D#4","midi":63,"time":115.1025390625,"velocity":0.8031496062992126,"duration":0.1708984375},{"name":"G2","midi":43,"time":115.1025390625,"velocity":0.8031496062992126,"duration":0.205078125},{"name":"C4","midi":60,"time":115.3125,"velocity":0.8031496062992126,"duration":0.205078125},{"name":"D#2","midi":39,"time":115.3125,"velocity":0.8031496062992126,"duration":0.4150390625},{"name":"D#4","midi":63,"time":115.52001953125,"velocity":0.8031496062992126,"duration":0.205078125},{"name":"G4","midi":67,"time":115.7275390625,"velocity":0.8031496062992126,"duration":0.1708984375},{"name":"C2","midi":36,"time":115.7275390625,"velocity":0.8031496062992126,"duration":0.205078125},{"name":"C5","midi":72,"time":115.9375,"velocity":0.8031496062992126,"duration":0.205078125},{"name":"D#2","midi":39,"time":115.9375,"velocity":0.8031496062992126,"duration":0.4150390625},{"name":"D#5","midi":75,"time":116.14501953125,"velocity":0.8031496062992126,"duration":0.205078125},{"name":"D5","midi":74,"time":116.3525390625,"velocity":0.8031496062992126,"duration":0.1708984375},{"name":"G2","midi":43,"time":116.3525390625,"velocity":0.8031496062992126,"duration":0.205078125},{"name":"D#5","midi":75,"time":116.5625,"velocity":0.8031496062992126,"duration":0.830078125},{"name":"C3","midi":48,"time":116.5625,"velocity":0.8031496062992126,"duration":0.205078125},{"name":"A#2","midi":46,"time":116.77001953125,"velocity":0.8031496062992126,"duration":0.205078125},{"name":"G#2","midi":44,"time":116.9775390625,"velocity":0.8031496062992126,"duration":0.205078125},{"name":"G2","midi":43,"time":117.1875,"velocity":0.8031496062992126,"duration":0.4150390625},{"name":"F5","midi":77,"time":117.39501953125,"velocity":0.8031496062992126,"duration":0.205078125},{"name":"D#5","midi":75,"time":117.6025390625,"velocity":0.8031496062992126,"duration":0.1708984375},{"name":"A#2","midi":46,"time":117.6025390625,"velocity":0.8031496062992126,"duration":0.205078125},{"name":"C#5","midi":73,"time":117.8125,"velocity":0.8031496062992126,"duration":0.205078125},{"name":"D#2","midi":39,"time":117.8125,"velocity":0.8031496062992126,"duration":0.4150390625},{"name":"C5","midi":72,"time":118.02001953125,"velocity":0.8031496062992126,"duration":0.205078125},{"name":"A#4","midi":70,"time":118.2275390625,"velocity":0.8031496062992126,"duration":0.1708984375},{"name":"G2","midi":43,"time":118.2275390625,"velocity":0.8031496062992126,"duration":0.205078125},{"name":"C5","midi":72,"time":118.4375,"velocity":0.8031496062992126,"duration":0.205078125},{"name":"G#2","midi":44,"time":118.4375,"velocity":0.8031496062992126,"duration":0.78125},{"name":"G#4","midi":68,"time":118.64501953125,"velocity":0.8031496062992126,"duration":0.205078125},{"name":"A#4","midi":70,"time":118.8525390625,"velocity":0.8031496062992126,"duration":0.1708984375},{"name":"C5","midi":72,"time":119.0625,"velocity":0.8031496062992126,"duration":0.205078125},{"name":"G4","midi":67,"time":119.27001953125,"velocity":0.8031496062992126,"duration":0.205078125},{"name":"A#2","midi":46,"time":119.27001953125,"velocity":0.8031496062992126,"duration":0.205078125},{"name":"G#4","midi":68,"time":119.4775390625,"velocity":0.8031496062992126,"duration":0.1708984375},{"name":"C3","midi":48,"time":119.4775390625,"velocity":0.8031496062992126,"duration":0.205078125},{"name":"E4","midi":64,"time":119.6875,"velocity":0.8031496062992126,"duration":0.205078125},{"name":"A#2","midi":46,"time":119.6875,"velocity":0.8031496062992126,"duration":0.4150390625},{"name":"F4","midi":65,"time":119.89501953125,"velocity":0.8031496062992126,"duration":0.205078125},{"name":"C4","midi":60,"time":120.1025390625,"velocity":0.8031496062992126,"duration":0.1708984375},{"name":"G#2","midi":44,"time":120.1025390625,"velocity":0.8031496062992126,"duration":0.205078125},{"name":"C#4","midi":61,"time":120.3125,"velocity":0.8031496062992126,"duration":0.205078125},{"name":"G2","midi":43,"time":120.3125,"velocity":0.8031496062992126,"duration":0.4150390625},{"name":"E4","midi":64,"time":120.52001953125,"velocity":0.8031496062992126,"duration":0.205078125},{"name":"G4","midi":67,"time":120.7275390625,"velocity":0.8031496062992126,"duration":0.1708984375},{"name":"F2","midi":41,"time":120.7275390625,"velocity":0.8031496062992126,"duration":0.205078125},{"name":"A#4","midi":70,"time":120.9375,"velocity":0.8031496062992126,"duration":0.205078125},{"name":"E2","midi":40,"time":120.9375,"velocity":0.8031496062992126,"duration":0.205078125},{"name":"G#4","midi":68,"time":121.14501953125,"velocity":0.8031496062992126,"duration":0.205078125},{"name":"F2","midi":41,"time":121.14501953125,"velocity":0.8031496062992126,"duration":0.205078125},{"name":"G4","midi":67,"time":121.3525390625,"velocity":0.8031496062992126,"duration":0.1708984375},{"name":"G2","midi":43,"time":121.3525390625,"velocity":0.8031496062992126,"duration":0.205078125},{"name":"C#5","midi":73,"time":121.5625,"velocity":0.8031496062992126,"duration":0.205078125},{"name":"C2","midi":36,"time":121.5625,"velocity":0.8031496062992126,"duration":0.205078125},{"name":"C5","midi":72,"time":121.77001953125,"velocity":0.8031496062992126,"duration":0.205078125},{"name":"D2","midi":38,"time":121.77001953125,"velocity":0.8031496062992126,"duration":0.205078125},{"name":"A#4","midi":70,"time":121.9775390625,"velocity":0.8031496062992126,"duration":0.1708984375},{"name":"E2","midi":40,"time":121.9775390625,"velocity":0.8031496062992126,"duration":0.205078125},{"name":"G#4","midi":68,"time":122.1875,"velocity":0.8031496062992126,"duration":0.205078125},{"name":"F2","midi":41,"time":122.1875,"velocity":0.8031496062992126,"duration":0.830078125},{"name":"F4","midi":65,"time":122.39501953125,"velocity":0.8031496062992126,"duration":0.205078125},{"name":"G4","midi":67,"time":122.6025390625,"velocity":0.8031496062992126,"duration":0.1708984375},{"name":"G#4","midi":68,"time":122.8125,"velocity":0.8031496062992126,"duration":0.205078125},{"name":"A#4","midi":70,"time":123.02001953125,"velocity":0.8031496062992126,"duration":0.205078125},{"name":"C5","midi":72,"time":123.2275390625,"velocity":0.8031496062992126,"duration":0.1708984375},{"name":"F3","midi":53,"time":123.2275390625,"velocity":0.8031496062992126,"duration":0.205078125},{"name":"C#5","midi":73,"time":123.4375,"velocity":0.8031496062992126,"duration":0.205078125},{"name":"A2","midi":45,"time":123.4375,"velocity":0.8031496062992126,"duration":0.4150390625},{"name":"D#5","midi":75,"time":123.64501953125,"velocity":0.8031496062992126,"duration":0.205078125},{"name":"C5","midi":72,"time":123.8525390625,"velocity":0.8031496062992126,"duration":0.1708984375},{"name":"F3","midi":53,"time":123.8525390625,"velocity":0.8031496062992126,"duration":0.205078125},{"name":"C#5","midi":73,"time":124.0625,"velocity":0.8031496062992126,"duration":0.205078125},{"name":"A#2","midi":46,"time":124.0625,"velocity":0.8031496062992126,"duration":0.4150390625},{"name":"F5","midi":77,"time":124.27001953125,"velocity":0.8031496062992126,"duration":0.205078125},{"name":"E5","midi":76,"time":124.4775390625,"velocity":0.8031496062992126,"duration":0.1708984375},{"name":"C3","midi":48,"time":124.4775390625,"velocity":0.8031496062992126,"duration":0.205078125},{"name":"F5","midi":77,"time":124.6875,"velocity":0.8031496062992126,"duration":0.205078125},{"name":"C#3","midi":49,"time":124.6875,"velocity":0.8031496062992126,"duration":0.4150390625},{"name":"G5","midi":79,"time":124.89501953125,"velocity":0.8031496062992126,"duration":0.205078125},{"name":"G#5","midi":80,"time":125.1025390625,"velocity":0.8031496062992126,"duration":0.1708984375},{"name":"C3","midi":48,"time":125.1025390625,"velocity":0.8031496062992126,"duration":0.205078125},{"name":"G5","midi":79,"time":125.3125,"velocity":0.8031496062992126,"duration":0.205078125},{"name":"A#2","midi":46,"time":125.3125,"velocity":0.8031496062992126,"duration":0.4150390625},{"name":"E5","midi":76,"time":125.52001953125,"velocity":0.8031496062992126,"duration":0.205078125},{"name":"F5","midi":77,"time":125.7275390625,"velocity":0.8031496062992126,"duration":0.1708984375},{"name":"G#2","midi":44,"time":125.7275390625,"velocity":0.8031496062992126,"duration":0.205078125},{"name":"A#5","midi":82,"time":125.9375,"velocity":0.8031496062992126,"duration":0.205078125},{"name":"G2","midi":43,"time":125.9375,"velocity":0.8031496062992126,"duration":0.390625},{"name":"G5","midi":79,"time":126.14501953125,"velocity":0.8031496062992126,"duration":0.205078125},{"name":"F5","midi":77,"time":126.3525390625,"velocity":0.8031496062992126,"duration":0.1708984375},{"name":"G#3","midi":56,"time":126.3525390625,"velocity":0.8031496062992126,"duration":0.205078125},{"name":"E5","midi":76,"time":126.5625,"velocity":0.8031496062992126,"duration":0.205078125},{"name":"G3","midi":55,"time":126.5625,"velocity":0.8031496062992126,"duration":0.4150390625},{"name":"F5","midi":77,"time":126.77001953125,"velocity":0.8031496062992126,"duration":0.205078125},{"name":"G5","midi":79,"time":126.9775390625,"velocity":0.8031496062992126,"duration":0.1708984375},{"name":"F3","midi":53,"time":126.9775390625,"velocity":0.8031496062992126,"duration":0.205078125},{"name":"C#5","midi":73,"time":127.1875,"velocity":0.8031496062992126,"duration":0.205078125},{"name":"E3","midi":52,"time":127.1875,"velocity":0.8031496062992126,"duration":0.4150390625},{"name":"A#4","midi":70,"time":127.39501953125,"velocity":0.8031496062992126,"duration":0.205078125},{"name":"C5","midi":72,"time":127.6025390625,"velocity":0.8031496062992126,"duration":0.1708984375},{"name":"C3","midi":48,"time":127.6025390625,"velocity":0.8031496062992126,"duration":0.205078125},{"name":"C5","midi":72,"time":127.8125,"velocity":0.8031496062992126,"duration":0.205078125},{"name":"G#3","midi":56,"time":127.8125,"velocity":0.8031496062992126,"duration":0.4150390625},{"name":"E4","midi":64,"time":128.02001953125,"velocity":0.8031496062992126,"duration":0.205078125},{"name":"F4","midi":65,"time":128.2275390625,"velocity":0.8031496062992126,"duration":0.1708984375},{"name":"F3","midi":53,"time":128.2275390625,"velocity":0.8031496062992126,"duration":0.205078125},{"name":"C#5","midi":73,"time":128.4375,"velocity":0.8031496062992126,"duration":0.205078125},{"name":"A#3","midi":58,"time":128.4375,"velocity":0.8031496062992126,"duration":0.4150390625},{"name":"C5","midi":72,"time":128.64501953125,"velocity":0.8031496062992126,"duration":0.205078125},{"name":"A#4","midi":70,"time":128.8525390625,"velocity":0.8031496062992126,"duration":0.1708984375},{"name":"C#4","midi":61,"time":128.8525390625,"velocity":0.8031496062992126,"duration":0.205078125},{"name":"G#4","midi":68,"time":129.0625,"velocity":0.8031496062992126,"duration":0.205078125},{"name":"C4","midi":60,"time":129.0625,"velocity":0.8031496062992126,"duration":0.4150390625},{"name":"A#4","midi":70,"time":129.27001953125,"velocity":0.8031496062992126,"duration":0.205078125},{"name":"G4","midi":67,"time":129.4775390625,"velocity":0.8031496062992126,"duration":0.1708984375},{"name":"C3","midi":48,"time":129.4775390625,"velocity":0.8031496062992126,"duration":0.205078125},{"name":"F4","midi":65,"time":129.6875,"velocity":0.8031496062992126,"duration":0.634765625},{"name":"F3","midi":53,"time":129.6875,"velocity":0.8031496062992126,"duration":0.205078125},{"name":"C3","midi":48,"time":129.89501953125,"velocity":0.8031496062992126,"duration":0.205078125},{"name":"G#2","midi":44,"time":130.1025390625,"velocity":0.8031496062992126,"duration":0.205078125},{"name":"F2","midi":41,"time":130.3125,"velocity":0.8031496062992126,"duration":0.390625},{"name":"G#4","midi":68,"time":130.52001953125,"velocity":0.8031496062992126,"duration":0.205078125},{"name":"G4","midi":67,"time":130.7275390625,"velocity":0.8031496062992126,"duration":0.1708984375},{"name":"C3","midi":48,"time":130.7275390625,"velocity":0.8031496062992126,"duration":0.205078125},{"name":"G#4","midi":68,"time":130.9375,"velocity":0.8031496062992126,"duration":0.205078125},{"name":"F3","midi":53,"time":130.9375,"velocity":0.8031496062992126,"duration":0.205078125},{"name":"A#4","midi":70,"time":131.14501953125,"velocity":0.8031496062992126,"duration":0.205078125},{"name":"G3","midi":55,"time":131.14501953125,"velocity":0.8031496062992126,"duration":0.205078125},{"name":"C5","midi":72,"time":131.3525390625,"velocity":0.8031496062992126,"duration":0.1708984375},{"name":"G#3","midi":56,"time":131.3525390625,"velocity":0.8031496062992126,"duration":0.205078125},{"name":"D4","midi":62,"time":131.5625,"velocity":0.8031496062992126,"duration":0.205078125},{"name":"A#3","midi":58,"time":131.5625,"velocity":0.8031496062992126,"duration":0.60546875},{"name":"D#4","midi":63,"time":131.77001953125,"velocity":0.8031496062992126,"duration":0.205078125},{"name":"F4","midi":65,"time":131.9775390625,"velocity":0.8031496062992126,"duration":0.1708984375},{"name":"A#3","midi":58,"time":132.1875,"velocity":0.8031496062992126,"duration":0.205078125},{"name":"D4","midi":62,"time":132.39501953125,"velocity":0.8031496062992126,"duration":0.205078125},{"name":"F3","midi":53,"time":132.39501953125,"velocity":0.8031496062992126,"duration":0.205078125},{"name":"F4","midi":65,"time":132.6025390625,"velocity":0.8031496062992126,"duration":0.1708984375},{"name":"D3","midi":50,"time":132.6025390625,"velocity":0.8031496062992126,"duration":0.205078125},{"name":"G#4","midi":68,"time":132.8125,"velocity":0.8031496062992126,"duration":0.205078125},{"name":"A#2","midi":46,"time":132.8125,"velocity":0.8031496062992126,"duration":0.205078125},{"name":"G4","midi":67,"time":133.02001953125,"velocity":0.8031496062992126,"duration":0.205078125},{"name":"C3","midi":48,"time":133.02001953125,"velocity":0.8031496062992126,"duration":0.205078125},{"name":"F4","midi":65,"time":133.2275390625,"velocity":0.8031496062992126,"duration":0.1708984375},{"name":"D3","midi":50,"time":133.2275390625,"velocity":0.8031496062992126,"duration":0.205078125},{"name":"G4","midi":67,"time":133.4375,"velocity":0.8031496062992126,"duration":0.205078125},{"name":"D#3","midi":51,"time":133.4375,"velocity":0.8031496062992126,"duration":0.78125},{"name":"G#4","midi":68,"time":133.64501953125,"velocity":0.8031496062992126,"duration":0.205078125},{"name":"A#4","midi":70,"time":133.8525390625,"velocity":0.8031496062992126,"duration":0.1708984375},{"name":"D#4","midi":63,"time":134.0625,"velocity":0.8031496062992126,"duration":0.205078125},{"name":"G4","midi":67,"time":134.27001953125,"velocity":0.8031496062992126,"duration":0.205078125},{"name":"A#2","midi":46,"time":134.27001953125,"velocity":0.8031496062992126,"duration":0.205078125},{"name":"A#4","midi":70,"time":134.4775390625,"velocity":0.8031496062992126,"duration":0.1708984375},{"name":"G2","midi":43,"time":134.4775390625,"velocity":0.8031496062992126,"duration":0.205078125},{"name":"C#5","midi":73,"time":134.6875,"velocity":0.8031496062992126,"duration":0.205078125},{"name":"D#2","midi":39,"time":134.6875,"velocity":0.8031496062992126,"duration":0.205078125},{"name":"C5","midi":72,"time":134.89501953125,"velocity":0.8031496062992126,"duration":0.205078125},{"name":"F2","midi":41,"time":134.89501953125,"velocity":0.8031496062992126,"duration":0.205078125},{"name":"A#4","midi":70,"time":135.1025390625,"velocity":0.8031496062992126,"duration":0.1708984375},{"name":"G2","midi":43,"time":135.1025390625,"velocity":0.8031496062992126,"duration":0.205078125},{"name":"C5","midi":72,"time":135.3125,"velocity":0.8031496062992126,"duration":0.205078125},{"name":"G#2","midi":44,"time":135.3125,"velocity":0.8031496062992126,"duration":0.7568359375},{"name":"F5","midi":77,"time":135.52001953125,"velocity":0.8031496062992126,"duration":0.205078125},{"name":"E5","midi":76,"time":135.7275390625,"velocity":0.8031496062992126,"duration":0.1708984375},{"name":"F5","midi":77,"time":135.9375,"velocity":0.8031496062992126,"duration":0.205078125},{"name":"G5","midi":79,"time":136.14501953125,"velocity":0.8031496062992126,"duration":0.205078125},{"name":"G2","midi":43,"time":136.14501953125,"velocity":0.8031496062992126,"duration":0.205078125},{"name":"G#5","midi":80,"time":136.3525390625,"velocity":0.8031496062992126,"duration":0.1708984375},{"name":"F2","midi":41,"time":136.3525390625,"velocity":0.8031496062992126,"duration":0.205078125},{"name":"C5","midi":72,"time":136.5625,"velocity":0.8031496062992126,"duration":0.205078125},{"name":"G#2","midi":44,"time":136.5625,"velocity":0.8031496062992126,"duration":0.205078125},{"name":"D5","midi":74,"time":136.77001953125,"velocity":0.8031496062992126,"duration":0.205078125},{"name":"G2","midi":43,"time":136.77001953125,"velocity":0.8031496062992126,"duration":0.205078125},{"name":"D#5","midi":75,"time":136.9775390625,"velocity":0.8031496062992126,"duration":0.1708984375},{"name":"F2","midi":41,"time":136.9775390625,"velocity":0.8031496062992126,"duration":0.205078125},{"name":"D#5","midi":75,"time":137.1875,"velocity":0.8031496062992126,"duration":0.205078125},{"name":"A#2","midi":46,"time":137.1875,"velocity":0.8031496062992126,"duration":0.4150390625},{"name":"C5","midi":72,"time":137.39501953125,"velocity":0.8031496062992126,"duration":0.205078125},{"name":"D5","midi":74,"time":137.6025390625,"velocity":0.8031496062992126,"duration":0.1708984375},{"name":"C4","midi":60,"time":137.6025390625,"velocity":0.8031496062992126,"duration":0.205078125},{"name":"G#5","midi":80,"time":137.8125,"velocity":0.8031496062992126,"duration":0.205078125},{"name":"A#3","midi":58,"time":137.8125,"velocity":0.8031496062992126,"duration":0.4150390625},{"name":"G5","midi":79,"time":138.02001953125,"velocity":0.8031496062992126,"duration":0.205078125},{"name":"F5","midi":77,"time":138.2275390625,"velocity":0.8031496062992126,"duration":0.1708984375},{"name":"G#3","midi":56,"time":138.2275390625,"velocity":0.8031496062992126,"duration":0.205078125},{"name":"C6","midi":84,"time":138.4375,"velocity":0.8031496062992126,"duration":0.205078125},{"name":"G3","midi":55,"time":138.4375,"velocity":0.8031496062992126,"duration":0.4150390625},{"name":"A#5","midi":82,"time":138.64501953125,"velocity":0.8031496062992126,"duration":0.205078125},{"name":"G#5","midi":80,"time":138.8525390625,"velocity":0.8031496062992126,"duration":0.1708984375},{"name":"F3","midi":53,"time":138.8525390625,"velocity":0.8031496062992126,"duration":0.205078125},{"name":"G5","midi":79,"time":139.0625,"velocity":0.8031496062992126,"duration":0.205078125},{"name":"D#3","midi":51,"time":139.0625,"velocity":0.8031496062992126,"duration":0.78125},{"name":"D5","midi":74,"time":139.27001953125,"velocity":0.8031496062992126,"duration":0.205078125},{"name":"D#5","midi":75,"time":139.4775390625,"velocity":0.8031496062992126,"duration":0.1708984375},{"name":"A#4","midi":70,"time":139.6875,"velocity":0.8031496062992126,"duration":0.205078125},{"name":"C5","midi":72,"time":139.89501953125,"velocity":0.8031496062992126,"duration":0.205078125},{"name":"C#3","midi":49,"time":139.89501953125,"velocity":0.8031496062992126,"duration":0.205078125},{"name":"C#5","midi":73,"time":140.1025390625,"velocity":0.8031496062992126,"duration":0.1708984375},{"name":"C3","midi":48,"time":140.1025390625,"velocity":0.8031496062992126,"duration":0.205078125},{"name":"G4","midi":67,"time":140.3125,"velocity":0.8031496062992126,"duration":0.1025390625},{"name":"A#2","midi":46,"time":140.3125,"velocity":0.8031496062992126,"duration":0.205078125},{"name":"G#4","midi":68,"time":140.4150390625,"velocity":0.8031496062992126,"duration":0.1025390625},{"name":"A#4","midi":70,"time":140.52001953125,"velocity":0.8031496062992126,"duration":0.205078125},{"name":"G#2","midi":44,"time":140.52001953125,"velocity":0.8031496062992126,"duration":0.205078125},{"name":"G2","midi":43,"time":140.72998046875,"velocity":0.8031496062992126,"duration":0.2099609375},{"name":"C#4","midi":61,"time":140.72998046875,"velocity":0.8031496062992126,"duration":0.17578125},{"name":"G#2","midi":44,"time":140.94482421875,"velocity":0.8031496062992126,"duration":0.42724609375},{"name":"C4","midi":60,"time":140.94482421875,"velocity":0.8031496062992126,"duration":0.8544921875},{"name":"G3","midi":55,"time":141.15966796875,"velocity":0.8031496062992126,"duration":0.2099609375},{"name":"F2","midi":41,"time":141.3720703125,"velocity":0.8031496062992126,"duration":0.2099609375},{"name":"G#3","midi":56,"time":141.3720703125,"velocity":0.8031496062992126,"duration":0.17578125},{"name":"F3","midi":53,"time":141.58935546875,"velocity":0.8031496062992126,"duration":0.21484375},{"name":"A#2","midi":46,"time":141.58935546875,"velocity":0.8031496062992126,"duration":0.439453125},{"name":"D#4","midi":63,"time":141.80908203125,"velocity":0.8031496062992126,"duration":0.21484375},{"name":"D4","midi":62,"time":142.02880859375,"velocity":0.8031496062992126,"duration":0.1806640625},{"name":"G2","midi":43,"time":142.02880859375,"velocity":0.8031496062992126,"duration":0.21484375},{"name":"D#4","midi":63,"time":142.2509765625,"velocity":0.8031496062992126,"duration":0.87890625},{"name":"C3","midi":48,"time":142.2509765625,"velocity":0.8031496062992126,"duration":0.439453125},{"name":"A#3","midi":58,"time":142.47314453125,"velocity":0.8031496062992126,"duration":0.21484375},{"name":"G#2","midi":44,"time":142.69287109375,"velocity":0.8031496062992126,"duration":0.2197265625},{"name":"C4","midi":60,"time":142.69287109375,"velocity":0.8031496062992126,"duration":0.185546875},{"name":"D3","midi":50,"time":142.92236328125,"velocity":0.8031496062992126,"duration":0.45166015625},{"name":"G#3","midi":56,"time":142.92236328125,"velocity":0.8031496062992126,"duration":0.2197265625},{"name":"G4","midi":67,"time":143.15185546875,"velocity":0.8031496062992126,"duration":0.2197265625},{"name":"A#2","midi":46,"time":143.3740234375,"velocity":0.8031496062992126,"duration":0.2197265625},{"name":"F4","midi":65,"time":143.3740234375,"velocity":0.8031496062992126,"duration":0.185546875},{"name":"G4","midi":67,"time":143.60595703125,"velocity":0.8031496062992126,"duration":0.224609375},{"name":"D#3","midi":51,"time":143.60595703125,"velocity":0.8031496062992126,"duration":0.4638671875},{"name":"G#4","midi":68,"time":143.84033203125,"velocity":0.8031496062992126,"duration":0.224609375},{"name":"A#4","midi":70,"time":144.072265625,"velocity":0.8031496062992126,"duration":0.1904296875},{"name":"G#2","midi":44,"time":144.072265625,"velocity":0.8031496062992126,"duration":0.224609375},{"name":"A#3","midi":58,"time":144.306640625,"velocity":0.8031496062992126,"duration":0.224609375},{"name":"A#2","midi":46,"time":144.306640625,"velocity":0.8031496062992126,"duration":0.4638671875},{"name":"D#4","midi":63,"time":144.54345703125,"velocity":0.8031496062992126,"duration":0.224609375},{"name":"D4","midi":62,"time":144.77783203125,"velocity":0.8031496062992126,"duration":0.2001953125},{"name":"A#2","midi":46,"time":144.77783203125,"velocity":0.8031496062992126,"duration":0.234375},{"name":"D#4","midi":63,"time":145.02685546875,"velocity":0.8031496062992126,"duration":0.72998046875},{"name":"D#3","midi":51,"time":145.02685546875,"velocity":0.8031496062992126,"duration":0.72998046875},{"name":"A#3","midi":58,"time":145.2783203125,"velocity":0.8031496062992126,"duration":0.234375},{"name":"G3","midi":55,"time":145.52490234375,"velocity":0.8031496062992126,"duration":0.234375},{"name":"D#3","midi":51,"time":145.77392578125,"velocity":0.8031496062992126,"duration":1.87255859375},{"name":"A#2","midi":46,"time":146.0302734375,"velocity":0.8031496062992126,"duration":0.2392578125},{"name":"G2","midi":43,"time":146.28662109375,"velocity":0.8031496062992126,"duration":0.2392578125},{"name":"D#2","midi":39,"time":146.6015625,"velocity":0.8031496062992126,"duration":1.12060546875},{"name":"D#3","midi":51,"time":150,"velocity":0.8031496062992126,"duration":0.46875},{"name":"G4","midi":67,"time":150,"velocity":0.8031496062992126,"duration":0.46875},{"name":"D#4","midi":63,"time":150.46875,"velocity":0.8031496062992126,"duration":0.46630859375},{"name":"G#4","midi":68,"time":150.46875,"velocity":0.8031496062992126,"duration":0.23193359375},{"name":"A#4","midi":70,"time":150.703125,"velocity":0.8031496062992126,"duration":0.23193359375},{"name":"C#4","midi":61,"time":150.9375,"velocity":0.8031496062992126,"duration":0.46630859375},{"name":"A#4","midi":70,"time":150.9375,"velocity":0.8031496062992126,"duration":0.23193359375},{"name":"G4","midi":67,"time":150.9375,"velocity":0.8031496062992126,"duration":1.7822265625},{"name":"G#4","midi":68,"time":151.171875,"velocity":0.8031496062992126,"duration":0.23193359375},{"name":"C4","midi":60,"time":151.40625,"velocity":0.8031496062992126,"duration":0.46630859375},{"name":"A#4","midi":70,"time":151.40625,"velocity":0.8031496062992126,"duration":1.3427734375},{"name":"A#3","midi":58,"time":151.875,"velocity":0.8031496062992126,"duration":0.46630859375},{"name":"G#3","midi":56,"time":152.34375,"velocity":0.8031496062992126,"duration":0.46630859375},{"name":"G3","midi":55,"time":152.8125,"velocity":0.8031496062992126,"duration":0.46630859375},{"name":"A#4","midi":70,"time":152.8125,"velocity":0.8031496062992126,"duration":0.46630859375},{"name":"F3","midi":53,"time":153.28125,"velocity":0.8031496062992126,"duration":0.46630859375},{"name":"C5","midi":72,"time":153.28125,"velocity":0.8031496062992126,"duration":0.23193359375},{"name":"C#5","midi":73,"time":153.515625,"velocity":0.8031496062992126,"duration":0.23193359375},{"name":"D#3","midi":51,"time":153.75,"velocity":0.8031496062992126,"duration":0.46630859375},{"name":"G4","midi":67,"time":153.75,"velocity":0.8031496062992126,"duration":1.66015625},{"name":"A#4","midi":70,"time":153.984375,"velocity":0.8031496062992126,"duration":1.513671875},{"name":"C#3","midi":49,"time":154.21875,"velocity":0.8031496062992126,"duration":0.46630859375},{"name":"C#5","midi":73,"time":154.21875,"velocity":0.8031496062992126,"duration":1.3427734375},{"name":"C3","midi":48,"time":154.6875,"velocity":0.8031496062992126,"duration":0.46630859375},{"name":"A#2","midi":46,"time":155.15625,"velocity":0.8031496062992126,"duration":0.46630859375},{"name":"G#2","midi":44,"time":155.625,"velocity":0.8031496062992126,"duration":0.46630859375},{"name":"C5","midi":72,"time":155.625,"velocity":0.8031496062992126,"duration":0.46630859375},{"name":"A#2","midi":46,"time":156.09375,"velocity":0.8031496062992126,"duration":0.23193359375},{"name":"A#4","midi":70,"time":156.09375,"velocity":0.8031496062992126,"duration":0.46630859375},{"name":"C3","midi":48,"time":156.328125,"velocity":0.8031496062992126,"duration":0.23193359375},{"name":"C3","midi":48,"time":156.5625,"velocity":0.8031496062992126,"duration":1.611328125},{"name":"G#4","midi":68,"time":156.5625,"velocity":0.8031496062992126,"duration":0.46630859375},{"name":"D#3","midi":51,"time":156.796875,"velocity":0.8031496062992126,"duration":1.5380859375},{"name":"G#3","midi":56,"time":157.03125,"velocity":0.8031496062992126,"duration":1.37939453125},{"name":"G4","midi":67,"time":157.03125,"velocity":0.8031496062992126,"duration":0.46630859375},{"name":"F4","midi":65,"time":157.5,"velocity":0.8031496062992126,"duration":0.46630859375},{"name":"D#4","midi":63,"time":157.96875,"velocity":0.8031496062992126,"duration":0.46630859375},{"name":"A#2","midi":46,"time":158.4375,"velocity":0.8031496062992126,"duration":0.46630859375},{"name":"D4","midi":62,"time":158.4375,"velocity":0.8031496062992126,"duration":0.46630859375},{"name":"C3","midi":48,"time":158.90625,"velocity":0.8031496062992126,"duration":0.23193359375},{"name":"F4","midi":65,"time":158.90625,"velocity":0.8031496062992126,"duration":0.46630859375},{"name":"D3","midi":50,"time":159.140625,"velocity":0.8031496062992126,"duration":0.23193359375},{"name":"D3","midi":50,"time":159.375,"velocity":0.8031496062992126,"duration":1.611328125},{"name":"G#4","midi":68,"time":159.375,"velocity":0.8031496062992126,"duration":0.46630859375},{"name":"F3","midi":53,"time":159.609375,"velocity":0.8031496062992126,"duration":1.5380859375},{"name":"A#3","midi":58,"time":159.84375,"velocity":0.8031496062992126,"duration":1.37939453125},{"name":"C5","midi":72,"time":159.84375,"velocity":0.8031496062992126,"duration":0.46630859375},{"name":"A#4","midi":70,"time":160.3125,"velocity":0.8031496062992126,"duration":0.46630859375},{"name":"G#4","midi":68,"time":160.78125,"velocity":0.8031496062992126,"duration":0.46630859375},{"name":"D#3","midi":51,"time":161.25,"velocity":0.8031496062992126,"duration":0.46630859375},{"name":"G4","midi":67,"time":161.25,"velocity":0.8031496062992126,"duration":0.46630859375},{"name":"F3","midi":53,"time":161.71875,"velocity":0.8031496062992126,"duration":0.46630859375},{"name":"A4","midi":69,"time":161.71875,"velocity":0.8031496062992126,"duration":0.23193359375},{"name":"A#4","midi":70,"time":161.953125,"velocity":0.8031496062992126,"duration":0.23193359375},{"name":"D#3","midi":51,"time":162.1875,"velocity":0.8031496062992126,"duration":0.46630859375},{"name":"A#4","midi":70,"time":162.1875,"velocity":0.8031496062992126,"duration":0.15380859375},{"name":"F4","midi":65,"time":162.1875,"velocity":0.8031496062992126,"duration":1.87255859375},{"name":"A4","midi":69,"time":162.34375,"velocity":0.8031496062992126,"duration":0.15380859375},{"name":"A#4","midi":70,"time":162.5,"velocity":0.8031496062992126,"duration":0.15380859375},{"name":"D3","midi":50,"time":162.65625,"velocity":0.8031496062992126,"duration":0.46630859375},{"name":"A4","midi":69,"time":162.65625,"velocity":0.8031496062992126,"duration":0.87890625},{"name":"C3","midi":48,"time":163.125,"velocity":0.8031496062992126,"duration":0.46630859375},{"name":"A#2","midi":46,"time":163.59375,"velocity":0.8031496062992126,"duration":0.46630859375},{"name":"A#4","midi":70,"time":163.59375,"velocity":0.8031496062992126,"duration":0.46630859375},{"name":"A2","midi":45,"time":164.0625,"velocity":0.8031496062992126,"duration":0.46630859375},{"name":"C5","midi":72,"time":164.0625,"velocity":0.8031496062992126,"duration":0.46630859375},{"name":"G2","midi":43,"time":164.53125,"velocity":0.8031496062992126,"duration":0.46630859375},{"name":"D5","midi":74,"time":164.53125,"velocity":0.8031496062992126,"duration":0.23193359375},{"name":"D#5","midi":75,"time":164.765625,"velocity":0.8031496062992126,"duration":0.23193359375},{"name":"A2","midi":45,"time":165,"velocity":0.8031496062992126,"duration":0.46630859375},{"name":"F4","midi":65,"time":165,"velocity":0.8031496062992126,"duration":1.26953125},{"name":"F2","midi":41,"time":165.46875,"velocity":0.8031496062992126,"duration":0.46630859375},{"name":"G2","midi":43,"time":165.9375,"velocity":0.8031496062992126,"duration":0.46630859375},{"name":"A2","midi":45,"time":166.40625,"velocity":0.8031496062992126,"duration":0.46630859375},{"name":"D#4","midi":63,"time":166.40625,"velocity":0.8031496062992126,"duration":0.46630859375},{"name":"A#2","midi":46,"time":166.875,"velocity":0.8031496062992126,"duration":0.46630859375},{"name":"D4","midi":62,"time":166.875,"velocity":0.8031496062992126,"duration":0.23193359375},{"name":"D#4","midi":63,"time":167.109375,"velocity":0.8031496062992126,"duration":0.23193359375},{"name":"D3","midi":50,"time":167.34375,"velocity":0.8031496062992126,"duration":0.46630859375},{"name":"F4","midi":65,"time":167.34375,"velocity":0.8031496062992126,"duration":0.23193359375},{"name":"A#4","midi":70,"time":167.578125,"velocity":0.8031496062992126,"duration":0.23193359375},{"name":"D#3","midi":51,"time":167.8125,"velocity":0.8031496062992126,"duration":0.46630859375},{"name":"G4","midi":67,"time":167.8125,"velocity":0.8031496062992126,"duration":0.23193359375},{"name":"A4","midi":69,"time":168.046875,"velocity":0.8031496062992126,"duration":0.23193359375},{"name":"C3","midi":48,"time":168.28125,"velocity":0.8031496062992126,"duration":0.46630859375},{"name":"A#4","midi":70,"time":168.28125,"velocity":0.8031496062992126,"duration":0.23193359375},{"name":"D#5","midi":75,"time":168.515625,"velocity":0.8031496062992126,"duration":0.23193359375},{"name":"F3","midi":53,"time":168.75,"velocity":0.8031496062992126,"duration":0.46630859375},{"name":"D5","midi":74,"time":168.75,"velocity":0.8031496062992126,"duration":0.23193359375},{"name":"C5","midi":72,"time":168.984375,"velocity":0.8031496062992126,"duration":0.23193359375},{"name":"F2","midi":41,"time":169.21875,"velocity":0.8031496062992126,"duration":0.46630859375},{"name":"A#4","midi":70,"time":169.21875,"velocity":0.8031496062992126,"duration":0.23193359375},{"name":"A4","midi":69,"time":169.453125,"velocity":0.8031496062992126,"duration":0.23193359375},{"name":"A#2","midi":46,"time":169.6875,"velocity":0.8031496062992126,"duration":2.8076171875},{"name":"A#4","midi":70,"time":169.6875,"velocity":0.8031496062992126,"duration":0.927734375},{"name":"F4","midi":65,"time":169.921875,"velocity":0.8031496062992126,"duration":0.23193359375},{"name":"G4","midi":67,"time":170.15625,"velocity":0.8031496062992126,"duration":0.23193359375},{"name":"D#4","midi":63,"time":170.390625,"velocity":0.8031496062992126,"duration":0.23193359375},{"name":"F3","midi":53,"time":170.625,"velocity":0.8031496062992126,"duration":1.87255859375},{"name":"D4","midi":62,"time":170.625,"velocity":0.8031496062992126,"duration":1.611328125},{"name":"D#4","midi":63,"time":170.859375,"velocity":0.8031496062992126,"duration":0.23193359375},{"name":"F4","midi":65,"time":171.09375,"velocity":0.8031496062992126,"duration":1.26953125},{"name":"A#4","midi":70,"time":171.328125,"velocity":0.8031496062992126,"duration":1.07421875},{"name":"A#3","midi":58,"time":171.5625,"velocity":0.8031496062992126,"duration":0.93505859375},{"name":"A#3","midi":58,"time":172.5,"velocity":0.8031496062992126,"duration":0.46630859375},{"name":"D5","midi":74,"time":172.5,"velocity":0.8031496062992126,"duration":0.46630859375},{"name":"A#2","midi":46,"time":172.96875,"velocity":0.8031496062992126,"duration":0.46630859375},{"name":"D#5","midi":75,"time":172.96875,"velocity":0.8031496062992126,"duration":0.23193359375},{"name":"F5","midi":77,"time":173.203125,"velocity":0.8031496062992126,"duration":0.23193359375},{"name":"C3","midi":48,"time":173.4375,"velocity":0.8031496062992126,"duration":0.46630859375},{"name":"D5","midi":74,"time":173.4375,"velocity":0.8031496062992126,"duration":1.611328125},{"name":"F5","midi":77,"time":173.4375,"velocity":0.8031496062992126,"duration":0.23193359375},{"name":"D#5","midi":75,"time":173.671875,"velocity":0.8031496062992126,"duration":0.23193359375},{"name":"D3","midi":50,"time":173.90625,"velocity":0.8031496062992126,"duration":0.46630859375},{"name":"F5","midi":77,"time":173.90625,"velocity":0.8031496062992126,"duration":1.3427734375},{"name":"D#3","midi":51,"time":174.375,"velocity":0.8031496062992126,"duration":0.46630859375},{"name":"F3","midi":53,"time":174.84375,"velocity":0.8031496062992126,"duration":0.46630859375},{"name":"G3","midi":55,"time":175.3125,"velocity":0.8031496062992126,"duration":0.46630859375},{"name":"E5","midi":76,"time":175.3125,"velocity":0.8031496062992126,"duration":0.46630859375},{"name":"G#3","midi":56,"time":175.78125,"velocity":0.8031496062992126,"duration":0.46630859375},{"name":"F5","midi":77,"time":175.78125,"velocity":0.8031496062992126,"duration":0.23193359375},{"name":"G5","midi":79,"time":176.015625,"velocity":0.8031496062992126,"duration":0.23193359375},{"name":"A#3","midi":58,"time":176.25,"velocity":0.8031496062992126,"duration":0.46630859375},{"name":"E5","midi":76,"time":176.25,"velocity":0.8031496062992126,"duration":1.611328125},{"name":"G5","midi":79,"time":176.25,"velocity":0.8031496062992126,"duration":0.23193359375},{"name":"F5","midi":77,"time":176.484375,"velocity":0.8031496062992126,"duration":0.23193359375},{"name":"C#4","midi":61,"time":176.71875,"velocity":0.8031496062992126,"duration":0.46630859375},{"name":"G5","midi":79,"time":176.71875,"velocity":0.8031496062992126,"duration":1.3427734375},{"name":"C4","midi":60,"time":177.1875,"velocity":0.8031496062992126,"duration":0.46630859375},{"name":"A#3","midi":58,"time":177.65625,"velocity":0.8031496062992126,"duration":0.46630859375},{"name":"G#3","midi":56,"time":178.125,"velocity":0.8031496062992126,"duration":0.46630859375},{"name":"F5","midi":77,"time":178.125,"velocity":0.8031496062992126,"duration":0.46630859375},{"name":"F3","midi":53,"time":178.59375,"velocity":0.8031496062992126,"duration":0.46630859375},{"name":"G5","midi":79,"time":178.59375,"velocity":0.8031496062992126,"duration":0.23193359375},{"name":"G#5","midi":80,"time":178.828125,"velocity":0.8031496062992126,"duration":0.23193359375},{"name":"C#4","midi":61,"time":179.0625,"velocity":0.8031496062992126,"duration":0.46630859375},{"name":"A#4","midi":70,"time":179.0625,"velocity":0.8031496062992126,"duration":0.46630859375},{"name":"C4","midi":60,"time":179.53125,"velocity":0.8031496062992126,"duration":0.46630859375},{"name":"G#5","midi":80,"time":179.53125,"velocity":0.8031496062992126,"duration":0.23193359375},{"name":"G5","midi":79,"time":179.765625,"velocity":0.8031496062992126,"duration":0.23193359375},{"name":"A#3","midi":58,"time":180,"velocity":0.8031496062992126,"duration":0.46630859375},{"name":"A#5","midi":82,"time":180,"velocity":0.8031496062992126,"duration":0.23193359375},{"name":"G#5","midi":80,"time":180.234375,"velocity":0.8031496062992126,"duration":0.23193359375},{"name":"C#4","midi":61,"time":180.46875,"velocity":0.8031496062992126,"duration":0.46630859375},{"name":"G5","midi":79,"time":180.46875,"velocity":0.8031496062992126,"duration":0.23193359375},{"name":"F5","midi":77,"time":180.703125,"velocity":0.8031496062992126,"duration":0.23193359375},{"name":"C4","midi":60,"time":180.9375,"velocity":0.8031496062992126,"duration":0.46630859375},{"name":"E5","midi":76,"time":180.9375,"velocity":0.8031496062992126,"duration":0.927734375},{"name":"G5","midi":79,"time":180.9375,"velocity":0.8031496062992126,"duration":0.46630859375},{"name":"C#4","midi":61,"time":181.40625,"velocity":0.8031496062992126,"duration":0.46630859375},{"name":"G#5","midi":80,"time":181.40625,"velocity":0.8031496062992126,"duration":0.23193359375},{"name":"A#5","midi":82,"time":181.640625,"velocity":0.8031496062992126,"duration":0.23193359375},{"name":"C4","midi":60,"time":181.875,"velocity":0.8031496062992126,"duration":0.46630859375},{"name":"E5","midi":76,"time":181.875,"velocity":0.8031496062992126,"duration":1.611328125},{"name":"G5","midi":79,"time":182.03125,"velocity":0.8031496062992126,"duration":1.513671875},{"name":"A#5","midi":82,"time":182.1875,"velocity":0.8031496062992126,"duration":1.3427734375},{"name":"A#3","midi":58,"time":182.34375,"velocity":0.8031496062992126,"duration":0.46630859375},{"name":"G#3","midi":56,"time":182.8125,"velocity":0.8031496062992126,"duration":0.46630859375},{"name":"G3","midi":55,"time":183.28125,"velocity":0.8031496062992126,"duration":0.46630859375},{"name":"F3","midi":53,"time":183.75,"velocity":0.8031496062992126,"duration":0.46630859375},{"name":"G#5","midi":80,"time":183.75,"velocity":0.8031496062992126,"duration":0.46630859375},{"name":"G3","midi":55,"time":184.21875,"velocity":0.8031496062992126,"duration":0.23193359375},{"name":"G5","midi":79,"time":184.21875,"velocity":0.8031496062992126,"duration":0.46630859375},{"name":"G#3","midi":56,"time":184.453125,"velocity":0.8031496062992126,"duration":0.23193359375},{"name":"C#3","midi":49,"time":184.6875,"velocity":0.8031496062992126,"duration":1.40380859375},{"name":"F5","midi":77,"time":184.6875,"velocity":0.8031496062992126,"duration":0.46630859375},{"name":"D#5","midi":75,"time":185.15625,"velocity":0.8031496062992126,"duration":0.46630859375},{"name":"C#5","midi":73,"time":185.625,"velocity":0.8031496062992126,"duration":0.46630859375},{"name":"C5","midi":72,"time":186.09375,"velocity":0.8031496062992126,"duration":0.46630859375},{"name":"G3","midi":55,"time":186.5625,"velocity":0.8031496062992126,"duration":0.46630859375},{"name":"A#4","midi":70,"time":186.5625,"velocity":0.8031496062992126,"duration":0.46630859375},{"name":"G#3","midi":56,"time":187.03125,"velocity":0.8031496062992126,"duration":0.23193359375},{"name":"G#4","midi":68,"time":187.03125,"velocity":0.8031496062992126,"duration":0.46630859375},{"name":"A#3","midi":58,"time":187.265625,"velocity":0.8031496062992126,"duration":0.23193359375},{"name":"A#3","midi":58,"time":187.5,"velocity":0.8031496062992126,"duration":1.40380859375},{"name":"G4","midi":67,"time":187.5,"velocity":0.8031496062992126,"duration":0.46630859375},{"name":"F4","midi":65,"time":187.96875,"velocity":0.8031496062992126,"duration":0.46630859375},{"name":"E4","midi":64,"time":188.4375,"velocity":0.8031496062992126,"duration":0.23193359375},{"name":"F4","midi":65,"time":188.671875,"velocity":0.8031496062992126,"duration":0.23193359375},{"name":"G4","midi":67,"time":188.90625,"velocity":0.8031496062992126,"duration":0.23193359375},{"name":"C#5","midi":73,"time":189.140625,"velocity":0.8031496062992126,"duration":0.23193359375},{"name":"G#3","midi":56,"time":189.375,"velocity":0.8031496062992126,"duration":0.46630859375},{"name":"C5","midi":72,"time":189.375,"velocity":0.8031496062992126,"duration":0.23193359375},{"name":"A#4","midi":70,"time":189.609375,"velocity":0.8031496062992126,"duration":0.23193359375},{"name":"F3","midi":53,"time":189.84375,"velocity":0.8031496062992126,"duration":0.46630859375},{"name":"G#4","midi":68,"time":189.84375,"velocity":0.8031496062992126,"duration":0.23193359375},{"name":"F5","midi":77,"time":190.078125,"velocity":0.8031496062992126,"duration":0.23193359375},{"name":"C#4","midi":61,"time":190.3125,"velocity":0.8031496062992126,"duration":0.46630859375},{"name":"E5","midi":76,"time":190.3125,"velocity":0.8031496062992126,"duration":0.23193359375},{"name":"F5","midi":77,"time":190.546875,"velocity":0.8031496062992126,"duration":0.23193359375},{"name":"A#3","midi":58,"time":190.78125,"velocity":0.8031496062992126,"duration":0.46630859375},{"name":"G5","midi":79,"time":190.78125,"velocity":0.8031496062992126,"duration":0.23193359375},{"name":"A#5","midi":82,"time":191.015625,"velocity":0.8031496062992126,"duration":0.23193359375},{"name":"C4","midi":60,"time":191.25,"velocity":0.8031496062992126,"duration":0.46630859375},{"name":"G#5","midi":80,"time":191.25,"velocity":0.8031496062992126,"duration":0.23193359375},{"name":"F5","midi":77,"time":191.484375,"velocity":0.8031496062992126,"duration":0.23193359375},{"name":"C3","midi":48,"time":191.71875,"velocity":0.8031496062992126,"duration":0.46630859375},{"name":"G5","midi":79,"time":191.71875,"velocity":0.8031496062992126,"duration":0.23193359375},{"name":"E5","midi":76,"time":191.953125,"velocity":0.8031496062992126,"duration":0.23193359375},{"name":"F3","midi":53,"time":192.1875,"velocity":0.8031496062992126,"duration":2.3193359375},{"name":"F5","midi":77,"time":192.1875,"velocity":0.8031496062992126,"duration":0.927734375},{"name":"A#4","midi":70,"time":192.421875,"velocity":0.8031496062992126,"duration":0.23193359375},{"name":"C5","midi":72,"time":192.65625,"velocity":0.8031496062992126,"duration":0.23193359375},{"name":"G4","midi":67,"time":192.890625,"velocity":0.8031496062992126,"duration":0.23193359375},{"name":"C4","midi":60,"time":193.125,"velocity":0.8031496062992126,"duration":1.611328125},{"name":"G#4","midi":68,"time":193.125,"velocity":0.8031496062992126,"duration":1.6357421875},{"name":"A#4","midi":70,"time":193.359375,"velocity":0.8031496062992126,"duration":0.23193359375},{"name":"C5","midi":72,"time":193.59375,"velocity":0.8031496062992126,"duration":1.220703125},{"name":"F5","midi":77,"time":193.828125,"velocity":0.8031496062992126,"duration":1.07421875},{"name":"F4","midi":65,"time":194.0625,"velocity":0.8031496062992126,"duration":0.78125},{"name":"D#3","midi":51,"time":194.53125,"velocity":0.8031496062992126,"duration":0.46630859375},{"name":"F3","midi":53,"time":195,"velocity":0.8031496062992126,"duration":0.46630859375},{"name":"D3","midi":50,"time":195,"velocity":0.8031496062992126,"duration":0.927734375},{"name":"G#5","midi":80,"time":195,"velocity":0.8031496062992126,"duration":0.46630859375},{"name":"G3","midi":55,"time":195.46875,"velocity":0.8031496062992126,"duration":0.23193359375},{"name":"A#4","midi":70,"time":195.46875,"velocity":0.8031496062992126,"duration":0.46630859375},{"name":"G#3","midi":56,"time":195.703125,"velocity":0.8031496062992126,"duration":1.87255859375},{"name":"A#2","midi":46,"time":195.9375,"velocity":0.8031496062992126,"duration":1.611328125},{"name":"C5","midi":72,"time":195.9375,"velocity":0.8031496062992126,"duration":0.46630859375},{"name":"D5","midi":74,"time":196.40625,"velocity":0.8031496062992126,"duration":0.46630859375},{"name":"D#5","midi":75,"time":196.875,"velocity":0.8031496062992126,"duration":0.46630859375},{"name":"F5","midi":77,"time":197.34375,"velocity":0.8031496062992126,"duration":0.46630859375},{"name":"D#3","midi":51,"time":197.8125,"velocity":0.8031496062992126,"duration":0.46630859375},{"name":"G5","midi":79,"time":197.8125,"velocity":0.8031496062992126,"duration":0.46630859375},{"name":"D#4","midi":63,"time":198.28125,"velocity":0.8031496062992126,"duration":0.46630859375},{"name":"G#5","midi":80,"time":198.28125,"velocity":0.8031496062992126,"duration":0.23193359375},{"name":"A#5","midi":82,"time":198.515625,"velocity":0.8031496062992126,"duration":0.23193359375},{"name":"C#4","midi":61,"time":198.75,"velocity":0.8031496062992126,"duration":0.46630859375},{"name":"A#5","midi":82,"time":198.75,"velocity":0.8031496062992126,"duration":1.63330078125},{"name":"C4","midi":60,"time":199.21875,"velocity":0.8031496062992126,"duration":0.46630859375},{"name":"A#3","midi":58,"time":199.6875,"velocity":0.8031496062992126,"duration":1.36474609375},{"name":"G#3","midi":56,"time":200.15625,"velocity":0.8031496062992126,"duration":0.46630859375},{"name":"G3","midi":55,"time":200.625,"velocity":0.8031496062992126,"duration":0.927734375},{"name":"C#5","midi":73,"time":200.625,"velocity":0.8031496062992126,"duration":0.46630859375},{"name":"C4","midi":60,"time":201.09375,"velocity":0.8031496062992126,"duration":0.23193359375},{"name":"D#4","midi":63,"time":201.09375,"velocity":0.8031496062992126,"duration":0.4443359375},{"name":"C#4","midi":61,"time":201.328125,"velocity":0.8031496062992126,"duration":2.0751953125},{"name":"D#3","midi":51,"time":201.5625,"velocity":0.8031496062992126,"duration":1.513671875},{"name":"F4","midi":65,"time":201.5625,"velocity":0.8031496062992126,"duration":0.46630859375},{"name":"G4","midi":67,"time":202.03125,"velocity":0.8031496062992126,"duration":0.46630859375},{"name":"G#4","midi":68,"time":202.5,"velocity":0.8031496062992126,"duration":0.46630859375},{"name":"A#4","midi":70,"time":202.96875,"velocity":0.8031496062992126,"duration":0.46630859375},{"name":"G#3","midi":56,"time":203.4375,"velocity":0.8031496062992126,"duration":0.46630859375},{"name":"C5","midi":72,"time":203.4375,"velocity":0.8031496062992126,"duration":0.23193359375},{"name":"C#5","midi":73,"time":203.671875,"velocity":0.8031496062992126,"duration":0.23193359375},{"name":"G#2","midi":44,"time":203.90625,"velocity":0.8031496062992126,"duration":0.46630859375},{"name":"D#5","midi":75,"time":203.90625,"velocity":0.8031496062992126,"duration":0.63232421875},{"name":"A#2","midi":46,"time":204.375,"velocity":0.8031496062992126,"duration":0.46630859375},{"name":"C#5","midi":73,"time":204.609375,"velocity":0.8031496062992126,"duration":0.23193359375},{"name":"C3","midi":48,"time":204.84375,"velocity":0.8031496062992126,"duration":0.46630859375},{"name":"C5","midi":72,"time":204.84375,"velocity":0.8031496062992126,"duration":0.23193359375},{"name":"A#4","midi":70,"time":205.078125,"velocity":0.8031496062992126,"duration":0.23193359375},{"name":"D3","midi":50,"time":205.3125,"velocity":0.8031496062992126,"duration":0.46630859375},{"name":"G#4","midi":68,"time":205.3125,"velocity":0.8031496062992126,"duration":0.23193359375},{"name":"G4","midi":67,"time":205.546875,"velocity":0.8031496062992126,"duration":0.23193359375},{"name":"D#3","midi":51,"time":205.78125,"velocity":0.8031496062992126,"duration":0.46630859375},{"name":"F4","midi":65,"time":205.78125,"velocity":0.8031496062992126,"duration":0.23193359375},{"name":"D#4","midi":63,"time":206.015625,"velocity":0.8031496062992126,"duration":0.23193359375},{"name":"F3","midi":53,"time":206.25,"velocity":0.8031496062992126,"duration":0.46630859375},{"name":"D4","midi":62,"time":206.25,"velocity":0.8031496062992126,"duration":1.87255859375},{"name":"D#4","midi":63,"time":206.484375,"velocity":0.8031496062992126,"duration":0.23193359375},{"name":"G3","midi":55,"time":206.71875,"velocity":0.8031496062992126,"duration":0.46630859375},{"name":"F4","midi":65,"time":206.71875,"velocity":0.8031496062992126,"duration":1.40380859375},{"name":"G#3","midi":56,"time":207.1875,"velocity":0.8031496062992126,"duration":0.46630859375},{"name":"A#4","midi":70,"time":207.1875,"velocity":0.8031496062992126,"duration":1.16943359375},{"name":"C4","midi":60,"time":207.65625,"velocity":0.8031496062992126,"duration":0.46630859375},{"name":"A#3","midi":58,"time":208.125,"velocity":0.8031496062992126,"duration":0.46630859375},{"name":"C5","midi":72,"time":208.359375,"velocity":0.8031496062992126,"duration":0.23193359375},{"name":"G#3","midi":56,"time":208.59375,"velocity":0.8031496062992126,"duration":0.46630859375},{"name":"D5","midi":74,"time":208.59375,"velocity":0.8031496062992126,"duration":0.23193359375},{"name":"D#5","midi":75,"time":208.828125,"velocity":0.8031496062992126,"duration":0.23193359375},{"name":"G3","midi":55,"time":209.0625,"velocity":0.8031496062992126,"duration":0.46630859375},{"name":"F5","midi":77,"time":209.0625,"velocity":0.8031496062992126,"duration":0.23193359375},{"name":"G5","midi":79,"time":209.296875,"velocity":0.8031496062992126,"duration":0.23193359375},{"name":"F3","midi":53,"time":209.53125,"velocity":0.8031496062992126,"duration":0.46630859375},{"name":"G#5","midi":80,"time":209.53125,"velocity":0.8031496062992126,"duration":1.40380859375},{"name":"D#3","midi":51,"time":210,"velocity":0.8031496062992126,"duration":0.46630859375},{"name":"A#4","midi":70,"time":210,"velocity":0.8031496062992126,"duration":1.16943359375},{"name":"D3","midi":50,"time":210.46875,"velocity":0.8031496062992126,"duration":0.46630859375},{"name":"C3","midi":48,"time":210.9375,"velocity":0.8031496062992126,"duration":0.46630859375},{"name":"D5","midi":74,"time":211.171875,"velocity":0.8031496062992126,"duration":0.23193359375},{"name":"A#2","midi":46,"time":211.40625,"velocity":0.8031496062992126,"duration":0.46630859375},{"name":"F5","midi":77,"time":211.40625,"velocity":0.8031496062992126,"duration":0.23193359375},{"name":"G#5","midi":80,"time":211.640625,"velocity":0.8031496062992126,"duration":0.20751953125},{"name":"G5","midi":79,"time":211.875,"velocity":0.8031496062992126,"duration":0.23681640625},{"name":"D#3","midi":51,"time":211.875,"velocity":0.8031496062992126,"duration":0.478515625},{"name":"F5","midi":77,"time":212.1142578125,"velocity":0.8031496062992126,"duration":0.23681640625},{"name":"D#5","midi":75,"time":212.35595703125,"velocity":0.8031496062992126,"duration":0.23681640625},{"name":"G3","midi":55,"time":212.35595703125,"velocity":0.8031496062992126,"duration":0.478515625},{"name":"G5","midi":79,"time":212.59765625,"velocity":0.8031496062992126,"duration":0.23681640625},{"name":"C5","midi":72,"time":212.83935546875,"velocity":0.8031496062992126,"duration":0.24658203125},{"name":"G#3","midi":56,"time":212.83935546875,"velocity":0.8031496062992126,"duration":0.50537109375},{"name":"D5","midi":74,"time":213.0908203125,"velocity":0.8031496062992126,"duration":0.24658203125},{"name":"D#5","midi":75,"time":213.34716796875,"velocity":0.8031496062992126,"duration":0.24658203125},{"name":"F3","midi":53,"time":213.34716796875,"velocity":0.8031496062992126,"duration":0.50537109375},{"name":"F5","midi":77,"time":213.603515625,"velocity":0.8031496062992126,"duration":0.5029296875},{"name":"A#3","midi":58,"time":213.85986328125,"velocity":0.8031496062992126,"duration":0.52001953125},{"name":"G#4","midi":68,"time":213.85986328125,"velocity":0.8031496062992126,"duration":1.3134765625},{"name":"F5","midi":77,"time":214.12109375,"velocity":0.8031496062992126,"duration":0.25390625},{"name":"A#2","midi":46,"time":214.384765625,"velocity":0.8031496062992126,"duration":0.52001953125},{"name":"D#5","midi":75,"time":214.384765625,"velocity":0.8031496062992126,"duration":0.25390625},{"name":"D5","midi":74,"time":214.6533203125,"velocity":0.8031496062992126,"duration":0.25390625},{"name":"D#5","midi":75,"time":214.9169921875,"velocity":0.8031496062992126,"duration":1.0693359375},{"name":"D#3","midi":51,"time":214.9169921875,"velocity":0.8031496062992126,"duration":3.2470703125},{"name":"A#4","midi":70,"time":215.185546875,"velocity":0.8031496062992126,"duration":0.26123046875},{"name":"C5","midi":72,"time":215.45654296875,"velocity":0.8031496062992126,"duration":0.26123046875},{"name":"G#4","midi":68,"time":215.7275390625,"velocity":0.8031496062992126,"duration":0.26123046875},{"name":"G4","midi":67,"time":216.0009765625,"velocity":0.8031496062992126,"duration":2.294921875},{"name":"A#3","midi":58,"time":216.0009765625,"velocity":0.8031496062992126,"duration":2.294921875},{"name":"G#4","midi":68,"time":216.28173828125,"velocity":0.8031496062992126,"duration":0.27587890625},{"name":"A#4","midi":70,"time":216.57470703125,"velocity":0.8031496062992126,"duration":1.71630859375},{"name":"D#5","midi":75,"time":216.8603515625,"velocity":0.8031496062992126,"duration":1.43310546875},{"name":"D#4","midi":63,"time":217.24609375,"velocity":0.8031496062992126,"duration":1.46484375},{"name":"D#5","midi":75,"time":223.125,"velocity":0.8031496062992126,"duration":0.23193359375},{"name":"A#4","midi":70,"time":223.359375,"velocity":0.8031496062992126,"duration":0.23193359375},{"name":"C5","midi":72,"time":223.59375,"velocity":0.8031496062992126,"duration":0.23193359375},{"name":"G#4","midi":68,"time":223.828125,"velocity":0.8031496062992126,"duration":0.23193359375},{"name":"D#4","midi":63,"time":224.0625,"velocity":0.8031496062992126,"duration":0.23193359375},{"name":"G#4","midi":68,"time":224.0625,"velocity":0.8031496062992126,"duration":0.078125},{"name":"G4","midi":67,"time":224.140625,"velocity":0.8031496062992126,"duration":0.078125},{"name":"G#4","midi":68,"time":224.21875,"velocity":0.8031496062992126,"duration":0.078125},{"name":"G4","midi":67,"time":224.296875,"velocity":0.8031496062992126,"duration":0.34912109375},{"name":"A#3","midi":58,"time":224.296875,"velocity":0.8031496062992126,"duration":0.23193359375},{"name":"C4","midi":60,"time":224.53125,"velocity":0.8031496062992126,"duration":0.23193359375},{"name":"G#3","midi":56,"time":224.765625,"velocity":0.8031496062992126,"duration":0.23193359375},{"name":"G#4","midi":68,"time":224.765625,"velocity":0.8031496062992126,"duration":0.23193359375},{"name":"G3","midi":55,"time":225,"velocity":0.8031496062992126,"duration":0.6591796875},{"name":"A#4","midi":70,"time":225,"velocity":0.8031496062992126,"duration":0.23193359375},{"name":"F4","midi":65,"time":225.234375,"velocity":0.8031496062992126,"duration":0.23193359375},{"name":"G4","midi":67,"time":225.46875,"velocity":0.8031496062992126,"duration":0.23193359375},{"name":"G#3","midi":56,"time":225.703125,"velocity":0.8031496062992126,"duration":0.23193359375},{"name":"D#4","midi":63,"time":225.703125,"velocity":0.8031496062992126,"duration":0.23193359375},{"name":"A#3","midi":58,"time":225.9375,"velocity":0.8031496062992126,"duration":0.23193359375},{"name":"D#4","midi":63,"time":225.9375,"velocity":0.8031496062992126,"duration":0.23193359375},{"name":"F3","midi":53,"time":226.171875,"velocity":0.8031496062992126,"duration":0.23193359375},{"name":"D4","midi":62,"time":226.171875,"velocity":0.8031496062992126,"duration":0.23193359375},{"name":"G3","midi":55,"time":226.40625,"velocity":0.8031496062992126,"duration":0.23193359375},{"name":"C4","midi":60,"time":226.40625,"velocity":0.8031496062992126,"duration":0.23193359375},{"name":"D#3","midi":51,"time":226.640625,"velocity":0.8031496062992126,"duration":0.23193359375},{"name":"A#3","midi":58,"time":226.640625,"velocity":0.8031496062992126,"duration":0.23193359375},{"name":"D3","midi":50,"time":226.875,"velocity":0.8031496062992126,"duration":0.439453125},{"name":"G#4","midi":68,"time":226.875,"velocity":0.8031496062992126,"duration":0.4638671875},{"name":"D#4","midi":63,"time":227.109375,"velocity":0.8031496062992126,"duration":0.23193359375},{"name":"A#2","midi":46,"time":227.34375,"velocity":0.8031496062992126,"duration":0.439453125},{"name":"F4","midi":65,"time":227.34375,"velocity":0.8031496062992126,"duration":0.23193359375},{"name":"D4","midi":62,"time":227.578125,"velocity":0.8031496062992126,"duration":0.23193359375},{"name":"D#3","midi":51,"time":227.8125,"velocity":0.8031496062992126,"duration":0.62255859375},{"name":"G4","midi":67,"time":227.8125,"velocity":0.8031496062992126,"duration":0.4638671875},{"name":"D4","midi":62,"time":228.046875,"velocity":0.8031496062992126,"duration":0.23193359375},{"name":"D#4","midi":63,"time":228.28125,"velocity":0.8031496062992126,"duration":0.23193359375},{"name":"G3","midi":55,"time":228.515625,"velocity":0.8031496062992126,"duration":0.23193359375},{"name":"A#4","midi":70,"time":228.515625,"velocity":0.8031496062992126,"duration":0.23193359375},{"name":"G#3","midi":56,"time":228.75,"velocity":0.8031496062992126,"duration":0.439453125},{"name":"C5","midi":72,"time":228.75,"velocity":0.8031496062992126,"duration":0.23193359375},{"name":"G4","midi":67,"time":228.984375,"velocity":0.8031496062992126,"duration":0.23193359375},{"name":"F3","midi":53,"time":229.21875,"velocity":0.8031496062992126,"duration":0.439453125},{"name":"G#4","midi":68,"time":229.21875,"velocity":0.8031496062992126,"duration":0.23193359375},{"name":"F5","midi":77,"time":229.453125,"velocity":0.8031496062992126,"duration":0.23193359375},{"name":"A#3","midi":58,"time":229.6875,"velocity":0.8031496062992126,"duration":0.23193359375},{"name":"D#5","midi":75,"time":229.6875,"velocity":0.8031496062992126,"duration":0.11474609375},{"name":"D5","midi":74,"time":229.8046875,"velocity":0.8031496062992126,"duration":0.33203125},{"name":"G#3","midi":56,"time":229.921875,"velocity":0.8031496062992126,"duration":0.23193359375},{"name":"G3","midi":55,"time":230.15625,"velocity":0.8031496062992126,"duration":0.23193359375},{"name":"C5","midi":72,"time":230.15625,"velocity":0.8031496062992126,"duration":0.11474609375},{"name":"A#4","midi":70,"time":230.2734375,"velocity":0.8031496062992126,"duration":0.29296875},{"name":"F3","midi":53,"time":230.390625,"velocity":0.8031496062992126,"duration":0.23193359375},{"name":"D#3","midi":51,"time":230.625,"velocity":0.8031496062992126,"duration":0.78125},{"name":"D#5","midi":75,"time":230.625,"velocity":0.8031496062992126,"duration":0.23193359375},{"name":"A#4","midi":70,"time":230.859375,"velocity":0.8031496062992126,"duration":0.23193359375},{"name":"C5","midi":72,"time":231.09375,"velocity":0.8031496062992126,"duration":0.23193359375},{"name":"G#4","midi":68,"time":231.328125,"velocity":0.8031496062992126,"duration":0.23193359375},{"name":"D#4","midi":63,"time":231.5625,"velocity":0.8031496062992126,"duration":0.23193359375},{"name":"G#4","midi":68,"time":231.5625,"velocity":0.8031496062992126,"duration":0.078125},{"name":"G4","midi":67,"time":231.640625,"velocity":0.8031496062992126,"duration":0.078125},{"name":"G#4","midi":68,"time":231.71875,"velocity":0.8031496062992126,"duration":0.078125},{"name":"G4","midi":67,"time":231.796875,"velocity":0.8031496062992126,"duration":0.34912109375},{"name":"A#3","midi":58,"time":231.796875,"velocity":0.8031496062992126,"duration":0.23193359375},{"name":"C4","midi":60,"time":232.03125,"velocity":0.8031496062992126,"duration":0.23193359375},{"name":"G#3","midi":56,"time":232.265625,"velocity":0.8031496062992126,"duration":0.23193359375},{"name":"G#4","midi":68,"time":232.265625,"velocity":0.8031496062992126,"duration":0.23193359375},{"name":"G3","midi":55,"time":232.5,"velocity":0.8031496062992126,"duration":0.6591796875},{"name":"A#4","midi":70,"time":232.5,"velocity":0.8031496062992126,"duration":0.23193359375},{"name":"F4","midi":65,"time":232.734375,"velocity":0.8031496062992126,"duration":0.23193359375},{"name":"G4","midi":67,"time":232.96875,"velocity":0.8031496062992126,"duration":0.23193359375},{"name":"A3","midi":57,"time":233.203125,"velocity":0.8031496062992126,"duration":0.23193359375},{"name":"D#5","midi":75,"time":233.203125,"velocity":0.8031496062992126,"duration":0.23193359375},{"name":"A#3","midi":58,"time":233.4375,"velocity":0.8031496062992126,"duration":0.23193359375},{"name":"D#5","midi":75,"time":233.4375,"velocity":0.8031496062992126,"duration":0.078125},{"name":"D5","midi":74,"time":233.515625,"velocity":0.8031496062992126,"duration":0.078125},{"name":"D#5","midi":75,"time":233.59375,"velocity":0.8031496062992126,"duration":0.078125},{"name":"D5","midi":74,"time":233.671875,"velocity":0.8031496062992126,"duration":0.34912109375},{"name":"F3","midi":53,"time":233.671875,"velocity":0.8031496062992126,"duration":0.23193359375},{"name":"G3","midi":55,"time":233.90625,"velocity":0.8031496062992126,"duration":0.23193359375},{"name":"D#3","midi":51,"time":234.140625,"velocity":0.8031496062992126,"duration":0.23193359375},{"name":"D#5","midi":75,"time":234.140625,"velocity":0.8031496062992126,"duration":0.23193359375},{"name":"D3","midi":50,"time":234.375,"velocity":0.8031496062992126,"duration":0.439453125},{"name":"F5","midi":77,"time":234.375,"velocity":0.8031496062992126,"duration":0.4638671875},{"name":"C5","midi":72,"time":234.609375,"velocity":0.8031496062992126,"duration":0.23193359375},{"name":"A#2","midi":46,"time":234.84375,"velocity":0.8031496062992126,"duration":0.439453125},{"name":"D5","midi":74,"time":234.84375,"velocity":0.8031496062992126,"duration":0.23193359375},{"name":"A#4","midi":70,"time":235.078125,"velocity":0.8031496062992126,"duration":0.23193359375},{"name":"D#3","midi":51,"time":235.3125,"velocity":0.8031496062992126,"duration":0.46630859375},{"name":"A4","midi":69,"time":235.3125,"velocity":0.8031496062992126,"duration":0.2685546875},{"name":"G5","midi":79,"time":235.546875,"velocity":0.8031496062992126,"duration":0.23193359375},{"name":"D3","midi":50,"time":235.78125,"velocity":0.8031496062992126,"duration":0.23193359375},{"name":"F5","midi":77,"time":235.78125,"velocity":0.8031496062992126,"duration":0.341796875},{"name":"D#3","midi":51,"time":236.015625,"velocity":0.8031496062992126,"duration":0.23193359375},{"name":"A#4","midi":70,"time":236.015625,"velocity":0.8031496062992126,"duration":0.23193359375},{"name":"F3","midi":53,"time":236.25,"velocity":0.8031496062992126,"duration":0.48828125},{"name":"D5","midi":74,"time":236.25,"velocity":0.8031496062992126,"duration":0.23193359375},{"name":"C5","midi":72,"time":236.484375,"velocity":0.8031496062992126,"duration":0.23193359375},{"name":"F2","midi":41,"time":236.71875,"velocity":0.8031496062992126,"duration":0.439453125},{"name":"A#4","midi":70,"time":236.71875,"velocity":0.8031496062992126,"duration":0.23193359375},{"name":"A4","midi":69,"time":236.953125,"velocity":0.8031496062992126,"duration":0.23193359375},{"name":"A#2","midi":46,"time":237.1875,"velocity":0.8031496062992126,"duration":0.93505859375},{"name":"A#4","midi":70,"time":237.1875,"velocity":0.8031496062992126,"duration":0.68359375},{"name":"F5","midi":77,"time":238.125,"velocity":0.8031496062992126,"duration":0.23193359375},{"name":"C5","midi":72,"time":238.359375,"velocity":0.8031496062992126,"duration":0.23193359375},{"name":"D5","midi":74,"time":238.59375,"velocity":0.8031496062992126,"duration":0.23193359375},{"name":"A#4","midi":70,"time":238.828125,"velocity":0.8031496062992126,"duration":0.23193359375},{"name":"F3","midi":53,"time":239.0625,"velocity":0.8031496062992126,"duration":0.23193359375},{"name":"G#5","midi":80,"time":239.0625,"velocity":0.8031496062992126,"duration":0.11474609375},{"name":"G5","midi":79,"time":239.1796875,"velocity":0.8031496062992126,"duration":0.11474609375},{"name":"C3","midi":48,"time":239.296875,"velocity":0.8031496062992126,"duration":0.23193359375},{"name":"G#5","midi":80,"time":239.296875,"velocity":0.8031496062992126,"duration":0.46630859375},{"name":"D3","midi":50,"time":239.53125,"velocity":0.8031496062992126,"duration":0.23193359375},{"name":"A#2","midi":46,"time":239.765625,"velocity":0.8031496062992126,"duration":0.23193359375},{"name":"A#4","midi":70,"time":239.765625,"velocity":0.8031496062992126,"duration":0.23193359375},{"name":"A#3","midi":58,"time":240,"velocity":0.8031496062992126,"duration":0.6591796875},{"name":"D5","midi":74,"time":240,"velocity":0.8031496062992126,"duration":0.23193359375},{"name":"F5","midi":77,"time":240.234375,"velocity":0.8031496062992126,"duration":0.23193359375},{"name":"G#5","midi":80,"time":240.46875,"velocity":0.8031496062992126,"duration":0.23193359375},{"name":"D3","midi":50,"time":240.703125,"velocity":0.8031496062992126,"duration":0.23193359375},{"name":"F5","midi":77,"time":240.703125,"velocity":0.8031496062992126,"duration":0.23193359375},{"name":"D#3","midi":51,"time":240.9375,"velocity":0.8031496062992126,"duration":0.23193359375},{"name":"G5","midi":79,"time":240.9375,"velocity":0.8031496062992126,"duration":0.11474609375},{"name":"F5","midi":77,"time":241.0546875,"velocity":0.8031496062992126,"duration":0.11474609375},{"name":"B2","midi":47,"time":241.171875,"velocity":0.8031496062992126,"duration":0.23193359375},{"name":"G5","midi":79,"time":241.171875,"velocity":0.8031496062992126,"duration":0.78125},{"name":"C3","midi":48,"time":241.40625,"velocity":0.8031496062992126,"duration":0.23193359375},{"name":"G2","midi":43,"time":241.640625,"velocity":0.8031496062992126,"duration":0.23193359375},{"name":"G#2","midi":44,"time":241.875,"velocity":0.8031496062992126,"duration":1.171875},{"name":"D5","midi":74,"time":242.109375,"velocity":0.8031496062992126,"duration":0.23193359375},{"name":"D#5","midi":75,"time":242.34375,"velocity":0.8031496062992126,"duration":0.23193359375},{"name":"C5","midi":72,"time":242.578125,"velocity":0.8031496062992126,"duration":0.23193359375},{"name":"F5","midi":77,"time":242.8125,"velocity":0.8031496062992126,"duration":0.23193359375},{"name":"C5","midi":72,"time":243.046875,"velocity":0.8031496062992126,"duration":0.23193359375},{"name":"G#3","midi":56,"time":243.28125,"velocity":0.8031496062992126,"duration":0.46630859375},{"name":"D5","midi":74,"time":243.28125,"velocity":0.8031496062992126,"duration":0.23193359375},{"name":"B4","midi":71,"time":243.515625,"velocity":0.8031496062992126,"duration":0.23193359375},{"name":"G3","midi":55,"time":243.75,"velocity":0.8031496062992126,"duration":0.46630859375},{"name":"D#5","midi":75,"time":243.75,"velocity":0.8031496062992126,"duration":0.23193359375},{"name":"B4","midi":71,"time":243.984375,"velocity":0.8031496062992126,"duration":0.23193359375},{"name":"F#3","midi":54,"time":244.21875,"velocity":0.8031496062992126,"duration":0.46630859375},{"name":"C5","midi":72,"time":244.21875,"velocity":0.8031496062992126,"duration":0.23193359375},{"name":"A4","midi":69,"time":244.453125,"velocity":0.8031496062992126,"duration":0.23193359375},{"name":"G3","midi":55,"time":244.6875,"velocity":0.8031496062992126,"duration":0.46630859375},{"name":"C5","midi":72,"time":244.6875,"velocity":0.8031496062992126,"duration":0.23193359375},{"name":"B4","midi":71,"time":244.921875,"velocity":0.8031496062992126,"duration":0.23193359375},{"name":"F3","midi":53,"time":245.15625,"velocity":0.8031496062992126,"duration":0.46630859375},{"name":"A4","midi":69,"time":245.15625,"velocity":0.8031496062992126,"duration":0.23193359375},{"name":"G4","midi":67,"time":245.390625,"velocity":0.8031496062992126,"duration":0.205078125},{"name":"D#3","midi":51,"time":245.625,"velocity":0.8031496062992126,"duration":0.439453125},{"name":"G5","midi":79,"time":245.625,"velocity":0.8031496062992126,"duration":0.23193359375},{"name":"D5","midi":74,"time":245.859375,"velocity":0.8031496062992126,"duration":0.23193359375},{"name":"C3","midi":48,"time":246.09375,"velocity":0.8031496062992126,"duration":0.439453125},{"name":"D#5","midi":75,"time":246.09375,"velocity":0.8031496062992126,"duration":0.23193359375},{"name":"C5","midi":72,"time":246.328125,"velocity":0.8031496062992126,"duration":0.23193359375},{"name":"C#3","midi":49,"time":246.5625,"velocity":0.8031496062992126,"duration":0.23193359375},{"name":"A#5","midi":82,"time":246.5625,"velocity":0.8031496062992126,"duration":0.5859375},{"name":"F3","midi":53,"time":246.796875,"velocity":0.8031496062992126,"duration":0.23193359375},{"name":"G3","midi":55,"time":247.03125,"velocity":0.8031496062992126,"duration":0.23193359375},{"name":"A#3","midi":58,"time":247.265625,"velocity":0.8031496062992126,"duration":0.23193359375},{"name":"C5","midi":72,"time":247.265625,"velocity":0.8031496062992126,"duration":0.23193359375},{"name":"E3","midi":52,"time":247.5,"velocity":0.8031496062992126,"duration":0.439453125},{"name":"C#5","midi":73,"time":247.5,"velocity":0.8031496062992126,"duration":0.23193359375},{"name":"A#4","midi":70,"time":247.734375,"velocity":0.8031496062992126,"duration":0.23193359375},{"name":"C3","midi":48,"time":247.96875,"velocity":0.8031496062992126,"duration":0.439453125},{"name":"C5","midi":72,"time":247.96875,"velocity":0.8031496062992126,"duration":0.23193359375},{"name":"A#5","midi":82,"time":248.203125,"velocity":0.8031496062992126,"duration":0.23193359375},{"name":"F3","midi":53,"time":248.4375,"velocity":0.8031496062992126,"duration":0.23193359375},{"name":"G#5","midi":80,"time":248.4375,"velocity":0.8031496062992126,"duration":0.5859375},{"name":"E3","midi":52,"time":248.671875,"velocity":0.8031496062992126,"duration":0.23193359375},{"name":"F3","midi":53,"time":248.90625,"velocity":0.8031496062992126,"duration":0.23193359375},{"name":"C3","midi":48,"time":249.140625,"velocity":0.8031496062992126,"duration":0.23193359375},{"name":"G5","midi":79,"time":249.140625,"velocity":0.8031496062992126,"duration":0.23193359375},{"name":"G#3","midi":56,"time":249.375,"velocity":0.8031496062992126,"duration":0.46630859375},{"name":"F5","midi":77,"time":249.375,"velocity":0.8031496062992126,"duration":0.23193359375},{"name":"C5","midi":72,"time":249.609375,"velocity":0.8031496062992126,"duration":0.23193359375},{"name":"G3","midi":55,"time":249.84375,"velocity":0.8031496062992126,"duration":0.23193359375},{"name":"D5","midi":74,"time":249.84375,"velocity":0.8031496062992126,"duration":0.23193359375},{"name":"F3","midi":53,"time":250.078125,"velocity":0.8031496062992126,"duration":0.23193359375},{"name":"B4","midi":71,"time":250.078125,"velocity":0.8031496062992126,"duration":0.23193359375},{"name":"D#3","midi":51,"time":250.3125,"velocity":0.8031496062992126,"duration":0.439453125},{"name":"G5","midi":79,"time":250.3125,"velocity":0.8031496062992126,"duration":0.23193359375},{"name":"D5","midi":74,"time":250.546875,"velocity":0.8031496062992126,"duration":0.23193359375},{"name":"C3","midi":48,"time":250.78125,"velocity":0.8031496062992126,"duration":0.439453125},{"name":"D#5","midi":75,"time":250.78125,"velocity":0.8031496062992126,"duration":0.23193359375},{"name":"C5","midi":72,"time":251.015625,"velocity":0.8031496062992126,"duration":0.23193359375},{"name":"G3","midi":55,"time":251.25,"velocity":0.8031496062992126,"duration":0.48828125},{"name":"G4","midi":67,"time":251.25,"velocity":0.8031496062992126,"duration":0.23193359375},{"name":"C5","midi":72,"time":251.484375,"velocity":0.8031496062992126,"duration":0.23193359375},{"name":"G2","midi":43,"time":251.71875,"velocity":0.8031496062992126,"duration":0.439453125},{"name":"D5","midi":74,"time":251.71875,"velocity":0.8031496062992126,"duration":0.23193359375},{"name":"B4","midi":71,"time":251.953125,"velocity":0.8031496062992126,"duration":0.23193359375},{"name":"C4","midi":60,"time":252.1875,"velocity":0.8031496062992126,"duration":0.23193359375},{"name":"C5","midi":72,"time":252.1875,"velocity":0.8031496062992126,"duration":0.11474609375},{"name":"B4","midi":71,"time":252.3046875,"velocity":0.8031496062992126,"duration":0.11474609375},{"name":"G3","midi":55,"time":252.421875,"velocity":0.8031496062992126,"duration":0.23193359375},{"name":"C5","midi":72,"time":252.421875,"velocity":0.8031496062992126,"duration":0.68359375},{"name":"G#3","midi":56,"time":252.65625,"velocity":0.8031496062992126,"duration":0.23193359375},{"name":"F3","midi":53,"time":252.890625,"velocity":0.8031496062992126,"duration":0.23193359375},{"name":"E3","midi":52,"time":253.125,"velocity":0.8031496062992126,"duration":0.439453125},{"name":"F5","midi":77,"time":253.359375,"velocity":0.8031496062992126,"duration":0.23193359375},{"name":"C3","midi":48,"time":253.59375,"velocity":0.8031496062992126,"duration":0.439453125},{"name":"E5","midi":76,"time":253.59375,"velocity":0.8031496062992126,"duration":0.23193359375},{"name":"A#5","midi":82,"time":253.828125,"velocity":0.8031496062992126,"duration":0.23193359375},{"name":"F3","midi":53,"time":254.0625,"velocity":0.8031496062992126,"duration":0.23193359375},{"name":"G#5","midi":80,"time":254.0625,"velocity":0.8031496062992126,"duration":0.23193359375},{"name":"G3","midi":55,"time":254.296875,"velocity":0.8031496062992126,"duration":0.23193359375},{"name":"E5","midi":76,"time":254.296875,"velocity":0.8031496062992126,"duration":0.23193359375},{"name":"G#3","midi":56,"time":254.53125,"velocity":0.8031496062992126,"duration":0.23193359375},{"name":"F5","midi":77,"time":254.53125,"velocity":0.8031496062992126,"duration":0.23193359375},{"name":"F3","midi":53,"time":254.765625,"velocity":0.8031496062992126,"duration":0.23193359375},{"name":"D5","midi":74,"time":254.765625,"velocity":0.8031496062992126,"duration":0.23193359375},{"name":"D3","midi":50,"time":255,"velocity":0.8031496062992126,"duration":0.439453125},{"name":"A#4","midi":70,"time":255,"velocity":0.8031496062992126,"duration":0.23193359375},{"name":"D#5","midi":75,"time":255.234375,"velocity":0.8031496062992126,"duration":0.23193359375},{"name":"A#2","midi":46,"time":255.46875,"velocity":0.8031496062992126,"duration":0.439453125},{"name":"D5","midi":74,"time":255.46875,"velocity":0.8031496062992126,"duration":0.23193359375},{"name":"G#5","midi":80,"time":255.703125,"velocity":0.8031496062992126,"duration":0.23193359375},{"name":"D#3","midi":51,"time":255.9375,"velocity":0.8031496062992126,"duration":0.23193359375},{"name":"G5","midi":79,"time":255.9375,"velocity":0.8031496062992126,"duration":0.23193359375},{"name":"F3","midi":53,"time":256.171875,"velocity":0.8031496062992126,"duration":0.23193359375},{"name":"D5","midi":74,"time":256.171875,"velocity":0.8031496062992126,"duration":0.23193359375},{"name":"G3","midi":55,"time":256.40625,"velocity":0.8031496062992126,"duration":0.23193359375},{"name":"D#5","midi":75,"time":256.40625,"velocity":0.8031496062992126,"duration":0.23193359375},{"name":"D#3","midi":51,"time":256.640625,"velocity":0.8031496062992126,"duration":0.23193359375},{"name":"C5","midi":72,"time":256.640625,"velocity":0.8031496062992126,"duration":0.23193359375},{"name":"C3","midi":48,"time":256.875,"velocity":0.8031496062992126,"duration":0.23193359375},{"name":"G#4","midi":68,"time":256.875,"velocity":0.8031496062992126,"duration":0.68359375},{"name":"G3","midi":55,"time":257.109375,"velocity":0.8031496062992126,"duration":0.23193359375},{"name":"D#5","midi":75,"time":257.109375,"velocity":0.8031496062992126,"duration":0.23193359375},{"name":"F3","midi":53,"time":257.34375,"velocity":0.8031496062992126,"duration":0.23193359375},{"name":"D5","midi":74,"time":257.34375,"velocity":0.8031496062992126,"duration":0.23193359375},{"name":"G#3","midi":56,"time":257.578125,"velocity":0.8031496062992126,"duration":0.23193359375},{"name":"F5","midi":77,"time":257.578125,"velocity":0.8031496062992126,"duration":0.23193359375},{"name":"A#2","midi":46,"time":257.8125,"velocity":0.8031496062992126,"duration":0.23193359375},{"name":"G4","midi":67,"time":257.8125,"velocity":0.8031496062992126,"duration":0.68359375},{"name":"G3","midi":55,"time":258.046875,"velocity":0.8031496062992126,"duration":0.23193359375},{"name":"D5","midi":74,"time":258.046875,"velocity":0.8031496062992126,"duration":0.23193359375},{"name":"D#3","midi":51,"time":258.28125,"velocity":0.8031496062992126,"duration":0.23193359375},{"name":"C5","midi":72,"time":258.28125,"velocity":0.8031496062992126,"duration":0.23193359375},{"name":"G3","midi":55,"time":258.515625,"velocity":0.8031496062992126,"duration":0.23193359375},{"name":"D#5","midi":75,"time":258.515625,"velocity":0.8031496062992126,"duration":0.23193359375},{"name":"G#2","midi":44,"time":258.75,"velocity":0.8031496062992126,"duration":0.23193359375},{"name":"F4","midi":65,"time":258.75,"velocity":0.8031496062992126,"duration":0.68359375},{"name":"D#3","midi":51,"time":258.984375,"velocity":0.8031496062992126,"duration":0.23193359375},{"name":"C5","midi":72,"time":258.984375,"velocity":0.8031496062992126,"duration":0.23193359375},{"name":"C#3","midi":49,"time":259.21875,"velocity":0.8031496062992126,"duration":0.23193359375},{"name":"A#4","midi":70,"time":259.21875,"velocity":0.8031496062992126,"duration":0.23193359375},{"name":"F3","midi":53,"time":259.453125,"velocity":0.8031496062992126,"duration":0.23193359375},{"name":"C#5","midi":73,"time":259.453125,"velocity":0.8031496062992126,"duration":1.171875},{"name":"A#2","midi":46,"time":259.6875,"velocity":0.8031496062992126,"duration":0.23193359375},{"name":"D#4","midi":63,"time":259.6875,"velocity":0.8031496062992126,"duration":0.830078125},{"name":"F2","midi":41,"time":259.921875,"velocity":0.8031496062992126,"duration":0.23193359375},{"name":"G2","midi":43,"time":260.15625,"velocity":0.8031496062992126,"duration":0.23193359375},{"name":"D#2","midi":39,"time":260.390625,"velocity":0.8031496062992126,"duration":0.23193359375},{"name":"C5","midi":72,"time":260.625,"velocity":0.8031496062992126,"duration":0.23681640625},{"name":"G#2","midi":44,"time":260.625,"velocity":0.8031496062992126,"duration":0.45166015625},{"name":"G4","midi":67,"time":260.8642578125,"velocity":0.8031496062992126,"duration":0.23681640625},{"name":"G#4","midi":68,"time":261.10595703125,"velocity":0.8031496062992126,"duration":0.23681640625},{"name":"F2","midi":41,"time":261.10595703125,"velocity":0.8031496062992126,"duration":0.45166015625},{"name":"F4","midi":65,"time":261.34765625,"velocity":0.8031496062992126,"duration":0.23681640625},{"name":"D4","midi":62,"time":261.58935546875,"velocity":0.8031496062992126,"duration":0.24658203125},{"name":"A#2","midi":46,"time":261.58935546875,"velocity":0.8031496062992126,"duration":0.69091796875},{"name":"C5","midi":72,"time":261.8408203125,"velocity":0.8031496062992126,"duration":0.24658203125},{"name":"A#4","midi":70,"time":262.09716796875,"velocity":0.8031496062992126,"duration":0.24658203125},{"name":"G#5","midi":80,"time":262.353515625,"velocity":0.8031496062992126,"duration":0.24658203125},{"name":"D3","midi":50,"time":262.353515625,"velocity":0.8031496062992126,"duration":0.24658203125},{"name":"G5","midi":79,"time":262.60986328125,"velocity":0.8031496062992126,"duration":0.26123046875},{"name":"D#3","midi":51,"time":262.60986328125,"velocity":0.8031496062992126,"duration":0.26123046875},{"name":"D#5","midi":75,"time":262.8759765625,"velocity":0.8031496062992126,"duration":0.26123046875},{"name":"G3","midi":55,"time":262.8759765625,"velocity":0.8031496062992126,"duration":0.26123046875},{"name":"A#4","midi":70,"time":263.15185546875,"velocity":0.8031496062992126,"duration":0.26123046875},{"name":"A#3","midi":58,"time":263.15185546875,"velocity":0.8031496062992126,"duration":0.26123046875},{"name":"D5","midi":74,"time":263.4228515625,"velocity":0.8031496062992126,"duration":0.29296875},{"name":"A#2","midi":46,"time":263.4228515625,"velocity":0.8031496062992126,"duration":0.29296875},{"name":"D#5","midi":75,"time":263.75,"velocity":0.8031496062992126,"duration":1.66015625},{"name":"D#2","midi":39,"time":263.75,"velocity":0.8031496062992126,"duration":1.66015625},{"name":"D#3","midi":51,"time":268.125,"velocity":0.8031496062992126,"duration":0.23193359375},{"name":"G4","midi":67,"time":268.125,"velocity":0.8031496062992126,"duration":0.23193359375},{"name":"F3","midi":53,"time":268.359375,"velocity":0.8031496062992126,"duration":0.23193359375},{"name":"A#4","midi":70,"time":268.359375,"velocity":0.8031496062992126,"duration":0.23193359375},{"name":"G3","midi":55,"time":268.59375,"velocity":0.8031496062992126,"duration":0.46630859375},{"name":"D#5","midi":75,"time":268.59375,"velocity":0.8031496062992126,"duration":0.23193359375},{"name":"C#5","midi":73,"time":268.828125,"velocity":0.8031496062992126,"duration":0.23193359375},{"name":"D#3","midi":51,"time":269.0625,"velocity":0.8031496062992126,"duration":0.46630859375},{"name":"C#5","midi":73,"time":269.0625,"velocity":0.8031496062992126,"duration":0.23193359375},{"name":"C5","midi":72,"time":269.296875,"velocity":0.8031496062992126,"duration":0.23193359375},{"name":"G#3","midi":56,"time":269.53125,"velocity":0.8031496062992126,"duration":0.46630859375},{"name":"C5","midi":72,"time":269.53125,"velocity":0.8031496062992126,"duration":0.23193359375},{"name":"D#5","midi":75,"time":269.765625,"velocity":0.8031496062992126,"duration":0.23193359375},{"name":"G3","midi":55,"time":270,"velocity":0.8031496062992126,"duration":0.46630859375},{"name":"A#4","midi":70,"time":270,"velocity":0.8031496062992126,"duration":0.23193359375},{"name":"D#5","midi":75,"time":270.234375,"velocity":0.8031496062992126,"duration":0.23193359375},{"name":"F3","midi":53,"time":270.46875,"velocity":0.8031496062992126,"duration":0.46630859375},{"name":"G#4","midi":68,"time":270.46875,"velocity":0.8031496062992126,"duration":0.23193359375},{"name":"F5","midi":77,"time":270.703125,"velocity":0.8031496062992126,"duration":0.23193359375},{"name":"D#3","midi":51,"time":270.9375,"velocity":0.8031496062992126,"duration":0.23193359375},{"name":"G#4","midi":68,"time":270.9375,"velocity":0.8031496062992126,"duration":0.078125},{"name":"G4","midi":67,"time":271.015625,"velocity":0.8031496062992126,"duration":0.078125},{"name":"G#4","midi":68,"time":271.09375,"velocity":0.8031496062992126,"duration":0.078125},{"name":"G4","midi":67,"time":271.171875,"velocity":0.8031496062992126,"duration":0.8056640625},{"name":"A#3","midi":58,"time":271.171875,"velocity":0.8031496062992126,"duration":0.23193359375},{"name":"D#4","midi":63,"time":271.40625,"velocity":0.8031496062992126,"duration":0.23193359375},{"name":"C#4","midi":61,"time":271.640625,"velocity":0.8031496062992126,"duration":0.23193359375},{"name":"C#4","midi":61,"time":271.875,"velocity":0.8031496062992126,"duration":0.23193359375},{"name":"C4","midi":60,"time":272.109375,"velocity":0.8031496062992126,"duration":0.23193359375},{"name":"G#4","midi":68,"time":272.109375,"velocity":0.8031496062992126,"duration":0.11474609375},{"name":"A#4","midi":70,"time":272.2265625,"velocity":0.8031496062992126,"duration":0.11474609375},{"name":"C4","midi":60,"time":272.34375,"velocity":0.8031496062992126,"duration":0.23193359375},{"name":"A#4","midi":70,"time":272.34375,"velocity":0.8031496062992126,"duration":0.11474609375},{"name":"G#4","midi":68,"time":272.4609375,"velocity":0.8031496062992126,"duration":0.11474609375},{"name":"D#4","midi":63,"time":272.578125,"velocity":0.8031496062992126,"duration":0.23193359375},{"name":"A#4","midi":70,"time":272.578125,"velocity":0.8031496062992126,"duration":0.11474609375},{"name":"G#4","midi":68,"time":272.6953125,"velocity":0.8031496062992126,"duration":0.11474609375},{"name":"A#3","midi":58,"time":272.8125,"velocity":0.8031496062992126,"duration":0.23193359375},{"name":"G4","midi":67,"time":272.8125,"velocity":0.8031496062992126,"duration":0.46630859375},{"name":"D#4","midi":63,"time":273.046875,"velocity":0.8031496062992126,"duration":0.23193359375},{"name":"G#3","midi":56,"time":273.28125,"velocity":0.8031496062992126,"duration":0.23193359375},{"name":"C5","midi":72,"time":273.28125,"velocity":0.8031496062992126,"duration":0.439453125},{"name":"F4","midi":65,"time":273.515625,"velocity":0.8031496062992126,"duration":0.23193359375},{"name":"G3","midi":55,"time":273.75,"velocity":0.8031496062992126,"duration":0.23193359375},{"name":"A#4","midi":70,"time":273.75,"velocity":0.8031496062992126,"duration":0.23193359375},{"name":"A#3","midi":58,"time":273.984375,"velocity":0.8031496062992126,"duration":0.23193359375},{"name":"D#5","midi":75,"time":273.984375,"velocity":0.8031496062992126,"duration":0.23193359375},{"name":"D#4","midi":63,"time":274.21875,"velocity":0.8031496062992126,"duration":0.46630859375},{"name":"G5","midi":79,"time":274.21875,"velocity":0.8031496062992126,"duration":0.23193359375},{"name":"F5","midi":77,"time":274.453125,"velocity":0.8031496062992126,"duration":0.23193359375},{"name":"D4","midi":62,"time":274.6875,"velocity":0.8031496062992126,"duration":0.46630859375},{"name":"F5","midi":77,"time":274.6875,"velocity":0.8031496062992126,"duration":0.23193359375},{"name":"D#5","midi":75,"time":274.921875,"velocity":0.8031496062992126,"duration":0.23193359375},{"name":"C4","midi":60,"time":275.15625,"velocity":0.8031496062992126,"duration":0.23193359375},{"name":"A4","midi":69,"time":275.15625,"velocity":0.8031496062992126,"duration":0.23193359375},{"name":"A3","midi":57,"time":275.390625,"velocity":0.8031496062992126,"duration":0.23193359375},{"name":"C5","midi":72,"time":275.390625,"velocity":0.8031496062992126,"duration":0.23193359375},{"name":"F3","midi":53,"time":275.625,"velocity":0.8031496062992126,"duration":0.46630859375},{"name":"D#5","midi":75,"time":275.625,"velocity":0.8031496062992126,"duration":0.23193359375},{"name":"D5","midi":74,"time":275.859375,"velocity":0.8031496062992126,"duration":0.23193359375},{"name":"A#3","midi":58,"time":276.09375,"velocity":0.8031496062992126,"duration":0.46630859375},{"name":"D5","midi":74,"time":276.09375,"velocity":0.8031496062992126,"duration":0.23193359375},{"name":"C5","midi":72,"time":276.328125,"velocity":0.8031496062992126,"duration":0.23193359375},{"name":"D#3","midi":51,"time":276.5625,"velocity":0.8031496062992126,"duration":0.46630859375},{"name":"C5","midi":72,"time":276.5625,"velocity":0.8031496062992126,"duration":0.29296875},{"name":"A#5","midi":82,"time":276.796875,"velocity":0.8031496062992126,"duration":0.23193359375},{"name":"F3","midi":53,"time":277.03125,"velocity":0.8031496062992126,"duration":0.46630859375},{"name":"D5","midi":74,"time":277.03125,"velocity":0.8031496062992126,"duration":0.29296875},{"name":"A#5","midi":82,"time":277.265625,"velocity":0.8031496062992126,"duration":0.23193359375},{"name":"F2","midi":41,"time":277.5,"velocity":0.8031496062992126,"duration":0.46630859375},{"name":"D#5","midi":75,"time":277.5,"velocity":0.8031496062992126,"duration":0.2685546875},{"name":"A5","midi":81,"time":277.734375,"velocity":0.8031496062992126,"duration":0.23193359375},{"name":"A#2","midi":46,"time":277.96875,"velocity":0.8031496062992126,"duration":0.23193359375},{"name":"A#5","midi":82,"time":277.96875,"velocity":0.8031496062992126,"duration":0.46630859375},{"name":"F3","midi":53,"time":278.203125,"velocity":0.8031496062992126,"duration":0.23193359375},{"name":"A#3","midi":58,"time":278.4375,"velocity":0.8031496062992126,"duration":0.93505859375},{"name":"A#4","midi":70,"time":278.4375,"velocity":0.8031496062992126,"duration":0.68359375},{"name":"A#2","midi":46,"time":279.375,"velocity":0.8031496062992126,"duration":0.23193359375},{"name":"D5","midi":74,"time":279.375,"velocity":0.8031496062992126,"duration":0.23193359375},{"name":"C3","midi":48,"time":279.609375,"velocity":0.8031496062992126,"duration":0.23193359375},{"name":"D#5","midi":75,"time":279.609375,"velocity":0.8031496062992126,"duration":0.11474609375},{"name":"F5","midi":77,"time":279.7265625,"velocity":0.8031496062992126,"duration":0.11474609375},{"name":"D3","midi":50,"time":279.84375,"velocity":0.8031496062992126,"duration":0.46630859375},{"name":"G#4","midi":68,"time":279.84375,"velocity":0.8031496062992126,"duration":0.23193359375},{"name":"G4","midi":67,"time":280.078125,"velocity":0.8031496062992126,"duration":0.23193359375},{"name":"D#3","midi":51,"time":280.3125,"velocity":0.8031496062992126,"duration":0.46630859375},{"name":"G4","midi":67,"time":280.3125,"velocity":0.8031496062992126,"duration":0.23193359375},{"name":"G#4","midi":68,"time":280.546875,"velocity":0.8031496062992126,"duration":0.23193359375},{"name":"A#2","midi":46,"time":280.78125,"velocity":0.8031496062992126,"duration":0.23193359375},{"name":"G#4","midi":68,"time":280.78125,"velocity":0.8031496062992126,"duration":0.23193359375},{"name":"G#3","midi":56,"time":281.015625,"velocity":0.8031496062992126,"duration":0.23193359375},{"name":"F5","midi":77,"time":281.015625,"velocity":0.8031496062992126,"duration":0.23193359375},{"name":"C3","midi":48,"time":281.25,"velocity":0.8031496062992126,"duration":0.23193359375},{"name":"D#5","midi":75,"time":281.25,"velocity":0.8031496062992126,"duration":0.11474609375},{"name":"D5","midi":74,"time":281.3671875,"velocity":0.8031496062992126,"duration":0.11474609375},{"name":"G#3","midi":56,"time":281.484375,"velocity":0.8031496062992126,"duration":0.23193359375},{"name":"D#5","midi":75,"time":281.484375,"velocity":0.8031496062992126,"duration":0.11474609375},{"name":"D5","midi":74,"time":281.6015625,"velocity":0.8031496062992126,"duration":0.11474609375},{"name":"A#2","midi":46,"time":281.71875,"velocity":0.8031496062992126,"duration":0.23193359375},{"name":"D#5","midi":75,"time":281.71875,"velocity":0.8031496062992126,"duration":0.11474609375},{"name":"D5","midi":74,"time":281.8359375,"velocity":0.8031496062992126,"duration":0.11474609375},{"name":"G#3","midi":56,"time":281.953125,"velocity":0.8031496062992126,"duration":0.23193359375},{"name":"D#5","midi":75,"time":281.953125,"velocity":0.8031496062992126,"duration":0.11474609375},{"name":"D5","midi":74,"time":282.0703125,"velocity":0.8031496062992126,"duration":0.11474609375},{"name":"G3","midi":55,"time":282.1875,"velocity":0.8031496062992126,"duration":0.23193359375},{"name":"D#5","midi":75,"time":282.1875,"velocity":0.8031496062992126,"duration":0.23193359375},{"name":"A#3","midi":58,"time":282.421875,"velocity":0.8031496062992126,"duration":0.23193359375},{"name":"F5","midi":77,"time":282.421875,"velocity":0.8031496062992126,"duration":0.11474609375},{"name":"G5","midi":79,"time":282.5390625,"velocity":0.8031496062992126,"duration":0.11474609375},{"name":"C#4","midi":61,"time":282.65625,"velocity":0.8031496062992126,"duration":0.46630859375},{"name":"A#4","midi":70,"time":282.65625,"velocity":0.8031496062992126,"duration":0.23193359375},{"name":"C5","midi":72,"time":282.890625,"velocity":0.8031496062992126,"duration":0.23193359375},{"name":"F3","midi":53,"time":283.125,"velocity":0.8031496062992126,"duration":0.46630859375},{"name":"C5","midi":72,"time":283.125,"velocity":0.8031496062992126,"duration":0.23193359375},{"name":"C#5","midi":73,"time":283.359375,"velocity":0.8031496062992126,"duration":0.23193359375},{"name":"E3","midi":52,"time":283.59375,"velocity":0.8031496062992126,"duration":0.23193359375},{"name":"C#5","midi":73,"time":283.59375,"velocity":0.8031496062992126,"duration":0.23193359375},{"name":"G3","midi":55,"time":283.828125,"velocity":0.8031496062992126,"duration":0.23193359375},{"name":"A#5","midi":82,"time":283.828125,"velocity":0.8031496062992126,"duration":0.23193359375},{"name":"A#3","midi":58,"time":284.0625,"velocity":0.8031496062992126,"duration":0.23193359375},{"name":"G#5","midi":80,"time":284.0625,"velocity":0.8031496062992126,"duration":0.078125},{"name":"G5","midi":79,"time":284.140625,"velocity":0.8031496062992126,"duration":0.078125},{"name":"G#5","midi":80,"time":284.21875,"velocity":0.8031496062992126,"duration":0.078125},{"name":"G5","midi":79,"time":284.296875,"velocity":0.8031496062992126,"duration":0.5859375},{"name":"G#3","midi":56,"time":284.296875,"velocity":0.8031496062992126,"duration":0.23193359375},{"name":"G#3","midi":56,"time":284.53125,"velocity":0.8031496062992126,"duration":0.23193359375},{"name":"G3","midi":55,"time":284.765625,"velocity":0.8031496062992126,"duration":0.23193359375},{"name":"F3","midi":53,"time":285,"velocity":0.8031496062992126,"duration":0.4638671875},{"name":"G#5","midi":80,"time":285,"velocity":0.8031496062992126,"duration":0.2294921875},{"name":"F5","midi":77,"time":285.23193359375,"velocity":0.8031496062992126,"duration":0.2294921875},{"name":"F4","midi":65,"time":285.46630859375,"velocity":0.8031496062992126,"duration":0.4638671875},{"name":"D5","midi":74,"time":285.46630859375,"velocity":0.8031496062992126,"duration":0.2294921875},{"name":"D#5","midi":75,"time":285.70068359375,"velocity":0.8031496062992126,"duration":0.2294921875},{"name":"D#5","midi":75,"time":285.93505859375,"velocity":0.8031496062992126,"duration":0.234375},{"name":"D#4","midi":63,"time":285.93505859375,"velocity":0.8031496062992126,"duration":0.47607421875},{"name":"F5","midi":77,"time":286.17919921875,"velocity":0.8031496062992126,"duration":0.2392578125},{"name":"D4","midi":62,"time":286.42822265625,"velocity":0.8031496062992126,"duration":0.48828125},{"name":"F5","midi":77,"time":286.42822265625,"velocity":0.8031496062992126,"duration":0.2392578125},{"name":"G#4","midi":68,"time":286.67724609375,"velocity":0.8031496062992126,"duration":0.2392578125},{"name":"G#4","midi":68,"time":286.92626953125,"velocity":0.8031496062992126,"duration":0.244140625},{"name":"A#3","midi":58,"time":286.92626953125,"velocity":0.8031496062992126,"duration":0.5029296875},{"name":"G4","midi":67,"time":287.18017578125,"velocity":0.8031496062992126,"duration":0.244140625},{"name":"G4","midi":67,"time":287.4365234375,"velocity":0.8031496062992126,"duration":0.244140625},{"name":"D#4","midi":63,"time":287.4365234375,"velocity":0.8031496062992126,"duration":0.5029296875},{"name":"A#4","midi":70,"time":287.69287109375,"velocity":0.8031496062992126,"duration":0.20751953125},{"name":"D#5","midi":75,"time":287.9541015625,"velocity":0.8031496062992126,"duration":0.2587890625},{"name":"G3","midi":55,"time":287.9541015625,"velocity":0.8031496062992126,"duration":0.2587890625},{"name":"G4","midi":67,"time":288.22265625,"velocity":0.8031496062992126,"duration":0.2587890625},{"name":"C4","midi":60,"time":288.22265625,"velocity":0.8031496062992126,"duration":0.2587890625},{"name":"G#4","midi":68,"time":288.49609375,"velocity":0.8031496062992126,"duration":0.07568359375},{"name":"A#3","midi":58,"time":288.49609375,"velocity":0.8031496062992126,"duration":0.2587890625},{"name":"G4","midi":67,"time":288.58642578125,"velocity":0.8031496062992126,"duration":0.07568359375},{"name":"G#4","midi":68,"time":288.6767578125,"velocity":0.8031496062992126,"duration":0.2587890625},{"name":"G3","midi":55,"time":288.76953125,"velocity":0.8031496062992126,"duration":0.2587890625},{"name":"G4","midi":67,"time":289.0380859375,"velocity":0.8031496062992126,"duration":0.12451171875},{"name":"G#3","midi":56,"time":289.0380859375,"velocity":0.8031496062992126,"duration":0.2587890625},{"name":"F4","midi":65,"time":289.1748046875,"velocity":0.8031496062992126,"duration":0.12451171875},{"name":"D#4","midi":63,"time":289.30908203125,"velocity":0.8031496062992126,"duration":0.12451171875},{"name":"A#3","midi":58,"time":289.30908203125,"velocity":0.8031496062992126,"duration":0.2587890625},{"name":"F4","midi":65,"time":289.44580078125,"velocity":0.8031496062992126,"duration":0.12451171875},{"name":"D#4","midi":63,"time":289.58251953125,"velocity":0.8031496062992126,"duration":1.61865234375},{"name":"D#3","midi":51,"time":289.58251953125,"velocity":0.8031496062992126,"duration":1.61865234375},{"name":"A#4","midi":70,"time":292.03125,"velocity":0.8031496062992126,"duration":0.23193359375},{"name":"D#2","midi":39,"time":292.03125,"velocity":0.8031496062992126,"duration":0.927734375},{"name":"D#5","midi":75,"time":292.265625,"velocity":0.8031496062992126,"duration":0.23193359375},{"name":"D5","midi":74,"time":292.5,"velocity":0.8031496062992126,"duration":0.23193359375},{"name":"C5","midi":72,"time":292.734375,"velocity":0.8031496062992126,"duration":0.23193359375},{"name":"A#4","midi":70,"time":292.96875,"velocity":0.8031496062992126,"duration":0.23193359375},{"name":"G#4","midi":68,"time":293.203125,"velocity":0.8031496062992126,"duration":0.23193359375},{"name":"G4","midi":67,"time":293.4375,"velocity":0.8031496062992126,"duration":0.23193359375},{"name":"F4","midi":65,"time":293.671875,"velocity":0.8031496062992126,"duration":0.23193359375},{"name":"D#4","midi":63,"time":293.90625,"velocity":0.8031496062992126,"duration":0.927734375},{"name":"D#3","midi":51,"time":294.140625,"velocity":0.8031496062992126,"duration":0.23193359375},{"name":"D4","midi":62,"time":294.375,"velocity":0.8031496062992126,"duration":0.23193359375},{"name":"C4","midi":60,"time":294.609375,"velocity":0.8031496062992126,"duration":0.23193359375},{"name":"A#3","midi":58,"time":294.84375,"velocity":0.8031496062992126,"duration":0.23193359375},{"name":"G#3","midi":56,"time":295.078125,"velocity":0.8031496062992126,"duration":0.23193359375},{"name":"F4","midi":65,"time":295.3125,"velocity":0.8031496062992126,"duration":0.4150390625},{"name":"G3","midi":55,"time":295.3125,"velocity":0.8031496062992126,"duration":0.23193359375},{"name":"F3","midi":53,"time":295.546875,"velocity":0.8031496062992126,"duration":0.23193359375},{"name":"G4","midi":67,"time":295.78125,"velocity":0.8031496062992126,"duration":0.23193359375},{"name":"D#3","midi":51,"time":295.78125,"velocity":0.8031496062992126,"duration":0.46630859375},{"name":"D#4","midi":63,"time":296.015625,"velocity":0.8031496062992126,"duration":0.23193359375},{"name":"D4","midi":62,"time":296.25,"velocity":0.8031496062992126,"duration":0.23193359375},{"name":"A#3","midi":58,"time":296.25,"velocity":0.8031496062992126,"duration":0.439453125},{"name":"D#4","midi":63,"time":296.484375,"velocity":0.8031496062992126,"duration":0.23193359375},{"name":"A#4","midi":70,"time":296.71875,"velocity":0.8031496062992126,"duration":0.23193359375},{"name":"D3","midi":50,"time":296.71875,"velocity":0.8031496062992126,"duration":0.439453125},{"name":"F4","midi":65,"time":296.953125,"velocity":0.8031496062992126,"duration":0.23193359375},{"name":"D#4","midi":63,"time":297.1875,"velocity":0.8031496062992126,"duration":0.23193359375},{"name":"A#3","midi":58,"time":297.1875,"velocity":0.8031496062992126,"duration":0.439453125},{"name":"F4","midi":65,"time":297.421875,"velocity":0.8031496062992126,"duration":0.23193359375},{"name":"G4","midi":67,"time":297.65625,"velocity":0.8031496062992126,"duration":0.23193359375},{"name":"D#3","midi":51,"time":297.65625,"velocity":0.8031496062992126,"duration":0.46630859375},{"name":"G#4","midi":68,"time":297.890625,"velocity":0.8031496062992126,"duration":0.23193359375},{"name":"G4","midi":67,"time":298.125,"velocity":0.8031496062992126,"duration":0.23193359375},{"name":"A#2","midi":46,"time":298.125,"velocity":0.8031496062992126,"duration":0.439453125},{"name":"F4","midi":65,"time":298.359375,"velocity":0.8031496062992126,"duration":0.23193359375},{"name":"D#4","midi":63,"time":298.59375,"velocity":0.8031496062992126,"duration":0.23193359375},{"name":"G2","midi":43,"time":298.59375,"velocity":0.8031496062992126,"duration":0.439453125},{"name":"G4","midi":67,"time":298.828125,"velocity":0.8031496062992126,"duration":0.23193359375},{"name":"F4","midi":65,"time":299.0625,"velocity":0.8031496062992126,"duration":0.23193359375},{"name":"A#2","midi":46,"time":299.0625,"velocity":0.8031496062992126,"duration":0.439453125},{"name":"G#4","midi":68,"time":299.296875,"velocity":0.8031496062992126,"duration":0.23193359375},{"name":"G4","midi":67,"time":299.53125,"velocity":0.8031496062992126,"duration":0.23193359375},{"name":"D#2","midi":39,"time":299.53125,"velocity":0.8031496062992126,"duration":0.46630859375},{"name":"C5","midi":72,"time":299.765625,"velocity":0.8031496062992126,"duration":0.23193359375},{"name":"B4","midi":71,"time":300,"velocity":0.8031496062992126,"duration":0.23193359375},{"name":"D#3","midi":51,"time":300,"velocity":0.8031496062992126,"duration":0.439453125},{"name":"C5","midi":72,"time":300.234375,"velocity":0.8031496062992126,"duration":0.23193359375},{"name":"D#5","midi":75,"time":300.46875,"velocity":0.8031496062992126,"duration":0.23193359375},{"name":"C3","midi":48,"time":300.46875,"velocity":0.8031496062992126,"duration":0.439453125},{"name":"D5","midi":74,"time":300.703125,"velocity":0.8031496062992126,"duration":0.23193359375},{"name":"C5","midi":72,"time":300.9375,"velocity":0.8031496062992126,"duration":0.23193359375},{"name":"D#3","midi":51,"time":300.9375,"velocity":0.8031496062992126,"duration":0.439453125},{"name":"A#4","midi":70,"time":301.171875,"velocity":0.8031496062992126,"duration":0.23193359375},{"name":"A4","midi":69,"time":301.40625,"velocity":0.8031496062992126,"duration":0.23193359375},{"name":"F2","midi":41,"time":301.40625,"velocity":0.8031496062992126,"duration":0.927734375},{"name":"A#4","midi":70,"time":301.640625,"velocity":0.8031496062992126,"duration":0.23193359375},{"name":"A4","midi":69,"time":301.875,"velocity":0.8031496062992126,"duration":0.23193359375},{"name":"G4","midi":67,"time":302.109375,"velocity":0.8031496062992126,"duration":0.23193359375},{"name":"F4","midi":65,"time":302.34375,"velocity":0.8031496062992126,"duration":0.23193359375},{"name":"A4","midi":69,"time":302.578125,"velocity":0.8031496062992126,"duration":0.23193359375},{"name":"G4","midi":67,"time":302.8125,"velocity":0.8031496062992126,"duration":0.23193359375},{"name":"A#4","midi":70,"time":303.046875,"velocity":0.8031496062992126,"duration":0.23193359375},{"name":"A4","midi":69,"time":303.28125,"velocity":0.8031496062992126,"duration":0.23193359375},{"name":"D5","midi":74,"time":303.515625,"velocity":0.8031496062992126,"duration":0.23193359375},{"name":"C5","midi":72,"time":303.75,"velocity":0.8031496062992126,"duration":0.23193359375},{"name":"F3","midi":53,"time":303.75,"velocity":0.8031496062992126,"duration":0.439453125},{"name":"D5","midi":74,"time":303.984375,"velocity":0.8031496062992126,"duration":0.23193359375},{"name":"F5","midi":77,"time":304.21875,"velocity":0.8031496062992126,"duration":0.23193359375},{"name":"D3","midi":50,"time":304.21875,"velocity":0.8031496062992126,"duration":0.439453125},{"name":"D#5","midi":75,"time":304.453125,"velocity":0.8031496062992126,"duration":0.23193359375},{"name":"D5","midi":74,"time":304.6875,"velocity":0.8031496062992126,"duration":0.23193359375},{"name":"F3","midi":53,"time":304.6875,"velocity":0.8031496062992126,"duration":0.439453125},{"name":"C5","midi":72,"time":304.921875,"velocity":0.8031496062992126,"duration":0.23193359375},{"name":"A#4","midi":70,"time":305.15625,"velocity":0.8031496062992126,"duration":0.23193359375},{"name":"G2","midi":43,"time":305.15625,"velocity":0.8031496062992126,"duration":0.927734375},{"name":"C5","midi":72,"time":305.390625,"velocity":0.8031496062992126,"duration":0.23193359375},{"name":"A#4","midi":70,"time":305.625,"velocity":0.8031496062992126,"duration":0.23193359375},{"name":"A4","midi":69,"time":305.859375,"velocity":0.8031496062992126,"duration":0.23193359375},{"name":"G4","midi":67,"time":306.09375,"velocity":0.8031496062992126,"duration":0.23193359375},{"name":"A#4","midi":70,"time":306.328125,"velocity":0.8031496062992126,"duration":0.23193359375},{"name":"C5","midi":72,"time":306.5625,"velocity":0.8031496062992126,"duration":0.23193359375},{"name":"D5","midi":74,"time":306.796875,"velocity":0.8031496062992126,"duration":0.23193359375},{"name":"D#5","midi":75,"time":307.03125,"velocity":0.8031496062992126,"duration":0.23193359375},{"name":"G5","midi":79,"time":307.265625,"velocity":0.8031496062992126,"duration":0.23193359375},{"name":"F5","midi":77,"time":307.5,"velocity":0.8031496062992126,"duration":0.23193359375},{"name":"D#3","midi":51,"time":307.5,"velocity":0.8031496062992126,"duration":0.439453125},{"name":"G5","midi":79,"time":307.734375,"velocity":0.8031496062992126,"duration":0.23193359375},{"name":"A#5","midi":82,"time":307.96875,"velocity":0.8031496062992126,"duration":0.23193359375},{"name":"G3","midi":55,"time":307.96875,"velocity":0.8031496062992126,"duration":0.439453125},{"name":"G#5","midi":80,"time":308.203125,"velocity":0.8031496062992126,"duration":0.23193359375},{"name":"G5","midi":79,"time":308.4375,"velocity":0.8031496062992126,"duration":0.23193359375},{"name":"A#3","midi":58,"time":308.4375,"velocity":0.8031496062992126,"duration":0.439453125},{"name":"F5","midi":77,"time":308.671875,"velocity":0.8031496062992126,"duration":0.23193359375},{"name":"D#5","midi":75,"time":308.90625,"velocity":0.8031496062992126,"duration":0.23193359375},{"name":"C3","midi":48,"time":308.90625,"velocity":0.8031496062992126,"duration":0.46630859375},{"name":"G5","midi":79,"time":309.140625,"velocity":0.8031496062992126,"duration":0.23193359375},{"name":"F5","midi":77,"time":309.375,"velocity":0.8031496062992126,"duration":0.23193359375},{"name":"A#3","midi":58,"time":309.375,"velocity":0.8031496062992126,"duration":0.439453125},{"name":"G5","midi":79,"time":309.609375,"velocity":0.8031496062992126,"duration":0.23193359375},{"name":"C6","midi":84,"time":309.84375,"velocity":0.8031496062992126,"duration":0.23193359375},{"name":"A3","midi":57,"time":309.84375,"velocity":0.8031496062992126,"duration":0.439453125},{"name":"A#5","midi":82,"time":310.078125,"velocity":0.8031496062992126,"duration":0.23193359375},{"name":"A5","midi":81,"time":310.3125,"velocity":0.8031496062992126,"duration":0.23193359375},{"name":"C4","midi":60,"time":310.3125,"velocity":0.8031496062992126,"duration":0.439453125},{"name":"G5","midi":79,"time":310.546875,"velocity":0.8031496062992126,"duration":0.23193359375},{"name":"F5","midi":77,"time":310.78125,"velocity":0.8031496062992126,"duration":0.23193359375},{"name":"D3","midi":50,"time":310.78125,"velocity":0.8031496062992126,"duration":0.46630859375},{"name":"D#5","midi":75,"time":311.015625,"velocity":0.8031496062992126,"duration":0.23193359375},{"name":"D5","midi":74,"time":311.25,"velocity":0.8031496062992126,"duration":0.23193359375},{"name":"A#3","midi":58,"time":311.25,"velocity":0.8031496062992126,"duration":0.23193359375},{"name":"C5","midi":72,"time":311.484375,"velocity":0.8031496062992126,"duration":0.23193359375},{"name":"A3","midi":57,"time":311.484375,"velocity":0.8031496062992126,"duration":0.23193359375},{"name":"D5","midi":74,"time":311.71875,"velocity":0.8031496062992126,"duration":0.23193359375},{"name":"A#3","midi":58,"time":311.71875,"velocity":0.8031496062992126,"duration":0.439453125},{"name":"A#4","midi":70,"time":311.953125,"velocity":0.8031496062992126,"duration":0.23193359375},{"name":"C5","midi":72,"time":312.1875,"velocity":0.8031496062992126,"duration":0.23193359375},{"name":"F3","midi":53,"time":312.1875,"velocity":0.8031496062992126,"duration":0.439453125},{"name":"A4","midi":69,"time":312.421875,"velocity":0.8031496062992126,"duration":0.23193359375},{"name":"A#4","midi":70,"time":312.65625,"velocity":0.8031496062992126,"duration":1.40380859375},{"name":"A#2","midi":46,"time":312.65625,"velocity":0.8031496062992126,"duration":0.46630859375},{"name":"F3","midi":53,"time":313.125,"velocity":0.8031496062992126,"duration":0.46630859375},{"name":"A#3","midi":58,"time":313.59375,"velocity":0.8031496062992126,"duration":0.93505859375},{"name":"D5","midi":74,"time":314.53125,"velocity":0.8031496062992126,"duration":0.23193359375},{"name":"A#2","midi":46,"time":314.53125,"velocity":0.8031496062992126,"duration":0.927734375},{"name":"A#4","midi":70,"time":314.765625,"velocity":0.8031496062992126,"duration":0.23193359375},{"name":"C5","midi":72,"time":315,"velocity":0.8031496062992126,"duration":0.23193359375},{"name":"D5","midi":74,"time":315.234375,"velocity":0.8031496062992126,"duration":0.23193359375},{"name":"D#5","midi":75,"time":315.46875,"velocity":0.8031496062992126,"duration":0.23193359375},{"name":"F5","midi":77,"time":315.703125,"velocity":0.8031496062992126,"duration":0.23193359375},{"name":"G5","midi":79,"time":315.9375,"velocity":0.8031496062992126,"duration":0.23193359375},{"name":"G#5","midi":80,"time":316.171875,"velocity":0.8031496062992126,"duration":0.23193359375},{"name":"G5","midi":79,"time":316.40625,"velocity":0.8031496062992126,"duration":0.927734375},{"name":"D#3","midi":51,"time":316.40625,"velocity":0.8031496062992126,"duration":0.23193359375},{"name":"C3","midi":48,"time":316.640625,"velocity":0.8031496062992126,"duration":0.23193359375},{"name":"D3","midi":50,"time":316.875,"velocity":0.8031496062992126,"duration":0.23193359375},{"name":"D#3","midi":51,"time":317.109375,"velocity":0.8031496062992126,"duration":0.23193359375},{"name":"F3","midi":53,"time":317.34375,"velocity":0.8031496062992126,"duration":0.23193359375},{"name":"G3","midi":55,"time":317.578125,"velocity":0.8031496062992126,"duration":0.23193359375},{"name":"F5","midi":77,"time":317.8125,"velocity":0.8031496062992126,"duration":0.4150390625},{"name":"A3","midi":57,"time":317.8125,"velocity":0.8031496062992126,"duration":0.23193359375},{"name":"B3","midi":59,"time":318.046875,"velocity":0.8031496062992126,"duration":0.23193359375},{"name":"D#5","midi":75,"time":318.28125,"velocity":0.8031496062992126,"duration":0.23193359375},{"name":"C4","midi":60,"time":318.28125,"velocity":0.8031496062992126,"duration":0.46630859375},{"name":"C5","midi":72,"time":318.515625,"velocity":0.8031496062992126,"duration":0.23193359375},{"name":"B4","midi":71,"time":318.75,"velocity":0.8031496062992126,"duration":0.23193359375},{"name":"G#3","midi":56,"time":318.75,"velocity":0.8031496062992126,"duration":0.439453125},{"name":"C5","midi":72,"time":318.984375,"velocity":0.8031496062992126,"duration":0.23193359375},{"name":"G#5","midi":80,"time":319.21875,"velocity":0.8031496062992126,"duration":0.23193359375},{"name":"F3","midi":53,"time":319.21875,"velocity":0.8031496062992126,"duration":0.439453125},{"name":"C5","midi":72,"time":319.453125,"velocity":0.8031496062992126,"duration":0.23193359375},{"name":"B4","midi":71,"time":319.6875,"velocity":0.8031496062992126,"duration":0.23193359375},{"name":"G#3","midi":56,"time":319.6875,"velocity":0.8031496062992126,"duration":0.439453125},{"name":"C5","midi":72,"time":319.921875,"velocity":0.8031496062992126,"duration":0.23193359375},{"name":"D5","midi":74,"time":320.15625,"velocity":0.8031496062992126,"duration":0.23193359375},{"name":"G3","midi":55,"time":320.15625,"velocity":0.8031496062992126,"duration":0.927734375},{"name":"C5","midi":72,"time":320.390625,"velocity":0.8031496062992126,"duration":0.23193359375},{"name":"B4","midi":71,"time":320.625,"velocity":0.8031496062992126,"duration":0.23193359375},{"name":"A4","midi":69,"time":320.859375,"velocity":0.8031496062992126,"duration":0.23193359375},{"name":"G4","midi":67,"time":321.09375,"velocity":0.8031496062992126,"duration":0.68359375},{"name":"F4","midi":65,"time":321.328125,"velocity":0.8031496062992126,"duration":0.23193359375},{"name":"E4","midi":64,"time":321.5625,"velocity":0.8031496062992126,"duration":0.23193359375},{"name":"D4","midi":62,"time":321.796875,"velocity":0.8031496062992126,"duration":0.23193359375},{"name":"E4","midi":64,"time":322.03125,"velocity":0.8031496062992126,"duration":0.4638671875},{"name":"C5","midi":72,"time":322.265625,"velocity":0.8031496062992126,"duration":0.23193359375},{"name":"B4","midi":71,"time":322.5,"velocity":0.8031496062992126,"duration":0.23193359375},{"name":"G4","midi":67,"time":322.5,"velocity":0.8031496062992126,"duration":0.439453125},{"name":"C5","midi":72,"time":322.734375,"velocity":0.8031496062992126,"duration":0.23193359375},{"name":"C#5","midi":73,"time":322.96875,"velocity":0.8031496062992126,"duration":0.23193359375},{"name":"E4","midi":64,"time":322.96875,"velocity":0.8031496062992126,"duration":0.439453125},{"name":"C5","midi":72,"time":323.203125,"velocity":0.8031496062992126,"duration":0.23193359375},{"name":"B4","midi":71,"time":323.4375,"velocity":0.8031496062992126,"duration":0.23193359375},{"name":"G4","midi":67,"time":323.4375,"velocity":0.8031496062992126,"duration":0.439453125},{"name":"C5","midi":72,"time":323.671875,"velocity":0.8031496062992126,"duration":0.23193359375},{"name":"G#5","midi":80,"time":323.90625,"velocity":0.8031496062992126,"duration":0.4638671875},{"name":"F3","midi":53,"time":323.90625,"velocity":0.8031496062992126,"duration":0.4638671875},{"name":"F5","midi":77,"time":324.140625,"velocity":0.8031496062992126,"duration":0.23193359375},{"name":"C5","midi":72,"time":324.375,"velocity":0.8031496062992126,"duration":0.68359375},{"name":"A#4","midi":70,"time":324.609375,"velocity":0.8031496062992126,"duration":0.23193359375},{"name":"G#4","midi":68,"time":324.84375,"velocity":0.8031496062992126,"duration":0.23193359375},{"name":"G4","midi":67,"time":325.078125,"velocity":0.8031496062992126,"duration":0.23193359375},{"name":"F4","midi":65,"time":325.3125,"velocity":0.8031496062992126,"duration":0.23193359375},{"name":"D#4","midi":63,"time":325.546875,"velocity":0.8031496062992126,"duration":0.23193359375},{"name":"D4","midi":62,"time":325.78125,"velocity":0.8031496062992126,"duration":0.46630859375},{"name":"A#4","midi":70,"time":326.015625,"velocity":0.8031496062992126,"duration":0.23193359375},{"name":"A4","midi":69,"time":326.25,"velocity":0.8031496062992126,"duration":0.23193359375},{"name":"F4","midi":65,"time":326.25,"velocity":0.8031496062992126,"duration":0.439453125},{"name":"A#4","midi":70,"time":326.484375,"velocity":0.8031496062992126,"duration":0.23193359375},{"name":"C5","midi":72,"time":326.71875,"velocity":0.8031496062992126,"duration":0.23193359375},{"name":"D4","midi":62,"time":326.71875,"velocity":0.8031496062992126,"duration":0.439453125},{"name":"A#4","midi":70,"time":326.953125,"velocity":0.8031496062992126,"duration":0.23193359375},{"name":"A4","midi":69,"time":327.1875,"velocity":0.8031496062992126,"duration":0.23193359375},{"name":"F4","midi":65,"time":327.1875,"velocity":0.8031496062992126,"duration":0.439453125},{"name":"A#4","midi":70,"time":327.421875,"velocity":0.8031496062992126,"duration":0.23193359375},{"name":"G5","midi":79,"time":327.65625,"velocity":0.8031496062992126,"duration":0.4638671875},{"name":"D#3","midi":51,"time":327.65625,"velocity":0.8031496062992126,"duration":0.4638671875},{"name":"D#5","midi":75,"time":327.890625,"velocity":0.8031496062992126,"duration":0.23193359375},{"name":"A#4","midi":70,"time":328.125,"velocity":0.8031496062992126,"duration":0.68359375},{"name":"G#4","midi":68,"time":328.359375,"velocity":0.8031496062992126,"duration":0.23193359375},{"name":"G4","midi":67,"time":328.59375,"velocity":0.8031496062992126,"duration":0.23193359375},{"name":"F4","midi":65,"time":328.828125,"velocity":0.8031496062992126,"duration":0.23193359375},{"name":"D#4","midi":63,"time":329.0625,"velocity":0.8031496062992126,"duration":0.23193359375},{"name":"D4","midi":62,"time":329.296875,"velocity":0.8031496062992126,"duration":0.23193359375},{"name":"C4","midi":60,"time":329.53125,"velocity":0.8031496062992126,"duration":0.23193359375},{"name":"A#4","midi":70,"time":329.765625,"velocity":0.8031496062992126,"duration":0.23193359375},{"name":"F5","midi":77,"time":330,"velocity":0.8031496062992126,"duration":0.23193359375},{"name":"G#4","midi":68,"time":330,"velocity":0.8031496062992126,"duration":0.23193359375},{"name":"D#5","midi":75,"time":330.234375,"velocity":0.8031496062992126,"duration":0.23193359375},{"name":"G4","midi":67,"time":330.234375,"velocity":0.8031496062992126,"duration":0.23193359375},{"name":"D5","midi":74,"time":330.46875,"velocity":0.8031496062992126,"duration":0.23193359375},{"name":"F4","midi":65,"time":330.46875,"velocity":0.8031496062992126,"duration":0.23193359375},{"name":"D#5","midi":75,"time":330.703125,"velocity":0.8031496062992126,"duration":0.23193359375},{"name":"D#4","midi":63,"time":330.703125,"velocity":0.8031496062992126,"duration":0.23193359375},{"name":"F5","midi":77,"time":330.9375,"velocity":0.8031496062992126,"duration":0.68359375},{"name":"D4","midi":62,"time":330.9375,"velocity":0.8031496062992126,"duration":0.23193359375},{"name":"C4","midi":60,"time":331.171875,"velocity":0.8031496062992126,"duration":0.23193359375},{"name":"B3","midi":59,"time":331.40625,"velocity":0.8031496062992126,"duration":0.23193359375},{"name":"G#4","midi":68,"time":331.640625,"velocity":0.8031496062992126,"duration":0.23193359375},{"name":"D#5","midi":75,"time":331.875,"velocity":0.8031496062992126,"duration":0.23193359375},{"name":"G4","midi":67,"time":331.875,"velocity":0.8031496062992126,"duration":0.23193359375},{"name":"D5","midi":74,"time":332.109375,"velocity":0.8031496062992126,"duration":0.23193359375},{"name":"F4","midi":65,"time":332.109375,"velocity":0.8031496062992126,"duration":0.23193359375},{"name":"C5","midi":72,"time":332.34375,"velocity":0.8031496062992126,"duration":0.23193359375},{"name":"D#4","midi":63,"time":332.34375,"velocity":0.8031496062992126,"duration":0.23193359375},{"name":"D5","midi":74,"time":332.578125,"velocity":0.8031496062992126,"duration":0.23193359375},{"name":"D4","midi":62,"time":332.578125,"velocity":0.8031496062992126,"duration":0.23193359375},{"name":"D#5","midi":75,"time":332.8125,"velocity":0.8031496062992126,"duration":0.68359375},{"name":"C4","midi":60,"time":332.8125,"velocity":0.8031496062992126,"duration":0.23193359375},{"name":"A#3","midi":58,"time":333.046875,"velocity":0.8031496062992126,"duration":0.23193359375},{"name":"G#3","midi":56,"time":333.28125,"velocity":0.8031496062992126,"duration":0.23193359375},{"name":"G3","midi":55,"time":333.515625,"velocity":0.8031496062992126,"duration":0.23193359375},{"name":"D5","midi":74,"time":333.75,"velocity":0.8031496062992126,"duration":0.23193359375},{"name":"G#3","midi":56,"time":333.75,"velocity":0.8031496062992126,"duration":0.23193359375},{"name":"C5","midi":72,"time":333.984375,"velocity":0.8031496062992126,"duration":0.23193359375},{"name":"F3","midi":53,"time":333.984375,"velocity":0.8031496062992126,"duration":0.23193359375},{"name":"G5","midi":79,"time":334.21875,"velocity":0.8031496062992126,"duration":0.23193359375},{"name":"G3","midi":55,"time":334.21875,"velocity":0.8031496062992126,"duration":0.439453125},{"name":"F5","midi":77,"time":334.453125,"velocity":0.8031496062992126,"duration":0.23193359375},{"name":"D#5","midi":75,"time":334.6875,"velocity":0.8031496062992126,"duration":0.23193359375},{"name":"G2","midi":43,"time":334.6875,"velocity":0.8031496062992126,"duration":0.439453125},{"name":"D5","midi":74,"time":334.921875,"velocity":0.8031496062992126,"duration":0.23193359375},{"name":"C5","midi":72,"time":335.15625,"velocity":0.8031496062992126,"duration":0.4638671875},{"name":"C3","midi":48,"time":335.390625,"velocity":0.8031496062992126,"duration":0.23193359375},{"name":"D3","midi":50,"time":335.625,"velocity":0.8031496062992126,"duration":0.23193359375},{"name":"D#3","midi":51,"time":335.859375,"velocity":0.8031496062992126,"duration":0.23193359375},{"name":"F3","midi":53,"time":336.09375,"velocity":0.8031496062992126,"duration":0.23193359375},{"name":"G3","midi":55,"time":336.328125,"velocity":0.8031496062992126,"duration":0.23193359375},{"name":"A3","midi":57,"time":336.5625,"velocity":0.8031496062992126,"duration":0.23193359375},{"name":"B3","midi":59,"time":336.796875,"velocity":0.8031496062992126,"duration":0.23193359375},{"name":"C4","midi":60,"time":337.03125,"velocity":0.8031496062992126,"duration":0.46630859375},{"name":"C5","midi":72,"time":337.265625,"velocity":0.8031496062992126,"duration":0.23193359375},{"name":"D5","midi":74,"time":337.5,"velocity":0.8031496062992126,"duration":0.23193359375},{"name":"A#3","midi":58,"time":337.5,"velocity":0.8031496062992126,"duration":0.439453125},{"name":"D#5","midi":75,"time":337.734375,"velocity":0.8031496062992126,"duration":0.23193359375},{"name":"D5","midi":74,"time":337.96875,"velocity":0.8031496062992126,"duration":0.23193359375},{"name":"A3","midi":57,"time":337.96875,"velocity":0.8031496062992126,"duration":0.439453125},{"name":"C5","midi":72,"time":338.203125,"velocity":0.8031496062992126,"duration":0.23193359375},{"name":"A#4","midi":70,"time":338.4375,"velocity":0.8031496062992126,"duration":0.23193359375},{"name":"G3","midi":55,"time":338.4375,"velocity":0.8031496062992126,"duration":0.439453125},{"name":"A4","midi":69,"time":338.671875,"velocity":0.8031496062992126,"duration":0.23193359375},{"name":"F5","midi":77,"time":338.90625,"velocity":0.8031496062992126,"duration":0.927734375},{"name":"A3","midi":57,"time":338.90625,"velocity":0.8031496062992126,"duration":0.23193359375},{"name":"D#3","midi":51,"time":339.140625,"velocity":0.8031496062992126,"duration":0.23193359375},{"name":"F3","midi":53,"time":339.375,"velocity":0.8031496062992126,"duration":0.23193359375},{"name":"G3","midi":55,"time":339.609375,"velocity":0.8031496062992126,"duration":0.23193359375},{"name":"F3","midi":53,"time":339.84375,"velocity":0.8031496062992126,"duration":0.23193359375},{"name":"D#3","midi":51,"time":340.078125,"velocity":0.8031496062992126,"duration":0.23193359375},{"name":"A4","midi":69,"time":340.3125,"velocity":0.8031496062992126,"duration":0.4150390625},{"name":"D3","midi":50,"time":340.3125,"velocity":0.8031496062992126,"duration":0.23193359375},{"name":"C3","midi":48,"time":340.546875,"velocity":0.8031496062992126,"duration":0.23193359375},{"name":"A#4","midi":70,"time":340.78125,"velocity":0.8031496062992126,"duration":0.23193359375},{"name":"D3","midi":50,"time":340.78125,"velocity":0.8031496062992126,"duration":0.23193359375},{"name":"F4","midi":65,"time":341.015625,"velocity":0.8031496062992126,"duration":0.23193359375},{"name":"C3","midi":48,"time":341.015625,"velocity":0.8031496062992126,"duration":0.23193359375},{"name":"G4","midi":67,"time":341.25,"velocity":0.8031496062992126,"duration":0.23193359375},{"name":"D3","midi":50,"time":341.25,"velocity":0.8031496062992126,"duration":0.23193359375},{"name":"A4","midi":69,"time":341.484375,"velocity":0.8031496062992126,"duration":0.23193359375},{"name":"D#3","midi":51,"time":341.484375,"velocity":0.8031496062992126,"duration":0.23193359375},{"name":"A#4","midi":70,"time":341.71875,"velocity":0.8031496062992126,"duration":0.23193359375},{"name":"D3","midi":50,"time":341.71875,"velocity":0.8031496062992126,"duration":0.23193359375},{"name":"D5","midi":74,"time":341.953125,"velocity":0.8031496062992126,"duration":0.23193359375},{"name":"C3","midi":48,"time":341.953125,"velocity":0.8031496062992126,"duration":0.23193359375},{"name":"C5","midi":72,"time":342.1875,"velocity":0.8031496062992126,"duration":0.23193359375},{"name":"A#2","midi":46,"time":342.1875,"velocity":0.8031496062992126,"duration":0.23193359375},{"name":"D#5","midi":75,"time":342.421875,"velocity":0.8031496062992126,"duration":0.23193359375},{"name":"A2","midi":45,"time":342.421875,"velocity":0.8031496062992126,"duration":0.23193359375},{"name":"D5","midi":74,"time":342.65625,"velocity":0.8031496062992126,"duration":0.23193359375},{"name":"A#2","midi":46,"time":342.65625,"velocity":0.8031496062992126,"duration":0.46630859375},{"name":"A#4","midi":70,"time":342.890625,"velocity":0.8031496062992126,"duration":0.23193359375},{"name":"C5","midi":72,"time":343.125,"velocity":0.8031496062992126,"duration":0.23193359375},{"name":"G#3","midi":56,"time":343.125,"velocity":0.8031496062992126,"duration":0.439453125},{"name":"D5","midi":74,"time":343.359375,"velocity":0.8031496062992126,"duration":0.23193359375},{"name":"D#5","midi":75,"time":343.59375,"velocity":0.8031496062992126,"duration":0.23193359375},{"name":"G3","midi":55,"time":343.59375,"velocity":0.8031496062992126,"duration":0.439453125},{"name":"G5","midi":79,"time":343.828125,"velocity":0.8031496062992126,"duration":0.23193359375},{"name":"F5","midi":77,"time":344.0625,"velocity":0.8031496062992126,"duration":0.23193359375},{"name":"A#3","midi":58,"time":344.0625,"velocity":0.8031496062992126,"duration":0.439453125},{"name":"G#5","midi":80,"time":344.296875,"velocity":0.8031496062992126,"duration":0.23193359375},{"name":"G5","midi":79,"time":344.53125,"velocity":0.8031496062992126,"duration":0.23193359375},{"name":"D#3","midi":51,"time":344.53125,"velocity":0.8031496062992126,"duration":0.46630859375},{"name":"D#5","midi":75,"time":344.765625,"velocity":0.8031496062992126,"duration":0.23193359375},{"name":"F5","midi":77,"time":345,"velocity":0.8031496062992126,"duration":0.23193359375},{"name":"C#3","midi":49,"time":345,"velocity":0.8031496062992126,"duration":0.439453125},{"name":"G5","midi":79,"time":345.234375,"velocity":0.8031496062992126,"duration":0.23193359375},{"name":"G#5","midi":80,"time":345.46875,"velocity":0.8031496062992126,"duration":0.23193359375},{"name":"C3","midi":48,"time":345.46875,"velocity":0.8031496062992126,"duration":0.439453125},{"name":"G5","midi":79,"time":345.703125,"velocity":0.8031496062992126,"duration":0.23193359375},{"name":"F5","midi":77,"time":345.9375,"velocity":0.8031496062992126,"duration":0.23193359375},{"name":"D#3","midi":51,"time":345.9375,"velocity":0.8031496062992126,"duration":0.439453125},{"name":"D#5","midi":75,"time":346.171875,"velocity":0.8031496062992126,"duration":0.23193359375},{"name":"C#5","midi":73,"time":346.40625,"velocity":0.8031496062992126,"duration":0.23193359375},{"name":"G#2","midi":44,"time":346.40625,"velocity":0.8031496062992126,"duration":0.46630859375},{"name":"A#4","midi":70,"time":346.640625,"velocity":0.8031496062992126,"duration":0.23193359375},{"name":"C5","midi":72,"time":346.875,"velocity":0.8031496062992126,"duration":0.23193359375},{"name":"G#3","midi":56,"time":346.875,"velocity":0.8031496062992126,"duration":0.439453125},{"name":"F5","midi":77,"time":347.109375,"velocity":0.8031496062992126,"duration":0.23193359375},{"name":"D#5","midi":75,"time":347.34375,"velocity":0.8031496062992126,"duration":0.23193359375},{"name":"G3","midi":55,"time":347.34375,"velocity":0.8031496062992126,"duration":0.439453125},{"name":"D5","midi":74,"time":347.578125,"velocity":0.8031496062992126,"duration":0.23193359375},{"name":"C5","midi":72,"time":347.8125,"velocity":0.8031496062992126,"duration":0.23193359375},{"name":"D#3","midi":51,"time":347.8125,"velocity":0.8031496062992126,"duration":0.439453125},{"name":"A#4","midi":70,"time":348.046875,"velocity":0.8031496062992126,"duration":0.23193359375},{"name":"G#4","midi":68,"time":348.28125,"velocity":0.8031496062992126,"duration":0.23193359375},{"name":"D3","midi":50,"time":348.28125,"velocity":0.8031496062992126,"duration":0.46630859375},{"name":"F4","midi":65,"time":348.515625,"velocity":0.8031496062992126,"duration":0.23193359375},{"name":"G4","midi":67,"time":348.75,"velocity":0.8031496062992126,"duration":0.23193359375},{"name":"D#3","midi":51,"time":348.75,"velocity":0.8031496062992126,"duration":0.439453125},{"name":"D#5","midi":75,"time":348.984375,"velocity":0.8031496062992126,"duration":0.23193359375},{"name":"D5","midi":74,"time":349.21875,"velocity":0.8031496062992126,"duration":0.23193359375},{"name":"G#3","midi":56,"time":349.21875,"velocity":0.8031496062992126,"duration":0.439453125},{"name":"C5","midi":72,"time":349.453125,"velocity":0.8031496062992126,"duration":0.23193359375},{"name":"A#4","midi":70,"time":349.6875,"velocity":0.8031496062992126,"duration":0.23193359375},{"name":"F3","midi":53,"time":349.6875,"velocity":0.8031496062992126,"duration":0.439453125},{"name":"G#4","midi":68,"time":349.921875,"velocity":0.8031496062992126,"duration":0.23193359375},{"name":"G4","midi":67,"time":350.15625,"velocity":0.8031496062992126,"duration":0.23193359375},{"name":"A#3","midi":58,"time":350.15625,"velocity":0.8031496062992126,"duration":0.70068359375},{"name":"D#4","midi":63,"time":350.390625,"velocity":0.8031496062992126,"duration":0.23193359375},{"name":"F4","midi":65,"time":350.625,"velocity":0.8031496062992126,"duration":0.4638671875},{"name":"C4","midi":60,"time":350.859375,"velocity":0.8031496062992126,"duration":0.23193359375},{"name":"A#3","midi":58,"time":351.09375,"velocity":0.8031496062992126,"duration":0.23193359375},{"name":"G#3","midi":56,"time":351.328125,"velocity":0.8031496062992126,"duration":0.23193359375},{"name":"G3","midi":55,"time":351.5625,"velocity":0.8031496062992126,"duration":0.23193359375},{"name":"F3","midi":53,"time":351.796875,"velocity":0.8031496062992126,"duration":0.23193359375},{"name":"A#4","midi":70,"time":352.03125,"velocity":0.8031496062992126,"duration":0.23193359375},{"name":"D#3","midi":51,"time":352.03125,"velocity":0.8031496062992126,"duration":0.927734375},{"name":"D#5","midi":75,"time":352.265625,"velocity":0.8031496062992126,"duration":0.23193359375},{"name":"D5","midi":74,"time":352.5,"velocity":0.8031496062992126,"duration":0.23193359375},{"name":"C5","midi":72,"time":352.734375,"velocity":0.8031496062992126,"duration":0.23193359375},{"name":"A#4","midi":70,"time":352.96875,"velocity":0.8031496062992126,"duration":0.23193359375},{"name":"G#4","midi":68,"time":353.203125,"velocity":0.8031496062992126,"duration":0.23193359375},{"name":"G4","midi":67,"time":353.4375,"velocity":0.8031496062992126,"duration":0.23193359375},{"name":"F4","midi":65,"time":353.671875,"velocity":0.8031496062992126,"duration":0.23193359375},{"name":"D#4","midi":63,"time":353.90625,"velocity":0.8031496062992126,"duration":0.927734375},{"name":"D#3","midi":51,"time":354.140625,"velocity":0.8031496062992126,"duration":0.23193359375},{"name":"D4","midi":62,"time":354.375,"velocity":0.8031496062992126,"duration":0.23193359375},{"name":"C4","midi":60,"time":354.609375,"velocity":0.8031496062992126,"duration":0.23193359375},{"name":"A#3","midi":58,"time":354.84375,"velocity":0.8031496062992126,"duration":0.23193359375},{"name":"G#3","midi":56,"time":355.078125,"velocity":0.8031496062992126,"duration":0.23193359375},{"name":"F4","midi":65,"time":355.3125,"velocity":0.8031496062992126,"duration":0.4150390625},{"name":"G3","midi":55,"time":355.3125,"velocity":0.8031496062992126,"duration":0.23193359375},{"name":"F3","midi":53,"time":355.546875,"velocity":0.8031496062992126,"duration":0.23193359375},{"name":"G4","midi":67,"time":355.78125,"velocity":0.8031496062992126,"duration":0.23193359375},{"name":"D#3","midi":51,"time":355.78125,"velocity":0.8031496062992126,"duration":0.46630859375},{"name":"C5","midi":72,"time":356.015625,"velocity":0.8031496062992126,"duration":0.23193359375},{"name":"A#4","midi":70,"time":356.25,"velocity":0.8031496062992126,"duration":0.23193359375},{"name":"G3","midi":55,"time":356.25,"velocity":0.8031496062992126,"duration":0.439453125},{"name":"G#4","midi":68,"time":356.484375,"velocity":0.8031496062992126,"duration":0.23193359375},{"name":"G4","midi":67,"time":356.71875,"velocity":0.8031496062992126,"duration":0.23193359375},{"name":"D#3","midi":51,"time":356.71875,"velocity":0.8031496062992126,"duration":0.439453125},{"name":"F4","midi":65,"time":356.953125,"velocity":0.8031496062992126,"duration":0.23193359375},{"name":"D#4","midi":63,"time":357.1875,"velocity":0.8031496062992126,"duration":0.23193359375},{"name":"G3","midi":55,"time":357.1875,"velocity":0.8031496062992126,"duration":0.439453125},{"name":"C#4","midi":61,"time":357.421875,"velocity":0.8031496062992126,"duration":0.23193359375},{"name":"C4","midi":60,"time":357.65625,"velocity":0.8031496062992126,"duration":0.23193359375},{"name":"G#3","midi":56,"time":357.65625,"velocity":0.8031496062992126,"duration":0.46630859375},{"name":"C#4","midi":61,"time":357.890625,"velocity":0.8031496062992126,"duration":0.23193359375},{"name":"C4","midi":60,"time":358.125,"velocity":0.8031496062992126,"duration":0.23193359375},{"name":"D#3","midi":51,"time":358.125,"velocity":0.8031496062992126,"duration":0.439453125},{"name":"A#3","midi":58,"time":358.359375,"velocity":0.8031496062992126,"duration":0.23193359375},{"name":"G#3","midi":56,"time":358.59375,"velocity":0.8031496062992126,"duration":0.23193359375},{"name":"C3","midi":48,"time":358.59375,"velocity":0.8031496062992126,"duration":0.439453125},{"name":"C4","midi":60,"time":358.828125,"velocity":0.8031496062992126,"duration":0.23193359375},{"name":"A#3","midi":58,"time":359.0625,"velocity":0.8031496062992126,"duration":0.23193359375},{"name":"D#3","midi":51,"time":359.0625,"velocity":0.8031496062992126,"duration":0.439453125},{"name":"C#4","midi":61,"time":359.296875,"velocity":0.8031496062992126,"duration":0.23193359375},{"name":"C4","midi":60,"time":359.53125,"velocity":0.8031496062992126,"duration":0.23193359375},{"name":"G#2","midi":44,"time":359.53125,"velocity":0.8031496062992126,"duration":0.46630859375},{"name":"F4","midi":65,"time":359.765625,"velocity":0.8031496062992126,"duration":0.23193359375},{"name":"E4","midi":64,"time":360,"velocity":0.8031496062992126,"duration":0.23193359375},{"name":"G#3","midi":56,"time":360,"velocity":0.8031496062992126,"duration":0.439453125},{"name":"F4","midi":65,"time":360.234375,"velocity":0.8031496062992126,"duration":0.23193359375},{"name":"G#4","midi":68,"time":360.46875,"velocity":0.8031496062992126,"duration":0.23193359375},{"name":"F3","midi":53,"time":360.46875,"velocity":0.8031496062992126,"duration":0.439453125},{"name":"G4","midi":67,"time":360.703125,"velocity":0.8031496062992126,"duration":0.23193359375},{"name":"F4","midi":65,"time":360.9375,"velocity":0.8031496062992126,"duration":0.23193359375},{"name":"G#3","midi":56,"time":360.9375,"velocity":0.8031496062992126,"duration":0.439453125},{"name":"D#4","midi":63,"time":361.171875,"velocity":0.8031496062992126,"duration":0.23193359375},{"name":"D4","midi":62,"time":361.40625,"velocity":0.8031496062992126,"duration":0.23193359375},{"name":"A#2","midi":46,"time":361.40625,"velocity":0.8031496062992126,"duration":0.927734375},{"name":"D#4","midi":63,"time":361.640625,"velocity":0.8031496062992126,"duration":0.23193359375},{"name":"D4","midi":62,"time":361.875,"velocity":0.8031496062992126,"duration":0.23193359375},{"name":"C4","midi":60,"time":362.109375,"velocity":0.8031496062992126,"duration":0.23193359375},{"name":"A#3","midi":58,"time":362.34375,"velocity":0.8031496062992126,"duration":0.23193359375},{"name":"D4","midi":62,"time":362.578125,"velocity":0.8031496062992126,"duration":0.23193359375},{"name":"C4","midi":60,"time":362.8125,"velocity":0.8031496062992126,"duration":0.23193359375},{"name":"D#4","midi":63,"time":363.046875,"velocity":0.8031496062992126,"duration":0.23193359375},{"name":"D4","midi":62,"time":363.28125,"velocity":0.8031496062992126,"duration":0.23193359375},{"name":"G4","midi":67,"time":363.515625,"velocity":0.8031496062992126,"duration":0.23193359375},{"name":"F4","midi":65,"time":363.75,"velocity":0.8031496062992126,"duration":0.23193359375},{"name":"A#3","midi":58,"time":363.75,"velocity":0.8031496062992126,"duration":0.439453125},{"name":"G4","midi":67,"time":363.984375,"velocity":0.8031496062992126,"duration":0.23193359375},{"name":"A#4","midi":70,"time":364.21875,"velocity":0.8031496062992126,"duration":0.23193359375},{"name":"G3","midi":55,"time":364.21875,"velocity":0.8031496062992126,"duration":0.439453125},{"name":"G#4","midi":68,"time":364.453125,"velocity":0.8031496062992126,"duration":0.23193359375},{"name":"G4","midi":67,"time":364.6875,"velocity":0.8031496062992126,"duration":0.23193359375},{"name":"A#3","midi":58,"time":364.6875,"velocity":0.8031496062992126,"duration":0.439453125},{"name":"F4","midi":65,"time":364.921875,"velocity":0.8031496062992126,"duration":0.23193359375},{"name":"D#4","midi":63,"time":365.15625,"velocity":0.8031496062992126,"duration":0.23193359375},{"name":"C3","midi":48,"time":365.15625,"velocity":0.8031496062992126,"duration":0.927734375},{"name":"F4","midi":65,"time":365.390625,"velocity":0.8031496062992126,"duration":0.23193359375},{"name":"D#4","midi":63,"time":365.625,"velocity":0.8031496062992126,"duration":0.23193359375},{"name":"D4","midi":62,"time":365.859375,"velocity":0.8031496062992126,"duration":0.23193359375},{"name":"C4","midi":60,"time":366.09375,"velocity":0.8031496062992126,"duration":0.23193359375},{"name":"D#4","midi":63,"time":366.328125,"velocity":0.8031496062992126,"duration":0.23193359375},{"name":"F4","midi":65,"time":366.5625,"velocity":0.8031496062992126,"duration":0.23193359375},{"name":"G4","midi":67,"time":366.796875,"velocity":0.8031496062992126,"duration":0.23193359375},{"name":"G#4","midi":68,"time":367.03125,"velocity":0.8031496062992126,"duration":0.23681640625},{"name":"C5","midi":72,"time":367.2705078125,"velocity":0.8031496062992126,"duration":0.23681640625},{"name":"G#3","midi":56,"time":367.51220703125,"velocity":0.8031496062992126,"duration":0.45166015625},{"name":"A#4","midi":70,"time":367.51220703125,"velocity":0.8031496062992126,"duration":0.23681640625},{"name":"C5","midi":72,"time":367.75390625,"velocity":0.8031496062992126,"duration":0.23681640625},{"name":"C4","midi":60,"time":367.99560546875,"velocity":0.8031496062992126,"duration":0.45166015625},{"name":"D#5","midi":75,"time":367.99560546875,"velocity":0.8031496062992126,"duration":0.23681640625},{"name":"C#5","midi":73,"time":368.2373046875,"velocity":0.8031496062992126,"duration":0.23681640625},{"name":"D#4","midi":63,"time":368.47900390625,"velocity":0.8031496062992126,"duration":0.45166015625},{"name":"C5","midi":72,"time":368.47900390625,"velocity":0.8031496062992126,"duration":0.23681640625},{"name":"A#4","midi":70,"time":368.720703125,"velocity":0.8031496062992126,"duration":0.23681640625},{"name":"G#4","midi":68,"time":368.96240234375,"velocity":0.8031496062992126,"duration":0.24169921875},{"name":"F3","midi":53,"time":368.96240234375,"velocity":0.8031496062992126,"duration":0.49072265625},{"name":"C5","midi":72,"time":369.20654296875,"velocity":0.8031496062992126,"duration":0.24169921875},{"name":"A#4","midi":70,"time":369.45556640625,"velocity":0.8031496062992126,"duration":0.24169921875},{"name":"D#4","midi":63,"time":369.45556640625,"velocity":0.8031496062992126,"duration":0.4638671875},{"name":"C5","midi":72,"time":369.70458984375,"velocity":0.8031496062992126,"duration":0.24169921875},{"name":"F5","midi":77,"time":369.95361328125,"velocity":0.8031496062992126,"duration":0.24169921875},{"name":"D4","midi":62,"time":369.95361328125,"velocity":0.8031496062992126,"duration":0.4638671875},{"name":"D#5","midi":75,"time":370.20263671875,"velocity":0.8031496062992126,"duration":0.24169921875},{"name":"D5","midi":74,"time":370.45166015625,"velocity":0.8031496062992126,"duration":0.24169921875},{"name":"F4","midi":65,"time":370.45166015625,"velocity":0.8031496062992126,"duration":0.4638671875},{"name":"C5","midi":72,"time":370.70068359375,"velocity":0.8031496062992126,"duration":0.24169921875},{"name":"G3","midi":55,"time":370.94970703125,"velocity":0.8031496062992126,"duration":0.50537109375},{"name":"A#4","midi":70,"time":370.94970703125,"velocity":0.8031496062992126,"duration":0.24658203125},{"name":"G#4","midi":68,"time":371.201171875,"velocity":0.8031496062992126,"duration":0.24658203125},{"name":"D#4","midi":63,"time":371.45751953125,"velocity":0.8031496062992126,"duration":0.24658203125},{"name":"G4","midi":67,"time":371.45751953125,"velocity":0.8031496062992126,"duration":0.24658203125},{"name":"D4","midi":62,"time":371.7138671875,"velocity":0.8031496062992126,"duration":0.24658203125},{"name":"F4","midi":65,"time":371.7138671875,"velocity":0.8031496062992126,"duration":0.24658203125},{"name":"D#4","midi":63,"time":371.97021484375,"velocity":0.8031496062992126,"duration":0.47607421875},{"name":"G4","midi":67,"time":371.97021484375,"velocity":0.8031496062992126,"duration":0.24658203125},{"name":"D#5","midi":75,"time":372.22900390625,"velocity":0.8031496062992126,"duration":0.24658203125},{"name":"A#3","midi":58,"time":372.4853515625,"velocity":0.8031496062992126,"duration":0.47607421875},{"name":"F4","midi":65,"time":372.4853515625,"velocity":0.8031496062992126,"duration":0.24658203125},{"name":"D5","midi":74,"time":372.74169921875,"velocity":0.8031496062992126,"duration":0.27587890625},{"name":"D#3","midi":51,"time":373.0224609375,"velocity":0.8031496062992126,"duration":0.54931640625},{"name":"D#4","midi":63,"time":373.0224609375,"velocity":0.8031496062992126,"duration":3.056640625},{"name":"A#2","midi":46,"time":373.69140625,"velocity":0.8031496062992126,"duration":0.54931640625},{"name":"D#2","midi":39,"time":374.51171875,"velocity":0.8031496062992126,"duration":1.86767578125},{"name":"A#4","midi":70,"time":380.15625,"velocity":0.8031496062992126,"duration":0.62255859375},{"name":"D#5","midi":75,"time":380.78125,"velocity":0.8031496062992126,"duration":0.23193359375},{"name":"A#4","midi":70,"time":381.09375,"velocity":0.8031496062992126,"duration":0.62255859375},{"name":"D#5","midi":75,"time":381.71875,"velocity":0.8031496062992126,"duration":0.23193359375},{"name":"A#4","midi":70,"time":382.03125,"velocity":0.8031496062992126,"duration":0.31005859375},{"name":"G#4","midi":68,"time":382.34375,"velocity":0.8031496062992126,"duration":0.31005859375},{"name":"G4","midi":67,"time":382.65625,"velocity":0.8031496062992126,"duration":0.31005859375},{"name":"G#4","midi":68,"time":382.96875,"velocity":0.8031496062992126,"duration":0.31005859375},{"name":"G4","midi":67,"time":383.28125,"velocity":0.8031496062992126,"duration":0.31005859375},{"name":"F4","midi":65,"time":383.59375,"velocity":0.8031496062992126,"duration":0.31005859375},{"name":"D#5","midi":75,"time":383.90625,"velocity":0.8031496062992126,"duration":0.62255859375},{"name":"G4","midi":67,"time":383.90625,"velocity":0.8031496062992126,"duration":0.31005859375},{"name":"A#4","midi":70,"time":384.21875,"velocity":0.8031496062992126,"duration":0.31005859375},{"name":"A#5","midi":82,"time":384.53125,"velocity":0.8031496062992126,"duration":0.23193359375},{"name":"G#4","midi":68,"time":384.53125,"velocity":0.8031496062992126,"duration":0.31005859375},{"name":"D#5","midi":75,"time":384.84375,"velocity":0.8031496062992126,"duration":0.62255859375},{"name":"G4","midi":67,"time":384.84375,"velocity":0.8031496062992126,"duration":0.31005859375},{"name":"F4","midi":65,"time":385.15625,"velocity":0.8031496062992126,"duration":0.31005859375},{"name":"A#5","midi":82,"time":385.46875,"velocity":0.8031496062992126,"duration":0.23193359375},{"name":"D#4","midi":63,"time":385.46875,"velocity":0.8031496062992126,"duration":0.31005859375},{"name":"F5","midi":77,"time":385.78125,"velocity":0.8031496062992126,"duration":0.31005859375},{"name":"D4","midi":62,"time":385.78125,"velocity":0.8031496062992126,"duration":0.62255859375},{"name":"D#5","midi":75,"time":386.09375,"velocity":0.8031496062992126,"duration":0.31005859375},{"name":"D5","midi":74,"time":386.40625,"velocity":0.8031496062992126,"duration":0.31005859375},{"name":"A#4","midi":70,"time":386.40625,"velocity":0.8031496062992126,"duration":0.31005859375},{"name":"D#5","midi":75,"time":386.71875,"velocity":0.8031496062992126,"duration":0.31005859375},{"name":"C4","midi":60,"time":386.71875,"velocity":0.8031496062992126,"duration":0.62255859375},{"name":"D5","midi":74,"time":387.03125,"velocity":0.8031496062992126,"duration":0.31005859375},{"name":"C5","midi":72,"time":387.34375,"velocity":0.8031496062992126,"duration":0.31005859375},{"name":"A4","midi":69,"time":387.34375,"velocity":0.8031496062992126,"duration":0.31005859375},{"name":"D5","midi":74,"time":387.65625,"velocity":0.8031496062992126,"duration":0.62255859375},{"name":"A#3","midi":58,"time":387.65625,"velocity":0.8031496062992126,"duration":0.62255859375},{"name":"A#4","midi":70,"time":387.96875,"velocity":0.8031496062992126,"duration":0.62255859375},{"name":"G5","midi":79,"time":388.28125,"velocity":0.8031496062992126,"duration":0.31005859375},{"name":"D#4","midi":63,"time":388.28125,"velocity":0.8031496062992126,"duration":0.23193359375},{"name":"D5","midi":74,"time":388.59375,"velocity":0.8031496062992126,"duration":0.62255859375},{"name":"A#3","midi":58,"time":388.59375,"velocity":0.8031496062992126,"duration":0.62255859375},{"name":"A#4","midi":70,"time":388.90625,"velocity":0.8031496062992126,"duration":0.62255859375},{"name":"G5","midi":79,"time":389.21875,"velocity":0.8031496062992126,"duration":0.31005859375},{"name":"D#4","midi":63,"time":389.21875,"velocity":0.8031496062992126,"duration":0.23193359375},{"name":"F5","midi":77,"time":389.53125,"velocity":0.8031496062992126,"duration":0.62255859375},{"name":"A#3","midi":58,"time":389.53125,"velocity":0.8031496062992126,"duration":0.31005859375},{"name":"D5","midi":74,"time":389.84375,"velocity":0.8031496062992126,"duration":0.62255859375},{"name":"G#3","midi":56,"time":389.84375,"velocity":0.8031496062992126,"duration":0.31005859375},{"name":"A#5","midi":82,"time":390.15625,"velocity":0.8031496062992126,"duration":0.31005859375},{"name":"G3","midi":55,"time":390.15625,"velocity":0.8031496062992126,"duration":0.31005859375},{"name":"F5","midi":77,"time":390.46875,"velocity":0.8031496062992126,"duration":0.62255859375},{"name":"G#3","midi":56,"time":390.46875,"velocity":0.8031496062992126,"duration":0.31005859375},{"name":"D5","midi":74,"time":390.78125,"velocity":0.8031496062992126,"duration":0.62255859375},{"name":"G3","midi":55,"time":390.78125,"velocity":0.8031496062992126,"duration":0.31005859375},{"name":"A#5","midi":82,"time":391.09375,"velocity":0.8031496062992126,"duration":0.31005859375},{"name":"F3","midi":53,"time":391.09375,"velocity":0.8031496062992126,"duration":0.31005859375},{"name":"D#5","midi":75,"time":391.40625,"velocity":0.8031496062992126,"duration":0.62255859375},{"name":"G3","midi":55,"time":391.40625,"velocity":0.8031496062992126,"duration":0.31005859375},{"name":"D5","midi":74,"time":391.71875,"velocity":0.8031496062992126,"duration":0.31005859375},{"name":"F3","midi":53,"time":391.71875,"velocity":0.8031496062992126,"duration":0.31005859375},{"name":"A#5","midi":82,"time":392.03125,"velocity":0.8031496062992126,"duration":0.31005859375},{"name":"D#3","midi":51,"time":392.03125,"velocity":0.8031496062992126,"duration":0.31005859375},{"name":"D#5","midi":75,"time":392.34375,"velocity":0.8031496062992126,"duration":0.62255859375},{"name":"G3","midi":55,"time":392.34375,"velocity":0.8031496062992126,"duration":0.31005859375},{"name":"D5","midi":74,"time":392.65625,"velocity":0.8031496062992126,"duration":0.31005859375},{"name":"F3","midi":53,"time":392.65625,"velocity":0.8031496062992126,"duration":0.31005859375},{"name":"A#5","midi":82,"time":392.96875,"velocity":0.8031496062992126,"duration":0.31005859375},{"name":"D#3","midi":51,"time":392.96875,"velocity":0.8031496062992126,"duration":0.31005859375},{"name":"C5","midi":72,"time":393.28125,"velocity":0.8031496062992126,"duration":0.31005859375},{"name":"G#3","midi":56,"time":393.28125,"velocity":0.8031496062992126,"duration":0.31005859375},{"name":"D5","midi":74,"time":393.59375,"velocity":0.8031496062992126,"duration":0.31005859375},{"name":"D#3","midi":51,"time":393.59375,"velocity":0.8031496062992126,"duration":0.31005859375},{"name":"D#5","midi":75,"time":393.90625,"velocity":0.8031496062992126,"duration":0.31005859375},{"name":"C4","midi":60,"time":393.90625,"velocity":0.8031496062992126,"duration":0.31005859375},{"name":"F5","midi":77,"time":394.21875,"velocity":0.8031496062992126,"duration":0.31005859375},{"name":"G#3","midi":56,"time":394.21875,"velocity":0.8031496062992126,"duration":0.31005859375},{"name":"G5","midi":79,"time":394.53125,"velocity":0.8031496062992126,"duration":0.31005859375},{"name":"D#3","midi":51,"time":394.53125,"velocity":0.8031496062992126,"duration":0.31005859375},{"name":"G#5","midi":80,"time":394.84375,"velocity":0.8031496062992126,"duration":0.31005859375},{"name":"C4","midi":60,"time":394.84375,"velocity":0.8031496062992126,"duration":0.31005859375},{"name":"D5","midi":74,"time":395.15625,"velocity":0.8031496062992126,"duration":0.62255859375},{"name":"F3","midi":53,"time":395.15625,"velocity":0.8031496062992126,"duration":0.31005859375},{"name":"C5","midi":72,"time":395.46875,"velocity":0.8031496062992126,"duration":0.31005859375},{"name":"D#3","midi":51,"time":395.46875,"velocity":0.8031496062992126,"duration":0.31005859375},{"name":"G#5","midi":80,"time":395.78125,"velocity":0.8031496062992126,"duration":0.31005859375},{"name":"D3","midi":50,"time":395.78125,"velocity":0.8031496062992126,"duration":0.31005859375},{"name":"D5","midi":74,"time":396.09375,"velocity":0.8031496062992126,"duration":0.62255859375},{"name":"F3","midi":53,"time":396.09375,"velocity":0.8031496062992126,"duration":0.31005859375},{"name":"C5","midi":72,"time":396.40625,"velocity":0.8031496062992126,"duration":0.31005859375},{"name":"D#3","midi":51,"time":396.40625,"velocity":0.8031496062992126,"duration":0.31005859375},{"name":"G#5","midi":80,"time":396.71875,"velocity":0.8031496062992126,"duration":0.31005859375},{"name":"D3","midi":50,"time":396.71875,"velocity":0.8031496062992126,"duration":0.31005859375},{"name":"A#4","midi":70,"time":397.03125,"velocity":0.8031496062992126,"duration":0.31005859375},{"name":"G3","midi":55,"time":397.03125,"velocity":0.8031496062992126,"duration":0.31005859375},{"name":"C5","midi":72,"time":397.34375,"velocity":0.8031496062992126,"duration":0.31005859375},{"name":"D3","midi":50,"time":397.34375,"velocity":0.8031496062992126,"duration":0.31005859375},{"name":"D5","midi":74,"time":397.65625,"velocity":0.8031496062992126,"duration":0.31005859375},{"name":"A#3","midi":58,"time":397.65625,"velocity":0.8031496062992126,"duration":0.31005859375},{"name":"D#5","midi":75,"time":397.96875,"velocity":0.8031496062992126,"duration":0.31005859375},{"name":"G3","midi":55,"time":397.96875,"velocity":0.8031496062992126,"duration":0.31005859375},{"name":"F5","midi":77,"time":398.28125,"velocity":0.8031496062992126,"duration":0.31005859375},{"name":"D3","midi":50,"time":398.28125,"velocity":0.8031496062992126,"duration":0.31005859375},{"name":"G5","midi":79,"time":398.59375,"velocity":0.8031496062992126,"duration":0.31005859375},{"name":"A#3","midi":58,"time":398.59375,"velocity":0.8031496062992126,"duration":0.31005859375},{"name":"C5","midi":72,"time":398.90625,"velocity":0.8031496062992126,"duration":0.62255859375},{"name":"D#3","midi":51,"time":398.90625,"velocity":0.8031496062992126,"duration":0.31005859375},{"name":"A#4","midi":70,"time":399.21875,"velocity":0.8031496062992126,"duration":0.31005859375},{"name":"D3","midi":50,"time":399.21875,"velocity":0.8031496062992126,"duration":0.31005859375},{"name":"G5","midi":79,"time":399.53125,"velocity":0.8031496062992126,"duration":0.31005859375},{"name":"C3","midi":48,"time":399.53125,"velocity":0.8031496062992126,"duration":0.31005859375},{"name":"C5","midi":72,"time":399.84375,"velocity":0.8031496062992126,"duration":0.62255859375},{"name":"D#3","midi":51,"time":399.84375,"velocity":0.8031496062992126,"duration":0.31005859375},{"name":"A#4","midi":70,"time":400.15625,"velocity":0.8031496062992126,"duration":0.31005859375},{"name":"D3","midi":50,"time":400.15625,"velocity":0.8031496062992126,"duration":0.31005859375},{"name":"G5","midi":79,"time":400.46875,"velocity":0.8031496062992126,"duration":0.31005859375},{"name":"C3","midi":48,"time":400.46875,"velocity":0.8031496062992126,"duration":0.31005859375},{"name":"G#4","midi":68,"time":400.78125,"velocity":0.8031496062992126,"duration":0.31005859375},{"name":"F3","midi":53,"time":400.78125,"velocity":0.8031496062992126,"duration":0.31005859375},{"name":"A#4","midi":70,"time":401.09375,"velocity":0.8031496062992126,"duration":0.31005859375},{"name":"C3","midi":48,"time":401.09375,"velocity":0.8031496062992126,"duration":0.31005859375},{"name":"C5","midi":72,"time":401.40625,"velocity":0.8031496062992126,"duration":0.31005859375},{"name":"G#3","midi":56,"time":401.40625,"velocity":0.8031496062992126,"duration":0.31005859375},{"name":"D5","midi":74,"time":401.71875,"velocity":0.8031496062992126,"duration":0.31005859375},{"name":"F3","midi":53,"time":401.71875,"velocity":0.8031496062992126,"duration":0.31005859375},{"name":"D#5","midi":75,"time":402.03125,"velocity":0.8031496062992126,"duration":0.31005859375},{"name":"C3","midi":48,"time":402.03125,"velocity":0.8031496062992126,"duration":0.31005859375},{"name":"F5","midi":77,"time":402.34375,"velocity":0.8031496062992126,"duration":0.31005859375},{"name":"G#3","midi":56,"time":402.34375,"velocity":0.8031496062992126,"duration":0.31005859375},{"name":"A#4","midi":70,"time":402.65625,"velocity":0.8031496062992126,"duration":0.62255859375},{"name":"D3","midi":50,"time":402.65625,"velocity":0.8031496062992126,"duration":0.31005859375},{"name":"G#4","midi":68,"time":402.96875,"velocity":0.8031496062992126,"duration":0.31005859375},{"name":"C3","midi":48,"time":402.96875,"velocity":0.8031496062992126,"duration":0.31005859375},{"name":"F5","midi":77,"time":403.28125,"velocity":0.8031496062992126,"duration":0.31005859375},{"name":"A#2","midi":46,"time":403.28125,"velocity":0.8031496062992126,"duration":0.31005859375},{"name":"A#4","midi":70,"time":403.59375,"velocity":0.8031496062992126,"duration":0.62255859375},{"name":"D3","midi":50,"time":403.59375,"velocity":0.8031496062992126,"duration":0.31005859375},{"name":"G#4","midi":68,"time":403.90625,"velocity":0.8031496062992126,"duration":0.31005859375},{"name":"C3","midi":48,"time":403.90625,"velocity":0.8031496062992126,"duration":0.31005859375},{"name":"F5","midi":77,"time":404.21875,"velocity":0.8031496062992126,"duration":0.31005859375},{"name":"A#2","midi":46,"time":404.21875,"velocity":0.8031496062992126,"duration":0.31005859375},{"name":"G4","midi":67,"time":404.53125,"velocity":0.8031496062992126,"duration":0.31005859375},{"name":"D#3","midi":51,"time":404.53125,"velocity":0.8031496062992126,"duration":0.31005859375},{"name":"G#4","midi":68,"time":404.84375,"velocity":0.8031496062992126,"duration":0.31005859375},{"name":"A#2","midi":46,"time":404.84375,"velocity":0.8031496062992126,"duration":0.31005859375},{"name":"A#4","midi":70,"time":405.15625,"velocity":0.8031496062992126,"duration":0.31005859375},{"name":"G3","midi":55,"time":405.15625,"velocity":0.8031496062992126,"duration":0.31005859375},{"name":"A#4","midi":70,"time":405.46875,"velocity":0.8031496062992126,"duration":0.31005859375},{"name":"D#3","midi":51,"time":405.46875,"velocity":0.8031496062992126,"duration":0.31005859375},{"name":"C5","midi":72,"time":405.78125,"velocity":0.8031496062992126,"duration":0.31005859375},{"name":"A#2","midi":46,"time":405.78125,"velocity":0.8031496062992126,"duration":0.31005859375},{"name":"D5","midi":74,"time":406.09375,"velocity":0.8031496062992126,"duration":0.31005859375},{"name":"G3","midi":55,"time":406.09375,"velocity":0.8031496062992126,"duration":0.31005859375},{"name":"D#5","midi":75,"time":406.40625,"velocity":0.8031496062992126,"duration":0.62255859375},{"name":"C3","midi":48,"time":406.40625,"velocity":0.8031496062992126,"duration":0.62255859375},{"name":"G4","midi":67,"time":406.71875,"velocity":0.8031496062992126,"duration":0.31005859375},{"name":"C5","midi":72,"time":407.03125,"velocity":0.8031496062992126,"duration":0.31005859375},{"name":"G3","midi":55,"time":407.03125,"velocity":0.8031496062992126,"duration":0.31005859375},{"name":"D#5","midi":75,"time":407.34375,"velocity":0.8031496062992126,"duration":0.62255859375},{"name":"C3","midi":48,"time":407.34375,"velocity":0.8031496062992126,"duration":0.62255859375},{"name":"G4","midi":67,"time":407.65625,"velocity":0.8031496062992126,"duration":0.31005859375},{"name":"C5","midi":72,"time":407.96875,"velocity":0.8031496062992126,"duration":0.31005859375},{"name":"G3","midi":55,"time":407.96875,"velocity":0.8031496062992126,"duration":0.31005859375},{"name":"D#5","midi":75,"time":408.28125,"velocity":0.8031496062992126,"duration":1.40380859375},{"name":"A#2","midi":46,"time":408.28125,"velocity":0.8031496062992126,"duration":0.31005859375},{"name":"A2","midi":45,"time":408.59375,"velocity":0.8031496062992126,"duration":0.31005859375},{"name":"C5","midi":72,"time":408.90625,"velocity":0.8031496062992126,"duration":0.31005859375},{"name":"G2","midi":43,"time":408.90625,"velocity":0.8031496062992126,"duration":0.31005859375},{"name":"F4","midi":65,"time":409.21875,"velocity":0.8031496062992126,"duration":0.927734375},{"name":"A2","midi":45,"time":409.21875,"velocity":0.8031496062992126,"duration":0.31005859375},{"name":"G2","midi":43,"time":409.53125,"velocity":0.8031496062992126,"duration":0.31005859375},{"name":"D#5","midi":75,"time":409.84375,"velocity":0.8031496062992126,"duration":0.31005859375},{"name":"F2","midi":41,"time":409.84375,"velocity":0.8031496062992126,"duration":0.31005859375},{"name":"D5","midi":74,"time":410.15625,"velocity":0.8031496062992126,"duration":0.31005859375},{"name":"A#2","midi":46,"time":410.15625,"velocity":0.8031496062992126,"duration":0.62255859375},{"name":"F5","midi":77,"time":410.46875,"velocity":0.8031496062992126,"duration":0.31005859375},{"name":"D5","midi":74,"time":410.78125,"velocity":0.8031496062992126,"duration":0.31005859375},{"name":"A#3","midi":58,"time":410.78125,"velocity":0.8031496062992126,"duration":0.31005859375},{"name":"A#4","midi":70,"time":411.09375,"velocity":0.8031496062992126,"duration":0.31005859375},{"name":"F3","midi":53,"time":411.09375,"velocity":0.8031496062992126,"duration":0.62255859375},{"name":"D5","midi":74,"time":411.40625,"velocity":0.8031496062992126,"duration":0.31005859375},{"name":"F5","midi":77,"time":411.71875,"velocity":0.8031496062992126,"duration":0.31005859375},{"name":"A#3","midi":58,"time":411.71875,"velocity":0.8031496062992126,"duration":0.31005859375},{"name":"G#5","midi":80,"time":412.03125,"velocity":0.8031496062992126,"duration":1.40380859375},{"name":"D#3","midi":51,"time":412.03125,"velocity":0.8031496062992126,"duration":0.31005859375},{"name":"D3","midi":50,"time":412.34375,"velocity":0.8031496062992126,"duration":0.31005859375},{"name":"F5","midi":77,"time":412.65625,"velocity":0.8031496062992126,"duration":0.31005859375},{"name":"C3","midi":48,"time":412.65625,"velocity":0.8031496062992126,"duration":0.31005859375},{"name":"A#4","midi":70,"time":412.96875,"velocity":0.8031496062992126,"duration":0.927734375},{"name":"D3","midi":50,"time":412.96875,"velocity":0.8031496062992126,"duration":0.31005859375},{"name":"C3","midi":48,"time":413.28125,"velocity":0.8031496062992126,"duration":0.31005859375},{"name":"G#5","midi":80,"time":413.59375,"velocity":0.8031496062992126,"duration":0.31005859375},{"name":"A#2","midi":46,"time":413.59375,"velocity":0.8031496062992126,"duration":0.31005859375},{"name":"G5","midi":79,"time":413.90625,"velocity":0.8031496062992126,"duration":0.31005859375},{"name":"D#3","midi":51,"time":413.90625,"velocity":0.8031496062992126,"duration":0.62255859375},{"name":"A#5","midi":82,"time":414.21875,"velocity":0.8031496062992126,"duration":0.15380859375},{"name":"G#5","midi":80,"time":414.375,"velocity":0.8031496062992126,"duration":0.15380859375},{"name":"G5","midi":79,"time":414.53125,"velocity":0.8031496062992126,"duration":0.15380859375},{"name":"D#4","midi":63,"time":414.53125,"velocity":0.8031496062992126,"duration":0.31005859375},{"name":"F5","midi":77,"time":414.6875,"velocity":0.8031496062992126,"duration":0.15380859375},{"name":"D#5","midi":75,"time":414.84375,"velocity":0.8031496062992126,"duration":0.31005859375},{"name":"C4","midi":60,"time":414.84375,"velocity":0.8031496062992126,"duration":0.62255859375},{"name":"G5","midi":79,"time":415.15625,"velocity":0.8031496062992126,"duration":0.15380859375},{"name":"F5","midi":77,"time":415.3125,"velocity":0.8031496062992126,"duration":0.15380859375},{"name":"D#5","midi":75,"time":415.46875,"velocity":0.8031496062992126,"duration":0.15380859375},{"name":"D#4","midi":63,"time":415.46875,"velocity":0.8031496062992126,"duration":0.31005859375},{"name":"D5","midi":74,"time":415.625,"velocity":0.8031496062992126,"duration":0.15380859375},{"name":"C5","midi":72,"time":415.78125,"velocity":0.8031496062992126,"duration":0.31005859375},{"name":"A#3","midi":58,"time":415.78125,"velocity":0.8031496062992126,"duration":0.31005859375},{"name":"D5","midi":74,"time":416.09375,"velocity":0.8031496062992126,"duration":0.31005859375},{"name":"A3","midi":57,"time":416.09375,"velocity":0.8031496062992126,"duration":0.31005859375},{"name":"D#5","midi":75,"time":416.40625,"velocity":0.8031496062992126,"duration":0.31005859375},{"name":"G3","midi":55,"time":416.40625,"velocity":0.8031496062992126,"duration":0.31005859375},{"name":"F4","midi":65,"time":416.71875,"velocity":0.8031496062992126,"duration":0.46630859375},{"name":"A3","midi":57,"time":416.71875,"velocity":0.8031496062992126,"duration":0.31005859375},{"name":"G3","midi":55,"time":417.03125,"velocity":0.8031496062992126,"duration":0.31005859375},{"name":"C5","midi":72,"time":417.1875,"velocity":0.8031496062992126,"duration":0.15380859375},{"name":"D5","midi":74,"time":417.34375,"velocity":0.8031496062992126,"duration":0.15380859375},{"name":"F3","midi":53,"time":417.34375,"velocity":0.8031496062992126,"duration":0.31005859375},{"name":"D#5","midi":75,"time":417.5,"velocity":0.8031496062992126,"duration":0.15380859375},{"name":"D5","midi":74,"time":417.65625,"velocity":0.8031496062992126,"duration":0.31005859375},{"name":"A#3","midi":58,"time":417.65625,"velocity":0.8031496062992126,"duration":0.62255859375},{"name":"C5","midi":72,"time":417.96875,"velocity":0.8031496062992126,"duration":0.31005859375},{"name":"A#4","midi":70,"time":418.28125,"velocity":0.8031496062992126,"duration":0.31005859375},{"name":"D3","midi":50,"time":418.28125,"velocity":0.8031496062992126,"duration":0.31005859375},{"name":"A#4","midi":70,"time":418.59375,"velocity":0.8031496062992126,"duration":0.31005859375},{"name":"D#3","midi":51,"time":418.59375,"velocity":0.8031496062992126,"duration":0.62255859375},{"name":"C5","midi":72,"time":418.90625,"velocity":0.8031496062992126,"duration":0.31005859375},{"name":"A4","midi":69,"time":419.21875,"velocity":0.8031496062992126,"duration":0.31005859375},{"name":"F3","midi":53,"time":419.21875,"velocity":0.8031496062992126,"duration":0.31005859375},{"name":"A#4","midi":70,"time":419.53125,"velocity":0.8031496062992126,"duration":0.31005859375},{"name":"A#2","midi":46,"time":419.53125,"velocity":0.8031496062992126,"duration":0.31005859375},{"name":"C5","midi":72,"time":419.84375,"velocity":0.8031496062992126,"duration":0.31005859375},{"name":"F3","midi":53,"time":419.84375,"velocity":0.8031496062992126,"duration":0.31005859375},{"name":"D5","midi":74,"time":420.15625,"velocity":0.8031496062992126,"duration":0.31005859375},{"name":"A#3","midi":58,"time":420.15625,"velocity":0.8031496062992126,"duration":0.31005859375},{"name":"D5","midi":74,"time":420.46875,"velocity":0.8031496062992126,"duration":0.31005859375},{"name":"F3","midi":53,"time":420.46875,"velocity":0.8031496062992126,"duration":0.31005859375},{"name":"D#5","midi":75,"time":420.78125,"velocity":0.8031496062992126,"duration":0.31005859375},{"name":"D3","midi":50,"time":420.78125,"velocity":0.8031496062992126,"duration":0.31005859375},{"name":"F5","midi":77,"time":421.09375,"velocity":0.8031496062992126,"duration":0.31005859375},{"name":"A#3","midi":58,"time":421.09375,"velocity":0.8031496062992126,"duration":0.31005859375},{"name":"G5","midi":79,"time":421.40625,"velocity":0.8031496062992126,"duration":0.15380859375},{"name":"F3","midi":53,"time":421.40625,"velocity":0.8031496062992126,"duration":0.31005859375},{"name":"F5","midi":77,"time":421.5478515625,"velocity":0.8031496062992126,"duration":0.15380859375},{"name":"G5","midi":79,"time":421.689453125,"velocity":0.8031496062992126,"duration":0.15380859375},{"name":"G3","midi":55,"time":421.71875,"velocity":0.8031496062992126,"duration":0.15380859375},{"name":"F5","midi":77,"time":421.8310546875,"velocity":0.8031496062992126,"duration":0.15380859375},{"name":"F3","midi":53,"time":421.875,"velocity":0.8031496062992126,"duration":0.15380859375},{"name":"G5","midi":79,"time":421.97265625,"velocity":0.8031496062992126,"duration":0.15380859375},{"name":"D#3","midi":51,"time":422.03125,"velocity":0.8031496062992126,"duration":0.15380859375},{"name":"F5","midi":77,"time":422.1142578125,"velocity":0.8031496062992126,"duration":0.15380859375},{"name":"D3","midi":50,"time":422.1875,"velocity":0.8031496062992126,"duration":0.15380859375},{"name":"G5","midi":79,"time":422.25830078125,"velocity":0.8031496062992126,"duration":0.15380859375},{"name":"D#3","midi":51,"time":422.34375,"velocity":0.8031496062992126,"duration":0.31005859375},{"name":"F5","midi":77,"time":422.39990234375,"velocity":0.8031496062992126,"duration":0.15380859375},{"name":"G5","midi":79,"time":422.54150390625,"velocity":0.8031496062992126,"duration":0.15380859375},{"name":"F3","midi":53,"time":422.65625,"velocity":0.8031496062992126,"duration":0.15380859375},{"name":"F5","midi":77,"time":422.68310546875,"velocity":0.8031496062992126,"duration":0.15380859375},{"name":"D#3","midi":51,"time":422.8125,"velocity":0.8031496062992126,"duration":0.15380859375},{"name":"G5","midi":79,"time":422.82470703125,"velocity":0.8031496062992126,"duration":0.15380859375},{"name":"F5","midi":77,"time":422.96875,"velocity":0.8031496062992126,"duration":0.87890625},{"name":"D3","midi":50,"time":422.96875,"velocity":0.8031496062992126,"duration":0.15380859375},{"name":"C3","midi":48,"time":423.125,"velocity":0.8031496062992126,"duration":0.15380859375},{"name":"D3","midi":50,"time":423.28125,"velocity":0.8031496062992126,"duration":0.31005859375},{"name":"D#3","midi":51,"time":423.59375,"velocity":0.8031496062992126,"duration":0.15380859375},{"name":"D3","midi":50,"time":423.75,"velocity":0.8031496062992126,"duration":0.15380859375},{"name":"A#5","midi":82,"time":423.90625,"velocity":0.8031496062992126,"duration":0.31005859375},{"name":"C3","midi":48,"time":423.90625,"velocity":0.8031496062992126,"duration":0.15380859375},{"name":"A#2","midi":46,"time":424.0625,"velocity":0.8031496062992126,"duration":0.15380859375},{"name":"F5","midi":77,"time":424.21875,"velocity":0.8031496062992126,"duration":0.62255859375},{"name":"D3","midi":50,"time":424.21875,"velocity":0.8031496062992126,"duration":0.31005859375},{"name":"F3","midi":53,"time":424.53125,"velocity":0.8031496062992126,"duration":0.15380859375},{"name":"D#3","midi":51,"time":424.6875,"velocity":0.8031496062992126,"duration":0.15380859375},{"name":"A#5","midi":82,"time":424.84375,"velocity":0.8031496062992126,"duration":0.31005859375},{"name":"D3","midi":50,"time":424.84375,"velocity":0.8031496062992126,"duration":0.15380859375},{"name":"C3","midi":48,"time":425,"velocity":0.8031496062992126,"duration":0.15380859375},{"name":"F5","midi":77,"time":425.15625,"velocity":0.8031496062992126,"duration":0.31005859375},{"name":"D3","midi":50,"time":425.15625,"velocity":0.8031496062992126,"duration":0.31005859375},{"name":"G5","midi":79,"time":425.46875,"velocity":0.8031496062992126,"duration":0.15380859375},{"name":"A#2","midi":46,"time":425.46875,"velocity":0.8031496062992126,"duration":0.31005859375},{"name":"F5","midi":77,"time":425.625,"velocity":0.8031496062992126,"duration":0.15380859375},{"name":"D#5","midi":75,"time":425.78125,"velocity":0.8031496062992126,"duration":0.15380859375},{"name":"D3","midi":50,"time":425.78125,"velocity":0.8031496062992126,"duration":0.31005859375},{"name":"D5","midi":74,"time":425.9375,"velocity":0.8031496062992126,"duration":0.15380859375},{"name":"D#5","midi":75,"time":426.09375,"velocity":0.8031496062992126,"duration":0.31005859375},{"name":"F3","midi":53,"time":426.09375,"velocity":0.8031496062992126,"duration":0.31005859375},{"name":"F5","midi":77,"time":426.40625,"velocity":0.8031496062992126,"duration":0.15380859375},{"name":"D3","midi":50,"time":426.40625,"velocity":0.8031496062992126,"duration":0.31005859375},{"name":"D#5","midi":75,"time":426.5625,"velocity":0.8031496062992126,"duration":0.15380859375},{"name":"D5","midi":74,"time":426.71875,"velocity":0.8031496062992126,"duration":0.15380859375},{"name":"F3","midi":53,"time":426.71875,"velocity":0.8031496062992126,"duration":0.31005859375},{"name":"C5","midi":72,"time":426.875,"velocity":0.8031496062992126,"duration":0.15380859375},{"name":"A#4","midi":70,"time":427.03125,"velocity":0.8031496062992126,"duration":1.87255859375},{"name":"A#3","midi":58,"time":427.03125,"velocity":0.8031496062992126,"duration":0.927734375},{"name":"D4","midi":62,"time":427.34375,"velocity":0.8031496062992126,"duration":0.31005859375},{"name":"F4","midi":65,"time":427.65625,"velocity":0.8031496062992126,"duration":0.31005859375},{"name":"A#3","midi":58,"time":427.96875,"velocity":0.8031496062992126,"duration":0.68359375},{"name":"F4","midi":65,"time":428.90625,"velocity":0.8031496062992126,"duration":0.62255859375},{"name":"A#3","midi":58,"time":429.53125,"velocity":0.8031496062992126,"duration":0.23193359375},{"name":"F4","midi":65,"time":429.84375,"velocity":0.8031496062992126,"duration":0.62255859375},{"name":"A#3","midi":58,"time":430.46875,"velocity":0.8031496062992126,"duration":0.23193359375},{"name":"D#4","midi":63,"time":430.78125,"velocity":0.8031496062992126,"duration":0.31005859375},{"name":"F4","midi":65,"time":431.09375,"velocity":0.8031496062992126,"duration":0.31005859375},{"name":"G4","midi":67,"time":431.40625,"velocity":0.8031496062992126,"duration":0.31005859375},{"name":"F4","midi":65,"time":431.71875,"velocity":0.8031496062992126,"duration":0.31005859375},{"name":"G4","midi":67,"time":432.03125,"velocity":0.8031496062992126,"duration":0.31005859375},{"name":"G#4","midi":68,"time":432.34375,"velocity":0.8031496062992126,"duration":0.31005859375},{"name":"G4","midi":67,"time":432.65625,"velocity":0.8031496062992126,"duration":0.31005859375},{"name":"A#3","midi":58,"time":432.65625,"velocity":0.8031496062992126,"duration":0.62255859375},{"name":"A#4","midi":70,"time":432.96875,"velocity":0.8031496062992126,"duration":0.31005859375},{"name":"G#4","midi":68,"time":433.28125,"velocity":0.8031496062992126,"duration":0.31005859375},{"name":"D#3","midi":51,"time":433.28125,"velocity":0.8031496062992126,"duration":0.23193359375},{"name":"G4","midi":67,"time":433.59375,"velocity":0.8031496062992126,"duration":0.31005859375},{"name":"A#3","midi":58,"time":433.59375,"velocity":0.8031496062992126,"duration":0.62255859375},{"name":"F4","midi":65,"time":433.90625,"velocity":0.8031496062992126,"duration":0.31005859375},{"name":"D#4","midi":63,"time":434.21875,"velocity":0.8031496062992126,"duration":0.31005859375},{"name":"D#3","midi":51,"time":434.21875,"velocity":0.8031496062992126,"duration":0.23193359375},{"name":"F4","midi":65,"time":434.53125,"velocity":0.8031496062992126,"duration":0.46630859375},{"name":"G#3","midi":56,"time":434.53125,"velocity":0.8031496062992126,"duration":0.31005859375},{"name":"A#3","midi":58,"time":434.84375,"velocity":0.8031496062992126,"duration":0.31005859375},{"name":"G4","midi":67,"time":435,"velocity":0.8031496062992126,"duration":0.15380859375},{"name":"F4","midi":65,"time":435.15625,"velocity":0.8031496062992126,"duration":0.15380859375},{"name":"C4","midi":60,"time":435.15625,"velocity":0.8031496062992126,"duration":0.31005859375},{"name":"G4","midi":67,"time":435.3125,"velocity":0.8031496062992126,"duration":0.15380859375},{"name":"G#4","midi":68,"time":435.46875,"velocity":0.8031496062992126,"duration":0.15380859375},{"name":"A#3","midi":58,"time":435.46875,"velocity":0.8031496062992126,"duration":0.31005859375},{"name":"G4","midi":67,"time":435.625,"velocity":0.8031496062992126,"duration":0.15380859375},{"name":"G#4","midi":68,"time":435.78125,"velocity":0.8031496062992126,"duration":0.15380859375},{"name":"C4","midi":60,"time":435.78125,"velocity":0.8031496062992126,"duration":0.31005859375},{"name":"G4","midi":67,"time":435.9375,"velocity":0.8031496062992126,"duration":0.15380859375},{"name":"F4","midi":65,"time":436.09375,"velocity":0.8031496062992126,"duration":0.15380859375},{"name":"C#4","midi":61,"time":436.09375,"velocity":0.8031496062992126,"duration":0.31005859375},{"name":"G4","midi":67,"time":436.25,"velocity":0.8031496062992126,"duration":0.15380859375},{"name":"G#4","midi":68,"time":436.40625,"velocity":0.8031496062992126,"duration":0.31005859375},{"name":"C4","midi":60,"time":436.40625,"velocity":0.8031496062992126,"duration":0.46630859375},{"name":"C5","midi":72,"time":436.71875,"velocity":0.8031496062992126,"duration":0.31005859375},{"name":"D4","midi":62,"time":436.875,"velocity":0.8031496062992126,"duration":0.15380859375},{"name":"A#4","midi":70,"time":437.03125,"velocity":0.8031496062992126,"duration":0.31005859375},{"name":"C4","midi":60,"time":437.03125,"velocity":0.8031496062992126,"duration":0.15380859375},{"name":"D4","midi":62,"time":437.1875,"velocity":0.8031496062992126,"duration":0.15380859375},{"name":"G#4","midi":68,"time":437.34375,"velocity":0.8031496062992126,"duration":0.31005859375},{"name":"D#4","midi":63,"time":437.34375,"velocity":0.8031496062992126,"duration":0.15380859375},{"name":"D4","midi":62,"time":437.5,"velocity":0.8031496062992126,"duration":0.15380859375},{"name":"G4","midi":67,"time":437.65625,"velocity":0.8031496062992126,"duration":0.31005859375},{"name":"D#4","midi":63,"time":437.65625,"velocity":0.8031496062992126,"duration":0.15380859375},{"name":"D4","midi":62,"time":437.8125,"velocity":0.8031496062992126,"duration":0.15380859375},{"name":"F4","midi":65,"time":437.96875,"velocity":0.8031496062992126,"duration":0.31005859375},{"name":"C4","midi":60,"time":437.96875,"velocity":0.8031496062992126,"duration":0.15380859375},{"name":"D4","midi":62,"time":438.125,"velocity":0.8031496062992126,"duration":0.15380859375},{"name":"G4","midi":67,"time":438.28125,"velocity":0.8031496062992126,"duration":0.31005859375},{"name":"D#4","midi":63,"time":438.28125,"velocity":0.8031496062992126,"duration":0.31005859375},{"name":"G4","midi":67,"time":438.59375,"velocity":0.8031496062992126,"duration":0.31005859375},{"name":"A4","midi":69,"time":438.75,"velocity":0.8031496062992126,"duration":0.15380859375},{"name":"G4","midi":67,"time":438.90625,"velocity":0.8031496062992126,"duration":0.15380859375},{"name":"F4","midi":65,"time":438.90625,"velocity":0.8031496062992126,"duration":0.31005859375},{"name":"A4","midi":69,"time":439.0625,"velocity":0.8031496062992126,"duration":0.15380859375},{"name":"A#4","midi":70,"time":439.21875,"velocity":0.8031496062992126,"duration":0.15380859375},{"name":"D#4","midi":63,"time":439.21875,"velocity":0.8031496062992126,"duration":0.31005859375},{"name":"A4","midi":69,"time":439.375,"velocity":0.8031496062992126,"duration":0.15380859375},{"name":"A#4","midi":70,"time":439.53125,"velocity":0.8031496062992126,"duration":0.15380859375},{"name":"D4","midi":62,"time":439.53125,"velocity":0.8031496062992126,"duration":0.31005859375},{"name":"A4","midi":69,"time":439.6875,"velocity":0.8031496062992126,"duration":0.15380859375},{"name":"G4","midi":67,"time":439.84375,"velocity":0.8031496062992126,"duration":0.15380859375},{"name":"C4","midi":60,"time":439.84375,"velocity":0.8031496062992126,"duration":0.31005859375},{"name":"A4","midi":69,"time":440,"velocity":0.8031496062992126,"duration":0.15380859375},{"name":"D4","midi":62,"time":440.15625,"velocity":0.8031496062992126,"duration":0.31005859375},{"name":"F4","midi":65,"time":440.15869140625,"velocity":0.8031496062992126,"duration":0.62255859375},{"name":"A#4","midi":70,"time":440.1611328125,"velocity":0.8031496062992126,"duration":0.615234375},{"name":"D5","midi":74,"time":440.16357421875,"velocity":0.8031496062992126,"duration":0.62255859375},{"name":"F5","midi":77,"time":440.166015625,"velocity":0.8031496062992126,"duration":0.62255859375},{"name":"F3","midi":53,"time":440.46875,"velocity":0.8031496062992126,"duration":0.31005859375},{"name":"A#4","midi":70,"time":440.78125,"velocity":0.8031496062992126,"duration":0.23193359375},{"name":"G#3","midi":56,"time":440.78125,"velocity":0.8031496062992126,"duration":0.31005859375},{"name":"C4","midi":60,"time":441.09375,"velocity":0.8031496062992126,"duration":0.31005859375},{"name":"F4","midi":65,"time":441.09619140625,"velocity":0.8031496062992126,"duration":0.62255859375},{"name":"G#4","midi":68,"time":441.0986328125,"velocity":0.8031496062992126,"duration":0.62255859375},{"name":"D5","midi":74,"time":441.10107421875,"velocity":0.8031496062992126,"duration":0.62255859375},{"name":"F5","midi":77,"time":441.103515625,"velocity":0.8031496062992126,"duration":0.62255859375},{"name":"A#3","midi":58,"time":441.40625,"velocity":0.8031496062992126,"duration":0.31005859375},{"name":"A#4","midi":70,"time":441.71875,"velocity":0.8031496062992126,"duration":0.23193359375},{"name":"G#3","midi":56,"time":441.71875,"velocity":0.8031496062992126,"duration":0.31005859375},{"name":"D#5","midi":75,"time":442.03125,"velocity":0.8031496062992126,"duration":0.31005859375},{"name":"G3","midi":55,"time":442.03125,"velocity":0.8031496062992126,"duration":0.31005859375},{"name":"F5","midi":77,"time":442.34375,"velocity":0.8031496062992126,"duration":0.31005859375},{"name":"F3","midi":53,"time":442.34375,"velocity":0.8031496062992126,"duration":0.31005859375},{"name":"G5","midi":79,"time":442.65625,"velocity":0.8031496062992126,"duration":0.31005859375},{"name":"D#3","midi":51,"time":442.65625,"velocity":0.8031496062992126,"duration":0.31005859375},{"name":"F5","midi":77,"time":442.96875,"velocity":0.8031496062992126,"duration":0.31005859375},{"name":"D3","midi":50,"time":442.96875,"velocity":0.8031496062992126,"duration":0.31005859375},{"name":"G5","midi":79,"time":443.28125,"velocity":0.8031496062992126,"duration":0.31005859375},{"name":"C3","midi":48,"time":443.28125,"velocity":0.8031496062992126,"duration":0.31005859375},{"name":"G#5","midi":80,"time":443.59375,"velocity":0.8031496062992126,"duration":0.31005859375},{"name":"A#2","midi":46,"time":443.59375,"velocity":0.8031496062992126,"duration":0.31005859375},{"name":"G5","midi":79,"time":443.90625,"velocity":0.8031496062992126,"duration":0.62255859375},{"name":"D#3","midi":51,"time":443.90625,"velocity":0.8031496062992126,"duration":0.62255859375},{"name":"D5","midi":74,"time":444.21875,"velocity":0.8031496062992126,"duration":0.31005859375},{"name":"D#5","midi":75,"time":444.53125,"velocity":0.8031496062992126,"duration":0.31005859375},{"name":"G4","midi":67,"time":444.53125,"velocity":0.8031496062992126,"duration":0.31005859375},{"name":"G5","midi":79,"time":444.84375,"velocity":0.8031496062992126,"duration":0.62255859375},{"name":"D#3","midi":51,"time":444.84375,"velocity":0.8031496062992126,"duration":0.62255859375},{"name":"D5","midi":74,"time":445.15625,"velocity":0.8031496062992126,"duration":0.31005859375},{"name":"D#5","midi":75,"time":445.46875,"velocity":0.8031496062992126,"duration":0.31005859375},{"name":"G4","midi":67,"time":445.46875,"velocity":0.8031496062992126,"duration":0.31005859375},{"name":"C5","midi":72,"time":445.78125,"velocity":0.8031496062992126,"duration":0.31005859375},{"name":"G#3","midi":56,"time":445.78125,"velocity":0.8031496062992126,"duration":0.31005859375},{"name":"G#5","midi":80,"time":446.09375,"velocity":0.8031496062992126,"duration":0.31005859375},{"name":"B3","midi":59,"time":446.09375,"velocity":0.8031496062992126,"duration":0.31005859375},{"name":"G5","midi":79,"time":446.40625,"velocity":0.8031496062992126,"duration":0.31005859375},{"name":"C4","midi":60,"time":446.40625,"velocity":0.8031496062992126,"duration":0.31005859375},{"name":"F5","midi":77,"time":446.71875,"velocity":0.8031496062992126,"duration":0.31005859375},{"name":"G#3","midi":56,"time":446.71875,"velocity":0.8031496062992126,"duration":0.31005859375},{"name":"G5","midi":79,"time":447.03125,"velocity":0.8031496062992126,"duration":0.31005859375},{"name":"B3","midi":59,"time":447.03125,"velocity":0.8031496062992126,"duration":0.31005859375},{"name":"D#5","midi":75,"time":447.34375,"velocity":0.8031496062992126,"duration":0.31005859375},{"name":"C4","midi":60,"time":447.34375,"velocity":0.8031496062992126,"duration":0.31005859375},{"name":"F5","midi":77,"time":447.65625,"velocity":0.8031496062992126,"duration":0.62255859375},{"name":"D3","midi":50,"time":447.65625,"velocity":0.8031496062992126,"duration":0.62255859375},{"name":"C5","midi":72,"time":447.96875,"velocity":0.8031496062992126,"duration":0.31005859375},{"name":"D5","midi":74,"time":448.28125,"velocity":0.8031496062992126,"duration":0.31005859375},{"name":"F4","midi":65,"time":448.28125,"velocity":0.8031496062992126,"duration":0.31005859375},{"name":"F5","midi":77,"time":448.59375,"velocity":0.8031496062992126,"duration":0.62255859375},{"name":"D3","midi":50,"time":448.59375,"velocity":0.8031496062992126,"duration":0.62255859375},{"name":"C5","midi":72,"time":448.90625,"velocity":0.8031496062992126,"duration":0.31005859375},{"name":"D5","midi":74,"time":449.21875,"velocity":0.8031496062992126,"duration":0.31005859375},{"name":"F4","midi":65,"time":449.21875,"velocity":0.8031496062992126,"duration":0.31005859375},{"name":"B4","midi":71,"time":449.53125,"velocity":0.8031496062992126,"duration":0.31005859375},{"name":"G3","midi":55,"time":449.53125,"velocity":0.8031496062992126,"duration":0.31005859375},{"name":"G5","midi":79,"time":449.84375,"velocity":0.8031496062992126,"duration":0.31005859375},{"name":"B3","midi":59,"time":449.84375,"velocity":0.8031496062992126,"duration":0.31005859375},{"name":"F5","midi":77,"time":450.15625,"velocity":0.8031496062992126,"duration":0.31005859375},{"name":"D4","midi":62,"time":450.15625,"velocity":0.8031496062992126,"duration":0.31005859375},{"name":"D#5","midi":75,"time":450.46875,"velocity":0.8031496062992126,"duration":0.31005859375},{"name":"G3","midi":55,"time":450.46875,"velocity":0.8031496062992126,"duration":0.31005859375},{"name":"F5","midi":77,"time":450.78125,"velocity":0.8031496062992126,"duration":0.31005859375},{"name":"B3","midi":59,"time":450.78125,"velocity":0.8031496062992126,"duration":0.31005859375},{"name":"D5","midi":74,"time":451.09375,"velocity":0.8031496062992126,"duration":0.31005859375},{"name":"D4","midi":62,"time":451.09375,"velocity":0.8031496062992126,"duration":0.31005859375},{"name":"G4","midi":67,"time":451.40625,"velocity":0.8031496062992126,"duration":0.62255859375},{"name":"D#5","midi":75,"time":451.40625,"velocity":0.8031496062992126,"duration":0.93505859375},{"name":"C4","midi":60,"time":451.40625,"velocity":0.8031496062992126,"duration":0.31005859375},{"name":"C3","midi":48,"time":451.71875,"velocity":0.8031496062992126,"duration":0.31005859375},{"name":"C4","midi":60,"time":452.03125,"velocity":0.8031496062992126,"duration":0.31005859375},{"name":"E5","midi":76,"time":452.34375,"velocity":0.8031496062992126,"duration":0.93505859375},{"name":"G4","midi":67,"time":452.34375,"velocity":0.8031496062992126,"duration":0.62255859375},{"name":"A#3","midi":58,"time":452.34375,"velocity":0.8031496062992126,"duration":0.31005859375},{"name":"C#4","midi":61,"time":452.65625,"velocity":0.8031496062992126,"duration":0.31005859375},{"name":"C4","midi":60,"time":452.96875,"velocity":0.8031496062992126,"duration":0.31005859375},{"name":"F5","midi":77,"time":453.28125,"velocity":0.8031496062992126,"duration":0.62255859375},{"name":"F4","midi":65,"time":453.28125,"velocity":0.8031496062992126,"duration":0.31005859375},{"name":"G#3","midi":56,"time":453.28125,"velocity":0.8031496062992126,"duration":0.31005859375},{"name":"G4","midi":67,"time":453.59375,"velocity":0.8031496062992126,"duration":0.31005859375},{"name":"G3","midi":55,"time":453.59375,"velocity":0.8031496062992126,"duration":0.31005859375},{"name":"G#4","midi":68,"time":453.90625,"velocity":0.8031496062992126,"duration":0.31005859375},{"name":"F3","midi":53,"time":453.90625,"velocity":0.8031496062992126,"duration":0.31005859375},{"name":"G4","midi":67,"time":454.21875,"velocity":0.8031496062992126,"duration":0.31005859375},{"name":"D#5","midi":75,"time":454.21875,"velocity":0.8031496062992126,"duration":1.2451171875},{"name":"C4","midi":60,"time":454.21875,"velocity":0.8031496062992126,"duration":0.62255859375},{"name":"G#4","midi":68,"time":454.53125,"velocity":0.8031496062992126,"duration":0.31005859375},{"name":"A#4","midi":70,"time":454.84375,"velocity":0.8031496062992126,"duration":0.31005859375},{"name":"C3","midi":48,"time":454.84375,"velocity":0.8031496062992126,"duration":0.31005859375},{"name":"G#4","midi":68,"time":455.15625,"velocity":0.8031496062992126,"duration":2.1728515625},{"name":"F3","midi":53,"time":455.15625,"velocity":0.8031496062992126,"duration":0.62255859375},{"name":"F5","midi":77,"time":455.46875,"velocity":0.8031496062992126,"duration":0.31005859375},{"name":"D#5","midi":75,"time":455.78125,"velocity":0.8031496062992126,"duration":0.31005859375},{"name":"C3","midi":48,"time":455.78125,"velocity":0.8031496062992126,"duration":0.28076171875},{"name":"D5","midi":74,"time":456.09375,"velocity":0.8031496062992126,"duration":0.31005859375},{"name":"F3","midi":53,"time":456.09375,"velocity":0.8031496062992126,"duration":0.62255859375},{"name":"D#5","midi":75,"time":456.40625,"velocity":0.8031496062992126,"duration":0.31005859375},{"name":"C5","midi":72,"time":456.71875,"velocity":0.8031496062992126,"duration":0.31005859375},{"name":"C3","midi":48,"time":456.71875,"velocity":0.8031496062992126,"duration":0.28076171875},{"name":"B4","midi":71,"time":457.03125,"velocity":0.8031496062992126,"duration":0.62255859375},{"name":"G3","midi":55,"time":457.03125,"velocity":0.8031496062992126,"duration":0.31005859375},{"name":"G4","midi":67,"time":457.34375,"velocity":0.8031496062992126,"duration":0.31005859375},{"name":"A3","midi":57,"time":457.34375,"velocity":0.8031496062992126,"duration":0.31005859375},{"name":"F4","midi":65,"time":457.65625,"velocity":0.8031496062992126,"duration":0.31005859375},{"name":"B3","midi":59,"time":457.65625,"velocity":0.8031496062992126,"duration":0.31005859375},{"name":"G4","midi":67,"time":457.96875,"velocity":0.8031496062992126,"duration":0.31005859375},{"name":"C5","midi":72,"time":457.96875,"velocity":0.8031496062992126,"duration":0.62255859375},{"name":"A3","midi":57,"time":457.96875,"velocity":0.8031496062992126,"duration":0.31005859375},{"name":"F4","midi":65,"time":458.28125,"velocity":0.8031496062992126,"duration":0.31005859375},{"name":"B3","midi":59,"time":458.28125,"velocity":0.8031496062992126,"duration":0.31005859375},{"name":"D#4","midi":63,"time":458.59375,"velocity":0.8031496062992126,"duration":0.31005859375},{"name":"C4","midi":60,"time":458.59375,"velocity":0.8031496062992126,"duration":0.31005859375},{"name":"D5","midi":74,"time":458.90625,"velocity":0.8031496062992126,"duration":0.62255859375},{"name":"F4","midi":65,"time":458.90625,"velocity":0.8031496062992126,"duration":0.62255859375},{"name":"B3","midi":59,"time":458.90625,"velocity":0.8031496062992126,"duration":0.31005859375},{"name":"G3","midi":55,"time":459.21875,"velocity":0.8031496062992126,"duration":0.31005859375},{"name":"D#4","midi":63,"time":459.53125,"velocity":0.8031496062992126,"duration":0.31005859375},{"name":"C5","midi":72,"time":459.53125,"velocity":0.8031496062992126,"duration":0.62255859375},{"name":"C4","midi":60,"time":459.53125,"velocity":0.8031496062992126,"duration":0.31005859375},{"name":"D4","midi":62,"time":459.84375,"velocity":0.8031496062992126,"duration":0.927734375},{"name":"F3","midi":53,"time":459.84375,"velocity":0.8031496062992126,"duration":0.31005859375},{"name":"C5","midi":72,"time":460.15625,"velocity":0.8031496062992126,"duration":0.31005859375},{"name":"D3","midi":50,"time":460.15625,"velocity":0.8031496062992126,"duration":0.31005859375},{"name":"B4","midi":71,"time":460.46875,"velocity":0.8031496062992126,"duration":0.31005859375},{"name":"G3","midi":55,"time":460.46875,"velocity":0.8031496062992126,"duration":0.31005859375},{"name":"C5","midi":72,"time":460.78125,"velocity":0.8031496062992126,"duration":1.24755859375},{"name":"D#4","midi":63,"time":460.78125,"velocity":0.8031496062992126,"duration":0.62255859375},{"name":"C3","midi":48,"time":460.78125,"velocity":0.8031496062992126,"duration":0.62255859375},{"name":"G2","midi":43,"time":461.40625,"velocity":0.8031496062992126,"duration":0.2685546875},{"name":"C3","midi":48,"time":461.71875,"velocity":0.8031496062992126,"duration":0.62255859375},{"name":"D#5","midi":75,"time":462.03125,"velocity":0.8031496062992126,"duration":0.15380859375},{"name":"D5","midi":74,"time":462.1875,"velocity":0.8031496062992126,"duration":0.15380859375},{"name":"C5","midi":72,"time":462.34375,"velocity":0.8031496062992126,"duration":0.15380859375},{"name":"G2","midi":43,"time":462.34375,"velocity":0.8031496062992126,"duration":0.2685546875},{"name":"D5","midi":74,"time":462.5,"velocity":0.8031496062992126,"duration":0.15380859375},{"name":"D#5","midi":75,"time":462.65625,"velocity":0.8031496062992126,"duration":0.62255859375},{"name":"C3","midi":48,"time":462.65625,"velocity":0.8031496062992126,"duration":0.31005859375},{"name":"A#4","midi":70,"time":462.96875,"velocity":0.8031496062992126,"duration":0.31005859375},{"name":"D3","midi":50,"time":462.96875,"velocity":0.8031496062992126,"duration":0.31005859375},{"name":"G5","midi":79,"time":463.28125,"velocity":0.8031496062992126,"duration":0.31005859375},{"name":"D#3","midi":51,"time":463.28125,"velocity":0.8031496062992126,"duration":0.31005859375},{"name":"F5","midi":77,"time":463.59375,"velocity":0.8031496062992126,"duration":0.62255859375},{"name":"D3","midi":50,"time":463.59375,"velocity":0.8031496062992126,"duration":0.31005859375},{"name":"A#4","midi":70,"time":463.90625,"velocity":0.8031496062992126,"duration":0.31005859375},{"name":"D#3","midi":51,"time":463.90625,"velocity":0.8031496062992126,"duration":0.31005859375},{"name":"G#5","midi":80,"time":464.21875,"velocity":0.8031496062992126,"duration":0.31005859375},{"name":"F3","midi":53,"time":464.21875,"velocity":0.8031496062992126,"duration":0.31005859375},{"name":"G5","midi":79,"time":464.53125,"velocity":0.8031496062992126,"duration":0.31005859375},{"name":"D#3","midi":51,"time":464.53125,"velocity":0.8031496062992126,"duration":0.62255859375},{"name":"A#5","midi":82,"time":464.84375,"velocity":0.8031496062992126,"duration":0.31005859375},{"name":"G#5","midi":80,"time":465.15625,"velocity":0.8031496062992126,"duration":0.31005859375},{"name":"A#2","midi":46,"time":465.15625,"velocity":0.8031496062992126,"duration":0.2685546875},{"name":"G5","midi":79,"time":465.46875,"velocity":0.8031496062992126,"duration":0.31005859375},{"name":"D#3","midi":51,"time":465.46875,"velocity":0.8031496062992126,"duration":0.62255859375},{"name":"F5","midi":77,"time":465.78125,"velocity":0.8031496062992126,"duration":0.31005859375},{"name":"D#5","midi":75,"time":466.09375,"velocity":0.8031496062992126,"duration":0.31005859375},{"name":"A#2","midi":46,"time":466.09375,"velocity":0.8031496062992126,"duration":0.2685546875},{"name":"C#5","midi":73,"time":466.40625,"velocity":0.8031496062992126,"duration":0.62255859375},{"name":"F3","midi":53,"time":466.40625,"velocity":0.8031496062992126,"duration":0.31005859375},{"name":"A#5","midi":82,"time":466.71875,"velocity":0.8031496062992126,"duration":0.31005859375},{"name":"G3","midi":55,"time":466.71875,"velocity":0.8031496062992126,"duration":0.31005859375},{"name":"C5","midi":72,"time":467.03125,"velocity":0.8031496062992126,"duration":0.31005859375},{"name":"G#3","midi":56,"time":467.03125,"velocity":0.8031496062992126,"duration":0.31005859375},{"name":"C#5","midi":73,"time":467.34375,"velocity":0.8031496062992126,"duration":0.62255859375},{"name":"G3","midi":55,"time":467.34375,"velocity":0.8031496062992126,"duration":0.31005859375},{"name":"A#5","midi":82,"time":467.65625,"velocity":0.8031496062992126,"duration":0.31005859375},{"name":"G#3","midi":56,"time":467.65625,"velocity":0.8031496062992126,"duration":0.31005859375},{"name":"C#5","midi":73,"time":467.96875,"velocity":0.8031496062992126,"duration":0.31005859375},{"name":"A#3","midi":58,"time":467.96875,"velocity":0.8031496062992126,"duration":0.31005859375},{"name":"C5","midi":72,"time":468.28125,"velocity":0.8031496062992126,"duration":0.31005859375},{"name":"G#3","midi":56,"time":468.28125,"velocity":0.8031496062992126,"duration":0.62255859375},{"name":"D#5","midi":75,"time":468.59375,"velocity":0.8031496062992126,"duration":0.31005859375},{"name":"G#5","midi":80,"time":468.90625,"velocity":0.8031496062992126,"duration":0.31005859375},{"name":"D#3","midi":51,"time":468.90625,"velocity":0.8031496062992126,"duration":0.2685546875},{"name":"G5","midi":79,"time":469.21875,"velocity":0.8031496062992126,"duration":0.31005859375},{"name":"G#3","midi":56,"time":469.21875,"velocity":0.8031496062992126,"duration":0.62255859375},{"name":"F5","midi":77,"time":469.53125,"velocity":0.8031496062992126,"duration":0.31005859375},{"name":"G#5","midi":80,"time":469.84375,"velocity":0.8031496062992126,"duration":0.31005859375},{"name":"D#3","midi":51,"time":469.84375,"velocity":0.8031496062992126,"duration":0.2685546875},{"name":"D5","midi":74,"time":470.15625,"velocity":0.8031496062992126,"duration":0.62255859375},{"name":"A#3","midi":58,"time":470.15625,"velocity":0.8031496062992126,"duration":0.31005859375},{"name":"C4","midi":60,"time":470.46875,"velocity":0.8031496062992126,"duration":0.31005859375},{"name":"A#4","midi":70,"time":470.78125,"velocity":0.8031496062992126,"duration":0.31005859375},{"name":"D4","midi":62,"time":470.78125,"velocity":0.8031496062992126,"duration":0.31005859375},{"name":"D#5","midi":75,"time":471.09375,"velocity":0.8031496062992126,"duration":0.62255859375},{"name":"C4","midi":60,"time":471.09375,"velocity":0.8031496062992126,"duration":0.31005859375},{"name":"D4","midi":62,"time":471.40625,"velocity":0.8031496062992126,"duration":0.31005859375},{"name":"A#4","midi":70,"time":471.71875,"velocity":0.8031496062992126,"duration":0.31005859375},{"name":"D#4","midi":63,"time":471.71875,"velocity":0.8031496062992126,"duration":0.31005859375},{"name":"F5","midi":77,"time":472.03125,"velocity":0.8031496062992126,"duration":0.62255859375},{"name":"D4","midi":62,"time":472.03125,"velocity":0.8031496062992126,"duration":0.31005859375},{"name":"F4","midi":65,"time":472.34375,"velocity":0.8031496062992126,"duration":0.31005859375},{"name":"A#4","midi":70,"time":472.65625,"velocity":0.8031496062992126,"duration":0.31005859375},{"name":"D#4","midi":63,"time":472.65625,"velocity":0.8031496062992126,"duration":0.31005859375},{"name":"F5","midi":77,"time":472.96875,"velocity":0.8031496062992126,"duration":0.62255859375},{"name":"D4","midi":62,"time":472.96875,"velocity":0.8031496062992126,"duration":0.31005859375},{"name":"C4","midi":60,"time":473.28125,"velocity":0.8031496062992126,"duration":0.31005859375},{"name":"G#4","midi":68,"time":473.59375,"velocity":0.8031496062992126,"duration":0.31005859375},{"name":"A#3","midi":58,"time":473.59375,"velocity":0.8031496062992126,"duration":0.31005859375},{"name":"G4","midi":67,"time":473.90625,"velocity":0.8031496062992126,"duration":0.46630859375},{"name":"D#3","midi":51,"time":473.90625,"velocity":0.8031496062992126,"duration":0.31005859375},{"name":"D#4","midi":63,"time":474.21875,"velocity":0.8031496062992126,"duration":0.31005859375},{"name":"G#4","midi":68,"time":474.375,"velocity":0.8031496062992126,"duration":0.15380859375},{"name":"G4","midi":67,"time":474.53125,"velocity":0.8031496062992126,"duration":0.15380859375},{"name":"C#4","midi":61,"time":474.53125,"velocity":0.8031496062992126,"duration":0.31005859375},{"name":"G#4","midi":68,"time":474.6875,"velocity":0.8031496062992126,"duration":0.15380859375},{"name":"A#4","midi":70,"time":474.84375,"velocity":0.8031496062992126,"duration":0.15380859375},{"name":"C4","midi":60,"time":474.84375,"velocity":0.8031496062992126,"duration":0.31005859375},{"name":"G#4","midi":68,"time":475,"velocity":0.8031496062992126,"duration":0.15380859375},{"name":"A#4","midi":70,"time":475.15625,"velocity":0.8031496062992126,"duration":0.15380859375},{"name":"A#3","midi":58,"time":475.15625,"velocity":0.8031496062992126,"duration":0.31005859375},{"name":"G#4","midi":68,"time":475.3125,"velocity":0.8031496062992126,"duration":0.15380859375},{"name":"G4","midi":67,"time":475.46875,"velocity":0.8031496062992126,"duration":0.15380859375},{"name":"G#3","midi":56,"time":475.46875,"velocity":0.8031496062992126,"duration":0.31005859375},{"name":"G#4","midi":68,"time":475.625,"velocity":0.8031496062992126,"duration":0.15380859375},{"name":"A#4","midi":70,"time":475.78125,"velocity":0.8031496062992126,"duration":0.31005859375},{"name":"G3","midi":55,"time":475.78125,"velocity":0.8031496062992126,"duration":0.46630859375},{"name":"D#5","midi":75,"time":476.09375,"velocity":0.8031496062992126,"duration":0.31005859375},{"name":"G#3","midi":56,"time":476.25,"velocity":0.8031496062992126,"duration":0.15380859375},{"name":"C#5","midi":73,"time":476.40625,"velocity":0.8031496062992126,"duration":0.31005859375},{"name":"G3","midi":55,"time":476.40625,"velocity":0.8031496062992126,"duration":0.15380859375},{"name":"G#3","midi":56,"time":476.5625,"velocity":0.8031496062992126,"duration":0.15380859375},{"name":"C5","midi":72,"time":476.71875,"velocity":0.8031496062992126,"duration":0.31005859375},{"name":"A#3","midi":58,"time":476.71875,"velocity":0.8031496062992126,"duration":0.15380859375},{"name":"G#3","midi":56,"time":476.875,"velocity":0.8031496062992126,"duration":0.15380859375},{"name":"A#4","midi":70,"time":477.03125,"velocity":0.8031496062992126,"duration":0.31005859375},{"name":"A#3","midi":58,"time":477.03125,"velocity":0.8031496062992126,"duration":0.15380859375},{"name":"G#3","midi":56,"time":477.1875,"velocity":0.8031496062992126,"duration":0.15380859375},{"name":"G#4","midi":68,"time":477.34375,"velocity":0.8031496062992126,"duration":0.31005859375},{"name":"G3","midi":55,"time":477.34375,"velocity":0.8031496062992126,"duration":0.15380859375},{"name":"G#3","midi":56,"time":477.5,"velocity":0.8031496062992126,"duration":0.15380859375},{"name":"G4","midi":67,"time":477.65625,"velocity":0.8031496062992126,"duration":0.46630859375},{"name":"A#3","midi":58,"time":477.65625,"velocity":0.8031496062992126,"duration":0.62255859375},{"name":"F4","midi":65,"time":478.125,"velocity":0.8031496062992126,"duration":0.15380859375},{"name":"D#4","midi":63,"time":478.28125,"velocity":0.8031496062992126,"duration":0.15380859375},{"name":"F4","midi":65,"time":478.4375,"velocity":0.8031496062992126,"duration":0.15380859375},{"name":"G4","midi":67,"time":478.59375,"velocity":0.8031496062992126,"duration":0.15380859375},{"name":"A#2","midi":46,"time":478.59375,"velocity":0.8031496062992126,"duration":0.62255859375},{"name":"F4","midi":65,"time":478.75,"velocity":0.8031496062992126,"duration":0.15380859375},{"name":"G4","midi":67,"time":478.90625,"velocity":0.8031496062992126,"duration":0.15380859375},{"name":"F4","midi":65,"time":479.0625,"velocity":0.8031496062992126,"duration":0.15380859375},{"name":"D#4","midi":63,"time":479.21875,"velocity":0.8031496062992126,"duration":0.15380859375},{"name":"F4","midi":65,"time":479.375,"velocity":0.8031496062992126,"duration":0.15380859375},{"name":"D#4","midi":63,"time":479.53125,"velocity":0.8031496062992126,"duration":0.31005859375},{"name":"D#3","midi":51,"time":479.53125,"velocity":0.8031496062992126,"duration":0.62255859375},{"name":"G4","midi":67,"time":479.84375,"velocity":0.8031496062992126,"duration":0.31005859375},{"name":"A#4","midi":70,"time":480.15625,"velocity":0.8031496062992126,"duration":0.31005859375},{"name":"A#2","midi":46,"time":480.15625,"velocity":0.8031496062992126,"duration":0.25634765625},{"name":"G4","midi":67,"time":480.46875,"velocity":0.8031496062992126,"duration":0.31005859375},{"name":"D#3","midi":51,"time":480.46875,"velocity":0.8031496062992126,"duration":0.62255859375},{"name":"D#4","midi":63,"time":480.78125,"velocity":0.8031496062992126,"duration":0.31005859375},{"name":"A#4","midi":70,"time":481.09375,"velocity":0.8031496062992126,"duration":0.31005859375},{"name":"A#2","midi":46,"time":481.09375,"velocity":0.8031496062992126,"duration":0.25634765625},{"name":"C5","midi":72,"time":481.40625,"velocity":0.8031496062992126,"duration":0.15380859375},{"name":"D#3","midi":51,"time":481.40625,"velocity":0.8031496062992126,"duration":0.31005859375},{"name":"A#4","midi":70,"time":481.5478515625,"velocity":0.8031496062992126,"duration":0.15380859375},{"name":"C5","midi":72,"time":481.689453125,"velocity":0.8031496062992126,"duration":0.15380859375},{"name":"F3","midi":53,"time":481.71875,"velocity":0.8031496062992126,"duration":0.31005859375},{"name":"A#4","midi":70,"time":481.8310546875,"velocity":0.8031496062992126,"duration":0.15380859375},{"name":"C5","midi":72,"time":481.97265625,"velocity":0.8031496062992126,"duration":0.15380859375},{"name":"G3","midi":55,"time":482.03125,"velocity":0.8031496062992126,"duration":0.31005859375},{"name":"A#4","midi":70,"time":482.1142578125,"velocity":0.8031496062992126,"duration":0.15380859375},{"name":"C5","midi":72,"time":482.25830078125,"velocity":0.8031496062992126,"duration":0.15380859375},{"name":"F3","midi":53,"time":482.34375,"velocity":0.8031496062992126,"duration":0.31005859375},{"name":"A#4","midi":70,"time":482.39990234375,"velocity":0.8031496062992126,"duration":0.15380859375},{"name":"C5","midi":72,"time":482.54150390625,"velocity":0.8031496062992126,"duration":0.15380859375},{"name":"G3","midi":55,"time":482.65625,"velocity":0.8031496062992126,"duration":0.31005859375},{"name":"A#4","midi":70,"time":482.68310546875,"velocity":0.8031496062992126,"duration":0.15380859375},{"name":"C5","midi":72,"time":482.82470703125,"velocity":0.8031496062992126,"duration":0.15380859375},{"name":"A#4","midi":70,"time":482.96875,"velocity":0.8031496062992126,"duration":0.5859375},{"name":"G#3","midi":56,"time":482.96875,"velocity":0.8031496062992126,"duration":0.31005859375},{"name":"G3","midi":55,"time":483.28125,"velocity":0.8031496062992126,"duration":0.31005859375},{"name":"G4","midi":67,"time":483.59375,"velocity":0.8031496062992126,"duration":0.31005859375},{"name":"D#3","midi":51,"time":483.59375,"velocity":0.8031496062992126,"duration":0.31005859375},{"name":"D#5","midi":75,"time":483.90625,"velocity":0.8031496062992126,"duration":0.31005859375},{"name":"F3","midi":53,"time":483.90625,"velocity":0.8031496062992126,"duration":0.31005859375},{"name":"A#4","midi":70,"time":484.21875,"velocity":0.8031496062992126,"duration":0.31005859375},{"name":"G3","midi":55,"time":484.21875,"velocity":0.8031496062992126,"duration":0.31005859375},{"name":"G4","midi":67,"time":484.53125,"velocity":0.8031496062992126,"duration":0.31005859375},{"name":"G#3","midi":56,"time":484.53125,"velocity":0.8031496062992126,"duration":0.31005859375},{"name":"D#5","midi":75,"time":484.84375,"velocity":0.8031496062992126,"duration":0.31005859375},{"name":"A#3","midi":58,"time":484.84375,"velocity":0.8031496062992126,"duration":0.31005859375},{"name":"A#4","midi":70,"time":485.15625,"velocity":0.8031496062992126,"duration":0.31005859375},{"name":"C4","midi":60,"time":485.15625,"velocity":0.8031496062992126,"duration":0.15380859375},{"name":"A#3","midi":58,"time":485.3125,"velocity":0.8031496062992126,"duration":0.15380859375},{"name":"C5","midi":72,"time":485.46875,"velocity":0.8031496062992126,"duration":0.15380859375},{"name":"C4","midi":60,"time":485.46875,"velocity":0.8031496062992126,"duration":0.15380859375},{"name":"A#4","midi":70,"time":485.625,"velocity":0.8031496062992126,"duration":0.15380859375},{"name":"A#3","midi":58,"time":485.625,"velocity":0.8031496062992126,"duration":0.15380859375},{"name":"G#4","midi":68,"time":485.78125,"velocity":0.8031496062992126,"duration":0.15380859375},{"name":"C4","midi":60,"time":485.78125,"velocity":0.8031496062992126,"duration":0.15380859375},{"name":"G4","midi":67,"time":485.9375,"velocity":0.8031496062992126,"duration":0.15380859375},{"name":"A#3","midi":58,"time":485.9375,"velocity":0.8031496062992126,"duration":0.15380859375},{"name":"G#4","midi":68,"time":486.09375,"velocity":0.8031496062992126,"duration":0.31005859375},{"name":"C4","midi":60,"time":486.09375,"velocity":0.8031496062992126,"duration":0.15380859375},{"name":"A#3","midi":58,"time":486.25,"velocity":0.8031496062992126,"duration":0.15380859375},{"name":"A#4","midi":70,"time":486.40625,"velocity":0.8031496062992126,"duration":0.15380859375},{"name":"C4","midi":60,"time":486.40625,"velocity":0.8031496062992126,"duration":0.15380859375},{"name":"G#4","midi":68,"time":486.5625,"velocity":0.8031496062992126,"duration":0.15380859375},{"name":"A#3","midi":58,"time":486.5625,"velocity":0.8031496062992126,"duration":0.15380859375},{"name":"G4","midi":67,"time":486.71875,"velocity":0.8031496062992126,"duration":0.15380859375},{"name":"C4","midi":60,"time":486.71875,"velocity":0.8031496062992126,"duration":0.15380859375},{"name":"F4","midi":65,"time":486.875,"velocity":0.8031496062992126,"duration":0.15380859375},{"name":"A#3","midi":58,"time":486.875,"velocity":0.8031496062992126,"duration":0.7080078125},{"name":"G4","midi":67,"time":487.03125,"velocity":0.8031496062992126,"duration":0.33203125},{"name":"A#4","midi":70,"time":487.3681640625,"velocity":0.8031496062992126,"duration":0.1611328125},{"name":"G#4","midi":68,"time":487.5390625,"velocity":0.8031496062992126,"duration":0.1611328125},{"name":"D#4","midi":63,"time":487.7099609375,"velocity":0.8031496062992126,"duration":0.33203125},{"name":"G4","midi":67,"time":487.7099609375,"velocity":0.8031496062992126,"duration":0.1611328125},{"name":"F4","midi":65,"time":487.880859375,"velocity":0.8031496062992126,"duration":0.1611328125},{"name":"G4","midi":67,"time":488.0517578125,"velocity":0.8031496062992126,"duration":0.341796875},{"name":"A#3","midi":58,"time":488.0517578125,"velocity":0.8031496062992126,"duration":0.69580078125},{"name":"A#4","midi":70,"time":488.40087890625,"velocity":0.8031496062992126,"duration":0.16357421875},{"name":"G#4","midi":68,"time":488.57666015625,"velocity":0.8031496062992126,"duration":0.16357421875},{"name":"G4","midi":67,"time":488.75244140625,"velocity":0.8031496062992126,"duration":0.16357421875},{"name":"D#4","midi":63,"time":488.75244140625,"velocity":0.8031496062992126,"duration":0.341796875},{"name":"F4","midi":65,"time":488.9306640625,"velocity":0.8031496062992126,"duration":0.16357421875},{"name":"A#3","midi":58,"time":489.1064453125,"velocity":0.8031496062992126,"duration":0.3515625},{"name":"G4","midi":67,"time":489.1064453125,"velocity":0.8031496062992126,"duration":0.3515625},{"name":"C4","midi":60,"time":489.4677734375,"velocity":0.8031496062992126,"duration":0.16845703125},{"name":"D#4","midi":63,"time":489.4677734375,"velocity":0.8031496062992126,"duration":0.3515625},{"name":"A#3","midi":58,"time":489.6484375,"velocity":0.8031496062992126,"duration":0.16845703125},{"name":"G#3","midi":56,"time":489.8291015625,"velocity":0.8031496062992126,"duration":0.16845703125},{"name":"G4","midi":67,"time":489.8291015625,"velocity":0.8031496062992126,"duration":0.3515625},{"name":"G3","midi":55,"time":490.009765625,"velocity":0.8031496062992126,"duration":0.16845703125},{"name":"A#4","midi":70,"time":490.1904296875,"velocity":0.8031496062992126,"duration":0.361328125},{"name":"G#3","midi":56,"time":490.1904296875,"velocity":0.8031496062992126,"duration":0.361328125},{"name":"G4","midi":67,"time":490.5615234375,"velocity":0.8031496062992126,"duration":0.361328125},{"name":"A#3","midi":58,"time":490.5615234375,"velocity":0.8031496062992126,"duration":0.17333984375},{"name":"G#3","midi":56,"time":490.74951171875,"velocity":0.8031496062992126,"duration":0.17333984375},{"name":"A#4","midi":70,"time":490.93505859375,"velocity":0.8031496062992126,"duration":0.361328125},{"name":"G3","midi":55,"time":490.93505859375,"velocity":0.8031496062992126,"duration":0.17333984375},{"name":"F3","midi":53,"time":491.12548828125,"velocity":0.8031496062992126,"duration":0.17822265625},{"name":"D#5","midi":75,"time":491.318359375,"velocity":0.8031496062992126,"duration":2.8076171875},{"name":"D#3","midi":51,"time":491.318359375,"velocity":0.8031496062992126,"duration":0.400390625},{"name":"A#2","midi":46,"time":491.73095703125,"velocity":0.8031496062992126,"duration":0.400390625},{"name":"G2","midi":43,"time":492.15087890625,"velocity":0.8031496062992126,"duration":0.400390625},{"name":"D#2","midi":39,"time":492.65625,"velocity":0.8031496062992126,"duration":1.66015625}],"controlChanges":{"7":[{"number":7,"time":0,"value":0.7874015748031497}]},"id":1,"name":"Ger.8l","instrumentNumber":7,"instrument":"clavi","instrumentFamily":"piano","channelNumber":0,"isPercussion":false}]}