{"header":{"PPQ":384,"timeSignature":[4,4],"bpm":120,"name":"--------"},"startTime":0,"duration":77.27083333333347,"tracks":[{"startTime":0,"duration":0,"length":0,"notes":[],"controlChanges":{},"id":0,"name":"--------"},{"startTime":0.0625,"duration":77.27083333333347,"length":583,"notes":[{"name":"C3","midi":48,"time":0.0625,"velocity":0.7244094488188977,"duration":1.1575520833333333},{"name":"G4","midi":67,"time":0.29296875,"velocity":0.7244094488188977,"duration":0.2265625},{"name":"A4","midi":69,"time":0.5247395833333334,"velocity":0.7244094488188977,"duration":0.2265625},{"name":"B4","midi":71,"time":0.7565104166666667,"velocity":0.7244094488188977,"duration":0.2265625},{"name":"C5","midi":72,"time":0.9882812500000001,"velocity":0.7244094488188977,"duration":0.2265624999999999},{"name":"D5","midi":74,"time":1.2200520833333333,"velocity":0.7244094488188977,"duration":0.2265625},{"name":"C4","midi":60,"time":1.4518229166666665,"velocity":0.7244094488188977,"duration":0.45833333333333326},{"name":"E5","midi":76,"time":1.4518229166666665,"velocity":0.7244094488188977,"duration":0.2265625},{"name":"F5","midi":77,"time":1.6835937499999998,"velocity":0.7244094488188977,"duration":0.2265625},{"name":"B3","midi":59,"time":1.915364583333333,"velocity":0.7244094488188977,"duration":0.4583333333333335},{"name":"G5","midi":79,"time":1.915364583333333,"velocity":0.7244094488188977,"duration":0.2265625},{"name":"F5","midi":77,"time":2.1471354166666665,"velocity":0.7244094488188977,"duration":0.2265625},{"name":"G3","midi":55,"time":2.37890625,"velocity":0.7244094488188977,"duration":0.4583333333333335},{"name":"G5","midi":79,"time":2.37890625,"velocity":0.7244094488188977,"duration":0.2265625},{"name":"A5","midi":81,"time":2.6106770833333335,"velocity":0.7244094488188977,"duration":0.2265625},{"name":"A3","midi":57,"time":2.842447916666667,"velocity":0.7244094488188977,"duration":0.4583333333333335},{"name":"F5","midi":77,"time":2.842447916666667,"velocity":0.7244094488188977,"duration":0.2265625},{"name":"A5","midi":81,"time":3.0742187500000004,"velocity":0.7244094488188977,"duration":0.2265625},{"name":"B3","midi":59,"time":3.305989583333334,"velocity":0.7244094488188977,"duration":0.4583333333333335},{"name":"G5","midi":79,"time":3.305989583333334,"velocity":0.7244094488188977,"duration":0.2265625},{"name":"F5","midi":77,"time":3.5377604166666674,"velocity":0.7244094488188977,"duration":0.2265625},{"name":"C4","midi":60,"time":3.769531250000001,"velocity":0.7244094488188977,"duration":0.21744791666666696},{"name":"E5","midi":76,"time":3.769531250000001,"velocity":0.7244094488188977,"duration":0.11067708333333348},{"name":"D5","midi":74,"time":3.885416666666668,"velocity":0.7244094488188977,"duration":0.11067708333333348},{"name":"C4","midi":60,"time":4.001302083333335,"velocity":0.7244094488188977,"duration":1.1575520833333321},{"name":"E5","midi":76,"time":4.001302083333335,"velocity":0.7244094488188977,"duration":2.5429687499999973},{"name":"D4","midi":62,"time":4.231770833333335,"velocity":0.7244094488188977,"duration":0.2265625},{"name":"E4","midi":64,"time":4.463541666666668,"velocity":0.7244094488188977,"duration":0.2265625},{"name":"F4","midi":65,"time":4.695312500000001,"velocity":0.7244094488188977,"duration":0.2265625},{"name":"G4","midi":67,"time":4.927083333333334,"velocity":0.7244094488188977,"duration":0.2265625},{"name":"B3","midi":59,"time":5.158854166666667,"velocity":0.7244094488188977,"duration":0.45833333333333304},{"name":"A4","midi":69,"time":5.158854166666667,"velocity":0.7244094488188977,"duration":0.2265625},{"name":"B4","midi":71,"time":5.390625,"velocity":0.7244094488188977,"duration":0.2265625},{"name":"A3","midi":57,"time":5.622395833333333,"velocity":0.7244094488188977,"duration":0.45833333333333304},{"name":"C5","midi":72,"time":5.622395833333333,"velocity":0.7244094488188977,"duration":0.2265625},{"name":"B4","midi":71,"time":5.854166666666666,"velocity":0.7244094488188977,"duration":0.2265625},{"name":"G3","midi":55,"time":6.085937499999999,"velocity":0.7244094488188977,"duration":0.45833333333333304},{"name":"C5","midi":72,"time":6.085937499999999,"velocity":0.7244094488188977,"duration":0.2265625},{"name":"D5","midi":74,"time":6.317708333333332,"velocity":0.7244094488188977,"duration":0.2265625},{"name":"A3","midi":57,"time":6.549479166666665,"velocity":0.7244094488188977,"duration":0.45833333333333304},{"name":"C5","midi":72,"time":6.549479166666665,"velocity":0.7244094488188977,"duration":0.2265625},{"name":"F#5","midi":78,"time":6.549479166666665,"velocity":0.7244094488188977,"duration":0.8072916666666661},{"name":"E5","midi":76,"time":6.781249999999998,"velocity":0.7244094488188977,"duration":0.2265625},{"name":"D3","midi":50,"time":7.013020833333331,"velocity":0.7244094488188977,"duration":0.45833333333333304},{"name":"D5","midi":74,"time":7.013020833333331,"velocity":0.7244094488188977,"duration":0.2265625},{"name":"C5","midi":72,"time":7.244791666666664,"velocity":0.7244094488188977,"duration":0.2265625},{"name":"G2","midi":43,"time":7.476562499999997,"velocity":0.7244094488188977,"duration":0.2265625},{"name":"B4","midi":71,"time":7.476562499999997,"velocity":0.7244094488188977,"duration":0.45833333333333304},{"name":"G5","midi":79,"time":7.476562499999997,"velocity":0.7244094488188977,"duration":0.45833333333333304},{"name":"G3","midi":55,"time":7.70833333333333,"velocity":0.7244094488188977,"duration":0.2265625},{"name":"A3","midi":57,"time":7.940104166666663,"velocity":0.7244094488188977,"duration":0.2265625000000009},{"name":"D5","midi":74,"time":7.940104166666663,"velocity":0.7244094488188977,"duration":0.9218750000000027},{"name":"F5","midi":77,"time":7.940104166666663,"velocity":0.7244094488188977,"duration":0.4583333333333348},{"name":"B3","midi":59,"time":8.171874999999998,"velocity":0.7244094488188977,"duration":0.2265625},{"name":"C4","midi":60,"time":8.403645833333332,"velocity":0.7244094488188977,"duration":0.2265625},{"name":"E5","midi":76,"time":8.403645833333332,"velocity":0.7244094488188977,"duration":0.9218750000000018},{"name":"D4","midi":62,"time":8.635416666666666,"velocity":0.7244094488188977,"duration":0.2265625},{"name":"E4","midi":64,"time":8.8671875,"velocity":0.7244094488188977,"duration":0.2265625},{"name":"C5","midi":72,"time":8.8671875,"velocity":0.7244094488188977,"duration":1.3854166666666696},{"name":"F4","midi":65,"time":9.098958333333334,"velocity":0.7244094488188977,"duration":0.2265625},{"name":"G4","midi":67,"time":9.330729166666668,"velocity":0.7244094488188977,"duration":0.2265625},{"name":"D5","midi":74,"time":9.330729166666668,"velocity":0.7244094488188977,"duration":0.4583333333333339},{"name":"F4","midi":65,"time":9.562500000000002,"velocity":0.7244094488188977,"duration":0.2265625},{"name":"G4","midi":67,"time":9.794270833333336,"velocity":0.7244094488188977,"duration":0.2265625},{"name":"E5","midi":76,"time":9.794270833333336,"velocity":0.7244094488188977,"duration":0.2265625},{"name":"A4","midi":69,"time":10.02604166666667,"velocity":0.7244094488188977,"duration":0.2265625},{"name":"F5","midi":77,"time":10.02604166666667,"velocity":0.7244094488188977,"duration":0.2265625},{"name":"F4","midi":65,"time":10.257812500000004,"velocity":0.7244094488188977,"duration":0.22526041666666785},{"name":"B4","midi":71,"time":10.257812500000004,"velocity":0.7244094488188977,"duration":1.384114583333341},{"name":"E5","midi":76,"time":10.257812500000004,"velocity":0.7244094488188977,"duration":0.1484375},{"name":"D5","midi":74,"time":10.411458333333337,"velocity":0.7244094488188977,"duration":0.07161458333333393},{"name":"A4","midi":69,"time":10.488281250000005,"velocity":0.7244094488188977,"duration":0.22526041666666963},{"name":"E5","midi":76,"time":10.488281250000005,"velocity":0.7244094488188977,"duration":0.07161458333333393},{"name":"D5","midi":74,"time":10.565104166666673,"velocity":0.7244094488188977,"duration":0.07161458333333393},{"name":"E5","midi":76,"time":10.641927083333341,"velocity":0.7244094488188977,"duration":0.07161458333333393},{"name":"G4","midi":67,"time":10.718750000000009,"velocity":0.7244094488188977,"duration":0.2265625},{"name":"D5","midi":74,"time":10.718750000000009,"velocity":0.7244094488188977,"duration":0.5703125000000018},{"name":"F4","midi":65,"time":10.950520833333343,"velocity":0.7244094488188977,"duration":0.2265625},{"name":"E4","midi":64,"time":11.182291666666677,"velocity":0.7244094488188977,"duration":0.22526041666666785},{"name":"F4","midi":65,"time":11.412760416666679,"velocity":0.7244094488188977,"duration":0.2265625},{"name":"E4","midi":64,"time":11.64453125000001,"velocity":0.7244094488188977,"duration":0.2265625},{"name":"G5","midi":79,"time":11.64453125000001,"velocity":0.7244094488188977,"duration":0.2265625},{"name":"D4","midi":62,"time":11.876302083333345,"velocity":0.7244094488188977,"duration":0.2265625},{"name":"F5","midi":77,"time":11.876302083333345,"velocity":0.7244094488188977,"duration":0.2265625},{"name":"C4","midi":60,"time":12.108072916666679,"velocity":0.7244094488188977,"duration":0.2265625},{"name":"E5","midi":76,"time":12.108072916666679,"velocity":0.7244094488188977,"duration":1.3854166666666696},{"name":"B3","midi":59,"time":12.339843750000012,"velocity":0.7244094488188977,"duration":0.2265625},{"name":"D5","midi":74,"time":12.339843750000012,"velocity":0.7244094488188977,"duration":0.2265625},{"name":"A3","midi":57,"time":12.571614583333346,"velocity":0.7244094488188977,"duration":0.2265625},{"name":"C5","midi":72,"time":12.571614583333346,"velocity":0.7244094488188977,"duration":0.2265625},{"name":"G3","midi":55,"time":12.80338541666668,"velocity":0.7244094488188977,"duration":0.2265625},{"name":"B4","midi":71,"time":12.80338541666668,"velocity":0.7244094488188977,"duration":0.2265625},{"name":"F3","midi":53,"time":13.035156250000014,"velocity":0.7244094488188977,"duration":0.2265625},{"name":"A4","midi":69,"time":13.035156250000014,"velocity":0.7244094488188977,"duration":1.3854166666666696},{"name":"G3","midi":55,"time":13.266927083333348,"velocity":0.7244094488188977,"duration":0.2265625},{"name":"F3","midi":53,"time":13.498697916666682,"velocity":0.7244094488188977,"duration":0.2265625},{"name":"E5","midi":76,"time":13.498697916666682,"velocity":0.7244094488188977,"duration":0.4583333333333339},{"name":"E3","midi":52,"time":13.730468750000016,"velocity":0.7244094488188977,"duration":0.2265625},{"name":"F3","midi":53,"time":13.96223958333335,"velocity":0.7244094488188977,"duration":0.2265625},{"name":"D5","midi":74,"time":13.96223958333335,"velocity":0.7244094488188977,"duration":2.3125000000000036},{"name":"D3","midi":50,"time":14.194010416666684,"velocity":0.7244094488188977,"duration":0.2265625},{"name":"E3","midi":52,"time":14.425781250000018,"velocity":0.7244094488188977,"duration":0.2265625},{"name":"A4","midi":69,"time":14.425781250000018,"velocity":0.7244094488188977,"duration":0.4583333333333339},{"name":"F3","midi":53,"time":14.657552083333352,"velocity":0.7244094488188977,"duration":0.2265625},{"name":"E3","midi":52,"time":14.889322916666686,"velocity":0.7244094488188977,"duration":0.2265625},{"name":"G4","midi":67,"time":14.889322916666686,"velocity":0.7244094488188977,"duration":0.4583333333333339},{"name":"G2","midi":43,"time":15.12109375000002,"velocity":0.7244094488188977,"duration":0.2265625},{"name":"A2","midi":45,"time":15.352864583333353,"velocity":0.7244094488188977,"duration":0.2265625},{"name":"F4","midi":65,"time":15.352864583333353,"velocity":0.7244094488188977,"duration":0.4583333333333339},{"name":"B2","midi":47,"time":15.584635416666687,"velocity":0.7244094488188977,"duration":0.2265625},{"name":"C3","midi":48,"time":15.816406250000021,"velocity":0.7244094488188977,"duration":0.2265625},{"name":"E4","midi":64,"time":15.816406250000021,"velocity":0.7244094488188977,"duration":0.9218749999999964},{"name":"D3","midi":50,"time":16.048177083333353,"velocity":0.7244094488188977,"duration":0.2265625},{"name":"E3","midi":52,"time":16.279947916666686,"velocity":0.7244094488188977,"duration":0.2265625},{"name":"C5","midi":72,"time":16.279947916666686,"velocity":0.7244094488188977,"duration":0.9218749999999964},{"name":"F3","midi":53,"time":16.511718750000018,"velocity":0.7244094488188977,"duration":0.2265625},{"name":"G3","midi":55,"time":16.74348958333335,"velocity":0.7244094488188977,"duration":0.2265625},{"name":"D4","midi":62,"time":16.74348958333335,"velocity":0.7244094488188977,"duration":2.0273437499999893},{"name":"F3","midi":53,"time":16.975260416666682,"velocity":0.7244094488188977,"duration":0.2265625},{"name":"G3","midi":55,"time":17.207031250000014,"velocity":0.7244094488188977,"duration":0.2265625},{"name":"B4","midi":71,"time":17.207031250000014,"velocity":0.7244094488188977,"duration":0.2265625},{"name":"A3","midi":57,"time":17.438802083333346,"velocity":0.7244094488188977,"duration":0.2265625},{"name":"A4","midi":69,"time":17.438802083333346,"velocity":0.7244094488188977,"duration":0.2265625},{"name":"F3","midi":53,"time":17.67057291666668,"velocity":0.7244094488188977,"duration":0.2265625},{"name":"B4","midi":71,"time":17.67057291666668,"velocity":0.7244094488188977,"duration":0.2265625},{"name":"A3","midi":57,"time":17.90234375000001,"velocity":0.7244094488188977,"duration":0.2265625},{"name":"C5","midi":72,"time":17.90234375000001,"velocity":0.7244094488188977,"duration":0.2265625},{"name":"G3","midi":55,"time":18.134114583333343,"velocity":0.7244094488188977,"duration":0.2265625},{"name":"D5","midi":74,"time":18.134114583333343,"velocity":0.7244094488188977,"duration":0.2265625},{"name":"F3","midi":53,"time":18.365885416666675,"velocity":0.7244094488188977,"duration":0.2265625},{"name":"B4","midi":71,"time":18.365885416666675,"velocity":0.7244094488188977,"duration":0.2265625},{"name":"E3","midi":52,"time":18.597656250000007,"velocity":0.7244094488188977,"duration":2.412760416666657},{"name":"G4","midi":67,"time":18.597656250000007,"velocity":0.7244094488188977,"duration":1.1523437499999964},{"name":"F4","midi":65,"time":18.828125000000007,"velocity":0.7244094488188977,"duration":0.2265625},{"name":"E4","midi":64,"time":19.05989583333334,"velocity":0.7244094488188977,"duration":0.2265625},{"name":"D4","midi":62,"time":19.29166666666667,"velocity":0.7244094488188977,"duration":0.2265625},{"name":"C4","midi":60,"time":19.523437500000004,"velocity":0.7244094488188977,"duration":0.2265625},{"name":"B3","midi":59,"time":19.755208333333336,"velocity":0.7244094488188977,"duration":0.2265625},{"name":"C5","midi":72,"time":19.755208333333336,"velocity":0.7244094488188977,"duration":0.2265625},{"name":"A3","midi":57,"time":19.986979166666668,"velocity":0.7244094488188977,"duration":0.2265625},{"name":"D5","midi":74,"time":19.986979166666668,"velocity":0.7244094488188977,"duration":0.2265625},{"name":"G3","midi":55,"time":20.21875,"velocity":0.7244094488188977,"duration":0.2265625},{"name":"E5","midi":76,"time":20.21875,"velocity":0.7244094488188977,"duration":0.2265625},{"name":"F3","midi":53,"time":20.450520833333332,"velocity":0.7244094488188977,"duration":0.2265625},{"name":"A4","midi":69,"time":20.450520833333332,"velocity":0.7244094488188977,"duration":0.2265625},{"name":"G3","midi":55,"time":20.682291666666664,"velocity":0.7244094488188977,"duration":0.2265625},{"name":"B4","midi":71,"time":20.682291666666664,"velocity":0.7244094488188977,"duration":0.2265625},{"name":"F3","midi":53,"time":20.914062499999996,"velocity":0.7244094488188977,"duration":0.2265625},{"name":"A4","midi":69,"time":20.914062499999996,"velocity":0.7244094488188977,"duration":0.2265625},{"name":"E3","midi":52,"time":21.14583333333333,"velocity":0.7244094488188977,"duration":0.2265625},{"name":"B4","midi":71,"time":21.14583333333333,"velocity":0.7244094488188977,"duration":0.2265625},{"name":"D3","midi":50,"time":21.37760416666666,"velocity":0.7244094488188977,"duration":0.2174479166666643},{"name":"F3","midi":53,"time":21.37760416666666,"velocity":0.7244094488188977,"duration":0.22656249999999645},{"name":"C5","midi":72,"time":21.37760416666666,"velocity":0.7244094488188977,"duration":0.11067708333333215},{"name":"B4","midi":71,"time":21.493489583333325,"velocity":0.7244094488188977,"duration":0.11067708333333215},{"name":"D3","midi":50,"time":21.60937499999999,"velocity":0.7244094488188977,"duration":0.6510416666666536},{"name":"C5","midi":72,"time":21.60937499999999,"velocity":0.7244094488188977,"duration":0.11067708333333215},{"name":"B4","midi":71,"time":21.725260416666654,"velocity":0.7244094488188977,"duration":0.11067708333333215},{"name":"E3","midi":52,"time":21.841145833333318,"velocity":0.7244094488188977,"duration":0.22656249999999645},{"name":"C5","midi":72,"time":21.841145833333318,"velocity":0.7244094488188977,"duration":0.11067708333333215},{"name":"B4","midi":71,"time":21.957031249999982,"velocity":0.7244094488188977,"duration":0.11067708333333215},{"name":"F3","midi":53,"time":22.072916666666647,"velocity":0.7244094488188977,"duration":0.22656249999999645},{"name":"A4","midi":69,"time":22.072916666666647,"velocity":0.7244094488188977,"duration":0.11067708333333215},{"name":"B4","midi":71,"time":22.18880208333331,"velocity":0.7244094488188977,"duration":0.11067708333333215},{"name":"C3","midi":48,"time":22.304687499999975,"velocity":0.7244094488188977,"duration":0.2265625},{"name":"E3","midi":52,"time":22.304687499999975,"velocity":0.7244094488188977,"duration":0.8203124999999964},{"name":"C5","midi":72,"time":22.304687499999975,"velocity":0.7244094488188977,"duration":0.45833333333333215},{"name":"D3","midi":50,"time":22.536458333333307,"velocity":0.7244094488188977,"duration":0.2265625},{"name":"C3","midi":48,"time":22.76822916666664,"velocity":0.7244094488188977,"duration":0.2265625},{"name":"G4","midi":67,"time":22.76822916666664,"velocity":0.7244094488188977,"duration":0.45833333333333215},{"name":"B2","midi":47,"time":22.99999999999997,"velocity":0.7244094488188977,"duration":0.2265625},{"name":"A2","midi":45,"time":23.231770833333304,"velocity":0.7244094488188977,"duration":0.22656249999999645},{"name":"C5","midi":72,"time":23.231770833333304,"velocity":0.7244094488188977,"duration":0.11067708333333215},{"name":"B4","midi":71,"time":23.347656249999968,"velocity":0.7244094488188977,"duration":0.11067708333333215},{"name":"G2","midi":43,"time":23.463541666666632,"velocity":0.7244094488188977,"duration":0.2265625},{"name":"C5","midi":72,"time":23.463541666666632,"velocity":0.7244094488188977,"duration":1.1536458333333286},{"name":"F#2","midi":42,"time":23.695312499999964,"velocity":0.7244094488188977,"duration":0.2265625},{"name":"E4","midi":64,"time":23.695312499999964,"velocity":0.7244094488188977,"duration":0.39583333333333215},{"name":"E2","midi":40,"time":23.927083333333297,"velocity":0.7244094488188977,"duration":0.2265625},{"name":"D2","midi":38,"time":24.15885416666663,"velocity":0.7244094488188977,"duration":0.2265625},{"name":"F#4","midi":66,"time":24.15885416666663,"velocity":0.7244094488188977,"duration":1.0416666666666643},{"name":"E3","midi":52,"time":24.39062499999996,"velocity":0.7244094488188977,"duration":0.2265625},{"name":"D3","midi":50,"time":24.622395833333293,"velocity":0.7244094488188977,"duration":0.2265625},{"name":"B4","midi":71,"time":24.622395833333293,"velocity":0.7244094488188977,"duration":0.2265625},{"name":"C3","midi":48,"time":24.854166666666625,"velocity":0.7244094488188977,"duration":0.22526041666666785},{"name":"A4","midi":69,"time":24.854166666666625,"velocity":0.7244094488188977,"duration":0.22526041666666785},{"name":"B2","midi":47,"time":25.084635416666625,"velocity":0.7244094488188977,"duration":0.2265625},{"name":"D5","midi":74,"time":25.084635416666625,"velocity":0.7244094488188977,"duration":1.1536458333333286},{"name":"A2","midi":45,"time":25.316406249999957,"velocity":0.7244094488188977,"duration":0.2265625},{"name":"C5","midi":72,"time":25.316406249999957,"velocity":0.7244094488188977,"duration":0.2265625},{"name":"G2","midi":43,"time":25.54817708333329,"velocity":0.7244094488188977,"duration":0.2265625},{"name":"B4","midi":71,"time":25.54817708333329,"velocity":0.7244094488188977,"duration":0.2265625},{"name":"F#2","midi":42,"time":25.77994791666662,"velocity":0.7244094488188977,"duration":0.2265625},{"name":"A4","midi":69,"time":25.77994791666662,"velocity":0.7244094488188977,"duration":0.2265625},{"name":"E2","midi":40,"time":26.011718749999954,"velocity":0.7244094488188977,"duration":0.2265625},{"name":"G4","midi":67,"time":26.011718749999954,"velocity":0.7244094488188977,"duration":1.1536458333333286},{"name":"F3","midi":53,"time":26.243489583333286,"velocity":0.7244094488188977,"duration":0.2265625},{"name":"B4","midi":71,"time":26.243489583333286,"velocity":0.7244094488188977,"duration":0.2265625},{"name":"E3","midi":52,"time":26.475260416666618,"velocity":0.7244094488188977,"duration":0.2265625},{"name":"C5","midi":72,"time":26.475260416666618,"velocity":0.7244094488188977,"duration":0.2265625},{"name":"D3","midi":50,"time":26.70703124999995,"velocity":0.7244094488188977,"duration":0.2265625},{"name":"D5","midi":74,"time":26.70703124999995,"velocity":0.7244094488188977,"duration":0.2265625},{"name":"C3","midi":48,"time":26.938802083333282,"velocity":0.7244094488188977,"duration":0.2265625},{"name":"E5","midi":76,"time":26.938802083333282,"velocity":0.7244094488188977,"duration":1.3854166666666607},{"name":"B2","midi":47,"time":27.170572916666615,"velocity":0.7244094488188977,"duration":0.2265625},{"name":"G4","midi":67,"time":27.170572916666615,"velocity":0.7244094488188977,"duration":0.2265625},{"name":"A2","midi":45,"time":27.402343749999947,"velocity":0.7244094488188977,"duration":0.2265625},{"name":"C5","midi":72,"time":27.402343749999947,"velocity":0.7244094488188977,"duration":0.2265625},{"name":"G2","midi":43,"time":27.63411458333328,"velocity":0.7244094488188977,"duration":0.2265625},{"name":"B4","midi":71,"time":27.63411458333328,"velocity":0.7244094488188977,"duration":0.2265625},{"name":"F#2","midi":42,"time":27.86588541666661,"velocity":0.7244094488188977,"duration":0.2265625},{"name":"C5","midi":72,"time":27.86588541666661,"velocity":0.7244094488188977,"duration":0.9218749999999964},{"name":"D2","midi":38,"time":28.097656249999943,"velocity":0.7244094488188977,"duration":0.2265625},{"name":"E2","midi":40,"time":28.329427083333275,"velocity":0.7244094488188977,"duration":0.2265625},{"name":"A5","midi":81,"time":28.329427083333275,"velocity":0.7244094488188977,"duration":0.9218749999999964},{"name":"F#2","midi":42,"time":28.561197916666607,"velocity":0.7244094488188977,"duration":0.2265625},{"name":"G2","midi":43,"time":28.79296874999994,"velocity":0.7244094488188977,"duration":0.2265625},{"name":"B4","midi":71,"time":28.79296874999994,"velocity":0.7244094488188977,"duration":0.9218749999999964},{"name":"A2","midi":45,"time":29.02473958333327,"velocity":0.7244094488188977,"duration":0.2265625},{"name":"B2","midi":47,"time":29.256510416666604,"velocity":0.7244094488188977,"duration":0.2265625},{"name":"G5","midi":79,"time":29.256510416666604,"velocity":0.7244094488188977,"duration":0.9218749999999964},{"name":"C3","midi":48,"time":29.488281249999936,"velocity":0.7244094488188977,"duration":0.2265625},{"name":"D3","midi":50,"time":29.720052083333268,"velocity":0.7244094488188977,"duration":0.2265625},{"name":"A4","midi":69,"time":29.720052083333268,"velocity":0.7244094488188977,"duration":2.080729166666657},{"name":"C3","midi":48,"time":29.9518229166666,"velocity":0.7244094488188977,"duration":0.2265625},{"name":"D3","midi":50,"time":30.183593749999932,"velocity":0.7244094488188977,"duration":0.2265625},{"name":"F#5","midi":78,"time":30.183593749999932,"velocity":0.7244094488188977,"duration":0.2265625},{"name":"E3","midi":52,"time":30.415364583333265,"velocity":0.7244094488188977,"duration":0.2265625},{"name":"E5","midi":76,"time":30.415364583333265,"velocity":0.7244094488188977,"duration":0.2265625},{"name":"C3","midi":48,"time":30.647135416666597,"velocity":0.7244094488188977,"duration":0.2265625},{"name":"F#5","midi":78,"time":30.647135416666597,"velocity":0.7244094488188977,"duration":0.2265625},{"name":"E3","midi":52,"time":30.87890624999993,"velocity":0.7244094488188977,"duration":0.2265625},{"name":"G5","midi":79,"time":30.87890624999993,"velocity":0.7244094488188977,"duration":0.2265625},{"name":"D3","midi":50,"time":31.11067708333326,"velocity":0.7244094488188977,"duration":0.2265625},{"name":"A5","midi":81,"time":31.11067708333326,"velocity":0.7244094488188977,"duration":0.2265625},{"name":"C3","midi":48,"time":31.342447916666593,"velocity":0.7244094488188977,"duration":0.2265625},{"name":"F#5","midi":78,"time":31.342447916666593,"velocity":0.7244094488188977,"duration":0.2265625},{"name":"B2","midi":47,"time":31.574218749999925,"velocity":0.7244094488188977,"duration":0.8919270833333393},{"name":"D5","midi":74,"time":31.574218749999925,"velocity":0.7244094488188977,"duration":1.1523437500000107},{"name":"C5","midi":72,"time":31.805989583333258,"velocity":0.7244094488188977,"duration":0.2265625},{"name":"B4","midi":71,"time":32.03776041666659,"velocity":0.7244094488188977,"duration":0.2265625},{"name":"A4","midi":69,"time":32.26953124999993,"velocity":0.7244094488188977,"duration":0.2252604166666714},{"name":"B3","midi":59,"time":32.499999999999936,"velocity":0.7244094488188977,"duration":1.5924479166666785},{"name":"G4","midi":67,"time":32.499999999999936,"velocity":0.7244094488188977,"duration":0.2265625},{"name":"F#4","midi":66,"time":32.73177083333327,"velocity":0.7244094488188977,"duration":0.2265625},{"name":"G5","midi":79,"time":32.73177083333327,"velocity":0.7244094488188977,"duration":0.2265625},{"name":"E4","midi":64,"time":32.96354166666661,"velocity":0.7244094488188977,"duration":0.2265625},{"name":"A5","midi":81,"time":32.96354166666661,"velocity":0.7244094488188977,"duration":0.2265625},{"name":"D4","midi":62,"time":33.19531249999994,"velocity":0.7244094488188977,"duration":0.2265625},{"name":"B5","midi":83,"time":33.19531249999994,"velocity":0.7244094488188977,"duration":0.2265625},{"name":"C4","midi":60,"time":33.42708333333328,"velocity":0.7244094488188977,"duration":0.2265625},{"name":"E5","midi":76,"time":33.42708333333328,"velocity":0.7244094488188977,"duration":0.2265625},{"name":"D4","midi":62,"time":33.658854166666615,"velocity":0.7244094488188977,"duration":0.2265625},{"name":"F#5","midi":78,"time":33.658854166666615,"velocity":0.7244094488188977,"duration":0.2265625},{"name":"C4","midi":60,"time":33.89062499999995,"velocity":0.7244094488188977,"duration":0.2252604166666643},{"name":"E5","midi":76,"time":33.89062499999995,"velocity":0.7244094488188977,"duration":0.2252604166666643},{"name":"B3","midi":59,"time":34.12109374999995,"velocity":0.7244094488188977,"duration":0.2265625},{"name":"F#5","midi":78,"time":34.12109374999995,"velocity":0.7244094488188977,"duration":0.2265625},{"name":"A3","midi":57,"time":34.352864583333286,"velocity":0.7244094488188977,"duration":0.2174479166666714},{"name":"C4","midi":60,"time":34.352864583333286,"velocity":0.7244094488188977,"duration":0.2265625000000071},{"name":"G5","midi":79,"time":34.352864583333286,"velocity":0.7244094488188977,"duration":0.1106770833333357},{"name":"F#5","midi":78,"time":34.46874999999996,"velocity":0.7244094488188977,"duration":0.1106770833333357},{"name":"A3","midi":57,"time":34.58463541666663,"velocity":0.7244094488188977,"duration":0.6510416666666927},{"name":"G5","midi":79,"time":34.58463541666663,"velocity":0.7244094488188977,"duration":0.1106770833333357},{"name":"F#5","midi":78,"time":34.7005208333333,"velocity":0.7244094488188977,"duration":0.1106770833333357},{"name":"B3","midi":59,"time":34.81640624999997,"velocity":0.7244094488188977,"duration":0.2265625000000071},{"name":"G5","midi":79,"time":34.81640624999997,"velocity":0.7244094488188977,"duration":0.1106770833333357},{"name":"F#5","midi":78,"time":34.93229166666664,"velocity":0.7244094488188977,"duration":0.1106770833333357},{"name":"C4","midi":60,"time":35.048177083333314,"velocity":0.7244094488188977,"duration":0.2265625000000071},{"name":"E5","midi":76,"time":35.048177083333314,"velocity":0.7244094488188977,"duration":0.1106770833333357},{"name":"F#5","midi":78,"time":35.164062499999986,"velocity":0.7244094488188977,"duration":0.1106770833333357},{"name":"E3","midi":52,"time":35.27994791666666,"velocity":0.7244094488188977,"duration":0.4583333333333357},{"name":"B3","midi":59,"time":35.27994791666666,"velocity":0.7244094488188977,"duration":1.1536458333333428},{"name":"G5","midi":79,"time":35.27994791666666,"velocity":0.7244094488188977,"duration":0.2265625},{"name":"A5","midi":81,"time":35.51171874999999,"velocity":0.7244094488188977,"duration":0.2265625},{"name":"D3","midi":50,"time":35.74348958333333,"velocity":0.7244094488188977,"duration":0.4583333333333357},{"name":"G5","midi":79,"time":35.74348958333333,"velocity":0.7244094488188977,"duration":0.2265625},{"name":"F#5","midi":78,"time":35.975260416666664,"velocity":0.7244094488188977,"duration":0.2265625},{"name":"C3","midi":48,"time":36.20703125,"velocity":0.7244094488188977,"duration":0.9218750000000071},{"name":"E5","midi":76,"time":36.20703125,"velocity":0.7244094488188977,"duration":0.2265625},{"name":"B3","midi":59,"time":36.438802083333336,"velocity":0.7244094488188977,"duration":0.2265625},{"name":"D5","midi":74,"time":36.438802083333336,"velocity":0.7244094488188977,"duration":0.2265625},{"name":"A3","midi":57,"time":36.67057291666667,"velocity":0.7244094488188977,"duration":0.2265625},{"name":"C5","midi":72,"time":36.67057291666667,"velocity":0.7244094488188977,"duration":0.2265625},{"name":"G3","midi":55,"time":36.90234375000001,"velocity":0.7244094488188977,"duration":0.2265625},{"name":"B4","midi":71,"time":36.90234375000001,"velocity":0.7244094488188977,"duration":0.2265625},{"name":"D3","midi":50,"time":37.13411458333334,"velocity":0.7244094488188977,"duration":0.2265625},{"name":"F#3","midi":54,"time":37.13411458333334,"velocity":0.7244094488188977,"duration":0.43359375},{"name":"A4","midi":69,"time":37.13411458333334,"velocity":0.7244094488188977,"duration":0.2265625},{"name":"G3","midi":55,"time":37.36588541666668,"velocity":0.7244094488188977,"duration":0.2252604166666643},{"name":"B4","midi":71,"time":37.36588541666668,"velocity":0.7244094488188977,"duration":0.2252604166666643},{"name":"F#3","midi":54,"time":37.59635416666668,"velocity":0.7244094488188977,"duration":0.2265625},{"name":"A4","midi":69,"time":37.59635416666668,"velocity":0.7244094488188977,"duration":0.2265625},{"name":"E3","midi":52,"time":37.828125000000014,"velocity":0.7244094488188977,"duration":0.2265625},{"name":"G4","midi":67,"time":37.828125000000014,"velocity":0.7244094488188977,"duration":0.2265625},{"name":"D3","midi":50,"time":38.05989583333335,"velocity":0.7244094488188977,"duration":0.2265625},{"name":"A4","midi":69,"time":38.05989583333335,"velocity":0.7244094488188977,"duration":0.2265625},{"name":"C3","midi":48,"time":38.291666666666686,"velocity":0.7244094488188977,"duration":0.2265625},{"name":"F#4","midi":66,"time":38.291666666666686,"velocity":0.7244094488188977,"duration":0.2265625},{"name":"B2","midi":47,"time":38.52343750000002,"velocity":0.7244094488188977,"duration":0.2265625},{"name":"G4","midi":67,"time":38.52343750000002,"velocity":0.7244094488188977,"duration":0.2265625},{"name":"A2","midi":45,"time":38.75520833333336,"velocity":0.7244094488188977,"duration":0.2265625},{"name":"A4","midi":69,"time":38.75520833333336,"velocity":0.7244094488188977,"duration":0.2265625},{"name":"G2","midi":43,"time":38.98697916666669,"velocity":0.7244094488188977,"duration":0.2265625},{"name":"B4","midi":71,"time":38.98697916666669,"velocity":0.7244094488188977,"duration":1.1536458333333428},{"name":"A2","midi":45,"time":39.21875000000003,"velocity":0.7244094488188977,"duration":0.2265625},{"name":"D4","midi":62,"time":39.21875000000003,"velocity":0.7244094488188977,"duration":0.2265625},{"name":"G2","midi":43,"time":39.450520833333364,"velocity":0.7244094488188977,"duration":0.2265625},{"name":"E4","midi":64,"time":39.450520833333364,"velocity":0.7244094488188977,"duration":0.2265625},{"name":"F2","midi":41,"time":39.6822916666667,"velocity":0.7244094488188977,"duration":0.2265625},{"name":"F4","midi":65,"time":39.6822916666667,"velocity":0.7244094488188977,"duration":0.2265625},{"name":"G2","midi":43,"time":39.914062500000036,"velocity":0.7244094488188977,"duration":0.2265625},{"name":"E4","midi":64,"time":39.914062500000036,"velocity":0.7244094488188977,"duration":1.097656250000007},{"name":"E2","midi":40,"time":40.14583333333337,"velocity":0.7244094488188977,"duration":0.2265625},{"name":"G4","midi":67,"time":40.14583333333337,"velocity":0.7244094488188977,"duration":0.2265625},{"name":"F2","midi":41,"time":40.37760416666671,"velocity":0.7244094488188977,"duration":0.2265625},{"name":"A4","midi":69,"time":40.37760416666671,"velocity":0.7244094488188977,"duration":0.2265625},{"name":"G2","midi":43,"time":40.60937500000004,"velocity":0.7244094488188977,"duration":0.2265625},{"name":"A#4","midi":70,"time":40.60937500000004,"velocity":0.7244094488188977,"duration":0.2265625},{"name":"C#2","midi":37,"time":40.84114583333338,"velocity":0.7244094488188977,"duration":0.45703125},{"name":"A4","midi":69,"time":40.84114583333338,"velocity":0.7244094488188977,"duration":0.2252604166666643},{"name":"E4","midi":64,"time":41.07161458333338,"velocity":0.7244094488188977,"duration":0.2265625},{"name":"D3","midi":50,"time":41.303385416666714,"velocity":0.7244094488188977,"duration":0.4583333333333357},{"name":"F4","midi":65,"time":41.303385416666714,"velocity":0.7244094488188977,"duration":0.2265625},{"name":"G4","midi":67,"time":41.53515625000005,"velocity":0.7244094488188977,"duration":0.2265625},{"name":"C#3","midi":49,"time":41.766927083333385,"velocity":0.7244094488188977,"duration":0.4583333333333357},{"name":"A4","midi":69,"time":41.766927083333385,"velocity":0.7244094488188977,"duration":0.2265625},{"name":"B4","midi":71,"time":41.99869791666672,"velocity":0.7244094488188977,"duration":0.2265625},{"name":"B2","midi":47,"time":42.23046875000006,"velocity":0.7244094488188977,"duration":0.4583333333333357},{"name":"C#5","midi":73,"time":42.23046875000006,"velocity":0.7244094488188977,"duration":0.2265625},{"name":"D5","midi":74,"time":42.46223958333339,"velocity":0.7244094488188977,"duration":0.2265625},{"name":"A2","midi":45,"time":42.69401041666673,"velocity":0.7244094488188977,"duration":0.4583333333333357},{"name":"E5","midi":76,"time":42.69401041666673,"velocity":0.7244094488188977,"duration":0.2265625},{"name":"D5","midi":74,"time":42.925781250000064,"velocity":0.7244094488188977,"duration":0.2265625},{"name":"G3","midi":55,"time":43.1575520833334,"velocity":0.7244094488188977,"duration":0.4583333333333357},{"name":"A3","midi":57,"time":43.1575520833334,"velocity":0.7244094488188977,"duration":0.4583333333333357},{"name":"E5","midi":76,"time":43.1575520833334,"velocity":0.7244094488188977,"duration":0.2265625},{"name":"F5","midi":77,"time":43.389322916666735,"velocity":0.7244094488188977,"duration":0.2265625},{"name":"F3","midi":53,"time":43.62109375000007,"velocity":0.7244094488188977,"duration":0.4583333333333357},{"name":"B3","midi":59,"time":43.62109375000007,"velocity":0.7244094488188977,"duration":0.4583333333333357},{"name":"E5","midi":76,"time":43.62109375000007,"velocity":0.7244094488188977,"duration":0.2265625},{"name":"A#5","midi":82,"time":43.85286458333341,"velocity":0.7244094488188977,"duration":0.2265625},{"name":"E3","midi":52,"time":44.08463541666674,"velocity":0.7244094488188977,"duration":0.4583333333333357},{"name":"C#4","midi":61,"time":44.08463541666674,"velocity":0.7244094488188977,"duration":0.4583333333333357},{"name":"A5","midi":81,"time":44.08463541666674,"velocity":0.7244094488188977,"duration":0.2265625},{"name":"G5","midi":79,"time":44.31640625000008,"velocity":0.7244094488188977,"duration":0.2265625},{"name":"D3","midi":50,"time":44.548177083333414,"velocity":0.7244094488188977,"duration":0.4583333333333357},{"name":"D4","midi":62,"time":44.548177083333414,"velocity":0.7244094488188977,"duration":0.2265625},{"name":"F5","midi":77,"time":44.548177083333414,"velocity":0.7244094488188977,"duration":0.2265625},{"name":"D4","midi":62,"time":44.77994791666675,"velocity":0.7244094488188977,"duration":0.2265625},{"name":"G5","midi":79,"time":44.77994791666675,"velocity":0.7244094488188977,"duration":0.2265625},{"name":"E4","midi":64,"time":45.011718750000085,"velocity":0.7244094488188977,"duration":0.2265625},{"name":"F5","midi":77,"time":45.011718750000085,"velocity":0.7244094488188977,"duration":0.2265625},{"name":"F4","midi":65,"time":45.24348958333342,"velocity":0.7244094488188977,"duration":0.2265625},{"name":"E5","midi":76,"time":45.24348958333342,"velocity":0.7244094488188977,"duration":0.2265625},{"name":"G4","midi":67,"time":45.47526041666676,"velocity":0.7244094488188977,"duration":0.2265625},{"name":"D5","midi":74,"time":45.47526041666676,"velocity":0.7244094488188977,"duration":0.2265625},{"name":"A4","midi":69,"time":45.70703125000009,"velocity":0.7244094488188977,"duration":0.2265625},{"name":"C#5","midi":73,"time":45.70703125000009,"velocity":0.7244094488188977,"duration":0.2265625},{"name":"B4","midi":71,"time":45.93880208333343,"velocity":0.7244094488188977,"duration":0.2265625},{"name":"D5","midi":74,"time":45.93880208333343,"velocity":0.7244094488188977,"duration":0.2265625},{"name":"C#5","midi":73,"time":46.170572916666764,"velocity":0.7244094488188977,"duration":0.2265625},{"name":"E5","midi":76,"time":46.170572916666764,"velocity":0.7244094488188977,"duration":0.2265625},{"name":"D5","midi":74,"time":46.4023437500001,"velocity":0.7244094488188977,"duration":0.2265625},{"name":"F5","midi":77,"time":46.4023437500001,"velocity":0.7244094488188977,"duration":0.9218750000000071},{"name":"G4","midi":67,"time":46.634114583333435,"velocity":0.7244094488188977,"duration":0.2265625},{"name":"C#5","midi":73,"time":46.634114583333435,"velocity":0.7244094488188977,"duration":0.2265625},{"name":"F4","midi":65,"time":46.86588541666677,"velocity":0.7244094488188977,"duration":0.2265625},{"name":"D5","midi":74,"time":46.86588541666677,"velocity":0.7244094488188977,"duration":0.2265625},{"name":"E4","midi":64,"time":47.09765625000011,"velocity":0.7244094488188977,"duration":0.2265625},{"name":"E5","midi":76,"time":47.09765625000011,"velocity":0.7244094488188977,"duration":0.2265625},{"name":"D4","midi":62,"time":47.32942708333344,"velocity":0.7244094488188977,"duration":0.2265625},{"name":"C5","midi":72,"time":47.32942708333344,"velocity":0.7244094488188977,"duration":0.2265625},{"name":"F#5","midi":78,"time":47.32942708333344,"velocity":0.7244094488188977,"duration":0.9218750000000071},{"name":"C4","midi":60,"time":47.56119791666678,"velocity":0.7244094488188977,"duration":0.2265625},{"name":"D#5","midi":75,"time":47.56119791666678,"velocity":0.7244094488188977,"duration":0.2265625},{"name":"A#3","midi":58,"time":47.792968750000114,"velocity":0.7244094488188977,"duration":0.2265625},{"name":"D5","midi":74,"time":47.792968750000114,"velocity":0.7244094488188977,"duration":0.2265625},{"name":"A3","midi":57,"time":48.02473958333345,"velocity":0.7244094488188977,"duration":0.2265625},{"name":"C5","midi":72,"time":48.02473958333345,"velocity":0.7244094488188977,"duration":0.2265625},{"name":"G3","midi":55,"time":48.256510416666785,"velocity":0.7244094488188977,"duration":0.2265625},{"name":"A#4","midi":70,"time":48.256510416666785,"velocity":0.7244094488188977,"duration":0.2265625},{"name":"G5","midi":79,"time":48.256510416666785,"velocity":0.7244094488188977,"duration":0.9218750000000071},{"name":"C3","midi":48,"time":48.48828125000012,"velocity":0.7244094488188977,"duration":0.2265625},{"name":"A4","midi":69,"time":48.48828125000012,"velocity":0.7244094488188977,"duration":0.2265625},{"name":"D3","midi":50,"time":48.72005208333346,"velocity":0.7244094488188977,"duration":0.2265625},{"name":"A#4","midi":70,"time":48.72005208333346,"velocity":0.7244094488188977,"duration":0.2265625},{"name":"E3","midi":52,"time":48.95182291666679,"velocity":0.7244094488188977,"duration":0.2265625},{"name":"C5","midi":72,"time":48.95182291666679,"velocity":0.7244094488188977,"duration":0.2265625},{"name":"F3","midi":53,"time":49.18359375000013,"velocity":0.7244094488188977,"duration":0.2265625},{"name":"A4","midi":69,"time":49.18359375000013,"velocity":0.7244094488188977,"duration":0.2265625},{"name":"F5","midi":77,"time":49.18359375000013,"velocity":0.7244094488188977,"duration":1.3854166666666785},{"name":"G3","midi":55,"time":49.415364583333464,"velocity":0.7244094488188977,"duration":0.2265625},{"name":"C5","midi":72,"time":49.415364583333464,"velocity":0.7244094488188977,"duration":0.2265625},{"name":"A3","midi":57,"time":49.6471354166668,"velocity":0.7244094488188977,"duration":0.2265625},{"name":"A#4","midi":70,"time":49.6471354166668,"velocity":0.7244094488188977,"duration":0.2265625},{"name":"A#3","midi":58,"time":49.878906250000135,"velocity":0.7244094488188977,"duration":0.2265625},{"name":"A4","midi":69,"time":49.878906250000135,"velocity":0.7244094488188977,"duration":0.2265625},{"name":"C4","midi":60,"time":50.11067708333347,"velocity":0.7244094488188977,"duration":0.2265625},{"name":"G4","midi":67,"time":50.11067708333347,"velocity":0.7244094488188977,"duration":1.3854166666666856},{"name":"A#3","midi":58,"time":50.342447916666806,"velocity":0.7244094488188977,"duration":0.2265625},{"name":"C4","midi":60,"time":50.57421875000014,"velocity":0.7244094488188977,"duration":0.2265625000000071},{"name":"F5","midi":77,"time":50.57421875000014,"velocity":0.7244094488188977,"duration":0.1106770833333357},{"name":"E5","midi":76,"time":50.69010416666681,"velocity":0.7244094488188977,"duration":0.1106770833333357},{"name":"D4","midi":62,"time":50.805989583333485,"velocity":0.7244094488188977,"duration":0.2265625},{"name":"D5","midi":74,"time":50.805989583333485,"velocity":0.7244094488188977,"duration":0.2265625},{"name":"A#3","midi":58,"time":51.03776041666682,"velocity":0.7244094488188977,"duration":0.2265625},{"name":"E5","midi":76,"time":51.03776041666682,"velocity":0.7244094488188977,"duration":1.3854166666666785},{"name":"D4","midi":62,"time":51.269531250000156,"velocity":0.7244094488188977,"duration":0.2265625},{"name":"C4","midi":60,"time":51.50130208333349,"velocity":0.7244094488188977,"duration":0.2265625},{"name":"G4","midi":67,"time":51.50130208333349,"velocity":0.7244094488188977,"duration":0.4583333333333357},{"name":"A#3","midi":58,"time":51.73307291666683,"velocity":0.7244094488188977,"duration":0.2265625},{"name":"A3","midi":57,"time":51.96484375000016,"velocity":0.7244094488188977,"duration":0.2265625},{"name":"F4","midi":65,"time":51.96484375000016,"velocity":0.7244094488188977,"duration":0.9218750000000071},{"name":"G3","midi":55,"time":52.1966145833335,"velocity":0.7244094488188977,"duration":0.2265625},{"name":"A3","midi":57,"time":52.428385416666835,"velocity":0.7244094488188977,"duration":0.2265625},{"name":"D5","midi":74,"time":52.428385416666835,"velocity":0.7244094488188977,"duration":0.9205729166666714},{"name":"B3","midi":59,"time":52.66015625000017,"velocity":0.7244094488188977,"duration":0.2265625},{"name":"C4","midi":60,"time":52.891927083333506,"velocity":0.7244094488188977,"duration":0.2265625},{"name":"E4","midi":64,"time":52.891927083333506,"velocity":0.7244094488188977,"duration":0.43359375},{"name":"D4","midi":62,"time":53.12369791666684,"velocity":0.7244094488188977,"duration":0.2252604166666643},{"name":"E4","midi":64,"time":53.35416666666684,"velocity":0.7244094488188977,"duration":0.2265625},{"name":"C5","midi":72,"time":53.35416666666684,"velocity":0.7244094488188977,"duration":0.9218750000000071},{"name":"F4","midi":65,"time":53.58593750000018,"velocity":0.7244094488188977,"duration":0.2265625},{"name":"G4","midi":67,"time":53.81770833333351,"velocity":0.7244094488188977,"duration":0.2265625},{"name":"F4","midi":65,"time":54.04947916666685,"velocity":0.7244094488188977,"duration":0.2265625},{"name":"G4","midi":67,"time":54.281250000000185,"velocity":0.7244094488188977,"duration":0.3645833333333357},{"name":"C5","midi":72,"time":54.281250000000185,"velocity":0.7244094488188977,"duration":0.1106770833333357},{"name":"B4","midi":71,"time":54.397135416666856,"velocity":0.7244094488188977,"duration":0.1223958333333286},{"name":"A4","midi":69,"time":54.51302083333352,"velocity":0.7244094488188977,"duration":0.2265625},{"name":"F4","midi":65,"time":54.744791666666856,"velocity":0.7244094488188977,"duration":0.2265625},{"name":"B4","midi":71,"time":54.744791666666856,"velocity":0.7244094488188977,"duration":0.4583333333333357},{"name":"A4","midi":69,"time":54.97656250000019,"velocity":0.7244094488188977,"duration":0.2265625},{"name":"G4","midi":67,"time":55.20833333333353,"velocity":0.7244094488188977,"duration":0.2265625},{"name":"D5","midi":74,"time":55.20833333333353,"velocity":0.7244094488188977,"duration":0.3645833333333357},{"name":"F4","midi":65,"time":55.44010416666686,"velocity":0.7244094488188977,"duration":0.2265625},{"name":"E4","midi":64,"time":55.6718750000002,"velocity":0.7244094488188977,"duration":0.9153645833333357},{"name":"G5","midi":79,"time":55.6718750000002,"velocity":0.7244094488188977,"duration":1.152343750000007},{"name":"F4","midi":65,"time":55.9023437500002,"velocity":0.7244094488188977,"duration":0.2265625},{"name":"G4","midi":67,"time":56.134114583333535,"velocity":0.7244094488188977,"duration":0.2265625},{"name":"A4","midi":69,"time":56.36588541666687,"velocity":0.7244094488188977,"duration":0.2265625},{"name":"B4","midi":71,"time":56.597656250000206,"velocity":0.7244094488188977,"duration":0.2265625},{"name":"C5","midi":72,"time":56.82942708333354,"velocity":0.7244094488188977,"duration":0.2265625},{"name":"A5","midi":81,"time":56.82942708333354,"velocity":0.7244094488188977,"duration":0.2265625},{"name":"D5","midi":74,"time":57.06119791666688,"velocity":0.7244094488188977,"duration":0.2265625},{"name":"F5","midi":77,"time":57.06119791666688,"velocity":0.7244094488188977,"duration":0.2265625},{"name":"E5","midi":76,"time":57.29296875000021,"velocity":0.7244094488188977,"duration":0.2265625},{"name":"G5","midi":79,"time":57.29296875000021,"velocity":0.7244094488188977,"duration":0.2265625},{"name":"F5","midi":77,"time":57.52473958333355,"velocity":0.7244094488188977,"duration":0.2265625},{"name":"A5","midi":81,"time":57.52473958333355,"velocity":0.7244094488188977,"duration":0.9218750000000071},{"name":"C5","midi":72,"time":57.756510416666885,"velocity":0.7244094488188977,"duration":0.2265625},{"name":"E5","midi":76,"time":57.756510416666885,"velocity":0.7244094488188977,"duration":0.2265625},{"name":"B4","midi":71,"time":57.98828125000022,"velocity":0.7244094488188977,"duration":0.2265625},{"name":"F5","midi":77,"time":57.98828125000022,"velocity":0.7244094488188977,"duration":0.2265625},{"name":"A4","midi":69,"time":58.220052083333556,"velocity":0.7244094488188977,"duration":0.2265625},{"name":"G5","midi":79,"time":58.220052083333556,"velocity":0.7244094488188977,"duration":0.2265625},{"name":"G4","midi":67,"time":58.45182291666689,"velocity":0.7244094488188977,"duration":0.2265625},{"name":"F5","midi":77,"time":58.45182291666689,"velocity":0.7244094488188977,"duration":0.2265625},{"name":"B5","midi":83,"time":58.45182291666689,"velocity":0.7244094488188977,"duration":0.9218750000000071},{"name":"F4","midi":65,"time":58.68359375000023,"velocity":0.7244094488188977,"duration":0.2265625},{"name":"A5","midi":81,"time":58.68359375000023,"velocity":0.7244094488188977,"duration":0.2265625},{"name":"E4","midi":64,"time":58.91536458333356,"velocity":0.7244094488188977,"duration":0.2265625},{"name":"G5","midi":79,"time":58.91536458333356,"velocity":0.7244094488188977,"duration":0.2265625},{"name":"D4","midi":62,"time":59.1471354166669,"velocity":0.7244094488188977,"duration":0.2083333333333357},{"name":"F5","midi":77,"time":59.1471354166669,"velocity":0.7244094488188977,"duration":0.2265625},{"name":"C4","midi":60,"time":59.378906250000234,"velocity":0.7244094488188977,"duration":0.2265625},{"name":"E5","midi":76,"time":59.378906250000234,"velocity":0.7244094488188977,"duration":0.4583333333333357},{"name":"C6","midi":84,"time":59.378906250000234,"velocity":0.7244094488188977,"duration":0.9218750000000071},{"name":"D4","midi":62,"time":59.61067708333357,"velocity":0.7244094488188977,"duration":0.2265625},{"name":"C4","midi":60,"time":59.842447916666906,"velocity":0.7244094488188977,"duration":0.2265625},{"name":"A5","midi":81,"time":59.842447916666906,"velocity":0.7244094488188977,"duration":0.9218750000000071},{"name":"A#3","midi":58,"time":60.07421875000024,"velocity":0.7244094488188977,"duration":0.2265625},{"name":"C4","midi":60,"time":60.30598958333358,"velocity":0.7244094488188977,"duration":0.2265625},{"name":"A#5","midi":82,"time":60.30598958333358,"velocity":0.7244094488188977,"duration":0.9218750000000071},{"name":"A3","midi":57,"time":60.53776041666691,"velocity":0.7244094488188977,"duration":0.2265625},{"name":"A#3","midi":58,"time":60.76953125000025,"velocity":0.7244094488188977,"duration":0.2083333333333357},{"name":"G5","midi":79,"time":60.76953125000025,"velocity":0.7244094488188977,"duration":0.6901041666666714},{"name":"C4","midi":60,"time":61.001302083333584,"velocity":0.7244094488188977,"duration":0.2265625},{"name":"F3","midi":53,"time":61.23307291666692,"velocity":0.7244094488188977,"duration":0.2265625},{"name":"A5","midi":81,"time":61.23307291666692,"velocity":0.7244094488188977,"duration":0.9166666666666714},{"name":"G3","midi":55,"time":61.464843750000256,"velocity":0.7244094488188977,"duration":0.2265625},{"name":"C5","midi":72,"time":61.464843750000256,"velocity":0.7244094488188977,"duration":0.2265625},{"name":"F3","midi":53,"time":61.69661458333359,"velocity":0.7244094488188977,"duration":0.2265625},{"name":"D5","midi":74,"time":61.69661458333359,"velocity":0.7244094488188977,"duration":0.2265625},{"name":"E3","midi":52,"time":61.92838541666693,"velocity":0.7244094488188977,"duration":0.2265625},{"name":"E5","midi":76,"time":61.92838541666693,"velocity":0.7244094488188977,"duration":0.2265625},{"name":"D3","midi":50,"time":62.16015625000026,"velocity":0.7244094488188977,"duration":0.2265625},{"name":"F5","midi":77,"time":62.16015625000026,"velocity":0.7244094488188977,"duration":1.5924479166666785},{"name":"C3","midi":48,"time":62.3919270833336,"velocity":0.7244094488188977,"duration":0.2265625},{"name":"E5","midi":76,"time":62.3919270833336,"velocity":0.7244094488188977,"duration":0.2265625},{"name":"B2","midi":47,"time":62.623697916666934,"velocity":0.7244094488188977,"duration":0.2265625},{"name":"D5","midi":74,"time":62.623697916666934,"velocity":0.7244094488188977,"duration":0.2265625},{"name":"A2","midi":45,"time":62.85546875000027,"velocity":0.7244094488188977,"duration":0.2265625},{"name":"C5","midi":72,"time":62.85546875000027,"velocity":0.7244094488188977,"duration":0.2265625},{"name":"G2","midi":43,"time":63.087239583333606,"velocity":0.7244094488188977,"duration":0.2265625},{"name":"B4","midi":71,"time":63.087239583333606,"velocity":0.7244094488188977,"duration":0.2265625},{"name":"A3","midi":57,"time":63.31901041666694,"velocity":0.7244094488188977,"duration":0.2265625},{"name":"D5","midi":74,"time":63.31901041666694,"velocity":0.7244094488188977,"duration":0.2265625},{"name":"G3","midi":55,"time":63.55078125000028,"velocity":0.7244094488188977,"duration":0.2252604166666643},{"name":"E5","midi":76,"time":63.55078125000028,"velocity":0.7244094488188977,"duration":0.2252604166666643},{"name":"F3","midi":53,"time":63.78125000000028,"velocity":0.7244094488188977,"duration":0.2265625000000071},{"name":"F5","midi":77,"time":63.78125000000028,"velocity":0.7244094488188977,"duration":0.2265625000000071},{"name":"E3","midi":52,"time":64.01302083333361,"velocity":0.7244094488188977,"duration":0.2265625},{"name":"G5","midi":79,"time":64.01302083333361,"velocity":0.7244094488188977,"duration":2.0807291666666288},{"name":"D3","midi":50,"time":64.24479166666694,"velocity":0.7244094488188977,"duration":0.2265625},{"name":"F5","midi":77,"time":64.24479166666694,"velocity":0.7244094488188977,"duration":0.2265625},{"name":"C3","midi":48,"time":64.47656250000027,"velocity":0.7244094488188977,"duration":0.2265625},{"name":"E5","midi":76,"time":64.47656250000027,"velocity":0.7244094488188977,"duration":0.2265625},{"name":"A#2","midi":46,"time":64.7083333333336,"velocity":0.7244094488188977,"duration":0.2265625},{"name":"D5","midi":74,"time":64.7083333333336,"velocity":0.7244094488188977,"duration":0.2265625},{"name":"A2","midi":45,"time":64.94010416666693,"velocity":0.7244094488188977,"duration":0.2265625},{"name":"C5","midi":72,"time":64.94010416666693,"velocity":0.7244094488188977,"duration":0.2265625},{"name":"A#3","midi":58,"time":65.17187500000026,"velocity":0.7244094488188977,"duration":0.2265625},{"name":"D5","midi":74,"time":65.17187500000026,"velocity":0.7244094488188977,"duration":0.2265625},{"name":"A3","midi":57,"time":65.40364583333358,"velocity":0.7244094488188977,"duration":0.2265625},{"name":"C5","midi":72,"time":65.40364583333358,"velocity":0.7244094488188977,"duration":0.2265625},{"name":"G3","midi":55,"time":65.63541666666691,"velocity":0.7244094488188977,"duration":0.2265625},{"name":"A#4","midi":70,"time":65.63541666666691,"velocity":0.7244094488188977,"duration":0.2265625},{"name":"F3","midi":53,"time":65.86718750000024,"velocity":0.7244094488188977,"duration":0.2265625},{"name":"A4","midi":69,"time":65.86718750000024,"velocity":0.7244094488188977,"duration":1.385416666666643},{"name":"E3","midi":52,"time":66.09895833333357,"velocity":0.7244094488188977,"duration":0.2265625},{"name":"C5","midi":72,"time":66.09895833333357,"velocity":0.7244094488188977,"duration":0.2265625},{"name":"D3","midi":50,"time":66.3307291666669,"velocity":0.7244094488188977,"duration":0.2265625},{"name":"F5","midi":77,"time":66.3307291666669,"velocity":0.7244094488188977,"duration":0.2265625},{"name":"C3","midi":48,"time":66.56250000000023,"velocity":0.7244094488188977,"duration":0.2083333333333286},{"name":"E5","midi":76,"time":66.56250000000023,"velocity":0.7244094488188977,"duration":0.2265625},{"name":"B2","midi":47,"time":66.79427083333356,"velocity":0.7244094488188977,"duration":0.2265625},{"name":"F5","midi":77,"time":66.79427083333356,"velocity":0.7244094488188977,"duration":0.9218749999999858},{"name":"G2","midi":43,"time":67.02604166666688,"velocity":0.7244094488188977,"duration":0.2265625},{"name":"A2","midi":45,"time":67.25781250000021,"velocity":0.7244094488188977,"duration":0.2265625},{"name":"D5","midi":74,"time":67.25781250000021,"velocity":0.7244094488188977,"duration":0.9218749999999858},{"name":"B2","midi":47,"time":67.48958333333354,"velocity":0.7244094488188977,"duration":0.2265625},{"name":"C3","midi":48,"time":67.72135416666687,"velocity":0.7244094488188977,"duration":0.2265625},{"name":"E5","midi":76,"time":67.72135416666687,"velocity":0.7244094488188977,"duration":0.9218749999999858},{"name":"D3","midi":50,"time":67.9531250000002,"velocity":0.7244094488188977,"duration":0.2265625},{"name":"E3","midi":52,"time":68.18489583333353,"velocity":0.7244094488188977,"duration":0.2265625},{"name":"C5","midi":72,"time":68.18489583333353,"velocity":0.7244094488188977,"duration":0.9218749999999858},{"name":"F3","midi":53,"time":68.41666666666686,"velocity":0.7244094488188977,"duration":0.2265625},{"name":"G3","midi":55,"time":68.64843750000018,"velocity":0.7244094488188977,"duration":0.2265625},{"name":"D5","midi":74,"time":68.64843750000018,"velocity":0.7244094488188977,"duration":1.3723958333333144},{"name":"F3","midi":53,"time":68.88020833333351,"velocity":0.7244094488188977,"duration":0.2265625},{"name":"G3","midi":55,"time":69.11197916666684,"velocity":0.7244094488188977,"duration":0.2265625},{"name":"B4","midi":71,"time":69.11197916666684,"velocity":0.7244094488188977,"duration":0.2265625},{"name":"A3","midi":57,"time":69.34375000000017,"velocity":0.7244094488188977,"duration":0.2265625},{"name":"A4","midi":69,"time":69.34375000000017,"velocity":0.7244094488188977,"duration":0.2265625},{"name":"F3","midi":53,"time":69.5755208333335,"velocity":0.7244094488188977,"duration":0.2265625},{"name":"B4","midi":71,"time":69.5755208333335,"velocity":0.7244094488188977,"duration":0.2265625},{"name":"A3","midi":57,"time":69.80729166666683,"velocity":0.7244094488188977,"duration":0.2252604166666714},{"name":"C5","midi":72,"time":69.80729166666683,"velocity":0.7244094488188977,"duration":0.2252604166666714},{"name":"G3","midi":55,"time":70.03776041666683,"velocity":0.7244094488188977,"duration":0.2265625},{"name":"D5","midi":74,"time":70.03776041666683,"velocity":0.7244094488188977,"duration":0.4583333333333286},{"name":"F3","midi":53,"time":70.26953125000016,"velocity":0.7244094488188977,"duration":0.2265625},{"name":"B4","midi":71,"time":70.26953125000016,"velocity":0.7244094488188977,"duration":0.2265625},{"name":"E3","midi":52,"time":70.50130208333348,"velocity":0.7244094488188977,"duration":0.4635416666666714},{"name":"G4","midi":67,"time":70.50130208333348,"velocity":0.7244094488188977,"duration":0.9270833333333286},{"name":"F5","midi":77,"time":70.73567708333348,"velocity":0.7244094488188977,"duration":0.2291666666666714},{"name":"F3","midi":53,"time":70.97005208333348,"velocity":0.7244094488188977,"duration":0.2291666666666714},{"name":"E5","midi":76,"time":70.97005208333348,"velocity":0.7244094488188977,"duration":0.2291666666666714},{"name":"G3","midi":55,"time":71.20442708333348,"velocity":0.7244094488188977,"duration":0.2291666666666572},{"name":"D5","midi":74,"time":71.20442708333348,"velocity":0.7244094488188977,"duration":0.2291666666666572},{"name":"A3","midi":57,"time":71.43880208333347,"velocity":0.7244094488188977,"duration":0.4635416666666714},{"name":"C5","midi":72,"time":71.43880208333347,"velocity":0.7244094488188977,"duration":1.8619791666666714},{"name":"A#4","midi":70,"time":71.67317708333347,"velocity":0.7244094488188977,"duration":0.2291666666666714},{"name":"C3","midi":48,"time":71.90755208333347,"velocity":0.7244094488188977,"duration":0.4635416666666714},{"name":"A4","midi":69,"time":71.90755208333347,"velocity":0.7244094488188977,"duration":0.2291666666666714},{"name":"G4","midi":67,"time":72.14192708333347,"velocity":0.7244094488188977,"duration":0.2291666666666714},{"name":"D3","midi":50,"time":72.37630208333347,"velocity":0.7244094488188977,"duration":0.4713541666666714},{"name":"F4","midi":65,"time":72.37630208333347,"velocity":0.7244094488188977,"duration":0.2330729166666714},{"name":"G4","midi":67,"time":72.61458333333347,"velocity":0.7244094488188977,"duration":0.2330729166666714},{"name":"E3","midi":52,"time":72.85286458333347,"velocity":0.7244094488188977,"duration":0.2330729166666714},{"name":"F4","midi":65,"time":72.85286458333347,"velocity":0.7244094488188977,"duration":0.2330729166666714},{"name":"F3","midi":53,"time":73.09114583333347,"velocity":0.7244094488188977,"duration":0.2330729166666714},{"name":"E4","midi":64,"time":73.09114583333347,"velocity":0.7244094488188977,"duration":0.2330729166666714},{"name":"G3","midi":55,"time":73.32942708333347,"velocity":0.7244094488188977,"duration":0.7825520833333286},{"name":"F4","midi":65,"time":73.32942708333347,"velocity":0.7244094488188977,"duration":0.2486979166666714},{"name":"B4","midi":71,"time":73.32942708333347,"velocity":0.7244094488188977,"duration":1.1015625},{"name":"D4","midi":62,"time":73.58333333333347,"velocity":0.7244094488188977,"duration":0.2486979166666714},{"name":"G2","midi":43,"time":73.83723958333347,"velocity":0.7244094488188977,"duration":0.609375},{"name":"E4","midi":64,"time":73.83723958333347,"velocity":0.7244094488188977,"duration":0.29296875},{"name":"F4","midi":65,"time":74.13671875000014,"velocity":0.7244094488188977,"duration":0.2942708333333286},{"name":"C5","midi":72,"time":74.45833333333347,"velocity":0.7244094488188977,"duration":2.8125},{"name":"E4","midi":64,"time":74.45833333333347,"velocity":0.7244094488188977,"duration":2.8125},{"name":"C3","midi":48,"time":74.45833333333347,"velocity":0.7244094488188977,"duration":2.8125}],"controlChanges":{"7":[{"number":7,"time":0,"value":0.7874015748031497}]},"id":1,"name":"Piano 1","instrumentNumber":6,"instrument":"harpsichord","instrumentFamily":"piano","channelNumber":0,"isPercussion":false}]}