{"header":{"PPQ":384,"timeSignature":[4,4],"bpm":120,"name":"--------"},"startTime":0,"duration":91.73437500000001,"tracks":[{"startTime":0,"duration":0,"length":0,"notes":[],"controlChanges":{},"id":0,"name":"--------"},{"startTime":0.0625,"duration":91.73437500000001,"length":507,"notes":[{"name":"E4","midi":64,"time":0.0625,"velocity":0.7244094488188977,"duration":1.4596354166666665},{"name":"F#4","midi":66,"time":0.30598958333333337,"velocity":0.7244094488188977,"duration":0.23958333333333337},{"name":"G#4","midi":68,"time":0.5494791666666667,"velocity":0.7244094488188977,"duration":0.23046875},{"name":"A4","midi":69,"time":0.7929687500000001,"velocity":0.7244094488188977,"duration":0.2421874999999999},{"name":"B4","midi":71,"time":1.0364583333333333,"velocity":0.7244094488188977,"duration":0.23958333333333326},{"name":"C#5","midi":73,"time":1.2799479166666665,"velocity":0.7244094488188977,"duration":0.23046875},{"name":"D#4","midi":63,"time":1.5234374999999998,"velocity":0.7244094488188977,"duration":0.7291666666666667},{"name":"B4","midi":71,"time":1.5234374999999998,"velocity":0.7244094488188977,"duration":0.2421875},{"name":"C#5","midi":73,"time":1.766927083333333,"velocity":0.7244094488188977,"duration":0.23958333333333348},{"name":"A4","midi":69,"time":2.0104166666666665,"velocity":0.7244094488188977,"duration":0.23046875},{"name":"E4","midi":64,"time":2.25390625,"velocity":0.7244094488188977,"duration":0.729166666666667},{"name":"G#4","midi":68,"time":2.25390625,"velocity":0.7244094488188977,"duration":1.4596354166666674},{"name":"B4","midi":71,"time":2.25390625,"velocity":0.7244094488188977,"duration":0.2421875},{"name":"C#5","midi":73,"time":2.4973958333333335,"velocity":0.7244094488188977,"duration":0.23958333333333348},{"name":"D#5","midi":75,"time":2.740885416666667,"velocity":0.7244094488188977,"duration":0.23046875},{"name":"C#4","midi":61,"time":2.9843750000000004,"velocity":0.7244094488188977,"duration":0.729166666666667},{"name":"E5","midi":76,"time":2.9843750000000004,"velocity":0.7244094488188977,"duration":0.2421875},{"name":"F#5","midi":78,"time":3.227864583333334,"velocity":0.7244094488188977,"duration":0.23958333333333348},{"name":"G#5","midi":80,"time":3.4713541666666674,"velocity":0.7244094488188977,"duration":0.23046875},{"name":"F#4","midi":66,"time":3.714843750000001,"velocity":0.7244094488188977,"duration":0.729166666666667},{"name":"A#4","midi":70,"time":3.714843750000001,"velocity":0.7244094488188977,"duration":0.729166666666667},{"name":"F#5","midi":78,"time":3.714843750000001,"velocity":0.7244094488188977,"duration":0.2421875},{"name":"G#5","midi":80,"time":3.9583333333333344,"velocity":0.7244094488188977,"duration":0.23958333333333348},{"name":"E5","midi":76,"time":4.201822916666668,"velocity":0.7244094488188977,"duration":0.23046875},{"name":"B3","midi":59,"time":4.445312500000001,"velocity":0.7244094488188977,"duration":0.2421875},{"name":"B4","midi":71,"time":4.445312500000001,"velocity":0.7244094488188977,"duration":1.4596354166666652},{"name":"D#5","midi":75,"time":4.445312500000001,"velocity":0.7244094488188977,"duration":0.7291666666666661},{"name":"C#4","midi":61,"time":4.688802083333334,"velocity":0.7244094488188977,"duration":0.23958333333333304},{"name":"D#4","midi":63,"time":4.932291666666667,"velocity":0.7244094488188977,"duration":0.23046875},{"name":"E4","midi":64,"time":5.17578125,"velocity":0.7244094488188977,"duration":0.2421875},{"name":"C#5","midi":73,"time":5.17578125,"velocity":0.7244094488188977,"duration":1.4596354166666652},{"name":"F#4","midi":66,"time":5.419270833333333,"velocity":0.7244094488188977,"duration":0.23958333333333304},{"name":"G#4","midi":68,"time":5.662760416666666,"velocity":0.7244094488188977,"duration":0.23046875},{"name":"F#4","midi":66,"time":5.906249999999999,"velocity":0.7244094488188977,"duration":0.2421875},{"name":"A4","midi":69,"time":5.906249999999999,"velocity":0.7244094488188977,"duration":1.4596354166666652},{"name":"G#4","midi":68,"time":6.149739583333332,"velocity":0.7244094488188977,"duration":0.23958333333333304},{"name":"E4","midi":64,"time":6.393229166666665,"velocity":0.7244094488188977,"duration":0.23046875},{"name":"D#4","midi":63,"time":6.636718749999998,"velocity":0.7244094488188977,"duration":0.2421875},{"name":"B4","midi":71,"time":6.636718749999998,"velocity":0.7244094488188977,"duration":1.459635416666666},{"name":"E4","midi":64,"time":6.880208333333331,"velocity":0.7244094488188977,"duration":0.23958333333333304},{"name":"F#4","midi":66,"time":7.123697916666664,"velocity":0.7244094488188977,"duration":0.23046875},{"name":"E4","midi":64,"time":7.367187499999997,"velocity":0.7244094488188977,"duration":0.2421875},{"name":"G#4","midi":68,"time":7.367187499999997,"velocity":0.7244094488188977,"duration":1.4596354166666687},{"name":"F#4","midi":66,"time":7.61067708333333,"velocity":0.7244094488188977,"duration":0.23958333333333304},{"name":"D#4","midi":63,"time":7.854166666666663,"velocity":0.7244094488188977,"duration":0.2304687500000009},{"name":"C#4","midi":61,"time":8.097656249999998,"velocity":0.7244094488188977,"duration":0.2421875},{"name":"A4","midi":69,"time":8.097656249999998,"velocity":0.7244094488188977,"duration":1.4596354166666696},{"name":"D#4","midi":63,"time":8.341145833333332,"velocity":0.7244094488188977,"duration":0.23958333333333393},{"name":"E4","midi":64,"time":8.584635416666666,"velocity":0.7244094488188977,"duration":0.23046875},{"name":"D#4","midi":63,"time":8.828125,"velocity":0.7244094488188977,"duration":0.2421875},{"name":"F#4","midi":66,"time":8.828125,"velocity":0.7244094488188977,"duration":1.4596354166666696},{"name":"E4","midi":64,"time":9.071614583333334,"velocity":0.7244094488188977,"duration":0.23958333333333393},{"name":"C#4","midi":61,"time":9.315104166666668,"velocity":0.7244094488188977,"duration":0.23046875},{"name":"B3","midi":59,"time":9.558593750000002,"velocity":0.7244094488188977,"duration":0.2421875},{"name":"G#4","midi":68,"time":9.558593750000002,"velocity":0.7244094488188977,"duration":1.4596354166666696},{"name":"C#4","midi":61,"time":9.802083333333336,"velocity":0.7244094488188977,"duration":0.23958333333333393},{"name":"D#4","midi":63,"time":10.04557291666667,"velocity":0.7244094488188977,"duration":0.23046875},{"name":"C#4","midi":61,"time":10.289062500000004,"velocity":0.7244094488188977,"duration":0.2421875},{"name":"E4","midi":64,"time":10.289062500000004,"velocity":0.7244094488188977,"duration":0.9726562500000018},{"name":"D#4","midi":63,"time":10.532552083333337,"velocity":0.7244094488188977,"duration":0.23958333333333393},{"name":"B3","midi":59,"time":10.776041666666671,"velocity":0.7244094488188977,"duration":0.23046875},{"name":"A3","midi":57,"time":11.019531250000005,"velocity":0.7244094488188977,"duration":0.7291666666666679},{"name":"C#5","midi":73,"time":11.019531250000005,"velocity":0.7244094488188977,"duration":1.0273437500000018},{"name":"F#4","midi":66,"time":11.26302083333334,"velocity":0.7244094488188977,"duration":0.23958333333333393},{"name":"G#4","midi":68,"time":11.506510416666673,"velocity":0.7244094488188977,"duration":0.23046875},{"name":"F#3","midi":54,"time":11.750000000000007,"velocity":0.7244094488188977,"duration":0.7291666666666661},{"name":"A4","midi":69,"time":11.750000000000007,"velocity":0.7244094488188977,"duration":0.2421875},{"name":"B4","midi":71,"time":11.993489583333341,"velocity":0.7244094488188977,"duration":0.23958333333333215},{"name":"C#5","midi":73,"time":12.236979166666673,"velocity":0.7244094488188977,"duration":0.23046875},{"name":"B3","midi":59,"time":12.480468750000007,"velocity":0.7244094488188977,"duration":0.7291666666666679},{"name":"B4","midi":71,"time":12.480468750000007,"velocity":0.7244094488188977,"duration":0.2421875},{"name":"D#5","midi":75,"time":12.480468750000007,"velocity":0.7244094488188977,"duration":0.7291666666666679},{"name":"C#5","midi":73,"time":12.723958333333341,"velocity":0.7244094488188977,"duration":0.23958333333333393},{"name":"A4","midi":69,"time":12.967447916666675,"velocity":0.7244094488188977,"duration":0.23046875},{"name":"E3","midi":52,"time":13.210937500000009,"velocity":0.7244094488188977,"duration":0.2421875},{"name":"G#4","midi":68,"time":13.210937500000009,"velocity":0.7244094488188977,"duration":0.7291666666666679},{"name":"E5","midi":76,"time":13.210937500000009,"velocity":0.7244094488188977,"duration":1.4596354166666696},{"name":"F#3","midi":54,"time":13.454427083333343,"velocity":0.7244094488188977,"duration":0.23958333333333393},{"name":"G#3","midi":56,"time":13.697916666666677,"velocity":0.7244094488188977,"duration":0.23046875},{"name":"A3","midi":57,"time":13.94140625000001,"velocity":0.7244094488188977,"duration":0.2421875},{"name":"F#4","midi":66,"time":13.94140625000001,"velocity":0.7244094488188977,"duration":1.4596354166666696},{"name":"B3","midi":59,"time":14.184895833333345,"velocity":0.7244094488188977,"duration":0.23958333333333393},{"name":"C#4","midi":61,"time":14.428385416666679,"velocity":0.7244094488188977,"duration":0.23046875},{"name":"B3","midi":59,"time":14.671875000000012,"velocity":0.7244094488188977,"duration":0.2421875},{"name":"D#5","midi":75,"time":14.671875000000012,"velocity":0.7244094488188977,"duration":1.4596354166666696},{"name":"C#4","midi":61,"time":14.915364583333346,"velocity":0.7244094488188977,"duration":0.23958333333333393},{"name":"A3","midi":57,"time":15.15885416666668,"velocity":0.7244094488188977,"duration":0.23046875},{"name":"G#3","midi":56,"time":15.402343750000014,"velocity":0.7244094488188977,"duration":0.2421875},{"name":"E4","midi":64,"time":15.402343750000014,"velocity":0.7244094488188977,"duration":1.4596354166666643},{"name":"A3","midi":57,"time":15.645833333333348,"velocity":0.7244094488188977,"duration":0.23958333333333393},{"name":"B3","midi":59,"time":15.889322916666682,"velocity":0.7244094488188977,"duration":0.23046875},{"name":"A3","midi":57,"time":16.132812500000014,"velocity":0.7244094488188977,"duration":0.2421875},{"name":"C#5","midi":73,"time":16.132812500000014,"velocity":0.7244094488188977,"duration":1.4596354166666607},{"name":"B3","midi":59,"time":16.376302083333346,"velocity":0.7244094488188977,"duration":0.23958333333333215},{"name":"G#3","midi":56,"time":16.61979166666668,"velocity":0.7244094488188977,"duration":0.23046875},{"name":"F#3","midi":54,"time":16.86328125000001,"velocity":0.7244094488188977,"duration":0.2421875},{"name":"D#4","midi":63,"time":16.86328125000001,"velocity":0.7244094488188977,"duration":0.9726562499999964},{"name":"G#3","midi":56,"time":17.106770833333343,"velocity":0.7244094488188977,"duration":0.23958333333333215},{"name":"A3","midi":57,"time":17.350260416666675,"velocity":0.7244094488188977,"duration":0.23046875},{"name":"G#3","midi":56,"time":17.593750000000007,"velocity":0.7244094488188977,"duration":0.7291666666666643},{"name":"C5","midi":72,"time":17.593750000000007,"velocity":0.7244094488188977,"duration":0.7291666666666643},{"name":"E4","midi":64,"time":17.83723958333334,"velocity":0.7244094488188977,"duration":0.23958333333333215},{"name":"F#4","midi":66,"time":18.08072916666667,"velocity":0.7244094488188977,"duration":0.23046875},{"name":"E3","midi":52,"time":18.324218750000004,"velocity":0.7244094488188977,"duration":0.7291666666666643},{"name":"G#4","midi":68,"time":18.324218750000004,"velocity":0.7244094488188977,"duration":0.2421875},{"name":"C#5","midi":73,"time":18.324218750000004,"velocity":0.7244094488188977,"duration":1.703124999999993},{"name":"A4","midi":69,"time":18.567708333333336,"velocity":0.7244094488188977,"duration":0.23958333333333215},{"name":"B4","midi":71,"time":18.811197916666668,"velocity":0.7244094488188977,"duration":0.23046875},{"name":"F#3","midi":54,"time":19.0546875,"velocity":0.7244094488188977,"duration":0.7291666666666643},{"name":"A4","midi":69,"time":19.0546875,"velocity":0.7244094488188977,"duration":0.2421875},{"name":"B4","midi":71,"time":19.298177083333332,"velocity":0.7244094488188977,"duration":0.23958333333333215},{"name":"G#4","midi":68,"time":19.541666666666664,"velocity":0.7244094488188977,"duration":0.23046875},{"name":"D#3","midi":51,"time":19.785156249999996,"velocity":0.7244094488188977,"duration":1.4596354166666607},{"name":"F#4","midi":66,"time":19.785156249999996,"velocity":0.7244094488188977,"duration":0.7291666666666643},{"name":"D#5","midi":75,"time":20.02864583333333,"velocity":0.7244094488188977,"duration":0.23958333333333215},{"name":"E5","midi":76,"time":20.27213541666666,"velocity":0.7244094488188977,"duration":0.23046875},{"name":"C4","midi":60,"time":20.515624999999993,"velocity":0.7244094488188977,"duration":1.4596354166666607},{"name":"F#5","midi":78,"time":20.515624999999993,"velocity":0.7244094488188977,"duration":0.2421875},{"name":"G#5","midi":80,"time":20.759114583333325,"velocity":0.7244094488188977,"duration":0.23958333333333215},{"name":"A5","midi":81,"time":21.002604166666657,"velocity":0.7244094488188977,"duration":0.23046875},{"name":"G#3","midi":56,"time":21.24609374999999,"velocity":0.7244094488188977,"duration":0.7291666666666643},{"name":"G#5","midi":80,"time":21.24609374999999,"velocity":0.7244094488188977,"duration":0.2421875},{"name":"A5","midi":81,"time":21.48958333333332,"velocity":0.7244094488188977,"duration":0.23958333333333215},{"name":"F#5","midi":78,"time":21.733072916666654,"velocity":0.7244094488188977,"duration":0.23046875},{"name":"C#3","midi":49,"time":21.976562499999986,"velocity":0.7244094488188977,"duration":1.4596354166666607},{"name":"C#4","midi":61,"time":21.976562499999986,"velocity":0.7244094488188977,"duration":1.4596354166666607},{"name":"E5","midi":76,"time":21.976562499999986,"velocity":0.7244094488188977,"duration":0.2421875},{"name":"G#5","midi":80,"time":22.220052083333318,"velocity":0.7244094488188977,"duration":0.23958333333333215},{"name":"D#5","midi":75,"time":22.46354166666665,"velocity":0.7244094488188977,"duration":0.23046875},{"name":"E5","midi":76,"time":22.707031249999982,"velocity":0.7244094488188977,"duration":0.2421875},{"name":"G#5","midi":80,"time":22.950520833333314,"velocity":0.7244094488188977,"duration":0.23958333333333215},{"name":"C5","midi":72,"time":23.194010416666647,"velocity":0.7244094488188977,"duration":0.23046875},{"name":"E3","midi":52,"time":23.43749999999998,"velocity":0.7244094488188977,"duration":0.7291666666666643},{"name":"C#5","midi":73,"time":23.43749999999998,"velocity":0.7244094488188977,"duration":0.2421875},{"name":"E5","midi":76,"time":23.68098958333331,"velocity":0.7244094488188977,"duration":1.4596354166666607},{"name":"G#4","midi":68,"time":23.924479166666643,"velocity":0.7244094488188977,"duration":0.23046875},{"name":"F#3","midi":54,"time":24.167968749999975,"velocity":0.7244094488188977,"duration":1.4596354166666607},{"name":"A#4","midi":70,"time":24.167968749999975,"velocity":0.7244094488188977,"duration":0.2421875},{"name":"C#5","midi":73,"time":24.411458333333307,"velocity":0.7244094488188977,"duration":0.23958333333333215},{"name":"G#4","midi":68,"time":24.65494791666664,"velocity":0.7244094488188977,"duration":0.23046875},{"name":"A#4","midi":70,"time":24.89843749999997,"velocity":0.7244094488188977,"duration":0.2421875},{"name":"C#5","midi":73,"time":25.141927083333304,"velocity":0.7244094488188977,"duration":0.23958333333333215},{"name":"F4","midi":65,"time":25.385416666666636,"velocity":0.7244094488188977,"duration":0.23046875},{"name":"F#4","midi":66,"time":25.628906249999968,"velocity":0.7244094488188977,"duration":0.2421875},{"name":"E5","midi":76,"time":25.628906249999968,"velocity":0.7244094488188977,"duration":1.4596354166666607},{"name":"A#4","midi":70,"time":25.8723958333333,"velocity":0.7244094488188977,"duration":1.2161458333333286},{"name":"C#4","midi":61,"time":26.115885416666632,"velocity":0.7244094488188977,"duration":0.23046875},{"name":"D#4","midi":63,"time":26.359374999999964,"velocity":0.7244094488188977,"duration":0.2421875},{"name":"F#4","midi":66,"time":26.602864583333297,"velocity":0.7244094488188977,"duration":0.23958333333333215},{"name":"C#4","midi":61,"time":26.84635416666663,"velocity":0.7244094488188977,"duration":0.23046875},{"name":"D#4","midi":63,"time":27.08984374999996,"velocity":0.7244094488188977,"duration":0.2421875},{"name":"B4","midi":71,"time":27.08984374999996,"velocity":0.7244094488188977,"duration":0.7291666666666643},{"name":"D#5","midi":75,"time":27.08984374999996,"velocity":0.7244094488188977,"duration":2.190104166666657},{"name":"F#4","midi":66,"time":27.333333333333293,"velocity":0.7244094488188977,"duration":0.23958333333333215},{"name":"A#3","midi":58,"time":27.576822916666625,"velocity":0.7244094488188977,"duration":0.23046875},{"name":"B3","midi":59,"time":27.820312499999957,"velocity":0.7244094488188977,"duration":0.2421875},{"name":"F#4","midi":66,"time":27.820312499999957,"velocity":0.7244094488188977,"duration":0.7291666666666643},{"name":"D#4","midi":63,"time":28.06380208333329,"velocity":0.7244094488188977,"duration":0.23958333333333215},{"name":"F#3","midi":54,"time":28.30729166666662,"velocity":0.7244094488188977,"duration":0.23046875},{"name":"G#3","midi":56,"time":28.550781249999954,"velocity":0.7244094488188977,"duration":0.2421875},{"name":"E4","midi":64,"time":28.550781249999954,"velocity":0.7244094488188977,"duration":1.4596354166666607},{"name":"B3","midi":59,"time":28.794270833333286,"velocity":0.7244094488188977,"duration":0.23958333333333215},{"name":"F#3","midi":54,"time":29.037760416666618,"velocity":0.7244094488188977,"duration":0.23046875},{"name":"G#3","midi":56,"time":29.28124999999995,"velocity":0.7244094488188977,"duration":0.2421875},{"name":"C#5","midi":73,"time":29.28124999999995,"velocity":0.7244094488188977,"duration":0.7291666666666643},{"name":"B3","midi":59,"time":29.524739583333282,"velocity":0.7244094488188977,"duration":0.23958333333333215},{"name":"D#3","midi":51,"time":29.768229166666615,"velocity":0.7244094488188977,"duration":0.23046875},{"name":"E3","midi":52,"time":30.011718749999947,"velocity":0.7244094488188977,"duration":0.2421875},{"name":"D#4","midi":63,"time":30.011718749999947,"velocity":0.7244094488188977,"duration":0.7291666666666643},{"name":"B4","midi":71,"time":30.011718749999947,"velocity":0.7244094488188977,"duration":1.4596354166666607},{"name":"G#3","midi":56,"time":30.25520833333328,"velocity":0.7244094488188977,"duration":0.23958333333333215},{"name":"D#3","midi":51,"time":30.49869791666661,"velocity":0.7244094488188977,"duration":0.23046875},{"name":"C#3","midi":49,"time":30.742187499999943,"velocity":0.7244094488188977,"duration":0.2421875},{"name":"E4","midi":64,"time":30.742187499999943,"velocity":0.7244094488188977,"duration":2.43359375},{"name":"E3","midi":52,"time":30.985677083333275,"velocity":0.7244094488188977,"duration":0.23958333333333215},{"name":"B2","midi":47,"time":31.229166666666607,"velocity":0.7244094488188977,"duration":0.23046875},{"name":"C#3","midi":49,"time":31.47265624999994,"velocity":0.7244094488188977,"duration":0.2421875},{"name":"A#4","midi":70,"time":31.47265624999994,"velocity":0.7244094488188977,"duration":0.7291666666666607},{"name":"E3","midi":52,"time":31.71614583333327,"velocity":0.7244094488188977,"duration":0.23958333333333215},{"name":"G#2","midi":44,"time":31.959635416666604,"velocity":0.7244094488188977,"duration":0.23046874999999645},{"name":"A#2","midi":46,"time":32.203124999999936,"velocity":0.7244094488188977,"duration":0.2421875},{"name":"C#5","midi":73,"time":32.203124999999936,"velocity":0.7244094488188977,"duration":1.4596354166666785},{"name":"C#3","midi":49,"time":32.44661458333327,"velocity":0.7244094488188977,"duration":0.2395833333333357},{"name":"E2","midi":40,"time":32.69010416666661,"velocity":0.7244094488188977,"duration":0.23046875},{"name":"F#2","midi":42,"time":32.93359374999994,"velocity":0.7244094488188977,"duration":0.6562500000000071},{"name":"F#4","midi":66,"time":33.17708333333328,"velocity":0.7244094488188977,"duration":0.2395833333333357},{"name":"G#4","midi":68,"time":33.420572916666615,"velocity":0.7244094488188977,"duration":0.23046875},{"name":"E3","midi":52,"time":33.66406249999995,"velocity":0.7244094488188977,"duration":0.7343750000000071},{"name":"A#4","midi":70,"time":33.66406249999995,"velocity":0.7244094488188977,"duration":0.2421875},{"name":"B4","midi":71,"time":33.907552083333286,"velocity":0.7244094488188977,"duration":0.2395833333333357},{"name":"C#5","midi":73,"time":34.15104166666662,"velocity":0.7244094488188977,"duration":0.23046875},{"name":"B4","midi":71,"time":34.39453124999996,"velocity":0.7244094488188977,"duration":0.2421875},{"name":"C#5","midi":73,"time":34.63802083333329,"velocity":0.7244094488188977,"duration":0.2395833333333357},{"name":"A#4","midi":70,"time":34.88151041666663,"velocity":0.7244094488188977,"duration":0.23046875},{"name":"D#3","midi":51,"time":35.124999999999964,"velocity":0.7244094488188977,"duration":0.7291666666666714},{"name":"B4","midi":71,"time":35.124999999999964,"velocity":0.7244094488188977,"duration":1.4596354166666785},{"name":"B5","midi":83,"time":35.124999999999964,"velocity":0.7244094488188977,"duration":0.2421875},{"name":"A#5","midi":82,"time":35.3684895833333,"velocity":0.7244094488188977,"duration":0.2395833333333357},{"name":"G#5","midi":80,"time":35.611979166666636,"velocity":0.7244094488188977,"duration":0.23046875},{"name":"E3","midi":52,"time":35.85546874999997,"velocity":0.7244094488188977,"duration":0.7291666666666714},{"name":"F#5","midi":78,"time":35.85546874999997,"velocity":0.7244094488188977,"duration":0.2421875},{"name":"E5","midi":76,"time":36.09895833333331,"velocity":0.7244094488188977,"duration":0.2395833333333357},{"name":"D#5","midi":75,"time":36.34244791666664,"velocity":0.7244094488188977,"duration":0.23046875},{"name":"F#3","midi":54,"time":36.58593749999998,"velocity":0.7244094488188977,"duration":0.7291666666666714},{"name":"A#4","midi":70,"time":36.58593749999998,"velocity":0.7244094488188977,"duration":0.7291666666666714},{"name":"E5","midi":76,"time":36.58593749999998,"velocity":0.7244094488188977,"duration":0.2421875},{"name":"C#5","midi":73,"time":36.829427083333314,"velocity":0.7244094488188977,"duration":0.2395833333333357},{"name":"F#5","midi":78,"time":37.07291666666665,"velocity":0.7244094488188977,"duration":0.23046875},{"name":"B2","midi":47,"time":37.316406249999986,"velocity":0.7244094488188977,"duration":0.2421875},{"name":"B4","midi":71,"time":37.316406249999986,"velocity":0.7244094488188977,"duration":1.4596354166666785},{"name":"C#3","midi":49,"time":37.55989583333332,"velocity":0.7244094488188977,"duration":0.2395833333333357},{"name":"D#3","midi":51,"time":37.80338541666666,"velocity":0.7244094488188977,"duration":0.23046875},{"name":"E3","midi":52,"time":38.04687499999999,"velocity":0.7244094488188977,"duration":0.2421875},{"name":"F#3","midi":54,"time":38.29036458333333,"velocity":0.7244094488188977,"duration":0.2395833333333357},{"name":"G#3","midi":56,"time":38.533854166666664,"velocity":0.7244094488188977,"duration":0.23046875},{"name":"F#3","midi":54,"time":38.77734375,"velocity":0.7244094488188977,"duration":0.2421875},{"name":"G#3","midi":56,"time":39.020833333333336,"velocity":0.7244094488188977,"duration":0.2395833333333357},{"name":"E3","midi":52,"time":39.26432291666667,"velocity":0.7244094488188977,"duration":0.23046875},{"name":"D#3","midi":51,"time":39.50781250000001,"velocity":0.7244094488188977,"duration":0.2421875},{"name":"B3","midi":59,"time":39.50781250000001,"velocity":0.7244094488188977,"duration":0.2421875},{"name":"E3","midi":52,"time":39.75130208333334,"velocity":0.7244094488188977,"duration":0.2395833333333357},{"name":"C#4","midi":61,"time":39.75130208333334,"velocity":0.7244094488188977,"duration":0.2395833333333357},{"name":"F#3","midi":54,"time":39.99479166666668,"velocity":0.7244094488188977,"duration":0.23046875},{"name":"D#4","midi":63,"time":39.99479166666668,"velocity":0.7244094488188977,"duration":0.23046875},{"name":"G#3","midi":56,"time":40.238281250000014,"velocity":0.7244094488188977,"duration":0.2421875},{"name":"E4","midi":64,"time":40.238281250000014,"velocity":0.7244094488188977,"duration":0.2421875},{"name":"F#3","midi":54,"time":40.48177083333335,"velocity":0.7244094488188977,"duration":0.2395833333333357},{"name":"F#4","midi":66,"time":40.48177083333335,"velocity":0.7244094488188977,"duration":0.2395833333333357},{"name":"E3","midi":52,"time":40.725260416666686,"velocity":0.7244094488188977,"duration":0.23046875},{"name":"G#4","midi":68,"time":40.725260416666686,"velocity":0.7244094488188977,"duration":0.23046875},{"name":"A3","midi":57,"time":40.96875000000002,"velocity":0.7244094488188977,"duration":1.4596354166666785},{"name":"F#4","midi":66,"time":40.96875000000002,"velocity":0.7244094488188977,"duration":0.2421875},{"name":"G#4","midi":68,"time":41.21223958333336,"velocity":0.7244094488188977,"duration":0.2395833333333357},{"name":"E4","midi":64,"time":41.45572916666669,"velocity":0.7244094488188977,"duration":0.23046875},{"name":"D#4","midi":63,"time":41.69921875000003,"velocity":0.7244094488188977,"duration":0.7291666666666714},{"name":"F#4","midi":66,"time":41.69921875000003,"velocity":0.7244094488188977,"duration":0.2421875},{"name":"G#4","midi":68,"time":41.942708333333364,"velocity":0.7244094488188977,"duration":0.2395833333333357},{"name":"A4","midi":69,"time":42.1861979166667,"velocity":0.7244094488188977,"duration":0.23046875},{"name":"G#3","midi":56,"time":42.429687500000036,"velocity":0.7244094488188977,"duration":0.7291666666666714},{"name":"F4","midi":65,"time":42.429687500000036,"velocity":0.7244094488188977,"duration":1.4596354166666785},{"name":"B4","midi":71,"time":42.429687500000036,"velocity":0.7244094488188977,"duration":0.2421875},{"name":"C#5","midi":73,"time":42.67317708333337,"velocity":0.7244094488188977,"duration":0.2395833333333357},{"name":"D5","midi":74,"time":42.91666666666671,"velocity":0.7244094488188977,"duration":0.23046875},{"name":"C#4","midi":61,"time":43.16015625000004,"velocity":0.7244094488188977,"duration":0.7291666666666714},{"name":"C#5","midi":73,"time":43.16015625000004,"velocity":0.7244094488188977,"duration":0.2421875},{"name":"D5","midi":74,"time":43.40364583333338,"velocity":0.7244094488188977,"duration":0.2395833333333357},{"name":"B4","midi":71,"time":43.647135416666714,"velocity":0.7244094488188977,"duration":0.23046875},{"name":"F#3","midi":54,"time":43.89062500000005,"velocity":0.7244094488188977,"duration":0.7291666666666714},{"name":"F#4","midi":66,"time":43.89062500000005,"velocity":0.7244094488188977,"duration":1.4596354166666785},{"name":"A4","midi":69,"time":43.89062500000005,"velocity":0.7244094488188977,"duration":0.2421875},{"name":"B4","midi":71,"time":44.134114583333385,"velocity":0.7244094488188977,"duration":0.2395833333333357},{"name":"C#5","midi":73,"time":44.37760416666672,"velocity":0.7244094488188977,"duration":0.23046875},{"name":"B3","midi":59,"time":44.62109375000006,"velocity":0.7244094488188977,"duration":1.4596354166666785},{"name":"D5","midi":74,"time":44.62109375000006,"velocity":0.7244094488188977,"duration":0.2421875},{"name":"E5","midi":76,"time":44.86458333333339,"velocity":0.7244094488188977,"duration":0.2395833333333357},{"name":"F#5","midi":78,"time":45.10807291666673,"velocity":0.7244094488188977,"duration":0.23046875},{"name":"G#4","midi":68,"time":45.351562500000064,"velocity":0.7244094488188977,"duration":0.7291666666666714},{"name":"E5","midi":76,"time":45.351562500000064,"velocity":0.7244094488188977,"duration":0.2421875},{"name":"F#5","midi":78,"time":45.5950520833334,"velocity":0.7244094488188977,"duration":0.2395833333333357},{"name":"D5","midi":74,"time":45.838541666666735,"velocity":0.7244094488188977,"duration":0.23046875},{"name":"A3","midi":57,"time":46.08203125000007,"velocity":0.7244094488188977,"duration":0.2421875},{"name":"A4","midi":69,"time":46.08203125000007,"velocity":0.7244094488188977,"duration":0.4843750000000071},{"name":"C#5","midi":73,"time":46.08203125000007,"velocity":0.7244094488188977,"duration":0.2421875},{"name":"G#3","midi":56,"time":46.32552083333341,"velocity":0.7244094488188977,"duration":0.2395833333333357},{"name":"D#5","midi":75,"time":46.32552083333341,"velocity":0.7244094488188977,"duration":0.2395833333333357},{"name":"F#3","midi":54,"time":46.567708333333414,"velocity":0.7244094488188977,"duration":0.23046875},{"name":"E5","midi":76,"time":46.567708333333414,"velocity":0.7244094488188977,"duration":0.23046875},{"name":"E3","midi":52,"time":46.81119791666675,"velocity":0.7244094488188977,"duration":0.2421875},{"name":"F#5","midi":78,"time":46.81119791666675,"velocity":0.7244094488188977,"duration":0.2421875},{"name":"D#3","midi":51,"time":47.054687500000085,"velocity":0.7244094488188977,"duration":0.2395833333333357},{"name":"G#5","midi":80,"time":47.054687500000085,"velocity":0.7244094488188977,"duration":0.2395833333333357},{"name":"C#3","midi":49,"time":47.29817708333342,"velocity":0.7244094488188977,"duration":0.23046875},{"name":"A5","midi":81,"time":47.29817708333342,"velocity":0.7244094488188977,"duration":0.23046875},{"name":"C3","midi":48,"time":47.54166666666676,"velocity":0.7244094488188977,"duration":0.2421875},{"name":"G#5","midi":80,"time":47.54166666666676,"velocity":0.7244094488188977,"duration":0.2421875},{"name":"C#3","midi":49,"time":47.78515625000009,"velocity":0.7244094488188977,"duration":0.2395833333333357},{"name":"A5","midi":81,"time":47.78515625000009,"velocity":0.7244094488188977,"duration":0.2395833333333357},{"name":"D#3","midi":51,"time":48.02864583333343,"velocity":0.7244094488188977,"duration":0.23046875},{"name":"F#5","midi":78,"time":48.02864583333343,"velocity":0.7244094488188977,"duration":0.23046875},{"name":"C#3","midi":49,"time":48.272135416666764,"velocity":0.7244094488188977,"duration":1.9010416666666856},{"name":"C#5","midi":73,"time":48.272135416666764,"velocity":0.7244094488188977,"duration":0.2421875},{"name":"E5","midi":76,"time":48.272135416666764,"velocity":0.7244094488188977,"duration":2.434895833333357},{"name":"B4","midi":71,"time":48.5156250000001,"velocity":0.7244094488188977,"duration":0.2395833333333357},{"name":"A4","midi":69,"time":48.759114583333435,"velocity":0.7244094488188977,"duration":0.23046875},{"name":"G#4","midi":68,"time":49.00260416666677,"velocity":0.7244094488188977,"duration":0.2421875},{"name":"F#4","midi":66,"time":49.24609375000011,"velocity":0.7244094488188977,"duration":0.2395833333333357},{"name":"E4","midi":64,"time":49.48958333333344,"velocity":0.7244094488188977,"duration":0.23046875},{"name":"F#4","midi":66,"time":49.73307291666678,"velocity":0.7244094488188977,"duration":0.2421875},{"name":"E4","midi":64,"time":49.976562500000114,"velocity":0.7244094488188977,"duration":0.2408854166666714},{"name":"G#4","midi":68,"time":50.221354166666785,"velocity":0.7244094488188977,"duration":0.23046875},{"name":"F#3","midi":54,"time":50.46484375000012,"velocity":0.7244094488188977,"duration":1.9023437500000142},{"name":"A4","midi":69,"time":50.46484375000012,"velocity":0.7244094488188977,"duration":1.203125000000007},{"name":"E5","midi":76,"time":50.70833333333346,"velocity":0.7244094488188977,"duration":0.2395833333333357},{"name":"D#5","midi":75,"time":50.95182291666679,"velocity":0.7244094488188977,"duration":0.23046875},{"name":"C#5","midi":73,"time":51.19531250000013,"velocity":0.7244094488188977,"duration":0.2421875},{"name":"B4","midi":71,"time":51.438802083333464,"velocity":0.7244094488188977,"duration":0.2408854166666643},{"name":"A4","midi":69,"time":51.68359375000013,"velocity":0.7244094488188977,"duration":0.23046875},{"name":"B4","midi":71,"time":51.927083333333464,"velocity":0.7244094488188977,"duration":0.2421875},{"name":"A4","midi":69,"time":52.1705729166668,"velocity":0.7244094488188977,"duration":2.9101562500000284},{"name":"C#5","midi":73,"time":52.41536458333347,"velocity":0.7244094488188977,"duration":0.23046875},{"name":"B3","midi":59,"time":52.658854166666806,"velocity":0.7244094488188977,"duration":0.2421875},{"name":"D#5","midi":75,"time":52.658854166666806,"velocity":0.7244094488188977,"duration":0.9726562500000071},{"name":"A3","midi":57,"time":52.90234375000014,"velocity":0.7244094488188977,"duration":0.2395833333333357},{"name":"G#3","midi":56,"time":53.14583333333348,"velocity":0.7244094488188977,"duration":0.23046875},{"name":"F#3","midi":54,"time":53.38932291666681,"velocity":0.7244094488188977,"duration":0.2421875},{"name":"E3","midi":52,"time":53.63281250000015,"velocity":0.7244094488188977,"duration":0.2395833333333357},{"name":"E5","midi":76,"time":53.63281250000015,"velocity":0.7244094488188977,"duration":0.2395833333333357},{"name":"D#3","midi":51,"time":53.876302083333485,"velocity":0.7244094488188977,"duration":0.23046875},{"name":"F#5","midi":78,"time":53.876302083333485,"velocity":0.7244094488188977,"duration":0.23046875},{"name":"E3","midi":52,"time":54.11979166666682,"velocity":0.7244094488188977,"duration":0.2421875},{"name":"G#5","midi":80,"time":54.11979166666682,"velocity":0.7244094488188977,"duration":0.2421875},{"name":"D#3","midi":51,"time":54.363281250000156,"velocity":0.7244094488188977,"duration":0.2395833333333357},{"name":"F#5","midi":78,"time":54.363281250000156,"velocity":0.7244094488188977,"duration":0.2395833333333357},{"name":"F#3","midi":54,"time":54.60677083333349,"velocity":0.7244094488188977,"duration":0.23046875},{"name":"A5","midi":81,"time":54.60677083333349,"velocity":0.7244094488188977,"duration":0.23046875},{"name":"G#3","midi":56,"time":54.85026041666683,"velocity":0.7244094488188977,"duration":2.9205729166666927},{"name":"B4","midi":71,"time":54.85026041666683,"velocity":0.7244094488188977,"duration":2.1901041666666856},{"name":"G#4","midi":68,"time":55.09375000000016,"velocity":0.7244094488188977,"duration":0.2395833333333357},{"name":"F#4","midi":66,"time":55.3372395833335,"velocity":0.7244094488188977,"duration":0.23046875},{"name":"E4","midi":64,"time":55.580729166666835,"velocity":0.7244094488188977,"duration":0.2421875},{"name":"D4","midi":62,"time":55.82421875000017,"velocity":0.7244094488188977,"duration":0.2395833333333357},{"name":"C#4","midi":61,"time":56.067708333333506,"velocity":0.7244094488188977,"duration":0.23046875},{"name":"D4","midi":62,"time":56.31119791666684,"velocity":0.7244094488188977,"duration":0.2421875},{"name":"B3","midi":59,"time":56.55468750000018,"velocity":0.7244094488188977,"duration":0.2395833333333357},{"name":"C#4","midi":61,"time":56.79817708333351,"velocity":0.7244094488188977,"duration":0.23046875},{"name":"C#4","midi":61,"time":57.04166666666685,"velocity":0.7244094488188977,"duration":0.2421875},{"name":"A4","midi":69,"time":57.04166666666685,"velocity":0.7244094488188977,"duration":1.4596354166666785},{"name":"D#4","midi":63,"time":57.285156250000185,"velocity":0.7244094488188977,"duration":0.2395833333333357},{"name":"E4","midi":64,"time":57.52864583333352,"velocity":0.7244094488188977,"duration":0.23046875},{"name":"F#3","midi":54,"time":57.772135416666856,"velocity":0.7244094488188977,"duration":1.4596354166666785},{"name":"D#4","midi":63,"time":57.772135416666856,"velocity":0.7244094488188977,"duration":0.2421875},{"name":"E4","midi":64,"time":58.01562500000019,"velocity":0.7244094488188977,"duration":0.2395833333333357},{"name":"C#4","midi":61,"time":58.25911458333353,"velocity":0.7244094488188977,"duration":0.23046875},{"name":"B3","midi":59,"time":58.50260416666686,"velocity":0.7244094488188977,"duration":0.2421875},{"name":"G#4","midi":68,"time":58.50260416666686,"velocity":0.7244094488188977,"duration":1.4596354166666785},{"name":"C#4","midi":61,"time":58.7460937500002,"velocity":0.7244094488188977,"duration":0.2395833333333357},{"name":"D#4","midi":63,"time":58.989583333333535,"velocity":0.7244094488188977,"duration":0.23046875},{"name":"E3","midi":52,"time":59.23307291666687,"velocity":0.7244094488188977,"duration":1.4596354166666785},{"name":"C#4","midi":61,"time":59.23307291666687,"velocity":0.7244094488188977,"duration":0.2421875},{"name":"D#4","midi":63,"time":59.476562500000206,"velocity":0.7244094488188977,"duration":0.2395833333333357},{"name":"B3","midi":59,"time":59.72005208333354,"velocity":0.7244094488188977,"duration":0.23046875},{"name":"A3","midi":57,"time":59.96354166666688,"velocity":0.7244094488188977,"duration":0.2421875},{"name":"F#4","midi":66,"time":59.96354166666688,"velocity":0.7244094488188977,"duration":2.1901041666666856},{"name":"B3","midi":59,"time":60.20703125000021,"velocity":0.7244094488188977,"duration":0.2395833333333357},{"name":"C#4","midi":61,"time":60.45052083333355,"velocity":0.7244094488188977,"duration":0.23046875},{"name":"D#3","midi":51,"time":60.694010416666885,"velocity":0.7244094488188977,"duration":0.7291666666666714},{"name":"B3","midi":59,"time":60.694010416666885,"velocity":0.7244094488188977,"duration":0.2421875},{"name":"C#4","midi":61,"time":60.93750000000022,"velocity":0.7244094488188977,"duration":0.2395833333333357},{"name":"A3","midi":57,"time":61.180989583333556,"velocity":0.7244094488188977,"duration":0.23046875},{"name":"E3","midi":52,"time":61.42447916666689,"velocity":0.7244094488188977,"duration":0.2421875},{"name":"G#3","midi":56,"time":61.42447916666689,"velocity":0.7244094488188977,"duration":1.4596354166666785},{"name":"D#3","midi":51,"time":61.66796875000023,"velocity":0.7244094488188977,"duration":0.2395833333333357},{"name":"C#3","midi":49,"time":61.91145833333356,"velocity":0.7244094488188977,"duration":0.23046875},{"name":"B2","midi":47,"time":62.1549479166669,"velocity":0.7244094488188977,"duration":0.2421875},{"name":"E4","midi":64,"time":62.1549479166669,"velocity":0.7244094488188977,"duration":0.7291666666666714},{"name":"A2","midi":45,"time":62.398437500000234,"velocity":0.7244094488188977,"duration":0.2395833333333357},{"name":"G#2","midi":44,"time":62.64192708333357,"velocity":0.7244094488188977,"duration":0.23046875},{"name":"A2","midi":45,"time":62.885416666666906,"velocity":0.7244094488188977,"duration":0.2421875},{"name":"F#3","midi":54,"time":62.885416666666906,"velocity":0.7244094488188977,"duration":0.9726562500000071},{"name":"D#4","midi":63,"time":62.885416666666906,"velocity":0.7244094488188977,"duration":3.1640624999999787},{"name":"G#2","midi":44,"time":63.12890625000024,"velocity":0.7244094488188977,"duration":0.2395833333333357},{"name":"B2","midi":47,"time":63.37239583333358,"velocity":0.7244094488188977,"duration":0.23046875},{"name":"C2","midi":36,"time":63.61588541666691,"velocity":0.7244094488188977,"duration":1.6901041666666572},{"name":"D#3","midi":51,"time":63.85937500000025,"velocity":0.7244094488188977,"duration":0.2395833333333357},{"name":"E3","midi":52,"time":64.10286458333358,"velocity":0.7244094488188977,"duration":0.23046875},{"name":"F#3","midi":54,"time":64.34635416666691,"velocity":0.7244094488188977,"duration":0.2421875},{"name":"G#3","midi":56,"time":64.58984375000024,"velocity":0.7244094488188977,"duration":0.2395833333333286},{"name":"A3","midi":57,"time":64.83333333333357,"velocity":0.7244094488188977,"duration":0.23046875},{"name":"G#3","midi":56,"time":65.0768229166669,"velocity":0.7244094488188977,"duration":0.2421875},{"name":"A3","midi":57,"time":65.32031250000023,"velocity":0.7244094488188977,"duration":0.2395833333333286},{"name":"F#3","midi":54,"time":65.56380208333356,"velocity":0.7244094488188977,"duration":0.23046875},{"name":"C#2","midi":37,"time":65.80729166666688,"velocity":0.7244094488188977,"duration":1.459635416666643},{"name":"E3","midi":52,"time":65.80729166666688,"velocity":0.7244094488188977,"duration":0.7291666666666572},{"name":"C#4","midi":61,"time":66.05078125000021,"velocity":0.7244094488188977,"duration":0.2395833333333286},{"name":"D#4","midi":63,"time":66.29427083333354,"velocity":0.7244094488188977,"duration":0.23046875},{"name":"C#4","midi":61,"time":66.53776041666687,"velocity":0.7244094488188977,"duration":1.7031249999999716},{"name":"E4","midi":64,"time":66.53776041666687,"velocity":0.7244094488188977,"duration":0.2421875},{"name":"F#4","midi":66,"time":66.7812500000002,"velocity":0.7244094488188977,"duration":0.2395833333333286},{"name":"G#4","midi":68,"time":67.02473958333353,"velocity":0.7244094488188977,"duration":0.23046875},{"name":"F#4","midi":66,"time":67.26822916666686,"velocity":0.7244094488188977,"duration":0.2421875},{"name":"G#4","midi":68,"time":67.51171875000018,"velocity":0.7244094488188977,"duration":0.2395833333333286},{"name":"E4","midi":64,"time":67.75520833333351,"velocity":0.7244094488188977,"duration":0.23046875},{"name":"F#2","midi":42,"time":67.99869791666684,"velocity":0.7244094488188977,"duration":1.459635416666643},{"name":"A4","midi":69,"time":67.99869791666684,"velocity":0.7244094488188977,"duration":2.4335937499999574},{"name":"A3","midi":57,"time":68.24218750000017,"velocity":0.7244094488188977,"duration":0.2395833333333286},{"name":"B3","midi":59,"time":68.4856770833335,"velocity":0.7244094488188977,"duration":0.23046875},{"name":"C#4","midi":61,"time":68.72916666666683,"velocity":0.7244094488188977,"duration":0.2421875},{"name":"D#4","midi":63,"time":68.97265625000016,"velocity":0.7244094488188977,"duration":0.2395833333333286},{"name":"E4","midi":64,"time":69.21614583333348,"velocity":0.7244094488188977,"duration":0.23046875},{"name":"D#4","midi":63,"time":69.45963541666681,"velocity":0.7244094488188977,"duration":0.2421875},{"name":"E4","midi":64,"time":69.70312500000014,"velocity":0.7244094488188977,"duration":0.2395833333333286},{"name":"C#4","midi":61,"time":69.94661458333347,"velocity":0.7244094488188977,"duration":0.23046875},{"name":"D#2","midi":39,"time":70.1901041666668,"velocity":0.7244094488188977,"duration":1.459635416666643},{"name":"B3","midi":59,"time":70.1901041666668,"velocity":0.7244094488188977,"duration":0.7291666666666572},{"name":"F#4","midi":66,"time":70.43359375000013,"velocity":0.7244094488188977,"duration":0.2395833333333286},{"name":"G#4","midi":68,"time":70.67708333333346,"velocity":0.7244094488188977,"duration":0.23046875},{"name":"F#4","midi":66,"time":70.92057291666679,"velocity":0.7244094488188977,"duration":3.1627604166666288},{"name":"A4","midi":69,"time":70.92057291666679,"velocity":0.7244094488188977,"duration":0.2421875},{"name":"B4","midi":71,"time":71.16406250000011,"velocity":0.7244094488188977,"duration":0.2395833333333286},{"name":"C#5","midi":73,"time":71.40755208333344,"velocity":0.7244094488188977,"duration":0.23046875},{"name":"B4","midi":71,"time":71.65104166666677,"velocity":0.7244094488188977,"duration":0.2421875},{"name":"C#5","midi":73,"time":71.8945312500001,"velocity":0.7244094488188977,"duration":0.2395833333333286},{"name":"A4","midi":69,"time":72.13802083333343,"velocity":0.7244094488188977,"duration":0.23046875},{"name":"A2","midi":45,"time":72.38151041666676,"velocity":0.7244094488188977,"duration":1.6927083333333286},{"name":"E5","midi":76,"time":72.38151041666676,"velocity":0.7244094488188977,"duration":0.7239583333333286},{"name":"D#5","midi":75,"time":73.11328125000009,"velocity":0.7244094488188977,"duration":0.9661458333333286},{"name":"G#2","midi":44,"time":74.57682291666674,"velocity":0.7244094488188977,"duration":1.459635416666643},{"name":"E3","midi":52,"time":74.57682291666674,"velocity":0.7244094488188977,"duration":0.2421875},{"name":"E5","midi":76,"time":74.57682291666674,"velocity":0.7244094488188977,"duration":0.2421875},{"name":"F#3","midi":54,"time":74.82031250000007,"velocity":0.7244094488188977,"duration":0.2395833333333286},{"name":"D#5","midi":75,"time":74.82031250000007,"velocity":0.7244094488188977,"duration":0.2395833333333286},{"name":"G#3","midi":56,"time":75.0638020833334,"velocity":0.7244094488188977,"duration":0.23046875},{"name":"C#5","midi":73,"time":75.0638020833334,"velocity":0.7244094488188977,"duration":0.23046875},{"name":"A3","midi":57,"time":75.30729166666673,"velocity":0.7244094488188977,"duration":0.2421875},{"name":"B4","midi":71,"time":75.30729166666673,"velocity":0.7244094488188977,"duration":0.2421875},{"name":"B3","midi":59,"time":75.55078125000006,"velocity":0.7244094488188977,"duration":0.2395833333333286},{"name":"A4","midi":69,"time":75.55078125000006,"velocity":0.7244094488188977,"duration":0.2395833333333286},{"name":"C#4","midi":61,"time":75.79427083333339,"velocity":0.7244094488188977,"duration":0.23046875},{"name":"G#4","midi":68,"time":75.79427083333339,"velocity":0.7244094488188977,"duration":0.23046875},{"name":"B3","midi":59,"time":76.03776041666671,"velocity":0.7244094488188977,"duration":0.2421875},{"name":"A4","midi":69,"time":76.03776041666671,"velocity":0.7244094488188977,"duration":0.2421875},{"name":"C#4","midi":61,"time":76.28125000000004,"velocity":0.7244094488188977,"duration":0.2395833333333286},{"name":"G#4","midi":68,"time":76.28125000000004,"velocity":0.7244094488188977,"duration":0.2395833333333286},{"name":"A3","midi":57,"time":76.52473958333337,"velocity":0.7244094488188977,"duration":0.23046875},{"name":"B4","midi":71,"time":76.52473958333337,"velocity":0.7244094488188977,"duration":0.23046875},{"name":"A#2","midi":46,"time":76.7682291666667,"velocity":0.7244094488188977,"duration":0.2421875},{"name":"G3","midi":55,"time":76.7682291666667,"velocity":0.7244094488188977,"duration":0.9127604166666572},{"name":"C#5","midi":73,"time":76.7682291666667,"velocity":0.7244094488188977,"duration":2.1888020833333},{"name":"C#3","midi":49,"time":77.01171875000003,"velocity":0.7244094488188977,"duration":0.2395833333333286},{"name":"D#3","midi":51,"time":77.25520833333336,"velocity":0.7244094488188977,"duration":0.23046875},{"name":"E3","midi":52,"time":77.49869791666669,"velocity":0.7244094488188977,"duration":0.2408854166666714},{"name":"F#3","midi":54,"time":77.74088541666669,"velocity":0.7244094488188977,"duration":0.2395833333333286},{"name":"G3","midi":55,"time":77.98437500000001,"velocity":0.7244094488188977,"duration":0.23046875},{"name":"F#3","midi":54,"time":78.22786458333334,"velocity":0.7244094488188977,"duration":0.2421875},{"name":"G3","midi":55,"time":78.47135416666667,"velocity":0.7244094488188977,"duration":0.2395833333333286},{"name":"E3","midi":52,"time":78.71484375,"velocity":0.7244094488188977,"duration":0.23046875},{"name":"D#3","midi":51,"time":78.95833333333333,"velocity":0.7244094488188977,"duration":1.690104166666643},{"name":"B5","midi":83,"time":78.95833333333333,"velocity":0.7244094488188977,"duration":0.2421875},{"name":"F#3","midi":54,"time":79.20182291666666,"velocity":0.7244094488188977,"duration":0.2395833333333286},{"name":"A5","midi":81,"time":79.20182291666666,"velocity":0.7244094488188977,"duration":0.2395833333333286},{"name":"G#3","midi":56,"time":79.44531249999999,"velocity":0.7244094488188977,"duration":0.23046875},{"name":"G#5","midi":80,"time":79.44531249999999,"velocity":0.7244094488188977,"duration":0.23046875},{"name":"A3","midi":57,"time":79.68880208333331,"velocity":0.7244094488188977,"duration":0.2421875},{"name":"F#5","midi":78,"time":79.68880208333331,"velocity":0.7244094488188977,"duration":0.2421875},{"name":"B3","midi":59,"time":79.93229166666664,"velocity":0.7244094488188977,"duration":0.2395833333333286},{"name":"E5","midi":76,"time":79.93229166666664,"velocity":0.7244094488188977,"duration":0.2395833333333286},{"name":"C#4","midi":61,"time":80.17578124999997,"velocity":0.7244094488188977,"duration":0.23046875},{"name":"D#5","midi":75,"time":80.17578124999997,"velocity":0.7244094488188977,"duration":0.23046875},{"name":"B3","midi":59,"time":80.4192708333333,"velocity":0.7244094488188977,"duration":0.2421875},{"name":"E5","midi":76,"time":80.4192708333333,"velocity":0.7244094488188977,"duration":0.2421875},{"name":"C#4","midi":61,"time":80.66276041666663,"velocity":0.7244094488188977,"duration":0.2395833333333286},{"name":"D#5","midi":75,"time":80.66276041666663,"velocity":0.7244094488188977,"duration":0.2395833333333286},{"name":"A3","midi":57,"time":80.90624999999996,"velocity":0.7244094488188977,"duration":0.23046875},{"name":"F#5","midi":78,"time":80.90624999999996,"velocity":0.7244094488188977,"duration":0.3450520833333286},{"name":"E3","midi":52,"time":81.14973958333329,"velocity":0.7244094488188977,"duration":0.7473958333333286},{"name":"G#3","midi":56,"time":81.14973958333329,"velocity":0.7244094488188977,"duration":0.7473958333333286},{"name":"E5","midi":76,"time":81.27473958333329,"velocity":0.7244094488188977,"duration":0.1223958333333286},{"name":"D#5","midi":75,"time":81.39973958333329,"velocity":0.7244094488188977,"duration":0.1223958333333286},{"name":"C#5","midi":73,"time":81.52473958333329,"velocity":0.7244094488188977,"duration":0.1223958333333286},{"name":"G#5","midi":80,"time":81.64973958333329,"velocity":0.7244094488188977,"duration":0.3515625},{"name":"F#3","midi":54,"time":81.89973958333329,"velocity":0.7244094488188977,"duration":0.7473958333333286},{"name":"A3","midi":57,"time":81.89973958333329,"velocity":0.7244094488188977,"duration":0.7473958333333286},{"name":"F#5","midi":78,"time":82.02473958333329,"velocity":0.7244094488188977,"duration":0.1223958333333286},{"name":"E5","midi":76,"time":82.14973958333329,"velocity":0.7244094488188977,"duration":0.1223958333333286},{"name":"D#5","midi":75,"time":82.27473958333329,"velocity":0.7244094488188977,"duration":0.1223958333333286},{"name":"A5","midi":81,"time":82.39973958333329,"velocity":0.7244094488188977,"duration":0.3515625},{"name":"G#3","midi":56,"time":82.64973958333329,"velocity":0.7244094488188977,"duration":0.7473958333333286},{"name":"B3","midi":59,"time":82.64973958333329,"velocity":0.7244094488188977,"duration":0.7473958333333286},{"name":"G#5","midi":80,"time":82.77473958333329,"velocity":0.7244094488188977,"duration":0.1223958333333286},{"name":"F#5","midi":78,"time":82.89973958333329,"velocity":0.7244094488188977,"duration":0.1223958333333286},{"name":"E5","midi":76,"time":83.02473958333329,"velocity":0.7244094488188977,"duration":0.1223958333333286},{"name":"B5","midi":83,"time":83.14973958333329,"velocity":0.7244094488188977,"duration":0.46484375},{"name":"A3","midi":57,"time":83.39973958333329,"velocity":0.7244094488188977,"duration":1.5000000000000142},{"name":"C#4","midi":61,"time":83.39973958333329,"velocity":0.7244094488188977,"duration":0.2486979166666714},{"name":"D#4","midi":63,"time":83.65104166666663,"velocity":0.7244094488188977,"duration":0.24609375},{"name":"B4","midi":71,"time":83.65104166666663,"velocity":0.7244094488188977,"duration":0.24609375},{"name":"E4","midi":64,"time":83.90104166666663,"velocity":0.7244094488188977,"duration":0.2369791666666714},{"name":"C#5","midi":73,"time":83.90104166666663,"velocity":0.7244094488188977,"duration":0.2369791666666714},{"name":"F#4","midi":66,"time":84.15104166666663,"velocity":0.7244094488188977,"duration":0.2473958333333286},{"name":"D#5","midi":75,"time":84.15104166666663,"velocity":0.7244094488188977,"duration":0.2473958333333286},{"name":"G#4","midi":68,"time":84.40104166666663,"velocity":0.7244094488188977,"duration":0.24609375},{"name":"E5","midi":76,"time":84.40104166666663,"velocity":0.7244094488188977,"duration":0.24609375},{"name":"A4","midi":69,"time":84.65104166666663,"velocity":0.7244094488188977,"duration":0.2369791666666714},{"name":"F#5","midi":78,"time":84.65104166666663,"velocity":0.7244094488188977,"duration":0.2369791666666714},{"name":"G#4","midi":68,"time":84.90234374999997,"velocity":0.7244094488188977,"duration":0.2473958333333286},{"name":"E5","midi":76,"time":84.90234374999997,"velocity":0.7244094488188977,"duration":0.2473958333333286},{"name":"A4","midi":69,"time":85.15234374999997,"velocity":0.7244094488188977,"duration":0.24609375},{"name":"F#5","midi":78,"time":85.15234374999997,"velocity":0.7244094488188977,"duration":0.24609375},{"name":"F#4","midi":66,"time":85.40234374999997,"velocity":0.7244094488188977,"duration":0.2369791666666714},{"name":"D#5","midi":75,"time":85.40234374999997,"velocity":0.7244094488188977,"duration":0.2369791666666714},{"name":"G#4","midi":68,"time":85.65234374999997,"velocity":0.7244094488188977,"duration":1.1992187500000142},{"name":"E5","midi":76,"time":85.65234374999997,"velocity":0.7244094488188977,"duration":1.1992187500000142},{"name":"B3","midi":59,"time":85.9192708333333,"velocity":0.7244094488188977,"duration":0.2630208333333286},{"name":"F#3","midi":54,"time":86.18619791666663,"velocity":0.7244094488188977,"duration":0.2526041666666714},{"name":"G#3","midi":56,"time":86.45312499999997,"velocity":0.7244094488188977,"duration":0.2643229166666714},{"name":"D#3","midi":51,"time":86.72005208333331,"velocity":0.7244094488188977,"duration":0.2630208333333428},{"name":"E3","midi":52,"time":86.98697916666666,"velocity":0.7244094488188977,"duration":0.2526041666666714},{"name":"A#2","midi":46,"time":87.25390625,"velocity":0.7244094488188977,"duration":0.3359375},{"name":"C#4","midi":61,"time":87.25390625,"velocity":0.7244094488188977,"duration":0.3359375},{"name":"F#4","midi":66,"time":87.25390625,"velocity":0.7244094488188977,"duration":0.8203125},{"name":"B2","midi":47,"time":87.59244791666667,"velocity":0.7244094488188977,"duration":1.0755208333333428},{"name":"D#4","midi":63,"time":87.59244791666667,"velocity":0.7244094488188977,"duration":1.0065104166666714},{"name":"A4","midi":69,"time":88.0703125,"velocity":0.7244094488188977,"duration":0.5104166666666714},{"name":"B1","midi":35,"time":88.0703125,"velocity":0.7244094488188977,"duration":0.5104166666666714},{"name":"G#4","midi":68,"time":88.60937500000001,"velocity":0.7244094488188977,"duration":3.125},{"name":"E4","midi":64,"time":88.60937500000001,"velocity":0.7244094488188977,"duration":3.125},{"name":"E2","midi":40,"time":88.60937500000001,"velocity":0.7244094488188977,"duration":3.125}],"controlChanges":{"7":[{"number":7,"time":0,"value":0.7874015748031497}]},"id":1,"name":"Piano 1","instrumentNumber":6,"instrument":"harpsichord","instrumentFamily":"piano","channelNumber":0,"isPercussion":false}]}