{"header":{"PPQ":120,"timeSignature":[2,2],"bpm":77.99997660000702,"name":"--------"},"startTime":0,"duration":153.84619999999973,"tracks":[{"startTime":0,"duration":0,"length":0,"notes":[],"controlChanges":{},"id":0,"name":"--------"},{"startTime":12.6923115,"duration":153.84619999999973,"length":205,"notes":[{"name":"D5","midi":74,"time":12.6923115,"velocity":0.5511811023622047,"duration":0.38461550000000067},{"name":"D5","midi":74,"time":13.076927000000001,"velocity":0.5511811023622047,"duration":0.38461550000000067},{"name":"D5","midi":74,"time":13.461542500000002,"velocity":0.5511811023622047,"duration":0.38461550000000067},{"name":"G4","midi":67,"time":13.846158000000003,"velocity":0.5511811023622047,"duration":0.7692309999999996},{"name":"B4","midi":71,"time":14.615389000000002,"velocity":0.5511811023622047,"duration":1.1538465000000002},{"name":"E4","midi":64,"time":15.769235500000002,"velocity":0.5511811023622047,"duration":0.38461550000000067},{"name":"A4","midi":69,"time":16.153851000000003,"velocity":0.5511811023622047,"duration":0.3846154999999989},{"name":"G4","midi":67,"time":16.538466500000002,"velocity":0.5511811023622047,"duration":0.3846154999999989},{"name":"F#4","midi":66,"time":16.923082,"velocity":0.5511811023622047,"duration":1.538461999999999},{"name":"G#4","midi":68,"time":18.461544,"velocity":0.5511811023622047,"duration":1.538461999999999},{"name":"A4","midi":69,"time":20.000006,"velocity":0.5511811023622047,"duration":0.7692310000000013},{"name":"E4","midi":64,"time":21.1538525,"velocity":0.5511811023622047,"duration":0.3846154999999989},{"name":"A4","midi":69,"time":21.538467999999998,"velocity":0.5511811023622047,"duration":0.3846154999999989},{"name":"G4","midi":67,"time":21.923083499999997,"velocity":0.5511811023622047,"duration":0.3846154999999989},{"name":"F#4","midi":66,"time":22.307698999999996,"velocity":0.5511811023622047,"duration":1.538461999999999},{"name":"E4","midi":64,"time":23.846160999999995,"velocity":0.5511811023622047,"duration":0.3846154999999989},{"name":"D4","midi":62,"time":24.230776499999994,"velocity":0.5511811023622047,"duration":0.3846154999999989},{"name":"C#4","midi":61,"time":24.615391999999993,"velocity":0.5511811023622047,"duration":0.7692310000000013},{"name":"D4","midi":62,"time":25.384622999999994,"velocity":0.5511811023622047,"duration":1.1538465000000002},{"name":"B4","midi":71,"time":26.538469499999994,"velocity":0.5511811023622047,"duration":0.19230775000000122},{"name":"A4","midi":69,"time":26.730777249999996,"velocity":0.5511811023622047,"duration":0.19230775000000122},{"name":"B4","midi":71,"time":26.923084999999997,"velocity":0.5511811023622047,"duration":0.3846154999999989},{"name":"D4","midi":62,"time":27.307700499999996,"velocity":0.5511811023622047,"duration":0.3846154999999989},{"name":"C#4","midi":61,"time":27.692315999999995,"velocity":0.5511811023622047,"duration":0.7692310000000013},{"name":"E4","midi":64,"time":29.615393499999996,"velocity":0.5511811023622047,"duration":0.3846154999999989},{"name":"A4","midi":69,"time":30.000008999999995,"velocity":0.5511811023622047,"duration":0.3846154999999989},{"name":"G4","midi":67,"time":30.384624499999994,"velocity":0.5511811023622047,"duration":0.3846154999999989},{"name":"F#4","midi":66,"time":30.769239999999993,"velocity":0.5511811023622047,"duration":1.538461999999999},{"name":"B4","midi":71,"time":32.692317499999994,"velocity":0.5511811023622047,"duration":0.38461550000000244},{"name":"B4","midi":71,"time":33.076933,"velocity":0.5511811023622047,"duration":0.38461550000000244},{"name":"B4","midi":71,"time":33.4615485,"velocity":0.5511811023622047,"duration":0.38461550000000244},{"name":"E4","midi":64,"time":33.846164,"velocity":0.5511811023622047,"duration":0.7692309999999978},{"name":"G4","midi":67,"time":34.615395,"velocity":0.5511811023622047,"duration":1.1538465000000002},{"name":"C#4","midi":61,"time":35.7692415,"velocity":0.5511811023622047,"duration":0.38461550000000244},{"name":"F#4","midi":66,"time":36.153857,"velocity":0.5511811023622047,"duration":0.38461550000000244},{"name":"E4","midi":64,"time":36.538472500000005,"velocity":0.5511811023622047,"duration":0.38461550000000244},{"name":"D4","midi":62,"time":36.92308800000001,"velocity":0.5511811023622047,"duration":0.38461550000000244},{"name":"F#4","midi":66,"time":37.30770350000001,"velocity":0.5511811023622047,"duration":0.38461550000000244},{"name":"B4","midi":71,"time":37.69231900000001,"velocity":0.5511811023622047,"duration":0.38461550000000244},{"name":"A4","midi":69,"time":38.076934500000014,"velocity":0.5511811023622047,"duration":0.38461550000000244},{"name":"G#4","midi":68,"time":38.46155000000002,"velocity":0.5511811023622047,"duration":0.38461550000000244},{"name":"B4","midi":71,"time":38.84616550000002,"velocity":0.5511811023622047,"duration":0.38461550000000244},{"name":"E5","midi":76,"time":39.23078100000002,"velocity":0.5511811023622047,"duration":0.38461550000000244},{"name":"D5","midi":74,"time":39.615396500000024,"velocity":0.5511811023622047,"duration":0.38461550000000244},{"name":"C#5","midi":73,"time":40.00001200000003,"velocity":0.5511811023622047,"duration":0.7692309999999978},{"name":"D5","midi":74,"time":41.923089500000025,"velocity":0.5511811023622047,"duration":0.38461550000000244},{"name":"D5","midi":74,"time":42.30770500000003,"velocity":0.5511811023622047,"duration":0.38461550000000244},{"name":"D5","midi":74,"time":42.69232050000003,"velocity":0.5511811023622047,"duration":0.38461550000000244},{"name":"G4","midi":67,"time":43.07693600000003,"velocity":0.5511811023622047,"duration":0.7692309999999978},{"name":"B4","midi":71,"time":43.84616700000003,"velocity":0.5511811023622047,"duration":1.1538465000000002},{"name":"E4","midi":64,"time":45.00001350000003,"velocity":0.5511811023622047,"duration":0.38461550000000244},{"name":"A4","midi":69,"time":45.38462900000003,"velocity":0.5511811023622047,"duration":0.38461550000000244},{"name":"G4","midi":67,"time":45.769244500000035,"velocity":0.5511811023622047,"duration":0.38461550000000244},{"name":"F#4","midi":66,"time":46.15386000000004,"velocity":0.5511811023622047,"duration":0.7692309999999978},{"name":"A4","midi":69,"time":47.30770650000004,"velocity":0.5511811023622047,"duration":0.38461550000000244},{"name":"D5","midi":74,"time":47.69232200000004,"velocity":0.5511811023622047,"duration":0.38461550000000244},{"name":"C5","midi":72,"time":48.07693750000004,"velocity":0.5511811023622047,"duration":0.38461550000000244},{"name":"B4","midi":71,"time":48.461553000000045,"velocity":0.5511811023622047,"duration":0.38461550000000244},{"name":"D5","midi":74,"time":48.84616850000005,"velocity":0.5511811023622047,"duration":0.38461550000000244},{"name":"G5","midi":79,"time":49.23078400000005,"velocity":0.5511811023622047,"duration":0.7692309999999978},{"name":"F#5","midi":78,"time":50.00001500000005,"velocity":0.5511811023622047,"duration":0.38461550000000244},{"name":"E5","midi":76,"time":50.38463050000005,"velocity":0.5511811023622047,"duration":0.38461550000000244},{"name":"A5","midi":81,"time":50.76924600000005,"velocity":0.5511811023622047,"duration":0.38461550000000244},{"name":"G5","midi":79,"time":51.153861500000055,"velocity":0.5511811023622047,"duration":0.38461550000000244},{"name":"F#5","midi":78,"time":51.53847700000006,"velocity":0.5511811023622047,"duration":0.38461550000000244},{"name":"E5","midi":76,"time":51.92309250000006,"velocity":0.5511811023622047,"duration":0.38461550000000244},{"name":"D5","midi":74,"time":52.30770800000006,"velocity":0.5511811023622047,"duration":0.7692309999999978},{"name":"C#5","midi":73,"time":53.07693900000006,"velocity":0.5511811023622047,"duration":0.38461550000000244},{"name":"B4","midi":71,"time":53.46155450000006,"velocity":0.5511811023622047,"duration":0.38461550000000244},{"name":"E5","midi":76,"time":53.846170000000065,"velocity":0.5511811023622047,"duration":0.38461550000000244},{"name":"D5","midi":74,"time":54.23078550000007,"velocity":0.5511811023622047,"duration":0.38461550000000244},{"name":"C#5","midi":73,"time":54.61540100000007,"velocity":0.5511811023622047,"duration":0.38461550000000244},{"name":"B4","midi":71,"time":55.00001650000007,"velocity":0.5511811023622047,"duration":0.38461550000000244},{"name":"A4","midi":69,"time":55.384632000000074,"velocity":0.5511811023622047,"duration":0.38461550000000244},{"name":"C#5","midi":73,"time":55.76924750000008,"velocity":0.5511811023622047,"duration":0.38461550000000244},{"name":"B4","midi":71,"time":56.15386300000008,"velocity":0.5511811023622047,"duration":0.38461550000000244},{"name":"A4","midi":69,"time":56.53847850000008,"velocity":0.5511811023622047,"duration":0.38461550000000244},{"name":"G#4","midi":68,"time":56.923094000000084,"velocity":0.5511811023622047,"duration":0.38461550000000244},{"name":"E4","midi":64,"time":57.30770950000009,"velocity":0.5511811023622047,"duration":0.38461550000000244},{"name":"A4","midi":69,"time":57.69232500000009,"velocity":0.5511811023622047,"duration":1.923077499999998},{"name":"G#4","midi":68,"time":59.61540250000009,"velocity":0.5511811023622047,"duration":0.38461550000000244},{"name":"A4","midi":69,"time":60.00001800000009,"velocity":0.5511811023622047,"duration":1.923077499999998},{"name":"F#4","midi":66,"time":61.92309550000009,"velocity":0.5511811023622047,"duration":0.38461550000000244},{"name":"B4","midi":71,"time":62.30771100000009,"velocity":0.5511811023622047,"duration":0.38461550000000244},{"name":"A4","midi":69,"time":62.69232650000009,"velocity":0.5511811023622047,"duration":0.38461550000000244},{"name":"G4","midi":67,"time":63.076942000000095,"velocity":0.5511811023622047,"duration":0.7692309999999978},{"name":"F#5","midi":78,"time":65.00001950000009,"velocity":0.5511811023622047,"duration":0.38461549999999534},{"name":"F#5","midi":78,"time":65.38463500000009,"velocity":0.5511811023622047,"duration":0.38461549999999534},{"name":"F#5","midi":78,"time":65.76925050000008,"velocity":0.5511811023622047,"duration":0.38461549999999534},{"name":"B4","midi":71,"time":66.15386600000008,"velocity":0.5511811023622047,"duration":0.7692310000000049},{"name":"D5","midi":74,"time":66.92309700000008,"velocity":0.5511811023622047,"duration":1.1538465000000002},{"name":"G#4","midi":68,"time":68.07694350000008,"velocity":0.5511811023622047,"duration":0.38461549999999534},{"name":"C#5","midi":73,"time":68.46155900000008,"velocity":0.5511811023622047,"duration":0.38461549999999534},{"name":"B4","midi":71,"time":68.84617450000007,"velocity":0.5511811023622047,"duration":0.38461549999999534},{"name":"A#4","midi":70,"time":69.23079000000007,"velocity":0.5511811023622047,"duration":0.7692310000000049},{"name":"B4","midi":71,"time":70.00002100000007,"velocity":0.5511811023622047,"duration":0.38461549999999534},{"name":"C#5","midi":73,"time":70.38463650000007,"velocity":0.5511811023622047,"duration":0.38461549999999534},{"name":"D5","midi":74,"time":70.76925200000007,"velocity":0.5511811023622047,"duration":2.3076930000000004},{"name":"C#5","midi":73,"time":73.07694500000007,"velocity":0.5511811023622047,"duration":2.6923084999999958},{"name":"B4","midi":71,"time":75.76925350000006,"velocity":0.5511811023622047,"duration":0.19230774999999767},{"name":"A4","midi":69,"time":75.96156125000006,"velocity":0.5511811023622047,"duration":0.19230774999999767},{"name":"G#4","midi":68,"time":76.15386900000006,"velocity":0.5511811023622047,"duration":0.38461549999999534},{"name":"F#4","midi":66,"time":76.53848450000005,"velocity":0.5511811023622047,"duration":0.38461549999999534},{"name":"F4","midi":65,"time":76.92310000000005,"velocity":0.5511811023622047,"duration":1.923077500000005},{"name":"C#4","midi":61,"time":78.84617750000005,"velocity":0.5511811023622047,"duration":0.38461549999999534},{"name":"F#4","midi":66,"time":79.23079300000005,"velocity":0.5511811023622047,"duration":1.5384619999999956},{"name":"F4","midi":65,"time":80.76925500000004,"velocity":0.5511811023622047,"duration":0.7692310000000049},{"name":"F#4","midi":66,"time":81.53848600000005,"velocity":0.5511811023622047,"duration":0.7692310000000049},{"name":"A5","midi":81,"time":82.69233250000005,"velocity":0.5511811023622047,"duration":0.38461549999999534},{"name":"A5","midi":81,"time":83.07694800000004,"velocity":0.5511811023622047,"duration":0.38461549999999534},{"name":"A5","midi":81,"time":83.46156350000004,"velocity":0.5511811023622047,"duration":0.38461549999999534},{"name":"D5","midi":74,"time":83.84617900000003,"velocity":0.5511811023622047,"duration":0.7692310000000049},{"name":"F#5","midi":78,"time":84.61541000000004,"velocity":0.5511811023622047,"duration":1.1538465000000002},{"name":"B4","midi":71,"time":85.76925650000004,"velocity":0.5511811023622047,"duration":0.38461549999999534},{"name":"E5","midi":76,"time":86.15387200000004,"velocity":0.5511811023622047,"duration":0.38461549999999534},{"name":"D5","midi":74,"time":86.53848750000003,"velocity":0.5511811023622047,"duration":0.38461549999999534},{"name":"C#5","midi":73,"time":86.92310300000003,"velocity":0.5511811023622047,"duration":0.7692310000000049},{"name":"A4","midi":69,"time":88.07694950000003,"velocity":0.5511811023622047,"duration":0.38461549999999534},{"name":"D5","midi":74,"time":88.46156500000002,"velocity":0.5511811023622047,"duration":0.38461549999999534},{"name":"C5","midi":72,"time":88.84618050000002,"velocity":0.5511811023622047,"duration":0.38461549999999534},{"name":"B4","midi":71,"time":89.23079600000001,"velocity":0.5511811023622047,"duration":0.7692310000000049},{"name":"B4","midi":71,"time":90.38464250000001,"velocity":0.5511811023622047,"duration":0.38461549999999534},{"name":"E5","midi":76,"time":90.76925800000001,"velocity":0.5511811023622047,"duration":0.38461549999999534},{"name":"D5","midi":74,"time":91.1538735,"velocity":0.5511811023622047,"duration":0.38461549999999534},{"name":"C5","midi":72,"time":91.538489,"velocity":0.5511811023622047,"duration":2.3076930000000004},{"name":"B4","midi":71,"time":93.846182,"velocity":0.5511811023622047,"duration":1.923077500000005},{"name":"A4","midi":69,"time":95.7692595,"velocity":0.5511811023622047,"duration":0.7692310000000049},{"name":"G4","midi":67,"time":96.53849050000001,"velocity":0.5511811023622047,"duration":0.7692310000000049},{"name":"F#4","midi":66,"time":97.30772150000001,"velocity":0.5511811023622047,"duration":0.19230774999999767},{"name":"E4","midi":64,"time":97.50002925000001,"velocity":0.5511811023622047,"duration":0.19230774999999767},{"name":"F#4","midi":66,"time":97.69233700000001,"velocity":0.5511811023622047,"duration":0.7692310000000049},{"name":"G4","midi":67,"time":98.46156800000001,"velocity":0.5511811023622047,"duration":0.38461549999999534},{"name":"G5","midi":79,"time":100.3846455,"velocity":0.5511811023622047,"duration":0.38461549999999534},{"name":"G5","midi":79,"time":100.769261,"velocity":0.5511811023622047,"duration":0.38461549999999534},{"name":"G5","midi":79,"time":101.1538765,"velocity":0.5511811023622047,"duration":0.38461549999999534},{"name":"C#5","midi":73,"time":101.53849199999999,"velocity":0.5511811023622047,"duration":0.7692310000000049},{"name":"E5","midi":76,"time":102.307723,"velocity":0.5511811023622047,"duration":1.1538465000000002},{"name":"A4","midi":69,"time":103.4615695,"velocity":0.5511811023622047,"duration":0.38461549999999534},{"name":"D5","midi":74,"time":103.84618499999999,"velocity":0.5511811023622047,"duration":0.38461549999999534},{"name":"C5","midi":72,"time":104.23080049999999,"velocity":0.5511811023622047,"duration":0.38461549999999534},{"name":"B4","midi":71,"time":104.61541599999998,"velocity":0.5511811023622047,"duration":1.923077500000005},{"name":"E4","midi":64,"time":106.53849349999999,"velocity":0.5511811023622047,"duration":0.38461549999999534},{"name":"A4","midi":69,"time":106.92310899999998,"velocity":0.5511811023622047,"duration":0.38461549999999534},{"name":"G4","midi":67,"time":107.30772449999998,"velocity":0.5511811023622047,"duration":0.38461549999999534},{"name":"F#4","midi":66,"time":107.69233999999997,"velocity":0.5511811023622047,"duration":0.7692310000000049},{"name":"C#5","midi":73,"time":108.46157099999998,"velocity":0.5511811023622047,"duration":1.1538465000000002},{"name":"F#4","midi":66,"time":109.61541749999998,"velocity":0.5511811023622047,"duration":0.38461549999999534},{"name":"B4","midi":71,"time":110.00003299999997,"velocity":0.5511811023622047,"duration":0.38461549999999534},{"name":"A4","midi":69,"time":110.38464849999997,"velocity":0.5511811023622047,"duration":0.38461549999999534},{"name":"G4","midi":67,"time":110.76926399999996,"velocity":0.5511811023622047,"duration":2.6923084999999958},{"name":"E4","midi":64,"time":113.46157249999996,"velocity":0.5511811023622047,"duration":0.38461549999999534},{"name":"A4","midi":69,"time":113.84618799999996,"velocity":0.5511811023622047,"duration":0.38461549999999534},{"name":"G4","midi":67,"time":114.23080349999995,"velocity":0.5511811023622047,"duration":0.38461549999999534},{"name":"F#4","midi":66,"time":114.61541899999995,"velocity":0.5511811023622047,"duration":0.38461549999999534},{"name":"A4","midi":69,"time":115.00003449999994,"velocity":0.5511811023622047,"duration":0.38461549999999534},{"name":"D5","midi":74,"time":115.38464999999994,"velocity":0.5511811023622047,"duration":0.38461549999999534},{"name":"C#5","midi":73,"time":115.76926549999993,"velocity":0.5511811023622047,"duration":0.38461549999999534},{"name":"B4","midi":71,"time":116.15388099999993,"velocity":0.5511811023622047,"duration":0.38461549999999534},{"name":"D5","midi":74,"time":116.53849649999992,"velocity":0.5511811023622047,"duration":0.38461549999999534},{"name":"G5","midi":79,"time":116.92311199999992,"velocity":0.5511811023622047,"duration":1.923077500000005},{"name":"E5","midi":76,"time":118.84618949999992,"velocity":0.5511811023622047,"duration":0.38461549999999534},{"name":"A5","midi":81,"time":119.23080499999992,"velocity":0.5511811023622047,"duration":0.38461549999999534},{"name":"G5","midi":79,"time":119.61542049999991,"velocity":0.5511811023622047,"duration":0.38461549999999534},{"name":"F#5","midi":78,"time":120.00003599999991,"velocity":0.5511811023622047,"duration":0.38461549999999534},{"name":"G5","midi":79,"time":120.3846514999999,"velocity":0.5511811023622047,"duration":0.38461549999999534},{"name":"A5","midi":81,"time":120.7692669999999,"velocity":0.5511811023622047,"duration":1.1538465000000002},{"name":"D5","midi":74,"time":121.9231134999999,"velocity":0.5511811023622047,"duration":0.38461549999999534},{"name":"G5","midi":79,"time":122.3077289999999,"velocity":0.5511811023622047,"duration":0.38461549999999534},{"name":"F#5","midi":78,"time":122.69234449999989,"velocity":0.5511811023622047,"duration":0.38461549999999534},{"name":"E5","midi":76,"time":123.07695999999989,"velocity":0.5511811023622047,"duration":2.3076930000000004},{"name":"D5","midi":74,"time":125.38465299999989,"velocity":0.5511811023622047,"duration":0.38461549999999534},{"name":"C5","midi":72,"time":125.76926849999988,"velocity":0.5511811023622047,"duration":0.38461549999999534},{"name":"B4","midi":71,"time":126.15388399999988,"velocity":0.5511811023622047,"duration":1.923077499999991},{"name":"E4","midi":64,"time":128.07696149999987,"velocity":0.5511811023622047,"duration":0.38461549999999534},{"name":"A4","midi":69,"time":128.46157699999986,"velocity":0.5511811023622047,"duration":0.38461549999999534},{"name":"G4","midi":67,"time":128.84619249999986,"velocity":0.5511811023622047,"duration":0.38461549999999534},{"name":"F#4","midi":66,"time":129.23080799999985,"velocity":0.5511811023622047,"duration":0.7692309999999907},{"name":"E4","midi":64,"time":130.00003899999984,"velocity":0.5511811023622047,"duration":0.7692309999999907},{"name":"F#4","midi":66,"time":130.76926999999984,"velocity":0.5511811023622047,"duration":0.38461549999999534},{"name":"G#4","midi":68,"time":131.15388549999983,"velocity":0.5511811023622047,"duration":0.38461549999999534},{"name":"A4","midi":69,"time":131.53850099999983,"velocity":0.5511811023622047,"duration":1.5384620000000098},{"name":"G#4","midi":68,"time":133.07696299999984,"velocity":0.5511811023622047,"duration":0.7692309999999907},{"name":"A4","midi":69,"time":133.84619399999983,"velocity":0.5511811023622047,"duration":0.38461549999999534},{"name":"A5","midi":81,"time":134.23080949999982,"velocity":0.5511811023622047,"duration":0.38461549999999534},{"name":"A5","midi":81,"time":134.61542499999982,"velocity":0.5511811023622047,"duration":0.38461549999999534},{"name":"A5","midi":81,"time":135.0000404999998,"velocity":0.5511811023622047,"duration":0.38461549999999534},{"name":"D5","midi":74,"time":135.3846559999998,"velocity":0.5511811023622047,"duration":0.7692309999999907},{"name":"F#5","midi":78,"time":136.1538869999998,"velocity":0.5511811023622047,"duration":1.153846499999986},{"name":"B4","midi":71,"time":137.30773349999978,"velocity":0.5511811023622047,"duration":0.38461549999999534},{"name":"E5","midi":76,"time":137.69234899999978,"velocity":0.5511811023622047,"duration":0.38461549999999534},{"name":"D5","midi":74,"time":138.07696449999978,"velocity":0.5511811023622047,"duration":0.38461549999999534},{"name":"C#5","midi":73,"time":138.46157999999977,"velocity":0.5511811023622047,"duration":1.5384620000000098},{"name":"C5","midi":72,"time":140.00004199999978,"velocity":0.5511811023622047,"duration":1.923077500000005},{"name":"A4","midi":69,"time":141.92311949999979,"velocity":0.5511811023622047,"duration":0.38461549999999534},{"name":"D5","midi":74,"time":142.30773499999978,"velocity":0.5511811023622047,"duration":0.38461549999999534},{"name":"C5","midi":72,"time":142.69235049999978,"velocity":0.5511811023622047,"duration":0.38461549999999534},{"name":"B4","midi":71,"time":143.07696599999977,"velocity":0.5511811023622047,"duration":2.3076930000000004},{"name":"A4","midi":69,"time":145.38465899999977,"velocity":0.5511811023622047,"duration":3.076923999999991},{"name":"G4","midi":67,"time":148.46158299999976,"velocity":0.5511811023622047,"duration":1.153846499999986},{"name":"E4","midi":64,"time":149.61542949999975,"velocity":0.5511811023622047,"duration":0.38461549999999534},{"name":"A4","midi":69,"time":150.00004499999974,"velocity":0.5511811023622047,"duration":0.38461549999999534},{"name":"G4","midi":67,"time":150.38466049999974,"velocity":0.5511811023622047,"duration":0.38461549999999534},{"name":"F#4","midi":66,"time":150.76927599999973,"velocity":0.5511811023622047,"duration":0.7692309999999907},{"name":"E4","midi":64,"time":151.53850699999973,"velocity":0.5511811023622047,"duration":0.7692309999999907},{"name":"D4","midi":62,"time":152.30773799999972,"velocity":0.5511811023622047,"duration":1.5384620000000098}],"controlChanges":{"7":[{"number":7,"time":0,"value":0.7874015748031497}],"10":[{"number":10,"time":0,"value":0.6299212598425197}]},"id":1,"name":"BWV 874/2","instrumentNumber":6,"instrument":"harpsichord","instrumentFamily":"piano","channelNumber":0,"isPercussion":false},{"startTime":5.0000015,"duration":153.84619999999947,"length":242,"notes":[{"name":"A4","midi":69,"time":5.0000015,"velocity":0.5511811023622047,"duration":0.3846154999999998},{"name":"A4","midi":69,"time":5.3846169999999995,"velocity":0.5511811023622047,"duration":0.3846154999999998},{"name":"A4","midi":69,"time":5.769232499999999,"velocity":0.5511811023622047,"duration":0.3846154999999998},{"name":"D4","midi":62,"time":6.153847999999999,"velocity":0.5511811023622047,"duration":0.7692310000000004},{"name":"F#4","midi":66,"time":6.9230789999999995,"velocity":0.5511811023622047,"duration":1.1538465000000002},{"name":"B3","midi":59,"time":8.0769255,"velocity":0.5511811023622047,"duration":0.38461550000000067},{"name":"E4","midi":64,"time":8.461541,"velocity":0.5511811023622047,"duration":0.38461550000000067},{"name":"D4","midi":62,"time":8.846156500000001,"velocity":0.5511811023622047,"duration":0.38461550000000067},{"name":"C#4","midi":61,"time":9.230772000000002,"velocity":0.5511811023622047,"duration":0.38461550000000067},{"name":"E4","midi":64,"time":9.615387500000002,"velocity":0.5511811023622047,"duration":0.38461550000000067},{"name":"A4","midi":69,"time":10.000003000000003,"velocity":0.5511811023622047,"duration":0.38461550000000067},{"name":"G4","midi":67,"time":10.384618500000004,"velocity":0.5511811023622047,"duration":0.38461550000000067},{"name":"F#4","midi":66,"time":10.769234000000004,"velocity":0.5511811023622047,"duration":0.7692309999999996},{"name":"A4","midi":69,"time":11.538465000000004,"velocity":0.5511811023622047,"duration":1.1538465000000002},{"name":"D4","midi":62,"time":12.692311500000004,"velocity":0.5511811023622047,"duration":0.38461550000000067},{"name":"G4","midi":67,"time":13.076927000000005,"velocity":0.5511811023622047,"duration":0.38461550000000067},{"name":"F#4","midi":66,"time":13.461542500000006,"velocity":0.5511811023622047,"duration":0.38461550000000067},{"name":"E4","midi":64,"time":13.846158000000006,"velocity":0.5511811023622047,"duration":0.38461550000000067},{"name":"F#4","midi":66,"time":14.230773500000007,"velocity":0.5511811023622047,"duration":0.38461550000000067},{"name":"G4","midi":67,"time":14.615389000000008,"velocity":0.5511811023622047,"duration":1.538461999999999},{"name":"F#4","midi":66,"time":16.153851000000007,"velocity":0.5511811023622047,"duration":0.3846154999999989},{"name":"E4","midi":64,"time":16.538466500000006,"velocity":0.5511811023622047,"duration":0.3846154999999989},{"name":"D4","midi":62,"time":16.923082000000004,"velocity":0.5511811023622047,"duration":0.7692310000000013},{"name":"B3","midi":59,"time":19.615390500000007,"velocity":0.5511811023622047,"duration":0.3846154999999989},{"name":"E4","midi":64,"time":20.000006000000006,"velocity":0.5511811023622047,"duration":0.3846154999999989},{"name":"D4","midi":62,"time":20.384621500000005,"velocity":0.5511811023622047,"duration":0.3846154999999989},{"name":"C#4","midi":61,"time":20.769237000000004,"velocity":0.5511811023622047,"duration":1.538461999999999},{"name":"A3","midi":57,"time":22.692314500000002,"velocity":0.5511811023622047,"duration":0.3846154999999989},{"name":"D4","midi":62,"time":23.07693,"velocity":0.5511811023622047,"duration":0.3846154999999989},{"name":"C#4","midi":61,"time":23.4615455,"velocity":0.5511811023622047,"duration":0.3846154999999989},{"name":"B3","midi":59,"time":23.846161,"velocity":0.5511811023622047,"duration":0.7692310000000013},{"name":"A3","midi":57,"time":24.615392,"velocity":0.5511811023622047,"duration":0.7692310000000013},{"name":"G#3","midi":56,"time":25.384623,"velocity":0.5511811023622047,"duration":0.3846154999999989},{"name":"F#3","midi":54,"time":25.7692385,"velocity":0.5511811023622047,"duration":0.3846154999999989},{"name":"E3","midi":52,"time":26.153854,"velocity":0.5511811023622047,"duration":1.538461999999999},{"name":"E4","midi":64,"time":28.076931499999997,"velocity":0.5511811023622047,"duration":0.3846154999999989},{"name":"E4","midi":64,"time":28.461546999999996,"velocity":0.5511811023622047,"duration":0.3846154999999989},{"name":"E4","midi":64,"time":28.846162499999995,"velocity":0.5511811023622047,"duration":0.3846154999999989},{"name":"A3","midi":57,"time":29.230777999999994,"velocity":0.5511811023622047,"duration":0.7692310000000013},{"name":"C4","midi":60,"time":30.000008999999995,"velocity":0.5511811023622047,"duration":1.1538465000000002},{"name":"F#3","midi":54,"time":31.153855499999995,"velocity":0.5511811023622047,"duration":0.3846154999999989},{"name":"B3","midi":59,"time":31.538470999999994,"velocity":0.5511811023622047,"duration":0.3846154999999989},{"name":"A3","midi":57,"time":31.923086499999993,"velocity":0.5511811023622047,"duration":0.3846154999999989},{"name":"G3","midi":55,"time":32.30770199999999,"velocity":0.5511811023622047,"duration":0.38461550000000244},{"name":"B3","midi":59,"time":32.692317499999994,"velocity":0.5511811023622047,"duration":0.38461550000000244},{"name":"E4","midi":64,"time":33.076933,"velocity":0.5511811023622047,"duration":0.38461550000000244},{"name":"D4","midi":62,"time":33.4615485,"velocity":0.5511811023622047,"duration":0.38461550000000244},{"name":"C#4","midi":61,"time":33.846164,"velocity":0.5511811023622047,"duration":0.38461550000000244},{"name":"B3","midi":59,"time":34.230779500000004,"velocity":0.5511811023622047,"duration":0.38461550000000244},{"name":"A#3","midi":58,"time":34.61539500000001,"velocity":0.5511811023622047,"duration":0.38461550000000244},{"name":"B3","midi":59,"time":35.00001050000001,"velocity":0.5511811023622047,"duration":0.38461550000000244},{"name":"C#4","midi":61,"time":35.38462600000001,"velocity":0.5511811023622047,"duration":0.38461550000000244},{"name":"E4","midi":64,"time":35.769241500000014,"velocity":0.5511811023622047,"duration":0.38461550000000244},{"name":"D4","midi":62,"time":36.153857000000016,"velocity":0.5511811023622047,"duration":0.38461550000000244},{"name":"C#4","midi":61,"time":36.53847250000002,"velocity":0.5511811023622047,"duration":0.38461550000000244},{"name":"B3","midi":59,"time":36.92308800000002,"velocity":0.5511811023622047,"duration":0.7692309999999978},{"name":"A4","midi":69,"time":40.38462750000002,"velocity":0.5511811023622047,"duration":0.38461550000000244},{"name":"A4","midi":69,"time":40.769243000000024,"velocity":0.5511811023622047,"duration":0.38461550000000244},{"name":"A4","midi":69,"time":41.15385850000003,"velocity":0.5511811023622047,"duration":0.38461550000000244},{"name":"D4","midi":62,"time":41.53847400000003,"velocity":0.5511811023622047,"duration":0.7692309999999978},{"name":"F#4","midi":66,"time":42.30770500000003,"velocity":0.5511811023622047,"duration":1.1538465000000002},{"name":"B3","midi":59,"time":43.46155150000003,"velocity":0.5511811023622047,"duration":0.38461550000000244},{"name":"E4","midi":64,"time":43.84616700000003,"velocity":0.5511811023622047,"duration":0.38461550000000244},{"name":"D4","midi":62,"time":44.23078250000003,"velocity":0.5511811023622047,"duration":0.38461550000000244},{"name":"C#4","midi":61,"time":44.615398000000035,"velocity":0.5511811023622047,"duration":1.5384620000000027},{"name":"A3","midi":57,"time":46.53847550000004,"velocity":0.5511811023622047,"duration":0.38461550000000244},{"name":"D4","midi":62,"time":46.92309100000004,"velocity":0.5511811023622047,"duration":0.38461550000000244},{"name":"C4","midi":60,"time":47.307706500000045,"velocity":0.5511811023622047,"duration":0.38461550000000244},{"name":"B3","midi":59,"time":47.69232200000005,"velocity":0.5511811023622047,"duration":0.38461550000000244},{"name":"D4","midi":62,"time":48.07693750000005,"velocity":0.5511811023622047,"duration":0.38461550000000244},{"name":"G4","midi":67,"time":48.46155300000005,"velocity":0.5511811023622047,"duration":0.38461550000000244},{"name":"F#4","midi":66,"time":48.846168500000054,"velocity":0.5511811023622047,"duration":0.38461550000000244},{"name":"E4","midi":64,"time":49.23078400000006,"velocity":0.5511811023622047,"duration":0.38461550000000244},{"name":"D4","midi":62,"time":49.61539950000006,"velocity":0.5511811023622047,"duration":0.38461550000000244},{"name":"C#4","midi":61,"time":50.00001500000006,"velocity":0.5511811023622047,"duration":0.7692309999999978},{"name":"D4","midi":62,"time":50.76924600000006,"velocity":0.5511811023622047,"duration":0.38461550000000244},{"name":"E4","midi":64,"time":51.15386150000006,"velocity":0.5511811023622047,"duration":0.38461550000000244},{"name":"F#4","midi":66,"time":51.538477000000064,"velocity":0.5511811023622047,"duration":1.5384620000000027},{"name":"G#4","midi":68,"time":53.07693900000007,"velocity":0.5511811023622047,"duration":1.5384620000000027},{"name":"A4","midi":69,"time":54.61540100000007,"velocity":0.5511811023622047,"duration":0.38461550000000244},{"name":"E4","midi":64,"time":55.00001650000007,"velocity":0.5511811023622047,"duration":0.38461550000000244},{"name":"A4","midi":69,"time":55.384632000000074,"velocity":0.5511811023622047,"duration":0.38461550000000244},{"name":"G#4","midi":68,"time":55.76924750000008,"velocity":0.5511811023622047,"duration":0.38461550000000244},{"name":"F#4","midi":66,"time":56.15386300000008,"velocity":0.5511811023622047,"duration":0.7692309999999978},{"name":"E4","midi":64,"time":56.92309400000008,"velocity":0.5511811023622047,"duration":0.7692309999999978},{"name":"D4","midi":62,"time":57.692325000000075,"velocity":0.5511811023622047,"duration":0.38461550000000244},{"name":"C#4","midi":61,"time":58.07694050000008,"velocity":0.5511811023622047,"duration":0.38461550000000244},{"name":"B3","midi":59,"time":58.46155600000008,"velocity":0.5511811023622047,"duration":0.38461550000000244},{"name":"C#4","midi":61,"time":58.84617150000008,"velocity":0.5511811023622047,"duration":0.38461550000000244},{"name":"D4","midi":62,"time":59.230787000000085,"velocity":0.5511811023622047,"duration":1.1538465000000002},{"name":"C#4","midi":61,"time":60.384633500000085,"velocity":0.5511811023622047,"duration":0.38461550000000244},{"name":"F#4","midi":66,"time":60.76924900000009,"velocity":0.5511811023622047,"duration":0.38461550000000244},{"name":"E4","midi":64,"time":61.15386450000009,"velocity":0.5511811023622047,"duration":0.38461550000000244},{"name":"D#4","midi":63,"time":61.53848000000009,"velocity":0.5511811023622047,"duration":0.7692309999999978},{"name":"B3","midi":59,"time":63.46155750000009,"velocity":0.5511811023622047,"duration":0.38461550000000244},{"name":"E4","midi":64,"time":63.84617300000009,"velocity":0.5511811023622047,"duration":0.38461549999999534},{"name":"D4","midi":62,"time":64.23078850000009,"velocity":0.5511811023622047,"duration":0.38461549999999534},{"name":"C#4","midi":61,"time":64.61540400000008,"velocity":0.5511811023622047,"duration":0.38461549999999534},{"name":"B4","midi":71,"time":66.53848150000007,"velocity":0.5511811023622047,"duration":0.38461549999999534},{"name":"B4","midi":71,"time":66.92309700000007,"velocity":0.5511811023622047,"duration":0.38461549999999534},{"name":"B4","midi":71,"time":67.30771250000006,"velocity":0.5511811023622047,"duration":0.38461549999999534},{"name":"E4","midi":64,"time":67.69232800000006,"velocity":0.5511811023622047,"duration":0.7692310000000049},{"name":"G4","midi":67,"time":68.46155900000007,"velocity":0.5511811023622047,"duration":1.1538465000000002},{"name":"C#4","midi":61,"time":69.61540550000007,"velocity":0.5511811023622047,"duration":0.38461549999999534},{"name":"F#4","midi":66,"time":70.00002100000006,"velocity":0.5511811023622047,"duration":0.38461549999999534},{"name":"E4","midi":64,"time":70.38463650000006,"velocity":0.5511811023622047,"duration":0.38461549999999534},{"name":"D4","midi":62,"time":70.76925200000005,"velocity":0.5511811023622047,"duration":0.38461549999999534},{"name":"F#4","midi":66,"time":71.15386750000005,"velocity":0.5511811023622047,"duration":0.38461549999999534},{"name":"B4","midi":71,"time":71.53848300000004,"velocity":0.5511811023622047,"duration":0.38461549999999534},{"name":"A4","midi":69,"time":71.92309850000004,"velocity":0.5511811023622047,"duration":0.38461549999999534},{"name":"G#4","midi":68,"time":72.30771400000003,"velocity":0.5511811023622047,"duration":1.923077500000005},{"name":"C#4","midi":61,"time":74.23079150000004,"velocity":0.5511811023622047,"duration":0.38461549999999534},{"name":"F#4","midi":66,"time":74.61540700000003,"velocity":0.5511811023622047,"duration":0.38461549999999534},{"name":"E4","midi":64,"time":75.00002250000003,"velocity":0.5511811023622047,"duration":0.38461549999999534},{"name":"D4","midi":62,"time":75.38463800000002,"velocity":0.5511811023622047,"duration":1.1538465000000002},{"name":"C#4","midi":61,"time":76.53848450000002,"velocity":0.5511811023622047,"duration":0.38461549999999534},{"name":"B3","midi":59,"time":76.92310000000002,"velocity":0.5511811023622047,"duration":1.923077500000005},{"name":"A3","midi":57,"time":78.84617750000002,"velocity":0.5511811023622047,"duration":0.19230774999999767},{"name":"B3","midi":59,"time":79.03848525000002,"velocity":0.5511811023622047,"duration":0.19230774999999767},{"name":"C#4","midi":61,"time":79.23079300000002,"velocity":0.5511811023622047,"duration":0.38461549999999534},{"name":"D4","midi":62,"time":79.61540850000002,"velocity":0.5511811023622047,"duration":0.38461549999999534},{"name":"C#4","midi":61,"time":80.00002400000001,"velocity":0.5511811023622047,"duration":1.1538465000000002},{"name":"B3","midi":59,"time":81.15387050000001,"velocity":0.5511811023622047,"duration":0.38461549999999534},{"name":"A3","midi":57,"time":81.538486,"velocity":0.5511811023622047,"duration":0.38461549999999534},{"name":"A4","midi":69,"time":83.4615635,"velocity":0.5511811023622047,"duration":0.38461549999999534},{"name":"A4","midi":69,"time":83.84617899999999,"velocity":0.5511811023622047,"duration":0.38461549999999534},{"name":"A4","midi":69,"time":84.23079449999999,"velocity":0.5511811023622047,"duration":0.38461549999999534},{"name":"D4","midi":62,"time":84.61540999999998,"velocity":0.5511811023622047,"duration":0.38461549999999534},{"name":"E4","midi":64,"time":86.53848749999997,"velocity":0.5511811023622047,"duration":0.38461549999999534},{"name":"A4","midi":69,"time":86.92310299999997,"velocity":0.5511811023622047,"duration":0.38461549999999534},{"name":"G4","midi":67,"time":87.30771849999996,"velocity":0.5511811023622047,"duration":0.38461549999999534},{"name":"F#4","midi":66,"time":87.69233399999996,"velocity":0.5511811023622047,"duration":0.7692310000000049},{"name":"D4","midi":62,"time":88.84618049999996,"velocity":0.5511811023622047,"duration":0.38461549999999534},{"name":"G4","midi":67,"time":89.23079599999996,"velocity":0.5511811023622047,"duration":0.38461549999999534},{"name":"F#4","midi":66,"time":89.61541149999995,"velocity":0.5511811023622047,"duration":0.38461549999999534},{"name":"E4","midi":64,"time":90.00002699999995,"velocity":0.5511811023622047,"duration":0.7692310000000049},{"name":"E4","midi":64,"time":91.92310449999995,"velocity":0.5511811023622047,"duration":0.38461549999999534},{"name":"A4","midi":69,"time":92.30771999999995,"velocity":0.5511811023622047,"duration":0.38461549999999534},{"name":"G4","midi":67,"time":92.69233549999994,"velocity":0.5511811023622047,"duration":0.38461549999999534},{"name":"F#4","midi":66,"time":93.07695099999994,"velocity":0.5511811023622047,"duration":0.38461549999999534},{"name":"D4","midi":62,"time":93.46156649999993,"velocity":0.5511811023622047,"duration":0.38461549999999534},{"name":"G4","midi":67,"time":93.84618199999993,"velocity":0.5511811023622047,"duration":0.38461549999999534},{"name":"F#4","midi":66,"time":94.23079749999992,"velocity":0.5511811023622047,"duration":0.38461549999999534},{"name":"E4","midi":64,"time":94.61541299999992,"velocity":0.5511811023622047,"duration":0.38461549999999534},{"name":"D4","midi":62,"time":95.00002849999991,"velocity":0.5511811023622047,"duration":0.38461549999999534},{"name":"C4","midi":60,"time":95.38464399999991,"velocity":0.5511811023622047,"duration":0.7692310000000049},{"name":"B3","midi":59,"time":96.15387499999991,"velocity":0.5511811023622047,"duration":0.7692310000000049},{"name":"E4","midi":64,"time":96.92310599999992,"velocity":0.5511811023622047,"duration":0.7692310000000049},{"name":"D4","midi":62,"time":97.69233699999992,"velocity":0.5511811023622047,"duration":1.1538465000000002},{"name":"B4","midi":71,"time":99.61541449999993,"velocity":0.5511811023622047,"duration":0.38461549999999534},{"name":"B4","midi":71,"time":100.00002999999992,"velocity":0.5511811023622047,"duration":0.38461549999999534},{"name":"B4","midi":71,"time":100.38464549999992,"velocity":0.5511811023622047,"duration":0.38461549999999534},{"name":"E4","midi":64,"time":100.76926099999991,"velocity":0.5511811023622047,"duration":0.7692310000000049},{"name":"G4","midi":67,"time":101.53849199999992,"velocity":0.5511811023622047,"duration":1.1538465000000002},{"name":"C#4","midi":61,"time":102.69233849999992,"velocity":0.5511811023622047,"duration":0.38461549999999534},{"name":"F#4","midi":66,"time":103.07695399999992,"velocity":0.5511811023622047,"duration":0.38461549999999534},{"name":"E4","midi":64,"time":103.46156949999991,"velocity":0.5511811023622047,"duration":0.38461549999999534},{"name":"D4","midi":62,"time":103.8461849999999,"velocity":0.5511811023622047,"duration":1.5384619999999956},{"name":"B3","midi":59,"time":105.7692624999999,"velocity":0.5511811023622047,"duration":0.38461549999999534},{"name":"E4","midi":64,"time":106.15387799999989,"velocity":0.5511811023622047,"duration":0.38461549999999534},{"name":"D4","midi":62,"time":106.53849349999989,"velocity":0.5511811023622047,"duration":0.38461549999999534},{"name":"C#4","midi":61,"time":106.92310899999988,"velocity":0.5511811023622047,"duration":1.5384619999999956},{"name":"C#4","midi":61,"time":108.84618649999987,"velocity":0.5511811023622047,"duration":0.38461549999999534},{"name":"F#4","midi":66,"time":109.23080199999987,"velocity":0.5511811023622047,"duration":0.38461549999999534},{"name":"E4","midi":64,"time":109.61541749999986,"velocity":0.5511811023622047,"duration":0.38461549999999534},{"name":"D4","midi":62,"time":110.00003299999986,"velocity":0.5511811023622047,"duration":1.5384619999999956},{"name":"B3","midi":59,"time":111.92311049999985,"velocity":0.5511811023622047,"duration":0.38461549999999534},{"name":"E4","midi":64,"time":112.30772599999985,"velocity":0.5511811023622047,"duration":0.38461549999999534},{"name":"D4","midi":62,"time":112.69234149999984,"velocity":0.5511811023622047,"duration":0.38461549999999534},{"name":"C#4","midi":61,"time":113.07695699999984,"velocity":0.5511811023622047,"duration":1.1538465000000002},{"name":"C#4","midi":61,"time":114.23080349999984,"velocity":0.5511811023622047,"duration":0.38461549999999534},{"name":"F#4","midi":66,"time":114.61541899999983,"velocity":0.5511811023622047,"duration":0.38461549999999534},{"name":"E4","midi":64,"time":115.00003449999983,"velocity":0.5511811023622047,"duration":0.38461549999999534},{"name":"D4","midi":62,"time":115.38464999999982,"velocity":0.5511811023622047,"duration":0.38461549999999534},{"name":"F#4","midi":66,"time":115.76926549999982,"velocity":0.5511811023622047,"duration":0.38461549999999534},{"name":"B4","midi":71,"time":116.15388099999981,"velocity":0.5511811023622047,"duration":0.38461549999999534},{"name":"A4","midi":69,"time":116.53849649999981,"velocity":0.5511811023622047,"duration":0.38461549999999534},{"name":"G4","midi":67,"time":116.9231119999998,"velocity":0.5511811023622047,"duration":0.38461549999999534},{"name":"B4","midi":71,"time":117.3077274999998,"velocity":0.5511811023622047,"duration":0.38461549999999534},{"name":"E5","midi":76,"time":117.6923429999998,"velocity":0.5511811023622047,"duration":0.38461549999999534},{"name":"D5","midi":74,"time":118.07695849999979,"velocity":0.5511811023622047,"duration":0.38461549999999534},{"name":"C#5","midi":73,"time":118.46157399999979,"velocity":0.5511811023622047,"duration":1.5384619999999956},{"name":"D5","midi":74,"time":120.00003599999978,"velocity":0.5511811023622047,"duration":0.38461549999999534},{"name":"E5","midi":76,"time":120.38465149999978,"velocity":0.5511811023622047,"duration":0.38461549999999534},{"name":"F#5","midi":78,"time":120.76926699999977,"velocity":0.5511811023622047,"duration":1.1538465000000002},{"name":"B4","midi":71,"time":121.92311349999977,"velocity":0.5511811023622047,"duration":0.38461549999999534},{"name":"E5","midi":76,"time":122.30772899999977,"velocity":0.5511811023622047,"duration":0.38461549999999534},{"name":"D5","midi":74,"time":122.69234449999976,"velocity":0.5511811023622047,"duration":0.38461549999999534},{"name":"C#5","midi":73,"time":123.07695999999976,"velocity":0.5511811023622047,"duration":0.7692310000000049},{"name":"E4","midi":64,"time":124.23080649999976,"velocity":0.5511811023622047,"duration":0.38461549999999534},{"name":"A4","midi":69,"time":124.61542199999975,"velocity":0.5511811023622047,"duration":0.38461549999999534},{"name":"G4","midi":67,"time":125.00003749999975,"velocity":0.5511811023622047,"duration":0.38461549999999534},{"name":"F#4","midi":66,"time":125.38465299999974,"velocity":0.5511811023622047,"duration":0.38461549999999534},{"name":"E4","midi":64,"time":125.76926849999974,"velocity":0.5511811023622047,"duration":0.38461549999999534},{"name":"D4","midi":62,"time":126.15388399999974,"velocity":0.5511811023622047,"duration":0.7692310000000049},{"name":"C#4","midi":61,"time":126.92311499999974,"velocity":0.5511811023622047,"duration":0.38461549999999534},{"name":"D4","midi":62,"time":127.30773049999974,"velocity":0.5511811023622047,"duration":0.38461549999999534},{"name":"E4","midi":64,"time":127.69234599999973,"velocity":0.5511811023622047,"duration":0.38461549999999534},{"name":"D4","midi":62,"time":128.07696149999973,"velocity":0.5511811023622047,"duration":0.38461549999999534},{"name":"C#4","midi":61,"time":128.46157699999972,"velocity":0.5511811023622047,"duration":0.38461549999999534},{"name":"E4","midi":64,"time":128.84619249999972,"velocity":0.5511811023622047,"duration":0.7692309999999907},{"name":"D4","midi":62,"time":129.6154234999997,"velocity":0.5511811023622047,"duration":0.7692309999999907},{"name":"C#4","midi":61,"time":130.3846544999997,"velocity":0.5511811023622047,"duration":0.38461549999999534},{"name":"C4","midi":60,"time":130.7692699999997,"velocity":0.5511811023622047,"duration":0.38461549999999534},{"name":"B3","midi":59,"time":131.1538854999997,"velocity":0.5511811023622047,"duration":0.38461549999999534},{"name":"A3","midi":57,"time":131.53850099999968,"velocity":0.5511811023622047,"duration":0.38461549999999534},{"name":"C4","midi":60,"time":131.92311649999968,"velocity":0.5511811023622047,"duration":0.38461549999999534},{"name":"D4","midi":62,"time":132.30773199999967,"velocity":0.5511811023622047,"duration":0.38461549999999534},{"name":"E4","midi":64,"time":132.69234749999967,"velocity":0.5511811023622047,"duration":0.19230774999999767},{"name":"F4","midi":65,"time":132.88465524999967,"velocity":0.5511811023622047,"duration":0.19230774999999767},{"name":"E4","midi":64,"time":133.07696299999967,"velocity":0.5511811023622047,"duration":1.153846499999986},{"name":"F#5","midi":78,"time":135.00004049999964,"velocity":0.5511811023622047,"duration":0.38461549999999534},{"name":"F#5","midi":78,"time":135.38465599999964,"velocity":0.5511811023622047,"duration":0.38461549999999534},{"name":"F#5","midi":78,"time":135.76927149999963,"velocity":0.5511811023622047,"duration":0.38461549999999534},{"name":"B4","midi":71,"time":136.15388699999963,"velocity":0.5511811023622047,"duration":0.7692309999999907},{"name":"D5","midi":74,"time":136.92311799999962,"velocity":0.5511811023622047,"duration":1.153846499999986},{"name":"G#4","midi":68,"time":138.0769644999996,"velocity":0.5511811023622047,"duration":0.38461549999999534},{"name":"C#5","midi":73,"time":138.4615799999996,"velocity":0.5511811023622047,"duration":0.38461549999999534},{"name":"B4","midi":71,"time":138.8461954999996,"velocity":0.5511811023622047,"duration":0.38461549999999534},{"name":"A4","midi":69,"time":139.2308109999996,"velocity":0.5511811023622047,"duration":1.153846499999986},{"name":"G4","midi":67,"time":140.38465749999958,"velocity":0.5511811023622047,"duration":0.38461549999999534},{"name":"F#4","midi":66,"time":140.76927299999957,"velocity":0.5511811023622047,"duration":0.38461549999999534},{"name":"E4","midi":64,"time":141.15388849999957,"velocity":0.5511811023622047,"duration":0.38461549999999534},{"name":"F#4","midi":66,"time":141.53850399999956,"velocity":0.5511811023622047,"duration":1.5384620000000098},{"name":"D4","midi":62,"time":143.46158149999957,"velocity":0.5511811023622047,"duration":0.38461549999999534},{"name":"G4","midi":67,"time":143.84619699999956,"velocity":0.5511811023622047,"duration":0.38461549999999534},{"name":"F#4","midi":66,"time":144.23081249999956,"velocity":0.5511811023622047,"duration":0.38461549999999534},{"name":"E4","midi":64,"time":144.61542799999955,"velocity":0.5511811023622047,"duration":0.38461549999999534},{"name":"D4","midi":62,"time":145.00004349999955,"velocity":0.5511811023622047,"duration":0.38461549999999534},{"name":"C#4","midi":61,"time":145.38465899999954,"velocity":0.5511811023622047,"duration":0.7692309999999907},{"name":"A3","midi":57,"time":146.53850549999953,"velocity":0.5511811023622047,"duration":0.38461549999999534},{"name":"D4","midi":62,"time":146.92312099999953,"velocity":0.5511811023622047,"duration":0.38461549999999534},{"name":"C4","midi":60,"time":147.30773649999952,"velocity":0.5511811023622047,"duration":0.38461549999999534},{"name":"B3","midi":59,"time":147.69235199999952,"velocity":0.5511811023622047,"duration":1.153846499999986},{"name":"B3","midi":59,"time":148.8461984999995,"velocity":0.5511811023622047,"duration":0.38461549999999534},{"name":"E4","midi":64,"time":149.2308139999995,"velocity":0.5511811023622047,"duration":0.38461549999999534},{"name":"D4","midi":62,"time":149.6154294999995,"velocity":0.5511811023622047,"duration":0.38461549999999534},{"name":"C#4","midi":61,"time":150.0000449999995,"velocity":0.5511811023622047,"duration":0.38461549999999534},{"name":"E4","midi":64,"time":150.38466049999948,"velocity":0.5511811023622047,"duration":0.7692309999999907},{"name":"D4","midi":62,"time":151.15389149999947,"velocity":0.5511811023622047,"duration":0.7692309999999907},{"name":"C#4","midi":61,"time":151.92312249999947,"velocity":0.5511811023622047,"duration":0.38461549999999534},{"name":"A3","midi":57,"time":152.30773799999946,"velocity":0.5511811023622047,"duration":1.5384620000000098}],"controlChanges":{"7":[{"number":7,"time":0,"value":0.7874015748031497}],"10":[{"number":10,"time":0,"value":0.3779527559055118}]},"id":2,"name":"Sequenced","instrumentNumber":6,"instrument":"harpsichord","instrumentFamily":"piano","channelNumber":0,"isPercussion":false},{"startTime":0.3846155,"duration":153.84619999999967,"length":219,"notes":[{"name":"D4","midi":62,"time":0.3846155,"velocity":0.5511811023622047,"duration":0.3846155},{"name":"D4","midi":62,"time":0.769231,"velocity":0.5511811023622047,"duration":0.3846155},{"name":"D4","midi":62,"time":1.1538465,"velocity":0.5511811023622047,"duration":0.3846155},{"name":"G3","midi":55,"time":1.538462,"velocity":0.5511811023622047,"duration":0.769231},{"name":"B3","midi":59,"time":2.307693,"velocity":0.5511811023622047,"duration":1.1538464999999998},{"name":"E3","midi":52,"time":3.4615394999999998,"velocity":0.5511811023622047,"duration":0.3846154999999998},{"name":"A3","midi":57,"time":3.8461549999999995,"velocity":0.5511811023622047,"duration":0.3846154999999998},{"name":"G3","midi":55,"time":4.230770499999999,"velocity":0.5511811023622047,"duration":0.3846154999999998},{"name":"F#3","midi":54,"time":4.615385999999999,"velocity":0.5511811023622047,"duration":0.7692309999999996},{"name":"D3","midi":50,"time":5.384616999999999,"velocity":0.5511811023622047,"duration":0.7692309999999996},{"name":"F#3","midi":54,"time":6.538463499999998,"velocity":0.5511811023622047,"duration":0.3846154999999998},{"name":"B3","midi":59,"time":6.923078999999998,"velocity":0.5511811023622047,"duration":0.3846154999999998},{"name":"A3","midi":57,"time":7.3076944999999975,"velocity":0.5511811023622047,"duration":0.3846154999999998},{"name":"G#3","midi":56,"time":7.692309999999997,"velocity":0.5511811023622047,"duration":1.5384620000000009},{"name":"A3","midi":57,"time":9.230771999999998,"velocity":0.5511811023622047,"duration":0.7692309999999996},{"name":"C#4","midi":61,"time":10.000002999999998,"velocity":0.5511811023622047,"duration":0.7692309999999996},{"name":"A3","midi":57,"time":11.153849499999998,"velocity":0.5511811023622047,"duration":0.38461550000000067},{"name":"D4","midi":62,"time":11.538464999999999,"velocity":0.5511811023622047,"duration":0.38461550000000067},{"name":"C#4","midi":61,"time":11.9230805,"velocity":0.5511811023622047,"duration":0.38461550000000067},{"name":"B3","midi":59,"time":12.307696,"velocity":0.5511811023622047,"duration":1.538461999999999},{"name":"B3","midi":59,"time":14.2307735,"velocity":0.5511811023622047,"duration":0.38461550000000067},{"name":"E4","midi":64,"time":14.615389,"velocity":0.5511811023622047,"duration":0.38461550000000067},{"name":"D4","midi":62,"time":15.000004500000001,"velocity":0.5511811023622047,"duration":0.38461550000000067},{"name":"C#4","midi":61,"time":15.384620000000002,"velocity":0.5511811023622047,"duration":1.538461999999999},{"name":"A3","midi":57,"time":17.3076975,"velocity":0.5511811023622047,"duration":0.3846154999999989},{"name":"D4","midi":62,"time":17.692313,"velocity":0.5511811023622047,"duration":0.3846154999999989},{"name":"C#4","midi":61,"time":18.076928499999998,"velocity":0.5511811023622047,"duration":0.3846154999999989},{"name":"B3","midi":59,"time":18.461543999999996,"velocity":0.5511811023622047,"duration":1.538461999999999},{"name":"E3","midi":52,"time":20.384621499999994,"velocity":0.5511811023622047,"duration":0.3846154999999989},{"name":"A3","midi":57,"time":20.769236999999993,"velocity":0.5511811023622047,"duration":0.3846154999999989},{"name":"G3","midi":55,"time":21.153852499999992,"velocity":0.5511811023622047,"duration":0.3846154999999989},{"name":"F#3","midi":54,"time":21.53846799999999,"velocity":0.5511811023622047,"duration":0.3846154999999989},{"name":"E3","midi":52,"time":21.92308349999999,"velocity":0.5511811023622047,"duration":0.3846154999999989},{"name":"D3","midi":50,"time":22.30769899999999,"velocity":0.5511811023622047,"duration":0.7692310000000013},{"name":"D3","midi":50,"time":23.46154549999999,"velocity":0.5511811023622047,"duration":0.3846154999999989},{"name":"G3","midi":55,"time":23.846160999999988,"velocity":0.5511811023622047,"duration":0.3846154999999989},{"name":"F#3","midi":54,"time":24.230776499999987,"velocity":0.5511811023622047,"duration":0.3846154999999989},{"name":"E3","midi":52,"time":24.615391999999986,"velocity":0.5511811023622047,"duration":0.7692310000000013},{"name":"D3","midi":50,"time":25.384622999999987,"velocity":0.5511811023622047,"duration":0.3846154999999989},{"name":"C#3","midi":49,"time":25.769238499999986,"velocity":0.5511811023622047,"duration":0.3846154999999989},{"name":"B2","midi":47,"time":26.153853999999985,"velocity":0.5511811023622047,"duration":1.538461999999999},{"name":"E3","midi":52,"time":27.692315999999984,"velocity":0.5511811023622047,"duration":1.9230775000000015},{"name":"G3","midi":55,"time":29.615393499999985,"velocity":0.5511811023622047,"duration":0.3846154999999989},{"name":"F#3","midi":54,"time":30.000008999999984,"velocity":0.5511811023622047,"duration":0.3846154999999989},{"name":"E3","midi":52,"time":30.384624499999983,"velocity":0.5511811023622047,"duration":0.3846154999999989},{"name":"D#3","midi":51,"time":30.769239999999982,"velocity":0.5511811023622047,"duration":1.5384620000000027},{"name":"E3","midi":52,"time":32.307701999999985,"velocity":0.5511811023622047,"duration":0.38461550000000244},{"name":"D3","midi":50,"time":32.69231749999999,"velocity":0.5511811023622047,"duration":0.38461550000000244},{"name":"G3","midi":55,"time":33.07693299999999,"velocity":0.5511811023622047,"duration":1.5384620000000027},{"name":"C#3","midi":49,"time":34.61539499999999,"velocity":0.5511811023622047,"duration":0.38461550000000244},{"name":"D3","midi":50,"time":35.000010499999995,"velocity":0.5511811023622047,"duration":0.38461550000000244},{"name":"E3","midi":52,"time":35.384626,"velocity":0.5511811023622047,"duration":0.38461550000000244},{"name":"G3","midi":55,"time":35.7692415,"velocity":0.5511811023622047,"duration":0.38461550000000244},{"name":"F#3","midi":54,"time":36.153857,"velocity":0.5511811023622047,"duration":1.1538465000000002},{"name":"A3","midi":57,"time":37.3077035,"velocity":0.5511811023622047,"duration":0.38461550000000244},{"name":"G#3","midi":56,"time":37.692319000000005,"velocity":0.5511811023622047,"duration":0.38461550000000244},{"name":"F#3","midi":54,"time":38.07693450000001,"velocity":0.5511811023622047,"duration":0.38461550000000244},{"name":"E3","midi":52,"time":38.46155000000001,"velocity":0.5511811023622047,"duration":1.923077499999998},{"name":"E3","midi":52,"time":40.38462750000001,"velocity":0.5511811023622047,"duration":0.38461550000000244},{"name":"A3","midi":57,"time":40.76924300000001,"velocity":0.5511811023622047,"duration":0.38461550000000244},{"name":"G3","midi":55,"time":41.15385850000001,"velocity":0.5511811023622047,"duration":0.38461550000000244},{"name":"F#3","midi":54,"time":41.538474000000015,"velocity":0.5511811023622047,"duration":0.38461550000000244},{"name":"E3","midi":52,"time":41.92308950000002,"velocity":0.5511811023622047,"duration":0.38461550000000244},{"name":"D3","midi":50,"time":42.30770500000002,"velocity":0.5511811023622047,"duration":0.7692309999999978},{"name":"E3","midi":52,"time":43.07693600000002,"velocity":0.5511811023622047,"duration":0.38461550000000244},{"name":"F#3","midi":54,"time":43.46155150000002,"velocity":0.5511811023622047,"duration":0.38461550000000244},{"name":"G3","midi":55,"time":43.84616700000002,"velocity":0.5511811023622047,"duration":1.1538465000000002},{"name":"G3","midi":55,"time":45.00001350000002,"velocity":0.5511811023622047,"duration":0.38461550000000244},{"name":"F#3","midi":54,"time":45.384629000000025,"velocity":0.5511811023622047,"duration":0.38461550000000244},{"name":"E3","midi":52,"time":45.76924450000003,"velocity":0.5511811023622047,"duration":0.38461550000000244},{"name":"D3","midi":50,"time":46.15386000000003,"velocity":0.5511811023622047,"duration":0.7692309999999978},{"name":"E3","midi":52,"time":49.61539950000003,"velocity":0.5511811023622047,"duration":0.38461550000000244},{"name":"A3","midi":57,"time":50.00001500000003,"velocity":0.5511811023622047,"duration":0.38461550000000244},{"name":"G3","midi":55,"time":50.384630500000036,"velocity":0.5511811023622047,"duration":0.38461550000000244},{"name":"F#3","midi":54,"time":50.76924600000004,"velocity":0.5511811023622047,"duration":0.38461550000000244},{"name":"A3","midi":57,"time":51.15386150000004,"velocity":0.5511811023622047,"duration":0.38461550000000244},{"name":"D4","midi":62,"time":51.53847700000004,"velocity":0.5511811023622047,"duration":0.38461550000000244},{"name":"C#4","midi":61,"time":51.923092500000045,"velocity":0.5511811023622047,"duration":0.38461550000000244},{"name":"B3","midi":59,"time":52.30770800000005,"velocity":0.5511811023622047,"duration":0.7692309999999978},{"name":"B3","midi":59,"time":54.230785500000046,"velocity":0.5511811023622047,"duration":0.38461550000000244},{"name":"C#4","midi":61,"time":54.61540100000005,"velocity":0.5511811023622047,"duration":1.1538465000000002},{"name":"A3","midi":57,"time":55.76924750000005,"velocity":0.5511811023622047,"duration":0.38461550000000244},{"name":"D4","midi":62,"time":56.15386300000005,"velocity":0.5511811023622047,"duration":0.38461550000000244},{"name":"C#4","midi":61,"time":56.53847850000005,"velocity":0.5511811023622047,"duration":0.38461550000000244},{"name":"B3","midi":59,"time":56.923094000000056,"velocity":0.5511811023622047,"duration":0.7692309999999978},{"name":"A3","midi":57,"time":57.692325000000054,"velocity":0.5511811023622047,"duration":0.38461550000000244},{"name":"G#3","midi":56,"time":58.076940500000056,"velocity":0.5511811023622047,"duration":0.38461550000000244},{"name":"F#3","midi":54,"time":58.46155600000006,"velocity":0.5511811023622047,"duration":0.7692309999999978},{"name":"E3","midi":52,"time":59.230787000000056,"velocity":0.5511811023622047,"duration":1.5384620000000027},{"name":"B3","midi":59,"time":61.92309550000006,"velocity":0.5511811023622047,"duration":0.38461550000000244},{"name":"B3","midi":59,"time":62.30771100000006,"velocity":0.5511811023622047,"duration":0.38461550000000244},{"name":"B3","midi":59,"time":62.692326500000064,"velocity":0.5511811023622047,"duration":0.38461550000000244},{"name":"E3","midi":52,"time":63.07694200000007,"velocity":0.5511811023622047,"duration":0.7692309999999978},{"name":"G3","midi":55,"time":63.846173000000064,"velocity":0.5511811023622047,"duration":1.1538465000000002},{"name":"C#3","midi":49,"time":65.00001950000006,"velocity":0.5511811023622047,"duration":0.38461549999999534},{"name":"F#3","midi":54,"time":65.38463500000006,"velocity":0.5511811023622047,"duration":0.38461549999999534},{"name":"E3","midi":52,"time":65.76925050000006,"velocity":0.5511811023622047,"duration":0.38461549999999534},{"name":"D#3","midi":51,"time":66.15386600000005,"velocity":0.5511811023622047,"duration":0.38461549999999534},{"name":"F3","midi":53,"time":66.53848150000005,"velocity":0.5511811023622047,"duration":0.19230774999999767},{"name":"F#3","midi":54,"time":66.73078925000004,"velocity":0.5511811023622047,"duration":0.19230774999999767},{"name":"F3","midi":53,"time":66.92309700000004,"velocity":0.5511811023622047,"duration":0.7692310000000049},{"name":"B3","midi":59,"time":68.07694350000004,"velocity":0.5511811023622047,"duration":0.38461549999999534},{"name":"A#3","midi":58,"time":68.46155900000004,"velocity":0.5511811023622047,"duration":0.38461549999999534},{"name":"C#4","midi":61,"time":68.84617450000003,"velocity":0.5511811023622047,"duration":0.7692310000000049},{"name":"E4","midi":64,"time":69.61540550000004,"velocity":0.5511811023622047,"duration":0.38461549999999534},{"name":"D4","midi":62,"time":70.00002100000003,"velocity":0.5511811023622047,"duration":0.38461549999999534},{"name":"C#4","midi":61,"time":70.38463650000003,"velocity":0.5511811023622047,"duration":0.38461549999999534},{"name":"B3","midi":59,"time":70.76925200000002,"velocity":0.5511811023622047,"duration":1.923077500000005},{"name":"G#3","midi":56,"time":72.69232950000003,"velocity":0.5511811023622047,"duration":0.38461549999999534},{"name":"C#4","midi":61,"time":73.07694500000002,"velocity":0.5511811023622047,"duration":0.38461549999999534},{"name":"B3","midi":59,"time":73.46156050000002,"velocity":0.5511811023622047,"duration":0.38461549999999534},{"name":"A3","midi":57,"time":73.84617600000001,"velocity":0.5511811023622047,"duration":1.923077500000005},{"name":"F#3","midi":54,"time":75.76925350000002,"velocity":0.5511811023622047,"duration":0.38461549999999534},{"name":"B3","midi":59,"time":76.15386900000001,"velocity":0.5511811023622047,"duration":0.38461549999999534},{"name":"A3","midi":57,"time":76.53848450000001,"velocity":0.5511811023622047,"duration":0.38461549999999534},{"name":"G#3","midi":56,"time":76.9231,"velocity":0.5511811023622047,"duration":1.923077500000005},{"name":"F#3","midi":54,"time":78.84617750000001,"velocity":0.5511811023622047,"duration":0.19230774999999767},{"name":"G#3","midi":56,"time":79.03848525000001,"velocity":0.5511811023622047,"duration":0.19230774999999767},{"name":"A3","midi":57,"time":79.230793,"velocity":0.5511811023622047,"duration":0.7692310000000049},{"name":"G#3","midi":56,"time":80.00002400000001,"velocity":0.5511811023622047,"duration":0.38461549999999534},{"name":"F#3","midi":54,"time":80.3846395,"velocity":0.5511811023622047,"duration":0.38461549999999534},{"name":"G#3","midi":56,"time":80.769255,"velocity":0.5511811023622047,"duration":0.7692310000000049},{"name":"F#3","midi":54,"time":81.538486,"velocity":0.5511811023622047,"duration":0.38461549999999534},{"name":"D3","midi":50,"time":85.0000255,"velocity":0.5511811023622047,"duration":0.38461549999999534},{"name":"G3","midi":55,"time":85.384641,"velocity":0.5511811023622047,"duration":0.38461549999999534},{"name":"F#3","midi":54,"time":85.7692565,"velocity":0.5511811023622047,"duration":0.38461549999999534},{"name":"E3","midi":52,"time":86.15387199999999,"velocity":0.5511811023622047,"duration":0.7692310000000049},{"name":"A3","midi":57,"time":87.3077185,"velocity":0.5511811023622047,"duration":0.38461549999999534},{"name":"D4","midi":62,"time":87.69233399999999,"velocity":0.5511811023622047,"duration":0.38461549999999534},{"name":"C4","midi":60,"time":88.07694949999998,"velocity":0.5511811023622047,"duration":0.38461549999999534},{"name":"B3","midi":59,"time":88.46156499999998,"velocity":0.5511811023622047,"duration":1.1538465000000002},{"name":"A3","midi":57,"time":89.61541149999998,"velocity":0.5511811023622047,"duration":0.38461549999999534},{"name":"G3","midi":55,"time":90.00002699999997,"velocity":0.5511811023622047,"duration":0.7692310000000049},{"name":"E3","midi":52,"time":91.15387349999997,"velocity":0.5511811023622047,"duration":0.38461549999999534},{"name":"A3","midi":57,"time":91.53848899999997,"velocity":0.5511811023622047,"duration":0.38461549999999534},{"name":"G3","midi":55,"time":91.92310449999997,"velocity":0.5511811023622047,"duration":0.38461549999999534},{"name":"F#3","midi":54,"time":92.30771999999996,"velocity":0.5511811023622047,"duration":0.38461549999999534},{"name":"E3","midi":52,"time":92.69233549999996,"velocity":0.5511811023622047,"duration":0.38461549999999534},{"name":"D3","midi":50,"time":93.07695099999995,"velocity":0.5511811023622047,"duration":0.38461549999999534},{"name":"F#3","midi":54,"time":93.46156649999995,"velocity":0.5511811023622047,"duration":0.38461549999999534},{"name":"B3","midi":59,"time":93.84618199999994,"velocity":0.5511811023622047,"duration":0.38461549999999534},{"name":"A3","midi":57,"time":94.23079749999994,"velocity":0.5511811023622047,"duration":0.38461549999999534},{"name":"G3","midi":55,"time":94.61541299999993,"velocity":0.5511811023622047,"duration":1.1538465000000002},{"name":"A3","midi":57,"time":95.76925949999993,"velocity":0.5511811023622047,"duration":0.38461549999999534},{"name":"B3","midi":59,"time":96.15387499999993,"velocity":0.5511811023622047,"duration":0.38461549999999534},{"name":"E4","midi":64,"time":96.53849049999992,"velocity":0.5511811023622047,"duration":0.38461549999999534},{"name":"A3","midi":57,"time":96.92310599999992,"velocity":0.5511811023622047,"duration":1.5384619999999956},{"name":"G3","midi":55,"time":98.46156799999991,"velocity":0.5511811023622047,"duration":0.38461549999999534},{"name":"D4","midi":62,"time":98.84618349999991,"velocity":0.5511811023622047,"duration":0.38461549999999534},{"name":"D4","midi":62,"time":99.2307989999999,"velocity":0.5511811023622047,"duration":0.38461549999999534},{"name":"D4","midi":62,"time":99.6154144999999,"velocity":0.5511811023622047,"duration":0.38461549999999534},{"name":"G3","midi":55,"time":100.0000299999999,"velocity":0.5511811023622047,"duration":0.7692310000000049},{"name":"B3","midi":59,"time":100.7692609999999,"velocity":0.5511811023622047,"duration":1.1538465000000002},{"name":"E3","midi":52,"time":101.9231074999999,"velocity":0.5511811023622047,"duration":0.38461549999999534},{"name":"A3","midi":57,"time":102.3077229999999,"velocity":0.5511811023622047,"duration":0.38461549999999534},{"name":"G3","midi":55,"time":102.69233849999989,"velocity":0.5511811023622047,"duration":0.38461549999999534},{"name":"F#3","midi":54,"time":103.07695399999989,"velocity":0.5511811023622047,"duration":1.923077500000005},{"name":"B2","midi":47,"time":105.00003149999989,"velocity":0.5511811023622047,"duration":0.38461549999999534},{"name":"E3","midi":52,"time":105.38464699999989,"velocity":0.5511811023622047,"duration":0.38461549999999534},{"name":"D3","midi":50,"time":105.76926249999988,"velocity":0.5511811023622047,"duration":0.38461549999999534},{"name":"C#3","midi":49,"time":106.15387799999988,"velocity":0.5511811023622047,"duration":0.38461549999999534},{"name":"D3","midi":50,"time":106.53849349999987,"velocity":0.5511811023622047,"duration":0.38461549999999534},{"name":"E3","midi":52,"time":106.92310899999987,"velocity":0.5511811023622047,"duration":1.1538465000000002},{"name":"C#3","midi":49,"time":108.07695549999987,"velocity":0.5511811023622047,"duration":0.38461549999999534},{"name":"F#3","midi":54,"time":108.46157099999986,"velocity":0.5511811023622047,"duration":0.38461549999999534},{"name":"E3","midi":52,"time":108.84618649999986,"velocity":0.5511811023622047,"duration":0.38461549999999534},{"name":"D3","midi":50,"time":109.23080199999985,"velocity":0.5511811023622047,"duration":0.38461549999999534},{"name":"F#3","midi":54,"time":110.38464849999986,"velocity":0.5511811023622047,"duration":0.38461549999999534},{"name":"B3","midi":59,"time":110.76926399999985,"velocity":0.5511811023622047,"duration":0.38461549999999534},{"name":"A3","midi":57,"time":111.15387949999985,"velocity":0.5511811023622047,"duration":0.38461549999999534},{"name":"G3","midi":55,"time":111.53849499999984,"velocity":0.5511811023622047,"duration":0.7692310000000049},{"name":"D4","midi":62,"time":120.38465149999985,"velocity":0.5511811023622047,"duration":0.38461549999999534},{"name":"D4","midi":62,"time":120.76926699999984,"velocity":0.5511811023622047,"duration":0.38461549999999534},{"name":"D4","midi":62,"time":121.15388249999984,"velocity":0.5511811023622047,"duration":0.38461549999999534},{"name":"G3","midi":55,"time":121.53849799999983,"velocity":0.5511811023622047,"duration":0.7692310000000049},{"name":"B3","midi":59,"time":122.30772899999984,"velocity":0.5511811023622047,"duration":1.1538465000000002},{"name":"E3","midi":52,"time":123.46157549999984,"velocity":0.5511811023622047,"duration":0.38461549999999534},{"name":"A3","midi":57,"time":123.84619099999983,"velocity":0.5511811023622047,"duration":0.38461549999999534},{"name":"G3","midi":55,"time":124.23080649999983,"velocity":0.5511811023622047,"duration":0.38461549999999534},{"name":"F#3","midi":54,"time":124.61542199999982,"velocity":0.5511811023622047,"duration":0.38461549999999534},{"name":"G3","midi":55,"time":125.00003749999982,"velocity":0.5511811023622047,"duration":0.38461549999999534},{"name":"A3","midi":57,"time":125.38465299999982,"velocity":0.5511811023622047,"duration":1.1538465000000002},{"name":"D3","midi":50,"time":126.53849949999982,"velocity":0.5511811023622047,"duration":0.38461549999999534},{"name":"G3","midi":55,"time":126.92311499999981,"velocity":0.5511811023622047,"duration":0.38461549999999534},{"name":"F#3","midi":54,"time":127.3077304999998,"velocity":0.5511811023622047,"duration":0.38461549999999534},{"name":"E3","midi":52,"time":127.6923459999998,"velocity":0.5511811023622047,"duration":0.7692310000000049},{"name":"B3","midi":59,"time":132.6923474999998,"velocity":0.5511811023622047,"duration":0.38461549999999534},{"name":"B3","midi":59,"time":133.0769629999998,"velocity":0.5511811023622047,"duration":0.38461549999999534},{"name":"B3","midi":59,"time":133.4615784999998,"velocity":0.5511811023622047,"duration":0.38461549999999534},{"name":"E3","midi":52,"time":133.8461939999998,"velocity":0.5511811023622047,"duration":0.38461549999999534},{"name":"D4","midi":62,"time":135.7692714999998,"velocity":0.5511811023622047,"duration":0.38461549999999534},{"name":"D4","midi":62,"time":136.1538869999998,"velocity":0.5511811023622047,"duration":0.38461549999999534},{"name":"D4","midi":62,"time":136.5385024999998,"velocity":0.5511811023622047,"duration":0.38461549999999534},{"name":"G#3","midi":56,"time":136.9231179999998,"velocity":0.5511811023622047,"duration":0.7692309999999907},{"name":"B3","midi":59,"time":137.69234899999978,"velocity":0.5511811023622047,"duration":1.153846499999986},{"name":"E3","midi":52,"time":138.84619549999977,"velocity":0.5511811023622047,"duration":0.38461549999999534},{"name":"A3","midi":57,"time":139.23081099999976,"velocity":0.5511811023622047,"duration":0.38461549999999534},{"name":"G3","midi":55,"time":139.61542649999976,"velocity":0.5511811023622047,"duration":0.38461549999999534},{"name":"F#3","midi":54,"time":140.00004199999975,"velocity":0.5511811023622047,"duration":1.153846499999986},{"name":"A3","midi":57,"time":141.15388849999974,"velocity":0.5511811023622047,"duration":0.38461549999999534},{"name":"D4","midi":62,"time":141.53850399999973,"velocity":0.5511811023622047,"duration":0.38461549999999534},{"name":"C4","midi":60,"time":141.92311949999973,"velocity":0.5511811023622047,"duration":0.38461549999999534},{"name":"B3","midi":59,"time":142.30773499999972,"velocity":0.5511811023622047,"duration":0.38461549999999534},{"name":"A3","midi":57,"time":142.69235049999972,"velocity":0.5511811023622047,"duration":0.38461549999999534},{"name":"G3","midi":55,"time":143.07696599999971,"velocity":0.5511811023622047,"duration":1.923077500000005},{"name":"E3","midi":52,"time":145.00004349999972,"velocity":0.5511811023622047,"duration":0.38461549999999534},{"name":"A3","midi":57,"time":145.38465899999971,"velocity":0.5511811023622047,"duration":0.38461549999999534},{"name":"G3","midi":55,"time":145.7692744999997,"velocity":0.5511811023622047,"duration":0.38461549999999534},{"name":"F#3","midi":54,"time":146.1538899999997,"velocity":0.5511811023622047,"duration":1.923077500000005},{"name":"B2","midi":47,"time":148.0769674999997,"velocity":0.5511811023622047,"duration":0.38461549999999534},{"name":"E3","midi":52,"time":148.4615829999997,"velocity":0.5511811023622047,"duration":0.38461549999999534},{"name":"D3","midi":50,"time":148.8461984999997,"velocity":0.5511811023622047,"duration":0.38461549999999534},{"name":"C#3","midi":49,"time":149.2308139999997,"velocity":0.5511811023622047,"duration":0.38461549999999534},{"name":"D3","midi":50,"time":149.6154294999997,"velocity":0.5511811023622047,"duration":0.38461549999999534},{"name":"E3","midi":52,"time":150.0000449999997,"velocity":0.5511811023622047,"duration":0.7692309999999907},{"name":"D3","midi":50,"time":151.15389149999967,"velocity":0.5511811023622047,"duration":0.38461549999999534},{"name":"A3","midi":57,"time":151.53850699999967,"velocity":0.5511811023622047,"duration":0.38461549999999534},{"name":"G3","midi":55,"time":151.92312249999966,"velocity":0.5511811023622047,"duration":0.38461549999999534},{"name":"F#3","midi":54,"time":152.30773799999966,"velocity":0.5511811023622047,"duration":1.5384620000000098}],"controlChanges":{"7":[{"number":7,"time":0,"value":0.7874015748031497}],"10":[{"number":10,"time":0,"value":0.6220472440944882}]},"id":3,"name":"by","instrumentNumber":6,"instrument":"harpsichord","instrumentFamily":"piano","channelNumber":0,"isPercussion":false},{"startTime":15.7692355,"duration":153.84619999999944,"length":210,"notes":[{"name":"A3","midi":57,"time":15.7692355,"velocity":0.5511811023622047,"duration":0.3846154999999989},{"name":"A3","midi":57,"time":16.153851,"velocity":0.5511811023622047,"duration":0.3846154999999989},{"name":"A3","midi":57,"time":16.5384665,"velocity":0.5511811023622047,"duration":0.3846154999999989},{"name":"D3","midi":50,"time":16.923081999999997,"velocity":0.5511811023622047,"duration":0.7692310000000013},{"name":"F#3","midi":54,"time":17.692313,"velocity":0.5511811023622047,"duration":1.1538465000000002},{"name":"B2","midi":47,"time":18.8461595,"velocity":0.5511811023622047,"duration":0.3846154999999989},{"name":"E3","midi":52,"time":19.230774999999998,"velocity":0.5511811023622047,"duration":0.3846154999999989},{"name":"D3","midi":50,"time":19.615390499999997,"velocity":0.5511811023622047,"duration":0.3846154999999989},{"name":"C#3","midi":49,"time":20.000005999999996,"velocity":0.5511811023622047,"duration":0.3846154999999989},{"name":"B2","midi":47,"time":20.384621499999994,"velocity":0.5511811023622047,"duration":0.3846154999999989},{"name":"A2","midi":45,"time":20.769236999999993,"velocity":0.5511811023622047,"duration":0.7692310000000013},{"name":"A2","midi":45,"time":21.923083499999994,"velocity":0.5511811023622047,"duration":0.3846154999999989},{"name":"D3","midi":50,"time":22.307698999999992,"velocity":0.5511811023622047,"duration":0.3846154999999989},{"name":"C#3","midi":49,"time":22.69231449999999,"velocity":0.5511811023622047,"duration":0.3846154999999989},{"name":"B2","midi":47,"time":23.07692999999999,"velocity":0.5511811023622047,"duration":0.3846154999999989},{"name":"A2","midi":45,"time":23.46154549999999,"velocity":0.5511811023622047,"duration":0.3846154999999989},{"name":"G2","midi":43,"time":23.846160999999988,"velocity":0.5511811023622047,"duration":1.1538465000000002},{"name":"F#2","midi":42,"time":25.000007499999988,"velocity":0.5511811023622047,"duration":0.3846154999999989},{"name":"B2","midi":47,"time":25.384622999999987,"velocity":0.5511811023622047,"duration":0.3846154999999989},{"name":"A2","midi":45,"time":25.769238499999986,"velocity":0.5511811023622047,"duration":0.3846154999999989},{"name":"G#2","midi":44,"time":26.153853999999985,"velocity":0.5511811023622047,"duration":1.538461999999999},{"name":"A2","midi":45,"time":27.692315999999984,"velocity":0.5511811023622047,"duration":0.7692310000000013},{"name":"G2","midi":43,"time":28.461546999999985,"velocity":0.5511811023622047,"duration":0.7692310000000013},{"name":"F#2","midi":42,"time":29.230777999999987,"velocity":0.5511811023622047,"duration":1.538461999999999},{"name":"B2","midi":47,"time":30.769239999999986,"velocity":0.5511811023622047,"duration":5.384617000000002},{"name":"A#2","midi":46,"time":36.15385699999999,"velocity":0.5511811023622047,"duration":0.7692309999999978},{"name":"B2","midi":47,"time":36.923087999999986,"velocity":0.5511811023622047,"duration":0.7692309999999978},{"name":"D3","midi":50,"time":38.846165499999984,"velocity":0.5511811023622047,"duration":0.38461550000000244},{"name":"C#3","midi":49,"time":39.230780999999986,"velocity":0.5511811023622047,"duration":0.38461550000000244},{"name":"B2","midi":47,"time":39.61539649999999,"velocity":0.5511811023622047,"duration":0.38461550000000244},{"name":"A2","midi":45,"time":40.00001199999999,"velocity":0.5511811023622047,"duration":0.7692309999999978},{"name":"A2","midi":45,"time":41.15385849999999,"velocity":0.5511811023622047,"duration":0.38461550000000244},{"name":"B2","midi":47,"time":41.538473999999994,"velocity":0.5511811023622047,"duration":0.7692309999999978},{"name":"B2","midi":47,"time":42.692320499999994,"velocity":0.5511811023622047,"duration":0.38461550000000244},{"name":"E2","midi":40,"time":43.076935999999996,"velocity":0.5511811023622047,"duration":0.7692309999999978},{"name":"E3","midi":52,"time":44.2307825,"velocity":0.5511811023622047,"duration":0.38461550000000244},{"name":"A2","midi":45,"time":44.615398,"velocity":0.5511811023622047,"duration":0.7692309999999978},{"name":"A2","midi":45,"time":45.7692445,"velocity":0.5511811023622047,"duration":0.38461550000000244},{"name":"D2","midi":38,"time":46.15386,"velocity":0.5511811023622047,"duration":0.7692309999999978},{"name":"B2","midi":47,"time":52.6923235,"velocity":0.5511811023622047,"duration":0.38461550000000244},{"name":"E3","midi":52,"time":53.076939,"velocity":0.5511811023622047,"duration":0.38461550000000244},{"name":"D3","midi":50,"time":53.461554500000005,"velocity":0.5511811023622047,"duration":0.38461550000000244},{"name":"C#3","midi":49,"time":53.84617000000001,"velocity":0.5511811023622047,"duration":0.38461550000000244},{"name":"E3","midi":52,"time":54.23078550000001,"velocity":0.5511811023622047,"duration":0.38461550000000244},{"name":"A3","midi":57,"time":54.61540100000001,"velocity":0.5511811023622047,"duration":0.38461550000000244},{"name":"G#3","midi":56,"time":55.000016500000015,"velocity":0.5511811023622047,"duration":0.38461550000000244},{"name":"F#3","midi":54,"time":55.38463200000002,"velocity":0.5511811023622047,"duration":0.38461550000000244},{"name":"E3","midi":52,"time":55.76924750000002,"velocity":0.5511811023622047,"duration":0.38461550000000244},{"name":"D3","midi":50,"time":56.15386300000002,"velocity":0.5511811023622047,"duration":1.1538465000000002},{"name":"C#3","midi":49,"time":57.30770950000002,"velocity":0.5511811023622047,"duration":0.38461550000000244},{"name":"F#3","midi":54,"time":57.692325000000025,"velocity":0.5511811023622047,"duration":0.38461550000000244},{"name":"E3","midi":52,"time":58.07694050000003,"velocity":0.5511811023622047,"duration":0.38461550000000244},{"name":"D3","midi":50,"time":58.46155600000003,"velocity":0.5511811023622047,"duration":0.7692309999999978},{"name":"E3","midi":52,"time":59.23078700000003,"velocity":0.5511811023622047,"duration":0.7692309999999978},{"name":"A2","midi":45,"time":60.000018000000026,"velocity":0.5511811023622047,"duration":0.7692309999999978},{"name":"F#2","midi":42,"time":61.153864500000026,"velocity":0.5511811023622047,"duration":0.38461550000000244},{"name":"B2","midi":47,"time":61.53848000000003,"velocity":0.5511811023622047,"duration":0.7692309999999978},{"name":"D3","midi":50,"time":63.461557500000026,"velocity":0.5511811023622047,"duration":0.38461550000000244},{"name":"C#3","midi":49,"time":63.84617300000003,"velocity":0.5511811023622047,"duration":0.38461550000000244},{"name":"B2","midi":47,"time":64.23078850000003,"velocity":0.5511811023622047,"duration":0.38461549999999534},{"name":"A#2","midi":46,"time":64.61540400000003,"velocity":0.5511811023622047,"duration":0.7692310000000049},{"name":"A#2","midi":46,"time":65.76925050000003,"velocity":0.5511811023622047,"duration":0.38461549999999534},{"name":"A2","midi":45,"time":66.15386600000002,"velocity":0.5511811023622047,"duration":0.7692310000000049},{"name":"G#2","midi":44,"time":67.30771250000002,"velocity":0.5511811023622047,"duration":0.38461549999999534},{"name":"C#3","midi":49,"time":67.69232800000002,"velocity":0.5511811023622047,"duration":0.7692310000000049},{"name":"E3","midi":52,"time":68.84617450000002,"velocity":0.5511811023622047,"duration":0.38461549999999534},{"name":"F#2","midi":42,"time":69.23079000000001,"velocity":0.5511811023622047,"duration":0.38461549999999534},{"name":"F#3","midi":54,"time":69.61540550000001,"velocity":0.5511811023622047,"duration":0.38461549999999534},{"name":"G#3","midi":56,"time":70.000021,"velocity":0.5511811023622047,"duration":0.38461549999999534},{"name":"A#3","midi":58,"time":70.3846365,"velocity":0.5511811023622047,"duration":0.38461549999999534},{"name":"B3","midi":59,"time":70.769252,"velocity":0.5511811023622047,"duration":0.38461549999999534},{"name":"A3","midi":57,"time":71.15386749999999,"velocity":0.5511811023622047,"duration":0.38461549999999534},{"name":"G#3","midi":56,"time":71.53848299999999,"velocity":0.5511811023622047,"duration":0.38461549999999534},{"name":"F#3","midi":54,"time":71.92309849999998,"velocity":0.5511811023622047,"duration":0.38461549999999534},{"name":"F3","midi":53,"time":72.30771399999998,"velocity":0.5511811023622047,"duration":1.5384619999999956},{"name":"F#3","midi":54,"time":74.23079149999997,"velocity":0.5511811023622047,"duration":0.38461549999999534},{"name":"F#3","midi":54,"time":74.61540699999996,"velocity":0.5511811023622047,"duration":0.38461549999999534},{"name":"F#3","midi":54,"time":75.00002249999996,"velocity":0.5511811023622047,"duration":0.38461549999999534},{"name":"B2","midi":47,"time":75.38463799999995,"velocity":0.5511811023622047,"duration":0.7692310000000049},{"name":"D3","midi":50,"time":76.15386899999996,"velocity":0.5511811023622047,"duration":1.1538465000000002},{"name":"G#2","midi":44,"time":77.30771549999996,"velocity":0.5511811023622047,"duration":0.38461549999999534},{"name":"C#3","midi":49,"time":77.69233099999995,"velocity":0.5511811023622047,"duration":0.38461549999999534},{"name":"B2","midi":47,"time":78.07694649999995,"velocity":0.5511811023622047,"duration":0.38461549999999534},{"name":"A2","midi":45,"time":78.46156199999994,"velocity":0.5511811023622047,"duration":1.1538465000000002},{"name":"B2","midi":47,"time":79.61540849999994,"velocity":0.5511811023622047,"duration":0.38461549999999534},{"name":"C#3","midi":49,"time":80.00002399999994,"velocity":0.5511811023622047,"duration":1.5384619999999956},{"name":"F#2","midi":42,"time":81.53848599999993,"velocity":0.5511811023622047,"duration":0.38461549999999534},{"name":"A3","midi":57,"time":81.92310149999993,"velocity":0.5511811023622047,"duration":0.38461549999999534},{"name":"A3","midi":57,"time":82.30771699999993,"velocity":0.5511811023622047,"duration":0.38461549999999534},{"name":"A3","midi":57,"time":82.69233249999992,"velocity":0.5511811023622047,"duration":0.38461549999999534},{"name":"D3","midi":50,"time":83.07694799999992,"velocity":0.5511811023622047,"duration":0.7692310000000049},{"name":"F#3","midi":54,"time":83.84617899999992,"velocity":0.5511811023622047,"duration":1.1538465000000002},{"name":"B2","midi":47,"time":85.00002549999992,"velocity":0.5511811023622047,"duration":0.38461549999999534},{"name":"E3","midi":52,"time":85.38464099999992,"velocity":0.5511811023622047,"duration":0.38461549999999534},{"name":"D3","midi":50,"time":85.76925649999991,"velocity":0.5511811023622047,"duration":0.38461549999999534},{"name":"C#3","midi":49,"time":86.15387199999991,"velocity":0.5511811023622047,"duration":0.38461549999999534},{"name":"B2","midi":47,"time":86.5384874999999,"velocity":0.5511811023622047,"duration":0.38461549999999534},{"name":"A2","midi":45,"time":86.9231029999999,"velocity":0.5511811023622047,"duration":0.7692310000000049},{"name":"B2","midi":47,"time":89.61541149999991,"velocity":0.5511811023622047,"duration":0.38461549999999534},{"name":"E3","midi":52,"time":90.0000269999999,"velocity":0.5511811023622047,"duration":0.38461549999999534},{"name":"D3","midi":50,"time":90.3846424999999,"velocity":0.5511811023622047,"duration":0.38461549999999534},{"name":"C3","midi":48,"time":90.7692579999999,"velocity":0.5511811023622047,"duration":0.38461549999999534},{"name":"B2","midi":47,"time":91.15387349999989,"velocity":0.5511811023622047,"duration":0.38461549999999534},{"name":"A2","midi":45,"time":91.53848899999988,"velocity":0.5511811023622047,"duration":1.5384619999999956},{"name":"B2","midi":47,"time":93.07695099999988,"velocity":0.5511811023622047,"duration":1.1538465000000002},{"name":"D3","midi":50,"time":94.23079749999988,"velocity":0.5511811023622047,"duration":0.38461549999999534},{"name":"G3","midi":55,"time":94.61541299999988,"velocity":0.5511811023622047,"duration":0.38461549999999534},{"name":"F#3","midi":54,"time":95.00002849999987,"velocity":0.5511811023622047,"duration":0.38461549999999534},{"name":"E3","midi":52,"time":95.38464399999987,"velocity":0.5511811023622047,"duration":0.38461549999999534},{"name":"F#3","midi":54,"time":95.76925949999986,"velocity":0.5511811023622047,"duration":0.38461549999999534},{"name":"G3","midi":55,"time":96.15387499999986,"velocity":0.5511811023622047,"duration":0.38461549999999534},{"name":"E3","midi":52,"time":96.53849049999985,"velocity":0.5511811023622047,"duration":0.38461549999999534},{"name":"C3","midi":48,"time":96.92310599999985,"velocity":0.5511811023622047,"duration":0.38461549999999534},{"name":"A2","midi":45,"time":97.30772149999984,"velocity":0.5511811023622047,"duration":0.38461549999999534},{"name":"D3","midi":50,"time":97.69233699999984,"velocity":0.5511811023622047,"duration":0.38461549999999534},{"name":"C3","midi":48,"time":98.07695249999983,"velocity":0.5511811023622047,"duration":0.38461549999999534},{"name":"B2","midi":47,"time":98.46156799999983,"velocity":0.5511811023622047,"duration":0.38461549999999534},{"name":"D3","midi":50,"time":98.84618349999982,"velocity":0.5511811023622047,"duration":0.38461549999999534},{"name":"G3","midi":55,"time":99.23079899999982,"velocity":0.5511811023622047,"duration":0.38461549999999534},{"name":"F#3","midi":54,"time":99.61541449999982,"velocity":0.5511811023622047,"duration":0.38461549999999534},{"name":"E3","midi":52,"time":100.00002999999981,"velocity":0.5511811023622047,"duration":1.923077500000005},{"name":"D3","midi":50,"time":101.92310749999982,"velocity":0.5511811023622047,"duration":0.38461549999999534},{"name":"C#3","midi":49,"time":102.30772299999981,"velocity":0.5511811023622047,"duration":0.38461549999999534},{"name":"A2","midi":45,"time":102.6923384999998,"velocity":0.5511811023622047,"duration":0.38461549999999534},{"name":"D3","midi":50,"time":103.0769539999998,"velocity":0.5511811023622047,"duration":0.38461549999999534},{"name":"C3","midi":48,"time":103.4615694999998,"velocity":0.5511811023622047,"duration":0.38461549999999534},{"name":"B2","midi":47,"time":103.84618499999979,"velocity":0.5511811023622047,"duration":0.38461549999999534},{"name":"A2","midi":45,"time":104.23080049999979,"velocity":0.5511811023622047,"duration":0.38461549999999534},{"name":"G2","midi":43,"time":104.61541599999978,"velocity":0.5511811023622047,"duration":0.7692310000000049},{"name":"G#2","midi":44,"time":105.38464699999979,"velocity":0.5511811023622047,"duration":0.7692310000000049},{"name":"A2","midi":45,"time":106.15387799999979,"velocity":0.5511811023622047,"duration":1.5384619999999956},{"name":"A#2","midi":46,"time":107.69233999999979,"velocity":0.5511811023622047,"duration":1.5384619999999956},{"name":"B2","midi":47,"time":109.23080199999978,"velocity":0.5511811023622047,"duration":1.923077500000005},{"name":"B2","midi":47,"time":111.15387949999979,"velocity":0.5511811023622047,"duration":0.38461549999999534},{"name":"E3","midi":52,"time":111.53849499999978,"velocity":0.5511811023622047,"duration":0.38461549999999534},{"name":"D3","midi":50,"time":111.92311049999978,"velocity":0.5511811023622047,"duration":0.38461549999999534},{"name":"C#3","midi":49,"time":112.30772599999978,"velocity":0.5511811023622047,"duration":0.38461549999999534},{"name":"E3","midi":52,"time":112.69234149999977,"velocity":0.5511811023622047,"duration":0.38461549999999534},{"name":"A3","midi":57,"time":113.07695699999977,"velocity":0.5511811023622047,"duration":0.38461549999999534},{"name":"G3","midi":55,"time":113.46157249999976,"velocity":0.5511811023622047,"duration":0.38461549999999534},{"name":"F#3","midi":54,"time":113.84618799999976,"velocity":0.5511811023622047,"duration":0.38461549999999534},{"name":"A3","midi":57,"time":114.23080349999975,"velocity":0.5511811023622047,"duration":0.38461549999999534},{"name":"D4","midi":62,"time":114.61541899999975,"velocity":0.5511811023622047,"duration":0.38461549999999534},{"name":"C#4","midi":61,"time":115.00003449999974,"velocity":0.5511811023622047,"duration":0.38461549999999534},{"name":"B3","midi":59,"time":115.38464999999974,"velocity":0.5511811023622047,"duration":0.38461549999999534},{"name":"A3","midi":57,"time":115.76926549999973,"velocity":0.5511811023622047,"duration":0.38461549999999534},{"name":"G3","midi":55,"time":116.15388099999973,"velocity":0.5511811023622047,"duration":0.38461549999999534},{"name":"F#3","midi":54,"time":116.53849649999972,"velocity":0.5511811023622047,"duration":0.38461549999999534},{"name":"E3","midi":52,"time":116.92311199999972,"velocity":0.5511811023622047,"duration":0.38461549999999534},{"name":"D3","midi":50,"time":117.30772749999971,"velocity":0.5511811023622047,"duration":0.38461549999999534},{"name":"C#3","midi":49,"time":117.69234299999971,"velocity":0.5511811023622047,"duration":0.38461549999999534},{"name":"B2","midi":47,"time":118.0769584999997,"velocity":0.5511811023622047,"duration":0.38461549999999534},{"name":"A2","midi":45,"time":118.4615739999997,"velocity":0.5511811023622047,"duration":0.38461549999999534},{"name":"G2","midi":43,"time":118.8461894999997,"velocity":0.5511811023622047,"duration":0.38461549999999534},{"name":"F#2","midi":42,"time":119.23080499999969,"velocity":0.5511811023622047,"duration":0.38461549999999534},{"name":"E2","midi":40,"time":119.61542049999969,"velocity":0.5511811023622047,"duration":0.38461549999999534},{"name":"D2","midi":38,"time":120.00003599999968,"velocity":0.5511811023622047,"duration":0.38461549999999534},{"name":"D3","midi":50,"time":121.15388249999968,"velocity":0.5511811023622047,"duration":0.38461549999999534},{"name":"E3","midi":52,"time":121.53849799999968,"velocity":0.5511811023622047,"duration":0.7692310000000049},{"name":"E3","midi":52,"time":122.69234449999968,"velocity":0.5511811023622047,"duration":0.38461549999999534},{"name":"A3","midi":57,"time":123.07695999999967,"velocity":0.5511811023622047,"duration":0.38461549999999534},{"name":"G3","midi":55,"time":123.46157549999967,"velocity":0.5511811023622047,"duration":0.38461549999999534},{"name":"F#3","midi":54,"time":123.84619099999966,"velocity":0.5511811023622047,"duration":0.38461549999999534},{"name":"E3","midi":52,"time":124.23080649999966,"velocity":0.5511811023622047,"duration":0.38461549999999534},{"name":"D3","midi":50,"time":124.61542199999965,"velocity":0.5511811023622047,"duration":0.38461549999999534},{"name":"E3","midi":52,"time":125.00003749999965,"velocity":0.5511811023622047,"duration":0.38461549999999534},{"name":"F#3","midi":54,"time":125.38465299999964,"velocity":0.5511811023622047,"duration":1.1538465000000002},{"name":"B2","midi":47,"time":126.53849949999965,"velocity":0.5511811023622047,"duration":0.38461549999999534},{"name":"E3","midi":52,"time":126.92311499999964,"velocity":0.5511811023622047,"duration":0.38461549999999534},{"name":"D3","midi":50,"time":127.30773049999964,"velocity":0.5511811023622047,"duration":0.38461549999999534},{"name":"C#3","midi":49,"time":127.69234599999963,"velocity":0.5511811023622047,"duration":0.38461550000000955},{"name":"B2","midi":47,"time":128.07696149999964,"velocity":0.5511811023622047,"duration":0.38461549999999534},{"name":"A2","midi":45,"time":128.46157699999964,"velocity":0.5511811023622047,"duration":1.153846499999986},{"name":"A3","midi":57,"time":129.61542349999962,"velocity":0.5511811023622047,"duration":0.38461549999999534},{"name":"A3","midi":57,"time":130.00003899999962,"velocity":0.5511811023622047,"duration":0.38461549999999534},{"name":"A3","midi":57,"time":130.3846544999996,"velocity":0.5511811023622047,"duration":0.38461549999999534},{"name":"D#3","midi":51,"time":130.7692699999996,"velocity":0.5511811023622047,"duration":0.38461549999999534},{"name":"E3","midi":52,"time":131.1538854999996,"velocity":0.5511811023622047,"duration":0.38461549999999534},{"name":"F3","midi":53,"time":131.5385009999996,"velocity":0.5511811023622047,"duration":1.153846499999986},{"name":"B2","midi":47,"time":132.69234749999958,"velocity":0.5511811023622047,"duration":0.38461549999999534},{"name":"E3","midi":52,"time":133.07696299999958,"velocity":0.5511811023622047,"duration":0.38461549999999534},{"name":"D3","midi":50,"time":133.46157849999958,"velocity":0.5511811023622047,"duration":0.38461549999999534},{"name":"C#3","midi":49,"time":133.84619399999957,"velocity":0.5511811023622047,"duration":0.38461549999999534},{"name":"A2","midi":45,"time":134.23080949999957,"velocity":0.5511811023622047,"duration":0.38461549999999534},{"name":"D3","midi":50,"time":134.61542499999956,"velocity":0.5511811023622047,"duration":0.38461549999999534},{"name":"C#3","midi":49,"time":135.00004049999956,"velocity":0.5511811023622047,"duration":0.38461549999999534},{"name":"B2","midi":47,"time":135.38465599999955,"velocity":0.5511811023622047,"duration":0.38461549999999534},{"name":"B3","midi":59,"time":136.53850249999954,"velocity":0.5511811023622047,"duration":0.38461549999999534},{"name":"B3","midi":59,"time":136.92311799999953,"velocity":0.5511811023622047,"duration":0.38461549999999534},{"name":"B3","midi":59,"time":137.30773349999953,"velocity":0.5511811023622047,"duration":0.38461549999999534},{"name":"E3","midi":52,"time":137.69234899999952,"velocity":0.5511811023622047,"duration":0.7692309999999907},{"name":"G3","midi":55,"time":138.46157999999951,"velocity":0.5511811023622047,"duration":1.153846499999986},{"name":"C#3","midi":49,"time":139.6154264999995,"velocity":0.5511811023622047,"duration":0.38461549999999534},{"name":"F#3","midi":54,"time":140.0000419999995,"velocity":0.5511811023622047,"duration":0.38461549999999534},{"name":"E3","midi":52,"time":140.3846574999995,"velocity":0.5511811023622047,"duration":0.38461549999999534},{"name":"D3","midi":50,"time":140.7692729999995,"velocity":0.5511811023622047,"duration":1.5384620000000098},{"name":"D3","midi":50,"time":142.6923504999995,"velocity":0.5511811023622047,"duration":0.38461549999999534},{"name":"G3","midi":55,"time":143.0769659999995,"velocity":0.5511811023622047,"duration":0.38461549999999534},{"name":"F#3","midi":54,"time":143.46158149999948,"velocity":0.5511811023622047,"duration":0.38461549999999534},{"name":"E3","midi":52,"time":143.84619699999948,"velocity":0.5511811023622047,"duration":0.38461549999999534},{"name":"D3","midi":50,"time":144.23081249999947,"velocity":0.5511811023622047,"duration":0.38461549999999534},{"name":"C#3","midi":49,"time":144.61542799999947,"velocity":0.5511811023622047,"duration":0.7692309999999907},{"name":"A2","midi":45,"time":145.76927449999945,"velocity":0.5511811023622047,"duration":0.38461549999999534},{"name":"D3","midi":50,"time":146.15388999999945,"velocity":0.5511811023622047,"duration":0.38461549999999534},{"name":"C3","midi":48,"time":146.53850549999945,"velocity":0.5511811023622047,"duration":0.38461549999999534},{"name":"B2","midi":47,"time":146.92312099999944,"velocity":0.5511811023622047,"duration":0.38461549999999534},{"name":"A2","midi":45,"time":147.30773649999944,"velocity":0.5511811023622047,"duration":0.38461549999999534},{"name":"G2","midi":43,"time":147.69235199999943,"velocity":0.5511811023622047,"duration":1.5384620000000098},{"name":"A2","midi":45,"time":149.23081399999944,"velocity":0.5511811023622047,"duration":3.076923999999991},{"name":"D2","midi":38,"time":152.30773799999943,"velocity":0.5511811023622047,"duration":1.5384620000000098}],"controlChanges":{"7":[{"number":7,"time":0,"value":0.7874015748031497}],"10":[{"number":10,"time":0,"value":0.3700787401574803}]},"id":4,"name":"Yo Tomita","instrumentNumber":6,"instrument":"harpsichord","instrumentFamily":"piano","channelNumber":0,"isPercussion":false}]}