{"header":{"PPQ":384,"timeSignature":[4,4],"bpm":120,"name":"--------"},"startTime":0,"duration":86.95312500000017,"tracks":[{"startTime":0,"duration":0,"length":0,"notes":[],"controlChanges":{},"id":0,"name":"--------"},{"startTime":0.0625,"duration":86.95312500000017,"length":676,"notes":[{"name":"D4","midi":62,"time":0.0625,"velocity":0.7637795275590551,"duration":1.0729166666666665},{"name":"F#5","midi":78,"time":0.4908854166666667,"velocity":0.7637795275590551,"duration":0.21223958333333331},{"name":"G5","midi":79,"time":0.7057291666666666,"velocity":0.7637795275590551,"duration":0.21223958333333337},{"name":"A5","midi":81,"time":0.9205729166666666,"velocity":0.7637795275590551,"duration":0.42708333333333315},{"name":"F#3","midi":54,"time":1.3502604166666665,"velocity":0.7637795275590551,"duration":0.42578125},{"name":"C5","midi":72,"time":1.3502604166666665,"velocity":0.7637795275590551,"duration":0.42578125},{"name":"G3","midi":55,"time":1.7786458333333333,"velocity":0.7637795275590551,"duration":1.0729166666666663},{"name":"B4","midi":71,"time":1.7786458333333333,"velocity":0.7637795275590551,"duration":0.4257812499999998},{"name":"E5","midi":76,"time":2.2070312499999996,"velocity":0.7637795275590551,"duration":0.21223958333333348},{"name":"F#5","midi":78,"time":2.4218749999999996,"velocity":0.7637795275590551,"duration":0.21223958333333348},{"name":"G5","midi":79,"time":2.6367187499999996,"velocity":0.7637795275590551,"duration":0.4270833333333335},{"name":"E3","midi":52,"time":3.0664062499999996,"velocity":0.7637795275590551,"duration":0.42578125},{"name":"B4","midi":71,"time":3.0664062499999996,"velocity":0.7637795275590551,"duration":0.42578125},{"name":"F#3","midi":54,"time":3.494791666666666,"velocity":0.7637795275590551,"duration":1.072916666666667},{"name":"A4","midi":69,"time":3.494791666666666,"velocity":0.7637795275590551,"duration":0.42578125},{"name":"D5","midi":74,"time":3.9231770833333326,"velocity":0.7637795275590551,"duration":0.21223958333333348},{"name":"E5","midi":76,"time":4.138020833333333,"velocity":0.7637795275590551,"duration":0.21223958333333304},{"name":"F#5","midi":78,"time":4.352864583333333,"velocity":0.7637795275590551,"duration":0.42708333333333304},{"name":"D3","midi":50,"time":4.782552083333333,"velocity":0.7637795275590551,"duration":0.42578125},{"name":"A4","midi":69,"time":4.782552083333333,"velocity":0.7637795275590551,"duration":0.41536458333333304},{"name":"B3","midi":59,"time":5.2109375,"velocity":0.7637795275590551,"duration":0.42708333333333304},{"name":"G4","midi":67,"time":5.2109375,"velocity":0.7637795275590551,"duration":0.21223958333333304},{"name":"F#5","midi":78,"time":5.42578125,"velocity":0.7637795275590551,"duration":0.21223958333333304},{"name":"G3","midi":55,"time":5.640625,"velocity":0.7637795275590551,"duration":0.42708333333333304},{"name":"E5","midi":76,"time":5.640625,"velocity":0.7637795275590551,"duration":0.21223958333333304},{"name":"D5","midi":74,"time":5.85546875,"velocity":0.7637795275590551,"duration":0.21223958333333304},{"name":"A3","midi":57,"time":6.0703125,"velocity":0.7637795275590551,"duration":0.42708333333333304},{"name":"C#5","midi":73,"time":6.0703125,"velocity":0.7637795275590551,"duration":0.21223958333333304},{"name":"B5","midi":83,"time":6.28515625,"velocity":0.7637795275590551,"duration":0.21223958333333304},{"name":"A2","midi":45,"time":6.5,"velocity":0.7637795275590551,"duration":0.42708333333333304},{"name":"A5","midi":81,"time":6.5,"velocity":0.7637795275590551,"duration":0.21223958333333304},{"name":"G5","midi":79,"time":6.71484375,"velocity":0.7637795275590551,"duration":0.21223958333333304},{"name":"D3","midi":50,"time":6.9296875,"velocity":0.7637795275590551,"duration":0.42708333333333304},{"name":"F#5","midi":78,"time":6.9296875,"velocity":0.7637795275590551,"duration":0.21223958333333304},{"name":"E5","midi":76,"time":7.14453125,"velocity":0.7637795275590551,"duration":0.21223958333333304},{"name":"D4","midi":62,"time":7.359375,"velocity":0.7637795275590551,"duration":0.42708333333333304},{"name":"D5","midi":74,"time":7.359375,"velocity":0.7637795275590551,"duration":0.21223958333333304},{"name":"E5","midi":76,"time":7.57421875,"velocity":0.7637795275590551,"duration":0.21223958333333304},{"name":"C#4","midi":61,"time":7.7890625,"velocity":0.7637795275590551,"duration":0.4270833333333339},{"name":"F#5","midi":78,"time":7.7890625,"velocity":0.7637795275590551,"duration":0.21223958333333393},{"name":"E5","midi":76,"time":8.00390625,"velocity":0.7637795275590551,"duration":0.21223958333333393},{"name":"B3","midi":59,"time":8.21875,"velocity":0.7637795275590551,"duration":0.4270833333333339},{"name":"F#5","midi":78,"time":8.21875,"velocity":0.7637795275590551,"duration":0.21223958333333393},{"name":"G#5","midi":80,"time":8.43359375,"velocity":0.7637795275590551,"duration":0.21223958333333393},{"name":"A3","midi":57,"time":8.6484375,"velocity":0.7637795275590551,"duration":0.21223958333333393},{"name":"A5","midi":81,"time":8.6484375,"velocity":0.7637795275590551,"duration":0.8502604166666661},{"name":"G#3","midi":56,"time":8.86328125,"velocity":0.7637795275590551,"duration":0.21223958333333393},{"name":"A3","midi":57,"time":9.078125,"velocity":0.7637795275590551,"duration":0.21223958333333393},{"name":"C#5","midi":73,"time":9.078125,"velocity":0.7637795275590551,"duration":0.21223958333333393},{"name":"B3","midi":59,"time":9.29296875,"velocity":0.7637795275590551,"duration":0.21223958333333215},{"name":"D5","midi":74,"time":9.29296875,"velocity":0.7637795275590551,"duration":0.21223958333333215},{"name":"C#4","midi":61,"time":9.507812499999998,"velocity":0.7637795275590551,"duration":0.21223958333333393},{"name":"E5","midi":76,"time":9.507812499999998,"velocity":0.7637795275590551,"duration":1.716145833333334},{"name":"D4","midi":62,"time":9.722656249999998,"velocity":0.7637795275590551,"duration":0.21223958333333393},{"name":"C#4","midi":61,"time":9.937499999999998,"velocity":0.7637795275590551,"duration":0.21223958333333393},{"name":"G4","midi":67,"time":9.937499999999998,"velocity":0.7637795275590551,"duration":0.4270833333333339},{"name":"B3","midi":59,"time":10.152343749999998,"velocity":0.7637795275590551,"duration":0.21223958333333393},{"name":"A#3","midi":58,"time":10.367187499999998,"velocity":0.7637795275590551,"duration":0.21223958333333393},{"name":"F#4","midi":66,"time":10.367187499999998,"velocity":0.7637795275590551,"duration":0.4270833333333339},{"name":"F#3","midi":54,"time":10.582031249999998,"velocity":0.7637795275590551,"duration":0.21223958333333393},{"name":"G#3","midi":56,"time":10.796874999999998,"velocity":0.7637795275590551,"duration":0.21223958333333393},{"name":"B4","midi":71,"time":10.796874999999998,"velocity":0.7637795275590551,"duration":0.21223958333333393},{"name":"A#3","midi":58,"time":11.011718749999998,"velocity":0.7637795275590551,"duration":0.21223958333333393},{"name":"C#5","midi":73,"time":11.011718749999998,"velocity":0.7637795275590551,"duration":0.21223958333333393},{"name":"B3","midi":59,"time":11.226562499999998,"velocity":0.7637795275590551,"duration":0.21223958333333393},{"name":"D5","midi":74,"time":11.226562499999998,"velocity":0.7637795275590551,"duration":1.716145833333334},{"name":"C#4","midi":61,"time":11.441406249999998,"velocity":0.7637795275590551,"duration":0.21223958333333393},{"name":"B3","midi":59,"time":11.656249999999998,"velocity":0.7637795275590551,"duration":0.21223958333333393},{"name":"F#4","midi":66,"time":11.656249999999998,"velocity":0.7637795275590551,"duration":0.4270833333333339},{"name":"A3","midi":57,"time":11.871093749999998,"velocity":0.7637795275590551,"duration":0.21223958333333393},{"name":"G#3","midi":56,"time":12.085937499999998,"velocity":0.7637795275590551,"duration":0.21223958333333393},{"name":"E4","midi":64,"time":12.085937499999998,"velocity":0.7637795275590551,"duration":0.4270833333333339},{"name":"E3","midi":52,"time":12.300781249999998,"velocity":0.7637795275590551,"duration":0.21223958333333393},{"name":"F#3","midi":54,"time":12.515624999999998,"velocity":0.7637795275590551,"duration":0.21223958333333393},{"name":"A4","midi":69,"time":12.515624999999998,"velocity":0.7637795275590551,"duration":0.21223958333333393},{"name":"G#3","midi":56,"time":12.730468749999998,"velocity":0.7637795275590551,"duration":0.21223958333333393},{"name":"B4","midi":71,"time":12.730468749999998,"velocity":0.7637795275590551,"duration":0.21223958333333393},{"name":"A3","midi":57,"time":12.945312499999998,"velocity":0.7637795275590551,"duration":0.21223958333333393},{"name":"C#5","midi":73,"time":12.945312499999998,"velocity":0.7637795275590551,"duration":1.07421875},{"name":"B3","midi":59,"time":13.160156249999998,"velocity":0.7637795275590551,"duration":0.21223958333333393},{"name":"A3","midi":57,"time":13.374999999999998,"velocity":0.7637795275590551,"duration":0.21223958333333393},{"name":"E4","midi":64,"time":13.374999999999998,"velocity":0.7637795275590551,"duration":0.4270833333333339},{"name":"G3","midi":55,"time":13.589843749999998,"velocity":0.7637795275590551,"duration":0.21223958333333393},{"name":"F#3","midi":54,"time":13.804687499999998,"velocity":0.7637795275590551,"duration":0.4270833333333339},{"name":"D4","midi":62,"time":13.804687499999998,"velocity":0.7637795275590551,"duration":0.21223958333333393},{"name":"C#5","midi":73,"time":14.019531249999998,"velocity":0.7637795275590551,"duration":0.21223958333333393},{"name":"E5","midi":76,"time":14.019531249999998,"velocity":0.7637795275590551,"duration":0.21223958333333393},{"name":"D3","midi":50,"time":14.234374999999998,"velocity":0.7637795275590551,"duration":0.4270833333333339},{"name":"B4","midi":71,"time":14.234374999999998,"velocity":0.7637795275590551,"duration":0.21223958333333393},{"name":"D5","midi":74,"time":14.234374999999998,"velocity":0.7637795275590551,"duration":0.21223958333333393},{"name":"A4","midi":69,"time":14.449218749999998,"velocity":0.7637795275590551,"duration":0.21223958333333393},{"name":"C#5","midi":73,"time":14.449218749999998,"velocity":0.7637795275590551,"duration":0.21223958333333393},{"name":"E3","midi":52,"time":14.664062499999998,"velocity":0.7637795275590551,"duration":0.4270833333333339},{"name":"G#4","midi":68,"time":14.664062499999998,"velocity":0.7637795275590551,"duration":0.21223958333333393},{"name":"B4","midi":71,"time":14.664062499999998,"velocity":0.7637795275590551,"duration":0.4270833333333339},{"name":"F#5","midi":78,"time":14.878906249999998,"velocity":0.7637795275590551,"duration":0.21223958333333393},{"name":"E2","midi":40,"time":15.093749999999998,"velocity":0.7637795275590551,"duration":0.4270833333333339},{"name":"E5","midi":76,"time":15.093749999999998,"velocity":0.7637795275590551,"duration":0.21223958333333393},{"name":"G#5","midi":80,"time":15.093749999999998,"velocity":0.7637795275590551,"duration":0.4270833333333339},{"name":"D5","midi":74,"time":15.308593749999998,"velocity":0.7637795275590551,"duration":0.21223958333333393},{"name":"A2","midi":45,"time":15.523437499999998,"velocity":0.7637795275590551,"duration":0.21223958333333393},{"name":"C#5","midi":73,"time":15.523437499999998,"velocity":0.7637795275590551,"duration":0.21223958333333393},{"name":"A5","midi":81,"time":15.523437499999998,"velocity":0.7637795275590551,"duration":1.930989583333334},{"name":"B2","midi":47,"time":15.738281249999998,"velocity":0.7637795275590551,"duration":0.21223958333333393},{"name":"B4","midi":71,"time":15.738281249999998,"velocity":0.7637795275590551,"duration":0.21223958333333393},{"name":"C#3","midi":49,"time":15.953124999999998,"velocity":0.7637795275590551,"duration":0.21223958333333393},{"name":"A4","midi":69,"time":15.953124999999998,"velocity":0.7637795275590551,"duration":0.21223958333333393},{"name":"D3","midi":50,"time":16.16796875,"velocity":0.7637795275590551,"duration":0.21223958333333215},{"name":"B4","midi":71,"time":16.16796875,"velocity":0.7637795275590551,"duration":0.21223958333333215},{"name":"E3","midi":52,"time":16.3828125,"velocity":0.7637795275590551,"duration":0.21223958333333215},{"name":"C#5","midi":73,"time":16.3828125,"velocity":0.7637795275590551,"duration":0.21223958333333215},{"name":"F#3","midi":54,"time":16.59765625,"velocity":0.7637795275590551,"duration":0.21223958333333215},{"name":"A4","midi":69,"time":16.59765625,"velocity":0.7637795275590551,"duration":0.21223958333333215},{"name":"G3","midi":55,"time":16.8125,"velocity":0.7637795275590551,"duration":0.21223958333333215},{"name":"B4","midi":71,"time":16.8125,"velocity":0.7637795275590551,"duration":0.21223958333333215},{"name":"E3","midi":52,"time":17.02734375,"velocity":0.7637795275590551,"duration":0.21223958333333215},{"name":"C#5","midi":73,"time":17.02734375,"velocity":0.7637795275590551,"duration":0.21223958333333215},{"name":"F#3","midi":54,"time":17.2421875,"velocity":0.7637795275590551,"duration":0.21223958333333215},{"name":"D5","midi":74,"time":17.2421875,"velocity":0.7637795275590551,"duration":0.42447916666666785},{"name":"E3","midi":52,"time":17.45703125,"velocity":0.7637795275590551,"duration":0.2122395833333357},{"name":"C#5","midi":73,"time":17.45703125,"velocity":0.7637795275590551,"duration":0.2122395833333357},{"name":"F#3","midi":54,"time":17.671875000000004,"velocity":0.7637795275590551,"duration":0.21223958333333215},{"name":"D5","midi":74,"time":17.671875000000004,"velocity":0.7637795275590551,"duration":0.21223958333333215},{"name":"G3","midi":55,"time":17.886718750000004,"velocity":0.7637795275590551,"duration":0.21223958333333215},{"name":"E5","midi":76,"time":17.886718750000004,"velocity":0.7637795275590551,"duration":0.21223958333333215},{"name":"A3","midi":57,"time":18.101562500000004,"velocity":0.7637795275590551,"duration":0.42708333333333215},{"name":"A4","midi":69,"time":18.101562500000004,"velocity":0.7637795275590551,"duration":1.7161458333333321},{"name":"F#5","midi":78,"time":18.101562500000004,"velocity":0.7637795275590551,"duration":0.21223958333333215},{"name":"G5","midi":79,"time":18.316406250000004,"velocity":0.7637795275590551,"duration":0.21223958333333215},{"name":"C3","midi":48,"time":18.531250000000004,"velocity":0.7637795275590551,"duration":0.42708333333333215},{"name":"F#5","midi":78,"time":18.531250000000004,"velocity":0.7637795275590551,"duration":0.21223958333333215},{"name":"E5","midi":76,"time":18.746093750000004,"velocity":0.7637795275590551,"duration":0.21223958333333215},{"name":"B2","midi":47,"time":18.960937500000004,"velocity":0.7637795275590551,"duration":0.42708333333333215},{"name":"D#5","midi":75,"time":18.960937500000004,"velocity":0.7637795275590551,"duration":0.21223958333333215},{"name":"B4","midi":71,"time":19.175781250000004,"velocity":0.7637795275590551,"duration":0.21223958333333215},{"name":"E3","midi":52,"time":19.390625000000004,"velocity":0.7637795275590551,"duration":0.21223958333333215},{"name":"C#5","midi":73,"time":19.390625000000004,"velocity":0.7637795275590551,"duration":0.21223958333333215},{"name":"F#3","midi":54,"time":19.605468750000004,"velocity":0.7637795275590551,"duration":0.21223958333333215},{"name":"D#5","midi":75,"time":19.605468750000004,"velocity":0.7637795275590551,"duration":0.21223958333333215},{"name":"G3","midi":55,"time":19.820312500000004,"velocity":0.7637795275590551,"duration":0.42708333333333215},{"name":"G4","midi":67,"time":19.820312500000004,"velocity":0.7637795275590551,"duration":1.7161458333333321},{"name":"E5","midi":76,"time":19.820312500000004,"velocity":0.7637795275590551,"duration":0.21223958333333215},{"name":"F#5","midi":78,"time":20.035156250000004,"velocity":0.7637795275590551,"duration":0.21223958333333215},{"name":"B2","midi":47,"time":20.250000000000004,"velocity":0.7637795275590551,"duration":0.42708333333333215},{"name":"E5","midi":76,"time":20.250000000000004,"velocity":0.7637795275590551,"duration":0.21223958333333215},{"name":"D5","midi":74,"time":20.464843750000004,"velocity":0.7637795275590551,"duration":0.21223958333333215},{"name":"A2","midi":45,"time":20.679687500000004,"velocity":0.7637795275590551,"duration":0.42708333333333215},{"name":"C#5","midi":73,"time":20.679687500000004,"velocity":0.7637795275590551,"duration":0.21223958333333215},{"name":"A4","midi":69,"time":20.894531250000004,"velocity":0.7637795275590551,"duration":0.21223958333333215},{"name":"D3","midi":50,"time":21.109375000000004,"velocity":0.7637795275590551,"duration":0.21223958333333215},{"name":"B4","midi":71,"time":21.109375000000004,"velocity":0.7637795275590551,"duration":0.21223958333333215},{"name":"E3","midi":52,"time":21.324218750000004,"velocity":0.7637795275590551,"duration":0.21223958333333215},{"name":"C#5","midi":73,"time":21.324218750000004,"velocity":0.7637795275590551,"duration":0.21223958333333215},{"name":"F#3","midi":54,"time":21.539062500000004,"velocity":0.7637795275590551,"duration":0.42708333333333215},{"name":"F#4","midi":66,"time":21.539062500000004,"velocity":0.7637795275590551,"duration":1.0716145833333321},{"name":"D5","midi":74,"time":21.539062500000004,"velocity":0.7637795275590551,"duration":0.21223958333333215},{"name":"E5","midi":76,"time":21.753906250000004,"velocity":0.7637795275590551,"duration":0.21223958333333215},{"name":"A2","midi":45,"time":21.968750000000004,"velocity":0.7637795275590551,"duration":0.42708333333333215},{"name":"D5","midi":74,"time":21.968750000000004,"velocity":0.7637795275590551,"duration":0.21223958333333215},{"name":"C#5","midi":73,"time":22.183593750000004,"velocity":0.7637795275590551,"duration":0.21223958333333215},{"name":"G2","midi":43,"time":22.398437500000004,"velocity":0.7637795275590551,"duration":0.21223958333333215},{"name":"B4","midi":71,"time":22.398437500000004,"velocity":0.7637795275590551,"duration":0.78125},{"name":"F#3","midi":54,"time":22.613281250000004,"velocity":0.7637795275590551,"duration":0.21223958333333215},{"name":"A4","midi":69,"time":22.613281250000004,"velocity":0.7637795275590551,"duration":0.21223958333333215},{"name":"E3","midi":52,"time":22.828125000000004,"velocity":0.7637795275590551,"duration":0.21223958333333215},{"name":"G4","midi":67,"time":22.828125000000004,"velocity":0.7637795275590551,"duration":0.21223958333333215},{"name":"D3","midi":50,"time":23.042968750000004,"velocity":0.7637795275590551,"duration":0.21223958333333215},{"name":"F#4","midi":66,"time":23.042968750000004,"velocity":0.7637795275590551,"duration":0.21223958333333215},{"name":"C#3","midi":49,"time":23.257812500000004,"velocity":0.7637795275590551,"duration":0.21223958333333215},{"name":"E4","midi":64,"time":23.257812500000004,"velocity":0.7637795275590551,"duration":0.21223958333333215},{"name":"E5","midi":76,"time":23.257812500000004,"velocity":0.7637795275590551,"duration":1.2864583333333321},{"name":"B3","midi":59,"time":23.472656250000004,"velocity":0.7637795275590551,"duration":0.21223958333333215},{"name":"D5","midi":74,"time":23.472656250000004,"velocity":0.7637795275590551,"duration":0.21223958333333215},{"name":"A3","midi":57,"time":23.687500000000004,"velocity":0.7637795275590551,"duration":0.21223958333333215},{"name":"C#5","midi":73,"time":23.687500000000004,"velocity":0.7637795275590551,"duration":0.21223958333333215},{"name":"G3","midi":55,"time":23.902343750000004,"velocity":0.7637795275590551,"duration":0.21223958333333215},{"name":"B4","midi":71,"time":23.902343750000004,"velocity":0.7637795275590551,"duration":0.21223958333333215},{"name":"F#3","midi":54,"time":24.117187500000004,"velocity":0.7637795275590551,"duration":0.21223958333333215},{"name":"A4","midi":69,"time":24.117187500000004,"velocity":0.7637795275590551,"duration":0.21223958333333215},{"name":"E3","midi":52,"time":24.332031250000004,"velocity":0.7637795275590551,"duration":0.21223958333333215},{"name":"G4","midi":67,"time":24.332031250000004,"velocity":0.7637795275590551,"duration":0.21223958333333215},{"name":"D3","midi":50,"time":24.546875000000004,"velocity":0.7637795275590551,"duration":0.21223958333333215},{"name":"F#4","midi":66,"time":24.546875000000004,"velocity":0.7637795275590551,"duration":0.21223958333333215},{"name":"A4","midi":69,"time":24.546875000000004,"velocity":0.7637795275590551,"duration":0.42708333333333215},{"name":"E3","midi":52,"time":24.761718750000004,"velocity":0.7637795275590551,"duration":0.21223958333333215},{"name":"G4","midi":67,"time":24.761718750000004,"velocity":0.7637795275590551,"duration":0.21223958333333215},{"name":"F#3","midi":54,"time":24.976562500000004,"velocity":0.7637795275590551,"duration":0.21223958333333215},{"name":"A4","midi":69,"time":24.976562500000004,"velocity":0.7637795275590551,"duration":0.21223958333333215},{"name":"D5","midi":74,"time":24.976562500000004,"velocity":0.7637795275590551,"duration":0.6419270833333321},{"name":"E3","midi":52,"time":25.191406250000004,"velocity":0.7637795275590551,"duration":0.21223958333333215},{"name":"G#4","midi":68,"time":25.191406250000004,"velocity":0.7637795275590551,"duration":0.21223958333333215},{"name":"F#3","midi":54,"time":25.406250000000004,"velocity":0.7637795275590551,"duration":0.21223958333333215},{"name":"A4","midi":69,"time":25.406250000000004,"velocity":0.7637795275590551,"duration":0.21223958333333215},{"name":"G#3","midi":56,"time":25.621093750000004,"velocity":0.7637795275590551,"duration":0.21223958333333215},{"name":"B4","midi":71,"time":25.621093750000004,"velocity":0.7637795275590551,"duration":0.21223958333333215},{"name":"E5","midi":76,"time":25.621093750000004,"velocity":0.7637795275590551,"duration":0.21223958333333215},{"name":"A3","midi":57,"time":25.835937500000004,"velocity":0.7637795275590551,"duration":0.42708333333333215},{"name":"E4","midi":64,"time":25.835937500000004,"velocity":0.7637795275590551,"duration":2.147135416666668},{"name":"C#5","midi":73,"time":25.835937500000004,"velocity":0.7637795275590551,"duration":0.21223958333333215},{"name":"B4","midi":71,"time":26.050781250000004,"velocity":0.7637795275590551,"duration":0.21223958333333215},{"name":"E3","midi":52,"time":26.265625000000004,"velocity":0.7637795275590551,"duration":0.42708333333333215},{"name":"A4","midi":69,"time":26.265625000000004,"velocity":0.7637795275590551,"duration":0.21223958333333215},{"name":"B4","midi":71,"time":26.480468750000004,"velocity":0.7637795275590551,"duration":0.21223958333333215},{"name":"A3","midi":57,"time":26.695312500000004,"velocity":0.7637795275590551,"duration":0.10546875},{"name":"C#5","midi":73,"time":26.695312500000004,"velocity":0.7637795275590551,"duration":0.21354166666666785},{"name":"G#3","midi":56,"time":26.80338541666667,"velocity":0.7637795275590551,"duration":0.10546875},{"name":"A3","midi":57,"time":26.91145833333334,"velocity":0.7637795275590551,"duration":0.42708333333333215},{"name":"B4","midi":71,"time":26.91145833333334,"velocity":0.7637795275590551,"duration":0.21223958333333215},{"name":"C#5","midi":73,"time":27.12630208333334,"velocity":0.7637795275590551,"duration":0.21223958333333215},{"name":"B3","midi":59,"time":27.34114583333334,"velocity":0.7637795275590551,"duration":0.21223958333333215},{"name":"D#5","midi":75,"time":27.34114583333334,"velocity":0.7637795275590551,"duration":0.21223958333333215},{"name":"G3","midi":55,"time":27.55598958333334,"velocity":0.7637795275590551,"duration":0.21223958333333215},{"name":"E5","midi":76,"time":27.55598958333334,"velocity":0.7637795275590551,"duration":0.42708333333333215},{"name":"F#3","midi":54,"time":27.77083333333334,"velocity":0.7637795275590551,"duration":0.21223958333333215},{"name":"E3","midi":52,"time":27.98567708333334,"velocity":0.7637795275590551,"duration":0.21223958333333215},{"name":"G4","midi":67,"time":27.98567708333334,"velocity":0.7637795275590551,"duration":0.21223958333333215},{"name":"B4","midi":71,"time":27.98567708333334,"velocity":0.7637795275590551,"duration":0.42708333333333215},{"name":"F#3","midi":54,"time":28.20052083333334,"velocity":0.7637795275590551,"duration":0.21223958333333215},{"name":"A4","midi":69,"time":28.20052083333334,"velocity":0.7637795275590551,"duration":0.21223958333333215},{"name":"G3","midi":55,"time":28.41536458333334,"velocity":0.7637795275590551,"duration":0.21223958333333215},{"name":"B4","midi":71,"time":28.41536458333334,"velocity":0.7637795275590551,"duration":0.21223958333333215},{"name":"E5","midi":76,"time":28.41536458333334,"velocity":0.7637795275590551,"duration":0.6419270833333321},{"name":"F#3","midi":54,"time":28.63020833333334,"velocity":0.7637795275590551,"duration":0.21223958333333215},{"name":"A4","midi":69,"time":28.63020833333334,"velocity":0.7637795275590551,"duration":0.21223958333333215},{"name":"G3","midi":55,"time":28.84505208333334,"velocity":0.7637795275590551,"duration":0.21223958333333215},{"name":"B4","midi":71,"time":28.84505208333334,"velocity":0.7637795275590551,"duration":0.21223958333333215},{"name":"A3","midi":57,"time":29.05989583333334,"velocity":0.7637795275590551,"duration":0.21223958333333215},{"name":"C#5","midi":73,"time":29.05989583333334,"velocity":0.7637795275590551,"duration":0.21223958333333215},{"name":"F#5","midi":78,"time":29.05989583333334,"velocity":0.7637795275590551,"duration":0.21223958333333215},{"name":"B3","midi":59,"time":29.27473958333334,"velocity":0.7637795275590551,"duration":0.42708333333333215},{"name":"F#4","midi":66,"time":29.27473958333334,"velocity":0.7637795275590551,"duration":0.8567708333333321},{"name":"D5","midi":74,"time":29.27473958333334,"velocity":0.7637795275590551,"duration":0.21223958333333215},{"name":"C#5","midi":73,"time":29.48958333333334,"velocity":0.7637795275590551,"duration":0.21223958333333215},{"name":"A3","midi":57,"time":29.70442708333334,"velocity":0.7637795275590551,"duration":0.42708333333333215},{"name":"B4","midi":71,"time":29.70442708333334,"velocity":0.7637795275590551,"duration":0.21223958333333215},{"name":"C#5","midi":73,"time":29.91927083333334,"velocity":0.7637795275590551,"duration":0.21223958333333215},{"name":"G3","midi":55,"time":30.13411458333334,"velocity":0.7637795275590551,"duration":0.8567708333333321},{"name":"B3","midi":59,"time":30.13411458333334,"velocity":0.7637795275590551,"duration":1.0716145833333321},{"name":"D5","midi":74,"time":30.13411458333334,"velocity":0.7637795275590551,"duration":0.21223958333333215},{"name":"C#5","midi":73,"time":30.34895833333334,"velocity":0.7637795275590551,"duration":0.21223958333333215},{"name":"D5","midi":74,"time":30.56380208333334,"velocity":0.7637795275590551,"duration":0.21223958333333215},{"name":"E5","midi":76,"time":30.77864583333334,"velocity":0.7637795275590551,"duration":0.21223958333333215},{"name":"F#3","midi":54,"time":30.99348958333334,"velocity":0.7637795275590551,"duration":2.575520833333325},{"name":"F#5","midi":78,"time":30.99348958333334,"velocity":0.7637795275590551,"duration":0.21223958333333215},{"name":"A#3","midi":58,"time":31.20833333333334,"velocity":0.7637795275590551,"duration":0.21223958333333215},{"name":"E5","midi":76,"time":31.20833333333334,"velocity":0.7637795275590551,"duration":0.21223958333333215},{"name":"B3","midi":59,"time":31.42317708333334,"velocity":0.7637795275590551,"duration":0.21223958333333215},{"name":"D5","midi":74,"time":31.42317708333334,"velocity":0.7637795275590551,"duration":0.21223958333333215},{"name":"C#4","midi":61,"time":31.63802083333334,"velocity":0.7637795275590551,"duration":0.21223958333333215},{"name":"E5","midi":76,"time":31.63802083333334,"velocity":0.7637795275590551,"duration":0.21223958333333215},{"name":"D4","midi":62,"time":31.85286458333334,"velocity":0.7637795275590551,"duration":0.21223958333333215},{"name":"F#5","midi":78,"time":31.85286458333334,"velocity":0.7637795275590551,"duration":0.49479166666666075},{"name":"E4","midi":64,"time":32.067708333333336,"velocity":0.7637795275590551,"duration":0.2122395833333357},{"name":"D4","midi":62,"time":32.282552083333336,"velocity":0.7637795275590551,"duration":0.2122395833333286},{"name":"A4","midi":69,"time":32.282552083333336,"velocity":0.7637795275590551,"duration":0.4270833333333286},{"name":"C#4","midi":61,"time":32.49739583333333,"velocity":0.7637795275590551,"duration":0.2122395833333357},{"name":"B3","midi":59,"time":32.71223958333333,"velocity":0.7637795275590551,"duration":0.2122395833333357},{"name":"G#4","midi":68,"time":32.71223958333333,"velocity":0.7637795275590551,"duration":0.4270833333333357},{"name":"G#3","midi":56,"time":32.92708333333333,"velocity":0.7637795275590551,"duration":0.2122395833333357},{"name":"A#3","midi":58,"time":33.14192708333333,"velocity":0.7637795275590551,"duration":0.2122395833333357},{"name":"C#5","midi":73,"time":33.14192708333333,"velocity":0.7637795275590551,"duration":0.2122395833333357},{"name":"B3","midi":59,"time":33.35677083333333,"velocity":0.7637795275590551,"duration":0.2122395833333357},{"name":"D5","midi":74,"time":33.35677083333333,"velocity":0.7637795275590551,"duration":0.2122395833333357},{"name":"E3","midi":52,"time":33.57161458333333,"velocity":0.7637795275590551,"duration":1.7161458333333357},{"name":"C#4","midi":61,"time":33.57161458333333,"velocity":0.7637795275590551,"duration":0.2122395833333357},{"name":"E5","midi":76,"time":33.57161458333333,"velocity":0.7637795275590551,"duration":0.4817708333333357},{"name":"D4","midi":62,"time":33.78645833333333,"velocity":0.7637795275590551,"duration":0.2122395833333357},{"name":"C#4","midi":61,"time":34.00130208333333,"velocity":0.7637795275590551,"duration":0.2122395833333357},{"name":"G4","midi":67,"time":34.00130208333333,"velocity":0.7637795275590551,"duration":0.4270833333333357},{"name":"B3","midi":59,"time":34.21614583333333,"velocity":0.7637795275590551,"duration":0.2122395833333357},{"name":"A#3","midi":58,"time":34.43098958333333,"velocity":0.7637795275590551,"duration":0.2122395833333357},{"name":"F#4","midi":66,"time":34.43098958333333,"velocity":0.7637795275590551,"duration":0.4270833333333357},{"name":"F#3","midi":54,"time":34.64583333333333,"velocity":0.7637795275590551,"duration":0.2122395833333357},{"name":"G#3","midi":56,"time":34.86067708333333,"velocity":0.7637795275590551,"duration":0.2122395833333357},{"name":"B4","midi":71,"time":34.86067708333333,"velocity":0.7637795275590551,"duration":0.2122395833333357},{"name":"A#3","midi":58,"time":35.07552083333333,"velocity":0.7637795275590551,"duration":0.2122395833333357},{"name":"C#5","midi":73,"time":35.07552083333333,"velocity":0.7637795275590551,"duration":0.2122395833333357},{"name":"B3","midi":59,"time":35.29036458333333,"velocity":0.7637795275590551,"duration":1.0716145833333357},{"name":"D5","midi":74,"time":35.29036458333333,"velocity":0.7637795275590551,"duration":0.4270833333333357},{"name":"D3","midi":50,"time":35.50520833333333,"velocity":0.7637795275590551,"duration":0.2122395833333357},{"name":"E3","midi":52,"time":35.72005208333333,"velocity":0.7637795275590551,"duration":0.2122395833333357},{"name":"F#4","midi":66,"time":35.72005208333333,"velocity":0.7637795275590551,"duration":0.4270833333333357},{"name":"F#3","midi":54,"time":35.93489583333333,"velocity":0.7637795275590551,"duration":0.2122395833333357},{"name":"G3","midi":55,"time":36.14973958333333,"velocity":0.7637795275590551,"duration":0.8567708333333357},{"name":"E4","midi":64,"time":36.14973958333333,"velocity":0.7637795275590551,"duration":0.2122395833333357},{"name":"B3","midi":59,"time":36.36458333333333,"velocity":0.7637795275590551,"duration":0.2122395833333357},{"name":"D5","midi":74,"time":36.36458333333333,"velocity":0.7637795275590551,"duration":0.2122395833333357},{"name":"C#4","midi":61,"time":36.57942708333333,"velocity":0.7637795275590551,"duration":0.2122395833333357},{"name":"C#5","midi":73,"time":36.57942708333333,"velocity":0.7637795275590551,"duration":0.2122395833333357},{"name":"D4","midi":62,"time":36.79427083333333,"velocity":0.7637795275590551,"duration":0.2122395833333357},{"name":"B4","midi":71,"time":36.79427083333333,"velocity":0.7637795275590551,"duration":0.2122395833333357},{"name":"F#3","midi":54,"time":37.00911458333333,"velocity":0.7637795275590551,"duration":0.8567708333333357},{"name":"E4","midi":64,"time":37.00911458333333,"velocity":0.7637795275590551,"duration":0.4270833333333357},{"name":"A#4","midi":70,"time":37.00911458333333,"velocity":0.7637795275590551,"duration":0.2122395833333357},{"name":"G5","midi":79,"time":37.22395833333333,"velocity":0.7637795275590551,"duration":0.2122395833333357},{"name":"A#3","midi":58,"time":37.43880208333333,"velocity":0.7637795275590551,"duration":0.4270833333333357},{"name":"F#5","midi":78,"time":37.43880208333333,"velocity":0.7637795275590551,"duration":0.2122395833333357},{"name":"E5","midi":76,"time":37.65364583333333,"velocity":0.7637795275590551,"duration":0.2122395833333357},{"name":"B2","midi":47,"time":37.86848958333333,"velocity":0.7637795275590551,"duration":2.5755208333333357},{"name":"B3","midi":59,"time":37.86848958333333,"velocity":0.7637795275590551,"duration":0.4270833333333357},{"name":"D5","midi":74,"time":37.86848958333333,"velocity":0.7637795275590551,"duration":0.2122395833333357},{"name":"C#5","midi":73,"time":38.08333333333333,"velocity":0.7637795275590551,"duration":0.2122395833333357},{"name":"A3","midi":57,"time":38.29817708333333,"velocity":0.7637795275590551,"duration":0.4270833333333357},{"name":"B4","midi":71,"time":38.29817708333333,"velocity":0.7637795275590551,"duration":0.2122395833333357},{"name":"C#5","midi":73,"time":38.51302083333333,"velocity":0.7637795275590551,"duration":0.2122395833333357},{"name":"G#3","midi":56,"time":38.72786458333333,"velocity":0.7637795275590551,"duration":0.4270833333333357},{"name":"D5","midi":74,"time":38.72786458333333,"velocity":0.7637795275590551,"duration":0.2122395833333357},{"name":"B4","midi":71,"time":38.94270833333333,"velocity":0.7637795275590551,"duration":0.2122395833333357},{"name":"F#3","midi":54,"time":39.15755208333333,"velocity":0.7637795275590551,"duration":0.4270833333333357},{"name":"C#5","midi":73,"time":39.15755208333333,"velocity":0.7637795275590551,"duration":0.2122395833333357},{"name":"D5","midi":74,"time":39.37239583333333,"velocity":0.7637795275590551,"duration":0.2122395833333357},{"name":"G#3","midi":56,"time":39.58723958333333,"velocity":0.7637795275590551,"duration":1.0716145833333357},{"name":"F4","midi":65,"time":39.58723958333333,"velocity":0.7637795275590551,"duration":0.2122395833333357},{"name":"G#4","midi":68,"time":39.80208333333333,"velocity":0.7637795275590551,"duration":0.2122395833333357},{"name":"A4","midi":69,"time":40.01692708333333,"velocity":0.7637795275590551,"duration":0.2122395833333357},{"name":"B4","midi":71,"time":40.23177083333333,"velocity":0.7637795275590551,"duration":0.2122395833333357},{"name":"A2","midi":45,"time":40.44661458333333,"velocity":0.7637795275590551,"duration":1.9309895833333357},{"name":"C#5","midi":73,"time":40.44661458333333,"velocity":0.7637795275590551,"duration":1.0716145833333357},{"name":"G#4","midi":68,"time":40.66145833333333,"velocity":0.7637795275590551,"duration":0.2122395833333357},{"name":"F#4","midi":66,"time":40.87630208333333,"velocity":0.7637795275590551,"duration":0.2122395833333357},{"name":"E4","midi":64,"time":41.09114583333333,"velocity":0.7637795275590551,"duration":0.2122395833333357},{"name":"D#4","midi":63,"time":41.30598958333333,"velocity":0.7637795275590551,"duration":1.0716145833333357},{"name":"F#4","midi":66,"time":41.52083333333333,"velocity":0.7637795275590551,"duration":0.2122395833333357},{"name":"G#4","midi":68,"time":41.73567708333333,"velocity":0.7637795275590551,"duration":0.2122395833333357},{"name":"A4","midi":69,"time":41.95052083333333,"velocity":0.7637795275590551,"duration":0.2122395833333357},{"name":"B4","midi":71,"time":42.16536458333333,"velocity":0.7637795275590551,"duration":1.0716145833333357},{"name":"A3","midi":57,"time":42.38020833333333,"velocity":0.7637795275590551,"duration":0.2122395833333357},{"name":"F#4","midi":66,"time":42.38020833333333,"velocity":0.7637795275590551,"duration":0.2122395833333357},{"name":"G#3","midi":56,"time":42.59505208333333,"velocity":0.7637795275590551,"duration":0.2122395833333357},{"name":"E4","midi":64,"time":42.59505208333333,"velocity":0.7637795275590551,"duration":0.2122395833333357},{"name":"F#3","midi":54,"time":42.80989583333333,"velocity":0.7637795275590551,"duration":0.2122395833333357},{"name":"D4","midi":62,"time":42.80989583333333,"velocity":0.7637795275590551,"duration":0.2122395833333357},{"name":"F3","midi":53,"time":43.02473958333333,"velocity":0.7637795275590551,"duration":0.2122395833333357},{"name":"C#4","midi":61,"time":43.02473958333333,"velocity":0.7637795275590551,"duration":1.0716145833333357},{"name":"C#3","midi":49,"time":43.23958333333333,"velocity":0.7637795275590551,"duration":0.2122395833333357},{"name":"F4","midi":65,"time":43.23958333333333,"velocity":0.7637795275590551,"duration":0.2122395833333357},{"name":"D#3","midi":51,"time":43.45442708333333,"velocity":0.7637795275590551,"duration":0.2122395833333357},{"name":"F#4","midi":66,"time":43.45442708333333,"velocity":0.7637795275590551,"duration":0.2122395833333357},{"name":"F3","midi":53,"time":43.66927083333333,"velocity":0.7637795275590551,"duration":0.2122395833333357},{"name":"G#4","midi":68,"time":43.66927083333333,"velocity":0.7637795275590551,"duration":0.2122395833333357},{"name":"F#3","midi":54,"time":43.88411458333333,"velocity":0.7637795275590551,"duration":0.4270833333333357},{"name":"A4","midi":69,"time":43.88411458333333,"velocity":0.7637795275590551,"duration":1.0716145833333357},{"name":"E4","midi":64,"time":44.09895833333333,"velocity":0.7637795275590551,"duration":0.2122395833333357},{"name":"B2","midi":47,"time":44.31380208333333,"velocity":0.7637795275590551,"duration":0.2122395833333357},{"name":"D4","midi":62,"time":44.31380208333333,"velocity":0.7637795275590551,"duration":0.2122395833333357},{"name":"C#3","midi":49,"time":44.52864583333333,"velocity":0.7637795275590551,"duration":0.2122395833333357},{"name":"C#4","midi":61,"time":44.52864583333333,"velocity":0.7637795275590551,"duration":0.2122395833333357},{"name":"D3","midi":50,"time":44.74348958333333,"velocity":0.7637795275590551,"duration":0.4270833333333357},{"name":"B3","midi":59,"time":44.74348958333333,"velocity":0.7637795275590551,"duration":1.0716145833333286},{"name":"A4","midi":69,"time":44.95833333333333,"velocity":0.7637795275590551,"duration":0.2122395833333357},{"name":"B2","midi":47,"time":45.17317708333333,"velocity":0.7637795275590551,"duration":0.4270833333333357},{"name":"G#4","midi":68,"time":45.17317708333333,"velocity":0.7637795275590551,"duration":0.2122395833333357},{"name":"F#4","midi":66,"time":45.38802083333333,"velocity":0.7637795275590551,"duration":0.203125},{"name":"C#3","midi":49,"time":45.60286458333333,"velocity":0.7637795275590551,"duration":0.4270833333333215},{"name":"F#4","midi":66,"time":45.60286458333333,"velocity":0.7637795275590551,"duration":0.0755208333333286},{"name":"F4","midi":65,"time":45.67578124999999,"velocity":0.7637795275590551,"duration":0.0755208333333286},{"name":"F#4","midi":66,"time":45.74869791666666,"velocity":0.7637795275590551,"duration":0.0755208333333286},{"name":"D4","midi":62,"time":45.81770833333332,"velocity":0.7637795275590551,"duration":0.2122395833333286},{"name":"F4","midi":65,"time":45.82161458333332,"velocity":0.7637795275590551,"duration":0.6419270833333286},{"name":"C#2","midi":37,"time":46.032552083333314,"velocity":0.7637795275590551,"duration":0.4270833333333357},{"name":"C#4","midi":61,"time":46.032552083333314,"velocity":0.7637795275590551,"duration":0.2122395833333357},{"name":"B3","midi":59,"time":46.247395833333314,"velocity":0.7637795275590551,"duration":0.2122395833333357},{"name":"F#2","midi":42,"time":46.462239583333314,"velocity":0.7637795275590551,"duration":0.6263020833333357},{"name":"A3","midi":57,"time":46.462239583333314,"velocity":0.7637795275590551,"duration":0.4244791666666714},{"name":"F#4","midi":66,"time":46.462239583333314,"velocity":0.7637795275590551,"duration":0.4270833333333357},{"name":"F#5","midi":78,"time":46.891927083333314,"velocity":0.7637795275590551,"duration":0.2122395833333357},{"name":"G5","midi":79,"time":47.106770833333314,"velocity":0.7637795275590551,"duration":0.2122395833333357},{"name":"A5","midi":81,"time":47.321614583333314,"velocity":0.7637795275590551,"duration":0.42578125},{"name":"F#3","midi":54,"time":47.74999999999998,"velocity":0.7637795275590551,"duration":0.2122395833333357},{"name":"C5","midi":72,"time":47.74999999999998,"velocity":0.7637795275590551,"duration":0.4270833333333357},{"name":"G3","midi":55,"time":47.96484374999998,"velocity":0.7637795275590551,"duration":0.2122395833333357},{"name":"A3","midi":57,"time":48.17968749999998,"velocity":0.7637795275590551,"duration":0.2122395833333357},{"name":"B4","midi":71,"time":48.17968749999998,"velocity":0.7637795275590551,"duration":0.8567708333333357},{"name":"G3","midi":55,"time":48.39453124999998,"velocity":0.7637795275590551,"duration":0.2122395833333357},{"name":"A3","midi":57,"time":48.60937499999998,"velocity":0.7637795275590551,"duration":0.2122395833333357},{"name":"F#4","midi":66,"time":48.60937499999998,"velocity":0.7637795275590551,"duration":0.2122395833333357},{"name":"B3","midi":59,"time":48.82421874999998,"velocity":0.7637795275590551,"duration":0.2122395833333357},{"name":"G4","midi":67,"time":48.82421874999998,"velocity":0.7637795275590551,"duration":0.2122395833333357},{"name":"C4","midi":60,"time":49.03906249999998,"velocity":0.7637795275590551,"duration":0.2122395833333357},{"name":"A4","midi":69,"time":49.03906249999998,"velocity":0.7637795275590551,"duration":0.4270833333333357},{"name":"F#5","midi":78,"time":49.03906249999998,"velocity":0.7637795275590551,"duration":1.0716145833333357},{"name":"F#3","midi":54,"time":49.25390624999998,"velocity":0.7637795275590551,"duration":0.2122395833333357},{"name":"G3","midi":55,"time":49.46874999999998,"velocity":0.7637795275590551,"duration":0.2122395833333357},{"name":"C4","midi":60,"time":49.46874999999998,"velocity":0.7637795275590551,"duration":0.4270833333333357},{"name":"A3","midi":57,"time":49.68359374999998,"velocity":0.7637795275590551,"duration":0.2122395833333357},{"name":"D#3","midi":51,"time":49.89843749999998,"velocity":0.7637795275590551,"duration":0.4270833333333357},{"name":"B3","midi":59,"time":49.89843749999998,"velocity":0.7637795275590551,"duration":2.1458333333333357},{"name":"G5","midi":79,"time":50.11328124999998,"velocity":0.7637795275590551,"duration":0.2122395833333357},{"name":"F#3","midi":54,"time":50.32812499999998,"velocity":0.7637795275590551,"duration":0.2122395833333357},{"name":"F#5","midi":78,"time":50.32812499999998,"velocity":0.7637795275590551,"duration":0.2122395833333357},{"name":"G3","midi":55,"time":50.54296874999998,"velocity":0.7637795275590551,"duration":0.2122395833333357},{"name":"E5","midi":76,"time":50.54296874999998,"velocity":0.7637795275590551,"duration":0.2122395833333357},{"name":"A3","midi":57,"time":50.75781249999998,"velocity":0.7637795275590551,"duration":0.4270833333333357},{"name":"D#5","midi":75,"time":50.75781249999998,"velocity":0.7637795275590551,"duration":0.2122395833333357},{"name":"C6","midi":84,"time":50.97265624999998,"velocity":0.7637795275590551,"duration":0.2122395833333357},{"name":"D#3","midi":51,"time":51.18749999999998,"velocity":0.7637795275590551,"duration":0.4270833333333357},{"name":"B5","midi":83,"time":51.18749999999998,"velocity":0.7637795275590551,"duration":0.2122395833333357},{"name":"A5","midi":81,"time":51.40234374999998,"velocity":0.7637795275590551,"duration":0.2122395833333357},{"name":"E3","midi":52,"time":51.61718749999998,"velocity":0.7637795275590551,"duration":0.8502604166666643},{"name":"G5","midi":79,"time":51.61718749999998,"velocity":0.7637795275590551,"duration":0.2122395833333357},{"name":"A5","midi":81,"time":51.83203124999998,"velocity":0.7637795275590551,"duration":0.2122395833333357},{"name":"E4","midi":64,"time":52.04687499999998,"velocity":0.7637795275590551,"duration":0.2122395833333357},{"name":"G5","midi":79,"time":52.04687499999998,"velocity":0.7637795275590551,"duration":0.2122395833333357},{"name":"F#4","midi":66,"time":52.26171874999998,"velocity":0.7637795275590551,"duration":0.2122395833333286},{"name":"F#5","midi":78,"time":52.26171874999998,"velocity":0.7637795275590551,"duration":0.2122395833333286},{"name":"G4","midi":67,"time":52.47656249999997,"velocity":0.7637795275590551,"duration":0.4270833333333357},{"name":"E5","midi":76,"time":52.47656249999997,"velocity":0.7637795275590551,"duration":0.2122395833333357},{"name":"F#5","midi":78,"time":52.69140624999997,"velocity":0.7637795275590551,"duration":0.2122395833333357},{"name":"E3","midi":52,"time":52.90624999999997,"velocity":0.7637795275590551,"duration":0.2122395833333357},{"name":"B3","midi":59,"time":52.90624999999997,"velocity":0.7637795275590551,"duration":0.4270833333333357},{"name":"E5","midi":76,"time":52.90624999999997,"velocity":0.7637795275590551,"duration":0.2122395833333357},{"name":"F#3","midi":54,"time":53.12109374999997,"velocity":0.7637795275590551,"duration":0.2122395833333357},{"name":"D5","midi":74,"time":53.12109374999997,"velocity":0.7637795275590551,"duration":0.2122395833333357},{"name":"G3","midi":55,"time":53.33593749999997,"velocity":0.7637795275590551,"duration":0.2122395833333357},{"name":"A3","midi":57,"time":53.33593749999997,"velocity":0.7637795275590551,"duration":0.6106770833333357},{"name":"C#5","midi":73,"time":53.33593749999997,"velocity":0.7637795275590551,"duration":0.4270833333333357},{"name":"F#3","midi":54,"time":53.55078124999997,"velocity":0.7637795275590551,"duration":0.2122395833333357},{"name":"G3","midi":55,"time":53.76562499999997,"velocity":0.7637795275590551,"duration":0.2122395833333357},{"name":"E5","midi":76,"time":53.76562499999997,"velocity":0.7637795275590551,"duration":0.2122395833333357},{"name":"A3","midi":57,"time":53.98046874999997,"velocity":0.7637795275590551,"duration":0.2122395833333357},{"name":"F#5","midi":78,"time":53.98046874999997,"velocity":0.7637795275590551,"duration":0.2122395833333357},{"name":"B3","midi":59,"time":54.19531249999997,"velocity":0.7637795275590551,"duration":0.2122395833333357},{"name":"E4","midi":64,"time":54.19531249999997,"velocity":0.7637795275590551,"duration":1.0716145833333357},{"name":"G5","midi":79,"time":54.19531249999997,"velocity":0.7637795275590551,"duration":0.4270833333333357},{"name":"E3","midi":52,"time":54.41015624999997,"velocity":0.7637795275590551,"duration":0.2122395833333357},{"name":"F#3","midi":54,"time":54.62499999999997,"velocity":0.7637795275590551,"duration":0.2122395833333357},{"name":"B4","midi":71,"time":54.62499999999997,"velocity":0.7637795275590551,"duration":0.4270833333333357},{"name":"G3","midi":55,"time":54.83984374999997,"velocity":0.7637795275590551,"duration":0.2122395833333357},{"name":"C#3","midi":49,"time":55.05468749999997,"velocity":0.7637795275590551,"duration":0.4270833333333357},{"name":"A4","midi":69,"time":55.05468749999997,"velocity":0.7637795275590551,"duration":1.07421875},{"name":"F#4","midi":66,"time":55.26953124999997,"velocity":0.7637795275590551,"duration":0.2122395833333357},{"name":"E3","midi":52,"time":55.48437499999997,"velocity":0.7637795275590551,"duration":0.2122395833333357},{"name":"E4","midi":64,"time":55.48437499999997,"velocity":0.7637795275590551,"duration":0.2122395833333357},{"name":"F#3","midi":54,"time":55.69921874999997,"velocity":0.7637795275590551,"duration":0.2122395833333357},{"name":"D4","midi":62,"time":55.69921874999997,"velocity":0.7637795275590551,"duration":0.2122395833333357},{"name":"G3","midi":55,"time":55.91406249999997,"velocity":0.7637795275590551,"duration":0.4270833333333357},{"name":"C#4","midi":61,"time":55.91406249999997,"velocity":0.7637795275590551,"duration":0.2122395833333357},{"name":"B4","midi":71,"time":56.12890624999997,"velocity":0.7637795275590551,"duration":0.2122395833333357},{"name":"C#3","midi":49,"time":56.34374999999997,"velocity":0.7637795275590551,"duration":0.4270833333333357},{"name":"A4","midi":69,"time":56.34374999999997,"velocity":0.7637795275590551,"duration":0.2122395833333357},{"name":"G4","midi":67,"time":56.55859374999997,"velocity":0.7637795275590551,"duration":0.2122395833333357},{"name":"D3","midi":50,"time":56.77343749999997,"velocity":0.7637795275590551,"duration":0.4270833333333286},{"name":"F#4","midi":66,"time":56.77343749999997,"velocity":0.7637795275590551,"duration":0.4244791666666643},{"name":"G4","midi":67,"time":56.98828124999997,"velocity":0.7637795275590551,"duration":0.2122395833333286},{"name":"A2","midi":45,"time":57.203124999999964,"velocity":0.7637795275590551,"duration":0.2122395833333357},{"name":"F#4","midi":66,"time":57.203124999999964,"velocity":0.7637795275590551,"duration":0.2122395833333357},{"name":"B2","midi":47,"time":57.417968749999964,"velocity":0.7637795275590551,"duration":0.2122395833333357},{"name":"G4","midi":67,"time":57.417968749999964,"velocity":0.7637795275590551,"duration":0.2122395833333357},{"name":"C3","midi":48,"time":57.632812499999964,"velocity":0.7637795275590551,"duration":0.4270833333333357},{"name":"A4","midi":69,"time":57.632812499999964,"velocity":0.7637795275590551,"duration":0.2122395833333357},{"name":"G4","midi":67,"time":57.847656249999964,"velocity":0.7637795275590551,"duration":0.2122395833333357},{"name":"E2","midi":40,"time":58.062499999999964,"velocity":0.7637795275590551,"duration":0.4270833333333357},{"name":"A4","midi":69,"time":58.062499999999964,"velocity":0.7637795275590551,"duration":0.2122395833333357},{"name":"B4","midi":71,"time":58.277343749999964,"velocity":0.7637795275590551,"duration":0.2122395833333357},{"name":"D2","midi":38,"time":58.492187499999964,"velocity":0.7637795275590551,"duration":3.4348958333333357},{"name":"C5","midi":72,"time":58.492187499999964,"velocity":0.7637795275590551,"duration":0.2122395833333357},{"name":"B4","midi":71,"time":58.707031249999964,"velocity":0.7637795275590551,"duration":0.2122395833333357},{"name":"A4","midi":69,"time":58.921874999999964,"velocity":0.7637795275590551,"duration":0.2122395833333357},{"name":"C5","midi":72,"time":58.921874999999964,"velocity":0.7637795275590551,"duration":0.2122395833333357},{"name":"B4","midi":71,"time":59.136718749999964,"velocity":0.7637795275590551,"duration":0.2122395833333357},{"name":"D5","midi":74,"time":59.136718749999964,"velocity":0.7637795275590551,"duration":0.2122395833333357},{"name":"C5","midi":72,"time":59.351562499999964,"velocity":0.7637795275590551,"duration":0.4270833333333357},{"name":"E5","midi":76,"time":59.351562499999964,"velocity":0.7637795275590551,"duration":0.2122395833333357},{"name":"D5","midi":74,"time":59.566406249999964,"velocity":0.7637795275590551,"duration":0.2122395833333357},{"name":"E4","midi":64,"time":59.781249999999964,"velocity":0.7637795275590551,"duration":0.4270833333333357},{"name":"C5","midi":72,"time":59.781249999999964,"velocity":0.7637795275590551,"duration":0.2122395833333357},{"name":"B4","midi":71,"time":59.996093749999964,"velocity":0.7637795275590551,"duration":0.2122395833333357},{"name":"F#4","midi":66,"time":60.210937499999964,"velocity":0.7637795275590551,"duration":1.2864583333333357},{"name":"A4","midi":69,"time":60.210937499999964,"velocity":0.7637795275590551,"duration":0.2122395833333357},{"name":"G4","midi":67,"time":60.425781249999964,"velocity":0.7637795275590551,"duration":0.2122395833333357},{"name":"A4","midi":69,"time":60.640624999999964,"velocity":0.7637795275590551,"duration":0.2122395833333357},{"name":"B4","midi":71,"time":60.855468749999964,"velocity":0.7637795275590551,"duration":0.2122395833333357},{"name":"C5","midi":72,"time":61.070312499999964,"velocity":0.7637795275590551,"duration":0.2122395833333357},{"name":"B4","midi":71,"time":61.285156249999964,"velocity":0.7637795275590551,"duration":0.2122395833333357},{"name":"F#4","midi":66,"time":61.499999999999964,"velocity":0.7637795275590551,"duration":0.4270833333333357},{"name":"C5","midi":72,"time":61.499999999999964,"velocity":0.7637795275590551,"duration":0.2122395833333357},{"name":"D5","midi":74,"time":61.714843749999964,"velocity":0.7637795275590551,"duration":0.2122395833333357},{"name":"G2","midi":43,"time":61.929687499999964,"velocity":0.7637795275590551,"duration":0.4270833333333286},{"name":"G4","midi":67,"time":61.929687499999964,"velocity":0.7637795275590551,"duration":0.4244791666666643},{"name":"B4","midi":71,"time":61.929687499999964,"velocity":0.7637795275590551,"duration":0.2122395833333357},{"name":"A4","midi":69,"time":62.144531249999964,"velocity":0.7637795275590551,"duration":0.2122395833333286},{"name":"B3","midi":59,"time":62.35937499999996,"velocity":0.7637795275590551,"duration":0.2122395833333357},{"name":"G4","midi":67,"time":62.35937499999996,"velocity":0.7637795275590551,"duration":0.2122395833333357},{"name":"C4","midi":60,"time":62.57421874999996,"velocity":0.7637795275590551,"duration":0.2122395833333357},{"name":"A4","midi":69,"time":62.57421874999996,"velocity":0.7637795275590551,"duration":0.2122395833333357},{"name":"D4","midi":62,"time":62.78906249999996,"velocity":0.7637795275590551,"duration":0.4270833333333357},{"name":"B4","midi":71,"time":62.78906249999996,"velocity":0.7637795275590551,"duration":0.2122395833333357},{"name":"C5","midi":72,"time":63.00390624999996,"velocity":0.7637795275590551,"duration":0.2122395833333357},{"name":"F3","midi":53,"time":63.21874999999996,"velocity":0.7637795275590551,"duration":0.4270833333333357},{"name":"B4","midi":71,"time":63.21874999999996,"velocity":0.7637795275590551,"duration":0.2122395833333357},{"name":"D5","midi":74,"time":63.21874999999996,"velocity":0.7637795275590551,"duration":1.2864583333333286},{"name":"A4","midi":69,"time":63.43359374999996,"velocity":0.7637795275590551,"duration":0.2122395833333357},{"name":"E3","midi":52,"time":63.64843749999996,"velocity":0.7637795275590551,"duration":0.4270833333333286},{"name":"G#4","midi":68,"time":63.64843749999996,"velocity":0.7637795275590551,"duration":0.2122395833333357},{"name":"E4","midi":64,"time":63.86328124999996,"velocity":0.7637795275590551,"duration":0.2122395833333286},{"name":"A3","midi":57,"time":64.07812499999996,"velocity":0.7637795275590551,"duration":0.2122395833333286},{"name":"F#4","midi":66,"time":64.07812499999996,"velocity":0.7637795275590551,"duration":0.2122395833333286},{"name":"B3","midi":59,"time":64.29296874999996,"velocity":0.7637795275590551,"duration":0.2122395833333286},{"name":"G#4","midi":68,"time":64.29296874999996,"velocity":0.7637795275590551,"duration":0.2122395833333286},{"name":"C4","midi":60,"time":64.50781249999996,"velocity":0.7637795275590551,"duration":0.4270833333333286},{"name":"A4","midi":69,"time":64.50781249999996,"velocity":0.7637795275590551,"duration":0.2122395833333286},{"name":"C5","midi":72,"time":64.50781249999996,"velocity":0.7637795275590551,"duration":1.7161458333333286},{"name":"B4","midi":71,"time":64.72265624999996,"velocity":0.7637795275590551,"duration":0.2122395833333286},{"name":"E3","midi":52,"time":64.93749999999996,"velocity":0.7637795275590551,"duration":0.4270833333333286},{"name":"A4","midi":69,"time":64.93749999999996,"velocity":0.7637795275590551,"duration":0.2122395833333286},{"name":"G4","midi":67,"time":65.15234374999996,"velocity":0.7637795275590551,"duration":0.2122395833333286},{"name":"D3","midi":50,"time":65.36718749999996,"velocity":0.7637795275590551,"duration":0.4270833333333286},{"name":"F#4","midi":66,"time":65.36718749999996,"velocity":0.7637795275590551,"duration":0.2122395833333286},{"name":"D4","midi":62,"time":65.58203124999996,"velocity":0.7637795275590551,"duration":0.2122395833333286},{"name":"G3","midi":55,"time":65.79687499999996,"velocity":0.7637795275590551,"duration":0.2122395833333286},{"name":"E4","midi":64,"time":65.79687499999996,"velocity":0.7637795275590551,"duration":0.2122395833333286},{"name":"A3","midi":57,"time":66.01171874999996,"velocity":0.7637795275590551,"duration":0.2122395833333286},{"name":"F#4","midi":66,"time":66.01171874999996,"velocity":0.7637795275590551,"duration":0.2122395833333286},{"name":"B3","midi":59,"time":66.22656249999996,"velocity":0.7637795275590551,"duration":0.4270833333333286},{"name":"G4","midi":67,"time":66.22656249999996,"velocity":0.7637795275590551,"duration":0.2122395833333286},{"name":"B4","midi":71,"time":66.22656249999996,"velocity":0.7637795275590551,"duration":1.2864583333333428},{"name":"A4","midi":69,"time":66.44140624999996,"velocity":0.7637795275590551,"duration":0.2122395833333286},{"name":"D3","midi":50,"time":66.65624999999996,"velocity":0.7637795275590551,"duration":0.4270833333333286},{"name":"G4","midi":67,"time":66.65624999999996,"velocity":0.7637795275590551,"duration":0.2122395833333286},{"name":"F#4","midi":66,"time":66.87109374999996,"velocity":0.7637795275590551,"duration":0.2122395833333286},{"name":"C3","midi":48,"time":67.08593749999996,"velocity":0.7637795275590551,"duration":0.2122395833333286},{"name":"E4","midi":64,"time":67.08593749999996,"velocity":0.7637795275590551,"duration":0.4244791666666714},{"name":"B3","midi":59,"time":67.30078124999996,"velocity":0.7637795275590551,"duration":0.2122395833333428},{"name":"A3","midi":57,"time":67.51562499999997,"velocity":0.7637795275590551,"duration":0.2122395833333286},{"name":"G5","midi":79,"time":67.51562499999997,"velocity":0.7637795275590551,"duration":0.4270833333333286},{"name":"G3","midi":55,"time":67.73046874999997,"velocity":0.7637795275590551,"duration":0.2122395833333286},{"name":"F#3","midi":54,"time":67.94531249999997,"velocity":0.7637795275590551,"duration":0.2122395833333286},{"name":"A4","midi":69,"time":67.94531249999997,"velocity":0.7637795275590551,"duration":0.4270833333333286},{"name":"E4","midi":64,"time":68.16015624999997,"velocity":0.7637795275590551,"duration":0.2122395833333286},{"name":"D4","midi":62,"time":68.37499999999997,"velocity":0.7637795275590551,"duration":0.2135416666666714},{"name":"G5","midi":79,"time":68.37499999999997,"velocity":0.7637795275590551,"duration":0.10546875},{"name":"F#5","midi":78,"time":68.48307291666664,"velocity":0.7637795275590551,"duration":0.10546875},{"name":"C4","midi":60,"time":68.59114583333331,"velocity":0.7637795275590551,"duration":0.2135416666666714},{"name":"E5","midi":76,"time":68.59114583333331,"velocity":0.7637795275590551,"duration":0.10546875},{"name":"F#5","midi":78,"time":68.69921874999999,"velocity":0.7637795275590551,"duration":0.10546875},{"name":"B3","midi":59,"time":68.80729166666666,"velocity":0.7637795275590551,"duration":0.2122395833333286},{"name":"G5","midi":79,"time":68.80729166666666,"velocity":0.7637795275590551,"duration":0.2122395833333286},{"name":"A3","midi":57,"time":69.02213541666666,"velocity":0.7637795275590551,"duration":0.2122395833333286},{"name":"D5","midi":74,"time":69.02213541666666,"velocity":0.7637795275590551,"duration":0.2122395833333286},{"name":"G3","midi":55,"time":69.23697916666666,"velocity":0.7637795275590551,"duration":0.2122395833333286},{"name":"E5","midi":76,"time":69.23697916666666,"velocity":0.7637795275590551,"duration":0.2122395833333286},{"name":"A3","midi":57,"time":69.45182291666666,"velocity":0.7637795275590551,"duration":0.2122395833333286},{"name":"F#5","midi":78,"time":69.45182291666666,"velocity":0.7637795275590551,"duration":0.2122395833333286},{"name":"B3","midi":59,"time":69.66666666666666,"velocity":0.7637795275590551,"duration":0.2122395833333286},{"name":"G5","midi":79,"time":69.66666666666666,"velocity":0.7637795275590551,"duration":0.2122395833333286},{"name":"A3","midi":57,"time":69.88151041666666,"velocity":0.7637795275590551,"duration":0.2122395833333286},{"name":"B5","midi":83,"time":69.88151041666666,"velocity":0.7637795275590551,"duration":0.2122395833333286},{"name":"B3","midi":59,"time":70.09635416666666,"velocity":0.7637795275590551,"duration":0.2122395833333286},{"name":"A5","midi":81,"time":70.09635416666666,"velocity":0.7637795275590551,"duration":0.2122395833333286},{"name":"C#4","midi":61,"time":70.31119791666666,"velocity":0.7637795275590551,"duration":0.2122395833333286},{"name":"G5","midi":79,"time":70.31119791666666,"velocity":0.7637795275590551,"duration":0.2122395833333286},{"name":"D4","midi":62,"time":70.52604166666666,"velocity":0.7637795275590551,"duration":0.8567708333333286},{"name":"F#5","midi":78,"time":70.52604166666666,"velocity":0.7637795275590551,"duration":0.2122395833333286},{"name":"E5","midi":76,"time":70.74088541666666,"velocity":0.7637795275590551,"duration":0.2122395833333286},{"name":"F#4","midi":66,"time":70.95572916666666,"velocity":0.7637795275590551,"duration":0.2122395833333286},{"name":"D5","midi":74,"time":70.95572916666666,"velocity":0.7637795275590551,"duration":0.2122395833333286},{"name":"G4","midi":67,"time":71.17057291666666,"velocity":0.7637795275590551,"duration":0.2122395833333286},{"name":"E5","midi":76,"time":71.17057291666666,"velocity":0.7637795275590551,"duration":0.2122395833333286},{"name":"A3","midi":57,"time":71.38541666666666,"velocity":0.7637795275590551,"duration":1.7161458333333286},{"name":"A4","midi":69,"time":71.38541666666666,"velocity":0.7637795275590551,"duration":0.4270833333333286},{"name":"F#5","midi":78,"time":71.38541666666666,"velocity":0.7637795275590551,"duration":0.2122395833333286},{"name":"G5","midi":79,"time":71.60026041666666,"velocity":0.7637795275590551,"duration":0.2122395833333286},{"name":"C4","midi":60,"time":71.81510416666666,"velocity":0.7637795275590551,"duration":0.4270833333333286},{"name":"F#5","midi":78,"time":71.81510416666666,"velocity":0.7637795275590551,"duration":0.2122395833333286},{"name":"E5","midi":76,"time":72.02994791666666,"velocity":0.7637795275590551,"duration":0.2122395833333286},{"name":"B3","midi":59,"time":72.24479166666666,"velocity":0.7637795275590551,"duration":0.4270833333333286},{"name":"D#5","midi":75,"time":72.24479166666666,"velocity":0.7637795275590551,"duration":0.2122395833333286},{"name":"B4","midi":71,"time":72.45963541666666,"velocity":0.7637795275590551,"duration":0.2122395833333286},{"name":"E4","midi":64,"time":72.67447916666666,"velocity":0.7637795275590551,"duration":0.2122395833333286},{"name":"C#5","midi":73,"time":72.67447916666666,"velocity":0.7637795275590551,"duration":0.2122395833333286},{"name":"F#4","midi":66,"time":72.88932291666666,"velocity":0.7637795275590551,"duration":0.2122395833333286},{"name":"D#5","midi":75,"time":72.88932291666666,"velocity":0.7637795275590551,"duration":0.2122395833333286},{"name":"G3","midi":55,"time":73.10416666666666,"velocity":0.7637795275590551,"duration":1.7161458333333286},{"name":"G4","midi":67,"time":73.10416666666666,"velocity":0.7637795275590551,"duration":0.4270833333333286},{"name":"E5","midi":76,"time":73.10416666666666,"velocity":0.7637795275590551,"duration":0.2122395833333286},{"name":"F#5","midi":78,"time":73.31901041666666,"velocity":0.7637795275590551,"duration":0.2122395833333286},{"name":"B3","midi":59,"time":73.53385416666666,"velocity":0.7637795275590551,"duration":0.4270833333333286},{"name":"E5","midi":76,"time":73.53385416666666,"velocity":0.7637795275590551,"duration":0.2122395833333286},{"name":"D5","midi":74,"time":73.74869791666666,"velocity":0.7637795275590551,"duration":0.2122395833333286},{"name":"A3","midi":57,"time":73.96354166666666,"velocity":0.7637795275590551,"duration":0.4270833333333286},{"name":"C#5","midi":73,"time":73.96354166666666,"velocity":0.7637795275590551,"duration":0.2122395833333286},{"name":"A4","midi":69,"time":74.17838541666666,"velocity":0.7637795275590551,"duration":0.2122395833333286},{"name":"D4","midi":62,"time":74.39322916666666,"velocity":0.7637795275590551,"duration":0.2122395833333286},{"name":"B4","midi":71,"time":74.39322916666666,"velocity":0.7637795275590551,"duration":0.2122395833333286},{"name":"E4","midi":64,"time":74.60807291666666,"velocity":0.7637795275590551,"duration":0.2122395833333286},{"name":"C#5","midi":73,"time":74.60807291666666,"velocity":0.7637795275590551,"duration":0.2122395833333286},{"name":"F#3","midi":54,"time":74.82291666666666,"velocity":0.7637795275590551,"duration":1.0716145833333286},{"name":"F#4","midi":66,"time":74.82291666666666,"velocity":0.7637795275590551,"duration":0.4270833333333286},{"name":"D5","midi":74,"time":74.82291666666666,"velocity":0.7637795275590551,"duration":0.2122395833333286},{"name":"E5","midi":76,"time":75.03776041666666,"velocity":0.7637795275590551,"duration":0.2122395833333286},{"name":"A3","midi":57,"time":75.25260416666666,"velocity":0.7637795275590551,"duration":0.4270833333333286},{"name":"D5","midi":74,"time":75.25260416666666,"velocity":0.7637795275590551,"duration":0.2122395833333286},{"name":"C#5","midi":73,"time":75.46744791666666,"velocity":0.7637795275590551,"duration":0.2122395833333286},{"name":"G3","midi":55,"time":75.68229166666666,"velocity":0.7637795275590551,"duration":0.2122395833333286},{"name":"B4","midi":71,"time":75.68229166666666,"velocity":0.7637795275590551,"duration":0.2122395833333286},{"name":"E3","midi":52,"time":75.89713541666666,"velocity":0.7637795275590551,"duration":0.2122395833333286},{"name":"F#4","midi":66,"time":75.89713541666666,"velocity":0.7637795275590551,"duration":0.2122395833333286},{"name":"A4","midi":69,"time":75.89713541666666,"velocity":0.7637795275590551,"duration":0.2122395833333286},{"name":"F#3","midi":54,"time":76.11197916666666,"velocity":0.7637795275590551,"duration":0.2122395833333286},{"name":"E4","midi":64,"time":76.11197916666666,"velocity":0.7637795275590551,"duration":0.2122395833333286},{"name":"G4","midi":67,"time":76.11197916666666,"velocity":0.7637795275590551,"duration":0.2122395833333286},{"name":"G3","midi":55,"time":76.32682291666666,"velocity":0.7637795275590551,"duration":0.2122395833333286},{"name":"D4","midi":62,"time":76.32682291666666,"velocity":0.7637795275590551,"duration":0.2122395833333286},{"name":"F#4","midi":66,"time":76.32682291666666,"velocity":0.7637795275590551,"duration":0.2122395833333286},{"name":"A3","midi":57,"time":76.54166666666666,"velocity":0.7637795275590551,"duration":0.2122395833333286},{"name":"C#4","midi":61,"time":76.54166666666666,"velocity":0.7637795275590551,"duration":0.2122395833333286},{"name":"E4","midi":64,"time":76.54166666666666,"velocity":0.7637795275590551,"duration":0.4270833333333286},{"name":"G3","midi":55,"time":76.75651041666666,"velocity":0.7637795275590551,"duration":0.2122395833333286},{"name":"B4","midi":71,"time":76.75651041666666,"velocity":0.7637795275590551,"duration":0.2122395833333286},{"name":"F#3","midi":54,"time":76.97135416666666,"velocity":0.7637795275590551,"duration":0.2122395833333286},{"name":"A4","midi":69,"time":76.97135416666666,"velocity":0.7637795275590551,"duration":0.2122395833333286},{"name":"C#5","midi":73,"time":76.97135416666666,"velocity":0.7637795275590551,"duration":0.4270833333333286},{"name":"E3","midi":52,"time":77.18619791666666,"velocity":0.7637795275590551,"duration":0.2122395833333286},{"name":"G4","midi":67,"time":77.18619791666666,"velocity":0.7637795275590551,"duration":0.2122395833333286},{"name":"D3","midi":50,"time":77.40104166666666,"velocity":0.7637795275590551,"duration":0.22265625},{"name":"F#4","midi":66,"time":77.40104166666666,"velocity":0.7637795275590551,"duration":0.4322916666666714},{"name":"D5","midi":74,"time":77.40104166666666,"velocity":0.7637795275590551,"duration":0.4322916666666714},{"name":"C#3","midi":49,"time":77.63020833333333,"velocity":0.7637795275590551,"duration":0.2252604166666714},{"name":"F#5","midi":78,"time":77.85677083333333,"velocity":0.7637795275590551,"duration":0.21484375},{"name":"A4","midi":69,"time":77.85677083333333,"velocity":0.7637795275590551,"duration":2.1875000000000426},{"name":"D3","midi":50,"time":77.85677083333333,"velocity":0.7637795275590551,"duration":0.21484375},{"name":"G5","midi":79,"time":78.07421875,"velocity":0.7637795275590551,"duration":0.21484375},{"name":"E3","midi":52,"time":78.07421875,"velocity":0.7637795275590551,"duration":0.21484375},{"name":"A5","midi":81,"time":78.29166666666667,"velocity":0.7637795275590551,"duration":0.4322916666666714},{"name":"F#3","midi":54,"time":78.29166666666667,"velocity":0.7637795275590551,"duration":0.21484375},{"name":"G3","midi":55,"time":78.50911458333334,"velocity":0.7637795275590551,"duration":0.21484375},{"name":"C5","midi":72,"time":78.72656250000001,"velocity":0.7637795275590551,"duration":0.4322916666666714},{"name":"F#3","midi":54,"time":78.72656250000001,"velocity":0.7637795275590551,"duration":0.21484375},{"name":"E3","midi":52,"time":78.94401041666669,"velocity":0.7637795275590551,"duration":0.21484375},{"name":"B4","midi":71,"time":79.16145833333336,"velocity":0.7637795275590551,"duration":0.4401041666666714},{"name":"D#3","midi":51,"time":79.16145833333336,"velocity":0.7637795275590551,"duration":0.21875},{"name":"B2","midi":47,"time":79.38281250000003,"velocity":0.7637795275590551,"duration":0.21875},{"name":"E5","midi":76,"time":79.6041666666667,"velocity":0.7637795275590551,"duration":0.21875},{"name":"C#3","midi":49,"time":79.6041666666667,"velocity":0.7637795275590551,"duration":0.21875},{"name":"F#5","midi":78,"time":79.82552083333337,"velocity":0.7637795275590551,"duration":0.21875},{"name":"D#3","midi":51,"time":79.82552083333337,"velocity":0.7637795275590551,"duration":0.21875},{"name":"G5","midi":79,"time":80.04687500000004,"velocity":0.7637795275590551,"duration":0.4401041666666714},{"name":"G4","midi":67,"time":80.04687500000004,"velocity":0.7637795275590551,"duration":1.7786458333333854},{"name":"E3","midi":52,"time":80.04687500000004,"velocity":0.7637795275590551,"duration":0.21875},{"name":"F#3","midi":54,"time":80.26822916666671,"velocity":0.7637795275590551,"duration":0.21875},{"name":"B4","midi":71,"time":80.48958333333339,"velocity":0.7637795275590551,"duration":0.4401041666666714},{"name":"E3","midi":52,"time":80.48958333333339,"velocity":0.7637795275590551,"duration":0.21875},{"name":"D3","midi":50,"time":80.71093750000006,"velocity":0.7637795275590551,"duration":0.21875},{"name":"A4","midi":69,"time":80.93229166666673,"velocity":0.7637795275590551,"duration":0.4453125000000142},{"name":"C#3","midi":49,"time":80.93229166666673,"velocity":0.7637795275590551,"duration":0.2213541666666714},{"name":"A2","midi":45,"time":81.15625000000007,"velocity":0.7637795275590551,"duration":0.2213541666666714},{"name":"D5","midi":74,"time":81.38020833333341,"velocity":0.7637795275590551,"duration":0.2213541666666714},{"name":"B2","midi":47,"time":81.38020833333341,"velocity":0.7637795275590551,"duration":0.2213541666666714},{"name":"E5","midi":76,"time":81.60416666666676,"velocity":0.7637795275590551,"duration":0.2213541666666714},{"name":"C#3","midi":49,"time":81.60416666666676,"velocity":0.7637795275590551,"duration":0.2213541666666714},{"name":"F#5","midi":78,"time":81.8281250000001,"velocity":0.7637795275590551,"duration":0.4453125000000142},{"name":"F#4","midi":66,"time":81.8281250000001,"velocity":0.7637795275590551,"duration":1.1276041666666998},{"name":"D3","midi":50,"time":81.8281250000001,"velocity":0.7637795275590551,"duration":0.2213541666666714},{"name":"E3","midi":52,"time":82.05208333333344,"velocity":0.7637795275590551,"duration":0.2213541666666714},{"name":"A4","midi":69,"time":82.27604166666679,"velocity":0.7637795275590551,"duration":0.4453125000000142},{"name":"D3","midi":50,"time":82.27604166666679,"velocity":0.7637795275590551,"duration":0.2213541666666714},{"name":"C#3","midi":49,"time":82.50000000000013,"velocity":0.7637795275590551,"duration":0.2213541666666714},{"name":"G4","midi":67,"time":82.72395833333347,"velocity":0.7637795275590551,"duration":0.2317708333333286},{"name":"B2","midi":47,"time":82.72395833333347,"velocity":0.7637795275590551,"duration":0.4661458333333286},{"name":"F#5","midi":78,"time":82.95833333333347,"velocity":0.7637795275590551,"duration":0.2317708333333286},{"name":"A4","midi":69,"time":82.95833333333347,"velocity":0.7637795275590551,"duration":0.2317708333333286},{"name":"E5","midi":76,"time":83.19270833333347,"velocity":0.7637795275590551,"duration":0.2317708333333286},{"name":"G4","midi":67,"time":83.19270833333347,"velocity":0.7637795275590551,"duration":0.2317708333333286},{"name":"G3","midi":55,"time":83.19270833333347,"velocity":0.7637795275590551,"duration":0.4661458333333286},{"name":"D5","midi":74,"time":83.42708333333347,"velocity":0.7637795275590551,"duration":0.2317708333333286},{"name":"F#4","midi":66,"time":83.42708333333347,"velocity":0.7637795275590551,"duration":0.2317708333333286},{"name":"C#5","midi":73,"time":83.66145833333347,"velocity":0.7637795275590551,"duration":1.0338541666666998},{"name":"E4","midi":64,"time":83.66145833333347,"velocity":0.7637795275590551,"duration":0.2565104166666714},{"name":"A3","midi":57,"time":83.66145833333347,"velocity":0.7637795275590551,"duration":0.5156250000000142},{"name":"B4","midi":71,"time":83.92057291666681,"velocity":0.7637795275590551,"duration":0.2565104166666714},{"name":"A4","midi":69,"time":84.17968750000016,"velocity":0.7637795275590551,"duration":0.2565104166666714},{"name":"A2","midi":45,"time":84.17968750000016,"velocity":0.7637795275590551,"duration":0.5156250000000142},{"name":"G4","midi":67,"time":84.4388020833335,"velocity":0.7637795275590551,"duration":0.2565104166666714},{"name":"D5","midi":74,"time":84.7395833333335,"velocity":0.7637795275590551,"duration":2.2135416666666714},{"name":"F#4","midi":66,"time":84.7395833333335,"velocity":0.7637795275590551,"duration":2.2135416666666714},{"name":"D2","midi":38,"time":84.7395833333335,"velocity":0.7637795275590551,"duration":2.2135416666666714}],"controlChanges":{"7":[{"number":7,"time":0,"value":0.7874015748031497}]},"id":1,"name":"Piano 1","instrumentNumber":6,"instrument":"harpsichord","instrumentFamily":"piano","channelNumber":0,"isPercussion":false}]}