{"header":{"PPQ":384,"timeSignature":[4,4],"bpm":120,"name":"--------"},"startTime":0,"duration":118.22526041666671,"tracks":[{"startTime":0,"duration":0,"length":0,"notes":[],"controlChanges":{},"id":0,"name":"--------"},{"startTime":0.06510416666666667,"duration":118.22526041666671,"length":424,"notes":[{"name":"D#3","midi":51,"time":0.06510416666666667,"velocity":0.7637795275590551,"duration":0.234375},{"name":"G3","midi":55,"time":0.32942708333333337,"velocity":0.7637795275590551,"duration":0.234375},{"name":"A#3","midi":58,"time":0.5872395833333334,"velocity":0.7637795275590551,"duration":0.234375},{"name":"D#4","midi":63,"time":0.8450520833333334,"velocity":0.7637795275590551,"duration":1.03125},{"name":"A#4","midi":70,"time":1.62109375,"velocity":0.7637795275590551,"duration":0.25},{"name":"D#5","midi":75,"time":1.87890625,"velocity":0.7637795275590551,"duration":0.7734375},{"name":"C4","midi":60,"time":1.87890625,"velocity":0.7637795275590551,"duration":1.0234375},{"name":"F5","midi":77,"time":2.6549479166666665,"velocity":0.7637795275590551,"duration":0.25},{"name":"D5","midi":74,"time":2.9127604166666665,"velocity":0.7637795275590551,"duration":1.7226562500000004},{"name":"A#2","midi":46,"time":3.171875,"velocity":0.7637795275590551,"duration":0.25},{"name":"D3","midi":50,"time":3.4296875,"velocity":0.7637795275590551,"duration":0.25},{"name":"F3","midi":53,"time":3.6875,"velocity":0.7637795275590551,"duration":0.25},{"name":"A#3","midi":58,"time":3.9453125,"velocity":0.7637795275590551,"duration":1.03125},{"name":"C5","midi":72,"time":4.721354166666667,"velocity":0.7637795275590551,"duration":0.25},{"name":"F4","midi":65,"time":4.721354166666667,"velocity":0.7637795275590551,"duration":0.25},{"name":"C#5","midi":73,"time":4.979166666666667,"velocity":0.7637795275590551,"duration":0.7734375},{"name":"A#4","midi":70,"time":4.979166666666667,"velocity":0.7637795275590551,"duration":0.7734375},{"name":"G3","midi":55,"time":4.979166666666667,"velocity":0.7637795275590551,"duration":1.0234375},{"name":"D#5","midi":75,"time":5.755208333333334,"velocity":0.7637795275590551,"duration":0.25},{"name":"C5","midi":72,"time":5.755208333333334,"velocity":0.7637795275590551,"duration":0.25},{"name":"C5","midi":72,"time":6.013020833333334,"velocity":0.7637795275590551,"duration":1.72265625},{"name":"G#4","midi":68,"time":6.013020833333334,"velocity":0.7637795275590551,"duration":1.72265625},{"name":"G#2","midi":44,"time":6.272135416666667,"velocity":0.7637795275590551,"duration":0.25},{"name":"C3","midi":48,"time":6.529947916666667,"velocity":0.7637795275590551,"duration":0.25},{"name":"D#3","midi":51,"time":6.787760416666667,"velocity":0.7637795275590551,"duration":0.25},{"name":"G#3","midi":56,"time":7.045572916666667,"velocity":0.7637795275590551,"duration":1.0312500000000009},{"name":"C5","midi":72,"time":7.821614583333334,"velocity":0.7637795275590551,"duration":0.25},{"name":"G4","midi":67,"time":7.821614583333334,"velocity":0.7637795275590551,"duration":0.25},{"name":"F5","midi":77,"time":8.079427083333334,"velocity":0.7637795275590551,"duration":0.7734375},{"name":"G#4","midi":68,"time":8.079427083333334,"velocity":0.7637795275590551,"duration":0.7734375},{"name":"F3","midi":53,"time":8.079427083333334,"velocity":0.7637795275590551,"duration":1.0234375},{"name":"G5","midi":79,"time":8.85546875,"velocity":0.7637795275590551,"duration":0.25},{"name":"A#4","midi":70,"time":8.85546875,"velocity":0.7637795275590551,"duration":0.25},{"name":"D#5","midi":75,"time":9.11328125,"velocity":0.7637795275590551,"duration":1.72265625},{"name":"G4","midi":67,"time":9.11328125,"velocity":0.7637795275590551,"duration":1.72265625},{"name":"C3","midi":48,"time":9.372395833333334,"velocity":0.7637795275590551,"duration":0.25},{"name":"D#3","midi":51,"time":9.630208333333334,"velocity":0.7637795275590551,"duration":0.25},{"name":"G3","midi":55,"time":9.888020833333334,"velocity":0.7637795275590551,"duration":0.25},{"name":"C4","midi":60,"time":10.145833333333334,"velocity":0.7637795275590551,"duration":1.03125},{"name":"D5","midi":74,"time":10.921875,"velocity":0.7637795275590551,"duration":0.25},{"name":"G4","midi":67,"time":10.921875,"velocity":0.7637795275590551,"duration":0.25},{"name":"D#5","midi":75,"time":11.1796875,"velocity":0.7637795275590551,"duration":0.7734375},{"name":"C5","midi":72,"time":11.1796875,"velocity":0.7637795275590551,"duration":0.7734375},{"name":"A3","midi":57,"time":11.1796875,"velocity":0.7637795275590551,"duration":1.0234375},{"name":"F5","midi":77,"time":11.955729166666666,"velocity":0.7637795275590551,"duration":0.25},{"name":"D5","midi":74,"time":11.955729166666666,"velocity":0.7637795275590551,"duration":0.25},{"name":"D5","midi":74,"time":12.213541666666666,"velocity":0.7637795275590551,"duration":1.72265625},{"name":"A#4","midi":70,"time":12.213541666666666,"velocity":0.7637795275590551,"duration":4.13020833333333},{"name":"A#2","midi":46,"time":12.47265625,"velocity":0.7637795275590551,"duration":0.25},{"name":"D3","midi":50,"time":12.73046875,"velocity":0.7637795275590551,"duration":0.25},{"name":"F3","midi":53,"time":12.98828125,"velocity":0.7637795275590551,"duration":0.25},{"name":"A#3","midi":58,"time":13.24609375,"velocity":0.7637795275590551,"duration":1.03125},{"name":"D5","midi":74,"time":14.022135416666666,"velocity":0.7637795275590551,"duration":0.25},{"name":"G5","midi":79,"time":14.279947916666666,"velocity":0.7637795275590551,"duration":0.7734375},{"name":"D#3","midi":51,"time":14.279947916666666,"velocity":0.7637795275590551,"duration":1.0234375},{"name":"G5","midi":79,"time":15.055989583333332,"velocity":0.7637795275590551,"duration":0.25},{"name":"C5","midi":72,"time":15.313802083333332,"velocity":0.7637795275590551,"duration":1.72265625},{"name":"G#2","midi":44,"time":15.572916666666666,"velocity":0.7637795275590551,"duration":0.25},{"name":"C3","midi":48,"time":15.830729166666666,"velocity":0.7637795275590551,"duration":0.24999999999999822},{"name":"D#3","midi":51,"time":16.088541666666664,"velocity":0.7637795275590551,"duration":0.25},{"name":"G#4","midi":68,"time":16.346354166666664,"velocity":0.7637795275590551,"duration":3.873697916666668},{"name":"G#3","midi":56,"time":16.346354166666664,"velocity":0.7637795275590551,"duration":1.03125},{"name":"C5","midi":72,"time":17.122395833333332,"velocity":0.7637795275590551,"duration":0.25},{"name":"F5","midi":77,"time":17.380208333333332,"velocity":0.7637795275590551,"duration":0.7734375},{"name":"D3","midi":50,"time":17.380208333333332,"velocity":0.7637795275590551,"duration":1.0234375},{"name":"F5","midi":77,"time":18.15625,"velocity":0.7637795275590551,"duration":0.25},{"name":"A#4","midi":70,"time":18.4140625,"velocity":0.7637795275590551,"duration":1.02734375},{"name":"G2","midi":43,"time":18.673177083333332,"velocity":0.7637795275590551,"duration":0.25},{"name":"A#2","midi":46,"time":18.930989583333332,"velocity":0.7637795275590551,"duration":0.25},{"name":"D3","midi":50,"time":19.188802083333332,"velocity":0.7637795275590551,"duration":0.25},{"name":"D#5","midi":75,"time":19.446614583333332,"velocity":0.7637795275590551,"duration":3.09765625},{"name":"G3","midi":55,"time":19.446614583333332,"velocity":0.7637795275590551,"duration":1.03125},{"name":"G4","midi":67,"time":20.22265625,"velocity":0.7637795275590551,"duration":0.25},{"name":"C5","midi":72,"time":20.48046875,"velocity":0.7637795275590551,"duration":0.7734375},{"name":"G#3","midi":56,"time":20.48046875,"velocity":0.7637795275590551,"duration":1.0234375},{"name":"C5","midi":72,"time":21.256510416666668,"velocity":0.7637795275590551,"duration":0.25},{"name":"F4","midi":65,"time":21.514322916666668,"velocity":0.7637795275590551,"duration":1.72265625},{"name":"A#2","midi":46,"time":21.7734375,"velocity":0.7637795275590551,"duration":0.25},{"name":"F3","midi":53,"time":22.03125,"velocity":0.7637795275590551,"duration":0.25},{"name":"G#3","midi":56,"time":22.2890625,"velocity":0.7637795275590551,"duration":0.25},{"name":"D5","midi":74,"time":22.546875,"velocity":0.7637795275590551,"duration":2.065104166666668},{"name":"A#3","midi":58,"time":22.546875,"velocity":0.7637795275590551,"duration":1.03125},{"name":"F4","midi":65,"time":23.322916666666668,"velocity":0.7637795275590551,"duration":0.25},{"name":"A#4","midi":70,"time":23.580729166666668,"velocity":0.7637795275590551,"duration":0.7734375},{"name":"A#2","midi":46,"time":23.580729166666668,"velocity":0.7637795275590551,"duration":1.0234375},{"name":"C5","midi":72,"time":24.356770833333336,"velocity":0.7637795275590551,"duration":0.25},{"name":"D#5","midi":75,"time":24.614583333333336,"velocity":0.7637795275590551,"duration":1.72265625},{"name":"G4","midi":67,"time":24.614583333333336,"velocity":0.7637795275590551,"duration":1.72265625},{"name":"D#2","midi":39,"time":24.873697916666668,"velocity":0.7637795275590551,"duration":0.25},{"name":"G2","midi":43,"time":25.131510416666668,"velocity":0.7637795275590551,"duration":0.25},{"name":"A#2","midi":46,"time":25.389322916666668,"velocity":0.7637795275590551,"duration":0.25},{"name":"D#3","midi":51,"time":25.647135416666668,"velocity":0.7637795275590551,"duration":1.03125},{"name":"G5","midi":79,"time":26.423177083333336,"velocity":0.7637795275590551,"duration":0.25},{"name":"C5","midi":72,"time":26.680989583333336,"velocity":0.7637795275590551,"duration":0.7734375},{"name":"C3","midi":48,"time":26.680989583333336,"velocity":0.7637795275590551,"duration":1.0234375},{"name":"C5","midi":72,"time":27.457031250000004,"velocity":0.7637795275590551,"duration":0.25},{"name":"C5","midi":72,"time":27.714843750000004,"velocity":0.7637795275590551,"duration":4.130208333333332},{"name":"G#2","midi":44,"time":27.973958333333336,"velocity":0.7637795275590551,"duration":0.25},{"name":"C3","midi":48,"time":28.231770833333336,"velocity":0.7637795275590551,"duration":0.25},{"name":"D#3","midi":51,"time":28.489583333333336,"velocity":0.7637795275590551,"duration":0.25},{"name":"G#3","midi":56,"time":28.747395833333336,"velocity":0.7637795275590551,"duration":1.03125},{"name":"G#5","midi":80,"time":29.523437500000004,"velocity":0.7637795275590551,"duration":0.25},{"name":"D5","midi":74,"time":29.781250000000004,"velocity":0.7637795275590551,"duration":0.7734375},{"name":"F3","midi":53,"time":29.781250000000004,"velocity":0.7637795275590551,"duration":1.0234375},{"name":"D5","midi":74,"time":30.55729166666667,"velocity":0.7637795275590551,"duration":0.25},{"name":"D5","midi":74,"time":30.81510416666667,"velocity":0.7637795275590551,"duration":1.72265625},{"name":"F3","midi":53,"time":31.074218750000004,"velocity":0.7637795275590551,"duration":0.25},{"name":"G#3","midi":56,"time":31.332031250000004,"velocity":0.7637795275590551,"duration":0.25},{"name":"C4","midi":60,"time":31.589843750000004,"velocity":0.7637795275590551,"duration":0.25},{"name":"B4","midi":71,"time":31.847656250000004,"velocity":0.7637795275590551,"duration":0.7734375000000036},{"name":"F4","midi":65,"time":31.847656250000004,"velocity":0.7637795275590551,"duration":1.0234375000000036},{"name":"D#5","midi":75,"time":32.62369791666667,"velocity":0.7637795275590551,"duration":0.25},{"name":"C5","midi":72,"time":32.62369791666667,"velocity":0.7637795275590551,"duration":0.25},{"name":"F5","midi":77,"time":32.88151041666667,"velocity":0.7637795275590551,"duration":1.7200520833333357},{"name":"D5","midi":74,"time":32.88151041666667,"velocity":0.7637795275590551,"duration":1.7200520833333357},{"name":"B3","midi":59,"time":33.14062500000001,"velocity":0.7637795275590551,"duration":0.25},{"name":"A3","midi":57,"time":33.39843750000001,"velocity":0.7637795275590551,"duration":0.25},{"name":"G3","midi":55,"time":33.65625000000001,"velocity":0.7637795275590551,"duration":0.25},{"name":"C4","midi":60,"time":33.91406250000001,"velocity":0.7637795275590551,"duration":0.25},{"name":"G3","midi":55,"time":34.17187500000001,"velocity":0.7637795275590551,"duration":0.25},{"name":"G#3","midi":56,"time":34.42968750000001,"velocity":0.7637795275590551,"duration":0.25},{"name":"D#5","midi":75,"time":34.68750000000001,"velocity":0.7637795275590551,"duration":0.25},{"name":"C5","midi":72,"time":34.68750000000001,"velocity":0.7637795275590551,"duration":0.25},{"name":"F3","midi":53,"time":34.68750000000001,"velocity":0.7637795275590551,"duration":0.25},{"name":"D#5","midi":75,"time":34.94531250000001,"velocity":0.7637795275590551,"duration":1.03125},{"name":"C5","midi":72,"time":34.94531250000001,"velocity":0.7637795275590551,"duration":1.03125},{"name":"G3","midi":55,"time":34.94531250000001,"velocity":0.7637795275590551,"duration":1.03125},{"name":"D5","midi":74,"time":35.97916666666667,"velocity":0.7637795275590551,"duration":0.7734375},{"name":"B4","midi":71,"time":35.97916666666667,"velocity":0.7637795275590551,"duration":1.03125},{"name":"G2","midi":43,"time":35.97916666666667,"velocity":0.7637795275590551,"duration":1.0234375},{"name":"C5","midi":72,"time":36.755208333333336,"velocity":0.7637795275590551,"duration":0.25},{"name":"C5","midi":72,"time":37.013020833333336,"velocity":0.7637795275590551,"duration":1.546875},{"name":"C2","midi":36,"time":37.27213541666667,"velocity":0.7637795275590551,"duration":0.25},{"name":"D#2","midi":39,"time":37.52994791666667,"velocity":0.7637795275590551,"duration":0.25},{"name":"G2","midi":43,"time":37.78776041666667,"velocity":0.7637795275590551,"duration":0.25},{"name":"C3","midi":48,"time":38.04557291666667,"velocity":0.7637795275590551,"duration":1.03125},{"name":"G4","midi":67,"time":38.821614583333336,"velocity":0.7637795275590551,"duration":0.25},{"name":"C5","midi":72,"time":39.079427083333336,"velocity":0.7637795275590551,"duration":0.7734375},{"name":"D#2","midi":39,"time":39.079427083333336,"velocity":0.7637795275590551,"duration":1.0234375},{"name":"D5","midi":74,"time":39.85546875,"velocity":0.7637795275590551,"duration":0.25},{"name":"A4","midi":69,"time":40.11328125,"velocity":0.7637795275590551,"duration":1.72265625},{"name":"F2","midi":41,"time":40.372395833333336,"velocity":0.7637795275590551,"duration":0.25},{"name":"A2","midi":45,"time":40.630208333333336,"velocity":0.7637795275590551,"duration":0.25},{"name":"C3","midi":48,"time":40.888020833333336,"velocity":0.7637795275590551,"duration":0.25},{"name":"F3","midi":53,"time":41.145833333333336,"velocity":0.7637795275590551,"duration":1.03125},{"name":"C5","midi":72,"time":41.921875,"velocity":0.7637795275590551,"duration":0.25},{"name":"A#4","midi":70,"time":41.921875,"velocity":0.7637795275590551,"duration":0.25},{"name":"F5","midi":77,"time":42.1796875,"velocity":0.7637795275590551,"duration":0.7734375},{"name":"C5","midi":72,"time":42.1796875,"velocity":0.7637795275590551,"duration":2.0638020833333357},{"name":"A2","midi":45,"time":42.1796875,"velocity":0.7637795275590551,"duration":1.0234375},{"name":"G5","midi":79,"time":42.955729166666664,"velocity":0.7637795275590551,"duration":0.25},{"name":"D5","midi":74,"time":43.213541666666664,"velocity":0.7637795275590551,"duration":1.72265625},{"name":"A#2","midi":46,"time":43.47265625,"velocity":0.7637795275590551,"duration":0.25},{"name":"D3","midi":50,"time":43.73046875,"velocity":0.7637795275590551,"duration":0.25},{"name":"F3","midi":53,"time":43.98828125,"velocity":0.7637795275590551,"duration":0.25},{"name":"A#4","midi":70,"time":44.24609375,"velocity":0.7637795275590551,"duration":0.7734375},{"name":"A#3","midi":58,"time":44.24609375,"velocity":0.7637795275590551,"duration":1.03125},{"name":"D#5","midi":75,"time":45.022135416666664,"velocity":0.7637795275590551,"duration":0.25},{"name":"C5","midi":72,"time":45.022135416666664,"velocity":0.7637795275590551,"duration":0.25},{"name":"F5","midi":77,"time":45.279947916666664,"velocity":0.7637795275590551,"duration":0.7734375},{"name":"D5","midi":74,"time":45.279947916666664,"velocity":0.7637795275590551,"duration":0.7734375},{"name":"G3","midi":55,"time":45.279947916666664,"velocity":0.7637795275590551,"duration":1.0234375},{"name":"G5","midi":79,"time":46.05598958333333,"velocity":0.7637795275590551,"duration":0.25},{"name":"D#5","midi":75,"time":46.05598958333333,"velocity":0.7637795275590551,"duration":0.25},{"name":"D#5","midi":75,"time":46.31380208333333,"velocity":0.7637795275590551,"duration":0.7721354166666714},{"name":"C5","midi":72,"time":46.31380208333333,"velocity":0.7637795275590551,"duration":0.7721354166666714},{"name":"G3","midi":55,"time":46.572916666666664,"velocity":0.7637795275590551,"duration":0.25},{"name":"A3","midi":57,"time":46.830729166666664,"velocity":0.7637795275590551,"duration":0.25},{"name":"D5","midi":74,"time":47.088541666666664,"velocity":0.7637795275590551,"duration":0.25},{"name":"A#4","midi":70,"time":47.088541666666664,"velocity":0.7637795275590551,"duration":0.25},{"name":"A#3","midi":58,"time":47.088541666666664,"velocity":0.7637795275590551,"duration":0.25},{"name":"D5","midi":74,"time":47.346354166666664,"velocity":0.7637795275590551,"duration":1.03125},{"name":"A#4","midi":70,"time":47.346354166666664,"velocity":0.7637795275590551,"duration":1.03125},{"name":"F3","midi":53,"time":47.346354166666664,"velocity":0.7637795275590551,"duration":1.03125},{"name":"C5","midi":72,"time":48.38020833333333,"velocity":0.7637795275590551,"duration":0.7734375},{"name":"A4","midi":69,"time":48.38020833333333,"velocity":0.7637795275590551,"duration":1.0234375},{"name":"F2","midi":41,"time":48.38020833333333,"velocity":0.7637795275590551,"duration":1.0234375},{"name":"A#4","midi":70,"time":49.15624999999999,"velocity":0.7637795275590551,"duration":0.25},{"name":"A#4","midi":70,"time":49.41406249999999,"velocity":0.7637795275590551,"duration":1.546875},{"name":"A#2","midi":46,"time":49.67317708333333,"velocity":0.7637795275590551,"duration":0.25},{"name":"D3","midi":50,"time":49.93098958333333,"velocity":0.7637795275590551,"duration":0.25},{"name":"F3","midi":53,"time":50.18880208333333,"velocity":0.7637795275590551,"duration":0.25},{"name":"A#3","midi":58,"time":50.44661458333333,"velocity":0.7637795275590551,"duration":1.03125},{"name":"A#5","midi":82,"time":51.22265624999999,"velocity":0.7637795275590551,"duration":0.25},{"name":"G#5","midi":80,"time":51.48046874999999,"velocity":0.7637795275590551,"duration":0.7734375},{"name":"D3","midi":50,"time":51.48046874999999,"velocity":0.7637795275590551,"duration":1.0234375},{"name":"A#5","midi":82,"time":52.25651041666666,"velocity":0.7637795275590551,"duration":0.25},{"name":"G5","midi":79,"time":52.51432291666666,"velocity":0.7637795275590551,"duration":1.72265625},{"name":"D#3","midi":51,"time":52.77343749999999,"velocity":0.7637795275590551,"duration":0.25},{"name":"G3","midi":55,"time":53.03124999999999,"velocity":0.7637795275590551,"duration":0.25},{"name":"A#3","midi":58,"time":53.28906249999999,"velocity":0.7637795275590551,"duration":0.25},{"name":"D#4","midi":63,"time":53.54687499999999,"velocity":0.7637795275590551,"duration":1.03125},{"name":"G#5","midi":80,"time":54.32291666666666,"velocity":0.7637795275590551,"duration":0.25},{"name":"D#5","midi":75,"time":54.32291666666666,"velocity":0.7637795275590551,"duration":0.25},{"name":"A#5","midi":82,"time":54.58072916666666,"velocity":0.7637795275590551,"duration":1.72265625},{"name":"C#5","midi":73,"time":54.58072916666666,"velocity":0.7637795275590551,"duration":0.7734375},{"name":"G3","midi":55,"time":54.58072916666666,"velocity":0.7637795275590551,"duration":1.0234375},{"name":"D#5","midi":75,"time":55.35677083333332,"velocity":0.7637795275590551,"duration":0.25},{"name":"C5","midi":72,"time":55.61458333333332,"velocity":0.7637795275590551,"duration":1.72265625},{"name":"G#2","midi":44,"time":55.87369791666666,"velocity":0.7637795275590551,"duration":0.25},{"name":"C3","midi":48,"time":56.13151041666666,"velocity":0.7637795275590551,"duration":0.25},{"name":"G5","midi":79,"time":56.38932291666666,"velocity":0.7637795275590551,"duration":0.25},{"name":"D#3","midi":51,"time":56.38932291666666,"velocity":0.7637795275590551,"duration":0.25},{"name":"E5","midi":76,"time":56.64713541666666,"velocity":0.7637795275590551,"duration":0.7734375},{"name":"G#3","midi":56,"time":56.64713541666666,"velocity":0.7637795275590551,"duration":1.03125},{"name":"F5","midi":77,"time":57.42317708333332,"velocity":0.7637795275590551,"duration":0.25},{"name":"C#5","midi":73,"time":57.42317708333332,"velocity":0.7637795275590551,"duration":0.25},{"name":"G5","midi":79,"time":57.68098958333332,"velocity":0.7637795275590551,"duration":1.72265625},{"name":"A#4","midi":70,"time":57.68098958333332,"velocity":0.7637795275590551,"duration":0.7734375},{"name":"E3","midi":52,"time":57.68098958333332,"velocity":0.7637795275590551,"duration":1.0234375},{"name":"C5","midi":72,"time":58.457031249999986,"velocity":0.7637795275590551,"duration":0.25},{"name":"G#4","midi":68,"time":58.714843749999986,"velocity":0.7637795275590551,"duration":1.72265625},{"name":"F2","midi":41,"time":58.97395833333332,"velocity":0.7637795275590551,"duration":0.25},{"name":"G#2","midi":44,"time":59.23177083333332,"velocity":0.7637795275590551,"duration":0.25},{"name":"F5","midi":77,"time":59.48958333333332,"velocity":0.7637795275590551,"duration":0.25},{"name":"C3","midi":48,"time":59.48958333333332,"velocity":0.7637795275590551,"duration":0.25},{"name":"C#5","midi":73,"time":59.74739583333332,"velocity":0.7637795275590551,"duration":0.7734375},{"name":"F3","midi":53,"time":59.74739583333332,"velocity":0.7637795275590551,"duration":1.03125},{"name":"C5","midi":72,"time":60.523437499999986,"velocity":0.7637795275590551,"duration":0.25},{"name":"G4","midi":67,"time":60.523437499999986,"velocity":0.7637795275590551,"duration":0.25},{"name":"F5","midi":77,"time":60.781249999999986,"velocity":0.7637795275590551,"duration":0.7734375},{"name":"G#4","midi":68,"time":60.781249999999986,"velocity":0.7637795275590551,"duration":0.7734375},{"name":"C#3","midi":49,"time":60.781249999999986,"velocity":0.7637795275590551,"duration":1.0234375},{"name":"G5","midi":79,"time":61.55729166666665,"velocity":0.7637795275590551,"duration":0.25},{"name":"A#4","midi":70,"time":61.55729166666665,"velocity":0.7637795275590551,"duration":0.25},{"name":"E5","midi":76,"time":61.81510416666665,"velocity":0.7637795275590551,"duration":1.72265625},{"name":"C5","midi":72,"time":61.81510416666665,"velocity":0.7637795275590551,"duration":1.72265625},{"name":"C3","midi":48,"time":62.074218749999986,"velocity":0.7637795275590551,"duration":0.25},{"name":"E3","midi":52,"time":62.332031249999986,"velocity":0.7637795275590551,"duration":0.25},{"name":"G3","midi":55,"time":62.589843749999986,"velocity":0.7637795275590551,"duration":0.25},{"name":"C4","midi":60,"time":62.847656249999986,"velocity":0.7637795275590551,"duration":1.03125},{"name":"E5","midi":76,"time":63.62369791666665,"velocity":0.7637795275590551,"duration":0.25},{"name":"C5","midi":72,"time":63.62369791666665,"velocity":0.7637795275590551,"duration":0.25},{"name":"G#5","midi":80,"time":63.88151041666665,"velocity":0.7637795275590551,"duration":0.7734375000000071},{"name":"F5","midi":77,"time":63.88151041666665,"velocity":0.7637795275590551,"duration":0.7734375000000071},{"name":"G#3","midi":56,"time":63.88151041666665,"velocity":0.7637795275590551,"duration":1.023437500000007},{"name":"G#5","midi":80,"time":64.65755208333333,"velocity":0.7637795275590551,"duration":0.25},{"name":"D#5","midi":75,"time":64.65755208333333,"velocity":0.7637795275590551,"duration":0.25},{"name":"G#5","midi":80,"time":64.91536458333333,"velocity":0.7637795275590551,"duration":1.72265625},{"name":"C#5","midi":73,"time":64.91536458333333,"velocity":0.7637795275590551,"duration":4.130208333333329},{"name":"A#2","midi":46,"time":65.17447916666666,"velocity":0.7637795275590551,"duration":0.25},{"name":"C#3","midi":49,"time":65.43229166666666,"velocity":0.7637795275590551,"duration":0.25},{"name":"F3","midi":53,"time":65.69010416666666,"velocity":0.7637795275590551,"duration":0.25},{"name":"A#3","midi":58,"time":65.94791666666666,"velocity":0.7637795275590551,"duration":1.03125},{"name":"F5","midi":77,"time":66.72395833333333,"velocity":0.7637795275590551,"duration":0.25},{"name":"A#5","midi":82,"time":66.98177083333333,"velocity":0.7637795275590551,"duration":0.7734375},{"name":"G3","midi":55,"time":66.98177083333333,"velocity":0.7637795275590551,"duration":1.0234375},{"name":"A#5","midi":82,"time":67.7578125,"velocity":0.7637795275590551,"duration":0.25},{"name":"A#5","midi":82,"time":68.015625,"velocity":0.7637795275590551,"duration":1.72265625},{"name":"C2","midi":36,"time":68.27473958333333,"velocity":0.7637795275590551,"duration":0.25},{"name":"E2","midi":40,"time":68.53255208333333,"velocity":0.7637795275590551,"duration":0.25},{"name":"G2","midi":43,"time":68.79036458333333,"velocity":0.7637795275590551,"duration":0.25},{"name":"C5","midi":72,"time":69.04817708333333,"velocity":0.7637795275590551,"duration":0.7734375},{"name":"C3","midi":48,"time":69.04817708333333,"velocity":0.7637795275590551,"duration":1.03125},{"name":"E5","midi":76,"time":69.82421875,"velocity":0.7637795275590551,"duration":0.25},{"name":"A#4","midi":70,"time":69.82421875,"velocity":0.7637795275590551,"duration":0.25},{"name":"F5","midi":77,"time":70.08203125,"velocity":0.7637795275590551,"duration":0.7734375},{"name":"G#4","midi":68,"time":70.08203125,"velocity":0.7637795275590551,"duration":0.7734375},{"name":"C#3","midi":49,"time":70.08203125,"velocity":0.7637795275590551,"duration":1.1575520833333428},{"name":"E5","midi":76,"time":70.85807291666667,"velocity":0.7637795275590551,"duration":0.25},{"name":"G4","midi":67,"time":70.85807291666667,"velocity":0.7637795275590551,"duration":0.25},{"name":"F5","midi":77,"time":71.11588541666667,"velocity":0.7637795275590551,"duration":0.7708333333333286},{"name":"G#4","midi":68,"time":71.11588541666667,"velocity":0.7637795275590551,"duration":0.7708333333333286},{"name":"C#3","midi":49,"time":71.37369791666667,"velocity":0.7637795275590551,"duration":0.2526041666666714},{"name":"C3","midi":48,"time":71.63151041666667,"velocity":0.7637795275590551,"duration":0.25},{"name":"G5","midi":79,"time":71.88932291666667,"velocity":0.7637795275590551,"duration":0.25},{"name":"A#4","midi":70,"time":71.88932291666667,"velocity":0.7637795275590551,"duration":0.25},{"name":"A#2","midi":46,"time":71.88932291666667,"velocity":0.7637795275590551,"duration":0.25},{"name":"F5","midi":77,"time":72.14713541666667,"velocity":0.7637795275590551,"duration":1.03125},{"name":"G#4","midi":68,"time":72.14713541666667,"velocity":0.7637795275590551,"duration":1.03125},{"name":"C3","midi":48,"time":72.14713541666667,"velocity":0.7637795275590551,"duration":1.03125},{"name":"E5","midi":76,"time":73.18098958333334,"velocity":0.7637795275590551,"duration":0.7734375},{"name":"G4","midi":67,"time":73.18098958333334,"velocity":0.7637795275590551,"duration":0.7734375},{"name":"C2","midi":36,"time":73.18098958333334,"velocity":0.7637795275590551,"duration":1.0234375},{"name":"F5","midi":77,"time":73.95703125000001,"velocity":0.7637795275590551,"duration":0.25},{"name":"G#4","midi":68,"time":73.95703125000001,"velocity":0.7637795275590551,"duration":0.25},{"name":"F5","midi":77,"time":74.21484375000001,"velocity":0.7637795275590551,"duration":1.0221354166666572},{"name":"G#4","midi":68,"time":74.21484375000001,"velocity":0.7637795275590551,"duration":1.72265625},{"name":"F2","midi":41,"time":74.47395833333334,"velocity":0.7637795275590551,"duration":0.25},{"name":"G#2","midi":44,"time":74.73177083333334,"velocity":0.7637795275590551,"duration":0.25},{"name":"C3","midi":48,"time":74.98958333333334,"velocity":0.7637795275590551,"duration":0.25},{"name":"F3","midi":53,"time":75.24739583333334,"velocity":0.7637795275590551,"duration":1.03125},{"name":"C5","midi":72,"time":76.02343750000001,"velocity":0.7637795275590551,"duration":0.25},{"name":"F5","midi":77,"time":76.28125000000001,"velocity":0.7637795275590551,"duration":0.7734375},{"name":"G#2","midi":44,"time":76.28125000000001,"velocity":0.7637795275590551,"duration":1.0234375},{"name":"D#5","midi":75,"time":77.05729166666669,"velocity":0.7637795275590551,"duration":0.25},{"name":"C#5","midi":73,"time":77.31510416666669,"velocity":0.7637795275590551,"duration":4.90625},{"name":"A#2","midi":46,"time":77.57421875000001,"velocity":0.7637795275590551,"duration":0.25},{"name":"C#3","midi":49,"time":77.83203125000001,"velocity":0.7637795275590551,"duration":0.25},{"name":"F3","midi":53,"time":78.08984375000001,"velocity":0.7637795275590551,"duration":0.25},{"name":"A#3","midi":58,"time":78.34765625000001,"velocity":0.7637795275590551,"duration":1.03125},{"name":"F5","midi":77,"time":79.12369791666669,"velocity":0.7637795275590551,"duration":0.25},{"name":"A#5","midi":82,"time":79.38151041666669,"velocity":0.7637795275590551,"duration":0.7734375},{"name":"C#3","midi":49,"time":79.38151041666669,"velocity":0.7637795275590551,"duration":1.0234375},{"name":"G#5","midi":80,"time":80.15755208333336,"velocity":0.7637795275590551,"duration":0.25},{"name":"G5","midi":79,"time":80.41536458333336,"velocity":0.7637795275590551,"duration":1.72265625},{"name":"D#3","midi":51,"time":80.67447916666669,"velocity":0.7637795275590551,"duration":0.25},{"name":"G3","midi":55,"time":80.93229166666669,"velocity":0.7637795275590551,"duration":0.25},{"name":"A#3","midi":58,"time":81.19010416666669,"velocity":0.7637795275590551,"duration":0.25},{"name":"D#4","midi":63,"time":81.44791666666669,"velocity":0.7637795275590551,"duration":1.0234375},{"name":"G#5","midi":80,"time":82.22395833333336,"velocity":0.7637795275590551,"duration":0.25},{"name":"C5","midi":72,"time":82.22395833333336,"velocity":0.7637795275590551,"duration":0.25},{"name":"C#5","midi":73,"time":82.48177083333336,"velocity":0.7637795275590551,"duration":1.7200520833333286},{"name":"A#4","midi":70,"time":82.48177083333336,"velocity":0.7637795275590551,"duration":1.7200520833333286},{"name":"G3","midi":55,"time":82.74088541666669,"velocity":0.7637795275590551,"duration":0.25},{"name":"F3","midi":53,"time":82.99869791666669,"velocity":0.7637795275590551,"duration":0.25},{"name":"D#3","midi":51,"time":83.25651041666669,"velocity":0.7637795275590551,"duration":0.25},{"name":"G#3","midi":56,"time":83.51432291666669,"velocity":0.7637795275590551,"duration":0.25},{"name":"D#3","midi":51,"time":83.77213541666669,"velocity":0.7637795275590551,"duration":0.25},{"name":"F3","midi":53,"time":84.02994791666669,"velocity":0.7637795275590551,"duration":0.25},{"name":"C5","midi":72,"time":84.28776041666669,"velocity":0.7637795275590551,"duration":0.25},{"name":"G#4","midi":68,"time":84.28776041666669,"velocity":0.7637795275590551,"duration":0.25},{"name":"C#3","midi":49,"time":84.28776041666669,"velocity":0.7637795275590551,"duration":0.25},{"name":"C5","midi":72,"time":84.54557291666669,"velocity":0.7637795275590551,"duration":1.03125},{"name":"G#4","midi":68,"time":84.54557291666669,"velocity":0.7637795275590551,"duration":1.03125},{"name":"D#3","midi":51,"time":84.54557291666669,"velocity":0.7637795275590551,"duration":1.03125},{"name":"A#4","midi":70,"time":85.57942708333336,"velocity":0.7637795275590551,"duration":0.7734375},{"name":"G4","midi":67,"time":85.57942708333336,"velocity":0.7637795275590551,"duration":1.03125},{"name":"D#2","midi":39,"time":85.57942708333336,"velocity":0.7637795275590551,"duration":1.0234375},{"name":"G#4","midi":68,"time":86.35546875000003,"velocity":0.7637795275590551,"duration":0.2421875},{"name":"G#4","midi":68,"time":86.61328125000003,"velocity":0.7637795275590551,"duration":1.0221354166666572},{"name":"G#2","midi":44,"time":86.87239583333336,"velocity":0.7637795275590551,"duration":0.25},{"name":"C3","midi":48,"time":87.13020833333336,"velocity":0.7637795275590551,"duration":0.25},{"name":"D#3","midi":51,"time":87.38802083333336,"velocity":0.7637795275590551,"duration":0.25},{"name":"G#3","midi":56,"time":87.64583333333336,"velocity":0.7637795275590551,"duration":1.03125},{"name":"D#4","midi":63,"time":88.42187500000003,"velocity":0.7637795275590551,"duration":0.25},{"name":"G#4","midi":68,"time":88.67968750000003,"velocity":0.7637795275590551,"duration":0.7734375},{"name":"F3","midi":53,"time":88.67968750000003,"velocity":0.7637795275590551,"duration":1.0234375},{"name":"A#4","midi":70,"time":89.4557291666667,"velocity":0.7637795275590551,"duration":0.25},{"name":"G4","midi":67,"time":89.7135416666667,"velocity":0.7637795275590551,"duration":1.72265625},{"name":"D#2","midi":39,"time":89.97265625000003,"velocity":0.7637795275590551,"duration":0.25},{"name":"G2","midi":43,"time":90.23046875000003,"velocity":0.7637795275590551,"duration":0.25},{"name":"A#2","midi":46,"time":90.48828125000003,"velocity":0.7637795275590551,"duration":0.25},{"name":"D#3","midi":51,"time":90.74609375000003,"velocity":0.7637795275590551,"duration":1.03125},{"name":"F4","midi":65,"time":91.5221354166667,"velocity":0.7637795275590551,"duration":0.25},{"name":"A#3","midi":58,"time":91.5221354166667,"velocity":0.7637795275590551,"duration":0.25},{"name":"G4","midi":67,"time":91.7799479166667,"velocity":0.7637795275590551,"duration":0.7734375},{"name":"D#4","midi":63,"time":91.7799479166667,"velocity":0.7637795275590551,"duration":0.7734375},{"name":"C3","midi":48,"time":91.7799479166667,"velocity":0.7637795275590551,"duration":1.0234375},{"name":"G#4","midi":68,"time":92.55598958333337,"velocity":0.7637795275590551,"duration":0.25},{"name":"F4","midi":65,"time":92.55598958333337,"velocity":0.7637795275590551,"duration":0.25},{"name":"A#4","midi":70,"time":92.81380208333337,"velocity":0.7637795275590551,"duration":1.72265625},{"name":"D4","midi":62,"time":92.81380208333337,"velocity":0.7637795275590551,"duration":1.72265625},{"name":"A#2","midi":46,"time":93.0729166666667,"velocity":0.7637795275590551,"duration":0.25},{"name":"D3","midi":50,"time":93.3307291666667,"velocity":0.7637795275590551,"duration":0.25},{"name":"F3","midi":53,"time":93.5885416666667,"velocity":0.7637795275590551,"duration":0.25},{"name":"A#3","midi":58,"time":93.8463541666667,"velocity":0.7637795275590551,"duration":1.03125},{"name":"F4","midi":65,"time":94.62239583333337,"velocity":0.7637795275590551,"duration":0.25},{"name":"C4","midi":60,"time":94.62239583333337,"velocity":0.7637795275590551,"duration":0.25},{"name":"A#4","midi":70,"time":94.88020833333337,"velocity":0.7637795275590551,"duration":0.7734375},{"name":"D4","midi":62,"time":94.88020833333337,"velocity":0.7637795275590551,"duration":0.7734375},{"name":"G3","midi":55,"time":94.88020833333337,"velocity":0.7637795275590551,"duration":1.0234375},{"name":"C5","midi":72,"time":95.65625000000004,"velocity":0.7637795275590551,"duration":0.25},{"name":"D#4","midi":63,"time":95.65625000000004,"velocity":0.7637795275590551,"duration":0.25},{"name":"G#4","midi":68,"time":95.91406250000004,"velocity":0.7637795275590551,"duration":1.72265625},{"name":"C4","midi":60,"time":95.91406250000004,"velocity":0.7637795275590551,"duration":1.72265625},{"name":"G#2","midi":44,"time":96.17317708333337,"velocity":0.7637795275590551,"duration":0.25},{"name":"C3","midi":48,"time":96.43098958333337,"velocity":0.7637795275590551,"duration":0.25},{"name":"D#3","midi":51,"time":96.68880208333337,"velocity":0.7637795275590551,"duration":0.25},{"name":"G#3","midi":56,"time":96.94661458333337,"velocity":0.7637795275590551,"duration":1.03125},{"name":"G4","midi":67,"time":97.72265625000004,"velocity":0.7637795275590551,"duration":0.25},{"name":"C4","midi":60,"time":97.72265625000004,"velocity":0.7637795275590551,"duration":0.25},{"name":"G#4","midi":68,"time":97.98046875000004,"velocity":0.7637795275590551,"duration":0.7734375},{"name":"F4","midi":65,"time":97.98046875000004,"velocity":0.7637795275590551,"duration":0.7734375},{"name":"F3","midi":53,"time":97.98046875000004,"velocity":0.7637795275590551,"duration":1.0234375},{"name":"A#4","midi":70,"time":98.75651041666671,"velocity":0.7637795275590551,"duration":0.25},{"name":"G4","midi":67,"time":98.75651041666671,"velocity":0.7637795275590551,"duration":0.25},{"name":"G4","midi":67,"time":99.01432291666671,"velocity":0.7637795275590551,"duration":1.72265625},{"name":"D#4","midi":63,"time":99.01432291666671,"velocity":0.7637795275590551,"duration":1.72265625},{"name":"C3","midi":48,"time":99.27343750000004,"velocity":0.7637795275590551,"duration":0.25},{"name":"D#3","midi":51,"time":99.53125000000004,"velocity":0.7637795275590551,"duration":0.25},{"name":"G3","midi":55,"time":99.78906250000004,"velocity":0.7637795275590551,"duration":0.25},{"name":"C4","midi":60,"time":100.04687500000004,"velocity":0.7637795275590551,"duration":1.03125},{"name":"G4","midi":67,"time":100.82291666666671,"velocity":0.7637795275590551,"duration":0.25},{"name":"D4","midi":62,"time":100.82291666666671,"velocity":0.7637795275590551,"duration":0.25},{"name":"C5","midi":72,"time":101.08072916666671,"velocity":0.7637795275590551,"duration":0.7734375},{"name":"D#4","midi":63,"time":101.08072916666671,"velocity":0.7637795275590551,"duration":0.7734375},{"name":"A3","midi":57,"time":101.08072916666671,"velocity":0.7637795275590551,"duration":1.0234375},{"name":"C5","midi":72,"time":101.85677083333339,"velocity":0.7637795275590551,"duration":0.25},{"name":"F4","midi":65,"time":101.85677083333339,"velocity":0.7637795275590551,"duration":0.25},{"name":"C5","midi":72,"time":102.11458333333339,"velocity":0.7637795275590551,"duration":1.02734375},{"name":"D4","midi":62,"time":102.11458333333339,"velocity":0.7637795275590551,"duration":1.72265625},{"name":"A#2","midi":46,"time":102.37369791666671,"velocity":0.7637795275590551,"duration":0.25},{"name":"D3","midi":50,"time":102.63151041666671,"velocity":0.7637795275590551,"duration":0.25},{"name":"F3","midi":53,"time":102.88932291666671,"velocity":0.7637795275590551,"duration":0.25},{"name":"A#4","midi":70,"time":103.14713541666671,"velocity":0.7637795275590551,"duration":3.09765625},{"name":"A#3","midi":58,"time":103.14713541666671,"velocity":0.7637795275590551,"duration":1.03125},{"name":"D4","midi":62,"time":103.92317708333339,"velocity":0.7637795275590551,"duration":0.25},{"name":"G4","midi":67,"time":104.18098958333339,"velocity":0.7637795275590551,"duration":0.7734375},{"name":"D#3","midi":51,"time":104.18098958333339,"velocity":0.7637795275590551,"duration":1.0234375},{"name":"G4","midi":67,"time":104.95703125000006,"velocity":0.7637795275590551,"duration":0.25},{"name":"C4","midi":60,"time":105.21484375000006,"velocity":0.7637795275590551,"duration":1.72265625},{"name":"G#2","midi":44,"time":105.47395833333339,"velocity":0.7637795275590551,"duration":0.25},{"name":"C3","midi":48,"time":105.73177083333339,"velocity":0.7637795275590551,"duration":0.25},{"name":"D#3","midi":51,"time":105.98958333333339,"velocity":0.7637795275590551,"duration":0.25},{"name":"G#4","midi":68,"time":106.24739583333339,"velocity":0.7637795275590551,"duration":3.8736979166666714},{"name":"G#3","midi":56,"time":106.24739583333339,"velocity":0.7637795275590551,"duration":1.03125},{"name":"C4","midi":60,"time":107.02343750000006,"velocity":0.7637795275590551,"duration":0.25},{"name":"F4","midi":65,"time":107.28125000000006,"velocity":0.7637795275590551,"duration":0.7734375},{"name":"D3","midi":50,"time":107.28125000000006,"velocity":0.7637795275590551,"duration":1.0234375},{"name":"F4","midi":65,"time":108.05729166666673,"velocity":0.7637795275590551,"duration":0.25},{"name":"A#3","midi":58,"time":108.31510416666673,"velocity":0.7637795275590551,"duration":1.02734375},{"name":"G2","midi":43,"time":108.57421875000006,"velocity":0.7637795275590551,"duration":0.25},{"name":"A#2","midi":46,"time":108.83203125000006,"velocity":0.7637795275590551,"duration":0.25},{"name":"D3","midi":50,"time":109.08984375000006,"velocity":0.7637795275590551,"duration":0.25},{"name":"D#4","midi":63,"time":109.34765625000006,"velocity":0.7637795275590551,"duration":3.117187499999986},{"name":"G3","midi":55,"time":109.34765625000006,"velocity":0.7637795275590551,"duration":1.03125},{"name":"G4","midi":67,"time":110.12369791666673,"velocity":0.7637795275590551,"duration":0.25},{"name":"C5","midi":72,"time":110.38151041666673,"velocity":0.7637795275590551,"duration":0.7734375},{"name":"G#3","midi":56,"time":110.38151041666673,"velocity":0.7637795275590551,"duration":1.0234375},{"name":"C5","midi":72,"time":111.1575520833334,"velocity":0.7637795275590551,"duration":0.25},{"name":"F4","midi":65,"time":111.4153645833334,"velocity":0.7637795275590551,"duration":1.7539062499999858},{"name":"A#2","midi":46,"time":111.67838541666673,"velocity":0.7637795275590551,"duration":0.2552083333333286},{"name":"F3","midi":53,"time":111.94140625000006,"velocity":0.7637795275590551,"duration":0.2552083333333286},{"name":"G#3","midi":56,"time":112.20442708333339,"velocity":0.7637795275590551,"duration":0.2552083333333286},{"name":"D4","midi":62,"time":112.46744791666671,"velocity":0.7637795275590551,"duration":2.203125},{"name":"A#3","midi":58,"time":112.46744791666671,"velocity":0.7637795275590551,"duration":1.0494791666666572},{"name":"F4","midi":65,"time":113.25651041666671,"velocity":0.7637795275590551,"duration":0.2552083333333286},{"name":"A#4","midi":70,"time":113.51953125000004,"velocity":0.7637795275590551,"duration":0.8619791666666714},{"name":"A#2","midi":46,"time":113.51953125000004,"velocity":0.7637795275590551,"duration":1.1510416666666714},{"name":"C5","midi":72,"time":114.34244791666671,"velocity":0.7637795275590551,"duration":0.40625},{"name":"G4","midi":67,"time":114.76953125000004,"velocity":0.7637795275590551,"duration":3.4557291666666714},{"name":"D#4","midi":63,"time":114.76953125000004,"velocity":0.7637795275590551,"duration":3.4557291666666714},{"name":"D#2","midi":39,"time":114.76953125000004,"velocity":0.7637795275590551,"duration":3.4557291666666714}],"controlChanges":{"7":[{"number":7,"time":0,"value":0.7874015748031497}]},"id":1,"name":"Piano 1","instrumentNumber":6,"instrument":"harpsichord","instrumentFamily":"piano","channelNumber":0,"isPercussion":false}]}