{"header":{"PPQ":240,"timeSignature":[1,4],"bpm":120,"name":""},"startTime":4.570833333333333,"duration":129.89583333333306,"tracks":[{"startTime":4.570833333333333,"duration":129.89583333333306,"length":1624,"notes":[{"name":"F5","midi":77,"time":4.570833333333333,"velocity":0.8031496062992126,"duration":0.13124999999999964},{"name":"F3","midi":53,"time":4.572916666666666,"velocity":0.8031496062992126,"duration":0.2666666666666666},{"name":"C5","midi":72,"time":4.704166666666666,"velocity":0.8031496062992126,"duration":0.13333333333333375},{"name":"A4","midi":69,"time":4.841666666666666,"velocity":0.8031496062992126,"duration":0.13333333333333375},{"name":"A3","midi":57,"time":4.841666666666666,"velocity":0.8031496062992126,"duration":0.2666666666666666},{"name":"G4","midi":67,"time":4.975,"velocity":0.8031496062992126,"duration":0.13124999999999964},{"name":"A4","midi":69,"time":5.1083333333333325,"velocity":0.8031496062992126,"duration":0.12291666666666679},{"name":"C4","midi":60,"time":5.1083333333333325,"velocity":0.8031496062992126,"duration":0.25},{"name":"C5","midi":72,"time":5.231249999999999,"velocity":0.8031496062992126,"duration":0.125},{"name":"F4","midi":65,"time":5.3583333333333325,"velocity":0.8031496062992126,"duration":0.125},{"name":"A3","midi":57,"time":5.360416666666666,"velocity":0.8031496062992126,"duration":0.25624999999999964},{"name":"A4","midi":69,"time":5.4833333333333325,"velocity":0.8031496062992126,"duration":0.13124999999999964},{"name":"C5","midi":72,"time":5.616666666666665,"velocity":0.8031496062992126,"duration":0.13333333333333286},{"name":"F3","midi":53,"time":5.618749999999999,"velocity":0.8031496062992126,"duration":0.27083333333333304},{"name":"D#5","midi":75,"time":5.752083333333331,"velocity":0.8031496062992126,"duration":0.13750000000000018},{"name":"D5","midi":74,"time":5.891666666666665,"velocity":0.8031496062992126,"duration":0.13541666666666696},{"name":"A3","midi":57,"time":5.891666666666665,"velocity":0.8031496062992126,"duration":0.27500000000000036},{"name":"C5","midi":72,"time":6.027083333333332,"velocity":0.8031496062992126,"duration":0.13750000000000018},{"name":"D5","midi":74,"time":6.166666666666665,"velocity":0.8031496062992126,"duration":0.13541666666666696},{"name":"A#3","midi":58,"time":6.168749999999998,"velocity":0.8031496062992126,"duration":0.2666666666666666},{"name":"A#4","midi":70,"time":6.304166666666665,"velocity":0.8031496062992126,"duration":0.13124999999999964},{"name":"D4","midi":62,"time":6.437499999999998,"velocity":0.8031496062992126,"duration":0.2604166666666661},{"name":"F4","midi":65,"time":6.437499999999998,"velocity":0.8031496062992126,"duration":0.12916666666666643},{"name":"E4","midi":64,"time":6.568749999999998,"velocity":0.8031496062992126,"duration":0.12916666666666643},{"name":"F4","midi":65,"time":6.6999999999999975,"velocity":0.8031496062992126,"duration":0.125},{"name":"A#3","midi":58,"time":6.6999999999999975,"velocity":0.8031496062992126,"duration":0.2520833333333332},{"name":"A#4","midi":70,"time":6.8249999999999975,"velocity":0.8031496062992126,"duration":0.125},{"name":"D4","midi":62,"time":6.952083333333331,"velocity":0.8031496062992126,"duration":0.125},{"name":"F2","midi":41,"time":6.954166666666664,"velocity":0.7952755905511811,"duration":0.5062499999999996},{"name":"F4","midi":65,"time":7.077083333333331,"velocity":0.8031496062992126,"duration":0.12916666666666643},{"name":"A4","midi":69,"time":7.20833333333333,"velocity":0.8031496062992126,"duration":0.12916666666666643},{"name":"C5","midi":72,"time":7.337499999999997,"velocity":0.8031496062992126,"duration":0.12083333333333357},{"name":"A#4","midi":70,"time":7.460416666666664,"velocity":0.8031496062992126,"duration":0.12291666666666679},{"name":"A4","midi":69,"time":7.58333333333333,"velocity":0.8031496062992126,"duration":0.12708333333333321},{"name":"A#4","midi":70,"time":7.712499999999997,"velocity":0.8031496062992126,"duration":0.125},{"name":"F3","midi":53,"time":7.712499999999997,"velocity":0.8031496062992126,"duration":0.25624999999999964},{"name":"G4","midi":67,"time":7.837499999999997,"velocity":0.8031496062992126,"duration":0.12916666666666643},{"name":"E4","midi":64,"time":7.9687499999999964,"velocity":0.8031496062992126,"duration":0.13333333333333286},{"name":"G3","midi":55,"time":7.97083333333333,"velocity":0.8031496062992126,"duration":0.26874999999999893},{"name":"D4","midi":62,"time":8.104166666666663,"velocity":0.8031496062992126,"duration":0.13541666666666607},{"name":"A#3","midi":58,"time":8.241666666666662,"velocity":0.8031496062992126,"duration":0.2666666666666657},{"name":"E4","midi":64,"time":8.241666666666662,"velocity":0.8031496062992126,"duration":0.13333333333333286},{"name":"G4","midi":67,"time":8.374999999999995,"velocity":0.8031496062992126,"duration":0.13124999999999964},{"name":"C4","midi":60,"time":8.508333333333328,"velocity":0.8031496062992126,"duration":0.13124999999999964},{"name":"G3","midi":55,"time":8.51041666666666,"velocity":0.8031496062992126,"duration":0.2604166666666661},{"name":"E4","midi":64,"time":8.639583333333327,"velocity":0.8031496062992126,"duration":0.12916666666666643},{"name":"G4","midi":67,"time":8.770833333333327,"velocity":0.8031496062992126,"duration":0.12916666666666643},{"name":"E3","midi":52,"time":8.77291666666666,"velocity":0.8031496062992126,"duration":0.25833333333333286},{"name":"A#4","midi":70,"time":8.899999999999993,"velocity":0.8031496062992126,"duration":0.13124999999999964},{"name":"A4","midi":69,"time":9.033333333333326,"velocity":0.8031496062992126,"duration":0.12708333333333321},{"name":"C3","midi":48,"time":9.033333333333326,"velocity":0.7952755905511811,"duration":0.25833333333333286},{"name":"G4","midi":67,"time":9.162499999999993,"velocity":0.8031496062992126,"duration":0.12916666666666643},{"name":"A4","midi":69,"time":9.293749999999992,"velocity":0.8031496062992126,"duration":0.12916666666666643},{"name":"F3","midi":53,"time":9.293749999999992,"velocity":0.8031496062992126,"duration":0.25624999999999964},{"name":"G4","midi":67,"time":9.422916666666659,"velocity":0.8031496062992126,"duration":0.12708333333333321},{"name":"F4","midi":65,"time":9.552083333333325,"velocity":0.8031496062992126,"duration":0.12708333333333321},{"name":"A3","midi":57,"time":9.552083333333325,"velocity":0.8031496062992126,"duration":0.2604166666666661},{"name":"E4","midi":64,"time":9.681249999999991,"velocity":0.8031496062992126,"duration":0.13124999999999964},{"name":"F3","midi":53,"time":9.814583333333324,"velocity":0.8031496062992126,"duration":0.25624999999999964},{"name":"F4","midi":65,"time":9.814583333333324,"velocity":0.8031496062992126,"duration":0.12708333333333321},{"name":"A4","midi":69,"time":9.94374999999999,"velocity":0.8031496062992126,"duration":0.12708333333333321},{"name":"C4","midi":60,"time":10.070833333333324,"velocity":0.8031496062992126,"duration":0.12708333333333321},{"name":"F2","midi":41,"time":10.072916666666657,"velocity":0.7952755905511811,"duration":0.5187499999999989},{"name":"E4","midi":64,"time":10.19999999999999,"velocity":0.8031496062992126,"duration":0.12916666666666643},{"name":"F4","midi":65,"time":10.33124999999999,"velocity":0.8031496062992126,"duration":0.12916666666666643},{"name":"A4","midi":69,"time":10.460416666666656,"velocity":0.8031496062992126,"duration":0.12916666666666643},{"name":"G4","midi":67,"time":10.591666666666656,"velocity":0.8031496062992126,"duration":0.12708333333333321},{"name":"F4","midi":65,"time":10.71874999999999,"velocity":0.8031496062992126,"duration":0.12708333333333321},{"name":"A4","midi":69,"time":10.847916666666656,"velocity":0.8031496062992126,"duration":0.08333333333333215},{"name":"F3","midi":53,"time":10.847916666666656,"velocity":0.8031496062992126,"duration":0.1520833333333318},{"name":"B4","midi":71,"time":10.924999999999988,"velocity":0.7401574803149606,"duration":0.07916666666666572},{"name":"C5","midi":72,"time":10.999999999999988,"velocity":0.7401574803149606,"duration":0.08124999999999893},{"name":"D3","midi":50,"time":11.00208333333332,"velocity":0.8031496062992126,"duration":0.14791666666666536},{"name":"B4","midi":71,"time":11.074999999999987,"velocity":0.7401574803149606,"duration":0.08333333333333215},{"name":"C5","midi":72,"time":11.149999999999986,"velocity":0.7401574803149606,"duration":0.08333333333333215},{"name":"B2","midi":47,"time":11.15208333333332,"velocity":0.7952755905511811,"duration":0.14999999999999858},{"name":"B4","midi":71,"time":11.224999999999985,"velocity":0.7401574803149606,"duration":0.08333333333333215},{"name":"C5","midi":72,"time":11.302083333333318,"velocity":0.7401574803149606,"duration":0.07916666666666572},{"name":"A2","midi":45,"time":11.304166666666651,"velocity":0.7952755905511811,"duration":0.1395833333333325},{"name":"B4","midi":71,"time":11.374999999999984,"velocity":0.7401574803149606,"duration":0.07499999999999929},{"name":"C5","midi":72,"time":11.445833333333317,"velocity":0.7401574803149606,"duration":0.07499999999999929},{"name":"B2","midi":47,"time":11.445833333333317,"velocity":0.7952755905511811,"duration":0.13541666666666607},{"name":"B4","midi":71,"time":11.514583333333317,"velocity":0.7401574803149606,"duration":0.07499999999999929},{"name":"C5","midi":72,"time":11.583333333333316,"velocity":0.7401574803149606,"duration":0.07916666666666572},{"name":"D3","midi":50,"time":11.583333333333316,"velocity":0.8031496062992126,"duration":0.14166666666666572},{"name":"B4","midi":71,"time":11.654166666666649,"velocity":0.7165354330708661,"duration":0.07916666666666572},{"name":"C5","midi":72,"time":11.727083333333315,"velocity":0.7165354330708661,"duration":0.07916666666666572},{"name":"G2","midi":43,"time":11.727083333333315,"velocity":0.7952755905511811,"duration":0.14374999999999893},{"name":"B4","midi":71,"time":11.799999999999981,"velocity":0.7165354330708661,"duration":0.0770833333333325},{"name":"C5","midi":72,"time":11.870833333333314,"velocity":0.7165354330708661,"duration":0.07291666666666607},{"name":"B2","midi":47,"time":11.872916666666647,"velocity":0.7952755905511811,"duration":0.13333333333333286},{"name":"B4","midi":71,"time":11.93749999999998,"velocity":0.7165354330708661,"duration":0.07499999999999929},{"name":"C5","midi":72,"time":12.00624999999998,"velocity":0.7165354330708661,"duration":0.07291666666666607},{"name":"D3","midi":50,"time":12.008333333333313,"velocity":0.7716535433070866,"duration":0.13124999999999964},{"name":"B4","midi":71,"time":12.07499999999998,"velocity":0.7165354330708661,"duration":0.07291666666666607},{"name":"C5","midi":72,"time":12.141666666666646,"velocity":0.7165354330708661,"duration":0.07291666666666607},{"name":"F3","midi":53,"time":12.141666666666646,"velocity":0.7716535433070866,"duration":0.13333333333333286},{"name":"B4","midi":71,"time":12.208333333333313,"velocity":0.7165354330708661,"duration":0.07291666666666607},{"name":"C5","midi":72,"time":12.274999999999979,"velocity":0.7165354330708661,"duration":0.07291666666666607},{"name":"E3","midi":52,"time":12.274999999999979,"velocity":0.7716535433070866,"duration":0.13541666666666607},{"name":"B4","midi":71,"time":12.341666666666645,"velocity":0.7165354330708661,"duration":0.07499999999999929},{"name":"A4","midi":69,"time":12.410416666666645,"velocity":0.7874015748031497,"duration":0.07291666666666607},{"name":"D3","midi":50,"time":12.412499999999978,"velocity":0.7244094488188977,"duration":0.08750000000000036},{"name":"B4","midi":71,"time":12.477083333333312,"velocity":0.7165354330708661,"duration":0.06666666666666643},{"name":"C5","midi":72,"time":12.545833333333311,"velocity":0.7165354330708661,"duration":0.1374999999999993},{"name":"D3","midi":50,"time":12.545833333333311,"velocity":0.7559055118110236,"duration":0.07291666666666607},{"name":"E3","midi":52,"time":12.610416666666644,"velocity":0.7559055118110236,"duration":0.08124999999999893},{"name":"G4","midi":67,"time":12.685416666666644,"velocity":0.8031496062992126,"duration":0.14791666666666536},{"name":"F3","midi":53,"time":12.685416666666644,"velocity":0.7559055118110236,"duration":0.08124999999999893},{"name":"E3","midi":52,"time":12.75833333333331,"velocity":0.7244094488188977,"duration":0.08124999999999893},{"name":"E4","midi":64,"time":12.835416666666642,"velocity":0.8031496062992126,"duration":0.14583333333333215},{"name":"F3","midi":53,"time":12.835416666666642,"velocity":0.7244094488188977,"duration":0.07916666666666572},{"name":"E3","midi":52,"time":12.908333333333308,"velocity":0.7244094488188977,"duration":0.08124999999999893},{"name":"F3","midi":53,"time":12.983333333333308,"velocity":0.7244094488188977,"duration":0.08124999999999893},{"name":"D4","midi":62,"time":12.983333333333308,"velocity":0.8031496062992126,"duration":0.14583333333333215},{"name":"E3","midi":52,"time":13.056249999999974,"velocity":0.7244094488188977,"duration":0.07916666666666572},{"name":"E4","midi":64,"time":13.131249999999973,"velocity":0.8031496062992126,"duration":0.14166666666666572},{"name":"F3","midi":53,"time":13.131249999999973,"velocity":0.7244094488188977,"duration":0.0770833333333325},{"name":"E3","midi":52,"time":13.199999999999973,"velocity":0.7244094488188977,"duration":0.07916666666666572},{"name":"G4","midi":67,"time":13.272916666666639,"velocity":0.8031496062992126,"duration":0.13333333333333286},{"name":"F3","midi":53,"time":13.274999999999972,"velocity":0.7244094488188977,"duration":0.07083333333333286},{"name":"E3","midi":52,"time":13.339583333333305,"velocity":0.7244094488188977,"duration":0.07291666666666607},{"name":"C4","midi":60,"time":13.406249999999972,"velocity":0.8031496062992126,"duration":0.13541666666666607},{"name":"F3","midi":53,"time":13.408333333333305,"velocity":0.7244094488188977,"duration":0.06874999999999964},{"name":"E3","midi":52,"time":13.472916666666638,"velocity":0.7244094488188977,"duration":0.07499999999999929},{"name":"E4","midi":64,"time":13.54374999999997,"velocity":0.8031496062992126,"duration":0.14374999999999893},{"name":"F3","midi":53,"time":13.54374999999997,"velocity":0.7244094488188977,"duration":0.07916666666666572},{"name":"E3","midi":52,"time":13.614583333333304,"velocity":0.7244094488188977,"duration":0.08124999999999893},{"name":"G4","midi":67,"time":13.689583333333303,"velocity":0.8031496062992126,"duration":0.13333333333333286},{"name":"F3","midi":53,"time":13.689583333333303,"velocity":0.7244094488188977,"duration":0.07291666666666607},{"name":"E3","midi":52,"time":13.75624999999997,"velocity":0.7244094488188977,"duration":0.07291666666666607},{"name":"A#4","midi":70,"time":13.822916666666636,"velocity":0.8031496062992126,"duration":0.14374999999999893},{"name":"F3","midi":53,"time":13.824999999999969,"velocity":0.7244094488188977,"duration":0.0770833333333325},{"name":"E3","midi":52,"time":13.893749999999969,"velocity":0.7244094488188977,"duration":0.07916666666666572},{"name":"A4","midi":69,"time":13.966666666666635,"velocity":0.8031496062992126,"duration":0.12708333333333321},{"name":"F3","midi":53,"time":13.968749999999968,"velocity":0.7244094488188977,"duration":0.06666666666666643},{"name":"E3","midi":52,"time":14.029166666666635,"velocity":0.7244094488188977,"duration":0.07291666666666607},{"name":"G4","midi":67,"time":14.095833333333301,"velocity":0.8031496062992126,"duration":0.12916666666666643},{"name":"D3","midi":50,"time":14.095833333333301,"velocity":0.7244094488188977,"duration":0.07083333333333286},{"name":"E3","midi":52,"time":14.160416666666634,"velocity":0.7244094488188977,"duration":0.06458333333333321},{"name":"D5","midi":74,"time":14.224999999999968,"velocity":0.8031496062992126,"duration":0.06874999999999964},{"name":"G3","midi":55,"time":14.2270833333333,"velocity":0.7795275590551181,"duration":0.13124999999999964},{"name":"C#5","midi":73,"time":14.2895833333333,"velocity":0.8031496062992126,"duration":0.07499999999999929},{"name":"B4","midi":71,"time":14.3583333333333,"velocity":0.8031496062992126,"duration":0.07916666666666572},{"name":"E3","midi":52,"time":14.360416666666634,"velocity":0.8031496062992126,"duration":0.14583333333333215},{"name":"C#5","midi":73,"time":14.4333333333333,"velocity":0.7874015748031497,"duration":0.08124999999999893},{"name":"D5","midi":74,"time":14.506249999999966,"velocity":0.7874015748031497,"duration":0.08124999999999893},{"name":"C#3","midi":49,"time":14.508333333333299,"velocity":0.8031496062992126,"duration":0.14583333333333215},{"name":"C#5","midi":73,"time":14.581249999999965,"velocity":0.7874015748031497,"duration":0.08124999999999893},{"name":"D5","midi":74,"time":14.656249999999964,"velocity":0.7874015748031497,"duration":0.07916666666666572},{"name":"B2","midi":47,"time":14.656249999999964,"velocity":0.7952755905511811,"duration":0.14583333333333215},{"name":"C#5","midi":73,"time":14.72916666666663,"velocity":0.7874015748031497,"duration":0.08124999999999893},{"name":"D5","midi":74,"time":14.80416666666663,"velocity":0.7952755905511811,"duration":0.0770833333333325},{"name":"C#3","midi":49,"time":14.80416666666663,"velocity":0.8031496062992126,"duration":0.14166666666666572},{"name":"C#5","midi":73,"time":14.877083333333296,"velocity":0.7952755905511811,"duration":0.07291666666666607},{"name":"D5","midi":74,"time":14.945833333333296,"velocity":0.7952755905511811,"duration":0.07291666666666607},{"name":"E3","midi":52,"time":14.945833333333296,"velocity":0.8031496062992126,"duration":0.13541666666666607},{"name":"C#5","midi":73,"time":15.012499999999962,"velocity":0.7716535433070866,"duration":0.07499999999999929},{"name":"D5","midi":74,"time":15.081249999999962,"velocity":0.7716535433070866,"duration":0.07499999999999929},{"name":"A2","midi":45,"time":15.083333333333295,"velocity":0.7952755905511811,"duration":0.1395833333333325},{"name":"C#5","midi":73,"time":15.149999999999961,"velocity":0.7716535433070866,"duration":0.0770833333333325},{"name":"D5","midi":74,"time":15.222916666666627,"velocity":0.7716535433070866,"duration":0.08124999999999893},{"name":"C#3","midi":49,"time":15.22499999999996,"velocity":0.8031496062992126,"duration":0.14374999999999893},{"name":"C#5","midi":73,"time":15.297916666666627,"velocity":0.7716535433070866,"duration":0.0770833333333325},{"name":"D5","midi":74,"time":15.370833333333293,"velocity":0.7716535433070866,"duration":0.07499999999999929},{"name":"E3","midi":52,"time":15.370833333333293,"velocity":0.8031496062992126,"duration":0.1374999999999993},{"name":"C#5","midi":73,"time":15.439583333333292,"velocity":0.7716535433070866,"duration":0.07499999999999929},{"name":"D5","midi":74,"time":15.510416666666625,"velocity":0.7716535433070866,"duration":0.07291666666666607},{"name":"G3","midi":55,"time":15.510416666666625,"velocity":0.8031496062992126,"duration":0.13541666666666607},{"name":"C#5","midi":73,"time":15.577083333333292,"velocity":0.7716535433070866,"duration":0.07291666666666607},{"name":"D5","midi":74,"time":15.645833333333291,"velocity":0.7716535433070866,"duration":0.07291666666666607},{"name":"F3","midi":53,"time":15.647916666666625,"velocity":0.8031496062992126,"duration":0.12916666666666643},{"name":"C#5","midi":73,"time":15.710416666666625,"velocity":0.7716535433070866,"duration":0.07499999999999929},{"name":"B4","midi":71,"time":15.777083333333291,"velocity":0.8031496062992126,"duration":0.07291666666666607},{"name":"E3","midi":52,"time":15.779166666666624,"velocity":0.8031496062992126,"duration":0.08541666666666536},{"name":"C#5","midi":73,"time":15.843749999999957,"velocity":0.7716535433070866,"duration":0.06666666666666465},{"name":"D5","midi":74,"time":15.912499999999955,"velocity":0.7716535433070866,"duration":0.13958333333333428},{"name":"E3","midi":52,"time":15.912499999999955,"velocity":0.7244094488188977,"duration":0.06666666666666643},{"name":"F3","midi":53,"time":15.979166666666622,"velocity":0.7244094488188977,"duration":0.07083333333333286},{"name":"A4","midi":69,"time":16.05208333333329,"velocity":0.8031496062992126,"duration":0.13958333333333783},{"name":"G3","midi":55,"time":16.054166666666625,"velocity":0.7244094488188977,"duration":0.07291666666666785},{"name":"F3","midi":53,"time":16.122916666666626,"velocity":0.7244094488188977,"duration":0.07708333333333783},{"name":"F4","midi":65,"time":16.191666666666627,"velocity":0.8031496062992126,"duration":0.14166666666666927},{"name":"G3","midi":55,"time":16.193749999999962,"velocity":0.7244094488188977,"duration":0.07499999999999929},{"name":"F3","midi":53,"time":16.26041666666663,"velocity":0.7244094488188977,"duration":0.07916666666666927},{"name":"E4","midi":64,"time":16.333333333333297,"velocity":0.8031496062992126,"duration":0.13958333333333428},{"name":"G3","midi":55,"time":16.33541666666663,"velocity":0.7244094488188977,"duration":0.07499999999999929},{"name":"F3","midi":53,"time":16.402083333333298,"velocity":0.7244094488188977,"duration":0.07708333333333428},{"name":"G3","midi":55,"time":16.474999999999966,"velocity":0.7244094488188977,"duration":0.07499999999999929},{"name":"F4","midi":65,"time":16.474999999999966,"velocity":0.8031496062992126,"duration":0.1354166666666643},{"name":"F3","midi":53,"time":16.541666666666632,"velocity":0.7244094488188977,"duration":0.07708333333333428},{"name":"A4","midi":69,"time":16.612499999999965,"velocity":0.8031496062992126,"duration":0.1479166666666707},{"name":"G3","midi":55,"time":16.612499999999965,"velocity":0.7244094488188977,"duration":0.08125000000000426},{"name":"F3","midi":53,"time":16.687499999999968,"velocity":0.7244094488188977,"duration":0.07916666666666927},{"name":"D4","midi":62,"time":16.76249999999997,"velocity":0.8031496062992126,"duration":0.13124999999999787},{"name":"G3","midi":55,"time":16.76249999999997,"velocity":0.7244094488188977,"duration":0.07083333333333286},{"name":"F3","midi":53,"time":16.827083333333302,"velocity":0.7244094488188977,"duration":0.07291666666666785},{"name":"F4","midi":65,"time":16.89374999999997,"velocity":0.8031496062992126,"duration":0.13333333333333286},{"name":"G3","midi":55,"time":16.895833333333304,"velocity":0.7244094488188977,"duration":0.07083333333333286},{"name":"F3","midi":53,"time":16.960416666666635,"velocity":0.7244094488188977,"duration":0.07291666666666785},{"name":"A4","midi":69,"time":17.0270833333333,"velocity":0.8031496062992126,"duration":0.13125000000000142},{"name":"G3","midi":55,"time":17.029166666666637,"velocity":0.7244094488188977,"duration":0.07083333333333286},{"name":"F3","midi":53,"time":17.093749999999968,"velocity":0.7244094488188977,"duration":0.07083333333333641},{"name":"C5","midi":72,"time":17.160416666666638,"velocity":0.8031496062992126,"duration":0.13333333333333286},{"name":"G3","midi":55,"time":17.160416666666638,"velocity":0.7244094488188977,"duration":0.07291666666666785},{"name":"F3","midi":53,"time":17.227083333333304,"velocity":0.7244094488188977,"duration":0.07291666666666785},{"name":"A#4","midi":70,"time":17.29374999999997,"velocity":0.8031496062992126,"duration":0.13333333333333286},{"name":"G3","midi":55,"time":17.295833333333306,"velocity":0.7244094488188977,"duration":0.07083333333333286},{"name":"F3","midi":53,"time":17.360416666666637,"velocity":0.7244094488188977,"duration":0.07500000000000284},{"name":"A4","midi":69,"time":17.427083333333304,"velocity":0.8031496062992126,"duration":0.13541666666666785},{"name":"G3","midi":55,"time":17.42916666666664,"velocity":0.7244094488188977,"duration":0.07083333333333286},{"name":"F3","midi":53,"time":17.495833333333305,"velocity":0.7244094488188977,"duration":0.06458333333333144},{"name":"A#4","midi":70,"time":17.56249999999997,"velocity":0.8031496062992126,"duration":0.1333333333333364},{"name":"G3","midi":55,"time":17.564583333333307,"velocity":0.7559055118110236,"duration":0.2645833333333343},{"name":"G4","midi":67,"time":17.695833333333308,"velocity":0.8031496062992126,"duration":0.13333333333333286},{"name":"A#3","midi":58,"time":17.831249999999976,"velocity":0.8031496062992126,"duration":0.26875000000000426},{"name":"E4","midi":64,"time":17.831249999999976,"velocity":0.8031496062992126,"duration":0.13125000000000142},{"name":"D4","midi":62,"time":17.964583333333312,"velocity":0.8031496062992126,"duration":0.13541666666666785},{"name":"E4","midi":64,"time":18.102083333333315,"velocity":0.8031496062992126,"duration":0.13125000000000142},{"name":"G3","midi":55,"time":18.102083333333315,"velocity":0.8031496062992126,"duration":0.26875000000000426},{"name":"G4","midi":67,"time":18.233333333333317,"velocity":0.8031496062992126,"duration":0.13541666666666785},{"name":"C4","midi":60,"time":18.37083333333332,"velocity":0.8031496062992126,"duration":0.13125000000000142},{"name":"E3","midi":52,"time":18.372916666666654,"velocity":0.8031496062992126,"duration":0.2645833333333343},{"name":"E4","midi":64,"time":18.504166666666656,"velocity":0.8031496062992126,"duration":0.13333333333333286},{"name":"G4","midi":67,"time":18.639583333333324,"velocity":0.8031496062992126,"duration":0.13125000000000142},{"name":"C3","midi":48,"time":18.639583333333324,"velocity":0.7952755905511811,"duration":0.26875000000000426},{"name":"A#4","midi":70,"time":18.77291666666666,"velocity":0.8031496062992126,"duration":0.13333333333333286},{"name":"A4","midi":69,"time":18.908333333333328,"velocity":0.8031496062992126,"duration":0.13541666666666785},{"name":"E3","midi":52,"time":18.910416666666663,"velocity":0.8031496062992126,"duration":0.2708333333333357},{"name":"G4","midi":67,"time":19.043749999999996,"velocity":0.8031496062992126,"duration":0.13541666666666785},{"name":"A4","midi":69,"time":19.18125,"velocity":0.8031496062992126,"duration":0.13541666666666785},{"name":"F3","midi":53,"time":19.18125,"velocity":0.8031496062992126,"duration":0.2708333333333357},{"name":"F4","midi":65,"time":19.316666666666666,"velocity":0.8031496062992126,"duration":0.13333333333333286},{"name":"A3","midi":57,"time":19.45416666666667,"velocity":0.8031496062992126,"duration":0.2687500000000007},{"name":"D4","midi":62,"time":19.45416666666667,"velocity":0.8031496062992126,"duration":0.13333333333333286},{"name":"C#4","midi":61,"time":19.587500000000002,"velocity":0.8031496062992126,"duration":0.13541666666666785},{"name":"D4","midi":62,"time":19.72291666666667,"velocity":0.8031496062992126,"duration":0.13541666666666785},{"name":"F3","midi":53,"time":19.725000000000005,"velocity":0.8031496062992126,"duration":0.2708333333333357},{"name":"F4","midi":65,"time":19.858333333333338,"velocity":0.8031496062992126,"duration":0.13541666666666785},{"name":"A#3","midi":58,"time":19.99583333333334,"velocity":0.8031496062992126,"duration":0.13125000000000142},{"name":"D3","midi":50,"time":19.997916666666676,"velocity":0.8031496062992126,"duration":0.26666666666666927},{"name":"D4","midi":62,"time":20.129166666666677,"velocity":0.8031496062992126,"duration":0.13541666666666785},{"name":"F4","midi":65,"time":20.26666666666668,"velocity":0.8031496062992126,"duration":0.13125000000000142},{"name":"A#2","midi":46,"time":20.26666666666668,"velocity":0.7952755905511811,"duration":0.26875000000000426},{"name":"A4","midi":69,"time":20.400000000000016,"velocity":0.8031496062992126,"duration":0.13333333333333286},{"name":"G4","midi":67,"time":20.535416666666684,"velocity":0.8031496062992126,"duration":0.1333333333333364},{"name":"D3","midi":50,"time":20.53750000000002,"velocity":0.8031496062992126,"duration":0.2645833333333343},{"name":"F4","midi":65,"time":20.66875000000002,"velocity":0.8031496062992126,"duration":0.13333333333333286},{"name":"E3","midi":52,"time":20.80416666666669,"velocity":0.8031496062992126,"duration":0.2645833333333343},{"name":"G4","midi":67,"time":20.80416666666669,"velocity":0.8031496062992126,"duration":0.12916666666666643},{"name":"E4","midi":64,"time":20.93541666666669,"velocity":0.8031496062992126,"duration":0.13333333333333286},{"name":"C#4","midi":61,"time":21.070833333333358,"velocity":0.8031496062992126,"duration":0.13125000000000142},{"name":"G3","midi":55,"time":21.070833333333358,"velocity":0.8031496062992126,"duration":0.26666666666666927},{"name":"B3","midi":59,"time":21.20208333333336,"velocity":0.8031496062992126,"duration":0.13333333333333286},{"name":"C#4","midi":61,"time":21.337500000000027,"velocity":0.8031496062992126,"duration":0.1333333333333364},{"name":"E3","midi":52,"time":21.339583333333362,"velocity":0.8031496062992126,"duration":0.26041666666666785},{"name":"E4","midi":64,"time":21.470833333333363,"velocity":0.8031496062992126,"duration":0.12916666666666643},{"name":"A3","midi":57,"time":21.602083333333365,"velocity":0.8031496062992126,"duration":0.12916666666666643},{"name":"C#3","midi":49,"time":21.602083333333365,"velocity":0.8031496062992126,"duration":0.2645833333333343},{"name":"C#4","midi":61,"time":21.733333333333366,"velocity":0.8031496062992126,"duration":0.13333333333333286},{"name":"E4","midi":64,"time":21.868750000000034,"velocity":0.8031496062992126,"duration":0.12916666666666643},{"name":"A2","midi":45,"time":21.868750000000034,"velocity":0.7952755905511811,"duration":0.26458333333333783},{"name":"G4","midi":67,"time":22.000000000000036,"velocity":0.8031496062992126,"duration":0.13125000000000142},{"name":"F4","midi":65,"time":22.133333333333372,"velocity":0.8031496062992126,"duration":0.13125000000000142},{"name":"C#3","midi":49,"time":22.135416666666707,"velocity":0.8031496062992126,"duration":0.2645833333333343},{"name":"E4","midi":64,"time":22.264583333333373,"velocity":0.8031496062992126,"duration":0.13333333333333286},{"name":"D3","midi":50,"time":22.40000000000004,"velocity":0.8031496062992126,"duration":0.125},{"name":"F4","midi":65,"time":22.40000000000004,"velocity":0.8031496062992126,"duration":0.2562500000000014},{"name":"A2","midi":45,"time":22.527083333333376,"velocity":0.7952755905511811,"duration":0.12916666666666643},{"name":"A4","midi":69,"time":22.658333333333378,"velocity":0.8031496062992126,"duration":0.256250000000005},{"name":"F2","midi":41,"time":22.658333333333378,"velocity":0.7952755905511811,"duration":0.127083333333335},{"name":"E2","midi":40,"time":22.787500000000048,"velocity":0.7952755905511811,"duration":0.127083333333335},{"name":"D5","midi":74,"time":22.916666666666718,"velocity":0.8031496062992126,"duration":0.25416666666667},{"name":"F2","midi":41,"time":22.916666666666718,"velocity":0.7952755905511811,"duration":0.125},{"name":"A2","midi":45,"time":23.043750000000053,"velocity":0.7952755905511811,"duration":0.127083333333335},{"name":"A4","midi":69,"time":23.172916666666723,"velocity":0.8031496062992126,"duration":0.25},{"name":"D2","midi":38,"time":23.172916666666723,"velocity":0.7952755905511811,"duration":0.12291666666666501},{"name":"F2","midi":41,"time":23.297916666666723,"velocity":0.7952755905511811,"duration":0.125},{"name":"F4","midi":65,"time":23.425000000000058,"velocity":0.8031496062992126,"duration":0.252083333333335},{"name":"A2","midi":45,"time":23.425000000000058,"velocity":0.7952755905511811,"duration":0.125},{"name":"C3","midi":48,"time":23.550000000000058,"velocity":0.7952755905511811,"duration":0.125},{"name":"D4","midi":62,"time":23.677083333333393,"velocity":0.8031496062992126,"duration":0.25416666666667},{"name":"A#2","midi":46,"time":23.679166666666728,"velocity":0.7952755905511811,"duration":0.125},{"name":"A2","midi":45,"time":23.804166666666728,"velocity":0.7952755905511811,"duration":0.127083333333335},{"name":"G4","midi":67,"time":23.931250000000063,"velocity":0.8031496062992126,"duration":0.2604166666666714},{"name":"D3","midi":50,"time":23.933333333333398,"velocity":0.8031496062992126,"duration":0.127083333333335},{"name":"A#2","midi":46,"time":24.060416666666733,"velocity":0.7952755905511811,"duration":0.13125000000000142},{"name":"A#4","midi":70,"time":24.191666666666734,"velocity":0.8031496062992126,"duration":0.2604166666666714},{"name":"G2","midi":43,"time":24.19375000000007,"velocity":0.7952755905511811,"duration":0.125},{"name":"F#2","midi":42,"time":24.31875000000007,"velocity":0.7952755905511811,"duration":0.13125000000000142},{"name":"D5","midi":74,"time":24.452083333333405,"velocity":0.8031496062992126,"duration":0.2604166666666714},{"name":"G2","midi":43,"time":24.452083333333405,"velocity":0.7952755905511811,"duration":0.127083333333335},{"name":"A#2","midi":46,"time":24.581250000000075,"velocity":0.7952755905511811,"duration":0.12916666666666643},{"name":"A#4","midi":70,"time":24.712500000000077,"velocity":0.8031496062992126,"duration":0.2604166666666714},{"name":"D2","midi":38,"time":24.71458333333341,"velocity":0.7952755905511811,"duration":0.127083333333335},{"name":"G2","midi":43,"time":24.841666666666747,"velocity":0.7952755905511811,"duration":0.12916666666666643},{"name":"G4","midi":67,"time":24.972916666666748,"velocity":0.8031496062992126,"duration":0.2583333333333364},{"name":"A#2","midi":46,"time":24.972916666666748,"velocity":0.7952755905511811,"duration":0.127083333333335},{"name":"D3","midi":50,"time":25.102083333333418,"velocity":0.8031496062992126,"duration":0.12916666666666643},{"name":"D4","midi":62,"time":25.23333333333342,"velocity":0.8031496062992126,"duration":0.25416666666667},{"name":"C#3","midi":49,"time":25.23333333333342,"velocity":0.8031496062992126,"duration":0.125},{"name":"B2","midi":47,"time":25.360416666666755,"velocity":0.7952755905511811,"duration":0.127083333333335},{"name":"C#3","midi":49,"time":25.489583333333425,"velocity":0.8031496062992126,"duration":0.125},{"name":"G4","midi":67,"time":25.489583333333425,"velocity":0.8031496062992126,"duration":0.25416666666667},{"name":"A#2","midi":46,"time":25.61666666666676,"velocity":0.7952755905511811,"duration":0.127083333333335},{"name":"C#5","midi":73,"time":25.74583333333343,"velocity":0.8031496062992126,"duration":0.25416666666667},{"name":"G2","midi":43,"time":25.74583333333343,"velocity":0.7952755905511811,"duration":0.125},{"name":"F#2","midi":42,"time":25.872916666666764,"velocity":0.7952755905511811,"duration":0.127083333333335},{"name":"E5","midi":76,"time":26.0000000000001,"velocity":0.8031496062992126,"duration":0.25416666666667},{"name":"G2","midi":43,"time":26.002083333333434,"velocity":0.7952755905511811,"duration":0.125},{"name":"A#2","midi":46,"time":26.127083333333434,"velocity":0.7952755905511811,"duration":0.125},{"name":"C#5","midi":73,"time":26.25416666666677,"velocity":0.8031496062992126,"duration":0.25416666666667},{"name":"D2","midi":38,"time":26.256250000000104,"velocity":0.7952755905511811,"duration":0.125},{"name":"G2","midi":43,"time":26.381250000000104,"velocity":0.7952755905511811,"duration":0.125},{"name":"G4","midi":67,"time":26.50833333333344,"velocity":0.8031496062992126,"duration":0.256250000000005},{"name":"C#3","midi":49,"time":26.510416666666774,"velocity":0.8031496062992126,"duration":0.125},{"name":"E3","midi":52,"time":26.635416666666774,"velocity":0.8031496062992126,"duration":0.127083333333335},{"name":"E4","midi":64,"time":26.764583333333444,"velocity":0.8031496062992126,"duration":0.256250000000005},{"name":"D3","midi":50,"time":26.76666666666678,"velocity":0.8031496062992126,"duration":0.125},{"name":"C#3","midi":49,"time":26.89166666666678,"velocity":0.8031496062992126,"duration":0.127083333333335},{"name":"D5","midi":74,"time":27.02083333333345,"velocity":0.8031496062992126,"duration":0.12916666666666998},{"name":"D3","midi":50,"time":27.022916666666784,"velocity":0.8031496062992126,"duration":0.25416666666667},{"name":"A4","midi":69,"time":27.15000000000012,"velocity":0.8031496062992126,"duration":0.127083333333335},{"name":"F3","midi":53,"time":27.27916666666679,"velocity":0.8031496062992126,"duration":0.2583333333333364},{"name":"F4","midi":65,"time":27.27916666666679,"velocity":0.8031496062992126,"duration":0.127083333333335},{"name":"E4","midi":64,"time":27.40833333333346,"velocity":0.8031496062992126,"duration":0.12916666666666643},{"name":"F4","midi":65,"time":27.53958333333346,"velocity":0.8031496062992126,"duration":0.125},{"name":"A3","midi":57,"time":27.53958333333346,"velocity":0.8031496062992126,"duration":0.2562500000000014},{"name":"A4","midi":69,"time":27.666666666666796,"velocity":0.8031496062992126,"duration":0.12916666666666643},{"name":"F3","midi":53,"time":27.797916666666797,"velocity":0.8031496062992126,"duration":0.256250000000005},{"name":"D4","midi":62,"time":27.797916666666797,"velocity":0.8031496062992126,"duration":0.127083333333335},{"name":"F4","midi":65,"time":27.925000000000132,"velocity":0.8031496062992126,"duration":0.127083333333335},{"name":"A4","midi":69,"time":28.054166666666802,"velocity":0.8031496062992126,"duration":0.12916666666666998},{"name":"D3","midi":50,"time":28.056250000000137,"velocity":0.8031496062992126,"duration":0.2583333333333364},{"name":"C5","midi":72,"time":28.183333333333472,"velocity":0.8031496062992126,"duration":0.12916666666666643},{"name":"A#4","midi":70,"time":28.314583333333474,"velocity":0.8031496062992126,"duration":0.13125000000000142},{"name":"F3","midi":53,"time":28.31666666666681,"velocity":0.8031496062992126,"duration":0.25833333333333286},{"name":"A4","midi":69,"time":28.445833333333475,"velocity":0.8031496062992126,"duration":0.12916666666666643},{"name":"F5","midi":77,"time":28.577083333333476,"velocity":0.8031496062992126,"duration":0.127083333333335},{"name":"D2","midi":38,"time":28.577083333333476,"velocity":0.7952755905511811,"duration":0.2604166666666714},{"name":"D5","midi":74,"time":28.706250000000146,"velocity":0.8031496062992126,"duration":0.13125000000000142},{"name":"A#4","midi":70,"time":28.839583333333483,"velocity":0.8031496062992126,"duration":0.127083333333335},{"name":"F2","midi":41,"time":28.839583333333483,"velocity":0.7952755905511811,"duration":0.2604166666666714},{"name":"A4","midi":69,"time":28.968750000000153,"velocity":0.8031496062992126,"duration":0.12916666666666643},{"name":"A#4","midi":70,"time":29.100000000000154,"velocity":0.8031496062992126,"duration":0.127083333333335},{"name":"A#2","midi":46,"time":29.100000000000154,"velocity":0.7952755905511811,"duration":0.2583333333333364},{"name":"D5","midi":74,"time":29.229166666666824,"velocity":0.8031496062992126,"duration":0.12916666666666643},{"name":"F4","midi":65,"time":29.35833333333349,"velocity":0.8031496062992126,"duration":0.12916666666666998},{"name":"D3","midi":50,"time":29.360416666666826,"velocity":0.8031496062992126,"duration":0.5166666666666764},{"name":"A#4","midi":70,"time":29.489583333333496,"velocity":0.8031496062992126,"duration":0.12916666666666643},{"name":"D5","midi":74,"time":29.618750000000162,"velocity":0.8031496062992126,"duration":0.127083333333335},{"name":"F5","midi":77,"time":29.747916666666832,"velocity":0.8031496062992126,"duration":0.127083333333335},{"name":"E5","midi":76,"time":29.877083333333502,"velocity":0.8031496062992126,"duration":0.12916666666666643},{"name":"D5","midi":74,"time":30.00625000000017,"velocity":0.8031496062992126,"duration":0.127083333333335},{"name":"A5","midi":81,"time":30.13541666666684,"velocity":0.6771653543307087,"duration":0.06458333333333499},{"name":"D4","midi":62,"time":30.13541666666684,"velocity":0.8031496062992126,"duration":0.13958333333333783},{"name":"G#5","midi":80,"time":30.200000000000173,"velocity":0.6456692913385826,"duration":0.06875000000000142},{"name":"F#5","midi":78,"time":30.26458333333351,"velocity":0.6771653543307087,"duration":0.06875000000000142},{"name":"B3","midi":59,"time":30.26458333333351,"velocity":0.8031496062992126,"duration":0.1437500000000007},{"name":"G#5","midi":80,"time":30.32708333333351,"velocity":0.6456692913385826,"duration":0.07291666666666785},{"name":"A5","midi":81,"time":30.393750000000175,"velocity":0.5984251968503937,"duration":0.08125000000000071},{"name":"G#3","midi":56,"time":30.39583333333351,"velocity":0.8031496062992126,"duration":0.16250000000000142},{"name":"G#5","midi":80,"time":30.468750000000174,"velocity":0.5984251968503937,"duration":0.08125000000000426},{"name":"A5","midi":81,"time":30.543750000000177,"velocity":0.5984251968503937,"duration":0.0833333333333357},{"name":"F#3","midi":54,"time":30.545833333333512,"velocity":0.8031496062992126,"duration":0.1666666666666714},{"name":"G#5","midi":80,"time":30.62083333333351,"velocity":0.5984251968503937,"duration":0.08333333333333925},{"name":"A5","midi":81,"time":30.695833333333514,"velocity":0.5984251968503937,"duration":0.0833333333333357},{"name":"G#3","midi":56,"time":30.69791666666685,"velocity":0.8031496062992126,"duration":0.16458333333333997},{"name":"G#5","midi":80,"time":30.77291666666685,"velocity":0.5984251968503937,"duration":0.07916666666667282},{"name":"A5","midi":81,"time":30.84791666666685,"velocity":0.5984251968503937,"duration":0.07916666666666927},{"name":"B3","midi":59,"time":30.850000000000186,"velocity":0.8031496062992126,"duration":0.15833333333333854},{"name":"G#5","midi":80,"time":30.922916666666854,"velocity":0.5984251968503937,"duration":0.07916666666666927},{"name":"A5","midi":81,"time":30.995833333333522,"velocity":0.5984251968503937,"duration":0.08125000000000426},{"name":"E3","midi":52,"time":30.997916666666857,"velocity":0.8031496062992126,"duration":0.16041666666667354},{"name":"G#5","midi":80,"time":31.070833333333525,"velocity":0.5984251968503937,"duration":0.08125000000000426},{"name":"A5","midi":81,"time":31.143750000000193,"velocity":0.5984251968503937,"duration":0.0750000000000064},{"name":"G#3","midi":56,"time":31.145833333333528,"velocity":0.8031496062992126,"duration":0.14583333333333925},{"name":"G#5","midi":80,"time":31.212500000000198,"velocity":0.5984251968503937,"duration":0.07291666666666785},{"name":"A5","midi":81,"time":31.279166666666864,"velocity":0.5984251968503937,"duration":0.0729166666666714},{"name":"B3","midi":59,"time":31.2812500000002,"velocity":0.8031496062992126,"duration":0.1437500000000007},{"name":"G#5","midi":80,"time":31.345833333333534,"velocity":0.5984251968503937,"duration":0.07499999999999929},{"name":"A5","midi":81,"time":31.4125000000002,"velocity":0.5984251968503937,"duration":0.0729166666666643},{"name":"D4","midi":62,"time":31.4125000000002,"velocity":0.8031496062992126,"duration":0.1458333333333357},{"name":"G#5","midi":80,"time":31.477083333333532,"velocity":0.5984251968503937,"duration":0.07500000000000284},{"name":"A5","midi":81,"time":31.5437500000002,"velocity":0.5984251968503937,"duration":0.0729166666666714},{"name":"C#4","midi":61,"time":31.545833333333533,"velocity":0.8031496062992126,"duration":0.14166666666667282},{"name":"G#5","midi":80,"time":31.61041666666687,"velocity":0.5984251968503937,"duration":0.07083333333333641},{"name":"F#5","midi":78,"time":31.675000000000203,"velocity":0.6299212598425197,"duration":0.07291666666666785},{"name":"B3","midi":59,"time":31.677083333333538,"velocity":0.8031496062992126,"duration":0.09375},{"name":"G#5","midi":80,"time":31.739583333333538,"velocity":0.5984251968503937,"duration":0.06666666666666643},{"name":"A5","midi":81,"time":31.806250000000205,"velocity":0.5984251968503937,"duration":0.15833333333333854},{"name":"B3","midi":59,"time":31.80833333333354,"velocity":0.7716535433070866,"duration":0.0625},{"name":"C#4","midi":61,"time":31.87083333333354,"velocity":0.7244094488188977,"duration":0.06458333333333499},{"name":"E5","midi":76,"time":31.93750000000021,"velocity":0.8031496062992126,"duration":0.16250000000000497},{"name":"D4","midi":62,"time":31.93750000000021,"velocity":0.7244094488188977,"duration":0.07499999999999929},{"name":"C#4","midi":61,"time":32.004166666666876,"velocity":0.7244094488188977,"duration":0.07500000000000284},{"name":"C#5","midi":73,"time":32.07291666666688,"velocity":0.8031496062992126,"duration":0.16041666666666998},{"name":"D4","midi":62,"time":32.07291666666688,"velocity":0.7244094488188977,"duration":0.0729166666666714},{"name":"C#4","midi":61,"time":32.13958333333355,"velocity":0.7244094488188977,"duration":0.07500000000000284},{"name":"B4","midi":71,"time":32.20625000000022,"velocity":0.8031496062992126,"duration":0.16250000000000142},{"name":"D4","midi":62,"time":32.20625000000022,"velocity":0.7244094488188977,"duration":0.0729166666666643},{"name":"C#4","midi":61,"time":32.27500000000021,"velocity":0.7244094488188977,"duration":0.0729166666666714},{"name":"C#5","midi":73,"time":32.33958333333355,"velocity":0.8031496062992126,"duration":0.16458333333333997},{"name":"D4","midi":62,"time":32.34166666666688,"velocity":0.7244094488188977,"duration":0.0729166666666714},{"name":"C#4","midi":61,"time":32.40833333333355,"velocity":0.7244094488188977,"duration":0.07500000000000284},{"name":"E5","midi":76,"time":32.47500000000022,"velocity":0.8031496062992126,"duration":0.1666666666666643},{"name":"D4","midi":62,"time":32.47708333333355,"velocity":0.7244094488188977,"duration":0.07500000000000284},{"name":"C#4","midi":61,"time":32.545833333333555,"velocity":0.7244094488188977,"duration":0.07708333333333428},{"name":"A4","midi":69,"time":32.614583333333556,"velocity":0.8031496062992126,"duration":0.16458333333333286},{"name":"D4","midi":62,"time":32.614583333333556,"velocity":0.7244094488188977,"duration":0.07499999999999574},{"name":"C#4","midi":61,"time":32.68125000000022,"velocity":0.7244094488188977,"duration":0.07708333333333428},{"name":"C#5","midi":73,"time":32.75208333333355,"velocity":0.8031496062992126,"duration":0.16458333333333997},{"name":"D4","midi":62,"time":32.75208333333355,"velocity":0.7244094488188977,"duration":0.07500000000000284},{"name":"C#4","midi":61,"time":32.82083333333355,"velocity":0.7244094488188977,"duration":0.07500000000000284},{"name":"E5","midi":76,"time":32.889583333333555,"velocity":0.8031496062992126,"duration":0.15833333333334565},{"name":"D4","midi":62,"time":32.891666666666886,"velocity":0.7244094488188977,"duration":0.07083333333333997},{"name":"C#4","midi":61,"time":32.956250000000225,"velocity":0.7244094488188977,"duration":0.07083333333333997},{"name":"G5","midi":79,"time":33.022916666666895,"velocity":0.8031496062992126,"duration":0.1458333333333357},{"name":"D4","midi":62,"time":33.022916666666895,"velocity":0.7244094488188977,"duration":0.0729166666666714},{"name":"C#4","midi":61,"time":33.08750000000023,"velocity":0.7244094488188977,"duration":0.07499999999999574},{"name":"F#5","midi":78,"time":33.154166666666896,"velocity":0.8031496062992126,"duration":0.1458333333333428},{"name":"D4","midi":62,"time":33.15625000000023,"velocity":0.7244094488188977,"duration":0.07083333333333997},{"name":"C#4","midi":61,"time":33.2229166666669,"velocity":0.7244094488188977,"duration":0.07083333333333997},{"name":"E5","midi":76,"time":33.287500000000236,"velocity":0.8031496062992126,"duration":0.09583333333333854},{"name":"B3","midi":59,"time":33.28958333333357,"velocity":0.7716535433070866,"duration":0.07083333333333997},{"name":"C#4","midi":61,"time":33.354166666666906,"velocity":0.7559055118110236,"duration":0.07083333333333997},{"name":"E5","midi":76,"time":33.420833333333576,"velocity":0.8031496062992126,"duration":0.06458333333333854},{"name":"C4","midi":60,"time":33.420833333333576,"velocity":0.7559055118110236,"duration":0.13958333333333428},{"name":"F#5","midi":78,"time":33.487500000000246,"velocity":0.6929133858267716,"duration":0.08124999999999716},{"name":"G5","midi":79,"time":33.56041666666691,"velocity":0.6929133858267716,"duration":0.08124999999999716},{"name":"A3","midi":57,"time":33.56250000000024,"velocity":0.8031496062992126,"duration":0.14791666666666714},{"name":"F#5","midi":78,"time":33.633333333333574,"velocity":0.6929133858267716,"duration":0.0833333333333357},{"name":"G5","midi":79,"time":33.71041666666691,"velocity":0.6929133858267716,"duration":0.07916666666667282},{"name":"F#3","midi":54,"time":33.71250000000024,"velocity":0.8031496062992126,"duration":0.1458333333333428},{"name":"F#5","midi":78,"time":33.78333333333358,"velocity":0.6929133858267716,"duration":0.0833333333333357},{"name":"G5","midi":79,"time":33.85833333333358,"velocity":0.6929133858267716,"duration":0.08125000000000426},{"name":"E3","midi":52,"time":33.860416666666914,"velocity":0.8031496062992126,"duration":0.14375000000000426},{"name":"F#5","midi":78,"time":33.933333333333586,"velocity":0.6929133858267716,"duration":0.07916666666666572},{"name":"G5","midi":79,"time":34.00625000000025,"velocity":0.6692913385826772,"duration":0.07708333333334139},{"name":"F#3","midi":54,"time":34.00625000000025,"velocity":0.8031496062992126,"duration":0.14375000000001137},{"name":"F#5","midi":78,"time":34.07916666666692,"velocity":0.6692913385826772,"duration":0.07916666666667282},{"name":"G5","midi":79,"time":34.15208333333359,"velocity":0.6692913385826772,"duration":0.07708333333333428},{"name":"A3","midi":57,"time":34.15208333333359,"velocity":0.8031496062992126,"duration":0.1458333333333357},{"name":"F#5","midi":78,"time":34.222916666666926,"velocity":0.6692913385826772,"duration":0.07916666666666572},{"name":"G5","midi":79,"time":34.29791666666693,"velocity":0.6692913385826772,"duration":0.07708333333333428},{"name":"D3","midi":50,"time":34.30000000000026,"velocity":0.8031496062992126,"duration":0.13958333333333428},{"name":"F#5","midi":78,"time":34.36875000000026,"velocity":0.6692913385826772,"duration":0.07708333333333428},{"name":"G5","midi":79,"time":34.439583333333594,"velocity":0.6692913385826772,"duration":0.07916666666666572},{"name":"F#3","midi":54,"time":34.441666666666926,"velocity":0.8031496062992126,"duration":0.14166666666666572},{"name":"F#5","midi":78,"time":34.51041666666693,"velocity":0.6692913385826772,"duration":0.07708333333332718},{"name":"G5","midi":79,"time":34.58333333333359,"velocity":0.6692913385826772,"duration":0.0729166666666643},{"name":"A3","midi":57,"time":34.58541666666692,"velocity":0.8031496062992126,"duration":0.13333333333333286},{"name":"F#5","midi":78,"time":34.650000000000254,"velocity":0.6692913385826772,"duration":0.07500000000000284},{"name":"G5","midi":79,"time":34.718750000000256,"velocity":0.6692913385826772,"duration":0.0729166666666714},{"name":"C4","midi":60,"time":34.72083333333359,"velocity":0.8031496062992126,"duration":0.13333333333333997},{"name":"F#5","midi":78,"time":34.78750000000026,"velocity":0.6692913385826772,"duration":0.07500000000000284},{"name":"G5","midi":79,"time":34.85625000000026,"velocity":0.6692913385826772,"duration":0.0729166666666714},{"name":"B3","midi":59,"time":34.85625000000026,"velocity":0.8031496062992126,"duration":0.13125000000000142},{"name":"F#5","midi":78,"time":34.92291666666693,"velocity":0.6692913385826772,"duration":0.07083333333333286},{"name":"E5","midi":76,"time":34.98750000000026,"velocity":0.8031496062992126,"duration":0.07083333333333286},{"name":"A3","midi":57,"time":34.98958333333359,"velocity":0.8031496062992126,"duration":0.12916666666666288},{"name":"F#5","midi":78,"time":35.05000000000026,"velocity":0.6692913385826772,"duration":0.06666666666666288},{"name":"G5","midi":79,"time":35.118750000000254,"velocity":0.6692913385826772,"duration":0.1458333333333357},{"name":"A3","midi":57,"time":35.120833333333586,"velocity":0.7716535433070866,"duration":0.06041666666666856},{"name":"B3","midi":59,"time":35.181250000000254,"velocity":0.7244094488188977,"duration":0.06875000000000142},{"name":"D5","midi":74,"time":35.25208333333359,"velocity":0.8031496062992126,"duration":0.15000000000000568},{"name":"C4","midi":60,"time":35.25208333333359,"velocity":0.7244094488188977,"duration":0.0729166666666714},{"name":"B3","midi":59,"time":35.32083333333359,"velocity":0.7244094488188977,"duration":0.07500000000000284},{"name":"B4","midi":71,"time":35.38958333333359,"velocity":0.8031496062992126,"duration":0.15416666666666856},{"name":"C4","midi":60,"time":35.38958333333359,"velocity":0.7244094488188977,"duration":0.07500000000000284},{"name":"B3","midi":59,"time":35.45833333333359,"velocity":0.7244094488188977,"duration":0.07916666666666572},{"name":"A4","midi":69,"time":35.529166666666924,"velocity":0.8031496062992126,"duration":0.14791666666667425},{"name":"C4","midi":60,"time":35.529166666666924,"velocity":0.7244094488188977,"duration":0.07500000000000284},{"name":"B3","midi":59,"time":35.597916666666926,"velocity":0.7244094488188977,"duration":0.0729166666666714},{"name":"B4","midi":71,"time":35.664583333333596,"velocity":0.8031496062992126,"duration":0.1458333333333428},{"name":"C4","midi":60,"time":35.66666666666693,"velocity":0.7244094488188977,"duration":0.07083333333333997},{"name":"B3","midi":59,"time":35.731250000000266,"velocity":0.7244094488188977,"duration":0.0729166666666714},{"name":"D5","midi":74,"time":35.797916666666936,"velocity":0.8031496062992126,"duration":0.1458333333333428},{"name":"C4","midi":60,"time":35.797916666666936,"velocity":0.7244094488188977,"duration":0.0729166666666714},{"name":"B3","midi":59,"time":35.864583333333606,"velocity":0.7244094488188977,"duration":0.07083333333333997},{"name":"C4","midi":60,"time":35.931250000000276,"velocity":0.7244094488188977,"duration":0.07083333333333997},{"name":"G4","midi":67,"time":35.931250000000276,"velocity":0.8031496062992126,"duration":0.1458333333333428},{"name":"B3","midi":59,"time":35.997916666666946,"velocity":0.7244094488188977,"duration":0.0729166666666714},{"name":"B4","midi":71,"time":36.062500000000284,"velocity":0.8031496062992126,"duration":0.15000000000000568},{"name":"C4","midi":60,"time":36.064583333333616,"velocity":0.7244094488188977,"duration":0.07500000000000284},{"name":"B3","midi":59,"time":36.131250000000286,"velocity":0.7244094488188977,"duration":0.07500000000000284},{"name":"D5","midi":74,"time":36.20000000000029,"velocity":0.8031496062992126,"duration":0.15000000000000568},{"name":"C4","midi":60,"time":36.20000000000029,"velocity":0.7244094488188977,"duration":0.07500000000000284},{"name":"B3","midi":59,"time":36.26666666666696,"velocity":0.7244094488188977,"duration":0.07500000000000284},{"name":"F5","midi":77,"time":36.33541666666696,"velocity":0.8031496062992126,"duration":0.15000000000000568},{"name":"C4","midi":60,"time":36.33541666666696,"velocity":0.7244094488188977,"duration":0.07500000000000284},{"name":"B3","midi":59,"time":36.40416666666696,"velocity":0.7244094488188977,"duration":0.07500000000000284},{"name":"D#5","midi":75,"time":36.47291666666696,"velocity":0.8031496062992126,"duration":0.14791666666666714},{"name":"C4","midi":60,"time":36.47500000000029,"velocity":0.7244094488188977,"duration":0.0729166666666714},{"name":"B3","midi":59,"time":36.54166666666696,"velocity":0.7244094488188977,"duration":0.0729166666666643},{"name":"D5","midi":74,"time":36.606250000000294,"velocity":0.8031496062992126,"duration":0.13958333333333428},{"name":"A3","midi":57,"time":36.608333333333626,"velocity":0.7716535433070866,"duration":0.07500000000000284},{"name":"C#4","midi":61,"time":36.675000000000296,"velocity":0.7716535433070866,"duration":0.07083333333333286},{"name":"D#5","midi":75,"time":36.74791666666696,"velocity":0.8031496062992126,"duration":0.13125000000000142},{"name":"C4","midi":60,"time":36.74791666666696,"velocity":0.8031496062992126,"duration":0.26874999999999716},{"name":"C5","midi":72,"time":36.87916666666696,"velocity":0.8031496062992126,"duration":0.1354166666666643},{"name":"A4","midi":69,"time":37.01666666666696,"velocity":0.8031496062992126,"duration":0.1354166666666643},{"name":"D#4","midi":63,"time":37.01875000000029,"velocity":0.8031496062992126,"duration":0.2708333333333286},{"name":"G4","midi":67,"time":37.15416666666695,"velocity":0.8031496062992126,"duration":0.1354166666666643},{"name":"A4","midi":69,"time":37.29166666666695,"velocity":0.8031496062992126,"duration":0.1354166666666643},{"name":"C4","midi":60,"time":37.29166666666695,"velocity":0.8031496062992126,"duration":0.27291666666666003},{"name":"C5","midi":72,"time":37.42708333333361,"velocity":0.8031496062992126,"duration":0.1354166666666643},{"name":"F4","midi":65,"time":37.56458333333361,"velocity":0.8031496062992126,"duration":0.1354166666666643},{"name":"A3","midi":57,"time":37.56666666666694,"velocity":0.8031496062992126,"duration":0.26874999999999716},{"name":"A4","midi":69,"time":37.70000000000027,"velocity":0.8031496062992126,"duration":0.1354166666666643},{"name":"C5","midi":72,"time":37.83750000000027,"velocity":0.8031496062992126,"duration":0.13125000000000142},{"name":"F3","midi":53,"time":37.83750000000027,"velocity":0.8031496062992126,"duration":0.26874999999999716},{"name":"D#5","midi":75,"time":37.9708333333336,"velocity":0.8031496062992126,"duration":0.13333333333333286},{"name":"D5","midi":74,"time":38.106250000000266,"velocity":0.8031496062992126,"duration":0.1354166666666643},{"name":"A3","midi":57,"time":38.1083333333336,"velocity":0.8031496062992126,"duration":0.2666666666666657},{"name":"C5","midi":72,"time":38.24166666666693,"velocity":0.8031496062992126,"duration":0.13333333333333286},{"name":"D5","midi":74,"time":38.377083333333594,"velocity":0.8031496062992126,"duration":0.13333333333333286},{"name":"A#3","midi":58,"time":38.377083333333594,"velocity":0.8031496062992126,"duration":0.2708333333333286},{"name":"A#4","midi":70,"time":38.51250000000026,"velocity":0.8031496062992126,"duration":0.1354166666666643},{"name":"G4","midi":67,"time":38.650000000000254,"velocity":0.8031496062992126,"duration":0.13333333333333286},{"name":"D4","midi":62,"time":38.650000000000254,"velocity":0.8031496062992126,"duration":0.2708333333333286},{"name":"F#4","midi":66,"time":38.78333333333359,"velocity":0.8031496062992126,"duration":0.1354166666666643},{"name":"A#3","midi":58,"time":38.922916666666914,"velocity":0.8031496062992126,"duration":0.26874999999999716},{"name":"G4","midi":67,"time":38.922916666666914,"velocity":0.8031496062992126,"duration":0.13125000000000142},{"name":"A#4","midi":70,"time":39.05625000000025,"velocity":0.8031496062992126,"duration":0.13333333333333286},{"name":"D#4","midi":63,"time":39.19166666666691,"velocity":0.8031496062992126,"duration":0.13125000000000142},{"name":"G3","midi":55,"time":39.19166666666691,"velocity":0.8031496062992126,"duration":0.2666666666666657},{"name":"G4","midi":67,"time":39.325000000000244,"velocity":0.8031496062992126,"duration":0.13333333333333286},{"name":"A#4","midi":70,"time":39.45833333333358,"velocity":0.8031496062992126,"duration":0.13125000000000142},{"name":"D#3","midi":51,"time":39.46041666666691,"velocity":0.8031496062992126,"duration":0.26250000000000284},{"name":"D5","midi":74,"time":39.59166666666691,"velocity":0.8031496062992126,"duration":0.13125000000000142},{"name":"C5","midi":72,"time":39.72500000000024,"velocity":0.8031496062992126,"duration":0.12916666666666998},{"name":"G3","midi":55,"time":39.72500000000024,"velocity":0.8031496062992126,"duration":0.26250000000000284},{"name":"A#4","midi":70,"time":39.85416666666691,"velocity":0.8031496062992126,"duration":0.13125000000000142},{"name":"C5","midi":72,"time":39.987500000000246,"velocity":0.8031496062992126,"duration":0.12708333333333144},{"name":"A3","midi":57,"time":39.98958333333358,"velocity":0.8031496062992126,"duration":0.2562500000000014},{"name":"A4","midi":69,"time":40.11458333333358,"velocity":0.8031496062992126,"duration":0.12916666666666998},{"name":"F#4","midi":66,"time":40.24583333333358,"velocity":0.8031496062992126,"duration":0.12916666666666288},{"name":"C4","midi":60,"time":40.24791666666691,"velocity":0.8031496062992126,"duration":0.2562500000000014},{"name":"E4","midi":64,"time":40.37500000000024,"velocity":0.8031496062992126,"duration":0.12916666666666998},{"name":"F#4","midi":66,"time":40.50625000000024,"velocity":0.8031496062992126,"duration":0.12916666666666998},{"name":"A3","midi":57,"time":40.50625000000024,"velocity":0.8031496062992126,"duration":0.26250000000000284},{"name":"A4","midi":69,"time":40.637500000000244,"velocity":0.8031496062992126,"duration":0.13125000000000142},{"name":"F#3","midi":54,"time":40.77083333333358,"velocity":0.8031496062992126,"duration":0.2645833333333343},{"name":"D4","midi":62,"time":40.77083333333358,"velocity":0.8031496062992126,"duration":0.13125000000000142},{"name":"F#4","midi":66,"time":40.90208333333358,"velocity":0.8031496062992126,"duration":0.13125000000000142},{"name":"A4","midi":69,"time":41.03541666666691,"velocity":0.8031496062992126,"duration":0.13125000000000142},{"name":"D3","midi":50,"time":41.03750000000024,"velocity":0.8031496062992126,"duration":0.26250000000000284},{"name":"C5","midi":72,"time":41.16666666666691,"velocity":0.8031496062992126,"duration":0.13125000000000142},{"name":"A#4","midi":70,"time":41.300000000000246,"velocity":0.8031496062992126,"duration":0.12708333333333144},{"name":"F#3","midi":54,"time":41.300000000000246,"velocity":0.8031496062992126,"duration":0.2604166666666643},{"name":"A4","midi":69,"time":41.42916666666691,"velocity":0.7637795275590551,"duration":0.08749999999999858},{"name":"A4","midi":69,"time":41.56041666666691,"velocity":0.7637795275590551,"duration":0.06458333333333144},{"name":"G3","midi":55,"time":41.56250000000024,"velocity":0.8031496062992126,"duration":0.13125000000000142},{"name":"A#4","midi":70,"time":41.62500000000024,"velocity":0.7637795275590551,"duration":0.06666666666666998},{"name":"C5","midi":72,"time":41.69375000000024,"velocity":0.7637795275590551,"duration":0.06875000000000142},{"name":"D3","midi":50,"time":41.695833333333574,"velocity":0.8031496062992126,"duration":0.13958333333333428},{"name":"A#4","midi":70,"time":41.762500000000244,"velocity":0.7637795275590551,"duration":0.07083333333333286},{"name":"C5","midi":72,"time":41.83541666666691,"velocity":0.7637795275590551,"duration":0.07708333333333428},{"name":"A#2","midi":46,"time":41.83750000000024,"velocity":0.7952755905511811,"duration":0.13958333333333428},{"name":"A#4","midi":70,"time":41.90625000000024,"velocity":0.7637795275590551,"duration":0.07708333333333428},{"name":"C5","midi":72,"time":41.979166666666906,"velocity":0.7637795275590551,"duration":0.07916666666667282},{"name":"A2","midi":45,"time":41.979166666666906,"velocity":0.7952755905511811,"duration":0.14375000000000426},{"name":"A#4","midi":70,"time":42.050000000000246,"velocity":0.7637795275590551,"duration":0.07916666666666572},{"name":"C5","midi":72,"time":42.12291666666691,"velocity":0.7637795275590551,"duration":0.07916666666666572},{"name":"A#2","midi":46,"time":42.12500000000024,"velocity":0.7952755905511811,"duration":0.14375000000000426},{"name":"A#4","midi":70,"time":42.19375000000024,"velocity":0.7637795275590551,"duration":0.08125000000000426},{"name":"C5","midi":72,"time":42.268750000000246,"velocity":0.7637795275590551,"duration":0.07708333333333428},{"name":"D3","midi":50,"time":42.27083333333358,"velocity":0.8031496062992126,"duration":0.15416666666667567},{"name":"A#4","midi":70,"time":42.33958333333358,"velocity":0.7637795275590551,"duration":0.07916666666667282},{"name":"C5","midi":72,"time":42.41250000000025,"velocity":0.7637795275590551,"duration":0.07708333333333428},{"name":"G2","midi":43,"time":42.41250000000025,"velocity":0.7952755905511811,"duration":0.15625},{"name":"A#4","midi":70,"time":42.48333333333358,"velocity":0.7637795275590551,"duration":0.07708333333333428},{"name":"C5","midi":72,"time":42.554166666666916,"velocity":0.7637795275590551,"duration":0.07500000000000284},{"name":"A#2","midi":46,"time":42.554166666666916,"velocity":0.7952755905511811,"duration":0.15416666666666856},{"name":"A#4","midi":70,"time":42.62500000000025,"velocity":0.7637795275590551,"duration":0.07500000000000284},{"name":"C5","midi":72,"time":42.69375000000025,"velocity":0.7637795275590551,"duration":0.07708333333333428},{"name":"D3","midi":50,"time":42.69583333333358,"velocity":0.8031496062992126,"duration":0.15208333333333712},{"name":"A#4","midi":70,"time":42.76458333333358,"velocity":0.7637795275590551,"duration":0.07500000000000284},{"name":"C5","midi":72,"time":42.833333333333584,"velocity":0.7637795275590551,"duration":0.07708333333333428},{"name":"F3","midi":53,"time":42.835416666666916,"velocity":0.8031496062992126,"duration":0.15208333333333712},{"name":"A#4","midi":70,"time":42.90416666666692,"velocity":0.7637795275590551,"duration":0.07500000000000284},{"name":"C5","midi":72,"time":42.97500000000025,"velocity":0.7637795275590551,"duration":0.07500000000000284},{"name":"E3","midi":52,"time":42.97500000000025,"velocity":0.8031496062992126,"duration":0.15208333333333712},{"name":"A#4","midi":70,"time":43.04583333333358,"velocity":0.7637795275590551,"duration":0.07708333333333428},{"name":"C5","midi":72,"time":43.114583333333584,"velocity":0.7637795275590551,"duration":0.07708333333333428},{"name":"D3","midi":50,"time":43.114583333333584,"velocity":0.8031496062992126,"duration":0.15416666666666856},{"name":"A#4","midi":70,"time":43.183333333333586,"velocity":0.7637795275590551,"duration":0.07916666666666572},{"name":"C5","midi":72,"time":43.25416666666692,"velocity":0.7637795275590551,"duration":0.07500000000000284},{"name":"E4","midi":64,"time":43.25416666666692,"velocity":0.8031496062992126,"duration":1.6104166666667155},{"name":"C3","midi":48,"time":43.25625000000025,"velocity":0.7952755905511811,"duration":0.15000000000000568},{"name":"A#4","midi":70,"time":43.32291666666692,"velocity":0.7637795275590551,"duration":0.07500000000000284},{"name":"C5","midi":72,"time":43.39166666666692,"velocity":0.7637795275590551,"duration":0.07708333333333428},{"name":"G2","midi":43,"time":43.39375000000025,"velocity":0.7952755905511811,"duration":0.15000000000000568},{"name":"A#4","midi":70,"time":43.46041666666692,"velocity":0.7637795275590551,"duration":0.07500000000000284},{"name":"C5","midi":72,"time":43.529166666666924,"velocity":0.7637795275590551,"duration":0.07708333333333428},{"name":"E2","midi":40,"time":43.531250000000256,"velocity":0.7952755905511811,"duration":0.14791666666667425},{"name":"A#4","midi":70,"time":43.597916666666926,"velocity":0.7637795275590551,"duration":0.07500000000000284},{"name":"C5","midi":72,"time":43.66666666666693,"velocity":0.7637795275590551,"duration":0.0729166666666714},{"name":"D2","midi":38,"time":43.66666666666693,"velocity":0.7952755905511811,"duration":0.1458333333333428},{"name":"A#4","midi":70,"time":43.7333333333336,"velocity":0.7401574803149606,"duration":0.0729166666666714},{"name":"C5","midi":72,"time":43.80000000000027,"velocity":0.7401574803149606,"duration":0.07500000000000284},{"name":"E2","midi":40,"time":43.8020833333336,"velocity":0.7952755905511811,"duration":0.1458333333333428},{"name":"A#4","midi":70,"time":43.86875000000027,"velocity":0.7401574803149606,"duration":0.07083333333333997},{"name":"C5","midi":72,"time":43.93541666666694,"velocity":0.7401574803149606,"duration":0.0729166666666714},{"name":"G2","midi":43,"time":43.93541666666694,"velocity":0.7952755905511811,"duration":0.1458333333333428},{"name":"A#4","midi":70,"time":44.00208333333361,"velocity":0.7401574803149606,"duration":0.0729166666666714},{"name":"C5","midi":72,"time":44.06875000000028,"velocity":0.7401574803149606,"duration":0.0729166666666714},{"name":"C2","midi":36,"time":44.07083333333361,"velocity":0.7952755905511811,"duration":0.14375000000001137},{"name":"A#4","midi":70,"time":44.13750000000028,"velocity":0.7401574803149606,"duration":0.07083333333333997},{"name":"C5","midi":72,"time":44.20208333333362,"velocity":0.7401574803149606,"duration":0.07083333333333997},{"name":"G2","midi":43,"time":44.20208333333362,"velocity":0.7952755905511811,"duration":0.14166666666667993},{"name":"A#4","midi":70,"time":44.26666666666696,"velocity":0.7401574803149606,"duration":0.07083333333333997},{"name":"C5","midi":72,"time":44.33333333333363,"velocity":0.7401574803149606,"duration":0.06875000000000853},{"name":"C3","midi":48,"time":44.33333333333363,"velocity":0.7952755905511811,"duration":0.14166666666667282},{"name":"A#4","midi":70,"time":44.397916666666966,"velocity":0.7401574803149606,"duration":0.06875000000000142},{"name":"C5","midi":72,"time":44.460416666666966,"velocity":0.7401574803149606,"duration":0.0729166666666714},{"name":"E3","midi":52,"time":44.4625000000003,"velocity":0.8031496062992126,"duration":0.1458333333333428},{"name":"A#4","midi":70,"time":44.52916666666697,"velocity":0.7401574803149606,"duration":0.0729166666666714},{"name":"C5","midi":72,"time":44.59583333333364,"velocity":0.7401574803149606,"duration":0.07500000000000284},{"name":"D3","midi":50,"time":44.59583333333364,"velocity":0.8031496062992126,"duration":0.14791666666666714},{"name":"A#4","midi":70,"time":44.66250000000031,"velocity":0.7401574803149606,"duration":0.06875000000000142},{"name":"C5","midi":72,"time":44.73125000000031,"velocity":0.7401574803149606,"duration":0.06874999999999432},{"name":"C3","midi":48,"time":44.73333333333364,"velocity":0.7952755905511811,"duration":0.1416666666666586},{"name":"A#4","midi":70,"time":44.8000000000003,"velocity":0.7401574803149606,"duration":0.0625},{"name":"A4","midi":69,"time":44.864583333333634,"velocity":0.8031496062992126,"duration":1.7708333333333428},{"name":"F3","midi":53,"time":44.866666666666966,"velocity":0.8031496062992126,"duration":0.13749999999999574},{"name":"F4","midi":65,"time":44.866666666666966,"velocity":0.8031496062992126,"duration":0.06041666666666856},{"name":"D#4","midi":63,"time":44.927083333333634,"velocity":0.7795275590551181,"duration":0.06458333333333144},{"name":"D4","midi":62,"time":44.991666666666966,"velocity":0.7795275590551181,"duration":0.062499999999992895},{"name":"C3","midi":48,"time":44.9937500000003,"velocity":0.7952755905511811,"duration":0.1458333333333286},{"name":"D#4","midi":63,"time":45.05625000000029,"velocity":0.7795275590551181,"duration":0.07708333333333428},{"name":"F4","midi":65,"time":45.12708333333362,"velocity":0.7795275590551181,"duration":0.07916666666667282},{"name":"A2","midi":45,"time":45.12708333333362,"velocity":0.7952755905511811,"duration":0.15833333333333854},{"name":"D#4","midi":63,"time":45.200000000000294,"velocity":0.7795275590551181,"duration":0.07708333333333428},{"name":"F4","midi":65,"time":45.272916666666966,"velocity":0.7795275590551181,"duration":0.07916666666666572},{"name":"G2","midi":43,"time":45.2750000000003,"velocity":0.7952755905511811,"duration":0.15625},{"name":"D#4","midi":63,"time":45.34583333333363,"velocity":0.7795275590551181,"duration":0.07916666666666572},{"name":"F4","midi":65,"time":45.41666666666696,"velocity":0.7795275590551181,"duration":0.07708333333333428},{"name":"A2","midi":45,"time":45.418750000000294,"velocity":0.7952755905511811,"duration":0.15208333333333712},{"name":"D#4","midi":63,"time":45.487500000000296,"velocity":0.7795275590551181,"duration":0.07500000000000284},{"name":"F4","midi":65,"time":45.5562500000003,"velocity":0.7795275590551181,"duration":0.07500000000000284},{"name":"C3","midi":48,"time":45.55833333333363,"velocity":0.7952755905511811,"duration":0.15000000000000568},{"name":"D#4","midi":63,"time":45.62708333333363,"velocity":0.7795275590551181,"duration":0.07500000000000284},{"name":"F4","midi":65,"time":45.69583333333363,"velocity":0.7795275590551181,"duration":0.07708333333333428},{"name":"F2","midi":41,"time":45.69583333333363,"velocity":0.7952755905511811,"duration":0.15416666666666856},{"name":"D#4","midi":63,"time":45.76458333333363,"velocity":0.7795275590551181,"duration":0.07708333333333428},{"name":"F4","midi":65,"time":45.835416666666966,"velocity":0.7795275590551181,"duration":0.07500000000000284},{"name":"C3","midi":48,"time":45.835416666666966,"velocity":0.7952755905511811,"duration":0.15000000000000568},{"name":"D#4","midi":63,"time":45.902083333333636,"velocity":0.7795275590551181,"duration":0.07708333333333428},{"name":"F4","midi":65,"time":45.97083333333364,"velocity":0.7795275590551181,"duration":0.07708333333333428},{"name":"F3","midi":53,"time":45.97291666666697,"velocity":0.8031496062992126,"duration":0.14791666666666714},{"name":"D#4","midi":63,"time":46.03958333333364,"velocity":0.7795275590551181,"duration":0.0729166666666643},{"name":"F4","midi":65,"time":46.1062500000003,"velocity":0.7795275590551181,"duration":0.07500000000000284},{"name":"A3","midi":57,"time":46.10833333333363,"velocity":0.8031496062992126,"duration":0.1458333333333428},{"name":"D#4","midi":63,"time":46.1750000000003,"velocity":0.7795275590551181,"duration":0.07500000000000284},{"name":"F4","midi":65,"time":46.243750000000304,"velocity":0.7795275590551181,"duration":0.0729166666666714},{"name":"G3","midi":55,"time":46.243750000000304,"velocity":0.8031496062992126,"duration":0.15000000000000568},{"name":"D#4","midi":63,"time":46.310416666666974,"velocity":0.7795275590551181,"duration":0.07708333333333428},{"name":"F3","midi":53,"time":46.379166666666976,"velocity":0.8031496062992126,"duration":0.15208333333333712},{"name":"F4","midi":65,"time":46.379166666666976,"velocity":0.7795275590551181,"duration":0.07083333333333286},{"name":"D#4","midi":63,"time":46.45000000000031,"velocity":0.8031496062992126,"duration":0.06666666666666998},{"name":"C4","midi":60,"time":46.51875000000031,"velocity":0.7401574803149606,"duration":0.07083333333333286},{"name":"D4","midi":62,"time":46.51875000000031,"velocity":0.8031496062992126,"duration":0.2854166666666629},{"name":"A#3","midi":58,"time":46.58958333333364,"velocity":0.7401574803149606,"duration":0.06875000000000142},{"name":"A4","midi":69,"time":46.660416666666976,"velocity":0.8031496062992126,"duration":0.14166666666666572},{"name":"C4","midi":60,"time":46.660416666666976,"velocity":0.7165354330708661,"duration":0.07083333333333286},{"name":"A#3","midi":58,"time":46.73125000000031,"velocity":0.7165354330708661,"duration":0.07708333333332718},{"name":"F4","midi":65,"time":46.80416666666697,"velocity":0.8031496062992126,"duration":0.16874999999999574},{"name":"C4","midi":60,"time":46.806250000000304,"velocity":0.7165354330708661,"duration":0.07499999999999574},{"name":"A#3","midi":58,"time":46.87291666666697,"velocity":0.7165354330708661,"duration":0.07916666666666572},{"name":"C4","midi":60,"time":46.94583333333363,"velocity":0.7165354330708661,"duration":0.07500000000000284},{"name":"E4","midi":64,"time":46.94583333333363,"velocity":0.8031496062992126,"duration":0.1770833333333428},{"name":"A#3","midi":58,"time":47.0125000000003,"velocity":0.7165354330708661,"duration":0.07500000000000284},{"name":"F4","midi":65,"time":47.0812500000003,"velocity":0.8031496062992126,"duration":0.17500000000001137},{"name":"C4","midi":60,"time":47.0812500000003,"velocity":0.7165354330708661,"duration":0.0729166666666714},{"name":"A#3","midi":58,"time":47.14791666666697,"velocity":0.7165354330708661,"duration":0.0729166666666714},{"name":"A4","midi":69,"time":47.21458333333364,"velocity":0.8031496062992126,"duration":0.17916666666667425},{"name":"C4","midi":60,"time":47.216666666666974,"velocity":0.7165354330708661,"duration":0.0729166666666714},{"name":"A#3","midi":58,"time":47.283333333333644,"velocity":0.7165354330708661,"duration":0.0729166666666714},{"name":"D4","midi":62,"time":47.350000000000314,"velocity":0.8031496062992126,"duration":0.18333333333333712},{"name":"C4","midi":60,"time":47.352083333333645,"velocity":0.7165354330708661,"duration":0.0729166666666714},{"name":"A#3","midi":58,"time":47.418750000000315,"velocity":0.7165354330708661,"duration":0.07708333333333428},{"name":"C4","midi":60,"time":47.48958333333365,"velocity":0.7165354330708661,"duration":0.07500000000000284},{"name":"F4","midi":65,"time":47.48958333333365,"velocity":0.8031496062992126,"duration":0.18541666666666856},{"name":"A#3","midi":58,"time":47.55833333333365,"velocity":0.7165354330708661,"duration":0.07916666666666572},{"name":"A4","midi":69,"time":47.62916666666698,"velocity":0.8031496062992126,"duration":0.1875},{"name":"C4","midi":60,"time":47.62916666666698,"velocity":0.7165354330708661,"duration":0.07708333333333428},{"name":"A#3","midi":58,"time":47.700000000000315,"velocity":0.7165354330708661,"duration":0.07916666666666572},{"name":"C5","midi":72,"time":47.77083333333365,"velocity":0.8031496062992126,"duration":0.18125000000000568},{"name":"C4","midi":60,"time":47.77291666666698,"velocity":0.7165354330708661,"duration":0.07708333333333428},{"name":"A#3","midi":58,"time":47.84375000000031,"velocity":0.7165354330708661,"duration":0.0729166666666714},{"name":"A#4","midi":70,"time":47.91041666666698,"velocity":0.8031496062992126,"duration":0.18333333333333712},{"name":"C4","midi":60,"time":47.912500000000314,"velocity":0.7165354330708661,"duration":0.0729166666666714},{"name":"A#3","midi":58,"time":47.979166666666984,"velocity":0.7165354330708661,"duration":0.07500000000000284},{"name":"A4","midi":69,"time":48.047916666666985,"velocity":0.8031496062992126,"duration":0.18958333333333144},{"name":"C4","midi":60,"time":48.047916666666985,"velocity":0.7165354330708661,"duration":0.07916666666666572},{"name":"A#3","midi":58,"time":48.12083333333365,"velocity":0.7165354330708661,"duration":0.07916666666666572},{"name":"G4","midi":67,"time":48.19166666666698,"velocity":0.8031496062992126,"duration":0.1875},{"name":"C4","midi":60,"time":48.19166666666698,"velocity":0.7165354330708661,"duration":0.07916666666666572},{"name":"A#3","midi":58,"time":48.26458333333365,"velocity":0.7165354330708661,"duration":0.07708333333333428},{"name":"D5","midi":74,"time":48.33541666666698,"velocity":0.8031496062992126,"duration":0.18125000000000568},{"name":"C4","midi":60,"time":48.33541666666698,"velocity":0.7165354330708661,"duration":0.07500000000000284},{"name":"A#3","midi":58,"time":48.40416666666698,"velocity":0.7165354330708661,"duration":0.07708333333333428},{"name":"A#4","midi":70,"time":48.475000000000314,"velocity":0.8031496062992126,"duration":0.1770833333333357},{"name":"C4","midi":60,"time":48.475000000000314,"velocity":0.7165354330708661,"duration":0.07500000000000284},{"name":"A#3","midi":58,"time":48.543750000000315,"velocity":0.7165354330708661,"duration":0.0729166666666643},{"name":"A4","midi":69,"time":48.60833333333365,"velocity":0.8031496062992126,"duration":0.18124999999999858},{"name":"C4","midi":60,"time":48.61041666666698,"velocity":0.7165354330708661,"duration":0.07500000000000284},{"name":"A#3","midi":58,"time":48.67708333333365,"velocity":0.7165354330708661,"duration":0.0729166666666643},{"name":"A#4","midi":70,"time":48.74583333333365,"velocity":0.8031496062992126,"duration":0.17916666666666714},{"name":"C4","midi":60,"time":48.74791666666698,"velocity":0.7165354330708661,"duration":0.0729166666666643},{"name":"A#3","midi":58,"time":48.814583333333644,"velocity":0.7165354330708661,"duration":0.0729166666666714},{"name":"D5","midi":74,"time":48.881250000000314,"velocity":0.8031496062992126,"duration":0.17291666666667282},{"name":"C4","midi":60,"time":48.883333333333645,"velocity":0.7165354330708661,"duration":0.06875000000000853},{"name":"A#3","midi":58,"time":48.947916666666984,"velocity":0.7165354330708661,"duration":0.0729166666666714},{"name":"G4","midi":67,"time":49.014583333333654,"velocity":0.8031496062992126,"duration":0.17291666666666572},{"name":"C4","midi":60,"time":49.014583333333654,"velocity":0.7165354330708661,"duration":0.0729166666666643},{"name":"A#3","midi":58,"time":49.079166666666985,"velocity":0.7165354330708661,"duration":0.0729166666666643},{"name":"A#4","midi":70,"time":49.14583333333365,"velocity":0.8031496062992126,"duration":0.1770833333333428},{"name":"C4","midi":60,"time":49.14583333333365,"velocity":0.7165354330708661,"duration":0.07083333333333997},{"name":"A#3","midi":58,"time":49.21250000000032,"velocity":0.7165354330708661,"duration":0.0729166666666714},{"name":"D5","midi":74,"time":49.27708333333366,"velocity":0.8031496062992126,"duration":0.18958333333333854},{"name":"C4","midi":60,"time":49.27916666666699,"velocity":0.7165354330708661,"duration":0.07708333333333428},{"name":"A#3","midi":58,"time":49.35000000000032,"velocity":0.7165354330708661,"duration":0.07916666666667282},{"name":"F5","midi":77,"time":49.42291666666699,"velocity":0.8031496062992126,"duration":0.1875000000000071},{"name":"C4","midi":60,"time":49.42291666666699,"velocity":0.7165354330708661,"duration":0.07708333333333428},{"name":"A#3","midi":58,"time":49.493750000000325,"velocity":0.7165354330708661,"duration":0.07916666666667282},{"name":"E5","midi":76,"time":49.566666666667,"velocity":0.8031496062992126,"duration":0.1875},{"name":"C4","midi":60,"time":49.566666666667,"velocity":0.7165354330708661,"duration":0.07916666666666572},{"name":"A#3","midi":58,"time":49.63750000000033,"velocity":0.7165354330708661,"duration":0.07916666666666572},{"name":"D5","midi":74,"time":49.710416666666994,"velocity":0.8031496062992126,"duration":0.1875000000000071},{"name":"C4","midi":60,"time":49.710416666666994,"velocity":0.7165354330708661,"duration":0.07916666666666572},{"name":"A#3","midi":58,"time":49.78125000000033,"velocity":0.7165354330708661,"duration":0.07916666666667282},{"name":"E5","midi":76,"time":49.85625000000033,"velocity":0.8031496062992126,"duration":0.17916666666667425},{"name":"C4","midi":60,"time":49.85625000000033,"velocity":0.7165354330708661,"duration":0.0729166666666714},{"name":"A#3","midi":58,"time":49.92500000000033,"velocity":0.7165354330708661,"duration":0.07500000000000284},{"name":"G5","midi":79,"time":49.991666666667,"velocity":0.8031496062992126,"duration":0.18333333333333712},{"name":"C4","midi":60,"time":49.99375000000033,"velocity":0.7165354330708661,"duration":0.0729166666666714},{"name":"A#3","midi":58,"time":50.062500000000334,"velocity":0.7165354330708661,"duration":0.07500000000000284},{"name":"E5","midi":76,"time":50.129166666667004,"velocity":0.8031496062992126,"duration":0.18125000000000568},{"name":"C4","midi":60,"time":50.131250000000335,"velocity":0.7165354330708661,"duration":0.07500000000000284},{"name":"A#3","midi":58,"time":50.20000000000034,"velocity":0.7165354330708661,"duration":0.07500000000000284},{"name":"D5","midi":74,"time":50.26875000000034,"velocity":0.8031496062992126,"duration":0.1770833333333428},{"name":"C4","midi":60,"time":50.26875000000034,"velocity":0.7165354330708661,"duration":0.07500000000000284},{"name":"A#3","midi":58,"time":50.33541666666701,"velocity":0.7165354330708661,"duration":0.07500000000000284},{"name":"E5","midi":76,"time":50.40416666666701,"velocity":0.8031496062992126,"duration":0.17500000000001137},{"name":"C4","midi":60,"time":50.40416666666701,"velocity":0.7165354330708661,"duration":0.0729166666666714},{"name":"A#3","midi":58,"time":50.47291666666701,"velocity":0.7165354330708661,"duration":0.07083333333333997},{"name":"G5","midi":79,"time":50.53750000000035,"velocity":0.8031496062992126,"duration":0.1770833333333428},{"name":"C4","midi":60,"time":50.53958333333368,"velocity":0.7165354330708661,"duration":0.07083333333333997},{"name":"A#3","midi":58,"time":50.60416666666702,"velocity":0.7165354330708661,"duration":0.0729166666666714},{"name":"C5","midi":72,"time":50.67291666666702,"velocity":0.8031496062992126,"duration":0.18333333333333712},{"name":"C4","midi":60,"time":50.67291666666702,"velocity":0.7165354330708661,"duration":0.0729166666666714},{"name":"A#3","midi":58,"time":50.73750000000036,"velocity":0.7165354330708661,"duration":0.07916666666666572},{"name":"E5","midi":76,"time":50.80833333333369,"velocity":0.8031496062992126,"duration":0.19375000000000142},{"name":"C4","midi":60,"time":50.80833333333369,"velocity":0.7165354330708661,"duration":0.08124999999999716},{"name":"A#3","midi":58,"time":50.88125000000036,"velocity":0.7165354330708661,"duration":0.08125000000000426},{"name":"G5","midi":79,"time":50.95625000000036,"velocity":0.7637795275590551,"duration":0.19375000000000142},{"name":"C4","midi":60,"time":50.95625000000036,"velocity":0.7165354330708661,"duration":0.07916666666666572},{"name":"A#3","midi":58,"time":51.029166666667024,"velocity":0.7165354330708661,"duration":0.08125000000000426},{"name":"A#5","midi":82,"time":51.102083333333695,"velocity":0.7559055118110236,"duration":0.18541666666666856},{"name":"C4","midi":60,"time":51.102083333333695,"velocity":0.7165354330708661,"duration":0.08124999999999716},{"name":"A#3","midi":58,"time":51.17500000000036,"velocity":0.7165354330708661,"duration":0.07708333333333428},{"name":"A5","midi":81,"time":51.24583333333369,"velocity":0.7086614173228346,"duration":0.1770833333333357},{"name":"C4","midi":60,"time":51.247916666667024,"velocity":0.7165354330708661,"duration":0.0729166666666714},{"name":"A#3","midi":58,"time":51.314583333333694,"velocity":0.7165354330708661,"duration":0.07083333333333286},{"name":"G5","midi":79,"time":51.379166666667025,"velocity":0.7165354330708661,"duration":0.1770833333333286},{"name":"C4","midi":60,"time":51.38125000000036,"velocity":0.7007874015748031,"duration":0.06666666666666998},{"name":"A#3","midi":58,"time":51.45000000000036,"velocity":0.7007874015748031,"duration":0.06458333333333144},{"name":"C6","midi":84,"time":51.51458333333369,"velocity":0.6929133858267716,"duration":0.1770833333333357},{"name":"A3","midi":57,"time":51.51666666666702,"velocity":0.8031496062992126,"duration":0.26875000000000426},{"name":"A5","midi":81,"time":51.64791666666702,"velocity":0.6929133858267716,"duration":0.18124999999999858},{"name":"F5","midi":77,"time":51.78750000000036,"velocity":0.7637795275590551,"duration":0.18124999999999858},{"name":"C4","midi":60,"time":51.78750000000036,"velocity":0.8031496062992126,"duration":0.2749999999999986},{"name":"E5","midi":76,"time":51.92500000000035,"velocity":0.7637795275590551,"duration":0.17916666666666714},{"name":"F5","midi":77,"time":52.062500000000355,"velocity":0.7637795275590551,"duration":0.17916666666666714},{"name":"A3","midi":57,"time":52.06458333333369,"velocity":0.8031496062992126,"duration":0.26875000000000426},{"name":"A5","midi":81,"time":52.19791666666702,"velocity":0.6929133858267716,"duration":0.17916666666666714},{"name":"D5","midi":74,"time":52.33541666666702,"velocity":0.7637795275590551,"duration":0.17916666666666714},{"name":"F3","midi":53,"time":52.33541666666702,"velocity":0.8031496062992126,"duration":0.2708333333333357},{"name":"F5","midi":77,"time":52.47083333333369,"velocity":0.7637795275590551,"duration":0.1770833333333357},{"name":"A5","midi":81,"time":52.60625000000036,"velocity":0.6929133858267716,"duration":0.1770833333333286},{"name":"D3","midi":50,"time":52.60833333333369,"velocity":0.8031496062992126,"duration":0.2666666666666657},{"name":"C6","midi":84,"time":52.74166666666702,"velocity":0.6929133858267716,"duration":0.1770833333333286},{"name":"A#5","midi":82,"time":52.87708333333369,"velocity":0.6929133858267716,"duration":0.1770833333333286},{"name":"F3","midi":53,"time":52.87708333333369,"velocity":0.8031496062992126,"duration":0.2708333333333286},{"name":"A5","midi":81,"time":53.01250000000035,"velocity":0.6929133858267716,"duration":0.1770833333333286},{"name":"A#5","midi":82,"time":53.15000000000035,"velocity":0.6929133858267716,"duration":0.17499999999999716},{"name":"G3","midi":55,"time":53.15000000000035,"velocity":0.8031496062992126,"duration":0.26874999999999716},{"name":"G5","midi":79,"time":53.28333333333368,"velocity":0.7165354330708661,"duration":0.17916666666666003},{"name":"E5","midi":76,"time":53.418750000000344,"velocity":0.7637795275590551,"duration":0.1770833333333286},{"name":"A#3","midi":58,"time":53.420833333333675,"velocity":0.8031496062992126,"duration":0.26874999999999716},{"name":"D5","midi":74,"time":53.55416666666701,"velocity":0.7637795275590551,"duration":0.17499999999999716},{"name":"E5","midi":76,"time":53.68958333333367,"velocity":0.7637795275590551,"duration":0.17499999999999716},{"name":"G3","midi":55,"time":53.68958333333367,"velocity":0.8031496062992126,"duration":0.2645833333333272},{"name":"G5","midi":79,"time":53.822916666667005,"velocity":0.7165354330708661,"duration":0.17499999999999005},{"name":"C5","midi":72,"time":53.95625000000033,"velocity":0.7637795275590551,"duration":0.17499999999999716},{"name":"E3","midi":52,"time":53.95625000000033,"velocity":0.8031496062992126,"duration":0.2666666666666657},{"name":"E5","midi":76,"time":54.089583333333664,"velocity":0.7637795275590551,"duration":0.17499999999999716},{"name":"G5","midi":79,"time":54.22500000000033,"velocity":0.7637795275590551,"duration":0.17291666666666572},{"name":"C3","midi":48,"time":54.22500000000033,"velocity":0.7952755905511811,"duration":0.2645833333333343},{"name":"A#5","midi":82,"time":54.35625000000033,"velocity":0.7401574803149606,"duration":0.17291666666666572},{"name":"A5","midi":81,"time":54.48958333333366,"velocity":0.7401574803149606,"duration":0.17291666666666572},{"name":"E3","midi":52,"time":54.491666666666994,"velocity":0.8031496062992126,"duration":0.2604166666666643},{"name":"G5","midi":79,"time":54.620833333333664,"velocity":0.7637795275590551,"duration":0.1729166666666586},{"name":"A5","midi":81,"time":54.75416666666699,"velocity":0.7401574803149606,"duration":0.17083333333333428},{"name":"F3","midi":53,"time":54.75416666666699,"velocity":0.8031496062992126,"duration":0.14166666666666572},{"name":"F5","midi":77,"time":54.88541666666699,"velocity":0.7637795275590551,"duration":0.17500000000000426},{"name":"C3","midi":48,"time":54.88541666666699,"velocity":0.7952755905511811,"duration":0.1458333333333357},{"name":"C5","midi":72,"time":55.01666666666699,"velocity":0.7637795275590551,"duration":0.17916666666666714},{"name":"A2","midi":45,"time":55.018750000000324,"velocity":0.7952755905511811,"duration":0.1458333333333357},{"name":"A#4","midi":70,"time":55.150000000000325,"velocity":0.7637795275590551,"duration":0.1770833333333286},{"name":"G2","midi":43,"time":55.15208333333366,"velocity":0.7952755905511811,"duration":0.14791666666666714},{"name":"C5","midi":72,"time":55.28541666666699,"velocity":0.7637795275590551,"duration":0.17499999999999716},{"name":"A2","midi":45,"time":55.28541666666699,"velocity":0.7952755905511811,"duration":0.1458333333333286},{"name":"F5","midi":77,"time":55.420833333333654,"velocity":0.7637795275590551,"duration":0.17500000000000426},{"name":"C3","midi":48,"time":55.422916666666985,"velocity":0.7952755905511811,"duration":0.14375000000000426},{"name":"A4","midi":69,"time":55.552083333333655,"velocity":0.7637795275590551,"duration":0.1770833333333428},{"name":"F2","midi":41,"time":55.55416666666699,"velocity":0.7952755905511811,"duration":0.1458333333333428},{"name":"C5","midi":72,"time":55.68750000000033,"velocity":0.7637795275590551,"duration":0.17291666666666572},{"name":"A2","midi":45,"time":55.68750000000033,"velocity":0.7952755905511811,"duration":0.1458333333333357},{"name":"D#5","midi":75,"time":55.81875000000033,"velocity":0.7637795275590551,"duration":0.17499999999999716},{"name":"C3","midi":48,"time":55.82083333333366,"velocity":0.7952755905511811,"duration":0.14374999999999716},{"name":"G5","midi":79,"time":55.95000000000032,"velocity":0.7637795275590551,"duration":0.1770833333333357},{"name":"D#3","midi":51,"time":55.952083333333654,"velocity":0.8031496062992126,"duration":0.14791666666667425},{"name":"F5","midi":77,"time":56.085416666666994,"velocity":0.7637795275590551,"duration":0.17499999999999716},{"name":"D3","midi":50,"time":56.085416666666994,"velocity":0.8031496062992126,"duration":0.1458333333333286},{"name":"D#5","midi":75,"time":56.21875000000033,"velocity":0.7795275590551181,"duration":0.13333333333333286},{"name":"C3","midi":48,"time":56.22083333333366,"velocity":0.7952755905511811,"duration":0.1458333333333357},{"name":"D#5","midi":75,"time":56.35416666666699,"velocity":0.7795275590551181,"duration":0.06458333333333854},{"name":"F3","midi":53,"time":56.35416666666699,"velocity":0.8031496062992126,"duration":0.1458333333333357},{"name":"D5","midi":74,"time":56.42083333333366,"velocity":0.7795275590551181,"duration":0.06666666666666998},{"name":"D#5","midi":75,"time":56.48750000000033,"velocity":0.7795275590551181,"duration":0.06458333333333144},{"name":"D3","midi":50,"time":56.48958333333366,"velocity":0.8031496062992126,"duration":0.1458333333333357},{"name":"D5","midi":74,"time":56.554166666666994,"velocity":0.7795275590551181,"duration":0.06666666666666998},{"name":"D#5","midi":75,"time":56.622916666666995,"velocity":0.7795275590551181,"duration":0.06458333333333854},{"name":"A#2","midi":46,"time":56.622916666666995,"velocity":0.7952755905511811,"duration":0.1458333333333428},{"name":"D5","midi":74,"time":56.687500000000334,"velocity":0.7795275590551181,"duration":0.6041666666666714},{"name":"A2","midi":45,"time":56.754166666667004,"velocity":0.7952755905511811,"duration":0.14791666666666714},{"name":"A#2","midi":46,"time":56.88958333333367,"velocity":0.7952755905511811,"duration":0.14791666666666714},{"name":"D3","midi":50,"time":57.022916666667,"velocity":0.8031496062992126,"duration":0.1458333333333357},{"name":"F2","midi":41,"time":57.156250000000334,"velocity":0.7952755905511811,"duration":0.1458333333333357},{"name":"C5","midi":72,"time":57.291666666667005,"velocity":0.7795275590551181,"duration":0.1458333333333357},{"name":"A#2","midi":46,"time":57.29375000000034,"velocity":0.7952755905511811,"duration":0.14375000000000426},{"name":"A#4","midi":70,"time":57.42500000000034,"velocity":0.7795275590551181,"duration":0.14791666666666003},{"name":"D3","midi":50,"time":57.42500000000034,"velocity":0.8031496062992126,"duration":0.1458333333333286},{"name":"A4","midi":69,"time":57.55833333333367,"velocity":0.7795275590551181,"duration":0.14791666666665293},{"name":"F3","midi":53,"time":57.560416666667,"velocity":0.8031496062992126,"duration":0.14374999999999005},{"name":"G4","midi":67,"time":57.69375000000033,"velocity":0.8031496062992126,"duration":0.1458333333333286},{"name":"E3","midi":52,"time":57.69375000000033,"velocity":0.8031496062992126,"duration":0.1458333333333286},{"name":"F4","midi":65,"time":57.827083333333654,"velocity":0.8031496062992126,"duration":0.14791666666666003},{"name":"D3","midi":50,"time":57.827083333333654,"velocity":0.8031496062992126,"duration":0.1458333333333286},{"name":"A#4","midi":70,"time":57.96041666666699,"velocity":0.7795275590551181,"duration":0.29374999999999574},{"name":"E3","midi":52,"time":57.96250000000032,"velocity":0.8031496062992126,"duration":0.14374999999999005},{"name":"C3","midi":48,"time":58.095833333333644,"velocity":0.7952755905511811,"duration":0.1458333333333357},{"name":"G5","midi":79,"time":58.22916666666698,"velocity":0.7637795275590551,"duration":0.29375000000000284},{"name":"A#2","midi":46,"time":58.22916666666698,"velocity":0.7952755905511811,"duration":0.1458333333333428},{"name":"A2","midi":45,"time":58.360416666666985,"velocity":0.7952755905511811,"duration":0.14791666666666003},{"name":"E5","midi":76,"time":58.49583333333365,"velocity":0.8031496062992126,"duration":0.2958333333333343},{"name":"A#2","midi":46,"time":58.49791666666698,"velocity":0.7952755905511811,"duration":0.1458333333333357},{"name":"E3","midi":52,"time":58.62916666666698,"velocity":0.8031496062992126,"duration":0.14791666666666714},{"name":"C5","midi":72,"time":58.76458333333365,"velocity":0.8031496062992126,"duration":0.29375000000000995},{"name":"G2","midi":43,"time":58.76458333333365,"velocity":0.7952755905511811,"duration":0.1458333333333428},{"name":"A#2","midi":46,"time":58.89791666666699,"velocity":0.7952755905511811,"duration":0.14791666666666714},{"name":"A#4","midi":70,"time":59.03125000000032,"velocity":0.8031496062992126,"duration":0.2958333333333414},{"name":"E3","midi":52,"time":59.03333333333365,"velocity":0.8031496062992126,"duration":0.1458333333333428},{"name":"G3","midi":55,"time":59.16666666666699,"velocity":0.8031496062992126,"duration":0.1458333333333357},{"name":"G5","midi":79,"time":59.300000000000324,"velocity":0.8031496062992126,"duration":0.29375000000000284},{"name":"F3","midi":53,"time":59.300000000000324,"velocity":0.8031496062992126,"duration":0.14791666666667425},{"name":"E3","midi":52,"time":59.433333333333664,"velocity":0.8031496062992126,"duration":0.1354166666666643},{"name":"A4","midi":69,"time":59.56875000000033,"velocity":0.8031496062992126,"duration":0.14374999999999716},{"name":"F3","midi":53,"time":59.57083333333366,"velocity":0.8031496062992126,"duration":0.26249999999999574},{"name":"G4","midi":67,"time":59.70208333333366,"velocity":0.8031496062992126,"duration":0.1458333333333286},{"name":"F4","midi":65,"time":59.83541666666699,"velocity":0.8031496062992126,"duration":0.14375000000000426},{"name":"A2","midi":45,"time":59.83541666666699,"velocity":0.7952755905511811,"duration":0.2645833333333343},{"name":"E4","midi":64,"time":59.96666666666699,"velocity":0.8031496062992126,"duration":0.14374999999999716},{"name":"F4","midi":65,"time":60.10000000000032,"velocity":0.8031496062992126,"duration":0.14374999999999716},{"name":"D3","midi":50,"time":60.10208333333365,"velocity":0.8031496062992126,"duration":0.2604166666666643},{"name":"A4","midi":69,"time":60.229166666666984,"velocity":0.8031496062992126,"duration":0.1458333333333286},{"name":"D4","midi":62,"time":60.36250000000032,"velocity":0.8031496062992126,"duration":0.14374999999999005},{"name":"C3","midi":48,"time":60.36458333333365,"velocity":0.7952755905511811,"duration":0.0625},{"name":"A#2","midi":46,"time":60.42916666666698,"velocity":0.7952755905511811,"duration":0.06458333333333144},{"name":"F4","midi":65,"time":60.49583333333364,"velocity":0.8031496062992126,"duration":0.14166666666667282},{"name":"C3","midi":48,"time":60.49583333333364,"velocity":0.7952755905511811,"duration":0.0625},{"name":"A#2","midi":46,"time":60.55833333333364,"velocity":0.7952755905511811,"duration":0.06666666666666998},{"name":"D4","midi":62,"time":60.62500000000031,"velocity":0.8031496062992126,"duration":0.14375000000000426},{"name":"C3","midi":48,"time":60.62500000000031,"velocity":0.7952755905511811,"duration":0.06458333333333854},{"name":"A#2","midi":46,"time":60.69166666666698,"velocity":0.7952755905511811,"duration":0.0625},{"name":"A#3","midi":58,"time":60.75416666666698,"velocity":0.8031496062992126,"duration":0.14374999999999716},{"name":"A2","midi":45,"time":60.756250000000314,"velocity":0.7952755905511811,"duration":0.06458333333333854},{"name":"A#2","midi":46,"time":60.82083333333365,"velocity":0.7952755905511811,"duration":0.06458333333333144},{"name":"G3","midi":55,"time":60.887500000000315,"velocity":0.8031496062992126,"duration":0.13958333333332718},{"name":"C3","midi":48,"time":60.887500000000315,"velocity":0.7952755905511811,"duration":0.25833333333332575},{"name":"E4","midi":64,"time":61.01666666666698,"velocity":0.8031496062992126,"duration":0.14374999999999716},{"name":"F4","midi":65,"time":61.14791666666697,"velocity":0.8031496062992126,"duration":0.1458333333333357},{"name":"F2","midi":41,"time":61.14791666666697,"velocity":0.7952755905511811,"duration":0.56666666666667},{"name":"A#3","midi":58,"time":61.281250000000306,"velocity":0.8031496062992126,"duration":0.15000000000000568},{"name":"A3","midi":57,"time":61.41666666666698,"velocity":0.8031496062992126,"duration":0.16250000000000142},{"name":"G3","midi":55,"time":61.564583333333644,"velocity":0.8031496062992126,"duration":0.16458333333333286},{"name":"A3","midi":57,"time":61.71458333333364,"velocity":0.8031496062992126,"duration":0.17083333333333428},{"name":"C4","midi":60,"time":61.872916666666974,"velocity":0.8031496062992126,"duration":0.17291666666666572},{"name":"F3","midi":53,"time":62.029166666666974,"velocity":0.8031496062992126,"duration":0.7666666666666657},{"name":"C3","midi":48,"time":62.19375000000031,"velocity":0.7952755905511811,"duration":0.16250000000000142},{"name":"A2","midi":45,"time":62.35625000000031,"velocity":0.7952755905511811,"duration":0.17291666666666572},{"name":"C3","midi":48,"time":62.531250000000306,"velocity":0.7952755905511811,"duration":0.19166666666666998},{"name":"F2","midi":41,"time":62.722916666666976,"velocity":0.7952755905511811,"duration":2.166666666666657},{"name":"C4","midi":60,"time":66.11041666666696,"velocity":0.8031496062992126,"duration":0.31458333333333144},{"name":"D4","midi":62,"time":66.4250000000003,"velocity":0.8031496062992126,"duration":0.3020833333333286},{"name":"C4","midi":60,"time":66.72708333333362,"velocity":0.8031496062992126,"duration":0.30416666666666003},{"name":"A#3","midi":58,"time":67.03125000000028,"velocity":0.8031496062992126,"duration":0.3020833333333286},{"name":"C4","midi":60,"time":67.33333333333361,"velocity":0.8031496062992126,"duration":0.29999999999999716},{"name":"E3","midi":52,"time":67.63333333333361,"velocity":0.8031496062992126,"duration":0.15000000000000568},{"name":"F3","midi":53,"time":67.78333333333362,"velocity":0.8031496062992126,"duration":0.15000000000000568},{"name":"G3","midi":55,"time":67.93541666666695,"velocity":0.8031496062992126,"duration":0.14791666666666003},{"name":"A3","midi":57,"time":68.08333333333361,"velocity":0.8031496062992126,"duration":0.15000000000000568},{"name":"A#3","midi":58,"time":68.23541666666695,"velocity":0.8031496062992126,"duration":0.2958333333333343},{"name":"C4","midi":60,"time":68.53125000000028,"velocity":0.8031496062992126,"duration":0.15000000000000568},{"name":"A#3","midi":58,"time":68.68125000000029,"velocity":0.8031496062992126,"duration":0.14791666666666003},{"name":"A3","midi":57,"time":68.83125000000028,"velocity":0.8031496062992126,"duration":0.14374999999999716},{"name":"G3","midi":55,"time":68.97500000000028,"velocity":0.8031496062992126,"duration":0.15000000000000568},{"name":"A3","midi":57,"time":69.12500000000028,"velocity":0.8031496062992126,"duration":0.1458333333333286},{"name":"G3","midi":55,"time":69.27083333333361,"velocity":0.8031496062992126,"duration":0.1458333333333286},{"name":"F3","midi":53,"time":69.41666666666694,"velocity":0.8031496062992126,"duration":0.14374999999999716},{"name":"G3","midi":55,"time":69.56041666666694,"velocity":0.8031496062992126,"duration":0.1458333333333286},{"name":"F4","midi":65,"time":69.70625000000027,"velocity":0.8031496062992126,"duration":0.2749999999999915},{"name":"A3","midi":57,"time":69.7083333333336,"velocity":0.8031496062992126,"duration":0.1458333333333286},{"name":"A#3","midi":58,"time":69.85416666666693,"velocity":0.8031496062992126,"duration":0.14791666666666003},{"name":"A4","midi":69,"time":70.00208333333359,"velocity":0.8031496062992126,"duration":0.27291666666666003},{"name":"C4","midi":60,"time":70.00416666666692,"velocity":0.8031496062992126,"duration":0.14166666666666572},{"name":"A#3","midi":58,"time":70.14791666666692,"velocity":0.8031496062992126,"duration":0.1458333333333286},{"name":"A3","midi":57,"time":70.29166666666691,"velocity":0.8031496062992126,"duration":0.1458333333333286},{"name":"G4","midi":67,"time":70.29583333333358,"velocity":0.8031496062992126,"duration":0.2750000000000057},{"name":"A#3","midi":58,"time":70.43750000000024,"velocity":0.8031496062992126,"duration":0.15000000000000568},{"name":"C4","midi":60,"time":70.58958333333358,"velocity":0.8031496062992126,"duration":0.14999999999999147},{"name":"F4","midi":65,"time":70.59166666666691,"velocity":0.8031496062992126,"duration":0.2854166666666629},{"name":"D4","midi":62,"time":70.7416666666669,"velocity":0.8031496062992126,"duration":0.13958333333333428},{"name":"E4","midi":64,"time":70.89166666666691,"velocity":0.8031496062992126,"duration":0.28333333333334565},{"name":"G4","midi":67,"time":70.90000000000025,"velocity":0.8031496062992126,"duration":0.13333333333333997},{"name":"G4","midi":67,"time":71.04583333333359,"velocity":0.7559055118110236,"duration":0.1458333333333286},{"name":"F4","midi":65,"time":71.19583333333358,"velocity":0.7559055118110236,"duration":0.14791666666666003},{"name":"B3","midi":59,"time":71.19791666666691,"velocity":0.7559055118110236,"duration":0.1520833333333229},{"name":"E4","midi":64,"time":71.34583333333357,"velocity":0.7559055118110236,"duration":0.14999999999999147},{"name":"C4","midi":60,"time":71.3479166666669,"velocity":0.7559055118110236,"duration":0.15833333333333144},{"name":"D4","midi":62,"time":71.5041666666669,"velocity":0.8031496062992126,"duration":0.1458333333333286},{"name":"C4","midi":60,"time":71.6541666666669,"velocity":0.8031496062992126,"duration":0.1520833333333229},{"name":"E4","midi":64,"time":71.65625000000023,"velocity":0.8031496062992126,"duration":0.14791666666666003},{"name":"F4","midi":65,"time":71.81458333333356,"velocity":0.8031496062992126,"duration":0.3124999999999716},{"name":"C4","midi":60,"time":71.81666666666689,"velocity":0.8031496062992126,"duration":0.05833333333332291},{"name":"B3","midi":59,"time":71.87083333333355,"velocity":0.8031496062992126,"duration":0.056249999999991473},{"name":"C4","midi":60,"time":71.92916666666687,"velocity":0.8031496062992126,"duration":0.05833333333333712},{"name":"B3","midi":59,"time":71.98958333333354,"velocity":0.8031496062992126,"duration":0.054166666666660035},{"name":"C4","midi":60,"time":72.04583333333353,"velocity":0.8031496062992126,"duration":0.054166666666660035},{"name":"B3","midi":59,"time":72.1000000000002,"velocity":0.8031496062992126,"duration":0.612499999999983},{"name":"G4","midi":67,"time":72.1250000000002,"velocity":0.8031496062992126,"duration":0.1458333333333286},{"name":"F4","midi":65,"time":72.27083333333353,"velocity":0.8031496062992126,"duration":0.1458333333333286},{"name":"E4","midi":64,"time":72.41666666666686,"velocity":0.8031496062992126,"duration":0.14791666666666003},{"name":"D4","midi":62,"time":72.56458333333352,"velocity":0.8031496062992126,"duration":0.14791666666666003},{"name":"C4","midi":60,"time":72.71458333333351,"velocity":0.8031496062992126,"duration":0.2874999999999943},{"name":"E4","midi":64,"time":72.71458333333351,"velocity":0.8031496062992126,"duration":0.14374999999999716},{"name":"D4","midi":62,"time":72.8583333333335,"velocity":0.8031496062992126,"duration":0.14374999999999716},{"name":"C4","midi":60,"time":73.00416666666683,"velocity":0.8031496062992126,"duration":0.14374999999999716},{"name":"A#3","midi":58,"time":73.00416666666683,"velocity":0.8031496062992126,"duration":0.2916666666666572},{"name":"D4","midi":62,"time":73.15000000000016,"velocity":0.8031496062992126,"duration":0.14374999999999716},{"name":"E4","midi":64,"time":73.29583333333349,"velocity":0.8031496062992126,"duration":0.14374999999999716},{"name":"A3","midi":57,"time":73.29791666666682,"velocity":0.8031496062992126,"duration":0.2916666666666572},{"name":"F4","midi":65,"time":73.44166666666682,"velocity":0.8031496062992126,"duration":0.14791666666666003},{"name":"G4","midi":67,"time":73.59166666666681,"velocity":0.8031496062992126,"duration":0.2979166666666657},{"name":"A#3","midi":58,"time":73.59166666666681,"velocity":0.8031496062992126,"duration":0.1458333333333286},{"name":"A3","midi":57,"time":73.73958333333347,"velocity":0.8031496062992126,"duration":0.15000000000000568},{"name":"G3","midi":55,"time":73.89166666666681,"velocity":0.8031496062992126,"duration":0.14791666666666003},{"name":"F4","midi":65,"time":73.89166666666681,"velocity":0.8031496062992126,"duration":0.2979166666666657},{"name":"A3","midi":57,"time":74.03958333333347,"velocity":0.8031496062992126,"duration":0.15000000000000568},{"name":"E4","midi":64,"time":74.1916666666668,"velocity":0.8031496062992126,"duration":0.29999999999999716},{"name":"A#3","midi":58,"time":74.1916666666668,"velocity":0.8031496062992126,"duration":0.14791666666666003},{"name":"C3","midi":48,"time":74.19375000000014,"velocity":0.8031496062992126,"duration":0.2958333333333343},{"name":"C4","midi":60,"time":74.33958333333347,"velocity":0.8031496062992126,"duration":0.15000000000000568},{"name":"F4","midi":65,"time":74.4916666666668,"velocity":0.8031496062992126,"duration":0.14791666666666003},{"name":"A3","midi":57,"time":74.49375000000013,"velocity":0.8031496062992126,"duration":0.5958333333333314},{"name":"D3","midi":50,"time":74.49375000000013,"velocity":0.8031496062992126,"duration":0.2958333333333343},{"name":"E4","midi":64,"time":74.63958333333346,"velocity":0.8031496062992126,"duration":0.15000000000000568},{"name":"D4","midi":62,"time":74.7916666666668,"velocity":0.8031496062992126,"duration":0.1458333333333286},{"name":"C3","midi":48,"time":74.7916666666668,"velocity":0.8031496062992126,"duration":0.2958333333333343},{"name":"E4","midi":64,"time":74.93750000000013,"velocity":0.8031496062992126,"duration":0.15000000000000568},{"name":"F4","midi":65,"time":75.08958333333347,"velocity":0.8031496062992126,"duration":0.1458333333333286},{"name":"D4","midi":62,"time":75.0916666666668,"velocity":0.8031496062992126,"duration":0.29375000000000284},{"name":"A#2","midi":46,"time":75.0916666666668,"velocity":0.8031496062992126,"duration":0.2916666666666714},{"name":"G4","midi":67,"time":75.2354166666668,"velocity":0.8031496062992126,"duration":0.14791666666667425},{"name":"A4","midi":69,"time":75.3854166666668,"velocity":0.7874015748031497,"duration":0.14999999999999147},{"name":"E4","midi":64,"time":75.38750000000013,"velocity":0.8031496062992126,"duration":0.29999999999999716},{"name":"C3","midi":48,"time":75.38750000000013,"velocity":0.8031496062992126,"duration":0.2979166666666657},{"name":"C5","midi":72,"time":75.53541666666679,"velocity":0.7874015748031497,"duration":0.15000000000000568},{"name":"A#4","midi":70,"time":75.68750000000013,"velocity":0.7874015748031497,"duration":0.14791666666666003},{"name":"G4","midi":67,"time":75.68958333333346,"velocity":0.8031496062992126,"duration":0.29583333333332007},{"name":"E2","midi":40,"time":75.68958333333346,"velocity":0.8031496062992126,"duration":0.1458333333333286},{"name":"A4","midi":69,"time":75.83750000000012,"velocity":0.7874015748031497,"duration":0.1458333333333286},{"name":"F2","midi":41,"time":75.83750000000012,"velocity":0.8031496062992126,"duration":0.1458333333333286},{"name":"G4","midi":67,"time":75.98541666666678,"velocity":0.8031496062992126,"duration":0.1458333333333286},{"name":"C4","midi":60,"time":75.98750000000011,"velocity":0.8031496062992126,"duration":0.29375000000000284},{"name":"G2","midi":43,"time":75.98750000000011,"velocity":0.8031496062992126,"duration":0.14374999999999716},{"name":"F4","midi":65,"time":76.13333333333344,"velocity":0.8031496062992126,"duration":0.12291666666666856},{"name":"A2","midi":45,"time":76.13333333333344,"velocity":0.8031496062992126,"duration":0.14791666666667425},{"name":"C4","midi":60,"time":76.28333333333345,"velocity":0.8031496062992126,"duration":1.493749999999963},{"name":"F4","midi":65,"time":76.28333333333345,"velocity":0.8031496062992126,"duration":0.05833333333333712},{"name":"A#2","midi":46,"time":76.28541666666678,"velocity":0.8031496062992126,"duration":0.3083333333333229},{"name":"E4","midi":64,"time":76.34166666666678,"velocity":0.8031496062992126,"duration":0.05833333333333712},{"name":"F4","midi":65,"time":76.40208333333345,"velocity":0.8031496062992126,"duration":0.054166666666660035},{"name":"E4","midi":64,"time":76.45833333333344,"velocity":0.8031496062992126,"duration":0.054166666666660035},{"name":"F4","midi":65,"time":76.51458333333343,"velocity":0.8031496062992126,"duration":0.052083333333328596},{"name":"E4","midi":64,"time":76.5687500000001,"velocity":0.8031496062992126,"duration":0.6208333333333371},{"name":"C3","midi":48,"time":76.5937500000001,"velocity":0.8031496062992126,"duration":0.15000000000000568},{"name":"A#2","midi":46,"time":76.7437500000001,"velocity":0.8031496062992126,"duration":0.14791666666666003},{"name":"A2","midi":45,"time":76.8937500000001,"velocity":0.8031496062992126,"duration":0.1458333333333286},{"name":"G2","midi":43,"time":77.03958333333343,"velocity":0.8031496062992126,"duration":0.15000000000000568},{"name":"F4","midi":65,"time":77.19166666666676,"velocity":0.8031496062992126,"duration":0.2916666666666572},{"name":"A2","midi":45,"time":77.19166666666676,"velocity":0.8031496062992126,"duration":0.1458333333333286},{"name":"G2","midi":43,"time":77.33750000000009,"velocity":0.8031496062992126,"duration":0.1458333333333286},{"name":"A4","midi":69,"time":77.48541666666675,"velocity":0.8031496062992126,"duration":0.5854166666666458},{"name":"F2","midi":41,"time":77.48541666666675,"velocity":0.8031496062992126,"duration":0.1458333333333286},{"name":"G2","midi":43,"time":77.63125000000008,"velocity":0.8031496062992126,"duration":0.1458333333333286},{"name":"F4","midi":65,"time":77.77916666666674,"velocity":0.8031496062992126,"duration":0.2916666666666572},{"name":"A2","midi":45,"time":77.77916666666674,"velocity":0.8031496062992126,"duration":0.14374999999999716},{"name":"A#2","midi":46,"time":77.92500000000007,"velocity":0.8031496062992126,"duration":0.1458333333333286},{"name":"E4","midi":64,"time":78.07291666666673,"velocity":0.8031496062992126,"duration":0.5749999999999886},{"name":"G4","midi":67,"time":78.07291666666673,"velocity":0.8031496062992126,"duration":0.2854166666666629},{"name":"C3","midi":48,"time":78.07500000000006,"velocity":0.8031496062992126,"duration":0.13958333333333428},{"name":"B2","midi":47,"time":78.2145833333334,"velocity":0.8031496062992126,"duration":0.14374999999999716},{"name":"C5","midi":72,"time":78.36041666666672,"velocity":0.8031496062992126,"duration":0.5770833333333201},{"name":"A2","midi":45,"time":78.36041666666672,"velocity":0.8031496062992126,"duration":0.13958333333333428},{"name":"B2","midi":47,"time":78.50208333333339,"velocity":0.8031496062992126,"duration":0.14374999999999716},{"name":"A4","midi":69,"time":78.64791666666672,"velocity":0.8031496062992126,"duration":0.28958333333332575},{"name":"C3","midi":48,"time":78.65000000000005,"velocity":0.8031496062992126,"duration":0.13958333333333428},{"name":"D3","midi":50,"time":78.79166666666671,"velocity":0.8031496062992126,"duration":0.14374999999999716},{"name":"B4","midi":71,"time":78.93958333333337,"velocity":0.8031496062992126,"duration":0.2854166666666629},{"name":"G4","midi":67,"time":78.93958333333337,"velocity":0.8031496062992126,"duration":0.5708333333333258},{"name":"E3","midi":52,"time":78.9416666666667,"velocity":0.8031496062992126,"duration":0.13750000000000284},{"name":"G3","midi":55,"time":79.08125000000004,"velocity":0.8031496062992126,"duration":0.14374999999999716},{"name":"E5","midi":76,"time":79.22500000000004,"velocity":0.8031496062992126,"duration":0.5729166666666572},{"name":"F3","midi":53,"time":79.22708333333337,"velocity":0.8031496062992126,"duration":0.13958333333333428},{"name":"E3","midi":52,"time":79.3666666666667,"velocity":0.8031496062992126,"duration":0.14374999999999716},{"name":"C5","midi":72,"time":79.51250000000003,"velocity":0.8031496062992126,"duration":0.4270833333333144},{"name":"D3","midi":50,"time":79.51250000000003,"velocity":0.8031496062992126,"duration":0.13958333333333428},{"name":"C3","midi":48,"time":79.65208333333337,"velocity":0.8031496062992126,"duration":0.14374999999999716},{"name":"D5","midi":74,"time":79.7979166666667,"velocity":0.8031496062992126,"duration":0.9791666666666146},{"name":"C3","midi":48,"time":79.80000000000003,"velocity":0.8031496062992126,"duration":0.04999999999999716},{"name":"B2","midi":47,"time":79.85000000000002,"velocity":0.8031496062992126,"duration":0.04999999999999716},{"name":"C3","midi":48,"time":79.90208333333335,"velocity":0.8031496062992126,"duration":0.052083333333328596},{"name":"C5","midi":72,"time":79.94166666666668,"velocity":0.8031496062992126,"duration":0.1416666666666515},{"name":"B2","midi":47,"time":79.95625000000001,"velocity":0.8031496062992126,"duration":0.052083333333328596},{"name":"C3","midi":48,"time":80.00833333333334,"velocity":0.8031496062992126,"duration":0.052083333333328596},{"name":"B2","midi":47,"time":80.06041666666667,"velocity":0.8031496062992126,"duration":0.5979166666666487},{"name":"B4","midi":71,"time":80.08541666666666,"velocity":0.8031496062992126,"duration":0.14166666666666572},{"name":"A4","midi":69,"time":80.22916666666666,"velocity":0.8031496062992126,"duration":0.14166666666666572},{"name":"G4","midi":67,"time":80.37083333333332,"velocity":0.8031496062992126,"duration":0.14374999999999716},{"name":"F4","midi":65,"time":80.51458333333332,"velocity":0.8031496062992126,"duration":0.14374999999999716},{"name":"E4","midi":64,"time":80.66041666666665,"velocity":0.8031496062992126,"duration":0.4333333333333229},{"name":"C3","midi":48,"time":80.66041666666665,"velocity":0.8031496062992126,"duration":0.2874999999999943},{"name":"D5","midi":74,"time":80.80208333333331,"velocity":0.8031496062992126,"duration":0.14374999999999716},{"name":"C5","midi":72,"time":80.94791666666664,"velocity":0.8031496062992126,"duration":0.2916666666666572},{"name":"D3","midi":50,"time":80.94999999999997,"velocity":0.8031496062992126,"duration":0.14166666666666572},{"name":"A#4","midi":70,"time":81.09374999999997,"velocity":0.8031496062992126,"duration":0.1458333333333286},{"name":"E3","midi":52,"time":81.0958333333333,"velocity":0.8031496062992126,"duration":0.14166666666666572},{"name":"C5","midi":72,"time":81.24166666666663,"velocity":0.8031496062992126,"duration":0.2874999999999943},{"name":"A4","midi":69,"time":81.24166666666663,"velocity":0.8031496062992126,"duration":0.13958333333333428},{"name":"F3","midi":53,"time":81.24374999999996,"velocity":0.8031496062992126,"duration":0.2854166666666629},{"name":"G4","midi":67,"time":81.3833333333333,"velocity":0.8031496062992126,"duration":0.14374999999999716},{"name":"D5","midi":74,"time":81.53124999999996,"velocity":0.8031496062992126,"duration":0.2916666666666572},{"name":"F4","midi":65,"time":81.53124999999996,"velocity":0.8031496062992126,"duration":0.14374999999999716},{"name":"A#3","midi":58,"time":81.53333333333329,"velocity":0.8031496062992126,"duration":0.8729166666666401},{"name":"E4","midi":64,"time":81.67708333333329,"velocity":0.8031496062992126,"duration":0.1458333333333286},{"name":"C5","midi":72,"time":81.82499999999995,"velocity":0.8031496062992126,"duration":0.2916666666666572},{"name":"D4","midi":62,"time":81.82499999999995,"velocity":0.8031496062992126,"duration":0.1458333333333286},{"name":"E4","midi":64,"time":81.97083333333327,"velocity":0.8031496062992126,"duration":0.1458333333333286},{"name":"A#4","midi":70,"time":82.11874999999993,"velocity":0.8031496062992126,"duration":0.2874999999999943},{"name":"F4","midi":65,"time":82.11874999999993,"velocity":0.8031496062992126,"duration":0.14166666666666572},{"name":"G4","midi":67,"time":82.2604166666666,"velocity":0.8031496062992126,"duration":0.1520833333333229},{"name":"A4","midi":69,"time":82.40833333333326,"velocity":0.8031496062992126,"duration":0.2854166666666629},{"name":"C5","midi":72,"time":82.40833333333326,"velocity":0.8031496062992126,"duration":0.2874999999999943},{"name":"A3","midi":57,"time":82.41041666666659,"velocity":0.8031496062992126,"duration":0.14374999999999716},{"name":"C4","midi":60,"time":82.54999999999993,"velocity":0.8031496062992126,"duration":0.14791666666666003},{"name":"A#3","midi":58,"time":82.69583333333325,"velocity":0.8031496062992126,"duration":0.1458333333333286},{"name":"E4","midi":64,"time":82.69791666666659,"velocity":0.8031496062992126,"duration":0.14166666666666572},{"name":"A3","midi":57,"time":82.83541666666659,"velocity":0.8031496062992126,"duration":0.14791666666666003},{"name":"F4","midi":65,"time":82.83749999999992,"velocity":0.8031496062992126,"duration":0.14374999999999716},{"name":"G4","midi":67,"time":82.97916666666659,"velocity":0.8031496062992126,"duration":0.1458333333333286},{"name":"G3","midi":55,"time":82.97916666666659,"velocity":0.8031496062992126,"duration":0.14791666666666003},{"name":"A4","midi":69,"time":83.12291666666658,"velocity":0.8031496062992126,"duration":0.1416666666666515},{"name":"F3","midi":53,"time":83.12291666666658,"velocity":0.8031496062992126,"duration":0.12083333333332291},{"name":"A#4","midi":70,"time":83.26666666666657,"velocity":0.8031496062992126,"duration":0.283333333333303},{"name":"F3","midi":53,"time":83.26666666666657,"velocity":0.8031496062992126,"duration":0.052083333333328596},{"name":"E3","midi":52,"time":83.32083333333323,"velocity":0.8031496062992126,"duration":0.04999999999999716},{"name":"F3","midi":53,"time":83.37083333333322,"velocity":0.8031496062992126,"duration":0.054166666666660035},{"name":"E3","midi":52,"time":83.42499999999988,"velocity":0.8031496062992126,"duration":0.04999999999999716},{"name":"F3","midi":53,"time":83.47708333333321,"velocity":0.8031496062992126,"duration":0.04999999999999716},{"name":"E3","midi":52,"time":83.52708333333321,"velocity":0.8031496062992126,"duration":0.5958333333333172},{"name":"C5","midi":72,"time":83.5520833333332,"velocity":0.8031496062992126,"duration":0.14166666666666572},{"name":"A#4","midi":70,"time":83.69374999999987,"velocity":0.8031496062992126,"duration":0.14166666666666572},{"name":"A4","midi":69,"time":83.83541666666653,"velocity":0.8031496062992126,"duration":0.14374999999999716},{"name":"G4","midi":67,"time":83.97916666666653,"velocity":0.8031496062992126,"duration":0.14166666666666572},{"name":"A4","midi":69,"time":84.12291666666653,"velocity":0.8031496062992126,"duration":0.13958333333333428},{"name":"F3","midi":53,"time":84.12499999999986,"velocity":0.8031496062992126,"duration":0.5687499999999943},{"name":"G4","midi":67,"time":84.26458333333319,"velocity":0.8031496062992126,"duration":0.14166666666666572},{"name":"F4","midi":65,"time":84.40833333333319,"velocity":0.8031496062992126,"duration":0.14166666666666572},{"name":"G4","midi":67,"time":84.54999999999986,"velocity":0.8031496062992126,"duration":0.14374999999999716},{"name":"A4","midi":69,"time":84.69583333333318,"velocity":0.8031496062992126,"duration":0.13958333333333428},{"name":"F4","midi":65,"time":84.69583333333318,"velocity":0.8031496062992126,"duration":0.28333333333333144},{"name":"A#4","midi":70,"time":84.83541666666652,"velocity":0.8031496062992126,"duration":0.14374999999999716},{"name":"C5","midi":72,"time":84.98124999999985,"velocity":0.8031496062992126,"duration":0.14374999999999716},{"name":"A4","midi":69,"time":84.98124999999985,"velocity":0.8031496062992126,"duration":0.28125},{"name":"A#4","midi":70,"time":85.12499999999984,"velocity":0.8031496062992126,"duration":0.14791666666667425},{"name":"A4","midi":69,"time":85.27499999999985,"velocity":0.8031496062992126,"duration":0.14374999999999716},{"name":"G4","midi":67,"time":85.27499999999985,"velocity":0.8031496062992126,"duration":0.29374999999998863},{"name":"A#4","midi":70,"time":85.42083333333318,"velocity":0.8031496062992126,"duration":0.1458333333333286},{"name":"C5","midi":72,"time":85.56874999999984,"velocity":0.7952755905511811,"duration":0.14374999999999716},{"name":"F4","midi":65,"time":85.57083333333317,"velocity":0.8031496062992126,"duration":0.2916666666666572},{"name":"D5","midi":74,"time":85.71458333333317,"velocity":0.7952755905511811,"duration":0.1458333333333286},{"name":"E5","midi":76,"time":85.86249999999983,"velocity":0.7559055118110236,"duration":0.13958333333333428},{"name":"G4","midi":67,"time":85.86458333333316,"velocity":0.8031496062992126,"duration":0.28333333333333144},{"name":"G5","midi":79,"time":86.00416666666649,"velocity":0.7559055118110236,"duration":0.14374999999999716},{"name":"F5","midi":77,"time":86.14999999999982,"velocity":0.7559055118110236,"duration":0.13958333333333428},{"name":"B3","midi":59,"time":86.14999999999982,"velocity":0.8031496062992126,"duration":0.13958333333333428},{"name":"E5","midi":76,"time":86.29166666666649,"velocity":0.7559055118110236,"duration":0.14166666666666572},{"name":"C4","midi":60,"time":86.29166666666649,"velocity":0.8031496062992126,"duration":0.14166666666666572},{"name":"D5","midi":74,"time":86.43541666666648,"velocity":0.7795275590551181,"duration":0.14166666666666572},{"name":"D4","midi":62,"time":86.43541666666648,"velocity":0.8031496062992126,"duration":0.14166666666666572},{"name":"C5","midi":72,"time":86.57916666666648,"velocity":0.7795275590551181,"duration":0.11875000000000568},{"name":"E4","midi":64,"time":86.57916666666648,"velocity":0.8031496062992126,"duration":0.14166666666666572},{"name":"C5","midi":72,"time":86.72291666666648,"velocity":0.7322834645669292,"duration":0.04999999999999716},{"name":"F4","midi":65,"time":86.72291666666648,"velocity":0.8031496062992126,"duration":0.283333333333303},{"name":"B4","midi":71,"time":86.7749999999998,"velocity":0.7322834645669292,"duration":0.04999999999999716},{"name":"C5","midi":72,"time":86.8249999999998,"velocity":0.7322834645669292,"duration":0.054166666666660035},{"name":"B4","midi":71,"time":86.87916666666646,"velocity":0.7322834645669292,"duration":0.052083333333328596},{"name":"C5","midi":72,"time":86.93124999999979,"velocity":0.7480314960629921,"duration":0.052083333333328596},{"name":"B4","midi":71,"time":86.98333333333312,"velocity":0.7480314960629921,"duration":0.5958333333333172},{"name":"G4","midi":67,"time":87.00833333333311,"velocity":0.8031496062992126,"duration":0.14166666666666572},{"name":"F4","midi":65,"time":87.14999999999978,"velocity":0.8031496062992126,"duration":0.14374999999999716},{"name":"E4","midi":64,"time":87.29374999999978,"velocity":0.8031496062992126,"duration":0.14166666666666572},{"name":"D4","midi":62,"time":87.43541666666644,"velocity":0.8031496062992126,"duration":0.14374999999999716},{"name":"C5","midi":72,"time":87.58124999999977,"velocity":0.7401574803149606,"duration":0.14166666666666572},{"name":"E4","midi":64,"time":87.58124999999977,"velocity":0.8031496062992126,"duration":0.13958333333333428},{"name":"D5","midi":74,"time":87.72291666666644,"velocity":0.7401574803149606,"duration":0.14166666666666572},{"name":"D4","midi":62,"time":87.72499999999977,"velocity":0.8031496062992126,"duration":0.13958333333333428},{"name":"E5","midi":76,"time":87.8645833333331,"velocity":0.7165354330708661,"duration":0.14374999999999716},{"name":"C4","midi":60,"time":87.86666666666643,"velocity":0.8031496062992126,"duration":0.14166666666666572},{"name":"F5","midi":77,"time":88.0083333333331,"velocity":0.7165354330708661,"duration":0.14166666666666572},{"name":"D4","midi":62,"time":88.01041666666643,"velocity":0.8031496062992126,"duration":0.13958333333333428},{"name":"G5","midi":79,"time":88.1520833333331,"velocity":0.7165354330708661,"duration":0.14374999999999716},{"name":"C4","midi":60,"time":88.1520833333331,"velocity":0.8031496062992126,"duration":0.13124999999999432},{"name":"E4","midi":64,"time":88.1520833333331,"velocity":0.8031496062992126,"duration":0.14166666666666572},{"name":"A5","midi":81,"time":88.29583333333309,"velocity":0.7165354330708661,"duration":0.14374999999999716},{"name":"C4","midi":60,"time":88.29583333333309,"velocity":0.8031496062992126,"duration":0.14166666666666572},{"name":"A#4","midi":70,"time":88.43958333333309,"velocity":0.7401574803149606,"duration":0.14166666666666572},{"name":"D4","midi":62,"time":88.44166666666642,"velocity":0.8031496062992126,"duration":0.2708333333333286},{"name":"C5","midi":72,"time":88.58124999999976,"velocity":0.7401574803149606,"duration":0.14374999999999716},{"name":"D5","midi":74,"time":88.72499999999975,"velocity":0.7401574803149606,"duration":0.14166666666666572},{"name":"C4","midi":60,"time":88.72499999999975,"velocity":0.8031496062992126,"duration":0.2750000000000057},{"name":"E5","midi":76,"time":88.86666666666642,"velocity":0.7165354330708661,"duration":0.14375000000001137},{"name":"F5","midi":77,"time":89.01041666666643,"velocity":0.7165354330708661,"duration":0.14166666666666572},{"name":"A#3","midi":58,"time":89.01249999999976,"velocity":0.8031496062992126,"duration":0.26250000000000284},{"name":"G5","midi":79,"time":89.1520833333331,"velocity":0.7165354330708661,"duration":0.1458333333333286},{"name":"A5","midi":81,"time":89.29999999999976,"velocity":0.7165354330708661,"duration":0.13958333333333428},{"name":"C4","midi":60,"time":89.29999999999976,"velocity":0.8031496062992126,"duration":0.28333333333333144},{"name":"C6","midi":84,"time":89.44166666666642,"velocity":0.7165354330708661,"duration":0.13958333333333428},{"name":"A#5","midi":82,"time":89.58333333333309,"velocity":0.7165354330708661,"duration":0.14374999999999716},{"name":"E3","midi":52,"time":89.58541666666642,"velocity":0.8031496062992126,"duration":0.13958333333333428},{"name":"A5","midi":81,"time":89.72708333333308,"velocity":0.7165354330708661,"duration":0.14166666666666572},{"name":"F3","midi":53,"time":89.72916666666642,"velocity":0.8031496062992126,"duration":0.13958333333333428},{"name":"C5","midi":72,"time":89.87083333333308,"velocity":0.7244094488188977,"duration":0.28333333333333144},{"name":"G5","midi":79,"time":89.87083333333308,"velocity":0.7007874015748031,"duration":0.13958333333333428},{"name":"G3","midi":55,"time":89.87291666666641,"velocity":0.8031496062992126,"duration":0.13750000000000284},{"name":"F5","midi":77,"time":90.01249999999975,"velocity":0.7007874015748031,"duration":0.13958333333333428},{"name":"A3","midi":57,"time":90.01249999999975,"velocity":0.8031496062992126,"duration":0.13958333333333428},{"name":"F5","midi":77,"time":90.15416666666641,"velocity":0.7007874015748031,"duration":0.25833333333332575},{"name":"D5","midi":74,"time":90.15624999999974,"velocity":0.7244094488188977,"duration":0.2812499999999858},{"name":"A#3","midi":58,"time":90.15624999999974,"velocity":0.8031496062992126,"duration":0.27916666666665435},{"name":"F5","midi":77,"time":90.43749999999973,"velocity":0.6299212598425197,"duration":0.052083333333328596},{"name":"C5","midi":72,"time":90.43958333333306,"velocity":0.7244094488188977,"duration":0.28541666666664867},{"name":"C4","midi":60,"time":90.43958333333306,"velocity":0.8031496062992126,"duration":0.13958333333332007},{"name":"E5","midi":76,"time":90.49166666666639,"velocity":0.6299212598425197,"duration":0.04999999999999716},{"name":"F5","midi":77,"time":90.54374999999972,"velocity":0.6299212598425197,"duration":0.04999999999999716},{"name":"A#3","midi":58,"time":90.58124999999971,"velocity":0.8031496062992126,"duration":0.14374999999999716},{"name":"E5","midi":76,"time":90.59583333333305,"velocity":0.6299212598425197,"duration":0.052083333333328596},{"name":"F5","midi":77,"time":90.64999999999971,"velocity":0.6299212598425197,"duration":0.04999999999999716},{"name":"E5","midi":76,"time":90.6999999999997,"velocity":0.6299212598425197,"duration":0.3125},{"name":"A#4","midi":70,"time":90.72499999999971,"velocity":0.7244094488188977,"duration":0.2854166666666629},{"name":"A3","midi":57,"time":90.72708333333304,"velocity":0.8031496062992126,"duration":0.14166666666666572},{"name":"G3","midi":55,"time":90.86874999999971,"velocity":0.8031496062992126,"duration":0.14166666666666572},{"name":"F5","midi":77,"time":91.0124999999997,"velocity":0.7007874015748031,"duration":0.28333333333333144},{"name":"C5","midi":72,"time":91.01458333333304,"velocity":0.7244094488188977,"duration":0.28125},{"name":"A3","midi":57,"time":91.01458333333304,"velocity":0.8031496062992126,"duration":0.13750000000000284},{"name":"C4","midi":60,"time":91.15208333333304,"velocity":0.8031496062992126,"duration":0.14166666666666572},{"name":"A#3","midi":58,"time":91.29791666666637,"velocity":0.8031496062992126,"duration":0.13958333333333428},{"name":"E4","midi":64,"time":91.29791666666637,"velocity":0.8031496062992126,"duration":0.13750000000000284},{"name":"A3","midi":57,"time":91.4374999999997,"velocity":0.8031496062992126,"duration":0.14166666666666572},{"name":"F4","midi":65,"time":91.43958333333303,"velocity":0.8031496062992126,"duration":0.13750000000000284},{"name":"G3","midi":55,"time":91.57916666666637,"velocity":0.8031496062992126,"duration":0.14374999999999716},{"name":"G4","midi":67,"time":91.5812499999997,"velocity":0.8031496062992126,"duration":0.14166666666666572},{"name":"A4","midi":69,"time":91.7249999999997,"velocity":0.7559055118110236,"duration":0.14166666666666572},{"name":"F3","midi":53,"time":91.7249999999997,"velocity":0.8031496062992126,"duration":0.11666666666666003},{"name":"G5","midi":79,"time":91.86666666666636,"velocity":0.7322834645669292,"duration":0.9708333333332888},{"name":"A#4","midi":70,"time":91.8687499999997,"velocity":0.7559055118110236,"duration":0.283333333333303},{"name":"F3","midi":53,"time":91.8687499999997,"velocity":0.8031496062992126,"duration":0.04999999999999716},{"name":"E3","midi":52,"time":91.91874999999969,"velocity":0.8031496062992126,"duration":0.054166666666660035},{"name":"F3","midi":53,"time":91.97291666666635,"velocity":0.8031496062992126,"duration":0.052083333333328596},{"name":"E3","midi":52,"time":92.02499999999968,"velocity":0.8031496062992126,"duration":0.04999999999999716},{"name":"F3","midi":53,"time":92.07708333333301,"velocity":0.8031496062992126,"duration":0.04999999999999716},{"name":"E3","midi":52,"time":92.12916666666634,"velocity":0.8031496062992126,"duration":0.5895833333333229},{"name":"C5","midi":72,"time":92.152083333333,"velocity":0.7401574803149606,"duration":0.14166666666666572},{"name":"A#4","midi":70,"time":92.295833333333,"velocity":0.7401574803149606,"duration":0.13750000000000284},{"name":"A4","midi":69,"time":92.43541666666633,"velocity":0.7401574803149606,"duration":0.13958333333333428},{"name":"G4","midi":67,"time":92.577083333333,"velocity":0.8031496062992126,"duration":0.14166666666666572},{"name":"A4","midi":69,"time":92.72083333333299,"velocity":0.7559055118110236,"duration":1.1291666666666487},{"name":"F3","midi":53,"time":92.72083333333299,"velocity":0.8031496062992126,"duration":0.27916666666665435},{"name":"G5","midi":79,"time":92.86041666666631,"velocity":0.7165354330708661,"duration":0.13958333333333428},{"name":"F5","midi":77,"time":93.00208333333298,"velocity":0.7165354330708661,"duration":0.13958333333333428},{"name":"G3","midi":55,"time":93.00208333333298,"velocity":0.8031496062992126,"duration":0.28333333333333144},{"name":"E5","midi":76,"time":93.14374999999964,"velocity":0.7165354330708661,"duration":0.13958333333333428},{"name":"D5","midi":74,"time":93.28749999999964,"velocity":0.7401574803149606,"duration":0.13958333333333428},{"name":"A3","midi":57,"time":93.28749999999964,"velocity":0.8031496062992126,"duration":0.28125},{"name":"C5","midi":72,"time":93.42708333333297,"velocity":0.7559055118110236,"duration":0.13958333333333428},{"name":"F5","midi":77,"time":93.56874999999964,"velocity":0.7322834645669292,"duration":0.96041666666666},{"name":"D3","midi":50,"time":93.56874999999964,"velocity":0.8031496062992126,"duration":0.5604166666666686},{"name":"A#4","midi":70,"time":93.85208333333297,"velocity":0.7559055118110236,"duration":0.13750000000000284},{"name":"A4","midi":69,"time":93.98958333333297,"velocity":0.7559055118110236,"duration":0.13958333333333428},{"name":"G4","midi":67,"time":94.13124999999964,"velocity":0.8031496062992126,"duration":0.13750000000000284},{"name":"F4","midi":65,"time":94.27083333333297,"velocity":0.8031496062992126,"duration":0.13958333333333428},{"name":"G4","midi":67,"time":94.41249999999964,"velocity":0.8031496062992126,"duration":1.135416666666643},{"name":"E3","midi":52,"time":94.41249999999964,"velocity":0.8031496062992126,"duration":0.2833333333333172},{"name":"F5","midi":77,"time":94.55208333333296,"velocity":0.7322834645669292,"duration":0.14374999999999716},{"name":"E5","midi":76,"time":94.69791666666629,"velocity":0.7322834645669292,"duration":0.13958333333333428},{"name":"F3","midi":53,"time":94.69791666666629,"velocity":0.8031496062992126,"duration":0.28125},{"name":"D5","midi":74,"time":94.83749999999962,"velocity":0.7559055118110236,"duration":0.14166666666666572},{"name":"C#5","midi":73,"time":94.98124999999962,"velocity":0.7559055118110236,"duration":0.14166666666666572},{"name":"G3","midi":55,"time":94.98124999999962,"velocity":0.8031496062992126,"duration":0.2854166666666629},{"name":"B4","midi":71,"time":95.12499999999962,"velocity":0.7559055118110236,"duration":0.13958333333333428},{"name":"E5","midi":76,"time":95.26666666666628,"velocity":0.7322834645669292,"duration":1.1187500000000057},{"name":"C#3","midi":49,"time":95.26874999999961,"velocity":0.8031496062992126,"duration":0.5604166666666686},{"name":"A4","midi":69,"time":95.54791666666628,"velocity":0.7559055118110236,"duration":0.14166666666666572},{"name":"G4","midi":67,"time":95.68958333333295,"velocity":0.8031496062992126,"duration":0.13958333333333428},{"name":"C#4","midi":61,"time":95.83124999999961,"velocity":0.8031496062992126,"duration":0.27916666666666856},{"name":"F4","midi":65,"time":95.83124999999961,"velocity":0.8031496062992126,"duration":0.13750000000000284},{"name":"E4","midi":64,"time":95.97083333333295,"velocity":0.8031496062992126,"duration":0.13750000000000284},{"name":"F4","midi":65,"time":96.11041666666628,"velocity":0.8031496062992126,"duration":0.13750000000000284},{"name":"D4","midi":62,"time":96.11249999999961,"velocity":0.8031496062992126,"duration":0.2708333333333428},{"name":"E4","midi":64,"time":96.24791666666628,"velocity":0.8031496062992126,"duration":0.1354166666666714},{"name":"A4","midi":69,"time":96.38541666666629,"velocity":0.7559055118110236,"duration":0.2708333333333286},{"name":"C4","midi":60,"time":96.38749999999962,"velocity":0.8031496062992126,"duration":0.26874999999999716},{"name":"F4","midi":65,"time":96.38749999999962,"velocity":0.8031496062992126,"duration":0.13124999999999432},{"name":"G4","midi":67,"time":96.52083333333294,"velocity":0.8031496062992126,"duration":0.13333333333333997},{"name":"D5","midi":74,"time":96.65833333333295,"velocity":0.7559055118110236,"duration":0.27916666666666856},{"name":"A4","midi":69,"time":96.65833333333295,"velocity":0.7559055118110236,"duration":0.13750000000000284},{"name":"A#3","midi":58,"time":96.66041666666628,"velocity":0.8031496062992126,"duration":0.2750000000000057},{"name":"G4","midi":67,"time":96.79583333333295,"velocity":0.8031496062992126,"duration":0.13958333333333428},{"name":"A4","midi":69,"time":96.93749999999962,"velocity":0.7559055118110236,"duration":0.13333333333332575},{"name":"C#5","midi":73,"time":96.93958333333295,"velocity":0.7559055118110236,"duration":0.5479166666666657},{"name":"A3","midi":57,"time":96.93958333333295,"velocity":0.8031496062992126,"duration":3.9270833333333286},{"name":"A#4","midi":70,"time":97.07291666666627,"velocity":0.7559055118110236,"duration":0.1354166666666714},{"name":"A4","midi":69,"time":97.21041666666628,"velocity":0.7559055118110236,"duration":0.13750000000000284},{"name":"G4","midi":67,"time":97.34791666666628,"velocity":0.8031496062992126,"duration":0.13958333333333428},{"name":"A5","midi":81,"time":97.48958333333294,"velocity":0.7322834645669292,"duration":0.28333333333333144},{"name":"F4","midi":65,"time":97.48958333333294,"velocity":0.8031496062992126,"duration":0.13958333333333428},{"name":"E4","midi":64,"time":97.62916666666628,"velocity":0.8031496062992126,"duration":0.14374999999999716},{"name":"A#5","midi":82,"time":97.77291666666628,"velocity":0.7322834645669292,"duration":0.28333333333333144},{"name":"D4","midi":62,"time":97.77499999999961,"velocity":0.8031496062992126,"duration":0.13750000000000284},{"name":"C#4","midi":61,"time":97.91458333333294,"velocity":0.8031496062992126,"duration":0.14166666666666572},{"name":"A5","midi":81,"time":98.05624999999961,"velocity":0.7322834645669292,"duration":0.28125},{"name":"D4","midi":62,"time":98.05833333333294,"velocity":0.8031496062992126,"duration":0.13958333333333428},{"name":"F4","midi":65,"time":98.1999999999996,"velocity":0.8031496062992126,"duration":0.13750000000000284},{"name":"G5","midi":79,"time":98.33958333333294,"velocity":0.7322834645669292,"duration":0.28125},{"name":"E4","midi":64,"time":98.34166666666627,"velocity":0.8031496062992126,"duration":0.13750000000000284},{"name":"D4","midi":62,"time":98.4812499999996,"velocity":0.8031496062992126,"duration":0.13958333333333428},{"name":"A5","midi":81,"time":98.62291666666627,"velocity":0.7322834645669292,"duration":0.2770833333333371},{"name":"C#4","midi":61,"time":98.62291666666627,"velocity":0.8031496062992126,"duration":0.2770833333333371},{"name":"C#5","midi":73,"time":98.90208333333294,"velocity":0.7401574803149606,"duration":0.13750000000000284},{"name":"D5","midi":74,"time":99.04166666666627,"velocity":0.7401574803149606,"duration":0.13750000000000284},{"name":"E5","midi":76,"time":99.18124999999961,"velocity":0.6850393700787402,"duration":0.13958333333333428},{"name":"A4","midi":69,"time":99.18124999999961,"velocity":0.7559055118110236,"duration":0.28125},{"name":"F5","midi":77,"time":99.32083333333294,"velocity":0.6850393700787402,"duration":0.14166666666666572},{"name":"G5","midi":79,"time":99.46458333333294,"velocity":0.6850393700787402,"duration":0.2770833333333371},{"name":"A#4","midi":70,"time":99.46458333333294,"velocity":0.7559055118110236,"duration":0.27916666666666856},{"name":"A5","midi":81,"time":99.74374999999961,"velocity":0.6850393700787402,"duration":0.13750000000000284},{"name":"A4","midi":69,"time":99.74583333333294,"velocity":0.7559055118110236,"duration":0.2770833333333371},{"name":"G5","midi":79,"time":99.88333333333294,"velocity":0.6850393700787402,"duration":0.13958333333333428},{"name":"F5","midi":77,"time":100.02499999999961,"velocity":0.6850393700787402,"duration":0.13750000000000284},{"name":"G4","midi":67,"time":100.02499999999961,"velocity":0.8031496062992126,"duration":0.2770833333333371},{"name":"E5","midi":76,"time":100.16249999999961,"velocity":0.6850393700787402,"duration":0.13958333333333428},{"name":"A4","midi":69,"time":100.30416666666628,"velocity":0.7559055118110236,"duration":0.27916666666666856},{"name":"F5","midi":77,"time":100.30416666666628,"velocity":0.7007874015748031,"duration":0.13750000000000284},{"name":"A5","midi":81,"time":100.44374999999961,"velocity":0.6850393700787402,"duration":0.13750000000000284},{"name":"G5","midi":79,"time":100.58333333333294,"velocity":0.6850393700787402,"duration":0.13958333333333428},{"name":"C#4","midi":61,"time":100.58541666666628,"velocity":0.8031496062992126,"duration":0.13750000000000284},{"name":"F5","midi":77,"time":100.72499999999961,"velocity":0.6850393700787402,"duration":0.13958333333333428},{"name":"D4","midi":62,"time":100.72499999999961,"velocity":0.8031496062992126,"duration":0.13958333333333428},{"name":"E5","midi":76,"time":100.86666666666628,"velocity":0.6850393700787402,"duration":0.13958333333333428},{"name":"A3","midi":57,"time":100.86874999999961,"velocity":0.8031496062992126,"duration":0.28125},{"name":"E4","midi":64,"time":100.86874999999961,"velocity":0.8031496062992126,"duration":0.13750000000000284},{"name":"D5","midi":74,"time":101.00833333333294,"velocity":0.7401574803149606,"duration":0.14166666666666572},{"name":"F4","midi":65,"time":101.00833333333294,"velocity":0.8031496062992126,"duration":0.13958333333333428},{"name":"C#5","midi":73,"time":101.14999999999961,"velocity":0.7401574803149606,"duration":0.9562499999999972},{"name":"G4","midi":67,"time":101.15208333333294,"velocity":0.8031496062992126,"duration":0.2770833333333371},{"name":"A#3","midi":58,"time":101.15208333333294,"velocity":0.8031496062992126,"duration":0.2750000000000057},{"name":"A4","midi":69,"time":101.42916666666628,"velocity":0.7559055118110236,"duration":0.13958333333333428},{"name":"A3","midi":57,"time":101.43124999999961,"velocity":0.8031496062992126,"duration":0.2770833333333371},{"name":"G4","midi":67,"time":101.56874999999961,"velocity":0.8031496062992126,"duration":0.13958333333333428},{"name":"G3","midi":55,"time":101.71041666666628,"velocity":0.8031496062992126,"duration":0.27916666666666856},{"name":"F4","midi":65,"time":101.71041666666628,"velocity":0.8031496062992126,"duration":0.13958333333333428},{"name":"E4","midi":64,"time":101.84999999999961,"velocity":0.8031496062992126,"duration":0.13750000000000284},{"name":"F4","midi":65,"time":101.98958333333294,"velocity":0.8031496062992126,"duration":0.5666666666666629},{"name":"A3","midi":57,"time":101.99166666666628,"velocity":0.8031496062992126,"duration":0.27916666666666856},{"name":"D5","midi":74,"time":102.12916666666626,"velocity":0.7559055118110236,"duration":0.07083333333333997},{"name":"C5","midi":72,"time":102.1999999999996,"velocity":0.7559055118110236,"duration":0.07083333333333997},{"name":"A#4","midi":70,"time":102.27291666666628,"velocity":0.7559055118110236,"duration":0.13958333333333428},{"name":"C#3","midi":49,"time":102.27291666666628,"velocity":0.8031496062992126,"duration":0.13958333333333428},{"name":"A4","midi":69,"time":102.41458333333294,"velocity":0.7559055118110236,"duration":0.14166666666666572},{"name":"D3","midi":50,"time":102.41458333333294,"velocity":0.8031496062992126,"duration":0.13958333333333428},{"name":"G4","midi":67,"time":102.55624999999961,"velocity":0.8031496062992126,"duration":0.14166666666666572},{"name":"E3","midi":52,"time":102.55833333333294,"velocity":0.8031496062992126,"duration":0.13750000000000284},{"name":"F4","midi":65,"time":102.69791666666627,"velocity":0.8031496062992126,"duration":0.14166666666666572},{"name":"F3","midi":53,"time":102.6999999999996,"velocity":0.8031496062992126,"duration":0.13750000000000284},{"name":"A#4","midi":70,"time":102.84166666666627,"velocity":0.7559055118110236,"duration":0.2645833333333343},{"name":"C#4","midi":61,"time":102.84166666666627,"velocity":0.8031496062992126,"duration":0.9354166666666686},{"name":"G3","midi":55,"time":102.84166666666627,"velocity":0.8031496062992126,"duration":0.26250000000000284},{"name":"A4","midi":69,"time":103.1062499999996,"velocity":0.7559055118110236,"duration":0.27291666666667425},{"name":"A3","midi":57,"time":103.10833333333294,"velocity":0.8031496062992126,"duration":0.13333333333333997},{"name":"G3","midi":55,"time":103.24166666666628,"velocity":0.8031496062992126,"duration":0.13750000000000284},{"name":"F3","midi":53,"time":103.38124999999961,"velocity":0.8031496062992126,"duration":0.13958333333333428},{"name":"G4","midi":67,"time":103.38124999999961,"velocity":0.8031496062992126,"duration":0.28333333333333144},{"name":"E3","midi":52,"time":103.52291666666628,"velocity":0.8031496062992126,"duration":0.13958333333333428},{"name":"A4","midi":69,"time":103.66458333333294,"velocity":0.7559055118110236,"duration":0.9520833333333343},{"name":"F3","midi":53,"time":103.66666666666627,"velocity":0.8031496062992126,"duration":0.4104166666666629},{"name":"A3","midi":57,"time":103.7999999999996,"velocity":0.8031496062992126,"duration":0.13750000000000284},{"name":"B3","midi":59,"time":103.9374999999996,"velocity":0.8031496062992126,"duration":0.13958333333333428},{"name":"G3","midi":55,"time":104.07916666666627,"velocity":0.8031496062992126,"duration":0.13750000000000284},{"name":"C#4","midi":61,"time":104.07916666666627,"velocity":0.8031496062992126,"duration":0.1354166666666714},{"name":"F3","midi":53,"time":104.21666666666627,"velocity":0.8031496062992126,"duration":0.13750000000000284},{"name":"D4","midi":62,"time":104.2187499999996,"velocity":0.8031496062992126,"duration":0.13333333333333997},{"name":"E3","midi":52,"time":104.35416666666627,"velocity":0.8031496062992126,"duration":0.13958333333333428},{"name":"E4","midi":64,"time":104.3562499999996,"velocity":0.8031496062992126,"duration":0.13750000000000284},{"name":"D3","midi":50,"time":104.49583333333294,"velocity":0.8031496062992126,"duration":0.14791666666667425},{"name":"F4","midi":65,"time":104.49583333333294,"velocity":0.8031496062992126,"duration":0.14791666666667425},{"name":"A#4","midi":70,"time":104.64583333333294,"velocity":0.7559055118110236,"duration":0.15416666666666856},{"name":"E4","midi":64,"time":104.64583333333294,"velocity":0.8031496062992126,"duration":0.15416666666666856},{"name":"G3","midi":55,"time":104.64791666666628,"velocity":0.8031496062992126,"duration":0.15208333333333712},{"name":"C#4","midi":61,"time":104.80208333333294,"velocity":0.8031496062992126,"duration":0.6270833333333456},{"name":"F4","midi":65,"time":104.80208333333294,"velocity":0.8031496062992126,"duration":0.05833333333333712},{"name":"A3","midi":57,"time":104.80416666666628,"velocity":0.8031496062992126,"duration":0.32500000000001705},{"name":"E4","midi":64,"time":104.86249999999961,"velocity":0.8031496062992126,"duration":0.05833333333333712},{"name":"F4","midi":65,"time":104.92291666666628,"velocity":0.8031496062992126,"duration":0.05833333333333712},{"name":"E4","midi":64,"time":104.98124999999962,"velocity":0.8031496062992126,"duration":0.06041666666666856},{"name":"F4","midi":65,"time":105.04166666666629,"velocity":0.8031496062992126,"duration":0.06041666666666856},{"name":"E4","midi":64,"time":105.10416666666629,"velocity":0.8031496062992126,"duration":0.17500000000001137},{"name":"A2","midi":45,"time":105.1291666666663,"velocity":0.8031496062992126,"duration":0.2979166666666657},{"name":"D4","midi":62,"time":105.2791666666663,"velocity":0.8031496062992126,"duration":0.14791666666666003},{"name":"D4","midi":62,"time":105.42916666666629,"velocity":0.8031496062992126,"duration":0.5458333333333485},{"name":"D2","midi":38,"time":105.43124999999962,"velocity":0.8031496062992126,"duration":0.543750000000017},{"name":"E4","midi":64,"time":105.56458333333296,"velocity":0.8031496062992126,"duration":0.13333333333333997},{"name":"F4","midi":65,"time":105.6979166666663,"velocity":0.8031496062992126,"duration":0.13750000000000284},{"name":"G4","midi":67,"time":105.8354166666663,"velocity":0.8031496062992126,"duration":0.13750000000000284},{"name":"A4","midi":69,"time":105.97499999999964,"velocity":0.7716535433070866,"duration":0.13750000000000284},{"name":"D3","midi":50,"time":105.97708333333297,"velocity":0.8031496062992126,"duration":0.27291666666667425},{"name":"A#4","midi":70,"time":106.11458333333297,"velocity":0.7716535433070866,"duration":0.1354166666666714},{"name":"C5","midi":72,"time":106.24999999999964,"velocity":0.7716535433070866,"duration":0.1354166666666714},{"name":"D#3","midi":51,"time":106.25208333333298,"velocity":0.8031496062992126,"duration":0.2708333333333428},{"name":"A#4","midi":70,"time":106.38541666666632,"velocity":0.7716535433070866,"duration":0.1354166666666714},{"name":"C5","midi":72,"time":106.52291666666632,"velocity":0.7716535433070866,"duration":0.1354166666666714},{"name":"D3","midi":50,"time":106.52499999999965,"velocity":0.8031496062992126,"duration":0.27291666666667425},{"name":"D5","midi":74,"time":106.66041666666632,"velocity":0.7716535433070866,"duration":0.13750000000000284},{"name":"D#5","midi":75,"time":106.79999999999966,"velocity":0.7716535433070866,"duration":0.13333333333333997},{"name":"C3","midi":48,"time":106.79999999999966,"velocity":0.8031496062992126,"duration":0.27291666666667425},{"name":"D5","midi":74,"time":106.933333333333,"velocity":0.7716535433070866,"duration":0.13750000000000284},{"name":"G4","midi":67,"time":107.07291666666633,"velocity":0.8031496062992126,"duration":0.04999999999999716},{"name":"D3","midi":50,"time":107.07499999999966,"velocity":0.8031496062992126,"duration":0.27916666666665435},{"name":"F#4","midi":66,"time":107.12499999999966,"velocity":0.8031496062992126,"duration":0.04999999999999716},{"name":"G4","midi":67,"time":107.17499999999966,"velocity":0.8031496062992126,"duration":0.052083333333328596},{"name":"E4","midi":64,"time":107.21249999999965,"velocity":0.8031496062992126,"duration":0.13958333333333428},{"name":"D4","midi":62,"time":107.35416666666632,"velocity":0.8031496062992126,"duration":0.13750000000000284},{"name":"F#2","midi":42,"time":107.35624999999965,"velocity":0.8031496062992126,"duration":0.1354166666666714},{"name":"E4","midi":64,"time":107.49374999999965,"velocity":0.8031496062992126,"duration":0.13750000000000284},{"name":"G2","midi":43,"time":107.49374999999965,"velocity":0.8031496062992126,"duration":0.13750000000000284},{"name":"F#4","midi":66,"time":107.63333333333298,"velocity":0.8031496062992126,"duration":0.13750000000000284},{"name":"D4","midi":62,"time":107.63333333333298,"velocity":0.8031496062992126,"duration":0.2770833333333371},{"name":"A2","midi":45,"time":107.63541666666632,"velocity":0.8031496062992126,"duration":0.1354166666666714},{"name":"G4","midi":67,"time":107.77291666666632,"velocity":0.8031496062992126,"duration":0.1354166666666714},{"name":"A#2","midi":46,"time":107.77291666666632,"velocity":0.8031496062992126,"duration":0.1354166666666714},{"name":"A4","midi":69,"time":107.91041666666632,"velocity":0.7716535433070866,"duration":0.9541666666666657},{"name":"D#4","midi":63,"time":107.91041666666632,"velocity":0.8031496062992126,"duration":0.27291666666667425},{"name":"C3","midi":48,"time":107.91249999999965,"velocity":0.8031496062992126,"duration":0.13333333333333997},{"name":"A#2","midi":46,"time":108.045833333333,"velocity":0.8031496062992126,"duration":0.1354166666666714},{"name":"D3","midi":50,"time":108.183333333333,"velocity":0.8031496062992126,"duration":0.14166666666666572},{"name":"D4","midi":62,"time":108.18541666666633,"velocity":0.8031496062992126,"duration":0.2854166666666629},{"name":"C3","midi":48,"time":108.327083333333,"velocity":0.8031496062992126,"duration":0.14374999999999716},{"name":"C4","midi":60,"time":108.47291666666632,"velocity":0.8031496062992126,"duration":0.2770833333333371},{"name":"A#2","midi":46,"time":108.47291666666632,"velocity":0.8031496062992126,"duration":0.13750000000000284},{"name":"A2","midi":45,"time":108.61041666666632,"velocity":0.8031496062992126,"duration":0.13958333333333428},{"name":"D4","midi":62,"time":108.75208333333299,"velocity":0.8031496062992126,"duration":0.27291666666666003},{"name":"A#2","midi":46,"time":108.75208333333299,"velocity":0.8031496062992126,"duration":0.2708333333333286},{"name":"G4","midi":67,"time":108.88541666666632,"velocity":0.8031496062992126,"duration":0.13750000000000284},{"name":"A4","midi":69,"time":109.02499999999965,"velocity":0.7716535433070866,"duration":0.13750000000000284},{"name":"F#3","midi":54,"time":109.02499999999965,"velocity":0.8031496062992126,"duration":0.13750000000000284},{"name":"A#4","midi":70,"time":109.16458333333298,"velocity":0.7716535433070866,"duration":0.1354166666666714},{"name":"G3","midi":55,"time":109.16458333333298,"velocity":0.8031496062992126,"duration":0.1354166666666714},{"name":"C5","midi":72,"time":109.30208333333299,"velocity":0.7716535433070866,"duration":0.13750000000000284},{"name":"A3","midi":57,"time":109.30208333333299,"velocity":0.8031496062992126,"duration":0.1354166666666714},{"name":"D5","midi":74,"time":109.43958333333299,"velocity":0.7716535433070866,"duration":0.13750000000000284},{"name":"A#3","midi":58,"time":109.44166666666632,"velocity":0.8031496062992126,"duration":0.13333333333333997},{"name":"D#5","midi":75,"time":109.577083333333,"velocity":0.7716535433070866,"duration":0.2770833333333371},{"name":"C4","midi":60,"time":109.57916666666632,"velocity":0.8031496062992126,"duration":0.1354166666666714},{"name":"F#3","midi":54,"time":109.57916666666632,"velocity":0.8031496062992126,"duration":0.27291666666667425},{"name":"A#3","midi":58,"time":109.714583333333,"velocity":0.8031496062992126,"duration":0.13750000000000284},{"name":"D5","midi":74,"time":109.85416666666633,"velocity":0.7716535433070866,"duration":0.2750000000000057},{"name":"D4","midi":62,"time":109.85624999999966,"velocity":0.8031496062992126,"duration":0.13333333333333997},{"name":"C4","midi":60,"time":109.99166666666633,"velocity":0.8031496062992126,"duration":0.1354166666666714},{"name":"C5","midi":72,"time":110.12916666666634,"velocity":0.7716535433070866,"duration":0.27291666666667425},{"name":"A#3","midi":58,"time":110.13124999999967,"velocity":0.8031496062992126,"duration":0.13333333333333997},{"name":"A3","midi":57,"time":110.26458333333301,"velocity":0.8031496062992126,"duration":0.13750000000000284},{"name":"D5","midi":74,"time":110.40416666666634,"velocity":0.7716535433070866,"duration":0.2750000000000057},{"name":"A#3","midi":58,"time":110.40416666666634,"velocity":0.8031496062992126,"duration":0.1354166666666714},{"name":"G3","midi":55,"time":110.40624999999967,"velocity":0.8031496062992126,"duration":0.27291666666667425},{"name":"D4","midi":62,"time":110.54166666666634,"velocity":0.8031496062992126,"duration":0.1354166666666714},{"name":"F#4","midi":66,"time":110.68124999999968,"velocity":0.8031496062992126,"duration":0.13750000000000284},{"name":"C4","midi":60,"time":110.68124999999968,"velocity":0.8031496062992126,"duration":0.13750000000000284},{"name":"G4","midi":67,"time":110.82083333333301,"velocity":0.8031496062992126,"duration":0.13333333333333997},{"name":"A#3","midi":58,"time":110.82083333333301,"velocity":0.8031496062992126,"duration":0.13333333333333997},{"name":"A4","midi":69,"time":110.95624999999968,"velocity":0.7716535433070866,"duration":0.1354166666666714},{"name":"A3","midi":57,"time":110.95624999999968,"velocity":0.8031496062992126,"duration":0.13333333333333997},{"name":"A#4","midi":70,"time":111.09166666666636,"velocity":0.7716535433070866,"duration":0.1354166666666572},{"name":"G3","midi":55,"time":111.09374999999969,"velocity":0.8031496062992126,"duration":0.13124999999999432},{"name":"C5","midi":72,"time":111.22708333333301,"velocity":0.7716535433070866,"duration":0.1354166666666714},{"name":"F#3","midi":54,"time":111.22916666666634,"velocity":0.8031496062992126,"duration":0.26875000000001137},{"name":"D#3","midi":51,"time":111.22916666666634,"velocity":0.8031496062992126,"duration":0.26875000000001137},{"name":"A#4","midi":70,"time":111.36249999999968,"velocity":0.7716535433070866,"duration":0.13333333333333997},{"name":"D5","midi":74,"time":111.49999999999969,"velocity":0.7716535433070866,"duration":0.13124999999999432},{"name":"C5","midi":72,"time":111.63333333333301,"velocity":0.7716535433070866,"duration":0.13333333333333997},{"name":"A#4","midi":70,"time":111.76666666666635,"velocity":0.7716535433070866,"duration":0.1354166666666714},{"name":"A4","midi":69,"time":111.90208333333302,"velocity":0.7716535433070866,"duration":0.1354166666666714},{"name":"A#4","midi":70,"time":112.03958333333303,"velocity":0.7716535433070866,"duration":0.1354166666666714},{"name":"G3","midi":55,"time":112.03958333333303,"velocity":0.8031496062992126,"duration":0.1354166666666714},{"name":"D3","midi":50,"time":112.04166666666636,"velocity":0.8031496062992126,"duration":0.2708333333333428},{"name":"F#4","midi":66,"time":112.1749999999997,"velocity":0.8031496062992126,"duration":0.1354166666666714},{"name":"A3","midi":57,"time":112.17708333333303,"velocity":0.8031496062992126,"duration":0.13333333333333997},{"name":"G4","midi":67,"time":112.3124999999997,"velocity":0.8031496062992126,"duration":0.1354166666666714},{"name":"A#3","midi":58,"time":112.31458333333303,"velocity":0.8031496062992126,"duration":0.13333333333333997},{"name":"A4","midi":69,"time":112.44791666666637,"velocity":0.7716535433070866,"duration":0.1354166666666714},{"name":"C4","midi":60,"time":112.4499999999997,"velocity":0.8031496062992126,"duration":0.13333333333333997},{"name":"A#4","midi":70,"time":112.58541666666638,"velocity":0.7716535433070866,"duration":0.1354166666666714},{"name":"D4","midi":62,"time":112.58541666666638,"velocity":0.8031496062992126,"duration":0.13333333333333997},{"name":"C#5","midi":73,"time":112.72083333333305,"velocity":0.7716535433070866,"duration":0.1354166666666714},{"name":"A3","midi":57,"time":112.72083333333305,"velocity":0.8031496062992126,"duration":0.1354166666666714},{"name":"D5","midi":74,"time":112.85833333333305,"velocity":0.7716535433070866,"duration":0.13333333333332575},{"name":"A#3","midi":58,"time":112.86041666666638,"velocity":0.8031496062992126,"duration":0.2749999999999915},{"name":"G5","midi":79,"time":112.99166666666638,"velocity":0.7480314960629921,"duration":0.14166666666666572},{"name":"C3","midi":48,"time":112.99166666666638,"velocity":0.8031496062992126,"duration":0.14166666666666572},{"name":"C5","midi":72,"time":113.13541666666637,"velocity":0.7480314960629921,"duration":0.05833333333333712},{"name":"G3","midi":55,"time":113.1374999999997,"velocity":0.8031496062992126,"duration":0.32083333333332575},{"name":"D3","midi":50,"time":113.1374999999997,"velocity":0.8031496062992126,"duration":0.3187499999999943},{"name":"A#4","midi":70,"time":113.19583333333304,"velocity":0.7480314960629921,"duration":0.0625},{"name":"C5","midi":72,"time":113.25833333333304,"velocity":0.7480314960629921,"duration":0.0625},{"name":"A#4","midi":70,"time":113.32083333333304,"velocity":0.7480314960629921,"duration":0.054166666666660035},{"name":"C5","midi":72,"time":113.37708333333303,"velocity":0.7480314960629921,"duration":0.056250000000005684},{"name":"A#4","midi":70,"time":113.43333333333304,"velocity":0.7480314960629921,"duration":0.052083333333328596},{"name":"A4","midi":69,"time":113.45833333333303,"velocity":0.7716535433070866,"duration":0.14374999999999716},{"name":"D3","midi":50,"time":113.46041666666636,"velocity":0.8031496062992126,"duration":0.28333333333333144},{"name":"F#3","midi":54,"time":113.46041666666636,"velocity":0.8031496062992126,"duration":0.2854166666666629},{"name":"G4","midi":67,"time":113.60416666666636,"velocity":0.8031496062992126,"duration":0.13958333333333428},{"name":"G4","midi":67,"time":113.74583333333302,"velocity":0.8031496062992126,"duration":0.28125},{"name":"G3","midi":55,"time":113.74791666666636,"velocity":0.8031496062992126,"duration":0.1354166666666714},{"name":"G2","midi":43,"time":113.74791666666636,"velocity":0.8031496062992126,"duration":0.2770833333333371},{"name":"D4","midi":62,"time":113.88333333333303,"velocity":0.8031496062992126,"duration":0.14166666666666572},{"name":"A#4","midi":70,"time":114.02708333333302,"velocity":0.7716535433070866,"duration":0.6666666666666714},{"name":"G4","midi":67,"time":114.02916666666636,"velocity":0.8031496062992126,"duration":0.1354166666666714},{"name":"A2","midi":45,"time":114.02916666666636,"velocity":0.8031496062992126,"duration":0.2770833333333371},{"name":"F4","midi":65,"time":114.16666666666636,"velocity":0.8031496062992126,"duration":0.13750000000000284},{"name":"D#4","midi":63,"time":114.3062499999997,"velocity":0.8031496062992126,"duration":0.13750000000000284},{"name":"A#2","midi":46,"time":114.30833333333302,"velocity":0.8031496062992126,"duration":0.27291666666667425},{"name":"D4","midi":62,"time":114.4437499999997,"velocity":0.8031496062992126,"duration":0.13750000000000284},{"name":"D#4","midi":63,"time":114.58333333333303,"velocity":0.8031496062992126,"duration":0.8166666666666771},{"name":"C3","midi":48,"time":114.58333333333303,"velocity":0.8031496062992126,"duration":0.26874999999999716},{"name":"G4","midi":67,"time":114.71458333333302,"velocity":0.8031496062992126,"duration":0.1354166666666714},{"name":"C5","midi":72,"time":114.85208333333303,"velocity":0.7716535433070866,"duration":0.1354166666666714},{"name":"D3","midi":50,"time":114.85416666666636,"velocity":0.8031496062992126,"duration":0.2708333333333428},{"name":"A#4","midi":70,"time":114.9874999999997,"velocity":0.7716535433070866,"duration":0.1354166666666714},{"name":"A4","midi":69,"time":115.1249999999997,"velocity":0.7716535433070866,"duration":0.1354166666666714},{"name":"E3","midi":52,"time":115.1249999999997,"velocity":0.8031496062992126,"duration":0.27291666666667425},{"name":"G4","midi":67,"time":115.2624999999997,"velocity":0.8031496062992126,"duration":0.1354166666666714},{"name":"A4","midi":69,"time":115.39999999999971,"velocity":0.7716535433070866,"duration":0.9312500000000199},{"name":"F3","midi":53,"time":115.39999999999971,"velocity":0.8031496062992126,"duration":0.2708333333333428},{"name":"C4","midi":60,"time":115.53333333333305,"velocity":0.8031496062992126,"duration":0.1354166666666714},{"name":"G3","midi":55,"time":115.67083333333305,"velocity":0.8031496062992126,"duration":0.27291666666667425},{"name":"F4","midi":65,"time":115.67291666666638,"velocity":0.8031496062992126,"duration":0.13333333333333997},{"name":"D#4","midi":63,"time":115.80833333333305,"velocity":0.8031496062992126,"duration":0.1354166666666714},{"name":"D4","midi":62,"time":115.94583333333306,"velocity":0.8031496062992126,"duration":0.1354166666666714},{"name":"A3","midi":57,"time":115.94583333333306,"velocity":0.8031496062992126,"duration":0.2750000000000057},{"name":"C4","midi":60,"time":116.08124999999973,"velocity":0.8031496062992126,"duration":0.13750000000000284},{"name":"A#3","midi":58,"time":116.22083333333306,"velocity":0.8031496062992126,"duration":0.94583333333334},{"name":"D4","midi":62,"time":116.22291666666639,"velocity":0.8031496062992126,"duration":0.8041666666666742},{"name":"F4","midi":65,"time":116.35208333333306,"velocity":0.8031496062992126,"duration":0.13750000000000284},{"name":"A#4","midi":70,"time":116.48958333333306,"velocity":0.7716535433070866,"duration":0.1354166666666714},{"name":"A4","midi":69,"time":116.62499999999973,"velocity":0.7716535433070866,"duration":0.13333333333333997},{"name":"G4","midi":67,"time":116.7604166666664,"velocity":0.8031496062992126,"duration":0.13124999999999432},{"name":"F4","midi":65,"time":116.8916666666664,"velocity":0.8031496062992126,"duration":0.1354166666666714},{"name":"C4","midi":60,"time":117.0291666666664,"velocity":0.8031496062992126,"duration":0.2750000000000057},{"name":"E4","midi":64,"time":117.0291666666664,"velocity":0.8031496062992126,"duration":0.2750000000000057},{"name":"G3","midi":55,"time":117.1666666666664,"velocity":0.8031496062992126,"duration":0.13750000000000284},{"name":"D4","midi":62,"time":117.30624999999974,"velocity":0.8031496062992126,"duration":0.26874999999999716},{"name":"F4","midi":65,"time":117.30624999999974,"velocity":0.8031496062992126,"duration":0.2708333333333286},{"name":"C4","midi":60,"time":117.30833333333307,"velocity":0.8031496062992126,"duration":0.13124999999999432},{"name":"A#3","midi":58,"time":117.44166666666639,"velocity":0.8031496062992126,"duration":0.13333333333333997},{"name":"G4","midi":67,"time":117.57708333333306,"velocity":0.8031496062992126,"duration":0.2750000000000057},{"name":"D#4","midi":63,"time":117.5791666666664,"velocity":0.8031496062992126,"duration":0.2708333333333428},{"name":"A3","midi":57,"time":117.5791666666664,"velocity":0.8031496062992126,"duration":0.13333333333333997},{"name":"G3","midi":55,"time":117.71249999999974,"velocity":0.8031496062992126,"duration":0.13750000000000284},{"name":"A4","midi":69,"time":117.85208333333307,"velocity":0.7716535433070866,"duration":0.2708333333333286},{"name":"F4","midi":65,"time":117.8541666666664,"velocity":0.8031496062992126,"duration":0.2666666666666657},{"name":"F3","midi":53,"time":117.8541666666664,"velocity":0.8031496062992126,"duration":0.12916666666666288},{"name":"C3","midi":48,"time":117.98333333333306,"velocity":0.8031496062992126,"duration":0.13750000000000284},{"name":"A#4","midi":70,"time":118.1229166666664,"velocity":0.7716535433070866,"duration":0.2708333333333286},{"name":"G4","midi":67,"time":118.12499999999973,"velocity":0.8031496062992126,"duration":0.26874999999999716},{"name":"F3","midi":53,"time":118.12499999999973,"velocity":0.8031496062992126,"duration":0.13124999999999432},{"name":"D#3","midi":51,"time":118.25624999999972,"velocity":0.8031496062992126,"duration":0.1354166666666714},{"name":"A4","midi":69,"time":118.39583333333306,"velocity":0.7716535433070866,"duration":0.26874999999999716},{"name":"C5","midi":72,"time":118.39583333333306,"velocity":0.7716535433070866,"duration":0.2708333333333286},{"name":"D3","midi":50,"time":118.39791666666639,"velocity":0.8031496062992126,"duration":0.12916666666666288},{"name":"C3","midi":48,"time":118.52916666666638,"velocity":0.8031496062992126,"duration":0.1354166666666714},{"name":"A#4","midi":70,"time":118.66666666666639,"velocity":0.7716535433070866,"duration":0.9104166666666487},{"name":"D5","midi":74,"time":118.66874999999972,"velocity":0.7716535433070866,"duration":0.26458333333332007},{"name":"A#2","midi":46,"time":118.66874999999972,"velocity":0.8031496062992126,"duration":0.12916666666666288},{"name":"C3","midi":48,"time":118.79999999999971,"velocity":0.8031496062992126,"duration":0.13124999999999432},{"name":"E5","midi":76,"time":118.93333333333304,"velocity":0.7480314960629921,"duration":0.2666666666666657},{"name":"A#2","midi":46,"time":118.93541666666637,"velocity":0.8031496062992126,"duration":0.13124999999999432},{"name":"A2","midi":45,"time":119.06666666666636,"velocity":0.8031496062992126,"duration":0.13333333333333997},{"name":"F5","midi":77,"time":119.20208333333304,"velocity":0.7480314960629921,"duration":0.2666666666666657},{"name":"G2","midi":43,"time":119.20208333333304,"velocity":0.8031496062992126,"duration":0.13124999999999432},{"name":"F2","midi":41,"time":119.33541666666636,"velocity":0.8031496062992126,"duration":0.13333333333333997},{"name":"G5","midi":79,"time":119.47083333333303,"velocity":0.7480314960629921,"duration":0.9124999999999801},{"name":"E2","midi":40,"time":119.47083333333303,"velocity":0.8031496062992126,"duration":0.5291666666666544},{"name":"G4","midi":67,"time":119.5999999999997,"velocity":0.8031496062992126,"duration":0.13124999999999432},{"name":"C5","midi":72,"time":119.73333333333302,"velocity":0.7716535433070866,"duration":0.13124999999999432},{"name":"A#4","midi":70,"time":119.86458333333302,"velocity":0.7716535433070866,"duration":0.1354166666666714},{"name":"A4","midi":69,"time":120.00208333333302,"velocity":0.7716535433070866,"duration":0.13124999999999432},{"name":"G4","midi":67,"time":120.13541666666634,"velocity":0.8031496062992126,"duration":0.1354166666666714},{"name":"A4","midi":69,"time":120.27083333333302,"velocity":0.7716535433070866,"duration":1.075000000000017},{"name":"F2","midi":41,"time":120.27291666666635,"velocity":0.8031496062992126,"duration":0.2666666666666657},{"name":"C5","midi":72,"time":120.40624999999967,"velocity":0.7716535433070866,"duration":0.14791666666667425},{"name":"F5","midi":77,"time":120.54166666666634,"velocity":0.7480314960629921,"duration":0.14375000000001137},{"name":"G2","midi":43,"time":120.54166666666634,"velocity":0.8031496062992126,"duration":0.2645833333333485},{"name":"D#5","midi":75,"time":120.67499999999968,"velocity":0.7716535433070866,"duration":0.1458333333333428},{"name":"D5","midi":74,"time":120.8062499999997,"velocity":0.7716535433070866,"duration":0.1458333333333286},{"name":"A2","midi":45,"time":120.80833333333302,"velocity":0.8031496062992126,"duration":0.2645833333333343},{"name":"C5","midi":72,"time":120.93749999999969,"velocity":0.7716535433070866,"duration":0.14791666666667425},{"name":"D5","midi":74,"time":121.07291666666636,"velocity":0.7716535433070866,"duration":0.15000000000000568},{"name":"A#2","midi":46,"time":121.07499999999969,"velocity":0.8031496062992126,"duration":0.543750000000017},{"name":"C5","midi":72,"time":121.21041666666636,"velocity":0.7716535433070866,"duration":0.15000000000000568},{"name":"D#5","midi":75,"time":121.34791666666636,"velocity":0.7716535433070866,"duration":0.13333333333333997},{"name":"D4","midi":62,"time":121.34791666666636,"velocity":0.8031496062992126,"duration":0.26875000000001137},{"name":"D5","midi":74,"time":121.48333333333304,"velocity":0.7716535433070866,"duration":0.1458333333333428},{"name":"C5","midi":72,"time":121.61874999999971,"velocity":0.7716535433070866,"duration":0.14791666666667425},{"name":"G4","midi":67,"time":121.62083333333304,"velocity":0.8031496062992126,"duration":0.3854166666666856},{"name":"A#4","midi":70,"time":121.75208333333305,"velocity":0.7716535433070866,"duration":0.14791666666667425},{"name":"C5","midi":72,"time":121.88749999999972,"velocity":0.7716535433070866,"duration":0.2979166666666657},{"name":"A2","midi":45,"time":121.88958333333305,"velocity":0.8031496062992126,"duration":0.5416666666666714},{"name":"F4","midi":65,"time":122.02499999999972,"velocity":0.8031496062992126,"duration":0.13124999999999432},{"name":"A#4","midi":70,"time":122.16041666666638,"velocity":0.7716535433070866,"duration":0.11458333333334281},{"name":"E4","midi":64,"time":122.16041666666638,"velocity":0.7559055118110236,"duration":0.13125000000000853},{"name":"A4","midi":69,"time":122.29583333333305,"velocity":0.7716535433070866,"duration":0.15000000000000568},{"name":"F4","midi":65,"time":122.29583333333305,"velocity":0.7559055118110236,"duration":0.13333333333333997},{"name":"G4","midi":67,"time":122.43333333333305,"velocity":0.7716535433070866,"duration":0.13125000000000853},{"name":"A4","midi":69,"time":122.56666666666639,"velocity":0.7716535433070866,"duration":0.13750000000000284},{"name":"F4","midi":65,"time":122.56666666666639,"velocity":0.8031496062992126,"duration":0.1354166666666714},{"name":"A#4","midi":70,"time":122.70624999999973,"velocity":0.7716535433070866,"duration":0.1354166666666714},{"name":"G4","midi":67,"time":122.70624999999973,"velocity":0.8031496062992126,"duration":0.2958333333333485},{"name":"G2","midi":43,"time":122.70624999999973,"velocity":0.8031496062992126,"duration":0.5416666666666856},{"name":"A4","midi":69,"time":122.8416666666664,"velocity":0.7716535433070866,"duration":0.14791666666667425},{"name":"C5","midi":72,"time":122.97708333333307,"velocity":0.7716535433070866,"duration":0.14791666666667425},{"name":"A#3","midi":58,"time":122.97708333333307,"velocity":0.8031496062992126,"duration":0.13333333333333997},{"name":"A#4","midi":70,"time":123.11249999999974,"velocity":0.7716535433070866,"duration":0.13333333333333997},{"name":"C4","midi":60,"time":123.11249999999974,"velocity":0.8031496062992126,"duration":0.13333333333333997},{"name":"A4","midi":69,"time":123.24791666666641,"velocity":0.7716535433070866,"duration":0.13124999999999432},{"name":"D4","midi":62,"time":123.24999999999974,"velocity":0.8031496062992126,"duration":0.12916666666666288},{"name":"E4","midi":64,"time":123.38124999999974,"velocity":0.8031496062992126,"duration":0.13124999999999432},{"name":"G4","midi":67,"time":123.38124999999974,"velocity":0.8031496062992126,"duration":0.13333333333332575},{"name":"A4","midi":69,"time":123.51458333333306,"velocity":0.7716535433070866,"duration":0.1354166666666714},{"name":"F4","midi":65,"time":123.5166666666664,"velocity":0.8031496062992126,"duration":1.356250000000017},{"name":"F2","midi":41,"time":123.5166666666664,"velocity":0.8031496062992126,"duration":0.26875000000001137},{"name":"G4","midi":67,"time":123.64999999999974,"velocity":0.8031496062992126,"duration":0.1354166666666714},{"name":"A#4","midi":70,"time":123.78749999999974,"velocity":0.7716535433070866,"duration":0.13124999999999432},{"name":"G2","midi":43,"time":123.78749999999974,"velocity":0.8031496062992126,"duration":0.26874999999999716},{"name":"A4","midi":69,"time":123.92083333333306,"velocity":0.7716535433070866,"duration":0.13333333333333997},{"name":"C5","midi":72,"time":124.05624999999974,"velocity":0.7716535433070866,"duration":0.13333333333332575},{"name":"A2","midi":45,"time":124.05833333333307,"velocity":0.8031496062992126,"duration":0.2666666666666657},{"name":"A#4","midi":70,"time":124.18958333333306,"velocity":0.7716535433070866,"duration":0.1354166666666714},{"name":"D5","midi":74,"time":124.32708333333306,"velocity":0.7716535433070866,"duration":0.13333333333333997},{"name":"A#2","midi":46,"time":124.32708333333306,"velocity":0.8031496062992126,"duration":0.2708333333333428},{"name":"C5","midi":72,"time":124.46249999999974,"velocity":0.7716535433070866,"duration":0.1354166666666714},{"name":"E5","midi":76,"time":124.59999999999974,"velocity":0.7480314960629921,"duration":0.13333333333333997},{"name":"C3","midi":48,"time":124.59999999999974,"velocity":0.8031496062992126,"duration":0.27291666666667425},{"name":"D5","midi":74,"time":124.73333333333308,"velocity":0.7716535433070866,"duration":0.13750000000000284},{"name":"F5","midi":77,"time":124.87499999999974,"velocity":0.7480314960629921,"duration":0.13124999999999432},{"name":"D3","midi":50,"time":124.87499999999974,"velocity":0.8031496062992126,"duration":0.26874999999999716},{"name":"A#3","midi":58,"time":124.87499999999974,"velocity":0.8031496062992126,"duration":0.5416666666666714},{"name":"E5","midi":76,"time":125.00833333333307,"velocity":0.7480314960629921,"duration":0.1354166666666714},{"name":"G5","midi":79,"time":125.14583333333307,"velocity":0.7480314960629921,"duration":0.13333333333333997},{"name":"E3","midi":52,"time":125.14583333333307,"velocity":0.8031496062992126,"duration":0.2708333333333428},{"name":"A4","midi":69,"time":125.27916666666641,"velocity":0.7716535433070866,"duration":0.1354166666666714},{"name":"A#4","midi":70,"time":125.41874999999975,"velocity":0.7716535433070866,"duration":0.15416666666666856},{"name":"E4","midi":64,"time":125.41874999999975,"velocity":0.8031496062992126,"duration":0.3083333333333371},{"name":"C3","midi":48,"time":125.42083333333308,"velocity":0.8031496062992126,"duration":0.30416666666667425},{"name":"G4","midi":67,"time":125.57291666666642,"velocity":0.8031496062992126,"duration":0.15208333333333712},{"name":"A4","midi":69,"time":125.72708333333308,"velocity":0.7716535433070866,"duration":0.4791666666666572},{"name":"F3","midi":53,"time":125.72916666666642,"velocity":0.8031496062992126,"duration":0.31458333333333144},{"name":"F4","midi":65,"time":125.72916666666642,"velocity":0.8031496062992126,"duration":0.643749999999983},{"name":"A#2","midi":46,"time":126.04374999999975,"velocity":0.8031496062992126,"duration":0.3291666666666515},{"name":"A#4","midi":70,"time":126.20833333333307,"velocity":0.7716535433070866,"duration":0.16249999999999432},{"name":"A4","midi":69,"time":126.37499999999973,"velocity":0.7716535433070866,"duration":0.0625},{"name":"E4","midi":64,"time":126.37499999999973,"velocity":0.8031496062992126,"duration":0.5249999999999773},{"name":"C3","midi":48,"time":126.37499999999973,"velocity":0.8031496062992126,"duration":0.3333333333333144},{"name":"G4","midi":67,"time":126.43124999999974,"velocity":0.8031496062992126,"duration":0.06666666666666288},{"name":"A4","midi":69,"time":126.49374999999974,"velocity":0.7716535433070866,"duration":0.06458333333331723},{"name":"G4","midi":67,"time":126.55208333333306,"velocity":0.8031496062992126,"duration":0.07083333333332575},{"name":"A4","midi":69,"time":126.61666666666639,"velocity":0.7716535433070866,"duration":0.07083333333332575},{"name":"G4","midi":67,"time":126.68124999999972,"velocity":0.8031496062992126,"duration":0.2187499999999858},{"name":"C2","midi":36,"time":126.71041666666638,"velocity":0.8031496062992126,"duration":0.4166666666666714},{"name":"F4","midi":65,"time":126.90833333333305,"velocity":0.8031496062992126,"duration":0.21875},{"name":"F4","midi":65,"time":127.12916666666638,"velocity":0.8031496062992126,"duration":2.7687500000000114},{"name":"F2","midi":41,"time":127.12916666666638,"velocity":0.8031496062992126,"duration":2.76666666666668}],"controlChanges":{"7":[{"number":7,"time":0,"value":0.8267716535433071},{"number":7,"time":0,"value":0.8661417322834646},{"number":7,"time":0,"value":0.8661417322834646}],"10":[{"number":10,"time":0,"value":0.5039370078740157},{"number":10,"time":0,"value":0.3779527559055118},{"number":10,"time":0,"value":0.3700787401574803},{"number":10,"time":3.625,"value":0.6220472440944882},{"number":10,"time":3.627083333333333,"value":0.47244094488188976},{"number":10,"time":3.6541666666666663,"value":0.5905511811023622},{"number":10,"time":3.739583333333333,"value":0.5275590551181102},{"number":10,"time":3.7499999999999996,"value":0.4566929133858268},{"number":10,"time":3.789583333333333,"value":0.4330708661417323},{"number":10,"time":3.827083333333333,"value":0.4645669291338583},{"number":10,"time":3.8458333333333328,"value":0.5196850393700787},{"number":10,"time":3.8874999999999993,"value":0.5826771653543307}],"64":[{"number":64,"time":133.77708333333305,"value":0},{"number":64,"time":133.77916666666638,"value":0},{"number":64,"time":133.78124999999972,"value":0},{"number":64,"time":133.83124999999973,"value":0},{"number":64,"time":133.83333333333306,"value":0},{"number":64,"time":133.8354166666664,"value":0}]},"id":0,"name":"--------","instrumentNumber":0,"instrument":"acoustic grand piano","instrumentFamily":"piano","channelNumber":0,"isPercussion":false}]}