{"header":{"PPQ":384,"timeSignature":[4,4],"bpm":120,"name":"--------"},"startTime":0,"duration":380.79817708333155,"tracks":[{"startTime":0,"duration":0,"length":0,"notes":[],"controlChanges":{},"id":0,"name":"--------"},{"startTime":0.08333333333333333,"duration":380.79817708333155,"length":2129,"notes":[{"name":"A#4","midi":70,"time":0.08333333333333333,"velocity":0.7637795275590551,"duration":0.16796875},{"name":"D#4","midi":63,"time":0.08333333333333333,"velocity":0.7637795275590551,"duration":1.0963541666666667},{"name":"G#4","midi":68,"time":0.25,"velocity":0.7637795275590551,"duration":0.16796874999999994},{"name":"A#4","midi":70,"time":0.41666666666666663,"velocity":0.7637795275590551,"duration":0.16796875},{"name":"F#4","midi":66,"time":0.41666666666666663,"velocity":0.7637795275590551,"duration":0.9114583333333334},{"name":"G#4","midi":68,"time":0.5833333333333333,"velocity":0.7637795275590551,"duration":0.1679687500000001},{"name":"A#4","midi":70,"time":0.75,"velocity":0.7637795275590551,"duration":1.2434895833333335},{"name":"D#4","midi":63,"time":1.1927083333333333,"velocity":0.7637795275590551,"duration":1.0963541666666667},{"name":"F#4","midi":66,"time":1.4322916666666667,"velocity":0.7637795275590551,"duration":1.0468750000000002},{"name":"A#4","midi":70,"time":2.0247395833333335,"velocity":0.7637795275590551,"duration":0.2721354166666665},{"name":"D#5","midi":75,"time":2.3020833333333335,"velocity":0.7637795275590551,"duration":0.828125},{"name":"D#4","midi":63,"time":2.3020833333333335,"velocity":0.7637795275590551,"duration":1.096354166666667},{"name":"F#4","midi":66,"time":2.5052083333333335,"velocity":0.7637795275590551,"duration":1.067708333333334},{"name":"F#5","midi":78,"time":3.135416666666667,"velocity":0.7637795275590551,"duration":0.27213541666666696},{"name":"B4","midi":71,"time":3.4127604166666674,"velocity":0.7637795275590551,"duration":0.16796875},{"name":"D#4","midi":63,"time":3.4127604166666674,"velocity":0.7637795275590551,"duration":1.0963541666666665},{"name":"A#4","midi":70,"time":3.585937500000001,"velocity":0.7637795275590551,"duration":0.16796875},{"name":"G#4","midi":68,"time":3.585937500000001,"velocity":0.7637795275590551,"duration":1.096354166666666},{"name":"B4","midi":71,"time":3.7591145833333344,"velocity":0.7637795275590551,"duration":0.16796875},{"name":"A#4","midi":70,"time":3.933593750000001,"velocity":0.7637795275590551,"duration":0.16796875},{"name":"B4","midi":71,"time":4.106770833333334,"velocity":0.7637795275590551,"duration":0.7499999999999991},{"name":"D#4","midi":63,"time":4.522135416666667,"velocity":0.7637795275590551,"duration":1.0963541666666652},{"name":"G#4","midi":68,"time":4.71875,"velocity":0.7637795275590551,"duration":1.0729166666666652},{"name":"B4","midi":71,"time":4.908854166666666,"velocity":0.7637795275590551,"duration":1.045572916666666},{"name":"D#5","midi":75,"time":5.355468749999999,"velocity":0.7637795275590551,"duration":0.2721354166666661},{"name":"G#5","midi":80,"time":5.632812499999998,"velocity":0.7637795275590551,"duration":0.828125},{"name":"D#4","midi":63,"time":5.632812499999998,"velocity":0.7637795275590551,"duration":1.096354166666667},{"name":"G#4","midi":68,"time":5.805989583333332,"velocity":0.7637795275590551,"duration":1.096354166666666},{"name":"B4","midi":71,"time":5.979166666666665,"velocity":0.7637795275590551,"duration":1.096354166666666},{"name":"B5","midi":83,"time":6.464843749999998,"velocity":0.7637795275590551,"duration":0.27213541666666696},{"name":"D5","midi":74,"time":6.742187499999998,"velocity":0.7637795275590551,"duration":0.18229166666666696},{"name":"D#4","midi":63,"time":6.742187499999998,"velocity":0.7637795275590551,"duration":1.096354166666667},{"name":"F4","midi":65,"time":6.916666666666665,"velocity":0.7637795275590551,"duration":1.096354166666667},{"name":"D#5","midi":75,"time":6.937499999999998,"velocity":0.7637795275590551,"duration":0.18229166666666696},{"name":"G#4","midi":68,"time":7.089843749999998,"velocity":0.7637795275590551,"duration":1.0963541666666679},{"name":"D5","midi":74,"time":7.132812499999998,"velocity":0.7637795275590551,"duration":0.18229166666666696},{"name":"C5","midi":72,"time":7.328124999999998,"velocity":0.7637795275590551,"duration":0.18229166666666696},{"name":"D5","midi":74,"time":7.523437499999998,"velocity":0.7637795275590551,"duration":1.0494791666666679},{"name":"D4","midi":62,"time":7.852864583333332,"velocity":0.7637795275590551,"duration":1.0963541666666679},{"name":"F4","midi":65,"time":8.026041666666666,"velocity":0.7637795275590551,"duration":1.0963541666666679},{"name":"G#4","midi":68,"time":8.19921875,"velocity":0.7637795275590551,"duration":0.9348958333333339},{"name":"F5","midi":77,"time":8.592447916666666,"velocity":0.7637795275590551,"duration":0.3645833333333339},{"name":"A#4","midi":70,"time":8.962239583333334,"velocity":0.7637795275590551,"duration":0.1796875},{"name":"D4","midi":62,"time":8.962239583333334,"velocity":0.7637795275590551,"duration":1.0963541666666679},{"name":"F4","midi":65,"time":9.13671875,"velocity":0.7637795275590551,"duration":0.9231770833333357},{"name":"G#4","midi":68,"time":9.147135416666668,"velocity":0.7637795275590551,"duration":0.1796875},{"name":"A#4","midi":70,"time":9.333333333333334,"velocity":0.7637795275590551,"duration":0.1796875},{"name":"G#4","midi":68,"time":9.518229166666668,"velocity":0.7637795275590551,"duration":0.1796875},{"name":"F#4","midi":66,"time":9.703125000000002,"velocity":0.7637795275590551,"duration":0.1796875},{"name":"G#4","midi":68,"time":9.888020833333336,"velocity":0.7637795275590551,"duration":0.1796875},{"name":"G#4","midi":68,"time":10.07291666666667,"velocity":0.7637795275590551,"duration":0.1796875},{"name":"D#4","midi":63,"time":10.07291666666667,"velocity":0.7637795275590551,"duration":0.9114583333333357},{"name":"F#4","midi":66,"time":10.257812500000004,"velocity":0.7637795275590551,"duration":0.1796875},{"name":"G#4","midi":68,"time":10.442708333333337,"velocity":0.7637795275590551,"duration":0.1796875},{"name":"F#4","midi":66,"time":10.627604166666671,"velocity":0.7637795275590551,"duration":0.1796875},{"name":"F4","midi":65,"time":10.812500000000005,"velocity":0.7637795275590551,"duration":0.1796875},{"name":"D#4","midi":63,"time":10.99739583333334,"velocity":0.7637795275590551,"duration":0.8984375},{"name":"D#5","midi":75,"time":11.182291666666673,"velocity":0.7637795275590551,"duration":1.1067708333333321},{"name":"F5","midi":77,"time":11.35677083333334,"velocity":0.7637795275590551,"duration":0.171875},{"name":"F#5","midi":78,"time":11.529947916666673,"velocity":0.7637795275590551,"duration":0.7499999999999982},{"name":"A#3","midi":58,"time":11.945312500000005,"velocity":0.7637795275590551,"duration":0.2721354166666661},{"name":"F#4","midi":66,"time":12.223958333333337,"velocity":0.7637795275590551,"duration":1.0963541666666679},{"name":"F#3","midi":54,"time":12.223958333333337,"velocity":0.7637795275590551,"duration":0.7942708333333357},{"name":"A#4","midi":70,"time":12.397135416666671,"velocity":0.7637795275590551,"duration":1.0963541666666679},{"name":"D#5","midi":75,"time":12.570312500000005,"velocity":0.7637795275590551,"duration":1.0963541666666679},{"name":"F#5","midi":78,"time":12.74348958333334,"velocity":0.7637795275590551,"duration":1.0963541666666679},{"name":"D#3","midi":51,"time":13.05598958333334,"velocity":0.7637795275590551,"duration":0.2721354166666661},{"name":"F#4","midi":66,"time":13.33333333333334,"velocity":0.7637795275590551,"duration":1.0963541666666679},{"name":"A#2","midi":46,"time":13.33333333333334,"velocity":0.7637795275590551,"duration":1.1015625000000018},{"name":"A#4","midi":70,"time":13.506510416666673,"velocity":0.7637795275590551,"duration":1.0963541666666679},{"name":"C#5","midi":73,"time":13.679687500000007,"velocity":0.7637795275590551,"duration":1.096354166666666},{"name":"F#5","midi":78,"time":13.854166666666673,"velocity":0.7637795275590551,"duration":1.096354166666666},{"name":"A#2","midi":46,"time":14.442708333333341,"velocity":0.7637795275590551,"duration":1.0963541666666643},{"name":"C#3","midi":49,"time":14.617187500000007,"velocity":0.7637795275590551,"duration":1.0963541666666643},{"name":"F#3","midi":54,"time":14.79036458333334,"velocity":0.7637795275590551,"duration":1.096354166666666},{"name":"A#3","midi":58,"time":14.963541666666673,"velocity":0.7637795275590551,"duration":1.096354166666666},{"name":"F#5","midi":78,"time":15.14192708333334,"velocity":0.7637795275590551,"duration":0.14973958333333393},{"name":"E5","midi":76,"time":15.30208333333334,"velocity":0.7637795275590551,"duration":0.14973958333333393},{"name":"D#5","midi":75,"time":15.46223958333334,"velocity":0.7637795275590551,"duration":0.14973958333333215},{"name":"E5","midi":76,"time":15.622395833333337,"velocity":0.7637795275590551,"duration":0.8281250000000018},{"name":"A#2","midi":46,"time":15.622395833333337,"velocity":0.7637795275590551,"duration":1.096354166666666},{"name":"C#3","midi":49,"time":15.795572916666671,"velocity":0.7637795275590551,"duration":0.9518229166666643},{"name":"F#3","midi":54,"time":15.97005208333334,"velocity":0.7637795275590551,"duration":0.8072916666666643},{"name":"A#3","midi":58,"time":16.14322916666667,"velocity":0.7637795275590551,"duration":0.6627604166666643},{"name":"C#5","midi":73,"time":16.45572916666667,"velocity":0.7637795275590551,"duration":0.2721354166666643},{"name":"B2","midi":47,"time":16.733072916666668,"velocity":0.7637795275590551,"duration":1.0963541666666714},{"name":"D#3","midi":51,"time":16.871093750000004,"velocity":0.7637795275590551,"duration":1.0963541666666679},{"name":"F#3","midi":54,"time":17.01041666666667,"velocity":0.7637795275590551,"duration":1.0963541666666643},{"name":"B3","midi":59,"time":17.148437500000004,"velocity":0.7637795275590551,"duration":1.0963541666666643},{"name":"D#4","midi":63,"time":17.28776041666667,"velocity":0.7637795275590551,"duration":1.0963541666666643},{"name":"F#4","midi":66,"time":17.42708333333334,"velocity":0.7637795275590551,"duration":0.5390625},{"name":"B4","midi":71,"time":17.56510416666667,"velocity":0.7637795275590551,"duration":0.5859374999999964},{"name":"D#5","midi":75,"time":17.70442708333334,"velocity":0.7637795275590551,"duration":0.6067708333333286},{"name":"F#4","midi":66,"time":18.050781250000004,"velocity":0.7637795275590551,"duration":1.0963541666666643},{"name":"B4","midi":71,"time":18.223958333333336,"velocity":0.7637795275590551,"duration":1.0963541666666679},{"name":"D#5","midi":75,"time":18.397135416666668,"velocity":0.7637795275590551,"duration":1.0963541666666714},{"name":"F#3","midi":54,"time":18.8828125,"velocity":0.7637795275590551,"duration":0.27213541666666785},{"name":"D#3","midi":51,"time":19.161458333333336,"velocity":0.7637795275590551,"duration":0.8281250000000036},{"name":"F#4","midi":66,"time":19.161458333333336,"velocity":0.7637795275590551,"duration":1.0963541666666714},{"name":"B4","midi":71,"time":19.33463541666667,"velocity":0.7637795275590551,"duration":1.0963541666666679},{"name":"D#5","midi":75,"time":19.507812500000007,"velocity":0.7637795275590551,"duration":0.9309895833333321},{"name":"B2","midi":47,"time":19.99348958333334,"velocity":0.7637795275590551,"duration":0.27213541666666785},{"name":"G2","midi":43,"time":20.27083333333334,"velocity":0.7637795275590551,"duration":1.0963541666666679},{"name":"A#4","midi":70,"time":20.27083333333334,"velocity":0.7637795275590551,"duration":1.0963541666666679},{"name":"D#5","midi":75,"time":20.47005208333334,"velocity":0.7637795275590551,"duration":1.0963541666666679},{"name":"A#5","midi":82,"time":20.66927083333334,"velocity":0.7637795275590551,"duration":1.0963541666666679},{"name":"G2","midi":43,"time":21.38020833333334,"velocity":0.7637795275590551,"duration":1.0963541666666679},{"name":"A#2","midi":46,"time":21.554687500000007,"velocity":0.7637795275590551,"duration":1.0963541666666679},{"name":"D#3","midi":51,"time":21.72786458333334,"velocity":0.7637795275590551,"duration":1.0963541666666679},{"name":"G3","midi":55,"time":21.901041666666675,"velocity":0.7637795275590551,"duration":1.0963541666666643},{"name":"D#5","midi":75,"time":22.054687500000007,"velocity":0.7637795275590551,"duration":0.15234375},{"name":"C#5","midi":73,"time":22.20052083333334,"velocity":0.7637795275590551,"duration":0.15234375},{"name":"B4","midi":71,"time":22.34505208333334,"velocity":0.7637795275590551,"duration":0.15234375000000355},{"name":"C#5","midi":73,"time":22.490885416666675,"velocity":0.7637795275590551,"duration":0.828125},{"name":"G2","midi":43,"time":22.490885416666675,"velocity":0.7637795275590551,"duration":1.0950520833333321},{"name":"A#2","midi":46,"time":22.664062500000007,"velocity":0.7637795275590551,"duration":0.9518229166666643},{"name":"D#3","midi":51,"time":22.83723958333334,"velocity":0.7637795275590551,"duration":0.8072916666666643},{"name":"G3","midi":55,"time":23.011718750000007,"velocity":0.7637795275590551,"duration":0.6627604166666643},{"name":"A#4","midi":70,"time":23.322916666666675,"velocity":0.7637795275590551,"duration":0.2721354166666643},{"name":"C#5","midi":73,"time":23.60026041666667,"velocity":0.7637795275590551,"duration":0.1796875},{"name":"G#2","midi":44,"time":23.60026041666667,"velocity":0.7637795275590551,"duration":1.0963541666666643},{"name":"B2","midi":47,"time":23.77473958333334,"velocity":0.7637795275590551,"duration":1.0963541666666607},{"name":"B4","midi":71,"time":23.78645833333334,"velocity":0.7637795275590551,"duration":0.1796875},{"name":"D#3","midi":51,"time":23.94791666666667,"velocity":0.7637795275590551,"duration":1.0963541666666607},{"name":"C#5","midi":73,"time":23.97135416666667,"velocity":0.7637795275590551,"duration":0.1796875},{"name":"G#3","midi":56,"time":24.121093750000004,"velocity":0.7637795275590551,"duration":1.0963541666666607},{"name":"B4","midi":71,"time":24.156250000000004,"velocity":0.7637795275590551,"duration":0.1796875},{"name":"A#4","midi":70,"time":24.341145833333336,"velocity":0.7637795275590551,"duration":0.1796875},{"name":"G#4","midi":68,"time":24.526041666666668,"velocity":0.7637795275590551,"duration":0.1796875},{"name":"D#5","midi":75,"time":24.7109375,"velocity":0.7637795275590551,"duration":1.0963541666666643},{"name":"G#5","midi":80,"time":24.884114583333332,"velocity":0.7637795275590551,"duration":1.0963541666666643},{"name":"B5","midi":83,"time":25.057291666666664,"velocity":0.7637795275590551,"duration":1.0963541666666679},{"name":"B4","midi":71,"time":25.542968749999996,"velocity":0.7637795275590551,"duration":0.27213541666666785},{"name":"G#4","midi":68,"time":25.820312499999996,"velocity":0.7637795275590551,"duration":0.8281250000000036},{"name":"D#5","midi":75,"time":25.820312499999996,"velocity":0.7637795275590551,"duration":1.0963541666666679},{"name":"G#5","midi":80,"time":25.994791666666664,"velocity":0.7637795275590551,"duration":1.0963541666666643},{"name":"B5","midi":83,"time":26.16796875,"velocity":0.7637795275590551,"duration":1.0963541666666607},{"name":"F4","midi":65,"time":26.653645833333332,"velocity":0.7637795275590551,"duration":0.2721354166666643},{"name":"D4","midi":62,"time":26.93098958333333,"velocity":0.7637795275590551,"duration":1.1015624999999964},{"name":"F5","midi":77,"time":26.93098958333333,"velocity":0.7637795275590551,"duration":1.0963541666666643},{"name":"G#5","midi":80,"time":27.10416666666666,"velocity":0.7637795275590551,"duration":1.0963541666666643},{"name":"B5","midi":83,"time":27.277343749999993,"velocity":0.7637795275590551,"duration":1.0963541666666643},{"name":"D4","midi":62,"time":28.040364583333325,"velocity":0.7637795275590551,"duration":1.09765625},{"name":"F4","midi":65,"time":28.227864583333325,"velocity":0.7637795275590551,"duration":1.0885416666666643},{"name":"A#4","midi":70,"time":28.415364583333325,"velocity":0.7637795275590551,"duration":1.0690104166666643},{"name":"A#5","midi":82,"time":28.656249999999993,"velocity":0.7637795275590551,"duration":0.14973958333333215},{"name":"G#5","midi":80,"time":28.821614583333325,"velocity":0.7637795275590551,"duration":0.14973958333333215},{"name":"F#5","midi":78,"time":28.985677083333325,"velocity":0.7637795275590551,"duration":0.14973958333333215},{"name":"F5","midi":77,"time":29.151041666666657,"velocity":0.7637795275590551,"duration":0.1796875},{"name":"D4","midi":62,"time":29.151041666666657,"velocity":0.7637795275590551,"duration":1.0963541666666607},{"name":"F4","midi":65,"time":29.32421874999999,"velocity":0.7637795275590551,"duration":0.9518229166666607},{"name":"F#5","midi":78,"time":29.33593749999999,"velocity":0.7637795275590551,"duration":0.1796875},{"name":"A#4","midi":70,"time":29.49739583333332,"velocity":0.7637795275590551,"duration":0.8059895833333286},{"name":"F5","midi":77,"time":29.52083333333332,"velocity":0.7637795275590551,"duration":0.1796875},{"name":"F#5","midi":78,"time":29.705729166666654,"velocity":0.7637795275590551,"duration":0.1796875},{"name":"G#5","midi":80,"time":29.890624999999986,"velocity":0.7637795275590551,"duration":0.1796875},{"name":"F5","midi":77,"time":30.075520833333318,"velocity":0.7637795275590551,"duration":0.1796875},{"name":"G#5","midi":80,"time":30.26041666666665,"velocity":0.7637795275590551,"duration":0.1796875},{"name":"D#4","midi":63,"time":30.26041666666665,"velocity":0.7637795275590551,"duration":1.0963541666666607},{"name":"F#4","midi":66,"time":30.434895833333318,"velocity":0.7637795275590551,"duration":1.0963541666666572},{"name":"F#5","midi":78,"time":30.445312499999982,"velocity":0.7637795275590551,"duration":0.1796875},{"name":"A#4","midi":70,"time":30.60807291666665,"velocity":0.7637795275590551,"duration":0.7434895833333286},{"name":"G#5","midi":80,"time":30.630208333333314,"velocity":0.7637795275590551,"duration":0.1796875},{"name":"F#5","midi":78,"time":30.816406249999982,"velocity":0.7637795275590551,"duration":0.1796875},{"name":"F5","midi":77,"time":31.001302083333314,"velocity":0.7637795275590551,"duration":0.1796875},{"name":"D#5","midi":75,"time":31.186197916666647,"velocity":0.7637795275590551,"duration":0.17968749999999645},{"name":"A#4","midi":70,"time":31.371093749999975,"velocity":0.7637795275590551,"duration":1.0963541666666679},{"name":"D#5","midi":75,"time":31.537760416666643,"velocity":0.7637795275590551,"duration":1.0963541666666643},{"name":"F#5","midi":78,"time":31.70442708333331,"velocity":0.7637795275590551,"duration":1.0963541666666607},{"name":"A#5","midi":82,"time":31.87109374999998,"velocity":0.7637795275590551,"duration":1.0963541666666572},{"name":"F#4","midi":66,"time":32.21744791666664,"velocity":0.7637795275590551,"duration":0.2565104166666643},{"name":"D#4","midi":63,"time":32.48046874999997,"velocity":0.7637795275590551,"duration":0.8281249999999929},{"name":"C#5","midi":73,"time":32.48046874999997,"velocity":0.7637795275590551,"duration":1.0963541666666643},{"name":"D#5","midi":75,"time":32.65364583333331,"velocity":0.7637795275590551,"duration":0.9518229166666643},{"name":"F#5","midi":78,"time":32.82812499999997,"velocity":0.7637795275590551,"duration":0.8072916666666643},{"name":"A#5","midi":82,"time":33.0013020833333,"velocity":0.7637795275590551,"duration":0.6627604166666714},{"name":"C4","midi":60,"time":33.3138020833333,"velocity":0.7637795275590551,"duration":0.2721354166666714},{"name":"A3","midi":57,"time":33.59114583333331,"velocity":0.7637795275590551,"duration":1.1015625},{"name":"C5","midi":72,"time":33.59114583333331,"velocity":0.7637795275590551,"duration":1.0963541666666643},{"name":"D#5","midi":75,"time":33.764322916666636,"velocity":0.7637795275590551,"duration":1.0963541666666714},{"name":"F#5","midi":78,"time":33.93749999999997,"velocity":0.7637795275590551,"duration":1.0963541666666714},{"name":"C6","midi":84,"time":34.11067708333331,"velocity":0.7637795275590551,"duration":1.0963541666666714},{"name":"A3","midi":57,"time":34.70052083333331,"velocity":0.7637795275590551,"duration":1.0963541666666785},{"name":"C4","midi":60,"time":34.88932291666664,"velocity":0.7637795275590551,"duration":1.082031250000007},{"name":"F4","midi":65,"time":35.07682291666664,"velocity":0.7637795275590551,"duration":1.0559895833333428},{"name":"F5","midi":77,"time":35.31640624999998,"velocity":0.7637795275590551,"duration":0.1497395833333357},{"name":"D#5","midi":75,"time":35.481770833333314,"velocity":0.7637795275590551,"duration":0.1497395833333357},{"name":"C#5","midi":73,"time":35.645833333333314,"velocity":0.7637795275590551,"duration":0.1497395833333357},{"name":"C5","midi":72,"time":35.81119791666665,"velocity":0.7637795275590551,"duration":0.1796875},{"name":"A3","midi":57,"time":35.81119791666665,"velocity":0.7637795275590551,"duration":1.0963541666666785},{"name":"C4","midi":60,"time":35.984374999999986,"velocity":0.7637795275590551,"duration":1.0963541666666785},{"name":"C#5","midi":73,"time":35.996093749999986,"velocity":0.7637795275590551,"duration":0.1796875},{"name":"F4","midi":65,"time":36.15755208333332,"velocity":0.7637795275590551,"duration":1.0963541666666785},{"name":"C5","midi":72,"time":36.18098958333332,"velocity":0.7637795275590551,"duration":0.1796875},{"name":"C#5","midi":73,"time":36.36588541666666,"velocity":0.7637795275590551,"duration":0.1796875},{"name":"D#5","midi":75,"time":36.55078124999999,"velocity":0.7637795275590551,"duration":0.1796875},{"name":"C5","midi":72,"time":36.73567708333333,"velocity":0.7637795275590551,"duration":0.1796875},{"name":"D#5","midi":75,"time":36.920572916666664,"velocity":0.7637795275590551,"duration":0.1796875},{"name":"A#3","midi":58,"time":36.920572916666664,"velocity":0.7637795275590551,"duration":1.0963541666666714},{"name":"C#4","midi":61,"time":37.09375,"velocity":0.7637795275590551,"duration":1.0963541666666785},{"name":"C#5","midi":73,"time":37.10546875,"velocity":0.7637795275590551,"duration":0.1796875},{"name":"F4","midi":65,"time":37.268229166666664,"velocity":0.7637795275590551,"duration":1.0963541666666856},{"name":"D#5","midi":75,"time":37.290364583333336,"velocity":0.7637795275590551,"duration":0.1796875},{"name":"C#5","midi":73,"time":37.47526041666667,"velocity":0.7637795275590551,"duration":0.1796875},{"name":"C5","midi":72,"time":37.661458333333336,"velocity":0.7637795275590551,"duration":0.1796875},{"name":"A#4","midi":70,"time":37.84635416666667,"velocity":0.7637795275590551,"duration":0.1796875},{"name":"C#5","midi":73,"time":38.03125000000001,"velocity":0.7637795275590551,"duration":0.6848958333333499},{"name":"A#3","midi":58,"time":38.03125000000001,"velocity":0.7637795275590551,"duration":1.0963541666666927},{"name":"D#5","midi":75,"time":38.16927083333334,"velocity":0.7637795275590551,"duration":0.1341145833333357},{"name":"C#4","midi":61,"time":38.20442708333334,"velocity":0.7637795275590551,"duration":1.0963541666666927},{"name":"F5","midi":77,"time":38.308593750000014,"velocity":0.7637795275590551,"duration":0.4114583333333428},{"name":"F4","midi":65,"time":38.377604166666686,"velocity":0.7637795275590551,"duration":1.0963541666666856},{"name":"A#4","midi":70,"time":38.55078125000002,"velocity":0.7637795275590551,"duration":0.9101562500000142},{"name":"F#5","midi":78,"time":38.77213541666669,"velocity":0.7637795275590551,"duration":0.1341145833333357},{"name":"F5","midi":77,"time":38.91796875000003,"velocity":0.7637795275590551,"duration":0.1341145833333357},{"name":"D#5","midi":75,"time":39.063802083333364,"velocity":0.7637795275590551,"duration":0.1341145833333357},{"name":"C#5","midi":73,"time":39.2096354166667,"velocity":0.7637795275590551,"duration":0.1341145833333357},{"name":"A#3","midi":58,"time":39.2096354166667,"velocity":0.7637795275590551,"duration":1.0963541666666785},{"name":"C5","midi":72,"time":39.34895833333337,"velocity":0.7637795275590551,"duration":0.1341145833333357},{"name":"C#4","midi":61,"time":39.38411458333337,"velocity":0.7637795275590551,"duration":1.0963541666666714},{"name":"A#4","midi":70,"time":39.48828125000004,"velocity":0.7637795275590551,"duration":0.1341145833333286},{"name":"F4","midi":65,"time":39.55729166666671,"velocity":0.7637795275590551,"duration":0.6028645833333357},{"name":"G#4","midi":68,"time":39.62630208333337,"velocity":0.7637795275590551,"duration":0.1341145833333357},{"name":"F#4","midi":66,"time":39.76562500000004,"velocity":0.7637795275590551,"duration":0.2721354166666643},{"name":"G#4","midi":68,"time":40.04296875000004,"velocity":0.7637795275590551,"duration":0.1341145833333357},{"name":"F4","midi":65,"time":40.18098958333338,"velocity":0.7637795275590551,"duration":0.1419270833333286},{"name":"F#4","midi":66,"time":40.32031250000004,"velocity":0.7637795275590551,"duration":0.8281249999999929},{"name":"D#3","midi":51,"time":40.32031250000004,"velocity":0.7637795275590551,"duration":1.0963541666666572},{"name":"A#3","midi":58,"time":40.50651041666671,"velocity":0.7637795275590551,"duration":1.0833333333333286},{"name":"C#4","midi":61,"time":40.69270833333337,"velocity":0.7637795275590551,"duration":1.0703125},{"name":"A#4","midi":70,"time":41.152343750000036,"velocity":0.7637795275590551,"duration":0.1484375},{"name":"C#5","midi":73,"time":41.3151041666667,"velocity":0.7637795275590551,"duration":0.1484375},{"name":"F#5","midi":78,"time":41.476562500000036,"velocity":0.7637795275590551,"duration":0.6536458333333357},{"name":"D#3","midi":51,"time":41.476562500000036,"velocity":0.7637795275590551,"duration":1.0963541666666714},{"name":"A#3","midi":58,"time":41.64973958333337,"velocity":0.7637795275590551,"duration":1.0963541666666714},{"name":"C4","midi":60,"time":41.82291666666671,"velocity":0.7637795275590551,"duration":1.0963541666666643},{"name":"F5","midi":77,"time":42.12630208333337,"velocity":0.7637795275590551,"duration":0.1484375},{"name":"D#5","midi":75,"time":42.27994791666671,"velocity":0.7637795275590551,"duration":0.1484375},{"name":"C#5","midi":73,"time":42.43359375000004,"velocity":0.7637795275590551,"duration":0.1484375},{"name":"C5","midi":72,"time":42.58593750000004,"velocity":0.7637795275590551,"duration":0.2721354166666643},{"name":"D#3","midi":51,"time":42.58593750000004,"velocity":0.7637795275590551,"duration":1.0963541666666572},{"name":"A#3","midi":58,"time":42.76041666666671,"velocity":0.7637795275590551,"duration":1.0963541666666572},{"name":"D#5","midi":75,"time":42.86458333333337,"velocity":0.7637795275590551,"duration":0.1484375},{"name":"C4","midi":60,"time":42.933593750000036,"velocity":0.7637795275590551,"duration":1.0963541666666714},{"name":"C#5","midi":73,"time":43.015625000000036,"velocity":0.7637795275590551,"duration":0.1484375},{"name":"C5","midi":72,"time":43.167968750000036,"velocity":0.7637795275590551,"duration":0.1484375},{"name":"C#5","midi":73,"time":43.3190104166667,"velocity":0.7637795275590551,"duration":0.1484375},{"name":"D#5","midi":75,"time":43.485677083333364,"velocity":0.7637795275590551,"duration":0.2005208333333357},{"name":"F4","midi":65,"time":43.696614583333364,"velocity":0.7637795275590551,"duration":0.2721354166666714},{"name":"D#3","midi":51,"time":43.696614583333364,"velocity":0.7637795275590551,"duration":1.0963541666666714},{"name":"A3","midi":57,"time":43.8697916666667,"velocity":0.7637795275590551,"duration":1.0963541666666714},{"name":"G4","midi":67,"time":43.97395833333337,"velocity":0.7637795275590551,"duration":0.1341145833333357},{"name":"C4","midi":60,"time":44.04296875000004,"velocity":0.7637795275590551,"duration":1.0963541666666643},{"name":"A4","midi":69,"time":44.11328125000004,"velocity":0.7637795275590551,"duration":0.15234375},{"name":"A#4","midi":70,"time":44.26432291666671,"velocity":0.7637795275590551,"duration":0.15234375},{"name":"A4","midi":69,"time":44.41666666666671,"velocity":0.7637795275590551,"duration":0.15234375},{"name":"G4","midi":67,"time":44.56770833333337,"velocity":0.7637795275590551,"duration":0.15234375},{"name":"A4","midi":69,"time":44.72005208333337,"velocity":0.7637795275590551,"duration":0.1588541666666643},{"name":"C#3","midi":49,"time":44.80598958333337,"velocity":0.7637795275590551,"duration":1.0963541666666714},{"name":"F3","midi":53,"time":44.945312500000036,"velocity":0.7637795275590551,"duration":1.0963541666666714},{"name":"A#3","midi":58,"time":45.08333333333337,"velocity":0.7637795275590551,"duration":1.0963541666666714},{"name":"A#4","midi":70,"time":45.19531250000004,"velocity":0.7637795275590551,"duration":3.899739583333364},{"name":"F4","midi":65,"time":45.77734375000004,"velocity":0.7637795275590551,"duration":0.2721354166666643},{"name":"F#4","midi":66,"time":46.05468750000004,"velocity":0.7637795275590551,"duration":0.828125},{"name":"D#3","midi":51,"time":46.05468750000004,"velocity":0.7637795275590551,"duration":1.0963541666666714},{"name":"A#3","midi":58,"time":46.26302083333338,"velocity":0.7637795275590551,"duration":1.0091145833333428},{"name":"D#4","midi":63,"time":46.88802083333338,"velocity":0.7637795275590551,"duration":0.2721354166666714},{"name":"C#4","midi":61,"time":47.165364583333385,"velocity":0.7637795275590551,"duration":0.2721354166666714},{"name":"F3","midi":53,"time":47.165364583333385,"velocity":0.7637795275590551,"duration":1.0963541666666785},{"name":"C4","midi":60,"time":47.44270833333339,"velocity":0.7637795275590551,"duration":0.6419270833333357},{"name":"C#4","midi":61,"time":48.089843750000064,"velocity":0.7637795275590551,"duration":0.1796875},{"name":"C4","midi":60,"time":48.2747395833334,"velocity":0.7637795275590551,"duration":0.1796875},{"name":"F2","midi":41,"time":48.2747395833334,"velocity":0.7637795275590551,"duration":1.0963541666666714},{"name":"F3","midi":53,"time":48.449218750000064,"velocity":0.7637795275590551,"duration":1.0963541666666785},{"name":"C#4","midi":61,"time":48.459635416666735,"velocity":0.7637795275590551,"duration":0.1796875},{"name":"D#4","midi":63,"time":48.6458333333334,"velocity":0.7637795275590551,"duration":0.1796875},{"name":"C#4","midi":61,"time":48.830729166666735,"velocity":0.7637795275590551,"duration":0.1796875},{"name":"D#4","midi":63,"time":49.01562500000007,"velocity":0.7637795275590551,"duration":0.1796875},{"name":"F4","midi":65,"time":49.20052083333341,"velocity":0.7637795275590551,"duration":0.1796875},{"name":"C4","midi":60,"time":49.38541666666674,"velocity":0.7637795275590551,"duration":1.1067708333333357},{"name":"A4","midi":69,"time":49.38541666666674,"velocity":0.7637795275590551,"duration":1.1067708333333357},{"name":"F#4","midi":66,"time":49.38541666666674,"velocity":0.7637795275590551,"duration":0.1796875},{"name":"F2","midi":41,"time":49.38541666666674,"velocity":0.7637795275590551,"duration":1.0963541666666714},{"name":"F3","midi":53,"time":49.55859375000008,"velocity":0.7637795275590551,"duration":1.0963541666666643},{"name":"F4","midi":65,"time":49.57031250000008,"velocity":0.7637795275590551,"duration":0.1796875},{"name":"F#4","midi":66,"time":49.755208333333414,"velocity":0.7637795275590551,"duration":0.1796875},{"name":"F4","midi":65,"time":49.94010416666675,"velocity":0.7637795275590551,"duration":0.2721354166666643},{"name":"D#4","midi":63,"time":50.286458333333414,"velocity":0.7637795275590551,"duration":0.2721354166666643},{"name":"A#4","midi":70,"time":50.56510416666674,"velocity":0.7637795275590551,"duration":0.8281250000000071},{"name":"C#4","midi":61,"time":50.56510416666674,"velocity":0.7637795275590551,"duration":0.8281250000000071},{"name":"A#2","midi":46,"time":50.56510416666674,"velocity":0.7637795275590551,"duration":1.0963541666666714},{"name":"F3","midi":53,"time":50.73828125000008,"velocity":0.7637795275590551,"duration":0.9518229166666714},{"name":"A#3","midi":58,"time":50.911458333333414,"velocity":0.7637795275590551,"duration":0.8072916666666714},{"name":"C5","midi":72,"time":51.67447916666675,"velocity":0.7637795275590551,"duration":0.2721354166666714},{"name":"D#4","midi":63,"time":51.67447916666675,"velocity":0.7637795275590551,"duration":0.2721354166666714},{"name":"F4","midi":65,"time":51.95182291666676,"velocity":0.7637795275590551,"duration":1.0963541666666714},{"name":"A#4","midi":70,"time":52.12500000000009,"velocity":0.7637795275590551,"duration":1.0963541666666714},{"name":"C#5","midi":73,"time":52.29947916666676,"velocity":0.7637795275590551,"duration":1.0963541666666714},{"name":"A#2","midi":46,"time":52.78515625000009,"velocity":0.7637795275590551,"duration":0.2721354166666714},{"name":"C#3","midi":49,"time":53.0625000000001,"velocity":0.7637795275590551,"duration":0.828125},{"name":"F4","midi":65,"time":53.0625000000001,"velocity":0.7637795275590551,"duration":1.0963541666666643},{"name":"A#4","midi":70,"time":53.23567708333343,"velocity":0.7637795275590551,"duration":1.0963541666666714},{"name":"C#5","midi":73,"time":53.408854166666764,"velocity":0.7637795275590551,"duration":1.0963541666666714},{"name":"F3","midi":53,"time":53.8945312500001,"velocity":0.7637795275590551,"duration":0.2721354166666643},{"name":"G2","midi":43,"time":54.1718750000001,"velocity":0.7637795275590551,"duration":1.1536458333333357},{"name":"E4","midi":64,"time":54.1718750000001,"velocity":0.7637795275590551,"duration":1.0963541666666643},{"name":"A#4","midi":70,"time":54.345052083333435,"velocity":0.7637795275590551,"duration":0.7721354166666643},{"name":"C#5","midi":73,"time":54.5195312500001,"velocity":0.7637795275590551,"duration":0.93359375},{"name":"C5","midi":72,"time":55.005208333333435,"velocity":0.7637795275590551,"duration":0.1341145833333286},{"name":"A#4","midi":70,"time":55.143229166666764,"velocity":0.7637795275590551,"duration":0.1341145833333357},{"name":"A#4","midi":70,"time":55.282552083333435,"velocity":0.7637795275590551,"duration":2.1861979166666714},{"name":"C#5","midi":73,"time":55.455729166666764,"velocity":0.7637795275590551,"duration":1.8841145833333428},{"name":"E5","midi":76,"time":55.6289062500001,"velocity":0.7637795275590551,"duration":1.5872395833333428},{"name":"A#2","midi":46,"time":56.045572916666764,"velocity":0.7637795275590551,"duration":0.1341145833333357},{"name":"G#2","midi":44,"time":56.1835937500001,"velocity":0.7637795275590551,"duration":0.1341145833333357},{"name":"G2","midi":43,"time":56.32291666666677,"velocity":0.7637795275590551,"duration":0.1341145833333357},{"name":"C#3","midi":49,"time":56.46093750000011,"velocity":0.7637795275590551,"duration":1.2981770833333357},{"name":"D#5","midi":75,"time":57.29427083333344,"velocity":0.7637795275590551,"duration":0.1341145833333286},{"name":"C#5","midi":73,"time":57.43229166666677,"velocity":0.7637795275590551,"duration":0.1341145833333357},{"name":"A#4","midi":70,"time":57.57161458333344,"velocity":0.7637795275590551,"duration":2.1861979166666714},{"name":"C#5","midi":73,"time":57.74479166666678,"velocity":0.7637795275590551,"duration":2.015625},{"name":"G5","midi":79,"time":57.91796875000011,"velocity":0.7637795275590551,"duration":1.5872395833333357},{"name":"B2","midi":47,"time":58.40364583333344,"velocity":0.7637795275590551,"duration":0.1341145833333357},{"name":"A#2","midi":46,"time":58.542968750000114,"velocity":0.7637795275590551,"duration":0.1341145833333357},{"name":"E3","midi":52,"time":58.68098958333345,"velocity":0.7637795275590551,"duration":0.2721354166666643},{"name":"D#3","midi":51,"time":58.95833333333345,"velocity":0.7637795275590551,"duration":0.2721354166666643},{"name":"E3","midi":52,"time":59.23697916666678,"velocity":0.7637795275590551,"duration":0.2721354166666643},{"name":"C#3","midi":49,"time":59.51432291666678,"velocity":0.7637795275590551,"duration":0.2721354166666643},{"name":"F5","midi":77,"time":59.51432291666678,"velocity":0.7637795275590551,"duration":0.1341145833333357},{"name":"D#5","midi":75,"time":59.652343750000114,"velocity":0.7637795275590551,"duration":0.1341145833333286},{"name":"B2","midi":47,"time":59.79166666666678,"velocity":0.7637795275590551,"duration":0.1341145833333357},{"name":"B4","midi":71,"time":59.79166666666678,"velocity":0.7637795275590551,"duration":1.5625000000000213},{"name":"A#2","midi":46,"time":59.929687500000114,"velocity":0.7637795275590551,"duration":0.1341145833333357},{"name":"D#5","midi":75,"time":59.964843750000114,"velocity":0.7637795275590551,"duration":1.4322916666666856},{"name":"G#2","midi":44,"time":60.069010416666785,"velocity":0.7637795275590551,"duration":0.1341145833333286},{"name":"G#5","midi":80,"time":60.13802083333345,"velocity":0.7637795275590551,"duration":1.0937500000000142},{"name":"A#2","midi":46,"time":60.20833333333345,"velocity":0.7637795275590551,"duration":0.1341145833333357},{"name":"B2","midi":47,"time":60.346354166666785,"velocity":0.7637795275590551,"duration":0.1341145833333357},{"name":"G#2","midi":44,"time":60.48567708333346,"velocity":0.7637795275590551,"duration":0.1341145833333357},{"name":"A#2","midi":46,"time":60.62369791666679,"velocity":0.7637795275590551,"duration":0.1341145833333357},{"name":"B2","midi":47,"time":60.763020833333464,"velocity":0.7637795275590551,"duration":0.1341145833333357},{"name":"E2","midi":40,"time":60.9010416666668,"velocity":0.7637795275590551,"duration":0.8294270833333357},{"name":"G5","midi":79,"time":61.1783854166668,"velocity":0.7637795275590551,"duration":0.2721354166666643},{"name":"G#5","midi":80,"time":61.45703125000013,"velocity":0.7637795275590551,"duration":0.1341145833333357},{"name":"E3","midi":52,"time":61.595052083333464,"velocity":0.7637795275590551,"duration":0.1341145833333357},{"name":"A#5","midi":82,"time":61.734375000000135,"velocity":0.7637795275590551,"duration":0.1341145833333357},{"name":"D#3","midi":51,"time":61.734375000000135,"velocity":0.7637795275590551,"duration":0.1341145833333357},{"name":"C#3","midi":49,"time":61.87239583333347,"velocity":0.7637795275590551,"duration":0.1341145833333357},{"name":"D#3","midi":51,"time":62.01171875000014,"velocity":0.7637795275590551,"duration":0.8294270833333499},{"name":"D#5","midi":75,"time":62.01171875000014,"velocity":0.7637795275590551,"duration":1.0963541666666856},{"name":"G5","midi":79,"time":62.18489583333348,"velocity":0.7637795275590551,"duration":1.0963541666666927},{"name":"B5","midi":83,"time":62.35807291666681,"velocity":0.7637795275590551,"duration":0.1341145833333357},{"name":"A#5","midi":82,"time":62.56640625000015,"velocity":0.7637795275590551,"duration":0.1341145833333357},{"name":"B5","midi":83,"time":62.70572916666682,"velocity":0.7637795275590551,"duration":0.1341145833333357},{"name":"A#5","midi":82,"time":62.843750000000156,"velocity":0.7637795275590551,"duration":0.1341145833333357},{"name":"C#3","midi":49,"time":62.843750000000156,"velocity":0.7637795275590551,"duration":0.2721354166666714},{"name":"B5","midi":83,"time":62.98307291666683,"velocity":0.7637795275590551,"duration":0.1341145833333357},{"name":"A#5","midi":82,"time":63.12109375000016,"velocity":0.7637795275590551,"duration":0.1341145833333357},{"name":"D#3","midi":51,"time":63.12109375000016,"velocity":0.7637795275590551,"duration":0.8294270833333357},{"name":"C#5","midi":73,"time":63.12109375000016,"velocity":0.7637795275590551,"duration":1.0963541666666643},{"name":"B5","midi":83,"time":63.260416666666835,"velocity":0.7637795275590551,"duration":0.1341145833333357},{"name":"A#5","midi":82,"time":63.39843750000017,"velocity":0.7637795275590551,"duration":0.5494791666666643},{"name":"G#5","midi":80,"time":63.9544270833335,"velocity":0.7637795275590551,"duration":0.518229166666643},{"name":"D#2","midi":39,"time":63.9544270833335,"velocity":0.7637795275590551,"duration":0.2721354166666572},{"name":"G#2","midi":44,"time":64.23177083333348,"velocity":0.7637795275590551,"duration":0.8281249999999858},{"name":"B4","midi":71,"time":64.23177083333348,"velocity":0.7637795275590551,"duration":1.0963541666666572},{"name":"D#5","midi":75,"time":64.40494791666681,"velocity":0.7637795275590551,"duration":1.0963541666666572},{"name":"G#5","midi":80,"time":64.57812500000014,"velocity":0.7637795275590551,"duration":1.0963541666666572},{"name":"B5","midi":83,"time":65.48046875000014,"velocity":0.7637795275590551,"duration":0.2721354166666572},{"name":"F5","midi":77,"time":65.75781250000013,"velocity":0.7637795275590551,"duration":0.828125},{"name":"F#5","midi":78,"time":66.58984375000013,"velocity":0.7637795275590551,"duration":0.1341145833333286},{"name":"B3","midi":59,"time":66.58984375000013,"velocity":0.7637795275590551,"duration":0.2057291666666572},{"name":"G#5","midi":80,"time":66.72916666666679,"velocity":0.7637795275590551,"duration":0.1341145833333286},{"name":"D5","midi":74,"time":66.86718750000011,"velocity":0.7637795275590551,"duration":0.828125},{"name":"F3","midi":53,"time":66.86718750000011,"velocity":0.7637795275590551,"duration":0.828125},{"name":"D#5","midi":75,"time":67.70052083333344,"velocity":0.7637795275590551,"duration":0.1341145833333286},{"name":"F#3","midi":54,"time":67.70052083333344,"velocity":0.7637795275590551,"duration":0.1341145833333286},{"name":"F5","midi":77,"time":67.83854166666677,"velocity":0.7637795275590551,"duration":0.1341145833333286},{"name":"G#3","midi":56,"time":67.83854166666677,"velocity":0.7637795275590551,"duration":0.1341145833333286},{"name":"A#4","midi":70,"time":67.97786458333343,"velocity":0.7637795275590551,"duration":0.828125},{"name":"D3","midi":50,"time":67.97786458333343,"velocity":0.7637795275590551,"duration":0.828125},{"name":"D#3","midi":51,"time":68.80989583333343,"velocity":0.7637795275590551,"duration":0.1341145833333286},{"name":"G#5","midi":80,"time":68.80989583333343,"velocity":0.7637795275590551,"duration":0.2057291666666572},{"name":"F3","midi":53,"time":68.94921875000009,"velocity":0.7637795275590551,"duration":0.1341145833333286},{"name":"D5","midi":74,"time":69.08723958333341,"velocity":0.7637795275590551,"duration":0.828125},{"name":"A#2","midi":46,"time":69.08723958333341,"velocity":0.7637795275590551,"duration":0.828125},{"name":"D#5","midi":75,"time":69.92057291666674,"velocity":0.7637795275590551,"duration":0.1341145833333286},{"name":"G#3","midi":56,"time":69.92057291666674,"velocity":0.7637795275590551,"duration":0.2057291666666572},{"name":"F5","midi":77,"time":70.05859375000007,"velocity":0.7637795275590551,"duration":0.1341145833333286},{"name":"D3","midi":50,"time":70.19791666666673,"velocity":0.7637795275590551,"duration":0.828125},{"name":"A#4","midi":70,"time":70.19791666666673,"velocity":0.7637795275590551,"duration":0.828125},{"name":"C5","midi":72,"time":71.02994791666673,"velocity":0.7637795275590551,"duration":0.1341145833333286},{"name":"D#3","midi":51,"time":71.02994791666673,"velocity":0.7637795275590551,"duration":0.1341145833333286},{"name":"D5","midi":74,"time":71.16927083333339,"velocity":0.7637795275590551,"duration":0.1341145833333286},{"name":"F3","midi":53,"time":71.16927083333339,"velocity":0.7637795275590551,"duration":0.1341145833333286},{"name":"F#2","midi":42,"time":71.30729166666671,"velocity":0.7637795275590551,"duration":1.1067708333333144},{"name":"D#5","midi":75,"time":71.30729166666671,"velocity":0.7637795275590551,"duration":0.828125},{"name":"C#5","midi":73,"time":72.14062500000004,"velocity":0.7637795275590551,"duration":0.1341145833333286},{"name":"B4","midi":71,"time":72.27864583333337,"velocity":0.7637795275590551,"duration":0.1341145833333286},{"name":"G2","midi":43,"time":72.41796875000003,"velocity":0.7637795275590551,"duration":0.828125},{"name":"C#5","midi":73,"time":72.41796875000003,"velocity":0.7637795275590551,"duration":1.30078125},{"name":"A#3","midi":58,"time":73.25000000000003,"velocity":0.7637795275590551,"duration":0.2721354166666714},{"name":"D#4","midi":63,"time":73.52734375000003,"velocity":0.7637795275590551,"duration":1.0963541666666572},{"name":"G3","midi":55,"time":73.52734375000003,"velocity":0.7637795275590551,"duration":0.828125},{"name":"A#4","midi":70,"time":73.70052083333336,"velocity":0.7637795275590551,"duration":1.0963541666666572},{"name":"C#5","midi":73,"time":73.87500000000003,"velocity":0.7637795275590551,"duration":1.0963541666666572},{"name":"D#3","midi":51,"time":74.36067708333336,"velocity":0.7637795275590551,"duration":0.2721354166666572},{"name":"D#4","midi":63,"time":74.63802083333334,"velocity":0.7637795275590551,"duration":2.199218750000014},{"name":"G#2","midi":44,"time":74.63802083333334,"velocity":0.7637795275590551,"duration":1.2981770833333286},{"name":"A#4","midi":70,"time":74.81119791666669,"velocity":0.7637795275590551,"duration":0.7916666666666572},{"name":"C#5","midi":73,"time":74.98437500000001,"velocity":0.7637795275590551,"duration":0.4375},{"name":"B4","midi":71,"time":75.47005208333334,"velocity":0.7637795275590551,"duration":0.1341145833333286},{"name":"A#4","midi":70,"time":75.609375,"velocity":0.7637795275590551,"duration":0.1341145833333286},{"name":"G#4","midi":68,"time":75.74739583333333,"velocity":0.7637795275590551,"duration":0.829427083333357},{"name":"A#4","midi":70,"time":75.88671875,"velocity":0.7637795275590551,"duration":0.1718750000000142},{"name":"B4","midi":71,"time":76.02473958333334,"velocity":0.7637795275590551,"duration":1.2200520833333428},{"name":"B3","midi":59,"time":76.64973958333336,"velocity":0.7637795275590551,"duration":0.2721354166666714},{"name":"D#4","midi":63,"time":76.92708333333336,"velocity":0.7637795275590551,"duration":1.0963541666666572},{"name":"G#3","midi":56,"time":76.92708333333336,"velocity":0.7637795275590551,"duration":0.8281249999999858},{"name":"G#4","midi":68,"time":77.10026041666669,"velocity":0.7637795275590551,"duration":1.0963541666666572},{"name":"B4","midi":71,"time":77.27343750000001,"velocity":0.7637795275590551,"duration":1.2773437499999858},{"name":"F3","midi":53,"time":77.75911458333334,"velocity":0.7637795275590551,"duration":0.2721354166666714},{"name":"D3","midi":50,"time":78.03645833333334,"velocity":0.7637795275590551,"duration":1.0963541666666572},{"name":"F3","midi":53,"time":78.17578125000001,"velocity":0.7637795275590551,"duration":1.096354166666643},{"name":"G#3","midi":56,"time":78.31510416666667,"velocity":0.7637795275590551,"duration":1.096354166666643},{"name":"F4","midi":65,"time":78.453125,"velocity":0.7637795275590551,"duration":1.096354166666643},{"name":"G#4","midi":68,"time":78.59244791666667,"velocity":0.7637795275590551,"duration":0.40234375},{"name":"B4","midi":71,"time":78.73046875,"velocity":0.7637795275590551,"duration":0.1354166666666714},{"name":"A#4","midi":70,"time":78.86979166666667,"velocity":0.7637795275590551,"duration":0.1341145833333286},{"name":"G#4","midi":68,"time":79.0078125,"velocity":0.7637795275590551,"duration":0.1341145833333286},{"name":"D3","midi":50,"time":79.14713541666666,"velocity":0.7637795275590551,"duration":1.096354166666643},{"name":"G#4","midi":68,"time":79.14713541666666,"velocity":0.7637795275590551,"duration":0.4114583333333144},{"name":"F3","midi":53,"time":79.32031249999999,"velocity":0.7637795275590551,"duration":1.096354166666643},{"name":"A#3","midi":58,"time":79.49348958333331,"velocity":0.7637795275590551,"duration":1.0963541666666572},{"name":"F5","midi":77,"time":79.5638020833333,"velocity":0.7637795275590551,"duration":0.4114583333333286},{"name":"B4","midi":71,"time":79.97916666666663,"velocity":0.7637795275590551,"duration":0.2721354166666714},{"name":"D3","midi":50,"time":80.25651041666663,"velocity":0.7637795275590551,"duration":1.0950520833333286},{"name":"B4","midi":71,"time":80.25651041666663,"velocity":0.7637795275590551,"duration":0.1796875},{"name":"F3","midi":53,"time":80.4309895833333,"velocity":0.7637795275590551,"duration":0.9804687499999858},{"name":"A#4","midi":70,"time":80.4427083333333,"velocity":0.7637795275590551,"duration":0.1796875000000142},{"name":"A#3","midi":58,"time":80.60416666666664,"velocity":0.7637795275590551,"duration":1.0039062499999716},{"name":"B4","midi":71,"time":80.62760416666664,"velocity":0.7637795275590551,"duration":0.1796875},{"name":"A#4","midi":70,"time":80.81249999999997,"velocity":0.7637795275590551,"duration":0.1796875},{"name":"B4","midi":71,"time":80.9973958333333,"velocity":0.7637795275590551,"duration":0.1796875},{"name":"G#4","midi":68,"time":81.18229166666663,"velocity":0.7637795275590551,"duration":0.1796875},{"name":"D#3","midi":51,"time":81.36718749999996,"velocity":0.7637795275590551,"duration":1.0963541666666714},{"name":"F#3","midi":54,"time":81.50520833333329,"velocity":0.7637795275590551,"duration":1.0963541666666856},{"name":"A#3","midi":58,"time":81.64453124999994,"velocity":0.7637795275590551,"duration":1.0963541666666856},{"name":"D#4","midi":63,"time":81.78385416666661,"velocity":0.7637795275590551,"duration":1.0963541666666856},{"name":"F#4","midi":66,"time":81.92187499999994,"velocity":0.7637795275590551,"duration":0.1354166666666714},{"name":"F4","midi":65,"time":82.06119791666661,"velocity":0.7637795275590551,"duration":0.1354166666666714},{"name":"F#4","midi":66,"time":82.19921874999996,"velocity":0.7637795275590551,"duration":0.1354166666666714},{"name":"F4","midi":65,"time":82.33854166666663,"velocity":0.7637795275590551,"duration":0.1354166666666714},{"name":"F#4","midi":66,"time":82.47656249999997,"velocity":0.7637795275590551,"duration":0.4895833333333286},{"name":"D#3","midi":51,"time":82.54687499999997,"velocity":0.7637795275590551,"duration":1.3854166666666146},{"name":"F#3","midi":54,"time":82.6848958333333,"velocity":0.7637795275590551,"duration":1.3854166666666146},{"name":"A#3","midi":58,"time":82.89322916666663,"velocity":0.7637795275590551,"duration":1.3854166666666146},{"name":"D#4","midi":63,"time":83.06640624999997,"velocity":0.7637795275590551,"duration":0.1341145833333286},{"name":"F4","midi":65,"time":83.20572916666663,"velocity":0.7637795275590551,"duration":0.1341145833333286},{"name":"F#4","midi":66,"time":83.34374999999996,"velocity":0.7637795275590551,"duration":0.1341145833333286},{"name":"G#4","midi":68,"time":83.48307291666661,"velocity":0.7637795275590551,"duration":0.1341145833333286},{"name":"A#4","midi":70,"time":83.62239583333327,"velocity":0.7637795275590551,"duration":0.1341145833333286},{"name":"C5","midi":72,"time":83.7604166666666,"velocity":0.7637795275590551,"duration":0.1341145833333286},{"name":"D5","midi":74,"time":83.89973958333326,"velocity":0.7637795275590551,"duration":0.1341145833333286},{"name":"D#3","midi":51,"time":84.03776041666659,"velocity":0.7637795275590551,"duration":1.0963541666666146},{"name":"D#5","midi":75,"time":84.03776041666659,"velocity":0.7637795275590551,"duration":0.1341145833333286},{"name":"F5","midi":77,"time":84.17708333333324,"velocity":0.7637795275590551,"duration":0.1341145833333286},{"name":"F#3","midi":54,"time":84.21093749999991,"velocity":0.7637795275590551,"duration":0.923177083333286},{"name":"F#5","midi":78,"time":84.31510416666657,"velocity":0.7637795275590551,"duration":0.1341145833333286},{"name":"A#3","midi":58,"time":84.38541666666657,"velocity":0.7637795275590551,"duration":0.7499999999999574},{"name":"G#5","midi":80,"time":84.45442708333323,"velocity":0.7637795275590551,"duration":0.1341145833333286},{"name":"F#5","midi":78,"time":84.59244791666656,"velocity":0.7637795275590551,"duration":0.1341145833333286},{"name":"F5","midi":77,"time":84.73177083333321,"velocity":0.7637795275590551,"duration":0.1341145833333286},{"name":"F#5","midi":78,"time":84.87109374999987,"velocity":0.7637795275590551,"duration":0.1341145833333286},{"name":"D#5","midi":75,"time":85.0091145833332,"velocity":0.7637795275590551,"duration":0.1341145833333286},{"name":"G#2","midi":44,"time":85.14843749999986,"velocity":0.7637795275590551,"duration":2.484375},{"name":"B2","midi":47,"time":85.28645833333319,"velocity":0.7637795275590551,"duration":2.3463541666666714},{"name":"E3","midi":52,"time":85.42578124999986,"velocity":0.7637795275590551,"duration":2.2096354166666714},{"name":"G#3","midi":56,"time":85.56380208333319,"velocity":0.7637795275590551,"duration":2.071614583333343},{"name":"E4","midi":64,"time":85.70312499999986,"velocity":0.7637795275590551,"duration":1.9348958333333428},{"name":"G#4","midi":68,"time":85.84114583333319,"velocity":0.7637795275590551,"duration":0.96484375},{"name":"B4","midi":71,"time":85.98046874999986,"velocity":0.7637795275590551,"duration":0.546875},{"name":"E5","midi":76,"time":86.11979166666653,"velocity":0.7637795275590551,"duration":0.828125},{"name":"B4","midi":71,"time":86.53515624999986,"velocity":0.7637795275590551,"duration":0.1341145833333286},{"name":"A4","midi":69,"time":86.67447916666652,"velocity":0.7637795275590551,"duration":0.1341145833333428},{"name":"G#4","midi":68,"time":86.81249999999986,"velocity":0.7637795275590551,"duration":0.8281250000000142},{"name":"A4","midi":69,"time":87.6458333333332,"velocity":0.7637795275590551,"duration":0.1341145833333286},{"name":"B4","midi":71,"time":87.78385416666653,"velocity":0.7637795275590551,"duration":0.1341145833333286},{"name":"E4","midi":64,"time":87.92317708333319,"velocity":0.7637795275590551,"duration":0.828125},{"name":"F#4","midi":66,"time":88.75520833333319,"velocity":0.7637795275590551,"duration":0.1341145833333286},{"name":"G#4","midi":68,"time":88.89453124999984,"velocity":0.7637795275590551,"duration":0.1341145833333286},{"name":"G#2","midi":44,"time":89.03255208333317,"velocity":0.7637795275590551,"duration":1.6601562499999858},{"name":"D4","midi":62,"time":89.03255208333317,"velocity":0.7637795275590551,"duration":0.828125},{"name":"F3","midi":53,"time":89.20703124999984,"velocity":0.7637795275590551,"duration":1.6601562499999858},{"name":"A#3","midi":58,"time":89.38020833333317,"velocity":0.7637795275590551,"duration":1.66015625},{"name":"F4","midi":65,"time":89.8658854166665,"velocity":0.7637795275590551,"duration":0.1341145833333286},{"name":"G#4","midi":68,"time":90.00390624999983,"velocity":0.7637795275590551,"duration":0.1341145833333286},{"name":"B4","midi":71,"time":90.14322916666649,"velocity":0.7637795275590551,"duration":0.8281250000000142},{"name":"A#4","midi":70,"time":90.9752604166665,"velocity":0.7637795275590551,"duration":0.1341145833333428},{"name":"G#4","midi":68,"time":91.11458333333317,"velocity":0.7637795275590551,"duration":0.1341145833333286},{"name":"F5","midi":77,"time":91.2526041666665,"velocity":0.7637795275590551,"duration":0.828125},{"name":"D#5","midi":75,"time":92.08593749999983,"velocity":0.7637795275590551,"duration":0.1341145833333286},{"name":"D5","midi":74,"time":92.22395833333316,"velocity":0.7637795275590551,"duration":0.1341145833333286},{"name":"B5","midi":83,"time":92.36328124999982,"velocity":0.7637795275590551,"duration":0.2721354166666714},{"name":"A5","midi":81,"time":92.70963541666649,"velocity":0.7637795275590551,"duration":0.8294270833333286},{"name":"A#5","midi":82,"time":93.54296874999982,"velocity":0.7637795275590551,"duration":0.69140625},{"name":"A#2","midi":46,"time":93.95833333333314,"velocity":0.7637795275590551,"duration":1.2278645833333428},{"name":"D#3","midi":51,"time":94.09765624999982,"velocity":0.7637795275590551,"duration":1.0963541666666714},{"name":"F#3","midi":54,"time":94.23567708333314,"velocity":0.7637795275590551,"duration":1.0963541666666714},{"name":"A#3","midi":58,"time":94.37499999999982,"velocity":0.7637795275590551,"duration":1.2278645833333286},{"name":"F#4","midi":66,"time":94.51302083333314,"velocity":0.7637795275590551,"duration":1.10546875},{"name":"A#4","midi":70,"time":94.65234374999982,"velocity":0.7637795275590551,"duration":1.1054687499999858},{"name":"D#5","midi":75,"time":94.79166666666649,"velocity":0.7637795275590551,"duration":1.3828124999999716},{"name":"A#2","midi":46,"time":95.34635416666649,"velocity":0.7637795275590551,"duration":1.5898437499999858},{"name":"F3","midi":53,"time":95.48437499999982,"velocity":0.7637795275590551,"duration":1.4401041666666572},{"name":"G#3","midi":56,"time":95.62369791666647,"velocity":0.7637795275590551,"duration":1.09765625},{"name":"A#3","midi":58,"time":95.76302083333313,"velocity":0.7637795275590551,"duration":1.3333333333333286},{"name":"F4","midi":65,"time":95.90104166666646,"velocity":0.7637795275590551,"duration":1.0963541666666714},{"name":"A#4","midi":70,"time":96.04036458333313,"velocity":0.7637795275590551,"duration":1.3111979166666714},{"name":"D5","midi":74,"time":96.17838541666646,"velocity":0.7637795275590551,"duration":0.1354166666666714},{"name":"D#5","midi":75,"time":96.31770833333313,"velocity":0.7637795275590551,"duration":0.1354166666666714},{"name":"D5","midi":74,"time":96.45572916666647,"velocity":0.7637795275590551,"duration":0.1354166666666714},{"name":"D#5","midi":75,"time":96.59505208333314,"velocity":0.7637795275590551,"duration":0.1354166666666572},{"name":"D5","midi":74,"time":96.73307291666647,"velocity":0.7637795275590551,"duration":0.1354166666666714},{"name":"D#5","midi":75,"time":96.87239583333314,"velocity":0.7637795275590551,"duration":0.6536458333333144},{"name":"B2","midi":47,"time":96.9882812499998,"velocity":0.7637795275590551,"duration":1.0963541666666572},{"name":"B3","midi":59,"time":97.12630208333313,"velocity":0.7637795275590551,"duration":1.0963541666666572},{"name":"D#4","midi":63,"time":97.2656249999998,"velocity":0.7637795275590551,"duration":1.096354166666643},{"name":"A#4","midi":70,"time":97.40364583333313,"velocity":0.7637795275590551,"duration":1.096354166666643},{"name":"D#5","midi":75,"time":97.54296874999979,"velocity":0.7637795275590551,"duration":3.3216145833332718},{"name":"G#4","midi":68,"time":98.09765624999979,"velocity":0.7637795275590551,"duration":0.1796875},{"name":"G4","midi":67,"time":98.28255208333312,"velocity":0.7637795275590551,"duration":0.1796875},{"name":"G#4","midi":68,"time":98.46744791666644,"velocity":0.7637795275590551,"duration":0.1796875},{"name":"B3","midi":59,"time":98.65364583333312,"velocity":0.7637795275590551,"duration":1.096354166666643},{"name":"A#4","midi":70,"time":98.65364583333312,"velocity":0.7637795275590551,"duration":0.1796875},{"name":"D#4","midi":63,"time":98.82682291666644,"velocity":0.7637795275590551,"duration":1.096354166666643},{"name":"G#4","midi":68,"time":98.83854166666644,"velocity":0.7637795275590551,"duration":0.1796875},{"name":"A#4","midi":70,"time":99.02343749999977,"velocity":0.7637795275590551,"duration":0.1796875},{"name":"G#4","midi":68,"time":99.2083333333331,"velocity":0.7637795275590551,"duration":0.1796875},{"name":"A#4","midi":70,"time":99.39322916666643,"velocity":0.7637795275590551,"duration":0.1796875},{"name":"G#4","midi":68,"time":99.57812499999976,"velocity":0.7637795275590551,"duration":0.1796875},{"name":"B3","midi":59,"time":99.76302083333309,"velocity":0.7637795275590551,"duration":1.096354166666643},{"name":"A#4","midi":70,"time":99.76302083333309,"velocity":0.7637795275590551,"duration":0.1796875},{"name":"D#4","midi":63,"time":99.93619791666642,"velocity":0.7637795275590551,"duration":1.096354166666643},{"name":"G#4","midi":68,"time":99.94791666666642,"velocity":0.7637795275590551,"duration":0.1796875},{"name":"A#4","midi":70,"time":100.13281249999974,"velocity":0.7637795275590551,"duration":0.1796875},{"name":"G#4","midi":68,"time":100.31770833333307,"velocity":0.7637795275590551,"duration":0.1796875},{"name":"G4","midi":67,"time":100.5026041666664,"velocity":0.7637795275590551,"duration":0.1796875},{"name":"G#4","midi":68,"time":100.68749999999973,"velocity":0.7637795275590551,"duration":0.1796875},{"name":"G3","midi":55,"time":100.87239583333306,"velocity":0.7637795275590551,"duration":1.0963541666666714},{"name":"A#4","midi":70,"time":100.87239583333306,"velocity":0.7637795275590551,"duration":0.5494791666666714},{"name":"A#3","midi":58,"time":101.04687499999973,"velocity":0.7637795275590551,"duration":1.0963541666666714},{"name":"D#4","midi":63,"time":101.22005208333306,"velocity":0.7637795275590551,"duration":1.0963541666666714},{"name":"D#5","midi":75,"time":101.4283854166664,"velocity":0.7637795275590551,"duration":1.2434895833333286},{"name":"G3","midi":55,"time":101.9830729166664,"velocity":0.7637795275590551,"duration":1.0859375},{"name":"A#3","midi":58,"time":102.15624999999973,"velocity":0.7637795275590551,"duration":1.0455729166666714},{"name":"D#4","midi":63,"time":102.32942708333306,"velocity":0.7637795275590551,"duration":1.0026041666666714},{"name":"D#5","midi":75,"time":102.67708333333306,"velocity":0.7637795275590551,"duration":0.1588541666666714},{"name":"C#5","midi":73,"time":102.85546874999973,"velocity":0.7637795275590551,"duration":0.1627604166666714},{"name":"B4","midi":71,"time":103.04036458333307,"velocity":0.7637795275590551,"duration":0.1966145833333286},{"name":"G3","midi":55,"time":103.0924479166664,"velocity":0.7637795275590551,"duration":1.0963541666666714},{"name":"A#3","midi":58,"time":103.23177083333307,"velocity":0.7637795275590551,"duration":0.9127604166666714},{"name":"D#4","midi":63,"time":103.3424479166664,"velocity":0.7637795275590551,"duration":1.02734375},{"name":"C#5","midi":73,"time":103.4166666666664,"velocity":0.7637795275590551,"duration":0.62109375},{"name":"A#4","midi":70,"time":104.06380208333307,"velocity":0.7637795275590551,"duration":0.2721354166666714},{"name":"G#3","midi":56,"time":104.20312499999974,"velocity":0.7637795275590551,"duration":1.0963541666666572},{"name":"B3","midi":59,"time":104.34114583333307,"velocity":0.7637795275590551,"duration":1.0963541666666572},{"name":"D#4","midi":63,"time":104.48046874999973,"velocity":0.7637795275590551,"duration":1.6601562499999858},{"name":"G#4","midi":68,"time":104.6197916666664,"velocity":0.7637795275590551,"duration":1.6601562499999716},{"name":"B4","midi":71,"time":104.75781249999973,"velocity":0.7637795275590551,"duration":1.2330729166666572},{"name":"E3","midi":52,"time":105.52083333333306,"velocity":0.7637795275590551,"duration":1.0091145833333002},{"name":"D#4","midi":63,"time":106.14583333333304,"velocity":0.7637795275590551,"duration":0.1341145833333286},{"name":"B4","midi":71,"time":106.14583333333304,"velocity":0.7637795275590551,"duration":0.1341145833333286},{"name":"C#4","midi":61,"time":106.28385416666637,"velocity":0.7637795275590551,"duration":0.1341145833333286},{"name":"A#4","midi":70,"time":106.28385416666637,"velocity":0.7637795275590551,"duration":0.1341145833333286},{"name":"B3","midi":59,"time":106.42317708333303,"velocity":0.7637795275590551,"duration":0.1341145833333286},{"name":"G#4","midi":68,"time":106.42317708333303,"velocity":0.7637795275590551,"duration":0.1341145833333286},{"name":"C#4","midi":61,"time":106.56119791666636,"velocity":0.7637795275590551,"duration":0.828125},{"name":"A#4","midi":70,"time":106.56119791666636,"velocity":0.7637795275590551,"duration":0.828125},{"name":"E3","midi":52,"time":106.56119791666636,"velocity":0.7637795275590551,"duration":1.0963541666666572},{"name":"G4","midi":67,"time":107.39453124999969,"velocity":0.7637795275590551,"duration":0.2721354166666572},{"name":"A#3","midi":58,"time":107.39453124999969,"velocity":0.7637795275590551,"duration":0.2721354166666572},{"name":"F3","midi":53,"time":107.67187499999967,"velocity":0.7637795275590551,"duration":1.7981770833333286},{"name":"B3","midi":59,"time":107.67187499999967,"velocity":0.7637795275590551,"duration":1.0963541666666572},{"name":"D4","midi":62,"time":107.845052083333,"velocity":0.7637795275590551,"duration":1.0963541666666572},{"name":"G#4","midi":68,"time":108.01822916666633,"velocity":0.7637795275590551,"duration":1.0963541666666714},{"name":"B3","midi":59,"time":108.78124999999966,"velocity":0.7637795275590551,"duration":1.0963541666666572},{"name":"D4","midi":62,"time":108.95572916666633,"velocity":0.7637795275590551,"duration":1.096354166666643},{"name":"G#4","midi":68,"time":109.12890624999967,"velocity":0.7637795275590551,"duration":1.0963541666666288},{"name":"F#3","midi":54,"time":109.47526041666633,"velocity":0.7637795275590551,"duration":0.1341145833333286},{"name":"F3","midi":53,"time":109.61458333333299,"velocity":0.7637795275590551,"duration":0.1341145833333286},{"name":"D#3","midi":51,"time":109.75260416666632,"velocity":0.7637795275590551,"duration":0.1341145833333286},{"name":"F3","midi":53,"time":109.89192708333297,"velocity":0.7637795275590551,"duration":0.4114583333333286},{"name":"B3","midi":59,"time":109.89192708333297,"velocity":0.7637795275590551,"duration":1.0963541666666288},{"name":"D4","midi":62,"time":110.0651041666663,"velocity":0.7637795275590551,"duration":1.0963541666666288},{"name":"G#4","midi":68,"time":110.23828124999963,"velocity":0.7637795275590551,"duration":1.096354166666643},{"name":"F#3","midi":54,"time":110.30859374999963,"velocity":0.7637795275590551,"duration":0.1341145833333286},{"name":"G#3","midi":56,"time":110.44661458333296,"velocity":0.7637795275590551,"duration":0.1341145833333286},{"name":"F3","midi":53,"time":110.58593749999962,"velocity":0.7637795275590551,"duration":0.1341145833333286},{"name":"F#3","midi":54,"time":110.72395833333294,"velocity":0.7637795275590551,"duration":0.1341145833333286},{"name":"G#3","midi":56,"time":110.8632812499996,"velocity":0.7637795275590551,"duration":0.1341145833333286},{"name":"D3","midi":50,"time":111.00130208333293,"velocity":0.7637795275590551,"duration":1.7981770833333428},{"name":"B3","midi":59,"time":111.00130208333293,"velocity":0.7637795275590551,"duration":1.0963541666666856},{"name":"F4","midi":65,"time":111.1757812499996,"velocity":0.7637795275590551,"duration":1.0963541666666856},{"name":"G#4","midi":68,"time":111.34895833333294,"velocity":0.7637795275590551,"duration":1.0963541666666714},{"name":"B3","midi":59,"time":112.11197916666629,"velocity":0.7637795275590551,"duration":1.096354166666643},{"name":"F4","midi":65,"time":112.28515624999962,"velocity":0.7637795275590551,"duration":1.096354166666643},{"name":"G#4","midi":68,"time":112.45833333333294,"velocity":0.7637795275590551,"duration":1.0963541666666572},{"name":"D#3","midi":51,"time":112.80598958333294,"velocity":0.7637795275590551,"duration":0.1341145833333286},{"name":"D3","midi":50,"time":112.94401041666627,"velocity":0.7637795275590551,"duration":0.1341145833333286},{"name":"C3","midi":48,"time":113.08333333333293,"velocity":0.7637795275590551,"duration":0.1341145833333286},{"name":"D3","midi":50,"time":113.22135416666626,"velocity":0.7637795275590551,"duration":0.4114583333333428},{"name":"B3","midi":59,"time":113.22135416666626,"velocity":0.7637795275590551,"duration":1.096354166666643},{"name":"F4","midi":65,"time":113.39583333333293,"velocity":0.7637795275590551,"duration":1.0963541666666288},{"name":"G#4","midi":68,"time":113.56901041666627,"velocity":0.7637795275590551,"duration":1.0963541666666146},{"name":"D#3","midi":51,"time":113.7070312499996,"velocity":0.7637795275590551,"duration":0.1341145833333286},{"name":"F3","midi":53,"time":113.84635416666626,"velocity":0.7637795275590551,"duration":0.1341145833333286},{"name":"D3","midi":50,"time":113.98437499999959,"velocity":0.7637795275590551,"duration":0.1341145833333286},{"name":"D#3","midi":51,"time":114.12369791666625,"velocity":0.7637795275590551,"duration":0.1341145833333286},{"name":"F3","midi":53,"time":114.2630208333329,"velocity":0.7637795275590551,"duration":0.1341145833333286},{"name":"D4","midi":62,"time":114.40104166666623,"velocity":0.7637795275590551,"duration":1.0963541666666572},{"name":"B2","midi":47,"time":114.40104166666623,"velocity":0.7637795275590551,"duration":1.7981770833333428},{"name":"F4","midi":65,"time":114.57421874999956,"velocity":0.7637795275590551,"duration":1.0963541666666714},{"name":"G#4","midi":68,"time":114.74739583333289,"velocity":0.7637795275590551,"duration":1.0963541666666856},{"name":"D4","midi":62,"time":115.51171874999956,"velocity":0.7637795275590551,"duration":1.0963541666666572},{"name":"F4","midi":65,"time":115.6848958333329,"velocity":0.7637795275590551,"duration":1.096354166666643},{"name":"G#4","midi":68,"time":115.85807291666625,"velocity":0.7637795275590551,"duration":1.0963541666666288},{"name":"C#3","midi":49,"time":116.2747395833329,"velocity":0.7637795275590551,"duration":0.1341145833333286},{"name":"B2","midi":47,"time":116.41276041666623,"velocity":0.7637795275590551,"duration":0.1341145833333286},{"name":"A#2","midi":46,"time":116.55208333333289,"velocity":0.7637795275590551,"duration":0.1341145833333286},{"name":"B2","midi":47,"time":116.69010416666622,"velocity":0.7637795275590551,"duration":0.1341145833333286},{"name":"D4","midi":62,"time":116.69010416666622,"velocity":0.7637795275590551,"duration":1.0963541666666146},{"name":"A#2","midi":46,"time":116.82942708333287,"velocity":0.7637795275590551,"duration":0.1341145833333286},{"name":"F4","midi":65,"time":116.86458333333287,"velocity":0.7637795275590551,"duration":1.0963541666666146},{"name":"G#2","midi":44,"time":116.9674479166662,"velocity":0.7637795275590551,"duration":0.1341145833333286},{"name":"G#4","midi":68,"time":117.0377604166662,"velocity":0.7637795275590551,"duration":1.0963541666666146},{"name":"A#2","midi":46,"time":117.10677083333286,"velocity":0.7637795275590551,"duration":0.1341145833333286},{"name":"B2","midi":47,"time":117.24609374999952,"velocity":0.7637795275590551,"duration":0.1341145833333286},{"name":"G#2","midi":44,"time":117.38411458333285,"velocity":0.7637795275590551,"duration":0.1341145833333286},{"name":"A#2","midi":46,"time":117.5234374999995,"velocity":0.7637795275590551,"duration":0.1341145833333286},{"name":"B2","midi":47,"time":117.66145833333283,"velocity":0.7637795275590551,"duration":0.1341145833333286},{"name":"D2","midi":38,"time":117.80078124999949,"velocity":0.7637795275590551,"duration":1.2434895833333144},{"name":"D4","midi":62,"time":117.97395833333282,"velocity":0.7637795275590551,"duration":1.5872395833333144},{"name":"F4","midi":65,"time":118.14713541666615,"velocity":0.7637795275590551,"duration":1.4218749999999858},{"name":"G#4","midi":68,"time":118.32031249999947,"velocity":0.7637795275590551,"duration":1.2486979166666572},{"name":"B4","midi":71,"time":118.5286458333328,"velocity":0.7637795275590551,"duration":1.3854166666666572},{"name":"A#4","midi":70,"time":119.91406249999946,"velocity":0.7637795275590551,"duration":0.1471354166666714},{"name":"G#4","midi":68,"time":120.06510416666613,"velocity":0.7637795275590551,"duration":0.1471354166666714},{"name":"F#4","midi":66,"time":120.21744791666613,"velocity":0.7637795275590551,"duration":0.1471354166666714},{"name":"F4","midi":65,"time":120.3684895833328,"velocity":0.7637795275590551,"duration":0.1471354166666714},{"name":"D#4","midi":63,"time":120.5208333333328,"velocity":0.7637795275590551,"duration":0.1471354166666714},{"name":"D4","midi":62,"time":120.67187499999947,"velocity":0.7637795275590551,"duration":0.1471354166666714},{"name":"F4","midi":65,"time":120.82421874999947,"velocity":0.7637795275590551,"duration":0.1471354166666714},{"name":"G#4","midi":68,"time":120.97526041666615,"velocity":0.7637795275590551,"duration":0.1471354166666714},{"name":"B4","midi":71,"time":121.12760416666615,"velocity":0.7637795275590551,"duration":0.1471354166666714},{"name":"D5","midi":74,"time":121.27994791666615,"velocity":0.7637795275590551,"duration":0.1471354166666714},{"name":"F5","midi":77,"time":121.43098958333282,"velocity":0.7637795275590551,"duration":0.1471354166666714},{"name":"G#5","midi":80,"time":121.58333333333282,"velocity":0.7637795275590551,"duration":0.1471354166666714},{"name":"B5","midi":83,"time":121.73437499999949,"velocity":0.7637795275590551,"duration":0.1471354166666714},{"name":"A#5","midi":82,"time":121.88671874999949,"velocity":0.7637795275590551,"duration":0.1471354166666714},{"name":"D5","midi":74,"time":122.03776041666616,"velocity":0.7637795275590551,"duration":0.1471354166666714},{"name":"D#5","midi":75,"time":122.19010416666616,"velocity":0.7637795275590551,"duration":0.2213541666666714},{"name":"D5","midi":74,"time":122.4140624999995,"velocity":0.7637795275590551,"duration":0.2213541666666714},{"name":"D#5","midi":75,"time":122.63802083333285,"velocity":0.7637795275590551,"duration":0.69140625},{"name":"D#2","midi":39,"time":123.47916666666617,"velocity":0.7637795275590551,"duration":0.2721354166666714},{"name":"D#3","midi":51,"time":123.47916666666617,"velocity":0.7637795275590551,"duration":0.2721354166666714},{"name":"A#4","midi":70,"time":123.47916666666617,"velocity":0.7637795275590551,"duration":0.2721354166666714},{"name":"F#4","midi":66,"time":123.47916666666617,"velocity":0.7637795275590551,"duration":0.2721354166666714},{"name":"A#2","midi":46,"time":123.77994791666617,"velocity":0.7637795275590551,"duration":1.0963541666666572},{"name":"D#4","midi":63,"time":123.77994791666617,"velocity":0.7637795275590551,"duration":0.5494791666666572},{"name":"G#4","midi":68,"time":123.77994791666617,"velocity":0.7637795275590551,"duration":0.5494791666666572},{"name":"D#3","midi":51,"time":123.9531249999995,"velocity":0.7637795275590551,"duration":1.0963541666666572},{"name":"F#3","midi":54,"time":124.12630208333283,"velocity":0.7637795275590551,"duration":1.0963541666666572},{"name":"F#4","midi":66,"time":124.33463541666616,"velocity":0.7637795275590551,"duration":0.5494791666666714},{"name":"A#2","midi":46,"time":124.99348958333283,"velocity":0.7637795275590551,"duration":1.0950520833333002},{"name":"F#4","midi":66,"time":124.99348958333283,"velocity":0.7637795275590551,"duration":0.1796875},{"name":"D4","midi":62,"time":124.99348958333283,"velocity":0.7637795275590551,"duration":0.549479166666643},{"name":"F3","midi":53,"time":125.16666666666616,"velocity":0.7637795275590551,"duration":0.9231770833333002},{"name":"F4","midi":65,"time":125.17838541666616,"velocity":0.7637795275590551,"duration":0.1796874999999858},{"name":"G#3","midi":56,"time":125.34114583333282,"velocity":0.7637795275590551,"duration":0.7499999999999716},{"name":"F#4","midi":66,"time":125.36328124999947,"velocity":0.7637795275590551,"duration":0.1796875},{"name":"F4","midi":65,"time":125.5481770833328,"velocity":0.7637795275590551,"duration":0.1796875},{"name":"D#4","midi":63,"time":125.73437499999947,"velocity":0.7637795275590551,"duration":0.1796875},{"name":"F4","midi":65,"time":125.9192708333328,"velocity":0.7637795275590551,"duration":0.1796874999999858},{"name":"D#3","midi":51,"time":126.10416666666612,"velocity":0.7637795275590551,"duration":1.0963541666666714},{"name":"G3","midi":55,"time":126.24218749999945,"velocity":0.7637795275590551,"duration":1.0963541666666714},{"name":"A#3","midi":58,"time":126.38151041666612,"velocity":0.7637795275590551,"duration":1.0963541666666572},{"name":"C#4","midi":61,"time":126.51953124999945,"velocity":0.7637795275590551,"duration":1.0963541666666572},{"name":"D#4","midi":63,"time":126.65885416666612,"velocity":0.7637795275590551,"duration":1.3854166666666572},{"name":"D#3","midi":51,"time":127.45703124999945,"velocity":0.7637795275590551,"duration":1.0963541666666146},{"name":"G3","midi":55,"time":127.63020833333277,"velocity":0.7637795275590551,"duration":1.0963541666666288},{"name":"A#3","midi":58,"time":127.8033854166661,"velocity":0.7637795275590551,"duration":1.096354166666643},{"name":"C#4","midi":61,"time":128.02083333333277,"velocity":0.7637795275590551,"duration":1.0963541666666288},{"name":"F4","midi":65,"time":128.23046874999943,"velocity":0.7637795275590551,"duration":0.1432291666666572},{"name":"G4","midi":67,"time":128.3893229166661,"velocity":0.7637795275590551,"duration":0.1432291666666572},{"name":"G#4","midi":68,"time":128.5468749999994,"velocity":0.7637795275590551,"duration":0.1432291666666572},{"name":"D#3","midi":51,"time":128.70572916666606,"velocity":0.7637795275590551,"duration":1.0963541666666856},{"name":"A#4","midi":70,"time":128.70572916666606,"velocity":0.7637795275590551,"duration":0.6888020833333428},{"name":"G3","midi":55,"time":128.8789062499994,"velocity":0.7637795275590551,"duration":1.0963541666666856},{"name":"A#3","midi":58,"time":129.05208333333275,"velocity":0.7637795275590551,"duration":1.0963541666666856},{"name":"C#4","midi":61,"time":129.26822916666606,"velocity":0.7637795275590551,"duration":0.4296875},{"name":"E4","midi":64,"time":129.4453124999994,"velocity":0.7637795275590551,"duration":0.1432291666666572},{"name":"D#4","midi":63,"time":129.59114583333272,"velocity":0.7637795275590551,"duration":0.14322916666668561},{"name":"C#4","midi":61,"time":129.7382812499994,"velocity":0.7637795275590551,"duration":0.14322916666668561},{"name":"C#4","midi":61,"time":129.88411458333275,"velocity":0.7637795275590551,"duration":0.5494791666666856},{"name":"D#3","midi":51,"time":129.88411458333275,"velocity":0.7637795275590551,"duration":1.0963541666666856},{"name":"G#3","midi":56,"time":130.09765624999943,"velocity":0.7637795275590551,"duration":1.05859375},{"name":"B3","midi":59,"time":130.4401041666661,"velocity":0.7637795275590551,"duration":0.9661458333333428},{"name":"D#3","midi":51,"time":130.9947916666661,"velocity":0.7637795275590551,"duration":1.1692708333333712},{"name":"G#3","midi":56,"time":131.20442708333277,"velocity":0.7637795275590551,"duration":1.1679687500000568},{"name":"D#4","midi":63,"time":131.61458333333277,"velocity":0.7637795275590551,"duration":0.1341145833333428},{"name":"F4","midi":65,"time":131.75520833333277,"velocity":0.7637795275590551,"duration":0.1341145833333428},{"name":"G4","midi":67,"time":131.89583333333277,"velocity":0.7637795275590551,"duration":0.1341145833333428},{"name":"G#4","midi":68,"time":132.03515624999946,"velocity":0.7637795275590551,"duration":0.1341145833333428},{"name":"A#4","midi":70,"time":132.17447916666615,"velocity":0.7637795275590551,"duration":0.1341145833333428},{"name":"D#3","midi":51,"time":132.3124999999995,"velocity":0.7637795275590551,"duration":1.0963541666667425},{"name":"B4","midi":71,"time":132.3124999999995,"velocity":0.7637795275590551,"duration":0.1341145833333428},{"name":"A#4","midi":70,"time":132.45182291666617,"velocity":0.7637795275590551,"duration":0.13411458333331439},{"name":"G#3","midi":56,"time":132.48567708333283,"velocity":0.7637795275590551,"duration":1.0963541666667425},{"name":"G#4","midi":68,"time":132.5898437499995,"velocity":0.7637795275590551,"duration":0.1341145833333428},{"name":"F#4","midi":66,"time":132.72916666666617,"velocity":0.7637795275590551,"duration":0.1341145833333428},{"name":"F4","midi":65,"time":132.86848958333286,"velocity":0.7637795275590551,"duration":0.1341145833333428},{"name":"F#4","midi":66,"time":133.0065104166662,"velocity":0.7637795275590551,"duration":0.1341145833333428},{"name":"G#4","midi":68,"time":133.1458333333329,"velocity":0.7637795275590551,"duration":0.1341145833333428},{"name":"F4","midi":65,"time":133.28385416666623,"velocity":0.7637795275590551,"duration":0.1341145833333428},{"name":"D#3","midi":51,"time":133.42317708333292,"velocity":0.7637795275590551,"duration":1.1536458333333144},{"name":"D4","midi":62,"time":133.42317708333292,"velocity":0.7637795275590551,"duration":0.8281249999999716},{"name":"F3","midi":53,"time":133.59635416666623,"velocity":0.7637795275590551,"duration":1.1536458333333428},{"name":"B3","midi":59,"time":134.32421874999955,"velocity":0.7637795275590551,"duration":0.1341145833333428},{"name":"A#3","midi":58,"time":134.46354166666623,"velocity":0.7637795275590551,"duration":0.1341145833333428},{"name":"B3","midi":59,"time":134.60286458333292,"velocity":0.7637795275590551,"duration":0.828125},{"name":"D#3","midi":51,"time":134.60286458333292,"velocity":0.7637795275590551,"duration":1.1536458333333144},{"name":"F3","midi":53,"time":134.79036458333292,"velocity":0.7637795275590551,"duration":1.1536458333333144},{"name":"G#3","midi":56,"time":135.50390624999957,"velocity":0.7637795275590551,"duration":0.2721354166666572},{"name":"D#3","midi":51,"time":135.78124999999957,"velocity":0.7637795275590551,"duration":1.1536458333333428},{"name":"F3","midi":53,"time":136.01562499999957,"velocity":0.7637795275590551,"duration":0.93359375},{"name":"D4","midi":62,"time":136.68359374999957,"velocity":0.7637795275590551,"duration":0.2721354166666572},{"name":"D#3","midi":51,"time":136.96093749999957,"velocity":0.7637795275590551,"duration":3.290364583333286},{"name":"G3","midi":55,"time":137.11979166666623,"velocity":0.7637795275590551,"duration":3.1588541666666288},{"name":"A#3","midi":58,"time":137.2786458333329,"velocity":0.7637795275590551,"duration":2.9830729166666288},{"name":"D#4","midi":63,"time":137.43749999999955,"velocity":0.7637795275590551,"duration":2.7578125},{"name":"D#4","midi":63,"time":140.2096354166662,"velocity":0.7637795275590551,"duration":0.4869791666666572},{"name":"A#4","midi":70,"time":140.8619791666662,"velocity":0.7637795275590551,"duration":0.96875},{"name":"B4","midi":71,"time":141.8385416666662,"velocity":0.7637795275590551,"duration":0.3190104166666572},{"name":"A#4","midi":70,"time":142.16536458333286,"velocity":0.7637795275590551,"duration":0.3190104166666572},{"name":"G#4","midi":68,"time":142.49218749999952,"velocity":0.7637795275590551,"duration":0.3190104166666572},{"name":"F#4","midi":66,"time":142.81901041666617,"velocity":0.7637795275590551,"duration":0.3190104166666572},{"name":"G#4","midi":68,"time":143.14583333333283,"velocity":0.7637795275590551,"duration":0.3190104166666572},{"name":"A#4","midi":70,"time":143.4726562499995,"velocity":0.7637795275590551,"duration":0.5572916666666572},{"name":"D#4","midi":63,"time":144.12369791666615,"velocity":0.7637795275590551,"duration":0.5572916666666572},{"name":"G#4","midi":68,"time":144.77604166666615,"velocity":0.7637795275590551,"duration":0.96875},{"name":"F#4","midi":66,"time":145.75260416666615,"velocity":0.7637795275590551,"duration":0.2708333333333428},{"name":"F4","midi":65,"time":146.07942708333283,"velocity":0.7637795275590551,"duration":0.6263020833333428},{"name":"A#4","midi":70,"time":146.73046874999952,"velocity":0.7637795275590551,"duration":0.4869791666666572},{"name":"D#4","midi":63,"time":146.73046874999952,"velocity":0.7637795275590551,"duration":0.9700520833333144},{"name":"D#5","midi":75,"time":147.38151041666617,"velocity":0.7637795275590551,"duration":0.9726562499999716},{"name":"F4","midi":65,"time":147.70833333333283,"velocity":0.7637795275590551,"duration":0.3190104166666572},{"name":"F#4","midi":66,"time":148.0351562499995,"velocity":0.7637795275590551,"duration":0.6458333333333144},{"name":"F#5","midi":78,"time":148.36197916666615,"velocity":0.7637795275590551,"duration":0.3190104166666572},{"name":"F5","midi":77,"time":148.6888020833328,"velocity":0.7637795275590551,"duration":0.3190104166666572},{"name":"G#4","midi":68,"time":148.6888020833328,"velocity":0.7637795275590551,"duration":0.6458333333333144},{"name":"D#5","midi":75,"time":149.01432291666612,"velocity":0.7637795275590551,"duration":0.3190104166666572},{"name":"C#5","midi":73,"time":149.34114583333277,"velocity":0.7637795275590551,"duration":0.3190104166666572},{"name":"A#4","midi":70,"time":149.34114583333277,"velocity":0.7637795275590551,"duration":0.9726562499999716},{"name":"D#5","midi":75,"time":149.66796874999943,"velocity":0.7637795275590551,"duration":0.3190104166666572},{"name":"F5","midi":77,"time":149.9947916666661,"velocity":0.7637795275590551,"duration":0.5755208333333144},{"name":"G#4","midi":68,"time":150.32161458333275,"velocity":0.7637795275590551,"duration":0.3190104166666572},{"name":"A#4","midi":70,"time":150.6484374999994,"velocity":0.7637795275590551,"duration":0.5755208333333144},{"name":"F#4","midi":66,"time":150.6484374999994,"velocity":0.7637795275590551,"duration":0.3190104166666572},{"name":"F4","midi":65,"time":150.97526041666606,"velocity":0.7637795275590551,"duration":0.3190104166666572},{"name":"D#5","midi":75,"time":151.30078124999937,"velocity":0.7637795275590551,"duration":0.9726562499999716},{"name":"F#4","midi":66,"time":151.30078124999937,"velocity":0.7637795275590551,"duration":0.3190104166666572},{"name":"F4","midi":65,"time":151.62760416666603,"velocity":0.7637795275590551,"duration":0.1549479166666572},{"name":"D#4","midi":63,"time":151.79166666666603,"velocity":0.7637795275590551,"duration":0.1549479166666572},{"name":"F4","midi":65,"time":151.9544270833327,"velocity":0.7637795275590551,"duration":0.3190104166666572},{"name":"C#5","midi":73,"time":152.28124999999935,"velocity":0.7637795275590551,"duration":0.28515625},{"name":"A#4","midi":70,"time":152.28124999999935,"velocity":0.7637795275590551,"duration":0.64453125},{"name":"C5","midi":72,"time":152.6067708333327,"velocity":0.7637795275590551,"duration":0.64453125},{"name":"A4","midi":69,"time":152.93359374999935,"velocity":0.7637795275590551,"duration":0.3203125},{"name":"A#4","midi":70,"time":153.260416666666,"velocity":0.7637795275590551,"duration":0.97265625},{"name":"C5","midi":72,"time":153.584635416666,"velocity":0.7637795275590551,"duration":0.3190104166666572},{"name":"C#5","midi":73,"time":153.91145833333266,"velocity":0.7637795275590551,"duration":1.625},{"name":"G#4","midi":68,"time":154.23828124999935,"velocity":0.7637795275590551,"duration":0.3190104166666572},{"name":"G4","midi":67,"time":154.565104166666,"velocity":0.7637795275590551,"duration":0.3190104166666572},{"name":"D#4","midi":63,"time":154.89192708333266,"velocity":0.7637795275590551,"duration":0.3190104166666572},{"name":"G#4","midi":68,"time":155.21874999999932,"velocity":0.7637795275590551,"duration":0.97265625},{"name":"B4","midi":71,"time":155.54427083333266,"velocity":0.7637795275590551,"duration":0.3190104166666572},{"name":"A#4","midi":70,"time":155.87109374999932,"velocity":0.7637795275590551,"duration":0.6458333333333144},{"name":"F#4","midi":66,"time":156.19791666666598,"velocity":0.7637795275590551,"duration":0.3190104166666572},{"name":"D#5","midi":75,"time":156.52473958333263,"velocity":0.7637795275590551,"duration":0.9726562499999716},{"name":"F4","midi":65,"time":156.52473958333263,"velocity":0.7637795275590551,"duration":0.3190104166666572},{"name":"D#4","midi":63,"time":156.8515624999993,"velocity":0.7637795275590551,"duration":0.3190104166666572},{"name":"F4","midi":65,"time":157.17838541666595,"velocity":0.7637795275590551,"duration":0.6458333333333144},{"name":"D5","midi":74,"time":157.5052083333326,"velocity":0.7637795275590551,"duration":0.3190104166666572},{"name":"D#5","midi":75,"time":157.83072916666592,"velocity":0.7637795275590551,"duration":0.3190104166666572},{"name":"F#4","midi":66,"time":157.83072916666592,"velocity":0.7637795275590551,"duration":0.3190104166666572},{"name":"F5","midi":77,"time":158.15755208333258,"velocity":0.7637795275590551,"duration":0.3190104166666572},{"name":"G#4","midi":68,"time":158.15755208333258,"velocity":0.7637795275590551,"duration":0.3190104166666572},{"name":"F#5","midi":78,"time":158.48437499999923,"velocity":0.7637795275590551,"duration":0.6458333333333428},{"name":"A#4","midi":70,"time":158.48437499999923,"velocity":0.7637795275590551,"duration":0.3190104166666572},{"name":"D#3","midi":51,"time":158.48437499999923,"velocity":0.7637795275590551,"duration":0.48828125},{"name":"C5","midi":72,"time":158.8111979166659,"velocity":0.7637795275590551,"duration":0.3190104166666856},{"name":"F5","midi":77,"time":159.13802083333258,"velocity":0.7637795275590551,"duration":0.3190104166666572},{"name":"D5","midi":74,"time":159.13802083333258,"velocity":0.7637795275590551,"duration":0.3190104166666572},{"name":"A#3","midi":58,"time":159.13802083333258,"velocity":0.7637795275590551,"duration":0.9726562499999716},{"name":"F#5","midi":78,"time":159.46484374999923,"velocity":0.7637795275590551,"duration":0.3190104166666572},{"name":"D#5","midi":75,"time":159.46484374999923,"velocity":0.7637795275590551,"duration":0.3190104166666572},{"name":"G#5","midi":80,"time":159.7916666666659,"velocity":0.7637795275590551,"duration":0.3190104166666572},{"name":"F5","midi":77,"time":159.7916666666659,"velocity":0.7637795275590551,"duration":0.3190104166666572},{"name":"F5","midi":77,"time":160.1171874999992,"velocity":0.7637795275590551,"duration":0.3190104166666572},{"name":"D5","midi":74,"time":160.1171874999992,"velocity":0.7637795275590551,"duration":0.3190104166666572},{"name":"B3","midi":59,"time":160.1171874999992,"velocity":0.7637795275590551,"duration":0.3190104166666572},{"name":"F#5","midi":78,"time":160.44401041666586,"velocity":0.7637795275590551,"duration":0.3190104166666572},{"name":"D#5","midi":75,"time":160.44401041666586,"velocity":0.7637795275590551,"duration":0.3190104166666572},{"name":"A#3","midi":58,"time":160.44401041666586,"velocity":0.7637795275590551,"duration":0.3190104166666572},{"name":"G#5","midi":80,"time":160.77083333333252,"velocity":0.7637795275590551,"duration":0.3190104166666572},{"name":"F5","midi":77,"time":160.77083333333252,"velocity":0.7637795275590551,"duration":0.3190104166666572},{"name":"G#3","midi":56,"time":160.77083333333252,"velocity":0.7637795275590551,"duration":0.3190104166666572},{"name":"A#5","midi":82,"time":161.09765624999918,"velocity":0.7637795275590551,"duration":0.3190104166666572},{"name":"F#5","midi":78,"time":161.09765624999918,"velocity":0.7637795275590551,"duration":0.3190104166666572},{"name":"F#3","midi":54,"time":161.09765624999918,"velocity":0.7637795275590551,"duration":0.3190104166666572},{"name":"G#5","midi":80,"time":161.42447916666583,"velocity":0.7637795275590551,"duration":0.3190104166666572},{"name":"F5","midi":77,"time":161.42447916666583,"velocity":0.7637795275590551,"duration":0.3190104166666572},{"name":"G#3","midi":56,"time":161.42447916666583,"velocity":0.7637795275590551,"duration":0.3190104166666572},{"name":"F#5","midi":78,"time":161.7513020833325,"velocity":0.7637795275590551,"duration":0.3190104166666572},{"name":"D#5","midi":75,"time":161.7513020833325,"velocity":0.7637795275590551,"duration":0.3190104166666572},{"name":"A#3","midi":58,"time":161.7513020833325,"velocity":0.7637795275590551,"duration":0.5755208333333144},{"name":"F5","midi":77,"time":162.07812499999915,"velocity":0.7637795275590551,"duration":0.3190104166666572},{"name":"D5","midi":74,"time":162.07812499999915,"velocity":0.7637795275590551,"duration":0.3190104166666572},{"name":"F#5","midi":78,"time":162.40364583333246,"velocity":0.7637795275590551,"duration":0.6458333333333144},{"name":"D#5","midi":75,"time":162.40364583333246,"velocity":0.7637795275590551,"duration":0.3190104166666572},{"name":"D#3","midi":51,"time":162.40364583333246,"velocity":0.7637795275590551,"duration":0.5755208333333144},{"name":"C#5","midi":73,"time":162.73046874999912,"velocity":0.7637795275590551,"duration":0.3190104166666572},{"name":"F5","midi":77,"time":163.05729166666578,"velocity":0.7637795275590551,"duration":0.3190104166666572},{"name":"B4","midi":71,"time":163.05729166666578,"velocity":0.7637795275590551,"duration":0.6458333333333144},{"name":"G#3","midi":56,"time":163.05729166666578,"velocity":0.7637795275590551,"duration":0.9726562499999716},{"name":"D#5","midi":75,"time":163.38411458333243,"velocity":0.7637795275590551,"duration":0.3190104166666572},{"name":"D5","midi":74,"time":163.7109374999991,"velocity":0.7637795275590551,"duration":0.3190104166666572},{"name":"A#4","midi":70,"time":163.7109374999991,"velocity":0.7637795275590551,"duration":0.6458333333333428},{"name":"D#5","midi":75,"time":164.03776041666575,"velocity":0.7637795275590551,"duration":0.6458333333333428},{"name":"F#3","midi":54,"time":164.03776041666575,"velocity":0.7637795275590551,"duration":0.2786458333333428},{"name":"G#4","midi":68,"time":164.36458333333243,"velocity":0.7637795275590551,"duration":0.6458333333333144},{"name":"F3","midi":53,"time":164.36458333333243,"velocity":0.7637795275590551,"duration":0.6354166666666572},{"name":"D5","midi":74,"time":164.6914062499991,"velocity":0.7637795275590551,"duration":0.3190104166666572},{"name":"D#5","midi":75,"time":165.0169270833324,"velocity":0.7637795275590551,"duration":0.3216145833333428},{"name":"F#4","midi":66,"time":165.0169270833324,"velocity":0.7637795275590551,"duration":0.6510416666666856},{"name":"D#3","midi":51,"time":165.0169270833324,"velocity":0.7637795275590551,"duration":0.6510416666666856},{"name":"C#5","midi":73,"time":165.34635416666575,"velocity":0.7637795275590551,"duration":0.3216145833333428},{"name":"B4","midi":71,"time":165.67708333333243,"velocity":0.7637795275590551,"duration":0.9804687500000284},{"name":"G#4","midi":68,"time":165.67708333333243,"velocity":0.7637795275590551,"duration":0.3216145833333428},{"name":"D#4","midi":63,"time":165.67708333333243,"velocity":0.7637795275590551,"duration":0.6510416666666856},{"name":"F#4","midi":66,"time":166.00651041666578,"velocity":0.7637795275590551,"duration":0.3216145833333428},{"name":"F4","midi":65,"time":166.33593749999912,"velocity":0.7637795275590551,"duration":0.9804687500000284},{"name":"D4","midi":62,"time":166.33593749999912,"velocity":0.7637795275590551,"duration":0.6510416666666856},{"name":"A#4","midi":70,"time":166.66536458333246,"velocity":0.7637795275590551,"duration":0.15625},{"name":"G#4","midi":68,"time":166.82942708333246,"velocity":0.7637795275590551,"duration":0.15625},{"name":"A#4","midi":70,"time":166.9947916666658,"velocity":0.7637795275590551,"duration":0.3216145833333428},{"name":"C#4","midi":61,"time":166.9947916666658,"velocity":0.7637795275590551,"duration":0.6510416666666856},{"name":"B4","midi":71,"time":167.32421874999915,"velocity":0.7637795275590551,"duration":0.15625},{"name":"D#4","midi":63,"time":167.32421874999915,"velocity":0.7637795275590551,"duration":0.15625},{"name":"C#5","midi":73,"time":167.48828124999915,"velocity":0.7637795275590551,"duration":0.15625},{"name":"F4","midi":65,"time":167.48828124999915,"velocity":0.7637795275590551,"duration":0.15625},{"name":"D#5","midi":75,"time":167.6536458333325,"velocity":0.7637795275590551,"duration":0.3216145833333428},{"name":"F#4","midi":66,"time":167.6536458333325,"velocity":0.7637795275590551,"duration":0.3216145833333428},{"name":"C4","midi":60,"time":167.6536458333325,"velocity":0.7637795275590551,"duration":0.6510416666666856},{"name":"F5","midi":77,"time":167.98307291666583,"velocity":0.7637795275590551,"duration":0.15625},{"name":"G#4","midi":68,"time":167.98307291666583,"velocity":0.7637795275590551,"duration":0.15625},{"name":"F#5","midi":78,"time":168.14843749999918,"velocity":0.7637795275590551,"duration":0.15625},{"name":"A#4","midi":70,"time":168.14843749999918,"velocity":0.7637795275590551,"duration":0.15625},{"name":"F5","midi":77,"time":168.31249999999918,"velocity":0.7637795275590551,"duration":0.3229166666666856},{"name":"G#4","midi":68,"time":168.31249999999918,"velocity":0.7637795275590551,"duration":0.3216145833333428},{"name":"B3","midi":59,"time":168.31249999999918,"velocity":0.7637795275590551,"duration":0.6510416666666856},{"name":"D#5","midi":75,"time":168.64192708333252,"velocity":0.7637795275590551,"duration":0.3229166666666856},{"name":"F#4","midi":66,"time":168.64192708333252,"velocity":0.7637795275590551,"duration":0.15625},{"name":"G#4","midi":68,"time":168.80729166666586,"velocity":0.7637795275590551,"duration":0.15625},{"name":"D5","midi":74,"time":168.97135416666586,"velocity":0.7637795275590551,"duration":0.6510416666666572},{"name":"A#4","midi":70,"time":168.97135416666586,"velocity":0.7637795275590551,"duration":0.3216145833333428},{"name":"A#3","midi":58,"time":168.97135416666586,"velocity":0.7637795275590551,"duration":0.4921875},{"name":"G#4","midi":68,"time":169.3007812499992,"velocity":0.7637795275590551,"duration":0.3216145833333144},{"name":"A#2","midi":46,"time":169.3007812499992,"velocity":0.7637795275590551,"duration":0.2721354166666572},{"name":"D#5","midi":75,"time":169.63020833333252,"velocity":0.7637795275590551,"duration":0.3216145833333428},{"name":"F#4","midi":66,"time":169.63020833333252,"velocity":0.7637795275590551,"duration":0.3216145833333428},{"name":"D#3","midi":51,"time":169.63020833333252,"velocity":0.7637795275590551,"duration":0.9804687500000284},{"name":"C#5","midi":73,"time":169.9609374999992,"velocity":0.7637795275590551,"duration":0.3216145833333428},{"name":"F4","midi":65,"time":169.9609374999992,"velocity":0.7637795275590551,"duration":0.3216145833333428},{"name":"B4","midi":71,"time":170.29036458333255,"velocity":0.7637795275590551,"duration":0.3216145833333428},{"name":"D#4","midi":63,"time":170.29036458333255,"velocity":0.7637795275590551,"duration":0.6510416666666856},{"name":"A#4","midi":70,"time":170.6197916666659,"velocity":0.7637795275590551,"duration":0.3216145833333428},{"name":"F#3","midi":54,"time":170.6197916666659,"velocity":0.7637795275590551,"duration":0.3216145833333428},{"name":"G#4","midi":68,"time":170.94921874999923,"velocity":0.7637795275590551,"duration":0.3216145833333428},{"name":"D4","midi":62,"time":170.94921874999923,"velocity":0.7637795275590551,"duration":0.3216145833333428},{"name":"F3","midi":53,"time":170.94921874999923,"velocity":0.7637795275590551,"duration":0.3216145833333428},{"name":"F#4","midi":66,"time":171.27864583333258,"velocity":0.7637795275590551,"duration":0.3216145833333428},{"name":"D#4","midi":63,"time":171.27864583333258,"velocity":0.7637795275590551,"duration":0.6510416666666856},{"name":"D#3","midi":51,"time":171.27864583333258,"velocity":0.7637795275590551,"duration":0.3216145833333428},{"name":"F4","midi":65,"time":171.60807291666592,"velocity":0.7637795275590551,"duration":0.3216145833333428},{"name":"D3","midi":50,"time":171.60807291666592,"velocity":0.7637795275590551,"duration":0.3216145833333428},{"name":"F#4","midi":66,"time":171.93749999999926,"velocity":0.7637795275590551,"duration":0.3216145833333428},{"name":"D#4","midi":63,"time":171.93749999999926,"velocity":0.7637795275590551,"duration":0.3216145833333428},{"name":"D#3","midi":51,"time":171.93749999999926,"velocity":0.7637795275590551,"duration":0.3216145833333428},{"name":"G#4","midi":68,"time":172.2669270833326,"velocity":0.7637795275590551,"duration":0.9804687500000284},{"name":"D4","midi":62,"time":172.2669270833326,"velocity":0.7637795275590551,"duration":0.3216145833333428},{"name":"F3","midi":53,"time":172.2669270833326,"velocity":0.7637795275590551,"duration":0.5807291666666856},{"name":"C4","midi":60,"time":172.59635416666595,"velocity":0.7637795275590551,"duration":0.3216145833333428},{"name":"D4","midi":62,"time":172.9257812499993,"velocity":0.7637795275590551,"duration":0.6523437500000284},{"name":"A#2","midi":46,"time":172.9257812499993,"velocity":0.7637795275590551,"duration":0.5820312500000284},{"name":"F#4","midi":66,"time":173.25520833333263,"velocity":0.7637795275590551,"duration":0.15625},{"name":"F4","midi":65,"time":173.42057291666598,"velocity":0.7637795275590551,"duration":0.15885416666668561},{"name":"F#4","midi":66,"time":173.58723958333266,"velocity":0.7637795275590551,"duration":0.3216145833333428},{"name":"D#4","midi":63,"time":173.58723958333266,"velocity":0.7637795275590551,"duration":0.3216145833333428},{"name":"D#3","midi":51,"time":173.58723958333266,"velocity":0.7637795275590551,"duration":0.9804687500000284},{"name":"G#4","midi":68,"time":173.916666666666,"velocity":0.7637795275590551,"duration":0.3216145833333428},{"name":"F4","midi":65,"time":173.916666666666,"velocity":0.7637795275590551,"duration":0.3216145833333428},{"name":"A#4","midi":70,"time":174.24609374999935,"velocity":0.7637795275590551,"duration":0.6510416666666572},{"name":"F#4","midi":66,"time":174.24609374999935,"velocity":0.7637795275590551,"duration":0.6510416666666572},{"name":"C#3","midi":49,"time":174.5755208333327,"velocity":0.7637795275590551,"duration":0.2955729166666572},{"name":"B4","midi":71,"time":174.904947916666,"velocity":0.7637795275590551,"duration":0.3216145833333428},{"name":"G#4","midi":68,"time":174.904947916666,"velocity":0.7637795275590551,"duration":0.3216145833333428},{"name":"B2","midi":47,"time":174.904947916666,"velocity":0.7637795275590551,"duration":1.3098958333333712},{"name":"C#5","midi":73,"time":175.23437499999935,"velocity":0.7637795275590551,"duration":0.15625},{"name":"F#4","midi":66,"time":175.23437499999935,"velocity":0.7637795275590551,"duration":0.3216145833333428},{"name":"D#5","midi":75,"time":175.3997395833327,"velocity":0.7637795275590551,"duration":0.15625},{"name":"G#4","midi":68,"time":175.5638020833327,"velocity":0.7637795275590551,"duration":0.6497395833333428},{"name":"F4","midi":65,"time":175.5638020833327,"velocity":0.7637795275590551,"duration":0.3216145833333428},{"name":"C#4","midi":61,"time":175.89322916666603,"velocity":0.7637795275590551,"duration":0.3216145833333428},{"name":"F#4","midi":66,"time":176.22265624999937,"velocity":0.7637795275590551,"duration":1.3098958333333712},{"name":"A#2","midi":46,"time":176.22265624999937,"velocity":0.7637795275590551,"duration":0.6510416666666856},{"name":"A#4","midi":70,"time":176.55208333333272,"velocity":0.7637795275590551,"duration":0.3216145833333428},{"name":"B4","midi":71,"time":176.88151041666606,"velocity":0.7637795275590551,"duration":0.3216145833333428},{"name":"G#2","midi":44,"time":176.88151041666606,"velocity":0.7637795275590551,"duration":0.3216145833333428},{"name":"C#5","midi":73,"time":177.2109374999994,"velocity":0.7637795275590551,"duration":0.3216145833333428},{"name":"A#2","midi":46,"time":177.2109374999994,"velocity":0.7637795275590551,"duration":0.3216145833333428},{"name":"D#5","midi":75,"time":177.5416666666661,"velocity":0.7637795275590551,"duration":0.3216145833333428},{"name":"F4","midi":65,"time":177.5416666666661,"velocity":0.7637795275590551,"duration":0.9830729166666856},{"name":"B2","midi":47,"time":177.5416666666661,"velocity":0.7637795275590551,"duration":0.3216145833333428},{"name":"F5","midi":77,"time":177.87109374999943,"velocity":0.7637795275590551,"duration":0.3216145833333428},{"name":"C#3","midi":49,"time":177.87109374999943,"velocity":0.7637795275590551,"duration":0.3216145833333428},{"name":"F#5","midi":78,"time":178.20052083333277,"velocity":0.7637795275590551,"duration":0.3216145833333428},{"name":"D#3","midi":51,"time":178.20052083333277,"velocity":0.7637795275590551,"duration":0.3216145833333428},{"name":"G#5","midi":80,"time":178.52864583333277,"velocity":0.7637795275590551,"duration":0.3216145833333428},{"name":"F3","midi":53,"time":178.52864583333277,"velocity":0.7637795275590551,"duration":0.3216145833333428},{"name":"A#5","midi":82,"time":178.85807291666612,"velocity":0.7637795275590551,"duration":0.3216145833333428},{"name":"D#4","midi":63,"time":178.85807291666612,"velocity":0.7637795275590551,"duration":0.6510416666666856},{"name":"F#3","midi":54,"time":178.85807291666612,"velocity":0.7637795275590551,"duration":0.3216145833333428},{"name":"B5","midi":83,"time":179.18749999999946,"velocity":0.7637795275590551,"duration":0.6510416666666856},{"name":"G#3","midi":56,"time":179.18749999999946,"velocity":0.7637795275590551,"duration":0.3216145833333428},{"name":"C#4","midi":61,"time":179.5169270833328,"velocity":0.7637795275590551,"duration":0.3216145833333428},{"name":"A#3","midi":58,"time":179.5169270833328,"velocity":0.7637795275590551,"duration":0.3216145833333428},{"name":"C#5","midi":73,"time":179.84635416666615,"velocity":0.7637795275590551,"duration":0.3216145833333428},{"name":"F4","midi":65,"time":179.84635416666615,"velocity":0.7637795275590551,"duration":0.3216145833333428},{"name":"G#3","midi":56,"time":179.84635416666615,"velocity":0.7637795275590551,"duration":0.3216145833333428},{"name":"F#5","midi":78,"time":180.1757812499995,"velocity":0.7637795275590551,"duration":1.3098958333333712},{"name":"F#4","midi":66,"time":180.1757812499995,"velocity":0.7637795275590551,"duration":0.3216145833333428},{"name":"A#3","midi":58,"time":180.1757812499995,"velocity":0.7637795275590551,"duration":0.3216145833333428},{"name":"G#4","midi":68,"time":180.50520833333283,"velocity":0.7637795275590551,"duration":0.3216145833333428},{"name":"B3","midi":59,"time":180.50520833333283,"velocity":0.7637795275590551,"duration":0.3216145833333428},{"name":"A#4","midi":70,"time":180.83463541666617,"velocity":0.7637795275590551,"duration":0.3216145833333428},{"name":"C#4","midi":61,"time":180.83463541666617,"velocity":0.7637795275590551,"duration":0.6510416666666856},{"name":"B4","midi":71,"time":181.16406249999952,"velocity":0.7637795275590551,"duration":0.3216145833333428},{"name":"F5","midi":77,"time":181.49348958333286,"velocity":0.7637795275590551,"duration":1.3098958333333712},{"name":"C#5","midi":73,"time":181.49348958333286,"velocity":0.7637795275590551,"duration":0.3216145833333428},{"name":"C#3","midi":49,"time":181.49348958333286,"velocity":0.7637795275590551,"duration":0.6510416666666856},{"name":"B4","midi":71,"time":181.8229166666662,"velocity":0.7637795275590551,"duration":0.3216145833333428},{"name":"A#4","midi":70,"time":182.1536458333329,"velocity":0.7637795275590551,"duration":0.3216145833333428},{"name":"F#2","midi":42,"time":182.1536458333329,"velocity":0.7637795275590551,"duration":0.6510416666666856},{"name":"G#4","midi":68,"time":182.48307291666623,"velocity":0.7637795275590551,"duration":0.3216145833333428},{"name":"D#5","midi":75,"time":182.81249999999957,"velocity":0.7637795275590551,"duration":0.3216145833333428},{"name":"F#4","midi":66,"time":182.81249999999957,"velocity":0.7637795275590551,"duration":0.3216145833333428},{"name":"F#3","midi":54,"time":182.81249999999957,"velocity":0.7637795275590551,"duration":0.9804687500000284},{"name":"C#5","midi":73,"time":183.14192708333292,"velocity":0.7637795275590551,"duration":0.3216145833333428},{"name":"F4","midi":65,"time":183.14192708333292,"velocity":0.7637795275590551,"duration":0.3216145833333428},{"name":"C5","midi":72,"time":183.47135416666626,"velocity":0.7637795275590551,"duration":0.3216145833333428},{"name":"D#4","midi":63,"time":183.47135416666626,"velocity":0.7637795275590551,"duration":0.3216145833333428},{"name":"D5","midi":74,"time":183.8007812499996,"velocity":0.7637795275590551,"duration":0.3216145833333428},{"name":"F4","midi":65,"time":183.8007812499996,"velocity":0.7637795275590551,"duration":0.3216145833333428},{"name":"F3","midi":53,"time":183.8007812499996,"velocity":0.7637795275590551,"duration":0.3216145833333428},{"name":"D#5","midi":75,"time":184.13020833333294,"velocity":0.7637795275590551,"duration":0.3216145833333428},{"name":"F#4","midi":66,"time":184.13020833333294,"velocity":0.7637795275590551,"duration":0.3216145833333428},{"name":"D#3","midi":51,"time":184.13020833333294,"velocity":0.7637795275590551,"duration":0.3216145833333428},{"name":"F5","midi":77,"time":184.4596354166663,"velocity":0.7637795275590551,"duration":0.3216145833333428},{"name":"A#4","midi":70,"time":184.4596354166663,"velocity":0.7637795275590551,"duration":0.3216145833333428},{"name":"C#3","midi":49,"time":184.4596354166663,"velocity":0.7637795275590551,"duration":0.3216145833333428},{"name":"F#5","midi":78,"time":184.78906249999963,"velocity":0.7637795275590551,"duration":0.6510416666666856},{"name":"D#5","midi":75,"time":184.78906249999963,"velocity":0.7637795275590551,"duration":0.3216145833333428},{"name":"C3","midi":48,"time":184.78906249999963,"velocity":0.7637795275590551,"duration":0.3216145833333428},{"name":"C#5","midi":73,"time":185.11848958333297,"velocity":0.7637795275590551,"duration":0.3216145833333428},{"name":"A#2","midi":46,"time":185.11848958333297,"velocity":0.7637795275590551,"duration":0.3216145833333428},{"name":"F5","midi":77,"time":185.44791666666632,"velocity":0.7637795275590551,"duration":0.3216145833333428},{"name":"C5","midi":72,"time":185.44791666666632,"velocity":0.7637795275590551,"duration":1.3098958333333712},{"name":"A2","midi":45,"time":185.44791666666632,"velocity":0.7637795275590551,"duration":0.3216145833333428},{"name":"D#5","midi":75,"time":185.77734374999966,"velocity":0.7637795275590551,"duration":0.3216145833333428},{"name":"F2","midi":41,"time":185.77734374999966,"velocity":0.7637795275590551,"duration":0.3216145833333428},{"name":"C#5","midi":73,"time":186.106770833333,"velocity":0.7637795275590551,"duration":0.3216145833333428},{"name":"A#2","midi":46,"time":186.106770833333,"velocity":0.7637795275590551,"duration":0.3216145833333428},{"name":"D#5","midi":75,"time":186.4374999999997,"velocity":0.7637795275590551,"duration":0.3216145833333428},{"name":"C3","midi":48,"time":186.4374999999997,"velocity":0.7637795275590551,"duration":0.3216145833333428},{"name":"F5","midi":77,"time":186.76692708333303,"velocity":0.7637795275590551,"duration":0.3216145833333428},{"name":"A#4","midi":70,"time":186.76692708333303,"velocity":0.7637795275590551,"duration":1.3098958333333712},{"name":"C#3","midi":49,"time":186.76692708333303,"velocity":0.7637795275590551,"duration":0.3216145833333428},{"name":"F#5","midi":78,"time":187.09635416666637,"velocity":0.7637795275590551,"duration":0.3216145833333428},{"name":"D#3","midi":51,"time":187.09635416666637,"velocity":0.7637795275590551,"duration":0.3216145833333428},{"name":"C#5","midi":73,"time":187.42578124999972,"velocity":0.7637795275590551,"duration":0.6510416666666856},{"name":"F3","midi":53,"time":187.42578124999972,"velocity":0.7637795275590551,"duration":0.3216145833333428},{"name":"D#3","midi":51,"time":187.75520833333306,"velocity":0.7637795275590551,"duration":0.3216145833333428},{"name":"C#5","midi":73,"time":188.0846354166664,"velocity":0.7637795275590551,"duration":0.11848958333334281},{"name":"A4","midi":69,"time":188.0846354166664,"velocity":0.7637795275590551,"duration":0.6315104166666856},{"name":"F3","midi":53,"time":188.0846354166664,"velocity":0.7637795275590551,"duration":0.6497395833333428},{"name":"C5","midi":72,"time":188.1940104166664,"velocity":0.7637795275590551,"duration":0.11848958333334281},{"name":"C#5","midi":73,"time":188.30468749999974,"velocity":0.7637795275590551,"duration":0.11848958333334281},{"name":"C5","midi":72,"time":188.41406249999974,"velocity":0.7637795275590551,"duration":0.3229166666666856},{"name":"F2","midi":41,"time":188.41406249999974,"velocity":0.7637795275590551,"duration":0.3216145833333428},{"name":"A#4","midi":70,"time":188.7434895833331,"velocity":0.7637795275590551,"duration":1.3281250000000284},{"name":"A#3","midi":58,"time":188.7434895833331,"velocity":0.7637795275590551,"duration":0.4973958333333428},{"name":"A#2","midi":46,"time":188.7434895833331,"velocity":0.7637795275590551,"duration":0.3255208333333428},{"name":"A2","midi":45,"time":189.07812499999977,"velocity":0.7637795275590551,"duration":0.3255208333333144},{"name":"F4","midi":65,"time":189.4114583333331,"velocity":0.7637795275590551,"duration":0.994791666666714},{"name":"A#2","midi":46,"time":189.4114583333331,"velocity":0.7637795275590551,"duration":0.3255208333333428},{"name":"C3","midi":48,"time":189.74479166666643,"velocity":0.7637795275590551,"duration":0.3255208333333428},{"name":"A#4","midi":70,"time":190.07942708333312,"velocity":0.7637795275590551,"duration":0.4973958333333428},{"name":"C#3","midi":49,"time":190.07942708333312,"velocity":0.7637795275590551,"duration":0.3255208333333428},{"name":"F#4","midi":66,"time":190.41276041666646,"velocity":0.7637795275590551,"duration":0.3255208333333428},{"name":"C3","midi":48,"time":190.41276041666646,"velocity":0.7637795275590551,"duration":0.3255208333333428},{"name":"F5","midi":77,"time":190.74739583333314,"velocity":0.7637795275590551,"duration":0.9934895833333712},{"name":"F4","midi":65,"time":190.74739583333314,"velocity":0.7637795275590551,"duration":0.3255208333333428},{"name":"C#3","midi":49,"time":190.74739583333314,"velocity":0.7637795275590551,"duration":0.3255208333333428},{"name":"D#4","midi":63,"time":191.0807291666665,"velocity":0.7637795275590551,"duration":0.3255208333333428},{"name":"D#3","midi":51,"time":191.0807291666665,"velocity":0.7637795275590551,"duration":0.3255208333333428},{"name":"C#4","midi":61,"time":191.41406249999983,"velocity":0.7637795275590551,"duration":0.3255208333333428},{"name":"F3","midi":53,"time":191.41406249999983,"velocity":0.7637795275590551,"duration":0.3255208333333428},{"name":"F#5","midi":78,"time":191.74869791666652,"velocity":0.7637795275590551,"duration":0.3255208333333428},{"name":"D#4","midi":63,"time":191.74869791666652,"velocity":0.7637795275590551,"duration":0.3255208333333428},{"name":"D#3","midi":51,"time":191.74869791666652,"velocity":0.7637795275590551,"duration":0.3255208333333428},{"name":"F5","midi":77,"time":192.08203124999986,"velocity":0.7637795275590551,"duration":0.3255208333333428},{"name":"F4","midi":65,"time":192.08203124999986,"velocity":0.7637795275590551,"duration":0.5872395833333428},{"name":"C#3","midi":49,"time":192.08203124999986,"velocity":0.7637795275590551,"duration":0.3255208333333428},{"name":"D#5","midi":75,"time":192.41666666666654,"velocity":0.7637795275590551,"duration":0.32421875},{"name":"D#3","midi":51,"time":192.41666666666654,"velocity":0.7637795275590551,"duration":0.1588541666666572},{"name":"F3","midi":53,"time":192.58203124999986,"velocity":0.7637795275590551,"duration":0.15885416666668561},{"name":"C#5","midi":73,"time":192.74869791666654,"velocity":0.7637795275590551,"duration":0.32421875},{"name":"A#3","midi":58,"time":192.74869791666654,"velocity":0.7637795275590551,"duration":0.5859375},{"name":"F#3","midi":54,"time":192.74869791666654,"velocity":0.7637795275590551,"duration":0.1588541666666572},{"name":"F3","midi":53,"time":192.9153645833332,"velocity":0.7637795275590551,"duration":0.15885416666668561},{"name":"D#5","midi":75,"time":193.08072916666654,"velocity":0.7637795275590551,"duration":0.32421875},{"name":"F#3","midi":54,"time":193.08072916666654,"velocity":0.7637795275590551,"duration":0.32421875},{"name":"F5","midi":77,"time":193.4140624999999,"velocity":0.7637795275590551,"duration":0.5859375},{"name":"A2","midi":45,"time":193.4140624999999,"velocity":0.7637795275590551,"duration":0.6575520833333428},{"name":"D#4","midi":63,"time":193.7460937499999,"velocity":0.7637795275590551,"duration":0.6588541666666572},{"name":"A#4","midi":70,"time":194.0781249999999,"velocity":0.7637795275590551,"duration":0.98828125},{"name":"A#2","midi":46,"time":194.0781249999999,"velocity":0.7637795275590551,"duration":0.66015625},{"name":"C#4","midi":61,"time":194.41276041666654,"velocity":0.7637795275590551,"duration":0.2825520833333428},{"name":"C4","midi":60,"time":194.7460937499999,"velocity":0.7637795275590551,"duration":0.6471354166666572},{"name":"C3","midi":48,"time":194.7460937499999,"velocity":0.7637795275590551,"duration":0.6575520833333144},{"name":"D#5","midi":75,"time":195.0781249999999,"velocity":0.7637795275590551,"duration":0.6588541666666572},{"name":"A#3","midi":58,"time":195.4114583333332,"velocity":0.7637795275590551,"duration":0.9934895833333428},{"name":"C#3","midi":49,"time":195.4114583333332,"velocity":0.7637795275590551,"duration":0.3255208333333428},{"name":"C#5","midi":73,"time":195.74479166666654,"velocity":0.7637795275590551,"duration":0.2994791666666572},{"name":"A#2","midi":46,"time":195.74479166666654,"velocity":0.7637795275590551,"duration":0.3255208333333144},{"name":"C5","midi":72,"time":196.07812499999986,"velocity":0.7637795275590551,"duration":0.6601562500000284},{"name":"F3","midi":53,"time":196.07812499999986,"velocity":0.7637795275590551,"duration":0.3255208333333428},{"name":"G#4","midi":68,"time":196.41276041666654,"velocity":0.7637795275590551,"duration":0.6601562500000284},{"name":"D#3","midi":51,"time":196.41276041666654,"velocity":0.7637795275590551,"duration":0.3255208333333428},{"name":"A#4","midi":70,"time":196.7460937499999,"velocity":0.7637795275590551,"duration":0.9934895833333712},{"name":"D3","midi":50,"time":196.7460937499999,"velocity":0.7637795275590551,"duration":0.3255208333333428},{"name":"F#4","midi":66,"time":197.08072916666657,"velocity":0.7637795275590551,"duration":0.3255208333333428},{"name":"D#3","midi":51,"time":197.08072916666657,"velocity":0.7637795275590551,"duration":0.6601562500000284},{"name":"F4","midi":65,"time":197.41406249999991,"velocity":0.7637795275590551,"duration":0.6601562500000284},{"name":"G#5","midi":80,"time":197.74739583333326,"velocity":0.7637795275590551,"duration":0.6601562500000284},{"name":"D3","midi":50,"time":197.74739583333326,"velocity":0.7637795275590551,"duration":0.3255208333333428},{"name":"D#4","midi":63,"time":198.08203124999994,"velocity":0.7637795275590551,"duration":0.9934895833333712},{"name":"D#3","midi":51,"time":198.08203124999994,"velocity":0.7637795275590551,"duration":0.3255208333333428},{"name":"F#5","midi":78,"time":198.4153645833333,"velocity":0.7637795275590551,"duration":0.3255208333333428},{"name":"C4","midi":60,"time":198.4153645833333,"velocity":0.7637795275590551,"duration":0.3255208333333428},{"name":"F5","midi":77,"time":198.74999999999997,"velocity":0.7637795275590551,"duration":0.8255208333333428},{"name":"A3","midi":57,"time":198.74999999999997,"velocity":0.7637795275590551,"duration":0.3255208333333428},{"name":"C#4","midi":61,"time":199.08333333333331,"velocity":0.7637795275590551,"duration":0.3255208333333428},{"name":"A#3","midi":58,"time":199.08333333333331,"velocity":0.7637795275590551,"duration":0.3255208333333428},{"name":"A#4","midi":70,"time":199.41666666666666,"velocity":0.7637795275590551,"duration":0.32421875},{"name":"F#3","midi":54,"time":199.41666666666666,"velocity":0.7637795275590551,"duration":0.32421875},{"name":"D#5","midi":75,"time":199.58333333333331,"velocity":0.7637795275590551,"duration":0.15885416666668561},{"name":"F5","midi":77,"time":199.75,"velocity":0.7637795275590551,"duration":0.1588541666666572},{"name":"A4","midi":69,"time":199.75,"velocity":0.7637795275590551,"duration":0.3242187499999716},{"name":"F3","midi":53,"time":199.75,"velocity":0.7637795275590551,"duration":0.3242187499999716},{"name":"F#5","midi":78,"time":199.91536458333331,"velocity":0.7637795275590551,"duration":0.1588541666666572},{"name":"F5","midi":77,"time":200.08203124999997,"velocity":0.7637795275590551,"duration":0.1015625},{"name":"A#4","midi":70,"time":200.08203124999997,"velocity":0.7637795275590551,"duration":0.6549479166666572},{"name":"F#3","midi":54,"time":200.08203124999997,"velocity":0.7637795275590551,"duration":0.6549479166666572},{"name":"D#5","midi":75,"time":200.16536458333331,"velocity":0.7637795275590551,"duration":0.10026041666665719},{"name":"F5","midi":77,"time":200.24869791666663,"velocity":0.7637795275590551,"duration":0.10026041666665719},{"name":"D#5","midi":75,"time":200.33072916666663,"velocity":0.7637795275590551,"duration":0.24609375},{"name":"F5","midi":77,"time":200.5794270833333,"velocity":0.7637795275590551,"duration":0.15885416666668561},{"name":"F5","midi":77,"time":200.74609374999997,"velocity":0.7637795275590551,"duration":0.49609375},{"name":"A4","midi":69,"time":200.74609374999997,"velocity":0.7637795275590551,"duration":0.6575520833333428},{"name":"F3","midi":53,"time":200.74609374999997,"velocity":0.7637795275590551,"duration":0.62109375},{"name":"A#5","midi":82,"time":201.41015624999997,"velocity":0.7637795275590551,"duration":1.0026041666666856},{"name":"A#4","midi":70,"time":201.41015624999997,"velocity":0.7637795275590551,"duration":0.6653645833333428},{"name":"D#5","midi":75,"time":202.08333333333331,"velocity":0.7637795275590551,"duration":1.0026041666666572},{"name":"F#3","midi":54,"time":202.08333333333331,"velocity":0.7637795275590551,"duration":0.55859375},{"name":"B5","midi":83,"time":202.42057291666666,"velocity":0.7637795275590551,"duration":0.3294270833333144},{"name":"A#5","midi":82,"time":202.75781249999997,"velocity":0.7637795275590551,"duration":0.3294270833333428},{"name":"B3","midi":59,"time":202.75781249999997,"velocity":0.7637795275590551,"duration":1.0026041666666856},{"name":"G#5","midi":80,"time":203.09374999999997,"velocity":0.7637795275590551,"duration":0.3294270833333428},{"name":"F5","midi":77,"time":203.09374999999997,"velocity":0.7637795275590551,"duration":0.3294270833333428},{"name":"G5","midi":79,"time":203.43098958333331,"velocity":0.7637795275590551,"duration":0.3294270833333428},{"name":"D#5","midi":75,"time":203.43098958333331,"velocity":0.7637795275590551,"duration":1.0026041666666856},{"name":"G#5","midi":80,"time":203.76822916666666,"velocity":0.7637795275590551,"duration":0.3294270833333428},{"name":"C#4","midi":61,"time":203.76822916666666,"velocity":0.7637795275590551,"duration":0.3294270833333428},{"name":"A#5","midi":82,"time":204.10416666666666,"velocity":0.7637795275590551,"duration":0.59375},{"name":"B3","midi":59,"time":204.10416666666666,"velocity":0.7637795275590551,"duration":0.3294270833333428},{"name":"C#5","midi":73,"time":204.44140625,"velocity":0.7637795275590551,"duration":0.3294270833333144},{"name":"A#3","midi":58,"time":204.44140625,"velocity":0.7637795275590551,"duration":0.3294270833333144},{"name":"D#5","midi":75,"time":204.77734374999997,"velocity":0.7637795275590551,"duration":0.59375},{"name":"C5","midi":72,"time":204.77734374999997,"velocity":0.7637795275590551,"duration":1.0026041666666572},{"name":"G#3","midi":56,"time":204.77734374999997,"velocity":0.7637795275590551,"duration":0.3294270833333428},{"name":"G3","midi":55,"time":205.11458333333331,"velocity":0.7637795275590551,"duration":0.3294270833333144},{"name":"G#5","midi":80,"time":205.45182291666663,"velocity":0.7637795275590551,"duration":1.0026041666666856},{"name":"G#3","midi":56,"time":205.45182291666663,"velocity":0.7637795275590551,"duration":0.3294270833333428},{"name":"C#5","midi":73,"time":205.78776041666663,"velocity":0.7637795275590551,"duration":0.3294270833333428},{"name":"A#3","midi":58,"time":205.78776041666663,"velocity":0.7637795275590551,"duration":0.3294270833333428},{"name":"D#5","midi":75,"time":206.12499999999997,"velocity":0.7637795275590551,"duration":0.6653645833333428},{"name":"C4","midi":60,"time":206.12499999999997,"velocity":0.7637795275590551,"duration":0.6653645833333428},{"name":"F#5","midi":78,"time":206.46223958333331,"velocity":0.7637795275590551,"duration":0.3294270833333428},{"name":"F5","midi":77,"time":206.79817708333331,"velocity":0.7637795275590551,"duration":1.3385416666666856},{"name":"G#4","midi":68,"time":206.79817708333331,"velocity":0.7637795275590551,"duration":0.6653645833333428},{"name":"C#4","midi":61,"time":206.79817708333331,"velocity":0.7637795275590551,"duration":0.3294270833333428},{"name":"B3","midi":59,"time":207.13541666666666,"velocity":0.7637795275590551,"duration":0.3294270833333428},{"name":"C#5","midi":73,"time":207.47265625,"velocity":0.7637795275590551,"duration":1.3385416666666856},{"name":"A#3","midi":58,"time":207.47265625,"velocity":0.7637795275590551,"duration":0.3294270833333428},{"name":"G#3","midi":56,"time":207.80859375,"velocity":0.7637795275590551,"duration":0.3294270833333428},{"name":"D#5","midi":75,"time":208.14583333333334,"velocity":0.7637795275590551,"duration":1.1901041666666856},{"name":"G3","midi":55,"time":208.14583333333334,"velocity":0.7637795275590551,"duration":0.3294270833333428},{"name":"D#3","midi":51,"time":208.48177083333334,"velocity":0.7637795275590551,"duration":0.3294270833333428},{"name":"C5","midi":72,"time":208.81901041666669,"velocity":0.7637795275590551,"duration":1.3385416666666856},{"name":"G#3","midi":56,"time":208.81901041666669,"velocity":0.7637795275590551,"duration":0.3294270833333428},{"name":"A#3","midi":58,"time":209.15625000000003,"velocity":0.7637795275590551,"duration":0.3294270833333428},{"name":"G#5","midi":80,"time":209.49218750000003,"velocity":0.7637795275590551,"duration":1.0026041666666856},{"name":"G#3","midi":56,"time":209.49218750000003,"velocity":0.7637795275590551,"duration":0.3294270833333428},{"name":"F#3","midi":54,"time":209.82942708333337,"velocity":0.7637795275590551,"duration":0.3294270833333428},{"name":"G#4","midi":68,"time":210.1666666666667,"velocity":0.7637795275590551,"duration":0.59375},{"name":"F3","midi":53,"time":210.1666666666667,"velocity":0.7637795275590551,"duration":0.3294270833333428},{"name":"A#5","midi":82,"time":210.5026041666667,"velocity":0.7637795275590551,"duration":0.3294270833333428},{"name":"F#3","midi":54,"time":210.5026041666667,"velocity":0.7637795275590551,"duration":0.3294270833333428},{"name":"G#5","midi":80,"time":210.83984375000006,"velocity":0.7637795275590551,"duration":0.3294270833333428},{"name":"C#5","midi":73,"time":210.83984375000006,"velocity":0.7637795275590551,"duration":1.0026041666666856},{"name":"F3","midi":53,"time":210.83984375000006,"velocity":0.7637795275590551,"duration":0.3294270833333428},{"name":"F#5","midi":78,"time":211.17578125000006,"velocity":0.7637795275590551,"duration":0.3294270833333428},{"name":"D#3","midi":51,"time":211.17578125000006,"velocity":0.7637795275590551,"duration":0.3294270833333428},{"name":"F5","midi":77,"time":211.5130208333334,"velocity":0.7637795275590551,"duration":0.3294270833333428},{"name":"C#3","midi":49,"time":211.5130208333334,"velocity":0.7637795275590551,"duration":0.3294270833333428},{"name":"F#5","midi":78,"time":211.85026041666674,"velocity":0.7637795275590551,"duration":0.3294270833333428},{"name":"D#5","midi":75,"time":211.85026041666674,"velocity":0.7637795275590551,"duration":0.3294270833333428},{"name":"B3","midi":59,"time":211.85026041666674,"velocity":0.7637795275590551,"duration":0.3294270833333428},{"name":"G#5","midi":80,"time":212.18619791666674,"velocity":0.7637795275590551,"duration":0.6653645833333428},{"name":"C#5","midi":73,"time":212.18619791666674,"velocity":0.7637795275590551,"duration":0.3294270833333428},{"name":"A#3","midi":58,"time":212.18619791666674,"velocity":0.7637795275590551,"duration":0.3294270833333428},{"name":"B4","midi":71,"time":212.52343750000009,"velocity":0.7637795275590551,"duration":0.3294270833333428},{"name":"G#3","midi":56,"time":212.52343750000009,"velocity":0.7637795275590551,"duration":0.3294270833333428},{"name":"C#5","midi":73,"time":212.86067708333343,"velocity":0.7637795275590551,"duration":0.5026041666666572},{"name":"A#4","midi":70,"time":212.86067708333343,"velocity":0.7637795275590551,"duration":0.3294270833333428},{"name":"F#3","midi":54,"time":212.86067708333343,"velocity":0.7637795275590551,"duration":0.3294270833333428},{"name":"B4","midi":71,"time":213.19661458333343,"velocity":0.7637795275590551,"duration":0.3294270833333144},{"name":"G#3","midi":56,"time":213.19661458333343,"velocity":0.7637795275590551,"duration":0.3294270833333144},{"name":"F#5","midi":78,"time":213.53385416666674,"velocity":0.7637795275590551,"duration":1.0026041666666856},{"name":"C#5","midi":73,"time":213.53385416666674,"velocity":0.7637795275590551,"duration":0.59375},{"name":"F#3","midi":54,"time":213.53385416666674,"velocity":0.7637795275590551,"duration":0.3294270833333428},{"name":"E3","midi":52,"time":213.86979166666674,"velocity":0.7637795275590551,"duration":0.3294270833333428},{"name":"F#4","midi":66,"time":214.20703125000009,"velocity":0.7637795275590551,"duration":0.59375},{"name":"D#3","midi":51,"time":214.20703125000009,"velocity":0.7637795275590551,"duration":0.3294270833333428},{"name":"E5","midi":76,"time":214.54427083333343,"velocity":0.7637795275590551,"duration":0.3294270833333144},{"name":"C#3","midi":49,"time":214.54427083333343,"velocity":0.7637795275590551,"duration":0.3294270833333144},{"name":"D#5","midi":75,"time":214.8802083333334,"velocity":0.7637795275590551,"duration":0.6640625},{"name":"B4","midi":71,"time":214.8802083333334,"velocity":0.7637795275590551,"duration":1.0026041666666572},{"name":"B2","midi":47,"time":214.8802083333334,"velocity":0.7637795275590551,"duration":0.3294270833333428},{"name":"G#5","midi":80,"time":215.21744791666674,"velocity":0.7637795275590551,"duration":0.6640624999999716},{"name":"G#2","midi":44,"time":215.21744791666674,"velocity":0.7637795275590551,"duration":0.3294270833333144},{"name":"C#5","midi":73,"time":215.55468750000006,"velocity":0.7637795275590551,"duration":0.6640625},{"name":"A#2","midi":46,"time":215.55468750000006,"velocity":0.7637795275590551,"duration":0.3294270833333428},{"name":"F#5","midi":78,"time":215.89062500000006,"velocity":0.7637795275590551,"duration":0.6653645833333428},{"name":"A#4","midi":70,"time":215.89062500000006,"velocity":0.7637795275590551,"duration":0.2994791666666572},{"name":"F#2","midi":42,"time":215.89062500000006,"velocity":0.7637795275590551,"duration":0.3294270833333428},{"name":"G#4","midi":68,"time":216.2278645833334,"velocity":0.7637795275590551,"duration":0.6653645833333428},{"name":"C#3","midi":49,"time":216.2278645833334,"velocity":0.7637795275590551,"duration":0.3294270833333428},{"name":"F5","midi":77,"time":216.56510416666674,"velocity":0.7637795275590551,"duration":0.3294270833333428},{"name":"C#2","midi":37,"time":216.56510416666674,"velocity":0.7637795275590551,"duration":0.3294270833333428},{"name":"F#5","midi":78,"time":216.90104166666674,"velocity":0.7637795275590551,"duration":0.484375},{"name":"F#4","midi":66,"time":216.90104166666674,"velocity":0.7637795275590551,"duration":0.3294270833333428},{"name":"F#2","midi":42,"time":216.90104166666674,"velocity":0.7637795275590551,"duration":0.3294270833333428},{"name":"F4","midi":65,"time":217.23828125000009,"velocity":0.7637795275590551,"duration":0.3294270833333144},{"name":"G#2","midi":44,"time":217.23828125000009,"velocity":0.7637795275590551,"duration":0.3294270833333144},{"name":"C#5","midi":73,"time":217.57421875000006,"velocity":0.7637795275590551,"duration":1.0026041666666856},{"name":"F#4","midi":66,"time":217.57421875000006,"velocity":0.7637795275590551,"duration":0.3294270833333428},{"name":"A#2","midi":46,"time":217.57421875000006,"velocity":0.7637795275590551,"duration":0.3294270833333428},{"name":"G#4","midi":68,"time":217.9114583333334,"velocity":0.7637795275590551,"duration":0.3294270833333428},{"name":"G#2","midi":44,"time":217.9114583333334,"velocity":0.7637795275590551,"duration":0.3294270833333428},{"name":"A#4","midi":70,"time":218.24869791666674,"velocity":0.7637795275590551,"duration":0.3294270833333428},{"name":"F#2","midi":42,"time":218.24869791666674,"velocity":0.7637795275590551,"duration":0.3294270833333428},{"name":"C5","midi":72,"time":218.58463541666674,"velocity":0.7637795275590551,"duration":0.3294270833333428},{"name":"G#4","midi":68,"time":218.58463541666674,"velocity":0.7637795275590551,"duration":0.3294270833333428},{"name":"F#3","midi":54,"time":218.58463541666674,"velocity":0.7637795275590551,"duration":0.3294270833333428},{"name":"C#5","midi":73,"time":218.92187500000009,"velocity":0.7637795275590551,"duration":0.3294270833333428},{"name":"A#4","midi":70,"time":218.92187500000009,"velocity":0.7637795275590551,"duration":0.3294270833333428},{"name":"F3","midi":53,"time":218.92187500000009,"velocity":0.7637795275590551,"duration":0.3294270833333428},{"name":"D#5","midi":75,"time":219.25911458333343,"velocity":0.7637795275590551,"duration":0.3294270833333428},{"name":"C5","midi":72,"time":219.25911458333343,"velocity":0.7637795275590551,"duration":0.3294270833333428},{"name":"D#3","midi":51,"time":219.25911458333343,"velocity":0.7637795275590551,"duration":0.3294270833333428},{"name":"F5","midi":77,"time":219.59505208333343,"velocity":0.7637795275590551,"duration":0.3294270833333428},{"name":"C#5","midi":73,"time":219.59505208333343,"velocity":0.7637795275590551,"duration":0.3294270833333428},{"name":"C#3","midi":49,"time":219.59505208333343,"velocity":0.7637795275590551,"duration":0.6119791666666856},{"name":"D#5","midi":75,"time":219.93229166666677,"velocity":0.7637795275590551,"duration":0.3307291666666856},{"name":"B4","midi":71,"time":219.93229166666677,"velocity":0.7637795275590551,"duration":0.6666666666666856},{"name":"C#5","midi":73,"time":220.27083333333346,"velocity":0.7637795275590551,"duration":0.6653645833333428},{"name":"F#3","midi":54,"time":220.27083333333346,"velocity":0.7637795275590551,"duration":1.3385416666666856},{"name":"A#4","midi":70,"time":220.60677083333346,"velocity":0.7637795275590551,"duration":0.3294270833333428},{"name":"G#5","midi":80,"time":220.9440104166668,"velocity":0.7637795275590551,"duration":0.59375},{"name":"B4","midi":71,"time":220.9440104166668,"velocity":0.7637795275590551,"duration":0.3294270833333428},{"name":"A#4","midi":70,"time":221.2799479166668,"velocity":0.7637795275590551,"duration":0.3294270833333428},{"name":"C#5","midi":73,"time":221.61718750000014,"velocity":0.7637795275590551,"duration":1.0026041666666856},{"name":"G#4","midi":68,"time":221.61718750000014,"velocity":0.7637795275590551,"duration":0.3294270833333428},{"name":"F3","midi":53,"time":221.61718750000014,"velocity":0.7637795275590551,"duration":0.6653645833333428},{"name":"B4","midi":71,"time":221.95442708333348,"velocity":0.7637795275590551,"duration":0.3294270833333428},{"name":"A#4","midi":70,"time":222.29036458333348,"velocity":0.7637795275590551,"duration":1.6757812500000284},{"name":"F#3","midi":54,"time":222.29036458333348,"velocity":0.7637795275590551,"duration":0.3294270833333428},{"name":"D#5","midi":75,"time":222.62760416666683,"velocity":0.7637795275590551,"duration":0.3294270833333428},{"name":"F3","midi":53,"time":222.62760416666683,"velocity":0.7637795275590551,"duration":0.3294270833333428},{"name":"F5","midi":77,"time":222.96484375000017,"velocity":0.7637795275590551,"duration":0.6653645833333428},{"name":"D#3","midi":51,"time":222.96484375000017,"velocity":0.7637795275590551,"duration":0.3294270833333428},{"name":"D3","midi":50,"time":223.30078125000017,"velocity":0.7637795275590551,"duration":0.3294270833333428},{"name":"F#5","midi":78,"time":223.6380208333335,"velocity":0.7637795275590551,"duration":1.6757812500000284},{"name":"D#3","midi":51,"time":223.6380208333335,"velocity":0.7637795275590551,"duration":0.6653645833333428},{"name":"C5","midi":72,"time":223.9739583333335,"velocity":0.7637795275590551,"duration":0.3294270833333428},{"name":"C#5","midi":73,"time":224.31119791666686,"velocity":0.7637795275590551,"duration":0.3294270833333428},{"name":"A#2","midi":46,"time":224.31119791666686,"velocity":0.7637795275590551,"duration":0.3294270833333428},{"name":"D#5","midi":75,"time":224.6484375000002,"velocity":0.7637795275590551,"duration":0.3294270833333428},{"name":"C3","midi":48,"time":224.6484375000002,"velocity":0.7637795275590551,"duration":0.3294270833333428},{"name":"G#4","midi":68,"time":224.9843750000002,"velocity":0.7637795275590551,"duration":0.6653645833333428},{"name":"C#3","midi":49,"time":224.9843750000002,"velocity":0.7637795275590551,"duration":0.6653645833333428},{"name":"F5","midi":77,"time":225.32161458333354,"velocity":0.7637795275590551,"duration":0.3294270833333428},{"name":"D#5","midi":75,"time":225.65885416666688,"velocity":0.7637795275590551,"duration":0.3294270833333428},{"name":"A#4","midi":70,"time":225.65885416666688,"velocity":0.7637795275590551,"duration":1.0026041666666856},{"name":"F#2","midi":42,"time":225.65885416666688,"velocity":0.7637795275590551,"duration":0.6653645833333428},{"name":"C#5","midi":73,"time":225.99479166666688,"velocity":0.7637795275590551,"duration":0.3294270833333428},{"name":"C5","midi":72,"time":226.33203125000023,"velocity":0.7637795275590551,"duration":0.6653645833333428},{"name":"G#2","midi":44,"time":226.33203125000023,"velocity":0.7637795275590551,"duration":0.6653645833333428},{"name":"G#4","midi":68,"time":226.66927083333357,"velocity":0.7637795275590551,"duration":0.3294270833333428},{"name":"D5","midi":74,"time":227.00520833333357,"velocity":0.7637795275590551,"duration":0.6653645833333428},{"name":"F#4","midi":66,"time":227.00520833333357,"velocity":0.7637795275590551,"duration":0.3294270833333428},{"name":"A#2","midi":46,"time":227.00520833333357,"velocity":0.7637795275590551,"duration":0.6653645833333428},{"name":"F4","midi":65,"time":227.3424479166669,"velocity":0.7637795275590551,"duration":0.3294270833333428},{"name":"D#5","midi":75,"time":227.6783854166669,"velocity":0.7637795275590551,"duration":1.3385416666666856},{"name":"D#4","midi":63,"time":227.6783854166669,"velocity":0.7637795275590551,"duration":0.3294270833333428},{"name":"B2","midi":47,"time":227.6783854166669,"velocity":0.7637795275590551,"duration":0.3294270833333428},{"name":"F#4","midi":66,"time":228.01562500000026,"velocity":0.7637795275590551,"duration":0.3294270833333428},{"name":"A#2","midi":46,"time":228.01562500000026,"velocity":0.7637795275590551,"duration":0.3294270833333428},{"name":"B4","midi":71,"time":228.3528645833336,"velocity":0.7637795275590551,"duration":1.0026041666666856},{"name":"G#2","midi":44,"time":228.3528645833336,"velocity":0.7637795275590551,"duration":0.3294270833333428},{"name":"F#2","midi":42,"time":228.6888020833336,"velocity":0.7637795275590551,"duration":0.3294270833333428},{"name":"C#5","midi":73,"time":229.02604166666694,"velocity":0.7637795275590551,"duration":1.3385416666666856},{"name":"E2","midi":40,"time":229.02604166666694,"velocity":0.7637795275590551,"duration":0.6653645833333428},{"name":"A#4","midi":70,"time":229.36328125000028,"velocity":0.7637795275590551,"duration":0.3294270833333428},{"name":"G#4","midi":68,"time":229.69921875000028,"velocity":0.7637795275590551,"duration":0.3294270833333428},{"name":"D#2","midi":39,"time":229.69921875000028,"velocity":0.7637795275590551,"duration":0.6653645833333428},{"name":"G4","midi":67,"time":230.03645833333363,"velocity":0.7637795275590551,"duration":0.3294270833333428},{"name":"B4","midi":71,"time":230.37239583333363,"velocity":0.7637795275590551,"duration":0.3294270833333428},{"name":"G#4","midi":68,"time":230.37239583333363,"velocity":0.7637795275590551,"duration":2.0130208333333712},{"name":"G#2","midi":44,"time":230.37239583333363,"velocity":0.7637795275590551,"duration":0.3294270833333428},{"name":"C#5","midi":73,"time":230.70963541666697,"velocity":0.7637795275590551,"duration":0.3294270833333428},{"name":"A#2","midi":46,"time":230.70963541666697,"velocity":0.7637795275590551,"duration":0.3294270833333428},{"name":"D#5","midi":75,"time":231.0468750000003,"velocity":0.7637795275590551,"duration":0.3294270833333428},{"name":"B2","midi":47,"time":231.0468750000003,"velocity":0.7637795275590551,"duration":0.3294270833333428},{"name":"E5","midi":76,"time":231.3828125000003,"velocity":0.7637795275590551,"duration":0.3294270833333428},{"name":"C#3","midi":49,"time":231.3828125000003,"velocity":0.7637795275590551,"duration":0.3294270833333428},{"name":"A#4","midi":70,"time":231.72005208333366,"velocity":0.7637795275590551,"duration":0.3294270833333428},{"name":"D#3","midi":51,"time":231.72005208333366,"velocity":0.7637795275590551,"duration":1.0026041666666856},{"name":"B4","midi":71,"time":232.057291666667,"velocity":0.7637795275590551,"duration":0.3294270833333428},{"name":"C#5","midi":73,"time":232.393229166667,"velocity":0.7637795275590551,"duration":0.3294270833333428},{"name":"G4","midi":67,"time":232.393229166667,"velocity":0.7637795275590551,"duration":0.6653645833333428},{"name":"D#5","midi":75,"time":232.73046875000034,"velocity":0.7637795275590551,"duration":0.3294270833333428},{"name":"D#3","midi":51,"time":232.73046875000034,"velocity":0.7637795275590551,"duration":0.3294270833333428},{"name":"B4","midi":71,"time":233.06770833333368,"velocity":0.7637795275590551,"duration":0.3294270833333428},{"name":"G#4","midi":68,"time":233.06770833333368,"velocity":0.7637795275590551,"duration":0.6653645833333428},{"name":"G#3","midi":56,"time":233.06770833333368,"velocity":0.7637795275590551,"duration":0.3294270833333428},{"name":"A#4","midi":70,"time":233.40364583333368,"velocity":0.7637795275590551,"duration":0.3294270833333428},{"name":"A#3","midi":58,"time":233.40364583333368,"velocity":0.7637795275590551,"duration":0.3294270833333428},{"name":"G#4","midi":68,"time":233.74088541666703,"velocity":0.7637795275590551,"duration":0.3294270833333428},{"name":"D#4","midi":63,"time":233.74088541666703,"velocity":0.7637795275590551,"duration":1.0026041666666856},{"name":"B3","midi":59,"time":233.74088541666703,"velocity":0.7637795275590551,"duration":0.3294270833333428},{"name":"F#4","midi":66,"time":234.07682291666703,"velocity":0.7637795275590551,"duration":0.3294270833333428},{"name":"G#3","midi":56,"time":234.07682291666703,"velocity":0.7637795275590551,"duration":0.3294270833333428},{"name":"F4","midi":65,"time":234.41406250000037,"velocity":0.7637795275590551,"duration":0.6653645833333428},{"name":"A#3","midi":58,"time":234.41406250000037,"velocity":0.7637795275590551,"duration":0.3294270833333428},{"name":"D4","midi":62,"time":234.7513020833337,"velocity":0.7637795275590551,"duration":0.3294270833333428},{"name":"G#3","midi":56,"time":234.7513020833337,"velocity":0.7637795275590551,"duration":0.3294270833333428},{"name":"F#4","midi":66,"time":235.0872395833337,"velocity":0.7637795275590551,"duration":0.3294270833333428},{"name":"D#4","midi":63,"time":235.0872395833337,"velocity":0.7637795275590551,"duration":0.3294270833333428},{"name":"F#3","midi":54,"time":235.0872395833337,"velocity":0.7637795275590551,"duration":0.3294270833333428},{"name":"G#4","midi":68,"time":235.42447916666706,"velocity":0.7637795275590551,"duration":0.3294270833333428},{"name":"F4","midi":65,"time":235.42447916666706,"velocity":0.7637795275590551,"duration":0.3294270833333428},{"name":"F3","midi":53,"time":235.42447916666706,"velocity":0.7637795275590551,"duration":0.3294270833333428},{"name":"A#4","midi":70,"time":235.7617187500004,"velocity":0.7637795275590551,"duration":0.6653645833333428},{"name":"F#4","midi":66,"time":235.7617187500004,"velocity":0.7637795275590551,"duration":0.3294270833333428},{"name":"D#3","midi":51,"time":235.7617187500004,"velocity":0.7637795275590551,"duration":0.6653645833333428},{"name":"F4","midi":65,"time":236.0976562500004,"velocity":0.7637795275590551,"duration":0.3294270833333428},{"name":"C5","midi":72,"time":236.43489583333374,"velocity":0.7637795275590551,"duration":0.3294270833333428},{"name":"D#4","midi":63,"time":236.43489583333374,"velocity":0.7637795275590551,"duration":0.6653645833333428},{"name":"G#3","midi":56,"time":236.43489583333374,"velocity":0.7637795275590551,"duration":1.0026041666666856},{"name":"D5","midi":74,"time":236.77083333333374,"velocity":0.7637795275590551,"duration":0.3294270833333428},{"name":"D#5","midi":75,"time":237.10807291666708,"velocity":0.7637795275590551,"duration":1.0039062500000284},{"name":"A#4","midi":70,"time":237.10807291666708,"velocity":0.7637795275590551,"duration":0.6666666666666856},{"name":"G3","midi":55,"time":237.44531250000043,"velocity":0.7637795275590551,"duration":0.1614583333333428},{"name":"F3","midi":53,"time":237.61458333333377,"velocity":0.7637795275590551,"duration":0.1614583333333428},{"name":"D#4","midi":63,"time":237.78255208333377,"velocity":0.7637795275590551,"duration":1.0026041666666856},{"name":"G3","midi":55,"time":237.78255208333377,"velocity":0.7637795275590551,"duration":0.6653645833333428},{"name":"C#5","midi":73,"time":238.1197916666671,"velocity":0.7637795275590551,"duration":0.3294270833333428},{"name":"C5","midi":72,"time":238.45703125000045,"velocity":0.7637795275590551,"duration":0.3294270833333428},{"name":"G#3","midi":56,"time":238.45703125000045,"velocity":0.7637795275590551,"duration":0.3294270833333428},{"name":"D5","midi":74,"time":238.79296875000045,"velocity":0.7637795275590551,"duration":0.3294270833333428},{"name":"F4","midi":65,"time":238.79296875000045,"velocity":0.7637795275590551,"duration":0.3294270833333428},{"name":"F#3","midi":54,"time":238.79296875000045,"velocity":0.7637795275590551,"duration":0.3294270833333428},{"name":"D#5","midi":75,"time":239.1302083333338,"velocity":0.7637795275590551,"duration":1.3385416666666856},{"name":"F#4","midi":66,"time":239.1302083333338,"velocity":0.7637795275590551,"duration":0.6653645833333428},{"name":"F3","midi":53,"time":239.1302083333338,"velocity":0.7637795275590551,"duration":0.3294270833333428},{"name":"D#3","midi":51,"time":239.46744791666714,"velocity":0.7637795275590551,"duration":0.3294270833333428},{"name":"G#4","midi":68,"time":239.80338541666714,"velocity":0.7637795275590551,"duration":1.3385416666666856},{"name":"F3","midi":53,"time":239.80338541666714,"velocity":0.7637795275590551,"duration":0.3294270833333428},{"name":"F#3","midi":54,"time":240.14062500000048,"velocity":0.7637795275590551,"duration":0.3294270833333428},{"name":"D5","midi":74,"time":240.47656250000048,"velocity":0.7637795275590551,"duration":0.6653645833333428},{"name":"G#3","midi":56,"time":240.47656250000048,"velocity":0.7637795275590551,"duration":0.3294270833333428},{"name":"A#3","midi":58,"time":240.81380208333383,"velocity":0.7637795275590551,"duration":0.3294270833333428},{"name":"D#5","midi":75,"time":241.15104166666717,"velocity":0.7637795275590551,"duration":0.6744791666666288},{"name":"F#4","midi":66,"time":241.15104166666717,"velocity":0.7637795275590551,"duration":0.3333333333333144},{"name":"D#3","midi":51,"time":241.15104166666717,"velocity":0.7637795275590551,"duration":0.1627604166666572},{"name":"D#4","midi":63,"time":241.32161458333383,"velocity":0.7637795275590551,"duration":0.1627604166666572},{"name":"G#4","midi":68,"time":241.49218750000048,"velocity":0.7637795275590551,"duration":0.3333333333333144},{"name":"C#4","midi":61,"time":241.49218750000048,"velocity":0.7637795275590551,"duration":0.1627604166666572},{"name":"B3","midi":59,"time":241.66276041666714,"velocity":0.7637795275590551,"duration":0.1627604166666572},{"name":"D5","midi":74,"time":241.8333333333338,"velocity":0.7637795275590551,"duration":0.3333333333333428},{"name":"A#4","midi":70,"time":241.8333333333338,"velocity":0.7637795275590551,"duration":0.3333333333333428},{"name":"A#3","midi":58,"time":241.8333333333338,"velocity":0.7637795275590551,"duration":1.0156250000000284},{"name":"D#5","midi":75,"time":242.17447916666714,"velocity":0.7637795275590551,"duration":0.3333333333333428},{"name":"C5","midi":72,"time":242.17447916666714,"velocity":0.7637795275590551,"duration":0.3333333333333428},{"name":"F5","midi":77,"time":242.51562500000048,"velocity":0.7637795275590551,"duration":0.3333333333333428},{"name":"D5","midi":74,"time":242.51562500000048,"velocity":0.7637795275590551,"duration":0.3333333333333428},{"name":"G#5","midi":80,"time":242.85677083333383,"velocity":0.7637795275590551,"duration":0.3333333333333428},{"name":"A#3","midi":58,"time":242.85677083333383,"velocity":0.7637795275590551,"duration":0.3333333333333428},{"name":"F#3","midi":54,"time":242.85677083333383,"velocity":0.7637795275590551,"duration":0.3333333333333428},{"name":"F#5","midi":78,"time":243.19661458333383,"velocity":0.7637795275590551,"duration":0.3333333333333428},{"name":"C4","midi":60,"time":243.19661458333383,"velocity":0.7637795275590551,"duration":0.3333333333333428},{"name":"G#3","midi":56,"time":243.19661458333383,"velocity":0.7637795275590551,"duration":0.3333333333333428},{"name":"F5","midi":77,"time":243.53776041666717,"velocity":0.7637795275590551,"duration":0.3333333333333428},{"name":"D4","midi":62,"time":243.53776041666717,"velocity":0.7637795275590551,"duration":0.3333333333333428},{"name":"A#3","midi":58,"time":243.53776041666717,"velocity":0.7637795275590551,"duration":0.3333333333333428},{"name":"D#5","midi":75,"time":243.8789062500005,"velocity":0.7637795275590551,"duration":0.3333333333333428},{"name":"D#4","midi":63,"time":243.8789062500005,"velocity":0.7637795275590551,"duration":1.0156250000000284},{"name":"B3","midi":59,"time":243.8789062500005,"velocity":0.7637795275590551,"duration":0.3333333333333428},{"name":"C#5","midi":73,"time":244.22005208333385,"velocity":0.7637795275590551,"duration":0.3333333333333428},{"name":"A#3","midi":58,"time":244.22005208333385,"velocity":0.7637795275590551,"duration":0.3333333333333428},{"name":"B4","midi":71,"time":244.5611979166672,"velocity":0.7637795275590551,"duration":0.3333333333333428},{"name":"G#3","midi":56,"time":244.5611979166672,"velocity":0.7637795275590551,"duration":0.6744791666666572},{"name":"A#4","midi":70,"time":244.90234375000054,"velocity":0.7637795275590551,"duration":0.1627604166666572},{"name":"F4","midi":65,"time":244.90234375000054,"velocity":0.7637795275590551,"duration":0.3333333333333144},{"name":"B4","midi":71,"time":245.0729166666672,"velocity":0.7637795275590551,"duration":0.1627604166666572},{"name":"A#4","midi":70,"time":245.24348958333385,"velocity":0.7637795275590551,"duration":0.3333333333333428},{"name":"F#4","midi":66,"time":245.24348958333385,"velocity":0.7637795275590551,"duration":0.6744791666666856},{"name":"D#4","midi":63,"time":245.24348958333385,"velocity":0.7637795275590551,"duration":0.6744791666666856},{"name":"C5","midi":72,"time":245.5846354166672,"velocity":0.7637795275590551,"duration":0.3333333333333428},{"name":"D5","midi":74,"time":245.92578125000054,"velocity":0.7637795275590551,"duration":0.3333333333333428},{"name":"F4","midi":65,"time":245.92578125000054,"velocity":0.7637795275590551,"duration":0.3333333333333428},{"name":"A#3","midi":58,"time":245.92578125000054,"velocity":0.7637795275590551,"duration":1.0156250000000284},{"name":"D#5","midi":75,"time":246.26692708333388,"velocity":0.7637795275590551,"duration":0.3333333333333428},{"name":"D#4","midi":63,"time":246.26692708333388,"velocity":0.7637795275590551,"duration":0.3333333333333428},{"name":"F5","midi":77,"time":246.60807291666723,"velocity":0.7637795275590551,"duration":0.3333333333333428},{"name":"D4","midi":62,"time":246.60807291666723,"velocity":0.7637795275590551,"duration":0.3333333333333428},{"name":"A#4","midi":70,"time":246.94921875000057,"velocity":0.7637795275590551,"duration":0.3333333333333428},{"name":"D#4","midi":63,"time":246.94921875000057,"velocity":0.7637795275590551,"duration":0.3333333333333428},{"name":"C4","midi":60,"time":246.94921875000057,"velocity":0.7637795275590551,"duration":0.3333333333333428},{"name":"A#5","midi":82,"time":247.2903645833339,"velocity":0.7637795275590551,"duration":0.3333333333333428},{"name":"F4","midi":65,"time":247.2903645833339,"velocity":0.7637795275590551,"duration":1.0156250000000284},{"name":"D4","midi":62,"time":247.2903645833339,"velocity":0.7637795275590551,"duration":0.6744791666666856},{"name":"G#5","midi":80,"time":247.63151041666725,"velocity":0.7637795275590551,"duration":0.3333333333333428},{"name":"F#5","midi":78,"time":247.9726562500006,"velocity":0.7637795275590551,"duration":0.3333333333333428},{"name":"D#4","midi":63,"time":247.9726562500006,"velocity":0.7637795275590551,"duration":0.3333333333333428},{"name":"G#5","midi":80,"time":248.31380208333394,"velocity":0.7637795275590551,"duration":0.3333333333333144},{"name":"D#4","midi":63,"time":248.31380208333394,"velocity":0.7637795275590551,"duration":0.1627604166666572},{"name":"B3","midi":59,"time":248.31380208333394,"velocity":0.7637795275590551,"duration":0.3333333333333144},{"name":"D4","midi":62,"time":248.4843750000006,"velocity":0.7637795275590551,"duration":0.1627604166666572},{"name":"A#5","midi":82,"time":248.65494791666725,"velocity":0.7637795275590551,"duration":0.3333333333333428},{"name":"D#4","midi":63,"time":248.65494791666725,"velocity":0.7637795275590551,"duration":1.0156250000000284},{"name":"F#3","midi":54,"time":248.65494791666725,"velocity":0.7637795275590551,"duration":0.3333333333333428},{"name":"B5","midi":83,"time":248.9960937500006,"velocity":0.7637795275590551,"duration":0.3333333333333428},{"name":"G#3","midi":56,"time":248.9960937500006,"velocity":0.7637795275590551,"duration":0.3333333333333428},{"name":"F5","midi":77,"time":249.33723958333394,"velocity":0.7637795275590551,"duration":0.6744791666666856},{"name":"A#3","midi":58,"time":249.33723958333394,"velocity":0.7637795275590551,"duration":0.6744791666666856},{"name":"C#4","midi":61,"time":249.67838541666728,"velocity":0.7637795275590551,"duration":0.3333333333333428},{"name":"G5","midi":79,"time":250.01953125000063,"velocity":0.7637795275590551,"duration":0.6744791666666856},{"name":"B3","midi":59,"time":250.01953125000063,"velocity":0.7637795275590551,"duration":0.3333333333333428},{"name":"D#3","midi":51,"time":250.01953125000063,"velocity":0.7637795275590551,"duration":0.6744791666666856},{"name":"A#3","midi":58,"time":250.36067708333397,"velocity":0.7637795275590551,"duration":0.3333333333333428},{"name":"G#5","midi":80,"time":250.7018229166673,"velocity":0.7637795275590551,"duration":0.3333333333333428},{"name":"B3","midi":59,"time":250.7018229166673,"velocity":0.7637795275590551,"duration":0.3333333333333428},{"name":"G#3","midi":56,"time":250.7018229166673,"velocity":0.7637795275590551,"duration":0.3333333333333428},{"name":"F#5","midi":78,"time":251.04296875000065,"velocity":0.7637795275590551,"duration":0.3333333333333428},{"name":"D#4","midi":63,"time":251.04296875000065,"velocity":0.7637795275590551,"duration":0.3333333333333428},{"name":"A#3","midi":58,"time":251.04296875000065,"velocity":0.7637795275590551,"duration":0.3333333333333428},{"name":"F5","midi":77,"time":251.384114583334,"velocity":0.7637795275590551,"duration":0.3333333333333428},{"name":"G#4","midi":68,"time":251.384114583334,"velocity":0.7637795275590551,"duration":1.015625},{"name":"B3","midi":59,"time":251.384114583334,"velocity":0.7637795275590551,"duration":0.6744791666666856},{"name":"D#5","midi":75,"time":251.723958333334,"velocity":0.7637795275590551,"duration":0.3333333333333428},{"name":"D5","midi":74,"time":252.06510416666734,"velocity":0.7637795275590551,"duration":0.5989583333333144},{"name":"A#3","midi":58,"time":252.06510416666734,"velocity":0.7637795275590551,"duration":4.617187500000028},{"name":"F#4","midi":66,"time":252.40625000000065,"velocity":0.7637795275590551,"duration":0.3333333333333428},{"name":"D#5","midi":75,"time":252.747395833334,"velocity":0.7637795275590551,"duration":0.1666666666666572},{"name":"F4","midi":65,"time":252.747395833334,"velocity":0.7637795275590551,"duration":0.3333333333333144},{"name":"D5","midi":74,"time":252.9166666666673,"velocity":0.7637795275590551,"duration":0.1666666666666572},{"name":"D#5","midi":75,"time":253.0885416666673,"velocity":0.7637795275590551,"duration":0.6640625},{"name":"D#4","midi":63,"time":253.0885416666673,"velocity":0.7637795275590551,"duration":0.3333333333333428},{"name":"F4","midi":65,"time":253.42968750000065,"velocity":0.7637795275590551,"duration":0.6744791666666572},{"name":"C#5","midi":73,"time":253.77083333333397,"velocity":0.7637795275590551,"duration":0.3333333333333428},{"name":"B4","midi":71,"time":254.1119791666673,"velocity":0.7637795275590551,"duration":0.3333333333333428},{"name":"G4","midi":67,"time":254.1119791666673,"velocity":0.7637795275590551,"duration":0.6744791666666856},{"name":"A#4","midi":70,"time":254.45312500000065,"velocity":0.7637795275590551,"duration":0.3333333333333428},{"name":"B4","midi":71,"time":254.794270833334,"velocity":0.7637795275590551,"duration":0.3333333333333428},{"name":"G#4","midi":68,"time":254.794270833334,"velocity":0.7637795275590551,"duration":0.3333333333333428},{"name":"A#4","midi":70,"time":255.13541666666734,"velocity":0.7637795275590551,"duration":0.3333333333333428},{"name":"F#4","midi":66,"time":255.13541666666734,"velocity":0.7637795275590551,"duration":0.3333333333333428},{"name":"G#4","midi":68,"time":255.47656250000068,"velocity":0.7637795275590551,"duration":1.015625},{"name":"F4","midi":65,"time":255.47656250000068,"velocity":0.7637795275590551,"duration":0.3333333333333428},{"name":"D#4","midi":63,"time":255.81770833333402,"velocity":0.7637795275590551,"duration":0.3333333333333428},{"name":"D4","midi":62,"time":256.15885416666737,"velocity":0.7637795275590551,"duration":0.6744791666666856},{"name":"A#2","midi":46,"time":256.15885416666737,"velocity":0.7637795275590551,"duration":0.6744791666666856},{"name":"F#4","midi":66,"time":256.5000000000007,"velocity":0.7637795275590551,"duration":0.16276041666668561},{"name":"F4","midi":65,"time":256.67057291666737,"velocity":0.7637795275590551,"duration":0.16276041666668561},{"name":"F#4","midi":66,"time":256.84114583333405,"velocity":0.7637795275590551,"duration":0.3333333333333144},{"name":"D#4","midi":63,"time":256.84114583333405,"velocity":0.7637795275590551,"duration":0.3333333333333144},{"name":"D#2","midi":39,"time":256.84114583333405,"velocity":0.7637795275590551,"duration":1.0156249999999432},{"name":"G#4","midi":68,"time":257.18229166666737,"velocity":0.7637795275590551,"duration":0.3333333333333144},{"name":"F4","midi":65,"time":257.18229166666737,"velocity":0.7637795275590551,"duration":0.3333333333333144},{"name":"A#4","midi":70,"time":257.5234375000007,"velocity":0.7637795275590551,"duration":0.6744791666666288},{"name":"F#4","midi":66,"time":257.5234375000007,"velocity":0.7637795275590551,"duration":0.3333333333333144},{"name":"F4","midi":65,"time":257.864583333334,"velocity":0.7637795275590551,"duration":0.3333333333333144},{"name":"D2","midi":38,"time":257.864583333334,"velocity":0.7637795275590551,"duration":0.3333333333333144},{"name":"F#4","midi":66,"time":258.2057291666673,"velocity":0.7637795275590551,"duration":0.3333333333333144},{"name":"D#4","midi":63,"time":258.2057291666673,"velocity":0.7637795275590551,"duration":1.0143229166666288},{"name":"D#2","midi":39,"time":258.2057291666673,"velocity":0.7637795275590551,"duration":0.3333333333333144},{"name":"G#4","midi":68,"time":258.5468750000006,"velocity":0.7637795275590551,"duration":0.3333333333333144},{"name":"F2","midi":41,"time":258.5468750000006,"velocity":0.7637795275590551,"duration":0.3333333333333144},{"name":"A#4","midi":70,"time":258.88802083333394,"velocity":0.7637795275590551,"duration":0.2981770833333144},{"name":"F#2","midi":42,"time":258.88802083333394,"velocity":0.7637795275590551,"duration":0.33203125},{"name":"G#4","midi":68,"time":259.22786458333394,"velocity":0.7637795275590551,"duration":0.2981770833333144},{"name":"D4","midi":62,"time":259.22786458333394,"velocity":0.7637795275590551,"duration":0.33203125},{"name":"F2","midi":41,"time":259.22786458333394,"velocity":0.7637795275590551,"duration":0.33203125},{"name":"F#4","midi":66,"time":259.5664062500006,"velocity":0.7637795275590551,"duration":0.3333333333333144},{"name":"D#4","midi":63,"time":259.5664062500006,"velocity":0.7637795275590551,"duration":0.49479166666662877},{"name":"D#2","midi":39,"time":259.5664062500006,"velocity":0.7637795275590551,"duration":0.6744791666666288},{"name":"F4","midi":65,"time":259.90755208333394,"velocity":0.7637795275590551,"duration":0.16276041666662877},{"name":"D#4","midi":63,"time":260.07812500000057,"velocity":0.7637795275590551,"duration":0.16276041666668561},{"name":"F#4","midi":66,"time":260.24869791666725,"velocity":0.7637795275590551,"duration":0.3333333333333144},{"name":"D4","midi":62,"time":260.24869791666725,"velocity":0.7637795275590551,"duration":0.3333333333333144},{"name":"A#2","midi":46,"time":260.24869791666725,"velocity":0.7637795275590551,"duration":0.6744791666666288},{"name":"G#4","midi":68,"time":260.58984375000057,"velocity":0.7637795275590551,"duration":0.3333333333333144},{"name":"F4","midi":65,"time":260.58984375000057,"velocity":0.7637795275590551,"duration":0.6744791666666288},{"name":"D#4","midi":63,"time":260.9309895833339,"velocity":0.7637795275590551,"duration":0.6744791666666856},{"name":"D#2","midi":39,"time":260.9309895833339,"velocity":0.7637795275590551,"duration":1.015625},{"name":"F#4","midi":66,"time":261.2721354166672,"velocity":0.7637795275590551,"duration":0.16276041666668561},{"name":"F4","midi":65,"time":261.4427083333339,"velocity":0.7637795275590551,"duration":0.16276041666668561},{"name":"A#4","midi":70,"time":261.61328125000057,"velocity":0.7637795275590551,"duration":0.671875},{"name":"G4","midi":67,"time":261.61328125000057,"velocity":0.7637795275590551,"duration":0.3333333333333144},{"name":"G#4","midi":68,"time":261.9544270833339,"velocity":0.7637795275590551,"duration":0.33203125},{"name":"F2","midi":41,"time":261.9544270833339,"velocity":0.7637795275590551,"duration":0.33203125},{"name":"A#4","midi":70,"time":262.2942708333339,"velocity":0.7637795275590551,"duration":0.671875},{"name":"D#4","midi":63,"time":262.2942708333339,"velocity":0.7637795275590551,"duration":0.3333333333333144},{"name":"G2","midi":43,"time":262.2942708333339,"velocity":0.7637795275590551,"duration":0.6731770833333144},{"name":"C#4","midi":61,"time":262.6354166666672,"velocity":0.7637795275590551,"duration":0.33203125},{"name":"D#4","midi":63,"time":262.9752604166672,"velocity":0.7637795275590551,"duration":0.3333333333333144},{"name":"B3","midi":59,"time":262.9752604166672,"velocity":0.7637795275590551,"duration":0.3333333333333144},{"name":"G#2","midi":44,"time":262.9752604166672,"velocity":0.7637795275590551,"duration":0.6744791666666288},{"name":"F4","midi":65,"time":263.3164062500005,"velocity":0.7637795275590551,"duration":0.3333333333333144},{"name":"C#4","midi":61,"time":263.3164062500005,"velocity":0.7637795275590551,"duration":0.3333333333333144},{"name":"G4","midi":67,"time":263.6575520833338,"velocity":0.7637795275590551,"duration":0.6744791666666288},{"name":"D#4","midi":63,"time":263.6575520833338,"velocity":0.7637795275590551,"duration":0.3333333333333144},{"name":"A#2","midi":46,"time":263.6575520833338,"velocity":0.7637795275590551,"duration":0.6744791666666288},{"name":"E4","midi":64,"time":263.99869791666714,"velocity":0.7637795275590551,"duration":0.3333333333333144},{"name":"G#4","midi":68,"time":264.33984375000045,"velocity":0.7637795275590551,"duration":0.6744791666666288},{"name":"D#4","midi":63,"time":264.33984375000045,"velocity":0.7637795275590551,"duration":0.6744791666666288},{"name":"B2","midi":47,"time":264.33984375000045,"velocity":0.7637795275590551,"duration":0.3333333333333144},{"name":"C#3","midi":49,"time":264.68098958333377,"velocity":0.7637795275590551,"duration":0.3333333333333144},{"name":"G#5","midi":80,"time":265.02083333333377,"velocity":0.7637795275590551,"duration":0.6744791666666288},{"name":"G#3","midi":56,"time":265.02083333333377,"velocity":0.7637795275590551,"duration":1.0156249999999432},{"name":"B2","midi":47,"time":265.02083333333377,"velocity":0.7637795275590551,"duration":0.3333333333333144},{"name":"A#2","midi":46,"time":265.3619791666671,"velocity":0.7637795275590551,"duration":0.3333333333333144},{"name":"D#5","midi":75,"time":265.7031250000004,"velocity":0.7637795275590551,"duration":1.0156249999999432},{"name":"G#2","midi":44,"time":265.7031250000004,"velocity":0.7637795275590551,"duration":0.3333333333333144},{"name":"G3","midi":55,"time":266.0442708333337,"velocity":0.7637795275590551,"duration":0.3333333333333144},{"name":"A#2","midi":46,"time":266.0442708333337,"velocity":0.7637795275590551,"duration":0.3333333333333144},{"name":"G#3","midi":56,"time":266.385416666667,"velocity":0.7637795275590551,"duration":0.3333333333333144},{"name":"B2","midi":47,"time":266.385416666667,"velocity":0.7637795275590551,"duration":0.3333333333333144},{"name":"C#5","midi":73,"time":266.72656250000034,"velocity":0.7637795275590551,"duration":0.33333333333337123},{"name":"A#3","midi":58,"time":266.72656250000034,"velocity":0.7637795275590551,"duration":0.33333333333337123},{"name":"E3","midi":52,"time":266.72656250000034,"velocity":0.7637795275590551,"duration":0.16276041666668561},{"name":"C#3","midi":49,"time":266.897135416667,"velocity":0.7637795275590551,"duration":0.16276041666668561},{"name":"D#5","midi":75,"time":267.0677083333337,"velocity":0.7637795275590551,"duration":1.0156249999999432},{"name":"B3","midi":59,"time":267.0677083333337,"velocity":0.7637795275590551,"duration":0.3333333333333144},{"name":"G#3","midi":56,"time":267.0677083333337,"velocity":0.7637795275590551,"duration":0.6744791666666288},{"name":"A#3","midi":58,"time":267.408854166667,"velocity":0.7637795275590551,"duration":0.3333333333333144},{"name":"G#3","midi":56,"time":267.75000000000034,"velocity":0.7637795275590551,"duration":0.6744791666666288},{"name":"B2","midi":47,"time":267.75000000000034,"velocity":0.7637795275590551,"duration":0.3333333333333144},{"name":"F5","midi":77,"time":268.09114583333366,"velocity":0.7637795275590551,"duration":0.3333333333333144},{"name":"C#3","midi":49,"time":268.09114583333366,"velocity":0.7637795275590551,"duration":0.3333333333333144},{"name":"F#5","midi":78,"time":268.43229166666697,"velocity":0.7637795275590551,"duration":1.0156249999999432},{"name":"D#4","midi":63,"time":268.43229166666697,"velocity":0.7637795275590551,"duration":0.6197916666666288},{"name":"D#3","midi":51,"time":268.43229166666697,"velocity":0.7637795275590551,"duration":0.3333333333333144},{"name":"D3","midi":50,"time":268.7734375000003,"velocity":0.7637795275590551,"duration":0.3333333333333144},{"name":"A#3","midi":58,"time":269.1145833333336,"velocity":0.7637795275590551,"duration":1.0156249999999432},{"name":"D#3","midi":51,"time":269.1145833333336,"velocity":0.7637795275590551,"duration":0.3333333333333144},{"name":"F5","midi":77,"time":269.4557291666669,"velocity":0.7637795275590551,"duration":0.3333333333333144},{"name":"F3","midi":53,"time":269.4557291666669,"velocity":0.7637795275590551,"duration":0.3333333333333144},{"name":"D#5","midi":75,"time":269.7968750000002,"velocity":0.7637795275590551,"duration":0.6744791666666288},{"name":"F#3","midi":54,"time":269.7968750000002,"velocity":0.7637795275590551,"duration":0.3333333333333144},{"name":"B3","midi":59,"time":270.13802083333354,"velocity":0.7637795275590551,"duration":0.3333333333333144},{"name":"G#3","midi":56,"time":270.13802083333354,"velocity":0.7637795275590551,"duration":0.3333333333333144},{"name":"A#5","midi":82,"time":270.47916666666686,"velocity":0.7637795275590551,"duration":0.6744791666666288},{"name":"C#4","midi":61,"time":270.47916666666686,"velocity":0.7637795275590551,"duration":1.0156249999999432},{"name":"F3","midi":53,"time":270.47916666666686,"velocity":0.7637795275590551,"duration":0.3333333333333144},{"name":"G3","midi":55,"time":270.82031250000017,"velocity":0.7637795275590551,"duration":0.3333333333333144},{"name":"D#5","midi":75,"time":271.1614583333335,"velocity":0.7637795275590551,"duration":1.0156249999999432},{"name":"G#3","midi":56,"time":271.1614583333335,"velocity":0.7637795275590551,"duration":0.3333333333333144},{"name":"C#5","midi":73,"time":271.5026041666668,"velocity":0.7637795275590551,"duration":0.3333333333333144},{"name":"A#3","midi":58,"time":271.5026041666668,"velocity":0.7637795275590551,"duration":0.3333333333333144},{"name":"B4","midi":71,"time":271.8437500000001,"velocity":0.7637795275590551,"duration":0.3333333333333144},{"name":"G#3","midi":56,"time":271.8437500000001,"velocity":0.7637795275590551,"duration":0.3333333333333144},{"name":"D#5","midi":75,"time":272.1848958333334,"velocity":0.7637795275590551,"duration":0.3333333333333144},{"name":"A#4","midi":70,"time":272.1848958333334,"velocity":0.7637795275590551,"duration":0.3333333333333144},{"name":"F#3","midi":54,"time":272.1848958333334,"velocity":0.7637795275590551,"duration":0.3333333333333144},{"name":"D5","midi":74,"time":272.52604166666674,"velocity":0.7637795275590551,"duration":0.3333333333333144},{"name":"G#4","midi":68,"time":272.52604166666674,"velocity":0.7637795275590551,"duration":0.3333333333333144},{"name":"F3","midi":53,"time":272.52604166666674,"velocity":0.7637795275590551,"duration":0.3333333333333144},{"name":"D#5","midi":75,"time":272.86718750000006,"velocity":0.7637795275590551,"duration":0.3333333333333144},{"name":"F#4","midi":66,"time":272.86718750000006,"velocity":0.7637795275590551,"duration":0.3333333333333144},{"name":"D#3","midi":51,"time":272.86718750000006,"velocity":0.7637795275590551,"duration":0.3333333333333144},{"name":"F5","midi":77,"time":273.20833333333337,"velocity":0.7637795275590551,"duration":0.3333333333333144},{"name":"G#4","midi":68,"time":273.20833333333337,"velocity":0.7637795275590551,"duration":0.3333333333333144},{"name":"D3","midi":50,"time":273.20833333333337,"velocity":0.7637795275590551,"duration":0.3333333333333144},{"name":"D5","midi":74,"time":273.54817708333337,"velocity":0.7637795275590551,"duration":0.3333333333333144},{"name":"F4","midi":65,"time":273.54817708333337,"velocity":0.7637795275590551,"duration":0.3333333333333144},{"name":"B3","midi":59,"time":273.54817708333337,"velocity":0.7637795275590551,"duration":0.3333333333333144},{"name":"D#5","midi":75,"time":273.8893229166667,"velocity":0.7637795275590551,"duration":0.3333333333333144},{"name":"F#4","midi":66,"time":273.8893229166667,"velocity":0.7637795275590551,"duration":0.3333333333333144},{"name":"A#3","midi":58,"time":273.8893229166667,"velocity":0.7637795275590551,"duration":0.3333333333333144},{"name":"F5","midi":77,"time":274.23046875,"velocity":0.7637795275590551,"duration":0.3333333333333144},{"name":"G#4","midi":68,"time":274.23046875,"velocity":0.7637795275590551,"duration":0.3333333333333144},{"name":"G#3","midi":56,"time":274.23046875,"velocity":0.7637795275590551,"duration":0.3333333333333144},{"name":"F#5","midi":78,"time":274.5716145833333,"velocity":0.7637795275590551,"duration":0.3333333333333144},{"name":"A#4","midi":70,"time":274.5716145833333,"velocity":0.7637795275590551,"duration":0.3333333333333144},{"name":"F#3","midi":54,"time":274.5716145833333,"velocity":0.7637795275590551,"duration":0.3333333333333144},{"name":"G#5","midi":80,"time":274.91276041666663,"velocity":0.7637795275590551,"duration":0.3333333333333144},{"name":"G#4","midi":68,"time":274.91276041666663,"velocity":0.7637795275590551,"duration":0.6744791666666288},{"name":"F3","midi":53,"time":274.91276041666663,"velocity":0.7637795275590551,"duration":0.3333333333333144},{"name":"A#5","midi":82,"time":275.25390624999994,"velocity":0.7637795275590551,"duration":0.3333333333333144},{"name":"D#3","midi":51,"time":275.25390624999994,"velocity":0.7637795275590551,"duration":0.3333333333333144},{"name":"A#4","midi":70,"time":275.59505208333326,"velocity":0.7637795275590551,"duration":0.33333333333337123},{"name":"F#4","midi":66,"time":275.59505208333326,"velocity":0.7637795275590551,"duration":0.16276041666668561},{"name":"C#3","midi":49,"time":275.59505208333326,"velocity":0.7637795275590551,"duration":0.33333333333337123},{"name":"F4","midi":65,"time":275.76562499999994,"velocity":0.7637795275590551,"duration":0.16276041666668561},{"name":"D#5","midi":75,"time":275.93619791666663,"velocity":0.7637795275590551,"duration":0.3333333333333144},{"name":"F#4","midi":66,"time":275.93619791666663,"velocity":0.7637795275590551,"duration":0.3333333333333144},{"name":"B2","midi":47,"time":275.93619791666663,"velocity":0.7637795275590551,"duration":0.6744791666666288},{"name":"F5","midi":77,"time":276.27734374999994,"velocity":0.7637795275590551,"duration":0.3333333333333144},{"name":"G#4","midi":68,"time":276.27734374999994,"velocity":0.7637795275590551,"duration":0.3333333333333144},{"name":"D5","midi":74,"time":276.61848958333326,"velocity":0.7637795275590551,"duration":0.63671875},{"name":"A#4","midi":70,"time":276.61848958333326,"velocity":0.7637795275590551,"duration":0.6744791666666856},{"name":"A#2","midi":46,"time":276.61848958333326,"velocity":0.7637795275590551,"duration":0.6744791666666856},{"name":"D#3","midi":51,"time":277.32161458333326,"velocity":0.7637795275590551,"duration":1.0260416666666856},{"name":"A#3","midi":58,"time":277.32161458333326,"velocity":0.7637795275590551,"duration":0.6080729166666856},{"name":"D#4","midi":63,"time":278.01171874999994,"velocity":0.7637795275590551,"duration":1.0234375},{"name":"A#4","midi":70,"time":278.01171874999994,"velocity":0.7637795275590551,"duration":0.6067708333333144},{"name":"E3","midi":52,"time":278.35546874999994,"velocity":0.7637795275590551,"duration":0.3359375},{"name":"D#3","midi":51,"time":278.69921874999994,"velocity":0.7637795275590551,"duration":0.3359375},{"name":"D#5","midi":75,"time":278.69921874999994,"velocity":0.7637795275590551,"duration":1.0234375},{"name":"C#3","midi":49,"time":279.04296874999994,"velocity":0.7637795275590551,"duration":0.3359375},{"name":"E4","midi":64,"time":279.04296874999994,"velocity":0.7637795275590551,"duration":0.3359375},{"name":"B2","midi":47,"time":279.38671874999994,"velocity":0.7637795275590551,"duration":0.3359375},{"name":"D#4","midi":63,"time":279.38671874999994,"velocity":0.7637795275590551,"duration":0.3359375},{"name":"C#3","midi":49,"time":279.73046874999994,"velocity":0.7637795275590551,"duration":0.3359375},{"name":"C#4","midi":61,"time":279.73046874999994,"velocity":0.7637795275590551,"duration":0.3359375},{"name":"E5","midi":76,"time":279.73046874999994,"velocity":0.7637795275590551,"duration":0.3359375},{"name":"D#3","midi":51,"time":280.07552083333326,"velocity":0.7637795275590551,"duration":0.6796875},{"name":"B3","midi":59,"time":280.07552083333326,"velocity":0.7637795275590551,"duration":0.3359375},{"name":"D#5","midi":75,"time":280.07552083333326,"velocity":0.7637795275590551,"duration":0.3359375},{"name":"C#4","midi":61,"time":280.41927083333326,"velocity":0.7637795275590551,"duration":0.3359375},{"name":"C#5","midi":73,"time":280.41927083333326,"velocity":0.7637795275590551,"duration":0.3359375},{"name":"G#2","midi":44,"time":280.76302083333326,"velocity":0.7637795275590551,"duration":0.3359375},{"name":"D#4","midi":63,"time":280.76302083333326,"velocity":0.7637795275590551,"duration":0.6067708333333144},{"name":"B4","midi":71,"time":280.76302083333326,"velocity":0.7637795275590551,"duration":0.3359375},{"name":"A#2","midi":46,"time":281.10677083333326,"velocity":0.7637795275590551,"duration":0.3359375},{"name":"C#5","midi":73,"time":281.10677083333326,"velocity":0.7637795275590551,"duration":0.3359375},{"name":"B2","midi":47,"time":281.45052083333326,"velocity":0.7637795275590551,"duration":0.6796875},{"name":"G#3","midi":56,"time":281.45052083333326,"velocity":0.7637795275590551,"duration":0.3359375},{"name":"D#5","midi":75,"time":281.45052083333326,"velocity":0.7637795275590551,"duration":0.6067708333333144},{"name":"F#3","midi":54,"time":281.7955729166666,"velocity":0.7637795275590551,"duration":0.3359375},{"name":"C#3","midi":49,"time":282.1393229166666,"velocity":0.7637795275590551,"duration":0.6796875},{"name":"F3","midi":53,"time":282.1393229166666,"velocity":0.7637795275590551,"duration":0.6796875},{"name":"G#4","midi":68,"time":282.1393229166666,"velocity":0.7637795275590551,"duration":0.3359375},{"name":"A#4","midi":70,"time":282.4830729166666,"velocity":0.7637795275590551,"duration":0.1640625},{"name":"B4","midi":71,"time":282.6549479166666,"velocity":0.7637795275590551,"duration":0.1640625},{"name":"F#2","midi":42,"time":282.8268229166666,"velocity":0.7637795275590551,"duration":1.0234375},{"name":"C#4","midi":61,"time":282.8268229166666,"velocity":0.7637795275590551,"duration":0.6796875},{"name":"A#4","midi":70,"time":282.8268229166666,"velocity":0.7637795275590551,"duration":0.3359375},{"name":"B4","midi":71,"time":283.1705729166666,"velocity":0.7637795275590551,"duration":0.3359375},{"name":"F#3","midi":54,"time":283.5143229166666,"velocity":0.7637795275590551,"duration":1.0234375},{"name":"C#5","midi":73,"time":283.5143229166666,"velocity":0.7637795275590551,"duration":0.6796875},{"name":"F2","midi":41,"time":283.8593749999999,"velocity":0.7637795275590551,"duration":0.3359375},{"name":"F#2","midi":42,"time":284.2031249999999,"velocity":0.7637795275590551,"duration":0.3359375},{"name":"F#4","midi":66,"time":284.2031249999999,"velocity":0.7637795275590551,"duration":1.0234375},{"name":"G#2","midi":44,"time":284.5468749999999,"velocity":0.7637795275590551,"duration":0.3359375},{"name":"F3","midi":53,"time":284.5468749999999,"velocity":0.7637795275590551,"duration":0.3359375},{"name":"A#2","midi":46,"time":284.8906249999999,"velocity":0.7637795275590551,"duration":0.3359375},{"name":"F#3","midi":54,"time":284.8906249999999,"velocity":0.7637795275590551,"duration":0.3359375},{"name":"G#2","midi":44,"time":285.2343749999999,"velocity":0.7637795275590551,"duration":0.3359375},{"name":"G#3","midi":56,"time":285.2343749999999,"velocity":0.7637795275590551,"duration":0.3359375},{"name":"F4","midi":65,"time":285.2343749999999,"velocity":0.7637795275590551,"duration":0.3359375},{"name":"F#2","midi":42,"time":285.5781249999999,"velocity":0.7637795275590551,"duration":0.3359375},{"name":"A#3","midi":58,"time":285.5781249999999,"velocity":0.7637795275590551,"duration":0.3359375},{"name":"F#4","midi":66,"time":285.5781249999999,"velocity":0.7637795275590551,"duration":0.3359375},{"name":"E3","midi":52,"time":285.9231770833332,"velocity":0.7637795275590551,"duration":0.3359375},{"name":"G#3","midi":56,"time":285.9231770833332,"velocity":0.7637795275590551,"duration":0.3359375},{"name":"G#4","midi":68,"time":285.9231770833332,"velocity":0.7637795275590551,"duration":0.3359375},{"name":"D#3","midi":51,"time":286.2669270833332,"velocity":0.7637795275590551,"duration":1.7122395833333144},{"name":"F#3","midi":54,"time":286.2669270833332,"velocity":0.7637795275590551,"duration":0.6796875},{"name":"A#4","midi":70,"time":286.2669270833332,"velocity":0.7637795275590551,"duration":0.3359375},{"name":"G#4","midi":68,"time":286.6106770833332,"velocity":0.7637795275590551,"duration":0.3359375},{"name":"B3","midi":59,"time":286.9544270833332,"velocity":0.7637795275590551,"duration":0.3359375},{"name":"F#4","midi":66,"time":286.9544270833332,"velocity":0.7637795275590551,"duration":0.6796875},{"name":"A#3","midi":58,"time":287.2981770833332,"velocity":0.7637795275590551,"duration":0.3359375},{"name":"G#3","midi":56,"time":287.6432291666665,"velocity":0.7637795275590551,"duration":0.6796875},{"name":"E5","midi":76,"time":287.6432291666665,"velocity":0.7637795275590551,"duration":1.7122395833333144},{"name":"C#3","midi":49,"time":287.9869791666665,"velocity":0.7637795275590551,"duration":0.3359375},{"name":"B2","midi":47,"time":288.3307291666665,"velocity":0.7637795275590551,"duration":0.3359375},{"name":"C#5","midi":73,"time":288.3307291666665,"velocity":0.7637795275590551,"duration":0.6796875},{"name":"A#2","midi":46,"time":288.6744791666665,"velocity":0.7637795275590551,"duration":0.3359375},{"name":"B2","midi":47,"time":289.0182291666665,"velocity":0.7637795275590551,"duration":0.6796875},{"name":"F#4","midi":66,"time":289.0182291666665,"velocity":0.7637795275590551,"duration":1.3684895833333144},{"name":"D5","midi":74,"time":289.3619791666665,"velocity":0.7637795275590551,"duration":0.3359375},{"name":"B3","midi":59,"time":289.70703124999983,"velocity":0.7637795275590551,"duration":0.3359375},{"name":"D#5","midi":75,"time":289.70703124999983,"velocity":0.7637795275590551,"duration":1.0234375},{"name":"A#3","midi":58,"time":290.05078124999983,"velocity":0.7637795275590551,"duration":0.3359375},{"name":"G#3","midi":56,"time":290.39453124999983,"velocity":0.7637795275590551,"duration":0.3359375},{"name":"B4","midi":71,"time":290.39453124999983,"velocity":0.7637795275590551,"duration":0.3359375},{"name":"A#3","midi":58,"time":290.73828124999983,"velocity":0.7637795275590551,"duration":0.3359375},{"name":"A#4","midi":70,"time":290.73828124999983,"velocity":0.7637795275590551,"duration":0.3359375},{"name":"F#5","midi":78,"time":290.73828124999983,"velocity":0.7637795275590551,"duration":0.3359375},{"name":"B3","midi":59,"time":291.08203124999983,"velocity":0.7637795275590551,"duration":0.3359375},{"name":"G#4","midi":68,"time":291.08203124999983,"velocity":0.7637795275590551,"duration":0.3359375},{"name":"F5","midi":77,"time":291.08203124999983,"velocity":0.7637795275590551,"duration":0.3359375},{"name":"G#3","midi":56,"time":291.42708333333314,"velocity":0.7637795275590551,"duration":0.3359375},{"name":"F#4","midi":66,"time":291.42708333333314,"velocity":0.7637795275590551,"duration":0.3359375},{"name":"D#5","midi":75,"time":291.42708333333314,"velocity":0.7637795275590551,"duration":0.3359375},{"name":"A#3","midi":58,"time":291.77083333333314,"velocity":0.7637795275590551,"duration":1.0234375},{"name":"F4","midi":65,"time":291.77083333333314,"velocity":0.7637795275590551,"duration":0.3359375},{"name":"D5","midi":74,"time":291.77083333333314,"velocity":0.7637795275590551,"duration":0.6783854166666856},{"name":"D#4","midi":63,"time":292.11458333333314,"velocity":0.7637795275590551,"duration":0.3359375},{"name":"F5","midi":77,"time":292.11458333333314,"velocity":0.7637795275590551,"duration":0.3359375},{"name":"D4","midi":62,"time":292.45833333333314,"velocity":0.7637795275590551,"duration":0.3359375},{"name":"A#5","midi":82,"time":292.45833333333314,"velocity":0.7637795275590551,"duration":1.0234375},{"name":"G#3","midi":56,"time":292.80208333333314,"velocity":0.7637795275590551,"duration":0.3359375},{"name":"F4","midi":65,"time":292.80208333333314,"velocity":0.7637795275590551,"duration":0.3359375},{"name":"F#3","midi":54,"time":293.14583333333314,"velocity":0.7637795275590551,"duration":0.3359375},{"name":"A#3","midi":58,"time":293.14583333333314,"velocity":0.7637795275590551,"duration":0.3359375},{"name":"G#3","midi":56,"time":293.49088541666646,"velocity":0.7637795275590551,"duration":0.3359375},{"name":"G#4","midi":68,"time":293.49088541666646,"velocity":0.7637795275590551,"duration":0.3359375},{"name":"B5","midi":83,"time":293.49088541666646,"velocity":0.7637795275590551,"duration":0.3359375},{"name":"A#3","midi":58,"time":293.83463541666646,"velocity":0.7637795275590551,"duration":0.6796875},{"name":"F#4","midi":66,"time":293.83463541666646,"velocity":0.7637795275590551,"duration":0.3359375},{"name":"A#5","midi":82,"time":293.83463541666646,"velocity":0.7637795275590551,"duration":0.3359375},{"name":"F4","midi":65,"time":294.17838541666646,"velocity":0.7637795275590551,"duration":0.3359375},{"name":"G#5","midi":80,"time":294.17838541666646,"velocity":0.7637795275590551,"duration":0.3359375},{"name":"D#3","midi":51,"time":294.52213541666646,"velocity":0.7637795275590551,"duration":0.3359375},{"name":"D#4","midi":63,"time":294.52213541666646,"velocity":0.7637795275590551,"duration":0.6796875},{"name":"F#5","midi":78,"time":294.52213541666646,"velocity":0.7637795275590551,"duration":0.3359375},{"name":"F3","midi":53,"time":294.86588541666646,"velocity":0.7637795275590551,"duration":0.3359375},{"name":"G#5","midi":80,"time":294.86588541666646,"velocity":0.7637795275590551,"duration":0.3359375},{"name":"G3","midi":55,"time":295.2109374999998,"velocity":0.7637795275590551,"duration":0.6796875},{"name":"D#5","midi":75,"time":295.2109374999998,"velocity":0.7637795275590551,"duration":0.3359375},{"name":"A#5","midi":82,"time":295.2109374999998,"velocity":0.7637795275590551,"duration":0.6796875},{"name":"C#5","midi":73,"time":295.5546874999998,"velocity":0.7637795275590551,"duration":0.3359375},{"name":"G#3","midi":56,"time":295.8984374999998,"velocity":0.7637795275590551,"duration":0.3359375},{"name":"B4","midi":71,"time":295.8984374999998,"velocity":0.7637795275590551,"duration":0.3359375},{"name":"D#5","midi":75,"time":295.8984374999998,"velocity":0.7637795275590551,"duration":0.6796875},{"name":"F#3","midi":54,"time":296.2421874999998,"velocity":0.7637795275590551,"duration":0.3359375},{"name":"A#4","midi":70,"time":296.2421874999998,"velocity":0.7637795275590551,"duration":0.3359375},{"name":"F3","midi":53,"time":296.5859374999998,"velocity":0.7637795275590551,"duration":0.3359375},{"name":"G#4","midi":68,"time":296.5859374999998,"velocity":0.7637795275590551,"duration":0.3359375},{"name":"G#5","midi":80,"time":296.5859374999998,"velocity":0.7637795275590551,"duration":1.0234375},{"name":"D#3","midi":51,"time":296.9296874999998,"velocity":0.7637795275590551,"duration":0.3359375},{"name":"B4","midi":71,"time":296.9296874999998,"velocity":0.7637795275590551,"duration":0.3359375},{"name":"D3","midi":50,"time":297.2747395833331,"velocity":0.7637795275590551,"duration":0.3359375},{"name":"A#4","midi":70,"time":297.2747395833331,"velocity":0.7637795275590551,"duration":0.3359375},{"name":"D#3","midi":51,"time":297.6184895833331,"velocity":0.7637795275590551,"duration":0.3359375},{"name":"D#5","midi":75,"time":297.6184895833331,"velocity":0.7637795275590551,"duration":0.6796875},{"name":"F#5","midi":78,"time":297.6184895833331,"velocity":0.7637795275590551,"duration":0.3359375},{"name":"A#2","midi":46,"time":297.9622395833331,"velocity":0.7637795275590551,"duration":0.3359375},{"name":"F5","midi":77,"time":297.9622395833331,"velocity":0.7637795275590551,"duration":0.6796875},{"name":"A#3","midi":58,"time":298.3059895833331,"velocity":0.7637795275590551,"duration":0.3359375},{"name":"C#5","midi":73,"time":298.3059895833331,"velocity":0.7637795275590551,"duration":0.6796875},{"name":"B3","midi":59,"time":298.6497395833331,"velocity":0.7637795275590551,"duration":0.3359375},{"name":"D#5","midi":75,"time":298.6497395833331,"velocity":0.7637795275590551,"duration":0.6796875},{"name":"D#3","midi":51,"time":298.9947916666664,"velocity":0.7637795275590551,"duration":0.3359375},{"name":"B4","midi":71,"time":298.9947916666664,"velocity":0.7637795275590551,"duration":0.6796875},{"name":"F3","midi":53,"time":299.3385416666664,"velocity":0.7637795275590551,"duration":0.3359375},{"name":"C#5","midi":73,"time":299.3385416666664,"velocity":0.7637795275590551,"duration":0.6796875},{"name":"G3","midi":55,"time":299.6822916666664,"velocity":0.7637795275590551,"duration":0.3359375},{"name":"A#4","midi":70,"time":299.6822916666664,"velocity":0.7637795275590551,"duration":0.6796875},{"name":"G#3","midi":56,"time":300.0260416666664,"velocity":0.7637795275590551,"duration":0.3359375},{"name":"B4","midi":71,"time":300.0260416666664,"velocity":0.7637795275590551,"duration":0.6796875},{"name":"F3","midi":53,"time":300.3697916666664,"velocity":0.7637795275590551,"duration":0.3359375},{"name":"G#4","midi":68,"time":300.3697916666664,"velocity":0.7637795275590551,"duration":0.6796875},{"name":"D3","midi":50,"time":300.7135416666664,"velocity":0.7637795275590551,"duration":0.3359375},{"name":"A#4","midi":70,"time":300.7135416666664,"velocity":0.7637795275590551,"duration":0.6796875},{"name":"D#3","midi":51,"time":301.0585937499997,"velocity":0.7637795275590551,"duration":0.3359375},{"name":"F#4","midi":66,"time":301.0585937499997,"velocity":0.7637795275590551,"duration":0.6796875},{"name":"C3","midi":48,"time":301.4023437499997,"velocity":0.7637795275590551,"duration":0.3359375},{"name":"G#4","midi":68,"time":301.4023437499997,"velocity":0.7637795275590551,"duration":0.6796875},{"name":"D3","midi":50,"time":301.7460937499997,"velocity":0.7637795275590551,"duration":0.3359375},{"name":"F4","midi":65,"time":301.7460937499997,"velocity":0.7637795275590551,"duration":0.6796875},{"name":"D#3","midi":51,"time":302.0898437499997,"velocity":0.7637795275590551,"duration":0.6783854166666856},{"name":"F#4","midi":66,"time":302.0898437499997,"velocity":0.7637795275590551,"duration":0.6796875},{"name":"D#2","midi":39,"time":302.4335937499997,"velocity":0.7637795275590551,"duration":0.3359375},{"name":"D#4","midi":63,"time":302.4335937499997,"velocity":0.7637795275590551,"duration":0.3359375},{"name":"A#2","midi":46,"time":302.7773437499997,"velocity":0.7637795275590551,"duration":1.3854166666666856},{"name":"D4","midi":62,"time":302.7773437499997,"velocity":0.7637795275590551,"duration":0.33984375},{"name":"F4","midi":65,"time":302.7773437499997,"velocity":0.7637795275590551,"duration":0.3424479166666856},{"name":"F4","midi":65,"time":303.1263020833331,"velocity":0.7637795275590551,"duration":0.6875},{"name":"A#4","midi":70,"time":303.4752604166664,"velocity":0.7637795275590551,"duration":1.0364583333333144},{"name":"C5","midi":72,"time":303.8229166666664,"velocity":0.7637795275590551,"duration":0.33984375},{"name":"A#3","midi":58,"time":304.1718749999997,"velocity":0.7637795275590551,"duration":1.3854166666666288},{"name":"D5","midi":74,"time":304.1718749999997,"velocity":0.7637795275590551,"duration":0.33984375},{"name":"B4","midi":71,"time":304.5195312499997,"velocity":0.7637795275590551,"duration":0.33984375},{"name":"D#5","midi":75,"time":304.5195312499997,"velocity":0.7637795275590551,"duration":0.33984375},{"name":"A#4","midi":70,"time":304.86848958333303,"velocity":0.7637795275590551,"duration":0.33984375},{"name":"F5","midi":77,"time":304.86848958333303,"velocity":0.7637795275590551,"duration":1.0364583333333144},{"name":"G#4","midi":68,"time":305.21614583333303,"velocity":0.7637795275590551,"duration":0.33984375},{"name":"D#4","midi":63,"time":305.56510416666634,"velocity":0.7637795275590551,"duration":2.070312500000057},{"name":"F#4","midi":66,"time":305.56510416666634,"velocity":0.7637795275590551,"duration":0.33984375},{"name":"G#4","midi":68,"time":305.91276041666634,"velocity":0.7637795275590551,"duration":0.33984375},{"name":"D#5","midi":75,"time":305.91276041666634,"velocity":0.7637795275590551,"duration":0.33984375},{"name":"A#4","midi":70,"time":306.26171874999966,"velocity":0.7637795275590551,"duration":1.3893229166667425},{"name":"C#5","midi":73,"time":306.26171874999966,"velocity":0.7637795275590551,"duration":0.16666666666668561},{"name":"B4","midi":71,"time":306.43619791666634,"velocity":0.7637795275590551,"duration":0.16666666666668561},{"name":"C#5","midi":73,"time":306.61067708333303,"velocity":0.7637795275590551,"duration":0.16666666666668561},{"name":"G5","midi":79,"time":306.78645833333303,"velocity":0.7637795275590551,"duration":0.16666666666668561},{"name":"G#5","midi":80,"time":306.9609374999997,"velocity":0.7637795275590551,"duration":0.16666666666668561},{"name":"A#5","midi":82,"time":307.1354166666664,"velocity":0.7637795275590551,"duration":0.16666666666668561},{"name":"B5","midi":83,"time":307.3098958333331,"velocity":0.7637795275590551,"duration":0.6888020833333144},{"name":"E4","midi":64,"time":307.6588541666664,"velocity":0.7637795275590551,"duration":0.6901041666666856},{"name":"G#4","midi":68,"time":307.6588541666664,"velocity":0.7637795275590551,"duration":1.0390625},{"name":"A#5","midi":82,"time":308.0065104166664,"velocity":0.7637795275590551,"duration":0.16666666666668561},{"name":"G#5","midi":80,"time":308.1822916666664,"velocity":0.7637795275590551,"duration":0.16666666666668561},{"name":"D#4","midi":63,"time":308.3567708333331,"velocity":0.7637795275590551,"duration":0.6888020833333144},{"name":"A#5","midi":82,"time":308.3567708333331,"velocity":0.7637795275590551,"duration":0.33984375},{"name":"G4","midi":67,"time":308.7057291666664,"velocity":0.7637795275590551,"duration":0.33984375},{"name":"D#5","midi":75,"time":308.7057291666664,"velocity":0.7637795275590551,"duration":0.33984375},{"name":"C#4","midi":61,"time":309.0533854166664,"velocity":0.7637795275590551,"duration":0.6888020833333144},{"name":"F4","midi":65,"time":309.0533854166664,"velocity":0.7637795275590551,"duration":0.33984375},{"name":"F5","midi":77,"time":309.0533854166664,"velocity":0.7637795275590551,"duration":0.33984375},{"name":"E4","midi":64,"time":309.4023437499997,"velocity":0.7637795275590551,"duration":0.33984375},{"name":"G5","midi":79,"time":309.4023437499997,"velocity":0.7637795275590551,"duration":0.33984375},{"name":"B3","midi":59,"time":309.7499999999997,"velocity":0.7637795275590551,"duration":0.6888020833333144},{"name":"D#4","midi":63,"time":309.7499999999997,"velocity":0.7637795275590551,"duration":0.33984375},{"name":"G#5","midi":80,"time":309.7499999999997,"velocity":0.7637795275590551,"duration":1.3854166666666288},{"name":"B4","midi":71,"time":310.09895833333303,"velocity":0.7637795275590551,"duration":0.33984375},{"name":"C#4","midi":61,"time":310.44661458333303,"velocity":0.7637795275590551,"duration":0.6888020833333144},{"name":"A#4","midi":70,"time":310.44661458333303,"velocity":0.7637795275590551,"duration":0.33984375},{"name":"G#4","midi":68,"time":310.79557291666634,"velocity":0.7637795275590551,"duration":0.33984375},{"name":"D#4","midi":63,"time":311.14322916666634,"velocity":0.7637795275590551,"duration":0.3424479166666856},{"name":"G4","midi":67,"time":311.14322916666634,"velocity":0.7637795275590551,"duration":0.33984375},{"name":"A#5","midi":82,"time":311.14322916666634,"velocity":0.7637795275590551,"duration":0.6901041666667425},{"name":"D#4","midi":63,"time":311.4921874999997,"velocity":0.7637795275590551,"duration":1.0442708333333712},{"name":"F4","midi":65,"time":311.6666666666664,"velocity":0.7637795275590551,"duration":0.16666666666668561},{"name":"G4","midi":67,"time":311.8411458333331,"velocity":0.7637795275590551,"duration":0.33984375},{"name":"D#5","midi":75,"time":311.8411458333331,"velocity":0.7637795275590551,"duration":1.0403645833333144},{"name":"G#4","midi":68,"time":312.1901041666664,"velocity":0.7637795275590551,"duration":0.16666666666668561},{"name":"A#4","midi":70,"time":312.3645833333331,"velocity":0.7637795275590551,"duration":0.16666666666668561},{"name":"G#3","midi":56,"time":312.5416666666664,"velocity":0.7637795275590551,"duration":1.3854166666666288},{"name":"B4","midi":71,"time":312.5416666666664,"velocity":0.7637795275590551,"duration":0.3424479166666856},{"name":"B4","midi":71,"time":312.8893229166664,"velocity":0.7637795275590551,"duration":0.6875},{"name":"C#5","midi":73,"time":313.2382812499997,"velocity":0.7637795275590551,"duration":0.33984375},{"name":"A#4","midi":70,"time":313.5859374999997,"velocity":0.7637795275590551,"duration":0.33984375},{"name":"D#5","midi":75,"time":313.5859374999997,"velocity":0.7637795275590551,"duration":0.33984375},{"name":"C#4","midi":61,"time":313.93489583333303,"velocity":0.7637795275590551,"duration":2.082031249999943},{"name":"G#4","midi":68,"time":313.93489583333303,"velocity":0.7637795275590551,"duration":0.33984375},{"name":"E5","midi":76,"time":313.93489583333303,"velocity":0.7637795275590551,"duration":0.33984375},{"name":"G4","midi":67,"time":314.28255208333303,"velocity":0.7637795275590551,"duration":0.33984375},{"name":"D#5","midi":75,"time":314.28255208333303,"velocity":0.7637795275590551,"duration":0.33984375},{"name":"G#4","midi":68,"time":314.63151041666634,"velocity":0.7637795275590551,"duration":0.33984375},{"name":"C#5","midi":73,"time":314.63151041666634,"velocity":0.7637795275590551,"duration":0.6888020833333144},{"name":"A#4","midi":70,"time":314.97916666666634,"velocity":0.7637795275590551,"duration":0.33984375},{"name":"D#4","midi":63,"time":315.32812499999966,"velocity":0.7637795275590551,"duration":0.33984375},{"name":"G#5","midi":80,"time":315.32812499999966,"velocity":0.7637795275590551,"duration":0.6145833333333144},{"name":"F4","midi":65,"time":315.67578124999966,"velocity":0.7637795275590551,"duration":0.33984375},{"name":"B3","midi":59,"time":316.024739583333,"velocity":0.7637795275590551,"duration":0.6888020833333144},{"name":"G4","midi":67,"time":316.024739583333,"velocity":0.7637795275590551,"duration":0.33984375},{"name":"D#5","midi":75,"time":316.024739583333,"velocity":0.7637795275590551,"duration":1.0390625},{"name":"G#4","midi":68,"time":316.372395833333,"velocity":0.7637795275590551,"duration":0.33984375},{"name":"A#3","midi":58,"time":316.7213541666663,"velocity":0.7637795275590551,"duration":1.3880208333333712},{"name":"A#4","midi":70,"time":316.7213541666663,"velocity":0.7637795275590551,"duration":0.16666666666668561},{"name":"B4","midi":71,"time":316.895833333333,"velocity":0.7637795275590551,"duration":0.16666666666668561},{"name":"C#5","midi":73,"time":317.07031249999966,"velocity":0.7637795275590551,"duration":0.6888020833333144},{"name":"F5","midi":77,"time":317.07031249999966,"velocity":0.7637795275590551,"duration":0.33984375},{"name":"G5","midi":79,"time":317.419270833333,"velocity":0.7637795275590551,"duration":0.6901041666666856},{"name":"B4","midi":71,"time":317.766927083333,"velocity":0.7637795275590551,"duration":0.16666666666668561},{"name":"A#4","midi":70,"time":317.942708333333,"velocity":0.7637795275590551,"duration":0.16666666666668561},{"name":"G#3","midi":56,"time":318.11718749999966,"velocity":0.7637795275590551,"duration":0.6328125},{"name":"B4","midi":71,"time":318.11718749999966,"velocity":0.7637795275590551,"duration":0.6875},{"name":"G#5","midi":80,"time":318.11718749999966,"velocity":0.7637795275590551,"duration":0.33984375},{"name":"A#5","midi":82,"time":318.46484374999966,"velocity":0.7637795275590551,"duration":0.33984375},{"name":"C#4","midi":61,"time":318.813802083333,"velocity":0.7637795275590551,"duration":1.0364583333333144},{"name":"G#5","midi":80,"time":318.813802083333,"velocity":0.7637795275590551,"duration":0.33984375},{"name":"F#5","midi":78,"time":319.161458333333,"velocity":0.7637795275590551,"duration":0.33984375},{"name":"G#4","midi":68,"time":319.5104166666663,"velocity":0.7637795275590551,"duration":1.3854166666666288},{"name":"F5","midi":77,"time":319.5104166666663,"velocity":0.7637795275590551,"duration":0.33984375},{"name":"D#4","midi":63,"time":319.8580729166663,"velocity":0.7637795275590551,"duration":0.33984375},{"name":"F#5","midi":78,"time":319.8580729166663,"velocity":0.7637795275590551,"duration":0.33984375},{"name":"C#4","midi":61,"time":320.2070312499996,"velocity":0.7637795275590551,"duration":0.33984375},{"name":"G#5","midi":80,"time":320.2070312499996,"velocity":0.7637795275590551,"duration":1.0364583333333144},{"name":"B3","midi":59,"time":320.5546874999996,"velocity":0.7637795275590551,"duration":0.33984375},{"name":"A#3","midi":58,"time":320.9036458333329,"velocity":0.7637795275590551,"duration":0.33984375},{"name":"C#5","midi":73,"time":320.9036458333329,"velocity":0.7637795275590551,"duration":2.0846354166666856},{"name":"B3","midi":59,"time":321.25260416666623,"velocity":0.7637795275590551,"duration":0.33984375},{"name":"F#5","midi":78,"time":321.25260416666623,"velocity":0.7637795275590551,"duration":0.33984375},{"name":"C#4","midi":61,"time":321.60026041666623,"velocity":0.7637795275590551,"duration":0.6901041666666856},{"name":"F5","midi":77,"time":321.60026041666623,"velocity":0.7637795275590551,"duration":0.33984375},{"name":"F#5","midi":78,"time":321.94921874999955,"velocity":0.7637795275590551,"duration":0.16666666666668561},{"name":"G#5","midi":80,"time":322.12369791666623,"velocity":0.7637795275590551,"duration":0.16666666666668561},{"name":"F#3","midi":54,"time":322.2981770833329,"velocity":0.7637795275590551,"duration":0.6901041666666856},{"name":"A#5","midi":82,"time":322.2981770833329,"velocity":0.7637795275590551,"duration":0.16666666666668561},{"name":"G#5","midi":80,"time":322.4726562499996,"velocity":0.7637795275590551,"duration":0.16666666666668561},{"name":"A#5","midi":82,"time":322.6484374999996,"velocity":0.7637795275590551,"duration":0.6888020833333144},{"name":"B3","midi":59,"time":322.9960937499996,"velocity":0.7637795275590551,"duration":1.0390625},{"name":"D#5","midi":75,"time":322.9960937499996,"velocity":0.7637795275590551,"duration":0.6901041666666856},{"name":"G#5","midi":80,"time":323.3450520833329,"velocity":0.7637795275590551,"duration":0.16666666666668561},{"name":"F#5","midi":78,"time":323.5195312499996,"velocity":0.7637795275590551,"duration":0.16666666666668561},{"name":"C#5","midi":73,"time":323.6940104166663,"velocity":0.7637795275590551,"duration":0.6888020833333144},{"name":"F5","midi":77,"time":323.6940104166663,"velocity":0.7637795275590551,"duration":0.33984375},{"name":"A#3","midi":58,"time":324.0429687499996,"velocity":0.7637795275590551,"duration":0.33984375},{"name":"F#5","midi":78,"time":324.0429687499996,"velocity":0.7637795275590551,"duration":0.6888020833333144},{"name":"G#3","midi":56,"time":324.3906249999996,"velocity":0.7637795275590551,"duration":0.6888020833333144},{"name":"B4","midi":71,"time":324.3906249999996,"velocity":0.7637795275590551,"duration":0.6888020833333144},{"name":"F5","midi":77,"time":324.7395833333329,"velocity":0.7637795275590551,"duration":0.33984375},{"name":"F#3","midi":54,"time":325.0872395833329,"velocity":0.7637795275590551,"duration":0.33984375},{"name":"A#4","midi":70,"time":325.0872395833329,"velocity":0.7637795275590551,"duration":0.6888020833333144},{"name":"F#5","midi":78,"time":325.0872395833329,"velocity":0.7637795275590551,"duration":0.33984375},{"name":"E3","midi":52,"time":325.43619791666623,"velocity":0.7637795275590551,"duration":0.33984375},{"name":"C#5","midi":73,"time":325.43619791666623,"velocity":0.7637795275590551,"duration":0.33984375},{"name":"D#3","midi":51,"time":325.78385416666623,"velocity":0.7637795275590551,"duration":0.16666666666668561},{"name":"B4","midi":71,"time":325.78385416666623,"velocity":0.7637795275590551,"duration":0.6914062500000568},{"name":"F#5","midi":78,"time":325.78385416666623,"velocity":0.7637795275590551,"duration":1.0403645833333712},{"name":"C#3","midi":49,"time":325.95963541666623,"velocity":0.7637795275590551,"duration":0.16666666666668561},{"name":"D#3","midi":51,"time":326.1341145833329,"velocity":0.7637795275590551,"duration":0.16666666666668561},{"name":"E3","midi":52,"time":326.3085937499996,"velocity":0.7637795275590551,"duration":0.16666666666668561},{"name":"A#2","midi":46,"time":326.4843749999996,"velocity":0.7637795275590551,"duration":0.33984375},{"name":"C#5","midi":73,"time":326.4843749999996,"velocity":0.7637795275590551,"duration":1.3854166666666288},{"name":"F#2","midi":42,"time":326.8320312499996,"velocity":0.7637795275590551,"duration":0.33984375},{"name":"G#5","midi":80,"time":326.8320312499996,"velocity":0.7637795275590551,"duration":0.33984375},{"name":"G#2","midi":44,"time":327.1809895833329,"velocity":0.7637795275590551,"duration":0.33984375},{"name":"F#5","midi":78,"time":327.1809895833329,"velocity":0.7637795275590551,"duration":0.33984375},{"name":"A#2","midi":46,"time":327.5286458333329,"velocity":0.7637795275590551,"duration":0.33984375},{"name":"E5","midi":76,"time":327.5286458333329,"velocity":0.7637795275590551,"duration":0.33984375},{"name":"B2","midi":47,"time":327.87760416666623,"velocity":0.7637795275590551,"duration":0.33984375},{"name":"F#4","midi":66,"time":327.87760416666623,"velocity":0.7637795275590551,"duration":1.38671875},{"name":"D#5","midi":75,"time":327.87760416666623,"velocity":0.7637795275590551,"duration":0.33984375},{"name":"C#3","midi":49,"time":328.22526041666623,"velocity":0.7637795275590551,"duration":0.33984375},{"name":"E5","midi":76,"time":328.22526041666623,"velocity":0.7637795275590551,"duration":0.33984375},{"name":"D#3","midi":51,"time":328.57421874999955,"velocity":0.7637795275590551,"duration":0.33984375},{"name":"F#5","midi":78,"time":328.57421874999955,"velocity":0.7637795275590551,"duration":1.3880208333333712},{"name":"E3","midi":52,"time":328.92187499999955,"velocity":0.7637795275590551,"duration":0.16666666666668561},{"name":"F#3","midi":54,"time":329.09765624999955,"velocity":0.7637795275590551,"duration":0.16666666666668561},{"name":"G#3","midi":56,"time":329.27213541666623,"velocity":0.7637795275590551,"duration":0.33984375},{"name":"B4","midi":71,"time":329.27213541666623,"velocity":0.7637795275590551,"duration":2.0846354166666856},{"name":"A#3","midi":58,"time":329.61979166666623,"velocity":0.7637795275590551,"duration":0.16666666666668561},{"name":"B3","midi":59,"time":329.79557291666623,"velocity":0.7637795275590551,"duration":0.16666666666668561},{"name":"C#3","midi":49,"time":329.9700520833329,"velocity":0.7637795275590551,"duration":0.33984375},{"name":"E5","midi":76,"time":329.9700520833329,"velocity":0.7637795275590551,"duration":1.0390625},{"name":"D#3","midi":51,"time":330.31901041666623,"velocity":0.7637795275590551,"duration":0.16666666666668561},{"name":"E3","midi":52,"time":330.4934895833329,"velocity":0.7637795275590551,"duration":0.16666666666668561},{"name":"F#2","midi":42,"time":330.6679687499996,"velocity":0.7637795275590551,"duration":0.33984375},{"name":"F#3","midi":54,"time":331.0169270833329,"velocity":0.7637795275590551,"duration":0.6888020833333144},{"name":"D#5","midi":75,"time":331.0169270833329,"velocity":0.7637795275590551,"duration":0.33984375},{"name":"A#4","midi":70,"time":331.3645833333329,"velocity":0.7637795275590551,"duration":0.6888020833333144},{"name":"C#5","midi":73,"time":331.3645833333329,"velocity":0.7637795275590551,"duration":0.6888020833333144},{"name":"G3","midi":55,"time":331.71354166666623,"velocity":0.7637795275590551,"duration":0.33984375},{"name":"G#3","midi":56,"time":332.06119791666623,"velocity":0.7637795275590551,"duration":0.33984375},{"name":"G#4","midi":68,"time":332.06119791666623,"velocity":0.7637795275590551,"duration":1.3854166666666288},{"name":"B4","midi":71,"time":332.06119791666623,"velocity":0.7637795275590551,"duration":0.6888020833333144},{"name":"G3","midi":55,"time":332.41015624999955,"velocity":0.7637795275590551,"duration":0.33984375},{"name":"G#3","midi":56,"time":332.75781249999955,"velocity":0.7637795275590551,"duration":0.33984375},{"name":"E5","midi":76,"time":332.75781249999955,"velocity":0.7637795275590551,"duration":1.0364583333333144},{"name":"A#3","midi":58,"time":333.10677083333286,"velocity":0.7637795275590551,"duration":0.33984375},{"name":"B3","midi":59,"time":333.45442708333286,"velocity":0.7637795275590551,"duration":0.33984375},{"name":"F#4","midi":66,"time":333.45442708333286,"velocity":0.7637795275590551,"duration":0.6888020833333144},{"name":"A#3","midi":58,"time":333.8033854166662,"velocity":0.7637795275590551,"duration":0.33984375},{"name":"D5","midi":74,"time":333.8033854166662,"velocity":0.7637795275590551,"duration":0.33984375},{"name":"G#3","midi":56,"time":334.1510416666662,"velocity":0.7637795275590551,"duration":0.33984375},{"name":"B4","midi":71,"time":334.1510416666662,"velocity":0.7637795275590551,"duration":1.0364583333333144},{"name":"D#5","midi":75,"time":334.1510416666662,"velocity":0.7637795275590551,"duration":1.0390625},{"name":"F#3","midi":54,"time":334.4999999999995,"velocity":0.7637795275590551,"duration":0.33984375},{"name":"F3","midi":53,"time":334.8476562499995,"velocity":0.7637795275590551,"duration":0.33984375},{"name":"F#3","midi":54,"time":335.19661458333286,"velocity":0.7637795275590551,"duration":0.33984375},{"name":"D#5","midi":75,"time":335.19661458333286,"velocity":0.7637795275590551,"duration":0.33984375},{"name":"F3","midi":53,"time":335.54427083333286,"velocity":0.7637795275590551,"duration":0.33984375},{"name":"C#5","midi":73,"time":335.54427083333286,"velocity":0.7637795275590551,"duration":0.33984375},{"name":"G#5","midi":80,"time":335.54427083333286,"velocity":0.7637795275590551,"duration":1.0364583333333144},{"name":"D#3","midi":51,"time":335.8932291666662,"velocity":0.7637795275590551,"duration":0.33984375},{"name":"B4","midi":71,"time":335.8932291666662,"velocity":0.7637795275590551,"duration":0.33984375},{"name":"D3","midi":50,"time":336.2408854166662,"velocity":0.7637795275590551,"duration":0.33984375},{"name":"A#4","midi":70,"time":336.2408854166662,"velocity":0.7637795275590551,"duration":0.33984375},{"name":"D4","midi":62,"time":336.5898437499995,"velocity":0.7637795275590551,"duration":0.16666666666668561},{"name":"B4","midi":71,"time":336.5898437499995,"velocity":0.7637795275590551,"duration":0.3424479166666856},{"name":"G#5","midi":80,"time":336.5898437499995,"velocity":0.7637795275590551,"duration":0.3424479166666856},{"name":"D#4","midi":63,"time":336.7643229166662,"velocity":0.7637795275590551,"duration":0.16666666666668561},{"name":"E4","midi":64,"time":336.93880208333286,"velocity":0.7637795275590551,"duration":0.33984375},{"name":"C#5","midi":73,"time":336.93880208333286,"velocity":0.7637795275590551,"duration":0.6888020833333144},{"name":"G5","midi":79,"time":336.93880208333286,"velocity":0.7637795275590551,"duration":0.33984375},{"name":"A#3","midi":58,"time":337.2877604166662,"velocity":0.7637795275590551,"duration":0.33984375},{"name":"F#5","midi":78,"time":337.2877604166662,"velocity":0.7637795275590551,"duration":0.6888020833333144},{"name":"B3","midi":59,"time":337.6354166666662,"velocity":0.7637795275590551,"duration":0.33984375},{"name":"G#4","midi":68,"time":337.6354166666662,"velocity":0.7637795275590551,"duration":0.6888020833333144},{"name":"C4","midi":60,"time":337.9843749999995,"velocity":0.7637795275590551,"duration":0.33984375},{"name":"F#5","midi":78,"time":337.9843749999995,"velocity":0.7637795275590551,"duration":0.33984375},{"name":"C#4","midi":61,"time":338.3320312499995,"velocity":0.7637795275590551,"duration":0.33984375},{"name":"C#5","midi":73,"time":338.3320312499995,"velocity":0.7637795275590551,"duration":1.0364583333333144},{"name":"F5","midi":77,"time":338.3320312499995,"velocity":0.7637795275590551,"duration":0.33984375},{"name":"A#3","midi":58,"time":338.6809895833328,"velocity":0.7637795275590551,"duration":0.33984375},{"name":"E5","midi":76,"time":338.6809895833328,"velocity":0.7637795275590551,"duration":0.33984375},{"name":"G3","midi":55,"time":339.0299479166661,"velocity":0.7637795275590551,"duration":0.33984375},{"name":"D#5","midi":75,"time":339.0299479166661,"velocity":0.7637795275590551,"duration":0.6888020833333144},{"name":"G#3","midi":56,"time":339.3776041666661,"velocity":0.7637795275590551,"duration":0.6888020833333144},{"name":"B4","midi":71,"time":339.3776041666661,"velocity":0.7637795275590551,"duration":0.33984375},{"name":"A#4","midi":70,"time":339.72656249999943,"velocity":0.7637795275590551,"duration":1.0364583333333144},{"name":"C#5","midi":73,"time":339.72656249999943,"velocity":0.7637795275590551,"duration":0.6888020833333144},{"name":"G3","midi":55,"time":340.07421874999943,"velocity":0.7637795275590551,"duration":0.33984375},{"name":"G#3","midi":56,"time":340.42317708333275,"velocity":0.7637795275590551,"duration":0.33984375},{"name":"B4","midi":71,"time":340.42317708333275,"velocity":0.7637795275590551,"duration":1.0364583333333144},{"name":"F#3","midi":54,"time":340.77083333333275,"velocity":0.7637795275590551,"duration":0.33984375},{"name":"D#4","midi":63,"time":340.77083333333275,"velocity":0.7637795275590551,"duration":0.33984375},{"name":"E3","midi":52,"time":341.11979166666606,"velocity":0.7637795275590551,"duration":0.33984375},{"name":"G#4","midi":68,"time":341.11979166666606,"velocity":0.7637795275590551,"duration":1.0364583333333144},{"name":"D#3","midi":51,"time":341.46744791666606,"velocity":0.7637795275590551,"duration":0.33984375},{"name":"B4","midi":71,"time":341.46744791666606,"velocity":0.7637795275590551,"duration":0.33984375},{"name":"C#3","midi":49,"time":341.8164062499994,"velocity":0.7637795275590551,"duration":0.33984375},{"name":"A#4","midi":70,"time":341.8164062499994,"velocity":0.7637795275590551,"duration":1.0364583333333144},{"name":"D3","midi":50,"time":342.1640624999994,"velocity":0.7637795275590551,"duration":0.33984375},{"name":"G#4","midi":68,"time":342.1640624999994,"velocity":0.7637795275590551,"duration":0.33984375},{"name":"D#3","midi":51,"time":342.5130208333327,"velocity":0.7637795275590551,"duration":0.33984375},{"name":"F#4","midi":66,"time":342.5130208333327,"velocity":0.7637795275590551,"duration":1.0364583333333144},{"name":"A#2","midi":46,"time":342.8606770833327,"velocity":0.7637795275590551,"duration":0.33984375},{"name":"F#5","midi":78,"time":342.8606770833327,"velocity":0.7637795275590551,"duration":0.33984375},{"name":"B2","midi":47,"time":343.209635416666,"velocity":0.7637795275590551,"duration":0.33984375},{"name":"G#4","midi":68,"time":343.209635416666,"velocity":0.7637795275590551,"duration":1.7343749999999432},{"name":"C3","midi":48,"time":343.557291666666,"velocity":0.7637795275590551,"duration":0.33984375},{"name":"F#4","midi":66,"time":343.557291666666,"velocity":0.7637795275590551,"duration":0.33984375},{"name":"C#3","midi":49,"time":343.9062499999993,"velocity":0.7637795275590551,"duration":0.33984375},{"name":"E4","midi":64,"time":343.9062499999993,"velocity":0.7637795275590551,"duration":0.33984375},{"name":"G#2","midi":44,"time":344.2539062499993,"velocity":0.7637795275590551,"duration":0.33984375},{"name":"D#4","midi":63,"time":344.2539062499993,"velocity":0.7637795275590551,"duration":0.33984375},{"name":"A#2","midi":46,"time":344.60286458333263,"velocity":0.7637795275590551,"duration":1.390625},{"name":"D4","midi":62,"time":344.60286458333263,"velocity":0.7637795275590551,"duration":0.6901041666666856},{"name":"F#4","midi":66,"time":344.95052083333263,"velocity":0.7637795275590551,"duration":0.16666666666668561},{"name":"F4","midi":65,"time":345.1249999999993,"velocity":0.7637795275590551,"duration":0.16666666666668561},{"name":"D#4","midi":63,"time":345.3007812499993,"velocity":0.7637795275590551,"duration":1.0390624999999432},{"name":"F#4","midi":66,"time":345.3007812499993,"velocity":0.7637795275590551,"duration":0.33984375},{"name":"G#4","midi":68,"time":345.6484374999993,"velocity":0.7637795275590551,"duration":0.33984375},{"name":"A#4","midi":70,"time":345.99869791666595,"velocity":0.7637795275590551,"duration":1.3854166666666288},{"name":"A#2","midi":46,"time":345.99869791666595,"velocity":0.7637795275590551,"duration":0.6875},{"name":"F3","midi":53,"time":346.34635416666595,"velocity":0.7637795275590551,"duration":0.33984375},{"name":"D4","midi":62,"time":346.34635416666595,"velocity":0.7637795275590551,"duration":0.16666666666668561},{"name":"C4","midi":60,"time":346.52213541666595,"velocity":0.7637795275590551,"duration":0.16536458333331439},{"name":"A#3","midi":58,"time":346.69531249999926,"velocity":0.7637795275590551,"duration":1.0416666666666288},{"name":"D4","midi":62,"time":346.69531249999926,"velocity":0.7637795275590551,"duration":0.33984375},{"name":"F4","midi":65,"time":347.04296874999926,"velocity":0.7637795275590551,"duration":0.33984375},{"name":"A#4","midi":70,"time":347.3919270833326,"velocity":0.7637795275590551,"duration":1.0494791666666288},{"name":"F5","midi":77,"time":347.3919270833326,"velocity":0.7637795275590551,"duration":1.4023437499999432},{"name":"B3","midi":59,"time":347.7447916666659,"velocity":0.7637795275590551,"duration":0.3450520833333144},{"name":"A#3","midi":58,"time":348.0976562499992,"velocity":0.7637795275590551,"duration":0.3450520833333144},{"name":"G#3","midi":56,"time":348.4492187499992,"velocity":0.7637795275590551,"duration":0.3450520833333144},{"name":"B4","midi":71,"time":348.4492187499992,"velocity":0.7637795275590551,"duration":0.3450520833333144},{"name":"F#3","midi":54,"time":348.8020833333325,"velocity":0.7637795275590551,"duration":0.3450520833333144},{"name":"A#4","midi":70,"time":348.8020833333325,"velocity":0.7637795275590551,"duration":1.0494791666666288},{"name":"A#5","midi":82,"time":348.8020833333325,"velocity":0.7637795275590551,"duration":2.108072916666572},{"name":"G#3","midi":56,"time":349.15494791666583,"velocity":0.7637795275590551,"duration":0.3450520833333144},{"name":"A#3","midi":58,"time":349.50781249999915,"velocity":0.7637795275590551,"duration":0.6979166666666288},{"name":"G#4","midi":68,"time":349.86067708333246,"velocity":0.7637795275590551,"duration":0.3450520833333144},{"name":"D#3","midi":51,"time":350.2135416666658,"velocity":0.7637795275590551,"duration":0.3450520833333144},{"name":"F#4","midi":66,"time":350.2135416666658,"velocity":0.7637795275590551,"duration":1.0494791666666288},{"name":"F3","midi":53,"time":350.5664062499991,"velocity":0.7637795275590551,"duration":0.16796875},{"name":"F#3","midi":54,"time":350.7421874999991,"velocity":0.7637795275590551,"duration":0.16796875},{"name":"G#3","midi":56,"time":350.9179687499991,"velocity":0.7637795275590551,"duration":1.0494791666666288},{"name":"B5","midi":83,"time":350.9179687499991,"velocity":0.7637795275590551,"duration":0.6979166666666288},{"name":"G#4","midi":68,"time":351.2708333333324,"velocity":0.7637795275590551,"duration":0.3450520833333144},{"name":"A#4","midi":70,"time":351.6236979166657,"velocity":0.7637795275590551,"duration":1.7552083333332575},{"name":"A#5","midi":82,"time":351.6236979166657,"velocity":0.7637795275590551,"duration":0.6979166666666288},{"name":"F#3","midi":54,"time":351.97656249999903,"velocity":0.7637795275590551,"duration":0.3450520833333144},{"name":"F3","midi":53,"time":352.32942708333235,"velocity":0.7637795275590551,"duration":0.3450520833333144},{"name":"G#5","midi":80,"time":352.32942708333235,"velocity":0.7637795275590551,"duration":0.6979166666666288},{"name":"D4","midi":62,"time":352.68229166666566,"velocity":0.7637795275590551,"duration":0.3450520833333144},{"name":"D#4","midi":63,"time":353.03385416666566,"velocity":0.7637795275590551,"duration":0.6979166666666288},{"name":"F#5","midi":78,"time":353.03385416666566,"velocity":0.7637795275590551,"duration":0.6979166666666288},{"name":"F4","midi":65,"time":353.386718749999,"velocity":0.7637795275590551,"duration":0.16796875},{"name":"F#4","midi":66,"time":353.5638020833323,"velocity":0.7637795275590551,"duration":0.16796875},{"name":"F4","midi":65,"time":353.7395833333323,"velocity":0.7637795275590551,"duration":0.3450520833333144},{"name":"G#4","midi":68,"time":353.7395833333323,"velocity":0.7637795275590551,"duration":1.0494791666666288},{"name":"G#5","midi":80,"time":353.7395833333323,"velocity":0.7637795275590551,"duration":0.6979166666666288},{"name":"D#4","midi":63,"time":354.0924479166656,"velocity":0.7637795275590551,"duration":0.3450520833333144},{"name":"D4","midi":62,"time":354.4453124999989,"velocity":0.7637795275590551,"duration":0.3450520833333144},{"name":"A#5","midi":82,"time":354.4453124999989,"velocity":0.7637795275590551,"duration":1.40234375},{"name":"D#4","midi":63,"time":354.79817708333223,"velocity":0.7637795275590551,"duration":0.6979166666666856},{"name":"F#4","midi":66,"time":354.79817708333223,"velocity":0.7637795275590551,"duration":0.3450520833333144},{"name":"F4","midi":65,"time":355.14973958333223,"velocity":0.7637795275590551,"duration":0.6979166666666856},{"name":"C#4","midi":61,"time":355.5026041666656,"velocity":0.7637795275590551,"duration":0.6979166666666288},{"name":"G4","midi":67,"time":355.8554687499989,"velocity":0.7637795275590551,"duration":0.3450520833333144},{"name":"D#5","midi":75,"time":355.8554687499989,"velocity":0.7637795275590551,"duration":1.4023437499999432},{"name":"A#3","midi":58,"time":356.20833333333223,"velocity":0.7637795275590551,"duration":0.3450520833333144},{"name":"D#4","midi":63,"time":356.20833333333223,"velocity":0.7637795275590551,"duration":0.16796875},{"name":"E4","midi":64,"time":356.38411458333223,"velocity":0.7637795275590551,"duration":0.16796875},{"name":"D#4","midi":63,"time":356.56119791666555,"velocity":0.7637795275590551,"duration":1.0520833333333144},{"name":"C#4","midi":61,"time":356.91406249999886,"velocity":0.7637795275590551,"duration":0.3450520833333144},{"name":"B3","midi":59,"time":357.26562499999886,"velocity":0.7637795275590551,"duration":0.3450520833333144},{"name":"G#5","midi":80,"time":357.26562499999886,"velocity":0.7637795275590551,"duration":2.108072916666572},{"name":"C#4","midi":61,"time":357.6184895833322,"velocity":0.7637795275590551,"duration":0.3450520833333144},{"name":"E4","midi":64,"time":357.6184895833322,"velocity":0.7637795275590551,"duration":0.3450520833333144},{"name":"B3","midi":59,"time":357.9713541666655,"velocity":0.7637795275590551,"duration":0.3450520833333144},{"name":"D#4","midi":63,"time":357.9713541666655,"velocity":0.7637795275590551,"duration":0.3450520833333144},{"name":"A#3","midi":58,"time":358.3242187499988,"velocity":0.7637795275590551,"duration":0.3450520833333144},{"name":"C#4","midi":61,"time":358.3242187499988,"velocity":0.7637795275590551,"duration":0.3450520833333144},{"name":"G#3","midi":56,"time":358.6770833333321,"velocity":0.7637795275590551,"duration":0.3450520833333144},{"name":"B3","midi":59,"time":358.6770833333321,"velocity":0.7637795275590551,"duration":0.3450520833333144},{"name":"F#3","midi":54,"time":359.02994791666544,"velocity":0.7637795275590551,"duration":0.3450520833333144},{"name":"C#4","midi":61,"time":359.02994791666544,"velocity":0.7637795275590551,"duration":0.3450520833333144},{"name":"E3","midi":52,"time":359.38281249999875,"velocity":0.7637795275590551,"duration":0.3450520833333144},{"name":"D#4","midi":63,"time":359.38281249999875,"velocity":0.7637795275590551,"duration":0.6979166666666288},{"name":"F#5","midi":78,"time":359.38281249999875,"velocity":0.7637795275590551,"duration":0.6979166666666288},{"name":"D#3","midi":51,"time":359.73437499999875,"velocity":0.7637795275590551,"duration":0.3450520833333144},{"name":"C#3","midi":49,"time":360.08723958333206,"velocity":0.7637795275590551,"duration":0.6979166666666288},{"name":"G#3","midi":56,"time":360.08723958333206,"velocity":0.7637795275590551,"duration":0.3450520833333144},{"name":"E5","midi":76,"time":360.08723958333206,"velocity":0.7637795275590551,"duration":1.4023437499999432},{"name":"C#4","midi":61,"time":360.4401041666654,"velocity":0.7637795275590551,"duration":0.16796875},{"name":"B3","midi":59,"time":360.6158854166654,"velocity":0.7637795275590551,"duration":0.16796875},{"name":"A#3","midi":58,"time":360.7929687499987,"velocity":0.7637795275590551,"duration":0.3450520833333144},{"name":"C#4","midi":61,"time":360.7929687499987,"velocity":0.7637795275590551,"duration":1.0494791666666288},{"name":"G#3","midi":56,"time":361.145833333332,"velocity":0.7637795275590551,"duration":0.3450520833333144},{"name":"G3","midi":55,"time":361.4986979166653,"velocity":0.7637795275590551,"duration":0.3450520833333144},{"name":"D#5","midi":75,"time":361.4986979166653,"velocity":0.7637795275590551,"duration":1.4205729166666288},{"name":"G#3","midi":56,"time":361.8502604166653,"velocity":0.7637795275590551,"duration":0.6979166666666288},{"name":"B3","midi":59,"time":361.8502604166653,"velocity":0.7637795275590551,"duration":0.3450520833333144},{"name":"A#3","midi":58,"time":362.20312499999864,"velocity":0.7637795275590551,"duration":0.7109375},{"name":"F#3","midi":54,"time":362.55598958333195,"velocity":0.7637795275590551,"duration":0.3580729166666856},{"name":"F3","midi":53,"time":362.92447916666526,"velocity":0.7637795275590551,"duration":1.77734375},{"name":"G#3","midi":56,"time":362.92447916666526,"velocity":0.7637795275590551,"duration":1.0625},{"name":"B4","midi":71,"time":363.28776041666526,"velocity":0.7637795275590551,"duration":0.3489583333333144},{"name":"G#4","midi":68,"time":363.6445312499986,"velocity":0.7637795275590551,"duration":1.0625},{"name":"A#3","midi":58,"time":364.00260416666526,"velocity":0.7637795275590551,"duration":0.3489583333333144},{"name":"B3","midi":59,"time":364.3593749999986,"velocity":0.7637795275590551,"duration":0.3489583333333144},{"name":"A#4","midi":70,"time":364.7161458333319,"velocity":0.7637795275590551,"duration":0.3489583333333144},{"name":"A#3","midi":58,"time":364.7161458333319,"velocity":0.7637795275590551,"duration":0.3489583333333144},{"name":"F#3","midi":54,"time":364.7161458333319,"velocity":0.7637795275590551,"duration":0.3489583333333144},{"name":"B4","midi":71,"time":365.0729166666652,"velocity":0.7637795275590551,"duration":1.0624999999999432},{"name":"G#3","midi":56,"time":365.0729166666652,"velocity":0.7637795275590551,"duration":0.3489583333333144},{"name":"F3","midi":53,"time":365.0729166666652,"velocity":0.7637795275590551,"duration":0.3489583333333144},{"name":"F#3","midi":54,"time":365.4296874999985,"velocity":0.7637795275590551,"duration":0.3489583333333144},{"name":"D#3","midi":51,"time":365.4296874999985,"velocity":0.7637795275590551,"duration":0.3489583333333144},{"name":"F3","midi":53,"time":365.78645833333184,"velocity":0.7637795275590551,"duration":1.0624999999999432},{"name":"D3","midi":50,"time":365.78645833333184,"velocity":0.7637795275590551,"duration":1.7773437499998863},{"name":"G#4","midi":68,"time":366.14453124999847,"velocity":0.7637795275590551,"duration":0.3489583333333144},{"name":"F4","midi":65,"time":366.5013020833318,"velocity":0.7637795275590551,"duration":1.0624999999999432},{"name":"F#3","midi":54,"time":366.8580729166651,"velocity":0.7637795275590551,"duration":0.3489583333333144},{"name":"G#3","midi":56,"time":367.2148437499984,"velocity":0.7637795275590551,"duration":0.3489583333333144},{"name":"F#4","midi":66,"time":367.5716145833317,"velocity":0.7637795275590551,"duration":0.3489583333333144},{"name":"F#3","midi":54,"time":367.5716145833317,"velocity":0.7637795275590551,"duration":0.3489583333333144},{"name":"D#3","midi":51,"time":367.5716145833317,"velocity":0.7637795275590551,"duration":0.3489583333333144},{"name":"G#4","midi":68,"time":367.92838541666504,"velocity":0.7637795275590551,"duration":1.0624999999999432},{"name":"F3","midi":53,"time":367.92838541666504,"velocity":0.7637795275590551,"duration":0.3489583333333144},{"name":"D3","midi":50,"time":367.92838541666504,"velocity":0.7637795275590551,"duration":0.3489583333333144},{"name":"D#3","midi":51,"time":368.28645833333167,"velocity":0.7637795275590551,"duration":0.3489583333333144},{"name":"C3","midi":48,"time":368.28645833333167,"velocity":0.7637795275590551,"duration":0.3489583333333144},{"name":"D3","midi":50,"time":368.643229166665,"velocity":0.7637795275590551,"duration":1.0624999999999432},{"name":"A#2","midi":46,"time":368.643229166665,"velocity":0.7637795275590551,"duration":1.7812499999999432},{"name":"F4","midi":65,"time":368.9999999999983,"velocity":0.7637795275590551,"duration":0.3489583333333144},{"name":"D4","midi":62,"time":369.3567708333316,"velocity":0.7637795275590551,"duration":1.0677083333333144},{"name":"D#3","midi":51,"time":369.7135416666649,"velocity":0.7637795275590551,"duration":0.3489583333333144},{"name":"F3","midi":53,"time":370.07031249999824,"velocity":0.7637795275590551,"duration":0.71484375},{"name":"D4","midi":62,"time":370.4322916666649,"velocity":0.7637795275590551,"duration":0.3528645833333144},{"name":"G#2","midi":44,"time":370.4322916666649,"velocity":0.7637795275590551,"duration":0.3528645833333144},{"name":"D#4","midi":63,"time":370.79296874999824,"velocity":0.7637795275590551,"duration":0.3528645833333144},{"name":"F#3","midi":54,"time":370.79296874999824,"velocity":0.7637795275590551,"duration":0.3528645833333144},{"name":"F#2","midi":42,"time":370.79296874999824,"velocity":0.7637795275590551,"duration":0.3528645833333144},{"name":"F4","midi":65,"time":371.15494791666487,"velocity":0.7637795275590551,"duration":0.3528645833333144},{"name":"G#3","midi":56,"time":371.15494791666487,"velocity":0.7637795275590551,"duration":0.3528645833333144},{"name":"F2","midi":41,"time":371.15494791666487,"velocity":0.7637795275590551,"duration":0.3528645833333144},{"name":"F#4","midi":66,"time":371.5156249999982,"velocity":0.7637795275590551,"duration":0.3658854166666856},{"name":"A#3","midi":58,"time":371.5156249999982,"velocity":0.7637795275590551,"duration":0.3658854166666856},{"name":"D#2","midi":39,"time":371.5156249999982,"velocity":0.7637795275590551,"duration":0.3658854166666856},{"name":"G4","midi":67,"time":371.8906249999982,"velocity":0.7637795275590551,"duration":0.3658854166666856},{"name":"A#3","midi":58,"time":371.8906249999982,"velocity":0.7637795275590551,"duration":0.3658854166666856},{"name":"C#3","midi":49,"time":371.8906249999982,"velocity":0.7637795275590551,"duration":0.3658854166666856},{"name":"G#4","midi":68,"time":372.26432291666487,"velocity":0.7637795275590551,"duration":0.3658854166666856},{"name":"B3","midi":59,"time":372.26432291666487,"velocity":0.7637795275590551,"duration":0.3658854166666856},{"name":"B2","midi":47,"time":372.26432291666487,"velocity":0.7637795275590551,"duration":0.3658854166666856},{"name":"A#4","midi":70,"time":372.63932291666487,"velocity":0.7637795275590551,"duration":0.3658854166666856},{"name":"C#4","midi":61,"time":372.63932291666487,"velocity":0.7637795275590551,"duration":0.3658854166666856},{"name":"A#2","midi":46,"time":372.63932291666487,"velocity":0.7637795275590551,"duration":0.3658854166666856},{"name":"B4","midi":71,"time":373.01302083333155,"velocity":0.7637795275590551,"duration":0.3815104166666856},{"name":"D#4","midi":63,"time":373.01302083333155,"velocity":0.7637795275590551,"duration":0.3815104166666856},{"name":"G#2","midi":44,"time":373.01302083333155,"velocity":0.7637795275590551,"duration":0.3815104166666856},{"name":"C5","midi":72,"time":373.40364583333155,"velocity":0.7637795275590551,"duration":0.3815104166666856},{"name":"D#4","midi":63,"time":373.40364583333155,"velocity":0.7637795275590551,"duration":0.3815104166666856},{"name":"F#3","midi":54,"time":373.40364583333155,"velocity":0.7637795275590551,"duration":0.3815104166666856},{"name":"D5","midi":74,"time":373.79427083333155,"velocity":0.7637795275590551,"duration":0.3815104166666856},{"name":"F4","midi":65,"time":373.79427083333155,"velocity":0.7637795275590551,"duration":0.3815104166666856},{"name":"F3","midi":53,"time":373.79427083333155,"velocity":0.7637795275590551,"duration":0.3815104166666856},{"name":"D#5","midi":75,"time":374.18359374999824,"velocity":0.7637795275590551,"duration":0.3815104166666856},{"name":"F#4","midi":66,"time":374.18359374999824,"velocity":0.7637795275590551,"duration":0.3815104166666856},{"name":"D#3","midi":51,"time":374.18359374999824,"velocity":0.7637795275590551,"duration":0.3815104166666856},{"name":"D#5","midi":75,"time":374.57421874999824,"velocity":0.7637795275590551,"duration":0.9127604166666856},{"name":"F4","midi":65,"time":374.57421874999824,"velocity":0.7637795275590551,"duration":0.91015625},{"name":"A#3","midi":58,"time":374.57421874999824,"velocity":0.7637795275590551,"duration":1.7513020833333712},{"name":"B4","midi":71,"time":375.03515624999824,"velocity":0.7637795275590551,"duration":0.4518229166666856},{"name":"D5","midi":74,"time":375.4973958333316,"velocity":0.7637795275590551,"duration":0.9114583333333144},{"name":"A#4","midi":70,"time":375.4973958333316,"velocity":0.7637795275590551,"duration":0.4505208333333144},{"name":"A#2","midi":46,"time":375.4973958333316,"velocity":0.7637795275590551,"duration":0.9114583333333144},{"name":"G#4","midi":68,"time":375.9596354166649,"velocity":0.7637795275590551,"duration":0.4505208333333144},{"name":"D#5","midi":75,"time":376.44270833333155,"velocity":0.7637795275590551,"duration":4.35546875},{"name":"G4","midi":67,"time":376.44270833333155,"velocity":0.7637795275590551,"duration":4.35546875},{"name":"D#2","midi":39,"time":376.44270833333155,"velocity":0.7637795275590551,"duration":4.35546875}],"controlChanges":{"7":[{"number":7,"time":0,"value":0.7874015748031497}]},"id":1,"name":"Harpsichord","instrumentNumber":6,"instrument":"harpsichord","instrumentFamily":"piano","channelNumber":0,"isPercussion":false}]}