{"header":{"PPQ":240,"timeSignature":[4,4],"bpm":55.00000458333371,"name":"--------"},"startTime":0,"duration":86.3999928000004,"tracks":[{"startTime":0,"duration":0,"length":0,"notes":[],"controlChanges":{},"id":0,"name":"--------"},{"startTime":0.27272725000000003,"duration":86.3999928000004,"length":295,"notes":[{"name":"A#4","midi":70,"time":0.27272725000000003,"velocity":0.7637795275590551,"duration":0.10909090000000005},{"name":"C5","midi":72,"time":0.4090908750000001,"velocity":0.7637795275590551,"duration":0.10909089999999999},{"name":"D5","midi":74,"time":0.5454545000000001,"velocity":0.7637795275590551,"duration":0.10909089999999999},{"name":"C5","midi":72,"time":0.681818125,"velocity":0.7637795275590551,"duration":0.10909089999999999},{"name":"A#4","midi":70,"time":0.81818175,"velocity":0.7637795275590551,"duration":0.2181818000000001},{"name":"F5","midi":77,"time":1.0909090000000001,"velocity":0.7637795275590551,"duration":0.21818179999999998},{"name":"D5","midi":74,"time":1.36363625,"velocity":0.7637795275590551,"duration":0.21818179999999998},{"name":"A#5","midi":82,"time":1.6363635,"velocity":0.7637795275590551,"duration":0.21818179999999998},{"name":"F5","midi":77,"time":1.90909075,"velocity":0.7637795275590551,"duration":0.2181818000000002},{"name":"D5","midi":74,"time":2.1818180000000003,"velocity":0.7637795275590551,"duration":0.21818179999999998},{"name":"F5","midi":77,"time":2.4545452500000002,"velocity":0.7637795275590551,"duration":0.10909089999999999},{"name":"D#5","midi":75,"time":2.5909088750000002,"velocity":0.7637795275590551,"duration":0.10909089999999999},{"name":"D5","midi":74,"time":2.7272725,"velocity":0.7637795275590551,"duration":0.10909089999999999},{"name":"D#5","midi":75,"time":2.863636125,"velocity":0.7637795275590551,"duration":0.10909089999999999},{"name":"F5","midi":77,"time":2.99999975,"velocity":0.7637795275590551,"duration":0.21818179999999998},{"name":"A#4","midi":70,"time":3.272727,"velocity":0.7637795275590551,"duration":0.21818179999999998},{"name":"D5","midi":74,"time":3.54545425,"velocity":0.7637795275590551,"duration":0.21818179999999998},{"name":"F4","midi":65,"time":3.8181815,"velocity":0.7637795275590551,"duration":0.21818180000000043},{"name":"G#4","midi":68,"time":4.0909087500000005,"velocity":0.7637795275590551,"duration":0.21818179999999998},{"name":"G4","midi":67,"time":4.3636360000000005,"velocity":0.7637795275590551,"duration":0.21818179999999998},{"name":"D#4","midi":63,"time":4.6363632500000005,"velocity":0.7637795275590551,"duration":0.10909089999999999},{"name":"F4","midi":65,"time":4.772726875000001,"velocity":0.7637795275590551,"duration":0.10909089999999999},{"name":"G4","midi":67,"time":4.909090500000001,"velocity":0.7637795275590551,"duration":0.10909089999999999},{"name":"F4","midi":65,"time":5.045454125000002,"velocity":0.7637795275590551,"duration":0.10909089999999999},{"name":"D#4","midi":63,"time":5.181817750000002,"velocity":0.7637795275590551,"duration":0.21818179999999998},{"name":"A#4","midi":70,"time":5.454545000000002,"velocity":0.7637795275590551,"duration":0.21818179999999998},{"name":"G4","midi":67,"time":5.727272250000002,"velocity":0.7637795275590551,"duration":0.21818179999999998},{"name":"D#5","midi":75,"time":5.999999500000002,"velocity":0.7637795275590551,"duration":0.21818179999999998},{"name":"A#4","midi":70,"time":6.272726750000002,"velocity":0.7637795275590551,"duration":0.21818179999999998},{"name":"G4","midi":67,"time":6.545454000000002,"velocity":0.7637795275590551,"duration":0.21818179999999998},{"name":"A#4","midi":70,"time":6.818181250000002,"velocity":0.7637795275590551,"duration":0.10909089999999999},{"name":"G#4","midi":68,"time":6.9545448750000025,"velocity":0.7637795275590551,"duration":0.10909089999999999},{"name":"G4","midi":67,"time":7.090908500000003,"velocity":0.7637795275590551,"duration":0.10909089999999999},{"name":"G#4","midi":68,"time":7.227272125000003,"velocity":0.7637795275590551,"duration":0.10909089999999999},{"name":"A#4","midi":70,"time":7.363635750000004,"velocity":0.7637795275590551,"duration":0.21818179999999998},{"name":"D#4","midi":63,"time":7.636363000000004,"velocity":0.7637795275590551,"duration":0.21818179999999998},{"name":"G4","midi":67,"time":7.909090250000004,"velocity":0.7637795275590551,"duration":0.21818179999999998},{"name":"C4","midi":60,"time":8.181817500000005,"velocity":0.7637795275590551,"duration":0.21818179999999998},{"name":"D#4","midi":63,"time":8.454544750000005,"velocity":0.7637795275590551,"duration":0.21818179999999998},{"name":"A3","midi":57,"time":8.727272000000006,"velocity":0.7637795275590551,"duration":0.21818179999999998},{"name":"C4","midi":60,"time":8.999999250000007,"velocity":0.7637795275590551,"duration":0.10909089999999999},{"name":"D4","midi":62,"time":9.136362875000007,"velocity":0.7637795275590551,"duration":0.10909089999999999},{"name":"D#4","midi":63,"time":9.272726500000006,"velocity":0.7637795275590551,"duration":0.10909089999999999},{"name":"D4","midi":62,"time":9.409090125000006,"velocity":0.7637795275590551,"duration":0.10909089999999999},{"name":"C4","midi":60,"time":9.545453750000005,"velocity":0.7637795275590551,"duration":0.21818179999999998},{"name":"A4","midi":69,"time":9.818181000000006,"velocity":0.7637795275590551,"duration":0.21818179999999998},{"name":"F4","midi":65,"time":10.090908250000007,"velocity":0.7637795275590551,"duration":0.21818179999999998},{"name":"C5","midi":72,"time":10.363635500000008,"velocity":0.7637795275590551,"duration":0.21818179999999998},{"name":"A4","midi":69,"time":10.636362750000009,"velocity":0.7637795275590551,"duration":0.21818179999999998},{"name":"D#5","midi":75,"time":10.90909000000001,"velocity":0.7637795275590551,"duration":0.21818179999999998},{"name":"F4","midi":65,"time":11.18181725000001,"velocity":0.7637795275590551,"duration":0.10909089999999999},{"name":"G4","midi":67,"time":11.31818087500001,"velocity":0.7637795275590551,"duration":0.10909089999999999},{"name":"A4","midi":69,"time":11.45454450000001,"velocity":0.7637795275590551,"duration":0.10909089999999999},{"name":"G4","midi":67,"time":11.59090812500001,"velocity":0.7637795275590551,"duration":0.10909089999999999},{"name":"F4","midi":65,"time":11.727271750000009,"velocity":0.7637795275590551,"duration":0.21818179999999998},{"name":"C5","midi":72,"time":11.99999900000001,"velocity":0.7637795275590551,"duration":0.21818179999999998},{"name":"A4","midi":69,"time":12.27272625000001,"velocity":0.7637795275590551,"duration":0.21818179999999998},{"name":"F5","midi":77,"time":12.545453500000011,"velocity":0.7637795275590551,"duration":0.21818179999999998},{"name":"C5","midi":72,"time":12.818180750000012,"velocity":0.7637795275590551,"duration":0.21818179999999998},{"name":"D5","midi":74,"time":13.090908000000013,"velocity":0.7637795275590551,"duration":0.43636359999999996},{"name":"G5","midi":79,"time":14.454544250000014,"velocity":0.7637795275590551,"duration":0.10909089999999999},{"name":"F5","midi":77,"time":14.590907875000013,"velocity":0.7637795275590551,"duration":0.10909089999999999},{"name":"D#5","midi":75,"time":14.727271500000013,"velocity":0.7637795275590551,"duration":0.10909089999999999},{"name":"F5","midi":77,"time":14.863635125000012,"velocity":0.7637795275590551,"duration":0.10909089999999999},{"name":"G5","midi":79,"time":14.999998750000012,"velocity":0.7637795275590551,"duration":0.21818179999999998},{"name":"C5","midi":72,"time":15.272726000000013,"velocity":0.7637795275590551,"duration":0.43636359999999996},{"name":"F5","midi":77,"time":16.636362250000012,"velocity":0.7637795275590551,"duration":0.10909090000000177},{"name":"D#5","midi":75,"time":16.772725875000013,"velocity":0.7637795275590551,"duration":0.10909090000000177},{"name":"D5","midi":74,"time":16.909089500000015,"velocity":0.7637795275590551,"duration":0.10909090000000177},{"name":"D#5","midi":75,"time":17.045453125000016,"velocity":0.7637795275590551,"duration":0.10909090000000177},{"name":"F5","midi":77,"time":17.181816750000017,"velocity":0.7637795275590551,"duration":0.21818179999999998},{"name":"A#4","midi":70,"time":17.454544000000016,"velocity":0.7637795275590551,"duration":0.43636359999999996},{"name":"D#5","midi":75,"time":18.818180250000015,"velocity":0.7637795275590551,"duration":0.10909090000000177},{"name":"D5","midi":74,"time":18.954543875000017,"velocity":0.7637795275590551,"duration":0.10909090000000177},{"name":"C5","midi":72,"time":19.090907500000018,"velocity":0.7637795275590551,"duration":0.10909090000000177},{"name":"D5","midi":74,"time":19.22727112500002,"velocity":0.7637795275590551,"duration":0.10909090000000177},{"name":"D#5","midi":75,"time":19.36363475000002,"velocity":0.7637795275590551,"duration":0.21818179999999998},{"name":"A4","midi":69,"time":19.63636200000002,"velocity":0.7637795275590551,"duration":0.21818179999999998},{"name":"C5","midi":72,"time":19.90908925000002,"velocity":0.7637795275590551,"duration":0.10909090000000177},{"name":"A#4","midi":70,"time":20.04545287500002,"velocity":0.7637795275590551,"duration":0.10909090000000177},{"name":"A4","midi":69,"time":20.18181650000002,"velocity":0.7637795275590551,"duration":0.10909090000000177},{"name":"A#4","midi":70,"time":20.318180125000023,"velocity":0.7637795275590551,"duration":0.10909090000000177},{"name":"C5","midi":72,"time":20.454543750000024,"velocity":0.7637795275590551,"duration":0.21818179999999998},{"name":"F4","midi":65,"time":20.727271000000023,"velocity":0.7637795275590551,"duration":0.43636359999999996},{"name":"F5","midi":77,"time":21.818180000000023,"velocity":0.7637795275590551,"duration":0.43636359999999996},{"name":"F4","midi":65,"time":22.363634500000025,"velocity":0.7637795275590551,"duration":0.43636359999999996},{"name":"A4","midi":69,"time":22.909089000000026,"velocity":0.7637795275590551,"duration":0.43636359999999996},{"name":"C5","midi":72,"time":23.454543500000028,"velocity":0.7637795275590551,"duration":0.43636359999999996},{"name":"F5","midi":77,"time":23.99999800000003,"velocity":0.7637795275590551,"duration":0.8727271999999999},{"name":"F4","midi":65,"time":26.72727050000003,"velocity":0.7637795275590551,"duration":0.43636359999999996},{"name":"A#4","midi":70,"time":27.272725000000033,"velocity":0.7637795275590551,"duration":0.43636359999999996},{"name":"D5","midi":74,"time":27.818179500000035,"velocity":0.7637795275590551,"duration":0.43636359999999996},{"name":"F5","midi":77,"time":28.363634000000037,"velocity":0.7637795275590551,"duration":0.8727271999999999},{"name":"G4","midi":67,"time":31.090906500000038,"velocity":0.7637795275590551,"duration":0.43636359999999996},{"name":"A#4","midi":70,"time":31.63636100000004,"velocity":0.7637795275590551,"duration":0.4363636000000035},{"name":"C5","midi":72,"time":32.18181550000004,"velocity":0.7637795275590551,"duration":0.43636359999999996},{"name":"E5","midi":76,"time":32.72727000000004,"velocity":0.7637795275590551,"duration":0.8727271999999999},{"name":"F4","midi":65,"time":35.18181525000004,"velocity":0.7637795275590551,"duration":0.10909089999999821},{"name":"G4","midi":67,"time":35.318178875000044,"velocity":0.7637795275590551,"duration":0.10909089999999821},{"name":"A4","midi":69,"time":35.454542500000045,"velocity":0.7637795275590551,"duration":0.10909089999999821},{"name":"G4","midi":67,"time":35.590906125000046,"velocity":0.7637795275590551,"duration":0.10909089999999821},{"name":"F4","midi":65,"time":35.72726975000005,"velocity":0.7637795275590551,"duration":0.21818180000000353},{"name":"C5","midi":72,"time":35.99999700000005,"velocity":0.7637795275590551,"duration":0.21818180000000353},{"name":"A4","midi":69,"time":36.27272425000005,"velocity":0.7637795275590551,"duration":0.21818180000000353},{"name":"F5","midi":77,"time":36.545451500000055,"velocity":0.7637795275590551,"duration":0.21818180000000353},{"name":"C5","midi":72,"time":36.81817875000006,"velocity":0.7637795275590551,"duration":0.21818180000000353},{"name":"A5","midi":81,"time":37.09090600000006,"velocity":0.7637795275590551,"duration":0.21818180000000353},{"name":"D#5","midi":75,"time":37.36363325000006,"velocity":0.7637795275590551,"duration":0.10909089999999821},{"name":"D5","midi":74,"time":37.499996875000065,"velocity":0.7637795275590551,"duration":0.10909089999999821},{"name":"C5","midi":72,"time":37.636360500000066,"velocity":0.7637795275590551,"duration":0.10909089999999821},{"name":"D5","midi":74,"time":37.77272412500007,"velocity":0.7637795275590551,"duration":0.10909089999999821},{"name":"D#5","midi":75,"time":37.90908775000007,"velocity":0.7637795275590551,"duration":0.21818180000000353},{"name":"A4","midi":69,"time":38.18181500000007,"velocity":0.7637795275590551,"duration":0.21818180000000353},{"name":"C5","midi":72,"time":38.454542250000074,"velocity":0.7637795275590551,"duration":0.21818180000000353},{"name":"F#4","midi":66,"time":38.72726950000008,"velocity":0.7637795275590551,"duration":0.21818180000000353},{"name":"A4","midi":69,"time":38.99999675000008,"velocity":0.7637795275590551,"duration":0.21818180000000353},{"name":"A#4","midi":70,"time":39.27272400000008,"velocity":0.7637795275590551,"duration":0.43636359999999996},{"name":"D5","midi":74,"time":39.81817850000008,"velocity":0.7637795275590551,"duration":0.43636359999999996},{"name":"A#4","midi":70,"time":40.36363300000008,"velocity":0.7637795275590551,"duration":0.43636359999999996},{"name":"G4","midi":67,"time":40.909087500000076,"velocity":0.7637795275590551,"duration":0.43636359999999996},{"name":"G#4","midi":68,"time":41.454542000000075,"velocity":0.7637795275590551,"duration":0.43636359999999996},{"name":"F5","midi":77,"time":41.99999650000007,"velocity":0.7637795275590551,"duration":0.43636359999999996},{"name":"G#4","midi":68,"time":42.54545100000007,"velocity":0.7637795275590551,"duration":0.43636359999999996},{"name":"F4","midi":65,"time":43.09090550000007,"velocity":0.7637795275590551,"duration":0.43636359999999996},{"name":"G4","midi":67,"time":43.63636000000007,"velocity":0.7637795275590551,"duration":0.21818180000000353},{"name":"C4","midi":60,"time":43.90908725000007,"velocity":0.7637795275590551,"duration":0.10909089999999821},{"name":"D4","midi":62,"time":44.04545087500007,"velocity":0.7637795275590551,"duration":0.10909089999999821},{"name":"D#4","midi":63,"time":44.18181450000007,"velocity":0.7637795275590551,"duration":0.10909089999999821},{"name":"D4","midi":62,"time":44.318178125000074,"velocity":0.7637795275590551,"duration":0.10909089999999821},{"name":"C4","midi":60,"time":44.454541750000075,"velocity":0.7637795275590551,"duration":0.21818180000000353},{"name":"G4","midi":67,"time":44.72726900000008,"velocity":0.7637795275590551,"duration":0.21818180000000353},{"name":"D#4","midi":63,"time":44.99999625000008,"velocity":0.7637795275590551,"duration":0.21818180000000353},{"name":"C5","midi":72,"time":45.27272350000008,"velocity":0.7637795275590551,"duration":0.21818180000000353},{"name":"G4","midi":67,"time":45.545450750000086,"velocity":0.7637795275590551,"duration":0.21818180000000353},{"name":"D5","midi":74,"time":45.81817800000009,"velocity":0.7637795275590551,"duration":0.21818180000000353},{"name":"G#4","midi":68,"time":46.09090525000009,"velocity":0.7637795275590551,"duration":0.10909089999999821},{"name":"G4","midi":67,"time":46.22726887500009,"velocity":0.7637795275590551,"duration":0.10909089999999821},{"name":"F4","midi":65,"time":46.363632500000094,"velocity":0.7637795275590551,"duration":0.10909089999999821},{"name":"G4","midi":67,"time":46.499996125000095,"velocity":0.7637795275590551,"duration":0.10909089999999821},{"name":"G#4","midi":68,"time":46.636359750000096,"velocity":0.7637795275590551,"duration":0.21818180000000353},{"name":"D4","midi":62,"time":46.9090870000001,"velocity":0.7637795275590551,"duration":0.21818180000000353},{"name":"F4","midi":65,"time":47.1818142500001,"velocity":0.7637795275590551,"duration":0.21818180000000353},{"name":"B3","midi":59,"time":47.454541500000104,"velocity":0.7637795275590551,"duration":0.21818180000000353},{"name":"G4","midi":67,"time":47.72726875000011,"velocity":0.7637795275590551,"duration":0.21818180000000353},{"name":"D#4","midi":63,"time":47.99999600000011,"velocity":0.7637795275590551,"duration":0.43636359999999996},{"name":"C4","midi":60,"time":49.36363225000011,"velocity":0.7637795275590551,"duration":0.10909089999999821},{"name":"D4","midi":62,"time":49.49999587500011,"velocity":0.7637795275590551,"duration":0.10909089999999821},{"name":"D#4","midi":63,"time":49.63635950000011,"velocity":0.7637795275590551,"duration":0.10909089999999821},{"name":"D4","midi":62,"time":49.77272312500011,"velocity":0.7637795275590551,"duration":0.10909089999999821},{"name":"C4","midi":60,"time":49.909086750000114,"velocity":0.7637795275590551,"duration":0.21818180000000353},{"name":"C5","midi":72,"time":50.18181400000012,"velocity":0.7637795275590551,"duration":0.6545454000000035},{"name":"A#4","midi":70,"time":50.99999575000012,"velocity":0.7637795275590551,"duration":0.21818180000000353},{"name":"A4","midi":69,"time":51.27272300000012,"velocity":0.7637795275590551,"duration":0.21818180000000353},{"name":"F4","midi":65,"time":51.54545025000012,"velocity":0.7637795275590551,"duration":0.10909089999999821},{"name":"G4","midi":67,"time":51.681813875000124,"velocity":0.7637795275590551,"duration":0.10909089999999821},{"name":"A4","midi":69,"time":51.818177500000125,"velocity":0.7637795275590551,"duration":0.10909089999999821},{"name":"G4","midi":67,"time":51.95454112500013,"velocity":0.7637795275590551,"duration":0.10909089999999821},{"name":"F4","midi":65,"time":52.09090475000013,"velocity":0.7637795275590551,"duration":0.21818180000000353},{"name":"F5","midi":77,"time":52.36363200000013,"velocity":0.7637795275590551,"duration":0.6545454000000035},{"name":"D#5","midi":75,"time":53.18181375000013,"velocity":0.7637795275590551,"duration":0.21818180000000353},{"name":"D5","midi":74,"time":53.454541000000134,"velocity":0.7637795275590551,"duration":0.21818180000000353},{"name":"A#4","midi":70,"time":53.72726825000014,"velocity":0.7637795275590551,"duration":0.10909089999999821},{"name":"C5","midi":72,"time":53.86363187500014,"velocity":0.7637795275590551,"duration":0.10909089999999821},{"name":"D5","midi":74,"time":53.99999550000014,"velocity":0.7637795275590551,"duration":0.10909089999999821},{"name":"C5","midi":72,"time":54.13635912500014,"velocity":0.7637795275590551,"duration":0.10909089999999821},{"name":"A#4","midi":70,"time":54.27272275000014,"velocity":0.7637795275590551,"duration":0.21818180000000353},{"name":"A#5","midi":82,"time":54.545450000000145,"velocity":0.7637795275590551,"duration":0.6545454000000035},{"name":"G#5","midi":80,"time":55.363631750000145,"velocity":0.7637795275590551,"duration":0.21818180000000353},{"name":"G5","midi":79,"time":55.63635900000015,"velocity":0.7637795275590551,"duration":0.21818180000000353},{"name":"A#5","midi":82,"time":55.90908625000015,"velocity":0.7637795275590551,"duration":0.10909089999999821},{"name":"G#5","midi":80,"time":56.04544987500015,"velocity":0.7637795275590551,"duration":0.10909089999999821},{"name":"G5","midi":79,"time":56.18181350000015,"velocity":0.7637795275590551,"duration":0.10909089999999821},{"name":"G#5","midi":80,"time":56.318177125000155,"velocity":0.7637795275590551,"duration":0.10909089999999821},{"name":"A#5","midi":82,"time":56.454540750000156,"velocity":0.7637795275590551,"duration":0.21818180000000353},{"name":"D#5","midi":75,"time":56.72726800000016,"velocity":0.7637795275590551,"duration":0.21818180000000353},{"name":"G5","midi":79,"time":56.99999525000016,"velocity":0.7637795275590551,"duration":0.10909089999999821},{"name":"F5","midi":77,"time":57.13635887500016,"velocity":0.7637795275590551,"duration":0.10909089999999821},{"name":"D#5","midi":75,"time":57.272722500000164,"velocity":0.7637795275590551,"duration":0.10909089999999821},{"name":"F5","midi":77,"time":57.409086125000165,"velocity":0.7637795275590551,"duration":0.10909089999999821},{"name":"G5","midi":79,"time":57.54544975000017,"velocity":0.7637795275590551,"duration":0.21818180000000353},{"name":"C5","midi":72,"time":57.81817700000017,"velocity":0.7637795275590551,"duration":0.21818180000000353},{"name":"D#5","midi":75,"time":58.09090425000017,"velocity":0.7637795275590551,"duration":0.10909089999999821},{"name":"D5","midi":74,"time":58.22726787500017,"velocity":0.7637795275590551,"duration":0.10909089999999821},{"name":"C5","midi":72,"time":58.363631500000174,"velocity":0.7637795275590551,"duration":0.10909089999999821},{"name":"D5","midi":74,"time":58.499995125000176,"velocity":0.7637795275590551,"duration":0.10909089999999821},{"name":"D#5","midi":75,"time":58.63635875000018,"velocity":0.7637795275590551,"duration":0.21818180000000353},{"name":"A4","midi":69,"time":58.90908600000018,"velocity":0.7637795275590551,"duration":0.21818180000000353},{"name":"C5","midi":72,"time":59.18181325000018,"velocity":0.7637795275590551,"duration":0.10909089999999821},{"name":"D5","midi":74,"time":59.318176875000184,"velocity":0.7637795275590551,"duration":0.10909089999999821},{"name":"D#5","midi":75,"time":59.454540500000185,"velocity":0.7637795275590551,"duration":0.10909089999999821},{"name":"D5","midi":74,"time":59.590904125000186,"velocity":0.7637795275590551,"duration":0.10909089999999821},{"name":"C5","midi":72,"time":59.72726775000019,"velocity":0.7637795275590551,"duration":0.21818180000000353},{"name":"F5","midi":77,"time":59.99999500000019,"velocity":0.7637795275590551,"duration":0.21818180000000353},{"name":"G#4","midi":68,"time":60.27272225000019,"velocity":0.7637795275590551,"duration":0.10909089999999821},{"name":"G4","midi":67,"time":60.409085875000194,"velocity":0.7637795275590551,"duration":0.10909089999999821},{"name":"F4","midi":65,"time":60.545449500000196,"velocity":0.7637795275590551,"duration":0.10909089999999821},{"name":"G4","midi":67,"time":60.6818131250002,"velocity":0.7637795275590551,"duration":0.10909089999999821},{"name":"G#4","midi":68,"time":60.8181767500002,"velocity":0.7637795275590551,"duration":0.21818180000000353},{"name":"G4","midi":67,"time":61.0909040000002,"velocity":0.7637795275590551,"duration":0.21818180000000353},{"name":"A#4","midi":70,"time":61.3636312500002,"velocity":0.7637795275590551,"duration":0.10909089999999821},{"name":"C5","midi":72,"time":61.499994875000205,"velocity":0.7637795275590551,"duration":0.10909089999999821},{"name":"D5","midi":74,"time":61.636358500000206,"velocity":0.7637795275590551,"duration":0.10909089999999821},{"name":"C5","midi":72,"time":61.77272212500021,"velocity":0.7637795275590551,"duration":0.10909089999999821},{"name":"A#4","midi":70,"time":61.90908575000021,"velocity":0.7637795275590551,"duration":0.21818180000000353},{"name":"D#5","midi":75,"time":62.18181300000021,"velocity":0.7637795275590551,"duration":0.21818180000000353},{"name":"G4","midi":67,"time":62.454540250000214,"velocity":0.7637795275590551,"duration":0.10909089999999821},{"name":"F4","midi":65,"time":62.590903875000215,"velocity":0.7637795275590551,"duration":0.10909089999999821},{"name":"D#4","midi":63,"time":62.72726750000022,"velocity":0.7637795275590551,"duration":0.10909089999999821},{"name":"F4","midi":65,"time":62.86363112500022,"velocity":0.7637795275590551,"duration":0.10909089999999821},{"name":"G4","midi":67,"time":62.99999475000022,"velocity":0.7637795275590551,"duration":0.21818180000000353},{"name":"F4","midi":65,"time":63.27272200000022,"velocity":0.7637795275590551,"duration":0.21818180000000353},{"name":"A4","midi":69,"time":63.545449250000225,"velocity":0.7637795275590551,"duration":0.10909089999999821},{"name":"A#4","midi":70,"time":63.681812875000226,"velocity":0.7637795275590551,"duration":0.10909089999999821},{"name":"C5","midi":72,"time":63.81817650000023,"velocity":0.7637795275590551,"duration":0.10909089999999821},{"name":"A#4","midi":70,"time":63.95454012500023,"velocity":0.7637795275590551,"duration":0.10909090000000532},{"name":"A4","midi":69,"time":64.09090375000024,"velocity":0.7637795275590551,"duration":0.21818179999999643},{"name":"D5","midi":74,"time":64.36363100000024,"velocity":0.7637795275590551,"duration":0.21818179999999643},{"name":"F4","midi":65,"time":64.63635825000024,"velocity":0.7637795275590551,"duration":0.10909089999999821},{"name":"D#4","midi":63,"time":64.77272187500024,"velocity":0.7637795275590551,"duration":0.10909089999999821},{"name":"D4","midi":62,"time":64.90908550000024,"velocity":0.7637795275590551,"duration":0.10909089999999821},{"name":"D#4","midi":63,"time":65.04544912500025,"velocity":0.7637795275590551,"duration":0.10909089999999821},{"name":"F4","midi":65,"time":65.18181275000025,"velocity":0.7637795275590551,"duration":0.21818179999999643},{"name":"D#4","midi":63,"time":65.45454000000025,"velocity":0.7637795275590551,"duration":0.21818179999999643},{"name":"G4","midi":67,"time":65.72726725000025,"velocity":0.7637795275590551,"duration":0.10909089999999821},{"name":"A4","midi":69,"time":65.86363087500025,"velocity":0.7637795275590551,"duration":0.10909089999999821},{"name":"A#4","midi":70,"time":65.99999450000026,"velocity":0.7637795275590551,"duration":0.10909089999999821},{"name":"A4","midi":69,"time":66.13635812500026,"velocity":0.7637795275590551,"duration":0.10909089999999821},{"name":"G4","midi":67,"time":66.27272175000026,"velocity":0.7637795275590551,"duration":0.21818179999999643},{"name":"C5","midi":72,"time":66.54544900000026,"velocity":0.7637795275590551,"duration":0.21818179999999643},{"name":"D#4","midi":63,"time":66.81817625000026,"velocity":0.7637795275590551,"duration":0.10909089999999821},{"name":"D4","midi":62,"time":66.95453987500026,"velocity":0.7637795275590551,"duration":0.10909089999999821},{"name":"C4","midi":60,"time":67.09090350000027,"velocity":0.7637795275590551,"duration":0.10909089999999821},{"name":"D4","midi":62,"time":67.22726712500027,"velocity":0.7637795275590551,"duration":0.10909089999999821},{"name":"D#4","midi":63,"time":67.36363075000027,"velocity":0.7637795275590551,"duration":0.21818179999999643},{"name":"D4","midi":62,"time":67.63635800000027,"velocity":0.7637795275590551,"duration":0.8727271999999999},{"name":"A#4","midi":70,"time":68.99999425000027,"velocity":0.7637795275590551,"duration":0.10909089999999821},{"name":"C5","midi":72,"time":69.13635787500027,"velocity":0.7637795275590551,"duration":0.10909089999999821},{"name":"D5","midi":74,"time":69.27272150000027,"velocity":0.7637795275590551,"duration":0.10909089999999821},{"name":"C5","midi":72,"time":69.40908512500027,"velocity":0.7637795275590551,"duration":0.10909089999999821},{"name":"A#4","midi":70,"time":69.54544875000028,"velocity":0.7637795275590551,"duration":0.21818179999999643},{"name":"F5","midi":77,"time":69.81817600000028,"velocity":0.7637795275590551,"duration":0.21818179999999643},{"name":"D5","midi":74,"time":70.09090325000028,"velocity":0.7637795275590551,"duration":0.21818179999999643},{"name":"A#5","midi":82,"time":70.36363050000028,"velocity":0.7637795275590551,"duration":0.21818179999999643},{"name":"F5","midi":77,"time":70.63635775000029,"velocity":0.7637795275590551,"duration":0.21818179999999643},{"name":"D5","midi":74,"time":70.90908500000029,"velocity":0.7637795275590551,"duration":0.21818179999999643},{"name":"F5","midi":77,"time":71.18181225000029,"velocity":0.7637795275590551,"duration":0.10909089999999821},{"name":"D#5","midi":75,"time":71.31817587500029,"velocity":0.7637795275590551,"duration":0.10909089999999821},{"name":"D5","midi":74,"time":71.4545395000003,"velocity":0.7637795275590551,"duration":0.10909089999999821},{"name":"D#5","midi":75,"time":71.5909031250003,"velocity":0.7637795275590551,"duration":0.10909089999999821},{"name":"F5","midi":77,"time":71.7272667500003,"velocity":0.7637795275590551,"duration":0.21818179999999643},{"name":"A#4","midi":70,"time":71.9999940000003,"velocity":0.7637795275590551,"duration":0.21818179999999643},{"name":"D#5","midi":75,"time":72.2727212500003,"velocity":0.7637795275590551,"duration":0.21818179999999643},{"name":"A#4","midi":70,"time":72.5454485000003,"velocity":0.7637795275590551,"duration":0.21818179999999643},{"name":"D#5","midi":75,"time":72.81817575000031,"velocity":0.7637795275590551,"duration":0.21818179999999643},{"name":"G4","midi":67,"time":73.09090300000031,"velocity":0.7637795275590551,"duration":0.21818179999999643},{"name":"D#4","midi":63,"time":73.36363025000031,"velocity":0.7637795275590551,"duration":0.10909089999999821},{"name":"F4","midi":65,"time":73.49999387500031,"velocity":0.7637795275590551,"duration":0.10909089999999821},{"name":"G4","midi":67,"time":73.63635750000032,"velocity":0.7637795275590551,"duration":0.10909089999999821},{"name":"F4","midi":65,"time":73.77272112500032,"velocity":0.7637795275590551,"duration":0.10909089999999821},{"name":"D#4","midi":63,"time":73.90908475000032,"velocity":0.7637795275590551,"duration":0.21818179999999643},{"name":"A#4","midi":70,"time":74.18181200000032,"velocity":0.7637795275590551,"duration":0.21818179999999643},{"name":"G4","midi":67,"time":74.45453925000032,"velocity":0.7637795275590551,"duration":0.21818179999999643},{"name":"D#5","midi":75,"time":74.72726650000033,"velocity":0.7637795275590551,"duration":0.21818179999999643},{"name":"A#4","midi":70,"time":74.99999375000033,"velocity":0.7637795275590551,"duration":0.21818179999999643},{"name":"G4","midi":67,"time":75.27272100000033,"velocity":0.7637795275590551,"duration":0.21818179999999643},{"name":"A#4","midi":70,"time":75.54544825000033,"velocity":0.7637795275590551,"duration":0.10909089999999821},{"name":"A4","midi":69,"time":75.68181187500034,"velocity":0.7637795275590551,"duration":0.10909089999999821},{"name":"G4","midi":67,"time":75.81817550000034,"velocity":0.7637795275590551,"duration":0.10909089999999821},{"name":"A4","midi":69,"time":75.95453912500034,"velocity":0.7637795275590551,"duration":0.10909089999999821},{"name":"A#4","midi":70,"time":76.09090275000034,"velocity":0.7637795275590551,"duration":0.21818179999999643},{"name":"D#4","midi":63,"time":76.36363000000034,"velocity":0.7637795275590551,"duration":0.43636360000000707},{"name":"D#5","midi":75,"time":76.90908450000035,"velocity":0.7637795275590551,"duration":0.7636363000000017},{"name":"D#5","midi":75,"time":77.72726625000035,"velocity":0.7637795275590551,"duration":0.10909089999999821},{"name":"D5","midi":74,"time":77.86362987500036,"velocity":0.7637795275590551,"duration":0.10909089999999821},{"name":"C5","midi":72,"time":77.99999350000036,"velocity":0.7637795275590551,"duration":0.10909089999999821},{"name":"D5","midi":74,"time":78.13635712500036,"velocity":0.7637795275590551,"duration":0.10909089999999821},{"name":"D#5","midi":75,"time":78.27272075000036,"velocity":0.7637795275590551,"duration":0.21818179999999643},{"name":"F4","midi":65,"time":78.54544800000036,"velocity":0.7637795275590551,"duration":0.43636360000000707},{"name":"D#5","midi":75,"time":79.09090250000037,"velocity":0.7637795275590551,"duration":0.7636363000000017},{"name":"C5","midi":72,"time":79.90908425000038,"velocity":0.7637795275590551,"duration":0.10909089999999821},{"name":"D5","midi":74,"time":80.04544787500038,"velocity":0.7637795275590551,"duration":0.10909089999999821},{"name":"D#5","midi":75,"time":80.18181150000038,"velocity":0.7637795275590551,"duration":0.10909089999999821},{"name":"D5","midi":74,"time":80.31817512500038,"velocity":0.7637795275590551,"duration":0.10909089999999821},{"name":"C5","midi":72,"time":80.45453875000038,"velocity":0.7637795275590551,"duration":0.21818179999999643},{"name":"F5","midi":77,"time":80.72726600000038,"velocity":0.7637795275590551,"duration":0.21818179999999643},{"name":"D5","midi":74,"time":80.99999325000039,"velocity":0.7637795275590551,"duration":0.10909089999999821},{"name":"C5","midi":72,"time":81.13635687500039,"velocity":0.7637795275590551,"duration":0.10909089999999821},{"name":"A#4","midi":70,"time":81.27272050000039,"velocity":0.7637795275590551,"duration":0.10909089999999821},{"name":"C5","midi":72,"time":81.40908412500039,"velocity":0.7637795275590551,"duration":0.10909089999999821},{"name":"D5","midi":74,"time":81.54544775000039,"velocity":0.7637795275590551,"duration":0.21818179999999643},{"name":"F4","midi":65,"time":81.8181750000004,"velocity":0.7637795275590551,"duration":0.21818179999999643},{"name":"A#4","midi":70,"time":82.0909022500004,"velocity":0.7637795275590551,"duration":0.21818179999999643},{"name":"C5","midi":72,"time":82.3636295000004,"velocity":0.7637795275590551,"duration":0.21818179999999643},{"name":"A4","midi":69,"time":82.6363567500004,"velocity":0.7637795275590551,"duration":0.21818179999999643},{"name":"A#4","midi":70,"time":82.9090840000004,"velocity":0.7637795275590551,"duration":3.4909087999999997}],"controlChanges":{"7":[{"number":7,"time":0,"value":0.7874015748031497}],"10":[{"number":10,"time":0,"value":0.6299212598425197}]},"id":1,"name":"Harpsichord RH","instrumentNumber":6,"instrument":"harpsichord","instrumentFamily":"piano","channelNumber":0,"isPercussion":false},{"startTime":0,"duration":86.39999280000036,"length":297,"notes":[{"name":"A#3","midi":58,"time":0,"velocity":0.7637795275590551,"duration":0.4363636000000001},{"name":"A#2","midi":46,"time":0.5454545000000001,"velocity":0.7637795275590551,"duration":0.4363636000000001},{"name":"D3","midi":50,"time":1.0909090000000001,"velocity":0.7637795275590551,"duration":0.4363636000000002},{"name":"F3","midi":53,"time":1.6363635000000003,"velocity":0.7637795275590551,"duration":0.43636359999999996},{"name":"A#3","midi":58,"time":2.1818180000000003,"velocity":0.7637795275590551,"duration":0.8727272000000004},{"name":"A#2","midi":46,"time":4.9090905000000005,"velocity":0.7637795275590551,"duration":0.43636359999999996},{"name":"D#3","midi":51,"time":5.454545,"velocity":0.7637795275590551,"duration":0.43636359999999996},{"name":"G3","midi":55,"time":5.9999995,"velocity":0.7637795275590551,"duration":0.43636359999999996},{"name":"A#3","midi":58,"time":6.545454,"velocity":0.7637795275590551,"duration":0.8727271999999999},{"name":"A#2","midi":46,"time":9.272726500000001,"velocity":0.7637795275590551,"duration":0.43636359999999996},{"name":"C3","midi":48,"time":9.818181000000001,"velocity":0.7637795275590551,"duration":0.43636359999999996},{"name":"D#3","midi":51,"time":10.363635500000001,"velocity":0.7637795275590551,"duration":0.43636359999999996},{"name":"A3","midi":57,"time":10.90909,"velocity":0.7637795275590551,"duration":0.8727271999999999},{"name":"A#3","midi":58,"time":13.363635250000002,"velocity":0.7637795275590551,"duration":0.10909089999999999},{"name":"C4","midi":60,"time":13.499998875000001,"velocity":0.7637795275590551,"duration":0.10909089999999999},{"name":"D4","midi":62,"time":13.6363625,"velocity":0.7637795275590551,"duration":0.10909089999999999},{"name":"C4","midi":60,"time":13.772726125,"velocity":0.7637795275590551,"duration":0.10909089999999999},{"name":"A#3","midi":58,"time":13.90908975,"velocity":0.7637795275590551,"duration":0.21818179999999998},{"name":"D#4","midi":63,"time":14.181817,"velocity":0.7637795275590551,"duration":0.43636359999999996},{"name":"A3","midi":57,"time":15.545453250000001,"velocity":0.7637795275590551,"duration":0.10909089999999999},{"name":"A#3","midi":58,"time":15.681816875,"velocity":0.7637795275590551,"duration":0.10909089999999999},{"name":"C4","midi":60,"time":15.8181805,"velocity":0.7637795275590551,"duration":0.10909089999999999},{"name":"A#3","midi":58,"time":15.954544125,"velocity":0.7637795275590551,"duration":0.10909089999999999},{"name":"A3","midi":57,"time":16.09090775,"velocity":0.7637795275590551,"duration":0.21818179999999998},{"name":"D4","midi":62,"time":16.363635,"velocity":0.7637795275590551,"duration":0.43636359999999996},{"name":"G3","midi":55,"time":17.727271249999998,"velocity":0.7637795275590551,"duration":0.10909090000000177},{"name":"A3","midi":57,"time":17.863634875,"velocity":0.7637795275590551,"duration":0.10909090000000177},{"name":"A#3","midi":58,"time":17.9999985,"velocity":0.7637795275590551,"duration":0.10909090000000177},{"name":"A3","midi":57,"time":18.136362125,"velocity":0.7637795275590551,"duration":0.10909090000000177},{"name":"G3","midi":55,"time":18.272725750000003,"velocity":0.7637795275590551,"duration":0.21818179999999998},{"name":"C4","midi":60,"time":18.545453000000002,"velocity":0.7637795275590551,"duration":0.21818179999999998},{"name":"C3","midi":48,"time":18.81818025,"velocity":0.7637795275590551,"duration":0.10909090000000177},{"name":"D3","midi":50,"time":18.954543875000002,"velocity":0.7637795275590551,"duration":0.10909090000000177},{"name":"D#3","midi":51,"time":19.090907500000004,"velocity":0.7637795275590551,"duration":0.10909090000000177},{"name":"D3","midi":50,"time":19.227271125000005,"velocity":0.7637795275590551,"duration":0.10909090000000177},{"name":"C3","midi":48,"time":19.363634750000006,"velocity":0.7637795275590551,"duration":0.21818179999999998},{"name":"F3","midi":53,"time":19.636362000000005,"velocity":0.7637795275590551,"duration":0.43636359999999996},{"name":"F2","midi":41,"time":20.181816500000007,"velocity":0.7637795275590551,"duration":0.43636359999999996},{"name":"C4","midi":60,"time":20.999998250000008,"velocity":0.7637795275590551,"duration":0.21818179999999998},{"name":"A3","midi":57,"time":21.272725500000007,"velocity":0.7637795275590551,"duration":0.21818179999999998},{"name":"F3","midi":53,"time":21.545452750000006,"velocity":0.7637795275590551,"duration":0.21818179999999998},{"name":"F3","midi":53,"time":22.090907250000008,"velocity":0.7637795275590551,"duration":0.10909090000000177},{"name":"G3","midi":55,"time":22.22727087500001,"velocity":0.7637795275590551,"duration":0.10909090000000177},{"name":"A3","midi":57,"time":22.36363450000001,"velocity":0.7637795275590551,"duration":0.10909090000000177},{"name":"G3","midi":55,"time":22.499998125000012,"velocity":0.7637795275590551,"duration":0.10909090000000177},{"name":"F3","midi":53,"time":22.636361750000013,"velocity":0.7637795275590551,"duration":0.21818179999999998},{"name":"C4","midi":60,"time":22.909089000000012,"velocity":0.7637795275590551,"duration":0.21818179999999998},{"name":"A3","midi":57,"time":23.18181625000001,"velocity":0.7637795275590551,"duration":0.21818179999999998},{"name":"F4","midi":65,"time":23.45454350000001,"velocity":0.7637795275590551,"duration":0.21818179999999998},{"name":"C4","midi":60,"time":23.72727075000001,"velocity":0.7637795275590551,"duration":0.21818179999999998},{"name":"A3","midi":57,"time":23.99999800000001,"velocity":0.7637795275590551,"duration":0.21818179999999998},{"name":"C4","midi":60,"time":24.272725250000008,"velocity":0.7637795275590551,"duration":0.10909090000000177},{"name":"A#3","midi":58,"time":24.40908887500001,"velocity":0.7637795275590551,"duration":0.10909090000000177},{"name":"A3","midi":57,"time":24.54545250000001,"velocity":0.7637795275590551,"duration":0.10909090000000177},{"name":"A#3","midi":58,"time":24.68181612500001,"velocity":0.7637795275590551,"duration":0.10909090000000177},{"name":"C4","midi":60,"time":24.818179750000013,"velocity":0.7637795275590551,"duration":0.21818179999999998},{"name":"F3","midi":53,"time":25.090907000000012,"velocity":0.7637795275590551,"duration":0.21818179999999998},{"name":"A3","midi":57,"time":25.36363425000001,"velocity":0.7637795275590551,"duration":0.21818179999999998},{"name":"C3","midi":48,"time":25.63636150000001,"velocity":0.7637795275590551,"duration":0.21818179999999998},{"name":"D#3","midi":51,"time":25.90908875000001,"velocity":0.7637795275590551,"duration":0.21818179999999998},{"name":"D3","midi":50,"time":26.18181600000001,"velocity":0.7637795275590551,"duration":0.21818179999999998},{"name":"A#2","midi":46,"time":26.454543250000008,"velocity":0.7637795275590551,"duration":0.10909090000000177},{"name":"C3","midi":48,"time":26.59090687500001,"velocity":0.7637795275590551,"duration":0.10909090000000177},{"name":"D3","midi":50,"time":26.72727050000001,"velocity":0.7637795275590551,"duration":0.10909090000000177},{"name":"C3","midi":48,"time":26.86363412500001,"velocity":0.7637795275590551,"duration":0.10909090000000177},{"name":"A#2","midi":46,"time":26.999997750000013,"velocity":0.7637795275590551,"duration":0.21818179999999998},{"name":"F3","midi":53,"time":27.272725000000012,"velocity":0.7637795275590551,"duration":0.21818179999999998},{"name":"D3","midi":50,"time":27.54545225000001,"velocity":0.7637795275590551,"duration":0.21818179999999998},{"name":"A#3","midi":58,"time":27.81817950000001,"velocity":0.7637795275590551,"duration":0.21818179999999998},{"name":"F3","midi":53,"time":28.09090675000001,"velocity":0.7637795275590551,"duration":0.21818179999999998},{"name":"D3","midi":50,"time":28.36363400000001,"velocity":0.7637795275590551,"duration":0.21818179999999998},{"name":"F3","midi":53,"time":28.636361250000007,"velocity":0.7637795275590551,"duration":0.10909090000000177},{"name":"D#3","midi":51,"time":28.77272487500001,"velocity":0.7637795275590551,"duration":0.10909090000000177},{"name":"D3","midi":50,"time":28.90908850000001,"velocity":0.7637795275590551,"duration":0.10909090000000177},{"name":"D#3","midi":51,"time":29.04545212500001,"velocity":0.7637795275590551,"duration":0.10909090000000177},{"name":"F3","midi":53,"time":29.181815750000013,"velocity":0.7637795275590551,"duration":0.21818179999999998},{"name":"A#2","midi":46,"time":29.45454300000001,"velocity":0.7637795275590551,"duration":0.21818179999999998},{"name":"D3","midi":50,"time":29.72727025000001,"velocity":0.7637795275590551,"duration":0.21818179999999998},{"name":"G2","midi":43,"time":29.99999750000001,"velocity":0.7637795275590551,"duration":0.21818179999999998},{"name":"A#2","midi":46,"time":30.27272475000001,"velocity":0.7637795275590551,"duration":0.21818179999999998},{"name":"E2","midi":40,"time":30.545452000000008,"velocity":0.7637795275590551,"duration":0.21818179999999998},{"name":"G2","midi":43,"time":30.818179250000007,"velocity":0.7637795275590551,"duration":0.10909090000000177},{"name":"A2","midi":45,"time":30.95454287500001,"velocity":0.7637795275590551,"duration":0.10909090000000177},{"name":"A#2","midi":46,"time":31.09090650000001,"velocity":0.7637795275590551,"duration":0.10909090000000177},{"name":"A2","midi":45,"time":31.22727012500001,"velocity":0.7637795275590551,"duration":0.10909090000000177},{"name":"G2","midi":43,"time":31.363633750000012,"velocity":0.7637795275590551,"duration":0.21818179999999998},{"name":"E3","midi":52,"time":31.63636100000001,"velocity":0.7637795275590551,"duration":0.21818179999999998},{"name":"C3","midi":48,"time":31.90908825000001,"velocity":0.7637795275590551,"duration":0.21818180000000353},{"name":"G3","midi":55,"time":32.18181550000001,"velocity":0.7637795275590551,"duration":0.21818180000000353},{"name":"E3","midi":52,"time":32.454542750000016,"velocity":0.7637795275590551,"duration":0.21818180000000353},{"name":"A#3","midi":58,"time":32.72727000000002,"velocity":0.7637795275590551,"duration":0.21818180000000353},{"name":"C3","midi":48,"time":32.99999725000002,"velocity":0.7637795275590551,"duration":0.10909089999999821},{"name":"D3","midi":50,"time":33.13636087500002,"velocity":0.7637795275590551,"duration":0.10909089999999821},{"name":"E3","midi":52,"time":33.272724500000024,"velocity":0.7637795275590551,"duration":0.10909089999999821},{"name":"D3","midi":50,"time":33.409088125000025,"velocity":0.7637795275590551,"duration":0.10909089999999821},{"name":"C3","midi":48,"time":33.545451750000026,"velocity":0.7637795275590551,"duration":0.21818180000000353},{"name":"G3","midi":55,"time":33.81817900000003,"velocity":0.7637795275590551,"duration":0.21818180000000353},{"name":"E3","midi":52,"time":34.09090625000003,"velocity":0.7637795275590551,"duration":0.21818180000000353},{"name":"C4","midi":60,"time":34.363633500000034,"velocity":0.7637795275590551,"duration":0.21818180000000353},{"name":"G3","midi":55,"time":34.63636075000004,"velocity":0.7637795275590551,"duration":0.21818180000000353},{"name":"A3","midi":57,"time":34.90908800000004,"velocity":0.7637795275590551,"duration":0.43636359999999996},{"name":"C4","midi":60,"time":35.45454250000004,"velocity":0.7637795275590551,"duration":0.43636359999999996},{"name":"A3","midi":57,"time":35.999997000000036,"velocity":0.7637795275590551,"duration":0.43636359999999996},{"name":"F3","midi":53,"time":36.545451500000034,"velocity":0.7637795275590551,"duration":0.43636359999999996},{"name":"F#3","midi":54,"time":37.09090600000003,"velocity":0.7637795275590551,"duration":0.43636359999999996},{"name":"A3","midi":57,"time":37.63636050000003,"velocity":0.7637795275590551,"duration":0.43636359999999996},{"name":"F#3","midi":54,"time":38.18181500000003,"velocity":0.7637795275590551,"duration":0.43636359999999996},{"name":"D3","midi":50,"time":38.72726950000003,"velocity":0.7637795275590551,"duration":0.43636359999999996},{"name":"G3","midi":55,"time":39.272724000000025,"velocity":0.7637795275590551,"duration":0.21818180000000353},{"name":"G2","midi":43,"time":39.54545125000003,"velocity":0.7637795275590551,"duration":0.10909089999999821},{"name":"A2","midi":45,"time":39.68181487500003,"velocity":0.7637795275590551,"duration":0.10909089999999821},{"name":"A#2","midi":46,"time":39.81817850000003,"velocity":0.7637795275590551,"duration":0.10909089999999821},{"name":"A2","midi":45,"time":39.95454212500003,"velocity":0.7637795275590551,"duration":0.10909089999999821},{"name":"G2","midi":43,"time":40.09090575000003,"velocity":0.7637795275590551,"duration":0.21818180000000353},{"name":"D3","midi":50,"time":40.363633000000036,"velocity":0.7637795275590551,"duration":0.21818180000000353},{"name":"A#2","midi":46,"time":40.63636025000004,"velocity":0.7637795275590551,"duration":0.21818180000000353},{"name":"G3","midi":55,"time":40.90908750000004,"velocity":0.7637795275590551,"duration":0.21818180000000353},{"name":"D3","midi":50,"time":41.18181475000004,"velocity":0.7637795275590551,"duration":0.21818180000000353},{"name":"A#3","midi":58,"time":41.454542000000046,"velocity":0.7637795275590551,"duration":0.21818180000000353},{"name":"G#3","midi":56,"time":41.72726925000005,"velocity":0.7637795275590551,"duration":0.10909089999999821},{"name":"G3","midi":55,"time":41.86363287500005,"velocity":0.7637795275590551,"duration":0.10909089999999821},{"name":"F3","midi":53,"time":41.99999650000005,"velocity":0.7637795275590551,"duration":0.10909089999999821},{"name":"G3","midi":55,"time":42.13636012500005,"velocity":0.7637795275590551,"duration":0.10909089999999821},{"name":"G#3","midi":56,"time":42.272723750000054,"velocity":0.7637795275590551,"duration":0.21818180000000353},{"name":"D3","midi":50,"time":42.54545100000006,"velocity":0.7637795275590551,"duration":0.21818180000000353},{"name":"F3","midi":53,"time":42.81817825000006,"velocity":0.7637795275590551,"duration":0.21818180000000353},{"name":"A#2","midi":46,"time":43.09090550000006,"velocity":0.7637795275590551,"duration":0.21818180000000353},{"name":"D3","midi":50,"time":43.363632750000065,"velocity":0.7637795275590551,"duration":0.21818180000000353},{"name":"D#3","midi":51,"time":43.63636000000007,"velocity":0.7637795275590551,"duration":0.43636359999999996},{"name":"G3","midi":55,"time":44.181814500000065,"velocity":0.7637795275590551,"duration":0.43636359999999996},{"name":"D#3","midi":51,"time":44.727269000000064,"velocity":0.7637795275590551,"duration":0.43636359999999996},{"name":"C3","midi":48,"time":45.27272350000006,"velocity":0.7637795275590551,"duration":0.43636359999999996},{"name":"B2","midi":47,"time":45.81817800000006,"velocity":0.7637795275590551,"duration":0.43636359999999996},{"name":"D3","midi":50,"time":46.36363250000006,"velocity":0.7637795275590551,"duration":0.43636359999999996},{"name":"B2","midi":47,"time":46.909087000000056,"velocity":0.7637795275590551,"duration":0.43636359999999996},{"name":"G2","midi":43,"time":47.454541500000055,"velocity":0.7637795275590551,"duration":0.43636359999999996},{"name":"C3","midi":48,"time":47.99999600000005,"velocity":0.7637795275590551,"duration":0.21818180000000353},{"name":"C2","midi":36,"time":48.272723250000055,"velocity":0.7637795275590551,"duration":0.10909089999999821},{"name":"D2","midi":38,"time":48.40908687500006,"velocity":0.7637795275590551,"duration":0.10909089999999821},{"name":"D#2","midi":39,"time":48.54545050000006,"velocity":0.7637795275590551,"duration":0.10909089999999821},{"name":"D2","midi":38,"time":48.68181412500006,"velocity":0.7637795275590551,"duration":0.10909089999999821},{"name":"C2","midi":36,"time":48.81817775000006,"velocity":0.7637795275590551,"duration":0.21818180000000353},{"name":"C3","midi":48,"time":49.09090500000006,"velocity":0.7637795275590551,"duration":0.6545454000000035},{"name":"A#2","midi":46,"time":49.909086750000064,"velocity":0.7637795275590551,"duration":0.21818180000000353},{"name":"A2","midi":45,"time":50.18181400000007,"velocity":0.7637795275590551,"duration":0.21818180000000353},{"name":"F2","midi":41,"time":50.45454125000007,"velocity":0.7637795275590551,"duration":0.10909089999999821},{"name":"G2","midi":43,"time":50.59090487500007,"velocity":0.7637795275590551,"duration":0.10909089999999821},{"name":"A2","midi":45,"time":50.72726850000007,"velocity":0.7637795275590551,"duration":0.10909089999999821},{"name":"G2","midi":43,"time":50.86363212500007,"velocity":0.7637795275590551,"duration":0.10909089999999821},{"name":"F2","midi":41,"time":50.999995750000075,"velocity":0.7637795275590551,"duration":0.21818180000000353},{"name":"F3","midi":53,"time":51.27272300000008,"velocity":0.7637795275590551,"duration":0.6545454000000035},{"name":"D#3","midi":51,"time":52.09090475000008,"velocity":0.7637795275590551,"duration":0.21818180000000353},{"name":"D3","midi":50,"time":52.36363200000008,"velocity":0.7637795275590551,"duration":0.21818180000000353},{"name":"A#2","midi":46,"time":52.63635925000008,"velocity":0.7637795275590551,"duration":0.10909089999999821},{"name":"C3","midi":48,"time":52.772722875000085,"velocity":0.7637795275590551,"duration":0.10909089999999821},{"name":"D3","midi":50,"time":52.909086500000086,"velocity":0.7637795275590551,"duration":0.10909089999999821},{"name":"C3","midi":48,"time":53.04545012500009,"velocity":0.7637795275590551,"duration":0.10909089999999821},{"name":"A#2","midi":46,"time":53.18181375000009,"velocity":0.7637795275590551,"duration":0.21818180000000353},{"name":"A#3","midi":58,"time":53.45454100000009,"velocity":0.7637795275590551,"duration":0.6545454000000035},{"name":"G#3","midi":56,"time":54.27272275000009,"velocity":0.7637795275590551,"duration":0.21818180000000353},{"name":"G3","midi":55,"time":54.545450000000095,"velocity":0.7637795275590551,"duration":0.21818180000000353},{"name":"D#3","midi":51,"time":54.8181772500001,"velocity":0.7637795275590551,"duration":0.10909089999999821},{"name":"F3","midi":53,"time":54.9545408750001,"velocity":0.7637795275590551,"duration":0.10909089999999821},{"name":"G3","midi":55,"time":55.0909045000001,"velocity":0.7637795275590551,"duration":0.10909089999999821},{"name":"F3","midi":53,"time":55.2272681250001,"velocity":0.7637795275590551,"duration":0.10909089999999821},{"name":"D#3","midi":51,"time":55.3636317500001,"velocity":0.7637795275590551,"duration":0.21818180000000353},{"name":"D#4","midi":63,"time":55.636359000000105,"velocity":0.7637795275590551,"duration":0.6545454000000035},{"name":"D4","midi":62,"time":56.454540750000106,"velocity":0.7637795275590551,"duration":0.21818180000000353},{"name":"C4","midi":60,"time":56.72726800000011,"velocity":0.7637795275590551,"duration":0.21818180000000353},{"name":"D#4","midi":63,"time":56.99999525000011,"velocity":0.7637795275590551,"duration":0.10909089999999821},{"name":"D4","midi":62,"time":57.13635887500011,"velocity":0.7637795275590551,"duration":0.10909089999999821},{"name":"C4","midi":60,"time":57.272722500000114,"velocity":0.7637795275590551,"duration":0.10909089999999821},{"name":"D4","midi":62,"time":57.409086125000115,"velocity":0.7637795275590551,"duration":0.10909089999999821},{"name":"D#4","midi":63,"time":57.54544975000012,"velocity":0.7637795275590551,"duration":0.21818180000000353},{"name":"A3","midi":57,"time":57.81817700000012,"velocity":0.7637795275590551,"duration":0.21818180000000353},{"name":"C4","midi":60,"time":58.09090425000012,"velocity":0.7637795275590551,"duration":0.10909089999999821},{"name":"A#3","midi":58,"time":58.22726787500012,"velocity":0.7637795275590551,"duration":0.10909089999999821},{"name":"A3","midi":57,"time":58.363631500000125,"velocity":0.7637795275590551,"duration":0.10909089999999821},{"name":"A#3","midi":58,"time":58.499995125000126,"velocity":0.7637795275590551,"duration":0.10909089999999821},{"name":"C4","midi":60,"time":58.63635875000013,"velocity":0.7637795275590551,"duration":0.21818180000000353},{"name":"F3","midi":53,"time":58.90908600000013,"velocity":0.7637795275590551,"duration":0.21818180000000353},{"name":"A3","midi":57,"time":59.18181325000013,"velocity":0.7637795275590551,"duration":0.10909089999999821},{"name":"A#3","midi":58,"time":59.318176875000134,"velocity":0.7637795275590551,"duration":0.10909089999999821},{"name":"C4","midi":60,"time":59.454540500000135,"velocity":0.7637795275590551,"duration":0.10909089999999821},{"name":"A#3","midi":58,"time":59.59090412500014,"velocity":0.7637795275590551,"duration":0.10909089999999821},{"name":"A3","midi":57,"time":59.72726775000014,"velocity":0.7637795275590551,"duration":0.21818180000000353},{"name":"D4","midi":62,"time":59.99999500000014,"velocity":0.7637795275590551,"duration":0.21818180000000353},{"name":"F3","midi":53,"time":60.27272225000014,"velocity":0.7637795275590551,"duration":0.10909089999999821},{"name":"D#3","midi":51,"time":60.409085875000144,"velocity":0.7637795275590551,"duration":0.10909089999999821},{"name":"D3","midi":50,"time":60.545449500000146,"velocity":0.7637795275590551,"duration":0.10909089999999821},{"name":"D#3","midi":51,"time":60.68181312500015,"velocity":0.7637795275590551,"duration":0.10909089999999821},{"name":"F3","midi":53,"time":60.81817675000015,"velocity":0.7637795275590551,"duration":0.21818180000000353},{"name":"D#3","midi":51,"time":61.09090400000015,"velocity":0.7637795275590551,"duration":0.21818180000000353},{"name":"G3","midi":55,"time":61.363631250000154,"velocity":0.7637795275590551,"duration":0.10909089999999821},{"name":"A3","midi":57,"time":61.499994875000155,"velocity":0.7637795275590551,"duration":0.10909089999999821},{"name":"A#3","midi":58,"time":61.636358500000156,"velocity":0.7637795275590551,"duration":0.10909089999999821},{"name":"A3","midi":57,"time":61.77272212500016,"velocity":0.7637795275590551,"duration":0.10909089999999821},{"name":"G3","midi":55,"time":61.90908575000016,"velocity":0.7637795275590551,"duration":0.21818180000000353},{"name":"C4","midi":60,"time":62.18181300000016,"velocity":0.7637795275590551,"duration":0.21818180000000353},{"name":"D#3","midi":51,"time":62.454540250000164,"velocity":0.7637795275590551,"duration":0.10909089999999821},{"name":"D3","midi":50,"time":62.590903875000166,"velocity":0.7637795275590551,"duration":0.10909089999999821},{"name":"C3","midi":48,"time":62.72726750000017,"velocity":0.7637795275590551,"duration":0.10909089999999821},{"name":"D3","midi":50,"time":62.86363112500017,"velocity":0.7637795275590551,"duration":0.10909089999999821},{"name":"D#3","midi":51,"time":62.99999475000017,"velocity":0.7637795275590551,"duration":0.21818180000000353},{"name":"D3","midi":50,"time":63.27272200000017,"velocity":0.7637795275590551,"duration":0.21818180000000353},{"name":"F3","midi":53,"time":63.545449250000175,"velocity":0.7637795275590551,"duration":0.10909089999999821},{"name":"G3","midi":55,"time":63.681812875000176,"velocity":0.7637795275590551,"duration":0.10909089999999821},{"name":"A3","midi":57,"time":63.81817650000018,"velocity":0.7637795275590551,"duration":0.10909089999999821},{"name":"G3","midi":55,"time":63.95454012500018,"velocity":0.7637795275590551,"duration":0.10909089999999821},{"name":"F3","midi":53,"time":64.09090375000018,"velocity":0.7637795275590551,"duration":0.21818179999999643},{"name":"A#3","midi":58,"time":64.36363100000018,"velocity":0.7637795275590551,"duration":0.21818179999999643},{"name":"D3","midi":50,"time":64.63635825000019,"velocity":0.7637795275590551,"duration":0.10909089999999821},{"name":"C3","midi":48,"time":64.77272187500019,"velocity":0.7637795275590551,"duration":0.10909089999999821},{"name":"A#2","midi":46,"time":64.90908550000019,"velocity":0.7637795275590551,"duration":0.10909089999999821},{"name":"C3","midi":48,"time":65.04544912500019,"velocity":0.7637795275590551,"duration":0.10909089999999821},{"name":"D3","midi":50,"time":65.18181275000019,"velocity":0.7637795275590551,"duration":0.21818179999999643},{"name":"C3","midi":48,"time":65.4545400000002,"velocity":0.7637795275590551,"duration":0.21818179999999643},{"name":"D#3","midi":51,"time":65.7272672500002,"velocity":0.7637795275590551,"duration":0.10909089999999821},{"name":"F3","midi":53,"time":65.8636308750002,"velocity":0.7637795275590551,"duration":0.10909089999999821},{"name":"G3","midi":55,"time":65.9999945000002,"velocity":0.7637795275590551,"duration":0.10909089999999821},{"name":"F3","midi":53,"time":66.1363581250002,"velocity":0.7637795275590551,"duration":0.10909089999999821},{"name":"D#3","midi":51,"time":66.2727217500002,"velocity":0.7637795275590551,"duration":0.21818179999999643},{"name":"A3","midi":57,"time":66.5454490000002,"velocity":0.7637795275590551,"duration":0.21818179999999643},{"name":"C3","midi":48,"time":66.8181762500002,"velocity":0.7637795275590551,"duration":0.10909089999999821},{"name":"A#2","midi":46,"time":66.95453987500021,"velocity":0.7637795275590551,"duration":0.10909089999999821},{"name":"A2","midi":45,"time":67.09090350000021,"velocity":0.7637795275590551,"duration":0.10909089999999821},{"name":"A#2","midi":46,"time":67.22726712500021,"velocity":0.7637795275590551,"duration":0.10909089999999821},{"name":"C3","midi":48,"time":67.36363075000021,"velocity":0.7637795275590551,"duration":0.21818179999999643},{"name":"A#2","midi":46,"time":67.63635800000021,"velocity":0.7637795275590551,"duration":0.21818179999999643},{"name":"A#3","midi":58,"time":67.90908525000022,"velocity":0.7637795275590551,"duration":0.10909089999999821},{"name":"C4","midi":60,"time":68.04544887500022,"velocity":0.7637795275590551,"duration":0.10909089999999821},{"name":"D4","midi":62,"time":68.18181250000022,"velocity":0.7637795275590551,"duration":0.10909089999999821},{"name":"C4","midi":60,"time":68.31817612500022,"velocity":0.7637795275590551,"duration":0.10909089999999821},{"name":"A#3","midi":58,"time":68.45453975000022,"velocity":0.7637795275590551,"duration":0.21818179999999643},{"name":"F4","midi":65,"time":68.72726700000023,"velocity":0.7637795275590551,"duration":0.21818179999999643},{"name":"D4","midi":62,"time":68.99999425000023,"velocity":0.7637795275590551,"duration":0.21818179999999643},{"name":"A#4","midi":70,"time":69.27272150000023,"velocity":0.7637795275590551,"duration":0.21818179999999643},{"name":"F4","midi":65,"time":69.54544875000023,"velocity":0.7637795275590551,"duration":0.21818179999999643},{"name":"D4","midi":62,"time":69.81817600000024,"velocity":0.7637795275590551,"duration":0.21818179999999643},{"name":"F4","midi":65,"time":70.09090325000024,"velocity":0.7637795275590551,"duration":0.10909089999999821},{"name":"D#4","midi":63,"time":70.22726687500024,"velocity":0.7637795275590551,"duration":0.10909089999999821},{"name":"D4","midi":62,"time":70.36363050000024,"velocity":0.7637795275590551,"duration":0.10909089999999821},{"name":"D#4","midi":63,"time":70.49999412500024,"velocity":0.7637795275590551,"duration":0.10909089999999821},{"name":"F4","midi":65,"time":70.63635775000024,"velocity":0.7637795275590551,"duration":0.21818179999999643},{"name":"A#3","midi":58,"time":70.90908500000025,"velocity":0.7637795275590551,"duration":0.21818179999999643},{"name":"D4","midi":62,"time":71.18181225000025,"velocity":0.7637795275590551,"duration":0.21818179999999643},{"name":"F3","midi":53,"time":71.45453950000025,"velocity":0.7637795275590551,"duration":0.21818179999999643},{"name":"G#3","midi":56,"time":71.72726675000025,"velocity":0.7637795275590551,"duration":0.21818179999999643},{"name":"G3","midi":55,"time":71.99999400000026,"velocity":0.7637795275590551,"duration":0.21818179999999643},{"name":"D#3","midi":51,"time":72.27272125000026,"velocity":0.7637795275590551,"duration":0.10909089999999821},{"name":"F3","midi":53,"time":72.40908487500026,"velocity":0.7637795275590551,"duration":0.10909089999999821},{"name":"G3","midi":55,"time":72.54544850000026,"velocity":0.7637795275590551,"duration":0.10909089999999821},{"name":"F3","midi":53,"time":72.68181212500026,"velocity":0.7637795275590551,"duration":0.10909089999999821},{"name":"D#3","midi":51,"time":72.81817575000026,"velocity":0.7637795275590551,"duration":0.21818179999999643},{"name":"A#3","midi":58,"time":73.09090300000027,"velocity":0.7637795275590551,"duration":0.21818179999999643},{"name":"G3","midi":55,"time":73.36363025000027,"velocity":0.7637795275590551,"duration":0.21818179999999643},{"name":"D#4","midi":63,"time":73.63635750000027,"velocity":0.7637795275590551,"duration":0.21818179999999643},{"name":"A#3","midi":58,"time":73.90908475000028,"velocity":0.7637795275590551,"duration":0.21818179999999643},{"name":"G3","midi":55,"time":74.18181200000028,"velocity":0.7637795275590551,"duration":0.21818179999999643},{"name":"A#3","midi":58,"time":74.45453925000028,"velocity":0.7637795275590551,"duration":0.10909089999999821},{"name":"G#3","midi":56,"time":74.59090287500028,"velocity":0.7637795275590551,"duration":0.10909089999999821},{"name":"G3","midi":55,"time":74.72726650000028,"velocity":0.7637795275590551,"duration":0.10909089999999821},{"name":"G#3","midi":56,"time":74.86363012500028,"velocity":0.7637795275590551,"duration":0.10909089999999821},{"name":"A#3","midi":58,"time":74.99999375000029,"velocity":0.7637795275590551,"duration":0.21818179999999643},{"name":"D#3","midi":51,"time":75.27272100000029,"velocity":0.7637795275590551,"duration":0.21818179999999643},{"name":"G3","midi":55,"time":75.54544825000029,"velocity":0.7637795275590551,"duration":0.21818179999999643},{"name":"A#2","midi":46,"time":75.8181755000003,"velocity":0.7637795275590551,"duration":0.21818179999999643},{"name":"D3","midi":50,"time":76.0909027500003,"velocity":0.7637795275590551,"duration":0.21818179999999643},{"name":"C3","midi":48,"time":76.3636300000003,"velocity":0.7637795275590551,"duration":0.21818179999999643},{"name":"F2","midi":41,"time":76.6363572500003,"velocity":0.7637795275590551,"duration":0.10909089999999821},{"name":"G2","midi":43,"time":76.7727208750003,"velocity":0.7637795275590551,"duration":0.10909089999999821},{"name":"A2","midi":45,"time":76.9090845000003,"velocity":0.7637795275590551,"duration":0.10909089999999821},{"name":"G2","midi":43,"time":77.0454481250003,"velocity":0.7637795275590551,"duration":0.10909089999999821},{"name":"F2","midi":41,"time":77.1818117500003,"velocity":0.7637795275590551,"duration":0.21818179999999643},{"name":"C3","midi":48,"time":77.45453900000031,"velocity":0.7637795275590551,"duration":0.21818179999999643},{"name":"A2","midi":45,"time":77.72726625000031,"velocity":0.7637795275590551,"duration":0.21818179999999643},{"name":"D#3","midi":51,"time":77.99999350000031,"velocity":0.7637795275590551,"duration":0.21818179999999643},{"name":"C3","midi":48,"time":78.27272075000032,"velocity":0.7637795275590551,"duration":0.21818179999999643},{"name":"A2","midi":45,"time":78.54544800000032,"velocity":0.7637795275590551,"duration":0.21818179999999643},{"name":"C3","midi":48,"time":78.81817525000032,"velocity":0.7637795275590551,"duration":0.10909089999999821},{"name":"A#2","midi":46,"time":78.95453887500032,"velocity":0.7637795275590551,"duration":0.10909089999999821},{"name":"A2","midi":45,"time":79.09090250000033,"velocity":0.7637795275590551,"duration":0.10909089999999821},{"name":"A#2","midi":46,"time":79.22726612500033,"velocity":0.7637795275590551,"duration":0.10909089999999821},{"name":"C3","midi":48,"time":79.36362975000033,"velocity":0.7637795275590551,"duration":0.21818179999999643},{"name":"F2","midi":41,"time":79.63635700000033,"velocity":0.7637795275590551,"duration":0.21818179999999643},{"name":"A2","midi":45,"time":79.90908425000033,"velocity":0.7637795275590551,"duration":0.21818179999999643},{"name":"C2","midi":36,"time":80.18181150000034,"velocity":0.7637795275590551,"duration":0.21818179999999643},{"name":"D#2","midi":39,"time":80.45453875000034,"velocity":0.7637795275590551,"duration":0.21818179999999643},{"name":"D2","midi":38,"time":80.72726600000034,"velocity":0.7637795275590551,"duration":0.21818179999999643},{"name":"A#2","midi":46,"time":80.99999325000034,"velocity":0.7637795275590551,"duration":0.10909089999999821},{"name":"C3","midi":48,"time":81.13635687500035,"velocity":0.7637795275590551,"duration":0.10909089999999821},{"name":"D3","midi":50,"time":81.27272050000035,"velocity":0.7637795275590551,"duration":0.10909089999999821},{"name":"C3","midi":48,"time":81.40908412500035,"velocity":0.7637795275590551,"duration":0.10909089999999821},{"name":"A#2","midi":46,"time":81.54544775000035,"velocity":0.7637795275590551,"duration":0.21818179999999643},{"name":"F3","midi":53,"time":81.81817500000035,"velocity":0.7637795275590551,"duration":0.43636360000000707},{"name":"F2","midi":41,"time":82.36362950000036,"velocity":0.7637795275590551,"duration":0.43636360000000707},{"name":"A#1","midi":34,"time":82.90908400000036,"velocity":0.7637795275590551,"duration":3.4909087999999997}],"controlChanges":{"7":[{"number":7,"time":0,"value":0.7874015748031497}],"10":[{"number":10,"time":0,"value":0.3779527559055118}]},"id":2,"name":"Harpsichord LH","instrumentNumber":6,"instrument":"harpsichord","instrumentFamily":"piano","channelNumber":0,"isPercussion":false}]}