{"header":{"PPQ":384,"timeSignature":[4,4],"bpm":120,"name":"--------"},"startTime":0,"duration":115.73437500000017,"tracks":[{"startTime":0,"duration":0,"length":0,"notes":[],"controlChanges":{},"id":0,"name":"--------"},{"startTime":0.0625,"duration":115.73437500000017,"length":769,"notes":[{"name":"A3","midi":57,"time":0.0625,"velocity":0.8031496062992126,"duration":0.5299479166666667},{"name":"A4","midi":69,"time":0.0625,"velocity":0.8031496062992126,"duration":0.45963541666666674},{"name":"G#4","midi":68,"time":0.5247395833333334,"velocity":0.8031496062992126,"duration":0.22916666666666674},{"name":"A4","midi":69,"time":0.7565104166666667,"velocity":0.8031496062992126,"duration":0.22786458333333337},{"name":"G#3","midi":56,"time":0.9869791666666667,"velocity":0.8031496062992126,"duration":0.5299479166666667},{"name":"B4","midi":71,"time":0.9869791666666667,"velocity":0.8031496062992126,"duration":0.45963541666666674},{"name":"A4","midi":69,"time":1.4492187500000002,"velocity":0.8031496062992126,"duration":0.22916666666666652},{"name":"G#4","midi":68,"time":1.6809895833333335,"velocity":0.8031496062992126,"duration":0.22786458333333326},{"name":"F#3","midi":54,"time":1.9114583333333335,"velocity":0.8031496062992126,"duration":0.5286458333333335},{"name":"A4","midi":69,"time":1.9114583333333335,"velocity":0.8031496062992126,"duration":0.22786458333333348},{"name":"G#4","midi":68,"time":2.1419270833333335,"velocity":0.8031496062992126,"duration":0.22786458333333348},{"name":"A4","midi":69,"time":2.3723958333333335,"velocity":0.8031496062992126,"duration":0.690104166666667},{"name":"C#3","midi":49,"time":2.834635416666667,"velocity":0.8031496062992126,"duration":0.5286458333333335},{"name":"B4","midi":71,"time":3.065104166666667,"velocity":0.8031496062992126,"duration":0.22786458333333348},{"name":"G#4","midi":68,"time":3.295572916666667,"velocity":0.8031496062992126,"duration":0.22916666666666696},{"name":"A4","midi":69,"time":3.5273437500000004,"velocity":0.8031496062992126,"duration":0.22786458333333348},{"name":"D3","midi":50,"time":3.7578125000000004,"velocity":0.8031496062992126,"duration":0.5286458333333335},{"name":"B4","midi":71,"time":3.7578125000000004,"velocity":0.8031496062992126,"duration":0.22786458333333348},{"name":"E4","midi":64,"time":3.9882812500000004,"velocity":0.8031496062992126,"duration":0.22786458333333348},{"name":"C#5","midi":73,"time":4.218750000000001,"velocity":0.8031496062992126,"duration":0.22916666666666607},{"name":"E4","midi":64,"time":4.450520833333334,"velocity":0.8031496062992126,"duration":0.22786458333333304},{"name":"E3","midi":52,"time":4.680989583333334,"velocity":0.8031496062992126,"duration":0.528645833333333},{"name":"D5","midi":74,"time":4.680989583333334,"velocity":0.8031496062992126,"duration":0.22786458333333304},{"name":"E4","midi":64,"time":4.911458333333334,"velocity":0.8031496062992126,"duration":0.22786458333333304},{"name":"E5","midi":76,"time":5.141927083333334,"velocity":0.8031496062992126,"duration":0.4596354166666661},{"name":"A2","midi":45,"time":5.604166666666667,"velocity":0.8031496062992126,"duration":0.45833333333333304},{"name":"C#5","midi":73,"time":5.604166666666667,"velocity":0.8031496062992126,"duration":0.22786458333333304},{"name":"B4","midi":71,"time":5.834635416666667,"velocity":0.8031496062992126,"duration":0.22786458333333304},{"name":"A3","midi":57,"time":6.065104166666667,"velocity":0.8031496062992126,"duration":0.45833333333333304},{"name":"A4","midi":69,"time":6.065104166666667,"velocity":0.8031496062992126,"duration":0.22786458333333304},{"name":"B4","midi":71,"time":6.295572916666667,"velocity":0.8031496062992126,"duration":0.22786458333333304},{"name":"G#3","midi":56,"time":6.526041666666667,"velocity":0.8031496062992126,"duration":0.45833333333333304},{"name":"C#5","midi":73,"time":6.526041666666667,"velocity":0.8031496062992126,"duration":0.22786458333333304},{"name":"D#5","midi":75,"time":6.756510416666667,"velocity":0.8031496062992126,"duration":0.22786458333333304},{"name":"F#3","midi":54,"time":6.986979166666667,"velocity":0.8031496062992126,"duration":0.45833333333333304},{"name":"E5","midi":76,"time":6.986979166666667,"velocity":0.8031496062992126,"duration":0.22786458333333304},{"name":"F#5","midi":78,"time":7.217447916666667,"velocity":0.8031496062992126,"duration":0.22786458333333304},{"name":"E3","midi":52,"time":7.447916666666667,"velocity":0.8031496062992126,"duration":0.528645833333333},{"name":"E4","midi":64,"time":7.447916666666667,"velocity":0.8031496062992126,"duration":0.45833333333333304},{"name":"G#5","midi":80,"time":7.447916666666667,"velocity":0.8031496062992126,"duration":0.22786458333333304},{"name":"A5","midi":81,"time":7.678385416666667,"velocity":0.8031496062992126,"duration":0.22786458333333304},{"name":"D#4","midi":63,"time":7.908854166666667,"velocity":0.8031496062992126,"duration":0.22916666666666696},{"name":"B5","midi":83,"time":7.908854166666667,"velocity":0.8031496062992126,"duration":0.690104166666667},{"name":"E4","midi":64,"time":8.140625,"velocity":0.8031496062992126,"duration":0.22786458333333393},{"name":"D#4","midi":63,"time":8.37109375,"velocity":0.8031496062992126,"duration":0.5286458333333339},{"name":"F#4","midi":66,"time":8.37109375,"velocity":0.8031496062992126,"duration":0.4583333333333339},{"name":"A5","midi":81,"time":8.6015625,"velocity":0.8031496062992126,"duration":0.22786458333333393},{"name":"E4","midi":64,"time":8.83203125,"velocity":0.8031496062992126,"duration":0.22916666666666785},{"name":"G#5","midi":80,"time":8.83203125,"velocity":0.8031496062992126,"duration":0.22916666666666785},{"name":"D#4","midi":63,"time":9.063802083333334,"velocity":0.8031496062992126,"duration":0.22786458333333393},{"name":"F#5","midi":78,"time":9.063802083333334,"velocity":0.8031496062992126,"duration":0.22786458333333393},{"name":"C#4","midi":61,"time":9.294270833333334,"velocity":0.8031496062992126,"duration":0.5286458333333339},{"name":"E4","midi":64,"time":9.294270833333334,"velocity":0.8031496062992126,"duration":1.1510416666666679},{"name":"E5","midi":76,"time":9.294270833333334,"velocity":0.8031496062992126,"duration":0.22786458333333393},{"name":"D#5","midi":75,"time":9.524739583333334,"velocity":0.8031496062992126,"duration":0.22786458333333393},{"name":"C#5","midi":73,"time":9.755208333333334,"velocity":0.8031496062992126,"duration":0.22916666666666785},{"name":"B4","midi":71,"time":9.986979166666668,"velocity":0.8031496062992126,"duration":0.22786458333333393},{"name":"G#3","midi":56,"time":10.217447916666668,"velocity":0.8031496062992126,"duration":0.5286458333333339},{"name":"E5","midi":76,"time":10.217447916666668,"velocity":0.8031496062992126,"duration":1.8437500000000018},{"name":"F#4","midi":66,"time":10.447916666666668,"velocity":0.8031496062992126,"duration":0.22786458333333393},{"name":"D#4","midi":63,"time":10.678385416666668,"velocity":0.8031496062992126,"duration":0.22916666666666785},{"name":"E4","midi":64,"time":10.910156250000002,"velocity":0.8031496062992126,"duration":0.22786458333333393},{"name":"A3","midi":57,"time":11.140625000000002,"velocity":0.8031496062992126,"duration":0.5286458333333339},{"name":"F#4","midi":66,"time":11.140625000000002,"velocity":0.8031496062992126,"duration":0.22786458333333393},{"name":"B3","midi":59,"time":11.371093750000002,"velocity":0.8031496062992126,"duration":0.22786458333333393},{"name":"G#4","midi":68,"time":11.601562500000002,"velocity":0.8031496062992126,"duration":0.22916666666666785},{"name":"B3","midi":59,"time":11.833333333333336,"velocity":0.8031496062992126,"duration":0.22786458333333393},{"name":"B3","midi":59,"time":12.063802083333336,"velocity":0.8031496062992126,"duration":0.22786458333333393},{"name":"A4","midi":69,"time":12.063802083333336,"velocity":0.8031496062992126,"duration":0.22786458333333393},{"name":"D#5","midi":75,"time":12.063802083333336,"velocity":0.8031496062992126,"duration":0.9205729166666661},{"name":"B3","midi":59,"time":12.294270833333336,"velocity":0.8031496062992126,"duration":0.45703125},{"name":"B4","midi":71,"time":12.524739583333336,"velocity":0.8031496062992126,"duration":0.4596354166666661},{"name":"E4","midi":64,"time":12.986979166666668,"velocity":0.8031496062992126,"duration":1.296875},{"name":"G#4","midi":68,"time":12.986979166666668,"velocity":0.8031496062992126,"duration":0.22786458333333393},{"name":"E5","midi":76,"time":12.986979166666668,"velocity":0.8031496062992126,"duration":0.4583333333333339},{"name":"A4","midi":69,"time":13.217447916666668,"velocity":0.8031496062992126,"duration":0.22786458333333393},{"name":"B4","midi":71,"time":13.447916666666668,"velocity":0.8031496062992126,"duration":0.22786458333333393},{"name":"D5","midi":74,"time":13.447916666666668,"velocity":0.8031496062992126,"duration":0.22786458333333393},{"name":"A4","midi":69,"time":13.678385416666668,"velocity":0.8031496062992126,"duration":0.22786458333333393},{"name":"C#5","midi":73,"time":13.678385416666668,"velocity":0.8031496062992126,"duration":0.22786458333333393},{"name":"G#4","midi":68,"time":13.908854166666668,"velocity":0.8031496062992126,"duration":0.22786458333333393},{"name":"D5","midi":74,"time":13.908854166666668,"velocity":0.8031496062992126,"duration":0.22786458333333393},{"name":"F#4","midi":66,"time":14.139322916666668,"velocity":0.8031496062992126,"duration":0.22916666666666607},{"name":"E5","midi":76,"time":14.139322916666668,"velocity":0.8031496062992126,"duration":0.22916666666666607},{"name":"E4","midi":64,"time":14.37109375,"velocity":0.8031496062992126,"duration":0.22786458333333393},{"name":"F#5","midi":78,"time":14.37109375,"velocity":0.8031496062992126,"duration":0.22786458333333393},{"name":"D4","midi":62,"time":14.6015625,"velocity":0.8031496062992126,"duration":0.22786458333333393},{"name":"G#5","midi":80,"time":14.6015625,"velocity":0.8031496062992126,"duration":0.22786458333333393},{"name":"A3","midi":57,"time":14.83203125,"velocity":0.8031496062992126,"duration":0.4583333333333339},{"name":"C#4","midi":61,"time":14.83203125,"velocity":0.8031496062992126,"duration":0.22786458333333393},{"name":"A5","midi":81,"time":14.83203125,"velocity":0.8031496062992126,"duration":0.6888020833333339},{"name":"C#5","midi":73,"time":15.0625,"velocity":0.8031496062992126,"duration":0.22786458333333393},{"name":"G#3","midi":56,"time":15.29296875,"velocity":0.8031496062992126,"duration":0.22786458333333393},{"name":"F#5","midi":78,"time":15.29296875,"velocity":0.8031496062992126,"duration":0.6888020833333339},{"name":"A3","midi":57,"time":15.5234375,"velocity":0.8031496062992126,"duration":0.22786458333333393},{"name":"A5","midi":81,"time":15.5234375,"velocity":0.8031496062992126,"duration":0.22786458333333393},{"name":"B3","midi":59,"time":15.75390625,"velocity":0.8031496062992126,"duration":0.45833333333333215},{"name":"G#5","midi":80,"time":15.75390625,"velocity":0.8031496062992126,"duration":0.6888020833333321},{"name":"D#5","midi":75,"time":15.984375,"velocity":0.8031496062992126,"duration":0.22786458333333215},{"name":"A3","midi":57,"time":16.21484375,"velocity":0.8031496062992126,"duration":0.22786458333333215},{"name":"E5","midi":76,"time":16.21484375,"velocity":0.8031496062992126,"duration":0.6888020833333321},{"name":"G#3","midi":56,"time":16.4453125,"velocity":0.8031496062992126,"duration":0.22786458333333215},{"name":"G#5","midi":80,"time":16.4453125,"velocity":0.8031496062992126,"duration":0.22786458333333215},{"name":"A3","midi":57,"time":16.67578125,"velocity":0.8031496062992126,"duration":1.1497395833333321},{"name":"F#5","midi":78,"time":16.67578125,"velocity":0.8031496062992126,"duration":0.6888020833333321},{"name":"C#5","midi":73,"time":16.90625,"velocity":0.8031496062992126,"duration":0.22786458333333215},{"name":"D5","midi":74,"time":17.13671875,"velocity":0.8031496062992126,"duration":0.6888020833333321},{"name":"F#5","midi":78,"time":17.3671875,"velocity":0.8031496062992126,"duration":0.22786458333333215},{"name":"E5","midi":76,"time":17.59765625,"velocity":0.8031496062992126,"duration":0.6888020833333321},{"name":"B3","midi":59,"time":17.828125,"velocity":0.8031496062992126,"duration":0.22786458333333215},{"name":"B4","midi":71,"time":17.828125,"velocity":0.8031496062992126,"duration":0.22786458333333215},{"name":"G#3","midi":56,"time":18.05859375,"velocity":0.8031496062992126,"duration":0.22786458333333215},{"name":"C#5","midi":73,"time":18.05859375,"velocity":0.8031496062992126,"duration":0.45833333333333215},{"name":"A3","midi":57,"time":18.2890625,"velocity":0.8031496062992126,"duration":0.22786458333333215},{"name":"E5","midi":76,"time":18.2890625,"velocity":0.8031496062992126,"duration":0.22786458333333215},{"name":"B3","midi":59,"time":18.51953125,"velocity":0.8031496062992126,"duration":0.22786458333333215},{"name":"G#4","midi":68,"time":18.51953125,"velocity":0.8031496062992126,"duration":0.45833333333333215},{"name":"D5","midi":74,"time":18.51953125,"velocity":0.8031496062992126,"duration":0.45833333333333215},{"name":"E3","midi":52,"time":18.75,"velocity":0.8031496062992126,"duration":0.22786458333333215},{"name":"C#4","midi":61,"time":18.98046875,"velocity":0.8031496062992126,"duration":0.22786458333333215},{"name":"A4","midi":69,"time":18.98046875,"velocity":0.8031496062992126,"duration":0.9192708333333321},{"name":"C#5","midi":73,"time":18.98046875,"velocity":0.8031496062992126,"duration":0.45833333333333215},{"name":"E3","midi":52,"time":19.2109375,"velocity":0.8031496062992126,"duration":0.22786458333333215},{"name":"D4","midi":62,"time":19.44140625,"velocity":0.8031496062992126,"duration":0.22786458333333215},{"name":"B4","midi":71,"time":19.44140625,"velocity":0.8031496062992126,"duration":0.9205729166666679},{"name":"E3","midi":52,"time":19.671875,"velocity":0.8031496062992126,"duration":0.22786458333333215},{"name":"E4","midi":64,"time":19.90234375,"velocity":0.8031496062992126,"duration":0.45963541666666785},{"name":"G#4","midi":68,"time":19.90234375,"velocity":0.8031496062992126,"duration":0.45963541666666785},{"name":"C#4","midi":61,"time":20.364583333333336,"velocity":0.8031496062992126,"duration":0.22786458333333215},{"name":"A4","midi":69,"time":20.364583333333336,"velocity":0.8031496062992126,"duration":1.3802083333333321},{"name":"B3","midi":59,"time":20.595052083333336,"velocity":0.8031496062992126,"duration":0.22786458333333215},{"name":"A3","midi":57,"time":20.825520833333336,"velocity":0.8031496062992126,"duration":0.22786458333333215},{"name":"C#5","midi":73,"time":20.825520833333336,"velocity":0.8031496062992126,"duration":0.45833333333333215},{"name":"B3","midi":59,"time":21.055989583333336,"velocity":0.8031496062992126,"duration":0.22786458333333215},{"name":"C#4","midi":61,"time":21.286458333333336,"velocity":0.8031496062992126,"duration":0.22786458333333215},{"name":"F#5","midi":78,"time":21.286458333333336,"velocity":0.8031496062992126,"duration":1.3802083333333321},{"name":"D#4","midi":63,"time":21.516927083333336,"velocity":0.8031496062992126,"duration":0.22786458333333215},{"name":"E4","midi":64,"time":21.747395833333336,"velocity":0.8031496062992126,"duration":0.22786458333333215},{"name":"A4","midi":69,"time":21.747395833333336,"velocity":0.8031496062992126,"duration":0.45833333333333215},{"name":"F#4","midi":66,"time":21.977864583333336,"velocity":0.8031496062992126,"duration":0.22786458333333215},{"name":"B3","midi":59,"time":22.208333333333336,"velocity":0.8031496062992126,"duration":0.22786458333333215},{"name":"G#4","midi":68,"time":22.208333333333336,"velocity":0.8031496062992126,"duration":1.3802083333333321},{"name":"A3","midi":57,"time":22.438802083333336,"velocity":0.8031496062992126,"duration":0.22786458333333215},{"name":"G#3","midi":56,"time":22.669270833333336,"velocity":0.8031496062992126,"duration":0.22786458333333215},{"name":"B4","midi":71,"time":22.669270833333336,"velocity":0.8031496062992126,"duration":0.45833333333333215},{"name":"A3","midi":57,"time":22.899739583333336,"velocity":0.8031496062992126,"duration":0.22786458333333215},{"name":"B3","midi":59,"time":23.130208333333336,"velocity":0.8031496062992126,"duration":0.22786458333333215},{"name":"E5","midi":76,"time":23.130208333333336,"velocity":0.8031496062992126,"duration":1.3802083333333321},{"name":"C#4","midi":61,"time":23.360677083333336,"velocity":0.8031496062992126,"duration":0.22786458333333215},{"name":"D#4","midi":63,"time":23.591145833333336,"velocity":0.8031496062992126,"duration":0.22786458333333215},{"name":"G#4","midi":68,"time":23.591145833333336,"velocity":0.8031496062992126,"duration":0.45833333333333215},{"name":"E4","midi":64,"time":23.821614583333336,"velocity":0.8031496062992126,"duration":0.22786458333333215},{"name":"A3","midi":57,"time":24.052083333333336,"velocity":0.8031496062992126,"duration":0.22786458333333215},{"name":"F#4","midi":66,"time":24.052083333333336,"velocity":0.8031496062992126,"duration":1.82421875},{"name":"G#3","midi":56,"time":24.282552083333336,"velocity":0.8031496062992126,"duration":0.22786458333333215},{"name":"F#3","midi":54,"time":24.513020833333336,"velocity":0.8031496062992126,"duration":0.22786458333333215},{"name":"D#5","midi":75,"time":24.513020833333336,"velocity":0.8031496062992126,"duration":0.22786458333333215},{"name":"G#3","midi":56,"time":24.743489583333336,"velocity":0.8031496062992126,"duration":0.22786458333333215},{"name":"E5","midi":76,"time":24.743489583333336,"velocity":0.8031496062992126,"duration":0.22786458333333215},{"name":"A3","midi":57,"time":24.973958333333336,"velocity":0.8031496062992126,"duration":0.22786458333333215},{"name":"F#5","midi":78,"time":24.973958333333336,"velocity":0.8031496062992126,"duration":0.45833333333333215},{"name":"G#3","midi":56,"time":25.204427083333336,"velocity":0.8031496062992126,"duration":0.22786458333333215},{"name":"A3","midi":57,"time":25.434895833333336,"velocity":0.8031496062992126,"duration":0.22786458333333215},{"name":"E5","midi":76,"time":25.434895833333336,"velocity":0.8031496062992126,"duration":0.22786458333333215},{"name":"B3","midi":59,"time":25.665364583333336,"velocity":0.8031496062992126,"duration":0.22786458333333215},{"name":"D#5","midi":75,"time":25.665364583333336,"velocity":0.8031496062992126,"duration":0.22786458333333215},{"name":"G#3","midi":56,"time":25.895833333333336,"velocity":0.8031496062992126,"duration":0.45833333333333215},{"name":"E5","midi":76,"time":25.895833333333336,"velocity":0.8031496062992126,"duration":1.1497395833333321},{"name":"D#5","midi":75,"time":26.126302083333336,"velocity":0.8031496062992126,"duration":0.22786458333333215},{"name":"A3","midi":57,"time":26.356770833333336,"velocity":0.8031496062992126,"duration":0.22786458333333215},{"name":"C#5","midi":73,"time":26.356770833333336,"velocity":0.8031496062992126,"duration":0.22786458333333215},{"name":"B3","midi":59,"time":26.587239583333336,"velocity":0.8031496062992126,"duration":0.22786458333333215},{"name":"B4","midi":71,"time":26.587239583333336,"velocity":0.8031496062992126,"duration":0.22786458333333215},{"name":"C#4","midi":61,"time":26.817708333333336,"velocity":0.8031496062992126,"duration":1.1497395833333321},{"name":"A4","midi":69,"time":26.817708333333336,"velocity":0.8031496062992126,"duration":0.22786458333333215},{"name":"G#4","midi":68,"time":27.048177083333336,"velocity":0.8031496062992126,"duration":0.22786458333333215},{"name":"F#5","midi":78,"time":27.048177083333336,"velocity":0.8031496062992126,"duration":0.22786458333333215},{"name":"F#4","midi":66,"time":27.278645833333336,"velocity":0.8031496062992126,"duration":0.22786458333333215},{"name":"D#5","midi":75,"time":27.278645833333336,"velocity":0.8031496062992126,"duration":0.22786458333333215},{"name":"E4","midi":64,"time":27.509114583333336,"velocity":0.8031496062992126,"duration":0.22786458333333215},{"name":"E5","midi":76,"time":27.509114583333336,"velocity":0.8031496062992126,"duration":0.22786458333333215},{"name":"D#4","midi":63,"time":27.739583333333336,"velocity":0.8031496062992126,"duration":0.45833333333333215},{"name":"F#5","midi":78,"time":27.739583333333336,"velocity":0.8031496062992126,"duration":0.22786458333333215},{"name":"B3","midi":59,"time":27.970052083333336,"velocity":0.8031496062992126,"duration":0.22786458333333215},{"name":"B4","midi":71,"time":27.970052083333336,"velocity":0.8031496062992126,"duration":0.22786458333333215},{"name":"A3","midi":57,"time":28.200520833333336,"velocity":0.8031496062992126,"duration":0.22786458333333215},{"name":"E4","midi":64,"time":28.200520833333336,"velocity":0.8031496062992126,"duration":0.9192708333333321},{"name":"G#5","midi":80,"time":28.200520833333336,"velocity":0.8031496062992126,"duration":0.22786458333333215},{"name":"G#3","midi":56,"time":28.430989583333336,"velocity":0.8031496062992126,"duration":0.22786458333333215},{"name":"B4","midi":71,"time":28.430989583333336,"velocity":0.8031496062992126,"duration":0.22786458333333215},{"name":"F#3","midi":54,"time":28.661458333333336,"velocity":0.8031496062992126,"duration":0.45833333333333215},{"name":"A5","midi":81,"time":28.661458333333336,"velocity":0.8031496062992126,"duration":0.22786458333333215},{"name":"B4","midi":71,"time":28.891927083333336,"velocity":0.8031496062992126,"duration":0.22786458333333215},{"name":"B3","midi":59,"time":29.122395833333336,"velocity":0.8031496062992126,"duration":0.45963541666666785},{"name":"D#4","midi":63,"time":29.122395833333336,"velocity":0.8031496062992126,"duration":0.45963541666666785},{"name":"B5","midi":83,"time":29.122395833333336,"velocity":0.8031496062992126,"duration":0.45963541666666785},{"name":"E3","midi":52,"time":29.58463541666667,"velocity":0.8031496062992126,"duration":0.8880208333333321},{"name":"E4","midi":64,"time":29.58463541666667,"velocity":0.8031496062992126,"duration":0.8880208333333321},{"name":"G#5","midi":80,"time":29.58463541666667,"velocity":0.8031496062992126,"duration":0.22786458333333215},{"name":"A5","midi":81,"time":29.81510416666667,"velocity":0.8031496062992126,"duration":0.22786458333333215},{"name":"B5","midi":83,"time":30.04557291666667,"velocity":0.8031496062992126,"duration":0.22786458333333215},{"name":"A5","midi":81,"time":30.27604166666667,"velocity":0.8031496062992126,"duration":0.22786458333333215},{"name":"G#5","midi":80,"time":30.50651041666667,"velocity":0.8031496062992126,"duration":0.22786458333333215},{"name":"A3","midi":57,"time":30.73697916666667,"velocity":0.8031496062992126,"duration":0.22786458333333215},{"name":"F#5","midi":78,"time":30.73697916666667,"velocity":0.8031496062992126,"duration":0.22786458333333215},{"name":"G#3","midi":56,"time":30.96744791666667,"velocity":0.8031496062992126,"duration":0.22786458333333215},{"name":"E5","midi":76,"time":30.96744791666667,"velocity":0.8031496062992126,"duration":0.22786458333333215},{"name":"F#3","midi":54,"time":31.19791666666667,"velocity":0.8031496062992126,"duration":0.22786458333333215},{"name":"D5","midi":74,"time":31.19791666666667,"velocity":0.8031496062992126,"duration":0.22786458333333215},{"name":"F3","midi":53,"time":31.42838541666667,"velocity":0.8031496062992126,"duration":0.22786458333333215},{"name":"C#5","midi":73,"time":31.42838541666667,"velocity":0.8031496062992126,"duration":2.3020833333333357},{"name":"C#3","midi":49,"time":31.65885416666667,"velocity":0.8031496062992126,"duration":0.22786458333333215},{"name":"F#3","midi":54,"time":31.88932291666667,"velocity":0.8031496062992126,"duration":0.2278645833333357},{"name":"G#4","midi":68,"time":31.88932291666667,"velocity":0.8031496062992126,"duration":0.2278645833333357},{"name":"C#3","midi":49,"time":32.11979166666667,"velocity":0.8031496062992126,"duration":0.2278645833333357},{"name":"A4","midi":69,"time":32.11979166666667,"velocity":0.8031496062992126,"duration":0.2278645833333357},{"name":"G#3","midi":56,"time":32.35026041666667,"velocity":0.8031496062992126,"duration":0.2278645833333357},{"name":"B4","midi":71,"time":32.35026041666667,"velocity":0.8031496062992126,"duration":0.4583333333333357},{"name":"C#3","midi":49,"time":32.58072916666667,"velocity":0.8031496062992126,"duration":0.2278645833333357},{"name":"F3","midi":53,"time":32.81119791666667,"velocity":0.8031496062992126,"duration":0.2278645833333357},{"name":"A4","midi":69,"time":32.81119791666667,"velocity":0.8031496062992126,"duration":0.2278645833333357},{"name":"C#3","midi":49,"time":33.04166666666667,"velocity":0.8031496062992126,"duration":0.2278645833333357},{"name":"G#4","midi":68,"time":33.04166666666667,"velocity":0.8031496062992126,"duration":0.2278645833333357},{"name":"F#3","midi":54,"time":33.27213541666667,"velocity":0.8031496062992126,"duration":0.2278645833333357},{"name":"A4","midi":69,"time":33.27213541666667,"velocity":0.8031496062992126,"duration":2.3020833333333357},{"name":"C#3","midi":49,"time":33.50260416666667,"velocity":0.8031496062992126,"duration":0.2278645833333357},{"name":"G#3","midi":56,"time":33.73307291666667,"velocity":0.8031496062992126,"duration":0.2278645833333357},{"name":"C#5","midi":73,"time":33.73307291666667,"velocity":0.8031496062992126,"duration":0.2278645833333357},{"name":"C#3","midi":49,"time":33.96354166666667,"velocity":0.8031496062992126,"duration":0.2278645833333357},{"name":"D5","midi":74,"time":33.96354166666667,"velocity":0.8031496062992126,"duration":0.2278645833333357},{"name":"F#3","midi":54,"time":34.19401041666667,"velocity":0.8031496062992126,"duration":0.2278645833333357},{"name":"E5","midi":76,"time":34.19401041666667,"velocity":0.8031496062992126,"duration":0.4583333333333357},{"name":"C#3","midi":49,"time":34.42447916666667,"velocity":0.8031496062992126,"duration":0.2278645833333357},{"name":"E3","midi":52,"time":34.65494791666667,"velocity":0.8031496062992126,"duration":0.2278645833333357},{"name":"D5","midi":74,"time":34.65494791666667,"velocity":0.8031496062992126,"duration":0.2278645833333357},{"name":"C#3","midi":49,"time":34.88541666666667,"velocity":0.8031496062992126,"duration":0.2278645833333357},{"name":"C#5","midi":73,"time":34.88541666666667,"velocity":0.8031496062992126,"duration":0.2278645833333357},{"name":"D#3","midi":51,"time":35.11588541666667,"velocity":0.8031496062992126,"duration":0.2278645833333357},{"name":"B4","midi":71,"time":35.11588541666667,"velocity":0.8031496062992126,"duration":2.3020833333333357},{"name":"B2","midi":47,"time":35.34635416666667,"velocity":0.8031496062992126,"duration":0.2278645833333357},{"name":"E3","midi":52,"time":35.57682291666667,"velocity":0.8031496062992126,"duration":0.2278645833333357},{"name":"F#4","midi":66,"time":35.57682291666667,"velocity":0.8031496062992126,"duration":0.2278645833333357},{"name":"B2","midi":47,"time":35.80729166666667,"velocity":0.8031496062992126,"duration":0.2278645833333357},{"name":"G#4","midi":68,"time":35.80729166666667,"velocity":0.8031496062992126,"duration":0.2278645833333357},{"name":"F#3","midi":54,"time":36.03776041666667,"velocity":0.8031496062992126,"duration":0.2278645833333357},{"name":"A4","midi":69,"time":36.03776041666667,"velocity":0.8031496062992126,"duration":0.4583333333333357},{"name":"B2","midi":47,"time":36.26822916666667,"velocity":0.8031496062992126,"duration":0.2278645833333357},{"name":"D#3","midi":51,"time":36.49869791666667,"velocity":0.8031496062992126,"duration":0.2278645833333357},{"name":"G#4","midi":68,"time":36.49869791666667,"velocity":0.8031496062992126,"duration":0.2278645833333357},{"name":"B2","midi":47,"time":36.72916666666667,"velocity":0.8031496062992126,"duration":0.2278645833333357},{"name":"F#4","midi":66,"time":36.72916666666667,"velocity":0.8031496062992126,"duration":0.2278645833333357},{"name":"E3","midi":52,"time":36.95963541666667,"velocity":0.8031496062992126,"duration":0.2278645833333357},{"name":"G#4","midi":68,"time":36.95963541666667,"velocity":0.8031496062992126,"duration":2.3020833333333357},{"name":"B2","midi":47,"time":37.19010416666667,"velocity":0.8031496062992126,"duration":0.2278645833333357},{"name":"F#3","midi":54,"time":37.42057291666667,"velocity":0.8031496062992126,"duration":0.2278645833333357},{"name":"B4","midi":71,"time":37.42057291666667,"velocity":0.8031496062992126,"duration":0.2278645833333357},{"name":"B2","midi":47,"time":37.65104166666667,"velocity":0.8031496062992126,"duration":0.2278645833333357},{"name":"C#5","midi":73,"time":37.65104166666667,"velocity":0.8031496062992126,"duration":0.2278645833333357},{"name":"E3","midi":52,"time":37.88151041666667,"velocity":0.8031496062992126,"duration":0.2278645833333357},{"name":"D5","midi":74,"time":37.88151041666667,"velocity":0.8031496062992126,"duration":0.4583333333333357},{"name":"B2","midi":47,"time":38.11197916666667,"velocity":0.8031496062992126,"duration":0.2278645833333357},{"name":"D3","midi":50,"time":38.34244791666667,"velocity":0.8031496062992126,"duration":0.2278645833333357},{"name":"C#5","midi":73,"time":38.34244791666667,"velocity":0.8031496062992126,"duration":0.2278645833333357},{"name":"B2","midi":47,"time":38.57291666666667,"velocity":0.8031496062992126,"duration":0.2278645833333357},{"name":"B4","midi":71,"time":38.57291666666667,"velocity":0.8031496062992126,"duration":0.2278645833333357},{"name":"C#3","midi":49,"time":38.80338541666667,"velocity":0.8031496062992126,"duration":0.2278645833333357},{"name":"A4","midi":69,"time":38.80338541666667,"velocity":0.8031496062992126,"duration":2.3020833333333357},{"name":"A2","midi":45,"time":39.03385416666667,"velocity":0.8031496062992126,"duration":0.2278645833333357},{"name":"D3","midi":50,"time":39.26432291666667,"velocity":0.8031496062992126,"duration":0.2278645833333357},{"name":"F4","midi":65,"time":39.26432291666667,"velocity":0.8031496062992126,"duration":0.2278645833333357},{"name":"A2","midi":45,"time":39.49479166666667,"velocity":0.8031496062992126,"duration":0.2278645833333357},{"name":"F#4","midi":66,"time":39.49479166666667,"velocity":0.8031496062992126,"duration":0.2278645833333357},{"name":"E3","midi":52,"time":39.72526041666667,"velocity":0.8031496062992126,"duration":0.2278645833333357},{"name":"G#4","midi":68,"time":39.72526041666667,"velocity":0.8031496062992126,"duration":0.4583333333333357},{"name":"A2","midi":45,"time":39.95572916666667,"velocity":0.8031496062992126,"duration":0.2278645833333357},{"name":"C#3","midi":49,"time":40.18619791666667,"velocity":0.8031496062992126,"duration":0.2278645833333357},{"name":"F#4","midi":66,"time":40.18619791666667,"velocity":0.8031496062992126,"duration":0.2278645833333357},{"name":"A2","midi":45,"time":40.41666666666667,"velocity":0.8031496062992126,"duration":0.2278645833333357},{"name":"F4","midi":65,"time":40.41666666666667,"velocity":0.8031496062992126,"duration":0.2278645833333357},{"name":"D3","midi":50,"time":40.64713541666667,"velocity":0.8031496062992126,"duration":0.2278645833333357},{"name":"F#4","midi":66,"time":40.64713541666667,"velocity":0.8031496062992126,"duration":2.3020833333333357},{"name":"A2","midi":45,"time":40.87760416666667,"velocity":0.8031496062992126,"duration":0.2278645833333357},{"name":"E3","midi":52,"time":41.10807291666667,"velocity":0.8031496062992126,"duration":0.2278645833333357},{"name":"A4","midi":69,"time":41.10807291666667,"velocity":0.8031496062992126,"duration":0.2278645833333357},{"name":"A2","midi":45,"time":41.33854166666667,"velocity":0.8031496062992126,"duration":0.2278645833333357},{"name":"B4","midi":71,"time":41.33854166666667,"velocity":0.8031496062992126,"duration":0.2278645833333357},{"name":"D3","midi":50,"time":41.56901041666667,"velocity":0.8031496062992126,"duration":0.2278645833333357},{"name":"C#5","midi":73,"time":41.56901041666667,"velocity":0.8031496062992126,"duration":0.4583333333333357},{"name":"A2","midi":45,"time":41.79947916666667,"velocity":0.8031496062992126,"duration":0.2278645833333357},{"name":"C#3","midi":49,"time":42.02994791666667,"velocity":0.8031496062992126,"duration":0.2278645833333357},{"name":"B4","midi":71,"time":42.02994791666667,"velocity":0.8031496062992126,"duration":0.2278645833333357},{"name":"A2","midi":45,"time":42.26041666666667,"velocity":0.8031496062992126,"duration":0.2278645833333357},{"name":"A4","midi":69,"time":42.26041666666667,"velocity":0.8031496062992126,"duration":0.2278645833333357},{"name":"B2","midi":47,"time":42.49088541666667,"velocity":0.8031496062992126,"duration":0.2278645833333357},{"name":"G#4","midi":68,"time":42.49088541666667,"velocity":0.8031496062992126,"duration":2.3033854166666643},{"name":"G#2","midi":44,"time":42.72135416666667,"velocity":0.8031496062992126,"duration":0.2278645833333357},{"name":"C#3","midi":49,"time":42.95182291666667,"velocity":0.8031496062992126,"duration":0.2278645833333357},{"name":"D#4","midi":63,"time":42.95182291666667,"velocity":0.8031496062992126,"duration":0.2278645833333357},{"name":"G#2","midi":44,"time":43.18229166666667,"velocity":0.8031496062992126,"duration":0.2278645833333357},{"name":"F4","midi":65,"time":43.18229166666667,"velocity":0.8031496062992126,"duration":0.2278645833333357},{"name":"D3","midi":50,"time":43.41276041666667,"velocity":0.8031496062992126,"duration":0.2278645833333357},{"name":"F#4","midi":66,"time":43.41276041666667,"velocity":0.8031496062992126,"duration":0.4583333333333357},{"name":"G#2","midi":44,"time":43.64322916666667,"velocity":0.8031496062992126,"duration":0.2278645833333357},{"name":"B2","midi":47,"time":43.87369791666667,"velocity":0.8031496062992126,"duration":0.2278645833333357},{"name":"F4","midi":65,"time":43.87369791666667,"velocity":0.8031496062992126,"duration":0.2278645833333357},{"name":"G#2","midi":44,"time":44.10416666666667,"velocity":0.8031496062992126,"duration":0.2278645833333357},{"name":"D#4","midi":63,"time":44.10416666666667,"velocity":0.8031496062992126,"duration":0.2278645833333357},{"name":"C#3","midi":49,"time":44.33463541666667,"velocity":0.8031496062992126,"duration":1.843749999999993},{"name":"F4","midi":65,"time":44.33463541666667,"velocity":0.8031496062992126,"duration":0.4596354166666643},{"name":"F4","midi":65,"time":44.796875,"velocity":0.8031496062992126,"duration":0.2278645833333357},{"name":"G#4","midi":68,"time":44.796875,"velocity":0.8031496062992126,"duration":0.2278645833333357},{"name":"F#4","midi":66,"time":45.02734375,"velocity":0.8031496062992126,"duration":0.2278645833333357},{"name":"A4","midi":69,"time":45.02734375,"velocity":0.8031496062992126,"duration":0.2278645833333357},{"name":"G#4","midi":68,"time":45.2578125,"velocity":0.8031496062992126,"duration":0.4596354166666643},{"name":"B4","midi":71,"time":45.2578125,"velocity":0.8031496062992126,"duration":0.4596354166666643},{"name":"F#4","midi":66,"time":45.72005208333333,"velocity":0.8031496062992126,"duration":0.2278645833333357},{"name":"A4","midi":69,"time":45.72005208333333,"velocity":0.8031496062992126,"duration":0.2278645833333357},{"name":"F4","midi":65,"time":45.95052083333333,"velocity":0.8031496062992126,"duration":0.2278645833333357},{"name":"G#4","midi":68,"time":45.95052083333333,"velocity":0.8031496062992126,"duration":0.2278645833333357},{"name":"C#3","midi":49,"time":46.18098958333333,"velocity":0.8031496062992126,"duration":1.843749999999993},{"name":"F#4","midi":66,"time":46.18098958333333,"velocity":0.8031496062992126,"duration":0.9205729166666643},{"name":"A4","midi":69,"time":46.18098958333333,"velocity":0.8031496062992126,"duration":0.4596354166666643},{"name":"A#4","midi":70,"time":46.64322916666666,"velocity":0.8031496062992126,"duration":0.2278645833333357},{"name":"C5","midi":72,"time":46.87369791666666,"velocity":0.8031496062992126,"duration":0.2278645833333357},{"name":"E4","midi":64,"time":47.10416666666666,"velocity":0.8031496062992126,"duration":0.9205729166666643},{"name":"C#5","midi":73,"time":47.10416666666666,"velocity":0.8031496062992126,"duration":0.4596354166666643},{"name":"C5","midi":72,"time":47.566406249999986,"velocity":0.8031496062992126,"duration":0.2278645833333357},{"name":"A#4","midi":70,"time":47.796874999999986,"velocity":0.8031496062992126,"duration":0.2278645833333357},{"name":"C#3","midi":49,"time":48.027343749999986,"velocity":0.8031496062992126,"duration":2.074218749999993},{"name":"D#4","midi":63,"time":48.027343749999986,"velocity":0.8031496062992126,"duration":0.9205729166666643},{"name":"C5","midi":72,"time":48.027343749999986,"velocity":0.8031496062992126,"duration":0.4596354166666643},{"name":"C5","midi":72,"time":48.489583333333314,"velocity":0.8031496062992126,"duration":0.2278645833333357},{"name":"C#5","midi":73,"time":48.720052083333314,"velocity":0.8031496062992126,"duration":0.2278645833333357},{"name":"F#4","midi":66,"time":48.950520833333314,"velocity":0.8031496062992126,"duration":1.8424479166666643},{"name":"D#5","midi":75,"time":48.950520833333314,"velocity":0.8031496062992126,"duration":0.4596354166666643},{"name":"C#5","midi":73,"time":49.41276041666664,"velocity":0.8031496062992126,"duration":0.2278645833333357},{"name":"C5","midi":72,"time":49.64322916666664,"velocity":0.8031496062992126,"duration":0.2278645833333357},{"name":"C#5","midi":73,"time":49.87369791666664,"velocity":0.8031496062992126,"duration":0.4583333333333357},{"name":"D4","midi":62,"time":50.10416666666664,"velocity":0.8031496062992126,"duration":0.2278645833333357},{"name":"C#4","midi":61,"time":50.33463541666664,"velocity":0.8031496062992126,"duration":0.2278645833333357},{"name":"G#4","midi":68,"time":50.33463541666664,"velocity":0.8031496062992126,"duration":0.2278645833333357},{"name":"B3","midi":59,"time":50.56510416666664,"velocity":0.8031496062992126,"duration":0.2278645833333357},{"name":"A4","midi":69,"time":50.56510416666664,"velocity":0.8031496062992126,"duration":0.2278645833333357},{"name":"C#4","midi":61,"time":50.79557291666664,"velocity":0.8031496062992126,"duration":0.2278645833333357},{"name":"F4","midi":65,"time":50.79557291666664,"velocity":0.8031496062992126,"duration":0.9192708333333357},{"name":"B4","midi":71,"time":50.79557291666664,"velocity":0.8031496062992126,"duration":0.4583333333333357},{"name":"A3","midi":57,"time":51.02604166666664,"velocity":0.8031496062992126,"duration":0.2278645833333357},{"name":"B3","midi":59,"time":51.25651041666664,"velocity":0.8031496062992126,"duration":0.2278645833333357},{"name":"A4","midi":69,"time":51.25651041666664,"velocity":0.8031496062992126,"duration":0.2278645833333357},{"name":"C#4","midi":61,"time":51.48697916666664,"velocity":0.8031496062992126,"duration":0.2278645833333357},{"name":"G#4","midi":68,"time":51.48697916666664,"velocity":0.8031496062992126,"duration":0.2278645833333357},{"name":"F#3","midi":54,"time":51.71744791666664,"velocity":0.8031496062992126,"duration":0.4583333333333357},{"name":"F#4","midi":66,"time":51.71744791666664,"velocity":0.8031496062992126,"duration":0.2161458333333357},{"name":"A4","midi":69,"time":51.71744791666664,"velocity":0.8031496062992126,"duration":0.2278645833333357},{"name":"F#4","midi":66,"time":51.94791666666664,"velocity":0.8031496062992126,"duration":0.2278645833333357},{"name":"F3","midi":53,"time":52.17838541666664,"velocity":0.8031496062992126,"duration":0.2278645833333357},{"name":"G#4","midi":68,"time":52.17838541666664,"velocity":0.8031496062992126,"duration":0.2278645833333357},{"name":"F#3","midi":54,"time":52.40885416666664,"velocity":0.8031496062992126,"duration":0.2278645833333357},{"name":"A4","midi":69,"time":52.40885416666664,"velocity":0.8031496062992126,"duration":0.2278645833333357},{"name":"G#3","midi":56,"time":52.63932291666664,"velocity":0.8031496062992126,"duration":0.4583333333333357},{"name":"B4","midi":71,"time":52.63932291666664,"velocity":0.8031496062992126,"duration":0.2278645833333357},{"name":"C#5","midi":73,"time":52.86979166666664,"velocity":0.8031496062992126,"duration":0.2278645833333357},{"name":"F#3","midi":54,"time":53.10026041666664,"velocity":0.8031496062992126,"duration":0.2278645833333357},{"name":"D5","midi":74,"time":53.10026041666664,"velocity":0.8031496062992126,"duration":0.2278645833333357},{"name":"F3","midi":53,"time":53.33072916666664,"velocity":0.8031496062992126,"duration":0.2278645833333357},{"name":"E5","midi":76,"time":53.33072916666664,"velocity":0.8031496062992126,"duration":0.2278645833333357},{"name":"F#3","midi":54,"time":53.56119791666664,"velocity":0.8031496062992126,"duration":1.1497395833333357},{"name":"D5","midi":74,"time":53.56119791666664,"velocity":0.8031496062992126,"duration":0.6888020833333357},{"name":"C#5","midi":73,"time":53.79166666666664,"velocity":0.8031496062992126,"duration":0.2278645833333357},{"name":"B4","midi":71,"time":54.02213541666664,"velocity":0.8031496062992126,"duration":0.6888020833333357},{"name":"D5","midi":74,"time":54.25260416666664,"velocity":0.8031496062992126,"duration":0.2278645833333357},{"name":"C#5","midi":73,"time":54.48307291666664,"velocity":0.8031496062992126,"duration":0.6888020833333357},{"name":"G#3","midi":56,"time":54.71354166666664,"velocity":0.8031496062992126,"duration":0.2278645833333357},{"name":"B4","midi":71,"time":54.71354166666664,"velocity":0.8031496062992126,"duration":0.2278645833333357},{"name":"F3","midi":53,"time":54.94401041666664,"velocity":0.8031496062992126,"duration":0.2278645833333357},{"name":"A4","midi":69,"time":54.94401041666664,"velocity":0.8031496062992126,"duration":0.4583333333333357},{"name":"F#3","midi":54,"time":55.17447916666664,"velocity":0.8031496062992126,"duration":0.2278645833333357},{"name":"C#5","midi":73,"time":55.17447916666664,"velocity":0.8031496062992126,"duration":0.2278645833333357},{"name":"G#3","midi":56,"time":55.40494791666664,"velocity":0.8031496062992126,"duration":0.2278645833333357},{"name":"F4","midi":65,"time":55.40494791666664,"velocity":0.8031496062992126,"duration":0.4583333333333357},{"name":"B4","midi":71,"time":55.40494791666664,"velocity":0.8031496062992126,"duration":0.4583333333333357},{"name":"C#3","midi":49,"time":55.63541666666664,"velocity":0.8031496062992126,"duration":0.2278645833333357},{"name":"A3","midi":57,"time":55.86588541666664,"velocity":0.8031496062992126,"duration":0.2278645833333357},{"name":"F#4","midi":66,"time":55.86588541666664,"velocity":0.8031496062992126,"duration":0.9192708333333357},{"name":"A4","midi":69,"time":55.86588541666664,"velocity":0.8031496062992126,"duration":0.4583333333333357},{"name":"C#3","midi":49,"time":56.09635416666664,"velocity":0.8031496062992126,"duration":0.2278645833333357},{"name":"B3","midi":59,"time":56.32682291666664,"velocity":0.8031496062992126,"duration":0.2278645833333357},{"name":"G#4","midi":68,"time":56.32682291666664,"velocity":0.8031496062992126,"duration":0.9192708333333357},{"name":"C#3","midi":49,"time":56.55729166666664,"velocity":0.8031496062992126,"duration":0.2278645833333357},{"name":"C#4","midi":61,"time":56.78776041666664,"velocity":0.8031496062992126,"duration":0.2278645833333357},{"name":"F4","midi":65,"time":56.78776041666664,"velocity":0.8031496062992126,"duration":0.4583333333333357},{"name":"B3","midi":59,"time":57.01822916666664,"velocity":0.8031496062992126,"duration":0.2278645833333357},{"name":"A3","midi":57,"time":57.24869791666664,"velocity":0.8031496062992126,"duration":0.2278645833333357},{"name":"F#4","midi":66,"time":57.24869791666664,"velocity":0.8031496062992126,"duration":1.3802083333333357},{"name":"B3","midi":59,"time":57.47916666666664,"velocity":0.8031496062992126,"duration":0.2278645833333357},{"name":"C#4","midi":61,"time":57.70963541666664,"velocity":0.8031496062992126,"duration":0.2278645833333357},{"name":"C#5","midi":73,"time":57.70963541666664,"velocity":0.8031496062992126,"duration":0.4583333333333357},{"name":"B3","midi":59,"time":57.94010416666664,"velocity":0.8031496062992126,"duration":0.2278645833333357},{"name":"A3","midi":57,"time":58.17057291666664,"velocity":0.8031496062992126,"duration":0.2278645833333357},{"name":"F#5","midi":78,"time":58.17057291666664,"velocity":0.8031496062992126,"duration":1.3802083333333357},{"name":"G#3","midi":56,"time":58.40104166666664,"velocity":0.8031496062992126,"duration":0.2278645833333357},{"name":"F#3","midi":54,"time":58.63151041666664,"velocity":0.8031496062992126,"duration":0.2278645833333357},{"name":"A4","midi":69,"time":58.63151041666664,"velocity":0.8031496062992126,"duration":0.4583333333333357},{"name":"E3","midi":52,"time":58.86197916666664,"velocity":0.8031496062992126,"duration":0.2278645833333357},{"name":"B3","midi":59,"time":59.09244791666664,"velocity":0.8031496062992126,"duration":0.2278645833333357},{"name":"D5","midi":74,"time":59.09244791666664,"velocity":0.8031496062992126,"duration":1.3802083333333357},{"name":"C#4","midi":61,"time":59.32291666666664,"velocity":0.8031496062992126,"duration":0.2278645833333357},{"name":"D4","midi":62,"time":59.55338541666664,"velocity":0.8031496062992126,"duration":0.2278645833333357},{"name":"B4","midi":71,"time":59.55338541666664,"velocity":0.8031496062992126,"duration":0.4583333333333357},{"name":"C#4","midi":61,"time":59.78385416666664,"velocity":0.8031496062992126,"duration":0.2278645833333357},{"name":"B3","midi":59,"time":60.01432291666664,"velocity":0.8031496062992126,"duration":0.2278645833333357},{"name":"G#5","midi":80,"time":60.01432291666664,"velocity":0.8031496062992126,"duration":1.3802083333333357},{"name":"A3","midi":57,"time":60.24479166666664,"velocity":0.8031496062992126,"duration":0.2278645833333357},{"name":"G#3","midi":56,"time":60.47526041666664,"velocity":0.8031496062992126,"duration":0.2278645833333357},{"name":"B4","midi":71,"time":60.47526041666664,"velocity":0.8031496062992126,"duration":0.4583333333333357},{"name":"F#3","midi":54,"time":60.70572916666664,"velocity":0.8031496062992126,"duration":0.2278645833333357},{"name":"C#4","midi":61,"time":60.93619791666664,"velocity":0.8031496062992126,"duration":0.2278645833333357},{"name":"E5","midi":76,"time":60.93619791666664,"velocity":0.8031496062992126,"duration":1.3802083333333357},{"name":"D4","midi":62,"time":61.16666666666664,"velocity":0.8031496062992126,"duration":0.2278645833333357},{"name":"E4","midi":64,"time":61.39713541666664,"velocity":0.8031496062992126,"duration":0.2278645833333357},{"name":"C#5","midi":73,"time":61.39713541666664,"velocity":0.8031496062992126,"duration":0.4583333333333357},{"name":"D4","midi":62,"time":61.62760416666664,"velocity":0.8031496062992126,"duration":0.2278645833333357},{"name":"C#4","midi":61,"time":61.85807291666664,"velocity":0.8031496062992126,"duration":0.2278645833333357},{"name":"A5","midi":81,"time":61.85807291666664,"velocity":0.8031496062992126,"duration":1.3802083333333357},{"name":"B3","midi":59,"time":62.08854166666664,"velocity":0.8031496062992126,"duration":0.2278645833333357},{"name":"A3","midi":57,"time":62.31901041666664,"velocity":0.8031496062992126,"duration":0.2278645833333357},{"name":"C#5","midi":73,"time":62.31901041666664,"velocity":0.8031496062992126,"duration":0.4583333333333357},{"name":"G#3","midi":56,"time":62.54947916666664,"velocity":0.8031496062992126,"duration":0.2278645833333357},{"name":"D#4","midi":63,"time":62.77994791666664,"velocity":0.8031496062992126,"duration":0.2278645833333357},{"name":"F#5","midi":78,"time":62.77994791666664,"velocity":0.8031496062992126,"duration":2.3033854166666714},{"name":"E4","midi":64,"time":63.01041666666664,"velocity":0.8031496062992126,"duration":0.2278645833333357},{"name":"F#4","midi":66,"time":63.24088541666664,"velocity":0.8031496062992126,"duration":0.2278645833333357},{"name":"D#5","midi":75,"time":63.24088541666664,"velocity":0.8031496062992126,"duration":0.4583333333333357},{"name":"E4","midi":64,"time":63.47135416666664,"velocity":0.8031496062992126,"duration":0.2278645833333357},{"name":"D#4","midi":63,"time":63.70182291666664,"velocity":0.8031496062992126,"duration":0.2278645833333357},{"name":"B5","midi":83,"time":63.70182291666664,"velocity":0.8031496062992126,"duration":0.4583333333333286},{"name":"C#4","midi":61,"time":63.93229166666664,"velocity":0.8031496062992126,"duration":0.2278645833333286},{"name":"B3","midi":59,"time":64.16276041666664,"velocity":0.8031496062992126,"duration":0.2278645833333286},{"name":"A5","midi":81,"time":64.16276041666664,"velocity":0.8031496062992126,"duration":0.4583333333333286},{"name":"A3","midi":57,"time":64.39322916666664,"velocity":0.8031496062992126,"duration":0.2278645833333286},{"name":"E4","midi":64,"time":64.62369791666664,"velocity":0.8031496062992126,"duration":1.8437500000000142},{"name":"G#5","midi":80,"time":64.62369791666664,"velocity":0.8031496062992126,"duration":0.4596354166666714},{"name":"B4","midi":71,"time":65.08593749999999,"velocity":0.8031496062992126,"duration":0.2278645833333286},{"name":"G#5","midi":80,"time":65.08593749999999,"velocity":0.8031496062992126,"duration":0.2278645833333286},{"name":"C#5","midi":73,"time":65.31640624999999,"velocity":0.8031496062992126,"duration":0.2278645833333286},{"name":"A5","midi":81,"time":65.31640624999999,"velocity":0.8031496062992126,"duration":0.2278645833333286},{"name":"D5","midi":74,"time":65.54687499999999,"velocity":0.8031496062992126,"duration":0.4596354166666714},{"name":"B5","midi":83,"time":65.54687499999999,"velocity":0.8031496062992126,"duration":0.4596354166666714},{"name":"C#5","midi":73,"time":66.00911458333333,"velocity":0.8031496062992126,"duration":0.2278645833333286},{"name":"A5","midi":81,"time":66.00911458333333,"velocity":0.8031496062992126,"duration":0.2278645833333286},{"name":"B4","midi":71,"time":66.23958333333333,"velocity":0.8031496062992126,"duration":0.2278645833333286},{"name":"G#5","midi":80,"time":66.23958333333333,"velocity":0.8031496062992126,"duration":0.2278645833333286},{"name":"E4","midi":64,"time":66.47005208333333,"velocity":0.8031496062992126,"duration":1.8437500000000142},{"name":"C#5","midi":73,"time":66.47005208333333,"velocity":0.8031496062992126,"duration":0.4596354166666714},{"name":"A5","midi":81,"time":66.47005208333333,"velocity":0.8031496062992126,"duration":0.9205729166666714},{"name":"C#5","midi":73,"time":66.93229166666667,"velocity":0.8031496062992126,"duration":0.2278645833333286},{"name":"D#5","midi":75,"time":67.16276041666667,"velocity":0.8031496062992126,"duration":0.2278645833333286},{"name":"E5","midi":76,"time":67.39322916666667,"velocity":0.8031496062992126,"duration":0.4596354166666714},{"name":"G#5","midi":80,"time":67.39322916666667,"velocity":0.8031496062992126,"duration":0.9205729166666714},{"name":"D#5","midi":75,"time":67.85546875000001,"velocity":0.8031496062992126,"duration":0.2278645833333286},{"name":"C#5","midi":73,"time":68.08593750000001,"velocity":0.8031496062992126,"duration":0.2278645833333286},{"name":"E4","midi":64,"time":68.31640625000001,"velocity":0.8031496062992126,"duration":2.074218750000014},{"name":"D#5","midi":75,"time":68.31640625000001,"velocity":0.8031496062992126,"duration":0.4596354166666714},{"name":"F#5","midi":78,"time":68.31640625000001,"velocity":0.8031496062992126,"duration":0.9205729166666714},{"name":"D#5","midi":75,"time":68.77864583333336,"velocity":0.8031496062992126,"duration":0.2278645833333286},{"name":"E5","midi":76,"time":69.00911458333336,"velocity":0.8031496062992126,"duration":0.2278645833333286},{"name":"F#5","midi":78,"time":69.23958333333336,"velocity":0.8031496062992126,"duration":0.4596354166666714},{"name":"A5","midi":81,"time":69.23958333333336,"velocity":0.8031496062992126,"duration":1.3815104166666714},{"name":"E5","midi":76,"time":69.7018229166667,"velocity":0.8031496062992126,"duration":0.2278645833333286},{"name":"D#5","midi":75,"time":69.9322916666667,"velocity":0.8031496062992126,"duration":0.2278645833333286},{"name":"E5","midi":76,"time":70.1627604166667,"velocity":0.8031496062992126,"duration":1.8411458333333286},{"name":"C#4","midi":61,"time":70.3932291666667,"velocity":0.8031496062992126,"duration":0.2278645833333286},{"name":"B3","midi":59,"time":70.6236979166667,"velocity":0.8031496062992126,"duration":0.2278645833333286},{"name":"G#5","midi":80,"time":70.6236979166667,"velocity":0.8031496062992126,"duration":0.2278645833333286},{"name":"A3","midi":57,"time":70.8541666666667,"velocity":0.8031496062992126,"duration":0.2278645833333286},{"name":"A5","midi":81,"time":70.8541666666667,"velocity":0.8031496062992126,"duration":0.2278645833333286},{"name":"G#3","midi":56,"time":71.0846354166667,"velocity":0.8031496062992126,"duration":0.2278645833333286},{"name":"B5","midi":83,"time":71.0846354166667,"velocity":0.8031496062992126,"duration":0.2278645833333286},{"name":"F#3","midi":54,"time":71.3151041666667,"velocity":0.8031496062992126,"duration":0.2278645833333286},{"name":"A5","midi":81,"time":71.3151041666667,"velocity":0.8031496062992126,"duration":0.2278645833333286},{"name":"E3","midi":52,"time":71.5455729166667,"velocity":0.8031496062992126,"duration":0.2278645833333286},{"name":"G#5","midi":80,"time":71.5455729166667,"velocity":0.8031496062992126,"duration":0.2278645833333286},{"name":"D3","midi":50,"time":71.7760416666667,"velocity":0.8031496062992126,"duration":0.2278645833333286},{"name":"F#5","midi":78,"time":71.7760416666667,"velocity":0.8031496062992126,"duration":0.2278645833333286},{"name":"C#3","midi":49,"time":72.0065104166667,"velocity":0.8031496062992126,"duration":0.2278645833333286},{"name":"E5","midi":76,"time":72.0065104166667,"velocity":0.8031496062992126,"duration":0.2278645833333286},{"name":"A3","midi":57,"time":72.2369791666667,"velocity":0.8031496062992126,"duration":0.2278645833333286},{"name":"D5","midi":74,"time":72.2369791666667,"velocity":0.8031496062992126,"duration":0.2278645833333286},{"name":"D3","midi":50,"time":72.4674479166667,"velocity":0.8031496062992126,"duration":0.2278645833333286},{"name":"C#5","midi":73,"time":72.4674479166667,"velocity":0.8031496062992126,"duration":0.2278645833333286},{"name":"A3","midi":57,"time":72.6979166666667,"velocity":0.8031496062992126,"duration":0.2278645833333286},{"name":"B4","midi":71,"time":72.6979166666667,"velocity":0.8031496062992126,"duration":0.2278645833333286},{"name":"E3","midi":52,"time":72.9283854166667,"velocity":0.8031496062992126,"duration":0.2278645833333286},{"name":"A4","midi":69,"time":72.9283854166667,"velocity":0.8031496062992126,"duration":0.2278645833333286},{"name":"A3","midi":57,"time":73.1588541666667,"velocity":0.8031496062992126,"duration":0.2278645833333286},{"name":"C#5","midi":73,"time":73.1588541666667,"velocity":0.8031496062992126,"duration":0.2278645833333286},{"name":"C#3","midi":49,"time":73.3893229166667,"velocity":0.8031496062992126,"duration":0.2278645833333286},{"name":"E5","midi":76,"time":73.3893229166667,"velocity":0.8031496062992126,"duration":0.2278645833333286},{"name":"A3","midi":57,"time":73.6197916666667,"velocity":0.8031496062992126,"duration":0.2278645833333286},{"name":"G5","midi":79,"time":73.6197916666667,"velocity":0.8031496062992126,"duration":0.2278645833333286},{"name":"D3","midi":50,"time":73.8502604166667,"velocity":0.8031496062992126,"duration":0.2278645833333286},{"name":"F#5","midi":78,"time":73.8502604166667,"velocity":0.8031496062992126,"duration":2.3020833333333286},{"name":"A3","midi":57,"time":74.0807291666667,"velocity":0.8031496062992126,"duration":0.2278645833333286},{"name":"E3","midi":52,"time":74.3111979166667,"velocity":0.8031496062992126,"duration":0.2278645833333286},{"name":"A4","midi":69,"time":74.3111979166667,"velocity":0.8031496062992126,"duration":0.2278645833333286},{"name":"A3","midi":57,"time":74.5416666666667,"velocity":0.8031496062992126,"duration":0.2278645833333286},{"name":"B4","midi":71,"time":74.5416666666667,"velocity":0.8031496062992126,"duration":0.2278645833333286},{"name":"D3","midi":50,"time":74.7721354166667,"velocity":0.8031496062992126,"duration":0.2278645833333286},{"name":"C#5","midi":73,"time":74.7721354166667,"velocity":0.8031496062992126,"duration":0.4583333333333286},{"name":"A3","midi":57,"time":75.0026041666667,"velocity":0.8031496062992126,"duration":0.2278645833333286},{"name":"C#3","midi":49,"time":75.2330729166667,"velocity":0.8031496062992126,"duration":0.2278645833333286},{"name":"B4","midi":71,"time":75.2330729166667,"velocity":0.8031496062992126,"duration":0.2278645833333286},{"name":"A3","midi":57,"time":75.4635416666667,"velocity":0.8031496062992126,"duration":0.2278645833333286},{"name":"A4","midi":69,"time":75.4635416666667,"velocity":0.8031496062992126,"duration":0.2278645833333286},{"name":"B2","midi":47,"time":75.6940104166667,"velocity":0.8031496062992126,"duration":0.2278645833333286},{"name":"G#4","midi":68,"time":75.6940104166667,"velocity":0.8031496062992126,"duration":2.3020833333333286},{"name":"G#3","midi":56,"time":75.9244791666667,"velocity":0.8031496062992126,"duration":0.2278645833333286},{"name":"C#3","midi":49,"time":76.1549479166667,"velocity":0.8031496062992126,"duration":0.2278645833333286},{"name":"D5","midi":74,"time":76.1549479166667,"velocity":0.8031496062992126,"duration":0.2278645833333286},{"name":"G#3","midi":56,"time":76.3854166666667,"velocity":0.8031496062992126,"duration":0.2278645833333286},{"name":"E5","midi":76,"time":76.3854166666667,"velocity":0.8031496062992126,"duration":0.2278645833333286},{"name":"D3","midi":50,"time":76.6158854166667,"velocity":0.8031496062992126,"duration":0.2278645833333286},{"name":"F#5","midi":78,"time":76.6158854166667,"velocity":0.8031496062992126,"duration":0.4583333333333286},{"name":"G#3","midi":56,"time":76.8463541666667,"velocity":0.8031496062992126,"duration":0.2278645833333286},{"name":"B2","midi":47,"time":77.0768229166667,"velocity":0.8031496062992126,"duration":0.2278645833333286},{"name":"E5","midi":76,"time":77.0768229166667,"velocity":0.8031496062992126,"duration":0.2278645833333286},{"name":"G#3","midi":56,"time":77.3072916666667,"velocity":0.8031496062992126,"duration":0.2278645833333286},{"name":"D5","midi":74,"time":77.3072916666667,"velocity":0.8031496062992126,"duration":0.2278645833333286},{"name":"C#3","midi":49,"time":77.5377604166667,"velocity":0.8031496062992126,"duration":0.2278645833333286},{"name":"E5","midi":76,"time":77.5377604166667,"velocity":0.8031496062992126,"duration":2.3020833333333286},{"name":"G#3","midi":56,"time":77.7682291666667,"velocity":0.8031496062992126,"duration":0.2278645833333286},{"name":"D3","midi":50,"time":77.9986979166667,"velocity":0.8031496062992126,"duration":0.2278645833333286},{"name":"G#4","midi":68,"time":77.9986979166667,"velocity":0.8031496062992126,"duration":0.2278645833333286},{"name":"G#3","midi":56,"time":78.2291666666667,"velocity":0.8031496062992126,"duration":0.2278645833333286},{"name":"A4","midi":69,"time":78.2291666666667,"velocity":0.8031496062992126,"duration":0.2278645833333286},{"name":"C#3","midi":49,"time":78.4596354166667,"velocity":0.8031496062992126,"duration":0.2278645833333286},{"name":"B4","midi":71,"time":78.4596354166667,"velocity":0.8031496062992126,"duration":0.4583333333333286},{"name":"G#3","midi":56,"time":78.6901041666667,"velocity":0.8031496062992126,"duration":0.2278645833333286},{"name":"B2","midi":47,"time":78.9205729166667,"velocity":0.8031496062992126,"duration":0.2278645833333286},{"name":"A4","midi":69,"time":78.9205729166667,"velocity":0.8031496062992126,"duration":0.2278645833333286},{"name":"G#3","midi":56,"time":79.1510416666667,"velocity":0.8031496062992126,"duration":0.2278645833333286},{"name":"G#4","midi":68,"time":79.1510416666667,"velocity":0.8031496062992126,"duration":0.2278645833333286},{"name":"A#2","midi":46,"time":79.3815104166667,"velocity":0.8031496062992126,"duration":0.2278645833333286},{"name":"F#4","midi":66,"time":79.3815104166667,"velocity":0.8031496062992126,"duration":2.3020833333333286},{"name":"F#3","midi":54,"time":79.6119791666667,"velocity":0.8031496062992126,"duration":0.2278645833333286},{"name":"B2","midi":47,"time":79.8424479166667,"velocity":0.8031496062992126,"duration":0.2278645833333286},{"name":"C#5","midi":73,"time":79.8424479166667,"velocity":0.8031496062992126,"duration":0.2278645833333286},{"name":"F#3","midi":54,"time":80.0729166666667,"velocity":0.8031496062992126,"duration":0.2278645833333286},{"name":"D5","midi":74,"time":80.0729166666667,"velocity":0.8031496062992126,"duration":0.2278645833333286},{"name":"C#3","midi":49,"time":80.3033854166667,"velocity":0.8031496062992126,"duration":0.2278645833333286},{"name":"E5","midi":76,"time":80.3033854166667,"velocity":0.8031496062992126,"duration":0.4583333333333286},{"name":"F#3","midi":54,"time":80.5338541666667,"velocity":0.8031496062992126,"duration":0.2278645833333286},{"name":"A#2","midi":46,"time":80.7643229166667,"velocity":0.8031496062992126,"duration":0.2278645833333286},{"name":"D5","midi":74,"time":80.7643229166667,"velocity":0.8031496062992126,"duration":0.2278645833333286},{"name":"F#3","midi":54,"time":80.9947916666667,"velocity":0.8031496062992126,"duration":0.2278645833333286},{"name":"C#5","midi":73,"time":80.9947916666667,"velocity":0.8031496062992126,"duration":0.2278645833333286},{"name":"B2","midi":47,"time":81.2252604166667,"velocity":0.8031496062992126,"duration":0.2278645833333286},{"name":"D5","midi":74,"time":81.2252604166667,"velocity":0.8031496062992126,"duration":2.3020833333333286},{"name":"F#3","midi":54,"time":81.4557291666667,"velocity":0.8031496062992126,"duration":0.2278645833333286},{"name":"C#3","midi":49,"time":81.6861979166667,"velocity":0.8031496062992126,"duration":0.2278645833333286},{"name":"F#4","midi":66,"time":81.6861979166667,"velocity":0.8031496062992126,"duration":0.2278645833333286},{"name":"F#3","midi":54,"time":81.9166666666667,"velocity":0.8031496062992126,"duration":0.2278645833333286},{"name":"G#4","midi":68,"time":81.9166666666667,"velocity":0.8031496062992126,"duration":0.2278645833333286},{"name":"B2","midi":47,"time":82.1471354166667,"velocity":0.8031496062992126,"duration":0.2278645833333286},{"name":"A4","midi":69,"time":82.1471354166667,"velocity":0.8031496062992126,"duration":0.4583333333333286},{"name":"F#3","midi":54,"time":82.3776041666667,"velocity":0.8031496062992126,"duration":0.2278645833333286},{"name":"A2","midi":45,"time":82.6080729166667,"velocity":0.8031496062992126,"duration":0.2278645833333286},{"name":"G#4","midi":68,"time":82.6080729166667,"velocity":0.8031496062992126,"duration":0.2278645833333286},{"name":"F#3","midi":54,"time":82.8385416666667,"velocity":0.8031496062992126,"duration":0.2278645833333286},{"name":"F#4","midi":66,"time":82.8385416666667,"velocity":0.8031496062992126,"duration":0.2278645833333286},{"name":"G#2","midi":44,"time":83.0690104166667,"velocity":0.8031496062992126,"duration":0.2278645833333286},{"name":"E4","midi":64,"time":83.0690104166667,"velocity":0.8031496062992126,"duration":2.0651041666666714},{"name":"E3","midi":52,"time":83.2994791666667,"velocity":0.8031496062992126,"duration":0.2278645833333286},{"name":"E2","midi":40,"time":83.5299479166667,"velocity":0.8031496062992126,"duration":0.2278645833333286},{"name":"B4","midi":71,"time":83.5299479166667,"velocity":0.8031496062992126,"duration":0.2278645833333286},{"name":"E3","midi":52,"time":83.7604166666667,"velocity":0.8031496062992126,"duration":0.2278645833333286},{"name":"C#5","midi":73,"time":83.7604166666667,"velocity":0.8031496062992126,"duration":0.2278645833333286},{"name":"F#2","midi":42,"time":83.9908854166667,"velocity":0.8031496062992126,"duration":0.2278645833333286},{"name":"D5","midi":74,"time":83.9908854166667,"velocity":0.8031496062992126,"duration":0.4583333333333286},{"name":"E3","midi":52,"time":84.2213541666667,"velocity":0.8031496062992126,"duration":0.2278645833333286},{"name":"G#2","midi":44,"time":84.4518229166667,"velocity":0.8031496062992126,"duration":0.2278645833333286},{"name":"C#5","midi":73,"time":84.4518229166667,"velocity":0.8031496062992126,"duration":0.2278645833333286},{"name":"E3","midi":52,"time":84.6822916666667,"velocity":0.8031496062992126,"duration":0.2278645833333286},{"name":"B4","midi":71,"time":84.6822916666667,"velocity":0.8031496062992126,"duration":0.2278645833333286},{"name":"A2","midi":45,"time":84.9127604166667,"velocity":0.8031496062992126,"duration":0.4596354166666714},{"name":"C#5","midi":73,"time":84.9127604166667,"velocity":0.8031496062992126,"duration":0.2291666666666714},{"name":"A4","midi":69,"time":85.14453125000004,"velocity":0.8031496062992126,"duration":0.2278645833333286},{"name":"G#2","midi":44,"time":85.37500000000004,"velocity":0.8031496062992126,"duration":0.2278645833333286},{"name":"F#5","midi":78,"time":85.37500000000004,"velocity":0.8031496062992126,"duration":0.6888020833333286},{"name":"A2","midi":45,"time":85.60546875000004,"velocity":0.8031496062992126,"duration":0.2278645833333286},{"name":"A4","midi":69,"time":85.60546875000004,"velocity":0.8031496062992126,"duration":0.2278645833333286},{"name":"B2","midi":47,"time":85.83593750000004,"velocity":0.8031496062992126,"duration":0.4583333333333286},{"name":"G#4","midi":68,"time":85.83593750000004,"velocity":0.8031496062992126,"duration":0.6888020833333286},{"name":"D#5","midi":75,"time":86.06640625000004,"velocity":0.8031496062992126,"duration":0.2278645833333286},{"name":"A2","midi":45,"time":86.29687500000004,"velocity":0.8031496062992126,"duration":0.2278645833333286},{"name":"E5","midi":76,"time":86.29687500000004,"velocity":0.8031496062992126,"duration":0.6888020833333286},{"name":"G#2","midi":44,"time":86.52734375000004,"velocity":0.8031496062992126,"duration":0.2278645833333286},{"name":"G#4","midi":68,"time":86.52734375000004,"velocity":0.8031496062992126,"duration":0.2278645833333286},{"name":"A2","midi":45,"time":86.75781250000004,"velocity":0.8031496062992126,"duration":1.1497395833333286},{"name":"F#4","midi":66,"time":86.75781250000004,"velocity":0.8031496062992126,"duration":0.6888020833333286},{"name":"C#5","midi":73,"time":86.98828125000004,"velocity":0.8031496062992126,"duration":0.2278645833333286},{"name":"D5","midi":74,"time":87.21875000000004,"velocity":0.8031496062992126,"duration":0.6888020833333286},{"name":"F#4","midi":66,"time":87.44921875000004,"velocity":0.8031496062992126,"duration":0.2278645833333286},{"name":"E4","midi":64,"time":87.67968750000004,"velocity":0.8031496062992126,"duration":0.6888020833333286},{"name":"B2","midi":47,"time":87.91015625000004,"velocity":0.8031496062992126,"duration":0.2278645833333286},{"name":"B4","midi":71,"time":87.91015625000004,"velocity":0.8031496062992126,"duration":0.2278645833333286},{"name":"G#2","midi":44,"time":88.14062500000004,"velocity":0.8031496062992126,"duration":0.2278645833333286},{"name":"C#5","midi":73,"time":88.14062500000004,"velocity":0.8031496062992126,"duration":0.4583333333333286},{"name":"A2","midi":45,"time":88.37109375000004,"velocity":0.8031496062992126,"duration":0.2278645833333286},{"name":"E4","midi":64,"time":88.37109375000004,"velocity":0.8031496062992126,"duration":0.2278645833333286},{"name":"B2","midi":47,"time":88.60156250000004,"velocity":0.8031496062992126,"duration":0.2278645833333286},{"name":"D4","midi":62,"time":88.60156250000004,"velocity":0.8031496062992126,"duration":0.4583333333333286},{"name":"G#4","midi":68,"time":88.60156250000004,"velocity":0.8031496062992126,"duration":0.4583333333333286},{"name":"E2","midi":40,"time":88.83203125000004,"velocity":0.8031496062992126,"duration":0.2278645833333286},{"name":"C#3","midi":49,"time":89.06250000000004,"velocity":0.8031496062992126,"duration":0.2278645833333286},{"name":"C#4","midi":61,"time":89.06250000000004,"velocity":0.8031496062992126,"duration":0.4583333333333286},{"name":"A4","midi":69,"time":89.06250000000004,"velocity":0.8031496062992126,"duration":0.9192708333333286},{"name":"E2","midi":40,"time":89.29296875000004,"velocity":0.8031496062992126,"duration":0.2278645833333286},{"name":"D3","midi":50,"time":89.52343750000004,"velocity":0.8031496062992126,"duration":0.2278645833333286},{"name":"B3","midi":59,"time":89.52343750000004,"velocity":0.8031496062992126,"duration":0.9205729166666714},{"name":"E2","midi":40,"time":89.75390625000004,"velocity":0.8031496062992126,"duration":0.2278645833333286},{"name":"E3","midi":52,"time":89.98437500000004,"velocity":0.8031496062992126,"duration":0.4596354166666714},{"name":"G#4","midi":68,"time":89.98437500000004,"velocity":0.8031496062992126,"duration":0.4596354166666714},{"name":"C#3","midi":49,"time":90.44661458333339,"velocity":0.8031496062992126,"duration":0.4583333333333286},{"name":"E4","midi":64,"time":90.44661458333339,"velocity":0.8031496062992126,"duration":0.2278645833333286},{"name":"A4","midi":69,"time":90.44661458333339,"velocity":0.8031496062992126,"duration":0.4583333333333286},{"name":"C#4","midi":61,"time":90.67708333333339,"velocity":0.8031496062992126,"duration":0.2278645833333286},{"name":"F#3","midi":54,"time":90.90755208333339,"velocity":0.8031496062992126,"duration":0.9192708333333286},{"name":"D4","midi":62,"time":90.90755208333339,"velocity":0.8031496062992126,"duration":0.6888020833333286},{"name":"G#4","midi":68,"time":90.90755208333339,"velocity":0.8031496062992126,"duration":0.2278645833333286},{"name":"A4","midi":69,"time":91.13802083333339,"velocity":0.8031496062992126,"duration":0.2278645833333286},{"name":"B4","midi":71,"time":91.36848958333339,"velocity":0.8031496062992126,"duration":0.4583333333333286},{"name":"B3","midi":59,"time":91.59895833333339,"velocity":0.8031496062992126,"duration":0.2278645833333286},{"name":"F3","midi":53,"time":91.82942708333339,"velocity":0.8031496062992126,"duration":0.4583333333333286},{"name":"C#4","midi":61,"time":91.82942708333339,"velocity":0.8031496062992126,"duration":0.4583333333333286},{"name":"A4","midi":69,"time":91.82942708333339,"velocity":0.8031496062992126,"duration":0.2278645833333286},{"name":"G#4","midi":68,"time":92.05989583333339,"velocity":0.8031496062992126,"duration":0.2278645833333286},{"name":"F#3","midi":54,"time":92.29036458333339,"velocity":0.8031496062992126,"duration":1.3802083333333286},{"name":"C#4","midi":61,"time":92.29036458333339,"velocity":0.8031496062992126,"duration":0.2278645833333286},{"name":"A4","midi":69,"time":92.29036458333339,"velocity":0.8031496062992126,"duration":0.2278645833333286},{"name":"A3","midi":57,"time":92.52083333333339,"velocity":0.8031496062992126,"duration":0.2278645833333286},{"name":"G#4","midi":68,"time":92.52083333333339,"velocity":0.8031496062992126,"duration":0.2278645833333286},{"name":"B3","midi":59,"time":92.75130208333339,"velocity":0.8031496062992126,"duration":0.2278645833333286},{"name":"A4","midi":69,"time":92.75130208333339,"velocity":0.8031496062992126,"duration":0.6888020833333286},{"name":"G#3","midi":56,"time":92.98177083333339,"velocity":0.8031496062992126,"duration":0.2278645833333286},{"name":"A3","midi":57,"time":93.21223958333339,"velocity":0.8031496062992126,"duration":1.1497395833333286},{"name":"B4","midi":71,"time":93.44270833333339,"velocity":0.8031496062992126,"duration":0.2278645833333286},{"name":"E3","midi":52,"time":93.67317708333339,"velocity":0.8031496062992126,"duration":0.4583333333333286},{"name":"G#4","midi":68,"time":93.67317708333339,"velocity":0.8031496062992126,"duration":0.2278645833333286},{"name":"A4","midi":69,"time":93.90364583333339,"velocity":0.8031496062992126,"duration":0.2278645833333286},{"name":"D3","midi":50,"time":94.13411458333339,"velocity":0.8031496062992126,"duration":0.4583333333333286},{"name":"B4","midi":71,"time":94.13411458333339,"velocity":0.8031496062992126,"duration":0.2278645833333286},{"name":"G#3","midi":56,"time":94.36458333333339,"velocity":0.8031496062992126,"duration":0.2278645833333286},{"name":"E4","midi":64,"time":94.36458333333339,"velocity":0.8031496062992126,"duration":0.2278645833333286},{"name":"C#3","midi":49,"time":94.59505208333339,"velocity":0.8031496062992126,"duration":0.4583333333333286},{"name":"A3","midi":57,"time":94.59505208333339,"velocity":0.8031496062992126,"duration":0.9192708333333286},{"name":"C#5","midi":73,"time":94.59505208333339,"velocity":0.8031496062992126,"duration":0.2278645833333286},{"name":"E4","midi":64,"time":94.82552083333339,"velocity":0.8031496062992126,"duration":0.2278645833333286},{"name":"B2","midi":47,"time":95.05598958333339,"velocity":0.8031496062992126,"duration":0.4583333333333286},{"name":"D5","midi":74,"time":95.05598958333339,"velocity":0.8031496062992126,"duration":0.2278645833333286},{"name":"E4","midi":64,"time":95.28645833333339,"velocity":0.8031496062992126,"duration":0.2278645833333286},{"name":"E3","midi":52,"time":95.51692708333339,"velocity":0.8031496062992126,"duration":0.4596354166666714},{"name":"G#3","midi":56,"time":95.51692708333339,"velocity":0.8031496062992126,"duration":0.4596354166666714},{"name":"E5","midi":76,"time":95.51692708333339,"velocity":0.8031496062992126,"duration":0.4596354166666714},{"name":"A2","midi":45,"time":95.97916666666673,"velocity":0.8031496062992126,"duration":0.8880208333333286},{"name":"A3","midi":57,"time":95.97916666666673,"velocity":0.8031496062992126,"duration":0.4583333333333286},{"name":"C#5","midi":73,"time":95.97916666666673,"velocity":0.8031496062992126,"duration":0.2278645833333286},{"name":"B4","midi":71,"time":96.20963541666673,"velocity":0.8031496062992126,"duration":0.2278645833333286},{"name":"C#4","midi":61,"time":96.44010416666673,"velocity":0.8031496062992126,"duration":0.4583333333333286},{"name":"A4","midi":69,"time":96.44010416666673,"velocity":0.8031496062992126,"duration":0.2278645833333286},{"name":"B4","midi":71,"time":96.67057291666673,"velocity":0.8031496062992126,"duration":0.2278645833333286},{"name":"F#4","midi":66,"time":96.90104166666673,"velocity":0.8031496062992126,"duration":1.3802083333333286},{"name":"C#5","midi":73,"time":96.90104166666673,"velocity":0.8031496062992126,"duration":0.2278645833333286},{"name":"D5","midi":74,"time":97.13151041666673,"velocity":0.8031496062992126,"duration":0.2278645833333286},{"name":"A3","midi":57,"time":97.36197916666673,"velocity":0.8031496062992126,"duration":0.4583333333333286},{"name":"E5","midi":76,"time":97.36197916666673,"velocity":0.8031496062992126,"duration":0.2278645833333286},{"name":"F#5","midi":78,"time":97.59244791666673,"velocity":0.8031496062992126,"duration":0.2278645833333286},{"name":"G#3","midi":56,"time":97.82291666666673,"velocity":0.8031496062992126,"duration":1.0078125},{"name":"B4","midi":71,"time":97.82291666666673,"velocity":0.8031496062992126,"duration":0.2278645833333286},{"name":"A4","midi":69,"time":98.05338541666673,"velocity":0.8031496062992126,"duration":0.2278645833333286},{"name":"B3","midi":59,"time":98.28385416666673,"velocity":0.8031496062992126,"duration":0.4583333333333286},{"name":"G#4","midi":68,"time":98.28385416666673,"velocity":0.8031496062992126,"duration":0.2278645833333286},{"name":"A4","midi":69,"time":98.51432291666673,"velocity":0.8031496062992126,"duration":0.2278645833333286},{"name":"E4","midi":64,"time":98.74479166666673,"velocity":0.8031496062992126,"duration":1.3802083333333286},{"name":"B4","midi":71,"time":98.74479166666673,"velocity":0.8031496062992126,"duration":0.2278645833333286},{"name":"C#5","midi":73,"time":98.97526041666673,"velocity":0.8031496062992126,"duration":0.2278645833333286},{"name":"G#3","midi":56,"time":99.20572916666673,"velocity":0.8031496062992126,"duration":0.4583333333333286},{"name":"D5","midi":74,"time":99.20572916666673,"velocity":0.8031496062992126,"duration":0.2278645833333286},{"name":"E5","midi":76,"time":99.43619791666673,"velocity":0.8031496062992126,"duration":0.2278645833333286},{"name":"F#3","midi":54,"time":99.66666666666673,"velocity":0.8031496062992126,"duration":1.0078125},{"name":"A4","midi":69,"time":99.66666666666673,"velocity":0.8031496062992126,"duration":0.2278645833333286},{"name":"G#4","midi":68,"time":99.89713541666673,"velocity":0.8031496062992126,"duration":0.2278645833333286},{"name":"A3","midi":57,"time":100.12760416666673,"velocity":0.8031496062992126,"duration":0.4583333333333286},{"name":"F#4","midi":66,"time":100.12760416666673,"velocity":0.8031496062992126,"duration":0.2278645833333286},{"name":"G#4","midi":68,"time":100.35807291666673,"velocity":0.8031496062992126,"duration":0.2278645833333286},{"name":"D4","midi":62,"time":100.58854166666673,"velocity":0.8031496062992126,"duration":1.3802083333333286},{"name":"A4","midi":69,"time":100.58854166666673,"velocity":0.8031496062992126,"duration":0.2278645833333286},{"name":"B4","midi":71,"time":100.81901041666673,"velocity":0.8031496062992126,"duration":0.2278645833333286},{"name":"F#3","midi":54,"time":101.04947916666673,"velocity":0.8031496062992126,"duration":0.4583333333333286},{"name":"C#5","midi":73,"time":101.04947916666673,"velocity":0.8031496062992126,"duration":0.2278645833333286},{"name":"D5","midi":74,"time":101.27994791666673,"velocity":0.8031496062992126,"duration":0.2278645833333286},{"name":"E3","midi":52,"time":101.51041666666673,"velocity":0.8031496062992126,"duration":1.8424479166666714},{"name":"G#4","midi":68,"time":101.51041666666673,"velocity":0.8031496062992126,"duration":0.2278645833333286},{"name":"B4","midi":71,"time":101.74088541666673,"velocity":0.8031496062992126,"duration":0.2278645833333286},{"name":"B3","midi":59,"time":101.97135416666673,"velocity":0.8031496062992126,"duration":0.2278645833333286},{"name":"G#4","midi":68,"time":101.97135416666673,"velocity":0.8031496062992126,"duration":0.2278645833333286},{"name":"C#4","midi":61,"time":102.20182291666673,"velocity":0.8031496062992126,"duration":0.2278645833333286},{"name":"E4","midi":64,"time":102.20182291666673,"velocity":0.8031496062992126,"duration":0.2278645833333286},{"name":"D4","midi":62,"time":102.43229166666673,"velocity":0.8031496062992126,"duration":0.4596354166666714},{"name":"E5","midi":76,"time":102.43229166666673,"velocity":0.8031496062992126,"duration":1.1510416666666714},{"name":"C#4","midi":61,"time":102.89453125000007,"velocity":0.8031496062992126,"duration":0.2278645833333286},{"name":"B3","midi":59,"time":103.12500000000007,"velocity":0.8031496062992126,"duration":0.2278645833333286},{"name":"E3","midi":52,"time":103.35546875000007,"velocity":0.8031496062992126,"duration":1.8424479166666714},{"name":"C#4","midi":61,"time":103.35546875000007,"velocity":0.8031496062992126,"duration":0.4583333333333286},{"name":"E5","midi":76,"time":103.58593750000007,"velocity":0.8031496062992126,"duration":0.2278645833333286},{"name":"A3","midi":57,"time":103.81640625000007,"velocity":0.8031496062992126,"duration":0.2278645833333286},{"name":"C#5","midi":73,"time":103.81640625000007,"velocity":0.8031496062992126,"duration":0.2278645833333286},{"name":"B3","midi":59,"time":104.04687500000007,"velocity":0.8031496062992126,"duration":0.2278645833333286},{"name":"A4","midi":69,"time":104.04687500000007,"velocity":0.8031496062992126,"duration":0.2278645833333286},{"name":"C#4","midi":61,"time":104.27734375000007,"velocity":0.8031496062992126,"duration":0.4596354166666714},{"name":"A5","midi":81,"time":104.27734375000007,"velocity":0.8031496062992126,"duration":1.1510416666666714},{"name":"B3","midi":59,"time":104.73958333333341,"velocity":0.8031496062992126,"duration":0.2278645833333286},{"name":"A3","midi":57,"time":104.97005208333341,"velocity":0.8031496062992126,"duration":0.2278645833333286},{"name":"E3","midi":52,"time":105.20052083333341,"velocity":0.8031496062992126,"duration":1.8424479166666714},{"name":"B3","midi":59,"time":105.20052083333341,"velocity":0.8031496062992126,"duration":0.4583333333333286},{"name":"B4","midi":71,"time":105.43098958333341,"velocity":0.8031496062992126,"duration":0.2278645833333286},{"name":"G#3","midi":56,"time":105.66145833333341,"velocity":0.8031496062992126,"duration":0.2278645833333286},{"name":"D5","midi":74,"time":105.66145833333341,"velocity":0.8031496062992126,"duration":0.2278645833333286},{"name":"A3","midi":57,"time":105.89192708333341,"velocity":0.8031496062992126,"duration":0.2278645833333286},{"name":"F#5","midi":78,"time":105.89192708333341,"velocity":0.8031496062992126,"duration":0.2278645833333286},{"name":"B3","midi":59,"time":106.12239583333341,"velocity":0.8031496062992126,"duration":0.4596354166666714},{"name":"G#5","midi":80,"time":106.12239583333341,"velocity":0.8031496062992126,"duration":1.1510416666666714},{"name":"A3","midi":57,"time":106.58463541666676,"velocity":0.8031496062992126,"duration":0.2278645833333286},{"name":"G#3","midi":56,"time":106.81510416666676,"velocity":0.8031496062992126,"duration":0.2278645833333286},{"name":"E3","midi":52,"time":107.04557291666676,"velocity":0.8031496062992126,"duration":2.0807291666666714},{"name":"A3","midi":57,"time":107.04557291666676,"velocity":0.8031496062992126,"duration":0.4583333333333286},{"name":"A4","midi":69,"time":107.27604166666676,"velocity":0.8031496062992126,"duration":0.2278645833333286},{"name":"F#3","midi":54,"time":107.50651041666676,"velocity":0.8031496062992126,"duration":0.2278645833333286},{"name":"C#5","midi":73,"time":107.50651041666676,"velocity":0.8031496062992126,"duration":0.2278645833333286},{"name":"G#3","midi":56,"time":107.73697916666676,"velocity":0.8031496062992126,"duration":0.2278645833333286},{"name":"E5","midi":76,"time":107.73697916666676,"velocity":0.8031496062992126,"duration":0.2278645833333286},{"name":"A3","midi":57,"time":107.96744791666676,"velocity":0.8031496062992126,"duration":0.4596354166666714},{"name":"F#5","midi":78,"time":107.96744791666676,"velocity":0.8031496062992126,"duration":1.1588541666666714},{"name":"G#3","midi":56,"time":108.4296875000001,"velocity":0.8031496062992126,"duration":0.2278645833333286},{"name":"F#3","midi":54,"time":108.6601562500001,"velocity":0.8031496062992126,"duration":0.2278645833333286},{"name":"G#3","midi":56,"time":108.8906250000001,"velocity":0.8031496062992126,"duration":0.4713541666666714},{"name":"E3","midi":52,"time":109.1289062500001,"velocity":0.8031496062992126,"duration":0.2356770833333428},{"name":"E5","midi":76,"time":109.1289062500001,"velocity":0.8031496062992126,"duration":0.2356770833333428},{"name":"G#3","midi":56,"time":109.36718750000011,"velocity":0.8031496062992126,"duration":0.2356770833333286},{"name":"D#5","midi":75,"time":109.36718750000011,"velocity":0.8031496062992126,"duration":0.2356770833333286},{"name":"B3","midi":59,"time":109.60546875000011,"velocity":0.8031496062992126,"duration":0.2356770833333286},{"name":"E5","midi":76,"time":109.60546875000011,"velocity":0.8031496062992126,"duration":0.2356770833333286},{"name":"C4","midi":60,"time":109.84375000000011,"velocity":0.8031496062992126,"duration":0.2513020833333286},{"name":"A4","midi":69,"time":109.84375000000011,"velocity":0.8031496062992126,"duration":0.7408854166666714},{"name":"F#5","midi":78,"time":109.84375000000011,"velocity":0.8031496062992126,"duration":0.7408854166666714},{"name":"G#3","midi":56,"time":110.09765625000011,"velocity":0.8031496062992126,"duration":0.2513020833333286},{"name":"A3","midi":57,"time":110.35156250000011,"velocity":0.8031496062992126,"duration":0.2513020833333428},{"name":"D#3","midi":51,"time":110.61328125000013,"velocity":0.8031496062992126,"duration":0.3072916666666714},{"name":"E3","midi":52,"time":110.94270833333347,"velocity":0.8031496062992126,"duration":1.0625000000000142},{"name":"A4","midi":69,"time":110.94270833333347,"velocity":0.8031496062992126,"duration":0.8971354166666714},{"name":"C#5","midi":73,"time":110.94270833333347,"velocity":0.8031496062992126,"duration":0.8971354166666714},{"name":"B4","midi":71,"time":111.84244791666681,"velocity":0.8031496062992126,"duration":0.296875},{"name":"D5","midi":74,"time":111.84244791666681,"velocity":0.8031496062992126,"duration":0.296875},{"name":"E2","midi":40,"time":112.14192708333348,"velocity":0.8031496062992126,"duration":1.0625000000000142},{"name":"G#4","midi":68,"time":112.14192708333348,"velocity":0.8031496062992126,"duration":1.0625000000000142},{"name":"B4","midi":71,"time":112.14192708333348,"velocity":0.8031496062992126,"duration":0.8971354166666714},{"name":"A4","midi":69,"time":113.04166666666683,"velocity":0.8031496062992126,"duration":0.296875},{"name":"A2","midi":45,"time":113.3411458333335,"velocity":0.8031496062992126,"duration":2.3932291666666714},{"name":"A4","midi":69,"time":113.3411458333335,"velocity":0.8031496062992126,"duration":2.3932291666666714}],"controlChanges":{"7":[{"number":7,"time":0,"value":0.7874015748031497}]},"id":1,"name":"Piano 1","instrumentNumber":6,"instrument":"harpsichord","instrumentFamily":"piano","channelNumber":0,"isPercussion":false}]}