{"header":{"PPQ":384,"timeSignature":[4,4],"bpm":120,"name":"--------"},"startTime":0,"duration":161.3619791666665,"tracks":[{"startTime":0,"duration":0,"length":0,"notes":[],"controlChanges":{},"id":0,"name":"--------"},{"startTime":0.0625,"duration":161.3619791666665,"length":660,"notes":[{"name":"F2","midi":41,"time":0.0625,"velocity":0.8031496062992126,"duration":1.1510416666666665},{"name":"F4","midi":65,"time":0.6393229166666666,"velocity":0.8031496062992126,"duration":0.5742187499999999},{"name":"F3","midi":53,"time":1.2161458333333333,"velocity":0.8031496062992126,"duration":1.1510416666666667},{"name":"G#4","midi":68,"time":1.2161458333333333,"velocity":0.8031496062992126,"duration":0.57421875},{"name":"G4","midi":67,"time":1.79296875,"velocity":0.8031496062992126,"duration":0.841145833333333},{"name":"E3","midi":52,"time":2.3697916666666665,"velocity":0.8031496062992126,"duration":1.1510416666666665},{"name":"G4","midi":67,"time":2.946614583333333,"velocity":0.8031496062992126,"duration":0.57421875},{"name":"D#3","midi":51,"time":3.5234374999999996,"velocity":0.8031496062992126,"duration":1.1510416666666674},{"name":"A#4","midi":70,"time":3.5234374999999996,"velocity":0.8031496062992126,"duration":0.5742187500000004},{"name":"A4","midi":69,"time":4.100260416666667,"velocity":0.8031496062992126,"duration":0.8411458333333339},{"name":"D3","midi":50,"time":4.677083333333334,"velocity":0.8031496062992126,"duration":1.151041666666667},{"name":"A#4","midi":70,"time":5.253906250000001,"velocity":0.8031496062992126,"duration":0.57421875},{"name":"C#3","midi":49,"time":5.830729166666668,"velocity":0.8031496062992126,"duration":1.151041666666667},{"name":"E5","midi":76,"time":5.830729166666668,"velocity":0.8031496062992126,"duration":0.57421875},{"name":"F5","midi":77,"time":6.407552083333335,"velocity":0.8031496062992126,"duration":1.151041666666667},{"name":"C3","midi":48,"time":6.984375000000002,"velocity":0.8031496062992126,"duration":0.57421875},{"name":"A#2","midi":46,"time":7.561197916666669,"velocity":0.8031496062992126,"duration":0.572916666666667},{"name":"D#5","midi":75,"time":7.561197916666669,"velocity":0.8031496062992126,"duration":0.28515625},{"name":"C#5","midi":73,"time":7.848958333333336,"velocity":0.8031496062992126,"duration":0.28515625},{"name":"C3","midi":48,"time":8.136718750000002,"velocity":0.8031496062992126,"duration":0.57421875},{"name":"C5","midi":72,"time":8.136718750000002,"velocity":0.8031496062992126,"duration":0.57421875},{"name":"C2","midi":36,"time":8.713541666666668,"velocity":0.8031496062992126,"duration":0.57421875},{"name":"A#4","midi":70,"time":8.713541666666668,"velocity":0.8031496062992126,"duration":0.57421875},{"name":"F2","midi":41,"time":9.290364583333334,"velocity":0.8031496062992126,"duration":1.4427083333333321},{"name":"G#4","midi":68,"time":9.290364583333334,"velocity":0.8031496062992126,"duration":1.151041666666666},{"name":"C5","midi":72,"time":9.8671875,"velocity":0.8031496062992126,"duration":0.57421875},{"name":"C5","midi":72,"time":10.444010416666666,"velocity":0.8031496062992126,"duration":1.1484374999999982},{"name":"D#5","midi":75,"time":10.444010416666666,"velocity":0.8031496062992126,"duration":0.57421875},{"name":"F3","midi":53,"time":11.020833333333332,"velocity":0.8031496062992126,"duration":0.28515625},{"name":"D5","midi":74,"time":11.020833333333332,"velocity":0.8031496062992126,"duration":0.8385416666666643},{"name":"G3","midi":55,"time":11.308593749999998,"velocity":0.8031496062992126,"duration":0.140625},{"name":"G#3","midi":56,"time":11.451822916666664,"velocity":0.8031496062992126,"duration":0.140625},{"name":"G#3","midi":56,"time":11.59505208333333,"velocity":0.8031496062992126,"duration":0.28515625},{"name":"B4","midi":71,"time":11.59505208333333,"velocity":0.8031496062992126,"duration":1.1497395833333321},{"name":"F#3","midi":54,"time":11.882812499999996,"velocity":0.8031496062992126,"duration":0.28515625},{"name":"G3","midi":55,"time":12.170572916666663,"velocity":0.8031496062992126,"duration":0.8411458333333321},{"name":"D5","midi":74,"time":12.170572916666663,"velocity":0.8031496062992126,"duration":0.57421875},{"name":"A#4","midi":70,"time":12.747395833333329,"velocity":0.8031496062992126,"duration":1.1497395833333321},{"name":"F5","midi":77,"time":12.747395833333329,"velocity":0.8031496062992126,"duration":0.57421875},{"name":"G4","midi":67,"time":13.324218749999995,"velocity":0.8031496062992126,"duration":0.28515625},{"name":"E5","midi":76,"time":13.324218749999995,"velocity":0.8031496062992126,"duration":0.8398437499999982},{"name":"E4","midi":64,"time":13.61197916666666,"velocity":0.8031496062992126,"duration":0.28515625},{"name":"C#4","midi":61,"time":13.899739583333327,"velocity":0.8031496062992126,"duration":0.28515625},{"name":"A4","midi":69,"time":13.899739583333327,"velocity":0.8031496062992126,"duration":1.1497395833333321},{"name":"B3","midi":59,"time":14.187499999999993,"velocity":0.8031496062992126,"duration":0.28515625},{"name":"C4","midi":60,"time":14.475260416666659,"velocity":0.8031496062992126,"duration":0.8411458333333321},{"name":"F5","midi":77,"time":14.475260416666659,"velocity":0.8031496062992126,"duration":0.57421875},{"name":"G#4","midi":68,"time":15.052083333333325,"velocity":0.8031496062992126,"duration":1.1484375},{"name":"B5","midi":83,"time":15.052083333333325,"velocity":0.8031496062992126,"duration":0.57421875},{"name":"D4","midi":62,"time":15.628906249999991,"velocity":0.8031496062992126,"duration":0.28515625},{"name":"C6","midi":84,"time":15.628906249999991,"velocity":0.8031496062992126,"duration":1.1484375000000018},{"name":"D#4","midi":63,"time":15.916666666666657,"velocity":0.8031496062992126,"duration":0.140625},{"name":"F4","midi":65,"time":16.059895833333325,"velocity":0.8031496062992126,"duration":0.140625},{"name":"D#4","midi":63,"time":16.203124999999993,"velocity":0.8031496062992126,"duration":0.57421875},{"name":"G4","midi":67,"time":16.203124999999993,"velocity":0.8031496062992126,"duration":0.57421875},{"name":"F4","midi":65,"time":16.77994791666666,"velocity":0.8031496062992126,"duration":0.5729166666666679},{"name":"C5","midi":72,"time":16.77994791666666,"velocity":0.8031496062992126,"duration":1.1497395833333357},{"name":"A#5","midi":82,"time":16.77994791666666,"velocity":0.8031496062992126,"duration":0.28515625},{"name":"G#5","midi":80,"time":17.06770833333333,"velocity":0.8031496062992126,"duration":0.28515625},{"name":"G4","midi":67,"time":17.355468749999996,"velocity":0.8031496062992126,"duration":0.57421875},{"name":"G5","midi":79,"time":17.355468749999996,"velocity":0.8031496062992126,"duration":0.57421875},{"name":"G3","midi":55,"time":17.932291666666664,"velocity":0.8031496062992126,"duration":0.57421875},{"name":"B4","midi":71,"time":17.932291666666664,"velocity":0.8031496062992126,"duration":0.57421875},{"name":"F5","midi":77,"time":17.932291666666664,"velocity":0.8031496062992126,"duration":0.57421875},{"name":"C4","midi":60,"time":18.509114583333332,"velocity":0.8031496062992126,"duration":1.4427083333333357},{"name":"C5","midi":72,"time":18.509114583333332,"velocity":0.8031496062992126,"duration":1.1419270833333357},{"name":"D#5","midi":75,"time":18.509114583333332,"velocity":0.8031496062992126,"duration":0.57421875},{"name":"G5","midi":79,"time":19.0859375,"velocity":0.8031496062992126,"duration":0.57421875},{"name":"G#5","midi":80,"time":19.662760416666668,"velocity":0.8031496062992126,"duration":0.57421875},{"name":"C5","midi":72,"time":20.239583333333336,"velocity":0.8031496062992126,"duration":0.57421875},{"name":"G5","midi":79,"time":20.239583333333336,"velocity":0.8031496062992126,"duration":0.57421875},{"name":"C#5","midi":73,"time":20.816406250000004,"velocity":0.8031496062992126,"duration":0.57421875},{"name":"F5","midi":77,"time":20.816406250000004,"velocity":0.8031496062992126,"duration":1.4388020833333357},{"name":"C5","midi":72,"time":21.39322916666667,"velocity":0.8031496062992126,"duration":0.57421875},{"name":"A#4","midi":70,"time":21.97005208333334,"velocity":0.8031496062992126,"duration":1.3671875000000036},{"name":"F#5","midi":78,"time":22.257812500000007,"velocity":0.8031496062992126,"duration":0.28515625},{"name":"E5","midi":76,"time":22.545572916666675,"velocity":0.8031496062992126,"duration":0.28515625},{"name":"F5","midi":77,"time":22.833333333333343,"velocity":0.8031496062992126,"duration":0.28515625},{"name":"E5","midi":76,"time":23.12109375000001,"velocity":0.8031496062992126,"duration":1.1393229166666679},{"name":"C5","midi":72,"time":23.408854166666675,"velocity":0.8031496062992126,"duration":0.28515625},{"name":"A4","midi":69,"time":23.696614583333343,"velocity":0.8031496062992126,"duration":0.28515625},{"name":"A#4","midi":70,"time":23.98437500000001,"velocity":0.8031496062992126,"duration":0.28515625},{"name":"A4","midi":69,"time":24.27213541666668,"velocity":0.8031496062992126,"duration":1.1497395833333357},{"name":"C6","midi":84,"time":24.56119791666668,"velocity":0.8031496062992126,"duration":0.28515625},{"name":"F5","midi":77,"time":24.848958333333346,"velocity":0.8031496062992126,"duration":0.28515625},{"name":"D#5","midi":75,"time":25.136718750000014,"velocity":0.8031496062992126,"duration":0.28515625},{"name":"A#4","midi":70,"time":25.424479166666682,"velocity":0.8031496062992126,"duration":0.28515625},{"name":"C#5","midi":73,"time":25.424479166666682,"velocity":0.8031496062992126,"duration":1.4361979166666714},{"name":"F#4","midi":66,"time":25.71223958333335,"velocity":0.8031496062992126,"duration":0.28515625},{"name":"E4","midi":64,"time":26.000000000000018,"velocity":0.8031496062992126,"duration":0.28515625},{"name":"F4","midi":65,"time":26.287760416666686,"velocity":0.8031496062992126,"duration":0.28515625},{"name":"E4","midi":64,"time":26.575520833333353,"velocity":0.8031496062992126,"duration":1.1093750000000036},{"name":"G5","midi":79,"time":26.86328125000002,"velocity":0.8031496062992126,"duration":0.28515625},{"name":"C5","midi":72,"time":27.15104166666669,"velocity":0.8031496062992126,"duration":0.28515625},{"name":"A#4","midi":70,"time":27.438802083333357,"velocity":0.8031496062992126,"duration":0.28515625},{"name":"F4","midi":65,"time":27.726562500000025,"velocity":0.8031496062992126,"duration":1.1419270833333357},{"name":"G#4","midi":68,"time":27.726562500000025,"velocity":0.8031496062992126,"duration":1.1510416666666679},{"name":"F3","midi":53,"time":28.303385416666693,"velocity":0.8031496062992126,"duration":0.57421875},{"name":"G#3","midi":56,"time":28.88020833333336,"velocity":0.8031496062992126,"duration":0.57421875},{"name":"F5","midi":77,"time":28.88020833333336,"velocity":0.8031496062992126,"duration":1.1484375000000036},{"name":"G3","midi":55,"time":29.45703125000003,"velocity":0.8031496062992126,"duration":0.8385416666666714},{"name":"A#4","midi":70,"time":29.45703125000003,"velocity":0.8031496062992126,"duration":0.28515625},{"name":"C5","midi":72,"time":29.744791666666696,"velocity":0.8031496062992126,"duration":0.140625},{"name":"C#5","midi":73,"time":29.888020833333364,"velocity":0.8031496062992126,"duration":0.140625},{"name":"C#5","midi":73,"time":30.031250000000032,"velocity":0.8031496062992126,"duration":0.28515625},{"name":"E5","midi":76,"time":30.031250000000032,"velocity":0.8031496062992126,"duration":1.1497395833333357},{"name":"B4","midi":71,"time":30.3190104166667,"velocity":0.8031496062992126,"duration":0.28515625},{"name":"G3","midi":55,"time":30.606770833333368,"velocity":0.8031496062992126,"duration":0.57421875},{"name":"C5","midi":72,"time":30.606770833333368,"velocity":0.8031496062992126,"duration":0.8411458333333357},{"name":"A#3","midi":58,"time":31.183593750000036,"velocity":0.8031496062992126,"duration":0.57421875},{"name":"D#5","midi":75,"time":31.183593750000036,"velocity":0.8031496062992126,"duration":1.1497395833333286},{"name":"A3","midi":57,"time":31.760416666666703,"velocity":0.8031496062992126,"duration":0.8398437499999893},{"name":"C5","midi":72,"time":31.760416666666703,"velocity":0.8031496062992126,"duration":0.28515624999999645},{"name":"A4","midi":69,"time":32.048177083333364,"velocity":0.8031496062992126,"duration":0.28515625},{"name":"F#4","midi":66,"time":32.33593750000003,"velocity":0.8031496062992126,"duration":0.28515625},{"name":"D5","midi":74,"time":32.33593750000003,"velocity":0.8031496062992126,"duration":1.148437499999993},{"name":"E4","midi":64,"time":32.62369791666669,"velocity":0.8031496062992126,"duration":0.28515625},{"name":"A#3","midi":58,"time":32.91145833333336,"velocity":0.8031496062992126,"duration":0.5729166666666643},{"name":"F4","midi":65,"time":32.91145833333336,"velocity":0.8031496062992126,"duration":0.5703125},{"name":"E4","midi":64,"time":33.486979166666686,"velocity":0.8031496062992126,"duration":0.57421875},{"name":"C#5","midi":73,"time":33.486979166666686,"velocity":0.8031496062992126,"duration":1.148437499999993},{"name":"F4","midi":65,"time":34.06380208333335,"velocity":0.8031496062992126,"duration":1.148437499999993},{"name":"G4","midi":67,"time":34.06380208333335,"velocity":0.8031496062992126,"duration":0.28515625},{"name":"G#4","midi":68,"time":34.351562500000014,"velocity":0.8031496062992126,"duration":0.140625},{"name":"A#4","midi":70,"time":34.49479166666668,"velocity":0.8031496062992126,"duration":0.140625},{"name":"G#4","midi":68,"time":34.63802083333334,"velocity":0.8031496062992126,"duration":0.8619791666666643},{"name":"C5","midi":72,"time":34.63802083333334,"velocity":0.8031496062992126,"duration":0.57421875},{"name":"D#4","midi":63,"time":35.21484375000001,"velocity":0.8031496062992126,"duration":0.28515625},{"name":"F5","midi":77,"time":35.21484375000001,"velocity":0.8031496062992126,"duration":1.1497395833333286},{"name":"C#4","midi":61,"time":35.50260416666667,"velocity":0.8031496062992126,"duration":0.28515625},{"name":"A#4","midi":70,"time":35.50260416666667,"velocity":0.8031496062992126,"duration":0.28515625},{"name":"C4","midi":60,"time":35.790364583333336,"velocity":0.8031496062992126,"duration":0.57421875},{"name":"G#4","midi":68,"time":35.790364583333336,"velocity":0.8031496062992126,"duration":0.57421875},{"name":"A#3","midi":58,"time":36.3671875,"velocity":0.8031496062992126,"duration":0.57421875},{"name":"G4","midi":67,"time":36.3671875,"velocity":0.8031496062992126,"duration":0.57421875},{"name":"E5","midi":76,"time":36.3671875,"velocity":0.8031496062992126,"duration":0.57421875},{"name":"G#3","midi":56,"time":36.944010416666664,"velocity":0.8031496062992126,"duration":1.1510416666666643},{"name":"F4","midi":65,"time":36.944010416666664,"velocity":0.8031496062992126,"duration":0.57421875},{"name":"F5","midi":77,"time":36.944010416666664,"velocity":0.8031496062992126,"duration":0.57421875},{"name":"C4","midi":60,"time":37.52083333333333,"velocity":0.8031496062992126,"duration":0.57421875},{"name":"D#5","midi":75,"time":37.52083333333333,"velocity":0.8031496062992126,"duration":1.1510416666666643},{"name":"A3","midi":57,"time":38.09765624999999,"velocity":0.8031496062992126,"duration":1.1497395833333286},{"name":"F#4","midi":66,"time":38.09765624999999,"velocity":0.8031496062992126,"duration":0.57421875},{"name":"F4","midi":65,"time":38.67447916666666,"velocity":0.8031496062992126,"duration":0.8398437499999929},{"name":"C#5","midi":73,"time":38.67447916666666,"velocity":0.8031496062992126,"duration":0.28515625},{"name":"C5","midi":72,"time":38.96223958333332,"velocity":0.8031496062992126,"duration":0.28515625},{"name":"A#3","midi":58,"time":39.249999999999986,"velocity":0.8031496062992126,"duration":0.57421875},{"name":"C#5","midi":73,"time":39.249999999999986,"velocity":0.8031496062992126,"duration":1.1510416666666643},{"name":"G#3","midi":56,"time":39.82682291666665,"velocity":0.8031496062992126,"duration":1.1510416666666643},{"name":"F4","midi":65,"time":39.82682291666665,"velocity":0.8031496062992126,"duration":0.57421875},{"name":"B4","midi":71,"time":40.403645833333314,"velocity":0.8031496062992126,"duration":0.57421875},{"name":"D5","midi":74,"time":40.403645833333314,"velocity":0.8031496062992126,"duration":1.1497395833333286},{"name":"G3","midi":55,"time":40.98046874999998,"velocity":0.8031496062992126,"duration":0.28515625},{"name":"A#4","midi":70,"time":40.98046874999998,"velocity":0.8031496062992126,"duration":1.1497395833333286},{"name":"F3","midi":53,"time":41.26822916666664,"velocity":0.8031496062992126,"duration":0.28515625},{"name":"G3","midi":55,"time":41.55598958333331,"velocity":0.8031496062992126,"duration":0.57421875},{"name":"D#5","midi":75,"time":41.55598958333331,"velocity":0.8031496062992126,"duration":0.57421875},{"name":"C4","midi":60,"time":42.13281249999997,"velocity":0.8031496062992126,"duration":0.57421875},{"name":"G#4","midi":68,"time":42.13281249999997,"velocity":0.8031496062992126,"duration":1.1510416666666643},{"name":"D#5","midi":75,"time":42.13281249999997,"velocity":0.8031496062992126,"duration":0.57421875},{"name":"D4","midi":62,"time":42.709635416666636,"velocity":0.8031496062992126,"duration":1.1497395833333286},{"name":"B5","midi":83,"time":42.709635416666636,"velocity":0.8031496062992126,"duration":0.57421875},{"name":"F#4","midi":66,"time":43.2864583333333,"velocity":0.8031496062992126,"duration":0.28515625},{"name":"A#5","midi":82,"time":43.2864583333333,"velocity":0.8031496062992126,"duration":0.8398437499999929},{"name":"F4","midi":65,"time":43.574218749999964,"velocity":0.8031496062992126,"duration":0.28515625},{"name":"D#4","midi":63,"time":43.86197916666663,"velocity":0.8031496062992126,"duration":0.57421875},{"name":"F#4","midi":66,"time":43.86197916666663,"velocity":0.8031496062992126,"duration":1.1510416666666643},{"name":"C#4","midi":61,"time":44.43880208333329,"velocity":0.8031496062992126,"duration":1.1510416666666643},{"name":"A#4","midi":70,"time":44.43880208333329,"velocity":0.8031496062992126,"duration":0.57421875},{"name":"G4","midi":67,"time":45.01562499999996,"velocity":0.8031496062992126,"duration":1.1497395833333286},{"name":"E5","midi":76,"time":45.01562499999996,"velocity":0.8031496062992126,"duration":0.57421875},{"name":"C4","midi":60,"time":45.59244791666662,"velocity":0.8031496062992126,"duration":0.28515625},{"name":"D#5","midi":75,"time":45.59244791666662,"velocity":0.8031496062992126,"duration":0.8606770833333286},{"name":"A#3","midi":58,"time":45.880208333333286,"velocity":0.8031496062992126,"duration":0.28515625},{"name":"C4","midi":60,"time":46.16796874999995,"velocity":0.8031496062992126,"duration":1.148437499999993},{"name":"G#4","midi":68,"time":46.16796874999995,"velocity":0.8031496062992126,"duration":0.8398437499999929},{"name":"A#4","midi":70,"time":46.455729166666615,"velocity":0.8031496062992126,"duration":0.28515625},{"name":"C5","midi":72,"time":46.74348958333328,"velocity":0.8031496062992126,"duration":0.28515625},{"name":"G#4","midi":68,"time":47.03124999999994,"velocity":0.8031496062992126,"duration":0.28515625},{"name":"G#3","midi":56,"time":47.31901041666661,"velocity":0.8031496062992126,"duration":1.148437499999993},{"name":"C4","midi":60,"time":47.31901041666661,"velocity":0.8031496062992126,"duration":0.57421875},{"name":"F4","midi":65,"time":47.31901041666661,"velocity":0.8031496062992126,"duration":0.57421875},{"name":"A#3","midi":58,"time":47.89583333333327,"velocity":0.8031496062992126,"duration":0.8385416666666572},{"name":"D5","midi":74,"time":47.89583333333327,"velocity":0.8031496062992126,"duration":0.28515625},{"name":"D#5","midi":75,"time":48.183593749999936,"velocity":0.8031496062992126,"duration":0.140625},{"name":"F5","midi":77,"time":48.3268229166666,"velocity":0.8031496062992126,"duration":0.140625},{"name":"G3","midi":55,"time":48.470052083333265,"velocity":0.8031496062992126,"duration":1.1497395833333286},{"name":"F5","midi":77,"time":48.470052083333265,"velocity":0.8031496062992126,"duration":0.28515625},{"name":"D5","midi":74,"time":48.75781249999993,"velocity":0.8031496062992126,"duration":0.28515625},{"name":"G4","midi":67,"time":49.04557291666659,"velocity":0.8031496062992126,"duration":0.57421875},{"name":"D#5","midi":75,"time":49.04557291666659,"velocity":0.8031496062992126,"duration":0.8411458333333286},{"name":"F#3","midi":54,"time":49.62239583333326,"velocity":0.8031496062992126,"duration":1.1497395833333286},{"name":"C#4","midi":61,"time":49.62239583333326,"velocity":0.8031496062992126,"duration":0.57421875},{"name":"C4","midi":60,"time":50.19921874999992,"velocity":0.8031496062992126,"duration":0.8398437499999929},{"name":"D#5","midi":75,"time":50.19921874999992,"velocity":0.8031496062992126,"duration":0.28515625},{"name":"C5","midi":72,"time":50.486979166666586,"velocity":0.8031496062992126,"duration":0.28515625},{"name":"F3","midi":53,"time":50.77473958333325,"velocity":0.8031496062992126,"duration":1.148437499999993},{"name":"A4","midi":69,"time":50.77473958333325,"velocity":0.8031496062992126,"duration":0.28515625},{"name":"G4","midi":67,"time":51.062499999999915,"velocity":0.8031496062992126,"duration":0.28515625},{"name":"C#4","midi":61,"time":51.35026041666658,"velocity":0.8031496062992126,"duration":0.5729166666666643},{"name":"G#4","midi":68,"time":51.35026041666658,"velocity":0.8031496062992126,"duration":0.5703125},{"name":"E3","midi":52,"time":51.92578124999991,"velocity":0.8031496062992126,"duration":1.148437499999993},{"name":"G4","midi":67,"time":51.92578124999991,"velocity":0.8031496062992126,"duration":0.57421875},{"name":"G#4","midi":68,"time":52.50260416666657,"velocity":0.8031496062992126,"duration":1.148437499999993},{"name":"A#4","midi":70,"time":52.50260416666657,"velocity":0.8031496062992126,"duration":0.28515625},{"name":"C5","midi":72,"time":52.790364583333236,"velocity":0.8031496062992126,"duration":0.140625},{"name":"C#5","midi":73,"time":52.9335937499999,"velocity":0.8031496062992126,"duration":0.140625},{"name":"D#3","midi":51,"time":53.076822916666565,"velocity":0.8031496062992126,"duration":0.57421875},{"name":"C5","midi":72,"time":53.076822916666565,"velocity":0.8031496062992126,"duration":0.57421875},{"name":"C#3","midi":49,"time":53.65364583333323,"velocity":0.8031496062992126,"duration":0.5729166666666643},{"name":"G4","midi":67,"time":53.65364583333323,"velocity":0.8031496062992126,"duration":0.28515625},{"name":"A#4","midi":70,"time":53.65364583333323,"velocity":0.8031496062992126,"duration":0.5729166666666643},{"name":"F4","midi":65,"time":53.94140624999989,"velocity":0.8031496062992126,"duration":0.28515625},{"name":"D#3","midi":51,"time":54.22916666666656,"velocity":0.8031496062992126,"duration":0.5742187499999929},{"name":"D#4","midi":63,"time":54.22916666666656,"velocity":0.8031496062992126,"duration":0.5742187499999929},{"name":"G#4","midi":68,"time":54.22916666666656,"velocity":0.8031496062992126,"duration":0.1888020833333357},{"name":"G4","midi":67,"time":54.42057291666656,"velocity":0.8031496062992126,"duration":0.1028645833333286},{"name":"G#4","midi":68,"time":54.51692708333322,"velocity":0.8031496062992126,"duration":0.1028645833333286},{"name":"G4","midi":67,"time":54.613281249999886,"velocity":0.8031496062992126,"duration":0.1028645833333286},{"name":"G#4","midi":68,"time":54.70963541666655,"velocity":0.8031496062992126,"duration":0.1028645833333286},{"name":"D#2","midi":39,"time":54.805989583333215,"velocity":0.8031496062992126,"duration":0.5742187499999929},{"name":"C#4","midi":61,"time":54.805989583333215,"velocity":0.8031496062992126,"duration":0.5742187499999929},{"name":"G4","midi":67,"time":54.805989583333215,"velocity":0.8031496062992126,"duration":0.2864583333333286},{"name":"G#4","midi":68,"time":55.09505208333321,"velocity":0.8031496062992126,"duration":0.28515625},{"name":"G#2","midi":44,"time":55.38281249999987,"velocity":0.8031496062992126,"duration":1.1432291666666714},{"name":"C4","midi":60,"time":55.38281249999987,"velocity":0.8031496062992126,"duration":0.5716145833333357},{"name":"G#4","midi":68,"time":55.38281249999987,"velocity":0.8031496062992126,"duration":0.6080729166666714},{"name":"D#4","midi":63,"time":55.98177083333321,"velocity":0.8031496062992126,"duration":0.57421875},{"name":"G4","midi":67,"time":56.55859374999987,"velocity":0.8031496062992126,"duration":0.57421875},{"name":"D#4","midi":63,"time":56.55859374999987,"velocity":0.8031496062992126,"duration":1.148437499999993},{"name":"F4","midi":65,"time":57.135416666666536,"velocity":0.8031496062992126,"duration":0.8385416666666572},{"name":"A3","midi":57,"time":57.135416666666536,"velocity":0.8031496062992126,"duration":0.28515625},{"name":"A#3","midi":58,"time":57.4231770833332,"velocity":0.8031496062992126,"duration":0.140625},{"name":"C4","midi":60,"time":57.566406249999865,"velocity":0.8031496062992126,"duration":0.140625},{"name":"D4","midi":62,"time":57.70963541666653,"velocity":0.8031496062992126,"duration":1.1497395833333286},{"name":"C4","midi":60,"time":57.70963541666653,"velocity":0.8031496062992126,"duration":0.28515625},{"name":"A3","midi":57,"time":57.997395833333194,"velocity":0.8031496062992126,"duration":0.28515625},{"name":"F4","midi":65,"time":58.28515624999986,"velocity":0.8031496062992126,"duration":0.57421875},{"name":"A#3","midi":58,"time":58.28515624999986,"velocity":0.8031496062992126,"duration":0.8411458333333286},{"name":"G#4","midi":68,"time":58.86197916666652,"velocity":0.8031496062992126,"duration":0.57421875},{"name":"C#4","midi":61,"time":58.86197916666652,"velocity":0.8031496062992126,"duration":1.1497395833333286},{"name":"G4","midi":67,"time":59.43880208333319,"velocity":0.8031496062992126,"duration":0.8398437499999929},{"name":"A#3","midi":58,"time":59.43880208333319,"velocity":0.8031496062992126,"duration":0.28515625},{"name":"G3","midi":55,"time":59.72656249999985,"velocity":0.8031496062992126,"duration":0.28515625},{"name":"C4","midi":60,"time":60.014322916666515,"velocity":0.8031496062992126,"duration":1.1497395833333286},{"name":"E3","midi":52,"time":60.014322916666515,"velocity":0.8031496062992126,"duration":0.28515625},{"name":"D3","midi":50,"time":60.30208333333318,"velocity":0.8031496062992126,"duration":0.28515625},{"name":"G#4","midi":68,"time":60.589843749999844,"velocity":0.8031496062992126,"duration":0.57421875},{"name":"D#3","midi":51,"time":60.589843749999844,"velocity":0.8031496062992126,"duration":0.8411458333333286},{"name":"D5","midi":74,"time":61.16666666666651,"velocity":0.8031496062992126,"duration":0.57421875},{"name":"B3","midi":59,"time":61.16666666666651,"velocity":0.8031496062992126,"duration":1.148437499999993},{"name":"D#5","midi":75,"time":61.74348958333317,"velocity":0.8031496062992126,"duration":1.148437499999993},{"name":"F3","midi":53,"time":61.74348958333317,"velocity":0.8031496062992126,"duration":0.28515625},{"name":"G3","midi":55,"time":62.03124999999984,"velocity":0.8031496062992126,"duration":0.140625},{"name":"G#3","midi":56,"time":62.1744791666665,"velocity":0.8031496062992126,"duration":0.140625},{"name":"A#3","midi":58,"time":62.317708333333165,"velocity":0.8031496062992126,"duration":0.57421875},{"name":"G3","midi":55,"time":62.317708333333165,"velocity":0.8031496062992126,"duration":0.57421875},{"name":"D5","midi":74,"time":62.89453124999983,"velocity":0.8031496062992126,"duration":0.28515625},{"name":"D#4","midi":63,"time":62.89453124999983,"velocity":0.8031496062992126,"duration":1.1497395833333286},{"name":"G#3","midi":56,"time":62.89453124999983,"velocity":0.8031496062992126,"duration":0.5729166666666643},{"name":"C5","midi":72,"time":63.182291666666494,"velocity":0.8031496062992126,"duration":0.28515625},{"name":"A#4","midi":70,"time":63.47005208333316,"velocity":0.8031496062992126,"duration":0.57421875},{"name":"A#3","midi":58,"time":63.47005208333316,"velocity":0.8031496062992126,"duration":0.57421875},{"name":"G#4","midi":68,"time":64.04687499999983,"velocity":0.8031496062992126,"duration":0.57421875},{"name":"D4","midi":62,"time":64.04687499999983,"velocity":0.8031496062992126,"duration":0.57421875},{"name":"A#2","midi":46,"time":64.04687499999983,"velocity":0.8031496062992126,"duration":0.57421875},{"name":"G4","midi":67,"time":64.6236979166665,"velocity":0.8031496062992126,"duration":0.57421875},{"name":"D#4","midi":63,"time":64.6236979166665,"velocity":0.8031496062992126,"duration":1.1510416666666714},{"name":"D#3","midi":51,"time":64.6236979166665,"velocity":0.8031496062992126,"duration":1.4427083333333428},{"name":"A#4","midi":70,"time":65.20052083333317,"velocity":0.8031496062992126,"duration":0.57421875},{"name":"C#5","midi":73,"time":65.77734374999984,"velocity":0.8031496062992126,"duration":0.57421875},{"name":"G4","midi":67,"time":65.77734374999984,"velocity":0.8031496062992126,"duration":1.1510416666666714},{"name":"C5","midi":72,"time":66.35416666666652,"velocity":0.8031496062992126,"duration":0.8411458333333428},{"name":"D#3","midi":51,"time":66.35416666666652,"velocity":0.8031496062992126,"duration":0.57421875},{"name":"A4","midi":69,"time":66.93098958333319,"velocity":0.8031496062992126,"duration":1.1510416666666714},{"name":"F#3","midi":54,"time":66.93098958333319,"velocity":0.8031496062992126,"duration":0.57421875},{"name":"C5","midi":72,"time":67.50781249999986,"velocity":0.8031496062992126,"duration":0.57421875},{"name":"F3","midi":53,"time":67.50781249999986,"velocity":0.8031496062992126,"duration":0.8411458333333428},{"name":"D#5","midi":75,"time":68.08463541666653,"velocity":0.8031496062992126,"duration":0.57421875},{"name":"C5","midi":72,"time":68.08463541666653,"velocity":0.8031496062992126,"duration":1.1510416666666714},{"name":"D5","midi":74,"time":68.6614583333332,"velocity":0.8031496062992126,"duration":0.8411458333333428},{"name":"F3","midi":53,"time":68.6614583333332,"velocity":0.8031496062992126,"duration":0.57421875},{"name":"A#4","midi":70,"time":69.23828124999987,"velocity":0.8031496062992126,"duration":1.1510416666666714},{"name":"G#3","midi":56,"time":69.23828124999987,"velocity":0.8031496062992126,"duration":0.57421875},{"name":"D5","midi":74,"time":69.81510416666654,"velocity":0.8031496062992126,"duration":0.57421875},{"name":"G3","midi":55,"time":69.81510416666654,"velocity":0.8031496062992126,"duration":0.8411458333333428},{"name":"F5","midi":77,"time":70.39192708333321,"velocity":0.8031496062992126,"duration":0.57421875},{"name":"C#5","midi":73,"time":70.39192708333321,"velocity":0.8031496062992126,"duration":1.1510416666666714},{"name":"E5","midi":76,"time":70.96874999999989,"velocity":0.8031496062992126,"duration":1.1510416666666714},{"name":"G3","midi":55,"time":70.96874999999989,"velocity":0.8031496062992126,"duration":0.57421875},{"name":"C5","midi":72,"time":71.54557291666656,"velocity":0.8031496062992126,"duration":0.57421875},{"name":"A#3","midi":58,"time":71.54557291666656,"velocity":0.8031496062992126,"duration":0.57421875},{"name":"C5","midi":72,"time":72.12239583333323,"velocity":0.8031496062992126,"duration":0.57421875},{"name":"F4","midi":65,"time":72.12239583333323,"velocity":0.8031496062992126,"duration":0.57421875},{"name":"G#3","midi":56,"time":72.12239583333323,"velocity":0.8031496062992126,"duration":0.8411458333333428},{"name":"F5","midi":77,"time":72.6992187499999,"velocity":0.8031496062992126,"duration":1.1510416666666714},{"name":"G#4","midi":68,"time":72.6992187499999,"velocity":0.8031496062992126,"duration":0.57421875},{"name":"G4","midi":67,"time":73.27604166666657,"velocity":0.8031496062992126,"duration":0.8411458333333428},{"name":"A#3","midi":58,"time":73.27604166666657,"velocity":0.8031496062992126,"duration":0.57421875},{"name":"E5","midi":76,"time":73.85286458333324,"velocity":0.8031496062992126,"duration":1.1510416666666714},{"name":"C#3","midi":49,"time":73.85286458333324,"velocity":0.8031496062992126,"duration":0.57421875},{"name":"G4","midi":67,"time":74.42968749999991,"velocity":0.8031496062992126,"duration":0.57421875},{"name":"C3","midi":48,"time":74.42968749999991,"velocity":0.8031496062992126,"duration":0.8411458333333428},{"name":"G5","midi":79,"time":75.00651041666659,"velocity":0.8031496062992126,"duration":1.1510416666666714},{"name":"A#4","midi":70,"time":75.00651041666659,"velocity":0.8031496062992126,"duration":0.57421875},{"name":"A4","midi":69,"time":75.58333333333326,"velocity":0.8031496062992126,"duration":0.8411458333333428},{"name":"C4","midi":60,"time":75.58333333333326,"velocity":0.8031496062992126,"duration":0.57421875},{"name":"F5","midi":77,"time":76.16015624999993,"velocity":0.8031496062992126,"duration":1.1510416666666714},{"name":"D#3","midi":51,"time":76.16015624999993,"velocity":0.8031496062992126,"duration":0.57421875},{"name":"A4","midi":69,"time":76.7369791666666,"velocity":0.8031496062992126,"duration":0.57421875},{"name":"D3","midi":50,"time":76.7369791666666,"velocity":0.8031496062992126,"duration":0.8411458333333428},{"name":"G#5","midi":80,"time":77.31380208333327,"velocity":0.8031496062992126,"duration":1.1510416666666714},{"name":"C5","midi":72,"time":77.31380208333327,"velocity":0.8031496062992126,"duration":0.57421875},{"name":"B4","midi":71,"time":77.89062499999994,"velocity":0.8031496062992126,"duration":0.8411458333333428},{"name":"D4","midi":62,"time":77.89062499999994,"velocity":0.8031496062992126,"duration":0.57421875},{"name":"G5","midi":79,"time":78.46744791666661,"velocity":0.8031496062992126,"duration":1.1510416666666714},{"name":"F3","midi":53,"time":78.46744791666661,"velocity":0.8031496062992126,"duration":0.57421875},{"name":"C4","midi":60,"time":79.04427083333329,"velocity":0.8031496062992126,"duration":0.57421875},{"name":"D#3","midi":51,"time":79.04427083333329,"velocity":0.8031496062992126,"duration":0.8411458333333428},{"name":"C5","midi":72,"time":79.62109374999996,"velocity":0.8031496062992126,"duration":1.1484375000000142},{"name":"D#4","midi":63,"time":79.62109374999996,"velocity":0.8031496062992126,"duration":0.57421875},{"name":"D4","midi":62,"time":80.19791666666663,"velocity":0.8031496062992126,"duration":0.8385416666666856},{"name":"F2","midi":41,"time":80.19791666666663,"velocity":0.8031496062992126,"duration":0.28515625},{"name":"G2","midi":43,"time":80.4856770833333,"velocity":0.8031496062992126,"duration":0.140625},{"name":"G#2","midi":44,"time":80.62890624999997,"velocity":0.8031496062992126,"duration":0.140625},{"name":"B4","midi":71,"time":80.77213541666664,"velocity":0.8031496062992126,"duration":1.1497395833333428},{"name":"G#2","midi":44,"time":80.77213541666664,"velocity":0.8031496062992126,"duration":0.28515625},{"name":"F#2","midi":42,"time":81.05989583333331,"velocity":0.8031496062992126,"duration":0.28515625},{"name":"D4","midi":62,"time":81.34765624999999,"velocity":0.8031496062992126,"duration":0.57421875},{"name":"G2","midi":43,"time":81.34765624999999,"velocity":0.8031496062992126,"duration":0.8411458333333428},{"name":"A#4","midi":70,"time":81.92447916666666,"velocity":0.8031496062992126,"duration":1.1497395833333428},{"name":"F4","midi":65,"time":81.92447916666666,"velocity":0.8031496062992126,"duration":0.57421875},{"name":"E4","midi":64,"time":82.50130208333333,"velocity":0.8031496062992126,"duration":0.8398437500000142},{"name":"G3","midi":55,"time":82.50130208333333,"velocity":0.8031496062992126,"duration":0.28515625},{"name":"E3","midi":52,"time":82.7890625,"velocity":0.8031496062992126,"duration":0.28515625},{"name":"A4","midi":69,"time":83.07682291666667,"velocity":0.8031496062992126,"duration":1.1497395833333428},{"name":"C#3","midi":49,"time":83.07682291666667,"velocity":0.8031496062992126,"duration":0.28515625},{"name":"B2","midi":47,"time":83.36458333333334,"velocity":0.8031496062992126,"duration":0.28515625},{"name":"F4","midi":65,"time":83.65234375000001,"velocity":0.8031496062992126,"duration":0.57421875},{"name":"C3","midi":48,"time":83.65234375000001,"velocity":0.8031496062992126,"duration":0.8411458333333428},{"name":"G#4","midi":68,"time":84.22916666666669,"velocity":0.8031496062992126,"duration":1.1484375000000142},{"name":"B4","midi":71,"time":84.22916666666669,"velocity":0.8031496062992126,"duration":0.57421875},{"name":"C5","midi":72,"time":84.80598958333336,"velocity":0.8031496062992126,"duration":1.1484375000000142},{"name":"D3","midi":50,"time":84.80598958333336,"velocity":0.8031496062992126,"duration":0.28515625},{"name":"D#3","midi":51,"time":85.09375000000003,"velocity":0.8031496062992126,"duration":0.140625},{"name":"F3","midi":53,"time":85.2369791666667,"velocity":0.8031496062992126,"duration":0.140625},{"name":"G4","midi":67,"time":85.38020833333337,"velocity":0.8031496062992126,"duration":0.57421875},{"name":"D#3","midi":51,"time":85.38020833333337,"velocity":0.8031496062992126,"duration":0.57421875},{"name":"C5","midi":72,"time":85.95703125000004,"velocity":0.8031496062992126,"duration":1.1497395833333428},{"name":"A#4","midi":70,"time":85.95703125000004,"velocity":0.8031496062992126,"duration":0.28515625},{"name":"F3","midi":53,"time":85.95703125000004,"velocity":0.8031496062992126,"duration":0.5729166666666714},{"name":"G#4","midi":68,"time":86.24479166666671,"velocity":0.8031496062992126,"duration":0.28515625},{"name":"G4","midi":67,"time":86.53255208333339,"velocity":0.8031496062992126,"duration":0.57421875},{"name":"G3","midi":55,"time":86.53255208333339,"velocity":0.8031496062992126,"duration":0.57421875},{"name":"B4","midi":71,"time":87.10937500000006,"velocity":0.8031496062992126,"duration":0.57421875},{"name":"F4","midi":65,"time":87.10937500000006,"velocity":0.8031496062992126,"duration":0.57421875},{"name":"G2","midi":43,"time":87.10937500000006,"velocity":0.8031496062992126,"duration":0.57421875},{"name":"C5","midi":72,"time":87.68619791666673,"velocity":0.8031496062992126,"duration":0.57421875},{"name":"D#4","midi":63,"time":87.68619791666673,"velocity":0.8031496062992126,"duration":1.1510416666666714},{"name":"C3","midi":48,"time":87.68619791666673,"velocity":0.8031496062992126,"duration":0.57421875},{"name":"A#4","midi":70,"time":88.2630208333334,"velocity":0.8031496062992126,"duration":1.1510416666666714},{"name":"C2","midi":36,"time":88.2630208333334,"velocity":0.8031496062992126,"duration":0.57421875},{"name":"E4","midi":64,"time":88.83984375000007,"velocity":0.8031496062992126,"duration":1.1497395833333428},{"name":"C#3","midi":49,"time":88.83984375000007,"velocity":0.8031496062992126,"duration":0.57421875},{"name":"G#4","midi":68,"time":89.41666666666674,"velocity":0.8031496062992126,"duration":0.28515625},{"name":"C3","midi":48,"time":89.41666666666674,"velocity":0.8031496062992126,"duration":0.8398437500000142},{"name":"G4","midi":67,"time":89.70442708333341,"velocity":0.8031496062992126,"duration":0.28515625},{"name":"G#4","midi":68,"time":89.99218750000009,"velocity":0.8031496062992126,"duration":1.1510416666666714},{"name":"F4","midi":65,"time":89.99218750000009,"velocity":0.8031496062992126,"duration":0.57421875},{"name":"D#4","midi":63,"time":90.56901041666676,"velocity":0.8031496062992126,"duration":1.1510416666666714},{"name":"C3","midi":48,"time":90.56901041666676,"velocity":0.8031496062992126,"duration":0.57421875},{"name":"A4","midi":69,"time":91.14583333333343,"velocity":0.8031496062992126,"duration":1.1497395833333428},{"name":"F#3","midi":54,"time":91.14583333333343,"velocity":0.8031496062992126,"duration":0.57421875},{"name":"D4","midi":62,"time":91.7226562500001,"velocity":0.8031496062992126,"duration":0.28515625},{"name":"F3","midi":53,"time":91.7226562500001,"velocity":0.8031496062992126,"duration":1.1497395833333428},{"name":"C4","midi":60,"time":92.01041666666677,"velocity":0.8031496062992126,"duration":0.28515625},{"name":"A#4","midi":70,"time":92.29817708333344,"velocity":0.8031496062992126,"duration":0.57421875},{"name":"D4","midi":62,"time":92.29817708333344,"velocity":0.8031496062992126,"duration":0.57421875},{"name":"A#4","midi":70,"time":92.87500000000011,"velocity":0.8031496062992126,"duration":0.57421875},{"name":"G4","midi":67,"time":92.87500000000011,"velocity":0.8031496062992126,"duration":0.57421875},{"name":"D#3","midi":51,"time":92.87500000000011,"velocity":0.8031496062992126,"duration":1.1510416666666714},{"name":"F#5","midi":78,"time":93.45182291666679,"velocity":0.8031496062992126,"duration":0.57421875},{"name":"A4","midi":69,"time":93.45182291666679,"velocity":0.8031496062992126,"duration":1.1497395833333428},{"name":"F5","midi":77,"time":94.02864583333346,"velocity":0.8031496062992126,"duration":0.8398437500000142},{"name":"C#3","midi":49,"time":94.02864583333346,"velocity":0.8031496062992126,"duration":0.28515625},{"name":"C3","midi":48,"time":94.31640625000013,"velocity":0.8031496062992126,"duration":0.28515625},{"name":"A#4","midi":70,"time":94.6041666666668,"velocity":0.8031496062992126,"duration":0.57421875},{"name":"C#3","midi":49,"time":94.6041666666668,"velocity":0.8031496062992126,"duration":1.1510416666666714},{"name":"F4","midi":65,"time":95.18098958333347,"velocity":0.8031496062992126,"duration":0.57421875},{"name":"G#4","midi":68,"time":95.18098958333347,"velocity":0.8031496062992126,"duration":1.1510416666666714},{"name":"B4","midi":71,"time":95.75781250000014,"velocity":0.8031496062992126,"duration":0.57421875},{"name":"D3","midi":50,"time":95.75781250000014,"velocity":0.8031496062992126,"duration":1.1497395833333428},{"name":"A#4","midi":70,"time":96.33463541666681,"velocity":0.8031496062992126,"duration":1.1497395833333428},{"name":"G4","midi":67,"time":96.33463541666681,"velocity":0.8031496062992126,"duration":0.28515625},{"name":"F4","midi":65,"time":96.62239583333348,"velocity":0.8031496062992126,"duration":0.28515625},{"name":"G4","midi":67,"time":96.91015625000016,"velocity":0.8031496062992126,"duration":0.57421875},{"name":"D#3","midi":51,"time":96.91015625000016,"velocity":0.8031496062992126,"duration":0.57421875},{"name":"G#4","midi":68,"time":97.48697916666683,"velocity":0.8031496062992126,"duration":1.1497395833333428},{"name":"F4","midi":65,"time":97.48697916666683,"velocity":0.8031496062992126,"duration":0.28515625},{"name":"A#2","midi":46,"time":97.48697916666683,"velocity":0.8031496062992126,"duration":0.5729166666666714},{"name":"D#4","midi":63,"time":97.7747395833335,"velocity":0.8031496062992126,"duration":0.28515625},{"name":"D4","midi":62,"time":98.06250000000017,"velocity":0.8031496062992126,"duration":1.1497395833333428},{"name":"B3","midi":59,"time":98.06250000000017,"velocity":0.8031496062992126,"duration":0.57421875},{"name":"F#4","midi":66,"time":98.63932291666684,"velocity":0.8031496062992126,"duration":0.28515625},{"name":"A#3","midi":58,"time":98.63932291666684,"velocity":0.8031496062992126,"duration":0.8398437500000142},{"name":"F4","midi":65,"time":98.92708333333351,"velocity":0.8031496062992126,"duration":0.28515625},{"name":"F#4","midi":66,"time":99.21484375000018,"velocity":0.8031496062992126,"duration":1.1510416666666714},{"name":"D#4","midi":63,"time":99.21484375000018,"velocity":0.8031496062992126,"duration":0.57421875},{"name":"C#4","midi":61,"time":99.79166666666686,"velocity":0.8031496062992126,"duration":1.1510416666666714},{"name":"A#2","midi":46,"time":99.79166666666686,"velocity":0.8031496062992126,"duration":0.57421875},{"name":"G4","midi":67,"time":100.36848958333353,"velocity":0.8031496062992126,"duration":1.1497395833333428},{"name":"E3","midi":52,"time":100.36848958333353,"velocity":0.8031496062992126,"duration":0.57421875},{"name":"C4","midi":60,"time":100.9453125000002,"velocity":0.8031496062992126,"duration":0.28515625},{"name":"D#3","midi":51,"time":100.9453125000002,"velocity":0.8031496062992126,"duration":1.1497395833333428},{"name":"A#3","midi":58,"time":101.23307291666687,"velocity":0.8031496062992126,"duration":0.28515625},{"name":"G#4","midi":68,"time":101.52083333333354,"velocity":0.8031496062992126,"duration":0.57421875},{"name":"C4","midi":60,"time":101.52083333333354,"velocity":0.8031496062992126,"duration":0.57421875},{"name":"G#4","midi":68,"time":102.09765625000021,"velocity":0.8031496062992126,"duration":0.5716145833333286},{"name":"F4","midi":65,"time":102.09765625000021,"velocity":0.8031496062992126,"duration":0.5716145833333286},{"name":"C#3","midi":49,"time":102.09765625000021,"velocity":0.8031496062992126,"duration":1.1510416666666572},{"name":"E5","midi":76,"time":102.67447916666687,"velocity":0.8031496062992126,"duration":0.57421875},{"name":"G4","midi":67,"time":102.67447916666687,"velocity":0.8031496062992126,"duration":1.1497395833333428},{"name":"D#5","midi":75,"time":103.25130208333354,"velocity":0.8031496062992126,"duration":0.8398437500000142},{"name":"B2","midi":47,"time":103.25130208333354,"velocity":0.8031496062992126,"duration":0.28515625},{"name":"A#2","midi":46,"time":103.53906250000021,"velocity":0.8031496062992126,"duration":0.28515625},{"name":"G#4","midi":68,"time":103.82682291666688,"velocity":0.8031496062992126,"duration":0.57421875},{"name":"B2","midi":47,"time":103.82682291666688,"velocity":0.8031496062992126,"duration":1.1510416666666714},{"name":"D#4","midi":63,"time":104.40364583333356,"velocity":0.8031496062992126,"duration":0.57421875},{"name":"F#4","midi":66,"time":104.40364583333356,"velocity":0.8031496062992126,"duration":1.1510416666666714},{"name":"A4","midi":69,"time":104.98046875000023,"velocity":0.8031496062992126,"duration":0.57421875},{"name":"C3","midi":48,"time":104.98046875000023,"velocity":0.8031496062992126,"duration":1.1497395833333428},{"name":"G#4","midi":68,"time":105.5572916666669,"velocity":0.8031496062992126,"duration":1.1497395833333428},{"name":"F4","midi":65,"time":105.5572916666669,"velocity":0.8031496062992126,"duration":0.28515625},{"name":"D#4","midi":63,"time":105.84505208333357,"velocity":0.8031496062992126,"duration":0.28515625},{"name":"F4","midi":65,"time":106.13281250000024,"velocity":0.8031496062992126,"duration":1.4427083333333428},{"name":"C#3","midi":49,"time":106.13281250000024,"velocity":0.8031496062992126,"duration":0.57421875},{"name":"G#4","midi":68,"time":106.70963541666691,"velocity":0.8031496062992126,"duration":0.57421875},{"name":"C#3","midi":49,"time":106.70963541666691,"velocity":0.8031496062992126,"duration":0.57421875},{"name":"C#5","midi":73,"time":107.28645833333358,"velocity":0.8031496062992126,"duration":1.1484375000000142},{"name":"F3","midi":53,"time":107.28645833333358,"velocity":0.8031496062992126,"duration":0.57421875},{"name":"G4","midi":67,"time":107.86328125000026,"velocity":0.8031496062992126,"duration":0.28515625},{"name":"D#3","midi":51,"time":107.86328125000026,"velocity":0.8031496062992126,"duration":0.8385416666666856},{"name":"G#4","midi":68,"time":108.15104166666693,"velocity":0.8031496062992126,"duration":0.140625},{"name":"A#4","midi":70,"time":108.2942708333336,"velocity":0.8031496062992126,"duration":0.140625},{"name":"C5","midi":72,"time":108.43750000000027,"velocity":0.8031496062992126,"duration":1.1497395833333428},{"name":"A#4","midi":70,"time":108.43750000000027,"velocity":0.8031496062992126,"duration":0.28515625},{"name":"G4","midi":67,"time":108.72526041666694,"velocity":0.8031496062992126,"duration":0.28515625},{"name":"G#4","midi":68,"time":109.01302083333361,"velocity":0.8031496062992126,"duration":0.8411458333333428},{"name":"D#3","midi":51,"time":109.01302083333361,"velocity":0.8031496062992126,"duration":0.57421875},{"name":"B4","midi":71,"time":109.58984375000028,"velocity":0.8031496062992126,"duration":1.1497395833333428},{"name":"F#3","midi":54,"time":109.58984375000028,"velocity":0.8031496062992126,"duration":0.57421875},{"name":"G#4","midi":68,"time":110.16666666666696,"velocity":0.8031496062992126,"duration":0.28515625},{"name":"F3","midi":53,"time":110.16666666666696,"velocity":0.8031496062992126,"duration":0.8398437500000142},{"name":"F4","midi":65,"time":110.45442708333363,"velocity":0.8031496062992126,"duration":0.28515625},{"name":"A#4","midi":70,"time":110.7421875000003,"velocity":0.8031496062992126,"duration":1.1484375000000142},{"name":"D4","midi":62,"time":110.7421875000003,"velocity":0.8031496062992126,"duration":0.28515625},{"name":"C4","midi":60,"time":111.02994791666697,"velocity":0.8031496062992126,"duration":0.28515625},{"name":"C#4","midi":61,"time":111.31770833333364,"velocity":0.8031496062992126,"duration":0.5703125},{"name":"F#3","midi":54,"time":111.31770833333364,"velocity":0.8031496062992126,"duration":0.5729166666666714},{"name":"A4","midi":69,"time":111.89322916666698,"velocity":0.8031496062992126,"duration":1.1484375000000142},{"name":"C4","midi":60,"time":111.89322916666698,"velocity":0.8031496062992126,"duration":0.57421875},{"name":"D#4","midi":63,"time":112.47005208333366,"velocity":0.8031496062992126,"duration":0.28515625},{"name":"C#4","midi":61,"time":112.47005208333366,"velocity":0.8031496062992126,"duration":1.1484375000000142},{"name":"F4","midi":65,"time":112.75781250000033,"velocity":0.8031496062992126,"duration":0.140625},{"name":"F#4","midi":66,"time":112.901041666667,"velocity":0.8031496062992126,"duration":0.140625},{"name":"G#4","midi":68,"time":113.04427083333367,"velocity":0.8031496062992126,"duration":0.57421875},{"name":"F4","midi":65,"time":113.04427083333367,"velocity":0.8031496062992126,"duration":0.8619791666666714},{"name":"C#5","midi":73,"time":113.62109375000034,"velocity":0.8031496062992126,"duration":1.1497395833333428},{"name":"C4","midi":60,"time":113.62109375000034,"velocity":0.8031496062992126,"duration":0.28515625},{"name":"F#4","midi":66,"time":113.90885416666701,"velocity":0.8031496062992126,"duration":0.28515625},{"name":"A#3","midi":58,"time":113.90885416666701,"velocity":0.8031496062992126,"duration":0.28515625},{"name":"F4","midi":65,"time":114.19661458333368,"velocity":0.8031496062992126,"duration":0.57421875},{"name":"G#3","midi":56,"time":114.19661458333368,"velocity":0.8031496062992126,"duration":0.57421875},{"name":"C5","midi":72,"time":114.77343750000036,"velocity":0.8031496062992126,"duration":0.57421875},{"name":"D#4","midi":63,"time":114.77343750000036,"velocity":0.8031496062992126,"duration":0.57421875},{"name":"F#3","midi":54,"time":114.77343750000036,"velocity":0.8031496062992126,"duration":0.57421875},{"name":"C#5","midi":73,"time":115.35026041666703,"velocity":0.8031496062992126,"duration":0.57421875},{"name":"C#4","midi":61,"time":115.35026041666703,"velocity":0.8031496062992126,"duration":1.1510416666666714},{"name":"F3","midi":53,"time":115.35026041666703,"velocity":0.8031496062992126,"duration":1.08203125},{"name":"G#4","midi":68,"time":115.9270833333337,"velocity":0.8031496062992126,"duration":0.57421875},{"name":"C5","midi":72,"time":116.50390625000037,"velocity":0.8031496062992126,"duration":0.57421875},{"name":"G#4","midi":68,"time":116.50390625000037,"velocity":0.8031496062992126,"duration":1.1484375000000142},{"name":"A#4","midi":70,"time":117.08072916666704,"velocity":0.8031496062992126,"duration":0.8385416666666856},{"name":"D3","midi":50,"time":117.08072916666704,"velocity":0.8031496062992126,"duration":0.28515625},{"name":"D#3","midi":51,"time":117.36848958333371,"velocity":0.8031496062992126,"duration":0.140625},{"name":"F3","midi":53,"time":117.51171875000038,"velocity":0.8031496062992126,"duration":0.140625},{"name":"G4","midi":67,"time":117.65494791666706,"velocity":0.8031496062992126,"duration":1.1497395833333428},{"name":"F3","midi":53,"time":117.65494791666706,"velocity":0.8031496062992126,"duration":0.28515625},{"name":"D3","midi":50,"time":117.94270833333373,"velocity":0.8031496062992126,"duration":0.28515625},{"name":"A#4","midi":70,"time":118.2304687500004,"velocity":0.8031496062992126,"duration":0.57421875},{"name":"D#3","midi":51,"time":118.2304687500004,"velocity":0.8031496062992126,"duration":0.8411458333333428},{"name":"C#5","midi":73,"time":118.80729166666707,"velocity":0.8031496062992126,"duration":0.57421875},{"name":"F#4","midi":66,"time":118.80729166666707,"velocity":0.8031496062992126,"duration":1.1497395833333428},{"name":"C5","midi":72,"time":119.38411458333374,"velocity":0.8031496062992126,"duration":0.8398437500000142},{"name":"D#3","midi":51,"time":119.38411458333374,"velocity":0.8031496062992126,"duration":0.28515625},{"name":"C3","midi":48,"time":119.67187500000041,"velocity":0.8031496062992126,"duration":0.28515625},{"name":"F4","midi":65,"time":119.95963541666708,"velocity":0.8031496062992126,"duration":1.1484375},{"name":"A2","midi":45,"time":119.95963541666708,"velocity":0.8031496062992126,"duration":0.28515625},{"name":"G2","midi":43,"time":120.24739583333375,"velocity":0.8031496062992126,"duration":0.28515625},{"name":"C#5","midi":73,"time":120.53515625000043,"velocity":0.8031496062992126,"duration":0.5729166666666572},{"name":"G#2","midi":44,"time":120.53515625000043,"velocity":0.8031496062992126,"duration":0.5403645833333286},{"name":"G5","midi":79,"time":121.11067708333375,"velocity":0.8031496062992126,"duration":0.57421875},{"name":"E4","midi":64,"time":121.11067708333375,"velocity":0.8031496062992126,"duration":1.1484375000000142},{"name":"G#5","midi":80,"time":121.68750000000043,"velocity":0.8031496062992126,"duration":1.1484375000000142},{"name":"A#3","midi":58,"time":121.68750000000043,"velocity":0.8031496062992126,"duration":0.28515625},{"name":"C4","midi":60,"time":121.9752604166671,"velocity":0.8031496062992126,"duration":0.140625},{"name":"C#4","midi":61,"time":122.11848958333377,"velocity":0.8031496062992126,"duration":0.140625},{"name":"D#4","midi":63,"time":122.26171875000044,"velocity":0.8031496062992126,"duration":0.57421875},{"name":"C4","midi":60,"time":122.26171875000044,"velocity":0.8031496062992126,"duration":0.57421875},{"name":"G5","midi":79,"time":122.83854166666711,"velocity":0.8031496062992126,"duration":0.28515625},{"name":"G#4","midi":68,"time":122.83854166666711,"velocity":0.8031496062992126,"duration":1.1497395833333428},{"name":"C#4","midi":61,"time":122.83854166666711,"velocity":0.8031496062992126,"duration":0.5729166666666714},{"name":"F5","midi":77,"time":123.12630208333378,"velocity":0.8031496062992126,"duration":0.28515625},{"name":"D#5","midi":75,"time":123.41406250000045,"velocity":0.8031496062992126,"duration":0.57421875},{"name":"D#4","midi":63,"time":123.41406250000045,"velocity":0.8031496062992126,"duration":0.57421875},{"name":"C#5","midi":73,"time":123.99088541666713,"velocity":0.8031496062992126,"duration":0.57421875},{"name":"G4","midi":67,"time":123.99088541666713,"velocity":0.8031496062992126,"duration":0.57421875},{"name":"D#3","midi":51,"time":123.99088541666713,"velocity":0.8031496062992126,"duration":0.57421875},{"name":"C5","midi":72,"time":124.5677083333338,"velocity":0.8031496062992126,"duration":1.1510416666666714},{"name":"G#4","midi":68,"time":124.5677083333338,"velocity":0.8031496062992126,"duration":0.57421875},{"name":"G#3","midi":56,"time":124.5677083333338,"velocity":0.8031496062992126,"duration":1.4427083333333428},{"name":"D#4","midi":63,"time":125.14453125000047,"velocity":0.8031496062992126,"duration":0.57421875},{"name":"D#5","midi":75,"time":125.72135416666714,"velocity":0.8031496062992126,"duration":1.1510416666666714},{"name":"F#4","midi":66,"time":125.72135416666714,"velocity":0.8031496062992126,"duration":0.57421875},{"name":"F4","midi":65,"time":126.29817708333381,"velocity":0.8031496062992126,"duration":0.8411458333333428},{"name":"G#3","midi":56,"time":126.29817708333381,"velocity":0.8031496062992126,"duration":0.57421875},{"name":"D5","midi":74,"time":126.87500000000048,"velocity":0.8031496062992126,"duration":1.1510416666666572},{"name":"B3","midi":59,"time":126.87500000000048,"velocity":0.8031496062992126,"duration":0.57421875},{"name":"F4","midi":65,"time":127.45182291666715,"velocity":0.8031496062992126,"duration":0.5742187499999858},{"name":"A#3","midi":58,"time":127.45182291666715,"velocity":0.8031496062992126,"duration":0.8411458333333002},{"name":"F5","midi":77,"time":128.0286458333338,"velocity":0.8031496062992126,"duration":1.1510416666666572},{"name":"G#4","midi":68,"time":128.0286458333338,"velocity":0.8031496062992126,"duration":0.57421875},{"name":"G4","midi":67,"time":128.60546875000045,"velocity":0.8031496062992126,"duration":0.8411458333333144},{"name":"A#3","midi":58,"time":128.60546875000045,"velocity":0.8031496062992126,"duration":0.57421875},{"name":"D#5","midi":75,"time":129.1822916666671,"velocity":0.8031496062992126,"duration":1.1510416666666572},{"name":"C#4","midi":61,"time":129.1822916666671,"velocity":0.8031496062992126,"duration":0.57421875},{"name":"G4","midi":67,"time":129.75911458333377,"velocity":0.8031496062992126,"duration":0.57421875},{"name":"C4","midi":60,"time":129.75911458333377,"velocity":0.8031496062992126,"duration":0.8411458333333144},{"name":"F#5","midi":78,"time":130.33593750000043,"velocity":0.8031496062992126,"duration":1.1510416666666572},{"name":"A#4","midi":70,"time":130.33593750000043,"velocity":0.8031496062992126,"duration":0.57421875},{"name":"A4","midi":69,"time":130.91276041666708,"velocity":0.8031496062992126,"duration":1.1510416666666572},{"name":"C4","midi":60,"time":130.91276041666708,"velocity":0.8031496062992126,"duration":0.57421875},{"name":"F5","midi":77,"time":131.48958333333374,"velocity":0.8031496062992126,"duration":0.57421875},{"name":"D#4","midi":63,"time":131.48958333333374,"velocity":0.8031496062992126,"duration":0.57421875},{"name":"A#4","midi":70,"time":132.0664062500004,"velocity":0.8031496062992126,"duration":0.57421875},{"name":"F4","midi":65,"time":132.0664062500004,"velocity":0.8031496062992126,"duration":0.57421875},{"name":"C#4","midi":61,"time":132.0664062500004,"velocity":0.8031496062992126,"duration":0.8411458333333144},{"name":"C#5","midi":73,"time":132.64322916666706,"velocity":0.8031496062992126,"duration":0.57421875},{"name":"A#4","midi":70,"time":132.64322916666706,"velocity":0.8031496062992126,"duration":1.1510416666666572},{"name":"C5","midi":72,"time":133.2200520833337,"velocity":0.8031496062992126,"duration":0.8411458333333144},{"name":"D#4","midi":63,"time":133.2200520833337,"velocity":0.8031496062992126,"duration":0.57421875},{"name":"A4","midi":69,"time":133.79687500000037,"velocity":0.8031496062992126,"duration":1.1510416666666572},{"name":"F#3","midi":54,"time":133.79687500000037,"velocity":0.8031496062992126,"duration":0.57421875},{"name":"C5","midi":72,"time":134.37369791666703,"velocity":0.8031496062992126,"duration":0.57421875},{"name":"F3","midi":53,"time":134.37369791666703,"velocity":0.8031496062992126,"duration":0.8411458333333144},{"name":"D#5","midi":75,"time":134.95052083333368,"velocity":0.8031496062992126,"duration":0.57421875},{"name":"C5","midi":72,"time":134.95052083333368,"velocity":0.8031496062992126,"duration":1.1510416666666572},{"name":"D5","midi":74,"time":135.52734375000034,"velocity":0.8031496062992126,"duration":0.8411458333333144},{"name":"F4","midi":65,"time":135.52734375000034,"velocity":0.8031496062992126,"duration":0.57421875},{"name":"A#4","midi":70,"time":136.104166666667,"velocity":0.8031496062992126,"duration":1.1510416666666572},{"name":"G#3","midi":56,"time":136.104166666667,"velocity":0.8031496062992126,"duration":0.57421875},{"name":"D5","midi":74,"time":136.68098958333366,"velocity":0.8031496062992126,"duration":0.57421875},{"name":"G3","midi":55,"time":136.68098958333366,"velocity":0.8031496062992126,"duration":0.8411458333333144},{"name":"F5","midi":77,"time":137.2578125000003,"velocity":0.8031496062992126,"duration":0.57421875},{"name":"C#5","midi":73,"time":137.2578125000003,"velocity":0.8031496062992126,"duration":1.1510416666666572},{"name":"E5","midi":76,"time":137.83463541666697,"velocity":0.8031496062992126,"duration":0.8411458333333144},{"name":"G4","midi":67,"time":137.83463541666697,"velocity":0.8031496062992126,"duration":0.57421875},{"name":"C5","midi":72,"time":138.41145833333363,"velocity":0.8031496062992126,"duration":1.1510416666666572},{"name":"A#3","midi":58,"time":138.41145833333363,"velocity":0.8031496062992126,"duration":0.57421875},{"name":"F4","midi":65,"time":138.98828125000028,"velocity":0.8031496062992126,"duration":0.57421875},{"name":"G#3","midi":56,"time":138.98828125000028,"velocity":0.8031496062992126,"duration":0.8411458333333144},{"name":"G#4","midi":68,"time":139.56510416666694,"velocity":0.8031496062992126,"duration":0.57421875},{"name":"F4","midi":65,"time":139.56510416666694,"velocity":0.8031496062992126,"duration":1.1484374999999716},{"name":"G4","midi":67,"time":140.1419270833336,"velocity":0.8031496062992126,"duration":0.8385416666666288},{"name":"A#3","midi":58,"time":140.1419270833336,"velocity":0.8031496062992126,"duration":0.28515625},{"name":"C4","midi":60,"time":140.42968750000026,"velocity":0.8031496062992126,"duration":0.140625},{"name":"C#4","midi":61,"time":140.5729166666669,"velocity":0.8031496062992126,"duration":0.140625},{"name":"E4","midi":64,"time":140.71614583333357,"velocity":0.8031496062992126,"duration":1.1497395833333144},{"name":"C#4","midi":61,"time":140.71614583333357,"velocity":0.8031496062992126,"duration":0.28515625},{"name":"B3","midi":59,"time":141.00390625000023,"velocity":0.8031496062992126,"duration":0.28515625},{"name":"G4","midi":67,"time":141.29166666666688,"velocity":0.8031496062992126,"duration":0.57421875},{"name":"C4","midi":60,"time":141.29166666666688,"velocity":0.8031496062992126,"duration":0.8411458333333144},{"name":"A#4","midi":70,"time":141.86848958333354,"velocity":0.8031496062992126,"duration":0.57421875},{"name":"D#4","midi":63,"time":141.86848958333354,"velocity":0.8031496062992126,"duration":1.1497395833333144},{"name":"A4","midi":69,"time":142.4453125000002,"velocity":0.8031496062992126,"duration":0.8398437499999716},{"name":"C4","midi":60,"time":142.4453125000002,"velocity":0.8031496062992126,"duration":0.28515625},{"name":"A3","midi":57,"time":142.73307291666686,"velocity":0.8031496062992126,"duration":0.28515625},{"name":"D4","midi":62,"time":143.0208333333335,"velocity":0.8031496062992126,"duration":1.1497395833333144},{"name":"F#3","midi":54,"time":143.0208333333335,"velocity":0.8031496062992126,"duration":0.28515625},{"name":"E3","midi":52,"time":143.30859375000017,"velocity":0.8031496062992126,"duration":0.28515625},{"name":"A#4","midi":70,"time":143.59635416666683,"velocity":0.8031496062992126,"duration":0.57421875},{"name":"F3","midi":53,"time":143.59635416666683,"velocity":0.8031496062992126,"duration":0.8411458333333144},{"name":"E5","midi":76,"time":144.17317708333348,"velocity":0.8031496062992126,"duration":0.57421875},{"name":"C#4","midi":61,"time":144.17317708333348,"velocity":0.8031496062992126,"duration":1.1484374999999716},{"name":"F5","midi":77,"time":144.75000000000014,"velocity":0.8031496062992126,"duration":1.1484374999999716},{"name":"G3","midi":55,"time":144.75000000000014,"velocity":0.8031496062992126,"duration":0.28515625},{"name":"G#3","midi":56,"time":145.0377604166668,"velocity":0.8031496062992126,"duration":0.140625},{"name":"A#3","midi":58,"time":145.18098958333346,"velocity":0.8031496062992126,"duration":0.140625},{"name":"C4","midi":60,"time":145.3242187500001,"velocity":0.8031496062992126,"duration":0.57421875},{"name":"G#3","midi":56,"time":145.3242187500001,"velocity":0.8031496062992126,"duration":0.57421875},{"name":"D#5","midi":75,"time":145.90104166666677,"velocity":0.8031496062992126,"duration":0.28515625},{"name":"F4","midi":65,"time":145.90104166666677,"velocity":0.8031496062992126,"duration":1.1497395833333144},{"name":"A#3","midi":58,"time":145.90104166666677,"velocity":0.8031496062992126,"duration":0.5729166666666572},{"name":"C#5","midi":73,"time":146.18880208333343,"velocity":0.8031496062992126,"duration":0.28515625},{"name":"C5","midi":72,"time":146.47656250000009,"velocity":0.8031496062992126,"duration":0.57421875},{"name":"C4","midi":60,"time":146.47656250000009,"velocity":0.8031496062992126,"duration":0.57421875},{"name":"A#4","midi":70,"time":147.05338541666674,"velocity":0.8031496062992126,"duration":0.57421875},{"name":"E4","midi":64,"time":147.05338541666674,"velocity":0.8031496062992126,"duration":0.57421875},{"name":"C3","midi":48,"time":147.05338541666674,"velocity":0.8031496062992126,"duration":0.57421875},{"name":"G#4","midi":68,"time":147.6302083333334,"velocity":0.8031496062992126,"duration":1.4687499999999716},{"name":"F4","midi":65,"time":147.6302083333334,"velocity":0.8031496062992126,"duration":0.5846354166666572},{"name":"F2","midi":41,"time":147.6302083333334,"velocity":0.8031496062992126,"duration":1.1718749999999716},{"name":"F3","midi":53,"time":148.2174479166667,"velocity":0.8031496062992126,"duration":0.5846354166666572},{"name":"G#3","midi":56,"time":148.80468750000003,"velocity":0.8031496062992126,"duration":0.5859375},{"name":"F3","midi":53,"time":148.80468750000003,"velocity":0.8031496062992126,"duration":1.1744791666666288},{"name":"A#4","midi":70,"time":149.39322916666669,"velocity":0.8031496062992126,"duration":0.2916666666666572},{"name":"G3","midi":55,"time":149.39322916666669,"velocity":0.8031496062992126,"duration":0.8580729166666288},{"name":"C5","midi":72,"time":149.6875,"velocity":0.8031496062992126,"duration":0.14453125},{"name":"C#5","midi":73,"time":149.83463541666666,"velocity":0.8031496062992126,"duration":0.14453125},{"name":"C#5","midi":73,"time":149.98177083333331,"velocity":0.8031496062992126,"duration":0.2903645833333428},{"name":"E3","midi":52,"time":149.98177083333331,"velocity":0.8031496062992126,"duration":1.1718749999999716},{"name":"B4","midi":71,"time":150.27473958333331,"velocity":0.8031496062992126,"duration":0.2916666666666572},{"name":"C5","midi":72,"time":150.56901041666663,"velocity":0.8031496062992126,"duration":0.8567708333333144},{"name":"G3","midi":55,"time":150.56901041666663,"velocity":0.8031496062992126,"duration":0.5846354166666572},{"name":"A#3","midi":58,"time":151.15624999999994,"velocity":0.8031496062992126,"duration":0.5846354166666572},{"name":"D#3","midi":51,"time":151.15624999999994,"velocity":0.8031496062992126,"duration":1.173177083333286},{"name":"C6","midi":84,"time":151.74348958333326,"velocity":0.8031496062992126,"duration":0.2916666666666572},{"name":"A3","midi":57,"time":151.74348958333326,"velocity":0.8031496062992126,"duration":0.8580729166666288},{"name":"A5","midi":81,"time":152.03776041666657,"velocity":0.8031496062992126,"duration":0.2916666666666572},{"name":"F#5","midi":78,"time":152.3320312499999,"velocity":0.8031496062992126,"duration":0.2903645833333428},{"name":"D3","midi":50,"time":152.3320312499999,"velocity":0.8031496062992126,"duration":1.1718749999999716},{"name":"E5","midi":76,"time":152.6249999999999,"velocity":0.8031496062992126,"duration":0.2916666666666572},{"name":"F5","midi":77,"time":152.9192708333332,"velocity":0.8031496062992126,"duration":1.1835937499999716},{"name":"A#3","midi":58,"time":152.9192708333332,"velocity":0.8031496062992126,"duration":0.5846354166666572},{"name":"E4","midi":64,"time":153.50651041666652,"velocity":0.8031496062992126,"duration":0.5963541666666572},{"name":"C#3","midi":49,"time":153.50651041666652,"velocity":0.8031496062992126,"duration":1.1953124999999432},{"name":"G4","midi":67,"time":154.10546874999983,"velocity":0.8031496062992126,"duration":0.296875},{"name":"F4","midi":65,"time":154.10546874999983,"velocity":0.8031496062992126,"duration":1.1953124999999432},{"name":"G#4","midi":68,"time":154.4049479166665,"velocity":0.8031496062992126,"duration":0.1471354166666572},{"name":"A#4","midi":70,"time":154.5546874999998,"velocity":0.8031496062992126,"duration":0.1471354166666572},{"name":"G#4","midi":68,"time":154.70442708333312,"velocity":0.8031496062992126,"duration":0.8958333333333144},{"name":"C3","midi":48,"time":154.70442708333312,"velocity":0.8031496062992126,"duration":0.5963541666666572},{"name":"D#4","midi":63,"time":155.30338541666643,"velocity":0.8031496062992126,"duration":0.296875},{"name":"A#2","midi":46,"time":155.30338541666643,"velocity":0.8031496062992126,"duration":0.5963541666666572},{"name":"G4","midi":67,"time":155.6028645833331,"velocity":0.8031496062992126,"duration":0.296875},{"name":"C#4","midi":61,"time":155.6028645833331,"velocity":0.8031496062992126,"duration":0.296875},{"name":"F4","midi":65,"time":155.90234374999974,"velocity":0.8031496062992126,"duration":0.2239583333333428},{"name":"C4","midi":60,"time":155.90234374999974,"velocity":0.8031496062992126,"duration":0.682291666666714},{"name":"C3","midi":48,"time":155.90234374999974,"velocity":0.8031496062992126,"duration":0.682291666666714},{"name":"E4","midi":64,"time":156.1302083333331,"velocity":0.8031496062992126,"duration":0.11067708333334281},{"name":"F4","midi":65,"time":156.24479166666643,"velocity":0.8031496062992126,"duration":0.11067708333334281},{"name":"E4","midi":64,"time":156.35937499999977,"velocity":0.8031496062992126,"duration":0.11067708333334281},{"name":"F4","midi":65,"time":156.47395833333312,"velocity":0.8031496062992126,"duration":0.11067708333334281},{"name":"E4","midi":64,"time":156.58854166666646,"velocity":0.8031496062992126,"duration":0.3372395833333428},{"name":"A#3","midi":58,"time":156.58854166666646,"velocity":0.8031496062992126,"duration":0.6783854166666856},{"name":"C2","midi":36,"time":156.58854166666646,"velocity":0.8031496062992126,"duration":0.6783854166666856},{"name":"F4","midi":65,"time":156.9296874999998,"velocity":0.8031496062992126,"duration":0.35546875},{"name":"F4","midi":65,"time":157.31380208333314,"velocity":0.8031496062992126,"duration":4.048177083333343},{"name":"A3","midi":57,"time":157.31380208333314,"velocity":0.8031496062992126,"duration":4.048177083333343},{"name":"F2","midi":41,"time":157.31380208333314,"velocity":0.8031496062992126,"duration":4.048177083333343}],"controlChanges":{"7":[{"number":7,"time":0,"value":0.7874015748031497}]},"id":1,"name":"Piano 1","instrumentNumber":6,"instrument":"harpsichord","instrumentFamily":"piano","channelNumber":0,"isPercussion":false}]}