{"header":{"PPQ":384,"bpm":117.000117000117,"name":""},"startTime":0,"duration":137.01909374999948,"tracks":[{"startTime":0,"duration":137.01909374999948,"length":499,"notes":[{"name":"G5","midi":79,"time":0,"velocity":0.4645669291338583,"duration":0.42601453124999994},{"name":"G3","midi":55,"time":0.017361093749999997,"velocity":0.2125984251968504,"duration":3.263885625},{"name":"G5","midi":79,"time":0.9815695312499999,"velocity":0.5196850393700787,"duration":0.9481828124999998},{"name":"B3","midi":59,"time":1.0069434375,"velocity":0.1968503937007874,"duration":1.2286312499999998},{"name":"A5","midi":81,"time":1.9297523437499997,"velocity":0.4645669291338583,"duration":0.10817296874999993},{"name":"D4","midi":62,"time":1.9858420312499998,"velocity":0.2125984251968504,"duration":1.64129109375},{"name":"G5","midi":79,"time":2.0686410937499997,"velocity":0.4330708661417323,"duration":0.16693359375000005},{"name":"A5","midi":81,"time":2.2248909374999997,"velocity":0.30708661417322836,"duration":0.7024565625000001},{"name":"B5","midi":83,"time":2.9273474999999998,"velocity":0.36220472440944884,"duration":0.40865343749999994},{"name":"A5","midi":81,"time":3.27590484375,"velocity":0.41732283464566927,"duration":0.6917728125},{"name":"F#3","midi":54,"time":3.2879240624999997,"velocity":0.29133858267716534,"duration":3.534985781249999},{"name":"G5","midi":79,"time":3.8835431249999997,"velocity":0.5118110236220472,"duration":0.3311962500000001},{"name":"F#5","midi":78,"time":4.16265609375,"velocity":0.48031496062992124,"duration":0.3672539062500002},{"name":"E5","midi":76,"time":4.52056171875,"velocity":0.4251968503937008,"duration":0.6276703125000003},{"name":"A3","midi":57,"time":4.56062578125,"velocity":0.25984251968503935,"duration":1.1872317187499997},{"name":"D5","midi":74,"time":5.1041615625,"velocity":0.2440944881889764,"duration":1.3194431249999994},{"name":"D4","midi":62,"time":5.818637343749999,"velocity":0.09448818897637795,"duration":2.473288124999999},{"name":"G4","midi":67,"time":6.923069999999999,"velocity":0.23622047244094488,"duration":0.19230750000000008},{"name":"E3","midi":52,"time":6.967140468749999,"velocity":0.2755905511811024,"duration":3.2852531249999988},{"name":"F#4","midi":66,"time":7.115377499999999,"velocity":0.4094488188976378,"duration":0.23771343750000007},{"name":"G4","midi":67,"time":7.333058906249999,"velocity":0.3464566929133858,"duration":0.6944437499999996},{"name":"A4","midi":69,"time":8.027502656249998,"velocity":0.3937007874015748,"duration":0.17227546874999966},{"name":"G3","midi":55,"time":8.063560312499998,"velocity":0.25196850393700787,"duration":1.1738770312500009},{"name":"G4","midi":67,"time":8.209126406249998,"velocity":0.5118110236220472,"duration":0.08279906249999947},{"name":"F#4","midi":66,"time":8.350686093749998,"velocity":0.3937007874015748,"duration":0.14155968750000092},{"name":"G4","midi":67,"time":8.481562031249998,"velocity":0.4645669291338583,"duration":0.19230750000000008},{"name":"A4","midi":69,"time":8.704585312499999,"velocity":0.3779527559055118,"duration":0.08680546875000061},{"name":"G4","midi":67,"time":8.83946765625,"velocity":0.2204724409448819,"duration":0.06410250000000062},{"name":"A4","midi":69,"time":8.96233078125,"velocity":0.3779527559055118,"duration":0.06276703125000083},{"name":"G4","midi":67,"time":9.05848453125,"velocity":0.33858267716535434,"duration":0.07879265625000009},{"name":"C#4","midi":61,"time":9.11724515625,"velocity":0.25984251968503935,"duration":1.1939090624999995},{"name":"A4","midi":69,"time":9.11724515625,"velocity":0.5433070866141733,"duration":0.08146359374999967},{"name":"G4","midi":67,"time":9.22141171875,"velocity":0.14173228346456693,"duration":0.05876062499999968},{"name":"A4","midi":69,"time":9.308217187499999,"velocity":0.4330708661417323,"duration":0.050747812499999156},{"name":"G4","midi":67,"time":9.366977812499998,"velocity":0.5354330708661418,"duration":0.06410250000000062},{"name":"A4","midi":69,"time":9.445770468749998,"velocity":0.48031496062992124,"duration":0.0894764062500002},{"name":"G4","midi":67,"time":9.54192421875,"velocity":0.49606299212598426,"duration":0.1348823437500002},{"name":"F#4","midi":66,"time":9.680812968749999,"velocity":0.41732283464566927,"duration":0.29914499999999933},{"name":"G4","midi":67,"time":9.969274218749998,"velocity":0.41732283464566927,"duration":0.3004804687500009},{"name":"A4","midi":69,"time":10.3018059375,"velocity":0.3543307086614173,"duration":0.12954046874999925},{"name":"D3","midi":50,"time":10.33519265625,"velocity":0.25196850393700787,"duration":3.2425181249999984},{"name":"G4","midi":67,"time":10.4727459375,"velocity":0.29133858267716534,"duration":0.11485031249999977},{"name":"F#4","midi":66,"time":10.6062928125,"velocity":0.4330708661417323,"duration":0.3258543750000005},{"name":"G4","midi":67,"time":10.96019203125,"velocity":0.4409448818897638,"duration":0.14690156250000008},{"name":"F#4","midi":66,"time":11.100416249999999,"velocity":0.48031496062992124,"duration":0.1669335937500005},{"name":"E4","midi":64,"time":11.267349843749999,"velocity":0.49606299212598426,"duration":0.24973265624999996},{"name":"E4","midi":64,"time":11.62792640625,"velocity":0.3543307086614173,"duration":0.6143156249999997},{"name":"F#3","midi":54,"time":11.7067190625,"velocity":0.1968503937007874,"duration":1.3421460937499994},{"name":"D4","midi":62,"time":12.256932187499999,"velocity":0.3228346456692913,"duration":1.6065689062499988},{"name":"A3","midi":57,"time":12.8872734375,"velocity":0.23622047244094488,"duration":1.4062485937499982},{"name":"C3","midi":48,"time":13.588394531249998,"velocity":0.3543307086614173,"duration":0.6717407812499996},{"name":"D5","midi":74,"time":14.233425937499998,"velocity":0.6299212598425197,"duration":0.7585462499999984},{"name":"B2","midi":47,"time":14.254793437499998,"velocity":0.2440944881889764,"duration":3.028843124999998},{"name":"D5","midi":74,"time":15.353884218749997,"velocity":0.6456692913385826,"duration":0.9401699999999984},{"name":"D3","midi":50,"time":15.404632031249996,"velocity":0.23622047244094488,"duration":1.2166120312500013},{"name":"E5","midi":76,"time":16.334118281249996,"velocity":0.44881889763779526,"duration":0.13087593750000082},{"name":"G3","midi":55,"time":16.383530624999995,"velocity":0.2047244094488189,"duration":1.7254256249999997},{"name":"D5","midi":74,"time":16.483690781249997,"velocity":0.5196850393700787,"duration":0.13087593750000082},{"name":"E5","midi":76,"time":16.602547499999996,"velocity":0.4251968503937008,"duration":0.822648749999999},{"name":"F5","midi":77,"time":17.377119374999996,"velocity":0.49606299212598426,"duration":0.3899568749999993},{"name":"E5","midi":76,"time":17.700302812499995,"velocity":0.5511811023622047,"duration":0.6583860937499999},{"name":"C3","midi":48,"time":17.725676718749995,"velocity":0.28346456692913385,"duration":3.074249062499998},{"name":"D5","midi":74,"time":18.258528749999996,"velocity":0.3464566929133858,"duration":0.29647406249999975},{"name":"C5","midi":72,"time":18.555002812499996,"velocity":0.3543307086614173,"duration":0.2136749999999985},{"name":"B4","midi":71,"time":18.895547343749996,"velocity":0.33070866141732286,"duration":0.586270781249997},{"name":"E3","midi":52,"time":18.927598593749995,"velocity":0.2440944881889764,"duration":1.127135625000001},{"name":"A4","midi":69,"time":19.475140781249994,"velocity":0.28346456692913385,"duration":1.3394751562499998},{"name":"A3","midi":57,"time":20.088120937499994,"velocity":0.25196850393700787,"duration":1.6639940624999987},{"name":"D3","midi":50,"time":20.766539062499994,"velocity":0.3228346456692913,"duration":0.6276703124999976},{"name":"G5","midi":79,"time":20.766539062499994,"velocity":0.4645669291338583,"duration":0.20032031249999704},{"name":"F#5","midi":78,"time":20.937479062499992,"velocity":0.5433070866141733,"duration":0.1268695312499979},{"name":"E5","midi":76,"time":21.06034218749999,"velocity":0.7244094488188977,"duration":0.1789528125000004},{"name":"F#5","midi":78,"time":21.20190187499999,"velocity":0.7165354330708661,"duration":0.19230750000000185},{"name":"G5","midi":79,"time":21.37951921874999,"velocity":0.7165354330708661,"duration":0.2003203125000006},{"name":"E3","midi":52,"time":21.394209374999992,"velocity":0.3937007874015748,"duration":0.647702343749998},{"name":"F#5","midi":78,"time":21.529091718749992,"velocity":0.6141732283464567,"duration":0.27510656249999954},{"name":"A5","midi":81,"time":21.952435312499993,"velocity":0.5905511811023622,"duration":0.33386718749999744},{"name":"C4","midi":60,"time":21.96311906249999,"velocity":0.3464566929133858,"duration":1.108439062500004},{"name":"C3","midi":48,"time":22.01653781249999,"velocity":0.2440944881889764,"duration":0.6797535937500037},{"name":"G5","midi":79,"time":22.19682609374999,"velocity":0.5511811023622047,"duration":0.2697646875000004},{"name":"F#5","midi":78,"time":22.594795781249992,"velocity":0.5039370078740157,"duration":0.2684292187500006},{"name":"D3","midi":50,"time":22.613492343749993,"velocity":0.3228346456692913,"duration":2.650905468750004},{"name":"E5","midi":76,"time":22.833844687499994,"velocity":0.5354330708661418,"duration":0.579593437499998},{"name":"D5","midi":74,"time":23.309271562499994,"velocity":0.5275590551181102,"duration":0.30982874999999765},{"name":"B3","midi":59,"time":23.342658281249992,"velocity":0.30708661417322836,"duration":0.30982874999999765},{"name":"C5","midi":72,"time":23.57770078124999,"velocity":0.6377952755905512,"duration":0.11885671874999915},{"name":"A3","midi":57,"time":23.66049984374999,"velocity":0.4015748031496063,"duration":0.36858937500000266},{"name":"C5","midi":72,"time":23.83411078124999,"velocity":0.3543307086614173,"duration":0.4059825000000039},{"name":"A5","midi":81,"time":24.046450312499992,"velocity":0.5905511811023622,"duration":1.0683750000000032},{"name":"G3","midi":55,"time":24.063811406249993,"velocity":0.3543307086614173,"duration":0.35122828125000183},{"name":"F#3","midi":54,"time":24.396343124999994,"velocity":0.33070866141732286,"duration":0.33920906250000016},{"name":"E3","midi":52,"time":24.760926093749994,"velocity":0.4094488188976378,"duration":0.2911321875000006},{"name":"C5","midi":72,"time":25.121502656249994,"velocity":0.5433070866141733,"duration":0.21901687500000122},{"name":"F#3","midi":54,"time":25.137528281249995,"velocity":0.2677165354330709,"duration":0.1549143750000006},{"name":"B4","midi":71,"time":25.586245781249996,"velocity":0.3464566929133858,"duration":0.2684292187500006},{"name":"G3","midi":55,"time":25.623638906249997,"velocity":0.18110236220472442,"duration":0.5435357812500001},{"name":"G2","midi":43,"time":25.623638906249997,"velocity":0.2125984251968504,"duration":2.6575828124999994},{"name":"G4","midi":67,"time":25.850668593749997,"velocity":0.3858267716535433,"duration":0.6209929687500022},{"name":"F#4","midi":66,"time":26.4315975,"velocity":0.3700787401574803,"duration":0.45272390625000014},{"name":"A3","midi":57,"time":26.4716615625,"velocity":0.2125984251968504,"duration":0.3138351562500006},{"name":"F#4","midi":66,"time":27.139395937499998,"velocity":0.3464566929133858,"duration":0.1989848437500008},{"name":"B3","midi":59,"time":27.183466406249998,"velocity":0.1968503937007874,"duration":3.5683725000000024},{"name":"G4","midi":67,"time":27.36108375,"velocity":0.4094488188976378,"duration":0.07745718749999853},{"name":"F#4","midi":66,"time":27.455902031249998,"velocity":0.25196850393700787,"duration":0.09214734374999978},{"name":"G4","midi":67,"time":27.570752343749998,"velocity":0.3464566929133858,"duration":2.556087187500001},{"name":"D3","midi":50,"time":28.217119218749996,"velocity":0.3700787401574803,"duration":0.49412343750000076},{"name":"E3","midi":52,"time":28.850131406249997,"velocity":0.3228346456692913,"duration":0.058760625000001454},{"name":"D3","midi":50,"time":28.915569374999997,"velocity":0.44881889763779526,"duration":0.06543796875000041},{"name":"E3","midi":52,"time":29.002374843749998,"velocity":0.48031496062992124,"duration":1.0857360937500005},{"name":"F#3","midi":54,"time":30.08410453125,"velocity":0.3779527559055118,"duration":0.5582259375000014},{"name":"B4","midi":71,"time":30.52748015625,"velocity":0.4330708661417323,"duration":0.8827448437500003},{"name":"G3","midi":55,"time":30.582234375,"velocity":0.2677165354330709,"duration":4.966608281250011},{"name":"B4","midi":71,"time":31.87363265625,"velocity":0.3937007874015748,"duration":1.124464687500005},{"name":"B3","midi":59,"time":31.91236125,"velocity":0.2047244094488189,"duration":1.3007465625000059},{"name":"C#5","midi":73,"time":33.06754171875001,"velocity":0.4094488188976378,"duration":0.12286312499999497},{"name":"E4","midi":64,"time":33.124966875000005,"velocity":0.28346456692913385,"duration":1.5291117187500092},{"name":"B4","midi":71,"time":33.213107812500006,"velocity":0.3858267716535433,"duration":0.17227546875000144},{"name":"C#5","midi":73,"time":33.351996562500005,"velocity":0.5118110236220472,"duration":0.8466871875000095},{"name":"D5","midi":74,"time":34.198683750000015,"velocity":0.49606299212598426,"duration":0.1335468750000004},{"name":"D5","midi":74,"time":34.519196250000014,"velocity":0.49606299212598426,"duration":0.4420401562499947},{"name":"A3","midi":57,"time":34.563266718750015,"velocity":0.2440944881889764,"duration":1.5972206249999914},{"name":"C#5","midi":73,"time":34.89846937500001,"velocity":0.4409448818897638,"duration":0.3659184374999995},{"name":"B4","midi":71,"time":35.22699468750001,"velocity":0.3700787401574803,"duration":0.31517062500000037},{"name":"A4","midi":69,"time":35.54216531250001,"velocity":0.3779527559055118,"duration":2.4265467187499894},{"name":"F#3","midi":54,"time":35.888051718750006,"velocity":0.15748031496062992,"duration":0.06810890624999644},{"name":"D5","midi":74,"time":35.894729062500005,"velocity":0.41732283464566927,"duration":2.3290574999999905},{"name":"G3","midi":55,"time":35.984205468750005,"velocity":0.4015748031496063,"duration":0.05341874999999874},{"name":"F#3","midi":54,"time":36.0443015625,"velocity":0.4094488188976378,"duration":0.06276703124999727},{"name":"G3","midi":55,"time":36.13377796875,"velocity":0.25984251968503935,"duration":0.1642626562500027},{"name":"F#3","midi":54,"time":36.160487343750006,"velocity":0.33070866141732286,"duration":0.5048071874999991},{"name":"E3","midi":52,"time":36.613211250000006,"velocity":0.3937007874015748,"duration":0.6436959374999915},{"name":"F#3","midi":54,"time":37.206159375,"velocity":0.3228346456692913,"duration":0.6156510937499959},{"name":"B3","midi":59,"time":37.827152343749994,"velocity":0.2992125984251969,"duration":0.6236639062500018},{"name":"G4","midi":67,"time":38.2024190625,"velocity":0.3858267716535433,"duration":0.803952187500002},{"name":"B4","midi":71,"time":38.310592031249996,"velocity":0.3937007874015748,"duration":0.8026167187500093},{"name":"E5","midi":76,"time":38.43345515625,"velocity":0.5354330708661418,"duration":0.7705654687500072},{"name":"E3","midi":52,"time":38.562995625,"velocity":0.36220472440944884,"duration":1.7588123437500158},{"name":"G5","midi":79,"time":38.6457946875,"velocity":0.6535433070866141,"duration":0.6984501562500043},{"name":"B3","midi":59,"time":39.31486453125,"velocity":0.36220472440944884,"duration":0.6891018750000057},{"name":"A5","midi":81,"time":39.77960765625001,"velocity":0.33858267716535434,"duration":0.05208328124999895},{"name":"G5","midi":79,"time":39.83169093750001,"velocity":0.5748031496062992,"duration":0.048076874999999575},{"name":"F#5","midi":78,"time":39.91315453125001,"velocity":0.4330708661417323,"duration":0.09081187499999999},{"name":"E4","midi":64,"time":39.96657328125001,"velocity":0.49606299212598426,"duration":1.666665000000009},{"name":"G5","midi":79,"time":40.01064375000001,"velocity":0.4330708661417323,"duration":0.24171984375000477},{"name":"A5","midi":81,"time":40.277737500000015,"velocity":0.4251968503937008,"duration":0.1041665624999979},{"name":"G5","midi":79,"time":40.43398734375001,"velocity":0.5118110236220472,"duration":0.11217937499999664},{"name":"E3","midi":52,"time":40.57554703125001,"velocity":0.47244094488188976,"duration":0.7491979687500034},{"name":"A5","midi":81,"time":40.598250000000014,"velocity":0.3464566929133858,"duration":0.06410249999999706},{"name":"G5","midi":79,"time":40.691732812500014,"velocity":0.4251968503937008,"duration":0.0747862500000025},{"name":"A5","midi":81,"time":40.781209218750014,"velocity":0.3937007874015748,"duration":0.08413453125000103},{"name":"G5","midi":79,"time":40.88003390625001,"velocity":0.5039370078740157,"duration":0.06677343749999665},{"name":"A5","midi":81,"time":40.96283296875001,"velocity":0.5511811023622047,"duration":0.06677343749999665},{"name":"G5","midi":79,"time":41.062993125000006,"velocity":0.5354330708661418,"duration":0.06677343749999665},{"name":"A5","midi":81,"time":41.163153281250004,"velocity":0.5433070866141733,"duration":0.06677343750000375},{"name":"F#3","midi":54,"time":41.18852718750001,"velocity":0.48031496062992124,"duration":0.6957792187500047},{"name":"G5","midi":79,"time":41.27933906250001,"velocity":0.5275590551181102,"duration":0.054754218750005634},{"name":"A5","midi":81,"time":41.356796250000016,"velocity":0.5275590551181102,"duration":0.10817296874999727},{"name":"G5","midi":79,"time":41.47965937500001,"velocity":0.49606299212598426,"duration":0.06410250000000417},{"name":"A5","midi":81,"time":41.56245843750001,"velocity":0.5669291338582677,"duration":0.14556609375000562},{"name":"G5","midi":79,"time":41.71737281250002,"velocity":0.5905511811023622,"duration":0.15357890624999726},{"name":"D4","midi":62,"time":41.85225515625002,"velocity":0.33858267716535434,"duration":0.7278304687499926},{"name":"F#5","midi":78,"time":41.860267968750016,"velocity":0.5590551181102362,"duration":0.33119624999999786},{"name":"G3","midi":55,"time":41.864274375000015,"velocity":0.28346456692913385,"duration":0.7398496874999978},{"name":"G5","midi":79,"time":42.16341937500001,"velocity":0.6850393700787402,"duration":0.220352343750001},{"name":"C#4","midi":61,"time":42.55604718750001,"velocity":0.2755905511811024,"duration":0.8733965624999982},{"name":"G5","midi":79,"time":42.56005359375001,"velocity":0.5826771653543307,"duration":0.8092940625000011},{"name":"A3","midi":57,"time":42.56539546875001,"velocity":0.33070866141732286,"duration":2.183491406249999},{"name":"F#5","midi":78,"time":43.29055500000001,"velocity":0.48031496062992124,"duration":0.3432154687500031},{"name":"D4","midi":62,"time":43.32928359375001,"velocity":0.25984251968503935,"duration":0.6770826562500005},{"name":"E5","midi":76,"time":43.633770468750015,"velocity":0.4645669291338583,"duration":0.16826906249999496},{"name":"D5","midi":74,"time":43.97565046875001,"velocity":0.44881889763779526,"duration":0.17494640625000102},{"name":"E4","midi":64,"time":44.035746562500016,"velocity":0.31496062992125984,"duration":2.28765796874999},{"name":"C#5","midi":73,"time":44.15460328125001,"velocity":0.4094488188976378,"duration":0.15357890624999726},{"name":"B4","midi":71,"time":44.30417578125001,"velocity":0.3858267716535433,"duration":0.17361093750000123},{"name":"C#5","midi":73,"time":44.46042562500001,"velocity":0.49606299212598426,"duration":1.613246249999996},{"name":"B3","midi":59,"time":44.74888687500001,"velocity":0.36220472440944884,"duration":0.6784181250000003},{"name":"A3","midi":57,"time":45.41662125000001,"velocity":0.41732283464566927,"duration":0.627670312499994},{"name":"E5","midi":76,"time":46.04429156250001,"velocity":0.6377952755905512,"duration":0.43669828124999555},{"name":"G3","midi":55,"time":46.08168468750001,"velocity":0.33070866141732286,"duration":0.647702343749998},{"name":"A5","midi":81,"time":46.698671250000004,"velocity":0.6850393700787402,"duration":0.5101490624999983},{"name":"F#3","midi":54,"time":46.75209000000001,"velocity":0.2992125984251969,"duration":3.46687687499999},{"name":"G5","midi":79,"time":47.03120296875001,"velocity":0.7007874015748031,"duration":0.36458296874999263},{"name":"F#5","midi":78,"time":47.3049740625,"velocity":0.6771653543307087,"duration":0.43669828125000265},{"name":"E5","midi":76,"time":47.61346734375,"velocity":0.7007874015748031,"duration":0.3966342187499947},{"name":"A3","midi":57,"time":47.9780503125,"velocity":0.23622047244094488,"duration":1.243321406249997},{"name":"D5","midi":74,"time":47.991405,"velocity":0.5669291338582677,"duration":0.3405445312499964},{"name":"A4","midi":69,"time":48.67382953125,"velocity":0.41732283464566927,"duration":0.7759073437499993},{"name":"D4","midi":62,"time":49.22137171875,"velocity":0.2125984251968504,"duration":2.5186940624999963},{"name":"B4","midi":71,"time":49.4577496875,"velocity":0.3700787401574803,"duration":0.13087593750000082},{"name":"C5","midi":72,"time":49.60331578125,"velocity":0.4566929133858268,"duration":0.615651093750003},{"name":"B4","midi":71,"time":50.46869953125,"velocity":0.30708661417322836,"duration":0.4420401562499947},{"name":"G3","midi":55,"time":50.508763593750004,"velocity":0.2204724409448819,"duration":3.7954021874999953},{"name":"A4","midi":69,"time":50.86132734375,"velocity":0.30708661417322836,"duration":0.3124996875000008},{"name":"G4","midi":67,"time":51.17382703125,"velocity":0.36220472440944884,"duration":0.3552346875000012},{"name":"F#4","midi":66,"time":51.50635875,"velocity":0.33070866141732286,"duration":0.5795934375000016},{"name":"E4","midi":64,"time":51.975108281249994,"velocity":0.3779527559055118,"duration":0.635683125000007},{"name":"B3","midi":59,"time":51.99781125,"velocity":0.15748031496062992,"duration":1.471686562500004},{"name":"D5","midi":74,"time":52.6147978125,"velocity":0.44881889763779526,"duration":0.40865343749999994},{"name":"C#5","midi":73,"time":52.956677812500004,"velocity":0.3543307086614173,"duration":1.2900628124999969},{"name":"E4","midi":64,"time":53.381356875,"velocity":0.30708661417322836,"duration":1.3421460937499958},{"name":"D5","midi":74,"time":54.2654371875,"velocity":0.28346456692913385,"duration":0.15624984375000395},{"name":"E5","midi":76,"time":54.4417190625,"velocity":0.5118110236220472,"duration":0.608973749999997},{"name":"F#4","midi":66,"time":54.869069062499996,"velocity":0.3779527559055118,"duration":1.4129259374999918},{"name":"D5","midi":74,"time":54.879752812499994,"velocity":0.44881889763779526,"duration":0.4580657812499993},{"name":"A3","midi":57,"time":54.927829687499994,"velocity":0.25196850393700787,"duration":4.368318281249991},{"name":"C#5","midi":73,"time":55.26036140624999,"velocity":0.5275590551181102,"duration":0.33119625000000497},{"name":"B4","midi":71,"time":55.56484828124999,"velocity":0.4566929133858268,"duration":0.297809531249996},{"name":"A4","midi":69,"time":55.84396124999999,"velocity":0.5275590551181102,"duration":0.3672539062499993},{"name":"G5","midi":79,"time":56.21522156249999,"velocity":0.49606299212598426,"duration":0.9308217187499963},{"name":"E4","midi":64,"time":56.302027031249985,"velocity":0.2755905511811024,"duration":1.1551804687500038},{"name":"B4","midi":71,"time":57.108650156249986,"velocity":0.30708661417322836,"duration":1.4369643749999952},{"name":"F#4","midi":66,"time":57.429162656249986,"velocity":0.2755905511811024,"duration":0.4166662499999987},{"name":"G4","midi":67,"time":57.845828906249984,"velocity":0.3858267716535433,"duration":2.967411562499997},{"name":"C#5","midi":73,"time":58.49887312499998,"velocity":0.4330708661417323,"duration":0.4553948437499997},{"name":"C#5","midi":73,"time":59.26676765624998,"velocity":0.33070866141732286,"duration":0.43402734375000307},{"name":"D3","midi":50,"time":59.337547499999985,"velocity":0.2755905511811024,"duration":4.667463281250008},{"name":"D5","midi":74,"time":59.67675656249998,"velocity":0.3228346456692913,"duration":0.8106295312500009},{"name":"E5","midi":76,"time":60.567514218749984,"velocity":0.30708661417322836,"duration":0.15357890624999726},{"name":"D5","midi":74,"time":60.75848624999998,"velocity":0.28346456692913385,"duration":0.1335468750000004},{"name":"C#5","midi":73,"time":60.95480015624998,"velocity":0.31496062992125984,"duration":0.07745718750000208},{"name":"C#5","midi":73,"time":61.285996406249986,"velocity":0.29133858267716534,"duration":0.7946039062500034},{"name":"F#4","midi":66,"time":61.296680156249984,"velocity":0.1732283464566929,"duration":2.735040000000005},{"name":"D5","midi":74,"time":62.09395499999999,"velocity":0.2755905511811024,"duration":1.9070493750000068},{"name":"A3","midi":57,"time":62.12600624999999,"velocity":0.16535433070866143,"duration":0.9575310937499992},{"name":"D4","midi":62,"time":63.03412499999999,"velocity":0.13385826771653545,"duration":1.069710468750003},{"name":"D4","midi":62,"time":65.43796874999998,"velocity":0.2125984251968504,"duration":2.9834371875000016},{"name":"A4","midi":69,"time":65.43796874999998,"velocity":0.31496062992125984,"duration":0.14423062500000583},{"name":"G4","midi":67,"time":65.59021218749999,"velocity":0.44881889763779526,"duration":0.1762818750000008},{"name":"A4","midi":69,"time":65.74779749999999,"velocity":0.3858267716535433,"duration":1.0376592187499938},{"name":"E4","midi":64,"time":66.67728374999999,"velocity":0.33070866141732286,"duration":0.6169865625000028},{"name":"B4","midi":71,"time":67.10463374999999,"velocity":0.2440944881889764,"duration":0.07478624999998829},{"name":"F#4","midi":66,"time":67.14202687499998,"velocity":0.2755905511811024,"duration":2.78578781249999},{"name":"A4","midi":69,"time":67.24619343749998,"velocity":0.33070866141732286,"duration":0.0600960937500048},{"name":"G4","midi":67,"time":67.33967624999998,"velocity":0.4251968503937008,"duration":0.07879265625000187},{"name":"A4","midi":69,"time":67.43983640624998,"velocity":0.4409448818897638,"duration":0.4286854687500039},{"name":"B4","midi":71,"time":67.90057312499998,"velocity":0.15748031496062992,"duration":0.056089687500005425},{"name":"A4","midi":69,"time":67.96868203124998,"velocity":0.5354330708661418,"duration":0.06276703125000438},{"name":"B4","midi":71,"time":68.05682296874998,"velocity":0.3779527559055118,"duration":0.06276703125000438},{"name":"A4","midi":69,"time":68.14229296874998,"velocity":0.44881889763779526,"duration":0.053418750000005844},{"name":"B4","midi":71,"time":68.2504659375,"velocity":0.25196850393700787,"duration":0.05341874999999163},{"name":"A4","midi":69,"time":68.28118171874999,"velocity":0.5669291338582677,"duration":0.06677343749998954},{"name":"B4","midi":71,"time":68.39870296874999,"velocity":0.2125984251968504,"duration":0.05341874999999163},{"name":"C4","midi":60,"time":68.41739953124998,"velocity":0.3937007874015748,"duration":1.4583318749999847},{"name":"A4","midi":69,"time":68.43743156249998,"velocity":0.5826771653543307,"duration":0.06143156250000459},{"name":"B4","midi":71,"time":68.53625624999998,"velocity":0.28346456692913385,"duration":0.11351484374999643},{"name":"A4","midi":69,"time":68.66846765624997,"velocity":0.5748031496062992,"duration":0.1028310937499981},{"name":"B4","midi":71,"time":68.76328593749997,"velocity":0.29133858267716534,"duration":0.12820499999999413},{"name":"A4","midi":69,"time":68.88614906249997,"velocity":0.48031496062992124,"duration":0.1762818750000008},{"name":"B4","midi":71,"time":69.07177921874997,"velocity":0.5039370078740157,"duration":0.13888874999999246},{"name":"C5","midi":72,"time":69.20265515624996,"velocity":0.6614173228346457,"duration":0.14289515624999183},{"name":"D5","midi":74,"time":69.34020843749995,"velocity":0.6377952755905512,"duration":0.15624984375000395},{"name":"E5","midi":76,"time":69.49645828124996,"velocity":0.6535433070866141,"duration":0.14155968750000625},{"name":"E5","midi":76,"time":69.76889390624996,"velocity":0.44881889763779526,"duration":0.38327953125002523},{"name":"B3","midi":59,"time":69.81429984374996,"velocity":0.2677165354330709,"duration":1.9377651562500233},{"name":"D5","midi":74,"time":70.10276109374998,"velocity":0.3464566929133858,"duration":0.34588640625000266},{"name":"C5","midi":72,"time":70.41926718749998,"velocity":0.3937007874015748,"duration":0.2537390624999887},{"name":"C4","midi":60,"time":70.48737609374997,"velocity":0.16535433070866143,"duration":0.6677343750000091},{"name":"B4","midi":71,"time":70.72108312499998,"velocity":0.2440944881889764,"duration":0.1789528125000004},{"name":"A4","midi":69,"time":71.06696953124998,"velocity":0.36220472440944884,"duration":0.3859504687499964},{"name":"D4","midi":62,"time":71.09234343749998,"velocity":0.2125984251968504,"duration":2.2783096875000126},{"name":"G4","midi":67,"time":71.43422343749998,"velocity":0.33858267716535434,"duration":1.5344535937500154},{"name":"A3","midi":57,"time":71.76007781249999,"velocity":0.31496062992125984,"duration":0.6129801562500035},{"name":"B3","midi":59,"time":72.38507718749999,"velocity":0.2755905511811024,"duration":1.1658642187500021},{"name":"G5","midi":79,"time":72.96867703125,"velocity":0.6692913385826772,"duration":0.41933718749999116},{"name":"F#5","midi":78,"time":73.54159312499999,"velocity":0.6220472440944882,"duration":0.43936921875000223},{"name":"C4","midi":60,"time":73.5976828125,"velocity":0.28346456692913385,"duration":1.9671454687499619},{"name":"E5","midi":76,"time":73.8861440625,"velocity":0.5826771653543307,"duration":0.6917728124999769},{"name":"E4","midi":64,"time":74.22268218749998,"velocity":0.41732283464566927,"duration":0.6543796874999828},{"name":"F#5","midi":78,"time":74.53384640624998,"velocity":0.6220472440944882,"duration":0.18696562499998493},{"name":"D#5","midi":75,"time":74.69143171874997,"velocity":0.6692913385826772,"duration":0.08547000000000082},{"name":"G4","midi":67,"time":74.89442296874996,"velocity":0.4015748031496063,"duration":1.1378193749999923},{"name":"D#5","midi":75,"time":74.89976484374996,"velocity":0.5039370078740157,"duration":0.17494640625000102},{"name":"E5","midi":76,"time":75.08405953124996,"velocity":0.6692913385826772,"duration":0.08680546875000061},{"name":"D#5","midi":75,"time":75.19757437499996,"velocity":0.5433070866141733,"duration":0.1175212499999958},{"name":"E5","midi":76,"time":75.29239265624996,"velocity":0.6535433070866141,"duration":1.6319428125000144},{"name":"B3","midi":59,"time":75.56883468749996,"velocity":0.47244094488188976,"duration":0.5876062500000074},{"name":"F#4","midi":66,"time":76.09768031249996,"velocity":0.4330708661417323,"duration":0.09481828124999936},{"name":"A3","midi":57,"time":76.15243453124997,"velocity":0.5039370078740157,"duration":1.4356289062500025},{"name":"G4","midi":67,"time":76.19650499999996,"velocity":0.6929133858267716,"duration":0.0600960937500048},{"name":"F#4","midi":66,"time":76.25660109374996,"velocity":0.4881889763779528,"duration":0.6837600000000066},{"name":"A5","midi":81,"time":76.87358765624997,"velocity":0.6535433070866141,"duration":0.2377134375000054},{"name":"E4","midi":64,"time":76.91899359374997,"velocity":0.6062992125984252,"duration":0.5702451562499959},{"name":"B5","midi":83,"time":77.11130109374997,"velocity":0.5984251968503937,"duration":0.1642626562500027},{"name":"A5","midi":81,"time":77.25286078124998,"velocity":0.6850393700787402,"duration":0.14155968749999204},{"name":"G5","midi":79,"time":77.38106578124997,"velocity":0.7952755905511811,"duration":0.22970062499999244},{"name":"D#4","midi":63,"time":77.48523234374997,"velocity":0.4094488188976378,"duration":0.8520290624999944},{"name":"B3","midi":59,"time":77.49992249999997,"velocity":0.30708661417322836,"duration":2.1460982812499907},{"name":"A5","midi":81,"time":77.58005062499997,"velocity":0.6141732283464567,"duration":1.0844006249999865},{"name":"E4","midi":64,"time":78.26113968749996,"velocity":0.3464566929133858,"duration":0.7037920312499892},{"name":"F#5","midi":78,"time":78.62572265624996,"velocity":0.3779527559055118,"duration":0.40331156249999367},{"name":"E5","midi":76,"time":78.96493171874995,"velocity":0.4094488188976378,"duration":0.5769225000000091},{"name":"F#4","midi":66,"time":78.98362828124995,"velocity":0.2677165354330709,"duration":2.4452432812500007},{"name":"D#5","midi":75,"time":79.44837140624996,"velocity":0.3228346456692913,"duration":1.477028437499996},{"name":"A3","midi":57,"time":79.67673656249995,"velocity":0.4094488188976378,"duration":0.5755870312499951},{"name":"G3","midi":55,"time":80.30440687499996,"velocity":0.3779527559055118,"duration":0.7732364062500068},{"name":"B4","midi":71,"time":80.94008999999996,"velocity":0.5118110236220472,"duration":0.8266551562499842},{"name":"F#3","midi":54,"time":80.98549593749996,"velocity":0.29133858267716534,"duration":0.6396895312499851},{"name":"E3","midi":52,"time":81.71866828124995,"velocity":0.30708661417322836,"duration":2.6923049999999904},{"name":"G5","midi":79,"time":81.72267468749995,"velocity":0.6850393700787402,"duration":1.0069434374999844},{"name":"A3","midi":57,"time":82.34366765624993,"velocity":0.3700787401574803,"duration":0.5876062500000074},{"name":"F#5","midi":78,"time":82.68955406249994,"velocity":0.5196850393700787,"duration":0.1776173437500006},{"name":"G3","midi":55,"time":83.02342124999994,"velocity":0.2992125984251969,"duration":0.06410249999998996},{"name":"F#5","midi":78,"time":83.03544046874994,"velocity":0.4881889763779528,"duration":0.4754268749999824},{"name":"A3","midi":57,"time":83.06749171874993,"velocity":0.3779527559055118,"duration":0.12686953124999434},{"name":"G3","midi":55,"time":83.18367749999993,"velocity":0.2992125984251969,"duration":0.6396895312499993},{"name":"E5","midi":76,"time":83.41471359374992,"velocity":0.5275590551181102,"duration":1.4102550000000065},{"name":"F#3","midi":54,"time":83.76059999999993,"velocity":0.3543307086614173,"duration":0.7959393750000174},{"name":"G3","midi":55,"time":84.47774671874994,"velocity":0.4015748031496063,"duration":1.526440781249974},{"name":"D3","midi":50,"time":84.50445609374994,"velocity":0.2283464566929134,"duration":1.4329579687499745},{"name":"B4","midi":71,"time":84.78623999999994,"velocity":0.5118110236220472,"duration":0.3832795312499826},{"name":"C5","midi":72,"time":85.14548109374992,"velocity":0.6850393700787402,"duration":0.21901687499999412},{"name":"B4","midi":71,"time":85.33511765624992,"velocity":0.6377952755905512,"duration":0.15892078124998932},{"name":"A4","midi":69,"time":85.47801281249991,"velocity":0.6614173228346457,"duration":0.15357890624999015},{"name":"B4","midi":71,"time":85.6142306249999,"velocity":0.41732283464566927,"duration":0.3151706250000075},{"name":"C3","midi":48,"time":85.86262781249991,"velocity":0.3700787401574803,"duration":2.6629246875000234},{"name":"G5","midi":79,"time":85.91070468749992,"velocity":0.6456692913385826,"duration":0.24171984375000477},{"name":"E5","midi":76,"time":86.08565109374992,"velocity":0.6692913385826772,"duration":0.3725957812500127},{"name":"F#5","midi":78,"time":86.62117406249993,"velocity":0.5196850393700787,"duration":0.24305531250000456},{"name":"A3","midi":57,"time":86.67058640624994,"velocity":0.33070866141732286,"duration":0.6089737500000041},{"name":"D#5","midi":75,"time":86.84553281249994,"velocity":0.48031496062992124,"duration":0.27110015625000017},{"name":"G3","midi":55,"time":87.32095968749994,"velocity":0.3858267716535433,"duration":0.06677343750000375},{"name":"D#5","midi":75,"time":87.33564984374993,"velocity":0.4645669291338583,"duration":0.3979696874999945},{"name":"A3","midi":57,"time":87.38105578124994,"velocity":0.3543307086614173,"duration":0.1188567187499956},{"name":"G3","midi":55,"time":87.48121593749994,"velocity":0.36220472440944884,"duration":0.6129801562499892},{"name":"E5","midi":76,"time":87.69756187499993,"velocity":0.5196850393700787,"duration":1.4970604687499929},{"name":"F#3","midi":54,"time":88.06748671874993,"velocity":0.3779527559055118,"duration":0.6637279687499955},{"name":"G3","midi":55,"time":88.81534921874993,"velocity":0.3779527559055118,"duration":0.8333324999999974},{"name":"B2","midi":47,"time":88.84873593749992,"velocity":0.2677165354330709,"duration":1.1511740624999902},{"name":"G4","midi":67,"time":89.15856468749993,"velocity":0.5433070866141733,"duration":0.45005296875000056},{"name":"F#4","midi":66,"time":89.55920531249993,"velocity":0.5039370078740157,"duration":0.355234687499987},{"name":"B3","midi":59,"time":89.60861765624993,"velocity":0.28346456692913385,"duration":0.5568904687499838},{"name":"E4","midi":64,"time":89.87704687499992,"velocity":0.5984251968503937,"duration":0.3445509375000029},{"name":"F#4","midi":66,"time":90.21492046874992,"velocity":0.5905511811023622,"duration":1.714741874999973},{"name":"A2","midi":45,"time":90.24830718749992,"velocity":0.30708661417322836,"duration":1.2833854687499695},{"name":"C3","midi":48,"time":90.86262281249991,"velocity":0.4330708661417323,"duration":0.7398496874999836},{"name":"E5","midi":76,"time":91.1791289062499,"velocity":0.6456692913385826,"duration":0.22569421874999307},{"name":"B2","midi":47,"time":91.5797695312499,"velocity":0.30708661417322836,"duration":0.8827448437499754},{"name":"E5","midi":76,"time":91.5797695312499,"velocity":0.5984251968503937,"duration":0.4019760937499939},{"name":"D#5","midi":75,"time":91.96304906249989,"velocity":0.5590551181102362,"duration":0.13488234374999308},{"name":"E5","midi":76,"time":92.22346546874988,"velocity":0.6535433070866141,"duration":0.13888874999999246},{"name":"F#5","midi":78,"time":92.32496109374988,"velocity":0.4330708661417323,"duration":0.15224343749999036},{"name":"G5","midi":79,"time":92.43313406249987,"velocity":0.6141732283464567,"duration":0.12954046874999392},{"name":"A2","midi":45,"time":92.50391390624986,"velocity":0.33858267716535434,"duration":0.7999457812499884},{"name":"A5","midi":81,"time":92.56267453124987,"velocity":0.5984251968503937,"duration":0.7986103124999886},{"name":"C5","midi":72,"time":92.56267453124987,"velocity":0.4645669291338583,"duration":0.46474312499999826},{"name":"G5","midi":79,"time":93.27047296874986,"velocity":0.4645669291338583,"duration":0.8052876562499875},{"name":"B4","midi":71,"time":93.28516312499985,"velocity":0.2283464566929134,"duration":0.5088135937499914},{"name":"B2","midi":47,"time":93.29451140624985,"velocity":0.30708661417322836,"duration":1.7414512499999688},{"name":"F#5","midi":78,"time":93.99429703124984,"velocity":0.4645669291338583,"duration":0.43536281249998865},{"name":"A4","midi":69,"time":94.00097437499984,"velocity":0.3779527559055118,"duration":2.3036835937499944},{"name":"D#3","midi":51,"time":94.01032265624984,"velocity":0.2677165354330709,"duration":0.627670312499987},{"name":"F#5","midi":78,"time":94.70209546874983,"velocity":0.47244094488188976,"duration":0.7171467187500014},{"name":"E3","midi":52,"time":94.71945656249983,"velocity":0.41732283464566927,"duration":2.5908093750000063},{"name":"E5","midi":76,"time":95.27768249999983,"velocity":0.49606299212598426,"duration":0.7264950000000141},{"name":"B2","midi":47,"time":95.60887874999983,"velocity":0.2755905511811024,"duration":0.9895823437500013},{"name":"F#5","midi":78,"time":96.01886765624984,"velocity":0.4330708661417323,"duration":0.1776173437500006},{"name":"D#5","midi":75,"time":96.20850421874984,"velocity":0.4881889763779528,"duration":0.056089687500005425},{"name":"D#5","midi":75,"time":96.58777734374983,"velocity":0.4251968503937008,"duration":0.7892620312499901},{"name":"G4","midi":67,"time":96.60246749999983,"velocity":0.36220472440944884,"duration":2.4772945312499814},{"name":"E2","midi":40,"time":96.63184781249983,"velocity":0.2440944881889764,"duration":1.7227546875000002},{"name":"E5","midi":76,"time":97.31026593749984,"velocity":0.4251968503937008,"duration":1.9083848437499853},{"name":"B2","midi":47,"time":97.33563984374983,"velocity":0.2440944881889764,"duration":0.836003437499997},{"name":"E3","midi":52,"time":98.07682499999983,"velocity":0.33070866141732286,"duration":0.7104693749999882},{"name":"D3","midi":50,"time":98.77794609374982,"velocity":0.4409448818897638,"duration":0.9041123437499863},{"name":"E5","midi":76,"time":99.63131062499981,"velocity":0.5905511811023622,"duration":1.0443365624999927},{"name":"C3","midi":48,"time":99.65000718749981,"velocity":0.3700787401574803,"duration":4.150636875000032},{"name":"D5","midi":74,"time":100.56480328124981,"velocity":0.47244094488188976,"duration":0.3712603124999987},{"name":"C5","midi":72,"time":100.8879867187498,"velocity":0.5433070866141733,"duration":0.3392090625000037},{"name":"B4","midi":71,"time":101.2352085937498,"velocity":0.36220472440944884,"duration":0.6757471875000078},{"name":"E3","midi":52,"time":101.2539051562498,"velocity":0.25984251968503935,"duration":1.311430312500022},{"name":"A4","midi":69,"time":101.91629765624981,"velocity":0.2992125984251969,"duration":1.4129259375000345},{"name":"A3","midi":57,"time":102.62676703124983,"velocity":0.2677165354330709,"duration":1.9511198437499928},{"name":"B4","midi":71,"time":103.25043093749984,"velocity":0.3700787401574803,"duration":0.3392090624999895},{"name":"C5","midi":72,"time":103.55625328124984,"velocity":0.6299212598425197,"duration":0.17494640625000102},{"name":"D5","midi":74,"time":103.90881703124984,"velocity":0.6220472440944882,"duration":0.21233953124999516},{"name":"B2","midi":47,"time":103.90881703124984,"velocity":0.2992125984251969,"duration":4.077186093749916},{"name":"C5","midi":72,"time":104.09578265624984,"velocity":0.6535433070866141,"duration":0.13621781249999287},{"name":"B4","midi":71,"time":104.23734234374983,"velocity":0.5039370078740157,"duration":0.148237031249991},{"name":"C5","midi":72,"time":104.52980999999983,"velocity":0.5984251968503937,"duration":0.21634593749998032},{"name":"F#3","midi":54,"time":104.54850656249982,"velocity":0.2992125984251969,"duration":0.4687495312499692},{"name":"B4","midi":71,"time":104.72745937499981,"velocity":0.47244094488188976,"duration":0.1308759374999937},{"name":"A4","midi":69,"time":104.8716899999998,"velocity":0.5826771653543307,"duration":0.20966859374999558},{"name":"A4","midi":69,"time":105.2376084374998,"velocity":0.3543307086614173,"duration":0.38728593749998197},{"name":"E3","midi":52,"time":105.2709951562498,"velocity":0.28346456692913385,"duration":0.30582234374999473},{"name":"G4","midi":67,"time":105.58082390624979,"velocity":0.3858267716535433,"duration":1.7735024999999638},{"name":"D3","midi":50,"time":105.59017218749979,"velocity":0.3779527559055118,"duration":0.3565701562499868},{"name":"E3","midi":52,"time":105.90267187499978,"velocity":0.47244094488188976,"duration":0.43536281249998865},{"name":"F#3","midi":54,"time":106.22986171874977,"velocity":0.4330708661417323,"duration":0.3846149999999966},{"name":"G3","midi":55,"time":106.57975453124978,"velocity":0.3700787401574803,"duration":0.3392090624999895},{"name":"F#3","midi":54,"time":106.90694437499977,"velocity":0.2755905511811024,"duration":0.44738203124998677},{"name":"A4","midi":69,"time":107.28621749999976,"velocity":0.4015748031496063,"duration":0.3979696874999945},{"name":"G3","midi":55,"time":107.31025593749976,"velocity":0.29133858267716534,"duration":1.3768682812499975},{"name":"B4","midi":71,"time":107.61340734374976,"velocity":0.5118110236220472,"duration":0.3872859374999962},{"name":"C5","midi":72,"time":107.93792624999976,"velocity":0.6220472440944882,"duration":0.35790562499998657},{"name":"A2","midi":45,"time":108.00069328124975,"velocity":0.36220472440944884,"duration":1.9083848437499853},{"name":"D5","midi":74,"time":108.26244515624975,"velocity":0.6377952755905512,"duration":0.41933718750000537},{"name":"C5","midi":72,"time":108.58963499999976,"velocity":0.5984251968503937,"duration":0.3579056250000008},{"name":"E3","midi":52,"time":108.62569265624975,"velocity":0.4094488188976378,"duration":0.6597215624999961},{"name":"B4","midi":71,"time":108.91949578124976,"velocity":0.4566929133858268,"duration":0.3512282812499876},{"name":"C5","midi":72,"time":109.25069203124976,"velocity":0.49606299212598426,"duration":0.37259578124998427},{"name":"A3","midi":57,"time":109.26538218749975,"velocity":0.44881889763779526,"duration":0.886751249999989},{"name":"A4","midi":69,"time":109.58188828124975,"velocity":0.5196850393700787,"duration":0.33119624999999075},{"name":"E4","midi":64,"time":109.89972984374974,"velocity":0.49606299212598426,"duration":1.0336528124999944},{"name":"G2","midi":43,"time":109.90907812499974,"velocity":0.4094488188976378,"duration":0.6583860937499963},{"name":"A4","midi":69,"time":110.21757140624975,"velocity":0.5905511811023622,"duration":0.3645829687499855},{"name":"C5","midi":72,"time":110.53407749999974,"velocity":0.5905511811023622,"duration":1.6720068749999797},{"name":"F#2","midi":42,"time":110.53941937499974,"velocity":0.47244094488188976,"duration":0.6343476562499859},{"name":"B4","midi":71,"time":110.85058359374973,"velocity":0.5118110236220472,"duration":0.3392090624999895},{"name":"E2","midi":40,"time":111.15239953124973,"velocity":0.4094488188976378,"duration":0.6917728124999911},{"name":"A4","midi":69,"time":111.15239953124973,"velocity":0.5039370078740157,"duration":0.3979696874999945},{"name":"G4","midi":67,"time":111.48092484374972,"velocity":0.4566929133858268,"duration":0.36324749999999995},{"name":"F#4","midi":66,"time":111.81879843749972,"velocity":0.36220472440944884,"duration":1.4917185937499937},{"name":"D2","midi":38,"time":111.85218515624972,"velocity":0.33858267716535434,"duration":0.7999457812500026},{"name":"D5","midi":74,"time":112.15400109374971,"velocity":0.5590551181102362,"duration":0.42067265625000516},{"name":"A2","midi":45,"time":112.48920374999972,"velocity":0.4330708661417323,"duration":0.6904373437500055},{"name":"C5","midi":72,"time":112.49588109374972,"velocity":0.5669291338582677,"duration":0.30048046874999557},{"name":"B4","midi":71,"time":112.78567781249971,"velocity":0.49606299212598426,"duration":0.3285253125000054},{"name":"D3","midi":50,"time":113.10485484374972,"velocity":0.4094488188976378,"duration":0.6730762499999798},{"name":"C5","midi":72,"time":113.10485484374972,"velocity":0.49606299212598426,"duration":0.37660218749998364},{"name":"A4","midi":69,"time":113.41334812499971,"velocity":0.5984251968503937,"duration":0.3352026562499901},{"name":"F#4","midi":66,"time":113.72050593749971,"velocity":0.5433070866141733,"duration":1.8322631249999688},{"name":"C3","midi":48,"time":113.72050593749971,"velocity":0.5433070866141733,"duration":0.653044218749983},{"name":"A4","midi":69,"time":114.0383474999997,"velocity":0.5984251968503937,"duration":0.3352026562499901},{"name":"B2","midi":47,"time":114.3401634374997,"velocity":0.30708661417322836,"duration":0.7411851562499834},{"name":"C5","midi":72,"time":114.3455053124997,"velocity":0.6614173228346457,"duration":0.33653812500000413},{"name":"E5","midi":76,"time":114.6940626562497,"velocity":0.5826771653543307,"duration":0.3432154687499889},{"name":"D5","midi":74,"time":115.00656234374969,"velocity":0.4094488188976378,"duration":0.3418799999999891},{"name":"A2","midi":45,"time":115.04128453124969,"velocity":0.31496062992125984,"duration":0.6677343749999949},{"name":"C5","midi":72,"time":115.34176499999968,"velocity":0.5039370078740157,"duration":0.3579056250000008},{"name":"B4","midi":71,"time":115.69967062499968,"velocity":0.4094488188976378,"duration":0.3819440624999828},{"name":"G2","midi":43,"time":115.71703171874968,"velocity":0.2755905511811024,"duration":0.8827448437499754},{"name":"G4","midi":67,"time":115.73305734374968,"velocity":0.13385826771653545,"duration":0.5395293749999865},{"name":"C5","midi":72,"time":116.04155062499967,"velocity":0.4566929133858268,"duration":0.3685893749999849},{"name":"D3","midi":50,"time":116.38343062499966,"velocity":0.33070866141732286,"duration":0.673076249999994},{"name":"B4","midi":71,"time":116.39411437499966,"velocity":0.2283464566929134,"duration":0.30448687499999494},{"name":"A4","midi":69,"time":116.67990468749966,"velocity":0.4015748031496063,"duration":0.33520265625000434},{"name":"G3","midi":55,"time":117.00442359374966,"velocity":0.4094488188976378,"duration":0.7144757812500018},{"name":"B4","midi":71,"time":117.00976546874966,"velocity":0.2992125984251969,"duration":0.9067832812500001},{"name":"G4","midi":67,"time":117.32360062499966,"velocity":0.4330708661417323,"duration":0.2791129687500131},{"name":"D4","midi":62,"time":117.62141015624967,"velocity":0.36220472440944884,"duration":0.5101490624999911},{"name":"F3","midi":53,"time":117.63342937499966,"velocity":0.4015748031496063,"duration":0.6610570312499817},{"name":"G4","midi":67,"time":117.94459359374966,"velocity":0.5196850393700787,"duration":0.33119624999999075},{"name":"E3","midi":52,"time":118.25442234374965,"velocity":0.3858267716535433,"duration":0.6517087499999832},{"name":"B4","midi":71,"time":118.25442234374965,"velocity":0.44881889763779526,"duration":0.3712603124999845},{"name":"G4","midi":67,"time":118.58962499999964,"velocity":0.5196850393700787,"duration":2.4559270312499564},{"name":"C5","midi":72,"time":118.89411187499964,"velocity":0.6220472440944882,"duration":0.3538992187500014},{"name":"D3","midi":50,"time":118.91013749999964,"velocity":0.4409448818897638,"duration":0.6169865624999886},{"name":"D5","midi":74,"time":119.18925046874963,"velocity":0.6299212598425197,"duration":0.34455093749998866},{"name":"E5","midi":76,"time":119.49640828124963,"velocity":0.5669291338582677,"duration":0.323183437499992},{"name":"C3","midi":48,"time":119.50041468749963,"velocity":0.5118110236220472,"duration":0.6730762499999798},{"name":"F5","midi":77,"time":119.80890796874962,"velocity":0.6220472440944882,"duration":0.3645829687499855},{"name":"E5","midi":76,"time":120.12942046874961,"velocity":0.5196850393700787,"duration":0.3285253124999912},{"name":"G3","midi":55,"time":120.15078796874961,"velocity":0.3858267716535433,"duration":0.614315624999989},{"name":"D5","midi":74,"time":120.43524281249961,"velocity":0.4881889763779528,"duration":0.32986078124999096},{"name":"E5","midi":76,"time":120.7570907812496,"velocity":0.49606299212598426,"duration":0.39262781249999534},{"name":"C4","midi":60,"time":120.7570907812496,"velocity":0.3779527559055118,"duration":0.6770826562499792},{"name":"C5","midi":72,"time":121.0816096874996,"velocity":0.49606299212598426,"duration":0.3525637499999874},{"name":"G4","midi":67,"time":121.38342562499959,"velocity":0.49606299212598426,"duration":0.5876062499999932},{"name":"B3","midi":59,"time":121.38342562499959,"velocity":0.4015748031496063,"duration":0.6049673437499905},{"name":"C5","midi":72,"time":121.68123515624958,"velocity":0.6614173228346457,"duration":0.3352026562499901},{"name":"E5","midi":76,"time":121.97770921874958,"velocity":0.6850393700787402,"duration":0.32051249999999243},{"name":"A3","midi":57,"time":121.98839296874958,"velocity":0.5118110236220472,"duration":0.6076382812499901},{"name":"C5","midi":72,"time":122.28219609374958,"velocity":0.6929133858267716,"duration":0.8560354687499938},{"name":"F#5","midi":78,"time":122.57733468749957,"velocity":0.6929133858267716,"duration":0.36458296874999974},{"name":"G3","midi":55,"time":122.59603124999957,"velocity":0.48031496062992124,"duration":0.6370185937499997},{"name":"G5","midi":79,"time":122.87514421874957,"velocity":0.7559055118110236,"duration":0.3685893749999991},{"name":"A5","midi":81,"time":123.21301781249957,"velocity":0.6535433070866141,"duration":0.34588640624998845},{"name":"F#3","midi":54,"time":123.21969515624957,"velocity":0.3464566929133858,"duration":0.7385142187499838},{"name":"C5","midi":72,"time":123.56958796874956,"velocity":0.6377952755905512,"duration":0.21367499999999495},{"name":"B4","midi":71,"time":123.82466249999955,"velocity":0.4645669291338583,"duration":0.04807687500000668},{"name":"C5","midi":72,"time":123.88742953124955,"velocity":0.5275590551181102,"duration":0.10683749999999748},{"name":"D3","midi":50,"time":123.95820937499956,"velocity":0.41732283464566927,"duration":0.7171467187500014},{"name":"B4","midi":71,"time":123.97156406249955,"velocity":0.5196850393700787,"duration":0.34722187500000246},{"name":"A4","midi":69,"time":124.26670265624955,"velocity":0.5748031496062992,"duration":0.3592410937500006},{"name":"B4","midi":71,"time":124.58721515624956,"velocity":0.5118110236220472,"duration":0.35122828125000183},{"name":"G3","midi":55,"time":124.60457624999955,"velocity":0.4015748031496063,"duration":0.797274843750003},{"name":"C5","midi":72,"time":124.91039859374956,"velocity":0.5669291338582677,"duration":0.3378735937499897},{"name":"D5","midi":74,"time":125.24827218749955,"velocity":0.4251968503937008,"duration":0.36191203125000015},{"name":"B3","midi":59,"time":125.26029140624955,"velocity":0.30708661417322836,"duration":0.7465270312499968},{"name":"G4","midi":67,"time":125.61018421874955,"velocity":0.4015748031496063,"duration":0.3552346875000012},{"name":"B4","midi":71,"time":125.97343171874955,"velocity":0.31496062992125984,"duration":0.3952987499999949},{"name":"D4","midi":62,"time":125.98945734374955,"velocity":0.23622047244094488,"duration":0.8920931249999882},{"name":"A4","midi":69,"time":126.33000187499955,"velocity":0.3464566929133858,"duration":0.33253171874999055},{"name":"G4","midi":67,"time":126.66653999999954,"velocity":0.3543307086614173,"duration":0.381944062499997},{"name":"D3","midi":50,"time":126.69458484374954,"velocity":0.2677165354330709,"duration":0.8907576562500026},{"name":"F#4","midi":66,"time":127.04848406249954,"velocity":0.3228346456692913,"duration":0.4887815624999945},{"name":"G4","midi":67,"time":127.51456265624954,"velocity":0.4094488188976378,"duration":2.235574687500005},{"name":"G3","midi":55,"time":127.53325921874954,"velocity":0.25196850393700787,"duration":3.369387656249998},{"name":"C4","midi":60,"time":127.94191265624954,"velocity":0.4094488188976378,"duration":0.40464703124999346},{"name":"B3","midi":59,"time":128.33988234374954,"velocity":0.29133858267716534,"duration":0.3832795312499968},{"name":"A3","midi":57,"time":128.68309781249954,"velocity":0.33070866141732286,"duration":0.4019760937499939},{"name":"B3","midi":59,"time":129.08507390624953,"velocity":0.3228346456692913,"duration":7.9113168749999545},{"name":"D4","midi":62,"time":129.60857765624954,"velocity":0.29133858267716534,"duration":0.7518689062500243},{"name":"G4","midi":67,"time":130.17882281249956,"velocity":0.11023622047244094,"duration":0.5835998437499939},{"name":"D3","midi":50,"time":130.20019031249956,"velocity":0.2125984251968504,"duration":1.5838659374999509},{"name":"F#4","midi":66,"time":130.73304234374956,"velocity":0.2125984251968504,"duration":0.40464703124996504},{"name":"F#4","midi":66,"time":131.7600178124995,"velocity":0.16535433070866143,"duration":1.7387803124999834},{"name":"G2","midi":43,"time":131.8174429687495,"velocity":0.2047244094488189,"duration":5.184289687499984},{"name":"G4","midi":67,"time":133.4894498437495,"velocity":0.1732283464566929,"duration":3.529643906249987}],"controlChanges":{"64":[{"number":64,"time":2.42521125,"value":0},{"number":64,"time":2.7123370312499997,"value":1},{"number":64,"time":3.402774375,"value":0},{"number":64,"time":3.68990015625,"value":1},{"number":64,"time":4.7155401562499994,"value":0},{"number":64,"time":5.45004796875,"value":1},{"number":64,"time":6.010944843749999,"value":0},{"number":64,"time":6.252664687499999,"value":1},{"number":64,"time":7.483966874999999,"value":0},{"number":64,"time":7.740376874999999,"value":1},{"number":64,"time":8.492245781249999,"value":0},{"number":64,"time":8.683217812499999,"value":1},{"number":64,"time":9.308217187499999,"value":0},{"number":64,"time":10.108162968749998,"value":1},{"number":64,"time":10.587596249999999,"value":0},{"number":64,"time":10.8760575,"value":1},{"number":64,"time":11.308749375,"value":0},{"number":64,"time":11.517082499999999,"value":1},{"number":64,"time":12.540051562499999,"value":0},{"number":64,"time":12.79779703125,"value":1},{"number":64,"time":13.564356093749998,"value":0},{"number":64,"time":13.871513906249998,"value":1},{"number":64,"time":14.638072968749997,"value":0},{"number":64,"time":14.925198749999996,"value":1},{"number":64,"time":16.766810156249996,"value":0},{"number":64,"time":17.119373906249997,"value":1},{"number":64,"time":17.744373281249995,"value":0},{"number":64,"time":18.108956249999995,"value":1},{"number":64,"time":18.960985312499993,"value":0},{"number":64,"time":19.358954999999995,"value":1},{"number":64,"time":19.663441874999993,"value":0},{"number":64,"time":19.905161718749994,"value":1},{"number":64,"time":21.408899531249993,"value":0},{"number":64,"time":21.728076562499993,"value":1},{"number":64,"time":22.19148421874999,"value":0},{"number":64,"time":22.41717843749999,"value":1},{"number":64,"time":22.816483593749993,"value":0},{"number":64,"time":23.056867968749994,"value":1},{"number":64,"time":23.504249999999992,"value":0},{"number":64,"time":23.69655749999999,"value":1},{"number":64,"time":24.01706999999999,"value":0},{"number":64,"time":24.626043749999994,"value":1},{"number":64,"time":24.786299999999994,"value":0},{"number":64,"time":24.994633124999993,"value":1},{"number":64,"time":25.121502656249994,"value":0},{"number":64,"time":25.264397812499997,"value":1},{"number":64,"time":25.647677343749997,"value":0},{"number":64,"time":26.129781562499996,"value":1},{"number":64,"time":27.26493,"value":0},{"number":64,"time":28.002108749999998,"value":1},{"number":64,"time":29.188004999999997,"value":0},{"number":64,"time":29.7462309375,"value":1},{"number":64,"time":30.64233046875,"value":0},{"number":64,"time":31.28335546875,"value":1},{"number":64,"time":32.04991453125,"value":0},{"number":64,"time":32.402478281250005,"value":1},{"number":64,"time":33.46016953125001,"value":0},{"number":64,"time":34.03575656250001,"value":1},{"number":64,"time":34.563266718750015,"value":0},{"number":64,"time":35.49141750000001,"value":1},{"number":64,"time":36.10039125,"value":0},{"number":64,"time":36.613211250000006,"value":1},{"number":64,"time":36.64392703125001,"value":0},{"number":64,"time":37.09264453125,"value":1},{"number":64,"time":37.317003281249995,"value":0},{"number":64,"time":37.637515781249995,"value":1},{"number":64,"time":37.94200265625,"value":0},{"number":64,"time":38.10225890625,"value":1},{"number":64,"time":38.5336153125,"value":0},{"number":64,"time":39.077151093750004,"value":1},{"number":64,"time":40.08543000000001,"value":0},{"number":64,"time":40.29376312500001,"value":1},{"number":64,"time":41.30204203125001,"value":0},{"number":64,"time":41.510375156250014,"value":1},{"number":64,"time":41.99247937500001,"value":0},{"number":64,"time":42.19814156250001,"value":1},{"number":64,"time":42.823140937500014,"value":0},{"number":64,"time":43.094241093750014,"value":1},{"number":64,"time":43.55898421875001,"value":0},{"number":64,"time":43.73526609375001,"value":1},{"number":64,"time":44.087829843750015,"value":0},{"number":64,"time":44.34423984375001,"value":1},{"number":64,"time":44.61534000000001,"value":0},{"number":64,"time":44.96656828125001,"value":1},{"number":64,"time":45.57554203125001,"value":0},{"number":64,"time":45.84797765625001,"value":1},{"number":64,"time":46.34477203125,"value":0},{"number":64,"time":46.5357440625,"value":1},{"number":64,"time":47.096640937500005,"value":0},{"number":64,"time":47.3530509375,"value":1},{"number":64,"time":47.991405,"value":0},{"number":64,"time":48.247814999999996,"value":1},{"number":64,"time":48.87147890625,"value":0},{"number":64,"time":49.129224375,"value":1},{"number":64,"time":49.3375575,"value":0},{"number":64,"time":49.560580781249996,"value":1},{"number":64,"time":49.86506765625,"value":0},{"number":64,"time":50.12147765625,"value":1},{"number":64,"time":50.6169365625,"value":0},{"number":64,"time":51.0816796875,"value":1},{"number":64,"time":51.17382703125,"value":0},{"number":64,"time":51.36880546875,"value":1},{"number":64,"time":51.434243437499994,"value":0},{"number":64,"time":51.5944996875,"value":1},{"number":64,"time":51.6425765625,"value":0},{"number":64,"time":51.80016187499999,"value":1},{"number":64,"time":51.94572796874999,"value":0},{"number":64,"time":52.521315,"value":1},{"number":64,"time":53.082211875,"value":0},{"number":64,"time":53.25849375,"value":1},{"number":64,"time":53.88215765625,"value":0},{"number":64,"time":54.090490781250004,"value":1},{"number":64,"time":55.16287218749999,"value":0},{"number":64,"time":55.40192109374999,"value":1},{"number":64,"time":55.65833109374999,"value":0},{"number":64,"time":55.835948437499994,"value":1},{"number":64,"time":55.91474109374999,"value":0},{"number":64,"time":56.07499734374999,"value":1},{"number":64,"time":56.26730484374999,"value":0},{"number":64,"time":56.714686874999984,"value":1},{"number":64,"time":57.49994249999999,"value":0},{"number":64,"time":57.562709531249986,"value":1},{"number":64,"time":58.12360640624998,"value":0},{"number":64,"time":58.202399062499985,"value":1},{"number":64,"time":58.26650156249998,"value":0},{"number":64,"time":58.77932156249998,"value":1},{"number":64,"time":59.35624406249998,"value":0},{"number":64,"time":60.26703374999998,"value":1},{"number":64,"time":61.468955624999985,"value":0},{"number":64,"time":61.77344249999999,"value":1},{"number":64,"time":62.07525843749999,"value":0},{"number":64,"time":62.76436031249999,"value":1},{"number":64,"time":63.16500093749999,"value":0},{"number":64,"time":63.80602593749999,"value":1},{"number":64,"time":65.05201828124999,"value":0},{"number":64,"time":65.59822499999999,"value":1},{"number":64,"time":65.69437874999998,"value":0},{"number":64,"time":66.33406828124998,"value":1},{"number":64,"time":67.29427031249999,"value":0},{"number":64,"time":67.63214390624998,"value":1},{"number":64,"time":68.39870296874999,"value":0},{"number":64,"time":68.86344609374997,"value":1},{"number":64,"time":68.95826437499997,"value":0},{"number":64,"time":69.64603078124996,"value":1},{"number":64,"time":69.99859453124998,"value":0},{"number":64,"time":70.28839124999999,"value":1},{"number":64,"time":70.62359390624997,"value":0},{"number":64,"time":70.86264281249998,"value":1},{"number":64,"time":71.18315531249998,"value":0},{"number":64,"time":71.50500328124998,"value":1},{"number":64,"time":71.69597531249998,"value":0},{"number":64,"time":72.11130609374999,"value":1},{"number":64,"time":72.39976734374999,"value":0},{"number":64,"time":72.73630546874999,"value":1},{"number":64,"time":74.11317374999999,"value":0},{"number":64,"time":74.40029953124998,"value":1},{"number":64,"time":75.76114218749996,"value":0},{"number":64,"time":75.88934718749995,"value":1},{"number":64,"time":76.36878046874996,"value":0},{"number":64,"time":76.60916484374997,"value":1},{"number":64,"time":77.55467671874997,"value":0},{"number":64,"time":78.12892828124997,"value":1},{"number":64,"time":78.35462249999996,"value":0},{"number":64,"time":78.59367140624997,"value":1},{"number":64,"time":78.94623515624995,"value":0},{"number":64,"time":79.47374531249996,"value":1},{"number":64,"time":79.53784781249996,"value":0},{"number":64,"time":79.87305046874995,"value":1},{"number":64,"time":80.59420359374995,"value":0},{"number":64,"time":80.83592343749996,"value":1},{"number":64,"time":81.08966249999996,"value":0},{"number":64,"time":81.29799562499996,"value":1},{"number":64,"time":81.81081562499993,"value":0},{"number":64,"time":82.41845390624994,"value":1},{"number":64,"time":83.28383765624993,"value":0},{"number":64,"time":83.61904031249992,"value":1},{"number":64,"time":84.01968093749993,"value":0},{"number":64,"time":84.26006531249993,"value":1},{"number":64,"time":84.69142171874994,"value":0},{"number":64,"time":84.94783171874992,"value":1},{"number":64,"time":85.93741406249991,"value":0},{"number":64,"time":86.40482812499992,"value":1},{"number":64,"time":86.74136624999994,"value":0},{"number":64,"time":87.04451765624994,"value":1},{"number":64,"time":87.49189968749994,"value":0},{"number":64,"time":88.05279656249994,"value":1},{"number":64,"time":88.24376859374993,"value":0},{"number":64,"time":88.46946281249993,"value":1},{"number":64,"time":89.01299859374993,"value":0},{"number":64,"time":89.22133171874992,"value":1},{"number":64,"time":89.64868171874993,"value":0},{"number":64,"time":89.84633109374992,"value":1},{"number":64,"time":90.55012312499991,"value":0},{"number":64,"time":90.8853257812499,"value":1},{"number":64,"time":91.6692459374999,"value":0},{"number":64,"time":91.9109657812499,"value":1},{"number":64,"time":92.59873218749986,"value":0},{"number":64,"time":93.04611421874986,"value":1},{"number":64,"time":93.36662671874986,"value":0},{"number":64,"time":93.76726734374985,"value":1},{"number":64,"time":94.08777984374984,"value":0},{"number":64,"time":94.39093124999984,"value":1},{"number":64,"time":95.36715890624983,"value":0},{"number":64,"time":95.94408140624984,"value":1},{"number":64,"time":96.79210406249983,"value":0},{"number":64,"time":97.84845984374982,"value":1},{"number":64,"time":98.08750874999983,"value":0},{"number":64,"time":98.37730546874982,"value":1},{"number":64,"time":98.87276437499982,"value":0},{"number":64,"time":99.33617203124982,"value":1},{"number":64,"time":99.8650176562498,"value":0},{"number":64,"time":100.29637406249981,"value":1},{"number":64,"time":101.4008067187498,"value":0},{"number":64,"time":101.73734484374981,"value":1},{"number":64,"time":102.10593421874981,"value":0},{"number":64,"time":102.42511124999982,"value":1},{"number":64,"time":102.85646765624983,"value":0},{"number":64,"time":103.11287765624984,"value":1},{"number":64,"time":104.10646640624984,"value":0},{"number":64,"time":104.34551531249983,"value":1},{"number":64,"time":104.68338890624982,"value":0},{"number":64,"time":104.9852048437498,"value":1},{"number":64,"time":105.3537942187498,"value":0},{"number":64,"time":107.83509515624976,"value":1},{"number":64,"time":107.97932578124976,"value":0},{"number":64,"time":108.25042593749976,"value":1},{"number":64,"time":108.29983828124975,"value":0},{"number":64,"time":108.54022265624975,"value":1},{"number":64,"time":108.68178234374976,"value":0},{"number":64,"time":109.54850156249975,"value":1},{"number":64,"time":109.96516781249974,"value":0},{"number":64,"time":110.25229359374974,"value":1},{"number":64,"time":110.62088296874973,"value":0},{"number":64,"time":110.92269890624974,"value":1},{"number":64,"time":111.26057249999972,"value":0},{"number":64,"time":111.53300812499972,"value":1},{"number":64,"time":111.74000578124972,"value":0},{"number":64,"time":112.47718453124972,"value":1},{"number":64,"time":112.55597718749972,"value":0},{"number":64,"time":112.79636156249971,"value":1},{"number":64,"time":112.84443843749972,"value":0},{"number":64,"time":113.02072031249972,"value":1},{"number":64,"time":113.19833765624972,"value":0},{"number":64,"time":113.43738656249971,"value":1},{"number":64,"time":113.8380271874997,"value":0},{"number":64,"time":114.0770760937497,"value":1},{"number":64,"time":114.1572042187497,"value":0},{"number":64,"time":114.3000993749997,"value":1},{"number":64,"time":114.4296398437497,"value":0},{"number":64,"time":115.51671140624968,"value":1},{"number":64,"time":115.59817499999969,"value":0},{"number":64,"time":116.04555703124967,"value":1},{"number":64,"time":116.11099499999966,"value":0},{"number":64,"time":116.84550281249966,"value":1},{"number":64,"time":117.03781031249966,"value":0},{"number":64,"time":117.55063031249966,"value":1},{"number":64,"time":117.66280968749966,"value":0},{"number":64,"time":117.91654874999966,"value":1},{"number":64,"time":117.96729656249966,"value":0},{"number":64,"time":118.17295874999965,"value":1},{"number":64,"time":118.30249921874965,"value":0},{"number":64,"time":118.52685796874964,"value":1},{"number":64,"time":118.60698609374964,"value":0},{"number":64,"time":118.79795812499964,"value":1},{"number":64,"time":118.94218874999963,"value":0},{"number":64,"time":119.18390859374963,"value":1},{"number":64,"time":119.26270124999964,"value":0},{"number":64,"time":119.47103437499963,"value":1},{"number":64,"time":119.55249796874962,"value":0},{"number":64,"time":119.82359812499962,"value":1},{"number":64,"time":119.85431390624962,"value":0},{"number":64,"time":120.08000812499961,"value":1},{"number":64,"time":120.14411062499961,"value":0},{"number":64,"time":120.6542596874996,"value":1},{"number":64,"time":120.7651035937496,"value":0},{"number":64,"time":121.0402101562496,"value":1},{"number":64,"time":121.08828703124959,"value":0},{"number":64,"time":121.2485432812496,"value":1},{"number":64,"time":121.42348968749958,"value":0},{"number":64,"time":121.69592531249958,"value":1},{"number":64,"time":122.60805046874957,"value":0},{"number":64,"time":122.86446046874957,"value":1},{"number":64,"time":122.94191765624957,"value":0},{"number":64,"time":123.12087046874957,"value":1},{"number":64,"time":123.26510109374956,"value":0},{"number":64,"time":123.52151109374957,"value":1},{"number":64,"time":123.90479062499955,"value":0},{"number":64,"time":125.84255578124956,"value":1},{"number":64,"time":125.87327156249955,"value":0},{"number":64,"time":126.48090984374954,"value":1},{"number":64,"time":126.60911484374954,"value":0},{"number":64,"time":129.89036156249955,"value":1},{"number":64,"time":130.08133359374955,"value":0},{"number":64,"time":130.41920718749955,"value":1},{"number":64,"time":130.81851234374955,"value":0},{"number":64,"time":131.13768937499952,"value":1},{"number":64,"time":133.6830928124995,"value":0},{"number":64,"time":134.1625260937495,"value":1},{"number":64,"time":135.01321968749951,"value":0},{"number":64,"time":135.2669587499995,"value":1},{"number":64,"time":136.3874170312495,"value":0},{"number":64,"time":139.99985999999947,"value":0}]},"id":0,"name":"","channelNumber":0,"isPercussion":false}]}