{"header":{"PPQ":240,"timeSignature":[4,4],"bpm":61.99999586666694,"name":"--------"},"startTime":0,"duration":91.73387708333378,"tracks":[{"startTime":0,"duration":0,"length":0,"notes":[],"controlChanges":{},"id":0,"name":"--------"},{"startTime":0.2419355,"duration":91.73387708333341,"length":324,"notes":[{"name":"D4","midi":62,"time":0.2419355,"velocity":0.7637795275590551,"duration":0.22580646666666668},{"name":"E4","midi":64,"time":0.483871,"velocity":0.7637795275590551,"duration":0.22580646666666665},{"name":"F#4","midi":66,"time":0.7258065,"velocity":0.7637795275590551,"duration":0.2258064666666667},{"name":"G4","midi":67,"time":0.9677420000000001,"velocity":0.7637795275590551,"duration":0.2258064666666666},{"name":"A4","midi":69,"time":1.2096775,"velocity":0.7637795275590551,"duration":0.2258064666666666},{"name":"A#4","midi":70,"time":1.4516129999999998,"velocity":0.7637795275590551,"duration":0.2258064666666666},{"name":"G4","midi":67,"time":1.6935484999999997,"velocity":0.7637795275590551,"duration":0.2258064666666666},{"name":"A4","midi":69,"time":1.9354839999999995,"velocity":0.7637795275590551,"duration":0.22580646666666682},{"name":"G4","midi":67,"time":2.1774194999999996,"velocity":0.7637795275590551,"duration":0.2258064666666666},{"name":"F#4","midi":66,"time":2.4193549999999995,"velocity":0.7637795275590551,"duration":0.2258064666666666},{"name":"E4","midi":64,"time":2.6612904999999993,"velocity":0.7637795275590551,"duration":0.2258064666666666},{"name":"D4","midi":62,"time":2.903225999999999,"velocity":0.7637795275590551,"duration":0.2258064666666666},{"name":"C5","midi":72,"time":3.145161499999999,"velocity":0.7637795275590551,"duration":0.2258064666666666},{"name":"A#4","midi":70,"time":3.387096999999999,"velocity":0.7637795275590551,"duration":0.2258064666666666},{"name":"A4","midi":69,"time":3.6290324999999988,"velocity":0.7637795275590551,"duration":0.2258064666666666},{"name":"G4","midi":67,"time":3.8709679999999986,"velocity":0.7637795275590551,"duration":0.2258064666666666},{"name":"F4","midi":65,"time":4.112903499999999,"velocity":0.7637795275590551,"duration":0.2258064666666666},{"name":"E4","midi":64,"time":4.354838999999999,"velocity":0.7637795275590551,"duration":0.2258064666666666},{"name":"D4","midi":62,"time":4.5967744999999995,"velocity":0.7637795275590551,"duration":0.2258064666666666},{"name":"C4","midi":60,"time":4.83871,"velocity":0.7637795275590551,"duration":0.2258064666666666},{"name":"A#4","midi":70,"time":5.0806455,"velocity":0.7637795275590551,"duration":0.2258064666666666},{"name":"A4","midi":69,"time":5.3225810000000005,"velocity":0.7637795275590551,"duration":0.2258064666666666},{"name":"G4","midi":67,"time":5.564516500000001,"velocity":0.7637795275590551,"duration":0.2258064666666666},{"name":"D5","midi":74,"time":5.806452000000001,"velocity":0.7637795275590551,"duration":0.2258064666666666},{"name":"C5","midi":72,"time":6.048387500000001,"velocity":0.7637795275590551,"duration":0.2258064666666666},{"name":"A#4","midi":70,"time":6.290323000000002,"velocity":0.7637795275590551,"duration":0.2258064666666666},{"name":"D5","midi":74,"time":6.532258500000002,"velocity":0.7637795275590551,"duration":0.2258064666666666},{"name":"C5","midi":72,"time":6.774194000000002,"velocity":0.7637795275590551,"duration":0.2258064666666666},{"name":"A#4","midi":70,"time":7.016129500000003,"velocity":0.7637795275590551,"duration":0.2258064666666666},{"name":"A4","midi":69,"time":7.258065000000003,"velocity":0.7637795275590551,"duration":0.2258064666666666},{"name":"C5","midi":72,"time":7.500000500000003,"velocity":0.7637795275590551,"duration":0.2258064666666666},{"name":"A#4","midi":70,"time":7.7419360000000035,"velocity":0.7637795275590551,"duration":0.2258064666666666},{"name":"A4","midi":69,"time":7.983871500000004,"velocity":0.7637795275590551,"duration":0.22580646666666748},{"name":"G4","midi":67,"time":8.225807000000005,"velocity":0.7637795275590551,"duration":0.2258064666666666},{"name":"A4","midi":69,"time":8.467742500000005,"velocity":0.7637795275590551,"duration":0.2258064666666666},{"name":"A#4","midi":70,"time":8.709678000000006,"velocity":0.7637795275590551,"duration":0.2258064666666666},{"name":"C5","midi":72,"time":8.951613500000006,"velocity":0.7637795275590551,"duration":0.2258064666666666},{"name":"D5","midi":74,"time":9.193549000000006,"velocity":0.7637795275590551,"duration":0.2258064666666666},{"name":"E5","midi":76,"time":9.435484500000006,"velocity":0.7637795275590551,"duration":0.2258064666666666},{"name":"F5","midi":77,"time":9.677420000000007,"velocity":0.7637795275590551,"duration":0.4516129333333332},{"name":"D5","midi":74,"time":10.161291000000007,"velocity":0.7637795275590551,"duration":0.8991936083333325},{"name":"D5","midi":74,"time":11.129033000000007,"velocity":0.7637795275590551,"duration":0.4516129333333332},{"name":"D#5","midi":75,"time":11.612904000000007,"velocity":0.7637795275590551,"duration":0.2258064666666666},{"name":"D5","midi":74,"time":11.854839500000008,"velocity":0.7637795275590551,"duration":0.2258064666666666},{"name":"C5","midi":72,"time":12.096775000000008,"velocity":0.7637795275590551,"duration":0.2258064666666666},{"name":"D5","midi":74,"time":12.338710500000008,"velocity":0.7637795275590551,"duration":0.2258064666666666},{"name":"D#5","midi":75,"time":12.580646000000009,"velocity":0.7637795275590551,"duration":0.4516129333333332},{"name":"E5","midi":76,"time":13.06451700000001,"velocity":0.7637795275590551,"duration":0.4516129333333332},{"name":"F5","midi":77,"time":13.54838800000001,"velocity":0.7637795275590551,"duration":0.2258064666666666},{"name":"E5","midi":76,"time":13.79032350000001,"velocity":0.7637795275590551,"duration":0.2258064666666666},{"name":"D5","midi":74,"time":14.03225900000001,"velocity":0.7637795275590551,"duration":0.2258064666666666},{"name":"E5","midi":76,"time":14.27419450000001,"velocity":0.7637795275590551,"duration":0.2258064666666666},{"name":"F5","midi":77,"time":14.516130000000011,"velocity":0.7637795275590551,"duration":0.4516129333333332},{"name":"F#5","midi":78,"time":15.000001000000012,"velocity":0.7637795275590551,"duration":0.4516129333333332},{"name":"G5","midi":79,"time":15.483872000000012,"velocity":0.7637795275590551,"duration":0.4516129333333332},{"name":"D5","midi":74,"time":15.967743000000013,"velocity":0.7637795275590551,"duration":0.22580646666666837},{"name":"C5","midi":72,"time":16.209678500000013,"velocity":0.7637795275590551,"duration":0.22580646666666837},{"name":"D5","midi":74,"time":16.451614000000014,"velocity":0.7637795275590551,"duration":0.22580646666666837},{"name":"D#5","midi":75,"time":16.693549500000014,"velocity":0.7637795275590551,"duration":0.22580646666666837},{"name":"F5","midi":77,"time":16.935485000000014,"velocity":0.7637795275590551,"duration":0.22580646666666837},{"name":"D5","midi":74,"time":17.177420500000014,"velocity":0.7637795275590551,"duration":0.22580646666666837},{"name":"D#5","midi":75,"time":17.419356000000015,"velocity":0.7637795275590551,"duration":0.22580646666666837},{"name":"D5","midi":74,"time":17.661291500000015,"velocity":0.7637795275590551,"duration":0.22580646666666837},{"name":"C5","midi":72,"time":17.903227000000015,"velocity":0.7637795275590551,"duration":0.22580646666666837},{"name":"A#4","midi":70,"time":18.145162500000016,"velocity":0.7637795275590551,"duration":0.22580646666666837},{"name":"A4","midi":69,"time":18.387098000000016,"velocity":0.7637795275590551,"duration":0.22580646666666837},{"name":"G5","midi":79,"time":18.629033500000016,"velocity":0.7637795275590551,"duration":0.22580646666666837},{"name":"F5","midi":77,"time":18.870969000000017,"velocity":0.7637795275590551,"duration":0.22580646666666837},{"name":"D#5","midi":75,"time":19.112904500000017,"velocity":0.7637795275590551,"duration":0.22580646666666837},{"name":"D5","midi":74,"time":19.354840000000017,"velocity":0.7637795275590551,"duration":0.22580646666666837},{"name":"C5","midi":72,"time":19.596775500000017,"velocity":0.7637795275590551,"duration":0.22580646666666837},{"name":"D5","midi":74,"time":19.838711000000018,"velocity":0.7637795275590551,"duration":0.22580646666666837},{"name":"E5","midi":76,"time":20.080646500000018,"velocity":0.7637795275590551,"duration":0.22580646666666837},{"name":"F5","midi":77,"time":20.32258200000002,"velocity":0.7637795275590551,"duration":0.22580646666666837},{"name":"G5","midi":79,"time":20.56451750000002,"velocity":0.7637795275590551,"duration":0.22580646666666837},{"name":"A5","midi":81,"time":20.80645300000002,"velocity":0.7637795275590551,"duration":0.22580646666666837},{"name":"F5","midi":77,"time":21.04838850000002,"velocity":0.7637795275590551,"duration":0.22580646666666837},{"name":"G5","midi":79,"time":21.29032400000002,"velocity":0.7637795275590551,"duration":0.22580646666666837},{"name":"F5","midi":77,"time":21.53225950000002,"velocity":0.7637795275590551,"duration":0.22580646666666837},{"name":"E5","midi":76,"time":21.77419500000002,"velocity":0.7637795275590551,"duration":0.22580646666666837},{"name":"D5","midi":74,"time":22.01613050000002,"velocity":0.7637795275590551,"duration":0.22580646666666837},{"name":"C#5","midi":73,"time":22.25806600000002,"velocity":0.7637795275590551,"duration":0.22580646666666837},{"name":"A#5","midi":82,"time":22.50000150000002,"velocity":0.7637795275590551,"duration":0.22580646666666837},{"name":"A5","midi":81,"time":22.74193700000002,"velocity":0.7637795275590551,"duration":0.22580646666666837},{"name":"G5","midi":79,"time":22.98387250000002,"velocity":0.7637795275590551,"duration":0.22580646666666837},{"name":"F5","midi":77,"time":23.225808000000022,"velocity":0.7637795275590551,"duration":0.07661290833333467},{"name":"G5","midi":79,"time":23.30645316666669,"velocity":0.7637795275590551,"duration":0.07661290833333467},{"name":"F5","midi":77,"time":23.387098333333356,"velocity":0.7637795275590551,"duration":0.7540323083333327},{"name":"G5","midi":79,"time":24.43548550000002,"velocity":0.7637795275590551,"duration":0.22580646666666837},{"name":"A5","midi":81,"time":24.67742100000002,"velocity":0.7637795275590551,"duration":0.22580646666666837},{"name":"A#5","midi":82,"time":24.91935650000002,"velocity":0.7637795275590551,"duration":0.22580646666666837},{"name":"C#5","midi":73,"time":25.16129200000002,"velocity":0.7637795275590551,"duration":0.22580646666666837},{"name":"D5","midi":74,"time":25.40322750000002,"velocity":0.7637795275590551,"duration":0.22580646666666837},{"name":"E5","midi":76,"time":25.64516300000002,"velocity":0.7637795275590551,"duration":0.22580646666666837},{"name":"D5","midi":74,"time":25.88709850000002,"velocity":0.7637795275590551,"duration":0.22580646666666837},{"name":"C#5","midi":73,"time":26.129034000000022,"velocity":0.7637795275590551,"duration":0.4516129333333332},{"name":"C5","midi":72,"time":26.612905000000023,"velocity":0.7637795275590551,"duration":0.4516129333333332},{"name":"B4","midi":71,"time":27.096776000000023,"velocity":0.7637795275590551,"duration":0.22580646666666837},{"name":"C5","midi":72,"time":27.338711500000024,"velocity":0.7637795275590551,"duration":0.22580646666666837},{"name":"D5","midi":74,"time":27.580647000000024,"velocity":0.7637795275590551,"duration":0.22580646666666837},{"name":"C5","midi":72,"time":27.822582500000024,"velocity":0.7637795275590551,"duration":0.22580646666666837},{"name":"B4","midi":71,"time":28.064518000000025,"velocity":0.7637795275590551,"duration":0.4516129333333332},{"name":"A#4","midi":70,"time":28.548389000000025,"velocity":0.7637795275590551,"duration":0.4516129333333332},{"name":"A4","midi":69,"time":29.032260000000026,"velocity":0.7637795275590551,"duration":0.4516129333333332},{"name":"D5","midi":74,"time":29.516131000000026,"velocity":0.7637795275590551,"duration":0.07661290833333467},{"name":"C#5","midi":73,"time":29.596776166666693,"velocity":0.7637795275590551,"duration":0.07661290833333467},{"name":"D5","midi":74,"time":29.67742133333336,"velocity":0.7637795275590551,"duration":0.7540323083333327},{"name":"C#5","midi":73,"time":30.483873000000028,"velocity":0.7637795275590551,"duration":0.4516129333333332},{"name":"A4","midi":69,"time":30.967744000000028,"velocity":0.7637795275590551,"duration":0.4516129333333332},{"name":"F5","midi":77,"time":31.45161500000003,"velocity":0.7637795275590551,"duration":0.07661290833333467},{"name":"E5","midi":76,"time":31.532260166666696,"velocity":0.7637795275590551,"duration":0.07661290833333467},{"name":"F5","midi":77,"time":31.612905333333362,"velocity":0.7637795275590551,"duration":0.7540323083333327},{"name":"E5","midi":76,"time":32.419357000000026,"velocity":0.7637795275590551,"duration":0.45161293333333674},{"name":"A4","midi":69,"time":32.90322800000003,"velocity":0.7637795275590551,"duration":0.45161293333333674},{"name":"A5","midi":81,"time":33.38709900000003,"velocity":0.7637795275590551,"duration":0.8991936083333343},{"name":"G5","midi":79,"time":34.35484100000003,"velocity":0.7637795275590551,"duration":0.9354839333333302},{"name":"F5","midi":77,"time":35.32258300000002,"velocity":0.7637795275590551,"duration":0.22580646666666837},{"name":"E5","midi":76,"time":35.56451850000003,"velocity":0.7637795275590551,"duration":0.22580646666666837},{"name":"F5","midi":77,"time":35.80645400000003,"velocity":0.7637795275590551,"duration":0.22580646666666837},{"name":"D5","midi":74,"time":36.048389500000035,"velocity":0.7637795275590551,"duration":0.22580646666666837},{"name":"E5","midi":76,"time":36.29032500000004,"velocity":0.7637795275590551,"duration":0.22580646666666837},{"name":"C#5","midi":73,"time":36.53226050000004,"velocity":0.7637795275590551,"duration":0.22580646666666837},{"name":"D5","midi":74,"time":36.774196000000046,"velocity":0.7637795275590551,"duration":0.22580646666666837},{"name":"E5","midi":76,"time":37.01613150000005,"velocity":0.7637795275590551,"duration":0.22580646666666127},{"name":"D5","midi":74,"time":37.09677666666671,"velocity":0.7637795275590551,"duration":0.22580646666666837},{"name":"C#5","midi":73,"time":37.177421833333376,"velocity":0.7637795275590551,"duration":0.22580646666666837},{"name":"D5","midi":74,"time":37.25806700000005,"velocity":0.7637795275590551,"duration":0.22580646666666127},{"name":"E5","midi":76,"time":37.50000250000004,"velocity":0.7637795275590551,"duration":0.22580646666666837},{"name":"E5","midi":76,"time":37.74193800000005,"velocity":0.7637795275590551,"duration":0.14919355833333015},{"name":"F5","midi":77,"time":37.82258316666671,"velocity":0.7637795275590551,"duration":0.14919355833333725},{"name":"E5","midi":76,"time":37.90322833333338,"velocity":0.7637795275590551,"duration":0.14919355833333725},{"name":"F5","midi":77,"time":37.98387350000005,"velocity":0.7637795275590551,"duration":0.14919355833333725},{"name":"E5","midi":76,"time":38.06451866666672,"velocity":0.7637795275590551,"duration":0.14919355833333725},{"name":"F5","midi":77,"time":38.14516383333339,"velocity":0.7637795275590551,"duration":0.14919355833333725},{"name":"E5","midi":76,"time":38.22580900000006,"velocity":0.7637795275590551,"duration":0.22580646666666837},{"name":"D5","midi":74,"time":38.467744500000066,"velocity":0.7637795275590551,"duration":0.22580646666666837},{"name":"D5","midi":74,"time":38.70968000000007,"velocity":0.7637795275590551,"duration":0.45161293333333674},{"name":"C5","midi":72,"time":39.19355100000007,"velocity":0.7637795275590551,"duration":0.22580646666666837},{"name":"A#4","midi":70,"time":39.435486500000074,"velocity":0.7637795275590551,"duration":0.22580646666666837},{"name":"A4","midi":69,"time":39.67742200000008,"velocity":0.7637795275590551,"duration":0.22580646666666837},{"name":"A#4","midi":70,"time":39.91935750000008,"velocity":0.7637795275590551,"duration":0.22580646666666837},{"name":"C5","midi":72,"time":40.161293000000086,"velocity":0.7637795275590551,"duration":0.22580646666666837},{"name":"A4","midi":69,"time":40.40322850000009,"velocity":0.7637795275590551,"duration":0.22580646666666837},{"name":"A#4","midi":70,"time":40.64516400000009,"velocity":0.7637795275590551,"duration":0.22580646666666837},{"name":"A4","midi":69,"time":40.8870995000001,"velocity":0.7637795275590551,"duration":0.22580646666666837},{"name":"G4","midi":67,"time":41.1290350000001,"velocity":0.7637795275590551,"duration":0.22580646666666837},{"name":"F4","midi":65,"time":41.370970500000105,"velocity":0.7637795275590551,"duration":0.22580646666666837},{"name":"E4","midi":64,"time":41.61290600000011,"velocity":0.7637795275590551,"duration":0.22580646666666837},{"name":"D5","midi":74,"time":41.85484150000011,"velocity":0.7637795275590551,"duration":0.22580646666666837},{"name":"C5","midi":72,"time":42.09677700000012,"velocity":0.7637795275590551,"duration":0.22580646666666837},{"name":"A#4","midi":70,"time":42.33871250000012,"velocity":0.7637795275590551,"duration":0.22580646666666837},{"name":"A4","midi":69,"time":42.580648000000124,"velocity":0.7637795275590551,"duration":0.22580646666666837},{"name":"G4","midi":67,"time":42.82258350000013,"velocity":0.7637795275590551,"duration":0.22580646666666837},{"name":"A4","midi":69,"time":43.06451900000013,"velocity":0.7637795275590551,"duration":0.22580646666666837},{"name":"B4","midi":71,"time":43.306454500000136,"velocity":0.7637795275590551,"duration":0.22580646666666837},{"name":"C5","midi":72,"time":43.54839000000014,"velocity":0.7637795275590551,"duration":0.07661290833333112},{"name":"B4","midi":71,"time":43.6290351666668,"velocity":0.7637795275590551,"duration":0.07661290833333112},{"name":"C5","midi":72,"time":43.709680333333466,"velocity":0.7637795275590551,"duration":1.032258133333336},{"name":"A4","midi":69,"time":44.75806750000014,"velocity":0.7637795275590551,"duration":0.22580646666666837},{"name":"B4","midi":71,"time":45.00000300000014,"velocity":0.7637795275590551,"duration":0.22580646666666837},{"name":"C5","midi":72,"time":45.241938500000145,"velocity":0.7637795275590551,"duration":0.22580646666666837},{"name":"D5","midi":74,"time":45.48387400000015,"velocity":0.7637795275590551,"duration":0.07661290833333112},{"name":"C5","midi":72,"time":45.56451916666681,"velocity":0.7637795275590551,"duration":0.07661290833333112},{"name":"D5","midi":74,"time":45.645164333333476,"velocity":0.7637795275590551,"duration":1.032258133333336},{"name":"G4","midi":67,"time":46.69355150000015,"velocity":0.7637795275590551,"duration":0.22580646666666837},{"name":"A4","midi":69,"time":46.93548700000015,"velocity":0.7637795275590551,"duration":0.22580646666666837},{"name":"B4","midi":71,"time":47.177422500000155,"velocity":0.7637795275590551,"duration":0.22580646666666837},{"name":"C5","midi":72,"time":47.41935800000016,"velocity":0.7637795275590551,"duration":0.22580646666666837},{"name":"D5","midi":74,"time":47.66129350000016,"velocity":0.7637795275590551,"duration":0.22580646666666837},{"name":"D#5","midi":75,"time":47.90322900000017,"velocity":0.7637795275590551,"duration":0.22580646666666837},{"name":"C5","midi":72,"time":48.14516450000017,"velocity":0.7637795275590551,"duration":0.22580646666666837},{"name":"D5","midi":74,"time":48.387100000000174,"velocity":0.7637795275590551,"duration":0.22580646666666837},{"name":"C5","midi":72,"time":48.62903550000018,"velocity":0.7637795275590551,"duration":0.22580646666666837},{"name":"A#4","midi":70,"time":48.87097100000018,"velocity":0.7637795275590551,"duration":0.22580646666666837},{"name":"A4","midi":69,"time":49.112906500000186,"velocity":0.7637795275590551,"duration":0.22580646666666837},{"name":"G4","midi":67,"time":49.35484200000019,"velocity":0.7637795275590551,"duration":0.22580646666666837},{"name":"F5","midi":77,"time":49.596777500000194,"velocity":0.7637795275590551,"duration":0.22580646666666837},{"name":"D#5","midi":75,"time":49.8387130000002,"velocity":0.7637795275590551,"duration":0.22580646666666837},{"name":"D5","midi":74,"time":50.0806485000002,"velocity":0.7637795275590551,"duration":0.22580646666666837},{"name":"C5","midi":72,"time":50.322584000000205,"velocity":0.7637795275590551,"duration":0.22580646666666837},{"name":"A#4","midi":70,"time":50.56451950000021,"velocity":0.7637795275590551,"duration":0.22580646666666837},{"name":"G#4","midi":68,"time":50.80645500000021,"velocity":0.7637795275590551,"duration":0.22580646666666837},{"name":"G4","midi":67,"time":51.04839050000022,"velocity":0.7637795275590551,"duration":0.22580646666666837},{"name":"F4","midi":65,"time":51.29032600000022,"velocity":0.7637795275590551,"duration":0.22580646666666837},{"name":"D#5","midi":75,"time":51.532261500000224,"velocity":0.7637795275590551,"duration":0.22580646666666837},{"name":"D5","midi":74,"time":51.77419700000023,"velocity":0.7637795275590551,"duration":0.22580646666666837},{"name":"C5","midi":72,"time":52.01613250000023,"velocity":0.7637795275590551,"duration":0.22580646666666837},{"name":"G5","midi":79,"time":52.258068000000236,"velocity":0.7637795275590551,"duration":0.22580646666666837},{"name":"F5","midi":77,"time":52.50000350000024,"velocity":0.7637795275590551,"duration":0.22580646666666837},{"name":"D#5","midi":75,"time":52.741939000000244,"velocity":0.7637795275590551,"duration":0.22580646666666837},{"name":"G5","midi":79,"time":52.98387450000025,"velocity":0.7637795275590551,"duration":0.22580646666666837},{"name":"F5","midi":77,"time":53.22581000000025,"velocity":0.7637795275590551,"duration":0.22580646666666837},{"name":"D#5","midi":75,"time":53.467745500000255,"velocity":0.7637795275590551,"duration":0.22580646666666837},{"name":"D5","midi":74,"time":53.70968100000026,"velocity":0.7637795275590551,"duration":0.22580646666666837},{"name":"F5","midi":77,"time":53.95161650000026,"velocity":0.7637795275590551,"duration":0.22580646666666837},{"name":"D#5","midi":75,"time":54.19355200000027,"velocity":0.7637795275590551,"duration":0.22580646666666837},{"name":"D5","midi":74,"time":54.43548750000027,"velocity":0.7637795275590551,"duration":0.22580646666666837},{"name":"C5","midi":72,"time":54.677423000000275,"velocity":0.7637795275590551,"duration":0.22580646666666837},{"name":"D5","midi":74,"time":54.91935850000028,"velocity":0.7637795275590551,"duration":0.22580646666666837},{"name":"D#5","midi":75,"time":55.16129400000028,"velocity":0.7637795275590551,"duration":0.22580646666666837},{"name":"F5","midi":77,"time":55.403229500000286,"velocity":0.7637795275590551,"duration":0.22580646666666837},{"name":"G5","midi":79,"time":55.64516500000029,"velocity":0.7637795275590551,"duration":0.22580646666666837},{"name":"G#5","midi":80,"time":55.887100500000294,"velocity":0.7637795275590551,"duration":0.22580646666666837},{"name":"B4","midi":71,"time":56.1290360000003,"velocity":0.7637795275590551,"duration":0.45161293333333674},{"name":"D5","midi":74,"time":56.6129070000003,"velocity":0.7637795275590551,"duration":0.45161293333333674},{"name":"F4","midi":65,"time":57.5806490000003,"velocity":0.7637795275590551,"duration":0.45161293333333674},{"name":"D#4","midi":63,"time":58.0645200000003,"velocity":0.7637795275590551,"duration":0.45161293333333674},{"name":"C5","midi":72,"time":58.5483910000003,"velocity":0.7637795275590551,"duration":0.45161293333333674},{"name":"D4","midi":62,"time":59.0322620000003,"velocity":0.7637795275590551,"duration":0.45161293333333674},{"name":"B4","midi":71,"time":59.5161330000003,"velocity":0.7637795275590551,"duration":0.22580646666666127},{"name":"C5","midi":72,"time":59.596778166666965,"velocity":0.7637795275590551,"duration":0.22580646666666837},{"name":"B4","midi":71,"time":59.67742333333363,"velocity":0.7637795275590551,"duration":0.22580646666666837},{"name":"A4","midi":69,"time":59.7580685000003,"velocity":0.7637795275590551,"duration":0.22580646666666127},{"name":"B4","midi":71,"time":59.8790362500003,"velocity":0.7637795275590551,"duration":0.22580646666666837},{"name":"C5","midi":72,"time":60.000004000000295,"velocity":0.7637795275590551,"duration":0.22580646666666837},{"name":"G4","midi":67,"time":60.2419395000003,"velocity":0.7637795275590551,"duration":0.22580646666666837},{"name":"C5","midi":72,"time":60.4838750000003,"velocity":0.7637795275590551,"duration":0.22580646666666837},{"name":"D5","midi":74,"time":60.72581050000031,"velocity":0.7637795275590551,"duration":0.22580646666666837},{"name":"D#5","midi":75,"time":60.96774600000031,"velocity":0.7637795275590551,"duration":0.22580646666666837},{"name":"D5","midi":74,"time":61.08871375000031,"velocity":0.7637795275590551,"duration":0.22580646666667548},{"name":"D#5","midi":75,"time":61.209681500000315,"velocity":0.7637795275590551,"duration":0.673387141666673},{"name":"C5","midi":72,"time":62.17742350000032,"velocity":0.7637795275590551,"duration":0.22580646666666837},{"name":"D5","midi":74,"time":62.41935900000033,"velocity":0.7637795275590551,"duration":0.22580646666666837},{"name":"D#5","midi":75,"time":62.66129450000033,"velocity":0.7637795275590551,"duration":0.22580646666666837},{"name":"F5","midi":77,"time":62.903230000000335,"velocity":0.7637795275590551,"duration":0.22580646666666837},{"name":"D#5","midi":75,"time":63.02419775000033,"velocity":0.7637795275590551,"duration":0.22580646666667548},{"name":"F5","midi":77,"time":63.14516550000034,"velocity":0.7637795275590551,"duration":1.177419433333334},{"name":"D#5","midi":75,"time":64.35484300000034,"velocity":0.7637795275590551,"duration":0.22580646666666837},{"name":"F5","midi":77,"time":64.43548816666701,"velocity":0.7637795275590551,"duration":0.22580646666665416},{"name":"D#5","midi":75,"time":64.51613333333368,"velocity":0.7637795275590551,"duration":0.22580646666665416},{"name":"D5","midi":74,"time":64.59677850000034,"velocity":0.7637795275590551,"duration":0.22580646666666837},{"name":"G5","midi":79,"time":64.83871400000034,"velocity":0.7637795275590551,"duration":0.22580646666666837},{"name":"F5","midi":77,"time":64.95968175000034,"velocity":0.7637795275590551,"duration":0.22580646666665416},{"name":"G5","midi":79,"time":65.08064950000033,"velocity":0.7637795275590551,"duration":0.45161293333332253},{"name":"F5","midi":77,"time":65.56452050000033,"velocity":0.7637795275590551,"duration":0.22580646666666837},{"name":"D#5","midi":75,"time":65.80645600000032,"velocity":0.7637795275590551,"duration":0.22580646666666837},{"name":"D5","midi":74,"time":66.04839150000032,"velocity":0.7637795275590551,"duration":0.22580646666666837},{"name":"C5","midi":72,"time":66.29032700000032,"velocity":0.7637795275590551,"duration":0.22580646666666837},{"name":"A#4","midi":70,"time":66.53226250000031,"velocity":0.7637795275590551,"duration":0.22580646666666837},{"name":"A4","midi":69,"time":66.77419800000031,"velocity":0.7637795275590551,"duration":0.22580646666666837},{"name":"G4","midi":67,"time":67.01613350000031,"velocity":0.7637795275590551,"duration":0.22580646666666837},{"name":"F#4","midi":66,"time":67.2580690000003,"velocity":0.7637795275590551,"duration":0.22580646666666837},{"name":"A4","midi":69,"time":67.5000045000003,"velocity":0.7637795275590551,"duration":0.22580646666666837},{"name":"D#4","midi":63,"time":67.7419400000003,"velocity":0.7637795275590551,"duration":0.22580646666666837},{"name":"D4","midi":62,"time":67.9838755000003,"velocity":0.7637795275590551,"duration":0.22580646666666837},{"name":"E4","midi":64,"time":68.22581100000029,"velocity":0.7637795275590551,"duration":0.22580646666666837},{"name":"F#4","midi":66,"time":68.46774650000029,"velocity":0.7637795275590551,"duration":0.22580646666666837},{"name":"G4","midi":67,"time":68.70968200000029,"velocity":0.7637795275590551,"duration":0.22580646666666837},{"name":"A4","midi":69,"time":68.95161750000028,"velocity":0.7637795275590551,"duration":0.22580646666666837},{"name":"A#4","midi":70,"time":69.19355300000028,"velocity":0.7637795275590551,"duration":0.22580646666666837},{"name":"G4","midi":67,"time":69.43548850000028,"velocity":0.7637795275590551,"duration":0.22580646666666837},{"name":"A4","midi":69,"time":69.67742400000027,"velocity":0.7637795275590551,"duration":0.22580646666666837},{"name":"G4","midi":67,"time":69.91935950000027,"velocity":0.7637795275590551,"duration":0.22580646666666837},{"name":"F#4","midi":66,"time":70.16129500000027,"velocity":0.7637795275590551,"duration":0.22580646666666837},{"name":"E4","midi":64,"time":70.40323050000026,"velocity":0.7637795275590551,"duration":0.22580646666666837},{"name":"D4","midi":62,"time":70.64516600000026,"velocity":0.7637795275590551,"duration":0.22580646666666837},{"name":"C5","midi":72,"time":70.88710150000026,"velocity":0.7637795275590551,"duration":0.22580646666666837},{"name":"A#4","midi":70,"time":71.12903700000025,"velocity":0.7637795275590551,"duration":0.22580646666666837},{"name":"A4","midi":69,"time":71.37097250000025,"velocity":0.7637795275590551,"duration":0.22580646666666837},{"name":"G4","midi":67,"time":71.61290800000025,"velocity":0.7637795275590551,"duration":0.22580646666666837},{"name":"F4","midi":65,"time":71.85484350000024,"velocity":0.7637795275590551,"duration":0.22580646666666837},{"name":"D#4","midi":63,"time":72.09677900000024,"velocity":0.7637795275590551,"duration":0.22580646666666837},{"name":"D4","midi":62,"time":72.33871450000024,"velocity":0.7637795275590551,"duration":0.22580646666666837},{"name":"C4","midi":60,"time":72.58065000000023,"velocity":0.7637795275590551,"duration":0.22580646666666837},{"name":"A#4","midi":70,"time":72.82258550000023,"velocity":0.7637795275590551,"duration":0.22580646666666837},{"name":"A4","midi":69,"time":73.06452100000023,"velocity":0.7637795275590551,"duration":0.22580646666666837},{"name":"G4","midi":67,"time":73.30645650000022,"velocity":0.7637795275590551,"duration":0.22580646666666837},{"name":"D5","midi":74,"time":73.54839200000022,"velocity":0.7637795275590551,"duration":0.22580646666666837},{"name":"C5","midi":72,"time":73.79032750000022,"velocity":0.7637795275590551,"duration":0.22580646666666837},{"name":"A#4","midi":70,"time":74.03226300000021,"velocity":0.7637795275590551,"duration":0.22580646666666837},{"name":"D5","midi":74,"time":74.27419850000021,"velocity":0.7637795275590551,"duration":0.22580646666666837},{"name":"C5","midi":72,"time":74.5161340000002,"velocity":0.7637795275590551,"duration":0.22580646666666837},{"name":"A#4","midi":70,"time":74.7580695000002,"velocity":0.7637795275590551,"duration":0.22580646666666837},{"name":"A4","midi":69,"time":75.0000050000002,"velocity":0.7637795275590551,"duration":0.22580646666666837},{"name":"C5","midi":72,"time":75.2419405000002,"velocity":0.7637795275590551,"duration":0.22580646666666837},{"name":"A#4","midi":70,"time":75.4838760000002,"velocity":0.7637795275590551,"duration":0.22580646666666837},{"name":"A4","midi":69,"time":75.72581150000019,"velocity":0.7637795275590551,"duration":0.22580646666666837},{"name":"G4","midi":67,"time":75.96774700000019,"velocity":0.7637795275590551,"duration":0.22580646666666837},{"name":"A#4","midi":70,"time":76.20968250000018,"velocity":0.7637795275590551,"duration":0.22580646666666837},{"name":"A4","midi":69,"time":76.45161800000018,"velocity":0.7637795275590551,"duration":0.22580646666666837},{"name":"G4","midi":67,"time":76.69355350000018,"velocity":0.7637795275590551,"duration":0.22580646666666837},{"name":"F#4","midi":66,"time":76.93548900000017,"velocity":0.7637795275590551,"duration":0.22580646666666837},{"name":"A4","midi":69,"time":77.17742450000017,"velocity":0.7637795275590551,"duration":0.22580646666666837},{"name":"G4","midi":67,"time":77.41936000000017,"velocity":0.7637795275590551,"duration":0.22580646666666837},{"name":"A4","midi":69,"time":77.66129550000016,"velocity":0.7637795275590551,"duration":0.22580646666666837},{"name":"A#4","midi":70,"time":77.90323100000016,"velocity":0.7637795275590551,"duration":0.22580646666666837},{"name":"C5","midi":72,"time":78.14516650000016,"velocity":0.7637795275590551,"duration":0.22580646666666837},{"name":"D5","midi":74,"time":78.38710200000016,"velocity":0.7637795275590551,"duration":0.22580646666666837},{"name":"E5","midi":76,"time":78.62903750000015,"velocity":0.7637795275590551,"duration":0.22580646666666837},{"name":"F#5","midi":78,"time":78.87097300000015,"velocity":0.7637795275590551,"duration":0.22580646666666837},{"name":"G5","midi":79,"time":79.11290850000015,"velocity":0.7637795275590551,"duration":0.22580646666666837},{"name":"A5","midi":81,"time":79.35484400000014,"velocity":0.7637795275590551,"duration":0.22580646666666837},{"name":"F#5","midi":78,"time":79.59677950000014,"velocity":0.7637795275590551,"duration":0.22580646666666837},{"name":"G5","midi":79,"time":79.83871500000014,"velocity":0.7637795275590551,"duration":0.22580646666666837},{"name":"A5","midi":81,"time":80.08065050000013,"velocity":0.7637795275590551,"duration":0.22580646666666837},{"name":"D5","midi":74,"time":80.32258600000013,"velocity":0.7637795275590551,"duration":1.1935484666666696},{"name":"C5","midi":72,"time":81.53226350000013,"velocity":0.7637795275590551,"duration":0.22580646666666837},{"name":"D#5","midi":75,"time":81.77419900000012,"velocity":0.7637795275590551,"duration":0.22580646666666837},{"name":"D5","midi":74,"time":82.01613450000012,"velocity":0.7637795275590551,"duration":0.22580646666666837},{"name":"C5","midi":72,"time":82.25807000000012,"velocity":0.7637795275590551,"duration":0.22580646666666837},{"name":"A#4","midi":70,"time":82.50000550000011,"velocity":0.7637795275590551,"duration":0.22580646666666837},{"name":"A4","midi":69,"time":82.74194100000011,"velocity":0.7637795275590551,"duration":0.22580646666666837},{"name":"C5","midi":72,"time":82.98387650000011,"velocity":0.7637795275590551,"duration":0.22580646666666837},{"name":"F#4","midi":66,"time":83.2258120000001,"velocity":0.7637795275590551,"duration":0.22580646666666837},{"name":"A4","midi":69,"time":83.4677475000001,"velocity":0.7637795275590551,"duration":0.22580646666666837},{"name":"A#4","midi":70,"time":83.7096830000001,"velocity":0.7637795275590551,"duration":0.22580646666666837},{"name":"A4","midi":69,"time":83.9516185000001,"velocity":0.7637795275590551,"duration":0.22580646666666837},{"name":"G4","midi":67,"time":84.19355400000009,"velocity":0.7637795275590551,"duration":0.22580646666666837},{"name":"F4","midi":65,"time":84.43548950000009,"velocity":0.7637795275590551,"duration":0.22580646666666837},{"name":"D#4","midi":63,"time":84.67742500000008,"velocity":0.7637795275590551,"duration":0.22580646666666837},{"name":"G4","midi":67,"time":84.91936050000008,"velocity":0.7637795275590551,"duration":0.22580646666666837},{"name":"C#4","midi":61,"time":85.16129600000008,"velocity":0.7637795275590551,"duration":0.22580646666666837},{"name":"G4","midi":67,"time":85.40323150000008,"velocity":0.7637795275590551,"duration":0.22580646666666837},{"name":"A4","midi":69,"time":85.64516700000007,"velocity":0.7637795275590551,"duration":0.22580646666666837},{"name":"A#4","midi":70,"time":85.88710250000007,"velocity":0.7637795275590551,"duration":0.22580646666666837},{"name":"D4","midi":62,"time":86.12903800000007,"velocity":0.7637795275590551,"duration":0.22580646666666837},{"name":"A4","midi":69,"time":86.37097350000006,"velocity":0.7637795275590551,"duration":0.22580646666666837},{"name":"G4","midi":67,"time":86.61290900000006,"velocity":0.7637795275590551,"duration":0.07661290833333112},{"name":"A4","midi":69,"time":86.69355416666673,"velocity":0.7637795275590551,"duration":0.07661290833333112},{"name":"G4","midi":67,"time":86.7741993333334,"velocity":0.7637795275590551,"duration":0.07661290833333112},{"name":"F#4","midi":66,"time":86.85484450000007,"velocity":0.7637795275590551,"duration":0.22580646666666837},{"name":"G4","midi":67,"time":87.09678000000007,"velocity":0.7637795275590551,"duration":0.07661290833333112},{"name":"F#4","midi":66,"time":87.17742516666674,"velocity":0.7637795275590551,"duration":0.07661290833333112},{"name":"G4","midi":67,"time":87.25807033333341,"velocity":0.7637795275590551,"duration":4.475806750000004}],"controlChanges":{"7":[{"number":7,"time":0,"value":0.8661417322834646}],"10":[{"number":10,"time":0,"value":0.6220472440944882}]},"id":1,"name":"Harpsichord RH","instrumentNumber":6,"instrument":"harpsichord","instrumentFamily":"piano","channelNumber":0,"isPercussion":false},{"startTime":0,"duration":91.73387708333378,"length":296,"notes":[{"name":"G2","midi":43,"time":0,"velocity":0.7637795275590551,"duration":0.8991936083333334},{"name":"G3","midi":55,"time":1.451613,"velocity":0.7637795275590551,"duration":0.4516129333333334},{"name":"F#3","midi":54,"time":1.9354840000000002,"velocity":0.7637795275590551,"duration":0.2258064666666666},{"name":"G3","midi":55,"time":2.1774195,"velocity":0.7637795275590551,"duration":0.2258064666666666},{"name":"A3","midi":57,"time":2.419355,"velocity":0.7637795275590551,"duration":0.2258064666666666},{"name":"G3","midi":55,"time":2.6612905,"velocity":0.7637795275590551,"duration":0.2258064666666666},{"name":"F#3","midi":54,"time":2.9032259999999996,"velocity":0.7637795275590551,"duration":0.4516129333333332},{"name":"F3","midi":53,"time":3.3870969999999994,"velocity":0.7637795275590551,"duration":0.4516129333333332},{"name":"E3","midi":52,"time":3.870967999999999,"velocity":0.7637795275590551,"duration":0.22580646666666704},{"name":"F3","midi":53,"time":4.1129035,"velocity":0.7637795275590551,"duration":0.2258064666666666},{"name":"G3","midi":55,"time":4.354839,"velocity":0.7637795275590551,"duration":0.2258064666666666},{"name":"F3","midi":53,"time":4.5967745,"velocity":0.7637795275590551,"duration":0.2258064666666666},{"name":"E3","midi":52,"time":4.838710000000001,"velocity":0.7637795275590551,"duration":0.4516129333333332},{"name":"D#3","midi":51,"time":5.3225810000000005,"velocity":0.7637795275590551,"duration":0.4516129333333332},{"name":"D3","midi":50,"time":5.806452,"velocity":0.7637795275590551,"duration":0.4516129333333332},{"name":"G3","midi":55,"time":6.290323,"velocity":0.7637795275590551,"duration":0.0766129083333329},{"name":"F#3","midi":54,"time":6.370968166666666,"velocity":0.7637795275590551,"duration":0.0766129083333329},{"name":"G3","midi":55,"time":6.451613333333332,"velocity":0.7637795275590551,"duration":0.7540323083333336},{"name":"F#3","midi":54,"time":7.258064999999998,"velocity":0.7637795275590551,"duration":0.4516129333333332},{"name":"G3","midi":55,"time":7.741935999999998,"velocity":0.7637795275590551,"duration":0.2258064666666666},{"name":"D3","midi":50,"time":7.9838714999999985,"velocity":0.7637795275590551,"duration":0.22580646666666748},{"name":"E3","midi":52,"time":8.225807,"velocity":0.7637795275590551,"duration":0.2258064666666666},{"name":"F#3","midi":54,"time":8.4677425,"velocity":0.7637795275590551,"duration":0.2258064666666666},{"name":"G3","midi":55,"time":8.709678,"velocity":0.7637795275590551,"duration":0.2258064666666666},{"name":"A3","midi":57,"time":8.9516135,"velocity":0.7637795275590551,"duration":0.2258064666666666},{"name":"A#3","midi":58,"time":9.193549,"velocity":0.7637795275590551,"duration":0.2258064666666666},{"name":"G3","midi":55,"time":9.435484500000001,"velocity":0.7637795275590551,"duration":0.2258064666666666},{"name":"A3","midi":57,"time":9.677420000000001,"velocity":0.7637795275590551,"duration":0.2258064666666666},{"name":"G3","midi":55,"time":9.919355500000002,"velocity":0.7637795275590551,"duration":0.2258064666666666},{"name":"F3","midi":53,"time":10.161291000000002,"velocity":0.7637795275590551,"duration":0.2258064666666666},{"name":"E3","midi":52,"time":10.403226500000002,"velocity":0.7637795275590551,"duration":0.2258064666666666},{"name":"D3","midi":50,"time":10.645162000000003,"velocity":0.7637795275590551,"duration":0.2258064666666666},{"name":"C4","midi":60,"time":10.887097500000003,"velocity":0.7637795275590551,"duration":0.2258064666666666},{"name":"A#3","midi":58,"time":11.129033000000003,"velocity":0.7637795275590551,"duration":0.2258064666666666},{"name":"A3","midi":57,"time":11.370968500000004,"velocity":0.7637795275590551,"duration":0.2258064666666666},{"name":"G3","midi":55,"time":11.612904000000004,"velocity":0.7637795275590551,"duration":0.2258064666666666},{"name":"F3","midi":53,"time":11.854839500000004,"velocity":0.7637795275590551,"duration":0.2258064666666666},{"name":"D#3","midi":51,"time":12.096775000000004,"velocity":0.7637795275590551,"duration":0.2258064666666666},{"name":"D3","midi":50,"time":12.338710500000005,"velocity":0.7637795275590551,"duration":0.2258064666666666},{"name":"C3","midi":48,"time":12.580646000000005,"velocity":0.7637795275590551,"duration":0.2258064666666666},{"name":"A#3","midi":58,"time":12.822581500000005,"velocity":0.7637795275590551,"duration":0.2258064666666666},{"name":"A3","midi":57,"time":13.064517000000006,"velocity":0.7637795275590551,"duration":0.2258064666666666},{"name":"G3","midi":55,"time":13.306452500000006,"velocity":0.7637795275590551,"duration":0.2258064666666666},{"name":"D4","midi":62,"time":13.548388000000006,"velocity":0.7637795275590551,"duration":0.2258064666666666},{"name":"C4","midi":60,"time":13.790323500000007,"velocity":0.7637795275590551,"duration":0.2258064666666666},{"name":"A#3","midi":58,"time":14.032259000000007,"velocity":0.7637795275590551,"duration":0.2258064666666666},{"name":"D4","midi":62,"time":14.274194500000007,"velocity":0.7637795275590551,"duration":0.2258064666666666},{"name":"C4","midi":60,"time":14.516130000000008,"velocity":0.7637795275590551,"duration":0.2258064666666666},{"name":"A#3","midi":58,"time":14.758065500000008,"velocity":0.7637795275590551,"duration":0.2258064666666666},{"name":"A3","midi":57,"time":15.000001000000008,"velocity":0.7637795275590551,"duration":0.2258064666666666},{"name":"C4","midi":60,"time":15.241936500000008,"velocity":0.7637795275590551,"duration":0.2258064666666666},{"name":"A#3","midi":58,"time":15.483872000000009,"velocity":0.7637795275590551,"duration":0.2258064666666666},{"name":"A3","midi":57,"time":15.725807500000009,"velocity":0.7637795275590551,"duration":0.2258064666666666},{"name":"G3","midi":55,"time":15.96774300000001,"velocity":0.7637795275590551,"duration":0.22580646666666837},{"name":"A3","midi":57,"time":16.20967850000001,"velocity":0.7637795275590551,"duration":0.22580646666666837},{"name":"A#3","midi":58,"time":16.45161400000001,"velocity":0.7637795275590551,"duration":0.22580646666666837},{"name":"C4","midi":60,"time":16.69354950000001,"velocity":0.7637795275590551,"duration":0.22580646666666837},{"name":"D4","midi":62,"time":16.93548500000001,"velocity":0.7637795275590551,"duration":0.22580646666666837},{"name":"A#3","midi":58,"time":17.17742050000001,"velocity":0.7637795275590551,"duration":0.22580646666666837},{"name":"C4","midi":60,"time":17.41935600000001,"velocity":0.7637795275590551,"duration":0.4516129333333332},{"name":"D#3","midi":51,"time":17.90322700000001,"velocity":0.7637795275590551,"duration":0.4516129333333332},{"name":"F3","midi":53,"time":18.387098000000012,"velocity":0.7637795275590551,"duration":0.4516129333333332},{"name":"F2","midi":41,"time":18.870969000000013,"velocity":0.7637795275590551,"duration":0.4516129333333332},{"name":"A#2","midi":46,"time":19.354840000000014,"velocity":0.7637795275590551,"duration":0.4516129333333332},{"name":"A#3","midi":58,"time":19.838711000000014,"velocity":0.7637795275590551,"duration":0.4516129333333332},{"name":"A3","midi":57,"time":20.322582000000015,"velocity":0.7637795275590551,"duration":0.4516129333333332},{"name":"D4","midi":62,"time":20.806453000000015,"velocity":0.7637795275590551,"duration":0.4516129333333332},{"name":"A#3","midi":58,"time":21.290324000000016,"velocity":0.7637795275590551,"duration":0.4516129333333332},{"name":"G3","midi":55,"time":21.774195000000017,"velocity":0.7637795275590551,"duration":0.4516129333333332},{"name":"A3","midi":57,"time":22.258066000000017,"velocity":0.7637795275590551,"duration":0.22580646666666482},{"name":"G3","midi":55,"time":22.379033750000016,"velocity":0.7637795275590551,"duration":0.22580646666666482},{"name":"A3","midi":57,"time":22.500001500000014,"velocity":0.7637795275590551,"duration":0.22580646666666482},{"name":"A2","midi":45,"time":22.74193700000001,"velocity":0.7637795275590551,"duration":0.4516129333333332},{"name":"D2","midi":38,"time":23.22580800000001,"velocity":0.7637795275590551,"duration":0.22580646666666837},{"name":"A2","midi":45,"time":23.46774350000001,"velocity":0.7637795275590551,"duration":0.22580646666666837},{"name":"B2","midi":47,"time":23.709679000000012,"velocity":0.7637795275590551,"duration":0.22580646666666837},{"name":"C#3","midi":49,"time":23.951614500000012,"velocity":0.7637795275590551,"duration":0.22580646666666837},{"name":"D3","midi":50,"time":24.193550000000013,"velocity":0.7637795275590551,"duration":0.22580646666666837},{"name":"E3","midi":52,"time":24.435485500000013,"velocity":0.7637795275590551,"duration":0.22580646666666837},{"name":"F3","midi":53,"time":24.677421000000013,"velocity":0.7637795275590551,"duration":0.22580646666666837},{"name":"D3","midi":50,"time":24.919356500000013,"velocity":0.7637795275590551,"duration":0.22580646666666837},{"name":"E3","midi":52,"time":25.161292000000014,"velocity":0.7637795275590551,"duration":0.22580646666666837},{"name":"D3","midi":50,"time":25.403227500000014,"velocity":0.7637795275590551,"duration":0.22580646666666837},{"name":"C#3","midi":49,"time":25.645163000000014,"velocity":0.7637795275590551,"duration":0.22580646666666837},{"name":"B2","midi":47,"time":25.887098500000015,"velocity":0.7637795275590551,"duration":0.22580646666666837},{"name":"A2","midi":45,"time":26.129034000000015,"velocity":0.7637795275590551,"duration":0.22580646666666837},{"name":"G3","midi":55,"time":26.370969500000015,"velocity":0.7637795275590551,"duration":0.22580646666666837},{"name":"F3","midi":53,"time":26.612905000000016,"velocity":0.7637795275590551,"duration":0.22580646666666837},{"name":"E3","midi":52,"time":26.854840500000016,"velocity":0.7637795275590551,"duration":0.22580646666666837},{"name":"D3","midi":50,"time":27.096776000000016,"velocity":0.7637795275590551,"duration":0.22580646666666837},{"name":"C3","midi":48,"time":27.338711500000016,"velocity":0.7637795275590551,"duration":0.22580646666666837},{"name":"B2","midi":47,"time":27.580647000000017,"velocity":0.7637795275590551,"duration":0.22580646666666837},{"name":"A2","midi":45,"time":27.822582500000017,"velocity":0.7637795275590551,"duration":0.22580646666666837},{"name":"G2","midi":43,"time":28.064518000000017,"velocity":0.7637795275590551,"duration":0.22580646666666837},{"name":"F3","midi":53,"time":28.306453500000018,"velocity":0.7637795275590551,"duration":0.22580646666666837},{"name":"E3","midi":52,"time":28.548389000000018,"velocity":0.7637795275590551,"duration":0.22580646666666837},{"name":"D3","midi":50,"time":28.79032450000002,"velocity":0.7637795275590551,"duration":0.22580646666666837},{"name":"A3","midi":57,"time":29.03226000000002,"velocity":0.7637795275590551,"duration":0.22580646666666837},{"name":"G3","midi":55,"time":29.27419550000002,"velocity":0.7637795275590551,"duration":0.22580646666666837},{"name":"F3","midi":53,"time":29.51613100000002,"velocity":0.7637795275590551,"duration":0.22580646666666837},{"name":"A3","midi":57,"time":29.75806650000002,"velocity":0.7637795275590551,"duration":0.22580646666666837},{"name":"G3","midi":55,"time":30.00000200000002,"velocity":0.7637795275590551,"duration":0.22580646666666837},{"name":"F3","midi":53,"time":30.24193750000002,"velocity":0.7637795275590551,"duration":0.22580646666666837},{"name":"E3","midi":52,"time":30.48387300000002,"velocity":0.7637795275590551,"duration":0.22580646666666837},{"name":"G3","midi":55,"time":30.72580850000002,"velocity":0.7637795275590551,"duration":0.22580646666666837},{"name":"F3","midi":53,"time":30.96774400000002,"velocity":0.7637795275590551,"duration":0.22580646666666837},{"name":"E3","midi":52,"time":31.20967950000002,"velocity":0.7637795275590551,"duration":0.22580646666666837},{"name":"D3","midi":50,"time":31.45161500000002,"velocity":0.7637795275590551,"duration":0.22580646666666837},{"name":"F3","midi":53,"time":31.693550500000022,"velocity":0.7637795275590551,"duration":0.22580646666666837},{"name":"E3","midi":52,"time":31.935486000000022,"velocity":0.7637795275590551,"duration":0.22580646666666482},{"name":"D3","midi":50,"time":32.17742150000002,"velocity":0.7637795275590551,"duration":0.22580646666666837},{"name":"C#3","midi":49,"time":32.419357000000026,"velocity":0.7637795275590551,"duration":0.22580646666666837},{"name":"E3","midi":52,"time":32.66129250000003,"velocity":0.7637795275590551,"duration":0.22580646666666837},{"name":"D3","midi":50,"time":32.903228000000034,"velocity":0.7637795275590551,"duration":0.22580646666666837},{"name":"E3","midi":52,"time":33.14516350000004,"velocity":0.7637795275590551,"duration":0.22580646666666837},{"name":"F3","midi":53,"time":33.38709900000004,"velocity":0.7637795275590551,"duration":0.22580646666666837},{"name":"D3","midi":50,"time":33.629034500000046,"velocity":0.7637795275590551,"duration":0.22580646666666837},{"name":"G3","midi":55,"time":33.87097000000005,"velocity":0.7637795275590551,"duration":0.22580646666666837},{"name":"A3","midi":57,"time":34.11290550000005,"velocity":0.7637795275590551,"duration":0.22580646666666837},{"name":"A#3","midi":58,"time":34.35484100000006,"velocity":0.7637795275590551,"duration":0.22580646666666837},{"name":"G3","midi":55,"time":34.59677650000006,"velocity":0.7637795275590551,"duration":0.22580646666666837},{"name":"C#4","midi":61,"time":34.838712000000065,"velocity":0.7637795275590551,"duration":0.22580646666666837},{"name":"A3","midi":57,"time":35.08064750000007,"velocity":0.7637795275590551,"duration":0.22580646666666837},{"name":"B3","midi":59,"time":35.32258300000007,"velocity":0.7637795275590551,"duration":0.22580646666666837},{"name":"C#4","midi":61,"time":35.56451850000008,"velocity":0.7637795275590551,"duration":0.22580646666666837},{"name":"D4","midi":62,"time":35.80645400000008,"velocity":0.7637795275590551,"duration":0.22580646666666837},{"name":"F3","midi":53,"time":36.048389500000084,"velocity":0.7637795275590551,"duration":0.22580646666666837},{"name":"G3","midi":55,"time":36.29032500000009,"velocity":0.7637795275590551,"duration":0.22580646666666837},{"name":"A3","midi":57,"time":36.53226050000009,"velocity":0.7637795275590551,"duration":0.22580646666666837},{"name":"A#3","midi":58,"time":36.774196000000096,"velocity":0.7637795275590551,"duration":0.22580646666666837},{"name":"E3","midi":52,"time":37.0161315000001,"velocity":0.7637795275590551,"duration":0.22580646666666837},{"name":"F3","midi":53,"time":37.2580670000001,"velocity":0.7637795275590551,"duration":0.22580646666666837},{"name":"G3","midi":55,"time":37.50000250000011,"velocity":0.7637795275590551,"duration":0.22580646666666837},{"name":"A3","midi":57,"time":37.74193800000011,"velocity":0.7637795275590551,"duration":0.45161293333333674},{"name":"A2","midi":45,"time":38.22580900000011,"velocity":0.7637795275590551,"duration":0.45161293333333674},{"name":"D3","midi":50,"time":38.70968000000011,"velocity":0.7637795275590551,"duration":0.8991936083333343},{"name":"D3","midi":50,"time":39.91935750000011,"velocity":0.7637795275590551,"duration":0.22580646666666837},{"name":"E3","midi":52,"time":40.161293000000114,"velocity":0.7637795275590551,"duration":0.22580646666666837},{"name":"F3","midi":53,"time":40.40322850000012,"velocity":0.7637795275590551,"duration":0.22580646666666837},{"name":"G3","midi":55,"time":40.64516400000012,"velocity":0.7637795275590551,"duration":0.22580646666666837},{"name":"A3","midi":57,"time":40.887099500000126,"velocity":0.7637795275590551,"duration":0.22580646666666837},{"name":"A#3","midi":58,"time":41.12903500000013,"velocity":0.7637795275590551,"duration":0.22580646666666837},{"name":"G3","midi":55,"time":41.37097050000013,"velocity":0.7637795275590551,"duration":0.22580646666666837},{"name":"C4","midi":60,"time":41.61290600000014,"velocity":0.7637795275590551,"duration":0.22580646666666837},{"name":"A#3","midi":58,"time":41.733873750000136,"velocity":0.7637795275590551,"duration":0.22580646666667548},{"name":"C4","midi":60,"time":41.85484150000014,"velocity":0.7637795275590551,"duration":0.22580646666666837},{"name":"C3","midi":48,"time":42.096777000000145,"velocity":0.7637795275590551,"duration":0.45161293333333674},{"name":"F3","midi":53,"time":42.580648000000146,"velocity":0.7637795275590551,"duration":0.45161293333333674},{"name":"D#3","midi":51,"time":43.064519000000146,"velocity":0.7637795275590551,"duration":0.22580646666666837},{"name":"D3","midi":50,"time":43.30645450000015,"velocity":0.7637795275590551,"duration":0.22580646666666837},{"name":"D#3","midi":51,"time":43.548390000000154,"velocity":0.7637795275590551,"duration":0.22580646666666837},{"name":"F3","midi":53,"time":43.79032550000016,"velocity":0.7637795275590551,"duration":0.22580646666666837},{"name":"G3","midi":55,"time":44.03226100000016,"velocity":0.7637795275590551,"duration":0.22580646666666837},{"name":"D#3","midi":51,"time":44.274196500000166,"velocity":0.7637795275590551,"duration":0.22580646666666837},{"name":"F3","midi":53,"time":44.51613200000017,"velocity":0.7637795275590551,"duration":0.22580646666666837},{"name":"D#3","midi":51,"time":44.75806750000017,"velocity":0.7637795275590551,"duration":0.22580646666666837},{"name":"D3","midi":50,"time":45.00000300000018,"velocity":0.7637795275590551,"duration":0.22580646666666837},{"name":"C3","midi":48,"time":45.24193850000018,"velocity":0.7637795275590551,"duration":0.22580646666666837},{"name":"B2","midi":47,"time":45.483874000000185,"velocity":0.7637795275590551,"duration":0.22580646666666837},{"name":"G#3","midi":56,"time":45.72580950000019,"velocity":0.7637795275590551,"duration":0.22580646666666837},{"name":"G3","midi":55,"time":45.96774500000019,"velocity":0.7637795275590551,"duration":0.22580646666666837},{"name":"F3","midi":53,"time":46.209680500000196,"velocity":0.7637795275590551,"duration":0.22580646666666837},{"name":"D#3","midi":51,"time":46.4516160000002,"velocity":0.7637795275590551,"duration":0.22580646666666837},{"name":"D3","midi":50,"time":46.693551500000204,"velocity":0.7637795275590551,"duration":0.22580646666666837},{"name":"C3","midi":48,"time":46.93548700000021,"velocity":0.7637795275590551,"duration":0.22580646666666837},{"name":"D3","midi":50,"time":47.17742250000021,"velocity":0.7637795275590551,"duration":0.22580646666666837},{"name":"D#3","midi":51,"time":47.419358000000216,"velocity":0.7637795275590551,"duration":0.22580646666666837},{"name":"F3","midi":53,"time":47.66129350000022,"velocity":0.7637795275590551,"duration":0.22580646666666837},{"name":"G3","midi":55,"time":47.90322900000022,"velocity":0.7637795275590551,"duration":0.22580646666666837},{"name":"G#3","midi":56,"time":48.14516450000023,"velocity":0.7637795275590551,"duration":0.22580646666666837},{"name":"B2","midi":47,"time":48.38710000000023,"velocity":0.7637795275590551,"duration":0.45161293333333674},{"name":"G2","midi":43,"time":48.87097100000023,"velocity":0.7637795275590551,"duration":0.8991936083333343},{"name":"G2","midi":43,"time":49.83871300000023,"velocity":0.7637795275590551,"duration":0.45161293333333674},{"name":"G#2","midi":44,"time":50.322584000000234,"velocity":0.7637795275590551,"duration":0.22580646666666837},{"name":"G2","midi":43,"time":50.56451950000024,"velocity":0.7637795275590551,"duration":0.22580646666666837},{"name":"F2","midi":41,"time":50.80645500000024,"velocity":0.7637795275590551,"duration":0.22580646666666837},{"name":"G2","midi":43,"time":51.048390500000245,"velocity":0.7637795275590551,"duration":0.22580646666666837},{"name":"G#2","midi":44,"time":51.29032600000025,"velocity":0.7637795275590551,"duration":0.45161293333333674},{"name":"A2","midi":45,"time":51.77419700000025,"velocity":0.7637795275590551,"duration":0.45161293333333674},{"name":"A#2","midi":46,"time":52.25806800000025,"velocity":0.7637795275590551,"duration":0.22580646666666837},{"name":"A2","midi":45,"time":52.500003500000254,"velocity":0.7637795275590551,"duration":0.22580646666666837},{"name":"G2","midi":43,"time":52.74193900000026,"velocity":0.7637795275590551,"duration":0.22580646666666837},{"name":"A2","midi":45,"time":52.98387450000026,"velocity":0.7637795275590551,"duration":0.22580646666666837},{"name":"A#2","midi":46,"time":53.225810000000266,"velocity":0.7637795275590551,"duration":0.45161293333333674},{"name":"B2","midi":47,"time":53.709681000000266,"velocity":0.7637795275590551,"duration":0.45161293333333674},{"name":"C3","midi":48,"time":54.19355200000027,"velocity":0.7637795275590551,"duration":0.22580646666666837},{"name":"G2","midi":43,"time":54.43548750000027,"velocity":0.7637795275590551,"duration":0.22580646666666837},{"name":"A2","midi":45,"time":54.677423000000275,"velocity":0.7637795275590551,"duration":0.22580646666666837},{"name":"B2","midi":47,"time":54.91935850000028,"velocity":0.7637795275590551,"duration":0.22580646666666837},{"name":"C3","midi":48,"time":55.16129400000028,"velocity":0.7637795275590551,"duration":0.22580646666666837},{"name":"D3","midi":50,"time":55.403229500000286,"velocity":0.7637795275590551,"duration":0.22580646666666837},{"name":"D#3","midi":51,"time":55.64516500000029,"velocity":0.7637795275590551,"duration":0.22580646666666837},{"name":"C3","midi":48,"time":55.887100500000294,"velocity":0.7637795275590551,"duration":0.22580646666666837},{"name":"D3","midi":50,"time":56.1290360000003,"velocity":0.7637795275590551,"duration":0.22580646666666837},{"name":"C3","midi":48,"time":56.3709715000003,"velocity":0.7637795275590551,"duration":0.22580646666666837},{"name":"B2","midi":47,"time":56.612907000000305,"velocity":0.7637795275590551,"duration":0.22580646666666837},{"name":"A2","midi":45,"time":56.85484250000031,"velocity":0.7637795275590551,"duration":0.22580646666666837},{"name":"G2","midi":43,"time":57.09677800000031,"velocity":0.7637795275590551,"duration":0.22580646666666837},{"name":"F3","midi":53,"time":57.33871350000032,"velocity":0.7637795275590551,"duration":0.22580646666666837},{"name":"D#3","midi":51,"time":57.58064900000032,"velocity":0.7637795275590551,"duration":0.22580646666666837},{"name":"D3","midi":50,"time":57.822584500000325,"velocity":0.7637795275590551,"duration":0.22580646666666837},{"name":"C3","midi":48,"time":58.06452000000033,"velocity":0.7637795275590551,"duration":0.22580646666666837},{"name":"A#2","midi":46,"time":58.30645550000033,"velocity":0.7637795275590551,"duration":0.22580646666666837},{"name":"G#2","midi":44,"time":58.548391000000336,"velocity":0.7637795275590551,"duration":0.22580646666666837},{"name":"G2","midi":43,"time":58.79032650000034,"velocity":0.7637795275590551,"duration":0.22580646666666837},{"name":"F2","midi":41,"time":59.032262000000344,"velocity":0.7637795275590551,"duration":0.22580646666666837},{"name":"D#2","midi":39,"time":59.27419750000035,"velocity":0.7637795275590551,"duration":0.22580646666666837},{"name":"F2","midi":41,"time":59.51613300000035,"velocity":0.7637795275590551,"duration":0.22580646666666837},{"name":"G2","midi":43,"time":59.758068500000356,"velocity":0.7637795275590551,"duration":0.22580646666666837},{"name":"C2","midi":36,"time":60.00000400000036,"velocity":0.7637795275590551,"duration":0.22580646666666837},{"name":"D3","midi":50,"time":60.24193950000036,"velocity":0.7637795275590551,"duration":0.22580646666666837},{"name":"D#3","midi":51,"time":60.48387500000037,"velocity":0.7637795275590551,"duration":0.22580646666666837},{"name":"F3","midi":53,"time":60.72581050000037,"velocity":0.7637795275590551,"duration":0.22580646666666837},{"name":"G3","midi":55,"time":60.967746000000375,"velocity":0.7637795275590551,"duration":0.22580646666666837},{"name":"G#3","midi":56,"time":61.20968150000038,"velocity":0.7637795275590551,"duration":0.22580646666666837},{"name":"A#3","midi":58,"time":61.45161700000038,"velocity":0.7637795275590551,"duration":0.22580646666666837},{"name":"G3","midi":55,"time":61.693552500000386,"velocity":0.7637795275590551,"duration":0.22580646666666837},{"name":"G#3","midi":56,"time":61.93548800000039,"velocity":0.7637795275590551,"duration":0.22580646666666837},{"name":"G3","midi":55,"time":62.177423500000394,"velocity":0.7637795275590551,"duration":0.22580646666666837},{"name":"F3","midi":53,"time":62.4193590000004,"velocity":0.7637795275590551,"duration":0.22580646666666837},{"name":"D#3","midi":51,"time":62.6612945000004,"velocity":0.7637795275590551,"duration":0.22580646666666837},{"name":"D3","midi":50,"time":62.903230000000406,"velocity":0.7637795275590551,"duration":0.22580646666666837},{"name":"C4","midi":60,"time":63.14516550000041,"velocity":0.7637795275590551,"duration":0.22580646666666837},{"name":"A#3","midi":58,"time":63.38710100000041,"velocity":0.7637795275590551,"duration":0.22580646666666837},{"name":"A3","midi":57,"time":63.62903650000042,"velocity":0.7637795275590551,"duration":0.22580646666666837},{"name":"G3","midi":55,"time":63.87097200000042,"velocity":0.7637795275590551,"duration":0.22580646666666837},{"name":"F3","midi":53,"time":64.11290750000042,"velocity":0.7637795275590551,"duration":0.22580646666666837},{"name":"G3","midi":55,"time":64.35484300000041,"velocity":0.7637795275590551,"duration":0.22580646666666837},{"name":"A3","midi":57,"time":64.59677850000041,"velocity":0.7637795275590551,"duration":0.22580646666666837},{"name":"A#3","midi":58,"time":64.83871400000041,"velocity":0.7637795275590551,"duration":0.22580646666666837},{"name":"C4","midi":60,"time":65.0806495000004,"velocity":0.7637795275590551,"duration":0.22580646666666837},{"name":"D4","midi":62,"time":65.3225850000004,"velocity":0.7637795275590551,"duration":0.22580646666666837},{"name":"A#3","midi":58,"time":65.5645205000004,"velocity":0.7637795275590551,"duration":0.22580646666666837},{"name":"C4","midi":60,"time":65.8064560000004,"velocity":0.7637795275590551,"duration":0.22580646666666837},{"name":"A#3","midi":58,"time":66.04839150000039,"velocity":0.7637795275590551,"duration":0.22580646666666837},{"name":"A3","midi":57,"time":66.29032700000039,"velocity":0.7637795275590551,"duration":0.22580646666666837},{"name":"G3","midi":55,"time":66.53226250000039,"velocity":0.7637795275590551,"duration":0.22580646666666837},{"name":"F#3","midi":54,"time":66.77419800000038,"velocity":0.7637795275590551,"duration":0.22580646666666837},{"name":"D#4","midi":63,"time":67.01613350000038,"velocity":0.7637795275590551,"duration":0.22580646666666837},{"name":"D4","midi":62,"time":67.25806900000038,"velocity":0.7637795275590551,"duration":0.22580646666666837},{"name":"C4","midi":60,"time":67.50000450000037,"velocity":0.7637795275590551,"duration":0.22580646666666837},{"name":"A#3","midi":58,"time":67.74194000000037,"velocity":0.7637795275590551,"duration":1.1935484666666696},{"name":"C4","midi":60,"time":68.95161750000037,"velocity":0.7637795275590551,"duration":0.22580646666666837},{"name":"D4","midi":62,"time":69.19355300000036,"velocity":0.7637795275590551,"duration":0.22580646666666837},{"name":"D#4","midi":63,"time":69.43548850000036,"velocity":0.7637795275590551,"duration":0.22580646666666837},{"name":"F#3","midi":54,"time":69.67742400000036,"velocity":0.7637795275590551,"duration":0.22580646666666837},{"name":"G3","midi":55,"time":69.91935950000035,"velocity":0.7637795275590551,"duration":0.22580646666666837},{"name":"A3","midi":57,"time":70.16129500000035,"velocity":0.7637795275590551,"duration":0.22580646666666837},{"name":"G3","midi":55,"time":70.40323050000035,"velocity":0.7637795275590551,"duration":0.22580646666666837},{"name":"F#3","midi":54,"time":70.64516600000034,"velocity":0.7637795275590551,"duration":0.45161293333333674},{"name":"F3","midi":53,"time":71.12903700000035,"velocity":0.7637795275590551,"duration":0.45161293333333674},{"name":"E3","midi":52,"time":71.61290800000036,"velocity":0.7637795275590551,"duration":0.22580646666666837},{"name":"F3","midi":53,"time":71.85484350000036,"velocity":0.7637795275590551,"duration":0.22580646666666837},{"name":"G3","midi":55,"time":72.09677900000035,"velocity":0.7637795275590551,"duration":0.22580646666666837},{"name":"F3","midi":53,"time":72.33871450000035,"velocity":0.7637795275590551,"duration":0.22580646666666837},{"name":"E3","midi":52,"time":72.58065000000035,"velocity":0.7637795275590551,"duration":0.45161293333333674},{"name":"D#3","midi":51,"time":73.06452100000035,"velocity":0.7637795275590551,"duration":0.45161293333333674},{"name":"D3","midi":50,"time":73.54839200000036,"velocity":0.7637795275590551,"duration":0.45161293333333674},{"name":"G3","midi":55,"time":74.03226300000037,"velocity":0.7637795275590551,"duration":0.07661290833333112},{"name":"F3","midi":53,"time":74.11290816666704,"velocity":0.7637795275590551,"duration":0.07661290833333112},{"name":"G3","midi":55,"time":74.19355333333371,"velocity":0.7637795275590551,"duration":0.7540323083333362},{"name":"F#3","midi":54,"time":75.00000500000039,"velocity":0.7637795275590551,"duration":0.45161293333333674},{"name":"D3","midi":50,"time":75.4838760000004,"velocity":0.7637795275590551,"duration":0.45161293333333674},{"name":"A#3","midi":58,"time":75.9677470000004,"velocity":0.7637795275590551,"duration":0.07661290833333112},{"name":"A3","midi":57,"time":76.04839216666707,"velocity":0.7637795275590551,"duration":0.07661290833333112},{"name":"A#3","midi":58,"time":76.12903733333374,"velocity":0.7637795275590551,"duration":0.7540323083333362},{"name":"A3","midi":57,"time":76.93548900000042,"velocity":0.7637795275590551,"duration":0.45161293333333674},{"name":"D3","midi":50,"time":77.41936000000042,"velocity":0.7637795275590551,"duration":0.45161293333333674},{"name":"D4","midi":62,"time":77.90323100000043,"velocity":0.7637795275590551,"duration":0.07661290833333112},{"name":"C4","midi":60,"time":77.9838761666671,"velocity":0.7637795275590551,"duration":0.07661290833333112},{"name":"D4","midi":62,"time":78.06452133333377,"velocity":0.7637795275590551,"duration":0.7540323083333362},{"name":"C4","midi":60,"time":78.87097300000045,"velocity":0.7637795275590551,"duration":0.7096774666666619},{"name":"D#4","midi":63,"time":79.59677950000044,"velocity":0.7637795275590551,"duration":0.22580646666666837},{"name":"D4","midi":62,"time":79.83871500000043,"velocity":0.7637795275590551,"duration":0.22580646666666837},{"name":"C4","midi":60,"time":80.08065050000043,"velocity":0.7637795275590551,"duration":0.22580646666666837},{"name":"A#3","midi":58,"time":80.32258600000043,"velocity":0.7637795275590551,"duration":0.22580646666666837},{"name":"A3","midi":57,"time":80.56452150000042,"velocity":0.7637795275590551,"duration":0.22580646666666837},{"name":"G3","midi":55,"time":80.80645700000042,"velocity":0.7637795275590551,"duration":0.22580646666666837},{"name":"A#3","midi":58,"time":81.04839250000042,"velocity":0.7637795275590551,"duration":0.22580646666666837},{"name":"D#3","midi":51,"time":81.29032800000041,"velocity":0.7637795275590551,"duration":1.1935484666666696},{"name":"D3","midi":50,"time":82.50000550000041,"velocity":0.7637795275590551,"duration":0.22580646666666837},{"name":"C3","midi":48,"time":82.74194100000041,"velocity":0.7637795275590551,"duration":0.22580646666666837},{"name":"D#3","midi":51,"time":82.9838765000004,"velocity":0.7637795275590551,"duration":0.22580646666666837},{"name":"A2","midi":45,"time":83.2258120000004,"velocity":0.7637795275590551,"duration":0.45161293333333674},{"name":"D3","midi":50,"time":83.70968300000041,"velocity":0.7637795275590551,"duration":0.07661290833333112},{"name":"C3","midi":48,"time":83.79032816666708,"velocity":0.7637795275590551,"duration":0.07661290833333112},{"name":"D3","midi":50,"time":83.87097333333375,"velocity":0.7637795275590551,"duration":0.7540323083333362},{"name":"C3","midi":48,"time":84.67742500000043,"velocity":0.7637795275590551,"duration":0.45161293333333674},{"name":"A#2","midi":46,"time":85.16129600000043,"velocity":0.7637795275590551,"duration":0.45161293333333674},{"name":"A2","midi":45,"time":85.64516700000044,"velocity":0.7637795275590551,"duration":0.22580646666666837},{"name":"G2","midi":43,"time":85.88710250000044,"velocity":0.7637795275590551,"duration":0.22580646666666837},{"name":"D3","midi":50,"time":86.12903800000043,"velocity":0.7637795275590551,"duration":0.07661290833333112},{"name":"C3","midi":48,"time":86.2096831666671,"velocity":0.7637795275590551,"duration":0.07661290833333112},{"name":"D3","midi":50,"time":86.29032833333378,"velocity":0.7637795275590551,"duration":0.3064516333333387},{"name":"D2","midi":38,"time":86.61290900000044,"velocity":0.7637795275590551,"duration":0.45161293333333674},{"name":"G2","midi":43,"time":87.09678000000045,"velocity":0.7637795275590551,"duration":4.63709708333333}],"controlChanges":{"7":[{"number":7,"time":0,"value":0.8661417322834646}],"10":[{"number":10,"time":0,"value":0.3779527559055118}]},"id":2,"name":"Harpsichord LH","instrumentNumber":6,"instrument":"harpsichord","instrumentFamily":"piano","channelNumber":0,"isPercussion":false}]}