{"header":{"PPQ":192,"timeSignature":[2,4],"bpm":109.99990833340972,"name":"--------"},"startTime":0,"duration":162.18195333333577,"tracks":[{"startTime":0,"duration":0,"length":0,"notes":[],"controlChanges":{},"id":0,"name":"--------"},{"startTime":0,"duration":162.18195333333577,"length":825,"notes":[{"name":"F4","midi":65,"time":0,"velocity":0.7480314960629921,"duration":0.45454583333333337},{"name":"A4","midi":69,"time":0.545455,"velocity":0.7480314960629921,"duration":0.4545458333333334},{"name":"C5","midi":72,"time":1.09091,"velocity":0.7480314960629921,"duration":0.7272733333333332},{"name":"A#4","midi":70,"time":1.9090924999999999,"velocity":0.7480314960629921,"duration":0.13068192708333326},{"name":"A4","midi":69,"time":2.04545625,"velocity":0.7480314960629921,"duration":0.13068192708333326},{"name":"A#4","midi":70,"time":2.18182,"velocity":0.7480314960629921,"duration":0.0909091666666666},{"name":"C5","midi":72,"time":2.4545475,"velocity":0.7480314960629921,"duration":0.0909091666666666},{"name":"D5","midi":74,"time":2.7272749999999997,"velocity":0.7480314960629921,"duration":0.0909091666666666},{"name":"E5","midi":76,"time":3.0000024999999995,"velocity":0.7480314960629921,"duration":0.0909091666666666},{"name":"F5","midi":77,"time":3.2727299999999993,"velocity":0.7480314960629921,"duration":0.0909091666666666},{"name":"C5","midi":72,"time":3.545457499999999,"velocity":0.7480314960629921,"duration":0.2727274999999998},{"name":"F5","midi":77,"time":3.818184999999999,"velocity":0.7480314960629921,"duration":0.27272750000000023},{"name":"A5","midi":81,"time":4.090912499999999,"velocity":0.7480314960629921,"duration":0.27272750000000023},{"name":"G5","midi":79,"time":4.363639999999999,"velocity":0.7480314960629921,"duration":0.1306819270833337},{"name":"F5","midi":77,"time":4.500003749999999,"velocity":0.7480314960629921,"duration":0.1306819270833337},{"name":"E5","midi":76,"time":4.6363674999999995,"velocity":0.7480314960629921,"duration":0.1306819270833337},{"name":"D5","midi":74,"time":4.77273125,"velocity":0.7480314960629921,"duration":0.1306819270833337},{"name":"C5","midi":72,"time":4.909095,"velocity":0.7480314960629921,"duration":0.1306819270833337},{"name":"A#4","midi":70,"time":5.04545875,"velocity":0.7480314960629921,"duration":0.1306819270833337},{"name":"A4","midi":69,"time":5.1818225,"velocity":0.7480314960629921,"duration":0.1306819270833337},{"name":"G4","midi":67,"time":5.31818625,"velocity":0.7480314960629921,"duration":0.1306819270833337},{"name":"A4","midi":69,"time":5.45455,"velocity":0.7480314960629921,"duration":0.1306819270833337},{"name":"C5","midi":72,"time":5.59091375,"velocity":0.7480314960629921,"duration":0.1306819270833337},{"name":"F4","midi":65,"time":5.7272775000000005,"velocity":0.7480314960629921,"duration":0.1306819270833337},{"name":"A4","midi":69,"time":5.863641250000001,"velocity":0.7480314960629921,"duration":0.1306819270833337},{"name":"D5","midi":74,"time":6.000005000000001,"velocity":0.7480314960629921,"duration":0.8125006770833334},{"name":"D5","midi":74,"time":6.8181875000000005,"velocity":0.7480314960629921,"duration":0.02840911458333295},{"name":"C5","midi":72,"time":6.8522784375,"velocity":0.7480314960629921,"duration":0.02840911458333295},{"name":"D5","midi":74,"time":6.886369374999999,"velocity":0.7480314960629921,"duration":0.02840911458333295},{"name":"C5","midi":72,"time":6.920460312499999,"velocity":0.7480314960629921,"duration":0.02840911458333295},{"name":"B4","midi":71,"time":6.954551249999998,"velocity":0.7480314960629921,"duration":0.1306819270833337},{"name":"C5","midi":72,"time":7.090914999999998,"velocity":0.7480314960629921,"duration":0.1306819270833337},{"name":"E5","midi":76,"time":7.227278749999998,"velocity":0.7480314960629921,"duration":0.1306819270833337},{"name":"D5","midi":74,"time":7.363642499999998,"velocity":0.7480314960629921,"duration":0.1306819270833337},{"name":"F5","midi":77,"time":7.500006249999998,"velocity":0.7480314960629921,"duration":0.1306819270833337},{"name":"E5","midi":76,"time":7.6363699999999985,"velocity":0.7480314960629921,"duration":0.1306819270833337},{"name":"D5","midi":74,"time":7.772733749999999,"velocity":0.7480314960629921,"duration":0.1306819270833337},{"name":"C5","midi":72,"time":7.909097499999999,"velocity":0.7480314960629921,"duration":0.13068192708333282},{"name":"B4","midi":71,"time":8.045461249999999,"velocity":0.7480314960629921,"duration":0.1306819270833337},{"name":"A4","midi":69,"time":8.181825,"velocity":0.7480314960629921,"duration":0.1306819270833337},{"name":"C5","midi":72,"time":8.318188750000001,"velocity":0.7480314960629921,"duration":0.1306819270833337},{"name":"G4","midi":67,"time":8.454552500000002,"velocity":0.7480314960629921,"duration":0.1306819270833337},{"name":"C5","midi":72,"time":8.590916250000003,"velocity":0.7480314960629921,"duration":0.1306819270833337},{"name":"F4","midi":65,"time":8.727280000000004,"velocity":0.7480314960629921,"duration":0.1306819270833337},{"name":"E5","midi":76,"time":8.863643750000005,"velocity":0.7480314960629921,"duration":0.1306819270833337},{"name":"D5","midi":74,"time":9.000007500000006,"velocity":0.7480314960629921,"duration":0.1306819270833337},{"name":"C5","midi":72,"time":9.136371250000007,"velocity":0.7480314960629921,"duration":0.1306819270833337},{"name":"B4","midi":71,"time":9.272735000000008,"velocity":0.7480314960629921,"duration":0.1306819270833337},{"name":"D5","midi":74,"time":9.409098750000009,"velocity":0.7480314960629921,"duration":0.1306819270833337},{"name":"G4","midi":67,"time":9.54546250000001,"velocity":0.7480314960629921,"duration":0.1306819270833337},{"name":"B4","midi":71,"time":9.681826250000011,"velocity":0.7480314960629921,"duration":0.1306819270833337},{"name":"C5","midi":72,"time":9.818190000000012,"velocity":0.7480314960629921,"duration":0.6761369270833342},{"name":"E5","midi":76,"time":10.500008750000013,"velocity":0.7480314960629921,"duration":0.1306819270833337},{"name":"A4","midi":69,"time":10.636372500000014,"velocity":0.7480314960629921,"duration":0.1306819270833337},{"name":"C5","midi":72,"time":10.772736250000015,"velocity":0.7480314960629921,"duration":0.1306819270833337},{"name":"F4","midi":65,"time":10.909100000000016,"velocity":0.7480314960629921,"duration":0.6761369270833342},{"name":"A4","midi":69,"time":11.590918750000018,"velocity":0.7480314960629921,"duration":0.1306819270833337},{"name":"D4","midi":62,"time":11.727282500000019,"velocity":0.7480314960629921,"duration":0.1306819270833337},{"name":"F4","midi":65,"time":11.86364625000002,"velocity":0.7480314960629921,"duration":0.1306819270833337},{"name":"A#4","midi":70,"time":12.000010000000021,"velocity":0.7480314960629921,"duration":0.6761369270833342},{"name":"D5","midi":74,"time":12.681828750000022,"velocity":0.7480314960629921,"duration":0.1306819270833337},{"name":"G4","midi":67,"time":12.818192500000023,"velocity":0.7480314960629921,"duration":0.1306819270833337},{"name":"A#4","midi":70,"time":12.954556250000024,"velocity":0.7480314960629921,"duration":0.1306819270833337},{"name":"E4","midi":64,"time":13.090920000000025,"velocity":0.7480314960629921,"duration":0.6761369270833342},{"name":"G4","midi":67,"time":13.772738750000027,"velocity":0.7480314960629921,"duration":0.1306819270833337},{"name":"C4","midi":60,"time":13.909102500000028,"velocity":0.7480314960629921,"duration":0.1306819270833337},{"name":"E4","midi":64,"time":14.045466250000029,"velocity":0.7480314960629921,"duration":0.1306819270833337},{"name":"A4","midi":69,"time":14.18183000000003,"velocity":0.7480314960629921,"duration":0.1306819270833337},{"name":"C5","midi":72,"time":14.318193750000031,"velocity":0.7480314960629921,"duration":0.1306819270833337},{"name":"F4","midi":65,"time":14.454557500000032,"velocity":0.7480314960629921,"duration":0.1306819270833337},{"name":"A4","midi":69,"time":14.590921250000033,"velocity":0.7480314960629921,"duration":0.1306819270833337},{"name":"D4","midi":62,"time":14.727285000000034,"velocity":0.7480314960629921,"duration":0.1306819270833337},{"name":"F4","midi":65,"time":14.863648750000035,"velocity":0.7480314960629921,"duration":0.1306819270833337},{"name":"A#3","midi":58,"time":15.000012500000036,"velocity":0.7480314960629921,"duration":0.1306819270833337},{"name":"D4","midi":62,"time":15.136376250000037,"velocity":0.7480314960629921,"duration":0.1306819270833337},{"name":"G4","midi":67,"time":15.272740000000038,"velocity":0.7480314960629921,"duration":0.1306819270833337},{"name":"A#4","midi":70,"time":15.409103750000039,"velocity":0.7480314960629921,"duration":0.1306819270833337},{"name":"E4","midi":64,"time":15.54546750000004,"velocity":0.7480314960629921,"duration":0.1306819270833337},{"name":"G4","midi":67,"time":15.681831250000041,"velocity":0.7480314960629921,"duration":0.1306819270833337},{"name":"C4","midi":60,"time":15.818195000000042,"velocity":0.7480314960629921,"duration":0.1306819270833337},{"name":"E4","midi":64,"time":15.954558750000043,"velocity":0.7480314960629921,"duration":0.1306819270833337},{"name":"A3","midi":57,"time":16.090922500000044,"velocity":0.7480314960629921,"duration":0.1306819270833337},{"name":"C4","midi":60,"time":16.227286250000045,"velocity":0.7480314960629921,"duration":0.1306819270833337},{"name":"F4","midi":65,"time":16.363650000000046,"velocity":0.7480314960629921,"duration":0.1306819270833337},{"name":"A4","midi":69,"time":16.500013750000047,"velocity":0.7480314960629921,"duration":0.1306819270833337},{"name":"D4","midi":62,"time":16.636377500000048,"velocity":0.7480314960629921,"duration":0.1306819270833337},{"name":"F4","midi":65,"time":16.77274125000005,"velocity":0.7480314960629921,"duration":0.1306819270833337},{"name":"A#4","midi":70,"time":16.90910500000005,"velocity":0.7480314960629921,"duration":0.1306819270833337},{"name":"D5","midi":74,"time":17.04546875000005,"velocity":0.7480314960629921,"duration":0.1306819270833337},{"name":"G4","midi":67,"time":17.181832500000052,"velocity":0.7480314960629921,"duration":0.1306819270833337},{"name":"A#4","midi":70,"time":17.318196250000053,"velocity":0.7480314960629921,"duration":0.1306819270833337},{"name":"C4","midi":60,"time":17.454560000000054,"velocity":0.7480314960629921,"duration":0.4545458333333343},{"name":"E4","midi":64,"time":18.000015000000054,"velocity":0.7480314960629921,"duration":0.4545458333333343},{"name":"F4","midi":65,"time":18.545470000000055,"velocity":0.7480314960629921,"duration":0.7272733333333328},{"name":"F4","midi":65,"time":19.363652500000054,"velocity":0.7480314960629921,"duration":0.1306819270833337},{"name":"E4","midi":64,"time":19.500016250000055,"velocity":0.7480314960629921,"duration":0.1306819270833337},{"name":"F4","midi":65,"time":19.636380000000056,"velocity":0.7480314960629921,"duration":0.09090916666666615},{"name":"G4","midi":67,"time":19.909107500000054,"velocity":0.7480314960629921,"duration":0.09090916666666615},{"name":"A4","midi":69,"time":20.181835000000053,"velocity":0.7480314960629921,"duration":0.09090916666666615},{"name":"A#4","midi":70,"time":20.45456250000005,"velocity":0.7480314960629921,"duration":0.09090916666666615},{"name":"C5","midi":72,"time":20.72729000000005,"velocity":0.7480314960629921,"duration":0.09090916666666615},{"name":"F4","midi":65,"time":21.000017500000048,"velocity":0.7480314960629921,"duration":0.27272749999999846},{"name":"A#4","midi":70,"time":21.272745000000047,"velocity":0.7480314960629921,"duration":0.27272749999999846},{"name":"D5","midi":74,"time":21.545472500000045,"velocity":0.7480314960629921,"duration":0.27272749999999846},{"name":"C5","midi":72,"time":21.818200000000044,"velocity":0.7480314960629921,"duration":0.1306819270833337},{"name":"A#4","midi":70,"time":21.954563750000045,"velocity":0.7480314960629921,"duration":0.1306819270833337},{"name":"A4","midi":69,"time":22.090927500000046,"velocity":0.7480314960629921,"duration":0.1306819270833337},{"name":"G4","midi":67,"time":22.227291250000047,"velocity":0.7480314960629921,"duration":0.1306819270833337},{"name":"F4","midi":65,"time":22.363655000000048,"velocity":0.7480314960629921,"duration":0.1306819270833337},{"name":"D#4","midi":63,"time":22.50001875000005,"velocity":0.7480314960629921,"duration":0.1306819270833337},{"name":"D4","midi":62,"time":22.63638250000005,"velocity":0.7480314960629921,"duration":0.1306819270833337},{"name":"C4","midi":60,"time":22.77274625000005,"velocity":0.7480314960629921,"duration":0.1306819270833337},{"name":"D4","midi":62,"time":22.90911000000005,"velocity":0.7480314960629921,"duration":0.1306819270833337},{"name":"A#3","midi":58,"time":23.045473750000053,"velocity":0.7480314960629921,"duration":0.1306819270833337},{"name":"F4","midi":65,"time":23.181837500000054,"velocity":0.7480314960629921,"duration":0.1306819270833337},{"name":"D4","midi":62,"time":23.318201250000055,"velocity":0.7480314960629921,"duration":0.1306819270833337},{"name":"A#4","midi":70,"time":23.454565000000056,"velocity":0.7480314960629921,"duration":0.6761369270833342},{"name":"D5","midi":74,"time":24.136383750000057,"velocity":0.7480314960629921,"duration":0.1306819270833337},{"name":"G4","midi":67,"time":24.272747500000058,"velocity":0.7480314960629921,"duration":0.1306819270833337},{"name":"A#4","midi":70,"time":24.40911125000006,"velocity":0.7480314960629921,"duration":0.1306819270833337},{"name":"E4","midi":64,"time":24.54547500000006,"velocity":0.7480314960629921,"duration":0.6761369270833342},{"name":"C4","midi":60,"time":25.22729375000006,"velocity":0.7480314960629921,"duration":0.1306819270833337},{"name":"G4","midi":67,"time":25.363657500000063,"velocity":0.7480314960629921,"duration":0.1306819270833337},{"name":"E4","midi":64,"time":25.500021250000064,"velocity":0.7480314960629921,"duration":0.1306819270833337},{"name":"C5","midi":72,"time":25.636385000000065,"velocity":0.7480314960629921,"duration":0.6761369270833342},{"name":"E5","midi":76,"time":26.318203750000066,"velocity":0.7480314960629921,"duration":0.1306819270833337},{"name":"A4","midi":69,"time":26.454567500000067,"velocity":0.7480314960629921,"duration":0.1306819270833337},{"name":"C5","midi":72,"time":26.590931250000068,"velocity":0.7480314960629921,"duration":0.1306819270833337},{"name":"F4","midi":65,"time":26.72729500000007,"velocity":0.7480314960629921,"duration":0.6761369270833342},{"name":"D4","midi":62,"time":27.40911375000007,"velocity":0.7480314960629921,"duration":0.1306819270833337},{"name":"A4","midi":69,"time":27.54547750000007,"velocity":0.7480314960629921,"duration":0.1306819270833337},{"name":"F4","midi":65,"time":27.681841250000073,"velocity":0.7480314960629921,"duration":0.1306819270833337},{"name":"D5","midi":74,"time":27.818205000000074,"velocity":0.7480314960629921,"duration":0.1306819270833337},{"name":"A4","midi":69,"time":27.954568750000075,"velocity":0.7480314960629921,"duration":0.1306819270833337},{"name":"F5","midi":77,"time":28.090932500000076,"velocity":0.7480314960629921,"duration":0.1306819270833337},{"name":"D5","midi":74,"time":28.227296250000077,"velocity":0.7480314960629921,"duration":0.1306819270833337},{"name":"A#4","midi":70,"time":28.363660000000078,"velocity":0.7480314960629921,"duration":0.1306819270833337},{"name":"G4","midi":67,"time":28.50002375000008,"velocity":0.7480314960629921,"duration":0.1306819270833337},{"name":"D5","midi":74,"time":28.63638750000008,"velocity":0.7480314960629921,"duration":0.1306819270833337},{"name":"A#4","midi":70,"time":28.77275125000008,"velocity":0.7480314960629921,"duration":0.1306819270833337},{"name":"G5","midi":79,"time":28.90911500000008,"velocity":0.7480314960629921,"duration":0.1306819270833337},{"name":"D5","midi":74,"time":29.045478750000083,"velocity":0.7480314960629921,"duration":0.1306819270833337},{"name":"A#5","midi":82,"time":29.181842500000084,"velocity":0.7480314960629921,"duration":0.1306819270833337},{"name":"G5","midi":79,"time":29.318206250000085,"velocity":0.7480314960629921,"duration":0.1306819270833337},{"name":"E5","midi":76,"time":29.454570000000086,"velocity":0.7480314960629921,"duration":0.1306819270833337},{"name":"C5","midi":72,"time":29.590933750000087,"velocity":0.7480314960629921,"duration":0.1306819270833337},{"name":"G5","midi":79,"time":29.727297500000088,"velocity":0.7480314960629921,"duration":0.1306819270833337},{"name":"E5","midi":76,"time":29.86366125000009,"velocity":0.7480314960629921,"duration":0.1306819270833337},{"name":"A#5","midi":82,"time":30.00002500000009,"velocity":0.7480314960629921,"duration":0.1306819270833337},{"name":"G5","midi":79,"time":30.13638875000009,"velocity":0.7480314960629921,"duration":0.1306819270833337},{"name":"E5","midi":76,"time":30.27275250000009,"velocity":0.7480314960629921,"duration":0.1306819270833337},{"name":"C6","midi":84,"time":30.409116250000093,"velocity":0.7480314960629921,"duration":0.1306819270833337},{"name":"A5","midi":81,"time":30.545480000000094,"velocity":0.7480314960629921,"duration":0.1306819270833337},{"name":"C6","midi":84,"time":30.681843750000095,"velocity":0.7480314960629921,"duration":0.1306819270833337},{"name":"F5","midi":77,"time":30.818207500000096,"velocity":0.7480314960629921,"duration":0.1306819270833337},{"name":"A5","midi":81,"time":30.954571250000097,"velocity":0.7480314960629921,"duration":0.1306819270833337},{"name":"C5","midi":72,"time":31.090935000000098,"velocity":0.7480314960629921,"duration":0.1306819270833337},{"name":"F5","midi":77,"time":31.2272987500001,"velocity":0.7480314960629921,"duration":0.1306819270833337},{"name":"D#5","midi":75,"time":31.3636625000001,"velocity":0.7480314960629921,"duration":0.1306819270833337},{"name":"D5","midi":74,"time":31.5000262500001,"velocity":0.7480314960629921,"duration":0.1306819270833337},{"name":"D#5","midi":75,"time":31.6363900000001,"velocity":0.7480314960629921,"duration":0.1306819270833337},{"name":"G5","midi":79,"time":31.772753750000103,"velocity":0.7480314960629921,"duration":0.1306819270833337},{"name":"C5","midi":72,"time":31.909117500000104,"velocity":0.7480314960629921,"duration":0.1306819270833337},{"name":"D#5","midi":75,"time":32.0454812500001,"velocity":0.7480314960629921,"duration":0.13068192708333015},{"name":"A4","midi":69,"time":32.181845000000095,"velocity":0.7480314960629921,"duration":0.13068192708333015},{"name":"D#5","midi":75,"time":32.31820875000009,"velocity":0.7480314960629921,"duration":0.13068192708333015},{"name":"D5","midi":74,"time":32.45457250000008,"velocity":0.7480314960629921,"duration":0.13068192708333015},{"name":"C5","midi":72,"time":32.59093625000008,"velocity":0.7480314960629921,"duration":0.13068192708333015},{"name":"D5","midi":74,"time":32.72730000000007,"velocity":0.7480314960629921,"duration":0.13068192708333015},{"name":"A#4","midi":70,"time":32.863663750000065,"velocity":0.7480314960629921,"duration":0.13068192708333015},{"name":"E5","midi":76,"time":33.00002750000006,"velocity":0.7480314960629921,"duration":0.13068192708333015},{"name":"A#4","midi":70,"time":33.13639125000005,"velocity":0.7480314960629921,"duration":0.13068192708333015},{"name":"F5","midi":77,"time":33.272755000000046,"velocity":0.7480314960629921,"duration":0.13068192708333015},{"name":"A#4","midi":70,"time":33.40911875000004,"velocity":0.7480314960629921,"duration":0.13068192708333015},{"name":"G5","midi":79,"time":33.545482500000034,"velocity":0.7480314960629921,"duration":0.13068192708333015},{"name":"A#4","midi":70,"time":33.68184625000003,"velocity":0.7480314960629921,"duration":0.13068192708333015},{"name":"A4","midi":69,"time":33.81821000000002,"velocity":0.7480314960629921,"duration":0.13068192708333015},{"name":"G5","midi":79,"time":33.954573750000016,"velocity":0.7480314960629921,"duration":0.13068192708333015},{"name":"F5","midi":77,"time":34.09093750000001,"velocity":0.7480314960629921,"duration":0.13068192708333015},{"name":"E5","midi":76,"time":34.227301250000004,"velocity":0.7480314960629921,"duration":0.13068192708333015},{"name":"D5","midi":74,"time":34.363665,"velocity":0.7480314960629921,"duration":0.13068192708333015},{"name":"F5","midi":77,"time":34.50002874999999,"velocity":0.7480314960629921,"duration":0.13068192708333015},{"name":"C5","midi":72,"time":34.636392499999985,"velocity":0.7480314960629921,"duration":0.13068192708333015},{"name":"F5","midi":77,"time":34.77275624999998,"velocity":0.7480314960629921,"duration":0.13068192708333015},{"name":"A#4","midi":70,"time":34.90911999999997,"velocity":0.7480314960629921,"duration":0.13068192708333015},{"name":"A5","midi":81,"time":35.04548374999997,"velocity":0.7480314960629921,"duration":0.13068192708333015},{"name":"G5","midi":79,"time":35.18184749999996,"velocity":0.7480314960629921,"duration":0.13068192708333015},{"name":"F5","midi":77,"time":35.318211249999955,"velocity":0.7480314960629921,"duration":0.13068192708333015},{"name":"E5","midi":76,"time":35.45457499999995,"velocity":0.7480314960629921,"duration":0.13068192708333015},{"name":"G5","midi":79,"time":35.59093874999994,"velocity":0.7480314960629921,"duration":0.13068192708333015},{"name":"C5","midi":72,"time":35.72730249999994,"velocity":0.7480314960629921,"duration":0.13068192708333015},{"name":"E5","midi":76,"time":35.86366624999993,"velocity":0.7480314960629921,"duration":0.13068192708333015},{"name":"F5","midi":77,"time":36.000029999999924,"velocity":0.7480314960629921,"duration":0.13068192708333015},{"name":"C5","midi":72,"time":36.13639374999992,"velocity":0.7480314960629921,"duration":0.13068192708333015},{"name":"A5","midi":81,"time":36.27275749999991,"velocity":0.7480314960629921,"duration":0.13068192708333015},{"name":"F5","midi":77,"time":36.409121249999906,"velocity":0.7480314960629921,"duration":0.13068192708333015},{"name":"C5","midi":72,"time":36.5454849999999,"velocity":0.7480314960629921,"duration":0.13068192708333015},{"name":"A4","midi":69,"time":36.681848749999894,"velocity":0.7480314960629921,"duration":0.13068192708333015},{"name":"F5","midi":77,"time":36.81821249999989,"velocity":0.7480314960629921,"duration":0.13068192708333015},{"name":"C5","midi":72,"time":36.95457624999988,"velocity":0.7480314960629921,"duration":0.13068192708333015},{"name":"A4","midi":69,"time":37.090939999999875,"velocity":0.7480314960629921,"duration":0.13068192708333015},{"name":"F4","midi":65,"time":37.22730374999987,"velocity":0.7480314960629921,"duration":0.13068192708333015},{"name":"C5","midi":72,"time":37.36366749999986,"velocity":0.7480314960629921,"duration":0.13068192708333015},{"name":"A4","midi":69,"time":37.50003124999986,"velocity":0.7480314960629921,"duration":0.13068192708333015},{"name":"F4","midi":65,"time":37.63639499999985,"velocity":0.7480314960629921,"duration":0.13068192708333015},{"name":"C4","midi":60,"time":37.772758749999845,"velocity":0.7480314960629921,"duration":0.13068192708333015},{"name":"A4","midi":69,"time":37.90912249999984,"velocity":0.7480314960629921,"duration":0.13068192708333015},{"name":"F4","midi":65,"time":38.04548624999983,"velocity":0.7480314960629921,"duration":0.13068192708333015},{"name":"C4","midi":60,"time":38.18184999999983,"velocity":0.7480314960629921,"duration":0.4545458333333343},{"name":"A5","midi":81,"time":38.72730499999983,"velocity":0.7480314960629921,"duration":0.03977276041666755},{"name":"G5","midi":79,"time":38.77275958333316,"velocity":0.7480314960629921,"duration":0.03977276041666755},{"name":"F5","midi":77,"time":38.81821416666649,"velocity":0.7480314960629921,"duration":0.03977276041666755},{"name":"G5","midi":79,"time":38.863668749999825,"velocity":0.7480314960629921,"duration":0.03977276041666755},{"name":"A5","midi":81,"time":38.909123333333156,"velocity":0.7480314960629921,"duration":0.03977276041666755},{"name":"G5","midi":79,"time":38.95457791666649,"velocity":0.7480314960629921,"duration":0.03977276041666755},{"name":"A5","midi":81,"time":39.00003249999982,"velocity":0.7480314960629921,"duration":0.03977276041666755},{"name":"G5","midi":79,"time":39.04548708333315,"velocity":0.7480314960629921,"duration":0.03977276041666755},{"name":"A5","midi":81,"time":39.09094166666648,"velocity":0.7480314960629921,"duration":0.03977276041666755},{"name":"G5","midi":79,"time":39.13639624999981,"velocity":0.7480314960629921,"duration":0.03977276041666755},{"name":"F5","midi":77,"time":39.181850833333144,"velocity":0.7480314960629921,"duration":0.03977276041666755},{"name":"G5","midi":79,"time":39.227305416666475,"velocity":0.7480314960629921,"duration":0.03977276041666755},{"name":"F5","midi":77,"time":39.272759999999806,"velocity":0.7480314960629921,"duration":0.4545458333333343},{"name":"A4","midi":69,"time":40.090942499999805,"velocity":0.7480314960629921,"duration":0.272727500000002},{"name":"A#4","midi":70,"time":40.36366999999981,"velocity":0.7480314960629921,"duration":0.272727500000002},{"name":"C#5","midi":73,"time":40.63639749999981,"velocity":0.7480314960629921,"duration":0.26704567708333116},{"name":"D5","midi":74,"time":40.909124999999804,"velocity":0.7480314960629921,"duration":0.6761369270833342},{"name":"C#5","midi":73,"time":41.5909437499998,"velocity":0.7480314960629921,"duration":0.13068192708333015},{"name":"D5","midi":74,"time":41.727307499999796,"velocity":0.7480314960629921,"duration":0.13068192708333015},{"name":"E5","midi":76,"time":41.86367124999979,"velocity":0.7480314960629921,"duration":0.13068192708333015},{"name":"F5","midi":77,"time":42.000034999999784,"velocity":0.7480314960629921,"duration":0.8125006770833352},{"name":"D#5","midi":75,"time":42.81821749999978,"velocity":0.7480314960629921,"duration":0.13068192708333015},{"name":"D5","midi":74,"time":42.95458124999978,"velocity":0.7480314960629921,"duration":0.13068192708333015},{"name":"D#5","midi":75,"time":43.09094499999977,"velocity":0.7480314960629921,"duration":0.0909091666666697},{"name":"F#4","midi":66,"time":43.36367249999977,"velocity":0.7480314960629921,"duration":0.0909091666666697},{"name":"G4","midi":67,"time":43.636399999999774,"velocity":0.7480314960629921,"duration":0.4545458333333343},{"name":"F4","midi":65,"time":44.45458249999977,"velocity":0.7480314960629921,"duration":0.26704567708333116},{"name":"G#4","midi":68,"time":44.72730999999977,"velocity":0.7480314960629921,"duration":0.26704567708333116},{"name":"A4","midi":69,"time":45.00003749999976,"velocity":0.7480314960629921,"duration":0.5397731770833332},{"name":"G4","midi":67,"time":45.54549249999976,"velocity":0.7480314960629921,"duration":0.13068192708333015},{"name":"F#4","midi":66,"time":45.681856249999754,"velocity":0.7480314960629921,"duration":0.13068192708333015},{"name":"G4","midi":67,"time":45.81821999999975,"velocity":0.7480314960629921,"duration":0.0909091666666697},{"name":"E5","midi":76,"time":46.09094749999975,"velocity":0.7480314960629921,"duration":0.13068192708333015},{"name":"G4","midi":67,"time":46.227311249999744,"velocity":0.7480314960629921,"duration":0.13068192708333015},{"name":"F4","midi":65,"time":46.36367499999974,"velocity":0.7480314960629921,"duration":0.13068192708333015},{"name":"E4","midi":64,"time":46.50003874999973,"velocity":0.7480314960629921,"duration":0.13068192708333015},{"name":"D4","midi":62,"time":46.636402499999726,"velocity":0.7480314960629921,"duration":0.13068192708333015},{"name":"F4","midi":65,"time":46.77276624999972,"velocity":0.7480314960629921,"duration":0.13068192708333015},{"name":"E4","midi":64,"time":46.90912999999971,"velocity":0.7480314960629921,"duration":0.0909091666666697},{"name":"A4","midi":69,"time":47.181857499999715,"velocity":0.7480314960629921,"duration":0.0909091666666697},{"name":"E5","midi":76,"time":47.45458499999972,"velocity":0.7480314960629921,"duration":0.02840911458333295},{"name":"D5","midi":74,"time":47.488675937499714,"velocity":0.7480314960629921,"duration":0.02840911458333295},{"name":"E5","midi":76,"time":47.52276687499971,"velocity":0.7480314960629921,"duration":0.02840911458333295},{"name":"D5","midi":74,"time":47.55685781249971,"velocity":0.7480314960629921,"duration":0.02840911458333295},{"name":"C#5","midi":73,"time":47.590948749999704,"velocity":0.7480314960629921,"duration":0.13068192708333015},{"name":"D5","midi":74,"time":47.7273124999997,"velocity":0.7480314960629921,"duration":0.5397731770833332},{"name":"C#5","midi":73,"time":48.272767499999695,"velocity":0.7480314960629921,"duration":0.13068192708333015},{"name":"B4","midi":71,"time":48.40913124999969,"velocity":0.7480314960629921,"duration":0.13068192708333015},{"name":"A4","midi":69,"time":48.54549499999968,"velocity":0.7480314960629921,"duration":0.13068192708333015},{"name":"G4","midi":67,"time":48.68185874999968,"velocity":0.7480314960629921,"duration":0.13068192708333015},{"name":"F4","midi":65,"time":48.81822249999967,"velocity":0.7480314960629921,"duration":0.13068192708333015},{"name":"E4","midi":64,"time":48.954586249999664,"velocity":0.7480314960629921,"duration":0.13068192708333015},{"name":"D4","midi":62,"time":49.09094999999966,"velocity":0.7480314960629921,"duration":0.4545458333333343},{"name":"F4","midi":65,"time":49.63640499999966,"velocity":0.7480314960629921,"duration":0.4545458333333343},{"name":"A4","midi":69,"time":50.181859999999666,"velocity":0.7480314960629921,"duration":0.7272733333333363},{"name":"G4","midi":67,"time":51.00004249999967,"velocity":0.7480314960629921,"duration":0.13068192708333015},{"name":"F4","midi":65,"time":51.136406249999666,"velocity":0.7480314960629921,"duration":0.13068192708333015},{"name":"G4","midi":67,"time":51.27276999999966,"velocity":0.7480314960629921,"duration":0.0909091666666697},{"name":"A4","midi":69,"time":51.54549749999966,"velocity":0.7480314960629921,"duration":0.0909091666666697},{"name":"B4","midi":71,"time":51.818224999999664,"velocity":0.7480314960629921,"duration":0.0909091666666697},{"name":"C#5","midi":73,"time":52.090952499999666,"velocity":0.7480314960629921,"duration":0.0909091666666697},{"name":"D5","midi":74,"time":52.36367999999967,"velocity":0.7480314960629921,"duration":0.7272733333333363},{"name":"C#5","midi":73,"time":53.181862499999674,"velocity":0.7480314960629921,"duration":0.13068192708333015},{"name":"B4","midi":71,"time":53.31822624999967,"velocity":0.7480314960629921,"duration":0.13068192708333015},{"name":"C#5","midi":73,"time":53.45458999999966,"velocity":0.7480314960629921,"duration":0.0909091666666697},{"name":"D5","midi":74,"time":53.727317499999664,"velocity":0.7480314960629921,"duration":0.0909091666666697},{"name":"E5","midi":76,"time":54.000044999999666,"velocity":0.7480314960629921,"duration":0.0909091666666697},{"name":"F5","midi":77,"time":54.27277249999967,"velocity":0.7480314960629921,"duration":0.0909091666666697},{"name":"A5","midi":81,"time":54.54549999999967,"velocity":0.7480314960629921,"duration":0.13068192708333015},{"name":"G5","midi":79,"time":54.681863749999664,"velocity":0.7480314960629921,"duration":0.13068192708333015},{"name":"F5","midi":77,"time":54.81822749999966,"velocity":0.7480314960629921,"duration":0.13068192708333015},{"name":"E5","midi":76,"time":54.95459124999965,"velocity":0.7480314960629921,"duration":0.13068192708333015},{"name":"F5","midi":77,"time":55.090954999999646,"velocity":0.7480314960629921,"duration":0.26704567708333116},{"name":"D5","midi":74,"time":55.36368249999964,"velocity":0.7480314960629921,"duration":0.26704567708333116},{"name":"E5","midi":76,"time":55.636409999999636,"velocity":0.7480314960629921,"duration":0.4545458333333343},{"name":"D5","midi":74,"time":56.18186499999964,"velocity":0.7480314960629921,"duration":0.06250005208333675},{"name":"C#5","midi":73,"time":56.25004687499964,"velocity":0.7480314960629921,"duration":0.06250005208333675},{"name":"D5","midi":74,"time":56.31822874999964,"velocity":0.7480314960629921,"duration":0.06250005208333675},{"name":"C#5","midi":73,"time":56.38641062499964,"velocity":0.7480314960629921,"duration":0.06250005208333675},{"name":"D5","midi":74,"time":56.45459249999964,"velocity":0.7480314960629921,"duration":0.06250005208333675},{"name":"C#5","midi":73,"time":56.52277437499964,"velocity":0.7480314960629921,"duration":0.06250005208333675},{"name":"B4","midi":71,"time":56.59095624999964,"velocity":0.7480314960629921,"duration":0.06250005208333675},{"name":"C#5","midi":73,"time":56.65913812499964,"velocity":0.7480314960629921,"duration":0.06250005208333675},{"name":"D5","midi":74,"time":56.727319999999644,"velocity":0.7480314960629921,"duration":0.0909091666666697},{"name":"B4","midi":71,"time":57.000047499999646,"velocity":0.7480314960629921,"duration":0.272727500000002},{"name":"C5","midi":72,"time":57.27277499999965,"velocity":0.7480314960629921,"duration":0.272727500000002},{"name":"D#5","midi":75,"time":57.54550249999965,"velocity":0.7480314960629921,"duration":0.272727500000002},{"name":"E5","midi":76,"time":57.81822999999965,"velocity":0.7480314960629921,"duration":0.6761369270833342},{"name":"D#5","midi":75,"time":58.50004874999965,"velocity":0.7480314960629921,"duration":0.13068192708333015},{"name":"E5","midi":76,"time":58.63641249999964,"velocity":0.7480314960629921,"duration":0.13068192708333015},{"name":"F#5","midi":78,"time":58.77277624999964,"velocity":0.7480314960629921,"duration":0.13068192708333015},{"name":"G5","midi":79,"time":58.90913999999963,"velocity":0.7480314960629921,"duration":0.7272733333333363},{"name":"F5","midi":77,"time":59.72732249999964,"velocity":0.7480314960629921,"duration":0.13068192708333015},{"name":"E5","midi":76,"time":59.86368624999963,"velocity":0.7480314960629921,"duration":0.13068192708333015},{"name":"F5","midi":77,"time":60.000049999999625,"velocity":0.7480314960629921,"duration":0.0909091666666697},{"name":"G#4","midi":68,"time":60.27277749999963,"velocity":0.7480314960629921,"duration":0.0909091666666697},{"name":"A4","midi":69,"time":60.54550499999963,"velocity":0.7480314960629921,"duration":0.4545458333333343},{"name":"G4","midi":67,"time":61.36368749999963,"velocity":0.7480314960629921,"duration":0.272727500000002},{"name":"A#4","midi":70,"time":61.63641499999963,"velocity":0.7480314960629921,"duration":0.272727500000002},{"name":"B4","midi":71,"time":61.90914249999963,"velocity":0.7480314960629921,"duration":5.9943231770833165},{"name":"A#4","midi":70,"time":62.448915677082965,"velocity":0.007874015748031496,"duration":14.823875989583385},{"name":"A#4","midi":70,"time":62.448915677082965,"velocity":0.007874015748031496,"duration":15.81819500000006},{"name":"A#4","midi":70,"time":62.448915677082965,"velocity":0.007874015748031496,"duration":22.636382500000067},{"name":"A#4","midi":70,"time":62.448915677082965,"velocity":0.007874015748031496,"duration":23.590928750000074},{"name":"A#4","midi":70,"time":62.448915677082965,"velocity":0.007874015748031496,"duration":24.54547500000008},{"name":"A#4","midi":70,"time":62.448915677082965,"velocity":0.007874015748031496,"duration":25.363657500000087},{"name":"A#4","midi":70,"time":62.448915677082965,"velocity":0.007874015748031496,"duration":38.27844098958349},{"name":"A#4","midi":70,"time":62.448915677082965,"velocity":0.007874015748031496,"duration":39.40912375000016},{"name":"A#4","midi":70,"time":62.448915677082965,"velocity":0.007874015748031496,"duration":39.6420784895835},{"name":"A#4","midi":70,"time":62.448915677082965,"velocity":0.007874015748031496,"duration":42.00003500000018},{"name":"A#4","midi":70,"time":62.448915677082965,"velocity":0.007874015748031496,"duration":61.77277875000033},{"name":"A#4","midi":70,"time":62.448915677082965,"velocity":0.007874015748031496,"duration":62.00573348958366},{"name":"A#4","midi":70,"time":62.448915677082965,"velocity":0.007874015748031496,"duration":64.90914500000035},{"name":"A#4","midi":70,"time":62.448915677082965,"velocity":0.007874015748031496,"duration":72.40915125000075},{"name":"A#4","midi":70,"time":62.448915677082965,"velocity":0.007874015748031496,"duration":72.81824250000079},{"name":"A#4","midi":70,"time":62.448915677082965,"velocity":0.007874015748031496,"duration":75.27279000000098},{"name":"A4","midi":69,"time":62.45459749999963,"velocity":0.7480314960629921,"duration":0.13068192708333015},{"name":"G#4","midi":68,"time":62.59096124999962,"velocity":0.7480314960629921,"duration":0.13068192708333015},{"name":"A4","midi":69,"time":62.72732499999962,"velocity":0.7480314960629921,"duration":0.0909091666666697},{"name":"F#5","midi":78,"time":63.00005249999962,"velocity":0.7480314960629921,"duration":0.13068192708333015},{"name":"A4","midi":69,"time":63.13641624999961,"velocity":0.7480314960629921,"duration":0.13068192708333015},{"name":"G4","midi":67,"time":63.27277999999961,"velocity":0.7480314960629921,"duration":0.13068192708333015},{"name":"F#4","midi":66,"time":63.4091437499996,"velocity":0.7480314960629921,"duration":0.13068192708333015},{"name":"E4","midi":64,"time":63.545507499999594,"velocity":0.7480314960629921,"duration":0.13068192708333015},{"name":"G4","midi":67,"time":63.68187124999959,"velocity":0.7480314960629921,"duration":0.13068192708333015},{"name":"F#4","midi":66,"time":63.81823499999958,"velocity":0.7480314960629921,"duration":0.0909091666666697},{"name":"D#5","midi":75,"time":64.09096249999959,"velocity":0.7480314960629921,"duration":0.0909091666666626},{"name":"F5","midi":77,"time":64.3636899999996,"velocity":0.7480314960629921,"duration":0.028409114583340056},{"name":"E5","midi":76,"time":64.3977809374996,"velocity":0.7480314960629921,"duration":0.028409114583340056},{"name":"F5","midi":77,"time":64.43187187499962,"velocity":0.7480314960629921,"duration":0.028409114583340056},{"name":"E5","midi":76,"time":64.46596281249963,"velocity":0.7480314960629921,"duration":0.028409114583340056},{"name":"D#5","midi":75,"time":64.50005374999964,"velocity":0.7480314960629921,"duration":0.13068192708333015},{"name":"E5","midi":76,"time":64.63641749999964,"velocity":0.7480314960629921,"duration":0.26704567708333116},{"name":"E4","midi":64,"time":66.00005499999963,"velocity":0.7480314960629921,"duration":0.4545458333333272},{"name":"G#4","midi":68,"time":66.54550999999962,"velocity":0.7480314960629921,"duration":0.4545458333333272},{"name":"B4","midi":71,"time":67.09096499999961,"velocity":0.7480314960629921,"duration":1.4545466666666726},{"name":"A4","midi":69,"time":67.90914749999962,"velocity":0.7480314960629921,"duration":0.13068192708333015},{"name":"G#4","midi":68,"time":68.04551124999962,"velocity":0.7480314960629921,"duration":0.13068192708333015},{"name":"A4","midi":69,"time":68.18187499999962,"velocity":0.7480314960629921,"duration":0.0909091666666626},{"name":"B4","midi":71,"time":68.45460249999962,"velocity":0.7480314960629921,"duration":4.630685677083363},{"name":"C5","midi":72,"time":68.72732999999963,"velocity":0.7480314960629921,"duration":0.0909091666666626},{"name":"D5","midi":74,"time":69.00005749999963,"velocity":0.7480314960629921,"duration":0.0909091666666626},{"name":"E5","midi":76,"time":69.27278499999963,"velocity":0.7480314960629921,"duration":0.8125006770833352},{"name":"D5","midi":74,"time":70.09096749999964,"velocity":0.7480314960629921,"duration":0.13068192708333015},{"name":"C5","midi":72,"time":70.22733124999964,"velocity":0.7480314960629921,"duration":0.13068192708333015},{"name":"D5","midi":74,"time":70.36369499999964,"velocity":0.7480314960629921,"duration":0.0909091666666626},{"name":"E5","midi":76,"time":70.63642249999964,"velocity":0.7480314960629921,"duration":0.0909091666666626},{"name":"F#5","midi":78,"time":70.90914999999964,"velocity":0.7480314960629921,"duration":0.0909091666666626},{"name":"G#5","midi":80,"time":71.18187749999964,"velocity":0.7480314960629921,"duration":0.0909091666666626},{"name":"A5","midi":81,"time":71.45460499999965,"velocity":0.7480314960629921,"duration":0.8125006770833352},{"name":"G#5","midi":80,"time":72.27278749999965,"velocity":0.7480314960629921,"duration":0.13068192708333015},{"name":"F#5","midi":78,"time":72.40915124999965,"velocity":0.7480314960629921,"duration":0.13068192708333015},{"name":"E5","midi":76,"time":72.54551499999965,"velocity":0.7480314960629921,"duration":0.13068192708333015},{"name":"D5","midi":74,"time":72.68187874999965,"velocity":0.7480314960629921,"duration":0.13068192708333015},{"name":"C5","midi":72,"time":72.81824249999966,"velocity":0.7480314960629921,"duration":0.13068192708333015},{"name":"B4","midi":71,"time":72.95460624999966,"velocity":0.7480314960629921,"duration":4.045457916666692},{"name":"A4","midi":69,"time":73.09096999999966,"velocity":0.7480314960629921,"duration":0.6761369270833342},{"name":"E4","midi":64,"time":73.77278874999966,"velocity":0.7480314960629921,"duration":0.13068192708333015},{"name":"C5","midi":72,"time":73.90915249999966,"velocity":0.7480314960629921,"duration":0.13068192708333015},{"name":"A4","midi":69,"time":74.04551624999966,"velocity":0.7480314960629921,"duration":0.13068192708333015},{"name":"F5","midi":77,"time":74.18187999999967,"velocity":0.7480314960629921,"duration":0.13068192708333015},{"name":"C5","midi":72,"time":74.31824374999967,"velocity":0.7480314960629921,"duration":0.13068192708333015},{"name":"A5","midi":81,"time":74.45460749999967,"velocity":0.7480314960629921,"duration":0.13068192708333015},{"name":"F5","midi":77,"time":74.59097124999967,"velocity":0.7480314960629921,"duration":0.13068192708333015},{"name":"C6","midi":84,"time":74.72733499999967,"velocity":0.7480314960629921,"duration":0.0909091666666626},{"name":"F5","midi":77,"time":75.00006249999967,"velocity":0.7480314960629921,"duration":0.0909091666666626},{"name":"E5","midi":76,"time":75.27278999999967,"velocity":0.7480314960629921,"duration":0.0909091666666626},{"name":"D#5","midi":75,"time":75.54551749999968,"velocity":0.7480314960629921,"duration":0.0909091666666626},{"name":"D5","midi":74,"time":75.81824499999968,"velocity":0.7480314960629921,"duration":0.0909091666666626},{"name":"C#5","midi":73,"time":76.09097249999968,"velocity":0.7480314960629921,"duration":11.176145677083369},{"name":"D5","midi":74,"time":76.63074567708301,"velocity":0.007874015748031496,"duration":1.909092500000014},{"name":"D5","midi":74,"time":76.63074567708301,"velocity":0.007874015748031496,"duration":2.181820000000016},{"name":"D5","midi":74,"time":76.63074567708301,"velocity":0.007874015748031496,"duration":2.454547500000018},{"name":"D5","midi":74,"time":76.63074567708301,"velocity":0.007874015748031496,"duration":13.90910250000006},{"name":"D5","midi":74,"time":76.63074567708301,"velocity":0.007874015748031496,"duration":18.136378750000063},{"name":"D5","midi":74,"time":76.63074567708301,"velocity":0.007874015748031496,"duration":19.397743437500083},{"name":"D5","midi":74,"time":76.63074567708301,"velocity":0.007874015748031496,"duration":19.465925312500104},{"name":"D5","midi":74,"time":76.63074567708301,"velocity":0.007874015748031496,"duration":26.005703489583453},{"name":"D5","midi":74,"time":76.63074567708301,"velocity":0.007874015748031496,"duration":27.545477500000132},{"name":"D5","midi":74,"time":76.63074567708301,"velocity":0.007874015748031496,"duration":29.727297500000148},{"name":"D5","midi":74,"time":76.63074567708301,"velocity":0.007874015748031496,"duration":33.954573750000165},{"name":"D5","midi":74,"time":76.63074567708301,"velocity":0.007874015748031496,"duration":35.215938437500185},{"name":"D5","midi":74,"time":76.63074567708301,"velocity":0.007874015748031496,"duration":35.28412031250021},{"name":"D5","midi":74,"time":76.63074567708301,"velocity":0.007874015748031496,"duration":41.82389848958354},{"name":"D5","midi":74,"time":76.63074567708301,"velocity":0.007874015748031496,"duration":42.818217500000216},{"name":"D5","midi":74,"time":76.63074567708301,"velocity":0.007874015748031496,"duration":43.39776343750023},{"name":"C5","midi":72,"time":76.63642749999968,"velocity":0.7480314960629921,"duration":0.0909091666666626},{"name":"B4","midi":71,"time":76.90915499999969,"velocity":0.7480314960629921,"duration":12.54546500000005},{"name":"A#4","midi":70,"time":77.18188249999969,"velocity":0.7480314960629921,"duration":62.039824427084426},{"name":"A4","midi":69,"time":77.45460999999969,"velocity":0.7480314960629921,"duration":0.13068192708333015},{"name":"G4","midi":67,"time":77.59097374999969,"velocity":0.7480314960629921,"duration":0.13068192708333015},{"name":"F4","midi":65,"time":77.72733749999969,"velocity":0.7480314960629921,"duration":0.13068192708333015},{"name":"G4","midi":67,"time":77.86370124999969,"velocity":0.7480314960629921,"duration":0.13068192708333015},{"name":"A4","midi":69,"time":78.0000649999997,"velocity":0.7480314960629921,"duration":0.13068192708333015},{"name":"A#4","midi":70,"time":78.1364287499997,"velocity":0.7480314960629921,"duration":61.494369427084465},{"name":"C5","midi":72,"time":78.2727924999997,"velocity":0.7480314960629921,"duration":0.13068192708333015},{"name":"D5","midi":74,"time":78.4091562499997,"velocity":0.7480314960629921,"duration":42.13071692708357},{"name":"E5","midi":76,"time":78.5455199999997,"velocity":0.7480314960629921,"duration":0.13068192708333015},{"name":"D5","midi":74,"time":78.6818837499997,"velocity":0.7480314960629921,"duration":46.31822041666693},{"name":"C5","midi":72,"time":78.8182474999997,"velocity":0.7480314960629921,"duration":0.13068192708333015},{"name":"D5","midi":74,"time":78.9546112499997,"velocity":0.7480314960629921,"duration":48.13072192708361},{"name":"E5","midi":76,"time":79.0909749999997,"velocity":0.7480314960629921,"duration":0.13068192708333015},{"name":"F5","midi":77,"time":79.2273387499997,"velocity":0.7480314960629921,"duration":0.13068192708333015},{"name":"G5","midi":79,"time":79.3637024999997,"velocity":0.7480314960629921,"duration":0.0909091666666626},{"name":"C5","midi":72,"time":79.6364299999997,"velocity":0.7480314960629921,"duration":0.4545458333333272},{"name":"G#4","midi":68,"time":80.1818849999997,"velocity":0.7480314960629921,"duration":0.4545458333333272},{"name":"F4","midi":65,"time":80.72733999999969,"velocity":0.7480314960629921,"duration":0.7272733333333292},{"name":"G4","midi":67,"time":81.54552249999968,"velocity":0.7480314960629921,"duration":0.13068192708333015},{"name":"G#4","midi":68,"time":81.68188624999968,"velocity":0.7480314960629921,"duration":0.13068192708333015},{"name":"G4","midi":67,"time":81.81824999999968,"velocity":0.7480314960629921,"duration":0.0909091666666626},{"name":"F4","midi":65,"time":82.09097749999968,"velocity":0.7480314960629921,"duration":0.0909091666666626},{"name":"D#4","midi":63,"time":82.36370499999968,"velocity":0.7480314960629921,"duration":0.0909091666666626},{"name":"C#4","midi":61,"time":82.63643249999969,"velocity":0.7480314960629921,"duration":0.0909091666666626},{"name":"C4","midi":60,"time":82.90915999999969,"velocity":0.7480314960629921,"duration":0.0909091666666626},{"name":"F4","midi":65,"time":83.18188749999969,"velocity":0.7480314960629921,"duration":0.272727500000002},{"name":"C4","midi":60,"time":83.45461499999969,"velocity":0.7480314960629921,"duration":0.272727500000002},{"name":"G#3","midi":56,"time":83.7273424999997,"velocity":0.7480314960629921,"duration":0.272727500000002},{"name":"A#3","midi":58,"time":84.0000699999997,"velocity":0.7480314960629921,"duration":0.13068192708333015},{"name":"C4","midi":60,"time":84.1364337499997,"velocity":0.7480314960629921,"duration":0.13068192708333015},{"name":"C#4","midi":61,"time":84.2727974999997,"velocity":0.7480314960629921,"duration":0.13068192708333015},{"name":"D#4","midi":63,"time":84.4091612499997,"velocity":0.7480314960629921,"duration":0.13068192708333015},{"name":"F4","midi":65,"time":84.5455249999997,"velocity":0.7480314960629921,"duration":0.13068192708333015},{"name":"G4","midi":67,"time":84.6818887499997,"velocity":0.7480314960629921,"duration":0.13068192708333015},{"name":"G#4","midi":68,"time":84.8182524999997,"velocity":0.7480314960629921,"duration":0.13068192708333015},{"name":"A#4","midi":70,"time":84.9546162499997,"velocity":0.7480314960629921,"duration":57.772775416667855},{"name":"G4","midi":67,"time":85.0909799999997,"velocity":0.7480314960629921,"duration":0.13068192708333015},{"name":"F4","midi":65,"time":85.2273437499997,"velocity":0.7480314960629921,"duration":0.13068192708333015},{"name":"E4","midi":64,"time":85.3637074999997,"velocity":0.7480314960629921,"duration":0.13068192708333015},{"name":"F4","midi":65,"time":85.5000712499997,"velocity":0.7480314960629921,"duration":0.13068192708333015},{"name":"G4","midi":67,"time":85.63643499999971,"velocity":0.7480314960629921,"duration":0.13068192708333015},{"name":"G#4","midi":68,"time":85.77279874999971,"velocity":0.7480314960629921,"duration":0.13068192708333015},{"name":"A#4","midi":70,"time":85.90916249999971,"velocity":0.7480314960629921,"duration":57.81823000000118},{"name":"C5","midi":72,"time":86.04552624999971,"velocity":0.7480314960629921,"duration":0.13068192708333015},{"name":"G#4","midi":68,"time":86.18188999999971,"velocity":0.7480314960629921,"duration":0.13068192708333015},{"name":"G4","midi":67,"time":86.31825374999971,"velocity":0.7480314960629921,"duration":0.13068192708333015},{"name":"F4","midi":65,"time":86.45461749999971,"velocity":0.7480314960629921,"duration":0.13068192708333015},{"name":"G4","midi":67,"time":86.59098124999971,"velocity":0.7480314960629921,"duration":0.13068192708333015},{"name":"G#4","midi":68,"time":86.72734499999972,"velocity":0.7480314960629921,"duration":0.13068192708333015},{"name":"A#4","midi":70,"time":86.86370874999972,"velocity":0.7480314960629921,"duration":57.403456927084534},{"name":"C5","midi":72,"time":87.00007249999972,"velocity":0.7480314960629921,"duration":0.13068192708333015},{"name":"C#5","midi":73,"time":87.13643624999972,"velocity":0.7480314960629921,"duration":0.40340942708333216},{"name":"E4","midi":64,"time":87.27279999999972,"velocity":0.7480314960629921,"duration":0.13068192708333015},{"name":"C#5","midi":73,"time":87.40916374999972,"velocity":0.7480314960629921,"duration":4.085230677083345},{"name":"C5","midi":72,"time":87.54552749999972,"velocity":0.7480314960629921,"duration":0.13068192708333015},{"name":"A#4","midi":70,"time":87.68189124999972,"velocity":0.7480314960629921,"duration":58.63073067708467},{"name":"G#4","midi":68,"time":87.81825499999972,"velocity":0.7480314960629921,"duration":0.13068192708333015},{"name":"G4","midi":67,"time":87.95461874999972,"velocity":0.7480314960629921,"duration":0.13068192708333015},{"name":"F4","midi":65,"time":88.09098249999973,"velocity":0.7480314960629921,"duration":0.13068192708333015},{"name":"E4","midi":64,"time":88.22734624999973,"velocity":0.7480314960629921,"duration":0.13068192708333015},{"name":"F4","midi":65,"time":88.36370999999973,"velocity":0.7480314960629921,"duration":0.0909091666666626},{"name":"G4","midi":67,"time":88.63643749999973,"velocity":0.7480314960629921,"duration":0.272727500000002},{"name":"G#4","midi":68,"time":88.90916499999973,"velocity":0.7480314960629921,"duration":0.272727500000002},{"name":"B4","midi":71,"time":89.18189249999973,"velocity":0.7480314960629921,"duration":1.0852281770833372},{"name":"C5","midi":72,"time":89.45461999999974,"velocity":0.7480314960629921,"duration":0.6761369270833342},{"name":"B4","midi":71,"time":90.13643874999974,"velocity":0.7480314960629921,"duration":5.681822916666675},{"name":"C5","midi":72,"time":90.27280249999974,"velocity":0.7480314960629921,"duration":0.13068192708333015},{"name":"D5","midi":74,"time":90.40916624999974,"velocity":0.7480314960629921,"duration":38.5852594270836},{"name":"D#5","midi":75,"time":90.54552999999974,"velocity":0.7480314960629921,"duration":0.7272733333333292},{"name":"C#5","midi":73,"time":91.36371249999974,"velocity":0.7480314960629921,"duration":0.3636366666666646},{"name":"C5","midi":72,"time":91.50007624999974,"velocity":0.7480314960629921,"duration":0.13068192708333015},{"name":"C#5","midi":73,"time":91.63643999999974,"velocity":0.7480314960629921,"duration":15.67614942708343},{"name":"E4","midi":64,"time":91.90916749999974,"velocity":0.7480314960629921,"duration":0.0909091666666626},{"name":"F4","midi":65,"time":92.18189499999974,"velocity":0.7480314960629921,"duration":0.4545458333333272},{"name":"D#4","midi":63,"time":93.00007749999973,"velocity":0.7480314960629921,"duration":0.272727500000002},{"name":"F#4","midi":66,"time":93.27280499999974,"velocity":0.7480314960629921,"duration":0.272727500000002},{"name":"G4","midi":67,"time":93.54553249999974,"velocity":0.7480314960629921,"duration":0.5397731770833332},{"name":"F4","midi":65,"time":94.09098749999974,"velocity":0.7480314960629921,"duration":0.13068192708333015},{"name":"E4","midi":64,"time":94.22735124999974,"velocity":0.7480314960629921,"duration":0.13068192708333015},{"name":"F4","midi":65,"time":94.36371499999974,"velocity":0.7480314960629921,"duration":0.0909091666666626},{"name":"D5","midi":74,"time":94.63644249999975,"velocity":0.7480314960629921,"duration":34.39207411458359},{"name":"F4","midi":65,"time":94.77280624999975,"velocity":0.7480314960629921,"duration":0.13068192708333015},{"name":"D#4","midi":63,"time":94.90916999999975,"velocity":0.7480314960629921,"duration":0.13068192708333015},{"name":"D4","midi":62,"time":95.04553374999975,"velocity":0.7480314960629921,"duration":0.13068192708333015},{"name":"C4","midi":60,"time":95.18189749999975,"velocity":0.7480314960629921,"duration":0.13068192708333015},{"name":"D#4","midi":63,"time":95.31826124999975,"velocity":0.7480314960629921,"duration":0.13068192708333015},{"name":"D4","midi":62,"time":95.45462499999975,"velocity":0.7480314960629921,"duration":0.0909091666666626},{"name":"B4","midi":71,"time":95.72735249999975,"velocity":0.7480314960629921,"duration":0.5397731770833758},{"name":"D5","midi":74,"time":96.00007999999976,"velocity":0.7480314960629921,"duration":33.09661848958358},{"name":"C5","midi":72,"time":96.03417093749977,"velocity":0.7480314960629921,"duration":0.028409114583340056},{"name":"D5","midi":74,"time":96.06826187499978,"velocity":0.7480314960629921,"duration":33.60798255208361},{"name":"C5","midi":72,"time":96.10235281249979,"velocity":0.7480314960629921,"duration":0.028409114583340056},{"name":"B4","midi":71,"time":96.1364437499998,"velocity":0.7480314960629921,"duration":9.136371250000025},{"name":"C5","midi":72,"time":96.2728074999998,"velocity":0.7480314960629921,"duration":0.26704567708333116},{"name":"C4","midi":60,"time":97.6364449999998,"velocity":0.7480314960629921,"duration":0.4545458333333272},{"name":"E4","midi":64,"time":98.18189999999979,"velocity":0.7480314960629921,"duration":0.4545458333333272},{"name":"G4","midi":67,"time":98.72735499999978,"velocity":0.7480314960629921,"duration":0.8125006770833352},{"name":"F4","midi":65,"time":99.54553749999978,"velocity":0.7480314960629921,"duration":0.13068192708333015},{"name":"E4","midi":64,"time":99.68190124999978,"velocity":0.7480314960629921,"duration":0.13068192708333015},{"name":"F4","midi":65,"time":99.81826499999978,"velocity":0.7480314960629921,"duration":0.0909091666666626},{"name":"G4","midi":67,"time":100.09099249999979,"velocity":0.7480314960629921,"duration":0.0909091666666626},{"name":"G#4","midi":68,"time":100.36371999999979,"velocity":0.7480314960629921,"duration":0.0909091666666626},{"name":"A#4","midi":70,"time":100.63644749999979,"velocity":0.7480314960629921,"duration":46.08526567708465},{"name":"C5","midi":72,"time":100.90917499999979,"velocity":0.7480314960629921,"duration":0.8125006770833352},{"name":"A#4","midi":70,"time":101.7273574999998,"velocity":0.7480314960629921,"duration":48.94890442708483},{"name":"G#4","midi":68,"time":101.8637212499998,"velocity":0.7480314960629921,"duration":0.13068192708333015},{"name":"A#4","midi":70,"time":102.0000849999998,"velocity":0.7480314960629921,"duration":49.08526817708487},{"name":"C5","midi":72,"time":102.2728124999998,"velocity":0.7480314960629921,"duration":0.0909091666666626},{"name":"D5","midi":74,"time":102.5455399999998,"velocity":0.7480314960629921,"duration":27.53979567708363},{"name":"E5","midi":76,"time":102.8182674999998,"velocity":0.7480314960629921,"duration":0.0909091666666626},{"name":"F5","midi":77,"time":103.09099499999981,"velocity":0.7480314960629921,"duration":0.8125006770833352},{"name":"E5","midi":76,"time":103.90917749999981,"velocity":0.7480314960629921,"duration":0.13068192708333015},{"name":"D5","midi":74,"time":104.04554124999981,"velocity":0.7480314960629921,"duration":27.267068177083758},{"name":"C5","midi":72,"time":104.18190499999982,"velocity":0.7480314960629921,"duration":0.13068192708333015},{"name":"A#4","midi":70,"time":104.31826874999982,"velocity":0.7480314960629921,"duration":50.85799692708531},{"name":"G#4","midi":68,"time":104.45463249999982,"velocity":0.7480314960629921,"duration":0.13068192708333015},{"name":"G4","midi":67,"time":104.59099624999982,"velocity":0.7480314960629921,"duration":0.13068192708333015},{"name":"G#4","midi":68,"time":104.72735999999982,"velocity":0.7480314960629921,"duration":0.272727500000002},{"name":"B4","midi":71,"time":105.00008749999982,"velocity":0.7480314960629921,"duration":1.0852281770833372},{"name":"C5","midi":72,"time":105.27281499999982,"velocity":0.7480314960629921,"duration":0.6761369270833342},{"name":"B4","midi":71,"time":105.95463374999983,"velocity":0.7480314960629921,"duration":6.130686927083403},{"name":"C5","midi":72,"time":106.09099749999983,"velocity":0.7480314960629921,"duration":0.13068192708333015},{"name":"D5","midi":74,"time":106.22736124999983,"velocity":0.7480314960629921,"duration":25.494339427083787},{"name":"D#5","midi":75,"time":106.36372499999983,"velocity":0.7480314960629921,"duration":12.363646666666725},{"name":"E5","midi":76,"time":107.17622567708317,"velocity":0.007874015748031496,"duration":18.096605989583466},{"name":"E5","midi":76,"time":107.17622567708317,"velocity":0.007874015748031496,"duration":19.772743750000146},{"name":"E5","midi":76,"time":107.17622567708317,"velocity":0.007874015748031496,"duration":22.363655000000207},{"name":"E5","midi":76,"time":107.17622567708317,"velocity":0.007874015748031496,"duration":22.772746250000253},{"name":"E5","midi":76,"time":107.17622567708317,"velocity":0.007874015748031496,"duration":24.00002000000039},{"name":"E5","midi":76,"time":107.17622567708317,"velocity":0.007874015748031496,"duration":25.636385000000487},{"name":"E5","midi":76,"time":107.17622567708317,"velocity":0.007874015748031496,"duration":41.454580000001314},{"name":"E5","midi":76,"time":107.17622567708317,"velocity":0.007874015748031496,"duration":44.59094625000158},{"name":"E5","midi":76,"time":107.17622567708317,"velocity":0.007874015748031496,"duration":45.000037500001625},{"name":"E5","midi":76,"time":107.17622567708317,"velocity":0.007874015748031496,"duration":45.40912875000167},{"name":"E5","midi":76,"time":107.17622567708317,"velocity":0.007874015748031496,"duration":48.136403750001975},{"name":"E5","midi":76,"time":107.17622567708317,"velocity":0.007874015748031496,"duration":49.36367750000211},{"name":"E5","midi":76,"time":107.17622567708317,"velocity":0.007874015748031496,"duration":50.59095125000225},{"name":"E5","midi":76,"time":107.17622567708317,"velocity":0.007874015748031496,"duration":51.000042500002294},{"name":"E5","midi":76,"time":107.17622567708317,"velocity":0.007874015748031496,"duration":0},{"name":"E5","midi":76,"time":107.17622567708317,"velocity":0.007874015748031496,"duration":0},{"name":"C#5","midi":73,"time":107.18190749999984,"velocity":0.7480314960629921,"duration":0.3636366666666646},{"name":"C5","midi":72,"time":107.31827124999984,"velocity":0.7480314960629921,"duration":0.13068192708333015},{"name":"C#5","midi":73,"time":107.45463499999984,"velocity":0.7480314960629921,"duration":54.72731833333593},{"name":"E4","midi":64,"time":107.72736249999984,"velocity":0.7480314960629921,"duration":0.0909091666666626},{"name":"F4","midi":65,"time":108.00008999999984,"velocity":0.7480314960629921,"duration":0.4545458333333272},{"name":"D#4","midi":63,"time":108.81827249999984,"velocity":0.7480314960629921,"duration":0.272727500000002},{"name":"F#4","midi":66,"time":109.09099999999984,"velocity":0.7480314960629921,"duration":0.272727500000002},{"name":"G4","midi":67,"time":109.36372749999984,"velocity":0.7480314960629921,"duration":0.5397731770833332},{"name":"F4","midi":65,"time":109.90918249999984,"velocity":0.7480314960629921,"duration":0.13068192708333015},{"name":"E4","midi":64,"time":110.04554624999984,"velocity":0.7480314960629921,"duration":0.13068192708333015},{"name":"F4","midi":65,"time":110.18190999999985,"velocity":0.7480314960629921,"duration":0.0909091666666626},{"name":"D5","midi":74,"time":110.45463749999985,"velocity":0.7480314960629921,"duration":24.53979317708388},{"name":"F4","midi":65,"time":110.59100124999985,"velocity":0.7480314960629921,"duration":0.13068192708333015},{"name":"D#4","midi":63,"time":110.72736499999985,"velocity":0.7480314960629921,"duration":0.13068192708333015},{"name":"D4","midi":62,"time":110.86372874999985,"velocity":0.7480314960629921,"duration":0.13068192708333015},{"name":"C4","midi":60,"time":111.00009249999985,"velocity":0.7480314960629921,"duration":0.13068192708333015},{"name":"D#4","midi":63,"time":111.13645624999985,"velocity":0.7480314960629921,"duration":0.13068192708333015},{"name":"D4","midi":62,"time":111.27281999999985,"velocity":0.7480314960629921,"duration":0.0909091666666626},{"name":"G4","midi":67,"time":111.54554749999986,"velocity":0.7480314960629921,"duration":0.0909091666666626},{"name":"D5","midi":74,"time":111.81827499999986,"velocity":0.7480314960629921,"duration":27.53979567708427},{"name":"C5","midi":72,"time":111.85236593749987,"velocity":0.7480314960629921,"duration":0.028409114583340056},{"name":"D5","midi":74,"time":111.88645687499988,"velocity":0.7480314960629921,"duration":32.11366312500101},{"name":"C5","midi":72,"time":111.92054781249989,"velocity":0.7480314960629921,"duration":0.028409114583340056},{"name":"B4","midi":71,"time":111.9546387499999,"velocity":0.7480314960629921,"duration":0.8125006770833352},{"name":"C5","midi":72,"time":112.0910024999999,"velocity":0.7480314960629921,"duration":0.5397731770833332},{"name":"B4","midi":71,"time":112.6364574999999,"velocity":0.7480314960629921,"duration":3.909094166666648},{"name":"A4","midi":69,"time":112.77282124999991,"velocity":0.7480314960629921,"duration":0.13068192708333015},{"name":"G4","midi":67,"time":112.90918499999991,"velocity":0.7480314960629921,"duration":0.13068192708333015},{"name":"F4","midi":65,"time":113.04554874999991,"velocity":0.7480314960629921,"duration":0.13068192708333015},{"name":"D#4","midi":63,"time":113.18191249999991,"velocity":0.7480314960629921,"duration":0.13068192708333015},{"name":"D4","midi":62,"time":113.31827624999991,"velocity":0.7480314960629921,"duration":0.13068192708333015},{"name":"C4","midi":60,"time":113.45463999999991,"velocity":0.7480314960629921,"duration":0.4545458333333272},{"name":"D#4","midi":63,"time":114.0000949999999,"velocity":0.7480314960629921,"duration":0.4545458333333272},{"name":"G4","midi":67,"time":114.54554999999989,"velocity":0.7480314960629921,"duration":0.7272733333333292},{"name":"F4","midi":65,"time":115.36373249999988,"velocity":0.7480314960629921,"duration":0.13068192708333015},{"name":"D#4","midi":63,"time":115.50009624999988,"velocity":0.7480314960629921,"duration":0.13068192708333015},{"name":"F4","midi":65,"time":115.63645999999989,"velocity":0.7480314960629921,"duration":0.0909091666666626},{"name":"G4","midi":67,"time":115.90918749999989,"velocity":0.7480314960629921,"duration":0.0909091666666626},{"name":"A4","midi":69,"time":116.18191499999989,"velocity":0.7480314960629921,"duration":0.0909091666666626},{"name":"B4","midi":71,"time":116.45464249999989,"velocity":0.7480314960629921,"duration":1.221591927083324},{"name":"C5","midi":72,"time":116.7273699999999,"velocity":0.7480314960629921,"duration":0.7272733333333292},{"name":"B4","midi":71,"time":117.54555249999989,"velocity":0.7480314960629921,"duration":0.3636366666666646},{"name":"A4","midi":69,"time":117.68191624999989,"velocity":0.7480314960629921,"duration":0.13068192708333015},{"name":"B4","midi":71,"time":117.81827999999989,"velocity":0.7480314960629921,"duration":2.857956927083393},{"name":"C5","midi":72,"time":118.09100749999989,"velocity":0.7480314960629921,"duration":0.0909091666666626},{"name":"D5","midi":74,"time":118.36373499999989,"velocity":0.7480314960629921,"duration":28.085250677084517},{"name":"D#5","midi":75,"time":118.6364624999999,"velocity":0.7480314960629921,"duration":0.6761369270833342},{"name":"G5","midi":79,"time":118.9091899999999,"velocity":0.7480314960629921,"duration":0.13068192708333015},{"name":"F5","midi":77,"time":119.0455537499999,"velocity":0.7480314960629921,"duration":0.13068192708333015},{"name":"D#5","midi":75,"time":119.1819174999999,"velocity":0.7480314960629921,"duration":0.3636366666666646},{"name":"D5","midi":74,"time":119.3182812499999,"velocity":0.7480314960629921,"duration":30.812525677084665},{"name":"D#5","midi":75,"time":119.4546449999999,"velocity":0.7480314960629921,"duration":34.22161942708506},{"name":"C5","midi":72,"time":119.7273724999999,"velocity":0.7480314960629921,"duration":0.0909091666666626},{"name":"D5","midi":74,"time":120.0000999999999,"velocity":0.7480314960629921,"duration":30.539798177084705},{"name":"C5","midi":72,"time":120.03419093749991,"velocity":0.7480314960629921,"duration":0.028409114583340056},{"name":"D5","midi":74,"time":120.06828187499993,"velocity":0.7480314960629921,"duration":30.88070755208473},{"name":"C5","midi":72,"time":120.54555499999994,"velocity":0.7480314960629921,"duration":0.06250005208333675},{"name":"B4","midi":71,"time":120.61373687499994,"velocity":0.7480314960629921,"duration":0.19886380208335197},{"name":"C5","midi":72,"time":120.68191874999995,"velocity":0.7480314960629921,"duration":0.06250005208333675},{"name":"B4","midi":71,"time":120.75010062499996,"velocity":0.7480314960629921,"duration":0.19886380208335197},{"name":"C5","midi":72,"time":120.81828249999997,"velocity":0.7480314960629921,"duration":0.06250005208333675},{"name":"B4","midi":71,"time":120.88646437499997,"velocity":0.7480314960629921,"duration":0.19886380208335197},{"name":"A4","midi":69,"time":120.95464624999998,"velocity":0.7480314960629921,"duration":0.06250005208333675},{"name":"B4","midi":71,"time":121.02282812499999,"velocity":0.7480314960629921,"duration":8.244325052083354},{"name":"C5","midi":72,"time":121.09101,"velocity":0.7480314960629921,"duration":0.4545458333333272},{"name":"F4","midi":65,"time":122.18191999999999,"velocity":0.7480314960629921,"duration":0.4545458333333272},{"name":"A4","midi":69,"time":122.72737499999998,"velocity":0.7480314960629921,"duration":0.4545458333333272},{"name":"C5","midi":72,"time":123.27282999999997,"velocity":0.7480314960629921,"duration":0.7272733333333292},{"name":"A#4","midi":70,"time":124.09101249999996,"velocity":0.7480314960629921,"duration":31.357980677085195},{"name":"A4","midi":69,"time":124.22737624999996,"velocity":0.7480314960629921,"duration":0.13068192708333015},{"name":"A#4","midi":70,"time":124.36373999999996,"velocity":0.7480314960629921,"duration":31.357980677085223},{"name":"C5","midi":72,"time":124.63646749999997,"velocity":0.7480314960629921,"duration":0.0909091666666626},{"name":"D5","midi":74,"time":124.90919499999997,"velocity":0.7480314960629921,"duration":26.448885677084732},{"name":"E5","midi":76,"time":125.18192249999997,"velocity":0.7480314960629921,"duration":0},{"name":"F5","midi":77,"time":125.45464999999997,"velocity":0.7480314960629921,"duration":0.0909091666666626},{"name":"C5","midi":72,"time":125.72737749999997,"velocity":0.7480314960629921,"duration":0.272727500000002},{"name":"F5","midi":77,"time":126.00010499999998,"velocity":0.7480314960629921,"duration":0.272727500000002},{"name":"A5","midi":81,"time":126.27283249999998,"velocity":0.7480314960629921,"duration":0.272727500000002},{"name":"G5","midi":79,"time":126.54555999999998,"velocity":0.7480314960629921,"duration":0.13068192708333015},{"name":"F5","midi":77,"time":126.68192374999998,"velocity":0.7480314960629921,"duration":0.13068192708333015},{"name":"E5","midi":76,"time":126.81828749999998,"velocity":0.7480314960629921,"duration":0},{"name":"D5","midi":74,"time":126.95465124999998,"velocity":0.7480314960629921,"duration":26.85797692708499},{"name":"C5","midi":72,"time":127.09101499999998,"velocity":0.7480314960629921,"duration":0.13068192708333015},{"name":"A#4","midi":70,"time":127.22737874999999,"velocity":0.7480314960629921,"duration":28.767069427085232},{"name":"A4","midi":69,"time":127.36374249999999,"velocity":0.7480314960629921,"duration":0.13068192708333015},{"name":"G4","midi":67,"time":127.50010624999999,"velocity":0.7480314960629921,"duration":0.13068192708333015},{"name":"A4","midi":69,"time":127.63646999999999,"velocity":0.7480314960629921,"duration":0.13068192708333015},{"name":"C5","midi":72,"time":127.77283374999999,"velocity":0.7480314960629921,"duration":0.13068192708333015},{"name":"F4","midi":65,"time":127.90919749999999,"velocity":0.7480314960629921,"duration":0.13068192708333015},{"name":"A4","midi":69,"time":128.04556125,"velocity":0.7480314960629921,"duration":0.13068192708334436},{"name":"D5","midi":74,"time":128.181925,"velocity":0.7480314960629921,"duration":26.585249427085074},{"name":"D5","midi":74,"time":129.0001075,"velocity":0.7480314960629921,"duration":26.0397944270851},{"name":"C5","midi":72,"time":129.0341984375,"velocity":0.7480314960629921,"duration":0.028409114583325845},{"name":"D5","midi":74,"time":129.068289375,"velocity":0.7480314960629921,"duration":27.607977552085288},{"name":"C5","midi":72,"time":129.1023803125,"velocity":0.7480314960629921,"duration":0.028409114583325845},{"name":"B4","midi":71,"time":129.13647125,"velocity":0.7480314960629921,"duration":1.221591927083466},{"name":"C5","midi":72,"time":129.27283500000001,"velocity":0.7480314960629921,"duration":0.13068192708334436},{"name":"E5","midi":76,"time":129.40919875000003,"velocity":0.7480314960629921,"duration":0},{"name":"D5","midi":74,"time":129.54556250000005,"velocity":0.7480314960629921,"duration":0},{"name":"F5","midi":77,"time":129.68192625000006,"velocity":0.7480314960629921,"duration":0.13068192708334436},{"name":"E5","midi":76,"time":129.81829000000008,"velocity":0.7480314960629921,"duration":0},{"name":"D5","midi":74,"time":129.9546537500001,"velocity":0.7480314960629921,"duration":0},{"name":"C5","midi":72,"time":130.0910175000001,"velocity":0.7480314960629921,"duration":0.13068192708334436},{"name":"B4","midi":71,"time":130.22738125000012,"velocity":0.7480314960629921,"duration":1.3579556770834813},{"name":"A4","midi":69,"time":130.36374500000014,"velocity":0.7480314960629921,"duration":0.13068192708334436},{"name":"C5","midi":72,"time":130.50010875000015,"velocity":0.7480314960629921,"duration":0.13068192708334436},{"name":"G4","midi":67,"time":130.63647250000017,"velocity":0.7480314960629921,"duration":0.13068192708334436},{"name":"C5","midi":72,"time":130.77283625000018,"velocity":0.7480314960629921,"duration":0.13068192708334436},{"name":"F4","midi":65,"time":130.9092000000002,"velocity":0.7480314960629921,"duration":0.13068192708334436},{"name":"E5","midi":76,"time":131.0455637500002,"velocity":0.7480314960629921,"duration":0},{"name":"D5","midi":74,"time":131.18192750000023,"velocity":0.7480314960629921,"duration":0},{"name":"C5","midi":72,"time":131.31829125000024,"velocity":0.7480314960629921,"duration":0.13068192708334436},{"name":"B4","midi":71,"time":131.45465500000026,"velocity":0.7480314960629921,"duration":0.53977317708339},{"name":"D5","midi":74,"time":131.59101875000027,"velocity":0.7480314960629921,"duration":0},{"name":"G4","midi":67,"time":131.7273825000003,"velocity":0.7480314960629921,"duration":0.13068192708334436},{"name":"B4","midi":71,"time":131.8637462500003,"velocity":0.7480314960629921,"duration":30.318207083335466},{"name":"C5","midi":72,"time":132.00011000000032,"velocity":0.7480314960629921,"duration":0.67613692708332},{"name":"E5","midi":76,"time":132.6819287500003,"velocity":0.7480314960629921,"duration":0},{"name":"A4","midi":69,"time":132.81829250000033,"velocity":0.7480314960629921,"duration":0.13068192708334436},{"name":"C5","midi":72,"time":132.95465625000034,"velocity":0.7480314960629921,"duration":0.13068192708334436},{"name":"F4","midi":65,"time":133.09102000000036,"velocity":0.7480314960629921,"duration":0.67613692708332},{"name":"A4","midi":69,"time":133.77283875000035,"velocity":0.7480314960629921,"duration":0.13068192708334436},{"name":"D4","midi":62,"time":133.90920250000036,"velocity":0.7480314960629921,"duration":0.13068192708334436},{"name":"F4","midi":65,"time":134.04556625000038,"velocity":0.7480314960629921,"duration":0.13068192708334436},{"name":"A#4","midi":70,"time":134.1819300000004,"velocity":0.7480314960629921,"duration":23.039791927084963},{"name":"D5","midi":74,"time":134.86374875000038,"velocity":0.7480314960629921,"duration":0},{"name":"G4","midi":67,"time":135.0001125000004,"velocity":0.7480314960629921,"duration":0.13068192708334436},{"name":"A#4","midi":70,"time":135.1364762500004,"velocity":0.7480314960629921,"duration":0},{"name":"E4","midi":64,"time":135.27284000000043,"velocity":0.7480314960629921,"duration":0.67613692708332},{"name":"G4","midi":67,"time":135.95465875000042,"velocity":0.7480314960629921,"duration":0.13068192708334436},{"name":"C4","midi":60,"time":136.09102250000043,"velocity":0.7480314960629921,"duration":0.13068192708334436},{"name":"E4","midi":64,"time":136.22738625000045,"velocity":0.7480314960629921,"duration":0.13068192708334436},{"name":"A4","midi":69,"time":136.36375000000046,"velocity":0.7480314960629921,"duration":0.13068192708334436},{"name":"C5","midi":72,"time":136.50011375000048,"velocity":0.7480314960629921,"duration":0.13068192708334436},{"name":"F4","midi":65,"time":136.6364775000005,"velocity":0.7480314960629921,"duration":0.13068192708334436},{"name":"A4","midi":69,"time":136.7728412500005,"velocity":0.7480314960629921,"duration":0.13068192708334436},{"name":"D4","midi":62,"time":136.90920500000053,"velocity":0.7480314960629921,"duration":0.13068192708334436},{"name":"F4","midi":65,"time":137.04556875000054,"velocity":0.7480314960629921,"duration":0.13068192708334436},{"name":"A#3","midi":58,"time":137.18193250000056,"velocity":0.7480314960629921,"duration":0.13068192708334436},{"name":"D4","midi":62,"time":137.31829625000057,"velocity":0.7480314960629921,"duration":0.13068192708334436},{"name":"G4","midi":67,"time":137.4546600000006,"velocity":0.7480314960629921,"duration":0.13068192708334436},{"name":"A#4","midi":70,"time":137.5910237500006,"velocity":0.7480314960629921,"duration":0},{"name":"E4","midi":64,"time":137.72738750000062,"velocity":0.7480314960629921,"duration":0.13068192708334436},{"name":"G4","midi":67,"time":137.86375125000063,"velocity":0.7480314960629921,"duration":0.13068192708334436},{"name":"C4","midi":60,"time":138.00011500000065,"velocity":0.7480314960629921,"duration":0.13068192708334436},{"name":"E4","midi":64,"time":138.13647875000066,"velocity":0.7480314960629921,"duration":0.13068192708334436},{"name":"A3","midi":57,"time":138.27284250000068,"velocity":0.7480314960629921,"duration":0.13068192708334436},{"name":"C4","midi":60,"time":138.4092062500007,"velocity":0.7480314960629921,"duration":0.13068192708334436},{"name":"F4","midi":65,"time":138.5455700000007,"velocity":0.7480314960629921,"duration":0.13068192708334436},{"name":"A4","midi":69,"time":138.68193375000072,"velocity":0.7480314960629921,"duration":0.13068192708334436},{"name":"D4","midi":62,"time":138.81829750000074,"velocity":0.7480314960629921,"duration":0.13068192708334436},{"name":"F4","midi":65,"time":138.95466125000075,"velocity":0.7480314960629921,"duration":0.13068192708334436},{"name":"A#4","midi":70,"time":139.09102500000077,"velocity":0.7480314960629921,"duration":0},{"name":"D5","midi":74,"time":139.22738875000078,"velocity":0.7480314960629921,"duration":0},{"name":"G4","midi":67,"time":139.3637525000008,"velocity":0.7480314960629921,"duration":0.13068192708334436},{"name":"A#4","midi":70,"time":139.50011625000081,"velocity":0.7480314960629921,"duration":0},{"name":"C4","midi":60,"time":139.63648000000083,"velocity":0.7480314960629921,"duration":0.4545458333333272},{"name":"E4","midi":64,"time":140.18193500000083,"velocity":0.7480314960629921,"duration":0.4545458333333272},{"name":"F4","midi":65,"time":140.72739000000084,"velocity":0.7480314960629921,"duration":0.7272733333333292},{"name":"F4","midi":65,"time":141.54557250000084,"velocity":0.7480314960629921,"duration":0.13068192708334436},{"name":"E4","midi":64,"time":141.68193625000086,"velocity":0.7480314960629921,"duration":0.13068192708334436},{"name":"F4","midi":65,"time":141.81830000000087,"velocity":0.7480314960629921,"duration":0.09090916666667681},{"name":"G4","midi":67,"time":142.09102750000088,"velocity":0.7480314960629921,"duration":0.09090916666667681},{"name":"A4","midi":69,"time":142.36375500000088,"velocity":0.7480314960629921,"duration":0.09090916666667681},{"name":"A#4","midi":70,"time":142.63648250000088,"velocity":0.7480314960629921,"duration":0},{"name":"C5","midi":72,"time":142.90921000000088,"velocity":0.7480314960629921,"duration":0.09090916666667681},{"name":"F4","midi":65,"time":143.18193750000088,"velocity":0.7480314960629921,"duration":0.272727500000002},{"name":"A#4","midi":70,"time":143.4546650000009,"velocity":0.7480314960629921,"duration":0},{"name":"D5","midi":74,"time":143.7273925000009,"velocity":0.7480314960629921,"duration":0},{"name":"C5","midi":72,"time":144.0001200000009,"velocity":0.7480314960629921,"duration":0.13068192708334436},{"name":"A#4","midi":70,"time":144.1364837500009,"velocity":0.7480314960629921,"duration":0},{"name":"A4","midi":69,"time":144.27284750000092,"velocity":0.7480314960629921,"duration":0.13068192708334436},{"name":"G4","midi":67,"time":144.40921125000094,"velocity":0.7480314960629921,"duration":0.13068192708334436},{"name":"F4","midi":65,"time":144.54557500000095,"velocity":0.7480314960629921,"duration":0.13068192708334436},{"name":"D#4","midi":63,"time":144.68193875000097,"velocity":0.7480314960629921,"duration":0.13068192708334436},{"name":"D4","midi":62,"time":144.81830250000098,"velocity":0.7480314960629921,"duration":0.13068192708334436},{"name":"C4","midi":60,"time":144.954666250001,"velocity":0.7480314960629921,"duration":0.13068192708334436},{"name":"D4","midi":62,"time":145.091030000001,"velocity":0.7480314960629921,"duration":0.13068192708334436},{"name":"A#3","midi":58,"time":145.22739375000103,"velocity":0.7480314960629921,"duration":0.13068192708334436},{"name":"F4","midi":65,"time":145.36375750000104,"velocity":0.7480314960629921,"duration":0.13068192708334436},{"name":"D4","midi":62,"time":145.50012125000106,"velocity":0.7480314960629921,"duration":0.13068192708334436},{"name":"A#4","midi":70,"time":145.63648500000107,"velocity":0.7480314960629921,"duration":0},{"name":"D5","midi":74,"time":146.31830375000106,"velocity":0.7480314960629921,"duration":0},{"name":"G4","midi":67,"time":146.45466750000108,"velocity":0.7480314960629921,"duration":0.13068192708334436},{"name":"A#4","midi":70,"time":146.5910312500011,"velocity":0.7480314960629921,"duration":0},{"name":"E4","midi":64,"time":146.7273950000011,"velocity":0.7480314960629921,"duration":0.67613692708332},{"name":"C4","midi":60,"time":147.4092137500011,"velocity":0.7480314960629921,"duration":0.13068192708334436},{"name":"G4","midi":67,"time":147.54557750000112,"velocity":0.7480314960629921,"duration":0.13068192708334436},{"name":"E4","midi":64,"time":147.68194125000113,"velocity":0.7480314960629921,"duration":0.13068192708334436},{"name":"C5","midi":72,"time":147.81830500000115,"velocity":0.7480314960629921,"duration":0.67613692708332},{"name":"E5","midi":76,"time":148.50012375000114,"velocity":0.7480314960629921,"duration":0},{"name":"A4","midi":69,"time":148.63648750000115,"velocity":0.7480314960629921,"duration":0.13068192708334436},{"name":"C5","midi":72,"time":148.77285125000117,"velocity":0.7480314960629921,"duration":0.13068192708334436},{"name":"F4","midi":65,"time":148.90921500000118,"velocity":0.7480314960629921,"duration":0.67613692708332},{"name":"D4","midi":62,"time":149.59103375000117,"velocity":0.7480314960629921,"duration":0.13068192708334436},{"name":"A4","midi":69,"time":149.7273975000012,"velocity":0.7480314960629921,"duration":0.13068192708334436},{"name":"F4","midi":65,"time":149.8637612500012,"velocity":0.7480314960629921,"duration":0.13068192708334436},{"name":"D5","midi":74,"time":150.00012500000122,"velocity":0.7480314960629921,"duration":0},{"name":"A4","midi":69,"time":150.13648875000123,"velocity":0.7480314960629921,"duration":0.13068192708334436},{"name":"F5","midi":77,"time":150.27285250000125,"velocity":0.7480314960629921,"duration":0.13068192708334436},{"name":"D5","midi":74,"time":150.40921625000126,"velocity":0.7480314960629921,"duration":0},{"name":"A#4","midi":70,"time":150.54558000000128,"velocity":0.7480314960629921,"duration":0},{"name":"G4","midi":67,"time":150.6819437500013,"velocity":0.7480314960629921,"duration":0.13068192708334436},{"name":"D5","midi":74,"time":150.8183075000013,"velocity":0.7480314960629921,"duration":0},{"name":"A#4","midi":70,"time":150.95467125000133,"velocity":0.7480314960629921,"duration":0},{"name":"G5","midi":79,"time":151.09103500000134,"velocity":0.7480314960629921,"duration":0.13068192708334436},{"name":"D5","midi":74,"time":151.22739875000136,"velocity":0.7480314960629921,"duration":0},{"name":"A#5","midi":82,"time":151.36376250000137,"velocity":0.7480314960629921,"duration":0.13068192708334436},{"name":"G5","midi":79,"time":151.5001262500014,"velocity":0.7480314960629921,"duration":0.13068192708334436},{"name":"E5","midi":76,"time":151.6364900000014,"velocity":0.7480314960629921,"duration":0},{"name":"C5","midi":72,"time":151.77285375000142,"velocity":0.7480314960629921,"duration":0.13068192708334436},{"name":"G5","midi":79,"time":151.90921750000143,"velocity":0.7480314960629921,"duration":0.13068192708334436},{"name":"E5","midi":76,"time":152.04558125000145,"velocity":0.7480314960629921,"duration":0},{"name":"A#5","midi":82,"time":152.18194500000146,"velocity":0.7480314960629921,"duration":0.13068192708334436},{"name":"G5","midi":79,"time":152.31830875000148,"velocity":0.7480314960629921,"duration":0.13068192708334436},{"name":"E5","midi":76,"time":152.4546725000015,"velocity":0.7480314960629921,"duration":0},{"name":"C6","midi":84,"time":152.5910362500015,"velocity":0.7480314960629921,"duration":0.13068192708334436},{"name":"A5","midi":81,"time":152.72740000000152,"velocity":0.7480314960629921,"duration":0.13068192708334436},{"name":"C6","midi":84,"time":152.86376375000154,"velocity":0.7480314960629921,"duration":0.13068192708334436},{"name":"F5","midi":77,"time":153.00012750000155,"velocity":0.7480314960629921,"duration":0.13068192708334436},{"name":"A5","midi":81,"time":153.13649125000157,"velocity":0.7480314960629921,"duration":0.13068192708334436},{"name":"C5","midi":72,"time":153.27285500000158,"velocity":0.7480314960629921,"duration":0.13068192708334436},{"name":"F5","midi":77,"time":153.4092187500016,"velocity":0.7480314960629921,"duration":0.13068192708334436},{"name":"D#5","midi":75,"time":153.54558250000161,"velocity":0.7480314960629921,"duration":0.4034094270833748},{"name":"D5","midi":74,"time":153.68194625000163,"velocity":0.7480314960629921,"duration":0},{"name":"D#5","midi":75,"time":153.81831000000165,"velocity":0.7480314960629921,"duration":0.53977317708339},{"name":"G5","midi":79,"time":153.95467375000166,"velocity":0.7480314960629921,"duration":0.13068192708334436},{"name":"C5","midi":72,"time":154.09103750000168,"velocity":0.7480314960629921,"duration":0.13068192708334436},{"name":"D#5","midi":75,"time":154.2274012500017,"velocity":0.7480314960629921,"duration":0.4034094270833748},{"name":"A4","midi":69,"time":154.3637650000017,"velocity":0.7480314960629921,"duration":0.13068192708334436},{"name":"D#5","midi":75,"time":154.50012875000172,"velocity":0.7480314960629921,"duration":7.681824583334048},{"name":"D5","midi":74,"time":154.63649250000174,"velocity":0.7480314960629921,"duration":0},{"name":"C5","midi":72,"time":154.77285625000175,"velocity":0.7480314960629921,"duration":0.13068192708334436},{"name":"D5","midi":74,"time":154.90922000000177,"velocity":0.7480314960629921,"duration":0},{"name":"A#4","midi":70,"time":155.04558375000178,"velocity":0.7480314960629921,"duration":0},{"name":"E5","midi":76,"time":155.1819475000018,"velocity":0.7480314960629921,"duration":0},{"name":"A#4","midi":70,"time":155.3183112500018,"velocity":0.7480314960629921,"duration":0},{"name":"F5","midi":77,"time":155.45467500000183,"velocity":0.7480314960629921,"duration":0.13068192708334436},{"name":"A#4","midi":70,"time":155.59103875000184,"velocity":0.7480314960629921,"duration":0},{"name":"G5","midi":79,"time":155.72740250000186,"velocity":0.7480314960629921,"duration":0.13068192708334436},{"name":"A#4","midi":70,"time":155.86376625000187,"velocity":0.7480314960629921,"duration":0},{"name":"A4","midi":69,"time":156.0001300000019,"velocity":0.7480314960629921,"duration":0.13068192708334436},{"name":"G5","midi":79,"time":156.1364937500019,"velocity":0.7480314960629921,"duration":0.13068192708334436},{"name":"F5","midi":77,"time":156.27285750000192,"velocity":0.7480314960629921,"duration":0.13068192708334436},{"name":"E5","midi":76,"time":156.40922125000193,"velocity":0.7480314960629921,"duration":0},{"name":"D5","midi":74,"time":156.54558500000195,"velocity":0.7480314960629921,"duration":0},{"name":"F5","midi":77,"time":156.68194875000196,"velocity":0.7480314960629921,"duration":0.13068192708334436},{"name":"C5","midi":72,"time":156.81831250000198,"velocity":0.7480314960629921,"duration":0.13068192708334436},{"name":"F5","midi":77,"time":156.954676250002,"velocity":0.7480314960629921,"duration":0.13068192708334436},{"name":"A#4","midi":70,"time":157.091040000002,"velocity":0.7480314960629921,"duration":0},{"name":"A5","midi":81,"time":157.22740375000203,"velocity":0.7480314960629921,"duration":0.13068192708334436},{"name":"G5","midi":79,"time":157.36376750000204,"velocity":0.7480314960629921,"duration":0.13068192708334436},{"name":"F5","midi":77,"time":157.50013125000206,"velocity":0.7480314960629921,"duration":0.13068192708334436},{"name":"E5","midi":76,"time":157.63649500000207,"velocity":0.7480314960629921,"duration":0},{"name":"G5","midi":79,"time":157.7728587500021,"velocity":0.7480314960629921,"duration":0.13068192708334436},{"name":"C5","midi":72,"time":157.9092225000021,"velocity":0.7480314960629921,"duration":0.13068192708334436},{"name":"E5","midi":76,"time":158.04558625000212,"velocity":0.7480314960629921,"duration":0},{"name":"F5","midi":77,"time":158.18195000000213,"velocity":0.7480314960629921,"duration":0.13068192708334436},{"name":"C5","midi":72,"time":158.31831375000215,"velocity":0.7480314960629921,"duration":0.13068192708334436},{"name":"A5","midi":81,"time":158.45467750000216,"velocity":0.7480314960629921,"duration":0.13068192708334436},{"name":"F5","midi":77,"time":158.59104125000218,"velocity":0.7480314960629921,"duration":0.13068192708334436},{"name":"C5","midi":72,"time":158.7274050000022,"velocity":0.7480314960629921,"duration":0.13068192708334436},{"name":"A4","midi":69,"time":158.8637687500022,"velocity":0.7480314960629921,"duration":0.13068192708334436},{"name":"F5","midi":77,"time":159.00013250000222,"velocity":0.7480314960629921,"duration":0.13068192708334436},{"name":"C5","midi":72,"time":159.13649625000224,"velocity":0.7480314960629921,"duration":0.13068192708334436},{"name":"A4","midi":69,"time":159.27286000000225,"velocity":0.7480314960629921,"duration":0.13068192708334436},{"name":"F4","midi":65,"time":159.40922375000227,"velocity":0.7480314960629921,"duration":0.13068192708334436},{"name":"C5","midi":72,"time":159.54558750000228,"velocity":0.7480314960629921,"duration":0.13068192708334436},{"name":"A4","midi":69,"time":159.6819512500023,"velocity":0.7480314960629921,"duration":0.13068192708334436},{"name":"F4","midi":65,"time":159.81831500000231,"velocity":0.7480314960629921,"duration":0.13068192708334436},{"name":"C4","midi":60,"time":159.95467875000233,"velocity":0.7480314960629921,"duration":0.13068192708334436},{"name":"A4","midi":69,"time":160.09104250000235,"velocity":0.7480314960629921,"duration":0.13068192708334436},{"name":"F4","midi":65,"time":160.22740625000236,"velocity":0.7480314960629921,"duration":0.13068192708334436},{"name":"C4","midi":60,"time":160.36377000000238,"velocity":0.7480314960629921,"duration":0.4545458333333272},{"name":"A5","midi":81,"time":160.90922500000238,"velocity":0.7480314960629921,"duration":0.03977276041666755},{"name":"G5","midi":79,"time":160.95467958333572,"velocity":0.7480314960629921,"duration":0.03977276041666755},{"name":"F5","midi":77,"time":161.00013416666906,"velocity":0.7480314960629921,"duration":0.03977276041666755},{"name":"G5","midi":79,"time":161.0455887500024,"velocity":0.7480314960629921,"duration":0.03977276041666755},{"name":"A5","midi":81,"time":161.09104333333573,"velocity":0.7480314960629921,"duration":0.03977276041666755},{"name":"G5","midi":79,"time":161.13649791666907,"velocity":0.7480314960629921,"duration":0.03977276041666755},{"name":"A5","midi":81,"time":161.1819525000024,"velocity":0.7480314960629921,"duration":0.03977276041666755},{"name":"G5","midi":79,"time":161.22740708333575,"velocity":0.7480314960629921,"duration":0.03977276041666755},{"name":"A5","midi":81,"time":161.2728616666691,"velocity":0.7480314960629921,"duration":0.03977276041666755},{"name":"G5","midi":79,"time":161.31831625000243,"velocity":0.7480314960629921,"duration":0.03977276041666755},{"name":"F5","midi":77,"time":161.36377083333576,"velocity":0.7480314960629921,"duration":0.03977276041666755},{"name":"G5","midi":79,"time":161.4092254166691,"velocity":0.7480314960629921,"duration":0.03977276041666755},{"name":"F5","midi":77,"time":161.45468000000244,"velocity":0.7480314960629921,"duration":0.7272733333333292}],"controlChanges":{"7":[{"number":7,"time":0,"value":0.8661417322834646}],"10":[{"number":10,"time":0,"value":0.6299212598425197}]},"id":1,"name":"R.H.","instrumentNumber":6,"instrument":"harpsichord","instrumentFamily":"piano","channelNumber":0,"isPercussion":false},{"startTime":4.36364,"duration":162.18195333333546,"length":715,"notes":[{"name":"C3","midi":48,"time":4.36364,"velocity":0.7480314960629921,"duration":0.4545458333333334},{"name":"E3","midi":52,"time":4.909095000000001,"velocity":0.7480314960629921,"duration":0.4545458333333334},{"name":"F3","midi":53,"time":5.454550000000001,"velocity":0.7480314960629921,"duration":0.7272733333333337},{"name":"F3","midi":53,"time":6.272732500000002,"velocity":0.7480314960629921,"duration":0.1306819270833337},{"name":"E3","midi":52,"time":6.409096250000002,"velocity":0.7480314960629921,"duration":0.1306819270833337},{"name":"F3","midi":53,"time":6.545460000000002,"velocity":0.7480314960629921,"duration":0.09090916666666704},{"name":"G3","midi":55,"time":6.818187500000002,"velocity":0.7480314960629921,"duration":0.09090916666666704},{"name":"A3","midi":57,"time":7.0909150000000025,"velocity":0.7480314960629921,"duration":0.09090916666666704},{"name":"B3","midi":59,"time":7.363642500000003,"velocity":0.7480314960629921,"duration":0.09090916666666704},{"name":"C4","midi":60,"time":7.636370000000003,"velocity":0.7480314960629921,"duration":0.09090916666666704},{"name":"G3","midi":55,"time":7.909097500000003,"velocity":0.7480314960629921,"duration":0.27272750000000023},{"name":"C4","midi":60,"time":8.181825000000003,"velocity":0.7480314960629921,"duration":0.27272750000000023},{"name":"E4","midi":64,"time":8.454552500000004,"velocity":0.7480314960629921,"duration":0.27272750000000023},{"name":"D4","midi":62,"time":8.727280000000004,"velocity":0.7480314960629921,"duration":0.1306819270833337},{"name":"C4","midi":60,"time":8.863643750000005,"velocity":0.7480314960629921,"duration":0.1306819270833337},{"name":"B3","midi":59,"time":9.000007500000006,"velocity":0.7480314960629921,"duration":0.1306819270833337},{"name":"A3","midi":57,"time":9.136371250000007,"velocity":0.7480314960629921,"duration":0.1306819270833337},{"name":"G3","midi":55,"time":9.272735000000008,"velocity":0.7480314960629921,"duration":0.1306819270833337},{"name":"F3","midi":53,"time":9.409098750000009,"velocity":0.7480314960629921,"duration":0.1306819270833337},{"name":"E3","midi":52,"time":9.54546250000001,"velocity":0.7480314960629921,"duration":0.1306819270833337},{"name":"D3","midi":50,"time":9.681826250000011,"velocity":0.7480314960629921,"duration":0.1306819270833337},{"name":"E3","midi":52,"time":9.818190000000012,"velocity":0.7480314960629921,"duration":0.1306819270833337},{"name":"G3","midi":55,"time":9.954553750000013,"velocity":0.7480314960629921,"duration":0.1306819270833337},{"name":"C3","midi":48,"time":10.090917500000014,"velocity":0.7480314960629921,"duration":0.1306819270833337},{"name":"E3","midi":52,"time":10.227281250000015,"velocity":0.7480314960629921,"duration":0.1306819270833337},{"name":"A3","midi":57,"time":10.363645000000016,"velocity":0.7480314960629921,"duration":0.6761369270833342},{"name":"C4","midi":60,"time":11.045463750000017,"velocity":0.7480314960629921,"duration":0.1306819270833337},{"name":"F3","midi":53,"time":11.181827500000018,"velocity":0.7480314960629921,"duration":0.1306819270833337},{"name":"A3","midi":57,"time":11.31819125000002,"velocity":0.7480314960629921,"duration":0.1306819270833337},{"name":"D3","midi":50,"time":11.45455500000002,"velocity":0.7480314960629921,"duration":0.6761369270833342},{"name":"F3","midi":53,"time":12.136373750000022,"velocity":0.7480314960629921,"duration":0.1306819270833337},{"name":"A#2","midi":46,"time":12.272737500000023,"velocity":0.7480314960629921,"duration":0.1306819270833337},{"name":"D3","midi":50,"time":12.409101250000024,"velocity":0.7480314960629921,"duration":0.1306819270833337},{"name":"G3","midi":55,"time":12.545465000000025,"velocity":0.7480314960629921,"duration":0.6761369270833342},{"name":"A#3","midi":58,"time":13.227283750000026,"velocity":0.7480314960629921,"duration":0.1306819270833337},{"name":"E3","midi":52,"time":13.363647500000027,"velocity":0.7480314960629921,"duration":0.1306819270833337},{"name":"G3","midi":55,"time":13.500011250000028,"velocity":0.7480314960629921,"duration":0.1306819270833337},{"name":"C3","midi":48,"time":13.63637500000003,"velocity":0.7480314960629921,"duration":0.6761369270833342},{"name":"E3","midi":52,"time":14.318193750000031,"velocity":0.7480314960629921,"duration":0.1306819270833337},{"name":"A2","midi":45,"time":14.454557500000032,"velocity":0.7480314960629921,"duration":0.1306819270833337},{"name":"C3","midi":48,"time":14.590921250000033,"velocity":0.7480314960629921,"duration":0.1306819270833337},{"name":"F3","midi":53,"time":14.727285000000034,"velocity":0.7480314960629921,"duration":0.1306819270833337},{"name":"A3","midi":57,"time":14.863648750000035,"velocity":0.7480314960629921,"duration":0.1306819270833337},{"name":"D3","midi":50,"time":15.000012500000036,"velocity":0.7480314960629921,"duration":0.1306819270833337},{"name":"F3","midi":53,"time":15.136376250000037,"velocity":0.7480314960629921,"duration":0.1306819270833337},{"name":"A#2","midi":46,"time":15.272740000000038,"velocity":0.7480314960629921,"duration":0.1306819270833337},{"name":"D3","midi":50,"time":15.409103750000039,"velocity":0.7480314960629921,"duration":0.1306819270833337},{"name":"G2","midi":43,"time":15.54546750000004,"velocity":0.7480314960629921,"duration":0.1306819270833337},{"name":"A#2","midi":46,"time":15.681831250000041,"velocity":0.7480314960629921,"duration":0.1306819270833337},{"name":"E3","midi":52,"time":15.818195000000042,"velocity":0.7480314960629921,"duration":0.1306819270833337},{"name":"G3","midi":55,"time":15.954558750000043,"velocity":0.7480314960629921,"duration":0.1306819270833337},{"name":"C3","midi":48,"time":16.090922500000044,"velocity":0.7480314960629921,"duration":0.1306819270833337},{"name":"E3","midi":52,"time":16.227286250000045,"velocity":0.7480314960629921,"duration":0.1306819270833337},{"name":"A2","midi":45,"time":16.363650000000046,"velocity":0.7480314960629921,"duration":0.1306819270833337},{"name":"C3","midi":48,"time":16.500013750000047,"velocity":0.7480314960629921,"duration":0.1306819270833337},{"name":"F2","midi":41,"time":16.636377500000048,"velocity":0.7480314960629921,"duration":0.1306819270833337},{"name":"A2","midi":45,"time":16.77274125000005,"velocity":0.7480314960629921,"duration":0.1306819270833337},{"name":"D3","midi":50,"time":16.90910500000005,"velocity":0.7480314960629921,"duration":0.1306819270833337},{"name":"F3","midi":53,"time":17.04546875000005,"velocity":0.7480314960629921,"duration":0.1306819270833337},{"name":"A#2","midi":46,"time":17.181832500000052,"velocity":0.7480314960629921,"duration":0.1306819270833337},{"name":"D3","midi":50,"time":17.318196250000053,"velocity":0.7480314960629921,"duration":0.1306819270833337},{"name":"E3","midi":52,"time":17.454560000000054,"velocity":0.7480314960629921,"duration":0.1306819270833337},{"name":"G3","midi":55,"time":17.590923750000055,"velocity":0.7480314960629921,"duration":0.1306819270833337},{"name":"C3","midi":48,"time":17.727287500000056,"velocity":0.7480314960629921,"duration":0.1306819270833337},{"name":"E3","midi":52,"time":17.863651250000057,"velocity":0.7480314960629921,"duration":0.1306819270833337},{"name":"G3","midi":55,"time":18.000015000000058,"velocity":0.7480314960629921,"duration":0.1306819270833337},{"name":"A#3","midi":58,"time":18.13637875000006,"velocity":0.7480314960629921,"duration":0.1306819270833337},{"name":"E3","midi":52,"time":18.27274250000006,"velocity":0.7480314960629921,"duration":0.1306819270833337},{"name":"G3","midi":55,"time":18.40910625000006,"velocity":0.7480314960629921,"duration":0.1306819270833337},{"name":"A3","midi":57,"time":18.545470000000062,"velocity":0.7480314960629921,"duration":0.1306819270833337},{"name":"C4","midi":60,"time":18.681833750000063,"velocity":0.7480314960629921,"duration":0.1306819270833337},{"name":"F3","midi":53,"time":18.818197500000064,"velocity":0.7480314960629921,"duration":0.1306819270833337},{"name":"A3","midi":57,"time":18.954561250000065,"velocity":0.7480314960629921,"duration":0.1306819270833337},{"name":"D4","midi":62,"time":19.090925000000066,"velocity":0.7480314960629921,"duration":0.8125006770833316},{"name":"C4","midi":60,"time":19.909107500000065,"velocity":0.7480314960629921,"duration":0.1306819270833337},{"name":"A#3","midi":58,"time":20.045471250000066,"velocity":0.7480314960629921,"duration":0.1306819270833337},{"name":"C4","midi":60,"time":20.181835000000067,"velocity":0.7480314960629921,"duration":0.1306819270833337},{"name":"D#4","midi":63,"time":20.318198750000068,"velocity":0.7480314960629921,"duration":0.1306819270833337},{"name":"D4","midi":62,"time":20.45456250000007,"velocity":0.7480314960629921,"duration":0.1306819270833337},{"name":"F4","midi":65,"time":20.59092625000007,"velocity":0.7480314960629921,"duration":0.1306819270833337},{"name":"D#4","midi":63,"time":20.72729000000007,"velocity":0.7480314960629921,"duration":0.1306819270833337},{"name":"D4","midi":62,"time":20.863653750000072,"velocity":0.7480314960629921,"duration":0.1306819270833337},{"name":"D#4","midi":63,"time":21.000017500000073,"velocity":0.7480314960629921,"duration":0.1306819270833337},{"name":"C4","midi":60,"time":21.136381250000074,"velocity":0.7480314960629921,"duration":0.1306819270833337},{"name":"D4","midi":62,"time":21.272745000000075,"velocity":0.7480314960629921,"duration":0.1306819270833337},{"name":"F4","midi":65,"time":21.409108750000076,"velocity":0.7480314960629921,"duration":0.1306819270833337},{"name":"A#3","midi":58,"time":21.545472500000077,"velocity":0.7480314960629921,"duration":0.1306819270833337},{"name":"D4","midi":62,"time":21.681836250000078,"velocity":0.7480314960629921,"duration":0.1306819270833337},{"name":"D#3","midi":51,"time":21.81820000000008,"velocity":0.7480314960629921,"duration":0.1306819270833337},{"name":"D4","midi":62,"time":21.95456375000008,"velocity":0.7480314960629921,"duration":0.1306819270833337},{"name":"C4","midi":60,"time":22.09092750000008,"velocity":0.7480314960629921,"duration":0.1306819270833337},{"name":"A#3","midi":58,"time":22.227291250000082,"velocity":0.7480314960629921,"duration":0.1306819270833337},{"name":"A3","midi":57,"time":22.363655000000083,"velocity":0.7480314960629921,"duration":0.1306819270833337},{"name":"C4","midi":60,"time":22.500018750000084,"velocity":0.7480314960629921,"duration":0.1306819270833337},{"name":"F3","midi":53,"time":22.636382500000085,"velocity":0.7480314960629921,"duration":0.1306819270833337},{"name":"A3","midi":57,"time":22.772746250000086,"velocity":0.7480314960629921,"duration":0.1306819270833337},{"name":"A#2","midi":46,"time":22.909110000000087,"velocity":0.7480314960629921,"duration":0.6761369270833342},{"name":"G2","midi":43,"time":23.59092875000009,"velocity":0.7480314960629921,"duration":0.1306819270833337},{"name":"D3","midi":50,"time":23.72729250000009,"velocity":0.7480314960629921,"duration":0.1306819270833337},{"name":"A#2","midi":46,"time":23.86365625000009,"velocity":0.7480314960629921,"duration":0.1306819270833337},{"name":"G3","midi":55,"time":24.00002000000009,"velocity":0.7480314960629921,"duration":0.6761369270833342},{"name":"A#3","midi":58,"time":24.681838750000093,"velocity":0.7480314960629921,"duration":0.1306819270833337},{"name":"E3","midi":52,"time":24.818202500000094,"velocity":0.7480314960629921,"duration":0.1306819270833337},{"name":"G3","midi":55,"time":24.954566250000095,"velocity":0.7480314960629921,"duration":0.1306819270833337},{"name":"C3","midi":48,"time":25.090930000000096,"velocity":0.7480314960629921,"duration":0.6761369270833342},{"name":"A2","midi":45,"time":25.772748750000098,"velocity":0.7480314960629921,"duration":0.1306819270833337},{"name":"E3","midi":52,"time":25.9091125000001,"velocity":0.7480314960629921,"duration":0.1306819270833337},{"name":"C3","midi":48,"time":26.0454762500001,"velocity":0.7480314960629921,"duration":0.1306819270833337},{"name":"A3","midi":57,"time":26.1818400000001,"velocity":0.7480314960629921,"duration":0.6761369270833342},{"name":"C4","midi":60,"time":26.863658750000102,"velocity":0.7480314960629921,"duration":0.1306819270833337},{"name":"F3","midi":53,"time":27.000022500000103,"velocity":0.7480314960629921,"duration":0.1306819270833337},{"name":"A3","midi":57,"time":27.136386250000104,"velocity":0.7480314960629921,"duration":0.1306819270833337},{"name":"D3","midi":50,"time":27.272750000000105,"velocity":0.7480314960629921,"duration":0.6761369270833342},{"name":"F3","midi":53,"time":27.954568750000107,"velocity":0.7480314960629921,"duration":0.1306819270833337},{"name":"D3","midi":50,"time":28.090932500000108,"velocity":0.7480314960629921,"duration":0.1306819270833337},{"name":"F3","midi":53,"time":28.22729625000011,"velocity":0.7480314960629921,"duration":0.1306819270833337},{"name":"G3","midi":55,"time":28.36366000000011,"velocity":0.7480314960629921,"duration":0.1306819270833337},{"name":"A#3","midi":58,"time":28.50002375000011,"velocity":0.7480314960629921,"duration":0.1306819270833337},{"name":"D3","midi":50,"time":28.63638750000011,"velocity":0.7480314960629921,"duration":0.1306819270833337},{"name":"G3","midi":55,"time":28.772751250000113,"velocity":0.7480314960629921,"duration":0.1306819270833337},{"name":"A#2","midi":46,"time":28.909115000000114,"velocity":0.7480314960629921,"duration":0.1306819270833337},{"name":"D3","midi":50,"time":29.045478750000115,"velocity":0.7480314960629921,"duration":0.1306819270833337},{"name":"G2","midi":43,"time":29.181842500000116,"velocity":0.7480314960629921,"duration":0.1306819270833337},{"name":"A#2","midi":46,"time":29.318206250000117,"velocity":0.7480314960629921,"duration":0.1306819270833337},{"name":"C3","midi":48,"time":29.454570000000118,"velocity":0.7480314960629921,"duration":0.1306819270833337},{"name":"E3","midi":52,"time":29.59093375000012,"velocity":0.7480314960629921,"duration":0.1306819270833337},{"name":"G2","midi":43,"time":29.72729750000012,"velocity":0.7480314960629921,"duration":0.1306819270833337},{"name":"C3","midi":48,"time":29.86366125000012,"velocity":0.7480314960629921,"duration":0.1306819270833337},{"name":"E2","midi":40,"time":30.00002500000012,"velocity":0.7480314960629921,"duration":0.1306819270833337},{"name":"G2","midi":43,"time":30.136388750000123,"velocity":0.7480314960629921,"duration":0.1306819270833337},{"name":"C2","midi":36,"time":30.272752500000124,"velocity":0.7480314960629921,"duration":0.1306819270833337},{"name":"E2","midi":40,"time":30.409116250000125,"velocity":0.7480314960629921,"duration":0.1306819270833337},{"name":"F2","midi":41,"time":30.545480000000126,"velocity":0.7480314960629921,"duration":0.4545458333333343},{"name":"A2","midi":45,"time":31.090935000000126,"velocity":0.7480314960629921,"duration":0.4545458333333343},{"name":"C3","midi":48,"time":31.636390000000127,"velocity":0.7480314960629921,"duration":0.7272733333333363},{"name":"A#2","midi":46,"time":32.45457250000013,"velocity":0.7480314960629921,"duration":0.13068192708333015},{"name":"A2","midi":45,"time":32.59093625000013,"velocity":0.7480314960629921,"duration":0.13068192708333015},{"name":"A#2","midi":46,"time":32.72730000000012,"velocity":0.7480314960629921,"duration":0.0909091666666697},{"name":"C3","midi":48,"time":33.00002750000012,"velocity":0.7480314960629921,"duration":0.0909091666666697},{"name":"D3","midi":50,"time":33.272755000000124,"velocity":0.7480314960629921,"duration":0.0909091666666697},{"name":"E3","midi":52,"time":33.545482500000126,"velocity":0.7480314960629921,"duration":0.0909091666666697},{"name":"F3","midi":53,"time":33.81821000000013,"velocity":0.7480314960629921,"duration":0.0909091666666697},{"name":"C3","midi":48,"time":34.09093750000013,"velocity":0.7480314960629921,"duration":0.272727500000002},{"name":"F3","midi":53,"time":34.36366500000013,"velocity":0.7480314960629921,"duration":0.272727500000002},{"name":"A3","midi":57,"time":34.636392500000134,"velocity":0.7480314960629921,"duration":0.272727500000002},{"name":"G3","midi":55,"time":34.90912000000014,"velocity":0.7480314960629921,"duration":0.13068192708333015},{"name":"F3","midi":53,"time":35.04548375000013,"velocity":0.7480314960629921,"duration":0.13068192708333015},{"name":"E3","midi":52,"time":35.181847500000124,"velocity":0.7480314960629921,"duration":0.13068192708333015},{"name":"D3","midi":50,"time":35.31821125000012,"velocity":0.7480314960629921,"duration":0.13068192708333015},{"name":"C3","midi":48,"time":35.45457500000011,"velocity":0.7480314960629921,"duration":0.13068192708333015},{"name":"A#2","midi":46,"time":35.590938750000106,"velocity":0.7480314960629921,"duration":0.13068192708333015},{"name":"A2","midi":45,"time":35.7273025000001,"velocity":0.7480314960629921,"duration":0.13068192708333015},{"name":"G2","midi":43,"time":35.863666250000094,"velocity":0.7480314960629921,"duration":0.13068192708333015},{"name":"A2","midi":45,"time":36.00003000000009,"velocity":0.7480314960629921,"duration":0.13068192708333015},{"name":"C3","midi":48,"time":36.13639375000008,"velocity":0.7480314960629921,"duration":0.13068192708333015},{"name":"F2","midi":41,"time":36.272757500000075,"velocity":0.7480314960629921,"duration":0.13068192708333015},{"name":"A2","midi":45,"time":36.40912125000007,"velocity":0.7480314960629921,"duration":0.13068192708333015},{"name":"C3","midi":48,"time":36.54548500000006,"velocity":0.7480314960629921,"duration":0.13068192708333015},{"name":"F3","midi":53,"time":36.68184875000006,"velocity":0.7480314960629921,"duration":0.13068192708333015},{"name":"A2","midi":45,"time":36.81821250000005,"velocity":0.7480314960629921,"duration":0.13068192708333015},{"name":"C3","midi":48,"time":36.954576250000045,"velocity":0.7480314960629921,"duration":0.13068192708333015},{"name":"F3","midi":53,"time":37.09094000000004,"velocity":0.7480314960629921,"duration":0.13068192708333015},{"name":"A3","midi":57,"time":37.22730375000003,"velocity":0.7480314960629921,"duration":0.13068192708333015},{"name":"C3","midi":48,"time":37.36366750000003,"velocity":0.7480314960629921,"duration":0.13068192708333015},{"name":"F3","midi":53,"time":37.50003125000002,"velocity":0.7480314960629921,"duration":0.13068192708333015},{"name":"A3","midi":57,"time":37.636395000000014,"velocity":0.7480314960629921,"duration":0.13068192708333015},{"name":"C4","midi":60,"time":37.77275875000001,"velocity":0.7480314960629921,"duration":0.13068192708333015},{"name":"F3","midi":53,"time":37.9091225,"velocity":0.7480314960629921,"duration":0.13068192708333015},{"name":"A3","midi":57,"time":38.045486249999996,"velocity":0.7480314960629921,"duration":0.13068192708333015},{"name":"C4","midi":60,"time":38.18184999999999,"velocity":0.7480314960629921,"duration":0.4545458333333343},{"name":"C3","midi":48,"time":38.727304999999994,"velocity":0.7480314960629921,"duration":0.4545458333333343},{"name":"F3","midi":53,"time":39.27276,"velocity":0.7480314960629921,"duration":0.13068192708333015},{"name":"C3","midi":48,"time":39.40912374999999,"velocity":0.7480314960629921,"duration":0.13068192708333015},{"name":"A2","midi":45,"time":39.545487499999986,"velocity":0.7480314960629921,"duration":0.13068192708333015},{"name":"C3","midi":48,"time":39.68185124999998,"velocity":0.7480314960629921,"duration":0.13068192708333015},{"name":"F2","midi":41,"time":39.818214999999974,"velocity":0.7480314960629921,"duration":0.26704567708333116},{"name":"E3","midi":52,"time":40.63639749999997,"velocity":0.7480314960629921,"duration":0.272727500000002},{"name":"F3","midi":53,"time":40.909124999999975,"velocity":0.7480314960629921,"duration":0.272727500000002},{"name":"G#3","midi":56,"time":41.18185249999998,"velocity":0.7480314960629921,"duration":0.272727500000002},{"name":"A3","midi":57,"time":41.45457999999998,"velocity":0.7480314960629921,"duration":0.6761369270833342},{"name":"G#3","midi":56,"time":42.13639874999998,"velocity":0.7480314960629921,"duration":0.13068192708333015},{"name":"A3","midi":57,"time":42.27276249999997,"velocity":0.7480314960629921,"duration":0.13068192708333015},{"name":"B3","midi":59,"time":42.409126249999964,"velocity":0.7480314960629921,"duration":0.13068192708333015},{"name":"C4","midi":60,"time":42.54548999999996,"velocity":0.7480314960629921,"duration":0.7272733333333363},{"name":"A#3","midi":58,"time":43.363672499999964,"velocity":0.7480314960629921,"duration":0.13068192708333015},{"name":"A3","midi":57,"time":43.50003624999996,"velocity":0.7480314960629921,"duration":0.13068192708333015},{"name":"A#3","midi":58,"time":43.63639999999995,"velocity":0.7480314960629921,"duration":0.0909091666666697},{"name":"C#3","midi":49,"time":43.909127499999954,"velocity":0.7480314960629921,"duration":0.0909091666666697},{"name":"D3","midi":50,"time":44.181854999999956,"velocity":0.7480314960629921,"duration":0.4545458333333343},{"name":"C3","midi":48,"time":45.000037499999955,"velocity":0.7480314960629921,"duration":0.272727500000002},{"name":"D#3","midi":51,"time":45.27276499999996,"velocity":0.7480314960629921,"duration":0.272727500000002},{"name":"E3","midi":52,"time":45.54549249999996,"velocity":0.7480314960629921,"duration":0.5397731770833332},{"name":"D3","midi":50,"time":46.090947499999956,"velocity":0.7480314960629921,"duration":0.13068192708333015},{"name":"C#3","midi":49,"time":46.22731124999995,"velocity":0.7480314960629921,"duration":0.13068192708333015},{"name":"D3","midi":50,"time":46.363674999999944,"velocity":0.7480314960629921,"duration":0.0909091666666697},{"name":"B3","midi":59,"time":46.636402499999946,"velocity":0.7480314960629921,"duration":0.13068192708333015},{"name":"D3","midi":50,"time":46.77276624999994,"velocity":0.7480314960629921,"duration":0.13068192708333015},{"name":"C3","midi":48,"time":46.909129999999934,"velocity":0.7480314960629921,"duration":0.13068192708333015},{"name":"B2","midi":47,"time":47.04549374999993,"velocity":0.7480314960629921,"duration":0.13068192708333015},{"name":"A2","midi":45,"time":47.18185749999992,"velocity":0.7480314960629921,"duration":0.13068192708333015},{"name":"C3","midi":48,"time":47.318221249999915,"velocity":0.7480314960629921,"duration":0.13068192708333015},{"name":"B2","midi":47,"time":47.45458499999991,"velocity":0.7480314960629921,"duration":0.0909091666666697},{"name":"E3","midi":52,"time":47.72731249999991,"velocity":0.7480314960629921,"duration":0.0909091666666697},{"name":"B3","midi":59,"time":48.00003999999991,"velocity":0.7480314960629921,"duration":0.02840911458333295},{"name":"A3","midi":57,"time":48.03413093749991,"velocity":0.7480314960629921,"duration":0.02840911458333295},{"name":"B3","midi":59,"time":48.06822187499991,"velocity":0.7480314960629921,"duration":0.02840911458333295},{"name":"A3","midi":57,"time":48.1023128124999,"velocity":0.7480314960629921,"duration":0.02840911458333295},{"name":"G#3","midi":56,"time":48.1364037499999,"velocity":0.7480314960629921,"duration":0.13068192708333015},{"name":"A3","midi":57,"time":48.272767499999894,"velocity":0.7480314960629921,"duration":0.26704567708333116},{"name":"A2","midi":45,"time":49.63640499999989,"velocity":0.7480314960629921,"duration":0.4545458333333343},{"name":"C#3","midi":49,"time":50.181859999999894,"velocity":0.7480314960629921,"duration":0.4545458333333343},{"name":"E3","midi":52,"time":50.7273149999999,"velocity":0.7480314960629921,"duration":0.8125006770833352},{"name":"D3","midi":50,"time":51.5454974999999,"velocity":0.7480314960629921,"duration":0.13068192708333015},{"name":"C#3","midi":49,"time":51.68186124999989,"velocity":0.7480314960629921,"duration":0.13068192708333015},{"name":"D3","midi":50,"time":51.818224999999885,"velocity":0.7480314960629921,"duration":0.0909091666666697},{"name":"E3","midi":52,"time":52.09095249999989,"velocity":0.7480314960629921,"duration":0.0909091666666697},{"name":"F3","midi":53,"time":52.36367999999989,"velocity":0.7480314960629921,"duration":0.0909091666666697},{"name":"G3","midi":55,"time":52.63640749999989,"velocity":0.7480314960629921,"duration":0.0909091666666697},{"name":"A3","midi":57,"time":52.90913499999989,"velocity":0.7480314960629921,"duration":0.8125006770833352},{"name":"G3","midi":55,"time":53.72731749999989,"velocity":0.7480314960629921,"duration":0.13068192708333015},{"name":"F3","midi":53,"time":53.863681249999885,"velocity":0.7480314960629921,"duration":0.13068192708333015},{"name":"G3","midi":55,"time":54.00004499999988,"velocity":0.7480314960629921,"duration":0.0909091666666697},{"name":"A3","midi":57,"time":54.27277249999988,"velocity":0.7480314960629921,"duration":0.0909091666666697},{"name":"B3","midi":59,"time":54.54549999999988,"velocity":0.7480314960629921,"duration":0.0909091666666697},{"name":"C#4","midi":61,"time":54.818227499999885,"velocity":0.7480314960629921,"duration":0.0909091666666697},{"name":"D4","midi":62,"time":55.09095499999989,"velocity":0.7480314960629921,"duration":0.0909091666666697},{"name":"A#3","midi":58,"time":55.36368249999989,"velocity":0.7480314960629921,"duration":0.0909091666666697},{"name":"A3","midi":57,"time":55.63640999999989,"velocity":0.7480314960629921,"duration":0.13068192708333015},{"name":"G3","midi":55,"time":55.772773749999885,"velocity":0.7480314960629921,"duration":0.13068192708333015},{"name":"F3","midi":53,"time":55.90913749999988,"velocity":0.7480314960629921,"duration":0.13068192708333015},{"name":"G3","midi":55,"time":56.04550124999987,"velocity":0.7480314960629921,"duration":0.13068192708333015},{"name":"A3","midi":57,"time":56.18186499999987,"velocity":0.7480314960629921,"duration":0.0909091666666697},{"name":"E3","midi":52,"time":56.45459249999987,"velocity":0.7480314960629921,"duration":0.272727500000002},{"name":"F3","midi":53,"time":56.72731999999987,"velocity":0.7480314960629921,"duration":0.272727500000002},{"name":"G#3","midi":56,"time":57.00004749999987,"velocity":0.7480314960629921,"duration":0.272727500000002},{"name":"A3","midi":57,"time":57.272774999999875,"velocity":0.7480314960629921,"duration":0.6761369270833342},{"name":"G#3","midi":56,"time":57.95459374999987,"velocity":0.7480314960629921,"duration":0.13068192708333015},{"name":"A3","midi":57,"time":58.09095749999987,"velocity":0.7480314960629921,"duration":0.13068192708333015},{"name":"B3","midi":59,"time":58.22732124999986,"velocity":0.7480314960629921,"duration":0.13068192708333015},{"name":"C4","midi":60,"time":58.363684999999855,"velocity":0.7480314960629921,"duration":0.8125006770833352},{"name":"A#3","midi":58,"time":59.18186749999985,"velocity":0.7480314960629921,"duration":0.13068192708333015},{"name":"A3","midi":57,"time":59.31823124999985,"velocity":0.7480314960629921,"duration":0.13068192708333015},{"name":"A#3","midi":58,"time":59.45459499999984,"velocity":0.7480314960629921,"duration":0.0909091666666697},{"name":"C#3","midi":49,"time":59.72732249999984,"velocity":0.7480314960629921,"duration":0.0909091666666697},{"name":"D3","midi":50,"time":60.000049999999845,"velocity":0.7480314960629921,"duration":0.4545458333333343},{"name":"C3","midi":48,"time":60.818232499999844,"velocity":0.7480314960629921,"duration":0.272727500000002},{"name":"D#3","midi":51,"time":61.090959999999846,"velocity":0.7480314960629921,"duration":0.272727500000002},{"name":"E3","midi":52,"time":61.36368749999985,"velocity":0.7480314960629921,"duration":0.4545458333333343},{"name":"D3","midi":50,"time":61.90914249999985,"velocity":0.7480314960629921,"duration":0.13068192708333015},{"name":"C#3","midi":49,"time":62.045506249999846,"velocity":0.7480314960629921,"duration":0.13068192708333015},{"name":"D3","midi":50,"time":62.18186999999984,"velocity":0.7480314960629921,"duration":0.0909091666666697},{"name":"B3","midi":59,"time":62.45459749999984,"velocity":0.7480314960629921,"duration":0.13068192708333015},{"name":"D3","midi":50,"time":62.590961249999836,"velocity":0.7480314960629921,"duration":0.13068192708333015},{"name":"C3","midi":48,"time":62.72732499999983,"velocity":0.7480314960629921,"duration":0.13068192708333015},{"name":"B2","midi":47,"time":62.863688749999824,"velocity":0.7480314960629921,"duration":0.13068192708333015},{"name":"A2","midi":45,"time":63.00005249999982,"velocity":0.7480314960629921,"duration":0.13068192708333015},{"name":"C3","midi":48,"time":63.13641624999981,"velocity":0.7480314960629921,"duration":0.13068192708333015},{"name":"B2","midi":47,"time":63.272779999999806,"velocity":0.7480314960629921,"duration":0.0909091666666697},{"name":"E3","midi":52,"time":63.54550749999981,"velocity":0.7480314960629921,"duration":0.0909091666666697},{"name":"B3","midi":59,"time":63.81823499999981,"velocity":0.7480314960629921,"duration":0.02840911458333295},{"name":"A3","midi":57,"time":63.852325937499806,"velocity":0.7480314960629921,"duration":0.02840911458333295},{"name":"B3","midi":59,"time":63.8864168749998,"velocity":0.7480314960629921,"duration":0.02840911458333295},{"name":"A3","midi":57,"time":63.9205078124998,"velocity":0.7480314960629921,"duration":0.02840911458333295},{"name":"G#3","midi":56,"time":63.954598749999796,"velocity":0.7480314960629921,"duration":0.13068192708333726},{"name":"A3","midi":57,"time":64.0909624999998,"velocity":0.7480314960629921,"duration":0.5397731770833332},{"name":"G#3","midi":56,"time":64.63641749999981,"velocity":0.7480314960629921,"duration":0.13068192708333015},{"name":"F#3","midi":54,"time":64.77278124999981,"velocity":0.7480314960629921,"duration":0.13068192708333015},{"name":"E3","midi":52,"time":64.90914499999981,"velocity":0.7480314960629921,"duration":0.13068192708333015},{"name":"D3","midi":50,"time":65.04550874999981,"velocity":0.7480314960629921,"duration":0.13068192708333015},{"name":"C3","midi":48,"time":65.18187249999981,"velocity":0.7480314960629921,"duration":0.13068192708333015},{"name":"B2","midi":47,"time":65.31823624999981,"velocity":0.7480314960629921,"duration":0.13068192708333015},{"name":"A2","midi":45,"time":65.45459999999981,"velocity":0.7480314960629921,"duration":0.4545458333333272},{"name":"C3","midi":48,"time":66.0000549999998,"velocity":0.7480314960629921,"duration":0.4545458333333272},{"name":"E3","midi":52,"time":66.5455099999998,"velocity":0.7480314960629921,"duration":0.7272733333333292},{"name":"D3","midi":50,"time":67.36369249999979,"velocity":0.7480314960629921,"duration":0.13068192708333015},{"name":"C3","midi":48,"time":67.50005624999979,"velocity":0.7480314960629921,"duration":0.13068192708333015},{"name":"D3","midi":50,"time":67.63641999999979,"velocity":0.7480314960629921,"duration":0.0909091666666626},{"name":"E3","midi":52,"time":67.90914749999979,"velocity":0.7480314960629921,"duration":0.0909091666666626},{"name":"F#3","midi":54,"time":68.18187499999979,"velocity":0.7480314960629921,"duration":0.0909091666666626},{"name":"G#3","midi":56,"time":68.4546024999998,"velocity":0.7480314960629921,"duration":0.0909091666666626},{"name":"A3","midi":57,"time":68.7273299999998,"velocity":0.7480314960629921,"duration":0.7272733333333292},{"name":"G#3","midi":56,"time":69.54551249999979,"velocity":0.7480314960629921,"duration":0.13068192708333015},{"name":"F#3","midi":54,"time":69.68187624999979,"velocity":0.7480314960629921,"duration":0.13068192708333015},{"name":"G#3","midi":56,"time":69.81823999999979,"velocity":0.7480314960629921,"duration":0.0909091666666626},{"name":"A3","midi":57,"time":70.09096749999979,"velocity":0.7480314960629921,"duration":0.0909091666666626},{"name":"B3","midi":59,"time":70.3636949999998,"velocity":0.7480314960629921,"duration":0.0909091666666626},{"name":"C4","midi":60,"time":70.6364224999998,"velocity":0.7480314960629921,"duration":0.0909091666666626},{"name":"E4","midi":64,"time":70.9091499999998,"velocity":0.7480314960629921,"duration":0.13068192708333015},{"name":"D4","midi":62,"time":71.0455137499998,"velocity":0.7480314960629921,"duration":0.13068192708333015},{"name":"C4","midi":60,"time":71.1818774999998,"velocity":0.7480314960629921,"duration":0.13068192708333015},{"name":"B3","midi":59,"time":71.3182412499998,"velocity":0.7480314960629921,"duration":0.13068192708333015},{"name":"C4","midi":60,"time":71.4546049999998,"velocity":0.7480314960629921,"duration":0.0909091666666626},{"name":"F4","midi":65,"time":71.7273324999998,"velocity":0.7480314960629921,"duration":0.0909091666666626},{"name":"D4","midi":62,"time":72.0000599999998,"velocity":0.7480314960629921,"duration":0.0909091666666626},{"name":"B3","midi":59,"time":72.27278749999981,"velocity":0.7480314960629921,"duration":0.0909091666666626},{"name":"E4","midi":64,"time":72.54551499999981,"velocity":0.7480314960629921,"duration":0.0909091666666626},{"name":"E3","midi":52,"time":72.81824249999981,"velocity":0.7480314960629921,"duration":0.0909091666666626},{"name":"A3","midi":57,"time":73.09096999999981,"velocity":0.7480314960629921,"duration":0.13068192708333015},{"name":"C4","midi":60,"time":73.22733374999981,"velocity":0.7480314960629921,"duration":0.13068192708333015},{"name":"E3","midi":52,"time":73.36369749999982,"velocity":0.7480314960629921,"duration":0.13068192708333015},{"name":"A3","midi":57,"time":73.50006124999982,"velocity":0.7480314960629921,"duration":0.13068192708333015},{"name":"C3","midi":48,"time":73.63642499999982,"velocity":0.7480314960629921,"duration":0.13068192708333015},{"name":"E3","midi":52,"time":73.77278874999982,"velocity":0.7480314960629921,"duration":0.13068192708333015},{"name":"A2","midi":45,"time":73.90915249999982,"velocity":0.7480314960629921,"duration":0.13068192708333015},{"name":"C3","midi":48,"time":74.04551624999982,"velocity":0.7480314960629921,"duration":0.13068192708333015},{"name":"F2","midi":41,"time":74.18187999999982,"velocity":0.7480314960629921,"duration":0.4545458333333272},{"name":"A2","midi":45,"time":74.72733499999981,"velocity":0.7480314960629921,"duration":0.4545458333333272},{"name":"C3","midi":48,"time":75.2727899999998,"velocity":0.7480314960629921,"duration":0.7272733333333292},{"name":"A#2","midi":46,"time":76.0909724999998,"velocity":0.7480314960629921,"duration":0.13068192708333015},{"name":"A2","midi":45,"time":76.2273362499998,"velocity":0.7480314960629921,"duration":0.13068192708333015},{"name":"A#2","midi":46,"time":76.3636999999998,"velocity":0.7480314960629921,"duration":0.0909091666666626},{"name":"C3","midi":48,"time":76.6364274999998,"velocity":0.7480314960629921,"duration":0.0909091666666626},{"name":"D3","midi":50,"time":76.9091549999998,"velocity":0.7480314960629921,"duration":0.0909091666666626},{"name":"E3","midi":52,"time":77.1818824999998,"velocity":0.7480314960629921,"duration":0.0909091666666626},{"name":"F3","midi":53,"time":77.4546099999998,"velocity":0.7480314960629921,"duration":0.0909091666666626},{"name":"C3","midi":48,"time":77.7273374999998,"velocity":0.7480314960629921,"duration":0.272727500000002},{"name":"F3","midi":53,"time":78.00006499999981,"velocity":0.7480314960629921,"duration":0.272727500000002},{"name":"A3","midi":57,"time":78.27279249999981,"velocity":0.7480314960629921,"duration":0.272727500000002},{"name":"G3","midi":55,"time":78.54551999999981,"velocity":0.7480314960629921,"duration":0.13068192708333015},{"name":"F3","midi":53,"time":78.68188374999981,"velocity":0.7480314960629921,"duration":0.13068192708333015},{"name":"E3","midi":52,"time":78.81824749999981,"velocity":0.7480314960629921,"duration":0.13068192708333015},{"name":"D3","midi":50,"time":78.95461124999981,"velocity":0.7480314960629921,"duration":0.13068192708333015},{"name":"C3","midi":48,"time":79.09097499999982,"velocity":0.7480314960629921,"duration":0.13068192708333015},{"name":"A#2","midi":46,"time":79.22733874999982,"velocity":0.7480314960629921,"duration":0.13068192708333015},{"name":"A2","midi":45,"time":79.36370249999982,"velocity":0.7480314960629921,"duration":0.13068192708333015},{"name":"G2","midi":43,"time":79.50006624999982,"velocity":0.7480314960629921,"duration":0.13068192708333015},{"name":"G#2","midi":44,"time":79.63642999999982,"velocity":0.7480314960629921,"duration":0.13068192708333015},{"name":"C3","midi":48,"time":79.77279374999982,"velocity":0.7480314960629921,"duration":0.13068192708333015},{"name":"F2","midi":41,"time":79.90915749999982,"velocity":0.7480314960629921,"duration":0.13068192708333015},{"name":"G#2","midi":44,"time":80.04552124999982,"velocity":0.7480314960629921,"duration":0.13068192708333015},{"name":"C2","midi":36,"time":80.18188499999982,"velocity":0.7480314960629921,"duration":0.0909091666666626},{"name":"C3","midi":48,"time":80.45461249999983,"velocity":0.7480314960629921,"duration":0.0909091666666626},{"name":"C#3","midi":49,"time":80.72733999999983,"velocity":0.7480314960629921,"duration":0.0909091666666626},{"name":"D3","midi":50,"time":81.00006749999983,"velocity":0.7480314960629921,"duration":0.0909091666666626},{"name":"D#3","midi":51,"time":81.27279499999983,"velocity":0.7480314960629921,"duration":0.0909091666666626},{"name":"E3","midi":52,"time":81.54552249999983,"velocity":0.7480314960629921,"duration":0.5397731770833332},{"name":"F3","midi":53,"time":82.09097749999984,"velocity":0.7480314960629921,"duration":0.0909091666666626},{"name":"F#3","midi":54,"time":82.36370499999984,"velocity":0.7480314960629921,"duration":0.0909091666666626},{"name":"G3","midi":55,"time":82.63643249999984,"velocity":0.7480314960629921,"duration":0.0909091666666626},{"name":"G#3","midi":56,"time":82.90915999999984,"velocity":0.7480314960629921,"duration":0.13068192708333015},{"name":"A#3","midi":58,"time":83.04552374999984,"velocity":0.7480314960629921,"duration":0.13068192708333015},{"name":"C4","midi":60,"time":83.18188749999985,"velocity":0.7480314960629921,"duration":0.13068192708333015},{"name":"A#3","midi":58,"time":83.31825124999985,"velocity":0.7480314960629921,"duration":0.13068192708333015},{"name":"G#3","midi":56,"time":83.45461499999985,"velocity":0.7480314960629921,"duration":0.13068192708333015},{"name":"G3","midi":55,"time":83.59097874999985,"velocity":0.7480314960629921,"duration":0.13068192708333015},{"name":"F3","midi":53,"time":83.72734249999985,"velocity":0.7480314960629921,"duration":0.13068192708333015},{"name":"D#3","midi":51,"time":83.86370624999985,"velocity":0.7480314960629921,"duration":0.13068192708333015},{"name":"C#3","midi":49,"time":84.00006999999985,"velocity":0.7480314960629921,"duration":0.13068192708333015},{"name":"D#3","midi":51,"time":84.13643374999985,"velocity":0.7480314960629921,"duration":0.13068192708333015},{"name":"F3","midi":53,"time":84.27279749999985,"velocity":0.7480314960629921,"duration":0.13068192708333015},{"name":"D#3","midi":51,"time":84.40916124999985,"velocity":0.7480314960629921,"duration":0.13068192708333015},{"name":"C#3","midi":49,"time":84.54552499999986,"velocity":0.7480314960629921,"duration":0.13068192708333015},{"name":"C3","midi":48,"time":84.68188874999986,"velocity":0.7480314960629921,"duration":0.13068192708333015},{"name":"A#2","midi":46,"time":84.81825249999986,"velocity":0.7480314960629921,"duration":0.0909091666666626},{"name":"E3","midi":52,"time":85.09097999999986,"velocity":0.7480314960629921,"duration":0.13068192708333015},{"name":"F3","midi":53,"time":85.22734374999986,"velocity":0.7480314960629921,"duration":0.13068192708333015},{"name":"G3","midi":55,"time":85.36370749999986,"velocity":0.7480314960629921,"duration":0.13068192708333015},{"name":"F3","midi":53,"time":85.50007124999986,"velocity":0.7480314960629921,"duration":0.13068192708333015},{"name":"E3","midi":52,"time":85.63643499999986,"velocity":0.7480314960629921,"duration":0.13068192708333015},{"name":"D3","midi":50,"time":85.77279874999986,"velocity":0.7480314960629921,"duration":0.13068192708333015},{"name":"C3","midi":48,"time":85.90916249999987,"velocity":0.7480314960629921,"duration":0.0909091666666626},{"name":"F3","midi":53,"time":86.18188999999987,"velocity":0.7480314960629921,"duration":0.13068192708333015},{"name":"G3","midi":55,"time":86.31825374999987,"velocity":0.7480314960629921,"duration":0.13068192708333015},{"name":"G#3","midi":56,"time":86.45461749999987,"velocity":0.7480314960629921,"duration":0.13068192708333015},{"name":"G3","midi":55,"time":86.59098124999987,"velocity":0.7480314960629921,"duration":0.13068192708333015},{"name":"F3","midi":53,"time":86.72734499999987,"velocity":0.7480314960629921,"duration":0.13068192708333015},{"name":"D#3","midi":51,"time":86.86370874999987,"velocity":0.7480314960629921,"duration":0.13068192708333015},{"name":"C#3","midi":49,"time":87.00007249999987,"velocity":0.7480314960629921,"duration":0.0909091666666626},{"name":"C3","midi":48,"time":87.27279999999988,"velocity":0.7480314960629921,"duration":0.0909091666666626},{"name":"C2","midi":36,"time":87.54552749999988,"velocity":0.7480314960629921,"duration":0.0909091666666626},{"name":"C3","midi":48,"time":88.09098249999987,"velocity":0.7480314960629921,"duration":0.272727500000002},{"name":"C#3","midi":49,"time":88.36370999999987,"velocity":0.7480314960629921,"duration":0.272727500000002},{"name":"E3","midi":52,"time":88.63643749999987,"velocity":0.7480314960629921,"duration":0.272727500000002},{"name":"F3","midi":53,"time":88.90916499999987,"velocity":0.7480314960629921,"duration":0.6761369270833342},{"name":"E3","midi":52,"time":89.59098374999988,"velocity":0.7480314960629921,"duration":0.13068192708333015},{"name":"F3","midi":53,"time":89.72734749999988,"velocity":0.7480314960629921,"duration":0.13068192708333015},{"name":"G3","midi":55,"time":89.86371124999988,"velocity":0.7480314960629921,"duration":0.13068192708333015},{"name":"G#3","midi":56,"time":90.00007499999988,"velocity":0.7480314960629921,"duration":12.36364666666671},{"name":"A3","midi":57,"time":90.81257567708322,"velocity":0.007874015748031496,"duration":16.090922500000076},{"name":"A3","midi":57,"time":90.81257567708322,"velocity":0.007874015748031496,"duration":20.31819875000008},{"name":"A3","midi":57,"time":90.81257567708322,"velocity":0.007874015748031496,"duration":21.5795634375001},{"name":"A3","midi":57,"time":90.81257567708322,"velocity":0.007874015748031496,"duration":21.64774531250012},{"name":"A3","midi":57,"time":90.81257567708322,"velocity":0.007874015748031496,"duration":28.18752348958347},{"name":"A3","midi":57,"time":90.81257567708322,"velocity":0.007874015748031496,"duration":31.50002625000016},{"name":"A3","midi":57,"time":90.81257567708322,"velocity":0.007874015748031496,"duration":32.31820875000017},{"name":"A3","midi":57,"time":90.81257567708322,"velocity":0.007874015748031496,"duration":32.86366375000017},{"name":"A3","midi":57,"time":90.81257567708322,"velocity":0.007874015748031496,"duration":38.55116848958356},{"name":"A3","midi":57,"time":90.81257567708322,"velocity":0.007874015748031496,"duration":40.636397500000285},{"name":"A3","midi":57,"time":90.81257567708322,"velocity":0.007874015748031496,"duration":42.4091262500004},{"name":"A3","midi":57,"time":90.81257567708322,"velocity":0.007874015748031496,"duration":42.81821750000044},{"name":"A3","midi":57,"time":90.81257567708322,"velocity":0.007874015748031496,"duration":46.36367500000058},{"name":"A3","midi":57,"time":90.81257567708322,"velocity":0.007874015748031496,"duration":50.045496250000994},{"name":"A3","midi":57,"time":90.81257567708322,"velocity":0.007874015748031496,"duration":50.45458750000104},{"name":"A3","midi":57,"time":90.81257567708322,"velocity":0.007874015748031496,"duration":53.863681250001335},{"name":"F#3","midi":54,"time":90.81825749999989,"velocity":0.7480314960629921,"duration":0.13068192708333015},{"name":"F3","midi":53,"time":90.95462124999989,"velocity":0.7480314960629921,"duration":0.13068192708333015},{"name":"F#3","midi":54,"time":91.09098499999989,"velocity":0.7480314960629921,"duration":0.0909091666666626},{"name":"A2","midi":45,"time":91.36371249999989,"velocity":0.7480314960629921,"duration":0.0909091666666626},{"name":"A#2","midi":46,"time":91.6364399999999,"velocity":0.7480314960629921,"duration":0.7272733333333292},{"name":"G#2","midi":44,"time":92.45462249999989,"velocity":0.7480314960629921,"duration":0.272727500000002},{"name":"B2","midi":47,"time":92.72734999999989,"velocity":0.7480314960629921,"duration":0.272727500000002},{"name":"C3","midi":48,"time":93.00007749999989,"velocity":0.7480314960629921,"duration":0.4545458333333272},{"name":"A#2","midi":46,"time":93.54553249999988,"velocity":0.7480314960629921,"duration":0.13068192708333015},{"name":"A2","midi":45,"time":93.68189624999988,"velocity":0.7480314960629921,"duration":0.13068192708333015},{"name":"A#2","midi":46,"time":93.81825999999988,"velocity":0.7480314960629921,"duration":0.0909091666666626},{"name":"G3","midi":55,"time":94.09098749999988,"velocity":0.7480314960629921,"duration":0.13068192708333015},{"name":"A#2","midi":46,"time":94.22735124999988,"velocity":0.7480314960629921,"duration":0.13068192708333015},{"name":"G#2","midi":44,"time":94.36371499999989,"velocity":0.7480314960629921,"duration":0.13068192708333015},{"name":"G2","midi":43,"time":94.50007874999989,"velocity":0.7480314960629921,"duration":0.13068192708333015},{"name":"F2","midi":41,"time":94.63644249999989,"velocity":0.7480314960629921,"duration":0.13068192708333015},{"name":"G#2","midi":44,"time":94.77280624999989,"velocity":0.7480314960629921,"duration":0.13068192708333015},{"name":"G2","midi":43,"time":94.90916999999989,"velocity":0.7480314960629921,"duration":0.0909091666666626},{"name":"C3","midi":48,"time":95.18189749999989,"velocity":0.7480314960629921,"duration":0.0909091666666626},{"name":"G3","midi":55,"time":95.4546249999999,"velocity":0.7480314960629921,"duration":0.028409114583340056},{"name":"F3","midi":53,"time":95.4887159374999,"velocity":0.7480314960629921,"duration":0.028409114583340056},{"name":"G3","midi":55,"time":95.52280687499992,"velocity":0.7480314960629921,"duration":0.028409114583340056},{"name":"F3","midi":53,"time":95.55689781249993,"velocity":0.7480314960629921,"duration":0.028409114583340056},{"name":"E3","midi":52,"time":95.59098874999994,"velocity":0.7480314960629921,"duration":0.13068192708333015},{"name":"F3","midi":53,"time":95.72735249999994,"velocity":0.7480314960629921,"duration":0.5397731770833332},{"name":"E3","midi":52,"time":96.27280749999994,"velocity":0.7480314960629921,"duration":0.13068192708333015},{"name":"D3","midi":50,"time":96.40917124999994,"velocity":0.7480314960629921,"duration":0.13068192708333015},{"name":"C3","midi":48,"time":96.54553499999994,"velocity":0.7480314960629921,"duration":0.13068192708333015},{"name":"A#2","midi":46,"time":96.68189874999995,"velocity":0.7480314960629921,"duration":0.13068192708333015},{"name":"G#2","midi":44,"time":96.81826249999995,"velocity":0.7480314960629921,"duration":0.13068192708333015},{"name":"G2","midi":43,"time":96.95462624999995,"velocity":0.7480314960629921,"duration":0.13068192708333015},{"name":"F2","midi":41,"time":97.09098999999995,"velocity":0.7480314960629921,"duration":0.4545458333333272},{"name":"G#2","midi":44,"time":97.63644499999994,"velocity":0.7480314960629921,"duration":0.4545458333333272},{"name":"C3","midi":48,"time":98.18189999999993,"velocity":0.7480314960629921,"duration":0.7272733333333292},{"name":"A#2","midi":46,"time":99.00008249999992,"velocity":0.7480314960629921,"duration":0.13068192708333015},{"name":"G#2","midi":44,"time":99.13644624999992,"velocity":0.7480314960629921,"duration":0.13068192708333015},{"name":"A#2","midi":46,"time":99.27280999999992,"velocity":0.7480314960629921,"duration":0.0909091666666626},{"name":"C3","midi":48,"time":99.54553749999992,"velocity":0.7480314960629921,"duration":0.0909091666666626},{"name":"D3","midi":50,"time":99.81826499999993,"velocity":0.7480314960629921,"duration":0.0909091666666626},{"name":"E3","midi":52,"time":100.09099249999993,"velocity":0.7480314960629921,"duration":0.0909091666666626},{"name":"F3","midi":53,"time":100.36371999999993,"velocity":0.7480314960629921,"duration":0.7272733333333292},{"name":"E3","midi":52,"time":101.18190249999992,"velocity":0.7480314960629921,"duration":0.13068192708333015},{"name":"D3","midi":50,"time":101.31826624999992,"velocity":0.7480314960629921,"duration":0.13068192708333015},{"name":"E3","midi":52,"time":101.45462999999992,"velocity":0.7480314960629921,"duration":0.0909091666666626},{"name":"F3","midi":53,"time":101.72735749999993,"velocity":0.7480314960629921,"duration":0.0909091666666626},{"name":"G3","midi":55,"time":102.00008499999993,"velocity":0.7480314960629921,"duration":0.0909091666666626},{"name":"G#3","midi":56,"time":102.27281249999993,"velocity":0.7480314960629921,"duration":0.6761369270833342},{"name":"C4","midi":60,"time":102.54553999999993,"velocity":0.7480314960629921,"duration":0.13068192708333015},{"name":"A#3","midi":58,"time":102.68190374999993,"velocity":0.7480314960629921,"duration":0.13068192708333015},{"name":"G#3","midi":56,"time":102.81826749999993,"velocity":0.7480314960629921,"duration":0.3636366666666646},{"name":"G3","midi":55,"time":102.95463124999993,"velocity":0.7480314960629921,"duration":0.13068192708333015},{"name":"G#3","midi":56,"time":103.09099499999994,"velocity":0.7480314960629921,"duration":4.76704942708335},{"name":"C#4","midi":61,"time":103.36372249999994,"velocity":0.7480314960629921,"duration":0.0909091666666626},{"name":"A#3","midi":58,"time":103.63644999999994,"velocity":0.7480314960629921,"duration":0.0909091666666626},{"name":"G3","midi":55,"time":103.90917749999994,"velocity":0.7480314960629921,"duration":0.0909091666666626},{"name":"C4","midi":60,"time":104.18190499999994,"velocity":0.7480314960629921,"duration":0.0909091666666626},{"name":"C3","midi":48,"time":104.45463249999995,"velocity":0.7480314960629921,"duration":0.0909091666666626},{"name":"F3","midi":53,"time":104.72735999999995,"velocity":0.7480314960629921,"duration":0.0909091666666626},{"name":"D3","midi":50,"time":105.00008749999995,"velocity":0.7480314960629921,"duration":0.272727500000002},{"name":"D#3","midi":51,"time":105.27281499999995,"velocity":0.7480314960629921,"duration":0.272727500000002},{"name":"F#3","midi":54,"time":105.54554249999995,"velocity":0.7480314960629921,"duration":0.272727500000002},{"name":"G3","midi":55,"time":105.81826999999996,"velocity":0.7480314960629921,"duration":0.6761369270833342},{"name":"F#3","midi":54,"time":106.50008874999996,"velocity":0.7480314960629921,"duration":0.13068192708333015},{"name":"G3","midi":55,"time":106.63645249999996,"velocity":0.7480314960629921,"duration":0.13068192708333015},{"name":"A3","midi":57,"time":106.77281624999996,"velocity":0.7480314960629921,"duration":38.312531927084635},{"name":"A#3","midi":58,"time":106.90917999999996,"velocity":0.7480314960629921,"duration":0.7272733333333292},{"name":"G#3","midi":56,"time":107.72736249999996,"velocity":0.7480314960629921,"duration":0.3636366666666646},{"name":"G3","midi":55,"time":107.86372624999996,"velocity":0.7480314960629921,"duration":0.13068192708333015},{"name":"G#3","midi":56,"time":108.00008999999996,"velocity":0.7480314960629921,"duration":11.818191666666735},{"name":"B2","midi":47,"time":108.27281749999996,"velocity":0.7480314960629921,"duration":0.0909091666666626},{"name":"C3","midi":48,"time":108.54554499999996,"velocity":0.7480314960629921,"duration":0.4545458333333272},{"name":"A#2","midi":46,"time":109.36372749999995,"velocity":0.7480314960629921,"duration":0.272727500000002},{"name":"C#3","midi":49,"time":109.63645499999996,"velocity":0.7480314960629921,"duration":0.272727500000002},{"name":"D3","midi":50,"time":109.90918249999996,"velocity":0.7480314960629921,"duration":0.5397731770833332},{"name":"C3","midi":48,"time":110.45463749999996,"velocity":0.7480314960629921,"duration":0.13068192708333015},{"name":"B2","midi":47,"time":110.59100124999996,"velocity":0.7480314960629921,"duration":0.13068192708333015},{"name":"C3","midi":48,"time":110.72736499999996,"velocity":0.7480314960629921,"duration":0.0909091666666626},{"name":"A3","midi":57,"time":111.00009249999997,"velocity":0.7480314960629921,"duration":38.03980442708473},{"name":"C3","midi":48,"time":111.13645624999997,"velocity":0.7480314960629921,"duration":0.13068192708333015},{"name":"A#2","midi":46,"time":111.27281999999997,"velocity":0.7480314960629921,"duration":0.13068192708333015},{"name":"A2","midi":45,"time":111.40918374999997,"velocity":0.7480314960629921,"duration":0.13068192708333015},{"name":"G2","midi":43,"time":111.54554749999997,"velocity":0.7480314960629921,"duration":0.13068192708333015},{"name":"A#2","midi":46,"time":111.68191124999997,"velocity":0.7480314960629921,"duration":0.13068192708333015},{"name":"A2","midi":45,"time":111.81827499999997,"velocity":0.7480314960629921,"duration":0.0909091666666626},{"name":"D3","midi":50,"time":112.09100249999997,"velocity":0.7480314960629921,"duration":0.0909091666666626},{"name":"A3","midi":57,"time":112.36372999999998,"velocity":0.7480314960629921,"duration":37.08525817708477},{"name":"G3","midi":55,"time":112.39782093749999,"velocity":0.7480314960629921,"duration":0.028409114583340056},{"name":"A3","midi":57,"time":112.431911875,"velocity":0.7480314960629921,"duration":44.65912812500176},{"name":"G3","midi":55,"time":112.46600281250001,"velocity":0.7480314960629921,"duration":0.028409114583340056},{"name":"F#3","midi":54,"time":112.50009375000002,"velocity":0.7480314960629921,"duration":0.13068192708333015},{"name":"G3","midi":55,"time":112.63645750000002,"velocity":0.7480314960629921,"duration":0.26704567708333116},{"name":"G2","midi":43,"time":114.00009500000002,"velocity":0.7480314960629921,"duration":0.4545458333333272},{"name":"B2","midi":47,"time":114.54555,"velocity":0.7480314960629921,"duration":0.4545458333333272},{"name":"D3","midi":50,"time":115.091005,"velocity":0.7480314960629921,"duration":0.8125006770833352},{"name":"C3","midi":48,"time":115.9091875,"velocity":0.7480314960629921,"duration":0.13068192708333015},{"name":"B2","midi":47,"time":116.04555125,"velocity":0.7480314960629921,"duration":0.13068192708333015},{"name":"C3","midi":48,"time":116.181915,"velocity":0.7480314960629921,"duration":0.0909091666666626},{"name":"D3","midi":50,"time":116.4546425,"velocity":0.7480314960629921,"duration":0.0909091666666626},{"name":"D#3","midi":51,"time":116.72737000000001,"velocity":0.7480314960629921,"duration":0.0909091666666626},{"name":"F3","midi":53,"time":117.00009750000001,"velocity":0.7480314960629921,"duration":0.0909091666666626},{"name":"G3","midi":55,"time":117.27282500000001,"velocity":0.7480314960629921,"duration":0.8125006770833352},{"name":"F3","midi":53,"time":118.09100750000002,"velocity":0.7480314960629921,"duration":0.13068192708333015},{"name":"E3","midi":52,"time":118.22737125000002,"velocity":0.7480314960629921,"duration":0.13068192708333015},{"name":"F3","midi":53,"time":118.36373500000002,"velocity":0.7480314960629921,"duration":0.0909091666666626},{"name":"G3","midi":55,"time":118.63646250000002,"velocity":0.7480314960629921,"duration":0.0909091666666626},{"name":"A3","midi":57,"time":118.90919000000002,"velocity":0.7480314960629921,"duration":40.630715677085334},{"name":"B3","midi":59,"time":119.18191750000003,"velocity":0.7480314960629921,"duration":0.0909091666666626},{"name":"C4","midi":60,"time":119.45464500000003,"velocity":0.7480314960629921,"duration":0.0909091666666626},{"name":"G#3","midi":56,"time":119.72737250000003,"velocity":0.7480314960629921,"duration":42.45458083333543},{"name":"G3","midi":55,"time":120.00010000000003,"velocity":0.7480314960629921,"duration":0.13068192708333015},{"name":"F3","midi":53,"time":120.13646375000003,"velocity":0.7480314960629921,"duration":0.13068192708333015},{"name":"D#3","midi":51,"time":120.27282750000003,"velocity":0.7480314960629921,"duration":0.13068192708333015},{"name":"F3","midi":53,"time":120.40919125000003,"velocity":0.7480314960629921,"duration":0.13068192708333015},{"name":"G3","midi":55,"time":120.54555500000004,"velocity":0.7480314960629921,"duration":0.0909091666666626},{"name":"G2","midi":43,"time":120.81828250000004,"velocity":0.7480314960629921,"duration":0.0909091666666626},{"name":"C3","midi":48,"time":121.09101000000004,"velocity":0.7480314960629921,"duration":0.13068192708333015},{"name":"A4","midi":69,"time":121.22737375000004,"velocity":0.7480314960629921,"duration":0.13068192708333015},{"name":"G4","midi":67,"time":121.36373750000004,"velocity":0.7480314960629921,"duration":0.13068192708333015},{"name":"F4","midi":65,"time":121.50010125000004,"velocity":0.7480314960629921,"duration":0.13068192708333015},{"name":"E4","midi":64,"time":121.63646500000004,"velocity":0.7480314960629921,"duration":0.13068192708333015},{"name":"D4","midi":62,"time":121.77282875000004,"velocity":0.7480314960629921,"duration":0.13068192708333015},{"name":"C4","midi":60,"time":121.90919250000005,"velocity":0.7480314960629921,"duration":0.13068192708333015},{"name":"A#3","midi":58,"time":122.04555625000005,"velocity":0.7480314960629921,"duration":0.13068192708333015},{"name":"A3","midi":57,"time":122.18192000000005,"velocity":0.7480314960629921,"duration":37.767076927085355},{"name":"F4","midi":65,"time":122.31828375000005,"velocity":0.7480314960629921,"duration":0.13068192708333015},{"name":"E4","midi":64,"time":122.45464750000005,"velocity":0.7480314960629921,"duration":0.13068192708333015},{"name":"D4","midi":62,"time":122.59101125000005,"velocity":0.7480314960629921,"duration":0.13068192708333015},{"name":"C4","midi":60,"time":122.72737500000005,"velocity":0.7480314960629921,"duration":0.13068192708333015},{"name":"A#3","midi":58,"time":122.86373875000005,"velocity":0.7480314960629921,"duration":0.13068192708333015},{"name":"A3","midi":57,"time":123.00010250000005,"velocity":0.7480314960629921,"duration":37.357985677085395},{"name":"G3","midi":55,"time":123.13646625000005,"velocity":0.7480314960629921,"duration":0.13068192708333015},{"name":"F3","midi":53,"time":123.27283000000006,"velocity":0.7480314960629921,"duration":0.13068192708333015},{"name":"A#3","midi":58,"time":123.40919375000006,"velocity":0.7480314960629921,"duration":0.13068192708333015},{"name":"A3","midi":57,"time":123.54555750000006,"velocity":0.7480314960629921,"duration":0},{"name":"G3","midi":55,"time":123.68192125000006,"velocity":0.7480314960629921,"duration":0.13068192708333015},{"name":"F3","midi":53,"time":123.81828500000006,"velocity":0.7480314960629921,"duration":0.13068192708333015},{"name":"D#3","midi":51,"time":123.95464875000006,"velocity":0.7480314960629921,"duration":0.13068192708333015},{"name":"D3","midi":50,"time":124.09101250000006,"velocity":0.7480314960629921,"duration":0.13068192708333015},{"name":"C3","midi":48,"time":124.22737625000006,"velocity":0.7480314960629921,"duration":0.13068192708333015},{"name":"D3","midi":50,"time":124.36374000000006,"velocity":0.7480314960629921,"duration":0.13068192708333015},{"name":"F3","midi":53,"time":124.50010375000006,"velocity":0.7480314960629921,"duration":0.13068192708333015},{"name":"E3","midi":52,"time":124.63646750000007,"velocity":0.7480314960629921,"duration":0.13068192708333015},{"name":"D3","midi":50,"time":124.77283125000007,"velocity":0.7480314960629921,"duration":0.13068192708333015},{"name":"C3","midi":48,"time":124.90919500000007,"velocity":0.7480314960629921,"duration":0.13068192708333015},{"name":"A#2","midi":46,"time":125.04555875000007,"velocity":0.7480314960629921,"duration":0.13068192708333015},{"name":"A2","midi":45,"time":125.18192250000007,"velocity":0.7480314960629921,"duration":0.13068192708333015},{"name":"G2","midi":43,"time":125.31828625000007,"velocity":0.7480314960629921,"duration":0.13068192708333015},{"name":"A2","midi":45,"time":125.45465000000007,"velocity":0.7480314960629921,"duration":0.0909091666666626},{"name":"F2","midi":41,"time":125.72737750000007,"velocity":0.7480314960629921,"duration":0.0909091666666626},{"name":"C3","midi":48,"time":126.54556000000007,"velocity":0.7480314960629921,"duration":0.4545458333333272},{"name":"E3","midi":52,"time":127.09101500000006,"velocity":0.7480314960629921,"duration":0.4545458333333272},{"name":"F3","midi":53,"time":127.63647000000005,"velocity":0.7480314960629921,"duration":0.7272733333333434},{"name":"F3","midi":53,"time":128.45465250000007,"velocity":0.7480314960629921,"duration":0.13068192708334436},{"name":"E3","midi":52,"time":128.59101625000008,"velocity":0.7480314960629921,"duration":0.13068192708334436},{"name":"F3","midi":53,"time":128.7273800000001,"velocity":0.7480314960629921,"duration":0.09090916666667681},{"name":"G3","midi":55,"time":129.0001075000001,"velocity":0.7480314960629921,"duration":0.09090916666667681},{"name":"A3","midi":57,"time":129.2728350000001,"velocity":0.7480314960629921,"duration":0},{"name":"B3","midi":59,"time":129.5455625000001,"velocity":0.7480314960629921,"duration":0.09090916666667681},{"name":"C4","midi":60,"time":129.8182900000001,"velocity":0.7480314960629921,"duration":0.09090916666667681},{"name":"G3","midi":55,"time":130.0910175000001,"velocity":0.7480314960629921,"duration":0.272727500000002},{"name":"C4","midi":60,"time":130.3637450000001,"velocity":0.7480314960629921,"duration":0.272727500000002},{"name":"E4","midi":64,"time":130.6364725000001,"velocity":0.7480314960629921,"duration":0.272727500000002},{"name":"D4","midi":62,"time":130.9092000000001,"velocity":0.7480314960629921,"duration":0.13068192708334436},{"name":"C4","midi":60,"time":131.04556375000013,"velocity":0.7480314960629921,"duration":0.13068192708334436},{"name":"B3","midi":59,"time":131.18192750000014,"velocity":0.7480314960629921,"duration":0.13068192708334436},{"name":"A3","midi":57,"time":131.31829125000016,"velocity":0.7480314960629921,"duration":0},{"name":"G3","midi":55,"time":131.45465500000017,"velocity":0.7480314960629921,"duration":0.13068192708334436},{"name":"F3","midi":53,"time":131.5910187500002,"velocity":0.7480314960629921,"duration":0.13068192708334436},{"name":"E3","midi":52,"time":131.7273825000002,"velocity":0.7480314960629921,"duration":0.13068192708334436},{"name":"D3","midi":50,"time":131.86374625000022,"velocity":0.7480314960629921,"duration":0.13068192708334436},{"name":"E3","midi":52,"time":132.00011000000023,"velocity":0.7480314960629921,"duration":0.13068192708334436},{"name":"G3","midi":55,"time":132.13647375000025,"velocity":0.7480314960629921,"duration":0.13068192708334436},{"name":"C3","midi":48,"time":132.27283750000026,"velocity":0.7480314960629921,"duration":0.13068192708334436},{"name":"E3","midi":52,"time":132.40920125000028,"velocity":0.7480314960629921,"duration":0.13068192708334436},{"name":"A3","midi":57,"time":132.5455650000003,"velocity":0.7480314960629921,"duration":0},{"name":"C4","midi":60,"time":133.22738375000029,"velocity":0.7480314960629921,"duration":0.13068192708334436},{"name":"F3","midi":53,"time":133.3637475000003,"velocity":0.7480314960629921,"duration":0.13068192708334436},{"name":"A3","midi":57,"time":133.50011125000032,"velocity":0.7480314960629921,"duration":0},{"name":"D3","midi":50,"time":133.63647500000033,"velocity":0.7480314960629921,"duration":0.67613692708332},{"name":"F3","midi":53,"time":134.31829375000032,"velocity":0.7480314960629921,"duration":0.13068192708334436},{"name":"A#2","midi":46,"time":134.45465750000034,"velocity":0.7480314960629921,"duration":0.13068192708334436},{"name":"D3","midi":50,"time":134.59102125000035,"velocity":0.7480314960629921,"duration":0.13068192708334436},{"name":"G3","midi":55,"time":134.72738500000037,"velocity":0.7480314960629921,"duration":0.67613692708332},{"name":"A#3","midi":58,"time":135.40920375000036,"velocity":0.7480314960629921,"duration":0.13068192708334436},{"name":"E3","midi":52,"time":135.54556750000037,"velocity":0.7480314960629921,"duration":0.13068192708334436},{"name":"G3","midi":55,"time":135.6819312500004,"velocity":0.7480314960629921,"duration":0.13068192708334436},{"name":"C3","midi":48,"time":135.8182950000004,"velocity":0.7480314960629921,"duration":0.67613692708332},{"name":"E3","midi":52,"time":136.5001137500004,"velocity":0.7480314960629921,"duration":0.13068192708334436},{"name":"A2","midi":45,"time":136.6364775000004,"velocity":0.7480314960629921,"duration":0.13068192708334436},{"name":"C3","midi":48,"time":136.77284125000043,"velocity":0.7480314960629921,"duration":0.13068192708334436},{"name":"F3","midi":53,"time":136.90920500000044,"velocity":0.7480314960629921,"duration":0.13068192708334436},{"name":"A3","midi":57,"time":137.04556875000046,"velocity":0.7480314960629921,"duration":0},{"name":"D3","midi":50,"time":137.18193250000047,"velocity":0.7480314960629921,"duration":0.13068192708334436},{"name":"F3","midi":53,"time":137.3182962500005,"velocity":0.7480314960629921,"duration":0.13068192708334436},{"name":"A#2","midi":46,"time":137.4546600000005,"velocity":0.7480314960629921,"duration":0.13068192708334436},{"name":"D3","midi":50,"time":137.59102375000052,"velocity":0.7480314960629921,"duration":0.13068192708334436},{"name":"G2","midi":43,"time":137.72738750000053,"velocity":0.7480314960629921,"duration":0.13068192708334436},{"name":"A#2","midi":46,"time":137.86375125000055,"velocity":0.7480314960629921,"duration":0.13068192708334436},{"name":"E3","midi":52,"time":138.00011500000056,"velocity":0.7480314960629921,"duration":0.13068192708334436},{"name":"G3","midi":55,"time":138.13647875000058,"velocity":0.7480314960629921,"duration":0.13068192708334436},{"name":"C3","midi":48,"time":138.2728425000006,"velocity":0.7480314960629921,"duration":0.13068192708334436},{"name":"E3","midi":52,"time":138.4092062500006,"velocity":0.7480314960629921,"duration":0.13068192708334436},{"name":"A2","midi":45,"time":138.54557000000062,"velocity":0.7480314960629921,"duration":0.13068192708334436},{"name":"C3","midi":48,"time":138.68193375000064,"velocity":0.7480314960629921,"duration":0.13068192708334436},{"name":"F2","midi":41,"time":138.81829750000065,"velocity":0.7480314960629921,"duration":0.13068192708334436},{"name":"A2","midi":45,"time":138.95466125000067,"velocity":0.7480314960629921,"duration":0.13068192708334436},{"name":"D3","midi":50,"time":139.09102500000068,"velocity":0.7480314960629921,"duration":0.13068192708334436},{"name":"F3","midi":53,"time":139.2273887500007,"velocity":0.7480314960629921,"duration":0.13068192708334436},{"name":"A#2","midi":46,"time":139.36375250000071,"velocity":0.7480314960629921,"duration":0.13068192708334436},{"name":"D3","midi":50,"time":139.50011625000073,"velocity":0.7480314960629921,"duration":0.13068192708334436},{"name":"E3","midi":52,"time":139.63648000000074,"velocity":0.7480314960629921,"duration":0.13068192708334436},{"name":"G3","midi":55,"time":139.77284375000076,"velocity":0.7480314960629921,"duration":0.13068192708334436},{"name":"C3","midi":48,"time":139.90920750000078,"velocity":0.7480314960629921,"duration":0.13068192708334436},{"name":"E3","midi":52,"time":140.0455712500008,"velocity":0.7480314960629921,"duration":0.13068192708334436},{"name":"G3","midi":55,"time":140.1819350000008,"velocity":0.7480314960629921,"duration":0.13068192708334436},{"name":"A#3","midi":58,"time":140.31829875000082,"velocity":0.7480314960629921,"duration":0.13068192708334436},{"name":"E3","midi":52,"time":140.45466250000084,"velocity":0.7480314960629921,"duration":0.13068192708334436},{"name":"G3","midi":55,"time":140.59102625000085,"velocity":0.7480314960629921,"duration":0.13068192708334436},{"name":"A3","midi":57,"time":140.72739000000087,"velocity":0.7480314960629921,"duration":0},{"name":"C4","midi":60,"time":140.86375375000088,"velocity":0.7480314960629921,"duration":0.13068192708334436},{"name":"F3","midi":53,"time":141.0001175000009,"velocity":0.7480314960629921,"duration":0.13068192708334436},{"name":"A3","midi":57,"time":141.1364812500009,"velocity":0.7480314960629921,"duration":0},{"name":"D4","midi":62,"time":141.27284500000093,"velocity":0.7480314960629921,"duration":0.8125006770833352},{"name":"C4","midi":60,"time":142.09102750000093,"velocity":0.7480314960629921,"duration":0.13068192708334436},{"name":"A#3","midi":58,"time":142.22739125000095,"velocity":0.7480314960629921,"duration":0.13068192708334436},{"name":"C4","midi":60,"time":142.36375500000096,"velocity":0.7480314960629921,"duration":0.13068192708334436},{"name":"D#4","midi":63,"time":142.50011875000098,"velocity":0.7480314960629921,"duration":0.13068192708334436},{"name":"D4","midi":62,"time":142.636482500001,"velocity":0.7480314960629921,"duration":0.13068192708334436},{"name":"F4","midi":65,"time":142.772846250001,"velocity":0.7480314960629921,"duration":0.13068192708334436},{"name":"D#4","midi":63,"time":142.90921000000102,"velocity":0.7480314960629921,"duration":0.13068192708334436},{"name":"D4","midi":62,"time":143.04557375000104,"velocity":0.7480314960629921,"duration":0.13068192708334436},{"name":"D#4","midi":63,"time":143.18193750000106,"velocity":0.7480314960629921,"duration":0.13068192708334436},{"name":"C4","midi":60,"time":143.31830125000107,"velocity":0.7480314960629921,"duration":0.13068192708334436},{"name":"D4","midi":62,"time":143.45466500000109,"velocity":0.7480314960629921,"duration":0.13068192708334436},{"name":"F4","midi":65,"time":143.5910287500011,"velocity":0.7480314960629921,"duration":0.13068192708334436},{"name":"A#3","midi":58,"time":143.72739250000112,"velocity":0.7480314960629921,"duration":0.13068192708334436},{"name":"D4","midi":62,"time":143.86375625000113,"velocity":0.7480314960629921,"duration":0.13068192708334436},{"name":"D#3","midi":51,"time":144.00012000000115,"velocity":0.7480314960629921,"duration":0.13068192708334436},{"name":"D4","midi":62,"time":144.13648375000116,"velocity":0.7480314960629921,"duration":0.13068192708334436},{"name":"C4","midi":60,"time":144.27284750000118,"velocity":0.7480314960629921,"duration":0.13068192708334436},{"name":"A#3","midi":58,"time":144.4092112500012,"velocity":0.7480314960629921,"duration":0.13068192708334436},{"name":"A3","midi":57,"time":144.5455750000012,"velocity":0.7480314960629921,"duration":0},{"name":"C4","midi":60,"time":144.68193875000122,"velocity":0.7480314960629921,"duration":0.13068192708334436},{"name":"F3","midi":53,"time":144.81830250000124,"velocity":0.7480314960629921,"duration":0.13068192708334436},{"name":"A3","midi":57,"time":144.95466625000125,"velocity":0.7480314960629921,"duration":0},{"name":"A#2","midi":46,"time":145.09103000000127,"velocity":0.7480314960629921,"duration":0.67613692708332},{"name":"G2","midi":43,"time":145.77284875000126,"velocity":0.7480314960629921,"duration":0.13068192708334436},{"name":"D3","midi":50,"time":145.90921250000127,"velocity":0.7480314960629921,"duration":0.13068192708334436},{"name":"A#2","midi":46,"time":146.0455762500013,"velocity":0.7480314960629921,"duration":0.13068192708334436},{"name":"G3","midi":55,"time":146.1819400000013,"velocity":0.7480314960629921,"duration":0.67613692708332},{"name":"A#3","midi":58,"time":146.8637587500013,"velocity":0.7480314960629921,"duration":0.13068192708334436},{"name":"E3","midi":52,"time":147.0001225000013,"velocity":0.7480314960629921,"duration":0.13068192708334436},{"name":"G3","midi":55,"time":147.13648625000133,"velocity":0.7480314960629921,"duration":0.13068192708334436},{"name":"C3","midi":48,"time":147.27285000000134,"velocity":0.7480314960629921,"duration":0.67613692708332},{"name":"A2","midi":45,"time":147.95466875000133,"velocity":0.7480314960629921,"duration":0.13068192708334436},{"name":"E3","midi":52,"time":148.09103250000135,"velocity":0.7480314960629921,"duration":0.13068192708334436},{"name":"C3","midi":48,"time":148.22739625000136,"velocity":0.7480314960629921,"duration":0.13068192708334436},{"name":"A3","midi":57,"time":148.36376000000138,"velocity":0.7480314960629921,"duration":0},{"name":"C4","midi":60,"time":149.04557875000137,"velocity":0.7480314960629921,"duration":0.13068192708334436},{"name":"F3","midi":53,"time":149.18194250000138,"velocity":0.7480314960629921,"duration":0.13068192708334436},{"name":"A3","midi":57,"time":149.3183062500014,"velocity":0.7480314960629921,"duration":0},{"name":"D3","midi":50,"time":149.4546700000014,"velocity":0.7480314960629921,"duration":0.67613692708332},{"name":"F3","midi":53,"time":150.1364887500014,"velocity":0.7480314960629921,"duration":0.13068192708334436},{"name":"D3","midi":50,"time":150.27285250000142,"velocity":0.7480314960629921,"duration":0.13068192708334436},{"name":"F3","midi":53,"time":150.40921625000144,"velocity":0.7480314960629921,"duration":0.13068192708334436},{"name":"G3","midi":55,"time":150.54558000000145,"velocity":0.7480314960629921,"duration":0.13068192708334436},{"name":"A#3","midi":58,"time":150.68194375000147,"velocity":0.7480314960629921,"duration":0.13068192708334436},{"name":"D3","midi":50,"time":150.81830750000148,"velocity":0.7480314960629921,"duration":0.13068192708334436},{"name":"G3","midi":55,"time":150.9546712500015,"velocity":0.7480314960629921,"duration":0.13068192708334436},{"name":"A#2","midi":46,"time":151.0910350000015,"velocity":0.7480314960629921,"duration":0.13068192708334436},{"name":"D3","midi":50,"time":151.22739875000153,"velocity":0.7480314960629921,"duration":0.13068192708334436},{"name":"G2","midi":43,"time":151.36376250000154,"velocity":0.7480314960629921,"duration":0.13068192708334436},{"name":"A#2","midi":46,"time":151.50012625000156,"velocity":0.7480314960629921,"duration":0.13068192708334436},{"name":"C3","midi":48,"time":151.63649000000157,"velocity":0.7480314960629921,"duration":0.13068192708334436},{"name":"E3","midi":52,"time":151.7728537500016,"velocity":0.7480314960629921,"duration":0.13068192708334436},{"name":"G2","midi":43,"time":151.9092175000016,"velocity":0.7480314960629921,"duration":0.13068192708334436},{"name":"C3","midi":48,"time":152.04558125000162,"velocity":0.7480314960629921,"duration":0.13068192708334436},{"name":"E2","midi":40,"time":152.18194500000163,"velocity":0.7480314960629921,"duration":0.13068192708334436},{"name":"G2","midi":43,"time":152.31830875000165,"velocity":0.7480314960629921,"duration":0.13068192708334436},{"name":"C2","midi":36,"time":152.45467250000166,"velocity":0.7480314960629921,"duration":0.13068192708334436},{"name":"E2","midi":40,"time":152.59103625000168,"velocity":0.7480314960629921,"duration":0.13068192708334436},{"name":"F2","midi":41,"time":152.7274000000017,"velocity":0.7480314960629921,"duration":0.4545458333333272},{"name":"A2","midi":45,"time":153.2728550000017,"velocity":0.7480314960629921,"duration":0.4545458333333272},{"name":"C3","midi":48,"time":153.8183100000017,"velocity":0.7480314960629921,"duration":0.7272733333333292},{"name":"A#2","midi":46,"time":154.6364925000017,"velocity":0.7480314960629921,"duration":0.13068192708334436},{"name":"A2","midi":45,"time":154.77285625000172,"velocity":0.7480314960629921,"duration":0.13068192708334436},{"name":"A#2","midi":46,"time":154.90922000000174,"velocity":0.7480314960629921,"duration":0.09090916666667681},{"name":"C3","midi":48,"time":155.18194750000174,"velocity":0.7480314960629921,"duration":0.09090916666667681},{"name":"D3","midi":50,"time":155.45467500000174,"velocity":0.7480314960629921,"duration":0.09090916666667681},{"name":"E3","midi":52,"time":155.72740250000174,"velocity":0.7480314960629921,"duration":0.09090916666667681},{"name":"F3","midi":53,"time":156.00013000000175,"velocity":0.7480314960629921,"duration":0.09090916666667681},{"name":"C3","midi":48,"time":156.27285750000175,"velocity":0.7480314960629921,"duration":0.272727500000002},{"name":"F3","midi":53,"time":156.54558500000175,"velocity":0.7480314960629921,"duration":0.272727500000002},{"name":"A3","midi":57,"time":156.81831250000175,"velocity":0.7480314960629921,"duration":0},{"name":"G3","midi":55,"time":157.09104000000175,"velocity":0.7480314960629921,"duration":0.13068192708334436},{"name":"F3","midi":53,"time":157.22740375000177,"velocity":0.7480314960629921,"duration":0.13068192708334436},{"name":"E3","midi":52,"time":157.36376750000179,"velocity":0.7480314960629921,"duration":0.13068192708334436},{"name":"D3","midi":50,"time":157.5001312500018,"velocity":0.7480314960629921,"duration":0.13068192708334436},{"name":"C3","midi":48,"time":157.63649500000182,"velocity":0.7480314960629921,"duration":0.13068192708334436},{"name":"A#2","midi":46,"time":157.77285875000183,"velocity":0.7480314960629921,"duration":0.13068192708334436},{"name":"A2","midi":45,"time":157.90922250000185,"velocity":0.7480314960629921,"duration":0.13068192708334436},{"name":"G2","midi":43,"time":158.04558625000186,"velocity":0.7480314960629921,"duration":0.13068192708334436},{"name":"A2","midi":45,"time":158.18195000000188,"velocity":0.7480314960629921,"duration":0.13068192708334436},{"name":"C3","midi":48,"time":158.3183137500019,"velocity":0.7480314960629921,"duration":0.13068192708334436},{"name":"F2","midi":41,"time":158.4546775000019,"velocity":0.7480314960629921,"duration":0.13068192708334436},{"name":"A2","midi":45,"time":158.59104125000192,"velocity":0.7480314960629921,"duration":0.13068192708334436},{"name":"C3","midi":48,"time":158.72740500000194,"velocity":0.7480314960629921,"duration":0.13068192708334436},{"name":"F3","midi":53,"time":158.86376875000195,"velocity":0.7480314960629921,"duration":0.13068192708334436},{"name":"A2","midi":45,"time":159.00013250000197,"velocity":0.7480314960629921,"duration":0.13068192708334436},{"name":"C3","midi":48,"time":159.13649625000198,"velocity":0.7480314960629921,"duration":0.13068192708334436},{"name":"F3","midi":53,"time":159.272860000002,"velocity":0.7480314960629921,"duration":0.13068192708334436},{"name":"A3","midi":57,"time":159.409223750002,"velocity":0.7480314960629921,"duration":0},{"name":"C3","midi":48,"time":159.54558750000203,"velocity":0.7480314960629921,"duration":0.13068192708334436},{"name":"F3","midi":53,"time":159.68195125000204,"velocity":0.7480314960629921,"duration":0.13068192708334436},{"name":"A3","midi":57,"time":159.81831500000206,"velocity":0.7480314960629921,"duration":0},{"name":"C4","midi":60,"time":159.95467875000207,"velocity":0.7480314960629921,"duration":0.13068192708334436},{"name":"F3","midi":53,"time":160.0910425000021,"velocity":0.7480314960629921,"duration":0.13068192708334436},{"name":"A3","midi":57,"time":160.2274062500021,"velocity":0.7480314960629921,"duration":0},{"name":"C4","midi":60,"time":160.36377000000212,"velocity":0.7480314960629921,"duration":0.4545458333333272},{"name":"C3","midi":48,"time":160.90922500000212,"velocity":0.7480314960629921,"duration":0.4545458333333272},{"name":"F2","midi":41,"time":161.45468000000213,"velocity":0.7480314960629921,"duration":0.7272733333333292}],"controlChanges":{"7":[{"number":7,"time":0,"value":0.8661417322834646}],"10":[{"number":10,"time":0,"value":0.3700787401574803}]},"id":2,"name":"L.H.","instrumentNumber":6,"instrument":"harpsichord","instrumentFamily":"piano","channelNumber":0,"isPercussion":false}]}