{"header":{"PPQ":384,"timeSignature":[4,4],"bpm":120,"name":"--------"},"startTime":0,"duration":264.58984375000705,"tracks":[{"startTime":0,"duration":0,"length":0,"notes":[],"controlChanges":{},"id":0,"name":"--------"},{"startTime":0.07552083333333333,"duration":264.58984375000705,"length":2266,"notes":[{"name":"C#3","midi":49,"time":0.07552083333333333,"velocity":0.7244094488188977,"duration":0.5286458333333334},{"name":"F5","midi":77,"time":0.07552083333333333,"velocity":0.7244094488188977,"duration":0.12760416666666669},{"name":"C#5","midi":73,"time":0.20833333333333334,"velocity":0.7244094488188977,"duration":0.12760416666666666},{"name":"G#4","midi":68,"time":0.3411458333333333,"velocity":0.7244094488188977,"duration":0.12760416666666669},{"name":"C#5","midi":73,"time":0.4752604166666667,"velocity":0.7244094488188977,"duration":0.12760416666666669},{"name":"C#4","midi":61,"time":0.6080729166666667,"velocity":0.7244094488188977,"duration":0.26171875},{"name":"F5","midi":77,"time":0.6080729166666667,"velocity":0.7244094488188977,"duration":0.12760416666666663},{"name":"C#5","midi":73,"time":0.7408854166666667,"velocity":0.7244094488188977,"duration":0.12760416666666663},{"name":"D#3","midi":51,"time":0.8736979166666667,"velocity":0.7244094488188977,"duration":0.5286458333333335},{"name":"F#5","midi":78,"time":0.8736979166666667,"velocity":0.7244094488188977,"duration":0.12760416666666674},{"name":"C#5","midi":73,"time":1.0078125000000002,"velocity":0.7244094488188977,"duration":0.12760416666666674},{"name":"F#5","midi":78,"time":1.1406250000000002,"velocity":0.7244094488188977,"duration":0.12760416666666674},{"name":"C#5","midi":73,"time":1.2734375000000002,"velocity":0.7244094488188977,"duration":0.12760416666666674},{"name":"C#4","midi":61,"time":1.4062500000000002,"velocity":0.7244094488188977,"duration":0.26171875},{"name":"F#5","midi":78,"time":1.4062500000000002,"velocity":0.7244094488188977,"duration":0.12760416666666674},{"name":"C#5","midi":73,"time":1.5390625000000002,"velocity":0.7244094488188977,"duration":0.12760416666666674},{"name":"F3","midi":53,"time":1.6731770833333335,"velocity":0.7244094488188977,"duration":0.528645833333333},{"name":"G#5","midi":80,"time":1.6731770833333335,"velocity":0.7244094488188977,"duration":0.12760416666666674},{"name":"C#5","midi":73,"time":1.8059895833333335,"velocity":0.7244094488188977,"duration":0.12760416666666674},{"name":"G#5","midi":80,"time":1.940104166666667,"velocity":0.7244094488188977,"duration":0.12760416666666652},{"name":"C#5","midi":73,"time":2.0716145833333335,"velocity":0.7244094488188977,"duration":0.12760416666666652},{"name":"C#4","midi":61,"time":2.2057291666666665,"velocity":0.7244094488188977,"duration":0.26171875},{"name":"G#5","midi":80,"time":2.2057291666666665,"velocity":0.7244094488188977,"duration":0.12760416666666652},{"name":"C#5","midi":73,"time":2.3385416666666665,"velocity":0.7244094488188977,"duration":0.12760416666666652},{"name":"F#3","midi":54,"time":2.4713541666666665,"velocity":0.7244094488188977,"duration":0.5286458333333326},{"name":"A#5","midi":82,"time":2.4713541666666665,"velocity":0.7244094488188977,"duration":0.12760416666666652},{"name":"C#5","midi":73,"time":2.6041666666666665,"velocity":0.7244094488188977,"duration":0.12760416666666652},{"name":"A#5","midi":82,"time":2.735677083333333,"velocity":0.7244094488188977,"duration":0.12760416666666652},{"name":"C#5","midi":73,"time":2.869791666666666,"velocity":0.7244094488188977,"duration":0.12760416666666652},{"name":"C#4","midi":61,"time":3.0026041666666656,"velocity":0.7244094488188977,"duration":0.26171874999999956},{"name":"A#5","midi":82,"time":3.0026041666666656,"velocity":0.7244094488188977,"duration":0.12760416666666652},{"name":"C#5","midi":73,"time":3.1367187499999987,"velocity":0.7244094488188977,"duration":0.12760416666666652},{"name":"F3","midi":53,"time":3.268229166666665,"velocity":0.7244094488188977,"duration":0.528645833333333},{"name":"G#5","midi":80,"time":3.268229166666665,"velocity":0.7244094488188977,"duration":0.12760416666666652},{"name":"C#5","midi":73,"time":3.4023437499999982,"velocity":0.7244094488188977,"duration":0.12760416666666652},{"name":"G#5","midi":80,"time":3.5351562499999982,"velocity":0.7244094488188977,"duration":0.12760416666666652},{"name":"C#5","midi":73,"time":3.6679687499999982,"velocity":0.7244094488188977,"duration":0.12760416666666652},{"name":"C#4","midi":61,"time":3.8020833333333317,"velocity":0.7244094488188977,"duration":0.26171875000000044},{"name":"G#5","midi":80,"time":3.8020833333333317,"velocity":0.7244094488188977,"duration":0.12760416666666652},{"name":"C#5","midi":73,"time":3.9335937499999982,"velocity":0.7244094488188977,"duration":0.12760416666666696},{"name":"D#3","midi":51,"time":4.067708333333332,"velocity":0.7244094488188977,"duration":0.5286458333333339},{"name":"F#5","midi":78,"time":4.067708333333332,"velocity":0.7244094488188977,"duration":0.12760416666666696},{"name":"F5","midi":77,"time":4.200520833333332,"velocity":0.7244094488188977,"duration":0.12760416666666696},{"name":"D#5","midi":75,"time":4.334635416666666,"velocity":0.7244094488188977,"duration":0.12760416666666696},{"name":"F5","midi":77,"time":4.467447916666666,"velocity":0.7244094488188977,"duration":0.12760416666666696},{"name":"C4","midi":60,"time":4.598958333333333,"velocity":0.7244094488188977,"duration":0.2617187500000009},{"name":"F#5","midi":78,"time":4.598958333333333,"velocity":0.7244094488188977,"duration":0.12760416666666696},{"name":"D#5","midi":75,"time":4.733072916666667,"velocity":0.7244094488188977,"duration":0.12760416666666696},{"name":"C#3","midi":49,"time":4.865885416666667,"velocity":0.7244094488188977,"duration":0.5286458333333348},{"name":"F5","midi":77,"time":4.865885416666667,"velocity":0.7244094488188977,"duration":0.12760416666666696},{"name":"D#5","midi":75,"time":5.000000000000001,"velocity":0.7244094488188977,"duration":0.12760416666666696},{"name":"C#5","midi":73,"time":5.131510416666668,"velocity":0.7244094488188977,"duration":0.12760416666666696},{"name":"D#5","midi":75,"time":5.265625000000002,"velocity":0.7244094488188977,"duration":0.12760416666666696},{"name":"C#4","midi":61,"time":5.398437500000002,"velocity":0.7244094488188977,"duration":0.5286458333333348},{"name":"F5","midi":77,"time":5.398437500000002,"velocity":0.7244094488188977,"duration":0.12760416666666696},{"name":"C#5","midi":73,"time":5.532552083333336,"velocity":0.7244094488188977,"duration":0.12760416666666696},{"name":"D#5","midi":75,"time":5.664062500000003,"velocity":0.7244094488188977,"duration":0.12760416666666696},{"name":"F5","midi":77,"time":5.79557291666667,"velocity":0.7244094488188977,"duration":0.12760416666666696},{"name":"C4","midi":60,"time":5.9296875000000036,"velocity":0.7244094488188977,"duration":0.12760416666666696},{"name":"D#5","midi":75,"time":5.9296875000000036,"velocity":0.7244094488188977,"duration":0.12760416666666696},{"name":"A#3","midi":58,"time":6.0625000000000036,"velocity":0.7244094488188977,"duration":0.12760416666666696},{"name":"C#5","midi":73,"time":6.0625000000000036,"velocity":0.7244094488188977,"duration":0.12760416666666696},{"name":"G#3","midi":56,"time":6.1966145833333375,"velocity":0.7244094488188977,"duration":0.12760416666666696},{"name":"C5","midi":72,"time":6.1966145833333375,"velocity":0.7244094488188977,"duration":0.12760416666666696},{"name":"A#3","midi":58,"time":6.3294270833333375,"velocity":0.7244094488188977,"duration":0.12760416666666696},{"name":"A#4","midi":70,"time":6.3294270833333375,"velocity":0.7244094488188977,"duration":0.12760416666666696},{"name":"C4","midi":60,"time":6.4622395833333375,"velocity":0.7244094488188977,"duration":0.12760416666666696},{"name":"G#4","midi":68,"time":6.4622395833333375,"velocity":0.7244094488188977,"duration":0.5286458333333339},{"name":"G#3","midi":56,"time":6.5950520833333375,"velocity":0.7244094488188977,"duration":0.12760416666666696},{"name":"D#3","midi":51,"time":6.729166666666671,"velocity":0.7244094488188977,"duration":0.12760416666666696},{"name":"G#3","midi":56,"time":6.861979166666671,"velocity":0.7244094488188977,"duration":0.12760416666666696},{"name":"C4","midi":60,"time":6.994791666666671,"velocity":0.7244094488188977,"duration":0.12760416666666696},{"name":"G#5","midi":80,"time":6.994791666666671,"velocity":0.7244094488188977,"duration":0.1640625},{"name":"G#3","midi":56,"time":7.127604166666671,"velocity":0.7244094488188977,"duration":0.12760416666666696},{"name":"C#4","midi":61,"time":7.260416666666671,"velocity":0.7244094488188977,"duration":0.12760416666666696},{"name":"A#4","midi":70,"time":7.260416666666671,"velocity":0.7244094488188977,"duration":0.5286458333333339},{"name":"G#3","midi":56,"time":7.394531250000005,"velocity":0.7244094488188977,"duration":0.12760416666666696},{"name":"C#4","midi":61,"time":7.527343750000005,"velocity":0.7244094488188977,"duration":0.12760416666666696},{"name":"G#3","midi":56,"time":7.660156250000005,"velocity":0.7244094488188977,"duration":0.12760416666666696},{"name":"C#4","midi":61,"time":7.792968750000005,"velocity":0.7244094488188977,"duration":0.12760416666666696},{"name":"G#5","midi":80,"time":7.792968750000005,"velocity":0.7244094488188977,"duration":0.1640625},{"name":"G#3","midi":56,"time":7.925781250000005,"velocity":0.7244094488188977,"duration":0.12760416666666607},{"name":"D#4","midi":63,"time":8.059895833333337,"velocity":0.7244094488188977,"duration":0.12760416666666607},{"name":"C5","midi":72,"time":8.059895833333337,"velocity":0.7244094488188977,"duration":0.5286458333333321},{"name":"G#3","midi":56,"time":8.192708333333337,"velocity":0.7244094488188977,"duration":0.12760416666666607},{"name":"D#4","midi":63,"time":8.325520833333337,"velocity":0.7244094488188977,"duration":0.12760416666666607},{"name":"G#3","midi":56,"time":8.458333333333337,"velocity":0.7244094488188977,"duration":0.12760416666666607},{"name":"D#4","midi":63,"time":8.59244791666667,"velocity":0.7244094488188977,"duration":0.12760416666666607},{"name":"G#5","midi":80,"time":8.59244791666667,"velocity":0.7244094488188977,"duration":0.1640625},{"name":"G#3","midi":56,"time":8.723958333333336,"velocity":0.7244094488188977,"duration":0.12760416666666785},{"name":"F4","midi":65,"time":8.85807291666667,"velocity":0.7244094488188977,"duration":0.12760416666666607},{"name":"C#5","midi":73,"time":8.85807291666667,"velocity":0.7244094488188977,"duration":0.5286458333333304},{"name":"G#3","midi":56,"time":8.989583333333336,"velocity":0.7244094488188977,"duration":0.12760416666666607},{"name":"F4","midi":65,"time":9.122395833333336,"velocity":0.7244094488188977,"duration":0.12760416666666607},{"name":"G#3","midi":56,"time":9.256510416666668,"velocity":0.7244094488188977,"duration":0.12760416666666607},{"name":"F4","midi":65,"time":9.389322916666666,"velocity":0.7244094488188977,"duration":0.12760416666666607},{"name":"G#5","midi":80,"time":9.389322916666666,"velocity":0.7244094488188977,"duration":0.1640625},{"name":"G#3","midi":56,"time":9.522135416666666,"velocity":0.7244094488188977,"duration":0.12760416666666607},{"name":"D#4","midi":63,"time":9.654947916666666,"velocity":0.7244094488188977,"duration":0.12760416666666607},{"name":"C5","midi":72,"time":9.654947916666666,"velocity":0.7244094488188977,"duration":0.5286458333333304},{"name":"G#3","midi":56,"time":9.789062499999998,"velocity":0.7244094488188977,"duration":0.12760416666666607},{"name":"D#4","midi":63,"time":9.921874999999998,"velocity":0.7244094488188977,"duration":0.12760416666666607},{"name":"G#3","midi":56,"time":10.05598958333333,"velocity":0.7244094488188977,"duration":0.12760416666666607},{"name":"D#4","midi":63,"time":10.187499999999996,"velocity":0.7244094488188977,"duration":0.12760416666666607},{"name":"G#5","midi":80,"time":10.187499999999996,"velocity":0.7244094488188977,"duration":0.1640625},{"name":"G#3","midi":56,"time":10.320312499999996,"velocity":0.7244094488188977,"duration":0.12760416666666607},{"name":"C#4","midi":61,"time":10.454427083333329,"velocity":0.7244094488188977,"duration":0.12760416666666607},{"name":"A#4","midi":70,"time":10.454427083333329,"velocity":0.7244094488188977,"duration":0.5286458333333304},{"name":"C4","midi":60,"time":10.587239583333329,"velocity":0.7244094488188977,"duration":0.12760416666666607},{"name":"A#3","midi":58,"time":10.72135416666666,"velocity":0.7244094488188977,"duration":0.12760416666666607},{"name":"C4","midi":60,"time":10.852864583333327,"velocity":0.7244094488188977,"duration":0.12760416666666607},{"name":"C#4","midi":61,"time":10.986979166666659,"velocity":0.7244094488188977,"duration":0.12760416666666607},{"name":"G5","midi":79,"time":10.986979166666659,"velocity":0.7244094488188977,"duration":0.1640625},{"name":"A#3","midi":58,"time":11.119791666666659,"velocity":0.7244094488188977,"duration":0.12760416666666607},{"name":"C4","midi":60,"time":11.252604166666659,"velocity":0.7244094488188977,"duration":0.12760416666666607},{"name":"G#4","midi":68,"time":11.252604166666659,"velocity":0.7244094488188977,"duration":0.5286458333333304},{"name":"A#3","midi":58,"time":11.386718749999991,"velocity":0.7244094488188977,"duration":0.12760416666666607},{"name":"G#3","midi":56,"time":11.518229166666657,"velocity":0.7244094488188977,"duration":0.12760416666666607},{"name":"A#3","midi":58,"time":11.65234374999999,"velocity":0.7244094488188977,"duration":0.12760416666666607},{"name":"C4","midi":60,"time":11.783854166666655,"velocity":0.7244094488188977,"duration":0.12760416666666607},{"name":"G#5","midi":80,"time":11.783854166666655,"velocity":0.7244094488188977,"duration":0.5286458333333304},{"name":"G#3","midi":56,"time":11.917968749999988,"velocity":0.7244094488188977,"duration":0.12760416666666607},{"name":"A#3","midi":58,"time":12.049479166666654,"velocity":0.7244094488188977,"duration":0.12760416666666607},{"name":"B3","midi":59,"time":12.183593749999986,"velocity":0.7244094488188977,"duration":0.12760416666666607},{"name":"A#3","midi":58,"time":12.316406249999986,"velocity":0.7244094488188977,"duration":0.12760416666666607},{"name":"F#5","midi":78,"time":12.316406249999986,"velocity":0.7244094488188977,"duration":0.12760416666666607},{"name":"G#3","midi":56,"time":12.449218749999986,"velocity":0.7244094488188977,"duration":0.12760416666666607},{"name":"F5","midi":77,"time":12.449218749999986,"velocity":0.7244094488188977,"duration":0.12760416666666607},{"name":"F#3","midi":54,"time":12.583333333333318,"velocity":0.7244094488188977,"duration":0.12760416666666607},{"name":"D#5","midi":75,"time":12.583333333333318,"velocity":0.7244094488188977,"duration":0.12760416666666607},{"name":"F3","midi":53,"time":12.714843749999984,"velocity":0.7244094488188977,"duration":0.12760416666666607},{"name":"F5","midi":77,"time":12.714843749999984,"velocity":0.7244094488188977,"duration":0.12760416666666607},{"name":"D#3","midi":51,"time":12.848958333333316,"velocity":0.7244094488188977,"duration":0.5286458333333321},{"name":"F#5","midi":78,"time":12.848958333333316,"velocity":0.7244094488188977,"duration":0.12760416666666607},{"name":"D#5","midi":75,"time":12.981770833333316,"velocity":0.7244094488188977,"duration":0.12760416666666607},{"name":"A#4","midi":70,"time":13.115885416666648,"velocity":0.7244094488188977,"duration":0.12760416666666607},{"name":"D#5","midi":75,"time":13.248697916666648,"velocity":0.7244094488188977,"duration":0.12760416666666607},{"name":"D#4","midi":63,"time":13.381510416666648,"velocity":0.7244094488188977,"duration":0.26171875},{"name":"F#5","midi":78,"time":13.381510416666648,"velocity":0.7244094488188977,"duration":0.12760416666666607},{"name":"D#5","midi":75,"time":13.514322916666648,"velocity":0.7244094488188977,"duration":0.12760416666666607},{"name":"F3","midi":53,"time":13.647135416666648,"velocity":0.7244094488188977,"duration":0.5286458333333321},{"name":"G#5","midi":80,"time":13.647135416666648,"velocity":0.7244094488188977,"duration":0.12760416666666607},{"name":"D#5","midi":75,"time":13.78124999999998,"velocity":0.7244094488188977,"duration":0.12760416666666607},{"name":"G#5","midi":80,"time":13.91406249999998,"velocity":0.7244094488188977,"duration":0.12760416666666607},{"name":"D#5","midi":75,"time":14.04687499999998,"velocity":0.7244094488188977,"duration":0.12760416666666607},{"name":"D#4","midi":63,"time":14.17968749999998,"velocity":0.7244094488188977,"duration":0.2617187499999982},{"name":"G#5","midi":80,"time":14.17968749999998,"velocity":0.7244094488188977,"duration":0.12760416666666607},{"name":"D#5","midi":75,"time":14.313802083333313,"velocity":0.7244094488188977,"duration":0.12760416666666607},{"name":"F#3","midi":54,"time":14.446614583333313,"velocity":0.7244094488188977,"duration":0.5286458333333304},{"name":"A#5","midi":82,"time":14.446614583333313,"velocity":0.7244094488188977,"duration":0.12760416666666607},{"name":"D#5","midi":75,"time":14.578124999999979,"velocity":0.7244094488188977,"duration":0.12760416666666607},{"name":"A#5","midi":82,"time":14.71223958333331,"velocity":0.7244094488188977,"duration":0.12760416666666607},{"name":"D#5","midi":75,"time":14.843749999999977,"velocity":0.7244094488188977,"duration":0.12760416666666607},{"name":"D#4","midi":63,"time":14.977864583333309,"velocity":0.7244094488188977,"duration":0.26171875},{"name":"A#5","midi":82,"time":14.977864583333309,"velocity":0.7244094488188977,"duration":0.12760416666666607},{"name":"D#5","midi":75,"time":15.110677083333309,"velocity":0.7244094488188977,"duration":0.12760416666666607},{"name":"G#3","midi":56,"time":15.243489583333309,"velocity":0.7244094488188977,"duration":0.5286458333333321},{"name":"B5","midi":83,"time":15.243489583333309,"velocity":0.7244094488188977,"duration":0.12760416666666607},{"name":"D#5","midi":75,"time":15.376302083333309,"velocity":0.7244094488188977,"duration":0.12760416666666607},{"name":"B5","midi":83,"time":15.510416666666641,"velocity":0.7244094488188977,"duration":0.12760416666666607},{"name":"D#5","midi":75,"time":15.643229166666641,"velocity":0.7244094488188977,"duration":0.12760416666666607},{"name":"D#4","midi":63,"time":15.776041666666641,"velocity":0.7244094488188977,"duration":0.2617187499999982},{"name":"B5","midi":83,"time":15.776041666666641,"velocity":0.7244094488188977,"duration":0.12760416666666607},{"name":"D#5","midi":75,"time":15.908854166666641,"velocity":0.7244094488188977,"duration":0.12760416666666607},{"name":"F#3","midi":54,"time":16.04166666666664,"velocity":0.7244094488188977,"duration":0.5286458333333357},{"name":"A#5","midi":82,"time":16.04166666666664,"velocity":0.7244094488188977,"duration":0.12760416666666785},{"name":"D#5","midi":75,"time":16.175781249999975,"velocity":0.7244094488188977,"duration":0.12760416666666785},{"name":"A#5","midi":82,"time":16.308593749999975,"velocity":0.7244094488188977,"duration":0.12760416666666785},{"name":"D#5","midi":75,"time":16.441406249999975,"velocity":0.7244094488188977,"duration":0.12760416666666785},{"name":"D#4","midi":63,"time":16.574218749999975,"velocity":0.7244094488188977,"duration":0.26171875000000355},{"name":"A#5","midi":82,"time":16.574218749999975,"velocity":0.7244094488188977,"duration":0.12760416666666785},{"name":"D#5","midi":75,"time":16.70833333333331,"velocity":0.7244094488188977,"duration":0.12760416666666785},{"name":"F3","midi":53,"time":16.84114583333331,"velocity":0.7244094488188977,"duration":0.5286458333333357},{"name":"G#5","midi":80,"time":16.84114583333331,"velocity":0.7244094488188977,"duration":0.12760416666666785},{"name":"F#5","midi":78,"time":16.97395833333331,"velocity":0.7244094488188977,"duration":0.12760416666666785},{"name":"F5","midi":77,"time":17.10677083333331,"velocity":0.7244094488188977,"duration":0.12760416666666785},{"name":"F#5","midi":78,"time":17.23958333333331,"velocity":0.7244094488188977,"duration":0.12760416666666785},{"name":"D4","midi":62,"time":17.373697916666647,"velocity":0.7244094488188977,"duration":0.26171875},{"name":"G#5","midi":80,"time":17.373697916666647,"velocity":0.7244094488188977,"duration":0.12760416666666785},{"name":"F5","midi":77,"time":17.506510416666647,"velocity":0.7244094488188977,"duration":0.12760416666666785},{"name":"D#3","midi":51,"time":17.64062499999998,"velocity":0.7244094488188977,"duration":0.5286458333333393},{"name":"F#5","midi":78,"time":17.64062499999998,"velocity":0.7244094488188977,"duration":0.12760416666666785},{"name":"F5","midi":77,"time":17.772135416666647,"velocity":0.7244094488188977,"duration":0.12760416666666785},{"name":"D#5","midi":75,"time":17.903645833333314,"velocity":0.7244094488188977,"duration":0.12760416666666785},{"name":"F5","midi":77,"time":18.03776041666665,"velocity":0.7244094488188977,"duration":0.12760416666666785},{"name":"D#4","midi":63,"time":18.17057291666665,"velocity":0.7244094488188977,"duration":0.12760416666666785},{"name":"F#5","midi":78,"time":18.17057291666665,"velocity":0.7244094488188977,"duration":0.12760416666666785},{"name":"D4","midi":62,"time":18.304687499999986,"velocity":0.7244094488188977,"duration":0.12760416666666785},{"name":"D#5","midi":75,"time":18.304687499999986,"velocity":0.7244094488188977,"duration":0.12760416666666785},{"name":"D#4","midi":63,"time":18.436197916666654,"velocity":0.7244094488188977,"duration":0.26171875000000355},{"name":"F5","midi":77,"time":18.436197916666654,"velocity":0.7244094488188977,"duration":0.12760416666666785},{"name":"F#5","midi":78,"time":18.57031249999999,"velocity":0.7244094488188977,"duration":0.12760416666666785},{"name":"C#4","midi":61,"time":18.70312499999999,"velocity":0.7244094488188977,"duration":0.12760416666666785},{"name":"F5","midi":77,"time":18.70312499999999,"velocity":0.7244094488188977,"duration":0.12760416666666785},{"name":"C4","midi":60,"time":18.837239583333325,"velocity":0.7244094488188977,"duration":0.12760416666666785},{"name":"D#5","midi":75,"time":18.837239583333325,"velocity":0.7244094488188977,"duration":0.12760416666666785},{"name":"A#3","midi":58,"time":18.968749999999993,"velocity":0.7244094488188977,"duration":0.12760416666666785},{"name":"C#5","midi":73,"time":18.968749999999993,"velocity":0.7244094488188977,"duration":0.12760416666666785},{"name":"C4","midi":60,"time":19.101562499999993,"velocity":0.7244094488188977,"duration":0.12760416666666785},{"name":"C5","midi":72,"time":19.101562499999993,"velocity":0.7244094488188977,"duration":0.12760416666666785},{"name":"C#4","midi":61,"time":19.23567708333333,"velocity":0.7244094488188977,"duration":0.12760416666666785},{"name":"A#4","midi":70,"time":19.23567708333333,"velocity":0.7244094488188977,"duration":0.7942708333333393},{"name":"A#3","midi":58,"time":19.36848958333333,"velocity":0.7244094488188977,"duration":0.12760416666666785},{"name":"F3","midi":53,"time":19.502604166666664,"velocity":0.7244094488188977,"duration":0.12760416666666785},{"name":"A#3","midi":58,"time":19.634114583333332,"velocity":0.7244094488188977,"duration":0.12760416666666785},{"name":"C#4","midi":61,"time":19.768229166666668,"velocity":0.7244094488188977,"duration":0.12760416666666785},{"name":"A#5","midi":82,"time":19.768229166666668,"velocity":0.7244094488188977,"duration":0.26171875},{"name":"A#3","midi":58,"time":19.901041666666668,"velocity":0.7244094488188977,"duration":0.12760416666666785},{"name":"D#4","midi":63,"time":20.03515625,"velocity":0.7244094488188977,"duration":0.12760416666666785},{"name":"C5","midi":72,"time":20.03515625,"velocity":0.7244094488188977,"duration":0.7942708333333393},{"name":"A#3","midi":58,"time":20.16796875,"velocity":0.7244094488188977,"duration":0.12760416666666785},{"name":"D#4","midi":63,"time":20.299479166666668,"velocity":0.7244094488188977,"duration":0.12760416666666785},{"name":"A#3","midi":58,"time":20.433593750000004,"velocity":0.7244094488188977,"duration":0.12760416666666785},{"name":"D#4","midi":63,"time":20.566406250000004,"velocity":0.7244094488188977,"duration":0.12760416666666785},{"name":"A#5","midi":82,"time":20.566406250000004,"velocity":0.7244094488188977,"duration":0.26171875000000355},{"name":"A#3","midi":58,"time":20.70052083333334,"velocity":0.7244094488188977,"duration":0.12760416666666785},{"name":"F4","midi":65,"time":20.83333333333334,"velocity":0.7244094488188977,"duration":0.12760416666666785},{"name":"C#5","midi":73,"time":20.83333333333334,"velocity":0.7244094488188977,"duration":0.7942708333333393},{"name":"A#3","midi":58,"time":20.964843750000007,"velocity":0.7244094488188977,"duration":0.12760416666666785},{"name":"F4","midi":65,"time":21.097656250000007,"velocity":0.7244094488188977,"duration":0.12760416666666785},{"name":"A#3","midi":58,"time":21.230468750000007,"velocity":0.7244094488188977,"duration":0.12760416666666785},{"name":"F4","midi":65,"time":21.364583333333343,"velocity":0.7244094488188977,"duration":0.12760416666666785},{"name":"A#5","midi":82,"time":21.364583333333343,"velocity":0.7244094488188977,"duration":0.26171875000000355},{"name":"A#3","midi":58,"time":21.49609375000001,"velocity":0.7244094488188977,"duration":0.12760416666666785},{"name":"F#4","midi":66,"time":21.630208333333346,"velocity":0.7244094488188977,"duration":0.12760416666666785},{"name":"D#5","midi":75,"time":21.630208333333346,"velocity":0.7244094488188977,"duration":0.7942708333333357},{"name":"A#3","midi":58,"time":21.763020833333346,"velocity":0.7244094488188977,"duration":0.12760416666666785},{"name":"F#4","midi":66,"time":21.897135416666682,"velocity":0.7244094488188977,"duration":0.12760416666666785},{"name":"A#3","midi":58,"time":22.029947916666682,"velocity":0.7244094488188977,"duration":0.12760416666666785},{"name":"F#4","midi":66,"time":22.162760416666682,"velocity":0.7244094488188977,"duration":0.12760416666666785},{"name":"A#5","midi":82,"time":22.162760416666682,"velocity":0.7244094488188977,"duration":0.26171875},{"name":"A#3","midi":58,"time":22.295572916666682,"velocity":0.7244094488188977,"duration":0.12760416666666785},{"name":"F4","midi":65,"time":22.428385416666682,"velocity":0.7244094488188977,"duration":0.12760416666666785},{"name":"C#5","midi":73,"time":22.428385416666682,"velocity":0.7244094488188977,"duration":0.7942708333333393},{"name":"A#3","midi":58,"time":22.562500000000018,"velocity":0.7244094488188977,"duration":0.12760416666666785},{"name":"F4","midi":65,"time":22.695312500000018,"velocity":0.7244094488188977,"duration":0.12760416666666785},{"name":"A#3","midi":58,"time":22.828125000000018,"velocity":0.7244094488188977,"duration":0.12760416666666785},{"name":"F4","midi":65,"time":22.960937500000018,"velocity":0.7244094488188977,"duration":0.12760416666666785},{"name":"A#5","midi":82,"time":22.960937500000018,"velocity":0.7244094488188977,"duration":0.26171875000000355},{"name":"A#3","midi":58,"time":23.095052083333353,"velocity":0.7244094488188977,"duration":0.12760416666666785},{"name":"D#4","midi":63,"time":23.227864583333353,"velocity":0.7244094488188977,"duration":0.12760416666666785},{"name":"C5","midi":72,"time":23.227864583333353,"velocity":0.7244094488188977,"duration":0.7942708333333357},{"name":"C#4","midi":61,"time":23.360677083333353,"velocity":0.7244094488188977,"duration":0.12760416666666785},{"name":"C4","midi":60,"time":23.493489583333353,"velocity":0.7244094488188977,"duration":0.12760416666666785},{"name":"C#4","midi":61,"time":23.626302083333353,"velocity":0.7244094488188977,"duration":0.12760416666666785},{"name":"D#4","midi":63,"time":23.76041666666669,"velocity":0.7244094488188977,"duration":0.12760416666666785},{"name":"A5","midi":81,"time":23.76041666666669,"velocity":0.7244094488188977,"duration":0.26171875},{"name":"C4","midi":60,"time":23.89322916666669,"velocity":0.7244094488188977,"duration":0.12760416666666785},{"name":"C#4","midi":61,"time":24.024739583333357,"velocity":0.7244094488188977,"duration":0.12760416666666785},{"name":"A#4","midi":70,"time":24.024739583333357,"velocity":0.7244094488188977,"duration":0.7942708333333357},{"name":"C4","midi":60,"time":24.157552083333357,"velocity":0.7244094488188977,"duration":0.12760416666666785},{"name":"A#3","midi":58,"time":24.291666666666693,"velocity":0.7244094488188977,"duration":0.12760416666666785},{"name":"C4","midi":60,"time":24.424479166666693,"velocity":0.7244094488188977,"duration":0.12760416666666785},{"name":"C#4","midi":61,"time":24.557291666666693,"velocity":0.7244094488188977,"duration":0.12760416666666785},{"name":"A#5","midi":82,"time":24.557291666666693,"velocity":0.7244094488188977,"duration":0.5286458333333357},{"name":"A#3","midi":58,"time":24.690104166666693,"velocity":0.7244094488188977,"duration":0.12760416666666785},{"name":"E4","midi":64,"time":24.822916666666693,"velocity":0.7244094488188977,"duration":0.12760416666666785},{"name":"D4","midi":62,"time":24.95703125000003,"velocity":0.7244094488188977,"duration":0.12760416666666785},{"name":"C4","midi":60,"time":25.08984375000003,"velocity":0.7244094488188977,"duration":0.12760416666666785},{"name":"G#5","midi":80,"time":25.08984375000003,"velocity":0.7244094488188977,"duration":0.26171875000000355},{"name":"D4","midi":62,"time":25.223958333333364,"velocity":0.7244094488188977,"duration":0.12760416666666785},{"name":"E4","midi":64,"time":25.355468750000032,"velocity":0.7244094488188977,"duration":0.12760416666666785},{"name":"G5","midi":79,"time":25.355468750000032,"velocity":0.7244094488188977,"duration":0.26171875000000355},{"name":"C4","midi":60,"time":25.489583333333368,"velocity":0.7244094488188977,"duration":0.12760416666666785},{"name":"F4","midi":65,"time":25.622395833333368,"velocity":0.7244094488188977,"duration":0.12760416666666785},{"name":"G#5","midi":80,"time":25.622395833333368,"velocity":0.7244094488188977,"duration":0.26171875},{"name":"E4","midi":64,"time":25.755208333333368,"velocity":0.7244094488188977,"duration":0.12760416666666785},{"name":"F4","midi":65,"time":25.888020833333368,"velocity":0.7244094488188977,"duration":0.12760416666666785},{"name":"G#4","midi":68,"time":25.888020833333368,"velocity":0.7244094488188977,"duration":0.26171875},{"name":"G4","midi":67,"time":26.020833333333368,"velocity":0.7244094488188977,"duration":0.12760416666666785},{"name":"F4","midi":65,"time":26.1549479166667,"velocity":0.7244094488188977,"duration":0.12760416666666785},{"name":"G#5","midi":80,"time":26.1549479166667,"velocity":0.7244094488188977,"duration":0.5286458333333393},{"name":"D#4","midi":63,"time":26.2877604166667,"velocity":0.7244094488188977,"duration":0.12760416666666785},{"name":"D4","midi":62,"time":26.421875000000036,"velocity":0.7244094488188977,"duration":0.12760416666666785},{"name":"C4","midi":60,"time":26.553385416666703,"velocity":0.7244094488188977,"duration":0.12760416666666785},{"name":"A#3","midi":58,"time":26.68750000000004,"velocity":0.7244094488188977,"duration":0.12760416666666785},{"name":"F#5","midi":78,"time":26.68750000000004,"velocity":0.7244094488188977,"duration":0.26171875},{"name":"C4","midi":60,"time":26.82031250000004,"velocity":0.7244094488188977,"duration":0.12760416666666785},{"name":"D4","midi":62,"time":26.95312500000004,"velocity":0.7244094488188977,"duration":0.12760416666666785},{"name":"F5","midi":77,"time":26.95312500000004,"velocity":0.7244094488188977,"duration":0.26171875},{"name":"A#3","midi":58,"time":27.08593750000004,"velocity":0.7244094488188977,"duration":0.12760416666666785},{"name":"D#4","midi":63,"time":27.217447916666707,"velocity":0.7244094488188977,"duration":0.26171875000000355},{"name":"F#5","midi":78,"time":27.217447916666707,"velocity":0.7244094488188977,"duration":0.12760416666666785},{"name":"F5","midi":77,"time":27.351562500000043,"velocity":0.7244094488188977,"duration":0.12760416666666785},{"name":"D#3","midi":51,"time":27.484375000000043,"velocity":0.7244094488188977,"duration":0.26171875000000355},{"name":"D#5","midi":75,"time":27.484375000000043,"velocity":0.7244094488188977,"duration":0.12760416666666785},{"name":"F5","midi":77,"time":27.61848958333338,"velocity":0.7244094488188977,"duration":0.12760416666666785},{"name":"D#4","midi":63,"time":27.75130208333338,"velocity":0.7244094488188977,"duration":0.5286458333333393},{"name":"F#5","midi":78,"time":27.75130208333338,"velocity":0.7244094488188977,"duration":0.12760416666666785},{"name":"D#5","midi":75,"time":27.882812500000046,"velocity":0.7244094488188977,"duration":0.12760416666666785},{"name":"A5","midi":81,"time":28.016927083333382,"velocity":0.7244094488188977,"duration":0.12760416666666785},{"name":"G5","midi":79,"time":28.149739583333382,"velocity":0.7244094488188977,"duration":0.12760416666666785},{"name":"C#4","midi":61,"time":28.283854166666718,"velocity":0.7244094488188977,"duration":0.26171875000000355},{"name":"F5","midi":77,"time":28.283854166666718,"velocity":0.7244094488188977,"duration":0.12760416666666785},{"name":"G5","midi":79,"time":28.415364583333385,"velocity":0.7244094488188977,"duration":0.12760416666666785},{"name":"C4","midi":60,"time":28.54947916666672,"velocity":0.7244094488188977,"duration":0.26171875},{"name":"A5","midi":81,"time":28.54947916666672,"velocity":0.7244094488188977,"duration":0.12760416666666785},{"name":"F5","midi":77,"time":28.68229166666672,"velocity":0.7244094488188977,"duration":0.12760416666666785},{"name":"C#4","midi":61,"time":28.816406250000053,"velocity":0.7244094488188977,"duration":0.26171875},{"name":"A#5","midi":82,"time":28.816406250000053,"velocity":0.7244094488188977,"duration":0.12760416666666785},{"name":"A5","midi":81,"time":28.949218750000053,"velocity":0.7244094488188977,"duration":0.12760416666666785},{"name":"C#3","midi":49,"time":29.08072916666672,"velocity":0.7244094488188977,"duration":0.26171875000000355},{"name":"A#5","midi":82,"time":29.08072916666672,"velocity":0.7244094488188977,"duration":0.12760416666666785},{"name":"C6","midi":84,"time":29.214843750000057,"velocity":0.7244094488188977,"duration":0.12760416666666785},{"name":"C#4","midi":61,"time":29.347656250000057,"velocity":0.7244094488188977,"duration":0.5286458333333357},{"name":"A#5","midi":82,"time":29.347656250000057,"velocity":0.7244094488188977,"duration":0.12760416666666785},{"name":"G#5","midi":80,"time":29.481770833333393,"velocity":0.7244094488188977,"duration":0.12760416666666785},{"name":"G5","midi":79,"time":29.614583333333393,"velocity":0.7244094488188977,"duration":0.12760416666666785},{"name":"F5","midi":77,"time":29.747395833333393,"velocity":0.7244094488188977,"duration":0.12760416666666785},{"name":"C4","midi":60,"time":29.880208333333393,"velocity":0.7244094488188977,"duration":0.26171875},{"name":"D#5","midi":75,"time":29.880208333333393,"velocity":0.7244094488188977,"duration":0.12760416666666785},{"name":"F5","midi":77,"time":30.013020833333393,"velocity":0.7244094488188977,"duration":0.12760416666666785},{"name":"A#3","midi":58,"time":30.145833333333393,"velocity":0.7244094488188977,"duration":0.26171875},{"name":"G5","midi":79,"time":30.145833333333393,"velocity":0.7244094488188977,"duration":0.12760416666666785},{"name":"D#5","midi":75,"time":30.278645833333393,"velocity":0.7244094488188977,"duration":0.12760416666666785},{"name":"C4","midi":60,"time":30.411458333333393,"velocity":0.7244094488188977,"duration":0.12760416666666785},{"name":"G#5","midi":80,"time":30.411458333333393,"velocity":0.7244094488188977,"duration":0.5247395833333357},{"name":"A#3","midi":58,"time":30.544270833333393,"velocity":0.7244094488188977,"duration":0.12760416666666785},{"name":"G#3","midi":56,"time":30.67838541666673,"velocity":0.7244094488188977,"duration":0.12760416666666785},{"name":"G#4","midi":68,"time":30.67838541666673,"velocity":0.7244094488188977,"duration":0.26171875},{"name":"A#3","midi":58,"time":30.81119791666673,"velocity":0.7244094488188977,"duration":0.12760416666666785},{"name":"C4","midi":60,"time":30.94401041666673,"velocity":0.7244094488188977,"duration":0.12760416666666785},{"name":"G#5","midi":80,"time":30.94401041666673,"velocity":0.7244094488188977,"duration":0.5286458333333357},{"name":"G#3","midi":56,"time":31.07682291666673,"velocity":0.7244094488188977,"duration":0.12760416666666785},{"name":"D4","midi":62,"time":31.20963541666673,"velocity":0.7244094488188977,"duration":0.12760416666666785},{"name":"C4","midi":60,"time":31.343750000000064,"velocity":0.7244094488188977,"duration":0.12760416666666785},{"name":"A#3","midi":58,"time":31.476562500000064,"velocity":0.7244094488188977,"duration":0.12760416666666785},{"name":"F#5","midi":78,"time":31.476562500000064,"velocity":0.7244094488188977,"duration":0.26171875},{"name":"C4","midi":60,"time":31.609375000000064,"velocity":0.7244094488188977,"duration":0.12760416666666785},{"name":"D4","midi":62,"time":31.742187500000064,"velocity":0.7244094488188977,"duration":0.12760416666666785},{"name":"F5","midi":77,"time":31.742187500000064,"velocity":0.7244094488188977,"duration":0.26171875},{"name":"A#3","midi":58,"time":31.8763020833334,"velocity":0.7244094488188977,"duration":0.1276041666666643},{"name":"D#4","midi":63,"time":32.0091145833334,"velocity":0.7244094488188977,"duration":0.1276041666666643},{"name":"F#5","midi":78,"time":32.0091145833334,"velocity":0.7244094488188977,"duration":0.5247395833333286},{"name":"D4","midi":62,"time":32.14322916666673,"velocity":0.7244094488188977,"duration":0.1276041666666643},{"name":"D#4","midi":63,"time":32.27473958333339,"velocity":0.7244094488188977,"duration":0.1276041666666643},{"name":"F#4","midi":66,"time":32.27473958333339,"velocity":0.7244094488188977,"duration":0.2617187500000071},{"name":"F4","midi":65,"time":32.40755208333339,"velocity":0.7244094488188977,"duration":0.1276041666666714},{"name":"D#4","midi":63,"time":32.541666666666735,"velocity":0.7244094488188977,"duration":0.1276041666666643},{"name":"F#5","midi":78,"time":32.541666666666735,"velocity":0.7244094488188977,"duration":0.5286458333333286},{"name":"C#4","midi":61,"time":32.674479166666735,"velocity":0.7244094488188977,"duration":0.1276041666666643},{"name":"C4","midi":60,"time":32.807291666666735,"velocity":0.7244094488188977,"duration":0.1276041666666643},{"name":"A#3","midi":58,"time":32.940104166666735,"velocity":0.7244094488188977,"duration":0.1276041666666643},{"name":"G#3","midi":56,"time":33.07291666666673,"velocity":0.7244094488188977,"duration":0.1276041666666643},{"name":"F5","midi":77,"time":33.07291666666673,"velocity":0.7244094488188977,"duration":0.26171875},{"name":"A#3","midi":58,"time":33.20572916666673,"velocity":0.7244094488188977,"duration":0.1276041666666643},{"name":"C4","midi":60,"time":33.339843750000064,"velocity":0.7244094488188977,"duration":0.1276041666666643},{"name":"D#5","midi":75,"time":33.339843750000064,"velocity":0.7244094488188977,"duration":0.2617187499999929},{"name":"G#3","midi":56,"time":33.47135416666673,"velocity":0.7244094488188977,"duration":0.1276041666666643},{"name":"C#4","midi":61,"time":33.60416666666672,"velocity":0.7244094488188977,"duration":0.2617187499999929},{"name":"F5","midi":77,"time":33.60416666666672,"velocity":0.7244094488188977,"duration":0.1276041666666643},{"name":"D#5","midi":75,"time":33.73828125000005,"velocity":0.7244094488188977,"duration":0.1276041666666643},{"name":"C#3","midi":49,"time":33.87109375000005,"velocity":0.7244094488188977,"duration":0.2617187499999929},{"name":"C#5","midi":73,"time":33.87109375000005,"velocity":0.7244094488188977,"duration":0.1276041666666643},{"name":"D#5","midi":75,"time":34.00520833333338,"velocity":0.7244094488188977,"duration":0.1276041666666643},{"name":"C#4","midi":61,"time":34.13671875000004,"velocity":0.7244094488188977,"duration":0.5286458333333286},{"name":"F5","midi":77,"time":34.13671875000004,"velocity":0.7244094488188977,"duration":0.1276041666666643},{"name":"C#5","midi":73,"time":34.27083333333337,"velocity":0.7244094488188977,"duration":0.1276041666666643},{"name":"G5","midi":79,"time":34.40364583333337,"velocity":0.7244094488188977,"duration":0.1276041666666643},{"name":"F5","midi":77,"time":34.53645833333337,"velocity":0.7244094488188977,"duration":0.1276041666666643},{"name":"B3","midi":59,"time":34.67057291666671,"velocity":0.7244094488188977,"duration":0.2617187499999929},{"name":"D#5","midi":75,"time":34.67057291666671,"velocity":0.7244094488188977,"duration":0.1276041666666643},{"name":"F5","midi":77,"time":34.80208333333337,"velocity":0.7244094488188977,"duration":0.1276041666666643},{"name":"A#3","midi":58,"time":34.9361979166667,"velocity":0.7244094488188977,"duration":0.26171875},{"name":"G5","midi":79,"time":34.9361979166667,"velocity":0.7244094488188977,"duration":0.1276041666666643},{"name":"D#5","midi":75,"time":35.0690104166667,"velocity":0.7244094488188977,"duration":0.1276041666666643},{"name":"B3","midi":59,"time":35.203125000000036,"velocity":0.7244094488188977,"duration":0.2617187499999929},{"name":"G#5","midi":80,"time":35.203125000000036,"velocity":0.7244094488188977,"duration":0.1276041666666643},{"name":"G5","midi":79,"time":35.3346354166667,"velocity":0.7244094488188977,"duration":0.1276041666666643},{"name":"B2","midi":47,"time":35.46875000000003,"velocity":0.7244094488188977,"duration":0.26171875},{"name":"G#5","midi":80,"time":35.46875000000003,"velocity":0.7244094488188977,"duration":0.1276041666666643},{"name":"A#5","midi":82,"time":35.60156250000003,"velocity":0.7244094488188977,"duration":0.1276041666666643},{"name":"B3","midi":59,"time":35.73437500000003,"velocity":0.7244094488188977,"duration":0.5286458333333215},{"name":"G#5","midi":80,"time":35.73437500000003,"velocity":0.7244094488188977,"duration":0.1276041666666643},{"name":"F#5","midi":78,"time":35.86848958333336,"velocity":0.7244094488188977,"duration":0.1276041666666643},{"name":"F5","midi":77,"time":36.00000000000002,"velocity":0.7244094488188977,"duration":0.1276041666666643},{"name":"D#5","midi":75,"time":36.13281250000002,"velocity":0.7244094488188977,"duration":0.1276041666666643},{"name":"A#3","midi":58,"time":36.265625000000014,"velocity":0.7244094488188977,"duration":0.2617187499999929},{"name":"C#5","midi":73,"time":36.265625000000014,"velocity":0.7244094488188977,"duration":0.1276041666666643},{"name":"D#5","midi":75,"time":36.39973958333334,"velocity":0.7244094488188977,"duration":0.1276041666666643},{"name":"G#3","midi":56,"time":36.53255208333334,"velocity":0.7244094488188977,"duration":0.26171875},{"name":"F5","midi":77,"time":36.53255208333334,"velocity":0.7244094488188977,"duration":0.1276041666666643},{"name":"C#5","midi":73,"time":36.66536458333334,"velocity":0.7244094488188977,"duration":0.1276041666666643},{"name":"A#3","midi":58,"time":36.79817708333334,"velocity":0.7244094488188977,"duration":0.1276041666666643},{"name":"F#4","midi":66,"time":36.79817708333334,"velocity":0.7244094488188977,"duration":0.5286458333333286},{"name":"F#3","midi":54,"time":36.93098958333334,"velocity":0.7244094488188977,"duration":0.1276041666666643},{"name":"C#3","midi":49,"time":37.06510416666667,"velocity":0.7244094488188977,"duration":0.1276041666666643},{"name":"F#3","midi":54,"time":37.19791666666667,"velocity":0.7244094488188977,"duration":0.1276041666666643},{"name":"A#3","midi":58,"time":37.33072916666667,"velocity":0.7244094488188977,"duration":0.1276041666666643},{"name":"F#5","midi":78,"time":37.33072916666667,"velocity":0.7244094488188977,"duration":0.7942708333333215},{"name":"F#3","midi":54,"time":37.46354166666667,"velocity":0.7244094488188977,"duration":0.1276041666666643},{"name":"B3","midi":59,"time":37.59765625,"velocity":0.7244094488188977,"duration":0.1276041666666643},{"name":"G#4","midi":68,"time":37.59765625,"velocity":0.7244094488188977,"duration":0.5286458333333286},{"name":"F#3","midi":54,"time":37.73046875,"velocity":0.7244094488188977,"duration":0.1276041666666643},{"name":"B3","midi":59,"time":37.861979166666664,"velocity":0.7244094488188977,"duration":0.1276041666666643},{"name":"F#3","midi":54,"time":37.99609374999999,"velocity":0.7244094488188977,"duration":0.1276041666666643},{"name":"B3","midi":59,"time":38.12890624999999,"velocity":0.7244094488188977,"duration":0.1276041666666643},{"name":"F#5","midi":78,"time":38.12890624999999,"velocity":0.7244094488188977,"duration":0.7942708333333215},{"name":"F#3","midi":54,"time":38.26302083333332,"velocity":0.7244094488188977,"duration":0.1276041666666643},{"name":"C#4","midi":61,"time":38.39583333333332,"velocity":0.7244094488188977,"duration":0.1276041666666643},{"name":"A#4","midi":70,"time":38.39583333333332,"velocity":0.7244094488188977,"duration":0.5286458333333286},{"name":"F#3","midi":54,"time":38.52864583333332,"velocity":0.7244094488188977,"duration":0.1276041666666643},{"name":"C#4","midi":61,"time":38.66145833333332,"velocity":0.7244094488188977,"duration":0.1276041666666643},{"name":"F#3","midi":54,"time":38.79557291666665,"velocity":0.7244094488188977,"duration":0.1276041666666643},{"name":"C#4","midi":61,"time":38.92838541666665,"velocity":0.7244094488188977,"duration":0.1276041666666643},{"name":"F#5","midi":78,"time":38.92838541666665,"velocity":0.7244094488188977,"duration":0.7942708333333286},{"name":"F#3","midi":54,"time":39.06119791666665,"velocity":0.7244094488188977,"duration":0.1276041666666643},{"name":"D#4","midi":63,"time":39.192708333333314,"velocity":0.7244094488188977,"duration":0.1276041666666643},{"name":"B4","midi":71,"time":39.192708333333314,"velocity":0.7244094488188977,"duration":0.5286458333333286},{"name":"F#3","midi":54,"time":39.325520833333314,"velocity":0.7244094488188977,"duration":0.1276041666666643},{"name":"D#4","midi":63,"time":39.45963541666664,"velocity":0.7244094488188977,"duration":0.1276041666666643},{"name":"F#3","midi":54,"time":39.59244791666664,"velocity":0.7244094488188977,"duration":0.1276041666666643},{"name":"D#4","midi":63,"time":39.72526041666664,"velocity":0.7244094488188977,"duration":0.1276041666666643},{"name":"F#5","midi":78,"time":39.72526041666664,"velocity":0.7244094488188977,"duration":0.7942708333333286},{"name":"F#3","midi":54,"time":39.85807291666664,"velocity":0.7244094488188977,"duration":0.1276041666666643},{"name":"C#4","midi":61,"time":39.99218749999997,"velocity":0.7244094488188977,"duration":0.1276041666666643},{"name":"A#4","midi":70,"time":39.99218749999997,"velocity":0.7244094488188977,"duration":0.5286458333333357},{"name":"F#3","midi":54,"time":40.12499999999997,"velocity":0.7244094488188977,"duration":0.1276041666666643},{"name":"C#4","midi":61,"time":40.25781249999997,"velocity":0.7244094488188977,"duration":0.1276041666666643},{"name":"F#3","midi":54,"time":40.39062499999997,"velocity":0.7244094488188977,"duration":0.1276041666666643},{"name":"C#4","midi":61,"time":40.52343749999997,"velocity":0.7244094488188977,"duration":0.1276041666666643},{"name":"F#5","midi":78,"time":40.52343749999997,"velocity":0.7244094488188977,"duration":0.7942708333333215},{"name":"F#3","midi":54,"time":40.6575520833333,"velocity":0.7244094488188977,"duration":0.1276041666666643},{"name":"B3","midi":59,"time":40.7903645833333,"velocity":0.7244094488188977,"duration":0.1276041666666643},{"name":"G#4","midi":68,"time":40.7903645833333,"velocity":0.7244094488188977,"duration":0.5286458333333286},{"name":"A#3","midi":58,"time":40.92447916666663,"velocity":0.7244094488188977,"duration":0.1276041666666643},{"name":"G#3","midi":56,"time":41.05598958333329,"velocity":0.7244094488188977,"duration":0.1276041666666643},{"name":"A#3","midi":58,"time":41.18880208333329,"velocity":0.7244094488188977,"duration":0.1276041666666643},{"name":"B3","midi":59,"time":41.32291666666663,"velocity":0.7244094488188977,"duration":0.1276041666666643},{"name":"F5","midi":77,"time":41.32291666666663,"velocity":0.7244094488188977,"duration":0.26171875},{"name":"G#3","midi":56,"time":41.45572916666663,"velocity":0.7244094488188977,"duration":0.1276041666666643},{"name":"A#3","midi":58,"time":41.589843749999964,"velocity":0.7244094488188977,"duration":0.1276041666666643},{"name":"F#4","midi":66,"time":41.589843749999964,"velocity":0.7244094488188977,"duration":0.5286458333333215},{"name":"G#3","midi":56,"time":41.72135416666663,"velocity":0.7244094488188977,"duration":0.1276041666666643},{"name":"F#3","midi":54,"time":41.85546874999996,"velocity":0.7244094488188977,"duration":0.1276041666666643},{"name":"G#3","midi":56,"time":41.98828124999996,"velocity":0.7244094488188977,"duration":0.1276041666666643},{"name":"A#3","midi":58,"time":42.122395833333286,"velocity":0.7244094488188977,"duration":0.1276041666666643},{"name":"F#5","midi":78,"time":42.122395833333286,"velocity":0.7244094488188977,"duration":0.5286458333333215},{"name":"F#3","midi":54,"time":42.252604166666615,"velocity":0.7244094488188977,"duration":0.1276041666666643},{"name":"G#3","midi":56,"time":42.385416666666615,"velocity":0.7244094488188977,"duration":0.1276041666666643},{"name":"A#3","midi":58,"time":42.51953124999994,"velocity":0.7244094488188977,"duration":0.1276041666666643},{"name":"G#3","midi":56,"time":42.65234374999994,"velocity":0.7244094488188977,"duration":0.1276041666666643},{"name":"F5","midi":77,"time":42.65234374999994,"velocity":0.7244094488188977,"duration":0.1276041666666643},{"name":"F#3","midi":54,"time":42.78645833333327,"velocity":0.7244094488188977,"duration":0.1276041666666643},{"name":"D#5","midi":75,"time":42.78645833333327,"velocity":0.7244094488188977,"duration":0.1276041666666643},{"name":"F3","midi":53,"time":42.917968749999936,"velocity":0.7244094488188977,"duration":0.1276041666666643},{"name":"C#5","midi":73,"time":42.917968749999936,"velocity":0.7244094488188977,"duration":0.1276041666666643},{"name":"D#3","midi":51,"time":43.052083333333265,"velocity":0.7244094488188977,"duration":0.1276041666666643},{"name":"D#5","midi":75,"time":43.052083333333265,"velocity":0.7244094488188977,"duration":0.1276041666666643},{"name":"C#3","midi":49,"time":43.184895833333265,"velocity":0.7244094488188977,"duration":0.6367187499999858},{"name":"F5","midi":77,"time":43.184895833333265,"velocity":0.7244094488188977,"duration":0.1276041666666643},{"name":"C#5","midi":73,"time":43.31901041666659,"velocity":0.7244094488188977,"duration":0.1276041666666643},{"name":"G#4","midi":68,"time":43.45182291666659,"velocity":0.7244094488188977,"duration":0.1276041666666643},{"name":"C#5","midi":73,"time":43.58333333333326,"velocity":0.7244094488188977,"duration":0.1276041666666643},{"name":"C#4","midi":61,"time":43.717447916666586,"velocity":0.7244094488188977,"duration":0.26171875},{"name":"F5","midi":77,"time":43.717447916666586,"velocity":0.7244094488188977,"duration":0.1276041666666643},{"name":"C#5","midi":73,"time":43.850260416666586,"velocity":0.7244094488188977,"duration":0.1276041666666643},{"name":"D#3","midi":51,"time":43.98437499999992,"velocity":0.7244094488188977,"duration":0.63671875},{"name":"F#5","midi":78,"time":43.98437499999992,"velocity":0.7244094488188977,"duration":0.1276041666666643},{"name":"C#5","midi":73,"time":44.11718749999992,"velocity":0.7244094488188977,"duration":0.1276041666666643},{"name":"F#5","midi":78,"time":44.24999999999992,"velocity":0.7244094488188977,"duration":0.1276041666666643},{"name":"C#5","midi":73,"time":44.38281249999992,"velocity":0.7244094488188977,"duration":0.1276041666666643},{"name":"C#4","midi":61,"time":44.51562499999992,"velocity":0.7244094488188977,"duration":0.2617187499999929},{"name":"F#5","midi":78,"time":44.51562499999992,"velocity":0.7244094488188977,"duration":0.1276041666666643},{"name":"C#5","midi":73,"time":44.64973958333325,"velocity":0.7244094488188977,"duration":0.1276041666666643},{"name":"F3","midi":53,"time":44.781249999999915,"velocity":0.7244094488188977,"duration":0.6367187499999858},{"name":"G#5","midi":80,"time":44.781249999999915,"velocity":0.7244094488188977,"duration":0.1276041666666643},{"name":"C#5","midi":73,"time":44.91536458333324,"velocity":0.7244094488188977,"duration":0.1276041666666643},{"name":"G#5","midi":80,"time":45.04817708333324,"velocity":0.7244094488188977,"duration":0.1276041666666643},{"name":"C#5","midi":73,"time":45.18229166666657,"velocity":0.7244094488188977,"duration":0.1276041666666643},{"name":"C#4","midi":61,"time":45.313802083333236,"velocity":0.7244094488188977,"duration":0.26171875},{"name":"G#5","midi":80,"time":45.313802083333236,"velocity":0.7244094488188977,"duration":0.1276041666666643},{"name":"C#5","midi":73,"time":45.446614583333236,"velocity":0.7244094488188977,"duration":0.1276041666666643},{"name":"F#3","midi":54,"time":45.579427083333236,"velocity":0.7244094488188977,"duration":0.6367187499999929},{"name":"A#5","midi":82,"time":45.579427083333236,"velocity":0.7244094488188977,"duration":0.1276041666666643},{"name":"C#5","midi":73,"time":45.712239583333236,"velocity":0.7244094488188977,"duration":0.1276041666666643},{"name":"A#5","midi":82,"time":45.846354166666565,"velocity":0.7244094488188977,"duration":0.1276041666666643},{"name":"C#5","midi":73,"time":45.979166666666565,"velocity":0.7244094488188977,"duration":0.1276041666666643},{"name":"C#4","midi":61,"time":46.111979166666565,"velocity":0.7244094488188977,"duration":0.26171875},{"name":"A#5","midi":82,"time":46.111979166666565,"velocity":0.7244094488188977,"duration":0.1276041666666643},{"name":"C#5","midi":73,"time":46.244791666666565,"velocity":0.7244094488188977,"duration":0.1276041666666643},{"name":"F3","midi":53,"time":46.3789062499999,"velocity":0.7244094488188977,"duration":0.63671875},{"name":"G#5","midi":80,"time":46.3789062499999,"velocity":0.7244094488188977,"duration":0.1276041666666643},{"name":"C#5","midi":73,"time":46.5117187499999,"velocity":0.7244094488188977,"duration":0.1276041666666643},{"name":"G#5","midi":80,"time":46.6445312499999,"velocity":0.7244094488188977,"duration":0.1276041666666643},{"name":"C#5","midi":73,"time":46.7773437499999,"velocity":0.7244094488188977,"duration":0.1276041666666643},{"name":"C#4","midi":61,"time":46.9101562499999,"velocity":0.7244094488188977,"duration":0.2617187499999929},{"name":"G#5","midi":80,"time":46.9101562499999,"velocity":0.7244094488188977,"duration":0.1276041666666643},{"name":"C#5","midi":73,"time":47.04427083333323,"velocity":0.7244094488188977,"duration":0.1276041666666643},{"name":"D#3","midi":51,"time":47.17708333333323,"velocity":0.7244094488188977,"duration":0.5833333333333286},{"name":"F#5","midi":78,"time":47.17708333333323,"velocity":0.7244094488188977,"duration":0.1276041666666643},{"name":"F5","midi":77,"time":47.30989583333323,"velocity":0.7244094488188977,"duration":0.1276041666666643},{"name":"D#5","midi":75,"time":47.44270833333323,"velocity":0.7244094488188977,"duration":0.1276041666666643},{"name":"F5","midi":77,"time":47.57682291666656,"velocity":0.7244094488188977,"duration":0.1276041666666643},{"name":"C4","midi":60,"time":47.70963541666656,"velocity":0.7244094488188977,"duration":0.26171875},{"name":"F#5","midi":78,"time":47.70963541666656,"velocity":0.7244094488188977,"duration":0.1276041666666643},{"name":"D#5","midi":75,"time":47.84244791666656,"velocity":0.7244094488188977,"duration":0.1276041666666643},{"name":"C#3","midi":49,"time":47.97526041666656,"velocity":0.7244094488188977,"duration":0.5286458333333215},{"name":"F5","midi":77,"time":47.97526041666656,"velocity":0.7244094488188977,"duration":0.1276041666666643},{"name":"D#5","midi":75,"time":48.10807291666656,"velocity":0.7244094488188977,"duration":0.1276041666666643},{"name":"C#5","midi":73,"time":48.242187499999886,"velocity":0.7244094488188977,"duration":0.1276041666666643},{"name":"D#5","midi":75,"time":48.37369791666655,"velocity":0.7244094488188977,"duration":0.1276041666666643},{"name":"C#4","midi":61,"time":48.50781249999988,"velocity":0.7244094488188977,"duration":0.2617187499999929},{"name":"F5","midi":77,"time":48.50781249999988,"velocity":0.7244094488188977,"duration":0.1276041666666643},{"name":"C#5","midi":73,"time":48.63932291666654,"velocity":0.7244094488188977,"duration":0.1276041666666643},{"name":"F#3","midi":54,"time":48.77343749999987,"velocity":0.7244094488188977,"duration":0.26171875},{"name":"D#5","midi":75,"time":48.77343749999987,"velocity":0.7244094488188977,"duration":0.1276041666666643},{"name":"F5","midi":77,"time":48.90624999999987,"velocity":0.7244094488188977,"duration":0.1276041666666643},{"name":"F3","midi":53,"time":49.03906249999987,"velocity":0.7244094488188977,"duration":0.26171875},{"name":"D#5","midi":75,"time":49.03906249999987,"velocity":0.7244094488188977,"duration":0.1276041666666643},{"name":"C#5","midi":73,"time":49.17187499999987,"velocity":0.7244094488188977,"duration":0.1276041666666643},{"name":"D#3","midi":51,"time":49.30468749999987,"velocity":0.7244094488188977,"duration":0.2617187499999929},{"name":"C5","midi":72,"time":49.30468749999987,"velocity":0.7244094488188977,"duration":0.1276041666666643},{"name":"A#4","midi":70,"time":49.4388020833332,"velocity":0.7244094488188977,"duration":0.1276041666666643},{"name":"G#3","midi":56,"time":49.5716145833332,"velocity":0.7244094488188977,"duration":0.7942708333333357},{"name":"C5","midi":72,"time":49.5716145833332,"velocity":0.7244094488188977,"duration":0.2604166666666714},{"name":"G#4","midi":68,"time":49.705729166666536,"velocity":0.7244094488188977,"duration":0.1276041666666714},{"name":"F#4","midi":66,"time":49.83723958333321,"velocity":0.7244094488188977,"duration":0.1276041666666643},{"name":"G#4","midi":68,"time":49.971354166666536,"velocity":0.7244094488188977,"duration":0.1276041666666643},{"name":"D#4","midi":63,"time":50.104166666666536,"velocity":0.7244094488188977,"duration":0.1276041666666643},{"name":"G#4","midi":68,"time":50.236979166666536,"velocity":0.7244094488188977,"duration":0.1276041666666643},{"name":"G#3","midi":56,"time":50.37109374999987,"velocity":0.7244094488188977,"duration":0.7942708333333286},{"name":"C5","midi":72,"time":50.37109374999987,"velocity":0.7244094488188977,"duration":0.2604166666666643},{"name":"G#4","midi":68,"time":50.502604166666536,"velocity":0.7244094488188977,"duration":0.1276041666666643},{"name":"F#4","midi":66,"time":50.63671874999987,"velocity":0.7244094488188977,"duration":0.1276041666666643},{"name":"G#4","midi":68,"time":50.76953124999987,"velocity":0.7244094488188977,"duration":0.1276041666666643},{"name":"D#4","midi":63,"time":50.9036458333332,"velocity":0.7244094488188977,"duration":0.1276041666666643},{"name":"G#4","midi":68,"time":51.0364583333332,"velocity":0.7244094488188977,"duration":0.1276041666666643},{"name":"G#3","midi":56,"time":51.167968749999865,"velocity":0.7244094488188977,"duration":0.7942708333333286},{"name":"C#5","midi":73,"time":51.167968749999865,"velocity":0.7244094488188977,"duration":0.2604166666666714},{"name":"G#4","midi":68,"time":51.3020833333332,"velocity":0.7244094488188977,"duration":0.1276041666666714},{"name":"F4","midi":65,"time":51.43359374999987,"velocity":0.7244094488188977,"duration":0.1276041666666643},{"name":"G#4","midi":68,"time":51.5677083333332,"velocity":0.7244094488188977,"duration":0.1276041666666643},{"name":"C#4","midi":61,"time":51.699218749999865,"velocity":0.7244094488188977,"duration":0.1276041666666643},{"name":"G#4","midi":68,"time":51.833333333333194,"velocity":0.7244094488188977,"duration":0.1276041666666643},{"name":"G#3","midi":56,"time":51.966145833333194,"velocity":0.7244094488188977,"duration":0.7942708333333357},{"name":"C#5","midi":73,"time":51.966145833333194,"velocity":0.7244094488188977,"duration":0.2604166666666714},{"name":"G#4","midi":68,"time":52.10026041666653,"velocity":0.7244094488188977,"duration":0.1276041666666714},{"name":"F4","midi":65,"time":52.233072916666536,"velocity":0.7244094488188977,"duration":0.1276041666666643},{"name":"G#4","midi":68,"time":52.3645833333332,"velocity":0.7244094488188977,"duration":0.1276041666666643},{"name":"C#4","midi":61,"time":52.49869791666653,"velocity":0.7244094488188977,"duration":0.1276041666666643},{"name":"G#4","midi":68,"time":52.63151041666653,"velocity":0.7244094488188977,"duration":0.1276041666666643},{"name":"G#3","midi":56,"time":52.765624999999865,"velocity":0.7244094488188977,"duration":0.7942708333333286},{"name":"F#5","midi":78,"time":52.765624999999865,"velocity":0.7244094488188977,"duration":0.2604166666666643},{"name":"G#4","midi":68,"time":52.898437499999865,"velocity":0.7244094488188977,"duration":0.1276041666666643},{"name":"D#4","midi":63,"time":53.031249999999865,"velocity":0.7244094488188977,"duration":0.1276041666666643},{"name":"G#4","midi":68,"time":53.164062499999865,"velocity":0.7244094488188977,"duration":0.1276041666666643},{"name":"C4","midi":60,"time":53.298177083333194,"velocity":0.7244094488188977,"duration":0.1276041666666643},{"name":"G#4","midi":68,"time":53.430989583333194,"velocity":0.7244094488188977,"duration":0.1276041666666643},{"name":"G#3","midi":56,"time":53.563802083333194,"velocity":0.7244094488188977,"duration":0.7942708333333286},{"name":"F#5","midi":78,"time":53.563802083333194,"velocity":0.7244094488188977,"duration":0.2604166666666643},{"name":"G#4","midi":68,"time":53.696614583333194,"velocity":0.7244094488188977,"duration":0.1276041666666643},{"name":"D#4","midi":63,"time":53.829427083333194,"velocity":0.7244094488188977,"duration":0.1276041666666643},{"name":"G#4","midi":68,"time":53.96354166666652,"velocity":0.7244094488188977,"duration":0.1276041666666643},{"name":"C4","midi":60,"time":54.09635416666652,"velocity":0.7244094488188977,"duration":0.1276041666666643},{"name":"G#4","midi":68,"time":54.22916666666652,"velocity":0.7244094488188977,"duration":0.1276041666666643},{"name":"G#3","midi":56,"time":54.36197916666652,"velocity":0.7244094488188977,"duration":0.7942708333333286},{"name":"F5","midi":77,"time":54.36197916666652,"velocity":0.7244094488188977,"duration":0.2604166666666643},{"name":"G#4","midi":68,"time":54.49348958333319,"velocity":0.7244094488188977,"duration":0.1276041666666643},{"name":"F4","midi":65,"time":54.62760416666652,"velocity":0.7244094488188977,"duration":0.1276041666666643},{"name":"G#4","midi":68,"time":54.76041666666652,"velocity":0.7244094488188977,"duration":0.1276041666666643},{"name":"C#4","midi":61,"time":54.89322916666652,"velocity":0.7244094488188977,"duration":0.1276041666666643},{"name":"G#4","midi":68,"time":55.02604166666652,"velocity":0.7244094488188977,"duration":0.1276041666666643},{"name":"G#3","midi":56,"time":55.16015624999985,"velocity":0.7244094488188977,"duration":0.7942708333333215},{"name":"F5","midi":77,"time":55.16015624999985,"velocity":0.7244094488188977,"duration":0.2604166666666643},{"name":"G#4","midi":68,"time":55.29296874999985,"velocity":0.7244094488188977,"duration":0.1276041666666643},{"name":"F4","midi":65,"time":55.42708333333318,"velocity":0.7244094488188977,"duration":0.1276041666666643},{"name":"G#4","midi":68,"time":55.558593749999844,"velocity":0.7244094488188977,"duration":0.1276041666666643},{"name":"C#4","midi":61,"time":55.691406249999844,"velocity":0.7244094488188977,"duration":0.1276041666666643},{"name":"G#4","midi":68,"time":55.82552083333317,"velocity":0.7244094488188977,"duration":0.1276041666666643},{"name":"G#3","midi":56,"time":55.95833333333317,"velocity":0.7244094488188977,"duration":0.7942708333333215},{"name":"G5","midi":79,"time":55.95833333333317,"velocity":0.7244094488188977,"duration":0.2604166666666643},{"name":"A#4","midi":70,"time":56.09114583333317,"velocity":0.7244094488188977,"duration":0.1276041666666643},{"name":"E4","midi":64,"time":56.22395833333317,"velocity":0.7244094488188977,"duration":0.1276041666666643},{"name":"A#4","midi":70,"time":56.3580729166665,"velocity":0.7244094488188977,"duration":0.1276041666666643},{"name":"C#4","midi":61,"time":56.4908854166665,"velocity":0.7244094488188977,"duration":0.1276041666666643},{"name":"A#4","midi":70,"time":56.62499999999983,"velocity":0.7244094488188977,"duration":0.1276041666666643},{"name":"G#3","midi":56,"time":56.756510416666494,"velocity":0.7244094488188977,"duration":0.7942708333333215},{"name":"G5","midi":79,"time":56.756510416666494,"velocity":0.7244094488188977,"duration":0.2604166666666643},{"name":"A#4","midi":70,"time":56.889322916666494,"velocity":0.7244094488188977,"duration":0.1276041666666643},{"name":"E4","midi":64,"time":57.02343749999982,"velocity":0.7244094488188977,"duration":0.1276041666666643},{"name":"A#4","midi":70,"time":57.15624999999982,"velocity":0.7244094488188977,"duration":0.1276041666666643},{"name":"C#4","midi":61,"time":57.29036458333315,"velocity":0.7244094488188977,"duration":0.1276041666666643},{"name":"A#4","midi":70,"time":57.421874999999815,"velocity":0.7244094488188977,"duration":0.1276041666666643},{"name":"G#3","midi":56,"time":57.554687499999815,"velocity":0.7244094488188977,"duration":0.7942708333333357},{"name":"G#5","midi":80,"time":57.554687499999815,"velocity":0.7244094488188977,"duration":0.2747395833333286},{"name":"C5","midi":72,"time":57.687499999999815,"velocity":0.7244094488188977,"duration":0.1393229166666643},{"name":"D#4","midi":63,"time":57.820312499999815,"velocity":0.7244094488188977,"duration":0.1393229166666643},{"name":"C5","midi":72,"time":57.954427083333144,"velocity":0.7244094488188977,"duration":0.1393229166666714},{"name":"C4","midi":60,"time":58.085937499999815,"velocity":0.7244094488188977,"duration":0.1393229166666714},{"name":"C5","midi":72,"time":58.22005208333315,"velocity":0.7244094488188977,"duration":0.1393229166666643},{"name":"F#3","midi":54,"time":58.35286458333315,"velocity":0.7244094488188977,"duration":0.6315104166666643},{"name":"G#5","midi":80,"time":58.35286458333315,"velocity":0.7244094488188977,"duration":0.1692708333333286},{"name":"C5","midi":72,"time":58.48697916666648,"velocity":0.7244094488188977,"duration":0.17578125},{"name":"D#4","midi":63,"time":58.618489583333144,"velocity":0.7244094488188977,"duration":0.1809895833333357},{"name":"C5","midi":72,"time":58.75260416666648,"velocity":0.7244094488188977,"duration":0.1875},{"name":"C4","midi":60,"time":58.88541666666648,"velocity":0.7244094488188977,"duration":0.2291666666666643},{"name":"C5","midi":72,"time":59.01822916666648,"velocity":0.7244094488188977,"duration":0.1992187499999929},{"name":"F3","midi":53,"time":59.15234374999981,"velocity":0.7244094488188977,"duration":0.26171875},{"name":"G#5","midi":80,"time":59.15234374999981,"velocity":0.7244094488188977,"duration":0.265625},{"name":"C#5","midi":73,"time":59.28385416666647,"velocity":0.7244094488188977,"duration":0.26171875},{"name":"F4","midi":65,"time":59.41796874999981,"velocity":0.7244094488188977,"duration":0.26171875},{"name":"G#4","midi":68,"time":59.55078124999981,"velocity":0.7244094488188977,"duration":0.1640625},{"name":"C#4","midi":61,"time":59.684895833333144,"velocity":0.7244094488188977,"duration":0.26171875},{"name":"C#5","midi":73,"time":59.817708333333144,"velocity":0.7244094488188977,"duration":0.1640625},{"name":"G#3","midi":56,"time":59.950520833333144,"velocity":0.7244094488188977,"duration":0.2109375},{"name":"F5","midi":77,"time":60.083333333333144,"velocity":0.7244094488188977,"duration":0.1640625},{"name":"F3","midi":53,"time":60.216145833333144,"velocity":0.7244094488188977,"duration":0.2109375},{"name":"G#5","midi":80,"time":60.35026041666648,"velocity":0.7244094488188977,"duration":0.1640625},{"name":"D#3","midi":51,"time":60.481770833333144,"velocity":0.7244094488188977,"duration":0.2109375},{"name":"A#5","midi":82,"time":60.614583333333144,"velocity":0.7244094488188977,"duration":0.1276041666666643},{"name":"D3","midi":50,"time":60.747395833333144,"velocity":0.7244094488188977,"duration":0.2617187499999929},{"name":"B5","midi":83,"time":60.747395833333144,"velocity":0.7244094488188977,"duration":0.1276041666666643},{"name":"A#5","midi":82,"time":60.88151041666647,"velocity":0.7244094488188977,"duration":0.1276041666666643},{"name":"F3","midi":53,"time":61.01432291666647,"velocity":0.7244094488188977,"duration":0.2617187499999929},{"name":"G#5","midi":80,"time":61.01432291666647,"velocity":0.7244094488188977,"duration":0.1276041666666643},{"name":"F#5","midi":78,"time":61.14583333333314,"velocity":0.7244094488188977,"duration":0.1276041666666643},{"name":"A#3","midi":58,"time":61.279947916666465,"velocity":0.7244094488188977,"duration":0.26171875},{"name":"F5","midi":77,"time":61.279947916666465,"velocity":0.7244094488188977,"duration":0.1276041666666643},{"name":"D#5","midi":75,"time":61.412760416666465,"velocity":0.7244094488188977,"duration":0.1276041666666643},{"name":"D4","midi":62,"time":61.5468749999998,"velocity":0.7244094488188977,"duration":0.1940104166666643},{"name":"F5","midi":77,"time":61.5468749999998,"velocity":0.7244094488188977,"duration":0.1276041666666643},{"name":"F#5","midi":78,"time":61.6796874999998,"velocity":0.7244094488188977,"duration":0.1276041666666643},{"name":"F4","midi":65,"time":61.8124999999998,"velocity":0.7244094488188977,"duration":0.1940104166666643},{"name":"G#5","midi":80,"time":61.8124999999998,"velocity":0.7244094488188977,"duration":0.1276041666666643},{"name":"B5","midi":83,"time":61.9453124999998,"velocity":0.7244094488188977,"duration":0.1276041666666643},{"name":"A#4","midi":70,"time":62.07942708333313,"velocity":0.7244094488188977,"duration":0.1940104166666643},{"name":"A#5","midi":82,"time":62.07942708333313,"velocity":0.7244094488188977,"duration":0.1276041666666643},{"name":"G#5","midi":80,"time":62.21223958333313,"velocity":0.7244094488188977,"duration":0.1276041666666643},{"name":"F#4","midi":66,"time":62.34505208333313,"velocity":0.7244094488188977,"duration":0.26171875},{"name":"A#5","midi":82,"time":62.34505208333313,"velocity":0.7244094488188977,"duration":0.1276041666666643},{"name":"D#5","midi":75,"time":62.47786458333313,"velocity":0.7244094488188977,"duration":0.26171875},{"name":"D#4","midi":63,"time":62.61067708333313,"velocity":0.7244094488188977,"duration":0.26171875},{"name":"F#4","midi":66,"time":62.744791666666465,"velocity":0.7244094488188977,"duration":0.1640625},{"name":"A#3","midi":58,"time":62.877604166666465,"velocity":0.7244094488188977,"duration":0.26171875},{"name":"A#4","midi":70,"time":63.010416666666465,"velocity":0.7244094488188977,"duration":0.1640625},{"name":"F#3","midi":54,"time":63.143229166666465,"velocity":0.7244094488188977,"duration":0.2109375},{"name":"D#5","midi":75,"time":63.2773437499998,"velocity":0.7244094488188977,"duration":0.1640625},{"name":"D#3","midi":51,"time":63.4101562499998,"velocity":0.7244094488188977,"duration":0.2109375},{"name":"F#5","midi":78,"time":63.541666666666465,"velocity":0.7244094488188977,"duration":0.1640625},{"name":"C#3","midi":49,"time":63.674479166666465,"velocity":0.7244094488188977,"duration":0.2174479166666643},{"name":"G#5","midi":80,"time":63.807291666666465,"velocity":0.7244094488188977,"duration":0.1276041666666643},{"name":"C3","midi":48,"time":63.941406249999794,"velocity":0.7244094488188977,"duration":0.2617187499999929},{"name":"A5","midi":81,"time":63.941406249999794,"velocity":0.7244094488188977,"duration":0.1276041666666643},{"name":"G#5","midi":80,"time":64.07421874999979,"velocity":0.7244094488188977,"duration":0.1276041666666714},{"name":"D#3","midi":51,"time":64.20833333333312,"velocity":0.7244094488188977,"duration":0.2617187500000142},{"name":"F#5","midi":78,"time":64.20833333333312,"velocity":0.7244094488188977,"duration":0.1276041666666714},{"name":"E5","midi":76,"time":64.33984374999979,"velocity":0.7244094488188977,"duration":0.1276041666666714},{"name":"G#3","midi":56,"time":64.4726562499998,"velocity":0.7244094488188977,"duration":0.2617187500000142},{"name":"D#5","midi":75,"time":64.4726562499998,"velocity":0.7244094488188977,"duration":0.1276041666666714},{"name":"C#5","midi":73,"time":64.60677083333314,"velocity":0.7244094488188977,"duration":0.1276041666666714},{"name":"C4","midi":60,"time":64.73958333333314,"velocity":0.7244094488188977,"duration":0.2044270833333428},{"name":"D#5","midi":75,"time":64.73958333333314,"velocity":0.7244094488188977,"duration":0.1276041666666714},{"name":"E5","midi":76,"time":64.87369791666649,"velocity":0.7244094488188977,"duration":0.1276041666666714},{"name":"D#4","midi":63,"time":65.00520833333316,"velocity":0.7244094488188977,"duration":0.2044270833333428},{"name":"F#5","midi":78,"time":65.00520833333316,"velocity":0.7244094488188977,"duration":0.1276041666666714},{"name":"A5","midi":81,"time":65.1393229166665,"velocity":0.7244094488188977,"duration":0.1276041666666714},{"name":"G#4","midi":68,"time":65.2721354166665,"velocity":0.7244094488188977,"duration":0.2044270833333428},{"name":"G#5","midi":80,"time":65.2721354166665,"velocity":0.7244094488188977,"duration":0.1276041666666714},{"name":"F#5","midi":78,"time":65.40624999999984,"velocity":0.7244094488188977,"duration":0.1276041666666714},{"name":"E4","midi":64,"time":65.53776041666652,"velocity":0.7244094488188977,"duration":0.26171875},{"name":"G#5","midi":80,"time":65.53776041666652,"velocity":0.7244094488188977,"duration":0.1276041666666714},{"name":"C#5","midi":73,"time":65.67057291666652,"velocity":0.7244094488188977,"duration":0.26171875},{"name":"C#4","midi":61,"time":65.80468749999984,"velocity":0.7244094488188977,"duration":0.26171875},{"name":"E5","midi":76,"time":65.93749999999984,"velocity":0.7244094488188977,"duration":0.1927083333333286},{"name":"A3","midi":57,"time":66.07161458333317,"velocity":0.7244094488188977,"duration":0.26171875},{"name":"C#5","midi":73,"time":66.20312499999984,"velocity":0.7244094488188977,"duration":0.1927083333333286},{"name":"F#3","midi":54,"time":66.33723958333317,"velocity":0.7244094488188977,"duration":0.26171875},{"name":"A4","midi":69,"time":66.47005208333317,"velocity":0.7244094488188977,"duration":0.1940104166666714},{"name":"D#4","midi":63,"time":66.60286458333317,"velocity":0.7244094488188977,"duration":0.1940104166666714},{"name":"F#4","midi":66,"time":66.73567708333317,"velocity":0.7244094488188977,"duration":0.1692708333333428},{"name":"C4","midi":60,"time":66.86718749999984,"velocity":0.7244094488188977,"duration":0.1692708333333428},{"name":"D#5","midi":75,"time":67.00130208333319,"velocity":0.7244094488188977,"duration":0.1692708333333286},{"name":"E3","midi":52,"time":67.13411458333319,"velocity":0.7244094488188977,"duration":0.26171875},{"name":"G#4","midi":68,"time":67.26822916666652,"velocity":0.7244094488188977,"duration":0.1940104166666714},{"name":"C#4","midi":61,"time":67.40104166666652,"velocity":0.7244094488188977,"duration":0.1940104166666714},{"name":"E4","midi":64,"time":67.53385416666652,"velocity":0.7244094488188977,"duration":0.1940104166666714},{"name":"A3","midi":57,"time":67.66666666666652,"velocity":0.7244094488188977,"duration":0.14453125},{"name":"C#5","midi":73,"time":67.79947916666652,"velocity":0.7244094488188977,"duration":0.1315104166666714},{"name":"F#3","midi":54,"time":67.92447916666652,"velocity":0.7244094488188977,"duration":0.2174479166666714},{"name":"A4","midi":69,"time":68.06510416666652,"velocity":0.7244094488188977,"duration":0.1692708333333428},{"name":"D#3","midi":51,"time":68.19921874999986,"velocity":0.7244094488188977,"duration":0.1940104166666714},{"name":"F#4","midi":66,"time":68.33203124999986,"velocity":0.7244094488188977,"duration":0.1692708333333428},{"name":"C3","midi":48,"time":68.4661458333332,"velocity":0.7244094488188977,"duration":0.1940104166666714},{"name":"D#4","midi":63,"time":68.5989583333332,"velocity":0.7244094488188977,"duration":0.11848958333334281},{"name":"G#2","midi":44,"time":68.73177083333321,"velocity":0.7244094488188977,"duration":0.26171875},{"name":"C4","midi":60,"time":68.73177083333321,"velocity":0.7244094488188977,"duration":0.7942708333333428},{"name":"G#3","midi":56,"time":68.86458333333321,"velocity":0.7244094488188977,"duration":0.1940104166666714},{"name":"F#3","midi":54,"time":68.99739583333321,"velocity":0.7244094488188977,"duration":0.2617187500000142},{"name":"G#3","midi":56,"time":69.13151041666656,"velocity":0.7244094488188977,"duration":0.1940104166666714},{"name":"D#3","midi":51,"time":69.26432291666656,"velocity":0.7244094488188977,"duration":0.26171875},{"name":"G#3","midi":56,"time":69.39713541666656,"velocity":0.7244094488188977,"duration":0.1276041666666714},{"name":"G#2","midi":44,"time":69.52994791666656,"velocity":0.7244094488188977,"duration":0.26171875},{"name":"C4","midi":60,"time":69.52994791666656,"velocity":0.7244094488188977,"duration":0.7942708333333286},{"name":"G#3","midi":56,"time":69.66276041666656,"velocity":0.7244094488188977,"duration":0.1940104166666714},{"name":"F#3","midi":54,"time":69.79557291666656,"velocity":0.7244094488188977,"duration":0.26171875},{"name":"G#3","midi":56,"time":69.92838541666656,"velocity":0.7244094488188977,"duration":0.1940104166666714},{"name":"D#3","midi":51,"time":70.06119791666656,"velocity":0.7244094488188977,"duration":0.26171875},{"name":"G#3","midi":56,"time":70.19401041666656,"velocity":0.7244094488188977,"duration":0.1276041666666714},{"name":"G#2","midi":44,"time":70.32812499999989,"velocity":0.7244094488188977,"duration":0.26171875},{"name":"C#4","midi":61,"time":70.32812499999989,"velocity":0.7244094488188977,"duration":0.7942708333333286},{"name":"G#3","midi":56,"time":70.46093749999989,"velocity":0.7244094488188977,"duration":0.1940104166666714},{"name":"F3","midi":53,"time":70.59374999999989,"velocity":0.7244094488188977,"duration":0.26171875},{"name":"G#3","midi":56,"time":70.72656249999989,"velocity":0.7244094488188977,"duration":0.1940104166666572},{"name":"C#3","midi":49,"time":70.86067708333321,"velocity":0.7244094488188977,"duration":0.26171875},{"name":"G#3","midi":56,"time":70.99348958333321,"velocity":0.7244094488188977,"duration":0.1276041666666714},{"name":"G#2","midi":44,"time":71.12630208333321,"velocity":0.7244094488188977,"duration":0.26171875},{"name":"C#4","midi":61,"time":71.12630208333321,"velocity":0.7244094488188977,"duration":0.794270833333357},{"name":"G#3","midi":56,"time":71.25911458333321,"velocity":0.7244094488188977,"duration":0.1940104166666714},{"name":"F3","midi":53,"time":71.39192708333321,"velocity":0.7244094488188977,"duration":0.2617187500000142},{"name":"G#3","midi":56,"time":71.52604166666656,"velocity":0.7244094488188977,"duration":0.1940104166666714},{"name":"C#3","midi":49,"time":71.65885416666656,"velocity":0.7244094488188977,"duration":0.2617187500000142},{"name":"G#3","midi":56,"time":71.7929687499999,"velocity":0.7244094488188977,"duration":0.1276041666666714},{"name":"G#2","midi":44,"time":71.92447916666657,"velocity":0.7244094488188977,"duration":0.26171875},{"name":"F#4","midi":66,"time":71.92447916666657,"velocity":0.7244094488188977,"duration":0.7942708333333286},{"name":"G#3","midi":56,"time":72.0585937499999,"velocity":0.7244094488188977,"duration":0.1940104166666714},{"name":"D#3","midi":51,"time":72.1914062499999,"velocity":0.7244094488188977,"duration":0.26171875},{"name":"G#3","midi":56,"time":72.3242187499999,"velocity":0.7244094488188977,"duration":0.1940104166666714},{"name":"C3","midi":48,"time":72.4570312499999,"velocity":0.7244094488188977,"duration":0.26171875},{"name":"G#3","midi":56,"time":72.5898437499999,"velocity":0.7244094488188977,"duration":0.1276041666666714},{"name":"G#2","midi":44,"time":72.7226562499999,"velocity":0.7244094488188977,"duration":0.26171875},{"name":"F#4","midi":66,"time":72.7226562499999,"velocity":0.7244094488188977,"duration":0.7942708333333144},{"name":"G#3","midi":56,"time":72.8554687499999,"velocity":0.7244094488188977,"duration":0.1940104166666572},{"name":"D#3","midi":51,"time":72.98958333333323,"velocity":0.7244094488188977,"duration":0.2617187499999858},{"name":"G#3","midi":56,"time":73.12109374999989,"velocity":0.7244094488188977,"duration":0.1940104166666572},{"name":"C3","midi":48,"time":73.25520833333321,"velocity":0.7244094488188977,"duration":0.26171875},{"name":"G#3","midi":56,"time":73.38802083333321,"velocity":0.7244094488188977,"duration":0.1276041666666714},{"name":"G#2","midi":44,"time":73.52083333333321,"velocity":0.7244094488188977,"duration":0.26171875},{"name":"F4","midi":65,"time":73.52083333333321,"velocity":0.7244094488188977,"duration":0.7942708333333428},{"name":"G#3","midi":56,"time":73.65494791666654,"velocity":0.7244094488188977,"duration":0.1940104166666714},{"name":"F3","midi":53,"time":73.78645833333321,"velocity":0.7244094488188977,"duration":0.26171875},{"name":"G#3","midi":56,"time":73.92057291666654,"velocity":0.7244094488188977,"duration":0.1940104166666714},{"name":"C#3","midi":49,"time":74.05338541666654,"velocity":0.7244094488188977,"duration":0.2617187500000142},{"name":"G#3","midi":56,"time":74.18749999999989,"velocity":0.7244094488188977,"duration":0.1276041666666714},{"name":"G#2","midi":44,"time":74.32031249999989,"velocity":0.7244094488188977,"duration":0.26171875},{"name":"F4","midi":65,"time":74.32031249999989,"velocity":0.7244094488188977,"duration":0.7942708333333286},{"name":"G#3","midi":56,"time":74.45182291666656,"velocity":0.7244094488188977,"duration":0.2044270833333286},{"name":"F3","midi":53,"time":74.58593749999989,"velocity":0.7244094488188977,"duration":0.26171875},{"name":"G#3","midi":56,"time":74.71874999999989,"velocity":0.7244094488188977,"duration":0.2174479166666572},{"name":"C#3","midi":49,"time":74.85286458333321,"velocity":0.7244094488188977,"duration":0.26171875},{"name":"G#3","midi":56,"time":74.98437499999987,"velocity":0.7244094488188977,"duration":0.1276041666666714},{"name":"G#2","midi":44,"time":75.11848958333321,"velocity":0.7244094488188977,"duration":0.2786458333333286},{"name":"G4","midi":67,"time":75.11848958333321,"velocity":0.7244094488188977,"duration":0.7942708333333144},{"name":"A#3","midi":58,"time":75.25130208333321,"velocity":0.7244094488188977,"duration":0.2291666666666572},{"name":"E3","midi":52,"time":75.38541666666654,"velocity":0.7244094488188977,"duration":0.2200520833333286},{"name":"A#3","midi":58,"time":75.51822916666654,"velocity":0.7244094488188977,"duration":0.2421874999999858},{"name":"C#3","midi":49,"time":75.6497395833332,"velocity":0.7244094488188977,"duration":0.2200520833333286},{"name":"A#3","midi":58,"time":75.7825520833332,"velocity":0.7244094488188977,"duration":0.1276041666666572},{"name":"G#2","midi":44,"time":75.9153645833332,"velocity":0.7244094488188977,"duration":0.3151041666666572},{"name":"G4","midi":67,"time":75.9153645833332,"velocity":0.7244094488188977,"duration":0.2604166666666572},{"name":"A#3","midi":58,"time":76.04947916666653,"velocity":0.7244094488188977,"duration":0.2552083333333286},{"name":"E3","midi":52,"time":76.18229166666653,"velocity":0.7244094488188977,"duration":0.2200520833333286},{"name":"A#3","midi":58,"time":76.31510416666653,"velocity":0.7244094488188977,"duration":0.26171875},{"name":"C#3","midi":49,"time":76.44791666666653,"velocity":0.7244094488188977,"duration":0.2200520833333286},{"name":"A#3","midi":58,"time":76.58203124999986,"velocity":0.7244094488188977,"duration":0.1276041666666714},{"name":"G#2","midi":44,"time":76.71484374999986,"velocity":0.7244094488188977,"duration":0.1276041666666714},{"name":"C3","midi":48,"time":76.84765624999986,"velocity":0.7244094488188977,"duration":0.1276041666666714},{"name":"D#3","midi":51,"time":76.98046874999986,"velocity":0.7244094488188977,"duration":0.1276041666666714},{"name":"F#3","midi":54,"time":77.11328124999986,"velocity":0.7244094488188977,"duration":0.1276041666666714},{"name":"A3","midi":57,"time":77.2473958333332,"velocity":0.7244094488188977,"duration":0.1276041666666714},{"name":"C4","midi":60,"time":77.3802083333332,"velocity":0.7244094488188977,"duration":0.1276041666666714},{"name":"C#4","midi":61,"time":77.5130208333332,"velocity":0.7244094488188977,"duration":0.1276041666666714},{"name":"E4","midi":64,"time":77.6458333333332,"velocity":0.7244094488188977,"duration":0.1276041666666714},{"name":"G4","midi":67,"time":77.7786458333332,"velocity":0.7244094488188977,"duration":0.1276041666666714},{"name":"A#4","midi":70,"time":77.91276041666654,"velocity":0.7244094488188977,"duration":0.1276041666666714},{"name":"C#5","midi":73,"time":78.04557291666654,"velocity":0.7244094488188977,"duration":0.1276041666666714},{"name":"E5","midi":76,"time":78.17838541666654,"velocity":0.7244094488188977,"duration":0.1276041666666714},{"name":"C5","midi":72,"time":78.31119791666654,"velocity":0.7244094488188977,"duration":0.1940104166666714},{"name":"G#2","midi":44,"time":78.31119791666654,"velocity":0.7244094488188977,"duration":2.1184895833333854},{"name":"D#5","midi":75,"time":78.46354166666654,"velocity":0.7244094488188977,"duration":0.1276041666666714},{"name":"F#5","midi":78,"time":78.59635416666654,"velocity":0.7244094488188977,"duration":0.1276041666666714},{"name":"D#5","midi":75,"time":78.73046874999989,"velocity":0.7244094488188977,"duration":0.1276041666666714},{"name":"C5","midi":72,"time":78.86328124999989,"velocity":0.7244094488188977,"duration":0.1276041666666714},{"name":"G#4","midi":68,"time":78.99479166666656,"velocity":0.7244094488188977,"duration":0.1276041666666714},{"name":"F#4","midi":66,"time":79.1289062499999,"velocity":0.7244094488188977,"duration":0.1276041666666714},{"name":"D#4","midi":63,"time":79.2617187499999,"velocity":0.7244094488188977,"duration":0.1276041666666714},{"name":"C4","midi":60,"time":79.39583333333324,"velocity":0.7244094488188977,"duration":0.1276041666666714},{"name":"G#3","midi":56,"time":79.52864583333324,"velocity":0.7244094488188977,"duration":0.1276041666666714},{"name":"C4","midi":60,"time":79.66145833333324,"velocity":0.7244094488188977,"duration":0.1276041666666714},{"name":"D#4","midi":63,"time":79.79427083333324,"velocity":0.7244094488188977,"duration":0.1276041666666714},{"name":"G#3","midi":56,"time":79.92838541666659,"velocity":0.7244094488188977,"duration":0.7942708333333428},{"name":"F4","midi":65,"time":79.92838541666659,"velocity":0.7244094488188977,"duration":0.1809895833333428},{"name":"G#4","midi":68,"time":80.07942708333326,"velocity":0.7244094488188977,"duration":0.1276041666666714},{"name":"C#5","midi":73,"time":80.21223958333326,"velocity":0.7244094488188977,"duration":0.1276041666666714},{"name":"G#4","midi":68,"time":80.34505208333326,"velocity":0.7244094488188977,"duration":0.1276041666666714},{"name":"F4","midi":65,"time":80.47786458333326,"velocity":0.7244094488188977,"duration":0.1276041666666714},{"name":"C#4","midi":61,"time":80.6119791666666,"velocity":0.7244094488188977,"duration":0.1276041666666572},{"name":"A#3","midi":58,"time":80.74479166666659,"velocity":0.7244094488188977,"duration":0.1276041666666714},{"name":"G3","midi":55,"time":80.87890624999993,"velocity":0.7244094488188977,"duration":0.1276041666666714},{"name":"E3","midi":52,"time":81.0104166666666,"velocity":0.7244094488188977,"duration":0.1276041666666714},{"name":"C#3","midi":49,"time":81.1432291666666,"velocity":0.7244094488188977,"duration":0.1276041666666714},{"name":"E3","midi":52,"time":81.27734374999994,"velocity":0.7244094488188977,"duration":0.1276041666666714},{"name":"G3","midi":55,"time":81.41015624999994,"velocity":0.7244094488188977,"duration":0.1276041666666714},{"name":"G#2","midi":44,"time":81.56380208333329,"velocity":0.7244094488188977,"duration":0.0638020833333286},{"name":"G2","midi":43,"time":81.63020833333329,"velocity":0.7244094488188977,"duration":0.0638020833333286},{"name":"G#2","midi":44,"time":81.69661458333329,"velocity":0.7244094488188977,"duration":1.4544270833333286},{"name":"G#3","midi":56,"time":82.09635416666661,"velocity":0.7244094488188977,"duration":0.38671875},{"name":"F3","midi":53,"time":82.09635416666661,"velocity":0.7244094488188977,"duration":0.38671875},{"name":"C#3","midi":49,"time":82.09635416666661,"velocity":0.7244094488188977,"duration":0.38671875},{"name":"C#5","midi":73,"time":82.09635416666661,"velocity":0.7244094488188977,"duration":0.38671875},{"name":"G#4","midi":68,"time":82.09635416666661,"velocity":0.7244094488188977,"duration":0.38671875},{"name":"F4","midi":65,"time":82.09635416666661,"velocity":0.7244094488188977,"duration":0.38671875},{"name":"C#4","midi":61,"time":82.09635416666661,"velocity":0.7244094488188977,"duration":0.38671875},{"name":"G#3","midi":56,"time":82.62630208333329,"velocity":0.7244094488188977,"duration":0.38671875},{"name":"F#3","midi":54,"time":82.62630208333329,"velocity":0.7244094488188977,"duration":0.38671875},{"name":"D#3","midi":51,"time":82.62630208333329,"velocity":0.7244094488188977,"duration":0.38671875},{"name":"C5","midi":72,"time":82.62630208333329,"velocity":0.7244094488188977,"duration":0.38671875},{"name":"G#4","midi":68,"time":82.62630208333329,"velocity":0.7244094488188977,"duration":0.38671875},{"name":"D#4","midi":63,"time":82.62630208333329,"velocity":0.7244094488188977,"duration":0.38671875},{"name":"G#3","midi":56,"time":83.15885416666661,"velocity":0.7244094488188977,"duration":2.1184895833333286},{"name":"F3","midi":53,"time":83.15885416666661,"velocity":0.7244094488188977,"duration":2.1184895833333286},{"name":"C#3","midi":49,"time":83.15885416666661,"velocity":0.7244094488188977,"duration":2.1184895833333286},{"name":"C#5","midi":73,"time":83.15885416666661,"velocity":0.7244094488188977,"duration":2.1184895833333286},{"name":"G#4","midi":68,"time":83.15885416666661,"velocity":0.7244094488188977,"duration":2.1184895833333286},{"name":"F4","midi":65,"time":83.15885416666661,"velocity":0.7244094488188977,"duration":2.1184895833333286},{"name":"C#4","midi":61,"time":83.15885416666661,"velocity":0.7244094488188977,"duration":2.1184895833333286},{"name":"G#4","midi":68,"time":86.85937499999994,"velocity":0.7244094488188977,"duration":0.390625},{"name":"A#4","midi":70,"time":87.25651041666661,"velocity":0.7244094488188977,"duration":0.1927083333333286},{"name":"G#4","midi":68,"time":87.45442708333327,"velocity":0.7244094488188977,"duration":0.1927083333333286},{"name":"F#4","midi":66,"time":87.65234374999993,"velocity":0.7244094488188977,"duration":0.1927083333333286},{"name":"G#4","midi":68,"time":87.85026041666659,"velocity":0.7244094488188977,"duration":0.1927083333333286},{"name":"F5","midi":77,"time":88.04817708333324,"velocity":0.7244094488188977,"duration":0.3489583333333286},{"name":"C#5","midi":73,"time":88.44401041666657,"velocity":0.7244094488188977,"duration":0.3489583333333286},{"name":"G#4","midi":68,"time":88.8398437499999,"velocity":0.7244094488188977,"duration":0.390625},{"name":"F#4","midi":66,"time":89.23697916666657,"velocity":0.7244094488188977,"duration":0.1927083333333286},{"name":"F4","midi":65,"time":89.43489583333323,"velocity":0.7244094488188977,"duration":0.1927083333333286},{"name":"F#4","midi":66,"time":89.63281249999989,"velocity":0.7244094488188977,"duration":0.390625},{"name":"D#5","midi":75,"time":90.03124999999989,"velocity":0.7244094488188977,"duration":0.390625},{"name":"F4","midi":65,"time":90.42838541666656,"velocity":0.7244094488188977,"duration":0.390625},{"name":"C#5","midi":73,"time":90.82421874999989,"velocity":0.7244094488188977,"duration":0.390625},{"name":"D#4","midi":63,"time":91.22135416666656,"velocity":0.7244094488188977,"duration":0.390625},{"name":"C5","midi":72,"time":91.61848958333323,"velocity":0.7244094488188977,"duration":0.390625},{"name":"C#4","midi":61,"time":92.01692708333323,"velocity":0.7244094488188977,"duration":0.7825520833333144},{"name":"C#5","midi":73,"time":92.41276041666656,"velocity":0.7244094488188977,"duration":0.1927083333333286},{"name":"C5","midi":72,"time":92.61067708333321,"velocity":0.7244094488188977,"duration":0.1940104166666572},{"name":"C#5","midi":73,"time":92.8098958333332,"velocity":0.7244094488188977,"duration":0.1927083333333286},{"name":"D#5","midi":75,"time":93.00781249999986,"velocity":0.7244094488188977,"duration":0.1927083333333286},{"name":"F5","midi":77,"time":93.20572916666652,"velocity":0.7244094488188977,"duration":0.1927083333333286},{"name":"C#4","midi":61,"time":93.20572916666652,"velocity":0.7244094488188977,"duration":0.3906249999999858},{"name":"F#5","midi":78,"time":93.40364583333317,"velocity":0.7244094488188977,"duration":0.1927083333333286},{"name":"G#5","midi":80,"time":93.60156249999983,"velocity":0.7244094488188977,"duration":0.1927083333333286},{"name":"F4","midi":65,"time":93.60156249999983,"velocity":0.7244094488188977,"duration":0.1927083333333286},{"name":"G5","midi":79,"time":93.79947916666649,"velocity":0.7244094488188977,"duration":0.1927083333333286},{"name":"D#4","midi":63,"time":93.79947916666649,"velocity":0.7244094488188977,"duration":0.1927083333333286},{"name":"F5","midi":77,"time":93.99739583333314,"velocity":0.7244094488188977,"duration":0.1927083333333286},{"name":"C#4","midi":61,"time":93.99739583333314,"velocity":0.7244094488188977,"duration":0.1927083333333286},{"name":"G5","midi":79,"time":94.1953124999998,"velocity":0.7244094488188977,"duration":0.1927083333333286},{"name":"D#4","midi":63,"time":94.1953124999998,"velocity":0.7244094488188977,"duration":0.1927083333333286},{"name":"G#5","midi":80,"time":94.39322916666646,"velocity":0.7244094488188977,"duration":0.1927083333333286},{"name":"C5","midi":72,"time":94.39322916666646,"velocity":0.7244094488188977,"duration":0.3489583333333286},{"name":"F#5","midi":78,"time":94.59114583333312,"velocity":0.7244094488188977,"duration":0.1927083333333428},{"name":"F5","midi":77,"time":94.78906249999979,"velocity":0.7244094488188977,"duration":0.1927083333333286},{"name":"G#4","midi":68,"time":94.78906249999979,"velocity":0.7244094488188977,"duration":0.3489583333333286},{"name":"D#5","midi":75,"time":94.98697916666644,"velocity":0.7244094488188977,"duration":0.1927083333333428},{"name":"F5","midi":77,"time":95.18359374999979,"velocity":0.7244094488188977,"duration":0.1927083333333286},{"name":"D#4","midi":63,"time":95.18359374999979,"velocity":0.7244094488188977,"duration":0.3906249999999858},{"name":"D#5","midi":75,"time":95.38151041666644,"velocity":0.7244094488188977,"duration":0.1927083333333286},{"name":"F5","midi":77,"time":95.58072916666644,"velocity":0.7244094488188977,"duration":0.5872395833333144},{"name":"C#4","midi":61,"time":95.58072916666644,"velocity":0.7244094488188977,"duration":0.1927083333333286},{"name":"C4","midi":60,"time":95.7786458333331,"velocity":0.7244094488188977,"duration":0.1927083333333286},{"name":"C#4","midi":61,"time":95.97656249999976,"velocity":0.7244094488188977,"duration":0.390625},{"name":"D#5","midi":75,"time":96.17447916666643,"velocity":0.7244094488188977,"duration":0.1927083333333286},{"name":"C#5","midi":73,"time":96.37239583333309,"velocity":0.7244094488188977,"duration":0.1927083333333286},{"name":"A#4","midi":70,"time":96.37239583333309,"velocity":0.7244094488188977,"duration":0.3906249999999858},{"name":"F5","midi":77,"time":96.57031249999974,"velocity":0.7244094488188977,"duration":0.1927083333333286},{"name":"D#5","midi":75,"time":96.7682291666664,"velocity":0.7244094488188977,"duration":0.1927083333333286},{"name":"C4","midi":60,"time":96.7682291666664,"velocity":0.7244094488188977,"duration":0.3906249999999858},{"name":"C#5","midi":73,"time":96.96614583333306,"velocity":0.7244094488188977,"duration":0.1927083333333286},{"name":"C5","midi":72,"time":97.16406249999972,"velocity":0.7244094488188977,"duration":0.1927083333333286},{"name":"G#4","midi":68,"time":97.16406249999972,"velocity":0.7244094488188977,"duration":0.3906249999999858},{"name":"D#5","midi":75,"time":97.36197916666637,"velocity":0.7244094488188977,"duration":0.1927083333333286},{"name":"C#5","midi":73,"time":97.55989583333303,"velocity":0.7244094488188977,"duration":0.1927083333333286},{"name":"A#3","midi":58,"time":97.55989583333303,"velocity":0.7244094488188977,"duration":0.3906249999999858},{"name":"C5","midi":72,"time":97.75781249999969,"velocity":0.7244094488188977,"duration":0.1927083333333286},{"name":"C#5","midi":73,"time":97.95572916666634,"velocity":0.7244094488188977,"duration":0.1927083333333286},{"name":"G4","midi":67,"time":97.95572916666634,"velocity":0.7244094488188977,"duration":0.3906249999999858},{"name":"A#4","midi":70,"time":98.153645833333,"velocity":0.7244094488188977,"duration":0.1927083333333286},{"name":"A#4","midi":70,"time":98.35156249999966,"velocity":0.7244094488188977,"duration":0.1927083333333286},{"name":"G#3","midi":56,"time":98.35156249999966,"velocity":0.7244094488188977,"duration":0.7825520833333002},{"name":"C5","midi":72,"time":98.54947916666632,"velocity":0.7244094488188977,"duration":0.1927083333333286},{"name":"D#5","midi":75,"time":98.74739583333297,"velocity":0.7244094488188977,"duration":0.3906249999999858},{"name":"G#4","midi":68,"time":98.74739583333297,"velocity":0.7244094488188977,"duration":0.1927083333333286},{"name":"G4","midi":67,"time":98.94531249999963,"velocity":0.7244094488188977,"duration":0.1940104166666572},{"name":"F#5","midi":78,"time":99.14453124999962,"velocity":0.7244094488188977,"duration":1.5768229166666146},{"name":"G#4","midi":68,"time":99.14453124999962,"velocity":0.7244094488188977,"duration":0.1927083333333286},{"name":"A#4","midi":70,"time":99.34244791666627,"velocity":0.7244094488188977,"duration":0.1927083333333286},{"name":"C5","midi":72,"time":99.54036458333293,"velocity":0.7244094488188977,"duration":0.1927083333333286},{"name":"G#3","midi":56,"time":99.54036458333293,"velocity":0.7244094488188977,"duration":0.390625},{"name":"G#4","midi":68,"time":99.73958333333293,"velocity":0.7244094488188977,"duration":0.1927083333333286},{"name":"C#5","midi":73,"time":99.93619791666626,"velocity":0.7244094488188977,"duration":0.1927083333333286},{"name":"A#3","midi":58,"time":99.93619791666626,"velocity":0.7244094488188977,"duration":0.1927083333333286},{"name":"C5","midi":72,"time":100.13411458333292,"velocity":0.7244094488188977,"duration":0.1927083333333286},{"name":"G#3","midi":56,"time":100.13411458333292,"velocity":0.7244094488188977,"duration":0.1927083333333286},{"name":"A#4","midi":70,"time":100.33203124999957,"velocity":0.7244094488188977,"duration":0.1927083333333286},{"name":"F#3","midi":54,"time":100.33203124999957,"velocity":0.7244094488188977,"duration":0.1927083333333286},{"name":"C5","midi":72,"time":100.52994791666623,"velocity":0.7244094488188977,"duration":0.1927083333333286},{"name":"G#3","midi":56,"time":100.52994791666623,"velocity":0.7244094488188977,"duration":0.1927083333333286},{"name":"F5","midi":77,"time":100.72786458333289,"velocity":0.7244094488188977,"duration":1.5807291666665861},{"name":"C#5","midi":73,"time":100.72786458333289,"velocity":0.7244094488188977,"duration":0.1927083333333286},{"name":"F4","midi":65,"time":100.72786458333289,"velocity":0.7244094488188977,"duration":0.3281249999999858},{"name":"C5","midi":72,"time":100.92578124999955,"velocity":0.7244094488188977,"duration":0.1940104166666572},{"name":"A#4","midi":70,"time":101.12499999999953,"velocity":0.7244094488188977,"duration":0.1927083333333286},{"name":"C#4","midi":61,"time":101.12499999999953,"velocity":0.7244094488188977,"duration":0.3281249999999858},{"name":"G#4","midi":68,"time":101.32291666666619,"velocity":0.7244094488188977,"duration":0.1940104166666572},{"name":"A#4","midi":70,"time":101.52213541666617,"velocity":0.7244094488188977,"duration":0.1927083333333286},{"name":"G#3","midi":56,"time":101.52213541666617,"velocity":0.7244094488188977,"duration":0.3906249999999858},{"name":"G#4","midi":68,"time":101.72005208333283,"velocity":0.7244094488188977,"duration":0.1927083333333286},{"name":"A#4","midi":70,"time":101.91796874999949,"velocity":0.7244094488188977,"duration":0.5872395833333144},{"name":"F#3","midi":54,"time":101.91796874999949,"velocity":0.7244094488188977,"duration":0.1927083333333286},{"name":"F3","midi":53,"time":102.11588541666615,"velocity":0.7244094488188977,"duration":0.1927083333333286},{"name":"D#5","midi":75,"time":102.3138020833328,"velocity":0.7244094488188977,"duration":1.1809895833333144},{"name":"F#3","midi":54,"time":102.3138020833328,"velocity":0.7244094488188977,"duration":0.390625},{"name":"G#4","midi":68,"time":102.51171874999947,"velocity":0.7244094488188977,"duration":0.1927083333333286},{"name":"F#4","midi":66,"time":102.70963541666613,"velocity":0.7244094488188977,"duration":0.1927083333333286},{"name":"D#4","midi":63,"time":102.70963541666613,"velocity":0.7244094488188977,"duration":0.3906249999999858},{"name":"A#4","midi":70,"time":102.90755208333279,"velocity":0.7244094488188977,"duration":0.1927083333333286},{"name":"G#4","midi":68,"time":103.10546874999945,"velocity":0.7244094488188977,"duration":0.1927083333333286},{"name":"F3","midi":53,"time":103.10546874999945,"velocity":0.7244094488188977,"duration":0.390625},{"name":"F#4","midi":66,"time":103.30468749999945,"velocity":0.7244094488188977,"duration":0.1927083333333286},{"name":"C#5","midi":73,"time":103.5026041666661,"velocity":0.7244094488188977,"duration":0.3906249999999858},{"name":"F4","midi":65,"time":103.5026041666661,"velocity":0.7244094488188977,"duration":0.1927083333333286},{"name":"C#4","midi":61,"time":103.5026041666661,"velocity":0.7244094488188977,"duration":0.3906249999999858},{"name":"G#4","midi":68,"time":103.70052083333276,"velocity":0.7244094488188977,"duration":0.1927083333333286},{"name":"C5","midi":72,"time":103.89843749999942,"velocity":0.7244094488188977,"duration":0.3906249999999858},{"name":"F#4","midi":66,"time":103.89843749999942,"velocity":0.7244094488188977,"duration":0.1927083333333286},{"name":"D#3","midi":51,"time":103.89843749999942,"velocity":0.7244094488188977,"duration":0.3906249999999858},{"name":"F4","midi":65,"time":104.09635416666607,"velocity":0.7244094488188977,"duration":0.1927083333333286},{"name":"D#5","midi":75,"time":104.29427083333273,"velocity":0.7244094488188977,"duration":0.7864583333333144},{"name":"F#4","midi":66,"time":104.29427083333273,"velocity":0.7244094488188977,"duration":0.1927083333333286},{"name":"C4","midi":60,"time":104.29427083333273,"velocity":0.7244094488188977,"duration":0.3906249999999858},{"name":"D#4","midi":63,"time":104.49218749999939,"velocity":0.7244094488188977,"duration":0.1927083333333286},{"name":"F4","midi":65,"time":104.68880208333272,"velocity":0.7244094488188977,"duration":1.1822916666666288},{"name":"C#3","midi":49,"time":104.68880208333272,"velocity":0.7244094488188977,"duration":0.390625},{"name":"G#4","midi":68,"time":105.08593749999937,"velocity":0.7244094488188977,"duration":0.3906249999999858},{"name":"C#4","midi":61,"time":105.08593749999937,"velocity":0.7244094488188977,"duration":0.1927083333333286},{"name":"C4","midi":60,"time":105.28385416666603,"velocity":0.7244094488188977,"duration":0.1927083333333286},{"name":"F5","midi":77,"time":105.48177083333269,"velocity":0.7244094488188977,"duration":1.180989583333286},{"name":"C#4","midi":61,"time":105.48177083333269,"velocity":0.7244094488188977,"duration":0.1927083333333286},{"name":"D#4","midi":63,"time":105.67968749999935,"velocity":0.7244094488188977,"duration":0.1927083333333286},{"name":"G#4","midi":68,"time":105.877604166666,"velocity":0.7244094488188977,"duration":0.3906249999999858},{"name":"F4","midi":65,"time":105.877604166666,"velocity":0.7244094488188977,"duration":0.1927083333333286},{"name":"C#4","midi":61,"time":106.07552083333266,"velocity":0.7244094488188977,"duration":0.1927083333333286},{"name":"C#5","midi":73,"time":106.27343749999932,"velocity":0.7244094488188977,"duration":0.5872395833333144},{"name":"A#3","midi":58,"time":106.27343749999932,"velocity":0.7244094488188977,"duration":0.1927083333333286},{"name":"C4","midi":60,"time":106.47135416666598,"velocity":0.7244094488188977,"duration":0.1927083333333286},{"name":"F5","midi":77,"time":106.66927083333263,"velocity":0.7244094488188977,"duration":0.1927083333333286},{"name":"C#4","midi":61,"time":106.66927083333263,"velocity":0.7244094488188977,"duration":0.1927083333333286},{"name":"C#5","midi":73,"time":106.86718749999929,"velocity":0.7244094488188977,"duration":0.5872395833333144},{"name":"A#3","midi":58,"time":106.86718749999929,"velocity":0.7244094488188977,"duration":0.1927083333333286},{"name":"A#4","midi":70,"time":107.06510416666595,"velocity":0.7244094488188977,"duration":0.5872395833333144},{"name":"G3","midi":55,"time":107.06510416666595,"velocity":0.7244094488188977,"duration":0.1927083333333286},{"name":"G#3","midi":56,"time":107.2630208333326,"velocity":0.7244094488188977,"duration":0.1927083333333286},{"name":"C#5","midi":73,"time":107.46093749999926,"velocity":0.7244094488188977,"duration":0.1927083333333286},{"name":"A#3","midi":58,"time":107.46093749999926,"velocity":0.7244094488188977,"duration":0.1927083333333286},{"name":"A#4","midi":70,"time":107.66015624999926,"velocity":0.7244094488188977,"duration":0.5885416666666572},{"name":"G3","midi":55,"time":107.66015624999926,"velocity":0.7244094488188977,"duration":0.1927083333333286},{"name":"D#4","midi":63,"time":107.85807291666592,"velocity":0.7244094488188977,"duration":1.182291666666643},{"name":"C3","midi":48,"time":107.85807291666592,"velocity":0.7244094488188977,"duration":0.390625},{"name":"A#4","midi":70,"time":108.25520833333259,"velocity":0.7244094488188977,"duration":0.3906249999999858},{"name":"C4","midi":60,"time":108.25520833333259,"velocity":0.7244094488188977,"duration":0.1927083333333286},{"name":"A#3","midi":58,"time":108.45312499999925,"velocity":0.7244094488188977,"duration":0.1927083333333286},{"name":"D#5","midi":75,"time":108.6510416666659,"velocity":0.7244094488188977,"duration":1.180989583333286},{"name":"C4","midi":60,"time":108.6510416666659,"velocity":0.7244094488188977,"duration":0.1927083333333286},{"name":"C#4","midi":61,"time":108.84895833333256,"velocity":0.7244094488188977,"duration":0.1927083333333286},{"name":"G4","midi":67,"time":109.04687499999922,"velocity":0.7244094488188977,"duration":0.3906249999999858},{"name":"D#4","midi":63,"time":109.04687499999922,"velocity":0.7244094488188977,"duration":0.1927083333333286},{"name":"C4","midi":60,"time":109.24479166666588,"velocity":0.7244094488188977,"duration":0.1927083333333286},{"name":"C5","midi":72,"time":109.4414062499992,"velocity":0.7244094488188977,"duration":0.5872395833333144},{"name":"G#3","midi":56,"time":109.4414062499992,"velocity":0.7244094488188977,"duration":0.1927083333333286},{"name":"A#3","midi":58,"time":109.63932291666586,"velocity":0.7244094488188977,"duration":0.1927083333333286},{"name":"D#5","midi":75,"time":109.83723958333252,"velocity":0.7244094488188977,"duration":0.1927083333333286},{"name":"C4","midi":60,"time":109.83723958333252,"velocity":0.7244094488188977,"duration":0.1927083333333286},{"name":"C5","midi":72,"time":110.03515624999918,"velocity":0.7244094488188977,"duration":0.5872395833333144},{"name":"G#3","midi":56,"time":110.03515624999918,"velocity":0.7244094488188977,"duration":0.1927083333333286},{"name":"G#4","midi":68,"time":110.23307291666583,"velocity":0.7244094488188977,"duration":0.5872395833333144},{"name":"F3","midi":53,"time":110.23307291666583,"velocity":0.7244094488188977,"duration":0.1927083333333286},{"name":"G3","midi":55,"time":110.43098958333249,"velocity":0.7244094488188977,"duration":0.1927083333333286},{"name":"C5","midi":72,"time":110.62890624999915,"velocity":0.7244094488188977,"duration":0.1927083333333286},{"name":"G#3","midi":56,"time":110.62890624999915,"velocity":0.7244094488188977,"duration":0.1927083333333286},{"name":"G#4","midi":68,"time":110.8268229166658,"velocity":0.7244094488188977,"duration":0.2460937499999858},{"name":"F3","midi":53,"time":110.8268229166658,"velocity":0.7244094488188977,"duration":0.1927083333333286},{"name":"C#4","midi":61,"time":111.02473958333246,"velocity":0.7244094488188977,"duration":1.182291666666643},{"name":"A#2","midi":46,"time":111.02473958333246,"velocity":0.7244094488188977,"duration":0.390625},{"name":"G#4","midi":68,"time":111.42317708333246,"velocity":0.7244094488188977,"duration":0.3906249999999858},{"name":"A#3","midi":58,"time":111.42317708333246,"velocity":0.7244094488188977,"duration":0.1927083333333286},{"name":"G#3","midi":56,"time":111.62109374999912,"velocity":0.7244094488188977,"duration":0.1927083333333286},{"name":"C#5","midi":73,"time":111.81901041666578,"velocity":0.7244094488188977,"duration":0.983072916666643},{"name":"A#3","midi":58,"time":111.81901041666578,"velocity":0.7244094488188977,"duration":0.1927083333333286},{"name":"C4","midi":60,"time":112.01692708333243,"velocity":0.7244094488188977,"duration":0.1927083333333428},{"name":"F4","midi":65,"time":112.2148437499991,"velocity":0.7244094488188977,"duration":0.3906249999999858},{"name":"C#4","midi":61,"time":112.2148437499991,"velocity":0.7244094488188977,"duration":0.1927083333333286},{"name":"A#3","midi":58,"time":112.41276041666576,"velocity":0.7244094488188977,"duration":0.1927083333333286},{"name":"A#4","midi":70,"time":112.61067708333242,"velocity":0.7244094488188977,"duration":0.5872395833333144},{"name":"G3","midi":55,"time":112.61067708333242,"velocity":0.7244094488188977,"duration":0.1927083333333286},{"name":"C5","midi":72,"time":112.80859374999908,"velocity":0.7244094488188977,"duration":0.1927083333333286},{"name":"G#3","midi":56,"time":112.80859374999908,"velocity":0.7244094488188977,"duration":0.1927083333333286},{"name":"C#5","midi":73,"time":113.00651041666573,"velocity":0.7244094488188977,"duration":0.1927083333333286},{"name":"A#3","midi":58,"time":113.00651041666573,"velocity":0.7244094488188977,"duration":0.1927083333333286},{"name":"A#4","midi":70,"time":113.20442708333239,"velocity":0.7244094488188977,"duration":0.3906249999999858},{"name":"G3","midi":55,"time":113.20442708333239,"velocity":0.7244094488188977,"duration":0.1927083333333286},{"name":"A#5","midi":82,"time":113.40234374999905,"velocity":0.7244094488188977,"duration":0.9830729166666288},{"name":"D#3","midi":51,"time":113.40234374999905,"velocity":0.7244094488188977,"duration":0.1927083333333286},{"name":"C#5","midi":73,"time":113.6002604166657,"velocity":0.7244094488188977,"duration":0.1927083333333286},{"name":"F3","midi":53,"time":113.6002604166657,"velocity":0.7244094488188977,"duration":0.1927083333333286},{"name":"D#5","midi":75,"time":113.79817708333236,"velocity":0.7244094488188977,"duration":0.1927083333333286},{"name":"G3","midi":55,"time":113.79817708333236,"velocity":0.7244094488188977,"duration":0.1927083333333286},{"name":"A#4","midi":70,"time":113.99609374999902,"velocity":0.7244094488188977,"duration":0.1927083333333286},{"name":"D#3","midi":51,"time":113.99609374999902,"velocity":0.7244094488188977,"duration":0.1927083333333286},{"name":"C5","midi":72,"time":114.19270833333235,"velocity":0.7244094488188977,"duration":0.7825520833333002},{"name":"G#2","midi":44,"time":114.19270833333235,"velocity":0.7244094488188977,"duration":0.3906249999999858},{"name":"G#5","midi":80,"time":114.390624999999,"velocity":0.7244094488188977,"duration":0.1927083333333286},{"name":"G5","midi":79,"time":114.58854166666566,"velocity":0.7244094488188977,"duration":0.1927083333333286},{"name":"G#3","midi":56,"time":114.58854166666566,"velocity":0.7244094488188977,"duration":0.1927083333333286},{"name":"A#5","midi":82,"time":114.78645833333232,"velocity":0.7244094488188977,"duration":0.1940104166666572},{"name":"A#3","midi":58,"time":114.78645833333232,"velocity":0.7244094488188977,"duration":0.1940104166666572},{"name":"G#5","midi":80,"time":114.9856770833323,"velocity":0.7244094488188977,"duration":0.1927083333333286},{"name":"C4","midi":60,"time":114.9856770833323,"velocity":0.7244094488188977,"duration":0.3906249999999858},{"name":"D#5","midi":75,"time":115.18359374999896,"velocity":0.7244094488188977,"duration":0.1927083333333286},{"name":"F5","midi":77,"time":115.38281249999896,"velocity":0.7244094488188977,"duration":0.1927083333333286},{"name":"G#4","midi":68,"time":115.38281249999896,"velocity":0.7244094488188977,"duration":0.5872395833333144},{"name":"G#3","midi":56,"time":115.38281249999896,"velocity":0.7244094488188977,"duration":0.3906249999999858},{"name":"F#5","midi":78,"time":115.58072916666562,"velocity":0.7244094488188977,"duration":0.1927083333333286},{"name":"F5","midi":77,"time":115.77864583333228,"velocity":0.7244094488188977,"duration":0.1927083333333286},{"name":"C#4","midi":61,"time":115.77864583333228,"velocity":0.7244094488188977,"duration":0.7851562499999716},{"name":"D#5","midi":75,"time":115.97656249999893,"velocity":0.7244094488188977,"duration":0.1927083333333286},{"name":"G4","midi":67,"time":115.97656249999893,"velocity":0.7244094488188977,"duration":0.1927083333333286},{"name":"C#5","midi":73,"time":116.17447916666559,"velocity":0.7244094488188977,"duration":0.1927083333333286},{"name":"F4","midi":65,"time":116.17447916666559,"velocity":0.7244094488188977,"duration":0.1927083333333286},{"name":"D#5","midi":75,"time":116.37239583333225,"velocity":0.7244094488188977,"duration":0.1927083333333286},{"name":"G4","midi":67,"time":116.37239583333225,"velocity":0.7244094488188977,"duration":0.1927083333333286},{"name":"C6","midi":84,"time":116.5703124999989,"velocity":0.7244094488188977,"duration":0.3906249999999858},{"name":"G#4","midi":68,"time":116.5703124999989,"velocity":0.7244094488188977,"duration":0.1927083333333286},{"name":"C4","midi":60,"time":116.5703124999989,"velocity":0.7244094488188977,"duration":0.7851562499999716},{"name":"F#4","midi":66,"time":116.76822916666556,"velocity":0.7244094488188977,"duration":0.1927083333333286},{"name":"G#5","midi":80,"time":116.96614583333222,"velocity":0.7244094488188977,"duration":0.3906249999999858},{"name":"F4","midi":65,"time":116.96614583333222,"velocity":0.7244094488188977,"duration":0.1927083333333286},{"name":"D#4","midi":63,"time":117.16406249999888,"velocity":0.7244094488188977,"duration":0.1927083333333286},{"name":"D#5","midi":75,"time":117.36197916666553,"velocity":0.7244094488188977,"duration":0.3906249999999858},{"name":"F4","midi":65,"time":117.36197916666553,"velocity":0.7244094488188977,"duration":0.1927083333333286},{"name":"A#3","midi":58,"time":117.36197916666553,"velocity":0.7244094488188977,"duration":0.3906249999999858},{"name":"D#4","midi":63,"time":117.55989583333219,"velocity":0.7244094488188977,"duration":0.1927083333333286},{"name":"C#5","midi":73,"time":117.75781249999885,"velocity":0.7244094488188977,"duration":0.1927083333333286},{"name":"F4","midi":65,"time":117.75781249999885,"velocity":0.7244094488188977,"duration":0.5872395833333144},{"name":"G#3","midi":56,"time":117.75781249999885,"velocity":0.7244094488188977,"duration":0.3906249999999858},{"name":"C5","midi":72,"time":117.9557291666655,"velocity":0.7244094488188977,"duration":0.1927083333333286},{"name":"C#5","midi":73,"time":118.15364583333216,"velocity":0.7244094488188977,"duration":0.390625},{"name":"G3","midi":55,"time":118.15364583333216,"velocity":0.7244094488188977,"duration":0.7851562499999858},{"name":"D#4","midi":63,"time":118.35156249999883,"velocity":0.7244094488188977,"duration":0.1927083333333286},{"name":"A#5","midi":82,"time":118.54947916666549,"velocity":0.7244094488188977,"duration":0.3906249999999858},{"name":"C#4","midi":61,"time":118.54947916666549,"velocity":0.7244094488188977,"duration":0.1927083333333286},{"name":"F4","midi":65,"time":118.74739583333215,"velocity":0.7244094488188977,"duration":0.1927083333333286},{"name":"C5","midi":72,"time":118.9453124999988,"velocity":0.7244094488188977,"duration":0.3906249999999858},{"name":"D#4","midi":63,"time":118.9453124999988,"velocity":0.7244094488188977,"duration":0.1927083333333286},{"name":"G#3","midi":56,"time":118.9453124999988,"velocity":0.7244094488188977,"duration":0.7851562499999716},{"name":"C#4","midi":61,"time":119.14192708333213,"velocity":0.7244094488188977,"duration":0.1927083333333286},{"name":"G#5","midi":80,"time":119.33984374999879,"velocity":0.7244094488188977,"duration":0.3906249999999858},{"name":"C4","midi":60,"time":119.33984374999879,"velocity":0.7244094488188977,"duration":0.1927083333333286},{"name":"D#4","midi":63,"time":119.53776041666545,"velocity":0.7244094488188977,"duration":0.1927083333333286},{"name":"A#4","midi":70,"time":119.7356770833321,"velocity":0.7244094488188977,"duration":0.3906249999999858},{"name":"C#4","midi":61,"time":119.7356770833321,"velocity":0.7244094488188977,"duration":0.1927083333333286},{"name":"D#3","midi":51,"time":119.7356770833321,"velocity":0.7244094488188977,"duration":0.7851562499999858},{"name":"C4","midi":60,"time":119.93359374999876,"velocity":0.7244094488188977,"duration":0.1927083333333286},{"name":"G5","midi":79,"time":120.13151041666542,"velocity":0.7244094488188977,"duration":0.390625},{"name":"C#4","midi":61,"time":120.13151041666542,"velocity":0.7244094488188977,"duration":0.1927083333333286},{"name":"A#3","midi":58,"time":120.33072916666542,"velocity":0.7244094488188977,"duration":0.1927083333333286},{"name":"G#4","midi":68,"time":120.52864583333208,"velocity":0.7244094488188977,"duration":0.1927083333333286},{"name":"C4","midi":60,"time":120.52864583333208,"velocity":0.7244094488188977,"duration":0.3906249999999858},{"name":"G#3","midi":56,"time":120.52864583333208,"velocity":0.7244094488188977,"duration":1.180989583333286},{"name":"A#4","midi":70,"time":120.72656249999874,"velocity":0.7244094488188977,"duration":0.1927083333333286},{"name":"C5","midi":72,"time":120.92447916666539,"velocity":0.7244094488188977,"duration":0.1927083333333286},{"name":"D#4","midi":63,"time":120.92447916666539,"velocity":0.7244094488188977,"duration":0.3906249999999858},{"name":"C#5","midi":73,"time":121.12239583333205,"velocity":0.7244094488188977,"duration":0.1927083333333286},{"name":"C5","midi":72,"time":121.3203124999987,"velocity":0.7244094488188977,"duration":0.1927083333333286},{"name":"G#4","midi":68,"time":121.3203124999987,"velocity":0.7244094488188977,"duration":0.3906249999999858},{"name":"A#4","midi":70,"time":121.51822916666536,"velocity":0.7244094488188977,"duration":0.1927083333333286},{"name":"G#4","midi":68,"time":121.71614583333202,"velocity":0.7244094488188977,"duration":0.1927083333333286},{"name":"D#4","midi":63,"time":121.71614583333202,"velocity":0.7244094488188977,"duration":0.1927083333333286},{"name":"C5","midi":72,"time":121.91406249999868,"velocity":0.7244094488188977,"duration":0.1927083333333286},{"name":"C4","midi":60,"time":121.91406249999868,"velocity":0.7244094488188977,"duration":0.1927083333333286},{"name":"F5","midi":77,"time":122.11197916666534,"velocity":0.7244094488188977,"duration":0.1927083333333286},{"name":"G#3","midi":56,"time":122.11197916666534,"velocity":0.7244094488188977,"duration":0.3906249999999858},{"name":"D#5","midi":75,"time":122.30989583333199,"velocity":0.7244094488188977,"duration":0.1927083333333286},{"name":"D5","midi":74,"time":122.50781249999865,"velocity":0.7244094488188977,"duration":0.1927083333333286},{"name":"B3","midi":59,"time":122.50781249999865,"velocity":0.7244094488188977,"duration":0.1927083333333286},{"name":"F5","midi":77,"time":122.70572916666531,"velocity":0.7244094488188977,"duration":0.1927083333333286},{"name":"G#3","midi":56,"time":122.70572916666531,"velocity":0.7244094488188977,"duration":0.1927083333333286},{"name":"G#5","midi":80,"time":122.90364583333196,"velocity":0.7244094488188977,"duration":0.1927083333333286},{"name":"F3","midi":53,"time":122.90364583333196,"velocity":0.7244094488188977,"duration":0.3906249999999858},{"name":"F#5","midi":78,"time":123.10156249999862,"velocity":0.7244094488188977,"duration":0.1927083333333286},{"name":"F5","midi":77,"time":123.29947916666528,"velocity":0.7244094488188977,"duration":0.1927083333333286},{"name":"G#3","midi":56,"time":123.29947916666528,"velocity":0.7244094488188977,"duration":0.1927083333333286},{"name":"G#5","midi":80,"time":123.49739583333194,"velocity":0.7244094488188977,"duration":0.1927083333333286},{"name":"F3","midi":53,"time":123.49739583333194,"velocity":0.7244094488188977,"duration":0.1927083333333286},{"name":"G#5","midi":80,"time":123.6953124999986,"velocity":0.7244094488188977,"duration":0.09375},{"name":"D3","midi":50,"time":123.6953124999986,"velocity":0.7244094488188977,"duration":0.3906249999999858},{"name":"A#5","midi":82,"time":123.79427083333192,"velocity":0.7244094488188977,"duration":0.09375},{"name":"B5","midi":83,"time":123.89322916666525,"velocity":0.7244094488188977,"duration":0.1927083333333286},{"name":"A#5","midi":82,"time":124.08984374999858,"velocity":0.7244094488188977,"duration":0.1927083333333286},{"name":"F3","midi":53,"time":124.08984374999858,"velocity":0.7244094488188977,"duration":0.1927083333333286},{"name":"G#5","midi":80,"time":124.28776041666524,"velocity":0.7244094488188977,"duration":0.1927083333333286},{"name":"G#3","midi":56,"time":124.28776041666524,"velocity":0.7244094488188977,"duration":0.1927083333333286},{"name":"F#5","midi":78,"time":124.4856770833319,"velocity":0.7244094488188977,"duration":0.1927083333333286},{"name":"B3","midi":59,"time":124.4856770833319,"velocity":0.7244094488188977,"duration":0.7825520833333002},{"name":"F5","midi":77,"time":124.68359374999855,"velocity":0.7244094488188977,"duration":0.1927083333333286},{"name":"D#5","midi":75,"time":124.88151041666521,"velocity":0.7244094488188977,"duration":0.1927083333333286},{"name":"F3","midi":53,"time":124.88151041666521,"velocity":0.7244094488188977,"duration":0.3906249999999858},{"name":"D5","midi":74,"time":125.07942708333186,"velocity":0.7244094488188977,"duration":0.1940104166666572},{"name":"D#5","midi":75,"time":125.2799479166652,"velocity":0.7244094488188977,"duration":0.1927083333333286},{"name":"A#3","midi":58,"time":125.2799479166652,"velocity":0.7244094488188977,"duration":0.3906249999999858},{"name":"F#3","midi":54,"time":125.2799479166652,"velocity":0.7244094488188977,"duration":0.3906249999999858},{"name":"F#5","midi":78,"time":125.47786458333185,"velocity":0.7244094488188977,"duration":0.1927083333333286},{"name":"F5","midi":77,"time":125.67578124999851,"velocity":0.7244094488188977,"duration":0.1927083333333286},{"name":"G#3","midi":56,"time":125.67578124999851,"velocity":0.7244094488188977,"duration":0.3906249999999858},{"name":"B3","midi":59,"time":125.67578124999851,"velocity":0.7244094488188977,"duration":0.3906249999999858},{"name":"D#5","midi":75,"time":125.87369791666517,"velocity":0.7244094488188977,"duration":0.1927083333333286},{"name":"D5","midi":74,"time":126.07161458333182,"velocity":0.7244094488188977,"duration":0.1927083333333286},{"name":"A#3","midi":58,"time":126.07161458333182,"velocity":0.7244094488188977,"duration":0.3906249999999858},{"name":"F5","midi":77,"time":126.26953124999848,"velocity":0.7244094488188977,"duration":0.1927083333333286},{"name":"A#4","midi":70,"time":126.46744791666514,"velocity":0.7244094488188977,"duration":0.1927083333333286},{"name":"D3","midi":50,"time":126.46744791666514,"velocity":0.7244094488188977,"duration":0.3906249999999858},{"name":"A#2","midi":46,"time":126.46744791666514,"velocity":0.7244094488188977,"duration":0.3906249999999858},{"name":"G#4","midi":68,"time":126.6653645833318,"velocity":0.7244094488188977,"duration":0.1927083333333286},{"name":"F#4","midi":66,"time":126.86328124999845,"velocity":0.7244094488188977,"duration":0.1927083333333286},{"name":"D#2","midi":39,"time":126.86328124999845,"velocity":0.7244094488188977,"duration":0.9062499999999574},{"name":"D#3","midi":51,"time":126.86328124999845,"velocity":0.7244094488188977,"duration":0.9062499999999574},{"name":"F4","midi":65,"time":127.06119791666511,"velocity":0.7244094488188977,"duration":0.1927083333333286},{"name":"D#4","midi":63,"time":127.25911458333177,"velocity":0.7244094488188977,"duration":0.1927083333333286},{"name":"D4","midi":62,"time":127.45703124999842,"velocity":0.7244094488188977,"duration":0.1927083333333286},{"name":"D#4","midi":63,"time":127.65494791666508,"velocity":0.7244094488188977,"duration":0.1927083333333286},{"name":"F4","midi":65,"time":127.85286458333174,"velocity":0.7244094488188977,"duration":0.1927083333333286},{"name":"F#4","midi":66,"time":128.0507812499984,"velocity":0.7244094488188977,"duration":0.1927083333333428},{"name":"D#3","midi":51,"time":128.0507812499984,"velocity":0.7244094488188977,"duration":0.3906250000000284},{"name":"G#4","midi":68,"time":128.2486979166651,"velocity":0.7244094488188977,"duration":0.1927083333333428},{"name":"A#4","midi":70,"time":128.44661458333178,"velocity":0.7244094488188977,"duration":0.1927083333333428},{"name":"F#3","midi":54,"time":128.44661458333178,"velocity":0.7244094488188977,"duration":0.1927083333333428},{"name":"G#4","midi":68,"time":128.64453124999847,"velocity":0.7244094488188977,"duration":0.1927083333333428},{"name":"F3","midi":53,"time":128.64453124999847,"velocity":0.7244094488188977,"duration":0.1927083333333428},{"name":"F#4","midi":66,"time":128.8411458333318,"velocity":0.7244094488188977,"duration":0.1927083333333428},{"name":"D#3","midi":51,"time":128.8411458333318,"velocity":0.7244094488188977,"duration":0.1927083333333428},{"name":"G#4","midi":68,"time":129.0390624999985,"velocity":0.7244094488188977,"duration":0.1927083333333428},{"name":"F3","midi":53,"time":129.0390624999985,"velocity":0.7244094488188977,"duration":0.1927083333333428},{"name":"A#4","midi":70,"time":129.23697916666518,"velocity":0.7244094488188977,"duration":0.1927083333333428},{"name":"C#4","midi":61,"time":129.23697916666518,"velocity":0.7244094488188977,"duration":0.3906250000000284},{"name":"G#4","midi":68,"time":129.43489583333186,"velocity":0.7244094488188977,"duration":0.1927083333333428},{"name":"F#4","midi":66,"time":129.63411458333186,"velocity":0.7244094488188977,"duration":0.1927083333333428},{"name":"A#3","midi":58,"time":129.63411458333186,"velocity":0.7244094488188977,"duration":0.3906250000000284},{"name":"F4","midi":65,"time":129.83203124999855,"velocity":0.7244094488188977,"duration":0.1927083333333428},{"name":"F#4","midi":66,"time":130.02994791666524,"velocity":0.7244094488188977,"duration":0.1927083333333428},{"name":"F3","midi":53,"time":130.02994791666524,"velocity":0.7244094488188977,"duration":0.3906250000000284},{"name":"F4","midi":65,"time":130.22786458333192,"velocity":0.7244094488188977,"duration":0.1927083333333428},{"name":"F#4","midi":66,"time":130.4257812499986,"velocity":0.7244094488188977,"duration":0.5872395833333712},{"name":"D#3","midi":51,"time":130.4257812499986,"velocity":0.7244094488188977,"duration":0.1927083333333428},{"name":"C#3","midi":49,"time":130.6236979166653,"velocity":0.7244094488188977,"duration":0.1927083333333428},{"name":"D#3","midi":51,"time":130.82161458333198,"velocity":0.7244094488188977,"duration":0.390625},{"name":"F4","midi":65,"time":131.01953124999864,"velocity":0.7244094488188977,"duration":0.1927083333333428},{"name":"D#4","midi":63,"time":131.21744791666532,"velocity":0.7244094488188977,"duration":0.1927083333333428},{"name":"C4","midi":60,"time":131.21744791666532,"velocity":0.7244094488188977,"duration":0.3906250000000284},{"name":"F#4","midi":66,"time":131.415364583332,"velocity":0.7244094488188977,"duration":0.1927083333333428},{"name":"F4","midi":65,"time":131.6132812499987,"velocity":0.7244094488188977,"duration":0.1927083333333428},{"name":"C#3","midi":49,"time":131.6132812499987,"velocity":0.7244094488188977,"duration":0.3906250000000284},{"name":"D#4","midi":63,"time":131.81119791666538,"velocity":0.7244094488188977,"duration":0.1927083333333428},{"name":"C#4","midi":61,"time":132.00911458333206,"velocity":0.7244094488188977,"duration":0.1927083333333428},{"name":"A#3","midi":58,"time":132.00911458333206,"velocity":0.7244094488188977,"duration":0.3906250000000284},{"name":"F4","midi":65,"time":132.20703124999875,"velocity":0.7244094488188977,"duration":0.1927083333333428},{"name":"D#4","midi":63,"time":132.40494791666544,"velocity":0.7244094488188977,"duration":0.1927083333333428},{"name":"C3","midi":48,"time":132.40494791666544,"velocity":0.7244094488188977,"duration":0.3906250000000284},{"name":"C#4","midi":61,"time":132.60286458333212,"velocity":0.7244094488188977,"duration":0.1927083333333428},{"name":"D#4","midi":63,"time":132.8007812499988,"velocity":0.7244094488188977,"duration":0.1927083333333428},{"name":"A3","midi":57,"time":132.8007812499988,"velocity":0.7244094488188977,"duration":0.3906250000000284},{"name":"C4","midi":60,"time":132.9986979166655,"velocity":0.7244094488188977,"duration":0.1927083333333428},{"name":"C#4","midi":61,"time":133.19661458333218,"velocity":0.7244094488188977,"duration":0.1927083333333428},{"name":"A#2","midi":46,"time":133.19661458333218,"velocity":0.7244094488188977,"duration":0.3906250000000284},{"name":"F4","midi":65,"time":133.39453124999886,"velocity":0.7244094488188977,"duration":0.1927083333333428},{"name":"F#4","midi":66,"time":133.59244791666555,"velocity":0.7244094488188977,"duration":0.1927083333333428},{"name":"A#3","midi":58,"time":133.59244791666555,"velocity":0.7244094488188977,"duration":0.1927083333333428},{"name":"F4","midi":65,"time":133.7890624999989,"velocity":0.7244094488188977,"duration":0.1927083333333428},{"name":"A3","midi":57,"time":133.7890624999989,"velocity":0.7244094488188977,"duration":0.1927083333333428},{"name":"C#5","midi":73,"time":133.98697916666558,"velocity":0.7244094488188977,"duration":0.7825520833333712},{"name":"A#3","midi":58,"time":133.98697916666558,"velocity":0.7244094488188977,"duration":0.1927083333333428},{"name":"C4","midi":60,"time":134.18489583333226,"velocity":0.7244094488188977,"duration":0.1927083333333428},{"name":"F4","midi":65,"time":134.38281249999895,"velocity":0.7244094488188977,"duration":0.390625},{"name":"C#4","midi":61,"time":134.38281249999895,"velocity":0.7244094488188977,"duration":0.1927083333333428},{"name":"A#3","midi":58,"time":134.58203124999895,"velocity":0.7244094488188977,"duration":0.1940104166666572},{"name":"A#4","midi":70,"time":134.78124999999895,"velocity":0.7244094488188977,"duration":0.5872395833333712},{"name":"G3","midi":55,"time":134.78124999999895,"velocity":0.7244094488188977,"duration":0.1927083333333428},{"name":"C5","midi":72,"time":134.97916666666563,"velocity":0.7244094488188977,"duration":0.1927083333333428},{"name":"G#3","midi":56,"time":134.97916666666563,"velocity":0.7244094488188977,"duration":0.1927083333333428},{"name":"C#5","midi":73,"time":135.17708333333232,"velocity":0.7244094488188977,"duration":0.1927083333333428},{"name":"A#3","midi":58,"time":135.17708333333232,"velocity":0.7244094488188977,"duration":0.1927083333333428},{"name":"A#4","midi":70,"time":135.374999999999,"velocity":0.7244094488188977,"duration":0.3906250000000284},{"name":"G3","midi":55,"time":135.374999999999,"velocity":0.7244094488188977,"duration":0.1927083333333428},{"name":"A#5","midi":82,"time":135.5729166666657,"velocity":0.7244094488188977,"duration":0.9830729166667425},{"name":"D#3","midi":51,"time":135.5729166666657,"velocity":0.7244094488188977,"duration":0.1927083333333428},{"name":"C#5","midi":73,"time":135.77083333333238,"velocity":0.7244094488188977,"duration":0.1927083333333428},{"name":"F3","midi":53,"time":135.77083333333238,"velocity":0.7244094488188977,"duration":0.1927083333333428},{"name":"D#5","midi":75,"time":135.96874999999906,"velocity":0.7244094488188977,"duration":0.1927083333333428},{"name":"G3","midi":55,"time":135.96874999999906,"velocity":0.7244094488188977,"duration":0.1927083333333428},{"name":"A#4","midi":70,"time":136.16666666666575,"velocity":0.7244094488188977,"duration":0.1927083333333428},{"name":"D#3","midi":51,"time":136.16666666666575,"velocity":0.7244094488188977,"duration":0.1927083333333428},{"name":"C5","midi":72,"time":136.36458333333243,"velocity":0.7244094488188977,"duration":0.7825520833333712},{"name":"G#2","midi":44,"time":136.36458333333243,"velocity":0.7244094488188977,"duration":0.390625},{"name":"D#4","midi":63,"time":136.5624999999991,"velocity":0.7244094488188977,"duration":0.1927083333333428},{"name":"F4","midi":65,"time":136.76041666666578,"velocity":0.7244094488188977,"duration":0.1927083333333428},{"name":"G#3","midi":56,"time":136.76041666666578,"velocity":0.7244094488188977,"duration":0.1927083333333428},{"name":"D#4","midi":63,"time":136.95833333333246,"velocity":0.7244094488188977,"duration":0.19401041666668561},{"name":"G3","midi":55,"time":136.95833333333246,"velocity":0.7244094488188977,"duration":0.19401041666668561},{"name":"C5","midi":72,"time":137.1575520833325,"velocity":0.7244094488188977,"duration":0.7825520833333997},{"name":"G#3","midi":56,"time":137.1575520833325,"velocity":0.7244094488188977,"duration":0.1927083333333428},{"name":"A#3","midi":58,"time":137.35546874999918,"velocity":0.7244094488188977,"duration":0.1927083333333428},{"name":"D#4","midi":63,"time":137.55338541666586,"velocity":0.7244094488188977,"duration":0.3906250000000284},{"name":"C4","midi":60,"time":137.55338541666586,"velocity":0.7244094488188977,"duration":0.1927083333333428},{"name":"G#3","midi":56,"time":137.75130208333255,"velocity":0.7244094488188977,"duration":0.19401041666668561},{"name":"G#4","midi":68,"time":137.9518229166659,"velocity":0.7244094488188977,"duration":0.5872395833333712},{"name":"F3","midi":53,"time":137.9518229166659,"velocity":0.7244094488188977,"duration":0.1927083333333428},{"name":"A#4","midi":70,"time":138.14973958333258,"velocity":0.7244094488188977,"duration":0.1927083333333428},{"name":"G3","midi":55,"time":138.14973958333258,"velocity":0.7244094488188977,"duration":0.1927083333333428},{"name":"C5","midi":72,"time":138.34635416666592,"velocity":0.7244094488188977,"duration":0.1927083333333428},{"name":"G#3","midi":56,"time":138.34635416666592,"velocity":0.7244094488188977,"duration":0.1927083333333428},{"name":"G#4","midi":68,"time":138.5442708333326,"velocity":0.7244094488188977,"duration":0.3906250000000284},{"name":"F3","midi":53,"time":138.5442708333326,"velocity":0.7244094488188977,"duration":0.1927083333333428},{"name":"G#5","midi":80,"time":138.7421874999993,"velocity":0.7244094488188977,"duration":0.9830729166667425},{"name":"C#3","midi":49,"time":138.7421874999993,"velocity":0.7244094488188977,"duration":0.1927083333333428},{"name":"C5","midi":72,"time":138.94010416666598,"velocity":0.7244094488188977,"duration":0.1927083333333428},{"name":"D#3","midi":51,"time":138.94010416666598,"velocity":0.7244094488188977,"duration":0.1927083333333428},{"name":"C#5","midi":73,"time":139.13802083333266,"velocity":0.7244094488188977,"duration":0.1927083333333428},{"name":"F3","midi":53,"time":139.13802083333266,"velocity":0.7244094488188977,"duration":0.1927083333333428},{"name":"G#4","midi":68,"time":139.33593749999935,"velocity":0.7244094488188977,"duration":0.1927083333333428},{"name":"C#3","midi":49,"time":139.33593749999935,"velocity":0.7244094488188977,"duration":0.1927083333333428},{"name":"A#4","midi":70,"time":139.53385416666603,"velocity":0.7244094488188977,"duration":0.7825520833333712},{"name":"G2","midi":43,"time":139.53385416666603,"velocity":0.7244094488188977,"duration":0.390625},{"name":"C#4","midi":61,"time":139.7317708333327,"velocity":0.7244094488188977,"duration":0.1927083333333428},{"name":"D#4","midi":63,"time":139.92968749999937,"velocity":0.7244094488188977,"duration":0.1927083333333428},{"name":"G3","midi":55,"time":139.92968749999937,"velocity":0.7244094488188977,"duration":0.1927083333333428},{"name":"C#4","midi":61,"time":140.12760416666606,"velocity":0.7244094488188977,"duration":0.19401041666668561},{"name":"F3","midi":53,"time":140.12760416666606,"velocity":0.7244094488188977,"duration":0.19401041666668561},{"name":"A#4","midi":70,"time":140.3268229166661,"velocity":0.7244094488188977,"duration":0.7825520833333997},{"name":"G3","midi":55,"time":140.3268229166661,"velocity":0.7244094488188977,"duration":0.1927083333333428},{"name":"G#3","midi":56,"time":140.52473958333277,"velocity":0.7244094488188977,"duration":0.1927083333333428},{"name":"C#4","midi":61,"time":140.72265624999946,"velocity":0.7244094488188977,"duration":0.3906250000000284},{"name":"A#3","midi":58,"time":140.72265624999946,"velocity":0.7244094488188977,"duration":0.1927083333333428},{"name":"G3","midi":55,"time":140.92057291666615,"velocity":0.7244094488188977,"duration":0.19401041666668561},{"name":"G4","midi":67,"time":141.1210937499995,"velocity":0.7244094488188977,"duration":0.1927083333333428},{"name":"E3","midi":52,"time":141.1210937499995,"velocity":0.7244094488188977,"duration":0.1927083333333428},{"name":"G#4","midi":68,"time":141.31901041666617,"velocity":0.7244094488188977,"duration":0.1927083333333428},{"name":"F3","midi":53,"time":141.31901041666617,"velocity":0.7244094488188977,"duration":0.1927083333333428},{"name":"A#4","midi":70,"time":141.51692708333286,"velocity":0.7244094488188977,"duration":0.1927083333333428},{"name":"G3","midi":55,"time":141.51692708333286,"velocity":0.7244094488188977,"duration":0.1927083333333428},{"name":"G4","midi":67,"time":141.71484374999955,"velocity":0.7244094488188977,"duration":0.3906250000000284},{"name":"E3","midi":52,"time":141.71484374999955,"velocity":0.7244094488188977,"duration":0.1927083333333428},{"name":"G5","midi":79,"time":141.91276041666623,"velocity":0.7244094488188977,"duration":0.9830729166667425},{"name":"C3","midi":48,"time":141.91276041666623,"velocity":0.7244094488188977,"duration":0.1927083333333428},{"name":"A#4","midi":70,"time":142.11067708333292,"velocity":0.7244094488188977,"duration":0.1927083333333428},{"name":"D3","midi":50,"time":142.11067708333292,"velocity":0.7244094488188977,"duration":0.1927083333333428},{"name":"C5","midi":72,"time":142.3085937499996,"velocity":0.7244094488188977,"duration":0.1927083333333428},{"name":"E3","midi":52,"time":142.3085937499996,"velocity":0.7244094488188977,"duration":0.1927083333333428},{"name":"G4","midi":67,"time":142.5065104166663,"velocity":0.7244094488188977,"duration":0.1927083333333428},{"name":"C3","midi":48,"time":142.5065104166663,"velocity":0.7244094488188977,"duration":0.1927083333333428},{"name":"G#4","midi":68,"time":142.70442708333297,"velocity":0.7244094488188977,"duration":1.180989583333428},{"name":"F2","midi":41,"time":142.70442708333297,"velocity":0.7244094488188977,"duration":0.1927083333333428},{"name":"E5","midi":76,"time":142.90234374999966,"velocity":0.7244094488188977,"duration":0.1927083333333428},{"name":"G2","midi":43,"time":142.90234374999966,"velocity":0.7244094488188977,"duration":0.1927083333333428},{"name":"F5","midi":77,"time":143.098958333333,"velocity":0.7244094488188977,"duration":0.1927083333333428},{"name":"G#2","midi":44,"time":143.098958333333,"velocity":0.7244094488188977,"duration":0.1927083333333428},{"name":"C#5","midi":73,"time":143.2968749999997,"velocity":0.7244094488188977,"duration":0.1927083333333428},{"name":"A#2","midi":46,"time":143.2968749999997,"velocity":0.7244094488188977,"duration":0.1927083333333428},{"name":"A#4","midi":70,"time":143.49479166666637,"velocity":0.7244094488188977,"duration":1.5768229166667993},{"name":"C3","midi":48,"time":143.49479166666637,"velocity":0.7244094488188977,"duration":0.1927083333333428},{"name":"D3","midi":50,"time":143.69270833333306,"velocity":0.7244094488188977,"duration":0.1927083333333428},{"name":"C4","midi":60,"time":143.89062499999974,"velocity":0.7244094488188977,"duration":0.3906250000000284},{"name":"E3","midi":52,"time":143.89062499999974,"velocity":0.7244094488188977,"duration":0.1927083333333428},{"name":"C3","midi":48,"time":144.08854166666643,"velocity":0.7244094488188977,"duration":0.1927083333333428},{"name":"C#4","midi":61,"time":144.28645833333312,"velocity":0.7244094488188977,"duration":0.1927083333333428},{"name":"F3","midi":53,"time":144.28645833333312,"velocity":0.7244094488188977,"duration":0.1927083333333428},{"name":"C4","midi":60,"time":144.4843749999998,"velocity":0.7244094488188977,"duration":0.1927083333333428},{"name":"E3","midi":52,"time":144.4843749999998,"velocity":0.7244094488188977,"duration":0.1927083333333428},{"name":"B3","midi":59,"time":144.6822916666665,"velocity":0.7244094488188977,"duration":0.1927083333333428},{"name":"D3","midi":50,"time":144.6822916666665,"velocity":0.7244094488188977,"duration":0.1927083333333428},{"name":"C4","midi":60,"time":144.88020833333317,"velocity":0.7244094488188977,"duration":0.5872395833333712},{"name":"E3","midi":52,"time":144.88020833333317,"velocity":0.7244094488188977,"duration":0.1927083333333428},{"name":"G#4","midi":68,"time":145.07812499999986,"velocity":0.7244094488188977,"duration":1.5768229166667709},{"name":"F3","midi":53,"time":145.07812499999986,"velocity":0.7244094488188977,"duration":0.1927083333333428},{"name":"D#3","midi":51,"time":145.27604166666654,"velocity":0.7244094488188977,"duration":0.1927083333333428},{"name":"F4","midi":65,"time":145.47395833333323,"velocity":0.7244094488188977,"duration":0.3906250000000284},{"name":"C#3","midi":49,"time":145.47395833333323,"velocity":0.7244094488188977,"duration":0.1927083333333428},{"name":"C3","midi":48,"time":145.67187499999991,"velocity":0.7244094488188977,"duration":0.1927083333333428},{"name":"C4","midi":60,"time":145.87109374999991,"velocity":0.7244094488188977,"duration":0.3906250000000284},{"name":"C#3","midi":49,"time":145.87109374999991,"velocity":0.7244094488188977,"duration":0.1927083333333428},{"name":"C3","midi":48,"time":146.0690104166666,"velocity":0.7244094488188977,"duration":0.1927083333333428},{"name":"A#3","midi":58,"time":146.2669270833333,"velocity":0.7244094488188977,"duration":0.1927083333333428},{"name":"C#3","midi":49,"time":146.2669270833333,"velocity":0.7244094488188977,"duration":0.5872395833333428},{"name":"G#3","midi":56,"time":146.46484374999997,"velocity":0.7244094488188977,"duration":0.19270833333331439},{"name":"G4","midi":67,"time":146.66276041666663,"velocity":0.7244094488188977,"duration":0.390625},{"name":"A#3","midi":58,"time":146.66276041666663,"velocity":0.7244094488188977,"duration":0.390625},{"name":"C3","midi":48,"time":146.8606770833333,"velocity":0.7244094488188977,"duration":0.1927083333333428},{"name":"G4","midi":67,"time":147.05859374999997,"velocity":0.7244094488188977,"duration":0.7825520833333997},{"name":"A#2","midi":46,"time":147.05859374999997,"velocity":0.7244094488188977,"duration":0.1927083333333428},{"name":"C#3","midi":49,"time":147.25651041666666,"velocity":0.7244094488188977,"duration":0.1927083333333428},{"name":"G#3","midi":56,"time":147.45442708333334,"velocity":0.7244094488188977,"duration":0.3906250000000284},{"name":"C3","midi":48,"time":147.45442708333334,"velocity":0.7244094488188977,"duration":0.1927083333333428},{"name":"A#2","midi":46,"time":147.65234375000003,"velocity":0.7244094488188977,"duration":0.19401041666668561},{"name":"F4","midi":65,"time":147.85156250000006,"velocity":0.7244094488188977,"duration":0.3906250000000284},{"name":"G#2","midi":44,"time":147.85156250000006,"velocity":0.7244094488188977,"duration":0.1927083333333428},{"name":"C3","midi":48,"time":148.0481770833334,"velocity":0.7244094488188977,"duration":0.1927083333333428},{"name":"E4","midi":64,"time":148.24609375000009,"velocity":0.7244094488188977,"duration":0.3906250000000284},{"name":"G3","midi":55,"time":148.24609375000009,"velocity":0.7244094488188977,"duration":0.3906250000000284},{"name":"A#2","midi":46,"time":148.24609375000009,"velocity":0.7244094488188977,"duration":0.1927083333333428},{"name":"G#2","midi":44,"time":148.44401041666677,"velocity":0.7244094488188977,"duration":0.1927083333333428},{"name":"G4","midi":67,"time":148.64192708333346,"velocity":0.7244094488188977,"duration":0.3906250000000284},{"name":"E4","midi":64,"time":148.64192708333346,"velocity":0.7244094488188977,"duration":0.3906250000000284},{"name":"A#2","midi":46,"time":148.64192708333346,"velocity":0.7244094488188977,"duration":0.1927083333333428},{"name":"G2","midi":43,"time":148.83984375000014,"velocity":0.7244094488188977,"duration":0.1927083333333428},{"name":"C5","midi":72,"time":149.03776041666683,"velocity":0.7244094488188977,"duration":0.1927083333333428},{"name":"F3","midi":53,"time":149.03776041666683,"velocity":0.7244094488188977,"duration":1.180989583333428},{"name":"G#2","midi":44,"time":149.03776041666683,"velocity":0.7244094488188977,"duration":0.3906250000000284},{"name":"A#4","midi":70,"time":149.2356770833335,"velocity":0.7244094488188977,"duration":0.1927083333333428},{"name":"G#4","midi":68,"time":149.4335937500002,"velocity":0.7244094488188977,"duration":0.1927083333333428},{"name":"C#3","midi":49,"time":149.4335937500002,"velocity":0.7244094488188977,"duration":0.3906250000000284},{"name":"C5","midi":72,"time":149.63151041666688,"velocity":0.7244094488188977,"duration":0.1927083333333428},{"name":"A#4","midi":70,"time":149.82942708333357,"velocity":0.7244094488188977,"duration":0.1927083333333428},{"name":"G2","midi":43,"time":149.82942708333357,"velocity":0.7244094488188977,"duration":0.3906250000000284},{"name":"G#4","midi":68,"time":150.02734375000026,"velocity":0.7244094488188977,"duration":0.1927083333333428},{"name":"G4","midi":67,"time":150.22656250000026,"velocity":0.7244094488188977,"duration":0.1927083333333428},{"name":"E3","midi":52,"time":150.22656250000026,"velocity":0.7244094488188977,"duration":0.3906250000000284},{"name":"C3","midi":48,"time":150.22656250000026,"velocity":0.7244094488188977,"duration":0.3906250000000284},{"name":"A#4","midi":70,"time":150.42447916666694,"velocity":0.7244094488188977,"duration":0.1927083333333428},{"name":"G#4","midi":68,"time":150.62239583333363,"velocity":0.7244094488188977,"duration":0.1927083333333428},{"name":"F3","midi":53,"time":150.62239583333363,"velocity":0.7244094488188977,"duration":0.3906250000000284},{"name":"F2","midi":41,"time":150.62239583333363,"velocity":0.7244094488188977,"duration":0.3906250000000284},{"name":"F4","midi":65,"time":150.8203125000003,"velocity":0.7244094488188977,"duration":0.1927083333333428},{"name":"C#5","midi":73,"time":151.018229166667,"velocity":0.7244094488188977,"duration":0.1927083333333428},{"name":"E3","midi":52,"time":151.018229166667,"velocity":0.7244094488188977,"duration":0.3906250000000284},{"name":"A#2","midi":46,"time":151.018229166667,"velocity":0.7244094488188977,"duration":0.3906250000000284},{"name":"A#4","midi":70,"time":151.21614583333368,"velocity":0.7244094488188977,"duration":0.1927083333333428},{"name":"C5","midi":72,"time":151.41406250000037,"velocity":0.7244094488188977,"duration":0.1927083333333428},{"name":"F3","midi":53,"time":151.41406250000037,"velocity":0.7244094488188977,"duration":0.3906250000000284},{"name":"G#2","midi":44,"time":151.41406250000037,"velocity":0.7244094488188977,"duration":0.3906250000000284},{"name":"G#4","midi":68,"time":151.61197916666706,"velocity":0.7244094488188977,"duration":0.1927083333333428},{"name":"F#5","midi":78,"time":151.80989583333374,"velocity":0.7244094488188977,"duration":0.1927083333333428},{"name":"A#3","midi":58,"time":151.80989583333374,"velocity":0.7244094488188977,"duration":0.3906250000000284},{"name":"C#3","midi":49,"time":151.80989583333374,"velocity":0.7244094488188977,"duration":0.3906250000000284},{"name":"E5","midi":76,"time":152.00781250000043,"velocity":0.7244094488188977,"duration":0.1927083333333428},{"name":"E5","midi":76,"time":152.2057291666671,"velocity":0.7244094488188977,"duration":0.1927083333333428},{"name":"G#3","midi":56,"time":152.2057291666671,"velocity":0.7244094488188977,"duration":0.3906250000000284},{"name":"C3","midi":48,"time":152.2057291666671,"velocity":0.7244094488188977,"duration":1.5768229166667709},{"name":"F5","midi":77,"time":152.4036458333338,"velocity":0.7244094488188977,"duration":0.1927083333333428},{"name":"B5","midi":83,"time":152.60156250000048,"velocity":0.7244094488188977,"duration":0.1927083333333428},{"name":"G3","midi":55,"time":152.60156250000048,"velocity":0.7244094488188977,"duration":0.1927083333333428},{"name":"C6","midi":84,"time":152.79947916666717,"velocity":0.7244094488188977,"duration":0.1927083333333428},{"name":"F3","midi":53,"time":152.79947916666717,"velocity":0.7244094488188977,"duration":0.1927083333333428},{"name":"F5","midi":77,"time":152.9960937500005,"velocity":0.7244094488188977,"duration":0.1927083333333428},{"name":"G3","midi":55,"time":152.9960937500005,"velocity":0.7244094488188977,"duration":0.390625},{"name":"E5","midi":76,"time":153.1940104166672,"velocity":0.7244094488188977,"duration":0.09375},{"name":"F5","midi":77,"time":153.29427083333385,"velocity":0.7244094488188977,"duration":0.09375},{"name":"E5","midi":76,"time":153.39192708333385,"velocity":0.7244094488188977,"duration":0.1927083333333428},{"name":"A#3","midi":58,"time":153.39192708333385,"velocity":0.7244094488188977,"duration":0.3906250000000284},{"name":"F5","midi":77,"time":153.58984375000054,"velocity":0.7244094488188977,"duration":0.19140625},{"name":"F5","midi":77,"time":153.78776041666723,"velocity":0.7244094488188977,"duration":1.182291666666714},{"name":"G#3","midi":56,"time":153.78776041666723,"velocity":0.7244094488188977,"duration":0.1927083333333428},{"name":"F3","midi":53,"time":153.78776041666723,"velocity":0.7244094488188977,"duration":0.7578125000000568},{"name":"A#3","midi":58,"time":153.9856770833339,"velocity":0.7244094488188977,"duration":0.1927083333333428},{"name":"C4","midi":60,"time":154.1835937500006,"velocity":0.7244094488188977,"duration":0.1927083333333428},{"name":"G#3","midi":56,"time":154.38151041666728,"velocity":0.7244094488188977,"duration":0.1940104166666572},{"name":"F3","midi":53,"time":154.5820312500006,"velocity":0.7244094488188977,"duration":0.1927083333333428},{"name":"F#3","midi":54,"time":154.77994791666728,"velocity":0.7244094488188977,"duration":0.19270833333331439},{"name":"F5","midi":77,"time":154.97786458333394,"velocity":0.7244094488188977,"duration":0.3906250000000284},{"name":"G#3","midi":56,"time":154.97786458333394,"velocity":0.7244094488188977,"duration":0.1927083333333428},{"name":"F3","midi":53,"time":155.17578125000063,"velocity":0.7244094488188977,"duration":0.1927083333333428},{"name":"B4","midi":71,"time":155.3736979166673,"velocity":0.7244094488188977,"duration":0.1927083333333428},{"name":"D3","midi":50,"time":155.3736979166673,"velocity":0.7244094488188977,"duration":0.1927083333333428},{"name":"A#4","midi":70,"time":155.571614583334,"velocity":0.7244094488188977,"duration":0.1927083333333428},{"name":"D#3","midi":51,"time":155.571614583334,"velocity":0.7244094488188977,"duration":0.1927083333333428},{"name":"G#4","midi":68,"time":155.76953125000068,"velocity":0.7244094488188977,"duration":0.1927083333333428},{"name":"F3","midi":53,"time":155.76953125000068,"velocity":0.7244094488188977,"duration":0.1927083333333428},{"name":"A#4","midi":70,"time":155.96744791666737,"velocity":0.7244094488188977,"duration":0.1927083333333428},{"name":"D3","midi":50,"time":155.96744791666737,"velocity":0.7244094488188977,"duration":0.1927083333333428},{"name":"F5","midi":77,"time":156.16536458333405,"velocity":0.7244094488188977,"duration":0.3906250000000284},{"name":"A#2","midi":46,"time":156.16536458333405,"velocity":0.7244094488188977,"duration":0.1927083333333428},{"name":"D3","midi":50,"time":156.36328125000074,"velocity":0.7244094488188977,"duration":0.1927083333333428},{"name":"D5","midi":74,"time":156.56119791666742,"velocity":0.7244094488188977,"duration":0.3906250000000284},{"name":"F3","midi":53,"time":156.56119791666742,"velocity":0.7244094488188977,"duration":0.1927083333333428},{"name":"A#3","midi":58,"time":156.7591145833341,"velocity":0.7244094488188977,"duration":0.1927083333333428},{"name":"G#4","midi":68,"time":156.9570312500008,"velocity":0.7244094488188977,"duration":0.3906250000000284},{"name":"D#3","midi":51,"time":156.9570312500008,"velocity":0.7244094488188977,"duration":0.1927083333333428},{"name":"F#3","midi":54,"time":157.15494791666748,"velocity":0.7244094488188977,"duration":0.1927083333333428},{"name":"F#4","midi":66,"time":157.35286458333417,"velocity":0.7244094488188977,"duration":0.1927083333333428},{"name":"A#3","midi":58,"time":157.35286458333417,"velocity":0.7244094488188977,"duration":0.1927083333333428},{"name":"F4","midi":65,"time":157.55078125000085,"velocity":0.7244094488188977,"duration":0.1927083333333428},{"name":"D4","midi":62,"time":157.55078125000085,"velocity":0.7244094488188977,"duration":0.1927083333333428},{"name":"F#4","midi":66,"time":157.7473958333342,"velocity":0.7244094488188977,"duration":0.3906250000000284},{"name":"D#4","midi":63,"time":157.7473958333342,"velocity":0.7244094488188977,"duration":0.1927083333333428},{"name":"F4","midi":65,"time":157.94531250000088,"velocity":0.7244094488188977,"duration":0.1927083333333428},{"name":"D#5","midi":75,"time":158.14322916666757,"velocity":0.7244094488188977,"duration":0.3906250000000284},{"name":"F#4","midi":66,"time":158.14322916666757,"velocity":0.7244094488188977,"duration":0.1927083333333428},{"name":"D#4","midi":63,"time":158.34114583333425,"velocity":0.7244094488188977,"duration":0.1927083333333428},{"name":"A4","midi":69,"time":158.53906250000094,"velocity":0.7244094488188977,"duration":0.1927083333333428},{"name":"C4","midi":60,"time":158.53906250000094,"velocity":0.7244094488188977,"duration":0.1927083333333428},{"name":"G#4","midi":68,"time":158.73697916666762,"velocity":0.7244094488188977,"duration":0.1927083333333428},{"name":"C#4","midi":61,"time":158.73697916666762,"velocity":0.7244094488188977,"duration":0.1927083333333428},{"name":"F#4","midi":66,"time":158.9348958333343,"velocity":0.7244094488188977,"duration":0.1927083333333428},{"name":"D#4","midi":63,"time":158.9348958333343,"velocity":0.7244094488188977,"duration":0.1927083333333428},{"name":"G#4","midi":68,"time":159.132812500001,"velocity":0.7244094488188977,"duration":0.1927083333333428},{"name":"C4","midi":60,"time":159.132812500001,"velocity":0.7244094488188977,"duration":0.1927083333333428},{"name":"D#5","midi":75,"time":159.332031250001,"velocity":0.7244094488188977,"duration":0.390625},{"name":"G#3","midi":56,"time":159.332031250001,"velocity":0.7244094488188977,"duration":0.983072916666714},{"name":"G#2","midi":44,"time":159.52994791666765,"velocity":0.7244094488188977,"duration":0.1927083333333428},{"name":"C5","midi":72,"time":159.72786458333434,"velocity":0.7244094488188977,"duration":0.3906250000000284},{"name":"A#2","midi":46,"time":159.72786458333434,"velocity":0.7244094488188977,"duration":0.1927083333333428},{"name":"C3","midi":48,"time":159.92578125000102,"velocity":0.7244094488188977,"duration":0.1927083333333428},{"name":"F#4","midi":66,"time":160.1236979166677,"velocity":0.7244094488188977,"duration":0.390625},{"name":"C#3","midi":49,"time":160.1236979166677,"velocity":0.7244094488188977,"duration":0.983072916666714},{"name":"G#3","midi":56,"time":160.32161458333437,"velocity":0.7244094488188977,"duration":0.1927083333333428},{"name":"F4","midi":65,"time":160.51953125000105,"velocity":0.7244094488188977,"duration":0.1927083333333428},{"name":"A#3","midi":58,"time":160.51953125000105,"velocity":0.7244094488188977,"duration":0.1927083333333428},{"name":"D#4","midi":63,"time":160.71744791666774,"velocity":0.7244094488188977,"duration":0.1927083333333428},{"name":"C4","midi":60,"time":160.71744791666774,"velocity":0.7244094488188977,"duration":0.1927083333333428},{"name":"F4","midi":65,"time":160.91536458333442,"velocity":0.7244094488188977,"duration":0.1927083333333428},{"name":"C#4","midi":61,"time":160.91536458333442,"velocity":0.7244094488188977,"duration":0.9882812500000853},{"name":"G#4","midi":68,"time":161.1132812500011,"velocity":0.7244094488188977,"duration":0.1927083333333428},{"name":"D#3","midi":51,"time":161.1132812500011,"velocity":0.7244094488188977,"duration":0.1927083333333428},{"name":"C#5","midi":73,"time":161.3111979166678,"velocity":0.7244094488188977,"duration":0.1927083333333428},{"name":"F3","midi":53,"time":161.3111979166678,"velocity":0.7244094488188977,"duration":0.1927083333333428},{"name":"D#5","midi":75,"time":161.50911458333448,"velocity":0.7244094488188977,"duration":0.1927083333333428},{"name":"G3","midi":55,"time":161.50911458333448,"velocity":0.7244094488188977,"duration":0.1927083333333428},{"name":"F5","midi":77,"time":161.70703125000117,"velocity":0.7244094488188977,"duration":0.1927083333333428},{"name":"G#3","midi":56,"time":161.70703125000117,"velocity":0.7244094488188977,"duration":0.1927083333333428},{"name":"D#5","midi":75,"time":161.90494791666785,"velocity":0.7244094488188977,"duration":0.1927083333333428},{"name":"G3","midi":55,"time":161.90494791666785,"velocity":0.7244094488188977,"duration":0.1927083333333428},{"name":"C#5","midi":73,"time":162.10286458333454,"velocity":0.7244094488188977,"duration":0.1927083333333428},{"name":"F3","midi":53,"time":162.10286458333454,"velocity":0.7244094488188977,"duration":0.1927083333333428},{"name":"D#5","midi":75,"time":162.30078125000122,"velocity":0.7244094488188977,"duration":0.1927083333333428},{"name":"G3","midi":55,"time":162.30078125000122,"velocity":0.7244094488188977,"duration":0.1927083333333428},{"name":"C6","midi":84,"time":162.4986979166679,"velocity":0.7244094488188977,"duration":0.3906250000000284},{"name":"C5","midi":72,"time":162.4986979166679,"velocity":0.7244094488188977,"duration":1.1822916666667709},{"name":"G#3","midi":56,"time":162.4986979166679,"velocity":0.7244094488188977,"duration":0.1927083333333428},{"name":"G3","midi":55,"time":162.69531250000125,"velocity":0.7244094488188977,"duration":0.1927083333333428},{"name":"G#5","midi":80,"time":162.89322916666794,"velocity":0.7244094488188977,"duration":0.3906250000000284},{"name":"F3","midi":53,"time":162.89322916666794,"velocity":0.7244094488188977,"duration":0.1927083333333428},{"name":"D#3","midi":51,"time":163.09114583333462,"velocity":0.7244094488188977,"duration":0.1927083333333428},{"name":"D#5","midi":75,"time":163.2890625000013,"velocity":0.7244094488188977,"duration":0.3906250000000284},{"name":"F3","midi":53,"time":163.2890625000013,"velocity":0.7244094488188977,"duration":0.1927083333333428},{"name":"D#3","midi":51,"time":163.486979166668,"velocity":0.7244094488188977,"duration":0.1927083333333428},{"name":"C#5","midi":73,"time":163.68359375000134,"velocity":0.7244094488188977,"duration":0.1927083333333428},{"name":"F3","midi":53,"time":163.68359375000134,"velocity":0.7244094488188977,"duration":0.5872395833333712},{"name":"C5","midi":72,"time":163.88151041666802,"velocity":0.7244094488188977,"duration":0.1927083333333428},{"name":"C#5","midi":73,"time":164.0794270833347,"velocity":0.7244094488188977,"duration":0.390625},{"name":"A#4","midi":70,"time":164.0794270833347,"velocity":0.7244094488188977,"duration":1.1809895833333712},{"name":"D#3","midi":51,"time":164.27734375000136,"velocity":0.7244094488188977,"duration":0.1927083333333428},{"name":"A#5","midi":82,"time":164.47526041666805,"velocity":0.7244094488188977,"duration":0.3906250000000284},{"name":"C#3","midi":49,"time":164.47526041666805,"velocity":0.7244094488188977,"duration":0.1927083333333428},{"name":"F3","midi":53,"time":164.67317708333474,"velocity":0.7244094488188977,"duration":0.1927083333333428},{"name":"C5","midi":72,"time":164.87109375000142,"velocity":0.7244094488188977,"duration":0.390625},{"name":"D#3","midi":51,"time":164.87109375000142,"velocity":0.7244094488188977,"duration":0.1927083333333428},{"name":"C#3","midi":49,"time":165.07031250000142,"velocity":0.7244094488188977,"duration":0.1927083333333428},{"name":"G#5","midi":80,"time":165.2682291666681,"velocity":0.7244094488188977,"duration":0.3906250000000284},{"name":"G#4","midi":68,"time":165.2682291666681,"velocity":0.7244094488188977,"duration":0.3906250000000284},{"name":"C3","midi":48,"time":165.2682291666681,"velocity":0.7244094488188977,"duration":0.1927083333333428},{"name":"D#3","midi":51,"time":165.4661458333348,"velocity":0.7244094488188977,"duration":0.1927083333333428},{"name":"A#4","midi":70,"time":165.66406250000148,"velocity":0.7244094488188977,"duration":0.3906250000000284},{"name":"G4","midi":67,"time":165.66406250000148,"velocity":0.7244094488188977,"duration":0.3906250000000284},{"name":"C#3","midi":49,"time":165.66406250000148,"velocity":0.7244094488188977,"duration":0.1927083333333428},{"name":"C3","midi":48,"time":165.86197916666816,"velocity":0.7244094488188977,"duration":0.1927083333333428},{"name":"G5","midi":79,"time":166.05989583333485,"velocity":0.7244094488188977,"duration":0.3906250000000284},{"name":"A#4","midi":70,"time":166.05989583333485,"velocity":0.7244094488188977,"duration":0.3906250000000284},{"name":"A#2","midi":46,"time":166.05989583333485,"velocity":0.7244094488188977,"duration":0.1927083333333428},{"name":"C#3","midi":49,"time":166.25781250000153,"velocity":0.7244094488188977,"duration":0.1927083333333428},{"name":"G#4","midi":68,"time":166.45572916666822,"velocity":0.7244094488188977,"duration":0.1927083333333428},{"name":"D#4","midi":63,"time":166.45572916666822,"velocity":0.7244094488188977,"duration":0.1927083333333428},{"name":"C3","midi":48,"time":166.45572916666822,"velocity":0.7244094488188977,"duration":0.3906250000000284},{"name":"D#4","midi":63,"time":166.6536458333349,"velocity":0.7244094488188977,"duration":0.7825520833333997},{"name":"F4","midi":65,"time":166.8515625000016,"velocity":0.7244094488188977,"duration":0.1927083333333428},{"name":"D#3","midi":51,"time":166.8515625000016,"velocity":0.7244094488188977,"duration":0.3906250000000284},{"name":"G4","midi":67,"time":167.04947916666828,"velocity":0.7244094488188977,"duration":0.1927083333333428},{"name":"G#4","midi":68,"time":167.24739583333496,"velocity":0.7244094488188977,"duration":0.19401041666668561},{"name":"F#3","midi":54,"time":167.24739583333496,"velocity":0.7244094488188977,"duration":1.134114583333428},{"name":"A#4","midi":70,"time":167.446614583335,"velocity":0.7244094488188977,"duration":0.1927083333333428},{"name":"C5","midi":72,"time":167.64322916666833,"velocity":0.7244094488188977,"duration":0.1927083333333428},{"name":"G#3","midi":56,"time":167.64322916666833,"velocity":0.7244094488188977,"duration":0.3906250000000284},{"name":"G#4","midi":68,"time":167.84114583333502,"velocity":0.7244094488188977,"duration":0.1927083333333428},{"name":"C#5","midi":73,"time":168.0390625000017,"velocity":0.7244094488188977,"duration":0.1927083333333428},{"name":"A#3","midi":58,"time":168.0390625000017,"velocity":0.7244094488188977,"duration":0.1927083333333428},{"name":"C5","midi":72,"time":168.2369791666684,"velocity":0.7244094488188977,"duration":0.1927083333333428},{"name":"G#3","midi":56,"time":168.2369791666684,"velocity":0.7244094488188977,"duration":0.1927083333333428},{"name":"A#4","midi":70,"time":168.43489583333508,"velocity":0.7244094488188977,"duration":0.1927083333333428},{"name":"F#3","midi":54,"time":168.43489583333508,"velocity":0.7244094488188977,"duration":0.3906250000000284},{"name":"C5","midi":72,"time":168.63281250000176,"velocity":0.7244094488188977,"duration":0.1927083333333428},{"name":"G#3","midi":56,"time":168.63281250000176,"velocity":0.7244094488188977,"duration":0.1927083333333428},{"name":"C#5","midi":73,"time":168.83072916666845,"velocity":0.7244094488188977,"duration":0.1927083333333428},{"name":"F4","midi":65,"time":168.83072916666845,"velocity":0.7244094488188977,"duration":0.3906250000000284},{"name":"F3","midi":53,"time":168.83072916666845,"velocity":0.7244094488188977,"duration":1.3515625000000853},{"name":"C5","midi":72,"time":169.02864583333513,"velocity":0.7244094488188977,"duration":0.1927083333333428},{"name":"A#4","midi":70,"time":169.22786458333513,"velocity":0.7244094488188977,"duration":0.1927083333333428},{"name":"C#4","midi":61,"time":169.22786458333513,"velocity":0.7244094488188977,"duration":0.3906250000000284},{"name":"G#4","midi":68,"time":169.42578125000182,"velocity":0.7244094488188977,"duration":0.1927083333333428},{"name":"F#4","midi":66,"time":169.6236979166685,"velocity":0.7244094488188977,"duration":0.1927083333333428},{"name":"G#3","midi":56,"time":169.6236979166685,"velocity":0.7244094488188977,"duration":0.3906250000000284},{"name":"G#4","midi":68,"time":169.8216145833352,"velocity":0.7244094488188977,"duration":0.1927083333333428},{"name":"A#4","midi":70,"time":170.01953125000188,"velocity":0.7244094488188977,"duration":0.5872395833333428},{"name":"F#3","midi":54,"time":170.01953125000188,"velocity":0.7244094488188977,"duration":0.19270833333331439},{"name":"F3","midi":53,"time":170.21744791666853,"velocity":0.7244094488188977,"duration":0.1927083333333428},{"name":"F#3","midi":54,"time":170.41536458333522,"velocity":0.7244094488188977,"duration":0.390625},{"name":"D#3","midi":51,"time":170.41536458333522,"velocity":0.7244094488188977,"duration":1.1809895833333997},{"name":"G#4","midi":68,"time":170.61328125000188,"velocity":0.7244094488188977,"duration":0.1927083333333428},{"name":"F#4","midi":66,"time":170.81119791666856,"velocity":0.7244094488188977,"duration":0.1927083333333428},{"name":"D#4","midi":63,"time":170.81119791666856,"velocity":0.7244094488188977,"duration":0.3906250000000284},{"name":"A#4","midi":70,"time":171.00911458333525,"velocity":0.7244094488188977,"duration":0.1927083333333428},{"name":"G#4","midi":68,"time":171.20703125000193,"velocity":0.7244094488188977,"duration":0.1927083333333428},{"name":"F3","midi":53,"time":171.20703125000193,"velocity":0.7244094488188977,"duration":0.3906250000000284},{"name":"F#4","midi":66,"time":171.40494791666862,"velocity":0.7244094488188977,"duration":0.1927083333333428},{"name":"F4","midi":65,"time":171.6028645833353,"velocity":0.7244094488188977,"duration":0.1927083333333428},{"name":"C#4","midi":61,"time":171.6028645833353,"velocity":0.7244094488188977,"duration":0.7851562500000568},{"name":"C#3","midi":49,"time":171.6028645833353,"velocity":0.7244094488188977,"duration":0.3906250000000284},{"name":"G#4","midi":68,"time":171.800781250002,"velocity":0.7244094488188977,"duration":0.1927083333333428},{"name":"F#4","midi":66,"time":171.99869791666868,"velocity":0.7244094488188977,"duration":0.1927083333333428},{"name":"D#3","midi":51,"time":171.99869791666868,"velocity":0.7244094488188977,"duration":0.3906250000000284},{"name":"F4","midi":65,"time":172.19661458333536,"velocity":0.7244094488188977,"duration":0.1927083333333428},{"name":"D#4","midi":63,"time":172.39453125000205,"velocity":0.7244094488188977,"duration":0.1927083333333428},{"name":"C4","midi":60,"time":172.39453125000205,"velocity":0.7244094488188977,"duration":0.3906250000000284},{"name":"G#2","midi":44,"time":172.39453125000205,"velocity":0.7244094488188977,"duration":0.3906250000000284},{"name":"F#4","midi":66,"time":172.5911458333354,"velocity":0.7244094488188977,"duration":0.1927083333333428},{"name":"F4","midi":65,"time":172.78906250000207,"velocity":0.7244094488188977,"duration":0.3906250000000284},{"name":"C#4","midi":61,"time":172.78906250000207,"velocity":0.7244094488188977,"duration":1.1822916666667709},{"name":"C#3","midi":49,"time":172.78906250000207,"velocity":0.7244094488188977,"duration":0.1927083333333428},{"name":"D#3","midi":51,"time":172.98697916666876,"velocity":0.7244094488188977,"duration":0.1927083333333428},{"name":"G#4","midi":68,"time":173.18489583333545,"velocity":0.7244094488188977,"duration":0.3906250000000284},{"name":"F3","midi":53,"time":173.18489583333545,"velocity":0.7244094488188977,"duration":0.1927083333333428},{"name":"F#3","midi":54,"time":173.38281250000213,"velocity":0.7244094488188977,"duration":0.1927083333333428},{"name":"C#5","midi":73,"time":173.58072916666882,"velocity":0.7244094488188977,"duration":0.3906250000000284},{"name":"F3","midi":53,"time":173.58072916666882,"velocity":0.7244094488188977,"duration":0.1927083333333428},{"name":"D#3","midi":51,"time":173.7786458333355,"velocity":0.7244094488188977,"duration":0.1927083333333428},{"name":"G#5","midi":80,"time":173.97526041666885,"velocity":0.7244094488188977,"duration":0.1927083333333428},{"name":"C#3","midi":49,"time":173.97526041666885,"velocity":0.7244094488188977,"duration":0.1927083333333428},{"name":"F5","midi":77,"time":174.17317708333553,"velocity":0.7244094488188977,"duration":0.1927083333333428},{"name":"F3","midi":53,"time":174.17317708333553,"velocity":0.7244094488188977,"duration":0.1927083333333428},{"name":"C#5","midi":73,"time":174.37109375000222,"velocity":0.7244094488188977,"duration":0.3906250000000284},{"name":"A#3","midi":58,"time":174.37109375000222,"velocity":0.7244094488188977,"duration":0.1927083333333428},{"name":"G#3","midi":56,"time":174.5690104166689,"velocity":0.7244094488188977,"duration":0.1927083333333428},{"name":"E5","midi":76,"time":174.7669270833356,"velocity":0.7244094488188977,"duration":0.1927083333333428},{"name":"G3","midi":55,"time":174.7669270833356,"velocity":0.7244094488188977,"duration":0.1927083333333428},{"name":"C#5","midi":73,"time":174.9661458333356,"velocity":0.7244094488188977,"duration":0.1927083333333428},{"name":"A#3","midi":58,"time":174.9661458333356,"velocity":0.7244094488188977,"duration":0.1927083333333428},{"name":"A#4","midi":70,"time":175.16406250000227,"velocity":0.7244094488188977,"duration":0.3906250000000284},{"name":"C#4","midi":61,"time":175.16406250000227,"velocity":0.7244094488188977,"duration":0.1927083333333428},{"name":"B3","midi":59,"time":175.36197916666896,"velocity":0.7244094488188977,"duration":0.1927083333333428},{"name":"C#5","midi":73,"time":175.55989583333564,"velocity":0.7244094488188977,"duration":0.1927083333333428},{"name":"A#3","midi":58,"time":175.55989583333564,"velocity":0.7244094488188977,"duration":0.1927083333333428},{"name":"A#4","midi":70,"time":175.75781250000233,"velocity":0.7244094488188977,"duration":0.1927083333333428},{"name":"C#4","midi":61,"time":175.75781250000233,"velocity":0.7244094488188977,"duration":0.1927083333333428},{"name":"G4","midi":67,"time":175.95572916666902,"velocity":0.7244094488188977,"duration":0.390625},{"name":"C#4","midi":61,"time":175.95572916666902,"velocity":0.7244094488188977,"duration":0.09375},{"name":"D#4","midi":63,"time":176.05338541666902,"velocity":0.7244094488188977,"duration":0.09375},{"name":"E4","midi":64,"time":176.15364583333567,"velocity":0.7244094488188977,"duration":0.1927083333333428},{"name":"A#4","midi":70,"time":176.35156250000236,"velocity":0.7244094488188977,"duration":0.1927083333333428},{"name":"D#4","midi":63,"time":176.35156250000236,"velocity":0.7244094488188977,"duration":0.1927083333333428},{"name":"C#5","midi":73,"time":176.54947916666904,"velocity":0.7244094488188977,"duration":0.1927083333333428},{"name":"C#4","midi":61,"time":176.54947916666904,"velocity":0.7244094488188977,"duration":0.1927083333333428},{"name":"E5","midi":76,"time":176.74739583333573,"velocity":0.7244094488188977,"duration":0.7851562500000568},{"name":"B3","midi":59,"time":176.74739583333573,"velocity":0.7244094488188977,"duration":0.1927083333333428},{"name":"A#3","midi":58,"time":176.94531250000242,"velocity":0.7244094488188977,"duration":0.1927083333333428},{"name":"C#5","midi":73,"time":177.1432291666691,"velocity":0.7244094488188977,"duration":0.3906250000000284},{"name":"G#3","midi":56,"time":177.1432291666691,"velocity":0.7244094488188977,"duration":0.1927083333333428},{"name":"G3","midi":55,"time":177.3411458333358,"velocity":0.7244094488188977,"duration":0.1927083333333428},{"name":"D#5","midi":75,"time":177.53906250000247,"velocity":0.7244094488188977,"duration":0.3906250000000284},{"name":"B4","midi":71,"time":177.53906250000247,"velocity":0.7244094488188977,"duration":0.7851562500000568},{"name":"G#3","midi":56,"time":177.53906250000247,"velocity":0.7244094488188977,"duration":0.1927083333333428},{"name":"B3","midi":59,"time":177.73567708333582,"velocity":0.7244094488188977,"duration":0.1927083333333428},{"name":"G#5","midi":80,"time":177.9335937500025,"velocity":0.7244094488188977,"duration":0.3906250000000284},{"name":"A#3","midi":58,"time":177.9335937500025,"velocity":0.7244094488188977,"duration":0.1927083333333428},{"name":"G#3","midi":56,"time":178.1315104166692,"velocity":0.7244094488188977,"duration":0.1927083333333428},{"name":"C#5","midi":73,"time":178.32942708333587,"velocity":0.7244094488188977,"duration":0.3906250000000284},{"name":"A#4","midi":70,"time":178.32942708333587,"velocity":0.7244094488188977,"duration":0.7851562500000568},{"name":"G3","midi":55,"time":178.32942708333587,"velocity":0.7244094488188977,"duration":0.1927083333333428},{"name":"E3","midi":52,"time":178.52734375000256,"velocity":0.7244094488188977,"duration":0.1927083333333428},{"name":"G5","midi":79,"time":178.72526041666924,"velocity":0.7244094488188977,"duration":0.3906250000000284},{"name":"D#3","midi":51,"time":178.72526041666924,"velocity":0.7244094488188977,"duration":0.1927083333333428},{"name":"C#3","midi":49,"time":178.92317708333593,"velocity":0.7244094488188977,"duration":0.1927083333333428},{"name":"G#4","midi":68,"time":179.12109375000261,"velocity":0.7244094488188977,"duration":0.9882812500000568},{"name":"B2","midi":47,"time":179.12109375000261,"velocity":0.7244094488188977,"duration":0.1927083333333428},{"name":"C#3","midi":49,"time":179.3190104166693,"velocity":0.7244094488188977,"duration":0.1927083333333428},{"name":"G#5","midi":80,"time":179.516927083336,"velocity":0.7244094488188977,"duration":0.1927083333333428},{"name":"D#3","midi":51,"time":179.516927083336,"velocity":0.7244094488188977,"duration":0.1927083333333428},{"name":"G5","midi":79,"time":179.71484375000267,"velocity":0.7244094488188977,"duration":0.1927083333333428},{"name":"B2","midi":47,"time":179.71484375000267,"velocity":0.7244094488188977,"duration":0.1927083333333428},{"name":"G#5","midi":80,"time":179.91406250000267,"velocity":0.7244094488188977,"duration":0.1927083333333428},{"name":"G#2","midi":44,"time":179.91406250000267,"velocity":0.7244094488188977,"duration":0.390625},{"name":"A#5","midi":82,"time":180.11197916666933,"velocity":0.7244094488188977,"duration":0.1927083333333428},{"name":"B5","midi":83,"time":180.30989583333601,"velocity":0.7244094488188977,"duration":0.1927083333333428},{"name":"G#3","midi":56,"time":180.30989583333601,"velocity":0.7244094488188977,"duration":0.1927083333333428},{"name":"G#5","midi":80,"time":180.5078125000027,"velocity":0.7244094488188977,"duration":0.1927083333333428},{"name":"F3","midi":53,"time":180.5078125000027,"velocity":0.7244094488188977,"duration":0.1927083333333428},{"name":"F5","midi":77,"time":180.70572916666939,"velocity":0.7244094488188977,"duration":0.24609375},{"name":"C#3","midi":49,"time":180.70572916666939,"velocity":0.7244094488188977,"duration":0.390625},{"name":"F#5","midi":78,"time":180.90364583333604,"velocity":0.7244094488188977,"duration":0.1927083333333428},{"name":"G#5","midi":80,"time":181.10156250000273,"velocity":0.7244094488188977,"duration":0.1927083333333428},{"name":"B3","midi":59,"time":181.10156250000273,"velocity":0.7244094488188977,"duration":0.1927083333333428},{"name":"F5","midi":77,"time":181.2994791666694,"velocity":0.7244094488188977,"duration":0.1927083333333428},{"name":"G#3","midi":56,"time":181.2994791666694,"velocity":0.7244094488188977,"duration":0.1927083333333428},{"name":"C#5","midi":73,"time":181.4973958333361,"velocity":0.7244094488188977,"duration":0.24609375},{"name":"F3","midi":53,"time":181.4973958333361,"velocity":0.7244094488188977,"duration":0.390625},{"name":"D#5","midi":75,"time":181.69531250000276,"velocity":0.7244094488188977,"duration":0.1927083333333428},{"name":"F5","midi":77,"time":181.89322916666944,"velocity":0.7244094488188977,"duration":0.1927083333333428},{"name":"C#3","midi":49,"time":181.89322916666944,"velocity":0.7244094488188977,"duration":0.1927083333333428},{"name":"C#5","midi":73,"time":182.09114583333613,"velocity":0.7244094488188977,"duration":0.1927083333333428},{"name":"A#2","midi":46,"time":182.09114583333613,"velocity":0.7244094488188977,"duration":0.1927083333333428},{"name":"A#4","midi":70,"time":182.2890625000028,"velocity":0.7244094488188977,"duration":0.24609375},{"name":"F#2","midi":42,"time":182.2890625000028,"velocity":0.7244094488188977,"duration":0.390625},{"name":"C5","midi":72,"time":182.48697916666947,"velocity":0.7244094488188977,"duration":0.1927083333333428},{"name":"C#5","midi":73,"time":182.6835937500028,"velocity":0.7244094488188977,"duration":0.1927083333333428},{"name":"A#3","midi":58,"time":182.6835937500028,"velocity":0.7244094488188977,"duration":0.1927083333333428},{"name":"A#4","midi":70,"time":182.8815104166695,"velocity":0.7244094488188977,"duration":0.1927083333333428},{"name":"F#3","midi":54,"time":182.8815104166695,"velocity":0.7244094488188977,"duration":0.1927083333333428},{"name":"F#5","midi":78,"time":183.07942708333618,"velocity":0.7244094488188977,"duration":0.24609375},{"name":"D#3","midi":51,"time":183.07942708333618,"velocity":0.7244094488188977,"duration":0.390625},{"name":"G#5","midi":80,"time":183.27734375000284,"velocity":0.7244094488188977,"duration":0.1927083333333428},{"name":"A#5","midi":82,"time":183.47526041666953,"velocity":0.7244094488188977,"duration":0.1927083333333428},{"name":"F#3","midi":54,"time":183.47526041666953,"velocity":0.7244094488188977,"duration":0.1927083333333428},{"name":"F#5","midi":78,"time":183.6731770833362,"velocity":0.7244094488188977,"duration":0.1927083333333428},{"name":"D#3","midi":51,"time":183.6731770833362,"velocity":0.7244094488188977,"duration":0.1927083333333428},{"name":"D#5","midi":75,"time":183.8710937500029,"velocity":0.7244094488188977,"duration":0.24609375},{"name":"C3","midi":48,"time":183.8710937500029,"velocity":0.7244094488188977,"duration":0.390625},{"name":"F5","midi":77,"time":184.06901041666956,"velocity":0.7244094488188977,"duration":0.1927083333333428},{"name":"F#5","midi":78,"time":184.26692708333624,"velocity":0.7244094488188977,"duration":0.1927083333333428},{"name":"A#3","midi":58,"time":184.26692708333624,"velocity":0.7244094488188977,"duration":0.1927083333333428},{"name":"D#5","midi":75,"time":184.46484375000293,"velocity":0.7244094488188977,"duration":0.1927083333333428},{"name":"F#3","midi":54,"time":184.46484375000293,"velocity":0.7244094488188977,"duration":0.1927083333333428},{"name":"C5","midi":72,"time":184.6627604166696,"velocity":0.7244094488188977,"duration":0.24609375},{"name":"D#3","midi":51,"time":184.6627604166696,"velocity":0.7244094488188977,"duration":0.390625},{"name":"C#5","midi":73,"time":184.8619791666696,"velocity":0.7244094488188977,"duration":0.1927083333333428},{"name":"D#5","midi":75,"time":185.0598958333363,"velocity":0.7244094488188977,"duration":0.1927083333333428},{"name":"C3","midi":48,"time":185.0598958333363,"velocity":0.7244094488188977,"duration":0.1927083333333428},{"name":"C5","midi":72,"time":185.25781250000298,"velocity":0.7244094488188977,"duration":0.1927083333333428},{"name":"G#2","midi":44,"time":185.25781250000298,"velocity":0.7244094488188977,"duration":0.1927083333333428},{"name":"G#4","midi":68,"time":185.45572916666967,"velocity":0.7244094488188977,"duration":0.24609375},{"name":"F2","midi":41,"time":185.45572916666967,"velocity":0.7244094488188977,"duration":0.390625},{"name":"A#4","midi":70,"time":185.65364583333633,"velocity":0.7244094488188977,"duration":0.1927083333333428},{"name":"C5","midi":72,"time":185.851562500003,"velocity":0.7244094488188977,"duration":0.1927083333333428},{"name":"G#3","midi":56,"time":185.851562500003,"velocity":0.7244094488188977,"duration":0.1927083333333428},{"name":"G#4","midi":68,"time":186.0494791666697,"velocity":0.7244094488188977,"duration":0.1927083333333428},{"name":"F3","midi":53,"time":186.0494791666697,"velocity":0.7244094488188977,"duration":0.1927083333333428},{"name":"F5","midi":77,"time":186.24739583333638,"velocity":0.7244094488188977,"duration":0.24609375},{"name":"D3","midi":50,"time":186.24739583333638,"velocity":0.7244094488188977,"duration":0.390625},{"name":"F#5","midi":78,"time":186.44531250000304,"velocity":0.7244094488188977,"duration":0.1927083333333428},{"name":"G#5","midi":80,"time":186.64322916666973,"velocity":0.7244094488188977,"duration":0.1927083333333428},{"name":"F3","midi":53,"time":186.64322916666973,"velocity":0.7244094488188977,"duration":0.1927083333333428},{"name":"F5","midi":77,"time":186.8411458333364,"velocity":0.7244094488188977,"duration":0.1927083333333428},{"name":"D3","midi":50,"time":186.8411458333364,"velocity":0.7244094488188977,"duration":0.1927083333333428},{"name":"D5","midi":74,"time":187.0390625000031,"velocity":0.7244094488188977,"duration":0.24609375},{"name":"A#2","midi":46,"time":187.0390625000031,"velocity":0.7244094488188977,"duration":0.390625},{"name":"D#5","midi":75,"time":187.23697916666976,"velocity":0.7244094488188977,"duration":0.1927083333333428},{"name":"F5","midi":77,"time":187.43489583333644,"velocity":0.7244094488188977,"duration":0.1927083333333428},{"name":"G#3","midi":56,"time":187.43489583333644,"velocity":0.7244094488188977,"duration":0.1927083333333428},{"name":"D5","midi":74,"time":187.63151041666978,"velocity":0.7244094488188977,"duration":0.1927083333333428},{"name":"F3","midi":53,"time":187.63151041666978,"velocity":0.7244094488188977,"duration":0.1927083333333428},{"name":"A#4","midi":70,"time":187.82942708333647,"velocity":0.7244094488188977,"duration":0.24609375},{"name":"D3","midi":50,"time":187.82942708333647,"velocity":0.7244094488188977,"duration":0.390625},{"name":"C5","midi":72,"time":188.02734375000313,"velocity":0.7244094488188977,"duration":0.1927083333333428},{"name":"D5","midi":74,"time":188.2252604166698,"velocity":0.7244094488188977,"duration":0.1927083333333428},{"name":"A#2","midi":46,"time":188.2252604166698,"velocity":0.7244094488188977,"duration":0.1927083333333428},{"name":"A#4","midi":70,"time":188.4231770833365,"velocity":0.7244094488188977,"duration":0.1927083333333428},{"name":"F#2","midi":42,"time":188.4231770833365,"velocity":0.7244094488188977,"duration":0.1927083333333428},{"name":"F#4","midi":66,"time":188.62109375000318,"velocity":0.7244094488188977,"duration":0.24609375},{"name":"D#2","midi":39,"time":188.62109375000318,"velocity":0.7244094488188977,"duration":0.390625},{"name":"G#4","midi":68,"time":188.81901041666984,"velocity":0.7244094488188977,"duration":0.1927083333333428},{"name":"A#4","midi":70,"time":189.01692708333653,"velocity":0.7244094488188977,"duration":0.1927083333333428},{"name":"F#3","midi":54,"time":189.01692708333653,"velocity":0.7244094488188977,"duration":0.1927083333333428},{"name":"F#4","midi":66,"time":189.2148437500032,"velocity":0.7244094488188977,"duration":0.1927083333333428},{"name":"D#3","midi":51,"time":189.2148437500032,"velocity":0.7244094488188977,"duration":0.1927083333333428},{"name":"D#5","midi":75,"time":189.4127604166699,"velocity":0.7244094488188977,"duration":0.24609375},{"name":"C3","midi":48,"time":189.4127604166699,"velocity":0.7244094488188977,"duration":0.390625},{"name":"F5","midi":77,"time":189.61067708333655,"velocity":0.7244094488188977,"duration":0.1927083333333428},{"name":"F#5","midi":78,"time":189.80989583333655,"velocity":0.7244094488188977,"duration":0.1927083333333428},{"name":"D#3","midi":51,"time":189.80989583333655,"velocity":0.7244094488188977,"duration":0.1927083333333428},{"name":"D#5","midi":75,"time":190.00781250000324,"velocity":0.7244094488188977,"duration":0.1927083333333428},{"name":"C3","midi":48,"time":190.00781250000324,"velocity":0.7244094488188977,"duration":0.1927083333333428},{"name":"C5","midi":72,"time":190.20572916666993,"velocity":0.7244094488188977,"duration":0.24609375},{"name":"G#2","midi":44,"time":190.20572916666993,"velocity":0.7244094488188977,"duration":0.390625},{"name":"C#5","midi":73,"time":190.40364583333658,"velocity":0.7244094488188977,"duration":0.1927083333333428},{"name":"D#5","midi":75,"time":190.60156250000327,"velocity":0.7244094488188977,"duration":0.1927083333333428},{"name":"F#3","midi":54,"time":190.60156250000327,"velocity":0.7244094488188977,"duration":0.1927083333333428},{"name":"C5","midi":72,"time":190.79947916666995,"velocity":0.7244094488188977,"duration":0.1927083333333428},{"name":"D#3","midi":51,"time":190.79947916666995,"velocity":0.7244094488188977,"duration":0.1927083333333428},{"name":"G#4","midi":68,"time":190.99739583333664,"velocity":0.7244094488188977,"duration":0.24609375},{"name":"C3","midi":48,"time":190.99739583333664,"velocity":0.7244094488188977,"duration":0.390625},{"name":"A#4","midi":70,"time":191.1953125000033,"velocity":0.7244094488188977,"duration":0.1927083333333428},{"name":"C5","midi":72,"time":191.39322916666998,"velocity":0.7244094488188977,"duration":0.1927083333333428},{"name":"G#2","midi":44,"time":191.39322916666998,"velocity":0.7244094488188977,"duration":0.1927083333333428},{"name":"G#4","midi":68,"time":191.59114583333667,"velocity":0.7244094488188977,"duration":0.1927083333333428},{"name":"F2","midi":41,"time":191.59114583333667,"velocity":0.7244094488188977,"duration":0.1927083333333428},{"name":"F4","midi":65,"time":191.78906250000335,"velocity":0.7244094488188977,"duration":0.1927083333333428},{"name":"C#2","midi":37,"time":191.78906250000335,"velocity":0.7244094488188977,"duration":1.1822916666667709},{"name":"F#4","midi":66,"time":191.98697916667004,"velocity":0.7244094488188977,"duration":0.1927083333333428},{"name":"G#4","midi":68,"time":192.18489583333672,"velocity":0.7244094488188977,"duration":0.1927083333333428},{"name":"F4","midi":65,"time":192.3828125000034,"velocity":0.7244094488188977,"duration":0.1927083333333428},{"name":"C#4","midi":61,"time":192.57942708333675,"velocity":0.7244094488188977,"duration":0.1927083333333428},{"name":"F4","midi":65,"time":192.77734375000344,"velocity":0.7244094488188977,"duration":0.1927083333333428},{"name":"G#4","midi":68,"time":192.97395833333678,"velocity":0.7244094488188977,"duration":0.1927083333333428},{"name":"A#4","midi":70,"time":193.17187500000347,"velocity":0.7244094488188977,"duration":0.1927083333333428},{"name":"B4","midi":71,"time":193.36979166667015,"velocity":0.7244094488188977,"duration":0.1927083333333428},{"name":"A#4","midi":70,"time":193.56770833333684,"velocity":0.7244094488188977,"duration":0.1927083333333428},{"name":"G#4","midi":68,"time":193.76562500000352,"velocity":0.7244094488188977,"duration":0.1927083333333428},{"name":"B3","midi":59,"time":193.76562500000352,"velocity":0.7244094488188977,"duration":0.1927083333333428},{"name":"A#4","midi":70,"time":193.9635416666702,"velocity":0.7244094488188977,"duration":0.1927083333333428},{"name":"C#3","midi":49,"time":193.9635416666702,"velocity":0.7244094488188977,"duration":0.1927083333333428},{"name":"F#5","midi":78,"time":194.1614583333369,"velocity":0.7244094488188977,"duration":0.3906250000000284},{"name":"A#3","midi":58,"time":194.1614583333369,"velocity":0.7244094488188977,"duration":0.1927083333333428},{"name":"C#3","midi":49,"time":194.35937500000358,"velocity":0.7244094488188977,"duration":0.1927083333333428},{"name":"C#5","midi":73,"time":194.55729166667027,"velocity":0.7244094488188977,"duration":0.3906250000000284},{"name":"G#3","midi":56,"time":194.55729166667027,"velocity":0.7244094488188977,"duration":0.1927083333333428},{"name":"C#3","midi":49,"time":194.75520833333695,"velocity":0.7244094488188977,"duration":0.1927083333333428},{"name":"A#4","midi":70,"time":194.95312500000364,"velocity":0.7244094488188977,"duration":0.3906250000000284},{"name":"F#3","midi":54,"time":194.95312500000364,"velocity":0.7244094488188977,"duration":0.1927083333333428},{"name":"C#3","midi":49,"time":195.15104166667032,"velocity":0.7244094488188977,"duration":0.1927083333333428},{"name":"G#4","midi":68,"time":195.35026041667032,"velocity":0.7244094488188977,"duration":0.1927083333333428},{"name":"F3","midi":53,"time":195.35026041667032,"velocity":0.7244094488188977,"duration":0.1927083333333428},{"name":"F#4","midi":66,"time":195.548177083337,"velocity":0.7244094488188977,"duration":0.1927083333333428},{"name":"D#3","midi":51,"time":195.548177083337,"velocity":0.7244094488188977,"duration":0.1927083333333428},{"name":"G#4","midi":68,"time":195.7460937500037,"velocity":0.7244094488188977,"duration":0.1927083333333428},{"name":"F3","midi":53,"time":195.7460937500037,"velocity":0.7244094488188977,"duration":0.3906250000000284},{"name":"C#4","midi":61,"time":195.94401041667038,"velocity":0.7244094488188977,"duration":0.1927083333333428},{"name":"F4","midi":65,"time":196.14192708333707,"velocity":0.7244094488188977,"duration":0.1927083333333428},{"name":"G#2","midi":44,"time":196.14192708333707,"velocity":0.7244094488188977,"duration":0.3906250000000284},{"name":"G#4","midi":68,"time":196.33984375000375,"velocity":0.7244094488188977,"duration":0.1927083333333428},{"name":"A#4","midi":70,"time":196.53776041667044,"velocity":0.7244094488188977,"duration":0.1927083333333428},{"name":"G#4","midi":68,"time":196.73567708333712,"velocity":0.7244094488188977,"duration":0.1927083333333428},{"name":"F#4","midi":66,"time":196.9335937500038,"velocity":0.7244094488188977,"duration":0.1927083333333428},{"name":"A#3","midi":58,"time":196.9335937500038,"velocity":0.7244094488188977,"duration":0.1927083333333428},{"name":"G#4","midi":68,"time":197.1315104166705,"velocity":0.7244094488188977,"duration":0.1927083333333428},{"name":"C#3","midi":49,"time":197.1315104166705,"velocity":0.7244094488188977,"duration":0.1927083333333428},{"name":"F5","midi":77,"time":197.32942708333718,"velocity":0.7244094488188977,"duration":0.3906250000000284},{"name":"G#3","midi":56,"time":197.32942708333718,"velocity":0.7244094488188977,"duration":0.1927083333333428},{"name":"C#3","midi":49,"time":197.52604166667052,"velocity":0.7244094488188977,"duration":0.1927083333333428},{"name":"C#5","midi":73,"time":197.7239583333372,"velocity":0.7244094488188977,"duration":0.3906250000000284},{"name":"F#3","midi":54,"time":197.7239583333372,"velocity":0.7244094488188977,"duration":0.1927083333333428},{"name":"C#3","midi":49,"time":197.9218750000039,"velocity":0.7244094488188977,"duration":0.1927083333333428},{"name":"G#4","midi":68,"time":198.11979166667058,"velocity":0.7244094488188977,"duration":0.3906250000000284},{"name":"F3","midi":53,"time":198.11979166667058,"velocity":0.7244094488188977,"duration":0.1927083333333428},{"name":"C#3","midi":49,"time":198.31770833333727,"velocity":0.7244094488188977,"duration":0.1927083333333428},{"name":"F#4","midi":66,"time":198.51562500000395,"velocity":0.7244094488188977,"duration":0.1927083333333428},{"name":"D#3","midi":51,"time":198.51562500000395,"velocity":0.7244094488188977,"duration":0.1927083333333428},{"name":"F4","midi":65,"time":198.71354166667064,"velocity":0.7244094488188977,"duration":0.1927083333333428},{"name":"C#3","midi":49,"time":198.71354166667064,"velocity":0.7244094488188977,"duration":0.1927083333333428},{"name":"F#4","midi":66,"time":198.91145833333732,"velocity":0.7244094488188977,"duration":0.1927083333333428},{"name":"D#3","midi":51,"time":198.91145833333732,"velocity":0.7244094488188977,"duration":0.3906250000000284},{"name":"C4","midi":60,"time":199.109375000004,"velocity":0.7244094488188977,"duration":0.1927083333333428},{"name":"D#4","midi":63,"time":199.3072916666707,"velocity":0.7244094488188977,"duration":0.1927083333333428},{"name":"G#2","midi":44,"time":199.3072916666707,"velocity":0.7244094488188977,"duration":0.576822916666714},{"name":"F#4","midi":66,"time":199.50520833333738,"velocity":0.7244094488188977,"duration":0.1927083333333428},{"name":"G#4","midi":68,"time":199.70312500000406,"velocity":0.7244094488188977,"duration":0.19401041666668561},{"name":"F#4","midi":66,"time":199.9036458333374,"velocity":0.7244094488188977,"duration":0.1927083333333428},{"name":"F4","midi":65,"time":200.1015625000041,"velocity":0.7244094488188977,"duration":0.1927083333333428},{"name":"G#3","midi":56,"time":200.1015625000041,"velocity":0.7244094488188977,"duration":0.1927083333333428},{"name":"F#4","midi":66,"time":200.29947916667078,"velocity":0.7244094488188977,"duration":0.1927083333333428},{"name":"G#2","midi":44,"time":200.29947916667078,"velocity":0.7244094488188977,"duration":0.1927083333333428},{"name":"D#5","midi":75,"time":200.49739583333746,"velocity":0.7244094488188977,"duration":0.3906250000000284},{"name":"F#3","midi":54,"time":200.49739583333746,"velocity":0.7244094488188977,"duration":0.1927083333333428},{"name":"G#2","midi":44,"time":200.69531250000415,"velocity":0.7244094488188977,"duration":0.1927083333333428},{"name":"C5","midi":72,"time":200.89322916667084,"velocity":0.7244094488188977,"duration":0.3906250000000284},{"name":"F3","midi":53,"time":200.89322916667084,"velocity":0.7244094488188977,"duration":0.1927083333333428},{"name":"G#2","midi":44,"time":201.09114583333752,"velocity":0.7244094488188977,"duration":0.1927083333333428},{"name":"F#4","midi":66,"time":201.2890625000042,"velocity":0.7244094488188977,"duration":0.390625},{"name":"D#3","midi":51,"time":201.2890625000042,"velocity":0.7244094488188977,"duration":0.24609375},{"name":"G#2","midi":44,"time":201.48697916667086,"velocity":0.7244094488188977,"duration":0.1927083333333428},{"name":"F4","midi":65,"time":201.68489583333755,"velocity":0.7244094488188977,"duration":0.1927083333333428},{"name":"C#3","midi":49,"time":201.68489583333755,"velocity":0.7244094488188977,"duration":0.1927083333333428},{"name":"D#4","midi":63,"time":201.88281250000423,"velocity":0.7244094488188977,"duration":0.1927083333333428},{"name":"C3","midi":48,"time":201.88281250000423,"velocity":0.7244094488188977,"duration":0.1927083333333428},{"name":"F4","midi":65,"time":202.08072916667092,"velocity":0.7244094488188977,"duration":0.1927083333333428},{"name":"C#3","midi":49,"time":202.08072916667092,"velocity":0.7244094488188977,"duration":0.3281250000000284},{"name":"G#4","midi":68,"time":202.2786458333376,"velocity":0.7244094488188977,"duration":0.19401041666668561},{"name":"G#2","midi":44,"time":202.2786458333376,"velocity":0.7244094488188977,"duration":0.19401041666668561},{"name":"A#4","midi":70,"time":202.4765625000043,"velocity":0.7244094488188977,"duration":0.1927083333333428},{"name":"F3","midi":53,"time":202.4765625000043,"velocity":0.7244094488188977,"duration":0.1927083333333428},{"name":"C5","midi":72,"time":202.67447916667098,"velocity":0.7244094488188977,"duration":0.1927083333333428},{"name":"D#3","midi":51,"time":202.67447916667098,"velocity":0.7244094488188977,"duration":0.1927083333333428},{"name":"C#5","midi":73,"time":202.87239583333766,"velocity":0.7244094488188977,"duration":0.1927083333333428},{"name":"F3","midi":53,"time":202.87239583333766,"velocity":0.7244094488188977,"duration":0.3906250000000284},{"name":"D#5","midi":75,"time":203.07031250000435,"velocity":0.7244094488188977,"duration":0.1927083333333428},{"name":"G#2","midi":44,"time":203.07031250000435,"velocity":0.7244094488188977,"duration":0.1927083333333428},{"name":"F5","midi":77,"time":203.26822916667103,"velocity":0.7244094488188977,"duration":0.1927083333333428},{"name":"G#3","midi":56,"time":203.26822916667103,"velocity":0.7244094488188977,"duration":0.1927083333333428},{"name":"D#5","midi":75,"time":203.46614583333772,"velocity":0.7244094488188977,"duration":0.1927083333333428},{"name":"F#3","midi":54,"time":203.46614583333772,"velocity":0.7244094488188977,"duration":0.1927083333333428},{"name":"F#5","midi":78,"time":203.6640625000044,"velocity":0.7244094488188977,"duration":0.1927083333333428},{"name":"G#3","midi":56,"time":203.6640625000044,"velocity":0.7244094488188977,"duration":0.328125},{"name":"F5","midi":77,"time":203.8632812500044,"velocity":0.7244094488188977,"duration":0.1940104166666572},{"name":"G#2","midi":44,"time":203.8632812500044,"velocity":0.7244094488188977,"duration":0.1940104166666572},{"name":"D#5","midi":75,"time":204.0625000000044,"velocity":0.7244094488188977,"duration":0.1927083333333428},{"name":"A#3","midi":58,"time":204.0625000000044,"velocity":0.7244094488188977,"duration":0.3281250000000284},{"name":"C#5","midi":73,"time":204.2604166666711,"velocity":0.7244094488188977,"duration":0.19401041666668561},{"name":"G#2","midi":44,"time":204.2604166666711,"velocity":0.7244094488188977,"duration":0.19401041666668561},{"name":"G5","midi":79,"time":204.45963541667112,"velocity":0.7244094488188977,"duration":0.1927083333333428},{"name":"C4","midi":60,"time":204.45963541667112,"velocity":0.7244094488188977,"duration":0.1927083333333428},{"name":"G#5","midi":80,"time":204.6575520833378,"velocity":0.7244094488188977,"duration":0.09375},{"name":"C#4","midi":61,"time":204.6575520833378,"velocity":0.7244094488188977,"duration":0.1927083333333428},{"name":"A#5","midi":82,"time":204.7552083333378,"velocity":0.7244094488188977,"duration":0.09375},{"name":"G#5","midi":80,"time":204.8554687500045,"velocity":0.7244094488188977,"duration":0.09375},{"name":"D#4","midi":63,"time":204.8554687500045,"velocity":0.7244094488188977,"duration":0.1927083333333428},{"name":"A#5","midi":82,"time":204.95442708333783,"velocity":0.7244094488188977,"duration":0.09375},{"name":"G#5","midi":80,"time":205.05338541667118,"velocity":0.7244094488188977,"duration":0.09375},{"name":"C4","midi":60,"time":205.05338541667118,"velocity":0.7244094488188977,"duration":0.1927083333333428},{"name":"A#5","midi":82,"time":205.15234375000452,"velocity":0.7244094488188977,"duration":0.09375},{"name":"G#5","midi":80,"time":205.25130208333786,"velocity":0.7244094488188977,"duration":0.09375},{"name":"G#3","midi":56,"time":205.25130208333786,"velocity":0.7244094488188977,"duration":0.1927083333333428},{"name":"A#5","midi":82,"time":205.3502604166712,"velocity":0.7244094488188977,"duration":0.09375},{"name":"G#5","midi":80,"time":205.44921875000455,"velocity":0.7244094488188977,"duration":0.09375},{"name":"C4","midi":60,"time":205.44921875000455,"velocity":0.7244094488188977,"duration":0.1927083333333428},{"name":"A#5","midi":82,"time":205.5481770833379,"velocity":0.7244094488188977,"duration":0.09375},{"name":"G#5","midi":80,"time":205.64713541667123,"velocity":0.7244094488188977,"duration":0.09375},{"name":"D#4","midi":63,"time":205.64713541667123,"velocity":0.7244094488188977,"duration":0.1927083333333428},{"name":"A#5","midi":82,"time":205.74609375000458,"velocity":0.7244094488188977,"duration":0.09375},{"name":"G#5","midi":80,"time":205.84505208333792,"velocity":0.7244094488188977,"duration":0.3906250000000284},{"name":"F4","midi":65,"time":205.84505208333792,"velocity":0.7244094488188977,"duration":0.1927083333333428},{"name":"F#4","midi":66,"time":206.0429687500046,"velocity":0.7244094488188977,"duration":0.1927083333333428},{"name":"G#5","midi":80,"time":206.2408854166713,"velocity":0.7244094488188977,"duration":0.1927083333333428},{"name":"F4","midi":65,"time":206.2408854166713,"velocity":0.7244094488188977,"duration":0.1927083333333428},{"name":"F#5","midi":78,"time":206.43880208333798,"velocity":0.7244094488188977,"duration":0.1927083333333428},{"name":"D#4","midi":63,"time":206.43880208333798,"velocity":0.7244094488188977,"duration":0.1927083333333428},{"name":"G#5","midi":80,"time":206.63671875000466,"velocity":0.7244094488188977,"duration":0.1927083333333428},{"name":"F4","midi":65,"time":206.63671875000466,"velocity":0.7244094488188977,"duration":0.1927083333333428},{"name":"F5","midi":77,"time":206.83463541667135,"velocity":0.7244094488188977,"duration":0.24609375},{"name":"C#5","midi":73,"time":206.83463541667135,"velocity":0.7244094488188977,"duration":0.390625},{"name":"G#5","midi":80,"time":207.0312500000047,"velocity":0.7244094488188977,"duration":0.19270833333331439},{"name":"D#5","midi":75,"time":207.22916666667135,"velocity":0.7244094488188977,"duration":0.24609375},{"name":"G#4","midi":68,"time":207.22916666667135,"velocity":0.7244094488188977,"duration":0.390625},{"name":"G#5","midi":80,"time":207.42838541667135,"velocity":0.7244094488188977,"duration":0.1927083333333428},{"name":"C#5","midi":73,"time":207.62630208333803,"velocity":0.7244094488188977,"duration":0.1927083333333428},{"name":"F4","midi":65,"time":207.62630208333803,"velocity":0.7244094488188977,"duration":0.3906250000000284},{"name":"G#5","midi":80,"time":207.82421875000472,"velocity":0.7244094488188977,"duration":0.1927083333333428},{"name":"C5","midi":72,"time":208.0221354166714,"velocity":0.7244094488188977,"duration":0.1927083333333428},{"name":"D#4","midi":63,"time":208.0221354166714,"velocity":0.7244094488188977,"duration":0.1927083333333428},{"name":"A#4","midi":70,"time":208.2200520833381,"velocity":0.7244094488188977,"duration":0.1927083333333428},{"name":"C#4","midi":61,"time":208.2200520833381,"velocity":0.7244094488188977,"duration":0.1927083333333428},{"name":"C5","midi":72,"time":208.41796875000477,"velocity":0.7244094488188977,"duration":0.1927083333333428},{"name":"D#4","midi":63,"time":208.41796875000477,"velocity":0.7244094488188977,"duration":0.1927083333333428},{"name":"D#5","midi":75,"time":208.61588541667146,"velocity":0.7244094488188977,"duration":0.1927083333333428},{"name":"G#3","midi":56,"time":208.61588541667146,"velocity":0.7244094488188977,"duration":0.1927083333333428},{"name":"F5","midi":77,"time":208.81380208333815,"velocity":0.7244094488188977,"duration":0.1927083333333428},{"name":"C4","midi":60,"time":208.81380208333815,"velocity":0.7244094488188977,"duration":0.1927083333333428},{"name":"F#5","midi":78,"time":209.01171875000483,"velocity":0.7244094488188977,"duration":0.1927083333333428},{"name":"D#4","midi":63,"time":209.01171875000483,"velocity":0.7244094488188977,"duration":0.1927083333333428},{"name":"G#5","midi":80,"time":209.20963541667152,"velocity":0.7244094488188977,"duration":0.1927083333333428},{"name":"F4","midi":65,"time":209.20963541667152,"velocity":0.7244094488188977,"duration":0.1927083333333428},{"name":"F#5","midi":78,"time":209.4075520833382,"velocity":0.7244094488188977,"duration":0.1927083333333428},{"name":"D#4","midi":63,"time":209.4075520833382,"velocity":0.7244094488188977,"duration":0.1927083333333428},{"name":"F5","midi":77,"time":209.6054687500049,"velocity":0.7244094488188977,"duration":0.1927083333333428},{"name":"C#4","midi":61,"time":209.6054687500049,"velocity":0.7244094488188977,"duration":0.1927083333333428},{"name":"G#5","midi":80,"time":209.80338541667157,"velocity":0.7244094488188977,"duration":0.1927083333333428},{"name":"D#4","midi":63,"time":209.80338541667157,"velocity":0.7244094488188977,"duration":0.1927083333333428},{"name":"D#5","midi":75,"time":210.00130208333826,"velocity":0.7244094488188977,"duration":0.24609375},{"name":"C5","midi":72,"time":210.00130208333826,"velocity":0.7244094488188977,"duration":0.390625},{"name":"G#5","midi":80,"time":210.19921875000492,"velocity":0.7244094488188977,"duration":0.1927083333333428},{"name":"C#5","midi":73,"time":210.3971354166716,"velocity":0.7244094488188977,"duration":0.24609375},{"name":"G#4","midi":68,"time":210.3971354166716,"velocity":0.7244094488188977,"duration":0.390625},{"name":"G#5","midi":80,"time":210.59505208333826,"velocity":0.7244094488188977,"duration":0.1927083333333428},{"name":"C5","midi":72,"time":210.79296875000495,"velocity":0.7244094488188977,"duration":0.1927083333333428},{"name":"D#4","midi":63,"time":210.79296875000495,"velocity":0.7244094488188977,"duration":0.3906250000000284},{"name":"G#5","midi":80,"time":210.99088541667163,"velocity":0.7244094488188977,"duration":0.1927083333333428},{"name":"A#4","midi":70,"time":211.18880208333832,"velocity":0.7244094488188977,"duration":0.1927083333333428},{"name":"C#4","midi":61,"time":211.18880208333832,"velocity":0.7244094488188977,"duration":0.1927083333333428},{"name":"G#4","midi":68,"time":211.386718750005,"velocity":0.7244094488188977,"duration":0.1927083333333428},{"name":"C4","midi":60,"time":211.386718750005,"velocity":0.7244094488188977,"duration":0.1927083333333428},{"name":"A#4","midi":70,"time":211.5846354166717,"velocity":0.7244094488188977,"duration":0.1927083333333428},{"name":"C#4","midi":61,"time":211.5846354166717,"velocity":0.7244094488188977,"duration":0.1927083333333428},{"name":"C#5","midi":73,"time":211.78255208333837,"velocity":0.7244094488188977,"duration":0.1927083333333428},{"name":"G#3","midi":56,"time":211.78255208333837,"velocity":0.7244094488188977,"duration":0.1927083333333428},{"name":"D#5","midi":75,"time":211.97916666667172,"velocity":0.7244094488188977,"duration":0.1927083333333428},{"name":"C4","midi":60,"time":211.97916666667172,"velocity":0.7244094488188977,"duration":0.1927083333333428},{"name":"F5","midi":77,"time":212.1770833333384,"velocity":0.7244094488188977,"duration":0.1927083333333428},{"name":"C#4","midi":61,"time":212.1770833333384,"velocity":0.7244094488188977,"duration":0.1927083333333428},{"name":"F#5","midi":78,"time":212.3763020833384,"velocity":0.7244094488188977,"duration":0.1927083333333428},{"name":"D#4","midi":63,"time":212.3763020833384,"velocity":0.7244094488188977,"duration":0.1927083333333428},{"name":"F5","midi":77,"time":212.5742187500051,"velocity":0.7244094488188977,"duration":0.1927083333333428},{"name":"C#4","midi":61,"time":212.5742187500051,"velocity":0.7244094488188977,"duration":0.1927083333333428},{"name":"D#5","midi":75,"time":212.77213541667177,"velocity":0.7244094488188977,"duration":0.1927083333333428},{"name":"C4","midi":60,"time":212.77213541667177,"velocity":0.7244094488188977,"duration":0.1927083333333428},{"name":"F5","midi":77,"time":212.97005208333846,"velocity":0.7244094488188977,"duration":0.1927083333333428},{"name":"C#4","midi":61,"time":212.97005208333846,"velocity":0.7244094488188977,"duration":0.1927083333333428},{"name":"C#5","midi":73,"time":213.16796875000514,"velocity":0.7244094488188977,"duration":0.24609375},{"name":"A#4","midi":70,"time":213.16796875000514,"velocity":0.7244094488188977,"duration":0.390625},{"name":"F5","midi":77,"time":213.3658854166718,"velocity":0.7244094488188977,"duration":0.1927083333333428},{"name":"C5","midi":72,"time":213.5638020833385,"velocity":0.7244094488188977,"duration":0.24609375},{"name":"G4","midi":67,"time":213.5638020833385,"velocity":0.7244094488188977,"duration":0.390625},{"name":"F5","midi":77,"time":213.76171875000514,"velocity":0.7244094488188977,"duration":0.1927083333333428},{"name":"A#4","midi":70,"time":213.95963541667183,"velocity":0.7244094488188977,"duration":0.1927083333333428},{"name":"C#4","midi":61,"time":213.95963541667183,"velocity":0.7244094488188977,"duration":0.3906250000000284},{"name":"F5","midi":77,"time":214.15755208333852,"velocity":0.7244094488188977,"duration":0.1927083333333428},{"name":"G#4","midi":68,"time":214.3554687500052,"velocity":0.7244094488188977,"duration":0.1927083333333428},{"name":"C4","midi":60,"time":214.3554687500052,"velocity":0.7244094488188977,"duration":0.1927083333333428},{"name":"G4","midi":67,"time":214.5533854166719,"velocity":0.7244094488188977,"duration":0.1927083333333428},{"name":"A#3","midi":58,"time":214.5533854166719,"velocity":0.7244094488188977,"duration":0.1927083333333428},{"name":"G#4","midi":68,"time":214.75130208333857,"velocity":0.7244094488188977,"duration":0.1927083333333428},{"name":"C4","midi":60,"time":214.75130208333857,"velocity":0.7244094488188977,"duration":0.1927083333333428},{"name":"C5","midi":72,"time":214.94921875000526,"velocity":0.7244094488188977,"duration":0.1927083333333428},{"name":"G#3","midi":56,"time":214.94921875000526,"velocity":0.7244094488188977,"duration":0.1927083333333428},{"name":"C#5","midi":73,"time":215.14713541667194,"velocity":0.7244094488188977,"duration":0.1927083333333428},{"name":"A#3","midi":58,"time":215.14713541667194,"velocity":0.7244094488188977,"duration":0.1927083333333428},{"name":"D#5","midi":75,"time":215.34505208333863,"velocity":0.7244094488188977,"duration":0.1927083333333428},{"name":"C4","midi":60,"time":215.34505208333863,"velocity":0.7244094488188977,"duration":0.1927083333333428},{"name":"F5","midi":77,"time":215.54296875000531,"velocity":0.7244094488188977,"duration":0.1927083333333428},{"name":"C#4","midi":61,"time":215.54296875000531,"velocity":0.7244094488188977,"duration":0.1927083333333428},{"name":"F#5","midi":78,"time":215.740885416672,"velocity":0.7244094488188977,"duration":0.1927083333333428},{"name":"D#4","midi":63,"time":215.740885416672,"velocity":0.7244094488188977,"duration":0.1927083333333428},{"name":"G#5","midi":80,"time":215.9388020833387,"velocity":0.7244094488188977,"duration":0.1927083333333428},{"name":"F4","midi":65,"time":215.9388020833387,"velocity":0.7244094488188977,"duration":0.1927083333333428},{"name":"A#5","midi":82,"time":216.13671875000537,"velocity":0.7244094488188977,"duration":0.1927083333333428},{"name":"D#4","midi":63,"time":216.13671875000537,"velocity":0.7244094488188977,"duration":0.1927083333333428},{"name":"C5","midi":72,"time":216.33463541667206,"velocity":0.7244094488188977,"duration":0.2864583333333428},{"name":"F#4","midi":66,"time":216.33463541667206,"velocity":0.7244094488188977,"duration":0.1927083333333428},{"name":"F4","midi":65,"time":216.53255208333874,"velocity":0.7244094488188977,"duration":0.19270833333331439},{"name":"G#4","midi":68,"time":216.7304687500054,"velocity":0.7244094488188977,"duration":0.3906250000000284},{"name":"D#4","midi":63,"time":216.7304687500054,"velocity":0.7244094488188977,"duration":0.1927083333333428},{"name":"C#4","midi":61,"time":216.92708333333874,"velocity":0.7244094488188977,"duration":0.1927083333333428},{"name":"A#4","midi":70,"time":217.12500000000543,"velocity":0.7244094488188977,"duration":0.1927083333333428},{"name":"F#4","midi":66,"time":217.12500000000543,"velocity":0.7244094488188977,"duration":0.390625},{"name":"G#4","midi":68,"time":217.32421875000543,"velocity":0.7244094488188977,"duration":0.1927083333333428},{"name":"F#4","midi":66,"time":217.5221354166721,"velocity":0.7244094488188977,"duration":0.1927083333333428},{"name":"A#3","midi":58,"time":217.5221354166721,"velocity":0.7244094488188977,"duration":0.1927083333333428},{"name":"G#4","midi":68,"time":217.7200520833388,"velocity":0.7244094488188977,"duration":0.1927083333333428},{"name":"C4","midi":60,"time":217.7200520833388,"velocity":0.7244094488188977,"duration":0.1927083333333428},{"name":"F5","midi":77,"time":217.91796875000549,"velocity":0.7244094488188977,"duration":0.3906250000000284},{"name":"C#4","midi":61,"time":217.91796875000549,"velocity":0.7244094488188977,"duration":0.1927083333333428},{"name":"C4","midi":60,"time":218.11588541667217,"velocity":0.7244094488188977,"duration":0.1927083333333428},{"name":"C#5","midi":73,"time":218.31380208333886,"velocity":0.7244094488188977,"duration":0.3906250000000284},{"name":"A#3","midi":58,"time":218.31380208333886,"velocity":0.7244094488188977,"duration":0.1927083333333428},{"name":"G#3","midi":56,"time":218.51171875000554,"velocity":0.7244094488188977,"duration":0.1927083333333428},{"name":"A#4","midi":70,"time":218.70963541667223,"velocity":0.7244094488188977,"duration":0.09375},{"name":"A#3","midi":58,"time":218.70963541667223,"velocity":0.7244094488188977,"duration":0.9830729166667425},{"name":"G#4","midi":68,"time":218.80859375000557,"velocity":0.7244094488188977,"duration":0.09375},{"name":"A#4","midi":70,"time":218.9075520833389,"velocity":0.7244094488188977,"duration":0.09375},{"name":"G#4","midi":68,"time":219.00651041667226,"velocity":0.7244094488188977,"duration":0.09375},{"name":"F#4","midi":66,"time":219.1054687500056,"velocity":0.7244094488188977,"duration":0.1927083333333428},{"name":"F4","midi":65,"time":219.30338541667228,"velocity":0.7244094488188977,"duration":0.1927083333333428},{"name":"F#4","midi":66,"time":219.50130208333897,"velocity":0.7244094488188977,"duration":0.390625},{"name":"G#3","midi":56,"time":219.69921875000563,"velocity":0.7244094488188977,"duration":0.1927083333333428},{"name":"D#5","midi":75,"time":219.8971354166723,"velocity":0.7244094488188977,"duration":0.3906250000000284},{"name":"F#3","midi":54,"time":219.8971354166723,"velocity":0.7244094488188977,"duration":0.1927083333333428},{"name":"A#3","midi":58,"time":220.095052083339,"velocity":0.7244094488188977,"duration":0.1927083333333428},{"name":"F4","midi":65,"time":220.29296875000568,"velocity":0.7244094488188977,"duration":0.3906250000000284},{"name":"G#3","midi":56,"time":220.29296875000568,"velocity":0.7244094488188977,"duration":0.1927083333333428},{"name":"F#3","midi":54,"time":220.49088541667237,"velocity":0.7244094488188977,"duration":0.1927083333333428},{"name":"C#5","midi":73,"time":220.68880208333906,"velocity":0.7244094488188977,"duration":0.3906250000000284},{"name":"F3","midi":53,"time":220.68880208333906,"velocity":0.7244094488188977,"duration":0.1927083333333428},{"name":"G#3","midi":56,"time":220.88671875000574,"velocity":0.7244094488188977,"duration":0.1927083333333428},{"name":"D#4","midi":63,"time":221.08463541667243,"velocity":0.7244094488188977,"duration":0.3906250000000284},{"name":"F#3","midi":54,"time":221.08463541667243,"velocity":0.7244094488188977,"duration":0.1927083333333428},{"name":"F3","midi":53,"time":221.2825520833391,"velocity":0.7244094488188977,"duration":0.1927083333333428},{"name":"C5","midi":72,"time":221.4804687500058,"velocity":0.7244094488188977,"duration":0.3906250000000284},{"name":"F#3","midi":54,"time":221.4804687500058,"velocity":0.7244094488188977,"duration":0.1927083333333428},{"name":"D#3","midi":51,"time":221.67838541667248,"velocity":0.7244094488188977,"duration":0.1927083333333428},{"name":"C#4","midi":61,"time":221.87500000000583,"velocity":0.7244094488188977,"duration":0.390625},{"name":"F3","midi":53,"time":221.87500000000583,"velocity":0.7244094488188977,"duration":0.5885416666666572},{"name":"C#5","midi":73,"time":222.27343750000583,"velocity":0.7244094488188977,"duration":0.19270833333331439},{"name":"C5","midi":72,"time":222.47135416667248,"velocity":0.7244094488188977,"duration":0.1927083333333428},{"name":"G#3","midi":56,"time":222.47135416667248,"velocity":0.7244094488188977,"duration":0.1927083333333428},{"name":"C#5","midi":73,"time":222.66927083333917,"velocity":0.7244094488188977,"duration":0.1927083333333428},{"name":"A#3","midi":58,"time":222.66927083333917,"velocity":0.7244094488188977,"duration":0.1927083333333428},{"name":"D#5","midi":75,"time":222.86718750000585,"velocity":0.7244094488188977,"duration":0.1927083333333428},{"name":"C4","midi":60,"time":222.86718750000585,"velocity":0.7244094488188977,"duration":0.1927083333333428},{"name":"F5","midi":77,"time":223.06510416667254,"velocity":0.7244094488188977,"duration":0.1927083333333428},{"name":"C#4","midi":61,"time":223.06510416667254,"velocity":0.7244094488188977,"duration":0.7630208333333997},{"name":"F#5","midi":78,"time":223.26302083333923,"velocity":0.7244094488188977,"duration":0.1927083333333428},{"name":"D#4","midi":63,"time":223.26302083333923,"velocity":0.7244094488188977,"duration":0.1927083333333428},{"name":"G#5","midi":80,"time":223.4609375000059,"velocity":0.7244094488188977,"duration":0.1927083333333428},{"name":"F4","midi":65,"time":223.4609375000059,"velocity":0.7244094488188977,"duration":0.1927083333333428},{"name":"F#5","midi":78,"time":223.6588541666726,"velocity":0.7244094488188977,"duration":0.1927083333333428},{"name":"D#4","midi":63,"time":223.6588541666726,"velocity":0.7244094488188977,"duration":0.1927083333333428},{"name":"F5","midi":77,"time":223.85677083333928,"velocity":0.7244094488188977,"duration":0.1927083333333428},{"name":"C#4","midi":61,"time":223.85677083333928,"velocity":0.7244094488188977,"duration":0.3906250000000284},{"name":"F#5","midi":78,"time":224.05468750000597,"velocity":0.7244094488188977,"duration":0.1927083333333428},{"name":"D#4","midi":63,"time":224.05468750000597,"velocity":0.7244094488188977,"duration":0.1927083333333428},{"name":"G#5","midi":80,"time":224.25260416667265,"velocity":0.7244094488188977,"duration":0.1927083333333428},{"name":"C5","midi":72,"time":224.25260416667265,"velocity":0.7244094488188977,"duration":0.3906250000000284},{"name":"C4","midi":60,"time":224.25260416667265,"velocity":0.7244094488188977,"duration":1.3385416666667709},{"name":"F#5","midi":78,"time":224.45052083333934,"velocity":0.7244094488188977,"duration":0.1927083333333428},{"name":"F5","midi":77,"time":224.64843750000603,"velocity":0.7244094488188977,"duration":0.1927083333333428},{"name":"G#4","midi":68,"time":224.64843750000603,"velocity":0.7244094488188977,"duration":0.3906250000000284},{"name":"D#5","midi":75,"time":224.8463541666727,"velocity":0.7244094488188977,"duration":0.1927083333333428},{"name":"F5","midi":77,"time":225.0442708333394,"velocity":0.7244094488188977,"duration":0.983072916666714},{"name":"F4","midi":65,"time":225.0442708333394,"velocity":0.7244094488188977,"duration":0.09375},{"name":"D#4","midi":63,"time":225.14322916667274,"velocity":0.7244094488188977,"duration":0.09375},{"name":"F4","midi":65,"time":225.24218750000608,"velocity":0.7244094488188977,"duration":0.09375},{"name":"D#4","midi":63,"time":225.34114583333943,"velocity":0.7244094488188977,"duration":0.09375},{"name":"C#4","midi":61,"time":225.44010416667277,"velocity":0.7244094488188977,"duration":0.19270833333331439},{"name":"C4","midi":60,"time":225.63802083333943,"velocity":0.7244094488188977,"duration":0.1927083333333428},{"name":"C#4","midi":61,"time":225.8359375000061,"velocity":0.7244094488188977,"duration":0.390625},{"name":"A#3","midi":58,"time":225.8359375000061,"velocity":0.7244094488188977,"duration":1.1809895833333997},{"name":"D#5","midi":75,"time":226.03385416667277,"velocity":0.7244094488188977,"duration":0.1927083333333428},{"name":"C#5","midi":73,"time":226.23177083333945,"velocity":0.7244094488188977,"duration":0.1927083333333428},{"name":"A#4","midi":70,"time":226.23177083333945,"velocity":0.7244094488188977,"duration":0.3906250000000284},{"name":"F5","midi":77,"time":226.42968750000614,"velocity":0.7244094488188977,"duration":0.1927083333333428},{"name":"D#5","midi":75,"time":226.62760416667282,"velocity":0.7244094488188977,"duration":0.1927083333333428},{"name":"C4","midi":60,"time":226.62760416667282,"velocity":0.7244094488188977,"duration":0.3906250000000284},{"name":"C#5","midi":73,"time":226.8255208333395,"velocity":0.7244094488188977,"duration":0.1927083333333428},{"name":"C5","midi":72,"time":227.0234375000062,"velocity":0.7244094488188977,"duration":0.1927083333333428},{"name":"G#4","midi":68,"time":227.0234375000062,"velocity":0.7244094488188977,"duration":0.7851562500000568},{"name":"G#3","midi":56,"time":227.0234375000062,"velocity":0.7244094488188977,"duration":0.3906250000000284},{"name":"D#5","midi":75,"time":227.22135416667288,"velocity":0.7244094488188977,"duration":0.1927083333333428},{"name":"C#5","midi":73,"time":227.41927083333957,"velocity":0.7244094488188977,"duration":0.1927083333333428},{"name":"A#3","midi":58,"time":227.41927083333957,"velocity":0.7244094488188977,"duration":0.3906250000000284},{"name":"C5","midi":72,"time":227.61718750000625,"velocity":0.7244094488188977,"duration":0.1927083333333428},{"name":"C#5","midi":73,"time":227.81510416667294,"velocity":0.7244094488188977,"duration":0.1927083333333428},{"name":"G4","midi":67,"time":227.81510416667294,"velocity":0.7244094488188977,"duration":0.3906250000000284},{"name":"D#3","midi":51,"time":227.81510416667294,"velocity":0.7244094488188977,"duration":0.3906250000000284},{"name":"A#4","midi":70,"time":228.01302083333962,"velocity":0.7244094488188977,"duration":0.1927083333333428},{"name":"C5","midi":72,"time":228.2109375000063,"velocity":0.7244094488188977,"duration":0.390625},{"name":"G#3","midi":56,"time":228.2109375000063,"velocity":0.7244094488188977,"duration":1.182291666666714},{"name":"D#5","midi":75,"time":228.60807291667297,"velocity":0.7244094488188977,"duration":0.3906250000000284},{"name":"G#4","midi":68,"time":228.60807291667297,"velocity":0.7244094488188977,"duration":0.1927083333333428},{"name":"F#4","midi":66,"time":228.80598958333965,"velocity":0.7244094488188977,"duration":0.1927083333333428},{"name":"F#5","midi":78,"time":229.00390625000634,"velocity":0.7244094488188977,"duration":1.5768229166667993},{"name":"G#4","midi":68,"time":229.00390625000634,"velocity":0.7244094488188977,"duration":0.1927083333333428},{"name":"A#4","midi":70,"time":229.20182291667302,"velocity":0.7244094488188977,"duration":0.1927083333333428},{"name":"C5","midi":72,"time":229.3997395833397,"velocity":0.7244094488188977,"duration":0.1927083333333428},{"name":"G#3","midi":56,"time":229.3997395833397,"velocity":0.7244094488188977,"duration":0.3906250000000284},{"name":"G#4","midi":68,"time":229.5976562500064,"velocity":0.7244094488188977,"duration":0.1927083333333428},{"name":"C#5","midi":73,"time":229.79557291667308,"velocity":0.7244094488188977,"duration":0.1927083333333428},{"name":"A#3","midi":58,"time":229.79557291667308,"velocity":0.7244094488188977,"duration":0.1927083333333428},{"name":"C5","midi":72,"time":229.99348958333977,"velocity":0.7244094488188977,"duration":0.1927083333333428},{"name":"G#3","midi":56,"time":229.99348958333977,"velocity":0.7244094488188977,"duration":0.1927083333333428},{"name":"A#4","midi":70,"time":230.19140625000645,"velocity":0.7244094488188977,"duration":0.1927083333333428},{"name":"F#3","midi":54,"time":230.19140625000645,"velocity":0.7244094488188977,"duration":0.1927083333333428},{"name":"C5","midi":72,"time":230.38932291667314,"velocity":0.7244094488188977,"duration":0.1927083333333428},{"name":"G#3","midi":56,"time":230.38932291667314,"velocity":0.7244094488188977,"duration":0.1927083333333428},{"name":"F5","midi":77,"time":230.58723958333982,"velocity":0.7244094488188977,"duration":1.5768229166667709},{"name":"C#5","midi":73,"time":230.58723958333982,"velocity":0.7244094488188977,"duration":0.1927083333333428},{"name":"F4","midi":65,"time":230.58723958333982,"velocity":0.7244094488188977,"duration":0.390625},{"name":"C5","midi":72,"time":230.78645833333982,"velocity":0.7244094488188977,"duration":0.1927083333333428},{"name":"A#4","midi":70,"time":230.9843750000065,"velocity":0.7244094488188977,"duration":0.1927083333333428},{"name":"C#4","midi":61,"time":230.9843750000065,"velocity":0.7244094488188977,"duration":0.3906250000000284},{"name":"G#4","midi":68,"time":231.1822916666732,"velocity":0.7244094488188977,"duration":0.1927083333333428},{"name":"A#4","midi":70,"time":231.38020833333988,"velocity":0.7244094488188977,"duration":0.9830729166667425},{"name":"A#3","midi":58,"time":231.38020833333988,"velocity":0.7244094488188977,"duration":0.1927083333333428},{"name":"G#3","midi":56,"time":231.57682291667322,"velocity":0.7244094488188977,"duration":0.1927083333333428},{"name":"F#3","midi":54,"time":231.7747395833399,"velocity":0.7244094488188977,"duration":0.1927083333333428},{"name":"F3","midi":53,"time":231.9726562500066,"velocity":0.7244094488188977,"duration":0.1927083333333428},{"name":"D#5","midi":75,"time":232.17057291667328,"velocity":0.7244094488188977,"duration":1.180989583333428},{"name":"F#3","midi":54,"time":232.17057291667328,"velocity":0.7244094488188977,"duration":0.3906250000000284},{"name":"G#4","midi":68,"time":232.36848958333997,"velocity":0.7244094488188977,"duration":0.1927083333333428},{"name":"F#4","midi":66,"time":232.56640625000665,"velocity":0.7244094488188977,"duration":0.1927083333333428},{"name":"D#4","midi":63,"time":232.56640625000665,"velocity":0.7244094488188977,"duration":0.3906250000000284},{"name":"A#4","midi":70,"time":232.76432291667334,"velocity":0.7244094488188977,"duration":0.1927083333333428},{"name":"G#4","midi":68,"time":232.96223958334002,"velocity":0.7244094488188977,"duration":0.1927083333333428},{"name":"F3","midi":53,"time":232.96223958334002,"velocity":0.7244094488188977,"duration":0.3906250000000284},{"name":"F#4","midi":66,"time":233.1601562500067,"velocity":0.7244094488188977,"duration":0.1927083333333428},{"name":"C#5","midi":73,"time":233.3580729166734,"velocity":0.7244094488188977,"duration":0.3906250000000284},{"name":"F4","midi":65,"time":233.3580729166734,"velocity":0.7244094488188977,"duration":0.1927083333333428},{"name":"C#4","midi":61,"time":233.3580729166734,"velocity":0.7244094488188977,"duration":0.3906250000000284},{"name":"G#4","midi":68,"time":233.55598958334008,"velocity":0.7244094488188977,"duration":0.1927083333333428},{"name":"C5","midi":72,"time":233.75390625000676,"velocity":0.7244094488188977,"duration":0.3906250000000284},{"name":"F#4","midi":66,"time":233.75390625000676,"velocity":0.7244094488188977,"duration":0.1927083333333428},{"name":"D#3","midi":51,"time":233.75390625000676,"velocity":0.7244094488188977,"duration":0.3906250000000284},{"name":"F4","midi":65,"time":233.95182291667345,"velocity":0.7244094488188977,"duration":0.1927083333333428},{"name":"D#5","midi":75,"time":234.14973958334014,"velocity":0.7244094488188977,"duration":0.7916666666666856},{"name":"F#4","midi":66,"time":234.14973958334014,"velocity":0.7244094488188977,"duration":0.1927083333333428},{"name":"C4","midi":60,"time":234.14973958334014,"velocity":0.7244094488188977,"duration":0.3906250000000284},{"name":"D#4","midi":63,"time":234.34765625000682,"velocity":0.7244094488188977,"duration":0.1927083333333428},{"name":"F4","midi":65,"time":234.5455729166735,"velocity":0.7244094488188977,"duration":1.6028645833333428},{"name":"C#3","midi":49,"time":234.5455729166735,"velocity":0.7244094488188977,"duration":0.1953125},{"name":"G#2","midi":44,"time":234.74739583334016,"velocity":0.7244094488188977,"duration":0.1953125},{"name":"G#4","midi":68,"time":234.9479166666735,"velocity":0.7244094488188977,"duration":0.3958333333333428},{"name":"C#3","midi":49,"time":234.9479166666735,"velocity":0.7244094488188977,"duration":0.1953125},{"name":"D#3","midi":51,"time":235.14843750000685,"velocity":0.7244094488188977,"duration":0.1953125},{"name":"C#5","midi":73,"time":235.3502604166735,"velocity":0.7244094488188977,"duration":0.3958333333333428},{"name":"F3","midi":53,"time":235.3502604166735,"velocity":0.7244094488188977,"duration":0.1953125},{"name":"F#3","midi":54,"time":235.5494791666735,"velocity":0.7244094488188977,"duration":0.1953125},{"name":"B4","midi":71,"time":235.75000000000685,"velocity":0.7244094488188977,"duration":0.3958333333333144},{"name":"G#3","midi":56,"time":235.75000000000685,"velocity":0.7244094488188977,"duration":0.1953125},{"name":"F3","midi":53,"time":235.9518229166735,"velocity":0.7244094488188977,"duration":0.1953125},{"name":"A#4","midi":70,"time":236.1510416666735,"velocity":0.7244094488188977,"duration":1.6028645833333712},{"name":"F#3","midi":54,"time":236.1510416666735,"velocity":0.7244094488188977,"duration":0.1953125},{"name":"F#2","midi":42,"time":236.35156250000685,"velocity":0.7244094488188977,"duration":0.1953125},{"name":"C#4","midi":61,"time":236.5520833333402,"velocity":0.7244094488188977,"duration":0.3958333333333144},{"name":"F#3","midi":54,"time":236.5520833333402,"velocity":0.7244094488188977,"duration":0.1953125},{"name":"F3","midi":53,"time":236.75390625000685,"velocity":0.7244094488188977,"duration":0.1953125},{"name":"F#4","midi":66,"time":236.9544270833402,"velocity":0.7244094488188977,"duration":0.3958333333333428},{"name":"F#3","midi":54,"time":236.9544270833402,"velocity":0.7244094488188977,"duration":0.1953125},{"name":"G#3","midi":56,"time":237.15494791667354,"velocity":0.7244094488188977,"duration":0.1953125},{"name":"F4","midi":65,"time":237.3567708333402,"velocity":0.7244094488188977,"duration":0.3958333333333428},{"name":"A#3","midi":58,"time":237.3567708333402,"velocity":0.7244094488188977,"duration":0.1953125},{"name":"F#3","midi":54,"time":237.55729166667354,"velocity":0.7244094488188977,"duration":0.1953125},{"name":"F#4","midi":66,"time":237.75651041667354,"velocity":0.7244094488188977,"duration":0.5963541666666572},{"name":"D#3","midi":51,"time":237.75651041667354,"velocity":0.7244094488188977,"duration":0.1953125},{"name":"F3","midi":53,"time":237.95572916667354,"velocity":0.7244094488188977,"duration":0.1953125},{"name":"A#4","midi":70,"time":238.1575520833402,"velocity":0.7244094488188977,"duration":0.1953125},{"name":"F#3","midi":54,"time":238.1575520833402,"velocity":0.7244094488188977,"duration":0.1953125},{"name":"F#4","midi":66,"time":238.35807291667354,"velocity":0.7244094488188977,"duration":0.5963541666666572},{"name":"D#3","midi":51,"time":238.35807291667354,"velocity":0.7244094488188977,"duration":0.1953125},{"name":"D#4","midi":63,"time":238.55859375000688,"velocity":0.7244094488188977,"duration":0.5963541666666572},{"name":"C3","midi":48,"time":238.55859375000688,"velocity":0.7244094488188977,"duration":0.1953125},{"name":"C#3","midi":49,"time":238.76041666667354,"velocity":0.7244094488188977,"duration":0.1953125},{"name":"F#4","midi":66,"time":238.96093750000688,"velocity":0.7244094488188977,"duration":0.1953125},{"name":"D#3","midi":51,"time":238.96093750000688,"velocity":0.7244094488188977,"duration":0.1953125},{"name":"D#4","midi":63,"time":239.16145833334022,"velocity":0.7244094488188977,"duration":0.5963541666666572},{"name":"C3","midi":48,"time":239.16145833334022,"velocity":0.7244094488188977,"duration":0.1953125},{"name":"G#3","midi":56,"time":239.36328125000688,"velocity":0.7244094488188977,"duration":1.1992187500000284},{"name":"F2","midi":41,"time":239.36328125000688,"velocity":0.7244094488188977,"duration":0.3958333333333428},{"name":"D#4","midi":63,"time":239.76432291667356,"velocity":0.7244094488188977,"duration":0.3958333333333144},{"name":"F3","midi":53,"time":239.76432291667356,"velocity":0.7244094488188977,"duration":0.1953125},{"name":"D#3","midi":51,"time":239.96614583334022,"velocity":0.7244094488188977,"duration":0.1953125},{"name":"G#4","midi":68,"time":240.16666666667356,"velocity":0.7244094488188977,"duration":1.1992187500000284},{"name":"F3","midi":53,"time":240.16666666667356,"velocity":0.7244094488188977,"duration":0.1953125},{"name":"F#3","midi":54,"time":240.36588541667356,"velocity":0.7244094488188977,"duration":0.1953125},{"name":"C4","midi":60,"time":240.56770833334025,"velocity":0.7244094488188977,"duration":0.3958333333333428},{"name":"G#3","midi":56,"time":240.56770833334025,"velocity":0.7244094488188977,"duration":0.1953125},{"name":"F3","midi":53,"time":240.7682291666736,"velocity":0.7244094488188977,"duration":0.1953125},{"name":"F4","midi":65,"time":240.96875000000693,"velocity":0.7244094488188977,"duration":0.5963541666666572},{"name":"D3","midi":50,"time":240.96875000000693,"velocity":0.7244094488188977,"duration":0.1953125},{"name":"D#3","midi":51,"time":241.1705729166736,"velocity":0.7244094488188977,"duration":0.1953125},{"name":"G#4","midi":68,"time":241.37109375000693,"velocity":0.7244094488188977,"duration":0.1953125},{"name":"F3","midi":53,"time":241.37109375000693,"velocity":0.7244094488188977,"duration":0.1953125},{"name":"F4","midi":65,"time":241.57161458334028,"velocity":0.7244094488188977,"duration":0.5963541666666572},{"name":"D3","midi":50,"time":241.57161458334028,"velocity":0.7244094488188977,"duration":0.1953125},{"name":"D4","midi":62,"time":241.77343750000693,"velocity":0.7244094488188977,"duration":0.5963541666666856},{"name":"A#2","midi":46,"time":241.77343750000693,"velocity":0.7244094488188977,"duration":0.1953125},{"name":"C3","midi":48,"time":241.97395833334028,"velocity":0.7244094488188977,"duration":0.1953125},{"name":"F4","midi":65,"time":242.17447916667362,"velocity":0.7244094488188977,"duration":0.1953125},{"name":"D3","midi":50,"time":242.17447916667362,"velocity":0.7244094488188977,"duration":0.1953125},{"name":"D4","midi":62,"time":242.37500000000696,"velocity":0.7244094488188977,"duration":0.1953125},{"name":"A#2","midi":46,"time":242.37500000000696,"velocity":0.7244094488188977,"duration":0.1953125},{"name":"F#3","midi":54,"time":242.57682291667362,"velocity":0.7244094488188977,"duration":0.3958333333333428},{"name":"D#2","midi":39,"time":242.57682291667362,"velocity":0.7244094488188977,"duration":0.3958333333333428},{"name":"A#3","midi":58,"time":242.97656250000696,"velocity":0.7244094488188977,"duration":0.3958333333333144},{"name":"D#3","midi":51,"time":242.97656250000696,"velocity":0.7244094488188977,"duration":0.1953125},{"name":"D3","midi":50,"time":243.17838541667362,"velocity":0.7244094488188977,"duration":0.1953125},{"name":"F#4","midi":66,"time":243.37890625000696,"velocity":0.7244094488188977,"duration":0.9986979166666856},{"name":"D#3","midi":51,"time":243.37890625000696,"velocity":0.7244094488188977,"duration":0.1953125},{"name":"F3","midi":53,"time":243.5794270833403,"velocity":0.7244094488188977,"duration":0.1953125},{"name":"A#3","midi":58,"time":243.78125000000696,"velocity":0.7244094488188977,"duration":0.3958333333333428},{"name":"F#3","midi":54,"time":243.78125000000696,"velocity":0.7244094488188977,"duration":0.1953125},{"name":"D#3","midi":51,"time":243.9817708333403,"velocity":0.7244094488188977,"duration":0.1953125},{"name":"D#4","midi":63,"time":244.18229166667365,"velocity":0.7244094488188977,"duration":0.5963541666666572},{"name":"C3","midi":48,"time":244.18229166667365,"velocity":0.7244094488188977,"duration":0.1953125},{"name":"F4","midi":65,"time":244.3841145833403,"velocity":0.7244094488188977,"duration":0.1953125},{"name":"C#3","midi":49,"time":244.3841145833403,"velocity":0.7244094488188977,"duration":0.1953125},{"name":"F#4","midi":66,"time":244.58463541667365,"velocity":0.7244094488188977,"duration":0.1953125},{"name":"D#3","midi":51,"time":244.58463541667365,"velocity":0.7244094488188977,"duration":0.1953125},{"name":"D#4","midi":63,"time":244.785156250007,"velocity":0.7244094488188977,"duration":0.3958333333333144},{"name":"C3","midi":48,"time":244.785156250007,"velocity":0.7244094488188977,"duration":0.1953125},{"name":"D#5","midi":75,"time":244.98697916667365,"velocity":0.7244094488188977,"duration":0.9986979166666856},{"name":"G#2","midi":44,"time":244.98697916667365,"velocity":0.7244094488188977,"duration":0.1953125},{"name":"F#4","midi":66,"time":245.18619791667365,"velocity":0.7244094488188977,"duration":0.1953125},{"name":"A#2","midi":46,"time":245.18619791667365,"velocity":0.7244094488188977,"duration":0.1953125},{"name":"G#4","midi":68,"time":245.386718750007,"velocity":0.7244094488188977,"duration":0.1953125},{"name":"C3","midi":48,"time":245.386718750007,"velocity":0.7244094488188977,"duration":0.1953125},{"name":"D#4","midi":63,"time":245.58854166667365,"velocity":0.7244094488188977,"duration":0.1953125},{"name":"G#2","midi":44,"time":245.58854166667365,"velocity":0.7244094488188977,"duration":0.1953125},{"name":"F4","midi":65,"time":245.789062500007,"velocity":0.7244094488188977,"duration":1.0026041666666856},{"name":"C#2","midi":37,"time":245.789062500007,"velocity":0.7244094488188977,"duration":0.3958333333333428},{"name":"C#5","midi":73,"time":245.98958333334033,"velocity":0.7244094488188977,"duration":0.1953125},{"name":"C5","midi":72,"time":246.191406250007,"velocity":0.7244094488188977,"duration":0.1953125},{"name":"C#3","midi":49,"time":246.191406250007,"velocity":0.7244094488188977,"duration":0.1953125},{"name":"D#5","midi":75,"time":246.39192708334033,"velocity":0.7244094488188977,"duration":0.1953125},{"name":"D#3","midi":51,"time":246.39192708334033,"velocity":0.7244094488188977,"duration":0.1953125},{"name":"C#5","midi":73,"time":246.59244791667368,"velocity":0.7244094488188977,"duration":0.1953125},{"name":"F3","midi":53,"time":246.59244791667368,"velocity":0.7244094488188977,"duration":0.3958333333333144},{"name":"G#4","midi":68,"time":246.79427083334033,"velocity":0.7244094488188977,"duration":0.1953125},{"name":"A#4","midi":70,"time":246.99479166667368,"velocity":0.7244094488188977,"duration":0.1953125},{"name":"C#4","midi":61,"time":246.99479166667368,"velocity":0.7244094488188977,"duration":0.5989583333333428},{"name":"C#3","midi":49,"time":246.99479166667368,"velocity":0.7244094488188977,"duration":0.3958333333333428},{"name":"B4","midi":71,"time":247.19531250000702,"velocity":0.7244094488188977,"duration":0.1953125},{"name":"A#4","midi":70,"time":247.39583333334036,"velocity":0.7244094488188977,"duration":0.1979166666666572},{"name":"F#3","midi":54,"time":247.39583333334036,"velocity":0.7244094488188977,"duration":0.8085937499999716},{"name":"G#4","midi":68,"time":247.59895833334036,"velocity":0.7244094488188977,"duration":0.1979166666666572},{"name":"C4","midi":60,"time":247.59895833334036,"velocity":0.7244094488188977,"duration":0.1979166666666572},{"name":"F#4","midi":66,"time":247.80338541667368,"velocity":0.7244094488188977,"duration":0.1979166666666572},{"name":"A#3","midi":58,"time":247.80338541667368,"velocity":0.7244094488188977,"duration":0.1979166666666572},{"name":"G#4","midi":68,"time":248.00651041667368,"velocity":0.7244094488188977,"duration":0.1979166666666572},{"name":"C4","midi":60,"time":248.00651041667368,"velocity":0.7244094488188977,"duration":0.1979166666666572},{"name":"F5","midi":77,"time":248.210937500007,"velocity":0.7244094488188977,"duration":0.4010416666666572},{"name":"C#4","midi":61,"time":248.210937500007,"velocity":0.7244094488188977,"duration":0.1979166666666572},{"name":"F3","midi":53,"time":248.210937500007,"velocity":0.7244094488188977,"duration":0.8085937499999716},{"name":"C4","midi":60,"time":248.414062500007,"velocity":0.7244094488188977,"duration":0.1979166666666572},{"name":"C#5","midi":73,"time":248.6184895833403,"velocity":0.7244094488188977,"duration":0.4010416666666572},{"name":"A#3","midi":58,"time":248.6184895833403,"velocity":0.7244094488188977,"duration":0.1979166666666572},{"name":"G#3","midi":56,"time":248.82291666667362,"velocity":0.7244094488188977,"duration":0.19791666666668561},{"name":"G#4","midi":68,"time":249.0247395833403,"velocity":0.7244094488188977,"duration":0.4010416666666572},{"name":"A#3","midi":58,"time":249.0247395833403,"velocity":0.7244094488188977,"duration":1.0130208333333144},{"name":"D#3","midi":51,"time":249.0247395833403,"velocity":0.7244094488188977,"duration":0.4010416666666572},{"name":"F#4","midi":66,"time":249.43229166667362,"velocity":0.7244094488188977,"duration":0.1979166666666572},{"name":"C#3","midi":49,"time":249.43229166667362,"velocity":0.7244094488188977,"duration":0.4010416666666572},{"name":"F4","midi":65,"time":249.63671875000693,"velocity":0.7244094488188977,"duration":0.19791666666668561},{"name":"F#4","midi":66,"time":249.84114583334028,"velocity":0.7244094488188977,"duration":0.4010416666666572},{"name":"C3","midi":48,"time":249.84114583334028,"velocity":0.7244094488188977,"duration":0.8085937499999716},{"name":"G#3","midi":56,"time":250.04427083334028,"velocity":0.7244094488188977,"duration":0.1979166666666572},{"name":"D#5","midi":75,"time":250.2486979166736,"velocity":0.7244094488188977,"duration":0.4010416666666572},{"name":"F#3","midi":54,"time":250.2486979166736,"velocity":0.7244094488188977,"duration":0.1979166666666572},{"name":"A#3","midi":58,"time":250.4518229166736,"velocity":0.7244094488188977,"duration":0.1979166666666572},{"name":"F4","midi":65,"time":250.6549479166736,"velocity":0.7244094488188977,"duration":0.4075520833333428},{"name":"G#3","midi":56,"time":250.6549479166736,"velocity":0.7244094488188977,"duration":0.2005208333333428},{"name":"C#3","midi":49,"time":250.6549479166736,"velocity":0.7244094488188977,"duration":0.8216145833333428},{"name":"F#3","midi":54,"time":250.8619791666736,"velocity":0.7244094488188977,"duration":0.2005208333333428},{"name":"C#5","midi":73,"time":251.0690104166736,"velocity":0.7244094488188977,"duration":0.4075520833333428},{"name":"F3","midi":53,"time":251.0690104166736,"velocity":0.7244094488188977,"duration":0.2005208333333428},{"name":"G#3","midi":56,"time":251.2760416666736,"velocity":0.7244094488188977,"duration":0.2005208333333428},{"name":"D#4","midi":63,"time":251.4830729166736,"velocity":0.7244094488188977,"duration":0.40755208333337123},{"name":"F#3","midi":54,"time":251.4830729166736,"velocity":0.7244094488188977,"duration":0.2005208333333428},{"name":"G#2","midi":44,"time":251.4830729166736,"velocity":0.7244094488188977,"duration":0.8216145833333712},{"name":"F3","midi":53,"time":251.68880208334028,"velocity":0.7244094488188977,"duration":0.2005208333333428},{"name":"C5","midi":72,"time":251.89453125000696,"velocity":0.7244094488188977,"duration":0.4075520833333428},{"name":"D#3","midi":51,"time":251.89453125000696,"velocity":0.7244094488188977,"duration":0.2005208333333428},{"name":"F#3","midi":54,"time":252.10156250000696,"velocity":0.7244094488188977,"duration":0.2005208333333428},{"name":"A#2","midi":46,"time":252.3294270833403,"velocity":0.7244094488188977,"duration":0.4192708333333428},{"name":"F3","midi":53,"time":252.3294270833403,"velocity":0.7244094488188977,"duration":0.20703125},{"name":"C#4","midi":61,"time":252.3294270833403,"velocity":0.7244094488188977,"duration":0.20703125},{"name":"G#3","midi":56,"time":252.54166666667365,"velocity":0.7244094488188977,"duration":0.20703125},{"name":"F4","midi":65,"time":252.54166666667365,"velocity":0.7244094488188977,"duration":0.20703125},{"name":"A#3","midi":58,"time":252.753906250007,"velocity":0.7244094488188977,"duration":0.20703125},{"name":"F#4","midi":66,"time":252.753906250007,"velocity":0.7244094488188977,"duration":0.20703125},{"name":"C4","midi":60,"time":252.96614583334033,"velocity":0.7244094488188977,"duration":0.20703125},{"name":"G#4","midi":68,"time":252.96614583334033,"velocity":0.7244094488188977,"duration":0.20703125},{"name":"C#4","midi":61,"time":253.179687500007,"velocity":0.7244094488188977,"duration":0.20703125},{"name":"A#4","midi":70,"time":253.179687500007,"velocity":0.7244094488188977,"duration":0.20703125},{"name":"C4","midi":60,"time":253.390625000007,"velocity":0.7244094488188977,"duration":0.20703125},{"name":"C5","midi":72,"time":253.390625000007,"velocity":0.7244094488188977,"duration":0.20703125},{"name":"A#3","midi":58,"time":253.60416666667365,"velocity":0.7244094488188977,"duration":0.20703125},{"name":"C#5","midi":73,"time":253.60416666667365,"velocity":0.7244094488188977,"duration":0.20703125},{"name":"G#3","midi":56,"time":253.816406250007,"velocity":0.7244094488188977,"duration":0.20703125},{"name":"D#5","midi":75,"time":253.816406250007,"velocity":0.7244094488188977,"duration":0.20703125},{"name":"G3","midi":55,"time":254.02994791667365,"velocity":0.7244094488188977,"duration":0.20703125},{"name":"E5","midi":76,"time":254.02994791667365,"velocity":0.7244094488188977,"duration":0.20703125},{"name":"G#3","midi":56,"time":254.24088541667365,"velocity":0.7244094488188977,"duration":0.20703125},{"name":"D#5","midi":75,"time":254.24088541667365,"velocity":0.7244094488188977,"duration":0.20703125},{"name":"A#3","midi":58,"time":254.4544270833403,"velocity":0.7244094488188977,"duration":0.20703125},{"name":"C#5","midi":73,"time":254.4544270833403,"velocity":0.7244094488188977,"duration":0.20703125},{"name":"G3","midi":55,"time":254.66666666667365,"velocity":0.7244094488188977,"duration":0.20703125},{"name":"D#5","midi":75,"time":254.66666666667365,"velocity":0.7244094488188977,"duration":0.20703125},{"name":"D#3","midi":51,"time":254.878906250007,"velocity":0.7244094488188977,"duration":1.0664062500000284},{"name":"E5","midi":76,"time":254.878906250007,"velocity":0.7244094488188977,"duration":0.20703125},{"name":"C#3","midi":49,"time":255.09114583334033,"velocity":0.7244094488188977,"duration":0.20703125},{"name":"G5","midi":79,"time":255.09114583334033,"velocity":0.7244094488188977,"duration":0.20703125},{"name":"C3","midi":48,"time":255.30338541667368,"velocity":0.7244094488188977,"duration":0.20703125},{"name":"G#5","midi":80,"time":255.30338541667368,"velocity":0.7244094488188977,"duration":0.20703125},{"name":"A#2","midi":46,"time":255.51692708334033,"velocity":0.7244094488188977,"duration":0.20703125},{"name":"A#5","midi":82,"time":255.51692708334033,"velocity":0.7244094488188977,"duration":0.20703125},{"name":"C#5","midi":73,"time":255.74869791667368,"velocity":0.7244094488188977,"duration":0.21744791666668561},{"name":"G#2","midi":44,"time":255.74869791667368,"velocity":0.7244094488188977,"duration":1.1119791666667425},{"name":"C5","midi":72,"time":255.97265625000702,"velocity":0.7244094488188977,"duration":0.2174479166666572},{"name":"D#3","midi":51,"time":255.97265625000702,"velocity":0.7244094488188977,"duration":0.2174479166666572},{"name":"A#4","midi":70,"time":256.1940104166737,"velocity":0.7244094488188977,"duration":0.21744791666668561},{"name":"F3","midi":53,"time":256.1940104166737,"velocity":0.7244094488188977,"duration":0.21744791666668561},{"name":"G#4","midi":68,"time":256.4166666666737,"velocity":0.7244094488188977,"duration":0.21744791666668561},{"name":"F#3","midi":54,"time":256.4166666666737,"velocity":0.7244094488188977,"duration":0.21744791666668561},{"name":"D#5","midi":75,"time":256.64062500000705,"velocity":0.7244094488188977,"duration":0.4401041666666856},{"name":"G#3","midi":56,"time":256.64062500000705,"velocity":0.7244094488188977,"duration":0.21744791666668561},{"name":"A#3","midi":58,"time":256.86197916667373,"velocity":0.7244094488188977,"duration":0.21744791666668561},{"name":"F#4","midi":66,"time":257.08593750000705,"velocity":0.7244094488188977,"duration":0.4401041666666856},{"name":"C4","midi":60,"time":257.08593750000705,"velocity":0.7244094488188977,"duration":0.21744791666668561},{"name":"G#3","midi":56,"time":257.30729166667373,"velocity":0.7244094488188977,"duration":0.21744791666668561},{"name":"F4","midi":65,"time":257.53125000000705,"velocity":0.7244094488188977,"duration":0.5794270833333144},{"name":"C#4","midi":61,"time":257.53125000000705,"velocity":0.7244094488188977,"duration":0.5794270833333144},{"name":"G#4","midi":68,"time":258.11718750000705,"velocity":0.7244094488188977,"duration":0.5794270833333144},{"name":"C#5","midi":73,"time":258.11718750000705,"velocity":0.7244094488188977,"duration":0.5794270833333144},{"name":"C#4","midi":61,"time":258.11718750000705,"velocity":0.7244094488188977,"duration":0.5794270833333144},{"name":"F2","midi":41,"time":258.11718750000705,"velocity":0.7244094488188977,"duration":0.5794270833333144},{"name":"A#4","midi":70,"time":258.70312500000705,"velocity":0.7244094488188977,"duration":0.5794270833333144},{"name":"D#4","midi":63,"time":258.70312500000705,"velocity":0.7244094488188977,"duration":0.5794270833333144},{"name":"F#2","midi":42,"time":258.70312500000705,"velocity":0.7244094488188977,"duration":0.5794270833333144},{"name":"G#4","midi":68,"time":259.29036458334036,"velocity":0.7244094488188977,"duration":0.6588541666666856},{"name":"F#4","midi":66,"time":259.29036458334036,"velocity":0.7244094488188977,"duration":0.6588541666666856},{"name":"C5","midi":72,"time":259.29036458334036,"velocity":0.7244094488188977,"duration":0.6588541666666856},{"name":"G#2","midi":44,"time":259.29036458334036,"velocity":0.7244094488188977,"duration":0.6588541666666856},{"name":"C#2","midi":37,"time":259.97005208334036,"velocity":0.7244094488188977,"duration":4.619791666666686},{"name":"C#3","midi":49,"time":259.97005208334036,"velocity":0.7244094488188977,"duration":4.619791666666686},{"name":"C#4","midi":61,"time":259.97005208334036,"velocity":0.7244094488188977,"duration":4.619791666666686},{"name":"C#5","midi":73,"time":259.97005208334036,"velocity":0.7244094488188977,"duration":4.619791666666686},{"name":"G#4","midi":68,"time":259.97005208334036,"velocity":0.7244094488188977,"duration":4.619791666666686},{"name":"F4","midi":65,"time":259.97005208334036,"velocity":0.7244094488188977,"duration":4.619791666666686}],"controlChanges":{"7":[{"number":7,"time":0,"value":0.7874015748031497}]},"id":1,"name":"Harpsichord","instrumentNumber":6,"instrument":"harpsichord","instrumentFamily":"piano","channelNumber":0,"isPercussion":false}]}