{"header":{"PPQ":384,"timeSignature":[4,4],"bpm":85.00004250002125,"name":"--------"},"startTime":0,"duration":834.1742152655548,"tracks":[{"startTime":0,"duration":0,"length":0,"notes":[],"controlChanges":{},"id":0,"name":"--------"},{"startTime":0.1764705,"duration":834.1742152655548,"length":7703,"notes":[{"name":"E3","midi":52,"time":0.1764705,"velocity":0.7244094488188977,"duration":1.3786757812500003},{"name":"G3","midi":55,"time":0.5294115,"velocity":0.7244094488188977,"duration":0.8823525000000002},{"name":"B3","midi":59,"time":0.5882350000000001,"velocity":0.7244094488188977,"duration":0.8235290000000002},{"name":"E4","midi":64,"time":0.6470585000000001,"velocity":0.7244094488188977,"duration":0.7647055000000001},{"name":"G4","midi":67,"time":0.7058820000000001,"velocity":0.7244094488188977,"duration":0.7058820000000001},{"name":"B4","midi":71,"time":0.7647055000000001,"velocity":0.7244094488188977,"duration":0.6470585000000001},{"name":"E5","midi":76,"time":0.8235290000000002,"velocity":0.7244094488188977,"duration":0.5882350000000001},{"name":"G5","midi":79,"time":0.8823525000000002,"velocity":0.7244094488188977,"duration":0.527573265625},{"name":"G5","midi":79,"time":1.4999992500000003,"velocity":0.7244094488188977,"duration":0.08639701562500002},{"name":"G5","midi":79,"time":1.5882345000000004,"velocity":0.7244094488188977,"duration":0.7922790156249997},{"name":"E3","midi":52,"time":1.5882345000000004,"velocity":0.7244094488188977,"duration":1.4117639999999998},{"name":"C4","midi":60,"time":1.5882345000000004,"velocity":0.7244094488188977,"duration":1.4117639999999998},{"name":"A3","midi":57,"time":1.5882345000000004,"velocity":0.7244094488188977,"duration":1.4117639999999998},{"name":"A4","midi":69,"time":1.5882345000000004,"velocity":0.7244094488188977,"duration":1.4117639999999998},{"name":"C5","midi":72,"time":1.5882345000000004,"velocity":0.7244094488188977,"duration":1.4117639999999998},{"name":"F#5","midi":78,"time":2.38235175,"velocity":0.7244094488188977,"duration":0.7040437656249998},{"name":"D#3","midi":51,"time":3.176469,"velocity":0.7244094488188977,"duration":1.3602934374999993},{"name":"F#3","midi":54,"time":3.4632335625,"velocity":0.7244094488188977,"duration":0.9485289374999999},{"name":"A3","midi":57,"time":3.5477923437500003,"velocity":0.7244094488188977,"duration":0.8639701562499997},{"name":"C4","midi":60,"time":3.6323511250000005,"velocity":0.7244094488188977,"duration":0.9264701249999989},{"name":"D#4","midi":63,"time":3.7169099062500006,"velocity":0.7244094488188977,"duration":0.6948525937499994},{"name":"F#4","midi":66,"time":3.8014686875000008,"velocity":0.7244094488188977,"duration":0.7720584374999984},{"name":"G4","midi":67,"time":3.8897039375000007,"velocity":0.7244094488188977,"duration":0.1654410937499997},{"name":"A4","midi":69,"time":3.9705862500000006,"velocity":0.7244094488188977,"duration":0.5275732656249992},{"name":"A4","midi":69,"time":4.4999977499999995,"velocity":0.7244094488188977,"duration":0.0863970156249998},{"name":"E3","midi":52,"time":4.588232999999999,"velocity":0.7244094488188977,"duration":1.5477933437499987},{"name":"C4","midi":60,"time":4.588232999999999,"velocity":0.7244094488188977,"duration":0.7941172499999993},{"name":"D#4","midi":63,"time":4.588232999999999,"velocity":0.7244094488188977,"duration":0.7922790156249997},{"name":"F#4","midi":66,"time":4.588232999999999,"velocity":0.7244094488188977,"duration":0.7922790156249997},{"name":"A4","midi":69,"time":4.588232999999999,"velocity":0.7244094488188977,"duration":0.7922790156249997},{"name":"B3","midi":59,"time":5.382350249999998,"velocity":0.7244094488188977,"duration":0.6249996874999999},{"name":"E4","midi":64,"time":5.382350249999998,"velocity":0.7244094488188977,"duration":0.6985290624999996},{"name":"G4","midi":67,"time":5.382350249999998,"velocity":0.7244094488188977,"duration":0.7720584374999993},{"name":"E4","midi":64,"time":6.264702749999998,"velocity":0.7244094488188977,"duration":0.4779409374999988},{"name":"G4","midi":67,"time":6.363967406249998,"velocity":0.7244094488188977,"duration":0.09926465624999992},{"name":"B4","midi":71,"time":6.465070296874997,"velocity":0.7244094488188977,"duration":0.09926465624999992},{"name":"C5","midi":72,"time":6.566173187499997,"velocity":0.7244094488188977,"duration":0.09926465624999992},{"name":"D5","midi":74,"time":6.6672760781249965,"velocity":0.7244094488188977,"duration":0.09926465624999992},{"name":"C5","midi":72,"time":6.768378968749996,"velocity":0.7244094488188977,"duration":0.09926465624999992},{"name":"B4","midi":71,"time":6.869481859374996,"velocity":0.7244094488188977,"duration":0.09926465624999992},{"name":"A4","midi":69,"time":6.970584749999995,"velocity":0.7244094488188977,"duration":0.4779409374999988},{"name":"C5","midi":72,"time":7.069849406249995,"velocity":0.7244094488188977,"duration":0.09926465624999992},{"name":"E5","midi":76,"time":7.170952296874995,"velocity":0.7244094488188977,"duration":0.09926465624999992},{"name":"F#5","midi":78,"time":7.272055187499994,"velocity":0.7244094488188977,"duration":0.09926465624999992},{"name":"G5","midi":79,"time":7.373158078124994,"velocity":0.7244094488188977,"duration":0.09926465624999992},{"name":"F#5","midi":78,"time":7.474260968749993,"velocity":0.7244094488188977,"duration":0.09926465624999992},{"name":"E5","midi":76,"time":7.575363859374993,"velocity":0.7244094488188977,"duration":0.09926465624999992},{"name":"D4","midi":62,"time":7.676466749999992,"velocity":0.7244094488188977,"duration":0.47794093749999966},{"name":"F#4","midi":66,"time":7.775731406249992,"velocity":0.7244094488188977,"duration":0.09926465624999992},{"name":"A4","midi":69,"time":7.876834296874992,"velocity":0.7244094488188977,"duration":0.09926465624999992},{"name":"B4","midi":71,"time":7.977937187499991,"velocity":0.7244094488188977,"duration":0.09926465624999992},{"name":"C5","midi":72,"time":8.079040078124992,"velocity":0.7244094488188977,"duration":0.09926465624999992},{"name":"B4","midi":71,"time":8.180142968749992,"velocity":0.7244094488188977,"duration":0.09926465624999992},{"name":"A4","midi":69,"time":8.281245859374993,"velocity":0.7244094488188977,"duration":0.09926465624999992},{"name":"G4","midi":67,"time":8.382348749999993,"velocity":0.7244094488188977,"duration":0.47794093750000144},{"name":"B4","midi":71,"time":8.481613406249993,"velocity":0.7244094488188977,"duration":0.09926465624999992},{"name":"D#5","midi":75,"time":8.582716296874993,"velocity":0.7244094488188977,"duration":0.09926465624999992},{"name":"E5","midi":76,"time":8.683819187499994,"velocity":0.7244094488188977,"duration":0.09926465624999992},{"name":"F#5","midi":78,"time":8.784922078124994,"velocity":0.7244094488188977,"duration":0.09926465624999992},{"name":"E5","midi":76,"time":8.886024968749995,"velocity":0.7244094488188977,"duration":0.09926465624999992},{"name":"D#5","midi":75,"time":8.987127859374995,"velocity":0.7244094488188977,"duration":0.09926465624999992},{"name":"C4","midi":60,"time":9.088230749999996,"velocity":0.7244094488188977,"duration":0.47794093750000144},{"name":"E4","midi":64,"time":9.187495406249996,"velocity":0.7244094488188977,"duration":0.09926465624999992},{"name":"G4","midi":67,"time":9.288598296874996,"velocity":0.7244094488188977,"duration":0.09926465624999992},{"name":"A4","midi":69,"time":9.389701187499996,"velocity":0.7244094488188977,"duration":0.09926465624999992},{"name":"B4","midi":71,"time":9.490804078124997,"velocity":0.7244094488188977,"duration":0.09926465624999992},{"name":"A4","midi":69,"time":9.591906968749997,"velocity":0.7244094488188977,"duration":0.09926465624999992},{"name":"G4","midi":67,"time":9.693009859374998,"velocity":0.7244094488188977,"duration":0.09926465624999992},{"name":"F#4","midi":66,"time":9.794112749999998,"velocity":0.7244094488188977,"duration":0.47794093750000144},{"name":"A#4","midi":70,"time":9.893377406249998,"velocity":0.7244094488188977,"duration":0.09926465624999992},{"name":"C#5","midi":73,"time":9.994480296874999,"velocity":0.7244094488188977,"duration":0.09926465624999992},{"name":"D#5","midi":75,"time":10.095583187499999,"velocity":0.7244094488188977,"duration":0.09926465624999992},{"name":"E5","midi":76,"time":10.196686078125,"velocity":0.7244094488188977,"duration":0.09926465624999992},{"name":"D#5","midi":75,"time":10.29778896875,"velocity":0.7244094488188977,"duration":0.09926465624999992},{"name":"C#5","midi":73,"time":10.398891859375,"velocity":0.7244094488188977,"duration":0.09926465624999992},{"name":"B4","midi":71,"time":10.49999475,"velocity":0.7244094488188977,"duration":0.47794093750000144},{"name":"D#5","midi":75,"time":10.59925940625,"velocity":0.7244094488188977,"duration":0.09926465624999992},{"name":"F#5","midi":78,"time":10.700362296875001,"velocity":0.7244094488188977,"duration":0.09926465624999992},{"name":"G5","midi":79,"time":10.801465187500002,"velocity":0.7244094488188977,"duration":0.09926465624999992},{"name":"A5","midi":81,"time":10.902568078125002,"velocity":0.7244094488188977,"duration":0.09926465624999992},{"name":"G5","midi":79,"time":11.003670968750003,"velocity":0.7244094488188977,"duration":0.09926465624999992},{"name":"F#5","midi":78,"time":11.104773859375003,"velocity":0.7244094488188977,"duration":0.09926465624999992},{"name":"D#5","midi":75,"time":11.205876750000003,"velocity":0.7244094488188977,"duration":0.47794093750000144},{"name":"F#5","midi":78,"time":11.305141406250003,"velocity":0.7244094488188977,"duration":0.09926465624999992},{"name":"A5","midi":81,"time":11.406244296875004,"velocity":0.7244094488188977,"duration":0.09926465624999992},{"name":"B5","midi":83,"time":11.507347187500004,"velocity":0.7244094488188977,"duration":0.09926465624999992},{"name":"C6","midi":84,"time":11.608450078125005,"velocity":0.7244094488188977,"duration":0.15441168749999967},{"name":"B5","midi":83,"time":11.764700000000005,"velocity":0.7244094488188977,"duration":0.1452205156250006},{"name":"A5","midi":81,"time":11.911758750000006,"velocity":0.7244094488188977,"duration":0.17463226562500012},{"name":"E3","midi":52,"time":12.088229250000007,"velocity":0.7244094488188977,"duration":1.3235287500000013},{"name":"G3","midi":55,"time":12.352935000000006,"velocity":0.7244094488188977,"duration":1.058823000000002},{"name":"B3","midi":59,"time":12.441170250000006,"velocity":0.7244094488188977,"duration":0.9705877500000017},{"name":"E4","midi":64,"time":12.529405500000006,"velocity":0.7244094488188977,"duration":0.8823525000000014},{"name":"G4","midi":67,"time":12.617640750000007,"velocity":0.7244094488188977,"duration":0.7941172500000011},{"name":"B4","midi":71,"time":12.705876000000007,"velocity":0.7244094488188977,"duration":0.7058820000000008},{"name":"E5","midi":76,"time":12.794111250000007,"velocity":0.7244094488188977,"duration":0.6176467500000005},{"name":"G5","midi":79,"time":12.882346500000008,"velocity":0.7244094488188977,"duration":0.5275732656249996},{"name":"G5","midi":79,"time":13.411758000000008,"velocity":0.7244094488188977,"duration":0.08823525000000032},{"name":"G5","midi":79,"time":13.499993250000008,"velocity":0.7244094488188977,"duration":0.34926453125000023},{"name":"A4","midi":69,"time":13.499993250000008,"velocity":0.7244094488188977,"duration":1.4117640000000016},{"name":"E4","midi":64,"time":13.499993250000008,"velocity":0.7244094488188977,"duration":1.4117640000000016},{"name":"C#4","midi":61,"time":13.499993250000008,"velocity":0.7244094488188977,"duration":1.4117640000000016},{"name":"A3","midi":57,"time":13.499993250000008,"velocity":0.7244094488188977,"duration":1.4117640000000016},{"name":"F#5","midi":78,"time":13.676463750000009,"velocity":0.7244094488188977,"duration":0.17463226562500012},{"name":"E5","midi":76,"time":13.85293425000001,"velocity":0.7244094488188977,"duration":0.17463226562500012},{"name":"F#5","midi":78,"time":14.02940475000001,"velocity":0.7244094488188977,"duration":0.0863970156249998},{"name":"G5","midi":79,"time":14.11764000000001,"velocity":0.7244094488188977,"duration":0.0863970156249998},{"name":"D5","midi":74,"time":14.20587525000001,"velocity":0.7244094488188977,"duration":0.4393380156249993},{"name":"C#5","midi":73,"time":14.64705150000001,"velocity":0.7244094488188977,"duration":0.351102765624999},{"name":"D3","midi":50,"time":15.08822775000001,"velocity":0.7244094488188977,"duration":1.323528750000003},{"name":"F#3","midi":54,"time":15.35293350000001,"velocity":0.7244094488188977,"duration":1.0588230000000038},{"name":"A3","midi":57,"time":15.44116875000001,"velocity":0.7244094488188977,"duration":0.9705877500000035},{"name":"D4","midi":62,"time":15.52940400000001,"velocity":0.7244094488188977,"duration":0.8823525000000032},{"name":"F#4","midi":66,"time":15.61763925000001,"velocity":0.7244094488188977,"duration":0.7941172500000029},{"name":"A4","midi":69,"time":15.70587450000001,"velocity":0.7244094488188977,"duration":0.7058820000000026},{"name":"C#5","midi":73,"time":15.794109750000011,"velocity":0.7244094488188977,"duration":0.6176467500000022},{"name":"F#5","midi":78,"time":15.882345000000011,"velocity":0.7244094488188977,"duration":0.5275732656250014},{"name":"F#5","midi":78,"time":16.411756500000013,"velocity":0.7244094488188977,"duration":0.0863970156249998},{"name":"G4","midi":67,"time":16.499991750000014,"velocity":0.7244094488188977,"duration":1.4117640000000051},{"name":"F#5","midi":78,"time":16.499991750000014,"velocity":0.7244094488188977,"duration":0.34926453125000023},{"name":"D4","midi":62,"time":16.499991750000014,"velocity":0.7244094488188977,"duration":1.4117640000000051},{"name":"B3","midi":59,"time":16.499991750000014,"velocity":0.7244094488188977,"duration":1.4117640000000051},{"name":"G3","midi":55,"time":16.499991750000014,"velocity":0.7244094488188977,"duration":1.4117640000000051},{"name":"E5","midi":76,"time":16.676462250000014,"velocity":0.7244094488188977,"duration":0.17463226562500012},{"name":"D5","midi":74,"time":16.852932750000015,"velocity":0.7244094488188977,"duration":0.17463226562500012},{"name":"E5","midi":76,"time":17.029403250000016,"velocity":0.7244094488188977,"duration":0.0863970156249998},{"name":"F#5","midi":78,"time":17.117638500000016,"velocity":0.7244094488188977,"duration":0.0863970156249998},{"name":"C#5","midi":73,"time":17.205873750000016,"velocity":0.7244094488188977,"duration":0.35110276562500076},{"name":"B4","midi":71,"time":17.558814750000018,"velocity":0.7244094488188977,"duration":0.4393380156250011},{"name":"G4","midi":67,"time":17.99999100000002,"velocity":0.7244094488188977,"duration":0.47794093750000144},{"name":"B4","midi":71,"time":18.09925565625002,"velocity":0.7244094488188977,"duration":0.09926465624999992},{"name":"C#5","midi":73,"time":18.20035854687502,"velocity":0.7244094488188977,"duration":0.09926465624999992},{"name":"D5","midi":74,"time":18.30146143750002,"velocity":0.7244094488188977,"duration":0.09926465624999992},{"name":"E5","midi":76,"time":18.40256432812502,"velocity":0.7244094488188977,"duration":0.09926465624999992},{"name":"D5","midi":74,"time":18.50366721875002,"velocity":0.7244094488188977,"duration":0.09926465624999992},{"name":"C#5","midi":73,"time":18.60477010937502,"velocity":0.7244094488188977,"duration":0.09926465624999992},{"name":"F#4","midi":66,"time":18.70587300000002,"velocity":0.7244094488188977,"duration":0.47794093750000144},{"name":"A#4","midi":70,"time":18.80513765625002,"velocity":0.7244094488188977,"duration":0.09926465624999992},{"name":"B4","midi":71,"time":18.906240546875022,"velocity":0.7244094488188977,"duration":0.09926465624999992},{"name":"C#5","midi":73,"time":19.007343437500023,"velocity":0.7244094488188977,"duration":0.09926465624999992},{"name":"D5","midi":74,"time":19.108446328125023,"velocity":0.7244094488188977,"duration":0.09926465624999992},{"name":"C#5","midi":73,"time":19.209549218750023,"velocity":0.7244094488188977,"duration":0.09926465624999992},{"name":"B4","midi":71,"time":19.310652109375024,"velocity":0.7244094488188977,"duration":0.09926465624999992},{"name":"E4","midi":64,"time":19.411755000000024,"velocity":0.7244094488188977,"duration":0.47794093750000144},{"name":"G4","midi":67,"time":19.511019656250024,"velocity":0.7244094488188977,"duration":0.09926465624999992},{"name":"A#4","midi":70,"time":19.612122546875025,"velocity":0.7244094488188977,"duration":0.09926465624999992},{"name":"B4","midi":71,"time":19.713225437500025,"velocity":0.7244094488188977,"duration":0.09926465624999992},{"name":"C#5","midi":73,"time":19.814328328125026,"velocity":0.7244094488188977,"duration":0.09926465624999992},{"name":"B4","midi":71,"time":19.915431218750026,"velocity":0.7244094488188977,"duration":0.09926465624999992},{"name":"A#4","midi":70,"time":20.016534109375026,"velocity":0.7244094488188977,"duration":0.09926465624999992},{"name":"C#4","midi":61,"time":20.117637000000027,"velocity":0.7244094488188977,"duration":0.47794093750000144},{"name":"A#4","midi":70,"time":20.216901656250027,"velocity":0.7244094488188977,"duration":0.09926465624999992},{"name":"E5","midi":76,"time":20.318004546875027,"velocity":0.7244094488188977,"duration":0.09926465624999992},{"name":"F#5","midi":78,"time":20.419107437500028,"velocity":0.7244094488188977,"duration":0.09926465624999992},{"name":"G5","midi":79,"time":20.520210328125028,"velocity":0.7244094488188977,"duration":0.09926465624999992},{"name":"F#5","midi":78,"time":20.62131321875003,"velocity":0.7244094488188977,"duration":0.09926465624999992},{"name":"E5","midi":76,"time":20.72241610937503,"velocity":0.7244094488188977,"duration":0.09926465624999992},{"name":"D4","midi":62,"time":20.82351900000003,"velocity":0.7244094488188977,"duration":0.5275732656250014},{"name":"F#5","midi":78,"time":20.82351900000003,"velocity":0.7244094488188977,"duration":0.5275732656250014},{"name":"G3","midi":55,"time":21.44116575000003,"velocity":0.7244094488188977,"duration":0.17463226562500012},{"name":"B4","midi":71,"time":21.44116575000003,"velocity":0.7244094488188977,"duration":0.17463226562500012},{"name":"D4","midi":62,"time":21.44116575000003,"velocity":0.7244094488188977,"duration":0.17463226562500012},{"name":"G4","midi":67,"time":21.44116575000003,"velocity":0.7244094488188977,"duration":0.17463226562500012},{"name":"E3","midi":52,"time":21.617636250000032,"velocity":0.7244094488188977,"duration":0.4411762500000016},{"name":"G4","midi":67,"time":21.617636250000032,"velocity":0.7244094488188977,"duration":0.4411762500000016},{"name":"E4","midi":64,"time":21.617636250000032,"velocity":0.7244094488188977,"duration":0.4411762500000016},{"name":"C#5","midi":73,"time":21.617636250000032,"velocity":0.7244094488188977,"duration":0.4411762500000016},{"name":"F#3","midi":54,"time":22.147047750000034,"velocity":0.7244094488188977,"duration":0.17463226562500012},{"name":"C#4","midi":61,"time":22.147047750000034,"velocity":0.7244094488188977,"duration":0.17463226562500012},{"name":"F#4","midi":66,"time":22.147047750000034,"velocity":0.7244094488188977,"duration":0.1727940312499996},{"name":"A#4","midi":70,"time":22.147047750000034,"velocity":0.7244094488188977,"duration":0.17463226562500012},{"name":"B2","midi":47,"time":22.323518250000035,"velocity":0.7244094488188977,"duration":0.9558818749999993},{"name":"B3","midi":59,"time":22.323518250000035,"velocity":0.7244094488188977,"duration":1.0110289062500009},{"name":"E4","midi":64,"time":22.323518250000035,"velocity":0.7244094488188977,"duration":0.7040437656249985},{"name":"A#4","midi":70,"time":22.323518250000035,"velocity":0.7244094488188977,"duration":0.7040437656249985},{"name":"F#4","midi":66,"time":22.323518250000035,"velocity":0.7244094488188977,"duration":1.0569847656249998},{"name":"B4","midi":71,"time":23.029400250000034,"velocity":0.7244094488188977,"duration":0.22058812499999902},{"name":"D#4","midi":63,"time":23.029400250000034,"velocity":0.7244094488188977,"duration":0.4411762500000016},{"name":"A4","midi":69,"time":23.205870750000035,"velocity":0.7244094488188977,"duration":0.17463226562500012},{"name":"G4","midi":67,"time":23.382341250000035,"velocity":0.7244094488188977,"duration":0.17463226562500012},{"name":"F#4","midi":66,"time":23.558811750000036,"velocity":0.7244094488188977,"duration":0.17463226562500012},{"name":"E4","midi":64,"time":23.735282250000036,"velocity":0.7244094488188977,"duration":0.35110276562500076},{"name":"G4","midi":67,"time":23.735282250000036,"velocity":0.7244094488188977,"duration":0.17463226562500012},{"name":"A#4","midi":70,"time":23.911752750000037,"velocity":0.7244094488188977,"duration":0.17463226562500012},{"name":"B3","midi":59,"time":24.088223250000038,"velocity":0.7244094488188977,"duration":0.35110276562500076},{"name":"B4","midi":71,"time":24.088223250000038,"velocity":0.7244094488188977,"duration":0.17463226562500012},{"name":"C#5","midi":73,"time":24.26469375000004,"velocity":0.7244094488188977,"duration":0.17463226562500012},{"name":"G3","midi":55,"time":24.44116425000004,"velocity":0.7244094488188977,"duration":0.35110276562500076},{"name":"B4","midi":71,"time":24.44116425000004,"velocity":0.7244094488188977,"duration":0.17463226562500012},{"name":"A#4","midi":70,"time":24.61763475000004,"velocity":0.7244094488188977,"duration":0.17463226562500012},{"name":"E4","midi":64,"time":24.79410525000004,"velocity":0.7244094488188977,"duration":0.35110276562500076},{"name":"B4","midi":71,"time":24.79410525000004,"velocity":0.7244094488188977,"duration":0.17463226562500012},{"name":"G4","midi":67,"time":24.97057575000004,"velocity":0.7244094488188977,"duration":0.17463226562500012},{"name":"D4","midi":62,"time":25.14704625000004,"velocity":0.7244094488188977,"duration":0.35110276562500076},{"name":"F#4","midi":66,"time":25.14704625000004,"velocity":0.7244094488188977,"duration":0.17463226562500012},{"name":"A#4","midi":70,"time":25.323516750000042,"velocity":0.7244094488188977,"duration":0.17463226562500012},{"name":"B3","midi":59,"time":25.499987250000043,"velocity":0.7244094488188977,"duration":0.35110276562500076},{"name":"B4","midi":71,"time":25.499987250000043,"velocity":0.7244094488188977,"duration":0.17463226562500012},{"name":"C#5","midi":73,"time":25.676457750000043,"velocity":0.7244094488188977,"duration":0.17463226562500012},{"name":"F#3","midi":54,"time":25.852928250000044,"velocity":0.7244094488188977,"duration":0.35110276562500076},{"name":"B4","midi":71,"time":25.852928250000044,"velocity":0.7244094488188977,"duration":0.17463226562500012},{"name":"A#4","midi":70,"time":26.029398750000045,"velocity":0.7244094488188977,"duration":0.17463226562500012},{"name":"D4","midi":62,"time":26.205869250000045,"velocity":0.7244094488188977,"duration":0.35110276562500076},{"name":"B4","midi":71,"time":26.205869250000045,"velocity":0.7244094488188977,"duration":0.17463226562500012},{"name":"F#4","midi":66,"time":26.382339750000046,"velocity":0.7244094488188977,"duration":0.17463226562500012},{"name":"C#4","midi":61,"time":26.558810250000047,"velocity":0.7244094488188977,"duration":0.35110276562500076},{"name":"E4","midi":64,"time":26.558810250000047,"velocity":0.7244094488188977,"duration":0.17463226562500012},{"name":"B4","midi":71,"time":26.735280750000047,"velocity":0.7244094488188977,"duration":0.17463226562500012},{"name":"A#3","midi":58,"time":26.911751250000048,"velocity":0.7244094488188977,"duration":0.35110276562500076},{"name":"C#5","midi":73,"time":26.911751250000048,"velocity":0.7244094488188977,"duration":0.17463226562500012},{"name":"D5","midi":74,"time":27.08822175000005,"velocity":0.7244094488188977,"duration":0.17463226562500012},{"name":"E3","midi":52,"time":27.26469225000005,"velocity":0.7244094488188977,"duration":0.35110276562500076},{"name":"C#5","midi":73,"time":27.26469225000005,"velocity":0.7244094488188977,"duration":0.17463226562500012},{"name":"B4","midi":71,"time":27.44116275000005,"velocity":0.7244094488188977,"duration":0.17463226562500012},{"name":"A#3","midi":58,"time":27.61763325000005,"velocity":0.7244094488188977,"duration":0.35110276562500076},{"name":"C#5","midi":73,"time":27.61763325000005,"velocity":0.7244094488188977,"duration":0.17463226562500012},{"name":"E4","midi":64,"time":27.79410375000005,"velocity":0.7244094488188977,"duration":0.17463226562500012},{"name":"B3","midi":59,"time":27.970574250000052,"velocity":0.7244094488188977,"duration":0.35110276562500076},{"name":"D4","midi":62,"time":27.970574250000052,"velocity":0.7244094488188977,"duration":0.17463226562500012},{"name":"F#4","midi":66,"time":28.147044750000052,"velocity":0.7244094488188977,"duration":0.17463226562500012},{"name":"F#3","midi":54,"time":28.323515250000053,"velocity":0.7244094488188977,"duration":0.35110276562500076},{"name":"G#4","midi":68,"time":28.323515250000053,"velocity":0.7244094488188977,"duration":0.17463226562500012},{"name":"A#4","midi":70,"time":28.499985750000054,"velocity":0.7244094488188977,"duration":0.17463226562500012},{"name":"D3","midi":50,"time":28.676456250000054,"velocity":0.7244094488188977,"duration":0.35110276562500076},{"name":"B4","midi":71,"time":28.676456250000054,"velocity":0.7244094488188977,"duration":0.17463226562500012},{"name":"F#4","midi":66,"time":28.852926750000055,"velocity":0.7244094488188977,"duration":0.17463226562500012},{"name":"F#3","midi":54,"time":29.029397250000056,"velocity":0.7244094488188977,"duration":0.35110276562500076},{"name":"D5","midi":74,"time":29.029397250000056,"velocity":0.7244094488188977,"duration":0.17463226562500012},{"name":"B4","midi":71,"time":29.205867750000056,"velocity":0.7244094488188977,"duration":0.17463226562500012},{"name":"G3","midi":55,"time":29.382338250000057,"velocity":0.7244094488188977,"duration":0.17463226562500012},{"name":"E5","midi":76,"time":29.382338250000057,"velocity":0.7244094488188977,"duration":0.6985290625000005},{"name":"A#3","midi":58,"time":29.558808750000058,"velocity":0.7244094488188977,"duration":0.17463226562500012},{"name":"B3","midi":59,"time":29.73527925000006,"velocity":0.7244094488188977,"duration":0.17463226562500012},{"name":"B4","midi":71,"time":29.73527925000006,"velocity":0.7244094488188977,"duration":0.35110276562500076},{"name":"C#4","midi":61,"time":29.91174975000006,"velocity":0.7244094488188977,"duration":0.17463226562500012},{"name":"B3","midi":59,"time":30.08822025000006,"velocity":0.7244094488188977,"duration":0.17463226562500012},{"name":"G4","midi":67,"time":30.08822025000006,"velocity":0.7244094488188977,"duration":0.35110276562500076},{"name":"A#3","midi":58,"time":30.26469075000006,"velocity":0.7244094488188977,"duration":0.17463226562500012},{"name":"B3","midi":59,"time":30.44116125000006,"velocity":0.7244094488188977,"duration":0.17463226562500012},{"name":"E5","midi":76,"time":30.44116125000006,"velocity":0.7244094488188977,"duration":0.35110276562500076},{"name":"G3","midi":55,"time":30.61763175000006,"velocity":0.7244094488188977,"duration":0.17463226562500012},{"name":"F#3","midi":54,"time":30.794102250000062,"velocity":0.7244094488188977,"duration":0.17463226562500012},{"name":"D5","midi":74,"time":30.794102250000062,"velocity":0.7244094488188977,"duration":0.6985290625000005},{"name":"A#3","midi":58,"time":30.970572750000063,"velocity":0.7244094488188977,"duration":0.17463226562500012},{"name":"B3","midi":59,"time":31.147043250000063,"velocity":0.7244094488188977,"duration":0.17463226562500012},{"name":"B4","midi":71,"time":31.147043250000063,"velocity":0.7244094488188977,"duration":0.35110276562500076},{"name":"C#4","midi":61,"time":31.323513750000064,"velocity":0.7244094488188977,"duration":0.17463226562500012},{"name":"B3","midi":59,"time":31.499984250000065,"velocity":0.7244094488188977,"duration":0.17463226562500012},{"name":"F#4","midi":66,"time":31.499984250000065,"velocity":0.7244094488188977,"duration":0.35110276562500076},{"name":"A#3","midi":58,"time":31.676454750000065,"velocity":0.7244094488188977,"duration":0.17463226562500012},{"name":"B3","midi":59,"time":31.852925250000066,"velocity":0.7244094488188977,"duration":0.17463226562499656},{"name":"D5","midi":74,"time":31.852925250000066,"velocity":0.7244094488188977,"duration":0.3511027656249972},{"name":"F#3","midi":54,"time":32.02939575000006,"velocity":0.7244094488188977,"duration":0.17463226562500012},{"name":"E3","midi":52,"time":32.205866250000064,"velocity":0.7244094488188977,"duration":0.17463226562500012},{"name":"C#5","midi":73,"time":32.205866250000064,"velocity":0.7244094488188977,"duration":0.6985290625000005},{"name":"B3","midi":59,"time":32.382336750000064,"velocity":0.7244094488188977,"duration":0.17463226562500012},{"name":"C#4","midi":61,"time":32.558807250000065,"velocity":0.7244094488188977,"duration":0.17463226562500012},{"name":"A#4","midi":70,"time":32.558807250000065,"velocity":0.7244094488188977,"duration":0.35110276562500076},{"name":"D4","midi":62,"time":32.735277750000066,"velocity":0.7244094488188977,"duration":0.17463226562500012},{"name":"C#4","midi":61,"time":32.911748250000066,"velocity":0.7244094488188977,"duration":0.17463226562500012},{"name":"E4","midi":64,"time":32.911748250000066,"velocity":0.7244094488188977,"duration":0.35110276562500076},{"name":"B3","midi":59,"time":33.08821875000007,"velocity":0.7244094488188977,"duration":0.17463226562500012},{"name":"C#4","midi":61,"time":33.26468925000007,"velocity":0.7244094488188977,"duration":0.17463226562500012},{"name":"A#4","midi":70,"time":33.26468925000007,"velocity":0.7244094488188977,"duration":0.35110276562500076},{"name":"E3","midi":52,"time":33.44115975000007,"velocity":0.7244094488188977,"duration":0.17463226562500012},{"name":"D3","midi":50,"time":33.61763025000007,"velocity":0.7244094488188977,"duration":0.17463226562500012},{"name":"B4","midi":71,"time":33.61763025000007,"velocity":0.7244094488188977,"duration":0.6985290625000005},{"name":"C#3","midi":49,"time":33.79410075000007,"velocity":0.7244094488188977,"duration":0.17463226562500012},{"name":"D3","midi":50,"time":33.97057125000007,"velocity":0.7244094488188977,"duration":0.17463226562500012},{"name":"F#4","midi":66,"time":33.97057125000007,"velocity":0.7244094488188977,"duration":0.35110276562500076},{"name":"F#3","midi":54,"time":34.14704175000007,"velocity":0.7244094488188977,"duration":0.17463226562500012},{"name":"B3","midi":59,"time":34.32351225000007,"velocity":0.7244094488188977,"duration":0.17463226562500012},{"name":"D4","midi":62,"time":34.32351225000007,"velocity":0.7244094488188977,"duration":0.34926453125000023},{"name":"F#3","midi":54,"time":34.49998275000007,"velocity":0.7244094488188977,"duration":0.17463226562500012},{"name":"D4","midi":62,"time":34.67645325000007,"velocity":0.7244094488188977,"duration":0.17463226562500012},{"name":"B3","midi":59,"time":34.85292375000007,"velocity":0.7244094488188977,"duration":0.17463226562500012},{"name":"G#3","midi":56,"time":35.029394250000074,"velocity":0.7244094488188977,"duration":1.32352874999998},{"name":"B3","midi":59,"time":35.29410000000007,"velocity":0.7244094488188977,"duration":1.0588229999999825},{"name":"D4","midi":62,"time":35.38233525000007,"velocity":0.7244094488188977,"duration":0.9705877499999858},{"name":"E4","midi":64,"time":35.470570500000065,"velocity":0.7244094488188977,"duration":0.882352499999989},{"name":"B4","midi":71,"time":35.55880575000006,"velocity":0.7244094488188977,"duration":0.7941172499999922},{"name":"E5","midi":76,"time":35.64704100000006,"velocity":0.7244094488188977,"duration":0.7058819999999955},{"name":"G#5","midi":80,"time":35.735276250000055,"velocity":0.7244094488188977,"duration":0.6176467499999987},{"name":"B5","midi":83,"time":35.82351150000005,"velocity":0.7244094488188977,"duration":0.5275732656250014},{"name":"B4","midi":71,"time":36.352923000000054,"velocity":0.7244094488188977,"duration":0.08639701562500335},{"name":"D5","midi":74,"time":36.352923000000054,"velocity":0.7244094488188977,"duration":0.08639701562500335},{"name":"A3","midi":57,"time":36.44115825000006,"velocity":0.7244094488188977,"duration":1.411763999999998},{"name":"E4","midi":64,"time":36.44115825000006,"velocity":0.7244094488188977,"duration":1.411763999999998},{"name":"B4","midi":71,"time":36.44115825000006,"velocity":0.7244094488188977,"duration":0.7922790156249988},{"name":"D5","midi":74,"time":36.44115825000006,"velocity":0.7244094488188977,"duration":0.7922790156249988},{"name":"C5","midi":72,"time":37.23527550000006,"velocity":0.7244094488188977,"duration":0.704043765625002},{"name":"A4","midi":69,"time":37.23527550000006,"velocity":0.7244094488188977,"duration":0.704043765625002},{"name":"F#3","midi":54,"time":38.029392750000056,"velocity":0.7244094488188977,"duration":1.235293499999976},{"name":"A3","midi":57,"time":38.294098500000054,"velocity":0.7244094488188977,"duration":0.9705877499999787},{"name":"C4","midi":60,"time":38.38233375000005,"velocity":0.7244094488188977,"duration":0.8823524999999819},{"name":"D4","midi":62,"time":38.47056900000005,"velocity":0.7244094488188977,"duration":0.7941172499999851},{"name":"A4","midi":69,"time":38.558804250000044,"velocity":0.7244094488188977,"duration":0.7058819999999884},{"name":"D5","midi":74,"time":38.64703950000004,"velocity":0.7244094488188977,"duration":0.6176467499999916},{"name":"F#5","midi":78,"time":38.73527475000004,"velocity":0.7244094488188977,"duration":0.5294114999999948},{"name":"A5","midi":81,"time":38.823510000000034,"velocity":0.7244094488188977,"duration":0.4393380156249975},{"name":"A4","midi":69,"time":39.301450937500036,"velocity":0.7244094488188977,"duration":0.1360293437500033},{"name":"C5","midi":72,"time":39.301450937500036,"velocity":0.7244094488188977,"duration":0.1360293437500033},{"name":"G3","midi":55,"time":39.44115675000004,"velocity":0.7244094488188977,"duration":1.3235287500000013},{"name":"D4","midi":62,"time":39.44115675000004,"velocity":0.7244094488188977,"duration":1.3235287500000013},{"name":"A4","midi":69,"time":39.44115675000004,"velocity":0.7244094488188977,"duration":0.7941172499999993},{"name":"C5","midi":72,"time":39.44115675000004,"velocity":0.7244094488188977,"duration":0.7941172499999993},{"name":"B4","midi":71,"time":40.23527400000004,"velocity":0.7244094488188977,"duration":0.8455878124999998},{"name":"G4","midi":67,"time":40.23527400000004,"velocity":0.7244094488188977,"duration":0.8455878124999998},{"name":"G#3","midi":56,"time":41.11762650000004,"velocity":0.7244094488188977,"duration":0.19852931249999983},{"name":"B3","midi":59,"time":41.21689115625004,"velocity":0.7244094488188977,"duration":0.10110289062500044},{"name":"D4","midi":62,"time":41.31799404687504,"velocity":0.7244094488188977,"duration":0.10110289062500044},{"name":"E4","midi":64,"time":41.41909693750004,"velocity":0.7244094488188977,"duration":0.10110289062500044},{"name":"F4","midi":65,"time":41.520199828125044,"velocity":0.7244094488188977,"duration":0.10110289062500044},{"name":"E4","midi":64,"time":41.621302718750044,"velocity":0.7244094488188977,"duration":0.10110289062500044},{"name":"D4","midi":62,"time":41.722405609375045,"velocity":0.7244094488188977,"duration":0.09742642187499939},{"name":"A3","midi":57,"time":41.823508500000045,"velocity":0.7244094488188977,"duration":0.29779396874999975},{"name":"C4","midi":60,"time":41.922773156250045,"velocity":0.7244094488188977,"duration":0.10110289062500044},{"name":"D#4","midi":63,"time":42.023876046875046,"velocity":0.7244094488188977,"duration":0.10110289062500044},{"name":"E4","midi":64,"time":42.124978937500046,"velocity":0.7244094488188977,"duration":0.10110289062500044},{"name":"F#4","midi":66,"time":42.22608182812505,"velocity":0.7244094488188977,"duration":0.10110289062500044},{"name":"E4","midi":64,"time":42.32718471875005,"velocity":0.7244094488188977,"duration":0.10110289062500044},{"name":"D#4","midi":63,"time":42.42828760937505,"velocity":0.7244094488188977,"duration":0.09742642187499939},{"name":"A#3","midi":58,"time":42.52939050000005,"velocity":0.7244094488188977,"duration":0.39705862499999967},{"name":"C#4","midi":61,"time":42.62865515625005,"velocity":0.7244094488188977,"duration":0.10110289062500044},{"name":"E4","midi":64,"time":42.72975804687505,"velocity":0.7244094488188977,"duration":0.10110289062500044},{"name":"F#4","midi":66,"time":42.83086093750005,"velocity":0.7244094488188977,"duration":0.10110289062500044},{"name":"G4","midi":67,"time":42.93196382812505,"velocity":0.7244094488188977,"duration":0.10110289062500044},{"name":"F#4","midi":66,"time":43.03306671875005,"velocity":0.7244094488188977,"duration":0.10110289062500044},{"name":"E4","midi":64,"time":43.13416960937505,"velocity":0.7244094488188977,"duration":0.09742642187499939},{"name":"B3","midi":59,"time":43.23527250000005,"velocity":0.7244094488188977,"duration":0.47794093750000144},{"name":"D4","midi":62,"time":43.33453715625005,"velocity":0.7244094488188977,"duration":0.10110289062500044},{"name":"F4","midi":65,"time":43.43564004687505,"velocity":0.7244094488188977,"duration":0.10110289062500044},{"name":"F#4","midi":66,"time":43.53674293750005,"velocity":0.7244094488188977,"duration":0.10110289062500044},{"name":"G#4","midi":68,"time":43.63784582812505,"velocity":0.7244094488188977,"duration":0.10110289062500044},{"name":"F#4","midi":66,"time":43.73894871875005,"velocity":0.7244094488188977,"duration":0.10110289062500044},{"name":"F4","midi":65,"time":43.84005160937505,"velocity":0.7244094488188977,"duration":0.09742642187499939},{"name":"C4","midi":60,"time":43.94115450000005,"velocity":0.7244094488188977,"duration":0.47794093750000144},{"name":"D#4","midi":63,"time":44.04041915625005,"velocity":0.7244094488188977,"duration":0.19852931249999983},{"name":"F#4","midi":66,"time":44.14152204687505,"velocity":0.7244094488188977,"duration":0.10110289062500044},{"name":"G4","midi":67,"time":44.242624937500054,"velocity":0.7244094488188977,"duration":0.10110289062500044},{"name":"A4","midi":69,"time":44.343727828125054,"velocity":0.7244094488188977,"duration":0.10110289062500044},{"name":"G4","midi":67,"time":44.444830718750055,"velocity":0.7244094488188977,"duration":0.10110289062500044},{"name":"F#4","midi":66,"time":44.545933609375055,"velocity":0.7244094488188977,"duration":0.09742642187499939},{"name":"C#4","midi":61,"time":44.647036500000056,"velocity":0.7244094488188977,"duration":0.47794093750000144},{"name":"E4","midi":64,"time":44.746301156250055,"velocity":0.7244094488188977,"duration":0.29779396874999975},{"name":"G4","midi":67,"time":44.847404046875056,"velocity":0.7244094488188977,"duration":0.10110289062500044},{"name":"A4","midi":69,"time":44.948506937500056,"velocity":0.7244094488188977,"duration":0.10110289062500044},{"name":"A#4","midi":70,"time":45.04960982812506,"velocity":0.7244094488188977,"duration":0.10110289062500044},{"name":"A4","midi":69,"time":45.15071271875006,"velocity":0.7244094488188977,"duration":0.10110289062500044},{"name":"G4","midi":67,"time":45.25181560937506,"velocity":0.7244094488188977,"duration":0.09742642187499939},{"name":"D4","midi":62,"time":45.35291850000006,"velocity":0.7244094488188977,"duration":0.47794093750000144},{"name":"F4","midi":65,"time":45.45218315625006,"velocity":0.7244094488188977,"duration":0.29779396874999975},{"name":"G#4","midi":68,"time":45.55328604687506,"velocity":0.7244094488188977,"duration":0.19852931249999983},{"name":"A4","midi":69,"time":45.65438893750006,"velocity":0.7244094488188977,"duration":0.10110289062500044},{"name":"B4","midi":71,"time":45.75549182812506,"velocity":0.7244094488188977,"duration":0.10110289062500044},{"name":"A4","midi":69,"time":45.85659471875006,"velocity":0.7244094488188977,"duration":0.10110289062500044},{"name":"G#4","midi":68,"time":45.95769760937506,"velocity":0.7244094488188977,"duration":0.09742642187499939},{"name":"D#4","midi":63,"time":46.05880050000006,"velocity":0.7244094488188977,"duration":0.19852931249999983},{"name":"F#4","midi":66,"time":46.15806515625006,"velocity":0.7244094488188977,"duration":0.19852931249999983},{"name":"A4","midi":69,"time":46.25916804687506,"velocity":0.7244094488188977,"duration":0.19852931249999983},{"name":"B4","midi":71,"time":46.36027093750006,"velocity":0.7244094488188977,"duration":0.09926465624999992},{"name":"C5","midi":72,"time":46.46137382812506,"velocity":0.7244094488188977,"duration":0.19852931249999983},{"name":"B4","midi":71,"time":46.57350612500006,"velocity":0.7244094488188977,"duration":0.09926465624999992},{"name":"A4","midi":69,"time":46.67644725000006,"velocity":0.7244094488188977,"duration":0.1360293437500033},{"name":"E3","midi":52,"time":46.85291775000006,"velocity":0.7244094488188977,"duration":1.32352874999998},{"name":"G3","midi":55,"time":47.11762350000006,"velocity":0.7244094488188977,"duration":1.0588229999999825},{"name":"B3","midi":59,"time":47.205858750000054,"velocity":0.7244094488188977,"duration":0.9705877499999858},{"name":"E4","midi":64,"time":47.29409400000005,"velocity":0.7244094488188977,"duration":0.882352499999989},{"name":"G4","midi":67,"time":47.38232925000005,"velocity":0.7244094488188977,"duration":0.7941172499999922},{"name":"B4","midi":71,"time":47.470564500000044,"velocity":0.7244094488188977,"duration":0.7058819999999955},{"name":"E5","midi":76,"time":47.55879975000004,"velocity":0.7244094488188977,"duration":0.6176467499999987},{"name":"G5","midi":79,"time":47.64703500000004,"velocity":0.7244094488188977,"duration":0.5275732656250014},{"name":"G5","midi":79,"time":48.17644650000004,"velocity":0.7244094488188977,"duration":0.08639701562500335},{"name":"A3","midi":57,"time":48.264681750000044,"velocity":0.7244094488188977,"duration":1.411763999999998},{"name":"C4","midi":60,"time":48.264681750000044,"velocity":0.7244094488188977,"duration":1.411763999999998},{"name":"G5","midi":79,"time":48.264681750000044,"velocity":0.7244094488188977,"duration":0.7922790156249988},{"name":"E4","midi":64,"time":48.264681750000044,"velocity":0.7244094488188977,"duration":1.411763999999998},{"name":"A4","midi":69,"time":48.264681750000044,"velocity":0.7244094488188977,"duration":1.411763999999998},{"name":"C5","midi":72,"time":48.264681750000044,"velocity":0.7244094488188977,"duration":1.411763999999998},{"name":"F5","midi":77,"time":49.05879900000004,"velocity":0.7244094488188977,"duration":0.704043765625002},{"name":"B3","midi":59,"time":49.85291625000004,"velocity":0.7244094488188977,"duration":1.32352874999998},{"name":"D4","midi":62,"time":50.11762200000004,"velocity":0.7244094488188977,"duration":1.0588229999999825},{"name":"F4","midi":65,"time":50.20585725000004,"velocity":0.7244094488188977,"duration":0.9705877499999858},{"name":"G#4","midi":68,"time":50.29409250000003,"velocity":0.7244094488188977,"duration":0.882352499999989},{"name":"B4","midi":71,"time":50.38232775000003,"velocity":0.7244094488188977,"duration":0.7941172499999922},{"name":"D5","midi":74,"time":50.47056300000003,"velocity":0.7244094488188977,"duration":0.7058819999999955},{"name":"F5","midi":77,"time":50.558798250000024,"velocity":0.7244094488188977,"duration":0.6176467499999987},{"name":"G#5","midi":80,"time":50.64703350000002,"velocity":0.7244094488188977,"duration":0.5275732656250014},{"name":"G#5","midi":80,"time":51.17644500000002,"velocity":0.7244094488188977,"duration":0.08639701562500335},{"name":"C4","midi":60,"time":51.264680250000026,"velocity":0.7244094488188977,"duration":1.5882344999999987},{"name":"E4","midi":64,"time":51.264680250000026,"velocity":0.7244094488188977,"duration":1.499999250000002},{"name":"A4","midi":69,"time":51.264680250000026,"velocity":0.7244094488188977,"duration":1.499999250000002},{"name":"E5","midi":76,"time":51.264680250000026,"velocity":0.7244094488188977,"duration":1.499999250000002},{"name":"G#5","midi":80,"time":51.264680250000026,"velocity":0.7244094488188977,"duration":0.7922790156249988},{"name":"C5","midi":72,"time":51.264680250000026,"velocity":0.7244094488188977,"duration":1.5882344999999987},{"name":"A5","midi":81,"time":52.058797500000026,"velocity":0.7244094488188977,"duration":0.8805142656250027},{"name":"C5","midi":72,"time":52.94115000000003,"velocity":0.7244094488188977,"duration":0.47794093750000144},{"name":"E5","midi":76,"time":53.04041465625003,"velocity":0.7244094488188977,"duration":0.09926465624999992},{"name":"F#5","midi":78,"time":53.14151754687503,"velocity":0.7244094488188977,"duration":0.09926465624999992},{"name":"G5","midi":79,"time":53.24262043750003,"velocity":0.7244094488188977,"duration":0.09926465624999992},{"name":"A5","midi":81,"time":53.34372332812503,"velocity":0.7244094488188977,"duration":0.09926465624999992},{"name":"G5","midi":79,"time":53.44482621875003,"velocity":0.7244094488188977,"duration":0.09926465624999992},{"name":"F#5","midi":78,"time":53.54592910937503,"velocity":0.7244094488188977,"duration":0.09926465624999992},{"name":"B4","midi":71,"time":53.64703200000003,"velocity":0.7244094488188977,"duration":0.47794093750000144},{"name":"D#5","midi":75,"time":53.74629665625003,"velocity":0.7244094488188977,"duration":0.19852931249999983},{"name":"E5","midi":76,"time":53.84739954687503,"velocity":0.7244094488188977,"duration":0.09926465624999992},{"name":"F#5","midi":78,"time":53.94850243750003,"velocity":0.7244094488188977,"duration":0.09926465624999992},{"name":"G5","midi":79,"time":54.04960532812503,"velocity":0.7244094488188977,"duration":0.09926465624999992},{"name":"F#5","midi":78,"time":54.15070821875003,"velocity":0.7244094488188977,"duration":0.09926465624999992},{"name":"E5","midi":76,"time":54.25181110937503,"velocity":0.7244094488188977,"duration":0.09926465624999992},{"name":"A4","midi":69,"time":54.352914000000034,"velocity":0.7244094488188977,"duration":0.47794093750000144},{"name":"C5","midi":72,"time":54.452178656250034,"velocity":0.7244094488188977,"duration":0.09926465624999992},{"name":"D#5","midi":75,"time":54.553281546875034,"velocity":0.7244094488188977,"duration":0.29779396874999975},{"name":"E5","midi":76,"time":54.654384437500035,"velocity":0.7244094488188977,"duration":0.09926465624999992},{"name":"F#5","midi":78,"time":54.755487328125035,"velocity":0.7244094488188977,"duration":0.09926465624999992},{"name":"E5","midi":76,"time":54.856590218750036,"velocity":0.7244094488188977,"duration":0.09926465624999992},{"name":"D#5","midi":75,"time":54.957693109375036,"velocity":0.7244094488188977,"duration":0.09926465624999992},{"name":"F#4","midi":66,"time":55.05879600000004,"velocity":0.7244094488188977,"duration":0.49448504687499906},{"name":"D#5","midi":75,"time":55.158060656250036,"velocity":0.7244094488188977,"duration":0.39705862499999967},{"name":"A5","midi":81,"time":55.25916354687504,"velocity":0.7244094488188977,"duration":0.09926465624999992},{"name":"B5","midi":83,"time":55.36026643750004,"velocity":0.7244094488188977,"duration":0.09926465624999992},{"name":"C6","midi":84,"time":55.46136932812504,"velocity":0.7244094488188977,"duration":0.09926465624999992},{"name":"B5","midi":83,"time":55.56247221875004,"velocity":0.7244094488188977,"duration":0.09926465624999992},{"name":"A5","midi":81,"time":55.66357510937504,"velocity":0.7244094488188977,"duration":0.09926465624999992},{"name":"B5","midi":83,"time":55.76467800000004,"velocity":0.7244094488188977,"duration":0.5275732656250014},{"name":"G4","midi":67,"time":55.76467800000004,"velocity":0.7244094488188977,"duration":0.5275732656250014},{"name":"C4","midi":60,"time":56.38232475000004,"velocity":0.7244094488188977,"duration":0.17463226562500012},{"name":"E5","midi":76,"time":56.38232475000004,"velocity":0.7244094488188977,"duration":0.17463226562500012},{"name":"C5","midi":72,"time":56.38232475000004,"velocity":0.7244094488188977,"duration":0.17463226562500012},{"name":"G4","midi":67,"time":56.38232475000004,"velocity":0.7244094488188977,"duration":0.17463226562500012},{"name":"A3","midi":57,"time":56.55879525000004,"velocity":0.7244094488188977,"duration":0.5091909218750033},{"name":"F#5","midi":78,"time":56.55879525000004,"velocity":0.7244094488188977,"duration":0.5091909218750033},{"name":"C5","midi":72,"time":56.55879525000004,"velocity":0.7244094488188977,"duration":0.5091909218750033},{"name":"A4","midi":69,"time":56.55879525000004,"velocity":0.7244094488188977,"duration":0.5091909218750033},{"name":"B3","midi":59,"time":57.09923615625004,"velocity":0.7244094488188977,"duration":0.17463226562500722},{"name":"D#5","midi":75,"time":57.09923615625004,"velocity":0.7244094488188977,"duration":0.16176462500000355},{"name":"F#4","midi":66,"time":57.09923615625004,"velocity":0.7244094488188977,"duration":0.16360285937500407},{"name":"B4","midi":71,"time":57.09923615625004,"velocity":0.7244094488188977,"duration":0.16176462500000355},{"name":"E4","midi":64,"time":57.26467725000005,"velocity":0.7244094488188977,"duration":1.0569847656250033},{"name":"E3","midi":52,"time":57.26467725000005,"velocity":0.7244094488188977,"duration":1.0569847656250033},{"name":"B4","midi":71,"time":57.26467725000005,"velocity":0.7244094488188977,"duration":0.704043765625002},{"name":"D#5","midi":75,"time":57.26467725000005,"velocity":0.7244094488188977,"duration":0.704043765625002},{"name":"A4","midi":69,"time":57.26467725000005,"velocity":0.7244094488188977,"duration":0.704043765625002},{"name":"E5","midi":76,"time":57.97055925000005,"velocity":0.7244094488188977,"duration":0.17463226562500012},{"name":"G#4","midi":68,"time":57.97055925000005,"velocity":0.7244094488188977,"duration":0.5147056250000048},{"name":"D5","midi":74,"time":58.14702975000005,"velocity":0.7244094488188977,"duration":0.17463226562500012},{"name":"C5","midi":72,"time":58.32350025000005,"velocity":0.7244094488188977,"duration":0.17463226562500012},{"name":"B4","midi":71,"time":58.49997075000005,"velocity":0.7244094488188977,"duration":0.17463226562500012},{"name":"A4","midi":69,"time":58.67644125000005,"velocity":0.7244094488188977,"duration":0.35110276562500076},{"name":"C5","midi":72,"time":58.67644125000005,"velocity":0.7244094488188977,"duration":0.17463226562500012},{"name":"D#5","midi":75,"time":58.852911750000054,"velocity":0.7244094488188977,"duration":0.17463226562500012},{"name":"E4","midi":64,"time":59.029382250000054,"velocity":0.7244094488188977,"duration":0.35110276562500076},{"name":"E5","midi":76,"time":59.029382250000054,"velocity":0.7244094488188977,"duration":0.17463226562500012},{"name":"F#5","midi":78,"time":59.205852750000055,"velocity":0.7244094488188977,"duration":0.17463226562500012},{"name":"C4","midi":60,"time":59.382323250000056,"velocity":0.7244094488188977,"duration":0.35110276562500076},{"name":"E5","midi":76,"time":59.382323250000056,"velocity":0.7244094488188977,"duration":0.17463226562500012},{"name":"D#5","midi":75,"time":59.558793750000056,"velocity":0.7244094488188977,"duration":0.17463226562500012},{"name":"A4","midi":69,"time":59.73526425000006,"velocity":0.7244094488188977,"duration":0.35110276562500076},{"name":"E5","midi":76,"time":59.73526425000006,"velocity":0.7244094488188977,"duration":0.17463226562500012},{"name":"C5","midi":72,"time":59.91173475000006,"velocity":0.7244094488188977,"duration":0.17463226562500012},{"name":"G4","midi":67,"time":60.08820525000006,"velocity":0.7244094488188977,"duration":0.35110276562500076},{"name":"B4","midi":71,"time":60.08820525000006,"velocity":0.7244094488188977,"duration":0.17463226562500012},{"name":"D#5","midi":75,"time":60.26467575000006,"velocity":0.7244094488188977,"duration":0.17463226562500012},{"name":"E4","midi":64,"time":60.44114625000006,"velocity":0.7244094488188977,"duration":0.35110276562500076},{"name":"E5","midi":76,"time":60.44114625000006,"velocity":0.7244094488188977,"duration":0.17463226562500012},{"name":"F#5","midi":78,"time":60.61761675000006,"velocity":0.7244094488188977,"duration":0.17463226562500012},{"name":"B3","midi":59,"time":60.79408725000006,"velocity":0.7244094488188977,"duration":0.35110276562500076},{"name":"E5","midi":76,"time":60.79408725000006,"velocity":0.7244094488188977,"duration":0.17463226562500012},{"name":"D#5","midi":75,"time":60.97055775000006,"velocity":0.7244094488188977,"duration":0.17463226562500012},{"name":"G4","midi":67,"time":61.14702825000006,"velocity":0.7244094488188977,"duration":0.35110276562500076},{"name":"E5","midi":76,"time":61.14702825000006,"velocity":0.7244094488188977,"duration":0.17463226562500012},{"name":"B4","midi":71,"time":61.32349875000006,"velocity":0.7244094488188977,"duration":0.17463226562500012},{"name":"F#4","midi":66,"time":61.49996925000006,"velocity":0.7244094488188977,"duration":0.35110276562500076},{"name":"A4","midi":69,"time":61.49996925000006,"velocity":0.7244094488188977,"duration":0.17463226562500012},{"name":"E5","midi":76,"time":61.676439750000064,"velocity":0.7244094488188977,"duration":0.17463226562500012},{"name":"D#4","midi":63,"time":61.852910250000065,"velocity":0.7244094488188977,"duration":0.35110276562500076},{"name":"F#5","midi":78,"time":61.852910250000065,"velocity":0.7244094488188977,"duration":0.17463226562500012},{"name":"G5","midi":79,"time":62.029380750000065,"velocity":0.7244094488188977,"duration":0.17463226562500012},{"name":"A3","midi":57,"time":62.205851250000066,"velocity":0.7244094488188977,"duration":0.35110276562500076},{"name":"F#5","midi":78,"time":62.205851250000066,"velocity":0.7244094488188977,"duration":0.17463226562500012},{"name":"E5","midi":76,"time":62.38232175000007,"velocity":0.7244094488188977,"duration":0.17463226562500012},{"name":"D#4","midi":63,"time":62.55879225000007,"velocity":0.7244094488188977,"duration":0.35110276562500076},{"name":"F#5","midi":78,"time":62.55879225000007,"velocity":0.7244094488188977,"duration":0.17463226562500012},{"name":"A4","midi":69,"time":62.73526275000007,"velocity":0.7244094488188977,"duration":0.17463226562500012},{"name":"E4","midi":64,"time":62.91173325000007,"velocity":0.7244094488188977,"duration":0.35110276562500076},{"name":"G4","midi":67,"time":62.91173325000007,"velocity":0.7244094488188977,"duration":0.17463226562500012},{"name":"F#4","midi":66,"time":63.08820375000007,"velocity":0.7244094488188977,"duration":0.17463226562500012},{"name":"B3","midi":59,"time":63.26467425000007,"velocity":0.7244094488188977,"duration":0.35110276562500076},{"name":"G4","midi":67,"time":63.26467425000007,"velocity":0.7244094488188977,"duration":0.17463226562500012},{"name":"B4","midi":71,"time":63.44114475000007,"velocity":0.7244094488188977,"duration":0.17463226562500012},{"name":"G3","midi":55,"time":63.61761525000007,"velocity":0.7244094488188977,"duration":0.35110276562500076},{"name":"E5","midi":76,"time":63.61761525000007,"velocity":0.7244094488188977,"duration":0.17463226562500012},{"name":"B4","midi":71,"time":63.79408575000007,"velocity":0.7244094488188977,"duration":0.17463226562500012},{"name":"B3","midi":59,"time":63.97055625000007,"velocity":0.7244094488188977,"duration":0.35110276562498655},{"name":"G5","midi":79,"time":63.97055625000007,"velocity":0.7244094488188977,"duration":0.174632265624993},{"name":"E5","midi":76,"time":64.14702675000007,"velocity":0.7244094488188977,"duration":0.174632265624993},{"name":"C4","midi":60,"time":64.32349725000006,"velocity":0.7244094488188977,"duration":0.174632265624993},{"name":"A4","midi":69,"time":64.32349725000006,"velocity":0.7244094488188977,"duration":0.6985290624999863},{"name":"D#3","midi":51,"time":64.49996775000005,"velocity":0.7244094488188977,"duration":0.174632265624993},{"name":"E3","midi":52,"time":64.67643825000005,"velocity":0.7244094488188977,"duration":0.174632265624993},{"name":"E5","midi":76,"time":64.67643825000005,"velocity":0.7244094488188977,"duration":0.6985290625000005},{"name":"F#3","midi":54,"time":64.85290875000004,"velocity":0.7244094488188977,"duration":0.17463226562500722},{"name":"E3","midi":52,"time":65.02937925000005,"velocity":0.7244094488188977,"duration":0.174632265624993},{"name":"C6","midi":84,"time":65.02937925000005,"velocity":0.7244094488188977,"duration":0.35110276562500076},{"name":"D#3","midi":51,"time":65.20584975000004,"velocity":0.7244094488188977,"duration":0.17463226562500722},{"name":"E3","midi":52,"time":65.38232025000005,"velocity":0.7244094488188977,"duration":0.174632265624993},{"name":"A4","midi":69,"time":65.38232025000005,"velocity":0.7244094488188977,"duration":0.35110276562498655},{"name":"C4","midi":60,"time":65.55879075000004,"velocity":0.7244094488188977,"duration":0.174632265624993},{"name":"B3","midi":59,"time":65.73526125000004,"velocity":0.7244094488188977,"duration":0.174632265624993},{"name":"G4","midi":67,"time":65.73526125000004,"velocity":0.7244094488188977,"duration":0.6985290624999863},{"name":"D#3","midi":51,"time":65.91173175000003,"velocity":0.7244094488188977,"duration":0.174632265624993},{"name":"E3","midi":52,"time":66.08820225000002,"velocity":0.7244094488188977,"duration":0.174632265624993},{"name":"E5","midi":76,"time":66.08820225000002,"velocity":0.7244094488188977,"duration":0.6985290625000005},{"name":"F#3","midi":54,"time":66.26467275000002,"velocity":0.7244094488188977,"duration":0.17463226562500722},{"name":"E3","midi":52,"time":66.44114325000002,"velocity":0.7244094488188977,"duration":0.174632265624993},{"name":"B5","midi":83,"time":66.44114325000002,"velocity":0.7244094488188977,"duration":0.35110276562500076},{"name":"D#3","midi":51,"time":66.61761375000002,"velocity":0.7244094488188977,"duration":0.17463226562500722},{"name":"E3","midi":52,"time":66.79408425000003,"velocity":0.7244094488188977,"duration":0.174632265624993},{"name":"G4","midi":67,"time":66.79408425000003,"velocity":0.7244094488188977,"duration":0.35110276562498655},{"name":"B3","midi":59,"time":66.97055475000002,"velocity":0.7244094488188977,"duration":0.174632265624993},{"name":"A3","midi":57,"time":67.14702525000001,"velocity":0.7244094488188977,"duration":0.174632265624993},{"name":"F#4","midi":66,"time":67.14702525000001,"velocity":0.7244094488188977,"duration":0.6985290624999863},{"name":"E3","midi":52,"time":67.32349575,"velocity":0.7244094488188977,"duration":0.174632265624993},{"name":"F#3","midi":54,"time":67.49996625,"velocity":0.7244094488188977,"duration":0.174632265624993},{"name":"D#5","midi":75,"time":67.49996625,"velocity":0.7244094488188977,"duration":0.6985290625000005},{"name":"G3","midi":55,"time":67.67643675,"velocity":0.7244094488188977,"duration":0.17463226562500722},{"name":"F#3","midi":54,"time":67.85290725,"velocity":0.7244094488188977,"duration":0.174632265624993},{"name":"A5","midi":81,"time":67.85290725,"velocity":0.7244094488188977,"duration":0.35110276562500076},{"name":"E3","midi":52,"time":68.02937775,"velocity":0.7244094488188977,"duration":0.17463226562500722},{"name":"F#3","midi":54,"time":68.20584825,"velocity":0.7244094488188977,"duration":0.174632265624993},{"name":"D#5","midi":75,"time":68.20584825,"velocity":0.7244094488188977,"duration":0.35110276562498655},{"name":"A3","midi":57,"time":68.38231875,"velocity":0.7244094488188977,"duration":0.174632265624993},{"name":"G3","midi":55,"time":68.55878924999999,"velocity":0.7244094488188977,"duration":0.174632265624993},{"name":"E4","midi":64,"time":68.55878924999999,"velocity":0.7244094488188977,"duration":0.5882349999999832},{"name":"F#3","midi":54,"time":68.73525974999998,"velocity":0.7244094488188977,"duration":0.174632265624993},{"name":"G3","midi":55,"time":68.91173024999998,"velocity":0.7244094488188977,"duration":0.174632265624993},{"name":"B4","midi":71,"time":68.91173024999998,"velocity":0.7244094488188977,"duration":0.44117624999999805},{"name":"B3","midi":59,"time":69.08820074999997,"velocity":0.7244094488188977,"duration":0.17463226562500722},{"name":"E4","midi":64,"time":69.26467124999998,"velocity":0.7244094488188977,"duration":0.174632265624993},{"name":"G5","midi":79,"time":69.26467124999998,"velocity":0.7244094488188977,"duration":0.7040437656249736},{"name":"G4","midi":67,"time":69.44114174999997,"velocity":0.7244094488188977,"duration":0.174632265624993},{"name":"C#4","midi":61,"time":69.61761224999997,"velocity":0.7244094488188977,"duration":0.174632265624993},{"name":"E4","midi":64,"time":69.79408274999996,"velocity":0.7244094488188977,"duration":0.174632265624993},{"name":"A#3","midi":58,"time":69.97055324999995,"velocity":0.7244094488188977,"duration":1.4908080781249708},{"name":"C#4","midi":61,"time":70.23525899999996,"velocity":0.7244094488188977,"duration":1.0588229999999754},{"name":"E4","midi":64,"time":70.32349424999995,"velocity":0.7244094488188977,"duration":1.1029406249999738},{"name":"G4","midi":67,"time":70.41172949999995,"velocity":0.7244094488188977,"duration":0.8823524999999819},{"name":"A#4","midi":70,"time":70.49996474999995,"velocity":0.7244094488188977,"duration":0.9191171874999782},{"name":"C#5","midi":73,"time":70.58819999999994,"velocity":0.7244094488188977,"duration":0.7058819999999884},{"name":"E5","midi":76,"time":70.67643524999994,"velocity":0.7244094488188977,"duration":0.6176467499999916},{"name":"G5","midi":79,"time":70.76467049999994,"velocity":0.7244094488188977,"duration":0.6158085156249911},{"name":"F#5","midi":78,"time":71.38231724999993,"velocity":0.7244094488188977,"duration":0.08639701562499624},{"name":"A3","midi":57,"time":71.47055249999993,"velocity":0.7244094488188977,"duration":0.7040437656249878},{"name":"B3","midi":59,"time":71.47055249999993,"velocity":0.7244094488188977,"duration":1.3915434218749851},{"name":"E5","midi":76,"time":71.47055249999993,"velocity":0.7244094488188977,"duration":0.34926453125000023},{"name":"B4","midi":71,"time":71.47055249999993,"velocity":0.7244094488188977,"duration":0.34926453125000023},{"name":"F#4","midi":66,"time":71.47055249999993,"velocity":0.7244094488188977,"duration":0.6176467499999916},{"name":"D#5","midi":75,"time":71.64702299999992,"velocity":0.7244094488188977,"duration":0.17463226562500722},{"name":"C#5","midi":73,"time":71.82349349999993,"velocity":0.7244094488188977,"duration":0.174632265624993},{"name":"B4","midi":71,"time":71.99996399999992,"velocity":0.7244094488188977,"duration":0.174632265624993},{"name":"G3","midi":55,"time":72.17643449999991,"velocity":0.7244094488188977,"duration":0.6856614218749968},{"name":"E5","midi":76,"time":72.17643449999991,"velocity":0.7244094488188977,"duration":0.6856614218749968},{"name":"E4","midi":64,"time":72.17643449999991,"velocity":0.7244094488188977,"duration":0.6856614218749968},{"name":"A3","midi":57,"time":72.88231649999992,"velocity":0.7244094488188977,"duration":0.08639701562499624},{"name":"C4","midi":60,"time":72.88231649999992,"velocity":0.7244094488188977,"duration":0.08639701562499624},{"name":"E4","midi":64,"time":72.88231649999992,"velocity":0.7244094488188977,"duration":0.08639701562499624},{"name":"B3","midi":59,"time":72.97055174999991,"velocity":0.7244094488188977,"duration":0.422793906250007},{"name":"E4","midi":64,"time":72.97055174999991,"velocity":0.7244094488188977,"duration":0.6985290625000005},{"name":"G4","midi":67,"time":72.97055174999991,"velocity":0.7244094488188977,"duration":0.422793906250007},{"name":"C4","midi":60,"time":73.41172799999993,"velocity":0.7244094488188977,"duration":0.35110276562498655},{"name":"A3","midi":57,"time":73.41172799999993,"velocity":0.7244094488188977,"duration":0.35110276562498655},{"name":"A4","midi":69,"time":73.41172799999993,"velocity":0.7244094488188977,"duration":0.08639701562499624},{"name":"G4","midi":67,"time":73.49996324999992,"velocity":0.7244094488188977,"duration":0.08639701562499624},{"name":"F#4","midi":66,"time":73.58819849999992,"velocity":0.7244094488188977,"duration":0.08639701562499624},{"name":"G4","midi":67,"time":73.67643374999992,"velocity":0.7244094488188977,"duration":0.08639701562499624},{"name":"B3","midi":59,"time":73.76466899999991,"velocity":0.7244094488188977,"duration":0.6158085156250053},{"name":"A4","midi":69,"time":73.76466899999991,"velocity":0.7244094488188977,"duration":0.6158085156250053},{"name":"A3","midi":57,"time":74.38231574999992,"velocity":0.7244094488188977,"duration":0.1286764062499941},{"name":"B2","midi":47,"time":74.38231574999992,"velocity":0.7244094488188977,"duration":0.1286764062499941},{"name":"D#4","midi":63,"time":74.38231574999992,"velocity":0.7244094488188977,"duration":0.1286764062499941},{"name":"F#4","midi":66,"time":74.38231574999992,"velocity":0.7244094488188977,"duration":0.1286764062499941},{"name":"E3","midi":52,"time":74.51466862499991,"velocity":0.7244094488188977,"duration":1.4099257656250046},{"name":"A3","midi":57,"time":74.51466862499991,"velocity":0.7244094488188977,"duration":0.8088231250000035},{"name":"B3","midi":59,"time":74.51466862499991,"velocity":0.7244094488188977,"duration":0.704043765625002},{"name":"F#4","midi":66,"time":74.51466862499991,"velocity":0.7244094488188977,"duration":0.8088231250000035},{"name":"D#4","midi":63,"time":74.51466862499991,"velocity":0.7244094488188977,"duration":0.8088231250000035},{"name":"G3","midi":55,"time":75.35290349999991,"velocity":0.7244094488188977,"duration":0.6985290625000005},{"name":"E4","midi":64,"time":75.35290349999991,"velocity":0.7244094488188977,"duration":0.8823524999999961},{"name":"E3","midi":52,"time":76.05878549999991,"velocity":0.7244094488188977,"duration":0.34926453125000023},{"name":"F#3","midi":54,"time":76.41172649999992,"velocity":0.7244094488188977,"duration":0.08455878124999572},{"name":"E3","midi":52,"time":76.49996174999991,"velocity":0.7244094488188977,"duration":0.08455878124999572},{"name":"F#3","midi":54,"time":76.58819699999991,"velocity":0.7244094488188977,"duration":0.08455878124999572},{"name":"E3","midi":52,"time":76.6764322499999,"velocity":0.7244094488188977,"duration":0.08455878124999572},{"name":"D#3","midi":51,"time":76.7646674999999,"velocity":0.7244094488188977,"duration":0.5147056250000048},{"name":"F#3","midi":54,"time":77.4705494999999,"velocity":0.7244094488188977,"duration":0.34926453125000023},{"name":"G3","midi":55,"time":77.8234904999999,"velocity":0.7244094488188977,"duration":0.08455878124999572},{"name":"F#3","midi":54,"time":77.9117257499999,"velocity":0.7244094488188977,"duration":0.08455878124999572},{"name":"G3","midi":55,"time":77.9999609999999,"velocity":0.7244094488188977,"duration":0.08455878124999572},{"name":"F#3","midi":54,"time":78.0881962499999,"velocity":0.7244094488188977,"duration":0.08455878124999572},{"name":"E3","midi":52,"time":78.1764314999999,"velocity":0.7244094488188977,"duration":0.5147056250000048},{"name":"G3","midi":55,"time":78.8823134999999,"velocity":0.7244094488188977,"duration":0.34926453125000023},{"name":"A3","midi":57,"time":79.2352544999999,"velocity":0.7244094488188977,"duration":0.08455878124999572},{"name":"G3","midi":55,"time":79.3234897499999,"velocity":0.7244094488188977,"duration":0.08455878124999572},{"name":"A3","midi":57,"time":79.41172499999989,"velocity":0.7244094488188977,"duration":0.08455878124999572},{"name":"G3","midi":55,"time":79.49996024999989,"velocity":0.7244094488188977,"duration":0.08455878124999572},{"name":"F#3","midi":54,"time":79.58819549999988,"velocity":0.7244094488188977,"duration":0.1727940312500067},{"name":"G3","midi":55,"time":79.76466599999989,"velocity":0.7244094488188977,"duration":0.1727940312500067},{"name":"A3","midi":57,"time":79.9411364999999,"velocity":0.7244094488188977,"duration":0.34926453125000023},{"name":"C3","midi":48,"time":80.2940774999999,"velocity":0.7244094488188977,"duration":0.34926453125000023},{"name":"B2","midi":47,"time":80.6470184999999,"velocity":0.7244094488188977,"duration":0.34926453125000023},{"name":"D#3","midi":51,"time":80.9999594999999,"velocity":0.7244094488188977,"duration":0.34926453125000023},{"name":"E3","midi":52,"time":81.3529004999999,"velocity":0.7244094488188977,"duration":0.3602939375000034},{"name":"G3","midi":55,"time":81.7058414999999,"velocity":0.7244094488188977,"duration":0.3382351249999971},{"name":"A2","midi":45,"time":82.05878249999991,"velocity":0.7244094488188977,"duration":0.3602939375000034},{"name":"F#3","midi":54,"time":82.41172349999991,"velocity":0.7244094488188977,"duration":0.3400733593749976},{"name":"B2","midi":47,"time":82.76466449999991,"velocity":0.7244094488188977,"duration":0.3602939375000034},{"name":"D#3","midi":51,"time":83.11760549999991,"velocity":0.7244094488188977,"duration":0.3382351249999971},{"name":"E3","midi":52,"time":83.47054649999991,"velocity":0.7244094488188977,"duration":0.1727940312500067},{"name":"G3","midi":55,"time":83.64701699999992,"velocity":0.7244094488188977,"duration":0.1727940312500067},{"name":"F#3","midi":54,"time":83.82348749999993,"velocity":0.7244094488188977,"duration":0.1727940312500067},{"name":"E3","midi":52,"time":83.99995799999994,"velocity":0.7244094488188977,"duration":0.1727940312500067},{"name":"D3","midi":50,"time":84.17642849999994,"velocity":0.7244094488188977,"duration":0.1727940312500067},{"name":"F#3","midi":54,"time":84.35289899999995,"velocity":0.7244094488188977,"duration":0.1727940312500067},{"name":"E3","midi":52,"time":84.52936949999996,"velocity":0.7244094488188977,"duration":0.1727940312500067},{"name":"B3","midi":59,"time":84.52936949999996,"velocity":0.7244094488188977,"duration":0.34926453125001444},{"name":"D3","midi":50,"time":84.70583999999997,"velocity":0.7244094488188977,"duration":0.1727940312500067},{"name":"C#3","midi":49,"time":84.88231049999997,"velocity":0.7244094488188977,"duration":0.17279403124999249},{"name":"C#4","midi":61,"time":84.88231049999997,"velocity":0.7244094488188977,"duration":0.08455878124999572},{"name":"B3","midi":59,"time":84.97054574999997,"velocity":0.7244094488188977,"duration":0.08455878124999572},{"name":"E3","midi":52,"time":85.05878099999997,"velocity":0.7244094488188977,"duration":0.17279403124999249},{"name":"C#4","midi":61,"time":85.05878099999997,"velocity":0.7244094488188977,"duration":0.08455878124999572},{"name":"B3","midi":59,"time":85.14701624999996,"velocity":0.7244094488188977,"duration":0.08455878124999572},{"name":"F#3","midi":54,"time":85.23525149999996,"velocity":0.7244094488188977,"duration":0.1727940312500067},{"name":"A#3","midi":58,"time":85.23525149999996,"velocity":0.7244094488188977,"duration":0.514705625000019},{"name":"G3","midi":55,"time":85.41172199999997,"velocity":0.7244094488188977,"duration":0.1727940312500067},{"name":"A#2","midi":46,"time":85.58819249999998,"velocity":0.7244094488188977,"duration":0.1727940312500067},{"name":"G3","midi":55,"time":85.76466299999998,"velocity":0.7244094488188977,"duration":0.1727940312500067},{"name":"F#3","midi":54,"time":85.94113349999999,"velocity":0.7244094488188977,"duration":0.1727940312500067},{"name":"C#4","midi":61,"time":85.94113349999999,"velocity":0.7244094488188977,"duration":0.34926453125001444},{"name":"E3","midi":52,"time":86.117604,"velocity":0.7244094488188977,"duration":0.1727940312500067},{"name":"D3","midi":50,"time":86.29407450000001,"velocity":0.7244094488188977,"duration":0.17279403124999249},{"name":"D4","midi":62,"time":86.29407450000001,"velocity":0.7244094488188977,"duration":0.08455878124999572},{"name":"C#4","midi":61,"time":86.38230975,"velocity":0.7244094488188977,"duration":0.08455878124999572},{"name":"F#3","midi":54,"time":86.470545,"velocity":0.7244094488188977,"duration":0.17279403124999249},{"name":"D4","midi":62,"time":86.470545,"velocity":0.7244094488188977,"duration":0.08455878124999572},{"name":"C#4","midi":61,"time":86.55878025,"velocity":0.7244094488188977,"duration":0.08455878124999572},{"name":"G#3","midi":56,"time":86.6470155,"velocity":0.7244094488188977,"duration":0.1727940312500067},{"name":"B3","midi":59,"time":86.6470155,"velocity":0.7244094488188977,"duration":0.514705625000019},{"name":"A#3","midi":58,"time":86.823486,"velocity":0.7244094488188977,"duration":0.1727940312500067},{"name":"B2","midi":47,"time":86.99995650000001,"velocity":0.7244094488188977,"duration":0.1727940312500067},{"name":"A3","midi":57,"time":87.17642700000002,"velocity":0.7244094488188977,"duration":0.1727940312500067},{"name":"G3","midi":55,"time":87.35289750000003,"velocity":0.7244094488188977,"duration":0.1727940312500067},{"name":"D4","midi":62,"time":87.35289750000003,"velocity":0.7244094488188977,"duration":0.34926453125001444},{"name":"F#3","midi":54,"time":87.52936800000003,"velocity":0.7244094488188977,"duration":0.1727940312500067},{"name":"E3","midi":52,"time":87.70583850000004,"velocity":0.7244094488188977,"duration":0.17279403124999249},{"name":"E4","midi":64,"time":87.70583850000004,"velocity":0.7244094488188977,"duration":0.08455878124999572},{"name":"D4","midi":62,"time":87.79407375000004,"velocity":0.7244094488188977,"duration":0.08455878124999572},{"name":"G#3","midi":56,"time":87.88230900000003,"velocity":0.7244094488188977,"duration":0.17279403124999249},{"name":"E4","midi":64,"time":87.88230900000003,"velocity":0.7244094488188977,"duration":0.08455878124999572},{"name":"D4","midi":62,"time":87.97054425000003,"velocity":0.7244094488188977,"duration":0.08455878124999572},{"name":"A#3","midi":58,"time":88.05877950000003,"velocity":0.7244094488188977,"duration":0.1727940312500067},{"name":"C#4","midi":61,"time":88.05877950000003,"velocity":0.7244094488188977,"duration":0.1727940312500067},{"name":"B3","midi":59,"time":88.23525000000004,"velocity":0.7244094488188977,"duration":0.1727940312500067},{"name":"D4","midi":62,"time":88.23525000000004,"velocity":0.7244094488188977,"duration":0.1727940312500067},{"name":"C#3","midi":49,"time":88.41172050000004,"velocity":0.7244094488188977,"duration":0.1727940312500067},{"name":"E4","midi":64,"time":88.41172050000004,"velocity":0.7244094488188977,"duration":0.34926453125001444},{"name":"D3","midi":50,"time":88.58819100000005,"velocity":0.7244094488188977,"duration":0.1727940312500067},{"name":"E3","midi":52,"time":88.76466150000006,"velocity":0.7244094488188977,"duration":0.4595585937500033},{"name":"G3","midi":55,"time":88.76466150000006,"velocity":0.7244094488188977,"duration":0.34926453125000023},{"name":"F#3","midi":54,"time":89.11760250000006,"velocity":0.7244094488188977,"duration":0.34926453125001444},{"name":"E3","midi":52,"time":89.29407300000007,"velocity":0.7244094488188977,"duration":0.1727940312500067},{"name":"D3","midi":50,"time":89.47054350000008,"velocity":0.7244094488188977,"duration":0.1727940312500067},{"name":"A#3","midi":58,"time":89.47054350000008,"velocity":0.7244094488188977,"duration":0.34926453125001444},{"name":"C#3","midi":49,"time":89.64701400000008,"velocity":0.7244094488188977,"duration":0.1727940312500067},{"name":"D3","midi":50,"time":89.82348450000009,"velocity":0.7244094488188977,"duration":0.1727940312500067},{"name":"B3","midi":59,"time":89.82348450000009,"velocity":0.7244094488188977,"duration":0.34926453125001444},{"name":"C#3","midi":49,"time":89.9999550000001,"velocity":0.7244094488188977,"duration":0.1727940312500067},{"name":"B2","midi":47,"time":90.17642550000011,"velocity":0.7244094488188977,"duration":0.44117624999999805},{"name":"D4","midi":62,"time":90.17642550000011,"velocity":0.7244094488188977,"duration":0.34926453125000023},{"name":"E3","midi":52,"time":90.52936650000011,"velocity":0.7244094488188977,"duration":0.34926453125000023},{"name":"B2","midi":47,"time":90.7058370000001,"velocity":0.7244094488188977,"duration":0.1727940312500067},{"name":"A#2","midi":46,"time":90.88230750000011,"velocity":0.7244094488188977,"duration":0.1727940312500067},{"name":"C#4","midi":61,"time":90.88230750000011,"velocity":0.7244094488188977,"duration":0.34926453125001444},{"name":"G#2","midi":44,"time":91.05877800000012,"velocity":0.7244094488188977,"duration":0.1727940312500067},{"name":"A#2","midi":46,"time":91.23524850000013,"velocity":0.7244094488188977,"duration":0.1727940312500067},{"name":"F#3","midi":54,"time":91.23524850000013,"velocity":0.7244094488188977,"duration":0.34926453125001444},{"name":"B2","midi":47,"time":91.41171900000013,"velocity":0.7244094488188977,"duration":0.1727940312500067},{"name":"C#3","midi":49,"time":91.58818950000014,"velocity":0.7244094488188977,"duration":0.1727940312500067},{"name":"A#3","midi":58,"time":91.58818950000014,"velocity":0.7244094488188977,"duration":0.31433807812500447},{"name":"F#2","midi":42,"time":91.76466000000015,"velocity":0.7244094488188977,"duration":0.17279403124999249},{"name":"D3","midi":50,"time":91.94113050000014,"velocity":0.7244094488188977,"duration":0.1727940312500067},{"name":"B3","midi":59,"time":91.94113050000014,"velocity":0.7244094488188977,"duration":0.1727940312500067},{"name":"C#3","midi":49,"time":92.11760100000015,"velocity":0.7244094488188977,"duration":0.1727940312500067},{"name":"C#4","midi":61,"time":92.11760100000015,"velocity":0.7244094488188977,"duration":0.1727940312500067},{"name":"B2","midi":47,"time":92.29407150000016,"velocity":0.7244094488188977,"duration":0.1727940312500067},{"name":"D4","midi":62,"time":92.29407150000016,"velocity":0.7244094488188977,"duration":0.6617643750000184},{"name":"A#2","midi":46,"time":92.47054200000017,"velocity":0.7244094488188977,"duration":0.1727940312500067},{"name":"B2","midi":47,"time":92.64701250000017,"velocity":0.7244094488188977,"duration":0.1727940312500067},{"name":"C#3","midi":49,"time":92.82348300000018,"velocity":0.7244094488188977,"duration":0.17279403124999249},{"name":"D3","midi":50,"time":92.99995350000017,"velocity":0.7244094488188977,"duration":0.1727940312500067},{"name":"B3","midi":59,"time":92.99995350000017,"velocity":0.7244094488188977,"duration":0.34926453125001444},{"name":"F#2","midi":42,"time":93.17642400000018,"velocity":0.7244094488188977,"duration":0.1727940312500067},{"name":"E3","midi":52,"time":93.35289450000019,"velocity":0.7244094488188977,"duration":0.1727940312500067},{"name":"C#4","midi":61,"time":93.35289450000019,"velocity":0.7244094488188977,"duration":0.1727940312500067},{"name":"D3","midi":50,"time":93.5293650000002,"velocity":0.7244094488188977,"duration":0.1727940312500067},{"name":"D4","midi":62,"time":93.5293650000002,"velocity":0.7244094488188977,"duration":0.1727940312500067},{"name":"C#3","midi":49,"time":93.7058355000002,"velocity":0.7244094488188977,"duration":0.1727940312500067},{"name":"E4","midi":64,"time":93.7058355000002,"velocity":0.7244094488188977,"duration":0.6617643750000184},{"name":"B2","midi":47,"time":93.88230600000021,"velocity":0.7244094488188977,"duration":0.1727940312500067},{"name":"C#3","midi":49,"time":94.05877650000022,"velocity":0.7244094488188977,"duration":0.1727940312500067},{"name":"D3","midi":50,"time":94.23524700000023,"velocity":0.7244094488188977,"duration":0.17279403124999249},{"name":"E3","midi":52,"time":94.41171750000022,"velocity":0.7244094488188977,"duration":0.1727940312500067},{"name":"C#4","midi":61,"time":94.41171750000022,"velocity":0.7244094488188977,"duration":0.34926453125001444},{"name":"F#2","midi":42,"time":94.58818800000023,"velocity":0.7244094488188977,"duration":0.1727940312500067},{"name":"F#3","midi":54,"time":94.76465850000024,"velocity":0.7244094488188977,"duration":0.1727940312500067},{"name":"D#4","midi":63,"time":94.76465850000024,"velocity":0.7244094488188977,"duration":0.1727940312500067},{"name":"E3","midi":52,"time":94.94112900000025,"velocity":0.7244094488188977,"duration":0.1727940312500067},{"name":"E4","midi":64,"time":94.94112900000025,"velocity":0.7244094488188977,"duration":0.1727940312500067},{"name":"D#3","midi":51,"time":95.11759950000025,"velocity":0.7244094488188977,"duration":0.1727940312500067},{"name":"F#4","midi":66,"time":95.11759950000025,"velocity":0.7244094488188977,"duration":0.6856614218750252},{"name":"C#3","midi":49,"time":95.29407000000026,"velocity":0.7244094488188977,"duration":0.1727940312500067},{"name":"D#3","midi":51,"time":95.47054050000027,"velocity":0.7244094488188977,"duration":0.1727940312500067},{"name":"E3","midi":52,"time":95.64701100000028,"velocity":0.7244094488188977,"duration":0.1727940312500067},{"name":"F#3","midi":54,"time":95.82348150000028,"velocity":0.7244094488188977,"duration":0.1727940312500067},{"name":"E4","midi":64,"time":95.82348150000028,"velocity":0.7244094488188977,"duration":0.1727940312500067},{"name":"B2","midi":47,"time":95.99995200000029,"velocity":0.7244094488188977,"duration":0.1727940312500067},{"name":"D#4","midi":63,"time":95.99995200000029,"velocity":0.7244094488188977,"duration":0.1727940312500067},{"name":"G3","midi":55,"time":96.1764225000003,"velocity":0.7244094488188977,"duration":0.1727940312500067},{"name":"E4","midi":64,"time":96.1764225000003,"velocity":0.7244094488188977,"duration":0.1727940312500067},{"name":"F#3","midi":54,"time":96.35289300000031,"velocity":0.7244094488188977,"duration":0.1727940312500067},{"name":"F#4","midi":66,"time":96.35289300000031,"velocity":0.7244094488188977,"duration":0.1727940312500067},{"name":"E3","midi":52,"time":96.52936350000031,"velocity":0.7244094488188977,"duration":0.1727940312500067},{"name":"G4","midi":67,"time":96.52936350000031,"velocity":0.7244094488188977,"duration":0.7022055312500299},{"name":"D#3","midi":51,"time":96.70583400000032,"velocity":0.7244094488188977,"duration":0.1727940312500067},{"name":"E3","midi":52,"time":96.88230450000033,"velocity":0.7244094488188977,"duration":0.1727940312500067},{"name":"D3","midi":50,"time":97.05877500000034,"velocity":0.7244094488188977,"duration":0.1727940312500067},{"name":"B3","midi":59,"time":97.05877500000034,"velocity":0.7244094488188977,"duration":0.1727940312500067},{"name":"C3","midi":48,"time":97.23524550000035,"velocity":0.7244094488188977,"duration":0.1727940312500067},{"name":"A3","midi":57,"time":97.23524550000035,"velocity":0.7244094488188977,"duration":0.1727940312500067},{"name":"E4","midi":64,"time":97.23524550000035,"velocity":0.7244094488188977,"duration":0.34926453125001444},{"name":"B2","midi":47,"time":97.41171600000035,"velocity":0.7244094488188977,"duration":0.1727940312500067},{"name":"G3","midi":55,"time":97.41171600000035,"velocity":0.7244094488188977,"duration":0.1727940312500067},{"name":"A2","midi":45,"time":97.58818650000036,"velocity":0.7244094488188977,"duration":0.7022055312500299},{"name":"F#3","midi":54,"time":97.58818650000036,"velocity":0.7244094488188977,"duration":0.1727940312500067},{"name":"E4","midi":64,"time":97.58818650000036,"velocity":0.7244094488188977,"duration":0.34926453125001444},{"name":"A3","midi":57,"time":97.76465700000037,"velocity":0.7244094488188977,"duration":0.1727940312500067},{"name":"B3","midi":59,"time":97.94112750000038,"velocity":0.7244094488188977,"duration":0.1727940312500067},{"name":"D#4","midi":63,"time":97.94112750000038,"velocity":0.7244094488188977,"duration":0.514705625000019},{"name":"C4","midi":60,"time":98.11759800000038,"velocity":0.7244094488188977,"duration":0.1727940312500067},{"name":"B2","midi":47,"time":98.29406850000039,"velocity":0.7244094488188977,"duration":0.7022055312500299},{"name":"D#3","midi":51,"time":98.29406850000039,"velocity":0.7244094488188977,"duration":0.1727940312500067},{"name":"C4","midi":60,"time":98.4705390000004,"velocity":0.7244094488188977,"duration":0.1727940312500067},{"name":"B3","midi":59,"time":98.64700950000041,"velocity":0.7244094488188977,"duration":0.1727940312500067},{"name":"F#4","midi":66,"time":98.64700950000041,"velocity":0.7244094488188977,"duration":0.34926453125001444},{"name":"A3","midi":57,"time":98.82348000000042,"velocity":0.7244094488188977,"duration":0.1727940312500067},{"name":"E3","midi":52,"time":98.99995050000042,"velocity":0.7244094488188977,"duration":0.7022055312500299},{"name":"G3","midi":55,"time":98.99995050000042,"velocity":0.7244094488188977,"duration":0.1727940312500067},{"name":"F#4","midi":66,"time":98.99995050000042,"velocity":0.7244094488188977,"duration":0.34926453125001444},{"name":"B3","midi":59,"time":99.17642100000043,"velocity":0.7244094488188977,"duration":0.1727940312500067},{"name":"C#4","midi":61,"time":99.35289150000044,"velocity":0.7244094488188977,"duration":0.1727940312500067},{"name":"E4","midi":64,"time":99.35289150000044,"velocity":0.7244094488188977,"duration":0.514705625000019},{"name":"D#4","midi":63,"time":99.52936200000045,"velocity":0.7244094488188977,"duration":0.1727940312500067},{"name":"E3","midi":52,"time":99.70583250000045,"velocity":0.7244094488188977,"duration":0.7022055312500299},{"name":"D4","midi":62,"time":99.88230300000046,"velocity":0.7244094488188977,"duration":0.1727940312500067},{"name":"C4","midi":60,"time":100.05877350000047,"velocity":0.7244094488188977,"duration":0.1727940312500067},{"name":"G4","midi":67,"time":100.05877350000047,"velocity":0.7244094488188977,"duration":0.34926453125001444},{"name":"B3","midi":59,"time":100.23524400000048,"velocity":0.7244094488188977,"duration":0.1727940312500067},{"name":"F#3","midi":54,"time":100.41171450000049,"velocity":0.7244094488188977,"duration":0.7022055312500015},{"name":"A3","midi":57,"time":100.41171450000049,"velocity":0.7244094488188977,"duration":0.17279403124999249},{"name":"A4","midi":69,"time":100.41171450000049,"velocity":0.7244094488188977,"duration":0.08455878124999572},{"name":"G4","midi":67,"time":100.49994975000048,"velocity":0.7244094488188977,"duration":0.08455878124999572},{"name":"C#4","midi":61,"time":100.58818500000048,"velocity":0.7244094488188977,"duration":0.17279403124999249},{"name":"A4","midi":69,"time":100.58818500000048,"velocity":0.7244094488188977,"duration":0.08455878124999572},{"name":"G4","midi":67,"time":100.67642025000048,"velocity":0.7244094488188977,"duration":0.08455878124999572},{"name":"D#4","midi":63,"time":100.76465550000047,"velocity":0.7244094488188977,"duration":0.1727940312500067},{"name":"F#4","midi":66,"time":100.76465550000047,"velocity":0.7244094488188977,"duration":0.1727940312500067},{"name":"E4","midi":64,"time":100.94112600000048,"velocity":0.7244094488188977,"duration":0.1727940312500067},{"name":"G4","midi":67,"time":100.94112600000048,"velocity":0.7244094488188977,"duration":0.1727940312500067},{"name":"F#3","midi":54,"time":101.11759650000049,"velocity":0.7244094488188977,"duration":0.525735031250008},{"name":"A4","midi":69,"time":101.11759650000049,"velocity":0.7244094488188977,"duration":0.34926453125000023},{"name":"G3","midi":55,"time":101.29406700000048,"velocity":0.7244094488188977,"duration":0.1727940312500067},{"name":"A3","midi":57,"time":101.47053750000049,"velocity":0.7244094488188977,"duration":0.5257350312500222},{"name":"C4","midi":60,"time":101.47053750000049,"velocity":0.7244094488188977,"duration":0.34926453125001444},{"name":"E3","midi":52,"time":101.6470080000005,"velocity":0.7244094488188977,"duration":0.1727940312500067},{"name":"D#3","midi":51,"time":101.8234785000005,"velocity":0.7244094488188977,"duration":0.34926453125001444},{"name":"B3","midi":59,"time":101.8234785000005,"velocity":0.7244094488188977,"duration":0.34926453125001444},{"name":"A3","midi":57,"time":101.99994900000051,"velocity":0.7244094488188977,"duration":0.1727940312500067},{"name":"B2","midi":47,"time":102.17641950000052,"velocity":0.7244094488188977,"duration":0.34926453125001444},{"name":"G3","midi":55,"time":102.17641950000052,"velocity":0.7244094488188977,"duration":0.1727940312500067},{"name":"D#4","midi":63,"time":102.17641950000052,"velocity":0.7244094488188977,"duration":0.34926453125001444},{"name":"F#3","midi":54,"time":102.35289000000053,"velocity":0.7244094488188977,"duration":0.1727940312500067},{"name":"G3","midi":55,"time":102.52936050000054,"velocity":0.7244094488188977,"duration":0.1727940312500067},{"name":"E4","midi":64,"time":102.52936050000054,"velocity":0.7244094488188977,"duration":0.34926453125001444},{"name":"F#3","midi":54,"time":102.70583100000054,"velocity":0.7244094488188977,"duration":0.1727940312500067},{"name":"G2","midi":43,"time":102.88230150000055,"velocity":0.7244094488188977,"duration":0.34926453125000023},{"name":"E3","midi":52,"time":102.88230150000055,"velocity":0.7244094488188977,"duration":0.525735031250008},{"name":"G4","midi":67,"time":102.88230150000055,"velocity":0.7244094488188977,"duration":0.34926453125000023},{"name":"C3","midi":48,"time":103.23524250000055,"velocity":0.7244094488188977,"duration":0.34926453125001444},{"name":"A3","midi":57,"time":103.23524250000055,"velocity":0.7244094488188977,"duration":0.34926453125001444},{"name":"E3","midi":52,"time":103.41171300000056,"velocity":0.7244094488188977,"duration":0.1727940312500067},{"name":"A2","midi":45,"time":103.58818350000057,"velocity":0.7244094488188977,"duration":0.34926453125001444},{"name":"D#3","midi":51,"time":103.58818350000057,"velocity":0.7244094488188977,"duration":0.1727940312500067},{"name":"F#4","midi":66,"time":103.58818350000057,"velocity":0.7244094488188977,"duration":0.34926453125001444},{"name":"C#3","midi":49,"time":103.76465400000058,"velocity":0.7244094488188977,"duration":0.1727940312500067},{"name":"B2","midi":47,"time":103.94112450000058,"velocity":0.7244094488188977,"duration":0.514705625000019},{"name":"D#3","midi":51,"time":103.94112450000058,"velocity":0.7244094488188977,"duration":0.1727940312500067},{"name":"B3","midi":59,"time":103.94112450000058,"velocity":0.7244094488188977,"duration":0.34926453125001444},{"name":"E3","midi":52,"time":104.11759500000059,"velocity":0.7244094488188977,"duration":0.1727940312500067},{"name":"F#3","midi":54,"time":104.2940655000006,"velocity":0.7244094488188977,"duration":0.1727940312500067},{"name":"D#4","midi":63,"time":104.2940655000006,"velocity":0.7244094488188977,"duration":0.34926453125001444},{"name":"B2","midi":47,"time":104.4705360000006,"velocity":0.7244094488188977,"duration":0.22058812500000613},{"name":"G3","midi":55,"time":104.64700650000061,"velocity":0.7244094488188977,"duration":1.4099257656250472},{"name":"E4","midi":64,"time":104.64700650000061,"velocity":0.7244094488188977,"duration":0.17279403124999249},{"name":"G4","midi":67,"time":104.82347700000061,"velocity":0.7244094488188977,"duration":0.1727940312500067},{"name":"E2","midi":40,"time":104.99994750000062,"velocity":0.7244094488188977,"duration":0.34926453125001444},{"name":"F#4","midi":66,"time":104.99994750000062,"velocity":0.7244094488188977,"duration":0.1727940312500067},{"name":"E4","midi":64,"time":105.17641800000062,"velocity":0.7244094488188977,"duration":0.1727940312500067},{"name":"F#2","midi":42,"time":105.35288850000063,"velocity":0.7244094488188977,"duration":0.34926453125001444},{"name":"D4","midi":62,"time":105.35288850000063,"velocity":0.7244094488188977,"duration":0.1727940312500067},{"name":"F#4","midi":66,"time":105.52935900000064,"velocity":0.7244094488188977,"duration":0.1727940312500067},{"name":"G2","midi":43,"time":105.70582950000065,"velocity":0.7244094488188977,"duration":0.34926453125001444},{"name":"E4","midi":64,"time":105.70582950000065,"velocity":0.7244094488188977,"duration":0.1727940312500067},{"name":"D4","midi":62,"time":105.88230000000065,"velocity":0.7244094488188977,"duration":0.1727940312500067},{"name":"A2","midi":45,"time":106.05877050000066,"velocity":0.7244094488188977,"duration":1.4099257656250614},{"name":"C#4","midi":61,"time":106.05877050000066,"velocity":0.7244094488188977,"duration":0.1727940312500067},{"name":"E4","midi":64,"time":106.23524100000067,"velocity":0.7244094488188977,"duration":0.1727940312500067},{"name":"C#3","midi":49,"time":106.41171150000068,"velocity":0.7244094488188977,"duration":0.34926453125001444},{"name":"F#4","midi":66,"time":106.41171150000068,"velocity":0.7244094488188977,"duration":0.1727940312500067},{"name":"G4","midi":67,"time":106.58818200000069,"velocity":0.7244094488188977,"duration":0.1727940312500067},{"name":"E3","midi":52,"time":106.7646525000007,"velocity":0.7244094488188977,"duration":0.34926453125001444},{"name":"A3","midi":57,"time":106.7646525000007,"velocity":0.7244094488188977,"duration":0.1727940312500067},{"name":"G4","midi":67,"time":106.9411230000007,"velocity":0.7244094488188977,"duration":0.1727940312500067},{"name":"A3","midi":57,"time":107.11759350000071,"velocity":0.7244094488188977,"duration":0.34926453125001444},{"name":"F#4","midi":66,"time":107.11759350000071,"velocity":0.7244094488188977,"duration":0.1727940312500067},{"name":"E4","midi":64,"time":107.29406400000072,"velocity":0.7244094488188977,"duration":0.1727940312500067},{"name":"F#3","midi":54,"time":107.47053450000072,"velocity":0.7244094488188977,"duration":1.4099257656250614},{"name":"D4","midi":62,"time":107.47053450000072,"velocity":0.7244094488188977,"duration":0.1727940312500067},{"name":"F#4","midi":66,"time":107.64700500000073,"velocity":0.7244094488188977,"duration":0.1727940312500067},{"name":"D2","midi":38,"time":107.82347550000074,"velocity":0.7244094488188977,"duration":0.34926453125001444},{"name":"E4","midi":64,"time":107.82347550000074,"velocity":0.7244094488188977,"duration":0.1727940312500067},{"name":"D4","midi":62,"time":107.99994600000075,"velocity":0.7244094488188977,"duration":0.1727940312500067},{"name":"E2","midi":40,"time":108.17641650000076,"velocity":0.7244094488188977,"duration":0.34926453125001444},{"name":"C#4","midi":61,"time":108.17641650000076,"velocity":0.7244094488188977,"duration":0.1727940312500067},{"name":"E4","midi":64,"time":108.35288700000076,"velocity":0.7244094488188977,"duration":0.1727940312500067},{"name":"F#2","midi":42,"time":108.52935750000077,"velocity":0.7244094488188977,"duration":0.34926453125001444},{"name":"D4","midi":62,"time":108.52935750000077,"velocity":0.7244094488188977,"duration":0.1727940312500067},{"name":"C#4","midi":61,"time":108.70582800000078,"velocity":0.7244094488188977,"duration":0.1727940312500067},{"name":"G2","midi":43,"time":108.88229850000079,"velocity":0.7244094488188977,"duration":1.4099257656250614},{"name":"B3","midi":59,"time":108.88229850000079,"velocity":0.7244094488188977,"duration":0.1727940312500067},{"name":"D4","midi":62,"time":109.0587690000008,"velocity":0.7244094488188977,"duration":0.1727940312500067},{"name":"B2","midi":47,"time":109.2352395000008,"velocity":0.7244094488188977,"duration":0.34926453125001444},{"name":"E4","midi":64,"time":109.2352395000008,"velocity":0.7244094488188977,"duration":0.1727940312500067},{"name":"F#4","midi":66,"time":109.41171000000081,"velocity":0.7244094488188977,"duration":0.1727940312500067},{"name":"D3","midi":50,"time":109.58818050000082,"velocity":0.7244094488188977,"duration":0.34926453125001444},{"name":"G3","midi":55,"time":109.58818050000082,"velocity":0.7244094488188977,"duration":0.1727940312500067},{"name":"F#4","midi":66,"time":109.76465100000082,"velocity":0.7244094488188977,"duration":0.1727940312500067},{"name":"G3","midi":55,"time":109.94112150000083,"velocity":0.7244094488188977,"duration":0.34926453125001444},{"name":"E4","midi":64,"time":109.94112150000083,"velocity":0.7244094488188977,"duration":0.1727940312500067},{"name":"D4","midi":62,"time":110.11759200000084,"velocity":0.7244094488188977,"duration":0.1727940312500067},{"name":"E3","midi":52,"time":110.29406250000085,"velocity":0.7244094488188977,"duration":1.4099257656250614},{"name":"C#4","midi":61,"time":110.29406250000085,"velocity":0.7244094488188977,"duration":0.1727940312500067},{"name":"E4","midi":64,"time":110.47053300000086,"velocity":0.7244094488188977,"duration":0.1727940312500067},{"name":"C#2","midi":37,"time":110.64700350000086,"velocity":0.7244094488188977,"duration":0.34926453125001444},{"name":"D4","midi":62,"time":110.64700350000086,"velocity":0.7244094488188977,"duration":0.1727940312500067},{"name":"C#4","midi":61,"time":110.82347400000087,"velocity":0.7244094488188977,"duration":0.1727940312500067},{"name":"D2","midi":38,"time":110.99994450000088,"velocity":0.7244094488188977,"duration":0.34926453125001444},{"name":"B3","midi":59,"time":110.99994450000088,"velocity":0.7244094488188977,"duration":0.1727940312500067},{"name":"D4","midi":62,"time":111.17641500000089,"velocity":0.7244094488188977,"duration":0.1727940312500067},{"name":"E2","midi":40,"time":111.3528855000009,"velocity":0.7244094488188977,"duration":0.34926453125001444},{"name":"C#4","midi":61,"time":111.3528855000009,"velocity":0.7244094488188977,"duration":0.1727940312500067},{"name":"B3","midi":59,"time":111.5293560000009,"velocity":0.7244094488188977,"duration":0.1727940312500067},{"name":"F#2","midi":42,"time":111.70582650000091,"velocity":0.7244094488188977,"duration":1.2499993750000584},{"name":"A#3","midi":58,"time":111.70582650000091,"velocity":0.7244094488188977,"duration":0.1727940312500067},{"name":"C#4","midi":61,"time":111.88229700000092,"velocity":0.7244094488188977,"duration":0.1727940312500067},{"name":"A#2","midi":46,"time":112.05876750000093,"velocity":0.7244094488188977,"duration":0.34926453125001444},{"name":"D4","midi":62,"time":112.05876750000093,"velocity":0.7244094488188977,"duration":0.1727940312500067},{"name":"E4","midi":64,"time":112.23523800000093,"velocity":0.7244094488188977,"duration":0.1727940312500067},{"name":"C#3","midi":49,"time":112.41170850000094,"velocity":0.7244094488188977,"duration":0.34926453125001444},{"name":"F#3","midi":54,"time":112.41170850000094,"velocity":0.7244094488188977,"duration":0.1727940312500067},{"name":"E4","midi":64,"time":112.58817900000095,"velocity":0.7244094488188977,"duration":0.1727940312500067},{"name":"F#3","midi":54,"time":112.76464950000096,"velocity":0.7244094488188977,"duration":0.34926453125001444},{"name":"D4","midi":62,"time":112.76464950000096,"velocity":0.7244094488188977,"duration":0.1727940312500067},{"name":"C#4","midi":61,"time":112.94112000000096,"velocity":0.7244094488188977,"duration":0.1727940312500067},{"name":"D3","midi":50,"time":113.11759050000097,"velocity":0.7244094488188977,"duration":0.34926453125001444},{"name":"B3","midi":59,"time":113.11759050000097,"velocity":0.7244094488188977,"duration":0.1727940312500067},{"name":"D4","midi":62,"time":113.29406100000098,"velocity":0.7244094488188977,"duration":0.1727940312500067},{"name":"B2","midi":47,"time":113.47053150000099,"velocity":0.7244094488188977,"duration":0.6985290625000289},{"name":"E4","midi":64,"time":113.47053150000099,"velocity":0.7244094488188977,"duration":0.1727940312500067},{"name":"F#4","midi":66,"time":113.647002000001,"velocity":0.7244094488188977,"duration":0.1727940312500067},{"name":"D3","midi":50,"time":113.823472500001,"velocity":0.7244094488188977,"duration":0.34926453125001444},{"name":"G#3","midi":56,"time":113.823472500001,"velocity":0.7244094488188977,"duration":0.1727940312500067},{"name":"F#4","midi":66,"time":113.99994300000101,"velocity":0.7244094488188977,"duration":0.1727940312500067},{"name":"B2","midi":47,"time":114.17641350000102,"velocity":0.7244094488188977,"duration":0.34926453125001444},{"name":"G3","midi":55,"time":114.17641350000102,"velocity":0.7244094488188977,"duration":0.34926453125001444},{"name":"E4","midi":64,"time":114.17641350000102,"velocity":0.7244094488188977,"duration":0.1727940312500067},{"name":"D4","midi":62,"time":114.35288400000103,"velocity":0.7244094488188977,"duration":0.1727940312500067},{"name":"B2","midi":47,"time":114.52935450000103,"velocity":0.7244094488188977,"duration":0.34926453125001444},{"name":"E3","midi":52,"time":114.52935450000103,"velocity":0.7244094488188977,"duration":0.34926453125001444},{"name":"C#4","midi":61,"time":114.52935450000103,"velocity":0.7244094488188977,"duration":0.1727940312500067},{"name":"E4","midi":64,"time":114.70582500000104,"velocity":0.7244094488188977,"duration":0.1727940312500067},{"name":"A#2","midi":46,"time":114.88229550000105,"velocity":0.7244094488188977,"duration":0.514705625000019},{"name":"C#3","midi":49,"time":114.88229550000105,"velocity":0.7244094488188977,"duration":0.34926453125001444},{"name":"F#4","midi":66,"time":114.88229550000105,"velocity":0.7244094488188977,"duration":0.1727940312500067},{"name":"G4","midi":67,"time":115.05876600000106,"velocity":0.7244094488188977,"duration":0.1727940312500067},{"name":"E3","midi":52,"time":115.23523650000106,"velocity":0.7244094488188977,"duration":0.34926453125001444},{"name":"A#3","midi":58,"time":115.23523650000106,"velocity":0.7244094488188977,"duration":0.1727940312500067},{"name":"G4","midi":67,"time":115.41170700000107,"velocity":0.7244094488188977,"duration":0.1727940312500067},{"name":"C#3","midi":49,"time":115.58817750000108,"velocity":0.7244094488188977,"duration":0.34926453125001444},{"name":"A#3","midi":58,"time":115.58817750000108,"velocity":0.7244094488188977,"duration":0.34926453125001444},{"name":"F#4","midi":66,"time":115.58817750000108,"velocity":0.7244094488188977,"duration":0.1727940312500067},{"name":"E4","midi":64,"time":115.76464800000109,"velocity":0.7244094488188977,"duration":0.1727940312500067},{"name":"C#3","midi":49,"time":115.9411185000011,"velocity":0.7244094488188977,"duration":0.34926453125001444},{"name":"F#3","midi":54,"time":115.9411185000011,"velocity":0.7244094488188977,"duration":0.34926453125001444},{"name":"D4","midi":62,"time":115.9411185000011,"velocity":0.7244094488188977,"duration":0.1727940312500067},{"name":"F#4","midi":66,"time":116.1175890000011,"velocity":0.7244094488188977,"duration":0.1727940312500067},{"name":"B2","midi":47,"time":116.29405950000111,"velocity":0.7244094488188977,"duration":0.514705625000019},{"name":"D3","midi":50,"time":116.29405950000111,"velocity":0.7244094488188977,"duration":0.34926453125001444},{"name":"G#4","midi":68,"time":116.29405950000111,"velocity":0.7244094488188977,"duration":0.1727940312500067},{"name":"A#4","midi":70,"time":116.47053000000112,"velocity":0.7244094488188977,"duration":0.1727940312500067},{"name":"F#3","midi":54,"time":116.64700050000113,"velocity":0.7244094488188977,"duration":0.34926453125001444},{"name":"B3","midi":59,"time":116.64700050000113,"velocity":0.7244094488188977,"duration":0.1727940312500067},{"name":"A4","midi":69,"time":116.82347100000113,"velocity":0.7244094488188977,"duration":0.1727940312500067},{"name":"D3","midi":50,"time":116.99994150000114,"velocity":0.7244094488188977,"duration":0.34926453125001444},{"name":"B3","midi":59,"time":116.99994150000114,"velocity":0.7244094488188977,"duration":1.5845580312500402},{"name":"G4","midi":67,"time":116.99994150000114,"velocity":0.7244094488188977,"duration":0.1727940312500067},{"name":"F#4","midi":66,"time":117.17641200000115,"velocity":0.7244094488188977,"duration":0.1727940312500067},{"name":"E3","midi":52,"time":117.35288250000116,"velocity":0.7244094488188977,"duration":0.08455878124999572},{"name":"E4","midi":64,"time":117.35288250000116,"velocity":0.7244094488188977,"duration":0.17279403124999249},{"name":"D3","midi":50,"time":117.44111775000115,"velocity":0.7244094488188977,"duration":0.08455878124999572},{"name":"E3","midi":52,"time":117.52935300000115,"velocity":0.7244094488188977,"duration":0.08455878124999572},{"name":"G#4","midi":68,"time":117.52935300000115,"velocity":0.7244094488188977,"duration":0.17279403124999249},{"name":"D3","midi":50,"time":117.61758825000115,"velocity":0.7244094488188977,"duration":0.08455878124999572},{"name":"C#3","midi":49,"time":117.70582350000115,"velocity":0.7244094488188977,"duration":0.1727940312500067},{"name":"A#4","midi":70,"time":117.70582350000115,"velocity":0.7244094488188977,"duration":0.1727940312500067},{"name":"D3","midi":50,"time":117.88229400000115,"velocity":0.7244094488188977,"duration":0.1727940312500067},{"name":"B4","midi":71,"time":117.88229400000115,"velocity":0.7244094488188977,"duration":0.1727940312500067},{"name":"E3","midi":52,"time":118.05876450000116,"velocity":0.7244094488188977,"duration":0.34926453125001444},{"name":"C#4","midi":61,"time":118.05876450000116,"velocity":0.7244094488188977,"duration":0.1727940312500067},{"name":"D4","midi":62,"time":118.23523500000117,"velocity":0.7244094488188977,"duration":0.1727940312500067},{"name":"G2","midi":43,"time":118.41170550000118,"velocity":0.7244094488188977,"duration":0.34926453125001444},{"name":"E4","midi":64,"time":118.41170550000118,"velocity":0.7244094488188977,"duration":0.8786760312500377},{"name":"B3","midi":59,"time":118.58817600000118,"velocity":0.7244094488188977,"duration":0.1727940312500067},{"name":"F#2","midi":42,"time":118.76464650000119,"velocity":0.7244094488188977,"duration":0.34926453125001444},{"name":"A#3","midi":58,"time":118.76464650000119,"velocity":0.7244094488188977,"duration":0.1727940312500067},{"name":"C#4","midi":61,"time":118.9411170000012,"velocity":0.7244094488188977,"duration":0.1727940312500067},{"name":"A#2","midi":46,"time":119.1175875000012,"velocity":0.7244094488188977,"duration":0.34926453125001444},{"name":"F#3","midi":54,"time":119.1175875000012,"velocity":0.7244094488188977,"duration":0.8786760312500377},{"name":"E4","midi":64,"time":119.29405800000121,"velocity":0.7244094488188977,"duration":0.1727940312500067},{"name":"B2","midi":47,"time":119.47052850000122,"velocity":0.7244094488188977,"duration":0.34926453125001444},{"name":"D4","midi":62,"time":119.47052850000122,"velocity":0.7244094488188977,"duration":0.1727940312500067},{"name":"C#4","midi":61,"time":119.64699900000123,"velocity":0.7244094488188977,"duration":0.1727940312500067},{"name":"D3","midi":50,"time":119.82346950000124,"velocity":0.7244094488188977,"duration":0.34926453125001444},{"name":"B3","midi":59,"time":119.82346950000124,"velocity":0.7244094488188977,"duration":0.5257350312500222},{"name":"F#3","midi":54,"time":119.99994000000125,"velocity":0.7244094488188977,"duration":0.1727940312500067},{"name":"E2","midi":40,"time":120.17641050000125,"velocity":0.7244094488188977,"duration":0.34926453125001444},{"name":"G3","midi":55,"time":120.17641050000125,"velocity":0.7244094488188977,"duration":0.34926453125001444},{"name":"B3","midi":59,"time":120.35288100000126,"velocity":0.7244094488188977,"duration":0.34926453125001444},{"name":"C#3","midi":49,"time":120.52935150000127,"velocity":0.7244094488188977,"duration":0.34926453125001444},{"name":"E3","midi":52,"time":120.52935150000127,"velocity":0.7244094488188977,"duration":0.34926453125001444},{"name":"B3","midi":59,"time":120.70582200000128,"velocity":0.7244094488188977,"duration":0.1727940312500067},{"name":"F#2","midi":42,"time":120.88229250000128,"velocity":0.7244094488188977,"duration":0.34926453125001444},{"name":"C#3","midi":49,"time":120.88229250000128,"velocity":0.7244094488188977,"duration":0.7022055312500299},{"name":"A#3","midi":58,"time":120.88229250000128,"velocity":0.7244094488188977,"duration":0.1727940312500067},{"name":"B3","midi":59,"time":121.05876300000129,"velocity":0.7244094488188977,"duration":0.1727940312500067},{"name":"A#2","midi":46,"time":121.2352335000013,"velocity":0.7244094488188977,"duration":0.34926453125001444},{"name":"C#4","midi":61,"time":121.2352335000013,"velocity":0.7244094488188977,"duration":0.1727940312500067},{"name":"F#3","midi":54,"time":121.41170400000131,"velocity":0.7244094488188977,"duration":0.1727940312500067},{"name":"B2","midi":47,"time":121.58817450000132,"velocity":0.7244094488188977,"duration":0.1727940312500067},{"name":"D4","midi":62,"time":121.58817450000132,"velocity":0.7244094488188977,"duration":0.1727940312500067},{"name":"C#3","midi":49,"time":121.76464500000132,"velocity":0.7244094488188977,"duration":0.1727940312500067},{"name":"C#4","midi":61,"time":121.76464500000132,"velocity":0.7244094488188977,"duration":0.1727940312500067},{"name":"D3","midi":50,"time":121.94111550000133,"velocity":0.7244094488188977,"duration":0.6249996875000221},{"name":"B3","midi":59,"time":121.94111550000133,"velocity":0.7244094488188977,"duration":0.1727940312500067},{"name":"A#3","midi":58,"time":122.11758600000134,"velocity":0.7244094488188977,"duration":0.1727940312500067},{"name":"B3","midi":59,"time":122.29405650000135,"velocity":0.7244094488188977,"duration":0.1727940312500067},{"name":"C#4","midi":61,"time":122.47052700000135,"velocity":0.7244094488188977,"duration":0.17279403124999249},{"name":"B2","midi":47,"time":122.64699750000135,"velocity":0.7244094488188977,"duration":0.34926453125001444},{"name":"D4","midi":62,"time":122.64699750000135,"velocity":0.7244094488188977,"duration":0.1727940312500067},{"name":"F#3","midi":54,"time":122.82346800000136,"velocity":0.7244094488188977,"duration":0.1727940312500067},{"name":"C#3","midi":49,"time":122.99993850000136,"velocity":0.7244094488188977,"duration":0.1727940312500067},{"name":"E4","midi":64,"time":122.99993850000136,"velocity":0.7244094488188977,"duration":0.1727940312500067},{"name":"D3","midi":50,"time":123.17640900000137,"velocity":0.7244094488188977,"duration":0.1727940312500067},{"name":"D4","midi":62,"time":123.17640900000137,"velocity":0.7244094488188977,"duration":0.1727940312500067},{"name":"E3","midi":52,"time":123.35287950000138,"velocity":0.7244094488188977,"duration":0.6249996875000221},{"name":"C#4","midi":61,"time":123.35287950000138,"velocity":0.7244094488188977,"duration":0.1727940312500067},{"name":"B3","midi":59,"time":123.52935000000139,"velocity":0.7244094488188977,"duration":0.1727940312500067},{"name":"C#4","midi":61,"time":123.7058205000014,"velocity":0.7244094488188977,"duration":0.1727940312500067},{"name":"D4","midi":62,"time":123.8822910000014,"velocity":0.7244094488188977,"duration":0.17279403124999249},{"name":"C#3","midi":49,"time":124.0587615000014,"velocity":0.7244094488188977,"duration":0.34926453125001444},{"name":"E4","midi":64,"time":124.0587615000014,"velocity":0.7244094488188977,"duration":0.1727940312500067},{"name":"F#3","midi":54,"time":124.2352320000014,"velocity":0.7244094488188977,"duration":0.1727940312500067},{"name":"D#3","midi":51,"time":124.41170250000141,"velocity":0.7244094488188977,"duration":0.1727940312500067},{"name":"F#4","midi":66,"time":124.41170250000141,"velocity":0.7244094488188977,"duration":0.1727940312500067},{"name":"E3","midi":52,"time":124.58817300000142,"velocity":0.7244094488188977,"duration":0.1727940312500067},{"name":"E4","midi":64,"time":124.58817300000142,"velocity":0.7244094488188977,"duration":0.1727940312500067},{"name":"F#3","midi":54,"time":124.76464350000143,"velocity":0.7244094488188977,"duration":0.6617643750000184},{"name":"D#4","midi":63,"time":124.76464350000143,"velocity":0.7244094488188977,"duration":0.1727940312500067},{"name":"C#4","midi":61,"time":124.94111400000143,"velocity":0.7244094488188977,"duration":0.1727940312500067},{"name":"D#4","midi":63,"time":125.11758450000144,"velocity":0.7244094488188977,"duration":0.1727940312500067},{"name":"E4","midi":64,"time":125.29405500000145,"velocity":0.7244094488188977,"duration":0.17279403124999249},{"name":"E3","midi":52,"time":125.47052550000144,"velocity":0.7244094488188977,"duration":0.1727940312500067},{"name":"F#4","midi":66,"time":125.47052550000144,"velocity":0.7244094488188977,"duration":0.1727940312500067},{"name":"D#3","midi":51,"time":125.64699600000145,"velocity":0.7244094488188977,"duration":0.1727940312500067},{"name":"B3","midi":59,"time":125.64699600000145,"velocity":0.7244094488188977,"duration":0.1727940312500067},{"name":"G3","midi":55,"time":125.82346650000146,"velocity":0.7244094488188977,"duration":0.1727940312500067},{"name":"E4","midi":64,"time":125.82346650000146,"velocity":0.7244094488188977,"duration":0.1727940312500067},{"name":"F#3","midi":54,"time":125.99993700000147,"velocity":0.7244094488188977,"duration":0.1727940312500067},{"name":"F#4","midi":66,"time":125.99993700000147,"velocity":0.7244094488188977,"duration":0.1727940312500067},{"name":"E3","midi":52,"time":126.17640750000147,"velocity":0.7244094488188977,"duration":0.1727940312500067},{"name":"G4","midi":67,"time":126.17640750000147,"velocity":0.7244094488188977,"duration":0.514705625000019},{"name":"D#3","midi":51,"time":126.35287800000148,"velocity":0.7244094488188977,"duration":0.1727940312500067},{"name":"E3","midi":52,"time":126.52934850000149,"velocity":0.7244094488188977,"duration":0.1727940312500067},{"name":"F#3","midi":54,"time":126.7058190000015,"velocity":0.7244094488188977,"duration":0.1727940312500067},{"name":"G3","midi":55,"time":126.8822895000015,"velocity":0.7244094488188977,"duration":0.1727940312500067},{"name":"E4","midi":64,"time":126.8822895000015,"velocity":0.7244094488188977,"duration":0.34926453125001444},{"name":"C#3","midi":49,"time":127.05876000000151,"velocity":0.7244094488188977,"duration":0.1727940312500067},{"name":"A3","midi":57,"time":127.23523050000152,"velocity":0.7244094488188977,"duration":0.1727940312500067},{"name":"F#4","midi":66,"time":127.23523050000152,"velocity":0.7244094488188977,"duration":0.1727940312500067},{"name":"G3","midi":55,"time":127.41170100000153,"velocity":0.7244094488188977,"duration":0.1727940312500067},{"name":"G4","midi":67,"time":127.41170100000153,"velocity":0.7244094488188977,"duration":0.1727940312500067},{"name":"F#3","midi":54,"time":127.58817150000154,"velocity":0.7244094488188977,"duration":0.1727940312500067},{"name":"A4","midi":69,"time":127.58817150000154,"velocity":0.7244094488188977,"duration":0.514705625000019},{"name":"E3","midi":52,"time":127.76464200000154,"velocity":0.7244094488188977,"duration":0.1727940312500067},{"name":"F#3","midi":54,"time":127.94111250000155,"velocity":0.7244094488188977,"duration":0.1727940312500067},{"name":"G3","midi":55,"time":128.11758300000156,"velocity":0.7244094488188977,"duration":0.17279403124999249},{"name":"A3","midi":57,"time":128.29405350000155,"velocity":0.7244094488188977,"duration":0.17279403124999249},{"name":"F#4","midi":66,"time":128.29405350000155,"velocity":0.7244094488188977,"duration":0.349264531249986},{"name":"D#3","midi":51,"time":128.47052400000155,"velocity":0.7244094488188977,"duration":0.17279403124999249},{"name":"B3","midi":59,"time":128.64699450000154,"velocity":0.7244094488188977,"duration":0.17279403124999249},{"name":"G#4","midi":68,"time":128.64699450000154,"velocity":0.7244094488188977,"duration":0.17279403124999249},{"name":"A3","midi":57,"time":128.82346500000153,"velocity":0.7244094488188977,"duration":0.17279403124999249},{"name":"A4","midi":69,"time":128.82346500000153,"velocity":0.7244094488188977,"duration":0.17279403124999249},{"name":"G#3","midi":56,"time":128.99993550000153,"velocity":0.7244094488188977,"duration":0.17279403124999249},{"name":"B4","midi":71,"time":128.99993550000153,"velocity":0.7244094488188977,"duration":0.7022055312499731},{"name":"F#3","midi":54,"time":129.17640600000152,"velocity":0.7244094488188977,"duration":0.17279403124999249},{"name":"G#3","midi":56,"time":129.3528765000015,"velocity":0.7244094488188977,"duration":0.17279403124999249},{"name":"A3","midi":57,"time":129.5293470000015,"velocity":0.7244094488188977,"duration":0.17279403124999249},{"name":"B3","midi":59,"time":129.7058175000015,"velocity":0.7244094488188977,"duration":0.17279403124999249},{"name":"A4","midi":69,"time":129.7058175000015,"velocity":0.7244094488188977,"duration":0.17279403124999249},{"name":"E3","midi":52,"time":129.8822880000015,"velocity":0.7244094488188977,"duration":0.17279403124999249},{"name":"G#4","midi":68,"time":129.8822880000015,"velocity":0.7244094488188977,"duration":0.17279403124999249},{"name":"A3","midi":57,"time":130.0587585000015,"velocity":0.7244094488188977,"duration":0.17279403124999249},{"name":"C5","midi":72,"time":130.0587585000015,"velocity":0.7244094488188977,"duration":0.17279403124999249},{"name":"B3","midi":59,"time":130.23522900000148,"velocity":0.7244094488188977,"duration":0.17279403124999249},{"name":"B4","midi":71,"time":130.23522900000148,"velocity":0.7244094488188977,"duration":0.17279403124999249},{"name":"C4","midi":60,"time":130.41169950000148,"velocity":0.7244094488188977,"duration":0.44117624999998384},{"name":"A4","midi":69,"time":130.41169950000148,"velocity":0.7244094488188977,"duration":0.17279403124999249},{"name":"G#4","midi":68,"time":130.58817000000147,"velocity":0.7244094488188977,"duration":0.17279403124999249},{"name":"A4","midi":69,"time":130.76464050000146,"velocity":0.7244094488188977,"duration":0.17279403124999249},{"name":"B3","midi":59,"time":130.94111100000146,"velocity":0.7244094488188977,"duration":0.17279403124999249},{"name":"B4","midi":71,"time":130.94111100000146,"velocity":0.7244094488188977,"duration":0.17279403124999249},{"name":"A3","midi":57,"time":131.11758150000145,"velocity":0.7244094488188977,"duration":0.17279403124999249},{"name":"C5","midi":72,"time":131.11758150000145,"velocity":0.7244094488188977,"duration":0.17279403124999249},{"name":"G3","midi":55,"time":131.29405200000144,"velocity":0.7244094488188977,"duration":0.17279403124999249},{"name":"E4","midi":64,"time":131.29405200000144,"velocity":0.7244094488188977,"duration":0.17279403124999249},{"name":"F#3","midi":54,"time":131.47052250000144,"velocity":0.7244094488188977,"duration":0.17279403124999249},{"name":"E4","midi":64,"time":131.47052250000144,"velocity":0.7244094488188977,"duration":0.349264531249986},{"name":"A4","midi":69,"time":131.47052250000144,"velocity":0.7244094488188977,"duration":0.17279403124999249},{"name":"A3","midi":57,"time":131.64699300000143,"velocity":0.7244094488188977,"duration":0.17279403124999249},{"name":"G4","midi":67,"time":131.64699300000143,"velocity":0.7244094488188977,"duration":0.17279403124999249},{"name":"B3","midi":59,"time":131.82346350000142,"velocity":0.7244094488188977,"duration":0.17279403124999249},{"name":"D#4","midi":63,"time":131.82346350000142,"velocity":0.7244094488188977,"duration":0.5147056249999764},{"name":"F#4","midi":66,"time":131.82346350000142,"velocity":0.7244094488188977,"duration":0.17279403124999249},{"name":"C4","midi":60,"time":131.99993400000142,"velocity":0.7244094488188977,"duration":0.17279403124999249},{"name":"E4","midi":64,"time":131.99993400000142,"velocity":0.7244094488188977,"duration":0.17279403124999249},{"name":"D#3","midi":51,"time":132.1764045000014,"velocity":0.7244094488188977,"duration":0.17279403124999249},{"name":"F#4","midi":66,"time":132.1764045000014,"velocity":0.7244094488188977,"duration":0.17279403124999249},{"name":"C4","midi":60,"time":132.3528750000014,"velocity":0.7244094488188977,"duration":0.17279403124999249},{"name":"G4","midi":67,"time":132.3528750000014,"velocity":0.7244094488188977,"duration":0.17279403124999249},{"name":"B3","midi":59,"time":132.5293455000014,"velocity":0.7244094488188977,"duration":0.17279403124999249},{"name":"F#4","midi":66,"time":132.5293455000014,"velocity":0.7244094488188977,"duration":0.349264531249986},{"name":"A4","midi":69,"time":132.5293455000014,"velocity":0.7244094488188977,"duration":0.349264531249986},{"name":"A3","midi":57,"time":132.7058160000014,"velocity":0.7244094488188977,"duration":0.17279403124999249},{"name":"G3","midi":55,"time":132.88228650000138,"velocity":0.7244094488188977,"duration":0.17279403124999249},{"name":"F#4","midi":66,"time":132.88228650000138,"velocity":0.7244094488188977,"duration":0.349264531249986},{"name":"A4","midi":69,"time":132.88228650000138,"velocity":0.7244094488188977,"duration":0.349264531249986},{"name":"B3","midi":59,"time":133.05875700000138,"velocity":0.7244094488188977,"duration":0.17279403124999249},{"name":"C#4","midi":61,"time":133.23522750000137,"velocity":0.7244094488188977,"duration":0.17279403124999249},{"name":"E4","midi":64,"time":133.23522750000137,"velocity":0.7244094488188977,"duration":0.5147056249999764},{"name":"G4","midi":67,"time":133.23522750000137,"velocity":0.7244094488188977,"duration":0.5147056249999764},{"name":"D#4","midi":63,"time":133.41169800000137,"velocity":0.7244094488188977,"duration":0.17279403124999249},{"name":"E3","midi":52,"time":133.58816850000136,"velocity":0.7244094488188977,"duration":0.17279403124999249},{"name":"D4","midi":62,"time":133.76463900000135,"velocity":0.7244094488188977,"duration":0.17279403124999249},{"name":"C4","midi":60,"time":133.94110950000135,"velocity":0.7244094488188977,"duration":0.17279403124999249},{"name":"G4","midi":67,"time":133.94110950000135,"velocity":0.7244094488188977,"duration":0.349264531249986},{"name":"B4","midi":71,"time":133.94110950000135,"velocity":0.7244094488188977,"duration":0.349264531249986},{"name":"B3","midi":59,"time":134.11758000000134,"velocity":0.7244094488188977,"duration":0.17279403124999249},{"name":"A3","midi":57,"time":134.29405050000133,"velocity":0.7244094488188977,"duration":0.17279403124999249},{"name":"G4","midi":67,"time":134.29405050000133,"velocity":0.7244094488188977,"duration":0.349264531249986},{"name":"B4","midi":71,"time":134.29405050000133,"velocity":0.7244094488188977,"duration":0.349264531249986},{"name":"C#4","midi":61,"time":134.47052100000133,"velocity":0.7244094488188977,"duration":0.17279403124999249},{"name":"D#4","midi":63,"time":134.64699150000132,"velocity":0.7244094488188977,"duration":0.17279403124999249},{"name":"F#4","midi":66,"time":134.64699150000132,"velocity":0.7244094488188977,"duration":0.17279403124999249},{"name":"A4","midi":69,"time":134.64699150000132,"velocity":0.7244094488188977,"duration":0.349264531249986},{"name":"E4","midi":64,"time":134.8234620000013,"velocity":0.7244094488188977,"duration":0.17279403124999249},{"name":"G4","midi":67,"time":134.8234620000013,"velocity":0.7244094488188977,"duration":0.17279403124999249},{"name":"F#3","midi":54,"time":134.9999325000013,"velocity":0.7244094488188977,"duration":0.17279403124999249},{"name":"A4","midi":69,"time":134.9999325000013,"velocity":0.7244094488188977,"duration":0.349264531249986},{"name":"G3","midi":55,"time":135.1764030000013,"velocity":0.7244094488188977,"duration":0.17279403124999249},{"name":"G4","midi":67,"time":135.1764030000013,"velocity":0.7244094488188977,"duration":0.17279403124999249},{"name":"A3","midi":57,"time":135.3528735000013,"velocity":0.7244094488188977,"duration":0.5257350312499796},{"name":"C4","midi":60,"time":135.3528735000013,"velocity":0.7244094488188977,"duration":0.349264531249986},{"name":"F#4","midi":66,"time":135.3528735000013,"velocity":0.7244094488188977,"duration":0.17279403124999249},{"name":"E4","midi":64,"time":135.5293440000013,"velocity":0.7244094488188977,"duration":0.17279403124999249},{"name":"B3","midi":59,"time":135.70581450000128,"velocity":0.7244094488188977,"duration":0.349264531249986},{"name":"D#4","midi":63,"time":135.70581450000128,"velocity":0.7244094488188977,"duration":0.349264531249986},{"name":"A3","midi":57,"time":135.88228500000127,"velocity":0.7244094488188977,"duration":0.17279403124999249},{"name":"G3","midi":55,"time":136.05875550000127,"velocity":0.7244094488188977,"duration":0.17279403124999249},{"name":"D#4","midi":63,"time":136.05875550000127,"velocity":0.7244094488188977,"duration":0.349264531249986},{"name":"B4","midi":71,"time":136.05875550000127,"velocity":0.7244094488188977,"duration":0.5257350312499796},{"name":"F#3","midi":54,"time":136.23522600000126,"velocity":0.7244094488188977,"duration":0.17279403124999249},{"name":"G3","midi":55,"time":136.41169650000126,"velocity":0.7244094488188977,"duration":0.17279403124999249},{"name":"E4","midi":64,"time":136.41169650000126,"velocity":0.7244094488188977,"duration":0.349264531249986},{"name":"F#3","midi":54,"time":136.58816700000125,"velocity":0.7244094488188977,"duration":0.17279403124999249},{"name":"D5","midi":74,"time":136.58816700000125,"velocity":0.7244094488188977,"duration":0.17279403124999249},{"name":"E3","midi":52,"time":136.76463750000124,"velocity":0.7244094488188977,"duration":0.5257350312499796},{"name":"G4","midi":67,"time":136.76463750000124,"velocity":0.7244094488188977,"duration":0.349264531249986},{"name":"C5","midi":72,"time":136.76463750000124,"velocity":0.7244094488188977,"duration":0.17279403124999249},{"name":"B4","midi":71,"time":136.94110800000124,"velocity":0.7244094488188977,"duration":0.17279403124999249},{"name":"A3","midi":57,"time":137.11757850000123,"velocity":0.7244094488188977,"duration":0.349264531249986},{"name":"C5","midi":72,"time":137.11757850000123,"velocity":0.7244094488188977,"duration":0.17279403124999249},{"name":"E3","midi":52,"time":137.29404900000122,"velocity":0.7244094488188977,"duration":0.17279403124999249},{"name":"A4","midi":69,"time":137.29404900000122,"velocity":0.7244094488188977,"duration":0.349264531249986},{"name":"D#3","midi":51,"time":137.47051950000122,"velocity":0.7244094488188977,"duration":0.17279403124999249},{"name":"F#4","midi":66,"time":137.47051950000122,"velocity":0.7244094488188977,"duration":0.349264531249986},{"name":"C#3","midi":49,"time":137.6469900000012,"velocity":0.7244094488188977,"duration":0.17279403124999249},{"name":"A4","midi":69,"time":137.6469900000012,"velocity":0.7244094488188977,"duration":0.349264531249986},{"name":"D#3","midi":51,"time":137.8234605000012,"velocity":0.7244094488188977,"duration":0.17279403124999249},{"name":"B3","midi":59,"time":137.8234605000012,"velocity":0.7244094488188977,"duration":0.349264531249986},{"name":"E3","midi":52,"time":137.9999310000012,"velocity":0.7244094488188977,"duration":0.17279403124999249},{"name":"A4","midi":69,"time":137.9999310000012,"velocity":0.7244094488188977,"duration":0.349264531249986},{"name":"F#3","midi":54,"time":138.1764015000012,"velocity":0.7244094488188977,"duration":0.17279403124999249},{"name":"D#4","midi":63,"time":138.1764015000012,"velocity":0.7244094488188977,"duration":0.349264531249986},{"name":"B2","midi":47,"time":138.35287200000118,"velocity":0.7244094488188977,"duration":0.17279403124999249},{"name":"A4","midi":69,"time":138.35287200000118,"velocity":0.7244094488188977,"duration":0.349264531249986},{"name":"E3","midi":52,"time":138.52934250000118,"velocity":0.7244094488188977,"duration":0.349264531249986},{"name":"E4","midi":64,"time":138.52934250000118,"velocity":0.7244094488188977,"duration":0.349264531249986},{"name":"A4","midi":69,"time":138.70581300000117,"velocity":0.7244094488188977,"duration":0.349264531249986},{"name":"E2","midi":40,"time":138.88228350000117,"velocity":0.7244094488188977,"duration":0.5147056249999764},{"name":"B3","midi":59,"time":138.88228350000117,"velocity":0.7244094488188977,"duration":0.349264531249986},{"name":"G4","midi":67,"time":139.05875400000116,"velocity":0.7244094488188977,"duration":0.349264531249986},{"name":"E4","midi":64,"time":139.23522450000115,"velocity":0.7244094488188977,"duration":0.349264531249986},{"name":"G4","midi":67,"time":139.41169500000115,"velocity":0.7244094488188977,"duration":0.349264531249986},{"name":"E3","midi":52,"time":139.58816550000114,"velocity":0.7244094488188977,"duration":0.349264531249986},{"name":"D4","midi":62,"time":139.58816550000114,"velocity":0.7244094488188977,"duration":0.349264531249986},{"name":"G4","midi":67,"time":139.76463600000113,"velocity":0.7244094488188977,"duration":0.349264531249986},{"name":"A3","midi":57,"time":139.94110650000113,"velocity":0.7244094488188977,"duration":0.349264531249986},{"name":"C#4","midi":61,"time":139.94110650000113,"velocity":0.7244094488188977,"duration":0.349264531249986},{"name":"G4","midi":67,"time":140.11757700000112,"velocity":0.7244094488188977,"duration":0.349264531249986},{"name":"C#3","midi":49,"time":140.2940475000011,"velocity":0.7244094488188977,"duration":0.5147056249999764},{"name":"E4","midi":64,"time":140.2940475000011,"velocity":0.7244094488188977,"duration":0.349264531249986},{"name":"G4","midi":67,"time":140.4705180000011,"velocity":0.7244094488188977,"duration":0.349264531249986},{"name":"A3","midi":57,"time":140.6469885000011,"velocity":0.7244094488188977,"duration":0.349264531249986},{"name":"G4","midi":67,"time":140.8234590000011,"velocity":0.7244094488188977,"duration":0.349264531249986},{"name":"A2","midi":45,"time":140.9999295000011,"velocity":0.7244094488188977,"duration":0.349264531249986},{"name":"C#4","midi":61,"time":140.9999295000011,"velocity":0.7244094488188977,"duration":0.349264531249986},{"name":"G4","midi":67,"time":141.17640000000108,"velocity":0.7244094488188977,"duration":0.349264531249986},{"name":"D3","midi":50,"time":141.35287050000107,"velocity":0.7244094488188977,"duration":0.349264531249986},{"name":"D4","midi":62,"time":141.35287050000107,"velocity":0.7244094488188977,"duration":0.349264531249986},{"name":"G4","midi":67,"time":141.52934100000107,"velocity":0.7244094488188977,"duration":0.349264531249986},{"name":"D2","midi":38,"time":141.70581150000106,"velocity":0.7244094488188977,"duration":0.5147056249999764},{"name":"A3","midi":57,"time":141.70581150000106,"velocity":0.7244094488188977,"duration":0.349264531249986},{"name":"G4","midi":67,"time":141.88228200000106,"velocity":0.7244094488188977,"duration":0.349264531249986},{"name":"D4","midi":62,"time":142.05875250000105,"velocity":0.7244094488188977,"duration":0.349264531249986},{"name":"F#4","midi":66,"time":142.23522300000104,"velocity":0.7244094488188977,"duration":0.31249984375000395},{"name":"D3","midi":50,"time":142.41169350000104,"velocity":0.7244094488188977,"duration":0.34926453125001444},{"name":"C4","midi":60,"time":142.41169350000104,"velocity":0.7244094488188977,"duration":0.34926453125001444},{"name":"F4","midi":65,"time":142.58816400000106,"velocity":0.7244094488188977,"duration":0.349264531249986},{"name":"G3","midi":55,"time":142.76463450000105,"velocity":0.7244094488188977,"duration":0.349264531249986},{"name":"B3","midi":59,"time":142.76463450000105,"velocity":0.7244094488188977,"duration":0.349264531249986},{"name":"F4","midi":65,"time":142.94110500000104,"velocity":0.7244094488188977,"duration":0.349264531249986},{"name":"B2","midi":47,"time":143.11757550000104,"velocity":0.7244094488188977,"duration":0.588234999999969},{"name":"D4","midi":62,"time":143.11757550000104,"velocity":0.7244094488188977,"duration":0.349264531249986},{"name":"F4","midi":65,"time":143.29404600000103,"velocity":0.7244094488188977,"duration":0.349264531249986},{"name":"G3","midi":55,"time":143.47051650000103,"velocity":0.7244094488188977,"duration":0.349264531249986},{"name":"F4","midi":65,"time":143.64698700000102,"velocity":0.7244094488188977,"duration":0.349264531249986},{"name":"G2","midi":43,"time":143.823457500001,"velocity":0.7244094488188977,"duration":0.349264531249986},{"name":"B3","midi":59,"time":143.823457500001,"velocity":0.7244094488188977,"duration":0.349264531249986},{"name":"F4","midi":65,"time":143.999928000001,"velocity":0.7244094488188977,"duration":0.17279403124999249},{"name":"C3","midi":48,"time":144.176398500001,"velocity":0.7244094488188977,"duration":0.17279403124999249},{"name":"C4","midi":60,"time":144.176398500001,"velocity":0.7244094488188977,"duration":0.5147056249999764},{"name":"E4","midi":64,"time":144.176398500001,"velocity":0.7244094488188977,"duration":0.349264531249986},{"name":"D3","midi":50,"time":144.352869000001,"velocity":0.7244094488188977,"duration":0.17279403124999249},{"name":"E3","midi":52,"time":144.529339500001,"velocity":0.7244094488188977,"duration":0.17279403124999249},{"name":"A4","midi":69,"time":144.529339500001,"velocity":0.7244094488188977,"duration":0.349264531249986},{"name":"D3","midi":50,"time":144.70581000000098,"velocity":0.7244094488188977,"duration":0.17279403124999249},{"name":"C#3","midi":49,"time":144.88228050000097,"velocity":0.7244094488188977,"duration":0.17279403124999249},{"name":"A4","midi":69,"time":144.88228050000097,"velocity":0.7244094488188977,"duration":0.349264531249986},{"name":"E3","midi":52,"time":145.05875100000097,"velocity":0.7244094488188977,"duration":0.17279403124999249},{"name":"A2","midi":45,"time":145.23522150000096,"velocity":0.7244094488188977,"duration":0.17279403124999249},{"name":"E4","midi":64,"time":145.23522150000096,"velocity":0.7244094488188977,"duration":0.349264531249986},{"name":"G4","midi":67,"time":145.23522150000096,"velocity":0.7244094488188977,"duration":0.349264531249986},{"name":"C#3","midi":49,"time":145.41169200000095,"velocity":0.7244094488188977,"duration":0.17279403124999249},{"name":"D3","midi":50,"time":145.58816250000095,"velocity":0.7244094488188977,"duration":0.17279403124999249},{"name":"E4","midi":64,"time":145.58816250000095,"velocity":0.7244094488188977,"duration":0.349264531249986},{"name":"F#4","midi":66,"time":145.58816250000095,"velocity":0.7244094488188977,"duration":0.349264531249986},{"name":"E3","midi":52,"time":145.76463300000094,"velocity":0.7244094488188977,"duration":0.17279403124999249},{"name":"F#3","midi":54,"time":145.94110350000093,"velocity":0.7244094488188977,"duration":0.17279403124999249},{"name":"D4","midi":62,"time":145.94110350000093,"velocity":0.7244094488188977,"duration":0.349264531249986},{"name":"B4","midi":71,"time":145.94110350000093,"velocity":0.7244094488188977,"duration":0.349264531249986},{"name":"E3","midi":52,"time":146.11757400000093,"velocity":0.7244094488188977,"duration":0.17279403124999249},{"name":"D#3","midi":51,"time":146.29404450000092,"velocity":0.7244094488188977,"duration":0.17279403124999249},{"name":"B4","midi":71,"time":146.29404450000092,"velocity":0.7244094488188977,"duration":0.349264531249986},{"name":"F#3","midi":54,"time":146.47051500000092,"velocity":0.7244094488188977,"duration":0.17279403124999249},{"name":"B2","midi":47,"time":146.6469855000009,"velocity":0.7244094488188977,"duration":0.17279403124999249},{"name":"F#4","midi":66,"time":146.6469855000009,"velocity":0.7244094488188977,"duration":0.349264531249986},{"name":"A4","midi":69,"time":146.6469855000009,"velocity":0.7244094488188977,"duration":0.349264531249986},{"name":"D#3","midi":51,"time":146.8234560000009,"velocity":0.7244094488188977,"duration":0.17279403124999249},{"name":"E3","midi":52,"time":146.9999265000009,"velocity":0.7244094488188977,"duration":0.17279403124999249},{"name":"F#4","midi":66,"time":146.9999265000009,"velocity":0.7244094488188977,"duration":0.349264531249986},{"name":"G4","midi":67,"time":146.9999265000009,"velocity":0.7244094488188977,"duration":0.349264531249986},{"name":"F#3","midi":54,"time":147.1763970000009,"velocity":0.7244094488188977,"duration":0.17279403124999249},{"name":"G3","midi":55,"time":147.35286750000088,"velocity":0.7244094488188977,"duration":0.17279403124999249},{"name":"E4","midi":64,"time":147.35286750000088,"velocity":0.7244094488188977,"duration":0.5147056249999764},{"name":"C5","midi":72,"time":147.35286750000088,"velocity":0.7244094488188977,"duration":0.349264531249986},{"name":"F#3","midi":54,"time":147.52933800000088,"velocity":0.7244094488188977,"duration":0.17279403124999249},{"name":"E3","midi":52,"time":147.70580850000087,"velocity":0.7244094488188977,"duration":0.17279403124999249},{"name":"C5","midi":72,"time":147.70580850000087,"velocity":0.7244094488188977,"duration":0.349264531249986},{"name":"G3","midi":55,"time":147.88227900000086,"velocity":0.7244094488188977,"duration":0.17279403124999249},{"name":"C3","midi":48,"time":148.05874950000086,"velocity":0.7244094488188977,"duration":0.17279403124999249},{"name":"G4","midi":67,"time":148.05874950000086,"velocity":0.7244094488188977,"duration":0.349264531249986},{"name":"B4","midi":71,"time":148.05874950000086,"velocity":0.7244094488188977,"duration":0.349264531249986},{"name":"E3","midi":52,"time":148.23522000000085,"velocity":0.7244094488188977,"duration":0.17279403124999249},{"name":"F#3","midi":54,"time":148.41169050000084,"velocity":0.7244094488188977,"duration":0.17279403124999249},{"name":"G4","midi":67,"time":148.41169050000084,"velocity":0.7244094488188977,"duration":0.349264531249986},{"name":"A4","midi":69,"time":148.41169050000084,"velocity":0.7244094488188977,"duration":0.349264531249986},{"name":"G3","midi":55,"time":148.58816100000084,"velocity":0.7244094488188977,"duration":0.17279403124999249},{"name":"A3","midi":57,"time":148.76463150000083,"velocity":0.7244094488188977,"duration":0.17279403124999249},{"name":"F#4","midi":66,"time":148.76463150000083,"velocity":0.7244094488188977,"duration":0.5147056249999764},{"name":"D5","midi":74,"time":148.76463150000083,"velocity":0.7244094488188977,"duration":0.349264531249986},{"name":"G3","midi":55,"time":148.94110200000083,"velocity":0.7244094488188977,"duration":0.17279403124999249},{"name":"F#3","midi":54,"time":149.11757250000082,"velocity":0.7244094488188977,"duration":0.17279403124999249},{"name":"D5","midi":74,"time":149.11757250000082,"velocity":0.7244094488188977,"duration":0.349264531249986},{"name":"A3","midi":57,"time":149.2940430000008,"velocity":0.7244094488188977,"duration":0.17279403124999249},{"name":"D3","midi":50,"time":149.4705135000008,"velocity":0.7244094488188977,"duration":0.17279403124999249},{"name":"A4","midi":69,"time":149.4705135000008,"velocity":0.7244094488188977,"duration":0.5257350312499796},{"name":"C5","midi":72,"time":149.4705135000008,"velocity":0.7244094488188977,"duration":0.349264531249986},{"name":"F#3","midi":54,"time":149.6469840000008,"velocity":0.7244094488188977,"duration":0.17279403124999249},{"name":"G3","midi":55,"time":149.8234545000008,"velocity":0.7244094488188977,"duration":0.349264531249986},{"name":"B4","midi":71,"time":149.8234545000008,"velocity":0.7244094488188977,"duration":0.698529062499972},{"name":"F#4","midi":66,"time":149.9999250000008,"velocity":0.7244094488188977,"duration":0.17279403124999249},{"name":"G2","midi":43,"time":150.17639550000078,"velocity":0.7244094488188977,"duration":0.5147056249999764},{"name":"G4","midi":67,"time":150.17639550000078,"velocity":0.7244094488188977,"duration":0.17279403124999249},{"name":"D4","midi":62,"time":150.35286600000077,"velocity":0.7244094488188977,"duration":0.17279403124999249},{"name":"E4","midi":64,"time":150.52933650000077,"velocity":0.7244094488188977,"duration":0.698529062499972},{"name":"G4","midi":67,"time":150.70580700000076,"velocity":0.7244094488188977,"duration":0.17279403124999249},{"name":"G3","midi":55,"time":150.88227750000075,"velocity":0.7244094488188977,"duration":0.349264531249986},{"name":"B4","midi":71,"time":150.88227750000075,"velocity":0.7244094488188977,"duration":0.17279403124999249},{"name":"D5","midi":74,"time":151.05874800000075,"velocity":0.7244094488188977,"duration":0.17279403124999249},{"name":"A3","midi":57,"time":151.23521850000074,"velocity":0.7244094488188977,"duration":0.08455878124999572},{"name":"C5","midi":72,"time":151.23521850000074,"velocity":0.7244094488188977,"duration":0.698529062499972},{"name":"G3","midi":55,"time":151.32345375000074,"velocity":0.7244094488188977,"duration":0.08455878124999572},{"name":"A3","midi":57,"time":151.41168900000073,"velocity":0.7244094488188977,"duration":0.08455878124999572},{"name":"G4","midi":67,"time":151.41168900000073,"velocity":0.7244094488188977,"duration":0.17279403124999249},{"name":"G3","midi":55,"time":151.49992425000073,"velocity":0.7244094488188977,"duration":0.08455878124999572},{"name":"F#3","midi":54,"time":151.58815950000073,"velocity":0.7244094488188977,"duration":0.5147056249999764},{"name":"A4","midi":69,"time":151.58815950000073,"velocity":0.7244094488188977,"duration":0.17279403124999249},{"name":"E4","midi":64,"time":151.76463000000072,"velocity":0.7244094488188977,"duration":0.17279403124999249},{"name":"F#4","midi":66,"time":151.94110050000072,"velocity":0.7244094488188977,"duration":0.698529062499972},{"name":"A4","midi":69,"time":152.1175710000007,"velocity":0.7244094488188977,"duration":0.17279403124999249},{"name":"A3","midi":57,"time":152.2940415000007,"velocity":0.7244094488188977,"duration":0.349264531249986},{"name":"C5","midi":72,"time":152.2940415000007,"velocity":0.7244094488188977,"duration":0.17279403124999249},{"name":"E5","midi":76,"time":152.4705120000007,"velocity":0.7244094488188977,"duration":0.17279403124999249},{"name":"B3","midi":59,"time":152.6469825000007,"velocity":0.7244094488188977,"duration":0.08455878124999572},{"name":"D5","midi":74,"time":152.6469825000007,"velocity":0.7244094488188977,"duration":0.698529062499972},{"name":"A3","midi":57,"time":152.7352177500007,"velocity":0.7244094488188977,"duration":0.08455878124999572},{"name":"B3","midi":59,"time":152.82345300000068,"velocity":0.7244094488188977,"duration":0.08455878124999572},{"name":"A4","midi":69,"time":152.82345300000068,"velocity":0.7244094488188977,"duration":0.17279403124999249},{"name":"A3","midi":57,"time":152.91168825000068,"velocity":0.7244094488188977,"duration":0.08455878124999572},{"name":"G3","midi":55,"time":152.99992350000068,"velocity":0.7244094488188977,"duration":0.5514703124999869},{"name":"B4","midi":71,"time":152.99992350000068,"velocity":0.7244094488188977,"duration":0.17279403124999249},{"name":"F#4","midi":66,"time":153.17639400000067,"velocity":0.7244094488188977,"duration":0.17279403124999249},{"name":"G4","midi":67,"time":153.35286450000066,"velocity":0.7244094488188977,"duration":0.698529062499972},{"name":"B4","midi":71,"time":153.52933500000066,"velocity":0.7244094488188977,"duration":0.17279403124999249},{"name":"B3","midi":59,"time":153.70580550000065,"velocity":0.7244094488188977,"duration":0.349264531249986},{"name":"D5","midi":74,"time":153.70580550000065,"velocity":0.7244094488188977,"duration":0.17279403124999249},{"name":"F5","midi":77,"time":153.88227600000064,"velocity":0.7244094488188977,"duration":0.17279403124999249},{"name":"C4","midi":60,"time":154.05874650000064,"velocity":0.7244094488188977,"duration":0.08455878124999572},{"name":"E5","midi":76,"time":154.05874650000064,"velocity":0.7244094488188977,"duration":0.698529062499972},{"name":"B3","midi":59,"time":154.14698175000063,"velocity":0.7244094488188977,"duration":0.08455878124999572},{"name":"C4","midi":60,"time":154.23521700000063,"velocity":0.7244094488188977,"duration":0.08455878124999572},{"name":"B4","midi":71,"time":154.23521700000063,"velocity":0.7244094488188977,"duration":0.17279403124999249},{"name":"B3","midi":59,"time":154.32345225000063,"velocity":0.7244094488188977,"duration":0.08455878124999572},{"name":"A3","midi":57,"time":154.41168750000062,"velocity":0.7244094488188977,"duration":0.17279403124999249},{"name":"C5","midi":72,"time":154.41168750000062,"velocity":0.7244094488188977,"duration":0.17279403124999249},{"name":"B3","midi":59,"time":154.58815800000062,"velocity":0.7244094488188977,"duration":0.17279403124999249},{"name":"G4","midi":67,"time":154.58815800000062,"velocity":0.7244094488188977,"duration":0.17279403124999249},{"name":"C4","midi":60,"time":154.7646285000006,"velocity":0.7244094488188977,"duration":0.349264531249986},{"name":"A4","midi":69,"time":154.7646285000006,"velocity":0.7244094488188977,"duration":0.698529062499972},{"name":"C5","midi":72,"time":154.9410990000006,"velocity":0.7244094488188977,"duration":0.17279403124999249},{"name":"E3","midi":52,"time":155.1175695000006,"velocity":0.7244094488188977,"duration":0.349264531249986},{"name":"E5","midi":76,"time":155.1175695000006,"velocity":0.7244094488188977,"duration":0.17279403124999249},{"name":"G5","midi":79,"time":155.2940400000006,"velocity":0.7244094488188977,"duration":0.17279403124999249},{"name":"D3","midi":50,"time":155.4705105000006,"velocity":0.7244094488188977,"duration":0.349264531249986},{"name":"F#5","midi":78,"time":155.4705105000006,"velocity":0.7244094488188977,"duration":0.17279403124999249},{"name":"E5","midi":76,"time":155.64698100000058,"velocity":0.7244094488188977,"duration":0.17279403124999249},{"name":"F#3","midi":54,"time":155.82345150000057,"velocity":0.7244094488188977,"duration":0.349264531249986},{"name":"D5","midi":74,"time":155.82345150000057,"velocity":0.7244094488188977,"duration":0.5257350312499796},{"name":"C5","midi":72,"time":155.99992200000057,"velocity":0.7244094488188977,"duration":0.17279403124999249},{"name":"G3","midi":55,"time":156.17639250000056,"velocity":0.7244094488188977,"duration":0.349264531249986},{"name":"B4","midi":71,"time":156.17639250000056,"velocity":0.7244094488188977,"duration":0.698529062499972},{"name":"D5","midi":74,"time":156.35286300000055,"velocity":0.7244094488188977,"duration":0.17279403124999249},{"name":"B3","midi":59,"time":156.52933350000055,"velocity":0.7244094488188977,"duration":0.349264531249986},{"name":"G5","midi":79,"time":156.52933350000055,"velocity":0.7244094488188977,"duration":0.17279403124999249},{"name":"D5","midi":74,"time":156.70580400000054,"velocity":0.7244094488188977,"duration":0.17279403124999249},{"name":"C3","midi":48,"time":156.88227450000053,"velocity":0.7244094488188977,"duration":0.349264531249986},{"name":"E5","midi":76,"time":156.88227450000053,"velocity":0.7244094488188977,"duration":0.698529062499972},{"name":"B4","midi":71,"time":157.05874500000053,"velocity":0.7244094488188977,"duration":0.17279403124999249},{"name":"A3","midi":57,"time":157.23521550000052,"velocity":0.7244094488188977,"duration":0.349264531249986},{"name":"C5","midi":72,"time":157.23521550000052,"velocity":0.7244094488188977,"duration":0.17279403124999249},{"name":"E4","midi":64,"time":157.41168600000051,"velocity":0.7244094488188977,"duration":0.17279403124999249},{"name":"D3","midi":50,"time":157.5881565000005,"velocity":0.7244094488188977,"duration":0.349264531249986},{"name":"F#4","midi":66,"time":157.5881565000005,"velocity":0.7244094488188977,"duration":0.698529062499972},{"name":"A4","midi":69,"time":157.7646270000005,"velocity":0.7244094488188977,"duration":0.17279403124999249},{"name":"F#3","midi":54,"time":157.9410975000005,"velocity":0.7244094488188977,"duration":0.349264531249986},{"name":"D5","midi":74,"time":157.9410975000005,"velocity":0.7244094488188977,"duration":0.17279403124999249},{"name":"A4","midi":69,"time":158.1175680000005,"velocity":0.7244094488188977,"duration":0.17279403124999249},{"name":"G2","midi":43,"time":158.29403850000048,"velocity":0.7244094488188977,"duration":0.349264531249986},{"name":"B4","midi":71,"time":158.29403850000048,"velocity":0.7244094488188977,"duration":1.4080875312499472},{"name":"F#4","midi":66,"time":158.47050900000048,"velocity":0.7244094488188977,"duration":0.17279403124999249},{"name":"G3","midi":55,"time":158.64697950000047,"velocity":0.7244094488188977,"duration":0.349264531249986},{"name":"E4","midi":64,"time":158.64697950000047,"velocity":0.7244094488188977,"duration":0.17279403124999249},{"name":"D4","midi":62,"time":158.82345000000046,"velocity":0.7244094488188977,"duration":0.17279403124999249},{"name":"C#3","midi":49,"time":158.99992050000046,"velocity":0.7244094488188977,"duration":0.349264531249986},{"name":"E4","midi":64,"time":158.99992050000046,"velocity":0.7244094488188977,"duration":0.17279403124999249},{"name":"F#4","midi":66,"time":159.17639100000045,"velocity":0.7244094488188977,"duration":0.17279403124999249},{"name":"E3","midi":52,"time":159.35286150000044,"velocity":0.7244094488188977,"duration":0.349264531249986},{"name":"G4","midi":67,"time":159.35286150000044,"velocity":0.7244094488188977,"duration":0.17279403124999249},{"name":"C#4","midi":61,"time":159.52933200000044,"velocity":0.7244094488188977,"duration":0.349264531249986},{"name":"F#2","midi":42,"time":159.70580250000043,"velocity":0.7244094488188977,"duration":0.349264531249986},{"name":"A4","midi":69,"time":159.70580250000043,"velocity":0.7244094488188977,"duration":1.4080875312499472},{"name":"E4","midi":64,"time":159.88227300000042,"velocity":0.7244094488188977,"duration":0.17279403124999249},{"name":"F#3","midi":54,"time":160.05874350000042,"velocity":0.7244094488188977,"duration":0.349264531249986},{"name":"D4","midi":62,"time":160.05874350000042,"velocity":0.7244094488188977,"duration":0.17279403124999249},{"name":"C#4","midi":61,"time":160.2352140000004,"velocity":0.7244094488188977,"duration":0.17279403124999249},{"name":"B2","midi":47,"time":160.4116845000004,"velocity":0.7244094488188977,"duration":0.349264531249986},{"name":"D4","midi":62,"time":160.4116845000004,"velocity":0.7244094488188977,"duration":0.17279403124999249},{"name":"E4","midi":64,"time":160.5881550000004,"velocity":0.7244094488188977,"duration":0.17279403124999249},{"name":"D3","midi":50,"time":160.7646255000004,"velocity":0.7244094488188977,"duration":0.349264531249986},{"name":"F#4","midi":66,"time":160.7646255000004,"velocity":0.7244094488188977,"duration":0.17279403124999249},{"name":"B3","midi":59,"time":160.94109600000039,"velocity":0.7244094488188977,"duration":0.349264531249986},{"name":"E2","midi":40,"time":161.11756650000038,"velocity":0.7244094488188977,"duration":0.349264531249986},{"name":"G4","midi":67,"time":161.11756650000038,"velocity":0.7244094488188977,"duration":1.4080875312499472},{"name":"D4","midi":62,"time":161.29403700000037,"velocity":0.7244094488188977,"duration":0.17279403124999249},{"name":"E3","midi":52,"time":161.47050750000037,"velocity":0.7244094488188977,"duration":0.349264531249986},{"name":"C#4","midi":61,"time":161.47050750000037,"velocity":0.7244094488188977,"duration":0.17279403124999249},{"name":"B3","midi":59,"time":161.64697800000036,"velocity":0.7244094488188977,"duration":0.17279403124999249},{"name":"A2","midi":45,"time":161.82344850000035,"velocity":0.7244094488188977,"duration":0.349264531249986},{"name":"C#4","midi":61,"time":161.82344850000035,"velocity":0.7244094488188977,"duration":0.17279403124999249},{"name":"D4","midi":62,"time":161.99991900000035,"velocity":0.7244094488188977,"duration":0.17279403124999249},{"name":"C#3","midi":49,"time":162.17638950000034,"velocity":0.7244094488188977,"duration":0.349264531249986},{"name":"E4","midi":64,"time":162.17638950000034,"velocity":0.7244094488188977,"duration":0.17279403124999249},{"name":"A3","midi":57,"time":162.35286000000033,"velocity":0.7244094488188977,"duration":0.349264531249986},{"name":"D2","midi":38,"time":162.52933050000033,"velocity":0.7244094488188977,"duration":0.17279403124999249},{"name":"F#4","midi":66,"time":162.52933050000033,"velocity":0.7244094488188977,"duration":0.698529062499972},{"name":"A2","midi":45,"time":162.70580100000032,"velocity":0.7244094488188977,"duration":0.17279403124999249},{"name":"C#4","midi":61,"time":162.70580100000032,"velocity":0.7244094488188977,"duration":0.17279403124999249},{"name":"B2","midi":47,"time":162.88227150000031,"velocity":0.7244094488188977,"duration":0.17279403124999249},{"name":"D4","midi":62,"time":162.88227150000031,"velocity":0.7244094488188977,"duration":0.17279403124999249},{"name":"C#3","midi":49,"time":163.0587420000003,"velocity":0.7244094488188977,"duration":0.17279403124999249},{"name":"E4","midi":64,"time":163.0587420000003,"velocity":0.7244094488188977,"duration":0.17279403124999249},{"name":"D3","midi":50,"time":163.2352125000003,"velocity":0.7244094488188977,"duration":0.17279403124999249},{"name":"F#4","midi":66,"time":163.2352125000003,"velocity":0.7244094488188977,"duration":0.349264531249986},{"name":"E3","midi":52,"time":163.4116830000003,"velocity":0.7244094488188977,"duration":0.17279403124999249},{"name":"G4","midi":67,"time":163.4116830000003,"velocity":0.7244094488188977,"duration":0.17279403124999249},{"name":"F#3","midi":54,"time":163.5881535000003,"velocity":0.7244094488188977,"duration":0.17279403124999249},{"name":"A4","midi":69,"time":163.5881535000003,"velocity":0.7244094488188977,"duration":0.17279403124999249},{"name":"D5","midi":74,"time":163.5881535000003,"velocity":0.7244094488188977,"duration":0.349264531249986},{"name":"D3","midi":50,"time":163.76462400000028,"velocity":0.7244094488188977,"duration":0.17279403124999249},{"name":"F#4","midi":66,"time":163.76462400000028,"velocity":0.7244094488188977,"duration":0.17279403124999249},{"name":"E3","midi":52,"time":163.94109450000028,"velocity":0.7244094488188977,"duration":0.17279403124999249},{"name":"G4","midi":67,"time":163.94109450000028,"velocity":0.7244094488188977,"duration":0.349264531249986},{"name":"D5","midi":74,"time":163.94109450000028,"velocity":0.7244094488188977,"duration":0.349264531249986},{"name":"G3","midi":55,"time":164.11756500000027,"velocity":0.7244094488188977,"duration":0.17279403124999249},{"name":"A3","midi":57,"time":164.29403550000026,"velocity":0.7244094488188977,"duration":0.17279403124999249},{"name":"E4","midi":64,"time":164.29403550000026,"velocity":0.7244094488188977,"duration":0.349264531249986},{"name":"C#5","midi":73,"time":164.29403550000026,"velocity":0.7244094488188977,"duration":0.5147056249999764},{"name":"B3","midi":59,"time":164.47050600000026,"velocity":0.7244094488188977,"duration":0.17279403124999249},{"name":"C#3","midi":49,"time":164.64697650000025,"velocity":0.7244094488188977,"duration":0.17279403124999249},{"name":"A4","midi":69,"time":164.64697650000025,"velocity":0.7244094488188977,"duration":0.349264531249986},{"name":"B3","midi":59,"time":164.82344700000024,"velocity":0.7244094488188977,"duration":0.17279403124999249},{"name":"A3","midi":57,"time":164.99991750000024,"velocity":0.7244094488188977,"duration":0.17279403124999249},{"name":"C#5","midi":73,"time":164.99991750000024,"velocity":0.7244094488188977,"duration":0.349264531249986},{"name":"E5","midi":76,"time":164.99991750000024,"velocity":0.7244094488188977,"duration":0.349264531249986},{"name":"G3","midi":55,"time":165.17638800000023,"velocity":0.7244094488188977,"duration":0.17279403124999249},{"name":"F#3","midi":54,"time":165.35285850000022,"velocity":0.7244094488188977,"duration":0.17279403124999249},{"name":"A4","midi":69,"time":165.35285850000022,"velocity":0.7244094488188977,"duration":0.349264531249986},{"name":"E5","midi":76,"time":165.35285850000022,"velocity":0.7244094488188977,"duration":0.349264531249986},{"name":"A3","midi":57,"time":165.52932900000022,"velocity":0.7244094488188977,"duration":0.17279403124999249},{"name":"B3","midi":59,"time":165.7057995000002,"velocity":0.7244094488188977,"duration":0.17279403124999249},{"name":"F#4","midi":66,"time":165.7057995000002,"velocity":0.7244094488188977,"duration":0.349264531249986},{"name":"D5","midi":74,"time":165.7057995000002,"velocity":0.7244094488188977,"duration":0.5147056249999764},{"name":"C#4","midi":61,"time":165.8822700000002,"velocity":0.7244094488188977,"duration":0.17279403124999249},{"name":"D3","midi":50,"time":166.0587405000002,"velocity":0.7244094488188977,"duration":0.17279403124999249},{"name":"A4","midi":69,"time":166.0587405000002,"velocity":0.7244094488188977,"duration":0.349264531249986},{"name":"C4","midi":60,"time":166.2352110000002,"velocity":0.7244094488188977,"duration":0.17279403124999249},{"name":"B3","midi":59,"time":166.41168150000018,"velocity":0.7244094488188977,"duration":0.17279403124999249},{"name":"D5","midi":74,"time":166.41168150000018,"velocity":0.7244094488188977,"duration":0.349264531249986},{"name":"F#5","midi":78,"time":166.41168150000018,"velocity":0.7244094488188977,"duration":0.349264531249986},{"name":"A3","midi":57,"time":166.58815200000018,"velocity":0.7244094488188977,"duration":0.17279403124999249},{"name":"G3","midi":55,"time":166.76462250000017,"velocity":0.7244094488188977,"duration":0.17279403124999249},{"name":"B4","midi":71,"time":166.76462250000017,"velocity":0.7244094488188977,"duration":0.9926465624999707},{"name":"F#5","midi":78,"time":166.76462250000017,"velocity":0.7244094488188977,"duration":0.349264531249986},{"name":"B3","midi":59,"time":166.94109300000017,"velocity":0.7244094488188977,"duration":0.17279403124999249},{"name":"C#4","midi":61,"time":167.11756350000016,"velocity":0.7244094488188977,"duration":0.17279403124999249},{"name":"E5","midi":76,"time":167.11756350000016,"velocity":0.7244094488188977,"duration":0.17279403124999249},{"name":"D4","midi":62,"time":167.29403400000015,"velocity":0.7244094488188977,"duration":0.17279403124999249},{"name":"F#5","midi":78,"time":167.29403400000015,"velocity":0.7244094488188977,"duration":0.17279403124999249},{"name":"E3","midi":52,"time":167.47050450000015,"velocity":0.7244094488188977,"duration":0.17279403124999249},{"name":"G5","midi":79,"time":167.47050450000015,"velocity":0.7244094488188977,"duration":0.17279403124999249},{"name":"F#3","midi":54,"time":167.64697500000014,"velocity":0.7244094488188977,"duration":0.17279403124999249},{"name":"F#5","midi":78,"time":167.64697500000014,"velocity":0.7244094488188977,"duration":0.17279403124999249},{"name":"G3","midi":55,"time":167.82344550000013,"velocity":0.7244094488188977,"duration":0.5257350312499796},{"name":"B4","midi":71,"time":167.82344550000013,"velocity":0.7244094488188977,"duration":0.349264531249986},{"name":"E5","midi":76,"time":167.82344550000013,"velocity":0.7244094488188977,"duration":0.17279403124999249},{"name":"D5","midi":74,"time":167.99991600000013,"velocity":0.7244094488188977,"duration":0.17279403124999249},{"name":"A4","midi":69,"time":168.17638650000012,"velocity":0.7244094488188977,"duration":0.17279403124999249},{"name":"C#5","midi":73,"time":168.17638650000012,"velocity":0.7244094488188977,"duration":0.349264531249986},{"name":"G3","midi":55,"time":168.3528570000001,"velocity":0.7244094488188977,"duration":0.17279403124999249},{"name":"B4","midi":71,"time":168.3528570000001,"velocity":0.7244094488188977,"duration":0.17279403124999249},{"name":"F#3","midi":54,"time":168.5293275000001,"velocity":0.7244094488188977,"duration":0.17279403124999249},{"name":"A4","midi":69,"time":168.5293275000001,"velocity":0.7244094488188977,"duration":0.17279403124999249},{"name":"C#5","midi":73,"time":168.5293275000001,"velocity":0.7244094488188977,"duration":0.349264531249986},{"name":"E3","midi":52,"time":168.7057980000001,"velocity":0.7244094488188977,"duration":0.17279403124999249},{"name":"G4","midi":67,"time":168.7057980000001,"velocity":0.7244094488188977,"duration":0.17279403124999249},{"name":"F#3","midi":54,"time":168.8822685000001,"velocity":0.7244094488188977,"duration":0.17279403124999249},{"name":"A4","midi":69,"time":168.8822685000001,"velocity":0.7244094488188977,"duration":1.4099257656249335},{"name":"D5","midi":74,"time":168.8822685000001,"velocity":0.7244094488188977,"duration":0.349264531249986},{"name":"G3","midi":55,"time":169.0587390000001,"velocity":0.7244094488188977,"duration":0.17279403124999249},{"name":"A3","midi":57,"time":169.23520950000008,"velocity":0.7244094488188977,"duration":0.17279403124999249},{"name":"F#5","midi":78,"time":169.23520950000008,"velocity":0.7244094488188977,"duration":0.349264531249986},{"name":"D3","midi":50,"time":169.41168000000008,"velocity":0.7244094488188977,"duration":0.17279403124999249},{"name":"B3","midi":59,"time":169.58815050000007,"velocity":0.7244094488188977,"duration":0.17279403124999249},{"name":"G4","midi":67,"time":169.58815050000007,"velocity":0.7244094488188977,"duration":0.349264531249986},{"name":"D3","midi":50,"time":169.76462100000006,"velocity":0.7244094488188977,"duration":0.17279403124999249},{"name":"C#3","midi":49,"time":169.94109150000006,"velocity":0.7244094488188977,"duration":0.17279403124999249},{"name":"E5","midi":76,"time":169.94109150000006,"velocity":0.7244094488188977,"duration":0.349264531249986},{"name":"B2","midi":47,"time":170.11756200000005,"velocity":0.7244094488188977,"duration":0.17279403124999249},{"name":"C#3","midi":49,"time":170.29403250000001,"velocity":0.7244094488188977,"duration":0.17279403124999249},{"name":"A4","midi":69,"time":170.29403250000001,"velocity":0.7244094488188977,"duration":0.349264531249986},{"name":"D3","midi":50,"time":170.470503,"velocity":0.7244094488188977,"duration":0.17279403124999249},{"name":"E3","midi":52,"time":170.6469735,"velocity":0.7244094488188977,"duration":0.17279403124999249},{"name":"C#5","midi":73,"time":170.6469735,"velocity":0.7244094488188977,"duration":0.349264531249986},{"name":"A2","midi":45,"time":170.823444,"velocity":0.7244094488188977,"duration":0.17279403124999249},{"name":"F#3","midi":54,"time":170.9999145,"velocity":0.7244094488188977,"duration":0.17279403124999249},{"name":"D5","midi":74,"time":170.9999145,"velocity":0.7244094488188977,"duration":1.0551465312499602},{"name":"E3","midi":52,"time":171.17638499999998,"velocity":0.7244094488188977,"duration":0.17279403124999249},{"name":"D3","midi":50,"time":171.35285549999998,"velocity":0.7244094488188977,"duration":0.17279403124999249},{"name":"A4","midi":69,"time":171.35285549999998,"velocity":0.7244094488188977,"duration":0.349264531249986},{"name":"C3","midi":48,"time":171.52932599999997,"velocity":0.7244094488188977,"duration":0.17279403124999249},{"name":"B2","midi":47,"time":171.70579649999996,"velocity":0.7244094488188977,"duration":0.17279403124999249},{"name":"A4","midi":69,"time":171.70579649999996,"velocity":0.7244094488188977,"duration":0.349264531249986},{"name":"C3","midi":48,"time":171.88226699999996,"velocity":0.7244094488188977,"duration":0.17279403124999249},{"name":"D3","midi":50,"time":172.05873749999995,"velocity":0.7244094488188977,"duration":0.17279403124999249},{"name":"G#4","midi":68,"time":172.05873749999995,"velocity":0.7244094488188977,"duration":0.44117624999998384},{"name":"B4","midi":71,"time":172.05873749999995,"velocity":0.7244094488188977,"duration":0.349264531249986},{"name":"B2","midi":47,"time":172.23520799999994,"velocity":0.7244094488188977,"duration":0.17279403124999249},{"name":"C3","midi":48,"time":172.41167849999994,"velocity":0.7244094488188977,"duration":0.17279403124999249},{"name":"B4","midi":71,"time":172.41167849999994,"velocity":0.7244094488188977,"duration":0.349264531249986},{"name":"E3","midi":52,"time":172.58814899999993,"velocity":0.7244094488188977,"duration":0.17279403124999249},{"name":"A3","midi":57,"time":172.76461949999992,"velocity":0.7244094488188977,"duration":0.17279403124999249},{"name":"C5","midi":72,"time":172.76461949999992,"velocity":0.7244094488188977,"duration":0.349264531249986},{"name":"A4","midi":69,"time":172.76461949999992,"velocity":0.7244094488188977,"duration":0.44117624999998384},{"name":"G3","midi":55,"time":172.94108999999992,"velocity":0.7244094488188977,"duration":0.17279403124999249},{"name":"F3","midi":53,"time":173.1175604999999,"velocity":0.7244094488188977,"duration":0.17279403124999249},{"name":"C5","midi":72,"time":173.1175604999999,"velocity":0.7244094488188977,"duration":0.349264531249986},{"name":"G#3","midi":56,"time":173.2940309999999,"velocity":0.7244094488188977,"duration":0.17279403124999249},{"name":"A3","midi":57,"time":173.4705014999999,"velocity":0.7244094488188977,"duration":0.17279403124999249},{"name":"B4","midi":71,"time":173.4705014999999,"velocity":0.7244094488188977,"duration":0.44117624999998384},{"name":"D5","midi":74,"time":173.4705014999999,"velocity":0.7244094488188977,"duration":0.349264531249986},{"name":"F3","midi":53,"time":173.6469719999999,"velocity":0.7244094488188977,"duration":0.17279403124999249},{"name":"E3","midi":52,"time":173.82344249999989,"velocity":0.7244094488188977,"duration":0.17279403124999249},{"name":"D5","midi":74,"time":173.82344249999989,"velocity":0.7244094488188977,"duration":0.349264531249986},{"name":"G3","midi":55,"time":173.99991299999988,"velocity":0.7244094488188977,"duration":0.17279403124999249},{"name":"A3","midi":57,"time":174.17638349999987,"velocity":0.7244094488188977,"duration":0.17279403124999249},{"name":"E5","midi":76,"time":174.17638349999987,"velocity":0.7244094488188977,"duration":0.349264531249986},{"name":"C5","midi":72,"time":174.17638349999987,"velocity":0.7244094488188977,"duration":0.44117624999998384},{"name":"G3","midi":55,"time":174.35285399999987,"velocity":0.7244094488188977,"duration":0.17279403124999249},{"name":"F#3","midi":54,"time":174.52932449999986,"velocity":0.7244094488188977,"duration":0.17279403124999249},{"name":"E5","midi":76,"time":174.52932449999986,"velocity":0.7244094488188977,"duration":0.349264531249986},{"name":"G#3","midi":56,"time":174.70579499999985,"velocity":0.7244094488188977,"duration":0.17279403124999249},{"name":"A3","midi":57,"time":174.88226549999985,"velocity":0.7244094488188977,"duration":0.17279403124999249},{"name":"D5","midi":74,"time":174.88226549999985,"velocity":0.7244094488188977,"duration":0.44117624999998384},{"name":"F5","midi":77,"time":174.88226549999985,"velocity":0.7244094488188977,"duration":0.349264531249986},{"name":"C4","midi":60,"time":175.05873599999984,"velocity":0.7244094488188977,"duration":0.17279403124999249},{"name":"B3","midi":59,"time":175.23520649999983,"velocity":0.7244094488188977,"duration":0.17279403124999249},{"name":"F5","midi":77,"time":175.23520649999983,"velocity":0.7244094488188977,"duration":0.349264531249986},{"name":"A3","midi":57,"time":175.41167699999983,"velocity":0.7244094488188977,"duration":0.17279403124999249},{"name":"G#3","midi":56,"time":175.58814749999982,"velocity":0.7244094488188977,"duration":0.17279403124999249},{"name":"D5","midi":74,"time":175.58814749999982,"velocity":0.7244094488188977,"duration":0.349264531249986},{"name":"E5","midi":76,"time":175.58814749999982,"velocity":0.7244094488188977,"duration":0.44117624999998384},{"name":"F#3","midi":54,"time":175.7646179999998,"velocity":0.7244094488188977,"duration":0.17279403124999249},{"name":"G#3","midi":56,"time":175.9410884999998,"velocity":0.7244094488188977,"duration":0.17279403124999249},{"name":"D5","midi":74,"time":175.9410884999998,"velocity":0.7244094488188977,"duration":0.349264531249986},{"name":"E3","midi":52,"time":176.1175589999998,"velocity":0.7244094488188977,"duration":0.17279403124999249},{"name":"A3","midi":57,"time":176.2940294999998,"velocity":0.7244094488188977,"duration":0.17279403124999249},{"name":"C5","midi":72,"time":176.2940294999998,"velocity":0.7244094488188977,"duration":0.44117624999998384},{"name":"E5","midi":76,"time":176.2940294999998,"velocity":0.7244094488188977,"duration":0.349264531249986},{"name":"G3","midi":55,"time":176.4704999999998,"velocity":0.7244094488188977,"duration":0.17279403124999249},{"name":"F#3","midi":54,"time":176.64697049999978,"velocity":0.7244094488188977,"duration":0.17279403124999249},{"name":"E5","midi":76,"time":176.64697049999978,"velocity":0.7244094488188977,"duration":0.349264531249986},{"name":"C4","midi":60,"time":176.82344099999978,"velocity":0.7244094488188977,"duration":0.17279403124999249},{"name":"F#3","midi":54,"time":176.99991149999977,"velocity":0.7244094488188977,"duration":0.17279403124999249},{"name":"C5","midi":72,"time":176.99991149999977,"velocity":0.7244094488188977,"duration":0.349264531249986},{"name":"D5","midi":74,"time":176.99991149999977,"velocity":0.7244094488188977,"duration":0.44117624999998384},{"name":"E3","midi":52,"time":177.17638199999976,"velocity":0.7244094488188977,"duration":0.17279403124999249},{"name":"F#3","midi":54,"time":177.35285249999976,"velocity":0.7244094488188977,"duration":0.17279403124999249},{"name":"C5","midi":72,"time":177.35285249999976,"velocity":0.7244094488188977,"duration":0.349264531249986},{"name":"D3","midi":50,"time":177.52932299999975,"velocity":0.7244094488188977,"duration":0.17279403124999249},{"name":"G3","midi":55,"time":177.70579349999974,"velocity":0.7244094488188977,"duration":0.17279403124999249},{"name":"B4","midi":71,"time":177.70579349999974,"velocity":0.7244094488188977,"duration":0.44117624999998384},{"name":"D5","midi":74,"time":177.70579349999974,"velocity":0.7244094488188977,"duration":0.349264531249986},{"name":"F3","midi":53,"time":177.88226399999974,"velocity":0.7244094488188977,"duration":0.17279403124999249},{"name":"E3","midi":52,"time":178.05873449999973,"velocity":0.7244094488188977,"duration":0.17279403124999249},{"name":"D5","midi":74,"time":178.05873449999973,"velocity":0.7244094488188977,"duration":0.349264531249986},{"name":"B3","midi":59,"time":178.23520499999972,"velocity":0.7244094488188977,"duration":0.17279403124999249},{"name":"E3","midi":52,"time":178.41167549999972,"velocity":0.7244094488188977,"duration":0.17279403124999249},{"name":"B4","midi":71,"time":178.41167549999972,"velocity":0.7244094488188977,"duration":0.349264531249986},{"name":"C5","midi":72,"time":178.41167549999972,"velocity":0.7244094488188977,"duration":0.44117624999998384},{"name":"D3","midi":50,"time":178.5881459999997,"velocity":0.7244094488188977,"duration":0.17279403124999249},{"name":"E3","midi":52,"time":178.7646164999997,"velocity":0.7244094488188977,"duration":0.17279403124999249},{"name":"B4","midi":71,"time":178.7646164999997,"velocity":0.7244094488188977,"duration":0.349264531249986},{"name":"C3","midi":48,"time":178.9410869999997,"velocity":0.7244094488188977,"duration":0.17279403124999249},{"name":"F3","midi":53,"time":179.1175574999997,"velocity":0.7244094488188977,"duration":0.17279403124999249},{"name":"A4","midi":69,"time":179.1175574999997,"velocity":0.7244094488188977,"duration":0.44117624999998384},{"name":"C5","midi":72,"time":179.1175574999997,"velocity":0.7244094488188977,"duration":0.349264531249986},{"name":"E3","midi":52,"time":179.29402799999968,"velocity":0.7244094488188977,"duration":0.17279403124999249},{"name":"D3","midi":50,"time":179.47049849999968,"velocity":0.7244094488188977,"duration":0.17279403124999249},{"name":"C5","midi":72,"time":179.47049849999968,"velocity":0.7244094488188977,"duration":0.349264531249986},{"name":"E3","midi":52,"time":179.64696899999967,"velocity":0.7244094488188977,"duration":0.17279403124999249},{"name":"F3","midi":53,"time":179.82343949999967,"velocity":0.7244094488188977,"duration":0.17279403124999249},{"name":"D4","midi":62,"time":179.82343949999967,"velocity":0.7244094488188977,"duration":0.349264531249986},{"name":"B4","midi":71,"time":179.82343949999967,"velocity":0.7244094488188977,"duration":0.349264531249986},{"name":"G#2","midi":44,"time":179.99990999999966,"velocity":0.7244094488188977,"duration":0.17279403124999249},{"name":"A2","midi":45,"time":180.17638049999965,"velocity":0.7244094488188977,"duration":0.17279403124999249},{"name":"D4","midi":62,"time":180.17638049999965,"velocity":0.7244094488188977,"duration":0.349264531249986},{"name":"B4","midi":71,"time":180.17638049999965,"velocity":0.7244094488188977,"duration":0.349264531249986},{"name":"B2","midi":47,"time":180.35285099999965,"velocity":0.7244094488188977,"duration":0.17279403124999249},{"name":"C3","midi":48,"time":180.52932149999964,"velocity":0.7244094488188977,"duration":0.17279403124999249},{"name":"C4","midi":60,"time":180.52932149999964,"velocity":0.7244094488188977,"duration":0.349264531249986},{"name":"A4","midi":69,"time":180.52932149999964,"velocity":0.7244094488188977,"duration":0.349264531249986},{"name":"D#2","midi":39,"time":180.70579199999963,"velocity":0.7244094488188977,"duration":0.17279403124999249},{"name":"E2","midi":40,"time":180.88226249999963,"velocity":0.7244094488188977,"duration":0.17279403124999249},{"name":"C4","midi":60,"time":180.88226249999963,"velocity":0.7244094488188977,"duration":0.349264531249986},{"name":"A4","midi":69,"time":180.88226249999963,"velocity":0.7244094488188977,"duration":0.349264531249986},{"name":"E3","midi":52,"time":181.05873299999962,"velocity":0.7244094488188977,"duration":0.17279403124999249},{"name":"D3","midi":50,"time":181.2352034999996,"velocity":0.7244094488188977,"duration":0.17279403124999249},{"name":"B3","midi":59,"time":181.2352034999996,"velocity":0.7244094488188977,"duration":0.349264531249986},{"name":"G#4","midi":68,"time":181.2352034999996,"velocity":0.7244094488188977,"duration":0.3308821874999808},{"name":"E3","midi":52,"time":181.4116739999996,"velocity":0.7244094488188977,"duration":0.17279403124999249},{"name":"C3","midi":48,"time":181.5881444999996,"velocity":0.7244094488188977,"duration":0.7022055312499731},{"name":"B3","midi":59,"time":181.5881444999996,"velocity":0.7244094488188977,"duration":0.349264531249986},{"name":"E5","midi":76,"time":181.7646149999996,"velocity":0.7244094488188977,"duration":0.17279403124999249},{"name":"A3","midi":57,"time":181.9410854999996,"velocity":0.7244094488188977,"duration":0.349264531249986},{"name":"D5","midi":74,"time":181.9410854999996,"velocity":0.7244094488188977,"duration":0.17279403124999249},{"name":"C5","midi":72,"time":182.11755599999958,"velocity":0.7244094488188977,"duration":0.17279403124999249},{"name":"D3","midi":50,"time":182.29402649999957,"velocity":0.7244094488188977,"duration":0.7022055312499731},{"name":"A3","midi":57,"time":182.29402649999957,"velocity":0.7244094488188977,"duration":0.349264531249986},{"name":"B4","midi":71,"time":182.29402649999957,"velocity":0.7244094488188977,"duration":0.17279403124999249},{"name":"D5","midi":74,"time":182.47049699999957,"velocity":0.7244094488188977,"duration":0.17279403124999249},{"name":"G#3","midi":56,"time":182.64696749999956,"velocity":0.7244094488188977,"duration":0.5147056249999764},{"name":"E5","midi":76,"time":182.64696749999956,"velocity":0.7244094488188977,"duration":0.17279403124999249},{"name":"F5","midi":77,"time":182.82343799999956,"velocity":0.7244094488188977,"duration":0.17279403124999249},{"name":"E3","midi":52,"time":182.99990849999955,"velocity":0.7244094488188977,"duration":0.7022055312499731},{"name":"G#4","midi":68,"time":182.99990849999955,"velocity":0.7244094488188977,"duration":0.17279403124999249},{"name":"F5","midi":77,"time":183.17637899999954,"velocity":0.7244094488188977,"duration":0.17279403124999249},{"name":"B3","midi":59,"time":183.35284949999954,"velocity":0.7244094488188977,"duration":0.349264531249986},{"name":"E5","midi":76,"time":183.35284949999954,"velocity":0.7244094488188977,"duration":0.17279403124999249},{"name":"D5","midi":74,"time":183.52931999999953,"velocity":0.7244094488188977,"duration":0.17279403124999249},{"name":"A2","midi":45,"time":183.70579049999952,"velocity":0.7244094488188977,"duration":0.17279403124999249},{"name":"B3","midi":59,"time":183.70579049999952,"velocity":0.7244094488188977,"duration":0.349264531249986},{"name":"C5","midi":72,"time":183.70579049999952,"velocity":0.7244094488188977,"duration":0.17279403124999249},{"name":"G#3","midi":56,"time":183.88226099999952,"velocity":0.7244094488188977,"duration":0.17279403124999249},{"name":"E5","midi":76,"time":183.88226099999952,"velocity":0.7244094488188977,"duration":0.17279403124999249},{"name":"A3","midi":57,"time":184.0587314999995,"velocity":0.7244094488188977,"duration":0.5147056249999764},{"name":"F#5","midi":78,"time":184.0587314999995,"velocity":0.7244094488188977,"duration":0.17279403124999249},{"name":"B3","midi":59,"time":184.2352019999995,"velocity":0.7244094488188977,"duration":0.17279403124999249},{"name":"G#5","midi":80,"time":184.2352019999995,"velocity":0.7244094488188977,"duration":0.17279403124999249},{"name":"C4","midi":60,"time":184.4116724999995,"velocity":0.7244094488188977,"duration":0.17279403124999249},{"name":"A4","midi":69,"time":184.4116724999995,"velocity":0.7244094488188977,"duration":0.17279403124999249},{"name":"B3","midi":59,"time":184.5881429999995,"velocity":0.7244094488188977,"duration":0.17279403124999249},{"name":"G5","midi":79,"time":184.5881429999995,"velocity":0.7244094488188977,"duration":0.17279403124999249},{"name":"A3","midi":57,"time":184.76461349999948,"velocity":0.7244094488188977,"duration":0.17279403124999249},{"name":"C4","midi":60,"time":184.76461349999948,"velocity":0.7244094488188977,"duration":0.349264531249986},{"name":"F5","midi":77,"time":184.76461349999948,"velocity":0.7244094488188977,"duration":0.17279403124999249},{"name":"G3","midi":55,"time":184.94108399999948,"velocity":0.7244094488188977,"duration":0.17279403124999249},{"name":"E5","midi":76,"time":184.94108399999948,"velocity":0.7244094488188977,"duration":0.17279403124999249},{"name":"F#3","midi":54,"time":185.11755449999947,"velocity":0.7244094488188977,"duration":0.698529062499972},{"name":"C4","midi":60,"time":185.11755449999947,"velocity":0.7244094488188977,"duration":0.349264531249986},{"name":"D5","midi":74,"time":185.11755449999947,"velocity":0.7244094488188977,"duration":0.17279403124999249},{"name":"F#5","midi":78,"time":185.29402499999946,"velocity":0.7244094488188977,"duration":0.17279403124999249},{"name":"B3","midi":59,"time":185.47049549999946,"velocity":0.7244094488188977,"duration":0.17279403124999249},{"name":"G#5","midi":80,"time":185.47049549999946,"velocity":0.7244094488188977,"duration":0.17279403124999249},{"name":"C4","midi":60,"time":185.64696599999945,"velocity":0.7244094488188977,"duration":0.17279403124999249},{"name":"A5","midi":81,"time":185.64696599999945,"velocity":0.7244094488188977,"duration":0.17279403124999249},{"name":"D4","midi":62,"time":185.82343649999945,"velocity":0.7244094488188977,"duration":0.349264531249986},{"name":"B4","midi":71,"time":185.82343649999945,"velocity":0.7244094488188977,"duration":0.17279403124999249},{"name":"C5","midi":72,"time":185.99990699999944,"velocity":0.7244094488188977,"duration":0.17279403124999249},{"name":"B2","midi":47,"time":186.17637749999943,"velocity":0.7244094488188977,"duration":0.349264531249986},{"name":"F3","midi":53,"time":186.17637749999943,"velocity":0.7244094488188977,"duration":0.349264531249986},{"name":"D5","midi":74,"time":186.17637749999943,"velocity":0.7244094488188977,"duration":0.5147056249999764},{"name":"A4","midi":69,"time":186.35284799999943,"velocity":0.7244094488188977,"duration":0.17279403124999249},{"name":"C3","midi":48,"time":186.52931849999942,"velocity":0.7244094488188977,"duration":0.8823524999999677},{"name":"E3","midi":52,"time":186.52931849999942,"velocity":0.7244094488188977,"duration":0.349264531249986},{"name":"G#4","midi":68,"time":186.52931849999942,"velocity":0.7244094488188977,"duration":0.17279403124999249},{"name":"F5","midi":77,"time":186.7057889999994,"velocity":0.7244094488188977,"duration":0.17279403124999249},{"name":"G#3","midi":56,"time":186.8822594999994,"velocity":0.7244094488188977,"duration":0.349264531249986},{"name":"E5","midi":76,"time":186.8822594999994,"velocity":0.7244094488188977,"duration":0.17279403124999249},{"name":"D5","midi":74,"time":187.0587299999994,"velocity":0.7244094488188977,"duration":0.17279403124999249},{"name":"A3","midi":57,"time":187.2352004999994,"velocity":0.7244094488188977,"duration":0.349264531249986},{"name":"C5","midi":72,"time":187.2352004999994,"velocity":0.7244094488188977,"duration":0.17279403124999249},{"name":"B4","midi":71,"time":187.4116709999994,"velocity":0.7244094488188977,"duration":0.17279403124999249},{"name":"F3","midi":53,"time":187.58814149999938,"velocity":0.7244094488188977,"duration":0.17279403124999249},{"name":"C4","midi":60,"time":187.58814149999938,"velocity":0.7244094488188977,"duration":0.349264531249986},{"name":"A4","midi":69,"time":187.58814149999938,"velocity":0.7244094488188977,"duration":0.5257350312499796},{"name":"E3","midi":52,"time":187.76461199999937,"velocity":0.7244094488188977,"duration":0.17279403124999249},{"name":"D3","midi":50,"time":187.94108249999937,"velocity":0.7244094488188977,"duration":0.349264531249986},{"name":"F3","midi":53,"time":187.94108249999937,"velocity":0.7244094488188977,"duration":0.349264531249986},{"name":"G#4","midi":68,"time":188.11755299999936,"velocity":0.7244094488188977,"duration":0.17279403124999249},{"name":"D3","midi":50,"time":188.29402349999935,"velocity":0.7244094488188977,"duration":0.349264531249986},{"name":"B3","midi":59,"time":188.29402349999935,"velocity":0.7244094488188977,"duration":0.349264531249986},{"name":"A4","midi":69,"time":188.29402349999935,"velocity":0.7244094488188977,"duration":0.17279403124999249},{"name":"B4","midi":71,"time":188.47049399999935,"velocity":0.7244094488188977,"duration":0.17279403124999249},{"name":"E3","midi":52,"time":188.64696449999934,"velocity":0.7244094488188977,"duration":0.698529062499972},{"name":"D4","midi":62,"time":188.64696449999934,"velocity":0.7244094488188977,"duration":0.17279403124999249},{"name":"F4","midi":65,"time":188.82343499999934,"velocity":0.7244094488188977,"duration":0.17279403124999249},{"name":"G#3","midi":56,"time":188.99990549999933,"velocity":0.7244094488188977,"duration":0.349264531249986},{"name":"E4","midi":64,"time":188.99990549999933,"velocity":0.7244094488188977,"duration":0.17279403124999249},{"name":"D4","midi":62,"time":189.17637599999932,"velocity":0.7244094488188977,"duration":0.17279403124999249},{"name":"A2","midi":45,"time":189.35284649999932,"velocity":0.7244094488188977,"duration":0.698529062499972},{"name":"A3","midi":57,"time":189.35284649999932,"velocity":0.7244094488188977,"duration":0.349264531249986},{"name":"C4","midi":60,"time":189.35284649999932,"velocity":0.7244094488188977,"duration":0.17279403124999249},{"name":"E4","midi":64,"time":189.5293169999993,"velocity":0.7244094488188977,"duration":0.17279403124999249},{"name":"A3","midi":57,"time":189.7057874999993,"velocity":0.7244094488188977,"duration":0.44117624999998384},{"name":"F4","midi":65,"time":189.7057874999993,"velocity":0.7244094488188977,"duration":0.349264531249986},{"name":"A4","midi":69,"time":189.7057874999993,"velocity":0.7244094488188977,"duration":0.17279403124999249},{"name":"C5","midi":72,"time":189.8822579999993,"velocity":0.7244094488188977,"duration":0.17279403124999249},{"name":"F4","midi":65,"time":190.0587284999993,"velocity":0.7244094488188977,"duration":0.349264531249986},{"name":"B4","midi":71,"time":190.0587284999993,"velocity":0.7244094488188977,"duration":0.17279403124999249},{"name":"A4","midi":69,"time":190.23519899999928,"velocity":0.7244094488188977,"duration":0.17279403124999249},{"name":"G3","midi":55,"time":190.41166949999928,"velocity":0.7244094488188977,"duration":0.349264531249986},{"name":"E4","midi":64,"time":190.41166949999928,"velocity":0.7244094488188977,"duration":0.44117624999998384},{"name":"B4","midi":71,"time":190.41166949999928,"velocity":0.7244094488188977,"duration":0.17279403124999249},{"name":"E5","midi":76,"time":190.58813999999927,"velocity":0.7244094488188977,"duration":0.17279403124999249},{"name":"G3","midi":55,"time":190.76461049999926,"velocity":0.7244094488188977,"duration":0.349264531249986},{"name":"A4","midi":69,"time":190.76461049999926,"velocity":0.7244094488188977,"duration":0.17279403124999249},{"name":"C5","midi":72,"time":190.94108099999926,"velocity":0.7244094488188977,"duration":0.17279403124999249},{"name":"F3","midi":53,"time":191.11755149999925,"velocity":0.7244094488188977,"duration":0.44117624999998384},{"name":"D4","midi":62,"time":191.11755149999925,"velocity":0.7244094488188977,"duration":0.349264531249986},{"name":"B4","midi":71,"time":191.11755149999925,"velocity":0.7244094488188977,"duration":0.17279403124999249},{"name":"A4","midi":69,"time":191.29402199999925,"velocity":0.7244094488188977,"duration":0.17279403124999249},{"name":"D4","midi":62,"time":191.47049249999924,"velocity":0.7244094488188977,"duration":0.349264531249986},{"name":"G4","midi":67,"time":191.47049249999924,"velocity":0.7244094488188977,"duration":0.17279403124999249},{"name":"F4","midi":65,"time":191.64696299999923,"velocity":0.7244094488188977,"duration":0.17279403124999249},{"name":"E3","midi":52,"time":191.82343349999923,"velocity":0.7244094488188977,"duration":0.349264531249986},{"name":"C4","midi":60,"time":191.82343349999923,"velocity":0.7244094488188977,"duration":0.44117624999998384},{"name":"G4","midi":67,"time":191.82343349999923,"velocity":0.7244094488188977,"duration":0.17279403124999249},{"name":"C5","midi":72,"time":191.99990399999922,"velocity":0.7244094488188977,"duration":0.17279403124999249},{"name":"E3","midi":52,"time":192.1763744999992,"velocity":0.7244094488188977,"duration":0.349264531249986},{"name":"F4","midi":65,"time":192.1763744999992,"velocity":0.7244094488188977,"duration":0.17279403124999249},{"name":"A4","midi":69,"time":192.3528449999992,"velocity":0.7244094488188977,"duration":0.17279403124999249},{"name":"D3","midi":50,"time":192.5293154999992,"velocity":0.7244094488188977,"duration":0.44117624999998384},{"name":"B3","midi":59,"time":192.5293154999992,"velocity":0.7244094488188977,"duration":0.349264531249986},{"name":"G4","midi":67,"time":192.5293154999992,"velocity":0.7244094488188977,"duration":0.17279403124999249},{"name":"F4","midi":65,"time":192.7057859999992,"velocity":0.7244094488188977,"duration":0.17279403124999249},{"name":"B3","midi":59,"time":192.8822564999992,"velocity":0.7244094488188977,"duration":0.349264531249986},{"name":"E4","midi":64,"time":192.8822564999992,"velocity":0.7244094488188977,"duration":0.17279403124999249},{"name":"D4","midi":62,"time":193.05872699999918,"velocity":0.7244094488188977,"duration":0.17279403124999249},{"name":"C3","midi":48,"time":193.23519749999917,"velocity":0.7244094488188977,"duration":0.349264531249986},{"name":"A3","midi":57,"time":193.23519749999917,"velocity":0.7244094488188977,"duration":0.44117624999998384},{"name":"E4","midi":64,"time":193.23519749999917,"velocity":0.7244094488188977,"duration":0.17279403124999249},{"name":"A4","midi":69,"time":193.41166799999917,"velocity":0.7244094488188977,"duration":0.17279403124999249},{"name":"C3","midi":48,"time":193.58813849999916,"velocity":0.7244094488188977,"duration":0.349264531249986},{"name":"D4","midi":62,"time":193.58813849999916,"velocity":0.7244094488188977,"duration":0.17279403124999249},{"name":"F4","midi":65,"time":193.76460899999915,"velocity":0.7244094488188977,"duration":0.17279403124999249},{"name":"B2","midi":47,"time":193.94107949999915,"velocity":0.7244094488188977,"duration":0.349264531249986},{"name":"G3","midi":55,"time":193.94107949999915,"velocity":0.7244094488188977,"duration":0.5257350312499796},{"name":"E4","midi":64,"time":193.94107949999915,"velocity":0.7244094488188977,"duration":0.17279403124999249},{"name":"D4","midi":62,"time":194.11754999999914,"velocity":0.7244094488188977,"duration":0.17279403124999249},{"name":"A2","midi":45,"time":194.29402049999914,"velocity":0.7244094488188977,"duration":0.7022055312499731},{"name":"C4","midi":60,"time":194.29402049999914,"velocity":0.7244094488188977,"duration":0.349264531249986},{"name":"E3","midi":52,"time":194.47049099999913,"velocity":0.7244094488188977,"duration":0.17279403124999249},{"name":"F3","midi":53,"time":194.64696149999912,"velocity":0.7244094488188977,"duration":0.17279403124999249},{"name":"C5","midi":72,"time":194.64696149999912,"velocity":0.7244094488188977,"duration":0.349264531249986},{"name":"D3","midi":50,"time":194.82343199999912,"velocity":0.7244094488188977,"duration":0.17279403124999249},{"name":"G2","midi":43,"time":194.9999024999991,"velocity":0.7244094488188977,"duration":0.698529062499972},{"name":"E3","midi":52,"time":194.9999024999991,"velocity":0.7244094488188977,"duration":0.17279403124999249},{"name":"D5","midi":74,"time":194.9999024999991,"velocity":0.7244094488188977,"duration":0.08455878124999572},{"name":"C5","midi":72,"time":195.0881377499991,"velocity":0.7244094488188977,"duration":0.08455878124999572},{"name":"C3","midi":48,"time":195.1763729999991,"velocity":0.7244094488188977,"duration":0.17279403124999249},{"name":"D5","midi":74,"time":195.1763729999991,"velocity":0.7244094488188977,"duration":0.08455878124999572},{"name":"C5","midi":72,"time":195.2646082499991,"velocity":0.7244094488188977,"duration":0.08455878124999572},{"name":"D3","midi":50,"time":195.3528434999991,"velocity":0.7244094488188977,"duration":0.17279403124999249},{"name":"B4","midi":71,"time":195.3528434999991,"velocity":0.7244094488188977,"duration":0.349264531249986},{"name":"B2","midi":47,"time":195.5293139999991,"velocity":0.7244094488188977,"duration":0.17279403124999249},{"name":"G2","midi":43,"time":195.70578449999908,"velocity":0.7244094488188977,"duration":1.4099257656249335},{"name":"B2","midi":47,"time":195.88225499999908,"velocity":0.7244094488188977,"duration":0.17279403124999249},{"name":"B4","midi":71,"time":195.88225499999908,"velocity":0.7244094488188977,"duration":0.17279403124999249},{"name":"D3","midi":50,"time":196.05872549999907,"velocity":0.7244094488188977,"duration":0.17279403124999249},{"name":"C5","midi":72,"time":196.05872549999907,"velocity":0.7244094488188977,"duration":0.17279403124999249},{"name":"F3","midi":53,"time":196.23519599999906,"velocity":0.7244094488188977,"duration":0.17279403124999249},{"name":"D5","midi":74,"time":196.23519599999906,"velocity":0.7244094488188977,"duration":0.17279403124999249},{"name":"E3","midi":52,"time":196.41166649999906,"velocity":0.7244094488188977,"duration":0.17279403124999249},{"name":"E5","midi":76,"time":196.41166649999906,"velocity":0.7244094488188977,"duration":0.08455878124999572},{"name":"D5","midi":74,"time":196.49990174999905,"velocity":0.7244094488188977,"duration":0.08455878124999572},{"name":"D3","midi":50,"time":196.58813699999905,"velocity":0.7244094488188977,"duration":0.17279403124999249},{"name":"E5","midi":76,"time":196.58813699999905,"velocity":0.7244094488188977,"duration":0.08455878124999572},{"name":"D5","midi":74,"time":196.67637224999905,"velocity":0.7244094488188977,"duration":0.08455878124999572},{"name":"E3","midi":52,"time":196.76460749999904,"velocity":0.7244094488188977,"duration":0.17279403124999249},{"name":"C5","midi":72,"time":196.76460749999904,"velocity":0.7244094488188977,"duration":0.349264531249986},{"name":"C3","midi":48,"time":196.94107799999904,"velocity":0.7244094488188977,"duration":0.17279403124999249},{"name":"G2","midi":43,"time":197.117548499999,"velocity":0.7244094488188977,"duration":0.5147056249999764},{"name":"C3","midi":48,"time":197.294018999999,"velocity":0.7244094488188977,"duration":0.17279403124999249},{"name":"C5","midi":72,"time":197.294018999999,"velocity":0.7244094488188977,"duration":0.17279403124999249},{"name":"E3","midi":52,"time":197.470489499999,"velocity":0.7244094488188977,"duration":0.17279403124999249},{"name":"D5","midi":74,"time":197.470489499999,"velocity":0.7244094488188977,"duration":0.17279403124999249},{"name":"G3","midi":55,"time":197.64695999999898,"velocity":0.7244094488188977,"duration":0.17279403124999249},{"name":"E5","midi":76,"time":197.64695999999898,"velocity":0.7244094488188977,"duration":0.17279403124999249},{"name":"F3","midi":53,"time":197.82343049999898,"velocity":0.7244094488188977,"duration":0.17279403124999249},{"name":"F5","midi":77,"time":197.82343049999898,"velocity":0.7244094488188977,"duration":0.08455878124999572},{"name":"E5","midi":76,"time":197.91166574999897,"velocity":0.7244094488188977,"duration":0.08455878124999572},{"name":"E3","midi":52,"time":197.99990099999897,"velocity":0.7244094488188977,"duration":0.17279403124999249},{"name":"F5","midi":77,"time":197.99990099999897,"velocity":0.7244094488188977,"duration":0.08455878124999572},{"name":"E5","midi":76,"time":198.08813624999897,"velocity":0.7244094488188977,"duration":0.08455878124999572},{"name":"F3","midi":53,"time":198.17637149999896,"velocity":0.7244094488188977,"duration":0.17279403124999249},{"name":"D5","midi":74,"time":198.17637149999896,"velocity":0.7244094488188977,"duration":0.17279403124999249},{"name":"G3","midi":55,"time":198.35284199999896,"velocity":0.7244094488188977,"duration":0.17279403124999249},{"name":"E5","midi":76,"time":198.35284199999896,"velocity":0.7244094488188977,"duration":0.17279403124999249},{"name":"A3","midi":57,"time":198.52931249999895,"velocity":0.7244094488188977,"duration":0.17279403124999249},{"name":"F5","midi":77,"time":198.52931249999895,"velocity":0.7244094488188977,"duration":0.349264531249986},{"name":"B3","midi":59,"time":198.70578299999895,"velocity":0.7244094488188977,"duration":0.17279403124999249},{"name":"C4","midi":60,"time":198.88225349999894,"velocity":0.7244094488188977,"duration":0.17279403124999249},{"name":"A4","midi":69,"time":198.88225349999894,"velocity":0.7244094488188977,"duration":0.349264531249986},{"name":"D4","midi":62,"time":199.05872399999893,"velocity":0.7244094488188977,"duration":0.349264531249986},{"name":"E4","midi":64,"time":199.23519449999893,"velocity":0.7244094488188977,"duration":1.4080875312499472},{"name":"G4","midi":67,"time":199.23519449999893,"velocity":0.7244094488188977,"duration":0.349264531249986},{"name":"D4","midi":62,"time":199.41166499999892,"velocity":0.7244094488188977,"duration":0.17279403124999249},{"name":"C4","midi":60,"time":199.5881354999989,"velocity":0.7244094488188977,"duration":0.17279403124999249},{"name":"A4","midi":69,"time":199.5881354999989,"velocity":0.7244094488188977,"duration":0.17279403124999249},{"name":"B3","midi":59,"time":199.7646059999989,"velocity":0.7244094488188977,"duration":0.17279403124999249},{"name":"B4","midi":71,"time":199.7646059999989,"velocity":0.7244094488188977,"duration":0.17279403124999249},{"name":"A3","midi":57,"time":199.9410764999989,"velocity":0.7244094488188977,"duration":0.17279403124999249},{"name":"C5","midi":72,"time":199.9410764999989,"velocity":0.7244094488188977,"duration":0.349264531249986},{"name":"G3","midi":55,"time":200.1175469999989,"velocity":0.7244094488188977,"duration":0.17279403124999249},{"name":"F3","midi":53,"time":200.2940174999989,"velocity":0.7244094488188977,"duration":0.17279403124999249},{"name":"E5","midi":76,"time":200.2940174999989,"velocity":0.7244094488188977,"duration":0.349264531249986},{"name":"E3","midi":52,"time":200.47048799999888,"velocity":0.7244094488188977,"duration":0.17279403124999249},{"name":"D3","midi":50,"time":200.64695849999887,"velocity":0.7244094488188977,"duration":0.17279403124999249},{"name":"E4","midi":64,"time":200.64695849999887,"velocity":0.7244094488188977,"duration":0.349264531249986},{"name":"F4","midi":65,"time":200.64695849999887,"velocity":0.7244094488188977,"duration":0.349264531249986},{"name":"C3","midi":48,"time":200.82342899999887,"velocity":0.7244094488188977,"duration":0.17279403124999249},{"name":"B2","midi":47,"time":200.99989949999886,"velocity":0.7244094488188977,"duration":0.17279403124999249},{"name":"D4","midi":62,"time":200.99989949999886,"velocity":0.7244094488188977,"duration":0.7022055312499731},{"name":"D5","midi":74,"time":200.99989949999886,"velocity":0.7244094488188977,"duration":0.349264531249986},{"name":"A2","midi":45,"time":201.17636999999885,"velocity":0.7244094488188977,"duration":0.17279403124999249},{"name":"G2","midi":43,"time":201.35284049999885,"velocity":0.7244094488188977,"duration":0.17279403124999249},{"name":"G4","midi":67,"time":201.35284049999885,"velocity":0.7244094488188977,"duration":0.349264531249986},{"name":"F2","midi":41,"time":201.52931099999884,"velocity":0.7244094488188977,"duration":0.17279403124999249},{"name":"E2","midi":40,"time":201.70578149999884,"velocity":0.7244094488188977,"duration":0.17279403124999249},{"name":"F4","midi":65,"time":201.70578149999884,"velocity":0.7244094488188977,"duration":0.5257350312499796},{"name":"B4","midi":71,"time":201.70578149999884,"velocity":0.7244094488188977,"duration":0.349264531249986},{"name":"D2","midi":38,"time":201.88225199999883,"velocity":0.7244094488188977,"duration":0.17279403124999249},{"name":"C2","midi":36,"time":202.05872249999882,"velocity":0.7244094488188977,"duration":1.0569847656249465},{"name":"C5","midi":72,"time":202.05872249999882,"velocity":0.7244094488188977,"duration":0.698529062499972},{"name":"F4","midi":65,"time":202.23519299999882,"velocity":0.7244094488188977,"duration":0.17279403124999249},{"name":"E4","midi":64,"time":202.4116634999988,"velocity":0.7244094488188977,"duration":0.17279403124999249},{"name":"D4","midi":62,"time":202.5881339999988,"velocity":0.7244094488188977,"duration":0.17279403124999249},{"name":"E4","midi":64,"time":202.7646044999988,"velocity":0.7244094488188977,"duration":0.349264531249986},{"name":"A#4","midi":70,"time":202.9410749999988,"velocity":0.7244094488188977,"duration":0.17279403124999249},{"name":"C4","midi":60,"time":203.11754549999876,"velocity":0.7244094488188977,"duration":0.349264531249986},{"name":"A4","midi":69,"time":203.11754549999876,"velocity":0.7244094488188977,"duration":0.17279403124999249},{"name":"G4","midi":67,"time":203.29401599999875,"velocity":0.7244094488188977,"duration":0.17279403124999249},{"name":"F4","midi":65,"time":203.47048649999874,"velocity":0.7244094488188977,"duration":0.349264531249986},{"name":"A4","midi":69,"time":203.47048649999874,"velocity":0.7244094488188977,"duration":0.17279403124999249},{"name":"B4","midi":71,"time":203.64695699999874,"velocity":0.7244094488188977,"duration":0.17279403124999249},{"name":"C4","midi":60,"time":203.82342749999873,"velocity":0.7244094488188977,"duration":0.349264531249986},{"name":"C5","midi":72,"time":203.82342749999873,"velocity":0.7244094488188977,"duration":0.17279403124999249},{"name":"D5","midi":74,"time":203.99989799999872,"velocity":0.7244094488188977,"duration":0.17279403124999249},{"name":"A3","midi":57,"time":204.17636849999872,"velocity":0.7244094488188977,"duration":0.349264531249986},{"name":"C5","midi":72,"time":204.17636849999872,"velocity":0.7244094488188977,"duration":0.17279403124999249},{"name":"B4","midi":71,"time":204.3528389999987,"velocity":0.7244094488188977,"duration":0.17279403124999249},{"name":"F4","midi":65,"time":204.5293094999987,"velocity":0.7244094488188977,"duration":0.349264531249986},{"name":"C5","midi":72,"time":204.5293094999987,"velocity":0.7244094488188977,"duration":0.17279403124999249},{"name":"A4","midi":69,"time":204.7057799999987,"velocity":0.7244094488188977,"duration":0.17279403124999249},{"name":"E4","midi":64,"time":204.8822504999987,"velocity":0.7244094488188977,"duration":0.349264531249986},{"name":"G4","midi":67,"time":204.8822504999987,"velocity":0.7244094488188977,"duration":0.17279403124999249},{"name":"B4","midi":71,"time":205.05872099999868,"velocity":0.7244094488188977,"duration":0.17279403124999249},{"name":"C4","midi":60,"time":205.23519149999868,"velocity":0.7244094488188977,"duration":0.349264531249986},{"name":"C5","midi":72,"time":205.23519149999868,"velocity":0.7244094488188977,"duration":0.17279403124999249},{"name":"D5","midi":74,"time":205.41166199999867,"velocity":0.7244094488188977,"duration":0.17279403124999249},{"name":"G3","midi":55,"time":205.58813249999866,"velocity":0.7244094488188977,"duration":0.349264531249986},{"name":"C5","midi":72,"time":205.58813249999866,"velocity":0.7244094488188977,"duration":0.17279403124999249},{"name":"B4","midi":71,"time":205.76460299999866,"velocity":0.7244094488188977,"duration":0.17279403124999249},{"name":"E4","midi":64,"time":205.94107349999865,"velocity":0.7244094488188977,"duration":0.349264531249986},{"name":"C5","midi":72,"time":205.94107349999865,"velocity":0.7244094488188977,"duration":0.17279403124999249},{"name":"G4","midi":67,"time":206.11754399999865,"velocity":0.7244094488188977,"duration":0.17279403124999249},{"name":"D4","midi":62,"time":206.29401449999864,"velocity":0.7244094488188977,"duration":0.349264531249986},{"name":"F4","midi":65,"time":206.29401449999864,"velocity":0.7244094488188977,"duration":0.17279403124999249},{"name":"C5","midi":72,"time":206.47048499999863,"velocity":0.7244094488188977,"duration":0.17279403124999249},{"name":"B3","midi":59,"time":206.64695549999863,"velocity":0.7244094488188977,"duration":0.349264531249986},{"name":"D5","midi":74,"time":206.64695549999863,"velocity":0.7244094488188977,"duration":0.17279403124999249},{"name":"E5","midi":76,"time":206.82342599999862,"velocity":0.7244094488188977,"duration":0.17279403124999249},{"name":"G3","midi":55,"time":206.9998964999986,"velocity":0.7244094488188977,"duration":0.349264531249986},{"name":"D5","midi":74,"time":206.9998964999986,"velocity":0.7244094488188977,"duration":0.17279403124999249},{"name":"C5","midi":72,"time":207.1763669999986,"velocity":0.7244094488188977,"duration":0.17279403124999249},{"name":"B3","midi":59,"time":207.3528374999986,"velocity":0.7244094488188977,"duration":0.349264531249986},{"name":"D5","midi":74,"time":207.3528374999986,"velocity":0.7244094488188977,"duration":0.17279403124999249},{"name":"F4","midi":65,"time":207.5293079999986,"velocity":0.7244094488188977,"duration":0.17279403124999249},{"name":"C4","midi":60,"time":207.7057784999986,"velocity":0.7244094488188977,"duration":0.349264531249986},{"name":"E4","midi":64,"time":207.7057784999986,"velocity":0.7244094488188977,"duration":0.17279403124999249},{"name":"D4","midi":62,"time":207.88224899999858,"velocity":0.7244094488188977,"duration":0.17279403124999249},{"name":"G3","midi":55,"time":208.05871949999857,"velocity":0.7244094488188977,"duration":0.349264531249986},{"name":"E4","midi":64,"time":208.05871949999857,"velocity":0.7244094488188977,"duration":0.17279403124999249},{"name":"G4","midi":67,"time":208.23518999999857,"velocity":0.7244094488188977,"duration":0.17279403124999249},{"name":"E3","midi":52,"time":208.41166049999856,"velocity":0.7244094488188977,"duration":0.349264531249986},{"name":"C5","midi":72,"time":208.41166049999856,"velocity":0.7244094488188977,"duration":0.17279403124999249},{"name":"B4","midi":71,"time":208.58813099999855,"velocity":0.7244094488188977,"duration":0.17279403124999249},{"name":"C3","midi":48,"time":208.76460149999855,"velocity":0.7244094488188977,"duration":0.349264531249986},{"name":"C5","midi":72,"time":208.76460149999855,"velocity":0.7244094488188977,"duration":0.17279403124999249},{"name":"E5","midi":76,"time":208.94107199999854,"velocity":0.7244094488188977,"duration":0.17279403124999249},{"name":"F3","midi":53,"time":209.11754249999854,"velocity":0.7244094488188977,"duration":0.17279403124999249},{"name":"A5","midi":81,"time":209.11754249999854,"velocity":0.7244094488188977,"duration":0.349264531249986},{"name":"E3","midi":52,"time":209.29401299999853,"velocity":0.7244094488188977,"duration":0.17279403124999249},{"name":"F3","midi":53,"time":209.47048349999852,"velocity":0.7244094488188977,"duration":0.17279403124999249},{"name":"D5","midi":74,"time":209.47048349999852,"velocity":0.7244094488188977,"duration":0.44117624999998384},{"name":"A3","midi":57,"time":209.64695399999852,"velocity":0.7244094488188977,"duration":0.17279403124999249},{"name":"D4","midi":62,"time":209.8234244999985,"velocity":0.7244094488188977,"duration":0.349264531249986},{"name":"A4","midi":69,"time":209.9998949999985,"velocity":0.7244094488188977,"duration":0.17279403124999249},{"name":"F3","midi":53,"time":210.1763654999985,"velocity":0.7244094488188977,"duration":0.44117624999998384},{"name":"B4","midi":71,"time":210.1763654999985,"velocity":0.7244094488188977,"duration":0.17279403124999249},{"name":"D5","midi":74,"time":210.3528359999985,"velocity":0.7244094488188977,"duration":0.17279403124999249},{"name":"G5","midi":79,"time":210.52930649999848,"velocity":0.7244094488188977,"duration":0.349264531249986},{"name":"D3","midi":50,"time":210.70577699999848,"velocity":0.7244094488188977,"duration":0.17279403124999249},{"name":"E3","midi":52,"time":210.88224749999847,"velocity":0.7244094488188977,"duration":0.17279403124999249},{"name":"C5","midi":72,"time":210.88224749999847,"velocity":0.7244094488188977,"duration":0.44117624999998384},{"name":"G3","midi":55,"time":211.05871799999846,"velocity":0.7244094488188977,"duration":0.17279403124999249},{"name":"C4","midi":60,"time":211.23518849999846,"velocity":0.7244094488188977,"duration":0.349264531249986},{"name":"G4","midi":67,"time":211.41165899999845,"velocity":0.7244094488188977,"duration":0.17279403124999249},{"name":"E3","midi":52,"time":211.58812949999844,"velocity":0.7244094488188977,"duration":0.44117624999998384},{"name":"A4","midi":69,"time":211.58812949999844,"velocity":0.7244094488188977,"duration":0.17279403124999249},{"name":"C5","midi":72,"time":211.76459999999844,"velocity":0.7244094488188977,"duration":0.17279403124999249},{"name":"F5","midi":77,"time":211.94107049999843,"velocity":0.7244094488188977,"duration":0.17279403124999249},{"name":"C3","midi":48,"time":212.11754099999843,"velocity":0.7244094488188977,"duration":0.17279403124999249},{"name":"E5","midi":76,"time":212.11754099999843,"velocity":0.7244094488188977,"duration":0.17279403124999249},{"name":"D3","midi":50,"time":212.29401149999842,"velocity":0.7244094488188977,"duration":0.17279403124999249},{"name":"D5","midi":74,"time":212.29401149999842,"velocity":0.7244094488188977,"duration":0.17279403124999249},{"name":"F3","midi":53,"time":212.4704819999984,"velocity":0.7244094488188977,"duration":0.17279403124999249},{"name":"C5","midi":72,"time":212.4704819999984,"velocity":0.7244094488188977,"duration":0.17279403124999249},{"name":"G3","midi":55,"time":212.6469524999984,"velocity":0.7244094488188977,"duration":0.17279403124999249},{"name":"B4","midi":71,"time":212.6469524999984,"velocity":0.7244094488188977,"duration":0.17279403124999249},{"name":"F3","midi":53,"time":212.8234229999984,"velocity":0.7244094488188977,"duration":0.17279403124999249},{"name":"D5","midi":74,"time":212.8234229999984,"velocity":0.7244094488188977,"duration":0.17279403124999249},{"name":"G3","midi":55,"time":212.9998934999984,"velocity":0.7244094488188977,"duration":0.17279403124999249},{"name":"B4","midi":71,"time":212.9998934999984,"velocity":0.7244094488188977,"duration":0.17279403124999249},{"name":"B3","midi":59,"time":213.1763639999984,"velocity":0.7244094488188977,"duration":0.17279403124999249},{"name":"G4","midi":67,"time":213.1763639999984,"velocity":0.7244094488188977,"duration":0.17279403124999249},{"name":"C4","midi":60,"time":213.35283449999838,"velocity":0.7244094488188977,"duration":0.698529062499972},{"name":"E4","midi":64,"time":213.35283449999838,"velocity":0.7244094488188977,"duration":0.17279403124999249},{"name":"F4","midi":65,"time":213.52930499999837,"velocity":0.7244094488188977,"duration":0.17279403124999249},{"name":"C3","midi":48,"time":213.70577549999837,"velocity":0.7244094488188977,"duration":0.5257350312499796},{"name":"G4","midi":67,"time":213.70577549999837,"velocity":0.7244094488188977,"duration":0.17279403124999249},{"name":"E4","midi":64,"time":213.88224599999836,"velocity":0.7244094488188977,"duration":0.17279403124999249},{"name":"C4","midi":60,"time":214.05871649999835,"velocity":0.7244094488188977,"duration":0.349264531249986},{"name":"E4","midi":64,"time":214.23518699999835,"velocity":0.7244094488188977,"duration":0.17279403124999249},{"name":"C4","midi":60,"time":214.41165749999834,"velocity":0.7244094488188977,"duration":0.17279403124999249},{"name":"E5","midi":76,"time":214.41165749999834,"velocity":0.7244094488188977,"duration":0.349264531249986},{"name":"A3","midi":57,"time":214.58812799999833,"velocity":0.7244094488188977,"duration":0.17279403124999249},{"name":"F3","midi":53,"time":214.76459849999833,"velocity":0.7244094488188977,"duration":0.17279403124999249},{"name":"D5","midi":74,"time":214.76459849999833,"velocity":0.7244094488188977,"duration":0.698529062499972},{"name":"G#3","midi":56,"time":214.94106899999832,"velocity":0.7244094488188977,"duration":0.17279403124999249},{"name":"A3","midi":57,"time":215.11753949999832,"velocity":0.7244094488188977,"duration":0.17279403124999249},{"name":"A4","midi":69,"time":215.11753949999832,"velocity":0.7244094488188977,"duration":0.349264531249986},{"name":"B3","midi":59,"time":215.2940099999983,"velocity":0.7244094488188977,"duration":0.17279403124999249},{"name":"A3","midi":57,"time":215.4704804999983,"velocity":0.7244094488188977,"duration":0.17279403124999249},{"name":"F4","midi":65,"time":215.4704804999983,"velocity":0.7244094488188977,"duration":0.349264531249986},{"name":"G#3","midi":56,"time":215.6469509999983,"velocity":0.7244094488188977,"duration":0.17279403124999249},{"name":"A3","midi":57,"time":215.8234214999983,"velocity":0.7244094488188977,"duration":0.17279403124999249},{"name":"D5","midi":74,"time":215.8234214999983,"velocity":0.7244094488188977,"duration":0.349264531249986},{"name":"F3","midi":53,"time":215.99989199999828,"velocity":0.7244094488188977,"duration":0.17279403124999249},{"name":"E3","midi":52,"time":216.17636249999828,"velocity":0.7244094488188977,"duration":0.17279403124999249},{"name":"C5","midi":72,"time":216.17636249999828,"velocity":0.7244094488188977,"duration":0.698529062499972},{"name":"G#3","midi":56,"time":216.35283299999827,"velocity":0.7244094488188977,"duration":0.17279403124999249},{"name":"A3","midi":57,"time":216.52930349999826,"velocity":0.7244094488188977,"duration":0.17279403124999249},{"name":"A4","midi":69,"time":216.52930349999826,"velocity":0.7244094488188977,"duration":0.349264531249986},{"name":"B3","midi":59,"time":216.70577399999826,"velocity":0.7244094488188977,"duration":0.17279403124999249},{"name":"A3","midi":57,"time":216.88224449999825,"velocity":0.7244094488188977,"duration":0.17279403124999249},{"name":"E4","midi":64,"time":216.88224449999825,"velocity":0.7244094488188977,"duration":0.349264531249986},{"name":"G#3","midi":56,"time":217.05871499999824,"velocity":0.7244094488188977,"duration":0.17279403124999249},{"name":"A3","midi":57,"time":217.23518549999824,"velocity":0.7244094488188977,"duration":0.17279403124999249},{"name":"C5","midi":72,"time":217.23518549999824,"velocity":0.7244094488188977,"duration":0.349264531249986},{"name":"E3","midi":52,"time":217.41165599999823,"velocity":0.7244094488188977,"duration":0.17279403124999249},{"name":"D3","midi":50,"time":217.58812649999822,"velocity":0.7244094488188977,"duration":0.17279403124999249},{"name":"B4","midi":71,"time":217.58812649999822,"velocity":0.7244094488188977,"duration":0.698529062499972},{"name":"A3","midi":57,"time":217.76459699999822,"velocity":0.7244094488188977,"duration":0.17279403124999249},{"name":"B3","midi":59,"time":217.9410674999982,"velocity":0.7244094488188977,"duration":0.17279403124999249},{"name":"G#4","midi":68,"time":217.9410674999982,"velocity":0.7244094488188977,"duration":0.349264531249986},{"name":"C4","midi":60,"time":218.1175379999982,"velocity":0.7244094488188977,"duration":0.17279403124999249},{"name":"B3","midi":59,"time":218.2940084999982,"velocity":0.7244094488188977,"duration":0.17279403124999249},{"name":"D4","midi":62,"time":218.2940084999982,"velocity":0.7244094488188977,"duration":0.349264531249986},{"name":"A3","midi":57,"time":218.4704789999982,"velocity":0.7244094488188977,"duration":0.17279403124999249},{"name":"B3","midi":59,"time":218.6469494999982,"velocity":0.7244094488188977,"duration":0.17279403124999249},{"name":"G#4","midi":68,"time":218.6469494999982,"velocity":0.7244094488188977,"duration":0.349264531249986},{"name":"D3","midi":50,"time":218.82341999999818,"velocity":0.7244094488188977,"duration":0.17279403124999249},{"name":"C3","midi":48,"time":218.99989049999817,"velocity":0.7244094488188977,"duration":0.17279403124999249},{"name":"A4","midi":69,"time":218.99989049999817,"velocity":0.7244094488188977,"duration":0.5147056249999764},{"name":"B2","midi":47,"time":219.17636099999817,"velocity":0.7244094488188977,"duration":0.17279403124999249},{"name":"C3","midi":48,"time":219.35283149999816,"velocity":0.7244094488188977,"duration":0.17279403124999249},{"name":"E4","midi":64,"time":219.35283149999816,"velocity":0.7244094488188977,"duration":0.349264531249986},{"name":"E3","midi":52,"time":219.52930199999815,"velocity":0.7244094488188977,"duration":0.17279403124999249},{"name":"A3","midi":57,"time":219.70577249999815,"velocity":0.7244094488188977,"duration":0.17279403124999249},{"name":"C4","midi":60,"time":219.70577249999815,"velocity":0.7244094488188977,"duration":0.2941174999999987},{"name":"E3","midi":52,"time":219.88224299999814,"velocity":0.7244094488188977,"duration":0.17279403124999249},{"name":"C4","midi":60,"time":220.05871349999813,"velocity":0.7244094488188977,"duration":0.17279403124999249},{"name":"A4","midi":69,"time":220.05871349999813,"velocity":0.7244094488188977,"duration":0.349264531249986},{"name":"A3","midi":57,"time":220.23518399999813,"velocity":0.7244094488188977,"duration":0.17279403124999249},{"name":"E4","midi":64,"time":220.41165449999812,"velocity":0.7244094488188977,"duration":0.17279403124999249},{"name":"B4","midi":71,"time":220.41165449999812,"velocity":0.7244094488188977,"duration":0.08455878124999572},{"name":"A4","midi":69,"time":220.49988974999812,"velocity":0.7244094488188977,"duration":0.08455878124999572},{"name":"B3","midi":59,"time":220.58812499999812,"velocity":0.7244094488188977,"duration":0.17279403124999249},{"name":"B4","midi":71,"time":220.58812499999812,"velocity":0.7244094488188977,"duration":0.08455878124999572},{"name":"A4","midi":69,"time":220.6763602499981,"velocity":0.7244094488188977,"duration":0.08455878124999572},{"name":"C4","midi":60,"time":220.7645954999981,"velocity":0.7244094488188977,"duration":0.17279403124999249},{"name":"G#4","midi":68,"time":220.7645954999981,"velocity":0.7244094488188977,"duration":0.5147056249999764},{"name":"D4","midi":62,"time":220.9410659999981,"velocity":0.7244094488188977,"duration":0.17279403124999249},{"name":"G#3","midi":56,"time":221.1175364999981,"velocity":0.7244094488188977,"duration":0.17279403124999249},{"name":"F4","midi":65,"time":221.2940069999981,"velocity":0.7244094488188977,"duration":0.17279403124999249},{"name":"E4","midi":64,"time":221.47047749999808,"velocity":0.7244094488188977,"duration":0.17279403124999249},{"name":"B4","midi":71,"time":221.47047749999808,"velocity":0.7244094488188977,"duration":0.349264531249986},{"name":"D4","midi":62,"time":221.64694799999808,"velocity":0.7244094488188977,"duration":0.17279403124999249},{"name":"C4","midi":60,"time":221.82341849999807,"velocity":0.7244094488188977,"duration":0.17279403124999249},{"name":"C5","midi":72,"time":221.82341849999807,"velocity":0.7244094488188977,"duration":0.08455878124999572},{"name":"B4","midi":71,"time":221.91165374999807,"velocity":0.7244094488188977,"duration":0.08455878124999572},{"name":"E4","midi":64,"time":221.99988899999806,"velocity":0.7244094488188977,"duration":0.17279403124999249},{"name":"C5","midi":72,"time":221.99988899999806,"velocity":0.7244094488188977,"duration":0.08455878124999572},{"name":"B4","midi":71,"time":222.08812424999806,"velocity":0.7244094488188977,"duration":0.08455878124999572},{"name":"F#4","midi":66,"time":222.17635949999806,"velocity":0.7244094488188977,"duration":0.17279403124999249},{"name":"A4","midi":69,"time":222.17635949999806,"velocity":0.7244094488188977,"duration":0.5147056249999764},{"name":"G#4","midi":68,"time":222.35282999999805,"velocity":0.7244094488188977,"duration":0.17279403124999249},{"name":"A3","midi":57,"time":222.52930049999804,"velocity":0.7244094488188977,"duration":0.17279403124999249},{"name":"B3","midi":59,"time":222.70577099999804,"velocity":0.7244094488188977,"duration":0.17279403124999249},{"name":"A3","midi":57,"time":222.88224149999803,"velocity":0.7244094488188977,"duration":0.17279403124999249},{"name":"E4","midi":64,"time":222.88224149999803,"velocity":0.7244094488188977,"duration":0.349264531249986},{"name":"C5","midi":72,"time":222.88224149999803,"velocity":0.7244094488188977,"duration":0.349264531249986},{"name":"G3","midi":55,"time":223.05871199999802,"velocity":0.7244094488188977,"duration":0.17279403124999249},{"name":"F3","midi":53,"time":223.23518249999802,"velocity":0.7244094488188977,"duration":0.17279403124999249},{"name":"E4","midi":64,"time":223.23518249999802,"velocity":0.7244094488188977,"duration":0.349264531249986},{"name":"C5","midi":72,"time":223.23518249999802,"velocity":0.7244094488188977,"duration":0.349264531249986},{"name":"A3","midi":57,"time":223.411652999998,"velocity":0.7244094488188977,"duration":0.17279403124999249},{"name":"B3","midi":59,"time":223.588123499998,"velocity":0.7244094488188977,"duration":0.17279403124999249},{"name":"D#4","midi":63,"time":223.588123499998,"velocity":0.7244094488188977,"duration":0.5147056249999764},{"name":"B4","midi":71,"time":223.588123499998,"velocity":0.7244094488188977,"duration":0.5147056249999764},{"name":"C4","midi":60,"time":223.764593999998,"velocity":0.7244094488188977,"duration":0.17279403124999249},{"name":"D#3","midi":51,"time":223.941064499998,"velocity":0.7244094488188977,"duration":0.17279403124999249},{"name":"C4","midi":60,"time":224.11753499999799,"velocity":0.7244094488188977,"duration":0.17279403124999249},{"name":"B3","midi":59,"time":224.29400549999798,"velocity":0.7244094488188977,"duration":0.17279403124999249},{"name":"F#4","midi":66,"time":224.29400549999798,"velocity":0.7244094488188977,"duration":0.349264531249986},{"name":"A4","midi":69,"time":224.29400549999798,"velocity":0.7244094488188977,"duration":0.349264531249986},{"name":"A3","midi":57,"time":224.47047599999797,"velocity":0.7244094488188977,"duration":0.17279403124999249},{"name":"G3","midi":55,"time":224.64694649999797,"velocity":0.7244094488188977,"duration":0.17279403124999249},{"name":"F#4","midi":66,"time":224.64694649999797,"velocity":0.7244094488188977,"duration":0.349264531249986},{"name":"A4","midi":69,"time":224.64694649999797,"velocity":0.7244094488188977,"duration":0.349264531249986},{"name":"B3","midi":59,"time":224.82341699999796,"velocity":0.7244094488188977,"duration":0.17279403124999249},{"name":"C#4","midi":61,"time":224.99988749999795,"velocity":0.7244094488188977,"duration":0.17279403124999249},{"name":"E4","midi":64,"time":224.99988749999795,"velocity":0.7244094488188977,"duration":0.5147056249999764},{"name":"G4","midi":67,"time":224.99988749999795,"velocity":0.7244094488188977,"duration":0.5147056249999764},{"name":"D#4","midi":63,"time":225.17635799999795,"velocity":0.7244094488188977,"duration":0.17279403124999249},{"name":"E3","midi":52,"time":225.35282849999794,"velocity":0.7244094488188977,"duration":0.17279403124999249},{"name":"F3","midi":53,"time":225.52929899999793,"velocity":0.7244094488188977,"duration":0.17279403124999249},{"name":"E3","midi":52,"time":225.70576949999793,"velocity":0.7244094488188977,"duration":0.17279403124999249},{"name":"G4","midi":67,"time":225.70576949999793,"velocity":0.7244094488188977,"duration":0.349264531249986},{"name":"B4","midi":71,"time":225.70576949999793,"velocity":0.7244094488188977,"duration":0.349264531249986},{"name":"D3","midi":50,"time":225.88223999999792,"velocity":0.7244094488188977,"duration":0.17279403124999249},{"name":"C#3","midi":49,"time":226.05871049999791,"velocity":0.7244094488188977,"duration":0.17279403124999249},{"name":"G4","midi":67,"time":226.05871049999791,"velocity":0.7244094488188977,"duration":0.349264531249986},{"name":"B4","midi":71,"time":226.05871049999791,"velocity":0.7244094488188977,"duration":0.349264531249986},{"name":"E3","midi":52,"time":226.2351809999979,"velocity":0.7244094488188977,"duration":0.17279403124999249},{"name":"F#3","midi":54,"time":226.4116514999979,"velocity":0.7244094488188977,"duration":0.17279403124999249},{"name":"F#4","midi":66,"time":226.4116514999979,"velocity":0.7244094488188977,"duration":0.5147056249999764},{"name":"A#4","midi":70,"time":226.4116514999979,"velocity":0.7244094488188977,"duration":0.5147056249999764},{"name":"G3","midi":55,"time":226.5881219999979,"velocity":0.7244094488188977,"duration":0.17279403124999249},{"name":"A#2","midi":46,"time":226.7645924999979,"velocity":0.7244094488188977,"duration":0.17279403124999249},{"name":"G3","midi":55,"time":226.94106299999788,"velocity":0.7244094488188977,"duration":0.17279403124999249},{"name":"F#3","midi":54,"time":227.11753349999788,"velocity":0.7244094488188977,"duration":0.17279403124999249},{"name":"E4","midi":64,"time":227.11753349999788,"velocity":0.7244094488188977,"duration":0.349264531249986},{"name":"C#5","midi":73,"time":227.11753349999788,"velocity":0.7244094488188977,"duration":0.349264531249986},{"name":"E3","midi":52,"time":227.29400399999787,"velocity":0.7244094488188977,"duration":0.17279403124999249},{"name":"D3","midi":50,"time":227.47047449999786,"velocity":0.7244094488188977,"duration":0.17279403124999249},{"name":"E4","midi":64,"time":227.47047449999786,"velocity":0.7244094488188977,"duration":0.349264531249986},{"name":"C#5","midi":73,"time":227.47047449999786,"velocity":0.7244094488188977,"duration":0.349264531249986},{"name":"F#3","midi":54,"time":227.64694499999786,"velocity":0.7244094488188977,"duration":0.17279403124999249},{"name":"G#3","midi":56,"time":227.82341549999785,"velocity":0.7244094488188977,"duration":0.17279403124999249},{"name":"D4","midi":62,"time":227.82341549999785,"velocity":0.7244094488188977,"duration":0.5147056249999764},{"name":"B4","midi":71,"time":227.82341549999785,"velocity":0.7244094488188977,"duration":0.5147056249999764},{"name":"A#3","midi":58,"time":227.99988599999784,"velocity":0.7244094488188977,"duration":0.17279403124999249},{"name":"B2","midi":47,"time":228.17635649999784,"velocity":0.7244094488188977,"duration":0.17279403124999249},{"name":"C#3","midi":49,"time":228.35282699999783,"velocity":0.7244094488188977,"duration":0.17279403124999249},{"name":"B2","midi":47,"time":228.52929749999782,"velocity":0.7244094488188977,"duration":0.17279403124999249},{"name":"F#4","midi":66,"time":228.52929749999782,"velocity":0.7244094488188977,"duration":0.349264531249986},{"name":"D5","midi":74,"time":228.52929749999782,"velocity":0.7244094488188977,"duration":0.349264531249986},{"name":"A2","midi":45,"time":228.70576799999782,"velocity":0.7244094488188977,"duration":0.17279403124999249},{"name":"G#2","midi":44,"time":228.8822384999978,"velocity":0.7244094488188977,"duration":0.17279403124999249},{"name":"F#4","midi":66,"time":228.8822384999978,"velocity":0.7244094488188977,"duration":0.349264531249986},{"name":"D5","midi":74,"time":228.8822384999978,"velocity":0.7244094488188977,"duration":0.349264531249986},{"name":"B2","midi":47,"time":229.0587089999978,"velocity":0.7244094488188977,"duration":0.17279403124999249},{"name":"C#3","midi":49,"time":229.2351794999978,"velocity":0.7244094488188977,"duration":0.17279403124999249},{"name":"F4","midi":65,"time":229.2351794999978,"velocity":0.7244094488188977,"duration":0.5147056249999764},{"name":"C#5","midi":73,"time":229.2351794999978,"velocity":0.7244094488188977,"duration":0.5147056249999764},{"name":"D3","midi":50,"time":229.4116499999978,"velocity":0.7244094488188977,"duration":0.17279403124999249},{"name":"F2","midi":41,"time":229.58812049999779,"velocity":0.7244094488188977,"duration":0.17279403124999249},{"name":"G#2","midi":44,"time":229.76459099999778,"velocity":0.7244094488188977,"duration":0.17279403124999249},{"name":"F#2","midi":42,"time":229.94106149999777,"velocity":0.7244094488188977,"duration":0.17279403124999249},{"name":"G#4","midi":68,"time":229.94106149999777,"velocity":0.7244094488188977,"duration":0.349264531249986},{"name":"B4","midi":71,"time":229.94106149999777,"velocity":0.7244094488188977,"duration":0.349264531249986},{"name":"F2","midi":41,"time":230.11753199999777,"velocity":0.7244094488188977,"duration":0.17279403124999249},{"name":"F#2","midi":42,"time":230.29400249999776,"velocity":0.7244094488188977,"duration":0.17279403124999249},{"name":"G#4","midi":68,"time":230.29400249999776,"velocity":0.7244094488188977,"duration":0.349264531249986},{"name":"B4","midi":71,"time":230.29400249999776,"velocity":0.7244094488188977,"duration":0.349264531249986},{"name":"C#2","midi":37,"time":230.47047299999775,"velocity":0.7244094488188977,"duration":0.17279403124999249},{"name":"F#2","midi":42,"time":230.64694349999775,"velocity":0.7244094488188977,"duration":0.17279403124999249},{"name":"F#4","midi":66,"time":230.64694349999775,"velocity":0.7244094488188977,"duration":0.349264531249986},{"name":"A#4","midi":70,"time":230.64694349999775,"velocity":0.7244094488188977,"duration":0.349264531249986},{"name":"G#2","midi":44,"time":230.82341399999774,"velocity":0.7244094488188977,"duration":0.17279403124999249},{"name":"A#2","midi":46,"time":230.99988449999773,"velocity":0.7244094488188977,"duration":0.17279403124999249},{"name":"F#2","midi":42,"time":231.17635499999773,"velocity":0.7244094488188977,"duration":0.17279403124999249},{"name":"F#5","midi":78,"time":231.17635499999773,"velocity":0.7244094488188977,"duration":0.17279403124999249},{"name":"B2","midi":47,"time":231.35282549999772,"velocity":0.7244094488188977,"duration":0.349264531249986},{"name":"E5","midi":76,"time":231.35282549999772,"velocity":0.7244094488188977,"duration":0.17279403124999249},{"name":"D5","midi":74,"time":231.52929599999771,"velocity":0.7244094488188977,"duration":0.17279403124999249},{"name":"C#3","midi":49,"time":231.7057664999977,"velocity":0.7244094488188977,"duration":0.08455878124999572},{"name":"C#5","midi":73,"time":231.7057664999977,"velocity":0.7244094488188977,"duration":0.17279403124999249},{"name":"B2","midi":47,"time":231.7940017499977,"velocity":0.7244094488188977,"duration":0.08455878124999572},{"name":"C#3","midi":49,"time":231.8822369999977,"velocity":0.7244094488188977,"duration":0.08455878124999572},{"name":"E5","midi":76,"time":231.8822369999977,"velocity":0.7244094488188977,"duration":0.17279403124999249},{"name":"B2","midi":47,"time":231.9704722499977,"velocity":0.7244094488188977,"duration":0.08455878124999572},{"name":"A#2","midi":46,"time":232.0587074999977,"velocity":0.7244094488188977,"duration":0.5147056249999764},{"name":"F#5","midi":78,"time":232.0587074999977,"velocity":0.7244094488188977,"duration":0.17279403124999249},{"name":"G5","midi":79,"time":232.2351779999977,"velocity":0.7244094488188977,"duration":0.17279403124999249},{"name":"A#4","midi":70,"time":232.41164849999768,"velocity":0.7244094488188977,"duration":0.17279403124999249},{"name":"G5","midi":79,"time":232.58811899999768,"velocity":0.7244094488188977,"duration":0.17279403124999249},{"name":"C#3","midi":49,"time":232.76458949999767,"velocity":0.7244094488188977,"duration":0.349264531249986},{"name":"F#5","midi":78,"time":232.76458949999767,"velocity":0.7244094488188977,"duration":0.17279403124999249},{"name":"E5","midi":76,"time":232.94105999999766,"velocity":0.7244094488188977,"duration":0.17279403124999249},{"name":"D3","midi":50,"time":233.11753049999766,"velocity":0.7244094488188977,"duration":0.08455878124999572},{"name":"D5","midi":74,"time":233.11753049999766,"velocity":0.7244094488188977,"duration":0.17279403124999249},{"name":"C#3","midi":49,"time":233.20576574999765,"velocity":0.7244094488188977,"duration":0.08455878124999572},{"name":"D3","midi":50,"time":233.29400099999765,"velocity":0.7244094488188977,"duration":0.08455878124999572},{"name":"F#5","midi":78,"time":233.29400099999765,"velocity":0.7244094488188977,"duration":0.17279403124999249},{"name":"C#3","midi":49,"time":233.38223624999765,"velocity":0.7244094488188977,"duration":0.08455878124999572},{"name":"B2","midi":47,"time":233.47047149999764,"velocity":0.7244094488188977,"duration":0.5147056249999764},{"name":"G#5","midi":80,"time":233.47047149999764,"velocity":0.7244094488188977,"duration":0.17279403124999249},{"name":"A#5","midi":82,"time":233.64694199999764,"velocity":0.7244094488188977,"duration":0.17279403124999249},{"name":"B4","midi":71,"time":233.82341249999763,"velocity":0.7244094488188977,"duration":0.17279403124999249},{"name":"A5","midi":81,"time":233.99988299999762,"velocity":0.7244094488188977,"duration":0.17279403124999249},{"name":"D3","midi":50,"time":234.17635349999762,"velocity":0.7244094488188977,"duration":0.349264531249986},{"name":"G5","midi":79,"time":234.17635349999762,"velocity":0.7244094488188977,"duration":0.17279403124999249},{"name":"F#5","midi":78,"time":234.3528239999976,"velocity":0.7244094488188977,"duration":0.17279403124999249},{"name":"E3","midi":52,"time":234.5292944999976,"velocity":0.7244094488188977,"duration":0.08455878124999572},{"name":"E5","midi":76,"time":234.5292944999976,"velocity":0.7244094488188977,"duration":0.17279403124999249},{"name":"D3","midi":50,"time":234.6175297499976,"velocity":0.7244094488188977,"duration":0.08455878124999572},{"name":"E3","midi":52,"time":234.7057649999976,"velocity":0.7244094488188977,"duration":0.08455878124999572},{"name":"B4","midi":71,"time":234.7057649999976,"velocity":0.7244094488188977,"duration":0.17279403124999249},{"name":"D3","midi":50,"time":234.7940002499976,"velocity":0.7244094488188977,"duration":0.08455878124999572},{"name":"C#3","midi":49,"time":234.8822354999976,"velocity":0.7244094488188977,"duration":0.17279403124999249},{"name":"E5","midi":76,"time":234.8822354999976,"velocity":0.7244094488188977,"duration":0.17279403124999249},{"name":"D3","midi":50,"time":235.05870599999758,"velocity":0.7244094488188977,"duration":0.17279403124999249},{"name":"F#5","midi":78,"time":235.05870599999758,"velocity":0.7244094488188977,"duration":0.17279403124999249},{"name":"E3","midi":52,"time":235.23517649999758,"velocity":0.7244094488188977,"duration":0.349264531249986},{"name":"G5","midi":79,"time":235.23517649999758,"velocity":0.7244094488188977,"duration":0.8786760312499666},{"name":"C#5","midi":73,"time":235.41164699999757,"velocity":0.7244094488188977,"duration":0.17279403124999249},{"name":"G2","midi":43,"time":235.58811749999757,"velocity":0.7244094488188977,"duration":0.349264531249986},{"name":"D5","midi":74,"time":235.58811749999757,"velocity":0.7244094488188977,"duration":0.17279403124999249},{"name":"E5","midi":76,"time":235.76458799999756,"velocity":0.7244094488188977,"duration":0.17279403124999249},{"name":"F#2","midi":42,"time":235.94105849999755,"velocity":0.7244094488188977,"duration":0.349264531249986},{"name":"A#4","midi":70,"time":235.94105849999755,"velocity":0.7244094488188977,"duration":0.698529062499972},{"name":"G5","midi":79,"time":236.11752899999755,"velocity":0.7244094488188977,"duration":0.17279403124999249},{"name":"A#2","midi":46,"time":236.29399949999754,"velocity":0.7244094488188977,"duration":0.349264531249986},{"name":"F#5","midi":78,"time":236.29399949999754,"velocity":0.7244094488188977,"duration":0.17279403124999249},{"name":"E5","midi":76,"time":236.47046999999753,"velocity":0.7244094488188977,"duration":0.17279403124999249},{"name":"B2","midi":47,"time":236.64694049999753,"velocity":0.7244094488188977,"duration":0.349264531249986},{"name":"D5","midi":74,"time":236.64694049999753,"velocity":0.7244094488188977,"duration":0.8786760312499666},{"name":"A#4","midi":70,"time":236.82341099999752,"velocity":0.7244094488188977,"duration":0.17279403124999249},{"name":"D3","midi":50,"time":236.9998814999975,"velocity":0.7244094488188977,"duration":0.349264531249986},{"name":"B4","midi":71,"time":236.9998814999975,"velocity":0.7244094488188977,"duration":0.17279403124999249},{"name":"F#4","midi":66,"time":237.1763519999975,"velocity":0.7244094488188977,"duration":0.17279403124999249},{"name":"E2","midi":40,"time":237.3528224999975,"velocity":0.7244094488188977,"duration":0.349264531249986},{"name":"G4","midi":67,"time":237.3528224999975,"velocity":0.7244094488188977,"duration":0.698529062499972},{"name":"C#5","midi":73,"time":237.5292929999975,"velocity":0.7244094488188977,"duration":0.17279403124999249},{"name":"C#3","midi":49,"time":237.7057634999975,"velocity":0.7244094488188977,"duration":0.349264531249986},{"name":"E5","midi":76,"time":237.7057634999975,"velocity":0.7244094488188977,"duration":0.17279403124999249},{"name":"B4","midi":71,"time":237.88223399999748,"velocity":0.7244094488188977,"duration":0.17279403124999249},{"name":"F#2","midi":42,"time":238.05870449999748,"velocity":0.7244094488188977,"duration":0.349264531249986},{"name":"A#4","midi":70,"time":238.05870449999748,"velocity":0.7244094488188977,"duration":0.349264531249986},{"name":"G4","midi":67,"time":238.23517499999747,"velocity":0.7244094488188977,"duration":0.17279403124999249},{"name":"A#2","midi":46,"time":238.41164549999746,"velocity":0.7244094488188977,"duration":0.349264531249986},{"name":"F#4","midi":66,"time":238.41164549999746,"velocity":0.7244094488188977,"duration":0.17279403124999249},{"name":"E4","midi":64,"time":238.58811599999746,"velocity":0.7244094488188977,"duration":0.17279403124999249},{"name":"B2","midi":47,"time":238.76458649999745,"velocity":0.7244094488188977,"duration":0.349264531249986},{"name":"D4","midi":62,"time":238.76458649999745,"velocity":0.7244094488188977,"duration":0.17279403124999249},{"name":"C#4","midi":61,"time":238.94105699999744,"velocity":0.7244094488188977,"duration":0.17279403124999249},{"name":"F#2","midi":42,"time":239.11752749999744,"velocity":0.7244094488188977,"duration":0.349264531249986},{"name":"D4","midi":62,"time":239.11752749999744,"velocity":0.7244094488188977,"duration":0.17279403124999249},{"name":"F#4","midi":66,"time":239.29399799999743,"velocity":0.7244094488188977,"duration":0.17279403124999249},{"name":"D3","midi":50,"time":239.47046849999742,"velocity":0.7244094488188977,"duration":0.349264531249986},{"name":"B3","midi":59,"time":239.47046849999742,"velocity":0.7244094488188977,"duration":0.8786760312499666},{"name":"F#4","midi":66,"time":239.64693899999742,"velocity":0.7244094488188977,"duration":0.17279403124999249},{"name":"B2","midi":47,"time":239.8234094999974,"velocity":0.7244094488188977,"duration":0.349264531249986},{"name":"D5","midi":74,"time":239.8234094999974,"velocity":0.7244094488188977,"duration":0.17279403124999249},{"name":"B4","midi":71,"time":239.9998799999974,"velocity":0.7244094488188977,"duration":0.17279403124999249},{"name":"E3","midi":52,"time":240.1763504999974,"velocity":0.7244094488188977,"duration":0.349264531249986},{"name":"G5","midi":79,"time":240.1763504999974,"velocity":0.7244094488188977,"duration":1.2316170312499537},{"name":"A#4","midi":70,"time":240.3528209999974,"velocity":0.7244094488188977,"duration":0.17279403124999249},{"name":"B3","midi":59,"time":240.52929149999738,"velocity":0.7244094488188977,"duration":0.349264531249986},{"name":"B4","midi":71,"time":240.52929149999738,"velocity":0.7244094488188977,"duration":0.17279403124999249},{"name":"C#5","midi":73,"time":240.70576199999738,"velocity":0.7244094488188977,"duration":0.17279403124999249},{"name":"G4","midi":67,"time":240.88223249999737,"velocity":0.7244094488188977,"duration":0.349264531249986},{"name":"B4","midi":71,"time":240.88223249999737,"velocity":0.7244094488188977,"duration":0.17279403124999249},{"name":"A#4","midi":70,"time":241.05870299999737,"velocity":0.7244094488188977,"duration":0.17279403124999249},{"name":"E3","midi":52,"time":241.23517349999736,"velocity":0.7244094488188977,"duration":0.349264531249986},{"name":"B4","midi":71,"time":241.23517349999736,"velocity":0.7244094488188977,"duration":0.5257350312499796},{"name":"G5","midi":79,"time":241.41164399999735,"velocity":0.7244094488188977,"duration":0.17279403124999249},{"name":"D3","midi":50,"time":241.58811449999735,"velocity":0.7244094488188977,"duration":0.349264531249986},{"name":"F#5","midi":78,"time":241.58811449999735,"velocity":0.7244094488188977,"duration":1.2316170312499537},{"name":"A#4","midi":70,"time":241.76458499999734,"velocity":0.7244094488188977,"duration":0.17279403124999249},{"name":"B3","midi":59,"time":241.94105549999733,"velocity":0.7244094488188977,"duration":0.349264531249986},{"name":"B4","midi":71,"time":241.94105549999733,"velocity":0.7244094488188977,"duration":0.17279403124999249},{"name":"C#5","midi":73,"time":242.11752599999733,"velocity":0.7244094488188977,"duration":0.17279403124999249},{"name":"F#4","midi":66,"time":242.29399649999732,"velocity":0.7244094488188977,"duration":0.349264531249986},{"name":"B4","midi":71,"time":242.29399649999732,"velocity":0.7244094488188977,"duration":0.17279403124999249},{"name":"A#4","midi":70,"time":242.4704669999973,"velocity":0.7244094488188977,"duration":0.17279403124999249},{"name":"D3","midi":50,"time":242.6469374999973,"velocity":0.7244094488188977,"duration":0.349264531249986},{"name":"B4","midi":71,"time":242.6469374999973,"velocity":0.7244094488188977,"duration":0.5257350312499796},{"name":"F#5","midi":78,"time":242.8234079999973,"velocity":0.7244094488188977,"duration":0.17279403124999249},{"name":"C#3","midi":49,"time":242.9998784999973,"velocity":0.7244094488188977,"duration":0.349264531249986},{"name":"E5","midi":76,"time":242.9998784999973,"velocity":0.7244094488188977,"duration":1.2316170312499537},{"name":"B4","midi":71,"time":243.1763489999973,"velocity":0.7244094488188977,"duration":0.17279403124999249},{"name":"A#3","midi":58,"time":243.35281949999728,"velocity":0.7244094488188977,"duration":0.349264531249986},{"name":"C#5","midi":73,"time":243.35281949999728,"velocity":0.7244094488188977,"duration":0.17279403124999249},{"name":"D5","midi":74,"time":243.52928999999727,"velocity":0.7244094488188977,"duration":0.17279403124999249},{"name":"E4","midi":64,"time":243.70576049999727,"velocity":0.7244094488188977,"duration":0.349264531249986},{"name":"C#5","midi":73,"time":243.70576049999727,"velocity":0.7244094488188977,"duration":0.17279403124999249},{"name":"B4","midi":71,"time":243.88223099999726,"velocity":0.7244094488188977,"duration":0.17279403124999249},{"name":"A#3","midi":58,"time":244.05870149999726,"velocity":0.7244094488188977,"duration":0.349264531249986},{"name":"C#5","midi":73,"time":244.05870149999726,"velocity":0.7244094488188977,"duration":0.5147056249999764},{"name":"E5","midi":76,"time":244.23517199999725,"velocity":0.7244094488188977,"duration":0.17279403124999249},{"name":"B3","midi":59,"time":244.41164249999724,"velocity":0.7244094488188977,"duration":0.349264531249986},{"name":"D5","midi":74,"time":244.41164249999724,"velocity":0.7244094488188977,"duration":0.17279403124999249},{"name":"C#5","midi":73,"time":244.58811299999724,"velocity":0.7244094488188977,"duration":0.22058812500000613},{"name":"F#3","midi":54,"time":244.76458349999723,"velocity":0.7244094488188977,"duration":0.34926453125001444},{"name":"D5","midi":74,"time":244.76458349999723,"velocity":0.7244094488188977,"duration":0.1727940312500209},{"name":"E5","midi":76,"time":244.94105399999725,"velocity":0.7244094488188977,"duration":0.17279403124999249},{"name":"D3","midi":50,"time":245.11752449999724,"velocity":0.7244094488188977,"duration":0.349264531249986},{"name":"F#5","midi":78,"time":245.11752449999724,"velocity":0.7244094488188977,"duration":0.8786760312499666},{"name":"B4","midi":71,"time":245.29399499999724,"velocity":0.7244094488188977,"duration":0.17279403124999249},{"name":"B2","midi":47,"time":245.47046549999723,"velocity":0.7244094488188977,"duration":0.349264531249986},{"name":"C#5","midi":73,"time":245.47046549999723,"velocity":0.7244094488188977,"duration":0.17279403124999249},{"name":"D5","midi":74,"time":245.64693599999723,"velocity":0.7244094488188977,"duration":0.17279403124999249},{"name":"E3","midi":52,"time":245.82340649999722,"velocity":0.7244094488188977,"duration":0.17279403124999249},{"name":"G4","midi":67,"time":245.82340649999722,"velocity":0.7244094488188977,"duration":1.0569847656249465},{"name":"A#3","midi":58,"time":245.9998769999972,"velocity":0.7244094488188977,"duration":0.17279403124999249},{"name":"C#5","midi":73,"time":245.9998769999972,"velocity":0.7244094488188977,"duration":0.17279403124999249},{"name":"B3","midi":59,"time":246.1763474999972,"velocity":0.7244094488188977,"duration":0.17279403124999249},{"name":"D5","midi":74,"time":246.1763474999972,"velocity":0.7244094488188977,"duration":0.17279403124999249},{"name":"C#4","midi":61,"time":246.3528179999972,"velocity":0.7244094488188977,"duration":0.17279403124999249},{"name":"E5","midi":76,"time":246.3528179999972,"velocity":0.7244094488188977,"duration":0.17279403124999249},{"name":"B3","midi":59,"time":246.5292884999972,"velocity":0.7244094488188977,"duration":0.17279403124999249},{"name":"D5","midi":74,"time":246.5292884999972,"velocity":0.7244094488188977,"duration":0.17279403124999249},{"name":"A#3","midi":58,"time":246.7057589999972,"velocity":0.7244094488188977,"duration":0.17279403124999249},{"name":"C#5","midi":73,"time":246.7057589999972,"velocity":0.7244094488188977,"duration":0.17279403124999249},{"name":"B3","midi":59,"time":246.88222949999715,"velocity":0.7244094488188977,"duration":0.17279403124999249},{"name":"D5","midi":74,"time":246.88222949999715,"velocity":0.7244094488188977,"duration":0.44117624999998384},{"name":"E3","midi":52,"time":247.05869999999715,"velocity":0.7244094488188977,"duration":0.17279403124999249},{"name":"G4","midi":67,"time":247.05869999999715,"velocity":0.7244094488188977,"duration":0.17279403124999249},{"name":"D3","midi":50,"time":247.23517049999714,"velocity":0.7244094488188977,"duration":0.17279403124999249},{"name":"F#4","midi":66,"time":247.23517049999714,"velocity":0.7244094488188977,"duration":1.0569847656249465},{"name":"A#3","midi":58,"time":247.41164099999713,"velocity":0.7244094488188977,"duration":0.17279403124999249},{"name":"C#5","midi":73,"time":247.41164099999713,"velocity":0.7244094488188977,"duration":0.17279403124999249},{"name":"B3","midi":59,"time":247.58811149999713,"velocity":0.7244094488188977,"duration":0.17279403124999249},{"name":"D5","midi":74,"time":247.58811149999713,"velocity":0.7244094488188977,"duration":0.17279403124999249},{"name":"C#4","midi":61,"time":247.76458199999712,"velocity":0.7244094488188977,"duration":0.17279403124999249},{"name":"E5","midi":76,"time":247.76458199999712,"velocity":0.7244094488188977,"duration":0.17279403124999249},{"name":"B3","midi":59,"time":247.9410524999971,"velocity":0.7244094488188977,"duration":0.17279403124999249},{"name":"D5","midi":74,"time":247.9410524999971,"velocity":0.7244094488188977,"duration":0.17279403124999249},{"name":"A#3","midi":58,"time":248.1175229999971,"velocity":0.7244094488188977,"duration":0.17279403124999249},{"name":"C#5","midi":73,"time":248.1175229999971,"velocity":0.7244094488188977,"duration":0.17279403124999249},{"name":"B3","midi":59,"time":248.29399349999707,"velocity":0.7244094488188977,"duration":0.17279403124999249},{"name":"D5","midi":74,"time":248.29399349999707,"velocity":0.7244094488188977,"duration":0.44117624999998384},{"name":"D3","midi":50,"time":248.47046399999707,"velocity":0.7244094488188977,"duration":0.17279403124999249},{"name":"F#4","midi":66,"time":248.47046399999707,"velocity":0.7244094488188977,"duration":0.17279403124999249},{"name":"C#3","midi":49,"time":248.64693449999706,"velocity":0.7244094488188977,"duration":0.17279403124999249},{"name":"E4","midi":64,"time":248.64693449999706,"velocity":0.7244094488188977,"duration":1.047793593749958},{"name":"G#3","midi":56,"time":248.82340499999705,"velocity":0.7244094488188977,"duration":0.17279403124999249},{"name":"B4","midi":71,"time":248.82340499999705,"velocity":0.7244094488188977,"duration":0.17279403124999249},{"name":"A#3","midi":58,"time":248.99987549999705,"velocity":0.7244094488188977,"duration":0.17279403124999249},{"name":"C#5","midi":73,"time":248.99987549999705,"velocity":0.7244094488188977,"duration":0.17279403124999249},{"name":"B3","midi":59,"time":249.17634599999704,"velocity":0.7244094488188977,"duration":0.17279403124999249},{"name":"D5","midi":74,"time":249.17634599999704,"velocity":0.7244094488188977,"duration":0.17279403124999249},{"name":"A#3","midi":58,"time":249.35281649999703,"velocity":0.7244094488188977,"duration":0.17279403124999249},{"name":"C#5","midi":73,"time":249.35281649999703,"velocity":0.7244094488188977,"duration":0.17279403124999249},{"name":"G#3","midi":56,"time":249.52928699999703,"velocity":0.7244094488188977,"duration":0.17279403124999249},{"name":"B4","midi":71,"time":249.52928699999703,"velocity":0.7244094488188977,"duration":0.17279403124999249},{"name":"A#3","midi":58,"time":249.70575749999702,"velocity":0.7244094488188977,"duration":0.17279403124999249},{"name":"C#5","midi":73,"time":249.70575749999702,"velocity":0.7244094488188977,"duration":0.4595585937499891},{"name":"C#3","midi":49,"time":249.882227999997,"velocity":0.7244094488188977,"duration":0.17279403124999249},{"name":"E4","midi":64,"time":249.882227999997,"velocity":0.7244094488188977,"duration":0.17279403124999249},{"name":"B2","midi":47,"time":250.058698499997,"velocity":0.7244094488188977,"duration":0.349264531249986},{"name":"D4","midi":62,"time":250.058698499997,"velocity":0.7244094488188977,"duration":0.7022055312499731},{"name":"F4","midi":65,"time":250.235168999997,"velocity":0.7244094488188977,"duration":0.17279403124999249},{"name":"F2","midi":41,"time":250.411639499997,"velocity":0.7244094488188977,"duration":0.349264531249986},{"name":"G#4","midi":68,"time":250.411639499997,"velocity":0.7244094488188977,"duration":0.17279403124999249},{"name":"B4","midi":71,"time":250.588109999997,"velocity":0.7244094488188977,"duration":0.349264531249986},{"name":"F#2","midi":42,"time":250.76458049999698,"velocity":0.7244094488188977,"duration":0.34926453125001444},{"name":"C#4","midi":61,"time":250.76458049999698,"velocity":0.7244094488188977,"duration":0.34926453125001444},{"name":"B4","midi":71,"time":250.96678628124698,"velocity":0.7244094488188977,"duration":0.34926453125001444},{"name":"F#3","midi":54,"time":251.16899206249698,"velocity":0.7244094488188977,"duration":0.34742629687502813},{"name":"E4","midi":64,"time":251.16899206249698,"velocity":0.7244094488188977,"duration":0.34742629687502813},{"name":"A#4","midi":70,"time":251.426344874997,"velocity":0.7244094488188977,"duration":0.17095579687500617},{"name":"B2","midi":47,"time":251.602815374997,"velocity":0.7244094488188977,"duration":1.3198522812499789},{"name":"D3","midi":50,"time":251.86752112499698,"velocity":0.7244094488188977,"duration":1.0551465312499886},{"name":"F#3","midi":54,"time":251.95575637499698,"velocity":0.7244094488188977,"duration":0.9669112812499918},{"name":"B3","midi":59,"time":252.04399162499698,"velocity":0.7244094488188977,"duration":0.878676031249995},{"name":"D4","midi":62,"time":252.13222687499697,"velocity":0.7244094488188977,"duration":0.7904407812499983},{"name":"F#4","midi":66,"time":252.22046212499697,"velocity":0.7244094488188977,"duration":0.7022055312500015},{"name":"B4","midi":71,"time":252.30869737499697,"velocity":0.7244094488188977,"duration":0.6139702812500047},{"name":"D5","midi":74,"time":252.39693262499696,"velocity":0.7244094488188977,"duration":0.5275732656249943},{"name":"D5","midi":74,"time":252.92634412499694,"velocity":0.7244094488188977,"duration":0.08639701562501045},{"name":"B2","midi":47,"time":253.01457937499694,"velocity":0.7244094488188977,"duration":1.3198522812500073},{"name":"E3","midi":52,"time":253.01457937499694,"velocity":0.7244094488188977,"duration":1.3198522812500073},{"name":"G3","midi":55,"time":253.01457937499694,"velocity":0.7244094488188977,"duration":1.3198522812500073},{"name":"E4","midi":64,"time":253.01457937499694,"velocity":0.7244094488188977,"duration":1.3198522812500073},{"name":"G4","midi":67,"time":253.01457937499694,"velocity":0.7244094488188977,"duration":1.3198522812500073},{"name":"D5","midi":74,"time":253.01457937499694,"velocity":0.7244094488188977,"duration":0.7022055312500015},{"name":"C#5","midi":73,"time":253.80869662499694,"velocity":0.7244094488188977,"duration":0.7040437656250162},{"name":"A#2","midi":46,"time":254.51457862499694,"velocity":0.7244094488188977,"duration":1.3198522812499789},{"name":"C#3","midi":49,"time":254.77928437499693,"velocity":0.7244094488188977,"duration":1.0551465312499886},{"name":"E3","midi":52,"time":254.86751962499693,"velocity":0.7244094488188977,"duration":0.9669112812499918},{"name":"G3","midi":55,"time":254.95575487499693,"velocity":0.7244094488188977,"duration":0.878676031249995},{"name":"A#3","midi":58,"time":255.04399012499692,"velocity":0.7244094488188977,"duration":0.7904407812499983},{"name":"C#4","midi":61,"time":255.13222537499692,"velocity":0.7244094488188977,"duration":0.7022055312500015},{"name":"D4","midi":62,"time":255.22046062499692,"velocity":0.7244094488188977,"duration":0.17279403124999249},{"name":"E4","midi":64,"time":255.3086958749969,"velocity":0.7244094488188977,"duration":0.5275732656249943},{"name":"E4","midi":64,"time":255.8381073749969,"velocity":0.7244094488188977,"duration":0.08639701562501045},{"name":"E4","midi":64,"time":255.9263426249969,"velocity":0.7244094488188977,"duration":0.792279015625013},{"name":"C#4","midi":61,"time":255.9263426249969,"velocity":0.7244094488188977,"duration":0.792279015625013},{"name":"A#3","midi":58,"time":255.9263426249969,"velocity":0.7244094488188977,"duration":0.792279015625013},{"name":"F#3","midi":54,"time":255.9263426249969,"velocity":0.7244094488188977,"duration":1.584558031250026},{"name":"B2","midi":47,"time":255.9263426249969,"velocity":0.7244094488188977,"duration":1.584558031250026},{"name":"B3","midi":59,"time":256.7204598749969,"velocity":0.7244094488188977,"duration":0.8805142656250382},{"name":"D4","midi":62,"time":256.7204598749969,"velocity":0.7244094488188977,"duration":0.8805142656250382},{"name":"B3","midi":59,"time":257.6028123749969,"velocity":0.7244094488188977,"duration":0.4779409374999659},{"name":"D4","midi":62,"time":257.7020770312469,"velocity":0.7244094488188977,"duration":0.09926465624999992},{"name":"F#4","midi":66,"time":257.8031799218719,"velocity":0.7244094488188977,"duration":0.09926465624999992},{"name":"G4","midi":67,"time":257.9042828124969,"velocity":0.7244094488188977,"duration":0.09926465624999992},{"name":"A4","midi":69,"time":258.0053857031219,"velocity":0.7244094488188977,"duration":0.09926465624999992},{"name":"G4","midi":67,"time":258.10648859374686,"velocity":0.7244094488188977,"duration":0.09926465624999992},{"name":"F#4","midi":66,"time":258.20759148437185,"velocity":0.7244094488188977,"duration":0.09926465624999992},{"name":"E4","midi":64,"time":258.30869437499683,"velocity":0.7244094488188977,"duration":0.4779409374999659},{"name":"G4","midi":67,"time":258.40795903124683,"velocity":0.7244094488188977,"duration":0.09926465624999992},{"name":"B4","midi":71,"time":258.5090619218718,"velocity":0.7244094488188977,"duration":0.09926465624999992},{"name":"C#5","midi":73,"time":258.6101648124968,"velocity":0.7244094488188977,"duration":0.09926465624999992},{"name":"D5","midi":74,"time":258.7112677031218,"velocity":0.7244094488188977,"duration":0.09926465624999992},{"name":"C#5","midi":73,"time":258.8123705937468,"velocity":0.7244094488188977,"duration":0.09926465624999992},{"name":"B4","midi":71,"time":258.91347348437176,"velocity":0.7244094488188977,"duration":0.09926465624999992},{"name":"A3","midi":57,"time":259.01457637499675,"velocity":0.7244094488188977,"duration":0.4779409374999659},{"name":"C#4","midi":61,"time":259.11384103124675,"velocity":0.7244094488188977,"duration":0.09926465624999992},{"name":"E4","midi":64,"time":259.21494392187174,"velocity":0.7244094488188977,"duration":0.09926465624999992},{"name":"F#4","midi":66,"time":259.3160468124967,"velocity":0.7244094488188977,"duration":0.09926465624999992},{"name":"G4","midi":67,"time":259.4171497031217,"velocity":0.7244094488188977,"duration":0.09926465624999992},{"name":"F#4","midi":66,"time":259.5182525937467,"velocity":0.7244094488188977,"duration":0.09926465624999992},{"name":"E4","midi":64,"time":259.6193554843717,"velocity":0.7244094488188977,"duration":0.09926465624999992},{"name":"D4","midi":62,"time":259.72045837499667,"velocity":0.7244094488188977,"duration":0.4779409374999659},{"name":"F#4","midi":66,"time":259.81972303124667,"velocity":0.7244094488188977,"duration":0.09926465624999992},{"name":"A#4","midi":70,"time":259.92082592187165,"velocity":0.7244094488188977,"duration":0.09926465624999992},{"name":"B4","midi":71,"time":260.02192881249664,"velocity":0.7244094488188977,"duration":0.09926465624999992},{"name":"C#5","midi":73,"time":260.1230317031216,"velocity":0.7244094488188977,"duration":0.09926465624999992},{"name":"B4","midi":71,"time":260.2241345937466,"velocity":0.7244094488188977,"duration":0.09926465624999992},{"name":"A#4","midi":70,"time":260.3252374843716,"velocity":0.7244094488188977,"duration":0.09926465624999992},{"name":"G3","midi":55,"time":260.4263403749966,"velocity":0.7244094488188977,"duration":0.4779409374999659},{"name":"B3","midi":59,"time":260.5256050312466,"velocity":0.7244094488188977,"duration":0.09926465624999992},{"name":"D4","midi":62,"time":260.62670792187157,"velocity":0.7244094488188977,"duration":0.09926465624999992},{"name":"E4","midi":64,"time":260.72781081249656,"velocity":0.7244094488188977,"duration":0.09926465624999992},{"name":"F#4","midi":66,"time":260.82891370312154,"velocity":0.7244094488188977,"duration":0.09926465624999992},{"name":"E4","midi":64,"time":260.93001659374653,"velocity":0.7244094488188977,"duration":0.09926465624999992},{"name":"D4","midi":62,"time":261.0311194843715,"velocity":0.7244094488188977,"duration":0.09926465624999992},{"name":"C#4","midi":61,"time":261.1322223749965,"velocity":0.7244094488188977,"duration":0.4779409374999659},{"name":"F4","midi":65,"time":261.2314870312465,"velocity":0.7244094488188977,"duration":0.09926465624999992},{"name":"G#4","midi":68,"time":261.3325899218715,"velocity":0.7244094488188977,"duration":0.09926465624999992},{"name":"A#4","midi":70,"time":261.4336928124965,"velocity":0.7244094488188977,"duration":0.09926465624999992},{"name":"B4","midi":71,"time":261.53479570312146,"velocity":0.7244094488188977,"duration":0.09926465624999992},{"name":"A#4","midi":70,"time":261.63589859374645,"velocity":0.7244094488188977,"duration":0.09926465624999992},{"name":"G#4","midi":68,"time":261.73700148437143,"velocity":0.7244094488188977,"duration":0.09926465624999992},{"name":"F#4","midi":66,"time":261.8381043749964,"velocity":0.7244094488188977,"duration":0.4779409374999659},{"name":"A#4","midi":70,"time":261.9373690312464,"velocity":0.7244094488188977,"duration":0.09926465624999992},{"name":"C#5","midi":73,"time":262.0384719218714,"velocity":0.7244094488188977,"duration":0.09926465624999992},{"name":"D5","midi":74,"time":262.1395748124964,"velocity":0.7244094488188977,"duration":0.09926465624999992},{"name":"E5","midi":76,"time":262.2406777031214,"velocity":0.7244094488188977,"duration":0.09926465624999992},{"name":"D5","midi":74,"time":262.34178059374636,"velocity":0.7244094488188977,"duration":0.09926465624999992},{"name":"C#5","midi":73,"time":262.44288348437135,"velocity":0.7244094488188977,"duration":0.09926465624999992},{"name":"A#4","midi":70,"time":262.54398637499634,"velocity":0.7244094488188977,"duration":0.4779409374999659},{"name":"C#5","midi":73,"time":262.64325103124634,"velocity":0.7244094488188977,"duration":0.09926465624999992},{"name":"E5","midi":76,"time":262.7443539218713,"velocity":0.7244094488188977,"duration":0.09926465624999992},{"name":"F#5","midi":78,"time":262.8454568124963,"velocity":0.7244094488188977,"duration":0.09926465624999992},{"name":"G5","midi":79,"time":262.9465597031213,"velocity":0.7244094488188977,"duration":0.1433822812500125},{"name":"F#5","midi":78,"time":263.0917802187463,"velocity":0.7244094488188977,"duration":0.15624992187497355},{"name":"E5","midi":76,"time":263.24986837499625,"velocity":0.7244094488188977,"duration":0.17463226562500722},{"name":"B2","midi":47,"time":263.42633887499625,"velocity":0.7244094488188977,"duration":1.3198522812501778},{"name":"D3","midi":50,"time":263.69104462499627,"velocity":0.7244094488188977,"duration":1.0551465312501591},{"name":"F#3","midi":54,"time":263.7792798749963,"velocity":0.7244094488188977,"duration":0.9669112812501339},{"name":"B3","midi":59,"time":263.8675151249963,"velocity":0.7244094488188977,"duration":0.8786760312501087},{"name":"D4","midi":62,"time":263.95575037499634,"velocity":0.7244094488188977,"duration":0.7904407812500835},{"name":"F#4","midi":66,"time":264.04398562499637,"velocity":0.7244094488188977,"duration":0.7022055312500584},{"name":"B4","midi":71,"time":264.1322208749964,"velocity":0.7244094488188977,"duration":0.6139702812500332},{"name":"D5","midi":74,"time":264.2204561249964,"velocity":0.7244094488188977,"duration":0.5275732656249943},{"name":"D5","midi":74,"time":264.7498676249964,"velocity":0.7244094488188977,"duration":0.08639701562498203},{"name":"E3","midi":52,"time":264.83810287499637,"velocity":0.7244094488188977,"duration":1.4080875312499757},{"name":"G3","midi":55,"time":264.83810287499637,"velocity":0.7244094488188977,"duration":1.4080875312499757},{"name":"G4","midi":67,"time":264.83810287499637,"velocity":0.7244094488188977,"duration":1.4080875312499757},{"name":"D5","midi":74,"time":264.83810287499637,"velocity":0.7244094488188977,"duration":0.7904407812500267},{"name":"B3","midi":59,"time":264.83810287499637,"velocity":0.7244094488188977,"duration":0.792279015625013},{"name":"C5","midi":72,"time":265.63222012499637,"velocity":0.7244094488188977,"duration":0.7040437656249878},{"name":"F#3","midi":54,"time":266.33810212499634,"velocity":0.7244094488188977,"duration":1.3198522812501778},{"name":"A3","midi":57,"time":266.60280787499636,"velocity":0.7244094488188977,"duration":0.9669112812501339},{"name":"C4","midi":60,"time":266.6910431249964,"velocity":0.7244094488188977,"duration":0.8786760312501087},{"name":"D4","midi":62,"time":266.7792783749964,"velocity":0.7244094488188977,"duration":0.7904407812500835},{"name":"A4","midi":69,"time":266.86751362499643,"velocity":0.7244094488188977,"duration":0.7022055312500584},{"name":"D5","midi":74,"time":266.95574887499646,"velocity":0.7244094488188977,"duration":0.6139702812500332},{"name":"F#5","midi":78,"time":267.0439841249965,"velocity":0.7244094488188977,"duration":0.525735031250008},{"name":"A5","midi":81,"time":267.1322193749965,"velocity":0.7244094488188977,"duration":0.5275732656249943},{"name":"F#4","midi":66,"time":267.6616308749965,"velocity":0.7244094488188977,"duration":0.08639701562498203},{"name":"A4","midi":69,"time":267.6616308749965,"velocity":0.7244094488188977,"duration":0.08639701562498203},{"name":"C5","midi":72,"time":267.6616308749965,"velocity":0.7244094488188977,"duration":0.08639701562498203},{"name":"C5","midi":72,"time":267.74986612499646,"velocity":0.7244094488188977,"duration":0.792279015625013},{"name":"A4","midi":69,"time":267.74986612499646,"velocity":0.7244094488188977,"duration":0.792279015625013},{"name":"F#4","midi":66,"time":267.74986612499646,"velocity":0.7244094488188977,"duration":0.792279015625013},{"name":"D4","midi":62,"time":267.74986612499646,"velocity":0.7244094488188977,"duration":1.4080875312499757},{"name":"G3","midi":55,"time":267.74986612499646,"velocity":0.7244094488188977,"duration":1.4080875312499757},{"name":"G4","midi":67,"time":268.54398337499646,"velocity":0.7244094488188977,"duration":0.7040437656249878},{"name":"B4","midi":71,"time":268.54398337499646,"velocity":0.7244094488188977,"duration":0.7040437656249878},{"name":"E4","midi":64,"time":269.24986537499643,"velocity":0.7244094488188977,"duration":0.19852931249999983},{"name":"G4","midi":67,"time":269.34913003124643,"velocity":0.7244094488188977,"duration":0.09926465624999992},{"name":"A#4","midi":70,"time":269.4502329218714,"velocity":0.7244094488188977,"duration":0.09926465624999992},{"name":"B4","midi":71,"time":269.5513358124964,"velocity":0.7244094488188977,"duration":0.09926465624999992},{"name":"C#5","midi":73,"time":269.6524387031214,"velocity":0.7244094488188977,"duration":0.09926465624999992},{"name":"B4","midi":71,"time":269.7535415937464,"velocity":0.7244094488188977,"duration":0.09926465624999992},{"name":"A#4","midi":70,"time":269.85464448437136,"velocity":0.7244094488188977,"duration":0.09926465624999992},{"name":"D#4","midi":63,"time":269.95574737499635,"velocity":0.7244094488188977,"duration":0.29779396874999975},{"name":"F#4","midi":66,"time":270.05501203124635,"velocity":0.7244094488188977,"duration":0.09926465624999992},{"name":"A4","midi":69,"time":270.15611492187134,"velocity":0.7244094488188977,"duration":0.09926465624999992},{"name":"B4","midi":71,"time":270.2572178124963,"velocity":0.7244094488188977,"duration":0.09926465624999992},{"name":"C5","midi":72,"time":270.3583207031213,"velocity":0.7244094488188977,"duration":0.09926465624999992},{"name":"B4","midi":71,"time":270.4594235937463,"velocity":0.7244094488188977,"duration":0.09926465624999992},{"name":"A4","midi":69,"time":270.5605264843713,"velocity":0.7244094488188977,"duration":0.09926465624999992},{"name":"D4","midi":62,"time":270.66162937499627,"velocity":0.7244094488188977,"duration":0.29779396874999975},{"name":"F4","midi":65,"time":270.76089403124627,"velocity":0.7244094488188977,"duration":0.19852931249999983},{"name":"G#4","midi":68,"time":270.86199692187125,"velocity":0.7244094488188977,"duration":0.09926465624999992},{"name":"A4","midi":69,"time":270.96309981249624,"velocity":0.7244094488188977,"duration":0.09926465624999992},{"name":"B4","midi":71,"time":271.0642027031212,"velocity":0.7244094488188977,"duration":0.09926465624999992},{"name":"A4","midi":69,"time":271.1653055937462,"velocity":0.7244094488188977,"duration":0.09926465624999992},{"name":"G#4","midi":68,"time":271.2664084843712,"velocity":0.7244094488188977,"duration":0.09926465624999992},{"name":"C#4","midi":61,"time":271.3675113749962,"velocity":0.7244094488188977,"duration":0.39705862499999967},{"name":"E4","midi":64,"time":271.4667760312462,"velocity":0.7244094488188977,"duration":0.19852931249999983},{"name":"G4","midi":67,"time":271.56787892187117,"velocity":0.7244094488188977,"duration":0.09926465624999992},{"name":"A4","midi":69,"time":271.66898181249616,"velocity":0.7244094488188977,"duration":0.09926465624999992},{"name":"A#4","midi":70,"time":271.77008470312114,"velocity":0.7244094488188977,"duration":0.09926465624999992},{"name":"A4","midi":69,"time":271.87118759374613,"velocity":0.7244094488188977,"duration":0.09926465624999992},{"name":"G4","midi":67,"time":271.9722904843711,"velocity":0.7244094488188977,"duration":0.09926465624999992},{"name":"C4","midi":60,"time":272.0733933749961,"velocity":0.7244094488188977,"duration":0.39705862499999967},{"name":"D#4","midi":63,"time":272.1726580312461,"velocity":0.7244094488188977,"duration":0.29779396874999975},{"name":"F#4","midi":66,"time":272.2737609218711,"velocity":0.7244094488188977,"duration":0.09926465624999992},{"name":"G4","midi":67,"time":272.3748638124961,"velocity":0.7244094488188977,"duration":0.09926465624999992},{"name":"A4","midi":69,"time":272.47596670312106,"velocity":0.7244094488188977,"duration":0.09926465624999992},{"name":"G4","midi":67,"time":272.57706959374605,"velocity":0.7244094488188977,"duration":0.09926465624999992},{"name":"F#4","midi":66,"time":272.67817248437103,"velocity":0.7244094488188977,"duration":0.09926465624999992},{"name":"B3","midi":59,"time":272.779275374996,"velocity":0.7244094488188977,"duration":0.4779409374999659},{"name":"D4","midi":62,"time":272.878540031246,"velocity":0.7244094488188977,"duration":0.29779396874999975},{"name":"F4","midi":65,"time":272.979642921871,"velocity":0.7244094488188977,"duration":0.09926465624999992},{"name":"F#4","midi":66,"time":273.080745812496,"velocity":0.7244094488188977,"duration":0.09926465624999992},{"name":"G#4","midi":68,"time":273.181848703121,"velocity":0.7244094488188977,"duration":0.09926465624999992},{"name":"F#4","midi":66,"time":273.28295159374596,"velocity":0.7244094488188977,"duration":0.09926465624999992},{"name":"F4","midi":65,"time":273.38405448437095,"velocity":0.7244094488188977,"duration":0.09926465624999992},{"name":"A#3","midi":58,"time":273.48515737499594,"velocity":0.7244094488188977,"duration":0.4779409374999659},{"name":"C#4","midi":61,"time":273.58442203124594,"velocity":0.7244094488188977,"duration":0.3970586249999428},{"name":"E4","midi":64,"time":273.6855249218709,"velocity":0.7244094488188977,"duration":0.09926465624999992},{"name":"F#4","midi":66,"time":273.7866278124959,"velocity":0.7244094488188977,"duration":0.09926465624999992},{"name":"G4","midi":67,"time":273.8877307031209,"velocity":0.7244094488188977,"duration":0.09926465624999992},{"name":"F#4","midi":66,"time":273.9888335937459,"velocity":0.7244094488188977,"duration":0.09926465624999992},{"name":"E4","midi":64,"time":274.08993648437087,"velocity":0.7244094488188977,"duration":0.09926465624999992},{"name":"A3","midi":57,"time":274.19103937499585,"velocity":0.7244094488188977,"duration":0.19852931249999983},{"name":"C4","midi":60,"time":274.29030403124585,"velocity":0.7244094488188977,"duration":0.19852931249999983},{"name":"D#4","midi":63,"time":274.39140692187084,"velocity":0.7244094488188977,"duration":0.19852931249999983},{"name":"E4","midi":64,"time":274.4925098124958,"velocity":0.7244094488188977,"duration":0.09926465624999992},{"name":"F#4","midi":66,"time":274.5936127031208,"velocity":0.7244094488188977,"duration":0.19852931249999983},{"name":"E4","midi":64,"time":274.6947155937458,"velocity":0.7244094488188977,"duration":0.09926465624999992},{"name":"D#4","midi":63,"time":274.7958184843708,"velocity":0.7244094488188977,"duration":0.09926465624999992},{"name":"G#3","midi":56,"time":274.89692137499577,"velocity":0.7244094488188977,"duration":1.3198522812501778},{"name":"B3","midi":59,"time":275.1616271249958,"velocity":0.7244094488188977,"duration":0.9669112812501339},{"name":"D4","midi":62,"time":275.2498623749958,"velocity":0.7244094488188977,"duration":0.8786760312501087},{"name":"F4","midi":65,"time":275.33809762499584,"velocity":0.7244094488188977,"duration":0.7904407812500835},{"name":"B4","midi":71,"time":275.42633287499586,"velocity":0.7244094488188977,"duration":0.7022055312500584},{"name":"D5","midi":74,"time":275.5145681249959,"velocity":0.7244094488188977,"duration":0.6139702812500332},{"name":"F5","midi":77,"time":275.6028033749959,"velocity":0.7244094488188977,"duration":0.525735031250008},{"name":"B5","midi":83,"time":275.69103862499594,"velocity":0.7244094488188977,"duration":0.5275732656249943},{"name":"B5","midi":83,"time":276.2204501249959,"velocity":0.7244094488188977,"duration":0.08639701562498203},{"name":"G#5","midi":80,"time":276.2204501249959,"velocity":0.7244094488188977,"duration":0.08639701562498203},{"name":"D5","midi":74,"time":276.2204501249959,"velocity":0.7244094488188977,"duration":0.08639701562498203},{"name":"C4","midi":60,"time":276.3086853749959,"velocity":0.7244094488188977,"duration":1.4963227812500008},{"name":"E4","midi":64,"time":276.3086853749959,"velocity":0.7244094488188977,"duration":1.4080875312499757},{"name":"G#4","midi":68,"time":276.3086853749959,"velocity":0.7244094488188977,"duration":0.792279015625013},{"name":"D5","midi":74,"time":276.3086853749959,"velocity":0.7244094488188977,"duration":0.792279015625013},{"name":"B5","midi":83,"time":276.3086853749959,"velocity":0.7244094488188977,"duration":0.792279015625013},{"name":"G#5","midi":80,"time":276.3086853749959,"velocity":0.7244094488188977,"duration":0.792279015625013},{"name":"E5","midi":76,"time":276.3086853749959,"velocity":0.7244094488188977,"duration":0.792279015625013},{"name":"A5","midi":81,"time":277.1028026249959,"velocity":0.7244094488188977,"duration":0.7040437656249878},{"name":"C5","midi":72,"time":277.1028026249959,"velocity":0.7244094488188977,"duration":0.7040437656249878},{"name":"A4","midi":69,"time":277.1028026249959,"velocity":0.7244094488188977,"duration":0.7040437656249878},{"name":"D#3","midi":51,"time":277.8528022499959,"velocity":0.7244094488188977,"duration":1.3198522812501778},{"name":"F#3","midi":54,"time":278.1175079999959,"velocity":0.7244094488188977,"duration":0.9669112812501339},{"name":"A3","midi":57,"time":278.2057432499959,"velocity":0.7244094488188977,"duration":0.8786760312501087},{"name":"C4","midi":60,"time":278.29397849999594,"velocity":0.7244094488188977,"duration":0.7904407812500835},{"name":"A4","midi":69,"time":278.38221374999597,"velocity":0.7244094488188977,"duration":0.7022055312500584},{"name":"C5","midi":72,"time":278.470448999996,"velocity":0.7244094488188977,"duration":0.6139702812500332},{"name":"F#5","midi":78,"time":278.558684249996,"velocity":0.7244094488188977,"duration":0.525735031250008},{"name":"A5","midi":81,"time":278.64691949999605,"velocity":0.7244094488188977,"duration":0.5275732656249943},{"name":"A5","midi":81,"time":279.176330999996,"velocity":0.7244094488188977,"duration":0.08639701562498203},{"name":"F#5","midi":78,"time":279.176330999996,"velocity":0.7244094488188977,"duration":0.08639701562498203},{"name":"D#5","midi":75,"time":279.176330999996,"velocity":0.7244094488188977,"duration":0.08639701562498203},{"name":"C5","midi":72,"time":279.176330999996,"velocity":0.7244094488188977,"duration":0.08639701562498203},{"name":"C5","midi":72,"time":279.264566249996,"velocity":0.7244094488188977,"duration":0.792279015625013},{"name":"D#5","midi":75,"time":279.264566249996,"velocity":0.7244094488188977,"duration":0.792279015625013},{"name":"F#5","midi":78,"time":279.264566249996,"velocity":0.7244094488188977,"duration":0.792279015625013},{"name":"A5","midi":81,"time":279.264566249996,"velocity":0.7244094488188977,"duration":0.792279015625013},{"name":"E3","midi":52,"time":279.264566249996,"velocity":0.7244094488188977,"duration":1.584558031250026},{"name":"E4","midi":64,"time":279.264566249996,"velocity":0.7244094488188977,"duration":1.6727932812500512},{"name":"G5","midi":79,"time":280.058683499996,"velocity":0.7244094488188977,"duration":0.8805142656250382},{"name":"E5","midi":76,"time":280.058683499996,"velocity":0.7244094488188977,"duration":0.8805142656250382},{"name":"B4","midi":71,"time":280.058683499996,"velocity":0.7244094488188977,"duration":0.8805142656250382},{"name":"E2","midi":40,"time":280.941035999996,"velocity":0.7244094488188977,"duration":0.6047791093749311},{"name":"G2","midi":43,"time":281.040300656246,"velocity":0.7244094488188977,"duration":0.09926465624999992},{"name":"B2","midi":47,"time":281.141403546871,"velocity":0.7244094488188977,"duration":0.09926465624999992},{"name":"C3","midi":48,"time":281.242506437496,"velocity":0.7244094488188977,"duration":0.09926465624999992},{"name":"D3","midi":50,"time":281.343609328121,"velocity":0.7244094488188977,"duration":0.09926465624999992},{"name":"C3","midi":48,"time":281.44471221874596,"velocity":0.7244094488188977,"duration":0.09926465624999992},{"name":"B2","midi":47,"time":281.54581510937095,"velocity":0.7244094488188977,"duration":0.09926465624999992},{"name":"A2","midi":45,"time":281.64691799999594,"velocity":0.7244094488188977,"duration":0.5036762187499448},{"name":"C3","midi":48,"time":281.74618265624594,"velocity":0.7244094488188977,"duration":0.09926465624999992},{"name":"E3","midi":52,"time":281.8472855468709,"velocity":0.7244094488188977,"duration":0.09926465624999992},{"name":"F#3","midi":54,"time":281.9483884374959,"velocity":0.7244094488188977,"duration":0.09926465624999992},{"name":"G3","midi":55,"time":282.0494913281209,"velocity":0.7244094488188977,"duration":0.09926465624999992},{"name":"F#3","midi":54,"time":282.1505942187459,"velocity":0.7244094488188977,"duration":0.09926465624999992},{"name":"E3","midi":52,"time":282.25169710937087,"velocity":0.7244094488188977,"duration":0.09926465624999992},{"name":"D3","midi":50,"time":282.35279999999585,"velocity":0.7244094488188977,"duration":0.4025733281249586},{"name":"F#3","midi":54,"time":282.45206465624585,"velocity":0.7244094488188977,"duration":0.09926465624999992},{"name":"A3","midi":57,"time":282.55316754687084,"velocity":0.7244094488188977,"duration":0.09926465624999992},{"name":"B3","midi":59,"time":282.6542704374958,"velocity":0.7244094488188977,"duration":0.09926465624999992},{"name":"C4","midi":60,"time":282.7553733281208,"velocity":0.7244094488188977,"duration":0.09926465624999992},{"name":"B3","midi":59,"time":282.8564762187458,"velocity":0.7244094488188977,"duration":0.09926465624999992},{"name":"A3","midi":57,"time":282.9575791093708,"velocity":0.7244094488188977,"duration":0.09926465624999992},{"name":"G3","midi":55,"time":283.05868199999577,"velocity":0.7244094488188977,"duration":0.3014704374999724},{"name":"B3","midi":59,"time":283.15794665624577,"velocity":0.7244094488188977,"duration":0.09926465624999992},{"name":"D#4","midi":63,"time":283.25904954687076,"velocity":0.7244094488188977,"duration":0.09926465624999992},{"name":"E4","midi":64,"time":283.36015243749574,"velocity":0.7244094488188977,"duration":0.09926465624999992},{"name":"F#4","midi":66,"time":283.4612553281207,"velocity":0.7244094488188977,"duration":0.09926465624999992},{"name":"E4","midi":64,"time":283.5623582187457,"velocity":0.7244094488188977,"duration":0.09926465624999992},{"name":"D#4","midi":63,"time":283.6634611093707,"velocity":0.7244094488188977,"duration":0.09926465624999992},{"name":"C4","midi":60,"time":283.7645639999957,"velocity":0.7244094488188977,"duration":0.19852931249999983},{"name":"E4","midi":64,"time":283.8638286562457,"velocity":0.7244094488188977,"duration":0.09926465624999992},{"name":"G4","midi":67,"time":283.9649315468707,"velocity":0.7244094488188977,"duration":0.09926465624999992},{"name":"A4","midi":69,"time":284.06603443749566,"velocity":0.7244094488188977,"duration":0.09926465624999992},{"name":"B4","midi":71,"time":284.16713732812065,"velocity":0.7244094488188977,"duration":0.09926465624999992},{"name":"A4","midi":69,"time":284.26824021874563,"velocity":0.7244094488188977,"duration":0.09926465624999992},{"name":"G4","midi":67,"time":284.3693431093706,"velocity":0.7244094488188977,"duration":0.09926465624999992},{"name":"F#4","midi":66,"time":284.4704459999956,"velocity":0.7244094488188977,"duration":0.19852931249999983},{"name":"A#4","midi":70,"time":284.5697106562456,"velocity":0.7244094488188977,"duration":0.19852931249999983},{"name":"C#5","midi":73,"time":284.6708135468706,"velocity":0.7244094488188977,"duration":0.09926465624999992},{"name":"D#5","midi":75,"time":284.7719164374956,"velocity":0.7244094488188977,"duration":0.09926465624999992},{"name":"E5","midi":76,"time":284.87301932812056,"velocity":0.7244094488188977,"duration":0.09926465624999992},{"name":"D#5","midi":75,"time":284.97412221874555,"velocity":0.7244094488188977,"duration":0.09926465624999992},{"name":"C#5","midi":73,"time":285.07522510937054,"velocity":0.7244094488188977,"duration":0.09926465624999992},{"name":"B4","midi":71,"time":285.1763279999955,"velocity":0.7244094488188977,"duration":0.19852931249999983},{"name":"D#5","midi":75,"time":285.2755926562455,"velocity":0.7244094488188977,"duration":0.19852931249999983},{"name":"F#5","midi":78,"time":285.3766955468705,"velocity":0.7244094488188977,"duration":0.19852931249999983},{"name":"G5","midi":79,"time":285.4777984374955,"velocity":0.7244094488188977,"duration":0.09926465624999992},{"name":"A5","midi":81,"time":285.5789013281205,"velocity":0.7244094488188977,"duration":0.09926465624999992},{"name":"G5","midi":79,"time":285.68000421874547,"velocity":0.7244094488188977,"duration":0.09926465624999992},{"name":"F#5","midi":78,"time":285.78110710937045,"velocity":0.7244094488188977,"duration":0.09926465624999992},{"name":"D#5","midi":75,"time":285.88220999999544,"velocity":0.7244094488188977,"duration":0.10110289062498623},{"name":"F#5","midi":78,"time":285.98147465624544,"velocity":0.7244094488188977,"duration":0.10110289062498623},{"name":"A5","midi":81,"time":286.0825775468704,"velocity":0.7244094488188977,"duration":0.10110289062498623},{"name":"B5","midi":83,"time":286.1836804374954,"velocity":0.7244094488188977,"duration":0.10110289062498623},{"name":"C6","midi":84,"time":286.2847833281204,"velocity":0.7244094488188977,"duration":0.19852931249999983},{"name":"B5","midi":83,"time":286.4189744374954,"velocity":0.7244094488188977,"duration":0.12683817187496516},{"name":"A5","midi":81,"time":286.5550037812454,"velocity":0.7244094488188977,"duration":0.17095579687497775},{"name":"E3","midi":52,"time":286.76456249999535,"velocity":0.7244094488188977,"duration":1.3198522812501778},{"name":"G3","midi":55,"time":287.02926824999537,"velocity":0.7244094488188977,"duration":0.9669112812501339},{"name":"B3","midi":59,"time":287.1175034999954,"velocity":0.7244094488188977,"duration":0.8786760312501087},{"name":"E4","midi":64,"time":287.2057387499954,"velocity":0.7244094488188977,"duration":0.7904407812500835},{"name":"G4","midi":67,"time":287.29397399999544,"velocity":0.7244094488188977,"duration":0.7022055312500584},{"name":"B4","midi":71,"time":287.38220924999547,"velocity":0.7244094488188977,"duration":0.6139702812500332},{"name":"E5","midi":76,"time":287.4704444999955,"velocity":0.7244094488188977,"duration":0.525735031250008},{"name":"G5","midi":79,"time":287.5586797499955,"velocity":0.7244094488188977,"duration":0.5275732656249943},{"name":"G5","midi":79,"time":288.0880912499955,"velocity":0.7244094488188977,"duration":0.08639701562498203},{"name":"C5","midi":72,"time":288.17632649999547,"velocity":0.7244094488188977,"duration":0.6158085156250195},{"name":"G5","midi":79,"time":288.17632649999547,"velocity":0.7244094488188977,"duration":0.6158085156250195},{"name":"A4","midi":69,"time":288.17632649999547,"velocity":0.7244094488188977,"duration":0.6158085156250195},{"name":"E4","midi":64,"time":288.17632649999547,"velocity":0.7244094488188977,"duration":1.2316170312499821},{"name":"C4","midi":60,"time":288.17632649999547,"velocity":0.7244094488188977,"duration":1.2316170312499821},{"name":"A3","midi":57,"time":288.17632649999547,"velocity":0.7244094488188977,"duration":1.4080875312499757},{"name":"E5","midi":76,"time":288.7939732499955,"velocity":0.7244094488188977,"duration":0.08639701562498203},{"name":"E5","midi":76,"time":288.88220849999544,"velocity":0.7244094488188977,"duration":0.43933801562502595},{"name":"F5","midi":77,"time":289.32338474999545,"velocity":0.7244094488188977,"duration":0.35110276562500076},{"name":"B3","midi":59,"time":289.67632574999544,"velocity":0.7244094488188977,"duration":1.3198522812501778},{"name":"D4","midi":62,"time":289.94103149999546,"velocity":0.7244094488188977,"duration":0.9669112812501339},{"name":"F4","midi":65,"time":290.0292667499955,"velocity":0.7244094488188977,"duration":0.8786760312501087},{"name":"G#4","midi":68,"time":290.1175019999955,"velocity":0.7244094488188977,"duration":0.7904407812500835},{"name":"B4","midi":71,"time":290.20573724999554,"velocity":0.7244094488188977,"duration":0.7022055312500584},{"name":"D5","midi":74,"time":290.29397249999556,"velocity":0.7244094488188977,"duration":0.6139702812500332},{"name":"F5","midi":77,"time":290.3822077499956,"velocity":0.7244094488188977,"duration":0.525735031250008},{"name":"G#5","midi":80,"time":290.4704429999956,"velocity":0.7244094488188977,"duration":0.5275732656249943},{"name":"G#5","midi":80,"time":290.9998544999956,"velocity":0.7244094488188977,"duration":0.08639701562498203},{"name":"B4","midi":71,"time":290.9998544999956,"velocity":0.7244094488188977,"duration":0.08639701562498203},{"name":"D5","midi":74,"time":290.9998544999956,"velocity":0.7244094488188977,"duration":0.08639701562498203},{"name":"E5","midi":76,"time":290.9998544999956,"velocity":0.7244094488188977,"duration":0.08639701562498203},{"name":"E4","midi":64,"time":291.08808974999556,"velocity":0.7244094488188977,"duration":1.4963227812500008},{"name":"C4","midi":60,"time":291.08808974999556,"velocity":0.7244094488188977,"duration":1.4963227812500008},{"name":"G#5","midi":80,"time":291.08808974999556,"velocity":0.7244094488188977,"duration":0.792279015625013},{"name":"B4","midi":71,"time":291.08808974999556,"velocity":0.7244094488188977,"duration":0.792279015625013},{"name":"D5","midi":74,"time":291.08808974999556,"velocity":0.7244094488188977,"duration":0.792279015625013},{"name":"E5","midi":76,"time":291.08808974999556,"velocity":0.7244094488188977,"duration":0.792279015625013},{"name":"A5","midi":81,"time":291.88220699999556,"velocity":0.7244094488188977,"duration":0.792279015625013},{"name":"C5","midi":72,"time":291.88220699999556,"velocity":0.7244094488188977,"duration":0.792279015625013},{"name":"A4","midi":69,"time":291.88220699999556,"velocity":0.7244094488188977,"duration":0.792279015625013},{"name":"C5","midi":72,"time":292.67632424999556,"velocity":0.7244094488188977,"duration":0.4779409374999659},{"name":"E5","midi":76,"time":292.77558890624556,"velocity":0.7244094488188977,"duration":0.09926465624999992},{"name":"F#5","midi":78,"time":292.87669179687055,"velocity":0.7244094488188977,"duration":0.09926465624999992},{"name":"G5","midi":79,"time":292.97779468749553,"velocity":0.7244094488188977,"duration":0.09926465624999992},{"name":"A5","midi":81,"time":293.0788975781205,"velocity":0.7244094488188977,"duration":0.09926465624999992},{"name":"G5","midi":79,"time":293.1800004687455,"velocity":0.7244094488188977,"duration":0.09926465624999992},{"name":"F#5","midi":78,"time":293.2811033593705,"velocity":0.7244094488188977,"duration":0.09926465624999992},{"name":"B4","midi":71,"time":293.3822062499955,"velocity":0.7244094488188977,"duration":0.4779409374999659},{"name":"D#5","midi":75,"time":293.4814709062455,"velocity":0.7244094488188977,"duration":0.09926465624999992},{"name":"E5","midi":76,"time":293.58257379687046,"velocity":0.7244094488188977,"duration":0.09926465624999992},{"name":"F#5","midi":78,"time":293.68367668749545,"velocity":0.7244094488188977,"duration":0.09926465624999992},{"name":"G5","midi":79,"time":293.78477957812044,"velocity":0.7244094488188977,"duration":0.09926465624999992},{"name":"F#5","midi":78,"time":293.8858824687454,"velocity":0.7244094488188977,"duration":0.09926465624999992},{"name":"E5","midi":76,"time":293.9869853593704,"velocity":0.7244094488188977,"duration":0.09926465624999992},{"name":"A4","midi":69,"time":294.0880882499954,"velocity":0.7244094488188977,"duration":0.4779409374999659},{"name":"C5","midi":72,"time":294.1873529062454,"velocity":0.7244094488188977,"duration":0.09926465624999992},{"name":"D#5","midi":75,"time":294.2884557968704,"velocity":0.7244094488188977,"duration":0.09926465624999992},{"name":"E5","midi":76,"time":294.38955868749537,"velocity":0.7244094488188977,"duration":0.09926465624999992},{"name":"F#5","midi":78,"time":294.49066157812035,"velocity":0.7244094488188977,"duration":0.09926465624999992},{"name":"E5","midi":76,"time":294.59176446874534,"velocity":0.7244094488188977,"duration":0.09926465624999992},{"name":"D#5","midi":75,"time":294.6928673593703,"velocity":0.7244094488188977,"duration":0.09926465624999992},{"name":"F#4","midi":66,"time":294.7939702499953,"velocity":0.7244094488188977,"duration":0.4779409374999659},{"name":"D#5","midi":75,"time":294.8932349062453,"velocity":0.7244094488188977,"duration":0.09926465624999992},{"name":"A5","midi":81,"time":294.9943377968703,"velocity":0.7244094488188977,"duration":0.09926465624999992},{"name":"B5","midi":83,"time":295.0954406874953,"velocity":0.7244094488188977,"duration":0.09926465624999992},{"name":"C6","midi":84,"time":295.19654357812027,"velocity":0.7244094488188977,"duration":0.09926465624999992},{"name":"B5","midi":83,"time":295.29764646874526,"velocity":0.7244094488188977,"duration":0.09926465624999992},{"name":"A5","midi":81,"time":295.39874935937024,"velocity":0.7244094488188977,"duration":0.09926465624999992},{"name":"B5","midi":83,"time":295.49985224999523,"velocity":0.7244094488188977,"duration":0.6617643750000184},{"name":"G4","midi":67,"time":295.49985224999523,"velocity":0.7244094488188977,"duration":0.6617643750000184},{"name":"G4","midi":67,"time":296.20573424999526,"velocity":0.7244094488188977,"duration":0.17463226562500722},{"name":"C4","midi":60,"time":296.20573424999526,"velocity":0.7244094488188977,"duration":0.17463226562500722},{"name":"C5","midi":72,"time":296.20573424999526,"velocity":0.7244094488188977,"duration":0.17463226562500722},{"name":"E5","midi":76,"time":296.20573424999526,"velocity":0.7244094488188977,"duration":0.17463226562500722},{"name":"C5","midi":72,"time":296.38220474999525,"velocity":0.7244094488188977,"duration":0.5275732656249943},{"name":"A3","midi":57,"time":296.38220474999525,"velocity":0.7244094488188977,"duration":0.5275732656249943},{"name":"A4","midi":69,"time":296.38220474999525,"velocity":0.7244094488188977,"duration":0.5275732656249943},{"name":"F#5","midi":78,"time":296.38220474999525,"velocity":0.7244094488188977,"duration":0.5275732656249943},{"name":"D#5","midi":75,"time":296.94102799999524,"velocity":0.7244094488188977,"duration":0.17463226562500722},{"name":"B3","midi":59,"time":296.94102799999524,"velocity":0.7244094488188977,"duration":0.17463226562500722},{"name":"F#4","midi":66,"time":296.94102799999524,"velocity":0.7244094488188977,"duration":0.17463226562500722},{"name":"B4","midi":71,"time":296.94102799999524,"velocity":0.7244094488188977,"duration":0.17463226562500722},{"name":"E5","midi":76,"time":297.11749849999524,"velocity":0.7244094488188977,"duration":0.7040437656249878},{"name":"B4","midi":71,"time":297.11749849999524,"velocity":0.7244094488188977,"duration":0.7040437656249878},{"name":"C#4","midi":61,"time":297.11749849999524,"velocity":0.7244094488188977,"duration":0.7040437656249878},{"name":"G3","midi":55,"time":297.11749849999524,"velocity":0.7244094488188977,"duration":1.6727932812499944},{"name":"E3","midi":52,"time":297.11749849999524,"velocity":0.7244094488188977,"duration":1.6727932812499944},{"name":"C#3","midi":49,"time":297.11749849999524,"velocity":0.7244094488188977,"duration":1.6727932812499944},{"name":"E4","midi":64,"time":297.11749849999524,"velocity":0.7244094488188977,"duration":1.6727932812499944},{"name":"A#4","midi":70,"time":297.8233804999952,"velocity":0.7244094488188977,"duration":0.9669112812500202},{"name":"E3","midi":52,"time":299.4704384999952,"velocity":0.7244094488188977,"duration":0.13786757812499673},{"name":"G3","midi":55,"time":299.5697031562452,"velocity":0.7244094488188977,"duration":0.09926465624999992},{"name":"A#3","midi":58,"time":299.6708060468702,"velocity":0.7244094488188977,"duration":0.09926465624999992},{"name":"B3","midi":59,"time":299.7719089374952,"velocity":0.7244094488188977,"duration":0.09926465624999992},{"name":"C#4","midi":61,"time":299.8730118281202,"velocity":0.7244094488188977,"duration":0.09926465624999992},{"name":"B3","midi":59,"time":299.97411471874517,"velocity":0.7244094488188977,"duration":0.09926465624999992},{"name":"A#3","midi":58,"time":300.07337937499517,"velocity":0.7244094488188977,"duration":0.09926465624999992},{"name":"F3","midi":53,"time":300.17448226562016,"velocity":0.7244094488188977,"duration":0.18382343749999563},{"name":"G#3","midi":56,"time":300.27190868749517,"velocity":0.7244094488188977,"duration":0.11764699999997674},{"name":"B3","midi":59,"time":300.37117334374517,"velocity":0.7244094488188977,"duration":0.09926465624999992},{"name":"C#4","midi":61,"time":300.47227623437016,"velocity":0.7244094488188977,"duration":0.09926465624999992},{"name":"D4","midi":62,"time":300.57154089062016,"velocity":0.7244094488188977,"duration":0.09926465624999992},{"name":"C4","midi":60,"time":300.67264378124514,"velocity":0.7244094488188977,"duration":0.09926465624999992},{"name":"B3","midi":59,"time":300.77007020312016,"velocity":0.7244094488188977,"duration":0.09926465624999992},{"name":"F#3","midi":54,"time":300.87117309374514,"velocity":0.7244094488188977,"duration":0.2297792968750514},{"name":"A3","midi":57,"time":300.96676128124517,"velocity":0.7244094488188977,"duration":0.1360293437500104},{"name":"C4","midi":60,"time":301.06602593749517,"velocity":0.7244094488188977,"duration":0.09926465624999992},{"name":"C#4","midi":61,"time":301.16529059374517,"velocity":0.7244094488188977,"duration":0.09926465624999992},{"name":"D#4","midi":63,"time":301.26455524999517,"velocity":0.7244094488188977,"duration":0.09926465624999992},{"name":"C#4","midi":61,"time":301.36381990624517,"velocity":0.7244094488188977,"duration":0.09926465624999992},{"name":"C4","midi":60,"time":301.4612463281202,"velocity":0.7244094488188977,"duration":0.09926465624999992},{"name":"G3","midi":55,"time":301.5605109843702,"velocity":0.7244094488188977,"duration":0.27573515624999345},{"name":"A#3","midi":58,"time":301.65426093749517,"velocity":0.7244094488188977,"duration":0.15441168749998724},{"name":"C#4","midi":61,"time":301.75352559374517,"velocity":0.7244094488188977,"duration":0.09926465624999992},{"name":"D4","midi":62,"time":301.8509520156202,"velocity":0.7244094488188977,"duration":0.09926465624999992},{"name":"E4","midi":64,"time":301.9502166718702,"velocity":0.7244094488188977,"duration":0.09926465624999992},{"name":"D4","midi":62,"time":302.0476430937452,"velocity":0.7244094488188977,"duration":0.09926465624999992},{"name":"C#4","midi":61,"time":302.1450695156202,"velocity":0.7244094488188977,"duration":0.09926465624999992},{"name":"G#3","midi":56,"time":302.2424959374952,"velocity":0.7244094488188977,"duration":0.32169101562499236},{"name":"B3","midi":59,"time":302.3362458906202,"velocity":0.7244094488188977,"duration":0.1727940312500209},{"name":"D4","midi":62,"time":302.4336723124952,"velocity":0.7244094488188977,"duration":0.09926465624999992},{"name":"E4","midi":64,"time":302.53109873437023,"velocity":0.7244094488188977,"duration":0.09926465624994307},{"name":"F4","midi":65,"time":302.6285251562452,"velocity":0.7244094488188977,"duration":0.09926465624999992},{"name":"E4","midi":64,"time":302.7259515781202,"velocity":0.7244094488188977,"duration":0.09926465624994307},{"name":"D4","midi":62,"time":302.8215397656202,"velocity":0.7244094488188977,"duration":0.09926465624994307},{"name":"A3","midi":57,"time":302.91896618749513,"velocity":0.7244094488188977,"duration":0.36764687499999127},{"name":"C4","midi":60,"time":303.0108779062451,"velocity":0.7244094488188977,"duration":0.19117637499999773},{"name":"D#4","midi":63,"time":303.10830432812014,"velocity":0.7244094488188977,"duration":0.11764699999997674},{"name":"E4","midi":64,"time":303.2038925156201,"velocity":0.7244094488188977,"duration":0.09926465624999992},{"name":"F#4","midi":66,"time":303.3013189374951,"velocity":0.7244094488188977,"duration":0.09926465624994307},{"name":"E4","midi":64,"time":303.3969071249951,"velocity":0.7244094488188977,"duration":0.09926465624994307},{"name":"D#4","midi":63,"time":303.49249531249507,"velocity":0.7244094488188977,"duration":0.09926465624994307},{"name":"A#3","midi":58,"time":303.58808349999504,"velocity":0.7244094488188977,"duration":0.4136027343748765},{"name":"C#4","midi":61,"time":303.67815698437,"velocity":0.7244094488188977,"duration":0.20955871874997456},{"name":"E4","midi":64,"time":303.775583406245,"velocity":0.7244094488188977,"duration":0.13602934374995357},{"name":"F#4","midi":66,"time":303.86933335937,"velocity":0.7244094488188977,"duration":0.09926465624994307},{"name":"G4","midi":67,"time":303.96675978124495,"velocity":0.7244094488188977,"duration":0.09926465624999992},{"name":"F#4","midi":66,"time":304.06050973436993,"velocity":0.7244094488188977,"duration":0.09926465624999992},{"name":"E4","midi":64,"time":304.15609792186996,"velocity":0.7244094488188977,"duration":0.09926465624999992},{"name":"B3","midi":59,"time":304.24984787499494,"velocity":0.7244094488188977,"duration":0.45955859375004593},{"name":"D4","midi":62,"time":304.33992135936995,"velocity":0.7244094488188977,"duration":0.22794106250000823},{"name":"F4","midi":65,"time":304.43550954687,"velocity":0.7244094488188977,"duration":0.15441168749998724},{"name":"F#4","midi":66,"time":304.52925949999496,"velocity":0.7244094488188977,"duration":0.09926465624999992},{"name":"G#4","midi":68,"time":304.624847687495,"velocity":0.7244094488188977,"duration":0.09926465624999992},{"name":"F#4","midi":66,"time":304.71859764062,"velocity":0.7244094488188977,"duration":0.09926465625005676},{"name":"F4","midi":65,"time":304.812347593745,"velocity":0.7244094488188977,"duration":0.09926465625005676},{"name":"C4","midi":60,"time":304.90609754687006,"velocity":0.7244094488188977,"duration":0.5055144531251017},{"name":"D#4","midi":63,"time":304.9943327968701,"velocity":0.7244094488188977,"duration":0.2463234062500419},{"name":"F#4","midi":66,"time":305.0899209843701,"velocity":0.7244094488188977,"duration":0.1727940312500209},{"name":"G4","midi":67,"time":305.1818327031201,"velocity":0.7244094488188977,"duration":0.09926465624999992},{"name":"A4","midi":69,"time":305.27742089062014,"velocity":0.7244094488188977,"duration":0.13786757812499673},{"name":"G4","midi":67,"time":305.36933260937013,"velocity":0.7244094488188977,"duration":0.09926465624999992},{"name":"F#4","midi":66,"time":305.4630825624951,"velocity":0.7244094488188977,"duration":0.09926465624999992},{"name":"C#4","midi":61,"time":305.5549942812451,"velocity":0.7244094488188977,"duration":0.5514703124999869},{"name":"E4","midi":64,"time":305.64322953124514,"velocity":0.7244094488188977,"duration":0.2647057499999619},{"name":"G4","midi":67,"time":305.7369794843701,"velocity":0.7244094488188977,"duration":0.19117637499999773},{"name":"A4","midi":69,"time":305.8288912031201,"velocity":0.7244094488188977,"duration":0.09926465624999992},{"name":"A#4","midi":70,"time":305.9226411562451,"velocity":0.7244094488188977,"duration":0.18382343749999563},{"name":"A4","midi":69,"time":306.0145528749951,"velocity":0.7244094488188977,"duration":0.09926465624999992},{"name":"G4","midi":67,"time":306.1064645937451,"velocity":0.7244094488188977,"duration":0.09926465624999992},{"name":"D4","midi":62,"time":306.1983763124951,"velocity":0.7244094488188977,"duration":0.4595585937499891},{"name":"F4","midi":65,"time":306.2847733281201,"velocity":0.7244094488188977,"duration":0.28308809374999555},{"name":"G#4","midi":68,"time":306.37852328124507,"velocity":0.7244094488188977,"duration":0.2095587187500314},{"name":"A4","midi":69,"time":306.4685967656201,"velocity":0.7244094488188977,"duration":0.09926465624999992},{"name":"B4","midi":71,"time":306.56234671874506,"velocity":0.7244094488188977,"duration":0.22977929687499454},{"name":"A4","midi":69,"time":306.6524202031201,"velocity":0.7244094488188977,"duration":0.09926465624999992},{"name":"G#4","midi":68,"time":306.74433192187007,"velocity":0.7244094488188977,"duration":0.09926465624999992},{"name":"D#4","midi":63,"time":306.8344054062451,"velocity":0.7244094488188977,"duration":0.19852931249999983},{"name":"F#4","midi":66,"time":306.9263171249951,"velocity":0.7244094488188977,"duration":0.19852931249999983},{"name":"A4","midi":69,"time":307.0237435468701,"velocity":0.7244094488188977,"duration":0.19852931249999983},{"name":"B4","midi":71,"time":307.11933173437006,"velocity":0.7244094488188977,"duration":0.10661759375000202},{"name":"C5","midi":72,"time":307.2149199218701,"velocity":0.7244094488188977,"duration":0.2941174999999703},{"name":"B4","midi":71,"time":307.56969915624506,"velocity":0.7244094488188977,"duration":0.13051464062499463},{"name":"A4","midi":69,"time":307.68366968749507,"velocity":0.7244094488188977,"duration":0.16176462499998934},{"name":"E4","midi":64,"time":307.83808137499506,"velocity":0.7244094488188977,"duration":0.6249996875000079},{"name":"G4","midi":67,"time":307.83808137499506,"velocity":0.7244094488188977,"duration":0.6249996875000079},{"name":"E5","midi":76,"time":308.64690449999506,"velocity":0.7244094488188977,"duration":0.15992639062500302},{"name":"A#3","midi":58,"time":308.64690449999506,"velocity":0.7244094488188977,"duration":0.15992639062500302},{"name":"B3","midi":59,"time":308.78293384374507,"velocity":0.7244094488188977,"duration":0.7352937499999825},{"name":"F#4","midi":66,"time":308.78293384374507,"velocity":0.7244094488188977,"duration":0.7352937499999825},{"name":"D#5","midi":75,"time":309.61749224999505,"velocity":0.7244094488188977,"duration":0.17463226562500722},{"name":"B4","midi":71,"time":309.61749224999505,"velocity":0.7244094488188977,"duration":0.17463226562500722},{"name":"B2","midi":47,"time":309.61749224999505,"velocity":0.7244094488188977,"duration":0.17463226562500722},{"name":"A4","midi":69,"time":309.61749224999505,"velocity":0.7244094488188977,"duration":0.17463226562500722},{"name":"D#5","midi":75,"time":309.79396274999505,"velocity":0.7244094488188977,"duration":0.9687495156250066},{"name":"A4","midi":69,"time":309.79396274999505,"velocity":0.7244094488188977,"duration":0.9687495156250066},{"name":"B4","midi":71,"time":309.79396274999505,"velocity":0.7244094488188977,"duration":0.9687495156250066},{"name":"E4","midi":64,"time":309.79396274999505,"velocity":0.7244094488188977,"duration":2.6433810312499872},{"name":"B3","midi":59,"time":309.79396274999505,"velocity":0.7244094488188977,"duration":2.6433810312499872},{"name":"E3","midi":52,"time":309.79396274999505,"velocity":0.7244094488188977,"duration":2.6433810312499872},{"name":"G#4","midi":68,"time":310.76455049999504,"velocity":0.7244094488188977,"duration":1.6727932812499944},{"name":"E5","midi":76,"time":310.76455049999504,"velocity":0.7244094488188977,"duration":1.7610285312500196},{"name":"G5","midi":79,"time":317.5696941562451,"velocity":0.7244094488188977,"duration":0.07352937500002099},{"name":"B4","midi":71,"time":317.64689999999507,"velocity":0.7244094488188977,"duration":0.5091909218749606},{"name":"E5","midi":76,"time":317.64689999999507,"velocity":0.7244094488188977,"duration":0.5091909218749606},{"name":"G5","midi":79,"time":317.64689999999507,"velocity":0.7244094488188977,"duration":0.5091909218749606},{"name":"E3","midi":52,"time":317.64689999999507,"velocity":0.7244094488188977,"duration":2.812498593749467},{"name":"F#3","midi":54,"time":317.99984099999506,"velocity":0.7244094488188977,"duration":0.35110276562488707},{"name":"F#5","midi":78,"time":318.17631149999505,"velocity":0.7244094488188977,"duration":0.056985265624973636},{"name":"E5","midi":76,"time":318.235134999995,"velocity":0.7244094488188977,"duration":0.056985265624973636},{"name":"D#5","midi":75,"time":318.293958499995,"velocity":0.7244094488188977,"duration":0.056985265624973636},{"name":"E5","midi":76,"time":318.35278199999493,"velocity":0.7244094488188977,"duration":0.5091909218749606},{"name":"G3","midi":55,"time":318.35278199999493,"velocity":0.7244094488188977,"duration":0.35110276562500076},{"name":"G#3","midi":56,"time":318.7057229999949,"velocity":0.7244094488188977,"duration":0.35110276562488707},{"name":"D5","midi":74,"time":318.8821934999949,"velocity":0.7244094488188977,"duration":0.056985265624973636},{"name":"C5","midi":72,"time":318.9410169999949,"velocity":0.7244094488188977,"duration":0.056985265624973636},{"name":"B4","midi":71,"time":318.99984049999483,"velocity":0.7244094488188977,"duration":0.056985265624973636},{"name":"C5","midi":72,"time":319.0586639999948,"velocity":0.7244094488188977,"duration":0.5091909218749606},{"name":"A3","midi":57,"time":319.0586639999948,"velocity":0.7244094488188977,"duration":0.35110276562500076},{"name":"B3","midi":59,"time":319.4116049999948,"velocity":0.7244094488188977,"duration":0.35110276562488707},{"name":"B4","midi":71,"time":319.5880754999948,"velocity":0.7244094488188977,"duration":0.056985265624973636},{"name":"A4","midi":69,"time":319.64689899999473,"velocity":0.7244094488188977,"duration":0.056985265624973636},{"name":"G#4","midi":68,"time":319.7057224999947,"velocity":0.7244094488188977,"duration":0.056985265624973636},{"name":"A4","midi":69,"time":319.76454599999465,"velocity":0.7244094488188977,"duration":0.29227926562498396},{"name":"C4","midi":60,"time":319.76454599999465,"velocity":0.7244094488188977,"duration":0.3511027656249439},{"name":"C5","midi":72,"time":320.0586634999946,"velocity":0.7244094488188977,"duration":0.056985265624973636},{"name":"F#4","midi":66,"time":320.1174869999946,"velocity":0.7244094488188977,"duration":0.29227926562498396},{"name":"A3","midi":57,"time":320.1174869999946,"velocity":0.7244094488188977,"duration":0.3511027656249439},{"name":"A4","midi":69,"time":320.41160449999455,"velocity":0.7244094488188977,"duration":0.056985265624973636},{"name":"D#4","midi":63,"time":320.4704279999945,"velocity":0.7244094488188977,"duration":0.5091909218749606},{"name":"F#3","midi":54,"time":320.4704279999945,"velocity":0.7244094488188977,"duration":1.4099257656247346},{"name":"E3","midi":52,"time":320.8233689999945,"velocity":0.7244094488188977,"duration":0.35110276562488707},{"name":"C5","midi":72,"time":320.9998394999945,"velocity":0.7244094488188977,"duration":0.056985265624973636},{"name":"B4","midi":71,"time":321.05866299999445,"velocity":0.7244094488188977,"duration":0.056985265624973636},{"name":"A4","midi":69,"time":321.1174864999944,"velocity":0.7244094488188977,"duration":0.056985265624973636},{"name":"F#5","midi":78,"time":321.1763099999944,"velocity":0.7244094488188977,"duration":0.29227926562498396},{"name":"D#3","midi":51,"time":321.1763099999944,"velocity":0.7244094488188977,"duration":0.3511027656249439},{"name":"A4","midi":69,"time":321.47042749999434,"velocity":0.7244094488188977,"duration":0.056985265624973636},{"name":"B4","midi":71,"time":321.5292509999943,"velocity":0.7244094488188977,"duration":0.29227926562498396},{"name":"B2","midi":47,"time":321.5292509999943,"velocity":0.7244094488188977,"duration":0.3511027656249439},{"name":"F#4","midi":66,"time":321.8233684999943,"velocity":0.7244094488188977,"duration":0.056985265624973636},{"name":"F#4","midi":66,"time":321.88219199999423,"velocity":0.7244094488188977,"duration":0.1654410937500188},{"name":"E3","midi":52,"time":321.88219199999423,"velocity":0.7244094488188977,"duration":0.5091909218749606},{"name":"E2","midi":40,"time":321.88219199999423,"velocity":0.7244094488188977,"duration":0.5091909218749606},{"name":"G4","midi":67,"time":322.0586624999942,"velocity":0.7244094488188977,"duration":0.1654410937500188},{"name":"F#4","midi":66,"time":322.2351329999942,"velocity":0.7244094488188977,"duration":0.17463226562495038},{"name":"E4","midi":64,"time":322.41160349999416,"velocity":0.7244094488188977,"duration":0.17463226562489353},{"name":"B2","midi":47,"time":322.41160349999416,"velocity":0.7244094488188977,"duration":0.056985265624973636},{"name":"C#3","midi":49,"time":322.4704269999941,"velocity":0.7244094488188977,"duration":0.056985265624973636},{"name":"D3","midi":50,"time":322.5292504999941,"velocity":0.7244094488188977,"duration":0.056985265624973636},{"name":"E4","midi":64,"time":322.58807399999404,"velocity":0.7244094488188977,"duration":0.5882349999999406},{"name":"E3","midi":52,"time":322.58807399999404,"velocity":0.7244094488188977,"duration":0.5091909218749606},{"name":"G4","midi":67,"time":322.591750468744,"velocity":0.7244094488188977,"duration":0.5882349999999406},{"name":"B4","midi":71,"time":322.595426937494,"velocity":0.7244094488188977,"duration":0.5882349999999406},{"name":"D3","midi":50,"time":323.117485499994,"velocity":0.7244094488188977,"duration":0.056985265624973636},{"name":"C#3","midi":49,"time":323.176308999994,"velocity":0.7244094488188977,"duration":0.056985265624973636},{"name":"B4","midi":71,"time":323.23513249999394,"velocity":0.7244094488188977,"duration":0.05514703124998732},{"name":"B2","midi":47,"time":323.23513249999394,"velocity":0.7244094488188977,"duration":0.056985265624973636},{"name":"B4","midi":71,"time":323.2939559999939,"velocity":0.7244094488188977,"duration":0.2922792656249271},{"name":"C3","midi":48,"time":323.2939559999939,"velocity":0.7244094488188977,"duration":0.5091909218748469},{"name":"E3","midi":52,"time":323.29763246874387,"velocity":0.7244094488188977,"duration":0.5091909218748469},{"name":"G3","midi":55,"time":323.30130893749384,"velocity":0.7244094488188977,"duration":0.5091909218748469},{"name":"F#4","midi":66,"time":323.5880734999938,"velocity":0.7244094488188977,"duration":0.056985265624973636},{"name":"G4","midi":67,"time":323.64689699999377,"velocity":0.7244094488188977,"duration":0.2922792656248703},{"name":"E3","midi":52,"time":323.8233674999937,"velocity":0.7244094488188977,"duration":0.056985265624973636},{"name":"F#3","midi":54,"time":323.88219099999367,"velocity":0.7244094488188977,"duration":0.056985265624973636},{"name":"E4","midi":64,"time":323.9410144999936,"velocity":0.7244094488188977,"duration":0.056985265624973636},{"name":"G3","midi":55,"time":323.9410144999936,"velocity":0.7244094488188977,"duration":0.056985265624973636},{"name":"C5","midi":72,"time":323.9998379999936,"velocity":0.7244094488188977,"duration":0.6268379218749374},{"name":"E4","midi":64,"time":323.9998379999936,"velocity":0.7244094488188977,"duration":0.6268379218749374},{"name":"A4","midi":69,"time":323.9998379999936,"velocity":0.7244094488188977,"duration":0.6268379218749374},{"name":"A3","midi":57,"time":323.9998379999936,"velocity":0.7244094488188977,"duration":0.29227926562498396},{"name":"C4","midi":60,"time":324.29395549999356,"velocity":0.7244094488188977,"duration":0.056985265624973636},{"name":"E3","midi":52,"time":324.3527789999935,"velocity":0.7244094488188977,"duration":0.29227926562498396},{"name":"C5","midi":72,"time":324.6468964999935,"velocity":0.7244094488188977,"duration":0.056985265624973636},{"name":"G3","midi":55,"time":324.6468964999935,"velocity":0.7244094488188977,"duration":0.056985265624973636},{"name":"C5","midi":72,"time":324.70571999999345,"velocity":0.7244094488188977,"duration":0.29227926562498396},{"name":"A3","midi":57,"time":324.70571999999345,"velocity":0.7244094488188977,"duration":0.5091909218749038},{"name":"D4","midi":62,"time":324.70571999999345,"velocity":0.7244094488188977,"duration":0.5275732656248806},{"name":"F#3","midi":54,"time":324.70571999999345,"velocity":0.7244094488188977,"duration":0.5091909218749038},{"name":"G4","midi":67,"time":324.9998374999934,"velocity":0.7244094488188977,"duration":0.056985265624973636},{"name":"A4","midi":69,"time":325.0586609999934,"velocity":0.7244094488188977,"duration":0.2922792656248703},{"name":"E3","midi":52,"time":325.2351314999933,"velocity":0.7244094488188977,"duration":0.056985265624973636},{"name":"D3","midi":50,"time":325.2939549999933,"velocity":0.7244094488188977,"duration":0.056985265624973636},{"name":"F#4","midi":66,"time":325.35277849999324,"velocity":0.7244094488188977,"duration":0.056985265624973636},{"name":"C3","midi":48,"time":325.35277849999324,"velocity":0.7244094488188977,"duration":0.056985265624973636},{"name":"D5","midi":74,"time":325.4116019999932,"velocity":0.7244094488188977,"duration":0.5863967656249542},{"name":"F#4","midi":66,"time":325.4116019999932,"velocity":0.7244094488188977,"duration":0.5863967656249542},{"name":"B4","midi":71,"time":325.4116019999932,"velocity":0.7244094488188977,"duration":0.5863967656249542},{"name":"B2","midi":47,"time":325.4116019999932,"velocity":0.7244094488188977,"duration":0.29227926562498396},{"name":"F#2","midi":42,"time":325.70571949999317,"velocity":0.7244094488188977,"duration":0.056985265624973636},{"name":"D3","midi":50,"time":325.7645429999931,"velocity":0.7244094488188977,"duration":0.2922792656250408},{"name":"D5","midi":74,"time":326.05866049999315,"velocity":0.7244094488188977,"duration":0.056985265624973636},{"name":"B2","midi":47,"time":326.05866049999315,"velocity":0.7244094488188977,"duration":0.056985265624973636},{"name":"E4","midi":64,"time":326.1174839999931,"velocity":0.7244094488188977,"duration":0.5091909218750175},{"name":"B4","midi":71,"time":326.1174839999931,"velocity":0.7244094488188977,"duration":0.5091909218750175},{"name":"D5","midi":74,"time":326.1174839999931,"velocity":0.7244094488188977,"duration":0.5091909218750175},{"name":"B3","midi":59,"time":326.1174839999931,"velocity":0.7244094488188977,"duration":1.2132346874998348},{"name":"G#3","midi":56,"time":326.1174839999931,"velocity":0.7244094488188977,"duration":1.2132346874998348},{"name":"F5","midi":77,"time":326.64689549999315,"velocity":0.7244094488188977,"duration":0.056985265624973636},{"name":"E5","midi":76,"time":326.7057189999931,"velocity":0.7244094488188977,"duration":0.056985265624973636},{"name":"D5","midi":74,"time":326.76454249999307,"velocity":0.7244094488188977,"duration":0.056985265624973636},{"name":"B5","midi":83,"time":326.82336599999303,"velocity":0.7244094488188977,"duration":0.29227926562498396},{"name":"D5","midi":74,"time":327.117483499993,"velocity":0.7244094488188977,"duration":0.056985265624973636},{"name":"E5","midi":76,"time":327.17630699999296,"velocity":0.7244094488188977,"duration":0.2922792656249271},{"name":"E3","midi":52,"time":327.35277749999295,"velocity":0.7244094488188977,"duration":0.056985265624973636},{"name":"F#3","midi":54,"time":327.4116009999929,"velocity":0.7244094488188977,"duration":0.056985265624973636},{"name":"B4","midi":71,"time":327.4704244999929,"velocity":0.7244094488188977,"duration":0.056985265624973636},{"name":"G#3","midi":56,"time":327.4704244999929,"velocity":0.7244094488188977,"duration":0.056985265624973636},{"name":"B4","midi":71,"time":327.52924799999283,"velocity":0.7244094488188977,"duration":0.17463226562500722},{"name":"A3","midi":57,"time":327.52924799999283,"velocity":0.7244094488188977,"duration":0.17463226562500722},{"name":"C5","midi":72,"time":327.7057184999928,"velocity":0.7244094488188977,"duration":0.17463226562495038},{"name":"B3","midi":59,"time":327.7057184999928,"velocity":0.7244094488188977,"duration":0.08639701562498203},{"name":"C4","midi":60,"time":327.7939537499928,"velocity":0.7244094488188977,"duration":0.08639701562498203},{"name":"B4","midi":71,"time":327.88218899999276,"velocity":0.7244094488188977,"duration":0.17463226562495038},{"name":"D4","midi":62,"time":327.88218899999276,"velocity":0.7244094488188977,"duration":0.08639701562498203},{"name":"E4","midi":64,"time":327.97042424999273,"velocity":0.7244094488188977,"duration":0.08639701562498203},{"name":"A4","midi":69,"time":328.0586594999927,"velocity":0.7244094488188977,"duration":0.17463226562495038},{"name":"F#4","midi":66,"time":328.0586594999927,"velocity":0.7244094488188977,"duration":0.08639701562498203},{"name":"G#4","midi":68,"time":328.14689474999267,"velocity":0.7244094488188977,"duration":0.08639701562498203},{"name":"E5","midi":76,"time":328.23512999999264,"velocity":0.7244094488188977,"duration":0.5275732656249374},{"name":"A4","midi":69,"time":328.23512999999264,"velocity":0.7244094488188977,"duration":0.29227926562498396},{"name":"F#4","midi":66,"time":328.5292474999926,"velocity":0.7244094488188977,"duration":0.056985265624973636},{"name":"G4","midi":67,"time":328.58807099999257,"velocity":0.7244094488188977,"duration":0.2922792656249271},{"name":"E5","midi":76,"time":328.76454149999256,"velocity":0.7244094488188977,"duration":0.056985265624973636},{"name":"D5","midi":74,"time":328.8233649999925,"velocity":0.7244094488188977,"duration":0.056985265624973636},{"name":"E5","midi":76,"time":328.8821884999925,"velocity":0.7244094488188977,"duration":0.056985265624973636},{"name":"E4","midi":64,"time":328.8821884999925,"velocity":0.7244094488188977,"duration":0.056985265624973636},{"name":"E5","midi":76,"time":328.94101199999244,"velocity":0.7244094488188977,"duration":0.17463226562500722},{"name":"F#4","midi":66,"time":328.94101199999244,"velocity":0.7244094488188977,"duration":0.43933801562491226},{"name":"D#5","midi":75,"time":329.11748249999243,"velocity":0.7244094488188977,"duration":0.08639701562498203},{"name":"C#5","midi":73,"time":329.2057177499924,"velocity":0.7244094488188977,"duration":0.08639701562498203},{"name":"D#5","midi":75,"time":329.29395299999237,"velocity":0.7244094488188977,"duration":0.08639701562498203},{"name":"E5","midi":76,"time":329.38218824999234,"velocity":0.7244094488188977,"duration":0.08639701562498203},{"name":"G4","midi":67,"time":329.38218824999234,"velocity":0.7244094488188977,"duration":0.08639701562498203},{"name":"F#5","midi":78,"time":329.4704234999923,"velocity":0.7244094488188977,"duration":0.08639701562498203},{"name":"F#4","midi":66,"time":329.4704234999923,"velocity":0.7244094488188977,"duration":0.08639701562498203},{"name":"G5","midi":79,"time":329.5586587499923,"velocity":0.7244094488188977,"duration":0.08639701562498203},{"name":"E4","midi":64,"time":329.5586587499923,"velocity":0.7244094488188977,"duration":0.08639701562498203},{"name":"A5","midi":81,"time":329.64689399999224,"velocity":0.7244094488188977,"duration":0.29227926562498396},{"name":"D#4","midi":63,"time":329.64689399999224,"velocity":0.7244094488188977,"duration":0.5275732656249374},{"name":"C5","midi":72,"time":329.9410114999922,"velocity":0.7244094488188977,"duration":0.056985265624973636},{"name":"B4","midi":71,"time":329.9998349999922,"velocity":0.7244094488188977,"duration":0.2922792656249271},{"name":"B3","midi":59,"time":330.17630549999217,"velocity":0.7244094488188977,"duration":0.056985265624973636},{"name":"C#4","midi":61,"time":330.2351289999921,"velocity":0.7244094488188977,"duration":0.056985265624973636},{"name":"A5","midi":81,"time":330.2939524999921,"velocity":0.7244094488188977,"duration":0.056985265624973636},{"name":"D#4","midi":63,"time":330.2939524999921,"velocity":0.7244094488188977,"duration":0.056985265624973636},{"name":"G5","midi":79,"time":330.35277599999205,"velocity":0.7244094488188977,"duration":0.28492632812498186},{"name":"E4","midi":64,"time":330.35277599999205,"velocity":0.7244094488188977,"duration":0.3511027656249439},{"name":"B4","midi":71,"time":330.646893499992,"velocity":0.7244094488188977,"duration":0.056985265624973636},{"name":"A#4","midi":70,"time":330.705716999992,"velocity":0.7244094488188977,"duration":0.28492632812498186},{"name":"C#4","midi":61,"time":330.705716999992,"velocity":0.7244094488188977,"duration":0.3511027656249439},{"name":"E5","midi":76,"time":330.99983449999195,"velocity":0.7244094488188977,"duration":0.056985265624973636},{"name":"F#5","midi":78,"time":331.0586579999919,"velocity":0.7244094488188977,"duration":0.28492632812498186},{"name":"D4","midi":62,"time":331.0586579999919,"velocity":0.7244094488188977,"duration":0.3511027656249439},{"name":"A4","midi":69,"time":331.3527754999919,"velocity":0.7244094488188977,"duration":0.056985265624973636},{"name":"G#4","midi":68,"time":331.41159899999184,"velocity":0.7244094488188977,"duration":0.28492632812498186},{"name":"B3","midi":59,"time":331.41159899999184,"velocity":0.7244094488188977,"duration":0.3511027656249439},{"name":"D5","midi":74,"time":331.7057164999918,"velocity":0.7244094488188977,"duration":0.056985265624973636},{"name":"E5","midi":76,"time":331.76453999999177,"velocity":0.7244094488188977,"duration":0.28492632812498186},{"name":"C#4","midi":61,"time":331.76453999999177,"velocity":0.7244094488188977,"duration":0.3511027656249439},{"name":"G4","midi":67,"time":332.05865749999174,"velocity":0.7244094488188977,"duration":0.056985265624973636},{"name":"F#4","midi":66,"time":332.1174809999917,"velocity":0.7244094488188977,"duration":0.28492632812498186},{"name":"A#3","midi":58,"time":332.1174809999917,"velocity":0.7244094488188977,"duration":0.3511027656249439},{"name":"C#5","midi":73,"time":332.41159849999167,"velocity":0.7244094488188977,"duration":0.056985265624973636},{"name":"D5","midi":74,"time":332.47042199999163,"velocity":0.7244094488188977,"duration":0.28492632812498186},{"name":"B3","midi":59,"time":332.47042199999163,"velocity":0.7244094488188977,"duration":0.5091909218749038},{"name":"A#4","midi":70,"time":332.7645394999916,"velocity":0.7244094488188977,"duration":0.056985265624973636},{"name":"B4","midi":71,"time":332.82336299999156,"velocity":0.7244094488188977,"duration":0.28492632812498186},{"name":"B2","midi":47,"time":332.99983349999155,"velocity":0.7244094488188977,"duration":0.056985265624973636},{"name":"C#3","midi":49,"time":333.0586569999915,"velocity":0.7244094488188977,"duration":0.05698526562503048},{"name":"F#4","midi":66,"time":333.11748049999153,"velocity":0.7244094488188977,"duration":0.056985265624973636},{"name":"D3","midi":50,"time":333.11748049999153,"velocity":0.7244094488188977,"duration":0.056985265624973636},{"name":"G4","midi":67,"time":333.1763039999915,"velocity":0.7244094488188977,"duration":0.28492632812498186},{"name":"E3","midi":52,"time":333.1763039999915,"velocity":0.7244094488188977,"duration":0.5091909218749038},{"name":"D#4","midi":63,"time":333.47042149999146,"velocity":0.7244094488188977,"duration":0.056985265624973636},{"name":"E4","midi":64,"time":333.5292449999914,"velocity":0.7244094488188977,"duration":0.28492632812498186},{"name":"D3","midi":50,"time":333.7057154999914,"velocity":0.7244094488188977,"duration":0.056985265624973636},{"name":"E3","midi":52,"time":333.7645389999914,"velocity":0.7244094488188977,"duration":0.05698526562503048},{"name":"G4","midi":67,"time":333.8233624999914,"velocity":0.7244094488188977,"duration":0.056985265624973636},{"name":"F#3","midi":54,"time":333.8233624999914,"velocity":0.7244094488188977,"duration":0.056985265624973636},{"name":"C#5","midi":73,"time":333.88218599999135,"velocity":0.7244094488188977,"duration":0.28492632812498186},{"name":"G3","midi":55,"time":333.88218599999135,"velocity":0.7244094488188977,"duration":0.5091909218749038},{"name":"A#4","midi":70,"time":334.1763034999913,"velocity":0.7244094488188977,"duration":0.056985265624973636},{"name":"E5","midi":76,"time":334.2351269999913,"velocity":0.7244094488188977,"duration":0.28492632812498186},{"name":"E3","midi":52,"time":334.4115974999913,"velocity":0.7244094488188977,"duration":0.056985265624973636},{"name":"F#3","midi":54,"time":334.47042099999123,"velocity":0.7244094488188977,"duration":0.05698526562503048},{"name":"C#5","midi":73,"time":334.52924449999125,"velocity":0.7244094488188977,"duration":0.056985265624973636},{"name":"G3","midi":55,"time":334.52924449999125,"velocity":0.7244094488188977,"duration":0.056985265624973636},{"name":"G5","midi":79,"time":334.5880679999912,"velocity":0.7244094488188977,"duration":0.23345576562502401},{"name":"A#2","midi":46,"time":334.5880679999912,"velocity":0.7244094488188977,"duration":0.3511027656249439},{"name":"F#5","midi":78,"time":334.8233619999912,"velocity":0.7244094488188977,"duration":0.056985265624973636},{"name":"E5","midi":76,"time":334.8821854999912,"velocity":0.7244094488188977,"duration":0.056985265624973636},{"name":"A#5","midi":82,"time":334.94100899999114,"velocity":0.7244094488188977,"duration":0.23345576562502401},{"name":"F#2","midi":42,"time":334.94100899999114,"velocity":0.7244094488188977,"duration":0.3511027656249439},{"name":"G#5","midi":80,"time":335.17630299999115,"velocity":0.7244094488188977,"duration":0.056985265624973636},{"name":"F#5","midi":78,"time":335.2351264999911,"velocity":0.7244094488188977,"duration":0.056985265624973636},{"name":"B5","midi":83,"time":335.29394999999107,"velocity":0.7244094488188977,"duration":0.17463226562500722},{"name":"D3","midi":50,"time":335.29394999999107,"velocity":0.7244094488188977,"duration":0.3511027656249439},{"name":"A5","midi":81,"time":335.47042049999106,"velocity":0.7244094488188977,"duration":0.08639701562498203},{"name":"G5","midi":79,"time":335.55865574999103,"velocity":0.7244094488188977,"duration":0.08639701562498203},{"name":"F#5","midi":78,"time":335.646890999991,"velocity":0.7244094488188977,"duration":0.08639701562498203},{"name":"B2","midi":47,"time":335.646890999991,"velocity":0.7244094488188977,"duration":0.35110276562488707},{"name":"E5","midi":76,"time":335.73512624999097,"velocity":0.7244094488188977,"duration":0.08639701562498203},{"name":"D5","midi":74,"time":335.82336149999094,"velocity":0.7244094488188977,"duration":0.08639701562498203},{"name":"C#5","midi":73,"time":335.9115967499909,"velocity":0.7244094488188977,"duration":0.08639701562498203},{"name":"D5","midi":74,"time":335.9998319999909,"velocity":0.7244094488188977,"duration":0.08639701562498203},{"name":"F#3","midi":54,"time":335.9998319999909,"velocity":0.7244094488188977,"duration":1.4099257656246778},{"name":"C#5","midi":73,"time":336.08806724999084,"velocity":0.7244094488188977,"duration":0.08639701562498203},{"name":"B4","midi":71,"time":336.1763024999908,"velocity":0.7244094488188977,"duration":0.08639701562498203},{"name":"A#4","midi":70,"time":336.2645377499908,"velocity":0.7244094488188977,"duration":0.08639701562498203},{"name":"B4","midi":71,"time":336.35277299999075,"velocity":0.7244094488188977,"duration":0.28492632812498186},{"name":"D4","midi":62,"time":336.35277299999075,"velocity":0.7244094488188977,"duration":0.3511027656249439},{"name":"F4","midi":65,"time":336.6468904999907,"velocity":0.7244094488188977,"duration":0.056985265624973636},{"name":"F#4","midi":66,"time":336.7057139999907,"velocity":0.7244094488188977,"duration":0.28492632812498186},{"name":"C#4","midi":61,"time":336.7057139999907,"velocity":0.7244094488188977,"duration":0.3511027656249439},{"name":"B4","midi":71,"time":336.99983149999065,"velocity":0.7244094488188977,"duration":0.056985265624973636},{"name":"C#5","midi":73,"time":337.0586549999906,"velocity":0.7244094488188977,"duration":0.28492632812498186},{"name":"E4","midi":64,"time":337.0586549999906,"velocity":0.7244094488188977,"duration":0.3511027656249439},{"name":"A#4","midi":70,"time":337.3527724999906,"velocity":0.7244094488188977,"duration":0.056985265624973636},{"name":"A#4","midi":70,"time":337.41159599999054,"velocity":0.7244094488188977,"duration":0.35110276562500076},{"name":"E4","midi":64,"time":337.41159599999054,"velocity":0.7244094488188977,"duration":0.35110276562500076},{"name":"B2","midi":47,"time":337.41159599999054,"velocity":0.7244094488188977,"duration":0.5863967656250111},{"name":"B4","midi":71,"time":337.7645369999905,"velocity":0.7244094488188977,"duration":0.6985290624999152},{"name":"D#4","midi":63,"time":337.7645369999905,"velocity":0.7244094488188977,"duration":0.3492645312499576},{"name":"D#3","midi":51,"time":337.99983099999054,"velocity":0.7244094488188977,"duration":0.056985265624973636},{"name":"F#3","midi":54,"time":338.0586544999905,"velocity":0.7244094488188977,"duration":0.056985265624973636},{"name":"B3","midi":59,"time":338.11747799999046,"velocity":0.7244094488188977,"duration":0.3492645312499576},{"name":"D#4","midi":63,"time":338.35277199999047,"velocity":0.7244094488188977,"duration":0.056985265624973636},{"name":"F#4","midi":66,"time":338.4115954999904,"velocity":0.7244094488188977,"duration":0.056985265624973636},{"name":"B4","midi":71,"time":338.4704189999904,"velocity":0.7244094488188977,"duration":0.3492645312499576},{"name":"D#5","midi":75,"time":338.7057129999904,"velocity":0.7244094488188977,"duration":0.056985265624973636},{"name":"F#5","midi":78,"time":338.76453649999036,"velocity":0.7244094488188977,"duration":0.056985265624973636},{"name":"B5","midi":83,"time":338.8233599999903,"velocity":0.7244094488188977,"duration":0.6985290624999152},{"name":"F#5","midi":78,"time":339.0586539999903,"velocity":0.7244094488188977,"duration":0.056985265624973636},{"name":"D#5","midi":75,"time":339.1174774999903,"velocity":0.7244094488188977,"duration":0.056985265624973636},{"name":"B4","midi":71,"time":339.17630099999025,"velocity":0.7244094488188977,"duration":0.3492645312499576},{"name":"F#4","midi":66,"time":339.41159499999026,"velocity":0.7244094488188977,"duration":0.056985265624973636},{"name":"D#4","midi":63,"time":339.4704184999902,"velocity":0.7244094488188977,"duration":0.056985265624973636},{"name":"B3","midi":59,"time":339.5292419999902,"velocity":0.7244094488188977,"duration":0.5294114999999806},{"name":"F#5","midi":78,"time":340.17630049999013,"velocity":0.7244094488188977,"duration":0.056985265624973636},{"name":"B4","midi":71,"time":340.2351239999901,"velocity":0.7244094488188977,"duration":0.5091909218749606},{"name":"D#5","midi":75,"time":340.2351239999901,"velocity":0.7244094488188977,"duration":0.5091909218749606},{"name":"F#5","midi":78,"time":340.2351239999901,"velocity":0.7244094488188977,"duration":0.5091909218749606},{"name":"B2","midi":47,"time":340.2351239999901,"velocity":0.7244094488188977,"duration":0.35110276562500076},{"name":"B3","midi":59,"time":340.5880649999901,"velocity":0.7244094488188977,"duration":0.35110276562488707},{"name":"E5","midi":76,"time":340.7645354999901,"velocity":0.7244094488188977,"duration":0.056985265624973636},{"name":"D#5","midi":75,"time":340.82335899999003,"velocity":0.7244094488188977,"duration":0.056985265624973636},{"name":"C#5","midi":73,"time":340.88218249999,"velocity":0.7244094488188977,"duration":0.056985265624973636},{"name":"D#5","midi":75,"time":340.94100599998995,"velocity":0.7244094488188977,"duration":0.5091909218749606},{"name":"F#3","midi":54,"time":340.94100599998995,"velocity":0.7244094488188977,"duration":0.35110276562500076},{"name":"A3","midi":57,"time":341.29394699998994,"velocity":0.7244094488188977,"duration":0.35110276562488707},{"name":"C5","midi":72,"time":341.47041749998994,"velocity":0.7244094488188977,"duration":0.056985265624973636},{"name":"B4","midi":71,"time":341.5292409999899,"velocity":0.7244094488188977,"duration":0.056985265624973636},{"name":"A4","midi":69,"time":341.58806449998985,"velocity":0.7244094488188977,"duration":0.056985265624973636},{"name":"B4","midi":71,"time":341.6468879999898,"velocity":0.7244094488188977,"duration":0.29227926562498396},{"name":"D#3","midi":51,"time":341.6468879999898,"velocity":0.7244094488188977,"duration":0.3511027656249439},{"name":"F#4","midi":66,"time":341.9410054999898,"velocity":0.7244094488188977,"duration":0.056985265624973636},{"name":"A4","midi":69,"time":341.99982899998975,"velocity":0.7244094488188977,"duration":0.29227926562498396},{"name":"F#3","midi":54,"time":341.99982899998975,"velocity":0.7244094488188977,"duration":0.3511027656249439},{"name":"C5","midi":72,"time":342.2939464999897,"velocity":0.7244094488188977,"duration":0.056985265624973636},{"name":"E5","midi":76,"time":342.3527699999897,"velocity":0.7244094488188977,"duration":0.08639701562498203},{"name":"B2","midi":47,"time":342.3527699999897,"velocity":0.7244094488188977,"duration":0.35110276562488707},{"name":"D#5","midi":75,"time":342.44100524998964,"velocity":0.7244094488188977,"duration":0.08639701562498203},{"name":"C#5","midi":73,"time":342.5292404999896,"velocity":0.7244094488188977,"duration":0.08639701562498203},{"name":"B4","midi":71,"time":342.6174757499896,"velocity":0.7244094488188977,"duration":0.08639701562498203},{"name":"A5","midi":81,"time":342.70571099998955,"velocity":0.7244094488188977,"duration":0.29227926562498396},{"name":"D#3","midi":51,"time":342.70571099998955,"velocity":0.7244094488188977,"duration":0.3511027656249439},{"name":"F#5","midi":78,"time":342.9998284999895,"velocity":0.7244094488188977,"duration":0.056985265624973636},{"name":"G5","midi":79,"time":343.0586519999895,"velocity":0.7244094488188977,"duration":0.7922790156247856},{"name":"E2","midi":40,"time":343.0586519999895,"velocity":0.7244094488188977,"duration":0.3492645312499576},{"name":"E5","midi":76,"time":343.1468872499895,"velocity":0.7244094488188977,"duration":0.08639701562498203},{"name":"D5","midi":74,"time":343.2351224999895,"velocity":0.7244094488188977,"duration":0.08639701562498203},{"name":"C5","midi":72,"time":343.32335774998944,"velocity":0.7244094488188977,"duration":0.08639701562498203},{"name":"B4","midi":71,"time":343.4115929999894,"velocity":0.7244094488188977,"duration":0.08639701562498203},{"name":"A4","midi":69,"time":343.4998282499894,"velocity":0.7244094488188977,"duration":0.08639701562498203},{"name":"G4","midi":67,"time":343.58806349998935,"velocity":0.7244094488188977,"duration":0.08639701562498203},{"name":"F#4","midi":66,"time":343.6762987499893,"velocity":0.7244094488188977,"duration":0.08639701562498203},{"name":"E4","midi":64,"time":343.7645339999893,"velocity":0.7244094488188977,"duration":0.08639701562498203},{"name":"B5","midi":83,"time":343.85276924998925,"velocity":0.7244094488188977,"duration":0.08639701562498203},{"name":"G4","midi":67,"time":343.85276924998925,"velocity":0.7244094488188977,"duration":0.08639701562498203},{"name":"A5","midi":81,"time":343.9410044999892,"velocity":0.7244094488188977,"duration":0.08639701562498203},{"name":"F#4","midi":66,"time":343.9410044999892,"velocity":0.7244094488188977,"duration":0.08639701562498203},{"name":"G5","midi":79,"time":344.0292397499892,"velocity":0.7244094488188977,"duration":0.08639701562498203},{"name":"E4","midi":64,"time":344.0292397499892,"velocity":0.7244094488188977,"duration":0.08639701562498203},{"name":"F#5","midi":78,"time":344.11747499998916,"velocity":0.7244094488188977,"duration":0.08639701562498203},{"name":"D4","midi":62,"time":344.11747499998916,"velocity":0.7244094488188977,"duration":0.08639701562498203},{"name":"E5","midi":76,"time":344.2057102499891,"velocity":0.7244094488188977,"duration":0.08639701562498203},{"name":"C4","midi":60,"time":344.2057102499891,"velocity":0.7244094488188977,"duration":0.08639701562498203},{"name":"D5","midi":74,"time":344.2939454999891,"velocity":0.7244094488188977,"duration":0.08639701562498203},{"name":"B3","midi":59,"time":344.2939454999891,"velocity":0.7244094488188977,"duration":0.08639701562498203},{"name":"C5","midi":72,"time":344.38218074998906,"velocity":0.7244094488188977,"duration":0.08639701562498203},{"name":"A3","midi":57,"time":344.38218074998906,"velocity":0.7244094488188977,"duration":0.08639701562498203},{"name":"D5","midi":74,"time":344.47041599998903,"velocity":0.7244094488188977,"duration":0.08639701562498203},{"name":"G#3","midi":56,"time":344.47041599998903,"velocity":0.7244094488188977,"duration":0.5091909218748469},{"name":"F5","midi":77,"time":344.558651249989,"velocity":0.7244094488188977,"duration":0.08639701562498203},{"name":"E5","midi":76,"time":344.64688649998897,"velocity":0.7244094488188977,"duration":0.08639701562498203},{"name":"D5","midi":74,"time":344.73512174998893,"velocity":0.7244094488188977,"duration":0.08639701562498203},{"name":"B5","midi":83,"time":344.8233569999889,"velocity":0.7244094488188977,"duration":0.2867645624999682},{"name":"F3","midi":53,"time":344.9998274999889,"velocity":0.7244094488188977,"duration":0.056985265624973636},{"name":"E3","midi":52,"time":345.05865099998886,"velocity":0.7244094488188977,"duration":0.05698526562503048},{"name":"C6","midi":84,"time":345.1174744999889,"velocity":0.7244094488188977,"duration":0.056985265624973636},{"name":"D3","midi":50,"time":345.1174744999889,"velocity":0.7244094488188977,"duration":0.056985265624973636},{"name":"A5","midi":81,"time":345.17629799998883,"velocity":0.7244094488188977,"duration":0.056985265624973636},{"name":"B3","midi":59,"time":345.17629799998883,"velocity":0.7244094488188977,"duration":0.29227926562481343},{"name":"G#5","midi":80,"time":345.2351214999888,"velocity":0.7244094488188977,"duration":0.056985265624973636},{"name":"A5","midi":81,"time":345.29394499998875,"velocity":0.7244094488188977,"duration":0.056985265624973636},{"name":"G#5","midi":80,"time":345.3527684999887,"velocity":0.7244094488188977,"duration":0.056985265624973636},{"name":"A5","midi":81,"time":345.4115919999887,"velocity":0.7244094488188977,"duration":0.056985265624973636},{"name":"G#5","midi":80,"time":345.47041549998863,"velocity":0.7244094488188977,"duration":0.056985265624973636},{"name":"D3","midi":50,"time":345.47041549998863,"velocity":0.7244094488188977,"duration":0.056985265624973636},{"name":"A5","midi":81,"time":345.5292389999886,"velocity":0.7244094488188977,"duration":0.056985265624973636},{"name":"E3","midi":52,"time":345.5292389999886,"velocity":0.7244094488188977,"duration":0.29227926562481343},{"name":"G#5","midi":80,"time":345.58806249998855,"velocity":0.7244094488188977,"duration":0.056985265624973636},{"name":"A5","midi":81,"time":345.6468859999885,"velocity":0.7244094488188977,"duration":0.056985265624973636},{"name":"G#5","midi":80,"time":345.7057094999885,"velocity":0.7244094488188977,"duration":0.056985265624973636},{"name":"F#5","midi":78,"time":345.76453299998843,"velocity":0.7244094488188977,"duration":0.056985265624973636},{"name":"G#5","midi":80,"time":345.8233564999884,"velocity":0.7244094488188977,"duration":0.056985265624973636},{"name":"B2","midi":47,"time":345.8233564999884,"velocity":0.7244094488188977,"duration":0.056985265624973636},{"name":"A5","midi":81,"time":345.88217999998835,"velocity":0.7244094488188977,"duration":0.23345576562502401},{"name":"C3","midi":48,"time":345.88217999998835,"velocity":0.7244094488188977,"duration":0.5091909218748469},{"name":"A4","midi":69,"time":346.11747399998836,"velocity":0.7244094488188977,"duration":0.056985265624973636},{"name":"B4","midi":71,"time":346.1762974999883,"velocity":0.7244094488188977,"duration":0.056985265624973636},{"name":"C5","midi":72,"time":346.2351209999883,"velocity":0.7244094488188977,"duration":0.056985265624973636},{"name":"B4","midi":71,"time":346.29394449998824,"velocity":0.7244094488188977,"duration":0.056985265624973636},{"name":"C5","midi":72,"time":346.3527679999882,"velocity":0.7244094488188977,"duration":0.056985265624973636},{"name":"B4","midi":71,"time":346.41159149998816,"velocity":0.7244094488188977,"duration":0.056985265624973636},{"name":"E3","midi":52,"time":346.41159149998816,"velocity":0.7244094488188977,"duration":0.056985265624973636},{"name":"A4","midi":69,"time":346.4704149999881,"velocity":0.7244094488188977,"duration":0.056985265624973636},{"name":"F#3","midi":54,"time":346.4704149999881,"velocity":0.7244094488188977,"duration":0.056985265624973636},{"name":"B4","midi":71,"time":346.5292384999881,"velocity":0.7244094488188977,"duration":0.056985265624973636},{"name":"G#3","midi":56,"time":346.5292384999881,"velocity":0.7244094488188977,"duration":0.056985265624973636},{"name":"C5","midi":72,"time":346.58806199998804,"velocity":0.7244094488188977,"duration":0.17463226562500722},{"name":"A3","midi":57,"time":346.58806199998804,"velocity":0.7244094488188977,"duration":0.5091909218749038},{"name":"B4","midi":71,"time":346.76453249998804,"velocity":0.7244094488188977,"duration":0.08639701562498203},{"name":"A4","midi":69,"time":346.852767749988,"velocity":0.7244094488188977,"duration":0.08639701562498203},{"name":"B4","midi":71,"time":346.941002999988,"velocity":0.7244094488188977,"duration":0.08639701562498203},{"name":"C5","midi":72,"time":347.02923824998794,"velocity":0.7244094488188977,"duration":0.08639701562498203},{"name":"D5","midi":74,"time":347.1174734999879,"velocity":0.7244094488188977,"duration":0.08639701562498203},{"name":"G3","midi":55,"time":347.1174734999879,"velocity":0.7244094488188977,"duration":0.056985265624973636},{"name":"F3","midi":53,"time":347.17629699998787,"velocity":0.7244094488188977,"duration":0.05698526562503048},{"name":"E5","midi":76,"time":347.2057087499879,"velocity":0.7244094488188977,"duration":0.08639701562498203},{"name":"E3","midi":52,"time":347.2351204999879,"velocity":0.7244094488188977,"duration":0.056985265624973636},{"name":"F5","midi":77,"time":347.29394399998785,"velocity":0.7244094488188977,"duration":0.28492632812498186},{"name":"D3","midi":50,"time":347.29394399998785,"velocity":0.7244094488188977,"duration":0.3511027656249439},{"name":"A4","midi":69,"time":347.5880614999878,"velocity":0.7244094488188977,"duration":0.056985265624973636},{"name":"G#4","midi":68,"time":347.6468849999878,"velocity":0.7244094488188977,"duration":0.28492632812498186},{"name":"B3","midi":59,"time":347.6468849999878,"velocity":0.7244094488188977,"duration":0.3511027656249439},{"name":"D5","midi":74,"time":347.94100249998775,"velocity":0.7244094488188977,"duration":0.056985265624973636},{"name":"E5","midi":76,"time":347.9998259999877,"velocity":0.7244094488188977,"duration":0.28492632812498186},{"name":"C#3","midi":49,"time":347.9998259999877,"velocity":0.7244094488188977,"duration":0.3511027656249439},{"name":"G4","midi":67,"time":348.2939434999877,"velocity":0.7244094488188977,"duration":0.056985265624973636},{"name":"F#4","midi":66,"time":348.35276699998764,"velocity":0.7244094488188977,"duration":0.28492632812498186},{"name":"A3","midi":57,"time":348.35276699998764,"velocity":0.7244094488188977,"duration":0.3511027656249439},{"name":"C#5","midi":73,"time":348.6468844999876,"velocity":0.7244094488188977,"duration":0.056985265624973636},{"name":"D5","midi":74,"time":348.70570799998757,"velocity":0.7244094488188977,"duration":0.28492632812498186},{"name":"B2","midi":47,"time":348.70570799998757,"velocity":0.7244094488188977,"duration":0.3511027656249439},{"name":"F4","midi":65,"time":348.99982549998754,"velocity":0.7244094488188977,"duration":0.056985265624973636},{"name":"E4","midi":64,"time":349.0586489999875,"velocity":0.7244094488188977,"duration":0.28492632812498186},{"name":"G#3","midi":56,"time":349.0586489999875,"velocity":0.7244094488188977,"duration":0.3511027656249439},{"name":"B4","midi":71,"time":349.35276649998747,"velocity":0.7244094488188977,"duration":0.056985265624973636},{"name":"C5","midi":72,"time":349.4115899999874,"velocity":0.7244094488188977,"duration":0.28492632812498186},{"name":"A2","midi":45,"time":349.4115899999874,"velocity":0.7244094488188977,"duration":0.3511027656249439},{"name":"E4","midi":64,"time":349.7057074999874,"velocity":0.7244094488188977,"duration":0.056985265624973636},{"name":"D#4","midi":63,"time":349.76453099998736,"velocity":0.7244094488188977,"duration":0.28492632812498186},{"name":"F#3","midi":54,"time":349.76453099998736,"velocity":0.7244094488188977,"duration":0.3511027656249439},{"name":"A4","midi":69,"time":350.0586484999873,"velocity":0.7244094488188977,"duration":0.056985265624973636},{"name":"B4","midi":71,"time":350.1174719999873,"velocity":0.7244094488188977,"duration":0.28492632812498186},{"name":"G3","midi":55,"time":350.1174719999873,"velocity":0.7244094488188977,"duration":0.3511027656249439},{"name":"D4","midi":62,"time":350.41158949998726,"velocity":0.7244094488188977,"duration":0.056985265624973636},{"name":"C#4","midi":61,"time":350.4704129999872,"velocity":0.7244094488188977,"duration":0.28492632812498186},{"name":"A3","midi":57,"time":350.4704129999872,"velocity":0.7244094488188977,"duration":0.3511027656249439},{"name":"G#4","midi":68,"time":350.7645304999872,"velocity":0.7244094488188977,"duration":0.056985265624973636},{"name":"A4","midi":69,"time":350.82335399998715,"velocity":0.7244094488188977,"duration":0.28492632812498186},{"name":"F3","midi":53,"time":350.82335399998715,"velocity":0.7244094488188977,"duration":0.3511027656249439},{"name":"C4","midi":60,"time":351.1174714999871,"velocity":0.7244094488188977,"duration":0.056985265624973636},{"name":"B3","midi":59,"time":351.1762949999871,"velocity":0.7244094488188977,"duration":0.28492632812498186},{"name":"D3","midi":50,"time":351.1762949999871,"velocity":0.7244094488188977,"duration":0.3511027656249439},{"name":"F#4","midi":66,"time":351.47041249998705,"velocity":0.7244094488188977,"duration":0.056985265624973636},{"name":"A4","midi":69,"time":351.529235999987,"velocity":0.7244094488188977,"duration":0.17463226562500722},{"name":"E3","midi":52,"time":351.529235999987,"velocity":0.7244094488188977,"duration":0.9136024843749055},{"name":"G#4","midi":68,"time":351.705706499987,"velocity":0.7244094488188977,"duration":0.17463226562500722},{"name":"F#4","midi":66,"time":351.882176999987,"velocity":0.7244094488188977,"duration":0.17463226562500722},{"name":"E4","midi":64,"time":352.058647499987,"velocity":0.7244094488188977,"duration":0.17463226562500722},{"name":"D5","midi":74,"time":352.235117999987,"velocity":0.7244094488188977,"duration":0.056985265624973636},{"name":"C5","midi":72,"time":352.29394149998694,"velocity":0.7244094488188977,"duration":0.056985265624973636},{"name":"D5","midi":74,"time":352.3527649999869,"velocity":0.7244094488188977,"duration":0.4687497656249775},{"name":"G#3","midi":56,"time":352.47041199998694,"velocity":0.7244094488188977,"duration":0.056985265624973636},{"name":"B3","midi":59,"time":352.5292354999869,"velocity":0.7244094488188977,"duration":0.056985265624973636},{"name":"E4","midi":64,"time":352.58805899998686,"velocity":0.7244094488188977,"duration":0.23345576562502401},{"name":"E5","midi":76,"time":352.82335299998687,"velocity":0.7244094488188977,"duration":0.11580876562493359},{"name":"F#4","midi":66,"time":352.82335299998687,"velocity":0.7244094488188977,"duration":0.056985265624973636},{"name":"G#4","midi":68,"time":352.8821764999868,"velocity":0.7244094488188977,"duration":0.056985265624973636},{"name":"C5","midi":72,"time":352.9409999999868,"velocity":0.7244094488188977,"duration":0.17463226562500722},{"name":"A4","midi":69,"time":352.9409999999868,"velocity":0.7244094488188977,"duration":0.2922792656249271},{"name":"F5","midi":77,"time":353.1174704999868,"velocity":0.7244094488188977,"duration":0.056985265624973636},{"name":"E5","midi":76,"time":353.17629399998674,"velocity":0.7244094488188977,"duration":0.056985265624973636},{"name":"D5","midi":74,"time":353.2351174999867,"velocity":0.7244094488188977,"duration":0.056985265624973636},{"name":"G4","midi":67,"time":353.2351174999867,"velocity":0.7244094488188977,"duration":0.056985265624973636},{"name":"G#5","midi":80,"time":353.29394099998666,"velocity":0.7244094488188977,"duration":0.29227926562498396},{"name":"F4","midi":65,"time":353.29394099998666,"velocity":0.7244094488188977,"duration":0.29227926562498396},{"name":"A5","midi":81,"time":353.58805849998663,"velocity":0.7244094488188977,"duration":0.056985265624973636},{"name":"D4","midi":62,"time":353.58805849998663,"velocity":0.7244094488188977,"duration":0.056985265624973636},{"name":"C5","midi":72,"time":353.6468819999866,"velocity":0.7244094488188977,"duration":0.056985265624973636},{"name":"G#4","midi":68,"time":353.6468819999866,"velocity":0.7244094488188977,"duration":0.3511027656247734},{"name":"E4","midi":64,"time":353.6468819999866,"velocity":0.7244094488188977,"duration":0.3511027656247734},{"name":"B4","midi":71,"time":353.70570549998655,"velocity":0.7244094488188977,"duration":0.056985265624973636},{"name":"C5","midi":72,"time":353.7645289999865,"velocity":0.7244094488188977,"duration":0.056985265624973636},{"name":"B4","midi":71,"time":353.82335249998647,"velocity":0.7244094488188977,"duration":0.056985265624973636},{"name":"C5","midi":72,"time":353.88217599998643,"velocity":0.7244094488188977,"duration":0.056985265624973636},{"name":"B4","midi":71,"time":353.9409994999864,"velocity":0.7244094488188977,"duration":0.3511027656249439},{"name":"E3","midi":52,"time":353.99982299998635,"velocity":0.7244094488188977,"duration":0.3511027656249439},{"name":"A4","midi":69,"time":354.2939404999863,"velocity":0.7244094488188977,"duration":0.056985265624973636},{"name":"A4","midi":69,"time":354.3527639999863,"velocity":0.7244094488188977,"duration":0.5275732656249374},{"name":"A3","midi":57,"time":354.3527639999863,"velocity":0.7244094488188977,"duration":0.29227926562498396},{"name":"E3","midi":52,"time":354.64688149998625,"velocity":0.7244094488188977,"duration":0.056985265624973636},{"name":"C3","midi":48,"time":354.7057049999862,"velocity":0.7244094488188977,"duration":0.2922792656249271},{"name":"B4","midi":71,"time":354.8821754999862,"velocity":0.7244094488188977,"duration":0.056985265624973636},{"name":"A4","midi":69,"time":354.94099899998616,"velocity":0.7244094488188977,"duration":0.056985265624973636},{"name":"G#4","midi":68,"time":354.9998224999861,"velocity":0.7244094488188977,"duration":0.056985265624973636},{"name":"E3","midi":52,"time":354.9998224999861,"velocity":0.7244094488188977,"duration":0.056985265624973636},{"name":"A4","midi":69,"time":355.0586459999861,"velocity":0.7244094488188977,"duration":0.08639701562498203},{"name":"A2","midi":45,"time":355.0586459999861,"velocity":0.7244094488188977,"duration":0.49632328124982905},{"name":"B4","midi":71,"time":355.14688124998605,"velocity":0.7244094488188977,"duration":0.08639701562498203},{"name":"C5","midi":72,"time":355.235116499986,"velocity":0.7244094488188977,"duration":0.08639701562498203},{"name":"D5","midi":74,"time":355.323351749986,"velocity":0.7244094488188977,"duration":0.08639701562498203},{"name":"E5","midi":76,"time":355.41158699998596,"velocity":0.7244094488188977,"duration":0.08639701562498203},{"name":"F5","midi":77,"time":355.4998222499859,"velocity":0.7244094488188977,"duration":0.08639701562498203},{"name":"G5","midi":79,"time":355.5880574999859,"velocity":0.7244094488188977,"duration":0.08639701562498203},{"name":"A3","midi":57,"time":355.5880574999859,"velocity":0.7244094488188977,"duration":0.056985265624973636},{"name":"B3","midi":59,"time":355.64688099998585,"velocity":0.7244094488188977,"duration":0.05698526562503048},{"name":"E5","midi":76,"time":355.67629274998586,"velocity":0.7244094488188977,"duration":0.08639701562498203},{"name":"C4","midi":60,"time":355.70570449998587,"velocity":0.7244094488188977,"duration":0.056985265624973636},{"name":"F5","midi":77,"time":355.76452799998583,"velocity":0.7244094488188977,"duration":0.3511027656249439},{"name":"D4","midi":62,"time":355.76452799998583,"velocity":0.7244094488188977,"duration":0.23345576562502401},{"name":"F4","midi":65,"time":355.99982199998584,"velocity":0.7244094488188977,"duration":0.056985265624973636},{"name":"D4","midi":62,"time":356.0586454999858,"velocity":0.7244094488188977,"duration":0.056985265624973636},{"name":"E5","midi":76,"time":356.11746899998576,"velocity":0.7244094488188977,"duration":0.17463226562500722},{"name":"A3","midi":57,"time":356.11746899998576,"velocity":0.7244094488188977,"duration":0.23345576562496717},{"name":"D5","midi":74,"time":356.29393949998575,"velocity":0.7244094488188977,"duration":0.17463226562489353},{"name":"C4","midi":60,"time":356.3527629999857,"velocity":0.7244094488188977,"duration":0.056985265624973636},{"name":"A3","midi":57,"time":356.4115864999857,"velocity":0.7244094488188977,"duration":0.056985265624973636},{"name":"A5","midi":81,"time":356.47040999998563,"velocity":0.7244094488188977,"duration":0.056985265624973636},{"name":"F3","midi":53,"time":356.47040999998563,"velocity":0.7244094488188977,"duration":0.23345576562491033},{"name":"G5","midi":79,"time":356.5292334999856,"velocity":0.7244094488188977,"duration":0.056985265624973636},{"name":"A5","midi":81,"time":356.58805699998555,"velocity":0.7244094488188977,"duration":0.40992626562490386},{"name":"A3","midi":57,"time":356.70570399998553,"velocity":0.7244094488188977,"duration":0.056985265624973636},{"name":"F#3","midi":54,"time":356.7645274999855,"velocity":0.7244094488188977,"duration":0.056985265624973636},{"name":"D#3","midi":51,"time":356.82335099998545,"velocity":0.7244094488188977,"duration":0.23345576562496717},{"name":"A5","midi":81,"time":356.99982149998544,"velocity":0.7244094488188977,"duration":0.17463226562489353},{"name":"F#3","midi":54,"time":357.0586449999854,"velocity":0.7244094488188977,"duration":0.056985265624973636},{"name":"D#3","midi":51,"time":357.11746849998536,"velocity":0.7244094488188977,"duration":0.056985265624973636},{"name":"D#5","midi":75,"time":357.1762919999853,"velocity":0.7244094488188977,"duration":0.5091909218749038},{"name":"A2","midi":45,"time":357.1762919999853,"velocity":0.7244094488188977,"duration":0.23345576562502401},{"name":"C3","midi":48,"time":357.41158599998533,"velocity":0.7244094488188977,"duration":0.056985265624973636},{"name":"A2","midi":45,"time":357.4704094999853,"velocity":0.7244094488188977,"duration":0.056985265624973636},{"name":"F#2","midi":42,"time":357.52923299998525,"velocity":0.7244094488188977,"duration":0.23345576562496717},{"name":"E5","midi":76,"time":357.70570349998525,"velocity":0.7244094488188977,"duration":0.056985265624973636},{"name":"F#5","midi":78,"time":357.7645269999852,"velocity":0.7244094488188977,"duration":0.056985265624973636},{"name":"A2","midi":45,"time":357.7645269999852,"velocity":0.7244094488188977,"duration":0.056985265624973636},{"name":"G5","midi":79,"time":357.82335049998517,"velocity":0.7244094488188977,"duration":0.056985265624973636},{"name":"F#2","midi":42,"time":357.82335049998517,"velocity":0.7244094488188977,"duration":0.056985265624973636},{"name":"A5","midi":81,"time":357.8821739999851,"velocity":0.7244094488188977,"duration":0.08639701562498203},{"name":"D#2","midi":39,"time":357.8821739999851,"velocity":0.7244094488188977,"duration":0.4779409374998522},{"name":"C6","midi":84,"time":357.9704092499851,"velocity":0.7244094488188977,"duration":0.08639701562498203},{"name":"B5","midi":83,"time":358.05864449998506,"velocity":0.7244094488188977,"duration":0.08639701562498203},{"name":"A5","midi":81,"time":358.14687974998503,"velocity":0.7244094488188977,"duration":0.08639701562498203},{"name":"B5","midi":83,"time":358.235114999985,"velocity":0.7244094488188977,"duration":0.2922792656249271},{"name":"B2","midi":47,"time":358.411585499985,"velocity":0.7244094488188977,"duration":0.056985265624973636},{"name":"C#3","midi":49,"time":358.47040899998495,"velocity":0.7244094488188977,"duration":0.056985265624973636},{"name":"F#5","midi":78,"time":358.5292324999849,"velocity":0.7244094488188977,"duration":0.056985265624973636},{"name":"D#3","midi":51,"time":358.5292324999849,"velocity":0.7244094488188977,"duration":0.056985265624973636},{"name":"G5","midi":79,"time":358.5880559999849,"velocity":0.7244094488188977,"duration":0.23345576562502401},{"name":"E3","midi":52,"time":358.5880559999849,"velocity":0.7244094488188977,"duration":0.5091909218749038},{"name":"B5","midi":83,"time":358.8233499999849,"velocity":0.7244094488188977,"duration":0.056985265624973636},{"name":"G5","midi":79,"time":358.88217349998484,"velocity":0.7244094488188977,"duration":0.056985265624973636},{"name":"E5","midi":76,"time":358.9409969999848,"velocity":0.7244094488188977,"duration":0.23345576562496717},{"name":"D3","midi":50,"time":359.1174674999848,"velocity":0.7244094488188977,"duration":0.056985265624973636},{"name":"G5","midi":79,"time":359.17629099998476,"velocity":0.7244094488188977,"duration":0.056985265624973636},{"name":"C3","midi":48,"time":359.17629099998476,"velocity":0.7244094488188977,"duration":0.056985265624973636},{"name":"E5","midi":76,"time":359.2351144999847,"velocity":0.7244094488188977,"duration":0.056985265624973636},{"name":"B2","midi":47,"time":359.2351144999847,"velocity":0.7244094488188977,"duration":0.056985265624973636},{"name":"C5","midi":72,"time":359.2939379999847,"velocity":0.7244094488188977,"duration":0.23345576562502401},{"name":"A2","midi":45,"time":359.2939379999847,"velocity":0.7244094488188977,"duration":0.5091909218749038},{"name":"E5","midi":76,"time":359.5292319999847,"velocity":0.7244094488188977,"duration":0.056985265624973636},{"name":"C5","midi":72,"time":359.58805549998465,"velocity":0.7244094488188977,"duration":0.056985265624973636},{"name":"A4","midi":69,"time":359.6468789999846,"velocity":0.7244094488188977,"duration":0.23345576562496717},{"name":"A3","midi":57,"time":359.8233494999846,"velocity":0.7244094488188977,"duration":0.056985265624973636},{"name":"C5","midi":72,"time":359.88217299998456,"velocity":0.7244094488188977,"duration":0.056985265624973636},{"name":"B3","midi":59,"time":359.88217299998456,"velocity":0.7244094488188977,"duration":0.056985265624973636},{"name":"E5","midi":76,"time":359.9409964999845,"velocity":0.7244094488188977,"duration":0.056985265624973636},{"name":"C4","midi":60,"time":359.9409964999845,"velocity":0.7244094488188977,"duration":0.056985265624973636},{"name":"F#5","midi":78,"time":359.9998199999845,"velocity":0.7244094488188977,"duration":0.23345576562502401},{"name":"D4","midi":62,"time":359.9998199999845,"velocity":0.7244094488188977,"duration":0.5091909218749038},{"name":"A5","midi":81,"time":360.2351139999845,"velocity":0.7244094488188977,"duration":0.056985265624973636},{"name":"F#5","midi":78,"time":360.29393749998445,"velocity":0.7244094488188977,"duration":0.056985265624973636},{"name":"D5","midi":74,"time":360.3527609999844,"velocity":0.7244094488188977,"duration":0.23345576562496717},{"name":"C4","midi":60,"time":360.5292314999844,"velocity":0.7244094488188977,"duration":0.056985265624973636},{"name":"F#5","midi":78,"time":360.58805499998437,"velocity":0.7244094488188977,"duration":0.056985265624973636},{"name":"B3","midi":59,"time":360.58805499998437,"velocity":0.7244094488188977,"duration":0.056985265624973636},{"name":"D5","midi":74,"time":360.6468784999843,"velocity":0.7244094488188977,"duration":0.056985265624973636},{"name":"A3","midi":57,"time":360.6468784999843,"velocity":0.7244094488188977,"duration":0.056985265624973636},{"name":"B4","midi":71,"time":360.7057019999843,"velocity":0.7244094488188977,"duration":0.23345576562502401},{"name":"G3","midi":55,"time":360.7057019999843,"velocity":0.7244094488188977,"duration":0.5091909218749038},{"name":"D5","midi":74,"time":360.9409959999843,"velocity":0.7244094488188977,"duration":0.056985265624973636},{"name":"B4","midi":71,"time":360.99981949998426,"velocity":0.7244094488188977,"duration":0.056985265624973636},{"name":"G4","midi":67,"time":361.0586429999842,"velocity":0.7244094488188977,"duration":0.23345576562496717},{"name":"G2","midi":43,"time":361.2351134999842,"velocity":0.7244094488188977,"duration":0.056985265624973636},{"name":"B4","midi":71,"time":361.29393699998417,"velocity":0.7244094488188977,"duration":0.056985265624973636},{"name":"A2","midi":45,"time":361.29393699998417,"velocity":0.7244094488188977,"duration":0.056985265624973636},{"name":"D5","midi":74,"time":361.35276049998413,"velocity":0.7244094488188977,"duration":0.056985265624973636},{"name":"B2","midi":47,"time":361.35276049998413,"velocity":0.7244094488188977,"duration":0.056985265624973636},{"name":"E5","midi":76,"time":361.4115839999841,"velocity":0.7244094488188977,"duration":0.23345576562502401},{"name":"C3","midi":48,"time":361.4115839999841,"velocity":0.7244094488188977,"duration":0.5091909218749038},{"name":"G5","midi":79,"time":361.6468779999841,"velocity":0.7244094488188977,"duration":0.056985265624973636},{"name":"E5","midi":76,"time":361.70570149998406,"velocity":0.7244094488188977,"duration":0.056985265624973636},{"name":"C5","midi":72,"time":361.764524999984,"velocity":0.7244094488188977,"duration":0.23345576562496717},{"name":"B2","midi":47,"time":361.940995499984,"velocity":0.7244094488188977,"duration":0.056985265624973636},{"name":"E5","midi":76,"time":361.999818999984,"velocity":0.7244094488188977,"duration":0.056985265624973636},{"name":"A2","midi":45,"time":361.999818999984,"velocity":0.7244094488188977,"duration":0.056985265624973636},{"name":"C5","midi":72,"time":362.05864249998393,"velocity":0.7244094488188977,"duration":0.056985265624973636},{"name":"G2","midi":43,"time":362.05864249998393,"velocity":0.7244094488188977,"duration":0.056985265624973636},{"name":"A4","midi":69,"time":362.1174659999839,"velocity":0.7244094488188977,"duration":0.23345576562502401},{"name":"F#2","midi":42,"time":362.1174659999839,"velocity":0.7244094488188977,"duration":0.5091909218749038},{"name":"C5","midi":72,"time":362.3527599999839,"velocity":0.7244094488188977,"duration":0.056985265624973636},{"name":"A4","midi":69,"time":362.41158349998386,"velocity":0.7244094488188977,"duration":0.056985265624973636},{"name":"F#4","midi":66,"time":362.4704069999838,"velocity":0.7244094488188977,"duration":0.23345576562496717},{"name":"F#3","midi":54,"time":362.6468774999838,"velocity":0.7244094488188977,"duration":0.056985265624973636},{"name":"A4","midi":69,"time":362.7057009999838,"velocity":0.7244094488188977,"duration":0.056985265624973636},{"name":"G3","midi":55,"time":362.7057009999838,"velocity":0.7244094488188977,"duration":0.056985265624973636},{"name":"C5","midi":72,"time":362.76452449998374,"velocity":0.7244094488188977,"duration":0.056985265624973636},{"name":"A3","midi":57,"time":362.76452449998374,"velocity":0.7244094488188977,"duration":0.056985265624973636},{"name":"D#4","midi":63,"time":362.8233479999837,"velocity":0.7244094488188977,"duration":0.23345576562502401},{"name":"B3","midi":59,"time":362.8233479999837,"velocity":0.7244094488188977,"duration":0.9393377656248845},{"name":"F#4","midi":66,"time":363.0586419999837,"velocity":0.7244094488188977,"duration":0.056985265624973636},{"name":"A4","midi":69,"time":363.11746549998367,"velocity":0.7244094488188977,"duration":0.056985265624973636},{"name":"C5","midi":72,"time":363.1762889999836,"velocity":0.7244094488188977,"duration":0.23345576562502401},{"name":"B4","midi":71,"time":363.41158299998364,"velocity":0.7244094488188977,"duration":0.056985265624973636},{"name":"A4","midi":69,"time":363.4704064999836,"velocity":0.7244094488188977,"duration":0.056985265624973636},{"name":"F#5","midi":78,"time":363.52922999998356,"velocity":0.7244094488188977,"duration":0.5863967656249542},{"name":"A3","midi":57,"time":363.76452399998357,"velocity":0.7244094488188977,"duration":0.056985265624973636},{"name":"G3","midi":55,"time":363.8233474999835,"velocity":0.7244094488188977,"duration":0.056985265624973636},{"name":"A3","midi":57,"time":363.8821709999835,"velocity":0.7244094488188977,"duration":0.23345576562502401},{"name":"F#5","midi":78,"time":364.1174649999835,"velocity":0.7244094488188977,"duration":0.11580876562493359},{"name":"G3","midi":55,"time":364.1174649999835,"velocity":0.7244094488188977,"duration":0.056985265624973636},{"name":"F#3","midi":54,"time":364.17628849998346,"velocity":0.7244094488188977,"duration":0.056985265624973636},{"name":"F#5","midi":78,"time":364.2351119999834,"velocity":0.7244094488188977,"duration":0.23345576562502401},{"name":"G3","midi":55,"time":364.2351119999834,"velocity":0.7244094488188977,"duration":0.23345576562502401},{"name":"B4","midi":71,"time":364.4704059999834,"velocity":0.7244094488188977,"duration":0.056985265624973636},{"name":"F#3","midi":54,"time":364.4704059999834,"velocity":0.7244094488188977,"duration":0.056985265624973636},{"name":"C#5","midi":73,"time":364.5292294999834,"velocity":0.7244094488188977,"duration":0.056985265624973636},{"name":"E3","midi":52,"time":364.5292294999834,"velocity":0.7244094488188977,"duration":0.056985265624973636},{"name":"D#5","midi":75,"time":364.58805299998335,"velocity":0.7244094488188977,"duration":0.23345576562502401},{"name":"F#3","midi":54,"time":364.58805299998335,"velocity":0.7244094488188977,"duration":0.23345576562502401},{"name":"C#5","midi":73,"time":364.82334699998336,"velocity":0.7244094488188977,"duration":0.056985265624973636},{"name":"E3","midi":52,"time":364.82334699998336,"velocity":0.7244094488188977,"duration":0.056985265624973636},{"name":"B4","midi":71,"time":364.8821704999833,"velocity":0.7244094488188977,"duration":0.056985265624973636},{"name":"D#3","midi":51,"time":364.8821704999833,"velocity":0.7244094488188977,"duration":0.056985265624973636},{"name":"G5","midi":79,"time":364.9409939999833,"velocity":0.7244094488188977,"duration":0.29227926562498396},{"name":"E3","midi":52,"time":364.9409939999833,"velocity":0.7244094488188977,"duration":0.23345576562502401},{"name":"G3","midi":55,"time":365.1762879999833,"velocity":0.7244094488188977,"duration":0.056985265624973636},{"name":"E5","midi":76,"time":365.23511149998325,"velocity":0.7244094488188977,"duration":0.056985265624973636},{"name":"B3","midi":59,"time":365.23511149998325,"velocity":0.7244094488188977,"duration":0.056985265624973636},{"name":"E5","midi":76,"time":365.2939349999832,"velocity":0.7244094488188977,"duration":0.056985265624973636},{"name":"C4","midi":60,"time":365.2939349999832,"velocity":0.7244094488188977,"duration":0.5882349999998269},{"name":"D#5","midi":75,"time":365.35275849998317,"velocity":0.7244094488188977,"duration":0.056985265624973636},{"name":"E5","midi":76,"time":365.4115819999831,"velocity":0.7244094488188977,"duration":0.056985265624973636},{"name":"D#5","midi":75,"time":365.4704054999831,"velocity":0.7244094488188977,"duration":0.11580876562499043},{"name":"E5","midi":76,"time":365.58805249998306,"velocity":0.7244094488188977,"duration":0.056985265624973636},{"name":"A4","midi":69,"time":365.646875999983,"velocity":0.7244094488188977,"duration":0.23345576562502401},{"name":"D#5","midi":75,"time":365.88216999998303,"velocity":0.7244094488188977,"duration":0.056985265624973636},{"name":"E5","midi":76,"time":365.940993499983,"velocity":0.7244094488188977,"duration":0.056985265624973636},{"name":"B3","midi":59,"time":365.940993499983,"velocity":0.7244094488188977,"duration":0.056985265624973636},{"name":"F#5","midi":78,"time":365.99981699998295,"velocity":0.7244094488188977,"duration":0.23345576562502401},{"name":"A3","midi":57,"time":365.99981699998295,"velocity":0.7244094488188977,"duration":0.29227926562498396},{"name":"E5","midi":76,"time":366.23511099998296,"velocity":0.7244094488188977,"duration":0.056985265624973636},{"name":"D#5","midi":75,"time":366.2939344999829,"velocity":0.7244094488188977,"duration":0.056985265624973636},{"name":"C4","midi":60,"time":366.2939344999829,"velocity":0.7244094488188977,"duration":0.056985265624973636},{"name":"A5","midi":81,"time":366.3527579999829,"velocity":0.7244094488188977,"duration":0.29227926562498396},{"name":"F#3","midi":54,"time":366.3527579999829,"velocity":0.7244094488188977,"duration":0.23345576562502401},{"name":"A3","midi":57,"time":366.5880519999829,"velocity":0.7244094488188977,"duration":0.056985265624973636},{"name":"E5","midi":76,"time":366.64687549998285,"velocity":0.7244094488188977,"duration":0.056985265624973636},{"name":"C4","midi":60,"time":366.64687549998285,"velocity":0.7244094488188977,"duration":0.056985265624973636},{"name":"E5","midi":76,"time":366.7056989999828,"velocity":0.7244094488188977,"duration":0.056985265624973636},{"name":"F#4","midi":66,"time":366.7056989999828,"velocity":0.7244094488188977,"duration":0.5882349999998269},{"name":"D#5","midi":75,"time":366.7645224999828,"velocity":0.7244094488188977,"duration":0.056985265624973636},{"name":"E5","midi":76,"time":366.82334599998273,"velocity":0.7244094488188977,"duration":0.056985265624973636},{"name":"D#5","midi":75,"time":366.8821694999827,"velocity":0.7244094488188977,"duration":0.11580876562499043},{"name":"E5","midi":76,"time":366.99981649998267,"velocity":0.7244094488188977,"duration":0.056985265624973636},{"name":"B4","midi":71,"time":367.05863999998263,"velocity":0.7244094488188977,"duration":0.23345576562502401},{"name":"E5","midi":76,"time":367.29393399998264,"velocity":0.7244094488188977,"duration":0.056985265624973636},{"name":"F#5","midi":78,"time":367.3527574999826,"velocity":0.7244094488188977,"duration":0.056985265624973636},{"name":"E4","midi":64,"time":367.3527574999826,"velocity":0.7244094488188977,"duration":0.056985265624973636},{"name":"G5","midi":79,"time":367.41158099998256,"velocity":0.7244094488188977,"duration":0.23345576562502401},{"name":"D#4","midi":63,"time":367.41158099998256,"velocity":0.7244094488188977,"duration":0.29227926562498396},{"name":"F#5","midi":78,"time":367.6468749999826,"velocity":0.7244094488188977,"duration":0.056985265624973636},{"name":"E5","midi":76,"time":367.70569849998253,"velocity":0.7244094488188977,"duration":0.056985265624973636},{"name":"E4","midi":64,"time":367.70569849998253,"velocity":0.7244094488188977,"duration":0.056985265624973636},{"name":"B5","midi":83,"time":367.7645219999825,"velocity":0.7244094488188977,"duration":0.2628675156250324},{"name":"G3","midi":55,"time":367.7645219999825,"velocity":0.7244094488188977,"duration":0.23345576562502401},{"name":"B3","midi":59,"time":367.9998159999825,"velocity":0.7244094488188977,"duration":0.05698526562503048},{"name":"A5","midi":81,"time":368.0292277499825,"velocity":0.7244094488188977,"duration":0.08639701562498203},{"name":"D#4","midi":63,"time":368.0586394999825,"velocity":0.7244094488188977,"duration":0.056985265624973636},{"name":"G5","midi":79,"time":368.1174629999825,"velocity":0.7244094488188977,"duration":0.08639701562498203},{"name":"E4","midi":64,"time":368.1174629999825,"velocity":0.7244094488188977,"duration":0.5882349999998837},{"name":"F#5","midi":78,"time":368.20569824998245,"velocity":0.7244094488188977,"duration":0.08639701562498203},{"name":"E5","midi":76,"time":368.2939334999824,"velocity":0.7244094488188977,"duration":0.08639701562498203},{"name":"D5","midi":74,"time":368.3821687499824,"velocity":0.7244094488188977,"duration":0.08639701562498203},{"name":"C5","midi":72,"time":368.47040399998235,"velocity":0.7244094488188977,"duration":0.23345576562502401},{"name":"B4","midi":71,"time":368.70569799998236,"velocity":0.7244094488188977,"duration":0.056985265624973636},{"name":"A4","midi":69,"time":368.7645214999823,"velocity":0.7244094488188977,"duration":0.056985265624973636},{"name":"C4","midi":60,"time":368.7645214999823,"velocity":0.7244094488188977,"duration":0.056985265624973636},{"name":"D#5","midi":75,"time":368.8233449999823,"velocity":0.7244094488188977,"duration":0.23345576562502401},{"name":"A3","midi":57,"time":368.8233449999823,"velocity":0.7244094488188977,"duration":0.29227926562498396},{"name":"C#5","midi":73,"time":369.0586389999823,"velocity":0.7244094488188977,"duration":0.056985265624973636},{"name":"B4","midi":71,"time":369.11746249998225,"velocity":0.7244094488188977,"duration":0.056985265624973636},{"name":"F#3","midi":54,"time":369.11746249998225,"velocity":0.7244094488188977,"duration":0.056985265624973636},{"name":"F#5","midi":78,"time":369.1762859999822,"velocity":0.7244094488188977,"duration":0.08639701562498203},{"name":"E3","midi":52,"time":369.1762859999822,"velocity":0.7244094488188977,"duration":0.08639701562498203},{"name":"E5","midi":76,"time":369.2645212499822,"velocity":0.7244094488188977,"duration":0.08639701562498203},{"name":"D#3","midi":51,"time":369.2645212499822,"velocity":0.7244094488188977,"duration":0.08639701562498203},{"name":"D#5","midi":75,"time":369.35275649998215,"velocity":0.7244094488188977,"duration":0.08639701562498203},{"name":"E3","midi":52,"time":369.35275649998215,"velocity":0.7244094488188977,"duration":0.08639701562498203},{"name":"C#5","midi":73,"time":369.4409917499821,"velocity":0.7244094488188977,"duration":0.08639701562498203},{"name":"D#3","midi":51,"time":369.4409917499821,"velocity":0.7244094488188977,"duration":0.08639701562498203},{"name":"B4","midi":71,"time":369.5292269999821,"velocity":0.7244094488188977,"duration":0.08639701562498203},{"name":"E3","midi":52,"time":369.5292269999821,"velocity":0.7244094488188977,"duration":0.08639701562498203},{"name":"A4","midi":69,"time":369.61746224998205,"velocity":0.7244094488188977,"duration":0.08639701562498203},{"name":"D#3","midi":51,"time":369.61746224998205,"velocity":0.7244094488188977,"duration":0.08639701562498203},{"name":"G4","midi":67,"time":369.705697499982,"velocity":0.7244094488188977,"duration":0.08639701562498203},{"name":"B2","midi":47,"time":369.705697499982,"velocity":0.7244094488188977,"duration":0.17463226562495038},{"name":"F#4","midi":66,"time":369.793932749982,"velocity":0.7244094488188977,"duration":0.08639701562498203},{"name":"G4","midi":67,"time":369.88216799998196,"velocity":0.7244094488188977,"duration":0.08639701562498203},{"name":"E3","midi":52,"time":369.88216799998196,"velocity":0.7244094488188977,"duration":0.6415437968748847},{"name":"F#4","midi":66,"time":369.9704032499819,"velocity":0.7244094488188977,"duration":0.08639701562498203},{"name":"E4","midi":64,"time":370.0586384999819,"velocity":0.7244094488188977,"duration":0.08639701562498203},{"name":"D#4","midi":63,"time":370.14687374998186,"velocity":0.7244094488188977,"duration":0.08639701562498203},{"name":"E4","midi":64,"time":370.23510899998183,"velocity":0.7244094488188977,"duration":0.5147056249999764},{"name":"C3","midi":48,"time":370.23510899998183,"velocity":0.7244094488188977,"duration":0.34926453125001444},{"name":"A#3","midi":58,"time":370.52922649998186,"velocity":0.7244094488188977,"duration":0.056985265624973636},{"name":"F#3","midi":54,"time":370.52922649998186,"velocity":0.7244094488188977,"duration":0.056985265624973636},{"name":"B3","midi":59,"time":370.5880499999818,"velocity":0.7244094488188977,"duration":0.29227926562498396},{"name":"G3","midi":55,"time":370.5880499999818,"velocity":0.7244094488188977,"duration":0.3511027656249439},{"name":"B2","midi":47,"time":370.5880499999818,"velocity":0.7244094488188977,"duration":0.6985290624999152},{"name":"E4","midi":64,"time":370.8821674999818,"velocity":0.7244094488188977,"duration":0.056985265624973636},{"name":"F#4","midi":66,"time":370.94099099998175,"velocity":0.7244094488188977,"duration":0.29227926562498396},{"name":"A3","midi":57,"time":370.94099099998175,"velocity":0.7244094488188977,"duration":0.35110276562500076},{"name":"D#4","midi":63,"time":371.2351084999817,"velocity":0.7244094488188977,"duration":0.05698526562503048},{"name":"A3","midi":57,"time":371.29393199998174,"velocity":0.7244094488188977,"duration":0.35110276562500076},{"name":"D#4","midi":63,"time":371.29393199998174,"velocity":0.7244094488188977,"duration":0.35110276562500076},{"name":"E2","midi":40,"time":371.29393199998174,"velocity":0.7244094488188977,"duration":0.5863967656250111},{"name":"G#3","midi":56,"time":371.6468729999817,"velocity":0.7244094488188977,"duration":0.3492645312499576},{"name":"E4","midi":64,"time":371.6468729999817,"velocity":0.7244094488188977,"duration":0.6985290624999152},{"name":"G#2","midi":44,"time":371.88216699998173,"velocity":0.7244094488188977,"duration":0.056985265624973636},{"name":"B2","midi":47,"time":371.9409904999817,"velocity":0.7244094488188977,"duration":0.056985265624973636},{"name":"E3","midi":52,"time":371.99981399998165,"velocity":0.7244094488188977,"duration":0.3492645312499576},{"name":"G#3","midi":56,"time":372.23510799998166,"velocity":0.7244094488188977,"duration":0.056985265624973636},{"name":"B3","midi":59,"time":372.2939314999816,"velocity":0.7244094488188977,"duration":0.056985265624973636},{"name":"E4","midi":64,"time":372.3527549999816,"velocity":0.7244094488188977,"duration":0.3492645312499576},{"name":"G#4","midi":68,"time":372.5880489999816,"velocity":0.7244094488188977,"duration":0.056985265624973636},{"name":"B4","midi":71,"time":372.64687249998155,"velocity":0.7244094488188977,"duration":0.056985265624973636},{"name":"E5","midi":76,"time":372.7056959999815,"velocity":0.7244094488188977,"duration":0.6985290624999152},{"name":"B4","midi":71,"time":372.9409899999815,"velocity":0.7244094488188977,"duration":0.056985265624973636},{"name":"G#4","midi":68,"time":372.9998134999815,"velocity":0.7244094488188977,"duration":0.056985265624973636},{"name":"E4","midi":64,"time":373.05863699998145,"velocity":0.7244094488188977,"duration":0.3492645312499576},{"name":"B3","midi":59,"time":373.29393099998146,"velocity":0.7244094488188977,"duration":0.056985265624973636},{"name":"G#3","midi":56,"time":373.3527544999814,"velocity":0.7244094488188977,"duration":0.056985265624973636},{"name":"E3","midi":52,"time":373.4115779999814,"velocity":0.7244094488188977,"duration":1.2316170312499821},{"name":"B4","midi":71,"time":378.17628149998137,"velocity":0.7244094488188977,"duration":0.1654410937500188},{"name":"B4","midi":71,"time":378.35275199998136,"velocity":0.7244094488188977,"duration":0.17463226562500722},{"name":"E3","midi":52,"time":378.35275199998136,"velocity":0.7244094488188977,"duration":0.35110276562500076},{"name":"E4","midi":64,"time":378.52922249998136,"velocity":0.7244094488188977,"duration":0.3382351249999829},{"name":"G3","midi":55,"time":378.70569299998135,"velocity":0.7244094488188977,"duration":0.35110276562500076},{"name":"D#4","midi":63,"time":378.88216349998135,"velocity":0.7244094488188977,"duration":0.3382351249999829},{"name":"C4","midi":60,"time":379.05863399998134,"velocity":0.7244094488188977,"duration":0.35110276562500076},{"name":"E4","midi":64,"time":379.23510449998133,"velocity":0.7244094488188977,"duration":0.16176462499998934},{"name":"F#4","midi":66,"time":379.4115749999813,"velocity":0.7244094488188977,"duration":0.17463226562500722},{"name":"D#3","midi":51,"time":379.4115749999813,"velocity":0.7244094488188977,"duration":0.35110276562500076},{"name":"C5","midi":72,"time":379.5880454999813,"velocity":0.7244094488188977,"duration":0.3382351249999829},{"name":"F#3","midi":54,"time":379.7645159999813,"velocity":0.7244094488188977,"duration":0.35110276562500076},{"name":"B4","midi":71,"time":379.9409864999813,"velocity":0.7244094488188977,"duration":0.3382351249999829},{"name":"B3","midi":59,"time":380.1174569999813,"velocity":0.7244094488188977,"duration":0.35110276562500076},{"name":"A4","midi":69,"time":380.2939274999813,"velocity":0.7244094488188977,"duration":0.3382351249999829},{"name":"E3","midi":52,"time":380.4703979999813,"velocity":0.7244094488188977,"duration":0.35110276562500076},{"name":"G4","midi":67,"time":380.6468684999813,"velocity":0.7244094488188977,"duration":0.3382351249999829},{"name":"A3","midi":57,"time":380.8233389999813,"velocity":0.7244094488188977,"duration":0.3511027656249439},{"name":"F#4","midi":66,"time":380.99980949998127,"velocity":0.7244094488188977,"duration":0.08639701562498203},{"name":"E4","midi":64,"time":381.08804474998124,"velocity":0.7244094488188977,"duration":0.08639701562498203},{"name":"F#4","midi":66,"time":381.1762799999812,"velocity":0.7244094488188977,"duration":0.17463226562500722},{"name":"C3","midi":48,"time":381.1762799999812,"velocity":0.7244094488188977,"duration":0.35110276562500076},{"name":"A4","midi":69,"time":381.3527504999812,"velocity":0.7244094488188977,"duration":0.35110276562500076},{"name":"B2","midi":47,"time":381.5292209999812,"velocity":0.7244094488188977,"duration":0.35110276562500076},{"name":"D#4","midi":63,"time":381.7056914999812,"velocity":0.7244094488188977,"duration":0.17463226562500722},{"name":"B3","midi":59,"time":381.8821619999812,"velocity":0.7244094488188977,"duration":0.3511027656249439},{"name":"B4","midi":71,"time":382.0586324999812,"velocity":0.7244094488188977,"duration":0.08639701562498203},{"name":"C#5","midi":73,"time":382.14686774998114,"velocity":0.7244094488188977,"duration":0.08639701562498203},{"name":"D#5","midi":75,"time":382.2351029999811,"velocity":0.7244094488188977,"duration":0.08639701562498203},{"name":"A3","midi":57,"time":382.2351029999811,"velocity":0.7244094488188977,"duration":0.3511027656249439},{"name":"E5","midi":76,"time":382.3233382499811,"velocity":0.7244094488188977,"duration":0.08639701562498203},{"name":"F#5","midi":78,"time":382.41157349998105,"velocity":0.7244094488188977,"duration":0.3382351249999829},{"name":"G3","midi":55,"time":382.58804399998104,"velocity":0.7244094488188977,"duration":0.35110276562500076},{"name":"E5","midi":76,"time":382.76451449998103,"velocity":0.7244094488188977,"duration":0.3382351249999829},{"name":"B3","midi":59,"time":382.940984999981,"velocity":0.7244094488188977,"duration":0.35110276562500076},{"name":"G5","midi":79,"time":383.117455499981,"velocity":0.7244094488188977,"duration":0.3382351249999829},{"name":"E4","midi":64,"time":383.293925999981,"velocity":0.7244094488188977,"duration":0.35110276562500076},{"name":"B4","midi":71,"time":383.470396499981,"velocity":0.7244094488188977,"duration":0.35110276562500076},{"name":"A3","midi":57,"time":383.646866999981,"velocity":0.7244094488188977,"duration":0.35110276562500076},{"name":"C5","midi":72,"time":383.823337499981,"velocity":0.7244094488188977,"duration":0.16176462499998934},{"name":"C4","midi":60,"time":383.999807999981,"velocity":0.7244094488188977,"duration":0.3511027656249439},{"name":"A4","midi":69,"time":384.176278499981,"velocity":0.7244094488188977,"duration":0.08639701562498203},{"name":"B4","midi":71,"time":384.26451374998095,"velocity":0.7244094488188977,"duration":0.08639701562498203},{"name":"C5","midi":72,"time":384.3527489999809,"velocity":0.7244094488188977,"duration":0.08639701562498203},{"name":"E4","midi":64,"time":384.3527489999809,"velocity":0.7244094488188977,"duration":0.3511027656249439},{"name":"D5","midi":74,"time":384.4409842499809,"velocity":0.7244094488188977,"duration":0.08639701562498203},{"name":"E5","midi":76,"time":384.52921949998085,"velocity":0.7244094488188977,"duration":0.3382351249999829},{"name":"F#3","midi":54,"time":384.70568999998085,"velocity":0.7244094488188977,"duration":0.35110276562500076},{"name":"D5","midi":74,"time":384.88216049998084,"velocity":0.7244094488188977,"duration":0.3382351249999829},{"name":"A3","midi":57,"time":385.05863099998083,"velocity":0.7244094488188977,"duration":0.35110276562500076},{"name":"A5","midi":81,"time":385.23510149998083,"velocity":0.7244094488188977,"duration":0.3382351249999829},{"name":"D4","midi":62,"time":385.4115719999808,"velocity":0.7244094488188977,"duration":0.35110276562500076},{"name":"C5","midi":72,"time":385.5880424999808,"velocity":0.7244094488188977,"duration":0.35110276562500076},{"name":"G3","midi":55,"time":385.7645129999808,"velocity":0.7244094488188977,"duration":0.35110276562500076},{"name":"B4","midi":71,"time":385.9409834999808,"velocity":0.7244094488188977,"duration":0.1286764062500083},{"name":"B3","midi":59,"time":386.1174539999808,"velocity":0.7244094488188977,"duration":0.3511027656249439},{"name":"E5","midi":76,"time":386.2939244999808,"velocity":0.7244094488188977,"duration":0.08639701562498203},{"name":"F#5","midi":78,"time":386.38215974998076,"velocity":0.7244094488188977,"duration":0.08639701562498203},{"name":"G5","midi":79,"time":386.4703949999807,"velocity":0.7244094488188977,"duration":0.17463226562500722},{"name":"E4","midi":64,"time":386.4703949999807,"velocity":0.7244094488188977,"duration":0.35110276562500076},{"name":"B4","midi":71,"time":386.6468654999807,"velocity":0.7244094488188977,"duration":0.35110276562500076},{"name":"F#3","midi":54,"time":386.8233359999807,"velocity":0.7244094488188977,"duration":0.35110276562500076},{"name":"A4","midi":69,"time":386.9998064999807,"velocity":0.7244094488188977,"duration":0.16176462499998934},{"name":"A3","midi":57,"time":387.1762769999807,"velocity":0.7244094488188977,"duration":0.3511027656249439},{"name":"D#5","midi":75,"time":387.3527474999807,"velocity":0.7244094488188977,"duration":0.08639701562498203},{"name":"E5","midi":76,"time":387.44098274998066,"velocity":0.7244094488188977,"duration":0.08639701562498203},{"name":"F#5","midi":78,"time":387.52921799998063,"velocity":0.7244094488188977,"duration":0.17463226562500722},{"name":"D#4","midi":63,"time":387.52921799998063,"velocity":0.7244094488188977,"duration":0.35110276562500076},{"name":"A4","midi":69,"time":387.7056884999806,"velocity":0.7244094488188977,"duration":0.35110276562500076},{"name":"E3","midi":52,"time":387.8821589999806,"velocity":0.7244094488188977,"duration":0.35110276562500076},{"name":"G4","midi":67,"time":388.0586294999806,"velocity":0.7244094488188977,"duration":0.16176462499998934},{"name":"G3","midi":55,"time":388.2350999999806,"velocity":0.7244094488188977,"duration":0.3511027656249439},{"name":"F5","midi":77,"time":388.4115704999806,"velocity":0.7244094488188977,"duration":0.08639701562498203},{"name":"E5","midi":76,"time":388.49980574998057,"velocity":0.7244094488188977,"duration":0.08639701562498203},{"name":"D5","midi":74,"time":388.58804099998054,"velocity":0.7244094488188977,"duration":0.08639701562498203},{"name":"G#3","midi":56,"time":388.58804099998054,"velocity":0.7244094488188977,"duration":0.3511027656249439},{"name":"C5","midi":72,"time":388.6762762499805,"velocity":0.7244094488188977,"duration":0.08639701562498203},{"name":"B4","midi":71,"time":388.7645114999805,"velocity":0.7244094488188977,"duration":0.35110276562500076},{"name":"A3","midi":57,"time":388.94098199998047,"velocity":0.7244094488188977,"duration":0.35110276562500076},{"name":"C5","midi":72,"time":389.11745249998046,"velocity":0.7244094488188977,"duration":0.16176462499998934},{"name":"A#3","midi":58,"time":389.29392299998045,"velocity":0.7244094488188977,"duration":0.3511027656249439},{"name":"G5","midi":79,"time":389.47039349998045,"velocity":0.7244094488188977,"duration":0.08639701562498203},{"name":"F#5","midi":78,"time":389.5586287499804,"velocity":0.7244094488188977,"duration":0.08639701562498203},{"name":"E5","midi":76,"time":389.6468639999804,"velocity":0.7244094488188977,"duration":0.08639701562498203},{"name":"F#3","midi":54,"time":389.6468639999804,"velocity":0.7244094488188977,"duration":0.3511027656249439},{"name":"D#5","midi":75,"time":389.73509924998035,"velocity":0.7244094488188977,"duration":0.08639701562498203},{"name":"C#5","midi":73,"time":389.8233344999803,"velocity":0.7244094488188977,"duration":0.35110276562500076},{"name":"B3","midi":59,"time":389.9998049999803,"velocity":0.7244094488188977,"duration":0.35110276562500076},{"name":"D#5","midi":75,"time":390.1762754999803,"velocity":0.7244094488188977,"duration":0.16176462499998934},{"name":"B2","midi":47,"time":390.3527459999803,"velocity":0.7244094488188977,"duration":0.3511027656249439},{"name":"C6","midi":84,"time":390.5292164999803,"velocity":0.7244094488188977,"duration":0.08639701562498203},{"name":"B5","midi":83,"time":390.61745174998026,"velocity":0.7244094488188977,"duration":0.08639701562498203},{"name":"A5","midi":81,"time":390.70568699998023,"velocity":0.7244094488188977,"duration":0.08639701562498203},{"name":"D#3","midi":51,"time":390.70568699998023,"velocity":0.7244094488188977,"duration":0.3511027656249439},{"name":"G5","midi":79,"time":390.7939222499802,"velocity":0.7244094488188977,"duration":0.08639701562498203},{"name":"F#5","midi":78,"time":390.88215749998017,"velocity":0.7244094488188977,"duration":0.26654398437500504},{"name":"E3","midi":52,"time":391.05862799998016,"velocity":0.7244094488188977,"duration":0.35110276562500076},{"name":"G5","midi":79,"time":391.23509849998015,"velocity":0.7244094488188977,"duration":0.27573515624999345},{"name":"F#3","midi":54,"time":391.41156899998015,"velocity":0.7244094488188977,"duration":0.35110276562500076},{"name":"D#5","midi":75,"time":391.58803949998014,"velocity":0.7244094488188977,"duration":0.28492632812498186},{"name":"G3","midi":55,"time":391.76450999998013,"velocity":0.7244094488188977,"duration":0.35110276562500076},{"name":"E5","midi":76,"time":391.9409804999801,"velocity":0.7244094488188977,"duration":0.2941174999999703},{"name":"C3","midi":48,"time":392.1174509999801,"velocity":0.7244094488188977,"duration":0.35110276562500076},{"name":"B4","midi":71,"time":392.2939214999801,"velocity":0.7244094488188977,"duration":0.30330867187501553},{"name":"D3","midi":50,"time":392.4703919999801,"velocity":0.7244094488188977,"duration":0.3511027656250576},{"name":"C5","midi":72,"time":392.64686249998016,"velocity":0.7244094488188977,"duration":0.31249984375000395},{"name":"E3","midi":52,"time":392.82333299998015,"velocity":0.7244094488188977,"duration":0.35110276562500076},{"name":"G#4","midi":68,"time":392.99980349998015,"velocity":0.7244094488188977,"duration":0.32169101562499236},{"name":"F3","midi":53,"time":393.17627399998014,"velocity":0.7244094488188977,"duration":0.35110276562500076},{"name":"A4","midi":69,"time":393.35274449998013,"velocity":0.7244094488188977,"duration":0.3308821874999808},{"name":"G3","midi":55,"time":393.5292149999801,"velocity":0.7244094488188977,"duration":0.35110276562500076},{"name":"E4","midi":64,"time":393.7056854999801,"velocity":0.7244094488188977,"duration":0.35110276562500076},{"name":"A3","midi":57,"time":393.8821559999801,"velocity":0.7244094488188977,"duration":0.35110276562500076},{"name":"F4","midi":65,"time":394.0586264999801,"velocity":0.7244094488188977,"duration":0.17463226562500722},{"name":"C5","midi":72,"time":394.2350969999801,"velocity":0.7244094488188977,"duration":0.08639701562498203},{"name":"D#3","midi":51,"time":394.2350969999801,"velocity":0.7244094488188977,"duration":0.3511027656249439},{"name":"B4","midi":71,"time":394.32333224998007,"velocity":0.7244094488188977,"duration":0.08639701562498203},{"name":"A4","midi":69,"time":394.41156749998004,"velocity":0.7244094488188977,"duration":0.24999987500001453},{"name":"B3","midi":59,"time":394.58803799998003,"velocity":0.7244094488188977,"duration":0.35110276562500076},{"name":"G4","midi":67,"time":394.67627324998006,"velocity":0.7244094488188977,"duration":0.08639701562498203},{"name":"F#4","midi":66,"time":394.76450849998,"velocity":0.7244094488188977,"duration":0.24999987500001453},{"name":"A3","midi":57,"time":394.94097899998,"velocity":0.7244094488188977,"duration":0.35110276562500076},{"name":"E5","midi":76,"time":395.02921424998004,"velocity":0.7244094488188977,"duration":0.08639701562498203},{"name":"D#5","midi":75,"time":395.11744949998,"velocity":0.7244094488188977,"duration":0.23529400000001033},{"name":"G3","midi":55,"time":395.29391999998,"velocity":0.7244094488188977,"duration":0.3511027656249439},{"name":"E5","midi":76,"time":395.38215524998003,"velocity":0.7244094488188977,"duration":0.08639701562498203},{"name":"F#5","midi":78,"time":395.47039049998,"velocity":0.7244094488188977,"duration":0.08639701562498203},{"name":"G5","midi":79,"time":395.55862574997997,"velocity":0.7244094488188977,"duration":0.08639701562498203},{"name":"A5","midi":81,"time":395.64686099997994,"velocity":0.7244094488188977,"duration":0.08639701562498203},{"name":"E3","midi":52,"time":395.64686099997994,"velocity":0.7244094488188977,"duration":0.3511027656249439},{"name":"B5","midi":83,"time":395.7350962499799,"velocity":0.7244094488188977,"duration":0.08639701562498203},{"name":"C6","midi":84,"time":395.8233314999799,"velocity":0.7244094488188977,"duration":0.3382351249999829},{"name":"B2","midi":47,"time":395.99980199997987,"velocity":0.7244094488188977,"duration":0.35110276562500076},{"name":"D#5","midi":75,"time":396.17627249997986,"velocity":0.7244094488188977,"duration":0.35110276562500076},{"name":"E3","midi":52,"time":396.35274299997985,"velocity":0.7244094488188977,"duration":0.35110276562500076},{"name":"E5","midi":76,"time":396.52921349997985,"velocity":0.7244094488188977,"duration":0.16176462499998934},{"name":"G3","midi":55,"time":396.70568399997984,"velocity":0.7244094488188977,"duration":0.35110276562500076},{"name":"E4","midi":64,"time":396.88215449997983,"velocity":0.7244094488188977,"duration":0.35110276562500076},{"name":"B3","midi":59,"time":397.0586249999798,"velocity":0.7244094488188977,"duration":0.35110276562500076},{"name":"F#4","midi":66,"time":397.2350954999798,"velocity":0.7244094488188977,"duration":0.17463226562500722},{"name":"G4","midi":67,"time":397.4115659999798,"velocity":0.7244094488188977,"duration":0.08639701562498203},{"name":"E4","midi":64,"time":397.4115659999798,"velocity":0.7244094488188977,"duration":0.3511027656249439},{"name":"B4","midi":71,"time":397.4998012499798,"velocity":0.7244094488188977,"duration":0.08639701562498203},{"name":"E5","midi":76,"time":397.58803649997975,"velocity":0.7244094488188977,"duration":0.3382351249999829},{"name":"D4","midi":62,"time":397.76450699997974,"velocity":0.7244094488188977,"duration":0.35110276562500076},{"name":"G4","midi":67,"time":397.94097749997974,"velocity":0.7244094488188977,"duration":0.3382351249999829},{"name":"C#4","midi":61,"time":398.11744799997973,"velocity":0.7244094488188977,"duration":0.35110276562500076},{"name":"F#4","midi":66,"time":398.2939184999797,"velocity":0.7244094488188977,"duration":0.26286751562497557},{"name":"D4","midi":62,"time":398.4703889999797,"velocity":0.7244094488188977,"duration":0.3511027656249439},{"name":"E4","midi":64,"time":398.5586242499797,"velocity":0.7244094488188977,"duration":0.08639701562498203},{"name":"F#4","midi":66,"time":398.64685949997966,"velocity":0.7244094488188977,"duration":0.26286751562497557},{"name":"D3","midi":50,"time":398.82332999997965,"velocity":0.7244094488188977,"duration":0.3511027656249439},{"name":"G4","midi":67,"time":398.9115652499796,"velocity":0.7244094488188977,"duration":0.08639701562498203},{"name":"A4","midi":69,"time":398.9998004999796,"velocity":0.7244094488188977,"duration":0.26286751562497557},{"name":"F#3","midi":54,"time":399.1762709999796,"velocity":0.7244094488188977,"duration":0.3511027656249439},{"name":"B4","midi":71,"time":399.26450624997955,"velocity":0.7244094488188977,"duration":0.08639701562498203},{"name":"C5","midi":72,"time":399.3527414999795,"velocity":0.7244094488188977,"duration":0.26286751562497557},{"name":"A3","midi":57,"time":399.5292119999795,"velocity":0.7244094488188977,"duration":0.3511027656249439},{"name":"E5","midi":76,"time":399.6174472499795,"velocity":0.7244094488188977,"duration":0.08639701562498203},{"name":"A5","midi":81,"time":399.70568249997945,"velocity":0.7244094488188977,"duration":0.3382351249999829},{"name":"G3","midi":55,"time":399.88215299997944,"velocity":0.7244094488188977,"duration":0.35110276562500076},{"name":"C5","midi":72,"time":400.05862349997943,"velocity":0.7244094488188977,"duration":0.3382351249999829},{"name":"F#3","midi":54,"time":400.2350939999794,"velocity":0.7244094488188977,"duration":0.35110276562500076},{"name":"B4","midi":71,"time":400.4115644999794,"velocity":0.7244094488188977,"duration":0.26286751562497557},{"name":"G3","midi":55,"time":400.5880349999794,"velocity":0.7244094488188977,"duration":0.3511027656249439},{"name":"A4","midi":69,"time":400.6762702499794,"velocity":0.7244094488188977,"duration":0.08639701562498203},{"name":"B4","midi":71,"time":400.76450549997935,"velocity":0.7244094488188977,"duration":0.26286751562497557},{"name":"G2","midi":43,"time":400.94097599997934,"velocity":0.7244094488188977,"duration":0.3511027656249439},{"name":"C5","midi":72,"time":401.0292112499793,"velocity":0.7244094488188977,"duration":0.08639701562498203},{"name":"D5","midi":74,"time":401.1174464999793,"velocity":0.7244094488188977,"duration":0.26286751562497557},{"name":"B2","midi":47,"time":401.2939169999793,"velocity":0.7244094488188977,"duration":0.3511027656249439},{"name":"E5","midi":76,"time":401.38215224997924,"velocity":0.7244094488188977,"duration":0.08639701562498203},{"name":"F5","midi":77,"time":401.4703874999792,"velocity":0.7244094488188977,"duration":0.26286751562497557},{"name":"D3","midi":50,"time":401.6468579999792,"velocity":0.7244094488188977,"duration":0.3511027656249439},{"name":"E5","midi":76,"time":401.7350932499792,"velocity":0.7244094488188977,"duration":0.08639701562498203},{"name":"F5","midi":77,"time":401.82332849997914,"velocity":0.7244094488188977,"duration":0.31249984375000395},{"name":"C3","midi":48,"time":401.99979899997913,"velocity":0.7244094488188977,"duration":0.35110276562500076},{"name":"A4","midi":69,"time":402.1762694999791,"velocity":0.7244094488188977,"duration":0.3382351249999829},{"name":"B2","midi":47,"time":402.3527399999791,"velocity":0.7244094488188977,"duration":0.35110276562500076},{"name":"G4","midi":67,"time":402.5292104999791,"velocity":0.7244094488188977,"duration":0.16176462499998934},{"name":"E5","midi":76,"time":402.7056809999791,"velocity":0.7244094488188977,"duration":0.08639701562498203},{"name":"C3","midi":48,"time":402.7056809999791,"velocity":0.7244094488188977,"duration":0.3511027656249439},{"name":"D5","midi":74,"time":402.7939162499791,"velocity":0.7244094488188977,"duration":0.08639701562498203},{"name":"E5","midi":76,"time":402.88215149997905,"velocity":0.7244094488188977,"duration":0.31249984375000395},{"name":"B2","midi":47,"time":403.05862199997904,"velocity":0.7244094488188977,"duration":0.35110276562500076},{"name":"G4","midi":67,"time":403.23509249997903,"velocity":0.7244094488188977,"duration":0.3382351249999829},{"name":"A2","midi":45,"time":403.411562999979,"velocity":0.7244094488188977,"duration":0.35110276562500076},{"name":"F4","midi":65,"time":403.588033499979,"velocity":0.7244094488188977,"duration":0.16176462499998934},{"name":"D5","midi":74,"time":403.764503999979,"velocity":0.7244094488188977,"duration":0.08639701562498203},{"name":"B2","midi":47,"time":403.764503999979,"velocity":0.7244094488188977,"duration":0.3511027656249439},{"name":"C5","midi":72,"time":403.852739249979,"velocity":0.7244094488188977,"duration":0.08639701562498203},{"name":"D5","midi":74,"time":403.94097449997895,"velocity":0.7244094488188977,"duration":0.31249984375000395},{"name":"A2","midi":45,"time":404.11744499997894,"velocity":0.7244094488188977,"duration":0.35110276562500076},{"name":"F4","midi":65,"time":404.29391549997894,"velocity":0.7244094488188977,"duration":0.3382351249999829},{"name":"G2","midi":43,"time":404.47038599997893,"velocity":0.7244094488188977,"duration":0.35110276562500076},{"name":"E4","midi":64,"time":404.6468564999789,"velocity":0.7244094488188977,"duration":0.16176462499998934},{"name":"C5","midi":72,"time":404.8233269999789,"velocity":0.7244094488188977,"duration":0.08639701562498203},{"name":"A2","midi":45,"time":404.8233269999789,"velocity":0.7244094488188977,"duration":0.3511027656249439},{"name":"B4","midi":71,"time":404.9115622499789,"velocity":0.7244094488188977,"duration":0.08639701562498203},{"name":"C5","midi":72,"time":404.99979749997885,"velocity":0.7244094488188977,"duration":0.31249984375000395},{"name":"G2","midi":43,"time":405.17626799997885,"velocity":0.7244094488188977,"duration":0.35110276562500076},{"name":"E4","midi":64,"time":405.35273849997884,"velocity":0.7244094488188977,"duration":0.3382351249999829},{"name":"F#2","midi":42,"time":405.52920899997883,"velocity":0.7244094488188977,"duration":0.35110276562500076},{"name":"D4","midi":62,"time":405.7056794999788,"velocity":0.7244094488188977,"duration":0.16176462499998934},{"name":"B4","midi":71,"time":405.8821499999788,"velocity":0.7244094488188977,"duration":0.08639701562498203},{"name":"G2","midi":43,"time":405.8821499999788,"velocity":0.7244094488188977,"duration":0.3511027656249439},{"name":"A4","midi":69,"time":405.9703852499788,"velocity":0.7244094488188977,"duration":0.08639701562498203},{"name":"B4","midi":71,"time":406.05862049997876,"velocity":0.7244094488188977,"duration":0.3382351249999829},{"name":"C3","midi":48,"time":406.23509099997875,"velocity":0.7244094488188977,"duration":0.35110276562500076},{"name":"E5","midi":76,"time":406.41156149997875,"velocity":0.7244094488188977,"duration":0.31249984375000395},{"name":"C#3","midi":49,"time":406.58803199997874,"velocity":0.7244094488188977,"duration":0.35110276562500076},{"name":"G4","midi":67,"time":406.76450249997873,"velocity":0.7244094488188977,"duration":0.17463226562500722},{"name":"F#4","midi":66,"time":406.9409729999787,"velocity":0.7244094488188977,"duration":0.08639701562498203},{"name":"D3","midi":50,"time":406.9409729999787,"velocity":0.7244094488188977,"duration":0.3511027656249439},{"name":"E4","midi":64,"time":407.0292082499787,"velocity":0.7244094488188977,"duration":0.08639701562498203},{"name":"D4","midi":62,"time":407.11744349997866,"velocity":0.7244094488188977,"duration":0.35110276562500076},{"name":"F#3","midi":54,"time":407.29391399997866,"velocity":0.7244094488188977,"duration":0.3511027656249439},{"name":"D4","midi":62,"time":407.47038449997865,"velocity":0.7244094488188977,"duration":0.08639701562498203},{"name":"E4","midi":64,"time":407.5586197499786,"velocity":0.7244094488188977,"duration":0.08639701562498203},{"name":"F#4","midi":66,"time":407.6468549999786,"velocity":0.7244094488188977,"duration":0.08639701562498203},{"name":"A3","midi":57,"time":407.6468549999786,"velocity":0.7244094488188977,"duration":0.35110276562488707},{"name":"G4","midi":67,"time":407.73509024997855,"velocity":0.7244094488188977,"duration":0.08639701562498203},{"name":"A4","midi":69,"time":407.8233254999785,"velocity":0.7244094488188977,"duration":0.08639701562498203},{"name":"B4","midi":71,"time":407.9115607499785,"velocity":0.7244094488188977,"duration":0.08639701562498203},{"name":"C5","midi":72,"time":407.99979599997846,"velocity":0.7244094488188977,"duration":0.2573528125000166},{"name":"D4","midi":62,"time":407.99979599997846,"velocity":0.7244094488188977,"duration":0.35110276562500076},{"name":"A5","midi":81,"time":408.0880312499785,"velocity":0.7244094488188977,"duration":0.08639701562498203},{"name":"F#5","midi":78,"time":408.17626649997845,"velocity":0.7244094488188977,"duration":0.08639701562503888},{"name":"D5","midi":74,"time":408.2645017499785,"velocity":0.7244094488188977,"duration":0.08639701562498203},{"name":"C5","midi":72,"time":408.35273699997845,"velocity":0.7244094488188977,"duration":0.2573528125000166},{"name":"D3","midi":50,"time":408.35273699997845,"velocity":0.7244094488188977,"duration":0.35110276562500076},{"name":"A5","midi":81,"time":408.4409722499785,"velocity":0.7244094488188977,"duration":0.08639701562498203},{"name":"F#5","midi":78,"time":408.52920749997844,"velocity":0.7244094488188977,"duration":0.08639701562503888},{"name":"D5","midi":74,"time":408.61744274997847,"velocity":0.7244094488188977,"duration":0.08639701562498203},{"name":"C5","midi":72,"time":408.70567799997843,"velocity":0.7244094488188977,"duration":0.2573528125000166},{"name":"D4","midi":62,"time":408.70567799997843,"velocity":0.7244094488188977,"duration":0.7040437656249878},{"name":"A5","midi":81,"time":408.79391324997846,"velocity":0.7244094488188977,"duration":0.08639701562498203},{"name":"F#5","midi":78,"time":408.8821484999784,"velocity":0.7244094488188977,"duration":0.08639701562503888},{"name":"D5","midi":74,"time":408.97038374997845,"velocity":0.7244094488188977,"duration":0.08639701562498203},{"name":"B4","midi":71,"time":409.0586189999784,"velocity":0.7244094488188977,"duration":0.2573528125000166},{"name":"G5","midi":79,"time":409.14685424997845,"velocity":0.7244094488188977,"duration":0.08639701562498203},{"name":"D5","midi":74,"time":409.2350894999784,"velocity":0.7244094488188977,"duration":0.08639701562503888},{"name":"B4","midi":71,"time":409.32332474997844,"velocity":0.7244094488188977,"duration":0.08639701562498203},{"name":"G4","midi":67,"time":409.4115599999784,"velocity":0.7244094488188977,"duration":0.18382343749999563},{"name":"D3","midi":50,"time":409.4115599999784,"velocity":0.7244094488188977,"duration":0.3511027656249439},{"name":"D5","midi":74,"time":409.49979524997843,"velocity":0.7244094488188977,"duration":0.08639701562498203},{"name":"B4","midi":71,"time":409.5880304999784,"velocity":0.7244094488188977,"duration":0.08639701562498203},{"name":"G4","midi":67,"time":409.67626574997837,"velocity":0.7244094488188977,"duration":0.08639701562498203},{"name":"F#4","midi":66,"time":409.76450099997834,"velocity":0.7244094488188977,"duration":0.08639701562498203},{"name":"D4","midi":62,"time":409.76450099997834,"velocity":0.7244094488188977,"duration":0.7040437656247605},{"name":"G4","midi":67,"time":409.8527362499783,"velocity":0.7244094488188977,"duration":0.08639701562498203},{"name":"A4","midi":69,"time":409.9409714999783,"velocity":0.7244094488188977,"duration":0.08639701562498203},{"name":"B4","midi":71,"time":410.02920674997824,"velocity":0.7244094488188977,"duration":0.08639701562498203},{"name":"C5","midi":72,"time":410.1174419999782,"velocity":0.7244094488188977,"duration":0.08639701562498203},{"name":"A5","midi":81,"time":410.2056772499782,"velocity":0.7244094488188977,"duration":0.08639701562498203},{"name":"F#5","midi":78,"time":410.29391249997815,"velocity":0.7244094488188977,"duration":0.08639701562498203},{"name":"D5","midi":74,"time":410.3821477499781,"velocity":0.7244094488188977,"duration":0.08639701562498203},{"name":"C5","midi":72,"time":410.4703829999781,"velocity":0.7244094488188977,"duration":0.08639701562498203},{"name":"D3","midi":50,"time":410.4703829999781,"velocity":0.7244094488188977,"duration":0.35110276562488707},{"name":"A5","midi":81,"time":410.55861824997805,"velocity":0.7244094488188977,"duration":0.08639701562498203},{"name":"F#5","midi":78,"time":410.646853499978,"velocity":0.7244094488188977,"duration":0.08639701562498203},{"name":"D5","midi":74,"time":410.735088749978,"velocity":0.7244094488188977,"duration":0.08639701562498203},{"name":"C5","midi":72,"time":410.82332399997796,"velocity":0.7244094488188977,"duration":0.08639701562498203},{"name":"D4","midi":62,"time":410.82332399997796,"velocity":0.7244094488188977,"duration":0.7040437656247605},{"name":"A5","midi":81,"time":410.9115592499779,"velocity":0.7244094488188977,"duration":0.08639701562498203},{"name":"F#5","midi":78,"time":410.9997944999779,"velocity":0.7244094488188977,"duration":0.08639701562498203},{"name":"D5","midi":74,"time":411.08802974997786,"velocity":0.7244094488188977,"duration":0.08639701562498203},{"name":"B4","midi":71,"time":411.17626499997783,"velocity":0.7244094488188977,"duration":0.08639701562498203},{"name":"G5","midi":79,"time":411.2645002499778,"velocity":0.7244094488188977,"duration":0.08639701562498203},{"name":"D5","midi":74,"time":411.35273549997777,"velocity":0.7244094488188977,"duration":0.08639701562498203},{"name":"B4","midi":71,"time":411.44097074997774,"velocity":0.7244094488188977,"duration":0.08639701562498203},{"name":"G4","midi":67,"time":411.5292059999777,"velocity":0.7244094488188977,"duration":0.08639701562498203},{"name":"D3","midi":50,"time":411.5292059999777,"velocity":0.7244094488188977,"duration":0.35110276562488707},{"name":"D5","midi":74,"time":411.6174412499777,"velocity":0.7244094488188977,"duration":0.08639701562498203},{"name":"B4","midi":71,"time":411.70567649997764,"velocity":0.7244094488188977,"duration":0.08639701562498203},{"name":"G4","midi":67,"time":411.7939117499776,"velocity":0.7244094488188977,"duration":0.08639701562498203},{"name":"F#4","midi":66,"time":411.8821469999776,"velocity":0.7244094488188977,"duration":0.08639701562498203},{"name":"D4","midi":62,"time":411.8821469999776,"velocity":0.7244094488188977,"duration":0.7040437656248173},{"name":"G4","midi":67,"time":411.97038224997755,"velocity":0.7244094488188977,"duration":0.08639701562498203},{"name":"A4","midi":69,"time":412.0586174999775,"velocity":0.7244094488188977,"duration":0.08639701562498203},{"name":"B4","midi":71,"time":412.1468527499775,"velocity":0.7244094488188977,"duration":0.08639701562498203},{"name":"C#5","midi":73,"time":412.23508799997745,"velocity":0.7244094488188977,"duration":0.6985290624998584},{"name":"A#4","midi":70,"time":412.3233232499775,"velocity":0.7244094488188977,"duration":0.08639701562498203},{"name":"A4","midi":69,"time":412.41155849997745,"velocity":0.7244094488188977,"duration":0.08639701562498203},{"name":"G4","midi":67,"time":412.4997937499774,"velocity":0.7244094488188977,"duration":0.08639701562498203},{"name":"E4","midi":64,"time":412.5880289999774,"velocity":0.7244094488188977,"duration":0.08639701562498203},{"name":"D3","midi":50,"time":412.5880289999774,"velocity":0.7244094488188977,"duration":0.3511027656249439},{"name":"G4","midi":67,"time":412.67626424997735,"velocity":0.7244094488188977,"duration":0.08639701562498203},{"name":"A4","midi":69,"time":412.7644994999773,"velocity":0.7244094488188977,"duration":0.08639701562498203},{"name":"A#4","midi":70,"time":412.8527347499773,"velocity":0.7244094488188977,"duration":0.08639701562503888},{"name":"C#5","midi":73,"time":412.9409699999773,"velocity":0.7244094488188977,"duration":0.08639701562498203},{"name":"D4","midi":62,"time":412.9409699999773,"velocity":0.7244094488188977,"duration":0.7040437656248173},{"name":"A#4","midi":70,"time":413.0292052499773,"velocity":0.7244094488188977,"duration":0.08639701562498203},{"name":"A4","midi":69,"time":413.11744049997725,"velocity":0.7244094488188977,"duration":0.08639701562498203},{"name":"G4","midi":67,"time":413.2056757499772,"velocity":0.7244094488188977,"duration":0.08639701562498203},{"name":"C5","midi":72,"time":413.2939109999772,"velocity":0.7244094488188977,"duration":0.6249996874998374},{"name":"A4","midi":69,"time":413.3821462499772,"velocity":0.7244094488188977,"duration":0.08639701562498203},{"name":"G4","midi":67,"time":413.4703814999772,"velocity":0.7244094488188977,"duration":0.08639701562498203},{"name":"F#4","midi":66,"time":413.55861674997715,"velocity":0.7244094488188977,"duration":0.08639701562498203},{"name":"D#4","midi":63,"time":413.6468519999771,"velocity":0.7244094488188977,"duration":0.08639701562498203},{"name":"D3","midi":50,"time":413.6468519999771,"velocity":0.7244094488188977,"duration":0.35110276562488707},{"name":"F#4","midi":66,"time":413.7350872499771,"velocity":0.7244094488188977,"duration":0.08639701562498203},{"name":"G4","midi":67,"time":413.82332249997705,"velocity":0.7244094488188977,"duration":0.08639701562498203},{"name":"A4","midi":69,"time":413.911557749977,"velocity":0.7244094488188977,"duration":0.08639701562498203},{"name":"C5","midi":72,"time":413.999792999977,"velocity":0.7244094488188977,"duration":0.08639701562498203},{"name":"D4","midi":62,"time":413.999792999977,"velocity":0.7244094488188977,"duration":0.7040437656248173},{"name":"A4","midi":69,"time":414.08802824997696,"velocity":0.7244094488188977,"duration":0.08639701562498203},{"name":"G4","midi":67,"time":414.1762634999769,"velocity":0.7244094488188977,"duration":0.08639701562498203},{"name":"F#4","midi":66,"time":414.2644987499769,"velocity":0.7244094488188977,"duration":0.08639701562498203},{"name":"A#4","midi":70,"time":414.35273399997686,"velocity":0.7244094488188977,"duration":0.5514703124998732},{"name":"G4","midi":67,"time":414.4409692499769,"velocity":0.7244094488188977,"duration":0.08639701562498203},{"name":"F#4","midi":66,"time":414.52920449997686,"velocity":0.7244094488188977,"duration":0.08639701562498203},{"name":"E4","midi":64,"time":414.6174397499768,"velocity":0.7244094488188977,"duration":0.08639701562498203},{"name":"C#4","midi":61,"time":414.7056749999768,"velocity":0.7244094488188977,"duration":0.08639701562498203},{"name":"D3","midi":50,"time":414.7056749999768,"velocity":0.7244094488188977,"duration":0.35110276562488707},{"name":"E4","midi":64,"time":414.79391024997676,"velocity":0.7244094488188977,"duration":0.08639701562498203},{"name":"F#4","midi":66,"time":414.88214549997673,"velocity":0.7244094488188977,"duration":0.08639701562498203},{"name":"G4","midi":67,"time":414.9703807499767,"velocity":0.7244094488188977,"duration":0.08639701562498203},{"name":"A#4","midi":70,"time":415.05861599997667,"velocity":0.7244094488188977,"duration":0.08639701562498203},{"name":"D4","midi":62,"time":415.05861599997667,"velocity":0.7244094488188977,"duration":0.7040437656248173},{"name":"G4","midi":67,"time":415.14685124997663,"velocity":0.7244094488188977,"duration":0.08639701562498203},{"name":"F#4","midi":66,"time":415.2350864999766,"velocity":0.7244094488188977,"duration":0.08639701562498203},{"name":"E4","midi":64,"time":415.32332174997657,"velocity":0.7244094488188977,"duration":0.08639701562498203},{"name":"C#5","midi":73,"time":415.41155699997654,"velocity":0.7244094488188977,"duration":0.11029406250003149},{"name":"A#4","midi":70,"time":415.49979224997657,"velocity":0.7244094488188977,"duration":0.08639701562498203},{"name":"A4","midi":69,"time":415.58802749997653,"velocity":0.7244094488188977,"duration":0.08639701562498203},{"name":"G4","midi":67,"time":415.6762627499765,"velocity":0.7244094488188977,"duration":0.08639701562498203},{"name":"D#5","midi":75,"time":415.76449799997647,"velocity":0.7244094488188977,"duration":0.1286764062500083},{"name":"F#3","midi":54,"time":415.76449799997647,"velocity":0.7244094488188977,"duration":0.3511027656249439},{"name":"C5","midi":72,"time":415.8527332499765,"velocity":0.7244094488188977,"duration":0.08639701562498203},{"name":"A#4","midi":70,"time":415.94096849997646,"velocity":0.7244094488188977,"duration":0.08639701562498203},{"name":"A4","midi":69,"time":416.02920374997643,"velocity":0.7244094488188977,"duration":0.08639701562498203},{"name":"F#5","midi":78,"time":416.1174389999764,"velocity":0.7244094488188977,"duration":0.1654410937500188},{"name":"D3","midi":50,"time":416.1174389999764,"velocity":0.7244094488188977,"duration":0.3511027656249439},{"name":"D#5","midi":75,"time":416.2056742499764,"velocity":0.7244094488188977,"duration":0.08639701562498203},{"name":"D5","midi":74,"time":416.2939094999764,"velocity":0.7244094488188977,"duration":0.08639701562498203},{"name":"C5","midi":72,"time":416.38214474997636,"velocity":0.7244094488188977,"duration":0.08639701562498203},{"name":"G5","midi":79,"time":416.47037999997633,"velocity":0.7244094488188977,"duration":0.08639701562498203},{"name":"B2","midi":47,"time":416.47037999997633,"velocity":0.7244094488188977,"duration":0.3511027656249439},{"name":"F#5","midi":78,"time":416.5586152499763,"velocity":0.7244094488188977,"duration":0.08639701562498203},{"name":"G5","midi":79,"time":416.64685049997627,"velocity":0.7244094488188977,"duration":0.2941174999999703},{"name":"G2","midi":43,"time":416.82332099997626,"velocity":0.7244094488188977,"duration":0.35110276562500076},{"name":"B5","midi":83,"time":416.99979149997625,"velocity":0.7244094488188977,"duration":0.17463226562500722},{"name":"D5","midi":74,"time":417.17626199997625,"velocity":0.7244094488188977,"duration":0.17463226562500722},{"name":"D3","midi":50,"time":417.17626199997625,"velocity":0.7244094488188977,"duration":0.35110276562500076},{"name":"F#5","midi":78,"time":417.35273249997624,"velocity":0.7244094488188977,"duration":0.17463226562500722},{"name":"G5","midi":79,"time":417.52920299997623,"velocity":0.7244094488188977,"duration":0.34926453125001444},{"name":"G2","midi":43,"time":417.52920299997623,"velocity":0.7244094488188977,"duration":0.35110276562500076},{"name":"G3","midi":55,"time":417.8821439999762,"velocity":0.7244094488188977,"duration":0.3511027656249439},{"name":"B5","midi":83,"time":418.0586144999762,"velocity":0.7244094488188977,"duration":0.08639701562498203},{"name":"A5","midi":81,"time":418.1468497499762,"velocity":0.7244094488188977,"duration":0.08639701562498203},{"name":"G5","midi":79,"time":418.23508499997615,"velocity":0.7244094488188977,"duration":0.08639701562498203},{"name":"B3","midi":59,"time":418.23508499997615,"velocity":0.7244094488188977,"duration":0.3511027656249439},{"name":"F#5","midi":78,"time":418.3233202499761,"velocity":0.7244094488188977,"duration":0.08639701562498203},{"name":"E5","midi":76,"time":418.4115554999761,"velocity":0.7244094488188977,"duration":0.26286751562497557},{"name":"G#3","midi":56,"time":418.5880259999761,"velocity":0.7244094488188977,"duration":0.3511027656249439},{"name":"F5","midi":77,"time":418.67626124997605,"velocity":0.7244094488188977,"duration":0.08639701562498203},{"name":"D5","midi":74,"time":418.764496499976,"velocity":0.7244094488188977,"duration":0.26286751562497557},{"name":"E4","midi":64,"time":418.940966999976,"velocity":0.7244094488188977,"duration":0.3511027656249439},{"name":"E5","midi":76,"time":419.029202249976,"velocity":0.7244094488188977,"duration":0.08639701562498203},{"name":"C5","midi":72,"time":419.11743749997595,"velocity":0.7244094488188977,"duration":0.26286751562497557},{"name":"E3","midi":52,"time":419.29390799997594,"velocity":0.7244094488188977,"duration":0.3511027656249439},{"name":"D5","midi":74,"time":419.3821432499759,"velocity":0.7244094488188977,"duration":0.08639701562498203},{"name":"B4","midi":71,"time":419.4703784999759,"velocity":0.7244094488188977,"duration":0.26286751562497557},{"name":"A3","midi":57,"time":419.6468489999759,"velocity":0.7244094488188977,"duration":0.3511027656249439},{"name":"C5","midi":72,"time":419.73508424997584,"velocity":0.7244094488188977,"duration":0.08639701562498203},{"name":"A4","midi":69,"time":419.8233194999758,"velocity":0.7244094488188977,"duration":0.17463226562500722},{"name":"F#3","midi":54,"time":419.9997899999758,"velocity":0.7244094488188977,"duration":0.3511027656249439},{"name":"A4","midi":69,"time":420.1762604999758,"velocity":0.7244094488188977,"duration":0.08639701562498203},{"name":"B4","midi":71,"time":420.26449574997577,"velocity":0.7244094488188977,"duration":0.08639701562498203},{"name":"C5","midi":72,"time":420.35273099997573,"velocity":0.7244094488188977,"duration":0.08639701562498203},{"name":"E3","midi":52,"time":420.35273099997573,"velocity":0.7244094488188977,"duration":0.3511027656249439},{"name":"B4","midi":71,"time":420.4409662499757,"velocity":0.7244094488188977,"duration":0.08639701562498203},{"name":"A4","midi":69,"time":420.52920149997567,"velocity":0.7244094488188977,"duration":0.17463226562500722},{"name":"F#5","midi":78,"time":420.70567199997566,"velocity":0.7244094488188977,"duration":0.08639701562498203},{"name":"D#3","midi":51,"time":420.70567199997566,"velocity":0.7244094488188977,"duration":0.3511027656249439},{"name":"A4","midi":69,"time":420.79390724997563,"velocity":0.7244094488188977,"duration":0.08639701562498203},{"name":"C5","midi":72,"time":420.8821424999756,"velocity":0.7244094488188977,"duration":0.26286751562497557},{"name":"B2","midi":47,"time":421.0586129999756,"velocity":0.7244094488188977,"duration":0.3511027656249439},{"name":"B4","midi":71,"time":421.14684824997556,"velocity":0.7244094488188977,"duration":0.08639701562498203},{"name":"A4","midi":69,"time":421.23508349997553,"velocity":0.7244094488188977,"duration":0.26286751562497557},{"name":"B3","midi":59,"time":421.4115539999755,"velocity":0.7244094488188977,"duration":0.3511027656249439},{"name":"G4","midi":67,"time":421.4997892499755,"velocity":0.7244094488188977,"duration":0.08639701562498203},{"name":"F#4","midi":66,"time":421.58802449997546,"velocity":0.7244094488188977,"duration":0.17463226562500722},{"name":"G4","midi":67,"time":421.76449499997545,"velocity":0.7244094488188977,"duration":0.08639701562498203},{"name":"E3","midi":52,"time":421.76449499997545,"velocity":0.7244094488188977,"duration":0.3511027656249439},{"name":"F#4","midi":66,"time":421.8527302499754,"velocity":0.7244094488188977,"duration":0.08639701562498203},{"name":"E4","midi":64,"time":421.9409654999754,"velocity":0.7244094488188977,"duration":0.17463226562500722},{"name":"C#3","midi":49,"time":422.1174359999754,"velocity":0.7244094488188977,"duration":0.3511027656249439},{"name":"A#4","midi":70,"time":422.2939064999754,"velocity":0.7244094488188977,"duration":0.08639701562498203},{"name":"B4","midi":71,"time":422.38214174997535,"velocity":0.7244094488188977,"duration":0.08639701562498203},{"name":"C#5","midi":73,"time":422.4703769999753,"velocity":0.7244094488188977,"duration":0.08639701562498203},{"name":"B2","midi":47,"time":422.4703769999753,"velocity":0.7244094488188977,"duration":0.3511027656249439},{"name":"D5","midi":74,"time":422.5586122499753,"velocity":0.7244094488188977,"duration":0.08639701562498203},{"name":"E5","midi":76,"time":422.64684749997525,"velocity":0.7244094488188977,"duration":0.26286751562497557},{"name":"A#2","midi":46,"time":422.82331799997525,"velocity":0.7244094488188977,"duration":0.3511027656249439},{"name":"F#5","midi":78,"time":422.9115532499752,"velocity":0.7244094488188977,"duration":0.08639701562498203},{"name":"G5","midi":79,"time":422.9997884999752,"velocity":0.7244094488188977,"duration":0.26286751562497557},{"name":"F#2","midi":42,"time":423.1762589999752,"velocity":0.7244094488188977,"duration":0.3511027656249439},{"name":"F#5","midi":78,"time":423.26449424997514,"velocity":0.7244094488188977,"duration":0.08639701562498203},{"name":"E5","midi":76,"time":423.3527294999751,"velocity":0.7244094488188977,"duration":0.26286751562497557},{"name":"F#3","midi":54,"time":423.5291999999751,"velocity":0.7244094488188977,"duration":0.3511027656249439},{"name":"D5","midi":74,"time":423.6174352499751,"velocity":0.7244094488188977,"duration":0.08639701562498203},{"name":"C#5","midi":73,"time":423.70567049997504,"velocity":0.7244094488188977,"duration":0.17463226562500722},{"name":"D5","midi":74,"time":423.88214099997504,"velocity":0.7244094488188977,"duration":0.08639701562498203},{"name":"B2","midi":47,"time":423.88214099997504,"velocity":0.7244094488188977,"duration":0.3511027656249439},{"name":"E5","midi":76,"time":423.970376249975,"velocity":0.7244094488188977,"duration":0.08639701562498203},{"name":"F#5","midi":78,"time":424.058611499975,"velocity":0.7244094488188977,"duration":0.26286751562497557},{"name":"A3","midi":57,"time":424.23508199997497,"velocity":0.7244094488188977,"duration":0.3511027656249439},{"name":"E5","midi":76,"time":424.32331724997493,"velocity":0.7244094488188977,"duration":0.08639701562498203},{"name":"D5","midi":74,"time":424.4115524999749,"velocity":0.7244094488188977,"duration":0.26286751562497557},{"name":"G3","midi":55,"time":424.5880229999749,"velocity":0.7244094488188977,"duration":0.3511027656249439},{"name":"C#5","midi":73,"time":424.67625824997486,"velocity":0.7244094488188977,"duration":0.08639701562498203},{"name":"B4","midi":71,"time":424.76449349997483,"velocity":0.7244094488188977,"duration":0.17463226562500722},{"name":"C#5","midi":73,"time":424.9409639999748,"velocity":0.7244094488188977,"duration":0.08639701562498203},{"name":"A2","midi":45,"time":424.9409639999748,"velocity":0.7244094488188977,"duration":0.3511027656249439},{"name":"D5","midi":74,"time":425.0291992499748,"velocity":0.7244094488188977,"duration":0.08639701562498203},{"name":"E5","midi":76,"time":425.11743449997476,"velocity":0.7244094488188977,"duration":0.26286751562497557},{"name":"G3","midi":55,"time":425.29390499997476,"velocity":0.7244094488188977,"duration":0.3511027656249439},{"name":"D5","midi":74,"time":425.3821402499747,"velocity":0.7244094488188977,"duration":0.08639701562498203},{"name":"C#5","midi":73,"time":425.4703754999747,"velocity":0.7244094488188977,"duration":0.26286751562497557},{"name":"F#3","midi":54,"time":425.6468459999747,"velocity":0.7244094488188977,"duration":0.3511027656249439},{"name":"B4","midi":71,"time":425.73508124997466,"velocity":0.7244094488188977,"duration":0.08639701562498203},{"name":"A#4","midi":70,"time":425.8233164999746,"velocity":0.7244094488188977,"duration":0.17463226562500722},{"name":"B4","midi":71,"time":425.9997869999746,"velocity":0.7244094488188977,"duration":0.08639701562498203},{"name":"G2","midi":43,"time":425.9997869999746,"velocity":0.7244094488188977,"duration":0.3511027656249439},{"name":"C#5","midi":73,"time":426.0880222499746,"velocity":0.7244094488188977,"duration":0.08639701562498203},{"name":"D5","midi":74,"time":426.17625749997455,"velocity":0.7244094488188977,"duration":0.35110276562500076},{"name":"F#3","midi":54,"time":426.35272799997455,"velocity":0.7244094488188977,"duration":0.3511027656249439},{"name":"E5","midi":76,"time":426.52919849997454,"velocity":0.7244094488188977,"duration":0.08639701562498203},{"name":"F#5","midi":78,"time":426.6174337499745,"velocity":0.7244094488188977,"duration":0.08639701562498203},{"name":"G5","midi":79,"time":426.7056689999745,"velocity":0.7244094488188977,"duration":0.08639701562498203},{"name":"E3","midi":52,"time":426.7056689999745,"velocity":0.7244094488188977,"duration":0.3511027656249439},{"name":"F#5","midi":78,"time":426.79390424997445,"velocity":0.7244094488188977,"duration":0.08639701562498203},{"name":"G5","midi":79,"time":426.8821394999744,"velocity":0.7244094488188977,"duration":0.17463226562500722},{"name":"A#4","midi":70,"time":427.0586099999744,"velocity":0.7244094488188977,"duration":0.2573528125000166},{"name":"F#2","midi":42,"time":427.0586099999744,"velocity":0.7244094488188977,"duration":0.35110276562500076},{"name":"G5","midi":79,"time":427.14684524997443,"velocity":0.7244094488188977,"duration":0.08639701562498203},{"name":"F#5","midi":78,"time":427.2350804999744,"velocity":0.7244094488188977,"duration":0.08639701562503888},{"name":"E5","midi":76,"time":427.3233157499744,"velocity":0.7244094488188977,"duration":0.08639701562498203},{"name":"B4","midi":71,"time":427.4115509999744,"velocity":0.7244094488188977,"duration":0.2573528125000166},{"name":"G#3","midi":56,"time":427.4115509999744,"velocity":0.7244094488188977,"duration":0.35110276562500076},{"name":"F#5","midi":78,"time":427.4997862499744,"velocity":0.7244094488188977,"duration":0.08639701562498203},{"name":"E5","midi":76,"time":427.5880214999744,"velocity":0.7244094488188977,"duration":0.08639701562503888},{"name":"D5","midi":74,"time":427.6762567499744,"velocity":0.7244094488188977,"duration":0.08639701562498203},{"name":"C#5","midi":73,"time":427.7644919999744,"velocity":0.7244094488188977,"duration":0.2573528125000166},{"name":"A#3","midi":58,"time":427.7644919999744,"velocity":0.7244094488188977,"duration":0.35110276562500076},{"name":"E5","midi":76,"time":427.8527272499744,"velocity":0.7244094488188977,"duration":0.08639701562498203},{"name":"D5","midi":74,"time":427.9409624999744,"velocity":0.7244094488188977,"duration":0.08639701562503888},{"name":"C#5","midi":73,"time":428.0291977499744,"velocity":0.7244094488188977,"duration":0.08639701562498203},{"name":"D5","midi":74,"time":428.11743299997437,"velocity":0.7244094488188977,"duration":0.43198507812491016},{"name":"F#2","midi":42,"time":428.11743299997437,"velocity":0.7244094488188977,"duration":0.3511027656249439},{"name":"B4","midi":71,"time":428.2056682499744,"velocity":0.7244094488188977,"duration":0.08639701562498203},{"name":"A#4","midi":70,"time":428.29390349997436,"velocity":0.7244094488188977,"duration":0.08639701562498203},{"name":"G#4","midi":68,"time":428.38213874997433,"velocity":0.7244094488188977,"duration":0.08639701562498203},{"name":"F#4","midi":66,"time":428.4703739999743,"velocity":0.7244094488188977,"duration":0.08639701562498203},{"name":"B3","midi":59,"time":428.4703739999743,"velocity":0.7244094488188977,"duration":0.35110276562488707},{"name":"B4","midi":71,"time":428.55860924997427,"velocity":0.7244094488188977,"duration":0.08639701562498203},{"name":"C#5","midi":73,"time":428.64684449997424,"velocity":0.7244094488188977,"duration":0.08639701562498203},{"name":"D5","midi":74,"time":428.7350797499742,"velocity":0.7244094488188977,"duration":0.08639701562498203},{"name":"E4","midi":64,"time":428.8233149999742,"velocity":0.7244094488188977,"duration":0.08639701562498203},{"name":"C#4","midi":61,"time":428.8233149999742,"velocity":0.7244094488188977,"duration":0.35110276562488707},{"name":"A#4","midi":70,"time":428.91155024997414,"velocity":0.7244094488188977,"duration":0.08639701562498203},{"name":"B4","midi":71,"time":428.9997854999741,"velocity":0.7244094488188977,"duration":0.08639701562498203},{"name":"C#5","midi":73,"time":429.0880207499741,"velocity":0.7244094488188977,"duration":0.08639701562498203},{"name":"D4","midi":62,"time":429.17625599997405,"velocity":0.7244094488188977,"duration":0.08639701562498203},{"name":"F#2","midi":42,"time":429.17625599997405,"velocity":0.7244094488188977,"duration":0.3511027656249439},{"name":"F#4","midi":66,"time":429.264491249974,"velocity":0.7244094488188977,"duration":0.08639701562498203},{"name":"B4","midi":71,"time":429.352726499974,"velocity":0.7244094488188977,"duration":0.26286751562497557},{"name":"C#4","midi":61,"time":429.529196999974,"velocity":0.7244094488188977,"duration":0.35110276562488707},{"name":"C#5","midi":73,"time":429.61743224997394,"velocity":0.7244094488188977,"duration":0.08639701562498203},{"name":"B4","midi":71,"time":429.7056674999739,"velocity":0.7244094488188977,"duration":0.08639701562498203},{"name":"A4","midi":69,"time":429.7939027499739,"velocity":0.7244094488188977,"duration":0.17463226562495038},{"name":"B3","midi":59,"time":429.88213799997385,"velocity":0.7244094488188977,"duration":0.35110276562488707},{"name":"B4","midi":71,"time":429.9703732499738,"velocity":0.7244094488188977,"duration":0.08639701562498203},{"name":"A4","midi":69,"time":430.0586084999738,"velocity":0.7244094488188977,"duration":0.08639701562498203},{"name":"G4","midi":67,"time":430.14684374997375,"velocity":0.7244094488188977,"duration":0.17463226562495038},{"name":"A3","midi":57,"time":430.2350789999737,"velocity":0.7244094488188977,"duration":0.35110276562488707},{"name":"A4","midi":69,"time":430.3233142499737,"velocity":0.7244094488188977,"duration":0.08639701562498203},{"name":"G4","midi":67,"time":430.41154949997366,"velocity":0.7244094488188977,"duration":0.08639701562498203},{"name":"F#4","midi":66,"time":430.4997847499736,"velocity":0.7244094488188977,"duration":0.17463226562495038},{"name":"G3","midi":55,"time":430.5880199999736,"velocity":0.7244094488188977,"duration":0.35110276562488707},{"name":"G4","midi":67,"time":430.67625524997356,"velocity":0.7244094488188977,"duration":0.08639701562498203},{"name":"F#4","midi":66,"time":430.76449049997353,"velocity":0.7244094488188977,"duration":0.08639701562498203},{"name":"E4","midi":64,"time":430.8527257499735,"velocity":0.7244094488188977,"duration":0.17463226562495038},{"name":"F#3","midi":54,"time":430.94096099997347,"velocity":0.7244094488188977,"duration":0.35110276562488707},{"name":"F#4","midi":66,"time":431.02919624997344,"velocity":0.7244094488188977,"duration":0.08639701562498203},{"name":"E4","midi":64,"time":431.1174314999734,"velocity":0.7244094488188977,"duration":0.08639701562498203},{"name":"D4","midi":62,"time":431.2056667499734,"velocity":0.7244094488188977,"duration":0.17463226562495038},{"name":"E3","midi":52,"time":431.29390199997334,"velocity":0.7244094488188977,"duration":0.3511027656249439},{"name":"G4","midi":67,"time":431.3821372499733,"velocity":0.7244094488188977,"duration":0.08639701562498203},{"name":"C4","midi":60,"time":431.4703724999733,"velocity":0.7244094488188977,"duration":0.1654410937500188},{"name":"D3","midi":50,"time":431.6468429999733,"velocity":0.7244094488188977,"duration":0.35110276562500076},{"name":"G4","midi":67,"time":431.7350782499733,"velocity":0.7244094488188977,"duration":0.08639701562498203},{"name":"B3","midi":59,"time":431.82331349997327,"velocity":0.7244094488188977,"duration":0.1654410937500188},{"name":"C#3","midi":49,"time":431.99978399997326,"velocity":0.7244094488188977,"duration":0.4393380156249691},{"name":"G4","midi":67,"time":432.0880192499733,"velocity":0.7244094488188977,"duration":0.08639701562498203},{"name":"A#3","midi":58,"time":432.17625449997325,"velocity":0.7244094488188977,"duration":0.5294114999998669},{"name":"F#2","midi":42,"time":432.4409602499732,"velocity":0.7244094488188977,"duration":0.08639701562498203},{"name":"A#2","midi":46,"time":432.5291954999732,"velocity":0.7244094488188977,"duration":0.08639701562498203},{"name":"C#3","midi":49,"time":432.61743074997315,"velocity":0.7244094488188977,"duration":0.08639701562498203},{"name":"E3","midi":52,"time":432.7056659999731,"velocity":0.7244094488188977,"duration":0.08639701562498203},{"name":"G3","midi":55,"time":432.7939012499731,"velocity":0.7244094488188977,"duration":0.08639701562498203},{"name":"A#3","midi":58,"time":432.88213649997306,"velocity":0.7244094488188977,"duration":0.08639701562498203},{"name":"C#4","midi":61,"time":432.970371749973,"velocity":0.7244094488188977,"duration":0.08639701562498203},{"name":"E4","midi":64,"time":433.058606999973,"velocity":0.7244094488188977,"duration":0.08639701562498203},{"name":"F#4","midi":66,"time":433.14684224997296,"velocity":0.7244094488188977,"duration":0.08639701562498203},{"name":"A#4","midi":70,"time":433.23507749997293,"velocity":0.7244094488188977,"duration":0.08639701562498203},{"name":"C#5","midi":73,"time":433.3233127499729,"velocity":0.7244094488188977,"duration":0.08639701562498203},{"name":"D5","midi":74,"time":433.41154799997287,"velocity":0.7244094488188977,"duration":0.08639701562498203},{"name":"F5","midi":77,"time":433.49978324997284,"velocity":0.7244094488188977,"duration":0.08639701562498203},{"name":"G#5","midi":80,"time":433.5880184999728,"velocity":0.7244094488188977,"duration":0.08639701562498203},{"name":"B5","midi":83,"time":433.6762537499728,"velocity":0.7244094488188977,"duration":0.16911756250004828},{"name":"F#4","midi":66,"time":433.7644889999728,"velocity":0.7244094488188977,"duration":0.2647057500000187},{"name":"E4","midi":64,"time":434.11742999997284,"velocity":0.7244094488188977,"duration":0.31249984375000395},{"name":"F#4","midi":66,"time":434.11742999997284,"velocity":0.7244094488188977,"duration":0.31249984375000395},{"name":"A#4","midi":70,"time":434.11742999997284,"velocity":0.7244094488188977,"duration":0.31249984375000395},{"name":"F#3","midi":54,"time":434.11742999997284,"velocity":0.7244094488188977,"duration":0.31249984375000395},{"name":"C#4","midi":61,"time":434.11742999997284,"velocity":0.7244094488188977,"duration":0.31249984375000395},{"name":"B4","midi":71,"time":434.47037099997283,"velocity":0.7244094488188977,"duration":0.698529062499972},{"name":"F#4","midi":66,"time":434.47037099997283,"velocity":0.7244094488188977,"duration":0.698529062499972},{"name":"D#4","midi":63,"time":434.47037099997283,"velocity":0.7244094488188977,"duration":0.698529062499972},{"name":"B2","midi":47,"time":434.47037099997283,"velocity":0.7244094488188977,"duration":0.698529062499972},{"name":"B3","midi":59,"time":434.47037099997283,"velocity":0.7244094488188977,"duration":0.698529062499972},{"name":"F#5","midi":78,"time":435.3527234999728,"velocity":0.7244094488188977,"duration":0.17463226562500722},{"name":"F#5","midi":78,"time":435.5291939999728,"velocity":0.7244094488188977,"duration":0.17463226562500722},{"name":"B2","midi":47,"time":435.5291939999728,"velocity":0.7244094488188977,"duration":0.35110276562500076},{"name":"B5","midi":83,"time":435.7056644999728,"velocity":0.7244094488188977,"duration":0.3382351249999829},{"name":"D#3","midi":51,"time":435.8821349999728,"velocity":0.7244094488188977,"duration":0.35110276562500076},{"name":"A5","midi":81,"time":436.05860549997277,"velocity":0.7244094488188977,"duration":0.3382351249999829},{"name":"F#3","midi":54,"time":436.23507599997276,"velocity":0.7244094488188977,"duration":0.35110276562500076},{"name":"C6","midi":84,"time":436.41154649997276,"velocity":0.7244094488188977,"duration":0.3382351249999829},{"name":"A3","midi":57,"time":436.58801699997275,"velocity":0.7244094488188977,"duration":0.35110276562500076},{"name":"D#5","midi":75,"time":436.76448749997274,"velocity":0.7244094488188977,"duration":0.3382351249999829},{"name":"C4","midi":60,"time":436.94095799997274,"velocity":0.7244094488188977,"duration":0.35110276562500076},{"name":"F#5","midi":78,"time":437.11742849997273,"velocity":0.7244094488188977,"duration":0.3382351249999829},{"name":"D#4","midi":63,"time":437.2938989999727,"velocity":0.7244094488188977,"duration":0.35110276562500076},{"name":"A4","midi":69,"time":437.4703694999727,"velocity":0.7244094488188977,"duration":0.3382351249999829},{"name":"F#4","midi":66,"time":437.6468399999727,"velocity":0.7244094488188977,"duration":0.35110276562500076},{"name":"C5","midi":72,"time":437.8233104999727,"velocity":0.7244094488188977,"duration":0.3382351249999829},{"name":"D#4","midi":63,"time":437.9997809999727,"velocity":0.7244094488188977,"duration":0.35110276562500076},{"name":"B4","midi":71,"time":438.1762514999727,"velocity":0.7244094488188977,"duration":0.3382351249999829},{"name":"B3","midi":59,"time":438.3527219999727,"velocity":0.7244094488188977,"duration":0.35110276562500076},{"name":"A4","midi":69,"time":438.5291924999727,"velocity":0.7244094488188977,"duration":0.26286751562497557},{"name":"E3","midi":52,"time":438.7056629999727,"velocity":0.7244094488188977,"duration":0.3511027656249439},{"name":"F#4","midi":66,"time":438.79389824997264,"velocity":0.7244094488188977,"duration":0.08639701562498203},{"name":"G4","midi":67,"time":438.8821334999726,"velocity":0.7244094488188977,"duration":0.17463226562500722},{"name":"E4","midi":64,"time":439.0586039999726,"velocity":0.7244094488188977,"duration":0.3511027656249439},{"name":"B4","midi":71,"time":439.2350744999726,"velocity":0.7244094488188977,"duration":0.08639701562498203},{"name":"A4","midi":69,"time":439.32330974997257,"velocity":0.7244094488188977,"duration":0.08639701562498203},{"name":"G4","midi":67,"time":439.41154499997253,"velocity":0.7244094488188977,"duration":0.08639701562498203},{"name":"D4","midi":62,"time":439.41154499997253,"velocity":0.7244094488188977,"duration":0.3511027656249439},{"name":"F#4","midi":66,"time":439.4997802499725,"velocity":0.7244094488188977,"duration":0.08639701562498203},{"name":"E4","midi":64,"time":439.58801549997247,"velocity":0.7244094488188977,"duration":0.23529400000001033},{"name":"C4","midi":60,"time":439.76448599997246,"velocity":0.7244094488188977,"duration":0.35110276562500076},{"name":"G#4","midi":68,"time":439.8527212499725,"velocity":0.7244094488188977,"duration":0.08639701562498203},{"name":"A4","midi":69,"time":439.94095649997246,"velocity":0.7244094488188977,"duration":0.26286751562497557},{"name":"A3","midi":57,"time":440.11742699997245,"velocity":0.7244094488188977,"duration":0.3511027656249439},{"name":"B4","midi":71,"time":440.2056622499724,"velocity":0.7244094488188977,"duration":0.08639701562498203},{"name":"C5","midi":72,"time":440.2938974999724,"velocity":0.7244094488188977,"duration":0.26286751562497557},{"name":"G3","midi":55,"time":440.4703679999724,"velocity":0.7244094488188977,"duration":0.3511027656249439},{"name":"D5","midi":74,"time":440.55860324997235,"velocity":0.7244094488188977,"duration":0.08639701562498203},{"name":"E5","midi":76,"time":440.6468384999723,"velocity":0.7244094488188977,"duration":0.26286751562497557},{"name":"F3","midi":53,"time":440.8233089999723,"velocity":0.7244094488188977,"duration":0.3511027656249439},{"name":"C#5","midi":73,"time":440.9115442499723,"velocity":0.7244094488188977,"duration":0.08639701562498203},{"name":"D5","midi":74,"time":440.99977949997225,"velocity":0.7244094488188977,"duration":0.17463226562500722},{"name":"D4","midi":62,"time":441.17624999997224,"velocity":0.7244094488188977,"duration":0.3511027656249439},{"name":"A4","midi":69,"time":441.35272049997224,"velocity":0.7244094488188977,"duration":0.08639701562498203},{"name":"G4","midi":67,"time":441.4409557499722,"velocity":0.7244094488188977,"duration":0.08639701562498203},{"name":"F4","midi":65,"time":441.5291909999722,"velocity":0.7244094488188977,"duration":0.08639701562498203},{"name":"C4","midi":60,"time":441.5291909999722,"velocity":0.7244094488188977,"duration":0.3511027656249439},{"name":"E4","midi":64,"time":441.61742624997214,"velocity":0.7244094488188977,"duration":0.08639701562498203},{"name":"D4","midi":62,"time":441.7056614999721,"velocity":0.7244094488188977,"duration":0.23529400000001033},{"name":"B3","midi":59,"time":441.8821319999721,"velocity":0.7244094488188977,"duration":0.35110276562500076},{"name":"F#4","midi":66,"time":441.9703672499721,"velocity":0.7244094488188977,"duration":0.08639701562498203},{"name":"G4","midi":67,"time":442.0586024999721,"velocity":0.7244094488188977,"duration":0.26286751562497557},{"name":"G3","midi":55,"time":442.2350729999721,"velocity":0.7244094488188977,"duration":0.3511027656249439},{"name":"A4","midi":69,"time":442.32330824997206,"velocity":0.7244094488188977,"duration":0.08639701562498203},{"name":"B4","midi":71,"time":442.411543499972,"velocity":0.7244094488188977,"duration":0.26286751562497557},{"name":"F3","midi":53,"time":442.588013999972,"velocity":0.7244094488188977,"duration":0.3511027656249439},{"name":"C5","midi":72,"time":442.676249249972,"velocity":0.7244094488188977,"duration":0.08639701562498203},{"name":"D5","midi":74,"time":442.76448449997196,"velocity":0.7244094488188977,"duration":0.26286751562497557},{"name":"E3","midi":52,"time":442.94095499997195,"velocity":0.7244094488188977,"duration":0.3511027656249439},{"name":"B4","midi":71,"time":443.0291902499719,"velocity":0.7244094488188977,"duration":0.08639701562498203},{"name":"C5","midi":72,"time":443.1174254999719,"velocity":0.7244094488188977,"duration":0.17463226562500722},{"name":"C4","midi":60,"time":443.2938959999719,"velocity":0.7244094488188977,"duration":0.3511027656249439},{"name":"C5","midi":72,"time":443.4703664999719,"velocity":0.7244094488188977,"duration":0.08639701562498203},{"name":"D5","midi":74,"time":443.55860174997184,"velocity":0.7244094488188977,"duration":0.08639701562498203},{"name":"E5","midi":76,"time":443.6468369999718,"velocity":0.7244094488188977,"duration":0.08639701562498203},{"name":"A#3","midi":58,"time":443.6468369999718,"velocity":0.7244094488188977,"duration":0.3511027656249439},{"name":"F5","midi":77,"time":443.7350722499718,"velocity":0.7244094488188977,"duration":0.08639701562498203},{"name":"G5","midi":79,"time":443.82330749997175,"velocity":0.7244094488188977,"duration":0.26286751562497557},{"name":"A3","midi":57,"time":443.99977799997174,"velocity":0.7244094488188977,"duration":0.35110276562488707},{"name":"A5","midi":81,"time":444.0880132499717,"velocity":0.7244094488188977,"duration":0.08639701562498203},{"name":"G5","midi":79,"time":444.1762484999717,"velocity":0.7244094488188977,"duration":0.08639701562498203},{"name":"C#5","midi":73,"time":444.26448374997165,"velocity":0.7244094488188977,"duration":0.08639701562498203},{"name":"G5","midi":79,"time":444.3527189999716,"velocity":0.7244094488188977,"duration":0.1654410937500188},{"name":"F3","midi":53,"time":444.3527189999716,"velocity":0.7244094488188977,"duration":0.35110276562500076},{"name":"A5","midi":81,"time":444.44095424997164,"velocity":0.7244094488188977,"duration":0.08639701562498203},{"name":"G5","midi":79,"time":444.5291894999716,"velocity":0.7244094488188977,"duration":0.09558818750002729},{"name":"C#5","midi":73,"time":444.61742474997163,"velocity":0.7244094488188977,"duration":0.08639701562498203},{"name":"G5","midi":79,"time":444.7056599999716,"velocity":0.7244094488188977,"duration":0.1654410937500188},{"name":"E3","midi":52,"time":444.7056599999716,"velocity":0.7244094488188977,"duration":0.3511027656249439},{"name":"A5","midi":81,"time":444.7938952499716,"velocity":0.7244094488188977,"duration":0.08639701562498203},{"name":"G5","midi":79,"time":444.8821304999716,"velocity":0.7244094488188977,"duration":0.08639701562498203},{"name":"C#5","midi":73,"time":444.97036574997156,"velocity":0.7244094488188977,"duration":0.08639701562498203},{"name":"F5","midi":77,"time":445.05860099997153,"velocity":0.7244094488188977,"duration":0.1654410937500188},{"name":"D3","midi":50,"time":445.05860099997153,"velocity":0.7244094488188977,"duration":0.3511027656249439},{"name":"G5","midi":79,"time":445.14683624997156,"velocity":0.7244094488188977,"duration":0.08639701562498203},{"name":"F5","midi":77,"time":445.2350714999715,"velocity":0.7244094488188977,"duration":0.08639701562498203},{"name":"D5","midi":74,"time":445.3233067499715,"velocity":0.7244094488188977,"duration":0.08639701562498203},{"name":"F5","midi":77,"time":445.41154199997146,"velocity":0.7244094488188977,"duration":0.1654410937500188},{"name":"A#3","midi":58,"time":445.41154199997146,"velocity":0.7244094488188977,"duration":0.35110276562500076},{"name":"G5","midi":79,"time":445.4997772499715,"velocity":0.7244094488188977,"duration":0.08639701562498203},{"name":"F5","midi":77,"time":445.58801249997146,"velocity":0.7244094488188977,"duration":0.09926465624999992},{"name":"D5","midi":74,"time":445.6762477499715,"velocity":0.7244094488188977,"duration":0.08639701562498203},{"name":"F5","midi":77,"time":445.76448299997145,"velocity":0.7244094488188977,"duration":0.1654410937500188},{"name":"A3","midi":57,"time":445.76448299997145,"velocity":0.7244094488188977,"duration":0.35110276562500076},{"name":"G5","midi":79,"time":445.8527182499715,"velocity":0.7244094488188977,"duration":0.08639701562498203},{"name":"F5","midi":77,"time":445.94095349997144,"velocity":0.7244094488188977,"duration":0.11029406250003149},{"name":"D5","midi":74,"time":446.02918874997147,"velocity":0.7244094488188977,"duration":0.08639701562498203},{"name":"E5","midi":76,"time":446.11742399997144,"velocity":0.7244094488188977,"duration":0.1654410937500188},{"name":"G#3","midi":56,"time":446.11742399997144,"velocity":0.7244094488188977,"duration":0.3511027656249439},{"name":"F5","midi":77,"time":446.20565924997146,"velocity":0.7244094488188977,"duration":0.08639701562498203},{"name":"E5","midi":76,"time":446.29389449997143,"velocity":0.7244094488188977,"duration":0.08639701562498203},{"name":"D5","midi":74,"time":446.3821297499714,"velocity":0.7244094488188977,"duration":0.08639701562498203},{"name":"G#5","midi":80,"time":446.47036499997137,"velocity":0.7244094488188977,"duration":0.1654410937500188},{"name":"E3","midi":52,"time":446.47036499997137,"velocity":0.7244094488188977,"duration":0.3511027656249439},{"name":"A5","midi":81,"time":446.5586002499714,"velocity":0.7244094488188977,"duration":0.08639701562498203},{"name":"G#5","midi":80,"time":446.64683549997136,"velocity":0.7244094488188977,"duration":0.08639701562498203},{"name":"D5","midi":74,"time":446.7350707499713,"velocity":0.7244094488188977,"duration":0.08639701562498203},{"name":"B5","midi":83,"time":446.8233059999713,"velocity":0.7244094488188977,"duration":0.1654410937500188},{"name":"D3","midi":50,"time":446.8233059999713,"velocity":0.7244094488188977,"duration":0.35110276562500076},{"name":"C6","midi":84,"time":446.9115412499713,"velocity":0.7244094488188977,"duration":0.08639701562498203},{"name":"B5","midi":83,"time":446.9997764999713,"velocity":0.7244094488188977,"duration":0.11029406250003149},{"name":"D5","midi":74,"time":447.0880117499713,"velocity":0.7244094488188977,"duration":0.08639701562498203},{"name":"E5","midi":76,"time":447.1762469999713,"velocity":0.7244094488188977,"duration":0.08639701562498203},{"name":"C3","midi":48,"time":447.1762469999713,"velocity":0.7244094488188977,"duration":0.3511027656249439},{"name":"C5","midi":72,"time":447.26448224997125,"velocity":0.7244094488188977,"duration":0.08639701562498203},{"name":"A5","midi":81,"time":447.3527174999712,"velocity":0.7244094488188977,"duration":0.17463226562500722},{"name":"C#3","midi":49,"time":447.5291879999712,"velocity":0.7244094488188977,"duration":0.3511027656249439},{"name":"A#4","midi":70,"time":447.7056584999712,"velocity":0.7244094488188977,"duration":0.08639701562498203},{"name":"A4","midi":69,"time":447.7938937499712,"velocity":0.7244094488188977,"duration":0.08639701562498203},{"name":"G4","midi":67,"time":447.88212899997114,"velocity":0.7244094488188977,"duration":0.08639701562498203},{"name":"A2","midi":45,"time":447.88212899997114,"velocity":0.7244094488188977,"duration":0.3511027656249439},{"name":"F4","midi":65,"time":447.9703642499711,"velocity":0.7244094488188977,"duration":0.08639701562498203},{"name":"E4","midi":64,"time":448.0585994999711,"velocity":0.7244094488188977,"duration":0.26286751562497557},{"name":"D3","midi":50,"time":448.2350699999711,"velocity":0.7244094488188977,"duration":0.3511027656249439},{"name":"F4","midi":65,"time":448.32330524997104,"velocity":0.7244094488188977,"duration":0.08639701562498203},{"name":"D4","midi":62,"time":448.411540499971,"velocity":0.7244094488188977,"duration":0.16176462499998934},{"name":"D#3","midi":51,"time":448.588010999971,"velocity":0.7244094488188977,"duration":0.3511027656249439},{"name":"C5","midi":72,"time":448.764481499971,"velocity":0.7244094488188977,"duration":0.08639701562498203},{"name":"B4","midi":71,"time":448.85271674997097,"velocity":0.7244094488188977,"duration":0.08639701562498203},{"name":"A4","midi":69,"time":448.94095199997093,"velocity":0.7244094488188977,"duration":0.08639701562498203},{"name":"B2","midi":47,"time":448.94095199997093,"velocity":0.7244094488188977,"duration":0.3511027656249439},{"name":"G4","midi":67,"time":449.0291872499709,"velocity":0.7244094488188977,"duration":0.08639701562498203},{"name":"F#4","midi":66,"time":449.11742249997087,"velocity":0.7244094488188977,"duration":0.26286751562497557},{"name":"E3","midi":52,"time":449.29389299997086,"velocity":0.7244094488188977,"duration":0.3511027656249439},{"name":"G#4","midi":68,"time":449.38212824997083,"velocity":0.7244094488188977,"duration":0.08639701562498203},{"name":"E4","midi":64,"time":449.4703634999708,"velocity":0.7244094488188977,"duration":0.16176462499998934},{"name":"E2","midi":40,"time":449.6468339999708,"velocity":0.7244094488188977,"duration":0.3511027656249439},{"name":"F5","midi":77,"time":449.8233044999708,"velocity":0.7244094488188977,"duration":0.08639701562498203},{"name":"E5","midi":76,"time":449.91153974997076,"velocity":0.7244094488188977,"duration":0.08639701562498203},{"name":"D5","midi":74,"time":449.9997749999707,"velocity":0.7244094488188977,"duration":0.08639701562498203},{"name":"G#2","midi":44,"time":449.9997749999707,"velocity":0.7244094488188977,"duration":0.3511027656249439},{"name":"C5","midi":72,"time":450.0880102499707,"velocity":0.7244094488188977,"duration":0.08639701562498203},{"name":"B4","midi":71,"time":450.17624549997066,"velocity":0.7244094488188977,"duration":0.3382351249999829},{"name":"A2","midi":45,"time":450.35271599997066,"velocity":0.7244094488188977,"duration":0.35110276562500076},{"name":"C5","midi":72,"time":450.52918649997065,"velocity":0.7244094488188977,"duration":0.3382351249999829},{"name":"B2","midi":47,"time":450.70565699997064,"velocity":0.7244094488188977,"duration":0.35110276562500076},{"name":"G#4","midi":68,"time":450.88212749997064,"velocity":0.7244094488188977,"duration":0.3382351249999829},{"name":"C3","midi":48,"time":451.05859799997063,"velocity":0.7244094488188977,"duration":0.35110276562500076},{"name":"A4","midi":69,"time":451.2350684999706,"velocity":0.7244094488188977,"duration":0.3382351249999829},{"name":"F2","midi":41,"time":451.4115389999706,"velocity":0.7244094488188977,"duration":0.35110276562500076},{"name":"E4","midi":64,"time":451.5880094999706,"velocity":0.7244094488188977,"duration":0.3382351249999829},{"name":"G2","midi":43,"time":451.7644799999706,"velocity":0.7244094488188977,"duration":0.35110276562500076},{"name":"F4","midi":65,"time":451.9409504999706,"velocity":0.7244094488188977,"duration":0.3382351249999829},{"name":"A2","midi":45,"time":452.1174209999706,"velocity":0.7244094488188977,"duration":0.35110276562500076},{"name":"C#4","midi":61,"time":452.2938914999706,"velocity":0.7244094488188977,"duration":0.3382351249999829},{"name":"A#2","midi":46,"time":452.4703619999706,"velocity":0.7244094488188977,"duration":0.35110276562500076},{"name":"D4","midi":62,"time":452.64683249997057,"velocity":0.7244094488188977,"duration":0.3382351249999829},{"name":"C3","midi":48,"time":452.82330299997056,"velocity":0.7244094488188977,"duration":0.35110276562500076},{"name":"A3","midi":57,"time":452.99977349997056,"velocity":0.7244094488188977,"duration":0.3382351249999829},{"name":"D3","midi":50,"time":453.17624399997055,"velocity":0.7244094488188977,"duration":0.35110276562500076},{"name":"A#3","midi":58,"time":453.35271449997055,"velocity":0.7244094488188977,"duration":0.16176462499998934},{"name":"F4","midi":65,"time":453.52918499997054,"velocity":0.7244094488188977,"duration":0.08639701562498203},{"name":"G#2","midi":44,"time":453.52918499997054,"velocity":0.7244094488188977,"duration":0.3511027656249439},{"name":"E4","midi":64,"time":453.6174202499705,"velocity":0.7244094488188977,"duration":0.08639701562498203},{"name":"D4","midi":62,"time":453.7056554999705,"velocity":0.7244094488188977,"duration":0.24999987500001453},{"name":"E3","midi":52,"time":453.88212599997047,"velocity":0.7244094488188977,"duration":0.35110276562500076},{"name":"C4","midi":60,"time":453.9703612499705,"velocity":0.7244094488188977,"duration":0.08639701562498203},{"name":"B3","midi":59,"time":454.05859649997046,"velocity":0.7244094488188977,"duration":0.24999987500001453},{"name":"D3","midi":50,"time":454.23506699997046,"velocity":0.7244094488188977,"duration":0.35110276562500076},{"name":"A4","midi":69,"time":454.3233022499705,"velocity":0.7244094488188977,"duration":0.08639701562498203},{"name":"G#4","midi":68,"time":454.41153749997045,"velocity":0.7244094488188977,"duration":0.1654410937500188},{"name":"C3","midi":48,"time":454.58800799997044,"velocity":0.7244094488188977,"duration":0.3511027656249439},{"name":"A4","midi":69,"time":454.67624324997047,"velocity":0.7244094488188977,"duration":0.08639701562498203},{"name":"B4","midi":71,"time":454.76447849997044,"velocity":0.7244094488188977,"duration":0.08639701562498203},{"name":"C5","midi":72,"time":454.8527137499704,"velocity":0.7244094488188977,"duration":0.08639701562498203},{"name":"D5","midi":74,"time":454.9409489999704,"velocity":0.7244094488188977,"duration":0.08639701562498203},{"name":"A2","midi":45,"time":454.9409489999704,"velocity":0.7244094488188977,"duration":0.3511027656249439},{"name":"E5","midi":76,"time":455.02918424997034,"velocity":0.7244094488188977,"duration":0.08639701562498203},{"name":"F5","midi":77,"time":455.1174194999703,"velocity":0.7244094488188977,"duration":0.31249984375000395},{"name":"E2","midi":40,"time":455.2938899999703,"velocity":0.7244094488188977,"duration":0.35110276562500076},{"name":"G#4","midi":68,"time":455.4703604999703,"velocity":0.7244094488188977,"duration":0.35110276562500076},{"name":"A2","midi":45,"time":455.6468309999703,"velocity":0.7244094488188977,"duration":0.35110276562500076},{"name":"A4","midi":69,"time":455.8233014999703,"velocity":0.7244094488188977,"duration":0.17463226562500722},{"name":"A3","midi":57,"time":455.9997719999703,"velocity":0.7244094488188977,"duration":0.3511027656249439},{"name":"C6","midi":84,"time":456.1762424999703,"velocity":0.7244094488188977,"duration":0.08639701562498203},{"name":"B5","midi":83,"time":456.26447774997024,"velocity":0.7244094488188977,"duration":0.08639701562498203},{"name":"A5","midi":81,"time":456.3527129999702,"velocity":0.7244094488188977,"duration":0.08639701562498203},{"name":"C4","midi":60,"time":456.3527129999702,"velocity":0.7244094488188977,"duration":0.35110276562488707},{"name":"G5","midi":79,"time":456.4409482499702,"velocity":0.7244094488188977,"duration":0.08639701562498203},{"name":"F#5","midi":78,"time":456.52918349997015,"velocity":0.7244094488188977,"duration":0.08639701562498203},{"name":"E5","midi":76,"time":456.6174187499701,"velocity":0.7244094488188977,"duration":0.08639701562498203},{"name":"F#5","midi":78,"time":456.7056539999701,"velocity":0.7244094488188977,"duration":0.1654410937500188},{"name":"D#4","midi":63,"time":456.7056539999701,"velocity":0.7244094488188977,"duration":0.3511027656249439},{"name":"A5","midi":81,"time":456.7938892499701,"velocity":0.7244094488188977,"duration":0.08639701562498203},{"name":"F#5","midi":78,"time":456.8821244999701,"velocity":0.7244094488188977,"duration":0.08639701562498203},{"name":"E5","midi":76,"time":456.97035974997004,"velocity":0.7244094488188977,"duration":0.08639701562498203},{"name":"D#5","midi":75,"time":457.05859499997,"velocity":0.7244094488188977,"duration":0.1654410937500188},{"name":"F#4","midi":66,"time":457.05859499997,"velocity":0.7244094488188977,"duration":0.3511027656249439},{"name":"F#5","midi":78,"time":457.14683024997004,"velocity":0.7244094488188977,"duration":0.08639701562498203},{"name":"C5","midi":72,"time":457.23506549997,"velocity":0.7244094488188977,"duration":0.08639701562498203},{"name":"B4","midi":71,"time":457.32330074997,"velocity":0.7244094488188977,"duration":0.08639701562498203},{"name":"A4","midi":69,"time":457.41153599996994,"velocity":0.7244094488188977,"duration":0.1654410937500188},{"name":"B3","midi":59,"time":457.41153599996994,"velocity":0.7244094488188977,"duration":0.3511027656249439},{"name":"F#5","midi":78,"time":457.49977124996997,"velocity":0.7244094488188977,"duration":0.08639701562498203},{"name":"B4","midi":71,"time":457.58800649996994,"velocity":0.7244094488188977,"duration":0.08639701562498203},{"name":"A4","midi":69,"time":457.6762417499699,"velocity":0.7244094488188977,"duration":0.08639701562498203},{"name":"G4","midi":67,"time":457.7644769999699,"velocity":0.7244094488188977,"duration":0.1654410937500188},{"name":"E4","midi":64,"time":457.7644769999699,"velocity":0.7244094488188977,"duration":0.3511027656249439},{"name":"E5","midi":76,"time":457.8527122499699,"velocity":0.7244094488188977,"duration":0.08639701562498203},{"name":"B4","midi":71,"time":457.94094749996987,"velocity":0.7244094488188977,"duration":0.08639701562498203},{"name":"A4","midi":69,"time":458.02918274996983,"velocity":0.7244094488188977,"duration":0.08639701562498203},{"name":"G4","midi":67,"time":458.1174179999698,"velocity":0.7244094488188977,"duration":0.11029406250003149},{"name":"E3","midi":52,"time":458.1174179999698,"velocity":0.7244094488188977,"duration":0.35110276562500076},{"name":"B4","midi":71,"time":458.2056532499698,"velocity":0.7244094488188977,"duration":0.08639701562498203},{"name":"G4","midi":67,"time":458.2938884999698,"velocity":0.7244094488188977,"duration":0.11029406250003149},{"name":"F#4","midi":66,"time":458.3821237499698,"velocity":0.7244094488188977,"duration":0.08639701562498203},{"name":"E4","midi":64,"time":458.4703589999698,"velocity":0.7244094488188977,"duration":0.08639701562498203},{"name":"G3","midi":55,"time":458.4703589999698,"velocity":0.7244094488188977,"duration":0.35110276562488707},{"name":"G4","midi":67,"time":458.55859424996976,"velocity":0.7244094488188977,"duration":0.08639701562498203},{"name":"B4","midi":71,"time":458.6468294999697,"velocity":0.7244094488188977,"duration":0.08639701562498203},{"name":"D5","midi":74,"time":458.7350647499697,"velocity":0.7244094488188977,"duration":0.08639701562498203},{"name":"C#5","midi":73,"time":458.82329999996966,"velocity":0.7244094488188977,"duration":0.1654410937500188},{"name":"A#3","midi":58,"time":458.82329999996966,"velocity":0.7244094488188977,"duration":0.3511027656249439},{"name":"E5","midi":76,"time":458.9115352499697,"velocity":0.7244094488188977,"duration":0.08639701562498203},{"name":"C#5","midi":73,"time":458.99977049996966,"velocity":0.7244094488188977,"duration":0.08639701562498203},{"name":"B4","midi":71,"time":459.0880057499696,"velocity":0.7244094488188977,"duration":0.08639701562498203},{"name":"A#4","midi":70,"time":459.1762409999696,"velocity":0.7244094488188977,"duration":0.1654410937500188},{"name":"C#4","midi":61,"time":459.1762409999696,"velocity":0.7244094488188977,"duration":0.3511027656249439},{"name":"E5","midi":76,"time":459.2644762499696,"velocity":0.7244094488188977,"duration":0.08639701562498203},{"name":"G4","midi":67,"time":459.3527114999696,"velocity":0.7244094488188977,"duration":0.08639701562498203},{"name":"F#4","midi":66,"time":459.44094674996956,"velocity":0.7244094488188977,"duration":0.08639701562498203},{"name":"E4","midi":64,"time":459.5291819999695,"velocity":0.7244094488188977,"duration":0.1654410937500188},{"name":"F#3","midi":54,"time":459.5291819999695,"velocity":0.7244094488188977,"duration":0.3511027656249439},{"name":"C#5","midi":73,"time":459.61741724996955,"velocity":0.7244094488188977,"duration":0.08639701562498203},{"name":"F#4","midi":66,"time":459.7056524999695,"velocity":0.7244094488188977,"duration":0.08639701562498203},{"name":"E4","midi":64,"time":459.7938877499695,"velocity":0.7244094488188977,"duration":0.08639701562498203},{"name":"D#4","midi":63,"time":459.88212299996945,"velocity":0.7244094488188977,"duration":0.1654410937500188},{"name":"B3","midi":59,"time":459.88212299996945,"velocity":0.7244094488188977,"duration":0.3511027656249439},{"name":"B4","midi":71,"time":459.9703582499695,"velocity":0.7244094488188977,"duration":0.08639701562498203},{"name":"F#4","midi":66,"time":460.05859349996945,"velocity":0.7244094488188977,"duration":0.08639701562498203},{"name":"E4","midi":64,"time":460.1468287499694,"velocity":0.7244094488188977,"duration":0.08639701562498203},{"name":"D#4","midi":63,"time":460.2350639999694,"velocity":0.7244094488188977,"duration":0.11029406250003149},{"name":"B2","midi":47,"time":460.2350639999694,"velocity":0.7244094488188977,"duration":0.35110276562500076},{"name":"F#4","midi":66,"time":460.3232992499694,"velocity":0.7244094488188977,"duration":0.08639701562498203},{"name":"D#4","midi":63,"time":460.4115344999694,"velocity":0.7244094488188977,"duration":0.11029406250003149},{"name":"C#4","midi":61,"time":460.4997697499694,"velocity":0.7244094488188977,"duration":0.08639701562498203},{"name":"B3","midi":59,"time":460.58800499996937,"velocity":0.7244094488188977,"duration":0.34926453125001444},{"name":"D#3","midi":51,"time":460.58800499996937,"velocity":0.7244094488188977,"duration":0.35110276562500076},{"name":"E3","midi":52,"time":460.94094599996936,"velocity":0.7244094488188977,"duration":0.35110276562500076},{"name":"B4","midi":71,"time":461.11741649996935,"velocity":0.7244094488188977,"duration":0.3382351249999829},{"name":"G3","midi":55,"time":461.29388699996935,"velocity":0.7244094488188977,"duration":0.35110276562500076},{"name":"E4","midi":64,"time":461.47035749996934,"velocity":0.7244094488188977,"duration":0.3382351249999829},{"name":"C4","midi":60,"time":461.64682799996933,"velocity":0.7244094488188977,"duration":0.35110276562500076},{"name":"F#4","midi":66,"time":461.8232984999693,"velocity":0.7244094488188977,"duration":0.3382351249999829},{"name":"D#3","midi":51,"time":461.9997689999693,"velocity":0.7244094488188977,"duration":0.35110276562500076},{"name":"C5","midi":72,"time":462.1762394999693,"velocity":0.7244094488188977,"duration":0.3382351249999829},{"name":"F#3","midi":54,"time":462.3527099999693,"velocity":0.7244094488188977,"duration":0.35110276562500076},{"name":"B4","midi":71,"time":462.5291804999693,"velocity":0.7244094488188977,"duration":0.3382351249999829},{"name":"B3","midi":59,"time":462.7056509999693,"velocity":0.7244094488188977,"duration":0.35110276562500076},{"name":"A4","midi":69,"time":462.8821214999693,"velocity":0.7244094488188977,"duration":0.3382351249999829},{"name":"E3","midi":52,"time":463.0585919999693,"velocity":0.7244094488188977,"duration":0.35110276562500076},{"name":"G4","midi":67,"time":463.2350624999693,"velocity":0.7244094488188977,"duration":0.3382351249999829},{"name":"A3","midi":57,"time":463.41153299996927,"velocity":0.7244094488188977,"duration":0.3511027656249439},{"name":"F#4","midi":66,"time":463.58800349996926,"velocity":0.7244094488188977,"duration":0.08639701562498203},{"name":"E4","midi":64,"time":463.67623874996923,"velocity":0.7244094488188977,"duration":0.08639701562498203},{"name":"F#4","midi":66,"time":463.7644739999692,"velocity":0.7244094488188977,"duration":0.17463226562500722},{"name":"C3","midi":48,"time":463.7644739999692,"velocity":0.7244094488188977,"duration":0.35110276562500076},{"name":"A4","midi":69,"time":463.9409444999692,"velocity":0.7244094488188977,"duration":0.35110276562500076},{"name":"B2","midi":47,"time":464.1174149999692,"velocity":0.7244094488188977,"duration":0.35110276562500076},{"name":"D#4","midi":63,"time":464.2938854999692,"velocity":0.7244094488188977,"duration":0.16176462499998934},{"name":"B3","midi":59,"time":464.4703559999692,"velocity":0.7244094488188977,"duration":0.3511027656249439},{"name":"D#5","midi":75,"time":464.64682649996917,"velocity":0.7244094488188977,"duration":0.08639701562498203},{"name":"E5","midi":76,"time":464.73506174996913,"velocity":0.7244094488188977,"duration":0.08639701562498203},{"name":"F#5","midi":78,"time":464.8232969999691,"velocity":0.7244094488188977,"duration":0.17463226562500722},{"name":"D#3","midi":51,"time":464.8232969999691,"velocity":0.7244094488188977,"duration":0.35110276562500076},{"name":"A4","midi":69,"time":464.9997674999691,"velocity":0.7244094488188977,"duration":0.35110276562500076},{"name":"E3","midi":52,"time":465.1762379999691,"velocity":0.7244094488188977,"duration":0.35110276562500076},{"name":"G4","midi":67,"time":465.3527084999691,"velocity":0.7244094488188977,"duration":0.16176462499998934},{"name":"E2","midi":40,"time":465.5291789999691,"velocity":0.7244094488188977,"duration":0.3511027656249439},{"name":"G#5","midi":80,"time":465.70564949996907,"velocity":0.7244094488188977,"duration":0.08639701562498203},{"name":"A5","midi":81,"time":465.79388474996904,"velocity":0.7244094488188977,"duration":0.08639701562498203},{"name":"B5","midi":83,"time":465.882119999969,"velocity":0.7244094488188977,"duration":0.17463226562500722},{"name":"G#2","midi":44,"time":465.882119999969,"velocity":0.7244094488188977,"duration":0.35110276562500076},{"name":"D5","midi":74,"time":466.058590499969,"velocity":0.7244094488188977,"duration":0.35110276562500076},{"name":"A2","midi":45,"time":466.235060999969,"velocity":0.7244094488188977,"duration":0.35110276562500076},{"name":"C5","midi":72,"time":466.411531499969,"velocity":0.7244094488188977,"duration":0.16176462499998934},{"name":"A3","midi":57,"time":466.588001999969,"velocity":0.7244094488188977,"duration":0.3511027656249439},{"name":"C#5","midi":73,"time":466.764472499969,"velocity":0.7244094488188977,"duration":0.08639701562498203},{"name":"D5","midi":74,"time":466.85270774996894,"velocity":0.7244094488188977,"duration":0.08639701562498203},{"name":"E5","midi":76,"time":466.9409429999689,"velocity":0.7244094488188977,"duration":0.17463226562500722},{"name":"C#3","midi":49,"time":466.9409429999689,"velocity":0.7244094488188977,"duration":0.35110276562500076},{"name":"G4","midi":67,"time":467.1174134999689,"velocity":0.7244094488188977,"duration":0.35110276562500076},{"name":"D3","midi":50,"time":467.2938839999689,"velocity":0.7244094488188977,"duration":0.35110276562500076},{"name":"F4","midi":65,"time":467.4703544999689,"velocity":0.7244094488188977,"duration":0.16176462499998934},{"name":"D2","midi":38,"time":467.6468249999689,"velocity":0.7244094488188977,"duration":0.3511027656249439},{"name":"F#5","midi":78,"time":467.8232954999689,"velocity":0.7244094488188977,"duration":0.08639701562498203},{"name":"G5","midi":79,"time":467.91153074996885,"velocity":0.7244094488188977,"duration":0.08639701562498203},{"name":"A5","midi":81,"time":467.9997659999688,"velocity":0.7244094488188977,"duration":0.17463226562500722},{"name":"F#2","midi":42,"time":467.9997659999688,"velocity":0.7244094488188977,"duration":0.35110276562500076},{"name":"C5","midi":72,"time":468.1762364999688,"velocity":0.7244094488188977,"duration":0.35110276562500076},{"name":"G2","midi":43,"time":468.3527069999688,"velocity":0.7244094488188977,"duration":0.35110276562500076},{"name":"B4","midi":71,"time":468.5291774999688,"velocity":0.7244094488188977,"duration":0.16176462499998934},{"name":"G3","midi":55,"time":468.7056479999688,"velocity":0.7244094488188977,"duration":0.3511027656249439},{"name":"B4","midi":71,"time":468.8821184999688,"velocity":0.7244094488188977,"duration":0.08639701562498203},{"name":"C5","midi":72,"time":468.97035374996875,"velocity":0.7244094488188977,"duration":0.08639701562498203},{"name":"D5","midi":74,"time":469.0585889999687,"velocity":0.7244094488188977,"duration":0.17463226562500722},{"name":"B2","midi":47,"time":469.0585889999687,"velocity":0.7244094488188977,"duration":0.35110276562500076},{"name":"F4","midi":65,"time":469.2350594999687,"velocity":0.7244094488188977,"duration":0.17463226562500722},{"name":"E4","midi":64,"time":469.4115299999687,"velocity":0.7244094488188977,"duration":0.08639701562498203},{"name":"C3","midi":48,"time":469.4115299999687,"velocity":0.7244094488188977,"duration":0.3511027656249439},{"name":"F4","midi":65,"time":469.4997652499687,"velocity":0.7244094488188977,"duration":0.08639701562498203},{"name":"G4","midi":67,"time":469.58800049996864,"velocity":0.7244094488188977,"duration":0.26286751562497557},{"name":"B3","midi":59,"time":469.76447099996864,"velocity":0.7244094488188977,"duration":0.3511027656249439},{"name":"F4","midi":65,"time":469.8527062499686,"velocity":0.7244094488188977,"duration":0.08639701562498203},{"name":"E4","midi":64,"time":469.9409414999686,"velocity":0.7244094488188977,"duration":0.26286751562497557},{"name":"A3","midi":57,"time":470.11741199996857,"velocity":0.7244094488188977,"duration":0.3511027656249439},{"name":"D4","midi":62,"time":470.20564724996854,"velocity":0.7244094488188977,"duration":0.08639701562498203},{"name":"C4","midi":60,"time":470.2938824999685,"velocity":0.7244094488188977,"duration":0.17463226562500722},{"name":"D4","midi":62,"time":470.4703529999685,"velocity":0.7244094488188977,"duration":0.08639701562498203},{"name":"B2","midi":47,"time":470.4703529999685,"velocity":0.7244094488188977,"duration":0.3511027656249439},{"name":"E4","midi":64,"time":470.55858824996847,"velocity":0.7244094488188977,"duration":0.08639701562498203},{"name":"F4","midi":65,"time":470.64682349996843,"velocity":0.7244094488188977,"duration":0.26286751562497557},{"name":"A3","midi":57,"time":470.8232939999684,"velocity":0.7244094488188977,"duration":0.3511027656249439},{"name":"E4","midi":64,"time":470.9115292499684,"velocity":0.7244094488188977,"duration":0.08639701562498203},{"name":"D4","midi":62,"time":470.99976449996836,"velocity":0.7244094488188977,"duration":0.26286751562497557},{"name":"G3","midi":55,"time":471.17623499996836,"velocity":0.7244094488188977,"duration":0.3511027656249439},{"name":"C4","midi":60,"time":471.2644702499683,"velocity":0.7244094488188977,"duration":0.08639701562498203},{"name":"B3","midi":59,"time":471.3527054999683,"velocity":0.7244094488188977,"duration":0.17463226562500722},{"name":"C4","midi":60,"time":471.5291759999683,"velocity":0.7244094488188977,"duration":0.08639701562498203},{"name":"A2","midi":45,"time":471.5291759999683,"velocity":0.7244094488188977,"duration":0.3511027656249439},{"name":"D4","midi":62,"time":471.61741124996826,"velocity":0.7244094488188977,"duration":0.08639701562498203},{"name":"E4","midi":64,"time":471.7056464999682,"velocity":0.7244094488188977,"duration":0.35110276562500076},{"name":"G3","midi":55,"time":471.8821169999682,"velocity":0.7244094488188977,"duration":0.3511027656249439},{"name":"F4","midi":65,"time":472.0585874999682,"velocity":0.7244094488188977,"duration":0.08639701562498203},{"name":"G4","midi":67,"time":472.1468227499682,"velocity":0.7244094488188977,"duration":0.08639701562498203},{"name":"A4","midi":69,"time":472.23505799996815,"velocity":0.7244094488188977,"duration":0.08639701562498203},{"name":"F3","midi":53,"time":472.23505799996815,"velocity":0.7244094488188977,"duration":0.35110276562488707},{"name":"B4","midi":71,"time":472.3232932499681,"velocity":0.7244094488188977,"duration":0.08639701562498203},{"name":"C5","midi":72,"time":472.4115284999681,"velocity":0.7244094488188977,"duration":0.08639701562498203},{"name":"A4","midi":69,"time":472.49976374996805,"velocity":0.7244094488188977,"duration":0.08639701562498203},{"name":"F4","midi":65,"time":472.587998999968,"velocity":0.7244094488188977,"duration":0.2573528125000166},{"name":"G2","midi":43,"time":472.587998999968,"velocity":0.7244094488188977,"duration":0.35110276562500076},{"name":"D5","midi":74,"time":472.67623424996805,"velocity":0.7244094488188977,"duration":0.08639701562498203},{"name":"B4","midi":71,"time":472.764469499968,"velocity":0.7244094488188977,"duration":0.08639701562503888},{"name":"G4","midi":67,"time":472.85270474996804,"velocity":0.7244094488188977,"duration":0.08639701562498203},{"name":"F4","midi":65,"time":472.940939999968,"velocity":0.7244094488188977,"duration":0.2573528125000166},{"name":"G3","midi":55,"time":472.940939999968,"velocity":0.7244094488188977,"duration":0.35110276562500076},{"name":"D5","midi":74,"time":473.02917524996803,"velocity":0.7244094488188977,"duration":0.08639701562498203},{"name":"B4","midi":71,"time":473.117410499968,"velocity":0.7244094488188977,"duration":0.08639701562503888},{"name":"G4","midi":67,"time":473.205645749968,"velocity":0.7244094488188977,"duration":0.08639701562498203},{"name":"F4","midi":65,"time":473.293880999968,"velocity":0.7244094488188977,"duration":0.2573528125000166},{"name":"G2","midi":43,"time":473.293880999968,"velocity":0.7244094488188977,"duration":0.7040437656249878},{"name":"D5","midi":74,"time":473.382116249968,"velocity":0.7244094488188977,"duration":0.08639701562498203},{"name":"B4","midi":71,"time":473.470351499968,"velocity":0.7244094488188977,"duration":0.08639701562503888},{"name":"G4","midi":67,"time":473.558586749968,"velocity":0.7244094488188977,"duration":0.08639701562498203},{"name":"E4","midi":64,"time":473.646821999968,"velocity":0.7244094488188977,"duration":0.2573528125000166},{"name":"C5","midi":72,"time":473.735057249968,"velocity":0.7244094488188977,"duration":0.08639701562498203},{"name":"G4","midi":67,"time":473.823292499968,"velocity":0.7244094488188977,"duration":0.08639701562503888},{"name":"E4","midi":64,"time":473.911527749968,"velocity":0.7244094488188977,"duration":0.08639701562498203},{"name":"C4","midi":60,"time":473.99976299996797,"velocity":0.7244094488188977,"duration":0.22058812500000613},{"name":"G3","midi":55,"time":473.99976299996797,"velocity":0.7244094488188977,"duration":0.35110276562500076},{"name":"G4","midi":67,"time":474.087998249968,"velocity":0.7244094488188977,"duration":0.08639701562498203},{"name":"E4","midi":64,"time":474.17623349996796,"velocity":0.7244094488188977,"duration":0.08639701562503888},{"name":"C4","midi":60,"time":474.264468749968,"velocity":0.7244094488188977,"duration":0.08639701562498203},{"name":"B3","midi":59,"time":474.35270399996796,"velocity":0.7244094488188977,"duration":0.08639701562498203},{"name":"G2","midi":43,"time":474.35270399996796,"velocity":0.7244094488188977,"duration":0.7040437656247605},{"name":"C4","midi":60,"time":474.4409392499679,"velocity":0.7244094488188977,"duration":0.08639701562498203},{"name":"D4","midi":62,"time":474.5291744999679,"velocity":0.7244094488188977,"duration":0.08639701562498203},{"name":"E4","midi":64,"time":474.61740974996786,"velocity":0.7244094488188977,"duration":0.08639701562498203},{"name":"F4","midi":65,"time":474.70564499996783,"velocity":0.7244094488188977,"duration":0.08639701562498203},{"name":"D5","midi":74,"time":474.7938802499678,"velocity":0.7244094488188977,"duration":0.08639701562498203},{"name":"B4","midi":71,"time":474.88211549996777,"velocity":0.7244094488188977,"duration":0.08639701562498203},{"name":"G4","midi":67,"time":474.97035074996774,"velocity":0.7244094488188977,"duration":0.08639701562498203},{"name":"F4","midi":65,"time":475.0585859999677,"velocity":0.7244094488188977,"duration":0.08639701562498203},{"name":"G3","midi":55,"time":475.0585859999677,"velocity":0.7244094488188977,"duration":0.35110276562488707},{"name":"D5","midi":74,"time":475.1468212499677,"velocity":0.7244094488188977,"duration":0.08639701562498203},{"name":"B4","midi":71,"time":475.23505649996764,"velocity":0.7244094488188977,"duration":0.08639701562498203},{"name":"G4","midi":67,"time":475.3232917499676,"velocity":0.7244094488188977,"duration":0.08639701562498203},{"name":"F4","midi":65,"time":475.4115269999676,"velocity":0.7244094488188977,"duration":0.08639701562498203},{"name":"G2","midi":43,"time":475.4115269999676,"velocity":0.7244094488188977,"duration":0.7040437656247605},{"name":"D5","midi":74,"time":475.49976224996755,"velocity":0.7244094488188977,"duration":0.08639701562498203},{"name":"B4","midi":71,"time":475.5879974999675,"velocity":0.7244094488188977,"duration":0.08639701562498203},{"name":"F4","midi":65,"time":475.6762327499675,"velocity":0.7244094488188977,"duration":0.08639701562498203},{"name":"E4","midi":64,"time":475.76446799996745,"velocity":0.7244094488188977,"duration":0.08639701562498203},{"name":"C5","midi":72,"time":475.8527032499674,"velocity":0.7244094488188977,"duration":0.08639701562498203},{"name":"G4","midi":67,"time":475.9409384999674,"velocity":0.7244094488188977,"duration":0.08639701562498203},{"name":"E4","midi":64,"time":476.02917374996736,"velocity":0.7244094488188977,"duration":0.08639701562498203},{"name":"C4","midi":60,"time":476.1174089999673,"velocity":0.7244094488188977,"duration":0.08639701562498203},{"name":"G3","midi":55,"time":476.1174089999673,"velocity":0.7244094488188977,"duration":0.35110276562488707},{"name":"G4","midi":67,"time":476.2056442499673,"velocity":0.7244094488188977,"duration":0.08639701562498203},{"name":"E4","midi":64,"time":476.29387949996726,"velocity":0.7244094488188977,"duration":0.08639701562498203},{"name":"C4","midi":60,"time":476.38211474996723,"velocity":0.7244094488188977,"duration":0.08639701562498203},{"name":"B3","midi":59,"time":476.4703499999672,"velocity":0.7244094488188977,"duration":0.08639701562498203},{"name":"G2","midi":43,"time":476.4703499999672,"velocity":0.7244094488188977,"duration":0.7040437656248173},{"name":"C4","midi":60,"time":476.55858524996717,"velocity":0.7244094488188977,"duration":0.08639701562498203},{"name":"D4","midi":62,"time":476.64682049996713,"velocity":0.7244094488188977,"duration":0.08639701562498203},{"name":"E4","midi":64,"time":476.7350557499671,"velocity":0.7244094488188977,"duration":0.08639701562498203},{"name":"F#4","midi":66,"time":476.82329099996707,"velocity":0.7244094488188977,"duration":0.6985290624998584},{"name":"D#4","midi":63,"time":476.9115262499671,"velocity":0.7244094488188977,"duration":0.08639701562498203},{"name":"D4","midi":62,"time":476.99976149996706,"velocity":0.7244094488188977,"duration":0.08639701562498203},{"name":"C4","midi":60,"time":477.08799674996703,"velocity":0.7244094488188977,"duration":0.08639701562498203},{"name":"A3","midi":57,"time":477.176231999967,"velocity":0.7244094488188977,"duration":0.08639701562498203},{"name":"G3","midi":55,"time":477.176231999967,"velocity":0.7244094488188977,"duration":0.3511027656249439},{"name":"C4","midi":60,"time":477.26446724996697,"velocity":0.7244094488188977,"duration":0.08639701562498203},{"name":"D4","midi":62,"time":477.35270249996694,"velocity":0.7244094488188977,"duration":0.08639701562498203},{"name":"D#4","midi":63,"time":477.4409377499669,"velocity":0.7244094488188977,"duration":0.08639701562503888},{"name":"F#4","midi":66,"time":477.52917299996693,"velocity":0.7244094488188977,"duration":0.08639701562498203},{"name":"G2","midi":43,"time":477.52917299996693,"velocity":0.7244094488188977,"duration":0.7040437656248173},{"name":"D#4","midi":63,"time":477.6174082499669,"velocity":0.7244094488188977,"duration":0.08639701562498203},{"name":"D4","midi":62,"time":477.70564349996687,"velocity":0.7244094488188977,"duration":0.08639701562498203},{"name":"C4","midi":60,"time":477.79387874996684,"velocity":0.7244094488188977,"duration":0.08639701562498203},{"name":"F4","midi":65,"time":477.8821139999668,"velocity":0.7244094488188977,"duration":0.6249996874998374},{"name":"D4","midi":62,"time":477.97034924996683,"velocity":0.7244094488188977,"duration":0.08639701562498203},{"name":"C4","midi":60,"time":478.0585844999668,"velocity":0.7244094488188977,"duration":0.08639701562498203},{"name":"B3","midi":59,"time":478.14681974996677,"velocity":0.7244094488188977,"duration":0.08639701562498203},{"name":"G#3","midi":56,"time":478.23505499996674,"velocity":0.7244094488188977,"duration":0.08639701562498203},{"name":"B3","midi":59,"time":478.23505499996674,"velocity":0.7244094488188977,"duration":0.08639701562498203},{"name":"G3","midi":55,"time":478.23505499996674,"velocity":0.7244094488188977,"duration":0.35110276562488707},{"name":"B3","midi":59,"time":478.3232902499667,"velocity":0.7244094488188977,"duration":0.08639701562498203},{"name":"C4","midi":60,"time":478.4115254999667,"velocity":0.7244094488188977,"duration":0.08639701562498203},{"name":"D4","midi":62,"time":478.49976074996664,"velocity":0.7244094488188977,"duration":0.08639701562498203},{"name":"F4","midi":65,"time":478.5879959999666,"velocity":0.7244094488188977,"duration":0.08639701562498203},{"name":"G2","midi":43,"time":478.5879959999666,"velocity":0.7244094488188977,"duration":0.7040437656248173},{"name":"D4","midi":62,"time":478.6762312499666,"velocity":0.7244094488188977,"duration":0.08639701562498203},{"name":"C4","midi":60,"time":478.76446649996655,"velocity":0.7244094488188977,"duration":0.08639701562498203},{"name":"B3","midi":59,"time":478.8527017499665,"velocity":0.7244094488188977,"duration":0.08639701562498203},{"name":"D#4","midi":63,"time":478.9409369999665,"velocity":0.7244094488188977,"duration":0.5514703124998732},{"name":"C4","midi":60,"time":479.0291722499665,"velocity":0.7244094488188977,"duration":0.08639701562498203},{"name":"B3","midi":59,"time":479.1174074999665,"velocity":0.7244094488188977,"duration":0.08639701562498203},{"name":"A3","midi":57,"time":479.20564274996644,"velocity":0.7244094488188977,"duration":0.08639701562498203},{"name":"F#3","midi":54,"time":479.2938779999664,"velocity":0.7244094488188977,"duration":0.08639701562498203},{"name":"G3","midi":55,"time":479.2938779999664,"velocity":0.7244094488188977,"duration":0.35110276562488707},{"name":"A3","midi":57,"time":479.3821132499664,"velocity":0.7244094488188977,"duration":0.08639701562498203},{"name":"B3","midi":59,"time":479.47034849996635,"velocity":0.7244094488188977,"duration":0.08639701562498203},{"name":"C4","midi":60,"time":479.5585837499663,"velocity":0.7244094488188977,"duration":0.08639701562498203},{"name":"D#4","midi":63,"time":479.6468189999663,"velocity":0.7244094488188977,"duration":0.08639701562498203},{"name":"G2","midi":43,"time":479.6468189999663,"velocity":0.7244094488188977,"duration":0.7040437656247605},{"name":"C4","midi":60,"time":479.73505424996625,"velocity":0.7244094488188977,"duration":0.08639701562498203},{"name":"B3","midi":59,"time":479.8232894999662,"velocity":0.7244094488188977,"duration":0.08639701562498203},{"name":"A3","midi":57,"time":479.9115247499662,"velocity":0.7244094488188977,"duration":0.08639701562498203},{"name":"F#4","midi":66,"time":479.99975999996616,"velocity":0.7244094488188977,"duration":0.08639701562498203},{"name":"D#4","midi":63,"time":480.0879952499661,"velocity":0.7244094488188977,"duration":0.08639701562498203},{"name":"D4","midi":62,"time":480.1762304999661,"velocity":0.7244094488188977,"duration":0.08639701562498203},{"name":"C4","midi":60,"time":480.26446574996606,"velocity":0.7244094488188977,"duration":0.08639701562498203},{"name":"G#4","midi":68,"time":480.35270099996603,"velocity":0.7244094488188977,"duration":0.08639701562498203},{"name":"D3","midi":50,"time":480.35270099996603,"velocity":0.7244094488188977,"duration":0.35110276562488707},{"name":"F4","midi":65,"time":480.440936249966,"velocity":0.7244094488188977,"duration":0.08639701562498203},{"name":"D#4","midi":63,"time":480.52917149996597,"velocity":0.7244094488188977,"duration":0.08639701562498203},{"name":"D4","midi":62,"time":480.61740674996594,"velocity":0.7244094488188977,"duration":0.08639701562498203},{"name":"B4","midi":71,"time":480.7056419999659,"velocity":0.7244094488188977,"duration":0.08639701562498203},{"name":"F2","midi":41,"time":480.7056419999659,"velocity":0.7244094488188977,"duration":0.35110276562488707},{"name":"G#4","midi":68,"time":480.7938772499659,"velocity":0.7244094488188977,"duration":0.08639701562498203},{"name":"G4","midi":67,"time":480.88211249996584,"velocity":0.7244094488188977,"duration":0.08639701562498203},{"name":"F4","midi":65,"time":480.9703477499658,"velocity":0.7244094488188977,"duration":0.07904407812497993},{"name":"C5","midi":72,"time":481.0585829999658,"velocity":0.7244094488188977,"duration":0.08639701562498203},{"name":"E2","midi":40,"time":481.0585829999658,"velocity":0.7244094488188977,"duration":0.3511027656249439},{"name":"B4","midi":71,"time":481.14681824996575,"velocity":0.7244094488188977,"duration":0.08639701562498203},{"name":"C5","midi":72,"time":481.2350534999657,"velocity":0.7244094488188977,"duration":0.31249984375000395},{"name":"F2","midi":41,"time":481.4115239999657,"velocity":0.7244094488188977,"duration":0.35110276562500076},{"name":"E5","midi":76,"time":481.5879944999657,"velocity":0.7244094488188977,"duration":0.17463226562500722},{"name":"G4","midi":67,"time":481.7644649999657,"velocity":0.7244094488188977,"duration":0.17463226562500722},{"name":"G2","midi":43,"time":481.7644649999657,"velocity":0.7244094488188977,"duration":0.35110276562500076},{"name":"B4","midi":71,"time":481.9409354999657,"velocity":0.7244094488188977,"duration":0.17463226562500722},{"name":"C5","midi":72,"time":482.1174059999657,"velocity":0.7244094488188977,"duration":0.34926453125001444},{"name":"C2","midi":36,"time":482.1174059999657,"velocity":0.7244094488188977,"duration":0.35110276562500076},{"name":"C3","midi":48,"time":482.47034699996567,"velocity":0.7244094488188977,"duration":0.3511027656249439},{"name":"E5","midi":76,"time":482.64681749996566,"velocity":0.7244094488188977,"duration":0.08639701562498203},{"name":"D5","midi":74,"time":482.73505274996563,"velocity":0.7244094488188977,"duration":0.08639701562498203},{"name":"C5","midi":72,"time":482.8232879999656,"velocity":0.7244094488188977,"duration":0.08639701562498203},{"name":"E3","midi":52,"time":482.8232879999656,"velocity":0.7244094488188977,"duration":0.3511027656249439},{"name":"B4","midi":71,"time":482.91152324996557,"velocity":0.7244094488188977,"duration":0.08639701562498203},{"name":"A4","midi":69,"time":482.99975849996554,"velocity":0.7244094488188977,"duration":0.26286751562497557},{"name":"C#3","midi":49,"time":483.17622899996553,"velocity":0.7244094488188977,"duration":0.3511027656249439},{"name":"A#4","midi":70,"time":483.2644642499655,"velocity":0.7244094488188977,"duration":0.08639701562498203},{"name":"G4","midi":67,"time":483.35269949996547,"velocity":0.7244094488188977,"duration":0.26286751562497557},{"name":"A2","midi":45,"time":483.52916999996546,"velocity":0.7244094488188977,"duration":0.3511027656249439},{"name":"A4","midi":69,"time":483.61740524996543,"velocity":0.7244094488188977,"duration":0.08639701562498203},{"name":"F4","midi":65,"time":483.7056404999654,"velocity":0.7244094488188977,"duration":0.26286751562497557},{"name":"A3","midi":57,"time":483.8821109999654,"velocity":0.7244094488188977,"duration":0.3511027656249439},{"name":"G4","midi":67,"time":483.97034624996536,"velocity":0.7244094488188977,"duration":0.08639701562498203},{"name":"E4","midi":64,"time":484.0585814999653,"velocity":0.7244094488188977,"duration":0.26286751562497557},{"name":"D3","midi":50,"time":484.2350519999653,"velocity":0.7244094488188977,"duration":0.3511027656249439},{"name":"F4","midi":65,"time":484.3232872499653,"velocity":0.7244094488188977,"duration":0.08639701562498203},{"name":"D4","midi":62,"time":484.41152249996526,"velocity":0.7244094488188977,"duration":0.17463226562500722},{"name":"B3","midi":59,"time":484.58799299996525,"velocity":0.7244094488188977,"duration":0.3511027656249439},{"name":"D5","midi":74,"time":484.76446349996525,"velocity":0.7244094488188977,"duration":0.08639701562498203},{"name":"E5","midi":76,"time":484.8526987499652,"velocity":0.7244094488188977,"duration":0.08639701562498203},{"name":"F5","midi":77,"time":484.9409339999652,"velocity":0.7244094488188977,"duration":0.08639701562498203},{"name":"A3","midi":57,"time":484.9409339999652,"velocity":0.7244094488188977,"duration":0.3511027656249439},{"name":"E5","midi":76,"time":485.02916924996515,"velocity":0.7244094488188977,"duration":0.08639701562498203},{"name":"D5","midi":74,"time":485.1174044999651,"velocity":0.7244094488188977,"duration":0.17463226562500722},{"name":"B5","midi":83,"time":485.2938749999651,"velocity":0.7244094488188977,"duration":0.08639701562498203},{"name":"G#3","midi":56,"time":485.2938749999651,"velocity":0.7244094488188977,"duration":0.3511027656249439},{"name":"E5","midi":76,"time":485.3821102499651,"velocity":0.7244094488188977,"duration":0.08639701562498203},{"name":"F5","midi":77,"time":485.47034549996505,"velocity":0.7244094488188977,"duration":0.26286751562497557},{"name":"E3","midi":52,"time":485.64681599996504,"velocity":0.7244094488188977,"duration":0.3511027656249439},{"name":"E5","midi":76,"time":485.735051249965,"velocity":0.7244094488188977,"duration":0.08639701562498203},{"name":"D5","midi":74,"time":485.823286499965,"velocity":0.7244094488188977,"duration":0.26286751562497557},{"name":"E4","midi":64,"time":485.999756999965,"velocity":0.7244094488188977,"duration":0.3511027656249439},{"name":"C5","midi":72,"time":486.08799224996494,"velocity":0.7244094488188977,"duration":0.08639701562498203},{"name":"B4","midi":71,"time":486.1762274999649,"velocity":0.7244094488188977,"duration":0.17463226562500722},{"name":"C5","midi":72,"time":486.3526979999649,"velocity":0.7244094488188977,"duration":0.08639701562498203},{"name":"A3","midi":57,"time":486.3526979999649,"velocity":0.7244094488188977,"duration":0.3511027656249439},{"name":"B4","midi":71,"time":486.44093324996487,"velocity":0.7244094488188977,"duration":0.08639701562498203},{"name":"A4","midi":69,"time":486.52916849996484,"velocity":0.7244094488188977,"duration":0.17463226562500722},{"name":"F#3","midi":54,"time":486.70563899996483,"velocity":0.7244094488188977,"duration":0.3511027656249439},{"name":"D#5","midi":75,"time":486.8821094999648,"velocity":0.7244094488188977,"duration":0.08639701562498203},{"name":"E5","midi":76,"time":486.9703447499648,"velocity":0.7244094488188977,"duration":0.08639701562498203},{"name":"F#5","midi":78,"time":487.05857999996476,"velocity":0.7244094488188977,"duration":0.08639701562498203},{"name":"E3","midi":52,"time":487.05857999996476,"velocity":0.7244094488188977,"duration":0.3511027656249439},{"name":"G5","midi":79,"time":487.14681524996473,"velocity":0.7244094488188977,"duration":0.08639701562498203},{"name":"A5","midi":81,"time":487.2350504999647,"velocity":0.7244094488188977,"duration":0.26286751562497557},{"name":"D#3","midi":51,"time":487.4115209999647,"velocity":0.7244094488188977,"duration":0.3511027656249439},{"name":"B5","midi":83,"time":487.49975624996466,"velocity":0.7244094488188977,"duration":0.08639701562498203},{"name":"C6","midi":84,"time":487.58799149996463,"velocity":0.7244094488188977,"duration":0.26286751562497557},{"name":"F#3","midi":54,"time":487.7644619999646,"velocity":0.7244094488188977,"duration":0.3511027656249439},{"name":"B5","midi":83,"time":487.8526972499646,"velocity":0.7244094488188977,"duration":0.08639701562498203},{"name":"A5","midi":81,"time":487.94093249996456,"velocity":0.7244094488188977,"duration":0.26286751562497557},{"name":"B2","midi":47,"time":488.11740299996455,"velocity":0.7244094488188977,"duration":0.3511027656249439},{"name":"G5","midi":79,"time":488.2056382499645,"velocity":0.7244094488188977,"duration":0.08639701562498203},{"name":"F#5","midi":78,"time":488.2938734999645,"velocity":0.7244094488188977,"duration":0.14705874999998514},{"name":"G5","midi":79,"time":488.4703439999645,"velocity":0.7244094488188977,"duration":0.08639701562498203},{"name":"E3","midi":52,"time":488.4703439999645,"velocity":0.7244094488188977,"duration":0.3511027656249439},{"name":"F#5","midi":78,"time":488.55857924996445,"velocity":0.7244094488188977,"duration":0.08639701562498203},{"name":"G5","midi":79,"time":488.6468144999644,"velocity":0.7244094488188977,"duration":0.3382351249999829},{"name":"D4","midi":62,"time":488.8232849999644,"velocity":0.7244094488188977,"duration":0.35110276562500076},{"name":"B4","midi":71,"time":488.9997554999644,"velocity":0.7244094488188977,"duration":0.35110276562500076},{"name":"C4","midi":60,"time":489.1762259999644,"velocity":0.7244094488188977,"duration":0.35110276562500076},{"name":"A4","midi":69,"time":489.3526964999644,"velocity":0.7244094488188977,"duration":0.16176462499998934},{"name":"F#5","midi":78,"time":489.5291669999644,"velocity":0.7244094488188977,"duration":0.08639701562498203},{"name":"D3","midi":50,"time":489.5291669999644,"velocity":0.7244094488188977,"duration":0.3511027656249439},{"name":"E5","midi":76,"time":489.61740224996436,"velocity":0.7244094488188977,"duration":0.08639701562498203},{"name":"F#5","midi":78,"time":489.7056374999643,"velocity":0.7244094488188977,"duration":0.3382351249999829},{"name":"C4","midi":60,"time":489.8821079999643,"velocity":0.7244094488188977,"duration":0.35110276562500076},{"name":"A4","midi":69,"time":490.0585784999643,"velocity":0.7244094488188977,"duration":0.35110276562500076},{"name":"B3","midi":59,"time":490.2350489999643,"velocity":0.7244094488188977,"duration":0.35110276562500076},{"name":"G4","midi":67,"time":490.4115194999643,"velocity":0.7244094488188977,"duration":0.16176462499998934},{"name":"E5","midi":76,"time":490.5879899999643,"velocity":0.7244094488188977,"duration":0.08639701562498203},{"name":"C3","midi":48,"time":490.5879899999643,"velocity":0.7244094488188977,"duration":0.3511027656249439},{"name":"D#5","midi":75,"time":490.67622524996426,"velocity":0.7244094488188977,"duration":0.08639701562498203},{"name":"E5","midi":76,"time":490.76446049996423,"velocity":0.7244094488188977,"duration":0.3382351249999829},{"name":"B3","midi":59,"time":490.9409309999642,"velocity":0.7244094488188977,"duration":0.35110276562500076},{"name":"G4","midi":67,"time":491.1174014999642,"velocity":0.7244094488188977,"duration":0.35110276562500076},{"name":"A3","midi":57,"time":491.2938719999642,"velocity":0.7244094488188977,"duration":0.35110276562500076},{"name":"F#4","midi":66,"time":491.4703424999642,"velocity":0.7244094488188977,"duration":0.16176462499998934},{"name":"D#5","midi":75,"time":491.6468129999642,"velocity":0.7244094488188977,"duration":0.1654410937500188},{"name":"B2","midi":47,"time":491.6468129999642,"velocity":0.7244094488188977,"duration":0.3511027656249439},{"name":"B4","midi":71,"time":491.7350482499642,"velocity":0.7244094488188977,"duration":0.08639701562498203},{"name":"C5","midi":72,"time":491.8232834999642,"velocity":0.7244094488188977,"duration":0.08639701562498203},{"name":"B4","midi":71,"time":491.91151874996416,"velocity":0.7244094488188977,"duration":0.08639701562498203},{"name":"E5","midi":76,"time":491.9997539999641,"velocity":0.7244094488188977,"duration":0.22058812500000613},{"name":"C#4","midi":61,"time":491.9997539999641,"velocity":0.7244094488188977,"duration":0.35110276562500076},{"name":"B4","midi":71,"time":492.08798924996415,"velocity":0.7244094488188977,"duration":0.08639701562498203},{"name":"C5","midi":72,"time":492.1762244999641,"velocity":0.7244094488188977,"duration":0.08639701562503888},{"name":"B4","midi":71,"time":492.26445974996415,"velocity":0.7244094488188977,"duration":0.08639701562498203},{"name":"F#5","midi":78,"time":492.3526949999641,"velocity":0.7244094488188977,"duration":0.2941174999999703},{"name":"D#4","midi":63,"time":492.3526949999641,"velocity":0.7244094488188977,"duration":0.3511027656249439},{"name":"B4","midi":71,"time":492.44093024996414,"velocity":0.7244094488188977,"duration":0.08639701562498203},{"name":"C5","midi":72,"time":492.5291654999641,"velocity":0.7244094488188977,"duration":0.08639701562498203},{"name":"B4","midi":71,"time":492.6174007499641,"velocity":0.7244094488188977,"duration":0.08639701562498203},{"name":"G5","midi":79,"time":492.70563599996404,"velocity":0.7244094488188977,"duration":0.4411762499998986},{"name":"B2","midi":47,"time":492.70563599996404,"velocity":0.7244094488188977,"duration":0.3511027656249439},{"name":"E5","midi":76,"time":492.79387124996407,"velocity":0.7244094488188977,"duration":0.08639701562498203},{"name":"D#5","midi":75,"time":492.88210649996404,"velocity":0.7244094488188977,"duration":0.08639701562498203},{"name":"C#5","midi":73,"time":492.970341749964,"velocity":0.7244094488188977,"duration":0.08639701562498203},{"name":"B4","midi":71,"time":493.058576999964,"velocity":0.7244094488188977,"duration":0.08639701562498203},{"name":"E4","midi":64,"time":493.058576999964,"velocity":0.7244094488188977,"duration":0.35110276562488707},{"name":"E5","midi":76,"time":493.14681224996394,"velocity":0.7244094488188977,"duration":0.08639701562498203},{"name":"F#5","midi":78,"time":493.2350474999639,"velocity":0.7244094488188977,"duration":0.08639701562498203},{"name":"G5","midi":79,"time":493.3232827499639,"velocity":0.7244094488188977,"duration":0.08639701562498203},{"name":"D#5","midi":75,"time":493.41151799996385,"velocity":0.7244094488188977,"duration":0.08639701562498203},{"name":"F#4","midi":66,"time":493.41151799996385,"velocity":0.7244094488188977,"duration":0.35110276562488707},{"name":"F#5","midi":78,"time":493.4997532499638,"velocity":0.7244094488188977,"duration":0.08639701562498203},{"name":"G5","midi":79,"time":493.5879884999638,"velocity":0.7244094488188977,"duration":0.08639701562498203},{"name":"A5","midi":81,"time":493.67622374996375,"velocity":0.7244094488188977,"duration":0.08639701562498203},{"name":"G5","midi":79,"time":493.7644589999637,"velocity":0.7244094488188977,"duration":0.08639701562498203},{"name":"B2","midi":47,"time":493.7644589999637,"velocity":0.7244094488188977,"duration":0.3511027656249439},{"name":"B5","midi":83,"time":493.8526942499637,"velocity":0.7244094488188977,"duration":0.08639701562498203},{"name":"E5","midi":76,"time":493.94092949996366,"velocity":0.7244094488188977,"duration":0.26286751562497557},{"name":"F#4","midi":66,"time":494.11739999996365,"velocity":0.7244094488188977,"duration":0.35110276562488707},{"name":"F#5","midi":78,"time":494.2056352499636,"velocity":0.7244094488188977,"duration":0.08639701562498203},{"name":"E5","midi":76,"time":494.2938704999636,"velocity":0.7244094488188977,"duration":0.08639701562498203},{"name":"D5","midi":74,"time":494.38210574996356,"velocity":0.7244094488188977,"duration":0.17463226562495038},{"name":"E4","midi":64,"time":494.4703409999635,"velocity":0.7244094488188977,"duration":0.35110276562488707},{"name":"E5","midi":76,"time":494.5585762499635,"velocity":0.7244094488188977,"duration":0.08639701562498203},{"name":"D5","midi":74,"time":494.64681149996346,"velocity":0.7244094488188977,"duration":0.08639701562498203},{"name":"C5","midi":72,"time":494.73504674996343,"velocity":0.7244094488188977,"duration":0.17463226562495038},{"name":"D4","midi":62,"time":494.8232819999634,"velocity":0.7244094488188977,"duration":0.35110276562488707},{"name":"D5","midi":74,"time":494.91151724996337,"velocity":0.7244094488188977,"duration":0.08639701562498203},{"name":"C5","midi":72,"time":494.99975249996334,"velocity":0.7244094488188977,"duration":0.08639701562498203},{"name":"B4","midi":71,"time":495.0879877499633,"velocity":0.7244094488188977,"duration":0.17463226562495038},{"name":"C4","midi":60,"time":495.1762229999633,"velocity":0.7244094488188977,"duration":0.35110276562488707},{"name":"C5","midi":72,"time":495.26445824996324,"velocity":0.7244094488188977,"duration":0.08639701562498203},{"name":"B4","midi":71,"time":495.3526934999632,"velocity":0.7244094488188977,"duration":0.08639701562498203},{"name":"A4","midi":69,"time":495.4409287499632,"velocity":0.7244094488188977,"duration":0.17463226562495038},{"name":"B3","midi":59,"time":495.52916399996315,"velocity":0.7244094488188977,"duration":0.35110276562488707},{"name":"B4","midi":71,"time":495.6173992499631,"velocity":0.7244094488188977,"duration":0.08639701562498203},{"name":"A4","midi":69,"time":495.7056344999631,"velocity":0.7244094488188977,"duration":0.08639701562498203},{"name":"G4","midi":67,"time":495.79386974996305,"velocity":0.7244094488188977,"duration":0.17463226562495038},{"name":"A3","midi":57,"time":495.882104999963,"velocity":0.7244094488188977,"duration":0.3511027656249439},{"name":"C5","midi":72,"time":495.970340249963,"velocity":0.7244094488188977,"duration":0.08639701562498203},{"name":"F4","midi":65,"time":496.05857549996296,"velocity":0.7244094488188977,"duration":0.26286751562497557},{"name":"G3","midi":55,"time":496.23504599996295,"velocity":0.7244094488188977,"duration":0.3511027656249439},{"name":"C5","midi":72,"time":496.3232812499629,"velocity":0.7244094488188977,"duration":0.08639701562498203},{"name":"E4","midi":64,"time":496.4115164999629,"velocity":0.7244094488188977,"duration":0.26286751562497557},{"name":"F#3","midi":54,"time":496.5879869999629,"velocity":0.7244094488188977,"duration":0.3511027656249439},{"name":"C5","midi":72,"time":496.67622224996285,"velocity":0.7244094488188977,"duration":0.08639701562498203},{"name":"D#4","midi":63,"time":496.7644574999628,"velocity":0.7244094488188977,"duration":0.3492645312499576},{"name":"B3","midi":59,"time":496.9409279999628,"velocity":0.7244094488188977,"duration":0.08639701562498203},{"name":"B2","midi":47,"time":497.0291632499628,"velocity":0.7244094488188977,"duration":0.08639701562498203},{"name":"C#3","midi":49,"time":497.11739849996275,"velocity":0.7244094488188977,"duration":0.08639701562498203},{"name":"D#3","midi":51,"time":497.2056337499627,"velocity":0.7244094488188977,"duration":0.08639701562498203},{"name":"E3","midi":52,"time":497.2938689999627,"velocity":0.7244094488188977,"duration":0.08639701562498203},{"name":"F#3","midi":54,"time":497.38210424996265,"velocity":0.7244094488188977,"duration":0.08639701562498203},{"name":"G3","midi":55,"time":497.4703394999626,"velocity":0.7244094488188977,"duration":0.08639701562498203},{"name":"A3","midi":57,"time":497.5585747499626,"velocity":0.7244094488188977,"duration":0.08639701562498203},{"name":"B3","midi":59,"time":497.64680999996256,"velocity":0.7244094488188977,"duration":0.08639701562498203},{"name":"C#4","midi":61,"time":497.7350452499625,"velocity":0.7244094488188977,"duration":0.08639701562498203},{"name":"D#4","midi":63,"time":497.8232804999625,"velocity":0.7244094488188977,"duration":0.08639701562498203},{"name":"E4","midi":64,"time":497.91151574996246,"velocity":0.7244094488188977,"duration":0.08639701562498203},{"name":"F#4","midi":66,"time":497.99975099996243,"velocity":0.7244094488188977,"duration":0.08639701562498203},{"name":"G4","midi":67,"time":498.0879862499624,"velocity":0.7244094488188977,"duration":0.08639701562498203},{"name":"A4","midi":69,"time":498.17622149996237,"velocity":0.7244094488188977,"duration":0.08639701562498203},{"name":"B4","midi":71,"time":498.26445674996233,"velocity":0.7244094488188977,"duration":0.08639701562498203},{"name":"C5","midi":72,"time":498.3526919999623,"velocity":0.7244094488188977,"duration":0.08639701562498203},{"name":"B4","midi":71,"time":498.4409272499623,"velocity":0.7244094488188977,"duration":0.08639701562498203},{"name":"C#5","midi":73,"time":498.52916249996224,"velocity":0.7244094488188977,"duration":0.08639701562498203},{"name":"D#5","midi":75,"time":498.6173977499622,"velocity":0.7244094488188977,"duration":0.08639701562498203},{"name":"E5","midi":76,"time":498.7056329999622,"velocity":0.7244094488188977,"duration":0.08639701562498203},{"name":"F#5","midi":78,"time":498.79386824996215,"velocity":0.7244094488188977,"duration":0.08639701562498203},{"name":"G5","midi":79,"time":498.8821034999621,"velocity":0.7244094488188977,"duration":0.08639701562498203},{"name":"A5","midi":81,"time":498.9703387499621,"velocity":0.7244094488188977,"duration":0.08639701562498203},{"name":"B5","midi":83,"time":499.05857399996205,"velocity":0.7244094488188977,"duration":0.40441156250000176},{"name":"G2","midi":43,"time":499.41151499996204,"velocity":0.7244094488188977,"duration":0.31249984375000395},{"name":"B4","midi":71,"time":499.764455999962,"velocity":0.7244094488188977,"duration":0.31249984375000395},{"name":"A4","midi":69,"time":499.764455999962,"velocity":0.7244094488188977,"duration":0.31249984375000395},{"name":"F#4","midi":66,"time":499.764455999962,"velocity":0.7244094488188977,"duration":0.31249984375000395},{"name":"D#5","midi":75,"time":499.764455999962,"velocity":0.7244094488188977,"duration":0.31249984375000395},{"name":"B2","midi":47,"time":499.764455999962,"velocity":0.7244094488188977,"duration":0.31249984375000395},{"name":"B4","midi":71,"time":500.139455812462,"velocity":0.7244094488188977,"duration":1.0551465312499886},{"name":"E5","midi":76,"time":500.139455812462,"velocity":0.7244094488188977,"duration":1.0551465312499886},{"name":"E4","midi":64,"time":500.139455812462,"velocity":0.7244094488188977,"duration":1.0551465312499886},{"name":"E2","midi":40,"time":500.139455812462,"velocity":0.7244094488188977,"duration":1.0551465312499886},{"name":"G4","midi":67,"time":500.139455812462,"velocity":0.7244094488188977,"duration":1.0551465312499886},{"name":"E4","midi":64,"time":505.411511999962,"velocity":0.7244094488188977,"duration":0.17463226562500722},{"name":"E3","midi":52,"time":505.411511999962,"velocity":0.7244094488188977,"duration":0.40441156250000176},{"name":"B3","midi":59,"time":505.411511999962,"velocity":0.7244094488188977,"duration":0.40441156250000176},{"name":"G3","midi":55,"time":505.411511999962,"velocity":0.7244094488188977,"duration":0.40441156250000176},{"name":"F#4","midi":66,"time":505.587982499962,"velocity":0.7244094488188977,"duration":0.17463226562500722},{"name":"G4","midi":67,"time":505.764452999962,"velocity":0.7244094488188977,"duration":0.17463226562500722},{"name":"A4","midi":69,"time":505.94092349996197,"velocity":0.7244094488188977,"duration":0.17463226562500722},{"name":"B4","midi":71,"time":506.11739399996196,"velocity":0.7244094488188977,"duration":0.17463226562500722},{"name":"F#3","midi":54,"time":506.11739399996196,"velocity":0.7244094488188977,"duration":0.40441156250000176},{"name":"B3","midi":59,"time":506.11739399996196,"velocity":0.7244094488188977,"duration":0.40441156250000176},{"name":"D3","midi":50,"time":506.11739399996196,"velocity":0.7244094488188977,"duration":0.40441156250000176},{"name":"C5","midi":72,"time":506.29386449996196,"velocity":0.7244094488188977,"duration":0.17463226562500722},{"name":"D5","midi":74,"time":506.47033499996195,"velocity":0.7244094488188977,"duration":0.17463226562500722},{"name":"B4","midi":71,"time":506.64680549996194,"velocity":0.7244094488188977,"duration":0.17463226562500722},{"name":"E5","midi":76,"time":506.82327599996194,"velocity":0.7244094488188977,"duration":0.17463226562500722},{"name":"A3","midi":57,"time":506.82327599996194,"velocity":0.7244094488188977,"duration":0.40441156250000176},{"name":"E3","midi":52,"time":506.82327599996194,"velocity":0.7244094488188977,"duration":0.40441156250000176},{"name":"C3","midi":48,"time":506.82327599996194,"velocity":0.7244094488188977,"duration":0.40441156250000176},{"name":"G5","midi":79,"time":506.99974649996193,"velocity":0.7244094488188977,"duration":0.17463226562500722},{"name":"F#5","midi":78,"time":507.1762169999619,"velocity":0.7244094488188977,"duration":0.17463226562500722},{"name":"E5","midi":76,"time":507.3526874999619,"velocity":0.7244094488188977,"duration":0.17463226562500722},{"name":"D#5","midi":75,"time":507.5291579999619,"velocity":0.7244094488188977,"duration":0.17463226562500722},{"name":"B3","midi":59,"time":507.5291579999619,"velocity":0.7244094488188977,"duration":0.40441156250000176},{"name":"F#3","midi":54,"time":507.5291579999619,"velocity":0.7244094488188977,"duration":0.40441156250000176},{"name":"B2","midi":47,"time":507.5291579999619,"velocity":0.7244094488188977,"duration":0.40441156250000176},{"name":"C#5","midi":73,"time":507.7056284999619,"velocity":0.7244094488188977,"duration":0.17463226562500722},{"name":"B4","midi":71,"time":507.8820989999619,"velocity":0.7244094488188977,"duration":0.17463226562500722},{"name":"A4","midi":69,"time":508.0585694999619,"velocity":0.7244094488188977,"duration":0.17463226562500722},{"name":"G4","midi":67,"time":508.2350399999619,"velocity":0.7244094488188977,"duration":0.35110276562500076},{"name":"E3","midi":52,"time":508.2350399999619,"velocity":0.7244094488188977,"duration":0.17463226562500722},{"name":"F#3","midi":54,"time":508.4115104999619,"velocity":0.7244094488188977,"duration":0.17463226562500722},{"name":"E5","midi":76,"time":508.58798099996187,"velocity":0.7244094488188977,"duration":0.2647057500000187},{"name":"G3","midi":55,"time":508.58798099996187,"velocity":0.7244094488188977,"duration":0.17463226562500722},{"name":"A3","midi":57,"time":508.76445149996187,"velocity":0.7244094488188977,"duration":0.17463226562500722},{"name":"D#5","midi":75,"time":508.94092199996186,"velocity":0.7244094488188977,"duration":0.35110276562500076},{"name":"B3","midi":59,"time":508.94092199996186,"velocity":0.7244094488188977,"duration":0.17463226562500722},{"name":"C#4","midi":61,"time":509.11739249996185,"velocity":0.7244094488188977,"duration":0.17463226562500722},{"name":"B5","midi":83,"time":509.29386299996185,"velocity":0.7244094488188977,"duration":0.2647057500000187},{"name":"D#4","midi":63,"time":509.29386299996185,"velocity":0.7244094488188977,"duration":0.17463226562500722},{"name":"B3","midi":59,"time":509.47033349996184,"velocity":0.7244094488188977,"duration":0.17463226562500722},{"name":"G5","midi":79,"time":509.64680399996183,"velocity":0.7244094488188977,"duration":0.17463226562500722},{"name":"E4","midi":64,"time":509.64680399996183,"velocity":0.7244094488188977,"duration":0.17463226562500722},{"name":"A5","midi":81,"time":509.8232744999618,"velocity":0.7244094488188977,"duration":0.17463226562500722},{"name":"G4","midi":67,"time":509.8232744999618,"velocity":0.7244094488188977,"duration":0.17463226562500722},{"name":"B5","midi":83,"time":509.9997449999618,"velocity":0.7244094488188977,"duration":0.08639701562498203},{"name":"F#4","midi":66,"time":509.9997449999618,"velocity":0.7244094488188977,"duration":0.17463226562495038},{"name":"A5","midi":81,"time":510.0879802499618,"velocity":0.7244094488188977,"duration":0.08639701562498203},{"name":"G5","midi":79,"time":510.17621549996176,"velocity":0.7244094488188977,"duration":0.08639701562498203},{"name":"E4","midi":64,"time":510.17621549996176,"velocity":0.7244094488188977,"duration":0.17463226562495038},{"name":"A5","midi":81,"time":510.2644507499617,"velocity":0.7244094488188977,"duration":0.08639701562498203},{"name":"B5","midi":83,"time":510.3526859999617,"velocity":0.7244094488188977,"duration":0.6249996875000079},{"name":"D#4","midi":63,"time":510.3526859999617,"velocity":0.7244094488188977,"duration":0.17463226562500722},{"name":"C#4","midi":61,"time":510.5291564999617,"velocity":0.7244094488188977,"duration":0.17463226562500722},{"name":"B3","midi":59,"time":510.7056269999617,"velocity":0.7244094488188977,"duration":0.17463226562500722},{"name":"A3","midi":57,"time":510.8820974999617,"velocity":0.7244094488188977,"duration":0.17463226562500722},{"name":"D5","midi":74,"time":511.05856799996167,"velocity":0.7244094488188977,"duration":0.17463226562500722},{"name":"G#3","midi":56,"time":511.05856799996167,"velocity":0.7244094488188977,"duration":0.17463226562500722},{"name":"C5","midi":72,"time":511.23503849996166,"velocity":0.7244094488188977,"duration":0.17463226562500722},{"name":"E3","midi":52,"time":511.23503849996166,"velocity":0.7244094488188977,"duration":0.17463226562500722},{"name":"D5","midi":74,"time":511.41150899996165,"velocity":0.7244094488188977,"duration":0.17463226562500722},{"name":"F#3","midi":54,"time":511.41150899996165,"velocity":0.7244094488188977,"duration":0.17463226562500722},{"name":"B5","midi":83,"time":511.58797949996165,"velocity":0.7244094488188977,"duration":0.17463226562500722},{"name":"G#3","midi":56,"time":511.58797949996165,"velocity":0.7244094488188977,"duration":0.17463226562500722},{"name":"C5","midi":72,"time":511.76444999996164,"velocity":0.7244094488188977,"duration":0.3511027656249439},{"name":"A3","midi":57,"time":511.76444999996164,"velocity":0.7244094488188977,"duration":0.17463226562500722},{"name":"B3","midi":59,"time":511.94092049996163,"velocity":0.7244094488188977,"duration":0.17463226562495038},{"name":"A5","midi":81,"time":512.1173909999616,"velocity":0.7244094488188977,"duration":0.2647057499999619},{"name":"C4","midi":60,"time":512.1173909999616,"velocity":0.7244094488188977,"duration":0.17463226562495038},{"name":"A3","midi":57,"time":512.2938614999615,"velocity":0.7244094488188977,"duration":0.17463226562506406},{"name":"B4","midi":71,"time":512.4703319999616,"velocity":0.7244094488188977,"duration":0.35110276562488707},{"name":"D4","midi":62,"time":512.4703319999616,"velocity":0.7244094488188977,"duration":0.17463226562495038},{"name":"F4","midi":65,"time":512.6468024999615,"velocity":0.7244094488188977,"duration":0.17463226562495038},{"name":"G#5","midi":80,"time":512.8232729999614,"velocity":0.7244094488188977,"duration":0.2647057499999619},{"name":"E4","midi":64,"time":512.8232729999614,"velocity":0.7244094488188977,"duration":0.17463226562495038},{"name":"D4","midi":62,"time":512.9997434999614,"velocity":0.7244094488188977,"duration":0.17463226562506406},{"name":"A5","midi":81,"time":513.1762139999614,"velocity":0.7244094488188977,"duration":0.17463226562495038},{"name":"C4","midi":60,"time":513.1762139999614,"velocity":0.7244094488188977,"duration":0.17463226562495038},{"name":"G5","midi":79,"time":513.3526844999614,"velocity":0.7244094488188977,"duration":0.17463226562495038},{"name":"B3","midi":59,"time":513.3526844999614,"velocity":0.7244094488188977,"duration":0.17463226562495038},{"name":"F#5","midi":78,"time":513.5291549999613,"velocity":0.7244094488188977,"duration":0.17463226562495038},{"name":"A3","midi":57,"time":513.5291549999613,"velocity":0.7244094488188977,"duration":0.17463226562495038},{"name":"E5","midi":76,"time":513.7056254999612,"velocity":0.7244094488188977,"duration":0.17463226562495038},{"name":"G3","midi":55,"time":513.7056254999612,"velocity":0.7244094488188977,"duration":0.17463226562495038},{"name":"D5","midi":74,"time":513.8820959999612,"velocity":0.7244094488188977,"duration":0.17463226562495038},{"name":"F#3","midi":54,"time":513.8820959999612,"velocity":0.7244094488188977,"duration":0.17463226562495038},{"name":"C5","midi":72,"time":514.0585664999611,"velocity":0.7244094488188977,"duration":0.17463226562495038},{"name":"D3","midi":50,"time":514.0585664999611,"velocity":0.7244094488188977,"duration":0.17463226562495038},{"name":"B4","midi":71,"time":514.235036999961,"velocity":0.7244094488188977,"duration":0.17463226562495038},{"name":"E3","midi":52,"time":514.235036999961,"velocity":0.7244094488188977,"duration":0.17463226562495038},{"name":"A4","midi":69,"time":514.411507499961,"velocity":0.7244094488188977,"duration":0.17463226562495038},{"name":"F#3","midi":54,"time":514.411507499961,"velocity":0.7244094488188977,"duration":0.17463226562495038},{"name":"B4","midi":71,"time":514.5879779999609,"velocity":0.7244094488188977,"duration":0.35110276562488707},{"name":"G3","midi":55,"time":514.5879779999609,"velocity":0.7244094488188977,"duration":0.17463226562495038},{"name":"A3","midi":57,"time":514.7644484999608,"velocity":0.7244094488188977,"duration":0.17463226562495038},{"name":"G5","midi":79,"time":514.9409189999608,"velocity":0.7244094488188977,"duration":0.2647057499999619},{"name":"B3","midi":59,"time":514.9409189999608,"velocity":0.7244094488188977,"duration":0.17463226562495038},{"name":"G3","midi":55,"time":515.1173894999607,"velocity":0.7244094488188977,"duration":0.17463226562506406},{"name":"A4","midi":69,"time":515.2938599999608,"velocity":0.7244094488188977,"duration":0.35110276562488707},{"name":"C4","midi":60,"time":515.2938599999608,"velocity":0.7244094488188977,"duration":0.17463226562495038},{"name":"E4","midi":64,"time":515.4703304999607,"velocity":0.7244094488188977,"duration":0.17463226562495038},{"name":"F#5","midi":78,"time":515.6468009999606,"velocity":0.7244094488188977,"duration":0.2647057499999619},{"name":"D4","midi":62,"time":515.6468009999606,"velocity":0.7244094488188977,"duration":0.17463226562495038},{"name":"C4","midi":60,"time":515.8232714999606,"velocity":0.7244094488188977,"duration":0.17463226562506406},{"name":"G5","midi":79,"time":515.9997419999606,"velocity":0.7244094488188977,"duration":0.17463226562495038},{"name":"B3","midi":59,"time":515.9997419999606,"velocity":0.7244094488188977,"duration":0.17463226562495038},{"name":"F#5","midi":78,"time":516.1762124999606,"velocity":0.7244094488188977,"duration":0.17463226562495038},{"name":"A3","midi":57,"time":516.1762124999606,"velocity":0.7244094488188977,"duration":0.17463226562495038},{"name":"E5","midi":76,"time":516.3526829999605,"velocity":0.7244094488188977,"duration":0.17463226562495038},{"name":"G3","midi":55,"time":516.3526829999605,"velocity":0.7244094488188977,"duration":0.17463226562495038},{"name":"D5","midi":74,"time":516.5291534999604,"velocity":0.7244094488188977,"duration":0.17463226562495038},{"name":"F#3","midi":54,"time":516.5291534999604,"velocity":0.7244094488188977,"duration":0.17463226562495038},{"name":"C5","midi":72,"time":516.7056239999604,"velocity":0.7244094488188977,"duration":0.17463226562495038},{"name":"E3","midi":52,"time":516.7056239999604,"velocity":0.7244094488188977,"duration":0.17463226562495038},{"name":"B4","midi":71,"time":516.8820944999603,"velocity":0.7244094488188977,"duration":0.17463226562495038},{"name":"G3","midi":55,"time":516.8820944999603,"velocity":0.7244094488188977,"duration":0.17463226562495038},{"name":"C5","midi":72,"time":517.0585649999603,"velocity":0.7244094488188977,"duration":0.17463226562495038},{"name":"F#3","midi":54,"time":517.0585649999603,"velocity":0.7244094488188977,"duration":0.17463226562495038},{"name":"A5","midi":81,"time":517.2350354999602,"velocity":0.7244094488188977,"duration":0.17463226562495038},{"name":"E3","midi":52,"time":517.2350354999602,"velocity":0.7244094488188977,"duration":0.17463226562495038},{"name":"B4","midi":71,"time":517.4115059999601,"velocity":0.7244094488188977,"duration":0.17463226562495038},{"name":"D3","midi":50,"time":517.4115059999601,"velocity":0.7244094488188977,"duration":0.17463226562495038},{"name":"A4","midi":69,"time":517.5879764999601,"velocity":0.7244094488188977,"duration":0.17463226562495038},{"name":"F#3","midi":54,"time":517.5879764999601,"velocity":0.7244094488188977,"duration":0.17463226562495038},{"name":"B4","midi":71,"time":517.76444699996,"velocity":0.7244094488188977,"duration":0.17463226562495038},{"name":"E3","midi":52,"time":517.76444699996,"velocity":0.7244094488188977,"duration":0.17463226562495038},{"name":"G5","midi":79,"time":517.9409174999599,"velocity":0.7244094488188977,"duration":0.17463226562495038},{"name":"D3","midi":50,"time":517.9409174999599,"velocity":0.7244094488188977,"duration":0.17463226562495038},{"name":"A4","midi":69,"time":518.1173879999599,"velocity":0.7244094488188977,"duration":0.17463226562495038},{"name":"C3","midi":48,"time":518.1173879999599,"velocity":0.7244094488188977,"duration":0.17463226562495038},{"name":"G4","midi":67,"time":518.2938584999598,"velocity":0.7244094488188977,"duration":0.17463226562495038},{"name":"E3","midi":52,"time":518.2938584999598,"velocity":0.7244094488188977,"duration":0.17463226562495038},{"name":"A4","midi":69,"time":518.4703289999597,"velocity":0.7244094488188977,"duration":0.17463226562495038},{"name":"D3","midi":50,"time":518.4703289999597,"velocity":0.7244094488188977,"duration":0.17463226562495038},{"name":"F#5","midi":78,"time":518.6467994999597,"velocity":0.7244094488188977,"duration":0.17463226562495038},{"name":"C3","midi":48,"time":518.6467994999597,"velocity":0.7244094488188977,"duration":0.17463226562495038},{"name":"G4","midi":67,"time":518.8232699999596,"velocity":0.7244094488188977,"duration":0.17463226562495038},{"name":"B2","midi":47,"time":518.8232699999596,"velocity":0.7244094488188977,"duration":0.17463226562495038},{"name":"F#4","midi":66,"time":518.9997404999596,"velocity":0.7244094488188977,"duration":0.17463226562495038},{"name":"D3","midi":50,"time":518.9997404999596,"velocity":0.7244094488188977,"duration":0.17463226562495038},{"name":"G4","midi":67,"time":519.1762109999595,"velocity":0.7244094488188977,"duration":0.17463226562495038},{"name":"C3","midi":48,"time":519.1762109999595,"velocity":0.7244094488188977,"duration":0.17463226562495038},{"name":"E5","midi":76,"time":519.3526814999594,"velocity":0.7244094488188977,"duration":0.17463226562495038},{"name":"B2","midi":47,"time":519.3526814999594,"velocity":0.7244094488188977,"duration":0.17463226562495038},{"name":"F#4","midi":66,"time":519.5291519999594,"velocity":0.7244094488188977,"duration":0.17463226562495038},{"name":"A2","midi":45,"time":519.5291519999594,"velocity":0.7244094488188977,"duration":0.17463226562495038},{"name":"E4","midi":64,"time":519.7056224999593,"velocity":0.7244094488188977,"duration":0.17463226562495038},{"name":"C3","midi":48,"time":519.7056224999593,"velocity":0.7244094488188977,"duration":0.17463226562495038},{"name":"F#4","midi":66,"time":519.8820929999592,"velocity":0.7244094488188977,"duration":0.17463226562495038},{"name":"B2","midi":47,"time":519.8820929999592,"velocity":0.7244094488188977,"duration":0.17463226562495038},{"name":"D#5","midi":75,"time":520.0585634999592,"velocity":0.7244094488188977,"duration":0.17463226562495038},{"name":"A2","midi":45,"time":520.0585634999592,"velocity":0.7244094488188977,"duration":0.17463226562495038},{"name":"E4","midi":64,"time":520.2350339999591,"velocity":0.7244094488188977,"duration":0.35110276562488707},{"name":"G2","midi":43,"time":520.2350339999591,"velocity":0.7244094488188977,"duration":0.17463226562495038},{"name":"B2","midi":47,"time":520.411504499959,"velocity":0.7244094488188977,"duration":0.17463226562495038},{"name":"B5","midi":83,"time":520.587974999959,"velocity":0.7244094488188977,"duration":0.2647057499999619},{"name":"A2","midi":45,"time":520.587974999959,"velocity":0.7244094488188977,"duration":0.17463226562495038},{"name":"G2","midi":43,"time":520.7644454999589,"velocity":0.7244094488188977,"duration":0.17463226562506406},{"name":"B4","midi":71,"time":520.940915999959,"velocity":0.7244094488188977,"duration":0.2647057499999619},{"name":"D#5","midi":75,"time":520.940915999959,"velocity":0.7244094488188977,"duration":0.2647057499999619},{"name":"A2","midi":45,"time":520.940915999959,"velocity":0.7244094488188977,"duration":0.17463226562495038},{"name":"G2","midi":43,"time":521.1173864999589,"velocity":0.7244094488188977,"duration":0.17463226562506406},{"name":"E5","midi":76,"time":521.293856999959,"velocity":0.7244094488188977,"duration":0.2647057499999619},{"name":"C#5","midi":73,"time":521.293856999959,"velocity":0.7244094488188977,"duration":0.2647057499999619},{"name":"F#2","midi":42,"time":521.293856999959,"velocity":0.7244094488188977,"duration":0.17463226562495038},{"name":"E2","midi":40,"time":521.4703274999589,"velocity":0.7244094488188977,"duration":0.17463226562506406},{"name":"F#5","midi":78,"time":521.646797999959,"velocity":0.7244094488188977,"duration":0.5147056250000333},{"name":"D#5","midi":75,"time":521.646797999959,"velocity":0.7244094488188977,"duration":0.5147056250000333},{"name":"B2","midi":47,"time":521.646797999959,"velocity":0.7244094488188977,"duration":0.5147056250000333},{"name":"B1","midi":35,"time":521.9997389999589,"velocity":0.7244094488188977,"duration":0.33823512500009656},{"name":"F#4","midi":66,"time":522.352679999959,"velocity":0.7244094488188977,"duration":0.35110276562488707},{"name":"D#4","midi":63,"time":522.352679999959,"velocity":0.7244094488188977,"duration":0.6985290624998015},{"name":"B3","midi":59,"time":522.352679999959,"velocity":0.7244094488188977,"duration":0.17463226562495038},{"name":"A3","midi":57,"time":522.529150499959,"velocity":0.7244094488188977,"duration":0.17463226562495038},{"name":"C5","midi":72,"time":522.7056209999589,"velocity":0.7244094488188977,"duration":0.6249996874997805},{"name":"G3","midi":55,"time":522.7056209999589,"velocity":0.7244094488188977,"duration":0.17463226562495038},{"name":"F#3","midi":54,"time":522.8820914999588,"velocity":0.7244094488188977,"duration":0.17463226562495038},{"name":"E4","midi":64,"time":523.0585619999588,"velocity":0.7244094488188977,"duration":0.6985290624998015},{"name":"A3","midi":57,"time":523.0585619999588,"velocity":0.7244094488188977,"duration":0.17463226562495038},{"name":"G3","midi":55,"time":523.2350324999587,"velocity":0.7244094488188977,"duration":0.17463226562495038},{"name":"B4","midi":71,"time":523.4115029999587,"velocity":0.7244094488188977,"duration":0.6249996874997805},{"name":"F#3","midi":54,"time":523.4115029999587,"velocity":0.7244094488188977,"duration":0.17463226562495038},{"name":"E3","midi":52,"time":523.5879734999586,"velocity":0.7244094488188977,"duration":0.17463226562495038},{"name":"F#4","midi":66,"time":523.7644439999585,"velocity":0.7244094488188977,"duration":0.6985290624998015},{"name":"D#3","midi":51,"time":523.7644439999585,"velocity":0.7244094488188977,"duration":0.17463226562495038},{"name":"C#3","midi":49,"time":523.9409144999585,"velocity":0.7244094488188977,"duration":0.17463226562495038},{"name":"A4","midi":69,"time":524.1173849999584,"velocity":0.7244094488188977,"duration":0.6249996874998942},{"name":"D#3","midi":51,"time":524.1173849999584,"velocity":0.7244094488188977,"duration":0.17463226562495038},{"name":"B2","midi":47,"time":524.2938554999583,"velocity":0.7244094488188977,"duration":0.17463226562495038},{"name":"E4","midi":64,"time":524.4703259999583,"velocity":0.7244094488188977,"duration":0.5147056250000333},{"name":"B3","midi":59,"time":524.4703259999583,"velocity":0.7244094488188977,"duration":0.6985290625000289},{"name":"E3","midi":52,"time":524.4703259999583,"velocity":0.7244094488188977,"duration":0.34926453125001444},{"name":"E2","midi":40,"time":524.6467964999583,"velocity":0.7244094488188977,"duration":0.17463226562495038},{"name":"G4","midi":67,"time":524.8232669999583,"velocity":0.7244094488188977,"duration":0.17463226562506406},{"name":"G2","midi":43,"time":524.8232669999583,"velocity":0.7244094488188977,"duration":0.17463226562506406},{"name":"F#4","midi":66,"time":524.9997374999583,"velocity":0.7244094488188977,"duration":0.17463226562495038},{"name":"B2","midi":47,"time":524.9997374999583,"velocity":0.7244094488188977,"duration":0.17463226562495038},{"name":"E4","midi":64,"time":525.1762079999583,"velocity":0.7244094488188977,"duration":0.6985290624998015},{"name":"G4","midi":67,"time":525.1762079999583,"velocity":0.7244094488188977,"duration":0.35110276562488707},{"name":"E3","midi":52,"time":525.1762079999583,"velocity":0.7244094488188977,"duration":0.17463226562495038},{"name":"D3","midi":50,"time":525.3526784999582,"velocity":0.7244094488188977,"duration":0.17463226562495038},{"name":"E5","midi":76,"time":525.5291489999581,"velocity":0.7244094488188977,"duration":0.6249996874997805},{"name":"C3","midi":48,"time":525.5291489999581,"velocity":0.7244094488188977,"duration":0.17463226562495038},{"name":"B2","midi":47,"time":525.7056194999581,"velocity":0.7244094488188977,"duration":0.17463226562495038},{"name":"F#4","midi":66,"time":525.882089999958,"velocity":0.7244094488188977,"duration":0.6985290624998015},{"name":"C3","midi":48,"time":525.882089999958,"velocity":0.7244094488188977,"duration":0.17463226562495038},{"name":"B2","midi":47,"time":526.0585604999579,"velocity":0.7244094488188977,"duration":0.17463226562495038},{"name":"D5","midi":74,"time":526.2350309999579,"velocity":0.7244094488188977,"duration":0.6249996874997805},{"name":"A2","midi":45,"time":526.2350309999579,"velocity":0.7244094488188977,"duration":0.17463226562495038},{"name":"G2","midi":43,"time":526.4115014999578,"velocity":0.7244094488188977,"duration":0.17463226562495038},{"name":"A4","midi":69,"time":526.5879719999577,"velocity":0.7244094488188977,"duration":0.6985290624998015},{"name":"F#2","midi":42,"time":526.5879719999577,"velocity":0.7244094488188977,"duration":0.17463226562495038},{"name":"E2","midi":40,"time":526.7644424999577,"velocity":0.7244094488188977,"duration":0.17463226562495038},{"name":"C5","midi":72,"time":526.9409129999576,"velocity":0.7244094488188977,"duration":0.6249996874998942},{"name":"F#2","midi":42,"time":526.9409129999576,"velocity":0.7244094488188977,"duration":0.17463226562495038},{"name":"D2","midi":38,"time":527.1173834999576,"velocity":0.7244094488188977,"duration":0.17463226562495038},{"name":"G4","midi":67,"time":527.2938539999575,"velocity":0.7244094488188977,"duration":0.5147056250000333},{"name":"D4","midi":62,"time":527.2938539999575,"velocity":0.7244094488188977,"duration":0.6985290625000289},{"name":"G2","midi":43,"time":527.2938539999575,"velocity":0.7244094488188977,"duration":0.26470575000007557},{"name":"G1","midi":31,"time":527.4703244999575,"velocity":0.7244094488188977,"duration":0.17463226562495038},{"name":"B4","midi":71,"time":527.6467949999575,"velocity":0.7244094488188977,"duration":0.17463226562506406},{"name":"B1","midi":35,"time":527.6467949999575,"velocity":0.7244094488188977,"duration":0.17463226562506406},{"name":"A4","midi":69,"time":527.8232654999575,"velocity":0.7244094488188977,"duration":0.17463226562495038},{"name":"D2","midi":38,"time":527.8232654999575,"velocity":0.7244094488188977,"duration":0.17463226562495038},{"name":"B4","midi":71,"time":527.9997359999575,"velocity":0.7244094488188977,"duration":0.35110276562488707},{"name":"G2","midi":43,"time":527.9997359999575,"velocity":0.7244094488188977,"duration":0.17463226562495038},{"name":"A2","midi":45,"time":528.1762064999574,"velocity":0.7244094488188977,"duration":0.17463226562495038},{"name":"G5","midi":79,"time":528.3526769999573,"velocity":0.7244094488188977,"duration":0.35110276562488707},{"name":"B2","midi":47,"time":528.3526769999573,"velocity":0.7244094488188977,"duration":0.17463226562495038},{"name":"C3","midi":48,"time":528.5291474999573,"velocity":0.7244094488188977,"duration":0.17463226562495038},{"name":"F#5","midi":78,"time":528.7056179999572,"velocity":0.7244094488188977,"duration":0.2647057499999619},{"name":"D3","midi":50,"time":528.7056179999572,"velocity":0.7244094488188977,"duration":0.17463226562495038},{"name":"E3","midi":52,"time":528.8820884999571,"velocity":0.7244094488188977,"duration":0.17463226562506406},{"name":"C6","midi":84,"time":529.0585589999572,"velocity":0.7244094488188977,"duration":0.5275732656248238},{"name":"F#3","midi":54,"time":529.0585589999572,"velocity":0.7244094488188977,"duration":0.17463226562495038},{"name":"D3","midi":50,"time":529.2350294999571,"velocity":0.7244094488188977,"duration":0.17463226562495038},{"name":"G3","midi":55,"time":529.4114999999571,"velocity":0.7244094488188977,"duration":0.17463226562495038},{"name":"B5","midi":83,"time":529.587970499957,"velocity":0.7244094488188977,"duration":0.17463226562495038},{"name":"A3","midi":57,"time":529.587970499957,"velocity":0.7244094488188977,"duration":0.17463226562495038},{"name":"A5","midi":81,"time":529.764440999957,"velocity":0.7244094488188977,"duration":0.17463226562495038},{"name":"B3","midi":59,"time":529.764440999957,"velocity":0.7244094488188977,"duration":0.17463226562495038},{"name":"G5","midi":79,"time":529.9409114999569,"velocity":0.7244094488188977,"duration":0.17463226562495038},{"name":"C4","midi":60,"time":529.9409114999569,"velocity":0.7244094488188977,"duration":0.17463226562495038},{"name":"F#5","midi":78,"time":530.1173819999568,"velocity":0.7244094488188977,"duration":0.2647057499999619},{"name":"D4","midi":62,"time":530.1173819999568,"velocity":0.7244094488188977,"duration":0.17463226562495038},{"name":"E4","midi":64,"time":530.2938524999568,"velocity":0.7244094488188977,"duration":0.17463226562506406},{"name":"C5","midi":72,"time":530.4703229999568,"velocity":0.7244094488188977,"duration":0.4761027031248659},{"name":"F#4","midi":66,"time":530.4703229999568,"velocity":0.7244094488188977,"duration":0.17463226562495038},{"name":"D4","midi":62,"time":530.6467934999567,"velocity":0.7244094488188977,"duration":0.17463226562495038},{"name":"G4","midi":67,"time":530.8232639999567,"velocity":0.7244094488188977,"duration":0.17463226562495038},{"name":"B4","midi":71,"time":530.9997344999566,"velocity":0.7244094488188977,"duration":0.17463226562495038},{"name":"F#4","midi":66,"time":530.9997344999566,"velocity":0.7244094488188977,"duration":0.17463226562495038},{"name":"E5","midi":76,"time":531.1762049999566,"velocity":0.7244094488188977,"duration":0.5183820937498922},{"name":"G4","midi":67,"time":531.1762049999566,"velocity":0.7244094488188977,"duration":0.17463226562495038},{"name":"A4","midi":69,"time":531.3526754999565,"velocity":0.7244094488188977,"duration":0.17463226562495038},{"name":"B4","midi":71,"time":531.5291459999564,"velocity":0.7244094488188977,"duration":0.35110276562500076},{"name":"D5","midi":74,"time":531.7056164999565,"velocity":0.7244094488188977,"duration":0.17463226562495038},{"name":"C5","midi":72,"time":531.8820869999564,"velocity":0.7244094488188977,"duration":0.17463226562495038},{"name":"E3","midi":52,"time":531.8820869999564,"velocity":0.7244094488188977,"duration":0.35110276562488707},{"name":"B4","midi":71,"time":532.0585574999564,"velocity":0.7244094488188977,"duration":0.17463226562495038},{"name":"D5","midi":74,"time":532.2350279999563,"velocity":0.7244094488188977,"duration":0.17463226562495038},{"name":"C3","midi":48,"time":532.2350279999563,"velocity":0.7244094488188977,"duration":0.35110276562488707},{"name":"C5","midi":72,"time":532.4114984999562,"velocity":0.7244094488188977,"duration":0.17463226562495038},{"name":"B4","midi":71,"time":532.5879689999562,"velocity":0.7244094488188977,"duration":0.17463226562495038},{"name":"D3","midi":50,"time":532.5879689999562,"velocity":0.7244094488188977,"duration":0.35110276562488707},{"name":"A4","midi":69,"time":532.7644394999561,"velocity":0.7244094488188977,"duration":0.17463226562495038},{"name":"G4","midi":67,"time":532.940909999956,"velocity":0.7244094488188977,"duration":0.5147056249999196},{"name":"G2","midi":43,"time":532.940909999956,"velocity":0.7244094488188977,"duration":0.17463226562495038},{"name":"D2","midi":38,"time":533.117380499956,"velocity":0.7244094488188977,"duration":0.17463226562495038},{"name":"E2","midi":40,"time":533.2938509999559,"velocity":0.7244094488188977,"duration":0.17463226562506406},{"name":"F#2","midi":42,"time":533.470321499956,"velocity":0.7244094488188977,"duration":0.17463226562495038},{"name":"B3","midi":59,"time":533.6467919999559,"velocity":0.7244094488188977,"duration":0.17463226562495038},{"name":"G2","midi":43,"time":533.6467919999559,"velocity":0.7244094488188977,"duration":0.17463226562495038},{"name":"D4","midi":62,"time":533.8232624999558,"velocity":0.7244094488188977,"duration":0.17463226562495038},{"name":"A2","midi":45,"time":533.8232624999558,"velocity":0.7244094488188977,"duration":0.17463226562495038},{"name":"G4","midi":67,"time":533.9997329999558,"velocity":0.7244094488188977,"duration":0.6249996874997805},{"name":"B2","midi":47,"time":533.9997329999558,"velocity":0.7244094488188977,"duration":0.17463226562495038},{"name":"C3","midi":48,"time":534.1762034999557,"velocity":0.7244094488188977,"duration":0.17463226562495038},{"name":"D3","midi":50,"time":534.3526739999556,"velocity":0.7244094488188977,"duration":0.17463226562495038},{"name":"A2","midi":45,"time":534.5291444999556,"velocity":0.7244094488188977,"duration":0.17463226562495038},{"name":"F#4","midi":66,"time":534.7056149999555,"velocity":0.7244094488188977,"duration":0.17463226562495038},{"name":"B2","midi":47,"time":534.7056149999555,"velocity":0.7244094488188977,"duration":0.17463226562495038},{"name":"E4","midi":64,"time":534.8820854999555,"velocity":0.7244094488188977,"duration":0.17463226562495038},{"name":"C3","midi":48,"time":534.8820854999555,"velocity":0.7244094488188977,"duration":0.17463226562495038},{"name":"F#4","midi":66,"time":535.0585559999554,"velocity":0.7244094488188977,"duration":0.17463226562495038},{"name":"D3","midi":50,"time":535.0585559999554,"velocity":0.7244094488188977,"duration":0.17463226562495038},{"name":"A4","midi":69,"time":535.2350264999553,"velocity":0.7244094488188977,"duration":0.17463226562495038},{"name":"E3","midi":52,"time":535.2350264999553,"velocity":0.7244094488188977,"duration":0.17463226562495038},{"name":"D5","midi":74,"time":535.4114969999553,"velocity":0.7244094488188977,"duration":0.6249996874997805},{"name":"F#3","midi":54,"time":535.4114969999553,"velocity":0.7244094488188977,"duration":0.17463226562495038},{"name":"G3","midi":55,"time":535.5879674999552,"velocity":0.7244094488188977,"duration":0.17463226562495038},{"name":"A3","midi":57,"time":535.7644379999551,"velocity":0.7244094488188977,"duration":0.17463226562495038},{"name":"E3","midi":52,"time":535.9409084999551,"velocity":0.7244094488188977,"duration":0.17463226562495038},{"name":"C5","midi":72,"time":536.117378999955,"velocity":0.7244094488188977,"duration":0.17463226562495038},{"name":"F#3","midi":54,"time":536.117378999955,"velocity":0.7244094488188977,"duration":0.17463226562495038},{"name":"B4","midi":71,"time":536.293849499955,"velocity":0.7244094488188977,"duration":0.17463226562495038},{"name":"G#3","midi":56,"time":536.293849499955,"velocity":0.7244094488188977,"duration":0.17463226562495038},{"name":"C5","midi":72,"time":536.4703199999549,"velocity":0.7244094488188977,"duration":0.17463226562495038},{"name":"A3","midi":57,"time":536.4703199999549,"velocity":0.7244094488188977,"duration":0.17463226562495038},{"name":"E5","midi":76,"time":536.6467904999548,"velocity":0.7244094488188977,"duration":0.17463226562495038},{"name":"B3","midi":59,"time":536.6467904999548,"velocity":0.7244094488188977,"duration":0.17463226562495038},{"name":"A5","midi":81,"time":536.8232609999548,"velocity":0.7244094488188977,"duration":0.6249996874997805},{"name":"C4","midi":60,"time":536.8232609999548,"velocity":0.7244094488188977,"duration":0.17463226562495038},{"name":"D4","midi":62,"time":536.9997314999547,"velocity":0.7244094488188977,"duration":0.17463226562495038},{"name":"E4","midi":64,"time":537.1762019999546,"velocity":0.7244094488188977,"duration":0.17463226562495038},{"name":"B3","midi":59,"time":537.3526724999546,"velocity":0.7244094488188977,"duration":0.17463226562495038},{"name":"G5","midi":79,"time":537.5291429999545,"velocity":0.7244094488188977,"duration":0.17463226562495038},{"name":"C#4","midi":61,"time":537.5291429999545,"velocity":0.7244094488188977,"duration":0.17463226562495038},{"name":"F#5","midi":78,"time":537.7056134999544,"velocity":0.7244094488188977,"duration":0.17463226562495038},{"name":"D#4","midi":63,"time":537.7056134999544,"velocity":0.7244094488188977,"duration":0.17463226562495038},{"name":"A5","midi":81,"time":537.8820839999544,"velocity":0.7244094488188977,"duration":0.17463226562495038},{"name":"E4","midi":64,"time":537.8820839999544,"velocity":0.7244094488188977,"duration":0.17463226562495038},{"name":"G5","midi":79,"time":538.0585544999543,"velocity":0.7244094488188977,"duration":0.17463226562495038},{"name":"F#4","midi":66,"time":538.0585544999543,"velocity":0.7244094488188977,"duration":0.17463226562495038},{"name":"F#5","midi":78,"time":538.2350249999542,"velocity":0.7244094488188977,"duration":0.17463226562495038},{"name":"G4","midi":67,"time":538.2350249999542,"velocity":0.7244094488188977,"duration":0.17463226562495038},{"name":"E5","midi":76,"time":538.4114954999542,"velocity":0.7244094488188977,"duration":0.17463226562495038},{"name":"A4","midi":69,"time":538.4114954999542,"velocity":0.7244094488188977,"duration":0.17463226562495038},{"name":"D#5","midi":75,"time":538.5879659999541,"velocity":0.7244094488188977,"duration":0.18749990624996826},{"name":"B4","midi":71,"time":538.5879659999541,"velocity":0.7244094488188977,"duration":0.17463226562495038},{"name":"F#5","midi":78,"time":538.7644364999541,"velocity":0.7244094488188977,"duration":0.17463226562506406},{"name":"A4","midi":69,"time":538.7644364999541,"velocity":0.7244094488188977,"duration":0.17463226562506406},{"name":"B4","midi":71,"time":538.9409069999541,"velocity":0.7244094488188977,"duration":0.17463226562495038},{"name":"G4","midi":67,"time":538.9409069999541,"velocity":0.7244094488188977,"duration":0.17463226562495038},{"name":"A4","midi":69,"time":539.117377499954,"velocity":0.7244094488188977,"duration":0.17463226562495038},{"name":"F#4","midi":66,"time":539.117377499954,"velocity":0.7244094488188977,"duration":0.17463226562495038},{"name":"G4","midi":67,"time":539.293847999954,"velocity":0.7244094488188977,"duration":0.35110276562488707},{"name":"E4","midi":64,"time":539.293847999954,"velocity":0.7244094488188977,"duration":0.17463226562495038},{"name":"C4","midi":60,"time":539.4703184999539,"velocity":0.7244094488188977,"duration":0.17463226562495038},{"name":"C6","midi":84,"time":539.6467889999539,"velocity":0.7244094488188977,"duration":0.2647057499999619},{"name":"B3","midi":59,"time":539.6467889999539,"velocity":0.7244094488188977,"duration":0.17463226562495038},{"name":"A3","midi":57,"time":539.8232594999538,"velocity":0.7244094488188977,"duration":0.17463226562506406},{"name":"F#4","midi":66,"time":539.9997299999538,"velocity":0.7244094488188977,"duration":0.35110276562488707},{"name":"D4","midi":62,"time":539.9997299999538,"velocity":0.7244094488188977,"duration":0.17463226562495038},{"name":"B3","midi":59,"time":540.1762004999538,"velocity":0.7244094488188977,"duration":0.17463226562495038},{"name":"B5","midi":83,"time":540.3526709999537,"velocity":0.7244094488188977,"duration":0.2647057499999619},{"name":"A3","midi":57,"time":540.3526709999537,"velocity":0.7244094488188977,"duration":0.17463226562495038},{"name":"G3","midi":55,"time":540.5291414999537,"velocity":0.7244094488188977,"duration":0.17463226562506406},{"name":"E4","midi":64,"time":540.7056119999537,"velocity":0.7244094488188977,"duration":0.35110276562488707},{"name":"C4","midi":60,"time":540.7056119999537,"velocity":0.7244094488188977,"duration":0.17463226562495038},{"name":"A3","midi":57,"time":540.8820824999536,"velocity":0.7244094488188977,"duration":0.17463226562495038},{"name":"A5","midi":81,"time":541.0585529999536,"velocity":0.7244094488188977,"duration":0.2647057499999619},{"name":"G3","midi":55,"time":541.0585529999536,"velocity":0.7244094488188977,"duration":0.17463226562495038},{"name":"F#3","midi":54,"time":541.2350234999535,"velocity":0.7244094488188977,"duration":0.17463226562506406},{"name":"D4","midi":62,"time":541.4114939999536,"velocity":0.7244094488188977,"duration":0.35110276562488707},{"name":"B3","midi":59,"time":541.4114939999536,"velocity":0.7244094488188977,"duration":0.17463226562495038},{"name":"G3","midi":55,"time":541.5879644999535,"velocity":0.7244094488188977,"duration":0.17463226562495038},{"name":"G5","midi":79,"time":541.7644349999534,"velocity":0.7244094488188977,"duration":0.2647057499999619},{"name":"F#3","midi":54,"time":541.7644349999534,"velocity":0.7244094488188977,"duration":0.17463226562495038},{"name":"E3","midi":52,"time":541.9409054999534,"velocity":0.7244094488188977,"duration":0.17463226562506406},{"name":"C4","midi":60,"time":542.1173759999534,"velocity":0.7244094488188977,"duration":0.35110276562488707},{"name":"A3","midi":57,"time":542.1173759999534,"velocity":0.7244094488188977,"duration":0.17463226562495038},{"name":"F#3","midi":54,"time":542.2938464999534,"velocity":0.7244094488188977,"duration":0.17463226562495038},{"name":"F#5","midi":78,"time":542.4703169999533,"velocity":0.7244094488188977,"duration":0.2647057499999619},{"name":"D#3","midi":51,"time":542.4703169999533,"velocity":0.7244094488188977,"duration":0.17463226562495038},{"name":"F#3","midi":54,"time":542.6467874999532,"velocity":0.7244094488188977,"duration":0.17463226562506406},{"name":"B3","midi":59,"time":542.8232579999533,"velocity":0.7244094488188977,"duration":0.35110276562488707},{"name":"G3","midi":55,"time":542.8232579999533,"velocity":0.7244094488188977,"duration":0.17463226562495038},{"name":"E3","midi":52,"time":542.9997284999532,"velocity":0.7244094488188977,"duration":0.17463226562495038},{"name":"E5","midi":76,"time":543.1761989999532,"velocity":0.7244094488188977,"duration":0.2647057499999619},{"name":"C3","midi":48,"time":543.1761989999532,"velocity":0.7244094488188977,"duration":0.17463226562495038},{"name":"A2","midi":45,"time":543.3526694999531,"velocity":0.7244094488188977,"duration":0.17463226562506406},{"name":"F#4","midi":66,"time":543.5291399999531,"velocity":0.7244094488188977,"duration":0.3382351249999829},{"name":"B2","midi":47,"time":543.5291399999531,"velocity":0.7244094488188977,"duration":0.35110276562500076},{"name":"D#5","midi":75,"time":543.8820809999531,"velocity":0.7244094488188977,"duration":0.2647057499999619},{"name":"B1","midi":35,"time":543.8820809999531,"velocity":0.7244094488188977,"duration":0.35110276562500076},{"name":"E5","midi":76,"time":544.2350219999531,"velocity":0.7244094488188977,"duration":0.1654410937500188},{"name":"E2","midi":40,"time":544.2350219999531,"velocity":0.7244094488188977,"duration":0.36580864062511864},{"name":"B4","midi":71,"time":544.3232572499531,"velocity":0.7244094488188977,"duration":0.08639701562503888},{"name":"C#5","midi":73,"time":544.4114924999532,"velocity":0.7244094488188977,"duration":0.08639701562503888},{"name":"D#5","midi":75,"time":544.4997277499532,"velocity":0.7244094488188977,"duration":0.08639701562503888},{"name":"E5","midi":76,"time":544.5879629999532,"velocity":0.7244094488188977,"duration":0.08639701562503888},{"name":"D#5","midi":75,"time":544.6761982499532,"velocity":0.7244094488188977,"duration":0.08639701562503888},{"name":"B3","midi":59,"time":544.6761982499532,"velocity":0.7244094488188977,"duration":0.08639701562503888},{"name":"E5","midi":76,"time":544.7644334999533,"velocity":0.7244094488188977,"duration":0.08639701562503888},{"name":"C#4","midi":61,"time":544.7644334999533,"velocity":0.7244094488188977,"duration":0.08639701562503888},{"name":"F#5","midi":78,"time":544.8526687499533,"velocity":0.7244094488188977,"duration":0.08639701562503888},{"name":"D#4","midi":63,"time":544.8526687499533,"velocity":0.7244094488188977,"duration":0.08639701562503888},{"name":"G5","midi":79,"time":544.9409039999533,"velocity":0.7244094488188977,"duration":0.17463226562495038},{"name":"E4","midi":64,"time":544.9409039999533,"velocity":0.7244094488188977,"duration":0.17463226562495038},{"name":"E5","midi":76,"time":545.1173744999533,"velocity":0.7244094488188977,"duration":0.17463226562495038},{"name":"G4","midi":67,"time":545.1173744999533,"velocity":0.7244094488188977,"duration":0.17463226562495038},{"name":"C5","midi":72,"time":545.2938449999532,"velocity":0.7244094488188977,"duration":0.17463226562495038},{"name":"E4","midi":64,"time":545.2938449999532,"velocity":0.7244094488188977,"duration":0.17463226562495038},{"name":"A4","midi":69,"time":545.4703154999531,"velocity":0.7244094488188977,"duration":0.17463226562495038},{"name":"C4","midi":60,"time":545.4703154999531,"velocity":0.7244094488188977,"duration":0.17463226562495038},{"name":"F#5","midi":78,"time":545.6467859999531,"velocity":0.7244094488188977,"duration":0.17463226562495038},{"name":"D4","midi":62,"time":545.6467859999531,"velocity":0.7244094488188977,"duration":0.17463226562495038},{"name":"D5","midi":74,"time":545.823256499953,"velocity":0.7244094488188977,"duration":0.17463226562495038},{"name":"F#4","midi":66,"time":545.823256499953,"velocity":0.7244094488188977,"duration":0.17463226562495038},{"name":"B4","midi":71,"time":545.9997269999529,"velocity":0.7244094488188977,"duration":0.17463226562495038},{"name":"D4","midi":62,"time":545.9997269999529,"velocity":0.7244094488188977,"duration":0.17463226562495038},{"name":"G4","midi":67,"time":546.1761974999529,"velocity":0.7244094488188977,"duration":0.17463226562495038},{"name":"B3","midi":59,"time":546.1761974999529,"velocity":0.7244094488188977,"duration":0.17463226562495038},{"name":"E5","midi":76,"time":546.3526679999528,"velocity":0.7244094488188977,"duration":0.17463226562495038},{"name":"C4","midi":60,"time":546.3526679999528,"velocity":0.7244094488188977,"duration":0.17463226562495038},{"name":"C5","midi":72,"time":546.5291384999528,"velocity":0.7244094488188977,"duration":0.17463226562495038},{"name":"E4","midi":64,"time":546.5291384999528,"velocity":0.7244094488188977,"duration":0.17463226562495038},{"name":"A4","midi":69,"time":546.7056089999527,"velocity":0.7244094488188977,"duration":0.17463226562495038},{"name":"C4","midi":60,"time":546.7056089999527,"velocity":0.7244094488188977,"duration":0.17463226562495038},{"name":"F#4","midi":66,"time":546.8820794999526,"velocity":0.7244094488188977,"duration":0.17463226562495038},{"name":"A3","midi":57,"time":546.8820794999526,"velocity":0.7244094488188977,"duration":0.17463226562495038},{"name":"E5","midi":76,"time":547.0585499999526,"velocity":0.7244094488188977,"duration":0.17463226562495038},{"name":"B3","midi":59,"time":547.0585499999526,"velocity":0.7244094488188977,"duration":0.17463226562495038},{"name":"B4","midi":71,"time":547.2350204999525,"velocity":0.7244094488188977,"duration":0.17463226562495038},{"name":"E4","midi":64,"time":547.2350204999525,"velocity":0.7244094488188977,"duration":0.17463226562495038},{"name":"G4","midi":67,"time":547.4114909999524,"velocity":0.7244094488188977,"duration":0.17463226562495038},{"name":"B3","midi":59,"time":547.4114909999524,"velocity":0.7244094488188977,"duration":0.17463226562495038},{"name":"E4","midi":64,"time":547.5879614999524,"velocity":0.7244094488188977,"duration":0.17463226562495038},{"name":"G3","midi":55,"time":547.5879614999524,"velocity":0.7244094488188977,"duration":0.17463226562495038},{"name":"C5","midi":72,"time":547.7644319999523,"velocity":0.7244094488188977,"duration":0.17463226562495038},{"name":"A3","midi":57,"time":547.7644319999523,"velocity":0.7244094488188977,"duration":0.17463226562495038},{"name":"A4","midi":69,"time":547.9409024999522,"velocity":0.7244094488188977,"duration":0.17463226562495038},{"name":"C4","midi":60,"time":547.9409024999522,"velocity":0.7244094488188977,"duration":0.17463226562495038},{"name":"F#4","midi":66,"time":548.1173729999522,"velocity":0.7244094488188977,"duration":0.17463226562495038},{"name":"A3","midi":57,"time":548.1173729999522,"velocity":0.7244094488188977,"duration":0.17463226562495038},{"name":"D#4","midi":63,"time":548.2938434999521,"velocity":0.7244094488188977,"duration":0.17463226562495038},{"name":"F#3","midi":54,"time":548.2938434999521,"velocity":0.7244094488188977,"duration":0.17463226562495038},{"name":"E4","midi":64,"time":548.470313999952,"velocity":0.7244094488188977,"duration":0.17463226562495038},{"name":"G3","midi":55,"time":548.470313999952,"velocity":0.7244094488188977,"duration":0.17463226562495038},{"name":"G4","midi":67,"time":548.646784499952,"velocity":0.7244094488188977,"duration":0.17463226562495038},{"name":"B3","midi":59,"time":548.646784499952,"velocity":0.7244094488188977,"duration":0.17463226562495038},{"name":"B4","midi":71,"time":548.8232549999519,"velocity":0.7244094488188977,"duration":0.17463226562495038},{"name":"G3","midi":55,"time":548.8232549999519,"velocity":0.7244094488188977,"duration":0.17463226562495038},{"name":"E5","midi":76,"time":548.9997254999519,"velocity":0.7244094488188977,"duration":0.17463226562495038},{"name":"E3","midi":52,"time":548.9997254999519,"velocity":0.7244094488188977,"duration":0.17463226562495038},{"name":"B4","midi":71,"time":549.1761959999518,"velocity":0.7244094488188977,"duration":0.17463226562495038},{"name":"B3","midi":59,"time":549.1761959999518,"velocity":0.7244094488188977,"duration":0.35110276562488707},{"name":"E5","midi":76,"time":549.3526664999517,"velocity":0.7244094488188977,"duration":0.17463226562495038},{"name":"G5","midi":79,"time":549.5291369999517,"velocity":0.7244094488188977,"duration":0.10110289062504307},{"name":"B2","midi":47,"time":549.5291369999517,"velocity":0.7244094488188977,"duration":0.35110276562511444},{"name":"F#5","midi":78,"time":549.6284016562017,"velocity":0.7244094488188977,"duration":0.10110289062504307},{"name":"E5","midi":76,"time":549.7313427812018,"velocity":0.7244094488188977,"duration":0.10110289062504307},{"name":"D#5","midi":75,"time":549.8342839062018,"velocity":0.7244094488188977,"duration":0.10110289062504307},{"name":"E3","midi":52,"time":549.9409014999518,"velocity":0.7244094488188977,"duration":1.056984765624975},{"name":"E5","midi":76,"time":549.9409014999518,"velocity":0.7244094488188977,"duration":1.6544109374999607},{"name":"E2","midi":40,"time":550.3967836249518,"velocity":0.7244094488188977,"duration":1.1029406249999738},{"name":"E4","midi":64,"time":557.6467799999517,"velocity":0.7244094488188977,"duration":0.5863967656249542},{"name":"B3","midi":59,"time":557.6467799999517,"velocity":0.7244094488188977,"duration":0.5863967656249542},{"name":"G3","midi":55,"time":557.6467799999517,"velocity":0.7244094488188977,"duration":0.7040437656249878},{"name":"E3","midi":52,"time":557.6467799999517,"velocity":0.7244094488188977,"duration":0.7040437656249878},{"name":"F#4","midi":66,"time":557.6908976249517,"velocity":0.7244094488188977,"duration":0.05698526562503048},{"name":"G4","midi":67,"time":557.7350152499517,"velocity":0.7244094488188977,"duration":0.4761027031249796},{"name":"G4","midi":67,"time":558.2350149999517,"velocity":0.7244094488188977,"duration":0.11580876562504727},{"name":"B3","midi":59,"time":558.3526619999517,"velocity":0.7244094488188977,"duration":0.5147056250000333},{"name":"E4","midi":64,"time":558.3526619999517,"velocity":0.7244094488188977,"duration":0.6985290625000289},{"name":"G4","midi":67,"time":558.3526619999517,"velocity":0.7244094488188977,"duration":0.8805142656250382},{"name":"C3","midi":48,"time":558.3526619999517,"velocity":0.7244094488188977,"duration":1.3051464062499463},{"name":"A2","midi":45,"time":558.3526619999517,"velocity":0.7244094488188977,"duration":1.2867640624999694},{"name":"E3","midi":52,"time":558.3526619999517,"velocity":0.7244094488188977,"duration":1.323528749999923},{"name":"A3","midi":57,"time":558.3526619999517,"velocity":0.7244094488188977,"duration":1.3602934374998767},{"name":"C4","midi":60,"time":558.8673676249517,"velocity":0.7244094488188977,"duration":0.6985290625000289},{"name":"F#4","midi":66,"time":559.2350144999517,"velocity":0.7244094488188977,"duration":0.08639701562503888},{"name":"G4","midi":67,"time":559.3232497499517,"velocity":0.7244094488188977,"duration":0.08639701562503888},{"name":"A4","midi":69,"time":559.4114849999518,"velocity":0.7244094488188977,"duration":0.17463226562495038},{"name":"A4","midi":69,"time":559.5879554999517,"velocity":0.7244094488188977,"duration":0.08639701562492519},{"name":"B4","midi":71,"time":559.6761907499516,"velocity":0.7244094488188977,"duration":0.08639701562492519},{"name":"C5","midi":72,"time":559.7644259999515,"velocity":0.7244094488188977,"duration":0.08639701562503888},{"name":"A4","midi":69,"time":559.8526612499516,"velocity":0.7244094488188977,"duration":0.08639701562503888},{"name":"B4","midi":71,"time":559.9408964999516,"velocity":0.7244094488188977,"duration":0.08639701562503888},{"name":"C5","midi":72,"time":560.0291317499516,"velocity":0.7244094488188977,"duration":0.08639701562503888},{"name":"D#5","midi":75,"time":560.1173669999516,"velocity":0.7244094488188977,"duration":0.1654410937500188},{"name":"A4","midi":69,"time":560.2056022499517,"velocity":0.7244094488188977,"duration":1.3327199218751957},{"name":"B4","midi":71,"time":560.2938374999517,"velocity":0.7244094488188977,"duration":0.08639701562503888},{"name":"C5","midi":72,"time":560.3820727499517,"velocity":0.7244094488188977,"duration":1.1488964843752},{"name":"F#5","midi":78,"time":560.4703079999517,"velocity":0.7244094488188977,"duration":1.0569847656252023},{"name":"C4","midi":60,"time":560.6467784999518,"velocity":0.7244094488188977,"duration":1.0202200781250212},{"name":"A3","midi":57,"time":560.8232489999518,"velocity":0.7244094488188977,"duration":0.8455878124999572},{"name":"F#3","midi":54,"time":560.9997194999519,"velocity":0.7244094488188977,"duration":0.6709555468748931},{"name":"E3","midi":52,"time":561.1761899999519,"velocity":0.7244094488188977,"duration":0.1636028593750325},{"name":"D#3","midi":51,"time":561.352660499952,"velocity":0.7244094488188977,"duration":0.33088218749981024},{"name":"A4","midi":69,"time":561.7184691405768,"velocity":0.7244094488188977,"duration":0.16176462500004618},{"name":"C5","midi":72,"time":561.7184691405768,"velocity":0.7244094488188977,"duration":0.16176462500004618},{"name":"F#3","midi":54,"time":561.7184691405768,"velocity":0.7244094488188977,"duration":0.16176462500004618},{"name":"D#3","midi":51,"time":561.7184691405768,"velocity":0.7244094488188977,"duration":0.16176462500004618},{"name":"G4","midi":67,"time":561.8820719999518,"velocity":0.7244094488188977,"duration":0.5422791406250553},{"name":"B4","midi":71,"time":561.8820719999518,"velocity":0.7244094488188977,"duration":0.5422791406250553},{"name":"E3","midi":52,"time":561.8820719999518,"velocity":0.7244094488188977,"duration":0.5422791406250553},{"name":"G3","midi":55,"time":561.8820719999518,"velocity":0.7244094488188977,"duration":0.5422791406250553},{"name":"F#4","midi":66,"time":562.4519246562019,"velocity":0.7244094488188977,"duration":0.1341911093750241},{"name":"D#5","midi":75,"time":562.4519246562019,"velocity":0.7244094488188977,"duration":0.1341911093750241},{"name":"F#3","midi":54,"time":562.4519246562019,"velocity":0.7244094488188977,"duration":0.1341911093750241},{"name":"A3","midi":57,"time":562.4519246562019,"velocity":0.7244094488188977,"duration":0.1341911093750241},{"name":"E5","midi":76,"time":562.5879539999519,"velocity":0.7244094488188977,"duration":0.5422791406250553},{"name":"E4","midi":64,"time":562.5879539999519,"velocity":0.7244094488188977,"duration":0.5422791406250553},{"name":"G3","midi":55,"time":562.5879539999519,"velocity":0.7244094488188977,"duration":0.5422791406250553},{"name":"B3","midi":59,"time":562.5879539999519,"velocity":0.7244094488188977,"duration":0.5422791406250553},{"name":"G5","midi":79,"time":563.1761889999519,"velocity":0.7244094488188977,"duration":0.11580876562504727},{"name":"B4","midi":71,"time":563.1761889999519,"velocity":0.7244094488188977,"duration":0.11580876562504727},{"name":"E4","midi":64,"time":563.1761889999519,"velocity":0.7244094488188977,"duration":0.11580876562504727},{"name":"E3","midi":52,"time":563.1761889999519,"velocity":0.7244094488188977,"duration":0.11580876562504727},{"name":"C5","midi":72,"time":563.293835999952,"velocity":0.7244094488188977,"duration":0.5422791406250553},{"name":"F#5","midi":78,"time":563.293835999952,"velocity":0.7244094488188977,"duration":0.5422791406250553},{"name":"A3","midi":57,"time":563.293835999952,"velocity":0.7244094488188977,"duration":0.5422791406250553},{"name":"E4","midi":64,"time":563.293835999952,"velocity":0.7244094488188977,"duration":0.5422791406250553},{"name":"A5","midi":81,"time":563.882070999952,"velocity":0.7244094488188977,"duration":0.11580876562504727},{"name":"B4","midi":71,"time":563.882070999952,"velocity":0.7244094488188977,"duration":0.11580876562504727},{"name":"F#4","midi":66,"time":563.882070999952,"velocity":0.7244094488188977,"duration":0.11580876562504727},{"name":"D#4","midi":63,"time":563.882070999952,"velocity":0.7244094488188977,"duration":0.11580876562504727},{"name":"B3","midi":59,"time":563.882070999952,"velocity":0.7244094488188977,"duration":0.11580876562504727},{"name":"E5","midi":76,"time":563.999717999952,"velocity":0.7244094488188977,"duration":0.35110276562500076},{"name":"A4","midi":69,"time":563.999717999952,"velocity":0.7244094488188977,"duration":0.35110276562500076},{"name":"C4","midi":60,"time":563.999717999952,"velocity":0.7244094488188977,"duration":0.538602671874969},{"name":"F#4","midi":66,"time":563.999717999952,"velocity":0.7244094488188977,"duration":0.538602671874969},{"name":"D#5","midi":75,"time":564.352658999952,"velocity":0.7244094488188977,"duration":0.18566167187498195},{"name":"E5","midi":76,"time":564.558541249952,"velocity":0.7244094488188977,"duration":0.14522051562505567},{"name":"C5","midi":72,"time":564.558541249952,"velocity":0.7244094488188977,"duration":0.14522051562505567},{"name":"G4","midi":67,"time":564.558541249952,"velocity":0.7244094488188977,"duration":0.14522051562505567},{"name":"A3","midi":57,"time":564.558541249952,"velocity":0.7244094488188977,"duration":0.14522051562505567},{"name":"B4","midi":71,"time":564.705599999952,"velocity":0.7244094488188977,"duration":0.792279015625013},{"name":"E5","midi":76,"time":564.705599999952,"velocity":0.7244094488188977,"duration":0.792279015625013},{"name":"B3","midi":59,"time":564.705599999952,"velocity":0.7244094488188977,"duration":1.4099257656251893},{"name":"F#4","midi":66,"time":564.705599999952,"velocity":0.7244094488188977,"duration":1.4099257656251893},{"name":"D#5","midi":75,"time":565.499717249952,"velocity":0.7244094488188977,"duration":0.08639701562503888},{"name":"E5","midi":76,"time":565.587952499952,"velocity":0.7244094488188977,"duration":0.08639701562503888},{"name":"D#5","midi":75,"time":565.6761877499521,"velocity":0.7244094488188977,"duration":0.08639701562503888},{"name":"C#5","midi":73,"time":565.7644229999521,"velocity":0.7244094488188977,"duration":0.08639701562503888},{"name":"D#5","midi":75,"time":565.8526582499521,"velocity":0.7244094488188977,"duration":0.08639701562503888},{"name":"C#5","midi":73,"time":565.9408934999522,"velocity":0.7244094488188977,"duration":0.08639701562503888},{"name":"B4","midi":71,"time":566.0291287499522,"velocity":0.7244094488188977,"duration":0.08639701562503888},{"name":"D#5","midi":75,"time":566.1173639999522,"velocity":0.7244094488188977,"duration":0.6985290625000289},{"name":"F#5","midi":78,"time":566.1173639999522,"velocity":0.7244094488188977,"duration":0.6985290625000289},{"name":"A5","midi":81,"time":566.1173639999522,"velocity":0.7244094488188977,"duration":0.5330879687500101},{"name":"D#4","midi":63,"time":566.1173639999522,"velocity":0.7244094488188977,"duration":0.7040437656249878},{"name":"F#4","midi":66,"time":566.1173639999522,"velocity":0.7244094488188977,"duration":0.7040437656249878},{"name":"B4","midi":71,"time":566.1173639999522,"velocity":0.7244094488188977,"duration":0.7040437656249878},{"name":"A5","midi":81,"time":566.6596431405773,"velocity":0.7244094488188977,"duration":0.1617646249999325},{"name":"A5","midi":81,"time":566.8232459999522,"velocity":0.7244094488188977,"duration":0.7040437656249878},{"name":"B4","midi":71,"time":566.8232459999522,"velocity":0.7244094488188977,"duration":0.8823524999999108},{"name":"D#5","midi":75,"time":566.8232459999522,"velocity":0.7244094488188977,"duration":0.7040437656249878},{"name":"F#5","midi":78,"time":566.8232459999522,"velocity":0.7244094488188977,"duration":0.7040437656249878},{"name":"G4","midi":67,"time":566.8232459999522,"velocity":0.7244094488188977,"duration":1.409925765624962},{"name":"E4","midi":64,"time":566.8232459999522,"velocity":0.7244094488188977,"duration":1.409925765624962},{"name":"G5","midi":79,"time":567.5291279999522,"velocity":0.7244094488188977,"duration":0.17463226562495038},{"name":"E5","midi":76,"time":567.5291279999522,"velocity":0.7244094488188977,"duration":0.17463226562495038},{"name":"B4","midi":71,"time":567.7055984999521,"velocity":0.7244094488188977,"duration":0.08639701562503888},{"name":"C5","midi":72,"time":567.7938337499521,"velocity":0.7244094488188977,"duration":0.08639701562503888},{"name":"D5","midi":74,"time":567.8820689999521,"velocity":0.7244094488188977,"duration":0.17463226562495038},{"name":"D5","midi":74,"time":568.0585394999521,"velocity":0.7244094488188977,"duration":0.08639701562503888},{"name":"E5","midi":76,"time":568.1467747499521,"velocity":0.7244094488188977,"duration":0.08639701562503888},{"name":"F5","midi":77,"time":568.2350099999521,"velocity":0.7244094488188977,"duration":0.08639701562503888},{"name":"B3","midi":59,"time":568.2350099999521,"velocity":0.7244094488188977,"duration":0.7040437656252152},{"name":"G#4","midi":68,"time":568.2350099999521,"velocity":0.7244094488188977,"duration":0.7040437656252152},{"name":"D5","midi":74,"time":568.3232452499522,"velocity":0.7244094488188977,"duration":0.08639701562503888},{"name":"E5","midi":76,"time":568.4114804999522,"velocity":0.7244094488188977,"duration":0.08639701562503888},{"name":"F5","midi":77,"time":568.4997157499522,"velocity":0.7244094488188977,"duration":0.08639701562503888},{"name":"G#5","midi":80,"time":568.5879509999522,"velocity":0.7244094488188977,"duration":0.08639701562503888},{"name":"D5","midi":74,"time":568.6761862499523,"velocity":0.7244094488188977,"duration":0.9742642187500223},{"name":"E5","midi":76,"time":568.7644214999523,"velocity":0.7244094488188977,"duration":0.08639701562503888},{"name":"F5","midi":77,"time":568.8526567499523,"velocity":0.7244094488188977,"duration":0.7904407812500267},{"name":"B5","midi":83,"time":568.9408919999523,"velocity":0.7244094488188977,"duration":0.6985290625000289},{"name":"C4","midi":60,"time":568.9408919999523,"velocity":0.7244094488188977,"duration":1.4099257656250757},{"name":"A4","midi":69,"time":569.2938329999523,"velocity":0.7244094488188977,"duration":0.08639701562503888},{"name":"G#4","midi":68,"time":569.3820682499523,"velocity":0.7244094488188977,"duration":0.08639701562503888},{"name":"F#4","midi":66,"time":569.4703034999524,"velocity":0.7244094488188977,"duration":0.08639701562503888},{"name":"G#4","midi":68,"time":569.5585387499524,"velocity":0.7244094488188977,"duration":0.08639701562492519},{"name":"E5","midi":76,"time":569.6467739999523,"velocity":0.7244094488188977,"duration":0.08639701562492519},{"name":"A4","midi":69,"time":569.6467739999523,"velocity":0.7244094488188977,"duration":0.44117625000001226},{"name":"C5","midi":72,"time":569.6467739999523,"velocity":0.7244094488188977,"duration":0.17463226562495038},{"name":"A5","midi":81,"time":569.6467739999523,"velocity":0.7244094488188977,"duration":0.08639701562492519},{"name":"F5","midi":77,"time":569.7350092499522,"velocity":0.7244094488188977,"duration":0.08639701562503888},{"name":"E5","midi":76,"time":569.8232444999522,"velocity":0.7244094488188977,"duration":0.08639701562503888},{"name":"D5","midi":74,"time":569.9114797499523,"velocity":0.7244094488188977,"duration":0.08639701562503888},{"name":"C5","midi":72,"time":569.9997149999523,"velocity":0.7244094488188977,"duration":0.08639701562503888},{"name":"B4","midi":71,"time":570.0879502499523,"velocity":0.7244094488188977,"duration":0.08639701562503888},{"name":"A4","midi":69,"time":570.1761854999523,"velocity":0.7244094488188977,"duration":0.08639701562503888},{"name":"G#4","midi":68,"time":570.2644207499524,"velocity":0.7244094488188977,"duration":0.08639701562503888},{"name":"A4","midi":69,"time":570.3526559999524,"velocity":0.7244094488188977,"duration":0.3161763125000334},{"name":"C#4","midi":61,"time":570.5180970937024,"velocity":0.7244094488188977,"duration":0.5330879687498964},{"name":"E4","midi":64,"time":570.5953029374524,"velocity":0.7244094488188977,"duration":0.0753676093750073},{"name":"A4","midi":69,"time":570.6725087812024,"velocity":0.7244094488188977,"duration":0.0753676093750073},{"name":"C#5","midi":73,"time":570.7497146249524,"velocity":0.7244094488188977,"duration":0.0753676093750073},{"name":"E5","midi":76,"time":570.8269204687024,"velocity":0.7244094488188977,"duration":0.2205881249999493},{"name":"F#5","midi":78,"time":570.9041263124524,"velocity":0.7244094488188977,"duration":0.0753676093750073},{"name":"G5","midi":79,"time":570.9813321562024,"velocity":0.7244094488188977,"duration":0.07536760937489362},{"name":"C#5","midi":73,"time":571.0585379999523,"velocity":0.7244094488188977,"duration":0.35110276562500076},{"name":"E5","midi":76,"time":571.0585379999523,"velocity":0.7244094488188977,"duration":0.6985290625000289},{"name":"G5","midi":79,"time":571.0585379999523,"velocity":0.7244094488188977,"duration":0.6985290625000289},{"name":"D4","midi":62,"time":571.0585379999523,"velocity":0.7244094488188977,"duration":1.4099257656251893},{"name":"A4","midi":69,"time":571.0585379999523,"velocity":0.7244094488188977,"duration":0.6985290625000289},{"name":"D5","midi":74,"time":571.4114789999522,"velocity":0.7244094488188977,"duration":0.08639701562503888},{"name":"C#5","midi":73,"time":571.4997142499523,"velocity":0.7244094488188977,"duration":0.08639701562503888},{"name":"B4","midi":71,"time":571.5879494999523,"velocity":0.7244094488188977,"duration":0.08639701562503888},{"name":"C#5","midi":73,"time":571.6761847499523,"velocity":0.7244094488188977,"duration":0.08639701562492519},{"name":"D5","midi":74,"time":571.7644199999522,"velocity":0.7244094488188977,"duration":0.11764700000003359},{"name":"F#5","midi":78,"time":571.7644199999522,"velocity":0.7244094488188977,"duration":0.26470575000007557},{"name":"A4","midi":69,"time":571.8526552499522,"velocity":0.7244094488188977,"duration":0.5147056250001469},{"name":"B4","midi":71,"time":571.9408904999523,"velocity":0.7244094488188977,"duration":0.08639701562503888},{"name":"C#5","midi":73,"time":572.0291257499523,"velocity":0.7244094488188977,"duration":0.08639701562503888},{"name":"D5","midi":74,"time":572.1173609999523,"velocity":0.7244094488188977,"duration":0.08639701562503888},{"name":"E5","midi":76,"time":572.2055962499524,"velocity":0.7244094488188977,"duration":0.08639701562503888},{"name":"F#5","midi":78,"time":572.2938314999524,"velocity":0.7244094488188977,"duration":0.08639701562503888},{"name":"G5","midi":79,"time":572.3820667499524,"velocity":0.7244094488188977,"duration":0.08639701562503888},{"name":"A5","midi":81,"time":572.4703019999524,"velocity":0.7244094488188977,"duration":0.17463226562495038},{"name":"C4","midi":60,"time":572.4703019999524,"velocity":0.7244094488188977,"duration":0.7040437656249878},{"name":"F#4","midi":66,"time":572.4703019999524,"velocity":0.7244094488188977,"duration":0.7040437656249878},{"name":"A4","midi":69,"time":572.4703019999524,"velocity":0.7244094488188977,"duration":0.7040437656249878},{"name":"D4","midi":62,"time":572.4703019999524,"velocity":0.7244094488188977,"duration":0.7040437656249878},{"name":"G5","midi":79,"time":572.6467724999524,"velocity":0.7244094488188977,"duration":0.08639701562503888},{"name":"F#5","midi":78,"time":572.7350077499524,"velocity":0.7244094488188977,"duration":0.08639701562503888},{"name":"C6","midi":84,"time":572.8232429999524,"velocity":0.7244094488188977,"duration":0.17463226562495038},{"name":"B5","midi":83,"time":572.9997134999523,"velocity":0.7244094488188977,"duration":0.08639701562503888},{"name":"A5","midi":81,"time":573.0879487499524,"velocity":0.7244094488188977,"duration":0.08639701562503888},{"name":"B5","midi":83,"time":573.1761839999524,"velocity":0.7244094488188977,"duration":0.06249996874998942},{"name":"C5","midi":72,"time":573.1761839999524,"velocity":0.7244094488188977,"duration":0.6985290624998015},{"name":"D5","midi":74,"time":573.1761839999524,"velocity":0.7244094488188977,"duration":1.0569847656247475},{"name":"D4","midi":62,"time":573.1761839999524,"velocity":0.7244094488188977,"duration":0.7040437656247605},{"name":"F#4","midi":66,"time":573.1761839999524,"velocity":0.7244094488188977,"duration":0.7040437656247605},{"name":"B3","midi":59,"time":573.1761839999524,"velocity":0.7244094488188977,"duration":0.7040437656247605},{"name":"A5","midi":81,"time":573.2405222030774,"velocity":0.7244094488188977,"duration":0.06249996874998942},{"name":"B5","midi":83,"time":573.3048604062024,"velocity":0.7244094488188977,"duration":0.06249996874998942},{"name":"A5","midi":81,"time":573.3691986093273,"velocity":0.7244094488188977,"duration":0.06249996874998942},{"name":"B5","midi":83,"time":573.4335368124523,"velocity":0.7244094488188977,"duration":0.06249996874998942},{"name":"A5","midi":81,"time":573.4978750155773,"velocity":0.7244094488188977,"duration":0.06249996874998942},{"name":"B5","midi":83,"time":573.5622132187023,"velocity":0.7244094488188977,"duration":0.06249996874998942},{"name":"A5","midi":81,"time":573.6265514218272,"velocity":0.7244094488188977,"duration":0.06249996874998942},{"name":"G5","midi":79,"time":573.6908896249522,"velocity":0.7244094488188977,"duration":0.06249996874998942},{"name":"A5","midi":81,"time":573.7552278280772,"velocity":0.7244094488188977,"duration":0.06249996874998942},{"name":"B5","midi":83,"time":573.8195660312022,"velocity":0.7244094488188977,"duration":0.06066173437500311},{"name":"G5","midi":79,"time":573.8820659999521,"velocity":0.7244094488188977,"duration":0.5091909218749606},{"name":"G4","midi":67,"time":573.8820659999521,"velocity":0.7244094488188977,"duration":0.5091909218749606},{"name":"B4","midi":71,"time":573.8820659999521,"velocity":0.7244094488188977,"duration":0.5091909218749606},{"name":"F#5","midi":78,"time":574.4114774999521,"velocity":0.7244094488188977,"duration":0.17463226562495038},{"name":"D#4","midi":63,"time":574.4114774999521,"velocity":0.7244094488188977,"duration":0.17463226562495038},{"name":"A3","midi":57,"time":574.4114774999521,"velocity":0.7244094488188977,"duration":0.17463226562495038},{"name":"C4","midi":60,"time":574.4114774999521,"velocity":0.7244094488188977,"duration":0.17463226562495038},{"name":"E5","midi":76,"time":574.587947999952,"velocity":0.7244094488188977,"duration":0.17463226562495038},{"name":"G3","midi":55,"time":574.587947999952,"velocity":0.7244094488188977,"duration":0.5275732656250511},{"name":"E4","midi":64,"time":574.587947999952,"velocity":0.7244094488188977,"duration":0.5275732656250511},{"name":"B3","midi":59,"time":574.587947999952,"velocity":0.7244094488188977,"duration":0.5275732656250511},{"name":"G5","midi":79,"time":574.764418499952,"velocity":0.7244094488188977,"duration":0.08639701562503888},{"name":"F#5","midi":78,"time":574.852653749952,"velocity":0.7244094488188977,"duration":0.08639701562503888},{"name":"E5","midi":76,"time":574.940888999952,"velocity":0.7244094488188977,"duration":0.08639701562503888},{"name":"F#5","midi":78,"time":575.029124249952,"velocity":0.7244094488188977,"duration":0.08639701562503888},{"name":"G5","midi":79,"time":575.117359499952,"velocity":0.7244094488188977,"duration":0.17463226562495038},{"name":"F#3","midi":54,"time":575.117359499952,"velocity":0.7244094488188977,"duration":0.17463226562495038},{"name":"C#5","midi":73,"time":575.293829999952,"velocity":0.7244094488188977,"duration":0.17463226562495038},{"name":"E3","midi":52,"time":575.293829999952,"velocity":0.7244094488188977,"duration":0.5275732656250511},{"name":"E5","midi":76,"time":575.4703004999519,"velocity":0.7244094488188977,"duration":0.08639701562503888},{"name":"D5","midi":74,"time":575.558535749952,"velocity":0.7244094488188977,"duration":0.08639701562503888},{"name":"C#5","midi":73,"time":575.646770999952,"velocity":0.7244094488188977,"duration":0.08639701562503888},{"name":"D5","midi":74,"time":575.735006249952,"velocity":0.7244094488188977,"duration":0.08639701562503888},{"name":"E5","midi":76,"time":575.823241499952,"velocity":0.7244094488188977,"duration":0.17463226562495038},{"name":"D3","midi":50,"time":575.823241499952,"velocity":0.7244094488188977,"duration":0.17463226562495038},{"name":"A#4","midi":70,"time":575.999711999952,"velocity":0.7244094488188977,"duration":0.17463226562495038},{"name":"C#3","midi":49,"time":575.999711999952,"velocity":0.7244094488188977,"duration":0.5275732656250511},{"name":"C#5","midi":73,"time":576.1761824999519,"velocity":0.7244094488188977,"duration":0.08639701562503888},{"name":"B4","midi":71,"time":576.2644177499519,"velocity":0.7244094488188977,"duration":0.08639701562503888},{"name":"A#4","midi":70,"time":576.3526529999519,"velocity":0.7244094488188977,"duration":0.08639701562503888},{"name":"B4","midi":71,"time":576.440888249952,"velocity":0.7244094488188977,"duration":0.08639701562503888},{"name":"C#5","midi":73,"time":576.529123499952,"velocity":0.7244094488188977,"duration":0.17463226562495038},{"name":"B2","midi":47,"time":576.529123499952,"velocity":0.7244094488188977,"duration":0.17463226562495038},{"name":"F#4","midi":66,"time":576.7055939999519,"velocity":0.7244094488188977,"duration":0.5147056250000333},{"name":"A#2","midi":46,"time":576.7055939999519,"velocity":0.7244094488188977,"duration":0.5147056250000333},{"name":"G4","midi":67,"time":577.293828999952,"velocity":0.7244094488188977,"duration":0.35110276562511444},{"name":"D4","midi":62,"time":577.293828999952,"velocity":0.7244094488188977,"duration":0.35110276562511444},{"name":"B3","midi":59,"time":577.293828999952,"velocity":0.7244094488188977,"duration":0.35110276562511444},{"name":"B2","midi":47,"time":577.293828999952,"velocity":0.7244094488188977,"duration":0.11580876562504727},{"name":"E2","midi":40,"time":577.411475999952,"velocity":0.7244094488188977,"duration":1.1176465000000917},{"name":"A#2","midi":46,"time":577.470299499952,"velocity":0.7244094488188977,"duration":1.058823000000075},{"name":"C#3","midi":49,"time":577.529122999952,"velocity":0.7244094488188977,"duration":0.9999995000000581},{"name":"E3","midi":52,"time":577.5879464999521,"velocity":0.7244094488188977,"duration":0.9411760000000413},{"name":"A#3","midi":58,"time":577.6467699999521,"velocity":0.7244094488188977,"duration":0.8823525000000245},{"name":"C#4","midi":61,"time":577.7055934999521,"velocity":0.7244094488188977,"duration":0.8235290000000077},{"name":"F#4","midi":66,"time":577.7644169999521,"velocity":0.7244094488188977,"duration":0.17463226562495038},{"name":"E4","midi":64,"time":577.940887499952,"velocity":0.7244094488188977,"duration":0.08639701562503888},{"name":"G4","midi":67,"time":578.0291227499521,"velocity":0.7244094488188977,"duration":0.08639701562503888},{"name":"F#4","midi":66,"time":578.1173579999521,"velocity":0.7244094488188977,"duration":0.5147056250000333},{"name":"E5","midi":76,"time":578.6577989062022,"velocity":0.7244094488188977,"duration":0.1636028593750325},{"name":"G5","midi":79,"time":578.6577989062022,"velocity":0.7244094488188977,"duration":0.1636028593750325},{"name":"A#3","midi":58,"time":578.6577989062022,"velocity":0.7244094488188977,"duration":0.1636028593750325},{"name":"C#3","midi":49,"time":578.6577989062022,"velocity":0.7244094488188977,"duration":0.1636028593750325},{"name":"F#5","midi":78,"time":578.8232399999522,"velocity":0.7244094488188977,"duration":0.5312497343750238},{"name":"D5","midi":74,"time":578.8232399999522,"velocity":0.7244094488188977,"duration":0.5312497343750238},{"name":"D3","midi":50,"time":578.8232399999522,"velocity":0.7244094488188977,"duration":0.5312497343750238},{"name":"B3","midi":59,"time":578.8232399999522,"velocity":0.7244094488188977,"duration":0.5312497343750238},{"name":"C#5","midi":73,"time":579.3747103124522,"velocity":0.7244094488188977,"duration":0.15257345312500092},{"name":"E5","midi":76,"time":579.3747103124522,"velocity":0.7244094488188977,"duration":0.15257345312500092},{"name":"E3","midi":52,"time":579.3747103124522,"velocity":0.7244094488188977,"duration":0.15257345312500092},{"name":"C#4","midi":61,"time":579.3747103124522,"velocity":0.7244094488188977,"duration":0.15257345312500092},{"name":"B4","midi":71,"time":579.5291219999522,"velocity":0.7244094488188977,"duration":0.5680144218749774},{"name":"D5","midi":74,"time":579.5291219999522,"velocity":0.7244094488188977,"duration":0.5680144218749774},{"name":"F#3","midi":54,"time":579.5291219999522,"velocity":0.7244094488188977,"duration":0.5680144218749774},{"name":"D4","midi":62,"time":579.5291219999522,"velocity":0.7244094488188977,"duration":0.5680144218749774},{"name":"C#5","midi":73,"time":580.1173569999521,"velocity":0.7244094488188977,"duration":0.11580876562504727},{"name":"E4","midi":64,"time":580.1173569999521,"velocity":0.7244094488188977,"duration":0.11580876562504727},{"name":"G3","midi":55,"time":580.1173569999521,"velocity":0.7244094488188977,"duration":0.11580876562504727},{"name":"B4","midi":71,"time":580.2350039999521,"velocity":0.7244094488188977,"duration":0.23345576562496717},{"name":"G4","midi":67,"time":580.2350039999521,"velocity":0.7244094488188977,"duration":0.23345576562496717},{"name":"C#4","midi":61,"time":580.2350039999521,"velocity":0.7244094488188977,"duration":0.5569850156249458},{"name":"E3","midi":52,"time":580.2350039999521,"velocity":0.7244094488188977,"duration":0.6985290624999152},{"name":"A#4","midi":70,"time":580.4702979999521,"velocity":0.7244094488188977,"duration":0.32169101562499236},{"name":"B4","midi":71,"time":580.7938272499521,"velocity":0.7244094488188977,"duration":0.3124998437498334},{"name":"D4","midi":62,"time":580.7938272499521,"velocity":0.7244094488188977,"duration":0.14522051562494198},{"name":"F#4","midi":66,"time":580.940885999952,"velocity":0.7244094488188977,"duration":0.5147056250000333},{"name":"F#3","midi":54,"time":580.940885999952,"velocity":0.7244094488188977,"duration":0.6985290625000289},{"name":"B3","midi":59,"time":580.940885999952,"velocity":0.7244094488188977,"duration":0.049632328124971536},{"name":"A#3","midi":58,"time":580.992356562452,"velocity":0.7244094488188977,"duration":0.049632328124971536},{"name":"B3","midi":59,"time":581.0438271249519,"velocity":0.7244094488188977,"duration":0.049632328124971536},{"name":"A#3","midi":58,"time":581.0952976874519,"velocity":0.7244094488188977,"duration":0.3731615781251776},{"name":"C#5","midi":73,"time":581.1173564999519,"velocity":0.7244094488188977,"duration":0.08639701562503888},{"name":"D5","midi":74,"time":581.205591749952,"velocity":0.7244094488188977,"duration":0.08639701562503888},{"name":"E5","midi":76,"time":581.293826999952,"velocity":0.7244094488188977,"duration":0.08639701562503888},{"name":"D5","midi":74,"time":581.382062249952,"velocity":0.7244094488188977,"duration":0.08639701562503888},{"name":"C#5","midi":73,"time":581.470297499952,"velocity":0.7244094488188977,"duration":0.17463226562495038},{"name":"E4","midi":64,"time":581.470297499952,"velocity":0.7244094488188977,"duration":0.17463226562495038},{"name":"A#3","midi":58,"time":581.470297499952,"velocity":0.7244094488188977,"duration":0.17463226562495038},{"name":"E4","midi":64,"time":581.646767999952,"velocity":0.7244094488188977,"duration":0.6911761249999699},{"name":"C#5","midi":73,"time":581.646767999952,"velocity":0.7244094488188977,"duration":0.6911761249999699},{"name":"B2","midi":47,"time":581.646767999952,"velocity":0.7244094488188977,"duration":1.409925765624962},{"name":"F#3","midi":54,"time":581.646767999952,"velocity":0.7244094488188977,"duration":0.6893378906249836},{"name":"D#4","midi":63,"time":582.337944124952,"velocity":0.7244094488188977,"duration":1.056984765624975},{"name":"B4","midi":71,"time":582.337944124952,"velocity":0.7244094488188977,"duration":1.056984765624975},{"name":"B3","midi":59,"time":582.337944124952,"velocity":0.7244094488188977,"duration":1.4246316406249662},{"name":"D#4","midi":63,"time":583.7644139999519,"velocity":0.7244094488188977,"duration":0.5863967656250679},{"name":"B3","midi":59,"time":583.7644139999519,"velocity":0.7244094488188977,"duration":0.5863967656250679},{"name":"A3","midi":57,"time":583.7644139999519,"velocity":0.7244094488188977,"duration":0.7040437656251015},{"name":"D#3","midi":51,"time":583.7644139999519,"velocity":0.7244094488188977,"duration":0.7040437656251015},{"name":"B2","midi":47,"time":583.7644139999519,"velocity":0.7244094488188977,"duration":0.7040437656251015},{"name":"F#3","midi":54,"time":583.7644139999519,"velocity":0.7244094488188977,"duration":0.7040437656251015},{"name":"E4","midi":64,"time":583.8085316249519,"velocity":0.7244094488188977,"duration":0.05882350000001679},{"name":"F#4","midi":66,"time":583.8526492499519,"velocity":0.7244094488188977,"duration":0.4963232812500564},{"name":"F#4","midi":66,"time":584.352648999952,"velocity":0.7244094488188977,"duration":0.11580876562504727},{"name":"B3","midi":59,"time":584.470295999952,"velocity":0.7244094488188977,"duration":0.7040437656249878},{"name":"D#4","midi":63,"time":584.470295999952,"velocity":0.7244094488188977,"duration":0.7040437656249878},{"name":"F#4","midi":66,"time":584.470295999952,"velocity":0.7244094488188977,"duration":0.7040437656249878},{"name":"A3","midi":57,"time":584.470295999952,"velocity":0.7244094488188977,"duration":0.7040437656249878},{"name":"E3","midi":52,"time":584.470295999952,"velocity":0.7244094488188977,"duration":0.7040437656249878},{"name":"E4","midi":64,"time":585.176177999952,"velocity":0.7244094488188977,"duration":0.34926453125001444},{"name":"G4","midi":67,"time":585.176177999952,"velocity":0.7244094488188977,"duration":0.26286751562497557},{"name":"G3","midi":55,"time":585.176177999952,"velocity":0.7244094488188977,"duration":0.34926453125001444},{"name":"B4","midi":71,"time":585.4408837499519,"velocity":0.7244094488188977,"duration":0.08639701562503888},{"name":"B4","midi":71,"time":585.529118999952,"velocity":0.7244094488188977,"duration":0.08639701562503888},{"name":"A4","midi":69,"time":585.617354249952,"velocity":0.7244094488188977,"duration":0.08639701562503888},{"name":"B4","midi":71,"time":585.705589499952,"velocity":0.7244094488188977,"duration":0.17463226562495038},{"name":"D5","midi":74,"time":585.8820599999519,"velocity":0.7244094488188977,"duration":2.757351562500048},{"name":"G#4","midi":68,"time":586.058530499952,"velocity":0.7244094488188977,"duration":0.17463226562495038},{"name":"G#4","midi":68,"time":586.2350009999519,"velocity":0.7244094488188977,"duration":0.08639701562503888},{"name":"F#4","midi":66,"time":586.323236249952,"velocity":0.7244094488188977,"duration":0.08639701562503888},{"name":"G#4","midi":68,"time":586.411471499952,"velocity":0.7244094488188977,"duration":2.6654398437499367},{"name":"B4","midi":71,"time":586.587941999952,"velocity":0.7244094488188977,"duration":2.2058812499999476},{"name":"D4","midi":62,"time":586.7644124999521,"velocity":0.7244094488188977,"duration":0.17463226562495038},{"name":"D4","midi":62,"time":586.940882999952,"velocity":0.7244094488188977,"duration":0.08639701562503888},{"name":"C4","midi":60,"time":587.029118249952,"velocity":0.7244094488188977,"duration":0.08639701562503888},{"name":"D4","midi":62,"time":587.1173534999521,"velocity":0.7244094488188977,"duration":0.17463226562495038},{"name":"F4","midi":65,"time":587.293823999952,"velocity":0.7244094488188977,"duration":1.9687490156248941},{"name":"B3","midi":59,"time":587.470294499952,"velocity":0.7244094488188977,"duration":0.17463226562495038},{"name":"B3","midi":59,"time":587.646764999952,"velocity":0.7244094488188977,"duration":0.08639701562503888},{"name":"A3","midi":57,"time":587.735000249952,"velocity":0.7244094488188977,"duration":0.08639701562503888},{"name":"B3","midi":59,"time":587.823235499952,"velocity":0.7244094488188977,"duration":0.17463226562495038},{"name":"D4","midi":62,"time":587.999705999952,"velocity":0.7244094488188977,"duration":0.6985290625000289},{"name":"G#3","midi":56,"time":588.176176499952,"velocity":0.7244094488188977,"duration":0.17463226562495038},{"name":"G#3","midi":56,"time":588.352646999952,"velocity":0.7244094488188977,"duration":0.08639701562503888},{"name":"F#3","midi":54,"time":588.440882249952,"velocity":0.7244094488188977,"duration":0.08639701562503888},{"name":"G#3","midi":56,"time":588.529117499952,"velocity":0.7244094488188977,"duration":0.5147056249999196},{"name":"C3","midi":48,"time":588.705587999952,"velocity":0.7244094488188977,"duration":0.6985290624999152},{"name":"E4","midi":64,"time":589.2644112499519,"velocity":0.7244094488188977,"duration":0.14522051562494198},{"name":"A4","midi":69,"time":589.2644112499519,"velocity":0.7244094488188977,"duration":0.14522051562494198},{"name":"C5","midi":72,"time":589.2644112499519,"velocity":0.7244094488188977,"duration":0.14522051562494198},{"name":"A3","midi":57,"time":589.2644112499519,"velocity":0.7244094488188977,"duration":0.14522051562494198},{"name":"F4","midi":65,"time":589.4114699999518,"velocity":0.7244094488188977,"duration":0.538602671874969},{"name":"B4","midi":71,"time":589.4114699999518,"velocity":0.7244094488188977,"duration":0.538602671874969},{"name":"A3","midi":57,"time":589.4114699999518,"velocity":0.7244094488188977,"duration":0.538602671874969},{"name":"D3","midi":50,"time":589.4114699999518,"velocity":0.7244094488188977,"duration":0.538602671874969},{"name":"E4","midi":64,"time":589.9702932499517,"velocity":0.7244094488188977,"duration":0.14522051562505567},{"name":"D5","midi":74,"time":589.9702932499517,"velocity":0.7244094488188977,"duration":0.14522051562505567},{"name":"E3","midi":52,"time":589.9702932499517,"velocity":0.7244094488188977,"duration":0.14522051562505567},{"name":"G#3","midi":56,"time":589.9702932499517,"velocity":0.7244094488188977,"duration":0.14522051562505567},{"name":"B3","midi":59,"time":589.9702932499517,"velocity":0.7244094488188977,"duration":0.14522051562505567},{"name":"D4","midi":62,"time":590.1173519999518,"velocity":0.7244094488188977,"duration":0.5220585624999785},{"name":"A4","midi":69,"time":590.1173519999518,"velocity":0.7244094488188977,"duration":0.23345576562496717},{"name":"B3","midi":59,"time":590.1173519999518,"velocity":0.7244094488188977,"duration":0.5220585624999785},{"name":"F3","midi":53,"time":590.1173519999518,"velocity":0.7244094488188977,"duration":0.5220585624999785},{"name":"G#4","midi":68,"time":590.3526459999517,"velocity":0.7244094488188977,"duration":0.286764562500025},{"name":"F4","midi":65,"time":590.6596311405767,"velocity":0.7244094488188977,"duration":0.16176462500004618},{"name":"A4","midi":69,"time":590.6596311405767,"velocity":0.7244094488188977,"duration":0.16176462500004618},{"name":"D3","midi":50,"time":590.6596311405767,"velocity":0.7244094488188977,"duration":0.16176462500004618},{"name":"C4","midi":60,"time":590.6596311405767,"velocity":0.7244094488188977,"duration":0.16176462500004618},{"name":"E4","midi":64,"time":590.8232339999518,"velocity":0.7244094488188977,"duration":1.2555140781246337},{"name":"A4","midi":69,"time":590.8232339999518,"velocity":0.7244094488188977,"duration":0.7738966718750362},{"name":"B3","midi":59,"time":590.8232339999518,"velocity":0.7244094488188977,"duration":1.4099257656245072},{"name":"E3","midi":52,"time":590.8232339999518,"velocity":0.7244094488188977,"duration":1.4099257656245072},{"name":"G#4","midi":68,"time":591.5989689062018,"velocity":0.7244094488188977,"duration":0.06801467187494836},{"name":"A4","midi":69,"time":591.6688218124517,"velocity":0.7244094488188977,"duration":0.06801467187494836},{"name":"G#4","midi":68,"time":591.7386747187016,"velocity":0.7244094488188977,"duration":0.06801467187494836},{"name":"A4","midi":69,"time":591.8085276249516,"velocity":0.7244094488188977,"duration":0.06801467187494836},{"name":"G#4","midi":68,"time":591.8783805312015,"velocity":0.7244094488188977,"duration":0.06801467187494836},{"name":"F#4","midi":66,"time":591.9482334374514,"velocity":0.7244094488188977,"duration":0.06801467187494836},{"name":"G#4","midi":68,"time":592.0180863437014,"velocity":0.7244094488188977,"duration":0.06801467187494836},{"name":"F#4","midi":66,"time":592.0879392499513,"velocity":0.7244094488188977,"duration":0.06801467187494836},{"name":"E4","midi":64,"time":592.1577921562013,"velocity":0.7244094488188977,"duration":0.0753676093750073},{"name":"D4","midi":62,"time":592.2349979999512,"velocity":0.7244094488188977,"duration":0.7040437656248741},{"name":"B3","midi":59,"time":592.2349979999512,"velocity":0.7244094488188977,"duration":0.7040437656248741},{"name":"F4","midi":65,"time":592.2368362343262,"velocity":0.7244094488188977,"duration":0.7040437656248741},{"name":"B4","midi":71,"time":592.2386744687012,"velocity":0.7244094488188977,"duration":0.5863967656249542},{"name":"D5","midi":74,"time":592.2405127030762,"velocity":0.7244094488188977,"duration":0.5863967656249542},{"name":"F5","midi":77,"time":592.2423509374512,"velocity":0.7244094488188977,"duration":0.5753673593750364},{"name":"F5","midi":77,"time":592.8232329999512,"velocity":0.7244094488188977,"duration":0.11580876562493359},{"name":"F5","midi":77,"time":592.9408799999511,"velocity":0.7244094488188977,"duration":0.7040437656249878},{"name":"D5","midi":74,"time":592.9408799999511,"velocity":0.7244094488188977,"duration":0.7040437656249878},{"name":"B4","midi":71,"time":592.9408799999511,"velocity":0.7244094488188977,"duration":0.7040437656249878},{"name":"G#4","midi":68,"time":592.9408799999511,"velocity":0.7244094488188977,"duration":0.7040437656249878},{"name":"C4","midi":60,"time":592.9408799999511,"velocity":0.7244094488188977,"duration":1.056984765624975},{"name":"E5","midi":76,"time":593.6467619999511,"velocity":0.7244094488188977,"duration":1.409925765624962},{"name":"C5","midi":72,"time":593.6467619999511,"velocity":0.7244094488188977,"duration":0.1047793593750157},{"name":"A4","midi":69,"time":593.6467619999511,"velocity":0.7244094488188977,"duration":0.34926453125001444},{"name":"D5","midi":74,"time":593.7533795937011,"velocity":0.7244094488188977,"duration":0.08639701562503888},{"name":"C5","midi":72,"time":593.8416148437011,"velocity":0.7244094488188977,"duration":0.08639701562503888},{"name":"B4","midi":71,"time":593.9298500937011,"velocity":0.7244094488188977,"duration":0.08639701562492519},{"name":"C5","midi":72,"time":594.018085343701,"velocity":0.7244094488188977,"duration":0.16911756249999144},{"name":"A4","midi":69,"time":594.189041140576,"velocity":0.7244094488188977,"duration":0.16176462500004618},{"name":"A#4","midi":70,"time":594.352643999951,"velocity":0.7244094488188977,"duration":0.17463226562495038},{"name":"G4","midi":67,"time":594.529114499951,"velocity":0.7244094488188977,"duration":0.6158085156250763},{"name":"C#4","midi":61,"time":594.705584999951,"velocity":0.7244094488188977,"duration":0.8823525000001382},{"name":"E4","midi":64,"time":594.894923140576,"velocity":0.7244094488188977,"duration":0.16176462500004618},{"name":"F3","midi":53,"time":595.058525999951,"velocity":0.7244094488188977,"duration":1.4099257656251893},{"name":"A#4","midi":70,"time":595.146761249951,"velocity":0.7244094488188977,"duration":0.08639701562503888},{"name":"A4","midi":69,"time":595.2349964999511,"velocity":0.7244094488188977,"duration":0.08639701562503888},{"name":"G4","midi":67,"time":595.3232317499511,"velocity":0.7244094488188977,"duration":0.08639701562503888},{"name":"C#5","midi":73,"time":595.4114669999511,"velocity":0.7244094488188977,"duration":0.34926453125012813},{"name":"A#4","midi":70,"time":595.4997022499512,"velocity":0.7244094488188977,"duration":0.08639701562503888},{"name":"A4","midi":69,"time":595.5879374999512,"velocity":0.7244094488188977,"duration":0.08639701562503888},{"name":"E4","midi":64,"time":595.5879374999512,"velocity":0.7244094488188977,"duration":0.17463226562506406},{"name":"G4","midi":67,"time":595.6761727499512,"velocity":0.7244094488188977,"duration":0.08639701562503888},{"name":"F4","midi":65,"time":595.7644079999512,"velocity":0.7244094488188977,"duration":0.34926453125001444},{"name":"A3","midi":57,"time":595.7644079999512,"velocity":0.7244094488188977,"duration":0.7040437656249878},{"name":"G4","midi":67,"time":595.8526432499513,"velocity":0.7244094488188977,"duration":0.08639701562503888},{"name":"A4","midi":69,"time":595.9408784999513,"velocity":0.7244094488188977,"duration":0.34926453124990076},{"name":"D5","midi":74,"time":596.1173489999512,"velocity":0.7244094488188977,"duration":0.26286751562497557},{"name":"B4","midi":71,"time":596.3820547499512,"velocity":0.7244094488188977,"duration":0.30698514062510185},{"name":"F#3","midi":54,"time":596.4702899999512,"velocity":0.7244094488188977,"duration":0.6985290625000289},{"name":"A3","midi":57,"time":596.5254370312012,"velocity":0.7244094488188977,"duration":0.6433820312499847},{"name":"C4","midi":60,"time":596.5805840624513,"velocity":0.7244094488188977,"duration":0.5882349999999406},{"name":"D#4","midi":63,"time":596.6357310937013,"velocity":0.7244094488188977,"duration":0.5330879687498964},{"name":"F#4","midi":66,"time":596.6908781249513,"velocity":0.7244094488188977,"duration":0.4779409374999659},{"name":"A4","midi":69,"time":596.7460251562013,"velocity":0.7244094488188977,"duration":0.42279390624992175},{"name":"C5","midi":72,"time":596.8011721874514,"velocity":0.7244094488188977,"duration":0.2205881249999493},{"name":"C5","midi":72,"time":597.0585249999513,"velocity":0.7244094488188977,"duration":0.11580876562493359},{"name":"C5","midi":72,"time":597.1761719999512,"velocity":0.7244094488188977,"duration":0.7040437656251015},{"name":"A4","midi":69,"time":597.1761719999512,"velocity":0.7244094488188977,"duration":0.7040437656251015},{"name":"F#4","midi":66,"time":597.1761719999512,"velocity":0.7244094488188977,"duration":0.7040437656251015},{"name":"D#4","midi":63,"time":597.1761719999512,"velocity":0.7244094488188977,"duration":0.5275732656250511},{"name":"G3","midi":55,"time":597.1761719999512,"velocity":0.7244094488188977,"duration":1.4099257656251893},{"name":"E4","midi":64,"time":597.7055834999512,"velocity":0.7244094488188977,"duration":0.08639701562503888},{"name":"D#4","midi":63,"time":597.7938187499512,"velocity":0.7244094488188977,"duration":0.08639701562503888},{"name":"B4","midi":71,"time":597.8820539999513,"velocity":0.7244094488188977,"duration":2.022057812500293},{"name":"G4","midi":67,"time":597.8820539999513,"velocity":0.7244094488188977,"duration":0.08639701562503888},{"name":"E4","midi":64,"time":597.8820539999513,"velocity":0.7244094488188977,"duration":0.34926453125012813},{"name":"A4","midi":69,"time":597.9702892499513,"velocity":0.7244094488188977,"duration":0.08639701562503888},{"name":"G4","midi":67,"time":598.0585244999513,"velocity":0.7244094488188977,"duration":0.08639701562503888},{"name":"F#4","midi":66,"time":598.1467597499513,"velocity":0.7244094488188977,"duration":0.08639701562503888},{"name":"G4","midi":67,"time":598.2349949999514,"velocity":0.7244094488188977,"duration":0.17463226562495038},{"name":"F#4","midi":66,"time":598.4114654999513,"velocity":0.7244094488188977,"duration":0.08639701562503888},{"name":"E4","midi":64,"time":598.4997007499513,"velocity":0.7244094488188977,"duration":0.08639701562503888},{"name":"D4","midi":62,"time":598.5879359999514,"velocity":0.7244094488188977,"duration":0.6985290625001426},{"name":"E4","midi":64,"time":598.6761712499514,"velocity":0.7244094488188977,"duration":0.08639701562503888},{"name":"F4","midi":65,"time":598.7644064999514,"velocity":0.7244094488188977,"duration":0.6158085156250763},{"name":"B3","midi":59,"time":598.7644064999514,"velocity":0.7244094488188977,"duration":0.08639701562503888},{"name":"A3","midi":57,"time":598.8526417499514,"velocity":0.7244094488188977,"duration":0.08639701562503888},{"name":"G#3","midi":56,"time":598.9408769999515,"velocity":0.7244094488188977,"duration":0.5147056250000333},{"name":"A3","midi":57,"time":599.0291122499515,"velocity":0.7244094488188977,"duration":0.08639701562503888},{"name":"B3","midi":59,"time":599.1173474999515,"velocity":0.7244094488188977,"duration":0.17463226562495038},{"name":"C3","midi":48,"time":599.2938179999514,"velocity":0.7244094488188977,"duration":1.1562494218751453},{"name":"D4","midi":62,"time":599.3820532499515,"velocity":0.7244094488188977,"duration":0.08639701562503888},{"name":"C4","midi":60,"time":599.4702884999515,"velocity":0.7244094488188977,"duration":0.08639701562503888},{"name":"B3","midi":59,"time":599.5585237499515,"velocity":0.7244094488188977,"duration":0.08639701562503888},{"name":"C4","midi":60,"time":599.6467589999515,"velocity":0.7244094488188977,"duration":0.26286751562497557},{"name":"A3","midi":57,"time":599.6467589999515,"velocity":0.7244094488188977,"duration":0.7904407812500267},{"name":"E4","midi":64,"time":599.9114647499515,"velocity":0.7244094488188977,"duration":0.08639701562503888},{"name":"A4","midi":69,"time":599.9996999999515,"velocity":0.7244094488188977,"duration":0.2077204843750451},{"name":"B4","midi":71,"time":600.2092587187016,"velocity":0.7244094488188977,"duration":0.04595585937499891},{"name":"A4","midi":69,"time":600.2570528124515,"velocity":0.7244094488188977,"duration":0.04595585937499891},{"name":"G#4","midi":68,"time":600.3048469062015,"velocity":0.7244094488188977,"duration":0.04595585937499891},{"name":"A4","midi":69,"time":600.3526409999515,"velocity":0.7244094488188977,"duration":0.17463226562506406},{"name":"E4","midi":64,"time":600.5291114999516,"velocity":0.7244094488188977,"duration":0.08639701562503888},{"name":"G#3","midi":56,"time":600.5291114999516,"velocity":0.7244094488188977,"duration":0.17463226562506406},{"name":"E3","midi":52,"time":600.5291114999516,"velocity":0.7244094488188977,"duration":0.17463226562506406},{"name":"B4","midi":71,"time":600.6173467499516,"velocity":0.7244094488188977,"duration":0.08639701562503888},{"name":"C5","midi":72,"time":600.7055819999516,"velocity":0.7244094488188977,"duration":0.21874989062496297},{"name":"A3","midi":57,"time":600.7055819999516,"velocity":0.7244094488188977,"duration":1.2316170312499253},{"name":"D5","midi":74,"time":600.9261701249516,"velocity":0.7244094488188977,"duration":0.04227939062502628},{"name":"C5","midi":72,"time":600.9702877499516,"velocity":0.7244094488188977,"duration":0.04227939062502628},{"name":"B4","midi":71,"time":601.0144053749516,"velocity":0.7244094488188977,"duration":0.04227939062502628},{"name":"C5","midi":72,"time":601.0585229999516,"velocity":0.7244094488188977,"duration":0.17463226562495038},{"name":"A4","midi":69,"time":601.2349934999515,"velocity":0.7244094488188977,"duration":0.08639701562503888},{"name":"G3","midi":55,"time":601.2349934999515,"velocity":0.7244094488188977,"duration":0.17463226562506406},{"name":"C#5","midi":73,"time":601.3232287499516,"velocity":0.7244094488188977,"duration":0.08639701562503888},{"name":"D5","midi":74,"time":601.4114639999516,"velocity":0.7244094488188977,"duration":0.21874989062496297},{"name":"F3","midi":53,"time":601.4114639999516,"velocity":0.7244094488188977,"duration":0.5275732656249374},{"name":"E5","midi":76,"time":601.6320521249515,"velocity":0.7244094488188977,"duration":0.04227939062502628},{"name":"D5","midi":74,"time":601.6761697499516,"velocity":0.7244094488188977,"duration":0.04227939062502628},{"name":"C#5","midi":73,"time":601.7202873749516,"velocity":0.7244094488188977,"duration":0.04227939062502628},{"name":"D5","midi":74,"time":601.7644049999516,"velocity":0.7244094488188977,"duration":0.17463226562495038},{"name":"A4","midi":69,"time":601.9408754999515,"velocity":0.7244094488188977,"duration":0.08639701562503888},{"name":"C#4","midi":61,"time":601.9408754999515,"velocity":0.7244094488188977,"duration":0.17463226562506406},{"name":"A3","midi":57,"time":601.9408754999515,"velocity":0.7244094488188977,"duration":0.17463226562506406},{"name":"E5","midi":76,"time":602.0291107499515,"velocity":0.7244094488188977,"duration":0.08639701562503888},{"name":"F5","midi":77,"time":602.1173459999516,"velocity":0.7244094488188977,"duration":0.21874989062496297},{"name":"D4","midi":62,"time":602.1173459999516,"velocity":0.7244094488188977,"duration":1.7647049999999354},{"name":"G5","midi":79,"time":602.3379341249515,"velocity":0.7244094488188977,"duration":0.04227939062502628},{"name":"F5","midi":77,"time":602.3820517499515,"velocity":0.7244094488188977,"duration":0.04227939062502628},{"name":"E5","midi":76,"time":602.4261693749515,"velocity":0.7244094488188977,"duration":0.04227939062502628},{"name":"F5","midi":77,"time":602.4702869999516,"velocity":0.7244094488188977,"duration":0.17463226562495038},{"name":"D5","midi":74,"time":602.6467574999515,"velocity":0.7244094488188977,"duration":0.08639701562503888},{"name":"C4","midi":60,"time":602.6467574999515,"velocity":0.7244094488188977,"duration":0.17463226562506406},{"name":"F#5","midi":78,"time":602.7349927499515,"velocity":0.7244094488188977,"duration":0.08639701562503888},{"name":"G#5","midi":80,"time":602.8232279999515,"velocity":0.7244094488188977,"duration":0.21874989062496297},{"name":"B3","midi":59,"time":602.8232279999515,"velocity":0.7244094488188977,"duration":0.5275732656249374},{"name":"A5","midi":81,"time":603.0438161249515,"velocity":0.7244094488188977,"duration":0.04227939062502628},{"name":"G#5","midi":80,"time":603.0879337499515,"velocity":0.7244094488188977,"duration":0.04227939062502628},{"name":"F#5","midi":78,"time":603.1320513749515,"velocity":0.7244094488188977,"duration":0.04227939062502628},{"name":"G#5","midi":80,"time":603.1761689999515,"velocity":0.7244094488188977,"duration":0.17463226562495038},{"name":"D5","midi":74,"time":603.3526394999515,"velocity":0.7244094488188977,"duration":0.08639701562503888},{"name":"A3","midi":57,"time":603.3526394999515,"velocity":0.7244094488188977,"duration":0.17463226562506406},{"name":"A5","midi":81,"time":603.4408747499515,"velocity":0.7244094488188977,"duration":0.08639701562503888},{"name":"A5","midi":81,"time":603.5291099999515,"velocity":0.7244094488188977,"duration":0.29227926562498396},{"name":"G#3","midi":56,"time":603.5291099999515,"velocity":0.7244094488188977,"duration":0.6249996875000079},{"name":"B5","midi":83,"time":603.8232274999515,"velocity":0.7244094488188977,"duration":0.23345576562508086},{"name":"C4","midi":60,"time":603.9702862499515,"velocity":0.7244094488188977,"duration":0.08639701562503888},{"name":"F5","midi":77,"time":604.0585214999516,"velocity":0.7244094488188977,"duration":0.17463226562495038},{"name":"B3","midi":59,"time":604.0585214999516,"velocity":0.7244094488188977,"duration":0.08639701562503888},{"name":"A3","midi":57,"time":604.1467567499516,"velocity":0.7244094488188977,"duration":0.08639701562492519},{"name":"F5","midi":77,"time":604.2349919999515,"velocity":0.7244094488188977,"duration":0.23345576562508086},{"name":"A3","midi":57,"time":604.2349919999515,"velocity":0.7244094488188977,"duration":0.05698526562503048},{"name":"G#3","midi":56,"time":604.2938154999515,"velocity":0.7244094488188977,"duration":0.05698526562503048},{"name":"A3","midi":57,"time":604.3526389999515,"velocity":0.7244094488188977,"duration":0.05698526562503048},{"name":"G#3","midi":56,"time":604.4114624999515,"velocity":0.7244094488188977,"duration":0.325367484374965},{"name":"E5","midi":76,"time":604.4702859999516,"velocity":0.7244094488188977,"duration":0.2665439843749482},{"name":"F5","midi":77,"time":604.7386682187015,"velocity":0.7244094488188977,"duration":0.09926465625005676},{"name":"E3","midi":52,"time":604.7386682187015,"velocity":0.7244094488188977,"duration":0.20036754687509983},{"name":"G#3","midi":56,"time":604.7386682187015,"velocity":0.7244094488188977,"duration":0.20036754687509983},{"name":"E4","midi":64,"time":604.7386682187015,"velocity":0.7244094488188977,"duration":0.20036754687509983},{"name":"D5","midi":74,"time":604.8397711093265,"velocity":0.7244094488188977,"duration":0.09926465625005676},{"name":"C5","midi":72,"time":604.9408739999516,"velocity":0.7244094488188977,"duration":0.21507342187499034},{"name":"A3","midi":57,"time":604.9408739999516,"velocity":0.7244094488188977,"duration":0.4944850468749564},{"name":"E5","midi":76,"time":605.1577856562016,"velocity":0.7244094488188977,"duration":0.04595585937499891},{"name":"D5","midi":74,"time":605.2055797499515,"velocity":0.7244094488188977,"duration":0.04595585937499891},{"name":"C5","midi":72,"time":605.2533738437015,"velocity":0.7244094488188977,"duration":0.06433820312497573},{"name":"D5","midi":74,"time":605.3195502812015,"velocity":0.7244094488188977,"duration":0.11580876562504727},{"name":"E5","midi":76,"time":605.4371972812015,"velocity":0.7244094488188977,"duration":0.10294112500002939},{"name":"B3","midi":59,"time":605.4371972812015,"velocity":0.7244094488188977,"duration":0.2077204843750451},{"name":"G3","midi":55,"time":605.4371972812015,"velocity":0.7244094488188977,"duration":0.2077204843750451},{"name":"F5","midi":77,"time":605.5419766405765,"velocity":0.7244094488188977,"duration":0.10294112500002939},{"name":"D4","midi":62,"time":605.6467559999516,"velocity":0.7244094488188977,"duration":0.5404409062499553},{"name":"A4","midi":69,"time":605.6467559999516,"velocity":0.7244094488188977,"duration":0.23345576562496717},{"name":"B3","midi":59,"time":605.6467559999516,"velocity":0.7244094488188977,"duration":0.5404409062499553},{"name":"F3","midi":53,"time":605.6467559999516,"velocity":0.7244094488188977,"duration":0.5404409062499553},{"name":"G#4","midi":68,"time":605.8820499999515,"velocity":0.7244094488188977,"duration":0.30514690625000185},{"name":"F4","midi":65,"time":606.1890351405765,"velocity":0.7244094488188977,"duration":0.16176462500004618},{"name":"A4","midi":69,"time":606.1890351405765,"velocity":0.7244094488188977,"duration":0.16176462500004618},{"name":"C4","midi":60,"time":606.1890351405765,"velocity":0.7244094488188977,"duration":0.16176462500004618},{"name":"D3","midi":50,"time":606.1890351405765,"velocity":0.7244094488188977,"duration":0.16176462500004618},{"name":"B4","midi":71,"time":606.3526379999515,"velocity":0.7244094488188977,"duration":0.08639701562503888},{"name":"F4","midi":65,"time":606.3526379999515,"velocity":0.7244094488188977,"duration":0.540440906250069},{"name":"E3","midi":52,"time":606.3526379999515,"velocity":0.7244094488188977,"duration":1.4099257656251893},{"name":"A3","midi":57,"time":606.3526379999515,"velocity":0.7244094488188977,"duration":0.7040437656251015},{"name":"C5","midi":72,"time":606.4408732499516,"velocity":0.7244094488188977,"duration":0.08639701562503888},{"name":"D5","midi":74,"time":606.5291084999516,"velocity":0.7244094488188977,"duration":0.36397040625001864},{"name":"E4","midi":64,"time":606.8949171405766,"velocity":0.7244094488188977,"duration":0.16176462500004618},{"name":"C5","midi":72,"time":606.8949171405766,"velocity":0.7244094488188977,"duration":0.16176462500004618},{"name":"C5","midi":72,"time":607.0585199999516,"velocity":0.7244094488188977,"duration":0.11580876562504727},{"name":"D4","midi":62,"time":607.0585199999516,"velocity":0.7244094488188977,"duration":0.540440906250069},{"name":"G#3","midi":56,"time":607.0585199999516,"velocity":0.7244094488188977,"duration":0.7040437656251015},{"name":"B4","midi":71,"time":607.1761669999516,"velocity":0.7244094488188977,"duration":0.05698526562503048},{"name":"C5","midi":72,"time":607.2349904999517,"velocity":0.7244094488188977,"duration":0.05698526562503048},{"name":"B4","midi":71,"time":607.2938139999517,"velocity":0.7244094488188977,"duration":0.05698526562503048},{"name":"C5","midi":72,"time":607.3526374999517,"velocity":0.7244094488188977,"duration":0.05698526562503048},{"name":"B4","midi":71,"time":607.4114609999517,"velocity":0.7244094488188977,"duration":0.18749990624996826},{"name":"C4","midi":60,"time":607.6007991405767,"velocity":0.7244094488188977,"duration":0.16176462500004618},{"name":"A4","midi":69,"time":607.6007991405767,"velocity":0.7244094488188977,"duration":0.16176462500004618},{"name":"C4","midi":60,"time":607.7644019999517,"velocity":0.7244094488188977,"duration":1.2077199843752169},{"name":"A4","midi":69,"time":607.7644019999517,"velocity":0.7244094488188977,"duration":1.2077199843752169},{"name":"E4","midi":64,"time":607.7644019999517,"velocity":0.7244094488188977,"duration":1.2077199843752169},{"name":"A3","midi":57,"time":607.7644019999517,"velocity":0.7244094488188977,"duration":1.3970581250002851},{"name":"F3","midi":53,"time":608.2055782499517,"velocity":0.7244094488188977,"duration":0.08639701562503888},{"name":"E3","midi":52,"time":608.2938134999517,"velocity":0.7244094488188977,"duration":0.08639701562503888},{"name":"D3","midi":50,"time":608.3820487499518,"velocity":0.7244094488188977,"duration":0.08639701562503888},{"name":"E3","midi":52,"time":608.4702839999518,"velocity":0.7244094488188977,"duration":0.08639701562503888},{"name":"D3","midi":50,"time":608.5585192499518,"velocity":0.7244094488188977,"duration":0.08639701562503888},{"name":"C3","midi":48,"time":608.6467544999518,"velocity":0.7244094488188977,"duration":0.08639701562503888},{"name":"D3","midi":50,"time":608.7349897499519,"velocity":0.7244094488188977,"duration":0.08639701562503888},{"name":"E3","midi":52,"time":608.8232249999519,"velocity":0.7244094488188977,"duration":0.08639701562503888},{"name":"C3","midi":48,"time":608.9114602499519,"velocity":0.7244094488188977,"duration":0.08639701562503888},{"name":"D3","midi":50,"time":608.9996954999519,"velocity":0.7244094488188977,"duration":0.08639701562503888},{"name":"E3","midi":52,"time":609.087930749952,"velocity":0.7244094488188977,"duration":0.08639701562503888},{"name":"C5","midi":72,"time":609.176165999952,"velocity":0.7244094488188977,"duration":0.5569850156249458},{"name":"A4","midi":69,"time":609.176165999952,"velocity":0.7244094488188977,"duration":0.6617643749999615},{"name":"C4","midi":60,"time":609.176165999952,"velocity":0.7244094488188977,"duration":0.6617643749999615},{"name":"E4","midi":64,"time":609.176165999952,"velocity":0.7244094488188977,"duration":0.6617643749999615},{"name":"A3","midi":57,"time":609.176165999952,"velocity":0.7244094488188977,"duration":0.5569850156249458},{"name":"A2","midi":45,"time":609.176165999952,"velocity":0.7244094488188977,"duration":0.6801467187499384},{"name":"E3","midi":52,"time":609.176165999952,"velocity":0.7244094488188977,"duration":0.6801467187499384},{"name":"C3","midi":48,"time":609.176165999952,"velocity":0.7244094488188977,"duration":0.6801467187499384},{"name":"C5","midi":72,"time":609.7349892499519,"velocity":0.7244094488188977,"duration":0.14522051562505567},{"name":"A3","midi":57,"time":609.7349892499519,"velocity":0.7244094488188977,"duration":0.14522051562505567},{"name":"C5","midi":72,"time":609.882047999952,"velocity":0.7244094488188977,"duration":0.19669107812501352},{"name":"F#4","midi":66,"time":609.882047999952,"velocity":0.7244094488188977,"duration":1.409925765624962},{"name":"A3","midi":57,"time":609.882047999952,"velocity":0.7244094488188977,"duration":1.409925765624962},{"name":"D#3","midi":51,"time":609.882047999952,"velocity":0.7244094488188977,"duration":1.409925765624962},{"name":"D5","midi":74,"time":610.080577312452,"velocity":0.7244094488188977,"duration":0.049632328124971536},{"name":"C5","midi":72,"time":610.1320478749519,"velocity":0.7244094488188977,"duration":0.049632328124971536},{"name":"B4","midi":71,"time":610.1835184374519,"velocity":0.7244094488188977,"duration":0.049632328124971536},{"name":"C5","midi":72,"time":610.2349889999518,"velocity":0.7244094488188977,"duration":0.08639701562503888},{"name":"A4","midi":69,"time":610.3232242499519,"velocity":0.7244094488188977,"duration":0.08639701562503888},{"name":"B4","midi":71,"time":610.4114594999519,"velocity":0.7244094488188977,"duration":0.17463226562495038},{"name":"B4","midi":71,"time":610.5879299999518,"velocity":0.7244094488188977,"duration":0.43933801562502595},{"name":"C#5","midi":73,"time":611.0291062499518,"velocity":0.7244094488188977,"duration":0.08639701562503888},{"name":"D#5","midi":75,"time":611.1173414999519,"velocity":0.7244094488188977,"duration":0.08639701562503888},{"name":"E5","midi":76,"time":611.2055767499519,"velocity":0.7244094488188977,"duration":0.08639701562503888},{"name":"F#5","midi":78,"time":611.2938119999519,"velocity":0.7244094488188977,"duration":0.08639701562503888},{"name":"G5","midi":79,"time":611.3820472499519,"velocity":0.7244094488188977,"duration":0.08639701562503888},{"name":"A5","midi":81,"time":611.470282499952,"velocity":0.7244094488188977,"duration":0.17463226562495038},{"name":"A5","midi":81,"time":611.6467529999519,"velocity":0.7244094488188977,"duration":0.05698526562503048},{"name":"G5","midi":79,"time":611.7055764999519,"velocity":0.7244094488188977,"duration":0.05698526562503048},{"name":"A5","midi":81,"time":611.7643999999519,"velocity":0.7244094488188977,"duration":0.05698526562503048},{"name":"G5","midi":79,"time":611.823223499952,"velocity":0.7244094488188977,"duration":0.08639701562503888},{"name":"F#5","midi":78,"time":611.911458749952,"velocity":0.7244094488188977,"duration":0.08639701562503888},{"name":"F#5","midi":78,"time":611.999693999952,"velocity":0.7244094488188977,"duration":0.17463226562495038},{"name":"E3","midi":52,"time":611.999693999952,"velocity":0.7244094488188977,"duration":1.409925765624962},{"name":"G3","midi":55,"time":612.003370468702,"velocity":0.7244094488188977,"duration":1.409925765624962},{"name":"B3","midi":59,"time":612.007046937452,"velocity":0.7244094488188977,"duration":1.409925765624962},{"name":"E4","midi":64,"time":612.0107234062019,"velocity":0.7244094488188977,"duration":1.409925765624962},{"name":"G5","midi":79,"time":612.1761644999519,"velocity":0.7244094488188977,"duration":0.26286751562497557},{"name":"F#5","midi":78,"time":612.4408702499519,"velocity":0.7244094488188977,"duration":0.08639701562503888},{"name":"E5","midi":76,"time":612.5291054999519,"velocity":0.7244094488188977,"duration":0.08639701562503888},{"name":"D#5","midi":75,"time":612.617340749952,"velocity":0.7244094488188977,"duration":0.08639701562503888},{"name":"E5","midi":76,"time":612.705575999952,"velocity":0.7244094488188977,"duration":0.17463226562495038},{"name":"G5","midi":79,"time":612.8820464999519,"velocity":0.7244094488188977,"duration":0.08639701562503888},{"name":"A#4","midi":70,"time":612.9702817499519,"velocity":0.7244094488188977,"duration":0.08639701562503888},{"name":"B4","midi":71,"time":613.058516999952,"velocity":0.7244094488188977,"duration":0.17463226562495038},{"name":"E5","midi":76,"time":613.2349874999519,"velocity":0.7244094488188977,"duration":0.08639701562503888},{"name":"F#4","midi":66,"time":613.3232227499519,"velocity":0.7244094488188977,"duration":0.08639701562503888},{"name":"G4","midi":67,"time":613.411457999952,"velocity":0.7244094488188977,"duration":0.17463226562495038},{"name":"B4","midi":71,"time":613.5879284999519,"velocity":0.7244094488188977,"duration":0.08639701562503888},{"name":"D#4","midi":63,"time":613.6761637499519,"velocity":0.7244094488188977,"duration":0.08639701562503888},{"name":"E4","midi":64,"time":613.7643989999519,"velocity":0.7244094488188977,"duration":0.17463226562495038},{"name":"G4","midi":67,"time":613.9408694999519,"velocity":0.7244094488188977,"duration":0.08639701562503888},{"name":"B3","midi":59,"time":614.0291047499519,"velocity":0.7244094488188977,"duration":0.08455878125005256},{"name":"B3","midi":59,"time":614.1173399999519,"velocity":0.7244094488188977,"duration":0.23345576562496717},{"name":"C#3","midi":49,"time":614.1173399999519,"velocity":0.7244094488188977,"duration":1.1764700000001085},{"name":"E3","midi":52,"time":614.1173399999519,"velocity":0.7244094488188977,"duration":1.1764700000001085},{"name":"A#3","midi":58,"time":614.3526339999519,"velocity":0.7244094488188977,"duration":0.9503671718752003},{"name":"F#5","midi":78,"time":614.6467514999518,"velocity":0.7244094488188977,"duration":0.08639701562503888},{"name":"G5","midi":79,"time":614.7349867499519,"velocity":0.7244094488188977,"duration":0.08639701562503888},{"name":"A5","midi":81,"time":614.8232219999519,"velocity":0.7244094488188977,"duration":0.05698526562503048},{"name":"G5","midi":79,"time":614.8820454999519,"velocity":0.7244094488188977,"duration":0.05698526562503048},{"name":"A5","midi":81,"time":614.9408689999519,"velocity":0.7244094488188977,"duration":0.05698526562503048},{"name":"G5","midi":79,"time":614.999692499952,"velocity":0.7244094488188977,"duration":0.05698526562503048},{"name":"A5","midi":81,"time":615.058515999952,"velocity":0.7244094488188977,"duration":0.05698526562503048},{"name":"G5","midi":79,"time":615.117339499952,"velocity":0.7244094488188977,"duration":0.05698526562503048},{"name":"A5","midi":81,"time":615.176162999952,"velocity":0.7244094488188977,"duration":0.05698526562503048},{"name":"G5","midi":79,"time":615.234986499952,"velocity":0.7244094488188977,"duration":0.05698526562503048},{"name":"A5","midi":81,"time":615.293809999952,"velocity":0.7244094488188977,"duration":0.05698526562503048},{"name":"G5","midi":79,"time":615.352633499952,"velocity":0.7244094488188977,"duration":0.05698526562503048},{"name":"A3","midi":57,"time":615.352633499952,"velocity":0.7244094488188977,"duration":0.17463226562506406},{"name":"C3","midi":48,"time":615.352633499952,"velocity":0.7244094488188977,"duration":0.17463226562506406},{"name":"E3","midi":52,"time":615.352633499952,"velocity":0.7244094488188977,"duration":0.17463226562506406},{"name":"F#5","midi":78,"time":615.4114569999521,"velocity":0.7244094488188977,"duration":0.05698526562503048},{"name":"G5","midi":79,"time":615.4702804999521,"velocity":0.7244094488188977,"duration":0.05698526562503048},{"name":"A5","midi":81,"time":615.5291039999521,"velocity":0.7244094488188977,"duration":0.053308796874944164},{"name":"A3","midi":57,"time":615.5291039999521,"velocity":0.7244094488188977,"duration":0.5091909218743922},{"name":"E3","midi":52,"time":615.5291039999521,"velocity":0.7244094488188977,"duration":0.5091909218743922},{"name":"C3","midi":48,"time":615.5291039999521,"velocity":0.7244094488188977,"duration":0.5091909218743922},{"name":"G5","midi":79,"time":615.584251031202,"velocity":0.7244094488188977,"duration":0.053308796874944164},{"name":"A5","midi":81,"time":615.639398062452,"velocity":0.7244094488188977,"duration":0.053308796874944164},{"name":"G5","midi":79,"time":615.6945450937019,"velocity":0.7244094488188977,"duration":0.053308796874944164},{"name":"A5","midi":81,"time":615.7496921249518,"velocity":0.7244094488188977,"duration":0.053308796874944164},{"name":"G5","midi":79,"time":615.8048391562018,"velocity":0.7244094488188977,"duration":0.053308796874944164},{"name":"A5","midi":81,"time":615.8599861874517,"velocity":0.7244094488188977,"duration":0.053308796874944164},{"name":"G5","midi":79,"time":615.9151332187016,"velocity":0.7244094488188977,"duration":0.053308796874944164},{"name":"A5","midi":81,"time":615.9702802499515,"velocity":0.7244094488188977,"duration":0.053308796874944164},{"name":"G5","midi":79,"time":616.0254272812015,"velocity":0.7244094488188977,"duration":0.053308796874944164},{"name":"A#3","midi":58,"time":616.0585154999515,"velocity":0.7244094488188977,"duration":0.1746322656248367},{"name":"E3","midi":52,"time":616.0585154999515,"velocity":0.7244094488188977,"duration":0.1746322656248367},{"name":"C3","midi":48,"time":616.0585154999515,"velocity":0.7244094488188977,"duration":0.1746322656248367},{"name":"F#5","midi":78,"time":616.0805743124514,"velocity":0.7244094488188977,"duration":0.053308796874944164},{"name":"G5","midi":79,"time":616.1357213437013,"velocity":0.7244094488188977,"duration":0.053308796874944164},{"name":"A5","midi":81,"time":616.1908683749513,"velocity":0.7244094488188977,"duration":0.04227939062502628},{"name":"E5","midi":76,"time":616.2349859999513,"velocity":0.7244094488188977,"duration":0.35110276562500076},{"name":"F#3","midi":54,"time":616.2349859999513,"velocity":0.7244094488188977,"duration":0.6985290624999152},{"name":"B3","midi":59,"time":616.2349859999513,"velocity":0.7244094488188977,"duration":0.6985290624999152},{"name":"B2","midi":47,"time":616.2349859999513,"velocity":0.7244094488188977,"duration":0.6985290624999152},{"name":"D#5","midi":75,"time":616.5879269999513,"velocity":0.7244094488188977,"duration":0.26286751562497557},{"name":"C#5","midi":73,"time":616.8526327499512,"velocity":0.7244094488188977,"duration":0.08639701562492519},{"name":"D#5","midi":75,"time":616.9408679999511,"velocity":0.7244094488188977,"duration":0.04044115625003997},{"name":"B4","midi":71,"time":616.9831473905762,"velocity":0.7244094488188977,"duration":0.04595585937499891},{"name":"C#5","midi":73,"time":617.0309414843261,"velocity":0.7244094488188977,"duration":0.04779409374998522},{"name":"D#5","midi":75,"time":617.0805738124511,"velocity":0.7244094488188977,"duration":0.049632328124971536},{"name":"E5","midi":76,"time":617.1320443749511,"velocity":0.7244094488188977,"duration":0.04779409374998522},{"name":"F#5","midi":78,"time":617.181676703076,"velocity":0.7244094488188977,"duration":0.04779409374998522},{"name":"G5","midi":79,"time":617.231309031201,"velocity":0.7244094488188977,"duration":0.04595585937499891},{"name":"A5","midi":81,"time":617.279103124951,"velocity":0.7244094488188977,"duration":0.044117625000012595},{"name":"A5","midi":81,"time":617.328735453076,"velocity":0.7244094488188977,"duration":0.06433820312497573},{"name":"G5","midi":79,"time":617.3949118905759,"velocity":0.7244094488188977,"duration":0.06249996874998942},{"name":"A5","midi":81,"time":617.4592500937009,"velocity":0.7244094488188977,"duration":0.06617643749996205},{"name":"G5","midi":79,"time":617.5272647655759,"velocity":0.7244094488188977,"duration":0.09558818749997045},{"name":"F#5","midi":78,"time":617.6246911874508,"velocity":0.7244094488188977,"duration":0.09742642187495676},{"name":"G5","midi":79,"time":617.7239558437008,"velocity":0.7244094488188977,"duration":0.6985290624999152},{"name":"D#5","midi":75,"time":617.8213822655757,"velocity":0.7244094488188977,"duration":0.10110289062504307},{"name":"E5","midi":76,"time":617.9243233905758,"velocity":0.7244094488188977,"duration":0.5147056249999196},{"name":"B4","midi":71,"time":618.0180733437007,"velocity":0.7244094488188977,"duration":0.42279390624992175},{"name":"G4","midi":67,"time":618.1173379999508,"velocity":0.7244094488188977,"duration":0.04595585937499891},{"name":"F#4","midi":66,"time":618.1651320937008,"velocity":0.7244094488188977,"duration":0.04779409374998522},{"name":"E4","midi":64,"time":618.2147644218257,"velocity":0.7244094488188977,"duration":0.053308796874944164},{"name":"D#4","midi":63,"time":618.2699114530757,"velocity":0.7244094488188977,"duration":0.04595585937499891},{"name":"E4","midi":64,"time":618.3177055468257,"velocity":0.7244094488188977,"duration":0.09191171874999782},{"name":"C4","midi":60,"time":618.4114554999506,"velocity":0.7244094488188977,"duration":0.14705875000004198},{"name":"A3","midi":57,"time":618.5143966249507,"velocity":0.7244094488188977,"duration":0.04779409374998522},{"name":"C4","midi":60,"time":618.5640289530756,"velocity":0.7244094488188977,"duration":0.049632328124971536},{"name":"E4","midi":64,"time":618.6154995155756,"velocity":0.7244094488188977,"duration":0.04595585937499891},{"name":"A4","midi":69,"time":618.6632936093256,"velocity":0.7244094488188977,"duration":0.4319850781248533},{"name":"C5","midi":72,"time":618.7074112343256,"velocity":0.7244094488188977,"duration":0.04779409374998522},{"name":"E5","midi":76,"time":618.7570435624506,"velocity":0.7244094488188977,"duration":0.04779409374998522},{"name":"G5","midi":79,"time":618.8066758905755,"velocity":0.7244094488188977,"duration":0.4779409374998522},{"name":"E5","midi":76,"time":618.8599846874505,"velocity":0.7244094488188977,"duration":0.04595585937499891},{"name":"C5","midi":72,"time":618.9077787812005,"velocity":0.7244094488188977,"duration":0.06249996874998942},{"name":"B4","midi":71,"time":618.9721169843255,"velocity":0.7244094488188977,"duration":0.06617643749996205},{"name":"C5","midi":72,"time":619.0401316562004,"velocity":0.7244094488188977,"duration":0.2573528125000166},{"name":"A4","midi":69,"time":619.1044698593255,"velocity":0.7244094488188977,"duration":0.06433820312497573},{"name":"G#4","midi":68,"time":619.1706462968255,"velocity":0.7244094488188977,"duration":0.06433820312497573},{"name":"A4","midi":69,"time":619.2368227343254,"velocity":0.7244094488188977,"duration":0.5147056249999196},{"name":"G5","midi":79,"time":619.3011609374504,"velocity":0.7244094488188977,"duration":0.19669107812501352},{"name":"A3","midi":57,"time":619.3011609374504,"velocity":0.7244094488188977,"duration":0.8143378281249625},{"name":"G5","midi":79,"time":619.4996902499504,"velocity":0.7244094488188977,"duration":0.04779409374998522},{"name":"F#5","midi":78,"time":619.5493225780754,"velocity":0.7244094488188977,"duration":0.049632328124971536},{"name":"G5","midi":79,"time":619.6007931405753,"velocity":0.7244094488188977,"duration":0.04595585937499891},{"name":"F#5","midi":78,"time":619.6485872343253,"velocity":0.7244094488188977,"duration":0.24264693750001243},{"name":"A4","midi":69,"time":619.8930724062003,"velocity":0.7244094488188977,"duration":0.2224263593750493},{"name":"F5","midi":77,"time":620.1173369999503,"velocity":0.7244094488188977,"duration":0.08639701562503888},{"name":"B3","midi":59,"time":620.1173369999503,"velocity":0.7244094488188977,"duration":0.7040437656252152},{"name":"E5","midi":76,"time":620.2055722499504,"velocity":0.7244094488188977,"duration":0.08639701562503888},{"name":"F5","midi":77,"time":620.2938074999504,"velocity":0.7244094488188977,"duration":0.08639701562503888},{"name":"D5","midi":74,"time":620.3820427499504,"velocity":0.7244094488188977,"duration":0.6985290625001426},{"name":"F5","midi":77,"time":620.4702779999504,"velocity":0.7244094488188977,"duration":0.08639701562503888},{"name":"G5","midi":79,"time":620.5585132499505,"velocity":0.7244094488188977,"duration":0.08639701562503888},{"name":"G4","midi":67,"time":620.6467484999505,"velocity":0.7244094488188977,"duration":0.6066173437500311},{"name":"A5","midi":81,"time":620.6467484999505,"velocity":0.7244094488188977,"duration":0.04227939062502628},{"name":"G5","midi":79,"time":620.6908661249505,"velocity":0.7244094488188977,"duration":0.04227939062502628},{"name":"F5","midi":77,"time":620.7349837499505,"velocity":0.7244094488188977,"duration":0.08639701562503888},{"name":"G5","midi":79,"time":620.8232189999505,"velocity":0.7244094488188977,"duration":0.05698526562503048},{"name":"C4","midi":60,"time":620.8232189999505,"velocity":0.7244094488188977,"duration":1.3216905156251642},{"name":"F5","midi":77,"time":620.8820424999506,"velocity":0.7244094488188977,"duration":0.05698526562503048},{"name":"E5","midi":76,"time":620.9408659999506,"velocity":0.7244094488188977,"duration":0.05698526562503048},{"name":"F5","midi":77,"time":620.9996894999506,"velocity":0.7244094488188977,"duration":0.05698526562503048},{"name":"G5","midi":79,"time":621.0585129999506,"velocity":0.7244094488188977,"duration":0.05698526562491679},{"name":"F5","midi":77,"time":621.1173364999505,"velocity":0.7244094488188977,"duration":0.14522051562505567},{"name":"E5","midi":76,"time":621.2643952499506,"velocity":0.7244094488188977,"duration":0.08639701562503888},{"name":"F5","midi":77,"time":621.3526304999506,"velocity":0.7244094488188977,"duration":0.08639701562503888},{"name":"G5","midi":79,"time":621.4408657499506,"velocity":0.7244094488188977,"duration":0.08639701562503888},{"name":"C5","midi":72,"time":621.5291009999506,"velocity":0.7244094488188977,"duration":0.08639701562503888},{"name":"E5","midi":76,"time":621.5291009999506,"velocity":0.7244094488188977,"duration":0.6985290625000289},{"name":"B4","midi":71,"time":621.6173362499507,"velocity":0.7244094488188977,"duration":0.08639701562503888},{"name":"A4","midi":69,"time":621.7055714999507,"velocity":0.7244094488188977,"duration":0.08639701562503888},{"name":"G#4","midi":68,"time":621.7938067499507,"velocity":0.7244094488188977,"duration":0.08639701562503888},{"name":"A4","midi":69,"time":621.8820419999507,"velocity":0.7244094488188977,"duration":0.26286751562497557},{"name":"C5","midi":72,"time":622.1467477499507,"velocity":0.7244094488188977,"duration":0.08639701562492519},{"name":"B3","midi":59,"time":622.1467477499507,"velocity":0.7244094488188977,"duration":0.08639701562492519},{"name":"E5","midi":76,"time":622.2349829999506,"velocity":0.7244094488188977,"duration":0.6231614531250216},{"name":"A3","midi":57,"time":622.2349829999506,"velocity":0.7244094488188977,"duration":0.5882350000000542},{"name":"D5","midi":74,"time":622.3232182499506,"velocity":0.7244094488188977,"duration":0.08639701562503888},{"name":"C5","midi":72,"time":622.4114534999507,"velocity":0.7244094488188977,"duration":0.08639701562503888},{"name":"B4","midi":71,"time":622.4996887499507,"velocity":0.7244094488188977,"duration":0.08639701562503888},{"name":"C5","midi":72,"time":622.5879239999507,"velocity":0.7244094488188977,"duration":0.5147056249999196},{"name":"E5","midi":76,"time":622.8526297499507,"velocity":0.7244094488188977,"duration":0.08639701562492519},{"name":"E4","midi":64,"time":622.8526297499507,"velocity":0.7244094488188977,"duration":0.08639701562492519},{"name":"G3","midi":55,"time":622.8526297499507,"velocity":0.7244094488188977,"duration":0.08639701562492519},{"name":"A5","midi":81,"time":622.9408649999506,"velocity":0.7244094488188977,"duration":0.6985290625001426},{"name":"E4","midi":64,"time":622.9408649999506,"velocity":0.7244094488188977,"duration":0.7040437656251015},{"name":"F3","midi":53,"time":622.9408649999506,"velocity":0.7244094488188977,"duration":1.3786757812503083},{"name":"B4","midi":71,"time":623.1173354999506,"velocity":0.7244094488188977,"duration":0.08639701562503888},{"name":"C5","midi":72,"time":623.2055707499507,"velocity":0.7244094488188977,"duration":0.08639701562503888},{"name":"D5","midi":74,"time":623.2938059999507,"velocity":0.7244094488188977,"duration":0.08639701562503888},{"name":"C5","midi":72,"time":623.3820412499507,"velocity":0.7244094488188977,"duration":0.08639701562503888},{"name":"B4","midi":71,"time":623.4702764999507,"velocity":0.7244094488188977,"duration":0.08639701562503888},{"name":"C5","midi":72,"time":623.5585117499508,"velocity":0.7244094488188977,"duration":0.34926453125001444},{"name":"E4","midi":64,"time":623.6467469999507,"velocity":0.7244094488188977,"duration":0.05698526562503048},{"name":"D#4","midi":63,"time":623.7055704999507,"velocity":0.7244094488188977,"duration":0.05698526562503048},{"name":"A5","midi":81,"time":623.7349822499507,"velocity":0.7244094488188977,"duration":0.08639701562503888},{"name":"E4","midi":64,"time":623.7643939999507,"velocity":0.7244094488188977,"duration":0.05698526562503048},{"name":"B5","midi":83,"time":623.8232174999507,"velocity":0.7244094488188977,"duration":0.08639701562503888},{"name":"D#4","midi":63,"time":623.8232174999507,"velocity":0.7244094488188977,"duration":0.5275732656251648},{"name":"C6","midi":84,"time":623.9114527499507,"velocity":0.7244094488188977,"duration":0.08639701562503888},{"name":"B5","midi":83,"time":623.9996879999508,"velocity":0.7244094488188977,"duration":0.08639701562503888},{"name":"A5","midi":81,"time":624.0879232499508,"velocity":0.7244094488188977,"duration":0.08639701562503888},{"name":"G#5","midi":80,"time":624.1761584999508,"velocity":0.7244094488188977,"duration":0.08639701562503888},{"name":"A5","midi":81,"time":624.2643937499508,"velocity":0.7244094488188977,"duration":0.08639701562503888},{"name":"B5","midi":83,"time":624.3526289999509,"velocity":0.7244094488188977,"duration":0.6249996875000079},{"name":"D4","midi":62,"time":624.3526289999509,"velocity":0.7244094488188977,"duration":0.05698526562503048},{"name":"G#3","midi":56,"time":624.3526289999509,"velocity":0.7244094488188977,"duration":0.6985290625000289},{"name":"C4","midi":60,"time":624.4114524999509,"velocity":0.7244094488188977,"duration":0.05698526562503048},{"name":"F5","midi":77,"time":624.4408642499509,"velocity":0.7244094488188977,"duration":0.08639701562503888},{"name":"D4","midi":62,"time":624.4702759999509,"velocity":0.7244094488188977,"duration":0.49816151562504274},{"name":"E5","midi":76,"time":624.5290994999509,"velocity":0.7244094488188977,"duration":0.08639701562503888},{"name":"D5","midi":74,"time":624.6173347499509,"velocity":0.7244094488188977,"duration":0.08639701562503888},{"name":"E5","midi":76,"time":624.705569999951,"velocity":0.7244094488188977,"duration":0.26286751562497557},{"name":"B4","midi":71,"time":624.9702757499509,"velocity":0.7244094488188977,"duration":0.08639701562492519},{"name":"B5","midi":83,"time":624.9702757499509,"velocity":0.7244094488188977,"duration":0.08639701562492519},{"name":"D4","midi":62,"time":624.9702757499509,"velocity":0.7244094488188977,"duration":0.08639701562492519},{"name":"B4","midi":71,"time":625.0585109999508,"velocity":0.7244094488188977,"duration":0.6985290625000289},{"name":"E5","midi":76,"time":625.0585109999508,"velocity":0.7244094488188977,"duration":0.08639701562503888},{"name":"A3","midi":57,"time":625.0585109999508,"velocity":0.7244094488188977,"duration":1.056984765624975},{"name":"F#5","midi":78,"time":625.1467462499509,"velocity":0.7244094488188977,"duration":0.08639701562503888},{"name":"G#5","midi":80,"time":625.2349814999509,"velocity":0.7244094488188977,"duration":0.17463226562495038},{"name":"G#5","midi":80,"time":625.4114519999508,"velocity":0.7244094488188977,"duration":0.05698526562503048},{"name":"F#5","midi":78,"time":625.4702754999508,"velocity":0.7244094488188977,"duration":0.05698526562503048},{"name":"G#5","midi":80,"time":625.5290989999509,"velocity":0.7244094488188977,"duration":0.05698526562503048},{"name":"F#5","midi":78,"time":625.5879224999509,"velocity":0.7244094488188977,"duration":0.08639701562503888},{"name":"E5","midi":76,"time":625.6761577499509,"velocity":0.7244094488188977,"duration":0.08639701562492519},{"name":"A4","midi":69,"time":625.7643929999508,"velocity":0.7244094488188977,"duration":0.43933801562502595},{"name":"A5","midi":81,"time":625.7643929999508,"velocity":0.7244094488188977,"duration":0.43933801562502595},{"name":"D4","midi":62,"time":625.7643929999508,"velocity":0.7244094488188977,"duration":0.05698526562503048},{"name":"C#4","midi":61,"time":625.8232164999508,"velocity":0.7244094488188977,"duration":0.05698526562503048},{"name":"D4","midi":62,"time":625.8820399999508,"velocity":0.7244094488188977,"duration":0.05698526562503048},{"name":"C#4","midi":61,"time":625.9408634999509,"velocity":0.7244094488188977,"duration":0.5147056250000333},{"name":"G3","midi":55,"time":626.1173339999508,"velocity":0.7244094488188977,"duration":0.35110276562511444},{"name":"G5","midi":79,"time":626.2055692499508,"velocity":0.7244094488188977,"duration":0.08639701562503888},{"name":"F#5","midi":78,"time":626.2938044999509,"velocity":0.7244094488188977,"duration":0.08639701562503888},{"name":"E5","midi":76,"time":626.3820397499509,"velocity":0.7244094488188977,"duration":0.08639701562503888},{"name":"D#5","midi":75,"time":626.4702749999509,"velocity":0.7244094488188977,"duration":0.08639701562503888},{"name":"C4","midi":60,"time":626.4702749999509,"velocity":0.7244094488188977,"duration":0.35110276562511444},{"name":"F#3","midi":54,"time":626.4702749999509,"velocity":0.7244094488188977,"duration":0.35110276562511444},{"name":"E5","midi":76,"time":626.5585102499509,"velocity":0.7244094488188977,"duration":0.08639701562503888},{"name":"D#5","midi":75,"time":626.646745499951,"velocity":0.7244094488188977,"duration":0.08639701562503888},{"name":"E5","midi":76,"time":626.734980749951,"velocity":0.7244094488188977,"duration":0.08639701562503888},{"name":"F#5","midi":78,"time":626.823215999951,"velocity":0.7244094488188977,"duration":0.06801467187494836},{"name":"C4","midi":60,"time":626.823215999951,"velocity":0.7244094488188977,"duration":0.3511027656247734},{"name":"E3","midi":52,"time":626.823215999951,"velocity":0.7244094488188977,"duration":0.3511027656247734},{"name":"E5","midi":76,"time":626.8930689062009,"velocity":0.7244094488188977,"duration":0.05147056249995785},{"name":"D#5","midi":75,"time":626.9463777030759,"velocity":0.7244094488188977,"duration":0.03676468749995365},{"name":"E5","midi":76,"time":626.9849806249508,"velocity":0.7244094488188977,"duration":0.09374995312498413},{"name":"F#5","midi":78,"time":627.0805688124508,"velocity":0.7244094488188977,"duration":0.09374995312498413},{"name":"A4","midi":69,"time":627.1761569999508,"velocity":0.7244094488188977,"duration":0.6985290624999152},{"name":"C4","midi":60,"time":627.1761569999508,"velocity":0.7244094488188977,"duration":0.21874989062496297},{"name":"D#3","midi":51,"time":627.1761569999508,"velocity":0.7244094488188977,"duration":0.6985290624999152},{"name":"B3","midi":59,"time":627.3967451249507,"velocity":0.7244094488188977,"duration":0.04227939062502628},{"name":"A3","midi":57,"time":627.4408627499507,"velocity":0.7244094488188977,"duration":0.04227939062502628},{"name":"G#3","midi":56,"time":627.4849803749507,"velocity":0.7244094488188977,"duration":0.04227939062502628},{"name":"A3","midi":57,"time":627.5290979999507,"velocity":0.7244094488188977,"duration":0.18749990624996826},{"name":"F#5","midi":78,"time":627.7184361405757,"velocity":0.7244094488188977,"duration":0.1617646249999325},{"name":"C4","midi":60,"time":627.7184361405757,"velocity":0.7244094488188977,"duration":0.1617646249999325},{"name":"A4","midi":69,"time":627.8820389999506,"velocity":0.7244094488188977,"duration":0.6985290624999152},{"name":"F#3","midi":54,"time":627.8820389999506,"velocity":0.7244094488188977,"duration":0.21874989062496297},{"name":"G3","midi":55,"time":628.1026271249506,"velocity":0.7244094488188977,"duration":0.04227939062502628},{"name":"F#3","midi":54,"time":628.1467447499506,"velocity":0.7244094488188977,"duration":0.04227939062502628},{"name":"E3","midi":52,"time":628.1908623749506,"velocity":0.7244094488188977,"duration":0.04227939062502628},{"name":"F#3","midi":54,"time":628.2349799999506,"velocity":0.7244094488188977,"duration":0.18749990624996826},{"name":"G5","midi":79,"time":628.4243181405756,"velocity":0.7244094488188977,"duration":0.1617646249999325},{"name":"A3","midi":57,"time":628.4243181405756,"velocity":0.7244094488188977,"duration":0.1617646249999325},{"name":"A4","midi":69,"time":628.5879209999505,"velocity":0.7244094488188977,"duration":0.6985290624999152},{"name":"D#3","midi":51,"time":628.5879209999505,"velocity":0.7244094488188977,"duration":0.21874989062496297},{"name":"E3","midi":52,"time":628.8085091249504,"velocity":0.7244094488188977,"duration":0.04227939062502628},{"name":"D#3","midi":51,"time":628.8526267499504,"velocity":0.7244094488188977,"duration":0.04227939062502628},{"name":"C#3","midi":49,"time":628.8967443749505,"velocity":0.7244094488188977,"duration":0.04227939062502628},{"name":"D#3","midi":51,"time":628.9408619999505,"velocity":0.7244094488188977,"duration":0.18749990624996826},{"name":"A5","midi":81,"time":629.1302001405754,"velocity":0.7244094488188977,"duration":0.1617646249999325},{"name":"F#3","midi":54,"time":629.1302001405754,"velocity":0.7244094488188977,"duration":0.1617646249999325},{"name":"A4","midi":69,"time":629.2938029999503,"velocity":0.7244094488188977,"duration":1.4099257656251893},{"name":"E5","midi":76,"time":629.2938029999503,"velocity":0.7244094488188977,"duration":0.7628672656250046},{"name":"F#3","midi":54,"time":629.2938029999503,"velocity":0.7244094488188977,"duration":1.4099257656251893},{"name":"C3","midi":48,"time":629.2938029999503,"velocity":0.7244094488188977,"duration":0.7040437656249878},{"name":"B2","midi":47,"time":629.9996849999503,"velocity":0.7244094488188977,"duration":0.5569850156251732},{"name":"D#5","midi":75,"time":630.0585084999503,"velocity":0.7244094488188977,"duration":0.05698526562503048},{"name":"E5","midi":76,"time":630.1173319999504,"velocity":0.7244094488188977,"duration":0.05698526562503048},{"name":"D#5","midi":75,"time":630.1761554999504,"velocity":0.7244094488188977,"duration":0.05698526562503048},{"name":"E5","midi":76,"time":630.2349789999504,"velocity":0.7244094488188977,"duration":0.05698526562503048},{"name":"D#5","midi":75,"time":630.2938024999504,"velocity":0.7244094488188977,"duration":0.05698526562503048},{"name":"E5","midi":76,"time":630.3526259999504,"velocity":0.7244094488188977,"duration":0.05698526562503048},{"name":"D#5","midi":75,"time":630.4114494999504,"velocity":0.7244094488188977,"duration":0.05698526562503048},{"name":"E5","midi":76,"time":630.4702729999505,"velocity":0.7244094488188977,"duration":0.05698526562503048},{"name":"D#5","midi":75,"time":630.5290964999505,"velocity":0.7244094488188977,"duration":0.05698526562503048},{"name":"A2","midi":45,"time":630.5585082499505,"velocity":0.7244094488188977,"duration":0.14522051562505567},{"name":"C#5","midi":73,"time":630.5879199999505,"velocity":0.7244094488188977,"duration":0.05698526562503048},{"name":"D#5","midi":75,"time":630.6467434999505,"velocity":0.7244094488188977,"duration":0.05698526562503048},{"name":"E5","midi":76,"time":630.7055669999505,"velocity":0.7244094488188977,"duration":0.21874989062496297},{"name":"E3","midi":52,"time":630.7055669999505,"velocity":0.7244094488188977,"duration":2.113969531250177},{"name":"B2","midi":47,"time":630.7055669999505,"velocity":0.7244094488188977,"duration":0.540440906250069},{"name":"G2","midi":43,"time":630.7055669999505,"velocity":0.7244094488188977,"duration":0.540440906250069},{"name":"D5","midi":74,"time":630.9261551249505,"velocity":0.7244094488188977,"duration":0.04227939062502628},{"name":"C5","midi":72,"time":630.9702727499505,"velocity":0.7244094488188977,"duration":0.04227939062502628},{"name":"B4","midi":71,"time":631.0143903749505,"velocity":0.7244094488188977,"duration":0.04227939062502628},{"name":"C5","midi":72,"time":631.0585079999505,"velocity":0.7244094488188977,"duration":0.08639701562503888},{"name":"E5","midi":76,"time":631.1467432499505,"velocity":0.7244094488188977,"duration":0.09926465625005676},{"name":"A#4","midi":70,"time":631.2478461405756,"velocity":0.7244094488188977,"duration":0.16176462500004618},{"name":"F#2","midi":42,"time":631.2478461405756,"velocity":0.7244094488188977,"duration":0.16176462500004618},{"name":"B4","midi":71,"time":631.4114489999506,"velocity":0.7244094488188977,"duration":0.21874989062496297},{"name":"G2","midi":43,"time":631.4114489999506,"velocity":0.7244094488188977,"duration":0.540440906250069},{"name":"A4","midi":69,"time":631.6320371249506,"velocity":0.7244094488188977,"duration":0.04227939062502628},{"name":"G4","midi":67,"time":631.6761547499506,"velocity":0.7244094488188977,"duration":0.04227939062502628},{"name":"F#4","midi":66,"time":631.7202723749506,"velocity":0.7244094488188977,"duration":0.04227939062502628},{"name":"G4","midi":67,"time":631.7643899999506,"velocity":0.7244094488188977,"duration":0.08639701562503888},{"name":"B4","midi":71,"time":631.8526252499506,"velocity":0.7244094488188977,"duration":0.09926465625005676},{"name":"E4","midi":64,"time":631.9537281405757,"velocity":0.7244094488188977,"duration":0.16176462500004618},{"name":"A2","midi":45,"time":631.9537281405757,"velocity":0.7244094488188977,"duration":0.16176462500004618},{"name":"F#4","midi":66,"time":632.1173309999507,"velocity":0.7244094488188977,"duration":0.2555145781250303},{"name":"B2","midi":47,"time":632.1173309999507,"velocity":0.7244094488188977,"duration":1.4099257656251893},{"name":"G4","midi":67,"time":632.3746838124507,"velocity":0.7244094488188977,"duration":0.2555145781250303},{"name":"A4","midi":69,"time":632.6320366249507,"velocity":0.7244094488188977,"duration":0.04595585937499891},{"name":"G4","midi":67,"time":632.6798307187007,"velocity":0.7244094488188977,"duration":0.04595585937499891},{"name":"F#4","midi":66,"time":632.7276248124507,"velocity":0.7244094488188977,"duration":0.04595585937499891},{"name":"G4","midi":67,"time":632.7754189062007,"velocity":0.7244094488188977,"duration":0.04595585937499891},{"name":"A4","midi":69,"time":632.8232129999507,"velocity":0.7244094488188977,"duration":0.5404409062501827},{"name":"E3","midi":52,"time":632.8232129999507,"velocity":0.7244094488188977,"duration":0.05698526562503048},{"name":"D#3","midi":51,"time":632.8820364999507,"velocity":0.7244094488188977,"duration":0.05698526562503048},{"name":"E3","midi":52,"time":632.9408599999507,"velocity":0.7244094488188977,"duration":0.05698526562503048},{"name":"D#3","midi":51,"time":632.9996834999507,"velocity":0.7244094488188977,"duration":0.05698526562503048},{"name":"E3","midi":52,"time":633.0585069999507,"velocity":0.7244094488188977,"duration":0.05698526562503048},{"name":"D#3","midi":51,"time":633.1173304999508,"velocity":0.7244094488188977,"duration":0.05698526562503048},{"name":"E3","midi":52,"time":633.1761539999508,"velocity":0.7244094488188977,"duration":0.05698526562503048},{"name":"D#3","midi":51,"time":633.2349774999508,"velocity":0.7244094488188977,"duration":0.05698526562503048},{"name":"C#3","midi":49,"time":633.2938009999508,"velocity":0.7244094488188977,"duration":0.06985290625004836},{"name":"A3","midi":57,"time":633.3654921405758,"velocity":0.7244094488188977,"duration":0.16176462500004618},{"name":"F#4","midi":66,"time":633.3654921405758,"velocity":0.7244094488188977,"duration":0.16176462500004618},{"name":"D#3","midi":51,"time":633.3654921405758,"velocity":0.7244094488188977,"duration":0.16176462500004618},{"name":"F#4","midi":66,"time":633.5290949999509,"velocity":0.7244094488188977,"duration":0.7040437656249878},{"name":"A3","midi":57,"time":633.5290949999509,"velocity":0.7244094488188977,"duration":0.7040437656249878},{"name":"E3","midi":52,"time":633.5290949999509,"velocity":0.7244094488188977,"duration":2.3529399999999896},{"name":"B2","midi":47,"time":633.5290949999509,"velocity":0.7244094488188977,"duration":2.11396953124995},{"name":"E2","midi":40,"time":633.5290949999509,"velocity":0.7244094488188977,"duration":2.3529399999999896},{"name":"G3","midi":55,"time":634.2349769999508,"velocity":0.7244094488188977,"duration":1.7279403124999817},{"name":"E4","midi":64,"time":634.2349769999508,"velocity":0.7244094488188977,"duration":1.7647049999999354},{"name":"E5","midi":76,"time":638.1173279999508,"velocity":0.7244094488188977,"duration":0.07720584374999362},{"name":"E3","midi":52,"time":638.1173279999508,"velocity":0.7244094488188977,"duration":0.35110276562500076},{"name":"F#5","midi":78,"time":638.1963720780758,"velocity":0.7244094488188977,"duration":0.07720584374999362},{"name":"G5","midi":79,"time":638.2754161562008,"velocity":0.7244094488188977,"duration":0.1930146093750409},{"name":"B4","midi":71,"time":638.4702689999508,"velocity":0.7244094488188977,"duration":0.23345576562496717},{"name":"G3","midi":55,"time":638.4702689999508,"velocity":0.7244094488188977,"duration":0.35110276562500076},{"name":"G5","midi":79,"time":638.7055629999508,"velocity":0.7244094488188977,"duration":0.11580876562504727},{"name":"A4","midi":69,"time":638.8232099999508,"velocity":0.7244094488188977,"duration":0.23345576562496717},{"name":"C4","midi":60,"time":638.8232099999508,"velocity":0.7244094488188977,"duration":0.46874976562503434},{"name":"G5","midi":79,"time":639.0585039999507,"velocity":0.7244094488188977,"duration":0.11580876562504727},{"name":"F#5","midi":78,"time":639.1761509999508,"velocity":0.7244094488188977,"duration":0.35110276562511444},{"name":"B3","midi":59,"time":639.2937979999508,"velocity":0.7244094488188977,"duration":0.11580876562504727},{"name":"A3","midi":57,"time":639.4114449999508,"velocity":0.7244094488188977,"duration":0.11580876562504727},{"name":"A4","midi":69,"time":639.5290919999509,"velocity":0.7244094488188977,"duration":0.07720584374999362},{"name":"D#4","midi":63,"time":639.5290919999509,"velocity":0.7244094488188977,"duration":0.35110276562500076},{"name":"G4","midi":67,"time":639.6081360780759,"velocity":0.7244094488188977,"duration":0.07720584374999362},{"name":"F#4","midi":66,"time":639.6871801562008,"velocity":0.7244094488188977,"duration":0.1930146093750409},{"name":"F#5","midi":78,"time":639.8820329999509,"velocity":0.7244094488188977,"duration":0.23345576562496717},{"name":"B3","midi":59,"time":639.8820329999509,"velocity":0.7244094488188977,"duration":0.35110276562500076},{"name":"A4","midi":69,"time":640.1173269999508,"velocity":0.7244094488188977,"duration":0.11580876562504727},{"name":"G4","midi":67,"time":640.2349739999509,"velocity":0.7244094488188977,"duration":0.23345576562496717},{"name":"E4","midi":64,"time":640.2349739999509,"velocity":0.7244094488188977,"duration":0.34926453124990076},{"name":"B4","midi":71,"time":640.4702679999508,"velocity":0.7244094488188977,"duration":0.11580876562493359},{"name":"E4","midi":64,"time":640.5879149999507,"velocity":0.7244094488188977,"duration":0.46874976562503434},{"name":"D4","midi":62,"time":640.8232089999507,"velocity":0.7244094488188977,"duration":0.11580876562504727},{"name":"C4","midi":60,"time":640.9408559999507,"velocity":0.7244094488188977,"duration":0.23345576562508086},{"name":"D#4","midi":63,"time":641.0585029999507,"velocity":0.7244094488188977,"duration":0.11580876562504727},{"name":"E4","midi":64,"time":641.1761499999508,"velocity":0.7244094488188977,"duration":0.11580876562504727},{"name":"E3","midi":52,"time":641.1761499999508,"velocity":0.7244094488188977,"duration":0.11580876562504727},{"name":"A4","midi":69,"time":641.2937969999508,"velocity":0.7244094488188977,"duration":0.11580876562504727},{"name":"D#3","midi":51,"time":641.2937969999508,"velocity":0.7244094488188977,"duration":0.23345576562508086},{"name":"G4","midi":67,"time":641.4114439999508,"velocity":0.7244094488188977,"duration":0.11580876562504727},{"name":"F#4","midi":66,"time":641.5290909999509,"velocity":0.7244094488188977,"duration":0.11580876562504727},{"name":"E3","midi":52,"time":641.5290909999509,"velocity":0.7244094488188977,"duration":0.11580876562504727},{"name":"E4","midi":64,"time":641.6467379999509,"velocity":0.7244094488188977,"duration":0.11580876562504727},{"name":"B3","midi":59,"time":641.6467379999509,"velocity":0.7244094488188977,"duration":0.23345576562508086},{"name":"D#4","midi":63,"time":641.764384999951,"velocity":0.7244094488188977,"duration":0.11580876562504727},{"name":"E4","midi":64,"time":641.882031999951,"velocity":0.7244094488188977,"duration":0.11580876562504727},{"name":"E3","midi":52,"time":641.882031999951,"velocity":0.7244094488188977,"duration":0.11580876562504727},{"name":"B4","midi":71,"time":641.999678999951,"velocity":0.7244094488188977,"duration":0.11580876562504727},{"name":"D#3","midi":51,"time":641.999678999951,"velocity":0.7244094488188977,"duration":0.23345576562508086},{"name":"G4","midi":67,"time":642.117325999951,"velocity":0.7244094488188977,"duration":0.11580876562504727},{"name":"F#4","midi":66,"time":642.2349729999511,"velocity":0.7244094488188977,"duration":0.11580876562504727},{"name":"E3","midi":52,"time":642.2349729999511,"velocity":0.7244094488188977,"duration":0.11580876562504727},{"name":"E4","midi":64,"time":642.3526199999511,"velocity":0.7244094488188977,"duration":0.11580876562504727},{"name":"A3","midi":57,"time":642.3526199999511,"velocity":0.7244094488188977,"duration":0.23345576562508086},{"name":"D#4","midi":63,"time":642.4702669999511,"velocity":0.7244094488188977,"duration":0.11580876562504727},{"name":"E4","midi":64,"time":642.5879139999512,"velocity":0.7244094488188977,"duration":0.11580876562504727},{"name":"E3","midi":52,"time":642.5879139999512,"velocity":0.7244094488188977,"duration":0.11580876562504727},{"name":"C5","midi":72,"time":642.7055609999512,"velocity":0.7244094488188977,"duration":0.11580876562504727},{"name":"D#3","midi":51,"time":642.7055609999512,"velocity":0.7244094488188977,"duration":0.23345576562508086},{"name":"G4","midi":67,"time":642.8232079999513,"velocity":0.7244094488188977,"duration":0.11580876562504727},{"name":"F#4","midi":66,"time":642.9408549999513,"velocity":0.7244094488188977,"duration":0.11580876562504727},{"name":"E3","midi":52,"time":642.9408549999513,"velocity":0.7244094488188977,"duration":0.11580876562504727},{"name":"E4","midi":64,"time":643.0585019999513,"velocity":0.7244094488188977,"duration":0.11580876562504727},{"name":"G3","midi":55,"time":643.0585019999513,"velocity":0.7244094488188977,"duration":0.23345576562508086},{"name":"D#4","midi":63,"time":643.1761489999514,"velocity":0.7244094488188977,"duration":0.11580876562504727},{"name":"E4","midi":64,"time":643.2937959999514,"velocity":0.7244094488188977,"duration":0.11580876562504727},{"name":"E3","midi":52,"time":643.2937959999514,"velocity":0.7244094488188977,"duration":0.11580876562504727},{"name":"F#4","midi":66,"time":643.4114429999514,"velocity":0.7244094488188977,"duration":0.11580876562504727},{"name":"D#3","midi":51,"time":643.4114429999514,"velocity":0.7244094488188977,"duration":0.23345576562508086},{"name":"G4","midi":67,"time":643.5290899999515,"velocity":0.7244094488188977,"duration":0.11580876562504727},{"name":"A4","midi":69,"time":643.6467369999515,"velocity":0.7244094488188977,"duration":0.11580876562504727},{"name":"B3","midi":59,"time":643.6467369999515,"velocity":0.7244094488188977,"duration":0.11580876562504727},{"name":"G4","midi":67,"time":643.7643839999515,"velocity":0.7244094488188977,"duration":0.11580876562504727},{"name":"E3","midi":52,"time":643.7643839999515,"velocity":0.7244094488188977,"duration":0.23345576562508086},{"name":"F#4","midi":66,"time":643.8820309999516,"velocity":0.7244094488188977,"duration":0.11580876562504727},{"name":"G4","midi":67,"time":643.9996779999516,"velocity":0.7244094488188977,"duration":0.11580876562504727},{"name":"C4","midi":60,"time":643.9996779999516,"velocity":0.7244094488188977,"duration":0.11580876562504727},{"name":"A4","midi":69,"time":644.1173249999516,"velocity":0.7244094488188977,"duration":0.11580876562504727},{"name":"F#3","midi":54,"time":644.1173249999516,"velocity":0.7244094488188977,"duration":0.23345576562508086},{"name":"B4","midi":71,"time":644.2349719999517,"velocity":0.7244094488188977,"duration":0.11580876562504727},{"name":"C5","midi":72,"time":644.3526189999517,"velocity":0.7244094488188977,"duration":0.11580876562504727},{"name":"D4","midi":62,"time":644.3526189999517,"velocity":0.7244094488188977,"duration":0.11580876562504727},{"name":"B4","midi":71,"time":644.4702659999517,"velocity":0.7244094488188977,"duration":0.11580876562504727},{"name":"G3","midi":55,"time":644.4702659999517,"velocity":0.7244094488188977,"duration":0.23345576562508086},{"name":"A4","midi":69,"time":644.5879129999518,"velocity":0.7244094488188977,"duration":0.11580876562504727},{"name":"B4","midi":71,"time":644.7055599999518,"velocity":0.7244094488188977,"duration":0.11580876562504727},{"name":"E4","midi":64,"time":644.7055599999518,"velocity":0.7244094488188977,"duration":0.11580876562504727},{"name":"C5","midi":72,"time":644.8232069999518,"velocity":0.7244094488188977,"duration":0.11580876562504727},{"name":"A3","midi":57,"time":644.8232069999518,"velocity":0.7244094488188977,"duration":0.23345576562508086},{"name":"D5","midi":74,"time":644.9408539999519,"velocity":0.7244094488188977,"duration":0.11580876562504727},{"name":"E5","midi":76,"time":645.0585009999519,"velocity":0.7244094488188977,"duration":0.11580876562504727},{"name":"F#4","midi":66,"time":645.0585009999519,"velocity":0.7244094488188977,"duration":0.11580876562504727},{"name":"D5","midi":74,"time":645.1761479999519,"velocity":0.7244094488188977,"duration":0.11580876562504727},{"name":"B3","midi":59,"time":645.1761479999519,"velocity":0.7244094488188977,"duration":0.23345576562508086},{"name":"C5","midi":72,"time":645.293794999952,"velocity":0.7244094488188977,"duration":0.11580876562504727},{"name":"D5","midi":74,"time":645.411441999952,"velocity":0.7244094488188977,"duration":0.11580876562504727},{"name":"G4","midi":67,"time":645.411441999952,"velocity":0.7244094488188977,"duration":0.11580876562504727},{"name":"E5","midi":76,"time":645.529088999952,"velocity":0.7244094488188977,"duration":0.11580876562504727},{"name":"C4","midi":60,"time":645.529088999952,"velocity":0.7244094488188977,"duration":0.23345576562508086},{"name":"F#5","midi":78,"time":645.646735999952,"velocity":0.7244094488188977,"duration":0.11580876562504727},{"name":"G5","midi":79,"time":645.7643829999521,"velocity":0.7244094488188977,"duration":0.11580876562504727},{"name":"A4","midi":69,"time":645.7643829999521,"velocity":0.7244094488188977,"duration":0.11580876562504727},{"name":"F#5","midi":78,"time":645.8820299999521,"velocity":0.7244094488188977,"duration":0.11580876562504727},{"name":"D4","midi":62,"time":645.8820299999521,"velocity":0.7244094488188977,"duration":0.46874976562514803},{"name":"G5","midi":79,"time":645.9996769999522,"velocity":0.7244094488188977,"duration":0.11580876562504727},{"name":"A5","midi":81,"time":646.1173239999522,"velocity":0.7244094488188977,"duration":0.11580876562504727},{"name":"D5","midi":74,"time":646.2349709999522,"velocity":0.7244094488188977,"duration":0.46874976562503434},{"name":"C4","midi":60,"time":646.3526179999523,"velocity":0.7244094488188977,"duration":0.0753676093750073},{"name":"B3","midi":59,"time":646.4298238437023,"velocity":0.7244094488188977,"duration":0.0753676093750073},{"name":"A3","midi":57,"time":646.5070296874522,"velocity":0.7244094488188977,"duration":0.07904407812497993},{"name":"G3","midi":55,"time":646.5879119999522,"velocity":0.7244094488188977,"duration":0.11580876562504727},{"name":"C5","midi":72,"time":646.7055589999522,"velocity":0.7244094488188977,"duration":0.11580876562504727},{"name":"A3","midi":57,"time":646.7055589999522,"velocity":0.7244094488188977,"duration":0.11580876562504727},{"name":"D5","midi":74,"time":646.8232059999523,"velocity":0.7244094488188977,"duration":0.11580876562504727},{"name":"B3","midi":59,"time":646.8232059999523,"velocity":0.7244094488188977,"duration":0.11580876562504727},{"name":"G5","midi":79,"time":646.9408529999523,"velocity":0.7244094488188977,"duration":0.11580876562504727},{"name":"E3","midi":52,"time":646.9408529999523,"velocity":0.7244094488188977,"duration":0.23345576562508086},{"name":"F#5","midi":78,"time":647.0584999999523,"velocity":0.7244094488188977,"duration":0.11580876562504727},{"name":"E5","midi":76,"time":647.1761469999524,"velocity":0.7244094488188977,"duration":0.11580876562504727},{"name":"B3","midi":59,"time":647.1761469999524,"velocity":0.7244094488188977,"duration":0.11580876562504727},{"name":"D5","midi":74,"time":647.2937939999524,"velocity":0.7244094488188977,"duration":0.11580876562504727},{"name":"C3","midi":48,"time":647.2937939999524,"velocity":0.7244094488188977,"duration":0.23345576562508086},{"name":"C5","midi":72,"time":647.4114409999524,"velocity":0.7244094488188977,"duration":0.11580876562504727},{"name":"B4","midi":71,"time":647.5290879999525,"velocity":0.7244094488188977,"duration":0.11580876562504727},{"name":"B3","midi":59,"time":647.5290879999525,"velocity":0.7244094488188977,"duration":0.11580876562504727},{"name":"C5","midi":72,"time":647.6467349999525,"velocity":0.7244094488188977,"duration":0.11580876562504727},{"name":"A3","midi":57,"time":647.6467349999525,"velocity":0.7244094488188977,"duration":0.35110276562511444},{"name":"B4","midi":71,"time":647.7643819999525,"velocity":0.7244094488188977,"duration":0.11580876562504727},{"name":"A4","midi":69,"time":647.8820289999526,"velocity":0.7244094488188977,"duration":0.11580876562504727},{"name":"A4","midi":69,"time":647.9996759999526,"velocity":0.7244094488188977,"duration":0.11580876562504727},{"name":"F#3","midi":54,"time":647.9996759999526,"velocity":0.7244094488188977,"duration":0.11580876562504727},{"name":"G4","midi":67,"time":648.1173229999526,"velocity":0.7244094488188977,"duration":0.11580876562504727},{"name":"E3","midi":52,"time":648.1173229999526,"velocity":0.7244094488188977,"duration":0.11580876562504727},{"name":"F#4","midi":66,"time":648.2349699999527,"velocity":0.7244094488188977,"duration":0.11580876562504727},{"name":"D3","midi":50,"time":648.2349699999527,"velocity":0.7244094488188977,"duration":0.11580876562504727},{"name":"F#4","midi":66,"time":648.3526169999527,"velocity":0.7244094488188977,"duration":0.11580876562504727},{"name":"A3","midi":57,"time":648.3526169999527,"velocity":0.7244094488188977,"duration":0.23345576562508086},{"name":"E4","midi":64,"time":648.4702639999527,"velocity":0.7244094488188977,"duration":0.11580876562504727},{"name":"D4","midi":62,"time":648.5879109999528,"velocity":0.7244094488188977,"duration":0.11580876562504727},{"name":"C3","midi":48,"time":648.5879109999528,"velocity":0.7244094488188977,"duration":0.11580876562504727},{"name":"D4","midi":62,"time":648.7055579999528,"velocity":0.7244094488188977,"duration":0.11580876562504727},{"name":"B2","midi":47,"time":648.7055579999528,"velocity":0.7244094488188977,"duration":0.23345576562508086},{"name":"C4","midi":60,"time":648.8232049999528,"velocity":0.7244094488188977,"duration":0.11580876562504727},{"name":"B3","midi":59,"time":648.9408519999529,"velocity":0.7244094488188977,"duration":0.11580876562504727},{"name":"A3","midi":57,"time":648.9408519999529,"velocity":0.7244094488188977,"duration":0.11580876562504727},{"name":"B3","midi":59,"time":649.0584989999529,"velocity":0.7244094488188977,"duration":0.11580876562504727},{"name":"G3","midi":55,"time":649.0584989999529,"velocity":0.7244094488188977,"duration":0.23161753124998086},{"name":"A3","midi":57,"time":649.176145999953,"velocity":0.7244094488188977,"duration":0.11580876562493359},{"name":"G3","midi":55,"time":649.2937929999529,"velocity":0.7244094488188977,"duration":0.11580876562504727},{"name":"G3","midi":55,"time":649.4114399999529,"velocity":0.7244094488188977,"duration":0.23345576562508086},{"name":"E3","midi":52,"time":649.4114399999529,"velocity":0.7244094488188977,"duration":0.11580876562504727},{"name":"F#3","midi":54,"time":649.5290869999529,"velocity":0.7244094488188977,"duration":0.11580876562504727},{"name":"G4","midi":67,"time":649.646733999953,"velocity":0.7244094488188977,"duration":0.11580876562504727},{"name":"G3","midi":55,"time":649.646733999953,"velocity":0.7244094488188977,"duration":0.11580876562504727},{"name":"F#4","midi":66,"time":649.764380999953,"velocity":0.7244094488188977,"duration":0.23345576562508086},{"name":"B2","midi":47,"time":649.764380999953,"velocity":0.7244094488188977,"duration":0.11580876562504727},{"name":"A2","midi":45,"time":649.882027999953,"velocity":0.7244094488188977,"duration":0.11580876562504727},{"name":"G4","midi":67,"time":649.9996749999531,"velocity":0.7244094488188977,"duration":0.11580876562504727},{"name":"G2","midi":43,"time":649.9996749999531,"velocity":0.7244094488188977,"duration":0.11580876562504727},{"name":"A3","midi":57,"time":650.1173219999531,"velocity":0.7244094488188977,"duration":0.23345576562508086},{"name":"F#3","midi":54,"time":650.1173219999531,"velocity":0.7244094488188977,"duration":0.11580876562504727},{"name":"G3","midi":55,"time":650.2349689999531,"velocity":0.7244094488188977,"duration":0.11580876562504727},{"name":"G4","midi":67,"time":650.3526159999532,"velocity":0.7244094488188977,"duration":0.11580876562504727},{"name":"A3","midi":57,"time":650.3526159999532,"velocity":0.7244094488188977,"duration":0.11580876562504727},{"name":"F#4","midi":66,"time":650.4702629999532,"velocity":0.7244094488188977,"duration":0.23345576562508086},{"name":"C3","midi":48,"time":650.4702629999532,"velocity":0.7244094488188977,"duration":0.11580876562504727},{"name":"B2","midi":47,"time":650.5879099999532,"velocity":0.7244094488188977,"duration":0.11580876562504727},{"name":"G4","midi":67,"time":650.7055569999533,"velocity":0.7244094488188977,"duration":0.11580876562504727},{"name":"A2","midi":45,"time":650.7055569999533,"velocity":0.7244094488188977,"duration":0.11580876562504727},{"name":"B3","midi":59,"time":650.8232039999533,"velocity":0.7244094488188977,"duration":0.23345576562508086},{"name":"G3","midi":55,"time":650.8232039999533,"velocity":0.7244094488188977,"duration":0.11580876562504727},{"name":"A3","midi":57,"time":650.9408509999533,"velocity":0.7244094488188977,"duration":0.11580876562504727},{"name":"G4","midi":67,"time":651.0584979999534,"velocity":0.7244094488188977,"duration":0.11580876562504727},{"name":"B3","midi":59,"time":651.0584979999534,"velocity":0.7244094488188977,"duration":0.11580876562504727},{"name":"F#4","midi":66,"time":651.1761449999534,"velocity":0.7244094488188977,"duration":0.23345576562508086},{"name":"D3","midi":50,"time":651.1761449999534,"velocity":0.7244094488188977,"duration":0.11580876562504727},{"name":"C3","midi":48,"time":651.2937919999534,"velocity":0.7244094488188977,"duration":0.11580876562504727},{"name":"G4","midi":67,"time":651.4114389999535,"velocity":0.7244094488188977,"duration":0.11580876562504727},{"name":"B2","midi":47,"time":651.4114389999535,"velocity":0.7244094488188977,"duration":0.11580876562504727},{"name":"C4","midi":60,"time":651.5290859999535,"velocity":0.7244094488188977,"duration":0.23345576562508086},{"name":"A3","midi":57,"time":651.5290859999535,"velocity":0.7244094488188977,"duration":0.11580876562504727},{"name":"B3","midi":59,"time":651.6467329999535,"velocity":0.7244094488188977,"duration":0.11580876562504727},{"name":"G4","midi":67,"time":651.7643799999536,"velocity":0.7244094488188977,"duration":0.11580876562504727},{"name":"C4","midi":60,"time":651.7643799999536,"velocity":0.7244094488188977,"duration":0.11580876562504727},{"name":"F#4","midi":66,"time":651.8820269999536,"velocity":0.7244094488188977,"duration":0.23345576562508086},{"name":"E3","midi":52,"time":651.8820269999536,"velocity":0.7244094488188977,"duration":0.11580876562504727},{"name":"D3","midi":50,"time":651.9996739999536,"velocity":0.7244094488188977,"duration":0.11580876562504727},{"name":"G4","midi":67,"time":652.1173209999537,"velocity":0.7244094488188977,"duration":0.11580876562504727},{"name":"C3","midi":48,"time":652.1173209999537,"velocity":0.7244094488188977,"duration":0.11580876562504727},{"name":"D4","midi":62,"time":652.2349679999537,"velocity":0.7244094488188977,"duration":0.11580876562504727},{"name":"B2","midi":47,"time":652.2349679999537,"velocity":0.7244094488188977,"duration":0.23345576562508086},{"name":"E4","midi":64,"time":652.3526149999537,"velocity":0.7244094488188977,"duration":0.11580876562504727},{"name":"F#4","midi":66,"time":652.4702619999538,"velocity":0.7244094488188977,"duration":0.11580876562504727},{"name":"G3","midi":55,"time":652.4702619999538,"velocity":0.7244094488188977,"duration":0.11580876562504727},{"name":"F#4","midi":66,"time":652.5879089999538,"velocity":0.7244094488188977,"duration":0.11580876562504727},{"name":"A2","midi":45,"time":652.5879089999538,"velocity":0.7244094488188977,"duration":0.23345576562508086},{"name":"G4","midi":67,"time":652.7055559999538,"velocity":0.7244094488188977,"duration":0.11580876562504727},{"name":"A4","midi":69,"time":652.8232029999539,"velocity":0.7244094488188977,"duration":0.11580876562504727},{"name":"F#3","midi":54,"time":652.8232029999539,"velocity":0.7244094488188977,"duration":0.11580876562504727},{"name":"A4","midi":69,"time":652.9408499999539,"velocity":0.7244094488188977,"duration":0.11580876562504727},{"name":"G2","midi":43,"time":652.9408499999539,"velocity":0.7244094488188977,"duration":0.23345576562508086},{"name":"B4","midi":71,"time":653.058496999954,"velocity":0.7244094488188977,"duration":0.11580876562504727},{"name":"C5","midi":72,"time":653.176143999954,"velocity":0.7244094488188977,"duration":0.11580876562504727},{"name":"E3","midi":52,"time":653.176143999954,"velocity":0.7244094488188977,"duration":0.11580876562504727},{"name":"D5","midi":74,"time":653.293790999954,"velocity":0.7244094488188977,"duration":0.11580876562504727},{"name":"F#2","midi":42,"time":653.293790999954,"velocity":0.7244094488188977,"duration":0.23345576562508086},{"name":"C5","midi":72,"time":653.411437999954,"velocity":0.7244094488188977,"duration":0.11580876562504727},{"name":"B4","midi":71,"time":653.5290849999541,"velocity":0.7244094488188977,"duration":0.11580876562504727},{"name":"D3","midi":50,"time":653.5290849999541,"velocity":0.7244094488188977,"duration":0.11580876562504727},{"name":"A4","midi":69,"time":653.6467319999541,"velocity":0.7244094488188977,"duration":0.11580876562504727},{"name":"E2","midi":40,"time":653.6467319999541,"velocity":0.7244094488188977,"duration":0.23345576562508086},{"name":"B4","midi":71,"time":653.7643789999541,"velocity":0.7244094488188977,"duration":0.11580876562504727},{"name":"G4","midi":67,"time":653.8820259999542,"velocity":0.7244094488188977,"duration":0.11580876562504727},{"name":"C#3","midi":49,"time":653.8820259999542,"velocity":0.7244094488188977,"duration":0.11580876562504727},{"name":"D4","midi":62,"time":653.9996729999542,"velocity":0.7244094488188977,"duration":0.11580876562504727},{"name":"D3","midi":50,"time":653.9996729999542,"velocity":0.7244094488188977,"duration":0.23345576562508086},{"name":"G4","midi":67,"time":654.1173199999542,"velocity":0.7244094488188977,"duration":0.11580876562504727},{"name":"F#4","midi":66,"time":654.2349669999543,"velocity":0.7244094488188977,"duration":0.11580876562504727},{"name":"D2","midi":38,"time":654.2349669999543,"velocity":0.7244094488188977,"duration":0.11580876562504727},{"name":"G4","midi":67,"time":654.3526139999543,"velocity":0.7244094488188977,"duration":0.5147056250001469},{"name":"G2","midi":43,"time":654.3526139999543,"velocity":0.7244094488188977,"duration":0.11580876562504727},{"name":"B2","midi":47,"time":654.4702609999543,"velocity":0.7244094488188977,"duration":0.11580876562504727},{"name":"D3","midi":50,"time":654.5879079999544,"velocity":0.7244094488188977,"duration":0.11580876562504727},{"name":"G3","midi":55,"time":654.7055549999544,"velocity":0.7244094488188977,"duration":0.11580876562504727},{"name":"D3","midi":50,"time":654.8232019999544,"velocity":0.7244094488188977,"duration":0.11580876562504727},{"name":"B2","midi":47,"time":654.9408489999545,"velocity":0.7244094488188977,"duration":0.11580876562504727},{"name":"B4","midi":71,"time":655.0584959999545,"velocity":0.7244094488188977,"duration":0.07720584374999362},{"name":"G2","midi":43,"time":655.0584959999545,"velocity":0.7244094488188977,"duration":0.35110276562500076},{"name":"C5","midi":72,"time":655.1375400780795,"velocity":0.7244094488188977,"duration":0.07720584374999362},{"name":"D5","midi":74,"time":655.2165841562045,"velocity":0.7244094488188977,"duration":0.1930146093750409},{"name":"G4","midi":67,"time":655.4114369999545,"velocity":0.7244094488188977,"duration":0.23345576562496717},{"name":"G3","midi":55,"time":655.4114369999545,"velocity":0.7244094488188977,"duration":0.46874976562503434},{"name":"E5","midi":76,"time":655.6467309999545,"velocity":0.7244094488188977,"duration":0.11580876562504727},{"name":"A5","midi":81,"time":655.7643779999545,"velocity":0.7244094488188977,"duration":0.23345576562508086},{"name":"F#3","midi":54,"time":655.8820249999545,"velocity":0.7244094488188977,"duration":0.11580876562504727},{"name":"C#5","midi":73,"time":655.9996719999546,"velocity":0.7244094488188977,"duration":0.11580876562504727},{"name":"E3","midi":52,"time":655.9996719999546,"velocity":0.7244094488188977,"duration":0.11580876562504727},{"name":"D5","midi":74,"time":656.1173189999546,"velocity":0.7244094488188977,"duration":0.3124998437499471},{"name":"F#3","midi":54,"time":656.1173189999546,"velocity":0.7244094488188977,"duration":0.23345576562496717},{"name":"B3","midi":59,"time":656.3526129999545,"velocity":0.7244094488188977,"duration":0.11580876562504727},{"name":"C#5","midi":73,"time":656.4702599999546,"velocity":0.7244094488188977,"duration":0.11580876562504727},{"name":"E3","midi":52,"time":656.4702599999546,"velocity":0.7244094488188977,"duration":0.11580876562504727},{"name":"B4","midi":71,"time":656.5879069999546,"velocity":0.7244094488188977,"duration":0.11580876562504727},{"name":"F#3","midi":54,"time":656.5879069999546,"velocity":0.7244094488188977,"duration":0.11580876562504727},{"name":"A4","midi":69,"time":656.7055539999546,"velocity":0.7244094488188977,"duration":0.11580876562504727},{"name":"G3","midi":55,"time":656.7055539999546,"velocity":0.7244094488188977,"duration":0.11580876562504727},{"name":"G5","midi":79,"time":656.8232009999547,"velocity":0.7244094488188977,"duration":0.23345576562508086},{"name":"A3","midi":57,"time":656.8232009999547,"velocity":0.7244094488188977,"duration":0.11580876562504727},{"name":"B3","midi":59,"time":656.9408479999547,"velocity":0.7244094488188977,"duration":0.11580876562504727},{"name":"E5","midi":76,"time":657.0584949999547,"velocity":0.7244094488188977,"duration":0.11580876562504727},{"name":"C#4","midi":61,"time":657.0584949999547,"velocity":0.7244094488188977,"duration":0.11580876562504727},{"name":"F#5","midi":78,"time":657.1761419999548,"velocity":0.7244094488188977,"duration":0.23345576562496717},{"name":"D4","midi":62,"time":657.1761419999548,"velocity":0.7244094488188977,"duration":0.46874976562503434},{"name":"A5","midi":81,"time":657.4114359999547,"velocity":0.7244094488188977,"duration":0.11580876562504727},{"name":"D5","midi":74,"time":657.5290829999548,"velocity":0.7244094488188977,"duration":0.46874976562503434},{"name":"C4","midi":60,"time":657.6467299999548,"velocity":0.7244094488188977,"duration":0.0753676093750073},{"name":"B3","midi":59,"time":657.7239358437048,"velocity":0.7244094488188977,"duration":0.0753676093750073},{"name":"A3","midi":57,"time":657.8011416874548,"velocity":0.7244094488188977,"duration":0.07904407812497993},{"name":"B3","midi":59,"time":657.8820239999548,"velocity":0.7244094488188977,"duration":0.23345576562508086},{"name":"G5","midi":79,"time":657.9996709999548,"velocity":0.7244094488188977,"duration":0.11580876562504727},{"name":"D5","midi":74,"time":658.1173179999548,"velocity":0.7244094488188977,"duration":0.11580876562504727},{"name":"D4","midi":62,"time":658.1173179999548,"velocity":0.7244094488188977,"duration":0.11580876562504727},{"name":"B4","midi":71,"time":658.2349649999549,"velocity":0.7244094488188977,"duration":0.11580876562504727},{"name":"G3","midi":55,"time":658.2349649999549,"velocity":0.7244094488188977,"duration":0.46874976562514803},{"name":"G4","midi":67,"time":658.3526119999549,"velocity":0.7244094488188977,"duration":0.11580876562504727},{"name":"F#4","midi":66,"time":658.4702589999549,"velocity":0.7244094488188977,"duration":0.11580876562504727},{"name":"G4","midi":67,"time":658.587905999955,"velocity":0.7244094488188977,"duration":0.11580876562504727},{"name":"B4","midi":71,"time":658.705552999955,"velocity":0.7244094488188977,"duration":0.11580876562504727},{"name":"D3","midi":50,"time":658.705552999955,"velocity":0.7244094488188977,"duration":0.11580876562504727},{"name":"D5","midi":74,"time":658.823199999955,"velocity":0.7244094488188977,"duration":0.11580876562504727},{"name":"B2","midi":47,"time":658.823199999955,"velocity":0.7244094488188977,"duration":0.11580876562504727},{"name":"F5","midi":77,"time":658.940846999955,"velocity":0.7244094488188977,"duration":0.11580876562504727},{"name":"G2","midi":43,"time":658.940846999955,"velocity":0.7244094488188977,"duration":0.23345576562508086},{"name":"E5","midi":76,"time":659.0584939999551,"velocity":0.7244094488188977,"duration":0.11580876562504727},{"name":"D5","midi":74,"time":659.1761409999551,"velocity":0.7244094488188977,"duration":0.11580876562504727},{"name":"B3","midi":59,"time":659.1761409999551,"velocity":0.7244094488188977,"duration":0.11580876562504727},{"name":"E5","midi":76,"time":659.2937879999552,"velocity":0.7244094488188977,"duration":0.11580876562504727},{"name":"C4","midi":60,"time":659.2937879999552,"velocity":0.7244094488188977,"duration":0.23345576562508086},{"name":"A5","midi":81,"time":659.4114349999552,"velocity":0.7244094488188977,"duration":0.11580876562504727},{"name":"E5","midi":76,"time":659.5290819999552,"velocity":0.7244094488188977,"duration":0.11580876562504727},{"name":"E4","midi":64,"time":659.5290819999552,"velocity":0.7244094488188977,"duration":0.11580876562504727},{"name":"C#5","midi":73,"time":659.6467289999553,"velocity":0.7244094488188977,"duration":0.11580876562504727},{"name":"A3","midi":57,"time":659.6467289999553,"velocity":0.7244094488188977,"duration":0.46874976562514803},{"name":"A4","midi":69,"time":659.7643759999553,"velocity":0.7244094488188977,"duration":0.11580876562504727},{"name":"G#4","midi":68,"time":659.8820229999553,"velocity":0.7244094488188977,"duration":0.11580876562504727},{"name":"A4","midi":69,"time":659.9996699999554,"velocity":0.7244094488188977,"duration":0.11580876562504727},{"name":"C#5","midi":73,"time":660.1173169999554,"velocity":0.7244094488188977,"duration":0.11580876562504727},{"name":"E3","midi":52,"time":660.1173169999554,"velocity":0.7244094488188977,"duration":0.11580876562504727},{"name":"E5","midi":76,"time":660.2349639999554,"velocity":0.7244094488188977,"duration":0.11580876562504727},{"name":"C#3","midi":49,"time":660.2349639999554,"velocity":0.7244094488188977,"duration":0.11580876562504727},{"name":"G5","midi":79,"time":660.3526109999555,"velocity":0.7244094488188977,"duration":0.11580876562504727},{"name":"A2","midi":45,"time":660.3526109999555,"velocity":0.7244094488188977,"duration":0.23345576562508086},{"name":"F#5","midi":78,"time":660.4702579999555,"velocity":0.7244094488188977,"duration":0.11580876562504727},{"name":"E5","midi":76,"time":660.5879049999555,"velocity":0.7244094488188977,"duration":0.11580876562504727},{"name":"C#4","midi":61,"time":660.5879049999555,"velocity":0.7244094488188977,"duration":0.11580876562504727},{"name":"F#5","midi":78,"time":660.7055519999556,"velocity":0.7244094488188977,"duration":0.11580876562504727},{"name":"D4","midi":62,"time":660.7055519999556,"velocity":0.7244094488188977,"duration":0.23345576562508086},{"name":"B5","midi":83,"time":660.8231989999556,"velocity":0.7244094488188977,"duration":0.11580876562504727},{"name":"F#5","midi":78,"time":660.9408459999556,"velocity":0.7244094488188977,"duration":0.11580876562504727},{"name":"F#4","midi":66,"time":660.9408459999556,"velocity":0.7244094488188977,"duration":0.11580876562504727},{"name":"D#5","midi":75,"time":661.0584929999557,"velocity":0.7244094488188977,"duration":0.11580876562504727},{"name":"B3","midi":59,"time":661.0584929999557,"velocity":0.7244094488188977,"duration":0.46874976562514803},{"name":"B4","midi":71,"time":661.1761399999557,"velocity":0.7244094488188977,"duration":0.11580876562504727},{"name":"A#4","midi":70,"time":661.2937869999557,"velocity":0.7244094488188977,"duration":0.11580876562504727},{"name":"B4","midi":71,"time":661.4114339999558,"velocity":0.7244094488188977,"duration":0.11580876562504727},{"name":"D#5","midi":75,"time":661.5290809999558,"velocity":0.7244094488188977,"duration":0.11580876562504727},{"name":"F#3","midi":54,"time":661.5290809999558,"velocity":0.7244094488188977,"duration":0.11580876562504727},{"name":"F#5","midi":78,"time":661.6467279999558,"velocity":0.7244094488188977,"duration":0.11580876562504727},{"name":"D#3","midi":51,"time":661.6467279999558,"velocity":0.7244094488188977,"duration":0.11580876562504727},{"name":"A5","midi":81,"time":661.7643749999559,"velocity":0.7244094488188977,"duration":0.11580876562504727},{"name":"B2","midi":47,"time":661.7643749999559,"velocity":0.7244094488188977,"duration":0.2224263593750493},{"name":"G5","midi":79,"time":661.8820219999559,"velocity":0.7244094488188977,"duration":0.11580876562504727},{"name":"F#5","midi":78,"time":661.9996689999559,"velocity":0.7244094488188977,"duration":0.11580876562504727},{"name":"D#4","midi":63,"time":661.9996689999559,"velocity":0.7244094488188977,"duration":0.11580876562504727},{"name":"G5","midi":79,"time":662.117315999956,"velocity":0.7244094488188977,"duration":0.11580876562504727},{"name":"E4","midi":64,"time":662.117315999956,"velocity":0.7244094488188977,"duration":0.23345576562508086},{"name":"F#5","midi":78,"time":662.234962999956,"velocity":0.7244094488188977,"duration":0.11580876562504727},{"name":"E5","midi":76,"time":662.352609999956,"velocity":0.7244094488188977,"duration":0.11580876562504727},{"name":"A#3","midi":58,"time":662.352609999956,"velocity":0.7244094488188977,"duration":0.11580876562504727},{"name":"D5","midi":74,"time":662.4702569999561,"velocity":0.7244094488188977,"duration":0.11580876562504727},{"name":"B3","midi":59,"time":662.4702569999561,"velocity":0.7244094488188977,"duration":0.23345576562508086},{"name":"C#5","midi":73,"time":662.5879039999561,"velocity":0.7244094488188977,"duration":0.11580876562504727},{"name":"B4","midi":71,"time":662.7055509999561,"velocity":0.7244094488188977,"duration":0.11580876562504727},{"name":"G3","midi":55,"time":662.7055509999561,"velocity":0.7244094488188977,"duration":0.11580876562504727},{"name":"A#4","midi":70,"time":662.8231979999562,"velocity":0.7244094488188977,"duration":0.11580876562504727},{"name":"F#3","midi":54,"time":662.8231979999562,"velocity":0.7244094488188977,"duration":0.46874976562514803},{"name":"B4","midi":71,"time":662.9408449999562,"velocity":0.7244094488188977,"duration":0.11580876562504727},{"name":"C#5","midi":73,"time":663.0584919999562,"velocity":0.7244094488188977,"duration":0.11580876562504727},{"name":"F#4","midi":66,"time":663.1761389999563,"velocity":0.7244094488188977,"duration":0.11580876562504727},{"name":"G#4","midi":68,"time":663.2937859999563,"velocity":0.7244094488188977,"duration":0.11580876562504727},{"name":"E3","midi":52,"time":663.2937859999563,"velocity":0.7244094488188977,"duration":0.11580876562504727},{"name":"A#4","midi":70,"time":663.4114329999563,"velocity":0.7244094488188977,"duration":0.11580876562504727},{"name":"F#3","midi":54,"time":663.4114329999563,"velocity":0.7244094488188977,"duration":0.11580876562504727},{"name":"B4","midi":71,"time":663.5290799999564,"velocity":0.7244094488188977,"duration":0.11580876562504727},{"name":"G3","midi":55,"time":663.5290799999564,"velocity":0.7244094488188977,"duration":0.23345576562508086},{"name":"A#4","midi":70,"time":663.6467269999564,"velocity":0.7244094488188977,"duration":0.11580876562504727},{"name":"B4","midi":71,"time":663.7643739999564,"velocity":0.7244094488188977,"duration":0.11580876562504727},{"name":"B3","midi":59,"time":663.7643739999564,"velocity":0.7244094488188977,"duration":0.11580876562504727},{"name":"E5","midi":76,"time":663.8820209999565,"velocity":0.7244094488188977,"duration":0.11580876562504727},{"name":"A#3","midi":58,"time":663.8820209999565,"velocity":0.7244094488188977,"duration":0.23345576562508086},{"name":"D5","midi":74,"time":663.9996679999565,"velocity":0.7244094488188977,"duration":0.11580876562504727},{"name":"C#5","midi":73,"time":664.1173149999565,"velocity":0.7244094488188977,"duration":0.11580876562504727},{"name":"B3","midi":59,"time":664.1173149999565,"velocity":0.7244094488188977,"duration":0.11580876562504727},{"name":"B4","midi":71,"time":664.2349619999566,"velocity":0.7244094488188977,"duration":0.11580876562504727},{"name":"F#3","midi":54,"time":664.2349619999566,"velocity":0.7244094488188977,"duration":0.23345576562508086},{"name":"A#4","midi":70,"time":664.3526089999566,"velocity":0.7244094488188977,"duration":0.11580876562504727},{"name":"B4","midi":71,"time":664.4702559999566,"velocity":0.7244094488188977,"duration":0.11580876562504727},{"name":"B3","midi":59,"time":664.4702559999566,"velocity":0.7244094488188977,"duration":0.11580876562504727},{"name":"F#5","midi":78,"time":664.5879029999567,"velocity":0.7244094488188977,"duration":0.11580876562504727},{"name":"A#3","midi":58,"time":664.5879029999567,"velocity":0.7244094488188977,"duration":0.23345576562508086},{"name":"D5","midi":74,"time":664.7055499999567,"velocity":0.7244094488188977,"duration":0.11580876562504727},{"name":"C#5","midi":73,"time":664.8231969999567,"velocity":0.7244094488188977,"duration":0.11580876562504727},{"name":"B3","midi":59,"time":664.8231969999567,"velocity":0.7244094488188977,"duration":0.11580876562504727},{"name":"B4","midi":71,"time":664.9408439999568,"velocity":0.7244094488188977,"duration":0.11580876562504727},{"name":"E3","midi":52,"time":664.9408439999568,"velocity":0.7244094488188977,"duration":0.23345576562508086},{"name":"A#4","midi":70,"time":665.0584909999568,"velocity":0.7244094488188977,"duration":0.11580876562504727},{"name":"B4","midi":71,"time":665.1761379999568,"velocity":0.7244094488188977,"duration":0.11580876562504727},{"name":"B3","midi":59,"time":665.1761379999568,"velocity":0.7244094488188977,"duration":0.11580876562504727},{"name":"G5","midi":79,"time":665.2937849999569,"velocity":0.7244094488188977,"duration":0.11580876562504727},{"name":"A#3","midi":58,"time":665.2937849999569,"velocity":0.7244094488188977,"duration":0.23345576562508086},{"name":"D5","midi":74,"time":665.4114319999569,"velocity":0.7244094488188977,"duration":0.11580876562504727},{"name":"C#5","midi":73,"time":665.5290789999569,"velocity":0.7244094488188977,"duration":0.11580876562504727},{"name":"B3","midi":59,"time":665.5290789999569,"velocity":0.7244094488188977,"duration":0.11580876562504727},{"name":"B4","midi":71,"time":665.646725999957,"velocity":0.7244094488188977,"duration":0.11580876562504727},{"name":"D3","midi":50,"time":665.646725999957,"velocity":0.7244094488188977,"duration":0.23345576562508086},{"name":"A#4","midi":70,"time":665.764372999957,"velocity":0.7244094488188977,"duration":0.11580876562504727},{"name":"B4","midi":71,"time":665.882019999957,"velocity":0.7244094488188977,"duration":0.1654410937500188},{"name":"B3","midi":59,"time":665.882019999957,"velocity":0.7244094488188977,"duration":0.11580876562504727},{"name":"B5","midi":83,"time":665.9996669999571,"velocity":0.7244094488188977,"duration":0.11580876562493359},{"name":"A#3","midi":58,"time":665.9996669999571,"velocity":0.7244094488188977,"duration":0.23345576562496717},{"name":"A5","midi":81,"time":666.117313999957,"velocity":0.7244094488188977,"duration":0.11580876562504727},{"name":"G5","midi":79,"time":666.234960999957,"velocity":0.7244094488188977,"duration":0.11580876562504727},{"name":"B3","midi":59,"time":666.234960999957,"velocity":0.7244094488188977,"duration":0.11580876562504727},{"name":"G5","midi":79,"time":666.3526079999571,"velocity":0.7244094488188977,"duration":0.11580876562504727},{"name":"C#3","midi":49,"time":666.3526079999571,"velocity":0.7244094488188977,"duration":0.11580876562504727},{"name":"F#5","midi":78,"time":666.4702549999571,"velocity":0.7244094488188977,"duration":0.11580876562504727},{"name":"D3","midi":50,"time":666.4702549999571,"velocity":0.7244094488188977,"duration":0.11580876562504727},{"name":"E5","midi":76,"time":666.5879019999571,"velocity":0.7244094488188977,"duration":0.11580876562504727},{"name":"E3","midi":52,"time":666.5879019999571,"velocity":0.7244094488188977,"duration":0.11580876562504727},{"name":"E5","midi":76,"time":666.7055489999572,"velocity":0.7244094488188977,"duration":0.11580876562504727},{"name":"B2","midi":47,"time":666.7055489999572,"velocity":0.7244094488188977,"duration":0.23345576562508086},{"name":"D5","midi":74,"time":666.8231959999572,"velocity":0.7244094488188977,"duration":0.11580876562504727},{"name":"C#5","midi":73,"time":666.9408429999572,"velocity":0.7244094488188977,"duration":0.11580876562504727},{"name":"G3","midi":55,"time":666.9408429999572,"velocity":0.7244094488188977,"duration":0.11580876562504727},{"name":"C#5","midi":73,"time":667.0584899999573,"velocity":0.7244094488188977,"duration":0.11580876562504727},{"name":"A#2","midi":46,"time":667.0584899999573,"velocity":0.7244094488188977,"duration":0.23345576562508086},{"name":"B4","midi":71,"time":667.1761369999573,"velocity":0.7244094488188977,"duration":0.11580876562504727},{"name":"A#4","midi":70,"time":667.2937839999573,"velocity":0.7244094488188977,"duration":0.11580876562504727},{"name":"G3","midi":55,"time":667.2937839999573,"velocity":0.7244094488188977,"duration":0.11580876562504727},{"name":"A#4","midi":70,"time":667.4114309999574,"velocity":0.7244094488188977,"duration":0.11580876562504727},{"name":"F#3","midi":54,"time":667.4114309999574,"velocity":0.7244094488188977,"duration":0.35110276562511444},{"name":"G#4","midi":68,"time":667.5290779999574,"velocity":0.7244094488188977,"duration":0.11580876562504727},{"name":"F#4","midi":66,"time":667.6467249999574,"velocity":0.7244094488188977,"duration":0.11580876562504727},{"name":"F#4","midi":66,"time":667.7643719999575,"velocity":0.7244094488188977,"duration":0.11580876562504727},{"name":"D3","midi":50,"time":667.7643719999575,"velocity":0.7244094488188977,"duration":0.11580876562504727},{"name":"E4","midi":64,"time":667.8820189999575,"velocity":0.7244094488188977,"duration":0.11580876562504727},{"name":"C#3","midi":49,"time":667.8820189999575,"velocity":0.7244094488188977,"duration":0.11580876562504727},{"name":"D4","midi":62,"time":667.9996659999575,"velocity":0.7244094488188977,"duration":0.11580876562504727},{"name":"B2","midi":47,"time":667.9996659999575,"velocity":0.7244094488188977,"duration":0.11580876562504727},{"name":"D4","midi":62,"time":668.1173129999576,"velocity":0.7244094488188977,"duration":0.11580876562504727},{"name":"F#3","midi":54,"time":668.1173129999576,"velocity":0.7244094488188977,"duration":0.23345576562508086},{"name":"C#4","midi":61,"time":668.2349599999576,"velocity":0.7244094488188977,"duration":0.11580876562504727},{"name":"B3","midi":59,"time":668.3526069999576,"velocity":0.7244094488188977,"duration":0.11580876562504727},{"name":"F#2","midi":42,"time":668.3526069999576,"velocity":0.7244094488188977,"duration":0.11580876562504727},{"name":"B3","midi":59,"time":668.4702539999577,"velocity":0.7244094488188977,"duration":0.34926453125001444},{"name":"B2","midi":47,"time":668.4702539999577,"velocity":0.7244094488188977,"duration":0.11580876562504727},{"name":"D3","midi":50,"time":668.5879009999577,"velocity":0.7244094488188977,"duration":0.11580876562504727},{"name":"F#3","midi":54,"time":668.7055479999577,"velocity":0.7244094488188977,"duration":0.11580876562493359},{"name":"A3","midi":57,"time":668.8231949999576,"velocity":0.7244094488188977,"duration":0.11580876562504727},{"name":"G#3","midi":56,"time":668.9408419999577,"velocity":0.7244094488188977,"duration":0.11580876562493359},{"name":"A4","midi":69,"time":668.9463567030826,"velocity":0.7244094488188977,"duration":0.0753676093750073},{"name":"B4","midi":71,"time":669.0217243124576,"velocity":0.7244094488188977,"duration":0.0753676093750073},{"name":"F#3","midi":54,"time":669.0584889999576,"velocity":0.7244094488188977,"duration":0.11580876562504727},{"name":"C5","midi":72,"time":669.0970919218327,"velocity":0.7244094488188977,"duration":0.07904407812497993},{"name":"D5","midi":74,"time":669.1761359999576,"velocity":0.7244094488188977,"duration":0.11580876562504727},{"name":"G#3","midi":56,"time":669.1761359999576,"velocity":0.7244094488188977,"duration":0.11580876562504727},{"name":"C5","midi":72,"time":669.2937829999577,"velocity":0.7244094488188977,"duration":0.11580876562504727},{"name":"A3","midi":57,"time":669.2937829999577,"velocity":0.7244094488188977,"duration":0.11580876562504727},{"name":"B4","midi":71,"time":669.4114299999577,"velocity":0.7244094488188977,"duration":0.11580876562504727},{"name":"B3","midi":59,"time":669.4114299999577,"velocity":0.7244094488188977,"duration":0.11580876562504727},{"name":"F5","midi":77,"time":669.5290769999577,"velocity":0.7244094488188977,"duration":0.23345576562496717},{"name":"D3","midi":50,"time":669.5290769999577,"velocity":0.7244094488188977,"duration":0.46874976562503434},{"name":"A4","midi":69,"time":669.7643709999577,"velocity":0.7244094488188977,"duration":0.11580876562504727},{"name":"G#4","midi":68,"time":669.8820179999577,"velocity":0.7244094488188977,"duration":0.23345576562508086},{"name":"F3","midi":53,"time":669.9996649999578,"velocity":0.7244094488188977,"duration":0.11580876562504727},{"name":"B4","midi":71,"time":670.1173119999578,"velocity":0.7244094488188977,"duration":0.11580876562504727},{"name":"D3","midi":50,"time":670.1173119999578,"velocity":0.7244094488188977,"duration":0.11580876562504727},{"name":"D5","midi":74,"time":670.2349589999578,"velocity":0.7244094488188977,"duration":0.3124998437500608},{"name":"B2","midi":47,"time":670.2349589999578,"velocity":0.7244094488188977,"duration":0.11580876562504727},{"name":"D3","midi":50,"time":670.3526059999579,"velocity":0.7244094488188977,"duration":0.11580876562504727},{"name":"B2","midi":47,"time":670.4702529999579,"velocity":0.7244094488188977,"duration":0.11580876562504727},{"name":"F4","midi":65,"time":670.5878999999579,"velocity":0.7244094488188977,"duration":0.11580876562504727},{"name":"G#2","midi":44,"time":670.5878999999579,"velocity":0.7244094488188977,"duration":0.11580876562504727},{"name":"E4","midi":64,"time":670.705546999958,"velocity":0.7244094488188977,"duration":0.11580876562504727},{"name":"B2","midi":47,"time":670.705546999958,"velocity":0.7244094488188977,"duration":0.11580876562504727},{"name":"F4","midi":65,"time":670.823193999958,"velocity":0.7244094488188977,"duration":0.11580876562504727},{"name":"G#2","midi":44,"time":670.823193999958,"velocity":0.7244094488188977,"duration":0.11580876562504727},{"name":"D5","midi":74,"time":670.940840999958,"velocity":0.7244094488188977,"duration":0.11580876562504727},{"name":"E2","midi":40,"time":670.940840999958,"velocity":0.7244094488188977,"duration":0.23345576562508086},{"name":"C5","midi":72,"time":671.0584879999581,"velocity":0.7244094488188977,"duration":0.11580876562504727},{"name":"B4","midi":71,"time":671.1761349999581,"velocity":0.7244094488188977,"duration":0.11580876562504727},{"name":"G#3","midi":56,"time":671.1761349999581,"velocity":0.7244094488188977,"duration":0.11580876562504727},{"name":"E4","midi":64,"time":671.2937819999581,"velocity":0.7244094488188977,"duration":0.11580876562504727},{"name":"A3","midi":57,"time":671.2937819999581,"velocity":0.7244094488188977,"duration":0.11580876562504727},{"name":"D#4","midi":63,"time":671.4114289999582,"velocity":0.7244094488188977,"duration":0.11580876562504727},{"name":"B3","midi":59,"time":671.4114289999582,"velocity":0.7244094488188977,"duration":0.11580876562504727},{"name":"E4","midi":64,"time":671.5290759999582,"velocity":0.7244094488188977,"duration":0.11580876562504727},{"name":"C4","midi":60,"time":671.5290759999582,"velocity":0.7244094488188977,"duration":0.11580876562504727},{"name":"C5","midi":72,"time":671.6467229999582,"velocity":0.7244094488188977,"duration":0.11580876562504727},{"name":"G3","midi":55,"time":671.6467229999582,"velocity":0.7244094488188977,"duration":0.23345576562508086},{"name":"B4","midi":71,"time":671.7643699999583,"velocity":0.7244094488188977,"duration":0.11580876562504727},{"name":"A4","midi":69,"time":671.8820169999583,"velocity":0.7244094488188977,"duration":0.11580876562504727},{"name":"C4","midi":60,"time":671.8820169999583,"velocity":0.7244094488188977,"duration":0.11580876562504727},{"name":"D4","midi":62,"time":671.9996639999583,"velocity":0.7244094488188977,"duration":0.11580876562504727},{"name":"F#3","midi":54,"time":671.9996639999583,"velocity":0.7244094488188977,"duration":0.23345576562508086},{"name":"E4","midi":64,"time":672.1173109999584,"velocity":0.7244094488188977,"duration":0.11580876562504727},{"name":"D4","midi":62,"time":672.2349579999584,"velocity":0.7244094488188977,"duration":0.11580876562504727},{"name":"C4","midi":60,"time":672.2349579999584,"velocity":0.7244094488188977,"duration":0.11580876562504727},{"name":"C5","midi":72,"time":672.3526049999584,"velocity":0.7244094488188977,"duration":0.11580876562504727},{"name":"D#3","midi":51,"time":672.3526049999584,"velocity":0.7244094488188977,"duration":0.23345576562508086},{"name":"B4","midi":71,"time":672.4702519999585,"velocity":0.7244094488188977,"duration":0.11580876562504727},{"name":"A4","midi":69,"time":672.5878989999585,"velocity":0.7244094488188977,"duration":0.11580876562504727},{"name":"B3","midi":59,"time":672.5878989999585,"velocity":0.7244094488188977,"duration":0.11580876562504727},{"name":"G4","midi":67,"time":672.7055459999585,"velocity":0.7244094488188977,"duration":0.11580876562504727},{"name":"E3","midi":52,"time":672.7055459999585,"velocity":0.7244094488188977,"duration":0.23345576562508086},{"name":"F#4","midi":66,"time":672.8231929999586,"velocity":0.7244094488188977,"duration":0.11580876562504727},{"name":"G4","midi":67,"time":672.9408399999586,"velocity":0.7244094488188977,"duration":0.11580876562504727},{"name":"B3","midi":59,"time":672.9408399999586,"velocity":0.7244094488188977,"duration":0.11580876562504727},{"name":"B4","midi":71,"time":673.0584869999586,"velocity":0.7244094488188977,"duration":0.11580876562504727},{"name":"G3","midi":55,"time":673.0584869999586,"velocity":0.7244094488188977,"duration":0.23345576562508086},{"name":"D#5","midi":75,"time":673.1761339999587,"velocity":0.7244094488188977,"duration":0.11580876562504727},{"name":"E5","midi":76,"time":673.2937809999587,"velocity":0.7244094488188977,"duration":0.11580876562504727},{"name":"E3","midi":52,"time":673.2937809999587,"velocity":0.7244094488188977,"duration":0.11580876562504727},{"name":"A4","midi":69,"time":673.4114279999587,"velocity":0.7244094488188977,"duration":0.11580876562504727},{"name":"B2","midi":47,"time":673.4114279999587,"velocity":0.7244094488188977,"duration":0.23345576562508086},{"name":"B4","midi":71,"time":673.5290749999588,"velocity":0.7244094488188977,"duration":0.11580876562504727},{"name":"A4","midi":69,"time":673.6467219999588,"velocity":0.7244094488188977,"duration":0.11580876562504727},{"name":"A3","midi":57,"time":673.6467219999588,"velocity":0.7244094488188977,"duration":0.11580876562504727},{"name":"G5","midi":79,"time":673.7643689999588,"velocity":0.7244094488188977,"duration":0.11580876562504727},{"name":"C#3","midi":49,"time":673.7643689999588,"velocity":0.7244094488188977,"duration":0.23345576562508086},{"name":"F#5","midi":78,"time":673.8820159999589,"velocity":0.7244094488188977,"duration":0.11580876562504727},{"name":"E5","midi":76,"time":673.9996629999589,"velocity":0.7244094488188977,"duration":0.11580876562504727},{"name":"A#3","midi":58,"time":673.9996629999589,"velocity":0.7244094488188977,"duration":0.11580876562504727},{"name":"D#5","midi":75,"time":674.1173099999589,"velocity":0.7244094488188977,"duration":0.11580876562504727},{"name":"B3","midi":59,"time":674.1173099999589,"velocity":0.7244094488188977,"duration":0.4044115625000586},{"name":"E5","midi":76,"time":674.234956999959,"velocity":0.7244094488188977,"duration":0.11580876562504727},{"name":"F#5","midi":78,"time":674.352603999959,"velocity":0.7244094488188977,"duration":0.11580876562504727},{"name":"B4","midi":71,"time":674.470250999959,"velocity":0.7244094488188977,"duration":0.35110276562488707},{"name":"D#4","midi":63,"time":674.587897999959,"velocity":0.7244094488188977,"duration":0.0753676093750073},{"name":"E4","midi":64,"time":674.665103843709,"velocity":0.7244094488188977,"duration":0.0753676093750073},{"name":"F#4","midi":66,"time":674.7423096874589,"velocity":0.7244094488188977,"duration":0.07904407812497993},{"name":"E5","midi":76,"time":674.8231919999589,"velocity":0.7244094488188977,"duration":0.11580876562504727},{"name":"G4","midi":67,"time":674.8231919999589,"velocity":0.7244094488188977,"duration":0.11580876562504727},{"name":"F#5","midi":78,"time":674.9408389999589,"velocity":0.7244094488188977,"duration":0.11580876562504727},{"name":"F#4","midi":66,"time":674.9408389999589,"velocity":0.7244094488188977,"duration":0.11580876562504727},{"name":"G5","midi":79,"time":675.058485999959,"velocity":0.7244094488188977,"duration":0.11580876562504727},{"name":"E4","midi":64,"time":675.058485999959,"velocity":0.7244094488188977,"duration":0.11580876562504727},{"name":"B4","midi":71,"time":675.176132999959,"velocity":0.7244094488188977,"duration":0.23345576562508086},{"name":"E4","midi":64,"time":675.176132999959,"velocity":0.7244094488188977,"duration":0.11580876562504727},{"name":"D4","midi":62,"time":675.293779999959,"velocity":0.7244094488188977,"duration":0.11580876562504727},{"name":"G5","midi":79,"time":675.4114269999591,"velocity":0.7244094488188977,"duration":0.11580876562504727},{"name":"C#4","midi":61,"time":675.4114269999591,"velocity":0.7244094488188977,"duration":0.11580876562504727},{"name":"A4","midi":69,"time":675.5290739999591,"velocity":0.7244094488188977,"duration":0.23345576562508086},{"name":"C#4","midi":61,"time":675.5290739999591,"velocity":0.7244094488188977,"duration":0.11580876562504727},{"name":"B3","midi":59,"time":675.6467209999591,"velocity":0.7244094488188977,"duration":0.11580876562504727},{"name":"G5","midi":79,"time":675.7643679999592,"velocity":0.7244094488188977,"duration":0.11580876562504727},{"name":"A3","midi":57,"time":675.7643679999592,"velocity":0.7244094488188977,"duration":0.11580876562504727},{"name":"F#5","midi":78,"time":675.8820149999592,"velocity":0.7244094488188977,"duration":0.29411750000008396},{"name":"A3","midi":57,"time":675.8820149999592,"velocity":0.7244094488188977,"duration":0.11580876562504727},{"name":"G3","midi":55,"time":675.9996619999592,"velocity":0.7244094488188977,"duration":0.11580876562504727},{"name":"F#3","midi":54,"time":676.1173089999593,"velocity":0.7244094488188977,"duration":0.11580876562504727},{"name":"D5","midi":74,"time":676.2349559999593,"velocity":0.7244094488188977,"duration":0.11580876562504727},{"name":"F#3","midi":54,"time":676.2349559999593,"velocity":0.7244094488188977,"duration":0.11580876562504727},{"name":"C5","midi":72,"time":676.3526029999593,"velocity":0.7244094488188977,"duration":0.11580876562504727},{"name":"E3","midi":52,"time":676.3526029999593,"velocity":0.7244094488188977,"duration":0.11580876562504727},{"name":"B4","midi":71,"time":676.4702499999594,"velocity":0.7244094488188977,"duration":0.11580876562504727},{"name":"D3","midi":50,"time":676.4702499999594,"velocity":0.7244094488188977,"duration":0.11580876562504727},{"name":"F5","midi":77,"time":676.5878969999594,"velocity":0.7244094488188977,"duration":0.23345576562508086},{"name":"D3","midi":50,"time":676.5878969999594,"velocity":0.7244094488188977,"duration":0.11580876562504727},{"name":"C3","midi":48,"time":676.7055439999594,"velocity":0.7244094488188977,"duration":0.11580876562504727},{"name":"G4","midi":67,"time":676.8231909999595,"velocity":0.7244094488188977,"duration":0.11580876562504727},{"name":"B2","midi":47,"time":676.8231909999595,"velocity":0.7244094488188977,"duration":0.11580876562504727},{"name":"D5","midi":74,"time":676.9408379999595,"velocity":0.7244094488188977,"duration":0.23345576562508086},{"name":"B2","midi":47,"time":676.9408379999595,"velocity":0.7244094488188977,"duration":0.11580876562504727},{"name":"A2","midi":45,"time":677.0584849999595,"velocity":0.7244094488188977,"duration":0.11580876562504727},{"name":"F5","midi":77,"time":677.1761319999596,"velocity":0.7244094488188977,"duration":0.11580876562504727},{"name":"G2","midi":43,"time":677.1761319999596,"velocity":0.7244094488188977,"duration":0.11580876562504727},{"name":"E5","midi":76,"time":677.2937789999596,"velocity":0.7244094488188977,"duration":0.5863967656251816},{"name":"C3","midi":48,"time":677.2937789999596,"velocity":0.7244094488188977,"duration":0.11580876562504727},{"name":"G2","midi":43,"time":677.4114259999596,"velocity":0.7244094488188977,"duration":0.11580876562504727},{"name":"E2","midi":40,"time":677.5290729999597,"velocity":0.7244094488188977,"duration":0.11580876562504727},{"name":"C#2","midi":37,"time":677.6467199999597,"velocity":0.7244094488188977,"duration":0.11580876562504727},{"name":"E2","midi":40,"time":677.7643669999597,"velocity":0.7244094488188977,"duration":0.11580876562504727},{"name":"E5","midi":76,"time":677.8820139999598,"velocity":0.7244094488188977,"duration":0.11580876562504727},{"name":"G2","midi":43,"time":677.8820139999598,"velocity":0.7244094488188977,"duration":0.11580876562504727},{"name":"D#5","midi":75,"time":677.9996609999598,"velocity":0.7244094488188977,"duration":0.23345576562508086},{"name":"A#2","midi":46,"time":677.9996609999598,"velocity":0.7244094488188977,"duration":0.11580876562504727},{"name":"B2","midi":47,"time":678.1173079999598,"velocity":0.7244094488188977,"duration":0.11580876562504727},{"name":"E5","midi":76,"time":678.2349549999599,"velocity":0.7244094488188977,"duration":0.11580876562504727},{"name":"C#3","midi":49,"time":678.2349549999599,"velocity":0.7244094488188977,"duration":0.11580876562504727},{"name":"F#4","midi":66,"time":678.3526019999599,"velocity":0.7244094488188977,"duration":0.23345576562508086},{"name":"C3","midi":48,"time":678.3526019999599,"velocity":0.7244094488188977,"duration":0.11580876562504727},{"name":"D#3","midi":51,"time":678.47024899996,"velocity":0.7244094488188977,"duration":0.11580876562504727},{"name":"E5","midi":76,"time":678.58789599996,"velocity":0.7244094488188977,"duration":0.11580876562504727},{"name":"F#3","midi":54,"time":678.58789599996,"velocity":0.7244094488188977,"duration":0.11580876562504727},{"name":"D#5","midi":75,"time":678.70554299996,"velocity":0.7244094488188977,"duration":0.23345576562508086},{"name":"A3","midi":57,"time":678.70554299996,"velocity":0.7244094488188977,"duration":0.11580876562504727},{"name":"B3","midi":59,"time":678.82318999996,"velocity":0.7244094488188977,"duration":0.11580876562504727},{"name":"E5","midi":76,"time":678.9408369999601,"velocity":0.7244094488188977,"duration":0.11580876562504727},{"name":"C4","midi":60,"time":678.9408369999601,"velocity":0.7244094488188977,"duration":0.11580876562504727},{"name":"G4","midi":67,"time":679.0584839999601,"velocity":0.7244094488188977,"duration":0.23345576562508086},{"name":"B3","midi":59,"time":679.0584839999601,"velocity":0.7244094488188977,"duration":0.11580876562504727},{"name":"A3","midi":57,"time":679.1761309999602,"velocity":0.7244094488188977,"duration":0.11580876562504727},{"name":"E5","midi":76,"time":679.2937779999602,"velocity":0.7244094488188977,"duration":0.11580876562504727},{"name":"G3","midi":55,"time":679.2937779999602,"velocity":0.7244094488188977,"duration":0.11580876562504727},{"name":"D#5","midi":75,"time":679.4114249999602,"velocity":0.7244094488188977,"duration":0.23345576562508086},{"name":"F#3","midi":54,"time":679.4114249999602,"velocity":0.7244094488188977,"duration":0.11580876562504727},{"name":"G3","midi":55,"time":679.5290719999603,"velocity":0.7244094488188977,"duration":0.11580876562504727},{"name":"E5","midi":76,"time":679.6467189999603,"velocity":0.7244094488188977,"duration":0.11580876562504727},{"name":"E3","midi":52,"time":679.6467189999603,"velocity":0.7244094488188977,"duration":0.11580876562504727},{"name":"A4","midi":69,"time":679.7643659999603,"velocity":0.7244094488188977,"duration":0.23345576562508086},{"name":"C4","midi":60,"time":679.7643659999603,"velocity":0.7244094488188977,"duration":0.11580876562504727},{"name":"B3","midi":59,"time":679.8820129999604,"velocity":0.7244094488188977,"duration":0.11580876562504727},{"name":"E5","midi":76,"time":679.9996599999604,"velocity":0.7244094488188977,"duration":0.11580876562504727},{"name":"A3","midi":57,"time":679.9996599999604,"velocity":0.7244094488188977,"duration":0.11580876562504727},{"name":"D#5","midi":75,"time":680.1173069999604,"velocity":0.7244094488188977,"duration":0.23345576562508086},{"name":"G3","midi":55,"time":680.1173069999604,"velocity":0.7244094488188977,"duration":0.11580876562504727},{"name":"F#3","midi":54,"time":680.2349539999605,"velocity":0.7244094488188977,"duration":0.11580876562504727},{"name":"E5","midi":76,"time":680.3526009999605,"velocity":0.7244094488188977,"duration":0.11580876562504727},{"name":"E3","midi":52,"time":680.3526009999605,"velocity":0.7244094488188977,"duration":0.11580876562504727},{"name":"B4","midi":71,"time":680.4702479999605,"velocity":0.7244094488188977,"duration":0.11580876562504727},{"name":"D#3","midi":51,"time":680.4702479999605,"velocity":0.7244094488188977,"duration":0.23345576562508086},{"name":"C#5","midi":73,"time":680.5878949999606,"velocity":0.7244094488188977,"duration":0.11580876562504727},{"name":"D#5","midi":75,"time":680.7055419999606,"velocity":0.7244094488188977,"duration":0.11580876562504727},{"name":"B2","midi":47,"time":680.7055419999606,"velocity":0.7244094488188977,"duration":0.11580876562504727},{"name":"D#5","midi":75,"time":680.8231889999606,"velocity":0.7244094488188977,"duration":0.11580876562504727},{"name":"F#3","midi":54,"time":680.8231889999606,"velocity":0.7244094488188977,"duration":0.23345576562508086},{"name":"E5","midi":76,"time":680.9408359999607,"velocity":0.7244094488188977,"duration":0.11580876562504727},{"name":"F#5","midi":78,"time":681.0584829999607,"velocity":0.7244094488188977,"duration":0.11580876562504727},{"name":"B2","midi":47,"time":681.0584829999607,"velocity":0.7244094488188977,"duration":0.11580876562504727},{"name":"F#5","midi":78,"time":681.1761299999607,"velocity":0.7244094488188977,"duration":0.11580876562504727},{"name":"A3","midi":57,"time":681.1761299999607,"velocity":0.7244094488188977,"duration":0.23345576562508086},{"name":"G5","midi":79,"time":681.2937769999608,"velocity":0.7244094488188977,"duration":0.11580876562504727},{"name":"A5","midi":81,"time":681.4114239999608,"velocity":0.7244094488188977,"duration":0.11580876562504727},{"name":"D#3","midi":51,"time":681.4114239999608,"velocity":0.7244094488188977,"duration":0.11580876562504727},{"name":"B5","midi":83,"time":681.5290709999608,"velocity":0.7244094488188977,"duration":0.11580876562504727},{"name":"G3","midi":55,"time":681.5290709999608,"velocity":0.7244094488188977,"duration":0.23345576562508086},{"name":"A5","midi":81,"time":681.6467179999609,"velocity":0.7244094488188977,"duration":0.11580876562504727},{"name":"G5","midi":79,"time":681.7643649999609,"velocity":0.7244094488188977,"duration":0.11580876562504727},{"name":"E3","midi":52,"time":681.7643649999609,"velocity":0.7244094488188977,"duration":0.11580876562504727},{"name":"F#5","midi":78,"time":681.8820119999609,"velocity":0.7244094488188977,"duration":0.11580876562504727},{"name":"A3","midi":57,"time":681.8820119999609,"velocity":0.7244094488188977,"duration":0.11580876562504727},{"name":"G5","midi":79,"time":681.999658999961,"velocity":0.7244094488188977,"duration":0.11580876562504727},{"name":"B3","midi":59,"time":681.999658999961,"velocity":0.7244094488188977,"duration":0.11580876562504727},{"name":"E5","midi":76,"time":682.117305999961,"velocity":0.7244094488188977,"duration":0.11580876562504727},{"name":"C4","midi":60,"time":682.117305999961,"velocity":0.7244094488188977,"duration":0.11580876562504727},{"name":"B4","midi":71,"time":682.234952999961,"velocity":0.7244094488188977,"duration":0.11580876562504727},{"name":"B3","midi":59,"time":682.234952999961,"velocity":0.7244094488188977,"duration":0.11580876562504727},{"name":"E5","midi":76,"time":682.3525999999611,"velocity":0.7244094488188977,"duration":0.11580876562504727},{"name":"C4","midi":60,"time":682.3525999999611,"velocity":0.7244094488188977,"duration":0.11580876562504727},{"name":"D#5","midi":75,"time":682.4702469999611,"velocity":0.7244094488188977,"duration":0.11580876562504727},{"name":"B3","midi":59,"time":682.4702469999611,"velocity":0.7244094488188977,"duration":0.11580876562504727},{"name":"D#5","midi":75,"time":682.5878939999611,"velocity":0.7244094488188977,"duration":0.23345576562508086},{"name":"E3","midi":52,"time":682.5878939999611,"velocity":0.7244094488188977,"duration":0.11580876562504727},{"name":"G3","midi":55,"time":682.7055409999612,"velocity":0.7244094488188977,"duration":0.11580876562504727},{"name":"E5","midi":76,"time":682.8231879999612,"velocity":0.7244094488188977,"duration":1.409925765624962},{"name":"B3","midi":59,"time":682.8231879999612,"velocity":0.7244094488188977,"duration":0.11580876562504727},{"name":"E4","midi":64,"time":682.9408349999612,"velocity":0.7244094488188977,"duration":1.2261023281249663},{"name":"E4","midi":64,"time":687.5290679999612,"velocity":0.7244094488188977,"duration":0.15624992187497355},{"name":"F#4","midi":66,"time":687.7055384999611,"velocity":0.7244094488188977,"duration":0.4779409374999659},{"name":"D#4","midi":63,"time":688.234949999961,"velocity":0.7244094488188977,"duration":0.15624992187497355},{"name":"C5","midi":72,"time":688.411420499961,"velocity":0.7244094488188977,"duration":0.4779409374999659},{"name":"A4","midi":69,"time":688.9408319999609,"velocity":0.7244094488188977,"duration":0.16176462500004618},{"name":"B4","midi":71,"time":689.1173024999609,"velocity":0.7244094488188977,"duration":0.4779409374999659},{"name":"G#4","midi":68,"time":689.6467139999609,"velocity":0.7244094488188977,"duration":0.16176462500004618},{"name":"F5","midi":77,"time":689.8231844999609,"velocity":0.7244094488188977,"duration":0.4779409374999659},{"name":"D#5","midi":75,"time":690.3525959999608,"velocity":0.7244094488188977,"duration":0.1654410937500188},{"name":"E5","midi":76,"time":690.5290664999609,"velocity":0.7244094488188977,"duration":0.4779409374999659},{"name":"A4","midi":69,"time":691.0584779999608,"velocity":0.7244094488188977,"duration":0.17095579687497775},{"name":"G4","midi":67,"time":691.2349484999608,"velocity":0.7244094488188977,"duration":0.7022055312500015},{"name":"G4","midi":67,"time":691.9408304999607,"velocity":0.7244094488188977,"duration":0.08455878125005256},{"name":"F#4","midi":66,"time":692.0290657499608,"velocity":0.7244094488188977,"duration":0.08455878125005256},{"name":"G4","midi":67,"time":692.1173009999608,"velocity":0.7244094488188977,"duration":0.08455878125005256},{"name":"F#4","midi":66,"time":692.2055362499608,"velocity":0.7244094488188977,"duration":0.08455878125005256},{"name":"G4","midi":67,"time":692.2937714999608,"velocity":0.7244094488188977,"duration":0.08455878125005256},{"name":"F#4","midi":66,"time":692.3820067499609,"velocity":0.7244094488188977,"duration":0.08455878125005256},{"name":"G4","midi":67,"time":692.4702419999609,"velocity":0.7244094488188977,"duration":0.08455878125005256},{"name":"F#4","midi":66,"time":692.5584772499609,"velocity":0.7244094488188977,"duration":0.08455878125005256},{"name":"E4","midi":64,"time":692.6467124999609,"velocity":0.7244094488188977,"duration":0.17279403124996406},{"name":"F#4","midi":66,"time":692.8231829999609,"velocity":0.7244094488188977,"duration":0.17279403124996406},{"name":"G4","midi":67,"time":692.9996534999608,"velocity":0.7244094488188977,"duration":0.5257350312500648},{"name":"B4","midi":71,"time":693.1761239999609,"velocity":0.7244094488188977,"duration":0.16176462500004618},{"name":"C#5","midi":73,"time":693.3525944999609,"velocity":0.7244094488188977,"duration":0.49632328124982905},{"name":"E4","midi":64,"time":693.5290649999608,"velocity":0.7244094488188977,"duration":0.17279403124996406},{"name":"F#4","midi":66,"time":693.7055354999608,"velocity":0.7244094488188977,"duration":0.5257350312499511},{"name":"A#4","midi":70,"time":693.8820059999607,"velocity":0.7244094488188977,"duration":0.16176462500004618},{"name":"G5","midi":79,"time":694.0584764999608,"velocity":0.7244094488188977,"duration":0.49632328124982905},{"name":"D#4","midi":63,"time":694.2349469999607,"velocity":0.7244094488188977,"duration":0.17279403124996406},{"name":"E4","midi":64,"time":694.4114174999606,"velocity":0.7244094488188977,"duration":0.5257350312499511},{"name":"E5","midi":76,"time":694.5878879999606,"velocity":0.7244094488188977,"duration":0.16176462500004618},{"name":"F#5","midi":78,"time":694.7643584999606,"velocity":0.7244094488188977,"duration":0.49632328124982905},{"name":"A3","midi":57,"time":694.9408289999606,"velocity":0.7244094488188977,"duration":0.17279403124996406},{"name":"A4","midi":69,"time":695.1172994999605,"velocity":0.7244094488188977,"duration":0.5257350312499511},{"name":"D#5","midi":75,"time":695.2937699999604,"velocity":0.7244094488188977,"duration":0.16176462500004618},{"name":"C6","midi":84,"time":695.4702404999605,"velocity":0.7244094488188977,"duration":0.49632328124982905},{"name":"F#4","midi":66,"time":695.6467109999604,"velocity":0.7244094488188977,"duration":0.17279403124996406},{"name":"G4","midi":67,"time":695.8231814999604,"velocity":0.7244094488188977,"duration":0.5257350312499511},{"name":"A#5","midi":82,"time":695.9996519999603,"velocity":0.7244094488188977,"duration":0.16176462500004618},{"name":"B5","midi":83,"time":696.1761224999603,"velocity":0.7244094488188977,"duration":0.49632328124982905},{"name":"E4","midi":64,"time":696.3525929999603,"velocity":0.7244094488188977,"duration":0.17279403124996406},{"name":"F#4","midi":66,"time":696.5290634999602,"velocity":0.7244094488188977,"duration":0.5257350312499511},{"name":"E5","midi":76,"time":696.7055339999602,"velocity":0.7244094488188977,"duration":0.16176462500004618},{"name":"D5","midi":74,"time":696.8820044999602,"velocity":0.7244094488188977,"duration":0.7022055312498878},{"name":"B3","midi":59,"time":697.0584749999601,"velocity":0.7244094488188977,"duration":0.17279403124996406},{"name":"B4","midi":71,"time":697.2349454999601,"velocity":0.7244094488188977,"duration":0.5257350312500648},{"name":"D5","midi":74,"time":697.5878864999601,"velocity":0.7244094488188977,"duration":0.08455878125005256},{"name":"C#5","midi":73,"time":697.6761217499601,"velocity":0.7244094488188977,"duration":0.08455878125005256},{"name":"G#4","midi":68,"time":697.7643569999601,"velocity":0.7244094488188977,"duration":0.17279403125007775},{"name":"D5","midi":74,"time":697.7643569999601,"velocity":0.7244094488188977,"duration":0.08455878125005256},{"name":"C#5","midi":73,"time":697.8525922499601,"velocity":0.7244094488188977,"duration":0.08455878125005256},{"name":"A#4","midi":70,"time":697.9408274999602,"velocity":0.7244094488188977,"duration":0.34926453125012813},{"name":"D5","midi":74,"time":697.9408274999602,"velocity":0.7244094488188977,"duration":0.08455878125005256},{"name":"C#5","midi":73,"time":698.0290627499602,"velocity":0.7244094488188977,"duration":0.08455878125005256},{"name":"B4","midi":71,"time":698.1172979999602,"velocity":0.7244094488188977,"duration":0.08455878125005256},{"name":"C#5","midi":73,"time":698.2055332499602,"velocity":0.7244094488188977,"duration":0.08455878125005256},{"name":"B4","midi":71,"time":698.2937684999603,"velocity":0.7244094488188977,"duration":0.5257350312499511},{"name":"C#5","midi":73,"time":698.4702389999603,"velocity":0.7244094488188977,"duration":0.17279403124996406},{"name":"D5","midi":74,"time":698.6467094999603,"velocity":0.7244094488188977,"duration":0.5257350312498374},{"name":"A4","midi":69,"time":698.8231799999602,"velocity":0.7244094488188977,"duration":0.17279403124996406},{"name":"G#4","midi":68,"time":698.9996504999601,"velocity":0.7244094488188977,"duration":0.5257350312498374},{"name":"F4","midi":65,"time":699.1761209999601,"velocity":0.7244094488188977,"duration":0.17279403124996406},{"name":"D5","midi":74,"time":699.35259149996,"velocity":0.7244094488188977,"duration":0.5257350312498374},{"name":"E4","midi":64,"time":699.5290619999599,"velocity":0.7244094488188977,"duration":0.17279403124996406},{"name":"A4","midi":69,"time":699.7055324999599,"velocity":0.7244094488188977,"duration":0.5257350312498374},{"name":"B4","midi":71,"time":699.8820029999598,"velocity":0.7244094488188977,"duration":0.17279403124996406},{"name":"C5","midi":72,"time":700.0584734999597,"velocity":0.7244094488188977,"duration":0.5257350312498374},{"name":"G4","midi":67,"time":700.2349439999597,"velocity":0.7244094488188977,"duration":0.17279403124996406},{"name":"F#4","midi":66,"time":700.4114144999596,"velocity":0.7244094488188977,"duration":0.5257350312498374},{"name":"D#4","midi":63,"time":700.5878849999596,"velocity":0.7244094488188977,"duration":0.17279403124996406},{"name":"C5","midi":72,"time":700.7643554999595,"velocity":0.7244094488188977,"duration":0.5257350312498374},{"name":"D4","midi":62,"time":700.9408259999594,"velocity":0.7244094488188977,"duration":0.17279403124996406},{"name":"G4","midi":67,"time":701.1172964999594,"velocity":0.7244094488188977,"duration":0.5257350312498374},{"name":"A4","midi":69,"time":701.2937669999593,"velocity":0.7244094488188977,"duration":0.17279403124996406},{"name":"B4","midi":71,"time":701.4702374999592,"velocity":0.7244094488188977,"duration":0.5257350312498374},{"name":"F#4","midi":66,"time":701.6467079999592,"velocity":0.7244094488188977,"duration":0.17279403124996406},{"name":"E4","midi":64,"time":701.8231784999591,"velocity":0.7244094488188977,"duration":0.5257350312498374},{"name":"F#5","midi":78,"time":701.999648999959,"velocity":0.7244094488188977,"duration":0.17279403124996406},{"name":"G5","midi":79,"time":702.176119499959,"velocity":0.7244094488188977,"duration":0.5257350312498374},{"name":"C#4","midi":61,"time":702.3525899999589,"velocity":0.7244094488188977,"duration":0.17279403124996406},{"name":"F#4","midi":66,"time":702.5290604999589,"velocity":0.7244094488188977,"duration":0.5257350312498374},{"name":"G4","midi":67,"time":702.7055309999588,"velocity":0.7244094488188977,"duration":0.17279403124996406},{"name":"A4","midi":69,"time":702.8820014999587,"velocity":0.7244094488188977,"duration":0.5257350312498374},{"name":"E4","midi":64,"time":703.0584719999587,"velocity":0.7244094488188977,"duration":0.17279403124996406},{"name":"D#4","midi":63,"time":703.2349424999586,"velocity":0.7244094488188977,"duration":0.5257350312498374},{"name":"E5","midi":76,"time":703.4114129999585,"velocity":0.7244094488188977,"duration":0.17279403124996406},{"name":"F#5","midi":78,"time":703.5878834999585,"velocity":0.7244094488188977,"duration":0.5257350312498374},{"name":"B3","midi":59,"time":703.7643539999584,"velocity":0.7244094488188977,"duration":0.17279403124996406},{"name":"E4","midi":64,"time":703.9408244999584,"velocity":0.7244094488188977,"duration":0.7022055312497741},{"name":"F#4","midi":66,"time":704.1172949999583,"velocity":0.7244094488188977,"duration":0.17279403124996406},{"name":"G4","midi":67,"time":704.2937654999582,"velocity":0.7244094488188977,"duration":0.17279403124996406},{"name":"E3","midi":52,"time":704.4702359999582,"velocity":0.7244094488188977,"duration":0.17279403124996406},{"name":"C5","midi":72,"time":704.4702359999582,"velocity":0.7244094488188977,"duration":0.34926453124990076},{"name":"F#3","midi":54,"time":704.6467064999581,"velocity":0.7244094488188977,"duration":0.5257350312498374},{"name":"D#4","midi":63,"time":704.6467064999581,"velocity":0.7244094488188977,"duration":0.5257350312498374},{"name":"A4","midi":69,"time":704.823176999958,"velocity":0.7244094488188977,"duration":0.17279403124996406},{"name":"B4","midi":71,"time":704.999647499958,"velocity":0.7244094488188977,"duration":0.5257350312498374},{"name":"D#3","midi":51,"time":705.1761179999579,"velocity":0.7244094488188977,"duration":0.17279403124996406},{"name":"F#4","midi":66,"time":705.1761179999579,"velocity":0.7244094488188977,"duration":0.17279403124996406},{"name":"C4","midi":60,"time":705.3525884999578,"velocity":0.7244094488188977,"duration":0.5257350312498374},{"name":"E4","midi":64,"time":705.3525884999578,"velocity":0.7244094488188977,"duration":0.5257350312498374},{"name":"G#4","midi":68,"time":705.5290589999578,"velocity":0.7244094488188977,"duration":0.17279403124996406},{"name":"A4","midi":69,"time":705.7055294999577,"velocity":0.7244094488188977,"duration":0.7022055312497741},{"name":"A3","midi":57,"time":705.8819999999577,"velocity":0.7244094488188977,"duration":0.17279403124996406},{"name":"C5","midi":72,"time":705.8819999999577,"velocity":0.7244094488188977,"duration":0.17279403124996406},{"name":"B3","midi":59,"time":706.0584704999576,"velocity":0.7244094488188977,"duration":0.5257350312498374},{"name":"F4","midi":65,"time":706.0584704999576,"velocity":0.7244094488188977,"duration":0.17279403124996406},{"name":"D4","midi":62,"time":706.2349409999575,"velocity":0.7244094488188977,"duration":0.34926453124990076},{"name":"D5","midi":74,"time":706.4114114999575,"velocity":0.7244094488188977,"duration":0.5257350312498374},{"name":"G#3","midi":56,"time":706.5878819999574,"velocity":0.7244094488188977,"duration":0.17279403124996406},{"name":"B4","midi":71,"time":706.5878819999574,"velocity":0.7244094488188977,"duration":0.17279403124996406},{"name":"F4","midi":65,"time":706.7643524999573,"velocity":0.7244094488188977,"duration":0.5257350312498374},{"name":"G#4","midi":68,"time":706.7643524999573,"velocity":0.7244094488188977,"duration":0.5257350312498374},{"name":"B4","midi":71,"time":706.9408229999573,"velocity":0.7244094488188977,"duration":0.17279403124996406},{"name":"C5","midi":72,"time":707.1172934999572,"velocity":0.7244094488188977,"duration":0.5257350312499511},{"name":"D#4","midi":63,"time":707.2937639999572,"velocity":0.7244094488188977,"duration":0.17279403125007775},{"name":"A4","midi":69,"time":707.2937639999572,"velocity":0.7244094488188977,"duration":0.08455878125005256},{"name":"F#4","midi":66,"time":707.3819992499572,"velocity":0.7244094488188977,"duration":0.08455878125005256},{"name":"E4","midi":64,"time":707.4702344999572,"velocity":0.7244094488188977,"duration":0.5257350312498374},{"name":"G4","midi":67,"time":707.4702344999572,"velocity":0.7244094488188977,"duration":0.5257350312498374},{"name":"A4","midi":69,"time":707.6467049999571,"velocity":0.7244094488188977,"duration":0.17279403124996406},{"name":"B4","midi":71,"time":707.8231754999571,"velocity":0.7244094488188977,"duration":0.5257350312498374},{"name":"A3","midi":57,"time":707.999645999957,"velocity":0.7244094488188977,"duration":0.17279403124996406},{"name":"D#5","midi":75,"time":707.999645999957,"velocity":0.7244094488188977,"duration":0.17279403124996406},{"name":"G3","midi":55,"time":708.176116499957,"velocity":0.7244094488188977,"duration":0.7022055312498878},{"name":"E5","midi":76,"time":708.176116499957,"velocity":0.7244094488188977,"duration":0.34926453124990076},{"name":"E4","midi":64,"time":708.3525869999569,"velocity":0.7244094488188977,"duration":0.17279403124996406},{"name":"E5","midi":76,"time":708.5290574999568,"velocity":0.7244094488188977,"duration":0.5257350312499511},{"name":"C5","midi":72,"time":708.7055279999569,"velocity":0.7244094488188977,"duration":0.17279403124996406},{"name":"G3","midi":55,"time":708.8819984999568,"velocity":0.7244094488188977,"duration":0.11397053124994727},{"name":"A4","midi":69,"time":708.8819984999568,"velocity":0.7244094488188977,"duration":0.5257350312498374},{"name":"F#3","midi":54,"time":708.9996454999567,"velocity":0.7244094488188977,"duration":0.11397053125006096},{"name":"C#5","midi":73,"time":709.0584689999567,"velocity":0.7244094488188977,"duration":0.17279403124996406},{"name":"G3","midi":55,"time":709.1172924999568,"velocity":0.7244094488188977,"duration":0.11397053124994727},{"name":"F#3","midi":54,"time":709.2349394999567,"velocity":0.7244094488188977,"duration":0.11397053124994727},{"name":"D#5","midi":75,"time":709.2349394999567,"velocity":0.7244094488188977,"duration":0.34926453124990076},{"name":"E3","midi":52,"time":709.3525864999566,"velocity":0.7244094488188977,"duration":0.11397053125006096},{"name":"B4","midi":71,"time":709.4114099999566,"velocity":0.7244094488188977,"duration":0.17279403124996406},{"name":"F#3","midi":54,"time":709.4702334999566,"velocity":0.7244094488188977,"duration":0.11397053124994727},{"name":"E3","midi":52,"time":709.5878804999566,"velocity":0.7244094488188977,"duration":0.34926453125001444},{"name":"G4","midi":67,"time":709.5878804999566,"velocity":0.7244094488188977,"duration":0.34926453125001444},{"name":"E5","midi":76,"time":709.5878804999566,"velocity":0.7244094488188977,"duration":0.5257350312499511},{"name":"E2","midi":40,"time":709.7643509999566,"velocity":0.7244094488188977,"duration":0.17279403124996406},{"name":"E3","midi":52,"time":709.9408214999565,"velocity":0.7244094488188977,"duration":0.5257350312498374},{"name":"B4","midi":71,"time":709.9408214999565,"velocity":0.7244094488188977,"duration":0.34926453124990076},{"name":"G5","midi":79,"time":710.1172919999565,"velocity":0.7244094488188977,"duration":0.17279403124996406},{"name":"A4","midi":69,"time":710.2937624999564,"velocity":0.7244094488188977,"duration":0.34926453124990076},{"name":"F#5","midi":78,"time":710.2937624999564,"velocity":0.7244094488188977,"duration":0.5257350312498374},{"name":"C#3","midi":49,"time":710.4702329999564,"velocity":0.7244094488188977,"duration":0.17279403124996406},{"name":"D3","midi":50,"time":710.6467034999563,"velocity":0.7244094488188977,"duration":0.43749978124992595},{"name":"B4","midi":71,"time":710.6467034999563,"velocity":0.7244094488188977,"duration":0.34926453124990076},{"name":"B5","midi":83,"time":710.8231739999562,"velocity":0.7244094488188977,"duration":0.17279403124996406},{"name":"G#4","midi":68,"time":710.9996444999562,"velocity":0.7244094488188977,"duration":0.34926453125001444},{"name":"E5","midi":76,"time":710.9996444999562,"velocity":0.7244094488188977,"duration":0.5257350312500648},{"name":"C#3","midi":49,"time":711.0878797499562,"velocity":0.7244094488188977,"duration":0.08455878125005256},{"name":"B2","midi":47,"time":711.1761149999562,"velocity":0.7244094488188977,"duration":0.17279403124996406},{"name":"C#3","midi":49,"time":711.3525854999561,"velocity":0.7244094488188977,"duration":0.08455878125005256},{"name":"A4","midi":69,"time":711.3525854999561,"velocity":0.7244094488188977,"duration":0.5257350312500648},{"name":"B2","midi":47,"time":711.4408207499562,"velocity":0.7244094488188977,"duration":0.08455878125005256},{"name":"A2","midi":45,"time":711.5290559999562,"velocity":0.7244094488188977,"duration":0.17279403124996406},{"name":"A5","midi":81,"time":711.5290559999562,"velocity":0.7244094488188977,"duration":0.17279403124996406},{"name":"A3","midi":57,"time":711.7055264999561,"velocity":0.7244094488188977,"duration":0.08455878125005256},{"name":"C#5","midi":73,"time":711.7055264999561,"velocity":0.7244094488188977,"duration":0.5257350312500648},{"name":"G3","midi":55,"time":711.7937617499562,"velocity":0.7244094488188977,"duration":0.08455878125005256},{"name":"F#3","midi":54,"time":711.8819969999562,"velocity":0.7244094488188977,"duration":0.17279403124996406},{"name":"E5","midi":76,"time":711.8819969999562,"velocity":0.7244094488188977,"duration":0.17279403124996406},{"name":"G3","midi":55,"time":712.0584674999561,"velocity":0.7244094488188977,"duration":0.08455878125005256},{"name":"A4","midi":69,"time":712.0584674999561,"velocity":0.7244094488188977,"duration":0.7022055312500015},{"name":"F#3","midi":54,"time":712.1467027499561,"velocity":0.7244094488188977,"duration":0.08455878125005256},{"name":"E3","midi":52,"time":712.2349379999562,"velocity":0.7244094488188977,"duration":0.17279403124996406},{"name":"G5","midi":79,"time":712.2349379999562,"velocity":0.7244094488188977,"duration":0.17279403124996406},{"name":"D3","midi":50,"time":712.4114084999561,"velocity":0.7244094488188977,"duration":0.34926453125001444},{"name":"F#5","midi":78,"time":712.4114084999561,"velocity":0.7244094488188977,"duration":0.5257350312499511},{"name":"D2","midi":38,"time":712.5878789999562,"velocity":0.7244094488188977,"duration":0.17279403124996406},{"name":"D3","midi":50,"time":712.7643494999561,"velocity":0.7244094488188977,"duration":0.5257350312498374},{"name":"B4","midi":71,"time":712.7643494999561,"velocity":0.7244094488188977,"duration":0.34926453124990076},{"name":"F#5","midi":78,"time":712.940819999956,"velocity":0.7244094488188977,"duration":0.17279403124996406},{"name":"G4","midi":67,"time":713.117290499956,"velocity":0.7244094488188977,"duration":0.34926453124990076},{"name":"E5","midi":76,"time":713.117290499956,"velocity":0.7244094488188977,"duration":0.5257350312498374},{"name":"B2","midi":47,"time":713.2937609999559,"velocity":0.7244094488188977,"duration":0.17279403124996406},{"name":"C3","midi":48,"time":713.4702314999558,"velocity":0.7244094488188977,"duration":0.43749978124992595},{"name":"A4","midi":69,"time":713.4702314999558,"velocity":0.7244094488188977,"duration":0.34926453124990076},{"name":"A5","midi":81,"time":713.6467019999558,"velocity":0.7244094488188977,"duration":0.17279403124996406},{"name":"F#4","midi":66,"time":713.8231724999557,"velocity":0.7244094488188977,"duration":0.34926453125001444},{"name":"D5","midi":74,"time":713.8231724999557,"velocity":0.7244094488188977,"duration":0.5257350312500648},{"name":"B2","midi":47,"time":713.9114077499557,"velocity":0.7244094488188977,"duration":0.08455878125005256},{"name":"A2","midi":45,"time":713.9996429999558,"velocity":0.7244094488188977,"duration":0.17279403124996406},{"name":"B2","midi":47,"time":714.1761134999557,"velocity":0.7244094488188977,"duration":0.08455878125005256},{"name":"G4","midi":67,"time":714.1761134999557,"velocity":0.7244094488188977,"duration":0.5257350312500648},{"name":"A2","midi":45,"time":714.2643487499557,"velocity":0.7244094488188977,"duration":0.08455878125005256},{"name":"G2","midi":43,"time":714.3525839999558,"velocity":0.7244094488188977,"duration":0.17279403124996406},{"name":"G5","midi":79,"time":714.3525839999558,"velocity":0.7244094488188977,"duration":0.17279403124996406},{"name":"G3","midi":55,"time":714.5290544999557,"velocity":0.7244094488188977,"duration":0.08455878125005256},{"name":"B4","midi":71,"time":714.5290544999557,"velocity":0.7244094488188977,"duration":0.5257350312500648},{"name":"F3","midi":53,"time":714.6172897499557,"velocity":0.7244094488188977,"duration":0.08455878125005256},{"name":"E3","midi":52,"time":714.7055249999557,"velocity":0.7244094488188977,"duration":0.17279403124996406},{"name":"D5","midi":74,"time":714.7055249999557,"velocity":0.7244094488188977,"duration":0.17279403124996406},{"name":"F3","midi":53,"time":714.8819954999557,"velocity":0.7244094488188977,"duration":0.08455878125005256},{"name":"G4","midi":67,"time":714.8819954999557,"velocity":0.7244094488188977,"duration":0.8786760312500519},{"name":"E3","midi":52,"time":714.9702307499557,"velocity":0.7244094488188977,"duration":0.08455878125005256},{"name":"D3","midi":50,"time":715.0584659999557,"velocity":0.7244094488188977,"duration":0.17279403124996406},{"name":"F5","midi":77,"time":715.0584659999557,"velocity":0.7244094488188977,"duration":0.17279403124996406},{"name":"C3","midi":48,"time":715.2349364999557,"velocity":0.7244094488188977,"duration":0.17279403125007775},{"name":"E5","midi":76,"time":715.2349364999557,"velocity":0.7244094488188977,"duration":0.08455878125005256},{"name":"D5","midi":74,"time":715.3231717499557,"velocity":0.7244094488188977,"duration":0.08455878125005256},{"name":"G3","midi":55,"time":715.4114069999557,"velocity":0.7244094488188977,"duration":0.17279403125007775},{"name":"C5","midi":72,"time":715.4114069999557,"velocity":0.7244094488188977,"duration":0.08455878125005256},{"name":"D5","midi":74,"time":715.4996422499557,"velocity":0.7244094488188977,"duration":0.08455878125005256},{"name":"C4","midi":60,"time":715.5878774999558,"velocity":0.7244094488188977,"duration":0.5257350312498374},{"name":"E5","midi":76,"time":715.5878774999558,"velocity":0.7244094488188977,"duration":0.34926453124990076},{"name":"E4","midi":64,"time":715.7643479999557,"velocity":0.7244094488188977,"duration":0.17279403124996406},{"name":"F#4","midi":66,"time":715.9408184999556,"velocity":0.7244094488188977,"duration":0.5257350312498374},{"name":"A4","midi":69,"time":715.9408184999556,"velocity":0.7244094488188977,"duration":0.34926453124990076},{"name":"A3","midi":57,"time":716.1172889999556,"velocity":0.7244094488188977,"duration":0.17279403124996406},{"name":"B3","midi":59,"time":716.2937594999555,"velocity":0.7244094488188977,"duration":0.5257350312498374},{"name":"D5","midi":74,"time":716.2937594999555,"velocity":0.7244094488188977,"duration":0.34926453124990076},{"name":"D4","midi":62,"time":716.4702299999554,"velocity":0.7244094488188977,"duration":0.17279403124996406},{"name":"E4","midi":64,"time":716.6467004999554,"velocity":0.7244094488188977,"duration":0.5257350312498374},{"name":"G4","midi":67,"time":716.6467004999554,"velocity":0.7244094488188977,"duration":0.34926453124990076},{"name":"G3","midi":55,"time":716.8231709999553,"velocity":0.7244094488188977,"duration":0.17279403124996406},{"name":"A3","midi":57,"time":716.9996414999553,"velocity":0.7244094488188977,"duration":0.5257350312498374},{"name":"C5","midi":72,"time":716.9996414999553,"velocity":0.7244094488188977,"duration":0.34926453124990076},{"name":"C4","midi":60,"time":717.1761119999552,"velocity":0.7244094488188977,"duration":0.17279403124996406},{"name":"D4","midi":62,"time":717.3525824999551,"velocity":0.7244094488188977,"duration":0.5257350312498374},{"name":"F#4","midi":66,"time":717.3525824999551,"velocity":0.7244094488188977,"duration":0.34926453124990076},{"name":"F#3","midi":54,"time":717.5290529999551,"velocity":0.7244094488188977,"duration":0.17279403124996406},{"name":"G3","midi":55,"time":717.705523499955,"velocity":0.7244094488188977,"duration":0.5257350312498374},{"name":"B4","midi":71,"time":717.705523499955,"velocity":0.7244094488188977,"duration":0.34926453124990076},{"name":"B3","midi":59,"time":717.881993999955,"velocity":0.7244094488188977,"duration":0.17279403124996406},{"name":"C4","midi":60,"time":718.0584644999549,"velocity":0.7244094488188977,"duration":0.5257350312498374},{"name":"E4","midi":64,"time":718.0584644999549,"velocity":0.7244094488188977,"duration":0.34926453124990076},{"name":"E3","midi":52,"time":718.2349349999548,"velocity":0.7244094488188977,"duration":0.17279403124996406},{"name":"F#3","midi":54,"time":718.4114054999548,"velocity":0.7244094488188977,"duration":0.34926453124990076},{"name":"A4","midi":69,"time":718.4114054999548,"velocity":0.7244094488188977,"duration":0.5257350312498374},{"name":"A3","midi":57,"time":718.5878759999547,"velocity":0.7244094488188977,"duration":0.17279403124996406},{"name":"G3","midi":55,"time":718.7643464999546,"velocity":0.7244094488188977,"duration":0.34926453124990076},{"name":"B3","midi":59,"time":718.7643464999546,"velocity":0.7244094488188977,"duration":0.5257350312498374},{"name":"D4","midi":62,"time":718.9408169999546,"velocity":0.7244094488188977,"duration":0.17279403124996406},{"name":"E3","midi":52,"time":719.1172874999545,"velocity":0.7244094488188977,"duration":0.34926453124990076},{"name":"G4","midi":67,"time":719.1172874999545,"velocity":0.7244094488188977,"duration":0.5257350312498374},{"name":"G3","midi":55,"time":719.2937579999544,"velocity":0.7244094488188977,"duration":0.17279403124996406},{"name":"C#3","midi":49,"time":719.4702284999544,"velocity":0.7244094488188977,"duration":0.34926453125001444},{"name":"A3","midi":57,"time":719.4702284999544,"velocity":0.7244094488188977,"duration":0.5257350312499511},{"name":"F#4","midi":66,"time":719.6466989999543,"velocity":0.7244094488188977,"duration":0.08455878125005256},{"name":"E4","midi":64,"time":719.7349342499543,"velocity":0.7244094488188977,"duration":0.08455878125005256},{"name":"D#3","midi":51,"time":719.8231694999544,"velocity":0.7244094488188977,"duration":0.34926453124990076},{"name":"C5","midi":72,"time":719.8231694999544,"velocity":0.7244094488188977,"duration":0.5257350312498374},{"name":"F#3","midi":54,"time":719.9996399999543,"velocity":0.7244094488188977,"duration":0.17279403124996406},{"name":"E3","midi":52,"time":720.1761104999542,"velocity":0.7244094488188977,"duration":0.34926453125001444},{"name":"G3","midi":55,"time":720.1761104999542,"velocity":0.7244094488188977,"duration":0.5257350312499511},{"name":"B4","midi":71,"time":720.3525809999542,"velocity":0.7244094488188977,"duration":0.08455878125005256},{"name":"A#4","midi":70,"time":720.4408162499542,"velocity":0.7244094488188977,"duration":0.08455878125005256},{"name":"C#3","midi":49,"time":720.5290514999542,"velocity":0.7244094488188977,"duration":0.34926453124990076},{"name":"E5","midi":76,"time":720.5290514999542,"velocity":0.7244094488188977,"duration":0.5257350312498374},{"name":"E3","midi":52,"time":720.7055219999542,"velocity":0.7244094488188977,"duration":0.17279403124996406},{"name":"A#2","midi":46,"time":720.8819924999541,"velocity":0.7244094488188977,"duration":0.34926453125001444},{"name":"F#3","midi":54,"time":720.8819924999541,"velocity":0.7244094488188977,"duration":0.7022055312500015},{"name":"D5","midi":74,"time":721.058462999954,"velocity":0.7244094488188977,"duration":0.08455878125005256},{"name":"C#5","midi":73,"time":721.146698249954,"velocity":0.7244094488188977,"duration":0.08455878125005256},{"name":"B2","midi":47,"time":721.2349334999541,"velocity":0.7244094488188977,"duration":0.34926453125001444},{"name":"D5","midi":74,"time":721.2349334999541,"velocity":0.7244094488188977,"duration":0.17279403124996406},{"name":"C#5","midi":73,"time":721.411403999954,"velocity":0.7244094488188977,"duration":0.08455878125005256},{"name":"B4","midi":71,"time":721.499639249954,"velocity":0.7244094488188977,"duration":0.08455878125005256},{"name":"E3","midi":52,"time":721.5878744999541,"velocity":0.7244094488188977,"duration":0.34926453125001444},{"name":"G3","midi":55,"time":721.5878744999541,"velocity":0.7244094488188977,"duration":0.34926453125001444},{"name":"C#5","midi":73,"time":721.5878744999541,"velocity":0.7244094488188977,"duration":0.17279403124996406},{"name":"D5","midi":74,"time":721.764344999954,"velocity":0.7244094488188977,"duration":0.08455878125005256},{"name":"E5","midi":76,"time":721.852580249954,"velocity":0.7244094488188977,"duration":0.08455878125005256},{"name":"F3","midi":53,"time":721.940815499954,"velocity":0.7244094488188977,"duration":0.34926453125001444},{"name":"G#3","midi":56,"time":721.940815499954,"velocity":0.7244094488188977,"duration":0.34926453125001444},{"name":"D5","midi":74,"time":721.940815499954,"velocity":0.7244094488188977,"duration":0.17279403124996406},{"name":"C#5","midi":73,"time":722.117285999954,"velocity":0.7244094488188977,"duration":0.08455878125005256},{"name":"B4","midi":71,"time":722.205521249954,"velocity":0.7244094488188977,"duration":0.08455878125005256},{"name":"F#3","midi":54,"time":722.293756499954,"velocity":0.7244094488188977,"duration":0.34926453125001444},{"name":"A#4","midi":70,"time":722.293756499954,"velocity":0.7244094488188977,"duration":0.17279403124996406},{"name":"G#4","midi":68,"time":722.470226999954,"velocity":0.7244094488188977,"duration":0.08455878125005256},{"name":"F#4","midi":66,"time":722.558462249954,"velocity":0.7244094488188977,"duration":0.08455878125005256},{"name":"G5","midi":79,"time":722.646697499954,"velocity":0.7244094488188977,"duration":0.5257350312499511},{"name":"B3","midi":59,"time":722.8231679999541,"velocity":0.7244094488188977,"duration":0.17279403124996406},{"name":"A#3","midi":58,"time":722.999638499954,"velocity":0.7244094488188977,"duration":0.5147056249999196},{"name":"C#4","midi":61,"time":722.999638499954,"velocity":0.7244094488188977,"duration":0.5257350312499511},{"name":"E5","midi":76,"time":723.176108999954,"velocity":0.7244094488188977,"duration":0.17279403124996406},{"name":"F#5","midi":78,"time":723.3525794999539,"velocity":0.7244094488188977,"duration":0.5257350312499511},{"name":"A#3","midi":58,"time":723.5290499999539,"velocity":0.7244094488188977,"duration":0.17279403124996406},{"name":"B3","midi":59,"time":723.7055204999539,"velocity":0.7244094488188977,"duration":0.6985290624998015},{"name":"G4","midi":67,"time":723.7055204999539,"velocity":0.7244094488188977,"duration":0.5257350312498374},{"name":"D#5","midi":75,"time":723.8819909999538,"velocity":0.7244094488188977,"duration":0.17279403124996406},{"name":"E5","midi":76,"time":724.0584614999538,"velocity":0.7244094488188977,"duration":0.5257350312498374},{"name":"E4","midi":64,"time":724.2349319999537,"velocity":0.7244094488188977,"duration":0.17279403124996406},{"name":"F#4","midi":66,"time":724.4114024999536,"velocity":0.7244094488188977,"duration":0.5257350312498374},{"name":"A4","midi":69,"time":724.5878729999536,"velocity":0.7244094488188977,"duration":0.17279403124996406},{"name":"A5","midi":81,"time":724.7643434999535,"velocity":0.7244094488188977,"duration":0.5257350312498374},{"name":"D#4","midi":63,"time":724.9408139999534,"velocity":0.7244094488188977,"duration":0.17279403124996406},{"name":"E3","midi":52,"time":725.1172844999534,"velocity":0.7244094488188977,"duration":0.5147056249999196},{"name":"C5","midi":72,"time":725.1172844999534,"velocity":0.7244094488188977,"duration":0.5257350312499511},{"name":"F#5","midi":78,"time":725.2937549999533,"velocity":0.7244094488188977,"duration":0.17279403124996406},{"name":"G5","midi":79,"time":725.4702254999532,"velocity":0.7244094488188977,"duration":0.5257350312499511},{"name":"A#4","midi":70,"time":725.6466959999533,"velocity":0.7244094488188977,"duration":0.17279403124996406},{"name":"D3","midi":50,"time":725.8231664999532,"velocity":0.7244094488188977,"duration":0.5147056249999196},{"name":"B4","midi":71,"time":725.8231664999532,"velocity":0.7244094488188977,"duration":0.5257350312499511},{"name":"E5","midi":76,"time":725.9996369999532,"velocity":0.7244094488188977,"duration":0.17279403124996406},{"name":"F#5","midi":78,"time":726.1761074999531,"velocity":0.7244094488188977,"duration":0.5257350312499511},{"name":"E4","midi":64,"time":726.3525779999532,"velocity":0.7244094488188977,"duration":0.17279403124996406},{"name":"G3","midi":55,"time":726.5290484999531,"velocity":0.7244094488188977,"duration":0.5257350312498374},{"name":"D4","midi":62,"time":726.5290484999531,"velocity":0.7244094488188977,"duration":0.7022055312497741},{"name":"B4","midi":71,"time":726.705518999953,"velocity":0.7244094488188977,"duration":0.17279403124996406},{"name":"B5","midi":83,"time":726.881989499953,"velocity":0.7244094488188977,"duration":0.5257350312499511},{"name":"F#3","midi":54,"time":727.0584599999529,"velocity":0.7244094488188977,"duration":0.17279403124996406},{"name":"E3","midi":52,"time":727.2349304999528,"velocity":0.7244094488188977,"duration":0.5257350312501785},{"name":"D4","midi":62,"time":727.2349304999528,"velocity":0.7244094488188977,"duration":0.08455878125005256},{"name":"C#4","midi":61,"time":727.3231657499529,"velocity":0.7244094488188977,"duration":0.08455878125005256},{"name":"D4","midi":62,"time":727.4114009999529,"velocity":0.7244094488188977,"duration":0.08455878125005256},{"name":"G#5","midi":80,"time":727.4114009999529,"velocity":0.7244094488188977,"duration":0.17279403125007775},{"name":"C#4","midi":61,"time":727.4996362499529,"velocity":0.7244094488188977,"duration":0.08455878125005256},{"name":"D4","midi":62,"time":727.5878714999529,"velocity":0.7244094488188977,"duration":0.08455878125005256},{"name":"A#5","midi":82,"time":727.5878714999529,"velocity":0.7244094488188977,"duration":0.08455878125005256},{"name":"C#4","midi":61,"time":727.676106749953,"velocity":0.7244094488188977,"duration":0.08455878125005256},{"name":"G#5","midi":80,"time":727.676106749953,"velocity":0.7244094488188977,"duration":0.08455878125005256},{"name":"F#3","midi":54,"time":727.764341999953,"velocity":0.7244094488188977,"duration":0.17279403125007775},{"name":"D4","midi":62,"time":727.764341999953,"velocity":0.7244094488188977,"duration":0.08455878125005256},{"name":"A#5","midi":82,"time":727.764341999953,"velocity":0.7244094488188977,"duration":0.17279403125007775},{"name":"C#4","midi":61,"time":727.852577249953,"velocity":0.7244094488188977,"duration":0.08455878125005256},{"name":"B3","midi":59,"time":727.940812499953,"velocity":0.7244094488188977,"duration":0.34926453125001444},{"name":"B5","midi":83,"time":727.940812499953,"velocity":0.7244094488188977,"duration":0.34926453125001444},{"name":"B2","midi":47,"time":728.1172829999531,"velocity":0.7244094488188977,"duration":0.17279403124996406},{"name":"B3","midi":59,"time":728.293753499953,"velocity":0.7244094488188977,"duration":0.5257350312499511},{"name":"G5","midi":79,"time":728.293753499953,"velocity":0.7244094488188977,"duration":0.34926453125001444},{"name":"D5","midi":74,"time":728.4702239999531,"velocity":0.7244094488188977,"duration":0.17279403124996406},{"name":"C#5","midi":73,"time":728.646694499953,"velocity":0.7244094488188977,"duration":0.5257350312498374},{"name":"E5","midi":76,"time":728.646694499953,"velocity":0.7244094488188977,"duration":0.34926453124990076},{"name":"G#3","midi":56,"time":728.823164999953,"velocity":0.7244094488188977,"duration":0.17279403124996406},{"name":"A3","midi":57,"time":728.9996354999529,"velocity":0.7244094488188977,"duration":0.5257350312498374},{"name":"F#5","midi":78,"time":728.9996354999529,"velocity":0.7244094488188977,"duration":0.34926453124990076},{"name":"F#4","midi":66,"time":729.1761059999528,"velocity":0.7244094488188977,"duration":0.17279403124996406},{"name":"B4","midi":71,"time":729.3525764999528,"velocity":0.7244094488188977,"duration":0.5257350312500648},{"name":"D#5","midi":75,"time":729.3525764999528,"velocity":0.7244094488188977,"duration":0.34926453125001444},{"name":"G#3","midi":56,"time":729.5290469999527,"velocity":0.7244094488188977,"duration":0.08455878125005256},{"name":"F#3","midi":54,"time":729.6172822499527,"velocity":0.7244094488188977,"duration":0.08455878125005256},{"name":"G#3","midi":56,"time":729.7055174999527,"velocity":0.7244094488188977,"duration":0.08455878125005256},{"name":"E5","midi":76,"time":729.7055174999527,"velocity":0.7244094488188977,"duration":0.5257350312500648},{"name":"F#3","midi":54,"time":729.7937527499528,"velocity":0.7244094488188977,"duration":0.08455878125005256},{"name":"E3","midi":52,"time":729.8819879999528,"velocity":0.7244094488188977,"duration":0.17279403124996406},{"name":"D5","midi":74,"time":729.8819879999528,"velocity":0.7244094488188977,"duration":0.17279403124996406},{"name":"E4","midi":64,"time":730.0584584999527,"velocity":0.7244094488188977,"duration":0.08455878125005256},{"name":"G#4","midi":68,"time":730.0584584999527,"velocity":0.7244094488188977,"duration":0.5257350312500648},{"name":"D4","midi":62,"time":730.1466937499528,"velocity":0.7244094488188977,"duration":0.08455878125005256},{"name":"C#4","midi":61,"time":730.2349289999528,"velocity":0.7244094488188977,"duration":0.17279403124996406},{"name":"A5","midi":81,"time":730.2349289999528,"velocity":0.7244094488188977,"duration":0.17279403124996406},{"name":"D4","midi":62,"time":730.4113994999527,"velocity":0.7244094488188977,"duration":0.08455878125005256},{"name":"G#5","midi":80,"time":730.4113994999527,"velocity":0.7244094488188977,"duration":0.34926453125001444},{"name":"C#4","midi":61,"time":730.4996347499527,"velocity":0.7244094488188977,"duration":0.08455878125005256},{"name":"B3","midi":59,"time":730.5878699999528,"velocity":0.7244094488188977,"duration":0.17279403124996406},{"name":"D5","midi":74,"time":730.5878699999528,"velocity":0.7244094488188977,"duration":0.17279403124996406},{"name":"A3","midi":57,"time":730.7643404999527,"velocity":0.7244094488188977,"duration":0.17279403124996406},{"name":"C#5","midi":73,"time":730.7643404999527,"velocity":0.7244094488188977,"duration":0.5257350312499511},{"name":"A5","midi":81,"time":730.7643404999527,"velocity":0.7244094488188977,"duration":0.2941174999999703},{"name":"A2","midi":45,"time":730.9408109999526,"velocity":0.7244094488188977,"duration":0.17279403125007775},{"name":"A3","midi":57,"time":731.1172814999527,"velocity":0.7244094488188977,"duration":0.5257350312498374},{"name":"F#5","midi":78,"time":731.1172814999527,"velocity":0.7244094488188977,"duration":0.34926453124990076},{"name":"C#5","midi":73,"time":731.2937519999526,"velocity":0.7244094488188977,"duration":0.17279403124996406},{"name":"B4","midi":71,"time":731.4702224999526,"velocity":0.7244094488188977,"duration":0.5257350312498374},{"name":"D5","midi":74,"time":731.4702224999526,"velocity":0.7244094488188977,"duration":0.34926453124990076},{"name":"F#3","midi":54,"time":731.6466929999525,"velocity":0.7244094488188977,"duration":0.17279403124996406},{"name":"G3","midi":55,"time":731.8231634999524,"velocity":0.7244094488188977,"duration":0.43749978124992595},{"name":"E5","midi":76,"time":731.8231634999524,"velocity":0.7244094488188977,"duration":0.34926453124990076},{"name":"E4","midi":64,"time":731.9996339999524,"velocity":0.7244094488188977,"duration":0.17279403124996406},{"name":"A4","midi":69,"time":732.1761044999523,"velocity":0.7244094488188977,"duration":0.5257350312500648},{"name":"C#5","midi":73,"time":732.1761044999523,"velocity":0.7244094488188977,"duration":0.34926453125001444},{"name":"F#3","midi":54,"time":732.2643397499523,"velocity":0.7244094488188977,"duration":0.08455878125005256},{"name":"E3","midi":52,"time":732.3525749999524,"velocity":0.7244094488188977,"duration":0.17279403124996406},{"name":"F#3","midi":54,"time":732.5290454999523,"velocity":0.7244094488188977,"duration":0.08455878125005256},{"name":"D5","midi":74,"time":732.5290454999523,"velocity":0.7244094488188977,"duration":0.5257350312500648},{"name":"E3","midi":52,"time":732.6172807499523,"velocity":0.7244094488188977,"duration":0.08455878125005256},{"name":"D3","midi":50,"time":732.7055159999524,"velocity":0.7244094488188977,"duration":0.17279403124996406},{"name":"C5","midi":72,"time":732.7055159999524,"velocity":0.7244094488188977,"duration":0.17279403124996406},{"name":"D4","midi":62,"time":732.8819864999523,"velocity":0.7244094488188977,"duration":0.08455878125005256},{"name":"F#4","midi":66,"time":732.8819864999523,"velocity":0.7244094488188977,"duration":0.7022055312500015},{"name":"C4","midi":60,"time":732.9702217499523,"velocity":0.7244094488188977,"duration":0.08455878125005256},{"name":"B3","midi":59,"time":733.0584569999523,"velocity":0.7244094488188977,"duration":0.17279403124996406},{"name":"G5","midi":79,"time":733.0584569999523,"velocity":0.7244094488188977,"duration":0.17279403124996406},{"name":"C4","midi":60,"time":733.2349274999523,"velocity":0.7244094488188977,"duration":0.08455878125005256},{"name":"F#5","midi":78,"time":733.2349274999523,"velocity":0.7244094488188977,"duration":0.34926453125001444},{"name":"B3","midi":59,"time":733.3231627499523,"velocity":0.7244094488188977,"duration":0.08455878125005256},{"name":"A3","midi":57,"time":733.4113979999523,"velocity":0.7244094488188977,"duration":0.17279403124996406},{"name":"G3","midi":55,"time":733.5878684999523,"velocity":0.7244094488188977,"duration":0.17279403124996406},{"name":"B4","midi":71,"time":733.5878684999523,"velocity":0.7244094488188977,"duration":0.5257350312498374},{"name":"G5","midi":79,"time":733.5878684999523,"velocity":0.7244094488188977,"duration":0.17279403124996406},{"name":"B3","midi":59,"time":733.7643389999522,"velocity":0.7244094488188977,"duration":0.17279403124996406},{"name":"D5","midi":74,"time":733.7643389999522,"velocity":0.7244094488188977,"duration":0.17279403124996406},{"name":"E4","midi":64,"time":733.9408094999521,"velocity":0.7244094488188977,"duration":0.34926453124990076},{"name":"G5","midi":79,"time":733.9408094999521,"velocity":0.7244094488188977,"duration":0.5257350312498374},{"name":"B4","midi":71,"time":734.1172799999521,"velocity":0.7244094488188977,"duration":0.17279403124996406},{"name":"A3","midi":57,"time":734.293750499952,"velocity":0.7244094488188977,"duration":0.34926453124990076},{"name":"C5","midi":72,"time":734.293750499952,"velocity":0.7244094488188977,"duration":0.5257350312498374},{"name":"E5","midi":76,"time":734.470220999952,"velocity":0.7244094488188977,"duration":0.17279403124996406},{"name":"D4","midi":62,"time":734.6466914999519,"velocity":0.7244094488188977,"duration":0.34926453124990076},{"name":"F#5","midi":78,"time":734.6466914999519,"velocity":0.7244094488188977,"duration":0.5257350312498374},{"name":"A4","midi":69,"time":734.8231619999518,"velocity":0.7244094488188977,"duration":0.17279403124996406},{"name":"G3","midi":55,"time":734.9996324999518,"velocity":0.7244094488188977,"duration":0.34926453124990076},{"name":"B4","midi":71,"time":734.9996324999518,"velocity":0.7244094488188977,"duration":0.5257350312498374},{"name":"D#5","midi":75,"time":735.1761029999517,"velocity":0.7244094488188977,"duration":0.17279403124996406},{"name":"C4","midi":60,"time":735.3525734999516,"velocity":0.7244094488188977,"duration":0.34926453124990076},{"name":"E5","midi":76,"time":735.3525734999516,"velocity":0.7244094488188977,"duration":0.5257350312498374},{"name":"G4","midi":67,"time":735.5290439999516,"velocity":0.7244094488188977,"duration":0.17279403124996406},{"name":"F#3","midi":54,"time":735.7055144999515,"velocity":0.7244094488188977,"duration":0.34926453124990076},{"name":"A4","midi":69,"time":735.7055144999515,"velocity":0.7244094488188977,"duration":0.5257350312498374},{"name":"C#5","midi":73,"time":735.8819849999514,"velocity":0.7244094488188977,"duration":0.17279403124996406},{"name":"B3","midi":59,"time":736.0584554999514,"velocity":0.7244094488188977,"duration":0.34926453124990076},{"name":"D#5","midi":75,"time":736.0584554999514,"velocity":0.7244094488188977,"duration":0.34926453124990076},{"name":"F#4","midi":66,"time":736.2349259999513,"velocity":0.7244094488188977,"duration":0.17279403124996406},{"name":"E3","midi":52,"time":736.4113964999513,"velocity":0.7244094488188977,"duration":0.17279403124996406},{"name":"G4","midi":67,"time":736.4113964999513,"velocity":0.7244094488188977,"duration":0.5257350312500648},{"name":"E5","midi":76,"time":736.4113964999513,"velocity":0.7244094488188977,"duration":0.17279403124996406},{"name":"B3","midi":59,"time":736.5878669999512,"velocity":0.7244094488188977,"duration":0.17279403125007775},{"name":"F#5","midi":78,"time":736.5878669999512,"velocity":0.7244094488188977,"duration":0.08455878125005256},{"name":"G5","midi":79,"time":736.6761022499512,"velocity":0.7244094488188977,"duration":0.08455878125005256},{"name":"C4","midi":60,"time":736.7643374999512,"velocity":0.7244094488188977,"duration":0.5257350312499511},{"name":"A5","midi":81,"time":736.7643374999512,"velocity":0.7244094488188977,"duration":0.08455878125005256},{"name":"B5","midi":83,"time":736.8525727499513,"velocity":0.7244094488188977,"duration":0.08455878125005256},{"name":"E4","midi":64,"time":736.9408079999513,"velocity":0.7244094488188977,"duration":0.17279403124996406},{"name":"C6","midi":84,"time":736.9408079999513,"velocity":0.7244094488188977,"duration":0.17279403124996406},{"name":"F4","midi":65,"time":737.1172784999512,"velocity":0.7244094488188977,"duration":0.5257350312500648},{"name":"D5","midi":74,"time":737.1172784999512,"velocity":0.7244094488188977,"duration":0.17279403124996406},{"name":"A3","midi":57,"time":737.2937489999512,"velocity":0.7244094488188977,"duration":0.17279403125007775},{"name":"E5","midi":76,"time":737.2937489999512,"velocity":0.7244094488188977,"duration":0.08455878125005256},{"name":"F5","midi":77,"time":737.3819842499512,"velocity":0.7244094488188977,"duration":0.08455878125005256},{"name":"B3","midi":59,"time":737.4702194999512,"velocity":0.7244094488188977,"duration":0.5257350312499511},{"name":"G5","midi":79,"time":737.4702194999512,"velocity":0.7244094488188977,"duration":0.08455878125005256},{"name":"A5","midi":81,"time":737.5584547499512,"velocity":0.7244094488188977,"duration":0.08455878125005256},{"name":"D4","midi":62,"time":737.6466899999513,"velocity":0.7244094488188977,"duration":0.17279403124996406},{"name":"B5","midi":83,"time":737.6466899999513,"velocity":0.7244094488188977,"duration":0.17279403124996406},{"name":"E4","midi":64,"time":737.8231604999512,"velocity":0.7244094488188977,"duration":0.5257350312500648},{"name":"C5","midi":72,"time":737.8231604999512,"velocity":0.7244094488188977,"duration":0.17279403124996406},{"name":"G#3","midi":56,"time":737.9996309999511,"velocity":0.7244094488188977,"duration":0.17279403125007775},{"name":"D5","midi":74,"time":737.9996309999511,"velocity":0.7244094488188977,"duration":0.08455878125005256},{"name":"E5","midi":76,"time":738.0878662499512,"velocity":0.7244094488188977,"duration":0.08455878125005256},{"name":"A3","midi":57,"time":738.1761014999512,"velocity":0.7244094488188977,"duration":0.5257350312499511},{"name":"F5","midi":77,"time":738.1761014999512,"velocity":0.7244094488188977,"duration":0.08455878125005256},{"name":"G5","midi":79,"time":738.2643367499512,"velocity":0.7244094488188977,"duration":0.08455878125005256},{"name":"C4","midi":60,"time":738.3525719999512,"velocity":0.7244094488188977,"duration":0.17279403124996406},{"name":"A5","midi":81,"time":738.3525719999512,"velocity":0.7244094488188977,"duration":0.17279403124996406},{"name":"D4","midi":62,"time":738.5290424999512,"velocity":0.7244094488188977,"duration":0.34926453125001444},{"name":"B4","midi":71,"time":738.5290424999512,"velocity":0.7244094488188977,"duration":0.17279403124996406},{"name":"F#3","midi":54,"time":738.7055129999511,"velocity":0.7244094488188977,"duration":0.17279403125007775},{"name":"C5","midi":72,"time":738.7055129999511,"velocity":0.7244094488188977,"duration":0.08455878125005256},{"name":"D5","midi":74,"time":738.7937482499511,"velocity":0.7244094488188977,"duration":0.08455878125005256},{"name":"G#3","midi":56,"time":738.8819834999512,"velocity":0.7244094488188977,"duration":0.34926453125001444},{"name":"B3","midi":59,"time":738.8819834999512,"velocity":0.7244094488188977,"duration":0.34926453125001444},{"name":"E5","midi":76,"time":738.8819834999512,"velocity":0.7244094488188977,"duration":0.08455878125005256},{"name":"F5","midi":77,"time":738.9702187499512,"velocity":0.7244094488188977,"duration":0.08455878125005256},{"name":"D5","midi":74,"time":739.0584539999512,"velocity":0.7244094488188977,"duration":0.17279403124996406},{"name":"A3","midi":57,"time":739.2349244999511,"velocity":0.7244094488188977,"duration":0.17279403124996406},{"name":"C5","midi":72,"time":739.2349244999511,"velocity":0.7244094488188977,"duration":0.5257350312499511},{"name":"G3","midi":55,"time":739.4113949999511,"velocity":0.7244094488188977,"duration":0.08455878125005256},{"name":"E4","midi":64,"time":739.4113949999511,"velocity":0.7244094488188977,"duration":0.17279403125007775},{"name":"F3","midi":53,"time":739.4996302499511,"velocity":0.7244094488188977,"duration":0.08455878125005256},{"name":"G3","midi":55,"time":739.5878654999511,"velocity":0.7244094488188977,"duration":0.17279403124996406},{"name":"A4","midi":69,"time":739.5878654999511,"velocity":0.7244094488188977,"duration":0.5257350312499511},{"name":"F#3","midi":54,"time":739.7643359999511,"velocity":0.7244094488188977,"duration":0.08455878125005256},{"name":"B4","midi":71,"time":739.7643359999511,"velocity":0.7244094488188977,"duration":0.17279403125007775},{"name":"E3","midi":52,"time":739.8525712499511,"velocity":0.7244094488188977,"duration":0.08455878125005256},{"name":"F#3","midi":54,"time":739.9408064999511,"velocity":0.7244094488188977,"duration":0.17279403124996406},{"name":"C5","midi":72,"time":739.9408064999511,"velocity":0.7244094488188977,"duration":0.5257350312500648},{"name":"G3","midi":55,"time":740.1172769999511,"velocity":0.7244094488188977,"duration":0.08455878125005256},{"name":"E4","midi":64,"time":740.1172769999511,"velocity":0.7244094488188977,"duration":0.17279403125007775},{"name":"A3","midi":57,"time":740.2055122499511,"velocity":0.7244094488188977,"duration":0.08455878125005256},{"name":"G3","midi":55,"time":740.2937474999511,"velocity":0.7244094488188977,"duration":0.08455878125005256},{"name":"A4","midi":69,"time":740.2937474999511,"velocity":0.7244094488188977,"duration":0.5257350312499511},{"name":"F#3","midi":54,"time":740.3819827499511,"velocity":0.7244094488188977,"duration":0.08455878125005256},{"name":"E3","midi":52,"time":740.4702179999512,"velocity":0.7244094488188977,"duration":0.17279403124996406},{"name":"C5","midi":72,"time":740.4702179999512,"velocity":0.7244094488188977,"duration":0.17279403124996406},{"name":"D#3","midi":51,"time":740.6466884999511,"velocity":0.7244094488188977,"duration":0.17279403124996406},{"name":"B4","midi":71,"time":740.6466884999511,"velocity":0.7244094488188977,"duration":0.7022055312500015},{"name":"B2","midi":47,"time":740.823158999951,"velocity":0.7244094488188977,"duration":0.17279403125007775},{"name":"G4","midi":67,"time":740.823158999951,"velocity":0.7244094488188977,"duration":0.08455878125005256},{"name":"F#4","midi":66,"time":740.9113942499511,"velocity":0.7244094488188977,"duration":0.08455878125005256},{"name":"E3","midi":52,"time":740.9996294999511,"velocity":0.7244094488188977,"duration":0.5257350312499511},{"name":"G4","midi":67,"time":740.9996294999511,"velocity":0.7244094488188977,"duration":0.08455878125005256},{"name":"F#4","midi":66,"time":741.0878647499511,"velocity":0.7244094488188977,"duration":0.08455878125005256},{"name":"E4","midi":64,"time":741.1760999999511,"velocity":0.7244094488188977,"duration":0.17279403124996406},{"name":"F#4","midi":66,"time":741.3525704999511,"velocity":0.7244094488188977,"duration":0.49632328124982905},{"name":"A4","midi":69,"time":741.3525704999511,"velocity":0.7244094488188977,"duration":0.49632328124982905},{"name":"A2","midi":45,"time":741.529040999951,"velocity":0.7244094488188977,"duration":0.17279403124996406},{"name":"B2","midi":47,"time":741.705511499951,"velocity":0.7244094488188977,"duration":0.5257350312498374},{"name":"D#4","midi":63,"time":741.8819819999509,"velocity":0.7244094488188977,"duration":0.17279403124996406},{"name":"F#4","midi":66,"time":741.8819819999509,"velocity":0.7244094488188977,"duration":0.17279403124996406},{"name":"E4","midi":64,"time":742.0584524999508,"velocity":0.7244094488188977,"duration":0.49632328124982905},{"name":"C5","midi":72,"time":742.0584524999508,"velocity":0.7244094488188977,"duration":0.49632328124982905},{"name":"G#2","midi":44,"time":742.2349229999508,"velocity":0.7244094488188977,"duration":0.17279403124996406},{"name":"A2","midi":45,"time":742.4113934999507,"velocity":0.7244094488188977,"duration":0.5257350312498374},{"name":"A4","midi":69,"time":742.5878639999506,"velocity":0.7244094488188977,"duration":0.17279403124996406},{"name":"C5","midi":72,"time":742.5878639999506,"velocity":0.7244094488188977,"duration":0.17279403124996406},{"name":"B4","midi":71,"time":742.7643344999506,"velocity":0.7244094488188977,"duration":0.49632328124982905},{"name":"D5","midi":74,"time":742.7643344999506,"velocity":0.7244094488188977,"duration":0.49632328124982905},{"name":"D2","midi":38,"time":742.9408049999505,"velocity":0.7244094488188977,"duration":0.17279403124996406},{"name":"D3","midi":50,"time":743.1172754999504,"velocity":0.7244094488188977,"duration":0.5257350312498374},{"name":"G#4","midi":68,"time":743.2937459999504,"velocity":0.7244094488188977,"duration":0.17279403124996406},{"name":"B4","midi":71,"time":743.2937459999504,"velocity":0.7244094488188977,"duration":0.17279403124996406},{"name":"F5","midi":77,"time":743.4702164999503,"velocity":0.7244094488188977,"duration":0.49632328124982905},{"name":"G#5","midi":80,"time":743.4702164999503,"velocity":0.7244094488188977,"duration":0.49632328124982905},{"name":"B2","midi":47,"time":743.6466869999502,"velocity":0.7244094488188977,"duration":0.17279403124996406},{"name":"C3","midi":48,"time":743.8231574999502,"velocity":0.7244094488188977,"duration":0.5257350312498374},{"name":"D#5","midi":75,"time":743.9996279999501,"velocity":0.7244094488188977,"duration":0.17279403124996406},{"name":"E5","midi":76,"time":744.1760984999501,"velocity":0.7244094488188977,"duration":0.49632328124982905},{"name":"A5","midi":81,"time":744.1760984999501,"velocity":0.7244094488188977,"duration":0.49632328124982905},{"name":"A2","midi":45,"time":744.35256899995,"velocity":0.7244094488188977,"duration":0.17279403124996406},{"name":"B2","midi":47,"time":744.5290394999499,"velocity":0.7244094488188977,"duration":0.5257350312498374},{"name":"A4","midi":69,"time":744.7055099999499,"velocity":0.7244094488188977,"duration":0.17279403124996406},{"name":"D#5","midi":75,"time":744.7055099999499,"velocity":0.7244094488188977,"duration":0.17279403124996406},{"name":"G4","midi":67,"time":744.8819804999498,"velocity":0.7244094488188977,"duration":0.5147056250000333},{"name":"E5","midi":76,"time":744.8819804999498,"velocity":0.7244094488188977,"duration":0.17279403124996406},{"name":"E2","midi":40,"time":745.0584509999497,"velocity":0.7244094488188977,"duration":0.17279403125007775},{"name":"D5","midi":74,"time":745.0584509999497,"velocity":0.7244094488188977,"duration":0.08455878125005256},{"name":"C5","midi":72,"time":745.1466862499498,"velocity":0.7244094488188977,"duration":0.08455878125005256},{"name":"E3","midi":52,"time":745.2349214999498,"velocity":0.7244094488188977,"duration":0.5257350312499511},{"name":"B4","midi":71,"time":745.2349214999498,"velocity":0.7244094488188977,"duration":0.08455878125005256},{"name":"A4","midi":69,"time":745.3231567499498,"velocity":0.7244094488188977,"duration":0.08455878125005256},{"name":"G4","midi":67,"time":745.4113919999498,"velocity":0.7244094488188977,"duration":0.17279403124996406},{"name":"F#4","midi":66,"time":745.5878624999498,"velocity":0.7244094488188977,"duration":0.8786760312499382},{"name":"C#3","midi":49,"time":745.7643329999497,"velocity":0.7244094488188977,"duration":0.17279403125007775},{"name":"A4","midi":69,"time":745.7643329999497,"velocity":0.7244094488188977,"duration":0.08455878125005256},{"name":"B4","midi":71,"time":745.8525682499497,"velocity":0.7244094488188977,"duration":0.08455878125005256},{"name":"D#3","midi":51,"time":745.9408034999498,"velocity":0.7244094488188977,"duration":0.34926453125001444},{"name":"C5","midi":72,"time":745.9408034999498,"velocity":0.7244094488188977,"duration":0.08455878125005256},{"name":"B4","midi":71,"time":746.0290387499498,"velocity":0.7244094488188977,"duration":0.08455878125005256},{"name":"A4","midi":69,"time":746.1172739999498,"velocity":0.7244094488188977,"duration":0.17279403124996406},{"name":"E3","midi":52,"time":746.2937444999498,"velocity":0.7244094488188977,"duration":0.5257350312498374},{"name":"G4","midi":67,"time":746.2937444999498,"velocity":0.7244094488188977,"duration":0.34926453124990076},{"name":"D#4","midi":63,"time":746.4702149999497,"velocity":0.7244094488188977,"duration":0.17279403124996406},{"name":"E4","midi":64,"time":746.6466854999496,"velocity":0.7244094488188977,"duration":0.5257350312498374},{"name":"G4","midi":67,"time":746.6466854999496,"velocity":0.7244094488188977,"duration":0.7022055312497741},{"name":"D4","midi":62,"time":746.8231559999496,"velocity":0.7244094488188977,"duration":0.17279403124996406},{"name":"C#4","midi":61,"time":746.9996264999495,"velocity":0.7244094488188977,"duration":0.5257350312498374},{"name":"A#3","midi":58,"time":747.1760969999494,"velocity":0.7244094488188977,"duration":0.17279403124996406},{"name":"E4","midi":64,"time":747.3525674999494,"velocity":0.7244094488188977,"duration":0.5257350312498374},{"name":"G4","midi":67,"time":747.3525674999494,"velocity":0.7244094488188977,"duration":0.7022055312497741},{"name":"A3","midi":57,"time":747.5290379999493,"velocity":0.7244094488188977,"duration":0.17279403124996406},{"name":"D3","midi":50,"time":747.7055084999492,"velocity":0.7244094488188977,"duration":0.5257350312498374},{"name":"C#4","midi":61,"time":747.8819789999492,"velocity":0.7244094488188977,"duration":0.17279403124996406},{"name":"D4","midi":62,"time":748.0584494999491,"velocity":0.7244094488188977,"duration":0.5257350312498374},{"name":"F4","midi":65,"time":748.0584494999491,"velocity":0.7244094488188977,"duration":0.7022055312497741},{"name":"C4","midi":60,"time":748.234919999949,"velocity":0.7244094488188977,"duration":0.17279403124996406},{"name":"B3","midi":59,"time":748.411390499949,"velocity":0.7244094488188977,"duration":0.5257350312498374},{"name":"G#3","midi":56,"time":748.5878609999489,"velocity":0.7244094488188977,"duration":0.17279403124996406},{"name":"D4","midi":62,"time":748.7643314999489,"velocity":0.7244094488188977,"duration":0.5257350312498374},{"name":"F4","midi":65,"time":748.7643314999489,"velocity":0.7244094488188977,"duration":0.7022055312497741},{"name":"G3","midi":55,"time":748.9408019999488,"velocity":0.7244094488188977,"duration":0.17279403124996406},{"name":"C3","midi":48,"time":749.1172724999487,"velocity":0.7244094488188977,"duration":0.5257350312498374},{"name":"B3","midi":59,"time":749.2937429999487,"velocity":0.7244094488188977,"duration":0.17279403124996406},{"name":"C4","midi":60,"time":749.4702134999486,"velocity":0.7244094488188977,"duration":0.5257350312498374},{"name":"E4","midi":64,"time":749.4702134999486,"velocity":0.7244094488188977,"duration":0.7022055312497741},{"name":"B3","midi":59,"time":749.6466839999486,"velocity":0.7244094488188977,"duration":0.17279403124996406},{"name":"A3","midi":57,"time":749.8231544999485,"velocity":0.7244094488188977,"duration":0.5257350312498374},{"name":"F#3","midi":54,"time":749.9996249999484,"velocity":0.7244094488188977,"duration":0.17279403124996406},{"name":"C4","midi":60,"time":750.1760954999484,"velocity":0.7244094488188977,"duration":0.5257350312498374},{"name":"E4","midi":64,"time":750.1760954999484,"velocity":0.7244094488188977,"duration":0.7022055312497741},{"name":"F#3","midi":54,"time":750.3525659999483,"velocity":0.7244094488188977,"duration":0.17279403124996406},{"name":"B2","midi":47,"time":750.5290364999482,"velocity":0.7244094488188977,"duration":0.5257350312498374},{"name":"A#3","midi":58,"time":750.7055069999482,"velocity":0.7244094488188977,"duration":0.17279403124996406},{"name":"B3","midi":59,"time":750.8819774999481,"velocity":0.7244094488188977,"duration":0.5257350312498374},{"name":"D#4","midi":63,"time":750.8819774999481,"velocity":0.7244094488188977,"duration":0.7022055312497741},{"name":"A3","midi":57,"time":751.058447999948,"velocity":0.7244094488188977,"duration":0.17279403124996406},{"name":"G3","midi":55,"time":751.234918499948,"velocity":0.7244094488188977,"duration":0.5257350312498374},{"name":"B3","midi":59,"time":751.4113889999479,"velocity":0.7244094488188977,"duration":0.17279403124996406},{"name":"E4","midi":64,"time":751.5878594999479,"velocity":0.7244094488188977,"duration":0.5257350312498374},{"name":"G4","midi":67,"time":751.5878594999479,"velocity":0.7244094488188977,"duration":0.7022055312497741},{"name":"E3","midi":52,"time":751.7643299999478,"velocity":0.7244094488188977,"duration":0.17279403124996406},{"name":"D#3","midi":51,"time":751.9408004999477,"velocity":0.7244094488188977,"duration":0.5257350312498374},{"name":"B3","midi":59,"time":752.1172709999477,"velocity":0.7244094488188977,"duration":0.17279403124996406},{"name":"F#4","midi":66,"time":752.2937414999476,"velocity":0.7244094488188977,"duration":0.5257350312498374},{"name":"A4","midi":69,"time":752.2937414999476,"velocity":0.7244094488188977,"duration":0.7022055312497741},{"name":"B3","midi":59,"time":752.4702119999475,"velocity":0.7244094488188977,"duration":0.17279403124996406},{"name":"G3","midi":55,"time":752.6466824999475,"velocity":0.7244094488188977,"duration":0.5257350312498374},{"name":"C#4","midi":61,"time":752.8231529999474,"velocity":0.7244094488188977,"duration":0.17279403124996406},{"name":"G4","midi":67,"time":752.9996234999473,"velocity":0.7244094488188977,"duration":0.5147056249999196},{"name":"A#4","midi":70,"time":752.9996234999473,"velocity":0.7244094488188977,"duration":0.5257350312499511},{"name":"E3","midi":52,"time":753.1760939999473,"velocity":0.7244094488188977,"duration":0.17279403124996406},{"name":"B2","midi":47,"time":753.3525644999472,"velocity":0.7244094488188977,"duration":1.0569847656250886},{"name":"B4","midi":71,"time":753.5290349999473,"velocity":0.7244094488188977,"duration":0.08455878125005256},{"name":"F#4","midi":66,"time":753.6172702499473,"velocity":0.7244094488188977,"duration":0.08455878125005256},{"name":"D#4","midi":63,"time":753.7055054999473,"velocity":0.7244094488188977,"duration":0.17279403124996406},{"name":"B3","midi":59,"time":753.8819759999473,"velocity":0.7244094488188977,"duration":0.08455878125005256},{"name":"A#3","midi":58,"time":753.9702112499473,"velocity":0.7244094488188977,"duration":0.08455878125005256},{"name":"B3","midi":59,"time":754.0584464999473,"velocity":0.7244094488188977,"duration":0.08455878125005256},{"name":"D#4","midi":63,"time":754.1466817499473,"velocity":0.7244094488188977,"duration":0.08455878125005256},{"name":"F#4","midi":66,"time":754.2349169999474,"velocity":0.7244094488188977,"duration":0.17279403124996406},{"name":"B4","midi":71,"time":754.4113874999473,"velocity":0.7244094488188977,"duration":0.14705875000004198},{"name":"B3","midi":59,"time":754.5878579999473,"velocity":0.7244094488188977,"duration":0.17279403124996406},{"name":"A3","midi":57,"time":754.7643284999473,"velocity":0.7244094488188977,"duration":0.48713210937501117},{"name":"C4","midi":60,"time":755.2937399999473,"velocity":0.7244094488188977,"duration":0.17279403124996406},{"name":"D#3","midi":51,"time":755.4702104999473,"velocity":0.7244094488188977,"duration":0.48713210937501117},{"name":"F#3","midi":54,"time":755.9996219999473,"velocity":0.7244094488188977,"duration":0.17279403124996406},{"name":"E3","midi":52,"time":756.1760924999472,"velocity":0.7244094488188977,"duration":0.48713210937501117},{"name":"G3","midi":55,"time":756.7055039999473,"velocity":0.7244094488188977,"duration":0.17279403124996406},{"name":"A#2","midi":46,"time":756.8819744999472,"velocity":0.7244094488188977,"duration":0.48713210937501117},{"name":"C3","midi":48,"time":757.4113859999472,"velocity":0.7244094488188977,"duration":0.17279403124996406},{"name":"B2","midi":47,"time":757.5878564999472,"velocity":0.7244094488188977,"duration":0.48713210937501117},{"name":"D#3","midi":51,"time":758.1172679999472,"velocity":0.7244094488188977,"duration":0.17279403124996406},{"name":"E3","midi":52,"time":758.2937384999472,"velocity":0.7244094488188977,"duration":0.7022055312500015},{"name":"G3","midi":55,"time":758.9996204999471,"velocity":0.7244094488188977,"duration":0.11397053124994727},{"name":"F#3","midi":54,"time":759.117267499947,"velocity":0.7244094488188977,"duration":0.11397053124994727},{"name":"G3","midi":55,"time":759.234914499947,"velocity":0.7244094488188977,"duration":0.11397053124994727},{"name":"F#3","midi":54,"time":759.3525614999469,"velocity":0.7244094488188977,"duration":0.11397053124994727},{"name":"E3","midi":52,"time":759.4702084999468,"velocity":0.7244094488188977,"duration":0.11397053124994727},{"name":"F#3","midi":54,"time":759.5878554999467,"velocity":0.7244094488188977,"duration":0.11397053124994727},{"name":"G3","midi":55,"time":759.7055024999466,"velocity":0.7244094488188977,"duration":0.17279403124996406},{"name":"C4","midi":60,"time":759.8819729999466,"velocity":0.7244094488188977,"duration":0.17279403124996406},{"name":"B3","midi":59,"time":760.0584434999465,"velocity":0.7244094488188977,"duration":0.17279403124996406},{"name":"F#4","midi":66,"time":760.2349139999465,"velocity":0.7244094488188977,"duration":0.17279403124996406},{"name":"A3","midi":57,"time":760.2349139999465,"velocity":0.7244094488188977,"duration":0.17279403124996406},{"name":"E4","midi":64,"time":760.4113844999464,"velocity":0.7244094488188977,"duration":0.49632328124982905},{"name":"G3","midi":55,"time":760.4113844999464,"velocity":0.7244094488188977,"duration":0.17279403124996406},{"name":"B3","midi":59,"time":760.5878549999463,"velocity":0.7244094488188977,"duration":0.17279403124996406},{"name":"E3","midi":52,"time":760.7643254999463,"velocity":0.7244094488188977,"duration":0.5257350312498374},{"name":"G4","midi":67,"time":760.9407959999462,"velocity":0.7244094488188977,"duration":0.17279403124996406},{"name":"A#3","midi":58,"time":761.1172664999461,"velocity":0.7244094488188977,"duration":0.49632328124982905},{"name":"C#3","midi":49,"time":761.2937369999461,"velocity":0.7244094488188977,"duration":0.17279403124996406},{"name":"D3","midi":50,"time":761.470207499946,"velocity":0.7244094488188977,"duration":0.5257350312498374},{"name":"C#4","midi":61,"time":761.646677999946,"velocity":0.7244094488188977,"duration":0.17279403124996406},{"name":"B3","midi":59,"time":761.8231484999459,"velocity":0.7244094488188977,"duration":0.49632328124982905},{"name":"F#3","midi":54,"time":761.9996189999458,"velocity":0.7244094488188977,"duration":0.17279403124996406},{"name":"B2","midi":47,"time":762.1760894999458,"velocity":0.7244094488188977,"duration":0.5257350312498374},{"name":"D4","midi":62,"time":762.3525599999457,"velocity":0.7244094488188977,"duration":0.17279403124996406},{"name":"F3","midi":53,"time":762.5290304999456,"velocity":0.7244094488188977,"duration":0.49632328124982905},{"name":"G#2","midi":44,"time":762.7055009999456,"velocity":0.7244094488188977,"duration":0.17279403124996406},{"name":"A#2","midi":46,"time":762.8819714999455,"velocity":0.7244094488188977,"duration":0.5257350312498374},{"name":"G3","midi":55,"time":763.0584419999454,"velocity":0.7244094488188977,"duration":0.17279403124996406},{"name":"F#3","midi":54,"time":763.2349124999454,"velocity":0.7244094488188977,"duration":0.49632328124982905},{"name":"C#3","midi":49,"time":763.4113829999453,"velocity":0.7244094488188977,"duration":0.17279403124996406},{"name":"E3","midi":52,"time":763.5878534999453,"velocity":0.7244094488188977,"duration":0.5257350312498374},{"name":"A#3","midi":58,"time":763.7643239999452,"velocity":0.7244094488188977,"duration":0.17279403124996406},{"name":"B3","midi":59,"time":763.9407944999451,"velocity":0.7244094488188977,"duration":0.5147056249999196},{"name":"C#3","midi":49,"time":764.1172649999451,"velocity":0.7244094488188977,"duration":0.17279403124996406},{"name":"D3","midi":50,"time":764.293735499945,"velocity":0.7244094488188977,"duration":0.17279403125007775},{"name":"B3","midi":59,"time":764.470205999945,"velocity":0.7244094488188977,"duration":0.17279403124996406},{"name":"D4","midi":62,"time":764.646676499945,"velocity":0.7244094488188977,"duration":0.08455878125005256},{"name":"E3","midi":52,"time":764.646676499945,"velocity":0.7244094488188977,"duration":0.17279403125007775},{"name":"C#4","midi":61,"time":764.734911749945,"velocity":0.7244094488188977,"duration":0.08455878125005256},{"name":"D4","midi":62,"time":764.823146999945,"velocity":0.7244094488188977,"duration":0.08455878125005256},{"name":"B3","midi":59,"time":764.823146999945,"velocity":0.7244094488188977,"duration":0.17279403125007775},{"name":"C#4","midi":61,"time":764.9113822499451,"velocity":0.7244094488188977,"duration":0.08455878125005256},{"name":"D4","midi":62,"time":764.9996174999451,"velocity":0.7244094488188977,"duration":0.08455878125005256},{"name":"F#3","midi":54,"time":764.9996174999451,"velocity":0.7244094488188977,"duration":0.17279403125007775},{"name":"C#4","midi":61,"time":765.0878527499451,"velocity":0.7244094488188977,"duration":0.08455878125005256},{"name":"B3","midi":59,"time":765.1760879999451,"velocity":0.7244094488188977,"duration":0.08455878125005256},{"name":"A#3","midi":58,"time":765.1760879999451,"velocity":0.7244094488188977,"duration":0.17279403125007775},{"name":"C#4","midi":61,"time":765.2643232499452,"velocity":0.7244094488188977,"duration":0.08455878125005256},{"name":"D4","midi":62,"time":765.3525584999452,"velocity":0.7244094488188977,"duration":0.17279403124996406},{"name":"B3","midi":59,"time":765.3525584999452,"velocity":0.7244094488188977,"duration":0.5147056249999196},{"name":"G4","midi":67,"time":765.5290289999451,"velocity":0.7244094488188977,"duration":0.17279403124996406},{"name":"F#4","midi":66,"time":765.7054994999451,"velocity":0.7244094488188977,"duration":0.17279403125007775},{"name":"E4","midi":64,"time":765.8819699999451,"velocity":0.7244094488188977,"duration":0.17279403124996406},{"name":"D4","midi":62,"time":766.058440499945,"velocity":0.7244094488188977,"duration":0.17279403124996406},{"name":"F#4","midi":66,"time":766.234910999945,"velocity":0.7244094488188977,"duration":0.17279403124996406},{"name":"A3","midi":57,"time":766.234910999945,"velocity":0.7244094488188977,"duration":0.17279403124996406},{"name":"B3","midi":59,"time":766.4113814999449,"velocity":0.7244094488188977,"duration":0.5257350312498374},{"name":"G#3","midi":56,"time":766.4113814999449,"velocity":0.7244094488188977,"duration":0.17279403124996406},{"name":"F#3","midi":54,"time":766.5878519999449,"velocity":0.7244094488188977,"duration":0.17279403124996406},{"name":"E3","midi":52,"time":766.7643224999448,"velocity":0.7244094488188977,"duration":0.5257350312498374},{"name":"G#3","midi":56,"time":766.9407929999447,"velocity":0.7244094488188977,"duration":0.17279403124996406},{"name":"F4","midi":65,"time":767.1172634999447,"velocity":0.7244094488188977,"duration":0.5257350312498374},{"name":"D3","midi":50,"time":767.2937339999446,"velocity":0.7244094488188977,"duration":0.17279403124996406},{"name":"D3","midi":50,"time":767.4702044999445,"velocity":0.7244094488188977,"duration":0.11397053124994727},{"name":"C3","midi":48,"time":767.5878514999445,"velocity":0.7244094488188977,"duration":0.11397053125006096},{"name":"D4","midi":62,"time":767.6466749999445,"velocity":0.7244094488188977,"duration":0.17279403124996406},{"name":"D3","midi":50,"time":767.7054984999445,"velocity":0.7244094488188977,"duration":0.11397053124994727},{"name":"G#4","midi":68,"time":767.8231454999444,"velocity":0.7244094488188977,"duration":0.34926453124990076},{"name":"C3","midi":48,"time":767.8231454999444,"velocity":0.7244094488188977,"duration":0.17279403124996406},{"name":"B2","midi":47,"time":767.9996159999444,"velocity":0.7244094488188977,"duration":0.17279403124996406},{"name":"A2","midi":45,"time":768.1760864999443,"velocity":0.7244094488188977,"duration":0.34926453125001444},{"name":"F4","midi":65,"time":768.3525569999443,"velocity":0.7244094488188977,"duration":0.17279403124996406},{"name":"E4","midi":64,"time":768.5290274999443,"velocity":0.7244094488188977,"duration":0.17279403124996406},{"name":"A3","midi":57,"time":768.5290274999443,"velocity":0.7244094488188977,"duration":0.5257350312498374},{"name":"D4","midi":62,"time":768.7054979999442,"velocity":0.7244094488188977,"duration":0.17279403124996406},{"name":"C4","midi":60,"time":768.8819684999442,"velocity":0.7244094488188977,"duration":0.17279403124996406},{"name":"E4","midi":64,"time":769.0584389999441,"velocity":0.7244094488188977,"duration":0.17279403124996406},{"name":"G3","midi":55,"time":769.0584389999441,"velocity":0.7244094488188977,"duration":0.17279403124996406},{"name":"A3","midi":57,"time":769.234909499944,"velocity":0.7244094488188977,"duration":0.4411762499998986},{"name":"F#3","midi":54,"time":769.234909499944,"velocity":0.7244094488188977,"duration":0.17279403124996406},{"name":"E3","midi":52,"time":769.411379999944,"velocity":0.7244094488188977,"duration":0.17279403124996406},{"name":"D3","midi":50,"time":769.5878504999439,"velocity":0.7244094488188977,"duration":0.5257350312499511},{"name":"F#3","midi":54,"time":769.764320999944,"velocity":0.7244094488188977,"duration":0.17279403124996406},{"name":"D#4","midi":63,"time":769.9407914999439,"velocity":0.7244094488188977,"duration":0.34926453124990076},{"name":"C3","midi":48,"time":770.1172619999438,"velocity":0.7244094488188977,"duration":0.17279403124996406},{"name":"C3","midi":48,"time":770.2937324999438,"velocity":0.7244094488188977,"duration":0.08455878125005256},{"name":"B2","midi":47,"time":770.3819677499438,"velocity":0.7244094488188977,"duration":0.08455878125005256},{"name":"C4","midi":60,"time":770.4702029999438,"velocity":0.7244094488188977,"duration":0.17279403125007775},{"name":"C3","midi":48,"time":770.4702029999438,"velocity":0.7244094488188977,"duration":0.08455878125005256},{"name":"B2","midi":47,"time":770.5584382499438,"velocity":0.7244094488188977,"duration":0.08455878125005256},{"name":"F#4","midi":66,"time":770.6466734999439,"velocity":0.7244094488188977,"duration":0.17279403125007775},{"name":"C3","midi":48,"time":770.6466734999439,"velocity":0.7244094488188977,"duration":0.08455878125005256},{"name":"B2","midi":47,"time":770.7349087499439,"velocity":0.7244094488188977,"duration":0.08455878125005256},{"name":"C4","midi":60,"time":770.8231439999439,"velocity":0.7244094488188977,"duration":0.17279403124996406},{"name":"A2","midi":45,"time":770.8231439999439,"velocity":0.7244094488188977,"duration":0.17279403124996406},{"name":"B3","midi":59,"time":770.9996144999438,"velocity":0.7244094488188977,"duration":0.34926453124990076},{"name":"G2","midi":43,"time":770.9996144999438,"velocity":0.7244094488188977,"duration":0.17279403124996406},{"name":"B2","midi":47,"time":771.1760849999438,"velocity":0.7244094488188977,"duration":0.17279403124996406},{"name":"G3","midi":55,"time":771.3525554999437,"velocity":0.7244094488188977,"duration":0.7022055312497741},{"name":"E3","midi":52,"time":771.3525554999437,"velocity":0.7244094488188977,"duration":0.17279403124996406},{"name":"B4","midi":71,"time":771.5290259999437,"velocity":0.7244094488188977,"duration":0.17279403124996406},{"name":"D3","midi":50,"time":771.5290259999437,"velocity":0.7244094488188977,"duration":0.17279403124996406},{"name":"A4","midi":69,"time":771.7054964999436,"velocity":0.7244094488188977,"duration":0.49632328124982905},{"name":"C3","midi":48,"time":771.7054964999436,"velocity":0.7244094488188977,"duration":0.17279403124996406},{"name":"E3","midi":52,"time":771.8819669999435,"velocity":0.7244094488188977,"duration":0.17279403124996406},{"name":"F#3","midi":54,"time":772.0584374999435,"velocity":0.7244094488188977,"duration":0.7022055312497741},{"name":"A2","midi":45,"time":772.0584374999435,"velocity":0.7244094488188977,"duration":0.5257350312498374},{"name":"C5","midi":72,"time":772.2349079999434,"velocity":0.7244094488188977,"duration":0.17279403124996406},{"name":"D#4","midi":63,"time":772.4113784999433,"velocity":0.7244094488188977,"duration":0.49632328124982905},{"name":"F#2","midi":42,"time":772.5878489999433,"velocity":0.7244094488188977,"duration":0.17279403124996406},{"name":"B3","midi":59,"time":772.7643194999432,"velocity":0.7244094488188977,"duration":0.7022055312497741},{"name":"G2","midi":43,"time":772.7643194999432,"velocity":0.7244094488188977,"duration":0.5257350312498374},{"name":"F#4","midi":66,"time":772.9407899999431,"velocity":0.7244094488188977,"duration":0.17279403124996406},{"name":"E4","midi":64,"time":773.1172604999431,"velocity":0.7244094488188977,"duration":0.49632328124982905},{"name":"B2","midi":47,"time":773.293730999943,"velocity":0.7244094488188977,"duration":0.17279403124996406},{"name":"G3","midi":55,"time":773.470201499943,"velocity":0.7244094488188977,"duration":0.7022055312497741},{"name":"E2","midi":40,"time":773.470201499943,"velocity":0.7244094488188977,"duration":0.5257350312498374},{"name":"G4","midi":67,"time":773.6466719999429,"velocity":0.7244094488188977,"duration":0.17279403124996406},{"name":"A#3","midi":58,"time":773.8231424999428,"velocity":0.7244094488188977,"duration":0.49632328124982905},{"name":"C#2","midi":37,"time":773.9996129999428,"velocity":0.7244094488188977,"duration":0.17279403124996406},{"name":"F#3","midi":54,"time":774.1760834999427,"velocity":0.7244094488188977,"duration":1.408087531249521},{"name":"D#2","midi":39,"time":774.1760834999427,"velocity":0.7244094488188977,"duration":0.5257350312498374},{"name":"C4","midi":60,"time":774.3525539999426,"velocity":0.7244094488188977,"duration":0.17279403124996406},{"name":"B3","midi":59,"time":774.5290244999426,"velocity":0.7244094488188977,"duration":0.49632328124982905},{"name":"F#2","midi":42,"time":774.7054949999425,"velocity":0.7244094488188977,"duration":0.17279403124996406},{"name":"A2","midi":45,"time":774.8819654999425,"velocity":0.7244094488188977,"duration":0.5257350312498374},{"name":"D#4","midi":63,"time":775.0584359999424,"velocity":0.7244094488188977,"duration":0.17279403124996406},{"name":"E4","midi":64,"time":775.2349064999423,"velocity":0.7244094488188977,"duration":0.7022055312497741},{"name":"F#2","midi":42,"time":775.4113769999423,"velocity":0.7244094488188977,"duration":0.17279403124996406},{"name":"B3","midi":59,"time":775.5878474999422,"velocity":0.7244094488188977,"duration":0.34926453124990076},{"name":"G2","midi":43,"time":775.5878474999422,"velocity":0.7244094488188977,"duration":0.17279403124996406},{"name":"E3","midi":52,"time":775.7643179999421,"velocity":0.7244094488188977,"duration":0.17279403124996406},{"name":"G4","midi":67,"time":775.9407884999421,"velocity":0.7244094488188977,"duration":0.08455878125005256},{"name":"C4","midi":60,"time":775.9407884999421,"velocity":0.7244094488188977,"duration":0.34926453125012813},{"name":"A2","midi":45,"time":775.9407884999421,"velocity":0.7244094488188977,"duration":0.17279403125007775},{"name":"F#4","midi":66,"time":776.0290237499421,"velocity":0.7244094488188977,"duration":0.08455878125005256},{"name":"G4","midi":67,"time":776.1172589999421,"velocity":0.7244094488188977,"duration":0.08455878125005256},{"name":"E3","midi":52,"time":776.1172589999421,"velocity":0.7244094488188977,"duration":0.17279403125007775},{"name":"F#4","midi":66,"time":776.2054942499421,"velocity":0.7244094488188977,"duration":0.08455878125005256},{"name":"G4","midi":67,"time":776.2937294999422,"velocity":0.7244094488188977,"duration":0.08455878125005256},{"name":"B3","midi":59,"time":776.2937294999422,"velocity":0.7244094488188977,"duration":0.8786760312499382},{"name":"B2","midi":47,"time":776.2937294999422,"velocity":0.7244094488188977,"duration":0.17279403125007775},{"name":"F#4","midi":66,"time":776.3819647499422,"velocity":0.7244094488188977,"duration":0.08455878125005256},{"name":"E4","midi":64,"time":776.4701999999422,"velocity":0.7244094488188977,"duration":0.08455878125005256},{"name":"D#3","midi":51,"time":776.4701999999422,"velocity":0.7244094488188977,"duration":0.17279403125007775},{"name":"F#4","midi":66,"time":776.5584352499422,"velocity":0.7244094488188977,"duration":0.08455878125005256},{"name":"G4","midi":67,"time":776.6466704999423,"velocity":0.7244094488188977,"duration":0.17279403124996406},{"name":"E3","midi":52,"time":776.6466704999423,"velocity":0.7244094488188977,"duration":0.5257350312498374},{"name":"E4","midi":64,"time":776.8231409999422,"velocity":0.7244094488188977,"duration":0.17279403124996406},{"name":"E5","midi":76,"time":776.9996114999421,"velocity":0.7244094488188977,"duration":0.5257350312498374},{"name":"B4","midi":71,"time":777.1760819999421,"velocity":0.7244094488188977,"duration":0.17279403124996406},{"name":"G3","midi":55,"time":777.1760819999421,"velocity":0.7244094488188977,"duration":0.17279403124996406},{"name":"A4","midi":69,"time":777.352552499942,"velocity":0.7244094488188977,"duration":0.5257350312498374},{"name":"F#3","midi":54,"time":777.352552499942,"velocity":0.7244094488188977,"duration":0.5257350312498374},{"name":"C#5","midi":73,"time":777.529022999942,"velocity":0.7244094488188977,"duration":0.17279403124996406},{"name":"D5","midi":74,"time":777.7054934999419,"velocity":0.7244094488188977,"duration":0.5257350312498374},{"name":"F#4","midi":66,"time":777.8819639999418,"velocity":0.7244094488188977,"duration":0.17279403124996406},{"name":"B3","midi":59,"time":777.8819639999418,"velocity":0.7244094488188977,"duration":0.17279403124996406},{"name":"G#4","midi":68,"time":778.0584344999418,"velocity":0.7244094488188977,"duration":0.34926453125001444},{"name":"E3","midi":52,"time":778.0584344999418,"velocity":0.7244094488188977,"duration":0.5257350312500648},{"name":"C#5","midi":73,"time":778.2349049999417,"velocity":0.7244094488188977,"duration":0.08455878125005256},{"name":"B4","midi":71,"time":778.3231402499417,"velocity":0.7244094488188977,"duration":0.08455878125005256},{"name":"C#5","midi":73,"time":778.4113754999418,"velocity":0.7244094488188977,"duration":0.08455878125005256},{"name":"B4","midi":71,"time":778.4996107499418,"velocity":0.7244094488188977,"duration":0.08455878125005256},{"name":"A4","midi":69,"time":778.5878459999418,"velocity":0.7244094488188977,"duration":0.17279403124996406},{"name":"A3","midi":57,"time":778.5878459999418,"velocity":0.7244094488188977,"duration":0.17279403124996406},{"name":"A5","midi":81,"time":778.7643164999417,"velocity":0.7244094488188977,"duration":0.08455878125005256},{"name":"C#3","midi":49,"time":778.7643164999417,"velocity":0.7244094488188977,"duration":0.17279403125007775},{"name":"G5","midi":79,"time":778.8525517499418,"velocity":0.7244094488188977,"duration":0.08455878125005256},{"name":"F#5","midi":78,"time":778.9407869999418,"velocity":0.7244094488188977,"duration":0.17279403124996406},{"name":"E3","midi":52,"time":778.9407869999418,"velocity":0.7244094488188977,"duration":0.17279403124996406},{"name":"G5","midi":79,"time":779.1172574999417,"velocity":0.7244094488188977,"duration":0.08455878125005256},{"name":"A2","midi":45,"time":779.1172574999417,"velocity":0.7244094488188977,"duration":0.17279403125007775},{"name":"F#5","midi":78,"time":779.2054927499418,"velocity":0.7244094488188977,"duration":0.08455878125005256},{"name":"E5","midi":76,"time":779.2937279999418,"velocity":0.7244094488188977,"duration":0.17279403124996406},{"name":"C#3","midi":49,"time":779.2937279999418,"velocity":0.7244094488188977,"duration":0.17279403124996406},{"name":"F#5","midi":78,"time":779.4701984999417,"velocity":0.7244094488188977,"duration":0.17279403124996406},{"name":"D3","midi":50,"time":779.4701984999417,"velocity":0.7244094488188977,"duration":0.5257350312498374},{"name":"A4","midi":69,"time":779.6466689999417,"velocity":0.7244094488188977,"duration":0.17279403124996406},{"name":"D5","midi":74,"time":779.8231394999416,"velocity":0.7244094488188977,"duration":0.5257350312498374},{"name":"A4","midi":69,"time":779.9996099999415,"velocity":0.7244094488188977,"duration":0.17279403124996406},{"name":"F#3","midi":54,"time":779.9996099999415,"velocity":0.7244094488188977,"duration":0.17279403124996406},{"name":"G4","midi":67,"time":780.1760804999415,"velocity":0.7244094488188977,"duration":0.5257350312498374},{"name":"E3","midi":52,"time":780.1760804999415,"velocity":0.7244094488188977,"duration":0.5257350312498374},{"name":"B4","midi":71,"time":780.3525509999414,"velocity":0.7244094488188977,"duration":0.17279403124996406},{"name":"C5","midi":72,"time":780.5290214999413,"velocity":0.7244094488188977,"duration":0.43749978124992595},{"name":"E4","midi":64,"time":780.7054919999413,"velocity":0.7244094488188977,"duration":0.17279403124996406},{"name":"A3","midi":57,"time":780.7054919999413,"velocity":0.7244094488188977,"duration":0.17279403124996406},{"name":"F#4","midi":66,"time":780.8819624999412,"velocity":0.7244094488188977,"duration":0.34926453125001444},{"name":"D3","midi":50,"time":780.8819624999412,"velocity":0.7244094488188977,"duration":0.5257350312500648},{"name":"B4","midi":71,"time":780.9701977499412,"velocity":0.7244094488188977,"duration":0.08455878125005256},{"name":"A4","midi":69,"time":781.0584329999413,"velocity":0.7244094488188977,"duration":0.17279403124996406},{"name":"B4","midi":71,"time":781.2349034999412,"velocity":0.7244094488188977,"duration":0.08455878125005256},{"name":"A4","midi":69,"time":781.3231387499412,"velocity":0.7244094488188977,"duration":0.08455878125005256},{"name":"G4","midi":67,"time":781.4113739999412,"velocity":0.7244094488188977,"duration":0.17279403124996406},{"name":"G3","midi":55,"time":781.4113739999412,"velocity":0.7244094488188977,"duration":0.17279403124996406},{"name":"G5","midi":79,"time":781.5878444999412,"velocity":0.7244094488188977,"duration":0.08455878125005256},{"name":"B2","midi":47,"time":781.5878444999412,"velocity":0.7244094488188977,"duration":0.17279403125007775},{"name":"F5","midi":77,"time":781.6760797499412,"velocity":0.7244094488188977,"duration":0.08455878125005256},{"name":"E5","midi":76,"time":781.7643149999412,"velocity":0.7244094488188977,"duration":0.17279403124996406},{"name":"D3","midi":50,"time":781.7643149999412,"velocity":0.7244094488188977,"duration":0.17279403124996406},{"name":"F5","midi":77,"time":781.9407854999412,"velocity":0.7244094488188977,"duration":0.08455878125005256},{"name":"G2","midi":43,"time":781.9407854999412,"velocity":0.7244094488188977,"duration":0.17279403125007775},{"name":"E5","midi":76,"time":782.0290207499412,"velocity":0.7244094488188977,"duration":0.08455878125005256},{"name":"D5","midi":74,"time":782.1172559999412,"velocity":0.7244094488188977,"duration":0.17279403124996406},{"name":"B2","midi":47,"time":782.1172559999412,"velocity":0.7244094488188977,"duration":0.17279403124996406},{"name":"E5","midi":76,"time":782.2937264999412,"velocity":0.7244094488188977,"duration":0.5257350312498374},{"name":"C3","midi":48,"time":782.2937264999412,"velocity":0.7244094488188977,"duration":0.17279403124996406},{"name":"G4","midi":67,"time":782.4701969999411,"velocity":0.7244094488188977,"duration":0.17279403124996406},{"name":"E3","midi":52,"time":782.4701969999411,"velocity":0.7244094488188977,"duration":0.17279403124996406},{"name":"C5","midi":72,"time":782.646667499941,"velocity":0.7244094488188977,"duration":0.5257350312498374},{"name":"A3","midi":57,"time":782.646667499941,"velocity":0.7244094488188977,"duration":0.34926453124990076},{"name":"E5","midi":76,"time":782.823137999941,"velocity":0.7244094488188977,"duration":0.17279403124996406},{"name":"F5","midi":77,"time":782.9996084999409,"velocity":0.7244094488188977,"duration":0.5257350312498374},{"name":"D3","midi":50,"time":782.9996084999409,"velocity":0.7244094488188977,"duration":0.34926453124990076},{"name":"A4","midi":69,"time":783.1760789999408,"velocity":0.7244094488188977,"duration":0.17279403124996406},{"name":"B4","midi":71,"time":783.3525494999408,"velocity":0.7244094488188977,"duration":0.5257350312498374},{"name":"G3","midi":55,"time":783.3525494999408,"velocity":0.7244094488188977,"duration":0.34926453124990076},{"name":"D5","midi":74,"time":783.5290199999407,"velocity":0.7244094488188977,"duration":0.17279403124996406},{"name":"E5","midi":76,"time":783.7054904999407,"velocity":0.7244094488188977,"duration":0.5257350312498374},{"name":"C3","midi":48,"time":783.7054904999407,"velocity":0.7244094488188977,"duration":0.34926453124990076},{"name":"G#4","midi":68,"time":783.8819609999406,"velocity":0.7244094488188977,"duration":0.17279403124996406},{"name":"A4","midi":69,"time":784.0584314999405,"velocity":0.7244094488188977,"duration":0.5257350312498374},{"name":"F3","midi":53,"time":784.0584314999405,"velocity":0.7244094488188977,"duration":0.34926453124990076},{"name":"C5","midi":72,"time":784.2349019999405,"velocity":0.7244094488188977,"duration":0.17279403124996406},{"name":"D5","midi":74,"time":784.4113724999404,"velocity":0.7244094488188977,"duration":0.5257350312498374},{"name":"B2","midi":47,"time":784.4113724999404,"velocity":0.7244094488188977,"duration":0.34926453124990076},{"name":"F#4","midi":66,"time":784.5878429999403,"velocity":0.7244094488188977,"duration":0.17279403124996406},{"name":"G4","midi":67,"time":784.7643134999403,"velocity":0.7244094488188977,"duration":0.5257350312498374},{"name":"E3","midi":52,"time":784.7643134999403,"velocity":0.7244094488188977,"duration":0.34926453124990076},{"name":"B4","midi":71,"time":784.9407839999402,"velocity":0.7244094488188977,"duration":0.17279403124996406},{"name":"C5","midi":72,"time":785.1172544999401,"velocity":0.7244094488188977,"duration":0.5257350312498374},{"name":"A2","midi":45,"time":785.1172544999401,"velocity":0.7244094488188977,"duration":0.34926453124990076},{"name":"E4","midi":64,"time":785.2937249999401,"velocity":0.7244094488188977,"duration":0.17279403124996406},{"name":"F4","midi":65,"time":785.47019549994,"velocity":0.7244094488188977,"duration":0.5257350312498374},{"name":"D3","midi":50,"time":785.47019549994,"velocity":0.7244094488188977,"duration":0.5257350312498374},{"name":"A4","midi":69,"time":785.64666599994,"velocity":0.7244094488188977,"duration":0.17279403124996406},{"name":"B4","midi":71,"time":785.8231364999399,"velocity":0.7244094488188977,"duration":0.5257350312498374},{"name":"D4","midi":62,"time":785.9996069999398,"velocity":0.7244094488188977,"duration":0.17279403124996406},{"name":"G#2","midi":44,"time":785.9996069999398,"velocity":0.7244094488188977,"duration":0.17279403124996406},{"name":"E4","midi":64,"time":786.1760774999398,"velocity":0.7244094488188977,"duration":0.7022055312498878},{"name":"C3","midi":48,"time":786.1760774999398,"velocity":0.7244094488188977,"duration":0.5257350312498374},{"name":"G#4","midi":68,"time":786.3525479999397,"velocity":0.7244094488188977,"duration":0.17279403124996406},{"name":"A4","midi":69,"time":786.5290184999396,"velocity":0.7244094488188977,"duration":0.5257350312499511},{"name":"B2","midi":47,"time":786.7054889999396,"velocity":0.7244094488188977,"duration":0.08455878125005256},{"name":"A2","midi":45,"time":786.7937242499396,"velocity":0.7244094488188977,"duration":0.08455878125005256},{"name":"D4","midi":62,"time":786.8819594999396,"velocity":0.7244094488188977,"duration":0.17279403124996406},{"name":"F3","midi":53,"time":786.8819594999396,"velocity":0.7244094488188977,"duration":0.5257350312498374},{"name":"B4","midi":71,"time":787.0584299999396,"velocity":0.7244094488188977,"duration":0.17279403124996406},{"name":"G#4","midi":68,"time":787.0584299999396,"velocity":0.7244094488188977,"duration":0.17279403124996406},{"name":"C5","midi":72,"time":787.2349004999395,"velocity":0.7244094488188977,"duration":0.34926453125001444},{"name":"A4","midi":69,"time":787.2349004999395,"velocity":0.7244094488188977,"duration":0.5257350312499511},{"name":"E3","midi":52,"time":787.4113709999394,"velocity":0.7244094488188977,"duration":0.08455878125005256},{"name":"D#3","midi":51,"time":787.4996062499395,"velocity":0.7244094488188977,"duration":0.08455878125005256},{"name":"C#5","midi":73,"time":787.5878414999395,"velocity":0.7244094488188977,"duration":0.34926453124990076},{"name":"A3","midi":57,"time":787.5878414999395,"velocity":0.7244094488188977,"duration":0.43749978124992595},{"name":"G4","midi":67,"time":787.7643119999394,"velocity":0.7244094488188977,"duration":0.17279403124996406},{"name":"D#5","midi":75,"time":787.9407824999394,"velocity":0.7244094488188977,"duration":0.34926453125001444},{"name":"F#4","midi":66,"time":787.9407824999394,"velocity":0.7244094488188977,"duration":0.34926453125001444},{"name":"G3","midi":55,"time":788.0290177499394,"velocity":0.7244094488188977,"duration":0.08455878125005256},{"name":"F#3","midi":54,"time":788.1172529999394,"velocity":0.7244094488188977,"duration":0.17279403124996406},{"name":"E5","midi":76,"time":788.2937234999393,"velocity":0.7244094488188977,"duration":0.34926453125001444},{"name":"B4","midi":71,"time":788.2937234999393,"velocity":0.7244094488188977,"duration":0.7022055312500015},{"name":"G3","midi":55,"time":788.2937234999393,"velocity":0.7244094488188977,"duration":0.17279403124996406},{"name":"F#3","midi":54,"time":788.4701939999393,"velocity":0.7244094488188977,"duration":0.08455878125005256},{"name":"E3","midi":52,"time":788.5584292499393,"velocity":0.7244094488188977,"duration":0.08455878125005256},{"name":"D#5","midi":75,"time":788.6466644999393,"velocity":0.7244094488188977,"duration":0.34926453125001444},{"name":"F#3","midi":54,"time":788.6466644999393,"velocity":0.7244094488188977,"duration":0.17279403124996406},{"name":"G3","midi":55,"time":788.8231349999393,"velocity":0.7244094488188977,"duration":0.08455878125005256},{"name":"A3","midi":57,"time":788.9113702499393,"velocity":0.7244094488188977,"duration":0.08455878125005256},{"name":"E5","midi":76,"time":788.9996054999393,"velocity":0.7244094488188977,"duration":0.34926453125001444},{"name":"C#5","midi":73,"time":788.9996054999393,"velocity":0.7244094488188977,"duration":0.34926453125001444},{"name":"G3","midi":55,"time":788.9996054999393,"velocity":0.7244094488188977,"duration":0.17279403124996406},{"name":"F#3","midi":54,"time":789.1760759999393,"velocity":0.7244094488188977,"duration":0.08455878125005256},{"name":"E3","midi":52,"time":789.2643112499393,"velocity":0.7244094488188977,"duration":0.08455878125005256},{"name":"F#5","midi":78,"time":789.3525464999393,"velocity":0.7244094488188977,"duration":0.5257350312498374},{"name":"D#5","midi":75,"time":789.3525464999393,"velocity":0.7244094488188977,"duration":0.17279403124996406},{"name":"B3","midi":59,"time":789.3525464999393,"velocity":0.7244094488188977,"duration":4.227939062498876},{"name":"B4","midi":71,"time":789.5290169999392,"velocity":0.7244094488188977,"duration":0.17279403124996406},{"name":"A4","midi":69,"time":789.7054874999392,"velocity":0.7244094488188977,"duration":0.17279403124996406},{"name":"B5","midi":83,"time":789.8819579999391,"velocity":0.7244094488188977,"duration":0.17279403124996406},{"name":"G4","midi":67,"time":789.8819579999391,"velocity":0.7244094488188977,"duration":0.17279403124996406},{"name":"A5","midi":81,"time":790.058428499939,"velocity":0.7244094488188977,"duration":0.5055144531248743},{"name":"F#4","midi":66,"time":790.058428499939,"velocity":0.7244094488188977,"duration":0.17279403124996406},{"name":"A4","midi":69,"time":790.234898999939,"velocity":0.7244094488188977,"duration":0.17279403124996406},{"name":"C5","midi":72,"time":790.4113694999389,"velocity":0.7244094488188977,"duration":0.5257350312499511},{"name":"C6","midi":84,"time":790.587839999939,"velocity":0.7244094488188977,"duration":0.17279403124996406},{"name":"D#5","midi":75,"time":790.7643104999389,"velocity":0.7244094488188977,"duration":0.5055144531248743},{"name":"C5","midi":72,"time":790.9407809999389,"velocity":0.7244094488188977,"duration":0.17279403124996406},{"name":"B4","midi":71,"time":791.1172514999388,"velocity":0.7244094488188977,"duration":0.17279403124996406},{"name":"F#5","midi":78,"time":791.2937219999387,"velocity":0.7244094488188977,"duration":0.17279403124996406},{"name":"A4","midi":69,"time":791.2937219999387,"velocity":0.7244094488188977,"duration":0.17279403124996406},{"name":"E5","midi":76,"time":791.4701924999387,"velocity":0.7244094488188977,"duration":0.5055144531248743},{"name":"G4","midi":67,"time":791.4701924999387,"velocity":0.7244094488188977,"duration":0.17279403124996406},{"name":"B4","midi":71,"time":791.6466629999386,"velocity":0.7244094488188977,"duration":0.17279403124996406},{"name":"E4","midi":64,"time":791.8231334999385,"velocity":0.7244094488188977,"duration":0.5257350312499511},{"name":"G5","midi":79,"time":791.9996039999386,"velocity":0.7244094488188977,"duration":0.17279403124996406},{"name":"A#4","midi":70,"time":792.1760744999385,"velocity":0.7244094488188977,"duration":0.5055144531248743},{"name":"G4","midi":67,"time":792.3525449999385,"velocity":0.7244094488188977,"duration":0.17279403124996406},{"name":"F#4","midi":66,"time":792.5290154999384,"velocity":0.7244094488188977,"duration":0.17279403124996406},{"name":"C5","midi":72,"time":792.7054859999383,"velocity":0.7244094488188977,"duration":0.17279403124996406},{"name":"E4","midi":64,"time":792.7054859999383,"velocity":0.7244094488188977,"duration":0.17279403124996406},{"name":"B4","midi":71,"time":792.8819564999383,"velocity":0.7244094488188977,"duration":0.5055144531248743},{"name":"D#4","midi":63,"time":792.8819564999383,"velocity":0.7244094488188977,"duration":0.17279403124996406},{"name":"F#4","midi":66,"time":793.0584269999382,"velocity":0.7244094488188977,"duration":0.17279403124996406},{"name":"A4","midi":69,"time":793.2348974999381,"velocity":0.7244094488188977,"duration":0.5257350312499511},{"name":"D#5","midi":75,"time":793.4113679999382,"velocity":0.7244094488188977,"duration":0.17279403124996406},{"name":"E5","midi":76,"time":793.5878384999381,"velocity":0.7244094488188977,"duration":0.5147056249999196},{"name":"F#4","midi":66,"time":793.7643089999381,"velocity":0.7244094488188977,"duration":0.17279403124996406},{"name":"G4","midi":67,"time":793.940779499938,"velocity":0.7244094488188977,"duration":0.17279403125007775},{"name":"E5","midi":76,"time":794.117249999938,"velocity":0.7244094488188977,"duration":0.17279403124996406},{"name":"G5","midi":79,"time":794.293720499938,"velocity":0.7244094488188977,"duration":0.08455878125005256},{"name":"A4","midi":69,"time":794.293720499938,"velocity":0.7244094488188977,"duration":0.17279403125007775},{"name":"F#5","midi":78,"time":794.381955749938,"velocity":0.7244094488188977,"duration":0.08455878125005256},{"name":"G5","midi":79,"time":794.470190999938,"velocity":0.7244094488188977,"duration":0.08455878125005256},{"name":"E5","midi":76,"time":794.470190999938,"velocity":0.7244094488188977,"duration":0.17279403125007775},{"name":"F#5","midi":78,"time":794.5584262499381,"velocity":0.7244094488188977,"duration":0.08455878125005256},{"name":"G5","midi":79,"time":794.6466614999381,"velocity":0.7244094488188977,"duration":0.08455878125005256},{"name":"B4","midi":71,"time":794.6466614999381,"velocity":0.7244094488188977,"duration":0.17279403125007775},{"name":"F#5","midi":78,"time":794.7348967499381,"velocity":0.7244094488188977,"duration":0.08455878125005256},{"name":"E5","midi":76,"time":794.8231319999381,"velocity":0.7244094488188977,"duration":0.08455878125005256},{"name":"D#5","midi":75,"time":794.8231319999381,"velocity":0.7244094488188977,"duration":0.17279403125007775},{"name":"F#5","midi":78,"time":794.9113672499382,"velocity":0.7244094488188977,"duration":0.08455878125005256},{"name":"G5","midi":79,"time":794.9996024999382,"velocity":0.7244094488188977,"duration":0.5147056249999196},{"name":"E4","midi":64,"time":794.9996024999382,"velocity":0.7244094488188977,"duration":0.17279403124996406},{"name":"E5","midi":76,"time":795.1760729999381,"velocity":0.7244094488188977,"duration":0.17279403124996406},{"name":"D5","midi":74,"time":795.3525434999381,"velocity":0.7244094488188977,"duration":0.17279403125007775},{"name":"C5","midi":72,"time":795.5290139999381,"velocity":0.7244094488188977,"duration":0.17279403124996406},{"name":"E4","midi":64,"time":795.5290139999381,"velocity":0.7244094488188977,"duration":0.17279403124996406},{"name":"B4","midi":71,"time":795.705484499938,"velocity":0.7244094488188977,"duration":1.5845580312495713},{"name":"D4","midi":62,"time":795.705484499938,"velocity":0.7244094488188977,"duration":0.5257350312499511},{"name":"D5","midi":74,"time":795.8819549999381,"velocity":0.7244094488188977,"duration":0.17279403124996406},{"name":"F5","midi":77,"time":796.058425499938,"velocity":0.7244094488188977,"duration":0.5257350312498374},{"name":"F4","midi":65,"time":796.234895999938,"velocity":0.7244094488188977,"duration":0.17279403124996406},{"name":"G#3","midi":56,"time":796.4113664999379,"velocity":0.7244094488188977,"duration":0.5257350312498374},{"name":"F5","midi":77,"time":796.5878369999378,"velocity":0.7244094488188977,"duration":0.17279403124996406},{"name":"E5","midi":76,"time":796.7643074999378,"velocity":0.7244094488188977,"duration":0.17279403124996406},{"name":"D5","midi":74,"time":796.9407779999377,"velocity":0.7244094488188977,"duration":0.17279403124996406},{"name":"B3","midi":59,"time":796.9407779999377,"velocity":0.7244094488188977,"duration":0.17279403124996406},{"name":"C5","midi":72,"time":797.1172484999377,"velocity":0.7244094488188977,"duration":0.8786760312497108},{"name":"A3","midi":57,"time":797.1172484999377,"velocity":0.7244094488188977,"duration":0.5257350312498374},{"name":"E4","midi":64,"time":797.2937189999376,"velocity":0.7244094488188977,"duration":0.17279403124996406},{"name":"A4","midi":69,"time":797.4701894999375,"velocity":0.7244094488188977,"duration":0.8713230937497656},{"name":"C4","midi":60,"time":797.6466599999375,"velocity":0.7244094488188977,"duration":0.17279403124996406},{"name":"D#3","midi":51,"time":797.8231304999374,"velocity":0.7244094488188977,"duration":0.5257350312498374},{"name":"C5","midi":72,"time":797.9996009999373,"velocity":0.7244094488188977,"duration":0.17279403124996406},{"name":"B4","midi":71,"time":798.1760714999373,"velocity":0.7244094488188977,"duration":0.17279403124996406},{"name":"A4","midi":69,"time":798.3525419999372,"velocity":0.7244094488188977,"duration":0.17279403124996406},{"name":"F3","midi":53,"time":798.3525419999372,"velocity":0.7244094488188977,"duration":0.17279403124996406},{"name":"G#4","midi":68,"time":798.5290124999372,"velocity":0.7244094488188977,"duration":0.17279403124996406},{"name":"E3","midi":52,"time":798.5290124999372,"velocity":0.7244094488188977,"duration":0.5257350312498374},{"name":"B4","midi":71,"time":798.7054829999371,"velocity":0.7244094488188977,"duration":0.17279403124996406},{"name":"D5","midi":74,"time":798.881953499937,"velocity":0.7244094488188977,"duration":0.5257350312498374},{"name":"F4","midi":65,"time":799.058423999937,"velocity":0.7244094488188977,"duration":0.17279403124996406},{"name":"G#3","midi":56,"time":799.058423999937,"velocity":0.7244094488188977,"duration":0.17279403124996406},{"name":"E4","midi":64,"time":799.2348944999369,"velocity":0.7244094488188977,"duration":0.34926453124990076},{"name":"A3","midi":57,"time":799.2348944999369,"velocity":0.7244094488188977,"duration":0.7022055312497741},{"name":"B4","midi":71,"time":799.4113649999368,"velocity":0.7244094488188977,"duration":0.17279403124996406},{"name":"C5","midi":72,"time":799.5878354999368,"velocity":0.7244094488188977,"duration":0.17279403124996406},{"name":"A4","midi":69,"time":799.5878354999368,"velocity":0.7244094488188977,"duration":0.34926453124990076},{"name":"A5","midi":81,"time":799.7643059999367,"velocity":0.7244094488188977,"duration":0.17279403124996406},{"name":"D5","midi":74,"time":799.9407764999366,"velocity":0.7244094488188977,"duration":0.17279403124996406},{"name":"F4","midi":65,"time":799.9407764999366,"velocity":0.7244094488188977,"duration":0.34926453124990076},{"name":"B3","midi":59,"time":799.9407764999366,"velocity":0.7244094488188977,"duration":0.7022055312497741},{"name":"A5","midi":81,"time":800.1172469999366,"velocity":0.7244094488188977,"duration":0.17279403124996406},{"name":"B4","midi":71,"time":800.2937174999365,"velocity":0.7244094488188977,"duration":0.17279403124996406},{"name":"D4","midi":62,"time":800.2937174999365,"velocity":0.7244094488188977,"duration":0.34926453124990076},{"name":"G#5","midi":80,"time":800.4701879999365,"velocity":0.7244094488188977,"duration":0.17279403124996406},{"name":"A5","midi":81,"time":800.6466584999364,"velocity":0.7244094488188977,"duration":0.17279403124996406},{"name":"E4","midi":64,"time":800.6466584999364,"velocity":0.7244094488188977,"duration":0.5257350312498374},{"name":"C4","midi":60,"time":800.6466584999364,"velocity":0.7244094488188977,"duration":0.5257350312498374},{"name":"D#5","midi":75,"time":800.8231289999363,"velocity":0.7244094488188977,"duration":0.17279403124996406},{"name":"E5","midi":76,"time":800.9995994999363,"velocity":0.7244094488188977,"duration":0.5257350312498374},{"name":"C5","midi":72,"time":801.1760699999362,"velocity":0.7244094488188977,"duration":0.17279403124996406},{"name":"E4","midi":64,"time":801.1760699999362,"velocity":0.7244094488188977,"duration":0.17279403124996406},{"name":"F#4","midi":66,"time":801.3525404999361,"velocity":0.7244094488188977,"duration":0.5257350312498374},{"name":"A3","midi":57,"time":801.3525404999361,"velocity":0.7244094488188977,"duration":0.5257350312498374},{"name":"D#5","midi":75,"time":801.5290109999361,"velocity":0.7244094488188977,"duration":0.17279403124996406},{"name":"E5","midi":76,"time":801.705481499936,"velocity":0.7244094488188977,"duration":0.43749978124992595},{"name":"G4","midi":67,"time":801.881951999936,"velocity":0.7244094488188977,"duration":0.17279403124996406},{"name":"C4","midi":60,"time":801.881951999936,"velocity":0.7244094488188977,"duration":0.17279403124996406},{"name":"A4","midi":69,"time":802.0584224999359,"velocity":0.7244094488188977,"duration":0.34926453125001444},{"name":"F#3","midi":54,"time":802.0584224999359,"velocity":0.7244094488188977,"duration":0.5257350312500648},{"name":"D#5","midi":75,"time":802.1466577499359,"velocity":0.7244094488188977,"duration":0.08455878125005256},{"name":"C#5","midi":73,"time":802.2348929999359,"velocity":0.7244094488188977,"duration":0.17279403124996406},{"name":"D#5","midi":75,"time":802.4113634999359,"velocity":0.7244094488188977,"duration":0.08455878125005256},{"name":"C#5","midi":73,"time":802.4995987499359,"velocity":0.7244094488188977,"duration":0.08455878125005256},{"name":"B4","midi":71,"time":802.5878339999359,"velocity":0.7244094488188977,"duration":0.17279403124996406},{"name":"A3","midi":57,"time":802.5878339999359,"velocity":0.7244094488188977,"duration":0.17279403124996406},{"name":"B5","midi":83,"time":802.7643044999359,"velocity":0.7244094488188977,"duration":0.08455878125005256},{"name":"D#3","midi":51,"time":802.7643044999359,"velocity":0.7244094488188977,"duration":0.17279403125007775},{"name":"A5","midi":81,"time":802.8525397499359,"velocity":0.7244094488188977,"duration":0.08455878125005256},{"name":"G5","midi":79,"time":802.9407749999359,"velocity":0.7244094488188977,"duration":0.17279403124996406},{"name":"F#3","midi":54,"time":802.9407749999359,"velocity":0.7244094488188977,"duration":0.17279403124996406},{"name":"A5","midi":81,"time":803.1172454999358,"velocity":0.7244094488188977,"duration":0.08455878125005256},{"name":"B2","midi":47,"time":803.1172454999358,"velocity":0.7244094488188977,"duration":0.17279403125007775},{"name":"G5","midi":79,"time":803.2054807499359,"velocity":0.7244094488188977,"duration":0.08455878125005256},{"name":"F#5","midi":78,"time":803.2937159999359,"velocity":0.7244094488188977,"duration":0.17279403124996406},{"name":"D#3","midi":51,"time":803.2937159999359,"velocity":0.7244094488188977,"duration":0.17279403124996406},{"name":"G5","midi":79,"time":803.4701864999358,"velocity":0.7244094488188977,"duration":0.5257350312499511},{"name":"E3","midi":52,"time":803.4701864999358,"velocity":0.7244094488188977,"duration":0.5257350312499511},{"name":"A#4","midi":70,"time":803.6466569999359,"velocity":0.7244094488188977,"duration":0.17279403124996406},{"name":"B4","midi":71,"time":803.8231274999358,"velocity":0.7244094488188977,"duration":0.5257350312498374},{"name":"G5","midi":79,"time":803.9995979999358,"velocity":0.7244094488188977,"duration":0.17279403124996406},{"name":"E2","midi":40,"time":803.9995979999358,"velocity":0.7244094488188977,"duration":0.17279403124996406},{"name":"C#5","midi":73,"time":804.1760684999357,"velocity":0.7244094488188977,"duration":0.5257350312498374},{"name":"E3","midi":52,"time":804.1760684999357,"velocity":0.7244094488188977,"duration":0.5257350312498374},{"name":"A#4","midi":70,"time":804.3525389999356,"velocity":0.7244094488188977,"duration":0.17279403124996406},{"name":"B4","midi":71,"time":804.5290094999356,"velocity":0.7244094488188977,"duration":0.43749978124992595},{"name":"D5","midi":74,"time":804.7054799999355,"velocity":0.7244094488188977,"duration":0.17279403124996406},{"name":"G3","midi":55,"time":804.7054799999355,"velocity":0.7244094488188977,"duration":0.17279403124996406},{"name":"E5","midi":76,"time":804.8819504999354,"velocity":0.7244094488188977,"duration":0.34926453125001444},{"name":"C#3","midi":49,"time":804.8819504999354,"velocity":0.7244094488188977,"duration":0.5257350312500648},{"name":"A#4","midi":70,"time":804.9701857499355,"velocity":0.7244094488188977,"duration":0.08455878125005256},{"name":"G#4","midi":68,"time":805.0584209999355,"velocity":0.7244094488188977,"duration":0.17279403124996406},{"name":"A#4","midi":70,"time":805.2348914999354,"velocity":0.7244094488188977,"duration":0.08455878125005256},{"name":"G#4","midi":68,"time":805.3231267499355,"velocity":0.7244094488188977,"duration":0.08455878125005256},{"name":"F#4","midi":66,"time":805.4113619999355,"velocity":0.7244094488188977,"duration":0.17279403124996406},{"name":"E3","midi":52,"time":805.4113619999355,"velocity":0.7244094488188977,"duration":0.17279403124996406},{"name":"F#5","midi":78,"time":805.5878324999354,"velocity":0.7244094488188977,"duration":0.08455878125005256},{"name":"A#2","midi":46,"time":805.5878324999354,"velocity":0.7244094488188977,"duration":0.17279403125007775},{"name":"E5","midi":76,"time":805.6760677499354,"velocity":0.7244094488188977,"duration":0.08455878125005256},{"name":"D#5","midi":75,"time":805.7643029999355,"velocity":0.7244094488188977,"duration":0.17279403124996406},{"name":"C#3","midi":49,"time":805.7643029999355,"velocity":0.7244094488188977,"duration":0.17279403124996406},{"name":"E5","midi":76,"time":805.9407734999354,"velocity":0.7244094488188977,"duration":0.08455878125005256},{"name":"F#2","midi":42,"time":805.9407734999354,"velocity":0.7244094488188977,"duration":0.17279403125007775},{"name":"D#5","midi":75,"time":806.0290087499354,"velocity":0.7244094488188977,"duration":0.08455878125005256},{"name":"C#5","midi":73,"time":806.1172439999355,"velocity":0.7244094488188977,"duration":0.17279403124996406},{"name":"A#2","midi":46,"time":806.1172439999355,"velocity":0.7244094488188977,"duration":0.17279403124996406},{"name":"D#5","midi":75,"time":806.2937144999354,"velocity":0.7244094488188977,"duration":0.17279403124996406},{"name":"B2","midi":47,"time":806.2937144999354,"velocity":0.7244094488188977,"duration":0.17279403124996406},{"name":"B4","midi":71,"time":806.4701849999353,"velocity":0.7244094488188977,"duration":0.17279403125007775},{"name":"C#3","midi":49,"time":806.4701849999353,"velocity":0.7244094488188977,"duration":0.08455878125005256},{"name":"D#3","midi":51,"time":806.5584202499354,"velocity":0.7244094488188977,"duration":0.08455878125005256},{"name":"G5","midi":79,"time":806.6466554999354,"velocity":0.7244094488188977,"duration":0.5257350312499511},{"name":"E3","midi":52,"time":806.6466554999354,"velocity":0.7244094488188977,"duration":0.08455878125005256},{"name":"F#3","midi":54,"time":806.7348907499354,"velocity":0.7244094488188977,"duration":0.08455878125005256},{"name":"E5","midi":76,"time":806.8231259999354,"velocity":0.7244094488188977,"duration":0.17279403124996406},{"name":"G3","midi":55,"time":806.8231259999354,"velocity":0.7244094488188977,"duration":0.17279403124996406},{"name":"C6","midi":84,"time":806.9995964999354,"velocity":0.7244094488188977,"duration":0.5257350312500648},{"name":"A2","midi":45,"time":806.9995964999354,"velocity":0.7244094488188977,"duration":0.17279403124996406},{"name":"E5","midi":76,"time":807.1760669999353,"velocity":0.7244094488188977,"duration":0.17279403125007775},{"name":"B2","midi":47,"time":807.1760669999353,"velocity":0.7244094488188977,"duration":0.08455878125005256},{"name":"C3","midi":48,"time":807.2643022499353,"velocity":0.7244094488188977,"duration":0.08455878125005256},{"name":"F#5","midi":78,"time":807.3525374999354,"velocity":0.7244094488188977,"duration":0.5257350312499511},{"name":"D3","midi":50,"time":807.3525374999354,"velocity":0.7244094488188977,"duration":0.08455878125005256},{"name":"E3","midi":52,"time":807.4407727499354,"velocity":0.7244094488188977,"duration":0.08455878125005256},{"name":"A5","midi":81,"time":807.5290079999354,"velocity":0.7244094488188977,"duration":0.17279403124996406},{"name":"F#3","midi":54,"time":807.5290079999354,"velocity":0.7244094488188977,"duration":0.17279403124996406},{"name":"B5","midi":83,"time":807.7054784999353,"velocity":0.7244094488188977,"duration":0.5257350312500648},{"name":"G2","midi":43,"time":807.7054784999353,"velocity":0.7244094488188977,"duration":0.17279403124996406},{"name":"D#5","midi":75,"time":807.8819489999353,"velocity":0.7244094488188977,"duration":0.17279403125007775},{"name":"A2","midi":45,"time":807.8819489999353,"velocity":0.7244094488188977,"duration":0.08455878125005256},{"name":"B2","midi":47,"time":807.9701842499353,"velocity":0.7244094488188977,"duration":0.08455878125005256},{"name":"E5","midi":76,"time":808.0584194999353,"velocity":0.7244094488188977,"duration":0.5257350312499511},{"name":"C3","midi":48,"time":808.0584194999353,"velocity":0.7244094488188977,"duration":0.08455878125005256},{"name":"D3","midi":50,"time":808.1466547499354,"velocity":0.7244094488188977,"duration":0.08455878125005256},{"name":"G5","midi":79,"time":808.2348899999354,"velocity":0.7244094488188977,"duration":0.17279403124996406},{"name":"E3","midi":52,"time":808.2348899999354,"velocity":0.7244094488188977,"duration":0.17279403124996406},{"name":"A5","midi":81,"time":808.4113604999353,"velocity":0.7244094488188977,"duration":0.5257350312500648},{"name":"F#2","midi":42,"time":808.4113604999353,"velocity":0.7244094488188977,"duration":0.17279403124996406},{"name":"C#5","midi":73,"time":808.5878309999352,"velocity":0.7244094488188977,"duration":0.17279403125007775},{"name":"G2","midi":43,"time":808.5878309999352,"velocity":0.7244094488188977,"duration":0.08455878125005256},{"name":"A2","midi":45,"time":808.6760662499353,"velocity":0.7244094488188977,"duration":0.08455878125005256},{"name":"D#5","midi":75,"time":808.7643014999353,"velocity":0.7244094488188977,"duration":0.34926453125001444},{"name":"B2","midi":47,"time":808.7643014999353,"velocity":0.7244094488188977,"duration":0.08455878125005256},{"name":"A2","midi":45,"time":808.8525367499353,"velocity":0.7244094488188977,"duration":0.08455878125005256},{"name":"F#5","midi":78,"time":808.9407719999354,"velocity":0.7244094488188977,"duration":0.17279403124996406},{"name":"B2","midi":47,"time":808.9407719999354,"velocity":0.7244094488188977,"duration":0.17279403124996406},{"name":"G5","midi":79,"time":809.1172424999353,"velocity":0.7244094488188977,"duration":0.8786760312499382},{"name":"E5","midi":76,"time":809.1172424999353,"velocity":0.7244094488188977,"duration":0.17279403124996406},{"name":"E2","midi":40,"time":809.1172424999353,"velocity":0.7244094488188977,"duration":0.5257350312500648},{"name":"D5","midi":74,"time":809.2937129999352,"velocity":0.7244094488188977,"duration":0.08455878125005256},{"name":"C5","midi":72,"time":809.3819482499352,"velocity":0.7244094488188977,"duration":0.08455878125005256},{"name":"B4","midi":71,"time":809.4701834999353,"velocity":0.7244094488188977,"duration":0.08455878125005256},{"name":"C5","midi":72,"time":809.5584187499353,"velocity":0.7244094488188977,"duration":0.08455878125005256},{"name":"D5","midi":74,"time":809.6466539999353,"velocity":0.7244094488188977,"duration":0.17279403124996406},{"name":"E3","midi":52,"time":809.6466539999353,"velocity":0.7244094488188977,"duration":0.17279403124996406},{"name":"C5","midi":72,"time":809.8231244999353,"velocity":0.7244094488188977,"duration":0.6985290625000289},{"name":"A2","midi":45,"time":809.8231244999353,"velocity":0.7244094488188977,"duration":0.5257350312500648},{"name":"F#5","midi":78,"time":809.9995949999352,"velocity":0.7244094488188977,"duration":0.08455878125005256},{"name":"E5","midi":76,"time":810.0878302499352,"velocity":0.7244094488188977,"duration":0.08455878125005256},{"name":"F#5","midi":78,"time":810.1760654999352,"velocity":0.7244094488188977,"duration":0.08455878125005256},{"name":"G5","midi":79,"time":810.2643007499353,"velocity":0.7244094488188977,"duration":0.08455878125005256},{"name":"A5","midi":81,"time":810.3525359999353,"velocity":0.7244094488188977,"duration":0.17279403124996406},{"name":"C3","midi":48,"time":810.3525359999353,"velocity":0.7244094488188977,"duration":0.17279403124996406},{"name":"D#5","midi":75,"time":810.5290064999352,"velocity":0.7244094488188977,"duration":0.17279403124996406},{"name":"B2","midi":47,"time":810.5290064999352,"velocity":0.7244094488188977,"duration":0.5147056249999196},{"name":"B5","midi":83,"time":810.7054769999352,"velocity":0.7244094488188977,"duration":0.17279403124996406},{"name":"A5","midi":81,"time":810.8819474999351,"velocity":0.7244094488188977,"duration":0.17279403125007775},{"name":"G5","midi":79,"time":811.0584179999352,"velocity":0.7244094488188977,"duration":0.17279403124996406},{"name":"B4","midi":71,"time":811.0584179999352,"velocity":0.7244094488188977,"duration":0.17279403124996406},{"name":"F#5","midi":78,"time":811.2348884999351,"velocity":0.7244094488188977,"duration":0.17279403124996406},{"name":"A4","midi":69,"time":811.2348884999351,"velocity":0.7244094488188977,"duration":0.5055144531248743},{"name":"A5","midi":81,"time":811.411358999935,"velocity":0.7244094488188977,"duration":0.17279403124996406},{"name":"C6","midi":84,"time":811.587829499935,"velocity":0.7244094488188977,"duration":0.5257350312499511},{"name":"C5","midi":72,"time":811.764299999935,"velocity":0.7244094488188977,"duration":0.17279403124996406},{"name":"D#4","midi":63,"time":811.940770499935,"velocity":0.7244094488188977,"duration":0.5055144531248743},{"name":"B3","midi":59,"time":811.940770499935,"velocity":0.7244094488188977,"duration":1.4080875312496346},{"name":"C5","midi":72,"time":812.1172409999349,"velocity":0.7244094488188977,"duration":0.17279403124996406},{"name":"B4","midi":71,"time":812.2937114999348,"velocity":0.7244094488188977,"duration":0.17279403124996406},{"name":"A4","midi":69,"time":812.4701819999348,"velocity":0.7244094488188977,"duration":0.17279403124996406},{"name":"F#4","midi":66,"time":812.4701819999348,"velocity":0.7244094488188977,"duration":0.17279403124996406},{"name":"G4","midi":67,"time":812.6466524999347,"velocity":0.7244094488188977,"duration":0.17279403124996406},{"name":"E4","midi":64,"time":812.6466524999347,"velocity":0.7244094488188977,"duration":0.5055144531248743},{"name":"B4","midi":71,"time":812.8231229999346,"velocity":0.7244094488188977,"duration":0.17279403124996406},{"name":"E5","midi":76,"time":812.9995934999346,"velocity":0.7244094488188977,"duration":0.5257350312499511},{"name":"G4","midi":67,"time":813.1760639999346,"velocity":0.7244094488188977,"duration":0.17279403124996406},{"name":"A#3","midi":58,"time":813.3525344999346,"velocity":0.7244094488188977,"duration":0.5055144531248743},{"name":"B2","midi":47,"time":813.3525344999346,"velocity":0.7244094488188977,"duration":1.2316170312495842},{"name":"G4","midi":67,"time":813.5290049999345,"velocity":0.7244094488188977,"duration":0.17279403124996406},{"name":"F#4","midi":66,"time":813.7054754999344,"velocity":0.7244094488188977,"duration":0.17279403124996406},{"name":"E4","midi":64,"time":813.8819459999344,"velocity":0.7244094488188977,"duration":0.17279403124996406},{"name":"C4","midi":60,"time":813.8819459999344,"velocity":0.7244094488188977,"duration":0.17279403124996406},{"name":"D#4","midi":63,"time":814.0584164999343,"velocity":0.7244094488188977,"duration":0.17279403124996406},{"name":"B3","midi":59,"time":814.0584164999343,"velocity":0.7244094488188977,"duration":0.5055144531248743},{"name":"F#4","midi":66,"time":814.2348869999342,"velocity":0.7244094488188977,"duration":0.17279403124996406},{"name":"A4","midi":69,"time":814.4113574999342,"velocity":0.7244094488188977,"duration":0.5257350312498374},{"name":"D#4","midi":63,"time":814.5878279999341,"velocity":0.7244094488188977,"duration":0.17279403124996406},{"name":"B3","midi":59,"time":814.5878279999341,"velocity":0.7244094488188977,"duration":0.17279403124996406},{"name":"E4","midi":64,"time":814.7642984999341,"velocity":0.7244094488188977,"duration":0.7022055312497741},{"name":"C4","midi":60,"time":814.7642984999341,"velocity":0.7244094488188977,"duration":0.34926453124990076},{"name":"F#4","midi":66,"time":814.940768999934,"velocity":0.7244094488188977,"duration":0.17279403124996406},{"name":"G4","midi":67,"time":815.1172394999339,"velocity":0.7244094488188977,"duration":0.17279403124996406},{"name":"B3","midi":59,"time":815.1172394999339,"velocity":0.7244094488188977,"duration":0.34926453124990076},{"name":"E5","midi":76,"time":815.2937099999339,"velocity":0.7244094488188977,"duration":0.17279403124996406},{"name":"A4","midi":69,"time":815.4701804999338,"velocity":0.7244094488188977,"duration":0.17279403124996406},{"name":"F#4","midi":66,"time":815.4701804999338,"velocity":0.7244094488188977,"duration":0.7022055312497741},{"name":"A3","midi":57,"time":815.4701804999338,"velocity":0.7244094488188977,"duration":0.34926453124990076},{"name":"E5","midi":76,"time":815.6466509999337,"velocity":0.7244094488188977,"duration":0.17279403124996406},{"name":"A4","midi":69,"time":815.8231214999337,"velocity":0.7244094488188977,"duration":0.17279403124996406},{"name":"B3","midi":59,"time":815.8231214999337,"velocity":0.7244094488188977,"duration":0.34926453124990076},{"name":"D#5","midi":75,"time":815.9995919999336,"velocity":0.7244094488188977,"duration":0.17279403124996406},{"name":"E5","midi":76,"time":816.1760624999336,"velocity":0.7244094488188977,"duration":0.17279403124996406},{"name":"G4","midi":67,"time":816.1760624999336,"velocity":0.7244094488188977,"duration":0.5147056249999196},{"name":"E3","midi":52,"time":816.1760624999336,"velocity":0.7244094488188977,"duration":0.8786760312498245},{"name":"C5","midi":72,"time":816.3525329999335,"velocity":0.7244094488188977,"duration":0.17279403124996406},{"name":"B4","midi":71,"time":816.5290034999334,"velocity":0.7244094488188977,"duration":0.17279403125007775},{"name":"A4","midi":69,"time":816.7054739999335,"velocity":0.7244094488188977,"duration":0.17279403124996406},{"name":"G4","midi":67,"time":816.8819444999334,"velocity":0.7244094488188977,"duration":0.17279403124996406},{"name":"B4","midi":71,"time":817.0584149999333,"velocity":0.7244094488188977,"duration":0.8786760312498245},{"name":"D3","midi":50,"time":817.0584149999333,"velocity":0.7244094488188977,"duration":0.17279403124996406},{"name":"E4","midi":64,"time":817.2348854999333,"velocity":0.7244094488188977,"duration":1.9301460937493857},{"name":"C#3","midi":49,"time":817.2348854999333,"velocity":0.7244094488188977,"duration":0.17279403124996406},{"name":"B2","midi":47,"time":817.4113559999332,"velocity":0.7244094488188977,"duration":0.17279403124996406},{"name":"A2","midi":45,"time":817.5878264999332,"velocity":0.7244094488188977,"duration":0.5257350312499511},{"name":"C#4","midi":61,"time":817.7642969999332,"velocity":0.7244094488188977,"duration":0.6985290624996878},{"name":"A#4","midi":70,"time":817.9407674999331,"velocity":0.7244094488188977,"duration":0.5257350312497238},{"name":"G2","midi":43,"time":818.1172379999331,"velocity":0.7244094488188977,"duration":0.17279403124996406},{"name":"G2","midi":43,"time":818.293708499933,"velocity":0.7244094488188977,"duration":0.11397053124994727},{"name":"F2","midi":41,"time":818.4113554999329,"velocity":0.7244094488188977,"duration":0.11397053124994727},{"name":"G4","midi":67,"time":818.4701789999328,"velocity":0.7244094488188977,"duration":0.8823524999996835},{"name":"G2","midi":43,"time":818.5290024999329,"velocity":0.7244094488188977,"duration":0.11397053124994727},{"name":"C#5","midi":73,"time":818.6466494999328,"velocity":0.7244094488188977,"duration":0.5257350312498374},{"name":"F2","midi":41,"time":818.6466494999328,"velocity":0.7244094488188977,"duration":0.17279403124996406},{"name":"E2","midi":40,"time":818.8231199999327,"velocity":0.7244094488188977,"duration":0.17279403124996406},{"name":"D2","midi":38,"time":818.9995904999327,"velocity":0.7244094488188977,"duration":0.34926453124990076},{"name":"A#4","midi":70,"time":819.1760609999326,"velocity":0.7244094488188977,"duration":0.17279403124996406},{"name":"A4","midi":69,"time":819.3525314999325,"velocity":0.7244094488188977,"duration":0.17279403124996406},{"name":"D3","midi":50,"time":819.3525314999325,"velocity":0.7244094488188977,"duration":0.5257350312498374},{"name":"G4","midi":67,"time":819.5290019999325,"velocity":0.7244094488188977,"duration":0.17279403124996406},{"name":"F4","midi":65,"time":819.7054724999324,"velocity":0.7244094488188977,"duration":0.17279403124996406},{"name":"A4","midi":69,"time":819.8819429999323,"velocity":0.7244094488188977,"duration":0.8786760312498245},{"name":"C3","midi":48,"time":819.8819429999323,"velocity":0.7244094488188977,"duration":0.17279403124996406},{"name":"D4","midi":62,"time":820.0584134999323,"velocity":0.7244094488188977,"duration":1.9301460937497268},{"name":"B2","midi":47,"time":820.0584134999323,"velocity":0.7244094488188977,"duration":0.17279403124996406},{"name":"A2","midi":45,"time":820.2348839999322,"velocity":0.7244094488188977,"duration":0.17279403124996406},{"name":"G2","midi":43,"time":820.4113544999321,"velocity":0.7244094488188977,"duration":0.5257350312499511},{"name":"B3","midi":59,"time":820.5878249999322,"velocity":0.7244094488188977,"duration":1.584558031249685},{"name":"G#4","midi":68,"time":820.7642954999321,"velocity":0.7244094488188977,"duration":0.5257350312499511},{"name":"F2","midi":41,"time":820.9407659999321,"velocity":0.7244094488188977,"duration":0.17279403124996406},{"name":"F2","midi":41,"time":821.117236499932,"velocity":0.7244094488188977,"duration":0.08455878125005256},{"name":"E2","midi":40,"time":821.205471749932,"velocity":0.7244094488188977,"duration":0.08455878125005256},{"name":"F4","midi":65,"time":821.293706999932,"velocity":0.7244094488188977,"duration":0.6985290624999152},{"name":"F2","midi":41,"time":821.293706999932,"velocity":0.7244094488188977,"duration":0.08455878125005256},{"name":"E2","midi":40,"time":821.3819422499321,"velocity":0.7244094488188977,"duration":0.26102928124998925},{"name":"B4","midi":71,"time":821.4701774999321,"velocity":0.7244094488188977,"duration":0.5257350312498374},{"name":"D2","midi":38,"time":821.646647999932,"velocity":0.7244094488188977,"duration":0.17279403124996406},{"name":"C2","midi":36,"time":821.823118499932,"velocity":0.7244094488188977,"duration":0.34926453124990076},{"name":"G#4","midi":68,"time":821.9995889999319,"velocity":0.7244094488188977,"duration":0.17279403124996406},{"name":"A4","midi":69,"time":822.1760594999319,"velocity":0.7244094488188977,"duration":0.17279403124996406},{"name":"C4","midi":60,"time":822.1760594999319,"velocity":0.7244094488188977,"duration":0.5257350312498374},{"name":"E4","midi":64,"time":822.3525299999318,"velocity":0.7244094488188977,"duration":0.17279403124996406},{"name":"F#4","midi":66,"time":822.5290004999317,"velocity":0.7244094488188977,"duration":0.5147056249999196},{"name":"A3","midi":57,"time":822.7054709999317,"velocity":0.7244094488188977,"duration":0.17279403124996406},{"name":"B3","midi":59,"time":822.8819414999316,"velocity":0.7244094488188977,"duration":0.5257350312499511},{"name":"D#4","midi":63,"time":823.0584119999316,"velocity":0.7244094488188977,"duration":0.17279403124996406},{"name":"B2","midi":47,"time":823.0584119999316,"velocity":0.7244094488188977,"duration":0.17279403124996406},{"name":"C5","midi":72,"time":823.2348824999316,"velocity":0.7244094488188977,"duration":0.5147056249999196},{"name":"E3","midi":52,"time":823.2348824999316,"velocity":0.7244094488188977,"duration":0.34926453124990076},{"name":"G#3","midi":56,"time":823.4113529999315,"velocity":0.7244094488188977,"duration":0.17279403124996406},{"name":"A3","midi":57,"time":823.5878234999315,"velocity":0.7244094488188977,"duration":0.5257350312499511},{"name":"A4","midi":69,"time":823.7642939999315,"velocity":0.7244094488188977,"duration":0.17279403124996406},{"name":"B4","midi":71,"time":823.9407644999314,"velocity":0.7244094488188977,"duration":0.5147056249999196},{"name":"D3","midi":50,"time":824.1172349999314,"velocity":0.7244094488188977,"duration":0.17279403124996406},{"name":"D4","midi":62,"time":824.2937054999313,"velocity":0.7244094488188977,"duration":0.5257350312499511},{"name":"G#4","midi":68,"time":824.4701759999314,"velocity":0.7244094488188977,"duration":0.17279403124996406},{"name":"E3","midi":52,"time":824.4701759999314,"velocity":0.7244094488188977,"duration":0.17279403124996406},{"name":"F5","midi":77,"time":824.6466464999313,"velocity":0.7244094488188977,"duration":0.5147056249999196},{"name":"A3","midi":57,"time":824.6466464999313,"velocity":0.7244094488188977,"duration":0.7022055312498878},{"name":"B3","midi":59,"time":824.8231169999312,"velocity":0.7244094488188977,"duration":0.17279403124996406},{"name":"C4","midi":60,"time":824.9995874999312,"velocity":0.7244094488188977,"duration":0.5257350312499511},{"name":"D#5","midi":75,"time":825.1760579999312,"velocity":0.7244094488188977,"duration":0.17279403124996406},{"name":"E5","midi":76,"time":825.3525284999312,"velocity":0.7244094488188977,"duration":0.5147056249999196},{"name":"G3","midi":55,"time":825.3525284999312,"velocity":0.7244094488188977,"duration":0.7022055312498878},{"name":"A3","midi":57,"time":825.5289989999311,"velocity":0.7244094488188977,"duration":0.17279403124996406},{"name":"B3","midi":59,"time":825.705469499931,"velocity":0.7244094488188977,"duration":0.5257350312499511},{"name":"A4","midi":69,"time":825.8819399999311,"velocity":0.7244094488188977,"duration":0.17279403124996406},{"name":"G4","midi":67,"time":826.058410499931,"velocity":0.7244094488188977,"duration":0.7022055312497741},{"name":"C3","midi":48,"time":826.058410499931,"velocity":0.7244094488188977,"duration":0.5257350312498374},{"name":"E3","midi":52,"time":826.234880999931,"velocity":0.7244094488188977,"duration":0.17279403124996406},{"name":"E4","midi":64,"time":826.4113514999309,"velocity":0.7244094488188977,"duration":0.5257350312499511},{"name":"B2","midi":47,"time":826.5878219999308,"velocity":0.7244094488188977,"duration":0.17279403124996406},{"name":"G4","midi":67,"time":826.7642924999308,"velocity":0.7244094488188977,"duration":0.08455878125005256},{"name":"A2","midi":45,"time":826.7642924999308,"velocity":0.7244094488188977,"duration":0.34926453125012813},{"name":"F#4","midi":66,"time":826.8525277499308,"velocity":0.7244094488188977,"duration":0.08455878125005256},{"name":"G4","midi":67,"time":826.9407629999308,"velocity":0.7244094488188977,"duration":0.08455878125005256},{"name":"C#4","midi":61,"time":826.9407629999308,"velocity":0.7244094488188977,"duration":0.17279403125007775},{"name":"F#4","midi":66,"time":827.0289982499309,"velocity":0.7244094488188977,"duration":0.08455878125005256},{"name":"G4","midi":67,"time":827.1172334999309,"velocity":0.7244094488188977,"duration":0.08455878125005256},{"name":"D#4","midi":63,"time":827.1172334999309,"velocity":0.7244094488188977,"duration":0.34926453125012813},{"name":"B2","midi":47,"time":827.1172334999309,"velocity":0.7244094488188977,"duration":0.34926453125012813},{"name":"F#4","midi":66,"time":827.2054687499309,"velocity":0.7244094488188977,"duration":0.08455878125005256},{"name":"E4","midi":64,"time":827.2937039999309,"velocity":0.7244094488188977,"duration":0.08455878125005256},{"name":"F#4","midi":66,"time":827.381939249931,"velocity":0.7244094488188977,"duration":0.08455878125005256},{"name":"E4","midi":64,"time":827.470174499931,"velocity":0.7244094488188977,"duration":0.34926453125001444},{"name":"E2","midi":40,"time":827.470174499931,"velocity":0.7244094488188977,"duration":0.5257350312499511},{"name":"D4","midi":62,"time":827.646644999931,"velocity":0.7244094488188977,"duration":0.7022055312497741},{"name":"F4","midi":65,"time":827.823115499931,"velocity":0.7244094488188977,"duration":0.7022055312497741},{"name":"G#4","midi":68,"time":827.823115499931,"velocity":0.7244094488188977,"duration":0.7022055312497741},{"name":"B3","midi":59,"time":827.9995859999309,"velocity":0.7244094488188977,"duration":0.17279403124996406},{"name":"G#3","midi":56,"time":828.1760564999308,"velocity":0.7244094488188977,"duration":0.5257350312498374},{"name":"D4","midi":62,"time":828.3525269999308,"velocity":0.7244094488188977,"duration":0.7022055312497741},{"name":"G#4","midi":68,"time":828.5289974999307,"velocity":0.7244094488188977,"duration":0.7022055312497741},{"name":"B4","midi":71,"time":828.5289974999307,"velocity":0.7244094488188977,"duration":0.7022055312497741},{"name":"E3","midi":52,"time":828.7054679999306,"velocity":0.7244094488188977,"duration":0.17279403124996406},{"name":"C3","midi":48,"time":828.8819384999306,"velocity":0.7244094488188977,"duration":0.5257350312498374},{"name":"C4","midi":60,"time":829.0584089999305,"velocity":0.7244094488188977,"duration":0.7022055312497741},{"name":"E4","midi":64,"time":829.2348794999305,"velocity":0.7244094488188977,"duration":0.7022055312497741},{"name":"A4","midi":69,"time":829.2348794999305,"velocity":0.7244094488188977,"duration":0.7022055312497741},{"name":"F3","midi":53,"time":829.4113499999304,"velocity":0.7244094488188977,"duration":0.17279403124996406},{"name":"D3","midi":50,"time":829.5878204999303,"velocity":0.7244094488188977,"duration":0.5257350312498374},{"name":"B3","midi":59,"time":829.7642909999303,"velocity":0.7244094488188977,"duration":0.7022055312497741},{"name":"G#4","midi":68,"time":829.9407614999302,"velocity":0.7244094488188977,"duration":0.6985290624998015},{"name":"B4","midi":71,"time":829.9407614999302,"velocity":0.7244094488188977,"duration":0.6985290624998015},{"name":"D5","midi":74,"time":829.9407614999302,"velocity":0.7244094488188977,"duration":0.6985290624998015},{"name":"B2","midi":47,"time":830.1172319999301,"velocity":0.7244094488188977,"duration":0.17279403124996406},{"name":"F4","midi":65,"time":830.2937024999301,"velocity":0.7244094488188977,"duration":0.17279403124996406},{"name":"G#2","midi":44,"time":830.2937024999301,"velocity":0.7244094488188977,"duration":0.5257350312498374},{"name":"E4","midi":64,"time":830.47017299993,"velocity":0.7244094488188977,"duration":0.6985290624998015},{"name":"A4","midi":69,"time":830.64664349993,"velocity":0.7244094488188977,"duration":0.6985290624998015},{"name":"C5","midi":72,"time":830.64664349993,"velocity":0.7244094488188977,"duration":0.6985290624998015},{"name":"E3","midi":52,"time":830.8231139999299,"velocity":0.7244094488188977,"duration":0.17279403124996406},{"name":"C3","midi":48,"time":830.9995844999298,"velocity":0.7244094488188977,"duration":0.5257350312498374},{"name":"F#4","midi":66,"time":831.1760549999298,"velocity":0.7244094488188977,"duration":0.5147056249999196},{"name":"C5","midi":72,"time":831.3525254999297,"velocity":0.7244094488188977,"duration":0.34926453125001444},{"name":"D#5","midi":75,"time":831.3525254999297,"velocity":0.7244094488188977,"duration":0.34926453125001444},{"name":"A2","midi":45,"time":831.5289959999296,"velocity":0.7244094488188977,"duration":0.17279403125007775},{"name":"E2","midi":40,"time":831.7054664999297,"velocity":0.7244094488188977,"duration":1.406249296875103},{"name":"E5","midi":76,"time":831.8819369999297,"velocity":0.7244094488188977,"duration":0.08455878125005256},{"name":"B4","midi":71,"time":831.9701722499298,"velocity":0.7244094488188977,"duration":0.08455878125005256},{"name":"G#4","midi":68,"time":832.0584074999298,"velocity":0.7244094488188977,"duration":0.17279403124996406},{"name":"E4","midi":64,"time":832.2348779999297,"velocity":0.7244094488188977,"duration":0.08455878125005256},{"name":"D#4","midi":63,"time":832.3231132499297,"velocity":0.7244094488188977,"duration":0.08455878125005256},{"name":"E4","midi":64,"time":832.4113484999298,"velocity":0.7244094488188977,"duration":0.08455878125005256},{"name":"G#4","midi":68,"time":832.4995837499298,"velocity":0.7244094488188977,"duration":0.08455878125005256},{"name":"B4","midi":71,"time":832.5878189999298,"velocity":0.7244094488188977,"duration":0.17279403124996406},{"name":"E5","midi":76,"time":832.7642894999298,"velocity":0.7244094488188977,"duration":1.4099257656250757}],"controlChanges":{"7":[{"number":7,"time":0,"value":0.7874015748031497}]},"id":1,"name":"Harpsichord","instrumentNumber":7,"instrument":"clavi","instrumentFamily":"piano","channelNumber":0,"isPercussion":false}]}