{"header":{"PPQ":384,"bpm":117.000117000117,"name":""},"startTime":0,"duration":128.17294874999942,"tracks":[{"startTime":0,"duration":128.17294874999942,"length":679,"notes":[{"name":"D3","midi":50,"time":0,"velocity":0.30708661417322836,"duration":0.5542195312499999},{"name":"D2","midi":38,"time":0.0040064062499999996,"velocity":0.31496062992125984,"duration":0.8052876562499999},{"name":"A3","midi":57,"time":0.6904373437499999,"velocity":0.3700787401574803,"duration":0.17093999999999998},{"name":"A4","midi":69,"time":0.8920931249999998,"velocity":0.36220472440944884,"duration":1.16853515625},{"name":"F#4","midi":66,"time":0.9001059374999998,"velocity":0.2440944881889764,"duration":1.2206184375000002},{"name":"D4","midi":62,"time":0.9214734374999998,"velocity":0.1732283464566929,"duration":1.180554375},{"name":"A1","midi":33,"time":1.4289515624999998,"velocity":0.4330708661417323,"duration":0.13755328125},{"name":"A2","midi":45,"time":1.4289515624999998,"velocity":0.3858267716535433,"duration":0.1482370312500001},{"name":"D3","midi":50,"time":1.9818356249999998,"velocity":0.4015748031496063,"duration":0.3098287500000001},{"name":"D2","midi":38,"time":1.9925193749999999,"velocity":0.3858267716535433,"duration":0.2657582812499999},{"name":"A3","midi":57,"time":2.68829859375,"velocity":0.3937007874015748,"duration":0.12019218749999983},{"name":"F#4","midi":66,"time":2.889954375,"velocity":0.18110236220472442,"duration":0.6810890624999999},{"name":"A4","midi":69,"time":2.8966317187499997,"velocity":0.28346456692913385,"duration":0.7585462500000002},{"name":"D4","midi":62,"time":2.9193346874999997,"velocity":0.2204724409448819,"duration":0.5996254687500002},{"name":"A2","midi":45,"time":3.34401375,"velocity":0.3779527559055118,"duration":0.06410250000000017},{"name":"A1","midi":33,"time":3.3520265625,"velocity":0.4094488188976378,"duration":0.056089687500000096},{"name":"F#4","midi":66,"time":3.92494265625,"velocity":0.5748031496062992,"duration":0.3605765624999995},{"name":"D3","midi":50,"time":3.9569939062499997,"velocity":0.3228346456692913,"duration":0.8199778124999999},{"name":"A3","midi":57,"time":3.9569939062499997,"velocity":0.1889763779527559,"duration":0.13488234374999974},{"name":"D4","midi":62,"time":3.9917160937499996,"velocity":0.16535433070866143,"duration":0.21100406249999937},{"name":"F#4","midi":66,"time":4.3402734375,"velocity":0.6614173228346457,"duration":0.14155968750000003},{"name":"F#4","midi":66,"time":4.58332875,"velocity":0.4094488188976378,"duration":0.05876062499999968},{"name":"F#4","midi":66,"time":4.712869218749999,"velocity":0.33070866141732286,"duration":0.06410250000000062},{"name":"G#3","midi":56,"time":4.720882031249999,"velocity":0.3858267716535433,"duration":0.08547000000000082},{"name":"A4","midi":69,"time":4.758275156249999,"velocity":0.5118110236220472,"duration":0.1215276562500005},{"name":"A3","midi":57,"time":4.825048593749999,"velocity":0.2677165354330709,"duration":0.10283109374999988},{"name":"G4","midi":67,"time":4.842409687499999,"velocity":0.5826771653543307,"duration":0.5208328124999992},{"name":"F#4","midi":66,"time":5.289791718749998,"velocity":0.5039370078740157,"duration":0.4086534375000008},{"name":"A2","midi":45,"time":5.308488281249998,"velocity":0.2755905511811024,"duration":0.07478625000000072},{"name":"A4","midi":69,"time":5.822643749999999,"velocity":0.33858267716535434,"duration":0.9668793749999995},{"name":"F#4","midi":66,"time":5.835998437499999,"velocity":0.047244094488188976,"duration":0.924144375},{"name":"A3","midi":57,"time":5.852024062499999,"velocity":0.12598425196850394,"duration":0.47275593750000056},{"name":"D3","midi":50,"time":5.865378749999999,"velocity":0.1732283464566929,"duration":0.6356831250000008},{"name":"D4","midi":62,"time":5.880068906249999,"velocity":0.11811023622047244,"duration":0.8266551562500002},{"name":"G#3","midi":56,"time":6.5010618749999995,"velocity":0.2283464566929134,"duration":0.07478624999999983},{"name":"A3","midi":57,"time":6.575848124999999,"velocity":0.3937007874015748,"duration":0.06810890624999999},{"name":"D5","midi":74,"time":7.059287812499999,"velocity":0.6692913385826772,"duration":0.34588640625},{"name":"A2","midi":45,"time":7.07931984375,"velocity":0.2992125984251969,"duration":0.06276703124999994},{"name":"F#4","midi":66,"time":7.07931984375,"velocity":0.2440944881889764,"duration":0.1228631250000003},{"name":"E5","midi":76,"time":7.3063495312499995,"velocity":0.6692913385826772,"duration":0.3018159374999998},{"name":"F#5","midi":78,"time":7.532043749999999,"velocity":0.6377952755905512,"duration":0.7224885937499996},{"name":"F#4","midi":66,"time":7.569436874999999,"velocity":0.16535433070866143,"duration":0.8039521874999984},{"name":"D3","midi":50,"time":7.569436874999999,"velocity":0.25984251968503935,"duration":0.2791129687500007},{"name":"C#5","midi":73,"time":8.23850671875,"velocity":0.3937007874015748,"duration":0.25507453124999735},{"name":"G#3","midi":56,"time":8.348015156249998,"velocity":0.2047244094488189,"duration":0.08413453124999926},{"name":"E5","midi":76,"time":8.444168906249997,"velocity":0.2992125984251969,"duration":0.07345078124999915},{"name":"F#4","midi":66,"time":8.454852656249997,"velocity":0.03937007874015748,"duration":0.4286854687499986},{"name":"A3","midi":57,"time":8.481562031249997,"velocity":0.11023622047244094,"duration":0.11885671874999915},{"name":"D5","midi":74,"time":8.504264999999997,"velocity":0.48031496062992124,"duration":0.6623924999999993},{"name":"D#3","midi":51,"time":9.077181093749996,"velocity":0.18110236220472442,"duration":0.2443907812500008},{"name":"F4","midi":65,"time":9.095877656249996,"velocity":0.2283464566929134,"duration":0.22569421875000018},{"name":"B4","midi":71,"time":9.099884062499996,"velocity":0.3858267716535433,"duration":0.2978095312500013},{"name":"F#4","midi":66,"time":9.416390156249998,"velocity":0.2125984251968504,"duration":0.10950843750000061},{"name":"G4","midi":67,"time":9.691496718749999,"velocity":0.29133858267716534,"duration":1.1551804687500002},{"name":"C#4","midi":61,"time":9.691496718749999,"velocity":0.2047244094488189,"duration":1.13381296875},{"name":"E3","midi":52,"time":9.73156078125,"velocity":0.2283464566929134,"duration":0.5662387500000001},{"name":"G#3","midi":56,"time":10.475416875,"velocity":0.2677165354330709,"duration":0.08279906249999947},{"name":"A3","midi":57,"time":10.5635578125,"velocity":0.23622047244094488,"duration":0.19898484374999903},{"name":"G4","midi":67,"time":11.040320156249999,"velocity":0.5118110236220472,"duration":0.2791129687499989},{"name":"E4","midi":64,"time":11.055010312499999,"velocity":0.36220472440944884,"duration":0.1575853124999984},{"name":"A2","midi":45,"time":11.069700468749998,"velocity":0.1732283464566929,"duration":0.08279906249999947},{"name":"A4","midi":69,"time":11.278033593749997,"velocity":0.5590551181102362,"duration":0.26175187499999986},{"name":"F#4","midi":66,"time":11.278033593749997,"velocity":0.44881889763779526,"duration":0.1869656250000009},{"name":"B4","midi":71,"time":11.479689374999998,"velocity":0.6850393700787402,"duration":0.418001718750002},{"name":"G4","midi":67,"time":11.494379531249997,"velocity":0.5590551181102362,"duration":0.7665590625000025},{"name":"C#3","midi":49,"time":11.525095312499998,"velocity":0.2204724409448819,"duration":0.3084932812500014},{"name":"C#5","midi":73,"time":12.09801140625,"velocity":0.5433070866141733,"duration":0.11752124999999936},{"name":"A4","midi":69,"time":12.106024218750001,"velocity":0.3937007874015748,"duration":0.15491437499999883},{"name":"G#3","midi":56,"time":12.1874878125,"velocity":0.33858267716535434,"duration":0.05876062499999968},{"name":"C#5","midi":73,"time":12.2729578125,"velocity":0.5039370078740157,"duration":0.5101490625},{"name":"A3","midi":57,"time":12.2836415625,"velocity":0.29133858267716534,"duration":0.07077984374999957},{"name":"E5","midi":76,"time":12.2836415625,"velocity":0.5669291338582677,"duration":0.6063028124999992},{"name":"B4","midi":71,"time":12.8124871875,"velocity":0.4330708661417323,"duration":0.2590809374999985},{"name":"D5","midi":74,"time":12.8178290625,"velocity":0.5905511811023622,"duration":0.2590809374999985},{"name":"A2","midi":45,"time":12.86457046875,"velocity":0.1968503937007874,"duration":0.0894764062500002},{"name":"B4","midi":71,"time":13.261204687499998,"velocity":0.1889763779527559,"duration":0.5221682812499999},{"name":"E3","midi":52,"time":13.266546562499997,"velocity":0.23622047244094488,"duration":0.3779376562500012},{"name":"E5","midi":76,"time":13.291920468749996,"velocity":0.4645669291338583,"duration":0.11618578125000134},{"name":"D5","midi":74,"time":13.344003749999997,"velocity":0.23622047244094488,"duration":0.42868546875000035},{"name":"C#5","midi":73,"time":13.753992656249997,"velocity":0.33858267716535434,"duration":0.7812492187500002},{"name":"A4","midi":69,"time":13.753992656249997,"velocity":0.1732283464566929,"duration":0.9081187499999999},{"name":"G#3","midi":56,"time":14.046460312499997,"velocity":0.33070866141732286,"duration":0.06810890624999999},{"name":"A3","midi":57,"time":14.127923906249997,"velocity":0.28346456692913385,"duration":0.10817296875000082},{"name":"C#5","midi":73,"time":14.612699062499997,"velocity":0.33070866141732286,"duration":0.3338671874999992},{"name":"E5","midi":76,"time":14.626053749999997,"velocity":0.4645669291338583,"duration":0.23237156249999913},{"name":"A2","midi":45,"time":14.658104999999997,"velocity":0.2204724409448819,"duration":0.08546999999999905},{"name":"G4","midi":67,"time":14.905166718749996,"velocity":0.3858267716535433,"duration":0.28044843750000226},{"name":"B4","midi":71,"time":14.905166718749996,"velocity":0.5590551181102362,"duration":0.14155968750000092},{"name":"D5","midi":74,"time":15.144215624999998,"velocity":0.5748031496062992,"duration":0.4326918750000015},{"name":"B4","midi":71,"time":15.144215624999998,"velocity":0.4409448818897638,"duration":0.5702451562500013},{"name":"C#3","midi":49,"time":15.165583124999998,"velocity":0.2125984251968504,"duration":0.3071578125000016},{"name":"A4","midi":69,"time":15.731821875,"velocity":0.4251968503937008,"duration":0.07077984374999957},{"name":"F#4","midi":66,"time":15.731821875,"velocity":0.36220472440944884,"duration":0.1669335937500005},{"name":"G#3","midi":56,"time":15.86670421875,"velocity":0.2677165354330709,"duration":0.07345078125000093},{"name":"A4","midi":69,"time":15.90676828125,"velocity":0.30708661417322836,"duration":0.40464703125000234},{"name":"C#5","midi":73,"time":15.90676828125,"velocity":0.41732283464566927,"duration":0.4647431250000036},{"name":"A3","midi":57,"time":15.940155,"velocity":0.2283464566929134,"duration":0.13755328124999977},{"name":"G4","midi":67,"time":16.402227187500003,"velocity":0.4566929133858268,"duration":0.297809531249996},{"name":"E4","midi":64,"time":16.408904531250002,"velocity":0.33858267716535434,"duration":0.19764937499999746},{"name":"A2","midi":45,"time":16.428936562500002,"velocity":0.14173228346456693,"duration":0.09882468749999873},{"name":"B4","midi":71,"time":16.8776540625,"velocity":0.4566929133858268,"duration":0.6583860937499999},{"name":"F4","midi":65,"time":16.8776540625,"velocity":0.3464566929133858,"duration":0.606302812500001},{"name":"D3","midi":50,"time":16.92172453125,"velocity":0.15748031496062992,"duration":1.5571565624999941},{"name":"A4","midi":69,"time":17.4999825,"velocity":0.2283464566929134,"duration":0.9788985937499923},{"name":"F#4","midi":66,"time":17.50933078125,"velocity":0.13385826771653545,"duration":0.9281507812499967},{"name":"G#3","midi":56,"time":17.800462968749997,"velocity":0.2204724409448819,"duration":0.08546999999999727},{"name":"A3","midi":57,"time":17.904629531249995,"velocity":0.25196850393700787,"duration":0.3098287500000012},{"name":"A3","midi":57,"time":18.362695312499998,"velocity":0.015748031496062992,"duration":0.13755328124999622},{"name":"D5","midi":74,"time":18.433475156249997,"velocity":0.6377952755905512,"duration":0.30448687499999494},{"name":"D4","midi":62,"time":18.448165312499995,"velocity":0.36220472440944884,"duration":0.26442281249999766},{"name":"F#3","midi":54,"time":18.890205468749993,"velocity":0.5275590551181102,"duration":0.8627128124999999},{"name":"D5","midi":74,"time":18.890205468749993,"velocity":0.7244094488188977,"duration":0.45138843750000035},{"name":"D4","midi":62,"time":18.898218281249992,"velocity":0.5748031496062992,"duration":0.32718984375000204},{"name":"B2","midi":47,"time":18.910237499999994,"velocity":0.33858267716535434,"duration":0.6236639062500018},{"name":"C#5","midi":73,"time":19.270814062499994,"velocity":0.6220472440944882,"duration":0.22970062499999955},{"name":"B4","midi":71,"time":19.515204843749995,"velocity":0.7480314960629921,"duration":0.16426265624999914},{"name":"C#5","midi":73,"time":19.752918281249993,"velocity":0.6692913385826772,"duration":0.5956190624999991},{"name":"G4","midi":67,"time":19.768943906249994,"velocity":0.49606299212598426,"duration":0.858706406249997},{"name":"D4","midi":62,"time":19.768943906249994,"velocity":0.4881889763779528,"duration":0.7558753124999988},{"name":"F3","midi":53,"time":19.768943906249994,"velocity":0.6535433070866141,"duration":0.9415054687499982},{"name":"B2","midi":47,"time":19.776956718749993,"velocity":0.3700787401574803,"duration":0.7759073437499993},{"name":"B4","midi":71,"time":20.269744687499994,"velocity":0.7086614173228346,"duration":0.48878156249999805},{"name":"D5","midi":74,"time":20.690417343749992,"velocity":0.5590551181102362,"duration":0.5021362499999995},{"name":"B2","midi":47,"time":20.702436562499994,"velocity":0.4015748031496063,"duration":0.7171467187499978},{"name":"D4","midi":62,"time":20.710449374999993,"velocity":0.1889763779527559,"duration":0.6209929687499987},{"name":"F#4","midi":66,"time":21.185876249999993,"velocity":0.4330708661417323,"duration":0.2831193749999983},{"name":"F#3","midi":54,"time":21.41958328124999,"velocity":0.3700787401574803,"duration":0.0667734375000002},{"name":"G4","midi":67,"time":21.525085312499993,"velocity":0.5118110236220472,"duration":0.0894764062500002},{"name":"D4","midi":62,"time":21.551794687499992,"velocity":0.41732283464566927,"duration":0.35657015624999744},{"name":"F#4","midi":66,"time":21.551794687499992,"velocity":0.4251968503937008,"duration":0.3031514062499987},{"name":"F4","midi":65,"time":21.845597812499992,"velocity":0.6141732283464567,"duration":0.2377134374999983},{"name":"F#3","midi":54,"time":21.99784124999999,"velocity":0.47244094488188976,"duration":0.3231834374999991},{"name":"F#4","midi":66,"time":22.08998859374999,"velocity":0.5984251968503937,"duration":0.18963656249999872},{"name":"G4","midi":67,"time":22.326366562499988,"velocity":0.6377952755905512,"duration":0.3806085937500008},{"name":"D4","midi":62,"time":22.34372765624999,"velocity":0.4645669291338583,"duration":0.333867187500001},{"name":"B2","midi":47,"time":22.35841781249999,"velocity":0.28346456692913385,"duration":0.427349999999997},{"name":"B4","midi":71,"time":22.59479578124999,"velocity":0.7007874015748031,"duration":0.288461250000001},{"name":"D5","midi":74,"time":22.825831874999988,"velocity":0.6771653543307087,"duration":0.34588640625000266},{"name":"G3","midi":55,"time":22.95270140624999,"velocity":0.4645669291338583,"duration":0.048076874999999575},{"name":"C#5","midi":73,"time":23.075564531249988,"velocity":0.5669291338582677,"duration":0.5795934375000016},{"name":"D4","midi":62,"time":23.09025468749999,"velocity":0.36220472440944884,"duration":0.1642626562500027},{"name":"B4","midi":71,"time":23.57502984374999,"velocity":0.5748031496062992,"duration":0.49011703124999784},{"name":"G3","midi":55,"time":23.62577765624999,"velocity":0.2125984251968504,"duration":0.17494640624999747},{"name":"D5","midi":74,"time":24.04377937499999,"velocity":0.5590551181102362,"duration":1.3100948437500044},{"name":"B2","midi":47,"time":24.05846953124999,"velocity":0.25196850393700787,"duration":1.0149562500000044},{"name":"D4","midi":62,"time":24.06915328124999,"velocity":0.25984251968503935,"duration":0.5515485937500024},{"name":"F#4","midi":66,"time":24.08384343749999,"velocity":0.14173228346456693,"duration":0.6396895312500028},{"name":"F3","midi":53,"time":24.35494359374999,"velocity":0.6456692913385826,"duration":0.265758281250001},{"name":"F#3","midi":54,"time":24.60868265624999,"velocity":0.6220472440944882,"duration":0.3619120312500037},{"name":"B3","midi":59,"time":24.879782812499993,"velocity":0.5826771653543307,"duration":0.4353628124999993},{"name":"F#5","midi":78,"time":25.289771718749993,"velocity":0.6614173228346457,"duration":0.379273125000001},{"name":"G#4","midi":68,"time":25.304461874999994,"velocity":0.4409448818897638,"duration":0.39796968749999806},{"name":"D4","midi":62,"time":25.315145624999992,"velocity":0.47244094488188976,"duration":0.5555549999999982},{"name":"F#5","midi":78,"time":25.88806171874999,"velocity":0.5905511811023622,"duration":0.4567303124999995},{"name":"A4","midi":69,"time":25.906758281249992,"velocity":0.33070866141732286,"duration":0.47275593750000056},{"name":"C#4","midi":61,"time":25.91477109374999,"velocity":0.2283464566929134,"duration":0.6704053125000016},{"name":"E5","midi":76,"time":26.26065749999999,"velocity":0.5984251968503937,"duration":0.25908093750000205},{"name":"C#5","midi":73,"time":26.52508031249999,"velocity":0.5433070866141733,"duration":0.13755328124999977},{"name":"G4","midi":67,"time":26.52508031249999,"velocity":0.4645669291338583,"duration":0.31517062500000037},{"name":"A#3","midi":58,"time":26.54644781249999,"velocity":0.2047244094488189,"duration":0.2670937500000008},{"name":"D5","midi":74,"time":26.746768124999992,"velocity":0.6220472440944882,"duration":0.48210421874999554},{"name":"G#4","midi":68,"time":26.746768124999992,"velocity":0.4409448818897638,"duration":0.8079585937499942},{"name":"B3","midi":59,"time":26.781490312499994,"velocity":0.3228346456692913,"duration":0.4246790624999939},{"name":"B4","midi":71,"time":27.16877624999999,"velocity":0.6929133858267716,"duration":0.43402734374999596},{"name":"D4","midi":62,"time":27.19682109374999,"velocity":0.4566929133858268,"duration":0.4300209374999966},{"name":"E5","midi":76,"time":27.622835624999986,"velocity":0.4251968503937008,"duration":0.4967943749999968},{"name":"A4","midi":69,"time":27.652215937499985,"velocity":0.1889763779527559,"duration":0.5689096874999962},{"name":"E4","midi":64,"time":27.662899687499984,"velocity":0.11811023622047244,"duration":0.4567303124999995},{"name":"C#4","midi":61,"time":27.662899687499984,"velocity":0.2125984251968504,"duration":0.6169865624999993},{"name":"C#5","midi":73,"time":28.091585156249984,"velocity":0.49606299212598426,"duration":0.18830109374999893},{"name":"C#4","midi":61,"time":28.49222578124998,"velocity":0.4094488188976378,"duration":0.4647431249999947},{"name":"A4","midi":69,"time":28.49222578124998,"velocity":0.4881889763779528,"duration":0.45539484374999617},{"name":"F#4","midi":66,"time":28.52561249999998,"velocity":0.2204724409448819,"duration":0.4313564062499964},{"name":"F#3","midi":54,"time":28.53362531249998,"velocity":0.2755905511811024,"duration":0.3939632812499987},{"name":"B4","midi":71,"time":28.815409218749977,"velocity":0.6692913385826772,"duration":0.20833312499999934},{"name":"C#5","midi":73,"time":29.054458124999975,"velocity":0.5984251968503937,"duration":0.14823703125000165},{"name":"D4","midi":62,"time":29.185334062499976,"velocity":0.33858267716535434,"duration":0.5528840625000058},{"name":"A4","midi":69,"time":29.265462187499978,"velocity":0.23622047244094488,"duration":0.8827448437500003},{"name":"F3","midi":53,"time":29.30285531249998,"velocity":0.33070866141732286,"duration":0.6770826562500005},{"name":"B2","midi":47,"time":29.308197187499978,"velocity":0.16535433070866143,"duration":0.5969545312500024},{"name":"E5","midi":76,"time":29.385654374999977,"velocity":0.3937007874015748,"duration":0.30181593750000246},{"name":"D5","midi":74,"time":29.78362406249998,"velocity":0.3700787401574803,"duration":0.15224343749999747},{"name":"C#5","midi":73,"time":30.07742718749998,"velocity":0.41732283464566927,"duration":0.1255340624999981},{"name":"C#5","midi":73,"time":30.368559374999975,"velocity":0.3228346456692913,"duration":0.6236639062499982},{"name":"D4","midi":62,"time":30.392597812499975,"velocity":0.2125984251968504,"duration":0.799945781249999},{"name":"G#4","midi":68,"time":30.401946093749974,"velocity":0.2204724409448819,"duration":0.9214734375000013},{"name":"E2","midi":40,"time":30.433997343749972,"velocity":0.1968503937007874,"duration":0.5889417187500001},{"name":"B4","midi":71,"time":30.948152812499973,"velocity":0.3543307086614173,"duration":0.47943328125000306},{"name":"E3","midi":52,"time":30.998900624999973,"velocity":0.23622047244094488,"duration":0.3071578125000016},{"name":"C#4","midi":61,"time":31.446282656249977,"velocity":0.28346456692913385,"duration":0.6063028124999974},{"name":"A2","midi":45,"time":31.452959999999976,"velocity":0.2283464566929134,"duration":0.5515485937499989},{"name":"A4","midi":69,"time":31.472992031249976,"velocity":0.23622047244094488,"duration":1.7895281249999933},{"name":"G#3","midi":56,"time":31.773472499999976,"velocity":0.5118110236220472,"duration":0.2951385937499964},{"name":"A3","midi":57,"time":32.08597218749997,"velocity":0.48031496062992124,"duration":0.23904890624999808},{"name":"C#4","midi":61,"time":32.35440140624997,"velocity":0.3700787401574803,"duration":0.18563015624999935},{"name":"B3","midi":59,"time":32.48794828124997,"velocity":0.29133858267716534,"duration":0.731836874999999},{"name":"A3","midi":57,"time":33.22779796874997,"velocity":0.14173228346456693,"duration":0.4166662499999987},{"name":"F#4","midi":66,"time":33.931589999999964,"velocity":0.33858267716535434,"duration":0.34989281250000204},{"name":"A3","midi":57,"time":33.964976718749966,"velocity":0.16535433070866143,"duration":0.34588640625000266},{"name":"D3","midi":50,"time":33.972989531249965,"velocity":0.15748031496062992,"duration":0.9668793750000049},{"name":"D4","midi":62,"time":33.972989531249965,"velocity":0.15748031496062992,"duration":0.5048071875000062},{"name":"F#4","midi":66,"time":34.40301046874997,"velocity":0.3779527559055118,"duration":0.18028828125000018},{"name":"F#4","midi":66,"time":34.67544609374997,"velocity":0.3858267716535433,"duration":0.0894764062500002},{"name":"G#3","midi":56,"time":34.90247578124997,"velocity":0.15748031496062992,"duration":0.10817296874999727},{"name":"F#4","midi":66,"time":34.91449499999997,"velocity":0.28346456692913385,"duration":0.08413453125000103},{"name":"A4","midi":69,"time":34.98527484374997,"velocity":0.2677165354330709,"duration":0.08012812500000166},{"name":"A3","midi":57,"time":35.03335171874997,"velocity":0.14960629921259844,"duration":0.2069976562500031},{"name":"G4","midi":67,"time":35.05605468749997,"velocity":0.28346456692913385,"duration":0.5969545312499989},{"name":"F#4","midi":66,"time":35.61695156249997,"velocity":0.23622047244094488,"duration":0.2817839062499985},{"name":"A2","midi":45,"time":35.64366093749997,"velocity":0.1889763779527559,"duration":0.1041665624999979},{"name":"A4","midi":69,"time":36.188532187499966,"velocity":0.16535433070866143,"duration":0.9788985937499888},{"name":"A3","midi":57,"time":36.21257062499997,"velocity":0.09448818897637795,"duration":0.39129234374999555},{"name":"F#4","midi":66,"time":36.21657703124997,"velocity":0.11811023622047244,"duration":0.9334926562499888},{"name":"D3","midi":50,"time":36.21657703124997,"velocity":0.1732283464566929,"duration":0.7719009374999928},{"name":"D4","midi":62,"time":36.233938124999966,"velocity":0.14173228346456693,"duration":0.8079585937499942},{"name":"G#3","midi":56,"time":37.00450359374996,"velocity":0.15748031496062992,"duration":0.08146359375000145},{"name":"A3","midi":57,"time":37.07795437499996,"velocity":0.2992125984251969,"duration":0.28445484374999097},{"name":"D5","midi":74,"time":37.60279359374995,"velocity":0.6141732283464567,"duration":0.3579056249999937},{"name":"F#4","midi":66,"time":37.62282562499995,"velocity":0.25196850393700787,"duration":0.25908093749999495},{"name":"A2","midi":45,"time":37.640186718749945,"velocity":0.2125984251968504,"duration":0.12286312500000207},{"name":"E5","midi":76,"time":37.87522921874994,"velocity":0.6535433070866141,"duration":0.26041640624999474},{"name":"F#5","midi":78,"time":38.06887218749994,"velocity":0.5905511811023622,"duration":0.7104693750000024},{"name":"F#4","midi":66,"time":38.08623328124994,"velocity":0.3228346456692913,"duration":1.354165312500001},{"name":"D3","midi":50,"time":38.12095546874994,"velocity":0.25984251968503935,"duration":0.44871750000000077},{"name":"C#5","midi":73,"time":38.75396765624994,"velocity":0.4015748031496063,"duration":0.2230232812500006},{"name":"G#3","midi":56,"time":38.868817968749944,"velocity":0.2440944881889764,"duration":0.06944437500000333},{"name":"A3","midi":57,"time":38.946275156249946,"velocity":0.2755905511811024,"duration":0.2817839062499914},{"name":"E5","midi":76,"time":38.96764265624994,"velocity":0.1968503937007874,"duration":0.08012812499999455},{"name":"D5","midi":74,"time":38.98767468749994,"velocity":0.4645669291338583,"duration":0.27110015625000017},{"name":"B4","midi":71,"time":39.54189421874994,"velocity":0.4409448818897638,"duration":0.4540593749999928},{"name":"F4","midi":65,"time":39.563261718749935,"velocity":0.2125984251968504,"duration":0.20165578124999683},{"name":"D#3","midi":51,"time":39.568603593749934,"velocity":0.25196850393700787,"duration":0.25640999999999536},{"name":"F#4","midi":66,"time":39.82100718749993,"velocity":0.25984251968503935,"duration":0.08547000000000082},{"name":"C#4","midi":61,"time":40.04002406249993,"velocity":0.33070866141732286,"duration":1.1485031249999977},{"name":"G4","midi":67,"time":40.05070781249993,"velocity":0.3779527559055118,"duration":1.160522343750003},{"name":"E3","midi":52,"time":40.08409453124993,"velocity":0.33858267716535434,"duration":0.8239842187499988},{"name":"A#3","midi":58,"time":40.833292499999935,"velocity":0.16535433070866143,"duration":0.07478624999999539},{"name":"B3","midi":59,"time":40.88938218749993,"velocity":0.4251968503937008,"duration":0.4460465625000012},{"name":"G4","midi":67,"time":41.383505624999934,"velocity":0.5669291338582677,"duration":0.30448687499999494},{"name":"E4","midi":64,"time":41.39552484374993,"velocity":0.47244094488188976,"duration":0.3218479687499993},{"name":"G3","midi":55,"time":41.41288593749993,"velocity":0.3464566929133858,"duration":0.2083331250000029},{"name":"A#4","midi":70,"time":41.62121906249993,"velocity":0.5984251968503937,"duration":0.27243562499999285},{"name":"F#4","midi":66,"time":41.63590921874993,"velocity":0.4645669291338583,"duration":0.2497326562499964},{"name":"E3","midi":52,"time":41.65460578124993,"velocity":0.3858267716535433,"duration":0.16826906250000206},{"name":"B4","midi":71,"time":41.841571406249926,"velocity":0.6771653543307087,"duration":0.33119624999999786},{"name":"C#3","midi":49,"time":41.856261562499924,"velocity":0.3779527559055118,"duration":0.2630873437500014},{"name":"G4","midi":67,"time":41.856261562499924,"velocity":0.5590551181102362,"duration":0.6236639062499947},{"name":"A#4","midi":70,"time":42.46657078124992,"velocity":0.5511811023622047,"duration":0.1322114062499935},{"name":"C#5","midi":73,"time":42.46657078124992,"velocity":0.6299212598425197,"duration":0.14423062499999162},{"name":"B3","midi":59,"time":42.495951093749916,"velocity":0.33070866141732286,"duration":0.19764937499999036},{"name":"E5","midi":76,"time":42.66555562499991,"velocity":0.6299212598425197,"duration":0.3579056249999937},{"name":"C#5","midi":73,"time":42.66956203124991,"velocity":0.5511811023622047,"duration":0.2831193749999983},{"name":"G4","midi":67,"time":42.68558765624991,"velocity":0.4566929133858268,"duration":0.2831193749999983},{"name":"D5","midi":74,"time":43.2251170312499,"velocity":0.6692913385826772,"duration":0.25640999999998826},{"name":"G4","midi":67,"time":43.2331298437499,"velocity":0.5669291338582677,"duration":0.2230232812499935},{"name":"E4","midi":64,"time":43.2424781249999,"velocity":0.41732283464566927,"duration":0.23237156249999202},{"name":"B3","midi":59,"time":43.2504909374999,"velocity":0.4330708661417323,"duration":0.15624984374999684},{"name":"D5","midi":74,"time":43.71122765624989,"velocity":0.7165354330708661,"duration":0.576922500000002},{"name":"A#4","midi":70,"time":43.71122765624989,"velocity":0.48031496062992124,"duration":0.7411851562500047},{"name":"F#4","midi":66,"time":43.71924046874989,"velocity":0.3937007874015748,"duration":1.0603621875000044},{"name":"E4","midi":64,"time":43.71924046874989,"velocity":0.5354330708661418,"duration":0.9628729687500055},{"name":"F#2","midi":42,"time":43.729924218749886,"velocity":0.41732283464566927,"duration":0.3886214062500031},{"name":"C#5","midi":73,"time":44.21737031249989,"velocity":0.5748031496062992,"duration":0.8199778125000066},{"name":"F3","midi":53,"time":44.51250890624989,"velocity":0.5905511811023622,"duration":0.11084390625000395},{"name":"F#3","midi":54,"time":44.59664343749989,"velocity":0.6456692913385826,"duration":0.36458296874999974},{"name":"A#4","midi":70,"time":45.033341718749895,"velocity":0.5748031496062992,"duration":0.34855734374999514},{"name":"F#4","midi":66,"time":45.037348124999895,"velocity":0.4409448818897638,"duration":0.37793765624999764},{"name":"E4","midi":64,"time":45.05871562499989,"velocity":0.5118110236220472,"duration":0.23370703124999892},{"name":"C5","midi":72,"time":45.29776453124989,"velocity":0.7007874015748031,"duration":0.2924676562500039},{"name":"A3","midi":57,"time":45.29776453124989,"velocity":0.44881889763779526,"duration":0.2550745312500027},{"name":"F#4","midi":66,"time":45.531471562499895,"velocity":0.5275590551181102,"duration":1.1605223437499959},{"name":"A#3","midi":58,"time":45.531471562499895,"velocity":0.4330708661417323,"duration":0.9161315624999986},{"name":"C#5","midi":73,"time":45.531471562499895,"velocity":0.6456692913385826,"duration":0.803952187500002},{"name":"D5","midi":74,"time":46.1885221874999,"velocity":0.7165354330708661,"duration":0.2951385937499964},{"name":"F#5","midi":78,"time":46.4155518749999,"velocity":0.6535433070866141,"duration":0.5862707812500005},{"name":"A#4","midi":70,"time":46.4275710937499,"velocity":0.3937007874015748,"duration":0.7785782812499988},{"name":"F#3","midi":54,"time":46.439590312499895,"velocity":0.3858267716535433,"duration":0.6089737500000041},{"name":"E5","midi":76,"time":46.9297073437499,"velocity":0.6377952755905512,"duration":0.17094000000000165},{"name":"C#5","midi":73,"time":47.3250060937499,"velocity":0.5905511811023622,"duration":0.5822643749999941},{"name":"F4","midi":65,"time":47.3330189062499,"velocity":0.44881889763779526,"duration":0.4714204687499972},{"name":"B2","midi":47,"time":47.350379999999895,"velocity":0.3937007874015748,"duration":0.7184821875000011},{"name":"B4","midi":71,"time":47.350379999999895,"velocity":0.5354330708661418,"duration":0.5622323437499972},{"name":"D5","midi":74,"time":47.77505906249989,"velocity":0.5433070866141733,"duration":0.36458296875000684},{"name":"F#4","midi":66,"time":47.78173640624989,"velocity":0.36220472440944884,"duration":0.4326918750000104},{"name":"F#3","midi":54,"time":47.986063124999895,"velocity":0.5196850393700787,"duration":0.14155968750000625},{"name":"D4","midi":62,"time":48.1650159374999,"velocity":0.6299212598425197,"duration":0.43803375000000244},{"name":"D5","midi":74,"time":48.62975906249991,"velocity":0.7716535433070866,"duration":0.401976093750001},{"name":"F#3","midi":54,"time":48.644449218749905,"velocity":0.5905511811023622,"duration":0.42200812500000495},{"name":"C#5","midi":73,"time":49.03841249999991,"velocity":0.6929133858267716,"duration":0.3993051562500014},{"name":"B2","midi":47,"time":49.03841249999991,"velocity":0.5275590551181102,"duration":0.6103092187500039},{"name":"G4","midi":67,"time":49.06111546874991,"velocity":0.49606299212598426,"duration":0.7118048437499951},{"name":"B4","midi":71,"time":49.06111546874991,"velocity":0.5984251968503937,"duration":0.7972748437499888},{"name":"E5","midi":76,"time":49.32687374999991,"velocity":0.6614173228346457,"duration":0.25641000000000247},{"name":"F#5","midi":78,"time":49.55924531249991,"velocity":0.6614173228346457,"duration":0.2203523437499939},{"name":"G3","midi":55,"time":49.70614687499991,"velocity":0.41732283464566927,"duration":0.06677343749999665},{"name":"C#4","midi":61,"time":49.7916168749999,"velocity":0.5984251968503937,"duration":0.459401249999992},{"name":"E5","midi":76,"time":49.8009651562499,"velocity":0.7007874015748031,"duration":0.4447110937499943},{"name":"B4","midi":71,"time":50.2363279687499,"velocity":0.7637795275590551,"duration":0.2831193749999983},{"name":"G3","midi":55,"time":50.260366406249894,"velocity":0.5984251968503937,"duration":0.4567303124999995},{"name":"D5","midi":74,"time":50.6877164062499,"velocity":0.6771653543307087,"duration":1.0683750000000032},{"name":"B2","midi":47,"time":50.6917228124999,"velocity":0.48031496062992124,"duration":1.302082031250002},{"name":"F#4","midi":66,"time":50.6917228124999,"velocity":0.41732283464566927,"duration":1.4756929687500033},{"name":"B4","midi":71,"time":50.699735624999896,"velocity":0.4645669291338583,"duration":1.3635135937500067},{"name":"F3","midi":53,"time":50.978848593749895,"velocity":0.7716535433070866,"duration":0.2777774999999991},{"name":"F#3","midi":54,"time":51.212555624999894,"velocity":0.6771653543307087,"duration":0.20299125000000373},{"name":"A3","midi":57,"time":51.379489218749896,"velocity":0.48031496062992124,"duration":0.15892078125000353},{"name":"G3","midi":55,"time":51.4863267187499,"velocity":0.6850393700787402,"duration":0.5074781249999987},{"name":"D5","midi":74,"time":51.9497343749999,"velocity":0.6614173228346457,"duration":0.39262781250000245},{"name":"F#3","midi":54,"time":51.9751082812499,"velocity":0.6299212598425197,"duration":0.381944062499997},{"name":"C#5","midi":73,"time":52.3570523437499,"velocity":0.6614173228346457,"duration":0.40598249999999325},{"name":"G4","midi":67,"time":52.375748906249896,"velocity":0.49606299212598426,"duration":1.1618578125000028},{"name":"B4","midi":71,"time":52.385097187499895,"velocity":0.5275590551181102,"duration":0.8239842187499988},{"name":"B2","midi":47,"time":52.39444546874989,"velocity":0.4566929133858268,"duration":1.147167656250005},{"name":"E5","midi":76,"time":52.658868281249894,"velocity":0.6692913385826772,"duration":0.2991450000000029},{"name":"F#5","midi":78,"time":52.885897968749894,"velocity":0.6141732283464567,"duration":0.3538992187500014},{"name":"G3","midi":55,"time":53.0087610937499,"velocity":0.36220472440944884,"duration":0.15357890624999726},{"name":"E5","midi":76,"time":53.106250312499895,"velocity":0.6692913385826772,"duration":0.45272390625000014},{"name":"C#4","midi":61,"time":53.114263124999894,"velocity":0.5826771653543307,"duration":0.311164218750001},{"name":"B4","midi":71,"time":53.514903749999895,"velocity":0.7480314960629921,"duration":0.28579031249999787},{"name":"G3","midi":55,"time":53.5376067187499,"velocity":0.5275590551181102,"duration":0.3552346874999941},{"name":"B2","midi":47,"time":53.887499531249894,"velocity":0.49606299212598426,"duration":1.160522343750003},{"name":"D5","midi":74,"time":53.90218968749989,"velocity":0.6535433070866141,"duration":1.0456720312500067},{"name":"F#4","midi":66,"time":53.90886703124989,"velocity":0.4251968503937008,"duration":1.2686953125000073},{"name":"B4","midi":71,"time":53.91687984374989,"velocity":0.2755905511811024,"duration":1.3020820312500092},{"name":"F3","midi":53,"time":54.17996718749989,"velocity":0.7559055118110236,"duration":0.2644228125000012},{"name":"F#3","midi":54,"time":54.41500968749989,"velocity":0.6771653543307087,"duration":0.19631390625000478},{"name":"A3","midi":57,"time":54.600639843749896,"velocity":0.5354330708661418,"duration":0.1348823437500002},{"name":"G3","midi":55,"time":54.691451718749896,"velocity":0.6299212598425197,"duration":0.49812984375000013},{"name":"D5","midi":74,"time":55.189581562499896,"velocity":0.6692913385826772,"duration":0.311164218750001},{"name":"F#3","midi":54,"time":55.2189618749999,"velocity":0.4645669291338583,"duration":0.34989281249999493},{"name":"G#2","midi":44,"time":55.5942285937499,"velocity":0.4566929133858268,"duration":1.8669853125000202},{"name":"B4","midi":71,"time":55.6236089062499,"velocity":0.7401574803149606,"duration":0.5729160937500026},{"name":"D4","midi":62,"time":55.642305468749896,"velocity":0.5196850393700787,"duration":1.3408106250000174},{"name":"F#4","midi":66,"time":55.647647343749895,"velocity":0.30708661417322836,"duration":1.0176271875000111},{"name":"C#5","midi":73,"time":55.9748371874999,"velocity":0.6299212598425197,"duration":0.21367500000000206},{"name":"D5","midi":74,"time":56.2646339062499,"velocity":0.6377952755905512,"duration":0.12954046875000103},{"name":"D3","midi":50,"time":56.4716315624999,"velocity":0.3700787401574803,"duration":0.07077984375000312},{"name":"B4","midi":71,"time":56.61853312499991,"velocity":0.5905511811023622,"duration":0.5048071875000062},{"name":"D3","midi":50,"time":56.74006078124991,"velocity":0.031496062992125984,"duration":0.23504250000000582},{"name":"G#3","midi":56,"time":57.12334031249991,"velocity":0.2283464566929134,"duration":0.12553406250000165},{"name":"F#4","midi":66,"time":57.16473984374991,"velocity":0.4566929133858268,"duration":0.2964740625000033},{"name":"A#4","midi":70,"time":57.64417312499992,"velocity":0.3228346456692913,"duration":1.2646889062499937},{"name":"C#4","midi":61,"time":57.650850468749915,"velocity":0.30708661417322836,"duration":1.5518146874999985},{"name":"C#2","midi":37,"time":57.67355343749992,"velocity":0.29133858267716534,"duration":0.3084932812500014},{"name":"F#4","midi":66,"time":57.67355343749992,"velocity":0.07874015748031496,"duration":1.5972206249999914},{"name":"C3","midi":48,"time":57.99673687499992,"velocity":0.3779527559055118,"duration":0.2350424999999987},{"name":"C#3","midi":49,"time":58.246469531249915,"velocity":0.4566929133858268,"duration":0.24973265625000352},{"name":"F3","midi":53,"time":58.45213171874992,"velocity":0.5826771653543307,"duration":0.06543796874999686},{"name":"D#3","midi":51,"time":58.52958890624991,"velocity":0.3779527559055118,"duration":0.6209929687500022},{"name":"A#4","midi":70,"time":59.11719515624991,"velocity":0.49606299212598426,"duration":0.5595614062499976},{"name":"C#3","midi":49,"time":59.150581874999915,"velocity":0.30708661417322836,"duration":0.11485031249999622},{"name":"C#3","midi":49,"time":59.43770765624991,"velocity":0.1732283464566929,"duration":0.3525637500000016},{"name":"G#4","midi":68,"time":59.57926734374991,"velocity":0.44881889763779526,"duration":0.5194973437499968},{"name":"F4","midi":65,"time":59.60063484374991,"velocity":0.2755905511811024,"duration":0.37526671875000517},{"name":"B3","midi":59,"time":59.64203437499991,"velocity":0.31496062992125984,"duration":0.28979671875000435},{"name":"A#4","midi":70,"time":59.98391437499991,"velocity":0.3543307086614173,"duration":0.3245189062499989},{"name":"C#4","midi":61,"time":59.99860453124991,"velocity":0.2125984251968504,"duration":0.18696562499999914},{"name":"C#5","midi":73,"time":60.26970468749991,"velocity":0.2755905511811024,"duration":0.1322114062500006},{"name":"F4","midi":65,"time":60.29774953124991,"velocity":0.11023622047244094,"duration":0.08146359374999435},{"name":"B4","midi":71,"time":60.37387124999991,"velocity":0.3937007874015748,"duration":0.4700849999999974},{"name":"D#4","midi":63,"time":60.40592249999991,"velocity":0.33070866141732286,"duration":0.06276703124999727},{"name":"A#4","midi":70,"time":60.79187296874991,"velocity":0.25196850393700787,"duration":0.7999457812500026},{"name":"C#4","midi":61,"time":60.82793062499991,"velocity":0.11811023622047244,"duration":0.45138843750000035},{"name":"F4","midi":65,"time":60.847962656249905,"velocity":0.06299212598425197,"duration":0.908118750000007},{"name":"C#3","midi":49,"time":60.96548390624991,"velocity":0.015748031496062992,"duration":0.9188025000000124},{"name":"G#4","midi":68,"time":61.55843203124991,"velocity":0.1968503937007874,"duration":0.3872859375000104},{"name":"B3","midi":59,"time":61.62921187499991,"velocity":0.14960629921259844,"duration":0.15892078125000353},{"name":"C#5","midi":73,"time":62.369061562499915,"velocity":0.12598425196850394,"duration":1.8936946874999805},{"name":"C#4","midi":61,"time":62.374403437499915,"velocity":0.11811023622047244,"duration":1.2513342187499958},{"name":"A#4","midi":70,"time":62.39176453124991,"velocity":0.14960629921259844,"duration":1.3755328124999906},{"name":"F#2","midi":42,"time":62.39844187499991,"velocity":0.13385826771653545,"duration":1.0122853124999978},{"name":"F#4","midi":66,"time":62.42782218749991,"velocity":0.14173228346456693,"duration":1.3181076562499925},{"name":"C3","midi":48,"time":63.30656062499991,"velocity":0.12598425196850394,"duration":0.09214734374999978},{"name":"C#3","midi":49,"time":63.41072718749991,"velocity":0.2125984251968504,"duration":0.718482187499994},{"name":"A#4","midi":70,"time":64.1238674999999,"velocity":0.28346456692913385,"duration":0.595619062499992},{"name":"C#4","midi":61,"time":64.1519123437499,"velocity":0.15748031496062992,"duration":0.14155968749999204},{"name":"B4","midi":71,"time":64.6353520312499,"velocity":0.48031496062992124,"duration":0.3418800000000033},{"name":"F4","midi":65,"time":64.6353520312499,"velocity":0.2440944881889764,"duration":1.5531501562500125},{"name":"F#2","midi":42,"time":64.65805499999989,"velocity":0.2047244094488189,"duration":0.6637279687500239},{"name":"C#5","midi":73,"time":64.92781968749989,"velocity":0.4566929133858268,"duration":0.2657582812500152},{"name":"F5","midi":77,"time":65.2029262499999,"velocity":0.4251968503937008,"duration":0.06810890625000354},{"name":"C#3","midi":49,"time":65.37119531249992,"velocity":0.1889763779527559,"duration":0.18563015624999935},{"name":"D#5","midi":75,"time":65.44197515624992,"velocity":0.2440944881889764,"duration":0.06276703125000438},{"name":"F5","midi":77,"time":65.51943234374993,"velocity":0.33070866141732286,"duration":0.11217937499999664},{"name":"D#5","midi":75,"time":65.58219937499992,"velocity":0.2992125984251969,"duration":0.5769224999999949},{"name":"B3","midi":59,"time":65.65832109374992,"velocity":0.11811023622047244,"duration":0.530181093749988},{"name":"C#5","midi":73,"time":66.2045278124999,"velocity":0.2047244094488189,"duration":0.1602562499999891},{"name":"C#3","midi":49,"time":66.2379145312499,"velocity":0.14960629921259844,"duration":0.1629271874999887},{"name":"C#4","midi":61,"time":66.67327734374989,"velocity":0.23622047244094488,"duration":0.3993051562499943},{"name":"A#4","midi":70,"time":66.69865124999988,"velocity":0.2125984251968504,"duration":1.197915468749997},{"name":"F#2","midi":42,"time":66.71734781249988,"velocity":0.14960629921259844,"duration":0.5835998437499939},{"name":"D#4","midi":63,"time":67.01248640624988,"velocity":0.3464566929133858,"duration":0.24973265625000352},{"name":"F4","midi":65,"time":67.28358656249988,"velocity":0.25984251968503935,"duration":0.10149562499999831},{"name":"C#3","midi":49,"time":67.36905656249988,"velocity":0.11811023622047244,"duration":0.34855734375000225},{"name":"D#4","midi":63,"time":67.45052015624988,"velocity":0.2677165354330709,"duration":0.056089687500005425},{"name":"F4","midi":65,"time":67.50660984374989,"velocity":0.28346456692913385,"duration":0.13488234374999308},{"name":"D#4","midi":63,"time":67.60009265624988,"velocity":0.29133858267716534,"duration":0.32051249999999243},{"name":"A#3","midi":58,"time":67.62146015624988,"velocity":0.10236220472440945,"duration":0.5034717187499922},{"name":"C#4","midi":61,"time":67.87519921874988,"velocity":0.3779527559055118,"duration":0.21901687499999412},{"name":"A#4","midi":70,"time":68.04881015624987,"velocity":0.48031496062992124,"duration":0.3124996875000221},{"name":"C#3","midi":49,"time":68.18636343749988,"velocity":0.14173228346456693,"duration":0.12820500000000834},{"name":"F#4","midi":66,"time":68.25714328124988,"velocity":0.3858267716535433,"duration":0.16025625000001753},{"name":"F#2","midi":42,"time":68.5068759374999,"velocity":0.23622047244094488,"duration":0.8453517187499813},{"name":"F#4","midi":66,"time":68.5215660937499,"velocity":0.2440944881889764,"duration":0.3392090624999895},{"name":"B4","midi":71,"time":68.5269079687499,"velocity":0.48031496062992124,"duration":0.6103092187499897},{"name":"F4","midi":65,"time":68.84608499999989,"velocity":0.44881889763779526,"duration":0.24839718750000372},{"name":"D#4","midi":63,"time":69.09848859374989,"velocity":0.47244094488188976,"duration":0.27243562499998575},{"name":"C#3","midi":49,"time":69.23337093749988,"velocity":0.2125984251968504,"duration":0.17895281249998618},{"name":"B4","midi":71,"time":69.37760156249988,"velocity":0.4409448818897638,"duration":1.030981875000009},{"name":"F4","midi":65,"time":69.37760156249988,"velocity":0.3543307086614173,"duration":0.6316767187500005},{"name":"G#3","midi":56,"time":69.40698187499987,"velocity":0.30708661417322836,"duration":0.2684292187500006},{"name":"C#4","midi":61,"time":69.92113734374988,"velocity":0.4094488188976378,"duration":0.27644203125001354},{"name":"C#3","midi":49,"time":69.95185312499987,"velocity":0.25984251968503935,"duration":0.24572625000001835},{"name":"A#4","midi":70,"time":70.36317749999989,"velocity":0.3937007874015748,"duration":0.4166662499999916},{"name":"F#2","midi":42,"time":70.37386124999989,"velocity":0.2283464566929134,"duration":0.3699248437499989},{"name":"F#4","midi":66,"time":70.39789968749989,"velocity":0.30708661417322836,"duration":1.6987162499999897},{"name":"B4","midi":71,"time":70.69570921874988,"velocity":0.6299212598425197,"duration":0.27110015625000017},{"name":"C5","midi":72,"time":70.95211921874989,"velocity":0.6141732283464567,"duration":0.21634593749999453},{"name":"C#3","midi":49,"time":71.05227937499988,"velocity":0.2677165354330709,"duration":0.11217937499999664},{"name":"C#5","midi":73,"time":71.17514249999988,"velocity":0.5354330708661418,"duration":0.45005296875000056},{"name":"A#3","midi":58,"time":71.22722578124989,"velocity":0.2440944881889764,"duration":0.18162374999999997},{"name":"F5","midi":77,"time":71.46493921874988,"velocity":0.4409448818897638,"duration":0.16826906250000206},{"name":"D#5","midi":75,"time":71.57978953124987,"velocity":0.4645669291338583,"duration":0.42467906250000453},{"name":"C#3","midi":49,"time":71.78411624999988,"velocity":0.2677165354330709,"duration":0.10817296874999727},{"name":"C#5","midi":73,"time":71.92166953124988,"velocity":0.4881889763779528,"duration":0.31784156250000706},{"name":"F#2","midi":42,"time":72.18742781249988,"velocity":0.2204724409448819,"duration":0.3859504687499964},{"name":"B4","midi":71,"time":72.23550468749988,"velocity":0.6377952755905512,"duration":0.36057656249998615},{"name":"F4","midi":65,"time":72.24618843749988,"velocity":0.33070866141732286,"duration":1.55181468749997},{"name":"C#5","midi":73,"time":72.53331421874988,"velocity":0.5905511811023622,"duration":0.23103609374999223},{"name":"F5","midi":77,"time":72.77503406249987,"velocity":0.5354330708661418,"duration":0.054754218750005634},{"name":"C#3","midi":49,"time":72.91258734374988,"velocity":0.09448818897637795,"duration":0.09615374999999915},{"name":"D#5","midi":75,"time":72.94463859374987,"velocity":0.4645669291338583,"duration":0.056089687500005425},{"name":"F5","midi":77,"time":73.02743765624987,"velocity":0.3937007874015748,"duration":0.07745718750000208},{"name":"D#5","midi":75,"time":73.08352734374988,"velocity":0.33070866141732286,"duration":0.6103092187499755},{"name":"B3","midi":59,"time":73.12759781249987,"velocity":0.2992125984251969,"duration":0.25774546874998805},{"name":"C#5","midi":73,"time":73.66846265624986,"velocity":0.31496062992125984,"duration":0.6650634374999811},{"name":"C#3","midi":49,"time":73.70852671874985,"velocity":0.1889763779527559,"duration":0.12553406249999455},{"name":"A#4","midi":70,"time":74.24805609374985,"velocity":0.2755905511811024,"duration":0.9695503124999902},{"name":"C#4","midi":61,"time":74.25206249999985,"velocity":0.14173228346456693,"duration":0.5876062499999932},{"name":"F#2","midi":42,"time":74.29613296874984,"velocity":0.1732283464566929,"duration":0.4126598437499922},{"name":"F#4","midi":66,"time":74.30414578124984,"velocity":0.05511811023622047,"duration":0.472755937499997},{"name":"A4","midi":69,"time":75.20291624999984,"velocity":0.3228346456692913,"duration":0.49545890624999345},{"name":"D4","midi":62,"time":75.21760640624984,"velocity":0.2047244094488189,"duration":0.7745718749999924},{"name":"F#4","midi":66,"time":75.23363203124984,"velocity":0.18110236220472442,"duration":0.9147960937499988},{"name":"C4","midi":60,"time":75.24164484374984,"velocity":0.14960629921259844,"duration":0.5488776562499993},{"name":"D3","midi":50,"time":75.26968968749983,"velocity":0.18110236220472442,"duration":0.938834531249995},{"name":"D5","midi":74,"time":75.60622781249984,"velocity":0.47244094488188976,"duration":0.4420401562500018},{"name":"B4","midi":71,"time":75.91739203124983,"velocity":0.5984251968503937,"duration":0.3699248437499989},{"name":"G3","midi":55,"time":76.11103499999984,"velocity":0.16535433070866143,"duration":0.710469374999974},{"name":"C4","midi":60,"time":76.16311828124984,"velocity":0.3543307086614173,"duration":0.46474312499998405},{"name":"A4","midi":69,"time":76.20184687499983,"velocity":0.4251968503937008,"duration":0.6730762499999798},{"name":"D4","midi":62,"time":76.21920796874983,"velocity":0.33070866141732286,"duration":0.49545890624999345},{"name":"G4","midi":67,"time":76.54239140624982,"velocity":0.48031496062992124,"duration":0.2791129687499989},{"name":"B3","midi":59,"time":76.73603437499982,"velocity":0.4645669291338583,"duration":0.10550203124999769},{"name":"D5","midi":74,"time":76.86691031249981,"velocity":0.6062992125984252,"duration":0.06410250000000417},{"name":"C#3","midi":49,"time":77.06055328124981,"velocity":0.25196850393700787,"duration":1.282049999999984},{"name":"B3","midi":59,"time":77.1794099999998,"velocity":0.2992125984251969,"duration":0.8333324999999974},{"name":"F4","midi":65,"time":77.2274868749998,"velocity":0.41732283464566927,"duration":0.5422003125000003},{"name":"C#4","midi":61,"time":77.2421770312498,"velocity":0.2755905511811024,"duration":0.8066231250000016},{"name":"C#5","midi":73,"time":77.7696871874998,"velocity":0.30708661417322836,"duration":0.7946039062500034},{"name":"C#4","midi":61,"time":78.3426032812498,"velocity":0.2047244094488189,"duration":0.9321571875000103},{"name":"F#4","midi":66,"time":78.35195156249979,"velocity":0.2440944881889764,"duration":0.9922532812500151},{"name":"A#3","midi":58,"time":78.35862890624979,"velocity":0.11811023622047244,"duration":0.973556718750018},{"name":"F#3","midi":54,"time":78.36931265624979,"velocity":0.2204724409448819,"duration":1.256676093750002},{"name":"C4","midi":60,"time":79.5605507812498,"velocity":0.3937007874015748,"duration":1.3100948437499937},{"name":"F#4","midi":66,"time":79.5605507812498,"velocity":0.3779527559055118,"duration":0.8106295312499867},{"name":"D#4","midi":63,"time":79.5685635937498,"velocity":0.3543307086614173,"duration":1.5024023437500063},{"name":"A3","midi":57,"time":79.5685635937498,"velocity":0.25196850393700787,"duration":1.2045928124999818},{"name":"B2","midi":47,"time":79.5966084374998,"velocity":0.18110236220472442,"duration":1.5972206250000056},{"name":"A4","midi":69,"time":80.20825312499979,"velocity":0.3858267716535433,"duration":0.6129801562500035},{"name":"G4","midi":67,"time":80.64628687499979,"velocity":0.49606299212598426,"duration":0.4473820312500152},{"name":"E3","midi":52,"time":80.9294062499998,"velocity":0.25196850393700787,"duration":1.1631932812499883},{"name":"F#4","midi":66,"time":80.9921732812498,"velocity":0.4409448818897638,"duration":0.5128199999999907},{"name":"A3","midi":57,"time":81.0041924999998,"velocity":0.33070866141732286,"duration":0.6770826562499934},{"name":"B3","midi":59,"time":81.0188826562498,"velocity":0.2125984251968504,"duration":1.068374999999989},{"name":"E4","midi":64,"time":81.4128459374998,"velocity":0.48031496062992124,"duration":0.5181618749999899},{"name":"G3","midi":55,"time":81.7039781249998,"velocity":0.28346456692913385,"duration":0.40731796874999304},{"name":"B4","midi":71,"time":81.89361468749979,"velocity":0.5118110236220472,"duration":0.7839201562499909},{"name":"C#4","midi":61,"time":82.47721453124979,"velocity":0.25984251968503935,"duration":2.0566218749999905},{"name":"E4","midi":64,"time":82.49591109374978,"velocity":0.4251968503937008,"duration":1.3461525000000023},{"name":"A2","midi":45,"time":82.54131703124979,"velocity":0.12598425196850394,"duration":1.8749981249999905},{"name":"G3","midi":55,"time":82.54131703124979,"velocity":0.16535433070866143,"duration":1.7521349999999956},{"name":"F4","midi":65,"time":83.81268328124979,"velocity":0.1732283464566929,"duration":1.0336528124999802},{"name":"A3","midi":57,"time":85.36716890624977,"velocity":0.08661417322834646,"duration":0.536858437499987},{"name":"F#4","midi":66,"time":85.36716890624977,"velocity":0.10236220472440945,"duration":0.34722187499998824},{"name":"D4","midi":62,"time":85.38185906249977,"velocity":0.11023622047244094,"duration":0.6450314062499984},{"name":"D2","midi":38,"time":85.40456203124977,"velocity":0.18110236220472442,"duration":0.4126598437499922},{"name":"F#4","midi":66,"time":85.97480718749976,"velocity":0.16535433070866143,"duration":0.16559812500000248},{"name":"F#4","midi":66,"time":86.25258468749976,"velocity":0.2992125984251969,"duration":0.149572500000005},{"name":"F#4","midi":66,"time":86.52502031249976,"velocity":0.14173228346456693,"duration":0.2670937500000008},{"name":"G#3","midi":56,"time":86.54772328124976,"velocity":0.15748031496062992,"duration":0.11752125000001001},{"name":"A4","midi":69,"time":86.61316124999976,"velocity":0.1889763779527559,"duration":0.16693359375000227},{"name":"A3","midi":57,"time":86.69863124999976,"velocity":0.047244094488188976,"duration":0.18696562499999914},{"name":"G4","midi":67,"time":86.71332140624976,"velocity":0.2204724409448819,"duration":0.5769224999999949},{"name":"F#4","midi":66,"time":87.27154734374976,"velocity":0.1968503937007874,"duration":0.30315140624999515},{"name":"A2","midi":45,"time":87.29024390624976,"velocity":0.11811023622047244,"duration":0.1188567187499956},{"name":"A4","midi":69,"time":87.84045703124976,"velocity":0.11811023622047244,"duration":1.1605223437499887},{"name":"D4","midi":62,"time":87.87117281249975,"velocity":0.2047244094488189,"duration":1.0189626562499967},{"name":"D2","midi":38,"time":87.87117281249975,"velocity":0.14960629921259844,"duration":0.20032031249999704},{"name":"F#4","midi":66,"time":87.87117281249975,"velocity":0.13385826771653545,"duration":1.108439062499997},{"name":"A3","midi":57,"time":87.87117281249975,"velocity":0.023622047244094488,"duration":0.4006406249999941},{"name":"G#3","midi":56,"time":88.80065906249975,"velocity":0.14960629921259844,"duration":0.07879265625000187},{"name":"A3","midi":57,"time":88.89013546874975,"velocity":0.1968503937007874,"duration":0.10550203124999769},{"name":"D5","midi":74,"time":89.47507078124974,"velocity":0.4566929133858268,"duration":0.34855734374998804},{"name":"F#4","midi":66,"time":89.48976093749974,"velocity":0.13385826771653545,"duration":0.2684292187499864},{"name":"A2","midi":45,"time":89.50445109374974,"velocity":0.15748031496062992,"duration":0.20432671874999642},{"name":"E5","midi":76,"time":89.74349999999973,"velocity":0.4409448818897638,"duration":0.3405445312499893},{"name":"F#5","midi":78,"time":90.02528390624973,"velocity":0.3779527559055118,"duration":0.6837599999999924},{"name":"D3","midi":50,"time":90.03997406249972,"velocity":0.16535433070866143,"duration":0.4166662499999916},{"name":"F#4","midi":66,"time":90.07469624999972,"velocity":0.10236220472440945,"duration":1.406248593749993},{"name":"C#5","midi":73,"time":90.73975968749971,"velocity":0.2283464566929134,"duration":0.28579031249999787},{"name":"G#3","midi":56,"time":90.92538984374971,"velocity":0.2440944881889764,"duration":0.0894764062500002},{"name":"E5","midi":76,"time":91.01486624999971,"velocity":0.10236220472440945,"duration":0.0881409375000004},{"name":"A3","midi":57,"time":91.07095593749972,"velocity":0.09448818897637795,"duration":0.12152765624999518},{"name":"D5","midi":74,"time":91.09232343749972,"velocity":0.3464566929133858,"duration":0.4433756250000016},{"name":"B4","midi":71,"time":91.59846609374972,"velocity":0.4094488188976378,"duration":0.1308759374999937},{"name":"F4","midi":65,"time":91.61315624999972,"velocity":0.13385826771653545,"duration":0.25640999999998826},{"name":"D#3","midi":51,"time":91.62517546874972,"velocity":0.15748031496062992,"duration":0.21501046874999474},{"name":"F#4","midi":66,"time":91.92565593749971,"velocity":0.16535433070866143,"duration":0.07879265625000187},{"name":"C#4","midi":61,"time":92.20610437499971,"velocity":0.2204724409448819,"duration":1.17921890625},{"name":"G4","midi":67,"time":92.21545265624971,"velocity":0.28346456692913385,"duration":1.211270156249995},{"name":"E3","midi":52,"time":92.2434974999997,"velocity":0.2125984251968504,"duration":0.5355229687500014},{"name":"G#3","midi":56,"time":93.0955265624997,"velocity":0.14960629921259844,"duration":0.08012812500000166},{"name":"A3","midi":57,"time":93.1462743749997,"velocity":0.29133858267716534,"duration":0.10016015624999852},{"name":"G4","midi":67,"time":93.59232093749971,"velocity":0.49606299212598426,"duration":0.2978095312499818},{"name":"E4","midi":64,"time":93.6030046874997,"velocity":0.36220472440944884,"duration":0.26041640624998763},{"name":"A2","midi":45,"time":93.6163593749997,"velocity":0.23622047244094488,"duration":0.10950843749999706},{"name":"A4","midi":69,"time":93.8500664062497,"velocity":0.4645669291338583,"duration":0.30048046874998136},{"name":"F#4","midi":66,"time":93.8634210937497,"velocity":0.33070866141732286,"duration":0.2350424999999916},{"name":"B4","midi":71,"time":94.08777984374969,"velocity":0.6141732283464567,"duration":0.5662387499999966},{"name":"G4","midi":67,"time":94.10647640624968,"velocity":0.4015748031496063,"duration":0.7505334374999961},{"name":"C#3","midi":49,"time":94.13585671874968,"velocity":0.18110236220472442,"duration":0.5275101562500026},{"name":"C#5","midi":73,"time":94.72079203124969,"velocity":0.5433070866141733,"duration":0.1188567187499956},{"name":"A4","midi":69,"time":94.73414671874968,"velocity":0.36220472440944884,"duration":0.23237156249999202},{"name":"G#3","midi":56,"time":94.87169999999968,"velocity":0.1889763779527559,"duration":0.07879265625000187},{"name":"C#5","midi":73,"time":94.93580249999968,"velocity":0.2125984251968504,"duration":0.5649032812499826},{"name":"E5","midi":76,"time":94.94247984374968,"velocity":0.3779527559055118,"duration":0.6223284374999736},{"name":"A3","midi":57,"time":94.95049265624968,"velocity":0.2440944881889764,"duration":0.11217937499999664},{"name":"D5","midi":74,"time":95.49002203124967,"velocity":0.47244094488188976,"duration":0.2831193749999841},{"name":"B4","midi":71,"time":95.50070578124966,"velocity":0.36220472440944884,"duration":0.25774546874998805},{"name":"A2","midi":45,"time":95.52474421874966,"velocity":0.1968503937007874,"duration":0.10016015624999852},{"name":"E3","midi":52,"time":95.91470109374966,"velocity":0.28346456692913385,"duration":0.5649032812499968},{"name":"D5","midi":74,"time":95.98548093749966,"velocity":0.36220472440944884,"duration":0.04674140624999268},{"name":"B4","midi":71,"time":96.00284203124966,"velocity":0.30708661417322836,"duration":0.5221682812499893},{"name":"E5","midi":76,"time":96.03222234374965,"velocity":0.41732283464566927,"duration":0.053418750000005844},{"name":"D5","midi":74,"time":96.10834406249965,"velocity":0.4645669291338583,"duration":0.39396328124999513},{"name":"C#5","midi":73,"time":96.47960437499965,"velocity":0.36220472440944884,"duration":0.6503732812499976},{"name":"A4","midi":69,"time":96.48361078124965,"velocity":0.23622047244094488,"duration":0.952189218749993},{"name":"G#3","midi":56,"time":96.75203999999965,"velocity":0.30708661417322836,"duration":0.06677343750000375},{"name":"A3","midi":57,"time":96.82549078124966,"velocity":0.2677165354330709,"duration":0.2831193749999983},{"name":"E5","midi":76,"time":97.33563984374965,"velocity":0.4645669291338583,"duration":0.28579031249999787},{"name":"C#5","midi":73,"time":97.35032999999964,"velocity":0.3937007874015748,"duration":0.3418800000000033},{"name":"A2","midi":45,"time":97.36234921874964,"velocity":0.16535433070866143,"duration":0.4594012499999991},{"name":"G4","midi":67,"time":97.61074640624965,"velocity":0.49606299212598426,"duration":0.28979671874998303},{"name":"B4","midi":71,"time":97.61074640624965,"velocity":0.6614173228346457,"duration":0.10817296874999727},{"name":"D5","midi":74,"time":97.84178249999964,"velocity":0.6299212598425197,"duration":0.41933718749997695},{"name":"B4","midi":71,"time":97.87116281249963,"velocity":0.47244094488188976,"duration":0.6022964062499767},{"name":"C#3","midi":49,"time":97.87917562499963,"velocity":0.2125984251968504,"duration":0.34455093749998866},{"name":"F#4","midi":66,"time":98.46945281249961,"velocity":0.3543307086614173,"duration":0.2243587500000075},{"name":"A4","midi":69,"time":98.46945281249961,"velocity":0.4251968503937008,"duration":0.12686953125000855},{"name":"G#3","midi":56,"time":98.55091640624961,"velocity":0.2677165354330709,"duration":0.07612171875000229},{"name":"C#5","midi":73,"time":98.67377953124962,"velocity":0.4251968503937008,"duration":0.6063028124999903},{"name":"A4","midi":69,"time":98.67912140624962,"velocity":0.3700787401574803,"duration":0.5355229687499872},{"name":"A3","midi":57,"time":98.68846968749962,"velocity":0.2677165354330709,"duration":0.09748921874999894},{"name":"B4","midi":71,"time":99.20796703124961,"velocity":0.47244094488188976,"duration":0.2844548437499981},{"name":"G4","midi":67,"time":99.21464437499961,"velocity":0.30708661417322836,"duration":0.5288456249999882},{"name":"A2","midi":45,"time":99.21865078124961,"velocity":0.1968503937007874,"duration":0.2216878125000079},{"name":"B4","midi":71,"time":99.66870374999961,"velocity":0.3858267716535433,"duration":0.5649032812499968},{"name":"F4","midi":65,"time":99.6860648437496,"velocity":0.2125984251968504,"duration":0.4620721874999987},{"name":"D3","midi":50,"time":99.7047614062496,"velocity":0.1732283464566929,"duration":0.7732364062500068},{"name":"F#4","midi":66,"time":100.1441306249996,"velocity":0.1889763779527559,"duration":1.0243045312499959},{"name":"A4","midi":69,"time":100.1548143749996,"velocity":0.2125984251968504,"duration":1.1284710937499938},{"name":"G#3","midi":56,"time":100.5193973437496,"velocity":0.12598425196850394,"duration":0.10016015624999852},{"name":"A3","midi":57,"time":100.6021964062496,"velocity":0.25196850393700787,"duration":0.37660218749999785},{"name":"D5","midi":74,"time":101.2071637499996,"velocity":0.4251968503937008,"duration":0.30181593749999536},{"name":"D4","midi":62,"time":101.2071637499996,"velocity":0.1732283464566929,"duration":0.3245189062499918},{"name":"F#3","midi":54,"time":101.2165120312496,"velocity":0.2283464566929134,"duration":0.24839718750000372},{"name":"D3","midi":50,"time":101.4862767187496,"velocity":0.3228346456692913,"duration":0.21634593749999453},{"name":"E4","midi":64,"time":101.74402218749958,"velocity":0.33070866141732286,"duration":0.5021362499999924},{"name":"D5","midi":74,"time":101.75069953124958,"velocity":0.4566929133858268,"duration":0.952189218749993},{"name":"A#2","midi":46,"time":101.77340249999958,"velocity":0.23622047244094488,"duration":0.8253196874999986},{"name":"F4","midi":65,"time":102.18339140624958,"velocity":0.3700787401574803,"duration":0.2670937499999866},{"name":"A4","midi":69,"time":102.51859406249957,"velocity":0.4015748031496063,"duration":0.15090796875000478},{"name":"F3","midi":53,"time":102.60673499999957,"velocity":0.4094488188976378,"duration":0.056089687500005425},{"name":"A#4","midi":70,"time":102.81640359374957,"velocity":0.5275590551181102,"duration":0.7358432812499984},{"name":"D4","midi":62,"time":102.87516421874957,"velocity":0.28346456692913385,"duration":0.21501046874999474},{"name":"D5","midi":74,"time":103.11287765624957,"velocity":0.6929133858267716,"duration":0.3579056250000008},{"name":"F3","midi":53,"time":103.29049499999957,"velocity":0.5354330708661418,"duration":0.08279906250000124},{"name":"E5","midi":76,"time":103.43205468749957,"velocity":0.6535433070866141,"duration":0.44738203124998677},{"name":"F2","midi":41,"time":103.71116765624957,"velocity":0.3937007874015748,"duration":1.0510139062499775},{"name":"G5","midi":79,"time":103.83803718749957,"velocity":0.6062992125984252,"duration":0.42067265624999095},{"name":"A4","midi":69,"time":103.85272734374956,"velocity":0.2283464566929134,"duration":0.5288456249999882},{"name":"F5","midi":77,"time":104.19594281249955,"velocity":0.6062992125984252,"duration":0.17361093750000123},{"name":"C5","midi":72,"time":104.44968187499956,"velocity":0.5118110236220472,"duration":0.05074781250000626},{"name":"C3","midi":48,"time":104.52580359374956,"velocity":0.1889763779527559,"duration":0.09882468749999873},{"name":"A4","midi":69,"time":104.56720312499955,"velocity":0.4251968503937008,"duration":0.05208328125000605},{"name":"A#4","midi":70,"time":104.64466031249955,"velocity":0.4409448818897638,"duration":0.10817296874999727},{"name":"A4","midi":69,"time":104.70609187499956,"velocity":0.3937007874015748,"duration":0.4166662499999916},{"name":"C3","midi":48,"time":104.74348499999955,"velocity":0.07874015748031496,"duration":0.19497843749999788},{"name":"G4","midi":67,"time":105.02927531249955,"velocity":0.44881889763779526,"duration":0.2644228125000012},{"name":"A3","midi":57,"time":105.17751234374956,"velocity":0.2677165354330709,"duration":0.09214734374999978},{"name":"F4","midi":65,"time":105.32574937499955,"velocity":0.5196850393700787,"duration":0.0894764062500002},{"name":"A#4","midi":70,"time":105.60486234374955,"velocity":0.48031496062992124,"duration":0.8907576562499884},{"name":"C#4","midi":61,"time":105.60486234374955,"velocity":0.5433070866141733,"duration":0.3538992187499872},{"name":"G2","midi":43,"time":105.63424265624954,"velocity":0.29133858267716534,"duration":0.7011210937499897},{"name":"D4","midi":62,"time":105.95876156249953,"velocity":0.49606299212598426,"duration":0.23370703125000603},{"name":"F#4","midi":66,"time":106.22051343749953,"velocity":0.5039370078740157,"duration":0.24439078125000435},{"name":"D3","midi":50,"time":106.32735093749953,"velocity":0.3464566929133858,"duration":0.0734507812500027},{"name":"A#3","midi":58,"time":106.44620765624954,"velocity":0.3779527559055118,"duration":0.32051249999999243},{"name":"G4","midi":67,"time":106.45288499999954,"velocity":0.5433070866141733,"duration":0.5208328125000037},{"name":"A#4","midi":70,"time":106.74401718749954,"velocity":0.6141732283464567,"duration":0.3098287499999941},{"name":"D3","midi":50,"time":106.91896359374954,"velocity":0.44881889763779526,"duration":0.07745718750000208},{"name":"C#5","midi":73,"time":107.02713656249954,"velocity":0.6141732283464567,"duration":0.3418799999999891},{"name":"D2","midi":38,"time":107.27553374999952,"velocity":0.33858267716535434,"duration":0.3418799999999891},{"name":"E5","midi":76,"time":107.35833281249953,"velocity":0.49606299212598426,"duration":0.3819440624999828},{"name":"F#4","midi":66,"time":107.37970031249952,"velocity":0.28346456692913385,"duration":0.5248392187499746},{"name":"D5","midi":74,"time":107.71490296874951,"velocity":0.5669291338582677,"duration":0.14957249999999078},{"name":"F4","midi":65,"time":107.9713129687495,"velocity":0.5669291338582677,"duration":0.2537390625000029},{"name":"G#2","midi":44,"time":108.0460992187495,"velocity":0.30708661417322836,"duration":0.14556609375000562},{"name":"F#4","midi":66,"time":108.2090264062495,"velocity":0.5118110236220472,"duration":0.40598249999999325},{"name":"A2","midi":45,"time":108.2197101562495,"velocity":0.29133858267716534,"duration":0.2203523437499939},{"name":"A4","midi":69,"time":108.4881393749995,"velocity":0.33070866141732286,"duration":0.18963656249999872},{"name":"A#3","midi":58,"time":108.56292562499951,"velocity":0.2440944881889764,"duration":0.21501046874999474},{"name":"G4","midi":67,"time":108.5936414062495,"velocity":0.4645669291338583,"duration":0.4006406249999941},{"name":"D4","midi":62,"time":108.6150089062495,"velocity":0.33858267716535434,"duration":0.3378735937500039},{"name":"A3","midi":57,"time":108.91949578124951,"velocity":0.28346456692913385,"duration":0.17895281249998618},{"name":"F#4","midi":66,"time":108.9475406249995,"velocity":0.4566929133858268,"duration":0.18028828124998597},{"name":"F#4","midi":66,"time":109.2814078124995,"velocity":0.4566929133858268,"duration":0.46474312499998405},{"name":"D#4","midi":63,"time":109.29609796874949,"velocity":0.47244094488188976,"duration":2.1380854687499777},{"name":"B2","midi":47,"time":109.30010437499949,"velocity":0.12598425196850394,"duration":2.2903289062499823},{"name":"C4","midi":60,"time":109.30010437499949,"velocity":0.4330708661417323,"duration":1.7694960937499786},{"name":"A3","midi":57,"time":109.31078812499949,"velocity":0.3228346456692913,"duration":1.6493039062499832},{"name":"G4","midi":67,"time":109.63797796874948,"velocity":0.5590551181102362,"duration":0.3352026562499901},{"name":"A4","midi":69,"time":109.91441999999948,"velocity":0.3700787401574803,"duration":0.3111642187499939},{"name":"G4","midi":67,"time":110.19753937499948,"velocity":0.33858267716535434,"duration":0.5021362499999924},{"name":"F#4","midi":66,"time":110.70368203124947,"velocity":0.33070866141732286,"duration":0.27110015625000017},{"name":"E3","midi":52,"time":111.25389515624947,"velocity":0.16535433070866143,"duration":2.301012656250009},{"name":"F#4","midi":66,"time":111.32734593749947,"velocity":0.31496062992125984,"duration":0.6316767187500005},{"name":"B3","midi":59,"time":111.33402328124947,"velocity":0.2125984251968504,"duration":2.4866428125000226},{"name":"A3","midi":57,"time":111.35672624999947,"velocity":0.12598425196850394,"duration":1.5972206250000198},{"name":"B4","midi":71,"time":111.86687531249947,"velocity":0.3543307086614173,"duration":0.4620721874999987},{"name":"F#4","midi":66,"time":112.29155437499948,"velocity":0.2440944881889764,"duration":0.8733965625000053},{"name":"E4","midi":64,"time":113.02072031249949,"velocity":0.1889763779527559,"duration":0.7505334374999961},{"name":"G3","midi":55,"time":113.05677796874949,"velocity":0.10236220472440945,"duration":0.622328437500002},{"name":"A2","midi":45,"time":114.7875454687495,"velocity":0.25196850393700787,"duration":4.412388749999991},{"name":"C#4","midi":61,"time":115.5207178124995,"velocity":0.2992125984251969,"duration":4.898499374999986},{"name":"G4","midi":67,"time":115.5207178124995,"velocity":0.44881889763779526,"duration":0.6770826562500076},{"name":"A#3","midi":58,"time":115.5354079687495,"velocity":0.28346456692913385,"duration":0.5101490625000054},{"name":"F#4","midi":66,"time":116.09229843749951,"velocity":0.30708661417322836,"duration":0.30582234374999473},{"name":"A3","midi":57,"time":116.1163368749995,"velocity":0.2440944881889764,"duration":0.24839718750000372},{"name":"F#4","midi":66,"time":116.6852465624995,"velocity":0.2125984251968504,"duration":1.658652187499996},{"name":"A3","midi":57,"time":116.7186332812495,"velocity":0.13385826771653545,"duration":3.603094687500004},{"name":"E4","midi":64,"time":118.1569331249995,"velocity":0.1968503937007874,"duration":2.2302328124999917},{"name":"G3","midi":55,"time":118.18631343749949,"velocity":0.13385826771653545,"duration":0.7892620312500043},{"name":"D2","midi":38,"time":120.2709801562495,"velocity":0.15748031496062992,"duration":1.3234495312499774},{"name":"A3","midi":57,"time":121.23118218749948,"velocity":0.11811023622047244,"duration":0.20299124999999663},{"name":"A4","midi":69,"time":121.46088281249948,"velocity":0.09448818897637795,"duration":1.290062812500011},{"name":"F#4","midi":66,"time":121.46889562499948,"velocity":0.10236220472440945,"duration":1.2820500000000123},{"name":"D4","midi":62,"time":121.48091484374947,"velocity":0.14173228346456693,"duration":1.1271356250000082},{"name":"A1","midi":33,"time":122.00441859374948,"velocity":0.16535433070866143,"duration":0.18563015624999935},{"name":"D2","midi":38,"time":122.60003765624948,"velocity":0.14173228346456693,"duration":1.244656875000004},{"name":"A3","midi":57,"time":123.4253573437495,"velocity":0.14173228346456693,"duration":0.12954046874999392},{"name":"A4","midi":69,"time":123.6964574999995,"velocity":0.11811023622047244,"duration":0.7772428124999777},{"name":"F#4","midi":66,"time":123.74453437499949,"velocity":0.015748031496062992,"duration":0.7892620312499758},{"name":"D4","midi":62,"time":123.74453437499949,"velocity":0.03937007874015748,"duration":0.7518689062499817},{"name":"A1","midi":33,"time":124.32279234374948,"velocity":0.2047244094488189,"duration":0.15624984374998974},{"name":"F#4","midi":66,"time":125.44191515624946,"velocity":0.2047244094488189,"duration":1.2085992187499528},{"name":"F#3","midi":54,"time":125.46862453124946,"velocity":0.1732283464566929,"duration":1.0376592187499796},{"name":"D4","midi":62,"time":125.48331468749946,"velocity":0.14173228346456693,"duration":1.1271356249999656},{"name":"A3","midi":57,"time":125.48331468749946,"velocity":0.11023622047244094,"duration":1.0750523437499737},{"name":"A2","midi":45,"time":125.48732109374946,"velocity":0.07874015748031496,"duration":1.1271356249999656},{"name":"D2","midi":38,"time":125.48732109374946,"velocity":0.10236220472440945,"duration":1.0510139062499775},{"name":"D3","midi":50,"time":125.50201124999946,"velocity":0.08661417322834646,"duration":1.0777232812499733},{"name":"D4","midi":62,"time":127.46915671874942,"velocity":0.031496062992125984,"duration":0.0894764062500002},{"name":"A4","midi":69,"time":127.64543859374942,"velocity":0.015748031496062992,"duration":0.1615917187500031},{"name":"D6","midi":86,"time":127.97262843749942,"velocity":0.15748031496062992,"duration":0.823984218750013},{"name":"A5","midi":81,"time":127.98197671874942,"velocity":0.15748031496062992,"duration":0.6343476562500143},{"name":"D5","midi":74,"time":127.99132499999942,"velocity":0.08661417322834646,"duration":0.3378735937500039},{"name":"F#5","midi":78,"time":127.99666687499942,"velocity":0.1732283464566929,"duration":0.1762818750000008}],"controlChanges":{"64":[{"number":64,"time":0,"value":1},{"number":64,"time":0,"value":0},{"number":64,"time":0.029380312499999995,"value":1},{"number":64,"time":1.3421460937499998,"value":0},{"number":64,"time":1.5985560937499999,"value":1},{"number":64,"time":1.7735024999999998,"value":0},{"number":64,"time":2.12473078125,"value":1},{"number":64,"time":2.9727534374999998,"value":0},{"number":64,"time":3.4214709375,"value":1},{"number":64,"time":3.8541628125,"value":0},{"number":64,"time":4.189365468749999,"value":1},{"number":64,"time":4.767623437499999,"value":0},{"number":64,"time":5.231031093749999,"value":1},{"number":64,"time":5.439364218749999,"value":0},{"number":64,"time":5.614310624999999,"value":1},{"number":64,"time":6.207258749999999,"value":0},{"number":64,"time":6.350153906249999,"value":1},{"number":64,"time":6.6092348437499995,"value":0},{"number":64,"time":6.736104374999999,"value":1},{"number":64,"time":7.6629196875,"value":0},{"number":64,"time":7.8565626562499995,"value":1},{"number":64,"time":8.526967968749997,"value":0},{"number":64,"time":8.735301093749996,"value":1},{"number":64,"time":9.200044218749996,"value":0},{"number":64,"time":9.344274843749997,"value":1},{"number":64,"time":9.77563125,"value":0},{"number":64,"time":10.16024625,"value":1},{"number":64,"time":10.591602656249998,"value":0},{"number":64,"time":10.785245624999998,"value":1},{"number":64,"time":11.569165781249998,"value":0},{"number":64,"time":11.793524531249998,"value":1},{"number":64,"time":12.33839578125,"value":0},{"number":64,"time":12.594805781249999,"value":1},{"number":64,"time":12.9300084375,"value":0},{"number":64,"time":13.071568124999999,"value":1},{"number":64,"time":13.362700312499998,"value":0},{"number":64,"time":13.649826093749997,"value":1},{"number":64,"time":14.127923906249997,"value":0},{"number":64,"time":14.385669374999997,"value":1},{"number":64,"time":15.185615156249998,"value":0},{"number":64,"time":15.442025156249999,"value":1},{"number":64,"time":15.970870781250001,"value":0},{"number":64,"time":16.16317828125,"value":1},{"number":64,"time":17.09266453125,"value":0},{"number":64,"time":17.34640359375,"value":1},{"number":64,"time":17.5881234375,"value":0},{"number":64,"time":17.779095468749997,"value":1},{"number":64,"time":17.875249218749996,"value":0},{"number":64,"time":18.052866562499997,"value":1},{"number":64,"time":19.909168124999994,"value":0},{"number":64,"time":20.500780781249993,"value":1},{"number":64,"time":20.803932187499992,"value":0},{"number":64,"time":21.077703281249992,"value":1},{"number":64,"time":22.40515921874999,"value":0},{"number":64,"time":22.67759484374999,"value":1},{"number":64,"time":23.075564531249988,"value":0},{"number":64,"time":23.33330999999999,"value":1},{"number":64,"time":24.16530703124999,"value":0},{"number":64,"time":24.45510374999999,"value":1},{"number":64,"time":25.029355312499995,"value":0},{"number":64,"time":25.189611562499994,"value":1},{"number":64,"time":25.412634843749995,"value":0},{"number":64,"time":25.590252187499996,"value":1},{"number":64,"time":26.05499531249999,"value":0},{"number":64,"time":26.24596734374999,"value":1},{"number":64,"time":26.91904359374999,"value":0},{"number":64,"time":27.12604124999999,"value":1},{"number":64,"time":27.366425624999987,"value":0},{"number":64,"time":27.477269531249988,"value":1},{"number":64,"time":27.736350468749983,"value":0},{"number":64,"time":28.119629999999983,"value":1},{"number":64,"time":29.511188437499978,"value":0},{"number":64,"time":29.70216046874998,"value":1},{"number":64,"time":30.519467343749973,"value":0},{"number":64,"time":30.791902968749973,"value":1},{"number":64,"time":30.966849374999974,"value":0},{"number":64,"time":31.175182499999973,"value":1},{"number":64,"time":31.639925624999975,"value":0},{"number":64,"time":31.862948906249976,"value":1},{"number":64,"time":32.42518124999997,"value":0},{"number":64,"time":32.93533031249997,"value":1},{"number":64,"time":33.25717828124997,"value":0},{"number":64,"time":33.44815031249997,"value":1},{"number":64,"time":34.12122656249996,"value":0},{"number":64,"time":34.248096093749965,"value":1},{"number":64,"time":35.096118749999974,"value":0},{"number":64,"time":35.33516765624997,"value":1},{"number":64,"time":35.65701562499997,"value":0},{"number":64,"time":35.88137437499997,"value":1},{"number":64,"time":38.21710921874994,"value":0},{"number":64,"time":38.48954484374994,"value":1},{"number":64,"time":38.954287968749945,"value":0},{"number":64,"time":39.21069796874994,"value":1},{"number":64,"time":39.658079999999934,"value":0},{"number":64,"time":39.78628499999993,"value":1},{"number":64,"time":40.05872062499993,"value":0},{"number":64,"time":40.61961749999993,"value":1},{"number":64,"time":40.92276890624993,"value":0},{"number":64,"time":41.09771531249993,"value":1},{"number":64,"time":41.931047812499926,"value":0},{"number":64,"time":42.10599421874993,"value":1},{"number":64,"time":42.700277812499905,"value":0},{"number":64,"time":42.923301093749906,"value":1},{"number":64,"time":43.85278734374989,"value":0},{"number":64,"time":44.06112046874989,"value":1},{"number":64,"time":44.667423281249896,"value":0},{"number":64,"time":44.84370515624989,"value":1},{"number":64,"time":45.677037656249894,"value":0},{"number":64,"time":45.9321121874999,"value":1},{"number":64,"time":46.54242140624989,"value":0},{"number":64,"time":46.765444687499894,"value":1},{"number":64,"time":47.94866999999989,"value":0},{"number":64,"time":48.0915651562499,"value":1},{"number":64,"time":49.18130765624991,"value":0},{"number":64,"time":49.38964078124991,"value":1},{"number":64,"time":50.798560312499895,"value":0},{"number":64,"time":51.0549703124999,"value":1},{"number":64,"time":51.5664548437499,"value":0},{"number":64,"time":51.8375549999999,"value":1},{"number":64,"time":52.4625543749999,"value":0},{"number":64,"time":52.67088749999989,"value":1},{"number":64,"time":53.198397656249895,"value":0},{"number":64,"time":53.4067307812499,"value":1},{"number":64,"time":54.06244593749989,"value":0},{"number":64,"time":54.22270218749989,"value":1},{"number":64,"time":54.35090718749989,"value":0},{"number":64,"time":54.479112187499894,"value":1},{"number":64,"time":54.704806406249894,"value":0},{"number":64,"time":54.961216406249896,"value":1},{"number":64,"time":55.7277754687499,"value":0},{"number":64,"time":55.9521342187499,"value":1},{"number":64,"time":56.76944109374991,"value":0},{"number":64,"time":56.94438749999991,"value":1},{"number":64,"time":57.76035890624992,"value":0},{"number":64,"time":57.95266640624992,"value":1},{"number":64,"time":58.54427906249991,"value":0},{"number":64,"time":58.84876593749991,"value":1},{"number":64,"time":59.616660468749906,"value":0},{"number":64,"time":59.80896796874991,"value":1},{"number":64,"time":60.96548390624991,"value":0},{"number":64,"time":61.15244953124991,"value":1},{"number":64,"time":61.60250249999991,"value":0},{"number":64,"time":61.81083562499992,"value":1},{"number":64,"time":62.58006562499991,"value":0},{"number":64,"time":62.88188156249991,"value":1},{"number":64,"time":63.44144296874991,"value":0},{"number":64,"time":63.68182734374991,"value":1},{"number":64,"time":64.73951859374989,"value":0},{"number":64,"time":65.0413345312499,"value":1},{"number":64,"time":65.73177187499992,"value":0},{"number":64,"time":65.93743406249992,"value":1},{"number":64,"time":66.91499718749988,"value":0},{"number":64,"time":67.09261453124988,"value":1},{"number":64,"time":67.71761390624988,"value":0},{"number":64,"time":67.87519921874988,"value":1},{"number":64,"time":68.6270681249999,"value":0},{"number":64,"time":68.85276234374989,"value":1},{"number":64,"time":69.42968484374987,"value":0},{"number":64,"time":69.66873374999987,"value":1},{"number":64,"time":69.82898999999988,"value":0},{"number":64,"time":70.14816703124988,"value":1},{"number":64,"time":70.50073078124989,"value":0},{"number":64,"time":70.67701265624989,"value":1},{"number":64,"time":71.25259968749988,"value":0},{"number":64,"time":71.42888156249988,"value":1},{"number":64,"time":72.34234218749988,"value":0},{"number":64,"time":72.53331421874988,"value":1},{"number":64,"time":73.15697812499987,"value":0},{"number":64,"time":73.36531124999986,"value":1},{"number":64,"time":74.26274624999985,"value":0},{"number":64,"time":74.70879281249984,"value":1},{"number":64,"time":75.36717890624983,"value":0},{"number":64,"time":75.60622781249984,"value":1},{"number":64,"time":76.29399421874983,"value":0},{"number":64,"time":76.51968843749982,"value":1},{"number":64,"time":77.1914292187498,"value":0},{"number":64,"time":77.6548368749998,"value":1},{"number":64,"time":78.4227314062498,"value":0},{"number":64,"time":78.9021646874998,"value":1},{"number":64,"time":80.43928921874979,"value":0},{"number":64,"time":80.6142356249998,"value":1},{"number":64,"time":81.1751324999998,"value":0},{"number":64,"time":81.3834656249998,"value":1},{"number":64,"time":81.4796193749998,"value":0},{"number":64,"time":81.6572367187498,"value":1},{"number":64,"time":81.8628989062498,"value":0},{"number":64,"time":82.07123203124979,"value":1},{"number":64,"time":82.84046203124979,"value":0},{"number":64,"time":83.09553656249979,"value":1},{"number":64,"time":83.94355921874978,"value":0},{"number":64,"time":84.23335593749978,"value":1},{"number":64,"time":85.41658124999977,"value":0},{"number":64,"time":85.67299124999977,"value":1},{"number":64,"time":86.71332140624976,"value":0},{"number":64,"time":86.98575703124976,"value":1},{"number":64,"time":87.84980531249975,"value":0},{"number":64,"time":88.07149312499975,"value":1},{"number":64,"time":90.05867062499972,"value":0},{"number":64,"time":90.42725999999972,"value":1},{"number":64,"time":91.08297515624972,"value":0},{"number":64,"time":91.32335953124971,"value":1},{"number":64,"time":92.5065848437497,"value":0},{"number":64,"time":92.7309435937497,"value":1},{"number":64,"time":93.1796610937497,"value":0},{"number":64,"time":93.3225562499997,"value":1},{"number":64,"time":94.23601687499968,"value":0},{"number":64,"time":94.39627312499968,"value":1},{"number":64,"time":94.97052468749968,"value":0},{"number":64,"time":95.19621890624967,"value":1},{"number":64,"time":96.17378203124966,"value":0},{"number":64,"time":96.39546984374965,"value":1},{"number":64,"time":96.79878140624966,"value":0},{"number":64,"time":97.02046921874965,"value":1},{"number":64,"time":97.93392984374962,"value":0},{"number":64,"time":98.14226296874962,"value":1},{"number":64,"time":98.70182437499962,"value":0},{"number":64,"time":98.91015749999961,"value":1},{"number":64,"time":99.32548828124962,"value":0},{"number":64,"time":99.46971890624961,"value":1},{"number":64,"time":99.7902314062496,"value":0},{"number":64,"time":100.0466414062496,"value":1},{"number":64,"time":100.1735109374996,"value":0},{"number":64,"time":100.38184406249961,"value":1},{"number":64,"time":100.57281609374961,"value":0},{"number":64,"time":100.8292260937496,"value":1},{"number":64,"time":102.22345546874958,"value":0},{"number":64,"time":102.36635062499957,"value":1},{"number":64,"time":103.95021656249956,"value":0},{"number":64,"time":104.15854968749956,"value":1},{"number":64,"time":105.71303531249954,"value":0},{"number":64,"time":105.93605859374954,"value":1},{"number":64,"time":107.40908062499952,"value":0},{"number":64,"time":107.63210390624951,"value":1},{"number":64,"time":108.2571032812495,"value":0},{"number":64,"time":108.4173595312495,"value":1},{"number":64,"time":109.62595874999948,"value":0},{"number":64,"time":109.80891796874948,"value":1},{"number":64,"time":109.93845843749948,"value":0},{"number":64,"time":110.12943046874948,"value":1},{"number":64,"time":110.25629999999947,"value":0},{"number":64,"time":110.49801984374947,"value":1},{"number":64,"time":110.85058359374948,"value":0},{"number":64,"time":110.96009203124947,"value":1},{"number":64,"time":111.88957828124947,"value":0},{"number":64,"time":112.09791140624948,"value":1},{"number":64,"time":112.67483390624948,"value":0},{"number":64,"time":112.81639359374948,"value":1},{"number":64,"time":113.26644656249948,"value":0},{"number":64,"time":113.63370046874948,"value":1},{"number":64,"time":114.0810824999995,"value":0},{"number":64,"time":115.0586456249995,"value":1},{"number":64,"time":116.17910390624951,"value":0},{"number":64,"time":116.33936015624951,"value":1},{"number":64,"time":116.74000078124949,"value":0},{"number":64,"time":117.28353656249949,"value":1},{"number":64,"time":118.29181546874949,"value":0},{"number":64,"time":118.91681484374949,"value":1},{"number":64,"time":120.3564501562495,"value":0},{"number":64,"time":120.85190906249949,"value":1},{"number":64,"time":122.00441859374948,"value":0},{"number":64,"time":122.11659796874947,"value":1},{"number":64,"time":122.51723859374948,"value":0},{"number":64,"time":122.8070353124995,"value":1},{"number":64,"time":123.73385062499949,"value":0},{"number":64,"time":123.95687390624948,"value":1},{"number":64,"time":124.21461937499949,"value":0},{"number":64,"time":124.45500374999948,"value":1},{"number":64,"time":125.98945734374945,"value":0},{"number":64,"time":126.39009796874944,"value":1},{"number":64,"time":132.00040218749945,"value":0}]},"id":0,"name":"","channelNumber":0,"isPercussion":false}]}