{"header":{"PPQ":480,"bpm":120,"timeSignature":[4,4],"name":"Standard"},"startTime":0,"duration":144,"tracks":[{"startTime":0,"duration":0,"length":0,"notes":[],"controlChanges":{},"id":0},{"startTime":0,"duration":143.6,"length":175,"notes":[{"name":"D4","midi":62,"time":0,"velocity":0.6299212598425197,"duration":1.6},{"name":"D#4","midi":63,"time":2,"velocity":0.6299212598425197,"duration":1.6},{"name":"G4","midi":67,"time":4,"velocity":0.6299212598425197,"duration":1.5999999999999996},{"name":"D#4","midi":63,"time":6,"velocity":0.7480314960629921,"duration":1.5},{"name":"D4","midi":62,"time":7.5,"velocity":0.6299212598425197,"duration":0.40000000000000036},{"name":"B4","midi":71,"time":8,"velocity":1,"duration":1.5},{"name":"D4","midi":62,"time":9.5,"velocity":1,"duration":0.5},{"name":"D#4","midi":63,"time":10,"velocity":1,"duration":0.5},{"name":"B4","midi":71,"time":10.5,"velocity":1,"duration":0.5},{"name":"A4","midi":69,"time":11,"velocity":1,"duration":0.75},{"name":"G4","midi":67,"time":11.75,"velocity":1,"duration":0.25},{"name":"B4","midi":71,"time":12,"velocity":1,"duration":0.5},{"name":"E4","midi":64,"time":12.5,"velocity":1,"duration":1.5},{"name":"F4","midi":65,"time":14.5,"velocity":0.6299212598425197,"duration":0.40000000000000036},{"name":"F4","midi":65,"time":15.25,"velocity":0.6299212598425197,"duration":0.1999999999999993},{"name":"G4","midi":67,"time":15.75,"velocity":1,"duration":0.25},{"name":"C5","midi":72,"time":16,"velocity":1,"duration":0.75},{"name":"C5","midi":72,"time":16.75,"velocity":1,"duration":0.25},{"name":"D5","midi":74,"time":17,"velocity":1,"duration":0.5},{"name":"C5","midi":72,"time":17.5,"velocity":1,"duration":0.5},{"name":"B4","midi":71,"time":18,"velocity":1,"duration":0.5},{"name":"G4","midi":67,"time":18.5,"velocity":1,"duration":0.75},{"name":"A4","midi":69,"time":19.5,"velocity":1,"duration":0.25},{"name":"B4","midi":71,"time":19.75,"velocity":1,"duration":0.25},{"name":"A4","midi":69,"time":20,"velocity":1,"duration":2},{"name":"A#4","midi":70,"time":22,"velocity":1,"duration":1.5},{"name":"B4","midi":71,"time":23.5,"velocity":1,"duration":0.5},{"name":"D5","midi":74,"time":24,"velocity":1,"duration":1.5},{"name":"D5","midi":74,"time":25.5,"velocity":1,"duration":0.5},{"name":"D#5","midi":75,"time":26,"velocity":1,"duration":1.5},{"name":"B4","midi":71,"time":27.5,"velocity":1,"duration":0.5},{"name":"A4","midi":69,"time":28,"velocity":1,"duration":0.25},{"name":"G4","midi":67,"time":28.25,"velocity":1,"duration":0.5},{"name":"G4","midi":67,"time":28.75,"velocity":1,"duration":0.25},{"name":"A4","midi":69,"time":29,"velocity":1,"duration":0.5},{"name":"B4","midi":71,"time":29.5,"velocity":1,"duration":0.5},{"name":"A4","midi":69,"time":30,"velocity":1,"duration":0.25},{"name":"G4","midi":67,"time":30.25,"velocity":1,"duration":1},{"name":"A4","midi":69,"time":31.5,"velocity":1,"duration":0.5},{"name":"B4","midi":71,"time":32,"velocity":1,"duration":1.5},{"name":"B4","midi":71,"time":33.5,"velocity":1,"duration":0.5},{"name":"A4","midi":69,"time":34,"velocity":1,"duration":1},{"name":"B4","midi":71,"time":35,"velocity":1,"duration":0.375},{"name":"B4","midi":71,"time":35.375,"velocity":1,"duration":0.375},{"name":"B4","midi":71,"time":35.75,"velocity":1,"duration":0.25},{"name":"G4","midi":67,"time":36,"velocity":1,"duration":2},{"name":"A4","midi":69,"time":40.5,"velocity":1,"duration":0.5},{"name":"A4","midi":69,"time":41,"velocity":1,"duration":0.5},{"name":"A4","midi":69,"time":41.5,"velocity":1,"duration":0.5},{"name":"A4","midi":69,"time":42,"velocity":1,"duration":0.75},{"name":"A4","midi":69,"time":42.75,"velocity":1,"duration":0.25},{"name":"E5","midi":76,"time":43,"velocity":1,"duration":0.375},{"name":"D5","midi":74,"time":43.375,"velocity":1,"duration":0.375},{"name":"E5","midi":76,"time":43.75,"velocity":1,"duration":0.25},{"name":"D5","midi":74,"time":44,"velocity":1,"duration":1.6000000000000014},{"name":"B4","midi":71,"time":46.5,"velocity":1,"duration":0.5},{"name":"B4","midi":71,"time":47.25,"velocity":1,"duration":0.25},{"name":"A4","midi":69,"time":48.5,"velocity":1,"duration":0.3999999999999986},{"name":"A4","midi":69,"time":49,"velocity":1,"duration":0.3999999999999986},{"name":"A4","midi":69,"time":49.5,"velocity":1,"duration":0.3999999999999986},{"name":"B4","midi":71,"time":50,"velocity":1,"duration":0.20000000000000284},{"name":"B4","midi":71,"time":50.25,"velocity":1,"duration":0.3999999999999986},{"name":"A4","midi":69,"time":50.75,"velocity":1,"duration":1},{"name":"A4","midi":69,"time":51.75,"velocity":1,"duration":0.25},{"name":"A4","midi":69,"time":52,"velocity":1,"duration":0.5},{"name":"A4","midi":69,"time":52.5,"velocity":1,"duration":0.5},{"name":"E5","midi":76,"time":53,"velocity":1,"duration":0.25},{"name":"E5","midi":76,"time":53.25,"velocity":1,"duration":0.5},{"name":"D5","midi":74,"time":53.75,"velocity":1,"duration":1.25},{"name":"A#4","midi":70,"time":55,"velocity":1,"duration":1},{"name":"B4","midi":71,"time":56,"velocity":1,"duration":1},{"name":"D4","midi":62,"time":57,"velocity":1,"duration":0.5},{"name":"D4","midi":62,"time":57.5,"velocity":1,"duration":0.5},{"name":"D#4","midi":63,"time":58,"velocity":1,"duration":0.5},{"name":"B4","midi":71,"time":58.5,"velocity":1,"duration":0.5},{"name":"A4","midi":69,"time":59,"velocity":1,"duration":0.5},{"name":"G4","midi":67,"time":59.5,"velocity":1,"duration":0.5},{"name":"B4","midi":71,"time":60,"velocity":1,"duration":0.25},{"name":"E4","midi":64,"time":60.25,"velocity":1,"duration":1.75},{"name":"F4","midi":65,"time":62.5,"velocity":1,"duration":0.3999999999999986},{"name":"F4","midi":65,"time":63.25,"velocity":1,"duration":0.20000000000000284},{"name":"C5","midi":72,"time":64,"velocity":1,"duration":1.5999999999999943},{"name":"B4","midi":71,"time":66.375,"velocity":1,"duration":0.375},{"name":"G4","midi":67,"time":66.75,"velocity":1,"duration":0.25},{"name":"G4","midi":67,"time":67,"velocity":1,"duration":0.375},{"name":"A4","midi":69,"time":67.375,"velocity":1,"duration":0.375},{"name":"B4","midi":71,"time":67.75,"velocity":1,"duration":0.25},{"name":"A4","midi":69,"time":68,"velocity":1,"duration":2},{"name":"A#4","midi":70,"time":70,"velocity":1,"duration":1.5},{"name":"B4","midi":71,"time":71.5,"velocity":1,"duration":0.5},{"name":"D5","midi":74,"time":72,"velocity":1,"duration":1.5},{"name":"D5","midi":74,"time":73.5,"velocity":1,"duration":0.5},{"name":"D#5","midi":75,"time":74,"velocity":1,"duration":1.5},{"name":"B4","midi":71,"time":75.5,"velocity":1,"duration":0.5},{"name":"A4","midi":69,"time":76,"velocity":1,"duration":0.25},{"name":"G4","midi":67,"time":76.25,"velocity":1,"duration":0.75},{"name":"A4","midi":69,"time":77,"velocity":1,"duration":0.5},{"name":"B4","midi":71,"time":77.5,"velocity":1,"duration":0.5},{"name":"A4","midi":69,"time":78,"velocity":1,"duration":0.25},{"name":"G4","midi":67,"time":78.25,"velocity":1,"duration":1},{"name":"A4","midi":69,"time":79.5,"velocity":1,"duration":0.5},{"name":"B4","midi":71,"time":80,"velocity":1,"duration":1.5},{"name":"B4","midi":71,"time":81.5,"velocity":1,"duration":0.5},{"name":"A4","midi":69,"time":82,"velocity":1,"duration":1},{"name":"B4","midi":71,"time":83,"velocity":1,"duration":0.375},{"name":"B4","midi":71,"time":83.375,"velocity":1,"duration":0.375},{"name":"B4","midi":71,"time":83.75,"velocity":1,"duration":0.25},{"name":"G4","midi":67,"time":84,"velocity":1,"duration":2},{"name":"G4","midi":67,"time":86.5,"velocity":1,"duration":0.4000000000000057},{"name":"F#4","midi":66,"time":87.25,"velocity":1,"duration":0.25},{"name":"D4","midi":62,"time":88,"velocity":1,"duration":2},{"name":"D#4","midi":63,"time":90,"velocity":1,"duration":2},{"name":"G4","midi":67,"time":92,"velocity":1,"duration":2},{"name":"D#4","midi":63,"time":94,"velocity":1,"duration":2},{"name":"E5","midi":76,"time":96,"velocity":0.9448818897637795,"duration":0.5},{"name":"E5","midi":76,"time":96.5,"velocity":0.9448818897637795,"duration":0.5},{"name":"E5","midi":76,"time":97,"velocity":0.9448818897637795,"duration":0.25},{"name":"D5","midi":74,"time":97.25,"velocity":0.9448818897637795,"duration":0.5},{"name":"F5","midi":77,"time":97.75,"velocity":0.9448818897637795,"duration":0.125},{"name":"E5","midi":76,"time":97.875,"velocity":0.9448818897637795,"duration":0.125},{"name":"D5","midi":74,"time":98,"velocity":0.9448818897637795,"duration":1},{"name":"B4","midi":71,"time":99,"velocity":0.9448818897637795,"duration":0.25},{"name":"B4","midi":71,"time":99.25,"velocity":0.9448818897637795,"duration":0.5},{"name":"B4","midi":71,"time":99.75,"velocity":0.9448818897637795,"duration":0.25},{"name":"G4","midi":67,"time":100,"velocity":0.9448818897637795,"duration":2},{"name":"D#4","midi":63,"time":102,"velocity":0.9448818897637795,"duration":0.75},{"name":"D#4","midi":63,"time":102.75,"velocity":0.9448818897637795,"duration":0.25},{"name":"D4","midi":62,"time":103,"velocity":0.9448818897637795,"duration":1},{"name":"B4","midi":71,"time":104,"velocity":1,"duration":0.7999999999999972},{"name":"D4","midi":62,"time":105,"velocity":1,"duration":0.4000000000000057},{"name":"D4","midi":62,"time":105.5,"velocity":1,"duration":0.4000000000000057},{"name":"D#4","midi":63,"time":106,"velocity":1,"duration":0.5},{"name":"B4","midi":71,"time":106.5,"velocity":1,"duration":0.5},{"name":"A4","midi":69,"time":107,"velocity":1,"duration":0.5},{"name":"G4","midi":67,"time":107.5,"velocity":1,"duration":0.5},{"name":"B4","midi":71,"time":108,"velocity":1,"duration":0.25},{"name":"E4","midi":64,"time":108.25,"velocity":1,"duration":1.75},{"name":"F4","midi":65,"time":110.5,"velocity":0.6299212598425197,"duration":0.4000000000000057},{"name":"F4","midi":65,"time":111.25,"velocity":0.6299212598425197,"duration":0.20000000000000284},{"name":"C5","midi":72,"time":112,"velocity":0.6299212598425197,"duration":1.5999999999999943},{"name":"B4","midi":71,"time":114.375,"velocity":1,"duration":0.375},{"name":"G4","midi":67,"time":114.75,"velocity":1,"duration":0.25},{"name":"G4","midi":67,"time":115,"velocity":1,"duration":0.375},{"name":"A4","midi":69,"time":115.375,"velocity":1,"duration":0.375},{"name":"B4","midi":71,"time":115.75,"velocity":1,"duration":0.25},{"name":"A4","midi":69,"time":116,"velocity":1,"duration":2},{"name":"A#4","midi":70,"time":118,"velocity":1,"duration":1.5},{"name":"B4","midi":71,"time":119.5,"velocity":1,"duration":0.5},{"name":"D5","midi":74,"time":120,"velocity":1,"duration":1.5},{"name":"D5","midi":74,"time":121.5,"velocity":1,"duration":0.5},{"name":"D#5","midi":75,"time":122,"velocity":1,"duration":1.5},{"name":"B4","midi":71,"time":123.5,"velocity":1,"duration":0.5},{"name":"A4","midi":69,"time":124,"velocity":1,"duration":0.25},{"name":"G4","midi":67,"time":124.25,"velocity":1,"duration":0.75},{"name":"A4","midi":69,"time":125,"velocity":1,"duration":0.5},{"name":"B4","midi":71,"time":125.5,"velocity":1,"duration":0.5},{"name":"A4","midi":69,"time":126,"velocity":1,"duration":0.25},{"name":"G4","midi":67,"time":126.25,"velocity":1,"duration":1},{"name":"A4","midi":69,"time":127.5,"velocity":1,"duration":0.5},{"name":"B4","midi":71,"time":128,"velocity":1,"duration":1.5},{"name":"B4","midi":71,"time":129.5,"velocity":1,"duration":0.5},{"name":"A4","midi":69,"time":130,"velocity":1,"duration":1},{"name":"B4","midi":71,"time":131,"velocity":1,"duration":0.375},{"name":"B4","midi":71,"time":131.375,"velocity":1,"duration":0.375},{"name":"B4","midi":71,"time":131.75,"velocity":1,"duration":0.25},{"name":"G4","midi":67,"time":132,"velocity":1,"duration":2},{"name":"G#4","midi":68,"time":134,"velocity":1,"duration":1.5},{"name":"B4","midi":71,"time":135.5,"velocity":1,"duration":0.5},{"name":"A4","midi":69,"time":136,"velocity":1,"duration":1.5},{"name":"A4","midi":69,"time":137.5,"velocity":1,"duration":0.5},{"name":"B4","midi":71,"time":138,"velocity":1,"duration":1},{"name":"B4","midi":71,"time":139,"velocity":1,"duration":0.375},{"name":"B4","midi":71,"time":139.375,"velocity":1,"duration":0.375},{"name":"B4","midi":71,"time":139.75,"velocity":1,"duration":0.25},{"name":"G4","midi":67,"time":140,"velocity":1,"duration":3.5999999999999943}],"controlChanges":{"7":[{"number":7,"time":0,"value":0.984251968503937}],"10":[{"number":10,"time":0,"value":0.5039370078740157}],"91":[{"number":91,"time":0,"value":0.7007874015748031}],"93":[{"number":93,"time":0,"value":0.6220472440944882}]},"id":1,"name":"1st Melody Line - Organ","instrumentNumber":49,"instrument":"string ensemble 2","instrumentFamily":"ensemble","channelNumber":1,"isPercussion":false},{"startTime":8,"duration":143.6,"length":152,"notes":[{"name":"B4","midi":71,"time":8,"velocity":1,"duration":1.5},{"name":"D4","midi":62,"time":9.5,"velocity":1,"duration":0.5},{"name":"D#4","midi":63,"time":10,"velocity":1,"duration":0.5},{"name":"B4","midi":71,"time":10.5,"velocity":1,"duration":0.5},{"name":"A4","midi":69,"time":11,"velocity":1,"duration":0.75},{"name":"G4","midi":67,"time":11.75,"velocity":1,"duration":0.25},{"name":"B4","midi":71,"time":12,"velocity":1,"duration":0.5},{"name":"E4","midi":64,"time":12.5,"velocity":1,"duration":1.5},{"name":"F4","midi":65,"time":14.5,"velocity":0.6299212598425197,"duration":0.40000000000000036},{"name":"F4","midi":65,"time":15.25,"velocity":0.6299212598425197,"duration":0.1999999999999993},{"name":"G4","midi":67,"time":15.75,"velocity":1,"duration":0.25},{"name":"C5","midi":72,"time":16,"velocity":1,"duration":0.75},{"name":"C5","midi":72,"time":16.75,"velocity":1,"duration":0.25},{"name":"D5","midi":74,"time":17,"velocity":1,"duration":0.5},{"name":"C5","midi":72,"time":17.5,"velocity":1,"duration":0.5},{"name":"B4","midi":71,"time":18,"velocity":1,"duration":0.5},{"name":"G4","midi":67,"time":18.5,"velocity":1,"duration":0.75},{"name":"A4","midi":69,"time":19.5,"velocity":1,"duration":0.25},{"name":"B4","midi":71,"time":19.75,"velocity":1,"duration":0.25},{"name":"A4","midi":69,"time":20,"velocity":1,"duration":2},{"name":"A#4","midi":70,"time":22,"velocity":1,"duration":1.5},{"name":"B4","midi":71,"time":23.5,"velocity":1,"duration":0.5},{"name":"D5","midi":74,"time":24,"velocity":1,"duration":1.5},{"name":"D5","midi":74,"time":25.5,"velocity":1,"duration":0.5},{"name":"D#5","midi":75,"time":26,"velocity":1,"duration":1.5},{"name":"B4","midi":71,"time":27.5,"velocity":1,"duration":0.5},{"name":"A4","midi":69,"time":28,"velocity":1,"duration":0.25},{"name":"G4","midi":67,"time":28.25,"velocity":1,"duration":0.5},{"name":"G4","midi":67,"time":28.75,"velocity":1,"duration":0.25},{"name":"A4","midi":69,"time":29,"velocity":1,"duration":0.5},{"name":"B4","midi":71,"time":29.5,"velocity":1,"duration":0.5},{"name":"A4","midi":69,"time":30,"velocity":1,"duration":0.25},{"name":"G4","midi":67,"time":30.25,"velocity":1,"duration":1},{"name":"A4","midi":69,"time":31.5,"velocity":1,"duration":0.5},{"name":"B4","midi":71,"time":32,"velocity":1,"duration":1.5},{"name":"B4","midi":71,"time":33.5,"velocity":1,"duration":0.5},{"name":"A4","midi":69,"time":34,"velocity":1,"duration":1},{"name":"B4","midi":71,"time":35,"velocity":1,"duration":0.375},{"name":"B4","midi":71,"time":35.375,"velocity":1,"duration":0.375},{"name":"B4","midi":71,"time":35.75,"velocity":1,"duration":0.25},{"name":"G4","midi":67,"time":36,"velocity":1,"duration":2},{"name":"A4","midi":69,"time":40.5,"velocity":1,"duration":0.5},{"name":"A4","midi":69,"time":41,"velocity":1,"duration":0.5},{"name":"A4","midi":69,"time":41.5,"velocity":1,"duration":0.5},{"name":"A4","midi":69,"time":42,"velocity":1,"duration":0.75},{"name":"A4","midi":69,"time":42.75,"velocity":1,"duration":0.25},{"name":"E5","midi":76,"time":43,"velocity":1,"duration":0.375},{"name":"D5","midi":74,"time":43.375,"velocity":1,"duration":0.375},{"name":"E5","midi":76,"time":43.75,"velocity":1,"duration":0.25},{"name":"D5","midi":74,"time":44,"velocity":1,"duration":1.6000000000000014},{"name":"B4","midi":71,"time":46,"velocity":1,"duration":1.875},{"name":"A4","midi":69,"time":48.5,"velocity":1,"duration":0.3999999999999986},{"name":"A4","midi":69,"time":49,"velocity":1,"duration":0.3999999999999986},{"name":"A4","midi":69,"time":49.5,"velocity":1,"duration":0.3999999999999986},{"name":"B4","midi":71,"time":50,"velocity":1,"duration":0.20000000000000284},{"name":"B4","midi":71,"time":50.25,"velocity":1,"duration":0.3999999999999986},{"name":"A4","midi":69,"time":50.75,"velocity":1,"duration":1},{"name":"A4","midi":69,"time":51.75,"velocity":1,"duration":0.25},{"name":"A4","midi":69,"time":52,"velocity":1,"duration":0.5},{"name":"A4","midi":69,"time":52.5,"velocity":1,"duration":0.5},{"name":"E5","midi":76,"time":53,"velocity":1,"duration":0.25},{"name":"E5","midi":76,"time":53.25,"velocity":1,"duration":0.5},{"name":"D5","midi":74,"time":53.75,"velocity":1,"duration":1.25},{"name":"A#4","midi":70,"time":55,"velocity":1,"duration":1},{"name":"B4","midi":71,"time":56,"velocity":1,"duration":1},{"name":"D4","midi":62,"time":57,"velocity":1,"duration":0.5},{"name":"D4","midi":62,"time":57.5,"velocity":1,"duration":0.5},{"name":"D#4","midi":63,"time":58,"velocity":1,"duration":0.5},{"name":"B4","midi":71,"time":58.5,"velocity":1,"duration":0.5},{"name":"A4","midi":69,"time":59,"velocity":1,"duration":0.5},{"name":"G4","midi":67,"time":59.5,"velocity":1,"duration":0.5},{"name":"B4","midi":71,"time":60,"velocity":1,"duration":0.25},{"name":"E4","midi":64,"time":60.25,"velocity":1,"duration":1.75},{"name":"F4","midi":65,"time":62.5,"velocity":0.6299212598425197,"duration":1.2000000000000028},{"name":"C5","midi":72,"time":64,"velocity":1,"duration":1.5999999999999943},{"name":"B4","midi":71,"time":66.375,"velocity":1,"duration":0.375},{"name":"G4","midi":67,"time":66.75,"velocity":1,"duration":0.25},{"name":"G4","midi":67,"time":67,"velocity":1,"duration":0.375},{"name":"A4","midi":69,"time":67.375,"velocity":1,"duration":0.375},{"name":"B4","midi":71,"time":67.75,"velocity":1,"duration":0.25},{"name":"A4","midi":69,"time":68,"velocity":1,"duration":2},{"name":"A#4","midi":70,"time":70,"velocity":1,"duration":1.5},{"name":"B4","midi":71,"time":71.5,"velocity":1,"duration":0.5},{"name":"D5","midi":74,"time":72,"velocity":1,"duration":1.5},{"name":"D5","midi":74,"time":73.5,"velocity":1,"duration":0.5},{"name":"D#5","midi":75,"time":74,"velocity":1,"duration":1.5},{"name":"B4","midi":71,"time":75.5,"velocity":1,"duration":0.5},{"name":"A4","midi":69,"time":76,"velocity":1,"duration":0.25},{"name":"G4","midi":67,"time":76.25,"velocity":1,"duration":0.75},{"name":"A4","midi":69,"time":77,"velocity":1,"duration":0.5},{"name":"B4","midi":71,"time":77.5,"velocity":1,"duration":0.5},{"name":"A4","midi":69,"time":78,"velocity":1,"duration":0.25},{"name":"G4","midi":67,"time":78.25,"velocity":1,"duration":1},{"name":"A4","midi":69,"time":79.5,"velocity":1,"duration":0.5},{"name":"B4","midi":71,"time":80,"velocity":1,"duration":1.5},{"name":"B4","midi":71,"time":81.5,"velocity":1,"duration":0.5},{"name":"A4","midi":69,"time":82,"velocity":1,"duration":1},{"name":"B4","midi":71,"time":83,"velocity":1,"duration":0.375},{"name":"B4","midi":71,"time":83.375,"velocity":1,"duration":0.375},{"name":"B4","midi":71,"time":83.75,"velocity":1,"duration":0.25},{"name":"G4","midi":67,"time":84,"velocity":1,"duration":2.799999999999997},{"name":"F#4","midi":66,"time":87,"velocity":0.6299212598425197,"duration":0.7999999999999972},{"name":"D#4","midi":63,"time":102,"velocity":0.9448818897637795,"duration":0.75},{"name":"D#4","midi":63,"time":102.75,"velocity":0.9448818897637795,"duration":0.25},{"name":"D4","midi":62,"time":103,"velocity":0.9448818897637795,"duration":1},{"name":"B4","midi":71,"time":104,"velocity":1,"duration":0.7999999999999972},{"name":"D4","midi":62,"time":105,"velocity":1,"duration":0.4000000000000057},{"name":"D4","midi":62,"time":105.5,"velocity":1,"duration":0.4000000000000057},{"name":"D#4","midi":63,"time":106,"velocity":1,"duration":0.5},{"name":"B4","midi":71,"time":106.5,"velocity":1,"duration":0.5},{"name":"A4","midi":69,"time":107,"velocity":1,"duration":0.5},{"name":"G4","midi":67,"time":107.5,"velocity":1,"duration":0.5},{"name":"B4","midi":71,"time":108,"velocity":1,"duration":0.25},{"name":"E4","midi":64,"time":108.25,"velocity":1,"duration":1.75},{"name":"F4","midi":65,"time":110.5,"velocity":1,"duration":0.4000000000000057},{"name":"F4","midi":65,"time":111.25,"velocity":1,"duration":0.20000000000000284},{"name":"C5","midi":72,"time":112,"velocity":1,"duration":1.5999999999999943},{"name":"B4","midi":71,"time":114.375,"velocity":1,"duration":0.375},{"name":"G4","midi":67,"time":114.75,"velocity":1,"duration":0.25},{"name":"G4","midi":67,"time":115,"velocity":1,"duration":0.375},{"name":"A4","midi":69,"time":115.375,"velocity":1,"duration":0.375},{"name":"B4","midi":71,"time":115.75,"velocity":1,"duration":0.25},{"name":"A4","midi":69,"time":116,"velocity":1,"duration":2},{"name":"A#4","midi":70,"time":118,"velocity":1,"duration":1.5},{"name":"B4","midi":71,"time":119.5,"velocity":1,"duration":0.5},{"name":"D5","midi":74,"time":120,"velocity":1,"duration":1.5},{"name":"D5","midi":74,"time":121.5,"velocity":1,"duration":0.5},{"name":"D#5","midi":75,"time":122,"velocity":1,"duration":1.5},{"name":"B4","midi":71,"time":123.5,"velocity":1,"duration":0.5},{"name":"A4","midi":69,"time":124,"velocity":1,"duration":0.25},{"name":"G4","midi":67,"time":124.25,"velocity":1,"duration":0.75},{"name":"A4","midi":69,"time":125,"velocity":1,"duration":0.5},{"name":"B4","midi":71,"time":125.5,"velocity":1,"duration":0.5},{"name":"A4","midi":69,"time":126,"velocity":1,"duration":0.25},{"name":"G4","midi":67,"time":126.25,"velocity":1,"duration":1},{"name":"A4","midi":69,"time":127.5,"velocity":1,"duration":0.5},{"name":"B4","midi":71,"time":128,"velocity":1,"duration":1.5},{"name":"B4","midi":71,"time":129.5,"velocity":1,"duration":0.5},{"name":"A4","midi":69,"time":130,"velocity":1,"duration":1},{"name":"B4","midi":71,"time":131,"velocity":1,"duration":0.375},{"name":"B4","midi":71,"time":131.375,"velocity":1,"duration":0.375},{"name":"B4","midi":71,"time":131.75,"velocity":1,"duration":0.25},{"name":"G4","midi":67,"time":132,"velocity":1,"duration":2},{"name":"G#4","midi":68,"time":134,"velocity":1,"duration":1.5},{"name":"B4","midi":71,"time":135.5,"velocity":1,"duration":0.5},{"name":"A4","midi":69,"time":136,"velocity":1,"duration":1.5},{"name":"A4","midi":69,"time":137.5,"velocity":1,"duration":0.5},{"name":"B4","midi":71,"time":138,"velocity":1,"duration":1},{"name":"B4","midi":71,"time":139,"velocity":1,"duration":0.375},{"name":"B4","midi":71,"time":139.375,"velocity":1,"duration":0.375},{"name":"B4","midi":71,"time":139.75,"velocity":1,"duration":0.25},{"name":"G4","midi":67,"time":140,"velocity":1,"duration":3.5999999999999943}],"controlChanges":{"7":[{"number":7,"time":0,"value":1}],"10":[{"number":10,"time":0,"value":0.5039370078740157}],"91":[{"number":91,"time":0,"value":0.7007874015748031}],"93":[{"number":93,"time":0,"value":0.6220472440944882}]},"id":2,"name":"2nd Melody Line - Trumpet","instrumentNumber":56,"instrument":"trumpet","instrumentFamily":"brass","channelNumber":7,"isPercussion":false},{"startTime":0.125,"duration":144,"length":73,"notes":[{"name":"G4","midi":67,"time":0.125,"velocity":0.7480314960629921,"duration":1.75},{"name":"G4","midi":67,"time":2.125,"velocity":0.7480314960629921,"duration":1.75},{"name":"B4","midi":71,"time":4.125,"velocity":0.7480314960629921,"duration":1.75},{"name":"G4","midi":67,"time":6.125,"velocity":0.7480314960629921,"duration":1.75},{"name":"G4","midi":67,"time":8.125,"velocity":0.7480314960629921,"duration":1.75},{"name":"G4","midi":67,"time":10.125,"velocity":0.7480314960629921,"duration":1.75},{"name":"G4","midi":67,"time":12.125,"velocity":0.7480314960629921,"duration":1.75},{"name":"G4","midi":67,"time":14,"velocity":0.7480314960629921,"duration":2},{"name":"G4","midi":67,"time":16,"velocity":0.7480314960629921,"duration":4},{"name":"F#4","midi":66,"time":20,"velocity":0.7480314960629921,"duration":2},{"name":"F#4","midi":66,"time":22,"velocity":0.7480314960629921,"duration":2},{"name":"G4","midi":67,"time":24.125,"velocity":0.7480314960629921,"duration":1.75},{"name":"G4","midi":67,"time":26.125,"velocity":0.7480314960629921,"duration":1.75},{"name":"C5","midi":72,"time":28.125,"velocity":0.7480314960629921,"duration":1.75},{"name":"C5","midi":72,"time":30,"velocity":0.7480314960629921,"duration":2},{"name":"D5","midi":74,"time":32.125,"velocity":0.7480314960629921,"duration":1.75},{"name":"C5","midi":72,"time":34,"velocity":0.7480314960629921,"duration":2},{"name":"B4","midi":71,"time":36,"velocity":0.7480314960629921,"duration":4},{"name":"A4","midi":69,"time":40.125,"velocity":0.7480314960629921,"duration":1.75},{"name":"C5","midi":72,"time":42,"velocity":0.7480314960629921,"duration":2},{"name":"B4","midi":71,"time":44,"velocity":0.7480314960629921,"duration":2},{"name":"E4","midi":64,"time":46,"velocity":0.7480314960629921,"duration":2},{"name":"A4","midi":69,"time":48,"velocity":0.7480314960629921,"duration":2},{"name":"F#4","midi":66,"time":50,"velocity":0.7480314960629921,"duration":2},{"name":"G4","midi":67,"time":52,"velocity":0.7480314960629921,"duration":2},{"name":"F#4","midi":66,"time":54.5,"velocity":0.7480314960629921,"duration":0.5},{"name":"C4","midi":60,"time":55.25,"velocity":0.7480314960629921,"duration":0.25},{"name":"G4","midi":67,"time":56,"velocity":0.7480314960629921,"duration":2},{"name":"G4","midi":67,"time":58,"velocity":0.7480314960629921,"duration":2},{"name":"G4","midi":67,"time":60,"velocity":0.7480314960629921,"duration":2},{"name":"G4","midi":67,"time":62,"velocity":0.7480314960629921,"duration":2},{"name":"A4","midi":69,"time":64,"velocity":0.7480314960629921,"duration":2},{"name":"A4","midi":69,"time":66,"velocity":0.7480314960629921,"duration":2},{"name":"C5","midi":72,"time":68,"velocity":0.7480314960629921,"duration":2},{"name":"C5","midi":72,"time":70,"velocity":0.7480314960629921,"duration":2},{"name":"G4","midi":67,"time":72,"velocity":0.7480314960629921,"duration":2},{"name":"G4","midi":67,"time":74,"velocity":0.7480314960629921,"duration":2},{"name":"C5","midi":72,"time":76,"velocity":0.7480314960629921,"duration":2},{"name":"C5","midi":72,"time":78,"velocity":0.7480314960629921,"duration":2},{"name":"G4","midi":67,"time":80,"velocity":0.7480314960629921,"duration":2},{"name":"F#4","midi":66,"time":82,"velocity":0.7480314960629921,"duration":2},{"name":"B4","midi":71,"time":84,"velocity":0.7480314960629921,"duration":2},{"name":"G4","midi":67,"time":86,"velocity":0.7480314960629921,"duration":1},{"name":"F#4","midi":66,"time":87,"velocity":0.7480314960629921,"duration":1},{"name":"G4","midi":67,"time":88.125,"velocity":0.7480314960629921,"duration":1.75},{"name":"G4","midi":67,"time":90.125,"velocity":0.7480314960629921,"duration":1.75},{"name":"B4","midi":71,"time":92.125,"velocity":0.7480314960629921,"duration":1.75},{"name":"G4","midi":67,"time":94.125,"velocity":0.7480314960629921,"duration":1.75},{"name":"C5","midi":72,"time":96,"velocity":0.7480314960629921,"duration":2},{"name":"A4","midi":69,"time":98,"velocity":0.7480314960629921,"duration":2},{"name":"B4","midi":71,"time":100,"velocity":0.7480314960629921,"duration":2},{"name":"C#5","midi":73,"time":102,"velocity":0.7480314960629921,"duration":1},{"name":"C5","midi":72,"time":103,"velocity":0.7480314960629921,"duration":1},{"name":"G4","midi":67,"time":104,"velocity":0.7480314960629921,"duration":2},{"name":"G4","midi":67,"time":106,"velocity":0.7480314960629921,"duration":2},{"name":"G4","midi":67,"time":108,"velocity":0.7480314960629921,"duration":2},{"name":"G4","midi":67,"time":110,"velocity":0.7480314960629921,"duration":2},{"name":"A4","midi":69,"time":112,"velocity":0.7480314960629921,"duration":2},{"name":"A4","midi":69,"time":114,"velocity":0.7480314960629921,"duration":2},{"name":"C5","midi":72,"time":116,"velocity":0.7480314960629921,"duration":2},{"name":"C5","midi":72,"time":118,"velocity":0.7480314960629921,"duration":2},{"name":"G4","midi":67,"time":120,"velocity":0.7480314960629921,"duration":2},{"name":"G4","midi":67,"time":122,"velocity":0.7480314960629921,"duration":2},{"name":"C5","midi":72,"time":124,"velocity":0.7480314960629921,"duration":2},{"name":"C5","midi":72,"time":126,"velocity":0.7480314960629921,"duration":2},{"name":"G4","midi":67,"time":128,"velocity":0.7480314960629921,"duration":2},{"name":"F#4","midi":66,"time":130,"velocity":0.7480314960629921,"duration":2},{"name":"B4","midi":71,"time":132,"velocity":0.7480314960629921,"duration":2},{"name":"B4","midi":71,"time":134,"velocity":0.7480314960629921,"duration":2},{"name":"C5","midi":72,"time":136,"velocity":0.7480314960629921,"duration":2},{"name":"A4","midi":69,"time":138,"velocity":0.7480314960629921,"duration":2},{"name":"B4","midi":71,"time":140,"velocity":0.7480314960629921,"duration":2},{"name":"G3","midi":55,"time":142,"velocity":0.7480314960629921,"duration":2}],"controlChanges":{"7":[{"number":7,"time":0,"value":1}],"10":[{"number":10,"time":0,"value":0.6929133858267716}],"91":[{"number":91,"time":0,"value":0.7007874015748031}],"93":[{"number":93,"time":0,"value":0.6220472440944882}]},"id":3,"name":"Because - Dave Clark Five","instrumentNumber":16,"instrument":"drawbar organ","instrumentFamily":"organ","channelNumber":2,"isPercussion":false},{"startTime":0.25,"duration":144,"length":73,"notes":[{"name":"B4","midi":71,"time":0.25,"velocity":0.6299212598425197,"duration":1.45},{"name":"B4","midi":71,"time":2.25,"velocity":0.7480314960629921,"duration":1.75},{"name":"D5","midi":74,"time":4.25,"velocity":0.7480314960629921,"duration":1.75},{"name":"B4","midi":71,"time":6.25,"velocity":0.7480314960629921,"duration":1.75},{"name":"D4","midi":62,"time":8,"velocity":0.7480314960629921,"duration":2},{"name":"B4","midi":71,"time":10.25,"velocity":0.7480314960629921,"duration":1.75},{"name":"D4","midi":62,"time":12.375,"velocity":0.7480314960629921,"duration":1.625},{"name":"F4","midi":65,"time":14.125,"velocity":0.7480314960629921,"duration":1.75},{"name":"C5","midi":72,"time":16,"velocity":0.7480314960629921,"duration":4},{"name":"C5","midi":72,"time":20,"velocity":0.7480314960629921,"duration":2},{"name":"C5","midi":72,"time":22,"velocity":0.7480314960629921,"duration":2},{"name":"B4","midi":71,"time":24.25,"velocity":0.7480314960629921,"duration":1.75},{"name":"B4","midi":71,"time":26.25,"velocity":0.7480314960629921,"duration":1.75},{"name":"E5","midi":76,"time":28,"velocity":0.7480314960629921,"duration":2},{"name":"G5","midi":79,"time":30,"velocity":0.7480314960629921,"duration":2},{"name":"G5","midi":79,"time":32,"velocity":0.7480314960629921,"duration":2},{"name":"A4","midi":69,"time":34,"velocity":0.7480314960629921,"duration":2},{"name":"D5","midi":74,"time":36.125,"velocity":0.7480314960629921,"duration":3.875},{"name":"A3","midi":57,"time":40,"velocity":0.7480314960629921,"duration":2},{"name":"D4","midi":62,"time":42.125,"velocity":0.7480314960629921,"duration":1.75},{"name":"G4","midi":67,"time":44,"velocity":0.7480314960629921,"duration":2},{"name":"G4","midi":67,"time":46,"velocity":0.7480314960629921,"duration":2},{"name":"C4","midi":60,"time":48,"velocity":0.7480314960629921,"duration":2},{"name":"C4","midi":60,"time":50,"velocity":0.7480314960629921,"duration":2},{"name":"C#5","midi":73,"time":52,"velocity":0.7480314960629921,"duration":2},{"name":"A4","midi":69,"time":54,"velocity":0.7480314960629921,"duration":1},{"name":"A#4","midi":70,"time":55,"velocity":0.7480314960629921,"duration":1},{"name":"D4","midi":62,"time":56,"velocity":0.7480314960629921,"duration":2},{"name":"D#4","midi":63,"time":58,"velocity":0.7480314960629921,"duration":2},{"name":"E4","midi":64,"time":60,"velocity":0.7480314960629921,"duration":2},{"name":"F4","midi":65,"time":62,"velocity":0.7480314960629921,"duration":2},{"name":"G4","midi":67,"time":64.125,"velocity":0.7480314960629921,"duration":1.75},{"name":"G4","midi":67,"time":66,"velocity":0.7480314960629921,"duration":2},{"name":"F#4","midi":66,"time":68,"velocity":0.7480314960629921,"duration":2},{"name":"F#4","midi":66,"time":70,"velocity":0.7480314960629921,"duration":2},{"name":"B3","midi":59,"time":72,"velocity":0.7480314960629921,"duration":2},{"name":"D#4","midi":63,"time":74,"velocity":0.7480314960629921,"duration":2},{"name":"E4","midi":64,"time":76,"velocity":0.7480314960629921,"duration":2},{"name":"D#4","midi":63,"time":78,"velocity":0.7480314960629921,"duration":2},{"name":"D4","midi":62,"time":80,"velocity":0.7480314960629921,"duration":2},{"name":"D4","midi":62,"time":82,"velocity":0.7480314960629921,"duration":2},{"name":"D4","midi":62,"time":84,"velocity":0.7480314960629921,"duration":2},{"name":"C#4","midi":61,"time":86,"velocity":0.7480314960629921,"duration":1},{"name":"C4","midi":60,"time":87,"velocity":0.7480314960629921,"duration":1},{"name":"B4","midi":71,"time":88.25,"velocity":0.7480314960629921,"duration":1.75},{"name":"B4","midi":71,"time":90.25,"velocity":0.7480314960629921,"duration":1.75},{"name":"D5","midi":74,"time":92.25,"velocity":0.7480314960629921,"duration":1.75},{"name":"B4","midi":71,"time":94.25,"velocity":0.7480314960629921,"duration":1.75},{"name":"E4","midi":64,"time":96.125,"velocity":0.7480314960629921,"duration":1.75},{"name":"C5","midi":72,"time":98.125,"velocity":0.7480314960629921,"duration":1.75},{"name":"D5","midi":74,"time":100.125,"velocity":0.7480314960629921,"duration":1.75},{"name":"G4","midi":67,"time":102,"velocity":0.7480314960629921,"duration":1},{"name":"F#4","midi":66,"time":103,"velocity":0.7480314960629921,"duration":1},{"name":"D4","midi":62,"time":104,"velocity":0.7480314960629921,"duration":2},{"name":"D#4","midi":63,"time":106,"velocity":0.7480314960629921,"duration":2},{"name":"E4","midi":64,"time":108,"velocity":0.7480314960629921,"duration":2},{"name":"F4","midi":65,"time":110,"velocity":0.7480314960629921,"duration":2},{"name":"G4","midi":67,"time":112.125,"velocity":0.7480314960629921,"duration":1.75},{"name":"G4","midi":67,"time":114,"velocity":0.7480314960629921,"duration":2},{"name":"F#4","midi":66,"time":116,"velocity":0.7480314960629921,"duration":2},{"name":"F#4","midi":66,"time":118,"velocity":0.7480314960629921,"duration":2},{"name":"B3","midi":59,"time":120,"velocity":0.7480314960629921,"duration":2},{"name":"D#4","midi":63,"time":122,"velocity":0.7480314960629921,"duration":2},{"name":"E4","midi":64,"time":124,"velocity":0.7480314960629921,"duration":2},{"name":"D#4","midi":63,"time":126,"velocity":0.7480314960629921,"duration":2},{"name":"D4","midi":62,"time":128,"velocity":0.7480314960629921,"duration":2},{"name":"D4","midi":62,"time":130,"velocity":0.7480314960629921,"duration":2},{"name":"D4","midi":62,"time":132,"velocity":0.7480314960629921,"duration":2},{"name":"E4","midi":64,"time":134,"velocity":0.7480314960629921,"duration":2},{"name":"E4","midi":64,"time":136,"velocity":0.7480314960629921,"duration":2},{"name":"D4","midi":62,"time":138,"velocity":0.7480314960629921,"duration":2},{"name":"D5","midi":74,"time":140,"velocity":0.7480314960629921,"duration":2},{"name":"E4","midi":64,"time":142,"velocity":0.7480314960629921,"duration":2}],"controlChanges":{"7":[{"number":7,"time":0,"value":1}],"10":[{"number":10,"time":0,"value":0.6929133858267716}],"91":[{"number":91,"time":0,"value":0.7007874015748031}],"93":[{"number":93,"time":0,"value":0.6220472440944882}]},"id":4,"name":"Sequenced By Joe Simon","instrumentNumber":16,"instrument":"drawbar organ","instrumentFamily":"organ","channelNumber":3,"isPercussion":false},{"startTime":0.25,"duration":144,"length":183,"notes":[{"name":"D4","midi":62,"time":0.25,"velocity":1,"duration":0.25},{"name":"G4","midi":67,"time":0.5,"velocity":1,"duration":0.25},{"name":"A4","midi":69,"time":0.75,"velocity":1,"duration":0.25},{"name":"B4","midi":71,"time":1.25,"velocity":1,"duration":0.25},{"name":"A4","midi":69,"time":1.5,"velocity":1,"duration":0.25},{"name":"D#4","midi":63,"time":2.25,"velocity":1,"duration":0.25},{"name":"G4","midi":67,"time":2.5,"velocity":1,"duration":0.25},{"name":"A4","midi":69,"time":2.75,"velocity":1,"duration":0.25},{"name":"B4","midi":71,"time":3.25,"velocity":1,"duration":0.25},{"name":"A4","midi":69,"time":3.5,"velocity":1,"duration":0.25},{"name":"E4","midi":64,"time":4.25,"velocity":1,"duration":0.25},{"name":"G4","midi":67,"time":4.5,"velocity":1,"duration":0.25},{"name":"A4","midi":69,"time":4.75,"velocity":1,"duration":0.25},{"name":"B4","midi":71,"time":5.25,"velocity":1,"duration":0.25},{"name":"A4","midi":69,"time":5.5,"velocity":1,"duration":0.25},{"name":"D#4","midi":63,"time":6.25,"velocity":0.8976377952755905,"duration":0.25},{"name":"G4","midi":67,"time":6.5,"velocity":0.8976377952755905,"duration":0.25},{"name":"A4","midi":69,"time":6.75,"velocity":0.8976377952755905,"duration":0.25},{"name":"B4","midi":71,"time":7.25,"velocity":0.8976377952755905,"duration":0.25},{"name":"D4","midi":62,"time":7.5,"velocity":0.8976377952755905,"duration":0.5},{"name":"D4","midi":62,"time":8,"velocity":0.7480314960629921,"duration":0.5},{"name":"D4","midi":62,"time":8.5,"velocity":0.7480314960629921,"duration":0.5},{"name":"D4","midi":62,"time":9.25,"velocity":0.7480314960629921,"duration":0.25},{"name":"D4","midi":62,"time":10,"velocity":0.7480314960629921,"duration":0.5},{"name":"D4","midi":62,"time":10.5,"velocity":0.7480314960629921,"duration":0.5},{"name":"D4","midi":62,"time":11.25,"velocity":0.7480314960629921,"duration":0.25},{"name":"B3","midi":59,"time":12.5,"velocity":0.7480314960629921,"duration":0.5},{"name":"B3","midi":59,"time":13.25,"velocity":0.7480314960629921,"duration":0.25},{"name":"D4","midi":62,"time":14.5,"velocity":0.7480314960629921,"duration":0.5},{"name":"D4","midi":62,"time":15.25,"velocity":0.7480314960629921,"duration":0.25},{"name":"G4","midi":67,"time":16,"velocity":0.7480314960629921,"duration":0.5},{"name":"G4","midi":67,"time":16.5,"velocity":0.7480314960629921,"duration":0.5},{"name":"G4","midi":67,"time":17.25,"velocity":0.7480314960629921,"duration":0.25},{"name":"E4","midi":64,"time":18,"velocity":0.7480314960629921,"duration":0.5},{"name":"E4","midi":64,"time":18.5,"velocity":0.7480314960629921,"duration":0.5},{"name":"E4","midi":64,"time":19.5,"velocity":0.7480314960629921,"duration":0.5},{"name":"F#4","midi":66,"time":20.5,"velocity":0.7480314960629921,"duration":0.5},{"name":"F#4","midi":66,"time":21.25,"velocity":0.7480314960629921,"duration":0.25},{"name":"F#4","midi":66,"time":22.5,"velocity":0.7480314960629921,"duration":0.5},{"name":"F#4","midi":66,"time":23.25,"velocity":0.7480314960629921,"duration":0.25},{"name":"B4","midi":71,"time":24.5,"velocity":0.7480314960629921,"duration":0.5},{"name":"B4","midi":71,"time":25.25,"velocity":0.7480314960629921,"duration":0.25},{"name":"B4","midi":71,"time":26.5,"velocity":0.7480314960629921,"duration":0.5},{"name":"B4","midi":71,"time":27.25,"velocity":0.7480314960629921,"duration":0.25},{"name":"E4","midi":64,"time":28.5,"velocity":0.7480314960629921,"duration":0.5},{"name":"E4","midi":64,"time":29.25,"velocity":0.7480314960629921,"duration":0.25},{"name":"D#4","midi":63,"time":30.5,"velocity":0.7480314960629921,"duration":0.5},{"name":"D#4","midi":63,"time":31.25,"velocity":0.7480314960629921,"duration":0.25},{"name":"G4","midi":67,"time":32.5,"velocity":0.7480314960629921,"duration":0.5},{"name":"G4","midi":67,"time":33.25,"velocity":0.7480314960629921,"duration":0.25},{"name":"F#4","midi":66,"time":34.5,"velocity":0.7480314960629921,"duration":0.5},{"name":"F#4","midi":66,"time":35,"velocity":0.7480314960629921,"duration":1},{"name":"D4","midi":62,"time":36.5,"velocity":0.7480314960629921,"duration":0.5},{"name":"D4","midi":62,"time":37.25,"velocity":0.7480314960629921,"duration":0.25},{"name":"D4","midi":62,"time":38.5,"velocity":0.7480314960629921,"duration":0.25},{"name":"D4","midi":62,"time":38.75,"velocity":0.7480314960629921,"duration":0.5},{"name":"D4","midi":62,"time":39.25,"velocity":0.7480314960629921,"duration":0.25},{"name":"D4","midi":62,"time":39.5,"velocity":0.7480314960629921,"duration":0.25},{"name":"D4","midi":62,"time":39.75,"velocity":0.7480314960629921,"duration":0.25},{"name":"E4","midi":64,"time":40,"velocity":0.7480314960629921,"duration":0.5},{"name":"E4","midi":64,"time":40.5,"velocity":0.7480314960629921,"duration":0.5},{"name":"E4","midi":64,"time":41.25,"velocity":0.7480314960629921,"duration":0.25},{"name":"F#4","midi":66,"time":42.5,"velocity":0.7480314960629921,"duration":0.5},{"name":"C5","midi":72,"time":43,"velocity":0.7480314960629921,"duration":1},{"name":"B4","midi":71,"time":44.5,"velocity":0.7480314960629921,"duration":0.5},{"name":"B4","midi":71,"time":45.25,"velocity":0.7480314960629921,"duration":0.25},{"name":"G4","midi":67,"time":46.5,"velocity":0.7480314960629921,"duration":0.5},{"name":"G4","midi":67,"time":47.25,"velocity":0.7480314960629921,"duration":0.25},{"name":"E4","midi":64,"time":48,"velocity":0.7480314960629921,"duration":0.5},{"name":"E4","midi":64,"time":48.5,"velocity":0.7480314960629921,"duration":0.5},{"name":"E4","midi":64,"time":49.25,"velocity":0.7480314960629921,"duration":0.25},{"name":"F#4","midi":66,"time":50.5,"velocity":0.7480314960629921,"duration":0.5},{"name":"F#4","midi":66,"time":51.25,"velocity":0.7480314960629921,"duration":0.25},{"name":"E4","midi":64,"time":52.5,"velocity":0.7480314960629921,"duration":0.5},{"name":"C#5","midi":73,"time":53.25,"velocity":0.7480314960629921,"duration":0.25},{"name":"C5","midi":72,"time":54.5,"velocity":0.7480314960629921,"duration":0.5},{"name":"A#4","midi":70,"time":55.25,"velocity":0.7480314960629921,"duration":0.25},{"name":"D4","midi":62,"time":56.5,"velocity":0.7480314960629921,"duration":0.5},{"name":"B3","midi":59,"time":57.25,"velocity":0.7480314960629921,"duration":0.25},{"name":"B3","midi":59,"time":58,"velocity":0.7480314960629921,"duration":0.5},{"name":"D4","midi":62,"time":58.5,"velocity":0.7480314960629921,"duration":0.5},{"name":"D4","midi":62,"time":59.25,"velocity":0.7480314960629921,"duration":0.25},{"name":"B3","midi":59,"time":60.5,"velocity":0.7480314960629921,"duration":0.5},{"name":"B3","midi":59,"time":61.25,"velocity":0.7480314960629921,"duration":0.25},{"name":"D4","midi":62,"time":62.5,"velocity":0.7480314960629921,"duration":0.5},{"name":"D4","midi":62,"time":63.25,"velocity":0.7480314960629921,"duration":0.25},{"name":"G4","midi":67,"time":64,"velocity":0.7480314960629921,"duration":0.5},{"name":"G4","midi":67,"time":64.5,"velocity":0.7480314960629921,"duration":0.5},{"name":"G4","midi":67,"time":65.25,"velocity":0.7480314960629921,"duration":0.25},{"name":"E4","midi":64,"time":66.375,"velocity":0.7480314960629921,"duration":1.625},{"name":"F#4","midi":66,"time":68.5,"velocity":0.7480314960629921,"duration":0.5},{"name":"F#4","midi":66,"time":69.25,"velocity":0.7480314960629921,"duration":0.25},{"name":"F#4","midi":66,"time":70.5,"velocity":0.7480314960629921,"duration":0.5},{"name":"F#4","midi":66,"time":71.25,"velocity":0.7480314960629921,"duration":0.25},{"name":"B4","midi":71,"time":72.5,"velocity":0.7480314960629921,"duration":0.5},{"name":"B4","midi":71,"time":73.25,"velocity":0.7480314960629921,"duration":0.25},{"name":"B4","midi":71,"time":74.5,"velocity":0.7480314960629921,"duration":0.5},{"name":"B4","midi":71,"time":75.25,"velocity":0.7480314960629921,"duration":0.25},{"name":"E4","midi":64,"time":76.5,"velocity":0.7480314960629921,"duration":0.5},{"name":"E4","midi":64,"time":77.25,"velocity":0.7480314960629921,"duration":0.25},{"name":"D#4","midi":63,"time":78.5,"velocity":0.7480314960629921,"duration":0.5},{"name":"D#4","midi":63,"time":79.25,"velocity":0.7480314960629921,"duration":0.25},{"name":"G4","midi":67,"time":80.5,"velocity":0.7480314960629921,"duration":0.5},{"name":"G4","midi":67,"time":81.25,"velocity":0.7480314960629921,"duration":0.25},{"name":"F#4","midi":66,"time":82.5,"velocity":0.7480314960629921,"duration":0.5},{"name":"F#4","midi":66,"time":83,"velocity":0.7480314960629921,"duration":1},{"name":"D4","midi":62,"time":84.5,"velocity":1,"duration":0.5},{"name":"D4","midi":62,"time":85.25,"velocity":1,"duration":0.25},{"name":"C#4","midi":61,"time":86.5,"velocity":1,"duration":0.5},{"name":"C4","midi":60,"time":87.25,"velocity":1,"duration":0.25},{"name":"D4","midi":62,"time":88,"velocity":1,"duration":0.25},{"name":"D4","midi":62,"time":88.25,"velocity":1,"duration":0.25},{"name":"G4","midi":67,"time":88.5,"velocity":1,"duration":0.25},{"name":"A4","midi":69,"time":88.75,"velocity":1,"duration":0.5},{"name":"B4","midi":71,"time":89.25,"velocity":1,"duration":0.25},{"name":"A4","midi":69,"time":89.5,"velocity":1,"duration":0.5},{"name":"D#4","midi":63,"time":90,"velocity":1,"duration":0.25},{"name":"D#4","midi":63,"time":90.25,"velocity":1,"duration":0.25},{"name":"G4","midi":67,"time":90.5,"velocity":1,"duration":0.25},{"name":"A4","midi":69,"time":90.75,"velocity":1,"duration":0.5},{"name":"B4","midi":71,"time":91.25,"velocity":1,"duration":0.25},{"name":"A4","midi":69,"time":91.5,"velocity":1,"duration":0.5},{"name":"E4","midi":64,"time":92,"velocity":1,"duration":0.25},{"name":"E4","midi":64,"time":92.25,"velocity":1,"duration":0.25},{"name":"G4","midi":67,"time":92.5,"velocity":1,"duration":0.25},{"name":"A4","midi":69,"time":92.75,"velocity":1,"duration":0.5},{"name":"B4","midi":71,"time":93.25,"velocity":1,"duration":0.25},{"name":"A4","midi":69,"time":93.5,"velocity":1,"duration":0.5},{"name":"F4","midi":65,"time":94,"velocity":1,"duration":0.25},{"name":"F4","midi":65,"time":94.25,"velocity":1,"duration":0.25},{"name":"G4","midi":67,"time":94.5,"velocity":1,"duration":0.25},{"name":"A4","midi":69,"time":94.75,"velocity":1,"duration":0.5},{"name":"B4","midi":71,"time":95.25,"velocity":1,"duration":0.25},{"name":"A4","midi":69,"time":95.5,"velocity":1,"duration":0.5},{"name":"E4","midi":64,"time":96.5,"velocity":1,"duration":0.5},{"name":"E4","midi":64,"time":97.25,"velocity":1,"duration":0.25},{"name":"F#4","midi":66,"time":98.5,"velocity":1,"duration":0.5},{"name":"F#4","midi":66,"time":99,"velocity":1,"duration":1},{"name":"D4","midi":62,"time":100.5,"velocity":1,"duration":0.5},{"name":"D4","midi":62,"time":101.25,"velocity":1,"duration":0.25},{"name":"D#5","midi":75,"time":102,"velocity":1,"duration":0.5},{"name":"D#5","midi":75,"time":102.75,"velocity":1,"duration":0.25},{"name":"D5","midi":74,"time":103,"velocity":1,"duration":1},{"name":"D4","midi":62,"time":104.5,"velocity":1,"duration":0.5},{"name":"B3","midi":59,"time":105.25,"velocity":1,"duration":0.25},{"name":"B3","midi":59,"time":106,"velocity":1,"duration":0.5},{"name":"D4","midi":62,"time":106.5,"velocity":1,"duration":0.5},{"name":"D4","midi":62,"time":107.25,"velocity":1,"duration":0.25},{"name":"B3","midi":59,"time":108.5,"velocity":1,"duration":0.5},{"name":"B3","midi":59,"time":109.25,"velocity":1,"duration":0.25},{"name":"D4","midi":62,"time":110.5,"velocity":1,"duration":0.5},{"name":"D4","midi":62,"time":111.25,"velocity":1,"duration":0.25},{"name":"G4","midi":67,"time":112,"velocity":1,"duration":0.5},{"name":"G4","midi":67,"time":112.5,"velocity":1,"duration":0.5},{"name":"G4","midi":67,"time":113.25,"velocity":1,"duration":0.25},{"name":"E4","midi":64,"time":114.375,"velocity":1,"duration":1.625},{"name":"F#4","midi":66,"time":116.5,"velocity":1,"duration":0.5},{"name":"F#4","midi":66,"time":117.25,"velocity":1,"duration":0.25},{"name":"F#4","midi":66,"time":118.5,"velocity":1,"duration":0.5},{"name":"F#4","midi":66,"time":119.25,"velocity":1,"duration":0.25},{"name":"B4","midi":71,"time":120.5,"velocity":1,"duration":0.5},{"name":"B4","midi":71,"time":121.25,"velocity":1,"duration":0.25},{"name":"B4","midi":71,"time":122.5,"velocity":1,"duration":0.5},{"name":"B4","midi":71,"time":123.25,"velocity":1,"duration":0.25},{"name":"E4","midi":64,"time":124.5,"velocity":1,"duration":0.5},{"name":"E4","midi":64,"time":125.25,"velocity":1,"duration":0.25},{"name":"D#4","midi":63,"time":126.5,"velocity":1,"duration":0.5},{"name":"D#4","midi":63,"time":127.25,"velocity":1,"duration":0.25},{"name":"G4","midi":67,"time":128.5,"velocity":1,"duration":0.5},{"name":"G4","midi":67,"time":129.25,"velocity":1,"duration":0.25},{"name":"F#4","midi":66,"time":130.5,"velocity":1,"duration":0.5},{"name":"F#4","midi":66,"time":131,"velocity":1,"duration":1},{"name":"D4","midi":62,"time":132.5,"velocity":1,"duration":0.5},{"name":"D4","midi":62,"time":133.25,"velocity":1,"duration":0.25},{"name":"D4","midi":62,"time":134.5,"velocity":1,"duration":0.5},{"name":"D4","midi":62,"time":135.25,"velocity":1,"duration":0.25},{"name":"E4","midi":64,"time":136.5,"velocity":1,"duration":0.5},{"name":"E4","midi":64,"time":137.25,"velocity":1,"duration":0.25},{"name":"F#4","midi":66,"time":138.5,"velocity":1,"duration":0.5},{"name":"F#4","midi":66,"time":139,"velocity":1,"duration":1},{"name":"D4","midi":62,"time":140.5,"velocity":1,"duration":0.5},{"name":"D4","midi":62,"time":141.25,"velocity":1,"duration":0.25},{"name":"B4","midi":71,"time":142,"velocity":1,"duration":2}],"controlChanges":{"7":[{"number":7,"time":0,"value":0.9921259842519685}],"10":[{"number":10,"time":0,"value":0.6929133858267716}],"91":[{"number":91,"time":0,"value":0.7007874015748031}],"93":[{"number":93,"time":0,"value":0.6220472440944882}]},"id":5,"name":"November 1994","instrumentNumber":16,"instrument":"drawbar organ","instrumentFamily":"organ","channelNumber":4,"isPercussion":false},{"startTime":0.5,"duration":144,"length":152,"notes":[{"name":"B3","midi":59,"time":0.5,"velocity":0.6299212598425197,"duration":0.4},{"name":"B3","midi":59,"time":1,"velocity":0.6299212598425197,"duration":0.3999999999999999},{"name":"D4","midi":62,"time":2.5,"velocity":0.7480314960629921,"duration":0.5},{"name":"D4","midi":62,"time":3,"velocity":0.7480314960629921,"duration":0.5},{"name":"E4","midi":64,"time":4.5,"velocity":0.7480314960629921,"duration":0.5},{"name":"E4","midi":64,"time":5,"velocity":0.7480314960629921,"duration":0.5},{"name":"B3","midi":59,"time":6.5,"velocity":0.7480314960629921,"duration":0.5},{"name":"B3","midi":59,"time":7,"velocity":0.7480314960629921,"duration":0.5},{"name":"B3","midi":59,"time":8,"velocity":0.7480314960629921,"duration":0.5},{"name":"B3","midi":59,"time":8.5,"velocity":0.7480314960629921,"duration":0.5},{"name":"B3","midi":59,"time":9.25,"velocity":0.7480314960629921,"duration":0.25},{"name":"B3","midi":59,"time":10,"velocity":0.7480314960629921,"duration":0.5},{"name":"B3","midi":59,"time":10.5,"velocity":0.7480314960629921,"duration":0.5},{"name":"B3","midi":59,"time":11.25,"velocity":0.7480314960629921,"duration":0.25},{"name":"G3","midi":55,"time":12.5,"velocity":0.7480314960629921,"duration":0.5},{"name":"G3","midi":55,"time":13.25,"velocity":0.7480314960629921,"duration":0.25},{"name":"B3","midi":59,"time":14.5,"velocity":0.7480314960629921,"duration":0.5},{"name":"B3","midi":59,"time":15.25,"velocity":0.7480314960629921,"duration":0.25},{"name":"E4","midi":64,"time":16,"velocity":0.7480314960629921,"duration":0.5},{"name":"E4","midi":64,"time":16.5,"velocity":0.7480314960629921,"duration":0.5},{"name":"E4","midi":64,"time":17.25,"velocity":0.7480314960629921,"duration":0.25},{"name":"C4","midi":60,"time":18,"velocity":0.7480314960629921,"duration":0.5},{"name":"C4","midi":60,"time":18.5,"velocity":0.7480314960629921,"duration":0.5},{"name":"C4","midi":60,"time":19.5,"velocity":0.7480314960629921,"duration":0.5},{"name":"C4","midi":60,"time":20.5,"velocity":0.7480314960629921,"duration":0.5},{"name":"C4","midi":60,"time":21.25,"velocity":0.7480314960629921,"duration":0.25},{"name":"C4","midi":60,"time":22.5,"velocity":0.7480314960629921,"duration":0.5},{"name":"C4","midi":60,"time":23.25,"velocity":0.7480314960629921,"duration":0.25},{"name":"G4","midi":67,"time":24.5,"velocity":0.7480314960629921,"duration":0.5},{"name":"G4","midi":67,"time":25.25,"velocity":0.7480314960629921,"duration":0.25},{"name":"G4","midi":67,"time":26.5,"velocity":0.7480314960629921,"duration":0.5},{"name":"G4","midi":67,"time":27.25,"velocity":0.7480314960629921,"duration":0.25},{"name":"C4","midi":60,"time":28.5,"velocity":0.7480314960629921,"duration":0.5},{"name":"C4","midi":60,"time":29.25,"velocity":0.7480314960629921,"duration":0.25},{"name":"C4","midi":60,"time":30.5,"velocity":0.7480314960629921,"duration":0.5},{"name":"C4","midi":60,"time":31.25,"velocity":0.7480314960629921,"duration":0.25},{"name":"D4","midi":62,"time":32.5,"velocity":0.7480314960629921,"duration":0.5},{"name":"D4","midi":62,"time":33.25,"velocity":0.7480314960629921,"duration":0.25},{"name":"C4","midi":60,"time":34.5,"velocity":0.7480314960629921,"duration":0.5},{"name":"C4","midi":60,"time":35,"velocity":0.7480314960629921,"duration":1},{"name":"B3","midi":59,"time":36.5,"velocity":0.7480314960629921,"duration":0.5},{"name":"B3","midi":59,"time":37.25,"velocity":0.7480314960629921,"duration":0.25},{"name":"B3","midi":59,"time":38.5,"velocity":0.7480314960629921,"duration":0.25},{"name":"B3","midi":59,"time":38.75,"velocity":0.7480314960629921,"duration":0.5},{"name":"B3","midi":59,"time":39.25,"velocity":0.7480314960629921,"duration":0.25},{"name":"B3","midi":59,"time":39.5,"velocity":0.7480314960629921,"duration":0.25},{"name":"B3","midi":59,"time":39.75,"velocity":0.7480314960629921,"duration":0.25},{"name":"C4","midi":60,"time":40,"velocity":0.7480314960629921,"duration":0.5},{"name":"C4","midi":60,"time":40.5,"velocity":0.7480314960629921,"duration":0.5},{"name":"C4","midi":60,"time":41.25,"velocity":0.7480314960629921,"duration":0.25},{"name":"C4","midi":60,"time":42.5,"velocity":0.7480314960629921,"duration":0.5},{"name":"F#4","midi":66,"time":43,"velocity":0.7480314960629921,"duration":1},{"name":"G4","midi":67,"time":44.5,"velocity":0.7480314960629921,"duration":0.5},{"name":"G4","midi":67,"time":45.25,"velocity":0.7480314960629921,"duration":0.25},{"name":"D4","midi":62,"time":46.5,"velocity":0.7480314960629921,"duration":0.5},{"name":"D4","midi":62,"time":47.25,"velocity":0.7480314960629921,"duration":0.25},{"name":"C4","midi":60,"time":48,"velocity":0.7480314960629921,"duration":0.5},{"name":"C4","midi":60,"time":48.5,"velocity":0.7480314960629921,"duration":0.5},{"name":"C4","midi":60,"time":49.25,"velocity":0.7480314960629921,"duration":0.25},{"name":"C4","midi":60,"time":50.5,"velocity":0.7480314960629921,"duration":0.5},{"name":"C4","midi":60,"time":51.25,"velocity":0.7480314960629921,"duration":0.25},{"name":"C#4","midi":61,"time":52.5,"velocity":0.7480314960629921,"duration":0.5},{"name":"G4","midi":67,"time":53.25,"velocity":0.7480314960629921,"duration":0.25},{"name":"A4","midi":69,"time":54.5,"velocity":0.7480314960629921,"duration":0.5},{"name":"F#4","midi":66,"time":55.25,"velocity":0.7480314960629921,"duration":0.25},{"name":"B3","midi":59,"time":56.5,"velocity":0.7480314960629921,"duration":0.5},{"name":"G3","midi":55,"time":57.25,"velocity":0.7480314960629921,"duration":0.25},{"name":"B3","midi":59,"time":58.5,"velocity":0.7480314960629921,"duration":0.5},{"name":"B3","midi":59,"time":59.25,"velocity":0.7480314960629921,"duration":0.25},{"name":"G3","midi":55,"time":60.5,"velocity":0.7480314960629921,"duration":0.5},{"name":"G3","midi":55,"time":61.25,"velocity":0.7480314960629921,"duration":0.25},{"name":"B3","midi":59,"time":62.5,"velocity":0.7480314960629921,"duration":0.5},{"name":"B3","midi":59,"time":63.25,"velocity":0.7480314960629921,"duration":0.25},{"name":"E4","midi":64,"time":64,"velocity":0.7480314960629921,"duration":0.5},{"name":"E4","midi":64,"time":64.5,"velocity":0.7480314960629921,"duration":0.5},{"name":"E4","midi":64,"time":65.25,"velocity":0.7480314960629921,"duration":0.25},{"name":"C4","midi":60,"time":66.375,"velocity":0.7480314960629921,"duration":1.625},{"name":"C4","midi":60,"time":68.5,"velocity":0.7480314960629921,"duration":0.5},{"name":"C4","midi":60,"time":69.25,"velocity":0.7480314960629921,"duration":0.25},{"name":"C4","midi":60,"time":70.5,"velocity":0.7480314960629921,"duration":0.5},{"name":"C4","midi":60,"time":71.25,"velocity":0.7480314960629921,"duration":0.25},{"name":"G4","midi":67,"time":72.5,"velocity":0.7480314960629921,"duration":0.5},{"name":"G4","midi":67,"time":73.25,"velocity":0.7480314960629921,"duration":0.25},{"name":"G4","midi":67,"time":74.5,"velocity":0.7480314960629921,"duration":0.5},{"name":"G4","midi":67,"time":75.25,"velocity":0.7480314960629921,"duration":0.25},{"name":"C4","midi":60,"time":76.5,"velocity":0.7480314960629921,"duration":0.5},{"name":"C4","midi":60,"time":77.25,"velocity":0.7480314960629921,"duration":0.25},{"name":"C4","midi":60,"time":78.5,"velocity":0.7480314960629921,"duration":0.5},{"name":"C4","midi":60,"time":79.25,"velocity":0.7480314960629921,"duration":0.25},{"name":"D4","midi":62,"time":80.5,"velocity":0.7480314960629921,"duration":0.5},{"name":"D4","midi":62,"time":81.25,"velocity":0.7480314960629921,"duration":0.25},{"name":"C4","midi":60,"time":82.5,"velocity":0.7480314960629921,"duration":0.5},{"name":"C4","midi":60,"time":83,"velocity":0.7480314960629921,"duration":1},{"name":"B3","midi":59,"time":84.5,"velocity":0.7480314960629921,"duration":0.5},{"name":"B3","midi":59,"time":85.25,"velocity":0.7480314960629921,"duration":0.25},{"name":"A#3","midi":58,"time":86.5,"velocity":0.7480314960629921,"duration":0.5},{"name":"A3","midi":57,"time":87.25,"velocity":0.7480314960629921,"duration":0.25},{"name":"B3","midi":59,"time":88.5,"velocity":0.7480314960629921,"duration":0.5},{"name":"B3","midi":59,"time":89,"velocity":0.7480314960629921,"duration":0.5},{"name":"D4","midi":62,"time":90.5,"velocity":0.7480314960629921,"duration":0.5},{"name":"D4","midi":62,"time":91,"velocity":0.7480314960629921,"duration":0.5},{"name":"E4","midi":64,"time":92.5,"velocity":0.7480314960629921,"duration":0.5},{"name":"E4","midi":64,"time":93,"velocity":0.7480314960629921,"duration":0.5},{"name":"F4","midi":65,"time":94.5,"velocity":0.7480314960629921,"duration":0.5},{"name":"F4","midi":65,"time":95,"velocity":0.7480314960629921,"duration":0.5},{"name":"C4","midi":60,"time":96.5,"velocity":0.7480314960629921,"duration":0.5},{"name":"C4","midi":60,"time":97.25,"velocity":0.7480314960629921,"duration":0.25},{"name":"C4","midi":60,"time":98.5,"velocity":0.7480314960629921,"duration":0.5},{"name":"C4","midi":60,"time":99,"velocity":0.7480314960629921,"duration":1},{"name":"B3","midi":59,"time":100.5,"velocity":0.7480314960629921,"duration":0.5},{"name":"B3","midi":59,"time":101.25,"velocity":0.7480314960629921,"duration":0.25},{"name":"A#3","midi":58,"time":102,"velocity":0.7480314960629921,"duration":1},{"name":"F#3","midi":54,"time":103,"velocity":0.7480314960629921,"duration":1},{"name":"B3","midi":59,"time":104.5,"velocity":0.7480314960629921,"duration":0.5},{"name":"G3","midi":55,"time":105.25,"velocity":0.7480314960629921,"duration":0.25},{"name":"B3","midi":59,"time":106.5,"velocity":0.7480314960629921,"duration":0.5},{"name":"B3","midi":59,"time":107.25,"velocity":0.7480314960629921,"duration":0.25},{"name":"G3","midi":55,"time":108.5,"velocity":0.7480314960629921,"duration":0.5},{"name":"G3","midi":55,"time":109.25,"velocity":0.7480314960629921,"duration":0.25},{"name":"B3","midi":59,"time":110.5,"velocity":0.7480314960629921,"duration":0.5},{"name":"B3","midi":59,"time":111.25,"velocity":0.7480314960629921,"duration":0.25},{"name":"E4","midi":64,"time":112,"velocity":0.7480314960629921,"duration":0.5},{"name":"E4","midi":64,"time":112.5,"velocity":0.7480314960629921,"duration":0.5},{"name":"E4","midi":64,"time":113.25,"velocity":0.7480314960629921,"duration":0.25},{"name":"C4","midi":60,"time":114.375,"velocity":0.7480314960629921,"duration":1.625},{"name":"C4","midi":60,"time":116.5,"velocity":0.7480314960629921,"duration":0.5},{"name":"C4","midi":60,"time":117.25,"velocity":0.7480314960629921,"duration":0.25},{"name":"C4","midi":60,"time":118.5,"velocity":0.7480314960629921,"duration":0.5},{"name":"C4","midi":60,"time":119.25,"velocity":0.7480314960629921,"duration":0.25},{"name":"G4","midi":67,"time":120.5,"velocity":0.7480314960629921,"duration":0.5},{"name":"G4","midi":67,"time":121.25,"velocity":0.7480314960629921,"duration":0.25},{"name":"G4","midi":67,"time":122.5,"velocity":0.7480314960629921,"duration":0.5},{"name":"G4","midi":67,"time":123.25,"velocity":0.7480314960629921,"duration":0.25},{"name":"C4","midi":60,"time":124.5,"velocity":0.7480314960629921,"duration":0.5},{"name":"C4","midi":60,"time":125.25,"velocity":0.7480314960629921,"duration":0.25},{"name":"C4","midi":60,"time":126.5,"velocity":0.7480314960629921,"duration":0.5},{"name":"C4","midi":60,"time":127.25,"velocity":0.7480314960629921,"duration":0.25},{"name":"D4","midi":62,"time":128.5,"velocity":0.7480314960629921,"duration":0.5},{"name":"D4","midi":62,"time":129.25,"velocity":0.7480314960629921,"duration":0.25},{"name":"C4","midi":60,"time":130.5,"velocity":0.7480314960629921,"duration":0.5},{"name":"C4","midi":60,"time":131,"velocity":0.7480314960629921,"duration":1},{"name":"B3","midi":59,"time":132.5,"velocity":0.7480314960629921,"duration":0.5},{"name":"B3","midi":59,"time":133.25,"velocity":0.7480314960629921,"duration":0.25},{"name":"B3","midi":59,"time":134.5,"velocity":0.7480314960629921,"duration":0.5},{"name":"B3","midi":59,"time":135.25,"velocity":0.7480314960629921,"duration":0.25},{"name":"C4","midi":60,"time":136.5,"velocity":0.7480314960629921,"duration":0.5},{"name":"C4","midi":60,"time":137.25,"velocity":0.7480314960629921,"duration":0.25},{"name":"C4","midi":60,"time":138.5,"velocity":0.7480314960629921,"duration":0.5},{"name":"C4","midi":60,"time":139,"velocity":0.7480314960629921,"duration":1},{"name":"B3","midi":59,"time":140.5,"velocity":0.7480314960629921,"duration":0.5},{"name":"B3","midi":59,"time":141.25,"velocity":0.7480314960629921,"duration":0.25},{"name":"G4","midi":67,"time":142,"velocity":0.7480314960629921,"duration":2}],"controlChanges":{"7":[{"number":7,"time":0,"value":1}],"10":[{"number":10,"time":0,"value":0.6929133858267716}],"91":[{"number":91,"time":0,"value":0.7007874015748031}],"93":[{"number":93,"time":0,"value":0.6220472440944882}]},"id":6,"name":"Organ","instrumentNumber":16,"instrument":"drawbar organ","instrumentFamily":"organ","channelNumber":5,"isPercussion":false},{"startTime":0,"duration":144,"length":227,"notes":[{"name":"G2","midi":43,"time":0,"velocity":1,"duration":0.4},{"name":"G2","midi":43,"time":0.75,"velocity":1,"duration":0.19999999999999996},{"name":"G2","midi":43,"time":1,"velocity":1,"duration":0.3999999999999999},{"name":"G2","midi":43,"time":2,"velocity":1,"duration":0.5},{"name":"G2","midi":43,"time":2.75,"velocity":1,"duration":0.25},{"name":"G2","midi":43,"time":3,"velocity":1,"duration":0.5},{"name":"G2","midi":43,"time":4,"velocity":1,"duration":0.5},{"name":"G2","midi":43,"time":4.75,"velocity":1,"duration":0.25},{"name":"G2","midi":43,"time":5,"velocity":1,"duration":0.5},{"name":"G2","midi":43,"time":6,"velocity":1,"duration":0.5},{"name":"G2","midi":43,"time":6.75,"velocity":1,"duration":0.25},{"name":"G2","midi":43,"time":7,"velocity":1,"duration":0.5},{"name":"G2","midi":43,"time":8,"velocity":1,"duration":0.5},{"name":"G2","midi":43,"time":8.75,"velocity":1,"duration":0.25},{"name":"G2","midi":43,"time":9,"velocity":1,"duration":0.5},{"name":"G2","midi":43,"time":10,"velocity":1,"duration":0.5},{"name":"G2","midi":43,"time":10.75,"velocity":1,"duration":0.25},{"name":"G2","midi":43,"time":11,"velocity":1,"duration":0.5},{"name":"G2","midi":43,"time":12,"velocity":1,"duration":0.5},{"name":"G2","midi":43,"time":12.75,"velocity":1,"duration":0.25},{"name":"G2","midi":43,"time":13,"velocity":1,"duration":0.5},{"name":"G2","midi":43,"time":14,"velocity":1,"duration":0.5},{"name":"G2","midi":43,"time":14.75,"velocity":1,"duration":0.25},{"name":"G2","midi":43,"time":15,"velocity":1,"duration":0.5},{"name":"A2","midi":45,"time":16,"velocity":1,"duration":0.5},{"name":"A2","midi":45,"time":16.75,"velocity":1,"duration":0.25},{"name":"E3","midi":52,"time":17,"velocity":1,"duration":0.5},{"name":"A2","midi":45,"time":18,"velocity":1,"duration":0.5},{"name":"A2","midi":45,"time":18.75,"velocity":1,"duration":0.25},{"name":"E3","midi":52,"time":19,"velocity":1,"duration":0.5},{"name":"D3","midi":50,"time":20,"velocity":1,"duration":0.5},{"name":"D3","midi":50,"time":20.75,"velocity":1,"duration":0.25},{"name":"A2","midi":45,"time":21,"velocity":1,"duration":0.5},{"name":"D3","midi":50,"time":22,"velocity":1,"duration":0.5},{"name":"D3","midi":50,"time":22.75,"velocity":1,"duration":0.25},{"name":"A2","midi":45,"time":23,"velocity":1,"duration":0.5},{"name":"G2","midi":43,"time":24,"velocity":1,"duration":0.5},{"name":"G2","midi":43,"time":24.75,"velocity":1,"duration":0.25},{"name":"G2","midi":43,"time":25,"velocity":1,"duration":0.5},{"name":"G2","midi":43,"time":26,"velocity":1,"duration":0.5},{"name":"G2","midi":43,"time":26.75,"velocity":1,"duration":0.25},{"name":"G2","midi":43,"time":27,"velocity":1,"duration":0.5},{"name":"C3","midi":48,"time":28,"velocity":1,"duration":0.5},{"name":"C3","midi":48,"time":28.75,"velocity":1,"duration":0.25},{"name":"G2","midi":43,"time":29,"velocity":1,"duration":0.5},{"name":"C3","midi":48,"time":30,"velocity":1,"duration":0.5},{"name":"C3","midi":48,"time":30.75,"velocity":1,"duration":0.25},{"name":"G2","midi":43,"time":31,"velocity":1,"duration":0.5},{"name":"C3","midi":48,"time":31.5,"velocity":1,"duration":0.5},{"name":"G2","midi":43,"time":32,"velocity":1,"duration":0.5},{"name":"G2","midi":43,"time":32.75,"velocity":1,"duration":0.25},{"name":"D3","midi":50,"time":33,"velocity":1,"duration":0.5},{"name":"A2","midi":45,"time":34,"velocity":1,"duration":0.5},{"name":"A2","midi":45,"time":34.75,"velocity":1,"duration":0.25},{"name":"D3","midi":50,"time":35,"velocity":1,"duration":0.5},{"name":"G2","midi":43,"time":36,"velocity":1,"duration":0.5},{"name":"G2","midi":43,"time":36.75,"velocity":1,"duration":0.25},{"name":"D2","midi":38,"time":37,"velocity":1,"duration":0.5},{"name":"D2","midi":38,"time":37.5,"velocity":1,"duration":0.5},{"name":"G2","midi":43,"time":38,"velocity":1,"duration":0.5},{"name":"G2","midi":43,"time":38.5,"velocity":1,"duration":0.25},{"name":"G2","midi":43,"time":38.75,"velocity":1,"duration":0.5},{"name":"G2","midi":43,"time":39.25,"velocity":1,"duration":0.25},{"name":"G2","midi":43,"time":39.5,"velocity":1,"duration":0.25},{"name":"G2","midi":43,"time":39.75,"velocity":1,"duration":0.25},{"name":"A2","midi":45,"time":40,"velocity":1,"duration":0.5},{"name":"A2","midi":45,"time":40.75,"velocity":1,"duration":0.25},{"name":"E3","midi":52,"time":41,"velocity":1,"duration":0.5},{"name":"D3","midi":50,"time":42,"velocity":1,"duration":0.5},{"name":"D3","midi":50,"time":42.75,"velocity":1,"duration":0.25},{"name":"D3","midi":50,"time":43,"velocity":1,"duration":0.5},{"name":"G3","midi":55,"time":44,"velocity":1,"duration":0.5},{"name":"G3","midi":55,"time":44.75,"velocity":1,"duration":0.25},{"name":"G3","midi":55,"time":45,"velocity":1,"duration":0.5},{"name":"E3","midi":52,"time":46,"velocity":1,"duration":0.5},{"name":"E3","midi":52,"time":46.75,"velocity":1,"duration":0.25},{"name":"B2","midi":47,"time":47,"velocity":1,"duration":0.5},{"name":"A2","midi":45,"time":48,"velocity":1,"duration":0.5},{"name":"A2","midi":45,"time":48.75,"velocity":1,"duration":0.25},{"name":"E3","midi":52,"time":49,"velocity":1,"duration":0.5},{"name":"D3","midi":50,"time":50,"velocity":1,"duration":0.5},{"name":"D3","midi":50,"time":50.75,"velocity":1,"duration":0.25},{"name":"A2","midi":45,"time":51,"velocity":1,"duration":0.5},{"name":"D3","midi":50,"time":51.5,"velocity":1,"duration":0.5},{"name":"A2","midi":45,"time":52,"velocity":1,"duration":0.5},{"name":"A2","midi":45,"time":52.75,"velocity":1,"duration":0.25},{"name":"E3","midi":52,"time":53,"velocity":1,"duration":0.5},{"name":"A2","midi":45,"time":53.5,"velocity":1,"duration":0.5},{"name":"D3","midi":50,"time":54,"velocity":1,"duration":0.5},{"name":"D3","midi":50,"time":54.75,"velocity":1,"duration":0.25},{"name":"A#2","midi":46,"time":55,"velocity":1,"duration":0.5},{"name":"D3","midi":50,"time":55.5,"velocity":1,"duration":0.5},{"name":"G2","midi":43,"time":56,"velocity":1,"duration":0.5},{"name":"G2","midi":43,"time":56.75,"velocity":1,"duration":0.25},{"name":"G2","midi":43,"time":57,"velocity":1,"duration":0.5},{"name":"G2","midi":43,"time":58,"velocity":1,"duration":0.5},{"name":"G2","midi":43,"time":58.75,"velocity":1,"duration":0.25},{"name":"G2","midi":43,"time":59,"velocity":1,"duration":0.5},{"name":"G2","midi":43,"time":60,"velocity":1,"duration":0.5},{"name":"G2","midi":43,"time":60.75,"velocity":1,"duration":0.25},{"name":"G2","midi":43,"time":61,"velocity":1,"duration":0.5},{"name":"G2","midi":43,"time":62,"velocity":1,"duration":0.5},{"name":"G2","midi":43,"time":62.75,"velocity":1,"duration":0.25},{"name":"G2","midi":43,"time":63,"velocity":1,"duration":0.5},{"name":"A2","midi":45,"time":64,"velocity":1,"duration":0.5},{"name":"A2","midi":45,"time":64.75,"velocity":1,"duration":0.25},{"name":"E3","midi":52,"time":65.5,"velocity":1,"duration":0.5},{"name":"A2","midi":45,"time":66,"velocity":1,"duration":0.5},{"name":"A2","midi":45,"time":67,"velocity":1,"duration":0.5},{"name":"D3","midi":50,"time":68,"velocity":1,"duration":0.5},{"name":"D3","midi":50,"time":68.75,"velocity":1,"duration":0.25},{"name":"A2","midi":45,"time":69,"velocity":1,"duration":0.5},{"name":"D3","midi":50,"time":70,"velocity":1,"duration":0.5},{"name":"D3","midi":50,"time":70.75,"velocity":1,"duration":0.25},{"name":"A2","midi":45,"time":71,"velocity":1,"duration":0.5},{"name":"G2","midi":43,"time":72,"velocity":1,"duration":0.5},{"name":"G2","midi":43,"time":72.75,"velocity":1,"duration":0.25},{"name":"G2","midi":43,"time":73,"velocity":1,"duration":0.5},{"name":"G2","midi":43,"time":74,"velocity":1,"duration":0.5},{"name":"G2","midi":43,"time":74.75,"velocity":1,"duration":0.25},{"name":"G2","midi":43,"time":75,"velocity":1,"duration":0.5},{"name":"C3","midi":48,"time":76,"velocity":1,"duration":0.5},{"name":"C3","midi":48,"time":76.75,"velocity":1,"duration":0.25},{"name":"G2","midi":43,"time":77,"velocity":1,"duration":0.5},{"name":"C3","midi":48,"time":78,"velocity":1,"duration":0.5},{"name":"C3","midi":48,"time":78.75,"velocity":1,"duration":0.25},{"name":"G2","midi":43,"time":79,"velocity":1,"duration":0.5},{"name":"C3","midi":48,"time":79.5,"velocity":1,"duration":0.5},{"name":"G2","midi":43,"time":80,"velocity":1,"duration":0.5},{"name":"G2","midi":43,"time":80.75,"velocity":1,"duration":0.25},{"name":"D3","midi":50,"time":81,"velocity":1,"duration":0.5},{"name":"A2","midi":45,"time":82,"velocity":1,"duration":0.5},{"name":"A2","midi":45,"time":82.75,"velocity":1,"duration":0.25},{"name":"D3","midi":50,"time":83,"velocity":1,"duration":0.5},{"name":"G3","midi":55,"time":84,"velocity":1,"duration":0.5},{"name":"G3","midi":55,"time":84.75,"velocity":1,"duration":0.25},{"name":"D3","midi":50,"time":85,"velocity":1,"duration":0.5},{"name":"G3","midi":55,"time":85.5,"velocity":1,"duration":0.5},{"name":"D#3","midi":51,"time":86,"velocity":1,"duration":0.5},{"name":"D#3","midi":51,"time":86.75,"velocity":1,"duration":0.25},{"name":"D3","midi":50,"time":87,"velocity":1,"duration":0.5},{"name":"G2","midi":43,"time":88,"velocity":1,"duration":0.5},{"name":"G2","midi":43,"time":88.75,"velocity":1,"duration":0.25},{"name":"G2","midi":43,"time":89,"velocity":1,"duration":0.5},{"name":"G2","midi":43,"time":90,"velocity":1,"duration":0.5},{"name":"G2","midi":43,"time":90.75,"velocity":1,"duration":0.25},{"name":"G2","midi":43,"time":91,"velocity":1,"duration":0.5},{"name":"G2","midi":43,"time":92,"velocity":1,"duration":0.5},{"name":"G2","midi":43,"time":92.75,"velocity":1,"duration":0.25},{"name":"G2","midi":43,"time":93,"velocity":1,"duration":0.5},{"name":"G2","midi":43,"time":94,"velocity":1,"duration":0.5},{"name":"G2","midi":43,"time":94.75,"velocity":1,"duration":0.25},{"name":"G2","midi":43,"time":95,"velocity":1,"duration":0.5},{"name":"C3","midi":48,"time":96,"velocity":1,"duration":0.5},{"name":"C3","midi":48,"time":96.75,"velocity":1,"duration":0.25},{"name":"G2","midi":43,"time":97,"velocity":1,"duration":0.5},{"name":"A2","midi":45,"time":98,"velocity":1,"duration":0.5},{"name":"A2","midi":45,"time":98.75,"velocity":1,"duration":0.25},{"name":"D3","midi":50,"time":99,"velocity":1,"duration":0.5},{"name":"G3","midi":55,"time":100,"velocity":1,"duration":0.5},{"name":"G3","midi":55,"time":100.75,"velocity":1,"duration":0.25},{"name":"D3","midi":50,"time":101,"velocity":1,"duration":0.5},{"name":"G3","midi":55,"time":101.5,"velocity":1,"duration":0.5},{"name":"D#3","midi":51,"time":102,"velocity":1,"duration":0.5},{"name":"D#3","midi":51,"time":102.75,"velocity":1,"duration":0.25},{"name":"D3","midi":50,"time":103,"velocity":1,"duration":1},{"name":"G2","midi":43,"time":104,"velocity":1,"duration":0.5},{"name":"G2","midi":43,"time":104.75,"velocity":1,"duration":0.25},{"name":"G2","midi":43,"time":105,"velocity":1,"duration":0.5},{"name":"G2","midi":43,"time":106,"velocity":1,"duration":0.5},{"name":"G2","midi":43,"time":106.75,"velocity":1,"duration":0.25},{"name":"G2","midi":43,"time":107,"velocity":1,"duration":0.5},{"name":"G2","midi":43,"time":108,"velocity":1,"duration":0.5},{"name":"G2","midi":43,"time":108.75,"velocity":1,"duration":0.25},{"name":"G2","midi":43,"time":109,"velocity":1,"duration":0.5},{"name":"G2","midi":43,"time":110,"velocity":1,"duration":0.5},{"name":"G2","midi":43,"time":110.75,"velocity":1,"duration":0.25},{"name":"G2","midi":43,"time":111,"velocity":1,"duration":0.5},{"name":"A2","midi":45,"time":112,"velocity":1,"duration":0.5},{"name":"A2","midi":45,"time":112.75,"velocity":1,"duration":0.25},{"name":"E3","midi":52,"time":113.5,"velocity":1,"duration":0.5},{"name":"A2","midi":45,"time":114,"velocity":1,"duration":0.5},{"name":"A2","midi":45,"time":115,"velocity":1,"duration":0.5},{"name":"D3","midi":50,"time":116,"velocity":1,"duration":0.5},{"name":"D3","midi":50,"time":116.75,"velocity":1,"duration":0.25},{"name":"A2","midi":45,"time":117,"velocity":1,"duration":0.5},{"name":"D3","midi":50,"time":118,"velocity":1,"duration":0.5},{"name":"D3","midi":50,"time":118.75,"velocity":1,"duration":0.25},{"name":"A2","midi":45,"time":119,"velocity":1,"duration":0.5},{"name":"G2","midi":43,"time":120,"velocity":1,"duration":0.5},{"name":"G2","midi":43,"time":120.75,"velocity":1,"duration":0.25},{"name":"G2","midi":43,"time":121,"velocity":1,"duration":0.5},{"name":"G2","midi":43,"time":122,"velocity":1,"duration":0.5},{"name":"G2","midi":43,"time":122.75,"velocity":1,"duration":0.25},{"name":"G2","midi":43,"time":123,"velocity":1,"duration":0.5},{"name":"C3","midi":48,"time":124,"velocity":1,"duration":0.5},{"name":"C3","midi":48,"time":124.75,"velocity":1,"duration":0.25},{"name":"G2","midi":43,"time":125,"velocity":1,"duration":0.5},{"name":"C3","midi":48,"time":126,"velocity":1,"duration":0.5},{"name":"C3","midi":48,"time":126.75,"velocity":1,"duration":0.25},{"name":"G2","midi":43,"time":127,"velocity":1,"duration":0.5},{"name":"C3","midi":48,"time":127.5,"velocity":1,"duration":0.5},{"name":"G2","midi":43,"time":128,"velocity":1,"duration":0.5},{"name":"G2","midi":43,"time":128.75,"velocity":1,"duration":0.25},{"name":"D3","midi":50,"time":129,"velocity":1,"duration":0.5},{"name":"A2","midi":45,"time":130,"velocity":1,"duration":0.5},{"name":"A2","midi":45,"time":130.75,"velocity":1,"duration":0.25},{"name":"D3","midi":50,"time":131,"velocity":1,"duration":0.5},{"name":"G2","midi":43,"time":132,"velocity":1,"duration":0.5},{"name":"G2","midi":43,"time":132.75,"velocity":1,"duration":0.25},{"name":"D3","midi":50,"time":133,"velocity":1,"duration":0.5},{"name":"G2","midi":43,"time":133.5,"velocity":1,"duration":0.5},{"name":"E3","midi":52,"time":134,"velocity":1,"duration":0.5},{"name":"E3","midi":52,"time":134.75,"velocity":1,"duration":0.25},{"name":"B2","midi":47,"time":135,"velocity":1,"duration":0.5},{"name":"E3","midi":52,"time":135.5,"velocity":1,"duration":0.5},{"name":"A2","midi":45,"time":136,"velocity":1,"duration":0.5},{"name":"A2","midi":45,"time":136.75,"velocity":1,"duration":0.25},{"name":"E3","midi":52,"time":137,"velocity":1,"duration":0.5},{"name":"D3","midi":50,"time":138,"velocity":1,"duration":0.5},{"name":"D3","midi":50,"time":138.75,"velocity":1,"duration":0.25},{"name":"D3","midi":50,"time":139,"velocity":1,"duration":0.5},{"name":"G3","midi":55,"time":140,"velocity":1,"duration":0.5},{"name":"G3","midi":55,"time":140.75,"velocity":1,"duration":0.25},{"name":"D3","midi":50,"time":141,"velocity":1,"duration":0.5},{"name":"B2","midi":47,"time":141.5,"velocity":1,"duration":0.5},{"name":"G2","midi":43,"time":142,"velocity":1,"duration":2}],"controlChanges":{"7":[{"number":7,"time":0,"value":0.889763779527559}],"10":[{"number":10,"time":0,"value":0.6929133858267716}],"91":[{"number":91,"time":0,"value":0.7007874015748031}],"93":[{"number":93,"time":0,"value":0.6220472440944882}]},"id":7,"name":"Organ","instrumentNumber":16,"instrument":"drawbar organ","instrumentFamily":"organ","channelNumber":6,"isPercussion":false},{"startTime":1.5,"duration":144,"length":77,"notes":[{"name":"A#2","midi":46,"time":1.5,"velocity":0.7480314960629921,"duration":0.125},{"name":"A#2","midi":46,"time":3.5,"velocity":0.7480314960629921,"duration":0.125},{"name":"A#2","midi":46,"time":5.5,"velocity":0.7480314960629921,"duration":0.125},{"name":"A#2","midi":46,"time":7.5,"velocity":0.6299212598425197,"duration":0.40000000000000036},{"name":"A#2","midi":46,"time":9.5,"velocity":0.7480314960629921,"duration":0.125},{"name":"A#2","midi":46,"time":11.5,"velocity":0.7480314960629921,"duration":0.125},{"name":"A#2","midi":46,"time":13.5,"velocity":0.7480314960629921,"duration":0.125},{"name":"A#2","midi":46,"time":15.5,"velocity":0.7480314960629921,"duration":0.125},{"name":"A#2","midi":46,"time":17.5,"velocity":0.7480314960629921,"duration":0.125},{"name":"A#2","midi":46,"time":19.5,"velocity":0.7480314960629921,"duration":0.125},{"name":"A#2","midi":46,"time":21.5,"velocity":0.7480314960629921,"duration":0.125},{"name":"A#2","midi":46,"time":23.5,"velocity":0.7480314960629921,"duration":0.125},{"name":"A#2","midi":46,"time":25.5,"velocity":0.7480314960629921,"duration":0.125},{"name":"A#2","midi":46,"time":27.5,"velocity":0.7480314960629921,"duration":0.125},{"name":"A#2","midi":46,"time":29.5,"velocity":0.7480314960629921,"duration":0.125},{"name":"A#2","midi":46,"time":31.5,"velocity":0.7480314960629921,"duration":0.125},{"name":"A#2","midi":46,"time":33.5,"velocity":0.7480314960629921,"duration":0.125},{"name":"A#2","midi":46,"time":35.5,"velocity":0.7480314960629921,"duration":0.125},{"name":"A#2","midi":46,"time":37.5,"velocity":0.7480314960629921,"duration":0.125},{"name":"A#2","midi":46,"time":38.75,"velocity":0.7480314960629921,"duration":0.125},{"name":"A#2","midi":46,"time":39,"velocity":0.7480314960629921,"duration":0.125},{"name":"A#2","midi":46,"time":39.25,"velocity":0.7480314960629921,"duration":0.125},{"name":"A#2","midi":46,"time":39.5,"velocity":0.7480314960629921,"duration":0.125},{"name":"A#2","midi":46,"time":39.75,"velocity":0.7480314960629921,"duration":0.125},{"name":"A#2","midi":46,"time":40,"velocity":0.7480314960629921,"duration":0.125},{"name":"A#2","midi":46,"time":41.5,"velocity":0.7480314960629921,"duration":0.125},{"name":"A#2","midi":46,"time":43.5,"velocity":0.7480314960629921,"duration":0.125},{"name":"A#2","midi":46,"time":45.5,"velocity":0.7480314960629921,"duration":0.125},{"name":"A#2","midi":46,"time":47.5,"velocity":0.7480314960629921,"duration":0.125},{"name":"A#2","midi":46,"time":49.5,"velocity":0.7480314960629921,"duration":0.125},{"name":"A#2","midi":46,"time":51.5,"velocity":0.7480314960629921,"duration":0.125},{"name":"A#2","midi":46,"time":53.5,"velocity":0.7480314960629921,"duration":0.125},{"name":"A#2","midi":46,"time":55.5,"velocity":0.7480314960629921,"duration":0.125},{"name":"A#2","midi":46,"time":57.5,"velocity":0.7480314960629921,"duration":0.125},{"name":"A#2","midi":46,"time":59.5,"velocity":0.7480314960629921,"duration":0.125},{"name":"A#2","midi":46,"time":61.5,"velocity":0.7480314960629921,"duration":0.125},{"name":"A#2","midi":46,"time":63.5,"velocity":0.7480314960629921,"duration":0.125},{"name":"A#2","midi":46,"time":65.5,"velocity":0.7480314960629921,"duration":0.125},{"name":"A#2","midi":46,"time":67.5,"velocity":0.7480314960629921,"duration":0.125},{"name":"A#2","midi":46,"time":69.5,"velocity":0.7480314960629921,"duration":0.125},{"name":"A#2","midi":46,"time":71.5,"velocity":0.7480314960629921,"duration":0.125},{"name":"A#2","midi":46,"time":73.5,"velocity":0.7480314960629921,"duration":0.125},{"name":"A#2","midi":46,"time":75.5,"velocity":0.7480314960629921,"duration":0.125},{"name":"A#2","midi":46,"time":77.5,"velocity":0.7480314960629921,"duration":0.125},{"name":"A#2","midi":46,"time":79.5,"velocity":0.7480314960629921,"duration":0.125},{"name":"A#2","midi":46,"time":81.5,"velocity":0.7480314960629921,"duration":0.125},{"name":"A#2","midi":46,"time":83.5,"velocity":0.7480314960629921,"duration":0.125},{"name":"A#2","midi":46,"time":85.5,"velocity":0.7480314960629921,"duration":0.125},{"name":"A#2","midi":46,"time":87.5,"velocity":0.7480314960629921,"duration":0.125},{"name":"A#2","midi":46,"time":89.5,"velocity":0.7480314960629921,"duration":0.125},{"name":"A#2","midi":46,"time":91.5,"velocity":0.7480314960629921,"duration":0.125},{"name":"A#2","midi":46,"time":93.5,"velocity":0.7480314960629921,"duration":0.125},{"name":"A#2","midi":46,"time":95.5,"velocity":0.7480314960629921,"duration":0.125},{"name":"A#2","midi":46,"time":97.5,"velocity":0.7480314960629921,"duration":0.125},{"name":"A#2","midi":46,"time":99.5,"velocity":0.7480314960629921,"duration":0.125},{"name":"A#2","midi":46,"time":101.5,"velocity":0.7480314960629921,"duration":0.125},{"name":"A#2","midi":46,"time":103.5,"velocity":0.7480314960629921,"duration":0.125},{"name":"A#2","midi":46,"time":105.5,"velocity":0.7480314960629921,"duration":0.125},{"name":"A#2","midi":46,"time":107.5,"velocity":0.7480314960629921,"duration":0.125},{"name":"A#2","midi":46,"time":109.5,"velocity":0.7480314960629921,"duration":0.125},{"name":"A#2","midi":46,"time":111.5,"velocity":0.7480314960629921,"duration":0.125},{"name":"A#2","midi":46,"time":113.5,"velocity":0.7480314960629921,"duration":0.125},{"name":"A#2","midi":46,"time":115.5,"velocity":0.7480314960629921,"duration":0.125},{"name":"A#2","midi":46,"time":117.5,"velocity":0.7480314960629921,"duration":0.125},{"name":"A#2","midi":46,"time":119.5,"velocity":0.7480314960629921,"duration":0.125},{"name":"A#2","midi":46,"time":121.5,"velocity":0.7480314960629921,"duration":0.125},{"name":"A#2","midi":46,"time":123.5,"velocity":0.7480314960629921,"duration":0.125},{"name":"A#2","midi":46,"time":125.5,"velocity":0.7480314960629921,"duration":0.125},{"name":"A#2","midi":46,"time":127.5,"velocity":0.7480314960629921,"duration":0.125},{"name":"A#2","midi":46,"time":129.5,"velocity":0.7480314960629921,"duration":0.125},{"name":"A#2","midi":46,"time":131.5,"velocity":0.7480314960629921,"duration":0.125},{"name":"A#2","midi":46,"time":133.5,"velocity":0.7480314960629921,"duration":0.125},{"name":"A#2","midi":46,"time":135.5,"velocity":0.7480314960629921,"duration":0.125},{"name":"A#2","midi":46,"time":137.5,"velocity":0.7480314960629921,"duration":0.125},{"name":"A#2","midi":46,"time":139.5,"velocity":0.7480314960629921,"duration":0.125},{"name":"A#2","midi":46,"time":141.5,"velocity":0.7480314960629921,"duration":0.125},{"name":"C#3","midi":49,"time":142,"velocity":0.7480314960629921,"duration":2}],"controlChanges":{"7":[{"number":7,"time":0,"value":0.6141732283464567}],"10":[{"number":10,"time":0,"value":0.5039370078740157}],"91":[{"number":91,"time":0,"value":0.7795275590551181}],"93":[{"number":93,"time":0,"value":0.2677165354330709}]},"id":8,"name":"Cymbal","channelNumber":9,"isPercussion":true},{"startTime":0,"duration":144,"length":217,"notes":[{"name":"D2","midi":38,"time":0,"velocity":0.84251968503937,"duration":0.125},{"name":"D2","midi":38,"time":0.75,"velocity":0.84251968503937,"duration":0.125},{"name":"D2","midi":38,"time":1,"velocity":0.84251968503937,"duration":0.125},{"name":"D2","midi":38,"time":2,"velocity":0.84251968503937,"duration":0.125},{"name":"D2","midi":38,"time":2.75,"velocity":0.84251968503937,"duration":0.125},{"name":"D2","midi":38,"time":3,"velocity":0.84251968503937,"duration":0.125},{"name":"D2","midi":38,"time":4,"velocity":0.84251968503937,"duration":0.125},{"name":"D2","midi":38,"time":4.75,"velocity":0.84251968503937,"duration":0.125},{"name":"D2","midi":38,"time":5,"velocity":0.84251968503937,"duration":0.125},{"name":"D2","midi":38,"time":6,"velocity":0.6299212598425197,"duration":0.40000000000000036},{"name":"D2","midi":38,"time":6.75,"velocity":0.84251968503937,"duration":0.125},{"name":"D2","midi":38,"time":7,"velocity":0.84251968503937,"duration":0.125},{"name":"D2","midi":38,"time":8,"velocity":0.84251968503937,"duration":0.125},{"name":"D2","midi":38,"time":8.75,"velocity":0.84251968503937,"duration":0.125},{"name":"D2","midi":38,"time":9,"velocity":0.84251968503937,"duration":0.125},{"name":"D2","midi":38,"time":10,"velocity":0.84251968503937,"duration":0.125},{"name":"D2","midi":38,"time":10.75,"velocity":0.84251968503937,"duration":0.125},{"name":"D2","midi":38,"time":11,"velocity":0.84251968503937,"duration":0.125},{"name":"D2","midi":38,"time":12,"velocity":0.84251968503937,"duration":0.125},{"name":"D2","midi":38,"time":12.75,"velocity":0.84251968503937,"duration":0.125},{"name":"D2","midi":38,"time":13,"velocity":0.84251968503937,"duration":0.125},{"name":"D2","midi":38,"time":14,"velocity":0.84251968503937,"duration":0.125},{"name":"D2","midi":38,"time":14.75,"velocity":0.84251968503937,"duration":0.125},{"name":"D2","midi":38,"time":15,"velocity":0.84251968503937,"duration":0.125},{"name":"D2","midi":38,"time":16,"velocity":0.84251968503937,"duration":0.125},{"name":"D2","midi":38,"time":16.75,"velocity":0.84251968503937,"duration":0.125},{"name":"D2","midi":38,"time":17,"velocity":0.84251968503937,"duration":0.125},{"name":"D2","midi":38,"time":18,"velocity":0.84251968503937,"duration":0.125},{"name":"D2","midi":38,"time":18.75,"velocity":0.84251968503937,"duration":0.125},{"name":"D2","midi":38,"time":19,"velocity":0.84251968503937,"duration":0.125},{"name":"D2","midi":38,"time":20,"velocity":0.84251968503937,"duration":0.125},{"name":"D2","midi":38,"time":20.75,"velocity":0.84251968503937,"duration":0.125},{"name":"D2","midi":38,"time":21,"velocity":0.84251968503937,"duration":0.125},{"name":"D2","midi":38,"time":22,"velocity":0.84251968503937,"duration":0.125},{"name":"D2","midi":38,"time":22.75,"velocity":0.84251968503937,"duration":0.125},{"name":"D2","midi":38,"time":23,"velocity":0.84251968503937,"duration":0.125},{"name":"D2","midi":38,"time":24,"velocity":0.84251968503937,"duration":0.125},{"name":"D2","midi":38,"time":24.75,"velocity":0.84251968503937,"duration":0.125},{"name":"D2","midi":38,"time":25,"velocity":0.84251968503937,"duration":0.125},{"name":"D2","midi":38,"time":26,"velocity":0.84251968503937,"duration":0.125},{"name":"D2","midi":38,"time":26.75,"velocity":0.84251968503937,"duration":0.125},{"name":"D2","midi":38,"time":27,"velocity":0.84251968503937,"duration":0.125},{"name":"D2","midi":38,"time":28,"velocity":0.84251968503937,"duration":0.125},{"name":"D2","midi":38,"time":28.75,"velocity":0.84251968503937,"duration":0.125},{"name":"D2","midi":38,"time":29,"velocity":0.84251968503937,"duration":0.125},{"name":"D2","midi":38,"time":30,"velocity":0.84251968503937,"duration":0.125},{"name":"D2","midi":38,"time":30.75,"velocity":0.84251968503937,"duration":0.125},{"name":"D2","midi":38,"time":31,"velocity":0.84251968503937,"duration":0.125},{"name":"D2","midi":38,"time":32,"velocity":0.84251968503937,"duration":0.125},{"name":"D2","midi":38,"time":32.75,"velocity":0.84251968503937,"duration":0.125},{"name":"D2","midi":38,"time":33,"velocity":0.84251968503937,"duration":0.125},{"name":"D2","midi":38,"time":34,"velocity":0.84251968503937,"duration":0.125},{"name":"D2","midi":38,"time":34.75,"velocity":0.84251968503937,"duration":0.125},{"name":"D2","midi":38,"time":35,"velocity":0.84251968503937,"duration":0.125},{"name":"D2","midi":38,"time":36,"velocity":0.84251968503937,"duration":0.125},{"name":"D2","midi":38,"time":36.75,"velocity":0.84251968503937,"duration":0.125},{"name":"D2","midi":38,"time":37,"velocity":0.84251968503937,"duration":0.125},{"name":"D2","midi":38,"time":38,"velocity":0.84251968503937,"duration":0.125},{"name":"D2","midi":38,"time":38.75,"velocity":0.84251968503937,"duration":0.125},{"name":"D2","midi":38,"time":39,"velocity":0.84251968503937,"duration":0.125},{"name":"D2","midi":38,"time":39.25,"velocity":0.84251968503937,"duration":0.125},{"name":"D2","midi":38,"time":39.5,"velocity":0.84251968503937,"duration":0.125},{"name":"D2","midi":38,"time":39.75,"velocity":0.84251968503937,"duration":0.125},{"name":"D2","midi":38,"time":40,"velocity":0.84251968503937,"duration":0.125},{"name":"D2","midi":38,"time":40.75,"velocity":0.84251968503937,"duration":0.125},{"name":"D2","midi":38,"time":41,"velocity":0.84251968503937,"duration":0.125},{"name":"D2","midi":38,"time":42,"velocity":0.84251968503937,"duration":0.125},{"name":"D2","midi":38,"time":42.75,"velocity":0.84251968503937,"duration":0.125},{"name":"D2","midi":38,"time":43,"velocity":0.84251968503937,"duration":0.125},{"name":"D2","midi":38,"time":44,"velocity":0.84251968503937,"duration":0.125},{"name":"D2","midi":38,"time":44.75,"velocity":0.84251968503937,"duration":0.125},{"name":"D2","midi":38,"time":45,"velocity":0.84251968503937,"duration":0.125},{"name":"D2","midi":38,"time":46,"velocity":0.84251968503937,"duration":0.125},{"name":"D2","midi":38,"time":46.75,"velocity":0.84251968503937,"duration":0.125},{"name":"D2","midi":38,"time":47,"velocity":0.84251968503937,"duration":0.125},{"name":"D2","midi":38,"time":48,"velocity":0.84251968503937,"duration":0.125},{"name":"D2","midi":38,"time":48.75,"velocity":0.84251968503937,"duration":0.125},{"name":"D2","midi":38,"time":49,"velocity":0.84251968503937,"duration":0.125},{"name":"D2","midi":38,"time":50,"velocity":0.84251968503937,"duration":0.125},{"name":"D2","midi":38,"time":50.75,"velocity":0.84251968503937,"duration":0.125},{"name":"D2","midi":38,"time":51,"velocity":0.84251968503937,"duration":0.125},{"name":"D2","midi":38,"time":52,"velocity":0.84251968503937,"duration":0.125},{"name":"D2","midi":38,"time":52.75,"velocity":0.84251968503937,"duration":0.125},{"name":"D2","midi":38,"time":53,"velocity":0.84251968503937,"duration":0.125},{"name":"D2","midi":38,"time":54,"velocity":0.84251968503937,"duration":0.125},{"name":"D2","midi":38,"time":54.75,"velocity":0.84251968503937,"duration":0.125},{"name":"D2","midi":38,"time":55,"velocity":0.84251968503937,"duration":0.125},{"name":"D2","midi":38,"time":56,"velocity":0.84251968503937,"duration":0.125},{"name":"D2","midi":38,"time":56.75,"velocity":0.84251968503937,"duration":0.125},{"name":"D2","midi":38,"time":57,"velocity":0.84251968503937,"duration":0.125},{"name":"D2","midi":38,"time":58,"velocity":0.84251968503937,"duration":0.125},{"name":"D2","midi":38,"time":58.75,"velocity":0.84251968503937,"duration":0.125},{"name":"D2","midi":38,"time":59,"velocity":0.84251968503937,"duration":0.125},{"name":"D2","midi":38,"time":60,"velocity":0.84251968503937,"duration":0.125},{"name":"D2","midi":38,"time":60.75,"velocity":0.84251968503937,"duration":0.125},{"name":"D2","midi":38,"time":61,"velocity":0.84251968503937,"duration":0.125},{"name":"D2","midi":38,"time":62,"velocity":0.84251968503937,"duration":0.125},{"name":"D2","midi":38,"time":62.75,"velocity":0.84251968503937,"duration":0.125},{"name":"D2","midi":38,"time":63,"velocity":0.84251968503937,"duration":0.125},{"name":"D2","midi":38,"time":64,"velocity":0.84251968503937,"duration":0.125},{"name":"D2","midi":38,"time":64.75,"velocity":0.84251968503937,"duration":0.125},{"name":"D2","midi":38,"time":65,"velocity":0.84251968503937,"duration":0.125},{"name":"D2","midi":38,"time":66,"velocity":0.84251968503937,"duration":0.125},{"name":"D2","midi":38,"time":66.75,"velocity":0.84251968503937,"duration":0.125},{"name":"D2","midi":38,"time":67,"velocity":0.84251968503937,"duration":0.125},{"name":"D2","midi":38,"time":68,"velocity":0.84251968503937,"duration":0.125},{"name":"D2","midi":38,"time":68.75,"velocity":0.84251968503937,"duration":0.125},{"name":"D2","midi":38,"time":69,"velocity":0.84251968503937,"duration":0.125},{"name":"D2","midi":38,"time":70,"velocity":0.84251968503937,"duration":0.125},{"name":"D2","midi":38,"time":70.75,"velocity":0.84251968503937,"duration":0.125},{"name":"D2","midi":38,"time":71,"velocity":0.84251968503937,"duration":0.125},{"name":"D2","midi":38,"time":72,"velocity":0.84251968503937,"duration":0.125},{"name":"D2","midi":38,"time":72.75,"velocity":0.84251968503937,"duration":0.125},{"name":"D2","midi":38,"time":73,"velocity":0.84251968503937,"duration":0.125},{"name":"D2","midi":38,"time":74,"velocity":0.84251968503937,"duration":0.125},{"name":"D2","midi":38,"time":74.75,"velocity":0.84251968503937,"duration":0.125},{"name":"D2","midi":38,"time":75,"velocity":0.84251968503937,"duration":0.125},{"name":"D2","midi":38,"time":76,"velocity":0.84251968503937,"duration":0.125},{"name":"D2","midi":38,"time":76.75,"velocity":0.84251968503937,"duration":0.125},{"name":"D2","midi":38,"time":77,"velocity":0.84251968503937,"duration":0.125},{"name":"D2","midi":38,"time":78,"velocity":0.84251968503937,"duration":0.125},{"name":"D2","midi":38,"time":78.75,"velocity":0.84251968503937,"duration":0.125},{"name":"D2","midi":38,"time":79,"velocity":0.84251968503937,"duration":0.125},{"name":"D2","midi":38,"time":80,"velocity":0.84251968503937,"duration":0.125},{"name":"D2","midi":38,"time":80.75,"velocity":0.84251968503937,"duration":0.125},{"name":"D2","midi":38,"time":81,"velocity":0.84251968503937,"duration":0.125},{"name":"D2","midi":38,"time":82,"velocity":0.84251968503937,"duration":0.125},{"name":"D2","midi":38,"time":82.75,"velocity":0.84251968503937,"duration":0.125},{"name":"D2","midi":38,"time":83,"velocity":0.84251968503937,"duration":0.125},{"name":"D2","midi":38,"time":84,"velocity":0.84251968503937,"duration":0.125},{"name":"D2","midi":38,"time":84.75,"velocity":0.84251968503937,"duration":0.125},{"name":"D2","midi":38,"time":85,"velocity":0.84251968503937,"duration":0.125},{"name":"D2","midi":38,"time":86,"velocity":0.84251968503937,"duration":0.125},{"name":"D2","midi":38,"time":86.75,"velocity":0.84251968503937,"duration":0.125},{"name":"D2","midi":38,"time":87,"velocity":0.84251968503937,"duration":0.125},{"name":"D2","midi":38,"time":88,"velocity":0.84251968503937,"duration":0.125},{"name":"D2","midi":38,"time":88.75,"velocity":0.84251968503937,"duration":0.125},{"name":"D2","midi":38,"time":89,"velocity":0.84251968503937,"duration":0.125},{"name":"D2","midi":38,"time":90,"velocity":0.84251968503937,"duration":0.125},{"name":"D2","midi":38,"time":90.75,"velocity":0.84251968503937,"duration":0.125},{"name":"D2","midi":38,"time":91,"velocity":0.84251968503937,"duration":0.125},{"name":"D2","midi":38,"time":92,"velocity":0.84251968503937,"duration":0.125},{"name":"D2","midi":38,"time":92.75,"velocity":0.84251968503937,"duration":0.125},{"name":"D2","midi":38,"time":93,"velocity":0.84251968503937,"duration":0.125},{"name":"D2","midi":38,"time":94,"velocity":0.84251968503937,"duration":0.125},{"name":"D2","midi":38,"time":94.75,"velocity":0.84251968503937,"duration":0.125},{"name":"D2","midi":38,"time":95,"velocity":0.84251968503937,"duration":0.125},{"name":"D2","midi":38,"time":96,"velocity":0.84251968503937,"duration":0.125},{"name":"D2","midi":38,"time":96.75,"velocity":0.84251968503937,"duration":0.125},{"name":"D2","midi":38,"time":97,"velocity":0.84251968503937,"duration":0.125},{"name":"D2","midi":38,"time":98,"velocity":0.84251968503937,"duration":0.125},{"name":"D2","midi":38,"time":98.75,"velocity":0.84251968503937,"duration":0.125},{"name":"D2","midi":38,"time":99,"velocity":0.84251968503937,"duration":0.125},{"name":"D2","midi":38,"time":100,"velocity":0.84251968503937,"duration":0.125},{"name":"D2","midi":38,"time":100.75,"velocity":0.84251968503937,"duration":0.125},{"name":"D2","midi":38,"time":101,"velocity":0.84251968503937,"duration":0.125},{"name":"D2","midi":38,"time":102,"velocity":0.84251968503937,"duration":0.125},{"name":"D2","midi":38,"time":102.75,"velocity":0.84251968503937,"duration":0.125},{"name":"D2","midi":38,"time":103,"velocity":0.84251968503937,"duration":0.125},{"name":"D2","midi":38,"time":104,"velocity":0.84251968503937,"duration":0.125},{"name":"D2","midi":38,"time":104.75,"velocity":0.84251968503937,"duration":0.125},{"name":"D2","midi":38,"time":105,"velocity":0.84251968503937,"duration":0.125},{"name":"D2","midi":38,"time":106,"velocity":0.84251968503937,"duration":0.125},{"name":"D2","midi":38,"time":106.75,"velocity":0.84251968503937,"duration":0.125},{"name":"D2","midi":38,"time":107,"velocity":0.84251968503937,"duration":0.125},{"name":"D2","midi":38,"time":108,"velocity":0.84251968503937,"duration":0.125},{"name":"D2","midi":38,"time":108.75,"velocity":0.84251968503937,"duration":0.125},{"name":"D2","midi":38,"time":109,"velocity":0.84251968503937,"duration":0.125},{"name":"D2","midi":38,"time":110,"velocity":0.84251968503937,"duration":0.125},{"name":"D2","midi":38,"time":110.75,"velocity":0.84251968503937,"duration":0.125},{"name":"D2","midi":38,"time":111,"velocity":0.84251968503937,"duration":0.125},{"name":"D2","midi":38,"time":112,"velocity":0.84251968503937,"duration":0.125},{"name":"D2","midi":38,"time":112.75,"velocity":0.84251968503937,"duration":0.125},{"name":"D2","midi":38,"time":113,"velocity":0.84251968503937,"duration":0.125},{"name":"D2","midi":38,"time":114,"velocity":0.84251968503937,"duration":0.125},{"name":"D2","midi":38,"time":114.75,"velocity":0.84251968503937,"duration":0.125},{"name":"D2","midi":38,"time":115,"velocity":0.84251968503937,"duration":0.125},{"name":"D2","midi":38,"time":116,"velocity":0.84251968503937,"duration":0.125},{"name":"D2","midi":38,"time":116.75,"velocity":0.84251968503937,"duration":0.125},{"name":"D2","midi":38,"time":117,"velocity":0.84251968503937,"duration":0.125},{"name":"D2","midi":38,"time":118,"velocity":0.84251968503937,"duration":0.125},{"name":"D2","midi":38,"time":118.75,"velocity":0.84251968503937,"duration":0.125},{"name":"D2","midi":38,"time":119,"velocity":0.84251968503937,"duration":0.125},{"name":"D2","midi":38,"time":120,"velocity":0.84251968503937,"duration":0.125},{"name":"D2","midi":38,"time":120.75,"velocity":0.84251968503937,"duration":0.125},{"name":"D2","midi":38,"time":121,"velocity":0.84251968503937,"duration":0.125},{"name":"D2","midi":38,"time":122,"velocity":0.84251968503937,"duration":0.125},{"name":"D2","midi":38,"time":122.75,"velocity":0.84251968503937,"duration":0.125},{"name":"D2","midi":38,"time":123,"velocity":0.84251968503937,"duration":0.125},{"name":"D2","midi":38,"time":124,"velocity":0.84251968503937,"duration":0.125},{"name":"D2","midi":38,"time":124.75,"velocity":0.84251968503937,"duration":0.125},{"name":"D2","midi":38,"time":125,"velocity":0.84251968503937,"duration":0.125},{"name":"D2","midi":38,"time":126,"velocity":0.84251968503937,"duration":0.125},{"name":"D2","midi":38,"time":126.75,"velocity":0.84251968503937,"duration":0.125},{"name":"D2","midi":38,"time":127,"velocity":0.84251968503937,"duration":0.125},{"name":"D2","midi":38,"time":128,"velocity":0.84251968503937,"duration":0.125},{"name":"D2","midi":38,"time":128.75,"velocity":0.84251968503937,"duration":0.125},{"name":"D2","midi":38,"time":129,"velocity":0.84251968503937,"duration":0.125},{"name":"D2","midi":38,"time":130,"velocity":0.84251968503937,"duration":0.125},{"name":"D2","midi":38,"time":130.75,"velocity":0.84251968503937,"duration":0.125},{"name":"D2","midi":38,"time":131,"velocity":0.84251968503937,"duration":0.125},{"name":"D2","midi":38,"time":132,"velocity":0.84251968503937,"duration":0.125},{"name":"D2","midi":38,"time":132.75,"velocity":0.84251968503937,"duration":0.125},{"name":"D2","midi":38,"time":133,"velocity":0.84251968503937,"duration":0.125},{"name":"D2","midi":38,"time":134,"velocity":0.84251968503937,"duration":0.125},{"name":"D2","midi":38,"time":134.75,"velocity":0.84251968503937,"duration":0.125},{"name":"D2","midi":38,"time":135,"velocity":0.84251968503937,"duration":0.125},{"name":"D2","midi":38,"time":136,"velocity":0.84251968503937,"duration":0.125},{"name":"D2","midi":38,"time":136.75,"velocity":0.84251968503937,"duration":0.125},{"name":"D2","midi":38,"time":137,"velocity":0.84251968503937,"duration":0.125},{"name":"D2","midi":38,"time":138,"velocity":0.84251968503937,"duration":0.125},{"name":"D2","midi":38,"time":138.75,"velocity":0.84251968503937,"duration":0.125},{"name":"D2","midi":38,"time":139,"velocity":0.84251968503937,"duration":0.125},{"name":"D2","midi":38,"time":140,"velocity":0.84251968503937,"duration":0.125},{"name":"D2","midi":38,"time":140.75,"velocity":0.84251968503937,"duration":0.125},{"name":"D2","midi":38,"time":141,"velocity":0.84251968503937,"duration":0.125},{"name":"D2","midi":38,"time":142,"velocity":0.84251968503937,"duration":2}],"controlChanges":{"7":[{"number":7,"time":0,"value":0.6141732283464567}],"10":[{"number":10,"time":0,"value":0.5039370078740157}],"91":[{"number":91,"time":0,"value":0.7795275590551181}],"93":[{"number":93,"time":0,"value":0.2677165354330709}]},"id":9,"name":"Tom Tom","channelNumber":9,"isPercussion":true},{"startTime":1.25,"duration":144,"length":98,"notes":[{"name":"D2","midi":38,"time":1.25,"velocity":0.5433070866141733,"duration":0.125},{"name":"D2","midi":38,"time":1.5,"velocity":0.5433070866141733,"duration":0.125},{"name":"D2","midi":38,"time":3.25,"velocity":0.5433070866141733,"duration":0.125},{"name":"D2","midi":38,"time":3.5,"velocity":0.5433070866141733,"duration":0.125},{"name":"D2","midi":38,"time":5.25,"velocity":0.5433070866141733,"duration":0.125},{"name":"D2","midi":38,"time":5.5,"velocity":0.5433070866141733,"duration":0.125},{"name":"D2","midi":38,"time":7.25,"velocity":0.5433070866141733,"duration":0.125},{"name":"D2","midi":38,"time":7.5,"velocity":0.5433070866141733,"duration":0.125},{"name":"D2","midi":38,"time":9.25,"velocity":0.5433070866141733,"duration":0.125},{"name":"D2","midi":38,"time":9.5,"velocity":0.5433070866141733,"duration":0.125},{"name":"D2","midi":38,"time":11.25,"velocity":0.5433070866141733,"duration":0.125},{"name":"D2","midi":38,"time":11.5,"velocity":0.5433070866141733,"duration":0.125},{"name":"D2","midi":38,"time":13.25,"velocity":0.5433070866141733,"duration":0.125},{"name":"D2","midi":38,"time":13.5,"velocity":0.5433070866141733,"duration":0.125},{"name":"D2","midi":38,"time":15.25,"velocity":0.5433070866141733,"duration":0.125},{"name":"D2","midi":38,"time":15.5,"velocity":0.5433070866141733,"duration":0.125},{"name":"D2","midi":38,"time":17.5,"velocity":0.5433070866141733,"duration":0.125},{"name":"D2","midi":38,"time":19.5,"velocity":0.5433070866141733,"duration":0.125},{"name":"D2","midi":38,"time":21.5,"velocity":0.5433070866141733,"duration":0.125},{"name":"D2","midi":38,"time":23.5,"velocity":0.5433070866141733,"duration":0.125},{"name":"D2","midi":38,"time":25.5,"velocity":0.5433070866141733,"duration":0.125},{"name":"D2","midi":38,"time":27.5,"velocity":0.5433070866141733,"duration":0.125},{"name":"D2","midi":38,"time":29.5,"velocity":0.5433070866141733,"duration":0.125},{"name":"D2","midi":38,"time":31.5,"velocity":0.5433070866141733,"duration":0.125},{"name":"D2","midi":38,"time":33.5,"velocity":0.5433070866141733,"duration":0.125},{"name":"D2","midi":38,"time":35.5,"velocity":0.5433070866141733,"duration":0.125},{"name":"D2","midi":38,"time":37.25,"velocity":0.5433070866141733,"duration":0.125},{"name":"D2","midi":38,"time":37.5,"velocity":0.5433070866141733,"duration":0.125},{"name":"D2","midi":38,"time":38.75,"velocity":0.5433070866141733,"duration":0.125},{"name":"D2","midi":38,"time":39,"velocity":0.5433070866141733,"duration":0.125},{"name":"D2","midi":38,"time":39.25,"velocity":0.5433070866141733,"duration":0.125},{"name":"D2","midi":38,"time":39.5,"velocity":0.5433070866141733,"duration":0.125},{"name":"D2","midi":38,"time":39.75,"velocity":0.5433070866141733,"duration":0.125},{"name":"D2","midi":38,"time":40,"velocity":0.5433070866141733,"duration":0.125},{"name":"D2","midi":38,"time":41.5,"velocity":0.5433070866141733,"duration":0.125},{"name":"D2","midi":38,"time":43.5,"velocity":0.5433070866141733,"duration":0.125},{"name":"D2","midi":38,"time":43.75,"velocity":0.5433070866141733,"duration":0.125},{"name":"D2","midi":38,"time":45.5,"velocity":0.5433070866141733,"duration":0.125},{"name":"D2","midi":38,"time":47.5,"velocity":0.5433070866141733,"duration":0.125},{"name":"D2","midi":38,"time":49.5,"velocity":0.5433070866141733,"duration":0.125},{"name":"D2","midi":38,"time":51.5,"velocity":0.5433070866141733,"duration":0.125},{"name":"D2","midi":38,"time":53.25,"velocity":0.5433070866141733,"duration":0.125},{"name":"D2","midi":38,"time":53.5,"velocity":0.5433070866141733,"duration":0.125},{"name":"D2","midi":38,"time":55.25,"velocity":0.5433070866141733,"duration":0.125},{"name":"D2","midi":38,"time":55.5,"velocity":0.5433070866141733,"duration":0.125},{"name":"D2","midi":38,"time":55.75,"velocity":0.5433070866141733,"duration":0.125},{"name":"D2","midi":38,"time":56,"velocity":0.5433070866141733,"duration":0.125},{"name":"D2","midi":38,"time":57.5,"velocity":0.5433070866141733,"duration":0.125},{"name":"D2","midi":38,"time":59.5,"velocity":0.5433070866141733,"duration":0.125},{"name":"D2","midi":38,"time":61.5,"velocity":0.5433070866141733,"duration":0.125},{"name":"D2","midi":38,"time":63.5,"velocity":0.5433070866141733,"duration":0.125},{"name":"D2","midi":38,"time":65.5,"velocity":0.5433070866141733,"duration":0.125},{"name":"D2","midi":38,"time":67.5,"velocity":0.5433070866141733,"duration":0.125},{"name":"D2","midi":38,"time":69.5,"velocity":0.5433070866141733,"duration":0.125},{"name":"D2","midi":38,"time":71.5,"velocity":0.5433070866141733,"duration":0.125},{"name":"D2","midi":38,"time":73.5,"velocity":0.5433070866141733,"duration":0.125},{"name":"D2","midi":38,"time":75.5,"velocity":0.5433070866141733,"duration":0.125},{"name":"D2","midi":38,"time":77.5,"velocity":0.5433070866141733,"duration":0.125},{"name":"D2","midi":38,"time":79.5,"velocity":0.5433070866141733,"duration":0.125},{"name":"D2","midi":38,"time":81.5,"velocity":0.5433070866141733,"duration":0.125},{"name":"D2","midi":38,"time":83.5,"velocity":0.5433070866141733,"duration":0.125},{"name":"D2","midi":38,"time":85.5,"velocity":0.5433070866141733,"duration":0.125},{"name":"D2","midi":38,"time":87.5,"velocity":0.5433070866141733,"duration":0.125},{"name":"D2","midi":38,"time":89.25,"velocity":0.5433070866141733,"duration":0.125},{"name":"D2","midi":38,"time":89.5,"velocity":0.5433070866141733,"duration":0.125},{"name":"D2","midi":38,"time":91.25,"velocity":0.5433070866141733,"duration":0.125},{"name":"D2","midi":38,"time":91.5,"velocity":0.5433070866141733,"duration":0.125},{"name":"D2","midi":38,"time":93.25,"velocity":0.5433070866141733,"duration":0.125},{"name":"D2","midi":38,"time":93.5,"velocity":0.5433070866141733,"duration":0.125},{"name":"D2","midi":38,"time":95.25,"velocity":0.5433070866141733,"duration":0.125},{"name":"D2","midi":38,"time":95.5,"velocity":0.5433070866141733,"duration":0.125},{"name":"D2","midi":38,"time":97.5,"velocity":0.5433070866141733,"duration":0.125},{"name":"D2","midi":38,"time":99.5,"velocity":0.5433070866141733,"duration":0.125},{"name":"D2","midi":38,"time":101.5,"velocity":0.5433070866141733,"duration":0.125},{"name":"D2","midi":38,"time":103.25,"velocity":0.5433070866141733,"duration":0.125},{"name":"D2","midi":38,"time":103.5,"velocity":0.5433070866141733,"duration":0.125},{"name":"D2","midi":38,"time":103.75,"velocity":0.5433070866141733,"duration":0.125},{"name":"D2","midi":38,"time":104,"velocity":0.5433070866141733,"duration":0.125},{"name":"D2","midi":38,"time":105.5,"velocity":0.5433070866141733,"duration":0.125},{"name":"D2","midi":38,"time":107.5,"velocity":0.5433070866141733,"duration":0.125},{"name":"D2","midi":38,"time":109.5,"velocity":0.5433070866141733,"duration":0.125},{"name":"D2","midi":38,"time":111.5,"velocity":0.5433070866141733,"duration":0.125},{"name":"D2","midi":38,"time":113.5,"velocity":0.5433070866141733,"duration":0.125},{"name":"D2","midi":38,"time":115.5,"velocity":0.5433070866141733,"duration":0.125},{"name":"D2","midi":38,"time":117.5,"velocity":0.5433070866141733,"duration":0.125},{"name":"D2","midi":38,"time":119.5,"velocity":0.5433070866141733,"duration":0.125},{"name":"D2","midi":38,"time":121.5,"velocity":0.5433070866141733,"duration":0.125},{"name":"D2","midi":38,"time":123.5,"velocity":0.5433070866141733,"duration":0.125},{"name":"D2","midi":38,"time":125.5,"velocity":0.5433070866141733,"duration":0.125},{"name":"D2","midi":38,"time":127.5,"velocity":0.5433070866141733,"duration":0.125},{"name":"D2","midi":38,"time":129.5,"velocity":0.5433070866141733,"duration":0.125},{"name":"D2","midi":38,"time":131.5,"velocity":0.5433070866141733,"duration":0.125},{"name":"D2","midi":38,"time":133.5,"velocity":0.5433070866141733,"duration":0.125},{"name":"D2","midi":38,"time":135.5,"velocity":0.5433070866141733,"duration":0.125},{"name":"D2","midi":38,"time":137.5,"velocity":0.5433070866141733,"duration":0.125},{"name":"D2","midi":38,"time":139.5,"velocity":0.5433070866141733,"duration":0.125},{"name":"D2","midi":38,"time":141.5,"velocity":0.5433070866141733,"duration":0.125},{"name":"D2","midi":38,"time":142,"velocity":0.5433070866141733,"duration":2}],"controlChanges":{"7":[{"number":7,"time":0,"value":0.6141732283464567}],"10":[{"number":10,"time":0,"value":0.5039370078740157}],"91":[{"number":91,"time":0,"value":0.7795275590551181}],"93":[{"number":93,"time":0,"value":0.2677165354330709}]},"id":10,"name":"Hi Hat","channelNumber":9,"isPercussion":true},{"startTime":0,"duration":144,"length":217,"notes":[{"name":"E2","midi":40,"time":0,"velocity":0.7480314960629921,"duration":0.125},{"name":"E2","midi":40,"time":0.75,"velocity":0.7480314960629921,"duration":0.125},{"name":"E2","midi":40,"time":1,"velocity":0.7480314960629921,"duration":0.125},{"name":"E2","midi":40,"time":2,"velocity":0.7480314960629921,"duration":0.125},{"name":"E2","midi":40,"time":2.75,"velocity":0.7480314960629921,"duration":0.125},{"name":"E2","midi":40,"time":3,"velocity":0.7480314960629921,"duration":0.125},{"name":"E2","midi":40,"time":4,"velocity":0.7480314960629921,"duration":0.125},{"name":"E2","midi":40,"time":4.75,"velocity":0.7480314960629921,"duration":0.125},{"name":"E2","midi":40,"time":5,"velocity":0.7480314960629921,"duration":0.125},{"name":"E2","midi":40,"time":6,"velocity":0.7480314960629921,"duration":0.125},{"name":"E2","midi":40,"time":6.75,"velocity":0.7480314960629921,"duration":0.125},{"name":"E2","midi":40,"time":7,"velocity":0.7480314960629921,"duration":0.125},{"name":"E2","midi":40,"time":8,"velocity":0.7480314960629921,"duration":0.125},{"name":"E2","midi":40,"time":8.75,"velocity":0.7480314960629921,"duration":0.125},{"name":"E2","midi":40,"time":9,"velocity":0.7480314960629921,"duration":0.125},{"name":"E2","midi":40,"time":10,"velocity":0.7480314960629921,"duration":0.125},{"name":"E2","midi":40,"time":10.75,"velocity":0.7480314960629921,"duration":0.125},{"name":"E2","midi":40,"time":11,"velocity":0.7480314960629921,"duration":0.125},{"name":"E2","midi":40,"time":12,"velocity":0.7480314960629921,"duration":0.125},{"name":"E2","midi":40,"time":12.75,"velocity":0.7480314960629921,"duration":0.125},{"name":"E2","midi":40,"time":13,"velocity":0.7480314960629921,"duration":0.125},{"name":"E2","midi":40,"time":14,"velocity":0.7480314960629921,"duration":0.125},{"name":"E2","midi":40,"time":14.75,"velocity":0.7480314960629921,"duration":0.125},{"name":"E2","midi":40,"time":15,"velocity":0.7480314960629921,"duration":0.125},{"name":"E2","midi":40,"time":16,"velocity":0.7480314960629921,"duration":0.125},{"name":"E2","midi":40,"time":16.75,"velocity":0.7480314960629921,"duration":0.125},{"name":"E2","midi":40,"time":17,"velocity":0.7480314960629921,"duration":0.125},{"name":"E2","midi":40,"time":18,"velocity":0.7480314960629921,"duration":0.125},{"name":"E2","midi":40,"time":18.75,"velocity":0.7480314960629921,"duration":0.125},{"name":"E2","midi":40,"time":19,"velocity":0.7480314960629921,"duration":0.125},{"name":"E2","midi":40,"time":20,"velocity":0.7480314960629921,"duration":0.125},{"name":"E2","midi":40,"time":20.75,"velocity":0.7480314960629921,"duration":0.125},{"name":"E2","midi":40,"time":21,"velocity":0.7480314960629921,"duration":0.125},{"name":"E2","midi":40,"time":22,"velocity":0.7480314960629921,"duration":0.125},{"name":"E2","midi":40,"time":22.75,"velocity":0.7480314960629921,"duration":0.125},{"name":"E2","midi":40,"time":23,"velocity":0.7480314960629921,"duration":0.125},{"name":"E2","midi":40,"time":24,"velocity":0.7480314960629921,"duration":0.125},{"name":"E2","midi":40,"time":24.75,"velocity":0.7480314960629921,"duration":0.125},{"name":"E2","midi":40,"time":25,"velocity":0.7480314960629921,"duration":0.125},{"name":"E2","midi":40,"time":26,"velocity":0.7480314960629921,"duration":0.125},{"name":"E2","midi":40,"time":26.75,"velocity":0.7480314960629921,"duration":0.125},{"name":"E2","midi":40,"time":27,"velocity":0.7480314960629921,"duration":0.125},{"name":"E2","midi":40,"time":28,"velocity":0.7480314960629921,"duration":0.125},{"name":"E2","midi":40,"time":28.75,"velocity":0.7480314960629921,"duration":0.125},{"name":"E2","midi":40,"time":29,"velocity":0.7480314960629921,"duration":0.125},{"name":"E2","midi":40,"time":30,"velocity":0.7480314960629921,"duration":0.125},{"name":"E2","midi":40,"time":30.75,"velocity":0.7480314960629921,"duration":0.125},{"name":"E2","midi":40,"time":31,"velocity":0.7480314960629921,"duration":0.125},{"name":"E2","midi":40,"time":32,"velocity":0.7480314960629921,"duration":0.125},{"name":"E2","midi":40,"time":32.75,"velocity":0.7480314960629921,"duration":0.125},{"name":"E2","midi":40,"time":33,"velocity":0.7480314960629921,"duration":0.125},{"name":"E2","midi":40,"time":34,"velocity":0.7480314960629921,"duration":0.125},{"name":"E2","midi":40,"time":34.75,"velocity":0.7480314960629921,"duration":0.125},{"name":"E2","midi":40,"time":35,"velocity":0.7480314960629921,"duration":0.125},{"name":"E2","midi":40,"time":36,"velocity":0.7480314960629921,"duration":0.125},{"name":"E2","midi":40,"time":36.75,"velocity":0.7480314960629921,"duration":0.125},{"name":"E2","midi":40,"time":37,"velocity":0.7480314960629921,"duration":0.125},{"name":"E2","midi":40,"time":38,"velocity":0.7480314960629921,"duration":0.125},{"name":"E2","midi":40,"time":38.75,"velocity":0.7480314960629921,"duration":0.125},{"name":"E2","midi":40,"time":39,"velocity":0.7480314960629921,"duration":0.125},{"name":"E2","midi":40,"time":39.25,"velocity":0.7480314960629921,"duration":0.125},{"name":"E2","midi":40,"time":39.5,"velocity":0.7480314960629921,"duration":0.125},{"name":"E2","midi":40,"time":39.75,"velocity":0.7480314960629921,"duration":0.125},{"name":"E2","midi":40,"time":40,"velocity":0.7480314960629921,"duration":0.125},{"name":"E2","midi":40,"time":40.75,"velocity":0.7480314960629921,"duration":0.125},{"name":"E2","midi":40,"time":41,"velocity":0.7480314960629921,"duration":0.125},{"name":"E2","midi":40,"time":42,"velocity":0.7480314960629921,"duration":0.125},{"name":"E2","midi":40,"time":42.75,"velocity":0.7480314960629921,"duration":0.125},{"name":"E2","midi":40,"time":43,"velocity":0.7480314960629921,"duration":0.125},{"name":"E2","midi":40,"time":44,"velocity":0.7480314960629921,"duration":0.125},{"name":"E2","midi":40,"time":44.75,"velocity":0.7480314960629921,"duration":0.125},{"name":"E2","midi":40,"time":45,"velocity":0.7480314960629921,"duration":0.125},{"name":"E2","midi":40,"time":46,"velocity":0.7480314960629921,"duration":0.125},{"name":"E2","midi":40,"time":46.75,"velocity":0.7480314960629921,"duration":0.125},{"name":"E2","midi":40,"time":47,"velocity":0.7480314960629921,"duration":0.125},{"name":"E2","midi":40,"time":48,"velocity":0.7480314960629921,"duration":0.125},{"name":"E2","midi":40,"time":48.75,"velocity":0.7480314960629921,"duration":0.125},{"name":"E2","midi":40,"time":49,"velocity":0.7480314960629921,"duration":0.125},{"name":"E2","midi":40,"time":50,"velocity":0.7480314960629921,"duration":0.125},{"name":"E2","midi":40,"time":50.75,"velocity":0.7480314960629921,"duration":0.125},{"name":"E2","midi":40,"time":51,"velocity":0.7480314960629921,"duration":0.125},{"name":"E2","midi":40,"time":52,"velocity":0.7480314960629921,"duration":0.125},{"name":"E2","midi":40,"time":52.75,"velocity":0.7480314960629921,"duration":0.125},{"name":"E2","midi":40,"time":53,"velocity":0.7480314960629921,"duration":0.125},{"name":"E2","midi":40,"time":54,"velocity":0.7480314960629921,"duration":0.125},{"name":"E2","midi":40,"time":54.75,"velocity":0.7480314960629921,"duration":0.125},{"name":"E2","midi":40,"time":55,"velocity":0.7480314960629921,"duration":0.125},{"name":"E2","midi":40,"time":56,"velocity":0.7480314960629921,"duration":0.125},{"name":"E2","midi":40,"time":56.75,"velocity":0.7480314960629921,"duration":0.125},{"name":"E2","midi":40,"time":57,"velocity":0.7480314960629921,"duration":0.125},{"name":"E2","midi":40,"time":58,"velocity":0.7480314960629921,"duration":0.125},{"name":"E2","midi":40,"time":58.75,"velocity":0.7480314960629921,"duration":0.125},{"name":"E2","midi":40,"time":59,"velocity":0.7480314960629921,"duration":0.125},{"name":"E2","midi":40,"time":60,"velocity":0.7480314960629921,"duration":0.125},{"name":"E2","midi":40,"time":60.75,"velocity":0.7480314960629921,"duration":0.125},{"name":"E2","midi":40,"time":61,"velocity":0.7480314960629921,"duration":0.125},{"name":"E2","midi":40,"time":62,"velocity":0.7480314960629921,"duration":0.125},{"name":"E2","midi":40,"time":62.75,"velocity":0.7480314960629921,"duration":0.125},{"name":"E2","midi":40,"time":63,"velocity":0.7480314960629921,"duration":0.125},{"name":"E2","midi":40,"time":64,"velocity":0.7480314960629921,"duration":0.125},{"name":"E2","midi":40,"time":64.75,"velocity":0.7480314960629921,"duration":0.125},{"name":"E2","midi":40,"time":65,"velocity":0.7480314960629921,"duration":0.125},{"name":"E2","midi":40,"time":66,"velocity":0.7480314960629921,"duration":0.125},{"name":"E2","midi":40,"time":66.75,"velocity":0.7480314960629921,"duration":0.125},{"name":"E2","midi":40,"time":67,"velocity":0.7480314960629921,"duration":0.125},{"name":"E2","midi":40,"time":68,"velocity":0.7480314960629921,"duration":0.125},{"name":"E2","midi":40,"time":68.75,"velocity":0.7480314960629921,"duration":0.125},{"name":"E2","midi":40,"time":69,"velocity":0.7480314960629921,"duration":0.125},{"name":"E2","midi":40,"time":70,"velocity":0.7480314960629921,"duration":0.125},{"name":"E2","midi":40,"time":70.75,"velocity":0.7480314960629921,"duration":0.125},{"name":"E2","midi":40,"time":71,"velocity":0.7480314960629921,"duration":0.125},{"name":"E2","midi":40,"time":72,"velocity":0.7480314960629921,"duration":0.125},{"name":"E2","midi":40,"time":72.75,"velocity":0.7480314960629921,"duration":0.125},{"name":"E2","midi":40,"time":73,"velocity":0.7480314960629921,"duration":0.125},{"name":"E2","midi":40,"time":74,"velocity":0.7480314960629921,"duration":0.125},{"name":"E2","midi":40,"time":74.75,"velocity":0.7480314960629921,"duration":0.125},{"name":"E2","midi":40,"time":75,"velocity":0.7480314960629921,"duration":0.125},{"name":"E2","midi":40,"time":76,"velocity":0.7480314960629921,"duration":0.125},{"name":"E2","midi":40,"time":76.75,"velocity":0.7480314960629921,"duration":0.125},{"name":"E2","midi":40,"time":77,"velocity":0.7480314960629921,"duration":0.125},{"name":"E2","midi":40,"time":78,"velocity":0.7480314960629921,"duration":0.125},{"name":"E2","midi":40,"time":78.75,"velocity":0.7480314960629921,"duration":0.125},{"name":"E2","midi":40,"time":79,"velocity":0.7480314960629921,"duration":0.125},{"name":"E2","midi":40,"time":80,"velocity":0.7480314960629921,"duration":0.125},{"name":"E2","midi":40,"time":80.75,"velocity":0.7480314960629921,"duration":0.125},{"name":"E2","midi":40,"time":81,"velocity":0.7480314960629921,"duration":0.125},{"name":"E2","midi":40,"time":82,"velocity":0.7480314960629921,"duration":0.125},{"name":"E2","midi":40,"time":82.75,"velocity":0.7480314960629921,"duration":0.125},{"name":"E2","midi":40,"time":83,"velocity":0.7480314960629921,"duration":0.125},{"name":"E2","midi":40,"time":84,"velocity":0.7480314960629921,"duration":0.125},{"name":"E2","midi":40,"time":84.75,"velocity":0.7480314960629921,"duration":0.125},{"name":"E2","midi":40,"time":85,"velocity":0.7480314960629921,"duration":0.125},{"name":"E2","midi":40,"time":86,"velocity":0.7480314960629921,"duration":0.125},{"name":"E2","midi":40,"time":86.75,"velocity":0.7480314960629921,"duration":0.125},{"name":"E2","midi":40,"time":87,"velocity":0.7480314960629921,"duration":0.125},{"name":"E2","midi":40,"time":88,"velocity":0.7480314960629921,"duration":0.125},{"name":"E2","midi":40,"time":88.75,"velocity":0.7480314960629921,"duration":0.125},{"name":"E2","midi":40,"time":89,"velocity":0.7480314960629921,"duration":0.125},{"name":"E2","midi":40,"time":90,"velocity":0.7480314960629921,"duration":0.125},{"name":"E2","midi":40,"time":90.75,"velocity":0.7480314960629921,"duration":0.125},{"name":"E2","midi":40,"time":91,"velocity":0.7480314960629921,"duration":0.125},{"name":"E2","midi":40,"time":92,"velocity":0.7480314960629921,"duration":0.125},{"name":"E2","midi":40,"time":92.75,"velocity":0.7480314960629921,"duration":0.125},{"name":"E2","midi":40,"time":93,"velocity":0.7480314960629921,"duration":0.125},{"name":"E2","midi":40,"time":94,"velocity":0.7480314960629921,"duration":0.125},{"name":"E2","midi":40,"time":94.75,"velocity":0.7480314960629921,"duration":0.125},{"name":"E2","midi":40,"time":95,"velocity":0.7480314960629921,"duration":0.125},{"name":"E2","midi":40,"time":96,"velocity":0.7480314960629921,"duration":0.125},{"name":"E2","midi":40,"time":96.75,"velocity":0.7480314960629921,"duration":0.125},{"name":"E2","midi":40,"time":97,"velocity":0.7480314960629921,"duration":0.125},{"name":"E2","midi":40,"time":98,"velocity":0.7480314960629921,"duration":0.125},{"name":"E2","midi":40,"time":98.75,"velocity":0.7480314960629921,"duration":0.125},{"name":"E2","midi":40,"time":99,"velocity":0.7480314960629921,"duration":0.125},{"name":"E2","midi":40,"time":100,"velocity":0.7480314960629921,"duration":0.125},{"name":"E2","midi":40,"time":100.75,"velocity":0.7480314960629921,"duration":0.125},{"name":"E2","midi":40,"time":101,"velocity":0.7480314960629921,"duration":0.125},{"name":"E2","midi":40,"time":102,"velocity":0.7480314960629921,"duration":0.125},{"name":"E2","midi":40,"time":102.75,"velocity":0.7480314960629921,"duration":0.125},{"name":"E2","midi":40,"time":103,"velocity":0.7480314960629921,"duration":0.125},{"name":"E2","midi":40,"time":104,"velocity":0.7480314960629921,"duration":0.125},{"name":"E2","midi":40,"time":104.75,"velocity":0.7480314960629921,"duration":0.125},{"name":"E2","midi":40,"time":105,"velocity":0.7480314960629921,"duration":0.125},{"name":"E2","midi":40,"time":106,"velocity":0.7480314960629921,"duration":0.125},{"name":"E2","midi":40,"time":106.75,"velocity":0.7480314960629921,"duration":0.125},{"name":"E2","midi":40,"time":107,"velocity":0.7480314960629921,"duration":0.125},{"name":"E2","midi":40,"time":108,"velocity":0.7480314960629921,"duration":0.125},{"name":"E2","midi":40,"time":108.75,"velocity":0.7480314960629921,"duration":0.125},{"name":"E2","midi":40,"time":109,"velocity":0.7480314960629921,"duration":0.125},{"name":"E2","midi":40,"time":110,"velocity":0.7480314960629921,"duration":0.125},{"name":"E2","midi":40,"time":110.75,"velocity":0.7480314960629921,"duration":0.125},{"name":"E2","midi":40,"time":111,"velocity":0.7480314960629921,"duration":0.125},{"name":"E2","midi":40,"time":112,"velocity":0.7480314960629921,"duration":0.125},{"name":"E2","midi":40,"time":112.75,"velocity":0.7480314960629921,"duration":0.125},{"name":"E2","midi":40,"time":113,"velocity":0.7480314960629921,"duration":0.125},{"name":"E2","midi":40,"time":114,"velocity":0.7480314960629921,"duration":0.125},{"name":"E2","midi":40,"time":114.75,"velocity":0.7480314960629921,"duration":0.125},{"name":"E2","midi":40,"time":115,"velocity":0.7480314960629921,"duration":0.125},{"name":"E2","midi":40,"time":116,"velocity":0.7480314960629921,"duration":0.125},{"name":"E2","midi":40,"time":116.75,"velocity":0.7480314960629921,"duration":0.125},{"name":"E2","midi":40,"time":117,"velocity":0.7480314960629921,"duration":0.125},{"name":"E2","midi":40,"time":118,"velocity":0.7480314960629921,"duration":0.125},{"name":"E2","midi":40,"time":118.75,"velocity":0.7480314960629921,"duration":0.125},{"name":"E2","midi":40,"time":119,"velocity":0.7480314960629921,"duration":0.125},{"name":"E2","midi":40,"time":120,"velocity":0.7480314960629921,"duration":0.125},{"name":"E2","midi":40,"time":120.75,"velocity":0.7480314960629921,"duration":0.125},{"name":"E2","midi":40,"time":121,"velocity":0.7480314960629921,"duration":0.125},{"name":"E2","midi":40,"time":122,"velocity":0.7480314960629921,"duration":0.125},{"name":"E2","midi":40,"time":122.75,"velocity":0.7480314960629921,"duration":0.125},{"name":"E2","midi":40,"time":123,"velocity":0.7480314960629921,"duration":0.125},{"name":"E2","midi":40,"time":124,"velocity":0.7480314960629921,"duration":0.125},{"name":"E2","midi":40,"time":124.75,"velocity":0.7480314960629921,"duration":0.125},{"name":"E2","midi":40,"time":125,"velocity":0.7480314960629921,"duration":0.125},{"name":"E2","midi":40,"time":126,"velocity":0.7480314960629921,"duration":0.125},{"name":"E2","midi":40,"time":126.75,"velocity":0.7480314960629921,"duration":0.125},{"name":"E2","midi":40,"time":127,"velocity":0.7480314960629921,"duration":0.125},{"name":"E2","midi":40,"time":128,"velocity":0.7480314960629921,"duration":0.125},{"name":"E2","midi":40,"time":128.75,"velocity":0.7480314960629921,"duration":0.125},{"name":"E2","midi":40,"time":129,"velocity":0.7480314960629921,"duration":0.125},{"name":"E2","midi":40,"time":130,"velocity":0.7480314960629921,"duration":0.125},{"name":"E2","midi":40,"time":130.75,"velocity":0.7480314960629921,"duration":0.125},{"name":"E2","midi":40,"time":131,"velocity":0.7480314960629921,"duration":0.125},{"name":"E2","midi":40,"time":132,"velocity":0.7480314960629921,"duration":0.125},{"name":"E2","midi":40,"time":132.75,"velocity":0.7480314960629921,"duration":0.125},{"name":"E2","midi":40,"time":133,"velocity":0.7480314960629921,"duration":0.125},{"name":"E2","midi":40,"time":134,"velocity":0.7480314960629921,"duration":0.125},{"name":"E2","midi":40,"time":134.75,"velocity":0.7480314960629921,"duration":0.125},{"name":"E2","midi":40,"time":135,"velocity":0.7480314960629921,"duration":0.125},{"name":"E2","midi":40,"time":136,"velocity":0.7480314960629921,"duration":0.125},{"name":"E2","midi":40,"time":136.75,"velocity":0.7480314960629921,"duration":0.125},{"name":"E2","midi":40,"time":137,"velocity":0.7480314960629921,"duration":0.125},{"name":"E2","midi":40,"time":138,"velocity":0.7480314960629921,"duration":0.125},{"name":"E2","midi":40,"time":138.75,"velocity":0.7480314960629921,"duration":0.125},{"name":"E2","midi":40,"time":139,"velocity":0.7480314960629921,"duration":0.125},{"name":"E2","midi":40,"time":140,"velocity":0.7480314960629921,"duration":0.125},{"name":"E2","midi":40,"time":140.75,"velocity":0.7480314960629921,"duration":0.125},{"name":"E2","midi":40,"time":141,"velocity":0.7480314960629921,"duration":0.125},{"name":"E2","midi":40,"time":142,"velocity":0.7480314960629921,"duration":2}],"controlChanges":{"7":[{"number":7,"time":0,"value":0.6141732283464567}],"10":[{"number":10,"time":0,"value":0.5039370078740157}],"91":[{"number":91,"time":0,"value":0.7795275590551181}],"93":[{"number":93,"time":0,"value":0.2677165354330709}]},"id":11,"name":"Bass Drum","channelNumber":9,"isPercussion":true},{"startTime":0,"duration":0,"length":0,"notes":[],"controlChanges":{"2":[{"number":2,"time":0.020833333333333332,"value":1}],"7":[{"number":7,"time":0,"value":0.6141732283464567}],"10":[{"number":10,"time":0,"value":0.5039370078740157}],"11":[{"number":11,"time":0.021875,"value":1}],"91":[{"number":91,"time":0,"value":0.7795275590551181}],"93":[{"number":93,"time":0,"value":0.2677165354330709}],"121":[{"number":121,"time":0,"value":0}]},"id":12,"name":"Standard"},{"startTime":0,"duration":0,"length":0,"notes":[],"controlChanges":{"2":[{"number":2,"time":0.020833333333333332,"value":1}],"10":[{"number":10,"time":0,"value":0.5039370078740157}],"11":[{"number":11,"time":0.021875,"value":1}],"91":[{"number":91,"time":0,"value":0.7007874015748031},{"number":91,"time":0.017708333333333333,"value":0.7086614173228346}],"93":[{"number":93,"time":0,"value":0.6220472440944882},{"number":93,"time":0.017708333333333333,"value":0.5905511811023622}],"121":[{"number":121,"time":0,"value":0}]},"id":13},{"startTime":0,"duration":0,"length":0,"notes":[],"controlChanges":{"2":[{"number":2,"time":0.020833333333333332,"value":1}],"7":[{"number":7,"time":0,"value":0.984251968503937}],"10":[{"number":10,"time":0,"value":0.5039370078740157}],"11":[{"number":11,"time":0.021875,"value":1}],"91":[{"number":91,"time":0,"value":0.7007874015748031},{"number":91,"time":0.017708333333333333,"value":0.7086614173228346}],"93":[{"number":93,"time":0,"value":0.6220472440944882},{"number":93,"time":0.017708333333333333,"value":0.5905511811023622}],"121":[{"number":121,"time":0,"value":0}]},"id":14,"instrumentNumber":49,"instrument":"string ensemble 2","instrumentFamily":"ensemble","channelNumber":1,"isPercussion":false},{"startTime":0,"duration":0,"length":0,"notes":[],"controlChanges":{"2":[{"number":2,"time":0.020833333333333332,"value":1}],"7":[{"number":7,"time":0,"value":1}],"10":[{"number":10,"time":0,"value":0.6929133858267716}],"11":[{"number":11,"time":0.021875,"value":1}],"91":[{"number":91,"time":0,"value":0.7007874015748031},{"number":91,"time":0.017708333333333333,"value":0.7086614173228346}],"93":[{"number":93,"time":0,"value":0.6220472440944882},{"number":93,"time":0.017708333333333333,"value":0.5905511811023622}],"121":[{"number":121,"time":0,"value":0}]},"id":15,"instrumentNumber":16,"instrument":"drawbar organ","instrumentFamily":"organ","channelNumber":2,"isPercussion":false},{"startTime":0,"duration":0,"length":0,"notes":[],"controlChanges":{"2":[{"number":2,"time":0.020833333333333332,"value":1}],"7":[{"number":7,"time":0,"value":1}],"10":[{"number":10,"time":0,"value":0.6929133858267716}],"11":[{"number":11,"time":0.021875,"value":1}],"91":[{"number":91,"time":0,"value":0.7007874015748031},{"number":91,"time":0.017708333333333333,"value":0.7086614173228346}],"93":[{"number":93,"time":0,"value":0.6220472440944882},{"number":93,"time":0.017708333333333333,"value":0.5905511811023622}],"121":[{"number":121,"time":0,"value":0}]},"id":16,"instrumentNumber":16,"instrument":"drawbar organ","instrumentFamily":"organ","channelNumber":3,"isPercussion":false},{"startTime":0,"duration":0,"length":0,"notes":[],"controlChanges":{"2":[{"number":2,"time":0.020833333333333332,"value":1}],"7":[{"number":7,"time":0,"value":0.9921259842519685}],"10":[{"number":10,"time":0,"value":0.6929133858267716}],"11":[{"number":11,"time":0.021875,"value":1}],"91":[{"number":91,"time":0,"value":0.7007874015748031},{"number":91,"time":0.017708333333333333,"value":0.7086614173228346}],"93":[{"number":93,"time":0,"value":0.6220472440944882},{"number":93,"time":0.017708333333333333,"value":0.5905511811023622}],"121":[{"number":121,"time":0,"value":0}]},"id":17,"instrumentNumber":16,"instrument":"drawbar organ","instrumentFamily":"organ","channelNumber":4,"isPercussion":false},{"startTime":0,"duration":0,"length":0,"notes":[],"controlChanges":{"2":[{"number":2,"time":0.020833333333333332,"value":1}],"7":[{"number":7,"time":0,"value":1}],"10":[{"number":10,"time":0,"value":0.6929133858267716}],"11":[{"number":11,"time":0.021875,"value":1}],"91":[{"number":91,"time":0,"value":0.7007874015748031},{"number":91,"time":0.017708333333333333,"value":0.7086614173228346}],"93":[{"number":93,"time":0,"value":0.6220472440944882},{"number":93,"time":0.017708333333333333,"value":0.5905511811023622}],"121":[{"number":121,"time":0,"value":0}]},"id":18,"instrumentNumber":16,"instrument":"drawbar organ","instrumentFamily":"organ","channelNumber":5,"isPercussion":false},{"startTime":0,"duration":0,"length":0,"notes":[],"controlChanges":{"2":[{"number":2,"time":0.020833333333333332,"value":1}],"7":[{"number":7,"time":0,"value":0.889763779527559}],"10":[{"number":10,"time":0,"value":0.6929133858267716}],"11":[{"number":11,"time":0.021875,"value":1}],"91":[{"number":91,"time":0,"value":0.7007874015748031},{"number":91,"time":0.017708333333333333,"value":0.7086614173228346}],"93":[{"number":93,"time":0,"value":0.6220472440944882},{"number":93,"time":0.017708333333333333,"value":0.5905511811023622}],"121":[{"number":121,"time":0,"value":0}]},"id":19,"instrumentNumber":16,"instrument":"drawbar organ","instrumentFamily":"organ","channelNumber":6,"isPercussion":false},{"startTime":0,"duration":0,"length":0,"notes":[],"controlChanges":{"2":[{"number":2,"time":0.020833333333333332,"value":1}],"7":[{"number":7,"time":0,"value":1}],"10":[{"number":10,"time":0,"value":0.5039370078740157}],"11":[{"number":11,"time":0.021875,"value":1}],"91":[{"number":91,"time":0,"value":0.7007874015748031},{"number":91,"time":0.017708333333333333,"value":0.7086614173228346}],"93":[{"number":93,"time":0,"value":0.6220472440944882},{"number":93,"time":0.017708333333333333,"value":0.5905511811023622}],"121":[{"number":121,"time":0,"value":0}]},"id":20,"instrumentNumber":56,"instrument":"trumpet","instrumentFamily":"brass","channelNumber":7,"isPercussion":false},{"startTime":0,"duration":0,"length":0,"notes":[],"controlChanges":{"2":[{"number":2,"time":0.020833333333333332,"value":1}],"10":[{"number":10,"time":0,"value":0.5039370078740157}],"11":[{"number":11,"time":0.021875,"value":1}],"91":[{"number":91,"time":0,"value":0.7007874015748031},{"number":91,"time":0.017708333333333333,"value":0.7086614173228346}],"93":[{"number":93,"time":0,"value":0.6220472440944882},{"number":93,"time":0.017708333333333333,"value":0.5905511811023622}],"121":[{"number":121,"time":0,"value":0}]},"id":21},{"startTime":0,"duration":0,"length":0,"notes":[],"controlChanges":{"2":[{"number":2,"time":0.020833333333333332,"value":1}],"10":[{"number":10,"time":0,"value":0.5039370078740157}],"11":[{"number":11,"time":0.021875,"value":1}],"91":[{"number":91,"time":0,"value":0.7007874015748031},{"number":91,"time":0.017708333333333333,"value":0.7086614173228346}],"93":[{"number":93,"time":0,"value":0.6220472440944882},{"number":93,"time":0.017708333333333333,"value":0.5905511811023622}],"121":[{"number":121,"time":0,"value":0}]},"id":22},{"startTime":0,"duration":0,"length":0,"notes":[],"controlChanges":{"2":[{"number":2,"time":0.020833333333333332,"value":1}],"10":[{"number":10,"time":0,"value":0.5039370078740157}],"11":[{"number":11,"time":0.021875,"value":1}],"91":[{"number":91,"time":0,"value":0.7007874015748031},{"number":91,"time":0.017708333333333333,"value":0.7086614173228346}],"93":[{"number":93,"time":0,"value":0.6220472440944882},{"number":93,"time":0.017708333333333333,"value":0.5905511811023622}],"121":[{"number":121,"time":0,"value":0}]},"id":23},{"startTime":0,"duration":0,"length":0,"notes":[],"controlChanges":{"2":[{"number":2,"time":0.020833333333333332,"value":1}],"10":[{"number":10,"time":0,"value":0.5039370078740157}],"11":[{"number":11,"time":0.021875,"value":1}],"91":[{"number":91,"time":0,"value":0.7007874015748031},{"number":91,"time":0.017708333333333333,"value":0.7086614173228346}],"93":[{"number":93,"time":0,"value":0.6220472440944882},{"number":93,"time":0.017708333333333333,"value":0.5905511811023622}],"121":[{"number":121,"time":0,"value":0}]},"id":24},{"startTime":0,"duration":0,"length":0,"notes":[],"controlChanges":{"2":[{"number":2,"time":0.020833333333333332,"value":1}],"10":[{"number":10,"time":0,"value":0.5039370078740157}],"11":[{"number":11,"time":0.021875,"value":1}],"91":[{"number":91,"time":0,"value":0.7007874015748031},{"number":91,"time":0.017708333333333333,"value":0.7086614173228346}],"93":[{"number":93,"time":0,"value":0.6220472440944882},{"number":93,"time":0.017708333333333333,"value":0.5905511811023622}],"121":[{"number":121,"time":0,"value":0}]},"id":25},{"startTime":0,"duration":0,"length":0,"notes":[],"controlChanges":{"2":[{"number":2,"time":0.020833333333333332,"value":1}],"10":[{"number":10,"time":0,"value":0.5039370078740157}],"11":[{"number":11,"time":0.021875,"value":1}],"91":[{"number":91,"time":0,"value":0.7007874015748031},{"number":91,"time":0.017708333333333333,"value":0.7086614173228346}],"93":[{"number":93,"time":0,"value":0.6220472440944882},{"number":93,"time":0.017708333333333333,"value":0.5905511811023622}],"121":[{"number":121,"time":0,"value":0}]},"id":26},{"startTime":0,"duration":0,"length":0,"notes":[],"controlChanges":{"2":[{"number":2,"time":0.020833333333333332,"value":1}],"10":[{"number":10,"time":0,"value":0.5039370078740157}],"11":[{"number":11,"time":0.021875,"value":1}],"91":[{"number":91,"time":0,"value":0.7007874015748031},{"number":91,"time":0.017708333333333333,"value":0.7086614173228346}],"93":[{"number":93,"time":0,"value":0.6220472440944882},{"number":93,"time":0.017708333333333333,"value":0.5905511811023622}],"121":[{"number":121,"time":0,"value":0}]},"id":27}]}