{"header":{"PPQ":480,"bpm":117.000117000117,"timeSignature":[4,4],"name":""},"startTime":2.0918782499999997,"duration":276.0862623749955,"tracks":[{"startTime":2.0918782499999997,"duration":276.0862623749955,"length":2295,"notes":[{"name":"F5","midi":77,"time":2.0918782499999997,"velocity":0.3779527559055118,"duration":0.2585467499999998},{"name":"A#2","midi":46,"time":2.0950833749999997,"velocity":0.33070866141732286,"duration":0.1837605},{"name":"D5","midi":74,"time":2.10897225,"velocity":0.3228346456692913,"duration":0.19551262499999966},{"name":"A#3","midi":58,"time":2.11751925,"velocity":0.2283464566929134,"duration":0.21794849999999943},{"name":"F5","midi":77,"time":2.7136724999999995,"velocity":0.4566929133858268,"duration":0.2799142500000005},{"name":"D5","midi":74,"time":2.7286297499999996,"velocity":0.3228346456692913,"duration":0.10470075000000012},{"name":"A#2","midi":46,"time":2.7382451249999997,"velocity":0.23622047244094488,"duration":0.08440162499999992},{"name":"A#3","midi":58,"time":2.74999725,"velocity":0.11811023622047244,"duration":0.08974349999999998},{"name":"D5","midi":74,"time":2.988244875,"velocity":0.5354330708661418,"duration":0.13141012499999993},{"name":"A#4","midi":70,"time":3.028843125,"velocity":0.3464566929133858,"duration":0.037393124999999916},{"name":"F5","midi":77,"time":3.2788428749999996,"velocity":0.5118110236220472,"duration":0.2104698750000007},{"name":"A#3","midi":58,"time":3.298073625,"velocity":0.2047244094488189,"duration":0.17094000000000031},{"name":"D5","midi":74,"time":3.300210375,"velocity":0.3700787401574803,"duration":0.11858962500000025},{"name":"A#2","midi":46,"time":3.313030875,"velocity":0.2283464566929134,"duration":0.11538450000000022},{"name":"F5","midi":77,"time":3.888885,"velocity":0.4881889763779528,"duration":0.1837605},{"name":"D5","midi":74,"time":3.9038422500000003,"velocity":0.33858267716535434,"duration":0.05876062500000012},{"name":"A#3","midi":58,"time":3.9049106250000003,"velocity":0.2440944881889764,"duration":0.08440162499999992},{"name":"A#2","midi":46,"time":3.9209362500000005,"velocity":0.23622047244094488,"duration":0.07478624999999983},{"name":"D5","midi":74,"time":4.145295,"velocity":0.5118110236220472,"duration":0.13568362499999953},{"name":"A#4","midi":70,"time":4.196577,"velocity":0.29133858267716534,"duration":0.05876062499999968},{"name":"D5","midi":74,"time":4.451918624999999,"velocity":0.4330708661417323,"duration":0.2820510000000027},{"name":"G3","midi":55,"time":4.454055374999999,"velocity":0.2992125984251969,"duration":0.2681621250000026},{"name":"F5","midi":77,"time":4.455123749999999,"velocity":0.5275590551181102,"duration":0.44230725000000337},{"name":"A#2","midi":46,"time":4.459397249999999,"velocity":0.30708661417322836,"duration":0.2788458750000027},{"name":"G5","midi":79,"time":5.027772750000003,"velocity":0.5275590551181102,"duration":0.24679462500000238},{"name":"D#5","midi":75,"time":5.030977875000003,"velocity":0.4330708661417323,"duration":0.18055537500000174},{"name":"A#2","midi":46,"time":5.041661625000003,"velocity":0.29133858267716534,"duration":0.21367500000000206},{"name":"G3","midi":55,"time":5.052345375000003,"velocity":0.2283464566929134,"duration":0.5053413750000013},{"name":"G5","midi":79,"time":5.613242250000004,"velocity":0.49606299212598426,"duration":0.34935862500000336},{"name":"D#3","midi":51,"time":5.620720875000004,"velocity":0.28346456692913385,"duration":0.29487150000000284},{"name":"D#5","midi":75,"time":5.6303362500000045,"velocity":0.4094488188976378,"duration":0.8269222500000035},{"name":"A#2","midi":46,"time":5.638883250000005,"velocity":0.2755905511811024,"duration":0.25427325000000245},{"name":"A#5","midi":82,"time":6.197643375000008,"velocity":0.44881889763779526,"duration":0.23290574999999958},{"name":"D#3","midi":51,"time":6.216874125000008,"velocity":0.25984251968503935,"duration":0.2553416249999998},{"name":"G5","midi":79,"time":6.225421125000008,"velocity":0.36220472440944884,"duration":0.1431622499999996},{"name":"A#2","midi":46,"time":6.2264895000000084,"velocity":0.2125984251968504,"duration":0.06410249999999973},{"name":"D#5","midi":75,"time":6.832258125000008,"velocity":0.4566929133858268,"duration":0.30769200000000296},{"name":"C5","midi":72,"time":6.841873500000008,"velocity":0.3464566929133858,"duration":0.3215808750000031},{"name":"A3","midi":57,"time":6.849352125000008,"velocity":0.25196850393700787,"duration":0.3002133750000029},{"name":"C3","midi":48,"time":6.857899125000008,"velocity":0.25196850393700787,"duration":0.2788458750000027},{"name":"A#2","midi":46,"time":6.8803350000000085,"velocity":0.23622047244094488,"duration":0.2617518750000025},{"name":"D#5","midi":75,"time":7.422001125000012,"velocity":0.49606299212598426,"duration":0.20940150000000024},{"name":"C5","midi":72,"time":7.426274625000012,"velocity":0.4015748031496063,"duration":0.08333324999999991},{"name":"A3","midi":57,"time":7.442300250000012,"velocity":0.2125984251968504,"duration":0.18162374999999997},{"name":"A#2","midi":46,"time":7.454052375000012,"velocity":0.1968503937007874,"duration":0.19764937500000013},{"name":"C3","midi":48,"time":7.458325875000012,"velocity":0.2283464566929134,"duration":0.2051280000000002},{"name":"C5","midi":72,"time":7.675206000000013,"velocity":0.5354330708661418,"duration":0.11965800000000026},{"name":"A4","midi":69,"time":7.705120500000013,"velocity":0.36220472440944884,"duration":0.0608973749999997},{"name":"D#5","midi":75,"time":7.948710000000013,"velocity":0.5590551181102362,"duration":0.25427324999999534},{"name":"C5","midi":72,"time":7.966872375000013,"velocity":0.33858267716535434,"duration":0.24572624999999437},{"name":"A3","midi":57,"time":7.980761250000013,"velocity":0.18110236220472442,"duration":0.1965809999999948},{"name":"A#2","midi":46,"time":7.991445000000013,"velocity":0.1732283464566929,"duration":0.22115362499999414},{"name":"C3","midi":48,"time":8.002128750000013,"velocity":0.2125984251968504,"duration":0.19444424999999477},{"name":"D#5","midi":75,"time":8.530974375000008,"velocity":0.5433070866141733,"duration":0.19444424999999832},{"name":"A3","midi":57,"time":8.534179500000008,"velocity":0.2125984251968504,"duration":0.20085449999999838},{"name":"C5","midi":72,"time":8.541658125000007,"velocity":0.3937007874015748,"duration":0.08546999999999905},{"name":"C3","midi":48,"time":8.542726500000006,"velocity":0.25984251968503935,"duration":0.26175187499999986},{"name":"A#2","midi":46,"time":8.560888875000005,"velocity":0.15748031496062992,"duration":0.14743575000000142},{"name":"C5","midi":72,"time":8.789521125000006,"velocity":0.5433070866141733,"duration":0.12606824999999944},{"name":"A4","midi":69,"time":8.811957000000005,"velocity":0.3937007874015748,"duration":0.045940124999999554},{"name":"D#5","midi":75,"time":9.060888375000005,"velocity":0.5118110236220472,"duration":0.2660253749999928},{"name":"A3","midi":57,"time":9.076914000000004,"velocity":0.23622047244094488,"duration":0.26068349999999185},{"name":"F3","midi":53,"time":9.082255875000003,"velocity":0.2677165354330709,"duration":0.2553416249999927},{"name":"A#2","midi":46,"time":9.088666125000003,"velocity":0.2204724409448819,"duration":0.24572624999999348},{"name":"C5","midi":72,"time":9.100418250000002,"velocity":0.28346456692913385,"duration":0.4786319999999922},{"name":"A5","midi":81,"time":9.647426249999995,"velocity":0.5196850393700787,"duration":0.21260662499999938},{"name":"D#5","midi":75,"time":9.660246749999995,"velocity":0.3937007874015748,"duration":0.20833312499999757},{"name":"F3","midi":53,"time":9.667725374999995,"velocity":0.25196850393700787,"duration":0.19764937499999924},{"name":"A3","midi":57,"time":9.674135624999995,"velocity":0.1968503937007874,"duration":0.19978612499999748},{"name":"A#2","midi":46,"time":9.679477499999994,"velocity":0.1968503937007874,"duration":0.2029912499999984},{"name":"A3","midi":57,"time":10.208323124999993,"velocity":0.1968503937007874,"duration":0.23717924999999873},{"name":"F3","midi":53,"time":10.208323124999993,"velocity":0.25196850393700787,"duration":0.17735024999999816},{"name":"A#2","midi":46,"time":10.212596624999993,"velocity":0.2125984251968504,"duration":0.1527776249999988},{"name":"A5","midi":81,"time":10.215801749999992,"velocity":0.49606299212598426,"duration":0.6292728749999963},{"name":"C5","midi":72,"time":10.232895749999992,"velocity":0.30708661417322836,"duration":0.27991424999999914},{"name":"D#5","midi":75,"time":10.78845074999999,"velocity":0.3779527559055118,"duration":0.12606824999999766},{"name":"C6","midi":84,"time":10.79165587499999,"velocity":0.4330708661417323,"duration":0.2532048749999998},{"name":"A#2","midi":46,"time":10.80661312499999,"velocity":0.25196850393700787,"duration":0.07905974999999899},{"name":"F3","midi":53,"time":10.809818249999989,"velocity":0.2283464566929134,"duration":0.08867512499999997},{"name":"A3","midi":57,"time":10.814091749999989,"velocity":0.15748031496062992,"duration":0.1645297499999998},{"name":"F4","midi":65,"time":11.428407374999988,"velocity":0.25196850393700787,"duration":0.33867487499998816},{"name":"D4","midi":62,"time":11.435885999999988,"velocity":0.2677165354330709,"duration":0.3173073749999915},{"name":"A#5","midi":82,"time":11.439091124999987,"velocity":0.4330708661417323,"duration":0.4561961249999893},{"name":"D5","midi":74,"time":11.439091124999987,"velocity":0.3464566929133858,"duration":0.3108971249999932},{"name":"A#3","midi":58,"time":11.439091124999987,"velocity":0.25196850393700787,"duration":0.3269227499999907},{"name":"A#3","midi":58,"time":11.960458124999976,"velocity":0.2992125984251969,"duration":0.37820474999999476},{"name":"D4","midi":62,"time":11.980757249999975,"velocity":0.31496062992125984,"duration":0.3002133749999967},{"name":"F4","midi":65,"time":11.994646124999974,"velocity":0.25196850393700787,"duration":0.3023501249999967},{"name":"C6","midi":84,"time":12.097210124999974,"velocity":0.41732283464566927,"duration":0.20299124999999663},{"name":"D#5","midi":75,"time":12.097210124999974,"velocity":0.33858267716535434,"duration":0.03739312499999947},{"name":"D6","midi":86,"time":12.233962124999973,"velocity":0.44881889763779526,"duration":0.10256399999999743},{"name":"F5","midi":77,"time":12.241440749999972,"velocity":0.4566929133858268,"duration":0.07585462499999807},{"name":"F4","midi":65,"time":12.50532937499997,"velocity":0.2755905511811024,"duration":0.3237176249999951},{"name":"A#3","midi":58,"time":12.51921824999997,"velocity":0.3228346456692913,"duration":0.31837574999999596},{"name":"D4","midi":62,"time":12.51921824999997,"velocity":0.2677165354330709,"duration":0.3098287499999959},{"name":"A#5","midi":82,"time":12.525628499999968,"velocity":0.5354330708661418,"duration":0.25961512499999806},{"name":"A3","midi":57,"time":12.532038749999968,"velocity":0.3464566929133858,"duration":0.2638886249999981},{"name":"D5","midi":74,"time":12.556611374999967,"velocity":0.29133858267716534,"duration":0.1634613749999989},{"name":"D6","midi":86,"time":12.768149624999966,"velocity":0.5118110236220472,"duration":0.16666649999999983},{"name":"F5","midi":77,"time":12.780970124999966,"velocity":0.47244094488188976,"duration":0.06730762499999976},{"name":"C6","midi":84,"time":13.033106624999965,"velocity":0.5433070866141733,"duration":0.11538449999999756},{"name":"D4","midi":62,"time":13.034174999999964,"velocity":0.28346456692913385,"duration":0.251068124999998},{"name":"A3","midi":57,"time":13.037380124999963,"velocity":0.33858267716535434,"duration":0.13782037499999866},{"name":"F4","midi":65,"time":13.040585249999962,"velocity":0.2677165354330709,"duration":0.21688012499999942},{"name":"A#3","midi":58,"time":13.041653624999961,"velocity":0.2283464566929134,"duration":0.3258543750000005},{"name":"D#5","midi":75,"time":13.056610874999961,"velocity":0.4094488188976378,"duration":0.055555500000000535},{"name":"F5","midi":77,"time":13.298063624999962,"velocity":0.5590551181102362,"duration":0.11217937500000019},{"name":"C5","midi":72,"time":13.313020874999962,"velocity":0.41732283464566927,"duration":0.03418800000000033},{"name":"A#3","midi":58,"time":13.612165874999961,"velocity":0.15748031496062992,"duration":0.277777499999992},{"name":"A#5","midi":82,"time":13.61750774999996,"velocity":0.4881889763779528,"duration":0.45299099999999015},{"name":"G3","midi":55,"time":13.62712312499996,"velocity":0.25984251968503935,"duration":0.2670937499999937},{"name":"D5","midi":74,"time":13.63567012499996,"velocity":0.3543307086614173,"duration":0.11111099999999752},{"name":"F4","midi":65,"time":13.64421712499996,"velocity":0.1968503937007874,"duration":0.24572624999999348},{"name":"D4","midi":62,"time":13.645285499999959,"velocity":0.2440944881889764,"duration":0.23183737499999424},{"name":"D5","midi":74,"time":13.747849499999957,"velocity":0.11023622047244094,"duration":0.18055537499999552},{"name":"D4","midi":62,"time":14.14635337499995,"velocity":0.28346456692913385,"duration":0.25961512499999984},{"name":"G3","midi":55,"time":14.15490037499995,"velocity":0.2440944881889764,"duration":0.19764937499999924},{"name":"F4","midi":65,"time":14.15490037499995,"velocity":0.2047244094488189,"duration":0.20833312499999934},{"name":"A#3","midi":58,"time":14.16344737499995,"velocity":0.1968503937007874,"duration":0.4700849999999992},{"name":"C6","midi":84,"time":14.233960124999951,"velocity":0.4645669291338583,"duration":0.19658099999999834},{"name":"D#5","midi":75,"time":14.25425924999995,"velocity":0.2204724409448819,"duration":0.05662387499999966},{"name":"D6","midi":86,"time":14.37819074999995,"velocity":0.47244094488188976,"duration":0.13461524999999952},{"name":"F5","midi":77,"time":14.40810524999995,"velocity":0.41732283464566927,"duration":0.02991449999999851},{"name":"A#5","midi":82,"time":14.69015624999995,"velocity":0.4251968503937008,"duration":0.28952962499999124},{"name":"F3","midi":53,"time":14.695498124999949,"velocity":0.30708661417322836,"duration":0.3226492499999907},{"name":"D5","midi":74,"time":14.702976749999948,"velocity":0.33858267716535434,"duration":0.20619637499999577},{"name":"D4","midi":62,"time":14.710455374999947,"velocity":0.29133858267716534,"duration":0.27136724999999373},{"name":"F4","midi":65,"time":14.729686124999947,"velocity":0.1732283464566929,"duration":0.23397412499999426},{"name":"D6","midi":86,"time":14.945497874999942,"velocity":0.5511811023622047,"duration":0.20299124999999663},{"name":"F5","midi":77,"time":14.959386749999942,"velocity":0.48031496062992124,"duration":0.047008499999998676},{"name":"C6","midi":84,"time":15.21686512499994,"velocity":0.5275590551181102,"duration":0.1079058749999966},{"name":"A#3","midi":58,"time":15.224343749999939,"velocity":0.3228346456692913,"duration":0.08226487499999813},{"name":"D#5","midi":75,"time":15.233959124999938,"velocity":0.44881889763779526,"duration":0.043803374999999534},{"name":"D4","midi":62,"time":15.238232624999938,"velocity":0.3543307086614173,"duration":0.05876062499999968},{"name":"F3","midi":53,"time":15.238232624999938,"velocity":0.29133858267716534,"duration":0.081196499999999},{"name":"F5","midi":77,"time":15.494642624999937,"velocity":0.5511811023622047,"duration":0.08333324999999903},{"name":"C5","midi":72,"time":15.504257999999936,"velocity":0.4330708661417323,"duration":0.03632475000000035},{"name":"A#5","midi":82,"time":15.785240624999936,"velocity":0.49606299212598426,"duration":0.19337587499999387},{"name":"A#3","midi":58,"time":15.804471374999935,"velocity":0.2755905511811024,"duration":0.26282024999999365},{"name":"G3","midi":55,"time":15.808744874999935,"velocity":0.29133858267716534,"duration":0.30769199999999586},{"name":"D5","midi":74,"time":15.809813249999934,"velocity":0.3858267716535433,"duration":0.1207263749999985},{"name":"D#3","midi":51,"time":15.822633749999934,"velocity":0.2440944881889764,"duration":0.2200852499999968},{"name":"D4","midi":62,"time":15.823702124999933,"velocity":0.2677165354330709,"duration":0.22542712499999595},{"name":"G3","midi":55,"time":16.32904349999993,"velocity":0.2283464566929134,"duration":0.22008524999999324},{"name":"D6","midi":86,"time":16.339727249999928,"velocity":0.5039370078740157,"duration":0.12820499999999768},{"name":"D#3","midi":51,"time":16.339727249999928,"velocity":0.25984251968503935,"duration":0.11538449999999756},{"name":"D4","midi":62,"time":16.354684499999927,"velocity":0.1889763779527559,"duration":0.26282024999999365},{"name":"A#5","midi":82,"time":16.381393874999926,"velocity":0.10236220472440945,"duration":0.09615374999999915},{"name":"A#3","midi":58,"time":16.384598999999927,"velocity":0.15748031496062992,"duration":0.12499987499999676},{"name":"D#6","midi":87,"time":16.449769874999927,"velocity":0.5039370078740157,"duration":0.1474357499999961},{"name":"C6","midi":84,"time":16.501051874999924,"velocity":0.2992125984251969,"duration":0.043803374999999534},{"name":"F6","midi":89,"time":16.58117999999992,"velocity":0.5196850393700787,"duration":0.08546999999999727},{"name":"D6","midi":86,"time":16.59934237499992,"velocity":0.47244094488188976,"duration":0.0491452499999987},{"name":"D6","midi":86,"time":16.870709624999918,"velocity":0.5196850393700787,"duration":0.277777499999992},{"name":"F3","midi":53,"time":16.871777999999917,"velocity":0.30708661417322836,"duration":0.3076919999999923},{"name":"A#5","midi":82,"time":16.886735249999916,"velocity":0.47244094488188976,"duration":0.1175212499999958},{"name":"A#3","midi":58,"time":16.886735249999916,"velocity":0.2755905511811024,"duration":0.2884612499999939},{"name":"D4","midi":62,"time":16.886735249999916,"velocity":0.2283464566929134,"duration":0.31196549999999235},{"name":"A#5","midi":82,"time":17.146350374999912,"velocity":0.5905511811023622,"duration":0.08333324999999547},{"name":"D5","midi":74,"time":17.15703412499991,"velocity":0.4881889763779528,"duration":0.15384599999999438},{"name":"C6","midi":84,"time":17.425196249999907,"velocity":0.5433070866141733,"duration":0.20299124999999663},{"name":"F3","midi":53,"time":17.427332999999905,"velocity":0.3228346456692913,"duration":0.2841877499999974},{"name":"A#3","midi":58,"time":17.427332999999905,"velocity":0.31496062992125984,"duration":0.2222219999999986},{"name":"D#5","midi":75,"time":17.431606499999905,"velocity":0.4566929133858268,"duration":0.12286312499999852},{"name":"D4","midi":62,"time":17.431606499999905,"velocity":0.2677165354330709,"duration":0.2521364999999989},{"name":"A5","midi":81,"time":17.689084874999903,"velocity":0.5039370078740157,"duration":0.10470074999999923},{"name":"F5","midi":77,"time":17.692289999999904,"velocity":0.4566929133858268,"duration":0.04273499999999686},{"name":"A#5","midi":82,"time":17.978614499999903,"velocity":0.5039370078740157,"duration":0.19123912499999207},{"name":"D4","midi":62,"time":17.982887999999903,"velocity":0.2440944881889764,"duration":0.2435894999999917},{"name":"A#3","midi":58,"time":17.9850247499999,"velocity":0.28346456692913385,"duration":0.217948499999995},{"name":"D5","midi":74,"time":17.9914349999999,"velocity":0.3858267716535433,"duration":0.15491437499999705},{"name":"G3","midi":55,"time":18.0053238749999,"velocity":0.1968503937007874,"duration":0.2702988749999946},{"name":"F3","midi":53,"time":18.570494249999893,"velocity":0.25196850393700787,"duration":0.05982899999999702},{"name":"A#3","midi":58,"time":18.580109624999892,"velocity":0.25984251968503935,"duration":0.46581150000000093},{"name":"D6","midi":86,"time":18.584383124999892,"velocity":0.4409448818897638,"duration":0.1100426249999984},{"name":"A#5","midi":82,"time":18.58651987499989,"velocity":0.36220472440944884,"duration":0.048076874999999575},{"name":"D4","midi":62,"time":18.62177624999989,"velocity":0.08661417322834646,"duration":0.5715806249999993},{"name":"D#6","midi":87,"time":18.67626337499989,"velocity":0.4330708661417323,"duration":0.18376049999999822},{"name":"D#3","midi":51,"time":18.81835724999989,"velocity":0.4015748031496063,"duration":0.12927337500000036},{"name":"F6","midi":89,"time":18.82369912499989,"velocity":0.4881889763779528,"duration":0.09935887500000007},{"name":"D6","midi":86,"time":18.84934012499989,"velocity":0.3937007874015748,"duration":0.044871749999998656},{"name":"D6","midi":86,"time":19.142074874999892,"velocity":0.4881889763779528,"duration":0.3258543749999916},{"name":"F3","midi":53,"time":19.14741674999989,"velocity":0.4094488188976378,"duration":0.17200837499999366},{"name":"A#5","midi":82,"time":19.16237399999989,"velocity":0.3779527559055118,"duration":0.1100426249999984},{"name":"A#5","midi":82,"time":19.466860874999885,"velocity":0.5039370078740157,"duration":0.0587606249999979},{"name":"D5","midi":74,"time":19.493570249999884,"velocity":0.3228346456692913,"duration":0.0822648749999999},{"name":"C6","midi":84,"time":19.79485199999988,"velocity":0.44881889763779526,"duration":0.4017089999999932},{"name":"D#5","midi":75,"time":19.798057124999882,"velocity":0.41732283464566927,"duration":0.37606799999999296},{"name":"F2","midi":41,"time":19.802330624999883,"velocity":0.2677165354330709,"duration":0.3279911249999934},{"name":"A5","midi":81,"time":20.194424249999877,"velocity":0.4566929133858268,"duration":0.13461524999999597},{"name":"C5","midi":72,"time":20.195492624999876,"velocity":0.4094488188976378,"duration":0.18376049999999822},{"name":"A#2","midi":46,"time":20.728611749999875,"velocity":0.25196850393700787,"duration":0.6004267499999933},{"name":"A#3","midi":58,"time":20.757457874999876,"velocity":0.12598425196850394,"duration":0.705127499999989},{"name":"A#4","midi":70,"time":20.902756874999877,"velocity":0.5433070866141733,"duration":1.380340499999992},{"name":"A#5","midi":82,"time":20.926261124999876,"velocity":0.41732283464566927,"duration":0.8408111249999912},{"name":"D5","midi":74,"time":20.939081624999876,"velocity":0.3779527559055118,"duration":0.5651703749999903},{"name":"F4","midi":65,"time":21.94655924999987,"velocity":0.14960629921259844,"duration":0.2521364999999989},{"name":"D4","midi":62,"time":21.957242999999867,"velocity":0.1889763779527559,"duration":0.23290575000000047},{"name":"A#3","midi":58,"time":21.960448124999868,"velocity":0.047244094488188976,"duration":0.22863225000000043},{"name":"D4","midi":62,"time":22.58224237499987,"velocity":0.2125984251968504,"duration":0.2457262500000006},{"name":"A#3","midi":58,"time":22.587584249999868,"velocity":0.1889763779527559,"duration":0.23397412500000314},{"name":"F4","midi":65,"time":22.598267999999866,"velocity":0.12598425196850394,"duration":0.23611087500000139},{"name":"D5","midi":74,"time":22.649549999999866,"velocity":0.47244094488188976,"duration":0.727563374999999},{"name":"A#4","midi":70,"time":22.721131124999868,"velocity":0.11811023622047244,"duration":0.08012812500000166},{"name":"A#3","midi":58,"time":23.19976312499987,"velocity":0.18110236220472442,"duration":0.17628187499999726},{"name":"D4","midi":62,"time":23.21258362499987,"velocity":0.2047244094488189,"duration":0.14209387499999693},{"name":"F4","midi":65,"time":23.21792549999987,"velocity":0.18110236220472442,"duration":0.18803399999999826},{"name":"C5","midi":72,"time":23.253181874999868,"velocity":0.5433070866141733,"duration":0.37072612499999735},{"name":"D#4","midi":63,"time":23.751044624999864,"velocity":0.28346456692913385,"duration":0.34615349999999623},{"name":"G4","midi":67,"time":23.776685624999864,"velocity":0.1968503937007874,"duration":0.3482902499999945},{"name":"A#3","midi":58,"time":23.790574499999863,"velocity":0.2047244094488189,"duration":0.3151706249999968},{"name":"C5","midi":72,"time":23.811941999999863,"velocity":0.4881889763779528,"duration":1.3258533749999906},{"name":"A#4","midi":70,"time":23.843993249999862,"velocity":0.2755905511811024,"duration":0.31837574999999774},{"name":"D#4","midi":63,"time":24.33010387499986,"velocity":0.2440944881889764,"duration":0.2649569999999919},{"name":"A#4","midi":70,"time":24.33971924999986,"velocity":0.28346456692913385,"duration":0.11431612499999488},{"name":"G4","midi":67,"time":24.352539749999856,"velocity":0.16535433070866143,"duration":0.25747837499999804},{"name":"A#3","midi":58,"time":24.369633749999856,"velocity":0.1889763779527559,"duration":0.253204874999998},{"name":"A#4","midi":70,"time":24.49463362499985,"velocity":0.13385826771653545,"duration":0.10363237500000366},{"name":"A#4","midi":70,"time":24.917710124999854,"velocity":0.31496062992125984,"duration":0.2061963750000011},{"name":"D#4","midi":63,"time":24.923051999999853,"velocity":0.2283464566929134,"duration":0.22970062499999955},{"name":"A#3","midi":58,"time":24.926257124999854,"velocity":0.2283464566929134,"duration":0.2329057499999969},{"name":"G4","midi":67,"time":24.950829749999855,"velocity":0.14173228346456693,"duration":0.19658099999999834},{"name":"D#4","midi":63,"time":25.49249587499985,"velocity":0.2440944881889764,"duration":0.3141022499999977},{"name":"A#3","midi":58,"time":25.50638474999985,"velocity":0.2283464566929134,"duration":0.2959398749999984},{"name":"D5","midi":74,"time":25.51172662499985,"velocity":0.5511811023622047,"duration":0.28205099999999916},{"name":"G4","midi":67,"time":25.529888999999848,"velocity":0.14173228346456693,"duration":0.08119650000000078},{"name":"A#4","midi":70,"time":25.53736762499985,"velocity":0.3464566929133858,"duration":0.21688012499999942},{"name":"C4","midi":60,"time":26.04805087499985,"velocity":0.25984251968503935,"duration":0.39316199999999313},{"name":"A3","midi":57,"time":26.06834999999985,"velocity":0.2283464566929134,"duration":0.36324749999999284},{"name":"F4","midi":65,"time":26.09826449999985,"velocity":0.18110236220472442,"duration":0.3311962499999943},{"name":"D#5","midi":75,"time":26.11429012499985,"velocity":0.5275590551181102,"duration":1.2190158749999824},{"name":"C5","midi":72,"time":26.14420462499985,"velocity":0.25984251968503935,"duration":0.3247859999999889},{"name":"C5","midi":72,"time":26.67198187499984,"velocity":0.33070866141732286,"duration":0.3333329999999961},{"name":"C4","midi":60,"time":26.67411862499984,"velocity":0.2755905511811024,"duration":0.33546974999999435},{"name":"A3","midi":57,"time":26.68159724999984,"velocity":0.2440944881889764,"duration":0.32585437499999514},{"name":"F4","midi":65,"time":26.72540062499984,"velocity":0.11023622047244094,"duration":0.2777774999999991},{"name":"C4","midi":60,"time":27.238220624999833,"velocity":0.2440944881889764,"duration":0.3408116249999935},{"name":"A3","midi":57,"time":27.241425749999834,"velocity":0.23622047244094488,"duration":0.3504269999999927},{"name":"F4","midi":65,"time":27.268135124999834,"velocity":0.13385826771653545,"duration":0.3194441249999933},{"name":"G5","midi":79,"time":27.271340249999835,"velocity":0.49606299212598426,"duration":0.5769224999999913},{"name":"C5","midi":72,"time":27.287365874999836,"velocity":0.30708661417322836,"duration":0.33974324999999084},{"name":"A3","midi":57,"time":27.825826874999827,"velocity":0.25984251968503935,"duration":0.28952962499999657},{"name":"C4","midi":60,"time":27.842920874999827,"velocity":0.1968503937007874,"duration":0.2756407499999973},{"name":"F5","midi":77,"time":27.847194374999827,"velocity":0.49606299212598426,"duration":0.29166637499999837},{"name":"F4","midi":65,"time":27.853604624999825,"velocity":0.1968503937007874,"duration":0.25106812499999975},{"name":"C5","midi":72,"time":27.872835374999823,"velocity":0.33070866141732286,"duration":0.22222200000000214},{"name":"D4","midi":62,"time":28.411296374999825,"velocity":0.2440944881889764,"duration":0.32799112499998984},{"name":"A#3","midi":58,"time":28.426253624999823,"velocity":0.1732283464566929,"duration":0.29380312499999306},{"name":"F4","midi":65,"time":28.42839037499982,"velocity":0.16535433070866143,"duration":0.2873928749999948},{"name":"D#5","midi":75,"time":28.46792024999982,"velocity":0.4094488188976378,"duration":0.1965809999999948},{"name":"A#4","midi":70,"time":28.50210824999982,"velocity":0.11811023622047244,"duration":0.10149562499999476},{"name":"D5","midi":74,"time":28.708304624999816,"velocity":0.3700787401574803,"duration":0.07692300000000074},{"name":"D#5","midi":75,"time":28.813005374999815,"velocity":0.4566929133858268,"duration":0.05769224999999878},{"name":"D5","midi":74,"time":28.908090749999815,"velocity":0.4566929133858268,"duration":0.03952987499999949},{"name":"D4","midi":62,"time":28.917706124999814,"velocity":0.25984251968503935,"duration":0.1944442500000001},{"name":"A#3","midi":58,"time":28.920911249999815,"velocity":0.2283464566929134,"duration":0.2136749999999985},{"name":"F4","midi":65,"time":28.964714624999814,"velocity":0.13385826771653545,"duration":0.1527776249999988},{"name":"D#5","midi":75,"time":28.988218874999813,"velocity":0.41732283464566927,"duration":0.028846125000001166},{"name":"D5","midi":74,"time":29.037364124999815,"velocity":0.5118110236220472,"duration":0.03846150000000037},{"name":"D#5","midi":75,"time":29.114287124999812,"velocity":0.4566929133858268,"duration":0.03952987499999949},{"name":"D5","midi":74,"time":29.170910999999812,"velocity":0.44881889763779526,"duration":0.22970062499999955},{"name":"D4","midi":62,"time":29.37603899999981,"velocity":0.2440944881889764,"duration":0.30769199999999586},{"name":"A#3","midi":58,"time":29.37924412499981,"velocity":0.2204724409448819,"duration":0.3301278749999952},{"name":"C5","midi":72,"time":29.41236374999981,"velocity":0.49606299212598426,"duration":0.2938031249999966},{"name":"F4","midi":65,"time":29.41556887499981,"velocity":0.2440944881889764,"duration":0.313033874999995},{"name":"A#4","midi":70,"time":29.968987124999806,"velocity":0.48031496062992124,"duration":0.40705087500000303},{"name":"D4","midi":62,"time":29.973260624999806,"velocity":0.3543307086614173,"duration":0.0940170000000009},{"name":"A#3","midi":58,"time":29.989286249999807,"velocity":0.28346456692913385,"duration":0.14209387500000048},{"name":"A#2","midi":46,"time":30.53522587499981,"velocity":0.2677165354330709,"duration":0.29380312499999306},{"name":"D5","midi":74,"time":30.56300362499981,"velocity":0.49606299212598426,"duration":0.34508512499999355},{"name":"A#3","midi":58,"time":30.57155062499981,"velocity":0.2283464566929134,"duration":0.24999974999999353},{"name":"G4","midi":67,"time":30.576892499999808,"velocity":0.3779527559055118,"duration":0.35363212499999364},{"name":"D4","midi":62,"time":30.582234374999807,"velocity":0.33070866141732286,"duration":0.30555524999999406},{"name":"A#4","midi":70,"time":31.1132167499998,"velocity":0.5433070866141733,"duration":0.25854674999999716},{"name":"G4","midi":67,"time":31.1153534999998,"velocity":0.3858267716535433,"duration":0.2638886249999999},{"name":"A#2","midi":46,"time":31.1313791249998,"velocity":0.2283464566929134,"duration":0.19871775000000014},{"name":"A#3","midi":58,"time":31.1409944999998,"velocity":0.16535433070866143,"duration":0.20726475000000022},{"name":"D4","midi":62,"time":31.1409944999998,"velocity":0.33070866141732286,"duration":0.23824762499999963},{"name":"A4","midi":69,"time":31.692275999999797,"velocity":0.5275590551181102,"duration":0.47435849999999036},{"name":"F4","midi":65,"time":31.704028124999798,"velocity":0.4330708661417323,"duration":0.3269227499999907},{"name":"A#2","midi":46,"time":31.7072332499998,"velocity":0.25984251968503935,"duration":0.2585467499999936},{"name":"A#3","midi":58,"time":31.708301624999798,"velocity":0.2283464566929134,"duration":0.266025374999991},{"name":"D4","midi":62,"time":31.724327249999796,"velocity":0.3464566929133858,"duration":0.27136724999999373},{"name":"G4","midi":67,"time":32.25317287499979,"velocity":0.49606299212598426,"duration":0.3108971249999968},{"name":"A#3","midi":58,"time":32.27560874999979,"velocity":0.2677165354330709,"duration":0.1645297499999927},{"name":"F4","midi":65,"time":32.28095062499979,"velocity":0.4094488188976378,"duration":0.24572624999999704},{"name":"A#2","midi":46,"time":32.30018137499979,"velocity":0.25196850393700787,"duration":0.13141012499999505},{"name":"D4","midi":62,"time":32.30018137499979,"velocity":0.2283464566929134,"duration":0.20299124999999663},{"name":"A#2","midi":46,"time":32.804454374999786,"velocity":0.25984251968503935,"duration":0.35897400000000346},{"name":"G3","midi":55,"time":32.81941162499979,"velocity":0.2125984251968504,"duration":0.33546975000000145},{"name":"C5","midi":72,"time":32.869625249999785,"velocity":0.49606299212598426,"duration":1.3814088750000124},{"name":"C4","midi":60,"time":32.897402999999784,"velocity":0.25984251968503935,"duration":0.30128175000000823},{"name":"E4","midi":64,"time":32.89847137499979,"velocity":0.33858267716535434,"duration":0.26816212500000347},{"name":"E4","midi":64,"time":33.461504999999796,"velocity":0.3858267716535433,"duration":0.17414512500000967},{"name":"G3","midi":55,"time":33.4679152499998,"velocity":0.2283464566929134,"duration":0.19551262500000632},{"name":"A#2","midi":46,"time":33.4689836249998,"velocity":0.23622047244094488,"duration":0.17841862500000616},{"name":"C4","midi":60,"time":33.4807357499998,"velocity":0.2047244094488189,"duration":0.20299125000000373},{"name":"A2","midi":45,"time":34.0427009999998,"velocity":0.2677165354330709,"duration":0.26175187500000163},{"name":"F4","midi":65,"time":34.043769374999805,"velocity":0.30708661417322836,"duration":0.31623899999999594},{"name":"C4","midi":60,"time":34.0459061249998,"velocity":0.2204724409448819,"duration":0.7735034999999968},{"name":"A3","midi":57,"time":34.049111249999804,"velocity":0.15748031496062992,"duration":0.16132462499999178},{"name":"A#2","midi":46,"time":34.6249653749998,"velocity":0.2992125984251969,"duration":0.450854249999999},{"name":"D5","midi":74,"time":34.636717499999804,"velocity":0.5118110236220472,"duration":0.19017074999999295},{"name":"F4","midi":65,"time":34.63778587499981,"velocity":0.41732283464566927,"duration":0.26068349999999185},{"name":"G3","midi":55,"time":34.68906787499981,"velocity":0.10236220472440945,"duration":0.21688012499998877},{"name":"C3","midi":48,"time":35.229665624999804,"velocity":0.29133858267716534,"duration":0.33546974999999435},{"name":"A4","midi":69,"time":35.241417749999805,"velocity":0.48031496062992124,"duration":1.1869646249999803},{"name":"F4","midi":65,"time":35.261716874999806,"velocity":0.33070866141732286,"duration":0.37927312499999033},{"name":"C4","midi":60,"time":35.27346899999981,"velocity":0.1889763779527559,"duration":0.29273474999999394},{"name":"F4","midi":65,"time":35.831160749999796,"velocity":0.33070866141732286,"duration":0.2788458749999876},{"name":"C3","midi":48,"time":35.8546649999998,"velocity":0.25984251968503935,"duration":0.17841862499998484},{"name":"C4","midi":60,"time":35.8738957499998,"velocity":0.2440944881889764,"duration":0.24999974999998642},{"name":"G4","midi":67,"time":36.45509174999979,"velocity":0.4251968503937008,"duration":0.7115377499999909},{"name":"E4","midi":64,"time":36.471117374999785,"velocity":0.31496062992125984,"duration":0.5299140000000051},{"name":"A#3","midi":58,"time":36.474322499999786,"velocity":0.25984251968503935,"duration":0.30021337499999845},{"name":"C3","midi":48,"time":36.49248487499979,"velocity":0.18110236220472442,"duration":0.2991449999999958},{"name":"C4","midi":60,"time":36.49462162499979,"velocity":0.2283464566929134,"duration":0.9337597499999859},{"name":"A#3","midi":58,"time":37.058723624999786,"velocity":0.2755905511811024,"duration":0.289529624999993},{"name":"C3","midi":48,"time":37.06513387499978,"velocity":0.25196850393700787,"duration":0.2232903749999977},{"name":"F4","midi":65,"time":37.07688599999978,"velocity":0.4645669291338583,"duration":0.28418774999999385},{"name":"F3","midi":53,"time":37.678381124999774,"velocity":0.3228346456692913,"duration":0.35149537499999894},{"name":"A3","midi":57,"time":37.67944949999978,"velocity":0.28346456692913385,"duration":0.336538124999997},{"name":"F4","midi":65,"time":37.69226999999977,"velocity":0.44881889763779526,"duration":2.008544999999998},{"name":"C4","midi":60,"time":37.71150074999977,"velocity":0.23622047244094488,"duration":0.3055552500000047},{"name":"F3","midi":53,"time":38.274534374999774,"velocity":0.2755905511811024,"duration":0.3653842500000053},{"name":"C4","midi":60,"time":38.29269674999977,"velocity":0.2992125984251969,"duration":0.3141022500000119},{"name":"A3","midi":57,"time":38.296970249999774,"velocity":0.2677165354330709,"duration":0.35149537500000605},{"name":"A3","midi":57,"time":38.88030299999978,"velocity":0.2047244094488189,"duration":0.2970082499999904},{"name":"C4","midi":60,"time":38.88991837499978,"velocity":0.2677165354330709,"duration":0.2628202499999901},{"name":"D#3","midi":51,"time":38.89419187499978,"velocity":0.29133858267716534,"duration":0.2831193749999912},{"name":"D#3","midi":51,"time":39.48286649999977,"velocity":0.2677165354330709,"duration":0.3653842499999911},{"name":"C4","midi":60,"time":39.49996049999977,"velocity":0.2125984251968504,"duration":0.17521349999999813},{"name":"A3","midi":57,"time":39.503165624999774,"velocity":0.14960629921259844,"duration":0.18376049999999822},{"name":"D3","midi":50,"time":40.22966062499977,"velocity":0.29133858267716534,"duration":0.29593987499999486},{"name":"A#3","midi":58,"time":40.24141274999977,"velocity":0.2440944881889764,"duration":0.2553416249999927},{"name":"F4","midi":65,"time":40.24461787499977,"velocity":0.4330708661417323,"duration":1.08867412499999},{"name":"F5","midi":77,"time":40.283079374999765,"velocity":0.3228346456692913,"duration":0.2820509999999956},{"name":"D5","midi":74,"time":40.285216124999764,"velocity":0.33070866141732286,"duration":0.2873928749999948},{"name":"D3","midi":50,"time":40.83329249999976,"velocity":0.30708661417322836,"duration":0.1485041249999952},{"name":"D5","midi":74,"time":40.84824974999976,"velocity":0.3858267716535433,"duration":0.06623924999999531},{"name":"F5","midi":77,"time":40.85038649999976,"velocity":0.3779527559055118,"duration":0.10897424999999572},{"name":"A#3","midi":58,"time":40.85572837499976,"velocity":0.2047244094488189,"duration":0.14423062499999872},{"name":"D5","midi":74,"time":41.08970249999975,"velocity":0.4330708661417323,"duration":0.10042725000000274},{"name":"A#4","midi":70,"time":41.092907624999754,"velocity":0.4330708661417323,"duration":0.0747862500000025},{"name":"G#4","midi":68,"time":41.37389024999976,"velocity":0.5354330708661418,"duration":0.38354662500000813},{"name":"D5","midi":74,"time":41.37923212499976,"velocity":0.4330708661417323,"duration":0.26495700000000255},{"name":"A#2","midi":46,"time":41.41128337499976,"velocity":0.2204724409448819,"duration":0.24465787500000147},{"name":"F5","midi":77,"time":41.420898749999765,"velocity":0.4015748031496063,"duration":0.25641000000000247},{"name":"A#3","midi":58,"time":41.429445749999765,"velocity":0.2047244094488189,"duration":0.24465787500000147},{"name":"A#2","midi":46,"time":41.94867599999977,"velocity":0.3464566929133858,"duration":0.2542732499999971},{"name":"G4","midi":67,"time":41.95081274999977,"velocity":0.5590551181102362,"duration":0.28098262500000004},{"name":"A#3","midi":58,"time":41.97645374999977,"velocity":0.2125984251968504,"duration":0.24572624999999704},{"name":"F5","midi":77,"time":41.98072724999977,"velocity":0.44881889763779526,"duration":0.12820500000000123},{"name":"D5","midi":74,"time":42.008504999999765,"velocity":0.2047244094488189,"duration":0.05448712500000141},{"name":"D5","midi":74,"time":42.19226549999977,"velocity":0.47244094488188976,"duration":0.11965800000000115},{"name":"A#4","midi":70,"time":42.19653899999977,"velocity":0.5118110236220472,"duration":0.09188025000000266},{"name":"G4","midi":67,"time":42.50423099999977,"velocity":0.5748031496062992,"duration":1.299143999999984},{"name":"D#3","midi":51,"time":42.50529937499977,"velocity":0.3779527559055118,"duration":0.3685893749999849},{"name":"D5","midi":74,"time":42.50743612499977,"velocity":0.4645669291338583,"duration":0.2788458749999947},{"name":"A#3","midi":58,"time":42.53948737499977,"velocity":0.18110236220472442,"duration":0.3301278749999881},{"name":"F5","midi":77,"time":42.54910274999977,"velocity":0.3779527559055118,"duration":0.2863244999999992},{"name":"D#3","midi":51,"time":43.05230737499976,"velocity":0.33070866141732286,"duration":0.48397387499999667},{"name":"G5","midi":79,"time":43.06405949999976,"velocity":0.4015748031496063,"duration":0.20619637499999754},{"name":"D#5","midi":75,"time":43.07260649999976,"velocity":0.3779527559055118,"duration":0.24465787499999436},{"name":"A#3","midi":58,"time":43.07581162499976,"velocity":0.1968503937007874,"duration":0.24999974999999353},{"name":"D3","midi":50,"time":43.662349499999756,"velocity":0.2992125984251969,"duration":0.2435894999999917},{"name":"G5","midi":79,"time":43.66875974999975,"velocity":0.3779527559055118,"duration":0.15811949999999797},{"name":"D#5","midi":75,"time":43.66875974999975,"velocity":0.36220472440944884,"duration":0.16666649999999805},{"name":"A#3","midi":58,"time":43.678375124999754,"velocity":0.12598425196850394,"duration":0.21367499999999495},{"name":"A4","midi":69,"time":44.21576774999975,"velocity":0.5511811023622047,"duration":0.605768624999989},{"name":"A#5","midi":82,"time":44.220041249999746,"velocity":0.5039370078740157,"duration":0.15170924999999613},{"name":"G5","midi":79,"time":44.22431474999974,"velocity":0.4330708661417323,"duration":0.14209387500000048},{"name":"A#3","midi":58,"time":44.22751987499974,"velocity":0.33070866141732286,"duration":0.17948700000000173},{"name":"D3","midi":50,"time":44.237135249999746,"velocity":0.3464566929133858,"duration":0.27670912499999645},{"name":"A#4","midi":70,"time":44.80230562499974,"velocity":0.5984251968503937,"duration":0.5363242499999856},{"name":"D#3","midi":51,"time":44.81192099999974,"velocity":0.25196850393700787,"duration":0.32264924999998357},{"name":"C4","midi":60,"time":44.81192099999974,"velocity":0.16535433070866143,"duration":0.3290594999999854},{"name":"C3","midi":48,"time":44.81726287499974,"velocity":0.25196850393700787,"duration":0.32799112499998273},{"name":"D#5","midi":75,"time":44.82794662499974,"velocity":0.4251968503937008,"duration":0.28098262499999294},{"name":"G5","midi":79,"time":44.83863037499974,"velocity":0.4251968503937008,"duration":0.2863244999999921},{"name":"D#5","midi":75,"time":45.372817874999726,"velocity":0.3937007874015748,"duration":0.07051275000000601},{"name":"G5","midi":79,"time":45.37388624999973,"velocity":0.3700787401574803,"duration":0.17094000000000165},{"name":"D#3","midi":51,"time":45.381364874999726,"velocity":0.2755905511811024,"duration":0.2713672500000044},{"name":"C3","midi":48,"time":45.424099874999726,"velocity":0.11811023622047244,"duration":0.23717925000000406},{"name":"C4","midi":60,"time":45.42516824999973,"velocity":0.047244094488188976,"duration":0.21367500000000206},{"name":"C5","midi":72,"time":45.64952699999973,"velocity":0.4566929133858268,"duration":0.06196574999999882},{"name":"D#5","midi":75,"time":45.66021074999973,"velocity":0.4330708661417323,"duration":0.07692300000000074},{"name":"D5","midi":74,"time":45.93691987499973,"velocity":0.5984251968503937,"duration":0.38568337499999217},{"name":"C4","midi":60,"time":45.95187712499973,"velocity":0.2204724409448819,"duration":0.23397412499998893},{"name":"D#3","midi":51,"time":45.95615062499973,"velocity":0.25984251968503935,"duration":0.2777774999999991},{"name":"D#5","midi":75,"time":45.97324462499973,"velocity":0.4015748031496063,"duration":0.2991449999999958},{"name":"C3","midi":48,"time":45.97431299999973,"velocity":0.2283464566929134,"duration":0.2585467499999936},{"name":"C5","midi":72,"time":46.49461162499972,"velocity":0.6141732283464567,"duration":0.26923050000000615},{"name":"C4","midi":60,"time":46.49674837499972,"velocity":0.33858267716535434,"duration":0.20192287500000816},{"name":"D#3","midi":51,"time":46.51063724999972,"velocity":0.31496062992125984,"duration":0.35470050000000697},{"name":"C3","midi":48,"time":46.52559449999972,"velocity":0.2283464566929134,"duration":0.33226462500000764},{"name":"G5","midi":79,"time":46.53520987499972,"velocity":0.3228346456692913,"duration":0.05235037500000317},{"name":"D#5","midi":75,"time":46.74247462499973,"velocity":0.5511811023622047,"duration":0.09508537499999647},{"name":"A4","midi":69,"time":47.05444012499972,"velocity":0.5275590551181102,"duration":0.8568367500000065},{"name":"F3","midi":53,"time":47.05764524999972,"velocity":0.3228346456692913,"duration":0.3269227500000085},{"name":"C4","midi":60,"time":47.06619224999972,"velocity":0.2125984251968504,"duration":0.41880300000001114},{"name":"D#5","midi":75,"time":47.07473924999972,"velocity":0.4409448818897638,"duration":0.29914500000001},{"name":"G5","midi":79,"time":47.09183324999972,"velocity":0.4094488188976378,"duration":0.27777750000001333},{"name":"A5","midi":81,"time":47.666618999999734,"velocity":0.4330708661417323,"duration":0.16239299999999446},{"name":"F5","midi":77,"time":47.666618999999734,"velocity":0.41732283464566927,"duration":0.17948699999999462},{"name":"F3","midi":53,"time":47.681576249999736,"velocity":0.25984251968503935,"duration":0.07158112499999447},{"name":"C4","midi":60,"time":47.697601874999734,"velocity":0.1968503937007874,"duration":0.20619637499999754},{"name":"G4","midi":67,"time":48.24354149999973,"velocity":0.6141732283464567,"duration":0.20940150000000557},{"name":"A5","midi":81,"time":48.265977374999736,"velocity":0.48031496062992124,"duration":0.21367499999999495},{"name":"C4","midi":60,"time":48.265977374999736,"velocity":0.4015748031496063,"duration":0.18910237499999738},{"name":"F5","midi":77,"time":48.26704574999974,"velocity":0.4251968503937008,"duration":0.2040596249999922},{"name":"D#3","midi":51,"time":48.27238762499974,"velocity":0.3543307086614173,"duration":0.08119649999999723},{"name":"A3","midi":57,"time":48.27559274999974,"velocity":0.2992125984251969,"duration":0.08546999999999372},{"name":"A5","midi":81,"time":48.86213062499973,"velocity":0.47244094488188976,"duration":0.23290575000000047},{"name":"F4","midi":65,"time":48.86319899999973,"velocity":0.5984251968503937,"duration":0.1452989999999943},{"name":"C6","midi":84,"time":48.864267374999734,"velocity":0.4881889763779528,"duration":0.3098287499999941},{"name":"C4","midi":60,"time":48.87174599999973,"velocity":0.4330708661417323,"duration":0.11858962499999137},{"name":"A3","midi":57,"time":48.88456649999973,"velocity":0.41732283464566927,"duration":0.06730762499999798},{"name":"D3","midi":50,"time":49.462557374999726,"velocity":0.23622047244094488,"duration":0.3600423749999777},{"name":"F3","midi":53,"time":49.464694124999724,"velocity":0.2992125984251969,"duration":0.4070508749999746},{"name":"A#3","midi":58,"time":49.47858299999972,"velocity":0.28346456692913385,"duration":0.3675209999999751},{"name":"F5","midi":77,"time":49.52024962499972,"velocity":0.5748031496062992,"duration":0.3130338749999808},{"name":"A#3","midi":58,"time":50.0811464999997,"velocity":0.25984251968503935,"duration":0.2510681249999962},{"name":"F3","midi":53,"time":50.086488374999696,"velocity":0.29133858267716534,"duration":0.24893137499999796},{"name":"A#5","midi":82,"time":50.0875567499997,"velocity":0.5039370078740157,"duration":0.17093999999999454},{"name":"D5","midi":74,"time":50.1035823749997,"velocity":0.3700787401574803,"duration":0.30769199999999586},{"name":"D3","midi":50,"time":50.108924249999696,"velocity":0.2125984251968504,"duration":0.10790587500000015},{"name":"C6","midi":84,"time":50.1890523749997,"velocity":0.5275590551181102,"duration":0.14423062499999872},{"name":"D6","midi":86,"time":50.309778749999694,"velocity":0.5196850393700787,"duration":0.15064087500000056},{"name":"G5","midi":79,"time":50.611060499999695,"velocity":0.5984251968503937,"duration":0.3728628750000027},{"name":"A#3","midi":58,"time":50.6292228749997,"velocity":0.3464566929133858,"duration":0.2713672499999973},{"name":"D5","midi":74,"time":50.633496374999694,"velocity":0.41732283464566927,"duration":0.44123887500000336},{"name":"D#3","midi":51,"time":50.6345647499997,"velocity":0.33858267716535434,"duration":0.26923049999999904},{"name":"G3","midi":55,"time":50.639906624999696,"velocity":0.36220472440944884,"duration":0.2275638750000013},{"name":"A#5","midi":82,"time":50.64418012499969,"velocity":0.41732283464566927,"duration":0.28525612500000364},{"name":"D6","midi":86,"time":50.903795249999696,"velocity":0.5354330708661418,"duration":0.10149562499999831},{"name":"F5","midi":77,"time":51.147384749999695,"velocity":0.5984251968503937,"duration":0.23824762499998542},{"name":"C6","midi":84,"time":51.15486337499969,"velocity":0.5196850393700787,"duration":0.19123912499998852},{"name":"A3","midi":57,"time":51.17302574999969,"velocity":0.3543307086614173,"duration":0.10149562499999121},{"name":"C4","midi":60,"time":51.177299249999685,"velocity":0.3700787401574803,"duration":0.10363237499999656},{"name":"D#3","midi":51,"time":51.18905137499968,"velocity":0.30708661417322836,"duration":0.15598274999999973},{"name":"C5","midi":72,"time":51.43370924999968,"velocity":0.4645669291338583,"duration":0.04059825000000217},{"name":"A#3","midi":58,"time":51.69866624999968,"velocity":0.2440944881889764,"duration":0.31944412499999686},{"name":"D3","midi":50,"time":51.699734624999685,"velocity":0.2992125984251969,"duration":0.3258543749999916},{"name":"A#2","midi":46,"time":51.702939749999686,"velocity":0.25984251968503935,"duration":0.3440167499999873},{"name":"F5","midi":77,"time":51.72110212499969,"velocity":0.5826771653543307,"duration":0.6271361249999785},{"name":"A#4","midi":70,"time":51.74994824999969,"velocity":0.41732283464566927,"duration":0.7008539999999783},{"name":"A#5","midi":82,"time":51.76490549999969,"velocity":0.3464566929133858,"duration":0.5662387499999753},{"name":"D5","midi":74,"time":52.288409249999674,"velocity":0.5748031496062992,"duration":0.12499987499999321},{"name":"A#2","midi":46,"time":52.31084512499967,"velocity":0.2204724409448819,"duration":0.0705127499999918},{"name":"D3","midi":50,"time":52.31511862499967,"velocity":0.2283464566929134,"duration":0.1292733749999968},{"name":"A#3","midi":58,"time":52.32259724999967,"velocity":0.23622047244094488,"duration":0.21367500000000206},{"name":"D#3","midi":51,"time":52.87174199999967,"velocity":0.28346456692913385,"duration":0.2948714999999851},{"name":"C3","midi":48,"time":52.87922062499967,"velocity":0.2755905511811024,"duration":0.2852561249999894},{"name":"C5","midi":72,"time":52.88242574999967,"velocity":0.49606299212598426,"duration":0.6132472499999793},{"name":"D#4","midi":63,"time":52.886699249999666,"velocity":0.33070866141732286,"duration":0.7029907499999837},{"name":"A#3","midi":58,"time":52.89310949999967,"velocity":0.1968503937007874,"duration":0.28098262499998583},{"name":"A#4","midi":70,"time":53.47644224999965,"velocity":0.5196850393700787,"duration":0.22542712499999595},{"name":"D#3","midi":51,"time":53.48712599999965,"velocity":0.25196850393700787,"duration":0.1923074999999983},{"name":"C3","midi":48,"time":53.499946499999645,"velocity":0.23622047244094488,"duration":0.2232903749999977},{"name":"A#3","midi":58,"time":53.50956187499965,"velocity":0.16535433070866143,"duration":0.2200852499999968},{"name":"D3","midi":50,"time":54.06832199999965,"velocity":0.25984251968503935,"duration":0.3888884999999931},{"name":"F3","midi":53,"time":54.07259549999964,"velocity":0.2677165354330709,"duration":0.3717945},{"name":"A#3","midi":58,"time":54.09503137499964,"velocity":0.2047244094488189,"duration":0.3215808750000022},{"name":"F5","midi":77,"time":54.10678349999964,"velocity":0.5039370078740157,"duration":0.23824762499999963},{"name":"F3","midi":53,"time":54.66768037499964,"velocity":0.31496062992125984,"duration":0.13141012500000215},{"name":"D3","midi":50,"time":54.67409062499964,"velocity":0.2125984251968504,"duration":0.0747862500000025},{"name":"A#5","midi":82,"time":54.67943249999964,"velocity":0.41732283464566927,"duration":0.1057691250000019},{"name":"A#3","midi":58,"time":54.69973162499964,"velocity":0.18110236220472442,"duration":0.21046987500000114},{"name":"D5","midi":74,"time":54.70507349999964,"velocity":0.16535433070866143,"duration":0.26495700000000255},{"name":"C6","midi":84,"time":54.776654624999644,"velocity":0.4881889763779528,"duration":0.11538449999999756},{"name":"D6","midi":86,"time":54.89844937499964,"velocity":0.4094488188976378,"duration":0.04594012500000133},{"name":"D#3","midi":51,"time":55.189047374999646,"velocity":0.31496062992125984,"duration":0.2788458750000089},{"name":"G5","midi":79,"time":55.19225249999965,"velocity":0.5039370078740157,"duration":0.37499962500000805},{"name":"G3","midi":55,"time":55.21575674999965,"velocity":0.2755905511811024,"duration":0.1688032500000034},{"name":"A#3","midi":58,"time":55.22644049999965,"velocity":0.1732283464566929,"duration":0.19551262500000632},{"name":"D5","midi":74,"time":55.24887637499965,"velocity":0.11023622047244094,"duration":0.39423037500000646},{"name":"A#5","midi":82,"time":55.271312249999646,"velocity":0.14960629921259844,"duration":0.25320487500000866},{"name":"D6","midi":86,"time":55.49567099999965,"velocity":0.4094488188976378,"duration":0.06623925000000241},{"name":"F5","midi":77,"time":55.73391862499965,"velocity":0.5669291338582677,"duration":0.2040596249999851},{"name":"C6","midi":84,"time":55.74887587499965,"velocity":0.47244094488188976,"duration":0.1688032499999892},{"name":"C4","midi":60,"time":55.759559624999646,"velocity":0.29133858267716534,"duration":0.12606824999998878},{"name":"A3","midi":57,"time":55.76062799999965,"velocity":0.31496062992125984,"duration":0.11965799999998694},{"name":"D#3","midi":51,"time":55.77238012499964,"velocity":0.30708661417322836,"duration":0.1570511249999953},{"name":"C5","midi":72,"time":55.99780724999964,"velocity":0.3937007874015748,"duration":0.03739312500000125},{"name":"D3","midi":50,"time":56.29054199999964,"velocity":0.2992125984251969,"duration":0.3803415000000001},{"name":"F5","midi":77,"time":56.29695224999964,"velocity":0.5433070866141733,"duration":0.6805548749999915},{"name":"A#3","midi":58,"time":56.29908899999964,"velocity":0.2992125984251969,"duration":0.4209397500000023},{"name":"A#2","midi":46,"time":56.30122574999964,"velocity":0.25196850393700787,"duration":0.4273500000000041},{"name":"A#4","midi":70,"time":56.317251374999636,"velocity":0.4094488188976378,"duration":0.7414522499999947},{"name":"A#5","midi":82,"time":56.33541374999964,"velocity":0.30708661417322836,"duration":0.6057686249999961},{"name":"D5","midi":74,"time":56.893105499999635,"velocity":0.5590551181102362,"duration":0.12606824999999588},{"name":"A#2","midi":46,"time":56.893105499999635,"velocity":0.33858267716535434,"duration":0.1997861249999957},{"name":"A#3","midi":58,"time":56.924088374999634,"velocity":0.11811023622047244,"duration":0.23290574999999336},{"name":"D3","midi":50,"time":56.935840499999635,"velocity":0.3228346456692913,"duration":0.11217937499999664},{"name":"F3","midi":53,"time":57.467891249999624,"velocity":0.2677165354330709,"duration":0.3600423749999919},{"name":"A#3","midi":58,"time":57.47750662499963,"velocity":0.25196850393700787,"duration":0.3536321249999901},{"name":"D3","midi":50,"time":57.482848499999626,"velocity":0.3228346456692913,"duration":0.33119624999999075},{"name":"C5","midi":72,"time":57.484985249999625,"velocity":0.5039370078740157,"duration":0.6602557499999904},{"name":"F4","midi":65,"time":57.49994249999963,"velocity":0.29133858267716534,"duration":0.7532043749999886},{"name":"D3","midi":50,"time":58.02130949999961,"velocity":0.2755905511811024,"duration":0.2831193750000054},{"name":"A#4","midi":70,"time":58.03199324999961,"velocity":0.5433070866141733,"duration":0.30021337500000556},{"name":"F3","midi":53,"time":58.03519837499961,"velocity":0.23622047244094488,"duration":0.6399566249999964},{"name":"A#3","midi":58,"time":58.03519837499961,"velocity":0.2047244094488189,"duration":0.17200837500000432},{"name":"C4","midi":60,"time":58.61853112499961,"velocity":0.23622047244094488,"duration":0.3322646249999863},{"name":"C3","midi":48,"time":58.64630887499961,"velocity":0.28346456692913385,"duration":0.3568372499999839},{"name":"D#5","midi":75,"time":58.65378749999961,"velocity":0.49606299212598426,"duration":1.819442624999958},{"name":"A#4","midi":70,"time":58.680496874999605,"velocity":0.3464566929133858,"duration":0.31196549999999235},{"name":"G4","midi":67,"time":58.683701999999606,"velocity":0.25196850393700787,"duration":0.33546974999998724},{"name":"A#4","midi":70,"time":59.207205749999595,"velocity":0.3937007874015748,"duration":0.24252112500000322},{"name":"C3","midi":48,"time":59.227504874999596,"velocity":0.18110236220472442,"duration":0.41452950000000044},{"name":"G4","midi":67,"time":59.23177837499959,"velocity":0.1732283464566929,"duration":0.25747837500000514},{"name":"C4","midi":60,"time":59.260624499999594,"velocity":0.14173228346456693,"duration":0.24145275000000055},{"name":"A4","midi":69,"time":59.8161794999996,"velocity":0.3543307086614173,"duration":0.330127874999981},{"name":"F3","midi":53,"time":59.8354102499996,"velocity":0.2677165354330709,"duration":0.30448687499998073},{"name":"F4","midi":65,"time":59.851435874999595,"velocity":0.2755905511811024,"duration":0.3333329999999819},{"name":"F5","midi":77,"time":60.433700249999575,"velocity":0.47244094488188976,"duration":0.20299124999999663},{"name":"A4","midi":69,"time":60.45293099999957,"velocity":0.28346456692913385,"duration":0.37927312499999744},{"name":"F3","midi":53,"time":60.45720449999957,"velocity":0.14960629921259844,"duration":0.6623925000000028},{"name":"F4","midi":65,"time":60.46788824999957,"velocity":0.2125984251968504,"duration":0.22542712500000306},{"name":"D5","midi":74,"time":61.01703299999957,"velocity":0.47244094488188976,"duration":0.4391021249999909},{"name":"A#2","midi":46,"time":61.01916974999957,"velocity":0.29133858267716534,"duration":0.6431617499999902},{"name":"A#3","midi":58,"time":61.040537249999566,"velocity":0.2047244094488189,"duration":0.9177341249999955},{"name":"A#4","midi":70,"time":61.04374237499957,"velocity":0.29133858267716534,"duration":0.26923049999999193},{"name":"F4","midi":65,"time":61.05122099999957,"velocity":0.2283464566929134,"duration":0.219016874999987},{"name":"C5","midi":72,"time":61.61425462499956,"velocity":0.5039370078740157,"duration":0.5694438750000046},{"name":"D#4","midi":63,"time":61.61959649999956,"velocity":0.41732283464566927,"duration":0.26816212500000347},{"name":"A4","midi":69,"time":61.62493837499956,"velocity":0.44881889763779526,"duration":0.2115382500000038},{"name":"C3","midi":48,"time":61.63348537499956,"velocity":0.3228346456692913,"duration":0.5908113750000012},{"name":"D3","midi":50,"time":62.175151499999565,"velocity":0.36220472440944884,"duration":0.5630336249999957},{"name":"A#4","midi":70,"time":62.17621987499957,"velocity":0.5433070866141733,"duration":0.3408116249999935},{"name":"F4","midi":65,"time":62.18476687499957,"velocity":0.4251968503937008,"duration":0.3482902499999909},{"name":"D4","midi":62,"time":62.19972412499956,"velocity":0.36220472440944884,"duration":0.28418775000000096},{"name":"D#3","midi":51,"time":62.76916799999956,"velocity":0.3779527559055118,"duration":0.7158112499999802},{"name":"C5","midi":72,"time":62.77450987499956,"velocity":0.5196850393700787,"duration":0.31517062499998616},{"name":"G4","midi":67,"time":62.78626199999956,"velocity":0.36220472440944884,"duration":0.34722187499998824},{"name":"C4","midi":60,"time":62.80228762499956,"velocity":0.2992125984251969,"duration":0.19444424999999654},{"name":"A4","midi":69,"time":63.38668874999955,"velocity":0.48031496062992124,"duration":1.628203499999998},{"name":"F3","midi":53,"time":63.40378274999955,"velocity":0.3228346456692913,"duration":0.4070508749999817},{"name":"F4","midi":65,"time":63.418739999999545,"velocity":0.36220472440944884,"duration":0.28418774999999385},{"name":"C4","midi":60,"time":63.42621862499954,"velocity":0.25196850393700787,"duration":0.29593987499999486},{"name":"F3","midi":53,"time":64.00634624999954,"velocity":0.2440944881889764,"duration":1.030981875000009},{"name":"F4","midi":65,"time":64.00848299999954,"velocity":0.33858267716535434,"duration":0.28525612500000364},{"name":"C4","midi":60,"time":64.01596162499955,"velocity":0.25984251968503935,"duration":0.20619637500000465},{"name":"F4","midi":65,"time":64.62600374999954,"velocity":0.3937007874015748,"duration":0.3931620000000038},{"name":"F2","midi":41,"time":64.63455074999953,"velocity":0.28346456692913385,"duration":0.3653842500000195},{"name":"D#4","midi":63,"time":64.65164474999953,"velocity":0.2992125984251969,"duration":0.36004237500002034},{"name":"F2","midi":41,"time":65.32685774999955,"velocity":0.2755905511811024,"duration":0.09829050000001871},{"name":"A#4","midi":70,"time":65.34074662499955,"velocity":0.5590551181102362,"duration":0.357905625000015},{"name":"F4","midi":65,"time":65.34822524999956,"velocity":0.4094488188976378,"duration":0.24893137500001217},{"name":"D#4","midi":63,"time":65.36104574999956,"velocity":0.31496062992125984,"duration":0.2393160000000023},{"name":"F3","midi":53,"time":65.36638762499956,"velocity":0.11811023622047244,"duration":0.18376050000000532},{"name":"D3","midi":50,"time":66.16019024999957,"velocity":0.29133858267716534,"duration":2.483971874999952},{"name":"A#4","midi":70,"time":66.16553212499957,"velocity":0.47244094488188976,"duration":0.7585462500000091},{"name":"A#2","midi":46,"time":66.16766887499958,"velocity":0.2755905511811024,"duration":0.3685893750000133},{"name":"F5","midi":77,"time":66.18583124999958,"velocity":0.4094488188976378,"duration":0.36752100000001064},{"name":"A#3","midi":58,"time":66.19224149999958,"velocity":0.2283464566929134,"duration":0.3963671250000118},{"name":"D5","midi":74,"time":66.19972012499959,"velocity":0.33858267716535434,"duration":0.4006406250000083},{"name":"F5","midi":77,"time":66.8343348749996,"velocity":0.4566929133858268,"duration":0.2190168749999657},{"name":"A#3","midi":58,"time":66.8567707499996,"velocity":0.2047244094488189,"duration":0.1880339999999734},{"name":"A#2","midi":46,"time":66.85997587499959,"velocity":0.2677165354330709,"duration":0.13995712499998092},{"name":"D5","midi":74,"time":66.87493312499959,"velocity":0.25196850393700787,"duration":0.07585462499999096},{"name":"D5","midi":74,"time":67.11531749999956,"velocity":0.48031496062992124,"duration":0.10790587500000015},{"name":"A#4","midi":70,"time":67.14630037499957,"velocity":0.30708661417322836,"duration":0.10256399999998678},{"name":"F5","midi":77,"time":67.37706937499956,"velocity":0.5354330708661418,"duration":0.20192287499999395},{"name":"A#3","midi":58,"time":67.39095824999957,"velocity":0.23622047244094488,"duration":0.21474337499998342},{"name":"D5","midi":74,"time":67.41339412499957,"velocity":0.3779527559055118,"duration":0.07264949999999715},{"name":"A#2","midi":46,"time":67.42835137499956,"velocity":0.2440944881889764,"duration":0.09615374999999915},{"name":"F5","midi":77,"time":67.97322262499955,"velocity":0.5354330708661418,"duration":0.2617518749999874},{"name":"A#3","midi":58,"time":67.98070124999956,"velocity":0.29133858267716534,"duration":0.16559812499998827},{"name":"D5","midi":74,"time":67.98497474999955,"velocity":0.3700787401574803,"duration":0.07371787499999982},{"name":"A#2","midi":46,"time":68.00420549999956,"velocity":0.2755905511811024,"duration":0.09294862499999113},{"name":"D5","midi":74,"time":68.23817962499953,"velocity":0.5826771653543307,"duration":0.20726475000000733},{"name":"A#4","midi":70,"time":68.29052999999953,"velocity":0.2440944881889764,"duration":0.07585462500000517},{"name":"A#4","midi":70,"time":68.41873499999954,"velocity":0.1889763779527559,"duration":0.1794869999999804},{"name":"F5","midi":77,"time":68.54480324999953,"velocity":0.5826771653543307,"duration":0.5726489999999984},{"name":"G3","midi":55,"time":68.57151262499953,"velocity":0.28346456692913385,"duration":0.3055552499999976},{"name":"A#2","midi":46,"time":68.58860662499953,"velocity":0.2677165354330709,"duration":0.29166637499999126},{"name":"D5","midi":74,"time":68.60997412499952,"velocity":0.3937007874015748,"duration":0.20726474999999311},{"name":"A#2","midi":46,"time":69.10676849999953,"velocity":0.25984251968503935,"duration":0.19871774999998593},{"name":"D#5","midi":75,"time":69.11958899999954,"velocity":0.4566929133858268,"duration":0.20833312499998158},{"name":"G5","midi":79,"time":69.12599924999954,"velocity":0.5669291338582677,"duration":0.2831193749999841},{"name":"G3","midi":55,"time":69.14095649999953,"velocity":0.1968503937007874,"duration":0.6047002499999934},{"name":"G5","midi":79,"time":69.74458837499952,"velocity":0.4881889763779528,"duration":0.3066236250000003},{"name":"D#3","midi":51,"time":69.75099862499953,"velocity":0.2677165354330709,"duration":0.3066236250000003},{"name":"D#5","midi":75,"time":69.76488749999953,"velocity":0.3464566929133858,"duration":0.8322641249999947},{"name":"A#2","midi":46,"time":69.77129774999953,"velocity":0.1889763779527559,"duration":0.2435894999999988},{"name":"A#5","midi":82,"time":70.30441687499953,"velocity":0.4645669291338583,"duration":0.2318373749999978},{"name":"D#3","midi":51,"time":70.31082712499953,"velocity":0.1968503937007874,"duration":0.5608968749999974},{"name":"A#2","midi":46,"time":70.32578437499953,"velocity":0.2283464566929134,"duration":0.09722212500000182},{"name":"G5","midi":79,"time":70.33219462499953,"velocity":0.3543307086614173,"duration":0.18269212500000265},{"name":"C3","midi":48,"time":70.91018549999953,"velocity":0.25196850393700787,"duration":0.42200812500000495},{"name":"G3","midi":55,"time":70.91980087499952,"velocity":0.28346456692913385,"duration":0.37820475000000897},{"name":"A#2","midi":46,"time":70.91980087499952,"velocity":0.2440944881889764,"duration":0.4198713750000138},{"name":"G5","midi":79,"time":70.99031362499953,"velocity":0.5354330708661418,"duration":0.2702988750000088},{"name":"D#5","midi":75,"time":71.00527087499952,"velocity":0.4094488188976378,"duration":0.2403843750000192},{"name":"C5","midi":72,"time":71.01168112499953,"velocity":0.29133858267716534,"duration":0.25427325000001133},{"name":"A#2","midi":46,"time":71.53945837499954,"velocity":0.30708661417322836,"duration":0.17307674999999278},{"name":"D#5","midi":75,"time":71.56189424999954,"velocity":0.6220472440944882,"duration":0.2660253749999839},{"name":"C3","midi":48,"time":71.57044124999953,"velocity":0.1889763779527559,"duration":0.555554999999984},{"name":"G3","midi":55,"time":71.58539849999953,"velocity":0.23622047244094488,"duration":0.13675200000000132},{"name":"C5","midi":72,"time":71.61424462499953,"velocity":0.2755905511811024,"duration":0.2275638750000013},{"name":"A4","midi":69,"time":71.80548374999952,"velocity":0.47244094488188976,"duration":0.05662387499999966},{"name":"A2","midi":45,"time":72.07257749999953,"velocity":0.25196850393700787,"duration":0.344016749999966},{"name":"F3","midi":53,"time":72.07791937499952,"velocity":0.2755905511811024,"duration":0.3482902499999625},{"name":"D5","midi":74,"time":72.09608174999953,"velocity":0.6062992125984252,"duration":0.2927347499999655},{"name":"D#3","midi":51,"time":72.10249199999953,"velocity":0.2992125984251969,"duration":0.3119654999999568},{"name":"D#5","midi":75,"time":72.12279112499952,"velocity":0.48031496062992124,"duration":0.2628202499999759},{"name":"C5","midi":72,"time":72.66018374999949,"velocity":0.6141732283464567,"duration":0.23824762499999963},{"name":"A2","midi":45,"time":72.66445724999949,"velocity":0.1889763779527559,"duration":0.15170924999999613},{"name":"F3","midi":53,"time":72.66659399999949,"velocity":0.18110236220472442,"duration":0.21367499999999495},{"name":"D#3","midi":51,"time":72.67727774999949,"velocity":0.25984251968503935,"duration":0.20940149999999846},{"name":"D#5","midi":75,"time":72.68048287499948,"velocity":0.4566929133858268,"duration":0.17200837500000432},{"name":"A4","midi":69,"time":72.90697837499948,"velocity":0.49606299212598426,"duration":0.04594012500000133},{"name":"A#2","midi":46,"time":73.16873024999948,"velocity":0.25984251968503935,"duration":0.37072612500001867},{"name":"D#3","midi":51,"time":73.17941399999948,"velocity":0.28346456692913385,"duration":0.3621791250000257},{"name":"F3","midi":53,"time":73.19116612499948,"velocity":0.2440944881889764,"duration":0.361110750000023},{"name":"F5","midi":77,"time":73.20505499999949,"velocity":0.5984251968503937,"duration":1.3739302500000008},{"name":"C5","midi":72,"time":73.24351649999949,"velocity":0.3858267716535433,"duration":0.2938031250000108},{"name":"A5","midi":81,"time":73.25099512499949,"velocity":0.4094488188976378,"duration":0.27670912500001066},{"name":"A#5","midi":82,"time":73.8215073749995,"velocity":0.4566929133858268,"duration":0.267093750000015},{"name":"A#2","midi":46,"time":73.8247124999995,"velocity":0.2755905511811024,"duration":0.5032046250000093},{"name":"D3","midi":50,"time":73.8300543749995,"velocity":0.2992125984251969,"duration":0.20619637499999044},{"name":"D5","midi":74,"time":73.8343278749995,"velocity":0.3858267716535433,"duration":0.24252112500001033},{"name":"F3","midi":53,"time":73.84714837499949,"velocity":0.2283464566929134,"duration":0.1923075000000125},{"name":"A#5","midi":82,"time":74.38133587499951,"velocity":0.44881889763779526,"duration":0.6111104999999952},{"name":"D5","midi":74,"time":74.4112503749995,"velocity":0.3700787401574803,"duration":0.22970062499999244},{"name":"D#3","midi":51,"time":74.4123187499995,"velocity":0.28346456692913385,"duration":0.2435894999999988},{"name":"G3","midi":55,"time":74.4176606249995,"velocity":0.25984251968503935,"duration":0.2318373749999978},{"name":"G5","midi":79,"time":74.9977882499995,"velocity":0.49606299212598426,"duration":0.49358925000001364},{"name":"D#3","midi":51,"time":75.0095403749995,"velocity":0.31496062992125984,"duration":0.14316225000000316},{"name":"C6","midi":84,"time":75.02342924999951,"velocity":0.3858267716535433,"duration":0.4508542500000061},{"name":"D#5","midi":75,"time":75.02449762499951,"velocity":0.31496062992125984,"duration":0.26602537500001233},{"name":"G3","midi":55,"time":75.03197624999952,"velocity":0.23622047244094488,"duration":0.1880340000000018},{"name":"F3","midi":53,"time":75.63774487499951,"velocity":0.2677165354330709,"duration":0.28525612500000364},{"name":"A#3","midi":58,"time":75.65377049999951,"velocity":0.25984251968503935,"duration":0.3333330000000103},{"name":"D5","midi":74,"time":75.6687277499995,"velocity":0.5118110236220472,"duration":0.1570511250000095},{"name":"D4","midi":62,"time":75.6783431249995,"velocity":0.25984251968503935,"duration":0.28525612500001785},{"name":"A#3","midi":58,"time":76.23389812499953,"velocity":0.23622047244094488,"duration":0.13995712499999513},{"name":"F3","midi":53,"time":76.25312887499953,"velocity":0.2755905511811024,"duration":0.13888874999999246},{"name":"D4","midi":62,"time":76.25847074999953,"velocity":0.2047244094488189,"duration":0.07585462499999096},{"name":"D6","midi":86,"time":76.26808612499953,"velocity":0.41732283464566927,"duration":0.1410254999999978},{"name":"A#5","midi":82,"time":76.27770149999952,"velocity":0.14173228346456693,"duration":0.06623924999999531},{"name":"D#6","midi":87,"time":76.37171849999952,"velocity":0.3858267716535433,"duration":0.13675200000001553},{"name":"F6","midi":89,"time":76.50847049999953,"velocity":0.41732283464566927,"duration":0.11324774999999931},{"name":"F2","midi":41,"time":76.84180349999953,"velocity":0.30708661417322836,"duration":0.3333330000000103},{"name":"D6","midi":86,"time":76.84287187499953,"velocity":0.4566929133858268,"duration":0.31196549999999945},{"name":"A#5","midi":82,"time":76.86210262499954,"velocity":0.33858267716535434,"duration":0.12286312500000918},{"name":"F3","midi":53,"time":76.88560687499954,"velocity":0.1968503937007874,"duration":0.2873928749999948},{"name":"A#5","midi":82,"time":77.15270062499953,"velocity":0.3228346456692913,"duration":0.03632475000001989},{"name":"D5","midi":74,"time":77.15697412499954,"velocity":0.30708661417322836,"duration":0.06196575000001303},{"name":"F5","midi":77,"time":77.50846949999955,"velocity":0.4094488188976378,"duration":0.25213649999997756},{"name":"C5","midi":72,"time":77.51167462499954,"velocity":0.4409448818897638,"duration":0.1292733749999968},{"name":"F2","midi":41,"time":77.52449512499955,"velocity":0.30708661417322836,"duration":0.14743574999998543},{"name":"F3","midi":53,"time":77.52770024999954,"velocity":0.2677165354330709,"duration":0.22008524999998258},{"name":"D#5","midi":75,"time":77.52876862499954,"velocity":0.36220472440944884,"duration":0.1997861249999886},{"name":"A#4","midi":70,"time":77.83218712499952,"velocity":0.5196850393700787,"duration":0.16773487500000783},{"name":"A5","midi":81,"time":77.84287087499952,"velocity":0.4566929133858268,"duration":0.11538450000000466},{"name":"A#3","midi":58,"time":78.21039187499953,"velocity":0.2047244094488189,"duration":0.48504224999999224},{"name":"A#2","midi":46,"time":78.21252862499954,"velocity":0.2047244094488189,"duration":0.49999949999998705},{"name":"A#4","midi":70,"time":78.23816962499953,"velocity":0.3700787401574803,"duration":0.7809821250000084},{"name":"D5","midi":74,"time":78.24351149999953,"velocity":0.4015748031496063,"duration":0.4871789999999976},{"name":"A#5","midi":82,"time":78.25419524999953,"velocity":0.3464566929133858,"duration":0.7072642500000086},{"name":"F5","midi":77,"time":78.96893812499954,"velocity":0.4015748031496063,"duration":0.17521349999999813},{"name":"D5","midi":74,"time":78.97000649999954,"velocity":0.33858267716535434,"duration":0.09615374999999915},{"name":"A#2","midi":46,"time":78.99030562499954,"velocity":0.2047244094488189,"duration":0.1880340000000018},{"name":"A#3","midi":58,"time":79.00205774999954,"velocity":0.12598425196850394,"duration":0.17735025000000348},{"name":"D5","midi":74,"time":79.24457887499955,"velocity":0.4251968503937008,"duration":0.05235037499998896},{"name":"A#4","midi":70,"time":79.27128824999954,"velocity":0.2204724409448819,"duration":0.05128199999998628},{"name":"F5","midi":77,"time":79.53517687499954,"velocity":0.4566929133858268,"duration":0.1720083749999759},{"name":"A#2","midi":46,"time":79.55654437499953,"velocity":0.1732283464566929,"duration":0.14209387499998627},{"name":"A#3","midi":58,"time":79.56081787499953,"velocity":0.15748031496062992,"duration":0.13461524999999597},{"name":"D5","midi":74,"time":79.56722812499953,"velocity":0.31496062992125984,"duration":0.14316224999997473},{"name":"F5","midi":77,"time":80.11423612499951,"velocity":0.44881889763779526,"duration":0.2243587500000075},{"name":"D5","midi":74,"time":80.13346687499951,"velocity":0.2755905511811024,"duration":0.07799137499999631},{"name":"A#3","midi":58,"time":80.13774037499951,"velocity":0.25984251968503935,"duration":0.09722212500000182},{"name":"A#2","midi":46,"time":80.14415062499951,"velocity":0.25196850393700787,"duration":0.08547000000000082},{"name":"D5","midi":74,"time":80.37598799999951,"velocity":0.5039370078740157,"duration":0.18269212500000265},{"name":"A#4","midi":70,"time":80.43902212499951,"velocity":0.2047244094488189,"duration":0.08012812500000166},{"name":"F5","midi":77,"time":80.69115862499952,"velocity":0.48031496062992124,"duration":0.5512814999999733},{"name":"G3","midi":55,"time":80.69115862499952,"velocity":0.23622047244094488,"duration":0.3333329999999819},{"name":"D5","midi":74,"time":80.70825262499952,"velocity":0.3858267716535433,"duration":0.2670937499999866},{"name":"A#2","midi":46,"time":80.70932099999952,"velocity":0.2283464566929134,"duration":0.3247859999999747},{"name":"A#2","midi":46,"time":81.2616708749995,"velocity":0.23622047244094488,"duration":0.25213649999999177},{"name":"D#5","midi":75,"time":81.26487599999949,"velocity":0.3779527559055118,"duration":0.20512800000000198},{"name":"G5","midi":79,"time":81.26594437499949,"velocity":0.48031496062992124,"duration":0.2788458750000018},{"name":"G3","midi":55,"time":81.29265374999949,"velocity":0.2204724409448819,"duration":0.5747857500000038},{"name":"G5","midi":79,"time":81.84500362499949,"velocity":0.4645669291338583,"duration":0.31517062499997905},{"name":"D#5","midi":75,"time":81.86530274999949,"velocity":0.33070866141732286,"duration":0.7425206249999832},{"name":"D#3","midi":51,"time":81.87064462499949,"velocity":0.28346456692913385,"duration":0.2938031249999824},{"name":"A#2","midi":46,"time":81.87705487499949,"velocity":0.1968503937007874,"duration":0.2809826249999787},{"name":"D#3","midi":51,"time":82.41872099999946,"velocity":0.23622047244094488,"duration":0.26175187500000163},{"name":"A#5","midi":82,"time":82.43688337499947,"velocity":0.41732283464566927,"duration":0.18376050000000532},{"name":"A#2","midi":46,"time":82.43795174999947,"velocity":0.2047244094488189,"duration":0.13675200000000132},{"name":"G5","midi":79,"time":82.46145599999947,"velocity":0.29133858267716534,"duration":0.10363237500000366},{"name":"D#5","midi":75,"time":82.99884862499947,"velocity":0.44881889763779526,"duration":0.2873928749999948},{"name":"C5","midi":72,"time":83.01166912499947,"velocity":0.33070866141732286,"duration":0.3301278749999881},{"name":"A3","midi":57,"time":83.01807937499947,"velocity":0.30708661417322836,"duration":0.33226462499999343},{"name":"A#2","midi":46,"time":83.02342124999947,"velocity":0.28346456692913385,"duration":0.32051249999999243},{"name":"C3","midi":48,"time":83.04158362499948,"velocity":0.2283464566929134,"duration":0.29914499999998156},{"name":"C5","midi":72,"time":83.57149762499947,"velocity":0.3464566929133858,"duration":0.0747862500000025},{"name":"D#5","midi":75,"time":83.57577112499946,"velocity":0.4409448818897638,"duration":0.18910237500000449},{"name":"A#2","midi":46,"time":83.58111299999946,"velocity":0.2204724409448819,"duration":0.2435894999999988},{"name":"A3","midi":57,"time":83.58859162499947,"velocity":0.18110236220472442,"duration":0.1965809999999948},{"name":"C3","midi":48,"time":83.61743774999947,"velocity":0.06299212598425197,"duration":0.13141012500000215},{"name":"C5","midi":72,"time":83.83218112499947,"velocity":0.4645669291338583,"duration":0.10042724999999564},{"name":"A4","midi":69,"time":83.86316399999947,"velocity":0.2677165354330709,"duration":0.060897374999996146},{"name":"A#2","midi":46,"time":84.10141162499946,"velocity":0.1889763779527559,"duration":0.2232903749999764},{"name":"A3","midi":57,"time":84.11636887499945,"velocity":0.1889763779527559,"duration":0.17093999999998744},{"name":"D#5","midi":75,"time":84.12171074999945,"velocity":0.47244094488188976,"duration":0.1570511249999953},{"name":"C5","midi":72,"time":84.13239449999945,"velocity":0.31496062992125984,"duration":0.12499987500000032},{"name":"C3","midi":48,"time":84.15483037499945,"velocity":0.18110236220472442,"duration":0.11858962499999848},{"name":"A3","midi":57,"time":84.70183837499944,"velocity":0.15748031496062992,"duration":0.1880340000000018},{"name":"A#2","midi":46,"time":84.70183837499944,"velocity":0.14960629921259844,"duration":0.1880340000000018},{"name":"C3","midi":48,"time":84.70718024999944,"velocity":0.2283464566929134,"duration":0.2467946249999926},{"name":"D#5","midi":75,"time":84.70931699999944,"velocity":0.4566929133858268,"duration":0.20085449999999128},{"name":"C5","midi":72,"time":84.72961612499944,"velocity":0.29133858267716534,"duration":0.07264949999999715},{"name":"C5","midi":72,"time":84.95717999999943,"velocity":0.5196850393700787,"duration":0.09829049999999029},{"name":"A4","midi":69,"time":84.99457312499942,"velocity":0.2047244094488189,"duration":0.05769225000000233},{"name":"D#5","midi":75,"time":85.22641049999942,"velocity":0.48031496062992124,"duration":0.30662362499997187},{"name":"A#2","midi":46,"time":85.23175237499942,"velocity":0.2755905511811024,"duration":0.3920936249999727},{"name":"F3","midi":53,"time":85.23816262499942,"velocity":0.3228346456692913,"duration":0.36645262499996534},{"name":"A3","midi":57,"time":85.24670962499941,"velocity":0.18110236220472442,"duration":0.37072612499997604},{"name":"C5","midi":72,"time":85.2499147499994,"velocity":0.2283464566929134,"duration":0.49145249999997986},{"name":"A5","midi":81,"time":85.80653812499939,"velocity":0.5354330708661418,"duration":0.22863224999998977},{"name":"D#5","midi":75,"time":85.8204269999994,"velocity":0.36220472440944884,"duration":0.24572624999998993},{"name":"F3","midi":53,"time":85.8321791249994,"velocity":0.23622047244094488,"duration":0.2553416249999856},{"name":"A#2","midi":46,"time":85.8321791249994,"velocity":0.2992125984251969,"duration":0.24999974999998642},{"name":"A3","midi":57,"time":85.8353842499994,"velocity":0.1732283464566929,"duration":0.22435874999999328},{"name":"A5","midi":81,"time":86.40269137499938,"velocity":0.49606299212598426,"duration":0.6292728749999839},{"name":"F3","midi":53,"time":86.41123837499939,"velocity":0.2440944881889764,"duration":0.23717924999995432},{"name":"A#2","midi":46,"time":86.41978537499938,"velocity":0.18110236220472442,"duration":0.22542712499996753},{"name":"A3","midi":57,"time":86.42833237499937,"velocity":0.18110236220472442,"duration":0.18589724999996804},{"name":"C5","midi":72,"time":86.42833237499937,"velocity":0.2677165354330709,"duration":0.3643158749999742},{"name":"A#2","midi":46,"time":86.96999849999935,"velocity":0.18110236220472442,"duration":0.11217937500001085},{"name":"C6","midi":84,"time":86.98175062499935,"velocity":0.4330708661417323,"duration":0.28418775000000096},{"name":"F3","midi":53,"time":86.99884462499935,"velocity":0.2125984251968504,"duration":0.0790597500000132},{"name":"D#5","midi":75,"time":86.99991299999935,"velocity":0.2992125984251969,"duration":0.09722212500000182},{"name":"A3","midi":57,"time":87.01914374999936,"velocity":0.15748031496062992,"duration":0.13247849999999062},{"name":"D4","midi":62,"time":87.59286112499935,"velocity":0.28346456692913385,"duration":0.3643158750000026},{"name":"A#5","midi":82,"time":87.59499787499935,"velocity":0.44881889763779526,"duration":0.4444440000000043},{"name":"D5","midi":74,"time":87.61316024999935,"velocity":0.2755905511811024,"duration":0.29593987499998775},{"name":"F4","midi":65,"time":87.61743374999935,"velocity":0.16535433070866143,"duration":0.32692274999999427},{"name":"A#3","midi":58,"time":87.62063887499934,"velocity":0.2204724409448819,"duration":0.3108971249999968},{"name":"D4","midi":62,"time":88.12918537499935,"velocity":0.2992125984251969,"duration":0.33119624999997654},{"name":"A#3","midi":58,"time":88.13132212499936,"velocity":0.2677165354330709,"duration":0.3514953749999705},{"name":"F4","midi":65,"time":88.14093749999935,"velocity":0.29133858267716534,"duration":0.32692274999998006},{"name":"C6","midi":84,"time":88.24884337499935,"velocity":0.44881889763779526,"duration":0.20833312499998158},{"name":"D#5","midi":75,"time":88.25418524999935,"velocity":0.33070866141732286,"duration":0.03739312499999414},{"name":"D6","midi":86,"time":88.37704837499935,"velocity":0.5039370078740157,"duration":0.1923074999999841},{"name":"F5","midi":77,"time":88.41444149999934,"velocity":0.4094488188976378,"duration":0.06410249999998996},{"name":"A#3","midi":58,"time":88.66016774999933,"velocity":0.28346456692913385,"duration":0.35897400000001767},{"name":"D4","midi":62,"time":88.66337287499933,"velocity":0.25984251968503935,"duration":0.337606500000021},{"name":"F4","midi":65,"time":88.66337287499933,"velocity":0.23622047244094488,"duration":0.3418800000000175},{"name":"A#5","midi":82,"time":88.66978312499933,"velocity":0.5039370078740157,"duration":0.29273475000000815},{"name":"A3","midi":57,"time":88.68794549999933,"velocity":0.2677165354330709,"duration":0.34081162500001483},{"name":"D5","midi":74,"time":88.69542412499933,"velocity":0.2992125984251969,"duration":0.19764937500001167},{"name":"D6","midi":86,"time":88.93580849999934,"velocity":0.5433070866141733,"duration":0.19444425000000365},{"name":"F5","midi":77,"time":88.95717599999934,"velocity":0.4015748031496063,"duration":0.03632475000000568},{"name":"C6","midi":84,"time":89.19969712499935,"velocity":0.5354330708661418,"duration":0.12393150000001185},{"name":"A3","midi":57,"time":89.20183387499935,"velocity":0.3228346456692913,"duration":0.231837375000012},{"name":"D4","midi":62,"time":89.21251762499935,"velocity":0.25984251968503935,"duration":0.28098262500000715},{"name":"A#3","midi":58,"time":89.21892787499935,"velocity":0.23622047244094488,"duration":0.3653842500000053},{"name":"F4","midi":65,"time":89.22533812499935,"velocity":0.25196850393700787,"duration":0.2243587500000075},{"name":"D#5","midi":75,"time":89.22640649999936,"velocity":0.3858267716535433,"duration":0.028846125000001166},{"name":"F5","midi":77,"time":89.47106437499936,"velocity":0.5433070866141733,"duration":0.10790587500000015},{"name":"C5","midi":72,"time":89.49670537499935,"velocity":0.28346456692913385,"duration":0.04166662500000484},{"name":"A#5","midi":82,"time":89.77661962499936,"velocity":0.4251968503937008,"duration":0.4391021249999909},{"name":"D4","midi":62,"time":89.78837174999936,"velocity":0.2440944881889764,"duration":0.27991424999999026},{"name":"D5","midi":74,"time":89.80226062499936,"velocity":0.1732283464566929,"duration":0.25747837499999093},{"name":"G3","midi":55,"time":89.80332899999937,"velocity":0.2204724409448819,"duration":0.2938031249999824},{"name":"F4","midi":65,"time":89.82469649999936,"velocity":0.10236220472440945,"duration":0.24893137499998375},{"name":"A#3","midi":58,"time":90.32042249999935,"velocity":0.15748031496062992,"duration":0.48076874999998154},{"name":"G3","midi":55,"time":90.32255924999936,"velocity":0.23622047244094488,"duration":0.2232903749999906},{"name":"D4","midi":62,"time":90.32576437499935,"velocity":0.31496062992125984,"duration":0.2628202500000043},{"name":"F4","midi":65,"time":90.34178999999935,"velocity":0.1889763779527559,"duration":0.2040596249999993},{"name":"C6","midi":84,"time":90.44008049999935,"velocity":0.4409448818897638,"duration":0.18269212500000265},{"name":"D#5","midi":75,"time":90.44328562499935,"velocity":0.33858267716535434,"duration":0.03632475000000568},{"name":"D6","midi":86,"time":90.56935387499935,"velocity":0.4330708661417323,"duration":0.13461524999999597},{"name":"F5","midi":77,"time":90.61102049999936,"velocity":0.3464566929133858,"duration":0.03739312499999414},{"name":"F3","midi":53,"time":90.87063562499934,"velocity":0.2992125984251969,"duration":0.3728628750000098},{"name":"A#5","midi":82,"time":90.87704587499934,"velocity":0.3858267716535433,"duration":0.28846124999999745},{"name":"D4","midi":62,"time":90.87811424999934,"velocity":0.31496062992125984,"duration":0.31196549999999945},{"name":"F4","midi":65,"time":90.88025099999935,"velocity":0.047244094488188976,"duration":0.2820509999999956},{"name":"D5","midi":74,"time":90.88238774999935,"velocity":0.3543307086614173,"duration":0.20299124999999663},{"name":"D6","midi":86,"time":91.12277212499933,"velocity":0.4566929133858268,"duration":0.19123912500002405},{"name":"F5","midi":77,"time":91.15268662499933,"velocity":0.3700787401574803,"duration":0.035256375000003004},{"name":"C6","midi":84,"time":91.41230174999936,"velocity":0.47244094488188976,"duration":0.11431612499998778},{"name":"A#3","midi":58,"time":91.41230174999936,"velocity":0.2047244094488189,"duration":0.15491437499997573},{"name":"D#5","midi":75,"time":91.42939574999936,"velocity":0.3543307086614173,"duration":0.05662387499999966},{"name":"D4","midi":62,"time":91.44114787499936,"velocity":0.25984251968503935,"duration":0.0822648749999928},{"name":"F3","midi":53,"time":91.45076324999935,"velocity":0.2992125984251969,"duration":0.11858962499998427},{"name":"F5","midi":77,"time":91.67512199999933,"velocity":0.4566929133858268,"duration":0.0747862500000025},{"name":"C5","midi":72,"time":91.68580574999933,"velocity":0.30708661417322836,"duration":0.04166662500000484},{"name":"A#5","midi":82,"time":91.97854049999934,"velocity":0.4645669291338583,"duration":0.1794869999999662},{"name":"G3","midi":55,"time":91.98708749999935,"velocity":0.33070866141732286,"duration":0.29487149999995665},{"name":"D5","midi":74,"time":91.99029262499934,"velocity":0.31496062992125984,"duration":0.15277762499997039},{"name":"D#3","midi":51,"time":91.99563449999934,"velocity":0.23622047244094488,"duration":0.29487149999995665},{"name":"A#3","midi":58,"time":92.00204474999934,"velocity":0.1732283464566929,"duration":0.3002133749999558},{"name":"D4","midi":62,"time":92.01059174999934,"velocity":0.1968503937007874,"duration":0.27564074999996535},{"name":"G3","midi":55,"time":92.5479843749993,"velocity":0.30708661417322836,"duration":0.21474337499999763},{"name":"A#5","midi":82,"time":92.5511894999993,"velocity":0.2677165354330709,"duration":0.04807687500000668},{"name":"D6","midi":86,"time":92.5533262499993,"velocity":0.47244094488188976,"duration":0.08867512499999464},{"name":"D#3","midi":51,"time":92.5640099999993,"velocity":0.23622047244094488,"duration":0.08974349999999731},{"name":"D4","midi":62,"time":92.5800356249993,"velocity":0.25196850393700787,"duration":0.23824762499999963},{"name":"D#6","midi":87,"time":92.6526851249993,"velocity":0.3464566929133858,"duration":0.1688032499999963},{"name":"C6","midi":84,"time":92.6825996249993,"velocity":0.25984251968503935,"duration":0.05021362499999782},{"name":"F6","midi":89,"time":92.7670012499993,"velocity":0.47244094488188976,"duration":0.0779913749999821},{"name":"D6","midi":86,"time":92.7798217499993,"velocity":0.4094488188976378,"duration":0.06196574999998461},{"name":"D4","midi":62,"time":93.06614624999928,"velocity":0.25196850393700787,"duration":0.35576887500000964},{"name":"F3","midi":53,"time":93.07255649999928,"velocity":0.2677165354330709,"duration":0.346153500000014},{"name":"D6","midi":86,"time":93.07682999999928,"velocity":0.4881889763779528,"duration":0.2361108750000085},{"name":"A#3","midi":58,"time":93.08003512499927,"velocity":0.33070866141732286,"duration":0.33653812500001834},{"name":"A#5","midi":82,"time":93.09392399999928,"velocity":0.4094488188976378,"duration":0.13461525000001018},{"name":"D5","midi":74,"time":93.35994937499929,"velocity":0.48031496062992124,"duration":0.13034174999999948},{"name":"A#5","midi":82,"time":93.36101774999929,"velocity":0.5275590551181102,"duration":0.07905974999999899},{"name":"A#3","midi":58,"time":93.62063287499929,"velocity":0.29133858267716534,"duration":0.31089712499998257},{"name":"F3","midi":53,"time":93.62170124999929,"velocity":0.28346456692913385,"duration":0.31837574999997287},{"name":"C6","midi":84,"time":93.62704312499929,"velocity":0.5196850393700787,"duration":0.3514953749999705},{"name":"D4","midi":62,"time":93.62704312499929,"velocity":0.2440944881889764,"duration":0.3215808749999667},{"name":"D#5","midi":75,"time":93.6345217499993,"velocity":0.4645669291338583,"duration":0.1014956249999841},{"name":"A5","midi":81,"time":93.89200012499927,"velocity":0.49606299212598426,"duration":0.0897434999999831},{"name":"F5","midi":77,"time":93.89200012499927,"velocity":0.47244094488188976,"duration":0.05128199999998628},{"name":"A#5","midi":82,"time":94.17832462499925,"velocity":0.4094488188976378,"duration":0.1912391249999814},{"name":"D4","midi":62,"time":94.19328187499924,"velocity":0.15748031496062992,"duration":0.27670912499999645},{"name":"D5","midi":74,"time":94.19755537499924,"velocity":0.3937007874015748,"duration":0.1452989999999943},{"name":"G3","midi":55,"time":94.21037587499924,"velocity":0.10236220472440945,"duration":0.31196549999999945},{"name":"A#3","midi":58,"time":94.21678612499923,"velocity":0.14960629921259844,"duration":0.24572625000000414},{"name":"F3","midi":53,"time":94.76593087499924,"velocity":0.36220472440944884,"duration":0.053418750000005844},{"name":"A#5","midi":82,"time":94.76699924999924,"velocity":0.33858267716535434,"duration":0.053418750000005844},{"name":"D6","midi":86,"time":94.77981974999925,"velocity":0.4251968503937008,"duration":0.10683749999999748},{"name":"A#3","midi":58,"time":94.78836674999924,"velocity":0.2440944881889764,"duration":0.4946576250000163},{"name":"D4","midi":62,"time":94.80118724999924,"velocity":0.15748031496062992,"duration":0.5470080000000053},{"name":"C6","midi":84,"time":94.89840937499925,"velocity":0.33858267716535434,"duration":0.04166662500000484},{"name":"D#6","midi":87,"time":94.90054612499925,"velocity":0.3464566929133858,"duration":0.2008545000000055},{"name":"F6","midi":89,"time":95.03088787499925,"velocity":0.3937007874015748,"duration":0.10683750000001169},{"name":"D#3","midi":51,"time":95.03622974999925,"velocity":0.4015748031496063,"duration":0.11111100000000818},{"name":"D6","midi":86,"time":95.04370837499926,"velocity":0.3464566929133858,"duration":0.05021362499999782},{"name":"F3","midi":53,"time":95.32896449999926,"velocity":0.36220472440944884,"duration":0.17841862499999195},{"name":"D6","midi":86,"time":95.33964824999926,"velocity":0.4330708661417323,"duration":0.20512799999998776},{"name":"A#5","midi":82,"time":95.37063112499925,"velocity":0.2992125984251969,"duration":0.08119649999999012},{"name":"A#5","midi":82,"time":95.61849412499924,"velocity":0.4330708661417323,"duration":0.04380337499999598},{"name":"D5","midi":74,"time":95.64520349999924,"velocity":0.3937007874015748,"duration":0.06730762499999798},{"name":"C6","midi":84,"time":95.94221174999925,"velocity":0.3464566929133858,"duration":0.29487149999997087},{"name":"D#5","midi":75,"time":95.95075874999924,"velocity":0.33070866141732286,"duration":0.25961512499998207},{"name":"F2","midi":41,"time":95.97639974999923,"velocity":0.31496062992125984,"duration":0.1602562499999891},{"name":"C5","midi":72,"time":96.31507462499921,"velocity":0.3700787401574803,"duration":0.12606824999998878},{"name":"A5","midi":81,"time":96.3236216249992,"velocity":0.3464566929133858,"duration":0.11324774999999931},{"name":"A#3","midi":58,"time":96.7702023749992,"velocity":0.2283464566929134,"duration":0.6367514999999742},{"name":"A#2","midi":46,"time":96.7787493749992,"velocity":0.2047244094488189,"duration":1.0128194999999778},{"name":"D5","midi":74,"time":96.9090911249992,"velocity":0.5354330708661418,"duration":1.0982894999999786},{"name":"A#5","midi":82,"time":96.91977487499919,"velocity":0.4881889763779528,"duration":1.0427339999999816},{"name":"A#3","midi":58,"time":97.76485949999918,"velocity":0.25196850393700787,"duration":0.20512800000000198},{"name":"D4","midi":62,"time":98.33002987499917,"velocity":0.30708661417322836,"duration":0.334401375000013},{"name":"A#3","midi":58,"time":98.34926062499918,"velocity":0.2204724409448819,"duration":0.27991425000000447},{"name":"G5","midi":79,"time":98.38024349999918,"velocity":0.5748031496062992,"duration":0.7628197500000198},{"name":"D5","midi":74,"time":98.41229474999918,"velocity":0.3858267716535433,"duration":0.22115362499999947},{"name":"A#3","midi":58,"time":98.91977287499918,"velocity":0.3464566929133858,"duration":0.45833287500002484},{"name":"D5","midi":74,"time":98.92725149999919,"velocity":0.4881889763779528,"duration":0.1452990000000085},{"name":"D4","midi":62,"time":98.94541387499919,"velocity":0.2440944881889764,"duration":0.25427325000001133},{"name":"D4","midi":62,"time":99.49883212499921,"velocity":0.2677165354330709,"duration":0.4070508749999817},{"name":"A3","midi":57,"time":99.50951587499921,"velocity":0.30708661417322836,"duration":0.38568337499998506},{"name":"F#5","midi":78,"time":99.53836199999921,"velocity":0.5748031496062992,"duration":1.6816222499999753},{"name":"D5","midi":74,"time":99.5469089999992,"velocity":0.33858267716535434,"duration":0.31944412499998975},{"name":"C5","midi":72,"time":99.5682764999992,"velocity":0.4094488188976378,"duration":0.33867487499999527},{"name":"D5","midi":74,"time":100.1227631249992,"velocity":0.5039370078740157,"duration":0.1997861249999886},{"name":"A3","midi":57,"time":100.1238314999992,"velocity":0.2677165354330709,"duration":0.33546974999998724},{"name":"D4","midi":62,"time":100.14413062499919,"velocity":0.2283464566929134,"duration":0.2350424999999916},{"name":"C5","midi":72,"time":100.1558827499992,"velocity":0.2440944881889764,"duration":0.08867512499999464},{"name":"A#3","midi":58,"time":100.73066849999918,"velocity":0.25984251968503935,"duration":0.278845875000016},{"name":"D5","midi":74,"time":100.73280524999919,"velocity":0.3779527559055118,"duration":0.36645262500000797},{"name":"D4","midi":62,"time":100.75096762499919,"velocity":0.2440944881889764,"duration":0.35149537499999894},{"name":"A#4","midi":70,"time":100.7531043749992,"velocity":0.3228346456692913,"duration":0.32692274999999427},{"name":"A#3","midi":58,"time":101.40801824999919,"velocity":0.25984251968503935,"duration":0.414529499999972},{"name":"D4","midi":62,"time":101.41442849999919,"velocity":0.30708661417322836,"duration":0.5160251249999703},{"name":"G5","midi":79,"time":101.42404387499919,"velocity":0.6220472440944882,"duration":0.6474352499999583},{"name":"D5","midi":74,"time":101.45075324999918,"velocity":0.3937007874015748,"duration":0.1720083749999901},{"name":"A#4","midi":70,"time":101.46036862499918,"velocity":0.36220472440944884,"duration":0.2115382499999896},{"name":"C4","midi":60,"time":101.95075274999915,"velocity":0.33858267716535434,"duration":0.34401674999999443},{"name":"G4","midi":67,"time":101.95502624999915,"velocity":0.29133858267716534,"duration":0.401709000000011},{"name":"D#5","midi":75,"time":102.02233387499915,"velocity":0.5826771653543307,"duration":0.8664521250000234},{"name":"A4","midi":69,"time":102.03729112499914,"velocity":0.3779527559055118,"duration":0.2553416249999998},{"name":"C4","midi":60,"time":102.56399999999917,"velocity":0.2125984251968504,"duration":0.2895296250000001},{"name":"G4","midi":67,"time":102.57041024999917,"velocity":0.33070866141732286,"duration":0.14209387500000048},{"name":"A4","midi":69,"time":102.58643587499917,"velocity":0.3543307086614173,"duration":0.2596151249999963},{"name":"D4","midi":62,"time":103.13237549999917,"velocity":0.31496062992125984,"duration":0.4006406249999799},{"name":"D5","midi":74,"time":103.14840112499917,"velocity":0.5748031496062992,"duration":1.190169749999967},{"name":"F#4","midi":66,"time":103.15587974999917,"velocity":0.2204724409448819,"duration":0.3696577499999876},{"name":"A4","midi":69,"time":103.18258912499917,"velocity":0.3228346456692913,"duration":0.3568372499999839},{"name":"D4","midi":62,"time":103.71784499999914,"velocity":0.28346456692913385,"duration":0.3108971249999968},{"name":"A4","midi":69,"time":103.71891337499915,"velocity":0.4330708661417323,"duration":0.2713672499999973},{"name":"F#4","midi":66,"time":103.74775949999915,"velocity":0.2755905511811024,"duration":0.15170924999999613},{"name":"G3","midi":55,"time":104.29904099999914,"velocity":0.31496062992125984,"duration":0.3856833750000135},{"name":"D4","midi":62,"time":104.31079312499914,"velocity":0.25196850393700787,"duration":0.4091876250000155},{"name":"C5","midi":72,"time":104.34711787499913,"velocity":0.5118110236220472,"duration":0.2361108750000085},{"name":"G4","midi":67,"time":104.36314349999913,"velocity":0.33858267716535434,"duration":0.361110750000023},{"name":"A#4","midi":70,"time":104.59070737499914,"velocity":0.5118110236220472,"duration":0.09188025000000266},{"name":"C5","midi":72,"time":104.71784399999915,"velocity":0.5748031496062992,"duration":0.07692299999999364},{"name":"A#4","midi":70,"time":104.81613449999914,"velocity":0.5433070866141733,"duration":0.04594012500000133},{"name":"G3","midi":55,"time":104.84391224999914,"velocity":0.3779527559055118,"duration":0.09294862500000534},{"name":"C5","midi":72,"time":104.88023699999914,"velocity":0.5039370078740157,"duration":0.05769225000000233},{"name":"D4","midi":62,"time":104.88130537499914,"velocity":0.28346456692913385,"duration":0.21794850000000565},{"name":"A#4","midi":70,"time":104.94968137499914,"velocity":0.5590551181102362,"duration":0.051282000000000494},{"name":"C5","midi":72,"time":105.01805737499915,"velocity":0.4881889763779528,"duration":0.0747862500000025},{"name":"A#4","midi":70,"time":105.08109149999915,"velocity":0.49606299212598426,"duration":0.28418775000001517},{"name":"A4","midi":69,"time":105.33963824999915,"velocity":0.5748031496062992,"duration":0.6891018750000057},{"name":"F3","midi":53,"time":105.35780062499916,"velocity":0.2992125984251969,"duration":0.36324750000001416},{"name":"G3","midi":55,"time":105.37275787499917,"velocity":0.2440944881889764,"duration":0.36004237500000613},{"name":"D4","midi":62,"time":105.37382624999917,"velocity":0.31496062992125984,"duration":0.34294837500000597},{"name":"G4","midi":67,"time":105.89519324999917,"velocity":0.5669291338582677,"duration":0.30341849999999226},{"name":"F3","midi":53,"time":105.91121887499916,"velocity":0.3228346456692913,"duration":0.13461524999999597},{"name":"D4","midi":62,"time":105.91442399999916,"velocity":0.31496062992125984,"duration":0.0822648749999928},{"name":"G3","midi":55,"time":105.91869749999915,"velocity":0.2992125984251969,"duration":0.08547000000000082},{"name":"G3","midi":55,"time":106.42083374999916,"velocity":0.28346456692913385,"duration":0.41773462500000846},{"name":"C4","midi":60,"time":106.42724399999916,"velocity":0.2440944881889764,"duration":0.4519226250000088},{"name":"D#3","midi":51,"time":106.44006449999917,"velocity":0.2204724409448819,"duration":0.45299100000001147},{"name":"C5","midi":72,"time":106.48279949999916,"velocity":0.5748031496062992,"duration":1.1485031250000475},{"name":"G4","midi":67,"time":106.51271399999916,"velocity":0.3464566929133858,"duration":0.32371762500000045},{"name":"G4","midi":67,"time":107.03087587499918,"velocity":0.3858267716535433,"duration":0.14636737500001118},{"name":"G3","midi":55,"time":107.04796987499918,"velocity":0.28346456692913385,"duration":0.2799142500000187},{"name":"D#3","midi":51,"time":107.05010662499919,"velocity":0.3228346456692913,"duration":0.38995687500001},{"name":"C4","midi":60,"time":107.05117499999919,"velocity":0.2125984251968504,"duration":0.19123912500000984},{"name":"D3","midi":50,"time":107.6110034999992,"velocity":0.31496062992125984,"duration":0.38675174999998774},{"name":"G3","midi":55,"time":107.6280974999992,"velocity":0.2677165354330709,"duration":0.3728628749999814},{"name":"B3","midi":59,"time":107.6291658749992,"velocity":0.25984251968503935,"duration":0.37820474999996634},{"name":"D5","midi":74,"time":107.6355761249992,"velocity":0.5748031496062992,"duration":0.423076499999965},{"name":"G4","midi":67,"time":107.6558752499992,"velocity":0.3937007874015748,"duration":0.3130338749999879},{"name":"F4","midi":65,"time":107.6676273749992,"velocity":0.31496062992125984,"duration":0.3365381249999757},{"name":"D3","midi":50,"time":108.21784049999917,"velocity":0.25984251968503935,"duration":0.2542732499999971},{"name":"G3","midi":55,"time":108.21890887499917,"velocity":0.28346456692913385,"duration":0.2820509999999956},{"name":"B4","midi":71,"time":108.21997724999918,"velocity":0.5826771653543307,"duration":0.32051249999999243},{"name":"B3","midi":59,"time":108.22104562499918,"velocity":0.25196850393700787,"duration":0.2083331249999958},{"name":"G4","midi":67,"time":108.23386612499918,"velocity":0.47244094488188976,"duration":0.24572624999998993},{"name":"F4","midi":65,"time":108.24882337499918,"velocity":0.4015748031496063,"duration":0.1452989999999943},{"name":"G3","midi":55,"time":108.76271174999917,"velocity":0.1968503937007874,"duration":0.3846149999999824},{"name":"C4","midi":60,"time":108.77446387499917,"velocity":0.2204724409448819,"duration":0.35897399999998925},{"name":"D#3","midi":51,"time":108.77766899999916,"velocity":0.2677165354330709,"duration":0.3878201249999904},{"name":"C5","midi":72,"time":108.81826724999917,"velocity":0.5354330708661418,"duration":1.6858957499999576},{"name":"G4","midi":67,"time":108.83215612499916,"velocity":0.3937007874015748,"duration":0.31623899999999594},{"name":"G4","midi":67,"time":109.38450599999915,"velocity":0.3464566929133858,"duration":0.24572624999997572},{"name":"C4","midi":60,"time":109.42617262499914,"velocity":0.25196850393700787,"duration":0.16132462499999178},{"name":"D#3","midi":51,"time":109.43044612499914,"velocity":0.2283464566929134,"duration":0.25640999999998826},{"name":"G3","midi":55,"time":109.44219824999914,"velocity":0.1732283464566929,"duration":0.21794849999999144},{"name":"G4","midi":67,"time":109.98279599999913,"velocity":0.4645669291338583,"duration":0.33546974999998724},{"name":"B2","midi":47,"time":109.98386437499913,"velocity":0.2992125984251969,"duration":0.3066236249999861},{"name":"G3","midi":55,"time":109.98813787499913,"velocity":0.30708661417322836,"duration":0.3247859999999889},{"name":"F4","midi":65,"time":110.00202674999913,"velocity":0.3779527559055118,"duration":0.28846124999998324},{"name":"D5","midi":74,"time":110.57040224999912,"velocity":0.6220472440944882,"duration":0.23076900000000933},{"name":"B2","midi":47,"time":110.57253899999913,"velocity":0.3464566929133858,"duration":0.07051275000000601},{"name":"G4","midi":67,"time":110.58429112499913,"velocity":0.4645669291338583,"duration":0.24465787500000147},{"name":"G3","midi":55,"time":110.58429112499913,"velocity":0.3228346456692913,"duration":0.10897425000000283},{"name":"F4","midi":65,"time":110.59711162499913,"velocity":0.4251968503937008,"duration":0.1880340000000018},{"name":"G3","midi":55,"time":111.14518799999912,"velocity":0.29133858267716534,"duration":0.37393124999998406},{"name":"C3","midi":48,"time":111.15159824999913,"velocity":0.2440944881889764,"duration":0.3963671249999834},{"name":"C4","midi":60,"time":111.16014524999912,"velocity":0.28346456692913385,"duration":0.3568372499999839},{"name":"D#5","midi":75,"time":111.16976062499911,"velocity":0.6220472440944882,"duration":0.7478624999999681},{"name":"G4","midi":67,"time":111.18471787499911,"velocity":0.4330708661417323,"duration":0.30448687499999494},{"name":"D#4","midi":63,"time":111.19753837499911,"velocity":0.31496062992125984,"duration":0.2393159999999881},{"name":"G4","midi":67,"time":111.7669822499991,"velocity":0.5118110236220472,"duration":0.12393149999998343},{"name":"C3","midi":48,"time":111.7723241249991,"velocity":0.29133858267716534,"duration":0.09829049999997608},{"name":"G3","midi":55,"time":111.7819394999991,"velocity":0.3228346456692913,"duration":0.09615374999998494},{"name":"C4","midi":60,"time":111.78514462499909,"velocity":0.2992125984251969,"duration":0.05982899999999347},{"name":"D#4","midi":63,"time":111.79048649999909,"velocity":0.41732283464566927,"duration":0.09935887499999296},{"name":"F5","midi":77,"time":112.33963124999909,"velocity":0.6456692913385826,"duration":0.37820475000000897},{"name":"G#4","midi":68,"time":112.3545884999991,"velocity":0.5118110236220472,"duration":0.32799112500001115},{"name":"D3","midi":50,"time":112.3556568749991,"velocity":0.3464566929133858,"duration":0.28525612500000364},{"name":"B2","midi":47,"time":112.3599303749991,"velocity":0.33070866141732286,"duration":0.287392875000009},{"name":"G#3","midi":56,"time":112.3674089999991,"velocity":0.33070866141732286,"duration":0.3920936250000011},{"name":"F4","midi":65,"time":112.3706141249991,"velocity":0.4015748031496063,"duration":0.2713672500000115},{"name":"D5","midi":74,"time":112.9283058749991,"velocity":0.6771653543307087,"duration":0.14850412500000232},{"name":"D3","midi":50,"time":112.9389896249991,"velocity":0.4015748031496063,"duration":0.10897425000000283},{"name":"B2","midi":47,"time":112.9518101249991,"velocity":0.3464566929133858,"duration":0.07585462500000517},{"name":"G3","midi":55,"time":112.9571519999991,"velocity":0.3937007874015748,"duration":0.12499987500000032},{"name":"F4","midi":65,"time":112.9571519999991,"velocity":0.4566929133858268,"duration":0.126068250000003},{"name":"G4","midi":67,"time":112.9582203749991,"velocity":0.4094488188976378,"duration":0.12179474999999229},{"name":"G3","midi":55,"time":113.5148437499991,"velocity":0.36220472440944884,"duration":0.2820509999999956},{"name":"C4","midi":60,"time":113.5330061249991,"velocity":0.2992125984251969,"duration":0.28846124999999745},{"name":"C3","midi":48,"time":113.53514287499911,"velocity":0.3228346456692913,"duration":0.3066236250000003},{"name":"D#5","midi":75,"time":113.5436898749991,"velocity":0.6299212598425197,"duration":0.6581189999999992},{"name":"G4","midi":67,"time":113.55116849999911,"velocity":0.4566929133858268,"duration":0.26816212499998926},{"name":"D#4","midi":63,"time":113.6013821249991,"velocity":0.2440944881889764,"duration":0.2393160000000023},{"name":"G4","midi":67,"time":114.08321924999912,"velocity":0.5275590551181102,"duration":0.09188024999998845},{"name":"G3","midi":55,"time":114.08749274999911,"velocity":0.3464566929133858,"duration":0.4241448749999961},{"name":"C4","midi":60,"time":114.09176624999911,"velocity":0.3464566929133858,"duration":0.1292733749999968},{"name":"C3","midi":48,"time":114.09283462499911,"velocity":0.33070866141732286,"duration":0.13247849999999062},{"name":"D#4","midi":63,"time":114.10351837499911,"velocity":0.3779527559055118,"duration":0.05662387499999966},{"name":"F3","midi":53,"time":114.67509899999911,"velocity":0.33070866141732286,"duration":0.3696577500000018},{"name":"B3","midi":59,"time":114.6836459999991,"velocity":0.3228346456692913,"duration":0.3611107500000088},{"name":"D3","midi":50,"time":114.6900562499991,"velocity":0.31496062992125984,"duration":0.3418800000000033},{"name":"G5","midi":79,"time":114.7156972499991,"velocity":0.6377952755905512,"duration":0.48504225000000645},{"name":"G4","midi":67,"time":114.7295861249991,"velocity":0.41732283464566927,"duration":0.3183757500000013},{"name":"F3","midi":53,"time":115.2552266249991,"velocity":0.2992125984251969,"duration":0.1805553749999973},{"name":"B3","midi":59,"time":115.2787308749991,"velocity":0.30708661417322836,"duration":0.14850412500000232},{"name":"D3","midi":50,"time":115.28193599999909,"velocity":0.3779527559055118,"duration":0.14423062500000583},{"name":"F5","midi":77,"time":115.28193599999909,"velocity":0.6614173228346457,"duration":0.2756407499999938},{"name":"G4","midi":67,"time":115.3065086249991,"velocity":0.49606299212598426,"duration":0.2467946249999926},{"name":"G3","midi":55,"time":115.86099524999909,"velocity":0.2992125984251969,"duration":0.399572249999963},{"name":"C4","midi":60,"time":115.8674054999991,"velocity":0.2440944881889764,"duration":0.4423072499999563},{"name":"D#3","midi":51,"time":115.8695422499991,"velocity":0.31496062992125984,"duration":0.36965774999995915},{"name":"G5","midi":79,"time":115.8898413749991,"velocity":0.6377952755905512,"duration":0.8536316249999629},{"name":"C5","midi":72,"time":115.89945674999909,"velocity":0.44881889763779526,"duration":0.3247859999999747},{"name":"G4","midi":67,"time":115.92189262499909,"velocity":0.31496062992125984,"duration":0.36431587499996},{"name":"G3","midi":55,"time":116.50202024999905,"velocity":0.23622047244094488,"duration":0.07799137499999631},{"name":"C5","midi":72,"time":116.50736212499905,"velocity":0.47244094488188976,"duration":0.30021337500001266},{"name":"C4","midi":60,"time":116.51163562499904,"velocity":0.3228346456692913,"duration":0.28952962500001433},{"name":"G4","midi":67,"time":116.51270399999905,"velocity":0.3543307086614173,"duration":0.23076900000000933},{"name":"D#3","midi":51,"time":116.53300312499904,"velocity":0.2204724409448819,"duration":0.060897375000010356},{"name":"F4","midi":65,"time":117.12274612499905,"velocity":0.47244094488188976,"duration":0.37499962500001516},{"name":"C4","midi":60,"time":117.12488287499906,"velocity":0.4015748031496063,"duration":0.4284183750000068},{"name":"F3","midi":53,"time":117.14090849999906,"velocity":0.33070866141732286,"duration":0.3194441250000182},{"name":"G#5","midi":80,"time":117.14197687499906,"velocity":0.6299212598425197,"duration":0.8888879999999943},{"name":"C5","midi":72,"time":117.15800249999906,"velocity":0.33858267716535434,"duration":0.11217937500001085},{"name":"G#4","midi":68,"time":117.18150674999906,"velocity":0.28346456692913385,"duration":0.4326918750000033},{"name":"C5","midi":72,"time":117.27125024999907,"velocity":0.047244094488188976,"duration":0.34722187499998824},{"name":"C5","midi":72,"time":117.77338649999906,"velocity":0.4566929133858268,"duration":0.3108971249999968},{"name":"D#4","midi":63,"time":117.77659162499906,"velocity":0.5354330708661418,"duration":0.3579056250000008},{"name":"G#4","midi":68,"time":117.78193349999906,"velocity":0.2992125984251969,"duration":0.33226462500000764},{"name":"C4","midi":60,"time":117.79048049999905,"velocity":0.3228346456692913,"duration":0.34081162500001483},{"name":"F3","midi":53,"time":117.81505312499905,"velocity":0.36220472440944884,"duration":0.28098262500000715},{"name":"D4","midi":62,"time":118.37381324999906,"velocity":0.4566929133858268,"duration":0.44123887500001047},{"name":"B4","midi":71,"time":118.38663374999906,"velocity":0.5039370078740157,"duration":0.9102555000000052},{"name":"G3","midi":55,"time":118.41334312499906,"velocity":0.36220472440944884,"duration":0.401709000000011},{"name":"F3","midi":53,"time":118.41975337499906,"velocity":0.29133858267716534,"duration":0.41452950000001465},{"name":"G4","midi":67,"time":118.42616362499906,"velocity":0.3228346456692913,"duration":0.27991424999999026},{"name":"G4","midi":67,"time":118.98812887499908,"velocity":0.3700787401574803,"duration":0.24572624999998993},{"name":"D4","midi":62,"time":118.99774424999907,"velocity":0.4015748031496063,"duration":0.1923074999999983},{"name":"F3","midi":53,"time":119.03513737499907,"velocity":0.2440944881889764,"duration":0.15491437500000416},{"name":"G3","midi":55,"time":119.03513737499907,"velocity":0.2204724409448819,"duration":0.149572500000005},{"name":"G3","midi":55,"time":119.63235899999907,"velocity":0.29133858267716534,"duration":0.5438028749999546},{"name":"C5","midi":72,"time":119.64197437499907,"velocity":0.5275590551181102,"duration":0.443375624999959},{"name":"C4","midi":60,"time":119.64517949999906,"velocity":0.2755905511811024,"duration":0.355768874999967},{"name":"D#3","midi":51,"time":119.64838462499905,"velocity":0.33858267716535434,"duration":0.5352558749999758},{"name":"G4","midi":67,"time":119.66334187499905,"velocity":0.3543307086614173,"duration":0.26495699999998124},{"name":"D5","midi":74,"time":120.22317037499903,"velocity":0.6062992125984252,"duration":0.5117516249999738},{"name":"C4","midi":60,"time":120.22423874999903,"velocity":0.28346456692913385,"duration":0.6901702499999516},{"name":"F3","midi":53,"time":120.22851224999903,"velocity":0.3700787401574803,"duration":0.3728628749999814},{"name":"G#4","midi":68,"time":120.24881137499902,"velocity":0.4094488188976378,"duration":0.3215808749999809},{"name":"C5","midi":72,"time":120.25735837499901,"velocity":0.2755905511811024,"duration":0.2542732499999829},{"name":"D#5","midi":75,"time":120.840691124999,"velocity":0.5039370078740157,"duration":0.7457257500000196},{"name":"G3","midi":55,"time":120.86099024999899,"velocity":0.30708661417322836,"duration":0.28098262499999294},{"name":"C5","midi":72,"time":120.87060562499899,"velocity":0.36220472440944884,"duration":0.3066236250000145},{"name":"G4","midi":67,"time":120.87487912499898,"velocity":0.2125984251968504,"duration":0.2820510000000098},{"name":"G3","midi":55,"time":121.44111787499901,"velocity":0.29133858267716534,"duration":1.560895875},{"name":"C5","midi":72,"time":121.45500674999901,"velocity":0.4330708661417323,"duration":0.2008545000000055},{"name":"G4","midi":67,"time":121.46141699999902,"velocity":0.25196850393700787,"duration":0.2435894999999988},{"name":"D5","midi":74,"time":122.11419412499902,"velocity":0.49606299212598426,"duration":0.7414522499999805},{"name":"G2","midi":43,"time":122.11953599999902,"velocity":0.30708661417322836,"duration":0.3611107499999946},{"name":"B4","midi":71,"time":122.12274112499901,"velocity":0.33858267716535434,"duration":0.44978587499998923},{"name":"F4","midi":65,"time":122.143040249999,"velocity":0.2992125984251969,"duration":0.8856828750000005},{"name":"C5","midi":72,"time":122.776586624999,"velocity":0.5039370078740157,"duration":0.31944412500000396},{"name":"G2","midi":43,"time":122.788338749999,"velocity":0.30708661417322836,"duration":0.07905974999999899},{"name":"C5","midi":72,"time":123.532996124999,"velocity":0.4645669291338583,"duration":0.7393154999999751},{"name":"D#3","midi":51,"time":123.554363624999,"velocity":0.28346456692913385,"duration":2.036322749999954},{"name":"C3","midi":48,"time":123.55756874999899,"velocity":0.23622047244094488,"duration":0.36217912499999727},{"name":"G5","midi":79,"time":123.56291062499899,"velocity":0.3858267716535433,"duration":0.3814098749999886},{"name":"D#5","midi":75,"time":123.56718412499899,"velocity":0.36220472440944884,"duration":0.3931619999999896},{"name":"C4","midi":60,"time":123.569320874999,"velocity":0.1968503937007874,"duration":0.35897399999998925},{"name":"G5","midi":79,"time":124.20286724999897,"velocity":0.33858267716535434,"duration":0.27350400000000263},{"name":"D#5","midi":75,"time":124.20927749999898,"velocity":0.4094488188976378,"duration":0.08333325000000968},{"name":"C4","midi":60,"time":124.22637149999898,"velocity":0.1968503937007874,"duration":0.21688012500000298},{"name":"C3","midi":48,"time":124.23919199999898,"velocity":0.1889763779527559,"duration":0.21046987500000114},{"name":"D#5","midi":75,"time":124.48278149999898,"velocity":0.4330708661417323,"duration":0.0982905000000045},{"name":"C5","midi":72,"time":124.49346524999898,"velocity":0.3543307086614173,"duration":0.38568337499998506},{"name":"D#5","midi":75,"time":124.75521712499898,"velocity":0.3779527559055118,"duration":0.22435874999997907},{"name":"G5","midi":79,"time":124.76376412499897,"velocity":0.3937007874015748,"duration":0.22542712499998174},{"name":"C4","midi":60,"time":124.77231112499896,"velocity":0.15748031496062992,"duration":0.22435874999999328},{"name":"C3","midi":48,"time":124.78726837499896,"velocity":0.2125984251968504,"duration":0.21901687499999412},{"name":"C4","midi":60,"time":125.34816524999896,"velocity":0.2283464566929134,"duration":0.7382471250000151},{"name":"G5","midi":79,"time":125.35243874999895,"velocity":0.4094488188976378,"duration":0.2660253749999981},{"name":"C3","midi":48,"time":125.35884899999895,"velocity":0.29133858267716534,"duration":0.2115382500000038},{"name":"D#5","midi":75,"time":125.36632762499896,"velocity":0.33070866141732286,"duration":0.1057691249999948},{"name":"D#5","midi":75,"time":125.61739574999895,"velocity":0.48031496062992124,"duration":0.10683749999999748},{"name":"C5","midi":72,"time":125.65051537499895,"velocity":0.29133858267716534,"duration":0.33653812500001834},{"name":"D#5","midi":75,"time":125.89730999999895,"velocity":0.4015748031496063,"duration":0.2243587500000217},{"name":"G5","midi":79,"time":125.90158349999895,"velocity":0.49606299212598426,"duration":0.27670912500002487},{"name":"G#3","midi":56,"time":125.91974587499895,"velocity":0.30708661417322836,"duration":0.28418775000001517},{"name":"C3","midi":48,"time":125.93790824999896,"velocity":0.14960629921259844,"duration":0.24999975000001484},{"name":"G#3","midi":56,"time":126.49559999999894,"velocity":0.2677165354330709,"duration":0.5085464999999942},{"name":"G#5","midi":80,"time":126.49987349999894,"velocity":0.49606299212598426,"duration":0.2895296250000001},{"name":"F5","midi":77,"time":126.51055724999894,"velocity":0.3700787401574803,"duration":0.30769200000000296},{"name":"C3","midi":48,"time":126.52658287499894,"velocity":0.23622047244094488,"duration":0.20940149999999846},{"name":"G#5","midi":80,"time":127.08747974999893,"velocity":0.4645669291338583,"duration":0.29914499999998156},{"name":"F5","midi":77,"time":127.09282162499893,"velocity":0.3464566929133858,"duration":0.6720078749999914},{"name":"F3","midi":53,"time":127.09388999999894,"velocity":0.31496062992125984,"duration":0.32264924999998357},{"name":"C3","midi":48,"time":127.12700962499893,"velocity":0.2125984251968504,"duration":0.29166637499999126},{"name":"F3","midi":53,"time":127.68042787499893,"velocity":0.2755905511811024,"duration":0.2585467499999936},{"name":"C6","midi":84,"time":127.68363299999892,"velocity":0.41732283464566927,"duration":0.18269212500000265},{"name":"G#5","midi":80,"time":127.69645349999892,"velocity":0.3543307086614173,"duration":0.17841862499999195},{"name":"C3","midi":48,"time":127.73384662499892,"velocity":0.14960629921259844,"duration":0.26923050000000615},{"name":"F5","midi":77,"time":128.27764949999892,"velocity":0.4566929133858268,"duration":0.33119625000000497},{"name":"D5","midi":74,"time":128.2883332499989,"velocity":0.3543307086614173,"duration":0.3376064999999926},{"name":"D3","midi":50,"time":128.3022221249989,"velocity":0.2440944881889764,"duration":0.322649250000012},{"name":"C3","midi":48,"time":128.3032904999989,"velocity":0.1968503937007874,"duration":0.33974324999999794},{"name":"B3","midi":59,"time":128.3032904999989,"velocity":0.2677165354330709,"duration":0.3108971250000252},{"name":"F5","midi":77,"time":128.86418737499886,"velocity":0.48031496062992124,"duration":0.17521349999998392},{"name":"C3","midi":48,"time":128.87807624999886,"velocity":0.15748031496062992,"duration":0.2318373749999978},{"name":"D3","midi":50,"time":128.87914462499884,"velocity":0.2047244094488189,"duration":0.23824762500001384},{"name":"D5","midi":74,"time":128.88769162499884,"velocity":0.2755905511811024,"duration":0.11538450000000466},{"name":"B3","midi":59,"time":128.89196512499885,"velocity":0.2047244094488189,"duration":0.21046987500000114},{"name":"D5","midi":74,"time":129.14089649999886,"velocity":0.48031496062992124,"duration":0.09829050000001871},{"name":"B4","midi":71,"time":129.16653749999887,"velocity":0.23622047244094488,"duration":0.06196575000001303},{"name":"F5","midi":77,"time":129.41760562499888,"velocity":0.47244094488188976,"duration":0.16666649999999095},{"name":"B3","midi":59,"time":129.42081074999888,"velocity":0.18110236220472442,"duration":0.20512800000000198},{"name":"D5","midi":74,"time":129.42828937499888,"velocity":0.3228346456692913,"duration":0.14423062500000583},{"name":"D3","midi":50,"time":129.44538337499887,"velocity":0.2125984251968504,"duration":0.20192287500000816},{"name":"C3","midi":48,"time":129.46034062499888,"velocity":0.14173228346456693,"duration":0.16239300000000867},{"name":"B3","midi":59,"time":129.9699554999989,"velocity":0.18110236220472442,"duration":0.2820509999999672},{"name":"D3","midi":50,"time":129.9859811249989,"velocity":0.28346456692913385,"duration":0.2970082499999762},{"name":"F5","midi":77,"time":129.99773324999887,"velocity":0.4645669291338583,"duration":0.19658099999998058},{"name":"D5","midi":74,"time":130.01055374999888,"velocity":0.28346456692913385,"duration":0.08974349999999731},{"name":"D5","midi":74,"time":130.23811762499886,"velocity":0.47244094488188976,"duration":0.05982900000000768},{"name":"B4","midi":71,"time":130.25200649999886,"velocity":0.2992125984251969,"duration":0.026709374999995816},{"name":"F5","midi":77,"time":130.52657887499888,"velocity":0.4881889763779528,"duration":0.25640999999995984},{"name":"B3","midi":59,"time":130.52657887499888,"velocity":0.1968503937007874,"duration":0.3012817499999585},{"name":"D5","midi":74,"time":130.53939937499888,"velocity":0.3543307086614173,"duration":0.6153839999999491},{"name":"G3","midi":55,"time":130.54474124999888,"velocity":0.2755905511811024,"duration":0.3119654999999568},{"name":"C3","midi":48,"time":130.55328824999887,"velocity":0.2125984251968504,"duration":0.26388862499996435},{"name":"B5","midi":83,"time":131.09709112499883,"velocity":0.48031496062992124,"duration":0.20192287500000816},{"name":"F5","midi":77,"time":131.11097999999882,"velocity":0.33858267716535434,"duration":0.2158117500000003},{"name":"G3","midi":55,"time":131.11097999999882,"velocity":0.2204724409448819,"duration":0.2307689999999809},{"name":"B3","midi":59,"time":131.13341587499883,"velocity":0.14960629921259844,"duration":0.20192287499997974},{"name":"C3","midi":48,"time":131.13341587499883,"velocity":0.1968503937007874,"duration":0.1923074999999983},{"name":"B3","midi":59,"time":131.6911076249988,"velocity":0.2283464566929134,"duration":0.20940150000001267},{"name":"B5","midi":83,"time":131.69538112499882,"velocity":0.4566929133858268,"duration":0.622862624999982},{"name":"G3","midi":55,"time":131.70499649999883,"velocity":0.2677165354330709,"duration":0.18696562499999914},{"name":"D5","midi":74,"time":131.71247512499883,"velocity":0.23622047244094488,"duration":0.2660253749999697},{"name":"C3","midi":48,"time":131.72422724999882,"velocity":0.1889763779527559,"duration":0.11538450000000466},{"name":"C3","midi":48,"time":132.2733719999988,"velocity":0.25984251968503935,"duration":0.09188025000000266},{"name":"F5","midi":77,"time":132.2829873749988,"velocity":0.2677165354330709,"duration":0.16132462499996336},{"name":"D6","midi":86,"time":132.2861924999988,"velocity":0.47244094488188976,"duration":0.20085449999996285},{"name":"B3","midi":59,"time":132.2936711249988,"velocity":0.1968503937007874,"duration":0.1794869999999662},{"name":"G3","midi":55,"time":132.3011497499988,"velocity":0.18110236220472442,"duration":0.07264949999998294},{"name":"D#4","midi":63,"time":132.89409787499878,"velocity":0.29133858267716534,"duration":0.29593987499995933},{"name":"C6","midi":84,"time":132.89730299999877,"velocity":0.4409448818897638,"duration":0.2542732499999829},{"name":"D#5","midi":75,"time":132.89943974999878,"velocity":0.3779527559055118,"duration":0.26388862499996435},{"name":"C4","midi":60,"time":132.91332862499877,"velocity":0.2125984251968504,"duration":0.2585467499999652},{"name":"G4","midi":67,"time":132.92080724999877,"velocity":0.2755905511811024,"duration":0.2809826249999503},{"name":"D#4","midi":63,"time":133.43149049999872,"velocity":0.2755905511811024,"duration":0.21794850000000565},{"name":"C4","midi":60,"time":133.45178962499872,"velocity":0.33070866141732286,"duration":0.1923074999999983},{"name":"G4","midi":67,"time":133.46033662499872,"velocity":0.28346456692913385,"duration":0.16025625000000332},{"name":"D6","midi":86,"time":133.54153312499872,"velocity":0.4409448818897638,"duration":0.02991450000001805},{"name":"F5","midi":77,"time":133.54580662499873,"velocity":0.3858267716535433,"duration":0.03952987499999949},{"name":"D#6","midi":87,"time":133.68362699999872,"velocity":0.5275590551181102,"duration":0.18696562499999914},{"name":"G5","midi":79,"time":133.73277224999873,"velocity":0.047244094488188976,"duration":0.18269212499998844},{"name":"D#4","midi":63,"time":133.98063524999873,"velocity":0.30708661417322836,"duration":0.28311937499995565},{"name":"C6","midi":84,"time":133.98277199999873,"velocity":0.4881889763779528,"duration":0.3194441249999329},{"name":"A#3","midi":58,"time":133.98597712499873,"velocity":0.3543307086614173,"duration":0.3482902499999341},{"name":"D#5","midi":75,"time":133.99345574999873,"velocity":0.4094488188976378,"duration":0.20940149999995583},{"name":"G4","midi":67,"time":133.99345574999873,"velocity":0.29133858267716534,"duration":0.30128174999993007},{"name":"C4","midi":60,"time":134.0372591249987,"velocity":0.13385826771653545,"duration":0.25640999999995984},{"name":"D#6","midi":87,"time":134.2370452499987,"velocity":0.5118110236220472,"duration":0.1442306249999774},{"name":"G5","midi":79,"time":134.2423871249987,"velocity":0.47244094488188976,"duration":0.05982899999997926},{"name":"D6","midi":86,"time":134.52123299999866,"velocity":0.5826771653543307,"duration":0.28418775000000096},{"name":"A#3","midi":58,"time":134.52336974999866,"velocity":0.4094488188976378,"duration":0.13995712499999513},{"name":"F5","midi":77,"time":134.53405349999866,"velocity":0.4251968503937008,"duration":0.05341874999999163},{"name":"D#4","midi":63,"time":134.55328424999865,"velocity":0.2677165354330709,"duration":0.19444425000000365},{"name":"G4","midi":67,"time":134.56183124999865,"velocity":0.2204724409448819,"duration":0.13888875000000667},{"name":"G5","midi":79,"time":134.78512162499865,"velocity":0.5433070866141733,"duration":0.09188025000000266},{"name":"D5","midi":74,"time":134.80328399999865,"velocity":0.4330708661417323,"duration":0.033119625000011865},{"name":"C4","midi":60,"time":135.07037774999867,"velocity":0.3228346456692913,"duration":0.3440167499999518},{"name":"G#3","midi":56,"time":135.07571962499867,"velocity":0.31496062992125984,"duration":0.33012787499995966},{"name":"C6","midi":84,"time":135.08319824999867,"velocity":0.5196850393700787,"duration":0.26068349999997054},{"name":"D#4","midi":63,"time":135.08640337499867,"velocity":0.33070866141732286,"duration":0.3397432499999411},{"name":"D#5","midi":75,"time":135.09281362499866,"velocity":0.4094488188976378,"duration":0.2617518749999874},{"name":"G4","midi":67,"time":135.09601874999865,"velocity":0.2125984251968504,"duration":0.31517062499997905},{"name":"G#3","midi":56,"time":135.6131122499986,"velocity":0.3700787401574803,"duration":0.15277762500002723},{"name":"C4","midi":60,"time":135.6131122499986,"velocity":0.3543307086614173,"duration":0.23290575000001468},{"name":"D#4","midi":63,"time":135.62272762499862,"velocity":0.33858267716535434,"duration":0.22329037500000481},{"name":"G4","midi":67,"time":135.63020624999862,"velocity":0.28346456692913385,"duration":0.23290574999998626},{"name":"D6","midi":86,"time":135.70606087499863,"velocity":0.5039370078740157,"duration":0.03418800000000033},{"name":"F5","midi":77,"time":135.73063349999862,"velocity":0.2992125984251969,"duration":0.049145250000009355},{"name":"G5","midi":79,"time":135.85670174999862,"velocity":0.4015748031496063,"duration":0.2275638749999871},{"name":"D#6","midi":87,"time":135.85990687499861,"velocity":0.44881889763779526,"duration":0.20726475000000733},{"name":"C4","midi":60,"time":136.1483681249986,"velocity":0.2992125984251969,"duration":0.3547004999999501},{"name":"C6","midi":84,"time":136.1537099999986,"velocity":0.5039370078740157,"duration":0.42841837499994995},{"name":"D#4","midi":63,"time":136.1611886249986,"velocity":0.2992125984251969,"duration":0.36111074999993775},{"name":"G3","midi":55,"time":136.1654621249986,"velocity":0.29133858267716534,"duration":0.34935862499992254},{"name":"D#5","midi":75,"time":136.1665304999986,"velocity":0.4015748031496063,"duration":0.23611087499995165},{"name":"G4","midi":67,"time":136.1729407499986,"velocity":0.18110236220472442,"duration":0.32585437499994896},{"name":"G5","midi":79,"time":136.42614562499855,"velocity":0.4645669291338583,"duration":0.11217937499998243},{"name":"D#6","midi":87,"time":136.42721399999854,"velocity":0.5118110236220472,"duration":0.13888875000000667},{"name":"C4","midi":60,"time":136.69430774999856,"velocity":0.33858267716535434,"duration":0.07905974999997056},{"name":"F5","midi":77,"time":136.69858124999857,"velocity":0.4645669291338583,"duration":0.0459401249999587},{"name":"D6","midi":86,"time":136.70178637499856,"velocity":0.5196850393700787,"duration":0.17307674999997857},{"name":"D#4","midi":63,"time":136.70712824999856,"velocity":0.3228346456692913,"duration":0.05128199999995786},{"name":"G4","midi":67,"time":136.70819662499855,"velocity":0.2283464566929134,"duration":0.04914524999998093},{"name":"G3","midi":55,"time":136.70926499999854,"velocity":0.31496062992125984,"duration":0.09722212500000182},{"name":"G5","midi":79,"time":136.93041862499854,"velocity":0.5433070866141733,"duration":0.09935887500000717},{"name":"C6","midi":84,"time":137.24772599999855,"velocity":0.5433070866141733,"duration":0.2040596249999851},{"name":"G#3","midi":56,"time":137.25413624999857,"velocity":0.36220472440944884,"duration":0.24465787499997305},{"name":"C4","midi":60,"time":137.25840974999858,"velocity":0.3228346456692913,"duration":0.261751874999959},{"name":"F3","midi":53,"time":137.25947812499857,"velocity":0.30708661417322836,"duration":0.28846124999998324},{"name":"D#4","midi":63,"time":137.27657212499855,"velocity":0.28346456692913385,"duration":0.23824762499998542},{"name":"C6","midi":84,"time":137.81182799999854,"velocity":0.4015748031496063,"duration":0.05235037500000317},{"name":"D#6","midi":87,"time":137.81396474999855,"velocity":0.5511811023622047,"duration":0.09829049999999029},{"name":"G#3","midi":56,"time":137.81823824999856,"velocity":0.3228346456692913,"duration":0.3514953749999563},{"name":"D#4","midi":63,"time":137.83212712499855,"velocity":0.2992125984251969,"duration":0.26495699999998124},{"name":"C4","midi":60,"time":137.84387924999854,"velocity":0.2677165354330709,"duration":0.3141022499999906},{"name":"F3","midi":53,"time":137.85135787499854,"velocity":0.23622047244094488,"duration":0.426281624999973},{"name":"F6","midi":89,"time":137.92934924999852,"velocity":0.4645669291338583,"duration":0.16346137499999713},{"name":"D6","midi":86,"time":137.96353724999852,"velocity":0.2440944881889764,"duration":0.05555549999999698},{"name":"G6","midi":91,"time":138.05755424999853,"velocity":0.4094488188976378,"duration":0.06623924999999531},{"name":"D#6","midi":87,"time":138.06075937499853,"velocity":0.4409448818897638,"duration":0.028846125000001166},{"name":"C4","midi":60,"time":138.32464799999852,"velocity":0.3700787401574803,"duration":0.32371762500000045},{"name":"D#6","midi":87,"time":138.33212662499852,"velocity":0.5039370078740157,"duration":0.26175187500001584},{"name":"C6","midi":84,"time":138.33533174999852,"velocity":0.4645669291338583,"duration":0.16025625000000332},{"name":"G3","midi":55,"time":138.3417419999985,"velocity":0.4251968503937008,"duration":0.3034185000000207},{"name":"D#4","midi":63,"time":138.34601549999851,"velocity":0.30708661417322836,"duration":0.290598000000017},{"name":"C6","midi":84,"time":138.61631437499855,"velocity":0.5748031496062992,"duration":0.1282049999999515},{"name":"D#5","midi":75,"time":138.62486137499855,"velocity":0.4645669291338583,"duration":0.06410249999996154},{"name":"D6","midi":86,"time":138.89088674999851,"velocity":0.5433070866141733,"duration":0.2574783749999767},{"name":"G3","midi":55,"time":138.8972969999985,"velocity":0.3543307086614173,"duration":0.25961512499998207},{"name":"F5","midi":77,"time":138.9090491249985,"velocity":0.4881889763779528,"duration":0.05128199999998628},{"name":"C4","midi":60,"time":138.91759612499848,"velocity":0.30708661417322836,"duration":0.21794850000000565},{"name":"D#4","midi":63,"time":138.92934824999847,"velocity":0.2677165354330709,"duration":0.20192287500000816},{"name":"B5","midi":83,"time":139.1430232499985,"velocity":0.4881889763779528,"duration":0.08440162499999815},{"name":"G#3","midi":56,"time":139.45712549999848,"velocity":0.33070866141732286,"duration":0.25640999999995984},{"name":"D#5","midi":75,"time":139.46780924999848,"velocity":0.41732283464566927,"duration":0.17735024999996085},{"name":"C4","midi":60,"time":139.46887762499847,"velocity":0.36220472440944884,"duration":0.2788458749999734},{"name":"D#4","midi":63,"time":139.47315112499848,"velocity":0.28346456692913385,"duration":0.24465787499997305},{"name":"C6","midi":84,"time":139.47421949999847,"velocity":0.4881889763779528,"duration":0.20512799999997355},{"name":"C6","midi":84,"time":139.99344974999843,"velocity":0.3858267716535433,"duration":0.056623874999985446},{"name":"D#6","midi":87,"time":140.02336424999842,"velocity":0.48031496062992124,"duration":0.10683749999998327},{"name":"G3","midi":55,"time":140.0297744999984,"velocity":0.3543307086614173,"duration":0.31089712499996836},{"name":"D#4","midi":63,"time":140.0564838749984,"velocity":0.1732283464566929,"duration":0.7831188749999569},{"name":"C4","midi":60,"time":140.0575522499984,"velocity":0.2125984251968504,"duration":0.7286317499999768},{"name":"F6","midi":89,"time":140.1312701249984,"velocity":0.41732283464566927,"duration":0.18589724999998225},{"name":"G6","midi":91,"time":140.2573383749984,"velocity":0.47244094488188976,"duration":0.06303412499997307},{"name":"F3","midi":53,"time":140.2840477499984,"velocity":0.3700787401574803,"duration":0.23824762499998542},{"name":"D#6","midi":87,"time":140.30327849999838,"velocity":0.3858267716535433,"duration":0.04380337499998177},{"name":"C6","midi":84,"time":140.59173974999837,"velocity":0.47244094488188976,"duration":0.11217937499998243},{"name":"D#6","midi":87,"time":140.59921837499837,"velocity":0.44881889763779526,"duration":0.2863244999999779},{"name":"G3","midi":55,"time":140.60135512499838,"velocity":0.3543307086614173,"duration":0.16559812499997406},{"name":"C6","midi":84,"time":140.88447449999836,"velocity":0.3937007874015748,"duration":0.08974349999999731},{"name":"D#5","midi":75,"time":140.90691037499835,"velocity":0.3858267716535433,"duration":0.07264950000001136},{"name":"G4","midi":67,"time":141.21887587499836,"velocity":0.33858267716535434,"duration":0.37713637499996366},{"name":"B3","midi":59,"time":141.22314937499837,"velocity":0.31496062992125984,"duration":0.2724356249999573},{"name":"D6","midi":86,"time":141.22421774999836,"velocity":0.3937007874015748,"duration":0.28739287499996635},{"name":"F5","midi":77,"time":141.22955962499836,"velocity":0.31496062992125984,"duration":0.3397432499999695},{"name":"G3","midi":55,"time":141.23596987499837,"velocity":0.25984251968503935,"duration":0.270298874999952},{"name":"D4","midi":62,"time":141.23703824999836,"velocity":0.2755905511811024,"duration":0.27136724999996886},{"name":"B5","midi":83,"time":141.56075587499834,"velocity":0.4094488188976378,"duration":0.5096148749999827},{"name":"D5","midi":74,"time":141.57037124999832,"velocity":0.3858267716535433,"duration":0.1057691249999948},{"name":"G4","midi":67,"time":142.08532799999833,"velocity":0.5039370078740157,"duration":0.4412388749999536},{"name":"G5","midi":79,"time":142.09494337499834,"velocity":0.3228346456692913,"duration":0.41239274999995246},{"name":"D#4","midi":63,"time":142.10242199999834,"velocity":0.3543307086614173,"duration":0.47863199999991934},{"name":"C6","midi":84,"time":142.10562712499834,"velocity":0.3937007874015748,"duration":0.3803414999999575},{"name":"C4","midi":60,"time":142.10669549999832,"velocity":0.33070866141732286,"duration":0.3344013749999988},{"name":"D#5","midi":75,"time":142.13233649999833,"velocity":0.16535433070866143,"duration":0.4380337499999314},{"name":"C3","midi":48,"time":143.07677999999825,"velocity":0.2047244094488189,"duration":0.22222200000001635},{"name":"D#4","midi":63,"time":143.09066887499824,"velocity":0.25984251968503935,"duration":0.23824762500001384},{"name":"C3","midi":48,"time":143.74451437499826,"velocity":0.25196850393700787,"duration":0.20512800000000198},{"name":"C4","midi":60,"time":143.76695024999827,"velocity":0.14173228346456693,"duration":0.22222199999998793},{"name":"A#4","midi":70,"time":143.78083912499827,"velocity":0.4645669291338583,"duration":0.3888884999999789},{"name":"D#4","midi":63,"time":143.78190749999825,"velocity":0.2992125984251969,"duration":0.18589725000001067},{"name":"C3","midi":48,"time":144.33532574999822,"velocity":0.2755905511811024,"duration":0.11858962499999848},{"name":"C4","midi":60,"time":144.3470778749982,"velocity":0.1889763779527559,"duration":0.13141012500000215},{"name":"A4","midi":69,"time":144.3652402499982,"velocity":0.5590551181102362,"duration":0.26495699999998124},{"name":"D#4","midi":63,"time":144.4122487499982,"velocity":0.36220472440944884,"duration":0.19871774999998593},{"name":"A#3","midi":58,"time":144.88874399999818,"velocity":0.25196850393700787,"duration":0.47649524999999926},{"name":"D3","midi":50,"time":144.88981237499817,"velocity":0.28346456692913385,"duration":0.4839738750000038},{"name":"A#4","midi":70,"time":144.99023962499817,"velocity":0.5511811023622047,"duration":1.8611092500000836},{"name":"F4","midi":65,"time":145.01374387499817,"velocity":0.33070866141732286,"duration":0.33546975000001567},{"name":"D3","midi":50,"time":145.59280312499817,"velocity":0.2755905511811024,"duration":0.29700825000003306},{"name":"A#3","midi":58,"time":145.60028174999817,"velocity":0.2440944881889764,"duration":0.2681621250000319},{"name":"F4","midi":65,"time":145.61203387499816,"velocity":0.30708661417322836,"duration":0.2564100000000451},{"name":"D3","midi":50,"time":146.1430162499982,"velocity":0.29133858267716534,"duration":0.23824762500004226},{"name":"F4","midi":65,"time":146.15690512499822,"velocity":0.31496062992125984,"duration":0.23397412500003156},{"name":"A#3","midi":58,"time":146.1633153749982,"velocity":0.2283464566929134,"duration":0.2649570000000381},{"name":"D3","midi":50,"time":146.71673362499826,"velocity":0.29133858267716534,"duration":0.1848288749999938},{"name":"D5","midi":74,"time":146.74130624999825,"velocity":0.5354330708661418,"duration":0.337606500000021},{"name":"A#3","midi":58,"time":146.74451137499824,"velocity":0.2204724409448819,"duration":0.22542712500001016},{"name":"F4","midi":65,"time":146.77656262499823,"velocity":0.23622047244094488,"duration":0.25320487500002287},{"name":"E3","midi":52,"time":147.29045099999826,"velocity":0.28346456692913385,"duration":0.49786275000002433},{"name":"C4","midi":60,"time":147.31181849999825,"velocity":0.2047244094488189,"duration":0.45833287500002484},{"name":"C5","midi":72,"time":147.35027999999826,"velocity":0.5354330708661418,"duration":1.2061953750000498},{"name":"G4","midi":67,"time":147.37698937499826,"velocity":0.33858267716535434,"duration":0.37820475000000897},{"name":"G4","midi":67,"time":147.93681787499827,"velocity":0.3700787401574803,"duration":0.314102250000019},{"name":"C4","midi":60,"time":147.95925374999828,"velocity":0.1889763779527559,"duration":0.22863225000000398},{"name":"E3","midi":52,"time":147.96459562499828,"velocity":0.23622047244094488,"duration":0.22542712500001016},{"name":"E3","midi":52,"time":148.5083984999983,"velocity":0.25196850393700787,"duration":0.2361108750000085},{"name":"C4","midi":60,"time":148.5105352499983,"velocity":0.2125984251968504,"duration":0.24572624999998993},{"name":"A#4","midi":70,"time":148.5254924999983,"velocity":0.5354330708661418,"duration":0.4401704999999936},{"name":"G4","midi":67,"time":148.5522018749983,"velocity":0.31496062992125984,"duration":0.23290574999998626},{"name":"E3","midi":52,"time":149.0233552499983,"velocity":0.30708661417322836,"duration":0.37072612500000446},{"name":"C4","midi":60,"time":149.0329706249983,"velocity":0.2677165354330709,"duration":0.3344013749999988},{"name":"A4","midi":69,"time":149.0703637499983,"velocity":0.5590551181102362,"duration":0.30021337499999845},{"name":"G4","midi":67,"time":149.1045517499983,"velocity":0.3700787401574803,"duration":0.2873928749999948},{"name":"A#4","midi":70,"time":149.3182267499983,"velocity":0.6062992125984252,"duration":0.14636737500001118},{"name":"C4","midi":60,"time":149.59814099999832,"velocity":0.2283464566929134,"duration":0.3888884999999789},{"name":"F3","midi":53,"time":149.62164524999832,"velocity":0.25196850393700787,"duration":0.3215808749999667},{"name":"A#4","midi":70,"time":149.63126062499833,"velocity":0.5118110236220472,"duration":0.2275638749999871},{"name":"F4","midi":65,"time":149.64621787499834,"velocity":0.3779527559055118,"duration":1.0224348749998171},{"name":"A4","midi":69,"time":149.86950824999832,"velocity":0.49606299212598426,"duration":0.08653837499997508},{"name":"A#4","midi":70,"time":149.9923713749983,"velocity":0.4881889763779528,"duration":0.04380337499998177},{"name":"A4","midi":69,"time":150.05540549999827,"velocity":0.5118110236220472,"duration":0.04594012499998712},{"name":"A#4","midi":70,"time":150.13767037499827,"velocity":0.5433070866141733,"duration":0.03632475000000568},{"name":"C4","midi":60,"time":150.14514899999827,"velocity":0.33070866141732286,"duration":0.2329057499999294},{"name":"F3","midi":53,"time":150.15476437499828,"velocity":0.2677165354330709,"duration":0.2681621249999182},{"name":"A4","midi":69,"time":150.19215749999825,"velocity":0.49606299212598426,"duration":0.044871749999998656},{"name":"A#4","midi":70,"time":150.27335399999822,"velocity":0.5354330708661418,"duration":0.058760624999990796},{"name":"A4","midi":69,"time":150.32356762499822,"velocity":0.5511811023622047,"duration":0.10042724999996722},{"name":"A4","midi":69,"time":150.46993499999817,"velocity":0.3543307086614173,"duration":0.39743549999997185},{"name":"G4","midi":67,"time":150.64835362499818,"velocity":0.6141732283464567,"duration":0.5811959999999488},{"name":"E3","midi":52,"time":150.65903737499818,"velocity":0.33070866141732286,"duration":0.29914499999995314},{"name":"C#4","midi":61,"time":150.66758437499817,"velocity":0.3779527559055118,"duration":0.31410224999996217},{"name":"E3","midi":52,"time":151.17078899999814,"velocity":0.31496062992125984,"duration":0.10790587500000015},{"name":"C#4","midi":61,"time":151.19429324999814,"velocity":0.31496062992125984,"duration":0.10363237499998945},{"name":"F4","midi":65,"time":151.20818212499813,"velocity":0.6220472440944882,"duration":0.20512800000000198},{"name":"F3","midi":53,"time":151.74130124999814,"velocity":0.2440944881889764,"duration":0.4358970000000113},{"name":"A3","midi":57,"time":151.76801062499814,"velocity":0.2755905511811024,"duration":0.39529875000002335},{"name":"D3","midi":50,"time":151.77762599999815,"velocity":0.29133858267716534,"duration":0.37927312500002586},{"name":"D4","midi":62,"time":151.78296787499815,"velocity":0.25196850393700787,"duration":0.361110750000023},{"name":"F5","midi":77,"time":151.83745499999816,"velocity":0.6141732283464567,"duration":0.5993583750000084},{"name":"A5","midi":81,"time":151.87377974999816,"velocity":0.36220472440944884,"duration":0.30341849999999226},{"name":"F3","midi":53,"time":152.37484762499815,"velocity":0.3464566929133858,"duration":0.2393160000000023},{"name":"D3","midi":50,"time":152.38766812499816,"velocity":0.28346456692913385,"duration":0.23290574999998626},{"name":"A5","midi":81,"time":152.38980487499816,"velocity":0.3779527559055118,"duration":0.3568372499999555},{"name":"A3","midi":57,"time":152.39621512499815,"velocity":0.25984251968503935,"duration":0.14102550000001202},{"name":"D4","midi":62,"time":152.42933474999816,"velocity":0.14173228346456693,"duration":0.07051275000000601},{"name":"F5","midi":77,"time":152.66117212499813,"velocity":0.5275590551181102,"duration":0.10042724999999564},{"name":"C3","midi":48,"time":152.94429149999812,"velocity":0.3543307086614173,"duration":0.30341849999999226},{"name":"E5","midi":76,"time":152.95177012499812,"velocity":0.6299212598425197,"duration":0.519230250000021},{"name":"A3","midi":57,"time":152.9581803749981,"velocity":0.25984251968503935,"duration":0.2820509999999956},{"name":"D3","midi":50,"time":152.9645906249981,"velocity":0.2992125984251969,"duration":0.2831193750000125},{"name":"F5","midi":77,"time":152.9998469999981,"velocity":0.3543307086614173,"duration":0.33226462500002185},{"name":"A5","midi":81,"time":153.0212144999981,"velocity":0.31496062992125984,"duration":0.3344013750000272},{"name":"C3","midi":48,"time":153.50091487499813,"velocity":0.2677165354330709,"duration":0.12927337499996838},{"name":"D3","midi":50,"time":153.52655587499814,"velocity":0.33858267716535434,"duration":0.07905974999997056},{"name":"A3","midi":57,"time":153.53296612499813,"velocity":0.2992125984251969,"duration":0.1089742499999602},{"name":"D5","midi":74,"time":153.5393763749981,"velocity":0.6299212598425197,"duration":0.2927347499999655},{"name":"A5","midi":81,"time":153.57035924999812,"velocity":0.36220472440944884,"duration":0.2980766249999647},{"name":"F5","midi":77,"time":153.79578637499807,"velocity":0.5039370078740157,"duration":0.13141012500000215},{"name":"A3","midi":57,"time":154.06715362499807,"velocity":0.30708661417322836,"duration":0.25213649999997756},{"name":"D3","midi":50,"time":154.07035874999806,"velocity":0.3228346456692913,"duration":0.35149537500001315},{"name":"A#2","midi":46,"time":154.07035874999806,"velocity":0.33070866141732286,"duration":0.3141022499999906},{"name":"D5","midi":74,"time":154.09279462499808,"velocity":0.5905511811023622,"duration":1.4209387499999195},{"name":"F5","midi":77,"time":154.10454674999806,"velocity":0.47244094488188976,"duration":0.21367499999999495},{"name":"A5","midi":81,"time":154.11202537499807,"velocity":0.49606299212598426,"duration":0.2820509999999956},{"name":"A#2","midi":46,"time":154.6804008749981,"velocity":0.2992125984251969,"duration":0.36858937499991384},{"name":"A#5","midi":82,"time":154.6921529999981,"velocity":0.49606299212598426,"duration":0.2735039999999458},{"name":"G5","midi":79,"time":154.69322137499807,"velocity":0.4251968503937008,"duration":0.31089712499993993},{"name":"G3","midi":55,"time":154.69642649999807,"velocity":0.2992125984251969,"duration":0.32264924999995515},{"name":"D3","midi":50,"time":154.70069999999808,"velocity":0.28346456692913385,"duration":0.29166637499994863},{"name":"G5","midi":79,"time":155.255186624998,"velocity":0.44881889763779526,"duration":0.6837599999999782},{"name":"G3","midi":55,"time":155.257323374998,"velocity":0.2992125984251969,"duration":0.24252112499999612},{"name":"D3","midi":50,"time":155.260528499998,"velocity":0.3228346456692913,"duration":0.31837574999997287},{"name":"A#5","midi":82,"time":155.264801999998,"velocity":0.4566929133858268,"duration":0.6442301249999502},{"name":"A2","midi":45,"time":155.270143874998,"velocity":0.2755905511811024,"duration":0.28739287499996635},{"name":"A2","midi":45,"time":155.84706637499798,"velocity":0.29133858267716534,"duration":0.08974349999999731},{"name":"F3","midi":53,"time":155.85240824999798,"velocity":0.2992125984251969,"duration":0.13141012500000215},{"name":"D3","midi":50,"time":155.86309199999798,"velocity":0.2755905511811024,"duration":0.22863225000000398},{"name":"F5","midi":77,"time":155.86629712499797,"velocity":0.6141732283464567,"duration":0.19871775000001435},{"name":"D6","midi":86,"time":155.87591249999798,"velocity":0.3858267716535433,"duration":0.10149562500001252},{"name":"A#2","midi":46,"time":156.372706874998,"velocity":0.2677165354330709,"duration":0.369657750000016},{"name":"G2","midi":43,"time":156.37377524999798,"velocity":0.3228346456692913,"duration":0.34829025000001934},{"name":"G3","midi":55,"time":156.435740999998,"velocity":0.25196850393700787,"duration":0.27243562500001417},{"name":"E5","midi":76,"time":156.448561499998,"velocity":0.5748031496062992,"duration":0.42200812500001916},{"name":"A#4","midi":70,"time":156.490228124998,"velocity":0.3858267716535433,"duration":0.28098262500000715},{"name":"A#2","midi":46,"time":156.98702249999803,"velocity":0.29133858267716534,"duration":0.24999975000002905},{"name":"F5","midi":77,"time":156.99022762499803,"velocity":0.6141732283464567,"duration":0.2318373750000262},{"name":"A#4","midi":70,"time":157.00945837499805,"velocity":0.4566929133858268,"duration":0.03952987499999949},{"name":"G2","midi":43,"time":157.01159512499805,"velocity":0.1889763779527559,"duration":0.18910237500000449},{"name":"G3","midi":55,"time":157.02548399999804,"velocity":0.16535433070866143,"duration":0.14209387500000048},{"name":"G5","midi":79,"time":157.25091112499805,"velocity":0.6220472440944882,"duration":0.07799137500001052},{"name":"G4","midi":67,"time":157.27334699999807,"velocity":0.4881889763779528,"duration":0.17735024999998927},{"name":"A#2","midi":46,"time":157.52441512499806,"velocity":0.33858267716535434,"duration":0.26068349999997054},{"name":"G3","midi":55,"time":157.55005612499806,"velocity":0.2440944881889764,"duration":0.26495699999998124},{"name":"E5","midi":76,"time":157.56180824999805,"velocity":0.5354330708661418,"duration":0.3450851249999687},{"name":"A#4","midi":70,"time":157.56501337499805,"velocity":0.47244094488188976,"duration":0.31410224999996217},{"name":"G2","midi":43,"time":157.56821849999804,"velocity":0.23622047244094488,"duration":0.2553416249999998},{"name":"A#2","midi":46,"time":158.094927374998,"velocity":0.3464566929133858,"duration":0.49358925000001364},{"name":"G2","midi":43,"time":158.105611124998,"velocity":0.30708661417322836,"duration":0.29914499999998156},{"name":"G3","midi":55,"time":158.114158124998,"velocity":0.2755905511811024,"duration":0.0822648749999928},{"name":"D5","midi":74,"time":158.118431624998,"velocity":0.5826771653543307,"duration":0.25640999999998826},{"name":"A#4","midi":70,"time":158.130183749998,"velocity":0.48031496062992124,"duration":0.2895296250000001},{"name":"G4","midi":67,"time":158.367362999998,"velocity":0.5118110236220472,"duration":0.11965800000001536},{"name":"E3","midi":52,"time":158.65368749999803,"velocity":0.31496062992125984,"duration":0.3589739999999324},{"name":"A2","midi":45,"time":158.66009774999802,"velocity":0.2755905511811024,"duration":0.3525637499999448},{"name":"C#5","midi":73,"time":158.67078149999801,"velocity":0.5905511811023622,"duration":0.7777769999999293},{"name":"G4","midi":67,"time":158.687875499998,"velocity":0.3700787401574803,"duration":0.6933753749999312},{"name":"A2","midi":45,"time":159.23167837499793,"velocity":0.2755905511811024,"duration":0.24893137500001217},{"name":"E5","midi":76,"time":159.24129374999794,"velocity":0.5590551181102362,"duration":0.252136500000006},{"name":"E3","midi":52,"time":159.24343049999794,"velocity":0.2283464566929134,"duration":0.2852561249999894},{"name":"G2","midi":43,"time":159.84919912499794,"velocity":0.29133858267716534,"duration":0.23611087499995165},{"name":"E3","midi":52,"time":159.85026749999793,"velocity":0.2755905511811024,"duration":0.27991424999996184},{"name":"B4","midi":71,"time":159.85454099999794,"velocity":0.6141732283464567,"duration":0.36858937499994227},{"name":"C#3","midi":49,"time":159.87270337499794,"velocity":0.2755905511811024,"duration":0.27136724999994044},{"name":"C#5","midi":73,"time":159.88231874999795,"velocity":0.4881889763779528,"duration":0.3119654999999284},{"name":"E5","midi":76,"time":159.88659224999796,"velocity":0.4566929133858268,"duration":0.29059799999993174},{"name":"A4","midi":69,"time":160.4538993749979,"velocity":0.6299212598425197,"duration":0.23717924999999696},{"name":"E3","midi":52,"time":160.4667198749979,"velocity":0.36220472440944884,"duration":0.09508537499999647},{"name":"G2","midi":43,"time":160.46778824999788,"velocity":0.3700787401574803,"duration":0.13461524999999597},{"name":"A5","midi":81,"time":160.4699249999979,"velocity":0.5354330708661418,"duration":0.2553416249999998},{"name":"C#3","midi":49,"time":160.48381387499788,"velocity":0.29133858267716534,"duration":0.10256400000000099},{"name":"F#2","midi":42,"time":161.0383004999979,"velocity":0.29133858267716534,"duration":0.40277737500002786},{"name":"D3","midi":50,"time":161.05005262499787,"velocity":0.28346456692913385,"duration":0.36431587500004525},{"name":"C5","midi":72,"time":161.0885141249979,"velocity":0.5748031496062992,"duration":1.8012802499999907},{"name":"A5","midi":81,"time":161.13445424999787,"velocity":0.33858267716535434,"duration":0.3771363750000205},{"name":"D#5","midi":75,"time":161.13765937499787,"velocity":0.44881889763779526,"duration":0.3108971250000252},{"name":"A5","midi":81,"time":161.68146224999788,"velocity":0.4330708661417323,"duration":0.18376050000000532},{"name":"F#2","midi":42,"time":161.6910776249979,"velocity":0.23622047244094488,"duration":0.20940149999998425},{"name":"D#5","midi":75,"time":161.7038981249979,"velocity":0.4330708661417323,"duration":0.11538450000000466},{"name":"D3","midi":50,"time":161.7092399999979,"velocity":0.2677165354330709,"duration":0.1955126249999921},{"name":"F#5","midi":78,"time":161.94748762499788,"velocity":0.4645669291338583,"duration":0.09188025000000266},{"name":"A5","midi":81,"time":162.23381212499788,"velocity":0.44881889763779526,"duration":0.36752100000001064},{"name":"D2","midi":38,"time":162.2359488749979,"velocity":0.30708661417322836,"duration":0.3258543750000058},{"name":"F#5","midi":78,"time":162.2359488749979,"velocity":0.36220472440944884,"duration":0.32051250000000664},{"name":"D3","midi":50,"time":162.24983774999788,"velocity":0.2283464566929134,"duration":0.3215808750000235},{"name":"A5","midi":81,"time":162.7957773749979,"velocity":0.3779527559055118,"duration":0.2467946249999784},{"name":"D3","midi":50,"time":162.8032559999979,"velocity":0.11023622047244094,"duration":0.2692304999999635},{"name":"D2","midi":38,"time":162.8118029999979,"velocity":0.25196850393700787,"duration":0.26068349999997054},{"name":"F#5","midi":78,"time":162.8203499999979,"velocity":0.4015748031496063,"duration":0.06410249999998996},{"name":"F#5","midi":78,"time":163.06714462499787,"velocity":0.4330708661417323,"duration":0.08333325000000968},{"name":"D5","midi":74,"time":163.07034974999786,"velocity":0.4251968503937008,"duration":0.575854124999978},{"name":"F#5","midi":78,"time":163.32141787499788,"velocity":0.3937007874015748,"duration":0.2542732499999545},{"name":"A5","midi":81,"time":163.32462299999787,"velocity":0.47244094488188976,"duration":0.20512799999997355},{"name":"G2","midi":43,"time":163.33530674999787,"velocity":0.3228346456692913,"duration":0.2553416249999714},{"name":"D3","midi":50,"time":163.34278537499787,"velocity":0.11023622047244094,"duration":0.27136724999996886},{"name":"G2","midi":43,"time":163.92184462499785,"velocity":0.29133858267716534,"duration":0.2499997499999722},{"name":"A#5","midi":82,"time":163.92932324999785,"velocity":0.48031496062992124,"duration":0.17521349999998392},{"name":"G5","midi":79,"time":163.94321212499784,"velocity":0.3858267716535433,"duration":0.17735024999998927},{"name":"D3","midi":50,"time":164.00945137499784,"velocity":0.09448818897637795,"duration":0.10042724999999564},{"name":"F2","midi":41,"time":164.5019722499978,"velocity":0.28346456692913385,"duration":0.26709374999992974},{"name":"A#4","midi":70,"time":164.5083824999978,"velocity":0.5433070866141733,"duration":0.18162374999994313},{"name":"A#5","midi":82,"time":164.52547649999778,"velocity":0.47244094488188976,"duration":0.16880324999996787},{"name":"G5","midi":79,"time":164.54150212499778,"velocity":0.3779527559055118,"duration":0.08760674999999196},{"name":"D3","midi":50,"time":164.5457756249978,"velocity":0.16535433070866143,"duration":0.24786299999993844},{"name":"C5","midi":72,"time":165.08423662499771,"velocity":0.5905511811023622,"duration":0.08119649999997591},{"name":"D6","midi":86,"time":165.0906468749977,"velocity":0.5275590551181102,"duration":0.060897374999996146},{"name":"F2","midi":41,"time":165.1034673749977,"velocity":0.2992125984251969,"duration":0.11538450000000466},{"name":"D3","midi":50,"time":165.1162878749977,"velocity":0.2677165354330709,"duration":0.06944437499998912},{"name":"A4","midi":69,"time":165.36308249999772,"velocity":0.44881889763779526,"duration":0.044871749999998656},{"name":"G5","midi":79,"time":165.6900052499977,"velocity":0.4566929133858268,"duration":0.3696577499999876},{"name":"A#4","midi":70,"time":165.7017573749977,"velocity":0.5511811023622047,"duration":0.3643158749999884},{"name":"C6","midi":84,"time":165.7038941249977,"velocity":0.44881889763779526,"duration":0.3023501250000038},{"name":"E2","midi":40,"time":165.7135094999977,"velocity":0.25984251968503935,"duration":0.26068349999999896},{"name":"C3","midi":48,"time":165.7220564999977,"velocity":0.23622047244094488,"duration":0.2617518749999874},{"name":"C3","midi":48,"time":166.24876537499767,"velocity":0.14960629921259844,"duration":0.20726475000000733},{"name":"E2","midi":40,"time":166.25944912499767,"velocity":0.2440944881889764,"duration":0.173076750000007},{"name":"C6","midi":84,"time":166.26265424999767,"velocity":0.3858267716535433,"duration":0.15918787500001486},{"name":"G5","midi":79,"time":166.27013287499767,"velocity":0.4409448818897638,"duration":0.06944437500001754},{"name":"G5","midi":79,"time":166.55325224999768,"velocity":0.44881889763779526,"duration":0.05555549999999698},{"name":"E5","midi":76,"time":166.56393599999768,"velocity":0.4330708661417323,"duration":0.10683750000001169},{"name":"C2","midi":36,"time":166.8075254999977,"velocity":0.3228346456692913,"duration":0.2596151250000105},{"name":"E5","midi":76,"time":166.8310297499977,"velocity":0.4566929133858268,"duration":0.22756387500001551},{"name":"G5","midi":79,"time":166.8385083749977,"velocity":0.4251968503937008,"duration":0.2040596250000135},{"name":"C3","midi":48,"time":166.8694912499977,"velocity":0.13385826771653545,"duration":0.22435874999999328},{"name":"G5","midi":79,"time":167.3801744999977,"velocity":0.4409448818897638,"duration":0.19871774999998593},{"name":"E5","midi":76,"time":167.4100889999977,"velocity":0.3700787401574803,"duration":0.07692299999999364},{"name":"C2","midi":36,"time":167.4229094999977,"velocity":0.23622047244094488,"duration":0.28418775000000096},{"name":"C3","midi":48,"time":167.4410718749977,"velocity":0.08661417322834646,"duration":0.24572624999998993},{"name":"E5","midi":76,"time":167.6440631249977,"velocity":0.4015748031496063,"duration":0.09188025000000266},{"name":"C5","midi":72,"time":167.6729092499977,"velocity":0.3858267716535433,"duration":0.5523498750000613},{"name":"F2","midi":41,"time":167.94534487499772,"velocity":0.3228346456692913,"duration":0.29700825000003306},{"name":"G5","midi":79,"time":167.95282349999772,"velocity":0.3937007874015748,"duration":0.20726475000003575},{"name":"E5","midi":76,"time":167.95709699999773,"velocity":0.3228346456692913,"duration":0.21046987500002956},{"name":"C3","midi":48,"time":167.99021662499774,"velocity":0.1732283464566929,"duration":0.27350400000000263},{"name":"A4","midi":69,"time":168.54042974999777,"velocity":0.47244094488188976,"duration":0.26068349999997054},{"name":"F2","midi":41,"time":168.54363487499776,"velocity":0.2992125984251969,"duration":0.10790587499997173},{"name":"A5","midi":81,"time":168.55859212499777,"velocity":0.3779527559055118,"duration":0.18696562499997071},{"name":"F5","midi":77,"time":168.57568612499776,"velocity":0.3700787401574803,"duration":0.20192287499997974},{"name":"C3","midi":48,"time":168.57675449999775,"velocity":0.2755905511811024,"duration":0.11965799999998694},{"name":"F2","midi":41,"time":169.12483087499774,"velocity":0.29133858267716534,"duration":0.2499997499999722},{"name":"F5","midi":77,"time":169.13658299999776,"velocity":0.4015748031496063,"duration":0.22115362499997104},{"name":"A4","midi":69,"time":169.13765137499774,"velocity":0.4566929133858268,"duration":0.26388862499996435},{"name":"F3","midi":53,"time":169.14085649999774,"velocity":0.2283464566929134,"duration":0.2895296249999717},{"name":"A5","midi":81,"time":169.14940349999773,"velocity":0.3779527559055118,"duration":0.22115362499997104},{"name":"C6","midi":84,"time":169.75624049999772,"velocity":0.3464566929133858,"duration":0.13034174999998527},{"name":"A5","midi":81,"time":169.7626507499977,"velocity":0.33070866141732286,"duration":0.1292733749999968},{"name":"F2","midi":41,"time":169.7808131249977,"velocity":0.23622047244094488,"duration":0.16666649999999095},{"name":"F3","midi":53,"time":169.7893601249977,"velocity":0.15748031496062992,"duration":0.18376050000000532},{"name":"D#5","midi":75,"time":170.5543166249977,"velocity":0.4645669291338583,"duration":2.864313374999881},{"name":"F3","midi":53,"time":170.5596584999977,"velocity":0.18110236220472442,"duration":0.337606500000021},{"name":"F2","midi":41,"time":170.5596584999977,"velocity":0.25196850393700787,"duration":0.36004237500000613},{"name":"A4","midi":69,"time":170.5724789999977,"velocity":0.30708661417322836,"duration":0.3920936250000011},{"name":"C5","midi":72,"time":170.57461574999772,"velocity":0.30708661417322836,"duration":0.3760680000000036},{"name":"C5","midi":72,"time":171.1654271249977,"velocity":0.3700787401574803,"duration":0.15170924999998192},{"name":"A4","midi":69,"time":171.1686322499977,"velocity":0.29133858267716534,"duration":0.13461524999999597},{"name":"F2","midi":41,"time":171.2028202499977,"velocity":0.1889763779527559,"duration":0.23611087499998007},{"name":"F3","midi":53,"time":171.2284612499977,"velocity":0.07086614173228346,"duration":0.17307674999997857},{"name":"A4","midi":69,"time":171.42824737499768,"velocity":0.36220472440944884,"duration":0.10042724999999564},{"name":"F4","midi":65,"time":171.44747812499767,"velocity":0.23622047244094488,"duration":0.13888875000000667},{"name":"F2","midi":41,"time":171.72632399999767,"velocity":0.18110236220472442,"duration":0.1805553749999831},{"name":"C5","midi":72,"time":171.73487099999767,"velocity":0.3543307086614173,"duration":0.1923074999999983},{"name":"A4","midi":69,"time":171.74341799999766,"velocity":0.31496062992125984,"duration":0.17841862500000616},{"name":"F3","midi":53,"time":171.74875987499766,"velocity":0.047244094488188976,"duration":0.13782037499998978},{"name":"F2","midi":41,"time":172.27867387499768,"velocity":0.2204724409448819,"duration":0.26388862499996435},{"name":"A4","midi":69,"time":172.27974224999767,"velocity":0.3700787401574803,"duration":0.08012812499998745},{"name":"F3","midi":53,"time":172.29683624999765,"velocity":0.14960629921259844,"duration":0.25640999999998826},{"name":"C5","midi":72,"time":172.30004137499765,"velocity":0.36220472440944884,"duration":0.14743574999999964},{"name":"A4","midi":69,"time":172.55004112499765,"velocity":0.4645669291338583,"duration":0.09935887500000717},{"name":"F4","midi":65,"time":172.57781887499763,"velocity":0.25984251968503935,"duration":0.04380337500001019},{"name":"C5","midi":72,"time":172.82888699999765,"velocity":0.41732283464566927,"duration":0.3952987499999381},{"name":"A#2","midi":46,"time":172.83422887499765,"velocity":0.2992125984251969,"duration":0.2970082499999478},{"name":"F3","midi":53,"time":172.84811774999764,"velocity":0.23622047244094488,"duration":0.3867517499999451},{"name":"A4","midi":69,"time":172.84918612499763,"velocity":0.25984251968503935,"duration":0.39316199999996115},{"name":"D5","midi":74,"time":173.4175616249976,"velocity":0.5039370078740157,"duration":0.25106812499993225},{"name":"A#4","midi":70,"time":173.42183512499759,"velocity":0.3937007874015748,"duration":0.1869656249999423},{"name":"F3","midi":53,"time":173.44320262499758,"velocity":0.2283464566929134,"duration":0.24358949999995616},{"name":"A#2","midi":46,"time":173.44427099999757,"velocity":0.29133858267716534,"duration":0.2457262499999615},{"name":"A#2","midi":46,"time":173.94106537499755,"velocity":0.30708661417322836,"duration":0.3461534999999287},{"name":"F3","midi":53,"time":173.94427049999754,"velocity":0.2992125984251969,"duration":0.6463668749998988},{"name":"D5","midi":74,"time":173.96777474999752,"velocity":0.5354330708661418,"duration":0.31089712499996836},{"name":"A#4","midi":70,"time":173.99127899999752,"velocity":0.3779527559055118,"duration":0.3867517499999451},{"name":"F5","midi":77,"time":174.54790237499745,"velocity":0.5433070866141733,"duration":0.27564074999995114},{"name":"D5","midi":74,"time":174.55431262499744,"velocity":0.4094488188976378,"duration":0.18269212499998844},{"name":"D3","midi":50,"time":174.55965449999744,"velocity":0.3543307086614173,"duration":0.5576917499999752},{"name":"A#2","midi":46,"time":174.56606474999742,"velocity":0.29133858267716534,"duration":0.2970082499999762},{"name":"E5","midi":76,"time":174.8128593749974,"velocity":0.5669291338582677,"duration":0.12820500000000834},{"name":"G2","midi":43,"time":175.0938419999974,"velocity":0.30708661417322836,"duration":0.3301278750000165},{"name":"G3","midi":55,"time":175.0959787499974,"velocity":0.29133858267716534,"duration":0.33974324999999794},{"name":"F5","midi":77,"time":175.11414112499742,"velocity":0.5433070866141733,"duration":2.62179224999997},{"name":"B4","midi":71,"time":175.12161974999742,"velocity":0.4330708661417323,"duration":0.30021337499999845},{"name":"D5","midi":74,"time":175.12589324999743,"velocity":0.4094488188976378,"duration":0.27564074999997956},{"name":"D5","midi":74,"time":175.69106362499738,"velocity":0.4645669291338583,"duration":0.22542712500001016},{"name":"B4","midi":71,"time":175.70708924999738,"velocity":0.4330708661417323,"duration":0.10470075000000634},{"name":"G2","midi":43,"time":175.71349949999737,"velocity":0.28346456692913385,"duration":0.2521365000000344},{"name":"G3","midi":55,"time":175.71884137499737,"velocity":0.2204724409448819,"duration":0.27029887500003724},{"name":"B4","midi":71,"time":175.9389266249974,"velocity":0.4566929133858268,"duration":0.09508537499999647},{"name":"G4","midi":67,"time":175.9581573749974,"velocity":0.3700787401574803,"duration":0.05876062500001922},{"name":"D5","midi":74,"time":176.2209776249974,"velocity":0.47244094488188976,"duration":0.26068349999999896},{"name":"B4","midi":71,"time":176.2241827499974,"velocity":0.4094488188976378,"duration":0.25427325000001133},{"name":"G2","midi":43,"time":176.2295246249974,"velocity":0.30708661417322836,"duration":0.2478630000000237},{"name":"G3","midi":55,"time":176.2348664999974,"velocity":0.1732283464566929,"duration":0.2596151250000105},{"name":"G2","midi":43,"time":176.78080612499738,"velocity":0.3543307086614173,"duration":0.3568372500000123},{"name":"B4","midi":71,"time":176.78187449999737,"velocity":0.48031496062992124,"duration":0.149572500000005},{"name":"G3","midi":55,"time":176.79469499999738,"velocity":0.28346456692913385,"duration":0.28952962500002855},{"name":"D5","midi":74,"time":176.81285737499738,"velocity":0.4251968503937008,"duration":0.10363237499998945},{"name":"B4","midi":71,"time":177.0276007499974,"velocity":0.4015748031496063,"duration":0.08226487500002122},{"name":"G4","midi":67,"time":177.0767459999974,"velocity":0.2047244094488189,"duration":0.05235037500000317},{"name":"C3","midi":48,"time":177.3107201249974,"velocity":0.31496062992125984,"duration":0.3301278749999881},{"name":"D5","midi":74,"time":177.3256773749974,"velocity":0.48031496062992124,"duration":0.24358949999998458},{"name":"B4","midi":71,"time":177.3363611249974,"velocity":0.31496062992125984,"duration":0.21688012499998877},{"name":"G3","midi":55,"time":177.33849787499742,"velocity":0.18110236220472442,"duration":0.31196549999998524},{"name":"E5","midi":76,"time":177.8983263749974,"velocity":0.5748031496062992,"duration":0.24145274999997923},{"name":"C3","midi":48,"time":177.90473662499738,"velocity":0.3543307086614173,"duration":0.23717924999999696},{"name":"G3","midi":55,"time":177.90794174999738,"velocity":0.2677165354330709,"duration":0.2617518749999874},{"name":"C5","midi":72,"time":177.90794174999738,"velocity":0.4409448818897638,"duration":0.22970062499999244},{"name":"C3","midi":48,"time":178.45388137499737,"velocity":0.30708661417322836,"duration":0.3568372500000123},{"name":"E5","midi":76,"time":178.47631724999738,"velocity":0.5826771653543307,"duration":0.3835466249999797},{"name":"G3","midi":55,"time":178.48379587499738,"velocity":0.2125984251968504,"duration":0.37499962499998674},{"name":"C5","midi":72,"time":178.49234287499738,"velocity":0.4094488188976378,"duration":0.78098212499998},{"name":"G5","midi":79,"time":179.03614574999736,"velocity":0.5984251968503937,"duration":0.2542732499999829},{"name":"C3","midi":48,"time":179.04362437499736,"velocity":0.3464566929133858,"duration":0.1923074999999983},{"name":"E5","midi":76,"time":179.05003462499735,"velocity":0.4566929133858268,"duration":0.2168801250000172},{"name":"G3","midi":55,"time":179.06606024999735,"velocity":0.2283464566929134,"duration":0.19764937500002588},{"name":"C3","midi":48,"time":179.62268362499734,"velocity":0.28346456692913385,"duration":0.35470049999997855},{"name":"A#2","midi":46,"time":179.63123062499733,"velocity":0.31496062992125984,"duration":0.35576887499999543},{"name":"G3","midi":55,"time":179.65793999999732,"velocity":0.2755905511811024,"duration":0.31517062499997905},{"name":"E5","midi":76,"time":179.67823912499733,"velocity":0.6299212598425197,"duration":0.8279906250000124},{"name":"G5","midi":79,"time":179.68678612499733,"velocity":0.5275590551181102,"duration":0.26388862499999277},{"name":"A#2","midi":46,"time":180.25088812499732,"velocity":0.2755905511811024,"duration":0.3493586250000362},{"name":"G5","midi":79,"time":180.25622999999732,"velocity":0.44881889763779526,"duration":0.28205100000002403},{"name":"G3","midi":55,"time":180.28400774999733,"velocity":0.25196850393700787,"duration":0.20726475000000733},{"name":"C3","midi":48,"time":180.30003337499733,"velocity":0.18110236220472442,"duration":0.27777750000001333},{"name":"C5","midi":72,"time":180.53934937499733,"velocity":0.4566929133858268,"duration":0.07799137500001052},{"name":"C3","midi":48,"time":180.83528924999734,"velocity":0.30708661417322836,"duration":0.34615349999998557},{"name":"D5","midi":74,"time":180.84490462499735,"velocity":0.6062992125984252,"duration":0.6559822499999939},{"name":"A2","midi":45,"time":180.86306699999736,"velocity":0.2992125984251969,"duration":0.2938031249999824},{"name":"F3","midi":53,"time":180.86947724999735,"velocity":0.29133858267716534,"duration":0.29914499999998156},{"name":"F5","midi":77,"time":180.87375074999736,"velocity":0.4566929133858268,"duration":0.2980766249999647},{"name":"A5","midi":81,"time":180.88229774999735,"velocity":0.3700787401574803,"duration":0.2510681250000175},{"name":"C5","midi":72,"time":181.44426299999733,"velocity":0.6299212598425197,"duration":0.275640750000008},{"name":"C3","midi":48,"time":181.44533137499732,"velocity":0.28346456692913385,"duration":0.14743575000002807},{"name":"F3","midi":53,"time":181.44746812499733,"velocity":0.2755905511811024,"duration":0.09829050000001871},{"name":"A2","midi":45,"time":181.44960487499733,"velocity":0.3228346456692913,"duration":0.10149562500001252},{"name":"A5","midi":81,"time":181.47204074999735,"velocity":0.4566929133858268,"duration":0.21901687499999412},{"name":"F5","midi":77,"time":181.71776699999734,"velocity":0.47244094488188976,"duration":0.08012812500001587},{"name":"G2","midi":43,"time":182.01477524999734,"velocity":0.28346456692913385,"duration":0.2841877499999441},{"name":"A#4","midi":70,"time":182.02866412499733,"velocity":0.5511811023622047,"duration":0.3311962499999481},{"name":"A#5","midi":82,"time":182.03400599999733,"velocity":0.5354330708661418,"duration":0.23397412499997472},{"name":"E3","midi":52,"time":182.03614274999734,"velocity":0.2440944881889764,"duration":0.31089712499996836},{"name":"C3","midi":48,"time":182.04896324999734,"velocity":0.2283464566929134,"duration":0.30982874999995147},{"name":"E5","midi":76,"time":182.06605724999733,"velocity":0.33070866141732286,"duration":0.37713637499996366},{"name":"E3","midi":52,"time":182.6066549999973,"velocity":0.1968503937007874,"duration":0.22222199999998793},{"name":"C3","midi":48,"time":182.60986012499728,"velocity":0.15748031496062992,"duration":0.21688012499998877},{"name":"G2","midi":43,"time":182.6141336249973,"velocity":0.25196850393700787,"duration":0.20192287499997974},{"name":"C6","midi":84,"time":182.62588574999728,"velocity":0.4409448818897638,"duration":0.11752125000001001},{"name":"G5","midi":79,"time":182.6301592499973,"velocity":0.3779527559055118,"duration":0.1452989999999943},{"name":"G2","midi":43,"time":183.1963979999973,"velocity":0.25984251968503935,"duration":0.36752100000001064},{"name":"E3","midi":52,"time":183.2070817499973,"velocity":0.2283464566929134,"duration":0.4166662499999916},{"name":"C3","midi":48,"time":183.2113552499973,"velocity":0.23622047244094488,"duration":0.37393124999999827},{"name":"A4","midi":69,"time":183.21776549999728,"velocity":0.5826771653543307,"duration":0.3846149999999966},{"name":"A#5","midi":82,"time":183.2220389999973,"velocity":0.4566929133858268,"duration":0.7617513749999603},{"name":"E5","midi":76,"time":183.2316543749973,"velocity":0.4330708661417323,"duration":0.39316199999996115},{"name":"E3","midi":52,"time":183.86413237499727,"velocity":0.23622047244094488,"duration":0.3066236249999861},{"name":"G2","midi":43,"time":183.87267937499726,"velocity":0.25984251968503935,"duration":0.30341849999999226},{"name":"C3","midi":48,"time":183.90152549999726,"velocity":0.1889763779527559,"duration":0.25640999999998826},{"name":"E5","midi":76,"time":183.90259387499725,"velocity":0.4645669291338583,"duration":0.2318373749999978},{"name":"A#4","midi":70,"time":183.90259387499725,"velocity":0.5511811023622047,"duration":0.196581000000009},{"name":"G4","midi":67,"time":184.23913199999726,"velocity":0.6141732283464567,"duration":0.14423062500000583},{"name":"A2","midi":45,"time":184.51156762499727,"velocity":0.2992125984251969,"duration":0.434828624999966},{"name":"F3","midi":53,"time":184.55002912499728,"velocity":0.12598425196850394,"duration":0.38568337499995664},{"name":"C3","midi":48,"time":184.55109749999727,"velocity":0.1732283464566929,"duration":0.379273124999969},{"name":"C5","midi":72,"time":184.58528549999727,"velocity":0.5511811023622047,"duration":0.387820124999962},{"name":"F4","midi":65,"time":184.60451624999726,"velocity":0.33858267716535434,"duration":0.7649564999999541},{"name":"A#4","midi":70,"time":184.91861849999722,"velocity":0.6062992125984252,"duration":0.3215808749999667},{"name":"A2","midi":45,"time":185.1835754999972,"velocity":0.2204724409448819,"duration":0.20192287500000816},{"name":"F3","midi":53,"time":185.1899857499972,"velocity":0.29133858267716534,"duration":0.3386748750000095},{"name":"C3","midi":48,"time":185.1963959999972,"velocity":0.2992125984251969,"duration":0.24038437499999077},{"name":"A4","midi":69,"time":185.1996011249972,"velocity":0.5826771653543307,"duration":0.3087603749999914},{"name":"A#4","midi":70,"time":185.4709683749972,"velocity":0.6299212598425197,"duration":0.26923049999999193},{"name":"C5","midi":72,"time":185.75408774999718,"velocity":0.5354330708661418,"duration":0.28525612499990416},{"name":"F3","midi":53,"time":185.76263474999718,"velocity":0.2992125984251969,"duration":0.32158087499990984},{"name":"A#2","midi":46,"time":185.76583987499717,"velocity":0.25196850393700787,"duration":0.29807662499990784},{"name":"D3","midi":50,"time":185.77011337499718,"velocity":0.25196850393700787,"duration":0.2521364999999207},{"name":"F4","midi":65,"time":185.78400224999717,"velocity":0.28346456692913385,"duration":0.8920931249998887},{"name":"A#4","midi":70,"time":186.04895924999707,"velocity":0.5748031496062992,"duration":0.2660253749999981},{"name":"A#2","midi":46,"time":186.31177949999707,"velocity":0.2204724409448819,"duration":0.48076874999998154},{"name":"C5","midi":72,"time":186.31925812499705,"velocity":0.5511811023622047,"duration":0.3579056250000008},{"name":"D3","midi":50,"time":186.32246324999704,"velocity":0.25196850393700787,"duration":0.5502131249999991},{"name":"F3","midi":53,"time":186.32994187499705,"velocity":0.2047244094488189,"duration":0.7499992499999735},{"name":"D5","midi":74,"time":186.62374499999706,"velocity":0.5354330708661418,"duration":0.13782037499998978},{"name":"C3","midi":48,"time":186.95066774999705,"velocity":0.31496062992125984,"duration":0.40064062499996567},{"name":"A4","midi":69,"time":186.98058224999704,"velocity":0.4409448818897638,"duration":1.2841867499998614},{"name":"C4","midi":60,"time":187.01049674999703,"velocity":0.2677165354330709,"duration":0.3749996249999583},{"name":"F4","midi":65,"time":187.01583862499703,"velocity":0.2755905511811024,"duration":0.35790562499997236},{"name":"F4","midi":65,"time":187.572461999997,"velocity":0.3937007874015748,"duration":0.18589724999998225},{"name":"C3","midi":48,"time":187.57353037499698,"velocity":0.2440944881889764,"duration":0.24786299999996686},{"name":"C4","midi":60,"time":187.57566712499698,"velocity":0.2992125984251969,"duration":0.2190168749999657},{"name":"C2","midi":36,"time":188.21776049999693,"velocity":0.2283464566929134,"duration":0.3557688749999386},{"name":"A#3","midi":58,"time":188.21882887499692,"velocity":0.3464566929133858,"duration":0.491452499999923},{"name":"G4","midi":67,"time":188.21882887499692,"velocity":0.4881889763779528,"duration":0.7596146249999265},{"name":"E4","midi":64,"time":188.2401963749969,"velocity":0.30708661417322836,"duration":0.38782012499993357},{"name":"F4","midi":65,"time":188.94532387499683,"velocity":0.4566929133858268,"duration":0.3023501250000038},{"name":"C2","midi":36,"time":188.97630674999684,"velocity":0.2047244094488189,"duration":0.12820500000000834},{"name":"F2","midi":41,"time":189.63442574999684,"velocity":0.15748031496062992,"duration":2.4871769999998037},{"name":"F4","midi":65,"time":189.63656249999684,"velocity":0.4094488188976378,"duration":2.5074761249997835},{"name":"F3","midi":53,"time":189.64938299999685,"velocity":0.16535433070866143,"duration":0.4070508749999817},{"name":"A3","midi":57,"time":189.65258812499684,"velocity":0.2992125984251969,"duration":2.364313874999823},{"name":"C4","midi":60,"time":189.66861374999684,"velocity":0.25984251968503935,"duration":2.364313874999823},{"name":"F3","midi":53,"time":190.30322849999683,"velocity":0.23622047244094488,"duration":0.22542712499995332},{"name":"F3","midi":53,"time":190.93463812499675,"velocity":0.2440944881889764,"duration":0.22863225000000398},{"name":"F3","midi":53,"time":191.67181687499675,"velocity":0.2125984251968504,"duration":0.2585467499999652},{"name":"A#4","midi":70,"time":193.08207187499661,"velocity":0.3228346456692913,"duration":1.3386738750000404},{"name":"A#2","midi":46,"time":193.0927556249966,"velocity":0.18110236220472442,"duration":0.59829000000002},{"name":"D4","midi":62,"time":193.0938239999966,"velocity":0.2755905511811024,"duration":0.8910247500000423},{"name":"F4","midi":65,"time":193.0980974999966,"velocity":0.2755905511811024,"duration":0.7574778750000348},{"name":"A#1","midi":34,"time":193.10557612499662,"velocity":0.14960629921259844,"duration":0.4519226250000372},{"name":"A#3","midi":58,"time":194.13976312499665,"velocity":0.25196850393700787,"duration":0.29914500000001},{"name":"D4","midi":62,"time":194.95813837499665,"velocity":0.2283464566929134,"duration":0.30128175000001534},{"name":"A#3","midi":58,"time":194.96027512499666,"velocity":0.18110236220472442,"duration":0.2745723749999911},{"name":"F4","midi":65,"time":194.98698449999665,"velocity":0.15748031496062992,"duration":0.26816212500000347},{"name":"D5","midi":74,"time":195.02117249999665,"velocity":0.3937007874015748,"duration":0.6858967500000119},{"name":"A#4","midi":70,"time":195.06604424999665,"velocity":0.15748031496062992,"duration":0.11111099999999396},{"name":"A#3","midi":58,"time":195.60343687499667,"velocity":0.2047244094488189,"duration":0.22329037500000481},{"name":"D4","midi":62,"time":195.61198387499667,"velocity":0.2204724409448819,"duration":0.18376050000000532},{"name":"F4","midi":65,"time":195.61732574999667,"velocity":0.2204724409448819,"duration":0.18696562499999914},{"name":"C5","midi":72,"time":195.63335137499666,"velocity":0.44881889763779526,"duration":0.30769200000000296},{"name":"D#4","midi":63,"time":196.17181237499668,"velocity":0.25196850393700787,"duration":0.37927312499999744},{"name":"G4","midi":67,"time":196.18356449999666,"velocity":0.2125984251968504,"duration":0.3685893749999991},{"name":"A#3","midi":58,"time":196.18570124999667,"velocity":0.2047244094488189,"duration":0.3536321250000185},{"name":"C5","midi":72,"time":196.20386362499667,"velocity":0.4409448818897638,"duration":1.3707251249999501},{"name":"A#4","midi":70,"time":196.25087212499668,"velocity":0.23622047244094488,"duration":0.07905974999999899},{"name":"D#4","midi":63,"time":196.76262374999664,"velocity":0.1889763779527559,"duration":0.28098262500000715},{"name":"A#3","midi":58,"time":196.76903399999662,"velocity":0.2204724409448819,"duration":0.267093750000015},{"name":"A#4","midi":70,"time":196.7882647499966,"velocity":0.23622047244094488,"duration":0.2553416250000282},{"name":"G4","midi":67,"time":196.80108524999662,"velocity":0.1968503937007874,"duration":0.23824762500001384},{"name":"D#4","midi":63,"time":197.35664024999662,"velocity":0.2440944881889764,"duration":0.25747837500000514},{"name":"A#3","midi":58,"time":197.36198212499662,"velocity":0.2283464566929134,"duration":0.2596151250000105},{"name":"A#4","midi":70,"time":197.36411887499662,"velocity":0.23622047244094488,"duration":0.1923074999999983},{"name":"G4","midi":67,"time":197.40578549999663,"velocity":0.14960629921259844,"duration":0.22115362499999947},{"name":"D#4","midi":63,"time":197.93997299999663,"velocity":0.2204724409448819,"duration":0.3547004999999501},{"name":"A#3","midi":58,"time":197.94104137499662,"velocity":0.2204724409448819,"duration":0.3215808749999667},{"name":"D5","midi":74,"time":197.9442464999966,"velocity":0.48031496062992124,"duration":0.2852561249999894},{"name":"A#4","midi":70,"time":197.98270799999662,"velocity":0.2440944881889764,"duration":0.12286312499998076},{"name":"G4","midi":67,"time":197.9891182499966,"velocity":0.15748031496062992,"duration":0.09508537499999647},{"name":"A#4","midi":70,"time":198.1066394999966,"velocity":0.047244094488188976,"duration":0.12820500000000834},{"name":"C4","midi":60,"time":198.53185274999657,"velocity":0.2283464566929134,"duration":0.3888884999999789},{"name":"A3","midi":57,"time":198.54574162499657,"velocity":0.2283464566929134,"duration":0.3611107499999946},{"name":"F4","midi":65,"time":198.57458774999657,"velocity":0.2125984251968504,"duration":0.3301278749999881},{"name":"D#5","midi":75,"time":198.58313474999656,"velocity":0.4881889763779528,"duration":1.2307679999999834},{"name":"C5","midi":72,"time":198.61304924999655,"velocity":0.2755905511811024,"duration":0.3141022499999906},{"name":"C4","midi":60,"time":199.18035637499653,"velocity":0.16535433070866143,"duration":0.28098262500000715},{"name":"A3","midi":57,"time":199.18783499999654,"velocity":0.2283464566929134,"duration":0.2628202500000043},{"name":"C5","midi":72,"time":199.19851874999654,"velocity":0.30708661417322836,"duration":0.252136500000006},{"name":"F4","midi":65,"time":199.22202299999654,"velocity":0.11811023622047244,"duration":0.26495700000000966},{"name":"A3","midi":57,"time":199.78719337499655,"velocity":0.18110236220472442,"duration":0.24572624999998993},{"name":"C4","midi":60,"time":199.79680874999656,"velocity":0.11811023622047244,"duration":0.20940149999998425},{"name":"F4","midi":65,"time":199.80001387499655,"velocity":0.11811023622047244,"duration":0.22115362499999947},{"name":"G5","midi":79,"time":199.80642412499654,"velocity":0.4409448818897638,"duration":0.44871749999998656},{"name":"C5","midi":72,"time":199.82992837499654,"velocity":0.1968503937007874,"duration":0.13461524999999597},{"name":"C4","midi":60,"time":200.34381674999653,"velocity":0.2125984251968504,"duration":0.22970062500002086},{"name":"A3","midi":57,"time":200.37479962499654,"velocity":0.13385826771653545,"duration":0.18803400000001602},{"name":"F5","midi":77,"time":200.40044062499655,"velocity":0.49606299212598426,"duration":0.19764937499999746},{"name":"F4","midi":65,"time":200.41967137499654,"velocity":0.14173228346456693,"duration":0.17200837500001853},{"name":"C5","midi":72,"time":200.44210724999655,"velocity":0.2283464566929134,"duration":0.10256400000000099},{"name":"A#3","midi":58,"time":200.87586749999656,"velocity":0.2440944881889764,"duration":0.35683725000004074},{"name":"D4","midi":62,"time":200.87800424999656,"velocity":0.2283464566929134,"duration":0.35256375000003004},{"name":"F4","midi":65,"time":200.90471362499656,"velocity":0.11811023622047244,"duration":0.3108971250000252},{"name":"D#5","midi":75,"time":200.92928624999655,"velocity":0.4330708661417323,"duration":0.2286322500000324},{"name":"D5","midi":74,"time":201.19210649999658,"velocity":0.3937007874015748,"duration":0.08867512500000885},{"name":"D#5","midi":75,"time":201.3171063749966,"velocity":0.4251968503937008,"duration":0.04594012499998712},{"name":"A#3","midi":58,"time":201.4260806249966,"velocity":0.2755905511811024,"duration":0.22329037499994797},{"name":"D5","midi":74,"time":201.4260806249966,"velocity":0.41732283464566927,"duration":0.04166662499997642},{"name":"D4","midi":62,"time":201.42714899999658,"velocity":0.2440944881889764,"duration":0.21046987499997272},{"name":"F4","midi":65,"time":201.45172162499657,"velocity":0.13385826771653545,"duration":0.1805553749999831},{"name":"D#5","midi":75,"time":201.49766174999655,"velocity":0.4409448818897638,"duration":0.060897374999996146},{"name":"D5","midi":74,"time":201.57992662499655,"velocity":0.3779527559055118,"duration":0.03418800000000033},{"name":"D5","midi":74,"time":201.71347349999655,"velocity":0.4330708661417323,"duration":0.20299124999999663},{"name":"C5","midi":72,"time":201.95599462499655,"velocity":0.4645669291338583,"duration":0.3269227499999374},{"name":"D4","midi":62,"time":201.97308862499654,"velocity":0.2440944881889764,"duration":0.2735039999999458},{"name":"A#3","midi":58,"time":201.97415699999652,"velocity":0.23622047244094488,"duration":0.30662362499995766},{"name":"F4","midi":65,"time":202.0361227499965,"velocity":0.08661417322834646,"duration":0.2264954999999702},{"name":"A#3","midi":58,"time":202.5243701249965,"velocity":0.2283464566929134,"duration":0.2126066250000065},{"name":"A#4","midi":70,"time":202.5286436249965,"velocity":0.47244094488188976,"duration":0.32371762500000045},{"name":"D4","midi":62,"time":202.5596264999965,"velocity":0.28346456692913385,"duration":0.09188025000000266},{"name":"A#2","midi":46,"time":203.1077028749965,"velocity":0.25196850393700787,"duration":0.3504269999999394},{"name":"A#3","midi":58,"time":203.14082249999652,"velocity":0.10236220472440945,"duration":0.2959398749999309},{"name":"D5","midi":74,"time":203.1579164999965,"velocity":0.4409448818897638,"duration":0.317307374999956},{"name":"G4","midi":67,"time":203.1760788749965,"velocity":0.36220472440944884,"duration":0.4070508749999817},{"name":"D4","midi":62,"time":203.1835574999965,"velocity":0.25984251968503935,"duration":0.33760649999996417},{"name":"A#4","midi":70,"time":203.7305654999965,"velocity":0.5196850393700787,"duration":0.2980766249999931},{"name":"G4","midi":67,"time":203.7401808749965,"velocity":0.3228346456692913,"duration":0.23290574999998626},{"name":"A#2","midi":46,"time":203.7497962499965,"velocity":0.2125984251968504,"duration":0.19871774999998593},{"name":"A#3","midi":58,"time":203.7626167499965,"velocity":0.11811023622047244,"duration":0.18589724999998225},{"name":"D4","midi":62,"time":203.77757399999652,"velocity":0.30708661417322836,"duration":0.23717924999996853},{"name":"A#2","midi":46,"time":204.29146237499648,"velocity":0.2440944881889764,"duration":0.3856833750000135},{"name":"A4","midi":69,"time":204.30535124999648,"velocity":0.4566929133858268,"duration":0.41666625000002},{"name":"F4","midi":65,"time":204.3203084999965,"velocity":0.36220472440944884,"duration":0.36431587500001683},{"name":"A#3","midi":58,"time":204.3245819999965,"velocity":0.14960629921259844,"duration":0.3386748750000095},{"name":"D4","midi":62,"time":204.3448811249965,"velocity":0.25196850393700787,"duration":0.33119625000000497},{"name":"G4","midi":67,"time":204.9036412499965,"velocity":0.48031496062992124,"duration":0.2660253749999981},{"name":"D4","midi":62,"time":204.9303506249965,"velocity":0.2755905511811024,"duration":0.19444425000000365},{"name":"F4","midi":65,"time":204.9410343749965,"velocity":0.3543307086614173,"duration":0.18589725000001067},{"name":"A#3","midi":58,"time":204.9431711249965,"velocity":0.2677165354330709,"duration":0.10256399999997257},{"name":"A#2","midi":46,"time":204.9463762499965,"velocity":0.2992125984251969,"duration":0.07478624999998829},{"name":"A#2","midi":46,"time":205.4677432499965,"velocity":0.2283464566929134,"duration":0.3344013749999988},{"name":"G3","midi":55,"time":205.4752218749965,"velocity":0.1889763779527559,"duration":0.3247859999999889},{"name":"C5","midi":72,"time":205.52116199999648,"velocity":0.4881889763779528,"duration":1.449784875000006},{"name":"E4","midi":64,"time":205.54466624999648,"velocity":0.28346456692913385,"duration":0.32264924999998357},{"name":"C4","midi":60,"time":205.5489397499965,"velocity":0.1968503937007874,"duration":0.2660253749999697},{"name":"E4","midi":64,"time":206.09915287499646,"velocity":0.29133858267716534,"duration":0.26495700000000966},{"name":"A#2","midi":46,"time":206.12372549999645,"velocity":0.2440944881889764,"duration":0.20619637500001886},{"name":"G3","midi":55,"time":206.13440924999645,"velocity":0.2283464566929134,"duration":0.20299125000002505},{"name":"C4","midi":60,"time":206.13761437499645,"velocity":0.2125984251968504,"duration":0.2051280000000304},{"name":"F4","midi":65,"time":206.73056249999647,"velocity":0.31496062992125984,"duration":0.290598000000017},{"name":"A3","midi":57,"time":206.73804112499647,"velocity":0.2047244094488189,"duration":0.20299125000002505},{"name":"A2","midi":45,"time":206.73910949999646,"velocity":0.25196850393700787,"duration":0.3023501250000322},{"name":"C4","midi":60,"time":206.74231462499645,"velocity":0.2440944881889764,"duration":0.3472218750000309},{"name":"F4","midi":65,"time":207.3203054999965,"velocity":0.3700787401574803,"duration":0.2553416249999998},{"name":"A#2","midi":46,"time":207.3235106249965,"velocity":0.3228346456692913,"duration":0.5235037500000033},{"name":"D5","midi":74,"time":207.3331259999965,"velocity":0.48031496062992124,"duration":0.19871774999998593},{"name":"G3","midi":55,"time":207.3630404999965,"velocity":0.11811023622047244,"duration":0.7243582499999661},{"name":"A4","midi":69,"time":207.93996299999648,"velocity":0.47244094488188976,"duration":1.0940159999998968},{"name":"C3","midi":48,"time":207.94316812499648,"velocity":0.23622047244094488,"duration":0.2895296249999433},{"name":"F4","midi":65,"time":207.95705699999647,"velocity":0.29133858267716534,"duration":0.11111099999999396},{"name":"C4","midi":60,"time":207.97308262499647,"velocity":0.25984251968503935,"duration":0.2724356249999573},{"name":"F4","midi":65,"time":208.06816799999646,"velocity":0.07874015748031496,"duration":0.22435874999996486},{"name":"F4","midi":65,"time":208.5425264999964,"velocity":0.36220472440944884,"duration":0.18910237499997606},{"name":"C3","midi":48,"time":208.5478683749964,"velocity":0.25196850393700787,"duration":0.07051274999997759},{"name":"C4","midi":60,"time":208.55427862499639,"velocity":0.2755905511811024,"duration":0.21046987500000114},{"name":"A#3","midi":58,"time":209.12372249999638,"velocity":0.31496062992125984,"duration":0.34829024999990565},{"name":"E4","midi":64,"time":209.13440624999637,"velocity":0.3464566929133858,"duration":0.4754268749998971},{"name":"G4","midi":67,"time":209.13547462499636,"velocity":0.4330708661417323,"duration":0.6730762499998946},{"name":"C3","midi":48,"time":209.15150024999636,"velocity":0.1889763779527559,"duration":0.3119654999999284},{"name":"C4","midi":60,"time":209.16325237499635,"velocity":0.18110236220472442,"duration":0.8739307499999143},{"name":"A#3","midi":58,"time":209.73483299999626,"velocity":0.2755905511811024,"duration":0.2788458750000018},{"name":"F4","midi":65,"time":209.74017487499626,"velocity":0.4881889763779528,"duration":0.30769200000000296},{"name":"C3","midi":48,"time":209.74444837499627,"velocity":0.30708661417322836,"duration":0.2318373749999978},{"name":"F3","midi":53,"time":210.32350762499627,"velocity":0.2992125984251969,"duration":0.3803414999999575},{"name":"A3","midi":57,"time":210.33098624999627,"velocity":0.2755905511811024,"duration":0.3985038749999603},{"name":"F4","midi":65,"time":210.33846487499628,"velocity":0.44881889763779526,"duration":2.101493624999904},{"name":"C4","midi":60,"time":210.36090074999626,"velocity":0.31496062992125984,"duration":0.29593987499998775},{"name":"A3","midi":57,"time":210.9602591249962,"velocity":0.2440944881889764,"duration":0.2820509999999672},{"name":"F3","midi":53,"time":210.9762847499962,"velocity":0.2440944881889764,"duration":0.28311937499995565},{"name":"C4","midi":60,"time":210.98910524999621,"velocity":0.25196850393700787,"duration":0.2190168749999657},{"name":"D#3","midi":51,"time":211.59487387499615,"velocity":0.2440944881889764,"duration":0.28525612500001785},{"name":"A3","midi":57,"time":211.61196787499614,"velocity":0.2283464566929134,"duration":0.2991450000000384},{"name":"C4","midi":60,"time":211.62051487499613,"velocity":0.1732283464566929,"duration":0.2564100000000451},{"name":"D#3","midi":51,"time":212.2049159999962,"velocity":0.2125984251968504,"duration":0.3643158749999884},{"name":"A3","midi":57,"time":212.2102578749962,"velocity":0.15748031496062992,"duration":0.2617518749999874},{"name":"C4","midi":60,"time":212.2155997499962,"velocity":0.1968503937007874,"duration":0.2083331249999958},{"name":"D3","midi":50,"time":212.9420947499962,"velocity":0.28346456692913385,"duration":0.28739287499996635},{"name":"F4","midi":65,"time":212.94316312499618,"velocity":0.4645669291338583,"duration":1.0683749999999748},{"name":"A#3","midi":58,"time":212.94850499999617,"velocity":0.2125984251968504,"duration":0.2628202499999759},{"name":"F5","midi":77,"time":212.97094087499616,"velocity":0.28346456692913385,"duration":0.31837574999997287},{"name":"D5","midi":74,"time":212.97307762499617,"velocity":0.31496062992125984,"duration":0.3258543749999774},{"name":"D5","midi":74,"time":213.5254274999961,"velocity":0.36220472440944884,"duration":0.10470075000003476},{"name":"F5","midi":77,"time":213.5361112499961,"velocity":0.3464566929133858,"duration":0.15491437500003258},{"name":"D3","midi":50,"time":213.54572662499612,"velocity":0.2204724409448819,"duration":0.1420938750000289},{"name":"A#3","midi":58,"time":213.55000012499613,"velocity":0.1889763779527559,"duration":0.19444425000000365},{"name":"A#4","midi":70,"time":213.77863237499614,"velocity":0.4409448818897638,"duration":0.07051275000000601},{"name":"D5","midi":74,"time":213.80106824999615,"velocity":0.4015748031496063,"duration":0.07905974999999899},{"name":"G#4","midi":68,"time":214.07243549999615,"velocity":0.5275590551181102,"duration":0.3675209999999538},{"name":"A#2","midi":46,"time":214.07777737499615,"velocity":0.30708661417322836,"duration":0.2628202499999759},{"name":"D5","midi":74,"time":214.08525599999615,"velocity":0.3700787401574803,"duration":0.23824762499998542},{"name":"F5","midi":77,"time":214.11303374999613,"velocity":0.3858267716535433,"duration":0.23824762499998542},{"name":"A#3","midi":58,"time":214.11944399999612,"velocity":0.16535433070866143,"duration":0.21046987500000114},{"name":"G4","midi":67,"time":214.6472212499961,"velocity":0.5590551181102362,"duration":0.24145275000000765},{"name":"A#2","midi":46,"time":214.65149474999612,"velocity":0.33070866141732286,"duration":0.3194441250000182},{"name":"D5","midi":74,"time":214.66431524999612,"velocity":0.4330708661417323,"duration":0.11324774999999931},{"name":"F5","midi":77,"time":214.67499899999612,"velocity":0.4330708661417323,"duration":0.32478600000001734},{"name":"A#3","midi":58,"time":214.67927249999613,"velocity":0.1968503937007874,"duration":0.28525612500001785},{"name":"A#4","midi":70,"time":214.90363124999612,"velocity":0.5118110236220472,"duration":0.06089737500002457},{"name":"D5","midi":74,"time":214.92606712499614,"velocity":0.3779527559055118,"duration":0.07051275000000601},{"name":"D#3","midi":51,"time":215.18995574999613,"velocity":0.33858267716535434,"duration":0.30769199999997454},{"name":"G4","midi":67,"time":215.20063949999613,"velocity":0.5118110236220472,"duration":1.378203749999983},{"name":"A#3","midi":58,"time":215.20277624999613,"velocity":0.18110236220472442,"duration":0.2809826249999787},{"name":"D5","midi":74,"time":215.21773349999614,"velocity":0.4330708661417323,"duration":0.22329037499994797},{"name":"F5","midi":77,"time":215.22734887499612,"velocity":0.3700787401574803,"duration":0.25961512499998207},{"name":"D#3","midi":51,"time":215.7903824999961,"velocity":0.29133858267716534,"duration":0.4711533750000001},{"name":"G5","midi":79,"time":215.8053397499961,"velocity":0.4015748031496063,"duration":0.21260662499997807},{"name":"D#5","midi":75,"time":215.8074764999961,"velocity":0.4015748031496063,"duration":0.2499997499999722},{"name":"A#3","midi":58,"time":215.8245704999961,"velocity":0.1968503937007874,"duration":0.20085449999999128},{"name":"D3","midi":50,"time":216.3598263749961,"velocity":0.2755905511811024,"duration":0.3258543750000342},{"name":"D#5","midi":75,"time":216.3811938749961,"velocity":0.3779527559055118,"duration":0.23397412500003156},{"name":"G5","midi":79,"time":216.3833306249961,"velocity":0.28346456692913385,"duration":0.2243587500000217},{"name":"A#3","midi":58,"time":216.38439899999608,"velocity":0.1889763779527559,"duration":0.2606835000000558},{"name":"A4","midi":69,"time":216.97734712499613,"velocity":0.4881889763779528,"duration":0.59935837499998},{"name":"A#3","midi":58,"time":216.98162062499614,"velocity":0.23622047244094488,"duration":0.13461524999999597},{"name":"D3","midi":50,"time":216.98162062499614,"velocity":0.29133858267716534,"duration":0.2617518749999874},{"name":"A#5","midi":82,"time":216.98482574999613,"velocity":0.3779527559055118,"duration":0.13675200000000132},{"name":"G5","midi":79,"time":216.99444112499614,"velocity":0.3937007874015748,"duration":0.07905974999999899},{"name":"D#3","midi":51,"time":217.56281662499612,"velocity":0.2677165354330709,"duration":0.34722187499997403},{"name":"A#4","midi":70,"time":217.5713636249961,"velocity":0.5196850393700787,"duration":0.4305551249999837},{"name":"C4","midi":60,"time":217.5745687499961,"velocity":0.1968503937007874,"duration":0.30448687499998073},{"name":"C3","midi":48,"time":217.5980729999961,"velocity":0.23622047244094488,"duration":0.3108971249999968},{"name":"D#5","midi":75,"time":217.6044832499961,"velocity":0.3779527559055118,"duration":0.23183737499996937},{"name":"G5","midi":79,"time":217.63332937499607,"velocity":0.3228346456692913,"duration":0.2916663750000339},{"name":"D#5","midi":75,"time":218.1151664999961,"velocity":0.4330708661417323,"duration":0.07478625000001671},{"name":"D#3","midi":51,"time":218.1183716249961,"velocity":0.29133858267716534,"duration":0.31623900000002436},{"name":"C3","midi":48,"time":218.1408074999961,"velocity":0.1732283464566929,"duration":0.3376064999999926},{"name":"G5","midi":79,"time":218.1429442499961,"velocity":0.23622047244094488,"duration":0.36645262499996534},{"name":"C4","midi":60,"time":218.1696536249961,"velocity":0.07874015748031496,"duration":0.2660253749999981},{"name":"D#5","midi":75,"time":218.3619611249961,"velocity":0.44881889763779526,"duration":0.11752124999998159},{"name":"C5","midi":72,"time":218.3801234999961,"velocity":0.4015748031496063,"duration":0.11324774999997089},{"name":"D5","midi":74,"time":218.68247362499608,"velocity":0.5275590551181102,"duration":0.3899568750000242},{"name":"C3","midi":48,"time":218.70063599999608,"velocity":0.2283464566929134,"duration":0.2841877500000294},{"name":"D#3","midi":51,"time":218.70597787499608,"velocity":0.28346456692913385,"duration":0.2799142500000187},{"name":"C4","midi":60,"time":218.71131974999608,"velocity":0.2204724409448819,"duration":0.24572625000001835},{"name":"D#5","midi":75,"time":218.71345649999608,"velocity":0.3700787401574803,"duration":0.2799142500000187},{"name":"G5","midi":79,"time":218.74443937499606,"velocity":0.2125984251968504,"duration":0.3311962500000334},{"name":"C5","midi":72,"time":219.2220029999961,"velocity":0.5590551181102362,"duration":0.2820509999999956},{"name":"D#3","midi":51,"time":219.2252081249961,"velocity":0.2992125984251969,"duration":0.440170500000022},{"name":"G5","midi":79,"time":219.2326867499961,"velocity":0.4251968503937008,"duration":0.28418775000000096},{"name":"C3","midi":48,"time":219.2326867499961,"velocity":0.25196850393700787,"duration":0.4369653750000282},{"name":"C4","midi":60,"time":219.2444388749961,"velocity":0.2204724409448819,"duration":0.2564100000000167},{"name":"D#5","midi":75,"time":219.4912334999961,"velocity":0.5433070866141733,"duration":0.08226487500002122},{"name":"A4","midi":69,"time":219.79785712499614,"velocity":0.5039370078740157,"duration":0.8397427499998855},{"name":"D#5","midi":75,"time":219.81067762499615,"velocity":0.41732283464566927,"duration":0.21474337499998342},{"name":"F3","midi":53,"time":219.81067762499615,"velocity":0.25984251968503935,"duration":0.25213649999994914},{"name":"G5","midi":79,"time":219.82136137499614,"velocity":0.4094488188976378,"duration":0.23611087499995165},{"name":"C4","midi":60,"time":219.82136137499614,"velocity":0.2125984251968504,"duration":0.3386748749999242},{"name":"F5","midi":77,"time":220.37691637499606,"velocity":0.4409448818897638,"duration":0.18696562499997071},{"name":"A5","midi":81,"time":220.37798474999605,"velocity":0.4566929133858268,"duration":0.1645297499999856},{"name":"F3","midi":53,"time":220.41537787499604,"velocity":0.2755905511811024,"duration":0.06623924999999531},{"name":"C4","midi":60,"time":220.43888212499604,"velocity":0.09448818897637795,"duration":0.2072647499999789},{"name":"G4","midi":67,"time":220.96238587499602,"velocity":0.5984251968503937,"duration":0.20619637499990517},{"name":"C4","midi":60,"time":220.976274749996,"velocity":0.3543307086614173,"duration":0.18482887499990852},{"name":"F5","midi":77,"time":220.982684999996,"velocity":0.41732283464566927,"duration":0.21153824999993276},{"name":"D#3","midi":51,"time":220.98375337499598,"velocity":0.3228346456692913,"duration":0.09615374999995652},{"name":"A5","midi":81,"time":220.99230037499598,"velocity":0.41732283464566927,"duration":0.22863224999994713},{"name":"A3","midi":57,"time":221.01366787499597,"velocity":0.05511811023622047,"duration":0.08546999999995819},{"name":"F4","midi":65,"time":221.56708612499594,"velocity":0.5748031496062992,"duration":0.12820499999997992},{"name":"C6","midi":84,"time":221.58418012499592,"velocity":0.44881889763779526,"duration":0.2660253749999697},{"name":"A5","midi":81,"time":221.5852484999959,"velocity":0.4251968503937008,"duration":0.1955126249999921},{"name":"C4","midi":60,"time":221.5959322499959,"velocity":0.3543307086614173,"duration":0.06944437500001754},{"name":"A3","midi":57,"time":221.59806899999592,"velocity":0.33858267716535434,"duration":0.049145250000009355},{"name":"D3","midi":50,"time":222.1600342499959,"velocity":0.29133858267716534,"duration":0.37072612500000446},{"name":"A#3","midi":58,"time":222.1621709999959,"velocity":0.25984251968503935,"duration":0.39743549999997185},{"name":"F3","midi":53,"time":222.16644449999592,"velocity":0.31496062992125984,"duration":0.38140987499997436},{"name":"F5","midi":77,"time":222.2198632499959,"velocity":0.5669291338582677,"duration":0.3087603749999914},{"name":"A#3","midi":58,"time":222.7583242499959,"velocity":0.3228346456692913,"duration":0.27991424999999026},{"name":"F3","midi":53,"time":222.7625977499959,"velocity":0.25984251968503935,"duration":0.22222199999998793},{"name":"A#5","midi":82,"time":222.7786233749959,"velocity":0.4645669291338583,"duration":0.15811949999999797},{"name":"D3","midi":50,"time":222.7967857499959,"velocity":0.2677165354330709,"duration":0.11538450000000466},{"name":"D5","midi":74,"time":222.8170848749959,"velocity":0.3228346456692913,"duration":0.26816212499997505},{"name":"C6","midi":84,"time":222.8886659999959,"velocity":0.4645669291338583,"duration":0.14743574999997122},{"name":"D6","midi":86,"time":223.0168709999959,"velocity":0.49606299212598426,"duration":0.09401700000000801},{"name":"G5","midi":79,"time":223.2893066249959,"velocity":0.5590551181102362,"duration":0.3803415000000143},{"name":"D#3","midi":51,"time":223.3106741249959,"velocity":0.33858267716535434,"duration":0.24999975000000063},{"name":"A#3","midi":58,"time":223.32242624999589,"velocity":0.2677165354330709,"duration":0.21474337500001184},{"name":"G3","midi":55,"time":223.33631512499588,"velocity":0.28346456692913385,"duration":0.16452975000004244},{"name":"D5","midi":74,"time":223.34699887499588,"velocity":0.1732283464566929,"duration":0.40064062500005093},{"name":"A#5","midi":82,"time":223.37263987499588,"velocity":0.2204724409448819,"duration":0.1997861250000028},{"name":"D6","midi":86,"time":223.5873832499959,"velocity":0.49606299212598426,"duration":0.08974350000002573},{"name":"F5","midi":77,"time":223.82456249999592,"velocity":0.6377952755905512,"duration":0.21260662499997807},{"name":"C6","midi":84,"time":223.84165649999593,"velocity":0.49606299212598426,"duration":0.1720083749999617},{"name":"C4","midi":60,"time":223.85447699999594,"velocity":0.3228346456692913,"duration":0.0544871249999801},{"name":"D#3","midi":51,"time":223.87050262499594,"velocity":0.31496062992125984,"duration":0.11324774999997089},{"name":"A3","midi":57,"time":223.87263937499594,"velocity":0.2440944881889764,"duration":0.04807687499996405},{"name":"C5","midi":72,"time":224.0916562499959,"velocity":0.3700787401574803,"duration":0.033119625000011865},{"name":"D3","midi":50,"time":224.3555448749959,"velocity":0.2992125984251969,"duration":0.30448687499998073},{"name":"A#3","midi":58,"time":224.3662286249959,"velocity":0.1968503937007874,"duration":0.2585467499999936},{"name":"F5","midi":77,"time":224.3705021249959,"velocity":0.5748031496062992,"duration":0.6688027499999123},{"name":"A#2","midi":46,"time":224.3726388749959,"velocity":0.3543307086614173,"duration":0.31089712499996836},{"name":"A#5","midi":82,"time":224.43033112499592,"velocity":0.2992125984251969,"duration":0.5288456249999172},{"name":"A#4","midi":70,"time":224.43567299999592,"velocity":0.33070866141732286,"duration":0.6997856249999188},{"name":"D3","midi":50,"time":224.92712549999587,"velocity":0.2677165354330709,"duration":0.21367499999996653},{"name":"A#2","midi":46,"time":224.94421949999585,"velocity":0.2677165354330709,"duration":0.08867512499998043},{"name":"D5","midi":74,"time":224.95276649999585,"velocity":0.5590551181102362,"duration":0.12820499999997992},{"name":"A#3","midi":58,"time":224.95917674999583,"velocity":0.25196850393700787,"duration":0.18269212499998844},{"name":"D#3","midi":51,"time":225.51793687499583,"velocity":0.30708661417322836,"duration":0.2927347499999371},{"name":"C5","midi":72,"time":225.5243471249958,"velocity":0.4881889763779528,"duration":0.608973749999933},{"name":"C3","midi":48,"time":225.5307573749958,"velocity":0.25196850393700787,"duration":0.28311937499995565},{"name":"D#4","midi":63,"time":225.5414411249958,"velocity":0.3543307086614173,"duration":0.6474352499999441},{"name":"A#3","midi":58,"time":225.5446462499958,"velocity":0.18110236220472442,"duration":0.2542732499999829},{"name":"A#4","midi":70,"time":226.08524399999575,"velocity":0.5039370078740157,"duration":0.2029912499999682},{"name":"D#3","midi":51,"time":226.10340637499576,"velocity":0.2440944881889764,"duration":0.15491437499997573},{"name":"C3","midi":48,"time":226.12691062499576,"velocity":0.2283464566929134,"duration":0.19337587499995834},{"name":"A#3","midi":58,"time":226.14186787499574,"velocity":0.18110236220472442,"duration":0.1997861249999744},{"name":"D3","midi":50,"time":226.64934599999572,"velocity":0.2992125984251969,"duration":0.34187999999994645},{"name":"F3","midi":53,"time":226.67819212499572,"velocity":0.28346456692913385,"duration":0.42414487499993925},{"name":"A#3","midi":58,"time":226.69421774999572,"velocity":0.1889763779527559,"duration":0.28632449999994947},{"name":"F5","midi":77,"time":226.7166536249957,"velocity":0.5275590551181102,"duration":0.2232903749999764},{"name":"F3","midi":53,"time":227.24763599999565,"velocity":0.1968503937007874,"duration":0.19444425000000365},{"name":"A#5","midi":82,"time":227.27861887499566,"velocity":0.4409448818897638,"duration":0.20299124999999663},{"name":"D3","midi":50,"time":227.27968724999565,"velocity":0.2125984251968504,"duration":0.0908118750000142},{"name":"A#3","midi":58,"time":227.30212312499566,"velocity":0.2125984251968504,"duration":0.20726475000000733},{"name":"D5","midi":74,"time":227.31708037499567,"velocity":0.1889763779527559,"duration":0.2126066250000065},{"name":"C6","midi":84,"time":227.38438799999565,"velocity":0.4881889763779528,"duration":0.14316225000001737},{"name":"D6","midi":86,"time":227.51686649999567,"velocity":0.49606299212598426,"duration":0.11538450000000466},{"name":"G5","midi":79,"time":227.78609699999566,"velocity":0.5511811023622047,"duration":0.33653812500000413},{"name":"D#3","midi":51,"time":227.81066962499565,"velocity":0.3228346456692913,"duration":0.22329037500000481},{"name":"D5","midi":74,"time":227.81494312499566,"velocity":0.31496062992125984,"duration":0.42200812499999074},{"name":"G3","midi":55,"time":227.82776362499567,"velocity":0.2992125984251969,"duration":0.13461524999996755},{"name":"A#3","midi":58,"time":227.83417387499566,"velocity":0.16535433070866143,"duration":0.16025625000000332},{"name":"A#5","midi":82,"time":227.83844737499567,"velocity":0.25984251968503935,"duration":0.12820499999997992},{"name":"D6","midi":86,"time":228.06173774999567,"velocity":0.5118110236220472,"duration":0.07478624999998829},{"name":"F5","midi":77,"time":228.31601099999565,"velocity":0.6141732283464567,"duration":0.23183737499996937},{"name":"C6","midi":84,"time":228.33096824999566,"velocity":0.5118110236220472,"duration":0.1752134999999555},{"name":"C4","midi":60,"time":228.34913062499564,"velocity":0.31496062992125984,"duration":0.06410249999998996},{"name":"D#3","midi":51,"time":228.35233574999563,"velocity":0.2992125984251969,"duration":0.11858962499999848},{"name":"A3","midi":57,"time":228.35340412499562,"velocity":0.2755905511811024,"duration":0.04166662500000484},{"name":"C5","midi":72,"time":228.58417312499563,"velocity":0.5118110236220472,"duration":0.03846150000001103},{"name":"A#2","midi":46,"time":228.83737799999565,"velocity":0.29133858267716534,"duration":0.41346112499996934},{"name":"D3","midi":50,"time":228.84058312499565,"velocity":0.2992125984251969,"duration":0.3910252499999842},{"name":"A#3","midi":58,"time":228.85340362499565,"velocity":0.23622047244094488,"duration":0.3803414999999859},{"name":"F5","midi":77,"time":228.88438649999566,"velocity":0.5748031496062992,"duration":0.7425206249999405},{"name":"A#4","midi":70,"time":228.91857449999566,"velocity":0.4015748031496063,"duration":0.78205049999994},{"name":"A#5","midi":82,"time":228.92818987499567,"velocity":0.4645669291338583,"duration":0.6463668749999272},{"name":"A#2","midi":46,"time":229.4602406249956,"velocity":0.28346456692913385,"duration":0.16239299999998025},{"name":"D5","midi":74,"time":229.4613089999956,"velocity":0.5669291338582677,"duration":0.19123912500000984},{"name":"D3","midi":50,"time":229.49229187499557,"velocity":0.30708661417322836,"duration":0.09294862500001955},{"name":"A#3","midi":58,"time":229.50190724999558,"velocity":0.15748031496062992,"duration":0.2126066250000065},{"name":"D3","midi":50,"time":230.00511187499558,"velocity":0.28346456692913385,"duration":0.3344013749999988},{"name":"F3","midi":53,"time":230.0147272499956,"velocity":0.29133858267716534,"duration":0.3482902499999909},{"name":"A#3","midi":58,"time":230.0200691249956,"velocity":0.1889763779527559,"duration":0.31944412499998975},{"name":"C5","midi":72,"time":230.0328896249956,"velocity":0.5039370078740157,"duration":0.7232898750000061},{"name":"F4","midi":65,"time":230.0425049999956,"velocity":0.3543307086614173,"duration":0.7414522499999805},{"name":"D3","midi":50,"time":230.61194887499556,"velocity":0.33858267716535434,"duration":0.2478630000000237},{"name":"A#4","midi":70,"time":230.61301724999555,"velocity":0.5433070866141733,"duration":0.22970062500004929},{"name":"F3","midi":53,"time":230.62263262499556,"velocity":0.18110236220472442,"duration":0.7895291250000298},{"name":"A#3","midi":58,"time":230.63224799999557,"velocity":0.2440944881889764,"duration":0.13247850000001904},{"name":"C3","midi":48,"time":231.1771192499956,"velocity":0.2992125984251969,"duration":0.32799112500001115},{"name":"C4","midi":60,"time":231.1824611249956,"velocity":0.25196850393700787,"duration":0.3333330000000103},{"name":"D#5","midi":75,"time":231.1931448749956,"velocity":0.5196850393700787,"duration":1.934827125000112},{"name":"A#4","midi":70,"time":231.2016918749956,"velocity":0.3779527559055118,"duration":0.290598000000017},{"name":"G4","midi":67,"time":231.2251961249956,"velocity":0.3228346456692913,"duration":0.27777750000001333},{"name":"A#4","midi":70,"time":231.78288787499562,"velocity":0.4094488188976378,"duration":0.11752125000003844},{"name":"C4","midi":60,"time":231.78502462499563,"velocity":0.1732283464566929,"duration":0.21901687500002254},{"name":"C3","midi":48,"time":231.78929812499564,"velocity":0.2283464566929134,"duration":0.27350400000003106},{"name":"G4","midi":67,"time":231.80105024999565,"velocity":0.31496062992125984,"duration":0.17094000000000165},{"name":"F3","midi":53,"time":232.35660524999568,"velocity":0.31496062992125984,"duration":0.3023501250000322},{"name":"A4","midi":69,"time":232.35767362499567,"velocity":0.3543307086614173,"duration":0.38140987500005963},{"name":"C4","midi":60,"time":232.40361374999569,"velocity":0.1732283464566929,"duration":0.23504250000002003},{"name":"F4","midi":65,"time":232.4132291249957,"velocity":0.2125984251968504,"duration":0.28525612500001785},{"name":"F3","midi":53,"time":232.95169012499574,"velocity":0.2992125984251969,"duration":0.6987172499999303},{"name":"F5","midi":77,"time":232.95275849999572,"velocity":0.5039370078740157,"duration":0.1805553749999831},{"name":"C4","midi":60,"time":232.95596362499572,"velocity":0.2755905511811024,"duration":0.1014956249999841},{"name":"A4","midi":69,"time":232.9591687499957,"velocity":0.31496062992125984,"duration":0.3012817499999585},{"name":"F4","midi":65,"time":232.9880148749957,"velocity":0.2992125984251969,"duration":0.19764937499996904},{"name":"D5","midi":74,"time":233.55639037499566,"velocity":0.5275590551181102,"duration":0.3963671250000118},{"name":"A#4","midi":70,"time":233.55959549999565,"velocity":0.41732283464566927,"duration":0.22008524999998258},{"name":"A#2","midi":46,"time":233.56386899999566,"velocity":0.33858267716535434,"duration":0.6303412499999865},{"name":"F4","midi":65,"time":233.57668949999567,"velocity":0.2992125984251969,"duration":0.2029912499999682},{"name":"A#3","midi":58,"time":233.58844162499565,"velocity":0.1732283464566929,"duration":0.7457257499999344},{"name":"C5","midi":72,"time":234.1482701249957,"velocity":0.5433070866141733,"duration":0.5811959999998919},{"name":"D#4","midi":63,"time":234.16109062499567,"velocity":0.4251968503937008,"duration":0.2617518749999306},{"name":"C3","midi":48,"time":234.16109062499567,"velocity":0.3779527559055118,"duration":0.6047002499998939},{"name":"A4","midi":69,"time":234.16536412499568,"velocity":0.4094488188976378,"duration":0.1976493749999122},{"name":"A#4","midi":70,"time":234.72732937499558,"velocity":0.5275590551181102,"duration":0.33333299999992505},{"name":"F4","midi":65,"time":234.72946612499558,"velocity":0.4094488188976378,"duration":0.3130338749999453},{"name":"D3","midi":50,"time":234.74976524999556,"velocity":0.4094488188976378,"duration":0.5865378749999195},{"name":"D4","midi":62,"time":234.74976524999556,"velocity":0.3700787401574803,"duration":0.25213649999997756},{"name":"C5","midi":72,"time":235.3160039999955,"velocity":0.5039370078740157,"duration":0.2820509999999956},{"name":"G4","midi":67,"time":235.3213458749955,"velocity":0.4094488188976378,"duration":0.30021337499999845},{"name":"D#3","midi":51,"time":235.33416637499548,"velocity":0.3779527559055118,"duration":0.7478624999999965},{"name":"C4","midi":60,"time":235.33630312499548,"velocity":0.3464566929133858,"duration":0.3076920000000314},{"name":"A4","midi":69,"time":235.95168712499552,"velocity":0.5039370078740157,"duration":1.7414512499998693},{"name":"C4","midi":60,"time":235.9677127499955,"velocity":0.3228346456692913,"duration":0.3098287499999799},{"name":"F3","midi":53,"time":235.9687811249955,"velocity":0.31496062992125984,"duration":0.3931619999999896},{"name":"F4","midi":65,"time":235.9741229999955,"velocity":0.36220472440944884,"duration":0.25961512499998207},{"name":"F3","midi":53,"time":236.5777548749955,"velocity":0.25984251968503935,"duration":1.114315124999905},{"name":"F4","midi":65,"time":236.5852334999955,"velocity":0.3937007874015748,"duration":0.29593987499995933},{"name":"C4","midi":60,"time":236.5905753749955,"velocity":0.3543307086614173,"duration":0.23076899999995248},{"name":"F2","midi":41,"time":237.24869437499544,"velocity":0.30708661417322836,"duration":0.3920936249999727},{"name":"F4","midi":65,"time":237.24976274999543,"velocity":0.4015748031496063,"duration":0.5555549999999698},{"name":"D#4","midi":63,"time":237.27754049999544,"velocity":0.28346456692913385,"duration":0.40918762499995864},{"name":"A#4","midi":70,"time":238.06172774999538,"velocity":0.5039370078740157,"duration":0.30769200000000296},{"name":"F2","midi":41,"time":238.06279612499537,"velocity":0.25984251968503935,"duration":0.09935887500000717},{"name":"F4","midi":65,"time":238.08095849999538,"velocity":0.3937007874015748,"duration":0.18376050000000532},{"name":"D#4","midi":63,"time":238.09377899999538,"velocity":0.31496062992125984,"duration":0.17948699999999462},{"name":"F3","midi":53,"time":238.10018924999537,"velocity":0.14173228346456693,"duration":0.17094000000000165},{"name":"D3","midi":50,"time":238.87048762499538,"velocity":0.33858267716535434,"duration":2.4946556249999787},{"name":"A#3","midi":58,"time":238.88437649999537,"velocity":0.2677165354330709,"duration":0.4262816249999446},{"name":"A#2","midi":46,"time":238.89185512499537,"velocity":0.2283464566929134,"duration":0.3835466249999513},{"name":"A#4","midi":70,"time":238.89185512499537,"velocity":0.49606299212598426,"duration":0.8237171249999449},{"name":"F5","midi":77,"time":238.91856449999537,"velocity":0.3858267716535433,"duration":0.41132437499993557},{"name":"D5","midi":74,"time":238.91963287499536,"velocity":0.31496062992125984,"duration":0.3728628749999814},{"name":"F5","midi":77,"time":239.60766637499532,"velocity":0.4330708661417323,"duration":0.2168801250000172},{"name":"A#2","midi":46,"time":239.6108714999953,"velocity":0.2204724409448819,"duration":0.2040596250000135},{"name":"A#3","midi":58,"time":239.61300824999532,"velocity":0.1968503937007874,"duration":0.18589725000001067},{"name":"D5","midi":74,"time":239.6140766249953,"velocity":0.29133858267716534,"duration":0.10576912500002322},{"name":"D5","midi":74,"time":239.85873449999534,"velocity":0.4881889763779528,"duration":0.06837600000000066},{"name":"A#4","midi":70,"time":239.86514474999532,"velocity":0.36220472440944884,"duration":0.1143161250000162},{"name":"F5","midi":77,"time":240.14826412499534,"velocity":0.4645669291338583,"duration":0.17841862499994932},{"name":"A#3","midi":58,"time":240.15146924999533,"velocity":0.2677165354330709,"duration":0.16452974999995718},{"name":"D5","midi":74,"time":240.16322137499532,"velocity":0.36220472440944884,"duration":0.1912391249999814},{"name":"A#2","midi":46,"time":240.1749734999953,"velocity":0.2283464566929134,"duration":0.11111099999999396},{"name":"A#3","midi":58,"time":240.7422806249953,"velocity":0.2992125984251969,"duration":0.10256400000000099},{"name":"F5","midi":77,"time":240.7476224999953,"velocity":0.48031496062992124,"duration":0.1805553750000115},{"name":"D5","midi":74,"time":240.7679216249953,"velocity":0.3779527559055118,"duration":0.06623924999999531},{"name":"A#2","midi":46,"time":240.7860839999953,"velocity":0.2283464566929134,"duration":0.09508537499999647},{"name":"D5","midi":74,"time":240.9901436249953,"velocity":0.5354330708661418,"duration":0.14316225000001737},{"name":"A#4","midi":70,"time":241.02860512499532,"velocity":0.3779527559055118,"duration":0.19871775000001435},{"name":"F5","midi":77,"time":241.29142537499533,"velocity":0.5118110236220472,"duration":0.6036318750000191},{"name":"D5","midi":74,"time":241.30531424999532,"velocity":0.4251968503937008,"duration":0.2873928750000232},{"name":"G3","midi":55,"time":241.31065612499532,"velocity":0.25984251968503935,"duration":0.31303387500003055},{"name":"A#2","midi":46,"time":241.31279287499532,"velocity":0.2283464566929134,"duration":0.3076920000000314},{"name":"A#2","midi":46,"time":241.88437349999535,"velocity":0.25984251968503935,"duration":0.22542712499998174},{"name":"G5","midi":79,"time":241.89078374999534,"velocity":0.49606299212598426,"duration":0.24038437499999077},{"name":"G3","midi":55,"time":241.89078374999534,"velocity":0.14960629921259844,"duration":0.6762813749999737},{"name":"D#5","midi":75,"time":241.89078374999534,"velocity":0.4094488188976378,"duration":0.15918787500001486},{"name":"G5","midi":79,"time":242.48907374999533,"velocity":0.4094488188976378,"duration":0.2777774999999565},{"name":"D#3","midi":51,"time":242.49441562499533,"velocity":0.2755905511811024,"duration":0.30341849999996384},{"name":"A#2","midi":46,"time":242.49975749999533,"velocity":0.2283464566929134,"duration":0.22970062499996402},{"name":"D#5","midi":75,"time":242.50403099999534,"velocity":0.3228346456692913,"duration":0.7072642499999517},{"name":"D#3","midi":51,"time":243.0072356249953,"velocity":0.2047244094488189,"duration":0.43696537499997135},{"name":"A#2","midi":46,"time":243.0414236249953,"velocity":0.28346456692913385,"duration":0.13782037499998978},{"name":"A#5","midi":82,"time":243.0424919999953,"velocity":0.41732283464566927,"duration":0.1848288749999938},{"name":"G5","midi":79,"time":243.07240649999528,"velocity":0.2677165354330709,"duration":0.10042725000002406},{"name":"A#2","midi":46,"time":243.65467087499528,"velocity":0.25984251968503935,"duration":0.3856833749998714},{"name":"C3","midi":48,"time":243.67283324999528,"velocity":0.2440944881889764,"duration":0.37820474999986686},{"name":"G3","midi":55,"time":243.69206399999527,"velocity":0.2047244094488189,"duration":0.3034184999998786},{"name":"G5","midi":79,"time":243.70702124999528,"velocity":0.5669291338582677,"duration":0.26495699999986755},{"name":"D#5","midi":75,"time":243.73159387499527,"velocity":0.4094488188976378,"duration":0.21901687499988043},{"name":"C5","midi":72,"time":243.77112374999527,"velocity":0.2440944881889764,"duration":0.18269212499987475},{"name":"D#5","midi":75,"time":244.24227712499516,"velocity":0.6299212598425197,"duration":0.2809826249999787},{"name":"A#2","midi":46,"time":244.24868737499514,"velocity":0.25196850393700787,"duration":0.08974349999999731},{"name":"C3","midi":48,"time":244.26684974999515,"velocity":0.2204724409448819,"duration":0.6025635000000307},{"name":"G3","midi":55,"time":244.27539674999514,"velocity":0.2677165354330709,"duration":0.08012812499998745},{"name":"C5","midi":72,"time":244.29676424999514,"velocity":0.3228346456692913,"duration":0.24893137500001217},{"name":"A4","midi":69,"time":244.52112299999513,"velocity":0.3700787401574803,"duration":0.04273500000002173},{"name":"A2","midi":45,"time":244.78501162499515,"velocity":0.2755905511811024,"duration":0.3023501250000322},{"name":"D5","midi":74,"time":244.79462699999516,"velocity":0.5905511811023622,"duration":0.2831193750000125},{"name":"D#3","midi":51,"time":244.79996887499516,"velocity":0.31496062992125984,"duration":0.28525612500001785},{"name":"F3","midi":53,"time":244.81172099999515,"velocity":0.28346456692913385,"duration":0.31623900000002436},{"name":"D#5","midi":75,"time":244.82667824999515,"velocity":0.3779527559055118,"duration":0.2638886250000212},{"name":"C5","midi":72,"time":245.34377174999517,"velocity":0.6141732283464567,"duration":0.2393160000000023},{"name":"F3","midi":53,"time":245.35445549999517,"velocity":0.1889763779527559,"duration":0.22115362499999947},{"name":"D#5","midi":75,"time":245.35872899999518,"velocity":0.4645669291338583,"duration":0.19444425000000365},{"name":"A2","midi":45,"time":245.37795974999517,"velocity":0.2204724409448819,"duration":0.16239300000000867},{"name":"D#3","midi":51,"time":245.38223324999518,"velocity":0.25984251968503935,"duration":0.18696562499999914},{"name":"A4","midi":69,"time":245.60872874999518,"velocity":0.4409448818897638,"duration":0.05021362499999782},{"name":"F3","midi":53,"time":245.88650624999516,"velocity":0.23622047244094488,"duration":0.32905950000002804},{"name":"D#3","midi":51,"time":245.88757462499515,"velocity":0.2992125984251969,"duration":0.3237176250000289},{"name":"A#2","midi":46,"time":245.88864299999514,"velocity":0.25196850393700787,"duration":0.3151706250000359},{"name":"F5","midi":77,"time":245.91321562499513,"velocity":0.5984251968503937,"duration":1.2585457499999393},{"name":"C5","midi":72,"time":245.94099337499514,"velocity":0.4094488188976378,"duration":0.24145275000003608},{"name":"A5","midi":81,"time":245.94633524999514,"velocity":0.47244094488188976,"duration":0.21794850000003407},{"name":"A#5","midi":82,"time":246.5189842499952,"velocity":0.4881889763779528,"duration":0.3344013749999135},{"name":"A#2","midi":46,"time":246.53180474999522,"velocity":0.2755905511811024,"duration":0.6175207499998407},{"name":"D3","midi":50,"time":246.5350098749952,"velocity":0.28346456692913385,"duration":0.19658099999992373},{"name":"D5","midi":74,"time":246.5360782499952,"velocity":0.23622047244094488,"duration":0.24465787499994462},{"name":"F3","midi":53,"time":246.5403517499952,"velocity":0.2440944881889764,"duration":0.20085449999993443},{"name":"A#5","midi":82,"time":247.06599224999505,"velocity":0.4330708661417323,"duration":0.5715806249999957},{"name":"D5","midi":74,"time":247.07347087499505,"velocity":0.33858267716535434,"duration":0.2275638749999871},{"name":"D#3","midi":51,"time":247.08949649999505,"velocity":0.25984251968503935,"duration":0.23397412500000314},{"name":"G3","midi":55,"time":247.10765887499505,"velocity":0.2204724409448819,"duration":0.21794850000000565},{"name":"D#3","midi":51,"time":247.66962412499504,"velocity":0.28346456692913385,"duration":0.1570511250000095},{"name":"G5","midi":79,"time":247.67176087499504,"velocity":0.5039370078740157,"duration":0.3568372499999555},{"name":"C6","midi":84,"time":247.69740187499505,"velocity":0.3858267716535433,"duration":0.3675209999999538},{"name":"D#5","midi":75,"time":247.69847024999504,"velocity":0.3228346456692913,"duration":0.276709124999968},{"name":"G3","midi":55,"time":247.71663262499504,"velocity":0.2283464566929134,"duration":0.15384599999998727},{"name":"D5","midi":74,"time":248.318127749995,"velocity":0.5275590551181102,"duration":0.1773502500000177},{"name":"F3","midi":53,"time":248.322401249995,"velocity":0.2440944881889764,"duration":0.28418775000000096},{"name":"A#3","midi":58,"time":248.332016624995,"velocity":0.14960629921259844,"duration":0.29273475000002236},{"name":"D4","midi":62,"time":248.34376874999498,"velocity":0.1732283464566929,"duration":0.28632450000003473},{"name":"A#3","midi":58,"time":248.906802374995,"velocity":0.25196850393700787,"duration":0.1014956249999841},{"name":"A#5","midi":82,"time":248.91641774999502,"velocity":0.25984251968503935,"duration":0.047008499999975584},{"name":"D6","midi":86,"time":248.924964749995,"velocity":0.4566929133858268,"duration":0.09935887499997875},{"name":"F3","midi":53,"time":248.92710149999502,"velocity":0.30708661417322836,"duration":0.12393149999999764},{"name":"D4","midi":62,"time":248.933511749995,"velocity":0.15748031496062992,"duration":0.06196574999998461},{"name":"D#6","midi":87,"time":249.039280874995,"velocity":0.4094488188976378,"duration":0.14316225000001737},{"name":"C6","midi":84,"time":249.043554374995,"velocity":0.16535433070866143,"duration":0.060897374999996146},{"name":"F6","midi":89,"time":249.143981624995,"velocity":0.3858267716535433,"duration":0.12072637500000383},{"name":"D6","midi":86,"time":249.16428074999502,"velocity":0.3700787401574803,"duration":0.049145250000009355},{"name":"D6","midi":86,"time":249.505092374995,"velocity":0.4566929133858268,"duration":0.22756387499993025},{"name":"F2","midi":41,"time":249.515776124995,"velocity":0.25984251968503935,"duration":0.27777749999992807},{"name":"A#5","midi":82,"time":249.518981249995,"velocity":0.3779527559055118,"duration":0.13034174999995685},{"name":"A#5","midi":82,"time":249.81171599999493,"velocity":0.3937007874015748,"duration":0.03418800000000033},{"name":"D5","midi":74,"time":249.82133137499494,"velocity":0.3858267716535433,"duration":0.06410249999998996},{"name":"C5","midi":72,"time":250.14825412499493,"velocity":0.4566929133858268,"duration":0.10363237499998945},{"name":"F5","midi":77,"time":250.15039087499494,"velocity":0.49606299212598426,"duration":0.3653842499999769},{"name":"F2","midi":41,"time":250.15145924999493,"velocity":0.28346456692913385,"duration":0.06623924999999531},{"name":"F3","midi":53,"time":250.16534812499492,"velocity":0.1968503937007874,"duration":0.1720083749999901},{"name":"D#5","midi":75,"time":250.16962162499493,"velocity":0.33070866141732286,"duration":0.12286312499998076},{"name":"A#4","midi":70,"time":250.49974949999492,"velocity":0.5196850393700787,"duration":0.1452989999999943},{"name":"A5","midi":81,"time":250.50722812499492,"velocity":0.44881889763779526,"duration":0.07692299999999364},{"name":"A#3","midi":58,"time":250.8619286249949,"velocity":0.2047244094488189,"duration":0.39102525000001265},{"name":"A#2","midi":46,"time":250.8694072499949,"velocity":0.1968503937007874,"duration":0.38247825000001967},{"name":"A#5","midi":82,"time":250.8822277499949,"velocity":0.41732283464566927,"duration":0.7467941249999228},{"name":"D5","midi":74,"time":250.88970637499492,"velocity":0.41732283464566927,"duration":0.2980766249999931},{"name":"A#4","midi":70,"time":250.9035952499949,"velocity":0.3464566929133858,"duration":0.7938026249999268},{"name":"F5","midi":77,"time":251.59590224999488,"velocity":0.41732283464566927,"duration":0.19230749999994146},{"name":"D5","midi":74,"time":251.59697062499487,"velocity":0.3700787401574803,"duration":0.0694443749999607},{"name":"A#2","midi":46,"time":251.60872274999485,"velocity":0.23622047244094488,"duration":0.14743574999997122},{"name":"A#3","midi":58,"time":251.61192787499485,"velocity":0.16535433070866143,"duration":0.18162374999997155},{"name":"D5","midi":74,"time":251.86406437499483,"velocity":0.4330708661417323,"duration":0.06623924999999531},{"name":"A#4","midi":70,"time":251.86940624999482,"velocity":0.3858267716535433,"duration":0.06517087500000684},{"name":"F5","midi":77,"time":252.15145724999482,"velocity":0.41732283464566927,"duration":0.15491437500000416},{"name":"D5","midi":74,"time":252.15573074999483,"velocity":0.33070866141732286,"duration":0.1452989999999943},{"name":"A#3","midi":58,"time":252.15679912499482,"velocity":0.1732283464566929,"duration":0.14850412500001653},{"name":"A#2","midi":46,"time":252.16107262499483,"velocity":0.2283464566929134,"duration":0.1645297499999856},{"name":"F5","midi":77,"time":252.7209011249948,"velocity":0.4645669291338583,"duration":0.21367500000002337},{"name":"A#3","midi":58,"time":252.7294481249948,"velocity":0.2755905511811024,"duration":0.11111100000002239},{"name":"D5","midi":74,"time":252.7337216249948,"velocity":0.3779527559055118,"duration":0.07692300000002206},{"name":"A#2","midi":46,"time":252.73799512499482,"velocity":0.2677165354330709,"duration":0.12286312500000918},{"name":"D5","midi":74,"time":252.96769574999485,"velocity":0.5275590551181102,"duration":0.12820500000000834},{"name":"A#4","midi":70,"time":253.00081537499486,"velocity":0.33858267716535434,"duration":0.11217937499998243},{"name":"F5","midi":77,"time":253.25295187499484,"velocity":0.5354330708661418,"duration":0.5363242499999785},{"name":"G3","midi":55,"time":253.26897749999483,"velocity":0.2204724409448819,"duration":0.2788458750000018},{"name":"D5","midi":74,"time":253.27004587499482,"velocity":0.3858267716535433,"duration":0.28846125000001166},{"name":"A#2","midi":46,"time":253.27538774999482,"velocity":0.2440944881889764,"duration":0.26068349999999896},{"name":"G5","midi":79,"time":253.84589999999483,"velocity":0.4881889763779528,"duration":0.2499997499999438},{"name":"D#5","midi":75,"time":253.85231024999482,"velocity":0.3779527559055118,"duration":0.15277762499997039},{"name":"A#2","midi":46,"time":253.85231024999482,"velocity":0.29133858267716534,"duration":0.2574783749999483},{"name":"G3","midi":55,"time":253.8694042499948,"velocity":0.2204724409448819,"duration":0.6399566249999395},{"name":"G5","midi":79,"time":254.46128399999475,"velocity":0.44881889763779526,"duration":0.3258543749999774},{"name":"D#5","midi":75,"time":254.47730962499475,"velocity":0.2755905511811024,"duration":0.8066231249999589},{"name":"D#3","midi":51,"time":254.47944637499475,"velocity":0.25196850393700787,"duration":0.31944412499996133},{"name":"A#2","midi":46,"time":254.48051474999474,"velocity":0.2125984251968504,"duration":0.26495699999998124},{"name":"D#3","midi":51,"time":255.0125654999947,"velocity":0.1968503937007874,"duration":0.29593987499998775},{"name":"A#5","midi":82,"time":255.0360697499947,"velocity":0.3937007874015748,"duration":0.2115382499999896},{"name":"A#2","midi":46,"time":255.0446167499947,"velocity":0.2677165354330709,"duration":0.14316224999998894},{"name":"G5","midi":79,"time":255.0563688749947,"velocity":0.3228346456692913,"duration":0.16239300000000867},{"name":"D#5","midi":75,"time":255.63435974999467,"velocity":0.44881889763779526,"duration":0.3044868749999523},{"name":"C5","midi":72,"time":255.65145374999466,"velocity":0.3228346456692913,"duration":0.33867487499995264},{"name":"A3","midi":57,"time":255.65252212499465,"velocity":0.28346456692913385,"duration":0.33012787499995966},{"name":"A#2","midi":46,"time":255.66106912499464,"velocity":0.28346456692913385,"duration":0.3450851249999687},{"name":"C3","midi":48,"time":255.67068449999465,"velocity":0.2755905511811024,"duration":0.33867487499998106},{"name":"A#2","midi":46,"time":256.21982924999463,"velocity":0.29133858267716534,"duration":0.26602537500002654},{"name":"C5","midi":72,"time":256.2208976249946,"velocity":0.3543307086614173,"duration":0.1100426250000055},{"name":"D#5","midi":75,"time":256.2208976249946,"velocity":0.44881889763779526,"duration":0.22542712500001016},{"name":"C3","midi":48,"time":256.2273078749946,"velocity":0.25196850393700787,"duration":0.2606835000000274},{"name":"A3","midi":57,"time":256.2422651249946,"velocity":0.2283464566929134,"duration":0.19337587500001518},{"name":"C5","midi":72,"time":256.49653837499466,"velocity":0.44881889763779526,"duration":0.11217937499998243},{"name":"A4","midi":69,"time":256.52324774999465,"velocity":0.3228346456692913,"duration":0.07371787499999982},{"name":"A3","midi":57,"time":256.76683724999464,"velocity":0.25984251968503935,"duration":0.22115362499999947},{"name":"D#5","midi":75,"time":256.7785893749946,"velocity":0.4645669291338583,"duration":0.20726475000003575},{"name":"C5","midi":72,"time":256.7807261249946,"velocity":0.3700787401574803,"duration":0.19123912500003826},{"name":"C3","midi":48,"time":256.7892731249946,"velocity":0.2283464566929134,"duration":0.24679462500000682},{"name":"A#2","midi":46,"time":256.7903414999946,"velocity":0.1968503937007874,"duration":0.22649549999999863},{"name":"A3","midi":57,"time":257.33093924999463,"velocity":0.18110236220472442,"duration":0.23504250000007687},{"name":"C5","midi":72,"time":257.3362811249946,"velocity":0.3700787401574803,"duration":0.08547000000004346},{"name":"D#5","midi":75,"time":257.3373494999946,"velocity":0.4881889763779528,"duration":0.23504250000007687},{"name":"C3","midi":48,"time":257.34055462499464,"velocity":0.23622047244094488,"duration":0.3258543750000058},{"name":"A#2","midi":46,"time":257.38115287499465,"velocity":0.10236220472440945,"duration":0.10790587500002857},{"name":"C5","midi":72,"time":257.6001697499947,"velocity":0.5039370078740157,"duration":0.11858962499997006},{"name":"A4","midi":69,"time":257.63328937499466,"velocity":0.31496062992125984,"duration":0.03846149999998261},{"name":"F3","midi":53,"time":257.88649424999466,"velocity":0.29133858267716534,"duration":0.30662362499992923},{"name":"D#5","midi":75,"time":257.88649424999466,"velocity":0.47244094488188976,"duration":0.24786299999993844},{"name":"A#2","midi":46,"time":257.89183612499465,"velocity":0.25196850393700787,"duration":0.2916663749999202},{"name":"A3","midi":57,"time":257.89931474999463,"velocity":0.2047244094488189,"duration":0.2585467499999936},{"name":"C5","midi":72,"time":257.9003831249946,"velocity":0.2992125984251969,"duration":0.4786320000000046},{"name":"A5","midi":81,"time":258.47196374999464,"velocity":0.49606299212598426,"duration":0.21153824999993276},{"name":"D#5","midi":75,"time":258.47837399999463,"velocity":0.3543307086614173,"duration":0.2414527499999508},{"name":"A#2","midi":46,"time":258.4805107499946,"velocity":0.2440944881889764,"duration":0.21794849999997723},{"name":"F3","midi":53,"time":258.4879893749946,"velocity":0.1889763779527559,"duration":0.23824762499998542},{"name":"A3","midi":57,"time":258.5082884999946,"velocity":0.11023622047244094,"duration":0.18376050000000532},{"name":"F3","midi":53,"time":259.03286062499456,"velocity":0.2283464566929134,"duration":0.2179484999999204},{"name":"A5","midi":81,"time":259.03927087499454,"velocity":0.4409448818897638,"duration":0.6677343750000659},{"name":"A#2","midi":46,"time":259.04033924999453,"velocity":0.2283464566929134,"duration":0.2029912499999682},{"name":"C5","midi":72,"time":259.04888624999455,"velocity":0.30708661417322836,"duration":0.3322646249999366},{"name":"A3","midi":57,"time":259.05636487499453,"velocity":0.11023622047244094,"duration":0.1805553749999831},{"name":"C6","midi":84,"time":259.63008224999453,"velocity":0.4094488188976378,"duration":0.30341850000007753},{"name":"D#5","midi":75,"time":259.63435574999454,"velocity":0.2677165354330709,"duration":0.16559812500008775},{"name":"F3","midi":53,"time":259.6461078749946,"velocity":0.1732283464566929,"duration":0.09188025000003108},{"name":"A#2","midi":46,"time":259.6461078749946,"velocity":0.2440944881889764,"duration":0.08653837500003192},{"name":"A3","midi":57,"time":259.6557232499946,"velocity":0.1889763779527559,"duration":0.18482887500005063},{"name":"A#3","midi":58,"time":260.2561499999946,"velocity":0.25984251968503935,"duration":0.3632475000001705},{"name":"F4","midi":65,"time":260.2646969999946,"velocity":0.2204724409448819,"duration":0.36752100000012433},{"name":"A#5","midi":82,"time":260.2657653749946,"velocity":0.4330708661417323,"duration":0.45619612500019},{"name":"D5","midi":74,"time":260.2689704999946,"velocity":0.3543307086614173,"duration":0.3301278750001302},{"name":"D4","midi":62,"time":260.28926962499463,"velocity":0.2755905511811024,"duration":0.3461535000001277},{"name":"A#3","midi":58,"time":260.8159784999948,"velocity":0.31496062992125984,"duration":0.37606800000003204},{"name":"D4","midi":62,"time":260.8341408749948,"velocity":0.29133858267716534,"duration":0.3205125000000635},{"name":"F4","midi":65,"time":260.8437562499948,"velocity":0.2204724409448819,"duration":0.3269227500000511},{"name":"C6","midi":84,"time":260.9473886249948,"velocity":0.4566929133858268,"duration":0.21153825000004645},{"name":"D#5","midi":75,"time":260.9623458749948,"velocity":0.29133858267716534,"duration":0.039529875000027914},{"name":"D6","midi":86,"time":261.0617047499948,"velocity":0.4566929133858268,"duration":0.14423062500003425},{"name":"F5","midi":77,"time":261.0990978749948,"velocity":0.4251968503937008,"duration":0.04594012500001554},{"name":"D4","midi":62,"time":261.33734549999485,"velocity":0.2755905511811024,"duration":0.3194441250000182},{"name":"A#3","midi":58,"time":261.33734549999485,"velocity":0.25196850393700787,"duration":0.32692274999999427},{"name":"F4","midi":65,"time":261.34268737499485,"velocity":0.2992125984251969,"duration":0.32478600000001734},{"name":"A#5","midi":82,"time":261.35337112499485,"velocity":0.5433070866141733,"duration":0.32692274999999427},{"name":"A3","midi":57,"time":261.35764462499486,"velocity":0.3228346456692913,"duration":0.2916663750000339},{"name":"D5","midi":74,"time":261.3608497499949,"velocity":0.3937007874015748,"duration":0.1848288749999938},{"name":"D6","midi":86,"time":261.6300802499949,"velocity":0.5275590551181102,"duration":0.1955126249999921},{"name":"F5","midi":77,"time":261.6482426249949,"velocity":0.4409448818897638,"duration":0.052350374999946325},{"name":"A3","midi":57,"time":261.89503724999486,"velocity":0.31496062992125984,"duration":0.19764937500002588},{"name":"C6","midi":84,"time":261.89931074999487,"velocity":0.5118110236220472,"duration":0.11965800000001536},{"name":"D4","midi":62,"time":261.90037912499486,"velocity":0.30708661417322836,"duration":0.2638886250000496},{"name":"A#3","midi":58,"time":261.91106287499485,"velocity":0.2125984251968504,"duration":0.4647431250000409},{"name":"F4","midi":65,"time":261.9142679999949,"velocity":0.2992125984251969,"duration":0.2403843750000192},{"name":"D#5","midi":75,"time":261.91533637499487,"velocity":0.4251968503937008,"duration":0.055555500000025404},{"name":"F5","midi":77,"time":262.1578574999949,"velocity":0.5039370078740157,"duration":0.08974349999999731},{"name":"C5","midi":72,"time":262.1749514999949,"velocity":0.3937007874015748,"duration":0.03739312499999414},{"name":"A#5","midi":82,"time":262.47943837499486,"velocity":0.3937007874015748,"duration":0.4380337500000451},{"name":"G3","midi":55,"time":262.48691699999483,"velocity":0.25984251968503935,"duration":0.308760374999963},{"name":"D4","midi":62,"time":262.4986691249948,"velocity":0.2440944881889764,"duration":0.29059799999993174},{"name":"D5","midi":74,"time":262.50828449999483,"velocity":0.25984251968503935,"duration":0.23611087499995165},{"name":"F4","midi":65,"time":262.5157631249948,"velocity":0.18110236220472442,"duration":0.2660253749999697},{"name":"D4","midi":62,"time":263.03926687499495,"velocity":0.30708661417322836,"duration":0.24572625000013204},{"name":"A#3","midi":58,"time":263.042471999995,"velocity":0.12598425196850394,"duration":0.3173073750000981},{"name":"G3","midi":55,"time":263.045677124995,"velocity":0.29133858267716534,"duration":0.19764937500002588},{"name":"F4","midi":65,"time":263.055292499995,"velocity":0.25196850393700787,"duration":0.20192287500003658},{"name":"C6","midi":84,"time":263.129010374995,"velocity":0.4251968503937008,"duration":0.1944442500000605},{"name":"D#5","midi":75,"time":263.133283874995,"velocity":0.33858267716535434,"duration":0.033119624999983444},{"name":"D6","midi":86,"time":263.26042049999506,"velocity":0.41732283464566927,"duration":0.16346137499999713},{"name":"F5","midi":77,"time":263.2903349999951,"velocity":0.4251968503937008,"duration":0.03846149999998261},{"name":"A#5","midi":82,"time":263.58093299999507,"velocity":0.3937007874015748,"duration":0.27884587500005864},{"name":"D4","midi":62,"time":263.5852064999951,"velocity":0.33070866141732286,"duration":0.28311937500006934},{"name":"D5","midi":74,"time":263.5852064999951,"velocity":0.30708661417322836,"duration":0.178418625000063},{"name":"F3","midi":53,"time":263.5852064999951,"velocity":0.2992125984251969,"duration":0.309828750000122},{"name":"F4","midi":65,"time":263.5852064999951,"velocity":0.1889763779527559,"duration":0.25427325000003975},{"name":"D6","midi":86,"time":263.81597549999515,"velocity":0.48031496062992124,"duration":0.22649550000011232},{"name":"F5","midi":77,"time":263.8309327499951,"velocity":0.3858267716535433,"duration":0.045940125000072385},{"name":"A#3","midi":58,"time":264.08093249999524,"velocity":0.29133858267716534,"duration":0.1143161250000162},{"name":"C6","midi":84,"time":264.09268462499523,"velocity":0.48031496062992124,"duration":0.08012812499998745},{"name":"F3","midi":53,"time":264.1033683749952,"velocity":0.25196850393700787,"duration":0.08867512500000885},{"name":"D4","midi":62,"time":264.1087102499952,"velocity":0.33858267716535434,"duration":0.06944437499998912},{"name":"D#5","midi":75,"time":264.1097786249952,"velocity":0.3858267716535433,"duration":0.039529875000027914},{"name":"F5","midi":77,"time":264.3458894999953,"velocity":0.4881889763779528,"duration":0.1089742499999602},{"name":"C5","midi":72,"time":264.36405187499525,"velocity":0.30708661417322836,"duration":0.05662387500001387},{"name":"A#5","midi":82,"time":264.6514447499953,"velocity":0.47244094488188976,"duration":0.18269212499996001},{"name":"G3","midi":55,"time":264.6674703749953,"velocity":0.28346456692913385,"duration":0.2403843750000192},{"name":"D5","midi":74,"time":264.66853874999526,"velocity":0.3779527559055118,"duration":0.11324775000002774},{"name":"D4","midi":62,"time":264.68563274999525,"velocity":0.25984251968503935,"duration":0.23183737500005464},{"name":"A#3","midi":58,"time":264.69097462499525,"velocity":0.2125984251968504,"duration":0.22649550000005547},{"name":"D#3","midi":51,"time":264.69417974999527,"velocity":0.25196850393700787,"duration":0.21046987500000114},{"name":"G3","midi":55,"time":265.1738801249953,"velocity":0.2992125984251969,"duration":0.19978612499988913},{"name":"A#5","midi":82,"time":265.1909741249953,"velocity":0.4015748031496063,"duration":0.03525637499996037},{"name":"D4","midi":62,"time":265.1984527499953,"velocity":0.2283464566929134,"duration":0.2574783749999483},{"name":"D6","midi":86,"time":265.1995211249953,"velocity":0.4330708661417323,"duration":0.08760674999996354},{"name":"D#6","midi":87,"time":265.28712787499524,"velocity":0.4566929133858268,"duration":0.1762818749999724},{"name":"D6","midi":86,"time":265.43670037499527,"velocity":0.4881889763779528,"duration":0.04700849999994716},{"name":"F6","midi":89,"time":265.44845249999526,"velocity":0.5196850393700787,"duration":0.08226487499996438},{"name":"D6","midi":86,"time":265.7272983749952,"velocity":0.5039370078740157,"duration":0.21474337499989815},{"name":"A#3","midi":58,"time":265.7326402499952,"velocity":0.31496062992125984,"duration":0.3012817499998732},{"name":"A#5","midi":82,"time":265.7369137499952,"velocity":0.47244094488188976,"duration":0.1346152499999107},{"name":"D4","midi":62,"time":265.7390504999952,"velocity":0.29133858267716534,"duration":0.30876037499990616},{"name":"F3","midi":53,"time":265.7443923749952,"velocity":0.28346456692913385,"duration":0.2670937499999013},{"name":"A#5","midi":82,"time":266.0104177499951,"velocity":0.5039370078740157,"duration":0.047008500000004005},{"name":"D5","midi":74,"time":266.01362287499506,"velocity":0.44881889763779526,"duration":0.08333325000006653},{"name":"A#3","midi":58,"time":266.2721696249951,"velocity":0.33070866141732286,"duration":0.28098262500003557},{"name":"C6","midi":84,"time":266.27537474999514,"velocity":0.48031496062992124,"duration":0.23397412500003156},{"name":"D#5","midi":75,"time":266.2775114999951,"velocity":0.4566929133858268,"duration":0.1388887500000351},{"name":"F3","midi":53,"time":266.2892636249951,"velocity":0.31496062992125984,"duration":0.3194441250000182},{"name":"D4","midi":62,"time":266.2978106249951,"velocity":0.14960629921259844,"duration":0.2938031250000108},{"name":"A5","midi":81,"time":266.57879324999516,"velocity":0.5039370078740157,"duration":0.11645287499993628},{"name":"F5","midi":77,"time":266.58947699999516,"velocity":0.3700787401574803,"duration":0.05128199999995786},{"name":"G3","midi":55,"time":266.8886219999951,"velocity":0.33070866141732286,"duration":0.30128175000004376},{"name":"A#5","midi":82,"time":266.8907587499951,"velocity":0.48031496062992124,"duration":0.1997861250000028},{"name":"D4","midi":62,"time":266.8918271249951,"velocity":0.31496062992125984,"duration":0.25854675000005045},{"name":"D5","midi":74,"time":266.9025108749951,"velocity":0.4015748031496063,"duration":0.15384600000004411},{"name":"A#3","midi":58,"time":266.9057159999951,"velocity":0.2677165354330709,"duration":0.23931600000003073},{"name":"F3","midi":53,"time":267.49011712499515,"velocity":0.31496062992125984,"duration":0.07478625000004513},{"name":"A#3","midi":58,"time":267.4933222499952,"velocity":0.30708661417322836,"duration":0.5438028749998693},{"name":"D6","midi":86,"time":267.50934787499517,"velocity":0.4330708661417323,"duration":0.1517092499999535},{"name":"D4","midi":62,"time":267.51468974999517,"velocity":0.2125984251968504,"duration":0.6880334999999604},{"name":"A#5","midi":82,"time":267.5232367499952,"velocity":0.2755905511811024,"duration":0.042734999999993306},{"name":"D#6","midi":87,"time":267.62580074999516,"velocity":0.41732283464566927,"duration":0.12072637499994698},{"name":"C6","midi":84,"time":267.64930499999514,"velocity":0.25984251968503935,"duration":0.0459401249999587},{"name":"F6","midi":89,"time":267.7743048749951,"velocity":0.4645669291338583,"duration":0.11858962499997006},{"name":"D#3","midi":51,"time":267.7839202499951,"velocity":0.3228346456692913,"duration":0.15064087499996504},{"name":"D6","midi":86,"time":267.7881937499951,"velocity":0.3937007874015748,"duration":0.060897374999967724},{"name":"D6","midi":86,"time":268.1225951249951,"velocity":0.4645669291338583,"duration":0.3749996250000436},{"name":"F3","midi":53,"time":268.1322104999951,"velocity":0.3464566929133858,"duration":0.28525612500004627},{"name":"A#5","midi":82,"time":268.1396891249951,"velocity":0.3779527559055118,"duration":0.16025625000003174},{"name":"A#5","midi":82,"time":268.5104152499951,"velocity":0.4409448818897638,"duration":0.05982899999997926},{"name":"D5","midi":74,"time":268.5168254999951,"velocity":0.4015748031496063,"duration":0.10363237500001787},{"name":"C6","midi":84,"time":268.9153293749951,"velocity":0.3937007874015748,"duration":0.5833327500000678},{"name":"D#5","midi":75,"time":268.9153293749951,"velocity":0.36220472440944884,"duration":0.41773462500009373},{"name":"F2","midi":41,"time":268.9420387499951,"velocity":0.29133858267716534,"duration":0.7382471250001004},{"name":"A5","midi":81,"time":269.50079887499516,"velocity":0.41732283464566927,"duration":0.1655981250000309},{"name":"C5","midi":72,"time":269.5307133749952,"velocity":0.25196850393700787,"duration":0.1858972500000391},{"name":"A#5","midi":82,"time":270.4869089999952,"velocity":0.3858267716535433,"duration":5.604695250000304},{"name":"D5","midi":74,"time":270.4869089999952,"velocity":0.30708661417322836,"duration":5.648498625000286},{"name":"A#4","midi":70,"time":270.5007978749952,"velocity":0.2992125984251969,"duration":5.581191000000274},{"name":"A#1","midi":34,"time":270.5125499999952,"velocity":0.14960629921259844,"duration":5.467943250000246},{"name":"A#2","midi":46,"time":270.5168234999952,"velocity":0.23622047244094488,"duration":5.569438875000287}],"controlChanges":{"7":[{"number":7,"time":0.008546999999999999,"value":0.9448818897637795}],"11":[{"number":11,"time":0.005341874999999999,"value":0.8661417322834646}],"32":[{"number":32,"time":0.006410249999999999,"value":0}],"64":[{"number":64,"time":0.21688012499999998,"value":0.11811023622047244},{"number":64,"time":0.42521325,"value":0.2440944881889764},{"number":64,"time":0.633546375,"value":0.3543307086614173},{"number":64,"time":0.8418795,"value":0.49606299212598426},{"number":64,"time":1.050212625,"value":0.5905511811023622},{"number":64,"time":1.25854575,"value":0.7322834645669292},{"number":64,"time":1.466878875,"value":0.8267716535433071},{"number":64,"time":1.675212,"value":1},{"number":64,"time":4.436961374999999,"value":0.9606299212598425},{"number":64,"time":4.456192124999999,"value":0.8976377952755905},{"number":64,"time":4.47649125,"value":0.7795275590551181},{"number":64,"time":4.495722,"value":0.6299212598425197},{"number":64,"time":4.516021125,"value":0.49606299212598426},{"number":64,"time":4.537388625,"value":0.4251968503937008},{"number":64,"time":4.556619375,"value":0.4409448818897638},{"number":64,"time":4.5737133750000005,"value":0.4645669291338583},{"number":64,"time":4.594012500000001,"value":0.47244094488188976},{"number":64,"time":4.614311625000001,"value":0.49606299212598426},{"number":64,"time":4.634610750000001,"value":0.5354330708661418},{"number":64,"time":4.653841500000001,"value":0.5905511811023622},{"number":64,"time":4.6730722500000015,"value":0.6692913385826772},{"number":64,"time":4.692303000000002,"value":0.7401574803149606},{"number":64,"time":4.713670500000002,"value":0.8031496062992126},{"number":64,"time":4.731832875000002,"value":0.8503937007874016},{"number":64,"time":4.752132000000002,"value":0.8818897637795275},{"number":64,"time":4.791661875000003,"value":0.9133858267716536},{"number":64,"time":4.987174500000003,"value":0.8740157480314961},{"number":64,"time":5.009610375000003,"value":0.8188976377952756},{"number":64,"time":5.027772750000003,"value":0.7401574803149606},{"number":64,"time":5.048071875000003,"value":0.6692913385826772},{"number":64,"time":5.0662342500000035,"value":0.6456692913385826},{"number":64,"time":5.105764125000004,"value":0.6771653543307087},{"number":64,"time":5.123926500000004,"value":0.7086614173228346},{"number":64,"time":5.145294000000004,"value":0.7480314960629921},{"number":64,"time":5.162388000000004,"value":0.7874015748031497},{"number":64,"time":5.182687125000005,"value":0.8188976377952756},{"number":64,"time":5.612173875000004,"value":0.7637795275590551},{"number":64,"time":5.6314046250000045,"value":0.6692913385826772},{"number":64,"time":5.651703750000005,"value":0.5275590551181102},{"number":64,"time":5.670934500000005,"value":0.33070866141732286},{"number":64,"time":5.690165250000005,"value":0.11811023622047244},{"number":64,"time":5.729695125000005,"value":0.15748031496062992},{"number":64,"time":5.749994250000006,"value":0.23622047244094488},{"number":64,"time":5.770293375000006,"value":0.33070866141732286},{"number":64,"time":5.789524125000006,"value":0.4251968503937008},{"number":64,"time":5.809823250000006,"value":0.48031496062992124},{"number":64,"time":5.829054000000006,"value":0.5118110236220472},{"number":64,"time":5.848284750000007,"value":0.5433070866141733},{"number":64,"time":5.868583875000007,"value":0.5984251968503937},{"number":64,"time":5.886746250000007,"value":0.6614173228346457},{"number":64,"time":5.905977000000007,"value":0.7244094488188977},{"number":64,"time":5.926276125000007,"value":0.7716535433070866},{"number":64,"time":5.964737625000008,"value":0.8188976377952756},{"number":64,"time":6.006404250000008,"value":0.8503937007874016},{"number":64,"time":6.865377750000008,"value":0.8188976377952756},{"number":64,"time":6.886745250000009,"value":0.7559055118110236},{"number":64,"time":6.903839250000009,"value":0.6377952755905512},{"number":64,"time":6.926275125000009,"value":0.5039370078740157},{"number":64,"time":6.945505875000009,"value":0.3464566929133858},{"number":64,"time":6.963668250000009,"value":0.29133858267716534},{"number":64,"time":7.00426650000001,"value":0.36220472440944884},{"number":64,"time":7.02349725000001,"value":0.4251968503937008},{"number":64,"time":7.04379637500001,"value":0.47244094488188976},{"number":64,"time":7.06516387500001,"value":0.5196850393700787},{"number":64,"time":7.0822578750000105,"value":0.5511811023622047},{"number":64,"time":7.101488625000011,"value":0.5984251968503937},{"number":64,"time":7.121787750000011,"value":0.6456692913385826},{"number":64,"time":7.142086875000011,"value":0.6929133858267716},{"number":64,"time":7.160249250000011,"value":0.7401574803149606},{"number":64,"time":7.175206500000011,"value":0.7874015748031497},{"number":64,"time":7.1944372500000116,"value":0.8267716535433071},{"number":64,"time":7.235035500000012,"value":0.8582677165354331},{"number":64,"time":7.976487750000013,"value":0.8031496062992126},{"number":64,"time":7.996786875000013,"value":0.7401574803149606},{"number":64,"time":8.018154375000012,"value":0.6377952755905512},{"number":64,"time":8.037385125000013,"value":0.5511811023622047},{"number":64,"time":8.057684250000012,"value":0.5196850393700787},{"number":64,"time":8.075846625000011,"value":0.5275590551181102},{"number":64,"time":8.09614575000001,"value":0.5511811023622047},{"number":64,"time":8.11537650000001,"value":0.5905511811023622},{"number":64,"time":8.13567562500001,"value":0.6299212598425197},{"number":64,"time":8.15383800000001,"value":0.6692913385826772},{"number":64,"time":8.174137125000009,"value":0.7007874015748031},{"number":64,"time":8.212598625000007,"value":0.7480314960629921},{"number":64,"time":8.253196875000008,"value":0.7874015748031497},{"number":64,"time":8.293795125000008,"value":0.8267716535433071},{"number":64,"time":8.425205250000008,"value":0.7795275590551181},{"number":64,"time":8.444436000000008,"value":0.7480314960629921},{"number":64,"time":8.466871875000008,"value":0.7165354330708661},{"number":64,"time":9.076914000000004,"value":0.6614173228346457},{"number":64,"time":9.097213125000003,"value":0.5669291338582677},{"number":64,"time":9.116443875000002,"value":0.4251968503937008},{"number":64,"time":9.136743000000001,"value":0.2677165354330709},{"number":64,"time":9.193366875,"value":0.3464566929133858},{"number":64,"time":9.21580275,"value":0.4094488188976378},{"number":64,"time":9.233965125,"value":0.4645669291338583},{"number":64,"time":9.254264249999999,"value":0.5118110236220472},{"number":64,"time":9.273494999999999,"value":0.5511811023622047},{"number":64,"time":9.294862499999999,"value":0.6141732283464567},{"number":64,"time":9.313024874999998,"value":0.6771653543307087},{"number":64,"time":9.332255624999997,"value":0.7401574803149606},{"number":64,"time":9.351486374999995,"value":0.8031496062992126},{"number":64,"time":9.372853874999995,"value":0.8503937007874016},{"number":64,"time":9.405973499999995,"value":0.8818897637795275},{"number":64,"time":9.722212499999994,"value":0.8503937007874016},{"number":64,"time":11.463663749999986,"value":0.8188976377952756},{"number":64,"time":11.483962874999985,"value":0.7322834645669292},{"number":64,"time":11.504261999999985,"value":0.5669291338582677},{"number":64,"time":11.522424374999984,"value":0.33858267716535434},{"number":64,"time":11.543791874999984,"value":0},{"number":64,"time":11.582253374999985,"value":0.11811023622047244},{"number":64,"time":11.601484124999983,"value":0.25196850393700787},{"number":64,"time":11.621783249999982,"value":0.3700787401574803},{"number":64,"time":11.642082374999982,"value":0.4566929133858268},{"number":64,"time":11.659176374999982,"value":0.5118110236220472},{"number":64,"time":11.679475499999981,"value":0.5590551181102362},{"number":64,"time":11.698706249999981,"value":0.6141732283464567},{"number":64,"time":11.720073749999981,"value":0.6850393700787402},{"number":64,"time":11.73823612499998,"value":0.7559055118110236},{"number":64,"time":11.756398499999978,"value":0.8346456692913385},{"number":64,"time":11.776697624999976,"value":0.8976377952755905},{"number":64,"time":11.798065124999976,"value":0.9448818897637795},{"number":64,"time":12.522423374999969,"value":0.8503937007874016},{"number":64,"time":12.542722499999968,"value":0.7007874015748031},{"number":64,"time":12.563021624999967,"value":0.5275590551181102},{"number":64,"time":12.580115624999967,"value":0.4251968503937008},{"number":64,"time":12.600414749999967,"value":0.4566929133858268},{"number":64,"time":12.619645499999967,"value":0.49606299212598426},{"number":64,"time":12.641012999999967,"value":0.5669291338582677},{"number":64,"time":12.658106999999967,"value":0.6535433070866141},{"number":64,"time":12.678406124999967,"value":0.7322834645669292},{"number":64,"time":12.697636874999967,"value":0.7795275590551181},{"number":64,"time":12.755329124999966,"value":0.8110236220472441},{"number":64,"time":13.63994362499996,"value":0.7244094488188977},{"number":64,"time":13.66024274999996,"value":0.5984251968503937},{"number":64,"time":13.678405124999959,"value":0.4094488188976378},{"number":64,"time":13.698704249999958,"value":0.10236220472440945},{"number":64,"time":13.737165749999958,"value":0.14173228346456693},{"number":64,"time":13.755328124999956,"value":0.2440944881889764},{"number":64,"time":13.777763999999955,"value":0.3543307086614173},{"number":64,"time":13.798063124999954,"value":0.44881889763779526},{"number":64,"time":13.816225499999954,"value":0.5039370078740157},{"number":64,"time":13.837592999999954,"value":0.5433070866141733},{"number":64,"time":13.856823749999954,"value":0.5826771653543307},{"number":64,"time":13.879259624999953,"value":0.6299212598425197},{"number":64,"time":13.897421999999953,"value":0.6850393700787402},{"number":64,"time":13.914515999999953,"value":0.7401574803149606},{"number":64,"time":13.933746749999951,"value":0.8031496062992126},{"number":64,"time":13.95404587499995,"value":0.84251968503937},{"number":64,"time":14.58011362499995,"value":0.8740157480314961},{"number":64,"time":14.67840412499995,"value":0.8267716535433071},{"number":64,"time":14.699771624999949,"value":0.7165354330708661},{"number":64,"time":14.719002374999947,"value":0.5433070866141733},{"number":64,"time":14.737164749999947,"value":0.3543307086614173},{"number":64,"time":14.755327124999946,"value":0.3228346456692913},{"number":64,"time":14.775626249999945,"value":0.3700787401574803},{"number":64,"time":14.796993749999945,"value":0.44881889763779526},{"number":64,"time":14.816224499999946,"value":0.5196850393700787},{"number":64,"time":14.835455249999946,"value":0.5826771653543307},{"number":64,"time":14.855754374999945,"value":0.6456692913385826},{"number":64,"time":14.876053499999944,"value":0.7086614173228346},{"number":64,"time":14.895284249999944,"value":0.7637795275590551},{"number":64,"time":14.912378249999943,"value":0.7952755905511811},{"number":64,"time":15.01280549999994,"value":0.8267716535433071},{"number":64,"time":15.794855999999935,"value":0.6929133858267716},{"number":64,"time":15.816223499999934,"value":0.5196850393700787},{"number":64,"time":15.835454249999932,"value":0.33070866141732286},{"number":64,"time":15.877120874999932,"value":0.3543307086614173},{"number":64,"time":15.896351624999932,"value":0.4409448818897638},{"number":64,"time":15.913445624999932,"value":0.5275590551181102},{"number":64,"time":15.933744749999931,"value":0.6062992125984252},{"number":64,"time":15.955112249999932,"value":0.7165354330708661},{"number":64,"time":15.973274624999931,"value":0.8267716535433071},{"number":64,"time":15.99143699999993,"value":0.905511811023622},{"number":64,"time":16.07049674999993,"value":0.937007874015748},{"number":64,"time":16.873914749999916,"value":0.905511811023622},{"number":64,"time":16.894213874999917,"value":0.7874015748031497},{"number":64,"time":16.912376249999916,"value":0.6062992125984252},{"number":64,"time":16.933743749999916,"value":0.4094488188976378},{"number":64,"time":16.952974499999915,"value":0.3228346456692913},{"number":64,"time":16.972205249999913,"value":0.36220472440944884},{"number":64,"time":16.990367624999912,"value":0.44881889763779526},{"number":64,"time":17.00959837499991,"value":0.5275590551181102},{"number":64,"time":17.03203424999991,"value":0.5984251968503937},{"number":64,"time":17.05019662499991,"value":0.6614173228346457},{"number":64,"time":17.07049574999991,"value":0.7165354330708661},{"number":64,"time":17.09079487499991,"value":0.7559055118110236},{"number":64,"time":17.111093999999913,"value":0.7874015748031497},{"number":64,"time":17.14955549999991,"value":0.8346456692913385},{"number":64,"time":17.230751999999907,"value":0.889763779527559},{"number":64,"time":17.251051124999904,"value":0.9291338582677166},{"number":64,"time":17.269213499999903,"value":0.9763779527559056},{"number":64,"time":17.391008249999906,"value":0.8818897637795275},{"number":64,"time":17.425196249999907,"value":0.7480314960629921},{"number":64,"time":17.431606499999905,"value":0.6535433070866141},{"number":64,"time":17.471136374999904,"value":0.7322834645669292},{"number":64,"time":17.490367124999903,"value":0.8503937007874016},{"number":64,"time":17.508529499999902,"value":1},{"number":64,"time":17.943358124999904,"value":0.9606299212598425},{"number":64,"time":17.962588874999902,"value":0.7874015748031497},{"number":64,"time":17.982887999999903,"value":0.5669291338582677},{"number":64,"time":18.0031871249999,"value":0.2992125984251969},{"number":64,"time":18.0234862499999,"value":0.12598425196850394},{"number":64,"time":18.042716999999897,"value":0.2047244094488189},{"number":64,"time":18.063016124999898,"value":0.3779527559055118},{"number":64,"time":18.0833152499999,"value":0.5039370078740157},{"number":64,"time":18.102545999999897,"value":0.5984251968503937},{"number":64,"time":18.123913499999897,"value":0.7086614173228346},{"number":64,"time":18.142075874999897,"value":0.8267716535433071},{"number":64,"time":18.161306624999895,"value":0.9133858267716536},{"number":64,"time":18.220067249999897,"value":0.9448818897637795},{"number":64,"time":19.120707374999892,"value":0.905511811023622},{"number":64,"time":19.142074874999892,"value":0.7874015748031497},{"number":64,"time":19.16130562499989,"value":0.6299212598425197},{"number":64,"time":19.181604749999888,"value":0.5118110236220472},{"number":64,"time":19.199767124999887,"value":0.5039370078740157},{"number":64,"time":19.222202999999887,"value":0.5433070866141733},{"number":64,"time":19.239296999999887,"value":0.6062992125984252},{"number":64,"time":19.259596124999888,"value":0.7086614173228346},{"number":64,"time":19.278826874999886,"value":0.7952755905511811},{"number":64,"time":19.299125999999887,"value":0.8661417322834646},{"number":64,"time":19.338655874999883,"value":0.8976377952755905},{"number":64,"time":19.785236624999882,"value":0.8661417322834646},{"number":64,"time":19.805535749999883,"value":0.8346456692913385},{"number":64,"time":19.824766499999882,"value":0.7244094488188977},{"number":64,"time":19.845065624999883,"value":0.5354330708661418},{"number":64,"time":19.86429637499988,"value":0.06299212598425197},{"number":64,"time":19.884595499999882,"value":0},{"number":64,"time":19.961518499999883,"value":0.2283464566929134},{"number":64,"time":19.98074924999988,"value":0.4251968503937008},{"number":64,"time":19.99997999999988,"value":0.5118110236220472},{"number":64,"time":20.02027912499988,"value":0.5748031496062992},{"number":64,"time":20.03950987499988,"value":0.6535433070866141},{"number":64,"time":20.06087737499988,"value":0.7244094488188977},{"number":64,"time":20.080108124999878,"value":0.7795275590551181},{"number":64,"time":20.099338874999876,"value":0.8267716535433071},{"number":64,"time":20.139937124999875,"value":0.8661417322834646},{"number":64,"time":20.177330249999876,"value":0.8976377952755905},{"number":64,"time":20.217928499999875,"value":0.952755905511811},{"number":64,"time":20.237159249999873,"value":0.9921259842519685},{"number":64,"time":21.060876374999875,"value":0.905511811023622},{"number":64,"time":21.079038749999874,"value":0.7165354330708661},{"number":64,"time":21.099337874999875,"value":0.4881889763779528},{"number":64,"time":21.118568624999874,"value":0},{"number":64,"time":21.177329249999875,"value":0.14173228346456693},{"number":64,"time":21.196559999999874,"value":0.3228346456692913},{"number":64,"time":21.215790749999872,"value":0.4330708661417323},{"number":64,"time":21.23502149999987,"value":0.5039370078740157},{"number":64,"time":21.25532062499987,"value":0.5590551181102362},{"number":64,"time":21.27455137499987,"value":0.6299212598425197},{"number":64,"time":21.29485049999987,"value":0.7322834645669292},{"number":64,"time":21.31408124999987,"value":0.8346456692913385},{"number":64,"time":21.33224362499987,"value":0.8976377952755905},{"number":64,"time":21.354679499999868,"value":0.9291338582677166},{"number":64,"time":21.428397374999868,"value":0.9763779527559056},{"number":64,"time":23.87924962499986,"value":0.8582677165354331},{"number":64,"time":23.89741199999986,"value":0.6692913385826772},{"number":64,"time":23.91877949999986,"value":0.4645669291338583},{"number":64,"time":23.93801024999986,"value":0.23622047244094488},{"number":64,"time":23.97540337499986,"value":0.30708661417322836},{"number":64,"time":23.99570249999986,"value":0.3937007874015748},{"number":64,"time":24.01493324999986,"value":0.48031496062992124},{"number":64,"time":24.03630074999986,"value":0.5433070866141733},{"number":64,"time":24.05553149999986,"value":0.6062992125984252},{"number":64,"time":24.07583062499986,"value":0.6771653543307087},{"number":64,"time":24.09612974999986,"value":0.7480314960629921},{"number":64,"time":24.11429212499986,"value":0.8267716535433071},{"number":64,"time":24.13352287499986,"value":0.8818897637795275},{"number":64,"time":24.15382199999986,"value":0.9212598425196851},{"number":64,"time":24.350402999999858,"value":0.8267716535433071},{"number":64,"time":24.370702124999855,"value":0.7086614173228346},{"number":64,"time":24.404890124999856,"value":0.6141732283464567},{"number":64,"time":24.425189249999857,"value":0.5984251968503937},{"number":64,"time":24.444419999999855,"value":0.6299212598425197},{"number":64,"time":24.464719124999853,"value":0.6929133858267716},{"number":64,"time":24.48394987499985,"value":0.7874015748031497},{"number":64,"time":24.50211224999985,"value":0.8740157480314961},{"number":64,"time":24.52241137499985,"value":0.9133858267716536},{"number":64,"time":24.601471124999854,"value":0.9606299212598425},{"number":64,"time":25.21151324999985,"value":0.9921259842519685},{"number":64,"time":26.17198237499985,"value":0.9606299212598425},{"number":64,"time":26.19334987499985,"value":0.8346456692913385},{"number":64,"time":26.21258062499985,"value":0.6692913385826772},{"number":64,"time":26.230742999999848,"value":0.5196850393700787},{"number":64,"time":26.25104212499985,"value":0.4094488188976378},{"number":64,"time":26.290571999999848,"value":0.4566929133858268},{"number":64,"time":26.309802749999847,"value":0.5118110236220472},{"number":64,"time":26.329033499999845,"value":0.5669291338582677},{"number":64,"time":26.348264249999843,"value":0.6377952755905512},{"number":64,"time":26.368563374999844,"value":0.7086614173228346},{"number":64,"time":26.404888124999843,"value":0.7795275590551181},{"number":64,"time":26.425187249999844,"value":0.84251968503937},{"number":64,"time":26.44228124999984,"value":0.8976377952755905},{"number":64,"time":26.46364874999984,"value":0.9448818897637795},{"number":64,"time":26.50211024999984,"value":0.984251968503937},{"number":64,"time":26.65916137499984,"value":0.952755905511811},{"number":64,"time":26.67839212499984,"value":0.8031496062992126},{"number":64,"time":26.69975962499984,"value":0.6141732283464567},{"number":64,"time":26.72005874999984,"value":0.47244094488188976},{"number":64,"time":26.73928949999984,"value":0.41732283464566927},{"number":64,"time":26.77775099999984,"value":0.4645669291338583},{"number":64,"time":26.79911849999984,"value":0.5196850393700787},{"number":64,"time":26.81621249999984,"value":0.5984251968503937},{"number":64,"time":26.835443249999837,"value":0.7086614173228346},{"number":64,"time":26.85574237499984,"value":0.84251968503937},{"number":64,"time":26.87604149999984,"value":0.9448818897637795},{"number":64,"time":26.895272249999838,"value":1},{"number":64,"time":27.289502624999834,"value":0.84251968503937},{"number":64,"time":27.306596624999834,"value":0.6377952755905512},{"number":64,"time":27.327964124999834,"value":0.3700787401574803},{"number":64,"time":27.347194874999833,"value":0},{"number":64,"time":27.44334862499983,"value":0.2755905511811024},{"number":64,"time":27.463647749999833,"value":0.4251968503937008},{"number":64,"time":27.48287849999983,"value":0.5039370078740157},{"number":64,"time":27.50210924999983,"value":0.5590551181102362},{"number":64,"time":27.52027162499983,"value":0.6456692913385826},{"number":64,"time":27.54163912499983,"value":0.7637795275590551},{"number":64,"time":27.560869874999828,"value":0.889763779527559},{"number":64,"time":27.579032249999827,"value":0.9921259842519685},{"number":64,"time":27.895271249999823,"value":0.8267716535433071},{"number":64,"time":27.916638749999823,"value":0.6771653543307087},{"number":64,"time":27.936937874999824,"value":0.5826771653543307},{"number":64,"time":27.957236999999825,"value":0.6062992125984252},{"number":64,"time":27.976467749999824,"value":0.6929133858267716},{"number":64,"time":27.993561749999824,"value":0.84251968503937},{"number":64,"time":28.014929249999824,"value":1},{"number":64,"time":28.425185249999824,"value":0.9133858267716536},{"number":64,"time":28.444415999999823,"value":0.7165354330708661},{"number":64,"time":28.46364674999982,"value":0.5118110236220472},{"number":64,"time":28.483945874999822,"value":0.2125984251968504},{"number":64,"time":28.50317662499982,"value":0.10236220472440945},{"number":64,"time":28.52240737499982,"value":0.2047244094488189},{"number":64,"time":28.541638124999817,"value":0.36220472440944884},{"number":64,"time":28.560868874999816,"value":0.4881889763779528},{"number":64,"time":28.580099624999814,"value":0.5669291338582677},{"number":64,"time":28.600398749999815,"value":0.6692913385826772},{"number":64,"time":28.620697874999816,"value":0.7952755905511811},{"number":64,"time":28.639928624999815,"value":0.9133858267716536},{"number":64,"time":28.661296124999815,"value":0.984251968503937},{"number":64,"time":29.40167999999981,"value":0.8661417322834646},{"number":64,"time":29.421979124999808,"value":0.6535433070866141},{"number":64,"time":29.44227824999981,"value":0.3700787401574803},{"number":64,"time":29.46364574999981,"value":0},{"number":64,"time":29.52026962499981,"value":0.2283464566929134},{"number":64,"time":29.54056874999981,"value":0.4094488188976378},{"number":64,"time":29.56086787499981,"value":0.5039370078740157},{"number":64,"time":29.57903024999981,"value":0.5669291338582677},{"number":64,"time":29.59826099999981,"value":0.6692913385826772},{"number":64,"time":29.617491749999807,"value":0.7874015748031497},{"number":64,"time":29.638859249999808,"value":0.8976377952755905},{"number":64,"time":29.658089999999806,"value":0.9606299212598425},{"number":64,"time":29.678389124999807,"value":0.9921259842519685},{"number":64,"time":30.599328374999807,"value":0.952755905511811},{"number":64,"time":30.618559124999805,"value":0.8740157480314961},{"number":64,"time":30.639926624999806,"value":0.7007874015748031},{"number":64,"time":30.660225749999807,"value":0.44881889763779526},{"number":64,"time":30.678388124999806,"value":0},{"number":64,"time":30.757447874999805,"value":0.33858267716535434},{"number":64,"time":30.776678624999803,"value":0.48031496062992124},{"number":64,"time":30.798046124999804,"value":0.5748031496062992},{"number":64,"time":30.817276874999802,"value":0.6850393700787402},{"number":64,"time":30.834370874999802,"value":0.8188976377952756},{"number":64,"time":30.855738374999802,"value":0.9291338582677166},{"number":64,"time":30.8749691249998,"value":0.968503937007874},{"number":64,"time":31.0341569999998,"value":1},{"number":64,"time":31.1495414999998,"value":0.968503937007874},{"number":64,"time":31.1912081249998,"value":0.9133858267716536},{"number":64,"time":31.2093704999998,"value":0.8740157480314961},{"number":64,"time":31.717916999999797,"value":0.8188976377952756},{"number":64,"time":31.736079374999797,"value":0.7086614173228346},{"number":64,"time":31.756378499999798,"value":0.5354330708661418},{"number":64,"time":31.775609249999796,"value":0.23622047244094488},{"number":64,"time":31.790566499999795,"value":0},{"number":64,"time":31.810865624999796,"value":0.06299212598425197},{"number":64,"time":31.827959624999796,"value":0.31496062992125984},{"number":64,"time":31.848258749999797,"value":0.4645669291338583},{"number":64,"time":31.867489499999795,"value":0.5354330708661418},{"number":64,"time":31.888856999999796,"value":0.5905511811023622},{"number":64,"time":31.908087749999794,"value":0.6614173228346457},{"number":64,"time":31.927318499999792,"value":0.7401574803149606},{"number":64,"time":31.948685999999793,"value":0.8110236220472441},{"number":64,"time":31.96791674999979,"value":0.8582677165354331},{"number":64,"time":32.00637824999979,"value":0.889763779527559},{"number":64,"time":32.103600374999786,"value":0.9212598425196851},{"number":64,"time":32.28095062499979,"value":0.8818897637795275},{"number":64,"time":32.30338649999979,"value":0.8031496062992126},{"number":64,"time":32.32154887499979,"value":0.6692913385826772},{"number":64,"time":32.34291637499979,"value":0.5433070866141733},{"number":64,"time":32.36214712499979,"value":0.4881889763779528},{"number":64,"time":32.381377874999785,"value":0.5118110236220472},{"number":64,"time":32.418770999999786,"value":0.5433070866141733},{"number":64,"time":32.43693337499978,"value":0.6062992125984252},{"number":64,"time":32.458300874999786,"value":0.6929133858267716},{"number":64,"time":32.47859999999979,"value":0.7795275590551181},{"number":64,"time":32.49569399999979,"value":0.8346456692913385},{"number":64,"time":32.514924749999786,"value":0.8740157480314961},{"number":64,"time":32.55552299999979,"value":0.905511811023622},{"number":64,"time":32.75103562499979,"value":0.8661417322834646},{"number":64,"time":32.82795862499979,"value":0.8346456692913385},{"number":64,"time":32.86748849999979,"value":0.7559055118110236},{"number":64,"time":32.888855999999784,"value":0.6692913385826772},{"number":64,"time":32.909155124999785,"value":0.5433070866141733},{"number":64,"time":32.929454249999786,"value":0.33070866141732286},{"number":64,"time":32.948684999999784,"value":0},{"number":64,"time":33.065137874999785,"value":0.3228346456692913},{"number":64,"time":33.085436999999786,"value":0.47244094488188976},{"number":64,"time":33.10573612499979,"value":0.5354330708661418},{"number":64,"time":33.12389849999979,"value":0.5984251968503937},{"number":64,"time":33.145265999999786,"value":0.6771653543307087},{"number":64,"time":33.16342837499979,"value":0.7559055118110236},{"number":64,"time":33.18479587499979,"value":0.8110236220472441},{"number":64,"time":33.43693237499979,"value":0.7480314960629921},{"number":64,"time":33.455094749999795,"value":0.6220472440944882},{"number":64,"time":33.4743254999998,"value":0.47244094488188976},{"number":64,"time":33.495692999999804,"value":0.3464566929133858},{"number":64,"time":33.5352228749998,"value":0.4251968503937008},{"number":64,"time":33.555521999999804,"value":0.5039370078740157},{"number":64,"time":33.57368437499981,"value":0.5590551181102362},{"number":64,"time":33.592915124999806,"value":0.6220472440944882},{"number":64,"time":33.6142826249998,"value":0.6692913385826772},{"number":64,"time":33.632444999999805,"value":0.7007874015748031},{"number":64,"time":33.671974874999805,"value":0.7480314960629921},{"number":64,"time":33.711504749999804,"value":0.7874015748031497},{"number":64,"time":34.026675374999805,"value":0.7007874015748031},{"number":64,"time":34.0459061249998,"value":0.5669291338582677},{"number":64,"time":34.0630001249998,"value":0.3543307086614173},{"number":64,"time":34.0843676249998,"value":0},{"number":64,"time":34.1238974999998,"value":0.16535433070866143},{"number":64,"time":34.1441966249998,"value":0.3700787401574803},{"number":64,"time":34.1644957499998,"value":0.4881889763779528},{"number":64,"time":34.1837264999998,"value":0.5511811023622047},{"number":64,"time":34.2050939999998,"value":0.6141732283464567},{"number":64,"time":34.224324749999795,"value":0.6850393700787402},{"number":64,"time":34.241418749999795,"value":0.7480314960629921},{"number":64,"time":34.2606494999998,"value":0.7874015748031497},{"number":64,"time":34.3012477499998,"value":0.8188976377952756},{"number":64,"time":34.65274312499981,"value":0.7874015748031497},{"number":64,"time":34.67197387499981,"value":0.7165354330708661},{"number":64,"time":34.691204624999806,"value":0.5826771653543307},{"number":64,"time":34.71150374999981,"value":0.4645669291338583},{"number":64,"time":34.73180287499981,"value":0.4330708661417323},{"number":64,"time":34.74889687499981,"value":0.47244094488188976},{"number":64,"time":34.768127624999806,"value":0.5275590551181102},{"number":64,"time":34.7894951249998,"value":0.5905511811023622},{"number":64,"time":34.8087258749998,"value":0.6692913385826772},{"number":64,"time":34.8279566249998,"value":0.7401574803149606},{"number":64,"time":34.8471873749998,"value":0.7952755905511811},{"number":64,"time":34.8664181249998,"value":0.84251968503937},{"number":64,"time":34.88778562499979,"value":0.8740157480314961},{"number":64,"time":34.9262471249998,"value":0.9133858267716536},{"number":64,"time":35.0042384999998,"value":0.9448818897637795},{"number":64,"time":35.2403493749998,"value":0.905511811023622},{"number":64,"time":35.27987924999981,"value":0.8188976377952756},{"number":64,"time":35.29910999999981,"value":0.7007874015748031},{"number":64,"time":35.31727237499981,"value":0.5275590551181102},{"number":64,"time":35.33863987499981,"value":0.18110236220472442},{"number":64,"time":35.35893899999981,"value":0},{"number":64,"time":35.434793624999806,"value":0.1732283464566929},{"number":64,"time":35.45295599999981,"value":0.3779527559055118},{"number":64,"time":35.474323499999805,"value":0.4881889763779528},{"number":64,"time":35.491417499999805,"value":0.5511811023622047},{"number":64,"time":35.5127849999998,"value":0.6299212598425197},{"number":64,"time":35.5320157499998,"value":0.7244094488188977},{"number":64,"time":35.5512464999998,"value":0.8110236220472441},{"number":64,"time":35.5704772499998,"value":0.8740157480314961},{"number":64,"time":35.6100071249998,"value":0.905511811023622},{"number":64,"time":35.7296651249998,"value":0.9448818897637795},{"number":64,"time":35.8258188749998,"value":0.8818897637795275},{"number":64,"time":35.845049624999795,"value":0.7952755905511811},{"number":64,"time":35.8664171249998,"value":0.6614173228346457},{"number":64,"time":35.88671624999979,"value":0.5275590551181102},{"number":64,"time":35.90594699999979,"value":0.48031496062992124},{"number":64,"time":35.92517774999979,"value":0.5196850393700787},{"number":64,"time":35.94654524999979,"value":0.5748031496062992},{"number":64,"time":35.965775999999785,"value":0.6614173228346457},{"number":64,"time":35.982869999999785,"value":0.7637795275590551},{"number":64,"time":36.003169124999786,"value":0.84251968503937},{"number":64,"time":36.04376737499978,"value":0.8740157480314961},{"number":64,"time":36.201886874999786,"value":0.905511811023622},{"number":64,"time":36.45188662499979,"value":0.8582677165354331},{"number":64,"time":36.471117374999785,"value":0.8188976377952756},{"number":64,"time":36.49141649999979,"value":0.7401574803149606},{"number":64,"time":36.51171562499979,"value":0.5905511811023622},{"number":64,"time":36.530946374999786,"value":0.3779527559055118},{"number":64,"time":36.55124549999979,"value":0},{"number":64,"time":36.62816849999979,"value":0.1889763779527559},{"number":64,"time":36.649535999999785,"value":0.36220472440944884},{"number":64,"time":36.66876674999978,"value":0.47244094488188976},{"number":64,"time":36.68799749999978,"value":0.5354330708661418},{"number":64,"time":36.70829662499978,"value":0.5984251968503937},{"number":64,"time":36.72966412499978,"value":0.6614173228346457},{"number":64,"time":36.74782649999978,"value":0.7244094488188977},{"number":64,"time":36.765988874999785,"value":0.7874015748031497},{"number":64,"time":36.788424749999784,"value":0.8346456692913385},{"number":64,"time":36.80658712499979,"value":0.8661417322834646},{"number":64,"time":36.84398024999979,"value":0.8976377952755905},{"number":64,"time":37.04269799999979,"value":0.8582677165354331},{"number":64,"time":37.060860374999784,"value":0.8031496062992126},{"number":64,"time":37.08009112499978,"value":0.7480314960629921},{"number":64,"time":37.10039024999978,"value":0.7007874015748031},{"number":64,"time":37.15915087499978,"value":0.7401574803149606},{"number":64,"time":37.19974912499978,"value":0.8031496062992126},{"number":64,"time":37.22004824999978,"value":0.8346456692913385},{"number":64,"time":37.23821062499978,"value":0.8661417322834646},{"number":64,"time":37.66662899999977,"value":0.8267716535433071},{"number":64,"time":37.686928124999774,"value":0.7795275590551181},{"number":64,"time":37.707227249999775,"value":0.6692913385826772},{"number":64,"time":37.72752637499977,"value":0.5039370078740157},{"number":64,"time":37.74675712499977,"value":0.11811023622047244},{"number":64,"time":37.76491949999977,"value":0},{"number":64,"time":37.842910874999774,"value":0.1889763779527559},{"number":64,"time":37.86427837499977,"value":0.3858267716535433},{"number":64,"time":37.88350912499977,"value":0.4881889763779528},{"number":64,"time":37.90380824999977,"value":0.5433070866141733},{"number":64,"time":37.92303899999977,"value":0.5905511811023622},{"number":64,"time":37.94333812499977,"value":0.6535433070866141},{"number":64,"time":37.96363724999977,"value":0.7244094488188977},{"number":64,"time":37.98179962499977,"value":0.7874015748031497},{"number":64,"time":38.00103037499977,"value":0.8267716535433071},{"number":64,"time":38.04056024999977,"value":0.8661417322834646},{"number":64,"time":38.07795337499977,"value":0.905511811023622},{"number":64,"time":38.27667112499977,"value":0.84251968503937},{"number":64,"time":38.29590187499977,"value":0.7401574803149606},{"number":64,"time":38.31513262499978,"value":0.5748031496062992},{"number":64,"time":38.334363374999775,"value":0.3858267716535433},{"number":64,"time":38.354662499999776,"value":0.2755905511811024},{"number":64,"time":38.37496162499978,"value":0.31496062992125984},{"number":64,"time":38.41021799999978,"value":0.4015748031496063},{"number":64,"time":38.43265387499978,"value":0.4881889763779528},{"number":64,"time":38.45081624999978,"value":0.5433070866141733},{"number":64,"time":38.47111537499978,"value":0.5905511811023622},{"number":64,"time":38.488209374999784,"value":0.6535433070866141},{"number":64,"time":38.50957687499978,"value":0.7165354330708661},{"number":64,"time":38.52880762499978,"value":0.7874015748031497},{"number":64,"time":38.54696999999978,"value":0.84251968503937},{"number":64,"time":38.587568249999784,"value":0.8740157480314961},{"number":64,"time":38.66769637499978,"value":0.905511811023622},{"number":64,"time":38.862140624999775,"value":0.8582677165354331},{"number":64,"time":38.88137137499978,"value":0.7795275590551181},{"number":64,"time":38.901670499999774,"value":0.6377952755905512},{"number":64,"time":38.92090124999977,"value":0.48031496062992124},{"number":64,"time":38.94226874999977,"value":0.28346456692913385},{"number":64,"time":38.96256787499977,"value":0.2283464566929134},{"number":64,"time":38.97966187499977,"value":0.2755905511811024},{"number":64,"time":38.99996099999977,"value":0.3779527559055118},{"number":64,"time":39.01919174999977,"value":0.4645669291338583},{"number":64,"time":39.04162762499977,"value":0.5196850393700787},{"number":64,"time":39.05978999999977,"value":0.5590551181102362},{"number":64,"time":39.077952374999775,"value":0.5984251968503937},{"number":64,"time":39.09718312499977,"value":0.6535433070866141},{"number":64,"time":39.11855062499977,"value":0.7086614173228346},{"number":64,"time":39.13778137499977,"value":0.7637795275590551},{"number":64,"time":39.15701212499977,"value":0.8110236220472441},{"number":64,"time":39.17731124999977,"value":0.84251968503937},{"number":64,"time":39.21790949999977,"value":0.8818897637795275},{"number":64,"time":39.27560174999977,"value":0.9291338582677166},{"number":64,"time":39.312994874999774,"value":0.968503937007874},{"number":64,"time":39.45081524999977,"value":0.905511811023622},{"number":64,"time":39.46790924999977,"value":0.7952755905511811},{"number":64,"time":39.489276749999775,"value":0.6299212598425197},{"number":64,"time":39.509575874999776,"value":0.4645669291338583},{"number":64,"time":39.52987499999978,"value":0.36220472440944884},{"number":64,"time":39.54803737499978,"value":0.3937007874015748},{"number":64,"time":39.569404874999776,"value":0.4645669291338583},{"number":64,"time":39.586498874999776,"value":0.5354330708661418},{"number":64,"time":39.60786637499977,"value":0.6062992125984252},{"number":64,"time":39.626028749999776,"value":0.6850393700787402},{"number":64,"time":39.64739624999977,"value":0.7716535433070866},{"number":64,"time":39.667695374999774,"value":0.8661417322834646},{"number":64,"time":39.68692612499977,"value":0.968503937007874},{"number":64,"time":39.70508849999977,"value":1},{"number":64,"time":40.257438374999765,"value":0.968503937007874},{"number":64,"time":40.27666912499976,"value":0.8267716535433071},{"number":64,"time":40.29589987499976,"value":0.6062992125984252},{"number":64,"time":40.314062249999765,"value":0.25196850393700787},{"number":64,"time":40.33329299999976,"value":0},{"number":64,"time":40.410215999999764,"value":0.2677165354330709},{"number":64,"time":40.43158349999976,"value":0.44881889763779526},{"number":64,"time":40.45081424999976,"value":0.5354330708661418},{"number":64,"time":40.47004499999976,"value":0.6220472440944882},{"number":64,"time":40.48820737499976,"value":0.7322834645669292},{"number":64,"time":40.50850649999976,"value":0.8503937007874016},{"number":64,"time":40.52773724999976,"value":0.952755905511811},{"number":64,"time":40.54803637499976,"value":1},{"number":64,"time":41.41021499999976,"value":0.889763779527559},{"number":64,"time":41.43051412499977,"value":0.6614173228346457},{"number":64,"time":41.451881624999764,"value":0.4094488188976378},{"number":64,"time":41.47004399999977,"value":0.11811023622047244},{"number":64,"time":41.49034312499977,"value":0.1889763779527559},{"number":64,"time":41.50957387499977,"value":0.3779527559055118},{"number":64,"time":41.528804624999765,"value":0.5118110236220472},{"number":64,"time":41.549103749999766,"value":0.6062992125984252},{"number":64,"time":41.568334499999764,"value":0.7086614173228346},{"number":64,"time":41.58756524999976,"value":0.8031496062992126},{"number":64,"time":41.60679599999976,"value":0.8818897637795275},{"number":64,"time":41.62709512499976,"value":0.9212598425196851},{"number":64,"time":41.68692412499977,"value":0.968503937007874},{"number":64,"time":41.70615487499977,"value":1},{"number":64,"time":42.54696599999977,"value":0.9212598425196851},{"number":64,"time":42.56726512499977,"value":0.6850393700787402},{"number":64,"time":42.58649587499977,"value":0.16535433070866143},{"number":64,"time":42.60572662499977,"value":0},{"number":64,"time":42.72431624999977,"value":0.3228346456692913},{"number":64,"time":42.743546999999765,"value":0.47244094488188976},{"number":64,"time":42.76277774999976,"value":0.5669291338582677},{"number":64,"time":42.783076874999765,"value":0.6771653543307087},{"number":64,"time":42.803375999999766,"value":0.8031496062992126},{"number":64,"time":42.820469999999766,"value":0.905511811023622},{"number":64,"time":42.839700749999764,"value":0.968503937007874},{"number":64,"time":42.88029899999976,"value":1},{"number":64,"time":43.07794837499976,"value":0.8976377952755905},{"number":64,"time":43.09611074999976,"value":0.7244094488188977},{"number":64,"time":43.117478249999756,"value":0.5511811023622047},{"number":64,"time":43.13777737499976,"value":0.4645669291338583},{"number":64,"time":43.15487137499976,"value":0.4881889763779528},{"number":64,"time":43.17517049999976,"value":0.5433070866141733},{"number":64,"time":43.19440124999976,"value":0.6299212598425197},{"number":64,"time":43.215768749999754,"value":0.7480314960629921},{"number":64,"time":43.233931124999756,"value":0.8582677165354331},{"number":64,"time":43.25529862499975,"value":0.9291338582677166},{"number":64,"time":43.275597749999754,"value":0.968503937007874},{"number":64,"time":43.624956374999755,"value":0.8818897637795275},{"number":64,"time":43.64418712499975,"value":0.7165354330708661},{"number":64,"time":43.664486249999754,"value":0.5196850393700787},{"number":64,"time":43.68371699999975,"value":0.30708661417322836},{"number":64,"time":43.72324687499975,"value":0.3937007874015748},{"number":64,"time":43.74247762499975,"value":0.4881889763779528},{"number":64,"time":43.76170837499975,"value":0.5669291338582677},{"number":64,"time":43.78200749999975,"value":0.6535433070866141},{"number":64,"time":43.80230662499975,"value":0.7401574803149606},{"number":64,"time":43.81940062499975,"value":0.84251968503937},{"number":64,"time":43.83863137499975,"value":0.9291338582677166},{"number":64,"time":43.85893049999975,"value":0.9763779527559056},{"number":64,"time":44.233930124999745,"value":0.9212598425196851},{"number":64,"time":44.254229249999746,"value":0.7795275590551181},{"number":64,"time":44.273459999999744,"value":0.6771653543307087},{"number":64,"time":44.31192149999974,"value":0.7401574803149606},{"number":64,"time":44.33222062499974,"value":0.8503937007874016},{"number":64,"time":44.35145137499974,"value":1},{"number":64,"time":44.86106624999974,"value":0.8503937007874016},{"number":64,"time":44.880296999999736,"value":0.6220472440944882},{"number":64,"time":44.90059612499974,"value":0.3464566929133858},{"number":64,"time":44.92089524999974,"value":0},{"number":64,"time":44.98179262499974,"value":0.2204724409448819},{"number":64,"time":44.99888662499974,"value":0.4251968503937008},{"number":64,"time":45.01811737499974,"value":0.5433070866141733},{"number":64,"time":45.03841649999974,"value":0.6535433070866141},{"number":64,"time":45.05978399999974,"value":0.7952755905511811},{"number":64,"time":45.07687799999974,"value":0.9448818897637795},{"number":64,"time":45.096108749999736,"value":1},{"number":64,"time":45.99888562499973,"value":0.9291338582677166},{"number":64,"time":46.01811637499973,"value":0.7637795275590551},{"number":64,"time":46.039483874999725,"value":0.5669291338582677},{"number":64,"time":46.05871462499972,"value":0.3858267716535433},{"number":64,"time":46.076876999999726,"value":0.3543307086614173},{"number":64,"time":46.09824449999972,"value":0.4094488188976378},{"number":64,"time":46.116406874999726,"value":0.4881889763779528},{"number":64,"time":46.13670599999973,"value":0.5826771653543307},{"number":64,"time":46.14952649999972,"value":0.6850393700787402},{"number":64,"time":46.16875724999972,"value":0.7952755905511811},{"number":64,"time":46.18905637499972,"value":0.8976377952755905},{"number":64,"time":46.209355499999724,"value":0.984251968503937},{"number":64,"time":47.109995624999726,"value":0.8818897637795275},{"number":64,"time":47.13029474999973,"value":0.6456692913385826},{"number":64,"time":47.14845712499973,"value":0.3779527559055118},{"number":64,"time":47.16768787499973,"value":0},{"number":64,"time":47.22858524999973,"value":0.2283464566929134},{"number":64,"time":47.246747624999735,"value":0.4566929133858268},{"number":64,"time":47.26811512499973,"value":0.5905511811023622},{"number":64,"time":47.28841424999973,"value":0.7559055118110236},{"number":64,"time":47.306576624999735,"value":0.968503937007874},{"number":64,"time":47.325807374999734,"value":1},{"number":64,"time":48.22644749999973,"value":0.9448818897637795},{"number":64,"time":48.24460987499973,"value":0.6929133858267716},{"number":64,"time":48.26490899999973,"value":0.4645669291338583},{"number":64,"time":48.28520812499974,"value":0.3858267716535433},{"number":64,"time":48.30657562499974,"value":0.4566929133858268},{"number":64,"time":48.32366962499974,"value":0.5433070866141733},{"number":64,"time":48.34610549999974,"value":0.7007874015748031},{"number":64,"time":48.36640462499973,"value":0.968503937007874},{"number":64,"time":48.384566999999734,"value":1},{"number":64,"time":49.57580512499972,"value":0.9606299212598425},{"number":64,"time":49.59396749999972,"value":0.7637795275590551},{"number":64,"time":49.61533499999972,"value":0.5511811023622047},{"number":64,"time":49.634565749999716,"value":0.30708661417322836},{"number":64,"time":49.65272812499972,"value":0.23622047244094488},{"number":64,"time":49.67195887499972,"value":0.2755905511811024},{"number":64,"time":49.693326374999714,"value":0.36220472440944884},{"number":64,"time":49.71255712499971,"value":0.47244094488188976},{"number":64,"time":49.73178787499971,"value":0.5511811023622047},{"number":64,"time":49.75315537499971,"value":0.6377952755905512},{"number":64,"time":49.772386124999706,"value":0.7401574803149606},{"number":64,"time":49.79268524999971,"value":0.8661417322834646},{"number":64,"time":49.811915999999705,"value":0.984251968503937},{"number":64,"time":50.633496374999694,"value":0.84251968503937},{"number":64,"time":50.650590374999695,"value":0.4566929133858268},{"number":64,"time":50.670889499999696,"value":0},{"number":64,"time":50.7713167499997,"value":0.2755905511811024},{"number":64,"time":50.7916158749997,"value":0.44881889763779526},{"number":64,"time":50.8108466249997,"value":0.5354330708661418},{"number":64,"time":50.8290089999997,"value":0.6535433070866141},{"number":64,"time":50.8503764999997,"value":0.8346456692913385},{"number":64,"time":50.869607249999696,"value":1},{"number":64,"time":51.16234199999969,"value":0.8661417322834646},{"number":64,"time":51.18157274999968,"value":0.6062992125984252},{"number":64,"time":51.20294024999968,"value":0.4015748031496063},{"number":64,"time":51.22323937499968,"value":0.4251968503937008},{"number":64,"time":51.24353849999968,"value":0.5196850393700787},{"number":64,"time":51.26276924999968,"value":0.6692913385826772},{"number":64,"time":51.28093162499968,"value":0.9212598425196851},{"number":64,"time":51.30336749999968,"value":1},{"number":64,"time":51.74994824999969,"value":0.9133858267716536},{"number":64,"time":51.76811062499969,"value":0.6929133858267716},{"number":64,"time":51.79054649999969,"value":0.4330708661417323},{"number":64,"time":51.80977724999969,"value":0},{"number":64,"time":51.90593099999969,"value":0.31496062992125984},{"number":64,"time":51.92729849999969,"value":0.49606299212598426},{"number":64,"time":51.946529249999685,"value":0.5984251968503937},{"number":64,"time":51.966828374999686,"value":0.7165354330708661},{"number":64,"time":51.986059124999684,"value":0.8346456692913385},{"number":64,"time":52.00528987499968,"value":0.937007874015748},{"number":64,"time":52.02558899999968,"value":1},{"number":64,"time":52.88456249999967,"value":0.9606299212598425},{"number":64,"time":52.90486162499967,"value":0.7559055118110236},{"number":64,"time":52.92516074999967,"value":0.48031496062992124},{"number":64,"time":52.94439149999967,"value":0},{"number":64,"time":53.045887124999666,"value":0.23622047244094488},{"number":64,"time":53.061912749999664,"value":0.44881889763779526},{"number":64,"time":53.08328024999966,"value":0.5433070866141733},{"number":64,"time":53.10251099999966,"value":0.6141732283464567},{"number":64,"time":53.12174174999966,"value":0.7007874015748031},{"number":64,"time":53.14204087499966,"value":0.7874015748031497},{"number":64,"time":53.16020324999966,"value":0.889763779527559},{"number":64,"time":53.17836562499965,"value":0.984251968503937},{"number":64,"time":54.140971499999644,"value":0.7795275590551181},{"number":64,"time":54.15913387499965,"value":0.5275590551181102},{"number":64,"time":54.178364624999645,"value":0},{"number":64,"time":54.238193624999646,"value":0.3858267716535433},{"number":64,"time":54.25956112499964,"value":0.5275590551181102},{"number":64,"time":54.277723499999645,"value":0.6456692913385826},{"number":64,"time":54.29909099999964,"value":0.8031496062992126},{"number":64,"time":54.317253374999645,"value":0.952755905511811},{"number":64,"time":54.337552499999646,"value":1},{"number":64,"time":55.17943199999964,"value":0.8582677165354331},{"number":64,"time":55.19866274999965,"value":0.6377952755905512},{"number":64,"time":55.220030249999645,"value":0.48031496062992124},{"number":64,"time":55.24032937499965,"value":0.47244094488188976},{"number":64,"time":55.25849174999965,"value":0.5039370078740157},{"number":64,"time":55.276654124999645,"value":0.5669291338582677},{"number":64,"time":55.30015837499965,"value":0.6614173228346457},{"number":64,"time":55.31832074999965,"value":0.7716535433070866},{"number":64,"time":55.33755149999965,"value":0.889763779527559},{"number":64,"time":55.35785062499965,"value":1},{"number":64,"time":55.72750837499965,"value":0.889763779527559},{"number":64,"time":55.74460237499965,"value":0.6377952755905512},{"number":64,"time":55.764901499999645,"value":0.3543307086614173},{"number":64,"time":55.78520062499964,"value":0.2047244094488189},{"number":64,"time":55.80549974999964,"value":0.3228346456692913},{"number":64,"time":55.82473049999964,"value":0.48031496062992124},{"number":64,"time":55.84502962499964,"value":0.6062992125984252},{"number":64,"time":55.86639712499964,"value":0.8031496062992126},{"number":64,"time":55.88349112499964,"value":1},{"number":64,"time":56.37814874999964,"value":0.7007874015748031},{"number":64,"time":56.40592649999964,"value":0.2283464566929134},{"number":64,"time":56.42622562499964,"value":0},{"number":64,"time":56.54588362499964,"value":0.2125984251968504},{"number":64,"time":56.567251124999636,"value":0.33858267716535434},{"number":64,"time":56.603575874999635,"value":0.3779527559055118},{"number":64,"time":56.623874999999636,"value":0.4566929133858268},{"number":64,"time":56.64417412499964,"value":0.5354330708661418},{"number":64,"time":56.66126812499964,"value":0.6141732283464567},{"number":64,"time":56.68156724999964,"value":0.7007874015748031},{"number":64,"time":56.70186637499964,"value":0.7952755905511811},{"number":64,"time":56.72002874999964,"value":0.8740157480314961},{"number":64,"time":56.73925949999964,"value":0.9133858267716536},{"number":64,"time":56.78092612499964,"value":0.9606299212598425},{"number":64,"time":56.80015687499964,"value":0.9921259842519685},{"number":64,"time":57.50314762499963,"value":0.9606299212598425},{"number":64,"time":57.52344674999963,"value":0.8818897637795275},{"number":64,"time":57.544814249999625,"value":0.7401574803149606},{"number":64,"time":57.56404499999962,"value":0.5433070866141733},{"number":64,"time":57.60357487499962,"value":0},{"number":64,"time":57.69972862499962,"value":0.28346456692913385},{"number":64,"time":57.72109612499962,"value":0.4409448818897638},{"number":64,"time":57.73819012499962,"value":0.5275590551181102},{"number":64,"time":57.75848924999962,"value":0.5984251968503937},{"number":64,"time":57.77878837499962,"value":0.6850393700787402},{"number":64,"time":57.79801912499962,"value":0.7637795275590551},{"number":64,"time":57.81724987499962,"value":0.8267716535433071},{"number":64,"time":57.83754899999962,"value":0.8661417322834646},{"number":64,"time":57.87921562499962,"value":0.905511811023622},{"number":64,"time":57.915540374999615,"value":0.9606299212598425},{"number":64,"time":58.01383087499961,"value":0.8818897637795275},{"number":64,"time":58.03412999999961,"value":0.7795275590551181},{"number":64,"time":58.05336074999961,"value":0.6692913385826772},{"number":64,"time":58.07472824999961,"value":0.5905511811023622},{"number":64,"time":58.09502737499961,"value":0.5511811023622047},{"number":64,"time":58.11318974999961,"value":0.5748031496062992},{"number":64,"time":58.13562562499961,"value":0.6299212598425197},{"number":64,"time":58.150582874999614,"value":0.7165354330708661},{"number":64,"time":58.17195037499961,"value":0.7952755905511811},{"number":64,"time":58.19224949999961,"value":0.8346456692913385},{"number":64,"time":58.292676749999615,"value":0.8740157480314961},{"number":64,"time":58.60143712499961,"value":0.84251968503937},{"number":64,"time":58.64096699999961,"value":0.8110236220472441},{"number":64,"time":58.658060999999606,"value":0.7637795275590551},{"number":64,"time":58.677291749999604,"value":0.6692913385826772},{"number":64,"time":58.6997276249996,"value":0.5196850393700787},{"number":64,"time":58.720026749999604,"value":0.2283464566929134},{"number":64,"time":58.737120749999605,"value":0},{"number":64,"time":58.836479624999605,"value":0.2204724409448819},{"number":64,"time":58.8578471249996,"value":0.4015748031496063},{"number":64,"time":58.8770778749996,"value":0.49606299212598426},{"number":64,"time":58.8952402499996,"value":0.5669291338582677},{"number":64,"time":58.9144709999996,"value":0.6614173228346457},{"number":64,"time":58.9347701249996,"value":0.7716535433070866},{"number":64,"time":58.955069249999596,"value":0.8582677165354331},{"number":64,"time":58.974299999999594,"value":0.9133858267716536},{"number":64,"time":59.03306062499959,"value":0.952755905511811},{"number":64,"time":59.20934249999959,"value":0.8661417322834646},{"number":64,"time":59.23177837499959,"value":0.7401574803149606},{"number":64,"time":59.25100912499959,"value":0.5748031496062992},{"number":64,"time":59.2702398749996,"value":0.4094488188976378},{"number":64,"time":59.2905389999996,"value":0.3543307086614173},{"number":64,"time":59.3087013749996,"value":0.3937007874015748},{"number":64,"time":59.3290004999996,"value":0.44881889763779526},{"number":64,"time":59.3482312499996,"value":0.5118110236220472},{"number":64,"time":59.3674619999996,"value":0.5669291338582677},{"number":64,"time":59.4037867499996,"value":0.6377952755905512},{"number":64,"time":59.4219491249996,"value":0.7322834645669292},{"number":64,"time":59.4411798749996,"value":0.8346456692913385},{"number":64,"time":59.462547374999595,"value":0.905511811023622},{"number":64,"time":59.52130799999959,"value":0.9448818897637795},{"number":64,"time":59.7563504999996,"value":0.9133858267716536},{"number":64,"time":59.798017124999596,"value":0.8661417322834646},{"number":64,"time":59.8161794999996,"value":0.7795275590551181},{"number":64,"time":59.8354102499996,"value":0.6220472440944882},{"number":64,"time":59.854640999999596,"value":0.4251968503937008},{"number":64,"time":59.87600849999959,"value":0},{"number":64,"time":59.95399987499959,"value":0.25196850393700787},{"number":64,"time":59.97323062499959,"value":0.4094488188976378},{"number":64,"time":59.99139299999959,"value":0.4881889763779528},{"number":64,"time":60.01276049999959,"value":0.5511811023622047},{"number":64,"time":60.031991249999585,"value":0.6141732283464567},{"number":64,"time":60.05122199999958,"value":0.7007874015748031},{"number":64,"time":60.071521124999585,"value":0.7795275590551181},{"number":64,"time":60.09075187499958,"value":0.84251968503937},{"number":64,"time":60.11211937499958,"value":0.8818897637795275},{"number":64,"time":60.14844412499958,"value":0.937007874015748},{"number":64,"time":60.209341499999574,"value":0.968503937007874},{"number":64,"time":60.93369974999957,"value":0.937007874015748},{"number":64,"time":60.99139199999957,"value":0.905511811023622},{"number":64,"time":61.02985349999957,"value":0.8661417322834646},{"number":64,"time":61.05015262499957,"value":0.7952755905511811},{"number":64,"time":61.07045174999957,"value":0.6692913385826772},{"number":64,"time":61.09075087499957,"value":0.4881889763779528},{"number":64,"time":61.10998162499957,"value":0.12598425196850394},{"number":64,"time":61.13028074999957,"value":0},{"number":64,"time":61.16874224999957,"value":0.23622047244094488},{"number":64,"time":61.187972999999566,"value":0.3937007874015748},{"number":64,"time":61.20827212499957,"value":0.47244094488188976},{"number":64,"time":61.22536612499957,"value":0.5433070866141733},{"number":64,"time":61.246733624999564,"value":0.6220472440944882},{"number":64,"time":61.26596437499956,"value":0.7244094488188977},{"number":64,"time":61.286263499999556,"value":0.8188976377952756},{"number":64,"time":61.30656262499956,"value":0.8818897637795275},{"number":64,"time":61.42087874999956,"value":0.9212598425196851},{"number":64,"time":61.59716062499956,"value":0.8818897637795275},{"number":64,"time":61.61745974999956,"value":0.7952755905511811},{"number":64,"time":61.63669049999956,"value":0.6377952755905512},{"number":64,"time":61.65592124999956,"value":0.47244094488188976},{"number":64,"time":61.67515199999956,"value":0.3464566929133858},{"number":64,"time":61.69545112499956,"value":0.3700787401574803},{"number":64,"time":61.71575024999956,"value":0.44881889763779526},{"number":64,"time":61.73391262499956,"value":0.5354330708661418},{"number":64,"time":61.75421174999956,"value":0.6141732283464567},{"number":64,"time":61.77344249999956,"value":0.7007874015748031},{"number":64,"time":61.79374162499956,"value":0.7952755905511811},{"number":64,"time":61.81297237499956,"value":0.8582677165354331},{"number":64,"time":61.911262874999565,"value":0.889763779527559},{"number":64,"time":62.186903624999566,"value":0.84251968503937},{"number":64,"time":62.20720274999956,"value":0.7716535433070866},{"number":64,"time":62.22429674999956,"value":0.6220472440944882},{"number":64,"time":62.24459587499956,"value":0.4251968503937008},{"number":64,"time":62.26489499999956,"value":0},{"number":64,"time":62.30442487499956,"value":0.13385826771653545},{"number":64,"time":62.32472399999956,"value":0.33858267716535434},{"number":64,"time":62.345023124999564,"value":0.4645669291338583},{"number":64,"time":62.36425387499956,"value":0.5354330708661418},{"number":64,"time":62.38455299999956,"value":0.6141732283464567},{"number":64,"time":62.419809374999566,"value":0.7086614173228346},{"number":64,"time":62.439040124999565,"value":0.8110236220472441},{"number":64,"time":62.45827087499956,"value":0.8661417322834646},{"number":64,"time":62.81083462499956,"value":0.8031496062992126},{"number":64,"time":62.832202124999554,"value":0.6929133858267716},{"number":64,"time":62.852501249999555,"value":0.5354330708661418},{"number":64,"time":62.871731999999554,"value":0.33070866141732286},{"number":64,"time":62.89309949999955,"value":0.1732283464566929},{"number":64,"time":62.93049262499955,"value":0.30708661417322836},{"number":64,"time":62.95079174999955,"value":0.4251968503937008},{"number":64,"time":62.971090874999554,"value":0.49606299212598426},{"number":64,"time":62.988184874999554,"value":0.5433070866141733},{"number":64,"time":63.00741562499955,"value":0.5984251968503937},{"number":64,"time":63.02878312499955,"value":0.6771653543307087},{"number":64,"time":63.04801387499955,"value":0.7637795275590551},{"number":64,"time":63.06831299999955,"value":0.8346456692913385},{"number":64,"time":63.08754374999955,"value":0.8740157480314961},{"number":64,"time":63.146304374999545,"value":0.9133858267716536},{"number":64,"time":63.16553512499954,"value":0.9448818897637795},{"number":64,"time":63.206133374999546,"value":0.9763779527559056},{"number":64,"time":63.36318449999955,"value":0.9448818897637795},{"number":64,"time":63.41660324999955,"value":0.8976377952755905},{"number":64,"time":63.43903912499954,"value":0.84251968503937},{"number":64,"time":63.45720149999954,"value":0.7165354330708661},{"number":64,"time":63.47750062499954,"value":0.5511811023622047},{"number":64,"time":63.49673137499954,"value":0.28346456692913385},{"number":64,"time":63.51809887499954,"value":0},{"number":64,"time":63.57792787499954,"value":0.18110236220472442},{"number":64,"time":63.59715862499954,"value":0.3543307086614173},{"number":64,"time":63.61745774999954,"value":0.4566929133858268},{"number":64,"time":63.63775687499954,"value":0.5118110236220472},{"number":64,"time":63.65485087499954,"value":0.5511811023622047},{"number":64,"time":63.67514999999954,"value":0.6141732283464567},{"number":64,"time":63.69544912499954,"value":0.6850393700787402},{"number":64,"time":63.715748249999535,"value":0.7559055118110236},{"number":64,"time":63.732842249999536,"value":0.8110236220472441},{"number":64,"time":63.772372124999535,"value":0.8503937007874016},{"number":64,"time":63.811901999999534,"value":0.889763779527559},{"number":64,"time":63.971089874999535,"value":0.8188976377952756},{"number":64,"time":63.988183874999535,"value":0.6850393700787402},{"number":64,"time":64.00848299999954,"value":0.5354330708661418},{"number":64,"time":64.02985049999955,"value":0.3858267716535433},{"number":64,"time":64.04908124999956,"value":0.33858267716535434},{"number":64,"time":64.06831199999957,"value":0.3858267716535433},{"number":64,"time":64.08967949999956,"value":0.4645669291338583},{"number":64,"time":64.10891024999957,"value":0.5275590551181102},{"number":64,"time":64.12920937499956,"value":0.5905511811023622},{"number":64,"time":64.14630337499956,"value":0.6535433070866141},{"number":64,"time":64.16767087499956,"value":0.7165354330708661},{"number":64,"time":64.18690162499956,"value":0.7795275590551181},{"number":64,"time":64.20720074999956,"value":0.8267716535433071},{"number":64,"time":64.30228612499954,"value":0.8661417322834646},{"number":64,"time":64.34395274999954,"value":0.8976377952755905},{"number":64,"time":64.61531999999954,"value":0.8661417322834646},{"number":64,"time":64.63668749999954,"value":0.8110236220472441},{"number":64,"time":64.65271312499954,"value":0.7007874015748031},{"number":64,"time":64.67514899999954,"value":0.5511811023622047},{"number":64,"time":64.69331137499954,"value":0.33070866141732286},{"number":64,"time":64.71467887499954,"value":0},{"number":64,"time":64.75314037499953,"value":0.07086614173228346},{"number":64,"time":64.77237112499954,"value":0.23622047244094488},{"number":64,"time":64.79267024999953,"value":0.3779527559055118},{"number":64,"time":64.81190099999954,"value":0.47244094488188976},{"number":64,"time":64.83326849999953,"value":0.5275590551181102},{"number":64,"time":64.85143087499954,"value":0.5905511811023622},{"number":64,"time":64.87279837499953,"value":0.6850393700787402},{"number":64,"time":64.89096074999954,"value":0.7795275590551181},{"number":64,"time":64.91019149999954,"value":0.8582677165354331},{"number":64,"time":64.92835387499954,"value":0.8976377952755905},{"number":64,"time":64.98711449999955,"value":0.9291338582677166},{"number":64,"time":65.02664437499955,"value":0.984251968503937},{"number":64,"time":66.20399362499958,"value":0.952755905511811},{"number":64,"time":66.24245512499958,"value":0.8661417322834646},{"number":64,"time":66.26168587499959,"value":0.7559055118110236},{"number":64,"time":66.28305337499958,"value":0.5748031496062992},{"number":64,"time":66.30228412499959,"value":0.2283464566929134},{"number":64,"time":66.32258324999958,"value":0},{"number":64,"time":66.43583099999958,"value":0.33858267716535434},{"number":64,"time":66.45719849999958,"value":0.4566929133858268},{"number":64,"time":66.47536087499958,"value":0.5275590551181102},{"number":64,"time":66.49459162499959,"value":0.6062992125984252},{"number":64,"time":66.51382237499959,"value":0.7086614173228346},{"number":64,"time":66.53412149999959,"value":0.8031496062992126},{"number":64,"time":66.55228387499959,"value":0.8740157480314961},{"number":64,"time":66.5939504999996,"value":0.905511811023622},{"number":64,"time":66.63241199999959,"value":0.968503937007874},{"number":64,"time":66.6516427499996,"value":1},{"number":64,"time":68.55441862499953,"value":0.9448818897637795},{"number":64,"time":68.57471774999952,"value":0.889763779527559},{"number":64,"time":68.59715362499952,"value":0.7401574803149606},{"number":64,"time":68.61424762499952,"value":0.5433070866141733},{"number":64,"time":68.63668349999952,"value":0.2047244094488189},{"number":64,"time":68.65484587499952,"value":0},{"number":64,"time":68.69223899999952,"value":0.2992125984251969},{"number":64,"time":68.71360649999951,"value":0.4566929133858268},{"number":64,"time":68.73283724999952,"value":0.5354330708661418},{"number":64,"time":68.75206799999953,"value":0.5984251968503937},{"number":64,"time":68.77023037499953,"value":0.6850393700787402},{"number":64,"time":68.79052949999952,"value":0.7952755905511811},{"number":64,"time":68.81082862499952,"value":0.889763779527559},{"number":64,"time":68.83112774999952,"value":0.937007874015748},{"number":64,"time":68.92834987499953,"value":0.968503937007874},{"number":64,"time":69.10570012499953,"value":0.9212598425196851},{"number":64,"time":69.12493087499954,"value":0.84251968503937},{"number":64,"time":69.14736674999953,"value":0.7165354330708661},{"number":64,"time":69.16446074999953,"value":0.6062992125984252},{"number":64,"time":69.18475987499953,"value":0.5433070866141733},{"number":64,"time":69.20505899999952,"value":0.5669291338582677},{"number":64,"time":69.22428974999953,"value":0.6220472440944882},{"number":64,"time":69.24138374999953,"value":0.7086614173228346},{"number":64,"time":69.26275124999952,"value":0.8031496062992126},{"number":64,"time":69.28305037499952,"value":0.889763779527559},{"number":64,"time":69.30228112499952,"value":0.9448818897637795},{"number":64,"time":69.34181099999952,"value":0.9763779527559056},{"number":64,"time":69.76916099999953,"value":0.889763779527559},{"number":64,"time":69.78946012499954,"value":0.7165354330708661},{"number":64,"time":69.80975924999953,"value":0.5275590551181102},{"number":64,"time":69.82898999999954,"value":0.31496062992125984},{"number":64,"time":69.84928912499953,"value":0.25196850393700787},{"number":64,"time":69.86851987499954,"value":0.30708661417322836},{"number":64,"time":69.88988737499953,"value":0.3937007874015748},{"number":64,"time":69.90804974999953,"value":0.47244094488188976},{"number":64,"time":69.92728049999954,"value":0.5354330708661418},{"number":64,"time":69.94757962499953,"value":0.6062992125984252},{"number":64,"time":69.96787874999953,"value":0.7086614173228346},{"number":64,"time":69.98604112499953,"value":0.8267716535433071},{"number":64,"time":70.00527187499954,"value":0.937007874015748},{"number":64,"time":70.02557099999953,"value":0.9921259842519685},{"number":64,"time":71.02877512499953,"value":0.9133858267716536},{"number":64,"time":71.04800587499953,"value":0.7322834645669292},{"number":64,"time":71.06830499999953,"value":0.5354330708661418},{"number":64,"time":71.08539899999953,"value":0.30708661417322836},{"number":64,"time":71.12706562499953,"value":0.4094488188976378},{"number":64,"time":71.14629637499954,"value":0.5354330708661418},{"number":64,"time":71.16552712499954,"value":0.6692913385826772},{"number":64,"time":71.18796299999954,"value":0.8661417322834646},{"number":64,"time":71.20612537499954,"value":1},{"number":64,"time":72.14629537499951,"value":0.937007874015748},{"number":64,"time":72.16445774999951,"value":0.7716535433070866},{"number":64,"time":72.18475687499951,"value":0.5748031496062992},{"number":64,"time":72.2050559999995,"value":0.3700787401574803},{"number":64,"time":72.22428674999951,"value":0.29133858267716534},{"number":64,"time":72.24244912499951,"value":0.36220472440944884},{"number":64,"time":72.2627482499995,"value":0.48031496062992124},{"number":64,"time":72.2830473749995,"value":0.5826771653543307},{"number":64,"time":72.30334649999949,"value":0.7086614173228346},{"number":64,"time":72.3225772499995,"value":0.8582677165354331},{"number":64,"time":72.3418079999995,"value":0.9763779527559056},{"number":64,"time":73.2755677499995,"value":0.889763779527559},{"number":64,"time":73.29693524999949,"value":0.7322834645669292},{"number":64,"time":73.3150976249995,"value":0.5354330708661418},{"number":64,"time":73.33646512499949,"value":0.25196850393700787},{"number":64,"time":73.3556958749995,"value":0},{"number":64,"time":73.4091146249995,"value":0.13385826771653545},{"number":64,"time":73.4304821249995,"value":0.2992125984251969},{"number":64,"time":73.4497128749995,"value":0.4330708661417323},{"number":64,"time":73.4700119999995,"value":0.5118110236220472},{"number":64,"time":73.4881743749995,"value":0.5748031496062992},{"number":64,"time":73.5084734999995,"value":0.6692913385826772},{"number":64,"time":73.5277042499995,"value":0.7795275590551181},{"number":64,"time":73.54800337499951,"value":0.8818897637795275},{"number":64,"time":73.5672341249995,"value":0.952755905511811},{"number":64,"time":73.6056956249995,"value":0.984251968503937},{"number":64,"time":73.8033449999995,"value":0.9291338582677166},{"number":64,"time":73.8236441249995,"value":0.8346456692913385},{"number":64,"time":73.8428748749995,"value":0.6771653543307087},{"number":64,"time":73.86317399999949,"value":0.5196850393700787},{"number":64,"time":73.8824047499995,"value":0.4015748031496063},{"number":64,"time":73.92086624999949,"value":0.4566929133858268},{"number":64,"time":73.94116537499949,"value":0.5196850393700787},{"number":64,"time":73.96360124999948,"value":0.5826771653543307},{"number":64,"time":73.98069524999948,"value":0.6614173228346457},{"number":64,"time":73.99885762499949,"value":0.7401574803149606},{"number":64,"time":74.0191567499995,"value":0.8188976377952756},{"number":64,"time":74.0383874999995,"value":0.8740157480314961},{"number":64,"time":74.05868662499951,"value":0.9133858267716536},{"number":64,"time":74.09928487499951,"value":0.952755905511811},{"number":64,"time":74.17727624999951,"value":0.9921259842519685},{"number":64,"time":74.33219062499951,"value":0.9606299212598425},{"number":64,"time":74.3524897499995,"value":0.9133858267716536},{"number":64,"time":74.37172049999951,"value":0.7952755905511811},{"number":64,"time":74.4080452499995,"value":0.6141732283464567},{"number":64,"time":74.4294127499995,"value":0.3858267716535433},{"number":64,"time":74.4497118749995,"value":0},{"number":64,"time":74.4892417499995,"value":0.1889763779527559},{"number":64,"time":74.5063357499995,"value":0.3700787401574803},{"number":64,"time":74.52663487499949,"value":0.4881889763779528},{"number":64,"time":74.5458656249995,"value":0.5511811023622047},{"number":64,"time":74.56616474999949,"value":0.6377952755905512},{"number":64,"time":74.58432712499949,"value":0.7480314960629921},{"number":64,"time":74.60569462499949,"value":0.8582677165354331},{"number":64,"time":74.62385699999949,"value":0.9448818897637795},{"number":64,"time":74.6430877499995,"value":0.9763779527559056},{"number":64,"time":75.01701899999951,"value":0.8346456692913385},{"number":64,"time":75.03731812499952,"value":0.6299212598425197},{"number":64,"time":75.05868562499951,"value":0.4330708661417323},{"number":64,"time":75.07791637499952,"value":0.3464566929133858},{"number":64,"time":75.09821549999951,"value":0.3858267716535433},{"number":64,"time":75.1185146249995,"value":0.47244094488188976},{"number":64,"time":75.13774537499951,"value":0.5511811023622047},{"number":64,"time":75.15483937499951,"value":0.6456692913385826},{"number":64,"time":75.17620687499952,"value":0.7480314960629921},{"number":64,"time":75.19650599999952,"value":0.8661417322834646},{"number":64,"time":75.21466837499952,"value":0.968503937007874},{"number":64,"time":75.23389912499952,"value":1},{"number":64,"time":75.64415512499951,"value":0.937007874015748},{"number":64,"time":75.66445424999951,"value":0.7401574803149606},{"number":64,"time":75.6836849999995,"value":0.5118110236220472},{"number":64,"time":75.70291574999949,"value":0.11811023622047244},{"number":64,"time":75.7413772499995,"value":0.33070866141732286},{"number":64,"time":75.76060799999951,"value":0.4881889763779528},{"number":64,"time":75.78090712499952,"value":0.5984251968503937},{"number":64,"time":75.80120624999951,"value":0.7244094488188977},{"number":64,"time":75.81830024999951,"value":0.8582677165354331},{"number":64,"time":75.83966774999952,"value":0.9763779527559056},{"number":64,"time":76.85676074999954,"value":0.9448818897637795},{"number":64,"time":76.87812824999953,"value":0.7322834645669292},{"number":64,"time":76.89842737499954,"value":0.5275590551181102},{"number":64,"time":76.91765812499955,"value":0.3858267716535433},{"number":64,"time":76.93795724999954,"value":0.4015748031496063},{"number":64,"time":76.95718799999955,"value":0.47244094488188976},{"number":64,"time":76.97855549999954,"value":0.5669291338582677},{"number":64,"time":76.99458112499954,"value":0.6929133858267716},{"number":64,"time":77.01488024999954,"value":0.8267716535433071},{"number":64,"time":77.03517937499953,"value":0.937007874015748},{"number":64,"time":77.05547849999952,"value":1},{"number":64,"time":77.52235837499954,"value":0.8188976377952756},{"number":64,"time":77.54372587499954,"value":0.6692913385826772},{"number":64,"time":77.56295662499954,"value":0.6062992125984252},{"number":64,"time":77.58005062499954,"value":0.6299212598425197},{"number":64,"time":77.60141812499954,"value":0.6929133858267716},{"number":64,"time":77.62171724999953,"value":0.8031496062992126},{"number":64,"time":77.64094799999954,"value":0.9291338582677166},{"number":64,"time":77.66124712499953,"value":1},{"number":64,"time":78.24778499999952,"value":0.968503937007874},{"number":64,"time":78.27022087499952,"value":0.905511811023622},{"number":64,"time":78.29051999999952,"value":0.8188976377952756},{"number":64,"time":78.30868237499952,"value":0.6929133858267716},{"number":64,"time":78.32791312499953,"value":0.5511811023622047},{"number":64,"time":78.34714387499953,"value":0.3700787401574803},{"number":64,"time":78.36851137499953,"value":0},{"number":64,"time":78.54158812499954,"value":0.08661417322834646},{"number":64,"time":78.56295562499953,"value":0.3228346456692913},{"number":64,"time":78.57898124999953,"value":0.4645669291338583},{"number":64,"time":78.60034874999953,"value":0.5511811023622047},{"number":64,"time":78.62171624999952,"value":0.6692913385826772},{"number":64,"time":78.63881024999952,"value":0.84251968503937},{"number":64,"time":78.66017774999952,"value":1},{"number":64,"time":80.70718424999951,"value":0.952755905511811},{"number":64,"time":80.72534662499952,"value":0.7480314960629921},{"number":64,"time":80.74671412499951,"value":0.5354330708661418},{"number":64,"time":80.76594487499952,"value":0.30708661417322836},{"number":64,"time":80.78624399999951,"value":0.25984251968503935},{"number":64,"time":80.82470549999951,"value":0.3228346456692913},{"number":64,"time":80.84393624999952,"value":0.3779527559055118},{"number":64,"time":80.86530374999951,"value":0.4645669291338583},{"number":64,"time":80.88346612499952,"value":0.5433070866141733},{"number":64,"time":80.90483362499951,"value":0.6220472440944882},{"number":64,"time":80.9251327499995,"value":0.7165354330708661},{"number":64,"time":80.94329512499951,"value":0.7952755905511811},{"number":64,"time":80.9646626249995,"value":0.8503937007874016},{"number":64,"time":80.9806882499995,"value":0.905511811023622},{"number":64,"time":81.0031241249995,"value":0.952755905511811},{"number":64,"time":81.0212864999995,"value":0.9921259842519685},{"number":64,"time":81.2776964999995,"value":0.8818897637795275},{"number":64,"time":81.29692724999948,"value":0.7401574803149606},{"number":64,"time":81.31615799999949,"value":0.6299212598425197},{"number":64,"time":81.3353887499995,"value":0.5905511811023622},{"number":64,"time":81.35568787499949,"value":0.6220472440944882},{"number":64,"time":81.37598699999948,"value":0.6850393700787402},{"number":64,"time":81.41124337499949,"value":0.7874015748031497},{"number":64,"time":81.43047412499949,"value":0.8818897637795275},{"number":64,"time":81.45184162499949,"value":0.952755905511811},{"number":64,"time":81.47000399999949,"value":0.9921259842519685},{"number":64,"time":81.84286687499949,"value":0.9291338582677166},{"number":64,"time":81.86209762499949,"value":0.7716535433070866},{"number":64,"time":81.88132837499948,"value":0.5590551181102362},{"number":64,"time":81.90269587499948,"value":0.2283464566929134},{"number":64,"time":81.92299499999947,"value":0},{"number":64,"time":81.98175562499948,"value":0.23622047244094488},{"number":64,"time":82.00205474999947,"value":0.4251968503937008},{"number":64,"time":82.02021712499948,"value":0.5354330708661418},{"number":64,"time":82.04265299999948,"value":0.6220472440944882},{"number":64,"time":82.05867862499947,"value":0.7165354330708661},{"number":64,"time":82.07897774999947,"value":0.7952755905511811},{"number":64,"time":82.09927687499946,"value":0.8503937007874016},{"number":64,"time":82.11850762499947,"value":0.8818897637795275},{"number":64,"time":82.15803749999947,"value":0.937007874015748},{"number":64,"time":82.23709724999947,"value":0.968503937007874},{"number":64,"time":82.37598599999947,"value":1},{"number":64,"time":83.03944687499947,"value":0.9212598425196851},{"number":64,"time":83.05760924999947,"value":0.7165354330708661},{"number":64,"time":83.07790837499947,"value":0.47244094488188976},{"number":64,"time":83.09713912499947,"value":0},{"number":64,"time":83.15696812499947,"value":0.29133858267716534},{"number":64,"time":83.17726724999946,"value":0.4645669291338583},{"number":64,"time":83.19649799999947,"value":0.5511811023622047},{"number":64,"time":83.21786549999946,"value":0.6456692913385826},{"number":64,"time":83.23602787499946,"value":0.7637795275590551},{"number":64,"time":83.25525862499947,"value":0.889763779527559},{"number":64,"time":83.27555774999946,"value":1},{"number":64,"time":85.2552566249994,"value":0.7874015748031497},{"number":64,"time":85.2755557499994,"value":0.5196850393700787},{"number":64,"time":85.2947864999994,"value":0},{"number":64,"time":85.4283333749994,"value":0.11811023622047244},{"number":64,"time":85.44863249999939,"value":0.4251968503937008},{"number":64,"time":85.46893162499939,"value":0.5748031496062992},{"number":64,"time":85.48709399999939,"value":0.7165354330708661},{"number":64,"time":85.5063247499994,"value":0.8582677165354331},{"number":64,"time":85.52662387499939,"value":0.9763779527559056},{"number":64,"time":85.86316199999939,"value":0.8188976377952756},{"number":64,"time":85.8813243749994,"value":0.6220472440944882},{"number":64,"time":85.90269187499939,"value":0.5039370078740157},{"number":64,"time":85.94222174999939,"value":0.5669291338582677},{"number":64,"time":85.96252087499938,"value":0.7086614173228346},{"number":64,"time":85.97961487499938,"value":0.937007874015748},{"number":64,"time":86.00098237499938,"value":1},{"number":64,"time":86.40910162499938,"value":0.937007874015748},{"number":64,"time":86.42833237499937,"value":0.7480314960629921},{"number":64,"time":86.44969987499937,"value":0.5669291338582677},{"number":64,"time":86.46999899999936,"value":0.4330708661417323},{"number":64,"time":86.50739212499936,"value":0.47244094488188976},{"number":64,"time":86.52769124999935,"value":0.5511811023622047},{"number":64,"time":86.54799037499934,"value":0.6614173228346457},{"number":64,"time":86.56615274999935,"value":0.7795275590551181},{"number":64,"time":86.58431512499935,"value":0.8976377952755905},{"number":64,"time":86.60568262499935,"value":1},{"number":64,"time":87.68367299999935,"value":0.8661417322834646},{"number":64,"time":87.70397212499934,"value":0.6692913385826772},{"number":64,"time":87.72320287499934,"value":0.48031496062992124},{"number":64,"time":87.74136524999935,"value":0.3228346456692913},{"number":64,"time":87.78196349999935,"value":0.4015748031496063},{"number":64,"time":87.80119424999936,"value":0.49606299212598426},{"number":64,"time":87.81935662499936,"value":0.5826771653543307},{"number":64,"time":87.83965574999935,"value":0.6929133858267716},{"number":64,"time":87.85995487499935,"value":0.8188976377952756},{"number":64,"time":87.87918562499935,"value":0.9448818897637795},{"number":64,"time":87.89948474999935,"value":1},{"number":64,"time":88.64414212499933,"value":0.8503937007874016},{"number":64,"time":88.66337287499933,"value":0.6141732283464567},{"number":64,"time":88.68687712499933,"value":0.25196850393700787},{"number":64,"time":88.70503949999933,"value":0},{"number":64,"time":88.76273174999933,"value":0.12598425196850394},{"number":64,"time":88.78303087499933,"value":0.4015748031496063},{"number":64,"time":88.80226162499933,"value":0.5275590551181102},{"number":64,"time":88.82149237499934,"value":0.6062992125984252},{"number":64,"time":88.84179149999933,"value":0.6929133858267716},{"number":64,"time":88.86102224999934,"value":0.7795275590551181},{"number":64,"time":88.88025299999934,"value":0.8661417322834646},{"number":64,"time":88.89948374999935,"value":0.937007874015748},{"number":64,"time":88.91978287499934,"value":0.9763779527559056},{"number":64,"time":89.78089312499935,"value":0.8582677165354331},{"number":64,"time":89.80119224999936,"value":0.6692913385826772},{"number":64,"time":89.82362812499936,"value":0.4330708661417323},{"number":64,"time":89.83965374999936,"value":0},{"number":64,"time":89.94008099999935,"value":0.30708661417322836},{"number":64,"time":89.95931174999936,"value":0.4645669291338583},{"number":64,"time":89.98067924999935,"value":0.5511811023622047},{"number":64,"time":89.99777324999936,"value":0.6377952755905512},{"number":64,"time":90.01807237499935,"value":0.7480314960629921},{"number":64,"time":90.03943987499935,"value":0.8503937007874016},{"number":64,"time":90.05760224999935,"value":0.9291338582677166},{"number":64,"time":90.07576462499935,"value":0.9763779527559056},{"number":64,"time":90.87918262499934,"value":0.905511811023622},{"number":64,"time":90.89734499999935,"value":0.7165354330708661},{"number":64,"time":90.91657574999935,"value":0.4881889763779528},{"number":64,"time":90.93794324999935,"value":0.16535433070866143},{"number":64,"time":90.97747312499935,"value":0.3228346456692913},{"number":64,"time":90.99670387499935,"value":0.47244094488188976},{"number":64,"time":91.01807137499935,"value":0.5590551181102362},{"number":64,"time":91.03623374999935,"value":0.6456692913385826},{"number":64,"time":91.05546449999936,"value":0.7244094488188977},{"number":64,"time":91.07576362499935,"value":0.7874015748031497},{"number":64,"time":91.09392599999934,"value":0.8346456692913385},{"number":64,"time":91.11422512499934,"value":0.8661417322834646},{"number":64,"time":91.15482337499934,"value":0.905511811023622},{"number":64,"time":91.21465237499935,"value":0.937007874015748},{"number":64,"time":91.25311387499934,"value":0.9763779527559056},{"number":64,"time":91.96037812499934,"value":0.8976377952755905},{"number":64,"time":91.97960887499934,"value":0.6771653543307087},{"number":64,"time":92.00097637499934,"value":0.4251968503937008},{"number":64,"time":92.01913874999933,"value":0},{"number":64,"time":92.03943787499932,"value":0.14173228346456693},{"number":64,"time":92.06080537499932,"value":0.33858267716535434},{"number":64,"time":92.07896774999932,"value":0.5039370078740157},{"number":64,"time":92.09819849999933,"value":0.6220472440944882},{"number":64,"time":92.11849762499932,"value":0.7874015748031497},{"number":64,"time":92.13986512499932,"value":0.9763779527559056},{"number":64,"time":93.09606074999928,"value":0.7401574803149606},{"number":64,"time":93.11742824999928,"value":0.49606299212598426},{"number":64,"time":93.13879574999928,"value":0.11811023622047244},{"number":64,"time":93.17512049999928,"value":0.33858267716535434},{"number":64,"time":93.19648799999928,"value":0.5196850393700787},{"number":64,"time":93.21465037499928,"value":0.6456692913385826},{"number":64,"time":93.23494949999929,"value":0.8188976377952756},{"number":64,"time":93.25631699999929,"value":0.968503937007874},{"number":64,"time":93.27447937499929,"value":1},{"number":64,"time":93.64413712499929,"value":0.8188976377952756},{"number":64,"time":93.66443624999928,"value":0.6062992125984252},{"number":64,"time":93.68259862499929,"value":0.48031496062992124},{"number":64,"time":93.70289774999928,"value":0.5039370078740157},{"number":64,"time":93.72319687499927,"value":0.5748031496062992},{"number":64,"time":93.74242762499928,"value":0.7165354330708661},{"number":64,"time":93.76272674999927,"value":0.9291338582677166},{"number":64,"time":93.78302587499927,"value":1},{"number":64,"time":94.13665799999926,"value":0.8503937007874016},{"number":64,"time":94.15375199999926,"value":0.6220472440944882},{"number":64,"time":94.17405112499925,"value":0.3700787401574803},{"number":64,"time":94.19328187499924,"value":0},{"number":64,"time":94.21358099999924,"value":0.10236220472440945},{"number":64,"time":94.23494849999923,"value":0.3543307086614173},{"number":64,"time":94.25417924999924,"value":0.5196850393700787},{"number":64,"time":94.27447837499923,"value":0.6535433070866141},{"number":64,"time":94.29477749999923,"value":0.8503937007874016},{"number":64,"time":94.31400824999923,"value":1},{"number":64,"time":95.31293887499926,"value":0.7716535433070866},{"number":64,"time":95.33216962499925,"value":0.5511811023622047},{"number":64,"time":95.35140037499924,"value":0.4330708661417323},{"number":64,"time":95.37169949999925,"value":0.48031496062992124},{"number":64,"time":95.38024649999925,"value":0.5590551181102362},{"number":64,"time":95.41443449999925,"value":0.7086614173228346},{"number":64,"time":95.43473362499924,"value":0.952755905511811},{"number":64,"time":95.45396437499925,"value":1},{"number":64,"time":95.96678437499924,"value":0.8740157480314961},{"number":64,"time":95.98815187499923,"value":0.6456692913385826},{"number":64,"time":96.00738262499924,"value":0.47244094488188976},{"number":64,"time":96.02768174999923,"value":0.4330708661417323},{"number":64,"time":96.04798087499923,"value":0.47244094488188976},{"number":64,"time":96.06614324999923,"value":0.5354330708661418},{"number":64,"time":96.08537399999923,"value":0.6377952755905512},{"number":64,"time":96.10567312499923,"value":0.8031496062992126},{"number":64,"time":96.12597224999922,"value":1},{"number":64,"time":97.02661237499919,"value":0.889763779527559},{"number":64,"time":97.04904824999919,"value":0.6614173228346457},{"number":64,"time":97.06507387499919,"value":0.2992125984251969},{"number":64,"time":97.08430462499919,"value":0},{"number":64,"time":97.28195399999919,"value":0.1732283464566929},{"number":64,"time":97.30225312499918,"value":0.3779527559055118},{"number":64,"time":97.31934712499918,"value":0.4881889763779528},{"number":64,"time":97.34071462499918,"value":0.5354330708661418},{"number":64,"time":97.35994537499919,"value":0.5669291338582677},{"number":64,"time":97.38024449999918,"value":0.6141732283464567},{"number":64,"time":97.41229574999917,"value":0.7007874015748031},{"number":64,"time":97.43473162499917,"value":0.8110236220472441},{"number":64,"time":97.45503074999917,"value":0.9212598425196851},{"number":64,"time":97.47426149999917,"value":1},{"number":64,"time":99.5896439999992,"value":0.937007874015748},{"number":64,"time":99.60994312499919,"value":0.8188976377952756},{"number":64,"time":99.63024224999918,"value":0.6299212598425197},{"number":64,"time":99.64733624999919,"value":0.3700787401574803},{"number":64,"time":99.66656699999919,"value":0},{"number":64,"time":99.72746437499919,"value":0.2992125984251969},{"number":64,"time":99.74669512499919,"value":0.4409448818897638},{"number":64,"time":99.76913099999919,"value":0.5118110236220472},{"number":64,"time":99.7872933749992,"value":0.5826771653543307},{"number":64,"time":99.80759249999919,"value":0.6850393700787402},{"number":64,"time":99.82575487499919,"value":0.8188976377952756},{"number":64,"time":99.84605399999919,"value":0.937007874015748},{"number":64,"time":99.86528474999919,"value":1},{"number":64,"time":100.7659248749992,"value":0.8740157480314961},{"number":64,"time":100.7872923749992,"value":0.7401574803149606},{"number":64,"time":100.8054547499992,"value":0.5354330708661418},{"number":64,"time":100.8246854999992,"value":0.11023622047244094},{"number":64,"time":100.8449846249992,"value":0},{"number":64,"time":100.9037452499992,"value":0.11811023622047244},{"number":64,"time":100.9219076249992,"value":0.33070866141732286},{"number":64,"time":100.9432751249992,"value":0.4645669291338583},{"number":64,"time":100.9614374999992,"value":0.5590551181102362},{"number":64,"time":100.9828049999992,"value":0.6692913385826772},{"number":64,"time":101.0031041249992,"value":0.8031496062992126},{"number":64,"time":101.0212664999992,"value":0.9133858267716536},{"number":64,"time":101.0415656249992,"value":0.9763779527559056},{"number":64,"time":102.07788937499915,"value":0.9291338582677166},{"number":64,"time":102.09925687499914,"value":0.7795275590551181},{"number":64,"time":102.11848762499915,"value":0.5669291338582677},{"number":64,"time":102.13878674999914,"value":0.14173228346456693},{"number":64,"time":102.15694912499914,"value":0},{"number":64,"time":102.21570974999915,"value":0.28346456692913385},{"number":64,"time":102.23707724999915,"value":0.4330708661417323},{"number":64,"time":102.25630799999915,"value":0.5196850393700787},{"number":64,"time":102.27660712499915,"value":0.5984251968503937},{"number":64,"time":102.29583787499915,"value":0.7086614173228346},{"number":64,"time":102.31506862499916,"value":0.8267716535433071},{"number":64,"time":102.33323099999916,"value":0.9133858267716536},{"number":64,"time":102.35459849999916,"value":0.9448818897637795},{"number":64,"time":102.40908562499916,"value":0.9763779527559056},{"number":64,"time":103.23814462499917,"value":0.889763779527559},{"number":64,"time":103.25737537499917,"value":0.7322834645669292},{"number":64,"time":103.27767449999916,"value":0.5354330708661418},{"number":64,"time":103.29797362499916,"value":0.2047244094488189},{"number":64,"time":103.31506762499916,"value":0},{"number":64,"time":103.35459749999916,"value":0.15748031496062992},{"number":64,"time":103.37596499999916,"value":0.3464566929133858},{"number":64,"time":103.40908462499915,"value":0.44881889763779526},{"number":64,"time":103.42938374999915,"value":0.5039370078740157},{"number":64,"time":103.44861449999915,"value":0.5511811023622047},{"number":64,"time":103.46998199999915,"value":0.6141732283464567},{"number":64,"time":103.48921274999915,"value":0.6929133858267716},{"number":64,"time":103.50844349999916,"value":0.7716535433070866},{"number":64,"time":103.52874262499915,"value":0.8267716535433071},{"number":64,"time":103.54904174999915,"value":0.8661417322834646},{"number":64,"time":103.60673399999915,"value":0.905511811023622},{"number":64,"time":103.66335787499915,"value":0.937007874015748},{"number":64,"time":103.82254574999915,"value":0.968503937007874},{"number":64,"time":104.35459649999913,"value":0.9291338582677166},{"number":64,"time":104.37382724999912,"value":0.889763779527559},{"number":64,"time":104.40801524999912,"value":0.8188976377952756},{"number":64,"time":104.42724599999913,"value":0.7165354330708661},{"number":64,"time":104.45075024999913,"value":0.5669291338582677},{"number":64,"time":104.46784424999913,"value":0.3858267716535433},{"number":64,"time":104.48707499999914,"value":0.2755905511811024},{"number":64,"time":104.52767324999914,"value":0.3858267716535433},{"number":64,"time":104.54797237499913,"value":0.4645669291338583},{"number":64,"time":104.56720312499914,"value":0.5118110236220472},{"number":64,"time":104.58429712499914,"value":0.5511811023622047},{"number":64,"time":104.60673299999914,"value":0.6062992125984252},{"number":64,"time":104.62703212499913,"value":0.6771653543307087},{"number":64,"time":104.64626287499914,"value":0.7322834645669292},{"number":64,"time":104.66442524999914,"value":0.7795275590551181},{"number":64,"time":104.68365599999915,"value":0.8188976377952756},{"number":64,"time":104.72425424999915,"value":0.8661417322834646},{"number":64,"time":104.76164737499914,"value":0.905511811023622},{"number":64,"time":104.93899762499915,"value":0.937007874015748},{"number":64,"time":105.29476649999916,"value":0.905511811023622},{"number":64,"time":105.33109124999916,"value":0.84251968503937},{"number":64,"time":105.35245874999916,"value":0.7480314960629921},{"number":64,"time":105.37275787499917,"value":0.5748031496062992},{"number":64,"time":105.40694587499917,"value":0.28346456692913385},{"number":64,"time":105.42617662499917,"value":0},{"number":64,"time":105.50630474999917,"value":0.25984251968503935},{"number":64,"time":105.52553549999918,"value":0.4251968503937008},{"number":64,"time":105.54690299999918,"value":0.5039370078740157},{"number":64,"time":105.56613374999918,"value":0.5669291338582677},{"number":64,"time":105.58429612499918,"value":0.6535433070866141},{"number":64,"time":105.60352687499919,"value":0.7637795275590551},{"number":64,"time":105.62489437499919,"value":0.8503937007874016},{"number":64,"time":105.64519349999918,"value":0.889763779527559},{"number":64,"time":105.68258662499917,"value":0.937007874015748},{"number":64,"time":105.70288574999917,"value":0.9763779527559056},{"number":64,"time":106.55010712499916,"value":0.8188976377952756},{"number":64,"time":106.56826949999916,"value":0.5748031496062992},{"number":64,"time":106.58643187499916,"value":0},{"number":64,"time":106.70502149999916,"value":0.3937007874015748},{"number":64,"time":106.72532062499916,"value":0.5669291338582677},{"number":64,"time":106.74348299999916,"value":0.7086614173228346},{"number":64,"time":106.76271374999916,"value":0.8740157480314961},{"number":64,"time":106.78301287499916,"value":1},{"number":64,"time":107.6847213749992,"value":0.968503937007874},{"number":64,"time":107.7039521249992,"value":0.8818897637795275},{"number":64,"time":107.7242512499992,"value":0.7322834645669292},{"number":64,"time":107.7413452499992,"value":0.5196850393700787},{"number":64,"time":107.7616443749992,"value":0},{"number":64,"time":107.82147337499919,"value":0.10236220472440945},{"number":64,"time":107.84177249999918,"value":0.33858267716535434},{"number":64,"time":107.86313999999918,"value":0.44881889763779526},{"number":64,"time":107.88237074999918,"value":0.5118110236220472},{"number":64,"time":107.90160149999919,"value":0.5748031496062992},{"number":64,"time":107.91976387499919,"value":0.6535433070866141},{"number":64,"time":107.94006299999918,"value":0.7480314960629921},{"number":64,"time":107.95929374999919,"value":0.8188976377952756},{"number":64,"time":107.97852449999918,"value":0.8582677165354331},{"number":64,"time":108.05651587499916,"value":0.8976377952755905},{"number":64,"time":108.07788337499917,"value":0.9448818897637795},{"number":64,"time":108.19433624999917,"value":0.9763779527559056},{"number":64,"time":108.76271174999917,"value":0.937007874015748},{"number":64,"time":108.80224162499917,"value":0.889763779527559},{"number":64,"time":108.82254074999916,"value":0.8582677165354331},{"number":64,"time":108.84390824999916,"value":0.8267716535433071},{"number":64,"time":108.86313899999917,"value":0.7795275590551181},{"number":64,"time":108.88236974999917,"value":0.7086614173228346},{"number":64,"time":108.90266887499916,"value":0.6141732283464567},{"number":64,"time":108.92083124999917,"value":0.47244094488188976},{"number":64,"time":108.94006199999917,"value":0.14173228346456693},{"number":64,"time":108.96036112499917,"value":0},{"number":64,"time":109.03728412499916,"value":0.23622047244094488},{"number":64,"time":109.05865162499916,"value":0.3779527559055118},{"number":64,"time":109.07788237499916,"value":0.4566929133858268},{"number":64,"time":109.09818149999916,"value":0.49606299212598426},{"number":64,"time":109.11954899999915,"value":0.5433070866141733},{"number":64,"time":109.13771137499916,"value":0.6062992125984252},{"number":64,"time":109.15480537499916,"value":0.6692913385826772},{"number":64,"time":109.17510449999915,"value":0.7401574803149606},{"number":64,"time":109.19540362499914,"value":0.7952755905511811},{"number":64,"time":109.21570274999914,"value":0.8267716535433071},{"number":64,"time":109.29689924999914,"value":0.8582677165354331},{"number":64,"time":109.39305299999914,"value":0.7952755905511811},{"number":64,"time":109.42724099999914,"value":0.7322834645669292},{"number":64,"time":109.44754012499914,"value":0.6535433070866141},{"number":64,"time":109.46783924999913,"value":0.6299212598425197},{"number":64,"time":109.48813837499912,"value":0.6535433070866141},{"number":64,"time":109.50736912499913,"value":0.6929133858267716},{"number":64,"time":109.52659987499914,"value":0.7480314960629921},{"number":64,"time":109.54796737499913,"value":0.7952755905511811},{"number":64,"time":110.01698399999913,"value":0.7480314960629921},{"number":64,"time":110.03728312499912,"value":0.6614173228346457},{"number":64,"time":110.05651387499913,"value":0.5039370078740157},{"number":64,"time":110.09818049999913,"value":0},{"number":64,"time":110.17510349999912,"value":0.2992125984251969},{"number":64,"time":110.19433424999913,"value":0.4330708661417323},{"number":64,"time":110.21570174999913,"value":0.5039370078740157},{"number":64,"time":110.23279574999913,"value":0.5511811023622047},{"number":64,"time":110.25309487499912,"value":0.6141732283464567},{"number":64,"time":110.27339399999912,"value":0.6929133858267716},{"number":64,"time":110.29155637499912,"value":0.7637795275590551},{"number":64,"time":110.31185549999911,"value":0.8188976377952756},{"number":64,"time":110.39412037499912,"value":0.8503937007874016},{"number":64,"time":111.23279474999912,"value":0.8031496062992126},{"number":64,"time":111.25416224999911,"value":0.7165354330708661},{"number":64,"time":111.27232462499911,"value":0.5669291338582677},{"number":64,"time":111.29369212499911,"value":0.2992125984251969},{"number":64,"time":111.3139912499991,"value":0},{"number":64,"time":111.3930509999991,"value":0.1968503937007874},{"number":64,"time":111.4272389999991,"value":0.41732283464566927},{"number":64,"time":111.4464697499991,"value":0.5354330708661418},{"number":64,"time":111.4689056249991,"value":0.6299212598425197},{"number":64,"time":111.4870679999991,"value":0.7559055118110236},{"number":64,"time":111.5052303749991,"value":0.8818897637795275},{"number":64,"time":111.5233927499991,"value":0.952755905511811},{"number":64,"time":111.60458924999911,"value":0.984251968503937},{"number":64,"time":112.34710987499909,"value":0.937007874015748},{"number":64,"time":112.3674089999991,"value":0.8976377952755905},{"number":64,"time":112.3877081249991,"value":0.7952755905511811},{"number":64,"time":112.4229644999991,"value":0.6141732283464567},{"number":64,"time":112.4411268749991,"value":0.36220472440944884},{"number":64,"time":112.4614259999991,"value":0},{"number":64,"time":112.54048574999909,"value":0.25984251968503935},{"number":64,"time":112.5597164999991,"value":0.4330708661417323},{"number":64,"time":112.58001562499909,"value":0.5196850393700787},{"number":64,"time":112.5992463749991,"value":0.5984251968503937},{"number":64,"time":112.6206138749991,"value":0.6850393700787402},{"number":64,"time":112.6398446249991,"value":0.7716535433070866},{"number":64,"time":112.6580069999991,"value":0.8267716535433071},{"number":64,"time":112.6975368749991,"value":0.8818897637795275},{"number":64,"time":112.7359983749991,"value":0.9291338582677166},{"number":64,"time":112.7755282499991,"value":0.9606299212598425},{"number":64,"time":113.1889893749991,"value":1},{"number":64,"time":113.59817699999911,"value":0.9212598425196851},{"number":64,"time":113.6184761249991,"value":0.7874015748031497},{"number":64,"time":113.6398436249991,"value":0.5748031496062992},{"number":64,"time":113.6569376249991,"value":0.14960629921259844},{"number":64,"time":113.67616837499911,"value":0},{"number":64,"time":113.7541597499991,"value":0.2204724409448819},{"number":64,"time":113.7744588749991,"value":0.4330708661417323},{"number":64,"time":113.79475799999909,"value":0.5354330708661418},{"number":64,"time":113.8139887499991,"value":0.6299212598425197},{"number":64,"time":113.8342878749991,"value":0.7480314960629921},{"number":64,"time":113.84710837499911,"value":0.8661417322834646},{"number":64,"time":113.86633912499912,"value":0.9448818897637795},{"number":64,"time":113.90480062499911,"value":0.9921259842519685},{"number":64,"time":114.7872783749991,"value":0.8188976377952756},{"number":64,"time":114.8075774999991,"value":0.6220472440944882},{"number":64,"time":114.82787662499909,"value":0.3779527559055118},{"number":64,"time":114.8471073749991,"value":0},{"number":64,"time":114.8866372499991,"value":0.12598425196850394},{"number":64,"time":114.9058679999991,"value":0.3858267716535433},{"number":64,"time":114.92509874999911,"value":0.5275590551181102},{"number":64,"time":114.9453978749991,"value":0.6377952755905512},{"number":64,"time":114.96462862499911,"value":0.8110236220472441},{"number":64,"time":114.98279099999911,"value":0.9921259842519685},{"number":64,"time":115.97958487499909,"value":0.8031496062992126},{"number":64,"time":115.99988399999908,"value":0.5511811023622047},{"number":64,"time":116.02018312499908,"value":0.14173228346456693},{"number":64,"time":116.04048224999907,"value":0},{"number":64,"time":116.07894374999907,"value":0.16535433070866143},{"number":64,"time":116.10031124999907,"value":0.4094488188976378},{"number":64,"time":116.11954199999907,"value":0.5275590551181102},{"number":64,"time":116.13984112499907,"value":0.6220472440944882},{"number":64,"time":116.15800349999907,"value":0.7244094488188977},{"number":64,"time":116.17723424999907,"value":0.8346456692913385},{"number":64,"time":116.19753337499907,"value":0.9606299212598425},{"number":64,"time":116.21783249999906,"value":1},{"number":64,"time":117.23813062499906,"value":0.84251968503937},{"number":64,"time":117.25736137499906,"value":0.6299212598425197},{"number":64,"time":117.27766049999907,"value":0.36220472440944884},{"number":64,"time":117.29689124999908,"value":0},{"number":64,"time":117.33642112499908,"value":0.09448818897637795},{"number":64,"time":117.35778862499907,"value":0.3543307086614173},{"number":64,"time":117.37701937499908,"value":0.5039370078740157},{"number":64,"time":117.41227574999908,"value":0.5826771653543307},{"number":64,"time":117.43043812499909,"value":0.6771653543307087},{"number":64,"time":117.45180562499908,"value":0.8031496062992126},{"number":64,"time":117.47103637499907,"value":0.9448818897637795},{"number":64,"time":117.48919874999908,"value":1},{"number":64,"time":118.47103537499906,"value":0.9448818897637795},{"number":64,"time":118.48812937499906,"value":0.8031496062992126},{"number":64,"time":118.50842849999906,"value":0.5984251968503937},{"number":64,"time":118.52765924999906,"value":0.33070866141732286},{"number":64,"time":118.54902674999906,"value":0},{"number":64,"time":118.62808649999906,"value":0.30708661417322836},{"number":64,"time":118.64838562499905,"value":0.47244094488188976},{"number":64,"time":118.66441124999905,"value":0.5669291338582677},{"number":64,"time":118.68577874999905,"value":0.6535433070866141},{"number":64,"time":118.70500949999905,"value":0.7401574803149606},{"number":64,"time":118.72530862499906,"value":0.8346456692913385},{"number":64,"time":118.74347099999906,"value":0.8976377952755905},{"number":64,"time":118.76270174999907,"value":0.9291338582677166},{"number":64,"time":118.82146237499907,"value":0.968503937007874},{"number":64,"time":119.05864162499907,"value":1},{"number":64,"time":119.68364099999904,"value":0.952755905511811},{"number":64,"time":119.70394012499904,"value":0.8110236220472441},{"number":64,"time":119.72637599999904,"value":0.6220472440944882},{"number":64,"time":119.74240162499903,"value":0.4330708661417323},{"number":64,"time":119.76270074999903,"value":0.3228346456692913},{"number":64,"time":119.78299987499902,"value":0.36220472440944884},{"number":64,"time":119.80329899999901,"value":0.44881889763779526},{"number":64,"time":119.82252974999902,"value":0.5354330708661418},{"number":64,"time":119.84176049999903,"value":0.6141732283464567},{"number":64,"time":119.86312799999902,"value":0.7322834645669292},{"number":64,"time":119.88235874999903,"value":0.8661417322834646},{"number":64,"time":119.90052112499903,"value":0.9763779527559056},{"number":64,"time":120.25201649999902,"value":0.937007874015748},{"number":64,"time":120.27338399999901,"value":0.84251968503937},{"number":64,"time":120.293683124999,"value":0.7165354330708661},{"number":64,"time":120.31184549999901,"value":0.6062992125984252},{"number":64,"time":120.333212999999,"value":0.5590551181102362},{"number":64,"time":120.35137537499901,"value":0.5748031496062992},{"number":64,"time":120.371674499999,"value":0.6299212598425197},{"number":64,"time":120.40799924999901,"value":0.7165354330708661},{"number":64,"time":120.428298374999,"value":0.8267716535433071},{"number":64,"time":120.446460749999,"value":0.9133858267716536},{"number":64,"time":120.467828249999,"value":0.9606299212598425},{"number":64,"time":120.506289749999,"value":1},{"number":64,"time":120.86099024999899,"value":0.968503937007874},{"number":64,"time":120.88128937499899,"value":0.8818897637795275},{"number":64,"time":120.89945174999899,"value":0.7322834645669292},{"number":64,"time":120.91654574999899,"value":0.5511811023622047},{"number":64,"time":120.94004999999899,"value":0.23622047244094488},{"number":64,"time":120.959280749999,"value":0},{"number":64,"time":121.03727212499899,"value":0.2204724409448819},{"number":64,"time":121.056502874999,"value":0.4251968503937008},{"number":64,"time":121.07680199999899,"value":0.5275590551181102},{"number":64,"time":121.09710112499899,"value":0.5984251968503937},{"number":64,"time":121.11740024999898,"value":0.6850393700787402},{"number":64,"time":121.13663099999899,"value":0.7874015748031497},{"number":64,"time":121.15479337499899,"value":0.8818897637795275},{"number":64,"time":121.175092499999,"value":0.9448818897637795},{"number":64,"time":121.194323249999,"value":0.9763779527559056},{"number":64,"time":122.17295474999901,"value":0.905511811023622},{"number":64,"time":122.195390624999,"value":0.7401574803149606},{"number":64,"time":122.21248462499901,"value":0.5039370078740157},{"number":64,"time":122.23064699999901,"value":0},{"number":64,"time":122.330005874999,"value":0.29133858267716534},{"number":64,"time":122.34923662499901,"value":0.44881889763779526},{"number":64,"time":122.36846737499901,"value":0.5196850393700787},{"number":64,"time":122.40479212499902,"value":0.5669291338582677},{"number":64,"time":122.42509124999901,"value":0.6062992125984252},{"number":64,"time":122.44539037499901,"value":0.6692913385826772},{"number":64,"time":122.46462112499901,"value":0.7559055118110236},{"number":64,"time":122.48278349999902,"value":0.8503937007874016},{"number":64,"time":122.50308262499901,"value":0.9291338582677166},{"number":64,"time":122.523381749999,"value":0.9606299212598425},{"number":64,"time":122.580005624999,"value":0.9921259842519685},{"number":64,"time":123.60137212499899,"value":0.8818897637795275},{"number":64,"time":123.62167124999898,"value":0.6850393700787402},{"number":64,"time":123.64410712499898,"value":0.4645669291338583},{"number":64,"time":123.66226949999898,"value":0},{"number":64,"time":123.74026087499898,"value":0.28346456692913385},{"number":64,"time":123.75949162499899,"value":0.4566929133858268},{"number":64,"time":123.77979074999898,"value":0.5433070866141733},{"number":64,"time":123.79902149999899,"value":0.6220472440944882},{"number":64,"time":123.81825224999899,"value":0.7322834645669292},{"number":64,"time":123.836414624999,"value":0.8503937007874016},{"number":64,"time":123.85778212499899,"value":0.952755905511811},{"number":64,"time":123.877012874999,"value":1},{"number":64,"time":125.89624162499895,"value":0.8818897637795275},{"number":64,"time":125.91547237499896,"value":0.6614173228346457},{"number":64,"time":125.93683987499895,"value":0.4251968503937008},{"number":64,"time":125.95713899999896,"value":0.28346456692913385},{"number":64,"time":125.97636974999897,"value":0.33858267716535434},{"number":64,"time":125.99239537499896,"value":0.4409448818897638},{"number":64,"time":126.01483124999896,"value":0.5275590551181102},{"number":64,"time":126.03513037499896,"value":0.6062992125984252},{"number":64,"time":126.05436112499896,"value":0.7007874015748031},{"number":64,"time":126.07252349999897,"value":0.8031496062992126},{"number":64,"time":126.09068587499897,"value":0.905511811023622},{"number":64,"time":126.11419012499897,"value":0.984251968503937},{"number":64,"time":127.13235149999893,"value":0.8503937007874016},{"number":64,"time":127.15265062499893,"value":0.6377952755905512},{"number":64,"time":127.17401812499892,"value":0.41732283464566927},{"number":64,"time":127.19538562499892,"value":0.18110236220472442},{"number":64,"time":127.23064199999892,"value":0.33858267716535434},{"number":64,"time":127.25094112499892,"value":0.4566929133858268},{"number":64,"time":127.27124024999891,"value":0.5196850393700787},{"number":64,"time":127.29047099999892,"value":0.5669291338582677},{"number":64,"time":127.31183849999891,"value":0.6299212598425197},{"number":64,"time":127.32893249999891,"value":0.7165354330708661},{"number":64,"time":127.35029999999891,"value":0.8267716535433071},{"number":64,"time":127.36846237499891,"value":0.9291338582677166},{"number":64,"time":127.38769312499892,"value":0.984251968503937},{"number":64,"time":128.3470938749989,"value":0.8188976377952756},{"number":64,"time":128.3673929999989,"value":0.6299212598425197},{"number":64,"time":128.38982887499893,"value":0.4566929133858268},{"number":64,"time":128.42401687499893,"value":0.3228346456692913},{"number":64,"time":128.46354674999893,"value":0.3779527559055118},{"number":64,"time":128.48384587499893,"value":0.44881889763779526},{"number":64,"time":128.50200824999894,"value":0.5039370078740157},{"number":64,"time":128.52230737499895,"value":0.5590551181102362},{"number":64,"time":128.54153812499894,"value":0.6299212598425197},{"number":64,"time":128.56183724999894,"value":0.7086614173228346},{"number":64,"time":128.57893124999893,"value":0.7795275590551181},{"number":64,"time":128.60029874999893,"value":0.8503937007874016},{"number":64,"time":128.61952949999892,"value":0.889763779527559},{"number":64,"time":128.66012774999888,"value":0.9291338582677166},{"number":64,"time":128.71888837499887,"value":0.968503937007874},{"number":64,"time":129.17187937499887,"value":1},{"number":64,"time":130.5436728749989,"value":0.952755905511811},{"number":64,"time":130.56290362499888,"value":0.8110236220472441},{"number":64,"time":130.58427112499888,"value":0.5984251968503937},{"number":64,"time":130.60350187499887,"value":0.33858267716535434},{"number":64,"time":130.62273262499886,"value":0},{"number":64,"time":130.64410012499886,"value":0.12598425196850394},{"number":64,"time":130.66333087499885,"value":0.3543307086614173},{"number":64,"time":130.68362999999886,"value":0.5039370078740157},{"number":64,"time":130.70286074999885,"value":0.5984251968503937},{"number":64,"time":130.72422824999884,"value":0.7007874015748031},{"number":64,"time":130.74132224999883,"value":0.8110236220472441},{"number":64,"time":130.76162137499884,"value":0.9212598425196851},{"number":64,"time":130.78085212499883,"value":0.9921259842519685},{"number":64,"time":132.93683287499877,"value":0.84251968503937},{"number":64,"time":132.95713199999878,"value":0.6141732283464567},{"number":64,"time":132.97529437499878,"value":0.3464566929133858},{"number":64,"time":132.99452512499877,"value":0},{"number":64,"time":133.03405499999877,"value":0.28346456692913385},{"number":64,"time":133.05328574999876,"value":0.4566929133858268},{"number":64,"time":133.07251649999876,"value":0.5511811023622047},{"number":64,"time":133.09281562499876,"value":0.6377952755905512},{"number":64,"time":133.11311474999877,"value":0.7637795275590551},{"number":64,"time":133.13234549999876,"value":0.9133858267716536},{"number":64,"time":133.15157624999875,"value":1},{"number":64,"time":133.97636174999872,"value":0.937007874015748},{"number":64,"time":133.99666087499872,"value":0.7244094488188977},{"number":64,"time":134.0137548749987,"value":0.5039370078740157},{"number":64,"time":134.03619074999872,"value":0.25196850393700787},{"number":64,"time":134.0725154999987,"value":0.4015748031496063},{"number":64,"time":134.0928146249987,"value":0.5118110236220472},{"number":64,"time":134.11311374999872,"value":0.5905511811023622},{"number":64,"time":134.1323444999987,"value":0.6692913385826772},{"number":64,"time":134.1537119999987,"value":0.7322834645669292},{"number":64,"time":134.1729427499987,"value":0.8031496062992126},{"number":64,"time":134.1943102499987,"value":0.8818897637795275},{"number":64,"time":134.2124726249987,"value":0.952755905511811},{"number":64,"time":134.22956662499868,"value":1},{"number":64,"time":135.09495037499866,"value":0.937007874015748},{"number":64,"time":135.11631787499866,"value":0.7086614173228346},{"number":64,"time":135.13661699999867,"value":0.3464566929133858},{"number":64,"time":135.15477937499867,"value":0},{"number":64,"time":135.23383912499867,"value":0.14173228346456693},{"number":64,"time":135.25306987499866,"value":0.4094488188976378},{"number":64,"time":135.27336899999867,"value":0.5511811023622047},{"number":64,"time":135.29259974999866,"value":0.6692913385826772},{"number":64,"time":135.31183049999865,"value":0.8346456692913385},{"number":64,"time":135.33106124999864,"value":0.9763779527559056},{"number":64,"time":136.11524849999861,"value":0.937007874015748},{"number":64,"time":136.1344792499986,"value":0.7244094488188977},{"number":64,"time":136.1537099999986,"value":0.4566929133858268},{"number":64,"time":136.17400912499858,"value":0},{"number":64,"time":136.21460737499856,"value":0.16535433070866143},{"number":64,"time":136.23276974999857,"value":0.3937007874015748},{"number":64,"time":136.25306887499858,"value":0.5039370078740157},{"number":64,"time":136.27229962499857,"value":0.5590551181102362},{"number":64,"time":136.29153037499856,"value":0.6062992125984252},{"number":64,"time":136.31076112499855,"value":0.6692913385826772},{"number":64,"time":136.32999187499854,"value":0.7480314960629921},{"number":64,"time":136.35135937499854,"value":0.8346456692913385},{"number":64,"time":136.36952174999854,"value":0.8976377952755905},{"number":64,"time":136.44537637499855,"value":0.9291338582677166},{"number":64,"time":136.48597462499853,"value":1},{"number":64,"time":137.25199949999856,"value":0.905511811023622},{"number":64,"time":137.27123024999855,"value":0.6614173228346457},{"number":64,"time":137.29366612499854,"value":0.4094488188976378},{"number":64,"time":137.31182849999854,"value":0.28346456692913385},{"number":64,"time":137.33105924999853,"value":0.3937007874015748},{"number":64,"time":137.35135837499854,"value":0.5275590551181102},{"number":64,"time":137.37058912499853,"value":0.6692913385826772},{"number":64,"time":137.40691387499854,"value":0.8661417322834646},{"number":64,"time":137.42721299999855,"value":1},{"number":64,"time":138.37165649999852,"value":0.7086614173228346},{"number":64,"time":138.40584449999852,"value":0.4015748031496063},{"number":64,"time":138.42614362499853,"value":0},{"number":64,"time":138.46567349999853,"value":0.31496062992125984},{"number":64,"time":138.48490424999852,"value":0.5039370078740157},{"number":64,"time":138.50627174999852,"value":0.6141732283464567},{"number":64,"time":138.5255024999985,"value":0.7401574803149606},{"number":64,"time":138.54580162499852,"value":0.8346456692913385},{"number":64,"time":138.56610074999853,"value":0.8818897637795275},{"number":64,"time":138.6836219999985,"value":0.9133858267716536},{"number":64,"time":138.70392112499852,"value":0.9448818897637795},{"number":64,"time":138.7413142499985,"value":0.9763779527559056},{"number":64,"time":139.4453733749985,"value":0.9291338582677166},{"number":64,"time":139.46567249999848,"value":0.7086614173228346},{"number":64,"time":139.48703999999847,"value":0.4094488188976378},{"number":64,"time":139.50627074999846,"value":0},{"number":64,"time":139.56716812499846,"value":0.2992125984251969},{"number":64,"time":139.58426212499845,"value":0.4645669291338583},{"number":64,"time":139.60456124999845,"value":0.5511811023622047},{"number":64,"time":139.62379199999845,"value":0.6299212598425197},{"number":64,"time":139.64622787499843,"value":0.7322834645669292},{"number":64,"time":139.66439024999843,"value":0.8267716535433071},{"number":64,"time":139.68255262499844,"value":0.8818897637795275},{"number":64,"time":139.72315087499845,"value":0.9212598425196851},{"number":64,"time":139.74238162499844,"value":0.952755905511811},{"number":64,"time":139.76374912499844,"value":1},{"number":64,"time":140.60242349999837,"value":0.84251968503937},{"number":64,"time":140.62272262499837,"value":0.5905511811023622},{"number":64,"time":140.64409012499837,"value":0.25984251968503935},{"number":64,"time":140.66332087499836,"value":0},{"number":64,"time":140.68361999999837,"value":0.1732283464566929},{"number":64,"time":140.70285074999836,"value":0.3858267716535433},{"number":64,"time":140.72314987499834,"value":0.5118110236220472},{"number":64,"time":140.74131224999834,"value":0.5748031496062992},{"number":64,"time":140.76054299999834,"value":0.6535433070866141},{"number":64,"time":140.78191049999836,"value":0.7480314960629921},{"number":64,"time":140.80220962499837,"value":0.8661417322834646},{"number":64,"time":140.81930362499835,"value":0.9763779527559056},{"number":64,"time":141.23169637499836,"value":0.8110236220472441},{"number":64,"time":141.25413224999835,"value":0.5669291338582677},{"number":64,"time":141.29259374999836,"value":0},{"number":64,"time":141.33105524999837,"value":0.11023622047244094},{"number":64,"time":141.35028599999836,"value":0.3779527559055118},{"number":64,"time":141.37058512499837,"value":0.5039370078740157},{"number":64,"time":141.38981587499836,"value":0.5748031496062992},{"number":64,"time":141.42507224999835,"value":0.6535433070866141},{"number":64,"time":141.44430299999834,"value":0.7480314960629921},{"number":64,"time":141.46353374999833,"value":0.8503937007874016},{"number":64,"time":141.48490124999833,"value":0.9291338582677166},{"number":64,"time":141.50413199999832,"value":0.9606299212598425},{"number":64,"time":141.56396099999833,"value":1},{"number":64,"time":142.19216549999834,"value":0.905511811023622},{"number":64,"time":142.21032787499834,"value":0.7401574803149606},{"number":64,"time":142.23169537499834,"value":0.5354330708661418},{"number":64,"time":142.25092612499833,"value":0.14960629921259844},{"number":64,"time":142.27122524999834,"value":0},{"number":64,"time":142.35028499999834,"value":0.2992125984251969},{"number":64,"time":142.36844737499834,"value":0.48031496062992124},{"number":64,"time":142.38767812499833,"value":0.5826771653543307},{"number":64,"time":142.42293449999832,"value":0.6850393700787402},{"number":64,"time":142.44430199999832,"value":0.8031496062992126},{"number":64,"time":142.46246437499832,"value":0.905511811023622},{"number":64,"time":142.4827634999983,"value":0.984251968503937},{"number":64,"time":145.08959849999817,"value":0.8818897637795275},{"number":64,"time":145.10989762499818,"value":0.6771653543307087},{"number":64,"time":145.1301967499982,"value":0.47244094488188976},{"number":64,"time":145.14729074999818,"value":0.2204724409448819},{"number":64,"time":145.16758987499819,"value":0.1889763779527559},{"number":64,"time":145.1878889999982,"value":0.23622047244094488},{"number":64,"time":145.2081881249982,"value":0.33070866141732286},{"number":64,"time":145.2263504999982,"value":0.44881889763779526},{"number":64,"time":145.2477179999982,"value":0.5511811023622047},{"number":64,"time":145.2669487499982,"value":0.6456692913385826},{"number":64,"time":145.2872478749982,"value":0.7401574803149606},{"number":64,"time":145.3064786249982,"value":0.8110236220472441},{"number":64,"time":145.32570937499818,"value":0.8582677165354331},{"number":64,"time":145.36523924999818,"value":0.905511811023622},{"number":64,"time":145.43895712499818,"value":0.9448818897637795},{"number":64,"time":145.59600824999816,"value":0.8976377952755905},{"number":64,"time":145.61630737499817,"value":0.8110236220472441},{"number":64,"time":145.63660649999818,"value":0.6614173228346457},{"number":64,"time":145.65583724999817,"value":0.49606299212598426},{"number":64,"time":145.67613637499818,"value":0.3858267716535433},{"number":64,"time":145.69429874999818,"value":0.4015748031496063},{"number":64,"time":145.7145978749982,"value":0.4566929133858268},{"number":64,"time":145.7348969999982,"value":0.5196850393700787},{"number":64,"time":145.7541277499982,"value":0.5984251968503937},{"number":64,"time":145.7744268749982,"value":0.6771653543307087},{"number":64,"time":145.7947259999982,"value":0.7559055118110236},{"number":64,"time":145.81502512499821,"value":0.8188976377952756},{"number":64,"time":145.83318749999822,"value":0.8503937007874016},{"number":64,"time":145.9304096249982,"value":0.8818897637795275},{"number":64,"time":146.1269906249982,"value":0.8110236220472441},{"number":64,"time":146.1472897499982,"value":0.7086614173228346},{"number":64,"time":146.16758887499822,"value":0.5984251968503937},{"number":64,"time":146.18788799999822,"value":0.5275590551181102},{"number":64,"time":146.22741787499822,"value":0.5511811023622047},{"number":64,"time":146.24771699999823,"value":0.5905511811023622},{"number":64,"time":146.26801612499824,"value":0.6456692913385826},{"number":64,"time":146.28724687499823,"value":0.7007874015748031},{"number":64,"time":146.30754599999824,"value":0.7480314960629921},{"number":64,"time":146.32677674999823,"value":0.7874015748031497},{"number":64,"time":146.34600749999822,"value":0.8267716535433071},{"number":64,"time":146.36630662499823,"value":0.8582677165354331},{"number":64,"time":146.73489599999826,"value":0.8031496062992126},{"number":64,"time":146.75519512499824,"value":0.7086614173228346},{"number":64,"time":146.77656262499823,"value":0.5826771653543307},{"number":64,"time":146.79472499999824,"value":0.49606299212598426},{"number":64,"time":146.83318649999825,"value":0.5275590551181102},{"number":64,"time":146.85241724999824,"value":0.5826771653543307},{"number":64,"time":146.87378474999824,"value":0.6535433070866141},{"number":64,"time":146.89408387499824,"value":0.7165354330708661},{"number":64,"time":146.91117787499826,"value":0.7637795275590551},{"number":64,"time":146.95070774999826,"value":0.8110236220472441},{"number":64,"time":146.99130599999825,"value":0.8503937007874016},{"number":64,"time":147.36310049999827,"value":0.8188976377952756},{"number":64,"time":147.38446799999826,"value":0.7716535433070866},{"number":64,"time":147.41865599999826,"value":0.6929133858267716},{"number":64,"time":147.43895512499827,"value":0.5905511811023622},{"number":64,"time":147.45818587499826,"value":0.4645669291338583},{"number":64,"time":147.47848499999827,"value":0.28346456692913385},{"number":64,"time":147.49878412499828,"value":0.10236220472440945},{"number":64,"time":147.5767754999983,"value":0.23622047244094488},{"number":64,"time":147.5970746249983,"value":0.3858267716535433},{"number":64,"time":147.6163053749983,"value":0.49606299212598426},{"number":64,"time":147.6366044999983,"value":0.5590551181102362},{"number":64,"time":147.6558352499983,"value":0.6141732283464567},{"number":64,"time":147.67506599999828,"value":0.6614173228346457},{"number":64,"time":147.69322837499828,"value":0.7086614173228346},{"number":64,"time":147.71459587499828,"value":0.7480314960629921},{"number":64,"time":147.73382662499827,"value":0.7795275590551181},{"number":64,"time":147.77335649999827,"value":0.8267716535433071},{"number":64,"time":149.61630337499832,"value":0.7874015748031497},{"number":64,"time":149.63660249999833,"value":0.7401574803149606},{"number":64,"time":149.65583324999835,"value":0.6062992125984252},{"number":64,"time":149.67506399999834,"value":0.2440944881889764},{"number":64,"time":149.69536312499835,"value":0},{"number":64,"time":149.81502112499834,"value":0.1732283464566929},{"number":64,"time":149.83318349999834,"value":0.36220472440944884},{"number":64,"time":149.85241424999833,"value":0.4881889763779528},{"number":64,"time":149.8727133749983,"value":0.5590551181102362},{"number":64,"time":149.8940808749983,"value":0.6299212598425197},{"number":64,"time":149.9111748749983,"value":0.6929133858267716},{"number":64,"time":149.9314739999983,"value":0.7244094488188977},{"number":64,"time":150.00946537499829,"value":0.7559055118110236},{"number":64,"time":150.06929437499826,"value":0.7874015748031497},{"number":64,"time":150.12805499999826,"value":0.7322834645669292},{"number":64,"time":150.14728574999828,"value":0.6377952755905512},{"number":64,"time":150.16544812499828,"value":0.5748031496062992},{"number":64,"time":150.18574724999826,"value":0.5984251968503937},{"number":64,"time":150.20818312499824,"value":0.6535433070866141},{"number":64,"time":150.22634549999825,"value":0.7559055118110236},{"number":64,"time":150.24557624999824,"value":0.889763779527559},{"number":64,"time":150.26694374999823,"value":1},{"number":64,"time":150.65583224999818,"value":0.8818897637795275},{"number":64,"time":150.67506299999815,"value":0.5984251968503937},{"number":64,"time":150.69643049999814,"value":0},{"number":64,"time":150.81715687499815,"value":0.25196850393700787},{"number":64,"time":150.83318249999814,"value":0.3779527559055118},{"number":64,"time":150.85241324999814,"value":0.4409448818897638},{"number":64,"time":150.87271237499814,"value":0.5039370078740157},{"number":64,"time":150.89301149999815,"value":0.5826771653543307},{"number":64,"time":150.91224224999814,"value":0.6929133858267716},{"number":64,"time":150.93147299999814,"value":0.8346456692913385},{"number":64,"time":150.95177212499814,"value":0.937007874015748},{"number":64,"time":150.97313962499814,"value":0.968503937007874},{"number":64,"time":151.07143012499813,"value":1},{"number":64,"time":151.89407887499817,"value":0.889763779527559},{"number":64,"time":151.91010449999817,"value":0.7165354330708661},{"number":64,"time":151.93040362499818,"value":0.4645669291338583},{"number":64,"time":151.95177112499817,"value":0},{"number":64,"time":152.05112999999818,"value":0.18110236220472442},{"number":64,"time":152.06929237499818,"value":0.4094488188976378},{"number":64,"time":152.08852312499818,"value":0.5196850393700787},{"number":64,"time":152.10775387499817,"value":0.5984251968503937},{"number":64,"time":152.13018974999818,"value":0.7086614173228346},{"number":64,"time":152.14942049999817,"value":0.7952755905511811},{"number":64,"time":152.16437774999815,"value":0.8503937007874016},{"number":64,"time":152.9688641249981,"value":0.8188976377952756},{"number":64,"time":152.98916324999811,"value":0.7716535433070866},{"number":64,"time":153.00732562499812,"value":0.6614173228346457},{"number":64,"time":153.0265563749981,"value":0.47244094488188976},{"number":64,"time":153.0479238749981,"value":0},{"number":64,"time":153.1269836249981,"value":0.29133858267716534},{"number":64,"time":153.1462143749981,"value":0.44881889763779526},{"number":64,"time":153.1643767499981,"value":0.5511811023622047},{"number":64,"time":153.1846758749981,"value":0.6614173228346457},{"number":64,"time":153.2060433749981,"value":0.7874015748031497},{"number":64,"time":153.2242057499981,"value":0.8661417322834646},{"number":64,"time":153.30433387499812,"value":0.8976377952755905},{"number":64,"time":154.08531599999807,"value":0.8661417322834646},{"number":64,"time":154.10347837499808,"value":0.8110236220472441},{"number":64,"time":154.12698262499808,"value":0.6929133858267716},{"number":64,"time":154.14621337499807,"value":0.5118110236220472},{"number":64,"time":154.16330737499806,"value":0},{"number":64,"time":154.26266624999806,"value":0.2755905511811024},{"number":64,"time":154.28403374999806,"value":0.4251968503937008},{"number":64,"time":154.30326449999805,"value":0.5039370078740157},{"number":64,"time":154.32249524999804,"value":0.5748031496062992},{"number":64,"time":154.34279437499805,"value":0.6614173228346457},{"number":64,"time":154.36202512499804,"value":0.7559055118110236},{"number":64,"time":154.38018749999804,"value":0.8267716535433071},{"number":64,"time":154.4945036249981,"value":0.8582677165354331},{"number":64,"time":154.6910846249981,"value":0.8031496062992126},{"number":64,"time":154.7103153749981,"value":0.6850393700787402},{"number":64,"time":154.73168287499809,"value":0.5196850393700787},{"number":64,"time":154.75091362499808,"value":0.29133858267716534},{"number":64,"time":154.77121274999809,"value":0.10236220472440945},{"number":64,"time":154.79044349999808,"value":0.14960629921259844},{"number":64,"time":154.81074262499808,"value":0.2992125984251969},{"number":64,"time":154.82997337499808,"value":0.4251968503937008},{"number":64,"time":154.84920412499807,"value":0.5039370078740157},{"number":64,"time":154.86736649999807,"value":0.5590551181102362},{"number":64,"time":154.88873399999807,"value":0.6299212598425197},{"number":64,"time":154.90582799999805,"value":0.7086614173228346},{"number":64,"time":154.92719549999805,"value":0.7795275590551181},{"number":64,"time":154.94642624999804,"value":0.8267716535433071},{"number":64,"time":155.04578512499802,"value":0.8740157480314961},{"number":64,"time":155.065015874998,"value":0.905511811023622},{"number":64,"time":155.241297749998,"value":0.8740157480314961},{"number":64,"time":155.262665249998,"value":0.7637795275590551},{"number":64,"time":155.281895999998,"value":0.5826771653543307},{"number":64,"time":155.302195124998,"value":0.3464566929133858},{"number":64,"time":155.319289124998,"value":0},{"number":64,"time":155.360955749998,"value":0.25196850393700787},{"number":64,"time":155.380186499998,"value":0.4015748031496063},{"number":64,"time":155.413306124998,"value":0.48031496062992124},{"number":64,"time":155.433605249998,"value":0.5196850393700787},{"number":64,"time":155.45390437499802,"value":0.5511811023622047},{"number":64,"time":155.47420349999803,"value":0.5826771653543307},{"number":64,"time":155.49343424999802,"value":0.6141732283464567},{"number":64,"time":155.511596624998,"value":0.6535433070866141},{"number":64,"time":155.532964124998,"value":0.6771653543307087},{"number":64,"time":155.57142562499797,"value":0.7244094488188977},{"number":64,"time":155.612023874998,"value":0.7795275590551181},{"number":64,"time":155.651553749998,"value":0.8188976377952756},{"number":64,"time":155.74663912499798,"value":0.8661417322834646},{"number":64,"time":155.78723737499797,"value":0.8976377952755905},{"number":64,"time":155.88766462499797,"value":0.937007874015748},{"number":64,"time":156.02334824999798,"value":0.9763779527559056},{"number":64,"time":156.474202499998,"value":0.937007874015748},{"number":64,"time":156.491296499998,"value":0.8976377952755905},{"number":64,"time":156.51266399999798,"value":0.8031496062992126},{"number":64,"time":156.53403149999798,"value":0.6220472440944882},{"number":64,"time":156.55219387499798,"value":0.31496062992125984},{"number":64,"time":156.572492999998,"value":0},{"number":64,"time":156.630185249998,"value":0.13385826771653545},{"number":64,"time":156.64941599999798,"value":0.3543307086614173},{"number":64,"time":156.669715124998,"value":0.47244094488188976},{"number":64,"time":156.687877499998,"value":0.5354330708661418},{"number":64,"time":156.708176624998,"value":0.5905511811023622},{"number":64,"time":156.727407374998,"value":0.6535433070866141},{"number":64,"time":156.748774874998,"value":0.7165354330708661},{"number":64,"time":156.769073999998,"value":0.7637795275590551},{"number":64,"time":156.807535499998,"value":0.8110236220472441},{"number":64,"time":156.84920212499802,"value":0.84251968503937},{"number":64,"time":156.868432874998,"value":0.8818897637795275},{"number":64,"time":156.88873199999801,"value":0.9212598425196851},{"number":64,"time":156.90903112499802,"value":0.952755905511811},{"number":64,"time":157.00518487499804,"value":1},{"number":64,"time":157.59385949999805,"value":0.9448818897637795},{"number":64,"time":157.61309024999804,"value":0.7716535433070866},{"number":64,"time":157.63338937499805,"value":0.5511811023622047},{"number":64,"time":157.65368849999805,"value":0.11811023622047244},{"number":64,"time":157.67185087499806,"value":0},{"number":64,"time":157.71244912499805,"value":0.18110236220472442},{"number":64,"time":157.73061149999805,"value":0.3543307086614173},{"number":64,"time":157.74984224999804,"value":0.44881889763779526},{"number":64,"time":157.76907299999803,"value":0.5039370078740157},{"number":64,"time":157.78723537499803,"value":0.5511811023622047},{"number":64,"time":157.80967124999805,"value":0.6141732283464567},{"number":64,"time":157.82997037499803,"value":0.6850393700787402},{"number":64,"time":157.84920112499802,"value":0.7480314960629921},{"number":64,"time":157.868431874998,"value":0.8031496062992126},{"number":64,"time":157.907961749998,"value":0.84251968503937},{"number":64,"time":157.987021499998,"value":0.8976377952755905},{"number":64,"time":158.024414624998,"value":0.9291338582677166},{"number":64,"time":158.711379749998,"value":0.8976377952755905},{"number":64,"time":158.732747249998,"value":0.8582677165354331},{"number":64,"time":158.74984124999798,"value":0.7716535433070866},{"number":64,"time":158.77120874999798,"value":0.5984251968503937},{"number":64,"time":158.79043949999797,"value":0.28346456692913385},{"number":64,"time":158.80967024999796,"value":0},{"number":64,"time":158.89086674999797,"value":0.1889763779527559},{"number":64,"time":158.91009749999796,"value":0.3937007874015748},{"number":64,"time":158.92719149999795,"value":0.49606299212598426},{"number":64,"time":158.94749062499795,"value":0.5669291338582677},{"number":64,"time":158.96778974999796,"value":0.6377952755905512},{"number":64,"time":158.98808887499797,"value":0.7086614173228346},{"number":64,"time":159.00518287499796,"value":0.7716535433070866},{"number":64,"time":159.02441362499795,"value":0.8188976377952756},{"number":64,"time":159.04578112499794,"value":0.8503937007874016},{"number":64,"time":159.08531099999794,"value":0.8818897637795275},{"number":64,"time":159.18360149999793,"value":0.9133858267716536},{"number":64,"time":159.28189199999795,"value":0.968503937007874},{"number":64,"time":159.30112274999794,"value":1},{"number":64,"time":159.88872899999797,"value":0.968503937007874},{"number":64,"time":159.91009649999796,"value":0.7874015748031497},{"number":64,"time":159.92719049999795,"value":0.5433070866141733},{"number":64,"time":159.94642124999794,"value":0},{"number":64,"time":159.98701949999793,"value":0.18110236220472442},{"number":64,"time":160.0041134999979,"value":0.4251968503937008},{"number":64,"time":160.0254809999979,"value":0.5511811023622047},{"number":64,"time":160.0447117499979,"value":0.6692913385826772},{"number":64,"time":160.0650108749979,"value":0.8346456692913385},{"number":64,"time":160.0842416249979,"value":1},{"number":64,"time":161.16864224999787,"value":0.8818897637795275},{"number":64,"time":161.18894137499788,"value":0.6692913385826772},{"number":64,"time":161.2113772499979,"value":0.4330708661417323},{"number":64,"time":161.22847124999788,"value":0},{"number":64,"time":161.3064626249979,"value":0.1732283464566929},{"number":64,"time":161.3267617499979,"value":0.4094488188976378},{"number":64,"time":161.3470608749979,"value":0.5354330708661418},{"number":64,"time":161.36735999999792,"value":0.6299212598425197},{"number":64,"time":161.3865907499979,"value":0.7322834645669292},{"number":64,"time":161.4207787499979,"value":0.8031496062992126},{"number":64,"time":161.4421462499979,"value":0.8582677165354331},{"number":64,"time":161.4613769999979,"value":0.8976377952755905},{"number":64,"time":161.4806077499979,"value":0.9291338582677166},{"number":64,"time":161.51800087499788,"value":0.9763779527559056},{"number":64,"time":162.2882992499979,"value":0.7795275590551181},{"number":64,"time":162.3064616249979,"value":0.5590551181102362},{"number":64,"time":162.3278291249979,"value":0.2204724409448819},{"number":64,"time":162.3481282499979,"value":0},{"number":64,"time":162.3887264999979,"value":0.18110236220472442},{"number":64,"time":162.4218461249979,"value":0.3937007874015748},{"number":64,"time":162.4421452499979,"value":0.5196850393700787},{"number":64,"time":162.46244437499792,"value":0.6141732283464567},{"number":64,"time":162.4816751249979,"value":0.7086614173228346},{"number":64,"time":162.4987691249979,"value":0.7952755905511811},{"number":64,"time":162.5201366249979,"value":0.8503937007874016},{"number":64,"time":162.5778288749979,"value":0.889763779527559},{"number":64,"time":162.62056387499788,"value":0.9448818897637795},{"number":64,"time":162.6590253749979,"value":0.9763779527559056},{"number":64,"time":163.33316999999786,"value":0.9291338582677166},{"number":64,"time":163.35453749999786,"value":0.7637795275590551},{"number":64,"time":163.37269987499786,"value":0.5511811023622047},{"number":64,"time":163.40795624999785,"value":0.3543307086614173},{"number":64,"time":163.42718699999784,"value":0.4015748031496063},{"number":64,"time":163.44855449999784,"value":0.49606299212598426},{"number":64,"time":163.46671687499784,"value":0.6141732283464567},{"number":64,"time":163.48594762499783,"value":0.7637795275590551},{"number":64,"time":163.50517837499783,"value":0.9133858267716536},{"number":64,"time":163.52547749999783,"value":1},{"number":64,"time":164.4859466249978,"value":0.9606299212598425},{"number":64,"time":164.5083824999978,"value":0.7637795275590551},{"number":64,"time":164.52654487499777,"value":0.5354330708661418},{"number":64,"time":164.5457756249978,"value":0.2677165354330709},{"number":64,"time":164.5853054999978,"value":0.3543307086614173},{"number":64,"time":164.60667299999778,"value":0.4881889763779528},{"number":64,"time":164.62590374999778,"value":0.5984251968503937},{"number":64,"time":164.64620287499775,"value":0.7165354330708661},{"number":64,"time":164.66436524999776,"value":0.8503937007874016},{"number":64,"time":164.68359599999775,"value":1},{"number":64,"time":165.7412872499977,"value":0.7952755905511811},{"number":64,"time":165.7615863749977,"value":0.5196850393700787},{"number":64,"time":165.7808171249977,"value":0},{"number":64,"time":165.82141537499768,"value":0.13385826771653545},{"number":64,"time":165.8406461249977,"value":0.4094488188976378},{"number":64,"time":165.8609452499977,"value":0.5275590551181102},{"number":64,"time":165.8801759999977,"value":0.5984251968503937},{"number":64,"time":165.8983383749977,"value":0.6771653543307087},{"number":64,"time":165.9197058749977,"value":0.7401574803149606},{"number":64,"time":165.9378682499977,"value":0.8031496062992126},{"number":64,"time":165.9592357499977,"value":0.8582677165354331},{"number":64,"time":165.9752613749977,"value":0.8976377952755905},{"number":64,"time":166.0147912499977,"value":0.937007874015748},{"number":64,"time":166.0575262499977,"value":0.9921259842519685},{"number":64,"time":167.9357294999977,"value":0.905511811023622},{"number":64,"time":167.95709699999773,"value":0.6850393700787402},{"number":64,"time":167.97525937499773,"value":0.4094488188976378},{"number":64,"time":167.99342174999774,"value":0},{"number":64,"time":168.07248149999774,"value":0.30708661417322836},{"number":64,"time":168.09171224999773,"value":0.4645669291338583},{"number":64,"time":168.11414812499774,"value":0.5511811023622047},{"number":64,"time":168.13231049999774,"value":0.6377952755905512},{"number":64,"time":168.15260962499775,"value":0.7322834645669292},{"number":64,"time":168.17077199999775,"value":0.8188976377952756},{"number":64,"time":168.19213949999775,"value":0.8818897637795275},{"number":64,"time":168.26906249999774,"value":0.9133858267716536},{"number":64,"time":168.30752399999776,"value":0.952755905511811},{"number":64,"time":169.11414712499774,"value":0.9133858267716536},{"number":64,"time":169.13230949999775,"value":0.7322834645669292},{"number":64,"time":169.15154024999774,"value":0.44881889763779526},{"number":64,"time":169.16970262499774,"value":0},{"number":64,"time":169.24876237499774,"value":0.16535433070866143},{"number":64,"time":169.26906149999775,"value":0.3937007874015748},{"number":64,"time":169.28829224999774,"value":0.5039370078740157},{"number":64,"time":169.30752299999773,"value":0.5748031496062992},{"number":64,"time":169.32675374999772,"value":0.6456692913385826},{"number":64,"time":169.34705287499773,"value":0.7322834645669292},{"number":64,"time":169.36414687499772,"value":0.8110236220472441},{"number":64,"time":169.40047162499772,"value":0.8740157480314961},{"number":64,"time":169.42183912499772,"value":0.9133858267716536},{"number":64,"time":169.4421382499977,"value":0.952755905511811},{"number":64,"time":169.4624373749977,"value":0.9921259842519685},{"number":64,"time":170.63764987499772,"value":0.8503937007874016},{"number":64,"time":170.65581224999772,"value":0.6614173228346457},{"number":64,"time":170.67717974999772,"value":0.4094488188976378},{"number":64,"time":170.69747887499773,"value":0},{"number":64,"time":170.75410274999774,"value":0.2755905511811024},{"number":64,"time":170.77547024999774,"value":0.4251968503937008},{"number":64,"time":170.79470099999773,"value":0.5039370078740157},{"number":64,"time":170.81500012499774,"value":0.5511811023622047},{"number":64,"time":170.83529924999775,"value":0.5984251968503937},{"number":64,"time":170.85452999999774,"value":0.6614173228346457},{"number":64,"time":170.87482912499775,"value":0.7322834645669292},{"number":64,"time":170.89299149999775,"value":0.7874015748031497},{"number":64,"time":170.91329062499773,"value":0.84251968503937},{"number":64,"time":170.93252137499772,"value":0.8740157480314961},{"number":64,"time":170.9709828749977,"value":0.9291338582677166},{"number":64,"time":170.9902136249977,"value":0.9763779527559056},{"number":64,"time":172.87375874999762,"value":0.9448818897637795},{"number":64,"time":172.89405787499763,"value":0.7322834645669292},{"number":64,"time":172.91542537499762,"value":0.5275590551181102},{"number":64,"time":172.93465612499762,"value":0.2755905511811024},{"number":64,"time":172.95281849999762,"value":0.18110236220472442},{"number":64,"time":172.9934167499976,"value":0.2755905511811024},{"number":64,"time":173.0126474999976,"value":0.3858267716535433},{"number":64,"time":173.0308098749976,"value":0.47244094488188976},{"number":64,"time":173.0521773749976,"value":0.5275590551181102},{"number":64,"time":173.06927137499758,"value":0.5748031496062992},{"number":64,"time":173.09063887499758,"value":0.6220472440944882},{"number":64,"time":173.10880124999758,"value":0.6692913385826772},{"number":64,"time":173.1291003749976,"value":0.7244094488188977},{"number":64,"time":173.1504678749976,"value":0.7874015748031497},{"number":64,"time":173.1686302499976,"value":0.8740157480314961},{"number":64,"time":173.1899977499976,"value":0.9763779527559056},{"number":64,"time":173.44320262499758,"value":0.937007874015748},{"number":64,"time":173.46136499999756,"value":0.8031496062992126},{"number":64,"time":173.48166412499756,"value":0.6692913385826772},{"number":64,"time":173.49875812499755,"value":0.5905511811023622},{"number":64,"time":173.53935637499754,"value":0.6535433070866141},{"number":64,"time":173.55965549999755,"value":0.7244094488188977},{"number":64,"time":173.57781787499755,"value":0.8031496062992126},{"number":64,"time":173.59704862499754,"value":0.8503937007874016},{"number":64,"time":173.67610837499754,"value":0.8818897637795275},{"number":64,"time":173.93144999999754,"value":0.84251968503937},{"number":64,"time":173.95068074999753,"value":0.7637795275590551},{"number":64,"time":173.9709798749975,"value":0.5905511811023622},{"number":64,"time":173.99127899999752,"value":0.2755905511811024},{"number":64,"time":174.0105097499975,"value":0},{"number":64,"time":174.14939849999752,"value":0.3700787401574803},{"number":64,"time":174.1686292499975,"value":0.4645669291338583},{"number":64,"time":174.18892837499752,"value":0.49606299212598426},{"number":64,"time":174.2081591249975,"value":0.5511811023622047},{"number":64,"time":174.2273898749975,"value":0.6220472440944882},{"number":64,"time":174.2466206249975,"value":0.7401574803149606},{"number":64,"time":174.2669197499975,"value":0.8740157480314961},{"number":64,"time":174.2861504999975,"value":0.9921259842519685},{"number":64,"time":174.55858612499745,"value":0.8031496062992126},{"number":64,"time":174.57568012499743,"value":0.5905511811023622},{"number":64,"time":174.59491087499745,"value":0.4015748031496063},{"number":64,"time":174.61627837499745,"value":0.3779527559055118},{"number":64,"time":174.63657749999746,"value":0.4645669291338583},{"number":64,"time":174.65687662499744,"value":0.5748031496062992},{"number":64,"time":174.67610737499743,"value":0.7165354330708661},{"number":64,"time":174.69640649999744,"value":0.8818897637795275},{"number":64,"time":174.71563724999743,"value":1},{"number":64,"time":175.12909837499743,"value":0.952755905511811},{"number":64,"time":175.15046587499742,"value":0.8188976377952756},{"number":64,"time":175.16862824999743,"value":0.6062992125984252},{"number":64,"time":175.18892737499743,"value":0.28346456692913385},{"number":64,"time":175.20815812499742,"value":0},{"number":64,"time":175.30751699999743,"value":0.25196850393700787},{"number":64,"time":175.32461099999742,"value":0.4330708661417323},{"number":64,"time":175.34597849999741,"value":0.5275590551181102},{"number":64,"time":175.36627762499742,"value":0.5826771653543307},{"number":64,"time":175.38016649999742,"value":0.6456692913385826},{"number":64,"time":175.41435449999742,"value":0.6850393700787402},{"number":64,"time":175.43465362499742,"value":0.7322834645669292},{"number":64,"time":175.4549527499974,"value":0.7795275590551181},{"number":64,"time":175.4752518749974,"value":0.8346456692913385},{"number":64,"time":175.4923458749974,"value":0.8740157480314961},{"number":64,"time":175.5137133749974,"value":0.9133858267716536},{"number":64,"time":175.53294412499739,"value":0.952755905511811},{"number":64,"time":175.55217487499738,"value":0.9921259842519685},{"number":64,"time":175.72845674999738,"value":0.905511811023622},{"number":64,"time":175.74768749999737,"value":0.6771653543307087},{"number":64,"time":175.77012337499738,"value":0.4645669291338583},{"number":64,"time":175.78721737499737,"value":0.3779527559055118},{"number":64,"time":175.80751649999738,"value":0.4330708661417323},{"number":64,"time":175.8267472499974,"value":0.5196850393700787},{"number":64,"time":175.8459779999974,"value":0.6141732283464567},{"number":64,"time":175.8662771249974,"value":0.7086614173228346},{"number":64,"time":175.8855078749974,"value":0.7795275590551181},{"number":64,"time":175.90687537499738,"value":0.8346456692913385},{"number":64,"time":175.9442684999974,"value":0.889763779527559},{"number":64,"time":175.9667043749974,"value":0.9212598425196851},{"number":64,"time":175.9848667499974,"value":0.9606299212598425},{"number":64,"time":176.0040974999974,"value":1},{"number":64,"time":176.2017468749974,"value":0.8661417322834646},{"number":64,"time":176.2209776249974,"value":0.6614173228346457},{"number":64,"time":176.2402083749974,"value":0.4015748031496063},{"number":64,"time":176.2626442499974,"value":0},{"number":64,"time":176.3021741249974,"value":0.16535433070866143},{"number":64,"time":176.3203364999974,"value":0.4015748031496063},{"number":64,"time":176.3395672499974,"value":0.5118110236220472},{"number":64,"time":176.3598663749974,"value":0.5826771653543307},{"number":64,"time":176.38016549999742,"value":0.6456692913385826},{"number":64,"time":176.41649024999742,"value":0.7086614173228346},{"number":64,"time":176.43572099999741,"value":0.7716535433070866},{"number":64,"time":176.45602012499742,"value":0.8346456692913385},{"number":64,"time":176.4752508749974,"value":0.8740157480314961},{"number":64,"time":176.5126439999974,"value":0.905511811023622},{"number":64,"time":176.5532422499974,"value":0.968503937007874},{"number":64,"time":176.5714046249974,"value":1},{"number":64,"time":176.77012237499738,"value":0.9291338582677166},{"number":64,"time":176.78935312499738,"value":0.7637795275590551},{"number":64,"time":176.80965224999738,"value":0.6299212598425197},{"number":64,"time":176.82888299999738,"value":0.5826771653543307},{"number":64,"time":176.84918212499738,"value":0.6141732283464567},{"number":64,"time":176.86841287499738,"value":0.6929133858267716},{"number":64,"time":176.88871199999738,"value":0.8031496062992126},{"number":64,"time":176.91007949999738,"value":0.9133858267716536},{"number":64,"time":176.92931024999737,"value":0.984251968503937},{"number":64,"time":177.3214038749974,"value":0.937007874015748},{"number":64,"time":177.3417029999974,"value":0.7007874015748031},{"number":64,"time":177.36200212499742,"value":0.4251968503937008},{"number":64,"time":177.38230124999743,"value":0},{"number":64,"time":177.45815587499743,"value":0.2125984251968504},{"number":64,"time":177.47845499999744,"value":0.4094488188976378},{"number":64,"time":177.49554899999742,"value":0.5039370078740157},{"number":64,"time":177.51691649999742,"value":0.5669291338582677},{"number":64,"time":177.5361472499974,"value":0.6299212598425197},{"number":64,"time":177.5553779999974,"value":0.7086614173228346},{"number":64,"time":177.57567712499738,"value":0.8031496062992126},{"number":64,"time":177.5959762499974,"value":0.889763779527559},{"number":64,"time":177.61520699999738,"value":0.9448818897637795},{"number":64,"time":177.6355061249974,"value":0.9763779527559056},{"number":64,"time":177.9517451249974,"value":0.7952755905511811},{"number":64,"time":177.9720442499974,"value":0.6299212598425197},{"number":64,"time":177.9902066249974,"value":0.5275590551181102},{"number":64,"time":178.0094373749974,"value":0.5118110236220472},{"number":64,"time":178.0308048749974,"value":0.5590551181102362},{"number":64,"time":178.05003562499738,"value":0.6456692913385826},{"number":64,"time":178.06819799999738,"value":0.7637795275590551},{"number":64,"time":178.08636037499738,"value":0.8740157480314961},{"number":64,"time":178.10772787499738,"value":0.9291338582677166},{"number":64,"time":178.16648849999737,"value":0.968503937007874},{"number":64,"time":178.22738587499737,"value":1},{"number":64,"time":178.55644537499737,"value":0.7480314960629921},{"number":64,"time":178.57460774999737,"value":0.30708661417322836},{"number":64,"time":178.59383849999736,"value":0},{"number":64,"time":178.65473587499736,"value":0.14173228346456693},{"number":64,"time":178.67503499999737,"value":0.3779527559055118},{"number":64,"time":178.69319737499737,"value":0.4881889763779528},{"number":64,"time":178.71456487499736,"value":0.5669291338582677},{"number":64,"time":178.73486399999737,"value":0.6614173228346457},{"number":64,"time":178.75302637499738,"value":0.8110236220472441},{"number":64,"time":178.77332549999738,"value":0.9291338582677166},{"number":64,"time":178.7936246249974,"value":0.984251968503937},{"number":64,"time":179.75088862499732,"value":0.8976377952755905},{"number":64,"time":179.7722561249973,"value":0.6771653543307087},{"number":64,"time":179.7914868749973,"value":0.41732283464566927},{"number":64,"time":179.8117859999973,"value":0},{"number":64,"time":179.86840987499733,"value":0.13385826771653545},{"number":64,"time":179.88977737499732,"value":0.3464566929133858},{"number":64,"time":179.9090081249973,"value":0.48031496062992124},{"number":64,"time":179.92930724999732,"value":0.5669291338582677},{"number":64,"time":179.9485379999973,"value":0.6614173228346457},{"number":64,"time":179.9699054999973,"value":0.7559055118110236},{"number":64,"time":179.9880678749973,"value":0.8346456692913385},{"number":64,"time":180.0072986249973,"value":0.8818897637795275},{"number":64,"time":180.0842216249973,"value":0.9212598425196851},{"number":64,"time":180.1258882499973,"value":0.9606299212598425},{"number":64,"time":180.2252471249973,"value":1},{"number":64,"time":180.92930624999735,"value":0.9133858267716536},{"number":64,"time":180.95067374999735,"value":0.7086614173228346},{"number":64,"time":180.97097287499736,"value":0.47244094488188976},{"number":64,"time":180.98806687499734,"value":0},{"number":64,"time":181.02759674999734,"value":0.1889763779527559},{"number":64,"time":181.04789587499735,"value":0.3858267716535433},{"number":64,"time":181.06712662499734,"value":0.5039370078740157},{"number":64,"time":181.08528899999735,"value":0.5826771653543307},{"number":64,"time":181.10558812499735,"value":0.6614173228346457},{"number":64,"time":181.12588724999736,"value":0.7322834645669292},{"number":64,"time":181.14511799999735,"value":0.7874015748031497},{"number":64,"time":181.16541712499733,"value":0.8188976377952756},{"number":64,"time":181.20601537499732,"value":0.8503937007874016},{"number":64,"time":181.26263924999733,"value":0.889763779527559},{"number":64,"time":181.30323749999732,"value":0.937007874015748},{"number":64,"time":181.38122887499733,"value":0.968503937007874},{"number":64,"time":181.41648524999732,"value":1},{"number":64,"time":182.06712562499732,"value":0.905511811023622},{"number":64,"time":182.08528799999732,"value":0.6771653543307087},{"number":64,"time":182.10665549999732,"value":0.4094488188976378},{"number":64,"time":182.12695462499732,"value":0},{"number":64,"time":182.18678362499733,"value":0.2755905511811024},{"number":64,"time":182.20601437499732,"value":0.4566929133858268},{"number":64,"time":182.22631349999733,"value":0.5511811023622047},{"number":64,"time":182.24340749999732,"value":0.6535433070866141},{"number":64,"time":182.26477499999731,"value":0.7559055118110236},{"number":64,"time":182.2850741249973,"value":0.84251968503937},{"number":64,"time":182.3032364999973,"value":0.905511811023622},{"number":64,"time":182.3416979999973,"value":0.9448818897637795},{"number":64,"time":182.65473187499728,"value":0.9763779527559056},{"number":64,"time":183.2840047499973,"value":0.8740157480314961},{"number":64,"time":183.3032354999973,"value":0.6850393700787402},{"number":64,"time":183.3213978749973,"value":0.4881889763779528},{"number":64,"time":183.3416969999973,"value":0.2440944881889764},{"number":64,"time":183.3812268749973,"value":0.3464566929133858},{"number":64,"time":183.4164832499973,"value":0.4645669291338583},{"number":64,"time":183.4378507499973,"value":0.5511811023622047},{"number":64,"time":183.4581498749973,"value":0.6377952755905512},{"number":64,"time":183.4773806249973,"value":0.7165354330708661},{"number":64,"time":183.49447462499728,"value":0.7874015748031497},{"number":64,"time":183.5169104999973,"value":0.8346456692913385},{"number":64,"time":183.5350728749973,"value":0.8740157480314961},{"number":64,"time":183.5543036249973,"value":0.905511811023622},{"number":64,"time":183.5852864999973,"value":0.9448818897637795},{"number":64,"time":183.92182462499724,"value":0.9763779527559056},{"number":64,"time":184.66755037499726,"value":0.9133858267716536},{"number":64,"time":184.68678112499725,"value":0.7874015748031497},{"number":64,"time":184.70708024999726,"value":0.5984251968503937},{"number":64,"time":184.72631099999725,"value":0.3464566929133858},{"number":64,"time":184.74554174999724,"value":0},{"number":64,"time":184.80643912499724,"value":0.14960629921259844},{"number":64,"time":184.82353312499723,"value":0.3700787401574803},{"number":64,"time":184.84276387499722,"value":0.49606299212598426},{"number":64,"time":184.8619946249972,"value":0.5826771653543307},{"number":64,"time":184.88229374999722,"value":0.6614173228346457},{"number":64,"time":184.90045612499722,"value":0.7401574803149606},{"number":64,"time":184.92075524999723,"value":0.8031496062992126},{"number":64,"time":184.93998599999725,"value":0.8503937007874016},{"number":64,"time":184.98165262499722,"value":0.889763779527559},{"number":64,"time":185.07994312499721,"value":0.9212598425196851},{"number":64,"time":185.1750284999972,"value":0.8661417322834646},{"number":64,"time":185.1942592499972,"value":0.7716535433070866},{"number":64,"time":185.2166951249972,"value":0.6456692913385826},{"number":64,"time":185.23592587499718,"value":0.5590551181102362},{"number":64,"time":185.2765241249972,"value":0.5984251968503937},{"number":64,"time":185.2968232499972,"value":0.6692913385826772},{"number":64,"time":185.3128488749972,"value":0.7637795275590551},{"number":64,"time":185.33528474999721,"value":0.8267716535433071},{"number":64,"time":185.4303701249972,"value":0.8661417322834646},{"number":64,"time":185.5083614999972,"value":0.8976377952755905},{"number":64,"time":185.76370312499716,"value":0.8188976377952756},{"number":64,"time":185.78400224999717,"value":0.6929133858267716},{"number":64,"time":185.80323299999716,"value":0.5196850393700787},{"number":64,"time":185.82246374999715,"value":0.29133858267716534},{"number":64,"time":185.84169449999715,"value":0.16535433070866143},{"number":64,"time":185.88122437499715,"value":0.23622047244094488},{"number":64,"time":185.90045512499714,"value":0.36220472440944884},{"number":64,"time":185.91968587499713,"value":0.4881889763779528},{"number":64,"time":185.93891662499712,"value":0.5748031496062992},{"number":64,"time":185.96028412499712,"value":0.6614173228346457},{"number":64,"time":185.98058324999712,"value":0.7401574803149606},{"number":64,"time":185.99981399999712,"value":0.7874015748031497},{"number":64,"time":186.0190447499971,"value":0.8188976377952756},{"number":64,"time":186.04041224999708,"value":0.8503937007874016},{"number":64,"time":186.05964299999707,"value":0.8818897637795275},{"number":64,"time":186.0991728749971,"value":0.9133858267716536},{"number":64,"time":186.29789062499708,"value":0.8740157480314961},{"number":64,"time":186.31605299999705,"value":0.7716535433070866},{"number":64,"time":186.33635212499703,"value":0.5984251968503937},{"number":64,"time":186.35558287499703,"value":0.4251968503937008},{"number":64,"time":186.37481362499702,"value":0.33858267716535434},{"number":64,"time":186.41113837499702,"value":0.3858267716535433},{"number":64,"time":186.43250587499702,"value":0.4645669291338583},{"number":64,"time":186.45066824999702,"value":0.5511811023622047},{"number":64,"time":186.47096737499703,"value":0.6535433070866141},{"number":64,"time":186.49126649999704,"value":0.7559055118110236},{"number":64,"time":186.50942887499704,"value":0.8503937007874016},{"number":64,"time":186.52972799999705,"value":0.905511811023622},{"number":64,"time":186.56818949999706,"value":0.937007874015748},{"number":64,"time":186.66754837499707,"value":0.9763779527559056},{"number":64,"time":187.06071037499703,"value":0.937007874015748},{"number":64,"time":187.07780437499702,"value":0.8661417322834646},{"number":64,"time":187.09810349999702,"value":0.7244094488188977},{"number":64,"time":187.11840262499703,"value":0.5354330708661418},{"number":64,"time":187.13763337499702,"value":0.23622047244094488},{"number":64,"time":187.15793249999703,"value":0},{"number":64,"time":187.21776149999704,"value":0.07086614173228346},{"number":64,"time":187.23592387499704,"value":0.33858267716535434},{"number":64,"time":187.25515462499703,"value":0.4881889763779528},{"number":64,"time":187.27652212499703,"value":0.5748031496062992},{"number":64,"time":187.29575287499702,"value":0.6456692913385826},{"number":64,"time":187.31391524999702,"value":0.7086614173228346},{"number":64,"time":187.33421437499703,"value":0.7637795275590551},{"number":64,"time":187.354513499997,"value":0.84251968503937},{"number":64,"time":187.374812624997,"value":0.9133858267716536},{"number":64,"time":187.406863874997,"value":0.952755905511811},{"number":64,"time":188.19425624999693,"value":0.9212598425196851},{"number":64,"time":188.23699124999692,"value":0.889763779527559},{"number":64,"time":188.2540852499969,"value":0.8346456692913385},{"number":64,"time":188.2733159999969,"value":0.6929133858267716},{"number":64,"time":188.2946834999969,"value":0.47244094488188976},{"number":64,"time":188.3128458749969,"value":0},{"number":64,"time":188.4260936249969,"value":0.33070866141732286},{"number":64,"time":188.4474611249969,"value":0.47244094488188976},{"number":64,"time":188.46669187499688,"value":0.5590551181102362},{"number":64,"time":188.4869909999969,"value":0.6377952755905512},{"number":64,"time":188.50622174999688,"value":0.7086614173228346},{"number":64,"time":188.52758924999688,"value":0.7716535433070866},{"number":64,"time":188.54681999999687,"value":0.8346456692913385},{"number":64,"time":188.56605074999686,"value":0.889763779527559},{"number":64,"time":188.58528149999685,"value":0.9448818897637795},{"number":64,"time":188.60451224999684,"value":0.984251968503937},{"number":64,"time":189.72096412499684,"value":0.905511811023622},{"number":64,"time":189.73912649999684,"value":0.7952755905511811},{"number":64,"time":189.75942562499685,"value":0.6377952755905512},{"number":64,"time":189.77972474999686,"value":0.3937007874015748},{"number":64,"time":189.79788712499686,"value":0},{"number":64,"time":189.95493824999687,"value":0.1889763779527559},{"number":64,"time":189.97416899999686,"value":0.4094488188976378},{"number":64,"time":189.99553649999686,"value":0.5118110236220472},{"number":64,"time":190.01369887499683,"value":0.5826771653543307},{"number":64,"time":190.03506637499683,"value":0.6771653543307087},{"number":64,"time":190.05536549999684,"value":0.7637795275590551},{"number":64,"time":190.07245949999682,"value":0.84251968503937},{"number":64,"time":190.09169024999682,"value":0.889763779527559},{"number":64,"time":190.11198937499682,"value":0.952755905511811},{"number":64,"time":190.13228849999683,"value":1},{"number":64,"time":190.30963874999682,"value":0.9212598425196851},{"number":64,"time":190.32780112499682,"value":0.7637795275590551},{"number":64,"time":190.35023699999684,"value":0.5905511811023622},{"number":64,"time":190.36946774999683,"value":0.47244094488188976},{"number":64,"time":190.42181812499683,"value":0.5196850393700787},{"number":64,"time":190.44211724999684,"value":0.5826771653543307},{"number":64,"time":190.46348474999684,"value":0.6535433070866141},{"number":64,"time":190.48271549999683,"value":0.7244094488188977},{"number":64,"time":190.50194624999682,"value":0.7795275590551181},{"number":64,"time":190.5222453749968,"value":0.84251968503937},{"number":64,"time":190.54254449999678,"value":0.8818897637795275},{"number":64,"time":190.57886924999676,"value":0.9212598425196851},{"number":64,"time":190.62053587499676,"value":0.9763779527559056},{"number":64,"time":190.97416799999675,"value":0.9448818897637795},{"number":64,"time":191.81177399999675,"value":0.905511811023622},{"number":64,"time":191.82993637499675,"value":0.8503937007874016},{"number":64,"time":191.84916712499674,"value":0.7401574803149606},{"number":64,"time":191.86839787499673,"value":0.6062992125984252},{"number":64,"time":191.8886969999967,"value":0.5118110236220472},{"number":64,"time":191.9068593749967,"value":0.49606299212598426},{"number":64,"time":191.92715849999672,"value":0.5196850393700787},{"number":64,"time":191.9463892499967,"value":0.5511811023622047},{"number":64,"time":191.9666883749967,"value":0.5905511811023622},{"number":64,"time":191.9880558749967,"value":0.6456692913385826},{"number":64,"time":192.00728662499668,"value":0.7165354330708661},{"number":64,"time":192.02651737499667,"value":0.7952755905511811},{"number":64,"time":192.04681649999665,"value":0.8582677165354331},{"number":64,"time":192.08420962499665,"value":0.889763779527559},{"number":64,"time":192.12267112499663,"value":0.9291338582677166},{"number":64,"time":192.20173087499663,"value":0.9763779527559056},{"number":64,"time":193.18143074999662,"value":0.8818897637795275},{"number":64,"time":193.2006614999966,"value":0.7559055118110236},{"number":64,"time":193.2220289999966,"value":0.5826771653543307},{"number":64,"time":193.2412597499966,"value":0.33070866141732286},{"number":64,"time":193.2615588749966,"value":0},{"number":64,"time":193.37908012499662,"value":0.2047244094488189},{"number":64,"time":193.41326812499662,"value":0.36220472440944884},{"number":64,"time":193.4324988749966,"value":0.44881889763779526},{"number":64,"time":193.45279799999662,"value":0.5118110236220472},{"number":64,"time":193.47309712499663,"value":0.5669291338582677},{"number":64,"time":193.49232787499662,"value":0.6377952755905512},{"number":64,"time":193.51262699999663,"value":0.7244094488188977},{"number":64,"time":193.53292612499664,"value":0.7952755905511811},{"number":64,"time":193.55322524999664,"value":0.8503937007874016},{"number":64,"time":193.57031924999666,"value":0.8818897637795275},{"number":64,"time":193.59168674999665,"value":0.9212598425196851},{"number":64,"time":193.61091749999665,"value":0.952755905511811},{"number":64,"time":193.63014824999664,"value":1},{"number":64,"time":196.21882087499668,"value":0.9291338582677166},{"number":64,"time":196.2391199999967,"value":0.8346456692913385},{"number":64,"time":196.25835074999668,"value":0.6692913385826772},{"number":64,"time":196.27971824999668,"value":0.4566929133858268},{"number":64,"time":196.30001737499668,"value":0},{"number":64,"time":196.37800874999667,"value":0.2047244094488189},{"number":64,"time":196.41112837499668,"value":0.33858267716535434},{"number":64,"time":196.4314274999967,"value":0.4330708661417323},{"number":64,"time":196.45065824999668,"value":0.4881889763779528},{"number":64,"time":196.47202574999667,"value":0.5354330708661418},{"number":64,"time":196.49232487499668,"value":0.6141732283464567},{"number":64,"time":196.51155562499667,"value":0.7165354330708661},{"number":64,"time":196.53185474999668,"value":0.8267716535433071},{"number":64,"time":196.55108549999667,"value":0.9291338582677166},{"number":64,"time":196.56924787499665,"value":1},{"number":64,"time":196.80535874999663,"value":0.952755905511811},{"number":64,"time":196.82458949999662,"value":0.8110236220472441},{"number":64,"time":196.84488862499663,"value":0.6535433070866141},{"number":64,"time":196.86518774999664,"value":0.5354330708661418},{"number":64,"time":196.88441849999663,"value":0.49606299212598426},{"number":64,"time":196.90364924999662,"value":0.5354330708661418},{"number":64,"time":196.92394837499663,"value":0.5826771653543307},{"number":64,"time":196.94211074999663,"value":0.6456692913385826},{"number":64,"time":196.96240987499664,"value":0.6929133858267716},{"number":64,"time":196.98270899999665,"value":0.7401574803149606},{"number":64,"time":197.00300812499665,"value":0.7716535433070866},{"number":64,"time":197.02330724999666,"value":0.8110236220472441},{"number":64,"time":197.04360637499664,"value":0.8503937007874016},{"number":64,"time":197.05963199999664,"value":0.8976377952755905},{"number":64,"time":197.08206787499662,"value":0.9448818897637795},{"number":64,"time":197.10129862499662,"value":0.9763779527559056},{"number":64,"time":198.64403212499656,"value":0.8976377952755905},{"number":64,"time":198.66112612499654,"value":0.7716535433070866},{"number":64,"time":198.68142524999655,"value":0.5984251968503937},{"number":64,"time":198.70172437499656,"value":0.3937007874015748},{"number":64,"time":198.72095512499655,"value":0.14960629921259844},{"number":64,"time":198.76048499999655,"value":0.2440944881889764},{"number":64,"time":198.78078412499656,"value":0.3464566929133858},{"number":64,"time":198.80108324999657,"value":0.4094488188976378},{"number":64,"time":198.81924562499657,"value":0.4645669291338583},{"number":64,"time":198.83847637499656,"value":0.49606299212598426},{"number":64,"time":198.85984387499656,"value":0.5354330708661418},{"number":64,"time":198.87907462499655,"value":0.5905511811023622},{"number":64,"time":198.89723699999655,"value":0.6535433070866141},{"number":64,"time":198.91967287499656,"value":0.7086614173228346},{"number":64,"time":198.93676687499655,"value":0.7637795275590551},{"number":64,"time":198.95813437499655,"value":0.8110236220472441},{"number":64,"time":198.97629674999655,"value":0.8503937007874016},{"number":64,"time":198.99766424999655,"value":0.8818897637795275},{"number":64,"time":199.07458724999654,"value":0.9212598425196851},{"number":64,"time":199.11411712499654,"value":0.968503937007874},{"number":64,"time":199.21240762499653,"value":1},{"number":64,"time":200.93355974999656,"value":0.8740157480314961},{"number":64,"time":200.95492724999656,"value":0.6771653543307087},{"number":64,"time":200.97415799999655,"value":0.4566929133858268},{"number":64,"time":201.03505537499655,"value":0.23622047244094488},{"number":64,"time":201.05214937499656,"value":0.3858267716535433},{"number":64,"time":201.07244849999657,"value":0.4645669291338583},{"number":64,"time":201.09167924999656,"value":0.5039370078740157},{"number":64,"time":201.11304674999656,"value":0.5275590551181102},{"number":64,"time":201.13227749999658,"value":0.5669291338582677},{"number":64,"time":201.15043987499658,"value":0.6299212598425197},{"number":64,"time":201.1707389999966,"value":0.6929133858267716},{"number":64,"time":201.1910381249966,"value":0.7401574803149606},{"number":64,"time":201.2497987499966,"value":0.7795275590551181},{"number":64,"time":201.28932862499659,"value":0.8267716535433071},{"number":64,"time":201.32885849999658,"value":0.8582677165354331},{"number":64,"time":201.4228754999966,"value":0.905511811023622},{"number":64,"time":201.46133699999658,"value":0.9448818897637795},{"number":64,"time":201.54146512499656,"value":0.9763779527559056},{"number":64,"time":201.97308862499654,"value":0.8976377952755905},{"number":64,"time":201.9912509999965,"value":0.7401574803149606},{"number":64,"time":202.0126184999965,"value":0.5433070866141733},{"number":64,"time":202.03291762499651,"value":0.2992125984251969},{"number":64,"time":202.0521483749965,"value":0.23622047244094488},{"number":64,"time":202.0724474999965,"value":0.31496062992125984},{"number":64,"time":202.09274662499652,"value":0.4330708661417323},{"number":64,"time":202.11304574999653,"value":0.5118110236220472},{"number":64,"time":202.13227649999652,"value":0.5590551181102362},{"number":64,"time":202.1493704999965,"value":0.5905511811023622},{"number":64,"time":202.1707379999965,"value":0.6299212598425197},{"number":64,"time":202.1899687499965,"value":0.6850393700787402},{"number":64,"time":202.2102678749965,"value":0.7401574803149606},{"number":64,"time":202.2294986249965,"value":0.7795275590551181},{"number":64,"time":202.30748999999648,"value":0.8346456692913385},{"number":64,"time":202.32885749999647,"value":0.889763779527559},{"number":64,"time":202.34915662499648,"value":0.937007874015748},{"number":64,"time":202.4613359999965,"value":0.9763779527559056},{"number":64,"time":203.1888993749965,"value":0.9291338582677166},{"number":64,"time":203.2081301249965,"value":0.84251968503937},{"number":64,"time":203.2273608749965,"value":0.7007874015748031},{"number":64,"time":203.24659162499648,"value":0.5354330708661418},{"number":64,"time":203.26795912499648,"value":0.33858267716535434},{"number":64,"time":203.28612149999648,"value":0.2204724409448819},{"number":64,"time":203.32671974999647,"value":0.25196850393700787},{"number":64,"time":203.34701887499648,"value":0.33858267716535434},{"number":64,"time":203.36624962499647,"value":0.4409448818897638},{"number":64,"time":203.40043762499647,"value":0.5118110236220472},{"number":64,"time":203.41966837499646,"value":0.5669291338582677},{"number":64,"time":203.43889912499645,"value":0.6377952755905512},{"number":64,"time":203.46026662499645,"value":0.7165354330708661},{"number":64,"time":203.48056574999646,"value":0.7795275590551181},{"number":64,"time":203.50086487499647,"value":0.8188976377952756},{"number":64,"time":203.55962549999649,"value":0.8503937007874016},{"number":64,"time":203.61838612499648,"value":0.8818897637795275},{"number":64,"time":203.8149671249965,"value":0.9133858267716536},{"number":64,"time":204.28612049999649,"value":0.8818897637795275},{"number":64,"time":204.3651802499965,"value":0.8188976377952756},{"number":64,"time":204.3844109999965,"value":0.7007874015748031},{"number":64,"time":204.4196673749965,"value":0.5433070866141733},{"number":64,"time":204.4399664999965,"value":0.3464566929133858},{"number":64,"time":204.4591972499965,"value":0.25196850393700787},{"number":64,"time":204.4794963749965,"value":0.28346456692913385},{"number":64,"time":204.4965903749965,"value":0.3700787401574803},{"number":64,"time":204.5190262499965,"value":0.4409448818897638},{"number":64,"time":204.5371886249965,"value":0.4881889763779528},{"number":64,"time":204.5574877499965,"value":0.5275590551181102},{"number":64,"time":204.57778687499652,"value":0.5748031496062992},{"number":64,"time":204.59808599999653,"value":0.6299212598425197},{"number":64,"time":204.61731674999652,"value":0.6929133858267716},{"number":64,"time":204.6365474999965,"value":0.7322834645669292},{"number":64,"time":204.7348379999965,"value":0.7637795275590551},{"number":64,"time":204.95278649999648,"value":0.7322834645669292},{"number":64,"time":204.97415399999647,"value":0.7007874015748031},{"number":64,"time":204.99017962499647,"value":0.6456692913385826},{"number":64,"time":205.01154712499647,"value":0.6141732283464567},{"number":64,"time":205.05000862499648,"value":0.6299212598425197},{"number":64,"time":205.0703077499965,"value":0.6535433070866141},{"number":64,"time":205.0906068749965,"value":0.6692913385826772},{"number":64,"time":205.1301367499965,"value":0.6850393700787402},{"number":64,"time":205.2465896249965,"value":0.7244094488188977},{"number":64,"time":205.5777858749965,"value":0.6771653543307087},{"number":64,"time":205.5991533749965,"value":0.5905511811023622},{"number":64,"time":205.61838412499648,"value":0.4645669291338583},{"number":64,"time":205.63761487499647,"value":0.2992125984251969},{"number":64,"time":205.65684562499646,"value":0.23622047244094488},{"number":64,"time":205.69530712499648,"value":0.3464566929133858},{"number":64,"time":205.71560624999648,"value":0.4330708661417323},{"number":64,"time":205.7337686249965,"value":0.4881889763779528},{"number":64,"time":205.7540677499965,"value":0.5275590551181102},{"number":64,"time":205.7743668749965,"value":0.5669291338582677},{"number":64,"time":205.7935976249965,"value":0.6141732283464567},{"number":64,"time":205.81389674999647,"value":0.6771653543307087},{"number":64,"time":205.83312749999646,"value":0.7401574803149606},{"number":64,"time":205.85342662499647,"value":0.7716535433070866},{"number":64,"time":205.93034962499647,"value":0.8346456692913385},{"number":64,"time":205.95171712499646,"value":0.8818897637795275},{"number":64,"time":205.97201624999647,"value":0.9291338582677166},{"number":64,"time":206.10983662499646,"value":0.8976377952755905},{"number":64,"time":206.13013574999644,"value":0.8267716535433071},{"number":64,"time":206.14722974999646,"value":0.7244094488188977},{"number":64,"time":206.16752887499646,"value":0.6062992125984252},{"number":64,"time":206.18782799999647,"value":0.5196850393700787},{"number":64,"time":206.20705874999646,"value":0.5039370078740157},{"number":64,"time":206.22522112499647,"value":0.5275590551181102},{"number":64,"time":206.24445187499646,"value":0.5669291338582677},{"number":64,"time":206.26581937499645,"value":0.6299212598425197},{"number":64,"time":206.28611849999646,"value":0.6929133858267716},{"number":64,"time":206.30534924999645,"value":0.7401574803149606},{"number":64,"time":206.32564837499646,"value":0.7795275590551181},{"number":64,"time":206.36517824999646,"value":0.8110236220472441},{"number":64,"time":206.49658837499646,"value":0.8503937007874016},{"number":64,"time":206.69316937499647,"value":0.8188976377952756},{"number":64,"time":206.71453687499647,"value":0.7795275590551181},{"number":64,"time":206.73483599999648,"value":0.6692913385826772},{"number":64,"time":206.75620349999645,"value":0.5196850393700787},{"number":64,"time":206.77436587499645,"value":0.3464566929133858},{"number":64,"time":206.79466499999646,"value":0.25984251968503935},{"number":64,"time":206.83312649999647,"value":0.3464566929133858},{"number":64,"time":206.85235724999646,"value":0.4330708661417323},{"number":64,"time":206.87265637499647,"value":0.5039370078740157},{"number":64,"time":206.89295549999648,"value":0.5511811023622047},{"number":64,"time":206.91111787499648,"value":0.6062992125984252},{"number":64,"time":206.9335537499965,"value":0.6614173228346457},{"number":64,"time":206.9506477499965,"value":0.7086614173228346},{"number":64,"time":206.9698784999965,"value":0.7401574803149606},{"number":64,"time":207.0072716249965,"value":0.7716535433070866},{"number":64,"time":207.08739974999648,"value":0.8110236220472441},{"number":64,"time":207.22415174999648,"value":0.8503937007874016},{"number":64,"time":207.8918861249965,"value":0.8188976377952756},{"number":64,"time":207.94850999999647,"value":0.7559055118110236},{"number":64,"time":207.96880912499645,"value":0.7007874015748031},{"number":64,"time":207.98803987499647,"value":0.5826771653543307},{"number":64,"time":208.00727062499647,"value":0.4094488188976378},{"number":64,"time":208.02650137499646,"value":0},{"number":64,"time":208.10662949999644,"value":0.18110236220472442},{"number":64,"time":208.12799699999644,"value":0.3700787401574803},{"number":64,"time":208.14509099999643,"value":0.47244094488188976},{"number":64,"time":208.16539012499643,"value":0.5354330708661418},{"number":64,"time":208.18462087499643,"value":0.5905511811023622},{"number":64,"time":208.20598837499642,"value":0.6299212598425197},{"number":64,"time":208.2252191249964,"value":0.6771653543307087},{"number":64,"time":208.24231312499643,"value":0.7086614173228346},{"number":64,"time":208.28291137499642,"value":0.7480314960629921},{"number":64,"time":208.32244124999642,"value":0.7874015748031497},{"number":64,"time":208.3630394999964,"value":0.8188976377952756},{"number":64,"time":209.16325237499635,"value":0.7874015748031497},{"number":64,"time":209.18248312499634,"value":0.7086614173228346},{"number":64,"time":209.20385062499633,"value":0.5826771653543307},{"number":64,"time":209.22308137499633,"value":0.4330708661417323},{"number":64,"time":209.2401753749963,"value":0.28346456692913385},{"number":64,"time":209.3010727499963,"value":0.3543307086614173},{"number":64,"time":209.3203034999963,"value":0.4330708661417323},{"number":64,"time":209.3416709999963,"value":0.5039370078740157},{"number":64,"time":209.3609017499963,"value":0.5511811023622047},{"number":64,"time":209.38226924999628,"value":0.5984251968503937},{"number":64,"time":209.41432049999628,"value":0.6456692913385826},{"number":64,"time":209.43568799999628,"value":0.6692913385826772},{"number":64,"time":209.4741494999963,"value":0.7244094488188977},{"number":64,"time":209.51474774999627,"value":0.7637795275590551},{"number":64,"time":209.74979024999627,"value":0.7952755905511811},{"number":64,"time":210.00620024999625,"value":0.8267716535433071},{"number":64,"time":210.34380674999628,"value":0.7952755905511811},{"number":64,"time":210.38119987499627,"value":0.7007874015748031},{"number":64,"time":210.41645624999626,"value":0.5826771653543307},{"number":64,"time":210.43675537499627,"value":0.4251968503937008},{"number":64,"time":210.45598612499626,"value":0.23622047244094488},{"number":64,"time":210.47628524999627,"value":0.2047244094488189},{"number":64,"time":210.51474674999628,"value":0.2755905511811024},{"number":64,"time":210.53397749999627,"value":0.3700787401574803},{"number":64,"time":210.55427662499628,"value":0.4645669291338583},{"number":64,"time":210.57350737499627,"value":0.5196850393700787},{"number":64,"time":210.59487487499626,"value":0.5669291338582677},{"number":64,"time":210.61410562499626,"value":0.6062992125984252},{"number":64,"time":210.63440474999626,"value":0.6377952755905512},{"number":64,"time":210.65363549999626,"value":0.6850393700787402},{"number":64,"time":210.67286624999625,"value":0.7244094488188977},{"number":64,"time":210.69209699999624,"value":0.7559055118110236},{"number":64,"time":210.79038749999623,"value":0.7874015748031497},{"number":64,"time":211.0061992499962,"value":0.7086614173228346},{"number":64,"time":211.0264983749962,"value":0.6141732283464567},{"number":64,"time":211.0457291249962,"value":0.5196850393700787},{"number":64,"time":211.0670966249962,"value":0.4645669291338583},{"number":64,"time":211.0852589999962,"value":0.4881889763779528},{"number":64,"time":211.1066264999962,"value":0.5196850393700787},{"number":64,"time":211.1269256249962,"value":0.5669291338582677},{"number":64,"time":211.1461563749962,"value":0.6141732283464567},{"number":64,"time":211.1643187499962,"value":0.6614173228346457},{"number":64,"time":211.1835494999962,"value":0.6929133858267716},{"number":64,"time":211.22414774999618,"value":0.7244094488188977},{"number":64,"time":211.28290837499617,"value":0.7559055118110236},{"number":64,"time":211.59380549999617,"value":0.6850393700787402},{"number":64,"time":211.61303624999613,"value":0.5826771653543307},{"number":64,"time":211.63333537499614,"value":0.4566929133858268},{"number":64,"time":211.65363449999614,"value":0.33858267716535434},{"number":64,"time":211.69102762499614,"value":0.3700787401574803},{"number":64,"time":211.71132674999615,"value":0.4251968503937008},{"number":64,"time":211.73162587499615,"value":0.4881889763779528},{"number":64,"time":211.74978824999616,"value":0.5354330708661418},{"number":64,"time":211.77008737499617,"value":0.5826771653543307},{"number":64,"time":211.78931812499616,"value":0.6377952755905512},{"number":64,"time":211.80961724999617,"value":0.6850393700787402},{"number":64,"time":211.84914712499616,"value":0.7322834645669292},{"number":64,"time":211.94850599999617,"value":0.7795275590551181},{"number":64,"time":212.18248012499618,"value":0.6929133858267716},{"number":64,"time":212.20277924999618,"value":0.5905511811023622},{"number":64,"time":212.22200999999617,"value":0.48031496062992124},{"number":64,"time":212.24124074999617,"value":0.4251968503937008},{"number":64,"time":212.26047149999616,"value":0.4409448818897638},{"number":64,"time":212.28077062499617,"value":0.48031496062992124},{"number":64,"time":212.30106974999617,"value":0.5196850393700787},{"number":64,"time":212.32030049999616,"value":0.5590551181102362},{"number":64,"time":212.34059962499617,"value":0.6141732283464567},{"number":64,"time":212.36089874999618,"value":0.6692913385826772},{"number":64,"time":212.38012949999617,"value":0.7322834645669292},{"number":64,"time":212.41431749999617,"value":0.7637795275590551},{"number":64,"time":212.53290712499617,"value":0.7952755905511811},{"number":64,"time":212.6707274999962,"value":0.8267716535433071},{"number":64,"time":212.94529987499618,"value":0.7952755905511811},{"number":64,"time":212.96559899999616,"value":0.7401574803149606},{"number":64,"time":212.98482974999615,"value":0.6220472440944882},{"number":64,"time":213.00406049999614,"value":0.4566929133858268},{"number":64,"time":213.02435962499615,"value":0.2283464566929134},{"number":64,"time":213.04359037499614,"value":0.14173228346456693},{"number":64,"time":213.08312024999614,"value":0.1968503937007874},{"number":64,"time":213.10448774999614,"value":0.29133858267716534},{"number":64,"time":213.12371849999613,"value":0.4251968503937008},{"number":64,"time":213.14508599999613,"value":0.5118110236220472},{"number":64,"time":213.16111162499612,"value":0.5748031496062992},{"number":64,"time":213.18141074999613,"value":0.6377952755905512},{"number":64,"time":213.20384662499615,"value":0.6929133858267716},{"number":64,"time":213.22200899999615,"value":0.7244094488188977},{"number":64,"time":213.25940212499614,"value":0.7716535433070866},{"number":64,"time":213.30000037499613,"value":0.8188976377952756},{"number":64,"time":213.31923112499612,"value":0.8582677165354331},{"number":64,"time":213.36089774999613,"value":0.889763779527559},{"number":64,"time":214.08205087499616,"value":0.8503937007874016},{"number":64,"time":214.10234999999614,"value":0.7874015748031497},{"number":64,"time":214.12264912499612,"value":0.6299212598425197},{"number":64,"time":214.14294824999612,"value":0.4251968503937008},{"number":64,"time":214.16111062499613,"value":0},{"number":64,"time":214.20064049999613,"value":0.23622047244094488},{"number":64,"time":214.22093962499613,"value":0.4094488188976378},{"number":64,"time":214.23910199999614,"value":0.5118110236220472},{"number":64,"time":214.25726437499614,"value":0.5669291338582677},{"number":64,"time":214.27863187499614,"value":0.6220472440944882},{"number":64,"time":214.29893099999614,"value":0.6692913385826772},{"number":64,"time":214.31816174999614,"value":0.7165354330708661},{"number":64,"time":214.33846087499612,"value":0.7795275590551181},{"number":64,"time":214.3544864999961,"value":0.8346456692913385},{"number":64,"time":214.3758539999961,"value":0.8661417322834646},{"number":64,"time":215.22093862499614,"value":0.8188976377952756},{"number":64,"time":215.23803262499612,"value":0.7322834645669292},{"number":64,"time":215.2583317499961,"value":0.5669291338582677},{"number":64,"time":215.2775624999961,"value":0.3779527559055118},{"number":64,"time":215.2989299999961,"value":0.2283464566929134},{"number":64,"time":215.33632312499608,"value":0.33858267716535434},{"number":64,"time":215.35555387499608,"value":0.4330708661417323},{"number":64,"time":215.37692137499607,"value":0.5039370078740157},{"number":64,"time":215.41110937499607,"value":0.5511811023622047},{"number":64,"time":215.43140849999608,"value":0.6062992125984252},{"number":64,"time":215.4506392499961,"value":0.6614173228346457},{"number":64,"time":215.4709383749961,"value":0.7086614173228346},{"number":64,"time":215.4891007499961,"value":0.7480314960629921},{"number":64,"time":215.5104682499961,"value":0.7795275590551181},{"number":64,"time":215.5895279999961,"value":0.8188976377952756},{"number":64,"time":216.3747836249961,"value":0.7795275590551181},{"number":64,"time":216.40576649999608,"value":0.6850393700787402},{"number":64,"time":216.42606562499608,"value":0.5354330708661418},{"number":64,"time":216.4463647499961,"value":0.3464566929133858},{"number":64,"time":216.4666638749961,"value":0.2440944881889764},{"number":64,"time":216.5040569999961,"value":0.3543307086614173},{"number":64,"time":216.5243561249961,"value":0.47244094488188976},{"number":64,"time":216.5457236249961,"value":0.5511811023622047},{"number":64,"time":216.5638859999961,"value":0.6456692913385826},{"number":64,"time":216.5820483749961,"value":0.7244094488188977},{"number":64,"time":216.6023474999961,"value":0.7874015748031497},{"number":64,"time":216.62264662499612,"value":0.8267716535433071},{"number":64,"time":216.66217649999612,"value":0.8818897637795275},{"number":64,"time":216.68247562499613,"value":0.9212598425196851},{"number":64,"time":216.70170637499612,"value":0.9606299212598425},{"number":64,"time":216.74016787499613,"value":1},{"number":64,"time":217.5820473749961,"value":0.952755905511811},{"number":64,"time":217.6034148749961,"value":0.905511811023622},{"number":64,"time":217.62157724999608,"value":0.7637795275590551},{"number":64,"time":217.64080799999607,"value":0.5590551181102362},{"number":64,"time":217.66538062499606,"value":0.2677165354330709},{"number":64,"time":217.68354299999606,"value":0},{"number":64,"time":217.72307287499606,"value":0.1732283464566929},{"number":64,"time":217.74123524999607,"value":0.3464566929133858},{"number":64,"time":217.76153437499607,"value":0.47244094488188976},{"number":64,"time":217.77969674999608,"value":0.5433070866141733},{"number":64,"time":217.80106424999607,"value":0.5984251968503937},{"number":64,"time":217.82029499999607,"value":0.6692913385826772},{"number":64,"time":217.84059412499607,"value":0.7401574803149606},{"number":64,"time":217.86089324999608,"value":0.7952755905511811},{"number":64,"time":217.8811923749961,"value":0.8346456692913385},{"number":64,"time":217.9784144999961,"value":0.8661417322834646},{"number":64,"time":218.71986674999607,"value":0.8346456692913385},{"number":64,"time":218.73909749999606,"value":0.7559055118110236},{"number":64,"time":218.75939662499607,"value":0.6141732283464567},{"number":64,"time":218.77969574999608,"value":0.44881889763779526},{"number":64,"time":218.79892649999607,"value":0.3700787401574803},{"number":64,"time":218.82029399999607,"value":0.4094488188976378},{"number":64,"time":218.84059312499608,"value":0.47244094488188976},{"number":64,"time":218.85875549999608,"value":0.5354330708661418},{"number":64,"time":218.8790546249961,"value":0.6141732283464567},{"number":64,"time":218.8993537499961,"value":0.7086614173228346},{"number":64,"time":218.9185844999961,"value":0.7795275590551181},{"number":64,"time":218.9367468749961,"value":0.8346456692913385},{"number":64,"time":218.9570459999961,"value":0.8661417322834646},{"number":64,"time":219.84059212499614,"value":0.7559055118110236},{"number":64,"time":219.85982287499613,"value":0.6062992125984252},{"number":64,"time":219.88012199999613,"value":0.4409448818897638},{"number":64,"time":219.90042112499614,"value":0.31496062992125984},{"number":64,"time":219.93781424999614,"value":0.3700787401574803},{"number":64,"time":219.95704499999613,"value":0.4330708661417323},{"number":64,"time":219.97841249999613,"value":0.5039370078740157},{"number":64,"time":219.9955064999961,"value":0.5826771653543307},{"number":64,"time":220.01580562499612,"value":0.6692913385826772},{"number":64,"time":220.03717312499612,"value":0.7637795275590551},{"number":64,"time":220.0564038749961,"value":0.8346456692913385},{"number":64,"time":220.07456624999608,"value":0.8661417322834646},{"number":64,"time":220.11409612499608,"value":0.905511811023622},{"number":64,"time":220.13332687499607,"value":0.9448818897637795},{"number":64,"time":220.15469437499607,"value":0.9763779527559056},{"number":64,"time":220.95597562499603,"value":0.8661417322834646},{"number":64,"time":220.97520637499602,"value":0.6771653543307087},{"number":64,"time":220.99443712499598,"value":0.4881889763779528},{"number":64,"time":221.01473624999596,"value":0.41732283464566927},{"number":64,"time":221.03610374999596,"value":0.47244094488188976},{"number":64,"time":221.05533449999595,"value":0.5511811023622047},{"number":64,"time":221.07349687499595,"value":0.6771653543307087},{"number":64,"time":221.09165924999593,"value":0.8503937007874016},{"number":64,"time":221.11195837499594,"value":1},{"number":64,"time":222.26900849999592,"value":0.889763779527559},{"number":64,"time":222.28930762499593,"value":0.6850393700787402},{"number":64,"time":222.30960674999594,"value":0.4645669291338583},{"number":64,"time":222.32670074999592,"value":0.2047244094488189},{"number":64,"time":222.38759812499592,"value":0.33858267716535434},{"number":64,"time":222.4228544999959,"value":0.48031496062992124},{"number":64,"time":222.44315362499592,"value":0.5905511811023622},{"number":64,"time":222.4645211249959,"value":0.7086614173228346},{"number":64,"time":222.48268349999591,"value":0.8188976377952756},{"number":64,"time":222.5008458749959,"value":0.8976377952755905},{"number":64,"time":222.5211449999959,"value":0.9291338582677166},{"number":64,"time":222.55960649999588,"value":0.968503937007874},{"number":64,"time":222.6194354999959,"value":1},{"number":64,"time":223.2871698749959,"value":0.8976377952755905},{"number":64,"time":223.3074689999959,"value":0.7007874015748031},{"number":64,"time":223.32563137499588,"value":0.4330708661417323},{"number":64,"time":223.34486212499587,"value":0},{"number":64,"time":223.4217851249959,"value":0.33070866141732286},{"number":64,"time":223.4420842499959,"value":0.5039370078740157},{"number":64,"time":223.4623833749959,"value":0.6062992125984252},{"number":64,"time":223.48268249999592,"value":0.7165354330708661},{"number":64,"time":223.49870812499591,"value":0.8110236220472441},{"number":64,"time":223.5200756249959,"value":0.8818897637795275},{"number":64,"time":223.57776787499589,"value":0.9133858267716536},{"number":64,"time":223.6183661249959,"value":0.9606299212598425},{"number":64,"time":223.6386652499959,"value":0.9921259842519685},{"number":64,"time":223.83417787499593,"value":0.9606299212598425},{"number":64,"time":223.85447699999594,"value":0.7952755905511811},{"number":64,"time":223.87370774999593,"value":0.6614173228346457},{"number":64,"time":223.9153743749959,"value":0.7322834645669292},{"number":64,"time":223.9367418749959,"value":0.8740157480314961},{"number":64,"time":223.9549042499959,"value":1},{"number":64,"time":224.38759612499592,"value":0.8818897637795275},{"number":64,"time":224.4228524999959,"value":0.6850393700787402},{"number":64,"time":224.4442199999959,"value":0.44881889763779526},{"number":64,"time":224.4634507499959,"value":0},{"number":64,"time":224.5606728749959,"value":0.30708661417322836},{"number":64,"time":224.5777668749959,"value":0.49606299212598426},{"number":64,"time":224.5980659999959,"value":0.5984251968503937},{"number":64,"time":224.6194334999959,"value":0.7165354330708661},{"number":64,"time":224.63866424999588,"value":0.7952755905511811},{"number":64,"time":224.65789499999588,"value":0.8582677165354331},{"number":64,"time":224.67926249999587,"value":0.8976377952755905},{"number":64,"time":224.71879237499587,"value":0.9448818897637795},{"number":64,"time":224.75618549999587,"value":0.984251968503937},{"number":64,"time":225.5766974999958,"value":0.9133858267716536},{"number":64,"time":225.59806499999578,"value":0.7637795275590551},{"number":64,"time":225.61729574999578,"value":0.5590551181102362},{"number":64,"time":225.63652649999577,"value":0.25984251968503935},{"number":64,"time":225.65682562499578,"value":0},{"number":64,"time":225.69742387499576,"value":0.12598425196850394},{"number":64,"time":225.71665462499575,"value":0.3464566929133858},{"number":64,"time":225.73695374999576,"value":0.4881889763779528},{"number":64,"time":225.75511612499577,"value":0.5748031496062992},{"number":64,"time":225.77648362499576,"value":0.6692913385826772},{"number":64,"time":225.79464599999577,"value":0.7480314960629921},{"number":64,"time":225.81387674999576,"value":0.8188976377952756},{"number":64,"time":225.83203912499576,"value":0.8740157480314961},{"number":64,"time":225.89186812499577,"value":0.905511811023622},{"number":64,"time":225.93246637499576,"value":0.9448818897637795},{"number":64,"time":226.7155852499957,"value":0.8582677165354331},{"number":64,"time":226.7348159999957,"value":0.6850393700787402},{"number":64,"time":226.7540467499957,"value":0.4330708661417323},{"number":64,"time":226.7743458749957,"value":0},{"number":64,"time":226.8128073749957,"value":0.2283464566929134},{"number":64,"time":226.8320381249957,"value":0.4566929133858268},{"number":64,"time":226.8512688749957,"value":0.5748031496062992},{"number":64,"time":226.8726363749957,"value":0.7007874015748031},{"number":64,"time":226.89186712499568,"value":0.84251968503937},{"number":64,"time":226.91109787499568,"value":0.9763779527559056},{"number":64,"time":227.79250724999565,"value":0.84251968503937},{"number":64,"time":227.81066962499565,"value":0.6377952755905512},{"number":64,"time":227.82883199999566,"value":0.4645669291338583},{"number":64,"time":227.85233624999566,"value":0.4015748031496063},{"number":64,"time":227.87049862499566,"value":0.4409448818897638},{"number":64,"time":227.89079774999567,"value":0.5039370078740157},{"number":64,"time":227.91002849999566,"value":0.5826771653543307},{"number":64,"time":227.93139599999566,"value":0.6850393700787402},{"number":64,"time":227.95062674999565,"value":0.8031496062992126},{"number":64,"time":227.96878912499565,"value":0.905511811023622},{"number":64,"time":227.98908824999566,"value":0.968503937007874},{"number":64,"time":228.00831899999565,"value":1},{"number":64,"time":228.30319049999565,"value":0.9133858267716536},{"number":64,"time":228.32348962499566,"value":0.7637795275590551},{"number":64,"time":228.34272037499565,"value":0.6535433070866141},{"number":64,"time":228.38438699999563,"value":0.7165354330708661},{"number":64,"time":228.41964337499562,"value":0.84251968503937},{"number":64,"time":228.43994249999562,"value":1},{"number":64,"time":228.98695049999566,"value":0.9212598425196851},{"number":64,"time":229.00831799999565,"value":0.6456692913385826},{"number":64,"time":229.02754874999565,"value":0},{"number":64,"time":229.16536912499564,"value":0.3858267716535433},{"number":64,"time":229.18459987499563,"value":0.5511811023622047},{"number":64,"time":229.20489899999563,"value":0.6771653543307087},{"number":64,"time":229.22519812499564,"value":0.8110236220472441},{"number":64,"time":229.24549724999562,"value":0.9133858267716536},{"number":64,"time":229.26365962499563,"value":0.9448818897637795},{"number":64,"time":229.3042578749956,"value":0.984251968503937},{"number":64,"time":229.47840299999558,"value":0.952755905511811},{"number":64,"time":229.53609524999558,"value":0.984251968503937},{"number":64,"time":230.0681459999956,"value":0.8818897637795275},{"number":64,"time":230.0873767499956,"value":0.7086614173228346},{"number":64,"time":230.1076758749956,"value":0.5039370078740157},{"number":64,"time":230.1269066249956,"value":0.2047244094488189},{"number":64,"time":230.1482741249956,"value":0},{"number":64,"time":230.1675048749956,"value":0.11811023622047244},{"number":64,"time":230.1878039999956,"value":0.29133858267716534},{"number":64,"time":230.2070347499956,"value":0.4094488188976378},{"number":64,"time":230.22840224999558,"value":0.4881889763779528},{"number":64,"time":230.24549624999557,"value":0.5511811023622047},{"number":64,"time":230.26579537499558,"value":0.6220472440944882},{"number":64,"time":230.28609449999558,"value":0.7086614173228346},{"number":64,"time":230.30532524999558,"value":0.7952755905511811},{"number":64,"time":230.32348762499558,"value":0.8503937007874016},{"number":64,"time":230.34271837499557,"value":0.889763779527559},{"number":64,"time":230.4196413749956,"value":0.9291338582677166},{"number":64,"time":230.46023962499558,"value":0.9763779527559056},{"number":64,"time":230.57669249999557,"value":0.9291338582677166},{"number":64,"time":230.59485487499558,"value":0.8503937007874016},{"number":64,"time":230.61515399999556,"value":0.7480314960629921},{"number":64,"time":230.63438474999558,"value":0.6692913385826772},{"number":64,"time":230.67391462499558,"value":0.6929133858267716},{"number":64,"time":230.6963504999956,"value":0.7480314960629921},{"number":64,"time":230.7145128749956,"value":0.8188976377952756},{"number":64,"time":230.7348119999956,"value":0.8818897637795275},{"number":64,"time":230.7647264999956,"value":0.9133858267716536},{"number":64,"time":230.79998287499558,"value":0.9448818897637795},{"number":64,"time":230.8384443749956,"value":0.9763779527559056},{"number":64,"time":231.2123756249956,"value":0.8818897637795275},{"number":64,"time":231.23160637499558,"value":0.7480314960629921},{"number":64,"time":231.25083712499557,"value":0.5669291338582677},{"number":64,"time":231.27113624999558,"value":0.33858267716535434},{"number":64,"time":231.29036699999557,"value":0},{"number":64,"time":231.32882849999558,"value":0.1968503937007874},{"number":64,"time":231.3491276249956,"value":0.33858267716535434},{"number":64,"time":231.3694267499956,"value":0.44881889763779526},{"number":64,"time":231.40468312499559,"value":0.5118110236220472},{"number":64,"time":231.4249822499956,"value":0.5748031496062992},{"number":64,"time":231.4452813749956,"value":0.6692913385826772},{"number":64,"time":231.4655804999956,"value":0.7795275590551181},{"number":64,"time":231.4837428749956,"value":0.8582677165354331},{"number":64,"time":231.5029736249956,"value":0.905511811023622},{"number":64,"time":231.54357187499562,"value":0.937007874015748},{"number":64,"time":231.58096499999562,"value":0.984251968503937},{"number":64,"time":231.7390844999956,"value":0.9448818897637795},{"number":64,"time":231.7604519999956,"value":0.8740157480314961},{"number":64,"time":231.78075112499562,"value":0.7559055118110236},{"number":64,"time":231.79891349999565,"value":0.6220472440944882},{"number":64,"time":231.81600749999566,"value":0.5511811023622047},{"number":64,"time":231.85660574999565,"value":0.5984251968503937},{"number":64,"time":231.87690487499566,"value":0.6614173228346457},{"number":64,"time":231.89827237499566,"value":0.7322834645669292},{"number":64,"time":231.91643474999566,"value":0.7874015748031497},{"number":64,"time":231.95596462499566,"value":0.8267716535433071},{"number":64,"time":232.01365687499566,"value":0.889763779527559},{"number":64,"time":232.03395599999567,"value":0.9291338582677166},{"number":64,"time":232.07241749999568,"value":0.9763779527559056},{"number":64,"time":232.32775912499568,"value":0.9133858267716536},{"number":64,"time":232.34698987499567,"value":0.8188976377952756},{"number":64,"time":232.36728899999568,"value":0.6692913385826772},{"number":64,"time":232.40361374999569,"value":0.49606299212598426},{"number":64,"time":232.4217761249957,"value":0.2440944881889764},{"number":64,"time":232.4442119999957,"value":0.09448818897637795},{"number":64,"time":232.4837418749957,"value":0.2047244094488189},{"number":64,"time":232.5019042499957,"value":0.29133858267716534},{"number":64,"time":232.5222033749957,"value":0.3937007874015748},{"number":64,"time":232.54250249999572,"value":0.47244094488188976},{"number":64,"time":232.5617332499957,"value":0.5354330708661418},{"number":64,"time":232.5809639999957,"value":0.5905511811023622},{"number":64,"time":232.5991263749957,"value":0.6692913385826772},{"number":64,"time":232.6204938749957,"value":0.7559055118110236},{"number":64,"time":232.6386562499957,"value":0.8346456692913385},{"number":64,"time":232.6600237499957,"value":0.8818897637795275},{"number":64,"time":232.70062199999572,"value":0.9212598425196851},{"number":64,"time":232.73694674999572,"value":0.952755905511811},{"number":64,"time":233.1343822499957,"value":0.984251968503937},{"number":64,"time":233.57989462499566,"value":0.8976377952755905},{"number":64,"time":233.60126212499566,"value":0.7795275590551181},{"number":64,"time":233.62049287499565,"value":0.5984251968503937},{"number":64,"time":233.64079199999566,"value":0.4015748031496063},{"number":64,"time":233.65895437499566,"value":0.2677165354330709},{"number":64,"time":233.68032187499566,"value":0.30708661417322836},{"number":64,"time":233.70168937499565,"value":0.4094488188976378},{"number":64,"time":233.71985174999566,"value":0.5039370078740157},{"number":64,"time":233.73908249999565,"value":0.5669291338582677},{"number":64,"time":233.75831324999564,"value":0.6614173228346457},{"number":64,"time":233.77968074999563,"value":0.7795275590551181},{"number":64,"time":233.79784312499564,"value":0.8818897637795275},{"number":64,"time":233.81600549999564,"value":0.9448818897637795},{"number":64,"time":233.91429599999566,"value":0.9763779527559056},{"number":64,"time":234.15147524999568,"value":0.9212598425196851},{"number":64,"time":234.17070599999568,"value":0.8031496062992126},{"number":64,"time":234.19207349999567,"value":0.6535433070866141},{"number":64,"time":234.21023587499565,"value":0.5118110236220472},{"number":64,"time":234.23053499999563,"value":0.4094488188976378},{"number":64,"time":234.27006487499563,"value":0.47244094488188976},{"number":64,"time":234.28929562499562,"value":0.5511811023622047},{"number":64,"time":234.3085263749956,"value":0.6299212598425197},{"number":64,"time":234.3277571249956,"value":0.7244094488188977},{"number":64,"time":234.34805624999558,"value":0.8110236220472441},{"number":64,"time":234.3672869999956,"value":0.8818897637795275},{"number":64,"time":234.4014749999956,"value":0.9133858267716536},{"number":64,"time":234.5211329999956,"value":0.952755905511811},{"number":64,"time":234.71878237499558,"value":0.905511811023622},{"number":64,"time":234.73801312499558,"value":0.8346456692913385},{"number":64,"time":234.75831224999556,"value":0.6929133858267716},{"number":64,"time":234.77967974999555,"value":0.5354330708661418},{"number":64,"time":234.79784212499555,"value":0.3543307086614173},{"number":64,"time":234.81600449999556,"value":0.3228346456692913},{"number":64,"time":234.83630362499557,"value":0.3700787401574803},{"number":64,"time":234.85553437499556,"value":0.4566929133858268},{"number":64,"time":234.87583349999557,"value":0.5196850393700787},{"number":64,"time":234.89613262499557,"value":0.5748031496062992},{"number":64,"time":234.91536337499556,"value":0.6299212598425197},{"number":64,"time":234.93673087499556,"value":0.6850393700787402},{"number":64,"time":234.95489324999556,"value":0.7401574803149606},{"number":64,"time":234.97626074999556,"value":0.7952755905511811},{"number":64,"time":234.99335474999555,"value":0.8346456692913385},{"number":64,"time":235.05425212499551,"value":0.8661417322834646},{"number":64,"time":235.1888673749955,"value":0.8976377952755905},{"number":64,"time":235.3277561249955,"value":0.8661417322834646},{"number":64,"time":235.34698687499548,"value":0.7952755905511811},{"number":64,"time":235.3672859999955,"value":0.6692913385826772},{"number":64,"time":235.3875851249955,"value":0.5039370078740157},{"number":64,"time":235.4239098749955,"value":0.30708661417322836},{"number":64,"time":235.4431406249955,"value":0.2047244094488189},{"number":64,"time":235.4826704999955,"value":0.28346456692913385},{"number":64,"time":235.5029696249955,"value":0.3858267716535433},{"number":64,"time":235.5211319999955,"value":0.47244094488188976},{"number":64,"time":235.5424994999955,"value":0.5354330708661418},{"number":64,"time":235.5617302499955,"value":0.5984251968503937},{"number":64,"time":235.5798926249955,"value":0.6929133858267716},{"number":64,"time":235.5991233749955,"value":0.7952755905511811},{"number":64,"time":235.6194224999955,"value":0.8582677165354331},{"number":64,"time":235.67711474999552,"value":0.889763779527559},{"number":64,"time":235.7177129999955,"value":0.937007874015748},{"number":64,"time":235.7572428749955,"value":0.9763779527559056},{"number":64,"time":235.95168712499552,"value":0.9448818897637795},{"number":64,"time":235.9709178749955,"value":0.9133858267716536},{"number":64,"time":235.9933537499955,"value":0.8188976377952756},{"number":64,"time":236.01258449999548,"value":0.6614173228346457},{"number":64,"time":236.03395199999548,"value":0.4566929133858268},{"number":64,"time":236.05211437499548,"value":0},{"number":64,"time":236.13010574999547,"value":0.1968503937007874},{"number":64,"time":236.15040487499547,"value":0.36220472440944884},{"number":64,"time":236.16856724999548,"value":0.4645669291338583},{"number":64,"time":236.18886637499548,"value":0.5196850393700787},{"number":64,"time":236.20809712499548,"value":0.5590551181102362},{"number":64,"time":236.22839624999548,"value":0.6141732283464567},{"number":64,"time":236.2486953749955,"value":0.6692913385826772},{"number":64,"time":236.26792612499548,"value":0.7165354330708661},{"number":64,"time":236.2860884999955,"value":0.7637795275590551},{"number":64,"time":236.3085243749955,"value":0.7952755905511811},{"number":64,"time":236.3459174999955,"value":0.84251968503937},{"number":64,"time":236.38651574999548,"value":0.8976377952755905},{"number":64,"time":236.42070374999548,"value":0.937007874015748},{"number":64,"time":236.4410028749955,"value":0.968503937007874},{"number":64,"time":236.5980539999955,"value":0.8503937007874016},{"number":64,"time":236.6172847499955,"value":0.7086614173228346},{"number":64,"time":236.6386522499955,"value":0.5590551181102362},{"number":64,"time":236.65788299999548,"value":0.4409448818897638},{"number":64,"time":236.69848124999547,"value":0.4881889763779528},{"number":64,"time":236.71771199999546,"value":0.5511811023622047},{"number":64,"time":236.73587437499546,"value":0.6299212598425197},{"number":64,"time":236.75617349999547,"value":0.7165354330708661},{"number":64,"time":236.77647262499548,"value":0.7952755905511811},{"number":64,"time":236.79570337499547,"value":0.8503937007874016},{"number":64,"time":236.81279737499545,"value":0.8818897637795275},{"number":64,"time":236.89399387499546,"value":0.9212598425196851},{"number":64,"time":236.93459212499545,"value":0.952755905511811},{"number":64,"time":237.24762599999545,"value":0.8976377952755905},{"number":64,"time":237.26792512499543,"value":0.8503937007874016},{"number":64,"time":237.28822424999544,"value":0.7480314960629921},{"number":64,"time":237.30745499999543,"value":0.5905511811023622},{"number":64,"time":237.32668574999542,"value":0.3858267716535433},{"number":64,"time":237.34484812499542,"value":0},{"number":64,"time":237.43993349999542,"value":0.14960629921259844},{"number":64,"time":237.46023262499543,"value":0.33070866141732286},{"number":64,"time":237.48053174999544,"value":0.44881889763779526},{"number":64,"time":237.49976249999543,"value":0.5118110236220472},{"number":64,"time":237.51899324999542,"value":0.5511811023622047},{"number":64,"time":237.54036074999541,"value":0.5984251968503937},{"number":64,"time":237.5595914999954,"value":0.6614173228346457},{"number":64,"time":237.5788222499954,"value":0.7401574803149606},{"number":64,"time":237.5969846249954,"value":0.8346456692913385},{"number":64,"time":237.6172837499954,"value":0.8976377952755905},{"number":64,"time":237.63758287499542,"value":0.9291338582677166},{"number":64,"time":237.6749759999954,"value":0.984251968503937},{"number":64,"time":238.96984649999536,"value":0.8110236220472441},{"number":64,"time":238.98907724999535,"value":0.6141732283464567},{"number":64,"time":239.00937637499536,"value":0.3858267716535433},{"number":64,"time":239.02753874999536,"value":0},{"number":64,"time":239.12582924999535,"value":0.2047244094488189},{"number":64,"time":239.14505999999534,"value":0.3543307086614173},{"number":64,"time":239.16429074999533,"value":0.4566929133858268},{"number":64,"time":239.18458987499534,"value":0.5196850393700787},{"number":64,"time":239.20382062499533,"value":0.5590551181102362},{"number":64,"time":239.22518812499533,"value":0.5984251968503937},{"number":64,"time":239.24441887499532,"value":0.6614173228346457},{"number":64,"time":239.26471799999533,"value":0.7401574803149606},{"number":64,"time":239.28288037499533,"value":0.8346456692913385},{"number":64,"time":239.30424787499533,"value":0.905511811023622},{"number":64,"time":239.32347862499532,"value":0.9606299212598425},{"number":64,"time":239.3427093749953,"value":0.9921259842519685},{"number":64,"time":241.30317749999531,"value":0.8661417322834646},{"number":64,"time":241.32240824999533,"value":0.6929133858267716},{"number":64,"time":241.34057062499534,"value":0.4881889763779528},{"number":64,"time":241.36086974999535,"value":0.18110236220472442},{"number":64,"time":241.38010049999536,"value":0},{"number":64,"time":241.41535687499535,"value":0.11811023622047244},{"number":64,"time":241.43565599999536,"value":0.2992125984251969},{"number":64,"time":241.45488674999535,"value":0.4409448818897638},{"number":64,"time":241.47518587499536,"value":0.5196850393700787},{"number":64,"time":241.49548499999537,"value":0.5905511811023622},{"number":64,"time":241.51471574999536,"value":0.6850393700787402},{"number":64,"time":241.53394649999535,"value":0.8110236220472441},{"number":64,"time":241.55531399999535,"value":0.9291338582677166},{"number":64,"time":241.57240799999533,"value":0.984251968503937},{"number":64,"time":241.92604012499535,"value":0.937007874015748},{"number":64,"time":241.94740762499535,"value":0.8661417322834646},{"number":64,"time":241.96556999999535,"value":0.7952755905511811},{"number":64,"time":242.04569812499534,"value":0.8503937007874016},{"number":64,"time":242.06386049999534,"value":0.8818897637795275},{"number":64,"time":242.14185187499533,"value":0.9133858267716536},{"number":64,"time":242.1824501249953,"value":0.9448818897637795},{"number":64,"time":242.47411649999532,"value":0.905511811023622},{"number":64,"time":242.49334724999534,"value":0.7952755905511811},{"number":64,"time":242.51257799999533,"value":0.6299212598425197},{"number":64,"time":242.53394549999533,"value":0.41732283464566927},{"number":64,"time":242.55317624999532,"value":0},{"number":64,"time":242.6119368749953,"value":0.2283464566929134},{"number":64,"time":242.6311676249953,"value":0.3937007874015748},{"number":64,"time":242.6503983749953,"value":0.4881889763779528},{"number":64,"time":242.6685607499953,"value":0.5511811023622047},{"number":64,"time":242.6899282499953,"value":0.6062992125984252},{"number":64,"time":242.70915899999528,"value":0.6771653543307087},{"number":64,"time":242.7294581249953,"value":0.7480314960629921},{"number":64,"time":242.74868887499528,"value":0.8110236220472441},{"number":64,"time":242.7689879999953,"value":0.8503937007874016},{"number":64,"time":242.8469793749953,"value":0.8976377952755905},{"number":64,"time":242.8865092499953,"value":0.937007874015748},{"number":64,"time":243.1397141249953,"value":0.9763779527559056},{"number":64,"time":243.74761949999527,"value":0.8976377952755905},{"number":64,"time":243.76898699999526,"value":0.7795275590551181},{"number":64,"time":243.78821774999525,"value":0.6299212598425197},{"number":64,"time":243.80851687499523,"value":0.5118110236220472},{"number":64,"time":243.82667924999524,"value":0.4330708661417323},{"number":64,"time":243.84590999999523,"value":0.4645669291338583},{"number":64,"time":243.8662091249952,"value":0.5196850393700787},{"number":64,"time":243.8854398749952,"value":0.6062992125984252},{"number":64,"time":243.9046706249952,"value":0.7244094488188977},{"number":64,"time":243.92496974999517,"value":0.8818897637795275},{"number":64,"time":243.94420049999516,"value":1},{"number":64,"time":244.84484062499516,"value":0.968503937007874},{"number":64,"time":244.86513974999517,"value":0.7952755905511811},{"number":64,"time":244.88543887499517,"value":0.5826771653543307},{"number":64,"time":244.90146449999517,"value":0.3543307086614173},{"number":64,"time":244.92176362499518,"value":0.25984251968503935},{"number":64,"time":244.96343024999518,"value":0.3858267716535433},{"number":64,"time":244.9815926249952,"value":0.4566929133858268},{"number":64,"time":245.0018917499952,"value":0.5196850393700787},{"number":64,"time":245.0221908749952,"value":0.5826771653543307},{"number":64,"time":245.0414216249952,"value":0.6771653543307087},{"number":64,"time":245.0606523749952,"value":0.8031496062992126},{"number":64,"time":245.07988312499518,"value":0.9212598425196851},{"number":64,"time":245.10018224999519,"value":0.984251968503937},{"number":64,"time":245.96129249999515,"value":0.8346456692913385},{"number":64,"time":245.98265999999515,"value":0.6456692913385826},{"number":64,"time":246.00082237499515,"value":0.4409448818897638},{"number":64,"time":246.02112149999516,"value":0.18110236220472442},{"number":64,"time":246.07881374999516,"value":0.2992125984251969},{"number":64,"time":246.10124962499518,"value":0.4251968503937008},{"number":64,"time":246.11941199999518,"value":0.5196850393700787},{"number":64,"time":246.13864274999517,"value":0.5984251968503937},{"number":64,"time":246.15680512499517,"value":0.7007874015748031},{"number":64,"time":246.17710424999518,"value":0.8110236220472441},{"number":64,"time":246.1974033749952,"value":0.8976377952755905},{"number":64,"time":246.2177024999952,"value":0.937007874015748},{"number":64,"time":246.3138562499952,"value":0.968503937007874},{"number":64,"time":246.5093688749952,"value":0.937007874015748},{"number":64,"time":246.5296679999952,"value":0.8267716535433071},{"number":64,"time":246.5488987499952,"value":0.6456692913385826},{"number":64,"time":246.56919787499518,"value":0.4645669291338583},{"number":64,"time":246.58842862499517,"value":0.2992125984251969},{"number":64,"time":246.62689012499519,"value":0.3779527559055118},{"number":64,"time":246.64718924999517,"value":0.47244094488188976},{"number":64,"time":246.66428324999515,"value":0.5433070866141733},{"number":64,"time":246.68458237499516,"value":0.6062992125984252},{"number":64,"time":246.70381312499515,"value":0.6850393700787402},{"number":64,"time":246.72411224999513,"value":0.7401574803149606},{"number":64,"time":246.74441137499514,"value":0.7874015748031497},{"number":64,"time":246.76471049999515,"value":0.8267716535433071},{"number":64,"time":246.80530874999513,"value":0.8740157480314961},{"number":64,"time":246.84270187499513,"value":0.905511811023622},{"number":64,"time":246.88330012499512,"value":0.9448818897637795},{"number":64,"time":247.04035124999507,"value":0.905511811023622},{"number":64,"time":247.05851362499504,"value":0.8267716535433071},{"number":64,"time":247.07667599999505,"value":0.6850393700787402},{"number":64,"time":247.09697512499505,"value":0.5039370078740157},{"number":64,"time":247.11727424999506,"value":0.2992125984251969},{"number":64,"time":247.13757337499507,"value":0.2677165354330709},{"number":64,"time":247.15359899999507,"value":0.31496062992125984},{"number":64,"time":247.17496649999507,"value":0.4094488188976378},{"number":64,"time":247.19633399999506,"value":0.49606299212598426},{"number":64,"time":247.21556474999505,"value":0.5669291338582677},{"number":64,"time":247.23586387499506,"value":0.6456692913385826},{"number":64,"time":247.25616299999507,"value":0.7244094488188977},{"number":64,"time":247.27539374999506,"value":0.7874015748031497},{"number":64,"time":247.29462449999505,"value":0.8346456692913385},{"number":64,"time":247.35445349999506,"value":0.8661417322834646},{"number":64,"time":247.40787224999505,"value":0.8976377952755905},{"number":64,"time":247.44740212499505,"value":0.937007874015748},{"number":64,"time":247.52646187499505,"value":0.9763779527559056},{"number":64,"time":247.66428224999504,"value":0.9212598425196851},{"number":64,"time":247.68244462499504,"value":0.8110236220472441},{"number":64,"time":247.70274374999505,"value":0.6535433070866141},{"number":64,"time":247.72411124999505,"value":0.5196850393700787},{"number":64,"time":247.74120524999503,"value":0.44881889763779526},{"number":64,"time":247.76043599999502,"value":0.47244094488188976},{"number":64,"time":247.78073512499503,"value":0.5354330708661418},{"number":64,"time":247.80103424999504,"value":0.6062992125984252},{"number":64,"time":247.82240174999504,"value":0.7007874015748031},{"number":64,"time":247.84056412499504,"value":0.7795275590551181},{"number":64,"time":247.86193162499504,"value":0.8582677165354331},{"number":64,"time":247.88223074999502,"value":0.9133858267716536},{"number":64,"time":247.899324749995,"value":0.952755905511811},{"number":64,"time":248.293555124995,"value":0.8031496062992126},{"number":64,"time":248.311717499995,"value":0.5826771653543307},{"number":64,"time":248.330948249995,"value":0.2677165354330709},{"number":64,"time":248.35124737499498,"value":0},{"number":64,"time":248.371546499995,"value":0.12598425196850394},{"number":64,"time":248.405734499995,"value":0.3543307086614173},{"number":64,"time":248.426033624995,"value":0.4881889763779528},{"number":64,"time":248.446332749995,"value":0.5826771653543307},{"number":64,"time":248.46663187499502,"value":0.6771653543307087},{"number":64,"time":248.48693099999502,"value":0.7874015748031497},{"number":64,"time":248.50616174999502,"value":0.9133858267716536},{"number":64,"time":248.52646087499502,"value":1},{"number":64,"time":249.505092374995,"value":0.9606299212598425},{"number":64,"time":249.52539149999498,"value":0.7637795275590551},{"number":64,"time":249.54462224999497,"value":0.5433070866141733},{"number":64,"time":249.56492137499498,"value":0.4094488188976378},{"number":64,"time":249.58308374999498,"value":0.44881889763779526},{"number":64,"time":249.60338287499496,"value":0.5196850393700787},{"number":64,"time":249.62261362499495,"value":0.5984251968503937},{"number":64,"time":249.64291274999496,"value":0.7244094488188977},{"number":64,"time":249.66214349999495,"value":0.8503937007874016},{"number":64,"time":249.68137424999495,"value":0.937007874015748},{"number":64,"time":249.79782712499494,"value":0.984251968503937},{"number":64,"time":250.89718499999492,"value":0.9133858267716536},{"number":64,"time":250.9164157499949,"value":0.7322834645669292},{"number":64,"time":250.9377832499949,"value":0.48031496062992124},{"number":64,"time":250.9570139999949,"value":0},{"number":64,"time":251.1354326249949,"value":0.08661417322834646},{"number":64,"time":251.1525266249949,"value":0.29133858267716534},{"number":64,"time":251.1728257499949,"value":0.4330708661417323},{"number":64,"time":251.1931248749949,"value":0.5196850393700787},{"number":64,"time":251.21342399999492,"value":0.5748031496062992},{"number":64,"time":251.23158637499492,"value":0.6377952755905512},{"number":64,"time":251.25295387499492,"value":0.7007874015748031},{"number":64,"time":251.2743213749949,"value":0.7480314960629921},{"number":64,"time":251.2924837499949,"value":0.7952755905511811},{"number":64,"time":251.3106461249949,"value":0.8267716535433071},{"number":64,"time":251.3512443749949,"value":0.8740157480314961},{"number":64,"time":251.3897058749949,"value":0.905511811023622},{"number":64,"time":251.44419299999487,"value":0.9448818897637795},{"number":64,"time":251.48372287499487,"value":1},{"number":64,"time":253.27218262499483,"value":0.937007874015748},{"number":64,"time":253.29034499999483,"value":0.7952755905511811},{"number":64,"time":253.31064412499484,"value":0.6220472440944882},{"number":64,"time":253.32880649999484,"value":0.44881889763779526},{"number":64,"time":253.35017399999484,"value":0.2755905511811024},{"number":64,"time":253.42282349999485,"value":0.3464566929133858},{"number":64,"time":253.44419099999485,"value":0.4015748031496063},{"number":64,"time":253.46235337499485,"value":0.4645669291338583},{"number":64,"time":253.48372087499484,"value":0.5196850393700787},{"number":64,"time":253.50081487499483,"value":0.5905511811023622},{"number":64,"time":253.52218237499483,"value":0.6929133858267716},{"number":64,"time":253.54034474999483,"value":0.8031496062992126},{"number":64,"time":253.55957549999482,"value":0.8976377952755905},{"number":64,"time":253.58094299999482,"value":0.9448818897637795},{"number":64,"time":253.6792334999948,"value":0.9921259842519685},{"number":64,"time":253.8971819999948,"value":0.889763779527559},{"number":64,"time":253.9164127499948,"value":0.7952755905511811},{"number":64,"time":253.9345751249948,"value":0.7007874015748031},{"number":64,"time":253.9538058749948,"value":0.6535433070866141},{"number":64,"time":253.9751733749948,"value":0.6692913385826772},{"number":64,"time":253.99226737499478,"value":0.7086614173228346},{"number":64,"time":254.01149812499477,"value":0.7795275590551181},{"number":64,"time":254.03286562499477,"value":0.8661417322834646},{"number":64,"time":254.05209637499476,"value":0.9212598425196851},{"number":64,"time":254.28927562499476,"value":0.952755905511811},{"number":64,"time":254.46235237499474,"value":0.905511811023622},{"number":64,"time":254.47944637499475,"value":0.8346456692913385},{"number":64,"time":254.49974549999473,"value":0.7086614173228346},{"number":64,"time":254.52004462499474,"value":0.5669291338582677},{"number":64,"time":254.54034374999475,"value":0.4015748031496063},{"number":64,"time":254.56064287499476,"value":0.30708661417322836},{"number":64,"time":254.57987362499475,"value":0.3228346456692913},{"number":64,"time":254.60230949999476,"value":0.3779527559055118},{"number":64,"time":254.61940349999475,"value":0.4330708661417323},{"number":64,"time":254.63863424999474,"value":0.4881889763779528},{"number":64,"time":254.65786499999473,"value":0.5354330708661418},{"number":64,"time":254.67709574999472,"value":0.5905511811023622},{"number":64,"time":254.69739487499473,"value":0.6771653543307087},{"number":64,"time":254.71769399999474,"value":0.7637795275590551},{"number":64,"time":254.73478799999472,"value":0.8503937007874016},{"number":64,"time":254.75615549999472,"value":0.889763779527559},{"number":64,"time":254.8362836249947,"value":0.9291338582677166},{"number":64,"time":255.1877789999947,"value":0.968503937007874},{"number":64,"time":255.59910337499468,"value":0.937007874015748},{"number":64,"time":255.65572724999464,"value":0.8818897637795275},{"number":64,"time":255.67602637499465,"value":0.8267716535433071},{"number":64,"time":255.69632549999466,"value":0.7086614173228346},{"number":64,"time":255.71769299999465,"value":0.5354330708661418},{"number":64,"time":255.73371862499465,"value":0.2677165354330709},{"number":64,"time":255.75401774999466,"value":0},{"number":64,"time":255.79461599999465,"value":0.12598425196850394},{"number":64,"time":255.81384674999464,"value":0.2677165354330709},{"number":64,"time":255.83628262499465,"value":0.3700787401574803},{"number":64,"time":255.85337662499464,"value":0.4330708661417323},{"number":64,"time":255.87474412499463,"value":0.48031496062992124},{"number":64,"time":255.89611162499463,"value":0.5196850393700787},{"number":64,"time":255.91213724999463,"value":0.5590551181102362},{"number":64,"time":255.93243637499464,"value":0.6141732283464567},{"number":64,"time":255.95273549999462,"value":0.6771653543307087},{"number":64,"time":255.9719662499946,"value":0.7244094488188977},{"number":64,"time":256.00935937499463,"value":0.7716535433070866},{"number":64,"time":256.04995762499465,"value":0.8110236220472441},{"number":64,"time":256.28820524999463,"value":0.84251968503937},{"number":64,"time":256.57987162499467,"value":0.8740157480314961},{"number":64,"time":257.89397287499463,"value":0.8346456692913385},{"number":64,"time":257.9121352499946,"value":0.7401574803149606},{"number":64,"time":257.9313659999946,"value":0.5826771653543307},{"number":64,"time":257.95166512499463,"value":0.3779527559055118},{"number":64,"time":257.97196424999464,"value":0},{"number":64,"time":258.0104257499946,"value":0.23622047244094488},{"number":64,"time":258.0285881249946,"value":0.3779527559055118},{"number":64,"time":258.0499556249946,"value":0.4645669291338583},{"number":64,"time":258.0702547499946,"value":0.5118110236220472},{"number":64,"time":258.0894854999946,"value":0.5590551181102362},{"number":64,"time":258.10978462499463,"value":0.6141732283464567},{"number":64,"time":258.1322204999946,"value":0.6929133858267716},{"number":64,"time":258.1482461249946,"value":0.7637795275590551},{"number":64,"time":258.1653401249946,"value":0.8188976377952756},{"number":64,"time":258.2070067499946,"value":0.8503937007874016},{"number":64,"time":258.2657673749946,"value":0.889763779527559},{"number":64,"time":260.2646969999946,"value":0.8582677165354331},{"number":64,"time":260.2860644999946,"value":0.8110236220472441},{"number":64,"time":260.30529524999463,"value":0.7007874015748031},{"number":64,"time":260.32452599999465,"value":0.5354330708661418},{"number":64,"time":260.34589349999465,"value":0.25984251968503935},{"number":64,"time":260.36512424999466,"value":0},{"number":64,"time":260.43884212499466,"value":0.2047244094488189},{"number":64,"time":260.4591412499947,"value":0.3700787401574803},{"number":64,"time":260.4783719999947,"value":0.48031496062992124},{"number":64,"time":260.4976027499947,"value":0.5511811023622047},{"number":64,"time":260.51683349999473,"value":0.6299212598425197},{"number":64,"time":260.53713262499474,"value":0.7165354330708661},{"number":64,"time":260.55636337499476,"value":0.7952755905511811},{"number":64,"time":260.57666249999477,"value":0.8346456692913385},{"number":64,"time":260.63649149999475,"value":0.8818897637795275},{"number":64,"time":260.65572224999477,"value":0.9212598425196851},{"number":64,"time":260.6749529999948,"value":0.968503937007874},{"number":64,"time":260.6941837499948,"value":1},{"number":64,"time":261.36298649999486,"value":0.8661417322834646},{"number":64,"time":261.38435399999486,"value":0.7007874015748031},{"number":64,"time":261.41747362499484,"value":0.5196850393700787},{"number":64,"time":261.43670437499486,"value":0.3464566929133858},{"number":64,"time":261.4773026249949,"value":0.41732283464566927},{"number":64,"time":261.49546499999485,"value":0.4881889763779528},{"number":64,"time":261.51469574999487,"value":0.5433070866141733},{"number":64,"time":261.5339264999949,"value":0.5905511811023622},{"number":64,"time":261.55315724999485,"value":0.6299212598425197},{"number":64,"time":261.57345637499486,"value":0.6692913385826772},{"number":64,"time":261.59482387499486,"value":0.7007874015748031},{"number":64,"time":261.6332853749949,"value":0.7480314960629921},{"number":64,"time":261.67281524999487,"value":0.7952755905511811},{"number":64,"time":261.75294337499486,"value":0.8267716535433071},{"number":64,"time":262.4591392499949,"value":0.7874015748031497},{"number":64,"time":262.4773016249949,"value":0.7559055118110236},{"number":64,"time":262.4943956249948,"value":0.6850393700787402},{"number":64,"time":262.5157631249948,"value":0.5669291338582677},{"number":64,"time":262.5381989999948,"value":0.3543307086614173},{"number":64,"time":262.55636137499476,"value":0},{"number":64,"time":262.6749509999948,"value":0.28346456692913385},{"number":64,"time":262.6952501249948,"value":0.41732283464566927},{"number":64,"time":262.7134124999948,"value":0.48031496062992124},{"number":64,"time":262.73477999999477,"value":0.5118110236220472},{"number":64,"time":262.75187399999476,"value":0.5433070866141733},{"number":64,"time":262.77324149999475,"value":0.5826771653543307},{"number":64,"time":262.7924722499948,"value":0.6299212598425197},{"number":64,"time":262.81277137499484,"value":0.6929133858267716},{"number":64,"time":262.83307049999485,"value":0.7480314960629921},{"number":64,"time":262.85230124999487,"value":0.7952755905511811},{"number":64,"time":262.8928994999949,"value":0.8346456692913385},{"number":64,"time":262.9698224999949,"value":0.889763779527559},{"number":64,"time":262.9890532499949,"value":0.9291338582677166},{"number":64,"time":263.087343749995,"value":0.9763779527559056},{"number":64,"time":263.5852064999951,"value":0.8267716535433071},{"number":64,"time":263.60336887499506,"value":0.6299212598425197},{"number":64,"time":263.6225996249951,"value":0.4094488188976378},{"number":64,"time":263.6428987499951,"value":0.2992125984251969},{"number":64,"time":263.66106112499506,"value":0.3543307086614173},{"number":64,"time":263.6802918749951,"value":0.4251968503937008},{"number":64,"time":263.7005909999951,"value":0.4881889763779528},{"number":64,"time":263.7198217499951,"value":0.5354330708661418},{"number":64,"time":263.7390524999951,"value":0.5669291338582677},{"number":64,"time":263.75935162499513,"value":0.5984251968503937},{"number":64,"time":263.77858237499515,"value":0.6377952755905512},{"number":64,"time":263.79888149999516,"value":0.6692913385826772},{"number":64,"time":263.8181122499951,"value":0.6850393700787402},{"number":64,"time":263.8993087499952,"value":0.7401574803149606},{"number":64,"time":263.91853949999523,"value":0.7952755905511811},{"number":64,"time":263.93777024999525,"value":0.8346456692913385},{"number":64,"time":264.0360607499953,"value":0.8976377952755905},{"number":64,"time":264.05742824999527,"value":0.9448818897637795},{"number":64,"time":264.07559062499524,"value":0.9763779527559056},{"number":64,"time":264.62153024999526,"value":0.889763779527559},{"number":64,"time":264.6407609999953,"value":0.7086614173228346},{"number":64,"time":264.6610601249953,"value":0.5118110236220472},{"number":64,"time":264.68029087499525,"value":0.25984251968503935},{"number":64,"time":264.70058999999526,"value":0.1968503937007874},{"number":64,"time":264.72088912499527,"value":0.25196850393700787},{"number":64,"time":264.7401198749953,"value":0.3858267716535433},{"number":64,"time":264.7604189999953,"value":0.5039370078740157},{"number":64,"time":264.77858137499527,"value":0.5826771653543307},{"number":64,"time":264.79994887499527,"value":0.6771653543307087},{"number":64,"time":264.8202479999952,"value":0.7952755905511811},{"number":64,"time":264.83841037499525,"value":0.8976377952755905},{"number":64,"time":264.85977787499525,"value":0.9448818897637795},{"number":64,"time":264.9377692499953,"value":0.984251968503937},{"number":64,"time":265.7005889999952,"value":0.952755905511811},{"number":64,"time":265.7198197499952,"value":0.7637795275590551},{"number":64,"time":265.74118724999516,"value":0.5354330708661418},{"number":64,"time":265.7604179999952,"value":0.2992125984251969},{"number":64,"time":265.7817854999952,"value":0.33070866141732286},{"number":64,"time":265.79994787499515,"value":0.41732283464566927},{"number":64,"time":265.82131537499515,"value":0.5118110236220472},{"number":64,"time":265.8394777499951,"value":0.5905511811023622},{"number":64,"time":265.8608452499951,"value":0.6850393700787402},{"number":64,"time":265.8790076249951,"value":0.7637795275590551},{"number":64,"time":265.8982383749951,"value":0.8267716535433071},{"number":64,"time":266.01469124999505,"value":0.8661417322834646},{"number":64,"time":266.2518704999951,"value":0.8267716535433071},{"number":64,"time":266.2721696249951,"value":0.7086614173228346},{"number":64,"time":266.2924687499951,"value":0.5511811023622047},{"number":64,"time":266.3095627499951,"value":0.4409448818897638},{"number":64,"time":266.32879349999513,"value":0.47244094488188976},{"number":64,"time":266.3501609999951,"value":0.5275590551181102},{"number":64,"time":266.36939174999515,"value":0.6062992125984252},{"number":64,"time":266.40571649999515,"value":0.7007874015748031},{"number":64,"time":266.42601562499516,"value":0.7874015748031497},{"number":64,"time":266.4452463749952,"value":0.8503937007874016},{"number":64,"time":266.4655454999952,"value":0.8818897637795275},{"number":64,"time":266.8768698749951,"value":0.7952755905511811},{"number":64,"time":266.8961006249951,"value":0.6456692913385826},{"number":64,"time":266.9174681249951,"value":0.4645669291338583},{"number":64,"time":266.9366988749951,"value":0.3464566929133858},{"number":64,"time":266.9580663749951,"value":0.3779527559055118},{"number":64,"time":266.9772971249951,"value":0.4566929133858268},{"number":64,"time":266.9954594999951,"value":0.5275590551181102},{"number":64,"time":267.0146902499951,"value":0.5984251968503937},{"number":64,"time":267.0360577499951,"value":0.6850393700787402},{"number":64,"time":267.05528849999513,"value":0.7559055118110236},{"number":64,"time":267.0734508749951,"value":0.8188976377952756},{"number":64,"time":267.0937499999951,"value":0.8582677165354331},{"number":64,"time":267.1931088749952,"value":0.889763779527559},{"number":64,"time":267.33092924999517,"value":0.9291338582677166},{"number":64,"time":267.8170398749951,"value":0.9763779527559056},{"number":64,"time":268.09374899999506,"value":0.8976377952755905},{"number":64,"time":268.1129797499951,"value":0.7559055118110236},{"number":64,"time":268.1343472499951,"value":0.5748031496062992},{"number":64,"time":268.1535779999951,"value":0.3700787401574803},{"number":64,"time":268.1738771249951,"value":0.2755905511811024},{"number":64,"time":268.1941762499951,"value":0.33858267716535434},{"number":64,"time":268.21340699999513,"value":0.4330708661417323},{"number":64,"time":268.2315693749951,"value":0.5196850393700787},{"number":64,"time":268.2508001249951,"value":0.5905511811023622},{"number":64,"time":268.2721676249951,"value":0.6692913385826772},{"number":64,"time":268.2924667499951,"value":0.7480314960629921},{"number":64,"time":268.3084923749951,"value":0.8267716535433071},{"number":64,"time":268.3298598749951,"value":0.889763779527559},{"number":64,"time":268.34909062499514,"value":0.9291338582677166},{"number":64,"time":268.42387687499513,"value":0.9606299212598425},{"number":64,"time":268.5809279999951,"value":0.9921259842519685},{"number":64,"time":268.9366968749951,"value":0.952755905511811},{"number":64,"time":268.9772951249951,"value":0.8503937007874016},{"number":64,"time":268.9954574999951,"value":0.6929133858267716},{"number":64,"time":269.0146882499951,"value":0.47244094488188976},{"number":64,"time":269.0349873749951,"value":0},{"number":64,"time":269.13220949999516,"value":0.29133858267716534},{"number":64,"time":269.15250862499516,"value":0.4330708661417323},{"number":64,"time":269.1717393749952,"value":0.5039370078740157},{"number":64,"time":269.1931068749952,"value":0.5511811023622047},{"number":64,"time":269.2123376249952,"value":0.5826771653543307},{"number":64,"time":269.2304999999952,"value":0.6220472440944882},{"number":64,"time":269.2497307499952,"value":0.6850393700787402},{"number":64,"time":269.2700298749952,"value":0.7795275590551181},{"number":64,"time":269.2903289999952,"value":0.8661417322834646},{"number":64,"time":269.3084913749952,"value":0.905511811023622},{"number":64,"time":269.4441749999952,"value":0.952755905511811},{"number":64,"time":269.54246549999516,"value":0.9921259842519685},{"number":64,"time":270.5606268749952,"value":0.952755905511811},{"number":64,"time":270.5798576249952,"value":0.9133858267716536},{"number":64,"time":270.5980199999952,"value":0.8740157480314961},{"number":64,"time":270.6193874999952,"value":0.84251968503937},{"number":64,"time":270.63754987499516,"value":0.8031496062992126},{"number":64,"time":270.65891737499516,"value":0.7637795275590551},{"number":64,"time":270.6781481249952,"value":0.7244094488188977},{"number":64,"time":270.6984472499952,"value":0.6771653543307087},{"number":64,"time":270.7187463749952,"value":0.6220472440944882},{"number":64,"time":270.7358403749952,"value":0.5511811023622047},{"number":64,"time":270.7572078749952,"value":0.4881889763779528},{"number":64,"time":270.7764386249952,"value":0.44881889763779526},{"number":64,"time":270.8544299999952,"value":0.41732283464566927},{"number":64,"time":270.8736607499952,"value":0.4015748031496063},{"number":64,"time":270.9334897499952,"value":0.3779527559055118},{"number":64,"time":270.9537888749952,"value":0.3464566929133858},{"number":64,"time":270.9740879999952,"value":0.28346456692913385},{"number":64,"time":270.9922503749952,"value":0.25196850393700787},{"number":64,"time":271.0520793749952,"value":0.1889763779527559},{"number":64,"time":271.07024174999515,"value":0.11023622047244094},{"number":64,"time":271.08947249999517,"value":0},{"number":64,"time":273.18776099999513,"value":0.09448818897637795},{"number":64,"time":273.20699174999515,"value":0.15748031496062992},{"number":64,"time":273.22729087499516,"value":0.2125984251968504},{"number":64,"time":273.24545324999514,"value":0.25984251968503935},{"number":64,"time":273.26468399999516,"value":0.29133858267716534},{"number":64,"time":273.28605149999515,"value":0.31496062992125984},{"number":64,"time":273.3052822499952,"value":0.33858267716535434},{"number":64,"time":273.32344462499515,"value":0.3543307086614173},{"number":64,"time":273.34267537499517,"value":0.3700787401574803},{"number":64,"time":273.3832736249952,"value":0.3937007874015748},{"number":64,"time":273.4195983749952,"value":0.4094488188976378},{"number":64,"time":273.4388291249952,"value":0.4330708661417323},{"number":64,"time":273.4601966249952,"value":0.44881889763779526},{"number":64,"time":273.5168204999952,"value":0.4645669291338583},{"number":64,"time":273.5371196249952,"value":0.47244094488188976},{"number":64,"time":273.55741874999524,"value":0.4881889763779528},{"number":64,"time":273.5745127499952,"value":0.49606299212598426},{"number":64,"time":273.61511099999524,"value":0.5039370078740157},{"number":64,"time":273.63541012499525,"value":0.5118110236220472},{"number":64,"time":273.65464087499527,"value":0.5275590551181102},{"number":64,"time":273.6749399999953,"value":0.5354330708661418},{"number":64,"time":273.73476899999525,"value":0.5511811023622047},{"number":64,"time":273.7742988749953,"value":0.5748031496062992},{"number":64,"time":273.79246124999526,"value":0.5905511811023622},{"number":64,"time":273.8319911249953,"value":0.6141732283464567},{"number":64,"time":273.8512218749953,"value":0.6299212598425197},{"number":64,"time":273.8704526249953,"value":0.6692913385826772},{"number":64,"time":273.8918201249953,"value":0.7165354330708661},{"number":64,"time":273.9099824999953,"value":0.7559055118110236},{"number":64,"time":273.9505807499953,"value":0.7874015748031497},{"number":64,"time":274.0478028749953,"value":0.8188976377952756},{"number":64,"time":274.08626437499527,"value":0.8661417322834646},{"number":64,"time":274.1257942499953,"value":0.8976377952755905},{"number":64,"time":274.1856232499953,"value":0.937007874015748},{"number":64,"time":274.2272898749953,"value":0.984251968503937},{"number":64,"time":274.85015249999526,"value":0.9448818897637795},{"number":64,"time":274.90998149999524,"value":0.905511811023622},{"number":64,"time":274.94951137499527,"value":0.8503937007874016},{"number":64,"time":274.9687421249953,"value":0.8110236220472441},{"number":64,"time":275.00720362499527,"value":0.7795275590551181},{"number":64,"time":275.0851949999953,"value":0.7401574803149606},{"number":64,"time":275.3031434999953,"value":0.7086614173228346},{"number":64,"time":275.3811348749953,"value":0.6850393700787402},{"number":64,"time":275.41745962499533,"value":0.6692913385826772},{"number":64,"time":275.43669037499535,"value":0.6535433070866141},{"number":64,"time":275.47728862499537,"value":0.6299212598425197},{"number":64,"time":275.49545099999534,"value":0.6141732283464567},{"number":64,"time":275.5136133749954,"value":0.5984251968503937},{"number":64,"time":275.53498087499537,"value":0.5826771653543307},{"number":64,"time":275.57344237499535,"value":0.5669291338582677},{"number":64,"time":275.6129722499954,"value":0.5433070866141733},{"number":64,"time":275.6322029999954,"value":0.5275590551181102},{"number":64,"time":275.6525021249954,"value":0.5196850393700787},{"number":64,"time":275.6931003749954,"value":0.5118110236220472},{"number":64,"time":275.7315618749954,"value":0.49606299212598426},{"number":64,"time":275.7507926249954,"value":0.4881889763779528},{"number":64,"time":275.8095532499954,"value":0.48031496062992124},{"number":64,"time":275.8469463749954,"value":0.47244094488188976},{"number":64,"time":275.8875446249954,"value":0.4566929133858268},{"number":64,"time":275.94844199999545,"value":0.4330708661417323},{"number":64,"time":276.02750174999545,"value":0.41732283464566927},{"number":64,"time":276.0830572499955,"value":0.4015748031496063},{"number":64,"time":276.1439546249955,"value":0.3858267716535433},{"number":64,"time":276.2230143749955,"value":0.3700787401574803},{"number":64,"time":276.3020741249955,"value":0.3543307086614173},{"number":64,"time":276.4356209999955,"value":0.33858267716535434},{"number":64,"time":276.71126174999546,"value":0.3228346456692913}],"67":[{"number":67,"time":0.21688012499999998,"value":0.047244094488188976},{"number":67,"time":0.42521325,"value":0.09448818897637795},{"number":67,"time":0.633546375,"value":0.14173228346456693},{"number":67,"time":0.8418795,"value":0.1889763779527559},{"number":67,"time":1.050212625,"value":0.23622047244094488},{"number":67,"time":1.25854575,"value":0.28346456692913385},{"number":67,"time":1.466878875,"value":0.33070866141732286},{"number":67,"time":1.675212,"value":0.3858267716535433},{"number":67,"time":2.5961512499999997,"value":0.3543307086614173},{"number":67,"time":2.7329032499999997,"value":0.3228346456692913},{"number":67,"time":2.8728603749999997,"value":0.28346456692913385},{"number":67,"time":2.931621,"value":0.25196850393700787},{"number":67,"time":3.028843125,"value":0.2204724409448819},{"number":67,"time":5.321575875000005,"value":0.25196850393700787},{"number":67,"time":5.849353125000007,"value":0.28346456692913385},{"number":67,"time":11.485031249999984,"value":0.25196850393700787},{"number":67,"time":11.583321749999984,"value":0.2125984251968504},{"number":67,"time":17.232888749999905,"value":0.18110236220472442},{"number":67,"time":19.300194374999887,"value":0.2125984251968504},{"number":67,"time":21.25638899999987,"value":0.18110236220472442},{"number":67,"time":21.334380374999867,"value":0.14960629921259844},{"number":67,"time":21.447628124999866,"value":0.11023622047244094},{"number":67,"time":21.504251999999866,"value":0.07874015748031496},{"number":67,"time":24.426257624999856,"value":0},{"number":67,"time":73.99992599999949,"value":0.06299212598425197},{"number":67,"time":74.17834462499951,"value":0.09448818897637795},{"number":67,"time":74.37278887499951,"value":0.12598425196850394},{"number":67,"time":75.15697612499952,"value":0.1732283464566929},{"number":67,"time":75.31082212499952,"value":0.2047244094488189},{"number":67,"time":75.44864249999952,"value":0.23622047244094488},{"number":67,"time":75.58325774999952,"value":0.2677165354330709},{"number":67,"time":75.64522349999952,"value":0.31496062992125984},{"number":67,"time":75.66552262499951,"value":0.3464566929133858},{"number":67,"time":75.6879584999995,"value":0.3779527559055118},{"number":67,"time":75.7221464999995,"value":0.41732283464566927},{"number":67,"time":75.76167637499951,"value":0.44881889763779526},{"number":67,"time":77.50312762499955,"value":0.41732283464566927},{"number":67,"time":77.73923849999953,"value":0.3858267716535433},{"number":67,"time":77.91658874999952,"value":0.3543307086614173},{"number":67,"time":77.97641774999953,"value":0.31496062992125984},{"number":67,"time":78.01381087499954,"value":0.2755905511811024},{"number":67,"time":78.09180224999953,"value":0.23622047244094488},{"number":67,"time":78.15163124999953,"value":0.1968503937007874},{"number":67,"time":78.37064812499953,"value":0.16535433070866143},{"number":67,"time":78.52235737499953,"value":0.12598425196850394},{"number":67,"time":78.57898124999953,"value":0.08661417322834646},{"number":67,"time":78.87492112499953,"value":0},{"number":67,"time":121.195391624999,"value":0.06299212598425197},{"number":67,"time":121.37274187499901,"value":0.09448818897637795},{"number":67,"time":121.52338274999902,"value":0.12598425196850394},{"number":67,"time":121.56398099999902,"value":0.15748031496062992},{"number":67,"time":121.60137412499901,"value":0.1968503937007874},{"number":67,"time":121.64197237499901,"value":0.23622047244094488},{"number":67,"time":121.68257062499902,"value":0.2755905511811024},{"number":67,"time":121.72210049999902,"value":0.30708661417322836},{"number":67,"time":121.77979274999902,"value":0.3464566929133858},{"number":67,"time":124.27337999999898,"value":0.31496062992125984},{"number":67,"time":126.30970274999896,"value":0.2755905511811024},{"number":67,"time":126.35030099999896,"value":0.2283464566929134},{"number":67,"time":126.36739499999896,"value":0.1968503937007874},{"number":67,"time":126.38769412499896,"value":0.16535433070866143},{"number":67,"time":126.42615562499896,"value":0.12598425196850394},{"number":67,"time":126.46354874999895,"value":0.08661417322834646},{"number":67,"time":131.9379022499988,"value":0.11811023622047244},{"number":67,"time":132.0148252499988,"value":0.15748031496062992},{"number":67,"time":132.09281662499882,"value":0.1889763779527559},{"number":67,"time":132.2124746249988,"value":0.2283464566929134},{"number":67,"time":132.2883292499988,"value":0.25984251968503935},{"number":67,"time":132.3684573749988,"value":0.30708661417322836},{"number":67,"time":132.42508124999878,"value":0.3464566929133858},{"number":67,"time":132.46567949999877,"value":0.3858267716535433},{"number":67,"time":132.50307262499877,"value":0.4251968503937008},{"number":67,"time":134.54260049999866,"value":0.4566929133858268},{"number":67,"time":134.79901049999864,"value":0.4881889763779528},{"number":67,"time":134.91866849999866,"value":0.5196850393700787},{"number":67,"time":139.64836462499844,"value":0.5511811023622047},{"number":67,"time":140.76267974999834,"value":0.5826771653543307},{"number":67,"time":141.60135412499832,"value":0.5511811023622047},{"number":67,"time":141.67827712499832,"value":0.5118110236220472},{"number":67,"time":141.7584052499983,"value":0.47244094488188976},{"number":67,"time":142.28938762499834,"value":0.4409448818897638},{"number":67,"time":142.66011374999826,"value":0.47244094488188976},{"number":67,"time":143.97314662499826,"value":0.4409448818897638},{"number":67,"time":144.09280462499825,"value":0.3858267716535433},{"number":67,"time":144.11310374999826,"value":0.3464566929133858},{"number":67,"time":144.13233449999825,"value":0.30708661417322836},{"number":67,"time":144.15049687499825,"value":0.2677165354330709},{"number":67,"time":144.17186437499825,"value":0.2283464566929134},{"number":67,"time":144.19109512499824,"value":0.18110236220472442},{"number":67,"time":144.21032587499823,"value":0.13385826771653545},{"number":67,"time":144.27122324999823,"value":0.10236220472440945},{"number":67,"time":144.31075312499823,"value":0.07086614173228346},{"number":67,"time":149.65583324999835,"value":0},{"number":67,"time":162.6771877499979,"value":0.06299212598425197},{"number":67,"time":166.29256874999768,"value":0.09448818897637795},{"number":67,"time":168.42290849999776,"value":0.06299212598425197},{"number":67,"time":170.01158212499772,"value":0.09448818897637795},{"number":67,"time":170.08957349999773,"value":0.12598425196850394},{"number":67,"time":170.12910337499773,"value":0.15748031496062992},{"number":67,"time":170.18893237499773,"value":0.2204724409448819},{"number":67,"time":170.22739387499774,"value":0.25984251968503935},{"number":67,"time":170.28829124999774,"value":0.2992125984251969},{"number":67,"time":170.42076974999773,"value":0.33070866141732286},{"number":67,"time":170.46136799999772,"value":0.36220472440944884},{"number":67,"time":170.51906024999772,"value":0.3937007874015748},{"number":67,"time":170.59705162499773,"value":0.4251968503937008},{"number":67,"time":170.63978662499773,"value":0.4566929133858268},{"number":67,"time":170.67931649999773,"value":0.4881889763779528},{"number":67,"time":170.71564124999773,"value":0.5275590551181102},{"number":67,"time":170.75517112499773,"value":0.5590551181102362},{"number":67,"time":170.83743599999775,"value":0.5905511811023622},{"number":67,"time":170.89405987499774,"value":0.6220472440944882},{"number":67,"time":170.95068374999772,"value":0.6535433070866141},{"number":67,"time":173.69747587499754,"value":0.6220472440944882},{"number":67,"time":174.2679881249975,"value":0.5905511811023622},{"number":67,"time":174.30644962499747,"value":0.5590551181102362},{"number":67,"time":174.34384274999746,"value":0.5275590551181102},{"number":67,"time":174.38337262499746,"value":0.4881889763779528},{"number":67,"time":174.46029562499746,"value":0.44881889763779526},{"number":67,"time":174.63764587499745,"value":0.41732283464566927},{"number":67,"time":174.67824412499743,"value":0.3858267716535433},{"number":67,"time":174.71563724999743,"value":0.31496062992125984},{"number":67,"time":174.73379962499743,"value":0.25196850393700787},{"number":67,"time":174.7540987499974,"value":0.18110236220472442},{"number":67,"time":174.7733294999974,"value":0.13385826771653545},{"number":67,"time":174.7936286249974,"value":0.10236220472440945},{"number":67,"time":174.8128593749974,"value":0.07086614173228346},{"number":67,"time":174.8545259999974,"value":0},{"number":67,"time":187.52865862499698,"value":0.06299212598425197},{"number":67,"time":187.60558162499697,"value":0.10236220472440945},{"number":67,"time":187.66327387499697,"value":0.13385826771653545},{"number":67,"time":187.72417124999697,"value":0.1732283464566929},{"number":67,"time":187.78293187499696,"value":0.2125984251968504},{"number":67,"time":187.82139337499694,"value":0.25196850393700787},{"number":67,"time":187.86092324999694,"value":0.30708661417322836},{"number":67,"time":187.88229074999694,"value":0.33858267716535434},{"number":67,"time":187.91968387499693,"value":0.3858267716535433},{"number":67,"time":187.95921374999693,"value":0.4251968503937008},{"number":67,"time":188.01797437499692,"value":0.4566929133858268},{"number":67,"time":189.80002387499687,"value":0.5196850393700787},{"number":67,"time":189.81604949999686,"value":0.5511811023622047},{"number":67,"time":189.99660487499685,"value":0.5118110236220472},{"number":67,"time":190.05643387499683,"value":0.47244094488188976},{"number":67,"time":190.11412612499683,"value":0.4409448818897638},{"number":67,"time":190.15045087499684,"value":0.4015748031496063},{"number":67,"time":190.18998074999683,"value":0.3543307086614173},{"number":67,"time":190.23057899999682,"value":0.2992125984251969},{"number":67,"time":190.26904049999683,"value":0.25984251968503935},{"number":67,"time":190.35237374999684,"value":0.2283464566929134},{"number":67,"time":190.46562149999684,"value":0.1889763779527559},{"number":67,"time":190.5030146249968,"value":0.14960629921259844},{"number":67,"time":190.5254504999968,"value":0.11023622047244094},{"number":67,"time":190.56177524999677,"value":0.07086614173228346},{"number":67,"time":191.34596249999674,"value":0.11023622047244094},{"number":67,"time":191.38762912499675,"value":0.14960629921259844},{"number":67,"time":191.42074874999676,"value":0.18110236220472442},{"number":67,"time":191.43997949999675,"value":0.2204724409448819},{"number":67,"time":191.48057774999674,"value":0.25984251968503935},{"number":67,"time":191.73591937499674,"value":0.2992125984251969},{"number":67,"time":191.77758599999675,"value":0.3543307086614173},{"number":67,"time":191.79040649999675,"value":0.4015748031496063},{"number":67,"time":191.81391074999675,"value":0.44881889763779526},{"number":67,"time":191.83100474999674,"value":0.49606299212598426},{"number":67,"time":191.85023549999673,"value":0.5354330708661418},{"number":67,"time":191.87160299999672,"value":0.5748031496062992},{"number":67,"time":191.8919021249967,"value":0.6220472440944882},{"number":67,"time":191.90899612499672,"value":0.6771653543307087},{"number":67,"time":191.9282268749967,"value":0.7244094488188977},{"number":67,"time":191.9474576249967,"value":0.7716535433070866},{"number":67,"time":191.9688251249967,"value":0.8188976377952756},{"number":67,"time":191.98912424999668,"value":0.8661417322834646},{"number":67,"time":192.00835499999667,"value":0.9291338582677166},{"number":67,"time":192.02758574999666,"value":0.9763779527559056},{"number":67,"time":197.02437562499665,"value":0.9448818897637795},{"number":67,"time":197.04360637499664,"value":0.905511811023622},{"number":67,"time":197.06070037499663,"value":0.8346456692913385},{"number":67,"time":197.0831362499966,"value":0.7322834645669292},{"number":67,"time":197.1023669999966,"value":0.5984251968503937},{"number":67,"time":197.1205293749966,"value":0.4409448818897638},{"number":67,"time":197.1418968749966,"value":0.3464566929133858},{"number":67,"time":197.58740924999663,"value":0.31496062992125984},{"number":67,"time":198.1354856249966,"value":0.3464566929133858},{"number":67,"time":198.1750154999966,"value":0.3937007874015748},{"number":67,"time":198.1931778749966,"value":0.4330708661417323},{"number":67,"time":198.2134769999966,"value":0.48031496062992124},{"number":67,"time":198.2359128749966,"value":0.5196850393700787},{"number":67,"time":198.31283587499658,"value":0.5511811023622047},{"number":67,"time":198.33206662499657,"value":0.5826771653543307},{"number":67,"time":198.35129737499656,"value":0.6535433070866141},{"number":67,"time":198.37159649999657,"value":0.7244094488188977},{"number":67,"time":198.40578449999657,"value":0.7637795275590551},{"number":67,"time":198.44424599999658,"value":0.8031496062992126},{"number":67,"time":198.48484424999657,"value":0.8346456692913385},{"number":67,"time":198.62266462499656,"value":0.8661417322834646},{"number":67,"time":203.40257437499648,"value":0.8346456692913385},{"number":67,"time":203.54146312499648,"value":0.7952755905511811},{"number":67,"time":203.57885624999648,"value":0.7637795275590551},{"number":67,"time":203.63761687499647,"value":0.7165354330708661},{"number":67,"time":203.67607837499648,"value":0.6692913385826772},{"number":67,"time":203.7348389999965,"value":0.6377952755905512},{"number":67,"time":203.79359962499652,"value":0.5984251968503937},{"number":67,"time":203.8940268749965,"value":0.5669291338582677},{"number":67,"time":203.9314199999965,"value":0.5354330708661418},{"number":67,"time":204.6557782499965,"value":0.5039370078740157},{"number":67,"time":204.6931713749965,"value":0.4409448818897638},{"number":67,"time":204.8331284999965,"value":0.4094488188976378},{"number":67,"time":205.98911024999646,"value":0.3779527559055118},{"number":67,"time":210.30214012499627,"value":0.4094488188976378},{"number":67,"time":210.57671249999626,"value":0.4409448818897638},{"number":67,"time":210.63547312499625,"value":0.48031496062992124},{"number":67,"time":210.67393462499624,"value":0.5118110236220472},{"number":67,"time":210.71132774999623,"value":0.5511811023622047},{"number":67,"time":210.75085762499623,"value":0.5905511811023622},{"number":67,"time":210.79145587499622,"value":0.6220472440944882},{"number":67,"time":210.8288489999962,"value":0.6614173228346457},{"number":67,"time":210.8897463749962,"value":0.6929133858267716},{"number":67,"time":210.98590012499622,"value":0.7244094488188977},{"number":67,"time":211.0478658749962,"value":0.7559055118110236},{"number":67,"time":211.1664554999962,"value":0.7952755905511811},{"number":67,"time":213.30106874999612,"value":0.7637795275590551},{"number":67,"time":213.45277799999613,"value":0.7322834645669292},{"number":67,"time":213.49017112499612,"value":0.7007874015748031},{"number":67,"time":213.59166674999614,"value":0.6692913385826772},{"number":67,"time":214.20064049999613,"value":0.6377952755905512},{"number":67,"time":214.32029849999614,"value":0.5984251968503937},{"number":67,"time":214.34059762499612,"value":0.5511811023622047},{"number":67,"time":214.3544864999961,"value":0.48031496062992124},{"number":67,"time":214.3769223749961,"value":0.4015748031496063},{"number":67,"time":214.4100419999961,"value":0.33858267716535434},{"number":67,"time":214.4292727499961,"value":0.28346456692913385},{"number":67,"time":214.4688026249961,"value":0.2440944881889764},{"number":67,"time":214.92393037499613,"value":0.2755905511811024},{"number":67,"time":215.2391009999961,"value":0.30708661417322836},{"number":67,"time":221.15255662499592,"value":0.36220472440944884},{"number":67,"time":221.21238562499593,"value":0.4015748031496063},{"number":67,"time":221.24977874999593,"value":0.4409448818897638},{"number":67,"time":221.27007787499593,"value":0.48031496062992124},{"number":67,"time":221.29037699999594,"value":0.5275590551181102},{"number":67,"time":221.30853937499595,"value":0.5590551181102362},{"number":67,"time":222.22947862499592,"value":0.5905511811023622},{"number":67,"time":222.4837518749959,"value":0.6220472440944882},{"number":67,"time":222.6215722499959,"value":0.6535433070866141},{"number":67,"time":223.5948618749959,"value":0.6850393700787402},{"number":67,"time":224.2305449999959,"value":0.7165354330708661},{"number":67,"time":224.3662286249959,"value":0.7559055118110236},{"number":67,"time":224.4655874999959,"value":0.7874015748031497},{"number":67,"time":225.5596034999958,"value":0.8188976377952756},{"number":67,"time":225.65789399999576,"value":0.8503937007874016},{"number":67,"time":225.75618449999575,"value":0.889763779527559},{"number":67,"time":228.71344649999565,"value":0.8582677165354331},{"number":67,"time":228.79143787499567,"value":0.7952755905511811},{"number":67,"time":228.81173699999567,"value":0.7480314960629921},{"number":67,"time":228.82883099999566,"value":0.6850393700787402},{"number":67,"time":228.84913012499564,"value":0.6220472440944882},{"number":67,"time":228.86942924999565,"value":0.5748031496062992},{"number":67,"time":228.90895912499565,"value":0.5354330708661418},{"number":67,"time":233.87583449999565,"value":0.5748031496062992},{"number":67,"time":233.93459512499567,"value":0.6141732283464567},{"number":67,"time":233.97519337499568,"value":0.6535433070866141},{"number":67,"time":234.15254362499567,"value":0.6850393700787402},{"number":67,"time":234.19314187499566,"value":0.7401574803149606},{"number":67,"time":234.21344099999564,"value":0.7795275590551181},{"number":67,"time":234.24869737499563,"value":0.8110236220472441},{"number":67,"time":234.76044899999556,"value":0.84251968503937},{"number":67,"time":236.89399387499546,"value":0.8740157480314961},{"number":67,"time":236.99228437499545,"value":0.905511811023622},{"number":67,"time":237.09057487499544,"value":0.9448818897637795},{"number":67,"time":237.18779699999544,"value":0.9763779527559056},{"number":67,"time":243.64612387499528,"value":0.9448818897637795},{"number":67,"time":243.78928612499524,"value":0.8976377952755905},{"number":67,"time":243.82881599999524,"value":0.8346456692913385},{"number":67,"time":243.84697837499522,"value":0.8031496062992126},{"number":67,"time":243.8683458749952,"value":0.7637795275590551},{"number":67,"time":243.8865082499952,"value":0.7244094488188977},{"number":67,"time":243.90787574999518,"value":0.6771653543307087},{"number":67,"time":243.92603812499516,"value":0.6220472440944882},{"number":67,"time":243.94526887499515,"value":0.5669291338582677},{"number":67,"time":243.96343124999515,"value":0.5118110236220472},{"number":67,"time":243.98266199999514,"value":0.4645669291338583},{"number":67,"time":244.00402949999514,"value":0.4330708661417323},{"number":67,"time":245.10125062499517,"value":0.4015748031496063},{"number":67,"time":246.4880013749952,"value":0.4330708661417323},{"number":67,"time":246.5499671249952,"value":0.47244094488188976},{"number":67,"time":246.58842862499517,"value":0.5039370078740157},{"number":67,"time":246.62795849999517,"value":0.5354330708661418},{"number":67,"time":246.66641999999516,"value":0.5826771653543307},{"number":67,"time":246.70701824999514,"value":0.6299212598425197},{"number":67,"time":246.74654812499514,"value":0.6692913385826772},{"number":67,"time":246.80637712499512,"value":0.7086614173228346},{"number":67,"time":246.84377024999512,"value":0.7480314960629921},{"number":67,"time":246.8843684999951,"value":0.7874015748031497},{"number":67,"time":246.9196248749951,"value":0.8188976377952756},{"number":67,"time":246.96022312499508,"value":0.8503937007874016},{"number":67,"time":246.99975299999508,"value":0.889763779527559},{"number":67,"time":247.04141962499506,"value":0.9212598425196851},{"number":67,"time":247.10018024999505,"value":0.9606299212598425},{"number":67,"time":247.15573574999507,"value":1},{"number":67,"time":251.2753897499949,"value":0.952755905511811},{"number":67,"time":251.3127828749949,"value":0.9133858267716536},{"number":67,"time":251.3704751249949,"value":0.8818897637795275},{"number":67,"time":251.42496224999488,"value":0.84251968503937},{"number":67,"time":251.46449212499488,"value":0.8110236220472441},{"number":67,"time":251.52218437499488,"value":0.7716535433070866},{"number":67,"time":251.58308174999488,"value":0.7322834645669292},{"number":67,"time":251.66000474999484,"value":0.7007874015748031},{"number":67,"time":251.7572268749948,"value":0.6535433070866141},{"number":67,"time":251.79782512499483,"value":0.6220472440944882},{"number":67,"time":251.87795324999482,"value":0.5905511811023622},{"number":67,"time":252.76043099999484,"value":0.5590551181102362},{"number":67,"time":252.83949074999484,"value":0.5275590551181102},{"number":67,"time":259.3843559999945,"value":0.5590551181102362},{"number":67,"time":259.5371336249945,"value":0.5984251968503937},{"number":67,"time":259.63756087499456,"value":0.6377952755905512},{"number":67,"time":259.6963214999946,"value":0.6771653543307087},{"number":67,"time":259.7743128749946,"value":0.7165354330708661},{"number":67,"time":259.8533726249946,"value":0.7480314960629921},{"number":67,"time":259.9516631249946,"value":0.8031496062992126},{"number":67,"time":259.9708938749946,"value":0.8346456692913385},{"number":67,"time":260.0093553749946,"value":0.8740157480314961},{"number":67,"time":260.0884151249946,"value":0.905511811023622},{"number":67,"time":260.32773112499467,"value":0.937007874015748},{"number":67,"time":261.38435399999486,"value":0.984251968503937},{"number":67,"time":264.7614873749953,"value":0.9448818897637795},{"number":67,"time":264.80208562499524,"value":0.905511811023622},{"number":67,"time":272.20806112499514,"value":0.8740157480314961},{"number":67,"time":272.32344562499514,"value":0.8188976377952756},{"number":67,"time":272.59588124999516,"value":0.7795275590551181},{"number":67,"time":272.6364794999952,"value":0.7480314960629921},{"number":67,"time":272.75400074999516,"value":0.7165354330708661},{"number":67,"time":272.91212024999516,"value":0.6850393700787402},{"number":67,"time":275.1054941249953,"value":0.6456692913385826}],"91":[{"number":91,"time":0,"value":0.7165354330708661}]},"id":0,"name":"Sheep May Graze Benjamin K","instrumentNumber":0,"instrument":"acoustic grand piano","instrumentFamily":"piano","channelNumber":0,"isPercussion":false}]}