{"header":{"PPQ":240,"timeSignature":[4,4],"bpm":46.99999060000188,"name":"--------"},"startTime":0,"duration":142.9787520000002,"tracks":[{"startTime":0,"duration":0,"length":0,"notes":[],"controlChanges":{},"id":0,"name":"--------"},{"startTime":5.744682,"duration":142.97875200000016,"length":215,"notes":[{"name":"C5","midi":72,"time":5.744682,"velocity":0.5433070866141733,"duration":0.6382979999999998},{"name":"A#4","midi":70,"time":6.38298,"velocity":0.5433070866141733,"duration":0.6382979999999998},{"name":"C5","midi":72,"time":7.021278,"velocity":0.5433070866141733,"duration":0.6382979999999998},{"name":"D5","midi":74,"time":7.6595759999999995,"velocity":0.5433070866141733,"duration":0.6382980000000007},{"name":"G4","midi":67,"time":8.297874,"velocity":0.5433070866141733,"duration":0.6382980000000007},{"name":"C5","midi":72,"time":8.936172000000001,"velocity":0.5433070866141733,"duration":0.6382980000000007},{"name":"A#4","midi":70,"time":9.574470000000002,"velocity":0.5433070866141733,"duration":0.31914899999999946},{"name":"A4","midi":69,"time":9.893619000000001,"velocity":0.5433070866141733,"duration":0.31914899999999946},{"name":"A#4","midi":70,"time":10.212768,"velocity":0.5433070866141733,"duration":1.2765959999999996},{"name":"G#4","midi":68,"time":11.489364,"velocity":0.5433070866141733,"duration":1.2765959999999996},{"name":"G4","midi":67,"time":12.76596,"velocity":0.5433070866141733,"duration":0.6382980000000007},{"name":"C5","midi":72,"time":13.404258,"velocity":0.5433070866141733,"duration":0.6382980000000007},{"name":"F4","midi":65,"time":14.042556000000001,"velocity":0.5433070866141733,"duration":1.9148940000000003},{"name":"D#4","midi":63,"time":15.957450000000001,"velocity":0.5433070866141733,"duration":0.31914899999999946},{"name":"D4","midi":62,"time":16.276599,"velocity":0.5433070866141733,"duration":0.31914899999999946},{"name":"G4","midi":67,"time":16.595748,"velocity":0.5433070866141733,"duration":0.6382979999999989},{"name":"F4","midi":65,"time":17.234046,"velocity":0.5433070866141733,"duration":0.6382979999999989},{"name":"D#4","midi":63,"time":17.872344,"velocity":0.5433070866141733,"duration":1.2765960000000014},{"name":"D#4","midi":63,"time":19.14894,"velocity":0.5433070866141733,"duration":0.15425534999999968},{"name":"D4","midi":62,"time":19.2659613,"velocity":0.5433070866141733,"duration":0.09042554999999552},{"name":"D#4","midi":63,"time":19.340429399999998,"velocity":0.5433070866141733,"duration":0.15425534999999613},{"name":"D4","midi":62,"time":19.436174099999995,"velocity":0.5433070866141733,"duration":0.15425534999999613},{"name":"D#4","midi":63,"time":19.521280499999992,"velocity":0.5433070866141733,"duration":0.06914894999999888},{"name":"D4","midi":62,"time":19.60638689999999,"velocity":0.5433070866141733,"duration":0.13297874999999948},{"name":"D#4","midi":63,"time":19.69149329999999,"velocity":0.5433070866141733,"duration":0.13297874999999593},{"name":"D4","midi":62,"time":19.776599699999988,"velocity":0.5433070866141733,"duration":0.6542554499999973},{"name":"C4","midi":60,"time":20.425535999999987,"velocity":0.5433070866141733,"duration":0.6329788499999971},{"name":"G4","midi":67,"time":21.063833999999982,"velocity":0.5433070866141733,"duration":0.47340434999999914},{"name":"C5","midi":72,"time":21.70213199999998,"velocity":0.5433070866141733,"duration":1.9148940000000003},{"name":"A#4","midi":70,"time":23.61702599999998,"velocity":0.5433070866141733,"duration":0.31914899999999946},{"name":"C5","midi":72,"time":23.93617499999998,"velocity":0.5433070866141733,"duration":0.31914899999999946},{"name":"D5","midi":74,"time":24.25532399999998,"velocity":0.5433070866141733,"duration":0.31914899999999946},{"name":"E5","midi":76,"time":24.57447299999998,"velocity":0.5433070866141733,"duration":0.31914899999999946},{"name":"F5","midi":77,"time":24.89362199999998,"velocity":0.5433070866141733,"duration":0.31914899999999946},{"name":"G5","midi":79,"time":25.21277099999998,"velocity":0.5433070866141733,"duration":0.31914899999999946},{"name":"G#5","midi":80,"time":25.531919999999978,"velocity":0.5433070866141733,"duration":0.31914899999999946},{"name":"F5","midi":77,"time":25.851068999999978,"velocity":0.5433070866141733,"duration":0.31914899999999946},{"name":"C6","midi":84,"time":26.170217999999977,"velocity":0.5433070866141733,"duration":0.31914899999999946},{"name":"A#5","midi":82,"time":26.489366999999977,"velocity":0.5433070866141733,"duration":0.31914899999999946},{"name":"G#5","midi":80,"time":26.808515999999976,"velocity":0.5433070866141733,"duration":0.31914899999999946},{"name":"G5","midi":79,"time":27.127664999999975,"velocity":0.5433070866141733,"duration":0.31914899999999946},{"name":"F5","midi":77,"time":27.446813999999975,"velocity":0.5433070866141733,"duration":0.31914899999999946},{"name":"D#5","midi":75,"time":27.765962999999974,"velocity":0.5433070866141733,"duration":0.31914899999999946},{"name":"D5","midi":74,"time":28.085111999999974,"velocity":0.5433070866141733,"duration":0.31914899999999946},{"name":"A#4","midi":70,"time":28.404260999999973,"velocity":0.5433070866141733,"duration":0.31914899999999946},{"name":"F5","midi":77,"time":28.723409999999973,"velocity":0.5433070866141733,"duration":0.31914899999999946},{"name":"D#5","midi":75,"time":29.042558999999972,"velocity":0.5433070866141733,"duration":0.31914899999999946},{"name":"D5","midi":74,"time":29.36170799999997,"velocity":0.5433070866141733,"duration":0.31914899999999946},{"name":"C5","midi":72,"time":29.68085699999997,"velocity":0.5433070866141733,"duration":0.31914899999999946},{"name":"A#4","midi":70,"time":30.00000599999997,"velocity":0.5433070866141733,"duration":0.31914899999999946},{"name":"G#4","midi":68,"time":30.31915499999997,"velocity":0.5433070866141733,"duration":0.31914899999999946},{"name":"G4","midi":67,"time":30.63830399999997,"velocity":0.5433070866141733,"duration":0.6382979999999989},{"name":"G5","midi":79,"time":36.70213499999997,"velocity":0.5433070866141733,"duration":0.319149000000003},{"name":"D#5","midi":75,"time":37.02128399999997,"velocity":0.5433070866141733,"duration":0.9574470000000019},{"name":"F5","midi":77,"time":37.978730999999975,"velocity":0.5433070866141733,"duration":0.319149000000003},{"name":"G5","midi":79,"time":38.29787999999998,"velocity":0.5433070866141733,"duration":0.6382979999999989},{"name":"C5","midi":72,"time":38.93617799999998,"velocity":0.5433070866141733,"duration":0.6329788500000006},{"name":"F5","midi":77,"time":39.574475999999976,"velocity":0.5433070866141733,"duration":0.6382979999999989},{"name":"D#5","midi":75,"time":40.212773999999975,"velocity":0.5433070866141733,"duration":0.319149000000003},{"name":"D5","midi":74,"time":40.53192299999998,"velocity":0.5433070866141733,"duration":0.319149000000003},{"name":"D#5","midi":75,"time":40.85107199999998,"velocity":0.5433070866141733,"duration":0.6382979999999989},{"name":"G#4","midi":68,"time":41.48936999999998,"velocity":0.5433070866141733,"duration":0.6329788500000006},{"name":"C#5","midi":73,"time":42.12766799999998,"velocity":0.5433070866141733,"duration":0.6382979999999989},{"name":"C5","midi":72,"time":42.76596599999998,"velocity":0.5433070866141733,"duration":0.319149000000003},{"name":"A#4","midi":70,"time":43.08511499999998,"velocity":0.5433070866141733,"duration":0.319149000000003},{"name":"C5","midi":72,"time":43.40426399999998,"velocity":0.5433070866141733,"duration":0.6382979999999989},{"name":"F4","midi":65,"time":44.04256199999998,"velocity":0.5433070866141733,"duration":0.6329788500000006},{"name":"A#4","midi":70,"time":44.68085999999998,"velocity":0.5433070866141733,"duration":0.6382979999999989},{"name":"G#4","midi":68,"time":45.31915799999998,"velocity":0.5433070866141733,"duration":0.319149000000003},{"name":"G4","midi":67,"time":45.63830699999998,"velocity":0.5433070866141733,"duration":0.319149000000003},{"name":"G#4","midi":68,"time":45.957455999999986,"velocity":0.5433070866141733,"duration":0.9574470000000019},{"name":"G#4","midi":68,"time":46.91490299999999,"velocity":0.5433070866141733,"duration":0.319149000000003},{"name":"D4","midi":62,"time":47.23405199999999,"velocity":0.5433070866141733,"duration":0.6382979999999989},{"name":"D#4","midi":63,"time":47.87234999999999,"velocity":0.5433070866141733,"duration":0.6382979999999989},{"name":"F4","midi":65,"time":48.51064799999999,"velocity":0.5433070866141733,"duration":0.6382979999999989},{"name":"D#4","midi":63,"time":49.14894599999999,"velocity":0.5433070866141733,"duration":1.2765959999999978},{"name":"F4","midi":65,"time":50.425541999999986,"velocity":0.5433070866141733,"duration":1.2765959999999978},{"name":"D#4","midi":63,"time":51.702137999999984,"velocity":0.5433070866141733,"duration":0.6382979999999989},{"name":"G#4","midi":68,"time":52.34043599999998,"velocity":0.5433070866141733,"duration":0.9574470000000019},{"name":"G#4","midi":68,"time":53.297882999999985,"velocity":0.5433070866141733,"duration":0.319149000000003},{"name":"G4","midi":67,"time":53.61703199999999,"velocity":0.5433070866141733,"duration":0.9574470000000019},{"name":"G4","midi":67,"time":54.57447899999999,"velocity":0.5433070866141733,"duration":0.319149000000003},{"name":"C5","midi":72,"time":54.89362799999999,"velocity":0.5433070866141733,"duration":0.9574470000000019},{"name":"A#4","midi":70,"time":55.851074999999994,"velocity":0.5433070866141733,"duration":0.6382979999999989},{"name":"A#4","midi":70,"time":56.48937299999999,"velocity":0.5433070866141733,"duration":0.319149000000003},{"name":"G#4","midi":68,"time":56.808521999999996,"velocity":0.5433070866141733,"duration":0.9574470000000019},{"name":"G4","midi":67,"time":57.765969,"velocity":0.5433070866141733,"duration":0.319149000000003},{"name":"G#4","midi":68,"time":58.085118,"velocity":0.5433070866141733,"duration":0.319149000000003},{"name":"A#4","midi":70,"time":58.404267000000004,"velocity":0.5433070866141733,"duration":0.319149000000003},{"name":"E4","midi":64,"time":58.72341600000001,"velocity":0.5433070866141733,"duration":0.6382979999999989},{"name":"G#4","midi":68,"time":59.68086300000001,"velocity":0.5433070866141733,"duration":0.319149000000003},{"name":"C#5","midi":73,"time":60.00001200000001,"velocity":0.5433070866141733,"duration":0.9574470000000019},{"name":"C5","midi":72,"time":60.957459000000014,"velocity":0.5433070866141733,"duration":0.6382979999999989},{"name":"C5","midi":72,"time":61.59575700000001,"velocity":0.5433070866141733,"duration":0.319149000000003},{"name":"A#4","midi":70,"time":61.914906000000016,"velocity":0.5433070866141733,"duration":0.9574470000000019},{"name":"A4","midi":69,"time":62.87235300000002,"velocity":0.5433070866141733,"duration":0.319149000000003},{"name":"A#4","midi":70,"time":63.19150200000002,"velocity":0.5433070866141733,"duration":0.319149000000003},{"name":"C5","midi":72,"time":63.510651000000024,"velocity":0.5433070866141733,"duration":0.319149000000003},{"name":"F#4","midi":66,"time":63.82980000000003,"velocity":0.5433070866141733,"duration":0.6382979999999989},{"name":"G4","midi":67,"time":64.46809800000003,"velocity":0.5433070866141733,"duration":0.9574470000000019},{"name":"G4","midi":67,"time":65.42554500000003,"velocity":0.5433070866141733,"duration":0.638298000000006},{"name":"F#4","midi":66,"time":66.06384300000003,"velocity":0.5433070866141733,"duration":0.3191489999999959},{"name":"G4","midi":67,"time":66.38299200000003,"velocity":0.5433070866141733,"duration":0.638298000000006},{"name":"G5","midi":79,"time":67.02129000000004,"velocity":0.5433070866141733,"duration":0.638298000000006},{"name":"D#5","midi":75,"time":67.65958800000004,"velocity":0.5433070866141733,"duration":0.638298000000006},{"name":"F5","midi":77,"time":68.29788600000005,"velocity":0.5433070866141733,"duration":0.638298000000006},{"name":"G5","midi":79,"time":68.93618400000005,"velocity":0.5433070866141733,"duration":0.638298000000006},{"name":"C5","midi":72,"time":69.57448200000006,"velocity":0.5433070866141733,"duration":0.638298000000006},{"name":"F5","midi":77,"time":70.21278000000007,"velocity":0.5433070866141733,"duration":0.638298000000006},{"name":"D#5","midi":75,"time":70.85107800000007,"velocity":0.5433070866141733,"duration":0.3191489999999959},{"name":"D5","midi":74,"time":71.17022700000007,"velocity":0.5433070866141733,"duration":0.3191489999999959},{"name":"D#5","midi":75,"time":71.48937600000006,"velocity":0.5433070866141733,"duration":0.3191489999999959},{"name":"D5","midi":74,"time":71.80852500000006,"velocity":0.5433070866141733,"duration":0.3191489999999959},{"name":"C5","midi":72,"time":72.12767400000006,"velocity":0.5433070866141733,"duration":0.3191489999999959},{"name":"B4","midi":71,"time":72.44682300000005,"velocity":0.5433070866141733,"duration":0.3191489999999959},{"name":"C5","midi":72,"time":72.76597200000005,"velocity":0.5433070866141733,"duration":0.3191489999999959},{"name":"D#5","midi":75,"time":73.08512100000004,"velocity":0.5433070866141733,"duration":0.3191489999999959},{"name":"F5","midi":77,"time":73.40427000000004,"velocity":0.5433070866141733,"duration":0.3191489999999959},{"name":"G5","midi":79,"time":73.72341900000004,"velocity":0.5433070866141733,"duration":0.3191489999999959},{"name":"G#5","midi":80,"time":74.04256800000003,"velocity":0.5433070866141733,"duration":0.3191489999999959},{"name":"C5","midi":72,"time":74.36171700000003,"velocity":0.5433070866141733,"duration":0.3191489999999959},{"name":"B4","midi":71,"time":74.68086600000002,"velocity":0.5433070866141733,"duration":0.3191489999999959},{"name":"A4","midi":69,"time":75.00001500000002,"velocity":0.5433070866141733,"duration":0.3191489999999959},{"name":"B4","midi":71,"time":75.31916400000001,"velocity":0.5433070866141733,"duration":0.3191489999999959},{"name":"G5","midi":79,"time":75.63831300000001,"velocity":0.5433070866141733,"duration":0.3191489999999959},{"name":"F5","midi":77,"time":75.957462,"velocity":0.5433070866141733,"duration":0.3191489999999959},{"name":"G5","midi":79,"time":76.276611,"velocity":0.5433070866141733,"duration":0.3191489999999959},{"name":"D#5","midi":75,"time":76.59576,"velocity":0.5433070866141733,"duration":0.638298000000006},{"name":"G5","midi":79,"time":79.78725,"velocity":0.5433070866141733,"duration":0.638298000000006},{"name":"E5","midi":76,"time":80.425548,"velocity":0.5433070866141733,"duration":0.638298000000006},{"name":"F#5","midi":78,"time":81.06384600000001,"velocity":0.5433070866141733,"duration":0.638298000000006},{"name":"G5","midi":79,"time":81.70214400000002,"velocity":0.5433070866141733,"duration":0.638298000000006},{"name":"C5","midi":72,"time":82.34044200000002,"velocity":0.5433070866141733,"duration":0.638298000000006},{"name":"F5","midi":77,"time":82.97874000000003,"velocity":0.5433070866141733,"duration":0.638298000000006},{"name":"D#5","midi":75,"time":83.61703800000004,"velocity":0.5433070866141733,"duration":0.3191489999999959},{"name":"D5","midi":74,"time":83.93618700000003,"velocity":0.5433070866141733,"duration":0.3191489999999959},{"name":"D#5","midi":75,"time":84.25533600000003,"velocity":0.5433070866141733,"duration":0.9574470000000019},{"name":"D#5","midi":75,"time":85.21278300000003,"velocity":0.5433070866141733,"duration":0.3191489999999959},{"name":"D5","midi":74,"time":85.53193200000003,"velocity":0.5433070866141733,"duration":0.638298000000006},{"name":"E5","midi":76,"time":86.17023000000003,"velocity":0.5433070866141733,"duration":0.638298000000006},{"name":"F5","midi":77,"time":86.80852800000004,"velocity":0.5433070866141733,"duration":0.638298000000006},{"name":"A#4","midi":70,"time":87.44682600000004,"velocity":0.5433070866141733,"duration":0.638298000000006},{"name":"D#5","midi":75,"time":88.08512400000005,"velocity":0.5433070866141733,"duration":0.638298000000006},{"name":"D5","midi":74,"time":88.72342200000006,"velocity":0.5433070866141733,"duration":0.3191489999999959},{"name":"C5","midi":72,"time":89.04257100000005,"velocity":0.5433070866141733,"duration":0.3191489999999959},{"name":"D5","midi":74,"time":89.36172000000005,"velocity":0.5433070866141733,"duration":0.638298000000006},{"name":"G4","midi":67,"time":90.00001800000005,"velocity":0.5433070866141733,"duration":0.638298000000006},{"name":"D#5","midi":75,"time":90.63831600000006,"velocity":0.5433070866141733,"duration":1.5957449999999938},{"name":"D#5","midi":75,"time":92.23406100000005,"velocity":0.5433070866141733,"duration":0.3191489999999959},{"name":"D5","midi":74,"time":92.55321000000005,"velocity":0.5433070866141733,"duration":0.9574470000000019},{"name":"C5","midi":72,"time":93.51065700000005,"velocity":0.5433070866141733,"duration":0.638298000000006},{"name":"B4","midi":71,"time":94.14895500000006,"velocity":0.5433070866141733,"duration":0.3191489999999959},{"name":"C5","midi":72,"time":94.46810400000005,"velocity":0.5433070866141733,"duration":0.638298000000006},{"name":"G5","midi":79,"time":95.10640200000006,"velocity":0.5433070866141733,"duration":0.638298000000006},{"name":"D5","midi":74,"time":95.74470000000007,"velocity":0.5433070866141733,"duration":0.638298000000006},{"name":"D#5","midi":75,"time":96.38299800000007,"velocity":0.5433070866141733,"duration":0.3191489999999959},{"name":"F5","midi":77,"time":96.70214700000007,"velocity":0.5433070866141733,"duration":0.3191489999999959},{"name":"D#5","midi":75,"time":97.02129600000006,"velocity":0.5433070866141733,"duration":0.638298000000006},{"name":"D5","midi":74,"time":97.65959400000007,"velocity":0.5433070866141733,"duration":0.638298000000006},{"name":"C5","midi":72,"time":98.61704100000007,"velocity":0.5433070866141733,"duration":0.638298000000006},{"name":"A#4","midi":70,"time":99.25533900000008,"velocity":0.5433070866141733,"duration":0.3191489999999959},{"name":"G#4","midi":68,"time":99.57448800000007,"velocity":0.5433070866141733,"duration":0.9574470000000019},{"name":"G#4","midi":68,"time":100.53193500000008,"velocity":0.5433070866141733,"duration":0.3191489999999959},{"name":"G4","midi":67,"time":100.85108400000007,"velocity":0.5433070866141733,"duration":2.5531919999999957},{"name":"C5","midi":72,"time":103.40427600000007,"velocity":0.5433070866141733,"duration":2.872341000000006},{"name":"B4","midi":71,"time":106.27661700000007,"velocity":0.5433070866141733,"duration":0.3191489999999959},{"name":"C5","midi":72,"time":106.59576600000007,"velocity":0.5433070866141733,"duration":0.3191489999999959},{"name":"D5","midi":74,"time":106.91491500000006,"velocity":0.5433070866141733,"duration":0.3191489999999959},{"name":"G4","midi":67,"time":107.23406400000006,"velocity":0.5433070866141733,"duration":0.638298000000006},{"name":"G#4","midi":68,"time":107.87236200000007,"velocity":0.5433070866141733,"duration":0.638298000000006},{"name":"G4","midi":67,"time":108.51066000000007,"velocity":0.5433070866141733,"duration":0.9574470000000019},{"name":"A4","midi":69,"time":109.46810700000007,"velocity":0.5433070866141733,"duration":0.3191489999999959},{"name":"A#4","midi":70,"time":109.78725600000007,"velocity":0.5433070866141733,"duration":0.638298000000006},{"name":"B4","midi":71,"time":110.42555400000008,"velocity":0.5433070866141733,"duration":0.638298000000006},{"name":"G4","midi":67,"time":111.38300100000008,"velocity":0.5433070866141733,"duration":0.3191489999999959},{"name":"C5","midi":72,"time":111.70215000000007,"velocity":0.5433070866141733,"duration":0.3191489999999959},{"name":"F#4","midi":66,"time":112.02129900000007,"velocity":0.5433070866141733,"duration":0.3191489999999959},{"name":"G4","midi":67,"time":112.34044800000007,"velocity":0.5433070866141733,"duration":0.638298000000006},{"name":"D#4","midi":63,"time":112.97874600000007,"velocity":0.5433070866141733,"duration":0.638298000000006},{"name":"D4","midi":62,"time":113.61704400000008,"velocity":0.5433070866141733,"duration":1.2765959999999978},{"name":"C4","midi":60,"time":114.89364000000008,"velocity":0.5433070866141733,"duration":0.638298000000006},{"name":"C5","midi":72,"time":116.80853400000008,"velocity":0.5433070866141733,"duration":0.638298000000006},{"name":"B4","midi":71,"time":117.44683200000009,"velocity":0.5433070866141733,"duration":0.638298000000006},{"name":"C5","midi":72,"time":118.08513000000009,"velocity":0.5433070866141733,"duration":0.638298000000006},{"name":"D5","midi":74,"time":118.7234280000001,"velocity":0.5433070866141733,"duration":0.638298000000006},{"name":"G4","midi":67,"time":119.3617260000001,"velocity":0.5433070866141733,"duration":0.638298000000006},{"name":"C5","midi":72,"time":120.00002400000011,"velocity":0.5433070866141733,"duration":0.638298000000006},{"name":"A#4","midi":70,"time":120.63832200000012,"velocity":0.5433070866141733,"duration":0.3191489999999959},{"name":"G#4","midi":68,"time":120.95747100000011,"velocity":0.5433070866141733,"duration":0.3191489999999959},{"name":"A#4","midi":70,"time":121.27662000000011,"velocity":0.5433070866141733,"duration":0.638298000000006},{"name":"C5","midi":72,"time":121.91491800000011,"velocity":0.5433070866141733,"duration":0.638298000000006},{"name":"G#4","midi":68,"time":122.55321600000012,"velocity":0.5433070866141733,"duration":0.638298000000006},{"name":"A#4","midi":70,"time":123.19151400000013,"velocity":0.5433070866141733,"duration":0.638298000000006},{"name":"C5","midi":72,"time":123.82981200000013,"velocity":0.5433070866141733,"duration":0.638298000000006},{"name":"F4","midi":65,"time":124.46811000000014,"velocity":0.5433070866141733,"duration":0.638298000000006},{"name":"A#4","midi":70,"time":125.10640800000014,"velocity":0.5433070866141733,"duration":0.638298000000006},{"name":"G#4","midi":68,"time":125.74470600000015,"velocity":0.5433070866141733,"duration":0.3191489999999959},{"name":"G4","midi":67,"time":126.06385500000015,"velocity":0.5433070866141733,"duration":0.3191489999999959},{"name":"G#4","midi":68,"time":126.38300400000014,"velocity":0.5433070866141733,"duration":0.638298000000006},{"name":"G4","midi":67,"time":127.02130200000015,"velocity":0.5433070866141733,"duration":1.2765959999999978},{"name":"A4","midi":69,"time":128.29789800000015,"velocity":0.5433070866141733,"duration":0.3191490000000101},{"name":"A#4","midi":70,"time":128.61704700000016,"velocity":0.5433070866141733,"duration":0.15957449999999085},{"name":"C5","midi":72,"time":128.77662150000015,"velocity":0.5433070866141733,"duration":0.15957449999999085},{"name":"F4","midi":65,"time":128.93619600000014,"velocity":0.5433070866141733,"duration":0.6382979999999918},{"name":"C5","midi":72,"time":129.57449400000013,"velocity":0.5433070866141733,"duration":0.6382979999999918},{"name":"D5","midi":74,"time":130.21279200000012,"velocity":0.5433070866141733,"duration":0.6382979999999918},{"name":"C5","midi":72,"time":130.8510900000001,"velocity":0.5433070866141733,"duration":0.3191490000000101},{"name":"B4","midi":71,"time":131.17023900000012,"velocity":0.5433070866141733,"duration":0.3191490000000101},{"name":"C5","midi":72,"time":131.48938800000013,"velocity":0.5433070866141733,"duration":1.276596000000012},{"name":"D5","midi":74,"time":133.08513300000016,"velocity":0.5433070866141733,"duration":0.3191490000000101},{"name":"D#5","midi":75,"time":133.40428200000017,"velocity":0.5433070866141733,"duration":0.3191490000000101},{"name":"B4","midi":71,"time":133.72343100000018,"velocity":0.5433070866141733,"duration":0.3191490000000101},{"name":"C5","midi":72,"time":134.04258000000019,"velocity":0.5433070866141733,"duration":2.5531919999999957},{"name":"B4","midi":71,"time":137.23407000000017,"velocity":0.5433070866141733,"duration":0.6382979999999918},{"name":"C5","midi":72,"time":138.03194250000016,"velocity":0.5433070866141733,"duration":4.9468095000000005}],"controlChanges":{"7":[{"number":7,"time":0,"value":0.7874015748031497}],"10":[{"number":10,"time":0,"value":0.6220472440944882}]},"id":1,"name":"BWV 871/2","instrumentNumber":6,"instrument":"harpsichord","instrumentFamily":"piano","channelNumber":0,"isPercussion":false},{"startTime":0.638298,"duration":142.9787520000002,"length":211,"notes":[{"name":"G4","midi":67,"time":0.638298,"velocity":0.5433070866141733,"duration":0.638298},{"name":"D#4","midi":63,"time":1.276596,"velocity":0.5433070866141733,"duration":0.638298},{"name":"F4","midi":65,"time":1.914894,"velocity":0.5433070866141733,"duration":0.638298},{"name":"G4","midi":67,"time":2.553192,"velocity":0.5433070866141733,"duration":0.6382979999999998},{"name":"C4","midi":60,"time":3.19149,"velocity":0.5433070866141733,"duration":0.6382979999999998},{"name":"F4","midi":65,"time":3.8297879999999997,"velocity":0.5433070866141733,"duration":0.6382979999999998},{"name":"D#4","midi":63,"time":4.468086,"velocity":0.5433070866141733,"duration":0.31914900000000035},{"name":"D4","midi":62,"time":4.787235,"velocity":0.5433070866141733,"duration":0.31914900000000035},{"name":"D#4","midi":63,"time":5.106384,"velocity":0.5433070866141733,"duration":1.2765959999999996},{"name":"D4","midi":62,"time":6.38298,"velocity":0.5433070866141733,"duration":0.6382979999999998},{"name":"C4","midi":60,"time":7.021278,"velocity":0.5433070866141733,"duration":0.6382979999999998},{"name":"A#3","midi":58,"time":7.6595759999999995,"velocity":0.5433070866141733,"duration":1.2765959999999996},{"name":"A#3","midi":58,"time":8.936172,"velocity":0.5433070866141733,"duration":0.0851064000000008},{"name":"A3","midi":57,"time":9.0744699,"velocity":0.5433070866141733,"duration":0.09042555000000085},{"name":"A#3","midi":58,"time":9.148938000000001,"velocity":0.5433070866141733,"duration":0.04787235000000045},{"name":"A3","midi":57,"time":9.223406100000002,"velocity":0.5433070866141733,"duration":0.06914895000000065},{"name":"A#3","midi":58,"time":9.297874200000003,"velocity":0.5433070866141733,"duration":0.0531915000000005},{"name":"A3","midi":57,"time":9.382980600000003,"velocity":0.5433070866141733,"duration":0.12234045000000116},{"name":"A#3","midi":58,"time":9.457448700000004,"velocity":0.5433070866141733,"duration":0.14361705000000136},{"name":"A3","midi":57,"time":9.553193400000005,"velocity":0.5433070866141733,"duration":0.6595746000000009},{"name":"G3","midi":55,"time":10.212768000000006,"velocity":0.5433070866141733,"duration":0.6382980000000007},{"name":"G4","midi":67,"time":10.851066000000007,"velocity":0.5433070866141733,"duration":1.2765959999999996},{"name":"F4","midi":65,"time":12.127662000000006,"velocity":0.5433070866141733,"duration":1.2765959999999996},{"name":"D#4","midi":63,"time":13.404258000000006,"velocity":0.5433070866141733,"duration":1.2765959999999996},{"name":"D4","midi":62,"time":14.680854000000005,"velocity":0.5433070866141733,"duration":0.31914899999999946},{"name":"C4","midi":60,"time":15.000003000000005,"velocity":0.5433070866141733,"duration":0.31914899999999946},{"name":"B3","midi":59,"time":15.319152000000004,"velocity":0.5433070866141733,"duration":1.2765959999999996},{"name":"C4","midi":60,"time":16.595748000000004,"velocity":0.5433070866141733,"duration":2.5531919999999992},{"name":"B3","midi":59,"time":19.148940000000003,"velocity":0.5433070866141733,"duration":1.2765960000000014},{"name":"C4","midi":60,"time":20.425536000000005,"velocity":0.5433070866141733,"duration":1.2765960000000014},{"name":"D#4","midi":63,"time":22.340430000000005,"velocity":0.5433070866141733,"duration":0.6382979999999989},{"name":"D4","midi":62,"time":22.978728000000004,"velocity":0.5433070866141733,"duration":0.31914899999999946},{"name":"F#4","midi":66,"time":23.297877000000003,"velocity":0.5433070866141733,"duration":0.31914899999999946},{"name":"G4","midi":67,"time":23.617026000000003,"velocity":0.5433070866141733,"duration":0.6382979999999989},{"name":"D4","midi":62,"time":28.72341,"velocity":0.5433070866141733,"duration":0.6382979999999989},{"name":"A#3","midi":58,"time":29.361708,"velocity":0.5433070866141733,"duration":0.6382979999999989},{"name":"D4","midi":62,"time":30.000006,"velocity":0.5433070866141733,"duration":0.6382979999999989},{"name":"D#4","midi":63,"time":30.638303999999998,"velocity":0.5433070866141733,"duration":0.31914899999999946},{"name":"C4","midi":60,"time":30.957452999999997,"velocity":0.5433070866141733,"duration":0.31914899999999946},{"name":"G#4","midi":68,"time":31.276601999999997,"velocity":0.5433070866141733,"duration":0.31914899999999946},{"name":"G4","midi":67,"time":31.595750999999996,"velocity":0.5433070866141733,"duration":0.31914899999999946},{"name":"F4","midi":65,"time":31.914899999999996,"velocity":0.5433070866141733,"duration":0.319149000000003},{"name":"D#4","midi":63,"time":32.234049,"velocity":0.5433070866141733,"duration":0.319149000000003},{"name":"D4","midi":62,"time":32.553198,"velocity":0.5433070866141733,"duration":0.319149000000003},{"name":"C4","midi":60,"time":32.872347000000005,"velocity":0.5433070866141733,"duration":0.319149000000003},{"name":"B3","midi":59,"time":33.19149600000001,"velocity":0.5433070866141733,"duration":0.319149000000003},{"name":"F4","midi":65,"time":33.51064500000001,"velocity":0.5433070866141733,"duration":0.319149000000003},{"name":"D#4","midi":63,"time":33.829794000000014,"velocity":0.5433070866141733,"duration":0.319149000000003},{"name":"D4","midi":62,"time":34.14894300000002,"velocity":0.5433070866141733,"duration":0.319149000000003},{"name":"D#4","midi":63,"time":34.46809200000002,"velocity":0.5433070866141733,"duration":0.319149000000003},{"name":"G#4","midi":68,"time":34.78724100000002,"velocity":0.5433070866141733,"duration":0.319149000000003},{"name":"G4","midi":67,"time":35.106390000000026,"velocity":0.5433070866141733,"duration":0.319149000000003},{"name":"F4","midi":65,"time":35.42553900000003,"velocity":0.5433070866141733,"duration":0.319149000000003},{"name":"D5","midi":74,"time":35.74468800000003,"velocity":0.5433070866141733,"duration":0.319149000000003},{"name":"C5","midi":72,"time":36.063837000000035,"velocity":0.5433070866141733,"duration":0.319149000000003},{"name":"D5","midi":74,"time":36.38298600000004,"velocity":0.5433070866141733,"duration":0.9574470000000019},{"name":"B4","midi":71,"time":37.34043300000004,"velocity":0.5433070866141733,"duration":0.319149000000003},{"name":"C5","midi":72,"time":37.65958200000004,"velocity":0.5433070866141733,"duration":0.9574470000000019},{"name":"B4","midi":71,"time":38.617029000000045,"velocity":0.5433070866141733,"duration":0.319149000000003},{"name":"C5","midi":72,"time":38.93617800000005,"velocity":0.5433070866141733,"duration":0.9574470000000019},{"name":"B4","midi":71,"time":39.89362500000005,"velocity":0.5433070866141733,"duration":0.9574470000000019},{"name":"C5","midi":72,"time":40.85107200000005,"velocity":0.5433070866141733,"duration":0.319149000000003},{"name":"G4","midi":67,"time":41.170221000000055,"velocity":0.5433070866141733,"duration":0.319149000000003},{"name":"G#4","midi":68,"time":41.48937000000006,"velocity":0.5433070866141733,"duration":0.9574470000000019},{"name":"G4","midi":67,"time":42.44681700000006,"velocity":0.5433070866141733,"duration":1.2765959999999978},{"name":"E4","midi":64,"time":43.72341300000006,"velocity":0.5433070866141733,"duration":0.319149000000003},{"name":"F4","midi":65,"time":44.04256200000006,"velocity":0.5433070866141733,"duration":0.9574470000000019},{"name":"E4","midi":64,"time":45.00000900000006,"velocity":0.5433070866141733,"duration":0.9574470000000019},{"name":"F4","midi":65,"time":45.957456000000064,"velocity":0.5433070866141733,"duration":0.6382979999999989},{"name":"C4","midi":60,"time":46.59575400000006,"velocity":0.6220472440944882,"duration":0.6382979999999989},{"name":"B3","midi":59,"time":47.23405200000006,"velocity":0.6220472440944882,"duration":0.6382979999999989},{"name":"C4","midi":60,"time":47.87235000000006,"velocity":0.6220472440944882,"duration":0.6382979999999989},{"name":"D4","midi":62,"time":48.51064800000006,"velocity":0.6220472440944882,"duration":0.6382979999999989},{"name":"G3","midi":55,"time":49.14894600000006,"velocity":0.6220472440944882,"duration":0.6382979999999989},{"name":"C4","midi":60,"time":49.78724400000006,"velocity":0.6220472440944882,"duration":0.6382979999999989},{"name":"B3","midi":59,"time":50.42554200000006,"velocity":0.6220472440944882,"duration":0.319149000000003},{"name":"A3","midi":57,"time":50.74469100000006,"velocity":0.6220472440944882,"duration":0.319149000000003},{"name":"G3","midi":55,"time":51.06384000000006,"velocity":0.5433070866141733,"duration":0.319149000000003},{"name":"B3","midi":59,"time":51.382989000000066,"velocity":0.5433070866141733,"duration":0.319149000000003},{"name":"C4","midi":60,"time":51.70213800000007,"velocity":0.5433070866141733,"duration":0.9574470000000019},{"name":"C4","midi":60,"time":52.65958500000007,"velocity":0.5433070866141733,"duration":0.319149000000003},{"name":"D4","midi":62,"time":52.978734000000074,"velocity":0.5433070866141733,"duration":0.9574470000000019},{"name":"D4","midi":62,"time":53.936181000000076,"velocity":0.5433070866141733,"duration":0.319149000000003},{"name":"D#4","midi":63,"time":54.25533000000008,"velocity":0.5433070866141733,"duration":0.9574470000000019},{"name":"F4","midi":65,"time":55.21277700000008,"velocity":0.5433070866141733,"duration":0.319149000000003},{"name":"F#4","midi":66,"time":55.531926000000084,"velocity":0.5433070866141733,"duration":0.6382979999999989},{"name":"E4","midi":64,"time":56.17022400000008,"velocity":0.5433070866141733,"duration":0.6382979999999989},{"name":"F4","midi":65,"time":57.127671000000085,"velocity":0.5433070866141733,"duration":0.319149000000003},{"name":"C#4","midi":61,"time":57.44682000000009,"velocity":0.5433070866141733,"duration":1.5957450000000009},{"name":"C4","midi":60,"time":59.04256500000009,"velocity":0.5433070866141733,"duration":0.319149000000003},{"name":"F4","midi":65,"time":59.36171400000009,"velocity":0.5433070866141733,"duration":0.9574470000000019},{"name":"G4","midi":67,"time":60.31916100000009,"velocity":0.5433070866141733,"duration":0.319149000000003},{"name":"G#4","midi":68,"time":60.6383100000001,"velocity":0.5433070866141733,"duration":0.6382979999999989},{"name":"F#4","midi":66,"time":61.276608000000095,"velocity":0.5433070866141733,"duration":0.6382979999999989},{"name":"G4","midi":67,"time":62.2340550000001,"velocity":0.5433070866141733,"duration":0.319149000000003},{"name":"D#4","midi":63,"time":62.5532040000001,"velocity":0.5433070866141733,"duration":1.5957450000000009},{"name":"D4","midi":62,"time":64.1489490000001,"velocity":0.5433070866141733,"duration":0.638298000000006},{"name":"C4","midi":60,"time":64.78724700000011,"velocity":0.5433070866141733,"duration":0.3191489999999959},{"name":"A#3","midi":58,"time":65.1063960000001,"velocity":0.5433070866141733,"duration":0.638298000000006},{"name":"A3","midi":57,"time":65.74469400000011,"velocity":0.5433070866141733,"duration":0.638298000000006},{"name":"G3","midi":55,"time":66.38299200000012,"velocity":0.5433070866141733,"duration":0.638298000000006},{"name":"G4","midi":67,"time":67.65958800000013,"velocity":0.5433070866141733,"duration":1.2765959999999978},{"name":"D#4","midi":63,"time":68.93618400000013,"velocity":0.5433070866141733,"duration":1.2765959999999978},{"name":"F4","midi":65,"time":70.21278000000012,"velocity":0.5433070866141733,"duration":1.2765959999999978},{"name":"G4","midi":67,"time":71.48937600000012,"velocity":0.5433070866141733,"duration":1.2765959999999978},{"name":"C4","midi":60,"time":72.76597200000012,"velocity":0.5433070866141733,"duration":1.2765959999999978},{"name":"F4","midi":65,"time":74.04256800000012,"velocity":0.5433070866141733,"duration":1.2765959999999978},{"name":"D#4","midi":63,"time":75.31916400000011,"velocity":0.5433070866141733,"duration":0.638298000000006},{"name":"D4","midi":62,"time":75.95746200000012,"velocity":0.5433070866141733,"duration":0.638298000000006},{"name":"D#4","midi":63,"time":76.59576000000013,"velocity":0.5433070866141733,"duration":0.638298000000006},{"name":"C5","midi":72,"time":77.23405800000013,"velocity":0.5433070866141733,"duration":0.638298000000006},{"name":"A#4","midi":70,"time":77.87235600000014,"velocity":0.5433070866141733,"duration":0.638298000000006},{"name":"C5","midi":72,"time":78.51065400000014,"velocity":0.5433070866141733,"duration":0.638298000000006},{"name":"D5","midi":74,"time":79.14895200000015,"velocity":0.5433070866141733,"duration":0.638298000000006},{"name":"G4","midi":67,"time":79.78725000000016,"velocity":0.5433070866141733,"duration":0.638298000000006},{"name":"C5","midi":72,"time":80.42554800000016,"velocity":0.5433070866141733,"duration":0.638298000000006},{"name":"A#4","midi":70,"time":81.06384600000017,"velocity":0.5433070866141733,"duration":0.3191489999999959},{"name":"A4","midi":69,"time":81.38299500000016,"velocity":0.5433070866141733,"duration":0.3191489999999959},{"name":"A#4","midi":70,"time":81.70214400000016,"velocity":0.5433070866141733,"duration":0.638298000000006},{"name":"G#4","midi":68,"time":82.34044200000017,"velocity":0.5433070866141733,"duration":0.3191489999999959},{"name":"G4","midi":67,"time":82.65959100000016,"velocity":0.5433070866141733,"duration":0.3191489999999959},{"name":"C5","midi":72,"time":82.97874000000016,"velocity":0.5433070866141733,"duration":0.3191489999999959},{"name":"C4","midi":60,"time":83.29788900000015,"velocity":0.5433070866141733,"duration":0.3191489999999959},{"name":"G4","midi":67,"time":83.61703800000015,"velocity":0.5433070866141733,"duration":0.9574470000000019},{"name":"G4","midi":67,"time":84.57448500000015,"velocity":0.5433070866141733,"duration":0.3191489999999959},{"name":"A4","midi":69,"time":84.89363400000015,"velocity":0.5433070866141733,"duration":0.638298000000006},{"name":"A#4","midi":70,"time":85.53193200000015,"velocity":0.5433070866141733,"duration":0.3191489999999959},{"name":"C5","midi":72,"time":85.85108100000015,"velocity":0.5433070866141733,"duration":0.3191489999999959},{"name":"C#5","midi":73,"time":86.17023000000015,"velocity":0.5433070866141733,"duration":0.6329788500000006},{"name":"C5","midi":72,"time":87.12767700000015,"velocity":0.5433070866141733,"duration":0.3191489999999959},{"name":"A#4","midi":70,"time":87.44682600000014,"velocity":0.5433070866141733,"duration":0.31382985000000474},{"name":"G#4","midi":68,"time":87.76597500000015,"velocity":0.5433070866141733,"duration":0.3191489999999959},{"name":"G4","midi":67,"time":88.08512400000015,"velocity":0.5433070866141733,"duration":0.6329788500000006},{"name":"A4","midi":69,"time":88.72342200000016,"velocity":0.5433070866141733,"duration":0.638298000000006},{"name":"A#4","midi":70,"time":89.36172000000016,"velocity":0.5433070866141733,"duration":0.638298000000006},{"name":"D#4","midi":63,"time":90.00001800000017,"velocity":0.5433070866141733,"duration":0.638298000000006},{"name":"G#4","midi":68,"time":90.63831600000017,"velocity":0.5433070866141733,"duration":0.638298000000006},{"name":"G4","midi":67,"time":91.27661400000018,"velocity":0.5433070866141733,"duration":0.3191489999999959},{"name":"F4","midi":65,"time":91.59576300000018,"velocity":0.5433070866141733,"duration":0.3191489999999959},{"name":"G4","midi":67,"time":91.91491200000017,"velocity":0.5433070866141733,"duration":0.9574470000000019},{"name":"F4","midi":65,"time":92.87235900000017,"velocity":0.5433070866141733,"duration":0.3191489999999959},{"name":"D#4","midi":63,"time":93.19150800000017,"velocity":0.5433070866141733,"duration":0.638298000000006},{"name":"D4","midi":62,"time":93.82980600000018,"velocity":0.5433070866141733,"duration":0.638298000000006},{"name":"C4","midi":60,"time":94.46810400000018,"velocity":0.5433070866141733,"duration":0.638298000000006},{"name":"D#5","midi":75,"time":95.10640200000019,"velocity":0.5433070866141733,"duration":0.638298000000006},{"name":"G#4","midi":68,"time":95.7447000000002,"velocity":0.5433070866141733,"duration":1.2765959999999978},{"name":"G4","midi":67,"time":97.34044500000019,"velocity":0.5433070866141733,"duration":0.638298000000006},{"name":"F4","midi":65,"time":97.9787430000002,"velocity":0.5433070866141733,"duration":0.3191489999999959},{"name":"D#4","midi":63,"time":98.29789200000019,"velocity":0.5433070866141733,"duration":0.638298000000006},{"name":"E4","midi":64,"time":98.9361900000002,"velocity":0.5433070866141733,"duration":0.638298000000006},{"name":"F4","midi":65,"time":99.8936370000002,"velocity":0.5433070866141733,"duration":0.3191489999999959},{"name":"D4","midi":62,"time":100.2127860000002,"velocity":0.5433070866141733,"duration":0.638298000000006},{"name":"D#4","midi":63,"time":101.1702330000002,"velocity":0.5433070866141733,"duration":0.3191489999999959},{"name":"F4","midi":65,"time":101.48938200000019,"velocity":0.5433070866141733,"duration":1.2765959999999978},{"name":"D#4","midi":63,"time":102.76597800000019,"velocity":0.5433070866141733,"duration":0.9574470000000019},{"name":"E4","midi":64,"time":103.72342500000019,"velocity":0.5433070866141733,"duration":0.3191489999999959},{"name":"F4","midi":65,"time":104.04257400000019,"velocity":0.5433070866141733,"duration":0.3191489999999959},{"name":"G4","midi":67,"time":104.36172300000018,"velocity":0.5433070866141733,"duration":0.3191489999999959},{"name":"G#4","midi":68,"time":104.68087200000018,"velocity":0.5433070866141733,"duration":1.2765959999999978},{"name":"G4","midi":67,"time":105.95746800000018,"velocity":0.5433070866141733,"duration":0.638298000000006},{"name":"F4","midi":65,"time":106.59576600000018,"velocity":0.5433070866141733,"duration":0.9574470000000019},{"name":"D#4","midi":63,"time":107.55321300000018,"velocity":0.5433070866141733,"duration":0.638298000000006},{"name":"F4","midi":65,"time":108.19151100000019,"velocity":0.5433070866141733,"duration":0.638298000000006},{"name":"F4","midi":65,"time":108.8298090000002,"velocity":0.5433070866141733,"duration":0.3191489999999959},{"name":"D#4","midi":63,"time":109.14895800000019,"velocity":0.5433070866141733,"duration":0.638298000000006},{"name":"F4","midi":65,"time":110.1064050000002,"velocity":0.5433070866141733,"duration":0.3191489999999959},{"name":"D#4","midi":63,"time":110.42555400000019,"velocity":0.5433070866141733,"duration":0.3191489999999959},{"name":"D4","midi":62,"time":110.74470300000019,"velocity":0.5433070866141733,"duration":0.3191489999999959},{"name":"D#4","midi":63,"time":111.06385200000018,"velocity":0.5433070866141733,"duration":1.2765959999999978},{"name":"D4","midi":62,"time":112.65959700000018,"velocity":0.5433070866141733,"duration":0.638298000000006},{"name":"C4","midi":60,"time":113.29789500000018,"velocity":0.5433070866141733,"duration":0.638298000000006},{"name":"A3","midi":57,"time":113.93619300000019,"velocity":0.5433070866141733,"duration":0.3191489999999959},{"name":"B3","midi":59,"time":114.25534200000018,"velocity":0.5433070866141733,"duration":0.638298000000006},{"name":"C4","midi":60,"time":114.89364000000019,"velocity":0.5433070866141733,"duration":0.638298000000006},{"name":"G4","midi":67,"time":115.5319380000002,"velocity":0.5433070866141733,"duration":0.638298000000006},{"name":"D#4","midi":63,"time":116.1702360000002,"velocity":0.5433070866141733,"duration":0.638298000000006},{"name":"F4","midi":65,"time":116.80853400000021,"velocity":0.5433070866141733,"duration":0.638298000000006},{"name":"G4","midi":67,"time":117.44683200000021,"velocity":0.5433070866141733,"duration":0.638298000000006},{"name":"D#4","midi":63,"time":118.08513000000022,"velocity":0.5433070866141733,"duration":0.638298000000006},{"name":"F4","midi":65,"time":118.72342800000023,"velocity":0.5433070866141733,"duration":0.638298000000006},{"name":"D#4","midi":63,"time":119.36172600000023,"velocity":0.5433070866141733,"duration":0.3191489999999959},{"name":"D4","midi":62,"time":119.68087500000023,"velocity":0.5433070866141733,"duration":0.3191489999999959},{"name":"E4","midi":64,"time":120.00002400000022,"velocity":0.5433070866141733,"duration":0.638298000000006},{"name":"F4","midi":65,"time":120.63832200000023,"velocity":0.5433070866141733,"duration":0.638298000000006},{"name":"G4","midi":67,"time":121.27662000000024,"velocity":0.5433070866141733,"duration":0.638298000000006},{"name":"F4","midi":65,"time":121.91491800000024,"velocity":0.5433070866141733,"duration":0.3191489999999959},{"name":"E4","midi":64,"time":122.23406700000024,"velocity":0.5433070866141733,"duration":0.3191489999999959},{"name":"F4","midi":65,"time":122.55321600000023,"velocity":0.5433070866141733,"duration":0.638298000000006},{"name":"G4","midi":67,"time":123.19151400000024,"velocity":0.5433070866141733,"duration":0.638298000000006},{"name":"E4","midi":64,"time":123.82981200000025,"velocity":0.5433070866141733,"duration":0.638298000000006},{"name":"F4","midi":65,"time":124.46811000000025,"velocity":0.5433070866141733,"duration":0.638298000000006},{"name":"G4","midi":67,"time":125.10640800000026,"velocity":0.5433070866141733,"duration":0.638298000000006},{"name":"C4","midi":60,"time":125.74470600000026,"velocity":0.5433070866141733,"duration":0.6329788500000006},{"name":"F4","midi":65,"time":126.38300400000027,"velocity":0.5433070866141733,"duration":0.638298000000006},{"name":"E4","midi":64,"time":127.02130200000028,"velocity":0.5433070866141733,"duration":0.3191489999999959},{"name":"D4","midi":62,"time":127.34045100000027,"velocity":0.5433070866141733,"duration":0.3191489999999959},{"name":"E4","midi":64,"time":127.65960000000027,"velocity":0.5433070866141733,"duration":0.6382979999999918},{"name":"D#4","midi":63,"time":128.29789800000026,"velocity":0.5433070866141733,"duration":0.6382979999999918},{"name":"C#4","midi":61,"time":128.93619600000025,"velocity":0.5433070866141733,"duration":0.6382979999999918},{"name":"D#4","midi":63,"time":129.57449400000024,"velocity":0.5433070866141733,"duration":0.6382979999999918},{"name":"F4","midi":65,"time":130.21279200000023,"velocity":0.5433070866141733,"duration":0.6382979999999918},{"name":"D#4","midi":63,"time":130.85109000000023,"velocity":0.5433070866141733,"duration":0.3191490000000101},{"name":"D4","midi":62,"time":131.17023900000024,"velocity":0.5433070866141733,"duration":0.3191490000000101},{"name":"D#4","midi":63,"time":131.48938800000025,"velocity":0.5433070866141733,"duration":0.6382979999999918},{"name":"G4","midi":67,"time":132.12768600000024,"velocity":0.5433070866141733,"duration":0.6382979999999918},{"name":"A4","midi":69,"time":134.36172900000022,"velocity":0.5433070866141733,"duration":2.234043000000014},{"name":"F#4","midi":66,"time":134.68087800000023,"velocity":0.5433070866141733,"duration":1.9148940000000039},{"name":"F4","midi":65,"time":137.23407000000023,"velocity":0.5433070866141733,"duration":0.6382979999999918},{"name":"G4","midi":67,"time":137.23407000000023,"velocity":0.5433070866141733,"duration":0.6382979999999918},{"name":"D#4","midi":63,"time":137.92555950000022,"velocity":0.5433070866141733,"duration":5.053192499999994},{"name":"G4","midi":67,"time":137.97875100000022,"velocity":0.5433070866141733,"duration":5.0000009999999975}],"controlChanges":{"7":[{"number":7,"time":0,"value":0.7874015748031497}],"10":[{"number":10,"time":0,"value":0.3779527559055118}]},"id":2,"name":"Sequenced","instrumentNumber":6,"instrument":"harpsichord","instrumentFamily":"piano","channelNumber":0,"isPercussion":false},{"startTime":72.127674,"duration":142.97875200000007,"length":100,"notes":[{"name":"G3","midi":55,"time":72.127674,"velocity":0.5433070866141733,"duration":0.638298000000006},{"name":"G#3","midi":56,"time":72.765972,"velocity":0.5433070866141733,"duration":0.638298000000006},{"name":"G3","midi":55,"time":73.40427000000001,"velocity":0.5433070866141733,"duration":0.638298000000006},{"name":"F3","midi":53,"time":74.04256800000002,"velocity":0.5433070866141733,"duration":0.638298000000006},{"name":"D4","midi":62,"time":74.68086600000002,"velocity":0.5433070866141733,"duration":0.638298000000006},{"name":"G3","midi":55,"time":75.31916400000003,"velocity":0.5433070866141733,"duration":0.638298000000006},{"name":"A3","midi":57,"time":75.95746200000004,"velocity":0.5433070866141733,"duration":0.3191489999999959},{"name":"B3","midi":59,"time":76.27661100000003,"velocity":0.5433070866141733,"duration":0.3191489999999959},{"name":"C4","midi":60,"time":76.59576000000003,"velocity":0.5433070866141733,"duration":0.3191489999999959},{"name":"D4","midi":62,"time":76.91490900000002,"velocity":0.5433070866141733,"duration":0.3191489999999959},{"name":"D#4","midi":63,"time":77.23405800000002,"velocity":0.5433070866141733,"duration":0.3191489999999959},{"name":"F4","midi":65,"time":77.55320700000001,"velocity":0.5433070866141733,"duration":0.3191489999999959},{"name":"G4","midi":67,"time":77.87235600000001,"velocity":0.5433070866141733,"duration":0.3191489999999959},{"name":"D#4","midi":63,"time":78.191505,"velocity":0.5433070866141733,"duration":0.3191489999999959},{"name":"D4","midi":62,"time":78.510654,"velocity":0.5433070866141733,"duration":0.3191489999999959},{"name":"C4","midi":60,"time":78.829803,"velocity":0.5433070866141733,"duration":0.3191489999999959},{"name":"A#3","midi":58,"time":79.148952,"velocity":0.5433070866141733,"duration":0.3191489999999959},{"name":"A3","midi":57,"time":79.46810099999999,"velocity":0.5433070866141733,"duration":0.3191489999999959},{"name":"A#3","midi":58,"time":79.78724999999999,"velocity":0.5433070866141733,"duration":0.9574470000000019},{"name":"A3","midi":57,"time":80.74469699999999,"velocity":0.5433070866141733,"duration":0.3191489999999959},{"name":"D4","midi":62,"time":81.06384599999998,"velocity":0.5433070866141733,"duration":0.3191489999999959},{"name":"C4","midi":60,"time":81.38299499999998,"velocity":0.5433070866141733,"duration":0.3191489999999959},{"name":"A#3","midi":58,"time":81.70214399999998,"velocity":0.5433070866141733,"duration":0.3191489999999959},{"name":"G3","midi":55,"time":82.02129299999997,"velocity":0.5433070866141733,"duration":0.3191489999999959},{"name":"C4","midi":60,"time":82.34044199999997,"velocity":0.5433070866141733,"duration":0.638298000000006},{"name":"A3","midi":57,"time":82.97873999999997,"velocity":0.5433070866141733,"duration":0.638298000000006},{"name":"B3","midi":59,"time":83.61703799999998,"velocity":0.5433070866141733,"duration":0.638298000000006},{"name":"C4","midi":60,"time":84.25533599999999,"velocity":0.5433070866141733,"duration":0.638298000000006},{"name":"F3","midi":53,"time":84.89363399999999,"velocity":0.5433070866141733,"duration":0.638298000000006},{"name":"A#3","midi":58,"time":85.531932,"velocity":0.5433070866141733,"duration":0.638298000000006},{"name":"G#3","midi":56,"time":86.17023,"velocity":0.5433070866141733,"duration":0.3191489999999959},{"name":"G3","midi":55,"time":86.489379,"velocity":0.5433070866141733,"duration":0.3191489999999959},{"name":"A3","midi":57,"time":86.808528,"velocity":0.5433070866141733,"duration":0.638298000000006},{"name":"D4","midi":62,"time":87.446826,"velocity":0.5433070866141733,"duration":0.9574470000000019},{"name":"C4","midi":60,"time":88.404273,"velocity":0.5433070866141733,"duration":0.3191489999999959},{"name":"F4","midi":65,"time":88.723422,"velocity":0.5433070866141733,"duration":0.3191489999999959},{"name":"D#4","midi":63,"time":89.042571,"velocity":0.5433070866141733,"duration":0.3191489999999959},{"name":"D4","midi":62,"time":89.36171999999999,"velocity":0.5433070866141733,"duration":0.3191489999999959},{"name":"C4","midi":60,"time":89.68086899999999,"velocity":0.5433070866141733,"duration":0.3191489999999959},{"name":"C#4","midi":61,"time":90.00001799999998,"velocity":0.5433070866141733,"duration":0.9574470000000019},{"name":"C4","midi":60,"time":90.95746499999998,"velocity":0.5433070866141733,"duration":0.3191489999999959},{"name":"A#3","midi":58,"time":91.27661399999998,"velocity":0.5433070866141733,"duration":0.3191489999999959},{"name":"G#3","midi":56,"time":91.59576299999998,"velocity":0.5433070866141733,"duration":0.3191489999999959},{"name":"A#3","midi":58,"time":91.91491199999997,"velocity":0.5433070866141733,"duration":0.638298000000006},{"name":"B3","midi":59,"time":92.55320999999998,"velocity":0.5433070866141733,"duration":0.638298000000006},{"name":"C4","midi":60,"time":93.19150799999998,"velocity":0.5433070866141733,"duration":0.638298000000006},{"name":"G3","midi":55,"time":94.468104,"velocity":0.5433070866141733,"duration":0.31382985000000474},{"name":"C4","midi":60,"time":94.787253,"velocity":0.5433070866141733,"duration":0.3191489999999959},{"name":"B3","midi":59,"time":95.106402,"velocity":0.5433070866141733,"duration":0.3191489999999959},{"name":"C4","midi":60,"time":95.425551,"velocity":0.5433070866141733,"duration":0.638298000000006},{"name":"B3","midi":59,"time":96.063849,"velocity":0.5433070866141733,"duration":0.3191489999999959},{"name":"C4","midi":60,"time":96.382998,"velocity":0.5433070866141733,"duration":1.2765959999999978},{"name":"B3","midi":59,"time":97.659594,"velocity":0.5433070866141733,"duration":0.638298000000006},{"name":"C4","midi":60,"time":98.297892,"velocity":0.5433070866141733,"duration":1.9148940000000039},{"name":"B3","midi":59,"time":100.21278600000001,"velocity":0.5433070866141733,"duration":0.638298000000006},{"name":"C4","midi":60,"time":100.85108400000001,"velocity":0.5433070866141733,"duration":0.9574470000000019},{"name":"B3","midi":59,"time":101.80853100000002,"velocity":0.5433070866141733,"duration":0.638298000000006},{"name":"G3","midi":55,"time":102.44682900000002,"velocity":0.5433070866141733,"duration":0.3191489999999959},{"name":"C4","midi":60,"time":102.76597800000002,"velocity":0.5433070866141733,"duration":1.2765959999999978},{"name":"A#3","midi":58,"time":104.04257400000002,"velocity":0.5433070866141733,"duration":0.638298000000006},{"name":"G#3","midi":56,"time":104.68087200000002,"velocity":0.5433070866141733,"duration":0.3191489999999959},{"name":"G4","midi":67,"time":105.00002100000002,"velocity":0.5433070866141733,"duration":0.3191489999999959},{"name":"F4","midi":65,"time":105.31917000000001,"velocity":0.5433070866141733,"duration":0.3191489999999959},{"name":"D#4","midi":63,"time":105.63831900000001,"velocity":0.5433070866141733,"duration":0.3191489999999959},{"name":"D4","midi":62,"time":105.957468,"velocity":0.5433070866141733,"duration":1.9148940000000039},{"name":"C4","midi":60,"time":107.87236200000001,"velocity":0.5433070866141733,"duration":0.638298000000006},{"name":"D4","midi":62,"time":108.51066000000002,"velocity":0.5433070866141733,"duration":0.638298000000006},{"name":"C4","midi":60,"time":109.14895800000002,"velocity":0.5433070866141733,"duration":0.638298000000006},{"name":"F3","midi":53,"time":109.78725600000003,"velocity":0.5433070866141733,"duration":0.638298000000006},{"name":"G3","midi":55,"time":110.42555400000003,"velocity":0.5433070866141733,"duration":1.2765959999999978},{"name":"A3","midi":57,"time":111.70215000000003,"velocity":0.5433070866141733,"duration":0.638298000000006},{"name":"G3","midi":55,"time":112.34044800000004,"velocity":0.5433070866141733,"duration":1.2765959999999978},{"name":"F3","midi":53,"time":114.57449100000004,"velocity":0.5433070866141733,"duration":0.3191489999999959},{"name":"D#3","midi":51,"time":114.89364000000003,"velocity":0.5433070866141733,"duration":0.638298000000006},{"name":"D#4","midi":63,"time":118.08513000000004,"velocity":0.5433070866141733,"duration":0.638298000000006},{"name":"B3","midi":59,"time":118.72342800000004,"velocity":0.5433070866141733,"duration":0.638298000000006},{"name":"C4","midi":60,"time":119.36172600000005,"velocity":0.5433070866141733,"duration":0.638298000000006},{"name":"G3","midi":55,"time":120.00002400000005,"velocity":0.5433070866141733,"duration":0.638298000000006},{"name":"C#4","midi":61,"time":123.19151400000005,"velocity":0.5433070866141733,"duration":0.638298000000006},{"name":"G3","midi":55,"time":123.82981200000006,"velocity":0.5433070866141733,"duration":0.638298000000006},{"name":"G#3","midi":56,"time":124.46811000000007,"velocity":0.5433070866141733,"duration":0.638298000000006},{"name":"E3","midi":52,"time":125.10640800000007,"velocity":0.5433070866141733,"duration":0.638298000000006},{"name":"C4","midi":60,"time":125.74470600000008,"velocity":0.5433070866141733,"duration":0.638298000000006},{"name":"G#3","midi":56,"time":126.38300400000008,"velocity":0.5433070866141733,"duration":0.638298000000006},{"name":"A#3","midi":58,"time":127.02130200000009,"velocity":0.5433070866141733,"duration":0.638298000000006},{"name":"C4","midi":60,"time":127.6596000000001,"velocity":0.5433070866141733,"duration":0.6382979999999918},{"name":"F3","midi":53,"time":128.2978980000001,"velocity":0.5433070866141733,"duration":0.6382979999999918},{"name":"A#3","midi":58,"time":128.93619600000008,"velocity":0.5433070866141733,"duration":0.6382979999999918},{"name":"G#3","midi":56,"time":129.57449400000007,"velocity":0.5433070866141733,"duration":0.3191490000000101},{"name":"G3","midi":55,"time":129.89364300000008,"velocity":0.5433070866141733,"duration":0.3191490000000101},{"name":"G#3","midi":56,"time":130.2127920000001,"velocity":0.5433070866141733,"duration":0.6382979999999918},{"name":"G3","midi":55,"time":130.85109000000008,"velocity":0.5433070866141733,"duration":0.6382979999999918},{"name":"G3","midi":55,"time":131.48938800000008,"velocity":0.5433070866141733,"duration":0.6382979999999918},{"name":"D#4","midi":63,"time":132.12768600000007,"velocity":0.5433070866141733,"duration":0.6382979999999918},{"name":"D4","midi":62,"time":135.00002700000007,"velocity":0.5433070866141733,"duration":0.3191490000000101},{"name":"D#4","midi":63,"time":135.31917600000008,"velocity":0.5433070866141733,"duration":1.276596000000012},{"name":"F4","midi":65,"time":137.2340700000001,"velocity":0.5433070866141733,"duration":0.6382979999999918},{"name":"D4","midi":62,"time":137.2340700000001,"velocity":0.5433070866141733,"duration":0.6382979999999918},{"name":"D#4","midi":63,"time":137.87236800000008,"velocity":0.5433070866141733,"duration":5.10106485},{"name":"C4","midi":60,"time":137.87236800000008,"velocity":0.5433070866141733,"duration":5.106383999999991}],"controlChanges":{"7":[{"number":7,"time":0,"value":0.7874015748031497}],"10":[{"number":10,"time":0,"value":0.6220472440944882}]},"id":3,"name":"by","instrumentNumber":6,"instrument":"harpsichord","instrumentFamily":"piano","channelNumber":0,"isPercussion":false},{"startTime":15.957450000000001,"duration":142.97875200000013,"length":145,"notes":[{"name":"G3","midi":55,"time":15.957450000000001,"velocity":0.5433070866141733,"duration":0.6382979999999989},{"name":"D#3","midi":51,"time":16.595748,"velocity":0.5433070866141733,"duration":0.6382979999999989},{"name":"F3","midi":53,"time":17.234046,"velocity":0.5433070866141733,"duration":0.6382979999999989},{"name":"G3","midi":55,"time":17.872344,"velocity":0.5433070866141733,"duration":0.6382979999999989},{"name":"C3","midi":48,"time":18.510641999999997,"velocity":0.5433070866141733,"duration":0.6382979999999989},{"name":"F3","midi":53,"time":19.148939999999996,"velocity":0.5433070866141733,"duration":0.6382979999999989},{"name":"D#3","midi":51,"time":19.787237999999995,"velocity":0.5433070866141733,"duration":0.31914899999999946},{"name":"D3","midi":50,"time":20.106386999999994,"velocity":0.5433070866141733,"duration":0.31914899999999946},{"name":"D#3","midi":51,"time":20.425535999999994,"velocity":0.5433070866141733,"duration":0.31914899999999946},{"name":"G3","midi":55,"time":20.744684999999993,"velocity":0.5433070866141733,"duration":0.31914899999999946},{"name":"C3","midi":48,"time":21.063833999999993,"velocity":0.5433070866141733,"duration":0.31914899999999946},{"name":"D3","midi":50,"time":21.382982999999992,"velocity":0.5433070866141733,"duration":0.31914899999999946},{"name":"D#3","midi":51,"time":21.70213199999999,"velocity":0.5433070866141733,"duration":0.31914899999999946},{"name":"F3","midi":53,"time":22.02128099999999,"velocity":0.5433070866141733,"duration":0.31914899999999946},{"name":"G3","midi":55,"time":22.34042999999999,"velocity":0.5433070866141733,"duration":0.31914899999999946},{"name":"A3","midi":57,"time":22.65957899999999,"velocity":0.5433070866141733,"duration":0.31914899999999946},{"name":"A#3","midi":58,"time":22.97872799999999,"velocity":0.5433070866141733,"duration":0.31914899999999946},{"name":"D4","midi":62,"time":23.29787699999999,"velocity":0.5433070866141733,"duration":0.31914899999999946},{"name":"G3","midi":55,"time":23.61702599999999,"velocity":0.5433070866141733,"duration":0.31914899999999946},{"name":"A3","midi":57,"time":23.936174999999988,"velocity":0.5433070866141733,"duration":0.31914899999999946},{"name":"A#3","midi":58,"time":24.255323999999987,"velocity":0.5433070866141733,"duration":0.31914899999999946},{"name":"C4","midi":60,"time":24.574472999999987,"velocity":0.5433070866141733,"duration":0.31914899999999946},{"name":"D4","midi":62,"time":24.893621999999986,"velocity":0.5433070866141733,"duration":0.31914899999999946},{"name":"E4","midi":64,"time":25.212770999999986,"velocity":0.5433070866141733,"duration":0.31914899999999946},{"name":"F4","midi":65,"time":25.531919999999985,"velocity":0.5433070866141733,"duration":0.6382979999999989},{"name":"G#3","midi":56,"time":26.170217999999984,"velocity":0.5433070866141733,"duration":0.6382979999999989},{"name":"F3","midi":53,"time":26.808515999999983,"velocity":0.5433070866141733,"duration":0.6382979999999989},{"name":"G#3","midi":56,"time":27.446813999999982,"velocity":0.5433070866141733,"duration":0.6382979999999989},{"name":"A#3","midi":58,"time":28.08511199999998,"velocity":0.5433070866141733,"duration":0.6382979999999989},{"name":"C3","midi":48,"time":31.27660199999998,"velocity":0.5433070866141733,"duration":0.6382979999999989},{"name":"B2","midi":47,"time":31.914899999999978,"velocity":0.5433070866141733,"duration":0.6382980000000025},{"name":"C3","midi":48,"time":32.55319799999998,"velocity":0.5433070866141733,"duration":0.6382979999999989},{"name":"D3","midi":50,"time":33.19149599999998,"velocity":0.5433070866141733,"duration":0.6382979999999989},{"name":"G2","midi":43,"time":33.82979399999998,"velocity":0.5433070866141733,"duration":0.6382979999999989},{"name":"C3","midi":48,"time":34.46809199999998,"velocity":0.5433070866141733,"duration":0.6382979999999989},{"name":"B2","midi":47,"time":35.106389999999976,"velocity":0.5433070866141733,"duration":0.319149000000003},{"name":"A2","midi":45,"time":35.42553899999998,"velocity":0.5433070866141733,"duration":0.319149000000003},{"name":"B2","midi":47,"time":35.74468799999998,"velocity":0.5433070866141733,"duration":0.6382979999999989},{"name":"G2","midi":43,"time":36.38298599999998,"velocity":0.5433070866141733,"duration":0.6382979999999989},{"name":"C3","midi":48,"time":37.02128399999998,"velocity":0.5433070866141733,"duration":0.6382979999999989},{"name":"G#2","midi":44,"time":37.65958199999998,"velocity":0.5433070866141733,"duration":0.6382979999999989},{"name":"D#2","midi":39,"time":38.29787999999998,"velocity":0.5433070866141733,"duration":0.9574470000000019},{"name":"G#3","midi":56,"time":39.25532699999998,"velocity":0.5433070866141733,"duration":0.319149000000003},{"name":"D3","midi":50,"time":39.57447599999998,"velocity":0.5433070866141733,"duration":0.6382979999999989},{"name":"G3","midi":55,"time":40.21277399999998,"velocity":0.5433070866141733,"duration":0.6382979999999989},{"name":"C3","midi":48,"time":40.85107199999998,"velocity":0.5433070866141733,"duration":0.9574470000000019},{"name":"F3","midi":53,"time":41.80851899999998,"velocity":0.5433070866141733,"duration":0.319149000000003},{"name":"A#2","midi":46,"time":42.127667999999986,"velocity":0.5433070866141733,"duration":0.6382979999999989},{"name":"D#3","midi":51,"time":42.765965999999985,"velocity":0.5433070866141733,"duration":0.6382979999999989},{"name":"G#2","midi":44,"time":43.40426399999998,"velocity":0.5433070866141733,"duration":0.9574470000000019},{"name":"C#3","midi":49,"time":44.361710999999985,"velocity":0.5433070866141733,"duration":0.319149000000003},{"name":"G2","midi":43,"time":44.68085999999999,"velocity":0.5433070866141733,"duration":0.6382979999999989},{"name":"C3","midi":48,"time":45.31915799999999,"velocity":0.5433070866141733,"duration":0.6382979999999989},{"name":"F2","midi":41,"time":45.957455999999986,"velocity":0.5433070866141733,"duration":0.319149000000003},{"name":"C3","midi":48,"time":46.27660499999999,"velocity":0.5433070866141733,"duration":0.319149000000003},{"name":"F3","midi":53,"time":46.59575399999999,"velocity":0.5433070866141733,"duration":0.9574470000000019},{"name":"D#3","midi":51,"time":47.553200999999994,"velocity":0.5433070866141733,"duration":0.319149000000003},{"name":"D3","midi":50,"time":47.87235,"velocity":0.5433070866141733,"duration":0.319149000000003},{"name":"C3","midi":48,"time":48.191499,"velocity":0.5433070866141733,"duration":0.319149000000003},{"name":"B2","midi":47,"time":48.510648,"velocity":0.5433070866141733,"duration":0.319149000000003},{"name":"G2","midi":43,"time":48.829797000000006,"velocity":0.5433070866141733,"duration":0.319149000000003},{"name":"C3","midi":48,"time":49.14894600000001,"velocity":0.5433070866141733,"duration":0.319149000000003},{"name":"A#2","midi":46,"time":49.46809500000001,"velocity":0.5433070866141733,"duration":0.319149000000003},{"name":"G#2","midi":44,"time":49.787244000000015,"velocity":0.5433070866141733,"duration":0.319149000000003},{"name":"C3","midi":48,"time":50.10639300000002,"velocity":0.5433070866141733,"duration":0.319149000000003},{"name":"D2","midi":38,"time":50.42554200000002,"velocity":0.5433070866141733,"duration":0.6382979999999989},{"name":"D#2","midi":39,"time":51.06384000000002,"velocity":0.5433070866141733,"duration":0.9574470000000019},{"name":"C2","midi":36,"time":52.02128700000002,"velocity":0.5433070866141733,"duration":0.319149000000003},{"name":"F2","midi":41,"time":52.340436000000025,"velocity":0.5433070866141733,"duration":0.6382979999999989},{"name":"A#2","midi":46,"time":52.978734000000024,"velocity":0.5433070866141733,"duration":0.6382979999999989},{"name":"B2","midi":47,"time":53.61703200000002,"velocity":0.5433070866141733,"duration":0.6382979999999989},{"name":"C3","midi":48,"time":54.25533000000002,"velocity":0.5433070866141733,"duration":0.6382979999999989},{"name":"G#2","midi":44,"time":54.89362800000002,"velocity":0.5433070866141733,"duration":0.6382979999999989},{"name":"A#2","midi":46,"time":55.53192600000002,"velocity":0.5433070866141733,"duration":0.6382979999999989},{"name":"C3","midi":48,"time":56.17022400000002,"velocity":0.5433070866141733,"duration":0.6382979999999989},{"name":"F2","midi":41,"time":56.80852200000002,"velocity":0.5433070866141733,"duration":0.6382979999999989},{"name":"A#2","midi":46,"time":57.44682000000002,"velocity":0.5433070866141733,"duration":0.6382979999999989},{"name":"G#2","midi":44,"time":58.085118000000016,"velocity":0.5433070866141733,"duration":0.319149000000003},{"name":"G2","midi":43,"time":58.40426700000002,"velocity":0.5433070866141733,"duration":0.319149000000003},{"name":"G#2","midi":44,"time":58.72341600000002,"velocity":0.5433070866141733,"duration":0.6382979999999989},{"name":"G#3","midi":56,"time":59.36171400000002,"velocity":0.5433070866141733,"duration":0.319149000000003},{"name":"F3","midi":53,"time":59.68086300000002,"velocity":0.5433070866141733,"duration":0.319149000000003},{"name":"A#3","midi":58,"time":60.00001200000003,"velocity":0.5433070866141733,"duration":0.6382979999999989},{"name":"C4","midi":60,"time":60.638310000000025,"velocity":0.5433070866141733,"duration":0.6382979999999989},{"name":"D3","midi":50,"time":61.276608000000024,"velocity":0.5433070866141733,"duration":0.6382979999999989},{"name":"G3","midi":55,"time":61.91490600000002,"velocity":0.5433070866141733,"duration":0.6382979999999989},{"name":"C3","midi":48,"time":62.55320400000002,"velocity":0.5433070866141733,"duration":0.6382979999999989},{"name":"A#2","midi":46,"time":63.19150200000002,"velocity":0.5433070866141733,"duration":0.319149000000003},{"name":"A2","midi":45,"time":63.510651000000024,"velocity":0.5433070866141733,"duration":0.319149000000003},{"name":"A#2","midi":46,"time":63.82980000000003,"velocity":0.5433070866141733,"duration":0.6382979999999989},{"name":"D#3","midi":51,"time":64.46809800000003,"velocity":0.5433070866141733,"duration":0.638298000000006},{"name":"C3","midi":48,"time":65.10639600000003,"velocity":0.5433070866141733,"duration":0.638298000000006},{"name":"D3","midi":50,"time":65.74469400000004,"velocity":0.5433070866141733,"duration":0.638298000000006},{"name":"G2","midi":43,"time":66.38299200000004,"velocity":0.5433070866141733,"duration":0.638298000000006},{"name":"G3","midi":55,"time":93.19150800000006,"velocity":0.5433070866141733,"duration":1.5957449999999938},{"name":"D#3","midi":51,"time":94.46810400000005,"velocity":0.5433070866141733,"duration":1.2765959999999978},{"name":"F3","midi":53,"time":95.74470000000005,"velocity":0.5433070866141733,"duration":1.2765959999999978},{"name":"G3","midi":55,"time":97.02129600000005,"velocity":0.5433070866141733,"duration":1.2765959999999978},{"name":"C3","midi":48,"time":98.29789200000005,"velocity":0.5433070866141733,"duration":1.2765959999999978},{"name":"F3","midi":53,"time":99.57448800000004,"velocity":0.5433070866141733,"duration":1.2765959999999978},{"name":"D#3","midi":51,"time":100.85108400000004,"velocity":0.5433070866141733,"duration":0.638298000000006},{"name":"D3","midi":50,"time":101.48938200000005,"velocity":0.5433070866141733,"duration":0.638298000000006},{"name":"D#3","midi":51,"time":102.12768000000005,"velocity":0.5433070866141733,"duration":0.9574470000000019},{"name":"G3","midi":55,"time":103.08512700000006,"velocity":0.5433070866141733,"duration":0.3191489999999959},{"name":"G#3","midi":56,"time":103.40427600000005,"velocity":0.5433070866141733,"duration":0.638298000000006},{"name":"G3","midi":55,"time":104.04257400000006,"velocity":0.5433070866141733,"duration":0.638298000000006},{"name":"F3","midi":53,"time":104.68087200000006,"velocity":0.5433070866141733,"duration":0.638298000000006},{"name":"D4","midi":62,"time":105.31917000000007,"velocity":0.5433070866141733,"duration":0.638298000000006},{"name":"G3","midi":55,"time":105.95746800000008,"velocity":0.5433070866141733,"duration":0.638298000000006},{"name":"A3","midi":57,"time":106.59576600000008,"velocity":0.5433070866141733,"duration":0.3191489999999959},{"name":"B3","midi":59,"time":106.91491500000008,"velocity":0.5433070866141733,"duration":0.3191489999999959},{"name":"C4","midi":60,"time":107.23406400000007,"velocity":0.5433070866141733,"duration":0.638298000000006},{"name":"C3","midi":48,"time":107.87236200000008,"velocity":0.5433070866141733,"duration":0.638298000000006},{"name":"B2","midi":47,"time":108.51066000000009,"velocity":0.5433070866141733,"duration":0.638298000000006},{"name":"C3","midi":48,"time":109.14895800000009,"velocity":0.5433070866141733,"duration":0.638298000000006},{"name":"D3","midi":50,"time":109.7872560000001,"velocity":0.5433070866141733,"duration":0.638298000000006},{"name":"G2","midi":43,"time":110.4255540000001,"velocity":0.5433070866141733,"duration":0.638298000000006},{"name":"C3","midi":48,"time":111.06385200000011,"velocity":0.5433070866141733,"duration":0.638298000000006},{"name":"B2","midi":47,"time":111.70215000000012,"velocity":0.5433070866141733,"duration":0.3191489999999959},{"name":"A2","midi":45,"time":112.02129900000011,"velocity":0.5433070866141733,"duration":0.3191489999999959},{"name":"B2","midi":47,"time":112.34044800000011,"velocity":0.5433070866141733,"duration":0.638298000000006},{"name":"C3","midi":48,"time":112.97874600000011,"velocity":0.5433070866141733,"duration":0.638298000000006},{"name":"F2","midi":41,"time":113.61704400000012,"velocity":0.5433070866141733,"duration":0.638298000000006},{"name":"G2","midi":43,"time":114.25534200000013,"velocity":0.5433070866141733,"duration":0.638298000000006},{"name":"C2","midi":36,"time":114.89364000000013,"velocity":0.5433070866141733,"duration":0.638298000000006},{"name":"C3","midi":48,"time":120.00002400000014,"velocity":0.5433070866141733,"duration":0.638298000000006},{"name":"C3","midi":48,"time":125.10640800000014,"velocity":0.5433070866141733,"duration":0.638298000000006},{"name":"C3","midi":48,"time":128.29789800000015,"velocity":0.5433070866141733,"duration":0.6382979999999918},{"name":"C#3","midi":49,"time":128.93619600000014,"velocity":0.5433070866141733,"duration":0.6382979999999918},{"name":"C3","midi":48,"time":129.57449400000013,"velocity":0.5433070866141733,"duration":0.6382979999999918},{"name":"B2","midi":47,"time":130.21279200000012,"velocity":0.5433070866141733,"duration":0.6382979999999918},{"name":"F3","midi":53,"time":130.8510900000001,"velocity":0.5433070866141733,"duration":0.6382979999999918},{"name":"D#3","midi":51,"time":131.4893880000001,"velocity":0.5433070866141733,"duration":0.3191490000000101},{"name":"D3","midi":50,"time":131.80853700000011,"velocity":0.5433070866141733,"duration":0.3191490000000101},{"name":"C3","midi":48,"time":132.12768600000012,"velocity":0.5433070866141733,"duration":0.3191490000000101},{"name":"D3","midi":50,"time":132.44683500000014,"velocity":0.5433070866141733,"duration":0.15957449999999085},{"name":"D#3","midi":51,"time":132.60640950000013,"velocity":0.5433070866141733,"duration":0.15957449999999085},{"name":"F#2","midi":42,"time":132.76598400000012,"velocity":0.5433070866141733,"duration":1.276596000000012},{"name":"B3","midi":59,"time":135.63832500000012,"velocity":0.5433070866141733,"duration":0.3191490000000101},{"name":"C4","midi":60,"time":135.95747400000013,"velocity":0.5433070866141733,"duration":0.3191490000000101},{"name":"F#3","midi":54,"time":136.27662300000014,"velocity":0.5433070866141733,"duration":0.3191490000000101},{"name":"G3","midi":55,"time":136.59577200000015,"velocity":0.5433070866141733,"duration":0.6382979999999918},{"name":"G2","midi":43,"time":137.23407000000014,"velocity":0.5433070866141733,"duration":0.6382979999999918},{"name":"C2","midi":36,"time":137.76598500000014,"velocity":0.5433070866141733,"duration":5.212766999999985},{"name":"C3","midi":48,"time":137.81917650000014,"velocity":0.5433070866141733,"duration":5.159575499999988}],"controlChanges":{"7":[{"number":7,"time":0,"value":0.7874015748031497}],"10":[{"number":10,"time":0,"value":0.3779527559055118}]},"id":4,"name":"Yo Tomita","instrumentNumber":6,"instrument":"harpsichord","instrumentFamily":"piano","channelNumber":0,"isPercussion":false}]}