{"header":{"PPQ":240,"timeSignature":[1,4],"bpm":120,"name":""},"startTime":5.133333333333333,"duration":143.1312499999982,"tracks":[{"startTime":5.133333333333333,"duration":143.1312499999982,"length":1563,"notes":[{"name":"D#4","midi":63,"time":5.133333333333333,"velocity":0.5196850393700787,"duration":0.49374999999999947},{"name":"G#3","midi":56,"time":5.137499999999999,"velocity":0.5196850393700787,"duration":0.4958333333333327},{"name":"C4","midi":60,"time":5.1395833333333325,"velocity":0.5196850393700787,"duration":0.4958333333333327},{"name":"G#4","midi":68,"time":5.377083333333332,"velocity":0.6062992125984252,"duration":0.125},{"name":"G4","midi":67,"time":5.5041666666666655,"velocity":0.5669291338582677,"duration":0.12291666666666679},{"name":"G#4","midi":68,"time":5.6291666666666655,"velocity":0.6062992125984252,"duration":0.24583333333333268},{"name":"C5","midi":72,"time":5.874999999999998,"velocity":0.6062992125984252,"duration":0.24583333333333357},{"name":"D#4","midi":63,"time":6.120833333333332,"velocity":0.5669291338582677,"duration":0.24166666666666625},{"name":"G#4","midi":68,"time":6.364583333333331,"velocity":0.6062992125984252,"duration":0.24375000000000036},{"name":"D#4","midi":63,"time":6.608333333333332,"velocity":0.5669291338582677,"duration":0.4874999999999998},{"name":"G3","midi":55,"time":6.610416666666665,"velocity":0.5669291338582677,"duration":0.4874999999999998},{"name":"A#3","midi":58,"time":6.612499999999998,"velocity":0.5669291338582677,"duration":0.4874999999999998},{"name":"A#4","midi":70,"time":6.852083333333331,"velocity":0.6062992125984252,"duration":0.12291666666666679},{"name":"G#4","midi":68,"time":6.974999999999998,"velocity":0.6062992125984252,"duration":0.11875000000000036},{"name":"A#4","midi":70,"time":7.095833333333331,"velocity":0.6062992125984252,"duration":0.23749999999999982},{"name":"C#5","midi":73,"time":7.3354166666666645,"velocity":0.6062992125984252,"duration":0.23958333333333304},{"name":"D#4","midi":63,"time":7.5749999999999975,"velocity":0.5669291338582677,"duration":0.24166666666666625},{"name":"A#4","midi":70,"time":7.816666666666664,"velocity":0.6062992125984252,"duration":0.23958333333333304},{"name":"C5","midi":72,"time":8.056249999999997,"velocity":0.6062992125984252,"duration":0.4895833333333339},{"name":"G#3","midi":56,"time":8.299999999999997,"velocity":0.5669291338582677,"duration":0.12291666666666679},{"name":"G3","midi":55,"time":8.422916666666664,"velocity":0.5669291338582677,"duration":0.12083333333333357},{"name":"C5","midi":72,"time":8.54583333333333,"velocity":0.6062992125984252,"duration":0.4895833333333339},{"name":"G#5","midi":80,"time":8.547916666666664,"velocity":0.5118110236220472,"duration":0.4854166666666675},{"name":"D#5","midi":75,"time":8.547916666666664,"velocity":0.6062992125984252,"duration":0.4854166666666675},{"name":"G#3","midi":56,"time":8.549999999999997,"velocity":0.5669291338582677,"duration":0.2375000000000007},{"name":"C4","midi":60,"time":8.789583333333331,"velocity":0.5669291338582677,"duration":0.24166666666666714},{"name":"D#3","midi":51,"time":9.035416666666665,"velocity":0.5669291338582677,"duration":0.23958333333333393},{"name":"D#5","midi":75,"time":9.277083333333332,"velocity":0.6062992125984252,"duration":0.24375000000000036},{"name":"C5","midi":72,"time":9.277083333333332,"velocity":0.6062992125984252,"duration":0.24583333333333357},{"name":"G#3","midi":56,"time":9.279166666666665,"velocity":0.5669291338582677,"duration":0.24166666666666714},{"name":"C#5","midi":73,"time":9.522916666666665,"velocity":0.6062992125984252,"duration":0.49166666666666714},{"name":"A#4","midi":70,"time":9.524999999999999,"velocity":0.6062992125984252,"duration":0.4875000000000007},{"name":"A#3","midi":58,"time":9.766666666666666,"velocity":0.5669291338582677,"duration":0.12291666666666679},{"name":"G#3","midi":56,"time":9.891666666666666,"velocity":0.5669291338582677,"duration":0.12083333333333357},{"name":"G5","midi":79,"time":10.014583333333333,"velocity":0.5118110236220472,"duration":0.4895833333333339},{"name":"A#3","midi":58,"time":10.016666666666666,"velocity":0.5669291338582677,"duration":0.24166666666666714},{"name":"C#4","midi":61,"time":10.258333333333333,"velocity":0.5669291338582677,"duration":0.24583333333333357},{"name":"D#3","midi":51,"time":10.50625,"velocity":0.5669291338582677,"duration":0.24375000000000036},{"name":"A#4","midi":70,"time":10.75,"velocity":0.5354330708661418,"duration":0.25},{"name":"C#5","midi":73,"time":10.752083333333333,"velocity":0.5354330708661418,"duration":0.24583333333333357},{"name":"G5","midi":79,"time":10.752083333333333,"velocity":0.4409448818897638,"duration":0.24583333333333357},{"name":"A#3","midi":58,"time":10.754166666666666,"velocity":0.5669291338582677,"duration":0.24375000000000036},{"name":"G#5","midi":80,"time":11,"velocity":0.4409448818897638,"duration":0.49166666666666714},{"name":"G#4","midi":68,"time":11,"velocity":0.5354330708661418,"duration":0.49166666666666714},{"name":"D#5","midi":75,"time":11.002083333333333,"velocity":0.5354330708661418,"duration":0.4875000000000007},{"name":"C4","midi":60,"time":11.24375,"velocity":0.5669291338582677,"duration":0.12083333333333357},{"name":"A#3","midi":58,"time":11.366666666666667,"velocity":0.5669291338582677,"duration":0.12291666666666679},{"name":"D#5","midi":75,"time":11.491666666666667,"velocity":0.6062992125984252,"duration":0.4895833333333339},{"name":"C4","midi":60,"time":11.49375,"velocity":0.5669291338582677,"duration":0.24166666666666714},{"name":"D#4","midi":63,"time":11.735416666666667,"velocity":0.5669291338582677,"duration":0.24583333333333357},{"name":"G#3","midi":56,"time":11.983333333333334,"velocity":0.5669291338582677,"duration":0.24375000000000036},{"name":"A#4","midi":70,"time":12.227083333333335,"velocity":0.6062992125984252,"duration":0.24791666666666679},{"name":"D#5","midi":75,"time":12.229166666666668,"velocity":0.6062992125984252,"duration":0.24583333333333357},{"name":"C4","midi":60,"time":12.229166666666668,"velocity":0.5669291338582677,"duration":0.24375000000000036},{"name":"D#5","midi":75,"time":12.475000000000001,"velocity":0.6062992125984252,"duration":0.24375000000000036},{"name":"F3","midi":53,"time":12.477083333333335,"velocity":0.5669291338582677,"duration":0.4875000000000007},{"name":"G#3","midi":56,"time":12.477083333333335,"velocity":0.5669291338582677,"duration":0.4875000000000007},{"name":"G#5","midi":80,"time":12.720833333333335,"velocity":0.5118110236220472,"duration":0.12083333333333357},{"name":"G5","midi":79,"time":12.841666666666669,"velocity":0.5118110236220472,"duration":0.12083333333333357},{"name":"G#5","midi":80,"time":12.966666666666669,"velocity":0.5118110236220472,"duration":0.2375000000000007},{"name":"F4","midi":65,"time":12.966666666666669,"velocity":0.5669291338582677,"duration":0.48125000000000107},{"name":"F5","midi":77,"time":13.206250000000002,"velocity":0.5118110236220472,"duration":0.24166666666666714},{"name":"C#5","midi":73,"time":13.450000000000003,"velocity":0.6062992125984252,"duration":0.23958333333333393},{"name":"D#5","midi":75,"time":13.689583333333337,"velocity":0.6062992125984252,"duration":0.24166666666666714},{"name":"C#5","midi":73,"time":13.931250000000004,"velocity":0.6062992125984252,"duration":0.4895833333333339},{"name":"A#4","midi":70,"time":13.933333333333337,"velocity":0.6062992125984252,"duration":0.4875000000000007},{"name":"A#3","midi":58,"time":14.175000000000004,"velocity":0.5669291338582677,"duration":0.12291666666666679},{"name":"G#3","midi":56,"time":14.297916666666671,"velocity":0.5669291338582677,"duration":0.12083333333333357},{"name":"G#5","midi":80,"time":14.422916666666671,"velocity":0.5118110236220472,"duration":0.4854166666666675},{"name":"A#3","midi":58,"time":14.422916666666671,"velocity":0.5669291338582677,"duration":0.23958333333333393},{"name":"C#4","midi":61,"time":14.664583333333338,"velocity":0.5669291338582677,"duration":0.24166666666666714},{"name":"G3","midi":55,"time":14.908333333333339,"velocity":0.5669291338582677,"duration":0.24166666666666714},{"name":"C#5","midi":73,"time":15.152083333333339,"velocity":0.6062992125984252,"duration":0.24375000000000036},{"name":"A#3","midi":58,"time":15.152083333333339,"velocity":0.5669291338582677,"duration":0.24375000000000036},{"name":"C#5","midi":73,"time":15.397916666666672,"velocity":0.6062992125984252,"duration":0.23958333333333393},{"name":"G3","midi":55,"time":15.397916666666672,"velocity":0.5669291338582677,"duration":0.4833333333333343},{"name":"D#3","midi":51,"time":15.400000000000006,"velocity":0.5669291338582677,"duration":0.48125000000000107},{"name":"A#5","midi":82,"time":15.637500000000006,"velocity":0.5118110236220472,"duration":0.12083333333333357},{"name":"G#5","midi":80,"time":15.760416666666673,"velocity":0.5118110236220472,"duration":0.11875000000000036},{"name":"A#5","midi":82,"time":15.881250000000007,"velocity":0.5118110236220472,"duration":0.23958333333333393},{"name":"D#4","midi":63,"time":15.88333333333334,"velocity":0.5669291338582677,"duration":0.47916666666666785},{"name":"G5","midi":79,"time":16.122916666666676,"velocity":0.5118110236220472,"duration":0.23958333333333215},{"name":"C#5","midi":73,"time":16.364583333333343,"velocity":0.6062992125984252,"duration":0.2375000000000007},{"name":"C#5","midi":73,"time":16.602083333333344,"velocity":0.6062992125984252,"duration":0.2416666666666707},{"name":"A#5","midi":82,"time":16.60416666666668,"velocity":0.5118110236220472,"duration":0.2395833333333357},{"name":"G4","midi":67,"time":16.60416666666668,"velocity":0.5669291338582677,"duration":0.2375000000000007},{"name":"G#4","midi":68,"time":16.84583333333335,"velocity":0.6062992125984252,"duration":0.48958333333333215},{"name":"C5","midi":72,"time":16.84583333333335,"velocity":0.6062992125984252,"duration":0.48958333333333215},{"name":"G#3","midi":56,"time":17.087500000000016,"velocity":0.5669291338582677,"duration":0.12291666666666501},{"name":"G3","midi":55,"time":17.21041666666668,"velocity":0.5669291338582677,"duration":0.12291666666666501},{"name":"G#3","midi":56,"time":17.337500000000016,"velocity":0.5669291338582677,"duration":0.24374999999999858},{"name":"D#5","midi":75,"time":17.456250000000015,"velocity":0.6062992125984252,"duration":0.12291666666666501},{"name":"F5","midi":77,"time":17.581250000000015,"velocity":0.5118110236220472,"duration":0.12083333333333357},{"name":"C4","midi":60,"time":17.58333333333335,"velocity":0.5669291338582677,"duration":0.2416666666666636},{"name":"G5","midi":79,"time":17.70208333333335,"velocity":0.5118110236220472,"duration":0.12291666666666501},{"name":"G#5","midi":80,"time":17.825000000000014,"velocity":0.5118110236220472,"duration":0.125},{"name":"F3","midi":53,"time":17.82708333333335,"velocity":0.5669291338582677,"duration":0.2416666666666636},{"name":"F5","midi":77,"time":17.945833333333347,"velocity":0.5118110236220472,"duration":0.127083333333335},{"name":"D5","midi":74,"time":18.068750000000012,"velocity":0.6062992125984252,"duration":0.12500000000000355},{"name":"G#3","midi":56,"time":18.070833333333347,"velocity":0.5669291338582677,"duration":0.2395833333333357},{"name":"F5","midi":77,"time":18.187500000000014,"velocity":0.5118110236220472,"duration":0.12916666666666998},{"name":"A#4","midi":70,"time":18.310416666666683,"velocity":0.6062992125984252,"duration":0.6125000000000007},{"name":"D3","midi":50,"time":18.312500000000018,"velocity":0.5669291338582677,"duration":0.24374999999999858},{"name":"G3","midi":55,"time":18.556250000000016,"velocity":0.5669291338582677,"duration":0.12083333333333357},{"name":"F3","midi":53,"time":18.679166666666685,"velocity":0.5669291338582677,"duration":0.12083333333333357},{"name":"G3","midi":55,"time":18.80000000000002,"velocity":0.5669291338582677,"duration":0.24583333333333357},{"name":"D5","midi":74,"time":18.922916666666683,"velocity":0.6062992125984252,"duration":0.12083333333333357},{"name":"D#5","midi":75,"time":19.045833333333352,"velocity":0.6062992125984252,"duration":0.12083333333333357},{"name":"A#3","midi":58,"time":19.047916666666687,"velocity":0.5669291338582677,"duration":0.23958333333333215},{"name":"F5","midi":77,"time":19.166666666666686,"velocity":0.5118110236220472,"duration":0.11874999999999858},{"name":"G5","midi":79,"time":19.28750000000002,"velocity":0.5118110236220472,"duration":0.12083333333333357},{"name":"D#3","midi":51,"time":19.289583333333354,"velocity":0.5669291338582677,"duration":0.23958333333333215},{"name":"D#5","midi":75,"time":19.408333333333353,"velocity":0.6062992125984252,"duration":0.11874999999999858},{"name":"C5","midi":72,"time":19.529166666666686,"velocity":0.6062992125984252,"duration":0.12083333333333357},{"name":"G3","midi":55,"time":19.53125000000002,"velocity":0.5669291338582677,"duration":0.23958333333333215},{"name":"D#5","midi":75,"time":19.65000000000002,"velocity":0.6062992125984252,"duration":0.12083333333333357},{"name":"G#4","midi":68,"time":19.77291666666669,"velocity":0.6062992125984252,"duration":0.11874999999999858},{"name":"C3","midi":48,"time":19.77291666666669,"velocity":0.5275590551181102,"duration":0.24166666666666714},{"name":"A#4","midi":70,"time":19.893750000000022,"velocity":0.6062992125984252,"duration":0.12083333333333357},{"name":"G3","midi":55,"time":20.01666666666669,"velocity":0.5669291338582677,"duration":0.12916666666666998},{"name":"G4","midi":67,"time":20.01666666666669,"velocity":0.5669291338582677,"duration":0.13125000000000497},{"name":"A#4","midi":70,"time":20.137500000000024,"velocity":0.6062992125984252,"duration":0.12083333333333712},{"name":"D#3","midi":51,"time":20.13958333333336,"velocity":0.5669291338582677,"duration":0.11875000000000213},{"name":"G#4","midi":68,"time":20.260416666666696,"velocity":0.6062992125984252,"duration":0.11874999999999858},{"name":"F3","midi":53,"time":20.260416666666696,"velocity":0.5669291338582677,"duration":0.24166666666666714},{"name":"C5","midi":72,"time":20.38125000000003,"velocity":0.6062992125984252,"duration":0.12083333333333357},{"name":"D5","midi":74,"time":20.5041666666667,"velocity":0.6062992125984252,"duration":0.11874999999999858},{"name":"G#3","midi":56,"time":20.5041666666667,"velocity":0.5669291338582677,"duration":0.2416666666666636},{"name":"D#5","midi":75,"time":20.622916666666697,"velocity":0.6062992125984252,"duration":0.12291666666666501},{"name":"F5","midi":77,"time":20.745833333333362,"velocity":0.5118110236220472,"duration":0.11875000000000213},{"name":"D3","midi":50,"time":20.747916666666697,"velocity":0.5669291338582677,"duration":0.23958333333333215},{"name":"D5","midi":74,"time":20.864583333333364,"velocity":0.6062992125984252,"duration":0.12291666666666501},{"name":"A#4","midi":70,"time":20.98750000000003,"velocity":0.6062992125984252,"duration":0.11875000000000213},{"name":"F3","midi":53,"time":20.989583333333364,"velocity":0.5669291338582677,"duration":0.2375000000000007},{"name":"D5","midi":74,"time":21.108333333333366,"velocity":0.6062992125984252,"duration":0.11874999999999858},{"name":"G4","midi":67,"time":21.2291666666667,"velocity":0.5669291338582677,"duration":0.12916666666666643},{"name":"A#2","midi":46,"time":21.2291666666667,"velocity":0.5275590551181102,"duration":0.23958333333333215},{"name":"G#4","midi":68,"time":21.350000000000033,"velocity":0.6062992125984252,"duration":0.11874999999999858},{"name":"F4","midi":65,"time":21.470833333333367,"velocity":0.5669291338582677,"duration":0.13125000000000142},{"name":"D#3","midi":51,"time":21.470833333333367,"velocity":0.5669291338582677,"duration":0.12083333333333357},{"name":"G#4","midi":68,"time":21.593750000000036,"velocity":0.6062992125984252,"duration":0.12083333333333357},{"name":"D3","midi":50,"time":21.593750000000036,"velocity":0.5669291338582677,"duration":0.11874999999999858},{"name":"G4","midi":67,"time":21.71458333333337,"velocity":0.5669291338582677,"duration":0.12916666666666998},{"name":"D#3","midi":51,"time":21.716666666666704,"velocity":0.5669291338582677,"duration":0.23750000000000426},{"name":"A#4","midi":70,"time":21.83333333333337,"velocity":0.6062992125984252,"duration":0.11875000000000213},{"name":"C5","midi":72,"time":21.95416666666671,"velocity":0.6062992125984252,"duration":0.11666666666666714},{"name":"G3","midi":55,"time":21.956250000000043,"velocity":0.5669291338582677,"duration":0.23541666666666572},{"name":"D5","midi":74,"time":22.07291666666671,"velocity":0.6062992125984252,"duration":0.11874999999999858},{"name":"D#5","midi":75,"time":22.193750000000044,"velocity":0.6062992125984252,"duration":0.11458333333333215},{"name":"C3","midi":48,"time":22.193750000000044,"velocity":0.5275590551181102,"duration":0.23541666666666572},{"name":"C5","midi":72,"time":22.31041666666671,"velocity":0.6062992125984252,"duration":0.11874999999999858},{"name":"G#4","midi":68,"time":22.431250000000045,"velocity":0.6062992125984252,"duration":0.11666666666666714},{"name":"D#3","midi":51,"time":22.431250000000045,"velocity":0.5669291338582677,"duration":0.2375000000000007},{"name":"C5","midi":72,"time":22.547916666666712,"velocity":0.6062992125984252,"duration":0.11874999999999858},{"name":"F4","midi":65,"time":22.668750000000045,"velocity":0.5669291338582677,"duration":0.11875000000000213},{"name":"G#2","midi":44,"time":22.67083333333338,"velocity":0.5275590551181102,"duration":0.2375000000000007},{"name":"D#5","midi":75,"time":22.787500000000048,"velocity":0.6062992125984252,"duration":0.11874999999999858},{"name":"D5","midi":74,"time":22.90833333333338,"velocity":0.6062992125984252,"duration":0.11666666666666714},{"name":"F3","midi":53,"time":22.910416666666716,"velocity":0.5669291338582677,"duration":0.11458333333333215},{"name":"D#5","midi":75,"time":23.027083333333383,"velocity":0.6062992125984252,"duration":0.11874999999999858},{"name":"D#3","midi":51,"time":23.027083333333383,"velocity":0.5669291338582677,"duration":0.11874999999999858},{"name":"G#4","midi":68,"time":23.147916666666717,"velocity":0.6062992125984252,"duration":0.11666666666666714},{"name":"F3","midi":53,"time":23.147916666666717,"velocity":0.5669291338582677,"duration":0.2375000000000007},{"name":"D#5","midi":75,"time":23.26666666666672,"velocity":0.6062992125984252,"duration":0.11874999999999858},{"name":"D5","midi":74,"time":23.387500000000053,"velocity":0.6062992125984252,"duration":0.11666666666666714},{"name":"G#3","midi":56,"time":23.387500000000053,"velocity":0.5669291338582677,"duration":0.2375000000000007},{"name":"D#5","midi":75,"time":23.506250000000055,"velocity":0.6062992125984252,"duration":0.11874999999999858},{"name":"F4","midi":65,"time":23.62708333333339,"velocity":0.5669291338582677,"duration":0.11874999999999858},{"name":"D3","midi":50,"time":23.62708333333339,"velocity":0.5669291338582677,"duration":0.23958333333333215},{"name":"D#5","midi":75,"time":23.745833333333387,"velocity":0.6062992125984252,"duration":0.11874999999999858},{"name":"D5","midi":74,"time":23.86666666666672,"velocity":0.6062992125984252,"duration":0.11875000000000213},{"name":"F3","midi":53,"time":23.868750000000055,"velocity":0.5669291338582677,"duration":0.2375000000000007},{"name":"D#5","midi":75,"time":23.985416666666723,"velocity":0.6062992125984252,"duration":0.11874999999999858},{"name":"G4","midi":67,"time":24.106250000000056,"velocity":0.5669291338582677,"duration":0.11875000000000213},{"name":"A#2","midi":46,"time":24.10833333333339,"velocity":0.5275590551181102,"duration":0.2375000000000007},{"name":"D#5","midi":75,"time":24.22500000000006,"velocity":0.6062992125984252,"duration":0.12083333333333357},{"name":"D5","midi":74,"time":24.347916666666727,"velocity":0.6062992125984252,"duration":0.11875000000000213},{"name":"G3","midi":55,"time":24.347916666666727,"velocity":0.5669291338582677,"duration":0.11666666666666714},{"name":"D#5","midi":75,"time":24.46666666666673,"velocity":0.6062992125984252,"duration":0.11875000000000213},{"name":"F3","midi":53,"time":24.468750000000064,"velocity":0.5669291338582677,"duration":0.11666666666666714},{"name":"A#4","midi":70,"time":24.587500000000066,"velocity":0.6062992125984252,"duration":0.11666666666666714},{"name":"G3","midi":55,"time":24.587500000000066,"velocity":0.5669291338582677,"duration":0.2375000000000007},{"name":"D#5","midi":75,"time":24.706250000000068,"velocity":0.6062992125984252,"duration":0.11874999999999858},{"name":"D5","midi":74,"time":24.827083333333402,"velocity":0.6062992125984252,"duration":0.11874999999999858},{"name":"A#3","midi":58,"time":24.827083333333402,"velocity":0.5669291338582677,"duration":0.23958333333333215},{"name":"D#5","midi":75,"time":24.9458333333334,"velocity":0.6062992125984252,"duration":0.11874999999999858},{"name":"G4","midi":67,"time":25.066666666666734,"velocity":0.5669291338582677,"duration":0.11875000000000213},{"name":"D#3","midi":51,"time":25.06875000000007,"velocity":0.5669291338582677,"duration":0.2375000000000007},{"name":"D#5","midi":75,"time":25.185416666666736,"velocity":0.6062992125984252,"duration":0.11874999999999858},{"name":"D5","midi":74,"time":25.30625000000007,"velocity":0.6062992125984252,"duration":0.11875000000000213},{"name":"G3","midi":55,"time":25.308333333333405,"velocity":0.5669291338582677,"duration":0.2375000000000007},{"name":"D#5","midi":75,"time":25.42500000000007,"velocity":0.6062992125984252,"duration":0.12083333333333357},{"name":"G#4","midi":68,"time":25.54791666666674,"velocity":0.6062992125984252,"duration":0.11666666666666714},{"name":"C3","midi":48,"time":25.54791666666674,"velocity":0.5275590551181102,"duration":0.2375000000000007},{"name":"D#5","midi":75,"time":25.666666666666742,"velocity":0.6062992125984252,"duration":0.11874999999999858},{"name":"C#5","midi":73,"time":25.787500000000076,"velocity":0.6062992125984252,"duration":0.11874999999999858},{"name":"G#3","midi":56,"time":25.787500000000076,"velocity":0.5669291338582677,"duration":0.11874999999999858},{"name":"D#5","midi":75,"time":25.906250000000075,"velocity":0.6062992125984252,"duration":0.11875000000000213},{"name":"G3","midi":55,"time":25.90833333333341,"velocity":0.5669291338582677,"duration":0.11666666666666714},{"name":"C5","midi":72,"time":26.02708333333341,"velocity":0.6062992125984252,"duration":0.11874999999999858},{"name":"G#3","midi":56,"time":26.02708333333341,"velocity":0.5669291338582677,"duration":0.23958333333333215},{"name":"D#5","midi":75,"time":26.147916666666745,"velocity":0.6062992125984252,"duration":0.11874999999999858},{"name":"A#4","midi":70,"time":26.26875000000008,"velocity":0.6062992125984252,"duration":0.11666666666666714},{"name":"C4","midi":60,"time":26.26875000000008,"velocity":0.5669291338582677,"duration":0.2375000000000007},{"name":"D#5","midi":75,"time":26.385416666666746,"velocity":0.6062992125984252,"duration":0.12083333333333357},{"name":"G#4","midi":68,"time":26.508333333333415,"velocity":0.6062992125984252,"duration":0.11666666666666714},{"name":"F3","midi":53,"time":26.508333333333415,"velocity":0.5669291338582677,"duration":0.2395833333333357},{"name":"D#5","midi":75,"time":26.627083333333417,"velocity":0.6062992125984252,"duration":0.11874999999999858},{"name":"G4","midi":67,"time":26.74791666666675,"velocity":0.5669291338582677,"duration":0.11875000000000213},{"name":"G#3","midi":56,"time":26.750000000000085,"velocity":0.5669291338582677,"duration":0.2375000000000007},{"name":"D#5","midi":75,"time":26.866666666666752,"velocity":0.6062992125984252,"duration":0.11874999999999858},{"name":"F4","midi":65,"time":26.987500000000086,"velocity":0.5669291338582677,"duration":0.11875000000000213},{"name":"D3","midi":50,"time":26.98958333333342,"velocity":0.5669291338582677,"duration":0.2375000000000007},{"name":"D#5","midi":75,"time":27.106250000000088,"velocity":0.6062992125984252,"duration":0.11874999999999858},{"name":"G4","midi":67,"time":27.22708333333342,"velocity":0.5669291338582677,"duration":0.11875000000000213},{"name":"F3","midi":53,"time":27.229166666666757,"velocity":0.5669291338582677,"duration":0.23541666666666927},{"name":"D#5","midi":75,"time":27.34791666666676,"velocity":0.6062992125984252,"duration":0.11666666666666714},{"name":"G#4","midi":68,"time":27.46666666666676,"velocity":0.6062992125984252,"duration":0.11666666666666714},{"name":"A#2","midi":46,"time":27.46666666666676,"velocity":0.5275590551181102,"duration":0.23541666666666927},{"name":"D5","midi":74,"time":27.585416666666763,"velocity":0.6062992125984252,"duration":0.11666666666666714},{"name":"D#5","midi":75,"time":27.704166666666765,"velocity":0.6062992125984252,"duration":0.11874999999999858},{"name":"D3","midi":50,"time":27.704166666666765,"velocity":0.5669291338582677,"duration":0.2375000000000007},{"name":"F5","midi":77,"time":27.822916666666764,"velocity":0.5118110236220472,"duration":0.11666666666666714},{"name":"G4","midi":67,"time":27.941666666666766,"velocity":0.5669291338582677,"duration":0.11875000000000213},{"name":"D#3","midi":51,"time":27.9437500000001,"velocity":0.5669291338582677,"duration":0.2375000000000007},{"name":"A#4","midi":70,"time":28.060416666666768,"velocity":0.6062992125984252,"duration":0.11874999999999858},{"name":"G#4","midi":68,"time":28.1812500000001,"velocity":0.6062992125984252,"duration":0.11666666666666714},{"name":"C3","midi":48,"time":28.183333333333437,"velocity":0.5275590551181102,"duration":0.23541666666666572},{"name":"C5","midi":72,"time":28.300000000000104,"velocity":0.6062992125984252,"duration":0.11874999999999858},{"name":"A#4","midi":70,"time":28.420833333333437,"velocity":0.6062992125984252,"duration":0.11458333333333215},{"name":"G2","midi":43,"time":28.420833333333437,"velocity":0.5275590551181102,"duration":0.23333333333333428},{"name":"D#5","midi":75,"time":28.537500000000104,"velocity":0.6062992125984252,"duration":0.11666666666666714},{"name":"D5","midi":74,"time":28.656250000000107,"velocity":0.6062992125984252,"duration":0.11874999999999858},{"name":"F2","midi":41,"time":28.656250000000107,"velocity":0.5275590551181102,"duration":0.2375000000000007},{"name":"C5","midi":72,"time":28.775000000000105,"velocity":0.6062992125984252,"duration":0.11666666666666714},{"name":"A#4","midi":70,"time":28.893750000000107,"velocity":0.6062992125984252,"duration":0.11875000000000213},{"name":"G2","midi":43,"time":28.895833333333442,"velocity":0.5275590551181102,"duration":0.2375000000000007},{"name":"G#4","midi":68,"time":29.01250000000011,"velocity":0.6062992125984252,"duration":0.11874999999999858},{"name":"A#4","midi":70,"time":29.133333333333443,"velocity":0.6062992125984252,"duration":0.11875000000000213},{"name":"G#2","midi":44,"time":29.135416666666778,"velocity":0.5275590551181102,"duration":0.23541666666666572},{"name":"C5","midi":72,"time":29.252083333333445,"velocity":0.6062992125984252,"duration":0.11874999999999858},{"name":"D4","midi":62,"time":29.37291666666678,"velocity":0.5669291338582677,"duration":0.49166666666666714},{"name":"G4","midi":67,"time":29.37291666666678,"velocity":0.5669291338582677,"duration":0.03750000000000142},{"name":"A#2","midi":46,"time":29.375000000000114,"velocity":0.5275590551181102,"duration":0.5083333333333329},{"name":"F4","midi":65,"time":29.41041666666678,"velocity":0.5669291338582677,"duration":0.03958333333333286},{"name":"G4","midi":67,"time":29.450000000000113,"velocity":0.5669291338582677,"duration":0.05000000000000071},{"name":"F4","midi":65,"time":29.500000000000114,"velocity":0.5669291338582677,"duration":0.05208333333333215},{"name":"G4","midi":67,"time":29.552083333333446,"velocity":0.5669291338582677,"duration":0.04791666666666572},{"name":"F4","midi":65,"time":29.60000000000011,"velocity":0.5669291338582677,"duration":0.16250000000000142},{"name":"D#4","midi":63,"time":29.762500000000113,"velocity":0.5669291338582677,"duration":0.10208333333333286},{"name":"D#4","midi":63,"time":29.88541666666678,"velocity":0.5669291338582677,"duration":0.4895833333333286},{"name":"D#3","midi":51,"time":30.12916666666678,"velocity":0.5669291338582677,"duration":0.12291666666666501},{"name":"D3","midi":50,"time":30.252083333333445,"velocity":0.5669291338582677,"duration":0.12291666666666501},{"name":"A#4","midi":70,"time":30.37500000000011,"velocity":0.5354330708661418,"duration":0.4895833333333357},{"name":"D#5","midi":75,"time":30.377083333333445,"velocity":0.5354330708661418,"duration":0.4875000000000007},{"name":"D#3","midi":51,"time":30.377083333333445,"velocity":0.5669291338582677,"duration":0.24166666666666714},{"name":"G4","midi":67,"time":30.37916666666678,"velocity":0.5669291338582677,"duration":0.4854166666666657},{"name":"G3","midi":55,"time":30.618750000000112,"velocity":0.5669291338582677,"duration":0.24374999999999858},{"name":"A#2","midi":46,"time":30.86666666666678,"velocity":0.5275590551181102,"duration":0.23958333333333215},{"name":"A#4","midi":70,"time":31.106250000000113,"velocity":0.6062992125984252,"duration":0.24791666666667211},{"name":"D#3","midi":51,"time":31.108333333333448,"velocity":0.5669291338582677,"duration":0.24583333333333712},{"name":"G4","midi":67,"time":31.110416666666783,"velocity":0.5669291338582677,"duration":0.24166666666666714},{"name":"G#4","midi":68,"time":31.354166666666785,"velocity":0.6062992125984252,"duration":0.48958333333333925},{"name":"F4","midi":65,"time":31.35625000000012,"velocity":0.5669291338582677,"duration":0.48541666666666927},{"name":"F3","midi":53,"time":31.597916666666787,"velocity":0.5669291338582677,"duration":0.12083333333333357},{"name":"D#3","midi":51,"time":31.720833333333456,"velocity":0.5669291338582677,"duration":0.12083333333333357},{"name":"D5","midi":74,"time":31.843750000000124,"velocity":0.6062992125984252,"duration":0.4875000000000007},{"name":"F3","midi":53,"time":31.84583333333346,"velocity":0.5669291338582677,"duration":0.2395833333333357},{"name":"G#3","midi":56,"time":32.085416666666795,"velocity":0.5669291338582677,"duration":0.24583333333333002},{"name":"A#2","midi":46,"time":32.33333333333346,"velocity":0.5275590551181102,"duration":0.24374999999999858},{"name":"G#4","midi":68,"time":32.577083333333455,"velocity":0.5354330708661418,"duration":0.2499999999999929},{"name":"D5","midi":74,"time":32.57916666666679,"velocity":0.5354330708661418,"duration":0.24791666666666146},{"name":"F4","midi":65,"time":32.57916666666679,"velocity":0.5669291338582677,"duration":0.24583333333333002},{"name":"F3","midi":53,"time":32.58125000000012,"velocity":0.5669291338582677,"duration":0.24374999999999858},{"name":"D#5","midi":75,"time":32.82916666666678,"velocity":0.5354330708661418,"duration":0.2395833333333286},{"name":"A#4","midi":70,"time":32.82916666666678,"velocity":0.5354330708661418,"duration":0.24166666666666003},{"name":"G3","midi":55,"time":32.83125000000011,"velocity":0.5669291338582677,"duration":0.48124999999998863},{"name":"D#4","midi":63,"time":32.83125000000011,"velocity":0.5669291338582677,"duration":0.23749999999999716},{"name":"G4","midi":67,"time":32.83333333333344,"velocity":0.5669291338582677,"duration":0.23333333333333428},{"name":"D#4","midi":63,"time":33.07083333333344,"velocity":0.5669291338582677,"duration":0.11874999999999858},{"name":"D4","midi":62,"time":33.18958333333344,"velocity":0.5669291338582677,"duration":0.12083333333333002},{"name":"D#4","midi":63,"time":33.3125000000001,"velocity":0.5669291338582677,"duration":0.23749999999999716},{"name":"G4","midi":67,"time":33.55208333333343,"velocity":0.5669291338582677,"duration":0.2395833333333286},{"name":"D#3","midi":51,"time":33.55208333333343,"velocity":0.5669291338582677,"duration":0.11874999999999858},{"name":"F3","midi":53,"time":33.67291666666676,"velocity":0.5669291338582677,"duration":0.11874999999999858},{"name":"A#3","midi":58,"time":33.79375000000009,"velocity":0.5669291338582677,"duration":0.23541666666666572},{"name":"G3","midi":55,"time":33.79375000000009,"velocity":0.5669291338582677,"duration":0.1145833333333357},{"name":"F3","midi":53,"time":33.910416666666755,"velocity":0.5669291338582677,"duration":0.11874999999999858},{"name":"D#4","midi":63,"time":34.031250000000085,"velocity":0.5669291338582677,"duration":0.23749999999999716},{"name":"G3","midi":55,"time":34.031250000000085,"velocity":0.5669291338582677,"duration":0.11666666666666714},{"name":"D#3","midi":51,"time":34.14791666666675,"velocity":0.5669291338582677,"duration":0.11874999999999858},{"name":"A#3","midi":58,"time":34.26875000000008,"velocity":0.5669291338582677,"duration":0.24166666666666714},{"name":"F4","midi":65,"time":34.51250000000008,"velocity":0.5669291338582677,"duration":0.12083333333333002},{"name":"A#2","midi":46,"time":34.51250000000008,"velocity":0.5275590551181102,"duration":0.24374999999999147},{"name":"D#4","midi":63,"time":34.63333333333341,"velocity":0.5669291338582677,"duration":0.12083333333333002},{"name":"F4","midi":65,"time":34.75625000000007,"velocity":0.5669291338582677,"duration":0.24374999999999858},{"name":"G#4","midi":68,"time":35.00000000000007,"velocity":0.6062992125984252,"duration":0.24166666666666003},{"name":"A#2","midi":46,"time":35.00000000000007,"velocity":0.5275590551181102,"duration":0.11874999999999858},{"name":"C3","midi":48,"time":35.1208333333334,"velocity":0.5275590551181102,"duration":0.12083333333333002},{"name":"A#3","midi":58,"time":35.24375000000006,"velocity":0.5669291338582677,"duration":0.23749999999999716},{"name":"D3","midi":50,"time":35.24375000000006,"velocity":0.5669291338582677,"duration":0.11666666666666714},{"name":"C3","midi":48,"time":35.36250000000006,"velocity":0.5275590551181102,"duration":0.11874999999999858},{"name":"D3","midi":50,"time":35.48333333333339,"velocity":0.5669291338582677,"duration":0.11874999999999858},{"name":"F4","midi":65,"time":35.48333333333339,"velocity":0.5669291338582677,"duration":0.2395833333333286},{"name":"A#2","midi":46,"time":35.60208333333339,"velocity":0.5275590551181102,"duration":0.12083333333333002},{"name":"G4","midi":67,"time":35.72500000000005,"velocity":0.5669291338582677,"duration":0.23541666666666572},{"name":"D#3","midi":51,"time":35.72500000000005,"velocity":0.5669291338582677,"duration":0.23333333333333428},{"name":"A#4","midi":70,"time":35.96250000000005,"velocity":0.6062992125984252,"duration":0.1145833333333357},{"name":"D#2","midi":39,"time":35.96250000000005,"velocity":0.5275590551181102,"duration":0.23541666666666572},{"name":"G#4","midi":68,"time":36.077083333333384,"velocity":0.6062992125984252,"duration":0.11874999999999858},{"name":"A#4","midi":70,"time":36.197916666666714,"velocity":0.6062992125984252,"duration":0.23333333333333428},{"name":"D#5","midi":75,"time":36.43333333333338,"velocity":0.6062992125984252,"duration":0.23541666666666572},{"name":"C#4","midi":61,"time":36.43333333333338,"velocity":0.5669291338582677,"duration":0.11666666666666714},{"name":"C4","midi":60,"time":36.55000000000005,"velocity":0.5669291338582677,"duration":0.11874999999999858},{"name":"G4","midi":67,"time":36.67083333333338,"velocity":0.5669291338582677,"duration":0.23333333333333428},{"name":"A#3","midi":58,"time":36.67083333333338,"velocity":0.5669291338582677,"duration":0.1145833333333357},{"name":"C4","midi":60,"time":36.787500000000044,"velocity":0.5669291338582677,"duration":0.11666666666666714},{"name":"A#4","midi":70,"time":36.90625000000004,"velocity":0.6062992125984252,"duration":0.23541666666666572},{"name":"G#3","midi":56,"time":36.90625000000004,"velocity":0.5669291338582677,"duration":0.11666666666666714},{"name":"A#3","midi":58,"time":37.02291666666671,"velocity":0.5669291338582677,"duration":0.11666666666666714},{"name":"D#4","midi":63,"time":37.14166666666671,"velocity":0.5669291338582677,"duration":0.23541666666666572},{"name":"G3","midi":55,"time":37.14375000000004,"velocity":0.5669291338582677,"duration":0.1145833333333357},{"name":"G#3","midi":56,"time":37.258333333333375,"velocity":0.5669291338582677,"duration":0.11666666666666714},{"name":"G4","midi":67,"time":37.377083333333374,"velocity":0.5669291338582677,"duration":0.11666666666666003},{"name":"F3","midi":53,"time":37.379166666666706,"velocity":0.5669291338582677,"duration":0.11249999999999716},{"name":"F4","midi":65,"time":37.493750000000034,"velocity":0.5669291338582677,"duration":0.11666666666666714},{"name":"G3","midi":55,"time":37.495833333333366,"velocity":0.5669291338582677,"duration":0.1145833333333357},{"name":"G4","midi":67,"time":37.61250000000003,"velocity":0.5669291338582677,"duration":0.23333333333332718},{"name":"D#3","midi":51,"time":37.61250000000003,"velocity":0.5669291338582677,"duration":0.11249999999999716},{"name":"F3","midi":53,"time":37.72708333333336,"velocity":0.5669291338582677,"duration":0.11666666666666714},{"name":"A#4","midi":70,"time":37.84583333333336,"velocity":0.6062992125984252,"duration":0.23333333333333428},{"name":"C#3","midi":49,"time":37.84791666666669,"velocity":0.5669291338582677,"duration":0.1145833333333357},{"name":"D#3","midi":51,"time":37.96250000000003,"velocity":0.5669291338582677,"duration":0.1145833333333357},{"name":"D#4","midi":63,"time":38.079166666666694,"velocity":0.5669291338582677,"duration":0.23333333333333428},{"name":"C3","midi":48,"time":38.081250000000026,"velocity":0.5275590551181102,"duration":0.1145833333333357},{"name":"C#3","midi":49,"time":38.19791666666669,"velocity":0.5669291338582677,"duration":0.1145833333333357},{"name":"G4","midi":67,"time":38.31458333333336,"velocity":0.5669291338582677,"duration":0.23541666666666572},{"name":"A#2","midi":46,"time":38.31458333333336,"velocity":0.5275590551181102,"duration":0.1145833333333357},{"name":"C3","midi":48,"time":38.43125000000003,"velocity":0.5275590551181102,"duration":0.11666666666666714},{"name":"C4","midi":60,"time":38.550000000000026,"velocity":0.5669291338582677,"duration":0.2395833333333286},{"name":"G#2","midi":44,"time":38.550000000000026,"velocity":0.5275590551181102,"duration":0.23749999999999716},{"name":"D#4","midi":63,"time":38.789583333333354,"velocity":0.5669291338582677,"duration":0.11874999999999858},{"name":"D4","midi":62,"time":38.90833333333335,"velocity":0.5669291338582677,"duration":0.11874999999999858},{"name":"D#4","midi":63,"time":39.02916666666668,"velocity":0.5669291338582677,"duration":0.2395833333333357},{"name":"F#5","midi":78,"time":39.26875000000002,"velocity":0.5118110236220472,"duration":0.11874999999999858},{"name":"G#4","midi":68,"time":39.27083333333335,"velocity":0.6062992125984252,"duration":0.2395833333333286},{"name":"F5","midi":77,"time":39.38958333333335,"velocity":0.5118110236220472,"duration":0.11874999999999858},{"name":"D#5","midi":75,"time":39.51041666666668,"velocity":0.6062992125984252,"duration":0.11666666666666714},{"name":"C4","midi":60,"time":39.51250000000001,"velocity":0.5669291338582677,"duration":0.23749999999999716},{"name":"F5","midi":77,"time":39.62916666666668,"velocity":0.5118110236220472,"duration":0.11874999999999858},{"name":"C#5","midi":73,"time":39.75000000000001,"velocity":0.6062992125984252,"duration":0.11874999999999858},{"name":"D#4","midi":63,"time":39.75000000000001,"velocity":0.5669291338582677,"duration":0.2395833333333286},{"name":"D#5","midi":75,"time":39.868750000000006,"velocity":0.6062992125984252,"duration":0.11874999999999858},{"name":"C5","midi":72,"time":39.989583333333336,"velocity":0.6062992125984252,"duration":0.11874999999999858},{"name":"G#3","midi":56,"time":39.99166666666667,"velocity":0.5669291338582677,"duration":0.23749999999999716},{"name":"C#5","midi":73,"time":40.108333333333334,"velocity":0.6062992125984252,"duration":0.11874999999999858},{"name":"A#4","midi":70,"time":40.229166666666664,"velocity":0.6062992125984252,"duration":0.12083333333333002},{"name":"C4","midi":60,"time":40.231249999999996,"velocity":0.5669291338582677,"duration":0.11874999999999858},{"name":"C5","midi":72,"time":40.349999999999994,"velocity":0.6062992125984252,"duration":0.12083333333333002},{"name":"A#3","midi":58,"time":40.349999999999994,"velocity":0.5669291338582677,"duration":0.11874999999999858},{"name":"G#4","midi":68,"time":40.470833333333324,"velocity":0.6062992125984252,"duration":0.11666666666666714},{"name":"C4","midi":60,"time":40.470833333333324,"velocity":0.5669291338582677,"duration":0.23749999999999716},{"name":"A#4","midi":70,"time":40.58958333333332,"velocity":0.6062992125984252,"duration":0.11666666666666714},{"name":"F#4","midi":66,"time":40.70833333333332,"velocity":0.5669291338582677,"duration":0.11874999999999858},{"name":"D#4","midi":63,"time":40.70833333333332,"velocity":0.5669291338582677,"duration":0.23749999999999716},{"name":"G#4","midi":68,"time":40.82708333333332,"velocity":0.6062992125984252,"duration":0.11874999999999858},{"name":"F4","midi":65,"time":40.94583333333332,"velocity":0.5669291338582677,"duration":0.11874999999999858},{"name":"G#3","midi":56,"time":40.94791666666665,"velocity":0.5669291338582677,"duration":0.23541666666666572},{"name":"F#4","midi":66,"time":41.06666666666665,"velocity":0.5669291338582677,"duration":0.11666666666666714},{"name":"D#4","midi":63,"time":41.183333333333316,"velocity":0.5669291338582677,"duration":0.11874999999999858},{"name":"C4","midi":60,"time":41.18541666666665,"velocity":0.5669291338582677,"duration":0.23749999999999716},{"name":"F4","midi":65,"time":41.304166666666646,"velocity":0.5669291338582677,"duration":0.11666666666666714},{"name":"C#4","midi":61,"time":41.422916666666644,"velocity":0.5669291338582677,"duration":0.23749999999999716},{"name":"F3","midi":53,"time":41.424999999999976,"velocity":0.5669291338582677,"duration":0.5854166666666671},{"name":"C#5","midi":73,"time":41.66249999999997,"velocity":0.6062992125984252,"duration":0.1145833333333357},{"name":"C5","midi":72,"time":41.77708333333331,"velocity":0.6062992125984252,"duration":0.11874999999999858},{"name":"C#5","midi":73,"time":41.89583333333331,"velocity":0.6062992125984252,"duration":0.23125000000000284},{"name":"G#3","midi":56,"time":42.012499999999974,"velocity":0.5669291338582677,"duration":0.1145833333333357},{"name":"F5","midi":77,"time":42.12916666666664,"velocity":0.5118110236220472,"duration":0.2291666666666643},{"name":"A#3","midi":58,"time":42.12916666666664,"velocity":0.5669291338582677,"duration":0.11249999999999716},{"name":"C4","midi":60,"time":42.24166666666664,"velocity":0.5669291338582677,"duration":0.1145833333333357},{"name":"A#4","midi":70,"time":42.358333333333306,"velocity":0.6062992125984252,"duration":0.23124999999999574},{"name":"C#4","midi":61,"time":42.36041666666664,"velocity":0.5669291338582677,"duration":0.11249999999999716},{"name":"A#3","midi":58,"time":42.474999999999966,"velocity":0.5669291338582677,"duration":0.1145833333333357},{"name":"C#5","midi":73,"time":42.59166666666663,"velocity":0.6062992125984252,"duration":0.23124999999999574},{"name":"G3","midi":55,"time":42.59166666666663,"velocity":0.5669291338582677,"duration":0.11249999999999716},{"name":"A#3","midi":58,"time":42.70624999999996,"velocity":0.5669291338582677,"duration":0.1145833333333357},{"name":"G4","midi":67,"time":42.82291666666663,"velocity":0.5669291338582677,"duration":0.23124999999999574},{"name":"D#3","midi":51,"time":42.82499999999996,"velocity":0.5669291338582677,"duration":0.5729166666666572},{"name":"C5","midi":72,"time":43.056249999999956,"velocity":0.6062992125984252,"duration":0.11041666666666572},{"name":"A#4","midi":70,"time":43.16874999999995,"velocity":0.6062992125984252,"duration":0.11249999999999716},{"name":"C5","midi":72,"time":43.28124999999995,"velocity":0.6062992125984252,"duration":0.23124999999999574},{"name":"G3","midi":55,"time":43.39791666666662,"velocity":0.5669291338582677,"duration":0.11249999999999716},{"name":"D#5","midi":75,"time":43.512499999999946,"velocity":0.6062992125984252,"duration":0.2291666666666643},{"name":"G#3","midi":56,"time":43.51458333333328,"velocity":0.5669291338582677,"duration":0.11249999999999716},{"name":"A#3","midi":58,"time":43.627083333333275,"velocity":0.5669291338582677,"duration":0.1145833333333357},{"name":"G#4","midi":68,"time":43.74374999999994,"velocity":0.6062992125984252,"duration":0.23124999999999574},{"name":"C4","midi":60,"time":43.74374999999994,"velocity":0.5669291338582677,"duration":0.11249999999999716},{"name":"G#3","midi":56,"time":43.85833333333327,"velocity":0.5669291338582677,"duration":0.1145833333333357},{"name":"C5","midi":72,"time":43.97499999999994,"velocity":0.6062992125984252,"duration":0.2291666666666643},{"name":"F3","midi":53,"time":43.97499999999994,"velocity":0.5669291338582677,"duration":0.11249999999999716},{"name":"G#3","midi":56,"time":44.087499999999935,"velocity":0.5669291338582677,"duration":0.1145833333333357},{"name":"F4","midi":65,"time":44.2041666666666,"velocity":0.5669291338582677,"duration":0.2291666666666572},{"name":"C#3","midi":49,"time":44.20624999999993,"velocity":0.5669291338582677,"duration":0.11249999999999716},{"name":"D#3","midi":51,"time":44.32083333333326,"velocity":0.5669291338582677,"duration":0.11249999999999716},{"name":"A#4","midi":70,"time":44.43541666666659,"velocity":0.6062992125984252,"duration":0.11249999999999716},{"name":"C3","midi":48,"time":44.43541666666659,"velocity":0.5275590551181102,"duration":0.11249999999999716},{"name":"G#4","midi":68,"time":44.54999999999992,"velocity":0.6062992125984252,"duration":0.11249999999999716},{"name":"D#3","midi":51,"time":44.54999999999992,"velocity":0.5669291338582677,"duration":0.11041666666666572},{"name":"A#4","midi":70,"time":44.662499999999916,"velocity":0.6062992125984252,"duration":0.23333333333332718},{"name":"C#3","midi":49,"time":44.66458333333325,"velocity":0.5669291338582677,"duration":0.11249999999999716},{"name":"F3","midi":53,"time":44.777083333333245,"velocity":0.5669291338582677,"duration":0.11874999999999858},{"name":"C#5","midi":73,"time":44.897916666666575,"velocity":0.6062992125984252,"duration":0.23124999999999574},{"name":"G3","midi":55,"time":44.897916666666575,"velocity":0.5669291338582677,"duration":0.11249999999999716},{"name":"G#3","midi":56,"time":45.0124999999999,"velocity":0.5669291338582677,"duration":0.1145833333333357},{"name":"G4","midi":67,"time":45.12916666666657,"velocity":0.5669291338582677,"duration":0.23124999999999574},{"name":"A#3","midi":58,"time":45.12916666666657,"velocity":0.5669291338582677,"duration":0.11249999999999716},{"name":"G3","midi":55,"time":45.24166666666657,"velocity":0.5669291338582677,"duration":0.11874999999999858},{"name":"A#4","midi":70,"time":45.360416666666566,"velocity":0.6062992125984252,"duration":0.23333333333332718},{"name":"D#3","midi":51,"time":45.3624999999999,"velocity":0.5669291338582677,"duration":0.11249999999999716},{"name":"G3","midi":55,"time":45.477083333333226,"velocity":0.5669291338582677,"duration":0.1145833333333357},{"name":"D#4","midi":63,"time":45.59374999999989,"velocity":0.5669291338582677,"duration":0.2291666666666643},{"name":"C3","midi":48,"time":45.595833333333225,"velocity":0.5275590551181102,"duration":0.11041666666666572},{"name":"C#3","midi":49,"time":45.70833333333322,"velocity":0.5669291338582677,"duration":0.1145833333333357},{"name":"G#4","midi":68,"time":45.82499999999989,"velocity":0.6062992125984252,"duration":0.11249999999999716},{"name":"A#2","midi":46,"time":45.82499999999989,"velocity":0.5275590551181102,"duration":0.11041666666666572},{"name":"G4","midi":67,"time":45.937499999999886,"velocity":0.5669291338582677,"duration":0.11249999999999716},{"name":"C#3","midi":49,"time":45.93958333333322,"velocity":0.5669291338582677,"duration":0.11041666666666572},{"name":"G#4","midi":68,"time":46.052083333333215,"velocity":0.6062992125984252,"duration":0.2291666666666643},{"name":"C3","midi":48,"time":46.052083333333215,"velocity":0.5275590551181102,"duration":0.1145833333333357},{"name":"D#3","midi":51,"time":46.16666666666655,"velocity":0.5669291338582677,"duration":0.11249999999999716},{"name":"C5","midi":72,"time":46.28124999999988,"velocity":0.6062992125984252,"duration":0.23124999999999574},{"name":"F3","midi":53,"time":46.28333333333321,"velocity":0.5669291338582677,"duration":0.11249999999999716},{"name":"G3","midi":55,"time":46.39791666666654,"velocity":0.5669291338582677,"duration":0.1145833333333357},{"name":"F4","midi":65,"time":46.514583333333206,"velocity":0.5669291338582677,"duration":0.2291666666666572},{"name":"G#3","midi":56,"time":46.514583333333206,"velocity":0.5669291338582677,"duration":0.11249999999999716},{"name":"F3","midi":53,"time":46.629166666666535,"velocity":0.5669291338582677,"duration":0.11249999999999716},{"name":"G#4","midi":68,"time":46.743749999999864,"velocity":0.6062992125984252,"duration":0.23124999999999574},{"name":"C#3","midi":49,"time":46.745833333333195,"velocity":0.5669291338582677,"duration":0.11249999999999716},{"name":"F3","midi":53,"time":46.85833333333319,"velocity":0.5669291338582677,"duration":0.11666666666666714},{"name":"C#4","midi":61,"time":46.97499999999986,"velocity":0.5669291338582677,"duration":0.22708333333332575},{"name":"A#2","midi":46,"time":46.97708333333319,"velocity":0.5275590551181102,"duration":0.11041666666666572},{"name":"G#3","midi":56,"time":47.08958333333319,"velocity":0.5669291338582677,"duration":0.11249999999999716},{"name":"A#4","midi":70,"time":47.20416666666652,"velocity":0.6062992125984252,"duration":0.11249999999999716},{"name":"G3","midi":55,"time":47.20416666666652,"velocity":0.5669291338582677,"duration":0.11249999999999716},{"name":"G#4","midi":68,"time":47.318749999999845,"velocity":0.6062992125984252,"duration":0.11041666666666572},{"name":"G#3","midi":56,"time":47.318749999999845,"velocity":0.5669291338582677,"duration":0.10833333333333428},{"name":"A#4","midi":70,"time":47.42916666666651,"velocity":0.6062992125984252,"duration":0.2291666666666572},{"name":"C#3","midi":49,"time":47.43124999999984,"velocity":0.5669291338582677,"duration":0.11249999999999716},{"name":"G#3","midi":56,"time":47.54583333333317,"velocity":0.5669291338582677,"duration":0.11249999999999716},{"name":"C#5","midi":73,"time":47.6604166666665,"velocity":0.6062992125984252,"duration":0.2291666666666643},{"name":"G3","midi":55,"time":47.6604166666665,"velocity":0.5669291338582677,"duration":0.11249999999999716},{"name":"G#3","midi":56,"time":47.7729166666665,"velocity":0.5669291338582677,"duration":0.1145833333333357},{"name":"G4","midi":67,"time":47.889583333333164,"velocity":0.5669291338582677,"duration":0.2291666666666643},{"name":"A#2","midi":46,"time":47.891666666666495,"velocity":0.5275590551181102,"duration":0.11041666666666572},{"name":"G#3","midi":56,"time":48.00208333333316,"velocity":0.5669291338582677,"duration":0.11666666666666714},{"name":"A#4","midi":70,"time":48.12083333333316,"velocity":0.6062992125984252,"duration":0.2291666666666643},{"name":"G3","midi":55,"time":48.12083333333316,"velocity":0.5669291338582677,"duration":0.11249999999999716},{"name":"G#3","midi":56,"time":48.23541666666649,"velocity":0.5669291338582677,"duration":0.1145833333333357},{"name":"D#4","midi":63,"time":48.352083333333155,"velocity":0.5669291338582677,"duration":0.2291666666666643},{"name":"C3","midi":48,"time":48.352083333333155,"velocity":0.5275590551181102,"duration":0.11249999999999716},{"name":"G#3","midi":56,"time":48.46458333333315,"velocity":0.5669291338582677,"duration":0.1145833333333357},{"name":"C5","midi":72,"time":48.58124999999982,"velocity":0.6062992125984252,"duration":0.1145833333333286},{"name":"G3","midi":55,"time":48.58333333333315,"velocity":0.5669291338582677,"duration":0.11041666666666572},{"name":"A#4","midi":70,"time":48.69583333333315,"velocity":0.6062992125984252,"duration":0.11249999999999716},{"name":"G#3","midi":56,"time":48.69791666666648,"velocity":0.5669291338582677,"duration":0.11041666666666572},{"name":"C5","midi":72,"time":48.81041666666648,"velocity":0.6062992125984252,"duration":0.2291666666666643},{"name":"D#3","midi":51,"time":48.81041666666648,"velocity":0.5669291338582677,"duration":0.11249999999999716},{"name":"G#3","midi":56,"time":48.922916666666474,"velocity":0.5669291338582677,"duration":0.1145833333333357},{"name":"D#5","midi":75,"time":49.03958333333314,"velocity":0.6062992125984252,"duration":0.2291666666666643},{"name":"G3","midi":55,"time":49.04166666666647,"velocity":0.5669291338582677,"duration":0.11041666666666572},{"name":"G#3","midi":56,"time":49.15208333333314,"velocity":0.5669291338582677,"duration":0.11666666666666714},{"name":"G#4","midi":68,"time":49.27083333333314,"velocity":0.6062992125984252,"duration":0.2291666666666572},{"name":"C3","midi":48,"time":49.27083333333314,"velocity":0.5275590551181102,"duration":0.11249999999999716},{"name":"G#3","midi":56,"time":49.385416666666465,"velocity":0.5669291338582677,"duration":0.11249999999999716},{"name":"C5","midi":72,"time":49.499999999999794,"velocity":0.6062992125984252,"duration":0.2291666666666714},{"name":"G3","midi":55,"time":49.499999999999794,"velocity":0.5669291338582677,"duration":0.1145833333333357},{"name":"G#3","midi":56,"time":49.61458333333313,"velocity":0.5669291338582677,"duration":0.1145833333333357},{"name":"F4","midi":65,"time":49.7312499999998,"velocity":0.5669291338582677,"duration":0.23333333333333428},{"name":"C#3","midi":49,"time":49.7312499999998,"velocity":0.5669291338582677,"duration":0.1145833333333357},{"name":"G#3","midi":56,"time":49.847916666666464,"velocity":0.5669291338582677,"duration":0.11666666666666714},{"name":"C#5","midi":73,"time":49.96666666666646,"velocity":0.6062992125984252,"duration":0.11249999999999716},{"name":"F#3","midi":54,"time":49.96666666666646,"velocity":0.5669291338582677,"duration":0.11249999999999716},{"name":"C5","midi":72,"time":50.07916666666646,"velocity":0.6062992125984252,"duration":0.11666666666666003},{"name":"G#3","midi":56,"time":50.08124999999979,"velocity":0.5669291338582677,"duration":0.11249999999999716},{"name":"C#5","midi":73,"time":50.19583333333312,"velocity":0.6062992125984252,"duration":0.23333333333332718},{"name":"F3","midi":53,"time":50.19791666666645,"velocity":0.5669291338582677,"duration":0.11249999999999716},{"name":"G#3","midi":56,"time":50.31041666666645,"velocity":0.5669291338582677,"duration":0.11874999999999858},{"name":"F5","midi":77,"time":50.42916666666645,"velocity":0.5118110236220472,"duration":0.2354166666666586},{"name":"D#3","midi":51,"time":50.43124999999978,"velocity":0.5669291338582677,"duration":0.11249999999999716},{"name":"G#3","midi":56,"time":50.54583333333311,"velocity":0.5669291338582677,"duration":0.11666666666666714},{"name":"A#4","midi":70,"time":50.664583333333105,"velocity":0.6062992125984252,"duration":0.23333333333332718},{"name":"C#3","midi":49,"time":50.66666666666644,"velocity":0.5669291338582677,"duration":0.1145833333333286},{"name":"G#3","midi":56,"time":50.779166666666434,"velocity":0.5669291338582677,"duration":0.12083333333333002},{"name":"C#5","midi":73,"time":50.89791666666643,"velocity":0.6062992125984252,"duration":0.23749999999999716},{"name":"C3","midi":48,"time":50.89791666666643,"velocity":0.5275590551181102,"duration":0.1145833333333286},{"name":"G#3","midi":56,"time":51.01458333333309,"velocity":0.5669291338582677,"duration":0.11666666666666714},{"name":"G4","midi":67,"time":51.12916666666643,"velocity":0.5669291338582677,"duration":0.2395833333333357},{"name":"A#2","midi":46,"time":51.12916666666643,"velocity":0.5275590551181102,"duration":0.11666666666666714},{"name":"C#3","midi":49,"time":51.245833333333096,"velocity":0.5669291338582677,"duration":0.11874999999999858},{"name":"A#4","midi":70,"time":51.36041666666643,"velocity":0.6062992125984252,"duration":0.2395833333333357},{"name":"C3","midi":48,"time":51.36249999999976,"velocity":0.5275590551181102,"duration":0.1145833333333357},{"name":"D#3","midi":51,"time":51.4770833333331,"velocity":0.5669291338582677,"duration":0.11666666666666714},{"name":"D#4","midi":63,"time":51.593749999999766,"velocity":0.5669291338582677,"duration":0.23333333333333428},{"name":"C#3","midi":49,"time":51.5958333333331,"velocity":0.5669291338582677,"duration":0.1145833333333357},{"name":"F3","midi":53,"time":51.712499999999764,"velocity":0.5669291338582677,"duration":0.1145833333333357},{"name":"G4","midi":67,"time":51.82916666666643,"velocity":0.5669291338582677,"duration":0.2395833333333357},{"name":"D#3","midi":51,"time":51.82916666666643,"velocity":0.5669291338582677,"duration":0.1145833333333357},{"name":"C#3","midi":49,"time":51.94374999999977,"velocity":0.5669291338582677,"duration":0.11666666666666714},{"name":"G#4","midi":68,"time":52.062499999999766,"velocity":0.6062992125984252,"duration":0.5812500000000043},{"name":"C3","midi":48,"time":52.062499999999766,"velocity":0.5275590551181102,"duration":0.1145833333333357},{"name":"D#3","midi":51,"time":52.1770833333331,"velocity":0.5669291338582677,"duration":0.11874999999999858},{"name":"C#3","midi":49,"time":52.2958333333331,"velocity":0.5669291338582677,"duration":0.1145833333333357},{"name":"F3","midi":53,"time":52.41249999999977,"velocity":0.5669291338582677,"duration":0.1145833333333357},{"name":"D#3","midi":51,"time":52.5270833333331,"velocity":0.5669291338582677,"duration":0.2291666666666643},{"name":"G4","midi":67,"time":52.64374999999977,"velocity":0.5669291338582677,"duration":0.11041666666666572},{"name":"G#4","midi":68,"time":52.75624999999977,"velocity":0.6062992125984252,"duration":0.11666666666666003},{"name":"F3","midi":53,"time":52.7583333333331,"velocity":0.5669291338582677,"duration":0.11249999999999716},{"name":"A#4","midi":70,"time":52.87291666666643,"velocity":0.6062992125984252,"duration":0.09583333333333144},{"name":"C#3","midi":49,"time":52.87499999999976,"velocity":0.5669291338582677,"duration":0.1145833333333357},{"name":"C5","midi":72,"time":52.989583333333094,"velocity":0.6062992125984252,"duration":0.05833333333333002},{"name":"G4","midi":67,"time":52.991666666666426,"velocity":0.5669291338582677,"duration":1.0166666666666444},{"name":"D#3","midi":51,"time":52.991666666666426,"velocity":0.5669291338582677,"duration":0.3291666666666515},{"name":"A#4","midi":70,"time":53.047916666666424,"velocity":0.6062992125984252,"duration":0.05833333333333002},{"name":"C5","midi":72,"time":53.108333333333086,"velocity":0.6062992125984252,"duration":0.05833333333333002},{"name":"A#4","midi":70,"time":53.16874999999975,"velocity":0.6062992125984252,"duration":0.05833333333333002},{"name":"C5","midi":72,"time":53.22708333333308,"velocity":0.6062992125984252,"duration":0.05416666666666714},{"name":"A#4","midi":70,"time":53.281249999999744,"velocity":0.6062992125984252,"duration":0.5145833333333272},{"name":"C#3","midi":49,"time":53.32291666666641,"velocity":0.5669291338582677,"duration":0.23541666666666572},{"name":"D#3","midi":51,"time":53.560416666666406,"velocity":0.5669291338582677,"duration":0.23333333333333428},{"name":"G#4","midi":68,"time":53.79583333333307,"velocity":0.6062992125984252,"duration":0.21041666666666714},{"name":"D#2","midi":39,"time":53.79583333333307,"velocity":0.5275590551181102,"duration":0.23124999999999574},{"name":"G#4","midi":68,"time":54.02708333333307,"velocity":0.6062992125984252,"duration":0.4729166666666629},{"name":"G#2","midi":44,"time":54.0291666666664,"velocity":0.5275590551181102,"duration":0.47083333333333144},{"name":"D#5","midi":75,"time":54.26249999999973,"velocity":0.6062992125984252,"duration":0.11874999999999858},{"name":"C#5","midi":73,"time":54.38124999999973,"velocity":0.6062992125984252,"duration":0.11874999999999858},{"name":"D#5","midi":75,"time":54.50208333333306,"velocity":0.6062992125984252,"duration":0.23333333333333428},{"name":"G#3","midi":56,"time":54.50208333333306,"velocity":0.5669291338582677,"duration":0.46875},{"name":"C5","midi":72,"time":54.73749999999973,"velocity":0.6062992125984252,"duration":0.23333333333333428},{"name":"G4","midi":67,"time":54.97083333333306,"velocity":0.5669291338582677,"duration":0.23125000000000284},{"name":"A#4","midi":70,"time":55.202083333333064,"velocity":0.6062992125984252,"duration":0.19375000000000142},{"name":"A#4","midi":70,"time":55.43333333333307,"velocity":0.6062992125984252,"duration":0.0625},{"name":"G#4","midi":68,"time":55.4979166666664,"velocity":0.6062992125984252,"duration":0.05833333333333002},{"name":"A#4","midi":70,"time":55.55624999999973,"velocity":0.6062992125984252,"duration":0.06041666666666856},{"name":"G#4","midi":68,"time":55.61874999999973,"velocity":0.6062992125984252,"duration":0.05833333333333002},{"name":"A#4","midi":70,"time":55.67708333333306,"velocity":0.6062992125984252,"duration":0.0625},{"name":"G#4","midi":68,"time":55.73958333333306,"velocity":0.6062992125984252,"duration":0.2666666666666657},{"name":"F3","midi":53,"time":55.77916666666639,"velocity":0.5669291338582677,"duration":0.11249999999999716},{"name":"D#3","midi":51,"time":55.89166666666639,"velocity":0.5669291338582677,"duration":0.1145833333333357},{"name":"D#5","midi":75,"time":56.008333333333056,"velocity":0.6062992125984252,"duration":0.5625},{"name":"F3","midi":53,"time":56.008333333333056,"velocity":0.5669291338582677,"duration":0.22083333333333144},{"name":"G#3","midi":56,"time":56.23124999999972,"velocity":0.5669291338582677,"duration":0.22500000000000142},{"name":"C#3","midi":49,"time":56.45624999999972,"velocity":0.5669291338582677,"duration":0.22708333333333286},{"name":"F#4","midi":66,"time":56.570833333333056,"velocity":0.5669291338582677,"duration":0.11041666666666572},{"name":"F4","midi":65,"time":56.68333333333305,"velocity":0.5669291338582677,"duration":0.11249999999999716},{"name":"F3","midi":53,"time":56.685416666666384,"velocity":0.5669291338582677,"duration":0.22499999999999432},{"name":"D#4","midi":63,"time":56.79791666666638,"velocity":0.5669291338582677,"duration":0.11249999999999716},{"name":"C#4","midi":61,"time":56.91249999999971,"velocity":0.5669291338582677,"duration":0.22291666666666998},{"name":"A#2","midi":46,"time":56.91249999999971,"velocity":0.5275590551181102,"duration":0.4479166666666643},{"name":"C#5","midi":73,"time":57.13749999999971,"velocity":0.6062992125984252,"duration":0.11041666666666572},{"name":"C5","midi":72,"time":57.24999999999971,"velocity":0.6062992125984252,"duration":0.11041666666666572},{"name":"C#5","midi":73,"time":57.362499999999706,"velocity":0.6062992125984252,"duration":0.22291666666666998},{"name":"A#3","midi":58,"time":57.362499999999706,"velocity":0.5669291338582677,"duration":0.45000000000000284},{"name":"A#4","midi":70,"time":57.58749999999971,"velocity":0.6062992125984252,"duration":0.22500000000000142},{"name":"F4","midi":65,"time":57.81458333333304,"velocity":0.5669291338582677,"duration":0.22291666666666998},{"name":"G#4","midi":68,"time":58.03958333333304,"velocity":0.6062992125984252,"duration":0.22291666666666998},{"name":"G#4","midi":68,"time":58.26249999999971,"velocity":0.6062992125984252,"duration":0.05833333333333002},{"name":"G4","midi":67,"time":58.32083333333304,"velocity":0.5669291338582677,"duration":0.05416666666666714},{"name":"G#4","midi":68,"time":58.37708333333304,"velocity":0.6062992125984252,"duration":0.05624999999999858},{"name":"G4","midi":67,"time":58.43541666666637,"velocity":0.5669291338582677,"duration":0.05416666666666714},{"name":"G#4","midi":68,"time":58.49166666666637,"velocity":0.6062992125984252,"duration":0.0520833333333357},{"name":"G4","midi":67,"time":58.545833333333036,"velocity":0.5669291338582677,"duration":0.2604166666666643},{"name":"D#3","midi":51,"time":58.57916666666637,"velocity":0.5669291338582677,"duration":0.1145833333333357},{"name":"C#3","midi":49,"time":58.695833333333034,"velocity":0.5669291338582677,"duration":0.11041666666666572},{"name":"C#5","midi":73,"time":58.80833333333303,"velocity":0.6062992125984252,"duration":0.5625},{"name":"D#3","midi":51,"time":58.80833333333303,"velocity":0.5669291338582677,"duration":0.22291666666666998},{"name":"G3","midi":55,"time":59.03333333333303,"velocity":0.5669291338582677,"duration":0.22500000000000142},{"name":"C3","midi":48,"time":59.258333333333034,"velocity":0.5275590551181102,"duration":0.22708333333332575},{"name":"F4","midi":65,"time":59.37083333333303,"velocity":0.5669291338582677,"duration":0.11249999999999716},{"name":"D#4","midi":63,"time":59.48541666666636,"velocity":0.5669291338582677,"duration":0.11249999999999716},{"name":"D#3","midi":51,"time":59.48749999999969,"velocity":0.5669291338582677,"duration":0.22291666666666288},{"name":"C#4","midi":61,"time":59.59999999999969,"velocity":0.5669291338582677,"duration":0.11041666666666572},{"name":"C4","midi":60,"time":59.712499999999686,"velocity":0.5669291338582677,"duration":0.11249999999999716},{"name":"G#2","midi":44,"time":59.712499999999686,"velocity":0.5275590551181102,"duration":0.11249999999999716},{"name":"C5","midi":72,"time":59.82499999999968,"velocity":0.6062992125984252,"duration":0.1145833333333286},{"name":"G#3","midi":56,"time":59.827083333333015,"velocity":0.5669291338582677,"duration":0.11249999999999716},{"name":"A#4","midi":70,"time":59.93958333333301,"velocity":0.6062992125984252,"duration":0.1145833333333286},{"name":"G3","midi":55,"time":59.94166666666634,"velocity":0.5669291338582677,"duration":0.11041666666666572},{"name":"C5","midi":72,"time":60.05416666666634,"velocity":0.6062992125984252,"duration":0.1145833333333286},{"name":"G#3","midi":56,"time":60.05416666666634,"velocity":0.5669291338582677,"duration":0.11249999999999716},{"name":"G#4","midi":68,"time":60.16874999999967,"velocity":0.6062992125984252,"duration":0.11041666666666572},{"name":"F3","midi":53,"time":60.170833333333,"velocity":0.5669291338582677,"duration":0.10833333333333428},{"name":"C5","midi":72,"time":60.281249999999666,"velocity":0.6062992125984252,"duration":0.11249999999999716},{"name":"G#3","midi":56,"time":60.281249999999666,"velocity":0.5669291338582677,"duration":0.11249999999999716},{"name":"D#3","midi":51,"time":60.395833333332995,"velocity":0.5669291338582677,"duration":0.11041666666666572},{"name":"G4","midi":67,"time":60.395833333332995,"velocity":0.5669291338582677,"duration":0.11041666666666572},{"name":"C5","midi":72,"time":60.50833333333299,"velocity":0.6062992125984252,"duration":0.1145833333333286},{"name":"G#3","midi":56,"time":60.51041666666632,"velocity":0.5669291338582677,"duration":0.11041666666666572},{"name":"F4","midi":65,"time":60.62291666666632,"velocity":0.5669291338582677,"duration":0.11249999999999716},{"name":"C#3","midi":49,"time":60.62291666666632,"velocity":0.5669291338582677,"duration":0.11249999999999716},{"name":"C5","midi":72,"time":60.73541666666632,"velocity":0.6062992125984252,"duration":0.1145833333333286},{"name":"G#3","midi":56,"time":60.73749999999965,"velocity":0.5669291338582677,"duration":0.11249999999999716},{"name":"D#4","midi":63,"time":60.849999999999646,"velocity":0.5669291338582677,"duration":0.11249999999999716},{"name":"C3","midi":48,"time":60.85208333333298,"velocity":0.5275590551181102,"duration":0.10833333333333428},{"name":"C5","midi":72,"time":60.96249999999964,"velocity":0.6062992125984252,"duration":0.11249999999999716},{"name":"G#3","midi":56,"time":60.964583333332975,"velocity":0.5669291338582677,"duration":0.11041666666666572},{"name":"C#4","midi":61,"time":61.07708333333297,"velocity":0.5669291338582677,"duration":0.11249999999999716},{"name":"A#2","midi":46,"time":61.07708333333297,"velocity":0.5275590551181102,"duration":0.11249999999999716},{"name":"C#5","midi":73,"time":61.1916666666663,"velocity":0.6062992125984252,"duration":0.11249999999999716},{"name":"A#3","midi":58,"time":61.1916666666663,"velocity":0.5669291338582677,"duration":0.11041666666666572},{"name":"C5","midi":72,"time":61.3041666666663,"velocity":0.6062992125984252,"duration":0.1145833333333286},{"name":"G#3","midi":56,"time":61.30624999999963,"velocity":0.5669291338582677,"duration":0.11041666666666572},{"name":"C#5","midi":73,"time":61.418749999999626,"velocity":0.6062992125984252,"duration":0.11249999999999716},{"name":"A#3","midi":58,"time":61.42083333333296,"velocity":0.5669291338582677,"duration":0.11041666666666572},{"name":"A#4","midi":70,"time":61.533333333332955,"velocity":0.6062992125984252,"duration":0.11249999999999716},{"name":"G3","midi":55,"time":61.533333333332955,"velocity":0.5669291338582677,"duration":0.11249999999999716},{"name":"C#5","midi":73,"time":61.64791666666628,"velocity":0.6062992125984252,"duration":0.11249999999999716},{"name":"A#3","midi":58,"time":61.64791666666628,"velocity":0.5669291338582677,"duration":0.11041666666666572},{"name":"G#4","midi":68,"time":61.76041666666628,"velocity":0.6062992125984252,"duration":0.11249999999999716},{"name":"F3","midi":53,"time":61.76249999999961,"velocity":0.5669291338582677,"duration":0.10833333333333428},{"name":"C#5","midi":73,"time":61.87291666666628,"velocity":0.6062992125984252,"duration":0.11249999999999716},{"name":"A#3","midi":58,"time":61.87499999999961,"velocity":0.5669291338582677,"duration":0.11041666666666572},{"name":"D#3","midi":51,"time":61.987499999999606,"velocity":0.5669291338582677,"duration":0.11249999999999716},{"name":"G4","midi":67,"time":61.987499999999606,"velocity":0.5669291338582677,"duration":0.11249999999999716},{"name":"C#5","midi":73,"time":62.0999999999996,"velocity":0.6062992125984252,"duration":0.1145833333333286},{"name":"A#3","midi":58,"time":62.102083333332935,"velocity":0.5669291338582677,"duration":0.11041666666666572},{"name":"F4","midi":65,"time":62.21458333333293,"velocity":0.5669291338582677,"duration":0.11249999999999716},{"name":"C#3","midi":49,"time":62.21666666666626,"velocity":0.5669291338582677,"duration":0.11041666666666572},{"name":"C#5","midi":73,"time":62.32916666666626,"velocity":0.6062992125984252,"duration":0.11041666666666572},{"name":"A#3","midi":58,"time":62.32916666666626,"velocity":0.5669291338582677,"duration":0.11041666666666572},{"name":"D#4","midi":63,"time":62.44166666666626,"velocity":0.5669291338582677,"duration":0.22083333333333144},{"name":"C3","midi":48,"time":62.44166666666626,"velocity":0.5275590551181102,"duration":0.21875},{"name":"G#4","midi":68,"time":62.66249999999959,"velocity":0.6062992125984252,"duration":0.04583333333333428},{"name":"C4","midi":60,"time":62.66458333333292,"velocity":0.5669291338582677,"duration":0.2874999999999943},{"name":"A#4","midi":70,"time":62.710416666666255,"velocity":0.6062992125984252,"duration":0.0625},{"name":"G#4","midi":68,"time":62.77499999999959,"velocity":0.6062992125984252,"duration":0.0625},{"name":"G4","midi":67,"time":62.83749999999959,"velocity":0.5669291338582677,"duration":0.11249999999999716},{"name":"G#4","midi":68,"time":62.952083333332915,"velocity":0.6062992125984252,"duration":0.2291666666666643},{"name":"C5","midi":72,"time":63.18124999999958,"velocity":0.6062992125984252,"duration":0.22083333333333144},{"name":"F3","midi":53,"time":63.18333333333291,"velocity":0.5669291338582677,"duration":0.10833333333333428},{"name":"G3","midi":55,"time":63.291666666666245,"velocity":0.5669291338582677,"duration":0.10833333333333428},{"name":"F4","midi":65,"time":63.40208333333291,"velocity":0.5669291338582677,"duration":0.22291666666666288},{"name":"G#3","midi":56,"time":63.40416666666624,"velocity":0.5669291338582677,"duration":0.10833333333333428},{"name":"G3","midi":55,"time":63.51458333333291,"velocity":0.5669291338582677,"duration":0.10833333333333428},{"name":"G#4","midi":68,"time":63.624999999999574,"velocity":0.6062992125984252,"duration":0.21875},{"name":"G#3","midi":56,"time":63.624999999999574,"velocity":0.5669291338582677,"duration":0.10833333333333428},{"name":"F3","midi":53,"time":63.73333333333291,"velocity":0.5669291338582677,"duration":0.11041666666666572},{"name":"C#5","midi":73,"time":63.845833333332905,"velocity":0.6062992125984252,"duration":0.21666666666666856},{"name":"A#3","midi":58,"time":63.845833333332905,"velocity":0.5669291338582677,"duration":0.21458333333333712},{"name":"G4","midi":67,"time":64.06249999999957,"velocity":0.5669291338582677,"duration":0.06458333333333144},{"name":"A#2","midi":46,"time":64.0645833333329,"velocity":0.5275590551181102,"duration":0.28958333333332575},{"name":"G#4","midi":68,"time":64.1270833333329,"velocity":0.6062992125984252,"duration":0.06458333333333144},{"name":"G4","midi":67,"time":64.19166666666624,"velocity":0.5669291338582677,"duration":0.04999999999999716},{"name":"F4","midi":65,"time":64.24166666666623,"velocity":0.5669291338582677,"duration":0.11041666666666572},{"name":"G4","midi":67,"time":64.35416666666623,"velocity":0.5669291338582677,"duration":0.22083333333333144},{"name":"A#4","midi":70,"time":64.57499999999956,"velocity":0.6062992125984252,"duration":0.22291666666666288},{"name":"D#3","midi":51,"time":64.5770833333329,"velocity":0.5669291338582677,"duration":0.10833333333333428},{"name":"F3","midi":53,"time":64.68541666666623,"velocity":0.5669291338582677,"duration":0.11041666666666572},{"name":"D#4","midi":63,"time":64.79791666666623,"velocity":0.5669291338582677,"duration":0.22708333333332575},{"name":"G3","midi":55,"time":64.79791666666623,"velocity":0.5669291338582677,"duration":0.11249999999999716},{"name":"F3","midi":53,"time":64.91041666666622,"velocity":0.5669291338582677,"duration":0.1145833333333286},{"name":"G4","midi":67,"time":65.02499999999955,"velocity":0.5669291338582677,"duration":0.22499999999999432},{"name":"G3","midi":55,"time":65.02499999999955,"velocity":0.5669291338582677,"duration":0.11249999999999716},{"name":"D#3","midi":51,"time":65.13958333333288,"velocity":0.5669291338582677,"duration":0.11041666666666572},{"name":"C5","midi":72,"time":65.25208333333288,"velocity":0.6062992125984252,"duration":0.23333333333333428},{"name":"G#3","midi":56,"time":65.25208333333288,"velocity":0.5669291338582677,"duration":0.23125000000000284},{"name":"G#4","midi":68,"time":65.48541666666621,"velocity":0.6062992125984252,"duration":0.26249999999998863},{"name":"C#4","midi":61,"time":65.48749999999954,"velocity":0.5669291338582677,"duration":0.2562499999999943},{"name":"C#3","midi":49,"time":65.48749999999954,"velocity":0.5669291338582677,"duration":0.25833333333332575},{"name":"F4","midi":65,"time":65.48749999999954,"velocity":0.5669291338582677,"duration":0.25833333333332575},{"name":"G#4","midi":68,"time":65.7479166666662,"velocity":0.6062992125984252,"duration":0.57083333333334},{"name":"D#4","midi":63,"time":65.7479166666662,"velocity":0.5669291338582677,"duration":1.1520833333333371},{"name":"A#3","midi":58,"time":65.74999999999953,"velocity":0.5669291338582677,"duration":1.1729166666666657},{"name":"D#3","midi":51,"time":65.74999999999953,"velocity":0.5669291338582677,"duration":0.2750000000000057},{"name":"C#3","midi":49,"time":66.02499999999954,"velocity":0.5669291338582677,"duration":0.29375000000000284},{"name":"D#3","midi":51,"time":66.32083333333287,"velocity":0.5669291338582677,"duration":0.28333333333333144},{"name":"G4","midi":67,"time":66.32083333333287,"velocity":0.5669291338582677,"duration":0.5999999999999943},{"name":"D#2","midi":39,"time":66.6041666666662,"velocity":0.5275590551181102,"duration":0.3166666666666629},{"name":"G#4","midi":68,"time":66.9229166666662,"velocity":0.5118110236220472,"duration":2.566666666666663},{"name":"C4","midi":60,"time":66.92499999999953,"velocity":0.44881889763779526,"duration":2.5625},{"name":"D#4","midi":63,"time":66.92499999999953,"velocity":0.44881889763779526,"duration":2.5625},{"name":"G#2","midi":44,"time":66.92499999999953,"velocity":0.4330708661417323,"duration":2.5604166666666686},{"name":"G#3","midi":56,"time":70.56874999999954,"velocity":0.5669291338582677,"duration":0.2770833333333371},{"name":"D#4","midi":63,"time":70.84583333333288,"velocity":0.5669291338582677,"duration":0.27291666666666003},{"name":"C4","midi":60,"time":71.12083333333287,"velocity":0.5669291338582677,"duration":0.2750000000000057},{"name":"G#3","midi":56,"time":71.39583333333287,"velocity":0.5669291338582677,"duration":0.2750000000000057},{"name":"F4","midi":65,"time":71.67291666666621,"velocity":0.5669291338582677,"duration":0.27291666666666003},{"name":"C#4","midi":61,"time":71.94583333333287,"velocity":0.5669291338582677,"duration":0.2750000000000057},{"name":"D#4","midi":63,"time":72.22291666666621,"velocity":0.5669291338582677,"duration":0.6625000000000085},{"name":"D#3","midi":51,"time":72.74999999999955,"velocity":0.5669291338582677,"duration":0.26874999999999716},{"name":"C#4","midi":61,"time":72.88541666666622,"velocity":0.5669291338582677,"duration":0.13124999999999432},{"name":"G#3","midi":56,"time":73.01874999999954,"velocity":0.5669291338582677,"duration":0.26458333333332007},{"name":"C4","midi":60,"time":73.02083333333287,"velocity":0.5669291338582677,"duration":0.12916666666666288},{"name":"C#4","midi":61,"time":73.15208333333287,"velocity":0.5669291338582677,"duration":0.13124999999999432},{"name":"G3","midi":55,"time":73.2854166666662,"velocity":0.5669291338582677,"duration":0.26249999999998863},{"name":"D#4","midi":63,"time":73.2854166666662,"velocity":0.5669291338582677,"duration":0.12916666666666288},{"name":"F4","midi":65,"time":73.41666666666619,"velocity":0.5669291338582677,"duration":0.13124999999999432},{"name":"D#3","midi":51,"time":73.54999999999951,"velocity":0.5669291338582677,"duration":0.26249999999998863},{"name":"G4","midi":67,"time":73.54999999999951,"velocity":0.5669291338582677,"duration":0.12916666666666288},{"name":"D#4","midi":63,"time":73.67916666666618,"velocity":0.5669291338582677,"duration":0.13124999999999432},{"name":"G#4","midi":68,"time":73.8124999999995,"velocity":0.5826771653543307,"duration":0.12916666666666288},{"name":"C4","midi":60,"time":73.81458333333283,"velocity":0.5669291338582677,"duration":0.2604166666666572},{"name":"A#4","midi":70,"time":73.94166666666617,"velocity":0.5826771653543307,"duration":0.13124999999999432},{"name":"C5","midi":72,"time":74.07499999999949,"velocity":0.5826771653543307,"duration":0.12916666666666288},{"name":"G#3","midi":56,"time":74.07499999999949,"velocity":0.5669291338582677,"duration":0.26249999999998863},{"name":"A#4","midi":70,"time":74.20624999999949,"velocity":0.5826771653543307,"duration":0.13124999999999432},{"name":"G#4","midi":68,"time":74.33958333333281,"velocity":0.5826771653543307,"duration":0.125},{"name":"A#3","midi":58,"time":74.33958333333281,"velocity":0.5669291338582677,"duration":0.2541666666666629},{"name":"G4","midi":67,"time":74.46666666666614,"velocity":0.5669291338582677,"duration":0.12708333333333144},{"name":"D#3","midi":51,"time":74.5958333333328,"velocity":0.5669291338582677,"duration":0.2562499999999943},{"name":"F4","midi":65,"time":74.5958333333328,"velocity":0.5669291338582677,"duration":0.12708333333333144},{"name":"G#4","midi":68,"time":74.72291666666614,"velocity":0.5826771653543307,"duration":0.12916666666666288},{"name":"G4","midi":67,"time":74.85416666666613,"velocity":0.5669291338582677,"duration":1.0354166666666629},{"name":"A#3","midi":58,"time":74.85416666666613,"velocity":0.5669291338582677,"duration":0.2562499999999943},{"name":"G3","midi":55,"time":75.11041666666613,"velocity":0.5669291338582677,"duration":0.2604166666666714},{"name":"G#3","midi":56,"time":75.3708333333328,"velocity":0.5669291338582677,"duration":0.25833333333333997},{"name":"D#3","midi":51,"time":75.63124999999947,"velocity":0.5669291338582677,"duration":0.2562499999999943},{"name":"F4","midi":65,"time":75.8895833333328,"velocity":0.5669291338582677,"duration":0.6499999999999915},{"name":"G#3","midi":56,"time":75.89166666666613,"velocity":0.5669291338582677,"duration":0.2562499999999943},{"name":"F3","midi":53,"time":76.14999999999945,"velocity":0.5669291338582677,"duration":0.25833333333333997},{"name":"G3","midi":55,"time":76.40833333333279,"velocity":0.5669291338582677,"duration":0.6624999999999801},{"name":"D#4","midi":63,"time":76.54166666666612,"velocity":0.5669291338582677,"duration":0.13333333333333997},{"name":"D4","midi":62,"time":76.67499999999946,"velocity":0.5669291338582677,"duration":0.13124999999999432},{"name":"F4","midi":65,"time":76.80624999999945,"velocity":0.5669291338582677,"duration":0.13124999999999432},{"name":"D#4","midi":63,"time":76.93958333333278,"velocity":0.5669291338582677,"duration":0.783333333333303},{"name":"C3","midi":48,"time":77.07083333333277,"velocity":0.5275590551181102,"duration":0.13124999999999432},{"name":"C#3","midi":49,"time":77.20208333333277,"velocity":0.5669291338582677,"duration":0.12916666666666288},{"name":"D#3","midi":51,"time":77.33333333333276,"velocity":0.5669291338582677,"duration":0.13124999999999432},{"name":"F3","midi":53,"time":77.46458333333275,"velocity":0.5669291338582677,"duration":0.12916666666666288},{"name":"G3","midi":55,"time":77.59583333333275,"velocity":0.5669291338582677,"duration":0.12708333333333144},{"name":"G#3","midi":56,"time":77.72499999999941,"velocity":0.5669291338582677,"duration":0.125},{"name":"C#4","midi":61,"time":77.72499999999941,"velocity":0.5669291338582677,"duration":0.125},{"name":"F3","midi":53,"time":77.85208333333274,"velocity":0.5669291338582677,"duration":0.12708333333333144},{"name":"C4","midi":60,"time":77.85208333333274,"velocity":0.5669291338582677,"duration":0.125},{"name":"A#3","midi":58,"time":77.97916666666607,"velocity":0.5669291338582677,"duration":0.125},{"name":"C#4","midi":61,"time":77.9812499999994,"velocity":0.5669291338582677,"duration":0.12291666666666856},{"name":"C4","midi":60,"time":78.1062499999994,"velocity":0.5669291338582677,"duration":0.12708333333333144},{"name":"F4","midi":65,"time":78.1062499999994,"velocity":0.5669291338582677,"duration":0.125},{"name":"A#4","midi":70,"time":78.23333333333274,"velocity":0.6299212598425197,"duration":0.12916666666666288},{"name":"C#4","midi":61,"time":78.23541666666607,"velocity":0.5669291338582677,"duration":0.12708333333333144},{"name":"G#4","midi":68,"time":78.36458333333273,"velocity":0.6299212598425197,"duration":0.12708333333333144},{"name":"C4","midi":60,"time":78.36458333333273,"velocity":0.5669291338582677,"duration":0.125},{"name":"A#3","midi":58,"time":78.49166666666606,"velocity":0.5669291338582677,"duration":0.12916666666666288},{"name":"G4","midi":67,"time":78.4937499999994,"velocity":0.5669291338582677,"duration":0.12708333333333144},{"name":"G#3","midi":56,"time":78.62291666666606,"velocity":0.5669291338582677,"duration":0.12708333333333144},{"name":"F4","midi":65,"time":78.62291666666606,"velocity":0.5669291338582677,"duration":0.12708333333333144},{"name":"G3","midi":55,"time":78.75208333333272,"velocity":0.5669291338582677,"duration":0.12708333333333144},{"name":"D#4","midi":63,"time":78.75208333333272,"velocity":0.5669291338582677,"duration":0.125},{"name":"A#3","midi":58,"time":78.87916666666605,"velocity":0.5669291338582677,"duration":0.12916666666666288},{"name":"C#4","midi":61,"time":78.88124999999938,"velocity":0.5669291338582677,"duration":0.12708333333333144},{"name":"G#4","midi":68,"time":79.01041666666605,"velocity":0.6299212598425197,"duration":0.2562499999999943},{"name":"C4","midi":60,"time":79.01041666666605,"velocity":0.5669291338582677,"duration":0.12708333333333144},{"name":"G#3","midi":56,"time":79.01249999999938,"velocity":0.5669291338582677,"duration":0.6416666666666515},{"name":"A#3","midi":58,"time":79.13958333333271,"velocity":0.5669291338582677,"duration":0.12708333333333144},{"name":"D#5","midi":75,"time":79.26874999999937,"velocity":0.6299212598425197,"duration":0.25833333333332575},{"name":"C4","midi":60,"time":79.26874999999937,"velocity":0.5669291338582677,"duration":0.12916666666666288},{"name":"C#4","midi":61,"time":79.39791666666603,"velocity":0.5669291338582677,"duration":0.12916666666666288},{"name":"C5","midi":72,"time":79.5270833333327,"velocity":0.6299212598425197,"duration":0.25833333333332575},{"name":"D#4","midi":63,"time":79.52916666666603,"velocity":0.5669291338582677,"duration":0.5208333333333286},{"name":"G#2","midi":44,"time":79.65624999999936,"velocity":0.5275590551181102,"duration":0.12708333333333144},{"name":"G#4","midi":68,"time":79.78749999999935,"velocity":0.6299212598425197,"duration":0.2604166666666714},{"name":"A#2","midi":46,"time":79.78749999999935,"velocity":0.5275590551181102,"duration":0.12708333333333144},{"name":"C3","midi":48,"time":79.91458333333269,"velocity":0.5275590551181102,"duration":0.13333333333333997},{"name":"F5","midi":77,"time":80.04999999999936,"velocity":0.5354330708661418,"duration":0.25833333333332575},{"name":"G#3","midi":56,"time":80.04999999999936,"velocity":0.5669291338582677,"duration":0.5208333333333144},{"name":"C#3","midi":49,"time":80.04999999999936,"velocity":0.5669291338582677,"duration":0.12708333333333144},{"name":"D#3","midi":51,"time":80.17708333333269,"velocity":0.5669291338582677,"duration":0.12916666666666288},{"name":"C#5","midi":73,"time":80.30833333333268,"velocity":0.6299212598425197,"duration":0.26249999999998863},{"name":"F3","midi":53,"time":80.30833333333268,"velocity":0.5669291338582677,"duration":0.12916666666666288},{"name":"D#3","midi":51,"time":80.43749999999935,"velocity":0.5669291338582677,"duration":0.13124999999999432},{"name":"D#5","midi":75,"time":80.572916666666,"velocity":0.6299212598425197,"duration":1.5604166666666117},{"name":"G3","midi":55,"time":80.572916666666,"velocity":0.5669291338582677,"duration":0.5166666666666515},{"name":"C#3","midi":49,"time":80.572916666666,"velocity":0.5669291338582677,"duration":0.12708333333333144},{"name":"C3","midi":48,"time":80.69999999999933,"velocity":0.5275590551181102,"duration":0.12916666666666288},{"name":"A#2","midi":46,"time":80.829166666666,"velocity":0.5275590551181102,"duration":0.12916666666666288},{"name":"C#3","midi":49,"time":80.96041666666599,"velocity":0.5669291338582677,"duration":0.12916666666666288},{"name":"D#4","midi":63,"time":81.09166666666599,"velocity":0.5669291338582677,"duration":0.2604166666666572},{"name":"G#3","midi":56,"time":81.09166666666599,"velocity":0.5669291338582677,"duration":0.12916666666666288},{"name":"C3","midi":48,"time":81.09374999999932,"velocity":0.5275590551181102,"duration":0.38958333333332007},{"name":"A#3","midi":58,"time":81.22291666666598,"velocity":0.5669291338582677,"duration":0.12708333333333144},{"name":"G#4","midi":68,"time":81.35208333333264,"velocity":0.6299212598425197,"duration":0.26249999999998863},{"name":"C4","midi":60,"time":81.35416666666598,"velocity":0.5669291338582677,"duration":0.2604166666666572},{"name":"D3","midi":50,"time":81.48333333333264,"velocity":0.5669291338582677,"duration":0.12916666666666288},{"name":"D#3","midi":51,"time":81.61666666666596,"velocity":0.5669291338582677,"duration":0.12708333333333144},{"name":"G4","midi":67,"time":81.61666666666596,"velocity":0.5669291338582677,"duration":0.2562499999999943},{"name":"A#3","midi":58,"time":81.6187499999993,"velocity":0.5669291338582677,"duration":0.38333333333332575},{"name":"F3","midi":53,"time":81.7437499999993,"velocity":0.5669291338582677,"duration":0.12708333333333144},{"name":"G3","midi":55,"time":81.87291666666596,"velocity":0.5669291338582677,"duration":0.38749999999998863},{"name":"D#4","midi":63,"time":81.87499999999929,"velocity":0.5669291338582677,"duration":0.2562499999999943},{"name":"A#3","midi":58,"time":82.00416666666595,"velocity":0.5669291338582677,"duration":0.12708333333333144},{"name":"G#5","midi":80,"time":82.13333333333262,"velocity":0.5196850393700787,"duration":0.48124999999998863},{"name":"C5","midi":72,"time":82.13541666666595,"velocity":0.6299212598425197,"duration":0.25833333333332575},{"name":"G#3","midi":56,"time":82.13541666666595,"velocity":0.5669291338582677,"duration":0.2562499999999943},{"name":"G3","midi":55,"time":82.26249999999928,"velocity":0.5669291338582677,"duration":0.12916666666666288},{"name":"G#4","midi":68,"time":82.39374999999927,"velocity":0.6299212598425197,"duration":0.2562499999999943},{"name":"C4","midi":60,"time":82.3958333333326,"velocity":0.5669291338582677,"duration":0.2541666666666629},{"name":"F3","midi":53,"time":82.3958333333326,"velocity":0.5669291338582677,"duration":0.12291666666666856},{"name":"D#3","midi":51,"time":82.5208333333326,"velocity":0.5669291338582677,"duration":0.12916666666666288},{"name":"A#4","midi":70,"time":82.6520833333326,"velocity":0.6299212598425197,"duration":0.5062499999999943},{"name":"G#5","midi":80,"time":82.6520833333326,"velocity":0.5354330708661418,"duration":0.4791666666666572},{"name":"F3","midi":53,"time":82.65416666666593,"velocity":0.5669291338582677,"duration":0.25},{"name":"D3","midi":50,"time":82.65416666666593,"velocity":0.5669291338582677,"duration":0.12083333333333712},{"name":"A#2","midi":46,"time":82.77499999999927,"velocity":0.5275590551181102,"duration":0.12708333333333144},{"name":"C3","midi":48,"time":82.90416666666593,"velocity":0.5275590551181102,"duration":0.12708333333333144},{"name":"D3","midi":50,"time":83.03124999999926,"velocity":0.5669291338582677,"duration":0.125},{"name":"G5","midi":79,"time":83.15833333333259,"velocity":0.5354330708661418,"duration":0.4833333333333343},{"name":"D#3","midi":51,"time":83.16041666666592,"velocity":0.5669291338582677,"duration":0.7624999999999886},{"name":"D#4","midi":63,"time":83.28541666666592,"velocity":0.5669291338582677,"duration":0.125},{"name":"F4","midi":65,"time":83.41249999999926,"velocity":0.5669291338582677,"duration":0.12708333333333144},{"name":"G4","midi":67,"time":83.53958333333259,"velocity":0.5669291338582677,"duration":0.125},{"name":"F5","midi":77,"time":83.66666666666592,"velocity":0.5354330708661418,"duration":1.1541666666666544},{"name":"G#4","midi":68,"time":83.66666666666592,"velocity":0.6299212598425197,"duration":0.12708333333333144},{"name":"A#4","midi":70,"time":83.79583333333258,"velocity":0.6299212598425197,"duration":0.13750000000000284},{"name":"C5","midi":72,"time":83.92291666666591,"velocity":0.6299212598425197,"duration":0.13958333333333428},{"name":"G#3","midi":56,"time":83.92499999999924,"velocity":0.5669291338582677,"duration":0.2541666666666629},{"name":"A#4","midi":70,"time":84.04999999999924,"velocity":0.6299212598425197,"duration":0.13958333333333428},{"name":"G#4","midi":68,"time":84.1791666666659,"velocity":0.6299212598425197,"duration":0.13958333333333428},{"name":"C#3","midi":49,"time":84.18124999999924,"velocity":0.5669291338582677,"duration":0.2541666666666629},{"name":"G4","midi":67,"time":84.30624999999924,"velocity":0.5669291338582677,"duration":0.12708333333333144},{"name":"F4","midi":65,"time":84.4354166666659,"velocity":0.5669291338582677,"duration":0.125},{"name":"A#3","midi":58,"time":84.4354166666659,"velocity":0.5669291338582677,"duration":0.2562499999999943},{"name":"G#4","midi":68,"time":84.56249999999923,"velocity":0.6299212598425197,"duration":0.13958333333333428},{"name":"G4","midi":67,"time":84.6916666666659,"velocity":0.5669291338582677,"duration":1.0145833333333343},{"name":"D#3","midi":51,"time":84.69374999999923,"velocity":0.5669291338582677,"duration":0.6125000000000114},{"name":"A#4","midi":70,"time":84.82083333333257,"velocity":0.6299212598425197,"duration":0.13958333333333428},{"name":"C5","midi":72,"time":84.94999999999924,"velocity":0.6299212598425197,"duration":0.125},{"name":"D5","midi":74,"time":85.07708333333257,"velocity":0.6299212598425197,"duration":0.125},{"name":"D#5","midi":75,"time":85.20208333333257,"velocity":0.6299212598425197,"duration":0.7562499999999943},{"name":"D#3","midi":51,"time":85.32708333333257,"velocity":0.5669291338582677,"duration":0.12708333333333144},{"name":"F3","midi":53,"time":85.4541666666659,"velocity":0.5669291338582677,"duration":0.125},{"name":"G3","midi":55,"time":85.58124999999923,"velocity":0.5669291338582677,"duration":0.125},{"name":"F4","midi":65,"time":85.70833333333256,"velocity":0.5669291338582677,"duration":1.0083333333333258},{"name":"G#3","midi":56,"time":85.70833333333256,"velocity":0.5669291338582677,"duration":0.12291666666666856},{"name":"A#3","midi":58,"time":85.83333333333256,"velocity":0.5669291338582677,"duration":0.125},{"name":"G#5","midi":80,"time":85.96041666666589,"velocity":0.5354330708661418,"duration":0.25},{"name":"C4","midi":60,"time":85.96041666666589,"velocity":0.5669291338582677,"duration":0.12291666666666856},{"name":"A#3","midi":58,"time":86.08541666666589,"velocity":0.5669291338582677,"duration":0.125},{"name":"C#5","midi":73,"time":86.21249999999922,"velocity":0.6299212598425197,"duration":0.25},{"name":"G#3","midi":56,"time":86.21249999999922,"velocity":0.5669291338582677,"duration":0.12291666666666856},{"name":"G3","midi":55,"time":86.33749999999922,"velocity":0.5669291338582677,"duration":0.125},{"name":"A#5","midi":82,"time":86.46458333333256,"velocity":0.5354330708661418,"duration":0.25},{"name":"F3","midi":53,"time":86.46458333333256,"velocity":0.5669291338582677,"duration":0.12291666666666856},{"name":"G#3","midi":56,"time":86.58958333333256,"velocity":0.5669291338582677,"duration":0.125},{"name":"C#5","midi":73,"time":86.71666666666589,"velocity":0.6299212598425197,"duration":0.5083333333333258},{"name":"G3","midi":55,"time":86.71874999999922,"velocity":0.5669291338582677,"duration":0.25},{"name":"D#4","midi":63,"time":86.84166666666589,"velocity":0.5669291338582677,"duration":0.12708333333333144},{"name":"F4","midi":65,"time":86.97083333333255,"velocity":0.5669291338582677,"duration":0.125},{"name":"D#3","midi":51,"time":86.97083333333255,"velocity":0.5669291338582677,"duration":0.25208333333333144},{"name":"G4","midi":67,"time":87.09791666666588,"velocity":0.5669291338582677,"duration":0.125},{"name":"G#4","midi":68,"time":87.22499999999921,"velocity":0.6299212598425197,"duration":1.0166666666666515},{"name":"C5","midi":72,"time":87.22499999999921,"velocity":0.6299212598425197,"duration":0.5083333333333258},{"name":"G#2","midi":44,"time":87.34999999999921,"velocity":0.5275590551181102,"duration":0.12708333333333144},{"name":"A#2","midi":46,"time":87.47916666666588,"velocity":0.5275590551181102,"duration":0.125},{"name":"C3","midi":48,"time":87.60416666666588,"velocity":0.5275590551181102,"duration":0.12708333333333144},{"name":"A#4","midi":70,"time":87.73333333333254,"velocity":0.6299212598425197,"duration":0.9749999999999801},{"name":"C#3","midi":49,"time":87.73541666666587,"velocity":0.5669291338582677,"duration":0.125},{"name":"D#3","midi":51,"time":87.8624999999992,"velocity":0.5669291338582677,"duration":0.12291666666666856},{"name":"F3","midi":53,"time":87.9874999999992,"velocity":0.5669291338582677,"duration":0.12708333333333144},{"name":"D#3","midi":51,"time":88.11458333333253,"velocity":0.5669291338582677,"duration":0.125},{"name":"C#3","midi":49,"time":88.24166666666586,"velocity":0.5669291338582677,"duration":0.12708333333333144},{"name":"G4","midi":67,"time":88.2437499999992,"velocity":0.5669291338582677,"duration":0.5062499999999943},{"name":"C3","midi":48,"time":88.3687499999992,"velocity":0.5275590551181102,"duration":0.12708333333333144},{"name":"A#2","midi":46,"time":88.49791666666586,"velocity":0.5275590551181102,"duration":0.125},{"name":"C#3","midi":49,"time":88.62291666666586,"velocity":0.5669291338582677,"duration":0.12708333333333144},{"name":"G#4","midi":68,"time":88.75208333333252,"velocity":0.6299212598425197,"duration":1.135416666666643},{"name":"C3","midi":48,"time":88.75208333333252,"velocity":0.5275590551181102,"duration":0.643749999999983},{"name":"G4","midi":67,"time":89.00624999999918,"velocity":0.5669291338582677,"duration":0.13124999999999432},{"name":"F4","midi":65,"time":89.13749999999918,"velocity":0.5669291338582677,"duration":0.12916666666666288},{"name":"G#3","midi":56,"time":89.26666666666584,"velocity":0.5669291338582677,"duration":0.25833333333332575},{"name":"D#4","midi":63,"time":89.26874999999917,"velocity":0.5669291338582677,"duration":0.12708333333333144},{"name":"C#3","midi":49,"time":89.3958333333325,"velocity":0.5669291338582677,"duration":0.12916666666666288},{"name":"C#4","midi":61,"time":89.39791666666584,"velocity":0.5669291338582677,"duration":0.125},{"name":"D#3","midi":51,"time":89.52499999999917,"velocity":0.5669291338582677,"duration":0.12708333333333144},{"name":"C4","midi":60,"time":89.52499999999917,"velocity":0.5669291338582677,"duration":0.125},{"name":"D#4","midi":63,"time":89.5270833333325,"velocity":0.5669291338582677,"duration":0.2562499999999943},{"name":"C#4","midi":61,"time":89.6520833333325,"velocity":0.5669291338582677,"duration":0.12916666666666288},{"name":"C3","midi":48,"time":89.6520833333325,"velocity":0.5275590551181102,"duration":0.12916666666666288},{"name":"D#4","midi":63,"time":89.7833333333325,"velocity":0.5669291338582677,"duration":0.2562499999999943},{"name":"F3","midi":53,"time":89.7833333333325,"velocity":0.5669291338582677,"duration":0.643749999999983},{"name":"C4","midi":60,"time":89.78541666666582,"velocity":0.5669291338582677,"duration":0.25208333333333144},{"name":"G#4","midi":68,"time":89.9083333333325,"velocity":0.6299212598425197,"duration":0.12916666666666288},{"name":"A#4","midi":70,"time":90.03958333333249,"velocity":0.6299212598425197,"duration":0.12708333333333144},{"name":"G#3","midi":56,"time":90.04166666666582,"velocity":0.5669291338582677,"duration":0.2562499999999943},{"name":"C5","midi":72,"time":90.16874999999915,"velocity":0.6299212598425197,"duration":0.12916666666666288},{"name":"C#5","midi":73,"time":90.29999999999914,"velocity":0.6299212598425197,"duration":0.6541666666666401},{"name":"F4","midi":65,"time":90.29999999999914,"velocity":0.5669291338582677,"duration":0.2604166666666572},{"name":"D#3","midi":51,"time":90.42708333333248,"velocity":0.5669291338582677,"duration":0.13124999999999432},{"name":"F3","midi":53,"time":90.5604166666658,"velocity":0.5669291338582677,"duration":0.13124999999999432},{"name":"G#3","midi":56,"time":90.56249999999913,"velocity":0.5669291338582677,"duration":0.2604166666666572},{"name":"C#4","midi":61,"time":90.56249999999913,"velocity":0.5669291338582677,"duration":0.2604166666666572},{"name":"C#3","midi":49,"time":90.6916666666658,"velocity":0.5669291338582677,"duration":0.12916666666666288},{"name":"G#4","midi":68,"time":90.82499999999912,"velocity":0.6299212598425197,"duration":0.2604166666666572},{"name":"D#4","midi":63,"time":90.82499999999912,"velocity":0.5669291338582677,"duration":0.5229166666666458},{"name":"G#3","midi":56,"time":90.82499999999912,"velocity":0.5669291338582677,"duration":0.12708333333333144},{"name":"A#4","midi":70,"time":90.95416666666578,"velocity":0.6299212598425197,"duration":0.12916666666666288},{"name":"G3","midi":55,"time":90.95624999999912,"velocity":0.5669291338582677,"duration":0.12708333333333144},{"name":"C5","midi":72,"time":91.08541666666578,"velocity":0.6299212598425197,"duration":0.13124999999999432},{"name":"G#3","midi":56,"time":91.08749999999911,"velocity":0.5669291338582677,"duration":0.12708333333333144},{"name":"D#5","midi":75,"time":91.21666666666577,"velocity":0.6299212598425197,"duration":0.12916666666666288},{"name":"A#3","midi":58,"time":91.2187499999991,"velocity":0.5669291338582677,"duration":0.12708333333333144},{"name":"G#5","midi":80,"time":91.34791666666577,"velocity":0.5354330708661418,"duration":0.12916666666666288},{"name":"D#4","midi":63,"time":91.3499999999991,"velocity":0.5669291338582677,"duration":1.0520833333333286},{"name":"C4","midi":60,"time":91.3499999999991,"velocity":0.5669291338582677,"duration":0.2666666666666657},{"name":"G5","midi":79,"time":91.47708333333243,"velocity":0.5354330708661418,"duration":0.12916666666666288},{"name":"G#5","midi":80,"time":91.60833333333242,"velocity":0.5354330708661418,"duration":0.13125000000000853},{"name":"G3","midi":55,"time":91.60833333333242,"velocity":0.5669291338582677,"duration":0.26666666666667993},{"name":"A#5","midi":82,"time":91.73958333333243,"velocity":0.5354330708661418,"duration":0.13333333333333997},{"name":"C6","midi":84,"time":91.8749999999991,"velocity":0.5354330708661418,"duration":0.12916666666666288},{"name":"G#3","midi":56,"time":91.8749999999991,"velocity":0.5669291338582677,"duration":0.27291666666666003},{"name":"A#5","midi":82,"time":92.0062499999991,"velocity":0.5354330708661418,"duration":0.13124999999999432},{"name":"G#5","midi":80,"time":92.1374999999991,"velocity":0.5354330708661418,"duration":0.13125000000000853},{"name":"F3","midi":53,"time":92.13958333333242,"velocity":0.5669291338582677,"duration":0.26874999999999716},{"name":"G5","midi":79,"time":92.27083333333243,"velocity":0.5354330708661418,"duration":0.12916666666666288},{"name":"F5","midi":77,"time":92.40208333333243,"velocity":0.5354330708661418,"duration":0.13124999999999432},{"name":"C#4","midi":61,"time":92.40416666666576,"velocity":0.5669291338582677,"duration":1.0458333333333059},{"name":"A#3","midi":58,"time":92.40416666666576,"velocity":0.5669291338582677,"duration":0.26874999999999716},{"name":"G5","midi":79,"time":92.53333333333242,"velocity":0.5354330708661418,"duration":0.12916666666666288},{"name":"G#5","midi":80,"time":92.66458333333242,"velocity":0.5354330708661418,"duration":0.1291666666666771},{"name":"F3","midi":53,"time":92.66458333333242,"velocity":0.5669291338582677,"duration":0.2604166666666714},{"name":"C6","midi":84,"time":92.7937499999991,"velocity":0.5354330708661418,"duration":0.13124999999999432},{"name":"A#5","midi":82,"time":92.92708333333242,"velocity":0.5354330708661418,"duration":0.12708333333333144},{"name":"G3","midi":55,"time":92.92708333333242,"velocity":0.5669291338582677,"duration":0.2666666666666515},{"name":"G#5","midi":80,"time":93.05624999999908,"velocity":0.5354330708661418,"duration":0.12916666666666288},{"name":"G5","midi":79,"time":93.18541666666574,"velocity":0.5354330708661418,"duration":0.13124999999999432},{"name":"D#3","midi":51,"time":93.18749999999908,"velocity":0.5669291338582677,"duration":0.26874999999998295},{"name":"F5","midi":77,"time":93.31874999999907,"velocity":0.5354330708661418,"duration":0.13124999999999432},{"name":"D#5","midi":75,"time":93.44999999999906,"velocity":0.6299212598425197,"duration":0.12916666666666288},{"name":"C4","midi":60,"time":93.4520833333324,"velocity":0.5669291338582677,"duration":1.0479166666666373},{"name":"G#3","midi":56,"time":93.4520833333324,"velocity":0.5669291338582677,"duration":0.26874999999999716},{"name":"F5","midi":77,"time":93.57916666666573,"velocity":0.5354330708661418,"duration":0.13124999999999432},{"name":"G5","midi":79,"time":93.71249999999905,"velocity":0.5354330708661418,"duration":0.13125000000000853},{"name":"D#3","midi":51,"time":93.71249999999905,"velocity":0.5669291338582677,"duration":0.2645833333333343},{"name":"A#5","midi":82,"time":93.84374999999906,"velocity":0.5354330708661418,"duration":0.13124999999999432},{"name":"G#5","midi":80,"time":93.97708333333239,"velocity":0.5354330708661418,"duration":0.13124999999999432},{"name":"F3","midi":53,"time":93.97708333333239,"velocity":0.5669291338582677,"duration":0.26249999999998863},{"name":"G5","midi":79,"time":94.10833333333238,"velocity":0.5354330708661418,"duration":0.12916666666666288},{"name":"F5","midi":77,"time":94.23958333333238,"velocity":0.5354330708661418,"duration":0.12708333333333144},{"name":"D3","midi":50,"time":94.23958333333238,"velocity":0.5669291338582677,"duration":0.26458333333332007},{"name":"D#5","midi":75,"time":94.36874999999904,"velocity":0.6299212598425197,"duration":0.12916666666666288},{"name":"D5","midi":74,"time":94.49999999999903,"velocity":0.6299212598425197,"duration":0.12708333333333144},{"name":"G3","midi":55,"time":94.49999999999903,"velocity":0.5669291338582677,"duration":0.2645833333333343},{"name":"A#3","midi":58,"time":94.50208333333237,"velocity":0.5669291338582677,"duration":1.0395833333333258},{"name":"D#5","midi":75,"time":94.62708333333237,"velocity":0.6299212598425197,"duration":0.12916666666666288},{"name":"F5","midi":77,"time":94.75624999999903,"velocity":0.5354330708661418,"duration":0.1291666666666771},{"name":"D3","midi":50,"time":94.75624999999903,"velocity":0.5669291338582677,"duration":0.2604166666666714},{"name":"G#5","midi":80,"time":94.88749999999904,"velocity":0.5354330708661418,"duration":0.12916666666666288},{"name":"G5","midi":79,"time":95.01874999999903,"velocity":0.5354330708661418,"duration":0.12916666666666288},{"name":"E3","midi":52,"time":95.01874999999903,"velocity":0.5669291338582677,"duration":0.26874999999999716},{"name":"F5","midi":77,"time":95.14999999999903,"velocity":0.5354330708661418,"duration":0.12708333333333144},{"name":"E5","midi":76,"time":95.27916666666569,"velocity":0.6299212598425197,"duration":0.13125000000000853},{"name":"C3","midi":48,"time":95.27916666666569,"velocity":0.5275590551181102,"duration":0.26250000000000284},{"name":"G5","midi":79,"time":95.4104166666657,"velocity":0.5354330708661418,"duration":0.12916666666666288},{"name":"F5","midi":77,"time":95.54374999999902,"velocity":0.5354330708661418,"duration":0.12708333333333144},{"name":"F4","midi":65,"time":95.54374999999902,"velocity":0.5669291338582677,"duration":0.25833333333332575},{"name":"G#3","midi":56,"time":95.54583333333235,"velocity":0.5669291338582677,"duration":0.2562499999999943},{"name":"D3","midi":50,"time":95.54583333333235,"velocity":0.5669291338582677,"duration":0.2541666666666629},{"name":"E5","midi":76,"time":95.67083333333235,"velocity":0.6299212598425197,"duration":0.12916666666666288},{"name":"C5","midi":72,"time":95.80416666666568,"velocity":0.6299212598425197,"duration":0.26249999999998863},{"name":"F5","midi":77,"time":95.80416666666568,"velocity":0.5354330708661418,"duration":0.12708333333333144},{"name":"E3","midi":52,"time":95.80624999999901,"velocity":0.5669291338582677,"duration":0.25833333333332575},{"name":"G3","midi":55,"time":95.80624999999901,"velocity":0.5669291338582677,"duration":0.38958333333332007},{"name":"G5","midi":79,"time":95.93333333333234,"velocity":0.5354330708661418,"duration":0.13124999999999432},{"name":"C5","midi":72,"time":96.06666666666567,"velocity":0.6299212598425197,"duration":0.26249999999998863},{"name":"G#4","midi":68,"time":96.068749999999,"velocity":0.6299212598425197,"duration":0.2604166666666572},{"name":"F3","midi":53,"time":96.068749999999,"velocity":0.5669291338582677,"duration":0.5270833333333087},{"name":"A#3","midi":58,"time":96.19791666666566,"velocity":0.5669291338582677,"duration":0.12916666666666288},{"name":"F5","midi":77,"time":96.33124999999899,"velocity":0.5354330708661418,"duration":0.5312499999999858},{"name":"F4","midi":65,"time":96.33124999999899,"velocity":0.5669291338582677,"duration":0.26458333333332007},{"name":"G#3","midi":56,"time":96.33333333333232,"velocity":0.5669291338582677,"duration":0.12916666666666288},{"name":"G3","midi":55,"time":96.46249999999898,"velocity":0.5669291338582677,"duration":0.13124999999999432},{"name":"C#5","midi":73,"time":96.59791666666564,"velocity":0.6299212598425197,"duration":0.26250000000000284},{"name":"F3","midi":53,"time":96.59791666666564,"velocity":0.5669291338582677,"duration":0.12708333333333144},{"name":"A#2","midi":46,"time":96.59999999999897,"velocity":0.5275590551181102,"duration":0.5270833333333229},{"name":"E3","midi":52,"time":96.7270833333323,"velocity":0.5669291338582677,"duration":0.13333333333333997},{"name":"G5","midi":79,"time":96.86249999999897,"velocity":0.5354330708661418,"duration":0.13124999999999432},{"name":"A#4","midi":70,"time":96.8645833333323,"velocity":0.6299212598425197,"duration":0.2604166666666572},{"name":"F3","midi":53,"time":96.8645833333323,"velocity":0.5669291338582677,"duration":0.12708333333333144},{"name":"E5","midi":76,"time":96.99374999999897,"velocity":0.6299212598425197,"duration":0.13124999999999432},{"name":"G3","midi":55,"time":96.9958333333323,"velocity":0.5669291338582677,"duration":0.12916666666666288},{"name":"F5","midi":77,"time":97.1270833333323,"velocity":0.5354330708661418,"duration":0.12916666666666288},{"name":"C5","midi":72,"time":97.12916666666563,"velocity":0.6299212598425197,"duration":0.2604166666666572},{"name":"G#3","midi":56,"time":97.12916666666563,"velocity":0.5669291338582677,"duration":0.12708333333333144},{"name":"F3","midi":53,"time":97.13124999999896,"velocity":0.5669291338582677,"duration":0.5229166666666458},{"name":"E5","midi":76,"time":97.25833333333229,"velocity":0.6299212598425197,"duration":0.13124999999999432},{"name":"A#3","midi":58,"time":97.25833333333229,"velocity":0.5669291338582677,"duration":0.12916666666666288},{"name":"D5","midi":74,"time":97.39166666666561,"velocity":0.6299212598425197,"duration":0.12916666666666288},{"name":"F5","midi":77,"time":97.39166666666561,"velocity":0.5354330708661418,"duration":0.13124999999999432},{"name":"G#3","midi":56,"time":97.39374999999895,"velocity":0.5669291338582677,"duration":0.12708333333333144},{"name":"G5","midi":79,"time":97.52291666666561,"velocity":0.5354330708661418,"duration":0.13124999999999432},{"name":"E5","midi":76,"time":97.52499999999894,"velocity":0.6299212598425197,"duration":0.12708333333333144},{"name":"G3","midi":55,"time":97.52499999999894,"velocity":0.5669291338582677,"duration":0.12708333333333144},{"name":"G#5","midi":80,"time":97.65624999999893,"velocity":0.5354330708661418,"duration":0.9958333333333087},{"name":"F5","midi":77,"time":97.65624999999893,"velocity":0.5354330708661418,"duration":0.24583333333333712},{"name":"F3","midi":53,"time":97.65833333333227,"velocity":0.5669291338582677,"duration":0.25833333333333997},{"name":"F2","midi":41,"time":97.78124999999893,"velocity":0.5275590551181102,"duration":0.13333333333333997},{"name":"C5","midi":72,"time":97.9166666666656,"velocity":0.6299212598425197,"duration":0.24791666666665435},{"name":"G2","midi":43,"time":97.9166666666656,"velocity":0.5275590551181102,"duration":0.12916666666666288},{"name":"G#2","midi":44,"time":98.0479166666656,"velocity":0.5275590551181102,"duration":0.12916666666666288},{"name":"C#5","midi":73,"time":98.1791666666656,"velocity":0.6299212598425197,"duration":0.24791666666665435},{"name":"A#2","midi":46,"time":98.1791666666656,"velocity":0.5275590551181102,"duration":0.13124999999999432},{"name":"G#2","midi":44,"time":98.31041666666559,"velocity":0.5275590551181102,"duration":0.12916666666666288},{"name":"A#4","midi":70,"time":98.44166666666558,"velocity":0.6299212598425197,"duration":0.24791666666665435},{"name":"G2","midi":43,"time":98.44166666666558,"velocity":0.5275590551181102,"duration":0.13124999999999432},{"name":"F2","midi":41,"time":98.57291666666558,"velocity":0.5275590551181102,"duration":0.13124999999999432},{"name":"D#5","midi":75,"time":98.70416666666557,"velocity":0.6299212598425197,"duration":0.2499999999999858},{"name":"G5","midi":79,"time":98.7062499999989,"velocity":0.5354330708661418,"duration":0.9979166666666401},{"name":"D#2","midi":39,"time":98.7062499999989,"velocity":0.5275590551181102,"duration":0.13124999999999432},{"name":"F2","midi":41,"time":98.8374999999989,"velocity":0.5275590551181102,"duration":0.13124999999999432},{"name":"A#4","midi":70,"time":98.96874999999889,"velocity":0.6299212598425197,"duration":0.25},{"name":"G2","midi":43,"time":98.97083333333222,"velocity":0.5275590551181102,"duration":0.12916666666666288},{"name":"A#2","midi":46,"time":99.09999999999889,"velocity":0.5275590551181102,"duration":0.13125000000000853},{"name":"C5","midi":72,"time":99.2312499999989,"velocity":0.6299212598425197,"duration":0.24791666666665435},{"name":"G#2","midi":44,"time":99.23333333333223,"velocity":0.5275590551181102,"duration":0.12916666666666288},{"name":"G2","midi":43,"time":99.36249999999889,"velocity":0.5275590551181102,"duration":0.13333333333332575},{"name":"G#4","midi":68,"time":99.49583333333221,"velocity":0.6299212598425197,"duration":0.24791666666666856},{"name":"F2","midi":41,"time":99.49791666666555,"velocity":0.5275590551181102,"duration":0.12708333333333144},{"name":"D#2","midi":39,"time":99.62499999999888,"velocity":0.5275590551181102,"duration":0.13125000000000853},{"name":"F5","midi":77,"time":99.75833333333222,"velocity":0.5354330708661418,"duration":0.9958333333332945},{"name":"C#5","midi":73,"time":99.75833333333222,"velocity":0.6299212598425197,"duration":0.24791666666665435},{"name":"C#2","midi":37,"time":99.76041666666555,"velocity":0.5275590551181102,"duration":0.12916666666666288},{"name":"D#2","midi":39,"time":99.88958333333221,"velocity":0.5275590551181102,"duration":0.13124999999999432},{"name":"G#4","midi":68,"time":100.02291666666554,"velocity":0.6299212598425197,"duration":0.24791666666665435},{"name":"F2","midi":41,"time":100.02291666666554,"velocity":0.5275590551181102,"duration":0.12916666666666288},{"name":"G#2","midi":44,"time":100.15416666666553,"velocity":0.5275590551181102,"duration":0.12916666666666288},{"name":"A#4","midi":70,"time":100.2833333333322,"velocity":0.6299212598425197,"duration":0.13124999999999432},{"name":"G2","midi":43,"time":100.28541666666553,"velocity":0.5275590551181102,"duration":0.26249999999998863},{"name":"C5","midi":72,"time":100.41666666666552,"velocity":0.6299212598425197,"duration":0.13124999999999432},{"name":"C#5","midi":73,"time":100.54999999999885,"velocity":0.6299212598425197,"duration":0.12708333333333144},{"name":"A#2","midi":46,"time":100.54999999999885,"velocity":0.5275590551181102,"duration":0.2604166666666572},{"name":"C5","midi":72,"time":100.67708333333218,"velocity":0.6299212598425197,"duration":0.13124999999999432},{"name":"E5","midi":76,"time":100.8104166666655,"velocity":0.6299212598425197,"duration":0.5229166666666458},{"name":"A#4","midi":70,"time":100.81249999999883,"velocity":0.6299212598425197,"duration":0.12708333333333144},{"name":"C3","midi":48,"time":100.81249999999883,"velocity":0.5275590551181102,"duration":0.25833333333332575},{"name":"G#4","midi":68,"time":100.93958333333217,"velocity":0.6299212598425197,"duration":0.12916666666666288},{"name":"G4","midi":67,"time":101.07083333333216,"velocity":0.5669291338582677,"duration":0.12916666666666288},{"name":"C2","midi":36,"time":101.07291666666549,"velocity":0.5275590551181102,"duration":0.25833333333332575},{"name":"A#4","midi":70,"time":101.20208333333215,"velocity":0.6299212598425197,"duration":0.12916666666666288},{"name":"F5","midi":77,"time":101.33333333333215,"velocity":0.5354330708661418,"duration":0.6416666666666515},{"name":"G#4","midi":68,"time":101.33541666666548,"velocity":0.6299212598425197,"duration":0.5124999999999886},{"name":"F2","midi":41,"time":101.33541666666548,"velocity":0.5275590551181102,"duration":0.125},{"name":"C3","midi":48,"time":101.46249999999881,"velocity":0.5275590551181102,"duration":0.12708333333333144},{"name":"D3","midi":50,"time":101.58958333333214,"velocity":0.5669291338582677,"duration":0.12916666666666288},{"name":"E3","midi":52,"time":101.72083333333214,"velocity":0.5669291338582677,"duration":0.12708333333333144},{"name":"F3","midi":53,"time":101.8499999999988,"velocity":0.5669291338582677,"duration":0.7604166666666572},{"name":"D#5","midi":75,"time":101.9749999999988,"velocity":0.6299212598425197,"duration":0.125},{"name":"C#5","midi":73,"time":102.10208333333213,"velocity":0.6299212598425197,"duration":0.12708333333333144},{"name":"C5","midi":72,"time":102.22916666666546,"velocity":0.6299212598425197,"duration":0.125},{"name":"A#4","midi":70,"time":102.3562499999988,"velocity":0.6299212598425197,"duration":0.12708333333333144},{"name":"G#4","midi":68,"time":102.48333333333213,"velocity":0.6299212598425197,"duration":0.125},{"name":"G4","midi":67,"time":102.61041666666546,"velocity":0.5669291338582677,"duration":0.12708333333333144},{"name":"A#3","midi":58,"time":102.61249999999879,"velocity":0.5669291338582677,"duration":0.2562499999999943},{"name":"G#4","midi":68,"time":102.73749999999879,"velocity":0.6299212598425197,"duration":0.12916666666666288},{"name":"A#4","midi":70,"time":102.86874999999878,"velocity":0.6299212598425197,"duration":0.12708333333333144},{"name":"E3","midi":52,"time":102.87083333333211,"velocity":0.5669291338582677,"duration":0.2541666666666629},{"name":"C#5","midi":73,"time":102.99583333333211,"velocity":0.6299212598425197,"duration":0.12708333333333144},{"name":"C5","midi":72,"time":103.12499999999878,"velocity":0.6299212598425197,"duration":0.125},{"name":"C4","midi":60,"time":103.12499999999878,"velocity":0.5669291338582677,"duration":0.2562499999999943},{"name":"A#4","midi":70,"time":103.25208333333211,"velocity":0.6299212598425197,"duration":0.12916666666666288},{"name":"A4","midi":69,"time":103.3833333333321,"velocity":0.6299212598425197,"duration":0.12708333333333144},{"name":"D#3","midi":51,"time":103.3833333333321,"velocity":0.5669291338582677,"duration":0.25833333333332575},{"name":"C5","midi":72,"time":103.51249999999877,"velocity":0.6299212598425197,"duration":0.12916666666666288},{"name":"C#5","midi":73,"time":103.64374999999876,"velocity":0.6299212598425197,"duration":0.13124999999999432},{"name":"A3","midi":57,"time":103.64374999999876,"velocity":0.5669291338582677,"duration":0.2604166666666572},{"name":"D#5","midi":75,"time":103.77499999999876,"velocity":0.6299212598425197,"duration":0.12916666666666288},{"name":"F5","midi":77,"time":103.90624999999875,"velocity":0.5354330708661418,"duration":0.12916666666666288},{"name":"A#3","midi":58,"time":103.90624999999875,"velocity":0.5669291338582677,"duration":0.2604166666666572},{"name":"C#3","midi":49,"time":103.90833333333208,"velocity":0.5669291338582677,"duration":0.5208333333333144},{"name":"D#5","midi":75,"time":104.03749999999874,"velocity":0.6299212598425197,"duration":0.12708333333333144},{"name":"C#5","midi":73,"time":104.16874999999874,"velocity":0.6299212598425197,"duration":0.12708333333333144},{"name":"F4","midi":65,"time":104.16874999999874,"velocity":0.5669291338582677,"duration":0.2604166666666572},{"name":"C5","midi":72,"time":104.29583333333207,"velocity":0.6299212598425197,"duration":0.13124999999999432},{"name":"A#4","midi":70,"time":104.43124999999873,"velocity":0.6299212598425197,"duration":0.125},{"name":"F#3","midi":54,"time":104.43124999999873,"velocity":0.5669291338582677,"duration":0.5145833333333201},{"name":"C#4","midi":61,"time":104.43124999999873,"velocity":0.5669291338582677,"duration":0.2562499999999943},{"name":"C#5","midi":73,"time":104.55624999999873,"velocity":0.6299212598425197,"duration":0.12916666666666288},{"name":"F#5","midi":78,"time":104.68749999999872,"velocity":0.5354330708661418,"duration":0.12916666666666288},{"name":"A#3","midi":58,"time":104.68958333333205,"velocity":0.5669291338582677,"duration":0.2562499999999943},{"name":"F5","midi":77,"time":104.81666666666538,"velocity":0.5354330708661418,"duration":0.12708333333333144},{"name":"D#5","midi":75,"time":104.94791666666538,"velocity":0.6299212598425197,"duration":0.12708333333333144},{"name":"F#4","midi":66,"time":104.94791666666538,"velocity":0.5669291338582677,"duration":0.2562499999999943},{"name":"C#5","midi":73,"time":105.07499999999871,"velocity":0.6299212598425197,"duration":0.12916666666666288},{"name":"C5","midi":72,"time":105.2062499999987,"velocity":0.6299212598425197,"duration":0.12708333333333144},{"name":"D#4","midi":63,"time":105.2062499999987,"velocity":0.5669291338582677,"duration":0.25833333333332575},{"name":"F#3","midi":54,"time":105.20833333333204,"velocity":0.5669291338582677,"duration":0.12291666666666856},{"name":"A#4","midi":70,"time":105.33333333333204,"velocity":0.6299212598425197,"duration":0.12916666666666288},{"name":"F3","midi":53,"time":105.33541666666537,"velocity":0.5669291338582677,"duration":0.12708333333333144},{"name":"A4","midi":69,"time":105.46458333333203,"velocity":0.6299212598425197,"duration":0.5208333333333144},{"name":"D#3","midi":51,"time":105.46666666666536,"velocity":0.5669291338582677,"duration":0.125},{"name":"F4","midi":65,"time":105.46666666666536,"velocity":0.5669291338582677,"duration":0.518749999999983},{"name":"F#3","midi":54,"time":105.59374999999869,"velocity":0.5669291338582677,"duration":0.12916666666666288},{"name":"F3","midi":53,"time":105.72291666666536,"velocity":0.5669291338582677,"duration":0.12916666666666288},{"name":"D#3","midi":51,"time":105.85208333333202,"velocity":0.5669291338582677,"duration":0.13124999999999432},{"name":"A#4","midi":70,"time":105.98749999999868,"velocity":0.6299212598425197,"duration":0.12708333333333144},{"name":"F4","midi":65,"time":105.98749999999868,"velocity":0.5669291338582677,"duration":0.25833333333332575},{"name":"A#3","midi":58,"time":105.989583333332,"velocity":0.5669291338582677,"duration":1.0395833333332973},{"name":"C#3","midi":49,"time":105.989583333332,"velocity":0.5669291338582677,"duration":0.125},{"name":"C5","midi":72,"time":106.11666666666534,"velocity":0.6299212598425197,"duration":0.12916666666666288},{"name":"C3","midi":48,"time":106.11666666666534,"velocity":0.5275590551181102,"duration":0.12708333333333144},{"name":"A#4","midi":70,"time":106.24791666666533,"velocity":0.6299212598425197,"duration":0.25833333333332575},{"name":"C#5","midi":73,"time":106.24791666666533,"velocity":0.6299212598425197,"duration":0.5208333333333144},{"name":"A#2","midi":46,"time":106.24999999999866,"velocity":0.5275590551181102,"duration":0.125},{"name":"C#3","midi":49,"time":106.37499999999866,"velocity":0.5669291338582677,"duration":0.13124999999999432},{"name":"D#3","midi":51,"time":106.50833333333199,"velocity":0.5669291338582677,"duration":0.12708333333333144},{"name":"F#4","midi":66,"time":106.50833333333199,"velocity":0.5669291338582677,"duration":0.25833333333332575},{"name":"F3","midi":53,"time":106.63749999999865,"velocity":0.5669291338582677,"duration":0.12916666666666288},{"name":"C5","midi":72,"time":106.76874999999865,"velocity":0.6299212598425197,"duration":0.12916666666666288},{"name":"D#4","midi":63,"time":106.77083333333198,"velocity":0.5669291338582677,"duration":0.2562499999999943},{"name":"F#3","midi":54,"time":106.77083333333198,"velocity":0.5669291338582677,"duration":0.125},{"name":"C#5","midi":73,"time":106.89791666666531,"velocity":0.6299212598425197,"duration":0.12916666666666288},{"name":"D#3","midi":51,"time":106.89999999999864,"velocity":0.5669291338582677,"duration":0.125},{"name":"D#5","midi":75,"time":107.0291666666653,"velocity":0.6299212598425197,"duration":0.6499999999999773},{"name":"C5","midi":72,"time":107.03124999999864,"velocity":0.6299212598425197,"duration":0.25833333333332575},{"name":"A3","midi":57,"time":107.03124999999864,"velocity":0.5669291338582677,"duration":0.12708333333333144},{"name":"F3","midi":53,"time":107.03333333333197,"velocity":0.5669291338582677,"duration":0.5166666666666515},{"name":"A#3","midi":58,"time":107.15833333333197,"velocity":0.5669291338582677,"duration":0.12916666666666288},{"name":"A4","midi":69,"time":107.28958333333196,"velocity":0.6299212598425197,"duration":0.2604166666666572},{"name":"C4","midi":60,"time":107.2916666666653,"velocity":0.5669291338582677,"duration":0.12708333333333144},{"name":"A3","midi":57,"time":107.41874999999862,"velocity":0.5669291338582677,"duration":0.12916666666666288},{"name":"A#4","midi":70,"time":107.54999999999862,"velocity":0.6299212598425197,"duration":0.5249999999999773},{"name":"F3","midi":53,"time":107.55208333333195,"velocity":0.5669291338582677,"duration":0.25833333333332575},{"name":"A#2","midi":46,"time":107.55208333333195,"velocity":0.5275590551181102,"duration":0.5229166666666458},{"name":"C5","midi":72,"time":107.68124999999861,"velocity":0.6299212598425197,"duration":0.12916666666666288},{"name":"C#5","midi":73,"time":107.81249999999861,"velocity":0.6299212598425197,"duration":0.12916666666666288},{"name":"A#3","midi":58,"time":107.81249999999861,"velocity":0.5669291338582677,"duration":0.12708333333333144},{"name":"F5","midi":77,"time":107.94166666666527,"velocity":0.5354330708661418,"duration":0.13124999999999432},{"name":"C4","midi":60,"time":107.9437499999986,"velocity":0.5669291338582677,"duration":0.12916666666666288},{"name":"A#5","midi":82,"time":108.0749999999986,"velocity":0.5354330708661418,"duration":0.25833333333332575},{"name":"C#4","midi":61,"time":108.07708333333193,"velocity":0.5669291338582677,"duration":1.0395833333333115},{"name":"F4","midi":65,"time":108.20208333333193,"velocity":0.5669291338582677,"duration":0.12916666666666288},{"name":"F5","midi":77,"time":108.33333333333192,"velocity":0.5354330708661418,"duration":0.26250000000000284},{"name":"F#4","midi":66,"time":108.33541666666525,"velocity":0.5669291338582677,"duration":0.12708333333333144},{"name":"G#4","midi":68,"time":108.46249999999858,"velocity":0.6299212598425197,"duration":0.13333333333333997},{"name":"F#5","midi":78,"time":108.59583333333192,"velocity":0.5354330708661418,"duration":0.25833333333332575},{"name":"A#4","midi":70,"time":108.59791666666526,"velocity":0.6299212598425197,"duration":0.12708333333333144},{"name":"G#4","midi":68,"time":108.72499999999859,"velocity":0.6299212598425197,"duration":0.12916666666666288},{"name":"D#5","midi":75,"time":108.85624999999858,"velocity":0.6299212598425197,"duration":0.2604166666666572},{"name":"F#4","midi":66,"time":108.85833333333191,"velocity":0.5669291338582677,"duration":0.125},{"name":"F4","midi":65,"time":108.98541666666524,"velocity":0.5669291338582677,"duration":0.12916666666666288},{"name":"G#5","midi":80,"time":109.11666666666524,"velocity":0.5354330708661418,"duration":0.2604166666666572},{"name":"C4","midi":60,"time":109.11874999999857,"velocity":0.5669291338582677,"duration":1.0416666666666288},{"name":"D#4","midi":63,"time":109.11874999999857,"velocity":0.5669291338582677,"duration":0.12916666666666288},{"name":"F4","midi":65,"time":109.24791666666523,"velocity":0.5669291338582677,"duration":0.12916666666666288},{"name":"D#5","midi":75,"time":109.3770833333319,"velocity":0.6299212598425197,"duration":0.2604166666666572},{"name":"F#4","midi":66,"time":109.37916666666523,"velocity":0.5669291338582677,"duration":0.12708333333333144},{"name":"A#4","midi":70,"time":109.50624999999856,"velocity":0.6299212598425197,"duration":0.13124999999999432},{"name":"G#4","midi":68,"time":109.63958333333188,"velocity":0.6299212598425197,"duration":0.12916666666666288},{"name":"F5","midi":77,"time":109.63958333333188,"velocity":0.5354330708661418,"duration":0.2604166666666572},{"name":"F#4","midi":66,"time":109.77083333333188,"velocity":0.5669291338582677,"duration":0.12916666666666288},{"name":"C#5","midi":73,"time":109.89999999999854,"velocity":0.6299212598425197,"duration":0.12916666666666288},{"name":"F4","midi":65,"time":109.90208333333187,"velocity":0.5669291338582677,"duration":0.12708333333333144},{"name":"F5","midi":77,"time":110.03124999999854,"velocity":0.5354330708661418,"duration":0.12916666666666288},{"name":"D#4","midi":63,"time":110.03124999999854,"velocity":0.5669291338582677,"duration":0.12708333333333144},{"name":"F#5","midi":78,"time":110.16249999999853,"velocity":0.5354330708661418,"duration":0.2604166666666572},{"name":"C#4","midi":61,"time":110.16249999999853,"velocity":0.5669291338582677,"duration":0.12708333333333144},{"name":"A#3","midi":58,"time":110.16458333333186,"velocity":0.5669291338582677,"duration":1.0354166666666345},{"name":"D#4","midi":63,"time":110.28958333333186,"velocity":0.5669291338582677,"duration":0.13124999999999432},{"name":"C#5","midi":73,"time":110.42291666666519,"velocity":0.6299212598425197,"duration":0.25833333333332575},{"name":"F4","midi":65,"time":110.42499999999852,"velocity":0.5669291338582677,"duration":0.125},{"name":"G#4","midi":68,"time":110.55208333333185,"velocity":0.6299212598425197,"duration":0.12916666666666288},{"name":"D#5","midi":75,"time":110.68333333333184,"velocity":0.6299212598425197,"duration":0.25833333333332575},{"name":"F#4","midi":66,"time":110.68333333333184,"velocity":0.5669291338582677,"duration":0.12708333333333144},{"name":"F4","midi":65,"time":110.81249999999851,"velocity":0.5669291338582677,"duration":0.12916666666666288},{"name":"C5","midi":72,"time":110.9437499999985,"velocity":0.6299212598425197,"duration":0.2562499999999943},{"name":"D#4","midi":63,"time":110.9437499999985,"velocity":0.5669291338582677,"duration":0.12708333333333144},{"name":"C#4","midi":61,"time":111.07291666666517,"velocity":0.5669291338582677,"duration":0.12708333333333144},{"name":"F5","midi":77,"time":111.20208333333183,"velocity":0.5354330708661418,"duration":0.25833333333332575},{"name":"C4","midi":60,"time":111.20208333333183,"velocity":0.5669291338582677,"duration":0.12708333333333144},{"name":"A3","midi":57,"time":111.20416666666516,"velocity":0.5669291338582677,"duration":0.518749999999983},{"name":"C#4","midi":61,"time":111.32916666666516,"velocity":0.5669291338582677,"duration":0.12916666666666288},{"name":"C5","midi":72,"time":111.46041666666515,"velocity":0.6299212598425197,"duration":0.26249999999998863},{"name":"D#4","midi":63,"time":111.46249999999849,"velocity":0.5669291338582677,"duration":0.12916666666666288},{"name":"F#4","midi":66,"time":111.59166666666515,"velocity":0.5669291338582677,"duration":0.12916666666666288},{"name":"C#5","midi":73,"time":111.72499999999847,"velocity":0.6299212598425197,"duration":1.5354166666666345},{"name":"F4","midi":65,"time":111.72499999999847,"velocity":0.5669291338582677,"duration":0.5124999999999886},{"name":"A#3","midi":58,"time":111.72499999999847,"velocity":0.5669291338582677,"duration":0.125},{"name":"D#4","midi":63,"time":111.8520833333318,"velocity":0.5669291338582677,"duration":0.12708333333333144},{"name":"C#4","midi":61,"time":111.97916666666514,"velocity":0.5669291338582677,"duration":0.12916666666666288},{"name":"C4","midi":60,"time":112.11041666666513,"velocity":0.5669291338582677,"duration":0.12708333333333144},{"name":"A#3","midi":58,"time":112.2395833333318,"velocity":0.5669291338582677,"duration":0.12708333333333144},{"name":"F4","midi":65,"time":112.2395833333318,"velocity":0.5669291338582677,"duration":0.2541666666666629},{"name":"G#3","midi":56,"time":112.36874999999846,"velocity":0.5669291338582677,"duration":0.125},{"name":"A#4","midi":70,"time":112.49583333333179,"velocity":0.6299212598425197,"duration":0.25208333333333144},{"name":"G3","midi":55,"time":112.49583333333179,"velocity":0.5669291338582677,"duration":0.125},{"name":"F3","midi":53,"time":112.62291666666512,"velocity":0.5669291338582677,"duration":0.125},{"name":"G4","midi":67,"time":112.74999999999845,"velocity":0.5669291338582677,"duration":0.2541666666666629},{"name":"D#3","midi":51,"time":112.74999999999845,"velocity":0.5669291338582677,"duration":0.125},{"name":"C#4","midi":61,"time":112.87499999999845,"velocity":0.5669291338582677,"duration":0.12708333333333144},{"name":"C4","midi":60,"time":113.00416666666511,"velocity":0.5669291338582677,"duration":0.12708333333333144},{"name":"D#4","midi":63,"time":113.00624999999845,"velocity":0.5669291338582677,"duration":0.5166666666666515},{"name":"A#3","midi":58,"time":113.13124999999845,"velocity":0.5669291338582677,"duration":0.12916666666666288},{"name":"C5","midi":72,"time":113.26041666666511,"velocity":0.6299212598425197,"duration":0.2604166666666572},{"name":"G#3","midi":56,"time":113.26249999999844,"velocity":0.5669291338582677,"duration":0.12708333333333144},{"name":"G3","midi":55,"time":113.38958333333177,"velocity":0.5669291338582677,"duration":0.13124999999999432},{"name":"F5","midi":77,"time":113.5229166666651,"velocity":0.5354330708661418,"duration":0.25833333333332575},{"name":"G#4","midi":68,"time":113.52499999999843,"velocity":0.6299212598425197,"duration":0.2541666666666629},{"name":"F3","midi":53,"time":113.52499999999843,"velocity":0.5669291338582677,"duration":0.125},{"name":"G3","midi":55,"time":113.64999999999843,"velocity":0.5669291338582677,"duration":0.12916666666666288},{"name":"D5","midi":74,"time":113.78333333333175,"velocity":0.6299212598425197,"duration":0.2541666666666629},{"name":"F4","midi":65,"time":113.78333333333175,"velocity":0.5669291338582677,"duration":0.2541666666666629},{"name":"G#3","midi":56,"time":113.78333333333175,"velocity":0.5669291338582677,"duration":0.125},{"name":"C4","midi":60,"time":113.90833333333175,"velocity":0.5669291338582677,"duration":0.12708333333333144},{"name":"A#4","midi":70,"time":114.03749999999842,"velocity":0.6299212598425197,"duration":0.25},{"name":"D4","midi":62,"time":114.03958333333175,"velocity":0.5669291338582677,"duration":0.24791666666666856},{"name":"A#3","midi":58,"time":114.03958333333175,"velocity":0.5669291338582677,"duration":0.12291666666666856},{"name":"G#3","midi":56,"time":114.16249999999842,"velocity":0.5669291338582677,"duration":0.12291666666666856},{"name":"D#5","midi":75,"time":114.28958333333175,"velocity":0.6299212598425197,"duration":1.0291666666666401},{"name":"G3","midi":55,"time":114.28958333333175,"velocity":0.5669291338582677,"duration":0.12708333333333144},{"name":"F3","midi":53,"time":114.41666666666508,"velocity":0.5669291338582677,"duration":0.12708333333333144},{"name":"D#3","midi":51,"time":114.54583333333174,"velocity":0.5669291338582677,"duration":0.12916666666666288},{"name":"G4","midi":67,"time":114.54583333333174,"velocity":0.5669291338582677,"duration":0.2562499999999943},{"name":"C#3","midi":49,"time":114.6749999999984,"velocity":0.5669291338582677,"duration":0.12708333333333144},{"name":"G#4","midi":68,"time":114.80416666666507,"velocity":0.6299212598425197,"duration":0.12291666666666856},{"name":"C3","midi":48,"time":114.80416666666507,"velocity":0.5275590551181102,"duration":0.2541666666666629},{"name":"A#4","midi":70,"time":114.92916666666507,"velocity":0.6299212598425197,"duration":0.12916666666666288},{"name":"C5","midi":72,"time":115.06041666666506,"velocity":0.6299212598425197,"duration":0.125},{"name":"G#3","midi":56,"time":115.06041666666506,"velocity":0.5669291338582677,"duration":0.2562499999999943},{"name":"A#4","midi":70,"time":115.1874999999984,"velocity":0.6299212598425197,"duration":0.12916666666666288},{"name":"C#5","midi":73,"time":115.31874999999839,"velocity":0.6299212598425197,"duration":0.5104166666666572},{"name":"G#4","midi":68,"time":115.32083333333172,"velocity":0.6299212598425197,"duration":0.12083333333333712},{"name":"A#3","midi":58,"time":115.32083333333172,"velocity":0.5669291338582677,"duration":0.25},{"name":"G4","midi":67,"time":115.44374999999839,"velocity":0.5669291338582677,"duration":0.12708333333333144},{"name":"F4","midi":65,"time":115.57291666666505,"velocity":0.5669291338582677,"duration":0.12708333333333144},{"name":"A#2","midi":46,"time":115.57291666666505,"velocity":0.5275590551181102,"duration":0.2562499999999943},{"name":"G#4","midi":68,"time":115.69999999999838,"velocity":0.6299212598425197,"duration":0.12708333333333144},{"name":"D#5","midi":75,"time":115.83124999999838,"velocity":0.6299212598425197,"duration":0.5041666666666629},{"name":"G4","midi":67,"time":115.83124999999838,"velocity":0.5669291338582677,"duration":0.125},{"name":"D#3","midi":51,"time":115.83333333333171,"velocity":0.5669291338582677,"duration":0.5020833333333314},{"name":"G#4","midi":68,"time":115.95624999999838,"velocity":0.6299212598425197,"duration":0.125},{"name":"A#4","midi":70,"time":116.08333333333171,"velocity":0.6299212598425197,"duration":0.12708333333333144},{"name":"G4","midi":67,"time":116.21041666666504,"velocity":0.5669291338582677,"duration":0.12291666666666856},{"name":"D#4","midi":63,"time":116.33749999999837,"velocity":0.5669291338582677,"duration":0.25},{"name":"F3","midi":53,"time":116.46041666666504,"velocity":0.5669291338582677,"duration":0.125},{"name":"A#4","midi":70,"time":116.58749999999837,"velocity":0.6299212598425197,"duration":0.2562499999999943},{"name":"G3","midi":55,"time":116.5895833333317,"velocity":0.5669291338582677,"duration":0.125},{"name":"G#3","midi":56,"time":116.7145833333317,"velocity":0.5669291338582677,"duration":0.12708333333333144},{"name":"A#3","midi":58,"time":116.84374999999837,"velocity":0.5669291338582677,"duration":0.12708333333333144},{"name":"G4","midi":67,"time":116.8458333333317,"velocity":0.5669291338582677,"duration":0.2541666666666629},{"name":"C4","midi":60,"time":116.9708333333317,"velocity":0.5669291338582677,"duration":0.12708333333333144},{"name":"C#4","midi":61,"time":117.09999999999836,"velocity":0.5669291338582677,"duration":0.125},{"name":"D#4","midi":63,"time":117.09999999999836,"velocity":0.5669291338582677,"duration":0.25208333333333144},{"name":"C4","midi":60,"time":117.22499999999836,"velocity":0.5669291338582677,"duration":0.12708333333333144},{"name":"C#5","midi":73,"time":117.35416666666502,"velocity":0.6299212598425197,"duration":0.25},{"name":"A#3","midi":58,"time":117.35416666666502,"velocity":0.5669291338582677,"duration":0.12291666666666856},{"name":"G#3","midi":56,"time":117.47916666666502,"velocity":0.5669291338582677,"duration":0.125},{"name":"A#4","midi":70,"time":117.60624999999835,"velocity":0.6299212598425197,"duration":0.25},{"name":"G3","midi":55,"time":117.60624999999835,"velocity":0.5669291338582677,"duration":0.12291666666666856},{"name":"A#3","midi":58,"time":117.73124999999835,"velocity":0.5669291338582677,"duration":0.125},{"name":"C5","midi":72,"time":117.85833333333169,"velocity":0.6299212598425197,"duration":0.5041666666666629},{"name":"G#3","midi":56,"time":117.85833333333169,"velocity":0.5669291338582677,"duration":0.12291666666666856},{"name":"D#3","midi":51,"time":117.98333333333169,"velocity":0.5669291338582677,"duration":0.125},{"name":"F3","midi":53,"time":118.10833333333169,"velocity":0.5669291338582677,"duration":0.125},{"name":"G3","midi":55,"time":118.23541666666502,"velocity":0.5669291338582677,"duration":0.125},{"name":"G#4","midi":68,"time":118.36249999999835,"velocity":0.6299212598425197,"duration":0.25208333333333144},{"name":"G#3","midi":56,"time":118.36249999999835,"velocity":0.5669291338582677,"duration":0.125},{"name":"A#3","midi":58,"time":118.48749999999835,"velocity":0.5669291338582677,"duration":0.125},{"name":"D#5","midi":75,"time":118.61458333333168,"velocity":0.6299212598425197,"duration":0.25208333333333144},{"name":"C4","midi":60,"time":118.61458333333168,"velocity":0.5669291338582677,"duration":0.125},{"name":"C#4","midi":61,"time":118.73958333333168,"velocity":0.5669291338582677,"duration":0.125},{"name":"C5","midi":72,"time":118.86666666666501,"velocity":0.6141732283464567,"duration":0.2541666666666629},{"name":"D#4","midi":63,"time":118.86874999999834,"velocity":0.5669291338582677,"duration":0.12291666666666856},{"name":"F4","midi":65,"time":118.99166666666501,"velocity":0.5669291338582677,"duration":0.12708333333333144},{"name":"G#4","midi":68,"time":119.12083333333167,"velocity":0.6299212598425197,"duration":0.2541666666666629},{"name":"F#4","midi":66,"time":119.122916666665,"velocity":0.5669291338582677,"duration":0.125},{"name":"F4","midi":65,"time":119.247916666665,"velocity":0.5669291338582677,"duration":0.125},{"name":"C5","midi":72,"time":119.37499999999834,"velocity":0.6141732283464567,"duration":0.25},{"name":"F#5","midi":78,"time":119.37499999999834,"velocity":0.5196850393700787,"duration":0.2645833333333343},{"name":"D#4","midi":63,"time":119.37499999999834,"velocity":0.5669291338582677,"duration":0.125},{"name":"C#4","midi":61,"time":119.49999999999834,"velocity":0.5669291338582677,"duration":0.125},{"name":"D#5","midi":75,"time":119.62708333333167,"velocity":0.6141732283464567,"duration":0.2916666666666714},{"name":"C4","midi":60,"time":119.62708333333167,"velocity":0.5669291338582677,"duration":0.12291666666666856},{"name":"D#4","midi":63,"time":119.75208333333167,"velocity":0.5669291338582677,"duration":0.125},{"name":"F5","midi":77,"time":119.87708333333167,"velocity":0.5196850393700787,"duration":0.5124999999999886},{"name":"C#4","midi":61,"time":119.879166666665,"velocity":0.5669291338582677,"duration":0.12291666666666856},{"name":"D#4","midi":63,"time":120.004166666665,"velocity":0.5669291338582677,"duration":0.12708333333333144},{"name":"G#4","midi":68,"time":120.13124999999833,"velocity":0.6299212598425197,"duration":0.2562499999999943},{"name":"F4","midi":65,"time":120.13333333333166,"velocity":0.5669291338582677,"duration":0.125},{"name":"D#4","midi":63,"time":120.260416666665,"velocity":0.5669291338582677,"duration":0.12708333333333144},{"name":"F5","midi":77,"time":120.38958333333166,"velocity":0.5196850393700787,"duration":0.2541666666666629},{"name":"A#4","midi":70,"time":120.39166666666499,"velocity":0.6299212598425197,"duration":0.25},{"name":"C#4","midi":61,"time":120.39166666666499,"velocity":0.5669291338582677,"duration":0.12291666666666856},{"name":"C4","midi":60,"time":120.51666666666499,"velocity":0.5669291338582677,"duration":0.125},{"name":"G5","midi":79,"time":120.64374999999832,"velocity":0.5196850393700787,"duration":0.25},{"name":"C#5","midi":73,"time":120.64583333333165,"velocity":0.6141732283464567,"duration":0.5},{"name":"A#3","midi":58,"time":120.64583333333165,"velocity":0.5669291338582677,"duration":0.12291666666666856},{"name":"C#4","midi":61,"time":120.77083333333165,"velocity":0.5669291338582677,"duration":0.12291666666666856},{"name":"D#5","midi":75,"time":120.89583333333165,"velocity":0.6141732283464567,"duration":0.5020833333333314},{"name":"C4","midi":60,"time":120.89583333333165,"velocity":0.5669291338582677,"duration":0.12291666666666856},{"name":"C#4","midi":61,"time":121.02083333333165,"velocity":0.5669291338582677,"duration":0.125},{"name":"D#4","midi":63,"time":121.14791666666498,"velocity":0.5669291338582677,"duration":0.12083333333333712},{"name":"G4","midi":67,"time":121.14791666666498,"velocity":0.5669291338582677,"duration":0.24791666666666856},{"name":"C#4","midi":61,"time":121.27083333333165,"velocity":0.5669291338582677,"duration":0.125},{"name":"D#5","midi":75,"time":121.39791666666498,"velocity":0.6141732283464567,"duration":0.25208333333333144},{"name":"A4","midi":69,"time":121.39999999999831,"velocity":0.6299212598425197,"duration":0.25},{"name":"C4","midi":60,"time":121.39999999999831,"velocity":0.5669291338582677,"duration":0.12083333333333712},{"name":"A#3","midi":58,"time":121.52291666666498,"velocity":0.5669291338582677,"duration":0.12708333333333144},{"name":"C5","midi":72,"time":121.65208333333165,"velocity":0.6141732283464567,"duration":0.24375000000000568},{"name":"F5","midi":77,"time":121.65208333333165,"velocity":0.5196850393700787,"duration":0.25208333333333144},{"name":"A3","midi":57,"time":121.65416666666498,"velocity":0.5669291338582677,"duration":0.12083333333333712},{"name":"C4","midi":60,"time":121.77499999999831,"velocity":0.5669291338582677,"duration":0.12708333333333144},{"name":"C#5","midi":73,"time":121.90416666666498,"velocity":0.6141732283464567,"duration":0.5083333333333258},{"name":"A#3","midi":58,"time":121.90624999999831,"velocity":0.5669291338582677,"duration":0.12291666666666856},{"name":"C4","midi":60,"time":122.02916666666498,"velocity":0.5669291338582677,"duration":0.12708333333333144},{"name":"C#4","midi":61,"time":122.15833333333164,"velocity":0.5669291338582677,"duration":0.125},{"name":"F4","midi":65,"time":122.15833333333164,"velocity":0.5669291338582677,"duration":0.2541666666666629},{"name":"C4","midi":60,"time":122.28333333333164,"velocity":0.5669291338582677,"duration":0.12708333333333144},{"name":"A#4","midi":70,"time":122.41458333333163,"velocity":0.6299212598425197,"duration":1.0083333333333258},{"name":"C#5","midi":73,"time":122.41458333333163,"velocity":0.6299212598425197,"duration":0.25208333333333144},{"name":"A#3","midi":58,"time":122.41666666666497,"velocity":0.5669291338582677,"duration":0.12291666666666856},{"name":"G#3","midi":56,"time":122.53958333333163,"velocity":0.5669291338582677,"duration":0.125},{"name":"A#5","midi":82,"time":122.66666666666497,"velocity":0.5354330708661418,"duration":0.2541666666666629},{"name":"G3","midi":55,"time":122.6687499999983,"velocity":0.5669291338582677,"duration":0.125},{"name":"A#3","midi":58,"time":122.7937499999983,"velocity":0.5669291338582677,"duration":0.12708333333333144},{"name":"C5","midi":72,"time":122.92083333333163,"velocity":0.6299212598425197,"duration":0.25208333333333144},{"name":"G#3","midi":56,"time":122.92291666666496,"velocity":0.5669291338582677,"duration":0.12291666666666856},{"name":"A#3","midi":58,"time":123.04583333333163,"velocity":0.5669291338582677,"duration":0.12708333333333144},{"name":"C#5","midi":73,"time":123.17291666666496,"velocity":0.6299212598425197,"duration":0.125},{"name":"G#3","midi":56,"time":123.17499999999829,"velocity":0.5669291338582677,"duration":0.12291666666666856},{"name":"A#4","midi":70,"time":123.29999999999829,"velocity":0.6299212598425197,"duration":0.125},{"name":"G3","midi":55,"time":123.29999999999829,"velocity":0.5669291338582677,"duration":0.12291666666666856},{"name":"G#4","midi":68,"time":123.42499999999829,"velocity":0.6299212598425197,"duration":0.6270833333333314},{"name":"C5","midi":72,"time":123.42499999999829,"velocity":0.6299212598425197,"duration":0.25},{"name":"F3","midi":53,"time":123.42499999999829,"velocity":0.5669291338582677,"duration":0.12291666666666856},{"name":"D#3","midi":51,"time":123.54999999999829,"velocity":0.5669291338582677,"duration":0.125},{"name":"G#5","midi":80,"time":123.67499999999829,"velocity":0.5354330708661418,"duration":0.25208333333333144},{"name":"F3","midi":53,"time":123.67708333333162,"velocity":0.5669291338582677,"duration":0.12291666666666856},{"name":"C#3","midi":49,"time":123.79999999999829,"velocity":0.5669291338582677,"duration":0.125},{"name":"A#4","midi":70,"time":123.92708333333162,"velocity":0.6299212598425197,"duration":0.5062499999999943},{"name":"D#3","midi":51,"time":123.92916666666495,"velocity":0.5669291338582677,"duration":0.12291666666666856},{"name":"C#3","midi":49,"time":124.05208333333162,"velocity":0.5669291338582677,"duration":0.12708333333333144},{"name":"G4","midi":67,"time":124.05416666666495,"velocity":0.5669291338582677,"duration":0.12291666666666856},{"name":"G#4","midi":68,"time":124.17916666666495,"velocity":0.6299212598425197,"duration":0.12708333333333144},{"name":"C3","midi":48,"time":124.18124999999829,"velocity":0.5275590551181102,"duration":0.125},{"name":"A#4","midi":70,"time":124.30833333333162,"velocity":0.6299212598425197,"duration":0.125},{"name":"A#2","midi":46,"time":124.30833333333162,"velocity":0.5275590551181102,"duration":0.12291666666666856},{"name":"C5","midi":72,"time":124.43541666666495,"velocity":0.6299212598425197,"duration":0.6270833333333314},{"name":"G#2","midi":44,"time":124.43541666666495,"velocity":0.5275590551181102,"duration":0.25},{"name":"D#5","midi":75,"time":124.55833333333162,"velocity":0.6299212598425197,"duration":0.125},{"name":"F5","midi":77,"time":124.68541666666495,"velocity":0.5354330708661418,"duration":0.125},{"name":"D#3","midi":51,"time":124.68749999999828,"velocity":0.5669291338582677,"duration":0.25},{"name":"G5","midi":79,"time":124.81041666666495,"velocity":0.5354330708661418,"duration":0.125},{"name":"G#5","midi":80,"time":124.93749999999828,"velocity":0.5354330708661418,"duration":0.6312499999999943},{"name":"C3","midi":48,"time":124.93958333333161,"velocity":0.5275590551181102,"duration":0.25},{"name":"C#5","midi":73,"time":125.06249999999828,"velocity":0.6299212598425197,"duration":0.125},{"name":"D#5","midi":75,"time":125.18958333333161,"velocity":0.6299212598425197,"duration":0.125},{"name":"G#2","midi":44,"time":125.19166666666494,"velocity":0.5275590551181102,"duration":0.25},{"name":"C5","midi":72,"time":125.31458333333161,"velocity":0.6299212598425197,"duration":0.125},{"name":"C#5","midi":73,"time":125.44166666666494,"velocity":0.6299212598425197,"duration":0.643749999999983},{"name":"F3","midi":53,"time":125.44374999999827,"velocity":0.5669291338582677,"duration":0.2562499999999943},{"name":"G5","midi":79,"time":125.56874999999827,"velocity":0.5354330708661418,"duration":0.12916666666666288},{"name":"F5","midi":77,"time":125.69999999999827,"velocity":0.5354330708661418,"duration":0.12708333333333144},{"name":"C#3","midi":49,"time":125.69999999999827,"velocity":0.5669291338582677,"duration":0.25833333333332575},{"name":"G#5","midi":80,"time":125.82916666666493,"velocity":0.5354330708661418,"duration":0.12916666666666288},{"name":"G5","midi":79,"time":125.96041666666493,"velocity":0.5354330708661418,"duration":1.6874999999999716},{"name":"D#3","midi":51,"time":125.96041666666493,"velocity":0.5669291338582677,"duration":0.5145833333333201},{"name":"C5","midi":72,"time":126.08749999999826,"velocity":0.6299212598425197,"duration":0.12916666666666288},{"name":"A#4","midi":70,"time":126.21666666666492,"velocity":0.6299212598425197,"duration":0.12708333333333144},{"name":"C#5","midi":73,"time":126.34583333333158,"velocity":0.6299212598425197,"duration":0.12916666666666288},{"name":"C5","midi":72,"time":126.47499999999825,"velocity":0.6299212598425197,"duration":0.6499999999999915},{"name":"E3","midi":52,"time":126.47708333333158,"velocity":0.5669291338582677,"duration":0.12708333333333144},{"name":"G3","midi":55,"time":126.47708333333158,"velocity":0.5669291338582677,"duration":0.24791666666666856},{"name":"A#3","midi":58,"time":126.60416666666491,"velocity":0.5669291338582677,"duration":0.1291666666666771},{"name":"G#3","midi":56,"time":126.73541666666492,"velocity":0.5039370078740157,"duration":0.12916666666666288},{"name":"C4","midi":60,"time":126.73541666666492,"velocity":0.5039370078740157,"duration":0.2604166666666572},{"name":"G3","midi":55,"time":126.86458333333158,"velocity":0.5669291338582677,"duration":0.12916666666666288},{"name":"F3","midi":53,"time":126.99583333333157,"velocity":0.5039370078740157,"duration":0.25},{"name":"G#3","midi":56,"time":126.9979166666649,"velocity":0.5039370078740157,"duration":0.25833333333333997},{"name":"A#4","midi":70,"time":127.12708333333157,"velocity":0.6299212598425197,"duration":0.1291666666666771},{"name":"G#4","midi":68,"time":127.25833333333158,"velocity":0.6299212598425197,"duration":0.12708333333333144},{"name":"F3","midi":53,"time":127.25833333333158,"velocity":0.4409448818897638,"duration":0.25833333333332575},{"name":"G4","midi":67,"time":127.38749999999824,"velocity":0.5039370078740157,"duration":0.12916666666666288},{"name":"G#4","midi":68,"time":127.51874999999824,"velocity":0.6299212598425197,"duration":0.3687499999999915},{"name":"D4","midi":62,"time":127.51874999999824,"velocity":0.5669291338582677,"duration":0.26249999999998863},{"name":"C5","midi":72,"time":127.64999999999823,"velocity":0.6299212598425197,"duration":0.12916666666666288},{"name":"F5","midi":77,"time":127.78124999999822,"velocity":0.5354330708661418,"duration":0.38333333333333997},{"name":"B3","midi":59,"time":127.78333333333156,"velocity":0.5669291338582677,"duration":0.2541666666666771},{"name":"G#4","midi":68,"time":127.90833333333156,"velocity":0.6299212598425197,"duration":0.1291666666666771},{"name":"G4","midi":67,"time":128.03749999999823,"velocity":0.5669291338582677,"duration":0.25208333333333144},{"name":"C4","midi":60,"time":128.03958333333156,"velocity":0.5669291338582677,"duration":0.12291666666666856},{"name":"C3","midi":48,"time":128.03958333333156,"velocity":0.5275590551181102,"duration":1.0166666666666515},{"name":"D#5","midi":75,"time":128.16458333333156,"velocity":0.6299212598425197,"duration":0.125},{"name":"D#3","midi":51,"time":128.16458333333156,"velocity":0.5669291338582677,"duration":0.125},{"name":"C#5","midi":73,"time":128.2916666666649,"velocity":0.6299212598425197,"duration":0.12708333333333144},{"name":"F3","midi":53,"time":128.2916666666649,"velocity":0.5669291338582677,"duration":0.125},{"name":"F5","midi":77,"time":128.41874999999823,"velocity":0.5354330708661418,"duration":0.12708333333333144},{"name":"G3","midi":55,"time":128.41874999999823,"velocity":0.5669291338582677,"duration":0.12708333333333144},{"name":"D#5","midi":75,"time":128.5479166666649,"velocity":0.6299212598425197,"duration":1.01458333333332},{"name":"D#4","midi":63,"time":128.5479166666649,"velocity":0.5669291338582677,"duration":0.25208333333333144},{"name":"G#3","midi":56,"time":128.5479166666649,"velocity":0.5669291338582677,"duration":0.125},{"name":"A#3","midi":58,"time":128.6729166666649,"velocity":0.5669291338582677,"duration":0.12708333333333144},{"name":"G#4","midi":68,"time":128.79999999999822,"velocity":0.6299212598425197,"duration":0.26249999999998863},{"name":"C4","midi":60,"time":128.79999999999822,"velocity":0.5669291338582677,"duration":0.12708333333333144},{"name":"A#3","midi":58,"time":128.92708333333155,"velocity":0.5669291338582677,"duration":0.12708333333333144},{"name":"C#3","midi":49,"time":129.05624999999822,"velocity":0.5669291338582677,"duration":1.01458333333332},{"name":"F4","midi":65,"time":129.05833333333155,"velocity":0.5669291338582677,"duration":0.25208333333333144},{"name":"G#3","midi":56,"time":129.05833333333155,"velocity":0.5669291338582677,"duration":0.12291666666666856},{"name":"G3","midi":55,"time":129.18124999999822,"velocity":0.5669291338582677,"duration":0.12708333333333144},{"name":"F3","midi":53,"time":129.31041666666488,"velocity":0.5669291338582677,"duration":0.125},{"name":"C#4","midi":61,"time":129.3124999999982,"velocity":0.5669291338582677,"duration":0.25},{"name":"G3","midi":55,"time":129.43541666666488,"velocity":0.5669291338582677,"duration":0.125},{"name":"C#5","midi":73,"time":129.56458333333154,"velocity":0.6299212598425197,"duration":0.5249999999999773},{"name":"A#4","midi":70,"time":129.56458333333154,"velocity":0.6299212598425197,"duration":0.2666666666666515},{"name":"G#3","midi":56,"time":129.56666666666487,"velocity":0.5669291338582677,"duration":0.12083333333333712},{"name":"G3","midi":55,"time":129.6874999999982,"velocity":0.5669291338582677,"duration":0.12708333333333144},{"name":"G4","midi":67,"time":129.81666666666487,"velocity":0.5669291338582677,"duration":0.2541666666666629},{"name":"F3","midi":53,"time":129.81666666666487,"velocity":0.5669291338582677,"duration":0.125},{"name":"D#3","midi":51,"time":129.94166666666487,"velocity":0.5669291338582677,"duration":0.12708333333333144},{"name":"G#4","midi":68,"time":130.07291666666487,"velocity":0.6299212598425197,"duration":0.502083333333303},{"name":"F3","midi":53,"time":130.07291666666487,"velocity":0.5669291338582677,"duration":0.12291666666664014},{"name":"G#2","midi":44,"time":130.0749999999982,"velocity":0.5275590551181102,"duration":0.6249999999999716},{"name":"C5","midi":72,"time":130.1958333333315,"velocity":0.6299212598425197,"duration":0.13958333333332007},{"name":"D#3","midi":51,"time":130.19791666666484,"velocity":0.5669291338582677,"duration":0.12291666666666856},{"name":"A#4","midi":70,"time":130.32291666666484,"velocity":0.6299212598425197,"duration":0.13333333333332575},{"name":"C#3","midi":49,"time":130.32291666666484,"velocity":0.5669291338582677,"duration":0.125},{"name":"C#5","midi":73,"time":130.44791666666484,"velocity":0.6299212598425197,"duration":0.12708333333333144},{"name":"F3","midi":53,"time":130.44999999999817,"velocity":0.5669291338582677,"duration":0.12291666666666856},{"name":"C5","midi":72,"time":130.57499999999817,"velocity":0.6299212598425197,"duration":0.25},{"name":"D#3","midi":51,"time":130.5770833333315,"velocity":0.5669291338582677,"duration":0.24791666666666856},{"name":"F2","midi":41,"time":130.69999999999817,"velocity":0.5275590551181102,"duration":0.12291666666666856},{"name":"F5","midi":77,"time":130.82499999999817,"velocity":0.5354330708661418,"duration":0.25},{"name":"G2","midi":43,"time":130.8270833333315,"velocity":0.5275590551181102,"duration":0.12291666666666856},{"name":"G#2","midi":44,"time":130.94999999999817,"velocity":0.5275590551181102,"duration":0.12291666666666856},{"name":"C#5","midi":73,"time":131.07499999999817,"velocity":0.6299212598425197,"duration":0.25},{"name":"A#2","midi":46,"time":131.07499999999817,"velocity":0.5275590551181102,"duration":0.125},{"name":"C3","midi":48,"time":131.19999999999817,"velocity":0.5275590551181102,"duration":0.12291666666666856},{"name":"A#4","midi":70,"time":131.32499999999817,"velocity":0.6299212598425197,"duration":0.25},{"name":"C#3","midi":49,"time":131.32499999999817,"velocity":0.5669291338582677,"duration":0.125},{"name":"D#3","midi":51,"time":131.44999999999817,"velocity":0.5669291338582677,"duration":0.12291666666666856},{"name":"F#5","midi":78,"time":131.57499999999817,"velocity":0.5354330708661418,"duration":0.25},{"name":"C#3","midi":49,"time":131.57499999999817,"velocity":0.5669291338582677,"duration":0.125},{"name":"C3","midi":48,"time":131.69999999999817,"velocity":0.5275590551181102,"duration":0.12291666666666856},{"name":"C5","midi":72,"time":131.82499999999817,"velocity":0.6299212598425197,"duration":0.25},{"name":"D#5","midi":75,"time":131.82499999999817,"velocity":0.6299212598425197,"duration":0.5},{"name":"A#2","midi":46,"time":131.8270833333315,"velocity":0.5275590551181102,"duration":0.12291666666666856},{"name":"G#2","midi":44,"time":131.94999999999817,"velocity":0.5275590551181102,"duration":0.12291666666666856},{"name":"G#4","midi":68,"time":132.07499999999817,"velocity":0.6299212598425197,"duration":0.5},{"name":"F5","midi":77,"time":132.07499999999817,"velocity":0.5354330708661418,"duration":0.5},{"name":"C#3","midi":49,"time":132.0770833333315,"velocity":0.5669291338582677,"duration":0.12291666666666856},{"name":"C3","midi":48,"time":132.19999999999817,"velocity":0.5275590551181102,"duration":0.12291666666666856},{"name":"C#5","midi":73,"time":132.32499999999817,"velocity":0.6299212598425197,"duration":0.25},{"name":"C#3","midi":49,"time":132.32499999999817,"velocity":0.5669291338582677,"duration":0.125},{"name":"F3","midi":53,"time":132.44999999999817,"velocity":0.5669291338582677,"duration":0.12291666666666856},{"name":"G#5","midi":80,"time":132.5770833333315,"velocity":0.5354330708661418,"duration":0.24583333333333712},{"name":"D#3","midi":51,"time":132.5770833333315,"velocity":0.5669291338582677,"duration":0.12083333333333712},{"name":"D3","midi":50,"time":132.69791666666484,"velocity":0.5669291338582677,"duration":0.12291666666666856},{"name":"F5","midi":77,"time":132.82291666666484,"velocity":0.5354330708661418,"duration":0.4958333333333371},{"name":"D5","midi":74,"time":132.82499999999817,"velocity":0.6299212598425197,"duration":0.24583333333333712},{"name":"C3","midi":48,"time":132.82499999999817,"velocity":0.5275590551181102,"duration":0.12083333333333712},{"name":"A#2","midi":46,"time":132.9458333333315,"velocity":0.5275590551181102,"duration":0.125},{"name":"G5","midi":79,"time":133.0708333333315,"velocity":0.5354330708661418,"duration":0.5},{"name":"A#4","midi":70,"time":133.07291666666484,"velocity":0.6299212598425197,"duration":0.4958333333333371},{"name":"D#3","midi":51,"time":133.07291666666484,"velocity":0.5669291338582677,"duration":0.12083333333333712},{"name":"D3","midi":50,"time":133.1958333333315,"velocity":0.5669291338582677,"duration":0.12291666666666856},{"name":"D#5","midi":75,"time":133.31874999999818,"velocity":0.6299212598425197,"duration":0.25},{"name":"D#3","midi":51,"time":133.3208333333315,"velocity":0.5669291338582677,"duration":0.12083333333333712},{"name":"G3","midi":55,"time":133.44374999999818,"velocity":0.5669291338582677,"duration":0.125},{"name":"A#5","midi":82,"time":133.57291666666484,"velocity":0.5354330708661418,"duration":0.24583333333333712},{"name":"F3","midi":53,"time":133.57291666666484,"velocity":0.5669291338582677,"duration":0.11875000000000568},{"name":"E3","midi":52,"time":133.69374999999818,"velocity":0.5669291338582677,"duration":0.125},{"name":"E5","midi":76,"time":133.8208333333315,"velocity":0.6299212598425197,"duration":0.24791666666666856},{"name":"G5","midi":79,"time":133.8208333333315,"velocity":0.5354330708661418,"duration":0.25},{"name":"D3","midi":50,"time":133.82291666666484,"velocity":0.5669291338582677,"duration":0.11875000000000568},{"name":"C3","midi":48,"time":133.94374999999818,"velocity":0.5275590551181102,"duration":0.125},{"name":"G#5","midi":80,"time":134.0708333333315,"velocity":0.5118110236220472,"duration":0.2541666666666629},{"name":"F5","midi":77,"time":134.07291666666484,"velocity":0.5118110236220472,"duration":0.25208333333333144},{"name":"C5","midi":72,"time":134.07291666666484,"velocity":0.6062992125984252,"duration":0.25},{"name":"F3","midi":53,"time":134.07499999999817,"velocity":0.5669291338582677,"duration":0.11875000000000568},{"name":"G3","midi":55,"time":134.1958333333315,"velocity":0.5669291338582677,"duration":0.12708333333333144},{"name":"F5","midi":77,"time":134.32499999999817,"velocity":0.5354330708661418,"duration":0.25},{"name":"G#3","midi":56,"time":134.3270833333315,"velocity":0.5669291338582677,"duration":0.12083333333333712},{"name":"F3","midi":53,"time":134.44999999999817,"velocity":0.5669291338582677,"duration":0.125},{"name":"C#5","midi":73,"time":134.57499999999817,"velocity":0.6299212598425197,"duration":0.7583333333333258},{"name":"A#3","midi":58,"time":134.5770833333315,"velocity":0.5669291338582677,"duration":0.12291666666666856},{"name":"G#3","midi":56,"time":134.69999999999817,"velocity":0.5669291338582677,"duration":0.125},{"name":"A#4","midi":70,"time":134.82499999999817,"velocity":0.6299212598425197,"duration":0.25208333333333144},{"name":"G3","midi":55,"time":134.82499999999817,"velocity":0.5669291338582677,"duration":0.125},{"name":"F3","midi":53,"time":134.94999999999817,"velocity":0.5669291338582677,"duration":0.125},{"name":"D#3","midi":51,"time":135.0770833333315,"velocity":0.5669291338582677,"duration":0.12708333333333144},{"name":"G4","midi":67,"time":135.07916666666483,"velocity":0.5433070866141733,"duration":0.2541666666666629},{"name":"C#3","midi":49,"time":135.20416666666483,"velocity":0.5669291338582677,"duration":0.12708333333333144},{"name":"A#4","midi":70,"time":135.33541666666483,"velocity":0.6062992125984252,"duration":0.2541666666666629},{"name":"D#5","midi":75,"time":135.33541666666483,"velocity":0.6062992125984252,"duration":0.2562499999999943},{"name":"G4","midi":67,"time":135.33749999999816,"velocity":0.5433070866141733,"duration":0.25208333333333144},{"name":"C3","midi":48,"time":135.33749999999816,"velocity":0.5275590551181102,"duration":0.12291666666666856},{"name":"A#2","midi":46,"time":135.46041666666483,"velocity":0.5275590551181102,"duration":0.12708333333333144},{"name":"G#4","midi":68,"time":135.59166666666482,"velocity":0.6062992125984252,"duration":0.2291666666666572},{"name":"C5","midi":72,"time":135.59374999999815,"velocity":0.6062992125984252,"duration":0.25208333333333144},{"name":"G#2","midi":44,"time":135.59374999999815,"velocity":0.5275590551181102,"duration":0.12291666666666856},{"name":"A#2","midi":46,"time":135.71666666666482,"velocity":0.5275590551181102,"duration":0.12708333333333144},{"name":"G#4","midi":68,"time":135.84583333333148,"velocity":0.6062992125984252,"duration":0.2354166666666515},{"name":"F5","midi":77,"time":135.84791666666482,"velocity":0.5118110236220472,"duration":0.2541666666666629},{"name":"F4","midi":65,"time":135.84791666666482,"velocity":0.5433070866141733,"duration":0.25208333333333144},{"name":"C3","midi":48,"time":135.84999999999815,"velocity":0.5275590551181102,"duration":0.12291666666666856},{"name":"C#3","midi":49,"time":135.97291666666482,"velocity":0.5669291338582677,"duration":0.12708333333333144},{"name":"C5","midi":72,"time":136.10208333333148,"velocity":0.6062992125984252,"duration":0.5},{"name":"G#4","midi":68,"time":136.1041666666648,"velocity":0.6062992125984252,"duration":0.7458333333333371},{"name":"D#4","midi":63,"time":136.1041666666648,"velocity":0.5433070866141733,"duration":0.4958333333333371},{"name":"D#3","midi":51,"time":136.10624999999814,"velocity":0.5669291338582677,"duration":0.11875000000000568},{"name":"C#3","midi":49,"time":136.22499999999815,"velocity":0.5669291338582677,"duration":0.125},{"name":"C3","midi":48,"time":136.34999999999815,"velocity":0.5275590551181102,"duration":0.125},{"name":"C#3","midi":49,"time":136.47499999999815,"velocity":0.5669291338582677,"duration":0.125},{"name":"A#4","midi":70,"time":136.60208333333148,"velocity":0.6299212598425197,"duration":0.7395833333333428},{"name":"C#4","midi":61,"time":136.6041666666648,"velocity":0.5433070866141733,"duration":0.4937500000000057},{"name":"D#3","midi":51,"time":136.6041666666648,"velocity":0.5669291338582677,"duration":0.24375000000000568},{"name":"G4","midi":67,"time":136.84999999999815,"velocity":0.5433070866141733,"duration":0.24791666666666856},{"name":"D#2","midi":39,"time":136.84999999999815,"velocity":0.5275590551181102,"duration":0.24583333333333712},{"name":"C4","midi":60,"time":137.09999999999815,"velocity":0.5433070866141733,"duration":0.4895833333333428},{"name":"F4","midi":65,"time":137.09999999999815,"velocity":0.5433070866141733,"duration":0.49166666666667425},{"name":"F2","midi":41,"time":137.09999999999815,"velocity":0.5275590551181102,"duration":0.4895833333333428},{"name":"G#4","midi":68,"time":137.34374999999815,"velocity":0.6299212598425197,"duration":0.12083333333333712},{"name":"G4","midi":67,"time":137.4645833333315,"velocity":0.5669291338582677,"duration":0.12291666666666856},{"name":"G#4","midi":68,"time":137.59166666666482,"velocity":0.6299212598425197,"duration":0.25},{"name":"D#2","midi":39,"time":137.7145833333315,"velocity":0.5275590551181102,"duration":0.12708333333333144},{"name":"D#5","midi":75,"time":137.84166666666482,"velocity":0.5826771653543307,"duration":0.26250000000001705},{"name":"A#4","midi":70,"time":137.84374999999815,"velocity":0.5826771653543307,"duration":0.2583333333333542},{"name":"D#4","midi":63,"time":137.84374999999815,"velocity":0.5669291338582677,"duration":0.24166666666667425},{"name":"F2","midi":41,"time":137.84583333333148,"velocity":0.5275590551181102,"duration":0.125},{"name":"G2","midi":43,"time":137.97291666666482,"velocity":0.5275590551181102,"duration":0.1291666666666913},{"name":"G#4","midi":68,"time":138.10416666666484,"velocity":0.5826771653543307,"duration":0.2395833333333428},{"name":"C5","midi":72,"time":138.10624999999817,"velocity":0.5826771653543307,"duration":0.25625000000002274},{"name":"D#4","midi":63,"time":138.10624999999817,"velocity":0.5669291338582677,"duration":0.279166666666697},{"name":"G#2","midi":44,"time":138.1083333333315,"velocity":0.5275590551181102,"duration":0.125},{"name":"A#2","midi":46,"time":138.2333333333315,"velocity":0.5275590551181102,"duration":0.12708333333335986},{"name":"G#4","midi":68,"time":138.3624999999982,"velocity":0.5826771653543307,"duration":0.2770833333333371},{"name":"C3","midi":48,"time":138.3624999999982,"velocity":0.5275590551181102,"duration":0.12708333333333144},{"name":"D#3","midi":51,"time":138.48958333333152,"velocity":0.5669291338582677,"duration":0.125},{"name":"F5","midi":77,"time":138.61666666666486,"velocity":0.4251968503937008,"duration":0.2562499999999943},{"name":"C#3","midi":49,"time":138.61666666666486,"velocity":0.5669291338582677,"duration":0.12916666666666288},{"name":"C3","midi":48,"time":138.74583333333152,"velocity":0.5275590551181102,"duration":0.125},{"name":"A#4","midi":70,"time":138.87291666666485,"velocity":0.5354330708661418,"duration":0.2333333333333485},{"name":"C#5","midi":73,"time":138.87499999999818,"velocity":0.5354330708661418,"duration":0.2500000000000284},{"name":"F4","midi":65,"time":138.87499999999818,"velocity":0.5433070866141733,"duration":0.2750000000000341},{"name":"A#2","midi":46,"time":138.87499999999818,"velocity":0.5275590551181102,"duration":0.12083333333333712},{"name":"G#2","midi":44,"time":138.99583333333152,"velocity":0.5275590551181102,"duration":0.12708333333335986},{"name":"A#4","midi":70,"time":139.1249999999982,"velocity":0.5354330708661418,"duration":0.2770833333333371},{"name":"D#5","midi":75,"time":139.1249999999982,"velocity":0.5354330708661418,"duration":0.25208333333333144},{"name":"D#4","midi":63,"time":139.12708333333154,"velocity":0.5433070866141733,"duration":0.27291666666667425},{"name":"G2","midi":43,"time":139.12708333333154,"velocity":0.5275590551181102,"duration":0.12291666666666856},{"name":"F2","midi":41,"time":139.2499999999982,"velocity":0.5275590551181102,"duration":0.12708333333333144},{"name":"G4","midi":67,"time":139.37916666666487,"velocity":0.5433070866141733,"duration":0.27916666666666856},{"name":"D#2","midi":39,"time":139.37916666666487,"velocity":0.5275590551181102,"duration":0.125},{"name":"C#2","midi":37,"time":139.5062499999982,"velocity":0.5275590551181102,"duration":0.12708333333333144},{"name":"G#4","midi":68,"time":139.63333333333154,"velocity":0.5354330708661418,"duration":1.1416666666666515},{"name":"C2","midi":36,"time":139.63541666666487,"velocity":0.5275590551181102,"duration":0.13333333333335418},{"name":"D#2","midi":39,"time":139.77083333333155,"velocity":0.5275590551181102,"duration":0.13333333333332575},{"name":"A#3","midi":58,"time":139.9062499999982,"velocity":0.5669291338582677,"duration":0.24791666666666856},{"name":"F4","midi":65,"time":139.9062499999982,"velocity":0.5669291338582677,"duration":0.29375000000001705},{"name":"C#2","midi":37,"time":139.90833333333154,"velocity":0.5275590551181102,"duration":0.13333333333332575},{"name":"F2","midi":41,"time":140.04166666666487,"velocity":0.5275590551181102,"duration":0.13750000000001705},{"name":"A#3","midi":58,"time":140.17916666666488,"velocity":0.5669291338582677,"duration":0.1875},{"name":"D#2","midi":39,"time":140.18124999999822,"velocity":0.5275590551181102,"duration":1.0875000000000057},{"name":"C4","midi":60,"time":140.2916666666649,"velocity":0.5669291338582677,"duration":0.11458333333331439},{"name":"C#4","midi":61,"time":140.40833333333154,"velocity":0.5669291338582677,"duration":0.15625},{"name":"F4","midi":65,"time":140.54166666666487,"velocity":0.5669291338582677,"duration":0.12291666666666856},{"name":"D#3","midi":51,"time":140.6687499999982,"velocity":0.5669291338582677,"duration":0.575000000000017},{"name":"D#4","midi":63,"time":140.67083333333153,"velocity":0.5669291338582677,"duration":0.14791666666667425},{"name":"G4","midi":67,"time":140.67083333333153,"velocity":0.5669291338582677,"duration":0.6333333333333542},{"name":"C#4","midi":61,"time":140.80208333333152,"velocity":0.5669291338582677,"duration":0.13541666666668561},{"name":"C4","midi":60,"time":140.9374999999982,"velocity":0.5669291338582677,"duration":0.16249999999999432},{"name":"C#4","midi":61,"time":141.09583333333154,"velocity":0.5669291338582677,"duration":0.17916666666667425},{"name":"G#4","midi":68,"time":141.27083333333155,"velocity":0.5196850393700787,"duration":2.1645833333333258},{"name":"D#3","midi":51,"time":141.27083333333155,"velocity":0.4409448818897638,"duration":2.1645833333333258},{"name":"C4","midi":60,"time":141.27291666666488,"velocity":0.4409448818897638,"duration":2.1624999999999943},{"name":"G#2","midi":44,"time":141.27291666666488,"velocity":0.4330708661417323,"duration":1.85833333333332}],"controlChanges":{"7":[{"number":7,"time":0,"value":0.8267716535433071},{"number":7,"time":0,"value":0.7874015748031497},{"number":7,"time":0,"value":0.7874015748031497}],"10":[{"number":10,"time":0,"value":0.5039370078740157},{"number":10,"time":0,"value":0.3779527559055118},{"number":10,"time":0,"value":0.3779527559055118},{"number":10,"time":4.608333333333333,"value":0.5275590551181102},{"number":10,"time":4.6625,"value":0.6220472440944882},{"number":10,"time":4.697916666666666,"value":0.5196850393700787},{"number":10,"time":4.735416666666666,"value":0.47244094488188976},{"number":10,"time":4.810416666666666,"value":0.4566929133858268},{"number":10,"time":4.822916666666666,"value":0.5905511811023622},{"number":10,"time":4.839583333333333,"value":0.4330708661417323},{"number":10,"time":4.88125,"value":0.5826771653543307},{"number":10,"time":4.88125,"value":0.4645669291338583}]},"id":0,"name":"--------","instrumentNumber":0,"instrument":"acoustic grand piano","instrumentFamily":"piano","channelNumber":0,"isPercussion":false}]}