{"header":{"PPQ":240,"timeSignature":[1,4],"bpm":120,"name":""},"startTime":5.018750000000001,"duration":125.07916666666658,"tracks":[{"startTime":5.018750000000001,"duration":125.07916666666658,"length":1284,"notes":[{"name":"D#4","midi":63,"time":5.018750000000001,"velocity":0.4330708661417323,"duration":0.5812499999999989},{"name":"B3","midi":59,"time":5.022916666666667,"velocity":0.4330708661417323,"duration":4.587499999999993},{"name":"B4","midi":71,"time":5.16875,"velocity":0.49606299212598426,"duration":0.14374999999999982},{"name":"A#4","midi":70,"time":5.3125,"velocity":0.5196850393700787,"duration":0.14374999999999982},{"name":"B4","midi":71,"time":5.45625,"velocity":0.49606299212598426,"duration":0.1416666666666666},{"name":"C#5","midi":73,"time":5.6,"velocity":0.47244094488188976,"duration":0.13750000000000018},{"name":"E4","midi":64,"time":5.6,"velocity":0.5275590551181102,"duration":0.5625},{"name":"A#4","midi":70,"time":5.739583333333333,"velocity":0.5196850393700787,"duration":0.1395833333333334},{"name":"B4","midi":71,"time":5.88125,"velocity":0.49606299212598426,"duration":0.1395833333333334},{"name":"C#5","midi":73,"time":6.020833333333333,"velocity":0.47244094488188976,"duration":0.1395833333333334},{"name":"F#4","midi":66,"time":6.1625,"velocity":0.5275590551181102,"duration":0.5562500000000004},{"name":"D#5","midi":75,"time":6.297916666666667,"velocity":0.47244094488188976,"duration":0.1395833333333334},{"name":"C#5","midi":73,"time":6.439583333333333,"velocity":0.47244094488188976,"duration":0.13750000000000018},{"name":"D#5","midi":75,"time":6.577083333333333,"velocity":0.47244094488188976,"duration":0.1395833333333334},{"name":"E5","midi":76,"time":6.71875,"velocity":0.47244094488188976,"duration":0.13541666666666696},{"name":"G#4","midi":68,"time":6.720833333333333,"velocity":0.5196850393700787,"duration":0.5520833333333339},{"name":"C#5","midi":73,"time":6.85625,"velocity":0.47244094488188976,"duration":0.1395833333333334},{"name":"D#5","midi":75,"time":6.995833333333334,"velocity":0.47244094488188976,"duration":0.13750000000000018},{"name":"E5","midi":76,"time":7.133333333333334,"velocity":0.47244094488188976,"duration":0.13750000000000018},{"name":"A#4","midi":70,"time":7.272916666666667,"velocity":0.5196850393700787,"duration":1.3749999999999982},{"name":"E5","midi":76,"time":7.408333333333334,"velocity":0.47244094488188976,"duration":0.13750000000000018},{"name":"D#5","midi":75,"time":7.545833333333334,"velocity":0.47244094488188976,"duration":0.13541666666666696},{"name":"E5","midi":76,"time":7.681250000000001,"velocity":0.47244094488188976,"duration":0.13541666666666696},{"name":"F#5","midi":78,"time":7.818750000000001,"velocity":0.47244094488188976,"duration":0.13541666666666696},{"name":"C#5","midi":73,"time":7.956250000000002,"velocity":0.47244094488188976,"duration":0.13750000000000018},{"name":"D#5","midi":75,"time":8.093750000000002,"velocity":0.47244094488188976,"duration":0.1374999999999993},{"name":"E5","midi":76,"time":8.231250000000001,"velocity":0.47244094488188976,"duration":0.1374999999999993},{"name":"D#5","midi":75,"time":8.370833333333334,"velocity":0.49606299212598426,"duration":1.1020833333333275},{"name":"A#4","midi":70,"time":8.508333333333333,"velocity":0.5196850393700787,"duration":0.4145833333333311},{"name":"G#4","midi":68,"time":8.647916666666665,"velocity":0.5196850393700787,"duration":0.1374999999999993},{"name":"A#4","midi":70,"time":8.785416666666665,"velocity":0.5196850393700787,"duration":0.5479166666666639},{"name":"B4","midi":71,"time":8.924999999999997,"velocity":0.5196850393700787,"duration":0.13333333333333286},{"name":"G#4","midi":68,"time":9.060416666666663,"velocity":0.5196850393700787,"duration":0.13541666666666607},{"name":"A#4","midi":70,"time":9.19583333333333,"velocity":0.5196850393700787,"duration":0.2770833333333318},{"name":"B4","midi":71,"time":9.333333333333329,"velocity":0.5196850393700787,"duration":0.1374999999999993},{"name":"C#5","midi":73,"time":9.474999999999994,"velocity":0.5196850393700787,"duration":1.2249999999999943},{"name":"F4","midi":65,"time":9.474999999999994,"velocity":0.5275590551181102,"duration":0.5458333333333307},{"name":"G#3","midi":56,"time":9.608333333333327,"velocity":0.5275590551181102,"duration":0.1395833333333325},{"name":"F#3","midi":54,"time":9.74791666666666,"velocity":0.5275590551181102,"duration":0.13541666666666607},{"name":"G#3","midi":56,"time":9.883333333333326,"velocity":0.5275590551181102,"duration":0.13541666666666607},{"name":"F#4","midi":66,"time":10.020833333333325,"velocity":0.5275590551181102,"duration":1.6291666666666593},{"name":"A#3","midi":58,"time":10.022916666666658,"velocity":0.5275590551181102,"duration":0.13333333333333286},{"name":"F#3","midi":54,"time":10.158333333333324,"velocity":0.5275590551181102,"duration":0.13541666666666607},{"name":"G#3","midi":56,"time":10.29374999999999,"velocity":0.5275590551181102,"duration":0.13541666666666607},{"name":"A#3","midi":58,"time":10.429166666666656,"velocity":0.5275590551181102,"duration":0.1374999999999993},{"name":"D#3","midi":51,"time":10.566666666666656,"velocity":0.5275590551181102,"duration":0.5395833333333311},{"name":"A#4","midi":70,"time":10.702083333333322,"velocity":0.5433070866141733,"duration":0.13333333333333286},{"name":"G#4","midi":68,"time":10.837499999999988,"velocity":0.5433070866141733,"duration":0.13541666666666607},{"name":"A#4","midi":70,"time":10.972916666666654,"velocity":0.5433070866141733,"duration":0.13333333333333286},{"name":"B4","midi":71,"time":11.106249999999987,"velocity":0.5433070866141733,"duration":0.13541666666666607},{"name":"G#3","midi":56,"time":11.10833333333332,"velocity":0.5275590551181102,"duration":0.5395833333333311},{"name":"G#4","midi":68,"time":11.243749999999986,"velocity":0.5433070866141733,"duration":0.13333333333333286},{"name":"A#4","midi":70,"time":11.377083333333319,"velocity":0.5433070866141733,"duration":0.13541666666666607},{"name":"B4","midi":71,"time":11.512499999999985,"velocity":0.5433070866141733,"duration":0.27083333333333215},{"name":"F4","midi":65,"time":11.649999999999984,"velocity":0.5275590551181102,"duration":0.5437499999999975},{"name":"C#3","midi":49,"time":11.649999999999984,"velocity":0.5275590551181102,"duration":0.5437499999999975},{"name":"G#4","midi":68,"time":11.78541666666665,"velocity":0.5433070866141733,"duration":0.13541666666666607},{"name":"F#4","midi":66,"time":11.920833333333317,"velocity":0.5275590551181102,"duration":0.13541666666666607},{"name":"G#4","midi":68,"time":12.056249999999983,"velocity":0.5433070866141733,"duration":0.13541666666666607},{"name":"A#4","midi":70,"time":12.195833333333315,"velocity":0.5433070866141733,"duration":0.12916666666666643},{"name":"F#3","midi":54,"time":12.195833333333315,"velocity":0.5275590551181102,"duration":0.5395833333333311},{"name":"E4","midi":64,"time":12.195833333333315,"velocity":0.5275590551181102,"duration":0.5416666666666643},{"name":"F#4","midi":66,"time":12.327083333333315,"velocity":0.5275590551181102,"duration":0.13541666666666607},{"name":"G#4","midi":68,"time":12.46249999999998,"velocity":0.5433070866141733,"duration":0.13541666666666607},{"name":"A#4","midi":70,"time":12.59999999999998,"velocity":0.5433070866141733,"duration":0.6874999999999964},{"name":"D#4","midi":63,"time":12.73749999999998,"velocity":0.5275590551181102,"duration":1.3791666666666593},{"name":"B2","midi":47,"time":12.739583333333313,"velocity":0.6062992125984252,"duration":0.13333333333333286},{"name":"A#3","midi":58,"time":12.872916666666645,"velocity":0.5275590551181102,"duration":0.1374999999999993},{"name":"G#3","midi":56,"time":13.010416666666645,"velocity":0.5275590551181102,"duration":0.1374999999999993},{"name":"A#3","midi":58,"time":13.149999999999977,"velocity":0.5275590551181102,"duration":0.13541666666666607},{"name":"G#4","midi":68,"time":13.287499999999977,"velocity":0.5433070866141733,"duration":0.2770833333333318},{"name":"B3","midi":59,"time":13.28958333333331,"velocity":0.5275590551181102,"duration":0.13541666666666607},{"name":"G#3","midi":56,"time":13.424999999999976,"velocity":0.5275590551181102,"duration":0.1395833333333325},{"name":"F#4","midi":66,"time":13.566666666666642,"velocity":0.5275590551181102,"duration":0.2770833333333318},{"name":"A#3","midi":58,"time":13.566666666666642,"velocity":0.5275590551181102,"duration":0.13541666666666607},{"name":"B3","midi":59,"time":13.702083333333308,"velocity":0.5275590551181102,"duration":0.1395833333333325},{"name":"C#3","midi":49,"time":13.843749999999973,"velocity":0.5275590551181102,"duration":0.13541666666666607},{"name":"F4","midi":65,"time":13.845833333333307,"velocity":0.5275590551181102,"duration":0.5479166666666639},{"name":"D#3","midi":51,"time":13.981249999999973,"velocity":0.5275590551181102,"duration":0.13541666666666607},{"name":"C#4","midi":61,"time":14.118749999999972,"velocity":0.5275590551181102,"duration":0.2749999999999986},{"name":"B2","midi":47,"time":14.118749999999972,"velocity":0.6062992125984252,"duration":0.13541666666666607},{"name":"C#3","midi":49,"time":14.254166666666638,"velocity":0.5275590551181102,"duration":0.1374999999999993},{"name":"D#3","midi":51,"time":14.395833333333304,"velocity":0.5275590551181102,"duration":0.13333333333333286},{"name":"B3","midi":59,"time":14.395833333333304,"velocity":0.5275590551181102,"duration":0.27083333333333215},{"name":"F#4","midi":66,"time":14.397916666666637,"velocity":0.5275590551181102,"duration":1.0854166666666618},{"name":"B2","midi":47,"time":14.53124999999997,"velocity":0.6062992125984252,"duration":0.13541666666666607},{"name":"A#3","midi":58,"time":14.668749999999969,"velocity":0.5275590551181102,"duration":0.27291666666666536},{"name":"C#3","midi":49,"time":14.668749999999969,"velocity":0.5275590551181102,"duration":0.13541666666666607},{"name":"D#3","midi":51,"time":14.804166666666635,"velocity":0.5275590551181102,"duration":0.13541666666666607},{"name":"B3","midi":59,"time":14.941666666666634,"velocity":0.5275590551181102,"duration":0.13333333333333286},{"name":"G#2","midi":44,"time":14.943749999999968,"velocity":0.6062992125984252,"duration":0.5395833333333311},{"name":"A#3","midi":58,"time":15.0770833333333,"velocity":0.5275590551181102,"duration":0.13541666666666607},{"name":"G#3","midi":56,"time":15.212499999999967,"velocity":0.5275590551181102,"duration":0.13333333333333286},{"name":"A#3","midi":58,"time":15.347916666666633,"velocity":0.5275590551181102,"duration":0.13541666666666607},{"name":"C#3","midi":49,"time":15.485416666666632,"velocity":0.5275590551181102,"duration":0.5479166666666639},{"name":"F4","midi":65,"time":15.485416666666632,"velocity":0.5275590551181102,"duration":0.5499999999999989},{"name":"B3","midi":59,"time":15.487499999999965,"velocity":0.5275590551181102,"duration":0.13333333333333286},{"name":"G#3","midi":56,"time":15.620833333333298,"velocity":0.5275590551181102,"duration":0.13541666666666607},{"name":"A#3","midi":58,"time":15.756249999999964,"velocity":0.5275590551181102,"duration":0.1395833333333325},{"name":"B3","midi":59,"time":15.895833333333297,"velocity":0.5275590551181102,"duration":0.1374999999999993},{"name":"F#4","midi":66,"time":16.03541666666663,"velocity":0.5275590551181102,"duration":2.172916666666687},{"name":"A#3","midi":58,"time":16.03541666666663,"velocity":0.5275590551181102,"duration":0.5479166666666728},{"name":"F#2","midi":42,"time":16.037499999999966,"velocity":0.6062992125984252,"duration":0.13333333333333286},{"name":"C#3","midi":49,"time":16.172916666666634,"velocity":0.5275590551181102,"duration":0.13541666666666785},{"name":"B2","midi":47,"time":16.310416666666637,"velocity":0.6062992125984252,"duration":0.13541666666666785},{"name":"C#3","midi":49,"time":16.445833333333304,"velocity":0.5275590551181102,"duration":0.1374999999999993},{"name":"B3","midi":59,"time":16.58541666666664,"velocity":0.5275590551181102,"duration":0.5437500000000028},{"name":"D#3","midi":51,"time":16.58541666666664,"velocity":0.5275590551181102,"duration":0.13333333333333286},{"name":"B2","midi":47,"time":16.720833333333307,"velocity":0.6062992125984252,"duration":0.13333333333333286},{"name":"C#3","midi":49,"time":16.856249999999974,"velocity":0.5275590551181102,"duration":0.1374999999999993},{"name":"D#3","midi":51,"time":16.993749999999974,"velocity":0.5275590551181102,"duration":0.13541666666666785},{"name":"C#4","midi":61,"time":17.131249999999977,"velocity":0.5275590551181102,"duration":0.5375000000000014},{"name":"F#2","midi":42,"time":17.131249999999977,"velocity":0.6062992125984252,"duration":0.13333333333333286},{"name":"A#2","midi":46,"time":17.266666666666644,"velocity":0.6062992125984252,"duration":0.13333333333333286},{"name":"G#2","midi":44,"time":17.399999999999977,"velocity":0.6062992125984252,"duration":0.13333333333333286},{"name":"A#2","midi":46,"time":17.53333333333331,"velocity":0.6062992125984252,"duration":0.13333333333333286},{"name":"D#4","midi":63,"time":17.668749999999978,"velocity":0.5275590551181102,"duration":1.0812500000000114},{"name":"B2","midi":47,"time":17.670833333333313,"velocity":0.6062992125984252,"duration":0.12916666666666643},{"name":"G#2","midi":44,"time":17.802083333333314,"velocity":0.6062992125984252,"duration":0.13541666666666785},{"name":"A#2","midi":46,"time":17.937499999999982,"velocity":0.6062992125984252,"duration":0.13333333333333286},{"name":"B2","midi":47,"time":18.07291666666665,"velocity":0.6062992125984252,"duration":0.13333333333333286},{"name":"E2","midi":40,"time":18.208333333333318,"velocity":0.6062992125984252,"duration":0.5395833333333364},{"name":"G#4","midi":68,"time":18.343749999999986,"velocity":0.5669291338582677,"duration":0.13333333333333286},{"name":"G4","midi":67,"time":18.47708333333332,"velocity":0.5275590551181102,"duration":0.13541666666666785},{"name":"G#4","midi":68,"time":18.61458333333332,"velocity":0.5669291338582677,"duration":0.13333333333333286},{"name":"A#4","midi":70,"time":18.74999999999999,"velocity":0.5669291338582677,"duration":0.13125000000000142},{"name":"C#4","midi":61,"time":18.74999999999999,"velocity":0.5275590551181102,"duration":1.07500000000001},{"name":"E3","midi":52,"time":18.752083333333324,"velocity":0.5275590551181102,"duration":0.53125},{"name":"G4","midi":67,"time":18.88124999999999,"velocity":0.5275590551181102,"duration":0.13333333333333286},{"name":"G#4","midi":68,"time":19.01666666666666,"velocity":0.5669291338582677,"duration":0.13333333333333286},{"name":"A#4","midi":70,"time":19.14999999999999,"velocity":0.5669291338582677,"duration":0.13333333333333286},{"name":"D#3","midi":51,"time":19.28541666666666,"velocity":0.5275590551181102,"duration":1.612500000000015},{"name":"G4","midi":67,"time":19.28541666666666,"velocity":0.5275590551181102,"duration":0.13333333333333286},{"name":"A#4","midi":70,"time":19.420833333333327,"velocity":0.5669291338582677,"duration":0.13125000000000142},{"name":"G#4","midi":68,"time":19.554166666666664,"velocity":0.5669291338582677,"duration":0.13541666666666785},{"name":"A#4","midi":70,"time":19.68958333333333,"velocity":0.5669291338582677,"duration":0.13333333333333286},{"name":"B4","midi":71,"time":19.825,"velocity":0.5669291338582677,"duration":0.13125000000000142},{"name":"B3","midi":59,"time":19.825,"velocity":0.5275590551181102,"duration":0.5333333333333385},{"name":"G#4","midi":68,"time":19.958333333333336,"velocity":0.5669291338582677,"duration":0.13125000000000142},{"name":"A#4","midi":70,"time":20.089583333333337,"velocity":0.5669291338582677,"duration":0.13333333333333286},{"name":"B4","midi":71,"time":20.225000000000005,"velocity":0.5669291338582677,"duration":0.13333333333333286},{"name":"C#5","midi":73,"time":20.358333333333338,"velocity":0.5669291338582677,"duration":0.13541666666666785},{"name":"A#3","midi":58,"time":20.360416666666673,"velocity":0.5275590551181102,"duration":0.2687500000000007},{"name":"G#5","midi":80,"time":20.493750000000006,"velocity":0.5196850393700787,"duration":0.13541666666666785},{"name":"G5","midi":79,"time":20.63125000000001,"velocity":0.5196850393700787,"duration":0.13333333333333286},{"name":"G#3","midi":56,"time":20.63125000000001,"velocity":0.5275590551181102,"duration":0.53541666666667},{"name":"G#5","midi":80,"time":20.76458333333334,"velocity":0.5196850393700787,"duration":0.13333333333333286},{"name":"A#5","midi":82,"time":20.90000000000001,"velocity":0.5196850393700787,"duration":0.13125000000000142},{"name":"C#3","midi":49,"time":20.90000000000001,"velocity":0.5275590551181102,"duration":0.5333333333333421},{"name":"G5","midi":79,"time":21.033333333333346,"velocity":0.5196850393700787,"duration":0.13333333333333286},{"name":"G#5","midi":80,"time":21.168750000000014,"velocity":0.5196850393700787,"duration":0.13125000000000142},{"name":"G3","midi":55,"time":21.168750000000014,"velocity":0.5275590551181102,"duration":0.39583333333333925},{"name":"A#5","midi":82,"time":21.300000000000015,"velocity":0.5196850393700787,"duration":0.13125000000000142},{"name":"D#5","midi":75,"time":21.43333333333335,"velocity":0.5669291338582677,"duration":1.0583333333333513},{"name":"B2","midi":47,"time":21.435416666666686,"velocity":0.6062992125984252,"duration":0.26250000000000284},{"name":"A#4","midi":70,"time":21.564583333333353,"velocity":0.5669291338582677,"duration":0.13125000000000142},{"name":"G#4","midi":68,"time":21.69791666666669,"velocity":0.5669291338582677,"duration":0.12916666666666998},{"name":"A#2","midi":46,"time":21.700000000000024,"velocity":0.6062992125984252,"duration":0.2604166666666714},{"name":"A#4","midi":70,"time":21.829166666666694,"velocity":0.5669291338582677,"duration":0.13125000000000142},{"name":"B4","midi":71,"time":21.96250000000003,"velocity":0.5669291338582677,"duration":0.12916666666666643},{"name":"G#2","midi":44,"time":21.96250000000003,"velocity":0.6062992125984252,"duration":0.6625000000000085},{"name":"G#4","midi":68,"time":22.093750000000032,"velocity":0.5669291338582677,"duration":0.13125000000000142},{"name":"A#4","midi":70,"time":22.225000000000033,"velocity":0.5669291338582677,"duration":0.13125000000000142},{"name":"B4","midi":71,"time":22.356250000000035,"velocity":0.5669291338582677,"duration":0.13333333333333286},{"name":"C#5","midi":73,"time":22.491666666666703,"velocity":0.5669291338582677,"duration":1.1958333333333542},{"name":"E4","midi":64,"time":22.493750000000038,"velocity":0.5275590551181102,"duration":0.13125000000000142},{"name":"B4","midi":71,"time":22.62500000000004,"velocity":0.5669291338582677,"duration":0.1333333333333364},{"name":"G#3","midi":56,"time":22.627083333333374,"velocity":0.5275590551181102,"duration":0.13125000000000142},{"name":"A#4","midi":70,"time":22.76041666666671,"velocity":0.5669291338582677,"duration":0.1333333333333364},{"name":"G3","midi":55,"time":22.76041666666671,"velocity":0.5275590551181102,"duration":0.13125000000000142},{"name":"G#4","midi":68,"time":22.893750000000047,"velocity":0.5669291338582677,"duration":0.1354166666666714},{"name":"G#3","midi":56,"time":22.895833333333382,"velocity":0.5275590551181102,"duration":0.13125000000000142},{"name":"G4","midi":67,"time":23.02916666666672,"velocity":0.5275590551181102,"duration":1.0583333333333442},{"name":"A#3","midi":58,"time":23.031250000000053,"velocity":0.5275590551181102,"duration":0.12916666666666643},{"name":"G3","midi":55,"time":23.16041666666672,"velocity":0.5275590551181102,"duration":0.13333333333333286},{"name":"G#3","midi":56,"time":23.295833333333388,"velocity":0.5275590551181102,"duration":0.12916666666666643},{"name":"A#3","midi":58,"time":23.42708333333339,"velocity":0.5275590551181102,"duration":0.13125000000000142},{"name":"E3","midi":52,"time":23.55833333333339,"velocity":0.5275590551181102,"duration":0.26250000000000284},{"name":"D#5","midi":75,"time":23.689583333333392,"velocity":0.5669291338582677,"duration":0.13125000000000142},{"name":"C#5","midi":73,"time":23.82291666666673,"velocity":0.5669291338582677,"duration":0.12916666666666643},{"name":"E4","midi":64,"time":23.82291666666673,"velocity":0.5275590551181102,"duration":0.2645833333333343},{"name":"D#5","midi":75,"time":23.952083333333395,"velocity":0.5669291338582677,"duration":0.13333333333333286},{"name":"G#4","midi":68,"time":24.089583333333398,"velocity":0.5669291338582677,"duration":1.0625000000000178},{"name":"E5","midi":76,"time":24.089583333333398,"velocity":0.5669291338582677,"duration":0.12916666666666998},{"name":"D#4","midi":63,"time":24.091666666666733,"velocity":0.5275590551181102,"duration":0.26250000000000284},{"name":"C#5","midi":73,"time":24.218750000000068,"velocity":0.5669291338582677,"duration":0.13333333333333286},{"name":"D#5","midi":75,"time":24.354166666666735,"velocity":0.5669291338582677,"duration":0.13125000000000142},{"name":"C#4","midi":61,"time":24.354166666666735,"velocity":0.5275590551181102,"duration":0.26666666666666927},{"name":"E5","midi":76,"time":24.48750000000007,"velocity":0.5669291338582677,"duration":0.13333333333333286},{"name":"A#4","midi":70,"time":24.62291666666674,"velocity":0.5669291338582677,"duration":0.13125000000000142},{"name":"D#4","midi":63,"time":24.62291666666674,"velocity":0.5275590551181102,"duration":0.26458333333333783},{"name":"B4","midi":71,"time":24.75416666666674,"velocity":0.5669291338582677,"duration":0.13125000000000142},{"name":"A#4","midi":70,"time":24.887500000000077,"velocity":0.5669291338582677,"duration":0.13125000000000142},{"name":"C#4","midi":61,"time":24.889583333333412,"velocity":0.5275590551181102,"duration":0.26041666666666785},{"name":"B4","midi":71,"time":25.01875000000008,"velocity":0.5669291338582677,"duration":0.13125000000000142},{"name":"C#5","midi":73,"time":25.152083333333415,"velocity":0.5669291338582677,"duration":0.12916666666666998},{"name":"G4","midi":67,"time":25.15416666666675,"velocity":0.5275590551181102,"duration":0.5270833333333442},{"name":"D#4","midi":63,"time":25.15416666666675,"velocity":0.5275590551181102,"duration":0.2604166666666714},{"name":"A#4","midi":70,"time":25.28333333333342,"velocity":0.5669291338582677,"duration":0.13125000000000142},{"name":"B4","midi":71,"time":25.416666666666757,"velocity":0.5669291338582677,"duration":0.13125000000000142},{"name":"D#3","midi":51,"time":25.416666666666757,"velocity":0.5275590551181102,"duration":0.26250000000000284},{"name":"C#5","midi":73,"time":25.547916666666758,"velocity":0.5669291338582677,"duration":0.12916666666666643},{"name":"G#4","midi":68,"time":25.681250000000095,"velocity":0.5669291338582677,"duration":0.5312500000000107},{"name":"B4","midi":71,"time":25.681250000000095,"velocity":0.5669291338582677,"duration":0.26458333333333783},{"name":"G#3","midi":56,"time":25.68333333333343,"velocity":0.5275590551181102,"duration":0.12916666666666643},{"name":"A#3","midi":58,"time":25.81458333333343,"velocity":0.5275590551181102,"duration":0.13125000000000142},{"name":"D#5","midi":75,"time":25.947916666666767,"velocity":0.5669291338582677,"duration":0.26458333333333783},{"name":"G#3","midi":56,"time":25.947916666666767,"velocity":0.5275590551181102,"duration":0.13125000000000142},{"name":"A#3","midi":58,"time":26.07916666666677,"velocity":0.5275590551181102,"duration":0.13125000000000142},{"name":"G#5","midi":80,"time":26.212500000000105,"velocity":0.5669291338582677,"duration":0.2645833333333343},{"name":"B3","midi":59,"time":26.21458333333344,"velocity":0.5275590551181102,"duration":0.12916666666666643},{"name":"G#3","midi":56,"time":26.343750000000107,"velocity":0.5275590551181102,"duration":0.13333333333333286},{"name":"F#5","midi":78,"time":26.479166666666774,"velocity":0.5669291338582677,"duration":0.26250000000000284},{"name":"A#3","midi":58,"time":26.479166666666774,"velocity":0.5275590551181102,"duration":0.12916666666666643},{"name":"B3","midi":59,"time":26.610416666666776,"velocity":0.5275590551181102,"duration":0.13125000000000142},{"name":"F5","midi":77,"time":26.743750000000112,"velocity":0.5669291338582677,"duration":1.0604166666666828},{"name":"C#3","midi":49,"time":26.743750000000112,"velocity":0.5275590551181102,"duration":0.26666666666666927},{"name":"C#5","midi":73,"time":26.875000000000114,"velocity":0.5669291338582677,"duration":0.13333333333333286},{"name":"B4","midi":71,"time":27.01041666666678,"velocity":0.5669291338582677,"duration":0.1333333333333364},{"name":"C#4","midi":61,"time":27.012500000000117,"velocity":0.5275590551181102,"duration":0.13125000000000142},{"name":"C#5","midi":73,"time":27.145833333333453,"velocity":0.5669291338582677,"duration":0.12916666666666643},{"name":"B3","midi":59,"time":27.145833333333453,"velocity":0.5275590551181102,"duration":0.12916666666666643},{"name":"D5","midi":74,"time":27.277083333333454,"velocity":0.5669291338582677,"duration":0.12916666666666643},{"name":"A3","midi":57,"time":27.277083333333454,"velocity":0.5275590551181102,"duration":0.26250000000000284},{"name":"B4","midi":71,"time":27.408333333333456,"velocity":0.5669291338582677,"duration":0.13125000000000142},{"name":"C#5","midi":73,"time":27.541666666666792,"velocity":0.5669291338582677,"duration":0.12916666666666643},{"name":"G#3","midi":56,"time":27.541666666666792,"velocity":0.5275590551181102,"duration":0.26250000000000284},{"name":"D5","midi":74,"time":27.672916666666794,"velocity":0.5669291338582677,"duration":0.12916666666666643},{"name":"A4","midi":69,"time":27.80625000000013,"velocity":0.5669291338582677,"duration":1.0625000000000142},{"name":"F#3","midi":54,"time":27.80625000000013,"velocity":0.5275590551181102,"duration":0.12916666666666643},{"name":"G#3","midi":56,"time":27.935416666666796,"velocity":0.5275590551181102,"duration":0.13333333333333286},{"name":"C#5","midi":73,"time":28.070833333333464,"velocity":0.5669291338582677,"duration":0.26666666666666927},{"name":"F#3","midi":54,"time":28.070833333333464,"velocity":0.5275590551181102,"duration":0.13125000000000142},{"name":"G#3","midi":56,"time":28.2041666666668,"velocity":0.5275590551181102,"duration":0.13333333333333286},{"name":"F#5","midi":78,"time":28.33958333333347,"velocity":0.5669291338582677,"duration":0.26250000000000284},{"name":"A3","midi":57,"time":28.33958333333347,"velocity":0.5275590551181102,"duration":0.12916666666666643},{"name":"F#3","midi":54,"time":28.47083333333347,"velocity":0.5275590551181102,"duration":0.12916666666666643},{"name":"E5","midi":76,"time":28.60208333333347,"velocity":0.5669291338582677,"duration":0.2666666666666728},{"name":"G#3","midi":56,"time":28.604166666666806,"velocity":0.5275590551181102,"duration":0.13125000000000142},{"name":"A3","midi":57,"time":28.735416666666808,"velocity":0.5275590551181102,"duration":0.13125000000000142},{"name":"D#5","midi":75,"time":28.87083333333348,"velocity":0.5669291338582677,"duration":1.0666666666666877},{"name":"B2","midi":47,"time":28.87083333333348,"velocity":0.6062992125984252,"duration":0.2645833333333343},{"name":"A4","midi":69,"time":29.000000000000146,"velocity":0.5669291338582677,"duration":0.13541666666666785},{"name":"G#4","midi":68,"time":29.13750000000015,"velocity":0.5669291338582677,"duration":0.1333333333333364},{"name":"B3","midi":59,"time":29.13750000000015,"velocity":0.5275590551181102,"duration":0.13125000000000142},{"name":"A4","midi":69,"time":29.270833333333485,"velocity":0.5669291338582677,"duration":0.1333333333333364},{"name":"A3","midi":57,"time":29.27291666666682,"velocity":0.5275590551181102,"duration":0.12916666666666643},{"name":"B4","midi":71,"time":29.40416666666682,"velocity":0.5669291338582677,"duration":0.1333333333333364},{"name":"G#3","midi":56,"time":29.406250000000156,"velocity":0.5275590551181102,"duration":0.26666666666666927},{"name":"F#4","midi":66,"time":29.537500000000158,"velocity":0.5275590551181102,"duration":0.13333333333333286},{"name":"G#4","midi":68,"time":29.672916666666826,"velocity":0.5669291338582677,"duration":0.12916666666666998},{"name":"F#3","midi":54,"time":29.67500000000016,"velocity":0.5275590551181102,"duration":0.2604166666666714},{"name":"A4","midi":69,"time":29.80416666666683,"velocity":0.5669291338582677,"duration":0.13125000000000142},{"name":"E5","midi":76,"time":29.937500000000167,"velocity":0.5669291338582677,"duration":1.2020833333333485},{"name":"G#4","midi":68,"time":29.939583333333502,"velocity":0.5669291338582677,"duration":0.5270833333333407},{"name":"E3","midi":52,"time":29.939583333333502,"velocity":0.5275590551181102,"duration":0.127083333333335},{"name":"D#3","midi":51,"time":30.068750000000172,"velocity":0.5275590551181102,"duration":0.13125000000000142},{"name":"E3","midi":52,"time":30.200000000000173,"velocity":0.5275590551181102,"duration":0.13333333333333286},{"name":"D#3","midi":51,"time":30.333333333333506,"velocity":0.5275590551181102,"duration":0.13125000000000142},{"name":"A#4","midi":70,"time":30.468750000000178,"velocity":0.5669291338582677,"duration":0.2687500000000007},{"name":"C#3","midi":49,"time":30.468750000000178,"velocity":0.5275590551181102,"duration":0.13333333333333286},{"name":"E3","midi":52,"time":30.60208333333351,"velocity":0.5275590551181102,"duration":0.13333333333333286},{"name":"B4","midi":71,"time":30.73750000000018,"velocity":0.5669291338582677,"duration":0.26666666666666927},{"name":"D#3","midi":51,"time":30.73750000000018,"velocity":0.5275590551181102,"duration":0.13125000000000142},{"name":"C#3","midi":49,"time":30.870833333333515,"velocity":0.5275590551181102,"duration":0.13333333333333286},{"name":"A#4","midi":70,"time":31.004166666666848,"velocity":0.5669291338582677,"duration":0.537500000000005},{"name":"F#3","midi":54,"time":31.006250000000183,"velocity":0.5275590551181102,"duration":0.53541666666667},{"name":"C#5","midi":73,"time":31.14166666666685,"velocity":0.5669291338582677,"duration":0.13125000000000142},{"name":"B4","midi":71,"time":31.272916666666852,"velocity":0.5669291338582677,"duration":0.13333333333333286},{"name":"C#5","midi":73,"time":31.406250000000185,"velocity":0.5669291338582677,"duration":0.13333333333333286},{"name":"A4","midi":69,"time":31.543750000000188,"velocity":0.5669291338582677,"duration":0.5291666666666686},{"name":"D#5","midi":75,"time":31.543750000000188,"velocity":0.5669291338582677,"duration":0.13125000000000142},{"name":"B2","midi":47,"time":31.545833333333523,"velocity":0.6062992125984252,"duration":0.5270833333333336},{"name":"B4","midi":71,"time":31.67500000000019,"velocity":0.5669291338582677,"duration":0.13125000000000142},{"name":"C#5","midi":73,"time":31.80625000000019,"velocity":0.5669291338582677,"duration":0.13333333333333286},{"name":"D#5","midi":75,"time":31.94166666666686,"velocity":0.5669291338582677,"duration":0.6687499999999922},{"name":"G#4","midi":68,"time":32.07500000000019,"velocity":0.5669291338582677,"duration":1.3520833333333186},{"name":"E3","midi":52,"time":32.07500000000019,"velocity":0.5275590551181102,"duration":0.13125000000000142},{"name":"D#4","midi":63,"time":32.20625000000019,"velocity":0.5275590551181102,"duration":0.13333333333333286},{"name":"C#4","midi":61,"time":32.34166666666685,"velocity":0.5275590551181102,"duration":0.13333333333333286},{"name":"D#4","midi":63,"time":32.47708333333352,"velocity":0.5275590551181102,"duration":0.13333333333333286},{"name":"C#5","midi":73,"time":32.61250000000018,"velocity":0.5669291338582677,"duration":0.2708333333333286},{"name":"E4","midi":64,"time":32.61250000000018,"velocity":0.5275590551181102,"duration":0.13333333333333286},{"name":"C#4","midi":61,"time":32.747916666666846,"velocity":0.5275590551181102,"duration":0.13333333333333286},{"name":"B4","midi":71,"time":32.88333333333351,"velocity":0.5669291338582677,"duration":0.27291666666666714},{"name":"D#4","midi":63,"time":32.88541666666684,"velocity":0.5275590551181102,"duration":0.13333333333333286},{"name":"E4","midi":64,"time":33.018750000000175,"velocity":0.5275590551181102,"duration":0.13750000000000284},{"name":"A#4","midi":70,"time":33.15833333333351,"velocity":0.5669291338582677,"duration":0.5395833333333258},{"name":"F#3","midi":54,"time":33.15833333333351,"velocity":0.5275590551181102,"duration":0.13125000000000142},{"name":"G#3","midi":56,"time":33.29166666666684,"velocity":0.5275590551181102,"duration":0.13333333333333286},{"name":"F#4","midi":66,"time":33.427083333333506,"velocity":0.5275590551181102,"duration":0.2708333333333286},{"name":"E3","midi":52,"time":33.42916666666684,"velocity":0.5275590551181102,"duration":0.13125000000000142},{"name":"F#3","midi":54,"time":33.56041666666684,"velocity":0.5275590551181102,"duration":0.1354166666666643},{"name":"B4","midi":71,"time":33.700000000000166,"velocity":0.5669291338582677,"duration":1.0791666666666515},{"name":"E4","midi":64,"time":33.700000000000166,"velocity":0.5275590551181102,"duration":0.2666666666666657},{"name":"G#3","midi":56,"time":33.700000000000166,"velocity":0.5275590551181102,"duration":0.12916666666666998},{"name":"E3","midi":52,"time":33.83125000000017,"velocity":0.5275590551181102,"duration":0.1354166666666643},{"name":"F#3","midi":54,"time":33.96875000000016,"velocity":0.5275590551181102,"duration":0.13333333333333286},{"name":"D#4","midi":63,"time":33.96875000000016,"velocity":0.5275590551181102,"duration":0.26874999999999716},{"name":"G#3","midi":56,"time":34.102083333333496,"velocity":0.5275590551181102,"duration":0.13333333333333286},{"name":"E4","midi":64,"time":34.23750000000016,"velocity":0.5275590551181102,"duration":0.1354166666666643},{"name":"C#3","midi":49,"time":34.23958333333349,"velocity":0.5275590551181102,"duration":0.5395833333333258},{"name":"D#4","midi":63,"time":34.372916666666825,"velocity":0.5275590551181102,"duration":0.1354166666666643},{"name":"C#4","midi":61,"time":34.50833333333349,"velocity":0.5275590551181102,"duration":0.13333333333333286},{"name":"D#4","midi":63,"time":34.64375000000015,"velocity":0.5275590551181102,"duration":0.13333333333333286},{"name":"A#4","midi":70,"time":34.78125000000015,"velocity":0.5669291338582677,"duration":0.5437499999999957},{"name":"F#3","midi":54,"time":34.78125000000015,"velocity":0.5275590551181102,"duration":0.5437499999999957},{"name":"E4","midi":64,"time":34.78333333333348,"velocity":0.5275590551181102,"duration":0.13125000000000142},{"name":"C#4","midi":61,"time":34.91458333333348,"velocity":0.5275590551181102,"duration":0.1354166666666643},{"name":"D#4","midi":63,"time":35.050000000000146,"velocity":0.5275590551181102,"duration":0.13750000000000284},{"name":"E4","midi":64,"time":35.18958333333348,"velocity":0.5275590551181102,"duration":0.1354166666666643},{"name":"D#4","midi":63,"time":35.327083333333476,"velocity":0.5275590551181102,"duration":0.5291666666666686},{"name":"B2","midi":47,"time":35.327083333333476,"velocity":0.6062992125984252,"duration":1.1833333333333442},{"name":"A4","midi":69,"time":35.456250000000146,"velocity":0.5669291338582677,"duration":0.13333333333333286},{"name":"B4","midi":71,"time":35.59166666666681,"velocity":0.5669291338582677,"duration":0.13125000000000142},{"name":"A4","midi":69,"time":35.72291666666681,"velocity":0.5669291338582677,"duration":0.13125000000000142},{"name":"G#4","midi":68,"time":35.856250000000145,"velocity":0.5669291338582677,"duration":0.13125000000000142},{"name":"E4","midi":64,"time":35.858333333333476,"velocity":0.5275590551181102,"duration":1.04375000000001},{"name":"B4","midi":71,"time":35.987500000000146,"velocity":0.5669291338582677,"duration":0.13125000000000142},{"name":"A4","midi":69,"time":36.12083333333348,"velocity":0.5669291338582677,"duration":0.12916666666666998},{"name":"G#4","midi":68,"time":36.25000000000015,"velocity":0.5669291338582677,"duration":0.13125000000000142},{"name":"F#4","midi":66,"time":36.38125000000015,"velocity":0.5275590551181102,"duration":1.1583333333333314},{"name":"C#3","midi":49,"time":36.51250000000015,"velocity":0.5275590551181102,"duration":0.12916666666666998},{"name":"D#3","midi":51,"time":36.64166666666682,"velocity":0.5275590551181102,"duration":0.12916666666666998},{"name":"E3","midi":52,"time":36.77291666666682,"velocity":0.5275590551181102,"duration":0.12708333333333144},{"name":"D#4","midi":63,"time":36.902083333333486,"velocity":0.5275590551181102,"duration":0.26249999999999574},{"name":"F#3","midi":54,"time":36.90416666666682,"velocity":0.5275590551181102,"duration":0.12708333333333144},{"name":"A3","midi":57,"time":37.03125000000015,"velocity":0.5275590551181102,"duration":0.13125000000000142},{"name":"C#4","midi":61,"time":37.16458333333348,"velocity":0.5275590551181102,"duration":0.2645833333333343},{"name":"G#3","midi":56,"time":37.16666666666681,"velocity":0.5275590551181102,"duration":0.12916666666666998},{"name":"F#3","midi":54,"time":37.29583333333348,"velocity":0.5275590551181102,"duration":0.13333333333333286},{"name":"G#3","midi":56,"time":37.43125000000015,"velocity":0.5275590551181102,"duration":2.0895833333333513},{"name":"B3","midi":59,"time":37.43125000000015,"velocity":0.5275590551181102,"duration":2.0916666666666828},{"name":"F#4","midi":66,"time":37.56041666666682,"velocity":0.5275590551181102,"duration":0.13125000000000142},{"name":"G#4","midi":68,"time":37.69166666666682,"velocity":0.5669291338582677,"duration":0.13125000000000142},{"name":"F#4","midi":66,"time":37.82500000000015,"velocity":0.5275590551181102,"duration":0.12708333333333144},{"name":"F4","midi":65,"time":37.954166666666815,"velocity":0.5275590551181102,"duration":0.13125000000000142},{"name":"G#4","midi":68,"time":38.085416666666816,"velocity":0.5669291338582677,"duration":0.12916666666666998},{"name":"F#4","midi":66,"time":38.21666666666682,"velocity":0.5275590551181102,"duration":0.12916666666666998},{"name":"F4","midi":65,"time":38.34583333333349,"velocity":0.5275590551181102,"duration":1.1750000000000114},{"name":"B4","midi":71,"time":38.47500000000016,"velocity":0.5669291338582677,"duration":0.12916666666666998},{"name":"C#5","midi":73,"time":38.60625000000016,"velocity":0.5669291338582677,"duration":0.12916666666666998},{"name":"B4","midi":71,"time":38.73541666666683,"velocity":0.5669291338582677,"duration":0.12708333333333144},{"name":"C#5","midi":73,"time":38.86458333333349,"velocity":0.5669291338582677,"duration":0.13125000000000142},{"name":"D5","midi":74,"time":38.99583333333349,"velocity":0.5669291338582677,"duration":0.12916666666666998},{"name":"B4","midi":71,"time":39.12500000000016,"velocity":0.5669291338582677,"duration":0.12916666666666998},{"name":"C#5","midi":73,"time":39.256250000000165,"velocity":0.5669291338582677,"duration":0.13125000000000142},{"name":"D5","midi":74,"time":39.387500000000166,"velocity":0.5669291338582677,"duration":0.13125000000000142},{"name":"A4","midi":69,"time":39.52291666666683,"velocity":0.5669291338582677,"duration":0.5270833333333229},{"name":"F#3","midi":54,"time":39.52500000000016,"velocity":0.5275590551181102,"duration":2.2083333333333286},{"name":"F#4","midi":66,"time":39.52500000000016,"velocity":0.5275590551181102,"duration":0.2291666666666643},{"name":"E4","midi":64,"time":39.65000000000016,"velocity":0.5275590551181102,"duration":0.13124999999999432},{"name":"F#4","midi":66,"time":39.781250000000156,"velocity":0.5275590551181102,"duration":0.13333333333333286},{"name":"E4","midi":64,"time":39.91666666666682,"velocity":0.5275590551181102,"duration":0.13125000000000142},{"name":"G#4","midi":68,"time":40.05000000000015,"velocity":0.5669291338582677,"duration":0.5249999999999986},{"name":"B4","midi":71,"time":40.05000000000015,"velocity":0.5669291338582677,"duration":0.52708333333333},{"name":"D#4","midi":63,"time":40.05000000000015,"velocity":0.5275590551181102,"duration":0.13125000000000142},{"name":"F#4","midi":66,"time":40.181250000000155,"velocity":0.5275590551181102,"duration":0.13333333333333286},{"name":"E4","midi":64,"time":40.31458333333349,"velocity":0.5275590551181102,"duration":0.13125000000000142},{"name":"D#4","midi":63,"time":40.44791666666682,"velocity":0.5275590551181102,"duration":0.12708333333333144},{"name":"C#5","midi":73,"time":40.579166666666815,"velocity":0.5669291338582677,"duration":0.5208333333333428},{"name":"A#4","midi":70,"time":40.579166666666815,"velocity":0.5669291338582677,"duration":0.5229166666666742},{"name":"C#4","midi":61,"time":40.708333333333485,"velocity":0.5275590551181102,"duration":0.13125000000000142},{"name":"D#4","midi":63,"time":40.84166666666682,"velocity":0.5275590551181102,"duration":0.12916666666666998},{"name":"C#4","midi":61,"time":40.97083333333349,"velocity":0.5275590551181102,"duration":0.12916666666666998},{"name":"B4","midi":71,"time":41.10208333333349,"velocity":0.5669291338582677,"duration":0.5208333333333357},{"name":"D#5","midi":75,"time":41.10208333333349,"velocity":0.5669291338582677,"duration":0.5229166666666671},{"name":"B3","midi":59,"time":41.10416666666682,"velocity":0.5275590551181102,"duration":0.12708333333333144},{"name":"D#4","midi":63,"time":41.23333333333348,"velocity":0.5275590551181102,"duration":0.12916666666666998},{"name":"C#4","midi":61,"time":41.36250000000015,"velocity":0.5275590551181102,"duration":0.12916666666666998},{"name":"B3","midi":59,"time":41.493750000000155,"velocity":0.5275590551181102,"duration":0.12916666666666998},{"name":"C#5","midi":73,"time":41.625000000000156,"velocity":0.5511811023622047,"duration":0.53125},{"name":"A3","midi":57,"time":41.625000000000156,"velocity":0.5275590551181102,"duration":0.53125},{"name":"E5","midi":76,"time":41.75625000000016,"velocity":0.5511811023622047,"duration":0.13333333333333286},{"name":"F#3","midi":54,"time":41.75625000000016,"velocity":0.5275590551181102,"duration":0.13125000000000142},{"name":"F#5","midi":78,"time":41.88958333333349,"velocity":0.5511811023622047,"duration":0.13333333333333286},{"name":"E3","midi":52,"time":41.89166666666682,"velocity":0.5275590551181102,"duration":0.13125000000000142},{"name":"E5","midi":76,"time":42.025000000000155,"velocity":0.5511811023622047,"duration":0.12916666666666998},{"name":"F#3","midi":54,"time":42.025000000000155,"velocity":0.5275590551181102,"duration":0.12916666666666998},{"name":"B4","midi":71,"time":42.15833333333349,"velocity":0.5511811023622047,"duration":0.5333333333333314},{"name":"D#5","midi":75,"time":42.15833333333349,"velocity":0.5511811023622047,"duration":0.13333333333333286},{"name":"B3","midi":59,"time":42.16041666666682,"velocity":0.5275590551181102,"duration":0.5291666666666686},{"name":"G#3","midi":56,"time":42.16041666666682,"velocity":0.5275590551181102,"duration":0.12916666666666998},{"name":"F#5","midi":78,"time":42.29166666666682,"velocity":0.5511811023622047,"duration":0.13333333333333286},{"name":"E3","midi":52,"time":42.29375000000015,"velocity":0.5275590551181102,"duration":0.13125000000000142},{"name":"E5","midi":76,"time":42.42500000000015,"velocity":0.5511811023622047,"duration":0.13125000000000142},{"name":"F#3","midi":54,"time":42.427083333333485,"velocity":0.5275590551181102,"duration":0.12916666666666998},{"name":"D#5","midi":75,"time":42.558333333333486,"velocity":0.5511811023622047,"duration":0.13125000000000142},{"name":"G#3","midi":56,"time":42.558333333333486,"velocity":0.5275590551181102,"duration":0.12916666666666998},{"name":"C#5","midi":73,"time":42.69166666666682,"velocity":0.5511811023622047,"duration":0.5291666666666686},{"name":"F#3","midi":54,"time":42.69375000000015,"velocity":0.5275590551181102,"duration":1.2041666666666657},{"name":"A#2","midi":46,"time":42.69375000000015,"velocity":0.6062992125984252,"duration":0.5250000000000057},{"name":"E4","midi":64,"time":42.82291666666682,"velocity":0.5275590551181102,"duration":0.12916666666666998},{"name":"F#4","midi":66,"time":42.95208333333349,"velocity":0.5275590551181102,"duration":0.13125000000000142},{"name":"E4","midi":64,"time":43.08541666666682,"velocity":0.5275590551181102,"duration":0.13333333333333286},{"name":"B4","midi":71,"time":43.22083333333349,"velocity":0.5511811023622047,"duration":1.0874999999999844},{"name":"D#4","midi":63,"time":43.22291666666682,"velocity":0.5275590551181102,"duration":0.13125000000000142},{"name":"B2","midi":47,"time":43.22291666666682,"velocity":0.6062992125984252,"duration":0.5395833333333329},{"name":"F#4","midi":66,"time":43.35416666666682,"velocity":0.5275590551181102,"duration":0.13750000000000284},{"name":"E4","midi":64,"time":43.493750000000155,"velocity":0.5275590551181102,"duration":0.13333333333333286},{"name":"D#4","midi":63,"time":43.62916666666682,"velocity":0.5275590551181102,"duration":0.13333333333333286},{"name":"C#4","midi":61,"time":43.76458333333348,"velocity":0.5275590551181102,"duration":1.0749999999999815},{"name":"F#2","midi":42,"time":43.76458333333348,"velocity":0.6062992125984252,"duration":1.0958333333333101},{"name":"D#3","midi":51,"time":43.90000000000015,"velocity":0.5275590551181102,"duration":0.1354166666666643},{"name":"C#3","midi":49,"time":44.03750000000014,"velocity":0.5275590551181102,"duration":0.12083333333333002},{"name":"D#3","midi":51,"time":44.17291666666681,"velocity":0.5275590551181102,"duration":0.12083333333333002},{"name":"A#4","midi":70,"time":44.30833333333347,"velocity":0.5669291338582677,"duration":0.5520833333333215},{"name":"F#4","midi":66,"time":44.310416666666804,"velocity":0.5275590551181102,"duration":0.52708333333333},{"name":"E3","midi":52,"time":44.310416666666804,"velocity":0.5275590551181102,"duration":0.11874999999999858},{"name":"C#3","midi":49,"time":44.443750000000136,"velocity":0.5275590551181102,"duration":0.11874999999999858},{"name":"D#3","midi":51,"time":44.57500000000014,"velocity":0.5275590551181102,"duration":0.12083333333333002},{"name":"E3","midi":52,"time":44.7104166666668,"velocity":0.5275590551181102,"duration":0.13124999999999432},{"name":"B4","midi":71,"time":44.862500000000125,"velocity":0.3779527559055118,"duration":2.14791666666666},{"name":"D#3","midi":51,"time":44.862500000000125,"velocity":0.2283464566929134,"duration":2.14791666666666},{"name":"F#4","midi":66,"time":44.86458333333346,"velocity":0.25984251968503935,"duration":2.143749999999997},{"name":"B3","midi":59,"time":44.86458333333346,"velocity":0.2283464566929134,"duration":2.143749999999997},{"name":"B2","midi":47,"time":44.86666666666679,"velocity":0.4881889763779528,"duration":2.1395833333333343},{"name":"B3","midi":59,"time":48.254166666666784,"velocity":0.5275590551181102,"duration":0.3270833333333343},{"name":"A#3","midi":58,"time":48.58125000000012,"velocity":0.5275590551181102,"duration":0.31041666666666856},{"name":"B3","midi":59,"time":48.89166666666679,"velocity":0.5275590551181102,"duration":0.2958333333333343},{"name":"C#4","midi":61,"time":49.18958333333345,"velocity":0.5275590551181102,"duration":0.5874999999999986},{"name":"F#3","midi":54,"time":49.77916666666678,"velocity":0.5275590551181102,"duration":0.2979166666666657},{"name":"G#3","midi":56,"time":50.07708333333345,"velocity":0.5275590551181102,"duration":0.14791666666666714},{"name":"A#3","midi":58,"time":50.22708333333345,"velocity":0.5275590551181102,"duration":0.14374999999999716},{"name":"B3","midi":59,"time":50.370833333333444,"velocity":0.5275590551181102,"duration":0.28333333333333144},{"name":"C#4","midi":61,"time":50.654166666666775,"velocity":0.5275590551181102,"duration":0.14166666666666572},{"name":"D#4","midi":63,"time":50.79791666666677,"velocity":0.5275590551181102,"duration":0.13750000000000284},{"name":"E4","midi":64,"time":50.93750000000011,"velocity":0.5275590551181102,"duration":0.28125},{"name":"D#4","midi":63,"time":51.21875000000011,"velocity":0.5275590551181102,"duration":0.26250000000000284},{"name":"D#4","midi":63,"time":51.50833333333344,"velocity":0.4094488188976378,"duration":0.06041666666666856},{"name":"C#4","midi":61,"time":51.56875000000011,"velocity":0.4094488188976378,"duration":0.06666666666666288},{"name":"D#4","midi":63,"time":51.62708333333344,"velocity":0.4094488188976378,"duration":0.06875000000000142},{"name":"C#4","midi":61,"time":51.68750000000011,"velocity":0.4094488188976378,"duration":0.06666666666666288},{"name":"D#4","midi":63,"time":51.74583333333344,"velocity":0.41732283464566927,"duration":0.06458333333333144},{"name":"C#4","midi":61,"time":51.80416666666677,"velocity":0.41732283464566927,"duration":0.06458333333333144},{"name":"D#4","midi":63,"time":51.860416666666765,"velocity":0.41732283464566927,"duration":0.06041666666666856},{"name":"C#4","midi":61,"time":51.91458333333343,"velocity":0.41732283464566927,"duration":0.06041666666666856},{"name":"D#4","midi":63,"time":51.96666666666677,"velocity":0.41732283464566927,"duration":0.06041666666666856},{"name":"C#4","midi":61,"time":52.020833333333435,"velocity":0.41732283464566927,"duration":0.06041666666666856},{"name":"D#4","midi":63,"time":52.0750000000001,"velocity":0.41732283464566927,"duration":0.05833333333333712},{"name":"C#4","midi":61,"time":52.12500000000011,"velocity":0.41732283464566927,"duration":0.06041666666666856},{"name":"D#4","midi":63,"time":52.179166666666774,"velocity":0.41732283464566927,"duration":0.05833333333333712},{"name":"C#4","midi":61,"time":52.23125000000011,"velocity":0.41732283464566927,"duration":0.06041666666666856},{"name":"D#4","midi":63,"time":52.283333333333445,"velocity":0.4409448818897638,"duration":0.06041666666666856},{"name":"C#4","midi":61,"time":52.33541666666678,"velocity":0.4409448818897638,"duration":0.05833333333333002},{"name":"D#4","midi":63,"time":52.38541666666678,"velocity":0.4409448818897638,"duration":0.05833333333333712},{"name":"C#4","midi":61,"time":52.437500000000114,"velocity":0.4566929133858268,"duration":0.05833333333333712},{"name":"D#4","midi":63,"time":52.48750000000012,"velocity":0.4566929133858268,"duration":0.05833333333333002},{"name":"C#4","midi":61,"time":52.537500000000115,"velocity":0.4566929133858268,"duration":0.05624999999999858},{"name":"D#4","midi":63,"time":52.58750000000011,"velocity":0.4566929133858268,"duration":0.05624999999999858},{"name":"C#4","midi":61,"time":52.63541666666678,"velocity":0.4566929133858268,"duration":0.05624999999999858},{"name":"D#4","midi":63,"time":52.683333333333444,"velocity":0.4566929133858268,"duration":0.05624999999999858},{"name":"C#4","midi":61,"time":52.73125000000011,"velocity":0.5039370078740157,"duration":0.04999999999999716},{"name":"B3","midi":59,"time":52.78333333333344,"velocity":0.5275590551181102,"duration":0.8791666666666629},{"name":"F#4","midi":66,"time":53.0750000000001,"velocity":0.5275590551181102,"duration":0.2958333333333343},{"name":"D#4","midi":63,"time":53.37083333333344,"velocity":0.5275590551181102,"duration":0.2916666666666643},{"name":"C#4","midi":61,"time":53.66458333333343,"velocity":0.5275590551181102,"duration":0.14166666666666572},{"name":"E4","midi":64,"time":53.66458333333343,"velocity":0.5275590551181102,"duration":0.2854166666666629},{"name":"B3","midi":59,"time":53.8062500000001,"velocity":0.5275590551181102,"duration":0.14374999999999716},{"name":"F#4","midi":66,"time":53.95208333333343,"velocity":0.5275590551181102,"duration":0.5770833333333201},{"name":"A#3","midi":58,"time":53.95208333333343,"velocity":0.5275590551181102,"duration":0.14166666666666572},{"name":"G#3","midi":56,"time":54.095833333333424,"velocity":0.5275590551181102,"duration":0.14166666666666572},{"name":"F#3","midi":54,"time":54.23958333333342,"velocity":0.5275590551181102,"duration":0.14374999999999716},{"name":"E3","midi":52,"time":54.38541666666675,"velocity":0.5275590551181102,"duration":0.14374999999999716},{"name":"D#3","midi":51,"time":54.52916666666675,"velocity":0.5275590551181102,"duration":0.28958333333333286},{"name":"B3","midi":59,"time":54.53125000000008,"velocity":0.5275590551181102,"duration":0.2875000000000014},{"name":"B3","midi":59,"time":54.82083333333341,"velocity":0.5275590551181102,"duration":0.28958333333333286},{"name":"D#4","midi":63,"time":54.82083333333341,"velocity":0.5275590551181102,"duration":0.14374999999999716},{"name":"F4","midi":65,"time":54.96458333333341,"velocity":0.5275590551181102,"duration":0.1458333333333357},{"name":"A#3","midi":58,"time":55.112500000000075,"velocity":0.5275590551181102,"duration":0.2875000000000014},{"name":"F#4","midi":66,"time":55.11458333333341,"velocity":0.5275590551181102,"duration":0.28541666666667},{"name":"G#4","midi":68,"time":55.40000000000008,"velocity":0.5669291338582677,"duration":0.13958333333333428},{"name":"B3","midi":59,"time":55.40208333333341,"velocity":0.5275590551181102,"duration":0.13750000000000284},{"name":"A#4","midi":70,"time":55.53958333333341,"velocity":0.5669291338582677,"duration":0.13958333333333428},{"name":"C#4","midi":61,"time":55.54166666666674,"velocity":0.5275590551181102,"duration":0.13750000000000284},{"name":"B4","midi":71,"time":55.68125000000008,"velocity":0.5669291338582677,"duration":0.27708333333333},{"name":"D#4","midi":63,"time":55.68125000000008,"velocity":0.5275590551181102,"duration":0.13750000000000284},{"name":"F4","midi":65,"time":55.82083333333341,"velocity":0.5275590551181102,"duration":0.1354166666666643},{"name":"A#4","midi":70,"time":55.95833333333341,"velocity":0.5669291338582677,"duration":0.26249999999999574},{"name":"F#4","midi":66,"time":55.96041666666674,"velocity":0.5275590551181102,"duration":0.6104166666666728},{"name":"A#4","midi":70,"time":56.25000000000007,"velocity":0.4645669291338583,"duration":0.0520833333333357},{"name":"G#4","midi":68,"time":56.30416666666674,"velocity":0.4645669291338583,"duration":0.06041666666666856},{"name":"A#4","midi":70,"time":56.356250000000074,"velocity":0.4645669291338583,"duration":0.0625},{"name":"G#4","midi":68,"time":56.41041666666674,"velocity":0.4645669291338583,"duration":0.0625},{"name":"A#4","midi":70,"time":56.46458333333341,"velocity":0.4645669291338583,"duration":0.06041666666666856},{"name":"G#4","midi":68,"time":56.516666666666744,"velocity":0.4645669291338583,"duration":0.0625},{"name":"A#4","midi":70,"time":56.57291666666674,"velocity":0.4645669291338583,"duration":0.056250000000005684},{"name":"E4","midi":64,"time":56.57291666666674,"velocity":0.5275590551181102,"duration":0.15208333333334423},{"name":"G#4","midi":68,"time":56.62291666666675,"velocity":0.4645669291338583,"duration":0.05833333333333712},{"name":"A#4","midi":70,"time":56.67500000000008,"velocity":0.4645669291338583,"duration":0.056250000000005684},{"name":"G#4","midi":68,"time":56.72500000000009,"velocity":0.4645669291338583,"duration":0.05833333333333712},{"name":"D#4","midi":63,"time":56.72708333333342,"velocity":0.5275590551181102,"duration":0.15000000000000568},{"name":"A#4","midi":70,"time":56.77500000000009,"velocity":0.4645669291338583,"duration":0.06041666666666856},{"name":"G#4","midi":68,"time":56.82708333333343,"velocity":0.4645669291338583,"duration":0.05833333333333002},{"name":"A#4","midi":70,"time":56.877083333333424,"velocity":0.4645669291338583,"duration":0.05833333333333002},{"name":"E4","midi":64,"time":56.879166666666755,"velocity":0.5275590551181102,"duration":0.15000000000000568},{"name":"G#4","midi":68,"time":56.92708333333342,"velocity":0.4645669291338583,"duration":0.05833333333333712},{"name":"A#4","midi":70,"time":56.97916666666676,"velocity":0.4881889763779528,"duration":0.056250000000005684},{"name":"G#4","midi":68,"time":57.02916666666676,"velocity":0.4881889763779528,"duration":0.05624999999999858},{"name":"B3","midi":59,"time":57.03125000000009,"velocity":0.5275590551181102,"duration":0.14374999999999716},{"name":"A#4","midi":70,"time":57.07708333333343,"velocity":0.4881889763779528,"duration":0.05624999999999858},{"name":"G#4","midi":68,"time":57.127083333333424,"velocity":0.4881889763779528,"duration":0.05624999999999858},{"name":"A#4","midi":70,"time":57.17500000000009,"velocity":0.4881889763779528,"duration":0.05624999999999858},{"name":"E4","midi":64,"time":57.17708333333342,"velocity":0.5275590551181102,"duration":0.5770833333333201},{"name":"G#4","midi":68,"time":57.22500000000009,"velocity":0.4881889763779528,"duration":0.05624999999999858},{"name":"A#4","midi":70,"time":57.27291666666675,"velocity":0.4881889763779528,"duration":0.05624999999999858},{"name":"G#4","midi":68,"time":57.32291666666675,"velocity":0.4881889763779528,"duration":0.05624999999999858},{"name":"A#4","midi":70,"time":57.370833333333415,"velocity":0.4881889763779528,"duration":0.05833333333333002},{"name":"G#4","midi":68,"time":57.42083333333341,"velocity":0.47244094488188976,"duration":0.04791666666666572},{"name":"F#4","midi":66,"time":57.47083333333341,"velocity":0.5275590551181102,"duration":0.5770833333333272},{"name":"B4","midi":71,"time":57.75625000000007,"velocity":0.5669291338582677,"duration":0.28958333333333286},{"name":"D#4","midi":63,"time":57.75625000000007,"velocity":0.5275590551181102,"duration":0.28958333333333286},{"name":"A#4","midi":70,"time":58.04791666666674,"velocity":0.5669291338582677,"duration":0.28958333333333286},{"name":"C#4","midi":61,"time":58.05000000000007,"velocity":0.5275590551181102,"duration":0.2875000000000014},{"name":"B4","midi":71,"time":58.3395833333334,"velocity":0.5669291338582677,"duration":0.28125},{"name":"G#4","midi":68,"time":58.3395833333334,"velocity":0.5669291338582677,"duration":0.13958333333333428},{"name":"B3","midi":59,"time":58.34166666666673,"velocity":0.5275590551181102,"duration":0.5625},{"name":"F#4","midi":66,"time":58.479166666666735,"velocity":0.5275590551181102,"duration":0.13958333333333428},{"name":"C#5","midi":73,"time":58.6208333333334,"velocity":0.5669291338582677,"duration":0.5666666666666629},{"name":"E4","midi":64,"time":58.62291666666673,"velocity":0.5275590551181102,"duration":0.13750000000000284},{"name":"D#4","midi":63,"time":58.76250000000007,"velocity":0.5275590551181102,"duration":0.13958333333333428},{"name":"A#3","midi":58,"time":58.90416666666673,"velocity":0.5275590551181102,"duration":0.14166666666666572},{"name":"C#4","midi":61,"time":58.906250000000064,"velocity":0.5275590551181102,"duration":0.13958333333333428},{"name":"G#3","midi":56,"time":59.04791666666673,"velocity":0.5275590551181102,"duration":0.13750000000000284},{"name":"B3","midi":59,"time":59.04791666666673,"velocity":0.5275590551181102,"duration":0.13750000000000284},{"name":"F#4","midi":66,"time":59.187500000000064,"velocity":0.5275590551181102,"duration":0.2854166666666629},{"name":"A#3","midi":58,"time":59.189583333333395,"velocity":0.5275590551181102,"duration":0.28125},{"name":"G#4","midi":68,"time":59.47291666666673,"velocity":0.5669291338582677,"duration":0.14166666666666572},{"name":"D#4","midi":63,"time":59.47500000000006,"velocity":0.5275590551181102,"duration":0.28333333333333144},{"name":"F#4","midi":66,"time":59.47500000000006,"velocity":0.5275590551181102,"duration":0.28333333333333144},{"name":"A#4","midi":70,"time":59.616666666666724,"velocity":0.5669291338582677,"duration":0.13958333333333428},{"name":"B4","midi":71,"time":59.76041666666672,"velocity":0.5669291338582677,"duration":0.28333333333333144},{"name":"D#4","midi":63,"time":59.76041666666672,"velocity":0.5275590551181102,"duration":0.28125},{"name":"G#3","midi":56,"time":59.76250000000005,"velocity":0.5275590551181102,"duration":0.5625},{"name":"C#5","midi":73,"time":60.04375000000005,"velocity":0.5669291338582677,"duration":0.13958333333333428},{"name":"E4","midi":64,"time":60.04375000000005,"velocity":0.5275590551181102,"duration":0.13750000000000284},{"name":"D#5","midi":75,"time":60.18333333333339,"velocity":0.5669291338582677,"duration":0.13958333333333428},{"name":"F#4","midi":66,"time":60.18333333333339,"velocity":0.5275590551181102,"duration":0.13958333333333428},{"name":"E5","midi":76,"time":60.32500000000005,"velocity":0.5669291338582677,"duration":0.2770833333333371},{"name":"G#4","midi":68,"time":60.32500000000005,"velocity":0.5669291338582677,"duration":0.13750000000000284},{"name":"A#4","midi":70,"time":60.462500000000055,"velocity":0.5669291338582677,"duration":0.13958333333333428},{"name":"B4","midi":71,"time":60.60416666666672,"velocity":0.5669291338582677,"duration":0.5562499999999915},{"name":"D#5","midi":75,"time":60.60416666666672,"velocity":0.5669291338582677,"duration":0.27916666666666146},{"name":"G#4","midi":68,"time":60.60625000000005,"velocity":0.5669291338582677,"duration":0.1354166666666643},{"name":"F#4","midi":66,"time":60.74375000000005,"velocity":0.5275590551181102,"duration":0.13750000000000284},{"name":"C#5","midi":73,"time":60.88333333333338,"velocity":0.5669291338582677,"duration":1.3916666666666586},{"name":"E4","midi":64,"time":60.885416666666714,"velocity":0.5275590551181102,"duration":0.2749999999999986},{"name":"A#4","midi":70,"time":61.162500000000044,"velocity":0.5669291338582677,"duration":0.13750000000000284},{"name":"C#4","midi":61,"time":61.162500000000044,"velocity":0.5275590551181102,"duration":0.2770833333333371},{"name":"G#4","midi":68,"time":61.30000000000005,"velocity":0.5669291338582677,"duration":0.13750000000000284},{"name":"A#4","midi":70,"time":61.43958333333338,"velocity":0.5669291338582677,"duration":0.13750000000000284},{"name":"B4","midi":71,"time":61.579166666666715,"velocity":0.5669291338582677,"duration":0.13750000000000284},{"name":"A#4","midi":70,"time":61.71666666666672,"velocity":0.5669291338582677,"duration":0.13958333333333428},{"name":"F#4","midi":66,"time":61.71875000000005,"velocity":0.5275590551181102,"duration":0.13750000000000284},{"name":"G#4","midi":68,"time":61.858333333333384,"velocity":0.5669291338582677,"duration":0.13749999999999574},{"name":"E4","midi":64,"time":61.858333333333384,"velocity":0.5275590551181102,"duration":0.1354166666666643},{"name":"F#4","midi":66,"time":61.99583333333338,"velocity":0.5275590551181102,"duration":0.8437499999999858},{"name":"D#4","midi":63,"time":61.99791666666671,"velocity":0.5275590551181102,"duration":0.27708333333333},{"name":"B4","midi":71,"time":62.27500000000004,"velocity":0.5669291338582677,"duration":0.13958333333333428},{"name":"F#3","midi":54,"time":62.27708333333337,"velocity":0.5275590551181102,"duration":0.2770833333333371},{"name":"C#4","midi":61,"time":62.27708333333337,"velocity":0.5275590551181102,"duration":0.27916666666666856},{"name":"A#4","midi":70,"time":62.414583333333375,"velocity":0.5669291338582677,"duration":0.13958333333333428},{"name":"B4","midi":71,"time":62.55625000000004,"velocity":0.5669291338582677,"duration":0.2812499999999929},{"name":"B3","midi":59,"time":62.55833333333337,"velocity":0.5275590551181102,"duration":0.27916666666666146},{"name":"D#3","midi":51,"time":62.55833333333337,"velocity":0.5275590551181102,"duration":0.27708333333333},{"name":"C#5","midi":73,"time":62.839583333333366,"velocity":0.5669291338582677,"duration":0.1354166666666643},{"name":"G#3","midi":56,"time":62.8416666666667,"velocity":0.5275590551181102,"duration":0.27708333333333},{"name":"E4","midi":64,"time":62.8416666666667,"velocity":0.5275590551181102,"duration":0.5562499999999915},{"name":"E3","midi":52,"time":62.84375000000003,"velocity":0.5275590551181102,"duration":0.27291666666666714},{"name":"B4","midi":71,"time":62.97708333333336,"velocity":0.5669291338582677,"duration":0.13958333333333428},{"name":"A#4","midi":70,"time":63.11875000000003,"velocity":0.5669291338582677,"duration":0.13749999999999574},{"name":"F#3","midi":54,"time":63.12083333333336,"velocity":0.5275590551181102,"duration":0.5583333333333229},{"name":"G#4","midi":68,"time":63.25625000000002,"velocity":0.5669291338582677,"duration":0.13958333333333428},{"name":"F#4","midi":66,"time":63.39791666666669,"velocity":0.5275590551181102,"duration":0.13958333333332718},{"name":"D#4","midi":63,"time":63.40000000000002,"velocity":0.5275590551181102,"duration":0.1354166666666643},{"name":"E4","midi":64,"time":63.537500000000016,"velocity":0.5275590551181102,"duration":0.14166666666666572},{"name":"C#4","midi":61,"time":63.53958333333335,"velocity":0.5275590551181102,"duration":0.13750000000000284},{"name":"D#4","midi":63,"time":63.68125000000001,"velocity":0.5275590551181102,"duration":0.28333333333333144},{"name":"B2","midi":47,"time":63.68125000000001,"velocity":0.6062992125984252,"duration":0.28125},{"name":"E4","midi":64,"time":63.82083333333335,"velocity":0.5275590551181102,"duration":0.14166666666666572},{"name":"B4","midi":71,"time":63.964583333333344,"velocity":0.5669291338582677,"duration":0.28541666666665577},{"name":"D#3","midi":51,"time":63.966666666666676,"velocity":0.5275590551181102,"duration":0.13958333333332718},{"name":"F#4","midi":66,"time":63.966666666666676,"velocity":0.5275590551181102,"duration":0.13958333333332718},{"name":"G#4","midi":68,"time":64.10833333333333,"velocity":0.5669291338582677,"duration":0.14166666666666572},{"name":"F3","midi":53,"time":64.10833333333333,"velocity":0.5275590551181102,"duration":0.13958333333333428},{"name":"A#4","midi":70,"time":64.25,"velocity":0.5669291338582677,"duration":0.28125},{"name":"F#3","midi":54,"time":64.25208333333333,"velocity":0.5275590551181102,"duration":0.2770833333333371},{"name":"C#4","midi":61,"time":64.25208333333333,"velocity":0.5275590551181102,"duration":0.5562500000000057},{"name":"B4","midi":71,"time":64.53125,"velocity":0.5669291338582677,"duration":0.13750000000000284},{"name":"G#3","midi":56,"time":64.53333333333333,"velocity":0.5275590551181102,"duration":0.1354166666666714},{"name":"C#5","midi":73,"time":64.67083333333333,"velocity":0.5669291338582677,"duration":0.1354166666666714},{"name":"A#3","midi":58,"time":64.67083333333333,"velocity":0.5275590551181102,"duration":0.1354166666666714},{"name":"D#5","midi":75,"time":64.80833333333334,"velocity":0.5669291338582677,"duration":0.13958333333333428},{"name":"B3","midi":59,"time":64.81041666666667,"velocity":0.5275590551181102,"duration":0.2750000000000057},{"name":"F5","midi":77,"time":64.94791666666667,"velocity":0.5669291338582677,"duration":0.1354166666666714},{"name":"F#5","midi":78,"time":65.0875,"velocity":0.5669291338582677,"duration":0.5541666666666742},{"name":"D#5","midi":75,"time":65.0875,"velocity":0.5669291338582677,"duration":0.13750000000000284},{"name":"A#3","midi":58,"time":65.0875,"velocity":0.5275590551181102,"duration":0.2770833333333371},{"name":"C#5","midi":73,"time":65.22500000000001,"velocity":0.5669291338582677,"duration":0.13750000000000284},{"name":"B4","midi":71,"time":65.36458333333334,"velocity":0.5669291338582677,"duration":0.2770833333333371},{"name":"G#3","midi":56,"time":65.36666666666667,"velocity":0.5275590551181102,"duration":1.11041666666668},{"name":"F5","midi":77,"time":65.64375000000001,"velocity":0.5669291338582677,"duration":0.13750000000000284},{"name":"G#4","midi":68,"time":65.64375000000001,"velocity":0.5669291338582677,"duration":0.2770833333333371},{"name":"D#5","midi":75,"time":65.78125000000001,"velocity":0.5669291338582677,"duration":0.13750000000000284},{"name":"F5","midi":77,"time":65.92083333333335,"velocity":0.5669291338582677,"duration":0.5541666666666742},{"name":"D#5","midi":75,"time":66.05625000000002,"velocity":0.5669291338582677,"duration":0.14166666666666572},{"name":"C#5","midi":73,"time":66.19791666666669,"velocity":0.5669291338582677,"duration":0.13750000000000284},{"name":"B4","midi":71,"time":66.33541666666669,"velocity":0.5669291338582677,"duration":0.13958333333333428},{"name":"F#5","midi":78,"time":66.47708333333335,"velocity":0.5669291338582677,"duration":0.2770833333333371},{"name":"A#4","midi":70,"time":66.47916666666669,"velocity":0.5669291338582677,"duration":0.5583333333333371},{"name":"F#3","midi":54,"time":66.47916666666669,"velocity":0.5275590551181102,"duration":0.5562500000000057},{"name":"C#5","midi":73,"time":66.75625000000002,"velocity":0.5669291338582677,"duration":0.13958333333333428},{"name":"B4","midi":71,"time":66.89583333333336,"velocity":0.5669291338582677,"duration":0.13958333333333428},{"name":"C#5","midi":73,"time":67.03750000000002,"velocity":0.5669291338582677,"duration":0.2750000000000057},{"name":"G#4","midi":68,"time":67.1729166666667,"velocity":0.5669291338582677,"duration":0.13750000000000284},{"name":"D#5","midi":75,"time":67.31250000000003,"velocity":0.5669291338582677,"duration":0.2750000000000057},{"name":"F#4","midi":66,"time":67.31458333333336,"velocity":0.5275590551181102,"duration":0.1354166666666714},{"name":"E4","midi":64,"time":67.45000000000003,"velocity":0.5275590551181102,"duration":0.13750000000000284},{"name":"C5","midi":72,"time":67.58958333333337,"velocity":0.5669291338582677,"duration":0.5499999999999972},{"name":"D#4","midi":63,"time":67.58958333333337,"velocity":0.5275590551181102,"duration":0.5479166666666657},{"name":"G#3","midi":56,"time":67.86250000000003,"velocity":0.5275590551181102,"duration":0.13750000000000284},{"name":"A3","midi":57,"time":68.00208333333336,"velocity":0.5275590551181102,"duration":0.1354166666666714},{"name":"C#5","midi":73,"time":68.13958333333336,"velocity":0.5669291338582677,"duration":0.2750000000000057},{"name":"E4","midi":64,"time":68.1416666666667,"velocity":0.5275590551181102,"duration":0.27291666666667425},{"name":"G#3","midi":56,"time":68.1416666666667,"velocity":0.5275590551181102,"duration":0.13333333333333997},{"name":"F#3","midi":54,"time":68.27500000000003,"velocity":0.5275590551181102,"duration":0.13750000000000284},{"name":"D#5","midi":75,"time":68.4166666666667,"velocity":0.5669291338582677,"duration":0.2770833333333229},{"name":"F#4","midi":66,"time":68.4166666666667,"velocity":0.5275590551181102,"duration":0.2749999999999915},{"name":"E3","midi":52,"time":68.41875000000003,"velocity":0.5275590551181102,"duration":0.13124999999999432},{"name":"D#3","midi":51,"time":68.55208333333336,"velocity":0.5275590551181102,"duration":0.13958333333333428},{"name":"E5","midi":76,"time":68.69375000000002,"velocity":0.5669291338582677,"duration":0.13750000000000284},{"name":"G#4","midi":68,"time":68.69583333333335,"velocity":0.5669291338582677,"duration":1.3979166666666742},{"name":"C#3","midi":49,"time":68.69583333333335,"velocity":0.5275590551181102,"duration":0.2770833333333371},{"name":"D#5","midi":75,"time":68.83125000000003,"velocity":0.5669291338582677,"duration":0.13958333333333428},{"name":"E5","midi":76,"time":68.97291666666669,"velocity":0.5669291338582677,"duration":0.13750000000000284},{"name":"C#4","midi":61,"time":68.97500000000002,"velocity":0.5275590551181102,"duration":0.2770833333333371},{"name":"F#5","midi":78,"time":69.11250000000003,"velocity":0.5669291338582677,"duration":0.13958333333333428},{"name":"E5","midi":76,"time":69.25208333333336,"velocity":0.5669291338582677,"duration":0.13958333333333428},{"name":"D#4","midi":63,"time":69.25416666666669,"velocity":0.5275590551181102,"duration":0.2770833333333371},{"name":"D#5","midi":75,"time":69.3916666666667,"velocity":0.5669291338582677,"duration":0.13958333333333428},{"name":"C#5","midi":73,"time":69.53333333333336,"velocity":0.5669291338582677,"duration":0.13958333333333428},{"name":"E4","midi":64,"time":69.53333333333336,"velocity":0.5275590551181102,"duration":0.28125},{"name":"B4","midi":71,"time":69.6729166666667,"velocity":0.5669291338582677,"duration":0.14166666666666572},{"name":"A#4","midi":70,"time":69.81458333333336,"velocity":0.5669291338582677,"duration":0.5583333333333371},{"name":"F#4","midi":66,"time":69.81666666666669,"velocity":0.5275590551181102,"duration":0.2750000000000057},{"name":"F#3","midi":54,"time":70.09375000000003,"velocity":0.5275590551181102,"duration":0.13750000000000284},{"name":"C#4","midi":61,"time":70.09375000000003,"velocity":0.5275590551181102,"duration":0.2770833333333371},{"name":"G#3","midi":56,"time":70.23333333333336,"velocity":0.5275590551181102,"duration":0.13750000000000284},{"name":"B4","midi":71,"time":70.3729166666667,"velocity":0.5669291338582677,"duration":0.2770833333333371},{"name":"D#4","midi":63,"time":70.3729166666667,"velocity":0.5275590551181102,"duration":0.2770833333333371},{"name":"F#3","midi":54,"time":70.37500000000003,"velocity":0.5275590551181102,"duration":0.1354166666666714},{"name":"E3","midi":52,"time":70.5104166666667,"velocity":0.5275590551181102,"duration":0.13750000000000284},{"name":"C#5","midi":73,"time":70.65000000000003,"velocity":0.5669291338582677,"duration":0.2770833333333371},{"name":"E4","midi":64,"time":70.65208333333337,"velocity":0.5275590551181102,"duration":0.2750000000000057},{"name":"D#3","midi":51,"time":70.65208333333337,"velocity":0.5275590551181102,"duration":0.1354166666666714},{"name":"C#3","midi":49,"time":70.78958333333337,"velocity":0.5275590551181102,"duration":0.1354166666666714},{"name":"D#5","midi":75,"time":70.9291666666667,"velocity":0.5669291338582677,"duration":0.2770833333333371},{"name":"F#4","midi":66,"time":70.9291666666667,"velocity":0.5275590551181102,"duration":0.2750000000000057},{"name":"B2","midi":47,"time":70.93125000000003,"velocity":0.6062992125984252,"duration":0.13333333333333997},{"name":"A#2","midi":46,"time":71.06458333333337,"velocity":0.6062992125984252,"duration":0.13958333333333428},{"name":"D#5","midi":75,"time":71.20625000000004,"velocity":0.5669291338582677,"duration":0.27916666666666856},{"name":"B4","midi":71,"time":71.20833333333337,"velocity":0.5669291338582677,"duration":0.2770833333333371},{"name":"B2","midi":47,"time":71.20833333333337,"velocity":0.6062992125984252,"duration":0.1354166666666714},{"name":"C#3","midi":49,"time":71.34583333333337,"velocity":0.5275590551181102,"duration":0.13750000000000284},{"name":"C#5","midi":73,"time":71.48750000000004,"velocity":0.5669291338582677,"duration":0.2750000000000057},{"name":"E5","midi":76,"time":71.48750000000004,"velocity":0.5669291338582677,"duration":0.2770833333333371},{"name":"B2","midi":47,"time":71.48958333333337,"velocity":0.6062992125984252,"duration":0.1354166666666714},{"name":"A2","midi":45,"time":71.62500000000004,"velocity":0.6062992125984252,"duration":0.13750000000000284},{"name":"F#5","midi":78,"time":71.76458333333338,"velocity":0.5669291338582677,"duration":0.2750000000000057},{"name":"D#5","midi":75,"time":71.76666666666671,"velocity":0.5669291338582677,"duration":0.27291666666667425},{"name":"G#2","midi":44,"time":71.76666666666671,"velocity":0.6062992125984252,"duration":0.13333333333333997},{"name":"F#2","midi":42,"time":71.90000000000005,"velocity":0.6062992125984252,"duration":0.13750000000000284},{"name":"G#5","midi":80,"time":72.04166666666671,"velocity":0.5669291338582677,"duration":0.13333333333332575},{"name":"E5","midi":76,"time":72.04166666666671,"velocity":0.5669291338582677,"duration":0.27291666666666003},{"name":"E2","midi":40,"time":72.04375000000005,"velocity":0.6062992125984252,"duration":0.26874999999999716},{"name":"A5","midi":81,"time":72.17708333333337,"velocity":0.5669291338582677,"duration":0.1354166666666714},{"name":"G#5","midi":80,"time":72.31458333333337,"velocity":0.5669291338582677,"duration":0.13333333333332575},{"name":"B3","midi":59,"time":72.3166666666667,"velocity":0.5275590551181102,"duration":0.2708333333333286},{"name":"F#5","midi":78,"time":72.45000000000003,"velocity":0.5669291338582677,"duration":0.1354166666666714},{"name":"E5","midi":76,"time":72.58750000000003,"velocity":0.5669291338582677,"duration":0.13750000000000284},{"name":"A#3","midi":58,"time":72.58958333333337,"velocity":0.5275590551181102,"duration":0.27291666666667425},{"name":"D#5","midi":75,"time":72.72500000000004,"velocity":0.5669291338582677,"duration":0.13750000000000284},{"name":"C#5","midi":73,"time":72.86458333333337,"velocity":0.5669291338582677,"duration":0.13750000000000284},{"name":"B3","midi":59,"time":72.86458333333337,"velocity":0.5275590551181102,"duration":0.27916666666666856},{"name":"B4","midi":71,"time":73.00208333333337,"velocity":0.5669291338582677,"duration":0.14166666666666572},{"name":"A#4","midi":70,"time":73.14583333333337,"velocity":0.5669291338582677,"duration":0.28125},{"name":"C#4","midi":61,"time":73.14583333333337,"velocity":0.5275590551181102,"duration":0.5708333333333258},{"name":"B4","midi":71,"time":73.4291666666667,"velocity":0.5669291338582677,"duration":0.14166666666666572},{"name":"E3","midi":52,"time":73.4291666666667,"velocity":0.5275590551181102,"duration":0.2854166666666629},{"name":"C#5","midi":73,"time":73.57083333333337,"velocity":0.5669291338582677,"duration":0.14374999999999716},{"name":"D#5","midi":75,"time":73.7166666666667,"velocity":0.5669291338582677,"duration":0.28333333333333144},{"name":"F#3","midi":54,"time":73.71875000000003,"velocity":0.5275590551181102,"duration":0.28125},{"name":"D#3","midi":51,"time":73.71875000000003,"velocity":0.5275590551181102,"duration":0.27916666666666856},{"name":"C#5","midi":73,"time":74.00000000000003,"velocity":0.5669291338582677,"duration":0.27916666666665435},{"name":"F#4","midi":66,"time":74.00208333333336,"velocity":0.5275590551181102,"duration":0.2749999999999915},{"name":"G#3","midi":56,"time":74.00208333333336,"velocity":0.5275590551181102,"duration":0.1354166666666572},{"name":"E3","midi":52,"time":74.00416666666669,"velocity":0.5275590551181102,"duration":0.13124999999999432},{"name":"F#3","midi":54,"time":74.13750000000002,"velocity":0.5275590551181102,"duration":0.13958333333333428},{"name":"A#3","midi":58,"time":74.13958333333335,"velocity":0.5275590551181102,"duration":0.13750000000000284},{"name":"B4","midi":71,"time":74.27916666666668,"velocity":0.5669291338582677,"duration":0.7041666666666657},{"name":"B3","midi":59,"time":74.28125000000001,"velocity":0.5275590551181102,"duration":0.2770833333333371},{"name":"D#4","midi":63,"time":74.28125000000001,"velocity":0.5275590551181102,"duration":0.2770833333333371},{"name":"G#3","midi":56,"time":74.28333333333335,"velocity":0.5275590551181102,"duration":0.84375},{"name":"C#4","midi":61,"time":74.56041666666668,"velocity":0.5275590551181102,"duration":0.13958333333333428},{"name":"E4","midi":64,"time":74.56041666666668,"velocity":0.5275590551181102,"duration":0.13958333333333428},{"name":"D#4","midi":63,"time":74.70000000000002,"velocity":0.5275590551181102,"duration":0.14166666666666572},{"name":"F#4","midi":66,"time":74.70000000000002,"velocity":0.5275590551181102,"duration":0.14166666666666572},{"name":"G#4","midi":68,"time":74.84375000000001,"velocity":0.5669291338582677,"duration":0.13958333333333428},{"name":"E4","midi":64,"time":74.84375000000001,"velocity":0.5275590551181102,"duration":0.28333333333333144},{"name":"A#4","midi":70,"time":74.98541666666668,"velocity":0.5669291338582677,"duration":0.13958333333333428},{"name":"C#5","midi":73,"time":74.98541666666668,"velocity":0.5669291338582677,"duration":0.13958333333333428},{"name":"B4","midi":71,"time":75.12916666666668,"velocity":0.5669291338582677,"duration":0.55416666666666},{"name":"D#5","midi":75,"time":75.12916666666668,"velocity":0.5669291338582677,"duration":0.2770833333333229},{"name":"D#4","midi":63,"time":75.12916666666668,"velocity":0.5275590551181102,"duration":0.2770833333333229},{"name":"F#3","midi":54,"time":75.13125000000001,"velocity":0.5275590551181102,"duration":0.27291666666666003},{"name":"E5","midi":76,"time":75.40833333333333,"velocity":0.5669291338582677,"duration":0.1354166666666714},{"name":"C#4","midi":61,"time":75.40833333333333,"velocity":0.5275590551181102,"duration":1.1000000000000085},{"name":"E3","midi":52,"time":75.41041666666666,"velocity":0.5275590551181102,"duration":0.5500000000000114},{"name":"F#5","midi":78,"time":75.54375,"velocity":0.5669291338582677,"duration":0.13958333333333428},{"name":"G#5","midi":80,"time":75.68541666666667,"velocity":0.5669291338582677,"duration":0.5479166666666657},{"name":"A#4","midi":70,"time":75.68541666666667,"velocity":0.5669291338582677,"duration":0.1354166666666714},{"name":"G#4","midi":68,"time":75.82291666666667,"velocity":0.5669291338582677,"duration":0.1354166666666714},{"name":"A#4","midi":70,"time":75.96041666666667,"velocity":0.5669291338582677,"duration":0.8187499999999943},{"name":"F#3","midi":54,"time":75.9625,"velocity":0.5275590551181102,"duration":0.5458333333333343},{"name":"F#5","midi":78,"time":76.23333333333333,"velocity":0.5669291338582677,"duration":0.13750000000000284},{"name":"E5","midi":76,"time":76.37291666666667,"velocity":0.5669291338582677,"duration":0.13333333333333997},{"name":"D#5","midi":75,"time":76.51041666666667,"velocity":0.5669291338582677,"duration":0.5437499999999886},{"name":"B3","midi":59,"time":76.51041666666667,"velocity":0.5275590551181102,"duration":0.26874999999999716},{"name":"G#4","midi":68,"time":76.78125,"velocity":0.5669291338582677,"duration":0.13750000000000284},{"name":"B2","midi":47,"time":76.78125,"velocity":0.6062992125984252,"duration":0.1354166666666714},{"name":"G4","midi":67,"time":76.91875,"velocity":0.5275590551181102,"duration":0.1354166666666572},{"name":"A#2","midi":46,"time":76.92083333333333,"velocity":0.6062992125984252,"duration":0.13124999999999432},{"name":"G#4","midi":68,"time":77.05624999999999,"velocity":0.5669291338582677,"duration":0.27291666666667425},{"name":"B2","midi":47,"time":77.05624999999999,"velocity":0.6062992125984252,"duration":0.2708333333333428},{"name":"D#5","midi":75,"time":77.19166666666666,"velocity":0.5669291338582677,"duration":0.1354166666666714},{"name":"C#5","midi":73,"time":77.32916666666667,"velocity":0.5669291338582677,"duration":0.1354166666666714},{"name":"A#4","midi":70,"time":77.33125,"velocity":0.5669291338582677,"duration":0.27291666666667425},{"name":"C#3","midi":49,"time":77.33125,"velocity":0.5275590551181102,"duration":0.27291666666667425},{"name":"B4","midi":71,"time":77.46666666666667,"velocity":0.5669291338582677,"duration":0.1354166666666714},{"name":"A#4","midi":70,"time":77.60625,"velocity":0.5669291338582677,"duration":0.5479166666666657},{"name":"G4","midi":67,"time":77.60625,"velocity":0.5275590551181102,"duration":0.5458333333333343},{"name":"D#3","midi":51,"time":77.60833333333333,"velocity":0.5275590551181102,"duration":0.5437500000000028},{"name":"D#4","midi":63,"time":77.87916666666666,"velocity":0.5275590551181102,"duration":0.1354166666666714},{"name":"E4","midi":64,"time":78.01666666666667,"velocity":0.5275590551181102,"duration":0.13333333333333997},{"name":"B4","midi":71,"time":78.15416666666667,"velocity":0.5669291338582677,"duration":0.26874999999999716},{"name":"G#4","midi":68,"time":78.15625,"velocity":0.5669291338582677,"duration":0.2666666666666657},{"name":"D#4","midi":63,"time":78.15625,"velocity":0.5275590551181102,"duration":0.13124999999999432},{"name":"C#4","midi":61,"time":78.2875,"velocity":0.5275590551181102,"duration":0.13333333333333997},{"name":"A#4","midi":70,"time":78.425,"velocity":0.5669291338582677,"duration":0.2708333333333286},{"name":"C#5","midi":73,"time":78.425,"velocity":0.5669291338582677,"duration":0.2708333333333286},{"name":"B3","midi":59,"time":78.425,"velocity":0.5275590551181102,"duration":0.13124999999999432},{"name":"C#3","midi":49,"time":78.42708333333333,"velocity":0.5275590551181102,"duration":0.26874999999999716},{"name":"A#3","midi":58,"time":78.55833333333332,"velocity":0.5275590551181102,"duration":0.1354166666666714},{"name":"D#5","midi":75,"time":78.69791666666666,"velocity":0.5669291338582677,"duration":1.3770833333333456},{"name":"B4","midi":71,"time":78.69999999999999,"velocity":0.5669291338582677,"duration":0.13124999999999432},{"name":"G#3","midi":56,"time":78.69999999999999,"velocity":0.5275590551181102,"duration":0.5458333333333343},{"name":"B2","midi":47,"time":78.69999999999999,"velocity":0.6062992125984252,"duration":0.26874999999999716},{"name":"A#4","midi":70,"time":78.83124999999998,"velocity":0.5669291338582677,"duration":0.13750000000000284},{"name":"B4","midi":71,"time":78.97083333333332,"velocity":0.5669291338582677,"duration":0.13333333333333997},{"name":"G#2","midi":44,"time":78.97083333333332,"velocity":0.6062992125984252,"duration":0.2750000000000057},{"name":"C#5","midi":73,"time":79.10624999999999,"velocity":0.5669291338582677,"duration":0.13750000000000284},{"name":"B4","midi":71,"time":79.24583333333332,"velocity":0.5669291338582677,"duration":0.13750000000000284},{"name":"A#2","midi":46,"time":79.24791666666665,"velocity":0.6062992125984252,"duration":0.2750000000000057},{"name":"A#4","midi":70,"time":79.38333333333333,"velocity":0.5669291338582677,"duration":0.13958333333333428},{"name":"G#4","midi":68,"time":79.52291666666666,"velocity":0.5669291338582677,"duration":0.13750000000000284},{"name":"B2","midi":47,"time":79.52499999999999,"velocity":0.6062992125984252,"duration":0.2750000000000057},{"name":"F#4","midi":66,"time":79.66041666666666,"velocity":0.5275590551181102,"duration":0.13750000000000284},{"name":"C#3","midi":49,"time":79.8,"velocity":0.5275590551181102,"duration":0.5520833333333428},{"name":"F4","midi":65,"time":79.8,"velocity":0.5275590551181102,"duration":0.5520833333333428},{"name":"G#4","midi":68,"time":80.07708333333333,"velocity":0.5669291338582677,"duration":0.27291666666667425},{"name":"C#4","midi":61,"time":80.07708333333333,"velocity":0.5275590551181102,"duration":0.13750000000000284},{"name":"D#4","midi":63,"time":80.21458333333334,"velocity":0.5275590551181102,"duration":0.1354166666666714},{"name":"A#4","midi":70,"time":80.35416666666667,"velocity":0.5669291338582677,"duration":0.27291666666666003},{"name":"F#4","midi":66,"time":80.35416666666667,"velocity":0.5275590551181102,"duration":0.27291666666666003},{"name":"C#4","midi":61,"time":80.35625,"velocity":0.5275590551181102,"duration":0.13124999999999432},{"name":"B3","midi":59,"time":80.48958333333333,"velocity":0.5275590551181102,"duration":0.1354166666666714},{"name":"B4","midi":71,"time":80.62916666666666,"velocity":0.5669291338582677,"duration":0.2750000000000057},{"name":"G#4","midi":68,"time":80.62916666666666,"velocity":0.5669291338582677,"duration":0.2750000000000057},{"name":"A#3","midi":58,"time":80.63125,"velocity":0.5275590551181102,"duration":0.13333333333333997},{"name":"B2","midi":47,"time":80.63125,"velocity":0.6062992125984252,"duration":0.2708333333333428},{"name":"G#3","midi":56,"time":80.76458333333333,"velocity":0.5275590551181102,"duration":0.13750000000000284},{"name":"C#5","midi":73,"time":80.90625,"velocity":0.5669291338582677,"duration":0.26874999999999716},{"name":"A#4","midi":70,"time":80.90625,"velocity":0.5669291338582677,"duration":0.26874999999999716},{"name":"F#3","midi":54,"time":80.90833333333333,"velocity":0.5275590551181102,"duration":0.12916666666666288},{"name":"A#2","midi":46,"time":80.90833333333333,"velocity":0.6062992125984252,"duration":1.09375},{"name":"E3","midi":52,"time":81.03958333333333,"velocity":0.5275590551181102,"duration":0.1354166666666714},{"name":"A#4","midi":70,"time":81.17708333333333,"velocity":0.5669291338582677,"duration":0.27291666666667425},{"name":"C#4","midi":61,"time":81.17708333333333,"velocity":0.5275590551181102,"duration":0.27291666666667425},{"name":"F#3","midi":54,"time":81.17916666666666,"velocity":0.5275590551181102,"duration":0.13333333333333997},{"name":"G#3","midi":56,"time":81.3125,"velocity":0.5275590551181102,"duration":0.1354166666666714},{"name":"B4","midi":71,"time":81.45,"velocity":0.5669291338582677,"duration":0.2749999999999915},{"name":"F#3","midi":54,"time":81.45208333333333,"velocity":0.5275590551181102,"duration":0.13124999999999432},{"name":"D#4","midi":63,"time":81.45208333333333,"velocity":0.5275590551181102,"duration":0.2708333333333286},{"name":"E3","midi":52,"time":81.58541666666666,"velocity":0.5275590551181102,"duration":0.13750000000000284},{"name":"C#5","midi":73,"time":81.725,"velocity":0.5669291338582677,"duration":0.2770833333333371},{"name":"E4","midi":64,"time":81.725,"velocity":0.5275590551181102,"duration":0.2750000000000057},{"name":"D#3","midi":51,"time":81.72708333333333,"velocity":0.5275590551181102,"duration":0.1354166666666714},{"name":"C#3","midi":49,"time":81.8625,"velocity":0.5275590551181102,"duration":0.13750000000000284},{"name":"D#5","midi":75,"time":82.00416666666666,"velocity":0.5669291338582677,"duration":1.097916666666677},{"name":"F#4","midi":66,"time":82.00416666666666,"velocity":0.5275590551181102,"duration":0.27291666666666003},{"name":"B2","midi":47,"time":82.00625,"velocity":0.6062992125984252,"duration":0.40833333333333144},{"name":"A#2","midi":46,"time":82.13749999999999,"velocity":0.6062992125984252,"duration":0.13750000000000284},{"name":"F#4","midi":66,"time":82.27708333333332,"velocity":0.5275590551181102,"duration":0.2750000000000057},{"name":"B2","midi":47,"time":82.27916666666665,"velocity":0.6062992125984252,"duration":0.2750000000000057},{"name":"C#3","midi":49,"time":82.41458333333333,"velocity":0.5275590551181102,"duration":0.13750000000000284},{"name":"F4","midi":65,"time":82.55416666666666,"velocity":0.5275590551181102,"duration":0.2750000000000057},{"name":"B2","midi":47,"time":82.55624999999999,"velocity":0.6062992125984252,"duration":0.13333333333333997},{"name":"A#2","midi":46,"time":82.69166666666666,"velocity":0.6062992125984252,"duration":0.1354166666666714},{"name":"F#4","midi":66,"time":82.82916666666667,"velocity":0.5275590551181102,"duration":0.2708333333333428},{"name":"G#2","midi":44,"time":82.83125,"velocity":0.6062992125984252,"duration":0.13333333333333997},{"name":"F#2","midi":42,"time":82.96458333333334,"velocity":0.6062992125984252,"duration":0.1354166666666714},{"name":"C#5","midi":73,"time":83.10208333333334,"velocity":0.5669291338582677,"duration":1.3729166666666401},{"name":"G#4","midi":68,"time":83.10416666666667,"velocity":0.5669291338582677,"duration":0.5479166666666515},{"name":"F2","midi":41,"time":83.10416666666667,"velocity":0.6062992125984252,"duration":0.2708333333333286},{"name":"B3","midi":59,"time":83.37708333333333,"velocity":0.5275590551181102,"duration":0.27291666666666003},{"name":"F3","midi":53,"time":83.37708333333333,"velocity":0.5275590551181102,"duration":0.27291666666666003},{"name":"F#3","midi":54,"time":83.65208333333332,"velocity":0.5275590551181102,"duration":0.2749999999999915},{"name":"C#4","midi":61,"time":83.65416666666665,"velocity":0.5275590551181102,"duration":0.27291666666666003},{"name":"A#3","midi":58,"time":83.65416666666665,"velocity":0.5275590551181102,"duration":0.2708333333333286},{"name":"D#4","midi":63,"time":83.92916666666665,"velocity":0.5275590551181102,"duration":0.1354166666666714},{"name":"F3","midi":53,"time":83.92916666666665,"velocity":0.5275590551181102,"duration":0.2750000000000057},{"name":"G#3","midi":56,"time":83.93124999999998,"velocity":0.5275590551181102,"duration":0.27291666666667425},{"name":"F4","midi":65,"time":84.06458333333332,"velocity":0.5275590551181102,"duration":0.13750000000000284},{"name":"F#4","midi":66,"time":84.20416666666665,"velocity":0.5275590551181102,"duration":0.2708333333333286},{"name":"D#3","midi":51,"time":84.20624999999998,"velocity":0.5275590551181102,"duration":0.8187500000000085},{"name":"F#3","midi":54,"time":84.20624999999998,"velocity":0.5275590551181102,"duration":0.6791666666666742},{"name":"B4","midi":71,"time":84.47499999999998,"velocity":0.5669291338582677,"duration":0.1354166666666714},{"name":"G#4","midi":68,"time":84.47708333333331,"velocity":0.5669291338582677,"duration":0.13333333333333997},{"name":"C#5","midi":73,"time":84.61249999999998,"velocity":0.5669291338582677,"duration":0.13750000000000284},{"name":"A#4","midi":70,"time":84.61249999999998,"velocity":0.5669291338582677,"duration":0.13750000000000284},{"name":"D#5","midi":75,"time":84.74999999999999,"velocity":0.5669291338582677,"duration":0.1354166666666714},{"name":"B4","midi":71,"time":84.75208333333332,"velocity":0.5669291338582677,"duration":0.2708333333333428},{"name":"F5","midi":77,"time":84.88749999999999,"velocity":0.5669291338582677,"duration":0.1354166666666714},{"name":"G#3","midi":56,"time":84.88749999999999,"velocity":0.5275590551181102,"duration":0.13333333333333997},{"name":"F#5","midi":78,"time":85.02499999999999,"velocity":0.5669291338582677,"duration":0.40625},{"name":"A#4","midi":70,"time":85.02499999999999,"velocity":0.5669291338582677,"duration":0.2708333333333286},{"name":"F#3","midi":54,"time":85.02499999999999,"velocity":0.5275590551181102,"duration":0.13124999999999432},{"name":"C#3","midi":49,"time":85.02708333333332,"velocity":0.5275590551181102,"duration":0.2666666666666657},{"name":"F3","midi":53,"time":85.15833333333332,"velocity":0.5275590551181102,"duration":0.1354166666666714},{"name":"G#4","midi":68,"time":85.29583333333332,"velocity":0.5669291338582677,"duration":0.67916666666666},{"name":"D#3","midi":51,"time":85.29791666666665,"velocity":0.5275590551181102,"duration":0.13333333333333997},{"name":"B2","midi":47,"time":85.29791666666665,"velocity":0.6062992125984252,"duration":0.2708333333333428},{"name":"F5","midi":77,"time":85.43333333333332,"velocity":0.5669291338582677,"duration":0.1354166666666714},{"name":"C#3","midi":49,"time":85.43333333333332,"velocity":0.5275590551181102,"duration":0.13333333333333997},{"name":"F#5","midi":78,"time":85.57083333333333,"velocity":0.5669291338582677,"duration":0.13333333333332575},{"name":"D#3","midi":51,"time":85.57083333333333,"velocity":0.5275590551181102,"duration":0.13124999999999432},{"name":"G#2","midi":44,"time":85.57083333333333,"velocity":0.6062992125984252,"duration":0.2708333333333286},{"name":"G#5","midi":80,"time":85.70416666666665,"velocity":0.5669291338582677,"duration":0.1354166666666714},{"name":"B2","midi":47,"time":85.70624999999998,"velocity":0.6062992125984252,"duration":0.13333333333333997},{"name":"F5","midi":77,"time":85.84166666666665,"velocity":0.5669291338582677,"duration":0.40833333333333144},{"name":"C#3","midi":49,"time":85.84374999999999,"velocity":0.5275590551181102,"duration":0.8166666666666629},{"name":"A#4","midi":70,"time":85.97499999999998,"velocity":0.5669291338582677,"duration":0.1354166666666714},{"name":"B4","midi":71,"time":86.11249999999998,"velocity":0.5669291338582677,"duration":0.2750000000000057},{"name":"C#2","midi":37,"time":86.11249999999998,"velocity":0.6062992125984252,"duration":0.27291666666667425},{"name":"F#5","midi":78,"time":86.24999999999999,"velocity":0.5669291338582677,"duration":0.1354166666666714},{"name":"A#4","midi":70,"time":86.38749999999999,"velocity":0.5669291338582677,"duration":0.5458333333333343},{"name":"F#5","midi":78,"time":86.38958333333332,"velocity":0.5669291338582677,"duration":0.2708333333333286},{"name":"F#2","midi":42,"time":86.38958333333332,"velocity":0.6062992125984252,"duration":0.26874999999999716},{"name":"F#5","midi":78,"time":86.66249999999998,"velocity":0.5669291338582677,"duration":0.26875000000001137},{"name":"F#3","midi":54,"time":86.66249999999998,"velocity":0.5275590551181102,"duration":0.13333333333333997},{"name":"E3","midi":52,"time":86.79583333333332,"velocity":0.5275590551181102,"duration":0.1354166666666714},{"name":"G#5","midi":80,"time":86.93333333333332,"velocity":0.5669291338582677,"duration":0.27291666666667425},{"name":"C5","midi":72,"time":86.93541666666665,"velocity":0.5669291338582677,"duration":0.2708333333333428},{"name":"F#3","midi":54,"time":86.93541666666665,"velocity":0.5275590551181102,"duration":0.13333333333333997},{"name":"G#3","midi":56,"time":87.07083333333333,"velocity":0.5275590551181102,"duration":0.13333333333333997},{"name":"D#5","midi":75,"time":87.20833333333333,"velocity":0.5669291338582677,"duration":0.5416666666666714},{"name":"F#5","midi":78,"time":87.20833333333333,"velocity":0.5669291338582677,"duration":0.26875000000001137},{"name":"A#3","midi":58,"time":87.21041666666666,"velocity":0.5275590551181102,"duration":0.13333333333333997},{"name":"C4","midi":60,"time":87.34375,"velocity":0.5275590551181102,"duration":0.13333333333333997},{"name":"E5","midi":76,"time":87.47916666666667,"velocity":0.5669291338582677,"duration":0.5416666666666572},{"name":"C#4","midi":61,"time":87.47916666666667,"velocity":0.5275590551181102,"duration":0.2708333333333286},{"name":"C#5","midi":73,"time":87.75,"velocity":0.5669291338582677,"duration":0.2708333333333286},{"name":"B3","midi":59,"time":87.75208333333333,"velocity":0.5275590551181102,"duration":0.13124999999999432},{"name":"A#3","midi":58,"time":87.88333333333333,"velocity":0.5275590551181102,"duration":0.1354166666666714},{"name":"B5","midi":83,"time":88.02291666666666,"velocity":0.5669291338582677,"duration":0.2708333333333428},{"name":"G#3","midi":56,"time":88.02291666666666,"velocity":0.5275590551181102,"duration":0.13333333333333997},{"name":"F#3","midi":54,"time":88.15833333333333,"velocity":0.5275590551181102,"duration":0.1354166666666714},{"name":"A#5","midi":82,"time":88.29583333333333,"velocity":0.5669291338582677,"duration":0.1354166666666714},{"name":"G#3","midi":56,"time":88.29583333333333,"velocity":0.5275590551181102,"duration":0.1354166666666714},{"name":"G#5","midi":80,"time":88.43333333333334,"velocity":0.5669291338582677,"duration":0.1354166666666714},{"name":"A#3","midi":58,"time":88.43333333333334,"velocity":0.5275590551181102,"duration":0.13333333333333997},{"name":"F#5","midi":78,"time":88.56875000000001,"velocity":0.5669291338582677,"duration":0.27291666666667425},{"name":"B3","midi":59,"time":88.57083333333334,"velocity":0.5275590551181102,"duration":1.2041666666666941},{"name":"D#4","midi":63,"time":88.70416666666668,"velocity":0.5275590551181102,"duration":0.13750000000000284},{"name":"E5","midi":76,"time":88.84375000000001,"velocity":0.5669291338582677,"duration":0.13333333333333997},{"name":"E4","midi":64,"time":88.84375000000001,"velocity":0.5275590551181102,"duration":0.13333333333333997},{"name":"D#5","midi":75,"time":88.97916666666669,"velocity":0.5669291338582677,"duration":0.1354166666666714},{"name":"F#4","midi":66,"time":88.97916666666669,"velocity":0.5275590551181102,"duration":0.13333333333333997},{"name":"C#5","midi":73,"time":89.11458333333336,"velocity":0.5669291338582677,"duration":0.2750000000000057},{"name":"G#4","midi":68,"time":89.11666666666669,"velocity":0.5669291338582677,"duration":0.13333333333333997},{"name":"F#4","midi":66,"time":89.25000000000003,"velocity":0.5275590551181102,"duration":0.13750000000000284},{"name":"D#5","midi":75,"time":89.38958333333336,"velocity":0.5669291338582677,"duration":0.2708333333333428},{"name":"E4","midi":64,"time":89.38958333333336,"velocity":0.5275590551181102,"duration":0.1354166666666714},{"name":"D#4","midi":63,"time":89.52500000000003,"velocity":0.5275590551181102,"duration":0.1354166666666714},{"name":"E5","midi":76,"time":89.66250000000004,"velocity":0.5669291338582677,"duration":1.0854166666666742},{"name":"C#4","midi":61,"time":89.66250000000004,"velocity":0.5275590551181102,"duration":0.5437500000000028},{"name":"B3","midi":59,"time":89.79583333333336,"velocity":0.5275590551181102,"duration":0.1354166666666714},{"name":"A#3","midi":58,"time":89.93333333333337,"velocity":0.5275590551181102,"duration":0.13750000000000284},{"name":"G#3","midi":56,"time":90.07083333333337,"velocity":0.5275590551181102,"duration":0.1354166666666714},{"name":"C#5","midi":73,"time":90.20833333333337,"velocity":0.5669291338582677,"duration":0.8125000000000142},{"name":"F#3","midi":54,"time":90.20833333333337,"velocity":0.5275590551181102,"duration":0.13333333333333997},{"name":"E3","midi":52,"time":90.34375000000004,"velocity":0.5275590551181102,"duration":0.13124999999999432},{"name":"D#3","midi":51,"time":90.47708333333337,"velocity":0.5275590551181102,"duration":0.1354166666666714},{"name":"C#3","midi":49,"time":90.61250000000004,"velocity":0.5275590551181102,"duration":0.13333333333333997},{"name":"D#5","midi":75,"time":90.74791666666671,"velocity":0.5669291338582677,"duration":0.5458333333333485},{"name":"B2","midi":47,"time":90.75000000000004,"velocity":0.6062992125984252,"duration":0.13333333333333997},{"name":"C#3","midi":49,"time":90.88541666666671,"velocity":0.5275590551181102,"duration":0.1354166666666714},{"name":"B4","midi":71,"time":91.02291666666672,"velocity":0.5669291338582677,"duration":0.2708333333333428},{"name":"D#3","midi":51,"time":91.02291666666672,"velocity":0.5275590551181102,"duration":0.13333333333333997},{"name":"E3","midi":52,"time":91.15625000000006,"velocity":0.5275590551181102,"duration":0.1354166666666714},{"name":"D#5","midi":75,"time":91.29583333333339,"velocity":0.5669291338582677,"duration":0.2708333333333286},{"name":"F#3","midi":54,"time":91.29583333333339,"velocity":0.5275590551181102,"duration":0.13124999999999432},{"name":"G#3","midi":56,"time":91.42916666666672,"velocity":0.5275590551181102,"duration":0.13750000000000284},{"name":"F#5","midi":78,"time":91.56875000000005,"velocity":0.5669291338582677,"duration":0.40416666666666856},{"name":"C#5","midi":73,"time":91.56875000000005,"velocity":0.5669291338582677,"duration":0.26874999999999716},{"name":"A#3","midi":58,"time":91.57083333333338,"velocity":0.5275590551181102,"duration":0.12916666666666288},{"name":"F#3","midi":54,"time":91.70000000000005,"velocity":0.5275590551181102,"duration":0.1354166666666714},{"name":"B4","midi":71,"time":91.83750000000005,"velocity":0.5669291338582677,"duration":0.5437500000000028},{"name":"G#3","midi":56,"time":91.83958333333338,"velocity":0.5275590551181102,"duration":0.13333333333333997},{"name":"F5","midi":77,"time":91.97500000000005,"velocity":0.5669291338582677,"duration":0.13124999999999432},{"name":"C#3","midi":49,"time":91.97500000000005,"velocity":0.5275590551181102,"duration":0.13124999999999432},{"name":"F#5","midi":78,"time":92.10833333333338,"velocity":0.5669291338582677,"duration":0.1354166666666714},{"name":"D#3","midi":51,"time":92.10833333333338,"velocity":0.5275590551181102,"duration":0.13333333333333997},{"name":"G#5","midi":80,"time":92.24375000000005,"velocity":0.5669291338582677,"duration":0.13750000000000284},{"name":"F3","midi":53,"time":92.24583333333338,"velocity":0.5275590551181102,"duration":0.13333333333333997},{"name":"F#5","midi":78,"time":92.38333333333338,"velocity":0.5669291338582677,"duration":0.2708333333333286},{"name":"A#5","midi":82,"time":92.38333333333338,"velocity":0.5669291338582677,"duration":0.13333333333332575},{"name":"F#3","midi":54,"time":92.38541666666671,"velocity":0.5275590551181102,"duration":0.13124999999999432},{"name":"G#5","midi":80,"time":92.51875000000004,"velocity":0.5669291338582677,"duration":0.13333333333333997},{"name":"B2","midi":47,"time":92.51875000000004,"velocity":0.6062992125984252,"duration":0.13333333333333997},{"name":"F5","midi":77,"time":92.65416666666671,"velocity":0.5669291338582677,"duration":0.1354166666666572},{"name":"A#5","midi":82,"time":92.65625000000004,"velocity":0.5669291338582677,"duration":0.13124999999999432},{"name":"B3","midi":59,"time":92.65625000000004,"velocity":0.5275590551181102,"duration":0.40416666666666856},{"name":"B5","midi":83,"time":92.78958333333337,"velocity":0.5669291338582677,"duration":0.1354166666666714},{"name":"D#5","midi":75,"time":92.7916666666667,"velocity":0.5669291338582677,"duration":0.13333333333333997},{"name":"C#5","midi":73,"time":92.92500000000004,"velocity":0.5669291338582677,"duration":0.2708333333333428},{"name":"F5","midi":77,"time":92.92708333333337,"velocity":0.5669291338582677,"duration":0.5416666666666714},{"name":"A#3","midi":58,"time":93.06041666666671,"velocity":0.5275590551181102,"duration":0.13333333333333997},{"name":"B4","midi":71,"time":93.19583333333338,"velocity":0.5669291338582677,"duration":0.1354166666666572},{"name":"B3","midi":59,"time":93.19791666666671,"velocity":0.5275590551181102,"duration":0.13124999999999432},{"name":"A#4","midi":70,"time":93.33125000000004,"velocity":0.5669291338582677,"duration":0.1354166666666714},{"name":"C#4","midi":61,"time":93.33333333333337,"velocity":0.5275590551181102,"duration":0.13333333333333997},{"name":"F#5","midi":78,"time":93.46875000000004,"velocity":0.5669291338582677,"duration":0.8083333333333371},{"name":"G#4","midi":68,"time":93.47083333333337,"velocity":0.5669291338582677,"duration":0.2708333333333428},{"name":"D#4","midi":63,"time":93.47083333333337,"velocity":0.5275590551181102,"duration":0.13333333333333997},{"name":"C#4","midi":61,"time":93.60416666666671,"velocity":0.5275590551181102,"duration":0.1354166666666714},{"name":"A#4","midi":70,"time":93.74166666666672,"velocity":0.5669291338582677,"duration":0.26874999999999716},{"name":"B3","midi":59,"time":93.74375000000005,"velocity":0.5275590551181102,"duration":0.13124999999999432},{"name":"A#3","midi":58,"time":93.87500000000004,"velocity":0.5275590551181102,"duration":0.13333333333333997},{"name":"B4","midi":71,"time":94.01041666666671,"velocity":0.5669291338582677,"duration":0.8083333333333229},{"name":"G#3","midi":56,"time":94.01041666666671,"velocity":0.5275590551181102,"duration":1.3562500000000028},{"name":"E5","midi":76,"time":94.27916666666671,"velocity":0.5669291338582677,"duration":0.13333333333332575},{"name":"B2","midi":47,"time":94.28125000000004,"velocity":0.6062992125984252,"duration":0.2666666666666657},{"name":"D#5","midi":75,"time":94.41458333333337,"velocity":0.5669291338582677,"duration":0.13333333333333997},{"name":"C#5","midi":73,"time":94.55000000000004,"velocity":0.5669291338582677,"duration":0.13124999999999432},{"name":"A#2","midi":46,"time":94.55000000000004,"velocity":0.6062992125984252,"duration":0.2708333333333286},{"name":"B4","midi":71,"time":94.68125000000003,"velocity":0.5669291338582677,"duration":0.9604166666666742},{"name":"C#5","midi":73,"time":94.82083333333337,"velocity":0.5669291338582677,"duration":0.13333333333333997},{"name":"B2","midi":47,"time":94.82083333333337,"velocity":0.6062992125984252,"duration":0.2708333333333428},{"name":"D#5","midi":75,"time":94.95625000000004,"velocity":0.5669291338582677,"duration":0.1354166666666714},{"name":"E5","midi":76,"time":95.09375000000004,"velocity":0.5669291338582677,"duration":0.1354166666666714},{"name":"C#3","midi":49,"time":95.09375000000004,"velocity":0.5275590551181102,"duration":0.5458333333333343},{"name":"F#5","midi":78,"time":95.22916666666671,"velocity":0.5669291338582677,"duration":0.1354166666666714},{"name":"G#5","midi":80,"time":95.36666666666672,"velocity":0.5669291338582677,"duration":0.4083333333333172},{"name":"F#3","midi":54,"time":95.36875000000005,"velocity":0.5275590551181102,"duration":0.13124999999999432},{"name":"E3","midi":52,"time":95.50208333333337,"velocity":0.5275590551181102,"duration":0.13750000000000284},{"name":"A#4","midi":70,"time":95.64166666666671,"velocity":0.5669291338582677,"duration":0.27291666666666003},{"name":"F#3","midi":54,"time":95.64375000000004,"velocity":0.5275590551181102,"duration":1.0916666666666686},{"name":"F#2","midi":42,"time":95.64375000000004,"velocity":0.6062992125984252,"duration":0.2708333333333286},{"name":"G#5","midi":80,"time":95.77500000000003,"velocity":0.5669291338582677,"duration":0.13750000000000284},{"name":"C#5","midi":73,"time":95.9166666666667,"velocity":0.5669291338582677,"duration":0.40625},{"name":"F#5","midi":78,"time":95.9166666666667,"velocity":0.5669291338582677,"duration":0.1354166666666572},{"name":"G#2","midi":44,"time":95.91875000000003,"velocity":0.6062992125984252,"duration":0.13124999999999432},{"name":"E5","midi":76,"time":96.05208333333336,"velocity":0.5669291338582677,"duration":0.1354166666666714},{"name":"A#2","midi":46,"time":96.05416666666669,"velocity":0.6062992125984252,"duration":0.13333333333333997},{"name":"D#5","midi":75,"time":96.18958333333336,"velocity":0.5669291338582677,"duration":0.6812500000000199},{"name":"B2","midi":47,"time":96.18958333333336,"velocity":0.6062992125984252,"duration":0.27291666666667425},{"name":"C#5","midi":73,"time":96.32500000000003,"velocity":0.5669291338582677,"duration":0.1354166666666714},{"name":"B4","midi":71,"time":96.46250000000003,"velocity":0.5669291338582677,"duration":0.1354166666666714},{"name":"C#3","midi":49,"time":96.46458333333337,"velocity":0.5275590551181102,"duration":0.13333333333333997},{"name":"A#4","midi":70,"time":96.60000000000004,"velocity":0.5669291338582677,"duration":0.13333333333333997},{"name":"D#3","midi":51,"time":96.60000000000004,"velocity":0.5275590551181102,"duration":0.13333333333333997},{"name":"G#4","midi":68,"time":96.73541666666671,"velocity":0.5669291338582677,"duration":0.2750000000000057},{"name":"E3","midi":52,"time":96.73750000000004,"velocity":0.5275590551181102,"duration":0.2708333333333428},{"name":"C#5","midi":73,"time":96.87291666666671,"velocity":0.5669291338582677,"duration":0.2750000000000057},{"name":"D#3","midi":51,"time":97.01041666666671,"velocity":0.5275590551181102,"duration":0.2750000000000057},{"name":"F#4","midi":66,"time":97.01250000000005,"velocity":0.5275590551181102,"duration":0.27291666666667425},{"name":"B4","midi":71,"time":97.14791666666672,"velocity":0.5669291338582677,"duration":0.40625},{"name":"C#3","midi":49,"time":97.28750000000005,"velocity":0.5275590551181102,"duration":1.0770833333333485},{"name":"E4","midi":64,"time":97.28750000000005,"velocity":0.5275590551181102,"duration":0.9395833333333456},{"name":"A#4","midi":70,"time":97.55625000000005,"velocity":0.5669291338582677,"duration":0.13333333333333997},{"name":"B4","midi":71,"time":97.68958333333339,"velocity":0.5669291338582677,"duration":0.13333333333333997},{"name":"C#5","midi":73,"time":97.82500000000006,"velocity":0.5669291338582677,"duration":0.13124999999999432},{"name":"D#5","midi":75,"time":97.95833333333339,"velocity":0.5669291338582677,"duration":0.13333333333333997},{"name":"E5","midi":76,"time":98.09166666666673,"velocity":0.5669291338582677,"duration":0.5479166666666799},{"name":"F#4","midi":66,"time":98.2270833333334,"velocity":0.5275590551181102,"duration":0.13750000000000284},{"name":"G#4","midi":68,"time":98.36666666666673,"velocity":0.5669291338582677,"duration":0.13333333333333997},{"name":"B2","midi":47,"time":98.36666666666673,"velocity":0.6062992125984252,"duration":0.27291666666667425},{"name":"A#4","midi":70,"time":98.50000000000007,"velocity":0.5669291338582677,"duration":0.13750000000000284},{"name":"B4","midi":71,"time":98.64166666666674,"velocity":0.5669291338582677,"duration":0.5416666666666714},{"name":"D#5","midi":75,"time":98.64166666666674,"velocity":0.5511811023622047,"duration":0.13333333333333997},{"name":"B3","midi":59,"time":98.64166666666674,"velocity":0.5275590551181102,"duration":0.13333333333333997},{"name":"E5","midi":76,"time":98.77708333333341,"velocity":0.5511811023622047,"duration":0.1354166666666714},{"name":"C#4","midi":61,"time":98.77708333333341,"velocity":0.5275590551181102,"duration":0.1354166666666714},{"name":"F#5","midi":78,"time":98.91458333333341,"velocity":0.5354330708661418,"duration":0.13333333333333997},{"name":"B3","midi":59,"time":98.91458333333341,"velocity":0.5275590551181102,"duration":0.13333333333333997},{"name":"G#5","midi":80,"time":99.05000000000008,"velocity":0.5354330708661418,"duration":0.13333333333332575},{"name":"A3","midi":57,"time":99.05000000000008,"velocity":0.5275590551181102,"duration":0.13124999999999432},{"name":"A5","midi":81,"time":99.18333333333341,"velocity":0.5511811023622047,"duration":0.40833333333334565},{"name":"C#5","midi":73,"time":99.18541666666674,"velocity":0.5669291338582677,"duration":0.13333333333333997},{"name":"G#3","midi":56,"time":99.18541666666674,"velocity":0.5275590551181102,"duration":0.13333333333333997},{"name":"D#5","midi":75,"time":99.32083333333341,"velocity":0.5669291338582677,"duration":0.1354166666666714},{"name":"F#3","midi":54,"time":99.32083333333341,"velocity":0.5275590551181102,"duration":0.1354166666666714},{"name":"E5","midi":76,"time":99.45833333333341,"velocity":0.5669291338582677,"duration":0.2708333333333428},{"name":"E3","midi":52,"time":99.45833333333341,"velocity":0.5275590551181102,"duration":0.5458333333333485},{"name":"G#5","midi":80,"time":99.59375000000009,"velocity":0.5669291338582677,"duration":0.13333333333333997},{"name":"A5","midi":81,"time":99.72916666666676,"velocity":0.5669291338582677,"duration":0.1354166666666714},{"name":"E4","midi":64,"time":99.72916666666676,"velocity":0.5275590551181102,"duration":0.27291666666667425},{"name":"G#5","midi":80,"time":99.86458333333343,"velocity":0.5669291338582677,"duration":0.13750000000000284},{"name":"F#5","midi":78,"time":100.00416666666676,"velocity":0.5669291338582677,"duration":0.1354166666666714},{"name":"A3","midi":57,"time":100.0062500000001,"velocity":0.5275590551181102,"duration":0.5479166666666799},{"name":"D#4","midi":63,"time":100.0062500000001,"velocity":0.5275590551181102,"duration":0.27291666666667425},{"name":"E5","midi":76,"time":100.14166666666677,"velocity":0.5669291338582677,"duration":0.1354166666666714},{"name":"D#5","midi":75,"time":100.27916666666677,"velocity":0.5669291338582677,"duration":0.1354166666666714},{"name":"E4","midi":64,"time":100.2812500000001,"velocity":0.5275590551181102,"duration":0.2708333333333428},{"name":"C#5","midi":73,"time":100.41458333333344,"velocity":0.5669291338582677,"duration":0.13750000000000284},{"name":"C5","midi":72,"time":100.55416666666677,"velocity":0.5669291338582677,"duration":0.2708333333333286},{"name":"F#4","midi":66,"time":100.5562500000001,"velocity":0.5275590551181102,"duration":0.5374999999999943},{"name":"D#3","midi":51,"time":100.5562500000001,"velocity":0.5275590551181102,"duration":0.13124999999999432},{"name":"C#4","midi":61,"time":100.68958333333343,"velocity":0.5275590551181102,"duration":0.1354166666666714},{"name":"C#5","midi":73,"time":100.8250000000001,"velocity":0.5669291338582677,"duration":0.26874999999999716},{"name":"C4","midi":60,"time":100.82708333333343,"velocity":0.5275590551181102,"duration":0.13124999999999432},{"name":"A#3","midi":58,"time":100.95833333333343,"velocity":0.5275590551181102,"duration":0.13333333333333997},{"name":"D#5","midi":75,"time":101.09583333333343,"velocity":0.5669291338582677,"duration":0.8125000000000142},{"name":"C4","midi":60,"time":101.09583333333343,"velocity":0.5275590551181102,"duration":0.2645833333333343},{"name":"G#3","midi":56,"time":101.09791666666676,"velocity":0.5275590551181102,"duration":0.12708333333333144},{"name":"F#3","midi":54,"time":101.22708333333343,"velocity":0.5275590551181102,"duration":0.13333333333333997},{"name":"E3","midi":52,"time":101.3625000000001,"velocity":0.5275590551181102,"duration":0.13750000000000284},{"name":"C#4","midi":61,"time":101.3625000000001,"velocity":0.5275590551181102,"duration":0.1354166666666714},{"name":"D#3","midi":51,"time":101.5000000000001,"velocity":0.5275590551181102,"duration":0.1354166666666714},{"name":"D#4","midi":63,"time":101.5000000000001,"velocity":0.5275590551181102,"duration":0.13333333333333997},{"name":"E4","midi":64,"time":101.63541666666677,"velocity":0.5275590551181102,"duration":0.2708333333333428},{"name":"C#3","midi":49,"time":101.6375000000001,"velocity":0.5275590551181102,"duration":0.13333333333333997},{"name":"B2","midi":47,"time":101.77083333333344,"velocity":0.6062992125984252,"duration":0.1354166666666714},{"name":"C#5","midi":73,"time":101.90833333333345,"velocity":0.5669291338582677,"duration":0.1354166666666572},{"name":"F#4","midi":66,"time":101.91041666666678,"velocity":0.5275590551181102,"duration":0.13333333333332575},{"name":"A2","midi":45,"time":101.91041666666678,"velocity":0.6062992125984252,"duration":0.13124999999999432},{"name":"C5","midi":72,"time":102.04583333333343,"velocity":0.5669291338582677,"duration":0.1354166666666572},{"name":"G#4","midi":68,"time":102.04583333333343,"velocity":0.5669291338582677,"duration":0.1354166666666572},{"name":"G#2","midi":44,"time":102.04791666666677,"velocity":0.6062992125984252,"duration":0.13124999999999432},{"name":"C#5","midi":73,"time":102.18333333333342,"velocity":0.5669291338582677,"duration":0.53958333333334},{"name":"A4","midi":69,"time":102.18333333333342,"velocity":0.5669291338582677,"duration":0.2666666666666657},{"name":"F#2","midi":42,"time":102.18541666666675,"velocity":0.6062992125984252,"duration":0.13124999999999432},{"name":"E2","midi":40,"time":102.31666666666675,"velocity":0.6062992125984252,"duration":0.13333333333333997},{"name":"G#4","midi":68,"time":102.45208333333342,"velocity":0.5669291338582677,"duration":0.26875000000001137},{"name":"D#2","midi":39,"time":102.45208333333342,"velocity":0.6062992125984252,"duration":0.13333333333333997},{"name":"C#2","midi":37,"time":102.58750000000009,"velocity":0.6062992125984252,"duration":0.13333333333333997},{"name":"F#4","midi":66,"time":102.72291666666676,"velocity":0.5275590551181102,"duration":0.6687499999999744},{"name":"D#2","midi":39,"time":102.7250000000001,"velocity":0.6062992125984252,"duration":0.2666666666666657},{"name":"E5","midi":76,"time":102.85625000000009,"velocity":0.5669291338582677,"duration":0.13333333333333997},{"name":"D#5","midi":75,"time":102.99166666666676,"velocity":0.5669291338582677,"duration":0.13333333333332575},{"name":"E2","midi":40,"time":102.99375000000009,"velocity":0.6062992125984252,"duration":0.13124999999999432},{"name":"C#5","midi":73,"time":103.12500000000009,"velocity":0.5669291338582677,"duration":0.13333333333332575},{"name":"F#2","midi":42,"time":103.12708333333342,"velocity":0.6062992125984252,"duration":0.13124999999999432},{"name":"B4","midi":71,"time":103.26041666666674,"velocity":0.5669291338582677,"duration":0.5416666666666714},{"name":"G#2","midi":44,"time":103.26041666666674,"velocity":0.6062992125984252,"duration":0.26874999999999716},{"name":"A4","midi":69,"time":103.39375000000007,"velocity":0.5669291338582677,"duration":0.1354166666666714},{"name":"G#4","midi":68,"time":103.53125000000007,"velocity":0.5669291338582677,"duration":0.13333333333333997},{"name":"G#2","midi":44,"time":103.53125000000007,"velocity":0.6062992125984252,"duration":0.2708333333333428},{"name":"F#4","midi":66,"time":103.66458333333341,"velocity":0.5275590551181102,"duration":0.1354166666666714},{"name":"C#5","midi":73,"time":103.80208333333341,"velocity":0.5669291338582677,"duration":0.2645833333333343},{"name":"E4","midi":64,"time":103.80416666666675,"velocity":0.5275590551181102,"duration":0.5291666666666544},{"name":"C#2","midi":37,"time":103.80416666666675,"velocity":0.6062992125984252,"duration":0.5270833333333229},{"name":"G#4","midi":68,"time":104.06875000000008,"velocity":0.5669291338582677,"duration":0.12916666666666288},{"name":"F#4","midi":66,"time":104.20000000000007,"velocity":0.5275590551181102,"duration":0.13124999999999432},{"name":"G#4","midi":68,"time":104.3333333333334,"velocity":0.5669291338582677,"duration":0.2604166666666572},{"name":"C#4","midi":61,"time":104.46250000000006,"velocity":0.5275590551181102,"duration":0.13124999999999432},{"name":"A4","midi":69,"time":104.59375000000006,"velocity":0.5669291338582677,"duration":0.26249999999998863},{"name":"B3","midi":59,"time":104.59583333333339,"velocity":0.5275590551181102,"duration":0.12708333333333144},{"name":"A3","midi":57,"time":104.72500000000005,"velocity":0.5275590551181102,"duration":0.12916666666666288},{"name":"F4","midi":65,"time":104.85625000000005,"velocity":0.5275590551181102,"duration":0.53125},{"name":"G#3","midi":56,"time":104.85833333333338,"velocity":0.5275590551181102,"duration":0.5270833333333371},{"name":"C#3","midi":49,"time":105.11458333333337,"velocity":0.5275590551181102,"duration":0.1354166666666714},{"name":"D3","midi":50,"time":105.25000000000004,"velocity":0.5275590551181102,"duration":0.1354166666666714},{"name":"F#4","midi":66,"time":105.38750000000005,"velocity":0.5275590551181102,"duration":0.27291666666666003},{"name":"C#3","midi":49,"time":105.38958333333338,"velocity":0.5275590551181102,"duration":0.13124999999999432},{"name":"A3","midi":57,"time":105.38958333333338,"velocity":0.5275590551181102,"duration":0.2708333333333286},{"name":"B2","midi":47,"time":105.5229166666667,"velocity":0.6062992125984252,"duration":0.1354166666666714},{"name":"G#4","midi":68,"time":105.66250000000004,"velocity":0.5669291338582677,"duration":0.2770833333333371},{"name":"D#4","midi":63,"time":105.66250000000004,"velocity":0.5275590551181102,"duration":0.2750000000000057},{"name":"A2","midi":45,"time":105.66458333333337,"velocity":0.6062992125984252,"duration":0.1354166666666714},{"name":"G#2","midi":44,"time":105.80208333333337,"velocity":0.6062992125984252,"duration":0.1354166666666714},{"name":"A4","midi":69,"time":105.93958333333337,"velocity":0.5669291338582677,"duration":0.1354166666666714},{"name":"C#4","midi":61,"time":105.9416666666667,"velocity":0.5275590551181102,"duration":1.3750000000000142},{"name":"F#2","midi":42,"time":105.9416666666667,"velocity":0.6062992125984252,"duration":0.27291666666667425},{"name":"G#4","midi":68,"time":106.07500000000005,"velocity":0.5669291338582677,"duration":0.13750000000000284},{"name":"A4","midi":69,"time":106.21458333333338,"velocity":0.5669291338582677,"duration":0.1354166666666714},{"name":"F#3","midi":54,"time":106.21666666666671,"velocity":0.5275590551181102,"duration":0.27291666666667425},{"name":"B4","midi":71,"time":106.35208333333338,"velocity":0.5669291338582677,"duration":0.13750000000000284},{"name":"A4","midi":69,"time":106.49166666666672,"velocity":0.5669291338582677,"duration":0.1354166666666714},{"name":"G#3","midi":56,"time":106.49166666666672,"velocity":0.5275590551181102,"duration":0.27291666666667425},{"name":"G#4","midi":68,"time":106.62708333333339,"velocity":0.5669291338582677,"duration":0.1354166666666714},{"name":"F#4","midi":66,"time":106.76458333333339,"velocity":0.5275590551181102,"duration":0.1354166666666714},{"name":"A3","midi":57,"time":106.76666666666672,"velocity":0.5275590551181102,"duration":0.27291666666667425},{"name":"E4","midi":64,"time":106.9020833333334,"velocity":0.5275590551181102,"duration":0.13750000000000284},{"name":"D#4","midi":63,"time":107.04166666666673,"velocity":0.5275590551181102,"duration":0.5499999999999972},{"name":"B3","midi":59,"time":107.04166666666673,"velocity":0.5275590551181102,"duration":0.27291666666666003},{"name":"F#3","midi":54,"time":107.31666666666672,"velocity":0.5275590551181102,"duration":0.27291666666667425},{"name":"B2","midi":47,"time":107.31875000000005,"velocity":0.6062992125984252,"duration":0.13333333333333997},{"name":"C#3","midi":49,"time":107.45416666666672,"velocity":0.5275590551181102,"duration":0.1354166666666714},{"name":"E4","midi":64,"time":107.59166666666673,"velocity":0.5275590551181102,"duration":0.26874999999999716},{"name":"G#3","midi":56,"time":107.59375000000006,"velocity":0.5275590551181102,"duration":0.2666666666666657},{"name":"B2","midi":47,"time":107.59375000000006,"velocity":0.6062992125984252,"duration":0.13124999999999432},{"name":"A2","midi":45,"time":107.72500000000005,"velocity":0.6062992125984252,"duration":0.13333333333333997},{"name":"A3","midi":57,"time":107.86250000000005,"velocity":0.5275590551181102,"duration":0.2666666666666657},{"name":"F#4","midi":66,"time":107.86250000000005,"velocity":0.5275590551181102,"duration":0.26874999999999716},{"name":"G#2","midi":44,"time":107.86458333333339,"velocity":0.6062992125984252,"duration":0.13124999999999432},{"name":"F#2","midi":42,"time":107.99583333333338,"velocity":0.6062992125984252,"duration":0.13333333333333997},{"name":"G#4","midi":68,"time":108.13125000000005,"velocity":0.5669291338582677,"duration":0.26874999999998295},{"name":"B3","midi":59,"time":108.13333333333338,"velocity":0.5275590551181102,"duration":0.2499999999999858},{"name":"E2","midi":40,"time":108.13333333333338,"velocity":0.6062992125984252,"duration":0.13124999999999432},{"name":"B2","midi":47,"time":108.26666666666671,"velocity":0.6062992125984252,"duration":0.13333333333332575},{"name":"G#4","midi":68,"time":108.40000000000003,"velocity":0.5669291338582677,"duration":0.27291666666667425},{"name":"E3","midi":52,"time":108.40208333333337,"velocity":0.5275590551181102,"duration":0.13333333333333997},{"name":"B3","midi":59,"time":108.40208333333337,"velocity":0.5275590551181102,"duration":0.2708333333333428},{"name":"F#3","midi":54,"time":108.5354166666667,"velocity":0.5275590551181102,"duration":0.13750000000000284},{"name":"A#4","midi":70,"time":108.67500000000004,"velocity":0.5669291338582677,"duration":0.2666666666666657},{"name":"C#4","midi":61,"time":108.67500000000004,"velocity":0.5275590551181102,"duration":0.2666666666666657},{"name":"E3","midi":52,"time":108.67500000000004,"velocity":0.5275590551181102,"duration":0.13124999999999432},{"name":"D#3","midi":51,"time":108.80625000000003,"velocity":0.5275590551181102,"duration":0.13333333333333997},{"name":"B4","midi":71,"time":108.9416666666667,"velocity":0.5669291338582677,"duration":0.2708333333333286},{"name":"C#3","midi":49,"time":108.94375000000004,"velocity":0.5275590551181102,"duration":0.12916666666666288},{"name":"D#4","midi":63,"time":108.94375000000004,"velocity":0.5275590551181102,"duration":0.2666666666666657},{"name":"B2","midi":47,"time":109.07500000000003,"velocity":0.6062992125984252,"duration":0.1354166666666714},{"name":"C#5","midi":73,"time":109.21250000000003,"velocity":0.5669291338582677,"duration":1.36041666666668},{"name":"E4","midi":64,"time":109.21458333333337,"velocity":0.5275590551181102,"duration":0.13124999999999432},{"name":"A#2","midi":46,"time":109.21458333333337,"velocity":0.6062992125984252,"duration":0.26874999999999716},{"name":"B4","midi":71,"time":109.34791666666669,"velocity":0.5669291338582677,"duration":0.13333333333333997},{"name":"A#4","midi":70,"time":109.48333333333336,"velocity":0.5669291338582677,"duration":0.1354166666666714},{"name":"F#2","midi":42,"time":109.48333333333336,"velocity":0.6062992125984252,"duration":0.2708333333333428},{"name":"G#4","midi":68,"time":109.61875000000003,"velocity":0.5669291338582677,"duration":0.1354166666666714},{"name":"F#4","midi":66,"time":109.75625000000004,"velocity":0.5275590551181102,"duration":0.13333333333333997},{"name":"G#2","midi":44,"time":109.75625000000004,"velocity":0.6062992125984252,"duration":0.27291666666667425},{"name":"E4","midi":64,"time":109.89166666666671,"velocity":0.5275590551181102,"duration":0.1354166666666714},{"name":"D#4","midi":63,"time":110.02916666666671,"velocity":0.5275590551181102,"duration":0.1354166666666714},{"name":"A#2","midi":46,"time":110.03125000000004,"velocity":0.6062992125984252,"duration":0.26875000000001137},{"name":"C#4","midi":61,"time":110.16458333333338,"velocity":0.5275590551181102,"duration":0.1354166666666714},{"name":"D#4","midi":63,"time":110.30208333333339,"velocity":0.5275590551181102,"duration":0.26874999999999716},{"name":"B2","midi":47,"time":110.30208333333339,"velocity":0.6062992125984252,"duration":0.13124999999999432},{"name":"C#3","midi":49,"time":110.43541666666671,"velocity":0.5275590551181102,"duration":0.1354166666666714},{"name":"B4","midi":71,"time":110.57291666666671,"velocity":0.5669291338582677,"duration":0.26874999999999716},{"name":"D#3","midi":51,"time":110.57500000000005,"velocity":0.5275590551181102,"duration":0.12916666666666288},{"name":"E3","midi":52,"time":110.70416666666671,"velocity":0.5275590551181102,"duration":0.1354166666666714},{"name":"A#4","midi":70,"time":110.84166666666671,"velocity":0.5669291338582677,"duration":0.26249999999998863},{"name":"F#3","midi":54,"time":110.84375000000004,"velocity":0.5275590551181102,"duration":0.12916666666666288},{"name":"G#3","midi":56,"time":110.9729166666667,"velocity":0.5275590551181102,"duration":0.13124999999999432},{"name":"B4","midi":71,"time":111.10625000000003,"velocity":0.5669291338582677,"duration":0.26458333333332007},{"name":"A#3","midi":58,"time":111.10625000000003,"velocity":0.5275590551181102,"duration":0.13124999999999432},{"name":"B3","midi":59,"time":111.23958333333336,"velocity":0.5275590551181102,"duration":0.13124999999999432},{"name":"C#5","midi":73,"time":111.37291666666668,"velocity":0.5669291338582677,"duration":0.5291666666666544},{"name":"E3","midi":52,"time":111.37291666666668,"velocity":0.5275590551181102,"duration":0.9104166666666487},{"name":"D#4","midi":63,"time":111.50416666666668,"velocity":0.5275590551181102,"duration":0.13124999999999432},{"name":"C#4","midi":61,"time":111.6375,"velocity":0.5275590551181102,"duration":0.13124999999999432},{"name":"B3","midi":59,"time":111.76875,"velocity":0.5275590551181102,"duration":0.13333333333333997},{"name":"F#4","midi":66,"time":111.90416666666667,"velocity":0.5275590551181102,"duration":0.2645833333333343},{"name":"A#3","midi":58,"time":111.90416666666667,"velocity":0.5275590551181102,"duration":0.12916666666666288},{"name":"G#3","midi":56,"time":112.03541666666666,"velocity":0.5275590551181102,"duration":0.13333333333333997},{"name":"G#4","midi":68,"time":112.17083333333333,"velocity":0.5669291338582677,"duration":0.13124999999999432},{"name":"F#3","midi":54,"time":112.17083333333333,"velocity":0.5275590551181102,"duration":0.13124999999999432},{"name":"A#4","midi":70,"time":112.30416666666666,"velocity":0.5669291338582677,"duration":0.1354166666666714},{"name":"E3","midi":52,"time":112.30416666666666,"velocity":0.5275590551181102,"duration":0.13333333333333997},{"name":"B4","midi":71,"time":112.43958333333333,"velocity":0.5669291338582677,"duration":0.2666666666666657},{"name":"F#3","midi":54,"time":112.44166666666666,"velocity":0.5275590551181102,"duration":0.13124999999999432},{"name":"D#3","midi":51,"time":112.44166666666666,"velocity":0.5275590551181102,"duration":0.11249999999999716},{"name":"D#3","midi":51,"time":112.57291666666666,"velocity":0.5275590551181102,"duration":0.13333333333333997},{"name":"C#5","midi":73,"time":112.70833333333333,"velocity":0.5669291338582677,"duration":0.13333333333332575},{"name":"E3","midi":52,"time":112.70833333333333,"velocity":0.5275590551181102,"duration":0.13124999999999432},{"name":"D#5","midi":75,"time":112.84166666666665,"velocity":0.5669291338582677,"duration":0.13333333333332575},{"name":"F#3","midi":54,"time":112.84374999999999,"velocity":0.5275590551181102,"duration":0.13124999999999432},{"name":"E5","midi":76,"time":112.97499999999998,"velocity":0.5669291338582677,"duration":0.26874999999999716},{"name":"G#3","midi":56,"time":112.97708333333331,"velocity":0.5275590551181102,"duration":0.13124999999999432},{"name":"C#3","midi":49,"time":112.97708333333331,"velocity":0.5275590551181102,"duration":0.2666666666666657},{"name":"A#3","midi":58,"time":113.1083333333333,"velocity":0.5275590551181102,"duration":0.13333333333333997},{"name":"D#5","midi":75,"time":113.24583333333331,"velocity":0.5669291338582677,"duration":0.26874999999999716},{"name":"B3","midi":59,"time":113.24583333333331,"velocity":0.5275590551181102,"duration":0.8083333333333513},{"name":"G#3","midi":56,"time":113.24791666666664,"velocity":0.5275590551181102,"duration":0.12708333333333144},{"name":"F#3","midi":54,"time":113.3770833333333,"velocity":0.5275590551181102,"duration":0.1354166666666714},{"name":"C#5","midi":73,"time":113.5145833333333,"velocity":0.5669291338582677,"duration":1.3479166666666913},{"name":"E3","midi":52,"time":113.5145833333333,"velocity":0.5275590551181102,"duration":0.13333333333333997},{"name":"D#3","midi":51,"time":113.64791666666665,"velocity":0.5275590551181102,"duration":0.13333333333333997},{"name":"C#3","midi":49,"time":113.78333333333332,"velocity":0.5275590551181102,"duration":0.13333333333333997},{"name":"D#3","midi":51,"time":113.91874999999999,"velocity":0.5275590551181102,"duration":0.13333333333333997},{"name":"A#3","midi":58,"time":114.05416666666666,"velocity":0.5275590551181102,"duration":0.40416666666666856},{"name":"E3","midi":52,"time":114.05624999999999,"velocity":0.5275590551181102,"duration":0.13124999999999432},{"name":"G#3","midi":56,"time":114.18749999999999,"velocity":0.5275590551181102,"duration":0.13333333333333997},{"name":"F#3","midi":54,"time":114.32291666666666,"velocity":0.5275590551181102,"duration":0.13333333333333997},{"name":"G#3","midi":56,"time":114.45833333333333,"velocity":0.5275590551181102,"duration":0.13333333333333997},{"name":"E3","midi":52,"time":114.45833333333333,"velocity":0.5275590551181102,"duration":0.13333333333333997},{"name":"D#3","midi":51,"time":114.59375,"velocity":0.5275590551181102,"duration":0.5416666666666714},{"name":"F#3","midi":54,"time":114.59375,"velocity":0.5275590551181102,"duration":0.8104166666666686},{"name":"F#5","midi":78,"time":114.86458333333333,"velocity":0.5669291338582677,"duration":0.26875000000001137},{"name":"B4","midi":71,"time":114.86458333333333,"velocity":0.5669291338582677,"duration":0.13333333333333997},{"name":"A#4","midi":70,"time":114.99791666666667,"velocity":0.5669291338582677,"duration":0.1354166666666714},{"name":"D#5","midi":75,"time":115.13541666666667,"velocity":0.5669291338582677,"duration":0.26874999999999716},{"name":"B4","midi":71,"time":115.1375,"velocity":0.5669291338582677,"duration":0.2645833333333343},{"name":"G#2","midi":44,"time":115.1375,"velocity":0.6062992125984252,"duration":0.5354166666666629},{"name":"C#5","midi":73,"time":115.40625,"velocity":0.5669291338582677,"duration":0.13124999999999432},{"name":"E5","midi":76,"time":115.40625,"velocity":0.5669291338582677,"duration":0.2666666666666657},{"name":"E3","midi":52,"time":115.40833333333333,"velocity":0.5275590551181102,"duration":0.5354166666666629},{"name":"B4","midi":71,"time":115.5375,"velocity":0.5669291338582677,"duration":0.13333333333333997},{"name":"F#5","midi":78,"time":115.675,"velocity":0.5669291338582677,"duration":0.5416666666666714},{"name":"A#4","midi":70,"time":115.675,"velocity":0.5669291338582677,"duration":0.13124999999999432},{"name":"F#2","midi":42,"time":115.675,"velocity":0.6062992125984252,"duration":1.6354166666666572},{"name":"G#4","midi":68,"time":115.80833333333332,"velocity":0.5669291338582677,"duration":0.1354166666666714},{"name":"F#4","midi":66,"time":115.94583333333333,"velocity":0.5275590551181102,"duration":0.13333333333333997},{"name":"D#3","midi":51,"time":115.94583333333333,"velocity":0.5275590551181102,"duration":0.13333333333333997},{"name":"C#3","midi":49,"time":116.08125,"velocity":0.5275590551181102,"duration":0.1354166666666714},{"name":"E4","midi":64,"time":116.08125,"velocity":0.5275590551181102,"duration":0.13333333333333997},{"name":"B4","midi":71,"time":116.21875,"velocity":0.5669291338582677,"duration":0.27291666666666003},{"name":"D#4","midi":63,"time":116.21875,"velocity":0.5275590551181102,"duration":0.2708333333333286},{"name":"D#3","midi":51,"time":116.22083333333333,"velocity":0.5275590551181102,"duration":0.26874999999999716},{"name":"D#5","midi":75,"time":116.49166666666666,"velocity":0.5669291338582677,"duration":0.13333333333332575},{"name":"B4","midi":71,"time":116.49374999999999,"velocity":0.5669291338582677,"duration":0.2708333333333286},{"name":"G#3","midi":56,"time":116.49374999999999,"velocity":0.5275590551181102,"duration":0.2708333333333286},{"name":"F5","midi":77,"time":116.62499999999999,"velocity":0.5669291338582677,"duration":0.13750000000000284},{"name":"F#5","midi":78,"time":116.76666666666665,"velocity":0.5669291338582677,"duration":0.26874999999999716},{"name":"A#4","midi":70,"time":116.76666666666665,"velocity":0.5669291338582677,"duration":0.26874999999999716},{"name":"C#3","midi":49,"time":116.76874999999998,"velocity":0.5275590551181102,"duration":0.5437500000000028},{"name":"G#5","midi":80,"time":117.03749999999998,"velocity":0.5669291338582677,"duration":0.13750000000000284},{"name":"B4","midi":71,"time":117.03749999999998,"velocity":0.5669291338582677,"duration":0.1354166666666714},{"name":"A#5","midi":82,"time":117.17499999999998,"velocity":0.5669291338582677,"duration":0.1354166666666714},{"name":"C#5","midi":73,"time":117.17499999999998,"velocity":0.5669291338582677,"duration":0.13333333333333997},{"name":"B5","midi":83,"time":117.31249999999999,"velocity":0.5669291338582677,"duration":0.2708333333333286},{"name":"D#5","midi":75,"time":117.31458333333332,"velocity":0.5669291338582677,"duration":0.13124999999999432},{"name":"F5","midi":77,"time":117.44583333333331,"velocity":0.5669291338582677,"duration":0.1354166666666714},{"name":"G#2","midi":44,"time":117.44791666666664,"velocity":0.6062992125984252,"duration":0.13333333333333997},{"name":"A#5","midi":82,"time":117.58333333333331,"velocity":0.5669291338582677,"duration":0.2708333333333286},{"name":"F#5","midi":78,"time":117.58541666666665,"velocity":0.5669291338582677,"duration":0.53958333333334},{"name":"A#2","midi":46,"time":117.58541666666665,"velocity":0.6062992125984252,"duration":0.13124999999999432},{"name":"B2","midi":47,"time":117.71874999999997,"velocity":0.6062992125984252,"duration":0.13333333333333997},{"name":"G#5","midi":80,"time":117.85416666666664,"velocity":0.5669291338582677,"duration":1.072916666666643},{"name":"C#3","midi":49,"time":117.85624999999997,"velocity":0.5275590551181102,"duration":0.13333333333333997},{"name":"D#3","midi":51,"time":117.98958333333331,"velocity":0.5275590551181102,"duration":0.1354166666666714},{"name":"E5","midi":76,"time":118.12708333333332,"velocity":0.5669291338582677,"duration":0.13333333333332575},{"name":"E3","midi":52,"time":118.12708333333332,"velocity":0.5275590551181102,"duration":0.13124999999999432},{"name":"D#5","midi":75,"time":118.26041666666664,"velocity":0.5669291338582677,"duration":0.1354166666666572},{"name":"F#3","midi":54,"time":118.26249999999997,"velocity":0.5275590551181102,"duration":0.13124999999999432},{"name":"E5","midi":76,"time":118.3958333333333,"velocity":0.5669291338582677,"duration":0.7895833333333115},{"name":"G#3","midi":56,"time":118.3958333333333,"velocity":0.5275590551181102,"duration":0.13124999999999432},{"name":"A#3","midi":58,"time":118.52916666666663,"velocity":0.5275590551181102,"duration":0.13333333333333997},{"name":"B3","midi":59,"time":118.66249999999997,"velocity":0.5275590551181102,"duration":0.13124999999999432},{"name":"G#3","midi":56,"time":118.79583333333329,"velocity":0.5275590551181102,"duration":0.12916666666666288},{"name":"F#5","midi":78,"time":118.92708333333329,"velocity":0.5669291338582677,"duration":0.7812499999999858},{"name":"A#3","midi":58,"time":118.92916666666662,"velocity":0.5275590551181102,"duration":0.12708333333333144},{"name":"G#3","midi":56,"time":119.05624999999995,"velocity":0.5275590551181102,"duration":0.12708333333333144},{"name":"D#5","midi":75,"time":119.18541666666661,"velocity":0.5669291338582677,"duration":0.12708333333333144},{"name":"F#3","midi":54,"time":119.18749999999994,"velocity":0.5275590551181102,"duration":0.125},{"name":"C#5","midi":73,"time":119.31458333333327,"velocity":0.5669291338582677,"duration":0.12916666666666288},{"name":"E3","midi":52,"time":119.31458333333327,"velocity":0.5275590551181102,"duration":0.12708333333333144},{"name":"B4","midi":71,"time":119.44374999999994,"velocity":0.5669291338582677,"duration":1.1354166666666572},{"name":"D#3","midi":51,"time":119.44583333333327,"velocity":0.5275590551181102,"duration":0.12916666666666288},{"name":"C#3","midi":49,"time":119.57499999999993,"velocity":0.5275590551181102,"duration":0.13333333333333997},{"name":"E5","midi":76,"time":119.7104166666666,"velocity":0.5669291338582677,"duration":0.13333333333332575},{"name":"D#3","midi":51,"time":119.7104166666666,"velocity":0.5275590551181102,"duration":0.13124999999999432},{"name":"D#5","midi":75,"time":119.84374999999993,"velocity":0.5669291338582677,"duration":0.13750000000000284},{"name":"E3","midi":52,"time":119.84583333333326,"velocity":0.5275590551181102,"duration":0.13333333333333997},{"name":"C#5","midi":73,"time":119.98124999999993,"velocity":0.5669291338582677,"duration":0.14374999999999716},{"name":"F#3","midi":54,"time":119.98333333333326,"velocity":0.5275590551181102,"duration":1.2208333333333172},{"name":"D#5","midi":75,"time":120.12708333333326,"velocity":0.5669291338582677,"duration":0.1458333333333286},{"name":"E5","midi":76,"time":120.27291666666659,"velocity":0.5669291338582677,"duration":0.4583333333333286},{"name":"C#4","midi":61,"time":120.27499999999992,"velocity":0.5275590551181102,"duration":0.15000000000000568},{"name":"D#4","midi":63,"time":120.42708333333326,"velocity":0.5275590551181102,"duration":0.15000000000000568},{"name":"A#4","midi":70,"time":120.5791666666666,"velocity":0.5669291338582677,"duration":0.6249999999999858},{"name":"C#4","midi":61,"time":120.58124999999993,"velocity":0.5275590551181102,"duration":0.14791666666666003},{"name":"G#5","midi":80,"time":120.73124999999992,"velocity":0.5669291338582677,"duration":0.14166666666666572},{"name":"B3","midi":59,"time":120.73333333333325,"velocity":0.5275590551181102,"duration":0.13958333333333428},{"name":"F#5","midi":78,"time":120.87499999999991,"velocity":0.5669291338582677,"duration":0.15625},{"name":"A#3","midi":58,"time":120.87499999999991,"velocity":0.5275590551181102,"duration":0.15416666666666856},{"name":"E5","midi":76,"time":121.03124999999991,"velocity":0.5669291338582677,"duration":0.17083333333333428},{"name":"G#3","midi":56,"time":121.03333333333325,"velocity":0.5275590551181102,"duration":0.16875000000000284},{"name":"B4","midi":71,"time":121.20624999999991,"velocity":0.49606299212598426,"duration":3.745833333333337},{"name":"D#5","midi":75,"time":121.20624999999991,"velocity":0.49606299212598426,"duration":3.745833333333337},{"name":"F#3","midi":54,"time":121.20833333333324,"velocity":0.3779527559055118,"duration":3.870833333333337},{"name":"B2","midi":47,"time":121.20833333333324,"velocity":0.5354330708661418,"duration":3.870833333333337}],"controlChanges":{"7":[{"number":7,"time":0,"value":0.8267716535433071},{"number":7,"time":0,"value":0.7874015748031497},{"number":7,"time":0,"value":0.7874015748031497}],"10":[{"number":10,"time":0,"value":0.49606299212598426},{"number":10,"time":0,"value":0.49606299212598426},{"number":10,"time":0,"value":0.3779527559055118},{"number":10,"time":4.320833333333334,"value":0.5275590551181102},{"number":10,"time":4.345833333333334,"value":0.6220472440944882},{"number":10,"time":4.364583333333334,"value":0.47244094488188976},{"number":10,"time":4.41875,"value":0.4566929133858268},{"number":10,"time":4.43125,"value":0.5905511811023622},{"number":10,"time":4.439583333333334,"value":0.4330708661417323},{"number":10,"time":4.4958333333333345,"value":0.5196850393700787},{"number":10,"time":4.497916666666668,"value":0.4645669291338583},{"number":10,"time":4.533333333333334,"value":0.5826771653543307}],"64":[{"number":64,"time":128.39583333333326,"value":0},{"number":64,"time":128.3979166666666,"value":0},{"number":64,"time":128.39999999999992,"value":0},{"number":64,"time":128.44999999999993,"value":0},{"number":64,"time":128.44999999999993,"value":0},{"number":64,"time":128.45208333333326,"value":0}]},"id":0,"name":"--------","instrumentNumber":0,"instrument":"acoustic grand piano","instrumentFamily":"piano","channelNumber":0,"isPercussion":false}]}