{"header":{"PPQ":480,"timeSignature":[4,4],"bpm":60,"name":"Bach's 3rd English Suite: 2. Allemande"},"startTime":0,"duration":195.64791666666653,"tracks":[{"startTime":0,"duration":0,"length":0,"notes":[],"controlChanges":{},"id":0,"name":"Bach's 3rd English Suite: 2. Allemande"},{"startTime":3.754166666666667,"duration":195.62499999999918,"length":701,"notes":[{"name":"A#4","midi":70,"time":3.754166666666667,"velocity":0.7952755905511811,"duration":0.15833333333333321},{"name":"G4","midi":67,"time":4.020833333333333,"velocity":0.7952755905511811,"duration":0.7229166666666664},{"name":"A#4","midi":70,"time":4.022916666666666,"velocity":0.7952755905511811,"duration":1.21875},{"name":"G5","midi":79,"time":5.247916666666666,"velocity":0.7952755905511811,"duration":0.2354166666666666},{"name":"F#5","midi":78,"time":5.485416666666666,"velocity":0.7952755905511811,"duration":0.27083333333333304},{"name":"G5","midi":79,"time":5.7333333333333325,"velocity":0.7952755905511811,"duration":0.2479166666666659},{"name":"A4","midi":69,"time":5.995833333333332,"velocity":0.7952755905511811,"duration":0.49166666666666714},{"name":"C5","midi":72,"time":5.995833333333332,"velocity":0.7952755905511811,"duration":1.3666666666666663},{"name":"A5","midi":81,"time":7.245833333333332,"velocity":0.7952755905511811,"duration":0.2312499999999993},{"name":"G5","midi":79,"time":7.477083333333331,"velocity":0.7952755905511811,"duration":0.34999999999999964},{"name":"A5","midi":81,"time":7.727083333333331,"velocity":0.7952755905511811,"duration":0.23958333333333304},{"name":"D5","midi":74,"time":7.977083333333331,"velocity":0.7952755905511811,"duration":0.3583333333333343},{"name":"G4","midi":67,"time":8.245833333333332,"velocity":0.7952755905511811,"duration":0.24375000000000036},{"name":"A#4","midi":70,"time":8.485416666666666,"velocity":0.7952755905511811,"duration":0.2666666666666675},{"name":"D5","midi":74,"time":8.73125,"velocity":0.7952755905511811,"duration":0.27291666666666714},{"name":"G5","midi":79,"time":8.995833333333334,"velocity":0.7952755905511811,"duration":0.2645833333333325},{"name":"A#5","midi":82,"time":9.245833333333334,"velocity":0.7952755905511811,"duration":0.39791666666666714},{"name":"A5","midi":81,"time":9.497916666666667,"velocity":0.7952755905511811,"duration":0.2520833333333332},{"name":"G5","midi":79,"time":9.735416666666667,"velocity":0.7952755905511811,"duration":0.2749999999999986},{"name":"F#5","midi":78,"time":9.995833333333334,"velocity":0.7874015748031497,"duration":0.27291666666666714},{"name":"G5","midi":79,"time":10.252083333333333,"velocity":0.7716535433070866,"duration":0.2687500000000025},{"name":"A5","midi":81,"time":10.504166666666668,"velocity":0.7559055118110236,"duration":0.25416666666666643},{"name":"D#5","midi":75,"time":10.752083333333335,"velocity":0.7401574803149606,"duration":0.25833333333333286},{"name":"D5","midi":74,"time":11.002083333333335,"velocity":0.7244094488188977,"duration":0.24791666666666679},{"name":"C5","midi":72,"time":11.247916666666669,"velocity":0.7086614173228346,"duration":0.27708333333333357},{"name":"A#4","midi":70,"time":11.502083333333335,"velocity":0.6929133858267716,"duration":0.24375000000000036},{"name":"A4","midi":69,"time":11.747916666666669,"velocity":0.6771653543307087,"duration":0.28125},{"name":"A#4","midi":70,"time":12.004166666666668,"velocity":0.6456692913385826,"duration":1.1395833333333325},{"name":"G4","midi":67,"time":12.254166666666668,"velocity":0.6456692913385826,"duration":0.19374999999999964},{"name":"A#4","midi":70,"time":13.247916666666667,"velocity":0.6456692913385826,"duration":0.2708333333333339},{"name":"C5","midi":72,"time":13.497916666666667,"velocity":0.6456692913385826,"duration":0.36249999999999893},{"name":"D#5","midi":75,"time":13.752083333333333,"velocity":0.6456692913385826,"duration":0.23958333333333215},{"name":"A4","midi":69,"time":13.997916666666665,"velocity":0.6456692913385826,"duration":1.1604166666666664},{"name":"F4","midi":65,"time":14.252083333333331,"velocity":0.6456692913385826,"duration":0.17916666666666714},{"name":"A4","midi":69,"time":15.247916666666665,"velocity":0.6377952755905512,"duration":0.2687500000000007},{"name":"A#4","midi":70,"time":15.497916666666665,"velocity":0.6377952755905512,"duration":0.25833333333333286},{"name":"D5","midi":74,"time":15.747916666666665,"velocity":0.6377952755905512,"duration":0.24166666666666536},{"name":"G4","midi":67,"time":15.997916666666663,"velocity":0.6377952755905512,"duration":1.1333333333333346},{"name":"D#4","midi":63,"time":16.25208333333333,"velocity":0.6377952755905512,"duration":0.15625},{"name":"G4","midi":67,"time":17.247916666666665,"velocity":0.6377952755905512,"duration":0.27291666666666714},{"name":"A4","midi":69,"time":17.50208333333333,"velocity":0.6377952755905512,"duration":0.252083333333335},{"name":"C5","midi":72,"time":17.747916666666665,"velocity":0.6299212598425197,"duration":0.2666666666666657},{"name":"F#4","midi":66,"time":17.997916666666665,"velocity":0.6299212598425197,"duration":0.2624999999999993},{"name":"A4","midi":69,"time":18.247916666666665,"velocity":0.6299212598425197,"duration":0.35416666666666785},{"name":"C5","midi":72,"time":18.50208333333333,"velocity":0.6299212598425197,"duration":0.26041666666666785},{"name":"D5","midi":74,"time":18.747916666666665,"velocity":0.6299212598425197,"duration":0.24375000000000213},{"name":"G4","midi":67,"time":18.99791666666667,"velocity":0.6299212598425197,"duration":0.2645833333333343},{"name":"A#4","midi":70,"time":19.252083333333335,"velocity":0.6299212598425197,"duration":0.252083333333335},{"name":"D5","midi":74,"time":19.49791666666667,"velocity":0.6299212598425197,"duration":0.25833333333333286},{"name":"D#5","midi":75,"time":19.74791666666667,"velocity":0.6299212598425197,"duration":0.247916666666665},{"name":"A4","midi":69,"time":19.99791666666667,"velocity":0.6299212598425197,"duration":0.2604166666666643},{"name":"C5","midi":72,"time":20.245833333333334,"velocity":0.6299212598425197,"duration":0.24374999999999858},{"name":"D5","midi":74,"time":20.495833333333334,"velocity":0.6220472440944882,"duration":0.2562500000000014},{"name":"F#5","midi":78,"time":20.733333333333334,"velocity":0.6377952755905512,"duration":0.25},{"name":"A#4","midi":70,"time":20.979166666666668,"velocity":0.6456692913385826,"duration":0.27083333333333215},{"name":"D5","midi":74,"time":21.227083333333333,"velocity":0.6614173228346457,"duration":0.22708333333333286},{"name":"F#5","midi":78,"time":21.479166666666664,"velocity":0.6692913385826772,"duration":0.2666666666666657},{"name":"G5","midi":79,"time":21.724999999999998,"velocity":0.6771653543307087,"duration":0.27291666666666714},{"name":"A5","midi":81,"time":21.979166666666664,"velocity":0.6929133858267716,"duration":0.2749999999999986},{"name":"G5","midi":79,"time":22.229166666666664,"velocity":0.7007874015748031,"duration":0.27708333333333},{"name":"F#5","midi":78,"time":22.481249999999996,"velocity":0.7165354330708661,"duration":0.2687500000000007},{"name":"E5","midi":76,"time":22.729166666666664,"velocity":0.7244094488188977,"duration":0.25833333333333286},{"name":"D5","midi":74,"time":22.979166666666664,"velocity":0.7401574803149606,"duration":0.2645833333333343},{"name":"D#5","midi":75,"time":23.229166666666664,"velocity":0.7480314960629921,"duration":0.26666666666666927},{"name":"F5","midi":77,"time":23.495833333333334,"velocity":0.7637795275590551,"duration":0.12916666666666643},{"name":"D#5","midi":75,"time":23.614583333333332,"velocity":0.7637795275590551,"duration":0.12916666666666643},{"name":"D5","midi":74,"time":23.745833333333334,"velocity":0.7716535433070866,"duration":0.12916666666666643},{"name":"D#5","midi":75,"time":23.866666666666667,"velocity":0.7795275590551181,"duration":0.12916666666666643},{"name":"B4","midi":71,"time":23.99791666666667,"velocity":0.7795275590551181,"duration":1.25},{"name":"D5","midi":74,"time":23.99791666666667,"velocity":0.7795275590551181,"duration":1},{"name":"F5","midi":77,"time":23.99791666666667,"velocity":0.7795275590551181,"duration":2.3916666666666693},{"name":"C5","midi":72,"time":25.252083333333335,"velocity":0.7874015748031497,"duration":0.247916666666665},{"name":"D5","midi":74,"time":25.502083333333335,"velocity":0.7874015748031497,"duration":0.13333333333333286},{"name":"C5","midi":72,"time":25.63125,"velocity":0.7874015748031497,"duration":0.125},{"name":"B4","midi":71,"time":25.752083333333335,"velocity":0.7952755905511811,"duration":0.14166666666666572},{"name":"C5","midi":72,"time":25.889583333333334,"velocity":0.7952755905511811,"duration":0.22500000000000142},{"name":"D5","midi":74,"time":25.993750000000002,"velocity":0.7952755905511811,"duration":0.24791666666666856},{"name":"D#5","midi":75,"time":26.243750000000006,"velocity":0.7952755905511811,"duration":0.2666666666666657},{"name":"F5","midi":77,"time":26.514583333333338,"velocity":0.7952755905511811,"duration":0.13750000000000284},{"name":"D#5","midi":75,"time":26.64583333333334,"velocity":0.8031496062992126,"duration":0.125},{"name":"D5","midi":74,"time":26.766666666666673,"velocity":0.8031496062992126,"duration":0.13125000000000142},{"name":"D#5","midi":75,"time":26.89583333333334,"velocity":0.8031496062992126,"duration":0.11875000000000213},{"name":"F5","midi":77,"time":27.00625000000001,"velocity":0.8031496062992126,"duration":0.24791666666666856},{"name":"G#5","midi":80,"time":27.24375000000001,"velocity":0.8031496062992126,"duration":0.24166666666666714},{"name":"G5","midi":79,"time":27.485416666666676,"velocity":0.8110236220472441,"duration":0.24166666666666714},{"name":"F5","midi":77,"time":27.71875000000001,"velocity":0.8110236220472441,"duration":0.24166666666666714},{"name":"D#5","midi":75,"time":28.002083333333346,"velocity":0.8110236220472441,"duration":0.25416666666666643},{"name":"C5","midi":72,"time":28.252083333333346,"velocity":0.8188976377952756,"duration":0.25},{"name":"D#5","midi":75,"time":28.49791666666668,"velocity":0.8031496062992126,"duration":0.25416666666666643},{"name":"G5","midi":79,"time":28.74791666666668,"velocity":0.7874015748031497,"duration":0.25416666666666643},{"name":"C6","midi":84,"time":28.99791666666668,"velocity":0.7795275590551181,"duration":0.2666666666666657},{"name":"A#5","midi":82,"time":29.245833333333344,"velocity":0.7637795275590551,"duration":0.2749999999999986},{"name":"A5","midi":81,"time":29.495833333333344,"velocity":0.7480314960629921,"duration":0.24374999999999858},{"name":"G5","midi":79,"time":29.745833333333344,"velocity":0.7322834645669292,"duration":0.22708333333333286},{"name":"F#5","midi":78,"time":29.983333333333345,"velocity":0.7165354330708661,"duration":0.2645833333333343},{"name":"G5","midi":79,"time":30.24791666666668,"velocity":0.7007874015748031,"duration":0.2562500000000014},{"name":"A5","midi":81,"time":30.495833333333348,"velocity":0.6850393700787402,"duration":0.25416666666666643},{"name":"D#5","midi":75,"time":30.73541666666668,"velocity":0.6692913385826772,"duration":0.2645833333333343},{"name":"D5","midi":74,"time":30.99791666666668,"velocity":0.6614173228346457,"duration":0.28125},{"name":"C5","midi":72,"time":31.252083333333346,"velocity":0.6456692913385826,"duration":0.25},{"name":"A#4","midi":70,"time":31.49791666666668,"velocity":0.6299212598425197,"duration":0.23958333333333215},{"name":"A4","midi":69,"time":31.733333333333345,"velocity":0.6141732283464567,"duration":0.27708333333333357},{"name":"A#4","midi":70,"time":31.99791666666668,"velocity":0.5984251968503937,"duration":1.9875000000000078},{"name":"A#3","midi":58,"time":32.49791666666668,"velocity":0.5748031496062992,"duration":0.25416666666667},{"name":"D4","midi":62,"time":32.74791666666668,"velocity":0.5748031496062992,"duration":0.24791666666666856},{"name":"G4","midi":67,"time":32.99791666666668,"velocity":0.5748031496062992,"duration":0.25},{"name":"F4","midi":65,"time":33.24791666666668,"velocity":0.5748031496062992,"duration":0.2562500000000014},{"name":"D#4","midi":63,"time":33.49791666666668,"velocity":0.5748031496062992,"duration":0.24791666666666856},{"name":"D4","midi":62,"time":33.74791666666668,"velocity":0.5748031496062992,"duration":0.23750000000000426},{"name":"C#4","midi":61,"time":33.99375000000002,"velocity":0.5748031496062992,"duration":0.25},{"name":"A4","midi":69,"time":33.99375000000002,"velocity":0.5748031496062992,"duration":2.5145833333333485},{"name":"D4","midi":62,"time":34.24375000000002,"velocity":0.5748031496062992,"duration":0.26875000000000426},{"name":"E4","midi":64,"time":34.50625000000002,"velocity":0.5748031496062992,"duration":0.18541666666666856},{"name":"A#3","midi":58,"time":34.735416666666694,"velocity":0.5748031496062992,"duration":0.25833333333333286},{"name":"A3","midi":57,"time":34.99375000000003,"velocity":0.5748031496062992,"duration":0.2645833333333343},{"name":"D4","midi":62,"time":36.2541666666667,"velocity":0.5826771653543307,"duration":0.24374999999999858},{"name":"F4","midi":65,"time":36.50208333333337,"velocity":0.5905511811023622,"duration":0.2395833333333357},{"name":"A4","midi":69,"time":36.747916666666704,"velocity":0.5984251968503937,"duration":0.2645833333333343},{"name":"D5","midi":74,"time":37.002083333333374,"velocity":0.6141732283464567,"duration":0.25208333333333144},{"name":"F5","midi":77,"time":37.252083333333374,"velocity":0.6220472440944882,"duration":0.25},{"name":"E5","midi":76,"time":37.49583333333337,"velocity":0.6299212598425197,"duration":0.26250000000000284},{"name":"D5","midi":74,"time":37.74583333333337,"velocity":0.6456692913385826,"duration":0.2562500000000014},{"name":"C#5","midi":73,"time":37.98333333333338,"velocity":0.6535433070866141,"duration":0.2916666666666572},{"name":"D5","midi":74,"time":38.247916666666704,"velocity":0.6614173228346457,"duration":0.2666666666666657},{"name":"E5","midi":76,"time":38.497916666666704,"velocity":0.6614173228346457,"duration":0.23333333333333428},{"name":"A#4","midi":70,"time":38.73125000000004,"velocity":0.6535433070866141,"duration":0.26874999999999716},{"name":"A4","midi":69,"time":38.98333333333337,"velocity":0.6377952755905512,"duration":0.2604166666666714},{"name":"G4","midi":67,"time":39.23125000000004,"velocity":0.6299212598425197,"duration":0.2708333333333357},{"name":"F4","midi":65,"time":39.48333333333338,"velocity":0.6141732283464567,"duration":0.25},{"name":"E4","midi":64,"time":39.727083333333375,"velocity":0.5984251968503937,"duration":0.27916666666666856},{"name":"F#4","midi":66,"time":39.981250000000045,"velocity":0.5905511811023622,"duration":0.3645833333333286},{"name":"G4","midi":67,"time":40.24791666666671,"velocity":0.5748031496062992,"duration":0.2562499999999943},{"name":"A4","midi":69,"time":40.497916666666704,"velocity":0.5748031496062992,"duration":0.2708333333333357},{"name":"D#4","midi":63,"time":40.74583333333337,"velocity":0.5748031496062992,"duration":0.2770833333333371},{"name":"D4","midi":62,"time":41.00000000000004,"velocity":0.5748031496062992,"duration":0.24791666666666146},{"name":"C4","midi":60,"time":41.24583333333337,"velocity":0.5748031496062992,"duration":0.27708333333333},{"name":"A#3","midi":58,"time":41.497916666666704,"velocity":0.5748031496062992,"duration":0.24166666666666714},{"name":"A3","midi":57,"time":41.73125000000004,"velocity":0.5748031496062992,"duration":0.3645833333333357},{"name":"A#3","midi":58,"time":41.99583333333337,"velocity":0.5748031496062992,"duration":0.34166666666666856},{"name":"C4","midi":60,"time":42.24583333333337,"velocity":0.5748031496062992,"duration":0.26250000000000284},{"name":"D4","midi":62,"time":42.49583333333337,"velocity":0.5748031496062992,"duration":0.27708333333333},{"name":"G#3","midi":56,"time":42.74583333333337,"velocity":0.5748031496062992,"duration":0.28333333333333144},{"name":"G3","midi":55,"time":43.002083333333374,"velocity":0.5748031496062992,"duration":0.25208333333333144},{"name":"F3","midi":53,"time":43.247916666666704,"velocity":0.5748031496062992,"duration":0.34166666666666856},{"name":"D#3","midi":51,"time":43.497916666666704,"velocity":0.5748031496062992,"duration":0.2395833333333357},{"name":"D3","midi":50,"time":43.73125000000004,"velocity":0.5748031496062992,"duration":0.2708333333333286},{"name":"C#3","midi":49,"time":43.98333333333337,"velocity":0.5748031496062992,"duration":0.35625000000000284},{"name":"D3","midi":50,"time":44.24583333333337,"velocity":0.5748031496062992,"duration":0.2666666666666657},{"name":"E3","midi":52,"time":44.49583333333337,"velocity":0.5748031496062992,"duration":0.27291666666666714},{"name":"A#2","midi":46,"time":44.747916666666704,"velocity":0.5748031496062992,"duration":0.35208333333333997},{"name":"A2","midi":45,"time":45.00000000000004,"velocity":0.5748031496062992,"duration":0.19583333333333286},{"name":"C#5","midi":73,"time":45.502083333333374,"velocity":0.5748031496062992,"duration":0.4854166666666657},{"name":"D5","midi":74,"time":45.997916666666704,"velocity":0.5984251968503937,"duration":1},{"name":"E5","midi":76,"time":46.24583333333337,"velocity":0.6141732283464567,"duration":0.37083333333333},{"name":"F5","midi":77,"time":46.497916666666704,"velocity":0.6299212598425197,"duration":0.3270833333333343},{"name":"A#5","midi":82,"time":46.73333333333337,"velocity":0.6456692913385826,"duration":0.26875000000000426},{"name":"C#5","midi":73,"time":46.97500000000004,"velocity":0.6614173228346457,"duration":0.6666666666666856},{"name":"F5","midi":77,"time":46.97708333333337,"velocity":0.6614173228346457,"duration":0.11458333333334281},{"name":"E5","midi":76,"time":47.070833333333375,"velocity":0.6692913385826772,"duration":0.10208333333333997},{"name":"F5","midi":77,"time":47.168750000000045,"velocity":0.6692913385826772,"duration":0.06458333333333854},{"name":"E5","midi":76,"time":47.26250000000005,"velocity":0.6771653543307087,"duration":0.07083333333333286},{"name":"F5","midi":77,"time":47.337500000000055,"velocity":0.6850393700787402,"duration":0.10625000000000284},{"name":"E5","midi":76,"time":47.466666666666725,"velocity":0.6929133858267716,"duration":0.21041666666666714},{"name":"D5","midi":74,"time":47.73750000000006,"velocity":0.7086614173228346,"duration":0.21041666666666714},{"name":"D5","midi":74,"time":47.997916666666725,"velocity":0.7244094488188977,"duration":1.9999999999999858},{"name":"C5","midi":72,"time":48.252083333333395,"velocity":0.7244094488188977,"duration":0.25},{"name":"A#4","midi":70,"time":48.497916666666725,"velocity":0.7165354330708661,"duration":0.24583333333333712},{"name":"A4","midi":69,"time":48.745833333333394,"velocity":0.7086614173228346,"duration":0.2541666666666629},{"name":"G4","midi":67,"time":48.997916666666725,"velocity":0.6929133858267716,"duration":0.25833333333332575},{"name":"A4","midi":69,"time":49.24583333333339,"velocity":0.6850393700787402,"duration":0.2666666666666586},{"name":"A#4","midi":70,"time":49.50208333333338,"velocity":0.6692913385826772,"duration":0.5624999999999929},{"name":"A4","midi":69,"time":50.012500000000045,"velocity":0.6535433070866141,"duration":1.55833333333333},{"name":"D5","midi":74,"time":50.01458333333338,"velocity":0.6535433070866141,"duration":1.5020833333333314},{"name":"F#4","midi":66,"time":50.02500000000004,"velocity":0.6456692913385826,"duration":1.5020833333333314},{"name":"A#4","midi":70,"time":51.762500000000045,"velocity":0.5590551181102362,"duration":0.15833333333333144},{"name":"G4","midi":67,"time":52.01666666666671,"velocity":0.5590551181102362,"duration":0.7229166666666629},{"name":"A#4","midi":70,"time":52.01875000000004,"velocity":0.5590551181102362,"duration":1.21875},{"name":"G5","midi":79,"time":53.26041666666671,"velocity":0.5590551181102362,"duration":0.23541666666666572},{"name":"F#5","midi":78,"time":53.50625000000004,"velocity":0.5590551181102362,"duration":0.2708333333333357},{"name":"G5","midi":79,"time":53.75625000000004,"velocity":0.5590551181102362,"duration":0.24791666666666856},{"name":"A4","midi":69,"time":54.01041666666671,"velocity":0.5590551181102362,"duration":0.49166666666667425},{"name":"C5","midi":72,"time":54.01041666666671,"velocity":0.5590551181102362,"duration":1.3666666666666742},{"name":"A5","midi":81,"time":55.260416666666714,"velocity":0.5590551181102362,"duration":0.23125000000000284},{"name":"G5","midi":79,"time":55.50416666666672,"velocity":0.5590551181102362,"duration":0.3500000000000014},{"name":"A5","midi":81,"time":55.75416666666672,"velocity":0.5590551181102362,"duration":0.2395833333333357},{"name":"D5","midi":74,"time":56.00416666666672,"velocity":0.5590551181102362,"duration":0.3583333333333343},{"name":"G4","midi":67,"time":56.26041666666672,"velocity":0.5590551181102362,"duration":0.24374999999999858},{"name":"A#4","midi":70,"time":56.50625000000005,"velocity":0.5590551181102362,"duration":0.2666666666666657},{"name":"D5","midi":74,"time":56.75625000000005,"velocity":0.5590551181102362,"duration":0.27291666666666003},{"name":"G5","midi":79,"time":57.010416666666714,"velocity":0.5590551181102362,"duration":0.2645833333333343},{"name":"A#5","midi":82,"time":57.260416666666714,"velocity":0.5590551181102362,"duration":0.39791666666666714},{"name":"A5","midi":81,"time":57.510416666666714,"velocity":0.5590551181102362,"duration":0.25208333333333854},{"name":"G5","midi":79,"time":57.75625000000005,"velocity":0.5590551181102362,"duration":0.2750000000000057},{"name":"F#5","midi":78,"time":58.01041666666672,"velocity":0.5669291338582677,"duration":0.27291666666667425},{"name":"D3","midi":50,"time":58.220833333333395,"velocity":0.4015748031496063,"duration":0.46041666666666003},{"name":"G5","midi":79,"time":58.26250000000006,"velocity":0.5590551181102362,"duration":0.26874999999999716},{"name":"A5","midi":81,"time":58.51250000000006,"velocity":0.5590551181102362,"duration":0.2541666666666629},{"name":"D#5","midi":75,"time":58.76250000000005,"velocity":0.5511811023622047,"duration":0.25833333333333286},{"name":"D5","midi":74,"time":59.01250000000005,"velocity":0.5433070866141733,"duration":0.24791666666666856},{"name":"C5","midi":72,"time":59.26041666666672,"velocity":0.5433070866141733,"duration":0.27708333333333},{"name":"A#4","midi":70,"time":59.51250000000005,"velocity":0.5354330708661418,"duration":0.24374999999999858},{"name":"A4","midi":69,"time":59.76041666666672,"velocity":0.5275590551181102,"duration":0.28125},{"name":"A#4","midi":70,"time":60.01250000000005,"velocity":0.5275590551181102,"duration":1.1395833333333343},{"name":"G4","midi":67,"time":60.26250000000005,"velocity":0.5196850393700787,"duration":0.19375000000000142},{"name":"A#4","midi":70,"time":61.26041666666672,"velocity":0.5196850393700787,"duration":0.2708333333333357},{"name":"C5","midi":72,"time":61.51041666666672,"velocity":0.5196850393700787,"duration":0.36250000000000426},{"name":"D#5","midi":75,"time":61.76250000000006,"velocity":0.5196850393700787,"duration":0.2395833333333357},{"name":"A4","midi":69,"time":62.01041666666673,"velocity":0.5196850393700787,"duration":1.1604166666666629},{"name":"F4","midi":65,"time":62.26250000000006,"velocity":0.5196850393700787,"duration":0.17916666666666714},{"name":"A4","midi":69,"time":63.26041666666672,"velocity":0.5196850393700787,"duration":0.26874999999999716},{"name":"A#4","midi":70,"time":63.51041666666672,"velocity":0.5196850393700787,"duration":0.25833333333333286},{"name":"D5","midi":74,"time":63.76041666666672,"velocity":0.5196850393700787,"duration":0.24166666666666714},{"name":"G4","midi":67,"time":64.01041666666673,"velocity":0.5196850393700787,"duration":1.13333333333334},{"name":"D#4","midi":63,"time":64.26250000000006,"velocity":0.5196850393700787,"duration":0.15625},{"name":"G4","midi":67,"time":65.26041666666673,"velocity":0.5196850393700787,"duration":0.27291666666666003},{"name":"A4","midi":69,"time":65.51250000000006,"velocity":0.5196850393700787,"duration":0.25208333333333144},{"name":"C5","midi":72,"time":65.76041666666673,"velocity":0.5196850393700787,"duration":0.2666666666666657},{"name":"F#4","midi":66,"time":66.01041666666673,"velocity":0.5196850393700787,"duration":0.26250000000000284},{"name":"A4","midi":69,"time":66.26041666666673,"velocity":0.5196850393700787,"duration":0.3541666666666572},{"name":"C5","midi":72,"time":66.51250000000006,"velocity":0.5196850393700787,"duration":0.2604166666666572},{"name":"D5","midi":74,"time":66.76041666666671,"velocity":0.5196850393700787,"duration":0.24375000000000568},{"name":"G4","midi":67,"time":67.01041666666671,"velocity":0.5196850393700787,"duration":0.2645833333333343},{"name":"A#4","midi":70,"time":67.26250000000005,"velocity":0.5196850393700787,"duration":0.25208333333333144},{"name":"D5","midi":74,"time":67.51041666666671,"velocity":0.5196850393700787,"duration":0.25833333333333997},{"name":"D#5","midi":75,"time":67.76041666666671,"velocity":0.5196850393700787,"duration":0.24791666666666856},{"name":"A4","midi":69,"time":68.01041666666671,"velocity":0.5196850393700787,"duration":0.2604166666666714},{"name":"C5","midi":72,"time":68.26041666666671,"velocity":0.5354330708661418,"duration":0.24375000000000568},{"name":"D5","midi":74,"time":68.51041666666671,"velocity":0.5433070866141733,"duration":0.2562500000000085},{"name":"F#5","midi":78,"time":68.75625000000005,"velocity":0.5590551181102362,"duration":0.25},{"name":"A#4","midi":70,"time":69.00416666666672,"velocity":0.5748031496062992,"duration":0.2708333333333286},{"name":"D5","midi":74,"time":69.25416666666672,"velocity":0.5905511811023622,"duration":0.22708333333332575},{"name":"F#5","midi":78,"time":69.5041666666667,"velocity":0.6062992125984252,"duration":0.2666666666666657},{"name":"G5","midi":79,"time":69.7541666666667,"velocity":0.6220472440944882,"duration":0.27291666666666003},{"name":"A5","midi":81,"time":70.0041666666667,"velocity":0.6377952755905512,"duration":0.2749999999999915},{"name":"G5","midi":79,"time":70.25416666666669,"velocity":0.6535433070866141,"duration":0.27708333333335133},{"name":"F#5","midi":78,"time":70.50625000000004,"velocity":0.6692913385826772,"duration":0.26874999999999716},{"name":"E5","midi":76,"time":70.7541666666667,"velocity":0.6771653543307087,"duration":0.25833333333333997},{"name":"D5","midi":74,"time":71.0041666666667,"velocity":0.6850393700787402,"duration":0.2645833333333343},{"name":"D#5","midi":75,"time":71.2541666666667,"velocity":0.6929133858267716,"duration":0.2666666666666657},{"name":"F5","midi":77,"time":71.5104166666667,"velocity":0.6929133858267716,"duration":0.1291666666666771},{"name":"D#5","midi":75,"time":71.64791666666672,"velocity":0.7007874015748031,"duration":0.12916666666666288},{"name":"D5","midi":74,"time":71.76041666666671,"velocity":0.7007874015748031,"duration":0.12916666666666288},{"name":"D#5","midi":75,"time":71.90000000000005,"velocity":0.7086614173228346,"duration":0.12916666666666288},{"name":"B4","midi":71,"time":72.01041666666671,"velocity":0.7086614173228346,"duration":1.25},{"name":"D5","midi":74,"time":72.01041666666671,"velocity":0.7086614173228346,"duration":1},{"name":"F5","midi":77,"time":72.01041666666671,"velocity":0.7086614173228346,"duration":2.3916666666666657},{"name":"C5","midi":72,"time":73.26250000000005,"velocity":0.7401574803149606,"duration":0.24791666666666856},{"name":"D5","midi":74,"time":73.51250000000005,"velocity":0.7559055118110236,"duration":0.13333333333332575},{"name":"C5","midi":72,"time":73.62291666666671,"velocity":0.7480314960629921,"duration":0.125},{"name":"B4","midi":71,"time":73.76250000000005,"velocity":0.7401574803149606,"duration":0.14166666666666572},{"name":"C5","midi":72,"time":73.87500000000004,"velocity":0.7322834645669292,"duration":0.22500000000000853},{"name":"D5","midi":74,"time":74.00833333333338,"velocity":0.7244094488188977,"duration":0.24791666666666856},{"name":"D#5","midi":75,"time":74.25833333333338,"velocity":0.7086614173228346,"duration":0.2666666666666657},{"name":"F5","midi":77,"time":74.51458333333338,"velocity":0.6929133858267716,"duration":0.13750000000000284},{"name":"D#5","midi":75,"time":74.66041666666672,"velocity":0.6850393700787402,"duration":0.125},{"name":"D5","midi":74,"time":74.76666666666672,"velocity":0.6771653543307087,"duration":0.13124999999999432},{"name":"D#5","midi":75,"time":74.87708333333339,"velocity":0.6692913385826772,"duration":0.11874999999999147},{"name":"F5","midi":77,"time":75.01250000000005,"velocity":0.6614173228346457,"duration":0.24791666666666856},{"name":"G#5","midi":80,"time":75.25833333333338,"velocity":0.6456692913385826,"duration":0.24166666666666003},{"name":"G5","midi":79,"time":75.50625000000004,"velocity":0.6299212598425197,"duration":0.24166666666666003},{"name":"F5","midi":77,"time":75.75208333333336,"velocity":0.6141732283464567,"duration":0.24166666666666003},{"name":"D#5","midi":75,"time":76.01250000000002,"velocity":0.5905511811023622,"duration":0.2541666666666629},{"name":"C5","midi":72,"time":76.26250000000002,"velocity":0.5905511811023622,"duration":0.25},{"name":"D#5","midi":75,"time":76.51041666666669,"velocity":0.5905511811023622,"duration":0.25416666666664867},{"name":"G5","midi":79,"time":76.76041666666667,"velocity":0.5905511811023622,"duration":0.2541666666666629},{"name":"C6","midi":84,"time":77.01041666666667,"velocity":0.5905511811023622,"duration":0.2666666666666657},{"name":"A#5","midi":82,"time":77.26041666666667,"velocity":0.5905511811023622,"duration":0.2750000000000057},{"name":"A5","midi":81,"time":77.51041666666667,"velocity":0.5905511811023622,"duration":0.24375000000000568},{"name":"G5","midi":79,"time":77.76041666666667,"velocity":0.5905511811023622,"duration":0.22708333333333997},{"name":"F#5","midi":78,"time":78.00625000000001,"velocity":0.5905511811023622,"duration":0.2645833333333343},{"name":"G5","midi":79,"time":78.26041666666667,"velocity":0.5905511811023622,"duration":0.2562499999999943},{"name":"A5","midi":81,"time":78.51041666666667,"velocity":0.5905511811023622,"duration":0.2541666666666629},{"name":"D#5","midi":75,"time":78.75625,"velocity":0.5905511811023622,"duration":0.2645833333333485},{"name":"D5","midi":74,"time":79.01041666666667,"velocity":0.5905511811023622,"duration":0.2812500000000142},{"name":"C5","midi":72,"time":79.26250000000002,"velocity":0.5905511811023622,"duration":0.25},{"name":"A#4","midi":70,"time":79.51041666666669,"velocity":0.5905511811023622,"duration":0.2395833333333286},{"name":"A4","midi":69,"time":79.75625000000001,"velocity":0.5905511811023622,"duration":0.2770833333333229},{"name":"A#4","midi":70,"time":80.01041666666667,"velocity":0.5905511811023622,"duration":1.987499999999983},{"name":"A#3","midi":58,"time":80.51041666666667,"velocity":0.5984251968503937,"duration":0.2541666666666629},{"name":"D4","midi":62,"time":80.76041666666667,"velocity":0.6220472440944882,"duration":0.24791666666666856},{"name":"G4","midi":67,"time":81.01041666666667,"velocity":0.6456692913385826,"duration":0.25},{"name":"F4","midi":65,"time":81.26041666666667,"velocity":0.6614173228346457,"duration":0.2562499999999943},{"name":"D#4","midi":63,"time":81.51041666666667,"velocity":0.6692913385826772,"duration":0.24791666666665435},{"name":"D4","midi":62,"time":81.76041666666666,"velocity":0.6614173228346457,"duration":0.23749999999999716},{"name":"C#4","midi":61,"time":82.00833333333333,"velocity":0.6456692913385826,"duration":0.25},{"name":"A4","midi":69,"time":82.00833333333333,"velocity":0.6456692913385826,"duration":2.5145833333333485},{"name":"D4","midi":62,"time":82.25833333333333,"velocity":0.6377952755905512,"duration":0.26874999999999716},{"name":"E4","midi":64,"time":82.51249999999999,"velocity":0.6299212598425197,"duration":0.18541666666666856},{"name":"A#3","midi":58,"time":82.75625,"velocity":0.6141732283464567,"duration":0.25833333333332575},{"name":"A3","midi":57,"time":83.00833333333333,"velocity":0.6062992125984252,"duration":0.2645833333333343},{"name":"D4","midi":62,"time":84.2625,"velocity":0.5590551181102362,"duration":0.24375000000000568},{"name":"F4","midi":65,"time":84.5125,"velocity":0.5669291338582677,"duration":0.2395833333333286},{"name":"A4","midi":69,"time":84.76041666666667,"velocity":0.5669291338582677,"duration":0.2645833333333343},{"name":"D5","midi":74,"time":85.0125,"velocity":0.5748031496062992,"duration":0.25208333333333144},{"name":"F5","midi":77,"time":85.2625,"velocity":0.5826771653543307,"duration":0.25},{"name":"E5","midi":76,"time":85.51041666666667,"velocity":0.5826771653543307,"duration":0.26250000000000284},{"name":"D5","midi":74,"time":85.76041666666667,"velocity":0.5905511811023622,"duration":0.2562500000000085},{"name":"C#5","midi":73,"time":86.00625000000001,"velocity":0.5905511811023622,"duration":0.2916666666666572},{"name":"D5","midi":74,"time":86.26041666666667,"velocity":0.5984251968503937,"duration":0.2666666666666657},{"name":"E5","midi":76,"time":86.51041666666667,"velocity":0.6062992125984252,"duration":0.23333333333333428},{"name":"A#4","midi":70,"time":86.75625000000001,"velocity":0.6141732283464567,"duration":0.26874999999999716},{"name":"A4","midi":69,"time":87.00625000000001,"velocity":0.6141732283464567,"duration":0.2604166666666714},{"name":"G4","midi":67,"time":87.25625000000001,"velocity":0.6220472440944882,"duration":0.2708333333333286},{"name":"F4","midi":65,"time":87.50625000000001,"velocity":0.6299212598425197,"duration":0.25},{"name":"E4","midi":64,"time":87.75416666666668,"velocity":0.6299212598425197,"duration":0.27916666666666856},{"name":"F#4","midi":66,"time":88.00625000000001,"velocity":0.6377952755905512,"duration":0.3645833333333428},{"name":"G4","midi":67,"time":88.26041666666669,"velocity":0.6456692913385826,"duration":0.2562499999999943},{"name":"A4","midi":69,"time":88.51041666666669,"velocity":0.6456692913385826,"duration":0.2708333333333286},{"name":"D#4","midi":63,"time":88.76041666666669,"velocity":0.6535433070866141,"duration":0.2770833333333371},{"name":"D4","midi":62,"time":89.01041666666669,"velocity":0.6614173228346457,"duration":0.24791666666666856},{"name":"C4","midi":60,"time":89.26041666666669,"velocity":0.6614173228346457,"duration":0.2770833333333371},{"name":"A#3","midi":58,"time":89.51041666666669,"velocity":0.6692913385826772,"duration":0.24166666666667425},{"name":"A3","midi":57,"time":89.75625000000002,"velocity":0.6771653543307087,"duration":0.3645833333333286},{"name":"A#3","midi":58,"time":90.01041666666669,"velocity":0.6771653543307087,"duration":0.34166666666666856},{"name":"C4","midi":60,"time":90.26041666666669,"velocity":0.6850393700787402,"duration":0.26250000000000284},{"name":"D4","midi":62,"time":90.51041666666669,"velocity":0.6929133858267716,"duration":0.2770833333333371},{"name":"G#3","midi":56,"time":90.76041666666669,"velocity":0.6929133858267716,"duration":0.28333333333334565},{"name":"G3","midi":55,"time":91.01250000000003,"velocity":0.7007874015748031,"duration":0.25208333333333144},{"name":"F3","midi":53,"time":91.2604166666667,"velocity":0.7086614173228346,"duration":0.34166666666666856},{"name":"D#3","midi":51,"time":91.5104166666667,"velocity":0.7086614173228346,"duration":0.2395833333333286},{"name":"D3","midi":50,"time":91.75625000000002,"velocity":0.7165354330708661,"duration":0.2708333333333286},{"name":"C#3","midi":49,"time":92.00625000000002,"velocity":0.7244094488188977,"duration":0.35625000000000284},{"name":"D3","midi":50,"time":92.26041666666669,"velocity":0.7322834645669292,"duration":0.2666666666666657},{"name":"E3","midi":52,"time":92.51041666666669,"velocity":0.7322834645669292,"duration":0.27291666666666003},{"name":"A#2","midi":46,"time":92.76041666666669,"velocity":0.7401574803149606,"duration":0.35208333333333997},{"name":"A2","midi":45,"time":93.01041666666669,"velocity":0.7480314960629921,"duration":0.19583333333333997},{"name":"C#5","midi":73,"time":93.51250000000003,"velocity":0.7637795275590551,"duration":0.4854166666666657},{"name":"D5","midi":74,"time":94.0104166666667,"velocity":0.7795275590551181,"duration":1},{"name":"E5","midi":76,"time":94.2604166666667,"velocity":0.7795275590551181,"duration":0.3708333333333371},{"name":"F5","midi":77,"time":94.5104166666667,"velocity":0.7874015748031497,"duration":0.3270833333333343},{"name":"A#5","midi":82,"time":94.75625000000004,"velocity":0.7952755905511811,"duration":0.26874999999999716},{"name":"C#5","midi":73,"time":95.0041666666667,"velocity":0.8031496062992126,"duration":0.6666666666666572},{"name":"F5","midi":77,"time":95.0041666666667,"velocity":0.8031496062992126,"duration":0.1145833333333286},{"name":"E5","midi":76,"time":95.1041666666667,"velocity":0.8031496062992126,"duration":0.10208333333332575},{"name":"F5","midi":77,"time":95.20208333333336,"velocity":0.8110236220472441,"duration":0.06458333333333144},{"name":"E5","midi":76,"time":95.2979166666667,"velocity":0.8110236220472441,"duration":0.07083333333333997},{"name":"F5","midi":77,"time":95.37083333333337,"velocity":0.8110236220472441,"duration":0.10625000000000284},{"name":"E5","midi":76,"time":95.50000000000003,"velocity":0.8188976377952756,"duration":0.21041666666667425},{"name":"D5","midi":74,"time":95.75625000000004,"velocity":0.8188976377952756,"duration":0.21041666666666003},{"name":"D5","midi":74,"time":96.0104166666667,"velocity":0.8267716535433071,"duration":2.000000000000014},{"name":"C5","midi":72,"time":96.26250000000003,"velocity":0.8267716535433071,"duration":0.25},{"name":"A#4","midi":70,"time":96.5104166666667,"velocity":0.8110236220472441,"duration":0.24583333333333712},{"name":"A4","midi":69,"time":96.7604166666667,"velocity":0.7952755905511811,"duration":0.2541666666666629},{"name":"G4","midi":67,"time":97.0104166666667,"velocity":0.7795275590551181,"duration":0.25833333333333997},{"name":"A4","midi":69,"time":97.2604166666667,"velocity":0.7637795275590551,"duration":0.26666666666667993},{"name":"A#4","midi":70,"time":97.51250000000005,"velocity":0.7480314960629921,"duration":0.5625},{"name":"A4","midi":69,"time":98.01458333333338,"velocity":0.7165354330708661,"duration":1.5583333333333371},{"name":"D5","midi":74,"time":98.01458333333338,"velocity":0.7165354330708661,"duration":1.5020833333333456},{"name":"F#4","midi":66,"time":98.01875000000004,"velocity":0.7165354330708661,"duration":1.5020833333333456},{"name":"A4","midi":69,"time":99.7541666666667,"velocity":0.7559055118110236,"duration":0.09791666666666288},{"name":"A4","midi":69,"time":100.0104166666667,"velocity":0.7559055118110236,"duration":0.2541666666666629},{"name":"A5","midi":81,"time":100.26250000000003,"velocity":0.7559055118110236,"duration":0.23125000000000284},{"name":"F#5","midi":78,"time":100.50625000000004,"velocity":0.7559055118110236,"duration":0.26250000000000284},{"name":"D5","midi":74,"time":100.75625000000004,"velocity":0.7559055118110236,"duration":0.24791666666666856},{"name":"A4","midi":69,"time":100.99583333333337,"velocity":0.7559055118110236,"duration":0.2541666666666629},{"name":"F#4","midi":66,"time":101.24375000000003,"velocity":0.7559055118110236,"duration":0.26250000000000284},{"name":"G4","midi":67,"time":101.49583333333337,"velocity":0.7559055118110236,"duration":0.24166666666667425},{"name":"A4","midi":69,"time":101.74375000000003,"velocity":0.7559055118110236,"duration":0.2395833333333286},{"name":"B4","midi":71,"time":101.98750000000003,"velocity":0.7559055118110236,"duration":0.24166666666666003},{"name":"A4","midi":69,"time":102.23541666666668,"velocity":0.7559055118110236,"duration":0.24375000000000568},{"name":"G4","midi":67,"time":102.48541666666668,"velocity":0.7559055118110236,"duration":0.24166666666666003},{"name":"C5","midi":72,"time":102.72916666666667,"velocity":0.7559055118110236,"duration":0.2395833333333286},{"name":"D5","midi":74,"time":102.975,"velocity":0.7559055118110236,"duration":0.25},{"name":"D#5","midi":75,"time":103.22916666666666,"velocity":0.7559055118110236,"duration":0.25},{"name":"F5","midi":77,"time":103.50833333333333,"velocity":0.7559055118110236,"duration":0.18125000000000568},{"name":"G5","midi":79,"time":103.74166666666666,"velocity":0.7559055118110236,"duration":0.23541666666666572},{"name":"D#5","midi":75,"time":103.97291666666666,"velocity":0.7559055118110236,"duration":0.11249999999999716},{"name":"F5","midi":77,"time":104.09375,"velocity":0.7559055118110236,"duration":0.11249999999999716},{"name":"D#5","midi":75,"time":104.14583333333333,"velocity":0.7559055118110236,"duration":0.375},{"name":"D5","midi":74,"time":104.49166666666666,"velocity":0.7559055118110236,"duration":0.2645833333333343},{"name":"C5","midi":72,"time":104.75208333333333,"velocity":0.7559055118110236,"duration":0.2604166666666572},{"name":"G5","midi":79,"time":105.01041666666666,"velocity":0.7559055118110236,"duration":0.5791666666666657},{"name":"G5","midi":79,"time":105.74999999999999,"velocity":0.7559055118110236,"duration":0.13750000000000284},{"name":"G5","midi":79,"time":106.01041666666666,"velocity":0.7559055118110236,"duration":0.26875000000001137},{"name":"A#4","midi":70,"time":106.2625,"velocity":0.7559055118110236,"duration":0.24583333333333712},{"name":"A4","midi":69,"time":106.50625000000001,"velocity":0.7480314960629921,"duration":0.22083333333333144},{"name":"C5","midi":72,"time":106.74583333333334,"velocity":0.7322834645669292,"duration":0.22291666666666288},{"name":"A#4","midi":70,"time":106.98541666666667,"velocity":0.7165354330708661,"duration":0.12083333333333712},{"name":"C5","midi":72,"time":107.01458333333333,"velocity":0.7165354330708661,"duration":0.10208333333332575},{"name":"A#4","midi":70,"time":107.1125,"velocity":0.7086614173228346,"duration":0.1833333333333229},{"name":"A4","midi":69,"time":107.27291666666666,"velocity":0.7007874015748031,"duration":0.22499999999999432},{"name":"G4","midi":67,"time":107.51041666666666,"velocity":0.6850393700787402,"duration":0.23125000000000284},{"name":"E5","midi":76,"time":107.74583333333332,"velocity":0.6692913385826772,"duration":0.2291666666666714},{"name":"F5","midi":77,"time":107.99791666666665,"velocity":0.6535433070866141,"duration":0.7645833333333343},{"name":"D#5","midi":75,"time":108.74791666666665,"velocity":0.6377952755905512,"duration":0.27291666666667425},{"name":"D5","midi":74,"time":108.99583333333332,"velocity":0.6377952755905512,"duration":0.26250000000000284},{"name":"C5","midi":72,"time":109.25416666666666,"velocity":0.6299212598425197,"duration":0.23749999999999716},{"name":"A#4","midi":70,"time":109.49374999999999,"velocity":0.6299212598425197,"duration":0.2770833333333371},{"name":"A4","midi":69,"time":109.75625,"velocity":0.6299212598425197,"duration":0.2541666666666629},{"name":"G4","midi":67,"time":110.00416666666666,"velocity":0.6299212598425197,"duration":0.23749999999999716},{"name":"F4","midi":65,"time":110.24791666666665,"velocity":0.6220472440944882,"duration":0.25833333333333997},{"name":"G4","midi":67,"time":110.5,"velocity":0.6299212598425197,"duration":0.25208333333333144},{"name":"A#4","midi":70,"time":110.73958333333333,"velocity":0.6377952755905512,"duration":0.25833333333333997},{"name":"C5","midi":72,"time":110.9875,"velocity":0.6456692913385826,"duration":0.2645833333333485},{"name":"D5","midi":74,"time":111.24375,"velocity":0.6614173228346457,"duration":0.2562500000000085},{"name":"D#5","midi":75,"time":111.49166666666667,"velocity":0.6692913385826772,"duration":0.23541666666667993},{"name":"C5","midi":72,"time":111.73750000000003,"velocity":0.6771653543307087,"duration":0.25},{"name":"A#4","midi":70,"time":111.98333333333336,"velocity":0.6850393700787402,"duration":0.2854166666666629},{"name":"A4","midi":69,"time":112.24166666666669,"velocity":0.7007874015748031,"duration":0.23333333333333428},{"name":"G4","midi":67,"time":112.48333333333336,"velocity":0.7086614173228346,"duration":0.24583333333333712},{"name":"F4","midi":65,"time":112.73333333333336,"velocity":0.7165354330708661,"duration":0.2854166666666629},{"name":"F5","midi":77,"time":113.00625000000002,"velocity":0.7322834645669292,"duration":0.71875},{"name":"A4","midi":69,"time":113.74166666666669,"velocity":0.7559055118110236,"duration":0.2708333333333286},{"name":"A#4","midi":70,"time":113.99375000000002,"velocity":0.7637795275590551,"duration":0.2458333333333229},{"name":"D#5","midi":75,"time":114.23750000000001,"velocity":0.7795275590551181,"duration":0.2708333333333286},{"name":"D5","midi":74,"time":114.49375,"velocity":0.7874015748031497,"duration":0.24166666666667425},{"name":"C5","midi":72,"time":114.74375000000002,"velocity":0.7952755905511811,"duration":0.2291666666666714},{"name":"D5","midi":74,"time":114.98750000000003,"velocity":0.8031496062992126,"duration":0.10833333333333428},{"name":"A4","midi":69,"time":114.99166666666669,"velocity":0.8031496062992126,"duration":0.6583333333333314},{"name":"C5","midi":72,"time":115.05625000000002,"velocity":0.8110236220472441,"duration":0.08958333333333712},{"name":"D5","midi":74,"time":115.15625000000003,"velocity":0.8031496062992126,"duration":0.08958333333332291},{"name":"C5","midi":72,"time":115.24166666666669,"velocity":0.8031496062992126,"duration":0.4166666666666714},{"name":"A#4","midi":70,"time":115.7354166666667,"velocity":0.7716535433070866,"duration":0.2645833333333343},{"name":"A#4","midi":70,"time":116.00833333333337,"velocity":0.7480314960629921,"duration":1.3479166666666629},{"name":"D5","midi":74,"time":117.2479166666667,"velocity":0.6456692913385826,"duration":0.2645833333333343},{"name":"C5","midi":72,"time":117.50625000000004,"velocity":0.6141732283464567,"duration":0.2541666666666629},{"name":"D5","midi":74,"time":117.75208333333336,"velocity":0.6141732283464567,"duration":0.36666666666666003},{"name":"D#4","midi":63,"time":118.00416666666669,"velocity":0.6141732283464567,"duration":0.24166666666666003},{"name":"D4","midi":62,"time":118.24791666666668,"velocity":0.6141732283464567,"duration":0.24375000000000568},{"name":"C4","midi":60,"time":118.49583333333335,"velocity":0.6141732283464567,"duration":0.7645833333333343},{"name":"A4","midi":69,"time":119.24375000000002,"velocity":0.6141732283464567,"duration":0.22499999999999432},{"name":"A#4","midi":70,"time":119.47916666666669,"velocity":0.6141732283464567,"duration":0.2604166666666714},{"name":"C5","midi":72,"time":119.72916666666669,"velocity":0.6141732283464567,"duration":0.25208333333333144},{"name":"F#4","midi":66,"time":119.98541666666668,"velocity":0.6141732283464567,"duration":0.28333333333334565},{"name":"D5","midi":74,"time":120.24375000000002,"velocity":0.6141732283464567,"duration":0.25833333333333997},{"name":"A4","midi":69,"time":120.4979166666667,"velocity":0.6141732283464567,"duration":0.26875000000001137},{"name":"F#4","midi":66,"time":120.7416666666667,"velocity":0.6141732283464567,"duration":0.25},{"name":"D4","midi":62,"time":120.9979166666667,"velocity":0.6141732283464567,"duration":0.2562500000000085},{"name":"C#4","midi":61,"time":121.24583333333337,"velocity":0.6141732283464567,"duration":0.25},{"name":"D4","midi":62,"time":121.4979166666667,"velocity":0.6141732283464567,"duration":0.2541666666666771},{"name":"E4","midi":64,"time":121.74375000000003,"velocity":0.6141732283464567,"duration":0.2562499999999943},{"name":"F#4","midi":66,"time":121.99375000000003,"velocity":0.6141732283464567,"duration":0.25833333333332575},{"name":"E4","midi":64,"time":122.24583333333337,"velocity":0.6141732283464567,"duration":0.2458333333333229},{"name":"D4","midi":62,"time":122.49791666666668,"velocity":0.6141732283464567,"duration":0.2541666666666629},{"name":"G4","midi":67,"time":122.74583333333335,"velocity":0.6141732283464567,"duration":0.2458333333333229},{"name":"A4","midi":69,"time":122.99791666666667,"velocity":0.6141732283464567,"duration":0.26250000000000284},{"name":"A#4","midi":70,"time":123.25208333333333,"velocity":0.6141732283464567,"duration":0.2562499999999943},{"name":"C5","midi":72,"time":123.50208333333333,"velocity":0.6141732283464567,"duration":0.24374999999999147},{"name":"D5","midi":74,"time":123.74583333333332,"velocity":0.6141732283464567,"duration":0.2770833333333371},{"name":"A#4","midi":70,"time":124.00833333333333,"velocity":0.6141732283464567,"duration":0.2666666666666657},{"name":"A4","midi":69,"time":124.26041666666666,"velocity":0.6220472440944882,"duration":0.24583333333333712},{"name":"G4","midi":67,"time":124.50625,"velocity":0.6377952755905512,"duration":0.25208333333333144},{"name":"A4","midi":69,"time":124.76041666666666,"velocity":0.6535433070866141,"duration":0.25},{"name":"A#4","midi":70,"time":125.00416666666666,"velocity":0.6614173228346457,"duration":0.2541666666666629},{"name":"C5","midi":72,"time":125.25416666666666,"velocity":0.6771653543307087,"duration":0.24166666666666003},{"name":"D5","midi":74,"time":125.49374999999999,"velocity":0.6929133858267716,"duration":0.2666666666666657},{"name":"D#5","midi":75,"time":125.74791666666665,"velocity":0.7007874015748031,"duration":0.2666666666666657},{"name":"F5","midi":77,"time":125.99791666666665,"velocity":0.7165354330708661,"duration":0.2854166666666771},{"name":"A#4","midi":70,"time":126.50208333333333,"velocity":0.7401574803149606,"duration":0.2770833333333371},{"name":"G#5","midi":80,"time":126.99791666666667,"velocity":0.7716535433070866,"duration":0.09583333333333144},{"name":"G5","midi":79,"time":127.075,"velocity":0.7716535433070866,"duration":0.09166666666665435},{"name":"G#5","midi":80,"time":127.14583333333333,"velocity":0.7795275590551181,"duration":0.5729166666666572},{"name":"A#5","midi":82,"time":127.76041666666666,"velocity":0.7874015748031497,"duration":0.25833333333332575},{"name":"G5","midi":79,"time":128.01666666666665,"velocity":0.7874015748031497,"duration":1.96875},{"name":"F5","midi":77,"time":128.25833333333333,"velocity":0.7874015748031497,"duration":0.24166666666667425},{"name":"D#5","midi":75,"time":128.50208333333333,"velocity":0.7952755905511811,"duration":0.2562499999999943},{"name":"D5","midi":74,"time":128.75625,"velocity":0.7952755905511811,"duration":0.24375000000000568},{"name":"C5","midi":72,"time":128.99791666666667,"velocity":0.8031496062992126,"duration":0.25208333333333144},{"name":"D5","midi":74,"time":129.2375,"velocity":0.8031496062992126,"duration":0.23958333333331439},{"name":"D#5","midi":75,"time":129.49166666666665,"velocity":0.7952755905511811,"duration":0.24791666666666856},{"name":"A#4","midi":70,"time":129.73749999999998,"velocity":0.7952755905511811,"duration":0.2604166666666572},{"name":"F5","midi":77,"time":129.99166666666665,"velocity":0.7952755905511811,"duration":1.3979166666666742},{"name":"A4","midi":69,"time":129.99374999999998,"velocity":0.7952755905511811,"duration":1.0041666666666629},{"name":"G#4","midi":68,"time":130.99999999999997,"velocity":0.7952755905511811,"duration":1.2645833333333485},{"name":"D#5","midi":75,"time":131.25624999999997,"velocity":0.7952755905511811,"duration":0.34583333333335986},{"name":"D5","midi":74,"time":131.51041666666666,"velocity":0.7952755905511811,"duration":0.23541666666667993},{"name":"C5","midi":72,"time":131.75208333333333,"velocity":0.7952755905511811,"duration":0.35208333333332575},{"name":"B4","midi":71,"time":132.03541666666666,"velocity":0.7952755905511811,"duration":0.11041666666667993},{"name":"C5","midi":72,"time":132.12291666666667,"velocity":0.7952755905511811,"duration":0.04583333333334849},{"name":"B4","midi":71,"time":132.17916666666667,"velocity":0.7952755905511811,"duration":0.6666666666666288},{"name":"A4","midi":69,"time":132.22291666666666,"velocity":0.7952755905511811,"duration":0.2666666666666515},{"name":"G4","midi":67,"time":132.54999999999998,"velocity":0.7952755905511811,"duration":1.4541666666666515},{"name":"D#5","midi":75,"time":133.02499999999998,"velocity":0.7952755905511811,"duration":0.11250000000001137},{"name":"D5","midi":74,"time":133.14583333333331,"velocity":0.7952755905511811,"duration":0.10208333333332575},{"name":"D#5","midi":75,"time":133.24374999999998,"velocity":0.7952755905511811,"duration":0.4020833333333087},{"name":"D#5","midi":75,"time":133.7645833333333,"velocity":0.7952755905511811,"duration":0.14791666666667425},{"name":"A4","midi":69,"time":134.0145833333333,"velocity":0.7716535433070866,"duration":0.7229166666666345},{"name":"D#5","midi":75,"time":134.01874999999995,"velocity":0.7716535433070866,"duration":0.26458333333332007},{"name":"D5","midi":74,"time":134.26874999999995,"velocity":0.7559055118110236,"duration":0.2291666666666572},{"name":"C5","midi":72,"time":134.5104166666666,"velocity":0.7401574803149606,"duration":0.23124999999998863},{"name":"A#4","midi":70,"time":134.74374999999992,"velocity":0.7244094488188977,"duration":0.26875000000001137},{"name":"A4","midi":69,"time":134.99583333333325,"velocity":0.7086614173228346,"duration":0.2645833333333485},{"name":"A#4","midi":70,"time":135.24374999999992,"velocity":0.6929133858267716,"duration":0.2541666666666629},{"name":"C5","midi":72,"time":135.48749999999993,"velocity":0.6771653543307087,"duration":0.2770833333333371},{"name":"G4","midi":67,"time":135.73958333333326,"velocity":0.6614173228346457,"duration":0.24583333333333712},{"name":"F#4","midi":66,"time":135.98333333333326,"velocity":0.6456692913385826,"duration":0.25208333333333144},{"name":"G4","midi":67,"time":136.2291666666666,"velocity":0.6220472440944882,"duration":0.26874999999998295},{"name":"A4","midi":69,"time":136.48749999999993,"velocity":0.6220472440944882,"duration":0.4166666666666572},{"name":"A4","midi":69,"time":136.9812499999999,"velocity":0.6220472440944882,"duration":0.10624999999998863},{"name":"G4","midi":67,"time":137.0937499999999,"velocity":0.6220472440944882,"duration":0.05208333333334281},{"name":"A4","midi":69,"time":137.15416666666655,"velocity":0.6220472440944882,"duration":0.5229166666666742},{"name":"A4","midi":69,"time":137.74583333333322,"velocity":0.6220472440944882,"duration":0.16041666666666288},{"name":"A4","midi":69,"time":138.00624999999988,"velocity":0.6220472440944882,"duration":0.25208333333333144},{"name":"G4","midi":67,"time":138.25416666666655,"velocity":0.6299212598425197,"duration":0.24583333333333712},{"name":"F#4","midi":66,"time":138.4937499999999,"velocity":0.6535433070866141,"duration":0.25208333333333144},{"name":"G4","midi":67,"time":138.7374999999999,"velocity":0.6692913385826772,"duration":0.24583333333333712},{"name":"C5","midi":72,"time":138.98541666666657,"velocity":0.6850393700787402,"duration":0.5041666666666629},{"name":"A#4","midi":70,"time":139.23958333333323,"velocity":0.7086614173228346,"duration":0.23750000000001137},{"name":"A4","midi":69,"time":139.4749999999999,"velocity":0.7244094488188977,"duration":0.252083333333303},{"name":"G4","midi":67,"time":139.72291666666655,"velocity":0.7401574803149606,"duration":0.24375000000000568},{"name":"C5","midi":72,"time":139.72499999999988,"velocity":0.7401574803149606,"duration":0.13124999999999432},{"name":"A4","midi":69,"time":139.98124999999987,"velocity":0.7637795275590551,"duration":1.21875},{"name":"C5","midi":72,"time":139.98749999999987,"velocity":0.7637795275590551,"duration":1.1812500000000057},{"name":"F#4","midi":66,"time":141.51249999999987,"velocity":0.8740157480314961,"duration":0.5124999999999886},{"name":"G4","midi":67,"time":142.01666666666654,"velocity":0.9133858267716536,"duration":0.3354166666666458},{"name":"A4","midi":69,"time":142.25416666666652,"velocity":0.9133858267716536,"duration":0.2750000000000057},{"name":"A#4","midi":70,"time":142.50416666666652,"velocity":0.9133858267716536,"duration":0.25208333333333144},{"name":"G4","midi":67,"time":142.50833333333318,"velocity":0.9133858267716536,"duration":0.48333333333332007},{"name":"D#5","midi":75,"time":142.7520833333332,"velocity":0.9212598425196851,"duration":0.1416666666666515},{"name":"F#4","midi":66,"time":142.99374999999984,"velocity":0.9212598425196851,"duration":0.6770833333333712},{"name":"A#4","midi":70,"time":142.99999999999983,"velocity":0.9212598425196851,"duration":0.09166666666669698},{"name":"A4","midi":69,"time":143.07499999999985,"velocity":0.9291338582677166,"duration":0.0979166666666913},{"name":"A#4","midi":70,"time":143.14166666666654,"velocity":0.9291338582677166,"duration":0.09166666666666856},{"name":"A4","midi":69,"time":143.23749999999987,"velocity":0.9291338582677166,"duration":0.5208333333333428},{"name":"G4","midi":67,"time":143.76041666666654,"velocity":0.937007874015748,"duration":0.21041666666667425},{"name":"G4","midi":67,"time":143.9770833333332,"velocity":0.937007874015748,"duration":2},{"name":"F4","midi":65,"time":144.2437499999999,"velocity":0.937007874015748,"duration":0.24791666666666856},{"name":"D#4","midi":63,"time":144.49166666666656,"velocity":0.9212598425196851,"duration":0.2604166666666572},{"name":"D4","midi":62,"time":144.74583333333322,"velocity":0.8976377952755905,"duration":0.25833333333332575},{"name":"C4","midi":60,"time":144.99791666666655,"velocity":0.8740157480314961,"duration":1},{"name":"D4","midi":62,"time":145.24791666666655,"velocity":0.8582677165354331,"duration":0.26458333333332007},{"name":"D#4","midi":63,"time":145.52291666666653,"velocity":0.8346456692913385,"duration":0.5000000000000284},{"name":"G4","midi":67,"time":145.9999999999999,"velocity":0.7952755905511811,"duration":1.625},{"name":"D4","midi":62,"time":145.9999999999999,"velocity":0.7952755905511811,"duration":1.625},{"name":"A#3","midi":58,"time":145.9999999999999,"velocity":0.7952755905511811,"duration":1.625},{"name":"A4","midi":69,"time":147.75416666666655,"velocity":0.7559055118110236,"duration":0.09791666666666288},{"name":"A4","midi":69,"time":148.01041666666654,"velocity":0.7559055118110236,"duration":0.2541666666666629},{"name":"A5","midi":81,"time":148.26249999999987,"velocity":0.7559055118110236,"duration":0.23124999999998863},{"name":"F#5","midi":78,"time":148.50624999999985,"velocity":0.7559055118110236,"duration":0.26249999999998863},{"name":"D5","midi":74,"time":148.75624999999985,"velocity":0.7559055118110236,"duration":0.24791666666664014},{"name":"A4","midi":69,"time":148.99583333333317,"velocity":0.7559055118110236,"duration":0.2541666666666629},{"name":"F#4","midi":66,"time":149.24374999999984,"velocity":0.7559055118110236,"duration":0.26249999999998863},{"name":"G4","midi":67,"time":149.49583333333317,"velocity":0.7559055118110236,"duration":0.24166666666664582},{"name":"A4","midi":69,"time":149.7437499999998,"velocity":0.7559055118110236,"duration":0.2395833333333428},{"name":"B4","midi":71,"time":149.9874999999998,"velocity":0.7559055118110236,"duration":0.24166666666667425},{"name":"A4","midi":69,"time":150.23541666666648,"velocity":0.7559055118110236,"duration":0.24375000000000568},{"name":"G4","midi":67,"time":150.48541666666648,"velocity":0.7559055118110236,"duration":0.24166666666667425},{"name":"C5","midi":72,"time":150.7291666666665,"velocity":0.7559055118110236,"duration":0.2395833333333428},{"name":"D5","midi":74,"time":150.97499999999982,"velocity":0.7559055118110236,"duration":0.25},{"name":"D#5","midi":75,"time":151.2291666666665,"velocity":0.7559055118110236,"duration":0.25},{"name":"F5","midi":77,"time":151.50833333333316,"velocity":0.7559055118110236,"duration":0.18125000000000568},{"name":"G5","midi":79,"time":151.7416666666665,"velocity":0.7559055118110236,"duration":0.2354166666666515},{"name":"D#5","midi":75,"time":151.9729166666665,"velocity":0.7559055118110236,"duration":0.11250000000001137},{"name":"F5","midi":77,"time":152.0604166666665,"velocity":0.7559055118110236,"duration":0.11250000000001137},{"name":"D#5","midi":75,"time":152.11249999999984,"velocity":0.7559055118110236,"duration":0.375},{"name":"D5","midi":74,"time":152.4916666666665,"velocity":0.7559055118110236,"duration":0.26458333333332007},{"name":"C5","midi":72,"time":152.75208333333316,"velocity":0.7559055118110236,"duration":0.2604166666666572},{"name":"G5","midi":79,"time":153.0104166666665,"velocity":0.7559055118110236,"duration":0.5791666666666515},{"name":"G5","midi":79,"time":153.7499999999998,"velocity":0.7559055118110236,"duration":0.13749999999998863},{"name":"G5","midi":79,"time":154.01041666666646,"velocity":0.7559055118110236,"duration":0.26875000000001137},{"name":"A#4","midi":70,"time":154.2624999999998,"velocity":0.7559055118110236,"duration":0.24583333333333712},{"name":"A4","midi":69,"time":154.5062499999998,"velocity":0.7480314960629921,"duration":0.22083333333333144},{"name":"C5","midi":72,"time":154.74583333333314,"velocity":0.7322834645669292,"duration":0.22291666666666288},{"name":"A#4","midi":70,"time":154.98541666666648,"velocity":0.7165354330708661,"duration":0.12083333333333712},{"name":"C5","midi":72,"time":155.01458333333315,"velocity":0.7165354330708661,"duration":0.10208333333332575},{"name":"A#4","midi":70,"time":155.1124999999998,"velocity":0.7086614173228346,"duration":0.18333333333333712},{"name":"A4","midi":69,"time":155.27291666666648,"velocity":0.7007874015748031,"duration":0.22499999999999432},{"name":"G4","midi":67,"time":155.51041666666646,"velocity":0.6850393700787402,"duration":0.23124999999998863},{"name":"E5","midi":76,"time":155.7458333333331,"velocity":0.6692913385826772,"duration":0.2291666666666572},{"name":"F5","midi":77,"time":155.99791666666644,"velocity":0.6535433070866141,"duration":0.7645833333333201},{"name":"D#5","midi":75,"time":156.74791666666644,"velocity":0.6377952755905512,"duration":0.2729166666666458},{"name":"D5","midi":74,"time":156.99583333333308,"velocity":0.6377952755905512,"duration":0.26249999999998863},{"name":"C5","midi":72,"time":157.2541666666664,"velocity":0.6299212598425197,"duration":0.23749999999998295},{"name":"A#4","midi":70,"time":157.49374999999972,"velocity":0.6299212598425197,"duration":0.2770833333333087},{"name":"A4","midi":69,"time":157.7562499999997,"velocity":0.6299212598425197,"duration":0.25416666666663446},{"name":"G4","midi":67,"time":158.00416666666635,"velocity":0.6299212598425197,"duration":0.23749999999998295},{"name":"F4","midi":65,"time":158.24791666666633,"velocity":0.6220472440944882,"duration":0.25833333333332575},{"name":"G4","midi":67,"time":158.49999999999966,"velocity":0.6299212598425197,"duration":0.252083333333303},{"name":"A#4","midi":70,"time":158.73958333333297,"velocity":0.6377952755905512,"duration":0.25833333333332575},{"name":"C5","midi":72,"time":158.98749999999964,"velocity":0.6456692913385826,"duration":0.26458333333332007},{"name":"D5","midi":74,"time":159.24374999999964,"velocity":0.6614173228346457,"duration":0.2562499999999943},{"name":"D#5","midi":75,"time":159.4916666666663,"velocity":0.6692913385826772,"duration":0.2354166666666515},{"name":"C5","midi":72,"time":159.7374999999996,"velocity":0.6771653543307087,"duration":0.25},{"name":"A#4","midi":70,"time":159.98333333333295,"velocity":0.6850393700787402,"duration":0.2854166666666629},{"name":"A4","midi":69,"time":160.24166666666628,"velocity":0.7007874015748031,"duration":0.23333333333332007},{"name":"G4","midi":67,"time":160.48333333333292,"velocity":0.7086614173228346,"duration":0.24583333333333712},{"name":"F4","midi":65,"time":160.73333333333292,"velocity":0.7165354330708661,"duration":0.2854166666666629},{"name":"F5","midi":77,"time":161.0062499999996,"velocity":0.7322834645669292,"duration":0.7187499999999716},{"name":"A4","midi":69,"time":161.74166666666625,"velocity":0.7559055118110236,"duration":0.2708333333333428},{"name":"A#4","midi":70,"time":161.99374999999958,"velocity":0.7637795275590551,"duration":0.24583333333333712},{"name":"D#5","midi":75,"time":162.23749999999959,"velocity":0.7795275590551181,"duration":0.2708333333333144},{"name":"D5","midi":74,"time":162.49374999999958,"velocity":0.7874015748031497,"duration":0.24166666666664582},{"name":"C5","midi":72,"time":162.74374999999955,"velocity":0.7952755905511811,"duration":0.22916666666668561},{"name":"A4","midi":69,"time":162.99166666666625,"velocity":0.8031496062992126,"duration":0.6583333333333314},{"name":"D5","midi":74,"time":163.05416666666625,"velocity":0.8031496062992126,"duration":0.10833333333332007},{"name":"C5","midi":72,"time":163.12291666666624,"velocity":0.8110236220472441,"duration":0.08958333333333712},{"name":"D5","midi":74,"time":163.22291666666624,"velocity":0.8031496062992126,"duration":0.08958333333333712},{"name":"C5","midi":72,"time":163.3083333333329,"velocity":0.8031496062992126,"duration":0.4166666666666572},{"name":"A#4","midi":70,"time":163.73541666666623,"velocity":0.7716535433070866,"duration":0.26458333333332007},{"name":"A#4","midi":70,"time":164.00833333333287,"velocity":0.7480314960629921,"duration":1.3479166666666345},{"name":"D5","midi":74,"time":165.24791666666619,"velocity":0.6456692913385826,"duration":0.26458333333332007},{"name":"C5","midi":72,"time":165.5062499999995,"velocity":0.6141732283464567,"duration":0.2541666666666629},{"name":"D5","midi":74,"time":165.75208333333285,"velocity":0.6141732283464567,"duration":0.36666666666667425},{"name":"D#4","midi":63,"time":166.00416666666618,"velocity":0.6141732283464567,"duration":0.24166666666667425},{"name":"D4","midi":62,"time":166.24791666666619,"velocity":0.6141732283464567,"duration":0.24375000000000568},{"name":"C4","midi":60,"time":166.49583333333285,"velocity":0.6141732283464567,"duration":0.7645833333333485},{"name":"A4","midi":69,"time":167.24374999999952,"velocity":0.6141732283464567,"duration":0.22500000000002274},{"name":"A#4","midi":70,"time":167.4791666666662,"velocity":0.6141732283464567,"duration":0.2604166666666572},{"name":"C5","midi":72,"time":167.7291666666662,"velocity":0.6141732283464567,"duration":0.25208333333333144},{"name":"F#4","midi":66,"time":167.9854166666662,"velocity":0.6141732283464567,"duration":0.28333333333333144},{"name":"D5","midi":74,"time":168.24374999999952,"velocity":0.6141732283464567,"duration":0.25833333333332575},{"name":"A4","midi":69,"time":168.49791666666619,"velocity":0.6141732283464567,"duration":0.26875000000001137},{"name":"F#4","midi":66,"time":168.7416666666662,"velocity":0.6141732283464567,"duration":0.25},{"name":"D4","midi":62,"time":168.99791666666619,"velocity":0.6141732283464567,"duration":0.2562499999999943},{"name":"C#4","midi":61,"time":169.24583333333285,"velocity":0.6141732283464567,"duration":0.25},{"name":"D4","midi":62,"time":169.49791666666619,"velocity":0.6141732283464567,"duration":0.2541666666666629},{"name":"E4","midi":64,"time":169.74374999999952,"velocity":0.6141732283464567,"duration":0.2562499999999943},{"name":"F#4","midi":66,"time":169.99374999999952,"velocity":0.6141732283464567,"duration":0.25833333333332575},{"name":"E4","midi":64,"time":170.24583333333285,"velocity":0.6141732283464567,"duration":0.24583333333333712},{"name":"D4","midi":62,"time":170.49791666666619,"velocity":0.6141732283464567,"duration":0.2541666666666629},{"name":"G4","midi":67,"time":170.74583333333285,"velocity":0.6141732283464567,"duration":0.24583333333333712},{"name":"A4","midi":69,"time":170.99791666666619,"velocity":0.6141732283464567,"duration":0.26250000000001705},{"name":"A#4","midi":70,"time":171.25208333333288,"velocity":0.6141732283464567,"duration":0.2562499999999943},{"name":"C5","midi":72,"time":171.50208333333288,"velocity":0.6141732283464567,"duration":0.24375000000000568},{"name":"D5","midi":74,"time":171.74583333333288,"velocity":0.6141732283464567,"duration":0.2770833333333087},{"name":"A#4","midi":70,"time":172.00833333333287,"velocity":0.6141732283464567,"duration":0.2666666666666515},{"name":"A4","midi":69,"time":172.2604166666662,"velocity":0.6220472440944882,"duration":0.2458333333333087},{"name":"G4","midi":67,"time":172.5062499999995,"velocity":0.6377952755905512,"duration":0.25208333333333144},{"name":"A4","midi":69,"time":172.76041666666617,"velocity":0.6535433070866141,"duration":0.25},{"name":"A#4","midi":70,"time":173.00416666666618,"velocity":0.6614173228346457,"duration":0.25416666666663446},{"name":"C5","midi":72,"time":173.25416666666615,"velocity":0.6771653543307087,"duration":0.24166666666667425},{"name":"D5","midi":74,"time":173.4937499999995,"velocity":0.6929133858267716,"duration":0.2666666666666515},{"name":"D#5","midi":75,"time":173.74791666666616,"velocity":0.7007874015748031,"duration":0.26666666666667993},{"name":"F5","midi":77,"time":173.99791666666616,"velocity":0.7165354330708661,"duration":0.2854166666666913},{"name":"A#4","midi":70,"time":174.50208333333285,"velocity":0.7401574803149606,"duration":0.2770833333333371},{"name":"G#5","midi":80,"time":174.99791666666619,"velocity":0.7716535433070866,"duration":0.09583333333333144},{"name":"G5","midi":79,"time":175.05833333333285,"velocity":0.7716535433070866,"duration":0.18124999999997726},{"name":"G#5","midi":80,"time":175.1624999999995,"velocity":0.7795275590551181,"duration":0.5583333333333087},{"name":"A#5","midi":82,"time":175.76041666666615,"velocity":0.7874015748031497,"duration":0.25833333333332575},{"name":"G5","midi":79,"time":176.01666666666614,"velocity":0.7874015748031497,"duration":1.9687499999999147},{"name":"F5","midi":77,"time":176.2583333333328,"velocity":0.7874015748031497,"duration":0.24166666666664582},{"name":"D#5","midi":75,"time":176.5020833333328,"velocity":0.7952755905511811,"duration":0.2562499999999943},{"name":"D5","midi":74,"time":176.75624999999945,"velocity":0.7952755905511811,"duration":0.24374999999997726},{"name":"C5","midi":72,"time":176.9979166666661,"velocity":0.8031496062992126,"duration":0.252083333333303},{"name":"D5","midi":74,"time":177.23749999999941,"velocity":0.8031496062992126,"duration":0.23958333333331439},{"name":"D#5","midi":75,"time":177.49166666666605,"velocity":0.7952755905511811,"duration":0.24791666666666856},{"name":"A#4","midi":70,"time":177.7374999999994,"velocity":0.7952755905511811,"duration":0.2604166666666572},{"name":"F5","midi":77,"time":177.99166666666605,"velocity":0.7952755905511811,"duration":1.3979166666666174},{"name":"A4","midi":69,"time":177.99374999999938,"velocity":0.7952755905511811,"duration":1.0041666666666629},{"name":"G#4","midi":68,"time":178.99999999999937,"velocity":0.7952755905511811,"duration":1.2645833333332916},{"name":"D#5","midi":75,"time":179.25624999999934,"velocity":0.7952755905511811,"duration":0.34583333333333144},{"name":"D5","midi":74,"time":179.510416666666,"velocity":0.7952755905511811,"duration":0.23541666666667993},{"name":"C5","midi":72,"time":179.75208333333268,"velocity":0.7952755905511811,"duration":0.3520833333333542},{"name":"B4","midi":71,"time":180.035416666666,"velocity":0.7952755905511811,"duration":0.11041666666667993},{"name":"C5","midi":72,"time":180.12291666666601,"velocity":0.7952755905511811,"duration":0.04583333333334849},{"name":"B4","midi":71,"time":180.17916666666602,"velocity":0.7952755905511811,"duration":0.6666666666666288},{"name":"A4","midi":69,"time":180.222916666666,"velocity":0.7952755905511811,"duration":0.2666666666666515},{"name":"G4","midi":67,"time":180.54999999999933,"velocity":0.7952755905511811,"duration":1.4541666666666515},{"name":"D#5","midi":75,"time":181.02499999999932,"velocity":0.7952755905511811,"duration":0.11249999999998295},{"name":"D5","midi":74,"time":181.14583333333263,"velocity":0.7952755905511811,"duration":0.10208333333332575},{"name":"D#5","midi":75,"time":181.2437499999993,"velocity":0.7952755905511811,"duration":0.4020833333333371},{"name":"D#5","midi":75,"time":181.76458333333264,"velocity":0.7952755905511811,"duration":0.14791666666667425},{"name":"A4","midi":69,"time":182.01458333333264,"velocity":0.7716535433070866,"duration":0.7229166666666345},{"name":"D#5","midi":75,"time":182.0187499999993,"velocity":0.7716535433070866,"duration":0.26458333333332007},{"name":"D5","midi":74,"time":182.2687499999993,"velocity":0.7559055118110236,"duration":0.2291666666666572},{"name":"C5","midi":72,"time":182.51041666666595,"velocity":0.7401574803149606,"duration":0.23124999999998863},{"name":"A#4","midi":70,"time":182.74374999999927,"velocity":0.7244094488188977,"duration":0.26875000000001137},{"name":"A4","midi":69,"time":182.9958333333326,"velocity":0.7086614173228346,"duration":0.2645833333333485},{"name":"A#4","midi":70,"time":183.24374999999927,"velocity":0.6929133858267716,"duration":0.2541666666666629},{"name":"C5","midi":72,"time":183.48749999999927,"velocity":0.6771653543307087,"duration":0.2770833333333371},{"name":"G4","midi":67,"time":183.7395833333326,"velocity":0.6614173228346457,"duration":0.24583333333333712},{"name":"F#4","midi":66,"time":183.9833333333326,"velocity":0.6456692913385826,"duration":0.25208333333333144},{"name":"G4","midi":67,"time":184.22916666666595,"velocity":0.6220472440944882,"duration":0.26874999999998295},{"name":"A4","midi":69,"time":184.48749999999927,"velocity":0.6220472440944882,"duration":0.4166666666666572},{"name":"A4","midi":69,"time":184.98124999999925,"velocity":0.6220472440944882,"duration":0.10624999999998863},{"name":"G4","midi":67,"time":185.09374999999923,"velocity":0.6220472440944882,"duration":0.05208333333334281},{"name":"A4","midi":69,"time":185.1541666666659,"velocity":0.6220472440944882,"duration":0.5229166666666742},{"name":"A4","midi":69,"time":185.74583333333257,"velocity":0.6220472440944882,"duration":0.16041666666666288},{"name":"A4","midi":69,"time":186.00624999999923,"velocity":0.6220472440944882,"duration":0.252083333333303},{"name":"G4","midi":67,"time":186.25416666666587,"velocity":0.6299212598425197,"duration":0.24583333333333712},{"name":"F#4","midi":66,"time":186.4937499999992,"velocity":0.6535433070866141,"duration":0.25208333333333144},{"name":"G4","midi":67,"time":186.73749999999922,"velocity":0.6692913385826772,"duration":0.24583333333333712},{"name":"C5","midi":72,"time":186.98541666666588,"velocity":0.6850393700787402,"duration":0.5041666666666629},{"name":"A#4","midi":70,"time":187.23958333333255,"velocity":0.7086614173228346,"duration":0.23750000000001137},{"name":"A4","midi":69,"time":187.47499999999923,"velocity":0.7244094488188977,"duration":0.252083333333303},{"name":"G4","midi":67,"time":187.72291666666587,"velocity":0.7401574803149606,"duration":0.24374999999997726},{"name":"C5","midi":72,"time":187.7249999999992,"velocity":0.7401574803149606,"duration":0.13124999999999432},{"name":"A4","midi":69,"time":187.98124999999916,"velocity":0.7637795275590551,"duration":1.21875},{"name":"C5","midi":72,"time":187.98749999999916,"velocity":0.7637795275590551,"duration":1.1812500000000057},{"name":"F#4","midi":66,"time":189.51249999999916,"velocity":0.8740157480314961,"duration":0.5124999999999886},{"name":"G4","midi":67,"time":190.01666666666583,"velocity":0.9133858267716536,"duration":0.33541666666667425},{"name":"A4","midi":69,"time":190.25416666666584,"velocity":0.9133858267716536,"duration":0.2750000000000057},{"name":"A#4","midi":70,"time":190.50416666666584,"velocity":0.9133858267716536,"duration":0.25208333333333144},{"name":"G4","midi":67,"time":190.5083333333325,"velocity":0.9133858267716536,"duration":0.48333333333332007},{"name":"D#5","midi":75,"time":190.7520833333325,"velocity":0.9212598425196851,"duration":0.1416666666666515},{"name":"F#4","midi":66,"time":190.99374999999915,"velocity":0.9212598425196851,"duration":0.6770833333333144},{"name":"A#4","midi":70,"time":191.0666666666658,"velocity":0.9212598425196851,"duration":0.09166666666666856},{"name":"A4","midi":69,"time":191.12499999999915,"velocity":0.9291338582677166,"duration":0.09791666666666288},{"name":"A#4","midi":70,"time":191.1916666666658,"velocity":0.9291338582677166,"duration":0.09166666666666856},{"name":"A4","midi":69,"time":191.28749999999914,"velocity":0.9291338582677166,"duration":0.5},{"name":"G4","midi":67,"time":191.7604166666658,"velocity":0.937007874015748,"duration":0.21041666666667425},{"name":"G4","midi":67,"time":191.97708333333247,"velocity":0.937007874015748,"duration":2},{"name":"F4","midi":65,"time":192.24374999999915,"velocity":0.937007874015748,"duration":0.24791666666666856},{"name":"D#4","midi":63,"time":192.49166666666582,"velocity":0.9212598425196851,"duration":0.2604166666666572},{"name":"D4","midi":62,"time":192.74583333333248,"velocity":0.8976377952755905,"duration":0.25833333333332575},{"name":"C4","midi":60,"time":192.99791666666582,"velocity":0.8740157480314961,"duration":1},{"name":"D4","midi":62,"time":193.24791666666582,"velocity":0.8582677165354331,"duration":0.26458333333332007},{"name":"D#4","midi":63,"time":193.5229166666658,"velocity":0.8346456692913385,"duration":0.5000000000000284},{"name":"G4","midi":67,"time":193.99999999999915,"velocity":0.7952755905511811,"duration":1.6250000000000284},{"name":"D4","midi":62,"time":193.99999999999915,"velocity":0.7952755905511811,"duration":1.6250000000000284},{"name":"A#3","midi":58,"time":193.99999999999915,"velocity":0.7952755905511811,"duration":1.6250000000000284}],"controlChanges":{"7":[{"number":7,"time":0,"value":0.905511811023622}],"10":[{"number":10,"time":0,"value":0.6299212598425197}],"64":[{"number":64,"time":4.266666666666667,"value":1},{"number":64,"time":4.725,"value":0},{"number":64,"time":6.070833333333332,"value":1},{"number":64,"time":6.227083333333332,"value":0},{"number":64,"time":8.060416666666665,"value":1},{"number":64,"time":8.704166666666666,"value":0},{"number":64,"time":9.975,"value":1},{"number":64,"time":10.297916666666667,"value":0},{"number":64,"time":12.089583333333335,"value":1},{"number":64,"time":12.420833333333334,"value":0},{"number":64,"time":14.135416666666664,"value":1},{"number":64,"time":14.716666666666665,"value":0},{"number":64,"time":16.289583333333333,"value":1},{"number":64,"time":16.772916666666664,"value":0},{"number":64,"time":22.072916666666664,"value":1},{"number":64,"time":22.66458333333333,"value":0},{"number":64,"time":24.056250000000002,"value":1},{"number":64,"time":24.627083333333335,"value":0},{"number":64,"time":28.075000000000014,"value":1},{"number":64,"time":28.464583333333344,"value":0},{"number":64,"time":30.368750000000013,"value":1},{"number":64,"time":30.581250000000015,"value":0},{"number":64,"time":30.918750000000014,"value":1},{"number":64,"time":31.168750000000014,"value":0},{"number":64,"time":31.431250000000013,"value":1},{"number":64,"time":31.652083333333344,"value":0},{"number":64,"time":31.902083333333344,"value":1},{"number":64,"time":32.30416666666668,"value":0},{"number":64,"time":32.49375000000001,"value":1},{"number":64,"time":32.99375000000002,"value":0},{"number":64,"time":33.20416666666668,"value":1},{"number":64,"time":33.95625000000002,"value":0},{"number":64,"time":36.00625000000003,"value":1},{"number":64,"time":36.42083333333336,"value":0},{"number":64,"time":40.11875000000004,"value":1},{"number":64,"time":40.25000000000004,"value":0},{"number":64,"time":41.070833333333375,"value":1},{"number":64,"time":41.3041666666667,"value":0},{"number":64,"time":42.07291666666671,"value":1},{"number":64,"time":42.10416666666671,"value":0},{"number":64,"time":42.972916666666706,"value":1},{"number":64,"time":43.156250000000036,"value":0},{"number":64,"time":44.00625000000004,"value":1},{"number":64,"time":44.45208333333337,"value":0},{"number":64,"time":46.02083333333337,"value":1},{"number":64,"time":46.216666666666704,"value":0},{"number":64,"time":47.09375000000004,"value":1},{"number":64,"time":47.164583333333375,"value":0},{"number":64,"time":47.95000000000006,"value":1},{"number":64,"time":48.48958333333339,"value":0},{"number":64,"time":50.04166666666671,"value":1},{"number":64,"time":50.252083333333374,"value":0},{"number":64,"time":50.379166666666706,"value":1},{"number":64,"time":50.76875000000004,"value":0},{"number":64,"time":50.89375000000004,"value":1},{"number":64,"time":51.76458333333338,"value":0},{"number":64,"time":54.08541666666671,"value":1},{"number":64,"time":54.25416666666671,"value":0},{"number":64,"time":58.05208333333339,"value":1},{"number":64,"time":58.47291666666673,"value":0},{"number":64,"time":62.20625000000006,"value":1},{"number":64,"time":62.32708333333339,"value":0},{"number":64,"time":64.14791666666673,"value":1},{"number":64,"time":64.42916666666673,"value":0},{"number":64,"time":66.53541666666672,"value":1},{"number":64,"time":66.90208333333338,"value":0},{"number":64,"time":70.1229166666667,"value":1},{"number":64,"time":70.93125000000003,"value":0},{"number":64,"time":76.09166666666668,"value":1},{"number":64,"time":76.69166666666668,"value":0},{"number":64,"time":78.59791666666666,"value":1},{"number":64,"time":78.71249999999999,"value":0},{"number":64,"time":79.0125,"value":1},{"number":64,"time":79.25416666666668,"value":0},{"number":64,"time":79.51666666666668,"value":1},{"number":64,"time":79.77916666666667,"value":0},{"number":64,"time":80.09583333333333,"value":1},{"number":64,"time":80.55625,"value":0},{"number":64,"time":84.0625,"value":1},{"number":64,"time":84.66875,"value":0},{"number":64,"time":86.05416666666667,"value":1},{"number":64,"time":86.29791666666667,"value":0},{"number":64,"time":86.56875000000001,"value":1},{"number":64,"time":86.82291666666667,"value":0},{"number":64,"time":87.09166666666667,"value":1},{"number":64,"time":87.43750000000001,"value":0},{"number":64,"time":88.11041666666668,"value":1},{"number":64,"time":88.40208333333335,"value":0},{"number":64,"time":89.02291666666669,"value":1},{"number":64,"time":89.27291666666669,"value":0},{"number":64,"time":90.08750000000002,"value":1},{"number":64,"time":90.31250000000001,"value":0},{"number":64,"time":90.95625000000003,"value":1},{"number":64,"time":91.2166666666667,"value":0},{"number":64,"time":91.49583333333337,"value":1},{"number":64,"time":91.76458333333336,"value":0},{"number":64,"time":92.01041666666669,"value":1},{"number":64,"time":92.79166666666669,"value":0},{"number":64,"time":96.30625000000003,"value":1},{"number":64,"time":96.83750000000003,"value":0},{"number":64,"time":98.09375000000004,"value":1},{"number":64,"time":98.76250000000005,"value":0},{"number":64,"time":99.03750000000005,"value":1},{"number":64,"time":99.63750000000005,"value":0},{"number":64,"time":100.13750000000003,"value":1},{"number":64,"time":100.88333333333337,"value":0},{"number":64,"time":104.0375,"value":1},{"number":64,"time":104.25625,"value":0},{"number":64,"time":106.0375,"value":1},{"number":64,"time":106.20416666666667,"value":0},{"number":64,"time":108.08958333333332,"value":1},{"number":64,"time":108.36249999999998,"value":0},{"number":64,"time":108.99166666666666,"value":1},{"number":64,"time":109.12083333333332,"value":0},{"number":64,"time":109.44583333333333,"value":1},{"number":64,"time":109.63125,"value":0},{"number":64,"time":110.00625,"value":1},{"number":64,"time":110.27291666666666,"value":0},{"number":64,"time":111.025,"value":1},{"number":64,"time":111.29791666666668,"value":0},{"number":64,"time":111.98958333333336,"value":1},{"number":64,"time":112.36458333333336,"value":0},{"number":64,"time":113.02291666666669,"value":1},{"number":64,"time":113.40833333333336,"value":0},{"number":64,"time":114.92500000000003,"value":1},{"number":64,"time":115.28125000000001,"value":0},{"number":64,"time":115.92708333333336,"value":1},{"number":64,"time":116.3041666666667,"value":0},{"number":64,"time":118.00000000000003,"value":1},{"number":64,"time":118.48125000000002,"value":0},{"number":64,"time":120.03125000000001,"value":1},{"number":64,"time":120.51458333333336,"value":0},{"number":64,"time":122.05208333333336,"value":1},{"number":64,"time":122.20625000000003,"value":0},{"number":64,"time":123.12291666666667,"value":1},{"number":64,"time":123.25208333333333,"value":0},{"number":64,"time":124.03958333333333,"value":1},{"number":64,"time":124.33541666666666,"value":0},{"number":64,"time":126.02291666666666,"value":1},{"number":64,"time":126.48333333333333,"value":0},{"number":64,"time":128.07916666666665,"value":1},{"number":64,"time":128.31458333333333,"value":0},{"number":64,"time":128.94791666666666,"value":1},{"number":64,"time":129.26041666666666,"value":0},{"number":64,"time":130.06249999999997,"value":1},{"number":64,"time":130.11041666666665,"value":0},{"number":64,"time":131.05624999999998,"value":1},{"number":64,"time":131.3708333333333,"value":0},{"number":64,"time":133.18124999999998,"value":1},{"number":64,"time":133.25624999999997,"value":0},{"number":64,"time":133.92291666666662,"value":1},{"number":64,"time":134.16874999999996,"value":0},{"number":64,"time":136.05208333333326,"value":1},{"number":64,"time":136.33958333333325,"value":0},{"number":64,"time":142.0645833333332,"value":1},{"number":64,"time":142.27916666666653,"value":0},{"number":64,"time":143.02083333333317,"value":1},{"number":64,"time":143.2083333333332,"value":0},{"number":64,"time":144.12083333333322,"value":1},{"number":64,"time":144.66041666666655,"value":0},{"number":64,"time":146.00416666666655,"value":1},{"number":64,"time":146.21458333333322,"value":0},{"number":64,"time":152.0604166666665,"value":1},{"number":64,"time":152.25833333333318,"value":0},{"number":64,"time":158.139583333333,"value":1},{"number":64,"time":158.270833333333,"value":0},{"number":64,"time":159.0854166666663,"value":1},{"number":64,"time":159.23333333333298,"value":0},{"number":64,"time":160.0312499999996,"value":1},{"number":64,"time":160.27291666666628,"value":0},{"number":64,"time":161.03124999999957,"value":1},{"number":64,"time":161.25416666666624,"value":0},{"number":64,"time":162.02291666666625,"value":1},{"number":64,"time":162.14791666666625,"value":0},{"number":64,"time":162.8895833333329,"value":1},{"number":64,"time":163.23958333333292,"value":0},{"number":64,"time":163.93749999999955,"value":1},{"number":64,"time":164.1729166666662,"value":0},{"number":64,"time":165.96666666666619,"value":1},{"number":64,"time":166.30624999999952,"value":0},{"number":64,"time":167.08958333333285,"value":1},{"number":64,"time":167.10833333333287,"value":0},{"number":64,"time":168.01458333333287,"value":1},{"number":64,"time":168.20208333333287,"value":0},{"number":64,"time":170.02499999999952,"value":1},{"number":64,"time":170.12916666666618,"value":0},{"number":64,"time":171.0541666666662,"value":1},{"number":64,"time":171.13749999999953,"value":0},{"number":64,"time":171.97083333333288,"value":1},{"number":64,"time":172.23124999999953,"value":0},{"number":64,"time":172.90416666666619,"value":1},{"number":64,"time":173.08333333333283,"value":0},{"number":64,"time":176.07499999999948,"value":1},{"number":64,"time":176.30416666666613,"value":0},{"number":64,"time":176.95833333333277,"value":1},{"number":64,"time":177.20208333333275,"value":0},{"number":64,"time":179.04166666666603,"value":1},{"number":64,"time":179.14791666666602,"value":0},{"number":64,"time":180.0520833333327,"value":1},{"number":64,"time":180.1083333333327,"value":0},{"number":64,"time":181.0999999999993,"value":1},{"number":64,"time":181.27083333333263,"value":0},{"number":64,"time":186.03958333333256,"value":1},{"number":64,"time":186.17916666666588,"value":0},{"number":64,"time":187.9562499999992,"value":1},{"number":64,"time":187.98541666666583,"value":0},{"number":64,"time":189.91874999999916,"value":1},{"number":64,"time":190.11041666666583,"value":0},{"number":64,"time":194.94791666666583,"value":1},{"number":64,"time":195.76666666666586,"value":0}],"91":[{"number":91,"time":0,"value":1}],"121":[{"number":121,"time":0,"value":1},{"number":121,"time":195.99999999999918,"value":1}]},"id":1,"name":"Piano 1","instrumentNumber":6,"instrument":"harpsichord","instrumentFamily":"piano","channelNumber":0,"isPercussion":false},{"startTime":4.272916666666666,"duration":195.64791666666653,"length":526,"notes":[{"name":"G2","midi":43,"time":4.272916666666666,"velocity":0.7952755905511811,"duration":0.24791666666666679},{"name":"A#2","midi":46,"time":4.516666666666667,"velocity":0.7952755905511811,"duration":0.2666666666666666},{"name":"D3","midi":50,"time":4.766666666666667,"velocity":0.7952755905511811,"duration":0.2541666666666673},{"name":"G3","midi":55,"time":5.0125,"velocity":0.7952755905511811,"duration":0.24791666666666679},{"name":"A#3","midi":58,"time":5.254166666666667,"velocity":0.7952755905511811,"duration":0.38124999999999964},{"name":"A3","midi":57,"time":5.5062500000000005,"velocity":0.7952755905511811,"duration":0.22916666666666607},{"name":"G3","midi":55,"time":5.747916666666667,"velocity":0.7952755905511811,"duration":0.25625000000000053},{"name":"F#3","midi":54,"time":5.99375,"velocity":0.7952755905511811,"duration":0.2666666666666666},{"name":"G3","midi":55,"time":6.24375,"velocity":0.7952755905511811,"duration":0.25416666666666643},{"name":"A3","midi":57,"time":6.491666666666667,"velocity":0.7952755905511811,"duration":0.27083333333333304},{"name":"D#3","midi":51,"time":6.7375,"velocity":0.7952755905511811,"duration":0.23958333333333393},{"name":"D3","midi":50,"time":6.98125,"velocity":0.7952755905511811,"duration":0.25833333333333286},{"name":"C3","midi":48,"time":7.233333333333333,"velocity":0.7952755905511811,"duration":0.25624999999999964},{"name":"A#2","midi":46,"time":7.485416666666667,"velocity":0.7952755905511811,"duration":0.2645833333333334},{"name":"A2","midi":45,"time":7.735416666666667,"velocity":0.7952755905511811,"duration":0.27499999999999947},{"name":"A#2","midi":46,"time":7.997916666666667,"velocity":0.7952755905511811,"duration":1.2624999999999993},{"name":"D3","midi":50,"time":9.25,"velocity":0.7952755905511811,"duration":0.2624999999999993},{"name":"C3","midi":48,"time":9.5,"velocity":0.7952755905511811,"duration":0.2333333333333325},{"name":"D#3","midi":51,"time":9.741666666666665,"velocity":0.7952755905511811,"duration":0.27083333333333215},{"name":"D3","midi":50,"time":9.997916666666665,"velocity":0.7874015748031497,"duration":1.2541666666666647},{"name":"E3","midi":52,"time":11.243749999999997,"velocity":0.7086614173228346,"duration":0.2604166666666661},{"name":"F#3","midi":54,"time":11.491666666666664,"velocity":0.6929133858267716,"duration":0.25416666666666643},{"name":"D3","midi":50,"time":11.741666666666664,"velocity":0.6771653543307087,"duration":0.26874999999999893},{"name":"G3","midi":55,"time":12.031249999999996,"velocity":0.6456692913385826,"duration":1.5},{"name":"F4","midi":65,"time":12.497916666666663,"velocity":0.6456692913385826,"duration":0.25833333333333286},{"name":"D4","midi":62,"time":12.75208333333333,"velocity":0.6456692913385826,"duration":0.27708333333333357},{"name":"D#4","midi":63,"time":13.006249999999996,"velocity":0.6456692913385826,"duration":1.135416666666666},{"name":"D#3","midi":51,"time":13.499999999999996,"velocity":0.6456692913385826,"duration":0.5104166666666661},{"name":"F3","midi":53,"time":14.006249999999996,"velocity":0.6456692913385826,"duration":1.489583333333334},{"name":"D#4","midi":63,"time":14.491666666666662,"velocity":0.6456692913385826,"duration":0.2687500000000007},{"name":"C4","midi":60,"time":14.743749999999995,"velocity":0.6456692913385826,"duration":0.2729166666666689},{"name":"D4","midi":62,"time":14.997916666666663,"velocity":0.6377952755905512,"duration":1.237499999999999},{"name":"D3","midi":50,"time":15.497916666666663,"velocity":0.6377952755905512,"duration":0.5020833333333332},{"name":"D#3","midi":51,"time":15.993749999999997,"velocity":0.6377952755905512,"duration":1.518749999999999},{"name":"D4","midi":62,"time":16.49583333333333,"velocity":0.6377952755905512,"duration":0.25416666666666643},{"name":"A#3","midi":58,"time":16.74583333333333,"velocity":0.6377952755905512,"duration":0.2604166666666643},{"name":"C4","midi":60,"time":16.993749999999995,"velocity":0.6377952755905512,"duration":1.5395833333333364},{"name":"C3","midi":48,"time":17.49791666666666,"velocity":0.6377952755905512,"duration":0.5312500000000036},{"name":"D3","midi":50,"time":18.01458333333333,"velocity":0.6299212598425197,"duration":2.4833333333333343},{"name":"A3","midi":57,"time":18.49583333333333,"velocity":0.6299212598425197,"duration":0.6083333333333378},{"name":"A#3","midi":58,"time":19.008333333333333,"velocity":0.6299212598425197,"duration":0.5062500000000014},{"name":"G3","midi":55,"time":19.504166666666666,"velocity":0.6299212598425197,"duration":0.5249999999999986},{"name":"F#3","midi":54,"time":20.008333333333333,"velocity":0.6299212598425197,"duration":0.5062499999999979},{"name":"C3","midi":48,"time":20.49583333333333,"velocity":0.6220472440944882,"duration":0.5187500000000043},{"name":"A3","midi":57,"time":20.506249999999998,"velocity":0.6220472440944882,"duration":0.47916666666666785},{"name":"A#2","midi":46,"time":20.995833333333334,"velocity":0.6456692913385826,"duration":0.5166666666666693},{"name":"D3","midi":50,"time":21.002083333333335,"velocity":0.6456692913385826,"duration":1.5062500000000014},{"name":"G2","midi":43,"time":21.510416666666668,"velocity":0.6692913385826772,"duration":0.48125000000000284},{"name":"D2","midi":38,"time":21.995833333333337,"velocity":0.6929133858267716,"duration":0.4937499999999986},{"name":"D4","midi":62,"time":22.495833333333337,"velocity":0.7165354330708661,"duration":0.7708333333333321},{"name":"C4","midi":60,"time":23.243750000000002,"velocity":0.7480314960629921,"duration":0.2666666666666657},{"name":"B3","midi":59,"time":23.49791666666667,"velocity":0.7637795275590551,"duration":0.26458333333333073},{"name":"A3","midi":57,"time":23.745833333333334,"velocity":0.7716535433070866,"duration":0.2666666666666657},{"name":"G3","midi":55,"time":23.997916666666665,"velocity":0.7795275590551181,"duration":0.2645833333333343},{"name":"D3","midi":50,"time":24.25208333333333,"velocity":0.7795275590551181,"duration":0.2687500000000007},{"name":"G3","midi":55,"time":24.504166666666666,"velocity":0.7795275590551181,"duration":0.25833333333333286},{"name":"B3","midi":59,"time":24.756249999999998,"velocity":0.7795275590551181,"duration":0.2687500000000007},{"name":"D4","midi":62,"time":25.0125,"velocity":0.7874015748031497,"duration":0.24791666666666856},{"name":"D#4","midi":63,"time":25.254166666666666,"velocity":0.7874015748031497,"duration":0.279166666666665},{"name":"D4","midi":62,"time":25.508333333333333,"velocity":0.7874015748031497,"duration":0.23541666666666572},{"name":"C4","midi":60,"time":25.75208333333333,"velocity":0.7952755905511811,"duration":0.25},{"name":"B3","midi":59,"time":25.999999999999996,"velocity":0.7952755905511811,"duration":0.26666666666666927},{"name":"C4","midi":60,"time":26.25208333333333,"velocity":0.7952755905511811,"duration":0.252083333333335},{"name":"D4","midi":62,"time":26.5,"velocity":0.7952755905511811,"duration":0.252083333333335},{"name":"G#3","midi":56,"time":26.745833333333334,"velocity":0.8031496062992126,"duration":0.25000000000000355},{"name":"G3","midi":55,"time":26.989583333333336,"velocity":0.8031496062992126,"duration":0.25416666666667},{"name":"F3","midi":53,"time":27.24166666666667,"velocity":0.8031496062992126,"duration":0.25416666666666643},{"name":"D#3","midi":51,"time":27.487500000000004,"velocity":0.8110236220472441,"duration":0.25208333333333144},{"name":"D3","midi":50,"time":27.743750000000002,"velocity":0.8110236220472441,"duration":0.2645833333333343},{"name":"C3","midi":48,"time":27.993750000000002,"velocity":0.8110236220472441,"duration":1.0250000000000021},{"name":"C3","midi":48,"time":29.24166666666667,"velocity":0.7637795275590551,"duration":0.27708333333333357},{"name":"D#3","midi":51,"time":29.497916666666672,"velocity":0.7480314960629921,"duration":0.27708333333333357},{"name":"G3","midi":55,"time":29.756250000000005,"velocity":0.7322834645669292,"duration":0.24791666666666856},{"name":"C4","midi":60,"time":30.004166666666674,"velocity":0.7165354330708661,"duration":0.375},{"name":"D3","midi":50,"time":30.48958333333334,"velocity":0.6850393700787402,"duration":0.35208333333333286},{"name":"C3","midi":48,"time":30.493750000000006,"velocity":0.6850393700787402,"duration":0.37916666666666643},{"name":"A#2","midi":46,"time":30.98958333333334,"velocity":0.6614173228346457,"duration":0.3937500000000007},{"name":"E3","midi":52,"time":30.98958333333334,"velocity":0.6614173228346457,"duration":0.38333333333333286},{"name":"A2","midi":45,"time":31.48958333333334,"velocity":0.6299212598425197,"duration":0.3500000000000014},{"name":"F#3","midi":54,"time":31.493750000000006,"velocity":0.6299212598425197,"duration":0.314583333333335},{"name":"G2","midi":43,"time":32.00625000000001,"velocity":0.5984251968503937,"duration":3.843749999999993},{"name":"G3","midi":55,"time":32.25833333333334,"velocity":0.5748031496062992,"duration":0.2645833333333343},{"name":"G3","midi":55,"time":35.245833333333344,"velocity":0.5748031496062992,"duration":0.2708333333333286},{"name":"F3","midi":53,"time":35.497916666666676,"velocity":0.5748031496062992,"duration":0.27291666666666003},{"name":"E3","midi":52,"time":35.75416666666667,"velocity":0.5748031496062992,"duration":0.2562500000000014},{"name":"D3","midi":50,"time":36.0125,"velocity":0.5748031496062992,"duration":0.9791666666666643},{"name":"F2","midi":41,"time":36.014583333333334,"velocity":0.5748031496062992,"duration":0.9833333333333343},{"name":"A3","midi":57,"time":37.485416666666666,"velocity":0.6299212598425197,"duration":0.5229166666666742},{"name":"F3","midi":53,"time":37.489583333333336,"velocity":0.6299212598425197,"duration":0.5125000000000028},{"name":"E3","midi":52,"time":37.989583333333336,"velocity":0.6535433070866141,"duration":0.5104166666666714},{"name":"G3","midi":55,"time":37.989583333333336,"velocity":0.6535433070866141,"duration":0.9791666666666714},{"name":"D3","midi":50,"time":38.491666666666674,"velocity":0.6614173228346457,"duration":0.38750000000000284},{"name":"E3","midi":52,"time":38.991666666666674,"velocity":0.6377952755905512,"duration":0.7458333333333371},{"name":"C#3","midi":49,"time":39.00625000000001,"velocity":0.6377952755905512,"duration":0.6479166666666671},{"name":"A2","midi":45,"time":39.493750000000006,"velocity":0.6141732283464567,"duration":0.4895833333333357},{"name":"D3","midi":50,"time":39.98541666666667,"velocity":0.5905511811023622,"duration":0.5020833333333314},{"name":"C3","midi":48,"time":40.49583333333334,"velocity":0.5748031496062992,"duration":0.4958333333333371},{"name":"A#2","midi":46,"time":40.987500000000004,"velocity":0.5748031496062992,"duration":0.38750000000000284},{"name":"A2","midi":45,"time":41.487500000000004,"velocity":0.5748031496062992,"duration":0.37291666666666856},{"name":"G2","midi":43,"time":41.991666666666674,"velocity":0.5748031496062992,"duration":0.48125000000000284},{"name":"F2","midi":41,"time":42.49375000000001,"velocity":0.5748031496062992,"duration":0.34583333333333144},{"name":"D#2","midi":39,"time":42.991666666666674,"velocity":0.5748031496062992,"duration":0.3500000000000014},{"name":"D2","midi":38,"time":43.47708333333334,"velocity":0.5748031496062992,"duration":0.39791666666666714},{"name":"C#2","midi":37,"time":44.00833333333334,"velocity":0.5748031496062992,"duration":1.1395833333333343},{"name":"G2","midi":43,"time":45.243750000000006,"velocity":0.5748031496062992,"duration":0.27291666666666714},{"name":"F2","midi":41,"time":45.49583333333334,"velocity":0.5748031496062992,"duration":0.25416666666667},{"name":"E2","midi":40,"time":45.73958333333334,"velocity":0.5826771653543307,"duration":0.28333333333333144},{"name":"F2","midi":41,"time":46.00208333333334,"velocity":0.5984251968503937,"duration":0.49791666666666856},{"name":"G2","midi":43,"time":46.491666666666674,"velocity":0.6299212598425197,"duration":0.6020833333333329},{"name":"A2","midi":45,"time":46.997916666666676,"velocity":0.6614173228346457,"duration":0.3270833333333343},{"name":"A2","midi":45,"time":47.497916666666676,"velocity":0.6929133858267716,"duration":0.5020833333333314},{"name":"D2","midi":38,"time":47.993750000000006,"velocity":0.7244094488188977,"duration":1.09375},{"name":"C#4","midi":61,"time":49.73541666666667,"velocity":0.6614173228346457,"duration":0.2958333333333343},{"name":"D4","midi":62,"time":50.00833333333334,"velocity":0.6535433070866141,"duration":1.6041666666666643},{"name":"F#3","midi":54,"time":50.25833333333334,"velocity":0.6535433070866141,"duration":0.2645833333333343},{"name":"G3","midi":55,"time":50.51250000000001,"velocity":0.6299212598425197,"duration":0.2645833333333272},{"name":"A3","midi":57,"time":50.768750000000004,"velocity":0.6141732283464567,"duration":0.2645833333333343},{"name":"D3","midi":50,"time":51.01041666666667,"velocity":0.5905511811023622,"duration":0.625},{"name":"G2","midi":43,"time":52.268750000000004,"velocity":0.5590551181102362,"duration":0.24791666666666856},{"name":"A#2","midi":46,"time":52.51666666666667,"velocity":0.5590551181102362,"duration":0.2666666666666657},{"name":"D3","midi":50,"time":52.76666666666667,"velocity":0.5590551181102362,"duration":0.25416666666667},{"name":"G3","midi":55,"time":53.01458333333334,"velocity":0.5590551181102362,"duration":0.24791666666666856},{"name":"A#3","midi":58,"time":53.26250000000001,"velocity":0.5590551181102362,"duration":0.3812500000000014},{"name":"A3","midi":57,"time":53.51250000000001,"velocity":0.5590551181102362,"duration":0.2291666666666714},{"name":"G3","midi":55,"time":53.76041666666668,"velocity":0.5590551181102362,"duration":0.2562500000000014},{"name":"F#3","midi":54,"time":54.00833333333335,"velocity":0.5590551181102362,"duration":0.2666666666666657},{"name":"G3","midi":55,"time":54.25833333333335,"velocity":0.5590551181102362,"duration":0.25416666666667},{"name":"A3","midi":57,"time":54.50833333333335,"velocity":0.5590551181102362,"duration":0.2708333333333357},{"name":"D#3","midi":51,"time":54.756250000000016,"velocity":0.5590551181102362,"duration":0.2395833333333357},{"name":"D3","midi":50,"time":55.006250000000016,"velocity":0.5590551181102362,"duration":0.25833333333333286},{"name":"C3","midi":48,"time":55.256250000000016,"velocity":0.5590551181102362,"duration":0.2562500000000014},{"name":"A#2","midi":46,"time":55.506250000000016,"velocity":0.5590551181102362,"duration":0.2645833333333343},{"name":"A2","midi":45,"time":55.756250000000016,"velocity":0.5590551181102362,"duration":0.2750000000000057},{"name":"A#2","midi":46,"time":56.010416666666686,"velocity":0.5590551181102362,"duration":1.2625000000000028},{"name":"D3","midi":50,"time":57.260416666666686,"velocity":0.5590551181102362,"duration":0.26250000000000284},{"name":"C3","midi":48,"time":57.510416666666686,"velocity":0.5590551181102362,"duration":0.23333333333333428},{"name":"D#3","midi":51,"time":57.758333333333354,"velocity":0.5590551181102362,"duration":0.2708333333333286},{"name":"D3","midi":50,"time":58.010416666666686,"velocity":0.5669291338582677,"duration":1.2541666666666629},{"name":"E3","midi":52,"time":59.25833333333335,"velocity":0.5433070866141733,"duration":0.2604166666666643},{"name":"F#3","midi":54,"time":59.50833333333335,"velocity":0.5354330708661418,"duration":0.25416666666667},{"name":"D3","midi":50,"time":59.75833333333335,"velocity":0.5275590551181102,"duration":0.26875000000000426},{"name":"G3","midi":55,"time":60.02083333333335,"velocity":0.5275590551181102,"duration":1.499999999999993},{"name":"F4","midi":65,"time":60.510416666666686,"velocity":0.5196850393700787,"duration":0.25833333333333286},{"name":"D4","midi":62,"time":60.76250000000002,"velocity":0.5196850393700787,"duration":0.27708333333333},{"name":"D#4","midi":63,"time":61.01250000000002,"velocity":0.5196850393700787,"duration":1.1354166666666572},{"name":"D#3","midi":51,"time":61.51041666666668,"velocity":0.5196850393700787,"duration":0.5104166666666643},{"name":"F3","midi":53,"time":62.01250000000001,"velocity":0.5196850393700787,"duration":1.4895833333333286},{"name":"D#4","midi":63,"time":62.50833333333334,"velocity":0.5196850393700787,"duration":0.26874999999999716},{"name":"C4","midi":60,"time":62.75833333333334,"velocity":0.5196850393700787,"duration":0.27291666666666714},{"name":"D4","midi":62,"time":63.01041666666667,"velocity":0.5196850393700787,"duration":1.2374999999999972},{"name":"D3","midi":50,"time":63.51041666666667,"velocity":0.5196850393700787,"duration":0.5020833333333314},{"name":"D#3","midi":51,"time":64.00833333333334,"velocity":0.5196850393700787,"duration":1.5187499999999972},{"name":"D4","midi":62,"time":64.51041666666667,"velocity":0.5196850393700787,"duration":0.2541666666666629},{"name":"A#3","midi":58,"time":64.76041666666667,"velocity":0.5196850393700787,"duration":0.2604166666666714},{"name":"C4","midi":60,"time":65.00833333333334,"velocity":0.5196850393700787,"duration":1.5395833333333258},{"name":"C3","midi":48,"time":65.51041666666667,"velocity":0.5196850393700787,"duration":0.53125},{"name":"D3","midi":50,"time":66.01458333333333,"velocity":0.5196850393700787,"duration":2.4833333333333343},{"name":"A3","midi":57,"time":66.51041666666667,"velocity":0.5196850393700787,"duration":0.6083333333333343},{"name":"A#3","midi":58,"time":67.0125,"velocity":0.5196850393700787,"duration":0.5062499999999943},{"name":"G3","midi":55,"time":67.5125,"velocity":0.5196850393700787,"duration":0.5250000000000057},{"name":"F#3","midi":54,"time":68.0125,"velocity":0.5196850393700787,"duration":0.5062499999999943},{"name":"C3","midi":48,"time":68.51041666666667,"velocity":0.5433070866141733,"duration":0.518749999999983},{"name":"A3","midi":57,"time":68.5125,"velocity":0.5511811023622047,"duration":0.4791666666666572},{"name":"A#2","midi":46,"time":69.01041666666666,"velocity":0.5748031496062992,"duration":0.5166666666666657},{"name":"D3","midi":50,"time":69.01249999999999,"velocity":0.5748031496062992,"duration":1.5062500000000085},{"name":"G2","midi":43,"time":69.51458333333332,"velocity":0.6062992125984252,"duration":0.48125000000000284},{"name":"D2","midi":38,"time":70.01041666666666,"velocity":0.6377952755905512,"duration":0.4937500000000057},{"name":"D4","midi":62,"time":70.51041666666666,"velocity":0.6692913385826772,"duration":0.7708333333333286},{"name":"C4","midi":60,"time":71.25833333333333,"velocity":0.6929133858267716,"duration":0.2666666666666657},{"name":"B3","midi":59,"time":71.51041666666666,"velocity":0.6929133858267716,"duration":0.2645833333333343},{"name":"A3","midi":57,"time":71.76041666666666,"velocity":0.7007874015748031,"duration":0.2666666666666657},{"name":"G3","midi":55,"time":72.01041666666666,"velocity":0.7086614173228346,"duration":0.2645833333333343},{"name":"D3","midi":50,"time":72.26249999999999,"velocity":0.7165354330708661,"duration":0.26874999999999716},{"name":"G3","midi":55,"time":72.51249999999999,"velocity":0.7165354330708661,"duration":0.25833333333333997},{"name":"B3","midi":59,"time":72.76249999999999,"velocity":0.7244094488188977,"duration":0.26875000000001137},{"name":"D4","midi":62,"time":73.01458333333333,"velocity":0.7322834645669292,"duration":0.24791666666666856},{"name":"D#4","midi":63,"time":73.2625,"velocity":0.7401574803149606,"duration":0.27916666666666856},{"name":"D4","midi":62,"time":73.5125,"velocity":0.7559055118110236,"duration":0.23541666666666572},{"name":"C4","midi":60,"time":73.7625,"velocity":0.7401574803149606,"duration":0.25},{"name":"B3","midi":59,"time":74.01041666666667,"velocity":0.7244094488188977,"duration":0.2666666666666657},{"name":"C4","midi":60,"time":74.2625,"velocity":0.7086614173228346,"duration":0.25208333333333144},{"name":"D4","midi":62,"time":74.51041666666667,"velocity":0.6929133858267716,"duration":0.25208333333333144},{"name":"G#3","midi":56,"time":74.76041666666667,"velocity":0.6771653543307087,"duration":0.25},{"name":"G3","midi":55,"time":75.00833333333334,"velocity":0.6614173228346457,"duration":0.2541666666666629},{"name":"F3","midi":53,"time":75.25833333333334,"velocity":0.6456692913385826,"duration":0.2541666666666629},{"name":"D#3","midi":51,"time":75.50625000000001,"velocity":0.6299212598425197,"duration":0.25208333333333144},{"name":"D3","midi":50,"time":75.75833333333334,"velocity":0.6141732283464567,"duration":0.2645833333333343},{"name":"C3","midi":48,"time":76.00833333333334,"velocity":0.5905511811023622,"duration":1.0250000000000057},{"name":"C3","midi":48,"time":77.25833333333334,"velocity":0.5905511811023622,"duration":0.2770833333333371},{"name":"D#3","midi":51,"time":77.51041666666667,"velocity":0.5905511811023622,"duration":0.27708333333335133},{"name":"G3","midi":55,"time":77.76250000000002,"velocity":0.5905511811023622,"duration":0.24791666666666856},{"name":"C4","midi":60,"time":78.01250000000002,"velocity":0.5905511811023622,"duration":0.375},{"name":"C3","midi":48,"time":78.50833333333335,"velocity":0.5905511811023622,"duration":0.3791666666666771},{"name":"D3","midi":50,"time":78.50833333333335,"velocity":0.5905511811023622,"duration":0.35208333333333997},{"name":"A#2","midi":46,"time":79.00833333333337,"velocity":0.5905511811023622,"duration":0.39375000000001137},{"name":"E3","midi":52,"time":79.00833333333337,"velocity":0.5905511811023622,"duration":0.38333333333333997},{"name":"A2","midi":45,"time":79.50833333333338,"velocity":0.5905511811023622,"duration":0.3499999999999943},{"name":"F#3","midi":54,"time":79.50833333333338,"velocity":0.5905511811023622,"duration":0.31458333333333144},{"name":"G2","midi":43,"time":80.01250000000005,"velocity":0.5905511811023622,"duration":3.84375},{"name":"G3","midi":55,"time":80.26250000000005,"velocity":0.5905511811023622,"duration":0.2645833333333343},{"name":"G3","midi":55,"time":83.26041666666671,"velocity":0.5905511811023622,"duration":0.2708333333333286},{"name":"F3","midi":53,"time":83.51041666666671,"velocity":0.5826771653543307,"duration":0.27291666666666003},{"name":"E3","midi":52,"time":83.76250000000005,"velocity":0.5748031496062992,"duration":0.2562499999999943},{"name":"F2","midi":41,"time":84.01458333333338,"velocity":0.5590551181102362,"duration":0.9833333333333201},{"name":"D3","midi":50,"time":84.01458333333338,"velocity":0.5590551181102362,"duration":0.9791666666666572},{"name":"A3","midi":57,"time":85.50625000000004,"velocity":0.5826771653543307,"duration":0.5229166666666742},{"name":"F3","midi":53,"time":85.50833333333337,"velocity":0.5826771653543307,"duration":0.5125000000000028},{"name":"E3","midi":52,"time":86.00833333333337,"velocity":0.5984251968503937,"duration":0.5104166666666856},{"name":"G3","midi":55,"time":86.00833333333337,"velocity":0.5984251968503937,"duration":0.9791666666666856},{"name":"D3","midi":50,"time":86.50833333333338,"velocity":0.6062992125984252,"duration":0.38750000000000284},{"name":"E3","midi":52,"time":87.00833333333338,"velocity":0.6141732283464567,"duration":0.7458333333333371},{"name":"C#3","midi":49,"time":87.01250000000005,"velocity":0.6141732283464567,"duration":0.6479166666666742},{"name":"A2","midi":45,"time":87.50833333333338,"velocity":0.6299212598425197,"duration":0.4895833333333428},{"name":"D3","midi":50,"time":88.00625000000007,"velocity":0.6377952755905512,"duration":0.5020833333333314},{"name":"C3","midi":48,"time":88.51041666666673,"velocity":0.6456692913385826,"duration":0.4958333333333371},{"name":"A#2","midi":46,"time":89.00625000000007,"velocity":0.6614173228346457,"duration":0.38750000000000284},{"name":"A2","midi":45,"time":89.50625000000007,"velocity":0.6692913385826772,"duration":0.37291666666666856},{"name":"G2","midi":43,"time":90.0083333333334,"velocity":0.6771653543307087,"duration":0.48125000000000284},{"name":"F2","midi":41,"time":90.5083333333334,"velocity":0.6929133858267716,"duration":0.34583333333333144},{"name":"D#2","midi":39,"time":91.0083333333334,"velocity":0.7007874015748031,"duration":0.3499999999999943},{"name":"D2","midi":38,"time":91.50416666666672,"velocity":0.7086614173228346,"duration":0.39791666666666003},{"name":"C#2","midi":37,"time":92.01250000000005,"velocity":0.7244094488188977,"duration":1.1395833333333343},{"name":"G2","midi":43,"time":93.25833333333338,"velocity":0.7559055118110236,"duration":0.27291666666666003},{"name":"F2","midi":41,"time":93.51041666666671,"velocity":0.7637795275590551,"duration":0.2541666666666629},{"name":"E2","midi":40,"time":93.75833333333338,"velocity":0.7716535433070866,"duration":0.28333333333333144},{"name":"F2","midi":41,"time":94.01250000000005,"velocity":0.7795275590551181,"duration":0.49791666666666856},{"name":"G2","midi":43,"time":94.50833333333338,"velocity":0.7874015748031497,"duration":0.6020833333333258},{"name":"A2","midi":45,"time":95.01041666666671,"velocity":0.8031496062992126,"duration":0.3270833333333343},{"name":"A2","midi":45,"time":95.51041666666671,"velocity":0.8188976377952756,"duration":0.5020833333333314},{"name":"D2","midi":38,"time":96.00833333333338,"velocity":0.8267716535433071,"duration":1.09375},{"name":"C#4","midi":61,"time":97.75625000000005,"velocity":0.7322834645669292,"duration":0.2958333333333343},{"name":"D4","midi":62,"time":98.01250000000005,"velocity":0.7165354330708661,"duration":1.625},{"name":"F#3","midi":54,"time":98.26250000000005,"velocity":0.7007874015748031,"duration":0.2645833333333343},{"name":"G3","midi":55,"time":98.51458333333338,"velocity":0.6850393700787402,"duration":0.2645833333333343},{"name":"A3","midi":57,"time":98.76666666666671,"velocity":0.6692913385826772,"duration":0.2645833333333343},{"name":"D3","midi":50,"time":99.01458333333338,"velocity":0.6535433070866141,"duration":0.625},{"name":"D3","midi":50,"time":100.01250000000005,"velocity":0.7559055118110236,"duration":1.2354166666666657},{"name":"A3","midi":57,"time":101.2541666666667,"velocity":0.7559055118110236,"duration":0.2708333333333286},{"name":"A#3","midi":58,"time":101.50625000000004,"velocity":0.7559055118110236,"duration":0.23541666666666572},{"name":"C4","midi":60,"time":101.74375000000003,"velocity":0.7559055118110236,"duration":0.26250000000000284},{"name":"F3","midi":53,"time":101.99375000000003,"velocity":0.7559055118110236,"duration":0.5125000000000028},{"name":"D#3","midi":51,"time":102.48958333333337,"velocity":0.7559055118110236,"duration":0.50833333333334},{"name":"C4","midi":60,"time":102.49375000000003,"velocity":0.7559055118110236,"duration":1.0104166666666856},{"name":"F3","midi":53,"time":102.98958333333337,"velocity":0.7559055118110236,"duration":0.5187500000000114},{"name":"B3","midi":59,"time":103.49375000000005,"velocity":0.7559055118110236,"duration":0.3854166666666714},{"name":"G3","midi":55,"time":103.50625000000005,"velocity":0.7559055118110236,"duration":0.5041666666666771},{"name":"C3","midi":48,"time":104.00208333333339,"velocity":0.7559055118110236,"duration":0.2604166666666714},{"name":"C4","midi":60,"time":104.25208333333339,"velocity":0.7559055118110236,"duration":0.24375000000000568},{"name":"G3","midi":55,"time":104.50416666666673,"velocity":0.7559055118110236,"duration":0.2395833333333286},{"name":"D#3","midi":51,"time":104.73750000000007,"velocity":0.7559055118110236,"duration":0.25833333333332575},{"name":"C3","midi":48,"time":104.9895833333334,"velocity":0.7559055118110236,"duration":0.2604166666666572},{"name":"B2","midi":47,"time":105.24375000000006,"velocity":0.7559055118110236,"duration":0.25833333333332575},{"name":"C3","midi":48,"time":105.49166666666672,"velocity":0.7559055118110236,"duration":0.23333333333333428},{"name":"D3","midi":50,"time":105.73750000000005,"velocity":0.7559055118110236,"duration":0.2749999999999915},{"name":"E3","midi":52,"time":105.99375000000005,"velocity":0.7559055118110236,"duration":0.2541666666666771},{"name":"D3","midi":50,"time":106.23958333333339,"velocity":0.7637795275590551,"duration":0.2875000000000085},{"name":"C3","midi":48,"time":106.51041666666673,"velocity":0.7480314960629921,"duration":0.23749999999999716},{"name":"F3","midi":53,"time":106.75208333333339,"velocity":0.7322834645669292,"duration":0.24583333333333712},{"name":"G3","midi":55,"time":107.00000000000006,"velocity":0.7165354330708661,"duration":0.24791666666666856},{"name":"A3","midi":57,"time":107.24375000000006,"velocity":0.7007874015748031,"duration":0.2562500000000085},{"name":"A#3","midi":58,"time":107.49166666666673,"velocity":0.6850393700787402,"duration":0.26250000000000284},{"name":"C4","midi":60,"time":107.74166666666673,"velocity":0.6692913385826772,"duration":0.2541666666666629},{"name":"A3","midi":57,"time":107.99375000000006,"velocity":0.6535433070866141,"duration":0.23125000000000284},{"name":"G3","midi":55,"time":108.23541666666674,"velocity":0.6377952755905512,"duration":0.2708333333333428},{"name":"F3","midi":53,"time":108.49791666666674,"velocity":0.6377952755905512,"duration":0.2083333333333428},{"name":"A#3","midi":58,"time":109.00833333333341,"velocity":0.6377952755905512,"duration":0.2666666666666657},{"name":"D3","midi":50,"time":109.50625000000008,"velocity":0.6299212598425197,"duration":0.2645833333333343},{"name":"D#3","midi":51,"time":110.00000000000009,"velocity":0.6299212598425197,"duration":0.2958333333333343},{"name":"D#2","midi":39,"time":110.50208333333342,"velocity":0.6299212598425197,"duration":0.25},{"name":"D#3","midi":51,"time":111.00416666666675,"velocity":0.6535433070866141,"duration":0.25833333333333997},{"name":"C3","midi":48,"time":111.49583333333342,"velocity":0.6692913385826772,"duration":0.24166666666666003},{"name":"F3","midi":53,"time":111.99166666666675,"velocity":0.6850393700787402,"duration":0.25208333333333144},{"name":"F2","midi":41,"time":112.24166666666675,"velocity":0.7007874015748031,"duration":0.2645833333333343},{"name":"A2","midi":45,"time":112.48958333333341,"velocity":0.7086614173228346,"duration":0.2645833333333343},{"name":"C3","midi":48,"time":112.74166666666675,"velocity":0.7165354330708661,"duration":0.25},{"name":"D#3","midi":51,"time":112.98958333333341,"velocity":0.7244094488188977,"duration":0.2604166666666714},{"name":"G3","midi":55,"time":113.23750000000008,"velocity":0.7401574803149606,"duration":0.27291666666667425},{"name":"F3","midi":53,"time":113.49791666666675,"velocity":0.7480314960629921,"duration":0.25},{"name":"D#3","midi":51,"time":113.74166666666676,"velocity":0.7559055118110236,"duration":0.27291666666666003},{"name":"D3","midi":50,"time":113.99791666666675,"velocity":0.7637795275590551,"duration":0.25},{"name":"C3","midi":48,"time":114.23750000000008,"velocity":0.7795275590551181,"duration":0.25208333333333144},{"name":"A#2","midi":46,"time":114.48333333333342,"velocity":0.7874015748031497,"duration":0.2604166666666572},{"name":"D#3","midi":51,"time":114.73750000000008,"velocity":0.7952755905511811,"duration":0.2812499999999858},{"name":"F3","midi":53,"time":114.99791666666674,"velocity":0.8031496062992126,"duration":0.36249999999999716},{"name":"F2","midi":41,"time":115.50625000000007,"velocity":0.7874015748031497,"duration":0.23125000000000284},{"name":"A#2","midi":46,"time":115.98750000000007,"velocity":0.7480314960629921,"duration":0.2916666666666714},{"name":"A#3","midi":58,"time":116.25416666666673,"velocity":0.7322834645669292,"duration":0.24791666666666856},{"name":"F3","midi":53,"time":116.5083333333334,"velocity":0.7086614173228346,"duration":0.2541666666666629},{"name":"D3","midi":50,"time":116.75625000000007,"velocity":0.6850393700787402,"duration":0.23333333333333428},{"name":"A#2","midi":46,"time":116.99375000000006,"velocity":0.6692913385826772,"duration":0.2541666666666629},{"name":"G2","midi":43,"time":117.24166666666673,"velocity":0.6456692913385826,"duration":0.2458333333333229},{"name":"A2","midi":45,"time":117.48541666666672,"velocity":0.6141732283464567,"duration":0.27916666666666856},{"name":"A#2","midi":46,"time":117.74791666666673,"velocity":0.6141732283464567,"duration":0.25208333333333144},{"name":"C3","midi":48,"time":117.9958333333334,"velocity":0.6141732283464567,"duration":0.2604166666666572},{"name":"A#2","midi":46,"time":118.24166666666672,"velocity":0.6141732283464567,"duration":0.2666666666666657},{"name":"A2","midi":45,"time":118.49583333333338,"velocity":0.6141732283464567,"duration":0.25},{"name":"D3","midi":50,"time":118.74375000000005,"velocity":0.6141732283464567,"duration":0.23749999999999716},{"name":"E3","midi":52,"time":118.99375000000005,"velocity":0.6141732283464567,"duration":0.25208333333333144},{"name":"F#3","midi":54,"time":119.23958333333339,"velocity":0.6141732283464567,"duration":0.2458333333333229},{"name":"G3","midi":55,"time":119.48750000000004,"velocity":0.6141732283464567,"duration":0.26874999999999716},{"name":"A3","midi":57,"time":119.73750000000004,"velocity":0.6141732283464567,"duration":0.2604166666666572},{"name":"D3","midi":50,"time":119.99375000000003,"velocity":0.6141732283464567,"duration":1.2437499999999915},{"name":"G3","midi":55,"time":121.23750000000003,"velocity":0.6141732283464567,"duration":0.26250000000000284},{"name":"F#3","midi":54,"time":121.48750000000003,"velocity":0.6141732283464567,"duration":0.25208333333333144},{"name":"G3","midi":55,"time":121.73750000000003,"velocity":0.6141732283464567,"duration":0.2708333333333428},{"name":"C3","midi":48,"time":121.9979166666667,"velocity":0.6141732283464567,"duration":0.30000000000001137},{"name":"A#2","midi":46,"time":122.49583333333338,"velocity":0.6141732283464567,"duration":0.5229166666666742},{"name":"G3","midi":55,"time":122.50625000000005,"velocity":0.6141732283464567,"duration":0.9958333333333513},{"name":"C3","midi":48,"time":123.00416666666672,"velocity":0.6141732283464567,"duration":0.4791666666666714},{"name":"F#3","midi":54,"time":123.49375000000006,"velocity":0.6141732283464567,"duration":0.5125000000000028},{"name":"D3","midi":50,"time":123.5020833333334,"velocity":0.6141732283464567,"duration":0.49166666666666003},{"name":"G3","midi":55,"time":124.00416666666673,"velocity":0.6141732283464567,"duration":0.34166666666665435},{"name":"G2","midi":43,"time":124.2458333333334,"velocity":0.6220472440944882,"duration":0.26249999999998863},{"name":"A#2","midi":46,"time":124.50208333333339,"velocity":0.6377952755905512,"duration":0.26250000000000284},{"name":"D3","midi":50,"time":124.75208333333339,"velocity":0.6535433070866141,"duration":0.2604166666666572},{"name":"G3","midi":55,"time":125.00625000000005,"velocity":0.6614173228346457,"duration":0.2145833333333229},{"name":"G3","midi":55,"time":125.24791666666671,"velocity":0.6771653543307087,"duration":0.24375000000000568},{"name":"F3","midi":53,"time":125.49791666666671,"velocity":0.6929133858267716,"duration":0.2604166666666572},{"name":"D#3","midi":51,"time":125.75208333333337,"velocity":0.7007874015748031,"duration":0.25208333333333144},{"name":"D3","midi":50,"time":126.0041666666667,"velocity":0.7165354330708661,"duration":0.23125000000000284},{"name":"D#3","midi":51,"time":126.23750000000004,"velocity":0.7322834645669292,"duration":0.2562499999999943},{"name":"F3","midi":53,"time":126.49583333333337,"velocity":0.7401574803149606,"duration":0.2541666666666629},{"name":"C3","midi":48,"time":126.74583333333337,"velocity":0.7559055118110236,"duration":0.2458333333333229},{"name":"A#2","midi":46,"time":127.00000000000003,"velocity":0.7716535433070866,"duration":0.2562499999999943},{"name":"G#2","midi":44,"time":127.2354166666667,"velocity":0.7795275590551181,"duration":0.2749999999999915},{"name":"G2","midi":43,"time":127.48958333333336,"velocity":0.7795275590551181,"duration":0.25833333333332575},{"name":"F2","midi":41,"time":127.73333333333335,"velocity":0.7795275590551181,"duration":0.27291666666667425},{"name":"D#2","midi":39,"time":127.99375000000002,"velocity":0.7874015748031497,"duration":0.9979166666666828},{"name":"D#3","midi":51,"time":129.00000000000003,"velocity":0.8031496062992126,"duration":1.2520833333333599},{"name":"G4","midi":67,"time":130.2354166666667,"velocity":0.7952755905511811,"duration":0.2604166666666856},{"name":"F4","midi":65,"time":130.4895833333334,"velocity":0.7952755905511811,"duration":0.2708333333333428},{"name":"D#4","midi":63,"time":130.74375000000006,"velocity":0.7952755905511811,"duration":0.27083333333337123},{"name":"D4","midi":62,"time":130.99791666666675,"velocity":0.7952755905511811,"duration":0.27083333333337123},{"name":"D#4","midi":63,"time":131.2500000000001,"velocity":0.7952755905511811,"duration":0.2541666666666629},{"name":"F4","midi":65,"time":131.49791666666678,"velocity":0.7952755905511811,"duration":0.25833333333332575},{"name":"G#3","midi":56,"time":131.74375000000012,"velocity":0.7952755905511811,"duration":0.2541666666666629},{"name":"G3","midi":55,"time":131.99583333333345,"velocity":0.7952755905511811,"duration":0.27499999999997726},{"name":"F3","midi":53,"time":132.2562500000001,"velocity":0.7952755905511811,"duration":0.24791666666664014},{"name":"D#3","midi":51,"time":132.50000000000009,"velocity":0.7952755905511811,"duration":0.2708333333333428},{"name":"D3","midi":50,"time":132.75416666666675,"velocity":0.7952755905511811,"duration":0.26666666666667993},{"name":"C3","midi":48,"time":133.0125000000001,"velocity":0.7952755905511811,"duration":0.33541666666667425},{"name":"D3","midi":50,"time":133.25833333333344,"velocity":0.7952755905511811,"duration":0.2395833333333428},{"name":"D#3","midi":51,"time":133.5062500000001,"velocity":0.7952755905511811,"duration":0.26458333333332007},{"name":"G2","midi":43,"time":133.73333333333343,"velocity":0.7952755905511811,"duration":0.26458333333332007},{"name":"F#2","midi":42,"time":134.01041666666674,"velocity":0.7716535433070866,"duration":0.4937500000000057},{"name":"G2","midi":43,"time":134.50000000000009,"velocity":0.7401574803149606,"duration":0.49166666666667425},{"name":"C3","midi":48,"time":135.00208333333342,"velocity":0.7086614173228346,"duration":0.3958333333333428},{"name":"A2","midi":45,"time":135.4937500000001,"velocity":0.6771653543307087,"duration":0.3479166666666629},{"name":"D3","midi":50,"time":136.01041666666674,"velocity":0.6456692913385826,"duration":0.6125000000000114},{"name":"D#4","midi":63,"time":136.74583333333342,"velocity":0.6220472440944882,"duration":0.2708333333333144},{"name":"D4","midi":62,"time":137.00625000000008,"velocity":0.6220472440944882,"duration":0.23749999999998295},{"name":"C4","midi":60,"time":137.2520833333334,"velocity":0.6220472440944882,"duration":0.2541666666666629},{"name":"A#3","midi":58,"time":137.5020833333334,"velocity":0.6220472440944882,"duration":0.25833333333332575},{"name":"A3","midi":57,"time":137.74791666666673,"velocity":0.6220472440944882,"duration":0.27916666666666856},{"name":"A#3","midi":58,"time":138.00625000000005,"velocity":0.6220472440944882,"duration":0.2541666666666629},{"name":"C4","midi":60,"time":138.25416666666672,"velocity":0.6299212598425197,"duration":0.23749999999998295},{"name":"D4","midi":62,"time":138.50208333333336,"velocity":0.6535433070866141,"duration":0.25208333333333144},{"name":"A#3","midi":58,"time":138.75625000000002,"velocity":0.6692913385826772,"duration":0.26666666666667993},{"name":"A3","midi":57,"time":139.0041666666667,"velocity":0.6850393700787402,"duration":0.24166666666667425},{"name":"G3","midi":55,"time":139.25208333333336,"velocity":0.7086614173228346,"duration":0.2541666666666629},{"name":"F#3","midi":54,"time":139.4979166666667,"velocity":0.7244094488188977,"duration":0.25},{"name":"E3","midi":52,"time":139.74375000000003,"velocity":0.7401574803149606,"duration":0.27291666666667425},{"name":"F#3","midi":54,"time":139.9979166666667,"velocity":0.7637795275590551,"duration":0.25833333333332575},{"name":"G3","midi":55,"time":140.24375000000003,"velocity":0.7795275590551181,"duration":0.25},{"name":"A3","midi":57,"time":140.4916666666667,"velocity":0.7952755905511811,"duration":0.2395833333333428},{"name":"D#3","midi":51,"time":140.73750000000004,"velocity":0.8188976377952756,"duration":0.28125},{"name":"D3","midi":50,"time":140.9979166666667,"velocity":0.8346456692913385,"duration":0.26666666666667993},{"name":"C3","midi":48,"time":141.25416666666672,"velocity":0.8503937007874016,"duration":0.24791666666664014},{"name":"A#2","midi":46,"time":141.49583333333337,"velocity":0.8740157480314961,"duration":0.24375000000000568},{"name":"A2","midi":45,"time":141.7416666666667,"velocity":0.889763779527559,"duration":0.12916666666666288},{"name":"A#2","midi":46,"time":142.01458333333338,"velocity":0.9133858267716536,"duration":0.3125},{"name":"C3","midi":48,"time":142.50833333333338,"velocity":0.9133858267716536,"duration":0.3187499999999943},{"name":"D3","midi":50,"time":143.00416666666672,"velocity":0.9212598425196851,"duration":0.3020833333333428},{"name":"D2","midi":38,"time":143.49375000000006,"velocity":0.9291338582677166,"duration":0.29791666666667993},{"name":"G2","midi":43,"time":144.00208333333342,"velocity":0.937007874015748,"duration":0.7520833333333314},{"name":"F#3","midi":54,"time":145.75625000000008,"velocity":0.8110236220472441,"duration":0.26458333333332007},{"name":"G3","midi":55,"time":146.01041666666674,"velocity":0.7952755905511811,"duration":1.625},{"name":"A#2","midi":46,"time":146.26666666666674,"velocity":0.7716535433070866,"duration":0.26458333333332007},{"name":"C3","midi":48,"time":146.5208333333334,"velocity":0.7480314960629921,"duration":0.24583333333333712},{"name":"D3","midi":50,"time":146.7708333333334,"velocity":0.7322834645669292,"duration":0.3270833333333485},{"name":"G2","midi":43,"time":147.04375000000007,"velocity":0.7086614173228346,"duration":0.625},{"name":"D3","midi":50,"time":148.01250000000007,"velocity":0.7559055118110236,"duration":1.23541666666668},{"name":"A3","midi":57,"time":149.25416666666675,"velocity":0.7559055118110236,"duration":0.2708333333333428},{"name":"A#3","midi":58,"time":149.50625000000008,"velocity":0.7559055118110236,"duration":0.23541666666667993},{"name":"C4","midi":60,"time":149.7437500000001,"velocity":0.7559055118110236,"duration":0.26249999999998863},{"name":"F3","midi":53,"time":149.9937500000001,"velocity":0.7559055118110236,"duration":0.5124999999999602},{"name":"D#3","midi":51,"time":150.4895833333334,"velocity":0.7559055118110236,"duration":0.5083333333332973},{"name":"C4","midi":60,"time":150.49375000000006,"velocity":0.7559055118110236,"duration":1.0104166666666288},{"name":"F3","midi":53,"time":150.98958333333337,"velocity":0.7559055118110236,"duration":0.518749999999983},{"name":"B3","midi":59,"time":151.49375000000003,"velocity":0.7559055118110236,"duration":0.3854166666666572},{"name":"G3","midi":55,"time":151.50625000000002,"velocity":0.7559055118110236,"duration":0.5041666666666629},{"name":"C3","midi":48,"time":152.00208333333336,"velocity":0.7559055118110236,"duration":0.2604166666666572},{"name":"C4","midi":60,"time":152.25208333333336,"velocity":0.7559055118110236,"duration":0.24374999999997726},{"name":"G3","midi":55,"time":152.50416666666666,"velocity":0.7559055118110236,"duration":0.23958333333331439},{"name":"D#3","midi":51,"time":152.73749999999998,"velocity":0.7559055118110236,"duration":0.25833333333332575},{"name":"C3","midi":48,"time":152.98958333333331,"velocity":0.7559055118110236,"duration":0.2604166666666572},{"name":"B2","midi":47,"time":153.24374999999998,"velocity":0.7559055118110236,"duration":0.25833333333332575},{"name":"C3","midi":48,"time":153.49166666666665,"velocity":0.7559055118110236,"duration":0.23333333333332007},{"name":"D3","midi":50,"time":153.73749999999995,"velocity":0.7559055118110236,"duration":0.2750000000000057},{"name":"E3","midi":52,"time":153.99374999999995,"velocity":0.7559055118110236,"duration":0.2541666666666629},{"name":"D3","midi":50,"time":154.2395833333333,"velocity":0.7637795275590551,"duration":0.2874999999999943},{"name":"C3","midi":48,"time":154.5104166666666,"velocity":0.7480314960629921,"duration":0.23750000000001137},{"name":"F3","midi":53,"time":154.75208333333327,"velocity":0.7322834645669292,"duration":0.24583333333333712},{"name":"G3","midi":55,"time":154.99999999999994,"velocity":0.7165354330708661,"duration":0.24791666666666856},{"name":"A3","midi":57,"time":155.24374999999995,"velocity":0.7007874015748031,"duration":0.2562499999999943},{"name":"A#3","midi":58,"time":155.49166666666662,"velocity":0.6850393700787402,"duration":0.26249999999998863},{"name":"C4","midi":60,"time":155.74166666666662,"velocity":0.6692913385826772,"duration":0.2541666666666629},{"name":"A3","midi":57,"time":155.99374999999995,"velocity":0.6535433070866141,"duration":0.23124999999998863},{"name":"G3","midi":55,"time":156.2354166666666,"velocity":0.6377952755905512,"duration":0.2708333333333144},{"name":"F3","midi":53,"time":156.49791666666658,"velocity":0.6377952755905512,"duration":0.20833333333331439},{"name":"A#3","midi":58,"time":157.00833333333324,"velocity":0.6377952755905512,"duration":0.26666666666667993},{"name":"D3","midi":50,"time":157.5062499999999,"velocity":0.6299212598425197,"duration":0.26458333333332007},{"name":"D#3","midi":51,"time":157.9999999999999,"velocity":0.6299212598425197,"duration":0.29583333333332007},{"name":"D#2","midi":39,"time":158.50208333333322,"velocity":0.6299212598425197,"duration":0.25},{"name":"D#3","midi":51,"time":159.00416666666655,"velocity":0.6535433070866141,"duration":0.25833333333332575},{"name":"C3","midi":48,"time":159.4958333333332,"velocity":0.6692913385826772,"duration":0.24166666666667425},{"name":"F3","midi":53,"time":159.99166666666653,"velocity":0.6850393700787402,"duration":0.25208333333333144},{"name":"F2","midi":41,"time":160.24166666666653,"velocity":0.7007874015748031,"duration":0.2645833333333485},{"name":"A2","midi":45,"time":160.4895833333332,"velocity":0.7086614173228346,"duration":0.2645833333333485},{"name":"C3","midi":48,"time":160.74166666666656,"velocity":0.7165354330708661,"duration":0.25},{"name":"D#3","midi":51,"time":160.98958333333323,"velocity":0.7244094488188977,"duration":0.2604166666666572},{"name":"G3","midi":55,"time":161.2374999999999,"velocity":0.7401574803149606,"duration":0.2729166666666458},{"name":"F3","midi":53,"time":161.49791666666655,"velocity":0.7480314960629921,"duration":0.24999999999997158},{"name":"D#3","midi":51,"time":161.74166666666653,"velocity":0.7559055118110236,"duration":0.27291666666667425},{"name":"D3","midi":50,"time":161.99791666666653,"velocity":0.7637795275590551,"duration":0.25},{"name":"C3","midi":48,"time":162.23749999999987,"velocity":0.7795275590551181,"duration":0.25208333333333144},{"name":"A#2","midi":46,"time":162.4833333333332,"velocity":0.7874015748031497,"duration":0.2604166666666572},{"name":"D#3","midi":51,"time":162.73749999999987,"velocity":0.7952755905511811,"duration":0.28125},{"name":"F3","midi":53,"time":162.99791666666653,"velocity":0.8031496062992126,"duration":0.36250000000001137},{"name":"F2","midi":41,"time":163.50624999999988,"velocity":0.7874015748031497,"duration":0.23124999999998863},{"name":"A#2","midi":46,"time":163.98749999999987,"velocity":0.7480314960629921,"duration":0.2916666666666856},{"name":"A#3","midi":58,"time":164.25416666666655,"velocity":0.7322834645669292,"duration":0.24791666666666856},{"name":"F3","midi":53,"time":164.5083333333332,"velocity":0.7086614173228346,"duration":0.2541666666666629},{"name":"D3","midi":50,"time":164.75624999999988,"velocity":0.6850393700787402,"duration":0.23333333333332007},{"name":"A#2","midi":46,"time":164.99374999999986,"velocity":0.6692913385826772,"duration":0.2541666666666629},{"name":"G2","midi":43,"time":165.24166666666653,"velocity":0.6456692913385826,"duration":0.24583333333333712},{"name":"A2","midi":45,"time":165.48541666666654,"velocity":0.6141732283464567,"duration":0.27916666666666856},{"name":"A#2","midi":46,"time":165.74791666666653,"velocity":0.6141732283464567,"duration":0.25208333333333144},{"name":"C3","midi":48,"time":165.9958333333332,"velocity":0.6141732283464567,"duration":0.2604166666666572},{"name":"A#2","midi":46,"time":166.24166666666653,"velocity":0.6141732283464567,"duration":0.2666666666666515},{"name":"A2","midi":45,"time":166.4958333333332,"velocity":0.6141732283464567,"duration":0.25},{"name":"D3","midi":50,"time":166.74374999999986,"velocity":0.6141732283464567,"duration":0.23750000000001137},{"name":"E3","midi":52,"time":166.99374999999986,"velocity":0.6141732283464567,"duration":0.25208333333333144},{"name":"F#3","midi":54,"time":167.2395833333332,"velocity":0.6141732283464567,"duration":0.24583333333333712},{"name":"G3","midi":55,"time":167.48749999999987,"velocity":0.6141732283464567,"duration":0.26875000000001137},{"name":"A3","midi":57,"time":167.73749999999987,"velocity":0.6141732283464567,"duration":0.2604166666666856},{"name":"D3","midi":50,"time":167.9937499999999,"velocity":0.6141732283464567,"duration":1.2437500000000057},{"name":"G3","midi":55,"time":169.2374999999999,"velocity":0.6141732283464567,"duration":0.26249999999998863},{"name":"F#3","midi":54,"time":169.4874999999999,"velocity":0.6141732283464567,"duration":0.25208333333333144},{"name":"G3","midi":55,"time":169.7374999999999,"velocity":0.6141732283464567,"duration":0.2708333333333144},{"name":"C3","midi":48,"time":169.99791666666655,"velocity":0.6141732283464567,"duration":0.29999999999998295},{"name":"A#2","midi":46,"time":170.4958333333332,"velocity":0.6141732283464567,"duration":0.5229166666666458},{"name":"G3","midi":55,"time":170.50624999999985,"velocity":0.6141732283464567,"duration":0.9958333333333087},{"name":"C3","midi":48,"time":171.00416666666652,"velocity":0.6141732283464567,"duration":0.4791666666666572},{"name":"F#3","midi":54,"time":171.49374999999984,"velocity":0.6141732283464567,"duration":0.5124999999999886},{"name":"D3","midi":50,"time":171.50208333333316,"velocity":0.6141732283464567,"duration":0.49166666666667425},{"name":"G3","midi":55,"time":172.0041666666665,"velocity":0.6141732283464567,"duration":0.34166666666666856},{"name":"G2","midi":43,"time":172.24583333333317,"velocity":0.6220472440944882,"duration":0.26249999999998863},{"name":"A#2","midi":46,"time":172.50208333333316,"velocity":0.6377952755905512,"duration":0.26249999999998863},{"name":"D3","midi":50,"time":172.75208333333316,"velocity":0.6535433070866141,"duration":0.2604166666666572},{"name":"G3","midi":55,"time":173.00624999999982,"velocity":0.6614173228346457,"duration":0.21458333333333712},{"name":"G3","midi":55,"time":173.2479166666665,"velocity":0.6771653543307087,"duration":0.24375000000000568},{"name":"F3","midi":53,"time":173.4979166666665,"velocity":0.6929133858267716,"duration":0.2604166666666572},{"name":"D#3","midi":51,"time":173.75208333333316,"velocity":0.7007874015748031,"duration":0.25208333333333144},{"name":"D3","midi":50,"time":174.0041666666665,"velocity":0.7165354330708661,"duration":0.23124999999998863},{"name":"D#3","midi":51,"time":174.2374999999998,"velocity":0.7322834645669292,"duration":0.2562499999999943},{"name":"F3","midi":53,"time":174.49583333333314,"velocity":0.7401574803149606,"duration":0.2541666666666629},{"name":"C3","midi":48,"time":174.74583333333314,"velocity":0.7559055118110236,"duration":0.24583333333333712},{"name":"A#2","midi":46,"time":174.9999999999998,"velocity":0.7716535433070866,"duration":0.25625000000002274},{"name":"G#2","midi":44,"time":175.23541666666648,"velocity":0.7795275590551181,"duration":0.2750000000000057},{"name":"G2","midi":43,"time":175.48958333333314,"velocity":0.7795275590551181,"duration":0.25833333333332575},{"name":"F2","midi":41,"time":175.73333333333315,"velocity":0.7795275590551181,"duration":0.2729166666666458},{"name":"D#2","midi":39,"time":175.9937499999998,"velocity":0.7874015748031497,"duration":0.9979166666666686},{"name":"D#3","midi":51,"time":176.9999999999998,"velocity":0.8031496062992126,"duration":1.2520833333333599},{"name":"G4","midi":67,"time":178.23541666666648,"velocity":0.7952755905511811,"duration":0.2604166666666856},{"name":"F4","midi":65,"time":178.48958333333317,"velocity":0.7952755905511811,"duration":0.2708333333333428},{"name":"D#4","midi":63,"time":178.74374999999984,"velocity":0.7952755905511811,"duration":0.27083333333337123},{"name":"D4","midi":62,"time":178.99791666666653,"velocity":0.7952755905511811,"duration":0.27083333333337123},{"name":"D#4","midi":63,"time":179.2499999999999,"velocity":0.7952755905511811,"duration":0.2541666666666629},{"name":"F4","midi":65,"time":179.49791666666655,"velocity":0.7952755905511811,"duration":0.25833333333332575},{"name":"G#3","midi":56,"time":179.7437499999999,"velocity":0.7952755905511811,"duration":0.2541666666666629},{"name":"G3","midi":55,"time":179.99583333333322,"velocity":0.7952755905511811,"duration":0.27499999999997726},{"name":"F3","midi":53,"time":180.25624999999988,"velocity":0.7952755905511811,"duration":0.24791666666664014},{"name":"D#3","midi":51,"time":180.49999999999986,"velocity":0.7952755905511811,"duration":0.2708333333333428},{"name":"D3","midi":50,"time":180.75416666666652,"velocity":0.7952755905511811,"duration":0.26666666666667993},{"name":"C3","midi":48,"time":181.01249999999987,"velocity":0.7952755905511811,"duration":0.33541666666667425},{"name":"D3","midi":50,"time":181.2583333333332,"velocity":0.7952755905511811,"duration":0.2395833333333428},{"name":"D#3","midi":51,"time":181.50624999999988,"velocity":0.7952755905511811,"duration":0.26458333333332007},{"name":"G2","midi":43,"time":181.7333333333332,"velocity":0.7952755905511811,"duration":0.26458333333332007},{"name":"F#2","midi":42,"time":182.01041666666652,"velocity":0.7716535433070866,"duration":0.4937500000000057},{"name":"G2","midi":43,"time":182.49999999999986,"velocity":0.7401574803149606,"duration":0.49166666666667425},{"name":"C3","midi":48,"time":183.0020833333332,"velocity":0.7086614173228346,"duration":0.3958333333333428},{"name":"A2","midi":45,"time":183.49374999999986,"velocity":0.6771653543307087,"duration":0.3479166666666629},{"name":"D3","midi":50,"time":184.01041666666652,"velocity":0.6456692913385826,"duration":0.6125000000000114},{"name":"D#4","midi":63,"time":184.7458333333332,"velocity":0.6220472440944882,"duration":0.2708333333333144},{"name":"D4","midi":62,"time":185.00624999999985,"velocity":0.6220472440944882,"duration":0.23749999999998295},{"name":"C4","midi":60,"time":185.25208333333316,"velocity":0.6220472440944882,"duration":0.2541666666666629},{"name":"A#3","midi":58,"time":185.50208333333316,"velocity":0.6220472440944882,"duration":0.25833333333332575},{"name":"A3","midi":57,"time":185.7479166666665,"velocity":0.6220472440944882,"duration":0.27916666666666856},{"name":"A#3","midi":58,"time":186.00624999999982,"velocity":0.6220472440944882,"duration":0.2541666666666629},{"name":"C4","midi":60,"time":186.2541666666665,"velocity":0.6299212598425197,"duration":0.23749999999998295},{"name":"D4","midi":62,"time":186.50208333333313,"velocity":0.6535433070866141,"duration":0.25208333333333144},{"name":"A#3","midi":58,"time":186.7562499999998,"velocity":0.6692913385826772,"duration":0.26666666666667993},{"name":"A3","midi":57,"time":187.00416666666646,"velocity":0.6850393700787402,"duration":0.24166666666667425},{"name":"G3","midi":55,"time":187.25208333333313,"velocity":0.7086614173228346,"duration":0.2541666666666629},{"name":"F#3","midi":54,"time":187.49791666666647,"velocity":0.7244094488188977,"duration":0.25},{"name":"E3","midi":52,"time":187.7437499999998,"velocity":0.7401574803149606,"duration":0.27291666666667425},{"name":"F#3","midi":54,"time":187.99791666666647,"velocity":0.7637795275590551,"duration":0.25833333333332575},{"name":"G3","midi":55,"time":188.2437499999998,"velocity":0.7795275590551181,"duration":0.25},{"name":"A3","midi":57,"time":188.49166666666648,"velocity":0.7952755905511811,"duration":0.2395833333333428},{"name":"D#3","midi":51,"time":188.7374999999998,"velocity":0.8188976377952756,"duration":0.28125},{"name":"D3","midi":50,"time":188.99791666666647,"velocity":0.8346456692913385,"duration":0.26666666666667993},{"name":"C3","midi":48,"time":189.2541666666665,"velocity":0.8503937007874016,"duration":0.24791666666664014},{"name":"A#2","midi":46,"time":189.49583333333314,"velocity":0.8740157480314961,"duration":0.24375000000000568},{"name":"A2","midi":45,"time":189.74166666666648,"velocity":0.889763779527559,"duration":0.12916666666666288},{"name":"A#2","midi":46,"time":190.01458333333315,"velocity":0.9133858267716536,"duration":0.3125},{"name":"C3","midi":48,"time":190.50833333333316,"velocity":0.9133858267716536,"duration":0.3187499999999943},{"name":"D3","midi":50,"time":191.0041666666665,"velocity":0.9212598425196851,"duration":0.3020833333333428},{"name":"D2","midi":38,"time":191.49374999999984,"velocity":0.9291338582677166,"duration":0.29791666666667993},{"name":"G2","midi":43,"time":192.0020833333332,"velocity":0.937007874015748,"duration":0.7520833333333314},{"name":"F#3","midi":54,"time":193.75624999999985,"velocity":0.8110236220472441,"duration":0.26458333333332007},{"name":"G3","midi":55,"time":194.01041666666652,"velocity":0.7952755905511811,"duration":1.6041666666666856},{"name":"A#2","midi":46,"time":194.2666666666665,"velocity":0.7716535433070866,"duration":0.26458333333332007},{"name":"C3","midi":48,"time":194.52083333333317,"velocity":0.7480314960629921,"duration":0.24583333333333712},{"name":"D3","midi":50,"time":194.77083333333317,"velocity":0.7322834645669292,"duration":0.3270833333333485},{"name":"G2","midi":43,"time":195.04374999999985,"velocity":0.7086614173228346,"duration":0.6041666666666856}],"controlChanges":{"7":[{"number":7,"time":0,"value":0.905511811023622}],"10":[{"number":10,"time":0,"value":0.3700787401574803}]},"id":2,"name":"seq. by David Siu  dss@po.cwru.edu","instrumentNumber":6,"instrument":"harpsichord","instrumentFamily":"piano","channelNumber":0,"isPercussion":false}]}