{"header":{"PPQ":384,"timeSignature":[4,4],"bpm":120,"name":"--------"},"startTime":0,"duration":390.12499999999983,"tracks":[{"startTime":0,"duration":0,"length":0,"notes":[],"controlChanges":{},"id":0,"name":"--------"},{"startTime":0.08333333333333333,"duration":390.12499999999983,"length":2085,"notes":[{"name":"C#3","midi":49,"time":0.08333333333333333,"velocity":0.84251968503937,"duration":4.936197916666665},{"name":"G#4","midi":68,"time":0.08333333333333333,"velocity":0.84251968503937,"duration":2.122395833333333},{"name":"F#4","midi":66,"time":0.4153645833333333,"velocity":0.84251968503937,"duration":0.3177083333333333},{"name":"E4","midi":64,"time":0.7421875,"velocity":0.84251968503937,"duration":0.36458333333333326},{"name":"D#4","midi":63,"time":1.07421875,"velocity":0.84251968503937,"duration":0.31770833333333326},{"name":"E4","midi":64,"time":1.3997395833333333,"velocity":0.84251968503937,"duration":0.6393229166666667},{"name":"C#4","midi":61,"time":1.7356770833333333,"velocity":0.84251968503937,"duration":0.31510416666666674},{"name":"E4","midi":64,"time":2.05859375,"velocity":0.84251968503937,"duration":1.3124999999999996},{"name":"G#4","midi":68,"time":2.2213541666666665,"velocity":0.84251968503937,"duration":1.1432291666666665},{"name":"C#5","midi":73,"time":2.3854166666666665,"velocity":0.84251968503937,"duration":0.6822916666666665},{"name":"B4","midi":71,"time":3.0651041666666665,"velocity":0.84251968503937,"duration":0.3072916666666665},{"name":"A4","midi":69,"time":3.372395833333333,"velocity":0.84251968503937,"duration":0.654947916666667},{"name":"F#4","midi":66,"time":3.372395833333333,"velocity":0.84251968503937,"duration":0.654947916666667},{"name":"G#3","midi":56,"time":4.03125,"velocity":0.84251968503937,"duration":0.32552083333333304},{"name":"E4","midi":64,"time":4.03125,"velocity":0.84251968503937,"duration":3.2877604166666625},{"name":"A4","midi":69,"time":4.03125,"velocity":0.84251968503937,"duration":0.7395833333333321},{"name":"F#3","midi":54,"time":4.361979166666666,"velocity":0.84251968503937,"duration":0.31770833333333304},{"name":"E3","midi":52,"time":4.688802083333332,"velocity":0.84251968503937,"duration":0.32552083333333304},{"name":"G#4","midi":68,"time":4.765624999999999,"velocity":0.84251968503937,"duration":0.13020833333333304},{"name":"A4","midi":69,"time":4.891927083333332,"velocity":0.84251968503937,"duration":0.13020833333333215},{"name":"G#4","midi":68,"time":5.018229166666665,"velocity":0.84251968503937,"duration":2.3255208333333304},{"name":"D#3","midi":51,"time":5.020833333333331,"velocity":0.84251968503937,"duration":0.31770833333333304},{"name":"E3","midi":52,"time":5.346354166666664,"velocity":0.84251968503937,"duration":0.32552083333333304},{"name":"C#3","midi":49,"time":5.675781249999997,"velocity":0.84251968503937,"duration":2.2942708333333313},{"name":"E3","midi":52,"time":6.00520833333333,"velocity":0.84251968503937,"duration":0.25130208333333304},{"name":"G#3","midi":56,"time":6.16927083333333,"velocity":0.84251968503937,"duration":0.25130208333333304},{"name":"C#4","midi":61,"time":6.33333333333333,"velocity":0.84251968503937,"duration":0.6549479166666661},{"name":"B3","midi":59,"time":6.9921874999999964,"velocity":0.84251968503937,"duration":0.32552083333333304},{"name":"A3","midi":57,"time":7.320312499999996,"velocity":0.84251968503937,"duration":0.6549479166666661},{"name":"F#4","midi":66,"time":7.320312499999996,"velocity":0.84251968503937,"duration":0.6549479166666661},{"name":"C3","midi":48,"time":7.979166666666662,"velocity":0.84251968503937,"duration":3.286458333333335},{"name":"G#3","midi":56,"time":7.979166666666662,"velocity":0.84251968503937,"duration":3.286458333333335},{"name":"D#5","midi":75,"time":7.979166666666662,"velocity":0.84251968503937,"duration":2.122395833333335},{"name":"C#5","midi":73,"time":8.31119791666666,"velocity":0.84251968503937,"duration":0.3177083333333339},{"name":"C5","midi":72,"time":8.636718749999995,"velocity":0.84251968503937,"duration":0.3255208333333339},{"name":"A#4","midi":70,"time":8.968749999999995,"velocity":0.84251968503937,"duration":0.3177083333333339},{"name":"C5","midi":72,"time":9.294270833333329,"velocity":0.84251968503937,"duration":0.6380208333333339},{"name":"G#4","midi":68,"time":9.623697916666663,"velocity":0.84251968503937,"duration":0.31640625},{"name":"G#4","midi":68,"time":9.951822916666663,"velocity":0.84251968503937,"duration":1.3125},{"name":"D#5","midi":75,"time":10.117187499999996,"velocity":0.84251968503937,"duration":1.143229166666666},{"name":"G#5","midi":80,"time":10.281249999999996,"velocity":0.84251968503937,"duration":0.68359375},{"name":"F#5","midi":78,"time":10.96614583333333,"velocity":0.84251968503937,"duration":0.2916666666666661},{"name":"C#3","midi":49,"time":11.268229166666663,"velocity":0.84251968503937,"duration":0.6549479166666661},{"name":"C#4","midi":61,"time":11.268229166666663,"velocity":0.84251968503937,"duration":0.6549479166666661},{"name":"C#5","midi":73,"time":11.268229166666663,"velocity":0.84251968503937,"duration":0.6549479166666661},{"name":"G#4","midi":68,"time":11.268229166666663,"velocity":0.84251968503937,"duration":0.6549479166666661},{"name":"E5","midi":76,"time":11.268229166666663,"velocity":0.84251968503937,"duration":0.6549479166666661},{"name":"G#3","midi":56,"time":11.925781249999995,"velocity":0.84251968503937,"duration":1.6432291666666696},{"name":"D#4","midi":63,"time":11.925781249999995,"velocity":0.84251968503937,"duration":0.3255208333333339},{"name":"G#4","midi":68,"time":11.925781249999995,"velocity":0.84251968503937,"duration":3.2877604166666714},{"name":"C5","midi":72,"time":12.114583333333329,"velocity":0.84251968503937,"duration":3.0898437500000036},{"name":"E5","midi":76,"time":12.255208333333329,"velocity":0.84251968503937,"duration":0.3255208333333339},{"name":"C#4","midi":61,"time":12.257812499999995,"velocity":0.84251968503937,"duration":0.3177083333333339},{"name":"C4","midi":60,"time":12.583333333333329,"velocity":0.84251968503937,"duration":0.3255208333333339},{"name":"D#5","midi":75,"time":12.583333333333329,"velocity":0.84251968503937,"duration":2.6289062500000036},{"name":"A#3","midi":58,"time":12.915364583333329,"velocity":0.84251968503937,"duration":0.3177083333333339},{"name":"C4","midi":60,"time":13.242187499999996,"velocity":0.84251968503937,"duration":0.3255208333333339},{"name":"G#3","midi":56,"time":13.570312499999998,"velocity":0.84251968503937,"duration":4.2825520833333375},{"name":"C4","midi":60,"time":13.899739583333332,"velocity":0.84251968503937,"duration":0.16145833333333393},{"name":"D#4","midi":63,"time":14.063802083333332,"velocity":0.84251968503937,"duration":0.16145833333333393},{"name":"F#4","midi":66,"time":14.229166666666666,"velocity":0.84251968503937,"duration":0.6549479166666661},{"name":"E4","midi":64,"time":14.886718749999998,"velocity":0.84251968503937,"duration":0.3255208333333339},{"name":"D#4","midi":63,"time":15.216145833333332,"velocity":0.84251968503937,"duration":0.6549479166666661},{"name":"G#5","midi":80,"time":15.216145833333332,"velocity":0.84251968503937,"duration":0.6393229166666661},{"name":"C5","midi":72,"time":15.216145833333332,"velocity":0.84251968503937,"duration":0.6549479166666661},{"name":"G#4","midi":68,"time":15.216145833333332,"velocity":0.84251968503937,"duration":0.6549479166666661},{"name":"E4","midi":64,"time":15.873697916666664,"velocity":0.84251968503937,"duration":1.9700520833333357},{"name":"D#5","midi":75,"time":15.873697916666664,"velocity":0.84251968503937,"duration":0.16015625},{"name":"A4","midi":69,"time":15.873697916666664,"velocity":0.84251968503937,"duration":1.9687500000000036},{"name":"C#5","midi":73,"time":16.037760416666664,"velocity":0.84251968503937,"duration":0.16015625},{"name":"C5","midi":72,"time":16.203124999999996,"velocity":0.84251968503937,"duration":0.29166666666666785},{"name":"C#5","midi":73,"time":16.531249999999996,"velocity":0.84251968503937,"duration":0.32552083333333215},{"name":"E5","midi":76,"time":16.859374999999996,"velocity":0.84251968503937,"duration":0.29166666666666785},{"name":"A5","midi":81,"time":17.188802083333332,"velocity":0.84251968503937,"duration":0.14453125},{"name":"G#5","midi":80,"time":17.352864583333332,"velocity":0.84251968503937,"duration":0.14453125},{"name":"A5","midi":81,"time":17.515625,"velocity":0.84251968503937,"duration":0.6601562500000036},{"name":"F#3","midi":54,"time":17.846354166666668,"velocity":0.84251968503937,"duration":3.9440104166666643},{"name":"D#4","midi":63,"time":17.846354166666668,"velocity":0.84251968503937,"duration":3.9440104166666643},{"name":"A4","midi":69,"time":17.846354166666668,"velocity":0.84251968503937,"duration":1.9687500000000036},{"name":"G#5","midi":80,"time":18.18229166666667,"velocity":0.84251968503937,"duration":0.29166666666666785},{"name":"F#5","midi":78,"time":18.50520833333334,"velocity":0.84251968503937,"duration":0.33984375},{"name":"E5","midi":76,"time":18.839843750000007,"velocity":0.84251968503937,"duration":0.2916666666666643},{"name":"D#5","midi":75,"time":19.16276041666667,"velocity":0.84251968503937,"duration":0.33984375},{"name":"C#5","midi":73,"time":19.49869791666667,"velocity":0.84251968503937,"duration":0.29166666666666785},{"name":"G#4","midi":68,"time":19.820312500000004,"velocity":0.84251968503937,"duration":1.9687499999999964},{"name":"C#5","midi":73,"time":19.820312500000004,"velocity":0.84251968503937,"duration":0.16145833333333215},{"name":"B4","midi":71,"time":19.984375000000004,"velocity":0.84251968503937,"duration":0.16145833333333215},{"name":"A4","midi":69,"time":20.149739583333336,"velocity":0.84251968503937,"duration":0.32552083333333215},{"name":"B4","midi":71,"time":20.479166666666668,"velocity":0.84251968503937,"duration":0.32552083333333215},{"name":"D#5","midi":75,"time":20.807291666666668,"velocity":0.84251968503937,"duration":0.32552083333333215},{"name":"G#5","midi":80,"time":21.13671875,"velocity":0.84251968503937,"duration":0.1484375},{"name":"F#5","midi":78,"time":21.30078125,"velocity":0.84251968503937,"duration":0.1484375},{"name":"G#5","midi":80,"time":21.466145833333332,"velocity":0.84251968503937,"duration":0.6497395833333321},{"name":"E3","midi":52,"time":21.794270833333332,"velocity":0.84251968503937,"duration":3.944010416666657},{"name":"C#4","midi":61,"time":21.794270833333332,"velocity":0.84251968503937,"duration":3.944010416666657},{"name":"G#4","midi":68,"time":21.794270833333332,"velocity":0.84251968503937,"duration":1.96875},{"name":"F#5","midi":78,"time":22.130208333333332,"velocity":0.84251968503937,"duration":0.29166666666666785},{"name":"E5","midi":76,"time":22.453125,"velocity":0.84251968503937,"duration":0.33984375},{"name":"D#5","midi":75,"time":22.787760416666668,"velocity":0.84251968503937,"duration":0.2916666666666643},{"name":"C#5","midi":73,"time":23.110677083333332,"velocity":0.84251968503937,"duration":0.33984375},{"name":"B4","midi":71,"time":23.44921875,"velocity":0.84251968503937,"duration":0.2916666666666643},{"name":"F#4","midi":66,"time":23.772135416666664,"velocity":0.84251968503937,"duration":1.968749999999993},{"name":"B4","midi":71,"time":23.774739583333332,"velocity":0.84251968503937,"duration":0.16145833333333215},{"name":"A4","midi":69,"time":23.936197916666664,"velocity":0.84251968503937,"duration":0.16145833333333215},{"name":"G#4","midi":68,"time":24.097656249999996,"velocity":0.84251968503937,"duration":0.32552083333333215},{"name":"A4","midi":69,"time":24.42447916666666,"velocity":0.84251968503937,"duration":0.32552083333333215},{"name":"C#5","midi":73,"time":24.755208333333325,"velocity":0.84251968503937,"duration":0.32552083333333215},{"name":"D#5","midi":75,"time":25.083333333333325,"velocity":0.84251968503937,"duration":0.328125},{"name":"E5","midi":76,"time":25.261718749999993,"velocity":0.84251968503937,"duration":0.16145833333333215},{"name":"F#5","midi":78,"time":25.440104166666657,"velocity":0.84251968503937,"duration":0.6276041666666643},{"name":"B3","midi":59,"time":25.74218749999999,"velocity":0.84251968503937,"duration":1.9700520833333321},{"name":"D#3","midi":51,"time":25.74218749999999,"velocity":0.84251968503937,"duration":1.9700520833333321},{"name":"F#4","midi":66,"time":25.74218749999999,"velocity":0.84251968503937,"duration":1.96875},{"name":"E5","midi":76,"time":26.076822916666654,"velocity":0.84251968503937,"duration":0.29166666666666785},{"name":"D#5","midi":75,"time":26.39973958333332,"velocity":0.84251968503937,"duration":0.33984375},{"name":"C#5","midi":73,"time":26.73567708333332,"velocity":0.84251968503937,"duration":0.29166666666666785},{"name":"B4","midi":71,"time":27.057291666666657,"velocity":0.84251968503937,"duration":0.40625},{"name":"A4","midi":69,"time":27.459635416666657,"velocity":0.84251968503937,"duration":0.20703125},{"name":"E3","midi":52,"time":27.71614583333332,"velocity":0.84251968503937,"duration":1.6432291666666643},{"name":"E4","midi":64,"time":27.71614583333332,"velocity":0.84251968503937,"duration":1.9687499999999964},{"name":"A4","midi":69,"time":27.71614583333332,"velocity":0.84251968503937,"duration":0.6848958333333321},{"name":"A3","midi":57,"time":28.04687499999999,"velocity":0.84251968503937,"duration":0.31770833333333215},{"name":"G#3","midi":56,"time":28.373697916666654,"velocity":0.84251968503937,"duration":0.3255208333333357},{"name":"G#4","midi":68,"time":28.39973958333332,"velocity":0.84251968503937,"duration":0.16145833333333215},{"name":"A4","midi":69,"time":28.53255208333332,"velocity":0.84251968503937,"duration":0.16796875},{"name":"G#4","midi":68,"time":28.68098958333332,"velocity":0.84251968503937,"duration":1.9257812499999964},{"name":"F#3","midi":54,"time":28.705729166666654,"velocity":0.84251968503937,"duration":0.31770833333333215},{"name":"G#3","midi":56,"time":29.031249999999986,"velocity":0.84251968503937,"duration":0.32552083333333215},{"name":"E3","midi":52,"time":29.360677083333318,"velocity":0.84251968503937,"duration":2.294270833333332},{"name":"G#3","midi":56,"time":29.69010416666665,"velocity":0.84251968503937,"duration":0.16145833333333215},{"name":"B3","midi":59,"time":29.85416666666665,"velocity":0.84251968503937,"duration":0.16145833333333215},{"name":"E4","midi":64,"time":30.01822916666665,"velocity":0.84251968503937,"duration":0.6549479166666679},{"name":"D#4","midi":63,"time":30.675781249999986,"velocity":0.84251968503937,"duration":0.32552083333333215},{"name":"F#4","midi":66,"time":30.675781249999986,"velocity":0.84251968503937,"duration":0.30078125},{"name":"C#4","midi":61,"time":31.003906249999986,"velocity":0.84251968503937,"duration":0.6549479166666643},{"name":"A4","midi":69,"time":31.003906249999986,"velocity":0.84251968503937,"duration":0.16145833333333215},{"name":"G#4","midi":68,"time":31.169270833333318,"velocity":0.84251968503937,"duration":0.16145833333333215},{"name":"A4","midi":69,"time":31.333333333333318,"velocity":0.84251968503937,"duration":0.6549479166666643},{"name":"C4","midi":60,"time":31.66276041666665,"velocity":0.84251968503937,"duration":1.9700520833333215},{"name":"D#3","midi":51,"time":31.66276041666665,"velocity":0.84251968503937,"duration":3.940104166666643},{"name":"G#4","midi":68,"time":32.00260416666665,"velocity":0.84251968503937,"duration":0.2916666666666643},{"name":"F#4","midi":66,"time":32.32031249999998,"velocity":0.84251968503937,"duration":0.3372395833333357},{"name":"E4","midi":64,"time":32.661458333333314,"velocity":0.84251968503937,"duration":0.2916666666666643},{"name":"F#4","midi":66,"time":32.97916666666664,"velocity":0.84251968503937,"duration":0.6510416666666643},{"name":"D#4","midi":63,"time":33.30729166666664,"velocity":0.84251968503937,"duration":0.6640624999999929},{"name":"G#3","midi":56,"time":33.63671874999997,"velocity":0.84251968503937,"duration":0.9830729166666643},{"name":"D#5","midi":75,"time":33.63671874999997,"velocity":0.84251968503937,"duration":0.3372395833333286},{"name":"C#5","midi":73,"time":33.9778645833333,"velocity":0.84251968503937,"duration":0.2916666666666643},{"name":"C5","midi":72,"time":34.2942708333333,"velocity":0.84251968503937,"duration":0.3372395833333357},{"name":"F#3","midi":54,"time":34.63281249999997,"velocity":0.84251968503937,"duration":0.3255208333333286},{"name":"A#4","midi":70,"time":34.635416666666636,"velocity":0.84251968503937,"duration":0.2916666666666643},{"name":"G#3","midi":56,"time":34.953124999999964,"velocity":0.84251968503937,"duration":1.6432291666666643},{"name":"C5","midi":72,"time":34.953124999999964,"velocity":0.84251968503937,"duration":0.6510416666666643},{"name":"G#4","midi":68,"time":35.292968749999964,"velocity":0.84251968503937,"duration":0.2916666666666643},{"name":"C#3","midi":49,"time":35.61067708333329,"velocity":0.84251968503937,"duration":2.945312499999993},{"name":"A5","midi":81,"time":35.61328124999996,"velocity":0.84251968503937,"duration":0.3372395833333357},{"name":"G#5","midi":80,"time":35.95182291666663,"velocity":0.84251968503937,"duration":0.2916666666666643},{"name":"F#5","midi":78,"time":36.26822916666663,"velocity":0.84251968503937,"duration":0.3372395833333357},{"name":"C#4","midi":61,"time":36.6067708333333,"velocity":0.84251968503937,"duration":0.3255208333333286},{"name":"E5","midi":76,"time":36.609374999999964,"velocity":0.84251968503937,"duration":0.2916666666666643},{"name":"D#4","midi":63,"time":36.92708333333329,"velocity":0.84251968503937,"duration":0.6549479166666643},{"name":"F#5","midi":78,"time":36.92708333333329,"velocity":0.84251968503937,"duration":0.6510416666666643},{"name":"D#5","midi":75,"time":37.26692708333329,"velocity":0.84251968503937,"duration":0.2916666666666643},{"name":"C#4","midi":61,"time":37.58333333333329,"velocity":0.84251968503937,"duration":1.6249999999999858},{"name":"E5","midi":76,"time":37.58333333333329,"velocity":0.84251968503937,"duration":2.945312499999986},{"name":"D#5","midi":75,"time":37.92578124999996,"velocity":0.84251968503937,"duration":0.2916666666666643},{"name":"C#5","midi":73,"time":38.24088541666662,"velocity":0.84251968503937,"duration":0.3372395833333286},{"name":"D#3","midi":51,"time":38.579427083333286,"velocity":0.84251968503937,"duration":0.3255208333333286},{"name":"B4","midi":71,"time":38.58203124999995,"velocity":0.84251968503937,"duration":0.2916666666666643},{"name":"E3","midi":52,"time":38.89973958333328,"velocity":0.84251968503937,"duration":0.6549479166666643},{"name":"C#5","midi":73,"time":38.89973958333328,"velocity":0.84251968503937,"duration":0.3372395833333357},{"name":"A#4","midi":70,"time":39.23958333333328,"velocity":0.84251968503937,"duration":0.2916666666666643},{"name":"A#2","midi":46,"time":39.55729166666661,"velocity":0.84251968503937,"duration":0.3255208333333357},{"name":"G#4","midi":68,"time":39.55729166666661,"velocity":0.84251968503937,"duration":0.3372395833333357},{"name":"G4","midi":67,"time":39.88671874999994,"velocity":0.84251968503937,"duration":0.6549479166666714},{"name":"D#3","midi":51,"time":39.88932291666661,"velocity":0.84251968503937,"duration":0.3177083333333357},{"name":"C#3","midi":49,"time":40.21484374999994,"velocity":0.84251968503937,"duration":0.3255208333333357},{"name":"D#5","midi":75,"time":40.54427083333328,"velocity":0.84251968503937,"duration":0.3255208333333357},{"name":"G#4","midi":68,"time":40.54427083333328,"velocity":0.84251968503937,"duration":0.3255208333333357},{"name":"B2","midi":47,"time":40.54687499999994,"velocity":0.84251968503937,"duration":0.3177083333333357},{"name":"C#3","midi":49,"time":40.873697916666615,"velocity":0.84251968503937,"duration":0.3255208333333357},{"name":"A#4","midi":70,"time":40.873697916666615,"velocity":0.84251968503937,"duration":0.1614583333333357},{"name":"C#5","midi":73,"time":40.873697916666615,"velocity":0.84251968503937,"duration":0.6497395833333357},{"name":"G#4","midi":68,"time":41.03906249999995,"velocity":0.84251968503937,"duration":0.1614583333333357},{"name":"A#4","midi":70,"time":41.20312499999995,"velocity":0.84251968503937,"duration":0.3255208333333357},{"name":"A#2","midi":46,"time":41.205729166666615,"velocity":0.84251968503937,"duration":0.3177083333333357},{"name":"G2","midi":43,"time":41.53124999999995,"velocity":0.84251968503937,"duration":0.3255208333333357},{"name":"C#5","midi":73,"time":41.53124999999995,"velocity":0.84251968503937,"duration":0.9830729166666714},{"name":"D#4","midi":63,"time":41.53124999999995,"velocity":0.84251968503937,"duration":0.9830729166666714},{"name":"B2","midi":47,"time":41.86328124999995,"velocity":0.84251968503937,"duration":0.3177083333333357},{"name":"A#2","midi":46,"time":42.19010416666662,"velocity":0.84251968503937,"duration":0.3255208333333357},{"name":"B4","midi":71,"time":42.51822916666662,"velocity":0.84251968503937,"duration":0.3255208333333357},{"name":"F4","midi":65,"time":42.51822916666662,"velocity":0.84251968503937,"duration":0.3255208333333357},{"name":"G#2","midi":44,"time":42.520833333333286,"velocity":0.84251968503937,"duration":0.3177083333333357},{"name":"A#2","midi":46,"time":42.84765624999996,"velocity":0.84251968503937,"duration":0.3255208333333357},{"name":"A#4","midi":70,"time":42.84765624999996,"velocity":0.84251968503937,"duration":0.9830729166666714},{"name":"G4","midi":67,"time":42.84765624999996,"velocity":0.84251968503937,"duration":0.1614583333333357},{"name":"F4","midi":65,"time":43.01171874999996,"velocity":0.84251968503937,"duration":0.1614583333333357},{"name":"G4","midi":67,"time":43.17708333333329,"velocity":0.84251968503937,"duration":0.6549479166666714},{"name":"G2","midi":43,"time":43.17968749999996,"velocity":0.84251968503937,"duration":0.3177083333333357},{"name":"C#2","midi":37,"time":43.50520833333329,"velocity":0.84251968503937,"duration":2.2994791666666714},{"name":"G#4","midi":68,"time":43.84635416666663,"velocity":0.84251968503937,"duration":0.2916666666666643},{"name":"G4","midi":67,"time":44.16406249999996,"velocity":0.84251968503937,"duration":0.3372395833333357},{"name":"F4","midi":65,"time":44.50390624999996,"velocity":0.84251968503937,"duration":0.2916666666666643},{"name":"G4","midi":67,"time":44.82031249999996,"velocity":0.84251968503937,"duration":0.63671875},{"name":"D#4","midi":63,"time":45.16276041666662,"velocity":0.84251968503937,"duration":1.5625000000000142},{"name":"G4","midi":67,"time":45.47786458333329,"velocity":0.84251968503937,"duration":1.3125000000000142},{"name":"A#4","midi":70,"time":45.64322916666663,"velocity":0.84251968503937,"duration":0.32421875},{"name":"D#5","midi":75,"time":45.80729166666663,"velocity":0.84251968503937,"duration":1.9687500000000142},{"name":"C#3","midi":49,"time":45.80989583333329,"velocity":0.84251968503937,"duration":0.3177083333333357},{"name":"B2","midi":47,"time":46.136718749999964,"velocity":0.84251968503937,"duration":0.3255208333333357},{"name":"A#2","midi":46,"time":46.467447916666636,"velocity":0.84251968503937,"duration":0.3177083333333357},{"name":"B2","midi":47,"time":46.79427083333331,"velocity":0.84251968503937,"duration":0.3255208333333357},{"name":"G#4","midi":68,"time":46.79427083333331,"velocity":0.84251968503937,"duration":2.619791666666657},{"name":"G#2","midi":44,"time":47.12630208333331,"velocity":0.84251968503937,"duration":0.3177083333333357},{"name":"E3","midi":52,"time":47.45182291666664,"velocity":0.84251968503937,"duration":0.1614583333333357},{"name":"D#3","midi":51,"time":47.61718749999998,"velocity":0.84251968503937,"duration":0.1614583333333286},{"name":"E3","midi":52,"time":47.78124999999997,"velocity":0.84251968503937,"duration":0.6549479166666643},{"name":"C5","midi":72,"time":47.79296874999997,"velocity":0.84251968503937,"duration":0.2916666666666643},{"name":"C#5","midi":73,"time":48.1106770833333,"velocity":0.84251968503937,"duration":0.3372395833333357},{"name":"D#3","midi":51,"time":48.447916666666636,"velocity":0.84251968503937,"duration":0.3177083333333286},{"name":"D#5","midi":75,"time":48.4505208333333,"velocity":0.84251968503937,"duration":0.2916666666666643},{"name":"C#3","midi":49,"time":48.76822916666663,"velocity":0.84251968503937,"duration":0.6549479166666714},{"name":"E5","midi":76,"time":48.76822916666663,"velocity":0.84251968503937,"duration":0.3372395833333357},{"name":"D#5","midi":75,"time":49.109374999999964,"velocity":0.84251968503937,"duration":0.2916666666666643},{"name":"D#3","midi":51,"time":49.4270833333333,"velocity":0.84251968503937,"duration":1.312499999999993},{"name":"C#5","midi":73,"time":49.4270833333333,"velocity":0.84251968503937,"duration":0.3372395833333286},{"name":"G#4","midi":68,"time":49.4270833333333,"velocity":0.84251968503937,"duration":1.312499999999993},{"name":"B4","midi":71,"time":49.761718749999964,"velocity":0.84251968503937,"duration":0.6549479166666643},{"name":"C#5","midi":73,"time":50.425781249999964,"velocity":0.84251968503937,"duration":0.2916666666666643},{"name":"D#2","midi":39,"time":50.74218749999996,"velocity":0.84251968503937,"duration":0.6549479166666643},{"name":"B4","midi":71,"time":50.74218749999996,"velocity":0.84251968503937,"duration":0.20703125},{"name":"G4","midi":67,"time":50.74218749999996,"velocity":0.84251968503937,"duration":0.6497395833333286},{"name":"A#4","midi":70,"time":50.94661458333329,"velocity":0.84251968503937,"duration":0.1614583333333286},{"name":"G#4","midi":68,"time":51.09765624999996,"velocity":0.84251968503937,"duration":0.1614583333333286},{"name":"A#4","midi":70,"time":51.24869791666662,"velocity":0.84251968503937,"duration":0.2018229166666643},{"name":"G#2","midi":44,"time":51.40104166666662,"velocity":0.84251968503937,"duration":0.3255208333333286},{"name":"B3","midi":59,"time":51.40104166666662,"velocity":0.84251968503937,"duration":3.285156250000014},{"name":"D#4","midi":63,"time":51.58984374999995,"velocity":0.84251968503937,"duration":3.089843750000014},{"name":"C#3","midi":49,"time":51.731770833333286,"velocity":0.84251968503937,"duration":0.3177083333333286},{"name":"G#4","midi":68,"time":51.78124999999995,"velocity":0.84251968503937,"duration":2.898437500000014},{"name":"B2","midi":47,"time":52.057291666666615,"velocity":0.84251968503937,"duration":0.3255208333333357},{"name":"A#2","midi":46,"time":52.389322916666615,"velocity":0.84251968503937,"duration":0.3177083333333357},{"name":"B2","midi":47,"time":52.71484374999995,"velocity":0.84251968503937,"duration":0.3255208333333357},{"name":"G#2","midi":44,"time":53.04687499999995,"velocity":0.84251968503937,"duration":0.3177083333333357},{"name":"B2","midi":47,"time":53.37369791666662,"velocity":0.84251968503937,"duration":0.3255208333333357},{"name":"D#3","midi":51,"time":53.70442708333329,"velocity":0.84251968503937,"duration":0.3177083333333357},{"name":"G#3","midi":56,"time":54.031249999999964,"velocity":0.84251968503937,"duration":0.4791666666666643},{"name":"E3","midi":52,"time":54.363281249999964,"velocity":0.84251968503937,"duration":0.3177083333333357},{"name":"F#3","midi":54,"time":54.6888020833333,"velocity":0.84251968503937,"duration":0.6497395833333357},{"name":"B4","midi":71,"time":54.6888020833333,"velocity":0.84251968503937,"duration":0.1614583333333357},{"name":"A#4","midi":70,"time":54.8333333333333,"velocity":0.84251968503937,"duration":0.1614583333333357},{"name":"B4","midi":71,"time":54.9778645833333,"velocity":0.84251968503937,"duration":0.6861979166666714},{"name":"D#3","midi":51,"time":55.0208333333333,"velocity":0.84251968503937,"duration":0.3177083333333357},{"name":"E3","midi":52,"time":55.34765624999997,"velocity":0.84251968503937,"duration":1.9687500000000142},{"name":"C#3","midi":49,"time":55.34765624999997,"velocity":0.84251968503937,"duration":0.3255208333333357},{"name":"D#3","midi":51,"time":55.67838541666664,"velocity":0.84251968503937,"duration":0.3177083333333357},{"name":"G#4","midi":68,"time":55.68749999999998,"velocity":0.84251968503937,"duration":0.2916666666666643},{"name":"C#3","midi":49,"time":56.005208333333314,"velocity":0.84251968503937,"duration":0.3255208333333357},{"name":"A#4","midi":70,"time":56.005208333333314,"velocity":0.84251968503937,"duration":0.3372395833333357},{"name":"B2","midi":47,"time":56.337239583333314,"velocity":0.84251968503937,"duration":0.3177083333333357},{"name":"C#5","midi":73,"time":56.34635416666665,"velocity":0.84251968503937,"duration":0.2916666666666643},{"name":"C#3","midi":49,"time":56.66276041666665,"velocity":0.84251968503937,"duration":0.3255208333333357},{"name":"E5","midi":76,"time":56.66276041666665,"velocity":0.84251968503937,"duration":0.9830729166666714},{"name":"A#2","midi":46,"time":56.992187499999986,"velocity":0.84251968503937,"duration":1.6627604166666714},{"name":"F#3","midi":54,"time":57.32161458333332,"velocity":0.84251968503937,"duration":0.1614583333333286},{"name":"E3","midi":52,"time":57.476562499999986,"velocity":0.84251968503937,"duration":0.1614583333333357},{"name":"F#3","midi":54,"time":57.636718749999986,"velocity":0.84251968503937,"duration":0.6692708333333428},{"name":"D#5","midi":75,"time":57.65104166666666,"velocity":0.84251968503937,"duration":0.3255208333333357},{"name":"E5","midi":76,"time":57.97916666666666,"velocity":0.84251968503937,"duration":0.3255208333333357},{"name":"G#3","midi":56,"time":58.31770833333333,"velocity":0.84251968503937,"duration":0.3255208333333286},{"name":"G#5","midi":80,"time":58.32031249999999,"velocity":0.84251968503937,"duration":0.2916666666666643},{"name":"A#3","midi":58,"time":58.63802083333332,"velocity":0.84251968503937,"duration":0.6328125},{"name":"F#5","midi":78,"time":58.63802083333332,"velocity":0.84251968503937,"duration":0.6549479166666643},{"name":"B3","midi":59,"time":59.29427083333332,"velocity":0.84251968503937,"duration":0.1614583333333357},{"name":"D#5","midi":75,"time":59.29427083333332,"velocity":0.84251968503937,"duration":3.2877604166666785},{"name":"A#3","midi":58,"time":59.45963541666666,"velocity":0.84251968503937,"duration":0.1614583333333357},{"name":"B3","midi":59,"time":59.62369791666666,"velocity":0.84251968503937,"duration":1.9700520833333357},{"name":"C#5","midi":73,"time":59.63671874999999,"velocity":0.84251968503937,"duration":0.2916666666666643},{"name":"B4","midi":71,"time":59.95182291666666,"velocity":0.84251968503937,"duration":0.3372395833333357},{"name":"A#4","midi":70,"time":60.29296874999999,"velocity":0.84251968503937,"duration":0.2916666666666643},{"name":"B4","midi":71,"time":60.61067708333332,"velocity":0.84251968503937,"duration":1.9700520833333428},{"name":"F#4","midi":66,"time":60.93880208333332,"velocity":0.84251968503937,"duration":1.636718750000007},{"name":"D#4","midi":63,"time":61.26822916666666,"velocity":0.84251968503937,"duration":1.312500000000007},{"name":"B3","midi":59,"time":61.61067708333333,"velocity":0.84251968503937,"duration":0.3177083333333357},{"name":"A3","midi":57,"time":61.936197916666664,"velocity":0.84251968503937,"duration":0.3255208333333357},{"name":"G#3","midi":56,"time":62.268229166666664,"velocity":0.84251968503937,"duration":0.3177083333333357},{"name":"A3","midi":57,"time":62.595052083333336,"velocity":0.84251968503937,"duration":0.3255208333333357},{"name":"C#5","midi":73,"time":62.595052083333336,"velocity":0.84251968503937,"duration":0.9830729166666785},{"name":"F#3","midi":54,"time":62.92578125000001,"velocity":0.84251968503937,"duration":0.3177083333333357},{"name":"D#3","midi":51,"time":63.25260416666668,"velocity":0.84251968503937,"duration":0.3255208333333357},{"name":"E3","midi":52,"time":63.59114583333335,"velocity":0.84251968503937,"duration":0.3177083333333286},{"name":"A#4","midi":70,"time":63.593750000000014,"velocity":0.84251968503937,"duration":0.2916666666666643},{"name":"D#3","midi":51,"time":63.910156250000014,"velocity":0.84251968503937,"duration":0.3255208333333286},{"name":"C5","midi":72,"time":63.910156250000014,"velocity":0.84251968503937,"duration":0.3372395833333286},{"name":"C#3","midi":49,"time":64.24869791666667,"velocity":0.84251968503937,"duration":0.3177083333333428},{"name":"D#5","midi":75,"time":64.25130208333334,"velocity":0.84251968503937,"duration":0.2916666666666714},{"name":"D#3","midi":51,"time":64.56901041666669,"velocity":0.84251968503937,"duration":1.9687500000000142},{"name":"F#5","midi":78,"time":64.56901041666669,"velocity":0.84251968503937,"duration":0.3372395833333286},{"name":"C3","midi":48,"time":64.90625000000001,"velocity":0.84251968503937,"duration":0.3177083333333428},{"name":"G#5","midi":80,"time":64.90885416666669,"velocity":0.84251968503937,"duration":0.2916666666666714},{"name":"G#2","midi":44,"time":65.22656250000003,"velocity":0.84251968503937,"duration":0.9830729166666714},{"name":"A5","midi":81,"time":65.22656250000003,"velocity":0.84251968503937,"duration":0.3372395833333286},{"name":"G#5","midi":80,"time":65.56770833333336,"velocity":0.84251968503937,"duration":0.2916666666666714},{"name":"F#5","midi":78,"time":65.8854166666667,"velocity":0.84251968503937,"duration":0.3372395833333286},{"name":"A#2","midi":46,"time":66.22265625000003,"velocity":0.84251968503937,"duration":0.3255208333333286},{"name":"E5","midi":76,"time":66.2252604166667,"velocity":0.84251968503937,"duration":0.2916666666666714},{"name":"C3","midi":48,"time":66.54296875000003,"velocity":0.84251968503937,"duration":0.6549479166666714},{"name":"F#5","midi":78,"time":66.54296875000003,"velocity":0.84251968503937,"duration":0.4270833333333286},{"name":"D#5","midi":75,"time":66.88411458333336,"velocity":0.84251968503937,"duration":0.2916666666666714},{"name":"C#3","midi":49,"time":67.19921875000003,"velocity":0.84251968503937,"duration":2.324218750000014},{"name":"E5","midi":76,"time":67.19921875000003,"velocity":0.84251968503937,"duration":4.282552083333329},{"name":"D#5","midi":75,"time":67.5416666666667,"velocity":0.84251968503937,"duration":0.2916666666666714},{"name":"C#5","midi":73,"time":67.8580729166667,"velocity":0.84251968503937,"duration":0.3372395833333286},{"name":"C5","midi":72,"time":68.1979166666667,"velocity":0.84251968503937,"duration":0.2916666666666714},{"name":"C#5","midi":73,"time":68.51562500000004,"velocity":0.84251968503937,"duration":2.619791666666643},{"name":"G#4","midi":68,"time":68.84505208333337,"velocity":0.84251968503937,"duration":2.2942708333333144},{"name":"E4","midi":64,"time":69.17317708333337,"velocity":0.84251968503937,"duration":2.0442708333333144},{"name":"D#3","midi":51,"time":69.52734375000004,"velocity":0.84251968503937,"duration":0.3177083333333286},{"name":"E3","midi":52,"time":69.85286458333337,"velocity":0.84251968503937,"duration":0.3255208333333286},{"name":"F#3","midi":54,"time":70.18359375000003,"velocity":0.84251968503937,"duration":0.3177083333333286},{"name":"G#3","midi":56,"time":70.51041666666669,"velocity":0.84251968503937,"duration":0.3255208333333286},{"name":"A3","midi":57,"time":70.84244791666669,"velocity":0.84251968503937,"duration":0.3177083333333286},{"name":"B3","midi":59,"time":71.16796875000001,"velocity":0.84251968503937,"duration":1.6432291666666856},{"name":"D5","midi":74,"time":71.50911458333336,"velocity":0.84251968503937,"duration":0.2916666666666714},{"name":"F5","midi":77,"time":71.8268229166667,"velocity":0.84251968503937,"duration":0.3372395833333286},{"name":"C#4","midi":61,"time":72.16406250000003,"velocity":0.84251968503937,"duration":0.3255208333333428},{"name":"G#5","midi":80,"time":72.1666666666667,"velocity":0.84251968503937,"duration":0.2916666666666714},{"name":"B5","midi":83,"time":72.48437500000004,"velocity":0.84251968503937,"duration":0.9830729166666572},{"name":"D4","midi":62,"time":72.48437500000004,"velocity":0.84251968503937,"duration":1.3125},{"name":"B3","midi":59,"time":72.81380208333337,"velocity":0.84251968503937,"duration":0.3255208333333286},{"name":"F3","midi":53,"time":73.14192708333337,"velocity":0.84251968503937,"duration":1.9687500000000142},{"name":"D5","midi":74,"time":73.4830729166667,"velocity":0.84251968503937,"duration":0.2916666666666714},{"name":"C#5","midi":73,"time":73.80078125000004,"velocity":0.84251968503937,"duration":0.3372395833333286},{"name":"G#3","midi":56,"time":73.80078125000004,"velocity":0.84251968503937,"duration":0.6549479166666714},{"name":"B4","midi":71,"time":74.14192708333337,"velocity":0.84251968503937,"duration":0.2916666666666714},{"name":"A4","midi":69,"time":74.45833333333339,"velocity":0.84251968503937,"duration":0.3372395833333286},{"name":"C#4","midi":61,"time":74.45833333333339,"velocity":0.84251968503937,"duration":0.9830729166666572},{"name":"G#4","midi":68,"time":74.79947916666671,"velocity":0.84251968503937,"duration":0.2916666666666714},{"name":"A4","midi":69,"time":75.11718750000006,"velocity":0.84251968503937,"duration":0.1614583333333286},{"name":"F#3","midi":54,"time":75.11718750000006,"velocity":0.84251968503937,"duration":1.6341145833333144},{"name":"G#4","midi":68,"time":75.26692708333339,"velocity":0.84251968503937,"duration":0.1614583333333286},{"name":"A4","midi":69,"time":75.42057291666671,"velocity":0.84251968503937,"duration":1.9700520833333144},{"name":"B3","midi":59,"time":75.44791666666671,"velocity":0.84251968503937,"duration":0.3177083333333286},{"name":"A3","midi":57,"time":75.77473958333337,"velocity":0.84251968503937,"duration":0.3255208333333286},{"name":"G#3","midi":56,"time":76.10677083333337,"velocity":0.84251968503937,"duration":0.3177083333333286},{"name":"A3","midi":57,"time":76.43098958333337,"velocity":0.84251968503937,"duration":0.3255208333333286},{"name":"F#3","midi":54,"time":76.7604166666667,"velocity":0.84251968503937,"duration":2.2942708333333286},{"name":"F#4","midi":66,"time":77.08984375000003,"velocity":0.84251968503937,"duration":0.9830729166666714},{"name":"G#4","midi":68,"time":77.42968750000003,"velocity":0.84251968503937,"duration":0.2916666666666714},{"name":"A4","midi":69,"time":77.74739583333337,"velocity":0.84251968503937,"duration":0.3372395833333286},{"name":"E4","midi":64,"time":78.08593750000003,"velocity":0.84251968503937,"duration":0.3255208333333286},{"name":"C#5","midi":73,"time":78.0885416666667,"velocity":0.84251968503937,"duration":0.2916666666666714},{"name":"D#4","midi":63,"time":78.4049479166667,"velocity":0.84251968503937,"duration":0.3255208333333286},{"name":"F#5","midi":78,"time":78.40625000000003,"velocity":0.84251968503937,"duration":0.9830729166666572},{"name":"C#4","midi":61,"time":78.73437500000003,"velocity":0.84251968503937,"duration":0.3255208333333286},{"name":"G#3","midi":56,"time":79.06380208333336,"velocity":0.84251968503937,"duration":0.9830729166666714},{"name":"B3","midi":59,"time":79.06380208333336,"velocity":0.84251968503937,"duration":0.9830729166666714},{"name":"E5","midi":76,"time":79.40364583333336,"velocity":0.84251968503937,"duration":0.2916666666666714},{"name":"D#5","midi":75,"time":79.7213541666667,"velocity":0.84251968503937,"duration":0.3372395833333286},{"name":"A3","midi":57,"time":80.05989583333336,"velocity":0.84251968503937,"duration":0.3177083333333428},{"name":"C#4","midi":61,"time":80.05989583333336,"velocity":0.84251968503937,"duration":0.3255208333333428},{"name":"C#5","midi":73,"time":80.06250000000003,"velocity":0.84251968503937,"duration":0.2916666666666714},{"name":"B4","midi":71,"time":80.37890625000003,"velocity":0.84251968503937,"duration":0.3372395833333428},{"name":"D#4","midi":63,"time":80.37890625000003,"velocity":0.84251968503937,"duration":1.641927083333357},{"name":"B3","midi":59,"time":80.37890625000003,"velocity":0.84251968503937,"duration":0.6549479166666856},{"name":"A4","midi":69,"time":80.72005208333337,"velocity":0.84251968503937,"duration":0.2916666666666714},{"name":"A4","midi":69,"time":81.03776041666671,"velocity":0.84251968503937,"duration":0.1627604166666714},{"name":"E3","midi":52,"time":81.03776041666671,"velocity":0.84251968503937,"duration":2.945312500000014},{"name":"G#4","midi":68,"time":81.20182291666671,"velocity":0.84251968503937,"duration":0.1627604166666714},{"name":"F#4","midi":66,"time":81.36718750000006,"velocity":0.84251968503937,"duration":0.3255208333333286},{"name":"G#4","midi":68,"time":81.69401041666671,"velocity":0.84251968503937,"duration":0.3411458333333286},{"name":"G#3","midi":56,"time":82.03385416666671,"velocity":0.84251968503937,"duration":0.3255208333333286},{"name":"B4","midi":71,"time":82.03645833333337,"velocity":0.84251968503937,"duration":0.2916666666666714},{"name":"E5","midi":76,"time":82.35416666666671,"velocity":0.84251968503937,"duration":0.9830729166666714},{"name":"C#4","midi":61,"time":82.35416666666671,"velocity":0.84251968503937,"duration":0.3255208333333286},{"name":"C4","midi":60,"time":82.68229166666671,"velocity":0.84251968503937,"duration":0.3255208333333286},{"name":"C#4","midi":61,"time":83.01302083333337,"velocity":0.84251968503937,"duration":0.1471354166666714},{"name":"C4","midi":60,"time":83.16406250000004,"velocity":0.84251968503937,"duration":0.1471354166666714},{"name":"C#4","midi":61,"time":83.31510416666671,"velocity":0.84251968503937,"duration":2.6197916666667},{"name":"D#5","midi":75,"time":83.35286458333339,"velocity":0.84251968503937,"duration":0.2916666666666714},{"name":"C#5","midi":73,"time":83.66796875000006,"velocity":0.84251968503937,"duration":0.3372395833333428},{"name":"D#3","midi":51,"time":84.00781250000007,"velocity":0.84251968503937,"duration":0.3177083333333428},{"name":"B4","midi":71,"time":84.01041666666674,"velocity":0.84251968503937,"duration":0.2916666666666714},{"name":"A4","midi":69,"time":84.32682291666674,"velocity":0.84251968503937,"duration":0.3372395833333286},{"name":"C#3","midi":49,"time":84.32682291666674,"velocity":0.84251968503937,"duration":0.6549479166666714},{"name":"G#4","midi":68,"time":84.66666666666674,"velocity":0.84251968503937,"duration":0.2916666666666714},{"name":"G#4","midi":68,"time":84.98437500000009,"velocity":0.84251968503937,"duration":0.1614583333333286},{"name":"D#3","midi":51,"time":84.98437500000009,"velocity":0.84251968503937,"duration":1.96875},{"name":"F#4","midi":66,"time":85.15625000000009,"velocity":0.84251968503937,"duration":0.1614583333333286},{"name":"E4","midi":64,"time":85.31380208333341,"velocity":0.84251968503937,"duration":0.3255208333333286},{"name":"F#4","midi":66,"time":85.64192708333341,"velocity":0.84251968503937,"duration":0.3255208333333286},{"name":"C4","midi":60,"time":85.98046875000007,"velocity":0.84251968503937,"duration":0.3255208333333428},{"name":"A4","midi":69,"time":85.98307291666674,"velocity":0.84251968503937,"duration":0.2916666666666714},{"name":"C5","midi":72,"time":86.30078125000009,"velocity":0.84251968503937,"duration":0.32421875},{"name":"C#4","midi":61,"time":86.30078125000009,"velocity":0.84251968503937,"duration":0.3255208333333286},{"name":"C#5","midi":73,"time":86.47395833333341,"velocity":0.84251968503937,"duration":0.32421875},{"name":"A#3","midi":58,"time":86.62890625000009,"velocity":0.84251968503937,"duration":0.3255208333333286},{"name":"D#5","midi":75,"time":86.64453125000009,"velocity":0.84251968503937,"duration":0.6354166666666572},{"name":"C4","midi":60,"time":86.95833333333341,"velocity":0.84251968503937,"duration":0.1614583333333286},{"name":"G#3","midi":56,"time":86.95833333333341,"velocity":0.84251968503937,"duration":0.9830729166666572},{"name":"A#3","midi":58,"time":87.12239583333341,"velocity":0.84251968503937,"duration":0.1614583333333286},{"name":"C4","midi":60,"time":87.28776041666674,"velocity":0.84251968503937,"duration":0.6549479166666572},{"name":"C#5","midi":73,"time":87.29947916666674,"velocity":0.84251968503937,"duration":0.2916666666666714},{"name":"C5","midi":72,"time":87.61588541666674,"velocity":0.84251968503937,"duration":0.3372395833333286},{"name":"A#3","midi":58,"time":87.9544270833334,"velocity":0.84251968503937,"duration":0.3177083333333428},{"name":"C#4","midi":61,"time":87.9544270833334,"velocity":0.84251968503937,"duration":0.3255208333333428},{"name":"A#4","midi":70,"time":87.95703125000007,"velocity":0.84251968503937,"duration":0.2916666666666714},{"name":"G#4","midi":68,"time":88.27473958333341,"velocity":0.84251968503937,"duration":0.3372395833333286},{"name":"D#4","midi":63,"time":88.27473958333341,"velocity":0.84251968503937,"duration":0.6549479166666714},{"name":"C4","midi":60,"time":88.27473958333341,"velocity":0.84251968503937,"duration":0.6549479166666714},{"name":"F#4","midi":66,"time":88.61458333333341,"velocity":0.84251968503937,"duration":0.2916666666666714},{"name":"F#4","midi":66,"time":88.93229166666676,"velocity":0.84251968503937,"duration":0.1692708333333286},{"name":"C#4","midi":61,"time":88.93229166666676,"velocity":0.84251968503937,"duration":1.96875},{"name":"E4","midi":64,"time":89.11197916666676,"velocity":0.84251968503937,"duration":0.1640625},{"name":"D#4","midi":63,"time":89.28906250000009,"velocity":0.84251968503937,"duration":0.2916666666666714},{"name":"E4","midi":64,"time":89.58723958333343,"velocity":0.84251968503937,"duration":0.3255208333333286},{"name":"G#4","midi":68,"time":89.91927083333343,"velocity":0.84251968503937,"duration":0.3255208333333286},{"name":"B3","midi":59,"time":89.9218750000001,"velocity":0.84251968503937,"duration":0.3177083333333286},{"name":"C#5","midi":73,"time":90.24869791666676,"velocity":0.84251968503937,"duration":0.9830729166666714},{"name":"A3","midi":57,"time":90.24869791666676,"velocity":0.84251968503937,"duration":0.3255208333333286},{"name":"G#3","midi":56,"time":90.58072916666676,"velocity":0.84251968503937,"duration":0.3177083333333286},{"name":"F#3","midi":54,"time":90.90494791666676,"velocity":0.84251968503937,"duration":2.9453125000000284},{"name":"A3","midi":57,"time":90.90494791666676,"velocity":0.84251968503937,"duration":0.9830729166666714},{"name":"B4","midi":71,"time":91.24739583333343,"velocity":0.84251968503937,"duration":0.2916666666666714},{"name":"A4","midi":69,"time":91.56380208333343,"velocity":0.84251968503937,"duration":0.3372395833333286},{"name":"B3","midi":59,"time":91.90104166666676,"velocity":0.84251968503937,"duration":0.3177083333333428},{"name":"G#4","midi":68,"time":91.90364583333343,"velocity":0.84251968503937,"duration":0.2916666666666714},{"name":"A4","midi":69,"time":92.22135416666677,"velocity":0.84251968503937,"duration":0.6510416666666714},{"name":"C#4","midi":61,"time":92.22135416666677,"velocity":0.84251968503937,"duration":0.6549479166666714},{"name":"F#4","midi":66,"time":92.5625000000001,"velocity":0.84251968503937,"duration":0.2916666666666714},{"name":"F#5","midi":78,"time":92.87890625000011,"velocity":0.84251968503937,"duration":0.3372395833333286},{"name":"D4","midi":62,"time":92.87890625000011,"velocity":0.84251968503937,"duration":0.1614583333333286},{"name":"C#4","midi":61,"time":93.04817708333344,"velocity":0.84251968503937,"duration":0.1614583333333286},{"name":"D4","midi":62,"time":93.21744791666677,"velocity":0.84251968503937,"duration":1.6432291666666856},{"name":"E5","midi":76,"time":93.22005208333344,"velocity":0.84251968503937,"duration":0.2916666666666714},{"name":"D5","midi":74,"time":93.53776041666679,"velocity":0.84251968503937,"duration":0.3372395833333286},{"name":"E3","midi":52,"time":93.87500000000011,"velocity":0.84251968503937,"duration":0.3177083333333428},{"name":"C#5","midi":73,"time":93.87760416666679,"velocity":0.84251968503937,"duration":0.2916666666666714},{"name":"D5","midi":74,"time":94.19531250000013,"velocity":0.84251968503937,"duration":0.6510416666666572},{"name":"F#3","midi":54,"time":94.19531250000013,"velocity":0.84251968503937,"duration":0.6458333333333286},{"name":"A4","midi":69,"time":94.53645833333346,"velocity":0.84251968503937,"duration":0.2916666666666714},{"name":"A5","midi":81,"time":94.85286458333346,"velocity":0.84251968503937,"duration":0.3372395833333286},{"name":"C4","midi":60,"time":94.85286458333346,"velocity":0.84251968503937,"duration":1.9687500000000142},{"name":"D#3","midi":51,"time":94.85286458333346,"velocity":0.84251968503937,"duration":0.9830729166666714},{"name":"G#5","midi":80,"time":95.19401041666679,"velocity":0.84251968503937,"duration":0.2916666666666714},{"name":"F#5","midi":78,"time":95.51171875000013,"velocity":0.84251968503937,"duration":0.3372395833333286},{"name":"F#3","midi":54,"time":95.84895833333346,"velocity":0.84251968503937,"duration":0.3177083333333428},{"name":"E5","midi":76,"time":95.85156250000013,"velocity":0.84251968503937,"duration":0.2916666666666714},{"name":"F#5","midi":78,"time":96.16927083333347,"velocity":0.84251968503937,"duration":0.5208333333333286},{"name":"A3","midi":57,"time":96.16927083333347,"velocity":0.84251968503937,"duration":0.9557291666666572},{"name":"D#5","midi":75,"time":96.4986979166668,"velocity":0.84251968503937,"duration":2.252604166666643},{"name":"C6","midi":84,"time":96.8268229166668,"velocity":0.84251968503937,"duration":1.3124999999999716},{"name":"F#4","midi":66,"time":96.8268229166668,"velocity":0.84251968503937,"duration":0.6497395833333286},{"name":"G#3","midi":56,"time":97.1588541666668,"velocity":0.84251968503937,"duration":0.3177083333333286},{"name":"F#3","midi":54,"time":97.48567708333346,"velocity":0.84251968503937,"duration":0.3255208333333286},{"name":"E3","midi":52,"time":97.81640625000011,"velocity":0.84251968503937,"duration":0.3177083333333286},{"name":"F#3","midi":54,"time":98.14192708333344,"velocity":0.84251968503937,"duration":0.3255208333333286},{"name":"G#5","midi":80,"time":98.47135416666677,"velocity":0.84251968503937,"duration":0.3059895833333428},{"name":"D#3","midi":51,"time":98.47395833333344,"velocity":0.84251968503937,"duration":0.3177083333333428},{"name":"D#5","midi":75,"time":98.80078125000011,"velocity":0.84251968503937,"duration":0.983072916666643},{"name":"G#5","midi":80,"time":98.80078125000011,"velocity":0.84251968503937,"duration":2.2942708333333286},{"name":"E3","midi":52,"time":98.80078125000011,"velocity":0.84251968503937,"duration":0.3255208333333286},{"name":"D#3","midi":51,"time":99.13151041666677,"velocity":0.84251968503937,"duration":0.3177083333333286},{"name":"C#3","midi":49,"time":99.45833333333343,"velocity":0.84251968503937,"duration":0.3255208333333286},{"name":"B2","midi":47,"time":99.79687500000009,"velocity":0.84251968503937,"duration":0.3177083333333428},{"name":"E5","midi":76,"time":99.79947916666676,"velocity":0.84251968503937,"duration":0.2916666666666714},{"name":"C5","midi":72,"time":100.11588541666676,"velocity":0.84251968503937,"duration":0.6549479166666714},{"name":"C#3","midi":49,"time":100.11588541666676,"velocity":0.84251968503937,"duration":0.3255208333333286},{"name":"A2","midi":45,"time":100.44531250000009,"velocity":0.84251968503937,"duration":0.3111979166666714},{"name":"C#5","midi":73,"time":100.77473958333343,"velocity":0.84251968503937,"duration":1.6432291666666856},{"name":"A3","midi":57,"time":100.77473958333343,"velocity":0.84251968503937,"duration":0.1614583333333428},{"name":"G#3","midi":56,"time":100.9335937500001,"velocity":0.84251968503937,"duration":0.1614583333333428},{"name":"A3","midi":57,"time":101.09505208333344,"velocity":0.84251968503937,"duration":1.9700520833333286},{"name":"F#5","midi":78,"time":101.11458333333344,"velocity":0.84251968503937,"duration":0.2916666666666714},{"name":"E5","midi":76,"time":101.43229166666679,"velocity":0.84251968503937,"duration":0.3372395833333286},{"name":"D#5","midi":75,"time":101.77343750000011,"velocity":0.84251968503937,"duration":0.2916666666666714},{"name":"E5","midi":76,"time":102.08984375000011,"velocity":0.84251968503937,"duration":0.3372395833333286},{"name":"C#5","midi":73,"time":102.41927083333344,"velocity":0.84251968503937,"duration":1.3124999999999858},{"name":"D#5","midi":75,"time":102.74869791666677,"velocity":0.84251968503937,"duration":0.1614583333333286},{"name":"E5","midi":76,"time":102.92057291666677,"velocity":0.84251968503937,"duration":0.1614583333333286},{"name":"G#3","midi":56,"time":103.0898437500001,"velocity":0.84251968503937,"duration":0.3177083333333286},{"name":"F#5","midi":78,"time":103.09244791666677,"velocity":0.84251968503937,"duration":1.9466145833333286},{"name":"F#3","midi":54,"time":103.4062500000001,"velocity":0.84251968503937,"duration":0.3255208333333286},{"name":"C5","midi":72,"time":103.73567708333343,"velocity":0.84251968503937,"duration":0.3255208333333286},{"name":"E3","midi":52,"time":103.7382812500001,"velocity":0.84251968503937,"duration":0.3177083333333286},{"name":"D#5","midi":75,"time":104.06380208333343,"velocity":0.84251968503937,"duration":0.6549479166666714},{"name":"F#3","midi":54,"time":104.06380208333343,"velocity":0.84251968503937,"duration":0.3255208333333286},{"name":"D#3","midi":51,"time":104.39322916666676,"velocity":0.84251968503937,"duration":0.3111979166666714},{"name":"G#4","midi":68,"time":104.7226562500001,"velocity":0.84251968503937,"duration":1.6432291666666714},{"name":"C4","midi":60,"time":104.7226562500001,"velocity":0.84251968503937,"duration":0.6549479166666714},{"name":"E5","midi":76,"time":105.0625000000001,"velocity":0.84251968503937,"duration":0.2916666666666714},{"name":"D#5","midi":75,"time":105.3789062500001,"velocity":0.84251968503937,"duration":0.3372395833333286},{"name":"A#3","midi":58,"time":105.3789062500001,"velocity":0.84251968503937,"duration":0.6549479166666714},{"name":"C#5","midi":73,"time":105.72005208333343,"velocity":0.84251968503937,"duration":0.2916666666666714},{"name":"D#5","midi":75,"time":106.03645833333344,"velocity":0.84251968503937,"duration":0.3372395833333286},{"name":"C4","midi":60,"time":106.03645833333344,"velocity":0.84251968503937,"duration":0.6549479166666572},{"name":"G#4","midi":68,"time":106.36588541666677,"velocity":0.84251968503937,"duration":1.6419270833333286},{"name":"E5","midi":76,"time":106.6953125000001,"velocity":0.84251968503937,"duration":0.1614583333333428},{"name":"C#4","midi":61,"time":106.6953125000001,"velocity":0.84251968503937,"duration":0.3255208333333428},{"name":"D#5","midi":75,"time":106.85416666666677,"velocity":0.84251968503937,"duration":0.1614583333333428},{"name":"E5","midi":76,"time":107.01171875000011,"velocity":0.84251968503937,"duration":1.9687499999999858},{"name":"B3","midi":59,"time":107.02734375000011,"velocity":0.84251968503937,"duration":0.3177083333333286},{"name":"A3","midi":57,"time":107.35286458333344,"velocity":0.84251968503937,"duration":0.3255208333333286},{"name":"C#5","midi":73,"time":107.68229166666677,"velocity":0.84251968503937,"duration":0.3255208333333286},{"name":"G#3","midi":56,"time":107.68489583333344,"velocity":0.84251968503937,"duration":0.3177083333333286},{"name":"F#4","midi":66,"time":108.0117187500001,"velocity":0.84251968503937,"duration":0.3255208333333286},{"name":"A3","midi":57,"time":108.0117187500001,"velocity":0.84251968503937,"duration":0.3255208333333286},{"name":"G#4","midi":68,"time":108.3398437500001,"velocity":0.84251968503937,"duration":0.3255208333333286},{"name":"F#3","midi":54,"time":108.3398437500001,"velocity":0.84251968503937,"duration":0.9830729166666714},{"name":"A4","midi":69,"time":108.66927083333343,"velocity":0.84251968503937,"duration":1.9687500000000142},{"name":"F#4","midi":66,"time":108.66927083333343,"velocity":0.84251968503937,"duration":1.3125000000000142},{"name":"D#5","midi":75,"time":109.01041666666677,"velocity":0.84251968503937,"duration":0.2916666666666714},{"name":"E5","midi":76,"time":109.32682291666677,"velocity":0.84251968503937,"duration":0.3372395833333286},{"name":"F#3","midi":54,"time":109.32682291666677,"velocity":0.84251968503937,"duration":0.6549479166666714},{"name":"F#5","midi":78,"time":109.6679687500001,"velocity":0.84251968503937,"duration":0.2916666666666714},{"name":"G#5","midi":80,"time":109.98567708333344,"velocity":0.84251968503937,"duration":0.3372395833333286},{"name":"F#4","midi":66,"time":109.98567708333344,"velocity":0.84251968503937,"duration":0.9830729166666572},{"name":"A5","midi":81,"time":110.32552083333344,"velocity":0.84251968503937,"duration":0.2916666666666714},{"name":"G#4","midi":68,"time":110.64322916666677,"velocity":0.84251968503937,"duration":1.9687499999999716},{"name":"C#5","midi":73,"time":110.64322916666677,"velocity":0.84251968503937,"duration":0.41015625},{"name":"E4","midi":64,"time":110.97526041666677,"velocity":0.84251968503937,"duration":0.3177083333333286},{"name":"C5","midi":72,"time":111.04166666666677,"velocity":0.84251968503937,"duration":0.1223958333333286},{"name":"C#5","midi":73,"time":111.1718750000001,"velocity":0.84251968503937,"duration":0.1223958333333286},{"name":"D#4","midi":63,"time":111.3007812500001,"velocity":0.84251968503937,"duration":0.3255208333333286},{"name":"C5","midi":72,"time":111.3007812500001,"velocity":0.84251968503937,"duration":0.3372395833333286},{"name":"C#4","midi":61,"time":111.6328125000001,"velocity":0.84251968503937,"duration":0.3177083333333286},{"name":"C#5","midi":73,"time":111.64192708333343,"velocity":0.84251968503937,"duration":0.2916666666666714},{"name":"D#5","midi":75,"time":111.95833333333343,"velocity":0.84251968503937,"duration":0.654947916666643},{"name":"C4","midi":60,"time":111.95833333333343,"velocity":0.84251968503937,"duration":0.3255208333333286},{"name":"A#3","midi":58,"time":112.28906250000009,"velocity":0.84251968503937,"duration":0.3177083333333286},{"name":"C4","midi":60,"time":112.61588541666674,"velocity":0.84251968503937,"duration":1.9687499999999858},{"name":"G#3","midi":56,"time":112.61588541666674,"velocity":0.84251968503937,"duration":0.3255208333333286},{"name":"C#4","midi":61,"time":112.78125000000007,"velocity":0.84251968503937,"duration":0.1614583333333286},{"name":"D#4","midi":63,"time":112.94531250000007,"velocity":0.84251968503937,"duration":1.6432291666666572},{"name":"F#3","midi":54,"time":112.94791666666674,"velocity":0.84251968503937,"duration":0.3177083333333428},{"name":"E4","midi":64,"time":113.11067708333341,"velocity":0.84251968503937,"duration":0.1614583333333428},{"name":"F#4","midi":66,"time":113.27343750000009,"velocity":0.84251968503937,"duration":1.8059895833333002},{"name":"E3","midi":52,"time":113.27343750000009,"velocity":0.84251968503937,"duration":0.3255208333333286},{"name":"D#3","midi":51,"time":113.60546875000009,"velocity":0.84251968503937,"duration":0.3177083333333286},{"name":"C#3","midi":49,"time":113.93229166666674,"velocity":0.84251968503937,"duration":0.3255208333333286},{"name":"B2","midi":47,"time":114.2630208333334,"velocity":0.84251968503937,"duration":0.3177083333333286},{"name":"A2","midi":45,"time":114.58984375000006,"velocity":0.84251968503937,"duration":0.9830729166666714},{"name":"E4","midi":64,"time":114.93098958333339,"velocity":0.84251968503937,"duration":0.2916666666666714},{"name":"D#4","midi":63,"time":115.24869791666673,"velocity":0.84251968503937,"duration":0.3372395833333286},{"name":"B2","midi":47,"time":115.58593750000006,"velocity":0.84251968503937,"duration":0.3177083333333428},{"name":"C#4","midi":61,"time":115.58854166666673,"velocity":0.84251968503937,"duration":0.2916666666666714},{"name":"D#4","midi":63,"time":115.90625000000007,"velocity":0.84251968503937,"duration":0.625},{"name":"G#2","midi":44,"time":115.90625000000007,"velocity":0.84251968503937,"duration":0.6549479166666714},{"name":"C4","midi":60,"time":116.2473958333334,"velocity":0.84251968503937,"duration":0.2916666666666714},{"name":"A4","midi":69,"time":116.56380208333341,"velocity":0.84251968503937,"duration":0.9830729166666572},{"name":"F#2","midi":42,"time":116.56380208333341,"velocity":0.84251968503937,"duration":0.9830729166666572},{"name":"G#4","midi":68,"time":116.89322916666674,"velocity":0.84251968503937,"duration":0.3177083333333286},{"name":"F#4","midi":66,"time":117.22265625000007,"velocity":0.84251968503937,"duration":0.3255208333333286},{"name":"E4","midi":64,"time":117.55078125000007,"velocity":0.84251968503937,"duration":0.3177083333333428},{"name":"G#2","midi":44,"time":117.55338541666674,"velocity":0.84251968503937,"duration":0.3177083333333428},{"name":"F#4","midi":66,"time":117.88020833333341,"velocity":0.84251968503937,"duration":0.625},{"name":"E2","midi":40,"time":117.88020833333341,"velocity":0.84251968503937,"duration":0.6549479166666714},{"name":"D#4","midi":63,"time":118.20963541666674,"velocity":0.84251968503937,"duration":0.3177083333333428},{"name":"C5","midi":72,"time":118.53776041666676,"velocity":0.84251968503937,"duration":0.9830729166666572},{"name":"D#2","midi":39,"time":118.53776041666676,"velocity":0.84251968503937,"duration":0.9830729166666572},{"name":"A4","midi":69,"time":118.86718750000009,"velocity":0.84251968503937,"duration":0.3255208333333286},{"name":"G#4","midi":68,"time":119.19531250000009,"velocity":0.84251968503937,"duration":0.3255208333333286},{"name":"F#4","midi":66,"time":119.52343750000009,"velocity":0.84251968503937,"duration":0.3255208333333286},{"name":"E2","midi":40,"time":119.52604166666676,"velocity":0.84251968503937,"duration":0.3177083333333286},{"name":"G#4","midi":68,"time":119.85286458333341,"velocity":0.84251968503937,"duration":0.625},{"name":"F#2","midi":42,"time":119.85286458333341,"velocity":0.84251968503937,"duration":0.6549479166666714},{"name":"D#4","midi":63,"time":120.18229166666674,"velocity":0.84251968503937,"duration":0.3255208333333428},{"name":"D#5","midi":75,"time":120.51041666666676,"velocity":0.84251968503937,"duration":0.9830729166666572},{"name":"C2","midi":36,"time":120.51041666666676,"velocity":0.84251968503937,"duration":0.9830729166666572},{"name":"C#5","midi":73,"time":120.83984375000009,"velocity":0.84251968503937,"duration":0.3255208333333286},{"name":"C5","midi":72,"time":121.16927083333341,"velocity":0.84251968503937,"duration":0.3255208333333286},{"name":"A#4","midi":70,"time":121.49739583333341,"velocity":0.84251968503937,"duration":0.3255208333333286},{"name":"D#2","midi":39,"time":121.50000000000009,"velocity":0.84251968503937,"duration":0.3177083333333286},{"name":"C5","midi":72,"time":121.82682291666674,"velocity":0.84251968503937,"duration":0.33984375},{"name":"F#2","midi":42,"time":121.82682291666674,"velocity":0.84251968503937,"duration":0.6549479166666714},{"name":"G#4","midi":68,"time":122.15625000000007,"velocity":0.84251968503937,"duration":0.6250000000000142},{"name":"G#5","midi":80,"time":122.48437500000009,"velocity":0.84251968503937,"duration":0.6940104166666572},{"name":"E2","midi":40,"time":122.48437500000009,"velocity":0.84251968503937,"duration":0.3658854166666572},{"name":"E3","midi":52,"time":122.84895833333341,"velocity":0.84251968503937,"duration":0.3424479166666572},{"name":"F#5","midi":78,"time":123.1966145833334,"velocity":0.84251968503937,"duration":0.3255208333333286},{"name":"F#3","midi":54,"time":123.1966145833334,"velocity":0.84251968503937,"duration":0.3255208333333286},{"name":"G#3","midi":56,"time":123.5286458333334,"velocity":0.84251968503937,"duration":0.3177083333333286},{"name":"E5","midi":76,"time":123.53776041666673,"velocity":0.84251968503937,"duration":0.2916666666666714},{"name":"D#5","midi":75,"time":123.85416666666673,"velocity":0.84251968503937,"duration":0.3255208333333286},{"name":"A3","midi":57,"time":123.85416666666673,"velocity":0.84251968503937,"duration":0.3255208333333286},{"name":"F#3","midi":54,"time":124.18619791666673,"velocity":0.84251968503937,"duration":0.3177083333333286},{"name":"C#5","midi":73,"time":124.19531250000006,"velocity":0.84251968503937,"duration":0.2916666666666714},{"name":"C5","midi":72,"time":124.51302083333339,"velocity":0.84251968503937,"duration":0.3255208333333286},{"name":"D#3","midi":51,"time":124.51302083333339,"velocity":0.84251968503937,"duration":0.3255208333333286},{"name":"E3","midi":52,"time":124.84375000000004,"velocity":0.84251968503937,"duration":0.3177083333333286},{"name":"C#5","midi":73,"time":124.85286458333337,"velocity":0.84251968503937,"duration":0.2916666666666714},{"name":"D#5","midi":75,"time":125.16927083333337,"velocity":0.84251968503937,"duration":0.3255208333333286},{"name":"F#3","midi":54,"time":125.16927083333337,"velocity":0.84251968503937,"duration":0.3255208333333286},{"name":"D#3","midi":51,"time":125.50130208333337,"velocity":0.84251968503937,"duration":0.3177083333333428},{"name":"F#5","midi":78,"time":125.51171875000004,"velocity":0.84251968503937,"duration":0.2916666666666714},{"name":"A4","midi":69,"time":125.82682291666671,"velocity":0.84251968503937,"duration":0.1614583333333286},{"name":"C3","midi":48,"time":125.82682291666671,"velocity":0.84251968503937,"duration":0.3255208333333286},{"name":"G#4","midi":68,"time":125.99218750000004,"velocity":0.84251968503937,"duration":0.1614583333333286},{"name":"A4","midi":69,"time":126.15625000000004,"velocity":0.84251968503937,"duration":0.6497395833333286},{"name":"C#3","midi":49,"time":126.15885416666671,"velocity":0.84251968503937,"duration":0.3177083333333286},{"name":"D#3","midi":51,"time":126.48567708333337,"velocity":0.84251968503937,"duration":0.3255208333333286},{"name":"G#4","midi":68,"time":126.81380208333337,"velocity":0.84251968503937,"duration":0.3177083333333428},{"name":"C3","midi":48,"time":126.81640625000004,"velocity":0.84251968503937,"duration":0.3177083333333428},{"name":"A4","midi":69,"time":127.14322916666671,"velocity":0.84251968503937,"duration":0.3255208333333286},{"name":"G#2","midi":44,"time":127.14322916666671,"velocity":0.84251968503937,"duration":0.3255208333333286},{"name":"F#4","midi":66,"time":127.47265625000004,"velocity":0.84251968503937,"duration":0.23828125},{"name":"A#2","midi":46,"time":127.47526041666671,"velocity":0.84251968503937,"duration":0.328125},{"name":"F#5","midi":78,"time":127.80729166666671,"velocity":0.84251968503937,"duration":0.1471354166666714},{"name":"C3","midi":48,"time":127.81119791666671,"velocity":0.84251968503937,"duration":0.3255208333333428},{"name":"G#5","midi":80,"time":127.96223958333339,"velocity":0.84251968503937,"duration":0.1471354166666714},{"name":"A5","midi":81,"time":128.1184895833334,"velocity":0.84251968503937,"duration":1.018229166666714},{"name":"C#3","midi":49,"time":128.1432291666667,"velocity":0.84251968503937,"duration":0.3177083333333428},{"name":"D#3","midi":51,"time":128.4700520833334,"velocity":0.84251968503937,"duration":0.3255208333333428},{"name":"E3","midi":52,"time":128.80078125000009,"velocity":0.84251968503937,"duration":0.3177083333333428},{"name":"G#5","midi":80,"time":129.12760416666677,"velocity":0.84251968503937,"duration":0.3255208333333428},{"name":"F#3","midi":54,"time":129.12760416666677,"velocity":0.84251968503937,"duration":0.3255208333333428},{"name":"G#3","midi":56,"time":129.45963541666677,"velocity":0.84251968503937,"duration":0.3177083333333428},{"name":"F#5","midi":78,"time":129.4687500000001,"velocity":0.84251968503937,"duration":0.2916666666666572},{"name":"E5","midi":76,"time":129.7851562500001,"velocity":0.84251968503937,"duration":0.3255208333333428},{"name":"A#3","midi":58,"time":129.7851562500001,"velocity":0.84251968503937,"duration":0.3255208333333428},{"name":"C4","midi":60,"time":130.1171875000001,"velocity":0.84251968503937,"duration":0.3177083333333428},{"name":"D#5","midi":75,"time":130.12630208333346,"velocity":0.84251968503937,"duration":0.2916666666666572},{"name":"E5","midi":76,"time":130.45442708333346,"velocity":0.84251968503937,"duration":1.6953125000000284},{"name":"C#4","midi":61,"time":130.45442708333346,"velocity":0.84251968503937,"duration":0.3372395833333428},{"name":"D#5","midi":75,"time":130.81380208333346,"velocity":0.84251968503937,"duration":0.3372395833333428},{"name":"B3","midi":59,"time":130.8151041666668,"velocity":0.84251968503937,"duration":0.3268229166666572},{"name":"A3","midi":57,"time":131.15364583333346,"velocity":0.84251968503937,"duration":0.3372395833333428},{"name":"C#5","midi":73,"time":131.15364583333346,"velocity":0.84251968503937,"duration":0.3372395833333428},{"name":"C5","midi":72,"time":131.49218750000014,"velocity":0.84251968503937,"duration":0.3372395833333428},{"name":"G#3","midi":56,"time":131.49348958333348,"velocity":0.84251968503937,"duration":0.33203125},{"name":"A3","midi":57,"time":131.83072916666683,"velocity":0.84251968503937,"duration":0.3372395833333144},{"name":"C#5","midi":73,"time":131.83072916666683,"velocity":0.84251968503937,"duration":0.6705729166666572},{"name":"F#3","midi":54,"time":132.17187500000014,"velocity":0.84251968503937,"duration":0.3372395833333428},{"name":"A5","midi":81,"time":132.17187500000014,"velocity":0.84251968503937,"duration":0.3372395833333428},{"name":"G#3","midi":56,"time":132.51041666666683,"velocity":0.84251968503937,"duration":2.3684895833333144},{"name":"C#5","midi":73,"time":132.51041666666683,"velocity":0.84251968503937,"duration":1.35546875},{"name":"D#5","midi":75,"time":132.67968750000017,"velocity":0.84251968503937,"duration":0.1666666666666572},{"name":"E5","midi":76,"time":132.85026041666683,"velocity":0.84251968503937,"duration":0.6770833333333428},{"name":"F#5","midi":78,"time":133.52994791666683,"velocity":0.84251968503937,"duration":0.3372395833333428},{"name":"G#2","midi":44,"time":133.8684895833335,"velocity":0.84251968503937,"duration":0.6757812499999432},{"name":"E5","midi":76,"time":133.8684895833335,"velocity":0.84251968503937,"duration":0.1666666666666572},{"name":"C5","midi":72,"time":133.8684895833335,"velocity":0.84251968503937,"duration":0.1666666666666572},{"name":"D#5","midi":75,"time":134.03906250000017,"velocity":0.84251968503937,"duration":0.1666666666666572},{"name":"C#5","midi":73,"time":134.20833333333348,"velocity":0.84251968503937,"duration":0.1666666666666572},{"name":"D#5","midi":75,"time":134.3776041666668,"velocity":0.84251968503937,"duration":0.1666666666666572},{"name":"A#2","midi":46,"time":134.5572916666668,"velocity":0.84251968503937,"duration":3.0169270833333997},{"name":"C#5","midi":73,"time":134.5572916666668,"velocity":0.84251968503937,"duration":3.039062500000057},{"name":"G#3","midi":56,"time":134.9401041666668,"velocity":0.84251968503937,"duration":0.3372395833333428},{"name":"B4","midi":71,"time":134.9401041666668,"velocity":0.84251968503937,"duration":0.3177083333333428},{"name":"G3","midi":55,"time":135.27864583333348,"velocity":0.84251968503937,"duration":0.3372395833333428},{"name":"A#4","midi":70,"time":135.27864583333348,"velocity":0.84251968503937,"duration":0.3372395833333428},{"name":"G#3","midi":56,"time":135.61718750000017,"velocity":0.84251968503937,"duration":0.3372395833333428},{"name":"G#4","midi":68,"time":135.61718750000017,"velocity":0.84251968503937,"duration":0.3177083333333428},{"name":"A#3","midi":58,"time":135.95703125000017,"velocity":0.84251968503937,"duration":0.3372395833333428},{"name":"G4","midi":67,"time":135.95703125000017,"velocity":0.84251968503937,"duration":0.3372395833333428},{"name":"D#3","midi":51,"time":136.29557291666686,"velocity":0.84251968503937,"duration":0.3372395833333428},{"name":"G#4","midi":68,"time":136.29557291666686,"velocity":0.84251968503937,"duration":0.3177083333333428},{"name":"E3","midi":52,"time":136.63541666666686,"velocity":0.84251968503937,"duration":1.0169270833333428},{"name":"G#4","midi":68,"time":136.63541666666686,"velocity":0.84251968503937,"duration":0.3372395833333428},{"name":"G4","midi":67,"time":136.97526041666686,"velocity":0.84251968503937,"duration":2.0416666666666856},{"name":"E5","midi":76,"time":137.6757812500002,"velocity":0.84251968503937,"duration":0.3372395833333428},{"name":"B2","midi":47,"time":137.6757812500002,"velocity":0.84251968503937,"duration":0.3372395833333428},{"name":"D#5","midi":75,"time":138.0156250000002,"velocity":0.84251968503937,"duration":0.6770833333333428},{"name":"C#3","midi":49,"time":138.0156250000002,"velocity":0.84251968503937,"duration":0.6770833333333428},{"name":"E5","midi":76,"time":138.6953125000002,"velocity":0.84251968503937,"duration":3.11328125},{"name":"G2","midi":43,"time":138.6953125000002,"velocity":0.84251968503937,"duration":3.11328125},{"name":"D#3","midi":51,"time":139.06380208333354,"velocity":0.84251968503937,"duration":0.3450520833333428},{"name":"G#4","midi":68,"time":139.06380208333354,"velocity":0.84251968503937,"duration":0.33203125},{"name":"C#3","midi":49,"time":139.41145833333354,"velocity":0.84251968503937,"duration":0.3450520833333428},{"name":"A#4","midi":70,"time":139.41145833333354,"velocity":0.84251968503937,"duration":0.3450520833333428},{"name":"B2","midi":47,"time":139.75911458333354,"velocity":0.84251968503937,"duration":0.3450520833333428},{"name":"G#4","midi":68,"time":139.75911458333354,"velocity":0.84251968503937,"duration":0.33203125},{"name":"C#3","midi":49,"time":140.10677083333354,"velocity":0.84251968503937,"duration":0.3450520833333428},{"name":"B4","midi":71,"time":140.10677083333354,"velocity":0.84251968503937,"duration":0.3450520833333428},{"name":"E3","midi":52,"time":140.45442708333354,"velocity":0.84251968503937,"duration":0.3450520833333428},{"name":"A#4","midi":70,"time":140.45442708333354,"velocity":0.84251968503937,"duration":0.33203125},{"name":"G3","midi":55,"time":140.80338541666688,"velocity":0.84251968503937,"duration":0.1705729166666572},{"name":"A#4","midi":70,"time":140.80338541666688,"velocity":0.84251968503937,"duration":2.436197916666657},{"name":"F3","midi":53,"time":140.97526041666688,"velocity":0.84251968503937,"duration":0.1705729166666572},{"name":"G3","midi":55,"time":141.14973958333354,"velocity":0.84251968503937,"duration":1.73828125},{"name":"G#2","midi":44,"time":141.8437500000002,"velocity":0.84251968503937,"duration":0.3450520833333428},{"name":"C5","midi":72,"time":141.8437500000002,"velocity":0.84251968503937,"duration":0.3450520833333428},{"name":"A#2","midi":46,"time":142.19270833333354,"velocity":0.84251968503937,"duration":0.6927083333333428},{"name":"C#5","midi":73,"time":142.19270833333354,"velocity":0.84251968503937,"duration":0.6927083333333428},{"name":"D#2","midi":39,"time":142.9296875000002,"velocity":0.84251968503937,"duration":2.1536458333333997},{"name":"G5","midi":79,"time":142.9296875000002,"velocity":0.84251968503937,"duration":3.6041666666667425},{"name":"D#5","midi":75,"time":143.31119791666688,"velocity":0.84251968503937,"duration":0.3450520833333428},{"name":"E5","midi":76,"time":143.67057291666688,"velocity":0.84251968503937,"duration":0.3567708333333428},{"name":"D#5","midi":75,"time":144.03125000000023,"velocity":0.84251968503937,"duration":0.3450520833333428},{"name":"C#5","midi":73,"time":144.3893229166669,"velocity":0.84251968503937,"duration":0.3567708333333428},{"name":"B4","midi":71,"time":144.75000000000026,"velocity":0.84251968503937,"duration":0.3450520833333428},{"name":"A#4","midi":70,"time":145.10937500000026,"velocity":0.84251968503937,"duration":0.3567708333333428},{"name":"G#4","midi":68,"time":145.4700520833336,"velocity":0.84251968503937,"duration":0.3450520833333428},{"name":"G4","midi":67,"time":145.8294270833336,"velocity":0.84251968503937,"duration":0.3567708333333428},{"name":"F4","midi":65,"time":146.1888020833336,"velocity":0.84251968503937,"duration":0.3450520833333428},{"name":"G#5","midi":80,"time":146.54947916666694,"velocity":0.84251968503937,"duration":0.7109375},{"name":"C5","midi":72,"time":146.54947916666694,"velocity":0.84251968503937,"duration":0.7109375},{"name":"F#4","midi":66,"time":146.54947916666694,"velocity":0.84251968503937,"duration":0.3567708333333428},{"name":"D#4","midi":63,"time":146.90885416666694,"velocity":0.84251968503937,"duration":0.3450520833333428},{"name":"E4","midi":64,"time":147.2903645833336,"velocity":0.84251968503937,"duration":0.3697916666666572},{"name":"C#5","midi":73,"time":147.2903645833336,"velocity":0.84251968503937,"duration":3.345052083333229},{"name":"D#4","midi":63,"time":147.66406250000026,"velocity":0.84251968503937,"duration":0.3697916666666572},{"name":"B4","midi":71,"time":147.66406250000026,"velocity":0.84251968503937,"duration":0.3580729166666572},{"name":"C#4","midi":61,"time":148.03645833333357,"velocity":0.84251968503937,"duration":0.3697916666666572},{"name":"A4","midi":69,"time":148.03645833333357,"velocity":0.84251968503937,"duration":0.3697916666666572},{"name":"B3","midi":59,"time":148.41015625000023,"velocity":0.84251968503937,"duration":0.3697916666666572},{"name":"G#4","midi":68,"time":148.41015625000023,"velocity":0.84251968503937,"duration":0.3580729166666572},{"name":"A3","midi":57,"time":148.78385416666688,"velocity":0.84251968503937,"duration":0.3697916666666572},{"name":"F#4","midi":66,"time":148.78385416666688,"velocity":0.84251968503937,"duration":0.3697916666666572},{"name":"F#3","midi":54,"time":149.15755208333354,"velocity":0.84251968503937,"duration":0.3697916666666572},{"name":"A4","midi":69,"time":149.15755208333354,"velocity":0.84251968503937,"duration":0.3580729166666572},{"name":"G#3","midi":56,"time":149.5312500000002,"velocity":0.84251968503937,"duration":0.3697916666666572},{"name":"E4","midi":64,"time":149.5312500000002,"velocity":0.84251968503937,"duration":1.1171874999999716},{"name":"D#3","midi":51,"time":149.9036458333335,"velocity":0.84251968503937,"duration":0.3697916666666572},{"name":"E3","midi":52,"time":150.27734375000017,"velocity":0.84251968503937,"duration":0.3697916666666572},{"name":"C#3","midi":49,"time":150.65234375000017,"velocity":0.84251968503937,"duration":0.3697916666666572},{"name":"F#4","midi":66,"time":150.65234375000017,"velocity":0.84251968503937,"duration":0.3697916666666572},{"name":"D#5","midi":75,"time":150.65234375000017,"velocity":0.84251968503937,"duration":0.3580729166666572},{"name":"G#2","midi":44,"time":151.02473958333348,"velocity":0.84251968503937,"duration":0.7395833333333144},{"name":"D#4","midi":63,"time":151.02473958333348,"velocity":0.84251968503937,"duration":0.3697916666666572},{"name":"C5","midi":72,"time":151.02473958333348,"velocity":0.84251968503937,"duration":0.7395833333333144},{"name":"G#3","midi":56,"time":151.39843750000014,"velocity":0.84251968503937,"duration":1.2356770833333428},{"name":"F#4","midi":66,"time":151.39843750000014,"velocity":0.84251968503937,"duration":0.7981770833333428},{"name":"C#3","midi":49,"time":151.81640625000014,"velocity":0.84251968503937,"duration":7.5546875},{"name":"C#5","midi":73,"time":151.81640625000014,"velocity":0.84251968503937,"duration":2.1575520833333144},{"name":"C#4","midi":61,"time":151.81640625000014,"velocity":0.84251968503937,"duration":1.7239583333333144},{"name":"G#4","midi":68,"time":152.24739583333348,"velocity":0.84251968503937,"duration":0.4283854166666572},{"name":"F#3","midi":54,"time":152.67968750000014,"velocity":0.84251968503937,"duration":0.8593749999999716},{"name":"A4","midi":69,"time":152.67968750000014,"velocity":0.84251968503937,"duration":0.4283854166666572},{"name":"F#4","midi":66,"time":153.11067708333346,"velocity":0.84251968503937,"duration":0.4283854166666572},{"name":"A3","midi":57,"time":153.5429687500001,"velocity":0.84251968503937,"duration":0.859375},{"name":"D#4","midi":63,"time":153.5429687500001,"velocity":0.84251968503937,"duration":0.8528645833333428},{"name":"C5","midi":72,"time":153.97395833333346,"velocity":0.84251968503937,"duration":0.4283854166666572},{"name":"G#3","midi":56,"time":154.4062500000001,"velocity":0.84251968503937,"duration":4.964843750000028},{"name":"F4","midi":65,"time":154.4062500000001,"velocity":0.84251968503937,"duration":4.964843750000028},{"name":"G#4","midi":68,"time":154.64192708333346,"velocity":0.84251968503937,"duration":4.729166666666686},{"name":"C#5","midi":73,"time":154.8776041666668,"velocity":0.84251968503937,"duration":4.493489583333343},{"name":"C#3","midi":49,"time":160.6901041666668,"velocity":0.84251968503937,"duration":1.7096354166666572},{"name":"C3","midi":48,"time":162.4049479166668,"velocity":0.84251968503937,"duration":0.8528645833333428},{"name":"E3","midi":52,"time":163.26302083333348,"velocity":0.84251968503937,"duration":0.8528645833333428},{"name":"D#3","midi":51,"time":164.12109375000017,"velocity":0.84251968503937,"duration":1.7096354166666572},{"name":"G#3","midi":56,"time":165.83463541666683,"velocity":0.84251968503937,"duration":1.764322916666714},{"name":"C#3","midi":49,"time":165.83463541666683,"velocity":0.84251968503937,"duration":0.4388020833333428},{"name":"D#3","midi":51,"time":166.2786458333335,"velocity":0.84251968503937,"duration":0.4388020833333428},{"name":"E3","midi":52,"time":166.7226562500002,"velocity":0.84251968503937,"duration":1.3255208333333428},{"name":"G3","midi":55,"time":167.61067708333354,"velocity":0.84251968503937,"duration":0.8828125},{"name":"D#3","midi":51,"time":168.05338541666688,"velocity":0.84251968503937,"duration":0.2174479166666572},{"name":"C#3","midi":49,"time":168.27473958333354,"velocity":0.84251968503937,"duration":0.2174479166666572},{"name":"B3","midi":59,"time":168.4960937500002,"velocity":0.84251968503937,"duration":0.8828125},{"name":"D#3","midi":51,"time":168.4960937500002,"velocity":0.84251968503937,"duration":0.4388020833333428},{"name":"G#3","midi":56,"time":168.9414062500002,"velocity":0.84251968503937,"duration":0.4388020833333428},{"name":"A#3","midi":58,"time":169.38411458333354,"velocity":0.84251968503937,"duration":1.7643229166666572},{"name":"C#3","midi":49,"time":169.38411458333354,"velocity":0.84251968503937,"duration":0.4388020833333428},{"name":"D#3","midi":51,"time":169.82812500000023,"velocity":0.84251968503937,"duration":0.2174479166666572},{"name":"E3","midi":52,"time":170.04817708333354,"velocity":0.84251968503937,"duration":0.2174479166666572},{"name":"F#3","midi":54,"time":170.27083333333354,"velocity":0.84251968503937,"duration":1.3255208333333428},{"name":"G#3","midi":56,"time":171.15755208333354,"velocity":0.84251968503937,"duration":0.8828125000000284},{"name":"E3","midi":52,"time":171.60156250000023,"velocity":0.84251968503937,"duration":0.4388020833333428},{"name":"C#4","midi":61,"time":172.04427083333357,"velocity":0.84251968503937,"duration":0.8971354166666856},{"name":"A3","midi":57,"time":172.04427083333357,"velocity":0.84251968503937,"duration":1.3476562500000284},{"name":"D#3","midi":51,"time":172.04427083333357,"velocity":0.84251968503937,"duration":0.4466145833333428},{"name":"C#3","midi":49,"time":172.4947916666669,"velocity":0.84251968503937,"duration":0.4466145833333428},{"name":"C4","midi":60,"time":172.94531250000026,"velocity":0.84251968503937,"duration":0.8971354166666572},{"name":"D#3","midi":51,"time":172.94531250000026,"velocity":0.84251968503937,"duration":0.8971354166666572},{"name":"G#3","midi":56,"time":173.39713541666694,"velocity":0.84251968503937,"duration":0.2213541666666572},{"name":"F#3","midi":54,"time":173.62109375000026,"velocity":0.84251968503937,"duration":0.2213541666666572},{"name":"E4","midi":64,"time":173.84765625000026,"velocity":0.84251968503937,"duration":0.8971354166666856},{"name":"G#3","midi":56,"time":173.84765625000026,"velocity":0.84251968503937,"duration":0.4466145833333428},{"name":"C#3","midi":49,"time":173.84765625000026,"velocity":0.84251968503937,"duration":1.34765625},{"name":"C#4","midi":61,"time":174.29687500000026,"velocity":0.84251968503937,"duration":0.4466145833333428},{"name":"D#4","midi":63,"time":174.7473958333336,"velocity":0.84251968503937,"duration":1.7994791666666572},{"name":"F#3","midi":54,"time":174.7473958333336,"velocity":0.84251968503937,"duration":0.4479166666666572},{"name":"G#3","midi":56,"time":175.2018229166669,"velocity":0.84251968503937,"duration":0.2213541666666572},{"name":"B2","midi":47,"time":175.2018229166669,"velocity":0.84251968503937,"duration":0.44140625},{"name":"A3","midi":57,"time":175.4244791666669,"velocity":0.84251968503937,"duration":0.2213541666666572},{"name":"B3","midi":59,"time":175.6510416666669,"velocity":0.84251968503937,"duration":1.34765625},{"name":"A2","midi":45,"time":175.6510416666669,"velocity":0.84251968503937,"duration":0.4466145833333428},{"name":"G#2","midi":44,"time":176.10156250000026,"velocity":0.84251968503937,"duration":0.4466145833333428},{"name":"C#4","midi":61,"time":176.55078125000026,"velocity":0.84251968503937,"duration":0.8971354166666572},{"name":"A2","midi":45,"time":176.55078125000026,"velocity":0.84251968503937,"duration":0.8971354166666572},{"name":"A3","midi":57,"time":177.0026041666669,"velocity":0.84251968503937,"duration":0.4466145833333428},{"name":"F#4","midi":66,"time":177.4544270833336,"velocity":0.84251968503937,"duration":1.3476562500000284},{"name":"A#2","midi":46,"time":177.4544270833336,"velocity":0.84251968503937,"duration":0.8971354166666856},{"name":"G#3","midi":56,"time":177.4544270833336,"velocity":0.84251968503937,"duration":0.4466145833333428},{"name":"F#3","midi":54,"time":177.90494791666694,"velocity":0.84251968503937,"duration":0.4466145833333428},{"name":"G#3","midi":56,"time":178.35286458333363,"velocity":0.84251968503937,"duration":0.8971354166666856},{"name":"C3","midi":48,"time":178.35286458333363,"velocity":0.84251968503937,"duration":0.8971354166666856},{"name":"E4","midi":64,"time":178.80338541666697,"velocity":0.84251968503937,"duration":0.4466145833333428},{"name":"D#4","midi":63,"time":179.25520833333366,"velocity":0.84251968503937,"duration":0.4466145833333428},{"name":"C#3","midi":49,"time":179.25520833333366,"velocity":0.84251968503937,"duration":0.8971354166666856},{"name":"F#3","midi":54,"time":179.25520833333366,"velocity":0.84251968503937,"duration":0.4466145833333428},{"name":"C#4","midi":61,"time":179.70703125000034,"velocity":0.84251968503937,"duration":0.4466145833333428},{"name":"E3","midi":52,"time":179.70703125000034,"velocity":0.84251968503937,"duration":0.4466145833333428},{"name":"C#4","midi":61,"time":180.15755208333368,"velocity":0.84251968503937,"duration":0.8971354166666856},{"name":"D#3","midi":51,"time":180.15755208333368,"velocity":0.84251968503937,"duration":1.3489583333333712},{"name":"G#2","midi":44,"time":180.15755208333368,"velocity":0.84251968503937,"duration":0.4466145833333428},{"name":"A2","midi":45,"time":180.60546875000037,"velocity":0.84251968503937,"duration":0.4466145833333428},{"name":"B3","midi":59,"time":181.0559895833337,"velocity":0.84251968503937,"duration":0.90234375},{"name":"G#4","midi":68,"time":181.0559895833337,"velocity":0.84251968503937,"duration":0.90234375},{"name":"B2","midi":47,"time":181.0559895833337,"velocity":0.84251968503937,"duration":1.3541666666666856},{"name":"D3","midi":50,"time":181.5091145833337,"velocity":0.84251968503937,"duration":0.4505208333333428},{"name":"F4","midi":65,"time":181.9648437500004,"velocity":0.84251968503937,"duration":0.90234375},{"name":"C#4","midi":61,"time":181.9648437500004,"velocity":0.84251968503937,"duration":0.90234375},{"name":"C#3","midi":49,"time":181.9648437500004,"velocity":0.84251968503937,"duration":1.8046875000000284},{"name":"A2","midi":45,"time":182.41666666666706,"velocity":0.84251968503937,"duration":0.4505208333333428},{"name":"A4","midi":69,"time":182.86848958333374,"velocity":0.84251968503937,"duration":0.9036458333333428},{"name":"F#4","midi":66,"time":182.86848958333374,"velocity":0.84251968503937,"duration":1.35546875},{"name":"G#2","midi":44,"time":182.86848958333374,"velocity":0.84251968503937,"duration":0.4505208333333428},{"name":"F#2","midi":42,"time":183.32421875000043,"velocity":0.84251968503937,"duration":0.4505208333333144},{"name":"G#4","midi":68,"time":183.7773437500004,"velocity":0.84251968503937,"duration":0.9023437500000284},{"name":"C#3","midi":49,"time":183.7773437500004,"velocity":0.84251968503937,"duration":1.8046875000000284},{"name":"E4","midi":64,"time":184.22916666666708,"velocity":0.84251968503937,"duration":0.4505208333333428},{"name":"C#5","midi":73,"time":184.68489583333377,"velocity":0.84251968503937,"duration":0.9036458333333144},{"name":"F#4","midi":66,"time":184.68489583333377,"velocity":0.84251968503937,"duration":1.8072916666666572},{"name":"D#4","midi":63,"time":184.68489583333377,"velocity":0.84251968503937,"duration":0.4505208333333428},{"name":"A2","midi":45,"time":184.68489583333377,"velocity":0.84251968503937,"duration":1.3567708333333144},{"name":"C#4","midi":61,"time":185.13802083333377,"velocity":0.84251968503937,"duration":0.4505208333333144},{"name":"C5","midi":72,"time":185.59114583333374,"velocity":0.84251968503937,"duration":0.9036458333333428},{"name":"D#4","midi":63,"time":185.59114583333374,"velocity":0.84251968503937,"duration":0.9036458333333428},{"name":"G#2","midi":44,"time":186.04687500000043,"velocity":0.84251968503937,"duration":0.4505208333333144},{"name":"C#5","midi":73,"time":186.5000000000004,"velocity":0.84251968503937,"duration":1.8072916666666572},{"name":"E5","midi":76,"time":186.5000000000004,"velocity":0.84251968503937,"duration":0.9036458333333428},{"name":"G#4","midi":68,"time":186.5000000000004,"velocity":0.84251968503937,"duration":0.9036458333333428},{"name":"F#2","midi":42,"time":186.5000000000004,"velocity":0.84251968503937,"duration":0.4505208333333428},{"name":"E2","midi":40,"time":186.95572916666708,"velocity":0.84251968503937,"duration":0.4505208333333144},{"name":"D#5","midi":75,"time":187.40885416666706,"velocity":0.84251968503937,"duration":0.9036458333333428},{"name":"F#2","midi":42,"time":187.40885416666706,"velocity":0.84251968503937,"duration":0.9036458333333428},{"name":"A4","midi":69,"time":187.86197916666706,"velocity":0.84251968503937,"duration":0.4505208333333428},{"name":"B4","midi":71,"time":188.3164062500004,"velocity":0.84251968503937,"duration":1.8072916666666856},{"name":"G#4","midi":68,"time":188.3164062500004,"velocity":0.84251968503937,"duration":0.4505208333333428},{"name":"G#2","midi":44,"time":188.3164062500004,"velocity":0.84251968503937,"duration":0.9036458333333428},{"name":"F#4","midi":66,"time":188.7695312500004,"velocity":0.84251968503937,"duration":0.4505208333333428},{"name":"C#5","midi":73,"time":189.22395833333374,"velocity":0.84251968503937,"duration":1.3554687500000284},{"name":"F4","midi":65,"time":189.22395833333374,"velocity":0.84251968503937,"duration":0.4505208333333428},{"name":"A2","midi":45,"time":189.22395833333374,"velocity":0.84251968503937,"duration":0.4505208333333428},{"name":"C#4","midi":61,"time":189.67838541666708,"velocity":0.84251968503937,"duration":0.4505208333333428},{"name":"G#2","midi":44,"time":189.67838541666708,"velocity":0.84251968503937,"duration":0.4505208333333428},{"name":"A4","midi":69,"time":190.13281250000043,"velocity":0.84251968503937,"duration":0.9036458333333428},{"name":"F#4","midi":66,"time":190.13281250000043,"velocity":0.84251968503937,"duration":0.9036458333333428},{"name":"A2","midi":45,"time":190.13281250000043,"velocity":0.84251968503937,"duration":0.4505208333333428},{"name":"D#5","midi":75,"time":190.58723958333377,"velocity":0.84251968503937,"duration":0.4505208333333428},{"name":"B2","midi":47,"time":190.58723958333377,"velocity":0.84251968503937,"duration":0.4505208333333428},{"name":"E5","midi":76,"time":191.04036458333377,"velocity":0.84251968503937,"duration":0.4505208333333428},{"name":"G#4","midi":68,"time":191.04036458333377,"velocity":0.84251968503937,"duration":0.9036458333333428},{"name":"E4","midi":64,"time":191.04036458333377,"velocity":0.84251968503937,"duration":2.713541666666714},{"name":"C#3","midi":49,"time":191.04036458333377,"velocity":0.84251968503937,"duration":0.4505208333333428},{"name":"D#5","midi":75,"time":191.4947916666671,"velocity":0.84251968503937,"duration":0.4505208333333428},{"name":"B2","midi":47,"time":191.4947916666671,"velocity":0.84251968503937,"duration":0.4505208333333428},{"name":"A4","midi":69,"time":191.9479166666671,"velocity":0.84251968503937,"duration":1.3554687500000284},{"name":"C#5","midi":73,"time":191.9479166666671,"velocity":0.84251968503937,"duration":0.9036458333333428},{"name":"C#3","midi":49,"time":191.9479166666671,"velocity":0.84251968503937,"duration":0.4505208333333428},{"name":"D#3","midi":51,"time":192.40234375000045,"velocity":0.84251968503937,"duration":0.4505208333333428},{"name":"B4","midi":71,"time":192.8567708333338,"velocity":0.84251968503937,"duration":0.9023437500000284},{"name":"E3","midi":52,"time":192.8567708333338,"velocity":0.84251968503937,"duration":0.9023437500000284},{"name":"G#4","midi":68,"time":193.30859375000048,"velocity":0.84251968503937,"duration":0.4505208333333428},{"name":"G#4","midi":68,"time":193.76171875000048,"velocity":0.84251968503937,"duration":0.9036458333333428},{"name":"C#5","midi":73,"time":193.76171875000048,"velocity":0.84251968503937,"duration":0.9036458333333428},{"name":"F#4","midi":66,"time":193.76171875000048,"velocity":0.84251968503937,"duration":0.4505208333333428},{"name":"G#3","midi":56,"time":193.76171875000048,"velocity":0.84251968503937,"duration":0.9036458333333428},{"name":"C#3","midi":49,"time":193.76171875000048,"velocity":0.84251968503937,"duration":1.35546875},{"name":"E4","midi":64,"time":194.21744791666717,"velocity":0.84251968503937,"duration":0.4505208333333144},{"name":"A#4","midi":70,"time":194.67057291666714,"velocity":0.84251968503937,"duration":0.90234375},{"name":"D#5","midi":75,"time":194.67057291666714,"velocity":0.84251968503937,"duration":0.90234375},{"name":"D#4","midi":63,"time":194.67057291666714,"velocity":0.84251968503937,"duration":0.90234375},{"name":"G3","midi":55,"time":194.67057291666714,"velocity":0.84251968503937,"duration":0.90234375},{"name":"B2","midi":47,"time":195.12369791666714,"velocity":0.84251968503937,"duration":0.4505208333333428},{"name":"G#4","midi":68,"time":195.57812500000048,"velocity":0.84251968503937,"duration":1.8072916666666856},{"name":"B3","midi":59,"time":195.57812500000048,"velocity":0.84251968503937,"duration":0.9036458333333428},{"name":"A#2","midi":46,"time":195.57812500000048,"velocity":0.84251968503937,"duration":0.4505208333333428},{"name":"G#2","midi":44,"time":196.03125000000048,"velocity":0.84251968503937,"duration":0.4505208333333428},{"name":"C#3","midi":49,"time":196.48437500000048,"velocity":0.84251968503937,"duration":0.9036458333333428},{"name":"A#3","midi":58,"time":196.48437500000048,"velocity":0.84251968503937,"duration":1.8072916666666856},{"name":"E5","midi":76,"time":196.93880208333383,"velocity":0.84251968503937,"duration":0.4505208333333428},{"name":"G4","midi":67,"time":197.39192708333383,"velocity":0.84251968503937,"duration":0.9036458333333428},{"name":"D#5","midi":75,"time":197.39192708333383,"velocity":0.84251968503937,"duration":0.4505208333333428},{"name":"D#3","midi":51,"time":197.39192708333383,"velocity":0.84251968503937,"duration":0.9036458333333428},{"name":"C#5","midi":73,"time":197.8476562500005,"velocity":0.84251968503937,"duration":0.4505208333333144},{"name":"G#4","midi":68,"time":198.30078125000048,"velocity":0.84251968503937,"duration":0.9036458333333428},{"name":"B4","midi":71,"time":198.30078125000048,"velocity":0.84251968503937,"duration":0.4505208333333428},{"name":"G#3","midi":56,"time":198.30078125000048,"velocity":0.84251968503937,"duration":0.4505208333333428},{"name":"G#2","midi":44,"time":198.30078125000048,"velocity":0.84251968503937,"duration":0.9036458333333428},{"name":"A3","midi":57,"time":198.76692708333383,"velocity":0.84251968503937,"duration":0.4505208333333428},{"name":"D#5","midi":75,"time":198.76692708333383,"velocity":0.84251968503937,"duration":0.4505208333333428},{"name":"G#3","midi":56,"time":199.23307291666717,"velocity":0.84251968503937,"duration":0.4505208333333428},{"name":"B3","midi":59,"time":199.23307291666717,"velocity":0.84251968503937,"duration":0.9036458333333428},{"name":"G#5","midi":80,"time":199.23307291666717,"velocity":0.84251968503937,"duration":1.3554687500000284},{"name":"F#3","midi":54,"time":199.68619791666717,"velocity":0.84251968503937,"duration":0.4505208333333428},{"name":"F3","midi":53,"time":200.14192708333385,"velocity":0.84251968503937,"duration":0.9023437500000284},{"name":"C#4","midi":61,"time":200.14192708333385,"velocity":0.84251968503937,"duration":0.9023437500000284},{"name":"F#5","midi":78,"time":200.5924479166672,"velocity":0.84251968503937,"duration":0.4505208333333428},{"name":"A3","midi":57,"time":201.04557291666723,"velocity":0.84251968503937,"duration":0.9036458333333428},{"name":"G#5","midi":80,"time":201.04557291666723,"velocity":0.84251968503937,"duration":0.4505208333333428},{"name":"C#4","midi":61,"time":201.50000000000057,"velocity":0.84251968503937,"duration":0.4505208333333428},{"name":"A5","midi":81,"time":201.50000000000057,"velocity":0.84251968503937,"duration":0.4505208333333428},{"name":"G#3","midi":56,"time":201.9544270833339,"velocity":0.84251968503937,"duration":1.8125000000000284},{"name":"D#4","midi":63,"time":201.9544270833339,"velocity":0.84251968503937,"duration":0.4505208333333428},{"name":"B5","midi":83,"time":201.9544270833339,"velocity":0.84251968503937,"duration":2.2682291666666856},{"name":"C#4","midi":61,"time":202.4075520833339,"velocity":0.84251968503937,"duration":0.4505208333333428},{"name":"D#4","midi":63,"time":202.8645833333339,"velocity":0.84251968503937,"duration":0.4505208333333428},{"name":"F4","midi":65,"time":203.3164062500006,"velocity":0.84251968503937,"duration":0.4505208333333428},{"name":"F#3","midi":54,"time":203.77083333333394,"velocity":0.84251968503937,"duration":2.268229166666657},{"name":"F#4","midi":66,"time":203.77083333333394,"velocity":0.84251968503937,"duration":0.9036458333333144},{"name":"A5","midi":81,"time":204.22526041666725,"velocity":0.84251968503937,"duration":0.4505208333333428},{"name":"C#4","midi":61,"time":204.67838541666725,"velocity":0.84251968503937,"duration":0.9036458333333428},{"name":"A4","midi":69,"time":204.67838541666725,"velocity":0.84251968503937,"duration":0.9036458333333428},{"name":"G#5","midi":80,"time":204.67838541666725,"velocity":0.84251968503937,"duration":0.4505208333333428},{"name":"F#5","midi":78,"time":205.1328125000006,"velocity":0.84251968503937,"duration":0.4505208333333428},{"name":"C4","midi":60,"time":205.58723958333394,"velocity":0.84251968503937,"duration":0.9036458333333428},{"name":"G#4","midi":68,"time":205.58723958333394,"velocity":0.84251968503937,"duration":0.9036458333333428},{"name":"G#5","midi":80,"time":205.58723958333394,"velocity":0.84251968503937,"duration":0.22265625},{"name":"F#5","midi":78,"time":205.81380208333394,"velocity":0.84251968503937,"duration":0.22265625},{"name":"G#3","midi":56,"time":206.04036458333394,"velocity":0.84251968503937,"duration":0.22265625},{"name":"E5","midi":76,"time":206.04036458333394,"velocity":0.84251968503937,"duration":0.22265625},{"name":"F#3","midi":54,"time":206.26822916666728,"velocity":0.84251968503937,"duration":0.22265625},{"name":"D#5","midi":75,"time":206.26822916666728,"velocity":0.84251968503937,"duration":0.22265625},{"name":"E3","midi":52,"time":206.49348958333394,"velocity":0.84251968503937,"duration":0.4505208333333144},{"name":"E4","midi":64,"time":206.49348958333394,"velocity":0.84251968503937,"duration":0.9036458333333144},{"name":"C#5","midi":73,"time":206.49348958333394,"velocity":0.84251968503937,"duration":1.8072916666666288},{"name":"B4","midi":71,"time":206.7226562500006,"velocity":0.84251968503937,"duration":0.22265625},{"name":"F#3","midi":54,"time":206.94791666666725,"velocity":0.84251968503937,"duration":0.22265625},{"name":"A4","midi":69,"time":206.94791666666725,"velocity":0.84251968503937,"duration":0.22265625},{"name":"G#3","midi":56,"time":207.17447916666725,"velocity":0.84251968503937,"duration":0.22265625},{"name":"G#4","midi":68,"time":207.17447916666725,"velocity":0.84251968503937,"duration":0.22265625},{"name":"A3","midi":57,"time":207.4036458333339,"velocity":0.84251968503937,"duration":0.4505208333333428},{"name":"D#4","midi":63,"time":207.4036458333339,"velocity":0.84251968503937,"duration":1.8072916666666856},{"name":"F#4","midi":66,"time":207.4036458333339,"velocity":0.84251968503937,"duration":0.4505208333333428},{"name":"F#3","midi":54,"time":207.8567708333339,"velocity":0.84251968503937,"duration":0.4505208333333144},{"name":"A4","midi":69,"time":207.8567708333339,"velocity":0.84251968503937,"duration":0.4505208333333144},{"name":"G#3","midi":56,"time":208.31250000000057,"velocity":0.84251968503937,"duration":0.9036458333333712},{"name":"G#4","midi":68,"time":208.31250000000057,"velocity":0.84251968503937,"duration":0.4505208333333428},{"name":"B4","midi":71,"time":208.31250000000057,"velocity":0.84251968503937,"duration":1.3554687500000568},{"name":"F#4","midi":66,"time":208.76432291666725,"velocity":0.84251968503937,"duration":0.4505208333333428},{"name":"C#3","midi":49,"time":209.21744791666728,"velocity":0.84251968503937,"duration":2.714843750000057},{"name":"C#4","midi":61,"time":209.21744791666728,"velocity":0.84251968503937,"duration":2.714843750000057},{"name":"F4","midi":65,"time":209.21744791666728,"velocity":0.84251968503937,"duration":0.90234375},{"name":"C#5","midi":73,"time":209.67057291666728,"velocity":0.84251968503937,"duration":0.4505208333333428},{"name":"F#4","midi":66,"time":210.12500000000063,"velocity":0.84251968503937,"duration":1.3554687500000284},{"name":"B4","midi":71,"time":210.12500000000063,"velocity":0.84251968503937,"duration":0.4505208333333428},{"name":"A4","midi":69,"time":210.57812500000063,"velocity":0.84251968503937,"duration":0.4505208333333428},{"name":"G#4","midi":68,"time":211.0338541666673,"velocity":0.84251968503937,"duration":0.9023437500000284},{"name":"E4","midi":64,"time":211.485677083334,"velocity":0.84251968503937,"duration":2.268229166666657},{"name":"B2","midi":47,"time":211.938802083334,"velocity":0.84251968503937,"duration":0.9036458333333428},{"name":"A#4","midi":70,"time":211.938802083334,"velocity":0.84251968503937,"duration":0.4505208333333428},{"name":"B4","midi":71,"time":212.39453125000068,"velocity":0.84251968503937,"duration":0.4505208333333144},{"name":"A#2","midi":46,"time":212.84765625000065,"velocity":0.84251968503937,"duration":0.9036458333333428},{"name":"F#3","midi":54,"time":212.84765625000065,"velocity":0.84251968503937,"duration":0.4505208333333428},{"name":"C#5","midi":73,"time":212.84765625000065,"velocity":0.84251968503937,"duration":0.9036458333333428},{"name":"G#3","midi":56,"time":213.30078125000065,"velocity":0.84251968503937,"duration":0.4505208333333428},{"name":"D#3","midi":51,"time":213.7565104166673,"velocity":0.84251968503937,"duration":0.9036458333333712},{"name":"F#3","midi":54,"time":213.7565104166673,"velocity":0.84251968503937,"duration":0.9036458333333712},{"name":"A#3","midi":58,"time":213.7565104166673,"velocity":0.84251968503937,"duration":0.4505208333333428},{"name":"B4","midi":71,"time":213.7565104166673,"velocity":0.84251968503937,"duration":1.807291666666714},{"name":"D#4","midi":63,"time":213.7565104166673,"velocity":0.84251968503937,"duration":0.9036458333333712},{"name":"B3","midi":59,"time":214.208333333334,"velocity":0.84251968503937,"duration":0.4505208333333428},{"name":"C#3","midi":49,"time":214.66276041666734,"velocity":0.84251968503937,"duration":1.8072916666666856},{"name":"E3","midi":52,"time":214.66276041666734,"velocity":0.84251968503937,"duration":0.4505208333333428},{"name":"E4","midi":64,"time":214.66276041666734,"velocity":0.84251968503937,"duration":2.2682291666666856},{"name":"C#4","midi":61,"time":214.66276041666734,"velocity":0.84251968503937,"duration":1.8072916666666856},{"name":"D#3","midi":51,"time":215.11718750000068,"velocity":0.84251968503937,"duration":0.4505208333333428},{"name":"E3","midi":52,"time":215.57031250000068,"velocity":0.84251968503937,"duration":0.4505208333333428},{"name":"A#4","midi":70,"time":215.57031250000068,"velocity":0.84251968503937,"duration":0.9036458333333428},{"name":"F#3","midi":54,"time":216.02734375000068,"velocity":0.84251968503937,"duration":0.4505208333333428},{"name":"B2","midi":47,"time":216.48046875000068,"velocity":0.84251968503937,"duration":2.2682291666666856},{"name":"G#3","midi":56,"time":216.48046875000068,"velocity":0.84251968503937,"duration":0.4505208333333428},{"name":"B4","midi":71,"time":216.48046875000068,"velocity":0.84251968503937,"duration":2.2682291666666856},{"name":"F#3","midi":54,"time":216.93359375000068,"velocity":0.84251968503937,"duration":0.4505208333333428},{"name":"D#4","midi":63,"time":216.93359375000068,"velocity":0.84251968503937,"duration":0.4505208333333428},{"name":"G#3","midi":56,"time":217.38802083333402,"velocity":0.84251968503937,"duration":0.4505208333333428},{"name":"E4","midi":64,"time":217.38802083333402,"velocity":0.84251968503937,"duration":0.9036458333333428},{"name":"A3","midi":57,"time":217.84114583333402,"velocity":0.84251968503937,"duration":0.4505208333333428},{"name":"F#4","midi":66,"time":217.84114583333402,"velocity":0.84251968503937,"duration":0.22265625},{"name":"G#4","midi":68,"time":218.06770833333402,"velocity":0.84251968503937,"duration":0.22265625},{"name":"B3","midi":59,"time":218.29557291666737,"velocity":0.84251968503937,"duration":1.807291666666714},{"name":"F#4","midi":66,"time":218.29557291666737,"velocity":0.84251968503937,"duration":0.9036458333333428},{"name":"D#4","midi":63,"time":218.29557291666737,"velocity":0.84251968503937,"duration":0.9036458333333428},{"name":"G#3","midi":56,"time":218.7500000000007,"velocity":0.84251968503937,"duration":0.4505208333333428},{"name":"C#5","midi":73,"time":218.7500000000007,"velocity":0.84251968503937,"duration":0.4505208333333428},{"name":"F#3","midi":54,"time":219.20442708333405,"velocity":0.84251968503937,"duration":0.4505208333333428},{"name":"B4","midi":71,"time":219.20442708333405,"velocity":0.84251968503937,"duration":1.3554687500000284},{"name":"G#4","midi":68,"time":219.20442708333405,"velocity":0.84251968503937,"duration":0.9036458333333712},{"name":"D#5","midi":75,"time":219.20442708333405,"velocity":0.84251968503937,"duration":0.4505208333333428},{"name":"E3","midi":52,"time":219.65625000000074,"velocity":0.84251968503937,"duration":0.4505208333333428},{"name":"E5","midi":76,"time":219.65625000000074,"velocity":0.84251968503937,"duration":1.3541666666666856},{"name":"B3","midi":59,"time":220.11067708333408,"velocity":0.84251968503937,"duration":2.7135416666666856},{"name":"F#4","midi":66,"time":220.11067708333408,"velocity":0.84251968503937,"duration":1.8046875000000284},{"name":"C#5","midi":73,"time":220.56380208333408,"velocity":0.84251968503937,"duration":0.4505208333333428},{"name":"B2","midi":47,"time":221.01822916666742,"velocity":0.84251968503937,"duration":0.9036458333333428},{"name":"B4","midi":71,"time":221.01822916666742,"velocity":0.84251968503937,"duration":0.4505208333333428},{"name":"D#5","midi":75,"time":221.01822916666742,"velocity":0.84251968503937,"duration":0.9036458333333428},{"name":"A4","midi":69,"time":221.47265625000077,"velocity":0.84251968503937,"duration":0.4505208333333428},{"name":"E3","midi":52,"time":221.9270833333341,"velocity":0.84251968503937,"duration":0.9036458333333144},{"name":"G#4","midi":68,"time":221.9270833333341,"velocity":0.84251968503937,"duration":0.9036458333333144},{"name":"E4","midi":64,"time":221.9270833333341,"velocity":0.84251968503937,"duration":0.9036458333333144},{"name":"E5","midi":76,"time":221.9270833333341,"velocity":0.84251968503937,"duration":0.49609375},{"name":"D#5","midi":75,"time":222.41276041666745,"velocity":0.84251968503937,"duration":0.4583333333333144},{"name":"A3","midi":57,"time":222.87760416666742,"velocity":0.84251968503937,"duration":0.9036458333333428},{"name":"C#4","midi":61,"time":222.87760416666742,"velocity":0.84251968503937,"duration":0.9036458333333428},{"name":"E5","midi":76,"time":222.87760416666742,"velocity":0.84251968503937,"duration":0.4505208333333428},{"name":"F#5","midi":78,"time":223.3333333333341,"velocity":0.84251968503937,"duration":0.4505208333333144},{"name":"G#3","midi":56,"time":223.78645833333408,"velocity":0.84251968503937,"duration":0.9166666666666288},{"name":"C4","midi":60,"time":223.78645833333408,"velocity":0.84251968503937,"duration":0.9166666666666288},{"name":"G#5","midi":80,"time":223.78645833333408,"velocity":0.84251968503937,"duration":0.2252604166666572},{"name":"F#5","midi":78,"time":224.01692708333408,"velocity":0.84251968503937,"duration":0.2252604166666572},{"name":"G#5","midi":80,"time":224.2486979166674,"velocity":0.84251968503937,"duration":0.2252604166666572},{"name":"A5","midi":81,"time":224.47786458333405,"velocity":0.84251968503937,"duration":0.2252604166666572},{"name":"C#4","midi":61,"time":224.7070312500007,"velocity":0.84251968503937,"duration":0.9166666666666288},{"name":"E4","midi":64,"time":224.7070312500007,"velocity":0.84251968503937,"duration":0.9166666666666288},{"name":"G#5","midi":80,"time":224.7070312500007,"velocity":0.84251968503937,"duration":0.2252604166666572},{"name":"F#5","midi":78,"time":224.93880208333402,"velocity":0.84251968503937,"duration":0.2252604166666572},{"name":"E5","midi":76,"time":225.16796875000068,"velocity":0.84251968503937,"duration":0.2252604166666572},{"name":"G#5","midi":80,"time":225.399739583334,"velocity":0.84251968503937,"duration":0.22526041666668561},{"name":"D#4","midi":63,"time":225.62890625000068,"velocity":0.84251968503937,"duration":1.8346354166666288},{"name":"C#4","midi":61,"time":225.62890625000068,"velocity":0.84251968503937,"duration":0.9166666666666288},{"name":"F#5","midi":78,"time":225.62890625000068,"velocity":0.84251968503937,"duration":0.2252604166666572},{"name":"E5","midi":76,"time":225.86197916666734,"velocity":0.84251968503937,"duration":0.2252604166666572},{"name":"F#5","midi":78,"time":226.08984375000065,"velocity":0.84251968503937,"duration":0.2252604166666572},{"name":"G#5","midi":80,"time":226.32161458333397,"velocity":0.84251968503937,"duration":0.22526041666668561},{"name":"C4","midi":60,"time":226.552083333334,"velocity":0.84251968503937,"duration":0.9166666666666572},{"name":"F#5","midi":78,"time":226.552083333334,"velocity":0.84251968503937,"duration":0.2252604166666572},{"name":"E5","midi":76,"time":226.7838541666673,"velocity":0.84251968503937,"duration":0.2252604166666572},{"name":"D#5","midi":75,"time":227.01302083333397,"velocity":0.84251968503937,"duration":0.2252604166666572},{"name":"F#5","midi":78,"time":227.24348958333397,"velocity":0.84251968503937,"duration":0.22526041666668561},{"name":"C#4","midi":61,"time":227.473958333334,"velocity":0.84251968503937,"duration":2.3007812499999716},{"name":"E5","midi":76,"time":227.473958333334,"velocity":0.84251968503937,"duration":0.2252604166666572},{"name":"D#5","midi":75,"time":227.704427083334,"velocity":0.84251968503937,"duration":0.2252604166666572},{"name":"E5","midi":76,"time":227.934895833334,"velocity":0.84251968503937,"duration":0.2252604166666572},{"name":"F#5","midi":78,"time":228.1666666666673,"velocity":0.84251968503937,"duration":0.2252604166666572},{"name":"E5","midi":76,"time":228.3971354166673,"velocity":0.84251968503937,"duration":0.2252604166666572},{"name":"G#4","midi":68,"time":228.3971354166673,"velocity":0.84251968503937,"duration":0.9166666666666572},{"name":"D#5","midi":75,"time":228.62630208333397,"velocity":0.84251968503937,"duration":0.2252604166666572},{"name":"C#5","midi":73,"time":228.85677083333397,"velocity":0.84251968503937,"duration":0.2252604166666572},{"name":"E5","midi":76,"time":229.08723958333397,"velocity":0.84251968503937,"duration":0.2252604166666572},{"name":"D#5","midi":75,"time":229.31770833333397,"velocity":0.84251968503937,"duration":0.2252604166666572},{"name":"G4","midi":67,"time":229.31770833333397,"velocity":0.84251968503937,"duration":0.9166666666666856},{"name":"C#5","midi":73,"time":229.54817708333397,"velocity":0.84251968503937,"duration":0.2252604166666572},{"name":"B3","midi":59,"time":229.7799479166673,"velocity":0.84251968503937,"duration":0.4557291666666856},{"name":"D#5","midi":75,"time":229.7799479166673,"velocity":0.84251968503937,"duration":0.2252604166666572},{"name":"E5","midi":76,"time":230.0104166666673,"velocity":0.84251968503937,"duration":0.22526041666668561},{"name":"A#3","midi":58,"time":230.239583333334,"velocity":0.84251968503937,"duration":0.4557291666666572},{"name":"B4","midi":71,"time":230.239583333334,"velocity":0.84251968503937,"duration":0.453125},{"name":"D#5","midi":75,"time":230.239583333334,"velocity":0.84251968503937,"duration":0.2252604166666572},{"name":"C#5","midi":73,"time":230.470052083334,"velocity":0.84251968503937,"duration":0.2252604166666572},{"name":"G#3","midi":56,"time":230.7018229166673,"velocity":0.84251968503937,"duration":0.9166666666666572},{"name":"B4","midi":71,"time":230.7018229166673,"velocity":0.84251968503937,"duration":0.453125},{"name":"D#5","midi":75,"time":230.9322916666673,"velocity":0.84251968503937,"duration":0.2252604166666572},{"name":"A#4","midi":70,"time":231.1627604166673,"velocity":0.84251968503937,"duration":1.3763020833333144},{"name":"C#5","midi":73,"time":231.1627604166673,"velocity":0.84251968503937,"duration":0.2252604166666572},{"name":"B4","midi":71,"time":231.39192708333397,"velocity":0.84251968503937,"duration":0.2252604166666572},{"name":"G3","midi":55,"time":231.6236979166673,"velocity":0.84251968503937,"duration":0.2252604166666572},{"name":"C#5","midi":73,"time":231.6236979166673,"velocity":0.84251968503937,"duration":0.2252604166666572},{"name":"F3","midi":53,"time":231.85286458333397,"velocity":0.84251968503937,"duration":0.2252604166666572},{"name":"D#5","midi":75,"time":231.85286458333397,"velocity":0.84251968503937,"duration":0.2252604166666572},{"name":"G3","midi":55,"time":232.08463541666728,"velocity":0.84251968503937,"duration":0.9166666666666856},{"name":"C#5","midi":73,"time":232.08463541666728,"velocity":0.84251968503937,"duration":0.2252604166666572},{"name":"B4","midi":71,"time":232.31510416666728,"velocity":0.84251968503937,"duration":0.22526041666668561},{"name":"A#4","midi":70,"time":232.54687500000063,"velocity":0.84251968503937,"duration":0.9231770833333428},{"name":"C#5","midi":73,"time":232.77473958333397,"velocity":0.84251968503937,"duration":0.2252604166666572},{"name":"G#3","midi":56,"time":233.00520833333397,"velocity":0.84251968503937,"duration":0.2291666666666572},{"name":"B4","midi":71,"time":233.00520833333397,"velocity":0.84251968503937,"duration":1.1744791666666288},{"name":"A#3","midi":58,"time":233.23958333333397,"velocity":0.84251968503937,"duration":0.2291666666666572},{"name":"G#3","midi":56,"time":233.47265625000063,"velocity":0.84251968503937,"duration":0.2291666666666572},{"name":"D#4","midi":63,"time":233.47265625000063,"velocity":0.84251968503937,"duration":0.4622395833333144},{"name":"G3","midi":55,"time":233.70833333333394,"velocity":0.84251968503937,"duration":0.2291666666666572},{"name":"G#3","midi":56,"time":233.94270833333394,"velocity":0.84251968503937,"duration":0.2291666666666572},{"name":"G#4","midi":68,"time":233.94270833333394,"velocity":0.84251968503937,"duration":1.3984374999999147},{"name":"A3","midi":57,"time":234.1757812500006,"velocity":0.84251968503937,"duration":0.2291666666666572},{"name":"C#5","midi":73,"time":234.1757812500006,"velocity":0.84251968503937,"duration":0.2291666666666572},{"name":"B3","midi":59,"time":234.4114583333339,"velocity":0.84251968503937,"duration":0.2291666666666572},{"name":"D#5","midi":75,"time":234.4114583333339,"velocity":0.84251968503937,"duration":0.2291666666666572},{"name":"G#3","midi":56,"time":234.64322916666723,"velocity":0.84251968503937,"duration":0.2291666666666572},{"name":"B4","midi":71,"time":234.64322916666723,"velocity":0.84251968503937,"duration":0.2291666666666572},{"name":"A3","midi":57,"time":234.87890625000054,"velocity":0.84251968503937,"duration":0.2291666666666572},{"name":"C#5","midi":73,"time":234.87890625000054,"velocity":0.84251968503937,"duration":1.3984374999999716},{"name":"B3","midi":59,"time":235.1119791666672,"velocity":0.84251968503937,"duration":0.2291666666666572},{"name":"A3","midi":57,"time":235.3463541666672,"velocity":0.84251968503937,"duration":0.2291666666666572},{"name":"F#4","midi":66,"time":235.3463541666672,"velocity":0.84251968503937,"duration":0.2291666666666572},{"name":"G#3","midi":56,"time":235.5807291666672,"velocity":0.84251968503937,"duration":0.2291666666666572},{"name":"E4","midi":64,"time":235.5807291666672,"velocity":0.84251968503937,"duration":0.2291666666666572},{"name":"A#3","midi":58,"time":235.8151041666672,"velocity":0.84251968503937,"duration":0.2291666666666572},{"name":"F#4","midi":66,"time":235.8151041666672,"velocity":0.84251968503937,"duration":1.3984374999999716},{"name":"B3","midi":59,"time":236.04817708333385,"velocity":0.84251968503937,"duration":0.2291666666666572},{"name":"C#4","midi":61,"time":236.28255208333385,"velocity":0.84251968503937,"duration":0.2291666666666572},{"name":"E5","midi":76,"time":236.28255208333385,"velocity":0.84251968503937,"duration":0.4622395833333144},{"name":"A#3","midi":58,"time":236.5156250000005,"velocity":0.84251968503937,"duration":0.2291666666666572},{"name":"B3","midi":59,"time":236.7500000000005,"velocity":0.84251968503937,"duration":0.2291666666666572},{"name":"D#5","midi":75,"time":236.7500000000005,"velocity":0.84251968503937,"duration":1.3984374999999716},{"name":"C#4","midi":61,"time":236.9843750000005,"velocity":0.84251968503937,"duration":0.2291666666666572},{"name":"B3","midi":59,"time":237.2187500000005,"velocity":0.84251968503937,"duration":0.2291666666666572},{"name":"E4","midi":64,"time":237.2187500000005,"velocity":0.84251968503937,"duration":0.2291666666666572},{"name":"A#3","midi":58,"time":237.45182291666717,"velocity":0.84251968503937,"duration":0.2291666666666572},{"name":"F#4","midi":66,"time":237.45182291666717,"velocity":0.84251968503937,"duration":0.2291666666666572},{"name":"C4","midi":60,"time":237.68750000000048,"velocity":0.84251968503937,"duration":0.2291666666666572},{"name":"G#4","midi":68,"time":237.68750000000048,"velocity":0.84251968503937,"duration":2.7994791666666856},{"name":"C#4","midi":61,"time":237.92057291666714,"velocity":0.84251968503937,"duration":0.22916666666668561},{"name":"D#4","midi":63,"time":238.15364583333383,"velocity":0.84251968503937,"duration":0.2291666666666572},{"name":"F#5","midi":78,"time":238.15364583333383,"velocity":0.84251968503937,"duration":0.4622395833333428},{"name":"C4","midi":60,"time":238.38802083333383,"velocity":0.84251968503937,"duration":0.22916666666668561},{"name":"C#4","midi":61,"time":238.62239583333385,"velocity":0.84251968503937,"duration":1.8619791666666288},{"name":"E5","midi":76,"time":238.62239583333385,"velocity":0.84251968503937,"duration":2.335937499999943},{"name":"C#3","midi":49,"time":239.09114583333385,"velocity":0.84251968503937,"duration":0.2291666666666572},{"name":"D#3","midi":51,"time":239.3242187500005,"velocity":0.84251968503937,"duration":0.2291666666666572},{"name":"E3","midi":52,"time":239.55989583333383,"velocity":0.84251968503937,"duration":0.4622395833333428},{"name":"C#5","midi":73,"time":239.55989583333383,"velocity":0.84251968503937,"duration":0.9296875},{"name":"F#3","midi":54,"time":240.02473958333383,"velocity":0.84251968503937,"duration":0.4609375},{"name":"G#3","midi":56,"time":240.49218750000048,"velocity":0.84251968503937,"duration":0.2291666666666572},{"name":"C5","midi":72,"time":240.49218750000048,"velocity":0.84251968503937,"duration":0.9322916666666572},{"name":"F#3","midi":54,"time":240.72656250000048,"velocity":0.84251968503937,"duration":0.2291666666666572},{"name":"G#3","midi":56,"time":240.95963541666714,"velocity":0.84251968503937,"duration":0.2291666666666572},{"name":"D#5","midi":75,"time":240.95963541666714,"velocity":0.84251968503937,"duration":0.9322916666666288},{"name":"A3","midi":57,"time":241.19401041666714,"velocity":0.84251968503937,"duration":0.2291666666666572},{"name":"G#3","midi":56,"time":241.4270833333338,"velocity":0.84251968503937,"duration":0.2291666666666572},{"name":"E5","midi":76,"time":241.4270833333338,"velocity":0.84251968503937,"duration":0.9322916666666288},{"name":"F#3","midi":54,"time":241.6627604166671,"velocity":0.84251968503937,"duration":0.2291666666666572},{"name":"E3","midi":52,"time":241.89583333333377,"velocity":0.84251968503937,"duration":0.2291666666666572},{"name":"C#5","midi":73,"time":241.89583333333377,"velocity":0.84251968503937,"duration":0.9322916666666572},{"name":"G#3","midi":56,"time":242.13020833333377,"velocity":0.84251968503937,"duration":0.2291666666666572},{"name":"F#3","midi":54,"time":242.36458333333377,"velocity":0.84251968503937,"duration":0.2291666666666572},{"name":"D#5","midi":75,"time":242.36458333333377,"velocity":0.84251968503937,"duration":1.3984374999999716},{"name":"E3","midi":52,"time":242.59765625000043,"velocity":0.84251968503937,"duration":0.2291666666666572},{"name":"F#3","midi":54,"time":242.83203125000043,"velocity":0.84251968503937,"duration":0.2291666666666572},{"name":"C5","midi":72,"time":242.83203125000043,"velocity":0.84251968503937,"duration":0.2291666666666572},{"name":"G#3","midi":56,"time":243.06640625000043,"velocity":0.84251968503937,"duration":0.2291666666666572},{"name":"A#4","midi":70,"time":243.06640625000043,"velocity":0.84251968503937,"duration":0.2291666666666572},{"name":"F#3","midi":54,"time":243.29947916666708,"velocity":0.84251968503937,"duration":0.2291666666666572},{"name":"C5","midi":72,"time":243.29947916666708,"velocity":0.84251968503937,"duration":0.9322916666666572},{"name":"E3","midi":52,"time":243.5351562500004,"velocity":0.84251968503937,"duration":0.22916666666668561},{"name":"D#3","midi":51,"time":243.76953125000043,"velocity":0.84251968503937,"duration":0.2291666666666572},{"name":"D#5","midi":75,"time":243.76953125000043,"velocity":0.84251968503937,"duration":1.411458333333286},{"name":"F#3","midi":54,"time":244.00260416666708,"velocity":0.84251968503937,"duration":0.2291666666666572},{"name":"E3","midi":52,"time":244.23697916666708,"velocity":0.84251968503937,"duration":0.234375},{"name":"G#5","midi":80,"time":244.23697916666708,"velocity":0.84251968503937,"duration":0.234375},{"name":"D#3","midi":51,"time":244.47395833333374,"velocity":0.84251968503937,"duration":0.234375},{"name":"F#5","midi":78,"time":244.47395833333374,"velocity":0.84251968503937,"duration":0.234375},{"name":"E3","midi":52,"time":244.7109375000004,"velocity":0.84251968503937,"duration":0.234375},{"name":"G#5","midi":80,"time":244.7109375000004,"velocity":0.84251968503937,"duration":0.234375},{"name":"F#3","midi":54,"time":244.94791666666706,"velocity":0.84251968503937,"duration":0.234375},{"name":"A5","midi":81,"time":244.94791666666706,"velocity":0.84251968503937,"duration":0.234375},{"name":"E3","midi":52,"time":245.18619791666706,"velocity":0.84251968503937,"duration":0.234375},{"name":"G#5","midi":80,"time":245.18619791666706,"velocity":0.84251968503937,"duration":0.234375},{"name":"C#5","midi":73,"time":245.18619791666706,"velocity":0.84251968503937,"duration":1.8906249999999432},{"name":"A3","midi":57,"time":245.4231770833337,"velocity":0.84251968503937,"duration":0.234375},{"name":"F#5","midi":78,"time":245.4231770833337,"velocity":0.84251968503937,"duration":0.234375},{"name":"G#3","midi":56,"time":245.6614583333337,"velocity":0.84251968503937,"duration":0.234375},{"name":"E5","midi":76,"time":245.6614583333337,"velocity":0.84251968503937,"duration":0.234375},{"name":"A3","midi":57,"time":245.8997395833337,"velocity":0.84251968503937,"duration":0.234375},{"name":"G#5","midi":80,"time":245.8997395833337,"velocity":0.84251968503937,"duration":0.234375},{"name":"D#3","midi":51,"time":246.13671875000037,"velocity":0.84251968503937,"duration":0.234375},{"name":"F#5","midi":78,"time":246.13671875000037,"velocity":0.84251968503937,"duration":0.234375},{"name":"C#3","midi":49,"time":246.37369791666703,"velocity":0.84251968503937,"duration":0.234375},{"name":"E5","midi":76,"time":246.37369791666703,"velocity":0.84251968503937,"duration":0.234375},{"name":"D#3","midi":51,"time":246.61067708333368,"velocity":0.84251968503937,"duration":0.234375},{"name":"F#5","midi":78,"time":246.61067708333368,"velocity":0.84251968503937,"duration":0.234375},{"name":"E3","midi":52,"time":246.84765625000034,"velocity":0.84251968503937,"duration":0.23567708333331439},{"name":"G#5","midi":80,"time":246.84765625000034,"velocity":0.84251968503937,"duration":0.23567708333331439},{"name":"D#3","midi":51,"time":247.08723958333366,"velocity":0.84251968503937,"duration":0.234375},{"name":"F#5","midi":78,"time":247.08723958333366,"velocity":0.84251968503937,"duration":0.234375},{"name":"C5","midi":72,"time":247.08723958333366,"velocity":0.84251968503937,"duration":0.4674479166666572},{"name":"G#3","midi":56,"time":247.3242187500003,"velocity":0.84251968503937,"duration":0.234375},{"name":"E5","midi":76,"time":247.3242187500003,"velocity":0.84251968503937,"duration":0.234375},{"name":"F#3","midi":54,"time":247.56380208333366,"velocity":0.84251968503937,"duration":0.234375},{"name":"D#5","midi":75,"time":247.56380208333366,"velocity":0.84251968503937,"duration":0.234375},{"name":"B4","midi":71,"time":247.56380208333366,"velocity":0.84251968503937,"duration":0.7083333333333428},{"name":"G#3","midi":56,"time":247.799479166667,"velocity":0.84251968503937,"duration":0.234375},{"name":"F#5","midi":78,"time":247.799479166667,"velocity":0.84251968503937,"duration":0.234375},{"name":"C#3","midi":49,"time":248.03906250000034,"velocity":0.84251968503937,"duration":0.9466145833333144},{"name":"F5","midi":77,"time":248.03906250000034,"velocity":0.84251968503937,"duration":0.9466145833333144},{"name":"B4","midi":71,"time":248.27473958333366,"velocity":0.84251968503937,"duration":0.234375},{"name":"C#4","midi":61,"time":248.51302083333366,"velocity":0.84251968503937,"duration":0.4713541666666572},{"name":"C#5","midi":73,"time":248.51302083333366,"velocity":0.84251968503937,"duration":0.234375},{"name":"D5","midi":74,"time":248.7500000000003,"velocity":0.84251968503937,"duration":0.234375},{"name":"F#4","midi":66,"time":248.9882812500003,"velocity":0.84251968503937,"duration":0.4713541666666572},{"name":"C#5","midi":73,"time":248.9882812500003,"velocity":0.84251968503937,"duration":0.234375},{"name":"A5","midi":81,"time":248.9882812500003,"velocity":0.84251968503937,"duration":0.9466145833333144},{"name":"B4","midi":71,"time":249.22526041666697,"velocity":0.84251968503937,"duration":0.234375},{"name":"F#4","midi":66,"time":249.46223958333363,"velocity":0.84251968503937,"duration":0.4713541666666572},{"name":"A4","midi":69,"time":249.46223958333363,"velocity":0.84251968503937,"duration":0.234375},{"name":"C#5","midi":73,"time":249.70052083333363,"velocity":0.84251968503937,"duration":0.234375},{"name":"F#4","midi":66,"time":249.93750000000028,"velocity":0.84251968503937,"duration":0.4713541666666572},{"name":"G#5","midi":80,"time":249.93750000000028,"velocity":0.84251968503937,"duration":2.372395833333343},{"name":"B4","midi":71,"time":249.93750000000028,"velocity":0.84251968503937,"duration":0.234375},{"name":"A4","midi":69,"time":250.17578125000028,"velocity":0.84251968503937,"duration":0.234375},{"name":"F4","midi":65,"time":250.41276041666694,"velocity":0.84251968503937,"duration":0.234375},{"name":"B4","midi":71,"time":250.41276041666694,"velocity":0.84251968503937,"duration":0.234375},{"name":"D#4","midi":63,"time":250.6497395833336,"velocity":0.84251968503937,"duration":0.234375},{"name":"C#5","midi":73,"time":250.6497395833336,"velocity":0.84251968503937,"duration":0.234375},{"name":"F4","midi":65,"time":250.8880208333336,"velocity":0.84251968503937,"duration":0.9466145833333712},{"name":"B4","midi":71,"time":250.8880208333336,"velocity":0.84251968503937,"duration":0.234375},{"name":"A4","midi":69,"time":251.12369791666694,"velocity":0.84251968503937,"duration":0.234375},{"name":"G#4","midi":68,"time":251.36328125000028,"velocity":0.84251968503937,"duration":0.234375},{"name":"B4","midi":71,"time":251.59895833333363,"velocity":0.84251968503937,"duration":0.234375},{"name":"F#4","midi":66,"time":251.83854166666697,"velocity":0.84251968503937,"duration":0.9466145833333144},{"name":"A4","midi":69,"time":251.83854166666697,"velocity":0.84251968503937,"duration":1.1848958333333144},{"name":"F#3","midi":54,"time":252.31250000000028,"velocity":0.84251968503937,"duration":0.234375},{"name":"F#5","midi":78,"time":252.31250000000028,"velocity":0.84251968503937,"duration":0.234375},{"name":"G#3","midi":56,"time":252.54947916666694,"velocity":0.84251968503937,"duration":0.234375},{"name":"E5","midi":76,"time":252.54947916666694,"velocity":0.84251968503937,"duration":0.234375},{"name":"F#3","midi":54,"time":252.78776041666694,"velocity":0.84251968503937,"duration":0.9466145833333712},{"name":"A3","midi":57,"time":252.78776041666694,"velocity":0.84251968503937,"duration":0.4713541666666856},{"name":"D5","midi":74,"time":252.78776041666694,"velocity":0.84251968503937,"duration":0.234375},{"name":"C#5","midi":73,"time":253.02473958333363,"velocity":0.84251968503937,"duration":0.234375},{"name":"B3","midi":59,"time":253.26041666666697,"velocity":0.84251968503937,"duration":0.4713541666666856},{"name":"B4","midi":71,"time":253.26041666666697,"velocity":0.84251968503937,"duration":0.234375},{"name":"A4","midi":69,"time":253.5000000000003,"velocity":0.84251968503937,"duration":0.234375},{"name":"F3","midi":53,"time":253.7382812500003,"velocity":0.84251968503937,"duration":0.9466145833333144},{"name":"C#4","midi":61,"time":253.7382812500003,"velocity":0.84251968503937,"duration":0.234375},{"name":"G#4","midi":68,"time":253.7382812500003,"velocity":0.84251968503937,"duration":0.9466145833333144},{"name":"B3","midi":59,"time":253.97526041666697,"velocity":0.84251968503937,"duration":0.234375},{"name":"C#4","midi":61,"time":254.21223958333363,"velocity":0.84251968503937,"duration":0.234375},{"name":"C#5","midi":73,"time":254.21223958333363,"velocity":0.84251968503937,"duration":0.4713541666666572},{"name":"D4","midi":62,"time":254.44921875000028,"velocity":0.84251968503937,"duration":0.234375},{"name":"C#4","midi":61,"time":254.68750000000028,"velocity":0.84251968503937,"duration":0.234375},{"name":"A3","midi":57,"time":254.68750000000028,"velocity":0.84251968503937,"duration":0.4674479166666572},{"name":"F#5","midi":78,"time":254.68750000000028,"velocity":0.84251968503937,"duration":0.4713541666666572},{"name":"B3","midi":59,"time":254.92578125000028,"velocity":0.84251968503937,"duration":0.234375},{"name":"A3","midi":57,"time":255.16145833333363,"velocity":0.84251968503937,"duration":0.4674479166666572},{"name":"F#5","midi":78,"time":255.16145833333363,"velocity":0.84251968503937,"duration":0.4713541666666572},{"name":"C#4","midi":61,"time":255.39973958333363,"velocity":0.84251968503937,"duration":0.234375},{"name":"G#3","midi":56,"time":255.63802083333363,"velocity":0.84251968503937,"duration":1.4192708333333428},{"name":"B3","midi":59,"time":255.63802083333363,"velocity":0.84251968503937,"duration":0.234375},{"name":"F#5","midi":78,"time":255.63802083333363,"velocity":0.84251968503937,"duration":0.4713541666666572},{"name":"A3","midi":57,"time":255.87500000000028,"velocity":0.84251968503937,"duration":0.234375},{"name":"B3","midi":59,"time":256.11197916666697,"velocity":0.84251968503937,"duration":0.234375},{"name":"E5","midi":76,"time":256.11197916666697,"velocity":0.84251968503937,"duration":0.234375},{"name":"C#4","midi":61,"time":256.34895833333366,"velocity":0.84251968503937,"duration":0.234375},{"name":"D5","midi":74,"time":256.34895833333366,"velocity":0.84251968503937,"duration":0.234375},{"name":"B3","midi":59,"time":256.58854166666697,"velocity":0.84251968503937,"duration":0.234375},{"name":"E5","midi":76,"time":256.58854166666697,"velocity":0.84251968503937,"duration":1.4205729166666856},{"name":"A3","midi":57,"time":256.8242187500003,"velocity":0.84251968503937,"duration":0.234375},{"name":"G#3","midi":56,"time":257.06119791666697,"velocity":0.84251968503937,"duration":0.4674479166666856},{"name":"B3","midi":59,"time":257.29947916666697,"velocity":0.84251968503937,"duration":0.234375},{"name":"F#3","midi":54,"time":257.53776041666697,"velocity":0.84251968503937,"duration":1.8906250000000568},{"name":"A3","midi":57,"time":257.53776041666697,"velocity":0.84251968503937,"duration":0.234375},{"name":"G#3","midi":56,"time":257.77473958333366,"velocity":0.84251968503937,"duration":0.234375},{"name":"A3","midi":57,"time":258.01171875000034,"velocity":0.84251968503937,"duration":0.234375},{"name":"D5","midi":74,"time":258.01171875000034,"velocity":0.84251968503937,"duration":0.234375},{"name":"B3","midi":59,"time":258.25000000000034,"velocity":0.84251968503937,"duration":0.234375},{"name":"C#5","midi":73,"time":258.25000000000034,"velocity":0.84251968503937,"duration":0.234375},{"name":"A3","midi":57,"time":258.486979166667,"velocity":0.84251968503937,"duration":0.234375},{"name":"D5","midi":74,"time":258.486979166667,"velocity":0.84251968503937,"duration":1.8919270833333712},{"name":"A4","midi":69,"time":258.486979166667,"velocity":0.84251968503937,"duration":0.9479166666666856},{"name":"B3","midi":59,"time":258.725260416667,"velocity":0.84251968503937,"duration":0.234375},{"name":"C#4","midi":61,"time":258.96093750000034,"velocity":0.84251968503937,"duration":0.234375},{"name":"D4","midi":62,"time":259.19921875000034,"velocity":0.84251968503937,"duration":0.23567708333337123},{"name":"E4","midi":64,"time":259.4388020833337,"velocity":0.84251968503937,"duration":0.234375},{"name":"G#4","midi":68,"time":259.4388020833337,"velocity":0.84251968503937,"duration":0.9466145833333712},{"name":"D4","midi":62,"time":259.6770833333337,"velocity":0.84251968503937,"duration":0.234375},{"name":"E3","midi":52,"time":259.9140625000004,"velocity":0.84251968503937,"duration":0.4674479166666856},{"name":"E4","midi":64,"time":259.9140625000004,"velocity":0.84251968503937,"duration":0.234375},{"name":"F#4","midi":66,"time":260.1497395833337,"velocity":0.84251968503937,"duration":0.23437500000005684},{"name":"E4","midi":64,"time":260.3893229166671,"velocity":0.84251968503937,"duration":0.234375},{"name":"A3","midi":57,"time":260.3893229166671,"velocity":0.84251968503937,"duration":0.46744791666662877},{"name":"C#5","midi":73,"time":260.3893229166671,"velocity":0.84251968503937,"duration":0.9466145833333144},{"name":"D4","midi":62,"time":260.6250000000004,"velocity":0.84251968503937,"duration":0.234375},{"name":"C#4","midi":61,"time":260.8632812500004,"velocity":0.84251968503937,"duration":0.234375},{"name":"A3","midi":57,"time":260.8632812500004,"velocity":0.84251968503937,"duration":0.4674479166666856},{"name":"E4","midi":64,"time":261.1015625000004,"velocity":0.84251968503937,"duration":0.234375},{"name":"D4","midi":62,"time":261.3398437500004,"velocity":0.84251968503937,"duration":0.234375},{"name":"A3","midi":57,"time":261.3398437500004,"velocity":0.84251968503937,"duration":0.4674479166666856},{"name":"F#5","midi":78,"time":261.3398437500004,"velocity":0.84251968503937,"duration":0.9466145833333712},{"name":"B4","midi":71,"time":261.3398437500004,"velocity":0.84251968503937,"duration":2.3723958333333712},{"name":"C#4","midi":61,"time":261.5768229166671,"velocity":0.84251968503937,"duration":0.234375},{"name":"G#3","midi":56,"time":261.81380208333377,"velocity":0.84251968503937,"duration":0.234375},{"name":"D4","midi":62,"time":261.81380208333377,"velocity":0.84251968503937,"duration":0.234375},{"name":"F#3","midi":54,"time":262.05078125000045,"velocity":0.84251968503937,"duration":0.234375},{"name":"E4","midi":64,"time":262.05078125000045,"velocity":0.84251968503937,"duration":0.234375},{"name":"D4","midi":62,"time":262.2877604166671,"velocity":0.84251968503937,"duration":0.234375},{"name":"G#3","midi":56,"time":262.2877604166671,"velocity":0.84251968503937,"duration":0.9466145833333712},{"name":"E5","midi":76,"time":262.2877604166671,"velocity":0.84251968503937,"duration":1.4205729166666856},{"name":"C#4","midi":61,"time":262.5260416666671,"velocity":0.84251968503937,"duration":0.234375},{"name":"B3","midi":59,"time":262.76302083333377,"velocity":0.84251968503937,"duration":0.234375},{"name":"D4","midi":62,"time":263.00130208333377,"velocity":0.84251968503937,"duration":0.234375},{"name":"A3","midi":57,"time":263.23958333333377,"velocity":0.84251968503937,"duration":0.9466145833333144},{"name":"C#4","midi":61,"time":263.23958333333377,"velocity":0.84251968503937,"duration":0.234375},{"name":"B3","midi":59,"time":263.47656250000045,"velocity":0.84251968503937,"duration":0.234375},{"name":"C#4","midi":61,"time":263.7135416666671,"velocity":0.84251968503937,"duration":0.234375},{"name":"E4","midi":64,"time":263.7135416666671,"velocity":0.84251968503937,"duration":0.4674479166666856},{"name":"D4","midi":62,"time":263.95052083333377,"velocity":0.84251968503937,"duration":0.234375},{"name":"F#5","midi":78,"time":263.95052083333377,"velocity":0.84251968503937,"duration":0.234375},{"name":"C#4","midi":61,"time":264.18880208333377,"velocity":0.84251968503937,"duration":0.234375},{"name":"F#3","midi":54,"time":264.18880208333377,"velocity":0.84251968503937,"duration":0.9466145833333712},{"name":"A4","midi":69,"time":264.18880208333377,"velocity":0.84251968503937,"duration":0.4674479166666856},{"name":"E5","midi":76,"time":264.18880208333377,"velocity":0.84251968503937,"duration":0.234375},{"name":"B3","midi":59,"time":264.42578125000045,"velocity":0.84251968503937,"duration":0.234375},{"name":"D5","midi":74,"time":264.42578125000045,"velocity":0.84251968503937,"duration":0.234375},{"name":"A3","midi":57,"time":264.66276041666714,"velocity":0.84251968503937,"duration":0.234375},{"name":"C#5","midi":73,"time":264.66276041666714,"velocity":0.84251968503937,"duration":0.234375},{"name":"A4","midi":69,"time":264.66276041666714,"velocity":0.84251968503937,"duration":0.4674479166666856},{"name":"C#4","midi":61,"time":264.90104166666714,"velocity":0.84251968503937,"duration":0.234375},{"name":"E5","midi":76,"time":264.90104166666714,"velocity":0.84251968503937,"duration":0.234375},{"name":"B2","midi":47,"time":265.13932291666714,"velocity":0.84251968503937,"duration":0.9466145833333712},{"name":"B3","midi":59,"time":265.13932291666714,"velocity":0.84251968503937,"duration":1.8906250000001137},{"name":"A4","midi":69,"time":265.13932291666714,"velocity":0.84251968503937,"duration":0.4674479166666856},{"name":"D5","midi":74,"time":265.13932291666714,"velocity":0.84251968503937,"duration":0.234375},{"name":"C#5","midi":73,"time":265.3763020833338,"velocity":0.84251968503937,"duration":0.234375},{"name":"G#4","midi":68,"time":265.6132812500005,"velocity":0.84251968503937,"duration":0.234375},{"name":"D5","midi":74,"time":265.6132812500005,"velocity":0.84251968503937,"duration":0.234375},{"name":"F#4","midi":66,"time":265.8502604166672,"velocity":0.84251968503937,"duration":0.234375},{"name":"E5","midi":76,"time":265.8502604166672,"velocity":0.84251968503937,"duration":0.234375},{"name":"E3","midi":52,"time":266.0885416666672,"velocity":0.84251968503937,"duration":0.9479166666667425},{"name":"G#4","midi":68,"time":266.0885416666672,"velocity":0.84251968503937,"duration":1.4205729166667425},{"name":"D5","midi":74,"time":266.0885416666672,"velocity":0.84251968503937,"duration":0.234375},{"name":"C#5","midi":73,"time":266.3255208333339,"velocity":0.84251968503937,"duration":0.234375},{"name":"B4","midi":71,"time":266.56250000000057,"velocity":0.84251968503937,"duration":0.234375},{"name":"D5","midi":74,"time":266.80078125000057,"velocity":0.84251968503937,"duration":0.23567708333337123},{"name":"A2","midi":45,"time":267.04166666666725,"velocity":0.84251968503937,"duration":1.890625},{"name":"A3","midi":57,"time":267.04166666666725,"velocity":0.84251968503937,"duration":0.234375},{"name":"C#5","midi":73,"time":267.04166666666725,"velocity":0.84251968503937,"duration":1.890625},{"name":"G#3","midi":56,"time":267.27864583333394,"velocity":0.84251968503937,"duration":0.234375},{"name":"F#3","midi":54,"time":267.51432291666725,"velocity":0.84251968503937,"duration":0.234375},{"name":"C#4","midi":61,"time":267.51432291666725,"velocity":0.84251968503937,"duration":0.234375},{"name":"E3","midi":52,"time":267.75260416666725,"velocity":0.84251968503937,"duration":0.234375},{"name":"D#4","midi":63,"time":267.75260416666725,"velocity":0.84251968503937,"duration":0.234375},{"name":"D#3","midi":51,"time":267.98958333333394,"velocity":0.84251968503937,"duration":0.234375},{"name":"E4","midi":64,"time":267.98958333333394,"velocity":0.84251968503937,"duration":0.4713541666666856},{"name":"C#3","midi":49,"time":268.22786458333394,"velocity":0.84251968503937,"duration":0.234375},{"name":"C3","midi":48,"time":268.46354166666725,"velocity":0.84251968503937,"duration":0.234375},{"name":"F#4","midi":66,"time":268.46354166666725,"velocity":0.84251968503937,"duration":0.47265625},{"name":"C#3","midi":49,"time":268.70312500000057,"velocity":0.84251968503937,"duration":0.23567708333337123},{"name":"D#3","midi":51,"time":268.94270833333394,"velocity":0.84251968503937,"duration":0.9739583333334281},{"name":"G#2","midi":44,"time":268.94270833333394,"velocity":0.84251968503937,"duration":0.9739583333334281},{"name":"G#4","midi":68,"time":268.94270833333394,"velocity":0.84251968503937,"duration":0.24088541666668561},{"name":"C5","midi":72,"time":268.94270833333394,"velocity":0.84251968503937,"duration":0.9739583333334281},{"name":"F#4","midi":66,"time":269.2096354166673,"velocity":0.84251968503937,"duration":0.24088541666668561},{"name":"G#4","midi":68,"time":269.454427083334,"velocity":0.84251968503937,"duration":0.24088541666668561},{"name":"G#3","midi":56,"time":269.454427083334,"velocity":0.84251968503937,"duration":0.48437500000005684},{"name":"A4","midi":69,"time":269.69791666666737,"velocity":0.84251968503937,"duration":0.24088541666668561},{"name":"G#4","midi":68,"time":269.94270833333405,"velocity":0.84251968503937,"duration":0.24088541666668561},{"name":"E5","midi":76,"time":269.94270833333405,"velocity":0.84251968503937,"duration":0.9739583333333712},{"name":"C#4","midi":61,"time":269.94270833333405,"velocity":0.84251968503937,"duration":0.48437500000005684},{"name":"F#4","midi":66,"time":270.1861979166674,"velocity":0.84251968503937,"duration":0.24088541666668561},{"name":"E4","midi":64,"time":270.4309895833341,"velocity":0.84251968503937,"duration":0.24088541666668561},{"name":"C#4","midi":61,"time":270.4309895833341,"velocity":0.84251968503937,"duration":0.484375},{"name":"G#4","midi":68,"time":270.6770833333341,"velocity":0.84251968503937,"duration":0.24088541666662877},{"name":"D#5","midi":75,"time":270.91927083333405,"velocity":0.84251968503937,"duration":2.442708333333485},{"name":"F#4","midi":66,"time":270.91927083333405,"velocity":0.84251968503937,"duration":0.24088541666668561},{"name":"C#4","midi":61,"time":270.91927083333405,"velocity":0.84251968503937,"duration":0.484375},{"name":"E4","midi":64,"time":271.16536458333405,"velocity":0.84251968503937,"duration":0.24088541666668561},{"name":"F#4","midi":66,"time":271.4088541666674,"velocity":0.84251968503937,"duration":0.24088541666668561},{"name":"C4","midi":60,"time":271.4088541666674,"velocity":0.84251968503937,"duration":0.24088541666668561},{"name":"G#4","midi":68,"time":271.6523437500008,"velocity":0.84251968503937,"duration":0.24088541666668561},{"name":"A#3","midi":58,"time":271.6523437500008,"velocity":0.84251968503937,"duration":0.24088541666668561},{"name":"F#4","midi":66,"time":271.8984375000008,"velocity":0.84251968503937,"duration":0.24088541666668561},{"name":"C4","midi":60,"time":271.8984375000008,"velocity":0.84251968503937,"duration":0.9739583333334281},{"name":"E4","midi":64,"time":272.14192708333417,"velocity":0.84251968503937,"duration":0.24088541666668561},{"name":"D#4","midi":63,"time":272.38671875000085,"velocity":0.84251968503937,"duration":0.24088541666668561},{"name":"F#4","midi":66,"time":272.6302083333342,"velocity":0.84251968503937,"duration":0.24088541666668561},{"name":"E4","midi":64,"time":272.8763020833342,"velocity":0.84251968503937,"duration":0.24088541666668561},{"name":"C#4","midi":61,"time":272.8763020833342,"velocity":0.84251968503937,"duration":0.9739583333332575},{"name":"D#4","midi":63,"time":273.1223958333342,"velocity":0.84251968503937,"duration":0.24088541666662877},{"name":"E4","midi":64,"time":273.36458333333417,"velocity":0.84251968503937,"duration":0.24088541666668561},{"name":"G#4","midi":68,"time":273.36458333333417,"velocity":0.84251968503937,"duration":0.4817708333333144},{"name":"F#4","midi":66,"time":273.61067708333417,"velocity":0.84251968503937,"duration":0.24088541666662877},{"name":"E4","midi":64,"time":273.8541666666675,"velocity":0.84251968503937,"duration":0.24088541666668561},{"name":"C#5","midi":73,"time":273.8541666666675,"velocity":0.84251968503937,"duration":0.48177083333337123},{"name":"A3","midi":57,"time":273.8541666666675,"velocity":0.84251968503937,"duration":0.9739583333334281},{"name":"D#4","midi":63,"time":274.09895833333417,"velocity":0.84251968503937,"duration":0.24088541666668561},{"name":"C#5","midi":73,"time":274.34375000000085,"velocity":0.84251968503937,"duration":0.48177083333337123},{"name":"C#4","midi":61,"time":274.34375000000085,"velocity":0.84251968503937,"duration":0.24088541666668561},{"name":"E4","midi":64,"time":274.5872395833342,"velocity":0.84251968503937,"duration":0.24088541666668561},{"name":"C#5","midi":73,"time":274.8320312500009,"velocity":0.84251968503937,"duration":0.48177083333337123},{"name":"D#4","midi":63,"time":274.8320312500009,"velocity":0.84251968503937,"duration":0.24088541666668561},{"name":"F#3","midi":54,"time":274.8320312500009,"velocity":0.84251968503937,"duration":0.9739583333334281},{"name":"C#4","midi":61,"time":275.0755208333343,"velocity":0.84251968503937,"duration":0.24088541666668561},{"name":"B4","midi":71,"time":275.3216145833343,"velocity":0.84251968503937,"duration":0.24088541666668561},{"name":"D#4","midi":63,"time":275.3216145833343,"velocity":0.84251968503937,"duration":0.24088541666668561},{"name":"A4","midi":69,"time":275.56510416666765,"velocity":0.84251968503937,"duration":0.24088541666668561},{"name":"E4","midi":64,"time":275.56510416666765,"velocity":0.84251968503937,"duration":0.24088541666668561},{"name":"B4","midi":71,"time":275.808593750001,"velocity":0.84251968503937,"duration":1.9453125000000568},{"name":"D4","midi":62,"time":275.808593750001,"velocity":0.84251968503937,"duration":0.24088541666668561},{"name":"G#3","midi":56,"time":275.808593750001,"velocity":0.84251968503937,"duration":0.9739583333333144},{"name":"C#4","midi":61,"time":276.054687500001,"velocity":0.84251968503937,"duration":0.24088541666668561},{"name":"B3","midi":59,"time":276.296875000001,"velocity":0.84251968503937,"duration":0.24088541666668561},{"name":"D4","midi":62,"time":276.542968750001,"velocity":0.84251968503937,"duration":0.24088541666662877},{"name":"C#4","midi":61,"time":276.78776041666765,"velocity":0.84251968503937,"duration":0.24088541666668561},{"name":"F3","midi":53,"time":276.78776041666765,"velocity":0.84251968503937,"duration":0.9752604166667425},{"name":"B3","midi":59,"time":277.031250000001,"velocity":0.84251968503937,"duration":0.24088541666668561},{"name":"C#4","midi":61,"time":277.2760416666677,"velocity":0.84251968503937,"duration":0.24088541666668561},{"name":"C#3","midi":49,"time":277.2760416666677,"velocity":0.84251968503937,"duration":0.4869791666666856},{"name":"D4","midi":62,"time":277.5208333333344,"velocity":0.84251968503937,"duration":0.2421875},{"name":"A4","midi":69,"time":277.7669270833344,"velocity":0.84251968503937,"duration":0.9739583333333144},{"name":"C#4","midi":61,"time":277.7669270833344,"velocity":0.84251968503937,"duration":0.24088541666668561},{"name":"F#3","midi":54,"time":277.7669270833344,"velocity":0.84251968503937,"duration":0.484375},{"name":"E4","midi":64,"time":278.0117187500011,"velocity":0.84251968503937,"duration":0.24088541666662877},{"name":"D#4","midi":63,"time":278.2565104166677,"velocity":0.84251968503937,"duration":0.24088541666668561},{"name":"F#3","midi":54,"time":278.2565104166677,"velocity":0.84251968503937,"duration":0.484375},{"name":"C#4","midi":61,"time":278.5013020833344,"velocity":0.84251968503937,"duration":0.24088541666662877},{"name":"G#4","midi":68,"time":278.746093750001,"velocity":0.84251968503937,"duration":0.9908854166666856},{"name":"C4","midi":60,"time":278.746093750001,"velocity":0.84251968503937,"duration":0.9908854166666856},{"name":"G#3","midi":56,"time":278.746093750001,"velocity":0.84251968503937,"duration":1.9791666666666856},{"name":"F#3","midi":54,"time":278.746093750001,"velocity":0.84251968503937,"duration":0.4934895833333144},{"name":"E3","midi":52,"time":279.24348958333434,"velocity":0.84251968503937,"duration":0.24479166666668561},{"name":"G#2","midi":44,"time":279.24348958333434,"velocity":0.84251968503937,"duration":0.48958333333337123},{"name":"D#3","midi":51,"time":279.492187500001,"velocity":0.84251968503937,"duration":0.24348958333337123},{"name":"C#4","midi":61,"time":279.7395833333344,"velocity":0.84251968503937,"duration":0.9908854166666288},{"name":"C#3","midi":49,"time":279.7395833333344,"velocity":0.84251968503937,"duration":0.4934895833333144},{"name":"E3","midi":52,"time":279.7395833333344,"velocity":0.84251968503937,"duration":0.9908854166666288},{"name":"C#3","midi":49,"time":280.238281250001,"velocity":0.84251968503937,"duration":0.4934895833333144},{"name":"D#5","midi":75,"time":280.734375000001,"velocity":0.84251968503937,"duration":1.9843750000001137},{"name":"D#4","midi":63,"time":280.734375000001,"velocity":0.84251968503937,"duration":0.4934895833333144},{"name":"D#3","midi":51,"time":280.734375000001,"velocity":0.84251968503937,"duration":1.9843750000001137},{"name":"G3","midi":55,"time":280.734375000001,"velocity":0.84251968503937,"duration":0.9921875000000568},{"name":"C#3","midi":49,"time":280.734375000001,"velocity":0.84251968503937,"duration":0.4934895833333144},{"name":"D#4","midi":63,"time":281.234375000001,"velocity":0.84251968503937,"duration":0.49479166666674246},{"name":"B2","midi":47,"time":281.234375000001,"velocity":0.84251968503937,"duration":0.24479166666668561},{"name":"A#2","midi":46,"time":281.4817708333344,"velocity":0.84251968503937,"duration":0.24479166666668561},{"name":"G#4","midi":68,"time":281.73307291666777,"velocity":0.84251968503937,"duration":0.24479166666668561},{"name":"G#3","midi":56,"time":281.73307291666777,"velocity":0.84251968503937,"duration":0.9934895833333712},{"name":"B2","midi":47,"time":281.73307291666777,"velocity":0.84251968503937,"duration":0.24479166666668561},{"name":"A#4","midi":70,"time":281.98307291666777,"velocity":0.84251968503937,"duration":0.24479166666668561},{"name":"A#2","midi":46,"time":281.98307291666777,"velocity":0.84251968503937,"duration":0.24479166666668561},{"name":"B4","midi":71,"time":282.23307291666777,"velocity":0.84251968503937,"duration":0.9921875},{"name":"G#2","midi":44,"time":282.23307291666777,"velocity":0.84251968503937,"duration":0.24479166666668561},{"name":"B2","midi":47,"time":282.48177083333445,"velocity":0.84251968503937,"duration":0.24479166666668561},{"name":"D5","midi":74,"time":282.73046875000114,"velocity":0.84251968503937,"duration":0.9921875},{"name":"A#2","midi":46,"time":282.73046875000114,"velocity":0.84251968503937,"duration":0.24479166666668561},{"name":"F3","midi":53,"time":282.73046875000114,"velocity":0.84251968503937,"duration":0.4895833333333144},{"name":"G#2","midi":44,"time":282.98046875000114,"velocity":0.84251968503937,"duration":0.24348958333331439},{"name":"A#4","midi":70,"time":283.22916666666777,"velocity":0.84251968503937,"duration":0.4947916666666856},{"name":"A#2","midi":46,"time":283.22916666666777,"velocity":0.84251968503937,"duration":0.24479166666668561},{"name":"B2","midi":47,"time":283.47786458333445,"velocity":0.84251968503937,"duration":0.24479166666668561},{"name":"D#5","midi":75,"time":283.72786458333445,"velocity":0.84251968503937,"duration":0.4947916666666856},{"name":"F#5","midi":78,"time":283.72786458333445,"velocity":0.84251968503937,"duration":0.9934895833333712},{"name":"A#2","midi":46,"time":283.72786458333445,"velocity":0.84251968503937,"duration":0.24479166666668561},{"name":"G#2","midi":44,"time":283.9791666666678,"velocity":0.84251968503937,"duration":0.24479166666662877},{"name":"D#5","midi":75,"time":284.22786458333445,"velocity":0.84251968503937,"duration":0.4947916666666856},{"name":"F#2","midi":42,"time":284.22786458333445,"velocity":0.84251968503937,"duration":0.24479166666668561},{"name":"A#2","midi":46,"time":284.4791666666678,"velocity":0.84251968503937,"duration":0.24479166666662877},{"name":"F5","midi":77,"time":284.72786458333445,"velocity":0.84251968503937,"duration":0.9934895833333712},{"name":"D#5","midi":75,"time":284.72786458333445,"velocity":0.84251968503937,"duration":0.4947916666666856},{"name":"G#2","midi":44,"time":284.72786458333445,"velocity":0.84251968503937,"duration":0.24479166666668561},{"name":"F#2","midi":42,"time":284.97786458333445,"velocity":0.84251968503937,"duration":0.24479166666668561},{"name":"C#5","midi":73,"time":285.22786458333445,"velocity":0.84251968503937,"duration":0.24479166666668561},{"name":"G#2","midi":44,"time":285.22786458333445,"velocity":0.84251968503937,"duration":0.24479166666668561},{"name":"C5","midi":72,"time":285.47656250000114,"velocity":0.84251968503937,"duration":0.24479166666668561},{"name":"A#2","midi":46,"time":285.47656250000114,"velocity":0.84251968503937,"duration":0.24479166666668561},{"name":"C#5","midi":73,"time":285.7252604166678,"velocity":0.84251968503937,"duration":1.23828125},{"name":"E5","midi":76,"time":285.7252604166678,"velocity":0.84251968503937,"duration":0.9934895833333712},{"name":"G#2","midi":44,"time":285.7252604166678,"velocity":0.84251968503937,"duration":0.24479166666668561},{"name":"B2","midi":47,"time":285.9765625000012,"velocity":0.84251968503937,"duration":0.24479166666668561},{"name":"A#2","midi":46,"time":286.2252604166679,"velocity":0.84251968503937,"duration":0.24479166666668561},{"name":"G#2","midi":44,"time":286.4752604166679,"velocity":0.84251968503937,"duration":0.24479166666662877},{"name":"D#5","midi":75,"time":286.7252604166678,"velocity":0.84251968503937,"duration":0.24479166666668561},{"name":"G2","midi":43,"time":286.7252604166678,"velocity":0.84251968503937,"duration":0.9921875},{"name":"C#5","midi":73,"time":286.9739583333345,"velocity":0.84251968503937,"duration":0.7421875},{"name":"D#5","midi":75,"time":287.2239583333345,"velocity":0.84251968503937,"duration":0.24479166666668561},{"name":"D#3","midi":51,"time":287.2239583333345,"velocity":0.84251968503937,"duration":0.49479166666662877},{"name":"E5","midi":76,"time":287.4739583333345,"velocity":0.84251968503937,"duration":0.24479166666662877},{"name":"D#5","midi":75,"time":287.72265625000114,"velocity":0.84251968503937,"duration":0.24479166666668561},{"name":"B4","midi":71,"time":287.72265625000114,"velocity":0.84251968503937,"duration":0.4895833333333144},{"name":"G#3","midi":56,"time":287.72265625000114,"velocity":0.84251968503937,"duration":0.4934895833333144},{"name":"G#2","midi":44,"time":287.72265625000114,"velocity":0.84251968503937,"duration":0.98828125},{"name":"C#5","midi":73,"time":287.97265625000114,"velocity":0.84251968503937,"duration":0.24348958333331439},{"name":"B4","midi":71,"time":288.22005208333445,"velocity":0.84251968503937,"duration":0.48828125},{"name":"G#3","midi":56,"time":288.22005208333445,"velocity":0.84251968503937,"duration":0.4921875},{"name":"D#5","midi":75,"time":288.46875000000114,"velocity":0.84251968503937,"duration":0.24348958333331439},{"name":"A#4","midi":70,"time":288.71614583333445,"velocity":0.84251968503937,"duration":0.9934895833333712},{"name":"C#5","midi":73,"time":288.71614583333445,"velocity":0.84251968503937,"duration":0.24479166666668561},{"name":"G#3","midi":56,"time":288.71614583333445,"velocity":0.84251968503937,"duration":0.4947916666666856},{"name":"A#2","midi":46,"time":288.71614583333445,"velocity":0.84251968503937,"duration":0.9934895833333712},{"name":"B4","midi":71,"time":288.96484375000114,"velocity":0.84251968503937,"duration":0.24479166666668561},{"name":"C#5","midi":73,"time":289.21484375000114,"velocity":0.84251968503937,"duration":0.24479166666668561},{"name":"F#3","midi":54,"time":289.21484375000114,"velocity":0.84251968503937,"duration":0.24479166666668561},{"name":"D#5","midi":75,"time":289.46484375000114,"velocity":0.84251968503937,"duration":0.24479166666668561},{"name":"E3","midi":52,"time":289.46484375000114,"velocity":0.84251968503937,"duration":0.24479166666668561},{"name":"C#5","midi":73,"time":289.7135416666678,"velocity":0.84251968503937,"duration":0.24479166666668561},{"name":"A4","midi":69,"time":289.7135416666678,"velocity":0.84251968503937,"duration":1.489583333333485},{"name":"F#3","midi":54,"time":289.7135416666678,"velocity":0.84251968503937,"duration":1.2447916666667993},{"name":"D#3","midi":51,"time":289.7135416666678,"velocity":0.84251968503937,"duration":0.9934895833334281},{"name":"E5","midi":76,"time":289.9648437500012,"velocity":0.84251968503937,"duration":0.24479166666668561},{"name":"D#5","midi":75,"time":290.2135416666679,"velocity":0.84251968503937,"duration":0.24479166666668561},{"name":"C#5","midi":73,"time":290.46484375000125,"velocity":0.84251968503937,"duration":0.24479166666668561},{"name":"C5","midi":72,"time":290.71354166666794,"velocity":0.84251968503937,"duration":0.9921875000001137},{"name":"G#2","midi":44,"time":290.71354166666794,"velocity":0.84251968503937,"duration":0.9921875000001137},{"name":"A3","midi":57,"time":290.9609375000013,"velocity":0.84251968503937,"duration":0.24479166666668561},{"name":"D#4","midi":63,"time":291.2122395833347,"velocity":0.84251968503937,"duration":0.4947916666666856},{"name":"G#3","midi":56,"time":291.2122395833347,"velocity":0.84251968503937,"duration":0.24479166666668561},{"name":"F#3","midi":54,"time":291.45963541666805,"velocity":0.84251968503937,"duration":0.24479166666668561},{"name":"B4","midi":71,"time":291.70963541666805,"velocity":0.84251968503937,"duration":0.9934895833333144},{"name":"G#4","midi":68,"time":291.70963541666805,"velocity":0.84251968503937,"duration":0.4947916666666856},{"name":"F3","midi":53,"time":291.70963541666805,"velocity":0.84251968503937,"duration":0.24479166666668561},{"name":"D#3","midi":51,"time":291.95963541666805,"velocity":0.84251968503937,"duration":0.24479166666668561},{"name":"G#4","midi":68,"time":292.20963541666805,"velocity":0.84251968503937,"duration":0.9934895833333712},{"name":"F3","midi":53,"time":292.20963541666805,"velocity":0.84251968503937,"duration":0.24479166666668561},{"name":"C#3","midi":49,"time":292.45963541666805,"velocity":0.84251968503937,"duration":0.24479166666662877},{"name":"A#4","midi":70,"time":292.71093750000136,"velocity":0.84251968503937,"duration":0.9934895833334281},{"name":"F#3","midi":54,"time":292.71093750000136,"velocity":0.84251968503937,"duration":0.24479166666668561},{"name":"F3","midi":53,"time":292.95833333333474,"velocity":0.84251968503937,"duration":0.24479166666668561},{"name":"F#4","midi":66,"time":293.2096354166681,"velocity":0.84251968503937,"duration":0.24479166666668561},{"name":"F#3","midi":54,"time":293.2096354166681,"velocity":0.84251968503937,"duration":0.24479166666668561},{"name":"F4","midi":65,"time":293.4596354166681,"velocity":0.84251968503937,"duration":0.24479166666668561},{"name":"G#3","midi":56,"time":293.4596354166681,"velocity":0.84251968503937,"duration":0.24479166666668561},{"name":"F#4","midi":66,"time":293.7096354166681,"velocity":0.84251968503937,"duration":1.9947916666666856},{"name":"A4","midi":69,"time":293.7096354166681,"velocity":0.84251968503937,"duration":0.9934895833333712},{"name":"A3","midi":57,"time":293.7096354166681,"velocity":0.84251968503937,"duration":0.24479166666668561},{"name":"G#3","midi":56,"time":293.9583333333348,"velocity":0.84251968503937,"duration":0.24479166666668561},{"name":"A3","midi":57,"time":294.2083333333348,"velocity":0.84251968503937,"duration":0.24479166666668561},{"name":"B3","midi":59,"time":294.4570312500015,"velocity":0.84251968503937,"duration":0.24479166666668561},{"name":"C#2","midi":37,"time":294.7304687500015,"velocity":0.84251968503937,"duration":2.006510416666572},{"name":"G#4","midi":68,"time":294.7304687500015,"velocity":0.84251968503937,"duration":1.0013020833333144},{"name":"C#4","midi":61,"time":294.7304687500015,"velocity":0.84251968503937,"duration":0.24609375},{"name":"C4","midi":60,"time":294.9817708333348,"velocity":0.84251968503937,"duration":0.24609375},{"name":"C#4","midi":61,"time":295.2317708333348,"velocity":0.84251968503937,"duration":0.24609375},{"name":"D#4","midi":63,"time":295.4843750000015,"velocity":0.84251968503937,"duration":0.24609375},{"name":"E4","midi":64,"time":295.7369791666681,"velocity":0.84251968503937,"duration":0.4947916666666856},{"name":"D#4","midi":63,"time":295.9869791666681,"velocity":0.84251968503937,"duration":0.24609375},{"name":"E4","midi":64,"time":296.2382812500014,"velocity":0.84251968503937,"duration":0.49479166666662877},{"name":"F#4","midi":66,"time":296.48958333333474,"velocity":0.84251968503937,"duration":0.24609375},{"name":"C2","midi":36,"time":296.74218750000136,"velocity":0.84251968503937,"duration":1.0013020833333712},{"name":"D#4","midi":63,"time":296.74218750000136,"velocity":0.84251968503937,"duration":1.0013020833333712},{"name":"G#4","midi":68,"time":296.74218750000136,"velocity":0.84251968503937,"duration":0.24609375},{"name":"F#4","midi":66,"time":296.99218750000136,"velocity":0.84251968503937,"duration":0.24609375},{"name":"G#2","midi":44,"time":297.24479166666805,"velocity":0.84251968503937,"duration":0.4986979166666856},{"name":"G#4","midi":68,"time":297.24479166666805,"velocity":0.84251968503937,"duration":0.24609375},{"name":"A4","midi":69,"time":297.49739583333474,"velocity":0.84251968503937,"duration":0.24609375},{"name":"E2","midi":40,"time":297.7460937500014,"velocity":0.84251968503937,"duration":1.0013020833333144},{"name":"C#3","midi":49,"time":297.7460937500014,"velocity":0.84251968503937,"duration":0.49869791666662877},{"name":"G#4","midi":68,"time":297.7460937500014,"velocity":0.84251968503937,"duration":0.24609375},{"name":"C#4","midi":61,"time":297.7460937500014,"velocity":0.84251968503937,"duration":1.0013020833333144},{"name":"F#4","midi":66,"time":297.99739583333474,"velocity":0.84251968503937,"duration":0.24609375},{"name":"C#3","midi":49,"time":298.25000000000136,"velocity":0.84251968503937,"duration":0.4986979166666856},{"name":"E4","midi":64,"time":298.25000000000136,"velocity":0.84251968503937,"duration":0.24609375},{"name":"G#4","midi":68,"time":298.50260416666805,"velocity":0.84251968503937,"duration":0.24609375},{"name":"C#3","midi":49,"time":298.75390625000136,"velocity":0.84251968503937,"duration":0.4986979166666856},{"name":"D#2","midi":39,"time":298.75390625000136,"velocity":0.84251968503937,"duration":2.0013020833333144},{"name":"D#4","midi":63,"time":298.75390625000136,"velocity":0.84251968503937,"duration":1.5026041666666856},{"name":"F#4","midi":66,"time":298.75390625000136,"velocity":0.84251968503937,"duration":0.24609375},{"name":"E4","midi":64,"time":299.00390625000136,"velocity":0.84251968503937,"duration":0.24609375},{"name":"C3","midi":48,"time":299.25651041666805,"velocity":0.84251968503937,"duration":0.24609375},{"name":"F#4","midi":66,"time":299.25651041666805,"velocity":0.84251968503937,"duration":0.24609375},{"name":"A#2","midi":46,"time":299.50651041666805,"velocity":0.84251968503937,"duration":0.24609375},{"name":"G#4","midi":68,"time":299.50651041666805,"velocity":0.84251968503937,"duration":0.24609375},{"name":"C3","midi":48,"time":299.75911458333474,"velocity":0.84251968503937,"duration":0.9999999999999432},{"name":"F#4","midi":66,"time":299.75911458333474,"velocity":0.84251968503937,"duration":0.24609375},{"name":"E4","midi":64,"time":300.00911458333474,"velocity":0.84251968503937,"duration":0.24609375},{"name":"D#4","midi":63,"time":300.26171875000136,"velocity":0.84251968503937,"duration":0.5169270833333144},{"name":"F#4","midi":66,"time":300.5208333333347,"velocity":0.84251968503937,"duration":0.25390625},{"name":"C#2","midi":37,"time":300.7786458333347,"velocity":0.84251968503937,"duration":0.49869791666662877},{"name":"C#3","midi":49,"time":300.7786458333347,"velocity":0.84251968503937,"duration":1.0013020833333144},{"name":"E4","midi":64,"time":300.7786458333347,"velocity":0.84251968503937,"duration":0.24609375},{"name":"C#5","midi":73,"time":300.7786458333347,"velocity":0.84251968503937,"duration":2.0013020833333712},{"name":"D#4","midi":63,"time":301.037760416668,"velocity":0.84251968503937,"duration":0.24609375},{"name":"E4","midi":64,"time":301.2890625000013,"velocity":0.84251968503937,"duration":0.24609375},{"name":"C#2","midi":37,"time":301.2890625000013,"velocity":0.84251968503937,"duration":0.24609375},{"name":"F#4","midi":66,"time":301.5390625000013,"velocity":0.84251968503937,"duration":0.24609375},{"name":"D#2","midi":39,"time":301.5390625000013,"velocity":0.84251968503937,"duration":0.24609375},{"name":"E4","midi":64,"time":301.791666666668,"velocity":0.84251968503937,"duration":0.24609375},{"name":"E2","midi":40,"time":301.791666666668,"velocity":0.84251968503937,"duration":0.4986979166666856},{"name":"D#4","midi":63,"time":302.041666666668,"velocity":0.84251968503937,"duration":0.24609375},{"name":"C#4","midi":61,"time":302.2942708333347,"velocity":0.84251968503937,"duration":0.24609375},{"name":"F#2","midi":42,"time":302.2942708333347,"velocity":0.84251968503937,"duration":0.4986979166666856},{"name":"E4","midi":64,"time":302.54687500000136,"velocity":0.84251968503937,"duration":0.24609375},{"name":"C5","midi":72,"time":302.7981770833347,"velocity":0.84251968503937,"duration":1.0013020833333144},{"name":"D#4","midi":63,"time":302.7981770833347,"velocity":0.84251968503937,"duration":1.0013020833333144},{"name":"G#2","midi":44,"time":302.7981770833347,"velocity":0.84251968503937,"duration":0.24609375},{"name":"F#2","midi":42,"time":303.0481770833347,"velocity":0.84251968503937,"duration":0.24609375},{"name":"G#4","midi":68,"time":303.299479166668,"velocity":0.84251968503937,"duration":0.4986979166666856},{"name":"G#2","midi":44,"time":303.299479166668,"velocity":0.84251968503937,"duration":0.24609375},{"name":"A2","midi":45,"time":303.5520833333347,"velocity":0.84251968503937,"duration":0.24609375},{"name":"C#5","midi":73,"time":303.8046875000013,"velocity":0.84251968503937,"duration":0.4986979166666856},{"name":"E5","midi":76,"time":303.8046875000013,"velocity":0.84251968503937,"duration":1.0013020833333712},{"name":"G#2","midi":44,"time":303.8046875000013,"velocity":0.84251968503937,"duration":0.24609375},{"name":"F#2","midi":42,"time":304.053385416668,"velocity":0.84251968503937,"duration":0.24609375},{"name":"C#5","midi":73,"time":304.3059895833347,"velocity":0.84251968503937,"duration":0.4986979166666856},{"name":"E2","midi":40,"time":304.3059895833347,"velocity":0.84251968503937,"duration":0.24609375},{"name":"G#2","midi":44,"time":304.55859375000136,"velocity":0.84251968503937,"duration":0.24609375},{"name":"D#5","midi":75,"time":304.80859375000136,"velocity":0.84251968503937,"duration":1.5026041666666856},{"name":"C#5","midi":73,"time":304.80859375000136,"velocity":0.84251968503937,"duration":0.4986979166666856},{"name":"F#2","midi":42,"time":304.80859375000136,"velocity":0.84251968503937,"duration":0.24609375},{"name":"E2","midi":40,"time":305.05859375000136,"velocity":0.84251968503937,"duration":0.24609375},{"name":"C5","midi":72,"time":305.31119791666805,"velocity":0.84251968503937,"duration":0.24609375},{"name":"F#2","midi":42,"time":305.31119791666805,"velocity":0.84251968503937,"duration":0.24609375},{"name":"A#4","midi":70,"time":305.56380208333474,"velocity":0.84251968503937,"duration":0.24609375},{"name":"G#2","midi":44,"time":305.56380208333474,"velocity":0.84251968503937,"duration":0.24609375},{"name":"C5","midi":72,"time":305.81510416666805,"velocity":0.84251968503937,"duration":0.24609375},{"name":"F#2","midi":42,"time":305.81510416666805,"velocity":0.84251968503937,"duration":0.24609375},{"name":"C#5","midi":73,"time":306.06640625000136,"velocity":0.84251968503937,"duration":0.24609375},{"name":"E2","midi":40,"time":306.06640625000136,"velocity":0.84251968503937,"duration":0.24609375},{"name":"D#5","midi":75,"time":306.3177083333347,"velocity":0.84251968503937,"duration":1.5026041666666288},{"name":"D#2","midi":39,"time":306.3177083333347,"velocity":0.84251968503937,"duration":0.24609375},{"name":"C5","midi":72,"time":306.5677083333347,"velocity":0.84251968503937,"duration":0.24609375},{"name":"F#2","midi":42,"time":306.5677083333347,"velocity":0.84251968503937,"duration":0.24609375},{"name":"G#4","midi":68,"time":306.82031250000136,"velocity":0.84251968503937,"duration":0.24609375},{"name":"E2","midi":40,"time":306.82031250000136,"velocity":0.84251968503937,"duration":0.49869791666662877},{"name":"F#4","midi":66,"time":307.0716145833347,"velocity":0.84251968503937,"duration":0.24609375},{"name":"G#4","midi":68,"time":307.3242187500013,"velocity":0.84251968503937,"duration":0.24609375},{"name":"E3","midi":52,"time":307.3242187500013,"velocity":0.84251968503937,"duration":0.4986979166666856},{"name":"A4","midi":69,"time":307.5742187500013,"velocity":0.84251968503937,"duration":0.24609375},{"name":"G#4","midi":68,"time":307.826822916668,"velocity":0.84251968503937,"duration":0.24609375},{"name":"C#5","midi":73,"time":307.826822916668,"velocity":0.84251968503937,"duration":1.0013020833333144},{"name":"A3","midi":57,"time":307.826822916668,"velocity":0.84251968503937,"duration":0.4986979166666856},{"name":"F#4","midi":66,"time":308.0794270833347,"velocity":0.84251968503937,"duration":0.24609375},{"name":"E4","midi":64,"time":308.32812500000136,"velocity":0.84251968503937,"duration":0.24609375},{"name":"A3","midi":57,"time":308.32812500000136,"velocity":0.84251968503937,"duration":0.49869791666662877},{"name":"G#4","midi":68,"time":308.5794270833347,"velocity":0.84251968503937,"duration":0.24609375},{"name":"F#4","midi":66,"time":308.8320312500013,"velocity":0.84251968503937,"duration":0.24609375},{"name":"C#5","midi":73,"time":308.8320312500013,"velocity":0.84251968503937,"duration":1.0013020833333712},{"name":"A3","midi":57,"time":308.8320312500013,"velocity":0.84251968503937,"duration":0.4986979166666856},{"name":"E4","midi":64,"time":309.084635416668,"velocity":0.84251968503937,"duration":0.24609375},{"name":"F#4","midi":66,"time":309.334635416668,"velocity":0.84251968503937,"duration":0.24609375},{"name":"G#3","midi":56,"time":309.334635416668,"velocity":0.84251968503937,"duration":0.24609375},{"name":"G#4","midi":68,"time":309.5872395833347,"velocity":0.84251968503937,"duration":0.24609375},{"name":"F#3","midi":54,"time":309.5872395833347,"velocity":0.84251968503937,"duration":0.24609375},{"name":"F#4","midi":66,"time":309.838541666668,"velocity":0.84251968503937,"duration":0.24609375},{"name":"C5","midi":72,"time":309.838541666668,"velocity":0.84251968503937,"duration":1.0013020833333712},{"name":"G#3","midi":56,"time":309.838541666668,"velocity":0.84251968503937,"duration":0.4986979166666856},{"name":"E4","midi":64,"time":310.088541666668,"velocity":0.84251968503937,"duration":0.24609375},{"name":"D#4","midi":63,"time":310.33984375000136,"velocity":0.84251968503937,"duration":0.24609375},{"name":"G#2","midi":44,"time":310.33984375000136,"velocity":0.84251968503937,"duration":0.4986979166666856},{"name":"F#4","midi":66,"time":310.59244791666805,"velocity":0.84251968503937,"duration":0.24609375},{"name":"E4","midi":64,"time":310.8450520833347,"velocity":0.84251968503937,"duration":0.24609375},{"name":"C#3","midi":49,"time":310.8450520833347,"velocity":0.84251968503937,"duration":2.0013020833333712},{"name":"G#4","midi":68,"time":311.0950520833347,"velocity":0.84251968503937,"duration":0.24609375},{"name":"C#5","midi":73,"time":311.346354166668,"velocity":0.84251968503937,"duration":0.24609375},{"name":"A4","midi":69,"time":311.346354166668,"velocity":0.84251968503937,"duration":0.24609375},{"name":"B2","midi":47,"time":311.346354166668,"velocity":0.84251968503937,"duration":0.4986979166666856},{"name":"D#5","midi":75,"time":311.5989583333347,"velocity":0.84251968503937,"duration":0.24609375},{"name":"B4","midi":71,"time":311.5989583333347,"velocity":0.84251968503937,"duration":0.24609375},{"name":"E5","midi":76,"time":311.8489583333347,"velocity":0.84251968503937,"duration":0.4947916666666856},{"name":"C#5","midi":73,"time":311.8489583333347,"velocity":0.84251968503937,"duration":0.24609375},{"name":"A2","midi":45,"time":311.8489583333347,"velocity":0.84251968503937,"duration":1.0000000000000568},{"name":"D#5","midi":75,"time":312.10156250000136,"velocity":0.84251968503937,"duration":0.24609375},{"name":"C5","midi":72,"time":312.35156250000136,"velocity":0.84251968503937,"duration":0.24609375},{"name":"F#5","midi":78,"time":312.35156250000136,"velocity":0.84251968503937,"duration":0.49348958333337123},{"name":"C#5","midi":73,"time":312.60416666666805,"velocity":0.84251968503937,"duration":0.24479166666668561},{"name":"D#5","midi":75,"time":312.85416666666805,"velocity":0.84251968503937,"duration":0.4947916666666856},{"name":"G#5","midi":80,"time":312.85416666666805,"velocity":0.84251968503937,"duration":0.2708333333333144},{"name":"G#2","midi":44,"time":312.85416666666805,"velocity":0.84251968503937,"duration":0.4986979166666856},{"name":"C3","midi":48,"time":312.85416666666805,"velocity":0.84251968503937,"duration":1.0013020833333712},{"name":"F#5","midi":78,"time":313.12760416666805,"velocity":0.84251968503937,"duration":0.24609375},{"name":"G#3","midi":56,"time":313.38020833333474,"velocity":0.84251968503937,"duration":0.4986979166666856},{"name":"G#5","midi":80,"time":313.38020833333474,"velocity":0.84251968503937,"duration":0.24609375},{"name":"A5","midi":81,"time":313.63020833333474,"velocity":0.84251968503937,"duration":0.24609375},{"name":"E3","midi":52,"time":313.8815104166681,"velocity":0.84251968503937,"duration":1.0013020833332575},{"name":"C#4","midi":61,"time":313.8815104166681,"velocity":0.84251968503937,"duration":0.49869791666662877},{"name":"G#5","midi":80,"time":313.8815104166681,"velocity":0.84251968503937,"duration":0.24609375},{"name":"F#5","midi":78,"time":314.1328125000014,"velocity":0.84251968503937,"duration":0.24609375},{"name":"C#4","midi":61,"time":314.38541666666805,"velocity":0.84251968503937,"duration":0.49869791666662877},{"name":"E5","midi":76,"time":314.38541666666805,"velocity":0.84251968503937,"duration":0.24609375},{"name":"G#5","midi":80,"time":314.63671875000136,"velocity":0.84251968503937,"duration":0.24609375},{"name":"C#4","midi":61,"time":314.8880208333347,"velocity":0.84251968503937,"duration":0.4986979166666856},{"name":"D#3","midi":51,"time":314.8880208333347,"velocity":0.84251968503937,"duration":2.001302083333428},{"name":"F#5","midi":78,"time":314.8880208333347,"velocity":0.84251968503937,"duration":0.24609375},{"name":"E5","midi":76,"time":315.14062500000136,"velocity":0.84251968503937,"duration":0.24609375},{"name":"C4","midi":60,"time":315.38932291666805,"velocity":0.84251968503937,"duration":0.24609375},{"name":"F#5","midi":78,"time":315.38932291666805,"velocity":0.84251968503937,"duration":0.24609375},{"name":"A#3","midi":58,"time":315.64192708333474,"velocity":0.84251968503937,"duration":0.24609375},{"name":"G#5","midi":80,"time":315.64192708333474,"velocity":0.84251968503937,"duration":0.24609375},{"name":"C4","midi":60,"time":315.8945312500014,"velocity":0.84251968503937,"duration":1.0013020833333144},{"name":"F#5","midi":78,"time":315.8945312500014,"velocity":0.84251968503937,"duration":0.24609375},{"name":"E5","midi":76,"time":316.14583333333474,"velocity":0.84251968503937,"duration":0.24609375},{"name":"D#5","midi":75,"time":316.39583333333474,"velocity":0.84251968503937,"duration":0.24609375},{"name":"F#5","midi":78,"time":316.6484375000014,"velocity":0.84251968503937,"duration":0.24609375},{"name":"C#4","midi":61,"time":316.90104166666805,"velocity":0.84251968503937,"duration":1.0013020833333712},{"name":"C#3","midi":49,"time":316.90104166666805,"velocity":0.84251968503937,"duration":0.4986979166666856},{"name":"E5","midi":76,"time":316.90104166666805,"velocity":0.84251968503937,"duration":0.24609375},{"name":"D#5","midi":75,"time":317.15104166666805,"velocity":0.84251968503937,"duration":0.24609375},{"name":"E3","midi":52,"time":317.40104166666805,"velocity":0.84251968503937,"duration":0.4986979166666856},{"name":"E5","midi":76,"time":317.40104166666805,"velocity":0.84251968503937,"duration":0.24609375},{"name":"F#5","midi":78,"time":317.65364583333474,"velocity":0.84251968503937,"duration":0.24609375},{"name":"C#4","midi":61,"time":317.9062500000014,"velocity":0.84251968503937,"duration":0.49869791666662877},{"name":"A3","midi":57,"time":317.9062500000014,"velocity":0.84251968503937,"duration":0.49869791666662877},{"name":"E5","midi":76,"time":317.9062500000014,"velocity":0.84251968503937,"duration":0.24609375},{"name":"D5","midi":74,"time":318.15755208333474,"velocity":0.84251968503937,"duration":0.24609375},{"name":"C#4","midi":61,"time":318.40755208333474,"velocity":0.84251968503937,"duration":0.4986979166666856},{"name":"A3","midi":57,"time":318.40755208333474,"velocity":0.84251968503937,"duration":0.4986979166666856},{"name":"C#5","midi":73,"time":318.40755208333474,"velocity":0.84251968503937,"duration":0.24609375},{"name":"E5","midi":76,"time":318.6601562500014,"velocity":0.84251968503937,"duration":0.24609375},{"name":"B3","midi":59,"time":318.9101562500014,"velocity":0.84251968503937,"duration":1.5026041666666288},{"name":"A3","midi":57,"time":318.9101562500014,"velocity":0.84251968503937,"duration":0.4986979166666856},{"name":"D5","midi":74,"time":318.9101562500014,"velocity":0.84251968503937,"duration":0.24609375},{"name":"C#5","midi":73,"time":319.1627604166681,"velocity":0.84251968503937,"duration":0.24609375},{"name":"G#3","midi":56,"time":319.4140625000014,"velocity":0.84251968503937,"duration":0.24609375},{"name":"F#4","midi":66,"time":319.4140625000014,"velocity":0.84251968503937,"duration":0.49479166666662877},{"name":"D5","midi":74,"time":319.4140625000014,"velocity":0.84251968503937,"duration":0.24609375},{"name":"F#3","midi":54,"time":319.66536458333474,"velocity":0.84251968503937,"duration":0.24609375},{"name":"E5","midi":76,"time":319.66536458333474,"velocity":0.84251968503937,"duration":0.24609375},{"name":"G#3","midi":56,"time":319.91666666666805,"velocity":0.84251968503937,"duration":2.0013020833333712},{"name":"D5","midi":74,"time":319.91666666666805,"velocity":0.84251968503937,"duration":0.24609375},{"name":"B4","midi":71,"time":319.91666666666805,"velocity":0.84251968503937,"duration":0.4947916666666856},{"name":"C#5","midi":73,"time":320.16927083333474,"velocity":0.84251968503937,"duration":0.24609375},{"name":"B4","midi":71,"time":320.42057291666805,"velocity":0.84251968503937,"duration":0.24609375},{"name":"F#4","midi":66,"time":320.42057291666805,"velocity":0.84251968503937,"duration":0.4947916666666856},{"name":"D5","midi":74,"time":320.67057291666805,"velocity":0.84251968503937,"duration":0.24609375},{"name":"C#5","midi":73,"time":320.92187500000136,"velocity":0.84251968503937,"duration":0.24609375},{"name":"F4","midi":65,"time":320.92187500000136,"velocity":0.84251968503937,"duration":1.0013020833333712},{"name":"B4","midi":71,"time":320.92187500000136,"velocity":0.84251968503937,"duration":0.24609375},{"name":"B4","midi":71,"time":321.17447916666805,"velocity":0.84251968503937,"duration":0.24609375},{"name":"C#3","midi":49,"time":321.42708333333474,"velocity":0.84251968503937,"duration":0.4986979166666856},{"name":"C#5","midi":73,"time":321.42708333333474,"velocity":0.84251968503937,"duration":0.24609375},{"name":"A4","midi":69,"time":321.42708333333474,"velocity":0.84251968503937,"duration":0.24609375},{"name":"D5","midi":74,"time":321.67708333333474,"velocity":0.84251968503937,"duration":0.24609375},{"name":"G#4","midi":68,"time":321.67708333333474,"velocity":0.84251968503937,"duration":0.24609375},{"name":"F#3","midi":54,"time":321.9296875000014,"velocity":0.84251968503937,"duration":0.49869791666662877},{"name":"A4","midi":69,"time":321.9296875000014,"velocity":0.84251968503937,"duration":0.49479166666662877},{"name":"C#5","midi":73,"time":321.9296875000014,"velocity":0.84251968503937,"duration":0.24609375},{"name":"F#4","midi":66,"time":321.9296875000014,"velocity":0.84251968503937,"duration":1.0013020833332575},{"name":"B4","midi":71,"time":322.18098958333474,"velocity":0.84251968503937,"duration":0.24609375},{"name":"F#3","midi":54,"time":322.43098958333474,"velocity":0.84251968503937,"duration":0.49869791666662877},{"name":"A4","midi":69,"time":322.43098958333474,"velocity":0.84251968503937,"duration":0.49479166666662877},{"name":"C#5","midi":73,"time":322.68229166666805,"velocity":0.84251968503937,"duration":0.24609375},{"name":"F#3","midi":54,"time":322.9348958333347,"velocity":0.84251968503937,"duration":0.49869791666662877},{"name":"B3","midi":59,"time":322.9348958333347,"velocity":0.84251968503937,"duration":1.0013020833332575},{"name":"G#3","midi":56,"time":322.9348958333347,"velocity":0.84251968503937,"duration":2.0013020833332007},{"name":"B4","midi":71,"time":322.9348958333347,"velocity":0.84251968503937,"duration":0.24609375},{"name":"G#4","midi":68,"time":322.9348958333347,"velocity":0.84251968503937,"duration":1.502604166666572},{"name":"A4","midi":69,"time":323.186197916668,"velocity":0.84251968503937,"duration":0.24609375},{"name":"F3","midi":53,"time":323.4375000000013,"velocity":0.84251968503937,"duration":0.24609375},{"name":"B4","midi":71,"time":323.4375000000013,"velocity":0.84251968503937,"duration":0.24609375},{"name":"D#3","midi":51,"time":323.6888020833346,"velocity":0.84251968503937,"duration":0.24609375},{"name":"C#5","midi":73,"time":323.6888020833346,"velocity":0.84251968503937,"duration":0.24609375},{"name":"F3","midi":53,"time":323.94140625000125,"velocity":0.84251968503937,"duration":1},{"name":"C#4","midi":61,"time":323.94140625000125,"velocity":0.84251968503937,"duration":2.2473958333333144},{"name":"B4","midi":71,"time":323.94140625000125,"velocity":0.84251968503937,"duration":0.24609375},{"name":"A4","midi":69,"time":324.19140625000125,"velocity":0.84251968503937,"duration":0.24609375},{"name":"G#4","midi":68,"time":324.44270833333456,"velocity":0.84251968503937,"duration":0.4934895833333144},{"name":"B4","midi":71,"time":324.6940104166679,"velocity":0.84251968503937,"duration":0.24479166666668561},{"name":"A3","midi":57,"time":324.94531250000125,"velocity":0.84251968503937,"duration":1.0013020833333712},{"name":"F#3","midi":54,"time":324.94531250000125,"velocity":0.84251968503937,"duration":1.0013020833333712},{"name":"A4","midi":69,"time":324.94531250000125,"velocity":0.84251968503937,"duration":0.140625},{"name":"G#4","midi":68,"time":325.02864583333456,"velocity":0.84251968503937,"duration":0.07942708333337123},{"name":"A4","midi":69,"time":325.11197916666794,"velocity":0.84251968503937,"duration":0.8359375},{"name":"G#4","midi":68,"time":325.1966145833346,"velocity":0.84251968503937,"duration":0.24609375},{"name":"F#4","midi":66,"time":325.4466145833346,"velocity":0.84251968503937,"duration":0.24609375},{"name":"F4","midi":65,"time":325.6992187500013,"velocity":0.84251968503937,"duration":0.24609375},{"name":"F#3","midi":54,"time":325.94921875000125,"velocity":0.84251968503937,"duration":1.2539062499998863},{"name":"F#4","midi":66,"time":325.94921875000125,"velocity":0.84251968503937,"duration":1.0013020833332575},{"name":"C#4","midi":61,"time":326.2018229166679,"velocity":0.84251968503937,"duration":0.24609375},{"name":"B3","midi":59,"time":326.4531250000012,"velocity":0.84251968503937,"duration":0.24609375},{"name":"A3","midi":57,"time":326.7044270833345,"velocity":0.84251968503937,"duration":0.24609375},{"name":"G#3","midi":56,"time":326.9557291666678,"velocity":0.84251968503937,"duration":2.0013020833332575},{"name":"G#4","midi":68,"time":326.9557291666678,"velocity":0.84251968503937,"duration":1.252604166666572},{"name":"C#5","midi":73,"time":326.9557291666678,"velocity":0.84251968503937,"duration":2.0013020833332575},{"name":"F#3","midi":54,"time":327.20833333333445,"velocity":0.84251968503937,"duration":0.24609375},{"name":"E3","midi":52,"time":327.45963541666777,"velocity":0.84251968503937,"duration":0.24609375},{"name":"D#3","midi":51,"time":327.70963541666777,"velocity":0.84251968503937,"duration":0.24609375},{"name":"E3","midi":52,"time":327.9609375000011,"velocity":0.84251968503937,"duration":0.49869791666662877},{"name":"G#4","midi":68,"time":328.2135416666677,"velocity":0.84251968503937,"duration":0.24609375},{"name":"C#3","midi":49,"time":328.4661458333344,"velocity":0.84251968503937,"duration":0.4986979166666856},{"name":"F#4","midi":66,"time":328.4661458333344,"velocity":0.84251968503937,"duration":0.24609375},{"name":"E4","midi":64,"time":328.7161458333344,"velocity":0.84251968503937,"duration":0.24609375},{"name":"G#3","midi":56,"time":328.9687500000011,"velocity":0.84251968503937,"duration":1.022135416666572},{"name":"D#4","midi":63,"time":328.9687500000011,"velocity":0.84251968503937,"duration":0.2513020833333144},{"name":"C5","midi":72,"time":328.9687500000011,"velocity":0.84251968503937,"duration":1.022135416666572},{"name":"A4","midi":69,"time":329.2239583333344,"velocity":0.84251968503937,"duration":0.2513020833333144},{"name":"G#2","midi":44,"time":329.480468750001,"velocity":0.84251968503937,"duration":0.5078125},{"name":"G#4","midi":68,"time":329.480468750001,"velocity":0.84251968503937,"duration":0.2513020833333144},{"name":"F#4","midi":66,"time":329.738281250001,"velocity":0.84251968503937,"duration":0.2513020833333144},{"name":"G#3","midi":56,"time":329.99609375000097,"velocity":0.84251968503937,"duration":1.022135416666515},{"name":"C#3","midi":49,"time":329.99609375000097,"velocity":0.84251968503937,"duration":0.5078124999999432},{"name":"E4","midi":64,"time":329.99609375000097,"velocity":0.84251968503937,"duration":0.2513020833333144},{"name":"E5","midi":76,"time":329.99609375000097,"velocity":0.84251968503937,"duration":1.022135416666515},{"name":"G#4","midi":68,"time":330.2513020833343,"velocity":0.84251968503937,"duration":0.2513020833333144},{"name":"C#3","midi":49,"time":330.5091145833342,"velocity":0.84251968503937,"duration":0.5078124999999432},{"name":"C#5","midi":73,"time":330.5091145833342,"velocity":0.84251968503937,"duration":0.2513020833333144},{"name":"B4","midi":71,"time":330.76562500000085,"velocity":0.84251968503937,"duration":0.2513020833333144},{"name":"F#3","midi":54,"time":331.02083333333417,"velocity":0.84251968503937,"duration":1.022135416666572},{"name":"C#3","midi":49,"time":331.02083333333417,"velocity":0.84251968503937,"duration":0.5078125},{"name":"A4","midi":69,"time":331.02083333333417,"velocity":0.84251968503937,"duration":0.2513020833333144},{"name":"D#5","midi":75,"time":331.02083333333417,"velocity":0.84251968503937,"duration":2.565104166666515},{"name":"G#4","midi":68,"time":331.27864583333417,"velocity":0.84251968503937,"duration":0.2513020833333144},{"name":"C3","midi":48,"time":331.5338541666675,"velocity":0.84251968503937,"duration":0.2513020833333144},{"name":"A4","midi":69,"time":331.5338541666675,"velocity":0.84251968503937,"duration":0.2513020833333144},{"name":"A#2","midi":46,"time":331.7903645833341,"velocity":0.84251968503937,"duration":0.2513020833333144},{"name":"F#4","midi":66,"time":331.7903645833341,"velocity":0.84251968503937,"duration":0.2513020833333144},{"name":"C3","midi":48,"time":332.04817708333405,"velocity":0.84251968503937,"duration":0.2513020833333144},{"name":"D#3","midi":51,"time":332.04817708333405,"velocity":0.84251968503937,"duration":0.5052083333333144},{"name":"G#4","midi":68,"time":332.04817708333405,"velocity":0.84251968503937,"duration":1.5364583333333144},{"name":"C#3","midi":49,"time":332.3046875000007,"velocity":0.84251968503937,"duration":0.25130208333337123},{"name":"D#3","midi":51,"time":332.56250000000074,"velocity":0.84251968503937,"duration":0.5052083333333144},{"name":"C3","midi":48,"time":332.81640625000074,"velocity":0.84251968503937,"duration":0.2513020833333144},{"name":"E2","midi":40,"time":333.07421875000074,"velocity":0.84251968503937,"duration":1.022135416666572},{"name":"E3","midi":52,"time":333.07421875000074,"velocity":0.84251968503937,"duration":0.2513020833333144},{"name":"D#3","midi":51,"time":333.33203125000074,"velocity":0.84251968503937,"duration":0.2513020833333144},{"name":"E3","midi":52,"time":333.587239583334,"velocity":0.84251968503937,"duration":0.2513020833333144},{"name":"C#5","midi":73,"time":333.587239583334,"velocity":0.84251968503937,"duration":0.5052083333333144},{"name":"F#3","midi":54,"time":333.845052083334,"velocity":0.84251968503937,"duration":0.2513020833333144},{"name":"C5","midi":72,"time":333.845052083334,"velocity":0.84251968503937,"duration":0.2513020833333144},{"name":"E3","midi":52,"time":334.102864583334,"velocity":0.84251968503937,"duration":0.2513020833333144},{"name":"G#5","midi":80,"time":334.102864583334,"velocity":0.84251968503937,"duration":0.5078124999999432},{"name":"C#5","midi":73,"time":334.102864583334,"velocity":0.84251968503937,"duration":1.5364583333332007},{"name":"D#3","midi":51,"time":334.3593750000006,"velocity":0.84251968503937,"duration":0.2513020833333144},{"name":"C#3","midi":49,"time":334.61588541666725,"velocity":0.84251968503937,"duration":0.2513020833333144},{"name":"A2","midi":45,"time":334.61588541666725,"velocity":0.84251968503937,"duration":0.5052083333333144},{"name":"G#5","midi":80,"time":334.61588541666725,"velocity":0.84251968503937,"duration":0.5078125},{"name":"E3","midi":52,"time":334.8723958333339,"velocity":0.84251968503937,"duration":0.25130208333337123},{"name":"D#2","midi":39,"time":335.12890625000057,"velocity":0.84251968503937,"duration":1.0234374999998863},{"name":"D#3","midi":51,"time":335.12890625000057,"velocity":0.84251968503937,"duration":0.2513020833333144},{"name":"G#5","midi":80,"time":335.12890625000057,"velocity":0.84251968503937,"duration":0.5104166666666288},{"name":"C#3","midi":49,"time":335.3854166666672,"velocity":0.84251968503937,"duration":0.2526041666666856},{"name":"D#3","midi":51,"time":335.6445312500005,"velocity":0.84251968503937,"duration":0.2513020833333144},{"name":"A#4","midi":70,"time":335.6445312500005,"velocity":0.84251968503937,"duration":0.5052083333333144},{"name":"F#5","midi":78,"time":335.6445312500005,"velocity":0.84251968503937,"duration":0.2513020833333144},{"name":"E3","midi":52,"time":335.8997395833338,"velocity":0.84251968503937,"duration":0.2513020833333144},{"name":"E5","midi":76,"time":335.8997395833338,"velocity":0.84251968503937,"duration":0.2513020833333144},{"name":"D#3","midi":51,"time":336.15625000000045,"velocity":0.84251968503937,"duration":0.2513020833333144},{"name":"F#5","midi":78,"time":336.15625000000045,"velocity":0.84251968503937,"duration":1.0221354166666288},{"name":"D#5","midi":75,"time":336.15625000000045,"velocity":0.84251968503937,"duration":0.5078125},{"name":"C#3","midi":49,"time":336.41406250000045,"velocity":0.84251968503937,"duration":0.2513020833333144},{"name":"C3","midi":48,"time":336.66927083333377,"velocity":0.84251968503937,"duration":0.2513020833333144},{"name":"G#2","midi":44,"time":336.66927083333377,"velocity":0.84251968503937,"duration":0.5052083333333144},{"name":"D#5","midi":75,"time":336.66927083333377,"velocity":0.84251968503937,"duration":0.5078125},{"name":"D#3","midi":51,"time":336.92708333333377,"velocity":0.84251968503937,"duration":0.2513020833333144},{"name":"C#2","midi":37,"time":337.1822916666671,"velocity":0.84251968503937,"duration":0.5104166666666856},{"name":"C#3","midi":49,"time":337.1822916666671,"velocity":0.84251968503937,"duration":0.5104166666666856},{"name":"E5","midi":76,"time":337.1822916666671,"velocity":0.84251968503937,"duration":2.046874999999943},{"name":"D#5","midi":75,"time":337.1822916666671,"velocity":0.84251968503937,"duration":0.5104166666666856},{"name":"C#5","midi":73,"time":337.7213541666671,"velocity":0.84251968503937,"duration":0.2513020833333144},{"name":"E3","midi":52,"time":337.7213541666671,"velocity":0.84251968503937,"duration":0.5078124999999432},{"name":"B4","midi":71,"time":337.9778645833337,"velocity":0.84251968503937,"duration":0.2513020833333144},{"name":"C#5","midi":73,"time":338.23437500000034,"velocity":0.84251968503937,"duration":1.0247395833333712},{"name":"A3","midi":57,"time":338.23437500000034,"velocity":0.84251968503937,"duration":0.5104166666666856},{"name":"A3","midi":57,"time":338.75000000000034,"velocity":0.84251968503937,"duration":0.5104166666666856},{"name":"B4","midi":71,"time":339.26562500000034,"velocity":0.84251968503937,"duration":1.0234375},{"name":"D#5","midi":75,"time":339.26562500000034,"velocity":0.84251968503937,"duration":1.0234375},{"name":"A3","midi":57,"time":339.26562500000034,"velocity":0.84251968503937,"duration":0.5104166666666856},{"name":"B3","midi":59,"time":339.779947916667,"velocity":0.84251968503937,"duration":0.5052083333333144},{"name":"G3","midi":55,"time":339.779947916667,"velocity":0.84251968503937,"duration":0.2513020833333144},{"name":"F#3","midi":54,"time":340.037760416667,"velocity":0.84251968503937,"duration":0.2513020833333144},{"name":"B4","midi":71,"time":340.29427083333366,"velocity":0.84251968503937,"duration":1.0247395833333144},{"name":"G5","midi":79,"time":340.29427083333366,"velocity":0.84251968503937,"duration":1.0247395833333144},{"name":"E3","midi":52,"time":340.29427083333366,"velocity":0.84251968503937,"duration":1.0247395833333144},{"name":"E4","midi":64,"time":340.29427083333366,"velocity":0.84251968503937,"duration":0.5104166666666856},{"name":"E4","midi":64,"time":340.80989583333366,"velocity":0.84251968503937,"duration":0.5104166666666288},{"name":"F#5","midi":78,"time":341.3242187500003,"velocity":0.84251968503937,"duration":1.0234375},{"name":"A#4","midi":70,"time":341.3242187500003,"velocity":0.84251968503937,"duration":1.0234375},{"name":"E4","midi":64,"time":341.3242187500003,"velocity":0.84251968503937,"duration":0.5104166666666856},{"name":"D4","midi":62,"time":341.8398437500003,"velocity":0.84251968503937,"duration":0.2513020833333144},{"name":"F#3","midi":54,"time":341.8398437500003,"velocity":0.84251968503937,"duration":0.5052083333333144},{"name":"C#4","midi":61,"time":342.0937500000003,"velocity":0.84251968503937,"duration":0.2513020833333144},{"name":"F#4","midi":66,"time":342.3515625000003,"velocity":0.84251968503937,"duration":1.0247395833333144},{"name":"D5","midi":74,"time":342.3515625000003,"velocity":0.84251968503937,"duration":1.0247395833333144},{"name":"B3","midi":59,"time":342.3515625000003,"velocity":0.84251968503937,"duration":0.5104166666666856},{"name":"B3","midi":59,"time":342.8671875000003,"velocity":0.84251968503937,"duration":0.5104166666666288},{"name":"C#5","midi":73,"time":343.3828125000002,"velocity":0.84251968503937,"duration":2.045572916666515},{"name":"F4","midi":65,"time":343.3828125000002,"velocity":0.84251968503937,"duration":1.0234374999999432},{"name":"B3","midi":59,"time":343.3828125000002,"velocity":0.84251968503937,"duration":0.5104166666666856},{"name":"C#4","midi":61,"time":343.8971354166669,"velocity":0.84251968503937,"duration":0.5078124999999432},{"name":"A3","midi":57,"time":343.8971354166669,"velocity":0.84251968503937,"duration":0.2513020833333144},{"name":"G#3","midi":56,"time":344.15364583333354,"velocity":0.84251968503937,"duration":0.2513020833333144},{"name":"F#4","midi":66,"time":344.4114583333335,"velocity":0.84251968503937,"duration":0.5078124999999432},{"name":"A4","midi":69,"time":344.4114583333335,"velocity":0.84251968503937,"duration":1.0234374999999432},{"name":"A3","midi":57,"time":344.4114583333335,"velocity":0.84251968503937,"duration":0.2513020833333144},{"name":"C#3","midi":49,"time":344.4114583333335,"velocity":0.84251968503937,"duration":1.0234374999999432},{"name":"G#3","midi":56,"time":344.6679687500001,"velocity":0.84251968503937,"duration":0.2513020833333144},{"name":"F#4","midi":66,"time":344.92447916666674,"velocity":0.84251968503937,"duration":0.5104166666666856},{"name":"F#3","midi":54,"time":344.92447916666674,"velocity":0.84251968503937,"duration":0.2513020833333144},{"name":"E3","midi":52,"time":345.18229166666674,"velocity":0.84251968503937,"duration":0.2526041666666856},{"name":"G#4","midi":68,"time":345.44010416666674,"velocity":0.84251968503937,"duration":0.53125},{"name":"F#4","midi":66,"time":345.44010416666674,"velocity":0.84251968503937,"duration":0.53125},{"name":"D#3","midi":51,"time":345.44010416666674,"velocity":0.84251968503937,"duration":1.0677083333333144},{"name":"C3","midi":48,"time":345.44010416666674,"velocity":0.84251968503937,"duration":1.0677083333333144},{"name":"G#4","midi":68,"time":345.97656250000006,"velocity":0.84251968503937,"duration":0.52734375},{"name":"E4","midi":64,"time":345.97656250000006,"velocity":0.84251968503937,"duration":0.265625},{"name":"D#4","midi":63,"time":346.24479166666674,"velocity":0.84251968503937,"duration":0.2630208333333144},{"name":"E4","midi":64,"time":346.51302083333337,"velocity":0.84251968503937,"duration":0.53125},{"name":"C#5","midi":73,"time":346.51302083333337,"velocity":0.84251968503937,"duration":0.53125},{"name":"E3","midi":52,"time":346.51302083333337,"velocity":0.84251968503937,"duration":1.0677083333333144},{"name":"C#5","midi":73,"time":347.0494791666667,"velocity":0.84251968503937,"duration":0.53125},{"name":"E4","midi":64,"time":347.0494791666667,"velocity":0.84251968503937,"duration":0.53125},{"name":"G#3","midi":56,"time":347.0494791666667,"velocity":0.84251968503937,"duration":0.53125},{"name":"C#5","midi":73,"time":347.58333333333337,"velocity":0.84251968503937,"duration":0.53125},{"name":"F#4","midi":66,"time":347.58333333333337,"velocity":0.84251968503937,"duration":0.53125},{"name":"D#4","midi":63,"time":347.58333333333337,"velocity":0.84251968503937,"duration":0.53125},{"name":"D#3","midi":51,"time":347.58333333333337,"velocity":0.84251968503937,"duration":2.1354166666666856},{"name":"F#4","midi":66,"time":348.1197916666667,"velocity":0.84251968503937,"duration":0.52734375},{"name":"C5","midi":72,"time":348.1197916666667,"velocity":0.84251968503937,"duration":0.265625},{"name":"D#4","midi":63,"time":348.1197916666667,"velocity":0.84251968503937,"duration":0.53125},{"name":"A#4","midi":70,"time":348.390625,"velocity":0.84251968503937,"duration":0.26302083333337123},{"name":"F#5","midi":78,"time":348.65625000000006,"velocity":0.84251968503937,"duration":0.52734375},{"name":"C5","midi":72,"time":348.65625000000006,"velocity":0.84251968503937,"duration":0.265625},{"name":"F#4","midi":66,"time":348.65625000000006,"velocity":0.84251968503937,"duration":0.8020833333333144},{"name":"D#4","midi":63,"time":348.65625000000006,"velocity":0.84251968503937,"duration":0.53125},{"name":"C#5","midi":73,"time":348.92578125000006,"velocity":0.84251968503937,"duration":0.2630208333333144},{"name":"F#5","midi":78,"time":349.19270833333337,"velocity":0.84251968503937,"duration":0.5286458333333712},{"name":"D#5","midi":75,"time":349.19270833333337,"velocity":0.84251968503937,"duration":0.5286458333333712},{"name":"C#4","midi":61,"time":349.19270833333337,"velocity":0.84251968503937,"duration":0.265625},{"name":"G#4","midi":68,"time":349.46093750000006,"velocity":0.84251968503937,"duration":0.265625},{"name":"C4","midi":60,"time":349.46093750000006,"velocity":0.84251968503937,"duration":0.265625},{"name":"F#5","midi":78,"time":349.72916666666674,"velocity":0.84251968503937,"duration":0.5481770833333144},{"name":"D#5","midi":75,"time":349.72916666666674,"velocity":0.84251968503937,"duration":0.5481770833333144},{"name":"A4","midi":69,"time":349.72916666666674,"velocity":0.84251968503937,"duration":0.5481770833333144},{"name":"C#4","midi":61,"time":349.72916666666674,"velocity":0.84251968503937,"duration":1.09765625},{"name":"C#3","midi":49,"time":349.72916666666674,"velocity":0.84251968503937,"duration":0.5481770833333144},{"name":"C#5","midi":73,"time":350.28125000000006,"velocity":0.84251968503937,"duration":0.2721354166666856},{"name":"G#4","midi":68,"time":350.28125000000006,"velocity":0.84251968503937,"duration":0.2721354166666856},{"name":"E5","midi":76,"time":350.28125000000006,"velocity":0.84251968503937,"duration":0.2721354166666856},{"name":"E3","midi":52,"time":350.28125000000006,"velocity":0.84251968503937,"duration":0.5481770833333712},{"name":"D#5","midi":75,"time":350.55859375000006,"velocity":0.84251968503937,"duration":0.2721354166666856},{"name":"C5","midi":72,"time":350.55859375000006,"velocity":0.84251968503937,"duration":0.2721354166666856},{"name":"F#4","midi":66,"time":350.55859375000006,"velocity":0.84251968503937,"duration":0.2721354166666856},{"name":"C#5","midi":73,"time":350.83463541666674,"velocity":0.84251968503937,"duration":0.82421875},{"name":"E5","midi":76,"time":350.83463541666674,"velocity":0.84251968503937,"duration":0.5481770833333144},{"name":"G#4","midi":68,"time":350.83463541666674,"velocity":0.84251968503937,"duration":0.5481770833333144},{"name":"A3","midi":57,"time":350.83463541666674,"velocity":0.84251968503937,"duration":0.5481770833333144},{"name":"C#4","midi":61,"time":350.83463541666674,"velocity":0.84251968503937,"duration":0.5481770833333144},{"name":"D#5","midi":75,"time":351.38411458333337,"velocity":0.84251968503937,"duration":0.2721354166666856},{"name":"F#4","midi":66,"time":351.38411458333337,"velocity":0.84251968503937,"duration":0.2721354166666856},{"name":"A3","midi":57,"time":351.38411458333337,"velocity":0.84251968503937,"duration":0.5481770833333712},{"name":"C#4","midi":61,"time":351.38411458333337,"velocity":0.84251968503937,"duration":0.5481770833333712},{"name":"C#5","midi":73,"time":351.6614583333334,"velocity":0.84251968503937,"duration":0.27213541666662877},{"name":"E4","midi":64,"time":351.6614583333334,"velocity":0.84251968503937,"duration":0.27213541666662877},{"name":"F#4","midi":66,"time":351.93750000000006,"velocity":0.84251968503937,"duration":1.0976562499999432},{"name":"D#5","midi":75,"time":351.93750000000006,"velocity":0.84251968503937,"duration":0.5481770833333144},{"name":"D#4","midi":63,"time":351.93750000000006,"velocity":0.84251968503937,"duration":1.0976562499999432},{"name":"A3","midi":57,"time":351.93750000000006,"velocity":0.84251968503937,"duration":0.5481770833333144},{"name":"C4","midi":60,"time":351.93750000000006,"velocity":0.84251968503937,"duration":1.0976562499999432},{"name":"C5","midi":72,"time":352.4908854166667,"velocity":0.84251968503937,"duration":0.5481770833333144},{"name":"G#3","midi":56,"time":352.4908854166667,"velocity":0.84251968503937,"duration":0.2721354166666856},{"name":"F#3","midi":54,"time":352.7643229166667,"velocity":0.84251968503937,"duration":0.27213541666662877},{"name":"E4","midi":64,"time":353.0403645833333,"velocity":0.84251968503937,"duration":2.200520833333428},{"name":"C#5","midi":73,"time":353.0403645833333,"velocity":0.84251968503937,"duration":2.200520833333428},{"name":"G#4","midi":68,"time":353.0403645833333,"velocity":0.84251968503937,"duration":2.200520833333428},{"name":"E3","midi":52,"time":353.0403645833333,"velocity":0.84251968503937,"duration":0.2721354166666856},{"name":"D#3","midi":51,"time":353.3177083333333,"velocity":0.84251968503937,"duration":0.2721354166666856},{"name":"C#3","midi":49,"time":353.59375,"velocity":0.84251968503937,"duration":0.2721354166666856},{"name":"B2","midi":47,"time":353.86848958333337,"velocity":0.84251968503937,"duration":0.2721354166666856},{"name":"A#2","midi":46,"time":354.14453125000006,"velocity":0.84251968503937,"duration":1.0963541666666856},{"name":"C#3","midi":49,"time":354.69401041666674,"velocity":0.84251968503937,"duration":0.5481770833333144},{"name":"C#5","midi":73,"time":355.24609375000006,"velocity":0.84251968503937,"duration":1.0976562499999432},{"name":"F#4","midi":66,"time":355.24609375000006,"velocity":0.84251968503937,"duration":1.0976562499999432},{"name":"D#4","midi":63,"time":355.24609375000006,"velocity":0.84251968503937,"duration":0.5481770833333144},{"name":"F#3","midi":54,"time":355.24609375000006,"velocity":0.84251968503937,"duration":0.5481770833333144},{"name":"A2","midi":45,"time":355.24609375000006,"velocity":0.84251968503937,"duration":1.6497395833333144},{"name":"C#4","midi":61,"time":355.7994791666667,"velocity":0.84251968503937,"duration":0.5481770833333144},{"name":"F#3","midi":54,"time":355.7994791666667,"velocity":0.84251968503937,"duration":0.5481770833333144},{"name":"F#4","midi":66,"time":356.3502604166667,"velocity":0.84251968503937,"duration":0.8242187500000568},{"name":"D#4","midi":63,"time":356.3502604166667,"velocity":0.84251968503937,"duration":0.5481770833333712},{"name":"C5","midi":72,"time":356.3502604166667,"velocity":0.84251968503937,"duration":1.0976562500000568},{"name":"F#3","midi":54,"time":356.3502604166667,"velocity":0.84251968503937,"duration":0.5481770833333712},{"name":"F4","midi":65,"time":356.90234375000006,"velocity":0.84251968503937,"duration":0.2721354166666856},{"name":"G#2","midi":44,"time":356.90234375000006,"velocity":0.84251968503937,"duration":0.2721354166666856},{"name":"F3","midi":53,"time":356.90234375000006,"velocity":0.84251968503937,"duration":0.2721354166666856},{"name":"F#4","midi":66,"time":357.1770833333334,"velocity":0.84251968503937,"duration":0.27213541666662877},{"name":"D#3","midi":51,"time":357.1770833333334,"velocity":0.84251968503937,"duration":0.27213541666662877},{"name":"F#2","midi":42,"time":357.1770833333334,"velocity":0.84251968503937,"duration":0.27213541666662877},{"name":"B4","midi":71,"time":357.45312500000006,"velocity":0.84251968503937,"duration":1.0976562499999432},{"name":"G#4","midi":68,"time":357.45312500000006,"velocity":0.84251968503937,"duration":0.5481770833333144},{"name":"C#3","midi":49,"time":357.45312500000006,"velocity":0.84251968503937,"duration":2.1966145833333144},{"name":"F2","midi":41,"time":357.45312500000006,"velocity":0.84251968503937,"duration":1.0976562499999432},{"name":"G#4","midi":68,"time":358.0065104166667,"velocity":0.84251968503937,"duration":0.5481770833333144},{"name":"A#4","midi":70,"time":358.5572916666667,"velocity":0.84251968503937,"duration":1.09765625},{"name":"G#4","midi":68,"time":358.5572916666667,"velocity":0.84251968503937,"duration":0.5481770833333144},{"name":"F#2","midi":42,"time":358.5572916666667,"velocity":0.84251968503937,"duration":2.1940104166666856},{"name":"F#4","midi":66,"time":359.109375,"velocity":0.84251968503937,"duration":0.2721354166666856},{"name":"C#4","midi":61,"time":359.109375,"velocity":0.84251968503937,"duration":0.5442708333333712},{"name":"E4","midi":64,"time":359.3854166666667,"velocity":0.84251968503937,"duration":0.2721354166666856},{"name":"D#4","midi":63,"time":359.66145833333337,"velocity":0.84251968503937,"duration":0.5481770833333144},{"name":"F#4","midi":66,"time":359.66145833333337,"velocity":0.84251968503937,"duration":0.5481770833333144},{"name":"A4","midi":69,"time":359.66145833333337,"velocity":0.84251968503937,"duration":1.0963541666666856},{"name":"D#3","midi":51,"time":359.66145833333337,"velocity":0.84251968503937,"duration":1.6484375000000568},{"name":"F#4","midi":66,"time":360.2135416666667,"velocity":0.84251968503937,"duration":0.5468750000000568},{"name":"C#4","midi":61,"time":360.2135416666667,"velocity":0.84251968503937,"duration":0.5468750000000568},{"name":"G#4","midi":68,"time":360.7630208333334,"velocity":0.84251968503937,"duration":1.09765625},{"name":"C4","midi":60,"time":360.7630208333334,"velocity":0.84251968503937,"duration":1.09765625},{"name":"F#4","midi":66,"time":360.7630208333334,"velocity":0.84251968503937,"duration":0.5481770833333144},{"name":"G#2","midi":44,"time":360.7630208333334,"velocity":0.84251968503937,"duration":2.1940104166666288},{"name":"E4","midi":64,"time":361.31510416666674,"velocity":0.84251968503937,"duration":0.2721354166666856},{"name":"D#3","midi":51,"time":361.31510416666674,"velocity":0.84251968503937,"duration":0.5481770833333144},{"name":"D#4","midi":63,"time":361.5898437500001,"velocity":0.84251968503937,"duration":0.27213541666662877},{"name":"E4","midi":64,"time":361.86718750000006,"velocity":0.84251968503937,"duration":1.0963541666666856},{"name":"G#4","midi":68,"time":361.86718750000006,"velocity":0.84251968503937,"duration":1.0963541666666856},{"name":"C#4","midi":61,"time":361.86718750000006,"velocity":0.84251968503937,"duration":1.0963541666666856},{"name":"G#3","midi":56,"time":361.86718750000006,"velocity":0.84251968503937,"duration":0.5481770833333144},{"name":"G#3","midi":56,"time":362.41796875000006,"velocity":0.84251968503937,"duration":0.546875},{"name":"E4","midi":64,"time":362.96875000000006,"velocity":0.84251968503937,"duration":0.5481770833333144},{"name":"A#4","midi":70,"time":362.96875000000006,"velocity":0.84251968503937,"duration":1.09765625},{"name":"C#4","midi":61,"time":362.96875000000006,"velocity":0.84251968503937,"duration":1.09765625},{"name":"G#2","midi":44,"time":362.96875000000006,"velocity":0.84251968503937,"duration":2.1940104166666288},{"name":"G#3","midi":56,"time":362.96875000000006,"velocity":0.84251968503937,"duration":0.5481770833333144},{"name":"F#4","midi":66,"time":363.52083333333337,"velocity":0.84251968503937,"duration":0.2721354166666856},{"name":"F#3","midi":54,"time":363.52083333333337,"velocity":0.84251968503937,"duration":0.2721354166666856},{"name":"G#4","midi":68,"time":363.79557291666674,"velocity":0.84251968503937,"duration":0.27213541666662877},{"name":"E3","midi":52,"time":363.79557291666674,"velocity":0.84251968503937,"duration":0.27213541666662877},{"name":"A4","midi":69,"time":364.07161458333337,"velocity":0.84251968503937,"duration":0.5481770833333144},{"name":"C5","midi":72,"time":364.07161458333337,"velocity":0.84251968503937,"duration":1.0963541666666288},{"name":"D#4","midi":63,"time":364.07161458333337,"velocity":0.84251968503937,"duration":1.0963541666666288},{"name":"F#3","midi":54,"time":364.07161458333337,"velocity":0.84251968503937,"duration":0.5481770833333144},{"name":"G#4","midi":68,"time":364.6236979166667,"velocity":0.84251968503937,"duration":0.546875},{"name":"F#3","midi":54,"time":364.6236979166667,"velocity":0.84251968503937,"duration":0.546875},{"name":"C#5","midi":73,"time":365.1744791666667,"velocity":0.84251968503937,"duration":2.1966145833333712},{"name":"C#4","midi":61,"time":365.1744791666667,"velocity":0.84251968503937,"duration":0.5481770833333144},{"name":"G#4","midi":68,"time":365.1744791666667,"velocity":0.84251968503937,"duration":0.5481770833333144},{"name":"F#3","midi":54,"time":365.1744791666667,"velocity":0.84251968503937,"duration":0.5481770833333144},{"name":"G#2","midi":44,"time":365.1744791666667,"velocity":0.84251968503937,"duration":2.7565104166666856},{"name":"C#4","midi":61,"time":365.7265625,"velocity":0.84251968503937,"duration":0.5481770833333712},{"name":"E4","midi":64,"time":365.7265625,"velocity":0.84251968503937,"duration":0.5481770833333712},{"name":"E3","midi":52,"time":365.7265625,"velocity":0.84251968503937,"duration":0.2721354166666856},{"name":"D#3","midi":51,"time":366.00130208333337,"velocity":0.84251968503937,"duration":0.2721354166666856},{"name":"F#4","midi":66,"time":366.2760416666667,"velocity":0.84251968503937,"duration":0.5481770833333144},{"name":"C#4","midi":61,"time":366.2760416666667,"velocity":0.84251968503937,"duration":0.5481770833333144},{"name":"A4","midi":69,"time":366.2760416666667,"velocity":0.84251968503937,"duration":0.5481770833333144},{"name":"E3","midi":52,"time":366.2760416666667,"velocity":0.84251968503937,"duration":0.5481770833333144},{"name":"F#4","midi":66,"time":366.8307291666667,"velocity":0.84251968503937,"duration":0.5481770833333712},{"name":"A4","midi":69,"time":366.8307291666667,"velocity":0.84251968503937,"duration":0.5481770833333712},{"name":"C#4","midi":61,"time":366.8307291666667,"velocity":0.84251968503937,"duration":0.5481770833333712},{"name":"D#3","midi":51,"time":366.8307291666667,"velocity":0.84251968503937,"duration":0.2721354166666856},{"name":"C#3","midi":49,"time":367.10546875000006,"velocity":0.84251968503937,"duration":0.2721354166666856},{"name":"C5","midi":72,"time":367.38151041666674,"velocity":0.84251968503937,"duration":1.09765625},{"name":"F#4","midi":66,"time":367.38151041666674,"velocity":0.84251968503937,"duration":0.5481770833333144},{"name":"A4","midi":69,"time":367.38151041666674,"velocity":0.84251968503937,"duration":0.5481770833333144},{"name":"D#3","midi":51,"time":367.38151041666674,"velocity":0.84251968503937,"duration":1.09765625},{"name":"E4","midi":64,"time":367.9322916666667,"velocity":0.84251968503937,"duration":0.2721354166666856},{"name":"G#4","midi":68,"time":367.9322916666667,"velocity":0.84251968503937,"duration":0.2721354166666856},{"name":"G#2","midi":44,"time":367.9322916666667,"velocity":0.84251968503937,"duration":1.6497395833333712},{"name":"F#4","midi":66,"time":368.20703125000006,"velocity":0.84251968503937,"duration":0.2721354166666856},{"name":"D#4","midi":63,"time":368.20703125000006,"velocity":0.84251968503937,"duration":0.2721354166666856},{"name":"E5","midi":76,"time":368.4856770833334,"velocity":0.84251968503937,"duration":1.0976562499999432},{"name":"E4","midi":64,"time":368.4856770833334,"velocity":0.84251968503937,"duration":0.5481770833333144},{"name":"G#4","midi":68,"time":368.4856770833334,"velocity":0.84251968503937,"duration":0.5481770833333144},{"name":"C#3","midi":49,"time":368.4856770833334,"velocity":0.84251968503937,"duration":0.5481770833333144},{"name":"A#4","midi":70,"time":369.03776041666674,"velocity":0.84251968503937,"duration":0.2721354166666856},{"name":"F#4","midi":66,"time":369.03776041666674,"velocity":0.84251968503937,"duration":0.2721354166666856},{"name":"C#3","midi":49,"time":369.03776041666674,"velocity":0.84251968503937,"duration":0.5481770833333144},{"name":"G#4","midi":68,"time":369.31119791666674,"velocity":0.84251968503937,"duration":0.27213541666662877},{"name":"C5","midi":72,"time":369.31119791666674,"velocity":0.84251968503937,"duration":0.27213541666662877},{"name":"C#5","midi":73,"time":369.58723958333337,"velocity":0.84251968503937,"duration":1.1393229166666856},{"name":"E5","midi":76,"time":369.58723958333337,"velocity":0.84251968503937,"duration":1.1393229166666856},{"name":"A#4","midi":70,"time":369.58723958333337,"velocity":0.84251968503937,"duration":1.1393229166666856},{"name":"G2","midi":43,"time":369.58723958333337,"velocity":0.84251968503937,"duration":2.2760416666667425},{"name":"C#3","midi":49,"time":369.58723958333337,"velocity":0.84251968503937,"duration":0.56640625},{"name":"B2","midi":47,"time":370.16015625000006,"velocity":0.84251968503937,"duration":0.2825520833333144},{"name":"A#2","midi":46,"time":370.44661458333337,"velocity":0.84251968503937,"duration":0.28255208333337123},{"name":"A#4","midi":70,"time":370.7317708333334,"velocity":0.84251968503937,"duration":1.1380208333333144},{"name":"D#5","midi":75,"time":370.7317708333334,"velocity":0.84251968503937,"duration":0.5859375},{"name":"D#4","midi":63,"time":370.7317708333334,"velocity":0.84251968503937,"duration":1.1380208333333144},{"name":"D#3","midi":51,"time":370.7317708333334,"velocity":0.84251968503937,"duration":1.4257812499999432},{"name":"C#5","midi":73,"time":371.3177083333334,"velocity":0.84251968503937,"duration":0.55078125},{"name":"C5","midi":72,"time":371.87500000000006,"velocity":0.84251968503937,"duration":1.1393229166666288},{"name":"D#4","midi":63,"time":371.87500000000006,"velocity":0.84251968503937,"duration":1.1393229166666288},{"name":"G#4","midi":68,"time":371.87500000000006,"velocity":0.84251968503937,"duration":1.1393229166666288},{"name":"G#2","midi":44,"time":371.87500000000006,"velocity":0.84251968503937,"duration":2.277343749999943},{"name":"E3","midi":52,"time":372.16015625000006,"velocity":0.84251968503937,"duration":0.2825520833333144},{"name":"F#3","midi":54,"time":372.44661458333337,"velocity":0.84251968503937,"duration":0.8528645833333144},{"name":"C#5","midi":73,"time":373.0182291666667,"velocity":0.84251968503937,"duration":1.1393229166666288},{"name":"E4","midi":64,"time":373.0182291666667,"velocity":0.84251968503937,"duration":1.1393229166666288},{"name":"G#4","midi":68,"time":373.0182291666667,"velocity":0.84251968503937,"duration":1.1393229166666288},{"name":"E3","midi":52,"time":373.3046875,"velocity":0.84251968503937,"duration":0.2825520833333144},{"name":"D#3","midi":51,"time":373.58984375,"velocity":0.84251968503937,"duration":0.2825520833333144},{"name":"C#3","midi":49,"time":373.8763020833333,"velocity":0.84251968503937,"duration":0.28125},{"name":"G#4","midi":68,"time":374.1614583333333,"velocity":0.84251968503937,"duration":1.1380208333333144},{"name":"C#5","midi":73,"time":374.1614583333333,"velocity":0.84251968503937,"duration":1.1380208333333144},{"name":"D#4","midi":63,"time":374.1614583333333,"velocity":0.84251968503937,"duration":1.7057291666666288},{"name":"G#3","midi":56,"time":374.1614583333333,"velocity":0.84251968503937,"duration":2.2825520833332575},{"name":"G#2","midi":44,"time":374.1614583333333,"velocity":0.84251968503937,"duration":2.2825520833332575},{"name":"C5","midi":72,"time":375.30338541666663,"velocity":0.84251968503937,"duration":1.1393229166666288},{"name":"E4","midi":64,"time":375.87499999999994,"velocity":0.84251968503937,"duration":0.2825520833333144},{"name":"F#4","midi":66,"time":376.16015624999994,"velocity":0.84251968503937,"duration":0.2825520833333144},{"name":"C#3","midi":49,"time":376.47005208333326,"velocity":0.84251968503937,"duration":2.3619791666666856},{"name":"A3","midi":57,"time":376.47005208333326,"velocity":0.84251968503937,"duration":1.7760416666666856},{"name":"F4","midi":65,"time":376.47005208333326,"velocity":0.84251968503937,"duration":0.58984375},{"name":"G#4","midi":68,"time":376.47005208333326,"velocity":0.84251968503937,"duration":1.1822916666666856},{"name":"C#5","midi":73,"time":376.47005208333326,"velocity":0.84251968503937,"duration":2.3619791666666856},{"name":"C#4","midi":61,"time":377.06380208333326,"velocity":0.84251968503937,"duration":2.3854166666666288},{"name":"F#4","midi":66,"time":377.65885416666663,"velocity":0.84251968503937,"duration":1.1822916666666288},{"name":"G#3","midi":56,"time":378.25130208333326,"velocity":0.84251968503937,"duration":0.29296875},{"name":"A3","midi":57,"time":378.54687499999994,"velocity":0.84251968503937,"duration":0.29296875},{"name":"C#3","midi":49,"time":378.8463541666666,"velocity":0.84251968503937,"duration":2.45703125},{"name":"B3","midi":59,"time":378.8463541666666,"velocity":0.84251968503937,"duration":0.6145833333333144},{"name":"F4","midi":65,"time":378.8463541666666,"velocity":0.84251968503937,"duration":0.6145833333333144},{"name":"C#5","midi":73,"time":378.8463541666666,"velocity":0.84251968503937,"duration":2.45703125},{"name":"A3","midi":57,"time":379.4622395833332,"velocity":0.84251968503937,"duration":0.61328125},{"name":"C#4","midi":61,"time":379.4622395833332,"velocity":0.84251968503937,"duration":0.61328125},{"name":"G#3","midi":56,"time":380.0794270833332,"velocity":0.84251968503937,"duration":0.61328125},{"name":"F#4","midi":66,"time":380.0794270833332,"velocity":0.84251968503937,"duration":0.61328125},{"name":"A4","midi":69,"time":380.0794270833332,"velocity":0.84251968503937,"duration":0.61328125},{"name":"F#3","midi":54,"time":380.6953124999999,"velocity":0.84251968503937,"duration":0.6145833333333712},{"name":"F#4","midi":66,"time":380.6953124999999,"velocity":0.84251968503937,"duration":0.6145833333333712},{"name":"A4","midi":69,"time":380.6953124999999,"velocity":0.84251968503937,"duration":0.6145833333333712},{"name":"C#3","midi":49,"time":381.3151041666666,"velocity":0.84251968503937,"duration":2.8411458333333144},{"name":"C#4","midi":61,"time":381.3151041666666,"velocity":0.84251968503937,"duration":0.6510416666666856},{"name":"G#4","midi":68,"time":381.3151041666666,"velocity":0.84251968503937,"duration":2.8411458333333144},{"name":"F#4","midi":66,"time":381.3151041666666,"velocity":0.84251968503937,"duration":1.3072916666666856},{"name":"C#5","midi":73,"time":381.3151041666666,"velocity":0.84251968503937,"duration":2.8411458333333144},{"name":"B3","midi":59,"time":381.9713541666666,"velocity":0.84251968503937,"duration":0.3229166666666856},{"name":"A3","midi":57,"time":382.2994791666666,"velocity":0.84251968503937,"duration":0.3229166666666856},{"name":"G#3","midi":56,"time":382.6276041666666,"velocity":0.84251968503937,"duration":0.765625},{"name":"F4","midi":65,"time":382.6276041666666,"velocity":0.84251968503937,"duration":1.15234375},{"name":"F#3","midi":54,"time":383.3971354166666,"velocity":0.84251968503937,"duration":0.7669270833333144},{"name":"D#4","midi":63,"time":383.7838541666666,"velocity":0.84251968503937,"duration":0.3802083333333144},{"name":"C#3","midi":49,"time":384.1992187499999,"velocity":0.84251968503937,"duration":5.925781249999943},{"name":"G#3","midi":56,"time":384.2005208333332,"velocity":0.84251968503937,"duration":5.924479166666629},{"name":"F4","midi":65,"time":384.2018229166665,"velocity":0.84251968503937,"duration":5.923177083333314},{"name":"G#4","midi":68,"time":384.20312499999983,"velocity":0.84251968503937,"duration":5.921875},{"name":"C#5","midi":73,"time":384.20442708333314,"velocity":0.84251968503937,"duration":5.920572916666686}],"controlChanges":{"7":[{"number":7,"time":0,"value":0.7480314960629921}]},"id":1,"name":"Harpsichord","instrumentNumber":6,"instrument":"harpsichord","instrumentFamily":"piano","channelNumber":0,"isPercussion":false}]}