{"header":{"PPQ":240,"timeSignature":[3,4],"bpm":89.9999550000225,"name":"--------"},"startTime":0,"duration":70.00003499999983,"tracks":[{"startTime":0,"duration":0,"length":0,"notes":[],"controlChanges":{},"id":0,"name":"--------"},{"startTime":2.000001,"duration":69.81947935416639,"length":289,"notes":[{"name":"C5","midi":72,"time":2.000001,"velocity":0.7795275590551181,"duration":0.15277785416666667},{"name":"A#4","midi":70,"time":2.1666677500000002,"velocity":0.7795275590551181,"duration":0.15277785416666667},{"name":"G#4","midi":68,"time":2.3333345000000003,"velocity":0.7795275590551181,"duration":0.15277785416666667},{"name":"G4","midi":67,"time":2.5000012500000004,"velocity":0.7795275590551181,"duration":0.15277785416666667},{"name":"G#4","midi":68,"time":2.6666680000000005,"velocity":0.7795275590551181,"duration":0.30277792916666657},{"name":"F4","midi":65,"time":3.0000015,"velocity":0.7795275590551181,"duration":0.30277792916666657},{"name":"C#5","midi":73,"time":3.333335,"velocity":0.7795275590551181,"duration":0.819444854166667},{"name":"C5","midi":72,"time":4.16666875,"velocity":0.7795275590551181,"duration":0.15277785416666667},{"name":"A#4","midi":70,"time":4.3333355000000005,"velocity":0.7795275590551181,"duration":0.15277785416666667},{"name":"A4","midi":69,"time":4.5000022500000005,"velocity":0.7795275590551181,"duration":0.15277785416666667},{"name":"A#4","midi":70,"time":4.666669000000001,"velocity":0.7795275590551181,"duration":0.302777929166667},{"name":"G4","midi":67,"time":5.000002500000001,"velocity":0.7795275590551181,"duration":0.302777929166667},{"name":"E5","midi":76,"time":5.333336000000001,"velocity":0.7795275590551181,"duration":0.819444854166667},{"name":"F5","midi":77,"time":6.166669750000001,"velocity":0.7795275590551181,"duration":0.15277785416666667},{"name":"G5","midi":79,"time":6.3333365000000015,"velocity":0.7795275590551181,"duration":0.15277785416666667},{"name":"G#5","midi":80,"time":6.500003250000002,"velocity":0.7795275590551181,"duration":0.15277785416666667},{"name":"A#5","midi":82,"time":6.666670000000002,"velocity":0.7795275590551181,"duration":0.302777929166667},{"name":"G5","midi":79,"time":7.000003500000002,"velocity":0.7795275590551181,"duration":0.15277785416666667},{"name":"E5","midi":76,"time":7.166670250000002,"velocity":0.7795275590551181,"duration":0.15277785416666667},{"name":"C#5","midi":73,"time":7.333337000000002,"velocity":0.7795275590551181,"duration":0.302777929166667},{"name":"C5","midi":72,"time":7.666670500000002,"velocity":0.7795275590551181,"duration":0.302777929166667},{"name":"A#4","midi":70,"time":8.000004000000002,"velocity":0.7795275590551181,"duration":0.15277785416666667},{"name":"G#4","midi":68,"time":8.166670750000002,"velocity":0.7795275590551181,"duration":0.15277785416666667},{"name":"G4","midi":67,"time":8.3333375,"velocity":0.7795275590551181,"duration":0.15277785416666667},{"name":"G#4","midi":68,"time":8.50000425,"velocity":0.7795275590551181,"duration":0.15277785416666667},{"name":"A#4","midi":70,"time":8.666671,"velocity":0.7795275590551181,"duration":0.15277785416666667},{"name":"C#5","midi":73,"time":8.833337749999998,"velocity":0.7795275590551181,"duration":0.15277785416666667},{"name":"C5","midi":72,"time":9.000004499999998,"velocity":0.7795275590551181,"duration":0.15277785416666667},{"name":"A#4","midi":70,"time":9.166671249999997,"velocity":0.7795275590551181,"duration":0.15277785416666667},{"name":"G#4","midi":68,"time":9.333337999999996,"velocity":0.7795275590551181,"duration":0.15277785416666667},{"name":"G4","midi":67,"time":9.500004749999995,"velocity":0.7795275590551181,"duration":0.15277785416666667},{"name":"F4","midi":65,"time":9.666671499999994,"velocity":0.7795275590551181,"duration":0.15277785416666667},{"name":"E4","midi":64,"time":9.833338249999994,"velocity":0.7795275590551181,"duration":0.15277785416666667},{"name":"G#4","midi":68,"time":10.000004999999993,"velocity":0.7795275590551181,"duration":0.3027779291666661},{"name":"F5","midi":77,"time":10.333338499999993,"velocity":0.7795275590551181,"duration":0.48611135416666684},{"name":"G5","midi":79,"time":10.833338749999992,"velocity":0.7795275590551181,"duration":0.15277785416666667},{"name":"G#5","midi":80,"time":11.000005499999991,"velocity":0.7795275590551181,"duration":0.15277785416666667},{"name":"G5","midi":79,"time":11.16667224999999,"velocity":0.7795275590551181,"duration":0.15277785416666667},{"name":"F5","midi":77,"time":11.33333899999999,"velocity":0.7795275590551181,"duration":0.15277785416666667},{"name":"D#5","midi":75,"time":11.500005749999989,"velocity":0.7795275590551181,"duration":0.15277785416666667},{"name":"C#5","midi":73,"time":11.666672499999988,"velocity":0.7795275590551181,"duration":0.15277785416666667},{"name":"C5","midi":72,"time":11.833339249999987,"velocity":0.7795275590551181,"duration":0.15277785416666667},{"name":"A#4","midi":70,"time":12.000005999999987,"velocity":0.7795275590551181,"duration":0.3027779291666661},{"name":"G5","midi":79,"time":12.333339499999987,"velocity":0.7795275590551181,"duration":0.48611135416666684},{"name":"G#5","midi":80,"time":12.833339749999986,"velocity":0.7795275590551181,"duration":0.15277785416666667},{"name":"A#5","midi":82,"time":13.000006499999985,"velocity":0.7795275590551181,"duration":0.15277785416666667},{"name":"G#5","midi":80,"time":13.166673249999985,"velocity":0.7795275590551181,"duration":0.15277785416666667},{"name":"G5","midi":79,"time":13.333339999999984,"velocity":0.7795275590551181,"duration":0.15277785416666667},{"name":"F5","midi":77,"time":13.500006749999983,"velocity":0.7795275590551181,"duration":0.15277785416666667},{"name":"E5","midi":76,"time":13.666673499999982,"velocity":0.7795275590551181,"duration":0.15277785416666667},{"name":"D5","midi":74,"time":13.833340249999981,"velocity":0.7795275590551181,"duration":0.15277785416666667},{"name":"C5","midi":72,"time":14.00000699999998,"velocity":0.7795275590551181,"duration":0.15277785416666667},{"name":"D5","midi":74,"time":14.16667374999998,"velocity":0.7795275590551181,"duration":0.15277785416666667},{"name":"E5","midi":76,"time":14.333340499999979,"velocity":0.7795275590551181,"duration":0.15277785416666667},{"name":"F5","midi":77,"time":14.500007249999978,"velocity":0.7795275590551181,"duration":0.15277785416666667},{"name":"G5","midi":79,"time":14.666673999999977,"velocity":0.7795275590551181,"duration":0.15277785416666667},{"name":"G#5","midi":80,"time":14.833340749999977,"velocity":0.7795275590551181,"duration":0.15277785416666667},{"name":"A#5","midi":82,"time":15.000007499999976,"velocity":0.7795275590551181,"duration":0.15277785416666667},{"name":"G5","midi":79,"time":15.166674249999975,"velocity":0.7795275590551181,"duration":0.15277785416666667},{"name":"F5","midi":77,"time":15.333340999999974,"velocity":0.7795275590551181,"duration":0.15277785416666667},{"name":"E5","midi":76,"time":15.500007749999973,"velocity":0.7795275590551181,"duration":0.15277785416666667},{"name":"F5","midi":77,"time":15.666674499999973,"velocity":0.7795275590551181,"duration":0.15277785416666667},{"name":"E5","midi":76,"time":15.833341249999972,"velocity":0.7795275590551181,"duration":0.15277785416666667},{"name":"F5","midi":77,"time":16.000007999999973,"velocity":0.7795275590551181,"duration":0.3027779291666661},{"name":"C5","midi":72,"time":16.33334149999997,"velocity":0.7795275590551181,"duration":0.48611135416666684},{"name":"A#4","midi":70,"time":16.83334174999997,"velocity":0.7795275590551181,"duration":0.15277785416666845},{"name":"G#4","midi":68,"time":17.00000849999997,"velocity":0.7795275590551181,"duration":0.1527778541666649},{"name":"G4","midi":67,"time":17.16667524999997,"velocity":0.7795275590551181,"duration":0.1527778541666649},{"name":"F4","midi":65,"time":17.333341999999966,"velocity":0.7795275590551181,"duration":0.1527778541666649},{"name":"E4","midi":64,"time":17.500008749999964,"velocity":0.7795275590551181,"duration":0.1527778541666649},{"name":"G#4","midi":68,"time":17.66667549999996,"velocity":0.7795275590551181,"duration":0.1527778541666649},{"name":"G4","midi":67,"time":17.83334224999996,"velocity":0.7795275590551181,"duration":0.1527778541666649},{"name":"C5","midi":72,"time":18.000008999999956,"velocity":0.7795275590551181,"duration":0.1527778541666649},{"name":"A#4","midi":70,"time":18.166675749999953,"velocity":0.7795275590551181,"duration":0.1527778541666649},{"name":"G#4","midi":68,"time":18.33334249999995,"velocity":0.7795275590551181,"duration":0.1527778541666649},{"name":"G4","midi":67,"time":18.50000924999995,"velocity":0.7795275590551181,"duration":0.1527778541666649},{"name":"G#4","midi":68,"time":18.666675999999946,"velocity":0.7795275590551181,"duration":0.3027779291666661},{"name":"F4","midi":65,"time":19.000009499999944,"velocity":0.7795275590551181,"duration":0.3027779291666661},{"name":"G#5","midi":80,"time":19.333342999999942,"velocity":0.7795275590551181,"duration":0.8194448541666652},{"name":"G5","midi":79,"time":20.16667674999994,"velocity":0.7795275590551181,"duration":0.15277785416666845},{"name":"F5","midi":77,"time":20.33334349999994,"velocity":0.7795275590551181,"duration":0.1527778541666649},{"name":"E5","midi":76,"time":20.50001024999994,"velocity":0.7795275590551181,"duration":0.1527778541666649},{"name":"F5","midi":77,"time":20.666676999999936,"velocity":0.7795275590551181,"duration":0.3027779291666661},{"name":"D5","midi":74,"time":21.000010499999934,"velocity":0.7795275590551181,"duration":0.3027779291666661},{"name":"B4","midi":71,"time":21.333343999999933,"velocity":0.7795275590551181,"duration":0.8194448541666652},{"name":"C5","midi":72,"time":22.16667774999993,"velocity":0.7795275590551181,"duration":0.15277785416666845},{"name":"D5","midi":74,"time":22.33334449999993,"velocity":0.7795275590551181,"duration":0.1527778541666649},{"name":"D#5","midi":75,"time":22.50001124999993,"velocity":0.7795275590551181,"duration":0.1527778541666649},{"name":"F5","midi":77,"time":22.666677999999926,"velocity":0.7795275590551181,"duration":0.3027779291666661},{"name":"D5","midi":74,"time":23.000011499999925,"velocity":0.7795275590551181,"duration":0.15277785416666845},{"name":"B4","midi":71,"time":23.166678249999926,"velocity":0.7795275590551181,"duration":0.1527778541666649},{"name":"G#4","midi":68,"time":23.333344999999923,"velocity":0.7795275590551181,"duration":0.3027779291666661},{"name":"G4","midi":67,"time":23.66667849999992,"velocity":0.7795275590551181,"duration":0.48611135416666684},{"name":"F4","midi":65,"time":24.16667874999992,"velocity":0.7795275590551181,"duration":0.15277785416666845},{"name":"D#4","midi":63,"time":24.333345499999922,"velocity":0.7795275590551181,"duration":0.1527778541666649},{"name":"D4","midi":62,"time":24.50001224999992,"velocity":0.7795275590551181,"duration":0.1527778541666649},{"name":"D#4","midi":63,"time":24.666678999999917,"velocity":0.7795275590551181,"duration":0.3027779291666661},{"name":"C4","midi":60,"time":25.000012499999915,"velocity":0.7795275590551181,"duration":0.3027779291666661},{"name":"D#5","midi":75,"time":25.333345999999914,"velocity":0.7795275590551181,"duration":0.8194448541666652},{"name":"D5","midi":74,"time":26.16667974999991,"velocity":0.7795275590551181,"duration":0.15277785416666845},{"name":"C5","midi":72,"time":26.333346499999912,"velocity":0.7795275590551181,"duration":0.1527778541666649},{"name":"B4","midi":71,"time":26.50001324999991,"velocity":0.7795275590551181,"duration":0.1527778541666649},{"name":"C5","midi":72,"time":26.666679999999907,"velocity":0.7795275590551181,"duration":0.3027779291666661},{"name":"A4","midi":69,"time":27.000013499999906,"velocity":0.7795275590551181,"duration":0.3027779291666661},{"name":"F#5","midi":78,"time":27.333346999999904,"velocity":0.7795275590551181,"duration":0.8194448541666652},{"name":"G5","midi":79,"time":28.1666807499999,"velocity":0.7795275590551181,"duration":0.15277785416666845},{"name":"A5","midi":81,"time":28.333347499999903,"velocity":0.7795275590551181,"duration":0.1527778541666649},{"name":"A#5","midi":82,"time":28.5000142499999,"velocity":0.7795275590551181,"duration":0.1527778541666649},{"name":"C6","midi":84,"time":28.666680999999897,"velocity":0.7795275590551181,"duration":0.3027779291666661},{"name":"A5","midi":81,"time":29.000014499999896,"velocity":0.7795275590551181,"duration":0.15277785416666845},{"name":"F#5","midi":78,"time":29.166681249999897,"velocity":0.7795275590551181,"duration":0.1527778541666649},{"name":"D#5","midi":75,"time":29.333347999999894,"velocity":0.7795275590551181,"duration":0.3027779291666661},{"name":"D5","midi":74,"time":29.666681499999893,"velocity":0.7795275590551181,"duration":0.3027779291666661},{"name":"C5","midi":72,"time":30.00001499999989,"velocity":0.7795275590551181,"duration":0.1527778541666649},{"name":"B4","midi":71,"time":30.16668174999989,"velocity":0.7795275590551181,"duration":0.07500003750000062},{"name":"C5","midi":72,"time":30.25001512499989,"velocity":0.7795275590551181,"duration":0.07500003750000062},{"name":"B4","midi":71,"time":30.333348499999893,"velocity":0.7795275590551181,"duration":0.038888908333333916},{"name":"C5","midi":72,"time":30.375015187499894,"velocity":0.7795275590551181,"duration":0.038888908333333916},{"name":"B4","midi":71,"time":30.416681874999895,"velocity":0.7795275590551181,"duration":0.038888908333333916},{"name":"C5","midi":72,"time":30.458348562499896,"velocity":0.7795275590551181,"duration":0.038888908333333916},{"name":"B4","midi":71,"time":30.500015249999898,"velocity":0.7795275590551181,"duration":0.7722226083333332},{"name":"B4","midi":71,"time":31.3333489999999,"velocity":0.7795275590551181,"duration":0.3027779291666661},{"name":"C5","midi":72,"time":31.666682499999897,"velocity":0.7795275590551181,"duration":0.038888908333333916},{"name":"B4","midi":71,"time":31.7083491874999,"velocity":0.7795275590551181,"duration":0.038888908333333916},{"name":"C5","midi":72,"time":31.7500158749999,"velocity":0.7795275590551181,"duration":0.23611122916666716},{"name":"D5","midi":74,"time":32.0000159999999,"velocity":0.7795275590551181,"duration":0.038888908333333916},{"name":"C5","midi":72,"time":32.0416826874999,"velocity":0.7795275590551181,"duration":0.038888908333333916},{"name":"A#4","midi":70,"time":32.0833493749999,"velocity":0.7795275590551181,"duration":0.038888908333333916},{"name":"C5","midi":72,"time":32.125016062499895,"velocity":0.7795275590551181,"duration":0.3444446166666637},{"name":"D5","midi":74,"time":32.500016249999895,"velocity":0.7795275590551181,"duration":0.1527778541666649},{"name":"C5","midi":72,"time":32.66668299999989,"velocity":0.7795275590551181,"duration":0.07500003749999706},{"name":"D5","midi":74,"time":32.75001637499989,"velocity":0.7795275590551181,"duration":0.07500003749999706},{"name":"D#5","midi":75,"time":32.83334974999988,"velocity":0.7795275590551181,"duration":0.038888908333333916},{"name":"D5","midi":74,"time":32.87501643749988,"velocity":0.7795275590551181,"duration":0.038888908333333916},{"name":"D#5","midi":75,"time":32.91668312499988,"velocity":0.7795275590551181,"duration":0.038888908333333916},{"name":"D5","midi":74,"time":32.958349812499875,"velocity":0.7795275590551181,"duration":0.038888908333333916},{"name":"D#5","midi":75,"time":33.00001649999987,"velocity":0.7795275590551181,"duration":0.038888908333333916},{"name":"D5","midi":74,"time":33.04168318749987,"velocity":0.7795275590551181,"duration":0.5944447416666634},{"name":"C5","midi":72,"time":33.66668349999987,"velocity":0.7795275590551181,"duration":0.3027779291666661},{"name":"C5","midi":72,"time":34.00001699999987,"velocity":0.7795275590551181,"duration":0.8194448541666688},{"name":"D5","midi":74,"time":34.83335074999987,"velocity":0.7795275590551181,"duration":0.1527778541666649},{"name":"D#5","midi":75,"time":35.00001749999987,"velocity":0.7795275590551181,"duration":0.1527778541666649},{"name":"D5","midi":74,"time":35.16668424999987,"velocity":0.7795275590551181,"duration":0.1527778541666649},{"name":"C5","midi":72,"time":35.333350999999865,"velocity":0.7795275590551181,"duration":0.1527778541666649},{"name":"A#4","midi":70,"time":35.50001774999986,"velocity":0.7795275590551181,"duration":0.1527778541666649},{"name":"G#4","midi":68,"time":35.66668449999986,"velocity":0.7795275590551181,"duration":0.1527778541666649},{"name":"G4","midi":67,"time":35.83335124999986,"velocity":0.7795275590551181,"duration":0.1527778541666649},{"name":"F4","midi":65,"time":36.000017999999855,"velocity":0.7795275590551181,"duration":0.3027779291666661},{"name":"D5","midi":74,"time":36.33335149999986,"velocity":0.7795275590551181,"duration":0.48611135416666684},{"name":"D#5","midi":75,"time":36.833351749999856,"velocity":0.7795275590551181,"duration":0.1527778541666649},{"name":"F5","midi":77,"time":37.000018499999854,"velocity":0.7795275590551181,"duration":0.1527778541666649},{"name":"D#5","midi":75,"time":37.16668524999985,"velocity":0.7795275590551181,"duration":0.1527778541666649},{"name":"D5","midi":74,"time":37.33335199999985,"velocity":0.7795275590551181,"duration":0.1527778541666649},{"name":"C5","midi":72,"time":37.500018749999846,"velocity":0.7795275590551181,"duration":0.1527778541666649},{"name":"B4","midi":71,"time":37.66668549999984,"velocity":0.7795275590551181,"duration":0.1527778541666649},{"name":"A4","midi":69,"time":37.83335224999984,"velocity":0.7795275590551181,"duration":0.1527778541666649},{"name":"G4","midi":67,"time":38.00001899999984,"velocity":0.7795275590551181,"duration":0.1527778541666649},{"name":"A4","midi":69,"time":38.166685749999836,"velocity":0.7795275590551181,"duration":0.1527778541666649},{"name":"B4","midi":71,"time":38.33335249999983,"velocity":0.7795275590551181,"duration":0.1527778541666649},{"name":"C5","midi":72,"time":38.50001924999983,"velocity":0.7795275590551181,"duration":0.1527778541666649},{"name":"D5","midi":74,"time":38.66668599999983,"velocity":0.7795275590551181,"duration":0.1527778541666649},{"name":"D#5","midi":75,"time":38.833352749999825,"velocity":0.7795275590551181,"duration":0.1527778541666649},{"name":"F5","midi":77,"time":39.00001949999982,"velocity":0.7795275590551181,"duration":0.1527778541666649},{"name":"D5","midi":74,"time":39.16668624999982,"velocity":0.7795275590551181,"duration":0.1527778541666649},{"name":"C5","midi":72,"time":39.33335299999982,"velocity":0.7795275590551181,"duration":0.1527778541666649},{"name":"B4","midi":71,"time":39.500019749999815,"velocity":0.7795275590551181,"duration":0.1527778541666649},{"name":"C5","midi":72,"time":39.66668649999981,"velocity":0.7795275590551181,"duration":0.1527778541666649},{"name":"B4","midi":71,"time":39.83335324999981,"velocity":0.7795275590551181,"duration":0.1527778541666649},{"name":"G5","midi":79,"time":40.00001999999981,"velocity":0.7795275590551181,"duration":0.8194448541666688},{"name":"F5","midi":77,"time":40.83335374999981,"velocity":0.7795275590551181,"duration":0.1527778541666649},{"name":"D#5","midi":75,"time":41.000020499999806,"velocity":0.7795275590551181,"duration":0.1527778541666649},{"name":"D5","midi":74,"time":41.166687249999804,"velocity":0.7795275590551181,"duration":0.1527778541666649},{"name":"C5","midi":72,"time":41.3333539999998,"velocity":0.7795275590551181,"duration":0.8194448541666688},{"name":"A#4","midi":70,"time":42.1666877499998,"velocity":0.7795275590551181,"duration":0.1527778541666649},{"name":"A4","midi":69,"time":42.3333544999998,"velocity":0.7795275590551181,"duration":0.1527778541666649},{"name":"G4","midi":67,"time":42.5000212499998,"velocity":0.7795275590551181,"duration":0.1527778541666649},{"name":"A4","midi":69,"time":42.666687999999795,"velocity":0.7795275590551181,"duration":0.3027779291666661},{"name":"F4","midi":65,"time":43.0000214999998,"velocity":0.7795275590551181,"duration":0.3027779291666661},{"name":"D#5","midi":75,"time":43.3333549999998,"velocity":0.7795275590551181,"duration":0.8194448541666688},{"name":"C#5","midi":73,"time":44.1666887499998,"velocity":0.7795275590551181,"duration":0.1527778541666649},{"name":"C5","midi":72,"time":44.3333554999998,"velocity":0.7795275590551181,"duration":0.1527778541666649},{"name":"C#5","midi":73,"time":44.500022249999795,"velocity":0.7795275590551181,"duration":0.1527778541666649},{"name":"D#5","midi":75,"time":44.66668899999979,"velocity":0.7795275590551181,"duration":0.1527778541666649},{"name":"F#5","midi":78,"time":44.83335574999979,"velocity":0.7795275590551181,"duration":0.1527778541666649},{"name":"F5","midi":77,"time":45.00002249999979,"velocity":0.7795275590551181,"duration":0.1527778541666649},{"name":"D#5","midi":75,"time":45.166689249999784,"velocity":0.7795275590551181,"duration":0.1527778541666649},{"name":"C#5","midi":73,"time":45.33335599999978,"velocity":0.7795275590551181,"duration":0.1527778541666649},{"name":"C5","midi":72,"time":45.50002274999978,"velocity":0.7795275590551181,"duration":0.1527778541666649},{"name":"A#4","midi":70,"time":45.66668949999978,"velocity":0.7795275590551181,"duration":0.1527778541666649},{"name":"G#4","midi":68,"time":45.833356249999774,"velocity":0.7795275590551181,"duration":0.1527778541666649},{"name":"G4","midi":67,"time":46.00002299999977,"velocity":0.7795275590551181,"duration":0.3027779291666661},{"name":"A#5","midi":82,"time":46.33335649999977,"velocity":0.7795275590551181,"duration":0.48611135416666684},{"name":"G#5","midi":80,"time":46.83335674999977,"velocity":0.7795275590551181,"duration":0.1527778541666649},{"name":"G5","midi":79,"time":47.00002349999977,"velocity":0.7795275590551181,"duration":0.1527778541666649},{"name":"F5","midi":77,"time":47.16669024999977,"velocity":0.7795275590551181,"duration":0.1527778541666649},{"name":"D#5","midi":75,"time":47.333356999999765,"velocity":0.7795275590551181,"duration":0.1527778541666649},{"name":"C#5","midi":73,"time":47.50002374999976,"velocity":0.7795275590551181,"duration":0.1527778541666649},{"name":"C5","midi":72,"time":47.66669049999976,"velocity":0.7795275590551181,"duration":0.1527778541666649},{"name":"A#4","midi":70,"time":47.83335724999976,"velocity":0.7795275590551181,"duration":0.1527778541666649},{"name":"G#4","midi":68,"time":48.000023999999755,"velocity":0.7795275590551181,"duration":0.3027779291666661},{"name":"C5","midi":72,"time":48.33335749999976,"velocity":0.7795275590551181,"duration":0.3027779291666661},{"name":"D#5","midi":75,"time":48.66669099999976,"velocity":0.7795275590551181,"duration":0.3027779291666661},{"name":"G5","midi":79,"time":49.00002449999976,"velocity":0.7795275590551181,"duration":0.3027779291666661},{"name":"G#5","midi":80,"time":49.33335799999976,"velocity":0.7795275590551181,"duration":0.8194448541666688},{"name":"G5","midi":79,"time":50.166691749999764,"velocity":0.7795275590551181,"duration":0.1527778541666649},{"name":"F5","midi":77,"time":50.33335849999976,"velocity":0.7795275590551181,"duration":0.1527778541666649},{"name":"D#5","midi":75,"time":50.50002524999976,"velocity":0.7795275590551181,"duration":0.1527778541666649},{"name":"C#5","midi":73,"time":50.666691999999756,"velocity":0.7795275590551181,"duration":0.1527778541666649},{"name":"A#4","midi":70,"time":50.83335874999975,"velocity":0.7795275590551181,"duration":0.1527778541666649},{"name":"G#5","midi":80,"time":51.00002549999975,"velocity":0.7795275590551181,"duration":0.3027779291666661},{"name":"G5","midi":79,"time":51.33335899999975,"velocity":0.7795275590551181,"duration":0.8194448541666688},{"name":"F5","midi":77,"time":52.166692749999754,"velocity":0.7795275590551181,"duration":0.1527778541666649},{"name":"D#5","midi":75,"time":52.33335949999975,"velocity":0.7795275590551181,"duration":0.1527778541666649},{"name":"C#5","midi":73,"time":52.50002624999975,"velocity":0.7795275590551181,"duration":0.1527778541666649},{"name":"C5","midi":72,"time":52.666692999999746,"velocity":0.7795275590551181,"duration":0.1527778541666649},{"name":"G#4","midi":68,"time":52.833359749999744,"velocity":0.7795275590551181,"duration":0.1527778541666649},{"name":"F#5","midi":78,"time":53.00002649999974,"velocity":0.7795275590551181,"duration":0.3027779291666661},{"name":"F5","midi":77,"time":53.33335999999974,"velocity":0.7795275590551181,"duration":0.8194448541666688},{"name":"D#5","midi":75,"time":54.166693749999745,"velocity":0.7795275590551181,"duration":0.1527778541666649},{"name":"C#5","midi":73,"time":54.33336049999974,"velocity":0.7795275590551181,"duration":0.1527778541666649},{"name":"C5","midi":72,"time":54.50002724999974,"velocity":0.7795275590551181,"duration":0.1527778541666649},{"name":"A#4","midi":70,"time":54.66669399999974,"velocity":0.7795275590551181,"duration":0.1527778541666649},{"name":"G#4","midi":68,"time":54.833360749999734,"velocity":0.7795275590551181,"duration":0.1527778541666649},{"name":"G4","midi":67,"time":55.00002749999973,"velocity":0.7795275590551181,"duration":0.1527778541666649},{"name":"G#4","midi":68,"time":55.16669424999973,"velocity":0.7795275590551181,"duration":0.1527778541666649},{"name":"A#4","midi":70,"time":55.33336099999973,"velocity":0.7795275590551181,"duration":0.8194448541666688},{"name":"G#4","midi":68,"time":56.16669474999973,"velocity":0.7795275590551181,"duration":0.1527778541666649},{"name":"G4","midi":67,"time":56.333361499999725,"velocity":0.7795275590551181,"duration":0.1527778541666649},{"name":"F4","midi":65,"time":56.50002824999972,"velocity":0.7795275590551181,"duration":0.1527778541666649},{"name":"E4","midi":64,"time":56.66669499999972,"velocity":0.7795275590551181,"duration":0.1527778541666649},{"name":"F4","midi":65,"time":56.83336174999972,"velocity":0.7795275590551181,"duration":0.1527778541666649},{"name":"G4","midi":67,"time":57.000028499999715,"velocity":0.7795275590551181,"duration":0.1527778541666649},{"name":"G#4","midi":68,"time":57.16669524999971,"velocity":0.7795275590551181,"duration":0.1527778541666649},{"name":"A#4","midi":70,"time":57.33336199999971,"velocity":0.7795275590551181,"duration":0.1527778541666649},{"name":"C5","midi":72,"time":57.50002874999971,"velocity":0.7795275590551181,"duration":0.1527778541666649},{"name":"C#5","midi":73,"time":57.666695499999705,"velocity":0.7795275590551181,"duration":0.1527778541666649},{"name":"A#4","midi":70,"time":57.8333622499997,"velocity":0.7795275590551181,"duration":0.1527778541666649},{"name":"C5","midi":72,"time":58.0000289999997,"velocity":0.7795275590551181,"duration":0.1527778541666649},{"name":"A#4","midi":70,"time":58.1666957499997,"velocity":0.7795275590551181,"duration":0.1527778541666649},{"name":"G#4","midi":68,"time":58.333362499999694,"velocity":0.7795275590551181,"duration":0.1527778541666649},{"name":"G4","midi":67,"time":58.50002924999969,"velocity":0.7795275590551181,"duration":0.1527778541666649},{"name":"G#4","midi":68,"time":58.66669599999969,"velocity":0.7795275590551181,"duration":0.3027779291666661},{"name":"F4","midi":65,"time":59.00002949999969,"velocity":0.7795275590551181,"duration":0.3027779291666661},{"name":"C#5","midi":73,"time":59.33336299999969,"velocity":0.7795275590551181,"duration":0.8194448541666688},{"name":"C5","midi":72,"time":60.166696749999694,"velocity":0.7795275590551181,"duration":0.1527778541666649},{"name":"A#4","midi":70,"time":60.33336349999969,"velocity":0.7795275590551181,"duration":0.1527778541666649},{"name":"A4","midi":69,"time":60.50003024999969,"velocity":0.7795275590551181,"duration":0.1527778541666649},{"name":"A#4","midi":70,"time":60.66669699999969,"velocity":0.7795275590551181,"duration":0.3027779291666661},{"name":"G4","midi":67,"time":61.00003049999969,"velocity":0.7795275590551181,"duration":0.3027779291666661},{"name":"E5","midi":76,"time":61.33336399999969,"velocity":0.7795275590551181,"duration":0.8194448541666688},{"name":"F5","midi":77,"time":62.16669774999969,"velocity":0.7795275590551181,"duration":0.1527778541666649},{"name":"G5","midi":79,"time":62.33336449999969,"velocity":0.7795275590551181,"duration":0.1527778541666649},{"name":"G#5","midi":80,"time":62.50003124999969,"velocity":0.7795275590551181,"duration":0.1527778541666649},{"name":"A#5","midi":82,"time":62.666697999999684,"velocity":0.7795275590551181,"duration":0.3027779291666661},{"name":"G5","midi":79,"time":63.000031499999686,"velocity":0.7795275590551181,"duration":0.1527778541666649},{"name":"E5","midi":76,"time":63.16669824999968,"velocity":0.7795275590551181,"duration":0.1527778541666649},{"name":"C#5","midi":73,"time":63.33336499999968,"velocity":0.7795275590551181,"duration":0.3027779291666661},{"name":"C5","midi":72,"time":63.66669849999968,"velocity":0.7795275590551181,"duration":0.3027779291666661},{"name":"A#4","midi":70,"time":64.00003199999968,"velocity":0.7795275590551181,"duration":0.152777854166672},{"name":"G#4","midi":68,"time":64.16669874999968,"velocity":0.7795275590551181,"duration":0.152777854166672},{"name":"G4","midi":67,"time":64.33336549999969,"velocity":0.7795275590551181,"duration":0.152777854166672},{"name":"G#4","midi":68,"time":64.50003224999969,"velocity":0.7795275590551181,"duration":0.152777854166672},{"name":"A#4","midi":70,"time":64.6666989999997,"velocity":0.7795275590551181,"duration":0.152777854166672},{"name":"C#5","midi":73,"time":64.8333657499997,"velocity":0.7795275590551181,"duration":0.152777854166672},{"name":"C5","midi":72,"time":65.0000324999997,"velocity":0.7795275590551181,"duration":0.152777854166672},{"name":"A#4","midi":70,"time":65.16669924999971,"velocity":0.7795275590551181,"duration":0.152777854166672},{"name":"G#4","midi":68,"time":65.33336599999971,"velocity":0.7795275590551181,"duration":0.152777854166672},{"name":"G4","midi":67,"time":65.50003274999972,"velocity":0.7795275590551181,"duration":0.152777854166672},{"name":"F4","midi":65,"time":65.66669949999972,"velocity":0.7795275590551181,"duration":0.152777854166672},{"name":"E4","midi":64,"time":65.83336624999973,"velocity":0.7795275590551181,"duration":0.152777854166672},{"name":"C5","midi":72,"time":66.00003299999973,"velocity":0.7795275590551181,"duration":0.05000002500000278},{"name":"A#4","midi":70,"time":66.05558858333306,"velocity":0.7795275590551181,"duration":0.05000002500000278},{"name":"C5","midi":72,"time":66.11114416666639,"velocity":0.7795275590551181,"duration":0.35833351249999623},{"name":"C#5","midi":73,"time":66.50003324999972,"velocity":0.7795275590551181,"duration":0.152777854166672},{"name":"A#4","midi":70,"time":66.66669999999972,"velocity":0.7795275590551181,"duration":0.07500003750000417},{"name":"G#4","midi":68,"time":66.75003337499973,"velocity":0.7795275590551181,"duration":0.07500003750000417},{"name":"G4","midi":67,"time":66.83336674999974,"velocity":0.7795275590551181,"duration":0.07500003750000417},{"name":"G#4","midi":68,"time":66.91670012499975,"velocity":0.7795275590551181,"duration":0.07500003750000417},{"name":"G4","midi":67,"time":67.00003349999976,"velocity":0.7795275590551181,"duration":0.038888908333333916},{"name":"G#4","midi":68,"time":67.04170018749976,"velocity":0.7795275590551181,"duration":0.038888908333333916},{"name":"G4","midi":67,"time":67.08336687499975,"velocity":0.7795275590551181,"duration":0.038888908333333916},{"name":"G#4","midi":68,"time":67.12503356249975,"velocity":0.7795275590551181,"duration":0.038888908333333916},{"name":"G4","midi":67,"time":67.16670024999975,"velocity":0.7795275590551181,"duration":0.038888908333333916},{"name":"G#4","midi":68,"time":67.20836693749975,"velocity":0.7795275590551181,"duration":0.038888908333333916},{"name":"G4","midi":67,"time":67.25003362499974,"velocity":0.7795275590551181,"duration":0.038888908333333916},{"name":"G#4","midi":68,"time":67.29170031249974,"velocity":0.7795275590551181,"duration":0.038888908333333916},{"name":"G4","midi":67,"time":67.33336699999974,"velocity":0.7795275590551181,"duration":0.3027779291666661},{"name":"F4","midi":65,"time":67.66670049999973,"velocity":0.7795275590551181,"duration":0.3027779291666661},{"name":"F4","midi":65,"time":68.00003399999973,"velocity":0.7795275590551181,"duration":1.8194453541666604}],"controlChanges":{"7":[{"number":7,"time":0,"value":0.7874015748031497}],"10":[{"number":10,"time":0,"value":0.6299212598425197}]},"id":1,"name":"Harpsichord RH","instrumentNumber":6,"instrument":"harpsichord","instrumentFamily":"piano","channelNumber":0,"isPercussion":false},{"startTime":2.000001,"duration":70.00003499999983,"length":303,"notes":[{"name":"F2","midi":41,"time":2.000001,"velocity":0.7795275590551181,"duration":0.33333350000000017},{"name":"F3","midi":53,"time":2.3333345000000003,"velocity":0.7795275590551181,"duration":0.5000002500000003},{"name":"G3","midi":55,"time":2.8333347500000006,"velocity":0.7795275590551181,"duration":0.16666675000000009},{"name":"G#3","midi":56,"time":3.0000015000000007,"velocity":0.7795275590551181,"duration":0.16666675000000009},{"name":"G3","midi":55,"time":3.1666682500000007,"velocity":0.7795275590551181,"duration":0.16666675000000009},{"name":"F3","midi":53,"time":3.333335000000001,"velocity":0.7795275590551181,"duration":0.16666675000000009},{"name":"D#3","midi":51,"time":3.500001750000001,"velocity":0.7795275590551181,"duration":0.16666675000000009},{"name":"C#3","midi":49,"time":3.666668500000001,"velocity":0.7795275590551181,"duration":0.16666675000000009},{"name":"C3","midi":48,"time":3.833335250000001,"velocity":0.7795275590551181,"duration":0.16666675000000009},{"name":"A#2","midi":46,"time":4.000002000000001,"velocity":0.7795275590551181,"duration":0.33333350000000017},{"name":"G3","midi":55,"time":4.333335500000001,"velocity":0.7795275590551181,"duration":0.5000002500000003},{"name":"G#3","midi":56,"time":4.833335750000002,"velocity":0.7795275590551181,"duration":0.16666675000000009},{"name":"A#3","midi":58,"time":5.000002500000002,"velocity":0.7795275590551181,"duration":0.16666675000000009},{"name":"G#3","midi":56,"time":5.166669250000002,"velocity":0.7795275590551181,"duration":0.16666675000000009},{"name":"G3","midi":55,"time":5.333336000000002,"velocity":0.7795275590551181,"duration":0.16666675000000009},{"name":"F3","midi":53,"time":5.500002750000002,"velocity":0.7795275590551181,"duration":0.16666675000000009},{"name":"E3","midi":52,"time":5.666669500000002,"velocity":0.7795275590551181,"duration":0.16666675000000009},{"name":"D3","midi":50,"time":5.833336250000002,"velocity":0.7795275590551181,"duration":0.16666675000000009},{"name":"C3","midi":48,"time":6.000003000000002,"velocity":0.7795275590551181,"duration":0.16666675000000009},{"name":"D3","midi":50,"time":6.166669750000002,"velocity":0.7795275590551181,"duration":0.16666675000000009},{"name":"E3","midi":52,"time":6.333336500000002,"velocity":0.7795275590551181,"duration":0.16666675000000009},{"name":"F3","midi":53,"time":6.5000032500000025,"velocity":0.7795275590551181,"duration":0.16666675000000009},{"name":"G3","midi":55,"time":6.6666700000000025,"velocity":0.7795275590551181,"duration":0.16666675000000009},{"name":"G#3","midi":56,"time":6.833336750000003,"velocity":0.7795275590551181,"duration":0.16666675000000009},{"name":"A#3","midi":58,"time":7.000003500000003,"velocity":0.7795275590551181,"duration":0.16666675000000009},{"name":"G3","midi":55,"time":7.166670250000003,"velocity":0.7795275590551181,"duration":0.16666675000000009},{"name":"F3","midi":53,"time":7.333337000000003,"velocity":0.7795275590551181,"duration":0.16666675000000009},{"name":"E3","midi":52,"time":7.500003750000003,"velocity":0.7795275590551181,"duration":0.16666675000000009},{"name":"F3","midi":53,"time":7.666670500000003,"velocity":0.7795275590551181,"duration":0.16666675000000009},{"name":"E3","midi":52,"time":7.833337250000003,"velocity":0.7795275590551181,"duration":0.1666667499999992},{"name":"F3","midi":53,"time":8.000004000000002,"velocity":0.7795275590551181,"duration":0.8055559583333327},{"name":"C3","midi":48,"time":8.833337750000002,"velocity":0.7795275590551181,"duration":0.1666667499999992},{"name":"D3","midi":50,"time":9.000004500000001,"velocity":0.7795275590551181,"duration":0.1666667499999992},{"name":"E3","midi":52,"time":9.16667125,"velocity":0.7795275590551181,"duration":0.1666667499999992},{"name":"F3","midi":53,"time":9.333338,"velocity":0.7795275590551181,"duration":0.1666667499999992},{"name":"G3","midi":55,"time":9.500004749999999,"velocity":0.7795275590551181,"duration":0.1666667499999992},{"name":"G#3","midi":56,"time":9.666671499999998,"velocity":0.7795275590551181,"duration":0.1666667499999992},{"name":"A#3","midi":58,"time":9.833338249999997,"velocity":0.7795275590551181,"duration":0.1666667499999992},{"name":"C4","midi":60,"time":10.000004999999996,"velocity":0.7795275590551181,"duration":0.1666667499999992},{"name":"A#3","midi":58,"time":10.166671749999995,"velocity":0.7795275590551181,"duration":0.1666667499999992},{"name":"G#3","midi":56,"time":10.333338499999995,"velocity":0.7795275590551181,"duration":0.1666667499999992},{"name":"G3","midi":55,"time":10.500005249999994,"velocity":0.7795275590551181,"duration":0.1666667499999992},{"name":"G#3","midi":56,"time":10.666671999999993,"velocity":0.7795275590551181,"duration":0.33333350000000017},{"name":"F3","midi":53,"time":11.000005499999993,"velocity":0.7795275590551181,"duration":0.33333350000000017},{"name":"C#4","midi":61,"time":11.333338999999993,"velocity":0.7795275590551181,"duration":0.8055559583333327},{"name":"C4","midi":60,"time":12.166672749999993,"velocity":0.7795275590551181,"duration":0.1666667499999992},{"name":"A#3","midi":58,"time":12.333339499999992,"velocity":0.7795275590551181,"duration":0.1666667499999992},{"name":"A3","midi":57,"time":12.500006249999991,"velocity":0.7795275590551181,"duration":0.1666667499999992},{"name":"A#3","midi":58,"time":12.66667299999999,"velocity":0.7795275590551181,"duration":0.33333350000000017},{"name":"G3","midi":55,"time":13.00000649999999,"velocity":0.7795275590551181,"duration":0.33333350000000017},{"name":"E4","midi":64,"time":13.33333999999999,"velocity":0.7795275590551181,"duration":0.8055559583333327},{"name":"F4","midi":65,"time":14.16667374999999,"velocity":0.7795275590551181,"duration":0.1666667499999992},{"name":"G4","midi":67,"time":14.33334049999999,"velocity":0.7795275590551181,"duration":0.1666667499999992},{"name":"G#4","midi":68,"time":14.500007249999989,"velocity":0.7795275590551181,"duration":0.1666667499999992},{"name":"A#4","midi":70,"time":14.666673999999988,"velocity":0.7795275590551181,"duration":0.33333350000000017},{"name":"G4","midi":67,"time":15.000007499999988,"velocity":0.7795275590551181,"duration":0.1666667499999992},{"name":"E4","midi":64,"time":15.166674249999987,"velocity":0.7795275590551181,"duration":0.1666667499999992},{"name":"C#4","midi":61,"time":15.333340999999987,"velocity":0.7795275590551181,"duration":0.33333350000000017},{"name":"C4","midi":60,"time":15.666674499999987,"velocity":0.7795275590551181,"duration":0.33333350000000017},{"name":"A#3","midi":58,"time":16.000007999999987,"velocity":0.7795275590551181,"duration":0.16666675000000097},{"name":"G#3","midi":56,"time":16.166674749999988,"velocity":0.7795275590551181,"duration":0.16666675000000097},{"name":"G3","midi":55,"time":16.33334149999999,"velocity":0.7795275590551181,"duration":0.16666675000000097},{"name":"G#3","midi":56,"time":16.50000824999999,"velocity":0.7795275590551181,"duration":0.16666675000000097},{"name":"A#3","midi":58,"time":16.66667499999999,"velocity":0.7795275590551181,"duration":0.16666675000000097},{"name":"C#4","midi":61,"time":16.833341749999992,"velocity":0.7795275590551181,"duration":0.16666675000000097},{"name":"C4","midi":60,"time":17.000008499999993,"velocity":0.7795275590551181,"duration":0.16666675000000097},{"name":"A#3","midi":58,"time":17.166675249999994,"velocity":0.7795275590551181,"duration":0.16666675000000097},{"name":"G#3","midi":56,"time":17.333341999999995,"velocity":0.7795275590551181,"duration":0.16666675000000097},{"name":"G3","midi":55,"time":17.500008749999996,"velocity":0.7795275590551181,"duration":0.16666675000000097},{"name":"F3","midi":53,"time":17.666675499999997,"velocity":0.7795275590551181,"duration":0.16666675000000097},{"name":"E3","midi":52,"time":17.833342249999998,"velocity":0.7795275590551181,"duration":0.16666675000000097},{"name":"G#3","midi":56,"time":18.000009,"velocity":0.7795275590551181,"duration":0.3333334999999984},{"name":"F3","midi":53,"time":18.333342499999997,"velocity":0.7795275590551181,"duration":0.5000002499999994},{"name":"G3","midi":55,"time":18.833342749999996,"velocity":0.7795275590551181,"duration":0.16666675000000097},{"name":"G#3","midi":56,"time":19.000009499999997,"velocity":0.7795275590551181,"duration":0.16666675000000097},{"name":"G3","midi":55,"time":19.16667625,"velocity":0.7795275590551181,"duration":0.16666675000000097},{"name":"F3","midi":53,"time":19.333343,"velocity":0.7795275590551181,"duration":0.16666675000000097},{"name":"D#3","midi":51,"time":19.50000975,"velocity":0.7795275590551181,"duration":0.16666675000000097},{"name":"C#3","midi":49,"time":19.6666765,"velocity":0.7795275590551181,"duration":0.16666675000000097},{"name":"C3","midi":48,"time":19.833343250000002,"velocity":0.7795275590551181,"duration":0.16666675000000097},{"name":"B2","midi":47,"time":20.000010000000003,"velocity":0.7795275590551181,"duration":0.3333334999999984},{"name":"G#3","midi":56,"time":20.3333435,"velocity":0.7795275590551181,"duration":0.5000002499999994},{"name":"G3","midi":55,"time":20.83334375,"velocity":0.7795275590551181,"duration":0.16666675000000097},{"name":"F3","midi":53,"time":21.000010500000002,"velocity":0.7795275590551181,"duration":0.16666675000000097},{"name":"D#3","midi":51,"time":21.166677250000003,"velocity":0.7795275590551181,"duration":0.16666675000000097},{"name":"D3","midi":50,"time":21.333344000000004,"velocity":0.7795275590551181,"duration":0.16666675000000097},{"name":"C3","midi":48,"time":21.500010750000005,"velocity":0.7795275590551181,"duration":0.16666675000000097},{"name":"B2","midi":47,"time":21.666677500000006,"velocity":0.7795275590551181,"duration":0.16666675000000097},{"name":"A2","midi":45,"time":21.833344250000007,"velocity":0.7795275590551181,"duration":0.16666675000000097},{"name":"G2","midi":43,"time":22.000011000000008,"velocity":0.7795275590551181,"duration":0.16666675000000097},{"name":"A2","midi":45,"time":22.16667775000001,"velocity":0.7795275590551181,"duration":0.16666675000000097},{"name":"B2","midi":47,"time":22.33334450000001,"velocity":0.7795275590551181,"duration":0.16666675000000097},{"name":"C3","midi":48,"time":22.50001125000001,"velocity":0.7795275590551181,"duration":0.16666675000000097},{"name":"D3","midi":50,"time":22.66667800000001,"velocity":0.7795275590551181,"duration":0.16666675000000097},{"name":"D#3","midi":51,"time":22.833344750000013,"velocity":0.7795275590551181,"duration":0.16666675000000097},{"name":"F3","midi":53,"time":23.000011500000014,"velocity":0.7795275590551181,"duration":0.16666675000000097},{"name":"D3","midi":50,"time":23.166678250000015,"velocity":0.7795275590551181,"duration":0.16666675000000097},{"name":"C3","midi":48,"time":23.333345000000016,"velocity":0.7795275590551181,"duration":0.16666675000000097},{"name":"B2","midi":47,"time":23.500011750000017,"velocity":0.7795275590551181,"duration":0.16666675000000097},{"name":"C3","midi":48,"time":23.666678500000017,"velocity":0.7795275590551181,"duration":0.16666675000000097},{"name":"B2","midi":47,"time":23.83334525000002,"velocity":0.7795275590551181,"duration":0.16666675000000097},{"name":"D#3","midi":51,"time":24.00001200000002,"velocity":0.7795275590551181,"duration":0.3333334999999984},{"name":"C4","midi":60,"time":24.333345500000018,"velocity":0.7795275590551181,"duration":0.5000002499999994},{"name":"D4","midi":62,"time":24.833345750000017,"velocity":0.7795275590551181,"duration":0.16666675000000097},{"name":"D#4","midi":63,"time":25.000012500000018,"velocity":0.7795275590551181,"duration":0.16666675000000097},{"name":"D4","midi":62,"time":25.16667925000002,"velocity":0.7795275590551181,"duration":0.16666675000000097},{"name":"C4","midi":60,"time":25.33334600000002,"velocity":0.7795275590551181,"duration":0.16666675000000097},{"name":"A#3","midi":58,"time":25.50001275000002,"velocity":0.7795275590551181,"duration":0.16666675000000097},{"name":"G#3","midi":56,"time":25.666679500000022,"velocity":0.7795275590551181,"duration":0.16666675000000097},{"name":"G3","midi":55,"time":25.833346250000023,"velocity":0.7795275590551181,"duration":0.16666675000000097},{"name":"F#3","midi":54,"time":26.000013000000024,"velocity":0.7795275590551181,"duration":0.3333334999999984},{"name":"D#4","midi":63,"time":26.333346500000022,"velocity":0.7795275590551181,"duration":0.5000002499999994},{"name":"D4","midi":62,"time":26.833346750000022,"velocity":0.7795275590551181,"duration":0.16666675000000097},{"name":"C4","midi":60,"time":27.000013500000023,"velocity":0.7795275590551181,"duration":0.16666675000000097},{"name":"A#3","midi":58,"time":27.166680250000024,"velocity":0.7795275590551181,"duration":0.16666675000000097},{"name":"A3","midi":57,"time":27.333347000000025,"velocity":0.7795275590551181,"duration":0.16666675000000097},{"name":"G3","midi":55,"time":27.500013750000026,"velocity":0.7795275590551181,"duration":0.16666675000000097},{"name":"F3","midi":53,"time":27.666680500000027,"velocity":0.7795275590551181,"duration":0.16666675000000097},{"name":"E3","midi":52,"time":27.833347250000028,"velocity":0.7795275590551181,"duration":0.16666675000000097},{"name":"D3","midi":50,"time":28.00001400000003,"velocity":0.7795275590551181,"duration":0.16666675000000097},{"name":"E3","midi":52,"time":28.16668075000003,"velocity":0.7795275590551181,"duration":0.16666675000000097},{"name":"F#3","midi":54,"time":28.33334750000003,"velocity":0.7795275590551181,"duration":0.16666675000000097},{"name":"G3","midi":55,"time":28.50001425000003,"velocity":0.7795275590551181,"duration":0.16666675000000097},{"name":"A3","midi":57,"time":28.666681000000032,"velocity":0.7795275590551181,"duration":0.16666675000000097},{"name":"A#3","midi":58,"time":28.833347750000033,"velocity":0.7795275590551181,"duration":0.16666675000000097},{"name":"C4","midi":60,"time":29.000014500000034,"velocity":0.7795275590551181,"duration":0.16666675000000097},{"name":"A3","midi":57,"time":29.166681250000035,"velocity":0.7795275590551181,"duration":0.16666675000000097},{"name":"G3","midi":55,"time":29.333348000000036,"velocity":0.7795275590551181,"duration":0.16666675000000097},{"name":"F#3","midi":54,"time":29.500014750000037,"velocity":0.7795275590551181,"duration":0.16666675000000097},{"name":"G3","midi":55,"time":29.66668150000004,"velocity":0.7795275590551181,"duration":0.16666675000000097},{"name":"F#3","midi":54,"time":29.83334825000004,"velocity":0.7795275590551181,"duration":0.16666675000000097},{"name":"G3","midi":55,"time":30.00001500000004,"velocity":0.7795275590551181,"duration":0.16666675000000097},{"name":"A3","midi":57,"time":30.16668175000004,"velocity":0.7795275590551181,"duration":0.16666675000000097},{"name":"B3","midi":59,"time":30.333348500000042,"velocity":0.7795275590551181,"duration":0.16666675000000097},{"name":"C4","midi":60,"time":30.500015250000043,"velocity":0.7795275590551181,"duration":0.16666675000000097},{"name":"D4","midi":62,"time":30.666682000000044,"velocity":0.7795275590551181,"duration":0.16666675000000097},{"name":"D#4","midi":63,"time":30.833348750000045,"velocity":0.7795275590551181,"duration":0.16666675000000097},{"name":"F4","midi":65,"time":31.000015500000046,"velocity":0.7795275590551181,"duration":0.16666675000000097},{"name":"D4","midi":62,"time":31.166682250000047,"velocity":0.7795275590551181,"duration":0.16666675000000097},{"name":"D#4","midi":63,"time":31.333349000000048,"velocity":0.7795275590551181,"duration":0.16666675000000097},{"name":"C4","midi":60,"time":31.50001575000005,"velocity":0.7795275590551181,"duration":0.16666675000000097},{"name":"D4","midi":62,"time":31.66668250000005,"velocity":0.7795275590551181,"duration":0.16666675000000097},{"name":"D#4","midi":63,"time":31.83334925000005,"velocity":0.7795275590551181,"duration":0.16666675000000097},{"name":"F4","midi":65,"time":32.00001600000005,"velocity":0.7795275590551181,"duration":0.16666674999999742},{"name":"G4","midi":67,"time":32.16668275000005,"velocity":0.7795275590551181,"duration":0.16666674999999742},{"name":"G#4","midi":68,"time":32.33334950000005,"velocity":0.7795275590551181,"duration":0.16666674999999742},{"name":"F4","midi":65,"time":32.500016250000044,"velocity":0.7795275590551181,"duration":0.16666674999999742},{"name":"G4","midi":67,"time":32.66668300000004,"velocity":0.7795275590551181,"duration":0.16666674999999742},{"name":"D4","midi":62,"time":32.83334975000004,"velocity":0.7795275590551181,"duration":0.16666674999999742},{"name":"D#4","midi":63,"time":33.00001650000004,"velocity":0.7795275590551181,"duration":0.16666674999999742},{"name":"F4","midi":65,"time":33.166683250000034,"velocity":0.7795275590551181,"duration":0.16666674999999742},{"name":"G3","midi":55,"time":33.33335000000003,"velocity":0.7795275590551181,"duration":0.16666674999999742},{"name":"F4","midi":65,"time":33.50001675000003,"velocity":0.7795275590551181,"duration":0.16666674999999742},{"name":"D#4","midi":63,"time":33.666683500000026,"velocity":0.7795275590551181,"duration":0.16666674999999742},{"name":"D4","midi":62,"time":33.833350250000024,"velocity":0.7795275590551181,"duration":0.16666674999999742},{"name":"D#4","midi":63,"time":34.00001700000002,"velocity":0.7795275590551181,"duration":0.16666674999999742},{"name":"F3","midi":53,"time":34.16668375000002,"velocity":0.7795275590551181,"duration":0.16666674999999742},{"name":"D#3","midi":51,"time":34.333350500000016,"velocity":0.7795275590551181,"duration":0.16666674999999742},{"name":"D3","midi":50,"time":34.50001725000001,"velocity":0.7795275590551181,"duration":0.16666674999999742},{"name":"D#3","midi":51,"time":34.66668400000001,"velocity":0.7795275590551181,"duration":0.33333350000000195},{"name":"C3","midi":48,"time":35.00001750000001,"velocity":0.7795275590551181,"duration":0.33333350000000195},{"name":"G#3","midi":56,"time":35.333351000000015,"velocity":0.7795275590551181,"duration":0.8055559583333363},{"name":"G3","midi":55,"time":36.166684750000016,"velocity":0.7795275590551181,"duration":0.16666674999999742},{"name":"F3","midi":53,"time":36.33335150000001,"velocity":0.7795275590551181,"duration":0.16666674999999742},{"name":"E3","midi":52,"time":36.50001825000001,"velocity":0.7795275590551181,"duration":0.16666674999999742},{"name":"F3","midi":53,"time":36.66668500000001,"velocity":0.7795275590551181,"duration":0.33333350000000195},{"name":"D3","midi":50,"time":37.00001850000001,"velocity":0.7795275590551181,"duration":0.33333350000000195},{"name":"B3","midi":59,"time":37.33335200000001,"velocity":0.7795275590551181,"duration":0.8055559583333363},{"name":"C4","midi":60,"time":38.16668575000001,"velocity":0.7795275590551181,"duration":0.16666674999999742},{"name":"D4","midi":62,"time":38.33335250000001,"velocity":0.7795275590551181,"duration":0.16666674999999742},{"name":"D#4","midi":63,"time":38.50001925000001,"velocity":0.7795275590551181,"duration":0.16666674999999742},{"name":"F4","midi":65,"time":38.666686000000006,"velocity":0.7795275590551181,"duration":0.33333350000000195},{"name":"D4","midi":62,"time":39.00001950000001,"velocity":0.7795275590551181,"duration":0.16666674999999742},{"name":"B3","midi":59,"time":39.166686250000005,"velocity":0.7795275590551181,"duration":0.16666674999999742},{"name":"G#3","midi":56,"time":39.333353,"velocity":0.7795275590551181,"duration":0.33333350000000195},{"name":"G3","midi":55,"time":39.666686500000004,"velocity":0.7795275590551181,"duration":0.33333350000000195},{"name":"F3","midi":53,"time":40.000020000000006,"velocity":0.7795275590551181,"duration":0.16666674999999742},{"name":"D#3","midi":51,"time":40.166686750000004,"velocity":0.7795275590551181,"duration":0.16666674999999742},{"name":"D3","midi":50,"time":40.3333535,"velocity":0.7795275590551181,"duration":0.16666674999999742},{"name":"D#3","midi":51,"time":40.50002025,"velocity":0.7795275590551181,"duration":0.16666674999999742},{"name":"F3","midi":53,"time":40.666686999999996,"velocity":0.7795275590551181,"duration":0.16666674999999742},{"name":"G#3","midi":56,"time":40.83335374999999,"velocity":0.7795275590551181,"duration":0.16666674999999742},{"name":"G3","midi":55,"time":41.00002049999999,"velocity":0.7795275590551181,"duration":0.16666674999999742},{"name":"F3","midi":53,"time":41.16668724999999,"velocity":0.7795275590551181,"duration":0.16666674999999742},{"name":"D#3","midi":51,"time":41.333353999999986,"velocity":0.7795275590551181,"duration":0.16666674999999742},{"name":"D3","midi":50,"time":41.50002074999998,"velocity":0.7795275590551181,"duration":0.16666674999999742},{"name":"C3","midi":48,"time":41.66668749999998,"velocity":0.7795275590551181,"duration":0.16666674999999742},{"name":"A#2","midi":46,"time":41.83335424999998,"velocity":0.7795275590551181,"duration":0.16666674999999742},{"name":"A2","midi":45,"time":42.000020999999975,"velocity":0.7795275590551181,"duration":0.33333350000000195},{"name":"C4","midi":60,"time":42.33335449999998,"velocity":0.7795275590551181,"duration":0.5000002499999994},{"name":"A#3","midi":58,"time":42.83335474999998,"velocity":0.7795275590551181,"duration":0.16666674999999742},{"name":"A3","midi":57,"time":43.000021499999974,"velocity":0.7795275590551181,"duration":0.16666674999999742},{"name":"G3","midi":55,"time":43.16668824999997,"velocity":0.7795275590551181,"duration":0.16666674999999742},{"name":"F3","midi":53,"time":43.33335499999997,"velocity":0.7795275590551181,"duration":0.16666674999999742},{"name":"D#3","midi":51,"time":43.500021749999966,"velocity":0.7795275590551181,"duration":0.16666674999999742},{"name":"C#3","midi":49,"time":43.666688499999964,"velocity":0.7795275590551181,"duration":0.16666674999999742},{"name":"C3","midi":48,"time":43.83335524999996,"velocity":0.7795275590551181,"duration":0.16666674999999742},{"name":"A#2","midi":46,"time":44.00002199999996,"velocity":0.7795275590551181,"duration":0.33333350000000195},{"name":"C#3","midi":49,"time":44.33335549999996,"velocity":0.7795275590551181,"duration":0.33333350000000195},{"name":"F3","midi":53,"time":44.66668899999996,"velocity":0.7795275590551181,"duration":0.33333350000000195},{"name":"A3","midi":57,"time":45.000022499999965,"velocity":0.7795275590551181,"duration":0.33333350000000195},{"name":"A#3","midi":58,"time":45.33335599999997,"velocity":0.7795275590551181,"duration":0.8055559583333363},{"name":"G#3","midi":56,"time":46.16668974999997,"velocity":0.7795275590551181,"duration":0.16666674999999742},{"name":"G3","midi":55,"time":46.333356499999965,"velocity":0.7795275590551181,"duration":0.16666674999999742},{"name":"F3","midi":53,"time":46.50002324999996,"velocity":0.7795275590551181,"duration":0.16666674999999742},{"name":"G3","midi":55,"time":46.66668999999996,"velocity":0.7795275590551181,"duration":0.33333350000000195},{"name":"D#3","midi":51,"time":47.00002349999996,"velocity":0.7795275590551181,"duration":0.33333350000000195},{"name":"C#4","midi":61,"time":47.333356999999964,"velocity":0.7795275590551181,"duration":0.8055559583333363},{"name":"C4","midi":60,"time":48.166690749999965,"velocity":0.7795275590551181,"duration":0.16666674999999742},{"name":"A#3","midi":58,"time":48.33335749999996,"velocity":0.7795275590551181,"duration":0.16666674999999742},{"name":"C4","midi":60,"time":48.50002424999996,"velocity":0.7795275590551181,"duration":0.16666674999999742},{"name":"C#4","midi":61,"time":48.66669099999996,"velocity":0.7795275590551181,"duration":0.16666674999999742},{"name":"F4","midi":65,"time":48.833357749999955,"velocity":0.7795275590551181,"duration":0.16666674999999742},{"name":"D#4","midi":63,"time":49.00002449999995,"velocity":0.7795275590551181,"duration":0.16666674999999742},{"name":"C#4","midi":61,"time":49.16669124999995,"velocity":0.7795275590551181,"duration":0.16666674999999742},{"name":"C4","midi":60,"time":49.33335799999995,"velocity":0.7795275590551181,"duration":0.16666674999999742},{"name":"A#3","midi":58,"time":49.500024749999945,"velocity":0.7795275590551181,"duration":0.16666674999999742},{"name":"G#3","midi":56,"time":49.66669149999994,"velocity":0.7795275590551181,"duration":0.16666674999999742},{"name":"G3","midi":55,"time":49.83335824999994,"velocity":0.7795275590551181,"duration":0.16666674999999742},{"name":"F3","midi":53,"time":50.00002499999994,"velocity":0.7795275590551181,"duration":0.33333350000000195},{"name":"F4","midi":65,"time":50.33335849999994,"velocity":0.7795275590551181,"duration":0.5000002499999994},{"name":"D#4","midi":63,"time":50.83335874999994,"velocity":0.7795275590551181,"duration":0.16666674999999742},{"name":"C#4","midi":61,"time":51.000025499999936,"velocity":0.7795275590551181,"duration":0.16666674999999742},{"name":"C4","midi":60,"time":51.16669224999993,"velocity":0.7795275590551181,"duration":0.16666674999999742},{"name":"A#3","midi":58,"time":51.33335899999993,"velocity":0.7795275590551181,"duration":0.16666674999999742},{"name":"G#3","midi":56,"time":51.50002574999993,"velocity":0.7795275590551181,"duration":0.16666674999999742},{"name":"G3","midi":55,"time":51.666692499999925,"velocity":0.7795275590551181,"duration":0.16666674999999742},{"name":"A#3","midi":58,"time":51.83335924999992,"velocity":0.7795275590551181,"duration":0.16666674999999742},{"name":"D#3","midi":51,"time":52.00002599999992,"velocity":0.7795275590551181,"duration":0.33333350000000195},{"name":"D#4","midi":63,"time":52.33335949999992,"velocity":0.7795275590551181,"duration":0.5000002499999994},{"name":"C#4","midi":61,"time":52.83335974999992,"velocity":0.7795275590551181,"duration":0.16666674999999742},{"name":"C4","midi":60,"time":53.00002649999992,"velocity":0.7795275590551181,"duration":0.16666674999999742},{"name":"A#3","midi":58,"time":53.166693249999916,"velocity":0.7795275590551181,"duration":0.16666674999999742},{"name":"G#3","midi":56,"time":53.333359999999914,"velocity":0.7795275590551181,"duration":0.16666674999999742},{"name":"F#3","midi":54,"time":53.50002674999991,"velocity":0.7795275590551181,"duration":0.16666674999999742},{"name":"F3","midi":53,"time":53.66669349999991,"velocity":0.7795275590551181,"duration":0.16666674999999742},{"name":"G#3","midi":56,"time":53.833360249999906,"velocity":0.7795275590551181,"duration":0.16666674999999742},{"name":"C#3","midi":49,"time":54.0000269999999,"velocity":0.7795275590551181,"duration":0.33333350000000195},{"name":"C#4","midi":61,"time":54.333360499999905,"velocity":0.7795275590551181,"duration":0.5000002499999994},{"name":"C4","midi":60,"time":54.833360749999905,"velocity":0.7795275590551181,"duration":0.16666674999999742},{"name":"A#3","midi":58,"time":55.0000274999999,"velocity":0.7795275590551181,"duration":0.16666674999999742},{"name":"G#3","midi":56,"time":55.1666942499999,"velocity":0.7795275590551181,"duration":0.16666674999999742},{"name":"G3","midi":55,"time":55.3333609999999,"velocity":0.7795275590551181,"duration":0.16666674999999742},{"name":"F3","midi":53,"time":55.500027749999894,"velocity":0.7795275590551181,"duration":0.16666674999999742},{"name":"E3","midi":52,"time":55.66669449999989,"velocity":0.7795275590551181,"duration":0.16666674999999742},{"name":"G3","midi":55,"time":55.83336124999989,"velocity":0.7795275590551181,"duration":0.16666674999999742},{"name":"C3","midi":48,"time":56.00002799999989,"velocity":0.7795275590551181,"duration":0.8055559583333363},{"name":"D3","midi":50,"time":56.83336174999989,"velocity":0.7795275590551181,"duration":0.16666674999999742},{"name":"E3","midi":52,"time":57.000028499999885,"velocity":0.7795275590551181,"duration":0.16666674999999742},{"name":"F3","midi":53,"time":57.16669524999988,"velocity":0.7795275590551181,"duration":0.16666674999999742},{"name":"G3","midi":55,"time":57.33336199999988,"velocity":0.7795275590551181,"duration":0.16666674999999742},{"name":"G#3","midi":56,"time":57.50002874999988,"velocity":0.7795275590551181,"duration":0.16666674999999742},{"name":"A#3","midi":58,"time":57.666695499999875,"velocity":0.7795275590551181,"duration":0.16666674999999742},{"name":"G3","midi":55,"time":57.83336224999987,"velocity":0.7795275590551181,"duration":0.16666674999999742},{"name":"G#3","midi":56,"time":58.00002899999987,"velocity":0.7795275590551181,"duration":0.16666674999999742},{"name":"A#3","midi":58,"time":58.16669574999987,"velocity":0.7795275590551181,"duration":0.16666674999999742},{"name":"C4","midi":60,"time":58.333362499999865,"velocity":0.7795275590551181,"duration":0.5000002499999994},{"name":"A#3","midi":58,"time":58.833362749999864,"velocity":0.7795275590551181,"duration":0.16666674999999742},{"name":"G#3","midi":56,"time":59.00002949999986,"velocity":0.7795275590551181,"duration":0.16666674999999742},{"name":"G3","midi":55,"time":59.16669624999986,"velocity":0.7795275590551181,"duration":0.16666674999999742},{"name":"F3","midi":53,"time":59.333362999999856,"velocity":0.7795275590551181,"duration":0.16666674999999742},{"name":"D#3","midi":51,"time":59.500029749999854,"velocity":0.7795275590551181,"duration":0.16666674999999742},{"name":"C#3","midi":49,"time":59.66669649999985,"velocity":0.7795275590551181,"duration":0.16666674999999742},{"name":"C3","midi":48,"time":59.83336324999985,"velocity":0.7795275590551181,"duration":0.16666674999999742},{"name":"A#2","midi":46,"time":60.000029999999846,"velocity":0.7795275590551181,"duration":0.16666674999999742},{"name":"C3","midi":48,"time":60.16669674999984,"velocity":0.7795275590551181,"duration":0.16666674999999742},{"name":"C#3","midi":49,"time":60.33336349999984,"velocity":0.7795275590551181,"duration":0.5000002499999994},{"name":"C3","midi":48,"time":60.83336374999984,"velocity":0.7795275590551181,"duration":0.16666674999999742},{"name":"A#2","midi":46,"time":61.00003049999984,"velocity":0.7795275590551181,"duration":0.16666674999999742},{"name":"G#2","midi":44,"time":61.166697249999835,"velocity":0.7795275590551181,"duration":0.16666674999999742},{"name":"G2","midi":43,"time":61.33336399999983,"velocity":0.7795275590551181,"duration":0.16666674999999742},{"name":"F2","midi":41,"time":61.50003074999983,"velocity":0.7795275590551181,"duration":0.16666674999999742},{"name":"E2","midi":40,"time":61.66669749999983,"velocity":0.7795275590551181,"duration":0.16666674999999742},{"name":"D2","midi":38,"time":61.833364249999825,"velocity":0.7795275590551181,"duration":0.16666674999999742},{"name":"C2","midi":36,"time":62.00003099999982,"velocity":0.7795275590551181,"duration":0.16666674999999742},{"name":"D2","midi":38,"time":62.16669774999982,"velocity":0.7795275590551181,"duration":0.16666674999999742},{"name":"E2","midi":40,"time":62.33336449999982,"velocity":0.7795275590551181,"duration":0.16666674999999742},{"name":"F2","midi":41,"time":62.500031249999815,"velocity":0.7795275590551181,"duration":0.16666674999999742},{"name":"G2","midi":43,"time":62.66669799999981,"velocity":0.7795275590551181,"duration":0.16666674999999742},{"name":"G#2","midi":44,"time":62.83336474999981,"velocity":0.7795275590551181,"duration":0.16666674999999742},{"name":"A#2","midi":46,"time":63.00003149999981,"velocity":0.7795275590551181,"duration":0.16666674999999742},{"name":"G2","midi":43,"time":63.166698249999804,"velocity":0.7795275590551181,"duration":0.16666674999999742},{"name":"F2","midi":41,"time":63.3333649999998,"velocity":0.7795275590551181,"duration":0.16666674999999742},{"name":"E2","midi":40,"time":63.5000317499998,"velocity":0.7795275590551181,"duration":0.16666674999999742},{"name":"F2","midi":41,"time":63.6666984999998,"velocity":0.7795275590551181,"duration":0.16666674999999742},{"name":"E2","midi":40,"time":63.833365249999794,"velocity":0.7795275590551181,"duration":0.16666674999999742},{"name":"F2","midi":41,"time":64.00003199999979,"velocity":0.7795275590551181,"duration":0.6666670000000039},{"name":"C3","midi":48,"time":64.8333657499998,"velocity":0.7795275590551181,"duration":0.16666675000000453},{"name":"D3","midi":50,"time":65.0000324999998,"velocity":0.7795275590551181,"duration":0.16666675000000453},{"name":"E3","midi":52,"time":65.16669924999981,"velocity":0.7795275590551181,"duration":0.16666675000000453},{"name":"F3","midi":53,"time":65.33336599999981,"velocity":0.7795275590551181,"duration":0.16666675000000453},{"name":"E3","midi":52,"time":65.50003274999982,"velocity":0.7795275590551181,"duration":0.16666675000000453},{"name":"F3","midi":53,"time":65.66669949999982,"velocity":0.7795275590551181,"duration":0.16666675000000453},{"name":"G3","midi":55,"time":65.83336624999983,"velocity":0.7795275590551181,"duration":0.16666675000000453},{"name":"G#3","midi":56,"time":66.00003299999983,"velocity":0.7795275590551181,"duration":0.16666675000000453},{"name":"G3","midi":55,"time":66.16669974999984,"velocity":0.7795275590551181,"duration":0.16666675000000453},{"name":"G#3","midi":56,"time":66.33336649999984,"velocity":0.7795275590551181,"duration":0.16666675000000453},{"name":"A#3","midi":58,"time":66.50003324999984,"velocity":0.7795275590551181,"duration":0.16666675000000453},{"name":"C4","midi":60,"time":66.66669999999985,"velocity":0.7795275590551181,"duration":0.33333349999999484},{"name":"A#3","midi":58,"time":67.00003349999984,"velocity":0.7795275590551181,"duration":0.33333349999999484},{"name":"C4","midi":60,"time":67.33336699999984,"velocity":0.7795275590551181,"duration":0.33333349999999484},{"name":"C3","midi":48,"time":67.66670049999983,"velocity":0.7795275590551181,"duration":0.33333349999999484},{"name":"F2","midi":41,"time":68.00003399999983,"velocity":0.7795275590551181,"duration":2.0000009999999975}],"controlChanges":{"7":[{"number":7,"time":0,"value":0.7874015748031497}],"10":[{"number":10,"time":0,"value":0.3779527559055118}]},"id":2,"name":"Harpsichord LH","instrumentNumber":6,"instrument":"harpsichord","instrumentFamily":"piano","channelNumber":0,"isPercussion":false}]}