{"header":{"PPQ":240,"timeSignature":[1,4],"bpm":120,"name":""},"startTime":5.529166666666666,"duration":186.97916666666555,"tracks":[{"startTime":5.529166666666666,"duration":186.97916666666555,"length":1447,"notes":[{"name":"A3","midi":57,"time":5.529166666666666,"velocity":0.84251968503937,"duration":0.25833333333333286},{"name":"F#3","midi":54,"time":5.533333333333332,"velocity":0.84251968503937,"duration":2.0437499999999975},{"name":"C#5","midi":73,"time":5.787499999999999,"velocity":0.8188976377952756,"duration":0.2625000000000002},{"name":"D5","midi":74,"time":6.049999999999999,"velocity":0.8188976377952756,"duration":0.13124999999999964},{"name":"B3","midi":59,"time":6.049999999999999,"velocity":0.84251968503937,"duration":0.2645833333333325},{"name":"C#5","midi":73,"time":6.181249999999999,"velocity":0.8188976377952756,"duration":0.13124999999999964},{"name":"B4","midi":71,"time":6.314583333333331,"velocity":0.8188976377952756,"duration":0.12708333333333321},{"name":"D5","midi":74,"time":6.441666666666665,"velocity":0.8188976377952756,"duration":0.12708333333333321},{"name":"C#5","midi":73,"time":6.570833333333331,"velocity":0.8188976377952756,"duration":0.12708333333333321},{"name":"A3","midi":57,"time":6.570833333333331,"velocity":0.84251968503937,"duration":0.25416666666666643},{"name":"B4","midi":71,"time":6.697916666666664,"velocity":0.8188976377952756,"duration":0.12708333333333321},{"name":"A4","midi":69,"time":6.827083333333331,"velocity":0.8188976377952756,"duration":0.125},{"name":"C#5","midi":73,"time":6.954166666666664,"velocity":0.8188976377952756,"duration":0.12708333333333321},{"name":"B4","midi":71,"time":7.081249999999997,"velocity":0.8188976377952756,"duration":0.12916666666666643},{"name":"G#3","midi":56,"time":7.08333333333333,"velocity":0.84251968503937,"duration":0.25833333333333286},{"name":"A4","midi":69,"time":7.212499999999997,"velocity":0.8188976377952756,"duration":0.12916666666666643},{"name":"G#4","midi":68,"time":7.3437499999999964,"velocity":0.8188976377952756,"duration":0.125},{"name":"B4","midi":71,"time":7.47083333333333,"velocity":0.8188976377952756,"duration":0.12916666666666643},{"name":"A4","midi":69,"time":7.599999999999996,"velocity":0.8188976377952756,"duration":0.12916666666666643},{"name":"F#3","midi":54,"time":7.599999999999996,"velocity":0.84251968503937,"duration":0.2604166666666661},{"name":"F#2","midi":42,"time":7.602083333333329,"velocity":0.84251968503937,"duration":0.25833333333333286},{"name":"G#4","midi":68,"time":7.731249999999996,"velocity":0.8188976377952756,"duration":0.12916666666666643},{"name":"F#3","midi":54,"time":7.862499999999995,"velocity":0.84251968503937,"duration":0.2604166666666661},{"name":"F#4","midi":66,"time":7.862499999999995,"velocity":0.84251968503937,"duration":0.12916666666666643},{"name":"A4","midi":69,"time":7.993749999999995,"velocity":0.8188976377952756,"duration":0.12916666666666643},{"name":"C#5","midi":73,"time":8.124999999999995,"velocity":0.8188976377952756,"duration":0.25624999999999964},{"name":"A3","midi":57,"time":8.124999999999995,"velocity":0.84251968503937,"duration":0.125},{"name":"G#3","midi":56,"time":8.249999999999995,"velocity":0.84251968503937,"duration":0.12916666666666643},{"name":"A5","midi":81,"time":8.381249999999994,"velocity":0.7244094488188977,"duration":0.25833333333333286},{"name":"F#3","midi":54,"time":8.383333333333328,"velocity":0.84251968503937,"duration":0.12708333333333321},{"name":"A3","midi":57,"time":8.51041666666666,"velocity":0.84251968503937,"duration":0.12708333333333321},{"name":"C5","midi":72,"time":8.639583333333327,"velocity":0.8188976377952756,"duration":0.25833333333333286},{"name":"G#3","midi":56,"time":8.64166666666666,"velocity":0.84251968503937,"duration":0.12708333333333321},{"name":"F#3","midi":54,"time":8.768749999999994,"velocity":0.84251968503937,"duration":0.12708333333333321},{"name":"G#5","midi":80,"time":8.89791666666666,"velocity":0.7244094488188977,"duration":0.25416666666666643},{"name":"E3","midi":52,"time":8.899999999999993,"velocity":0.84251968503937,"duration":0.125},{"name":"G#3","midi":56,"time":9.024999999999993,"velocity":0.84251968503937,"duration":0.12708333333333321},{"name":"G#4","midi":68,"time":9.15416666666666,"velocity":0.8188976377952756,"duration":0.25624999999999964},{"name":"F#3","midi":54,"time":9.15416666666666,"velocity":0.84251968503937,"duration":0.125},{"name":"E3","midi":52,"time":9.281249999999993,"velocity":0.84251968503937,"duration":0.12916666666666643},{"name":"F#5","midi":78,"time":9.412499999999993,"velocity":0.7244094488188977,"duration":0.25416666666666643},{"name":"D#3","midi":51,"time":9.412499999999993,"velocity":0.84251968503937,"duration":0.125},{"name":"F#3","midi":54,"time":9.539583333333326,"velocity":0.84251968503937,"duration":0.12708333333333321},{"name":"C#5","midi":73,"time":9.668749999999992,"velocity":0.8188976377952756,"duration":0.2520833333333332},{"name":"E3","midi":52,"time":9.668749999999992,"velocity":0.84251968503937,"duration":0.12291666666666679},{"name":"D#3","midi":51,"time":9.793749999999992,"velocity":0.84251968503937,"duration":0.12708333333333321},{"name":"E5","midi":76,"time":9.922916666666659,"velocity":0.8188976377952756,"duration":0.25},{"name":"C#3","midi":49,"time":9.922916666666659,"velocity":0.84251968503937,"duration":0.12291666666666679},{"name":"E3","midi":52,"time":10.047916666666659,"velocity":0.84251968503937,"duration":0.125},{"name":"A4","midi":69,"time":10.174999999999992,"velocity":0.8188976377952756,"duration":0.12291666666666679},{"name":"F#3","midi":54,"time":10.174999999999992,"velocity":0.84251968503937,"duration":0.25},{"name":"G#4","midi":68,"time":10.299999999999992,"velocity":0.8188976377952756,"duration":0.125},{"name":"F#4","midi":66,"time":10.424999999999992,"velocity":0.84251968503937,"duration":0.125},{"name":"A3","midi":57,"time":10.427083333333325,"velocity":0.84251968503937,"duration":0.25},{"name":"A4","midi":69,"time":10.549999999999992,"velocity":0.8188976377952756,"duration":0.125},{"name":"B4","midi":71,"time":10.677083333333325,"velocity":0.8188976377952756,"duration":0.2520833333333332},{"name":"D3","midi":50,"time":10.679166666666658,"velocity":0.84251968503937,"duration":0.12291666666666679},{"name":"C#3","midi":49,"time":10.802083333333325,"velocity":0.84251968503937,"duration":0.125},{"name":"D5","midi":74,"time":10.929166666666658,"velocity":0.8188976377952756,"duration":0.2520833333333332},{"name":"B2","midi":47,"time":10.931249999999991,"velocity":0.84251968503937,"duration":0.12291666666666679},{"name":"D3","midi":50,"time":11.054166666666658,"velocity":0.84251968503937,"duration":0.125},{"name":"G#4","midi":68,"time":11.181249999999991,"velocity":0.8188976377952756,"duration":0.12291666666666679},{"name":"E3","midi":52,"time":11.183333333333325,"velocity":0.84251968503937,"duration":0.24791666666666679},{"name":"F#4","midi":66,"time":11.304166666666658,"velocity":0.84251968503937,"duration":0.125},{"name":"E4","midi":64,"time":11.431249999999991,"velocity":0.84251968503937,"duration":0.125},{"name":"G#3","midi":56,"time":11.433333333333325,"velocity":0.84251968503937,"duration":0.25},{"name":"G#4","midi":68,"time":11.556249999999991,"velocity":0.8188976377952756,"duration":0.125},{"name":"A4","midi":69,"time":11.683333333333325,"velocity":0.8188976377952756,"duration":0.2520833333333332},{"name":"C#3","midi":49,"time":11.685416666666658,"velocity":0.84251968503937,"duration":0.12291666666666679},{"name":"B2","midi":47,"time":11.808333333333325,"velocity":0.84251968503937,"duration":0.125},{"name":"C#5","midi":73,"time":11.935416666666658,"velocity":0.8188976377952756,"duration":0.25},{"name":"A2","midi":45,"time":11.937499999999991,"velocity":0.84251968503937,"duration":0.12083333333333357},{"name":"C#3","midi":49,"time":12.058333333333325,"velocity":0.84251968503937,"duration":0.12708333333333321},{"name":"B4","midi":71,"time":12.185416666666658,"velocity":0.8188976377952756,"duration":0.12291666666666679},{"name":"D3","midi":50,"time":12.187499999999991,"velocity":0.84251968503937,"duration":0.12083333333333357},{"name":"C#5","midi":73,"time":12.310416666666658,"velocity":0.8188976377952756,"duration":0.125},{"name":"C#3","midi":49,"time":12.310416666666658,"velocity":0.84251968503937,"duration":0.125},{"name":"D5","midi":74,"time":12.435416666666658,"velocity":0.8188976377952756,"duration":0.125},{"name":"B2","midi":47,"time":12.437499999999991,"velocity":0.84251968503937,"duration":0.12083333333333357},{"name":"F#5","midi":78,"time":12.560416666666658,"velocity":0.7244094488188977,"duration":0.125},{"name":"D3","midi":50,"time":12.560416666666658,"velocity":0.84251968503937,"duration":0.125},{"name":"A4","midi":69,"time":12.687499999999991,"velocity":0.8188976377952756,"duration":0.12291666666666679},{"name":"C#3","midi":49,"time":12.687499999999991,"velocity":0.84251968503937,"duration":0.12083333333333357},{"name":"B4","midi":71,"time":12.810416666666658,"velocity":0.8188976377952756,"duration":0.125},{"name":"B2","midi":47,"time":12.810416666666658,"velocity":0.84251968503937,"duration":0.125},{"name":"C#5","midi":73,"time":12.937499999999991,"velocity":0.8188976377952756,"duration":0.12083333333333357},{"name":"A2","midi":45,"time":12.937499999999991,"velocity":0.84251968503937,"duration":0.12083333333333357},{"name":"F#5","midi":78,"time":13.060416666666658,"velocity":0.7244094488188977,"duration":0.125},{"name":"C#3","midi":49,"time":13.062499999999991,"velocity":0.84251968503937,"duration":0.125},{"name":"G#4","midi":68,"time":13.185416666666658,"velocity":0.8188976377952756,"duration":0.125},{"name":"B2","midi":47,"time":13.187499999999991,"velocity":0.84251968503937,"duration":0.12083333333333357},{"name":"A4","midi":69,"time":13.310416666666658,"velocity":0.8188976377952756,"duration":0.125},{"name":"A2","midi":45,"time":13.312499999999991,"velocity":0.84251968503937,"duration":0.12291666666666679},{"name":"B4","midi":71,"time":13.437499999999991,"velocity":0.8188976377952756,"duration":0.12291666666666679},{"name":"G#2","midi":44,"time":13.437499999999991,"velocity":0.84251968503937,"duration":0.12083333333333357},{"name":"F5","midi":77,"time":13.560416666666658,"velocity":0.7244094488188977,"duration":0.125},{"name":"B2","midi":47,"time":13.562499999999991,"velocity":0.84251968503937,"duration":0.12291666666666679},{"name":"F#4","midi":66,"time":13.687499999999991,"velocity":0.84251968503937,"duration":0.25624999999999964},{"name":"A2","midi":45,"time":13.687499999999991,"velocity":0.84251968503937,"duration":0.12291666666666679},{"name":"G#2","midi":44,"time":13.812499999999991,"velocity":0.84251968503937,"duration":0.125},{"name":"A4","midi":69,"time":13.937499999999991,"velocity":0.8188976377952756,"duration":0.25833333333333286},{"name":"F#2","midi":42,"time":13.939583333333324,"velocity":0.84251968503937,"duration":0.12291666666666679},{"name":"A2","midi":45,"time":14.064583333333324,"velocity":0.84251968503937,"duration":0.125},{"name":"B4","midi":71,"time":14.189583333333324,"velocity":0.8188976377952756,"duration":0.12916666666666643},{"name":"D3","midi":50,"time":14.191666666666658,"velocity":0.84251968503937,"duration":0.25},{"name":"C#5","midi":73,"time":14.314583333333324,"velocity":0.8188976377952756,"duration":0.12708333333333321},{"name":"D5","midi":74,"time":14.44374999999999,"velocity":0.8188976377952756,"duration":0.12291666666666679},{"name":"F#3","midi":54,"time":14.44374999999999,"velocity":0.84251968503937,"duration":0.25},{"name":"B4","midi":71,"time":14.56874999999999,"velocity":0.8188976377952756,"duration":0.125},{"name":"G#4","midi":68,"time":14.695833333333324,"velocity":0.8188976377952756,"duration":0.25},{"name":"B2","midi":47,"time":14.695833333333324,"velocity":0.84251968503937,"duration":0.12291666666666679},{"name":"A2","midi":45,"time":14.820833333333324,"velocity":0.84251968503937,"duration":0.125},{"name":"B4","midi":71,"time":14.947916666666657,"velocity":0.8188976377952756,"duration":0.24791666666666679},{"name":"G#2","midi":44,"time":14.947916666666657,"velocity":0.84251968503937,"duration":0.12291666666666679},{"name":"B2","midi":47,"time":15.072916666666657,"velocity":0.84251968503937,"duration":0.12291666666666679},{"name":"C#5","midi":73,"time":15.197916666666657,"velocity":0.8188976377952756,"duration":0.12291666666666679},{"name":"E3","midi":52,"time":15.197916666666657,"velocity":0.84251968503937,"duration":0.24791666666666679},{"name":"D5","midi":74,"time":15.322916666666657,"velocity":0.8188976377952756,"duration":0.12291666666666679},{"name":"E5","midi":76,"time":15.447916666666657,"velocity":0.8188976377952756,"duration":0.125},{"name":"G#3","midi":56,"time":15.447916666666657,"velocity":0.84251968503937,"duration":0.25624999999999964},{"name":"C#5","midi":73,"time":15.572916666666657,"velocity":0.8188976377952756,"duration":0.12291666666666679},{"name":"A4","midi":69,"time":15.695833333333324,"velocity":0.8188976377952756,"duration":0.25416666666666643},{"name":"C#3","midi":49,"time":15.697916666666657,"velocity":0.84251968503937,"duration":0.12916666666666643},{"name":"B2","midi":47,"time":15.822916666666657,"velocity":0.84251968503937,"duration":0.12708333333333321},{"name":"C#5","midi":73,"time":15.94999999999999,"velocity":0.8188976377952756,"duration":0.2520833333333332},{"name":"A2","midi":45,"time":15.952083333333324,"velocity":0.84251968503937,"duration":0.12291666666666501},{"name":"C#3","midi":49,"time":16.07499999999999,"velocity":0.84251968503937,"duration":0.125},{"name":"F#5","midi":78,"time":16.202083333333324,"velocity":0.7244094488188977,"duration":0.125},{"name":"D3","midi":50,"time":16.20416666666666,"velocity":0.84251968503937,"duration":0.12291666666666501},{"name":"E5","midi":76,"time":16.32916666666666,"velocity":0.8188976377952756,"duration":0.125},{"name":"E3","midi":52,"time":16.32916666666666,"velocity":0.84251968503937,"duration":0.12291666666666501},{"name":"D5","midi":74,"time":16.45416666666666,"velocity":0.8188976377952756,"duration":0.125},{"name":"F#3","midi":54,"time":16.456249999999994,"velocity":0.84251968503937,"duration":0.12291666666666501},{"name":"F#5","midi":78,"time":16.581249999999994,"velocity":0.7244094488188977,"duration":0.125},{"name":"A3","midi":57,"time":16.581249999999994,"velocity":0.84251968503937,"duration":0.12291666666666501},{"name":"E5","midi":76,"time":16.706249999999994,"velocity":0.8188976377952756,"duration":0.125},{"name":"C#3","midi":49,"time":16.70833333333333,"velocity":0.84251968503937,"duration":0.12291666666666501},{"name":"D5","midi":74,"time":16.83333333333333,"velocity":0.8188976377952756,"duration":0.12291666666666856},{"name":"D3","midi":50,"time":16.83333333333333,"velocity":0.84251968503937,"duration":0.12083333333333357},{"name":"C#5","midi":73,"time":16.956249999999997,"velocity":0.8188976377952756,"duration":0.125},{"name":"E3","midi":52,"time":16.958333333333332,"velocity":0.84251968503937,"duration":0.12291666666666501},{"name":"E5","midi":76,"time":17.083333333333332,"velocity":0.8188976377952756,"duration":0.12291666666666501},{"name":"A3","midi":57,"time":17.083333333333332,"velocity":0.84251968503937,"duration":0.12291666666666501},{"name":"D5","midi":74,"time":17.206249999999997,"velocity":0.8188976377952756,"duration":0.127083333333335},{"name":"B2","midi":47,"time":17.208333333333332,"velocity":0.84251968503937,"duration":0.12291666666666501},{"name":"C#5","midi":73,"time":17.333333333333332,"velocity":0.8188976377952756,"duration":0.125},{"name":"C#3","midi":49,"time":17.333333333333332,"velocity":0.84251968503937,"duration":0.12291666666666501},{"name":"B4","midi":71,"time":17.458333333333332,"velocity":0.8188976377952756,"duration":0.12500000000000355},{"name":"D3","midi":50,"time":17.460416666666667,"velocity":0.84251968503937,"duration":0.12083333333333357},{"name":"D5","midi":74,"time":17.583333333333336,"velocity":0.8188976377952756,"duration":0.125},{"name":"G#3","midi":56,"time":17.583333333333336,"velocity":0.84251968503937,"duration":0.125},{"name":"C#5","midi":73,"time":17.71041666666667,"velocity":0.8188976377952756,"duration":0.12083333333333357},{"name":"A2","midi":45,"time":17.71041666666667,"velocity":0.84251968503937,"duration":0.24583333333333357},{"name":"B4","midi":71,"time":17.831250000000004,"velocity":0.8188976377952756,"duration":0.125},{"name":"A4","midi":69,"time":17.956250000000004,"velocity":0.8188976377952756,"duration":0.12500000000000355},{"name":"A3","midi":57,"time":17.95833333333334,"velocity":0.84251968503937,"duration":0.12083333333333357},{"name":"G#4","midi":68,"time":18.081250000000008,"velocity":0.8188976377952756,"duration":0.12291666666666856},{"name":"B3","midi":59,"time":18.083333333333343,"velocity":0.84251968503937,"duration":0.12083333333333357},{"name":"A4","midi":69,"time":18.20625000000001,"velocity":0.8188976377952756,"duration":0.12291666666666856},{"name":"C#4","midi":61,"time":18.20625000000001,"velocity":0.84251968503937,"duration":0.12083333333333357},{"name":"B4","midi":71,"time":18.32916666666668,"velocity":0.8188976377952756,"duration":0.12291666666666856},{"name":"B3","midi":59,"time":18.331250000000015,"velocity":0.84251968503937,"duration":0.12083333333333357},{"name":"C#5","midi":73,"time":18.454166666666683,"velocity":0.8188976377952756,"duration":0.125},{"name":"A3","midi":57,"time":18.454166666666683,"velocity":0.84251968503937,"duration":0.12291666666666501},{"name":"E5","midi":76,"time":18.579166666666683,"velocity":0.8188976377952756,"duration":0.12291666666666856},{"name":"C#4","midi":61,"time":18.58125000000002,"velocity":0.84251968503937,"duration":0.12083333333333357},{"name":"G#4","midi":68,"time":18.704166666666687,"velocity":0.8188976377952756,"duration":0.125},{"name":"B3","midi":59,"time":18.704166666666687,"velocity":0.84251968503937,"duration":0.12291666666666501},{"name":"A4","midi":69,"time":18.829166666666687,"velocity":0.8188976377952756,"duration":0.12291666666666856},{"name":"A3","midi":57,"time":18.831250000000022,"velocity":0.84251968503937,"duration":0.12083333333333357},{"name":"B4","midi":71,"time":18.95416666666669,"velocity":0.8188976377952756,"duration":0.125},{"name":"G#3","midi":56,"time":18.95416666666669,"velocity":0.84251968503937,"duration":0.12291666666666501},{"name":"E5","midi":76,"time":19.07916666666669,"velocity":0.8188976377952756,"duration":0.12291666666666856},{"name":"B3","midi":59,"time":19.081250000000026,"velocity":0.84251968503937,"duration":0.12083333333333357},{"name":"F#4","midi":66,"time":19.204166666666694,"velocity":0.84251968503937,"duration":0.125},{"name":"A3","midi":57,"time":19.204166666666694,"velocity":0.84251968503937,"duration":0.12291666666666501},{"name":"G#4","midi":68,"time":19.329166666666694,"velocity":0.8188976377952756,"duration":0.12291666666666856},{"name":"G#3","midi":56,"time":19.33125000000003,"velocity":0.84251968503937,"duration":0.12083333333333357},{"name":"A4","midi":69,"time":19.454166666666698,"velocity":0.8188976377952756,"duration":0.125},{"name":"F#3","midi":54,"time":19.454166666666698,"velocity":0.84251968503937,"duration":0.12291666666666501},{"name":"D#5","midi":75,"time":19.579166666666698,"velocity":0.8188976377952756,"duration":0.12291666666666856},{"name":"A3","midi":57,"time":19.581250000000033,"velocity":0.84251968503937,"duration":0.12083333333333357},{"name":"E4","midi":64,"time":19.7041666666667,"velocity":0.84251968503937,"duration":0.24583333333333357},{"name":"G#3","midi":56,"time":19.7041666666667,"velocity":0.84251968503937,"duration":0.12083333333333357},{"name":"F#3","midi":54,"time":19.82708333333337,"velocity":0.84251968503937,"duration":0.12291666666666501},{"name":"G#5","midi":80,"time":19.95208333333337,"velocity":0.7244094488188977,"duration":0.37083333333333},{"name":"E3","midi":52,"time":19.95208333333337,"velocity":0.84251968503937,"duration":0.12291666666666501},{"name":"G#3","midi":56,"time":20.075000000000035,"velocity":0.84251968503937,"duration":0.12291666666666501},{"name":"C#4","midi":61,"time":20.200000000000035,"velocity":0.84251968503937,"duration":0.247916666666665},{"name":"E5","midi":76,"time":20.3229166666667,"velocity":0.8188976377952756,"duration":0.12291666666666501},{"name":"C#5","midi":73,"time":20.4479166666667,"velocity":0.8188976377952756,"duration":0.12291666666666856},{"name":"E4","midi":64,"time":20.450000000000035,"velocity":0.84251968503937,"duration":0.24583333333333357},{"name":"C5","midi":72,"time":20.57083333333337,"velocity":0.8188976377952756,"duration":0.12291666666666501},{"name":"C#5","midi":73,"time":20.69583333333337,"velocity":0.8188976377952756,"duration":0.24791666666666856},{"name":"A3","midi":57,"time":20.697916666666703,"velocity":0.84251968503937,"duration":0.12083333333333357},{"name":"G#3","midi":56,"time":20.818750000000037,"velocity":0.84251968503937,"duration":0.12291666666666501},{"name":"A5","midi":81,"time":20.943750000000037,"velocity":0.7244094488188977,"duration":0.37083333333333357},{"name":"F#3","midi":54,"time":20.945833333333372,"velocity":0.84251968503937,"duration":0.12083333333333357},{"name":"A3","midi":57,"time":21.066666666666706,"velocity":0.84251968503937,"duration":0.12291666666666501},{"name":"D#4","midi":63,"time":21.191666666666706,"velocity":0.84251968503937,"duration":0.25},{"name":"F#5","midi":78,"time":21.31458333333337,"velocity":0.7244094488188977,"duration":0.125},{"name":"D#5","midi":75,"time":21.441666666666706,"velocity":0.8188976377952756,"duration":0.12291666666666856},{"name":"F#4","midi":66,"time":21.44375000000004,"velocity":0.84251968503937,"duration":0.24791666666666856},{"name":"C#5","midi":73,"time":21.564583333333374,"velocity":0.8188976377952756,"duration":0.125},{"name":"C5","midi":72,"time":21.69166666666671,"velocity":0.8188976377952756,"duration":0.12291666666666856},{"name":"G#3","midi":56,"time":21.693750000000044,"velocity":0.84251968503937,"duration":0.24791666666666856},{"name":"D#5","midi":75,"time":21.814583333333378,"velocity":0.8188976377952756,"duration":0.125},{"name":"G#5","midi":80,"time":21.941666666666713,"velocity":0.7244094488188977,"duration":0.12291666666666856},{"name":"E4","midi":64,"time":21.943750000000048,"velocity":0.84251968503937,"duration":0.24791666666666856},{"name":"C#5","midi":73,"time":22.06458333333338,"velocity":0.8188976377952756,"duration":0.125},{"name":"A5","midi":81,"time":22.191666666666716,"velocity":0.7244094488188977,"duration":0.12291666666666856},{"name":"F#3","midi":54,"time":22.19375000000005,"velocity":0.84251968503937,"duration":0.24791666666666856},{"name":"G#5","midi":80,"time":22.31666666666672,"velocity":0.7244094488188977,"duration":0.125},{"name":"F#5","midi":78,"time":22.443750000000055,"velocity":0.7244094488188977,"duration":0.12083333333333357},{"name":"D#4","midi":63,"time":22.443750000000055,"velocity":0.84251968503937,"duration":0.24583333333333357},{"name":"A5","midi":81,"time":22.566666666666723,"velocity":0.7244094488188977,"duration":0.12291666666666501},{"name":"G#5","midi":80,"time":22.68958333333339,"velocity":0.7244094488188977,"duration":0.12291666666666856},{"name":"E3","midi":52,"time":22.691666666666723,"velocity":0.84251968503937,"duration":0.24583333333333357},{"name":"F#5","midi":78,"time":22.812500000000057,"velocity":0.7244094488188977,"duration":0.125},{"name":"E5","midi":76,"time":22.939583333333392,"velocity":0.8188976377952756,"duration":0.12291666666666501},{"name":"C#4","midi":61,"time":22.939583333333392,"velocity":0.84251968503937,"duration":0.247916666666665},{"name":"G#5","midi":80,"time":23.064583333333392,"velocity":0.7244094488188977,"duration":0.12291666666666501},{"name":"F#5","midi":78,"time":23.189583333333392,"velocity":0.7244094488188977,"duration":0.12291666666666501},{"name":"D#3","midi":51,"time":23.189583333333392,"velocity":0.84251968503937,"duration":0.25},{"name":"E5","midi":76,"time":23.314583333333392,"velocity":0.8188976377952756,"duration":0.125},{"name":"D#5","midi":75,"time":23.441666666666727,"velocity":0.8188976377952756,"duration":0.12291666666666501},{"name":"C4","midi":60,"time":23.441666666666727,"velocity":0.84251968503937,"duration":0.25},{"name":"F#5","midi":78,"time":23.566666666666727,"velocity":0.7244094488188977,"duration":0.125},{"name":"E5","midi":76,"time":23.693750000000062,"velocity":0.8188976377952756,"duration":0.12291666666666501},{"name":"C#3","midi":49,"time":23.693750000000062,"velocity":0.84251968503937,"duration":0.247916666666665},{"name":"D#5","midi":75,"time":23.818750000000062,"velocity":0.8188976377952756,"duration":0.12291666666666501},{"name":"C#5","midi":73,"time":23.943750000000062,"velocity":0.8188976377952756,"duration":0.12291666666666501},{"name":"C#4","midi":61,"time":23.943750000000062,"velocity":0.84251968503937,"duration":0.247916666666665},{"name":"E5","midi":76,"time":24.068750000000062,"velocity":0.8188976377952756,"duration":0.12291666666666501},{"name":"G#5","midi":80,"time":24.193750000000062,"velocity":0.7244094488188977,"duration":0.247916666666665},{"name":"F3","midi":53,"time":24.193750000000062,"velocity":0.84251968503937,"duration":0.12291666666666501},{"name":"F#3","midi":54,"time":24.318750000000062,"velocity":0.84251968503937,"duration":0.12291666666666501},{"name":"B4","midi":71,"time":24.443750000000062,"velocity":0.8188976377952756,"duration":0.24583333333333357},{"name":"G#3","midi":56,"time":24.443750000000062,"velocity":0.84251968503937,"duration":0.12083333333333357},{"name":"F3","midi":53,"time":24.56666666666673,"velocity":0.84251968503937,"duration":0.12291666666666501},{"name":"A4","midi":69,"time":24.69166666666673,"velocity":0.8188976377952756,"duration":0.12291666666666856},{"name":"F#3","midi":54,"time":24.69166666666673,"velocity":0.84251968503937,"duration":0.12083333333333357},{"name":"G#4","midi":68,"time":24.8145833333334,"velocity":0.8188976377952756,"duration":0.12083333333333357},{"name":"G#3","midi":56,"time":24.816666666666734,"velocity":0.84251968503937,"duration":0.11874999999999858},{"name":"F#4","midi":66,"time":24.937500000000068,"velocity":0.84251968503937,"duration":0.11874999999999858},{"name":"A3","midi":57,"time":24.937500000000068,"velocity":0.84251968503937,"duration":0.12083333333333357},{"name":"A4","midi":69,"time":25.0583333333334,"velocity":0.8188976377952756,"duration":0.12291666666666856},{"name":"F#3","midi":54,"time":25.060416666666736,"velocity":0.84251968503937,"duration":0.12083333333333357},{"name":"F#5","midi":78,"time":25.183333333333405,"velocity":0.7244094488188977,"duration":0.247916666666665},{"name":"D#3","midi":51,"time":25.183333333333405,"velocity":0.84251968503937,"duration":0.12291666666666501},{"name":"E3","midi":52,"time":25.308333333333405,"velocity":0.84251968503937,"duration":0.12291666666666501},{"name":"D#5","midi":75,"time":25.433333333333405,"velocity":0.8188976377952756,"duration":0.25},{"name":"F#3","midi":54,"time":25.433333333333405,"velocity":0.84251968503937,"duration":0.12291666666666501},{"name":"D#3","midi":51,"time":25.558333333333405,"velocity":0.84251968503937,"duration":0.12291666666666501},{"name":"C5","midi":72,"time":25.683333333333405,"velocity":0.8188976377952756,"duration":0.12291666666666501},{"name":"G#3","midi":56,"time":25.683333333333405,"velocity":0.84251968503937,"duration":0.247916666666665},{"name":"A#4","midi":70,"time":25.808333333333405,"velocity":0.8188976377952756,"duration":0.12291666666666501},{"name":"G#4","midi":68,"time":25.933333333333405,"velocity":0.8188976377952756,"duration":0.12291666666666501},{"name":"C#3","midi":49,"time":25.933333333333405,"velocity":0.84251968503937,"duration":0.247916666666665},{"name":"E5","midi":76,"time":26.058333333333405,"velocity":0.8188976377952756,"duration":0.12291666666666501},{"name":"A4","midi":69,"time":26.183333333333405,"velocity":0.8188976377952756,"duration":0.12291666666666501},{"name":"F#3","midi":54,"time":26.183333333333405,"velocity":0.84251968503937,"duration":0.247916666666665},{"name":"G#4","midi":68,"time":26.308333333333405,"velocity":0.8188976377952756,"duration":0.12291666666666501},{"name":"F#4","midi":66,"time":26.433333333333405,"velocity":0.84251968503937,"duration":0.12291666666666501},{"name":"C3","midi":48,"time":26.433333333333405,"velocity":0.84251968503937,"duration":0.247916666666665},{"name":"D#5","midi":75,"time":26.558333333333405,"velocity":0.8188976377952756,"duration":0.12291666666666501},{"name":"G#4","midi":68,"time":26.683333333333405,"velocity":0.8188976377952756,"duration":0.12291666666666501},{"name":"E3","midi":52,"time":26.683333333333405,"velocity":0.84251968503937,"duration":0.247916666666665},{"name":"F#4","midi":66,"time":26.808333333333405,"velocity":0.84251968503937,"duration":0.12291666666666501},{"name":"C#3","midi":49,"time":26.933333333333405,"velocity":0.84251968503937,"duration":0.247916666666665},{"name":"E4","midi":64,"time":26.933333333333405,"velocity":0.84251968503937,"duration":0.12291666666666501},{"name":"C#5","midi":73,"time":27.058333333333405,"velocity":0.8188976377952756,"duration":0.12291666666666501},{"name":"F#4","midi":66,"time":27.183333333333405,"velocity":0.84251968503937,"duration":0.12291666666666856},{"name":"D#3","midi":51,"time":27.18541666666674,"velocity":0.84251968503937,"duration":0.24583333333333357},{"name":"E4","midi":64,"time":27.308333333333408,"velocity":0.84251968503937,"duration":0.12291666666666501},{"name":"D#4","midi":63,"time":27.433333333333408,"velocity":0.84251968503937,"duration":0.125},{"name":"G#2","midi":44,"time":27.433333333333408,"velocity":0.84251968503937,"duration":0.25},{"name":"C5","midi":72,"time":27.558333333333408,"velocity":0.8188976377952756,"duration":0.12291666666666501},{"name":"C#5","midi":73,"time":27.683333333333408,"velocity":0.8188976377952756,"duration":0.125},{"name":"A2","midi":45,"time":27.683333333333408,"velocity":0.84251968503937,"duration":0.252083333333335},{"name":"C5","midi":72,"time":27.808333333333408,"velocity":0.8188976377952756,"duration":0.125},{"name":"C#5","midi":73,"time":27.935416666666743,"velocity":0.8188976377952756,"duration":0.125},{"name":"F#2","midi":42,"time":27.937500000000078,"velocity":0.84251968503937,"duration":0.25},{"name":"F#5","midi":78,"time":28.060416666666743,"velocity":0.7244094488188977,"duration":0.125},{"name":"E5","midi":76,"time":28.187500000000078,"velocity":0.8188976377952756,"duration":0.04375000000000284},{"name":"G#2","midi":44,"time":28.189583333333413,"velocity":0.84251968503937,"duration":0.12291666666666856},{"name":"D#5","midi":75,"time":28.23125000000008,"velocity":0.8188976377952756,"duration":0.04791666666666572},{"name":"E5","midi":76,"time":28.279166666666747,"velocity":0.8188976377952756,"duration":0.04583333333333428},{"name":"F#2","midi":42,"time":28.31250000000008,"velocity":0.84251968503937,"duration":0.125},{"name":"D#5","midi":75,"time":28.32500000000008,"velocity":0.8188976377952756,"duration":0.04791666666666572},{"name":"E5","midi":76,"time":28.372916666666747,"velocity":0.8188976377952756,"duration":0.04583333333333428},{"name":"D#5","midi":75,"time":28.41875000000008,"velocity":0.8188976377952756,"duration":0.1166666666666707},{"name":"G#2","midi":44,"time":28.439583333333417,"velocity":0.84251968503937,"duration":0.25},{"name":"C#5","midi":73,"time":28.564583333333417,"velocity":0.8188976377952756,"duration":0.10624999999999929},{"name":"C#5","midi":73,"time":28.69166666666675,"velocity":0.8188976377952756,"duration":2.26250000000001},{"name":"C#2","midi":37,"time":28.69166666666675,"velocity":0.84251968503937,"duration":0.25},{"name":"G#4","midi":68,"time":28.943750000000087,"velocity":0.8188976377952756,"duration":0.252083333333335},{"name":"A4","midi":69,"time":29.197916666666757,"velocity":0.8188976377952756,"duration":0.125},{"name":"F#3","midi":54,"time":29.197916666666757,"velocity":0.84251968503937,"duration":0.252083333333335},{"name":"G#4","midi":68,"time":29.322916666666757,"velocity":0.8188976377952756,"duration":0.125},{"name":"F#4","midi":66,"time":29.45000000000009,"velocity":0.84251968503937,"duration":0.125},{"name":"A4","midi":69,"time":29.57500000000009,"velocity":0.8188976377952756,"duration":0.125},{"name":"G#4","midi":68,"time":29.70000000000009,"velocity":0.8188976377952756,"duration":0.125},{"name":"E3","midi":52,"time":29.702083333333427,"velocity":0.84251968503937,"duration":0.247916666666665},{"name":"F#4","midi":66,"time":29.82500000000009,"velocity":0.84251968503937,"duration":0.125},{"name":"E4","midi":64,"time":29.952083333333427,"velocity":0.84251968503937,"duration":0.12291666666666501},{"name":"G#4","midi":68,"time":30.077083333333427,"velocity":0.8188976377952756,"duration":0.125},{"name":"F#4","midi":66,"time":30.202083333333427,"velocity":0.84251968503937,"duration":0.125},{"name":"D#3","midi":51,"time":30.20416666666676,"velocity":0.84251968503937,"duration":0.247916666666665},{"name":"E4","midi":64,"time":30.32916666666676,"velocity":0.84251968503937,"duration":0.12291666666666501},{"name":"D#4","midi":63,"time":30.45416666666676,"velocity":0.84251968503937,"duration":0.12291666666666501},{"name":"F#4","midi":66,"time":30.57916666666676,"velocity":0.84251968503937,"duration":0.12291666666666501},{"name":"E4","midi":64,"time":30.702083333333427,"velocity":0.84251968503937,"duration":0.25},{"name":"C#3","midi":49,"time":30.70416666666676,"velocity":0.84251968503937,"duration":0.12291666666666501},{"name":"E3","midi":52,"time":30.82916666666676,"velocity":0.84251968503937,"duration":0.12291666666666501},{"name":"F#3","midi":54,"time":30.95416666666676,"velocity":0.84251968503937,"duration":0.12083333333333357},{"name":"G#3","midi":56,"time":31.07708333333343,"velocity":0.84251968503937,"duration":0.12291666666666501},{"name":"F#4","midi":66,"time":31.200000000000095,"velocity":0.84251968503937,"duration":0.125},{"name":"A3","midi":57,"time":31.20208333333343,"velocity":0.84251968503937,"duration":0.12291666666666501},{"name":"G#4","midi":68,"time":31.325000000000095,"velocity":0.8188976377952756,"duration":0.12500000000000355},{"name":"G#3","midi":56,"time":31.32708333333343,"velocity":0.84251968503937,"duration":0.12083333333333357},{"name":"A4","midi":69,"time":31.4500000000001,"velocity":0.8188976377952756,"duration":0.12083333333333357},{"name":"F#3","midi":54,"time":31.4500000000001,"velocity":0.84251968503937,"duration":0.12083333333333357},{"name":"C#5","midi":73,"time":31.572916666666767,"velocity":0.8188976377952756,"duration":0.12291666666666501},{"name":"A3","midi":57,"time":31.572916666666767,"velocity":0.84251968503937,"duration":0.12291666666666501},{"name":"E4","midi":64,"time":31.695833333333432,"velocity":0.84251968503937,"duration":0.12291666666666856},{"name":"G#3","midi":56,"time":31.697916666666767,"velocity":0.84251968503937,"duration":0.12083333333333357},{"name":"F#4","midi":66,"time":31.820833333333436,"velocity":0.84251968503937,"duration":0.12291666666666856},{"name":"F#3","midi":54,"time":31.820833333333436,"velocity":0.84251968503937,"duration":0.12083333333333357},{"name":"G#4","midi":68,"time":31.943750000000104,"velocity":0.8188976377952756,"duration":0.12499999999999645},{"name":"E3","midi":52,"time":31.94583333333344,"velocity":0.84251968503937,"duration":0.12083333333333002},{"name":"C#5","midi":73,"time":32.0687500000001,"velocity":0.8188976377952756,"duration":0.12291666666666856},{"name":"G#3","midi":56,"time":32.0687500000001,"velocity":0.84251968503937,"duration":0.12291666666666856},{"name":"D#4","midi":63,"time":32.19166666666677,"velocity":0.84251968503937,"duration":0.1249999999999929},{"name":"F#3","midi":54,"time":32.1937500000001,"velocity":0.84251968503937,"duration":0.12083333333333002},{"name":"E4","midi":64,"time":32.31666666666676,"velocity":0.84251968503937,"duration":0.12291666666666856},{"name":"E3","midi":52,"time":32.31666666666676,"velocity":0.84251968503937,"duration":0.12291666666666856},{"name":"F#4","midi":66,"time":32.43958333333343,"velocity":0.84251968503937,"duration":0.1249999999999929},{"name":"D#3","midi":51,"time":32.44166666666676,"velocity":0.84251968503937,"duration":0.12083333333333002},{"name":"C5","midi":72,"time":32.564583333333424,"velocity":0.8188976377952756,"duration":0.12291666666666146},{"name":"F#3","midi":54,"time":32.566666666666755,"velocity":0.84251968503937,"duration":0.12083333333333002},{"name":"C#5","midi":73,"time":32.68958333333342,"velocity":0.8188976377952756,"duration":0.24583333333333002},{"name":"E3","midi":52,"time":32.68958333333342,"velocity":0.84251968503937,"duration":0.12083333333333002},{"name":"D#3","midi":51,"time":32.81250000000008,"velocity":0.84251968503937,"duration":0.12291666666666856},{"name":"C#3","midi":49,"time":32.93750000000008,"velocity":0.84251968503937,"duration":0.12083333333333002},{"name":"C#4","midi":61,"time":32.93750000000008,"velocity":0.84251968503937,"duration":0.24583333333333002},{"name":"B2","midi":47,"time":33.06041666666674,"velocity":0.84251968503937,"duration":0.12291666666666856},{"name":"C#5","midi":73,"time":33.18541666666674,"velocity":0.8188976377952756,"duration":0.24791666666666146},{"name":"F#4","midi":66,"time":33.18541666666674,"velocity":0.84251968503937,"duration":0.24791666666666146},{"name":"E4","midi":64,"time":33.18750000000007,"velocity":0.84251968503937,"duration":0.24374999999999858},{"name":"A#2","midi":46,"time":33.18750000000007,"velocity":0.84251968503937,"duration":0.11874999999999858},{"name":"B2","midi":47,"time":33.3083333333334,"velocity":0.84251968503937,"duration":0.12291666666666856},{"name":"C#3","midi":49,"time":33.43541666666673,"velocity":0.84251968503937,"duration":0.11874999999999858},{"name":"A#2","midi":46,"time":33.55625000000006,"velocity":0.84251968503937,"duration":0.12291666666666856},{"name":"D5","midi":74,"time":33.67916666666673,"velocity":0.8188976377952756,"duration":0.25208333333332433},{"name":"F#4","midi":66,"time":33.68125000000006,"velocity":0.84251968503937,"duration":0.2499999999999929},{"name":"D4","midi":62,"time":33.68125000000006,"velocity":0.84251968503937,"duration":0.24791666666666146},{"name":"B2","midi":47,"time":33.683333333333394,"velocity":0.84251968503937,"duration":0.12083333333333002},{"name":"C#3","midi":49,"time":33.806250000000055,"velocity":0.84251968503937,"duration":0.12291666666666856},{"name":"D3","midi":50,"time":33.93333333333339,"velocity":0.84251968503937,"duration":0.11874999999999858},{"name":"B2","midi":47,"time":34.05416666666672,"velocity":0.84251968503937,"duration":0.12291666666666856},{"name":"A#4","midi":70,"time":34.177083333333385,"velocity":0.8188976377952756,"duration":0.2499999999999929},{"name":"C#4","midi":61,"time":34.17916666666672,"velocity":0.84251968503937,"duration":0.24791666666666146},{"name":"C#3","midi":49,"time":34.17916666666672,"velocity":0.84251968503937,"duration":0.12083333333333002},{"name":"E4","midi":64,"time":34.18125000000005,"velocity":0.84251968503937,"duration":0.24374999999999858},{"name":"D3","midi":50,"time":34.30208333333338,"velocity":0.84251968503937,"duration":0.12291666666666856},{"name":"E3","midi":52,"time":34.42916666666671,"velocity":0.84251968503937,"duration":0.12083333333333002},{"name":"C#3","midi":49,"time":34.55000000000004,"velocity":0.84251968503937,"duration":0.125},{"name":"B4","midi":71,"time":34.67500000000004,"velocity":0.8188976377952756,"duration":0.1249999999999929},{"name":"F#4","midi":66,"time":34.67708333333337,"velocity":0.84251968503937,"duration":0.2499999999999929},{"name":"D3","midi":50,"time":34.67708333333337,"velocity":0.84251968503937,"duration":0.2499999999999929},{"name":"B3","midi":59,"time":34.6791666666667,"velocity":0.84251968503937,"duration":0.24583333333333002},{"name":"A4","midi":69,"time":34.80000000000003,"velocity":0.8188976377952756,"duration":0.125},{"name":"G#4","midi":68,"time":34.929166666666696,"velocity":0.8188976377952756,"duration":0.12083333333333002},{"name":"F#4","midi":66,"time":35.050000000000026,"velocity":0.84251968503937,"duration":0.125},{"name":"G#4","midi":68,"time":35.175000000000026,"velocity":0.8188976377952756,"duration":0.125},{"name":"E4","midi":64,"time":35.17708333333336,"velocity":0.84251968503937,"duration":0.24791666666666856},{"name":"D4","midi":62,"time":35.17708333333336,"velocity":0.84251968503937,"duration":0.24791666666666856},{"name":"A4","midi":69,"time":35.300000000000026,"velocity":0.8188976377952756,"duration":0.12291666666666856},{"name":"B4","midi":71,"time":35.425000000000026,"velocity":0.8188976377952756,"duration":0.12291666666666856},{"name":"G#4","midi":68,"time":35.547916666666694,"velocity":0.8188976377952756,"duration":0.12291666666666856},{"name":"A4","midi":69,"time":35.672916666666694,"velocity":0.8188976377952756,"duration":0.12291666666666146},{"name":"F#4","midi":66,"time":35.672916666666694,"velocity":0.84251968503937,"duration":0.24791666666666146},{"name":"C#4","midi":61,"time":35.675000000000026,"velocity":0.84251968503937,"duration":0.24583333333333002},{"name":"B4","midi":71,"time":35.795833333333356,"velocity":0.8188976377952756,"duration":0.12291666666666856},{"name":"C#5","midi":73,"time":35.92291666666669,"velocity":0.8188976377952756,"duration":0.11874999999999858},{"name":"A4","midi":69,"time":36.041666666666686,"velocity":0.8188976377952756,"duration":0.12291666666666856},{"name":"B4","midi":71,"time":36.166666666666686,"velocity":0.8188976377952756,"duration":0.12083333333333002},{"name":"G#4","midi":68,"time":36.166666666666686,"velocity":0.8188976377952756,"duration":0.24583333333333002},{"name":"B3","midi":59,"time":36.16875000000002,"velocity":0.84251968503937,"duration":0.24374999999999858},{"name":"C#5","midi":73,"time":36.287500000000016,"velocity":0.8188976377952756,"duration":0.12291666666666856},{"name":"D5","midi":74,"time":36.41458333333335,"velocity":0.8188976377952756,"duration":0.12083333333333002},{"name":"B4","midi":71,"time":36.53541666666668,"velocity":0.8188976377952756,"duration":0.125},{"name":"A4","midi":69,"time":36.66041666666668,"velocity":0.8188976377952756,"duration":0.1249999999999929},{"name":"C#5","midi":73,"time":36.66041666666668,"velocity":0.8188976377952756,"duration":0.1249999999999929},{"name":"A3","midi":57,"time":36.66250000000001,"velocity":0.84251968503937,"duration":0.12083333333333002},{"name":"B4","midi":71,"time":36.78541666666667,"velocity":0.8188976377952756,"duration":0.12291666666666146},{"name":"B3","midi":59,"time":36.7875,"velocity":0.84251968503937,"duration":0.11874999999999858},{"name":"A4","midi":69,"time":36.90833333333333,"velocity":0.8188976377952756,"duration":0.1249999999999929},{"name":"C#4","midi":61,"time":36.91041666666666,"velocity":0.84251968503937,"duration":0.12083333333333002},{"name":"G#4","midi":68,"time":37.033333333333324,"velocity":0.8188976377952756,"duration":0.12083333333333002},{"name":"A3","midi":57,"time":37.033333333333324,"velocity":0.84251968503937,"duration":0.12083333333333002},{"name":"F#4","midi":66,"time":37.154166666666654,"velocity":0.84251968503937,"duration":0.12083333333333002},{"name":"D4","midi":62,"time":37.156249999999986,"velocity":0.84251968503937,"duration":0.24583333333333002},{"name":"E5","midi":76,"time":37.277083333333316,"velocity":0.8188976377952756,"duration":0.125},{"name":"D5","midi":74,"time":37.402083333333316,"velocity":0.8188976377952756,"duration":0.12291666666666146},{"name":"F#3","midi":54,"time":37.40416666666665,"velocity":0.84251968503937,"duration":0.24583333333333002},{"name":"C#5","midi":73,"time":37.52708333333331,"velocity":0.8188976377952756,"duration":0.12291666666666856},{"name":"B4","midi":71,"time":37.65208333333331,"velocity":0.8188976377952756,"duration":0.12291666666666856},{"name":"G#3","midi":56,"time":37.65208333333331,"velocity":0.84251968503937,"duration":0.12291666666666856},{"name":"A4","midi":69,"time":37.77499999999998,"velocity":0.8188976377952756,"duration":0.1249999999999929},{"name":"A3","midi":57,"time":37.77708333333331,"velocity":0.84251968503937,"duration":0.12083333333333002},{"name":"G#4","midi":68,"time":37.89999999999997,"velocity":0.8188976377952756,"duration":0.12083333333333002},{"name":"B3","midi":59,"time":37.89999999999997,"velocity":0.84251968503937,"duration":0.12083333333333002},{"name":"F#4","midi":66,"time":38.02291666666663,"velocity":0.84251968503937,"duration":0.12291666666666146},{"name":"G#3","midi":56,"time":38.02291666666663,"velocity":0.84251968503937,"duration":0.12083333333333002},{"name":"F4","midi":65,"time":38.14583333333329,"velocity":0.84251968503937,"duration":0.12083333333333002},{"name":"C#4","midi":61,"time":38.147916666666625,"velocity":0.84251968503937,"duration":0.24374999999999858},{"name":"D5","midi":74,"time":38.26666666666662,"velocity":0.8188976377952756,"duration":0.12291666666666856},{"name":"C#5","midi":73,"time":38.39166666666662,"velocity":0.8188976377952756,"duration":0.12291666666666146},{"name":"F3","midi":53,"time":38.393749999999955,"velocity":0.84251968503937,"duration":0.24583333333333002},{"name":"B4","midi":71,"time":38.514583333333285,"velocity":0.8188976377952756,"duration":0.12291666666666856},{"name":"A4","midi":69,"time":38.639583333333285,"velocity":0.8188976377952756,"duration":0.12291666666666146},{"name":"F#3","midi":54,"time":38.641666666666616,"velocity":0.84251968503937,"duration":0.12083333333333002},{"name":"G#4","midi":68,"time":38.76458333333328,"velocity":0.8188976377952756,"duration":0.12083333333333002},{"name":"F#2","midi":42,"time":38.76458333333328,"velocity":0.84251968503937,"duration":0.11874999999999858},{"name":"F#4","midi":66,"time":38.88541666666661,"velocity":0.84251968503937,"duration":0.12291666666666146},{"name":"G#2","midi":44,"time":38.88749999999994,"velocity":0.84251968503937,"duration":0.12083333333333002},{"name":"E4","midi":64,"time":39.0104166666666,"velocity":0.84251968503937,"duration":0.12083333333333002},{"name":"A2","midi":45,"time":39.0104166666666,"velocity":0.84251968503937,"duration":0.11874999999999858},{"name":"D4","midi":62,"time":39.13124999999993,"velocity":0.84251968503937,"duration":0.12291666666666146},{"name":"B2","midi":47,"time":39.13333333333326,"velocity":0.84251968503937,"duration":0.12083333333333002},{"name":"A4","midi":69,"time":39.25624999999992,"velocity":0.8188976377952756,"duration":0.12083333333333002},{"name":"C#3","midi":49,"time":39.25624999999992,"velocity":0.84251968503937,"duration":0.11874999999999858},{"name":"G#4","midi":68,"time":39.37708333333325,"velocity":0.8188976377952756,"duration":0.12291666666666146},{"name":"D3","midi":50,"time":39.379166666666585,"velocity":0.84251968503937,"duration":0.11874999999999858},{"name":"F#4","midi":66,"time":39.499999999999915,"velocity":0.84251968503937,"duration":0.12083333333333002},{"name":"B2","midi":47,"time":39.499999999999915,"velocity":0.84251968503937,"duration":0.12083333333333002},{"name":"F4","midi":65,"time":39.622916666666576,"velocity":0.84251968503937,"duration":0.11874999999999858},{"name":"C#3","midi":49,"time":39.622916666666576,"velocity":0.84251968503937,"duration":0.3645833333333286},{"name":"D#4","midi":63,"time":39.743749999999906,"velocity":0.84251968503937,"duration":0.12083333333333002},{"name":"C#4","midi":61,"time":39.864583333333236,"velocity":0.84251968503937,"duration":0.24583333333333002},{"name":"B3","midi":59,"time":39.989583333333236,"velocity":0.84251968503937,"duration":0.12083333333333002},{"name":"A3","midi":57,"time":40.1124999999999,"velocity":0.84251968503937,"duration":0.12083333333333002},{"name":"B4","midi":71,"time":40.23541666666656,"velocity":0.8188976377952756,"duration":0.12291666666666856},{"name":"G#3","midi":56,"time":40.23541666666656,"velocity":0.84251968503937,"duration":0.12291666666666856},{"name":"A4","midi":69,"time":40.36041666666656,"velocity":0.8188976377952756,"duration":0.12291666666666146},{"name":"F#3","midi":54,"time":40.36041666666656,"velocity":0.84251968503937,"duration":0.12083333333333002},{"name":"G#4","midi":68,"time":40.48333333333322,"velocity":0.8188976377952756,"duration":0.12291666666666146},{"name":"F3","midi":53,"time":40.48541666666655,"velocity":0.84251968503937,"duration":0.12083333333333002},{"name":"A4","midi":69,"time":40.60833333333321,"velocity":0.8188976377952756,"duration":0.12083333333333002},{"name":"F#3","midi":54,"time":40.60833333333321,"velocity":0.84251968503937,"duration":0.11874999999999858},{"name":"B4","midi":71,"time":40.72916666666654,"velocity":0.8188976377952756,"duration":0.12291666666666146},{"name":"G#3","midi":56,"time":40.731249999999875,"velocity":0.84251968503937,"duration":0.12083333333333002},{"name":"C#5","midi":73,"time":40.854166666666536,"velocity":0.8188976377952756,"duration":0.12083333333333002},{"name":"A3","midi":57,"time":40.854166666666536,"velocity":0.84251968503937,"duration":0.12083333333333002},{"name":"D5","midi":74,"time":40.974999999999866,"velocity":0.8188976377952756,"duration":0.1249999999999929},{"name":"F#3","midi":54,"time":40.9770833333332,"velocity":0.84251968503937,"duration":0.12083333333333002},{"name":"C#5","midi":73,"time":41.09999999999986,"velocity":0.7480314960629921,"duration":0.04374999999999574},{"name":"F#4","midi":66,"time":41.09999999999986,"velocity":0.84251968503937,"duration":0.4999999999999858},{"name":"D4","midi":62,"time":41.10208333333319,"velocity":0.84251968503937,"duration":0.24374999999999147},{"name":"B4","midi":71,"time":41.14583333333319,"velocity":0.7480314960629921,"duration":0.0416666666666643},{"name":"C#5","midi":73,"time":41.18958333333318,"velocity":0.7480314960629921,"duration":0.04375000000000284},{"name":"B4","midi":71,"time":41.23541666666652,"velocity":0.7480314960629921,"duration":0.04375000000000284},{"name":"C#5","midi":73,"time":41.28124999999985,"velocity":0.7480314960629921,"duration":0.04583333333333428},{"name":"B4","midi":71,"time":41.327083333333185,"velocity":0.7716535433070866,"duration":0.11666666666666003},{"name":"D3","midi":50,"time":41.347916666666514,"velocity":0.84251968503937,"duration":0.25},{"name":"C#5","midi":73,"time":41.472916666666514,"velocity":0.8188976377952756,"duration":0.10625000000000284},{"name":"C#5","midi":73,"time":41.599999999999845,"velocity":0.8188976377952756,"duration":0.2541666666666629},{"name":"F4","midi":65,"time":41.599999999999845,"velocity":0.84251968503937,"duration":0.25208333333333144},{"name":"C#3","midi":49,"time":41.60208333333318,"velocity":0.84251968503937,"duration":0.25},{"name":"C#4","midi":61,"time":41.85416666666651,"velocity":0.84251968503937,"duration":0.25208333333333144},{"name":"G#4","midi":68,"time":42.10833333333317,"velocity":0.8188976377952756,"duration":0.25208333333333144},{"name":"B4","midi":71,"time":42.10833333333317,"velocity":0.8188976377952756,"duration":0.25208333333333144},{"name":"E5","midi":76,"time":42.10833333333317,"velocity":0.8188976377952756,"duration":0.25},{"name":"D4","midi":62,"time":42.1104166666665,"velocity":0.84251968503937,"duration":0.12291666666666856},{"name":"C#4","midi":61,"time":42.23333333333317,"velocity":0.84251968503937,"duration":0.13749999999999574},{"name":"B3","midi":59,"time":42.3604166666665,"velocity":0.84251968503937,"duration":0.1354166666666643},{"name":"D4","midi":62,"time":42.4854166666665,"velocity":0.84251968503937,"duration":0.13749999999998863},{"name":"A4","midi":69,"time":42.608333333333164,"velocity":0.8188976377952756,"duration":0.2520833333333172},{"name":"C#5","midi":73,"time":42.610416666666495,"velocity":0.8188976377952756,"duration":0.2499999999999858},{"name":"F#5","midi":78,"time":42.610416666666495,"velocity":0.7244094488188977,"duration":0.24791666666665435},{"name":"C#4","midi":61,"time":42.61249999999983,"velocity":0.84251968503937,"duration":0.13333333333332575},{"name":"B3","midi":59,"time":42.73541666666649,"velocity":0.84251968503937,"duration":0.13749999999998863},{"name":"A3","midi":57,"time":42.86249999999981,"velocity":0.84251968503937,"duration":0.1354166666666643},{"name":"C#4","midi":61,"time":42.985416666666474,"velocity":0.84251968503937,"duration":0.13750000000000284},{"name":"B3","midi":59,"time":43.10833333333314,"velocity":0.84251968503937,"duration":0.13958333333333428},{"name":"F4","midi":65,"time":43.110416666666474,"velocity":0.84251968503937,"duration":0.24791666666666856},{"name":"C#5","midi":73,"time":43.13124999999981,"velocity":0.8188976377952756,"duration":0.22708333333333286},{"name":"G#5","midi":80,"time":43.14999999999981,"velocity":0.7244094488188977,"duration":0.20625000000000426},{"name":"A3","midi":57,"time":43.23333333333314,"velocity":0.84251968503937,"duration":0.13749999999999574},{"name":"G#3","midi":56,"time":43.360416666666474,"velocity":0.84251968503937,"duration":0.1354166666666643},{"name":"B3","midi":59,"time":43.483333333333135,"velocity":0.84251968503937,"duration":0.1354166666666714},{"name":"A3","midi":57,"time":43.606249999999804,"velocity":0.84251968503937,"duration":0.13958333333333428},{"name":"C#5","midi":73,"time":43.731249999999804,"velocity":0.8031496062992126,"duration":0.13958333333332718},{"name":"G#3","midi":56,"time":43.731249999999804,"velocity":0.84251968503937,"duration":0.13749999999999574},{"name":"F#5","midi":78,"time":43.856249999999804,"velocity":0.7086614173228346,"duration":0.13749999999999574},{"name":"F#3","midi":54,"time":43.858333333333135,"velocity":0.84251968503937,"duration":0.1354166666666643},{"name":"E5","midi":76,"time":43.979166666666465,"velocity":0.8031496062992126,"duration":0.13749999999999574},{"name":"A3","midi":57,"time":43.979166666666465,"velocity":0.84251968503937,"duration":0.1354166666666643},{"name":"D5","midi":74,"time":44.102083333333134,"velocity":0.8031496062992126,"duration":0.13749999999999574},{"name":"B3","midi":59,"time":44.104166666666465,"velocity":0.84251968503937,"duration":0.1354166666666643},{"name":"C#5","midi":73,"time":44.22708333333313,"velocity":0.8031496062992126,"duration":0.13749999999999574},{"name":"A3","midi":57,"time":44.22708333333313,"velocity":0.84251968503937,"duration":0.1354166666666643},{"name":"B4","midi":71,"time":44.349999999999795,"velocity":0.8031496062992126,"duration":0.13958333333332718},{"name":"G#3","midi":56,"time":44.35208333333313,"velocity":0.84251968503937,"duration":0.13749999999999574},{"name":"D5","midi":74,"time":44.47499999999979,"velocity":0.8031496062992126,"duration":0.13958333333332718},{"name":"B3","midi":59,"time":44.47499999999979,"velocity":0.84251968503937,"duration":0.13749999999999574},{"name":"C#5","midi":73,"time":44.59999999999979,"velocity":0.8031496062992126,"duration":0.13958333333332718},{"name":"A3","midi":57,"time":44.60208333333312,"velocity":0.84251968503937,"duration":0.13749999999999574},{"name":"B4","midi":71,"time":44.72499999999978,"velocity":0.8031496062992126,"duration":0.13958333333332718},{"name":"G#3","midi":56,"time":44.72499999999978,"velocity":0.84251968503937,"duration":0.13749999999999574},{"name":"A4","midi":69,"time":44.84999999999978,"velocity":0.8031496062992126,"duration":0.13958333333332718},{"name":"F#3","midi":54,"time":44.85208333333311,"velocity":0.84251968503937,"duration":0.13749999999999574},{"name":"C#5","midi":73,"time":44.977083333333105,"velocity":0.8031496062992126,"duration":0.13958333333332718},{"name":"A3","midi":57,"time":44.977083333333105,"velocity":0.84251968503937,"duration":0.13749999999999574},{"name":"B4","midi":71,"time":45.102083333333105,"velocity":0.8031496062992126,"duration":0.1416666666666586},{"name":"G#3","midi":56,"time":45.10416666666644,"velocity":0.84251968503937,"duration":0.13749999999999574},{"name":"A4","midi":69,"time":45.22916666666643,"velocity":0.8031496062992126,"duration":0.13958333333332718},{"name":"F#3","midi":54,"time":45.22916666666643,"velocity":0.84251968503937,"duration":0.13749999999999574},{"name":"G#4","midi":68,"time":45.35416666666643,"velocity":0.8031496062992126,"duration":0.13749999999999574},{"name":"F3","midi":53,"time":45.35624999999976,"velocity":0.84251968503937,"duration":0.1354166666666643},{"name":"B4","midi":71,"time":45.47916666666642,"velocity":0.8031496062992126,"duration":0.13749999999999574},{"name":"G#3","midi":56,"time":45.47916666666642,"velocity":0.84251968503937,"duration":0.125},{"name":"A4","midi":69,"time":45.606249999999754,"velocity":0.8188976377952756,"duration":0.1354166666666643},{"name":"F#3","midi":54,"time":45.606249999999754,"velocity":0.84251968503937,"duration":0.24583333333333002},{"name":"B4","midi":71,"time":45.729166666666416,"velocity":0.8188976377952756,"duration":0.13333333333333286},{"name":"C#5","midi":73,"time":45.852083333333084,"velocity":0.8188976377952756,"duration":0.12291666666666146},{"name":"A2","midi":45,"time":45.852083333333084,"velocity":0.84251968503937,"duration":0.12083333333333002},{"name":"D5","midi":74,"time":45.974999999999746,"velocity":0.8188976377952756,"duration":0.12291666666666856},{"name":"B2","midi":47,"time":45.974999999999746,"velocity":0.84251968503937,"duration":0.12291666666666856},{"name":"F4","midi":65,"time":46.099999999999746,"velocity":0.84251968503937,"duration":0.12083333333333002},{"name":"C#3","midi":49,"time":46.099999999999746,"velocity":0.84251968503937,"duration":0.11874999999999858},{"name":"D5","midi":74,"time":46.220833333333076,"velocity":0.8188976377952756,"duration":0.1249999999999929},{"name":"B2","midi":47,"time":46.22291666666641,"velocity":0.84251968503937,"duration":0.12083333333333002},{"name":"C#5","midi":73,"time":46.34583333333307,"velocity":0.8188976377952756,"duration":0.12291666666666856},{"name":"A2","midi":45,"time":46.34583333333307,"velocity":0.84251968503937,"duration":0.12291666666666856},{"name":"B4","midi":71,"time":46.46874999999974,"velocity":0.8188976377952756,"duration":0.12708333333333144},{"name":"G#2","midi":44,"time":46.47083333333307,"velocity":0.84251968503937,"duration":0.12291666666666856},{"name":"A4","midi":69,"time":46.59583333333307,"velocity":0.8188976377952756,"duration":0.12083333333333002},{"name":"F#2","midi":42,"time":46.59583333333307,"velocity":0.84251968503937,"duration":0.24791666666666146},{"name":"G#4","midi":68,"time":46.71874999999973,"velocity":0.8188976377952756,"duration":0.125},{"name":"A4","midi":69,"time":46.84583333333306,"velocity":0.8188976377952756,"duration":0.12291666666666146},{"name":"B2","midi":47,"time":46.84791666666639,"velocity":0.84251968503937,"duration":0.24583333333333002},{"name":"F#4","midi":66,"time":46.96874999999972,"velocity":0.84251968503937,"duration":0.10625000000000284},{"name":"F#4","midi":66,"time":47.095833333333054,"velocity":0.84251968503937,"duration":0.04375000000000284},{"name":"C#3","midi":49,"time":47.095833333333054,"velocity":0.84251968503937,"duration":0.24791666666666856},{"name":"F4","midi":65,"time":47.13958333333306,"velocity":0.84251968503937,"duration":0.04583333333333428},{"name":"F#4","midi":66,"time":47.18541666666639,"velocity":0.84251968503937,"duration":0.04583333333333428},{"name":"F4","midi":65,"time":47.231249999999726,"velocity":0.84251968503937,"duration":0.04583333333333428},{"name":"F#4","midi":66,"time":47.27708333333306,"velocity":0.84251968503937,"duration":0.04791666666666572},{"name":"F4","midi":65,"time":47.324999999999726,"velocity":0.84251968503937,"duration":0.13333333333332575},{"name":"C#2","midi":37,"time":47.345833333333054,"velocity":0.84251968503937,"duration":0.24791666666666146},{"name":"F#4","midi":66,"time":47.472916666666386,"velocity":0.84251968503937,"duration":0.10208333333333286},{"name":"F#4","midi":66,"time":47.59583333333305,"velocity":0.84251968503937,"duration":2.24583333333333},{"name":"F#2","midi":42,"time":47.59583333333305,"velocity":0.84251968503937,"duration":0.25208333333333144},{"name":"A3","midi":57,"time":47.72083333333305,"velocity":0.84251968503937,"duration":0.125},{"name":"B3","midi":59,"time":47.84791666666638,"velocity":0.84251968503937,"duration":0.125},{"name":"C#4","midi":61,"time":47.97291666666638,"velocity":0.84251968503937,"duration":0.12291666666666856},{"name":"D4","midi":62,"time":48.09791666666638,"velocity":0.84251968503937,"duration":0.125},{"name":"B2","midi":47,"time":48.09791666666638,"velocity":0.84251968503937,"duration":0.25208333333333144},{"name":"C#4","midi":61,"time":48.22291666666638,"velocity":0.84251968503937,"duration":0.125},{"name":"B3","midi":59,"time":48.34999999999971,"velocity":0.84251968503937,"duration":0.125},{"name":"D4","midi":62,"time":48.47499999999971,"velocity":0.84251968503937,"duration":0.125},{"name":"C#4","midi":61,"time":48.59999999999971,"velocity":0.84251968503937,"duration":0.125},{"name":"A2","midi":45,"time":48.60208333333304,"velocity":0.84251968503937,"duration":0.24791666666666856},{"name":"B3","midi":59,"time":48.72499999999971,"velocity":0.84251968503937,"duration":0.125},{"name":"A3","midi":57,"time":48.85208333333304,"velocity":0.84251968503937,"duration":0.12291666666666856},{"name":"C#4","midi":61,"time":48.97499999999971,"velocity":0.84251968503937,"duration":0.12291666666666856},{"name":"B3","midi":59,"time":49.09999999999971,"velocity":0.84251968503937,"duration":0.12291666666666856},{"name":"G#2","midi":44,"time":49.09999999999971,"velocity":0.84251968503937,"duration":0.24791666666666856},{"name":"A3","midi":57,"time":49.22291666666638,"velocity":0.84251968503937,"duration":0.12291666666666856},{"name":"G#3","midi":56,"time":49.34791666666638,"velocity":0.84251968503937,"duration":0.12291666666666856},{"name":"B3","midi":59,"time":49.47083333333305,"velocity":0.84251968503937,"duration":0.12291666666666856},{"name":"A3","midi":57,"time":49.59583333333305,"velocity":0.84251968503937,"duration":0.24583333333333002},{"name":"F#2","midi":42,"time":49.59583333333305,"velocity":0.84251968503937,"duration":0.12083333333333002},{"name":"A2","midi":45,"time":49.71666666666638,"velocity":0.84251968503937,"duration":0.12291666666666856},{"name":"B2","midi":47,"time":49.84374999999971,"velocity":0.84251968503937,"duration":0.11874999999999858},{"name":"C#3","midi":49,"time":49.96249999999971,"velocity":0.84251968503937,"duration":0.12291666666666856},{"name":"B3","midi":59,"time":50.08749999999971,"velocity":0.84251968503937,"duration":0.12291666666666856},{"name":"D3","midi":50,"time":50.08749999999971,"velocity":0.84251968503937,"duration":0.12291666666666856},{"name":"C#4","midi":61,"time":50.21249999999971,"velocity":0.84251968503937,"duration":0.12083333333333002},{"name":"C#3","midi":49,"time":50.21249999999971,"velocity":0.84251968503937,"duration":0.11874999999999858},{"name":"D4","midi":62,"time":50.33333333333304,"velocity":0.84251968503937,"duration":0.12291666666666146},{"name":"B2","midi":47,"time":50.33541666666637,"velocity":0.84251968503937,"duration":0.12083333333333002},{"name":"D3","midi":50,"time":50.45833333333303,"velocity":0.84251968503937,"duration":0.12083333333333002},{"name":"F#4","midi":66,"time":50.45833333333303,"velocity":0.84251968503937,"duration":0.12291666666666146},{"name":"A3","midi":57,"time":50.58124999999969,"velocity":0.84251968503937,"duration":0.125},{"name":"C#3","midi":49,"time":50.58333333333302,"velocity":0.84251968503937,"duration":0.12291666666666856},{"name":"B3","midi":59,"time":50.70833333333302,"velocity":0.84251968503937,"duration":0.125},{"name":"B2","midi":47,"time":50.70833333333302,"velocity":0.84251968503937,"duration":0.12291666666666856},{"name":"C#4","midi":61,"time":50.83333333333302,"velocity":0.84251968503937,"duration":0.1249999999999929},{"name":"A2","midi":45,"time":50.835416666666355,"velocity":0.84251968503937,"duration":0.12083333333333002},{"name":"F#4","midi":66,"time":50.958333333333016,"velocity":0.84251968503937,"duration":0.12708333333333144},{"name":"C#3","midi":49,"time":50.96041666666635,"velocity":0.84251968503937,"duration":0.125},{"name":"G#3","midi":56,"time":51.08541666666635,"velocity":0.84251968503937,"duration":0.12916666666666288},{"name":"B2","midi":47,"time":51.08749999999968,"velocity":0.84251968503937,"duration":0.125},{"name":"A3","midi":57,"time":51.21458333333301,"velocity":0.84251968503937,"duration":0.12708333333333144},{"name":"A2","midi":45,"time":51.21458333333301,"velocity":0.84251968503937,"duration":0.12708333333333144},{"name":"B3","midi":59,"time":51.34374999999967,"velocity":0.84251968503937,"duration":0.12708333333333144},{"name":"G#2","midi":44,"time":51.34374999999967,"velocity":0.84251968503937,"duration":0.125},{"name":"F4","midi":65,"time":51.470833333333005,"velocity":0.84251968503937,"duration":0.12916666666666998},{"name":"B2","midi":47,"time":51.470833333333005,"velocity":0.84251968503937,"duration":0.12916666666666998},{"name":"F#4","midi":66,"time":51.599999999999675,"velocity":0.84251968503937,"duration":0.6729166666666586},{"name":"A2","midi":45,"time":51.599999999999675,"velocity":0.84251968503937,"duration":0.26874999999999716},{"name":"D4","midi":62,"time":51.73333333333301,"velocity":0.84251968503937,"duration":0.13333333333333286},{"name":"C#4","midi":61,"time":51.86874999999967,"velocity":0.84251968503937,"duration":0.13958333333333428},{"name":"B2","midi":47,"time":51.870833333333,"velocity":0.7952755905511811,"duration":0.27916666666666856},{"name":"B3","midi":59,"time":52.01041666666634,"velocity":0.84251968503937,"duration":0.13958333333333428},{"name":"C#3","midi":49,"time":52.14999999999967,"velocity":0.7795275590551181,"duration":0.2979166666666586},{"name":"A3","midi":57,"time":52.152083333333,"velocity":0.7795275590551181,"duration":0.2958333333333272},{"name":"F#4","midi":66,"time":52.29999999999966,"velocity":0.84251968503937,"duration":0.33124999999999716},{"name":"G#3","midi":56,"time":52.44999999999966,"velocity":0.7795275590551181,"duration":0.38333333333333286},{"name":"C#2","midi":37,"time":52.44999999999966,"velocity":0.7952755905511811,"duration":0.3812500000000014},{"name":"F4","midi":65,"time":52.63124999999966,"velocity":0.84251968503937,"duration":0.20000000000000284},{"name":"F#4","midi":66,"time":52.833333333332995,"velocity":0.6850393700787402,"duration":2.5083333333333258},{"name":"C#4","midi":61,"time":52.835416666666326,"velocity":0.6850393700787402,"duration":2.504166666666663},{"name":"A#3","midi":58,"time":52.835416666666326,"velocity":0.6850393700787402,"duration":2.5062499999999943},{"name":"F#2","midi":42,"time":52.83749999999966,"velocity":0.6850393700787402,"duration":2.5020833333333314},{"name":"F#3","midi":54,"time":56.96458333333299,"velocity":0.84251968503937,"duration":0.6124999999999972},{"name":"G#3","midi":56,"time":57.57916666666632,"velocity":0.84251968503937,"duration":0.6104166666666657},{"name":"A3","midi":57,"time":58.191666666666315,"velocity":0.84251968503937,"duration":1.9166666666666643},{"name":"G#3","midi":56,"time":60.10833333333298,"velocity":0.84251968503937,"duration":0.30416666666666714},{"name":"A#3","midi":58,"time":60.412499999999646,"velocity":0.84251968503937,"duration":0.3020833333333357},{"name":"B3","midi":59,"time":60.71666666666631,"velocity":0.84251968503937,"duration":1.2020833333333343},{"name":"A#3","midi":58,"time":61.92083333333298,"velocity":0.84251968503937,"duration":0.2979166666666657},{"name":"G#3","midi":56,"time":62.220833333332976,"velocity":0.84251968503937,"duration":0.2979166666666657},{"name":"A#3","midi":58,"time":62.52083333333297,"velocity":0.84251968503937,"duration":0.2979166666666657},{"name":"C4","midi":60,"time":62.82083333333297,"velocity":0.84251968503937,"duration":0.2979166666666657},{"name":"C#4","midi":61,"time":63.12083333333297,"velocity":0.84251968503937,"duration":0.9083333333333314},{"name":"B3","midi":59,"time":64.0291666666663,"velocity":0.84251968503937,"duration":0.3020833333333286},{"name":"A3","midi":57,"time":64.33124999999963,"velocity":0.84251968503937,"duration":0.30416666666666003},{"name":"C#4","midi":61,"time":64.63541666666629,"velocity":0.84251968503937,"duration":0.3020833333333286},{"name":"B3","midi":59,"time":64.93749999999962,"velocity":0.84251968503937,"duration":0.30416666666666003},{"name":"A3","midi":57,"time":65.24374999999961,"velocity":0.84251968503937,"duration":0.2750000000000057},{"name":"A3","midi":57,"time":65.54374999999962,"velocity":0.7952755905511811,"duration":0.07708333333333428},{"name":"G#3","midi":56,"time":65.62083333333295,"velocity":0.7952755905511811,"duration":0.07500000000000284},{"name":"A3","midi":57,"time":65.69583333333296,"velocity":0.7952755905511811,"duration":0.07708333333333428},{"name":"G#3","midi":56,"time":65.77291666666629,"velocity":0.7952755905511811,"duration":0.07499999999998863},{"name":"A3","midi":57,"time":65.84999999999961,"velocity":0.7952755905511811,"duration":0.07500000000000284},{"name":"G#3","midi":56,"time":65.92499999999961,"velocity":0.7952755905511811,"duration":0.07500000000000284},{"name":"A3","midi":57,"time":65.99999999999962,"velocity":0.7952755905511811,"duration":0.07500000000000284},{"name":"G#3","midi":56,"time":66.07708333333295,"velocity":0.7952755905511811,"duration":0.6812500000000057},{"name":"F#3","midi":54,"time":66.75833333333296,"velocity":0.84251968503937,"duration":1.8374999999999915},{"name":"C#4","midi":61,"time":67.37083333333295,"velocity":0.84251968503937,"duration":0.6104166666666657},{"name":"D#4","midi":63,"time":67.98333333333295,"velocity":0.84251968503937,"duration":0.6124999999999972},{"name":"E4","midi":64,"time":68.59583333333295,"velocity":0.84251968503937,"duration":2.450000000000017},{"name":"C#4","midi":61,"time":68.89999999999961,"velocity":0.84251968503937,"duration":0.3062500000000057},{"name":"C#4","midi":61,"time":69.20624999999961,"velocity":0.84251968503937,"duration":0.3062500000000057},{"name":"B3","midi":59,"time":69.51249999999962,"velocity":0.84251968503937,"duration":0.3062500000000057},{"name":"B3","midi":59,"time":69.81874999999962,"velocity":0.84251968503937,"duration":0.3062500000000057},{"name":"A#3","midi":58,"time":70.12708333333296,"velocity":0.84251968503937,"duration":0.3062500000000057},{"name":"A#3","midi":58,"time":70.43333333333297,"velocity":0.84251968503937,"duration":0.30416666666666003},{"name":"B3","midi":59,"time":70.73749999999963,"velocity":0.84251968503937,"duration":0.3083333333333371},{"name":"B3","midi":59,"time":71.0479166666663,"velocity":0.84251968503937,"duration":0.30416666666666003},{"name":"D#4","midi":63,"time":71.0479166666663,"velocity":0.84251968503937,"duration":0.3020833333333286},{"name":"F4","midi":65,"time":71.35208333333296,"velocity":0.84251968503937,"duration":0.30416666666666003},{"name":"A3","midi":57,"time":71.35208333333296,"velocity":0.84251968503937,"duration":0.3062499999999915},{"name":"A3","midi":57,"time":71.65833333333295,"velocity":0.84251968503937,"duration":0.30416666666666003},{"name":"F#4","midi":66,"time":71.66041666666628,"velocity":0.84251968503937,"duration":1.2166666666666544},{"name":"G#3","midi":56,"time":71.96458333333294,"velocity":0.84251968503937,"duration":0.30416666666666003},{"name":"G#3","midi":56,"time":72.27083333333293,"velocity":0.84251968503937,"duration":1.5166666666666515},{"name":"F4","midi":65,"time":72.87708333333293,"velocity":0.84251968503937,"duration":0.30416666666666003},{"name":"D#4","midi":63,"time":73.1812499999996,"velocity":0.84251968503937,"duration":0.3020833333333286},{"name":"F4","midi":65,"time":73.48333333333292,"velocity":0.84251968503937,"duration":0.30416666666666003},{"name":"G4","midi":67,"time":73.78958333333291,"velocity":0.84251968503937,"duration":0.29999999999999716},{"name":"A#3","midi":58,"time":73.78958333333291,"velocity":0.84251968503937,"duration":0.29999999999999716},{"name":"G#4","midi":68,"time":74.09166666666624,"velocity":0.7795275590551181,"duration":0.916666666666643},{"name":"C4","midi":60,"time":74.09374999999957,"velocity":0.84251968503937,"duration":0.30416666666666003},{"name":"C#4","midi":61,"time":74.39791666666623,"velocity":0.84251968503937,"duration":0.30416666666666003},{"name":"D#4","midi":63,"time":74.70416666666623,"velocity":0.84251968503937,"duration":0.612499999999983},{"name":"F#4","midi":66,"time":75.01041666666622,"velocity":0.84251968503937,"duration":0.30416666666666003},{"name":"G#3","midi":56,"time":75.31666666666621,"velocity":0.84251968503937,"duration":0.6062500000000028},{"name":"E4","midi":64,"time":75.31874999999954,"velocity":0.84251968503937,"duration":0.29999999999999716},{"name":"G#4","midi":68,"time":75.61874999999954,"velocity":0.7795275590551181,"duration":0.30416666666667425},{"name":"C#4","midi":61,"time":75.92291666666621,"velocity":0.84251968503937,"duration":1.2104166666666885},{"name":"F#4","midi":66,"time":75.92499999999954,"velocity":0.84251968503937,"duration":0.29999999999999716},{"name":"E4","midi":64,"time":76.22499999999954,"velocity":0.84251968503937,"duration":0.2770833333333371},{"name":"E4","midi":64,"time":76.52708333333288,"velocity":0.7401574803149606,"duration":0.07708333333333428},{"name":"D#4","midi":63,"time":76.60416666666622,"velocity":0.7401574803149606,"duration":0.07500000000000284},{"name":"E4","midi":64,"time":76.68124999999955,"velocity":0.7401574803149606,"duration":0.07500000000000284},{"name":"D#4","midi":63,"time":76.75624999999955,"velocity":0.7401574803149606,"duration":0.07500000000000284},{"name":"E4","midi":64,"time":76.83333333333289,"velocity":0.7401574803149606,"duration":0.07500000000000284},{"name":"D#4","midi":63,"time":76.90833333333289,"velocity":0.7401574803149606,"duration":0.07500000000000284},{"name":"E4","midi":64,"time":76.98541666666623,"velocity":0.7401574803149606,"duration":0.0729166666666714},{"name":"D#4","midi":63,"time":77.0583333333329,"velocity":0.7401574803149606,"duration":0.6833333333333371},{"name":"C4","midi":60,"time":77.13541666666623,"velocity":0.84251968503937,"duration":0.6041666666666714},{"name":"C#4","midi":61,"time":77.74166666666623,"velocity":0.84251968503937,"duration":0.9083333333333172},{"name":"E4","midi":64,"time":78.04374999999956,"velocity":0.84251968503937,"duration":0.3020833333333286},{"name":"F#4","midi":66,"time":78.34791666666622,"velocity":0.84251968503937,"duration":0.3020833333333286},{"name":"G#4","midi":68,"time":78.65208333333288,"velocity":0.7795275590551181,"duration":0.29999999999999716},{"name":"B3","midi":59,"time":78.65208333333288,"velocity":0.84251968503937,"duration":0.29999999999999716},{"name":"A4","midi":69,"time":78.95416666666621,"velocity":0.7795275590551181,"duration":0.8999999999999915},{"name":"C#4","midi":61,"time":78.95416666666621,"velocity":0.84251968503937,"duration":0.29999999999999716},{"name":"D#4","midi":63,"time":79.25416666666621,"velocity":0.84251968503937,"duration":0.29999999999999716},{"name":"E4","midi":64,"time":79.5541666666662,"velocity":0.84251968503937,"duration":0.9020833333333229},{"name":"F#4","midi":66,"time":79.8541666666662,"velocity":0.84251968503937,"duration":0.29999999999999716},{"name":"G#4","midi":68,"time":80.1541666666662,"velocity":0.7795275590551181,"duration":0.29999999999999716},{"name":"A#4","midi":70,"time":80.45624999999953,"velocity":0.7795275590551181,"duration":0.2979166666666657},{"name":"C#4","midi":61,"time":80.45624999999953,"velocity":0.84251968503937,"duration":0.2979166666666657},{"name":"B4","midi":71,"time":80.75624999999953,"velocity":0.7795275590551181,"duration":0.8999999999999915},{"name":"D#4","midi":63,"time":80.75833333333286,"velocity":0.84251968503937,"duration":0.2958333333333343},{"name":"F4","midi":65,"time":81.05624999999952,"velocity":0.84251968503937,"duration":0.2979166666666657},{"name":"F#4","midi":66,"time":81.35624999999952,"velocity":0.84251968503937,"duration":0.6062499999999886},{"name":"B4","midi":71,"time":81.65833333333285,"velocity":0.7795275590551181,"duration":0.3020833333333286},{"name":"B4","midi":71,"time":81.96249999999951,"velocity":0.7795275590551181,"duration":0.29999999999999716},{"name":"C#4","midi":61,"time":81.96458333333284,"velocity":0.84251968503937,"duration":0.6041666666666572},{"name":"F#2","midi":42,"time":81.96458333333284,"velocity":0.84251968503937,"duration":0.6041666666666572},{"name":"A4","midi":69,"time":82.26458333333284,"velocity":0.7795275590551181,"duration":0.3020833333333286},{"name":"A4","midi":69,"time":82.57083333333283,"velocity":0.7795275590551181,"duration":0.2979166666666657},{"name":"B3","midi":59,"time":82.57083333333283,"velocity":0.84251968503937,"duration":0.6041666666666572},{"name":"G#2","midi":44,"time":82.57291666666616,"velocity":0.84251968503937,"duration":0.6020833333333258},{"name":"G#4","midi":68,"time":82.87083333333283,"velocity":0.7795275590551181,"duration":0.3020833333333286},{"name":"G#4","midi":68,"time":83.17499999999949,"velocity":0.7795275590551181,"duration":0.3020833333333286},{"name":"C#4","midi":61,"time":83.17708333333282,"velocity":0.84251968503937,"duration":0.6020833333333258},{"name":"A2","midi":45,"time":83.17708333333282,"velocity":0.84251968503937,"duration":2.422916666666623},{"name":"F#4","midi":66,"time":83.47708333333281,"velocity":0.84251968503937,"duration":0.3020833333333286},{"name":"F#4","midi":66,"time":83.78124999999947,"velocity":0.84251968503937,"duration":0.3020833333333286},{"name":"A3","midi":57,"time":83.78124999999947,"velocity":0.84251968503937,"duration":0.6041666666666572},{"name":"E4","midi":64,"time":84.0833333333328,"velocity":0.84251968503937,"duration":0.3020833333333286},{"name":"E4","midi":64,"time":84.38749999999946,"velocity":0.84251968503937,"duration":0.3020833333333286},{"name":"F#3","midi":54,"time":84.38749999999946,"velocity":0.84251968503937,"duration":0.6062499999999886},{"name":"D#4","midi":63,"time":84.68958333333279,"velocity":0.84251968503937,"duration":0.3020833333333286},{"name":"B3","midi":59,"time":84.99374999999945,"velocity":0.84251968503937,"duration":1.8041666666666458},{"name":"D#4","midi":63,"time":84.99374999999945,"velocity":0.84251968503937,"duration":0.3020833333333286},{"name":"E4","midi":64,"time":85.29791666666611,"velocity":0.84251968503937,"duration":0.29999999999999716},{"name":"E4","midi":64,"time":85.59999999999944,"velocity":0.84251968503937,"duration":0.29999999999999716},{"name":"G#2","midi":44,"time":85.59999999999944,"velocity":0.84251968503937,"duration":0.2979166666666657},{"name":"D4","midi":62,"time":85.89999999999944,"velocity":0.84251968503937,"duration":0.29999999999999716},{"name":"A#2","midi":46,"time":85.89999999999944,"velocity":0.84251968503937,"duration":0.2979166666666657},{"name":"D4","midi":62,"time":86.19999999999943,"velocity":0.84251968503937,"duration":0.2979166666666657},{"name":"B2","midi":47,"time":86.19999999999943,"velocity":0.84251968503937,"duration":1.1916666666666629},{"name":"C#4","midi":61,"time":86.49999999999943,"velocity":0.84251968503937,"duration":0.2958333333333343},{"name":"F3","midi":53,"time":86.7979166666661,"velocity":0.84251968503937,"duration":0.2958333333333343},{"name":"C#4","midi":61,"time":86.79999999999943,"velocity":0.84251968503937,"duration":1.1854166666666686},{"name":"C#3","midi":49,"time":87.09583333333276,"velocity":0.84251968503937,"duration":0.29375000000000284},{"name":"F#3","midi":54,"time":87.3916666666661,"velocity":0.84251968503937,"duration":0.59375},{"name":"A#2","midi":46,"time":87.39374999999943,"velocity":0.84251968503937,"duration":0.29375000000000284},{"name":"G#2","midi":44,"time":87.68958333333276,"velocity":0.84251968503937,"duration":0.29375000000000284},{"name":"C#4","midi":61,"time":87.98749999999943,"velocity":0.84251968503937,"duration":0.8999999999999915},{"name":"A#2","midi":46,"time":87.98749999999943,"velocity":0.84251968503937,"duration":0.2958333333333343},{"name":"D#4","midi":63,"time":88.2854166666661,"velocity":0.84251968503937,"duration":0.29999999999999716},{"name":"C3","midi":48,"time":88.2854166666661,"velocity":0.84251968503937,"duration":0.2979166666666657},{"name":"F4","midi":65,"time":88.58541666666609,"velocity":0.84251968503937,"duration":0.29999999999999716},{"name":"C#3","midi":49,"time":88.58749999999942,"velocity":0.84251968503937,"duration":0.9041666666666544},{"name":"D#4","midi":63,"time":88.88749999999942,"velocity":0.84251968503937,"duration":0.30416666666666003},{"name":"F#4","midi":66,"time":88.88958333333275,"velocity":0.84251968503937,"duration":0.29999999999999716},{"name":"G#4","midi":68,"time":89.19166666666608,"velocity":0.84251968503937,"duration":0.6041666666666572},{"name":"F4","midi":65,"time":89.19374999999941,"velocity":0.84251968503937,"duration":0.6020833333333258},{"name":"B2","midi":47,"time":89.49374999999941,"velocity":0.84251968503937,"duration":0.3020833333333286},{"name":"F#4","midi":66,"time":89.79791666666607,"velocity":0.84251968503937,"duration":0.29999999999999716},{"name":"C#4","midi":61,"time":89.79791666666607,"velocity":0.84251968503937,"duration":0.5999999999999943},{"name":"A2","midi":45,"time":89.7999999999994,"velocity":0.84251968503937,"duration":0.2958333333333343},{"name":"C#3","midi":49,"time":90.09791666666607,"velocity":0.84251968503937,"duration":0.29999999999999716},{"name":"E4","midi":64,"time":90.0999999999994,"velocity":0.84251968503937,"duration":0.2979166666666657},{"name":"F#4","midi":66,"time":90.3999999999994,"velocity":0.84251968503937,"duration":1.1916666666666913},{"name":"D4","midi":62,"time":90.3999999999994,"velocity":0.84251968503937,"duration":0.2979166666666657},{"name":"B2","midi":47,"time":90.3999999999994,"velocity":0.84251968503937,"duration":0.2979166666666657},{"name":"C#4","midi":61,"time":90.69999999999939,"velocity":0.84251968503937,"duration":0.2979166666666657},{"name":"A2","midi":45,"time":90.69999999999939,"velocity":0.84251968503937,"duration":0.2708333333333286},{"name":"B3","midi":59,"time":90.99791666666606,"velocity":0.84251968503937,"duration":1.4916666666666885},{"name":"A2","midi":45,"time":90.99999999999939,"velocity":0.84251968503937,"duration":0.07083333333333997},{"name":"G#2","midi":44,"time":91.07291666666606,"velocity":0.84251968503937,"duration":0.07500000000000284},{"name":"A2","midi":45,"time":91.14791666666606,"velocity":0.84251968503937,"duration":0.0729166666666714},{"name":"G#2","midi":44,"time":91.22291666666607,"velocity":0.84251968503937,"duration":0.0729166666666714},{"name":"A2","midi":45,"time":91.29583333333274,"velocity":0.84251968503937,"duration":0.0729166666666714},{"name":"G#2","midi":44,"time":91.37083333333274,"velocity":0.84251968503937,"duration":0.0729166666666714},{"name":"A2","midi":45,"time":91.44374999999941,"velocity":0.84251968503937,"duration":0.0729166666666714},{"name":"G#2","midi":44,"time":91.51874999999941,"velocity":0.84251968503937,"duration":0.6666666666666714},{"name":"F4","midi":65,"time":91.59166666666609,"velocity":0.84251968503937,"duration":0.59375},{"name":"F#4","midi":66,"time":92.18749999999942,"velocity":0.84251968503937,"duration":1.8083333333333087},{"name":"F#2","midi":42,"time":92.18749999999942,"velocity":0.84251968503937,"duration":0.9083333333333172},{"name":"A3","midi":57,"time":92.48958333333275,"velocity":0.84251968503937,"duration":0.3020833333333286},{"name":"B3","midi":59,"time":92.79166666666607,"velocity":0.84251968503937,"duration":0.30416666666666003},{"name":"C#4","midi":61,"time":93.09791666666607,"velocity":0.84251968503937,"duration":0.29999999999999716},{"name":"E2","midi":40,"time":93.09791666666607,"velocity":0.84251968503937,"duration":0.29999999999999716},{"name":"D4","midi":62,"time":93.3999999999994,"velocity":0.84251968503937,"duration":0.8916666666666657},{"name":"F#2","midi":42,"time":93.3999999999994,"velocity":0.84251968503937,"duration":0.2979166666666657},{"name":"G#2","midi":44,"time":93.69791666666606,"velocity":0.84251968503937,"duration":0.2979166666666657},{"name":"E4","midi":64,"time":93.99791666666606,"velocity":0.84251968503937,"duration":0.59375},{"name":"A2","midi":45,"time":93.99791666666606,"velocity":0.84251968503937,"duration":1.4874999999999972},{"name":"C#4","midi":61,"time":94.29166666666606,"velocity":0.84251968503937,"duration":0.2979166666666657},{"name":"D#4","midi":63,"time":94.59166666666606,"velocity":0.84251968503937,"duration":0.2958333333333343},{"name":"F#4","midi":66,"time":94.59166666666606,"velocity":0.84251968503937,"duration":0.29375000000000284},{"name":"G#4","midi":68,"time":94.88749999999939,"velocity":0.84251968503937,"duration":0.29999999999999716},{"name":"F4","midi":65,"time":94.88749999999939,"velocity":0.84251968503937,"duration":0.2979166666666657},{"name":"A4","midi":69,"time":95.18749999999939,"velocity":0.84251968503937,"duration":0.5999999999999943},{"name":"F#4","midi":66,"time":95.18749999999939,"velocity":0.84251968503937,"duration":0.8874999999999886},{"name":"B2","midi":47,"time":95.48749999999939,"velocity":0.84251968503937,"duration":0.2979166666666657},{"name":"G#4","midi":68,"time":95.78749999999938,"velocity":0.84251968503937,"duration":1.7291666666666288},{"name":"C#3","midi":49,"time":95.78958333333271,"velocity":0.84251968503937,"duration":0.2854166666666629},{"name":"F#4","midi":66,"time":96.07499999999938,"velocity":0.84251968503937,"duration":0.2874999999999943},{"name":"C3","midi":48,"time":96.07708333333271,"velocity":0.84251968503937,"duration":0.2854166666666629},{"name":"E4","midi":64,"time":96.3645833333327,"velocity":0.84251968503937,"duration":0.2874999999999943},{"name":"C#3","midi":49,"time":96.3645833333327,"velocity":0.84251968503937,"duration":0.2874999999999943},{"name":"D#3","midi":51,"time":96.65416666666603,"velocity":0.84251968503937,"duration":0.2874999999999943},{"name":"D#4","midi":63,"time":96.65416666666603,"velocity":0.84251968503937,"duration":0.2854166666666629},{"name":"E3","midi":52,"time":96.94166666666602,"velocity":0.84251968503937,"duration":0.862499999999983},{"name":"C#4","midi":61,"time":96.94374999999935,"velocity":0.84251968503937,"duration":0.2854166666666629},{"name":"B3","midi":59,"time":97.23124999999935,"velocity":0.84251968503937,"duration":0.2854166666666629},{"name":"F#4","midi":66,"time":97.51666666666601,"velocity":0.84251968503937,"duration":1.74166666666666},{"name":"A#3","midi":58,"time":97.51874999999934,"velocity":0.84251968503937,"duration":0.5770833333333343},{"name":"F#3","midi":54,"time":97.804166666666,"velocity":0.84251968503937,"duration":0.28958333333333997},{"name":"E3","midi":52,"time":98.09583333333268,"velocity":0.84251968503937,"duration":0.2916666666666572},{"name":"C4","midi":60,"time":98.09791666666601,"velocity":0.84251968503937,"duration":0.2874999999999943},{"name":"D#3","midi":51,"time":98.38749999999933,"velocity":0.84251968503937,"duration":0.28958333333332575},{"name":"C#4","midi":61,"time":98.38958333333267,"velocity":0.84251968503937,"duration":0.2854166666666629},{"name":"D#4","midi":63,"time":98.67708333333266,"velocity":0.84251968503937,"duration":0.82083333333334},{"name":"C#3","midi":49,"time":98.67916666666599,"velocity":0.84251968503937,"duration":0.28958333333333997},{"name":"C3","midi":48,"time":98.96874999999933,"velocity":0.84251968503937,"duration":0.2916666666666714},{"name":"C#3","midi":49,"time":99.26249999999933,"velocity":0.84251968503937,"duration":0.8479166666666629},{"name":"E4","midi":64,"time":99.26249999999933,"velocity":0.84251968503937,"duration":0.8499999999999943},{"name":"D#4","midi":63,"time":99.547916666666,"velocity":0.84251968503937,"duration":0.33124999999999716},{"name":"C#4","midi":61,"time":99.83124999999933,"velocity":0.84251968503937,"duration":0.5645833333333314},{"name":"C#3","midi":49,"time":100.11249999999933,"velocity":0.84251968503937,"duration":0.28125},{"name":"F#4","midi":66,"time":100.11458333333266,"velocity":0.84251968503937,"duration":0.27916666666666856},{"name":"D3","midi":50,"time":100.39583333333266,"velocity":0.84251968503937,"duration":0.28125},{"name":"G4","midi":67,"time":100.39791666666599,"velocity":0.84251968503937,"duration":1.1270833333333314},{"name":"B3","midi":59,"time":100.39791666666599,"velocity":0.84251968503937,"duration":0.5666666666666629},{"name":"E3","midi":52,"time":100.67708333333266,"velocity":0.84251968503937,"duration":0.2854166666666629},{"name":"F#3","midi":54,"time":100.96458333333266,"velocity":0.84251968503937,"duration":0.8416666666666686},{"name":"A#3","midi":58,"time":100.96666666666599,"velocity":0.84251968503937,"duration":0.2770833333333371},{"name":"B3","midi":59,"time":101.24374999999932,"velocity":0.84251968503937,"duration":0.27916666666666856},{"name":"C#4","midi":61,"time":101.52499999999932,"velocity":0.84251968503937,"duration":1.125},{"name":"F#4","midi":66,"time":101.52499999999932,"velocity":0.84251968503937,"duration":0.27916666666666856},{"name":"E4","midi":64,"time":101.80624999999932,"velocity":0.84251968503937,"duration":0.2770833333333371},{"name":"F#2","midi":42,"time":101.80833333333266,"velocity":0.84251968503937,"duration":0.2750000000000057},{"name":"D4","midi":62,"time":102.08541666666599,"velocity":0.84251968503937,"duration":0.28125},{"name":"G#2","midi":44,"time":102.08541666666599,"velocity":0.84251968503937,"duration":0.27916666666666856},{"name":"C#4","midi":61,"time":102.36666666666599,"velocity":0.84251968503937,"duration":0.5374999999999943},{"name":"A#2","midi":46,"time":102.36874999999932,"velocity":0.84251968503937,"duration":0.28125},{"name":"D4","midi":62,"time":102.64999999999932,"velocity":0.84251968503937,"duration":0.8354166666666742},{"name":"B2","midi":47,"time":102.65208333333266,"velocity":0.84251968503937,"duration":0.8333333333333428},{"name":"C#4","midi":61,"time":102.92916666666599,"velocity":0.84251968503937,"duration":0.2770833333333371},{"name":"B3","midi":59,"time":103.20833333333266,"velocity":0.84251968503937,"duration":0.5562500000000057},{"name":"E4","midi":64,"time":103.48749999999933,"velocity":0.84251968503937,"duration":0.2770833333333371},{"name":"B2","midi":47,"time":103.48749999999933,"velocity":0.84251968503937,"duration":0.2750000000000057},{"name":"F#4","midi":66,"time":103.766666666666,"velocity":0.84251968503937,"duration":1.1020833333333115},{"name":"C#3","midi":49,"time":103.766666666666,"velocity":0.84251968503937,"duration":0.2749999999999915},{"name":"A3","midi":57,"time":103.76874999999933,"velocity":0.84251968503937,"duration":0.5520833333333286},{"name":"D3","midi":50,"time":104.04166666666599,"velocity":0.84251968503937,"duration":0.2770833333333371},{"name":"E3","midi":52,"time":104.32083333333266,"velocity":0.84251968503937,"duration":0.8249999999999744},{"name":"G#3","midi":56,"time":104.32291666666599,"velocity":0.84251968503937,"duration":0.27291666666666003},{"name":"A3","midi":57,"time":104.59791666666598,"velocity":0.84251968503937,"duration":0.2708333333333286},{"name":"B3","midi":59,"time":104.86874999999931,"velocity":0.84251968503937,"duration":1.11666666666666},{"name":"E4","midi":64,"time":104.87083333333264,"velocity":0.84251968503937,"duration":0.27291666666666003},{"name":"D4","midi":62,"time":105.14583333333263,"velocity":0.84251968503937,"duration":0.27916666666666856},{"name":"E2","midi":40,"time":105.14791666666596,"velocity":0.84251968503937,"duration":0.2770833333333371},{"name":"C#4","midi":61,"time":105.4249999999993,"velocity":0.84251968503937,"duration":0.27916666666666856},{"name":"F#2","midi":42,"time":105.42708333333263,"velocity":0.84251968503937,"duration":0.2770833333333371},{"name":"B3","midi":59,"time":105.7062499999993,"velocity":0.84251968503937,"duration":0.55416666666666},{"name":"G#2","midi":44,"time":105.7062499999993,"velocity":0.84251968503937,"duration":0.2770833333333371},{"name":"C#4","midi":61,"time":105.98541666666597,"velocity":0.84251968503937,"duration":0.5520833333333144},{"name":"A2","midi":45,"time":105.9874999999993,"velocity":0.84251968503937,"duration":0.27291666666666003},{"name":"D4","midi":62,"time":106.26249999999929,"velocity":0.84251968503937,"duration":0.2749999999999915},{"name":"B2","midi":47,"time":106.26249999999929,"velocity":0.84251968503937,"duration":0.27291666666666003},{"name":"D#4","midi":63,"time":106.53958333333262,"velocity":0.84251968503937,"duration":0.5520833333333144},{"name":"F#4","midi":66,"time":106.53958333333262,"velocity":0.84251968503937,"duration":0.5541666666666458},{"name":"C#4","midi":61,"time":106.54166666666595,"velocity":0.84251968503937,"duration":0.27291666666666003},{"name":"A2","midi":45,"time":106.54166666666595,"velocity":0.84251968503937,"duration":0.27291666666666003},{"name":"B3","midi":59,"time":106.81666666666594,"velocity":0.84251968503937,"duration":0.2749999999999915},{"name":"G#2","midi":44,"time":106.81666666666594,"velocity":0.84251968503937,"duration":0.27291666666666003},{"name":"G#4","midi":68,"time":107.09374999999926,"velocity":0.84251968503937,"duration":0.55416666666666},{"name":"F4","midi":65,"time":107.09583333333259,"velocity":0.84251968503937,"duration":0.5499999999999972},{"name":"B3","midi":59,"time":107.09583333333259,"velocity":0.84251968503937,"duration":0.2708333333333286},{"name":"G#2","midi":44,"time":107.09791666666592,"velocity":0.84251968503937,"duration":0.26874999999999716},{"name":"A3","midi":57,"time":107.36874999999925,"velocity":0.84251968503937,"duration":0.2770833333333371},{"name":"F#2","midi":42,"time":107.36874999999925,"velocity":0.84251968503937,"duration":0.2750000000000057},{"name":"A4","midi":69,"time":107.64791666666592,"velocity":0.84251968503937,"duration":2.2520833333333314},{"name":"F#4","midi":66,"time":107.64999999999925,"velocity":0.84251968503937,"duration":2.25},{"name":"A3","midi":57,"time":107.64999999999925,"velocity":0.84251968503937,"duration":0.28333333333333144},{"name":"F#2","midi":42,"time":107.64999999999925,"velocity":0.84251968503937,"duration":0.28125},{"name":"F#3","midi":54,"time":107.93333333333258,"velocity":0.84251968503937,"duration":0.28333333333333144},{"name":"B3","midi":59,"time":107.93541666666592,"velocity":0.84251968503937,"duration":0.28125},{"name":"C#4","midi":61,"time":108.21874999999925,"velocity":0.84251968503937,"duration":1.1312499999999943},{"name":"F#3","midi":54,"time":108.21874999999925,"velocity":0.84251968503937,"duration":0.28125},{"name":"E3","midi":52,"time":108.49999999999925,"velocity":0.84251968503937,"duration":0.28125},{"name":"E3","midi":52,"time":108.78333333333258,"velocity":0.84251968503937,"duration":0.2854166666666629},{"name":"D#3","midi":51,"time":109.06874999999924,"velocity":0.84251968503937,"duration":0.28125},{"name":"B3","midi":59,"time":109.34999999999924,"velocity":0.84251968503937,"duration":1.6479166666666458},{"name":"D#3","midi":51,"time":109.34999999999924,"velocity":0.84251968503937,"duration":0.2750000000000057},{"name":"E3","midi":52,"time":109.62499999999925,"velocity":0.84251968503937,"duration":0.2750000000000057},{"name":"G#4","midi":68,"time":109.90208333333258,"velocity":0.8346456692913385,"duration":0.549999999999983},{"name":"E3","midi":52,"time":109.90208333333258,"velocity":0.84251968503937,"duration":0.27291666666666003},{"name":"A#4","midi":70,"time":110.17499999999924,"velocity":0.8346456692913385,"duration":0.2770833333333229},{"name":"D3","midi":50,"time":110.17708333333258,"velocity":0.84251968503937,"duration":0.27291666666666003},{"name":"B4","midi":71,"time":110.4541666666659,"velocity":0.8346456692913385,"duration":1.0937499999999858},{"name":"F#4","midi":66,"time":110.4541666666659,"velocity":0.84251968503937,"duration":0.5416666666666572},{"name":"D3","midi":50,"time":110.45624999999923,"velocity":0.84251968503937,"duration":0.2666666666666657},{"name":"C#3","midi":49,"time":110.72499999999923,"velocity":0.84251968503937,"duration":0.2708333333333286},{"name":"C#4","midi":61,"time":110.99791666666589,"velocity":0.84251968503937,"duration":1.9041666666666401},{"name":"C#3","midi":49,"time":110.99999999999922,"velocity":0.84251968503937,"duration":1.35833333333332},{"name":"F4","midi":65,"time":110.99999999999922,"velocity":0.84251968503937,"duration":0.5479166666666657},{"name":"A#4","midi":70,"time":111.54999999999922,"velocity":0.8346456692913385,"duration":0.2708333333333286},{"name":"F#4","midi":66,"time":111.54999999999922,"velocity":0.84251968503937,"duration":0.26874999999999716},{"name":"G#4","midi":68,"time":111.82083333333254,"velocity":0.8346456692913385,"duration":0.2666666666666657},{"name":"F4","midi":65,"time":111.82291666666588,"velocity":0.84251968503937,"duration":0.2645833333333343},{"name":"A#4","midi":70,"time":112.08958333333254,"velocity":0.8346456692913385,"duration":0.2666666666666657},{"name":"F#4","midi":66,"time":112.08958333333254,"velocity":0.84251968503937,"duration":0.5374999999999943},{"name":"C5","midi":72,"time":112.35833333333254,"velocity":0.8346456692913385,"duration":0.2666666666666657},{"name":"D#3","midi":51,"time":112.36041666666587,"velocity":0.84251968503937,"duration":0.2645833333333343},{"name":"G#4","midi":68,"time":112.62708333333254,"velocity":0.8346456692913385,"duration":1.112499999999983},{"name":"C#5","midi":73,"time":112.62916666666587,"velocity":0.8346456692913385,"duration":0.8249999999999886},{"name":"F3","midi":53,"time":112.62916666666587,"velocity":0.84251968503937,"duration":0.2708333333333286},{"name":"F#3","midi":54,"time":112.90208333333253,"velocity":0.84251968503937,"duration":0.2749999999999915},{"name":"D#4","midi":63,"time":112.90416666666586,"velocity":0.84251968503937,"duration":0.27291666666666003},{"name":"F4","midi":65,"time":113.17916666666585,"velocity":0.84251968503937,"duration":0.5583333333333371},{"name":"G#3","midi":56,"time":113.17916666666585,"velocity":0.84251968503937,"duration":0.5604166666666686},{"name":"B4","midi":71,"time":113.45624999999919,"velocity":0.8346456692913385,"duration":0.28125},{"name":"A4","midi":69,"time":113.74166666666585,"velocity":0.8346456692913385,"duration":0.2749999999999915},{"name":"F#4","midi":66,"time":113.74166666666585,"velocity":0.84251968503937,"duration":0.27291666666666003},{"name":"F#4","midi":66,"time":113.74374999999918,"velocity":0.84251968503937,"duration":0.8312499999999972},{"name":"C#3","midi":49,"time":113.74374999999918,"velocity":0.84251968503937,"duration":0.5520833333333286},{"name":"C#5","midi":73,"time":114.01666666666584,"velocity":0.8346456692913385,"duration":0.2770833333333371},{"name":"E4","midi":64,"time":114.01874999999917,"velocity":0.84251968503937,"duration":0.2750000000000057},{"name":"B4","midi":71,"time":114.29791666666584,"velocity":0.8346456692913385,"duration":0.2770833333333371},{"name":"F#3","midi":54,"time":114.29791666666584,"velocity":0.84251968503937,"duration":1.1083333333333343},{"name":"D4","midi":62,"time":114.29791666666584,"velocity":0.84251968503937,"duration":0.2770833333333371},{"name":"A4","midi":69,"time":114.57708333333251,"velocity":0.8346456692913385,"duration":0.27916666666666856},{"name":"E4","midi":64,"time":114.57708333333251,"velocity":0.84251968503937,"duration":0.2770833333333371},{"name":"C#4","midi":61,"time":114.57708333333251,"velocity":0.84251968503937,"duration":0.2770833333333371},{"name":"G#4","midi":68,"time":114.85624999999918,"velocity":0.8346456692913385,"duration":1.1041666666666572},{"name":"B3","midi":59,"time":114.85833333333251,"velocity":0.84251968503937,"duration":0.26874999999999716},{"name":"D4","midi":62,"time":114.85833333333251,"velocity":0.84251968503937,"duration":0.5458333333333343},{"name":"A3","midi":57,"time":115.12916666666584,"velocity":0.84251968503937,"duration":0.2750000000000057},{"name":"C#4","midi":61,"time":115.40624999999918,"velocity":0.84251968503937,"duration":1.3749999999999858},{"name":"G#3","midi":56,"time":115.40833333333251,"velocity":0.84251968503937,"duration":0.2708333333333286},{"name":"F3","midi":53,"time":115.40833333333251,"velocity":0.84251968503937,"duration":0.5499999999999972},{"name":"B3","midi":59,"time":115.68124999999917,"velocity":0.84251968503937,"duration":0.2770833333333371},{"name":"F#4","midi":66,"time":115.96041666666584,"velocity":0.84251968503937,"duration":0.27291666666666003},{"name":"F#3","midi":54,"time":115.96249999999917,"velocity":0.84251968503937,"duration":0.8187499999999943},{"name":"A3","midi":57,"time":115.96249999999917,"velocity":0.84251968503937,"duration":0.5479166666666657},{"name":"A4","midi":69,"time":116.23541666666583,"velocity":0.8110236220472441,"duration":0.2750000000000057},{"name":"B4","midi":71,"time":116.51249999999916,"velocity":0.8110236220472441,"duration":0.2666666666666657},{"name":"G#4","midi":68,"time":116.7833333333325,"velocity":0.8110236220472441,"duration":0.2708333333333286},{"name":"C#5","midi":73,"time":116.7833333333325,"velocity":0.8110236220472441,"duration":0.27291666666666003},{"name":"F3","midi":53,"time":116.78541666666582,"velocity":0.84251968503937,"duration":0.26874999999999716},{"name":"D5","midi":74,"time":117.05624999999915,"velocity":0.8110236220472441,"duration":0.8270833333333201},{"name":"A4","midi":69,"time":117.05833333333248,"velocity":0.8110236220472441,"duration":0.27291666666666003},{"name":"F#3","midi":54,"time":117.05833333333248,"velocity":0.84251968503937,"duration":0.27291666666666003},{"name":"B4","midi":71,"time":117.33124999999914,"velocity":0.8110236220472441,"duration":0.2770833333333371},{"name":"G#3","midi":56,"time":117.33333333333248,"velocity":0.84251968503937,"duration":0.2750000000000057},{"name":"E4","midi":64,"time":117.61041666666581,"velocity":0.84251968503937,"duration":0.822916666666643},{"name":"A3","midi":57,"time":117.61041666666581,"velocity":0.84251968503937,"duration":0.822916666666643},{"name":"B4","midi":71,"time":117.8854166666658,"velocity":0.8110236220472441,"duration":0.27291666666666003},{"name":"C#5","midi":73,"time":118.15833333333246,"velocity":0.8110236220472441,"duration":0.27291666666666003},{"name":"A4","midi":69,"time":118.43541666666579,"velocity":0.8110236220472441,"duration":0.2645833333333343},{"name":"D#5","midi":75,"time":118.43541666666579,"velocity":0.8110236220472441,"duration":0.2666666666666657},{"name":"F#3","midi":54,"time":118.43749999999912,"velocity":0.84251968503937,"duration":0.26250000000000284},{"name":"E5","midi":76,"time":118.70208333333245,"velocity":0.8110236220472441,"duration":0.8166666666666629},{"name":"B4","midi":71,"time":118.70416666666578,"velocity":0.8110236220472441,"duration":0.26874999999999716},{"name":"G#3","midi":56,"time":118.70416666666578,"velocity":0.84251968503937,"duration":0.2666666666666657},{"name":"C#5","midi":73,"time":118.97291666666578,"velocity":0.8110236220472441,"duration":0.2750000000000057},{"name":"A#3","midi":58,"time":118.97291666666578,"velocity":0.84251968503937,"duration":0.2750000000000057},{"name":"F#4","midi":66,"time":119.24791666666579,"velocity":0.84251968503937,"duration":1.8708333333333087},{"name":"B3","midi":59,"time":119.24999999999912,"velocity":0.84251968503937,"duration":0.26874999999999716},{"name":"D5","midi":74,"time":119.52083333333245,"velocity":0.8346456692913385,"duration":0.2708333333333286},{"name":"B2","midi":47,"time":119.52291666666578,"velocity":0.84251968503937,"duration":0.26874999999999716},{"name":"D5","midi":74,"time":119.79374999999911,"velocity":0.8346456692913385,"duration":0.26874999999999716},{"name":"B2","midi":47,"time":119.79374999999911,"velocity":0.84251968503937,"duration":0.2666666666666657},{"name":"C#5","midi":73,"time":120.0624999999991,"velocity":0.8346456692913385,"duration":0.26874999999999716},{"name":"A2","midi":45,"time":120.06458333333244,"velocity":0.84251968503937,"duration":0.2666666666666657},{"name":"C#5","midi":73,"time":120.33333333333243,"velocity":0.8346456692913385,"duration":0.26874999999999716},{"name":"A2","midi":45,"time":120.33333333333243,"velocity":0.84251968503937,"duration":0.2666666666666657},{"name":"C5","midi":72,"time":120.60208333333243,"velocity":0.8346456692913385,"duration":0.27291666666666003},{"name":"G#2","midi":44,"time":120.60416666666576,"velocity":0.84251968503937,"duration":0.26874999999999716},{"name":"C5","midi":72,"time":120.87499999999909,"velocity":0.8346456692913385,"duration":0.5333333333333314},{"name":"G#2","midi":44,"time":120.87499999999909,"velocity":0.84251968503937,"duration":0.2666666666666657},{"name":"A3","midi":57,"time":121.14166666666576,"velocity":0.84251968503937,"duration":0.2666666666666657},{"name":"F#4","midi":66,"time":121.14374999999909,"velocity":0.84251968503937,"duration":0.26250000000000284},{"name":"C#5","midi":73,"time":121.41041666666575,"velocity":0.8346456692913385,"duration":1.59375},{"name":"F#4","midi":66,"time":121.41041666666575,"velocity":0.84251968503937,"duration":0.2645833333333343},{"name":"A3","midi":57,"time":121.41249999999908,"velocity":0.84251968503937,"duration":0.2604166666666714},{"name":"G#3","midi":56,"time":121.67499999999909,"velocity":0.84251968503937,"duration":0.2645833333333343},{"name":"E4","midi":64,"time":121.67499999999909,"velocity":0.84251968503937,"duration":0.2645833333333343},{"name":"E4","midi":64,"time":121.94166666666575,"velocity":0.84251968503937,"duration":0.2604166666666714},{"name":"G#3","midi":56,"time":121.94166666666575,"velocity":0.84251968503937,"duration":0.26250000000000284},{"name":"F#3","midi":54,"time":122.20416666666576,"velocity":0.84251968503937,"duration":0.2666666666666657},{"name":"D#4","midi":63,"time":122.20624999999909,"velocity":0.84251968503937,"duration":0.26250000000000284},{"name":"D#4","midi":63,"time":122.47083333333242,"velocity":0.84251968503937,"duration":0.2645833333333343},{"name":"F#3","midi":54,"time":122.47291666666575,"velocity":0.84251968503937,"duration":0.53125},{"name":"G#4","midi":68,"time":122.73541666666576,"velocity":0.8346456692913385,"duration":0.2666666666666657},{"name":"C5","midi":72,"time":123.00624999999908,"velocity":0.8346456692913385,"duration":1.0791666666666515},{"name":"G#4","midi":68,"time":123.00624999999908,"velocity":0.8346456692913385,"duration":0.26874999999999716},{"name":"G#3","midi":56,"time":123.00833333333242,"velocity":0.84251968503937,"duration":0.5395833333333258},{"name":"F#4","midi":66,"time":123.27499999999908,"velocity":0.84251968503937,"duration":0.2708333333333286},{"name":"F#4","midi":66,"time":123.54791666666574,"velocity":0.84251968503937,"duration":0.26874999999999716},{"name":"G#2","midi":44,"time":123.54791666666574,"velocity":0.84251968503937,"duration":0.5374999999999943},{"name":"E4","midi":64,"time":123.81666666666574,"velocity":0.84251968503937,"duration":0.2666666666666657},{"name":"C#5","midi":73,"time":124.08749999999907,"velocity":0.8346456692913385,"duration":0.26250000000000284},{"name":"C#3","midi":49,"time":124.08749999999907,"velocity":0.84251968503937,"duration":0.8020833333333286},{"name":"E4","midi":64,"time":124.08749999999907,"velocity":0.84251968503937,"duration":0.5333333333333314},{"name":"D#5","midi":75,"time":124.34999999999907,"velocity":0.8346456692913385,"duration":0.2708333333333286},{"name":"C#5","midi":73,"time":124.62291666666573,"velocity":0.8346456692913385,"duration":0.5333333333333314},{"name":"E5","midi":76,"time":124.62291666666573,"velocity":0.8346456692913385,"duration":0.2645833333333343},{"name":"F#5","midi":78,"time":124.8895833333324,"velocity":0.7401574803149606,"duration":0.2645833333333343},{"name":"C#3","midi":49,"time":124.89166666666573,"velocity":0.84251968503937,"duration":0.26250000000000284},{"name":"G5","midi":79,"time":125.15624999999906,"velocity":0.7401574803149606,"duration":1.0583333333333371},{"name":"B4","midi":71,"time":125.1583333333324,"velocity":0.8346456692913385,"duration":0.5354166666666629},{"name":"D3","midi":50,"time":125.1583333333324,"velocity":0.84251968503937,"duration":0.2666666666666657},{"name":"E3","midi":52,"time":125.42499999999906,"velocity":0.84251968503937,"duration":0.2666666666666657},{"name":"A#4","midi":70,"time":125.69374999999906,"velocity":0.8346456692913385,"duration":2.0833333333333286},{"name":"F#3","midi":54,"time":125.69583333333239,"velocity":0.84251968503937,"duration":0.25833333333333997},{"name":"G3","midi":55,"time":125.95416666666573,"velocity":0.84251968503937,"duration":0.2604166666666714},{"name":"C#5","midi":73,"time":126.21666666666573,"velocity":0.8346456692913385,"duration":0.5208333333333428},{"name":"F#3","midi":54,"time":126.21666666666573,"velocity":0.84251968503937,"duration":0.25833333333333997},{"name":"E3","midi":52,"time":126.4770833333324,"velocity":0.84251968503937,"duration":0.25833333333333997},{"name":"F#5","midi":78,"time":126.73749999999907,"velocity":0.7401574803149606,"duration":0.2604166666666572},{"name":"D3","midi":50,"time":126.7395833333324,"velocity":0.84251968503937,"duration":0.2562499999999943},{"name":"E5","midi":76,"time":126.99791666666573,"velocity":0.8346456692913385,"duration":0.25833333333332575},{"name":"C#3","midi":49,"time":126.99999999999906,"velocity":0.84251968503937,"duration":0.2562499999999943},{"name":"D5","midi":74,"time":127.25833333333239,"velocity":0.8346456692913385,"duration":0.2604166666666714},{"name":"B2","midi":47,"time":127.25833333333239,"velocity":0.84251968503937,"duration":0.2604166666666714},{"name":"C#5","midi":73,"time":127.52083333333239,"velocity":0.8346456692913385,"duration":0.2562499999999943},{"name":"D3","midi":50,"time":127.52083333333239,"velocity":0.84251968503937,"duration":0.2541666666666629},{"name":"D5","midi":74,"time":127.77916666666572,"velocity":0.8346456692913385,"duration":1.0395833333333115},{"name":"B4","midi":71,"time":127.77916666666572,"velocity":0.8346456692913385,"duration":0.2562500000000085},{"name":"G#2","midi":44,"time":127.78124999999905,"velocity":0.84251968503937,"duration":0.25208333333334565},{"name":"A4","midi":69,"time":128.03541666666572,"velocity":0.8346456692913385,"duration":0.2604166666666572},{"name":"F#2","midi":42,"time":128.03749999999906,"velocity":0.84251968503937,"duration":0.25833333333332575},{"name":"G#4","midi":68,"time":128.29583333333238,"velocity":0.8346456692913385,"duration":1.0437499999999602},{"name":"F#2","midi":42,"time":128.2979166666657,"velocity":0.84251968503937,"duration":0.2562499999999943},{"name":"F2","midi":41,"time":128.5541666666657,"velocity":0.84251968503937,"duration":0.26458333333332007},{"name":"C#5","midi":73,"time":128.82083333333236,"velocity":0.8110236220472441,"duration":0.5166666666666515},{"name":"F2","midi":41,"time":128.8229166666657,"velocity":0.84251968503937,"duration":0.2541666666666629},{"name":"F3","midi":53,"time":129.07708333333235,"velocity":0.84251968503937,"duration":0.2604166666666572},{"name":"A4","midi":69,"time":129.33958333333234,"velocity":0.8346456692913385,"duration":0.25833333333332575},{"name":"D#5","midi":75,"time":129.33958333333234,"velocity":0.8110236220472441,"duration":0.5270833333333087},{"name":"F#3","midi":54,"time":129.34166666666567,"velocity":0.84251968503937,"duration":0.2562499999999943},{"name":"B4","midi":71,"time":129.599999999999,"velocity":0.8346456692913385,"duration":0.2666666666666515},{"name":"G#3","midi":56,"time":129.599999999999,"velocity":0.84251968503937,"duration":0.26458333333332007},{"name":"A4","midi":69,"time":129.86874999999898,"velocity":0.8346456692913385,"duration":0.25833333333332575},{"name":"F5","midi":77,"time":129.86874999999898,"velocity":0.7165354330708661,"duration":0.5229166666666458},{"name":"G#3","midi":56,"time":129.8708333333323,"velocity":0.84251968503937,"duration":0.2562499999999943},{"name":"G#4","midi":68,"time":130.12916666666564,"velocity":0.8346456692913385,"duration":0.2604166666666572},{"name":"A3","midi":57,"time":130.12916666666564,"velocity":0.84251968503937,"duration":0.2604166666666572},{"name":"F#5","midi":78,"time":130.39166666666563,"velocity":0.7165354330708661,"duration":2.5937499999999147},{"name":"F#4","midi":66,"time":130.39374999999896,"velocity":0.84251968503937,"duration":0.7812499999999716},{"name":"A3","midi":57,"time":130.39374999999896,"velocity":0.84251968503937,"duration":0.2562499999999943},{"name":"D4","midi":62,"time":130.65208333333229,"velocity":0.84251968503937,"duration":0.2604166666666572},{"name":"D4","midi":62,"time":130.91458333333227,"velocity":0.84251968503937,"duration":0.2604166666666572},{"name":"G#4","midi":68,"time":131.17708333333226,"velocity":0.8346456692913385,"duration":0.25833333333332575},{"name":"C#4","midi":61,"time":131.17708333333226,"velocity":0.84251968503937,"duration":0.25833333333332575},{"name":"A4","midi":69,"time":131.43749999999892,"velocity":0.8346456692913385,"duration":0.2562499999999943},{"name":"C#4","midi":61,"time":131.43749999999892,"velocity":0.84251968503937,"duration":0.2562499999999943},{"name":"B3","midi":59,"time":131.69583333333225,"velocity":0.84251968503937,"duration":0.2562499999999943},{"name":"F#4","midi":66,"time":131.69583333333225,"velocity":0.84251968503937,"duration":0.2541666666666629},{"name":"G#4","midi":68,"time":131.95208333333224,"velocity":0.8346456692913385,"duration":0.2604166666666572},{"name":"B3","midi":59,"time":131.95416666666557,"velocity":0.84251968503937,"duration":0.2562499999999943},{"name":"A4","midi":69,"time":132.2124999999989,"velocity":0.8346456692913385,"duration":0.2604166666666572},{"name":"A3","midi":57,"time":132.21458333333223,"velocity":0.84251968503937,"duration":0.2562499999999943},{"name":"B4","midi":71,"time":132.47291666666555,"velocity":0.8346456692913385,"duration":1.0270833333333087},{"name":"G#3","midi":56,"time":132.4749999999989,"velocity":0.84251968503937,"duration":0.2541666666666629},{"name":"D4","midi":62,"time":132.72916666666555,"velocity":0.84251968503937,"duration":0.2562499999999943},{"name":"E5","midi":76,"time":132.98749999999887,"velocity":0.8346456692913385,"duration":1.01458333333332},{"name":"C#4","midi":61,"time":132.98749999999887,"velocity":0.84251968503937,"duration":0.2562499999999943},{"name":"B3","midi":59,"time":133.24374999999887,"velocity":0.84251968503937,"duration":0.2541666666666629},{"name":"C#5","midi":73,"time":133.49999999999886,"velocity":0.8346456692913385,"duration":1.0062499999999943},{"name":"A#3","midi":58,"time":133.49999999999886,"velocity":0.84251968503937,"duration":0.25},{"name":"B3","midi":59,"time":133.74999999999886,"velocity":0.84251968503937,"duration":0.25208333333333144},{"name":"D5","midi":74,"time":134.00416666666553,"velocity":0.8346456692913385,"duration":1.5166666666666515},{"name":"B3","midi":59,"time":134.00416666666553,"velocity":0.84251968503937,"duration":0.24791666666666856},{"name":"A3","midi":57,"time":134.2520833333322,"velocity":0.84251968503937,"duration":0.2541666666666629},{"name":"F#4","midi":66,"time":134.5083333333322,"velocity":0.84251968503937,"duration":0.5083333333333258},{"name":"A3","midi":57,"time":134.5083333333322,"velocity":0.84251968503937,"duration":0.25208333333333144},{"name":"G#3","midi":56,"time":134.76041666666552,"velocity":0.84251968503937,"duration":0.2562499999999943},{"name":"B4","midi":71,"time":135.01874999999885,"velocity":0.8346456692913385,"duration":0.7520833333333314},{"name":"G#3","midi":56,"time":135.01874999999885,"velocity":0.84251968503937,"duration":0.25208333333333144},{"name":"F#3","midi":54,"time":135.27083333333218,"velocity":0.84251968503937,"duration":0.25},{"name":"C#5","midi":73,"time":135.5229166666655,"velocity":0.8346456692913385,"duration":1.5041666666666629},{"name":"E3","midi":52,"time":135.5229166666655,"velocity":0.84251968503937,"duration":0.24791666666666856},{"name":"E4","midi":64,"time":135.7729166666655,"velocity":0.84251968503937,"duration":0.25},{"name":"B3","midi":59,"time":135.7729166666655,"velocity":0.84251968503937,"duration":0.25},{"name":"A3","midi":57,"time":136.02499999999884,"velocity":0.84251968503937,"duration":0.25},{"name":"F#4","midi":66,"time":136.02499999999884,"velocity":0.84251968503937,"duration":0.25},{"name":"G#4","midi":68,"time":136.27499999999884,"velocity":0.8346456692913385,"duration":0.25208333333333144},{"name":"G#3","midi":56,"time":136.27708333333217,"velocity":0.84251968503937,"duration":0.24791666666666856},{"name":"A4","midi":69,"time":136.52708333333217,"velocity":0.8346456692913385,"duration":0.9916666666666742},{"name":"F#3","midi":54,"time":136.5291666666655,"velocity":0.84251968503937,"duration":0.24583333333333712},{"name":"G#3","midi":56,"time":136.77708333333217,"velocity":0.84251968503937,"duration":0.24791666666666856},{"name":"B4","midi":71,"time":137.02708333333217,"velocity":0.8346456692913385,"duration":1.2416666666666742},{"name":"G#3","midi":56,"time":137.0291666666655,"velocity":0.84251968503937,"duration":0.24166666666667425},{"name":"F#3","midi":54,"time":137.27083333333218,"velocity":0.84251968503937,"duration":0.24791666666666856},{"name":"D4","midi":62,"time":137.52083333333218,"velocity":0.84251968503937,"duration":0.49791666666666856},{"name":"F#3","midi":54,"time":137.52083333333218,"velocity":0.84251968503937,"duration":0.24791666666666856},{"name":"F3","midi":53,"time":137.76874999999885,"velocity":0.84251968503937,"duration":0.25},{"name":"C#4","midi":61,"time":138.02083333333218,"velocity":0.84251968503937,"duration":1.0041666666666629},{"name":"F3","midi":53,"time":138.02083333333218,"velocity":0.84251968503937,"duration":0.5},{"name":"G#4","midi":68,"time":138.27083333333218,"velocity":0.8346456692913385,"duration":0.25},{"name":"A4","midi":69,"time":138.5229166666655,"velocity":0.8346456692913385,"duration":0.25},{"name":"F#3","midi":54,"time":138.52499999999884,"velocity":0.84251968503937,"duration":0.5},{"name":"C#5","midi":73,"time":138.77499999999884,"velocity":0.8346456692913385,"duration":0.24791666666666856},{"name":"A4","midi":69,"time":139.02499999999884,"velocity":0.8346456692913385,"duration":0.5},{"name":"F#5","midi":78,"time":139.02499999999884,"velocity":0.7401574803149606,"duration":0.24791666666666856},{"name":"F#2","midi":42,"time":139.02708333333217,"velocity":0.84251968503937,"duration":0.49791666666666856},{"name":"D#5","midi":75,"time":139.27499999999884,"velocity":0.8346456692913385,"duration":0.24791666666666856},{"name":"E5","midi":76,"time":139.52499999999884,"velocity":0.8346456692913385,"duration":2.0166666666666515},{"name":"G#4","midi":68,"time":139.52708333333217,"velocity":0.8346456692913385,"duration":0.24791666666666856},{"name":"C#3","midi":49,"time":139.52708333333217,"velocity":0.84251968503937,"duration":0.24583333333333712},{"name":"C#5","midi":73,"time":139.77499999999884,"velocity":0.8346456692913385,"duration":0.25},{"name":"D#3","midi":51,"time":139.77499999999884,"velocity":0.84251968503937,"duration":0.24791666666666856},{"name":"C#5","midi":73,"time":140.02499999999884,"velocity":0.8346456692913385,"duration":0.25},{"name":"E3","midi":52,"time":140.02499999999884,"velocity":0.84251968503937,"duration":0.25},{"name":"B4","midi":71,"time":140.27708333333217,"velocity":0.8346456692913385,"duration":0.25},{"name":"F#3","midi":54,"time":140.27708333333217,"velocity":0.84251968503937,"duration":0.25},{"name":"B4","midi":71,"time":140.5291666666655,"velocity":0.8346456692913385,"duration":0.25},{"name":"G3","midi":55,"time":140.5291666666655,"velocity":0.84251968503937,"duration":0.25},{"name":"A#4","midi":70,"time":140.78124999999883,"velocity":0.8346456692913385,"duration":0.25208333333333144},{"name":"E3","midi":52,"time":140.78124999999883,"velocity":0.84251968503937,"duration":0.25208333333333144},{"name":"A#4","midi":70,"time":141.0354166666655,"velocity":0.8346456692913385,"duration":0.25},{"name":"F#3","midi":54,"time":141.0354166666655,"velocity":0.84251968503937,"duration":0.25},{"name":"B4","midi":71,"time":141.28749999999883,"velocity":0.8346456692913385,"duration":0.25208333333333144},{"name":"F#2","midi":42,"time":141.28749999999883,"velocity":0.84251968503937,"duration":0.25208333333333144},{"name":"D#5","midi":75,"time":141.5416666666655,"velocity":0.8346456692913385,"duration":0.25},{"name":"B4","midi":71,"time":141.54374999999882,"velocity":0.8346456692913385,"duration":0.24583333333333712},{"name":"B2","midi":47,"time":141.54374999999882,"velocity":0.84251968503937,"duration":0.24583333333333712},{"name":"F5","midi":77,"time":141.7916666666655,"velocity":0.7401574803149606,"duration":0.24791666666666856},{"name":"A4","midi":69,"time":141.79374999999882,"velocity":0.8346456692913385,"duration":0.24375000000000568},{"name":"C#3","midi":49,"time":141.79374999999882,"velocity":0.84251968503937,"duration":0.24375000000000568},{"name":"F#5","midi":78,"time":142.03958333333216,"velocity":0.7401574803149606,"duration":0.9979166666666686},{"name":"A4","midi":69,"time":142.0416666666655,"velocity":0.8346456692913385,"duration":0.24791666666666856},{"name":"D3","midi":50,"time":142.0416666666655,"velocity":0.84251968503937,"duration":0.24791666666666856},{"name":"G#4","midi":68,"time":142.2916666666655,"velocity":0.8346456692913385,"duration":0.25},{"name":"B2","midi":47,"time":142.2916666666655,"velocity":0.84251968503937,"duration":0.25},{"name":"G#4","midi":68,"time":142.54374999999882,"velocity":0.8346456692913385,"duration":1.2291666666666856},{"name":"C#3","midi":49,"time":142.54374999999882,"velocity":0.84251968503937,"duration":0.24583333333333712},{"name":"C#2","midi":37,"time":142.78958333333216,"velocity":0.84251968503937,"duration":0.24583333333333712},{"name":"F5","midi":77,"time":143.03749999999883,"velocity":0.7401574803149606,"duration":0.24375000000000568},{"name":"C#3","midi":49,"time":143.03749999999883,"velocity":0.84251968503937,"duration":0.24166666666667425},{"name":"D#5","midi":75,"time":143.28124999999883,"velocity":0.8346456692913385,"duration":0.24375000000000568},{"name":"C3","midi":48,"time":143.28124999999883,"velocity":0.84251968503937,"duration":0.24375000000000568},{"name":"F5","midi":77,"time":143.52499999999884,"velocity":0.7401574803149606,"duration":0.24791666666666856},{"name":"C#3","midi":49,"time":143.52708333333217,"velocity":0.84251968503937,"duration":0.24583333333333712},{"name":"A#4","midi":70,"time":143.77499999999884,"velocity":0.8346456692913385,"duration":0.24166666666667425},{"name":"G5","midi":79,"time":143.77499999999884,"velocity":0.7401574803149606,"duration":0.24375000000000568},{"name":"E3","midi":52,"time":143.77499999999884,"velocity":0.84251968503937,"duration":0.24166666666667425},{"name":"G#5","midi":80,"time":144.01874999999885,"velocity":0.7401574803149606,"duration":0.7395833333333428},{"name":"C5","midi":72,"time":144.02083333333218,"velocity":0.8346456692913385,"duration":0.24375000000000568},{"name":"D#3","midi":51,"time":144.02083333333218,"velocity":0.84251968503937,"duration":0.24375000000000568},{"name":"C#5","midi":73,"time":144.26666666666551,"velocity":0.8346456692913385,"duration":0.24375000000000568},{"name":"C#3","midi":49,"time":144.26666666666551,"velocity":0.84251968503937,"duration":0.24375000000000568},{"name":"D#5","midi":75,"time":144.51249999999885,"velocity":0.8346456692913385,"duration":0.4937500000000057},{"name":"C3","midi":48,"time":144.51249999999885,"velocity":0.84251968503937,"duration":0.24583333333333712},{"name":"F#5","midi":78,"time":144.76041666666552,"velocity":0.7401574803149606,"duration":0.24375000000000568},{"name":"G#2","midi":44,"time":144.76041666666552,"velocity":0.84251968503937,"duration":0.24375000000000568},{"name":"E5","midi":76,"time":145.00624999999886,"velocity":0.8346456692913385,"duration":0.24166666666667425},{"name":"G#4","midi":68,"time":145.0083333333322,"velocity":0.8346456692913385,"duration":0.4833333333333485},{"name":"C#3","midi":49,"time":145.0083333333322,"velocity":0.84251968503937,"duration":0.23750000000001137},{"name":"G#5","midi":80,"time":145.24791666666553,"velocity":0.7401574803149606,"duration":0.24375000000000568},{"name":"E3","midi":52,"time":145.24999999999886,"velocity":0.84251968503937,"duration":0.2395833333333428},{"name":"C#5","midi":73,"time":145.49374999999887,"velocity":0.8346456692913385,"duration":0.9875000000000114},{"name":"F#5","midi":78,"time":145.49374999999887,"velocity":0.7401574803149606,"duration":0.24375000000000568},{"name":"A3","midi":57,"time":145.4958333333322,"velocity":0.84251968503937,"duration":0.2395833333333428},{"name":"E5","midi":76,"time":145.73749999999887,"velocity":0.8346456692913385,"duration":0.24791666666666856},{"name":"F#3","midi":54,"time":145.7395833333322,"velocity":0.84251968503937,"duration":0.24375000000000568},{"name":"D#5","midi":75,"time":145.98541666666554,"velocity":0.8346456692913385,"duration":0.9895833333333428},{"name":"G#3","midi":56,"time":145.98749999999887,"velocity":0.84251968503937,"duration":0.24375000000000568},{"name":"F#3","midi":54,"time":146.2333333333322,"velocity":0.84251968503937,"duration":0.24583333333333712},{"name":"C5","midi":72,"time":146.48124999999888,"velocity":0.8346456692913385,"duration":0.49166666666667425},{"name":"G#3","midi":56,"time":146.4833333333322,"velocity":0.84251968503937,"duration":0.24166666666667425},{"name":"G#2","midi":44,"time":146.72708333333222,"velocity":0.84251968503937,"duration":0.24583333333333712},{"name":"C#5","midi":73,"time":146.9749999999989,"velocity":0.8346456692913385,"duration":0.7354166666666799},{"name":"C#3","midi":49,"time":146.9749999999989,"velocity":0.84251968503937,"duration":0.4895833333333428},{"name":"E5","midi":76,"time":147.2187499999989,"velocity":0.8346456692913385,"duration":0.24583333333333712},{"name":"F#5","midi":78,"time":147.46666666666556,"velocity":0.7401574803149606,"duration":0.24375000000000568},{"name":"G#5","midi":80,"time":147.7124999999989,"velocity":0.7401574803149606,"duration":0.24583333333333712},{"name":"B4","midi":71,"time":147.7124999999989,"velocity":0.8346456692913385,"duration":0.24375000000000568},{"name":"A5","midi":81,"time":147.95833333333223,"velocity":0.7401574803149606,"duration":0.7375000000000114},{"name":"C#5","midi":73,"time":147.95833333333223,"velocity":0.8346456692913385,"duration":0.24375000000000568},{"name":"D#5","midi":75,"time":148.20416666666557,"velocity":0.8346456692913385,"duration":0.24583333333333712},{"name":"E5","midi":76,"time":148.4499999999989,"velocity":0.8346456692913385,"duration":0.7354166666666799},{"name":"F#5","midi":78,"time":148.69583333333225,"velocity":0.7401574803149606,"duration":0.24375000000000568},{"name":"G#5","midi":80,"time":148.93958333333225,"velocity":0.7401574803149606,"duration":0.24583333333333712},{"name":"A#5","midi":82,"time":149.18749999999892,"velocity":0.7401574803149606,"duration":0.24375000000000568},{"name":"C#5","midi":73,"time":149.18749999999892,"velocity":0.8346456692913385,"duration":0.24375000000000568},{"name":"B5","midi":83,"time":149.43333333333226,"velocity":0.7401574803149606,"duration":0.7416666666666742},{"name":"D#5","midi":75,"time":149.43333333333226,"velocity":0.8346456692913385,"duration":0.24583333333333712},{"name":"F5","midi":77,"time":149.6791666666656,"velocity":0.7401574803149606,"duration":0.24583333333333712},{"name":"F#5","midi":78,"time":149.92499999999893,"velocity":0.7401574803149606,"duration":0.5},{"name":"A5","midi":81,"time":150.17499999999893,"velocity":0.7401574803149606,"duration":0.25},{"name":"A5","midi":81,"time":150.42708333333226,"velocity":0.7401574803149606,"duration":0.24791666666666856},{"name":"F#4","midi":66,"time":150.42708333333226,"velocity":0.84251968503937,"duration":0.5},{"name":"F#3","midi":54,"time":150.4291666666656,"velocity":0.84251968503937,"duration":0.4958333333333371},{"name":"G#5","midi":80,"time":150.67499999999893,"velocity":0.7401574803149606,"duration":0.25},{"name":"G#5","midi":80,"time":150.92708333333226,"velocity":0.7401574803149606,"duration":0.24791666666666856},{"name":"G#3","midi":56,"time":150.9291666666656,"velocity":0.84251968503937,"duration":0.4958333333333371},{"name":"F4","midi":65,"time":150.9291666666656,"velocity":0.84251968503937,"duration":0.4958333333333371},{"name":"F#5","midi":78,"time":151.17499999999893,"velocity":0.7401574803149606,"duration":0.24791666666666856},{"name":"F#5","midi":78,"time":151.42499999999893,"velocity":0.7401574803149606,"duration":0.24791666666666856},{"name":"A3","midi":57,"time":151.42708333333226,"velocity":0.84251968503937,"duration":1.981250000000017},{"name":"F#4","midi":66,"time":151.42708333333226,"velocity":0.84251968503937,"duration":0.24583333333333712},{"name":"A5","midi":81,"time":151.67499999999893,"velocity":0.7401574803149606,"duration":0.12083333333333712},{"name":"C#4","midi":61,"time":151.67499999999893,"velocity":0.84251968503937,"duration":0.24583333333333712},{"name":"G#5","midi":80,"time":151.79583333333227,"velocity":0.7401574803149606,"duration":0.12291666666666856},{"name":"F#5","midi":78,"time":151.92083333333227,"velocity":0.7401574803149606,"duration":0.24791666666666856},{"name":"F#4","midi":66,"time":151.9229166666656,"velocity":0.84251968503937,"duration":0.24375000000000568},{"name":"E5","midi":76,"time":152.16874999999894,"velocity":0.8346456692913385,"duration":0.24791666666666856},{"name":"G#4","midi":68,"time":152.17083333333227,"velocity":0.8346456692913385,"duration":0.24375000000000568},{"name":"E5","midi":76,"time":152.4166666666656,"velocity":0.8346456692913385,"duration":0.24791666666666856},{"name":"A4","midi":69,"time":152.41874999999894,"velocity":0.8346456692913385,"duration":0.24583333333333712},{"name":"D#5","midi":75,"time":152.66458333333227,"velocity":0.8346456692913385,"duration":0.24791666666666856},{"name":"F#4","midi":66,"time":152.6666666666656,"velocity":0.84251968503937,"duration":0.24583333333333712},{"name":"A4","midi":69,"time":152.91458333333227,"velocity":0.8346456692913385,"duration":0.7458333333333371},{"name":"D#5","midi":75,"time":152.91458333333227,"velocity":0.8346456692913385,"duration":0.24583333333333712},{"name":"E5","midi":76,"time":153.1604166666656,"velocity":0.8346456692913385,"duration":0.24791666666666856},{"name":"E5","midi":76,"time":153.4104166666656,"velocity":0.8346456692913385,"duration":0.24791666666666856},{"name":"G#3","midi":56,"time":153.4104166666656,"velocity":0.84251968503937,"duration":0.24791666666666856},{"name":"D5","midi":74,"time":153.6604166666656,"velocity":0.8346456692913385,"duration":0.25},{"name":"F#4","midi":66,"time":153.66249999999894,"velocity":0.84251968503937,"duration":0.24583333333333712},{"name":"A#3","midi":58,"time":153.66249999999894,"velocity":0.84251968503937,"duration":0.24583333333333712},{"name":"D5","midi":74,"time":153.9104166666656,"velocity":0.8346456692913385,"duration":0.24583333333333712},{"name":"G#4","midi":68,"time":153.91249999999894,"velocity":0.8346456692913385,"duration":0.24375000000000568},{"name":"B3","midi":59,"time":153.91249999999894,"velocity":0.84251968503937,"duration":0.9833333333333485},{"name":"C#5","midi":73,"time":154.15833333333228,"velocity":0.8346456692913385,"duration":0.24375000000000568},{"name":"A4","midi":69,"time":154.15833333333228,"velocity":0.8346456692913385,"duration":0.24375000000000568},{"name":"C#5","midi":73,"time":154.40416666666562,"velocity":0.8346456692913385,"duration":1.2250000000000227},{"name":"F4","midi":65,"time":154.40416666666562,"velocity":0.84251968503937,"duration":0.24583333333333712},{"name":"C#4","midi":61,"time":154.64999999999895,"velocity":0.84251968503937,"duration":0.24375000000000568},{"name":"A#3","midi":58,"time":154.8958333333323,"velocity":0.84251968503937,"duration":0.24375000000000568},{"name":"F#4","midi":66,"time":154.89791666666562,"velocity":0.84251968503937,"duration":0.4895833333333428},{"name":"G#3","midi":56,"time":155.14166666666563,"velocity":0.84251968503937,"duration":0.24375000000000568},{"name":"C#4","midi":61,"time":155.38749999999897,"velocity":0.84251968503937,"duration":0.7270833333333542},{"name":"A#3","midi":58,"time":155.3895833333323,"velocity":0.84251968503937,"duration":0.23750000000001137},{"name":"D#5","midi":75,"time":155.62916666666564,"velocity":0.8346456692913385,"duration":0.24166666666667425},{"name":"C4","midi":60,"time":155.63124999999897,"velocity":0.84251968503937,"duration":0.2395833333333428},{"name":"F5","midi":77,"time":155.87291666666565,"velocity":0.7401574803149606,"duration":0.24166666666667425},{"name":"C#4","midi":61,"time":155.87291666666565,"velocity":0.84251968503937,"duration":0.7291666666666856},{"name":"F#5","midi":78,"time":156.11666666666565,"velocity":0.7401574803149606,"duration":0.2395833333333428},{"name":"D#4","midi":63,"time":156.11666666666565,"velocity":0.84251968503937,"duration":0.2395833333333428},{"name":"G#5","midi":80,"time":156.35833333333233,"velocity":0.7401574803149606,"duration":0.49166666666667425},{"name":"F4","midi":65,"time":156.35833333333233,"velocity":0.84251968503937,"duration":0.49166666666667425},{"name":"B3","midi":59,"time":156.60208333333233,"velocity":0.84251968503937,"duration":0.24583333333333712},{"name":"C#5","midi":73,"time":156.849999999999,"velocity":0.8346456692913385,"duration":0.4895833333333428},{"name":"A3","midi":57,"time":156.85208333333233,"velocity":0.84251968503937,"duration":0.2395833333333428},{"name":"F#4","midi":66,"time":156.85208333333233,"velocity":0.84251968503937,"duration":0.24166666666667425},{"name":"C#4","midi":61,"time":157.093749999999,"velocity":0.84251968503937,"duration":0.24583333333333712},{"name":"E4","midi":64,"time":157.09583333333234,"velocity":0.84251968503937,"duration":0.24375000000000568},{"name":"F#5","midi":78,"time":157.34166666666567,"velocity":0.7401574803149606,"duration":0.9833333333333485},{"name":"D4","midi":62,"time":157.34166666666567,"velocity":0.84251968503937,"duration":0.24791666666666856},{"name":"B3","midi":59,"time":157.343749999999,"velocity":0.84251968503937,"duration":0.24583333333333712},{"name":"A3","midi":57,"time":157.58958333333234,"velocity":0.84251968503937,"duration":0.24791666666666856},{"name":"C#4","midi":61,"time":157.59166666666567,"velocity":0.84251968503937,"duration":0.24583333333333712},{"name":"B3","midi":59,"time":157.83958333333234,"velocity":0.84251968503937,"duration":0.9729166666666913},{"name":"G#3","midi":56,"time":157.83958333333234,"velocity":0.84251968503937,"duration":0.9729166666666913},{"name":"F5","midi":77,"time":158.32499999999902,"velocity":0.7401574803149606,"duration":0.48541666666667993},{"name":"F#5","midi":78,"time":158.81249999999903,"velocity":0.7401574803149606,"duration":0.24791666666666856},{"name":"A3","midi":57,"time":158.81458333333237,"velocity":0.84251968503937,"duration":0.24375000000000568},{"name":"F#3","midi":54,"time":158.8166666666657,"velocity":0.84251968503937,"duration":0.49166666666667425},{"name":"E5","midi":76,"time":159.0604166666657,"velocity":0.8346456692913385,"duration":0.24791666666666856},{"name":"C#4","midi":61,"time":159.06249999999903,"velocity":0.84251968503937,"duration":0.24375000000000568},{"name":"D5","midi":74,"time":159.3104166666657,"velocity":0.8346456692913385,"duration":0.24375000000000568},{"name":"F#4","midi":66,"time":159.3104166666657,"velocity":0.84251968503937,"duration":2.662500000000051},{"name":"A3","midi":57,"time":159.31249999999903,"velocity":0.84251968503937,"duration":1.4750000000000227},{"name":"F#3","midi":54,"time":159.31249999999903,"velocity":0.84251968503937,"duration":0.49166666666667425},{"name":"C#5","midi":73,"time":159.55624999999904,"velocity":0.8346456692913385,"duration":0.24583333333333712},{"name":"C#5","midi":73,"time":159.8041666666657,"velocity":0.8346456692913385,"duration":0.24583333333333712},{"name":"E3","midi":52,"time":159.80624999999904,"velocity":0.84251968503937,"duration":0.4937500000000057},{"name":"B4","midi":71,"time":160.05208333333238,"velocity":0.8346456692913385,"duration":0.24791666666666856},{"name":"B4","midi":71,"time":160.29999999999905,"velocity":0.8346456692913385,"duration":0.24375000000000568},{"name":"D#3","midi":51,"time":160.30208333333238,"velocity":0.84251968503937,"duration":1.933333333333394},{"name":"F#5","midi":78,"time":160.54374999999905,"velocity":0.7401574803149606,"duration":0.24375000000000568},{"name":"B4","midi":71,"time":160.7895833333324,"velocity":0.8346456692913385,"duration":0.24166666666667425},{"name":"F#3","midi":54,"time":160.7895833333324,"velocity":0.84251968503937,"duration":0.48541666666667993},{"name":"A4","midi":69,"time":161.03124999999906,"velocity":0.8346456692913385,"duration":0.24166666666667425},{"name":"A4","midi":69,"time":161.27499999999907,"velocity":0.8346456692913385,"duration":0.23750000000001137},{"name":"B3","midi":59,"time":161.27499999999907,"velocity":0.84251968503937,"duration":1.452083333333377},{"name":"G#4","midi":68,"time":161.5145833333324,"velocity":0.8346456692913385,"duration":0.23750000000001137},{"name":"G#4","midi":68,"time":161.75416666666575,"velocity":0.8346456692913385,"duration":0.731250000000017},{"name":"F#4","midi":66,"time":161.9937499999991,"velocity":0.84251968503937,"duration":0.24166666666667425},{"name":"E4","midi":64,"time":162.2374999999991,"velocity":0.84251968503937,"duration":0.9708333333333599},{"name":"E3","midi":52,"time":162.2374999999991,"velocity":0.84251968503937,"duration":0.24583333333333712},{"name":"B4","midi":71,"time":162.48541666666577,"velocity":0.8346456692913385,"duration":0.2395833333333428},{"name":"D3","midi":50,"time":162.48541666666577,"velocity":0.84251968503937,"duration":0.2395833333333428},{"name":"A4","midi":69,"time":162.72708333333244,"velocity":0.8346456692913385,"duration":0.24166666666667425},{"name":"C#3","midi":49,"time":162.72916666666578,"velocity":0.84251968503937,"duration":0.9541666666666799},{"name":"C#4","midi":61,"time":162.72916666666578,"velocity":0.84251968503937,"duration":0.2395833333333428},{"name":"G#4","midi":68,"time":162.97083333333245,"velocity":0.8346456692913385,"duration":0.23541666666667993},{"name":"B3","midi":59,"time":162.97083333333245,"velocity":0.84251968503937,"duration":0.23541666666667993},{"name":"F#4","midi":66,"time":163.20833333333246,"velocity":0.84251968503937,"duration":0.23750000000001137},{"name":"A3","midi":57,"time":163.2104166666658,"velocity":0.84251968503937,"duration":0.9479166666666288},{"name":"D4","midi":62,"time":163.2104166666658,"velocity":0.84251968503937,"duration":0.7104166666666458},{"name":"F4","midi":65,"time":163.4479166666658,"velocity":0.84251968503937,"duration":0.23333333333332007},{"name":"F#4","midi":66,"time":163.68333333333246,"velocity":0.84251968503937,"duration":0.2354166666666515},{"name":"D3","midi":50,"time":163.6854166666658,"velocity":0.84251968503937,"duration":0.23333333333332007},{"name":"A4","midi":69,"time":163.92083333333244,"velocity":0.8346456692913385,"duration":0.23749999999998295},{"name":"E3","midi":52,"time":163.92291666666577,"velocity":0.84251968503937,"duration":0.23333333333332007},{"name":"F#4","midi":66,"time":163.92291666666577,"velocity":0.84251968503937,"duration":0.23333333333332007},{"name":"B4","midi":71,"time":164.16041666666575,"velocity":0.8346456692913385,"duration":0.23749999999998295},{"name":"G#4","midi":68,"time":164.16041666666575,"velocity":0.8346456692913385,"duration":0.23749999999998295},{"name":"D3","midi":50,"time":164.16249999999908,"velocity":0.84251968503937,"duration":0.23333333333332007},{"name":"A#4","midi":70,"time":164.39999999999907,"velocity":0.8346456692913385,"duration":0.2395833333333428},{"name":"C#5","midi":73,"time":164.39999999999907,"velocity":0.8346456692913385,"duration":0.2395833333333428},{"name":"C#3","midi":49,"time":164.39999999999907,"velocity":0.84251968503937,"duration":0.23750000000001137},{"name":"D5","midi":74,"time":164.64166666666574,"velocity":0.8346456692913385,"duration":1.6875},{"name":"B4","midi":71,"time":164.64166666666574,"velocity":0.8346456692913385,"duration":0.2395833333333428},{"name":"B2","midi":47,"time":164.64374999999907,"velocity":0.84251968503937,"duration":0.7270833333333542},{"name":"A4","midi":69,"time":164.88333333333242,"velocity":0.8346456692913385,"duration":0.24166666666667425},{"name":"F#3","midi":54,"time":164.88333333333242,"velocity":0.84251968503937,"duration":0.24166666666667425},{"name":"G#4","midi":68,"time":165.1249999999991,"velocity":0.8346456692913385,"duration":0.24583333333333712},{"name":"B3","midi":59,"time":165.12708333333242,"velocity":0.84251968503937,"duration":0.7270833333333542},{"name":"F#4","midi":66,"time":165.37291666666576,"velocity":0.84251968503937,"duration":0.2395833333333428},{"name":"C#3","midi":49,"time":165.37291666666576,"velocity":0.84251968503937,"duration":0.2395833333333428},{"name":"D3","midi":50,"time":165.61458333333243,"velocity":0.84251968503937,"duration":0.23750000000001137},{"name":"F4","midi":65,"time":165.61458333333243,"velocity":0.84251968503937,"duration":0.23750000000001137},{"name":"F#4","midi":66,"time":165.85416666666578,"velocity":0.84251968503937,"duration":0.23749999999998295},{"name":"A3","midi":57,"time":165.8562499999991,"velocity":0.84251968503937,"duration":0.2354166666666515},{"name":"B2","midi":47,"time":165.8562499999991,"velocity":0.84251968503937,"duration":0.23333333333332007},{"name":"C#3","midi":49,"time":166.0937499999991,"velocity":0.84251968503937,"duration":0.2354166666666515},{"name":"F4","midi":65,"time":166.0937499999991,"velocity":0.84251968503937,"duration":0.23333333333332007},{"name":"G#3","midi":56,"time":166.09583333333242,"velocity":0.84251968503937,"duration":0.7145833333333371},{"name":"G#4","midi":68,"time":166.33124999999907,"velocity":0.8346456692913385,"duration":0.2395833333333428},{"name":"F#4","midi":66,"time":166.33124999999907,"velocity":0.84251968503937,"duration":0.23750000000001137},{"name":"D#3","midi":51,"time":166.3333333333324,"velocity":0.84251968503937,"duration":0.23541666666667993},{"name":"G#4","midi":68,"time":166.57083333333242,"velocity":0.8346456692913385,"duration":1.1833333333333655},{"name":"C#5","midi":73,"time":166.57291666666575,"velocity":0.8346456692913385,"duration":0.23750000000001137},{"name":"F3","midi":53,"time":166.57291666666575,"velocity":0.84251968503937,"duration":0.966666666666697},{"name":"B4","midi":71,"time":166.8124999999991,"velocity":0.8346456692913385,"duration":0.2395833333333428},{"name":"G#3","midi":56,"time":166.8124999999991,"velocity":0.84251968503937,"duration":0.2395833333333428},{"name":"B4","midi":71,"time":167.05416666666576,"velocity":0.8346456692913385,"duration":0.24166666666667425},{"name":"C#4","midi":61,"time":167.05416666666576,"velocity":0.84251968503937,"duration":0.7208333333333599},{"name":"A4","midi":69,"time":167.29583333333244,"velocity":0.8346456692913385,"duration":0.24375000000000568},{"name":"A4","midi":69,"time":167.54166666666578,"velocity":0.8346456692913385,"duration":1.6583333333333599},{"name":"F#3","midi":54,"time":167.54166666666578,"velocity":0.84251968503937,"duration":1.6583333333333599},{"name":"G#4","midi":68,"time":167.77499999999912,"velocity":0.8346456692913385,"duration":0.23750000000001137},{"name":"E4","midi":64,"time":167.77499999999912,"velocity":0.84251968503937,"duration":0.23541666666667993},{"name":"D#4","midi":63,"time":168.01249999999914,"velocity":0.84251968503937,"duration":0.2354166666666515},{"name":"F#4","midi":66,"time":168.01458333333247,"velocity":0.84251968503937,"duration":0.23333333333332007},{"name":"C#4","midi":61,"time":168.24999999999912,"velocity":0.84251968503937,"duration":0.23541666666667993},{"name":"E4","midi":64,"time":168.24999999999912,"velocity":0.84251968503937,"duration":0.23541666666667993},{"name":"E4","midi":64,"time":168.48749999999913,"velocity":0.84251968503937,"duration":0.23541666666667993},{"name":"C#4","midi":61,"time":168.48749999999913,"velocity":0.84251968503937,"duration":0.23750000000001137},{"name":"B3","midi":59,"time":168.72499999999914,"velocity":0.84251968503937,"duration":0.2395833333333428},{"name":"D#4","midi":63,"time":168.72499999999914,"velocity":0.84251968503937,"duration":0.23750000000001137},{"name":"D#4","midi":63,"time":168.96458333333248,"velocity":0.84251968503937,"duration":1.6229166666666117},{"name":"B3","midi":59,"time":168.96666666666582,"velocity":0.84251968503937,"duration":1.4062499999999432},{"name":"C#5","midi":73,"time":169.19999999999914,"velocity":0.8346456692913385,"duration":0.23333333333332007},{"name":"A3","midi":57,"time":169.20208333333247,"velocity":0.84251968503937,"duration":0.23124999999998863},{"name":"B4","midi":71,"time":169.4354166666658,"velocity":0.8346456692913385,"duration":0.23333333333332007},{"name":"G#3","midi":56,"time":169.4354166666658,"velocity":0.84251968503937,"duration":0.23124999999998863},{"name":"A4","midi":69,"time":169.6687499999991,"velocity":0.8346456692913385,"duration":0.23333333333332007},{"name":"F#3","midi":54,"time":169.67083333333244,"velocity":0.84251968503937,"duration":0.2291666666666572},{"name":"A4","midi":69,"time":169.90208333333243,"velocity":0.8346456692913385,"duration":0.23124999999998863},{"name":"F#3","midi":54,"time":169.90416666666576,"velocity":0.84251968503937,"duration":0.2291666666666572},{"name":"G#4","midi":68,"time":170.13541666666575,"velocity":0.8346456692913385,"duration":0.23750000000001137},{"name":"E3","midi":52,"time":170.13541666666575,"velocity":0.84251968503937,"duration":0.23541666666667993},{"name":"G#4","midi":68,"time":170.3749999999991,"velocity":0.8346456692913385,"duration":1.6479166666666174},{"name":"E3","midi":52,"time":170.3749999999991,"velocity":0.84251968503937,"duration":1.645833333333286},{"name":"D4","midi":62,"time":170.6062499999991,"velocity":0.84251968503937,"duration":0.23750000000001137},{"name":"F#4","midi":66,"time":170.60833333333244,"velocity":0.84251968503937,"duration":0.23541666666667993},{"name":"E4","midi":64,"time":170.84583333333245,"velocity":0.84251968503937,"duration":0.23333333333332007},{"name":"C#4","midi":61,"time":170.84583333333245,"velocity":0.84251968503937,"duration":0.23333333333332007},{"name":"B3","midi":59,"time":171.0812499999991,"velocity":0.84251968503937,"duration":0.2354166666666515},{"name":"D4","midi":62,"time":171.0812499999991,"velocity":0.84251968503937,"duration":0.23333333333332007},{"name":"B3","midi":59,"time":171.31666666666575,"velocity":0.84251968503937,"duration":0.2354166666666515},{"name":"D4","midi":62,"time":171.31874999999908,"velocity":0.84251968503937,"duration":0.23124999999998863},{"name":"A3","midi":57,"time":171.5520833333324,"velocity":0.84251968503937,"duration":0.2354166666666515},{"name":"C#4","midi":61,"time":171.55416666666574,"velocity":0.84251968503937,"duration":0.23333333333332007},{"name":"C#4","midi":61,"time":171.7895833333324,"velocity":0.84251968503937,"duration":1.8874999999999602},{"name":"A3","midi":57,"time":171.7895833333324,"velocity":0.84251968503937,"duration":1.8874999999999602},{"name":"B4","midi":71,"time":172.0229166666657,"velocity":0.8346456692913385,"duration":0.23124999999998863},{"name":"G#3","midi":56,"time":172.02499999999904,"velocity":0.84251968503937,"duration":0.22708333333332575},{"name":"A4","midi":69,"time":172.25624999999903,"velocity":0.8346456692913385,"duration":0.2291666666666572},{"name":"F#3","midi":54,"time":172.25624999999903,"velocity":0.84251968503937,"duration":0.2291666666666572},{"name":"G4","midi":67,"time":172.48749999999902,"velocity":0.84251968503937,"duration":0.23124999999998863},{"name":"E3","midi":52,"time":172.48958333333235,"velocity":0.84251968503937,"duration":0.2291666666666572},{"name":"G4","midi":67,"time":172.72083333333234,"velocity":0.84251968503937,"duration":0.23333333333332007},{"name":"E3","midi":52,"time":172.72083333333234,"velocity":0.84251968503937,"duration":0.23333333333332007},{"name":"D3","midi":50,"time":172.956249999999,"velocity":0.84251968503937,"duration":0.23541666666667993},{"name":"F#4","midi":66,"time":172.956249999999,"velocity":0.84251968503937,"duration":0.23750000000001137},{"name":"F#4","midi":66,"time":173.193749999999,"velocity":0.84251968503937,"duration":0.24166666666667425},{"name":"D3","midi":50,"time":173.19583333333233,"velocity":0.84251968503937,"duration":1.4250000000000114},{"name":"F4","midi":65,"time":173.437499999999,"velocity":0.84251968503937,"duration":0.23750000000001137},{"name":"B3","midi":59,"time":173.67916666666568,"velocity":0.84251968503937,"duration":0.9416666666666629},{"name":"F#4","midi":66,"time":173.67916666666568,"velocity":0.84251968503937,"duration":0.47083333333335986},{"name":"A3","midi":57,"time":173.91458333333236,"velocity":0.84251968503937,"duration":0.23541666666667993},{"name":"G#4","midi":68,"time":174.15208333333237,"velocity":0.8346456692913385,"duration":0.46666666666664014},{"name":"G#3","midi":56,"time":174.15208333333237,"velocity":0.84251968503937,"duration":0.23124999999998863},{"name":"F#3","midi":54,"time":174.3854166666657,"velocity":0.84251968503937,"duration":0.23333333333332007},{"name":"A4","midi":69,"time":174.62291666666567,"velocity":0.8346456692913385,"duration":1.9041666666666686},{"name":"C#3","midi":49,"time":174.62291666666567,"velocity":0.84251968503937,"duration":4.506249999999909},{"name":"F3","midi":53,"time":174.624999999999,"velocity":0.84251968503937,"duration":0.22499999999999432},{"name":"G#4","midi":68,"time":174.849999999999,"velocity":0.8346456692913385,"duration":0.2354166666666515},{"name":"B3","midi":59,"time":174.85208333333233,"velocity":0.84251968503937,"duration":0.23124999999998863},{"name":"A3","midi":57,"time":175.08541666666565,"velocity":0.84251968503937,"duration":0.23333333333332007},{"name":"F#4","midi":66,"time":175.08749999999898,"velocity":0.84251968503937,"duration":0.23124999999998863},{"name":"E4","midi":64,"time":175.3208333333323,"velocity":0.84251968503937,"duration":0.23541666666667993},{"name":"G#3","midi":56,"time":175.3208333333323,"velocity":0.84251968503937,"duration":0.23541666666667993},{"name":"G#3","midi":56,"time":175.5583333333323,"velocity":0.84251968503937,"duration":0.2395833333333428},{"name":"E4","midi":64,"time":175.5583333333323,"velocity":0.84251968503937,"duration":0.23750000000001137},{"name":"F#3","midi":54,"time":175.79791666666566,"velocity":0.84251968503937,"duration":0.24375000000000568},{"name":"D#4","midi":63,"time":175.799999999999,"velocity":0.84251968503937,"duration":0.2395833333333428},{"name":"D#4","midi":63,"time":176.04166666666566,"velocity":0.84251968503937,"duration":0.24166666666667425},{"name":"F#3","midi":54,"time":176.043749999999,"velocity":0.84251968503937,"duration":0.23750000000001137},{"name":"G#3","midi":56,"time":176.28333333333234,"velocity":0.84251968503937,"duration":0.24375000000000568},{"name":"E4","midi":64,"time":176.28541666666567,"velocity":0.84251968503937,"duration":0.2395833333333428},{"name":"G#4","midi":68,"time":176.52916666666567,"velocity":0.8346456692913385,"duration":0.24166666666667425},{"name":"E4","midi":64,"time":176.52916666666567,"velocity":0.84251968503937,"duration":0.2395833333333428},{"name":"G#3","midi":56,"time":176.531249999999,"velocity":0.84251968503937,"duration":0.23750000000001137},{"name":"A#4","midi":70,"time":176.77083333333235,"velocity":0.8346456692913385,"duration":0.23749999999998295},{"name":"F#3","midi":54,"time":176.77291666666568,"velocity":0.84251968503937,"duration":0.23333333333332007},{"name":"D4","midi":62,"time":176.77291666666568,"velocity":0.84251968503937,"duration":0.2354166666666515},{"name":"B4","midi":71,"time":177.00833333333233,"velocity":0.8346456692913385,"duration":0.9458333333333258},{"name":"D4","midi":62,"time":177.01041666666566,"velocity":0.84251968503937,"duration":0.23541666666667993},{"name":"F#3","midi":54,"time":177.01041666666566,"velocity":0.84251968503937,"duration":0.23541666666667993},{"name":"F3","midi":53,"time":177.24583333333234,"velocity":0.84251968503937,"duration":0.2354166666666515},{"name":"C#4","midi":61,"time":177.24791666666567,"velocity":0.84251968503937,"duration":0.23333333333332007},{"name":"F3","midi":53,"time":177.481249999999,"velocity":0.84251968503937,"duration":0.47083333333333144},{"name":"C#4","midi":61,"time":177.48333333333233,"velocity":0.84251968503937,"duration":1.172916666666623},{"name":"A#4","midi":70,"time":177.95416666666566,"velocity":0.8346456692913385,"duration":0.23124999999998863},{"name":"F#3","midi":54,"time":177.956249999999,"velocity":0.84251968503937,"duration":0.2291666666666572},{"name":"G#4","midi":68,"time":178.18749999999898,"velocity":0.8346456692913385,"duration":0.23124999999998863},{"name":"F3","midi":53,"time":178.18749999999898,"velocity":0.84251968503937,"duration":0.2291666666666572},{"name":"A#4","midi":70,"time":178.41874999999897,"velocity":0.8346456692913385,"duration":0.2354166666666515},{"name":"F#3","midi":54,"time":178.4208333333323,"velocity":0.84251968503937,"duration":0.47291666666663446},{"name":"C5","midi":72,"time":178.65624999999895,"velocity":0.8346456692913385,"duration":0.2354166666666515},{"name":"D#4","midi":63,"time":178.65833333333228,"velocity":0.84251968503937,"duration":0.23333333333332007},{"name":"C#5","midi":73,"time":178.89374999999893,"velocity":0.8346456692913385,"duration":0.7208333333333314},{"name":"G#3","midi":56,"time":178.89583333333226,"velocity":0.84251968503937,"duration":0.4749999999999943},{"name":"E4","midi":64,"time":178.89583333333226,"velocity":0.84251968503937,"duration":0.4749999999999943},{"name":"B2","midi":47,"time":179.12916666666558,"velocity":0.84251968503937,"duration":0.2395833333333428},{"name":"C#4","midi":61,"time":179.3729166666656,"velocity":0.84251968503937,"duration":0.9916666666666742},{"name":"F#4","midi":66,"time":179.3729166666656,"velocity":0.84251968503937,"duration":0.24166666666667425},{"name":"A2","midi":45,"time":179.37499999999892,"velocity":0.84251968503937,"duration":0.23750000000001137},{"name":"B4","midi":71,"time":179.6166666666656,"velocity":0.8346456692913385,"duration":0.24375000000000568},{"name":"E4","midi":64,"time":179.6166666666656,"velocity":0.84251968503937,"duration":0.24375000000000568},{"name":"G#2","midi":44,"time":179.61874999999893,"velocity":0.84251968503937,"duration":0.2395833333333428},{"name":"A4","midi":69,"time":179.86249999999893,"velocity":0.8346456692913385,"duration":0.24791666666666856},{"name":"F#4","midi":66,"time":179.86249999999893,"velocity":0.84251968503937,"duration":1.6791666666666742},{"name":"F#2","midi":42,"time":179.86458333333226,"velocity":0.84251968503937,"duration":0.24375000000000568},{"name":"C#5","midi":73,"time":180.1104166666656,"velocity":0.8346456692913385,"duration":0.23750000000001137},{"name":"A2","midi":45,"time":180.11249999999893,"velocity":0.84251968503937,"duration":0.25},{"name":"B4","midi":71,"time":180.36458333333226,"velocity":0.8346456692913385,"duration":0.2562499999999943},{"name":"D3","midi":50,"time":180.3666666666656,"velocity":0.84251968503937,"duration":0.27291666666667425},{"name":"A4","midi":69,"time":180.63958333333227,"velocity":0.8346456692913385,"duration":0.26458333333332007},{"name":"F#3","midi":54,"time":180.6416666666656,"velocity":0.84251968503937,"duration":0.28333333333333144},{"name":"B2","midi":47,"time":180.6416666666656,"velocity":0.84251968503937,"duration":0.28333333333333144},{"name":"G#4","midi":68,"time":180.92708333333226,"velocity":0.8346456692913385,"duration":1.3874999999999602},{"name":"C#4","midi":61,"time":180.92708333333226,"velocity":0.84251968503937,"duration":0.2750000000000057},{"name":"C#3","midi":49,"time":180.9291666666656,"velocity":0.84251968503937,"duration":0.6125000000000114},{"name":"B3","midi":59,"time":181.2229166666656,"velocity":0.84251968503937,"duration":0.3083333333333371},{"name":"F4","midi":65,"time":181.54374999999894,"velocity":0.84251968503937,"duration":0.7562499999999659},{"name":"B3","midi":59,"time":181.54374999999894,"velocity":0.84251968503937,"duration":0.35624999999998863},{"name":"C#2","midi":37,"time":181.54583333333227,"velocity":0.7952755905511811,"duration":0.7583333333332973},{"name":"A#3","midi":58,"time":181.90833333333225,"velocity":0.84251968503937,"duration":0.38749999999998863},{"name":"F#4","midi":66,"time":182.30416666666557,"velocity":0.7952755905511811,"duration":4.677083333333314},{"name":"A#3","midi":58,"time":182.30416666666557,"velocity":0.7559055118110236,"duration":4.677083333333314},{"name":"F#2","midi":42,"time":182.3062499999989,"velocity":0.7244094488188977,"duration":4.6729166666666515}],"controlChanges":{"7":[{"number":7,"time":0,"value":0.8267716535433071},{"number":7,"time":0,"value":0.8267716535433071},{"number":7,"time":0,"value":0.8267716535433071}],"10":[{"number":10,"time":0,"value":0.5039370078740157},{"number":10,"time":0,"value":0.3779527559055118},{"number":10,"time":0,"value":0.3779527559055118},{"number":10,"time":4.910416666666666,"value":0.5275590551181102},{"number":10,"time":4.95,"value":0.6220472440944882},{"number":10,"time":4.960416666666667,"value":0.47244094488188976},{"number":10,"time":5.025,"value":0.5905511811023622},{"number":10,"time":5.025,"value":0.5196850393700787},{"number":10,"time":5.027083333333334,"value":0.4566929133858268},{"number":10,"time":5.05,"value":0.4330708661417323},{"number":10,"time":5.10625,"value":0.5826771653543307},{"number":10,"time":5.108333333333333,"value":0.4645669291338583}],"64":[{"number":64,"time":191.11041666666554,"value":0},{"number":64,"time":191.11249999999887,"value":0},{"number":64,"time":191.1145833333322,"value":0},{"number":64,"time":191.1624999999989,"value":0},{"number":64,"time":191.16458333333222,"value":0},{"number":64,"time":191.16666666666555,"value":0}]},"id":0,"name":"--------","instrumentNumber":0,"instrument":"acoustic grand piano","instrumentFamily":"piano","channelNumber":0,"isPercussion":false}]}