{"header":{"PPQ":480,"timeSignature":[4,4],"bpm":200,"name":"Bach's 3rd English Suite: 5. Gavottes I & II"},"startTime":0,"duration":121.00812499999876,"tracks":[{"startTime":0,"duration":0,"length":0,"notes":[],"controlChanges":{},"id":0,"name":"Bach's 3rd English Suite: 5. Gavottes I & II"},{"startTime":0.600625,"duration":121.00812499999876,"length":1157,"notes":[{"name":"G2","midi":43,"time":0.600625,"velocity":0.7716535433070866,"duration":0.30625},{"name":"G5","midi":79,"time":0.6068749999999999,"velocity":0.7716535433070866,"duration":0.301875},{"name":"A#5","midi":82,"time":0.9025,"velocity":0.7795275590551181,"duration":0.155625},{"name":"D3","midi":50,"time":0.903125,"velocity":0.7795275590551181,"duration":0.28812499999999996},{"name":"A5","midi":81,"time":1.05125,"velocity":0.7795275590551181,"duration":0.16562500000000013},{"name":"G3","midi":55,"time":1.1975,"velocity":0.7874015748031497,"duration":0.3075000000000001},{"name":"A#5","midi":82,"time":1.205,"velocity":0.7874015748031497,"duration":0.3087500000000001},{"name":"A#3","midi":58,"time":1.4981250000000002,"velocity":0.7874015748031497,"duration":0.3118750000000001},{"name":"G5","midi":79,"time":1.5050000000000001,"velocity":0.7952755905511811,"duration":0.150625},{"name":"D5","midi":74,"time":1.65375,"velocity":0.7952755905511811,"duration":0.15437500000000015},{"name":"C4","midi":60,"time":1.8006250000000001,"velocity":0.7952755905511811,"duration":0.29062500000000036},{"name":"A5","midi":81,"time":1.8068750000000002,"velocity":0.7952755905511811,"duration":0.30000000000000027},{"name":"D4","midi":62,"time":2.0962500000000004,"velocity":0.8031496062992126,"duration":0.3106250000000004},{"name":"F#5","midi":78,"time":2.1025000000000005,"velocity":0.8031496062992126,"duration":0.14875000000000016},{"name":"D5","midi":74,"time":2.2493750000000006,"velocity":0.8110236220472441,"duration":0.1525000000000003},{"name":"G5","midi":79,"time":2.400000000000001,"velocity":0.8110236220472441,"duration":0.48500000000000076},{"name":"D#4","midi":63,"time":2.400000000000001,"velocity":0.8110236220472441,"duration":0.1575000000000002},{"name":"F4","midi":65,"time":2.553750000000001,"velocity":0.8031496062992126,"duration":0.15437500000000037},{"name":"D#4","midi":63,"time":2.704375000000001,"velocity":0.7716535433070866,"duration":0.14437500000000014},{"name":"D4","midi":62,"time":2.8525000000000014,"velocity":0.7401574803149606,"duration":0.15562500000000012},{"name":"C4","midi":60,"time":3.0037500000000015,"velocity":0.7007874015748031,"duration":0.15437500000000037},{"name":"D#5","midi":75,"time":3.0075000000000016,"velocity":0.7007874015748031,"duration":0.30374999999999996},{"name":"A#3","midi":58,"time":3.1525000000000016,"velocity":0.7007874015748031,"duration":0.1512500000000001},{"name":"A3","midi":57,"time":3.298750000000002,"velocity":0.6929133858267716,"duration":0.14062499999999956},{"name":"C5","midi":72,"time":3.303125000000002,"velocity":0.6929133858267716,"duration":0.15187499999999954},{"name":"C4","midi":60,"time":3.4468750000000012,"velocity":0.6929133858267716,"duration":0.15500000000000025},{"name":"A4","midi":69,"time":3.4531250000000013,"velocity":0.6929133858267716,"duration":0.15625},{"name":"A#3","midi":58,"time":3.5993750000000015,"velocity":0.6850393700787402,"duration":0.15937499999999982},{"name":"D5","midi":74,"time":3.6043750000000014,"velocity":0.6850393700787402,"duration":0.37812500000000027},{"name":"A3","midi":57,"time":3.7493750000000015,"velocity":0.6771653543307087,"duration":0.1468750000000001},{"name":"G3","midi":55,"time":3.8975000000000017,"velocity":0.6771653543307087,"duration":0.1537500000000005},{"name":"A#4","midi":70,"time":3.905625000000002,"velocity":0.6771653543307087,"duration":0.3031250000000001},{"name":"A#3","midi":58,"time":4.047500000000002,"velocity":0.6692913385826772,"duration":0.15312500000000018},{"name":"G4","midi":67,"time":4.055000000000002,"velocity":0.6692913385826772,"duration":0.15249999999999986},{"name":"A3","midi":57,"time":4.198750000000002,"velocity":0.6614173228346457,"duration":0.1506249999999998},{"name":"C5","midi":72,"time":4.205625000000002,"velocity":0.6614173228346457,"duration":0.15749999999999975},{"name":"G3","midi":55,"time":4.348125000000002,"velocity":0.6614173228346457,"duration":0.14687499999999964},{"name":"A4","midi":69,"time":4.353750000000002,"velocity":0.6614173228346457,"duration":0.15562500000000057},{"name":"F#3","midi":54,"time":4.495625000000002,"velocity":0.6535433070866141,"duration":0.15249999999999986},{"name":"D5","midi":74,"time":4.501875000000002,"velocity":0.6535433070866141,"duration":0.16562500000000036},{"name":"D3","midi":50,"time":4.645000000000002,"velocity":0.6456692913385826,"duration":0.14874999999999972},{"name":"G3","midi":55,"time":4.796250000000002,"velocity":0.6456692913385826,"duration":0.30374999999999996},{"name":"A#4","midi":70,"time":4.802500000000002,"velocity":0.6456692913385826,"duration":0.30125000000000046},{"name":"D3","midi":50,"time":5.096250000000002,"velocity":0.6299212598425197,"duration":0.16125000000000078},{"name":"A4","midi":69,"time":5.105000000000002,"velocity":0.6299212598425197,"duration":0.14125000000000032},{"name":"G4","midi":67,"time":5.253750000000003,"velocity":0.6299212598425197,"duration":0.14749999999999996},{"name":"A#2","midi":46,"time":5.399375000000003,"velocity":0.8267716535433071,"duration":0.30624999999999947},{"name":"G5","midi":79,"time":5.406250000000003,"velocity":0.8267716535433071,"duration":0.3012499999999996},{"name":"D3","midi":50,"time":5.700625000000002,"velocity":0.8267716535433071,"duration":0.28749999999999964},{"name":"A#5","midi":82,"time":5.705000000000002,"velocity":0.8267716535433071,"duration":0.1506249999999998},{"name":"A5","midi":81,"time":5.852500000000002,"velocity":0.8267716535433071,"duration":0.15749999999999975},{"name":"G3","midi":55,"time":5.996875000000002,"velocity":0.8267716535433071,"duration":0.30812499999999954},{"name":"A#5","midi":82,"time":6.003125000000002,"velocity":0.8267716535433071,"duration":0.3118749999999997},{"name":"A#3","midi":58,"time":6.297500000000001,"velocity":0.8267716535433071,"duration":0.30125000000000046},{"name":"G5","midi":79,"time":6.304375000000001,"velocity":0.8267716535433071,"duration":0.15062500000000068},{"name":"D5","midi":74,"time":6.4525000000000015,"velocity":0.8267716535433071,"duration":0.15812500000000007},{"name":"C4","midi":60,"time":6.595625000000002,"velocity":0.8267716535433071,"duration":0.3093750000000002},{"name":"A5","midi":81,"time":6.605000000000001,"velocity":0.8267716535433071,"duration":0.307500000000001},{"name":"D4","midi":62,"time":6.8987500000000015,"velocity":0.8267716535433071,"duration":0.3068749999999998},{"name":"F#5","midi":78,"time":6.902500000000002,"velocity":0.8267716535433071,"duration":0.15312500000000018},{"name":"D5","midi":74,"time":7.050625000000002,"velocity":0.8267716535433071,"duration":0.15499999999999936},{"name":"G5","midi":79,"time":7.200625000000001,"velocity":0.8267716535433071,"duration":0.5256249999999989},{"name":"D#4","midi":63,"time":7.201250000000002,"velocity":0.8267716535433071,"duration":0.14937499999999915},{"name":"F4","midi":65,"time":7.351875000000001,"velocity":0.8110236220472441,"duration":0.1512500000000001},{"name":"D#4","midi":63,"time":7.501875000000001,"velocity":0.7874015748031497,"duration":0.1481249999999994},{"name":"D4","midi":62,"time":7.651875,"velocity":0.7322834645669292,"duration":0.14499999999999957},{"name":"F5","midi":77,"time":7.656875,"velocity":0.7322834645669292,"duration":0.15687500000000032},{"name":"C4","midi":60,"time":7.799375,"velocity":0.7007874015748031,"duration":0.15062500000000068},{"name":"D#5","midi":75,"time":7.80625,"velocity":0.6929133858267716,"duration":0.15500000000000025},{"name":"A#3","midi":58,"time":7.948125000000001,"velocity":0.6614173228346457,"duration":0.14499999999999957},{"name":"D5","midi":74,"time":7.954375000000001,"velocity":0.6614173228346457,"duration":0.14124999999999943},{"name":"A3","midi":57,"time":8.096875,"velocity":0.6220472440944882,"duration":0.14687500000000142},{"name":"C5","midi":72,"time":8.101875000000001,"velocity":0.6220472440944882,"duration":0.14562500000000078},{"name":"G3","midi":55,"time":8.242500000000001,"velocity":0.5905511811023622,"duration":0.15500000000000114},{"name":"A#4","midi":70,"time":8.246875000000003,"velocity":0.5905511811023622,"duration":0.06374999999999886},{"name":"F3","midi":53,"time":8.392500000000002,"velocity":0.5590551181102362,"duration":0.15187500000000043},{"name":"A5","midi":81,"time":8.403750000000002,"velocity":0.5590551181102362,"duration":0.14749999999999908},{"name":"A#5","midi":82,"time":8.548750000000002,"velocity":0.49606299212598426,"duration":0.07312499999999922},{"name":"D5","midi":74,"time":8.698125000000001,"velocity":0.5590551181102362,"duration":0.15499999999999936},{"name":"G3","midi":55,"time":8.698125000000001,"velocity":0.5590551181102362,"duration":0.1506249999999998},{"name":"D#5","midi":75,"time":8.848125000000001,"velocity":0.49606299212598426,"duration":0.15187500000000043},{"name":"F5","midi":77,"time":8.998750000000001,"velocity":0.49606299212598426,"duration":0.14812500000000028},{"name":"D#3","midi":51,"time":9.001875000000002,"velocity":0.49606299212598426,"duration":0.145624999999999},{"name":"C5","midi":72,"time":9.148125,"velocity":0.49606299212598426,"duration":0.15875000000000128},{"name":"F3","midi":53,"time":9.300625,"velocity":0.49606299212598426,"duration":0.14750000000000085},{"name":"D5","midi":74,"time":9.301875,"velocity":0.49606299212598426,"duration":0.27749999999999986},{"name":"C5","midi":72,"time":9.59125,"velocity":0.5118110236220472,"duration":0.09437500000000121},{"name":"A#2","midi":46,"time":9.604375000000001,"velocity":0.5118110236220472,"duration":0.09625000000000128},{"name":"A#4","midi":70,"time":9.689375000000002,"velocity":0.4881889763779528,"duration":0.3756250000000012},{"name":"C3","midi":48,"time":9.750625000000003,"velocity":0.4881889763779528,"duration":0.15437499999999993},{"name":"A#2","midi":46,"time":9.898750000000003,"velocity":0.4881889763779528,"duration":0.15249999999999986},{"name":"A2","midi":45,"time":10.048750000000004,"velocity":0.4881889763779528,"duration":0.15625},{"name":"G2","midi":43,"time":10.201875000000003,"velocity":0.4881889763779528,"duration":0.29812500000000064},{"name":"G5","midi":79,"time":10.206875000000004,"velocity":0.4881889763779528,"duration":0.29812499999999886},{"name":"D3","midi":50,"time":10.502500000000003,"velocity":0.4881889763779528,"duration":0.2943750000000005},{"name":"A#5","midi":82,"time":10.503125000000002,"velocity":0.4881889763779528,"duration":0.1568750000000012},{"name":"A5","midi":81,"time":10.653125000000003,"velocity":0.4881889763779528,"duration":0.15312500000000107},{"name":"G3","midi":55,"time":10.800625000000004,"velocity":0.4881889763779528,"duration":0.29749999999999943},{"name":"A#5","midi":82,"time":10.803125000000003,"velocity":0.4881889763779528,"duration":0.31062499999999993},{"name":"A#3","midi":58,"time":11.096250000000003,"velocity":0.4881889763779528,"duration":0.30937500000000107},{"name":"G5","midi":79,"time":11.105625000000003,"velocity":0.4881889763779528,"duration":0.14437500000000014},{"name":"D5","midi":74,"time":11.251875000000004,"velocity":0.4881889763779528,"duration":0.16312500000000085},{"name":"C4","midi":60,"time":11.398125000000004,"velocity":0.4881889763779528,"duration":0.3043750000000003},{"name":"A5","midi":81,"time":11.407500000000004,"velocity":0.4881889763779528,"duration":0.29499999999999993},{"name":"D4","midi":62,"time":11.700625000000004,"velocity":0.4881889763779528,"duration":0.30125000000000135},{"name":"F#5","midi":78,"time":11.701250000000003,"velocity":0.4881889763779528,"duration":0.15000000000000213},{"name":"D5","midi":74,"time":11.848125000000005,"velocity":0.4881889763779528,"duration":0.15562500000000057},{"name":"D#4","midi":63,"time":11.997500000000006,"velocity":0.4881889763779528,"duration":0.15437499999999993},{"name":"G5","midi":79,"time":11.999375000000006,"velocity":0.4881889763779528,"duration":0.6125000000000025},{"name":"F4","midi":65,"time":12.147500000000006,"velocity":0.4881889763779528,"duration":0.15312500000000107},{"name":"D#4","midi":63,"time":12.297500000000007,"velocity":0.4881889763779528,"duration":0.15062500000000156},{"name":"D4","midi":62,"time":12.448125000000008,"velocity":0.4881889763779528,"duration":0.15437499999999993},{"name":"C4","midi":60,"time":12.598125000000008,"velocity":0.4881889763779528,"duration":0.15437499999999993},{"name":"D#5","midi":75,"time":12.602500000000008,"velocity":0.4881889763779528,"duration":0.29812500000000064},{"name":"A#3","midi":58,"time":12.747500000000008,"velocity":0.4881889763779528,"duration":0.15750000000000064},{"name":"C5","midi":72,"time":12.896875000000009,"velocity":0.4881889763779528,"duration":0.1431249999999995},{"name":"A3","midi":57,"time":12.89812500000001,"velocity":0.4881889763779528,"duration":0.14687499999999964},{"name":"A4","midi":69,"time":13.043125000000009,"velocity":0.4881889763779528,"duration":0.16000000000000014},{"name":"C4","midi":60,"time":13.049375000000008,"velocity":0.4881889763779528,"duration":0.1537500000000005},{"name":"D5","midi":74,"time":13.196250000000008,"velocity":0.4881889763779528,"duration":0.3087500000000034},{"name":"A#3","midi":58,"time":13.201875000000008,"velocity":0.4881889763779528,"duration":0.14312500000000128},{"name":"A3","midi":57,"time":13.34625000000001,"velocity":0.4881889763779528,"duration":0.15750000000000064},{"name":"A#4","midi":70,"time":13.49812500000001,"velocity":0.4881889763779528,"duration":0.15625000000000178},{"name":"G3","midi":55,"time":13.49875000000001,"velocity":0.4881889763779528,"duration":0.15750000000000242},{"name":"G4","midi":67,"time":13.647500000000012,"velocity":0.48031496062992124,"duration":0.161875000000002},{"name":"A#3","midi":58,"time":13.651250000000012,"velocity":0.48031496062992124,"duration":0.1462500000000002},{"name":"A3","midi":57,"time":13.798750000000013,"velocity":0.47244094488188976,"duration":0.15187500000000043},{"name":"C5","midi":72,"time":13.802500000000013,"velocity":0.47244094488188976,"duration":0.14937500000000092},{"name":"G3","midi":55,"time":13.948125000000013,"velocity":0.47244094488188976,"duration":0.1462500000000002},{"name":"A4","midi":69,"time":13.950000000000014,"velocity":0.47244094488188976,"duration":0.16437499999999972},{"name":"F#3","midi":54,"time":14.095000000000013,"velocity":0.4645669291338583,"duration":0.15562500000000057},{"name":"D5","midi":74,"time":14.107500000000012,"velocity":0.4645669291338583,"duration":0.2931250000000034},{"name":"D3","midi":50,"time":14.245625000000013,"velocity":0.4645669291338583,"duration":0.15375000000000227},{"name":"G3","midi":55,"time":14.398125000000014,"velocity":0.4566929133858268,"duration":0.3056250000000027},{"name":"A#4","midi":70,"time":14.401875000000016,"velocity":0.4566929133858268,"duration":0.3043750000000003},{"name":"D3","midi":50,"time":14.699375000000016,"velocity":0.44881889763779526,"duration":0.15249999999999986},{"name":"A4","midi":69,"time":14.700625000000016,"velocity":0.44881889763779526,"duration":0.14250000000000007},{"name":"G4","midi":67,"time":14.849375000000016,"velocity":0.44881889763779526,"duration":0.1462500000000002},{"name":"A#2","midi":46,"time":15.000625000000017,"velocity":0.4881889763779528,"duration":0.291875000000001},{"name":"G5","midi":79,"time":15.004375000000017,"velocity":0.49606299212598426,"duration":0.2893750000000015},{"name":"D3","midi":50,"time":15.296250000000018,"velocity":0.5275590551181102,"duration":0.2937499999999993},{"name":"A#5","midi":82,"time":15.298750000000018,"velocity":0.5275590551181102,"duration":0.14812500000000028},{"name":"A5","midi":81,"time":15.447500000000018,"velocity":0.5511811023622047,"duration":0.15875000000000128},{"name":"G3","midi":55,"time":15.593750000000018,"velocity":0.5669291338582677,"duration":0.3681250000000009},{"name":"A#5","midi":82,"time":15.599375000000018,"velocity":0.5669291338582677,"duration":0.31125000000000114},{"name":"A#3","midi":58,"time":15.90062500000002,"velocity":0.6062992125984252,"duration":0.3062499999999986},{"name":"G5","midi":79,"time":15.90250000000002,"velocity":0.6062992125984252,"duration":0.15249999999999808},{"name":"D5","midi":74,"time":16.05312500000002,"velocity":0.6220472440944882,"duration":0.15937499999999716},{"name":"C4","midi":60,"time":16.200625000000016,"velocity":0.6456692913385826,"duration":0.3012499999999996},{"name":"A5","midi":81,"time":16.207500000000017,"velocity":0.6456692913385826,"duration":0.3000000000000007},{"name":"D4","midi":62,"time":16.499375000000015,"velocity":0.6771653543307087,"duration":0.30750000000000455},{"name":"F#5","midi":78,"time":16.504375000000017,"velocity":0.6850393700787402,"duration":0.151250000000001},{"name":"D5","midi":74,"time":16.652500000000018,"velocity":0.7007874015748031,"duration":0.151250000000001},{"name":"D#4","midi":63,"time":16.79875000000002,"velocity":0.7165354330708661,"duration":0.15749999999999886},{"name":"G5","midi":79,"time":16.80250000000002,"velocity":0.7165354330708661,"duration":0.4643750000000004},{"name":"F4","midi":65,"time":16.949375000000018,"velocity":0.7401574803149606,"duration":0.15875000000000128},{"name":"D#4","midi":63,"time":17.101875000000017,"velocity":0.7559055118110236,"duration":0.1493750000000027},{"name":"D4","midi":62,"time":17.25312500000002,"velocity":0.7795275590551181,"duration":0.15249999999999986},{"name":"F5","midi":77,"time":17.25625000000002,"velocity":0.7795275590551181,"duration":0.15687499999999943},{"name":"C4","midi":60,"time":17.40312500000002,"velocity":0.8188976377952756,"duration":0.14812499999999673},{"name":"D#5","midi":75,"time":17.40500000000002,"velocity":0.8188976377952756,"duration":0.15687499999999943},{"name":"A#3","midi":58,"time":17.550625000000018,"velocity":0.8188976377952756,"duration":0.1437500000000007},{"name":"D5","midi":74,"time":17.554375000000018,"velocity":0.8188976377952756,"duration":0.1437500000000007},{"name":"A3","midi":57,"time":17.69812500000002,"velocity":0.8188976377952756,"duration":0.1474999999999973},{"name":"C5","midi":72,"time":17.70250000000002,"velocity":0.8188976377952756,"duration":0.145624999999999},{"name":"G3","midi":55,"time":17.844375000000017,"velocity":0.8188976377952756,"duration":0.16000000000000014},{"name":"A#4","midi":70,"time":17.849375000000016,"velocity":0.8188976377952756,"duration":0.05375000000000085},{"name":"F3","midi":53,"time":17.998125000000016,"velocity":0.8188976377952756,"duration":0.1443750000000037},{"name":"A5","midi":81,"time":18.007500000000018,"velocity":0.8188976377952756,"duration":0.1437500000000007},{"name":"A#5","midi":82,"time":18.153125000000017,"velocity":0.8188976377952756,"duration":0.14750000000000085},{"name":"G3","midi":55,"time":18.296875000000018,"velocity":0.8188976377952756,"duration":0.14562500000000256},{"name":"D5","midi":74,"time":18.30312500000002,"velocity":0.8188976377952756,"duration":0.14750000000000085},{"name":"D#5","midi":75,"time":18.45000000000002,"velocity":0.8188976377952756,"duration":0.15875000000000128},{"name":"D#3","midi":51,"time":18.59875000000002,"velocity":0.8188976377952756,"duration":0.14125000000000298},{"name":"F5","midi":77,"time":18.60125000000002,"velocity":0.8188976377952756,"duration":0.14500000000000313},{"name":"C5","midi":72,"time":18.748750000000026,"velocity":0.8188976377952756,"duration":0.14812500000000028},{"name":"F3","midi":53,"time":18.896250000000027,"velocity":0.8188976377952756,"duration":0.145624999999999},{"name":"D5","midi":74,"time":18.897500000000026,"velocity":0.8188976377952756,"duration":0.3000000000000007},{"name":"C5","midi":72,"time":19.190625000000026,"velocity":0.8188976377952756,"duration":0.07937499999999886},{"name":"A#2","midi":46,"time":19.199375000000025,"velocity":0.8188976377952756,"duration":0.21124999999999972},{"name":"A#4","midi":70,"time":19.269375000000025,"velocity":0.8188976377952756,"duration":0.43749999999999645},{"name":"F3","midi":53,"time":19.354375000000026,"velocity":0.8188976377952756,"duration":0.14374999999999716},{"name":"G3","midi":55,"time":19.502500000000023,"velocity":0.8188976377952756,"duration":0.15437499999999815},{"name":"A3","midi":57,"time":19.65187500000002,"velocity":0.8188976377952756,"duration":0.15374999999999872},{"name":"D5","midi":74,"time":19.80125000000002,"velocity":0.8188976377952756,"duration":0.306874999999998},{"name":"A#3","midi":58,"time":19.80437500000002,"velocity":0.8188976377952756,"duration":0.18562499999999815},{"name":"C4","midi":60,"time":20.09812500000002,"velocity":0.8188976377952756,"duration":0.29187499999999744},{"name":"F5","midi":77,"time":20.10250000000002,"velocity":0.8188976377952756,"duration":0.14874999999999616},{"name":"D#5","midi":75,"time":20.24937500000002,"velocity":0.8188976377952756,"duration":0.150624999999998},{"name":"D4","midi":62,"time":20.398125000000018,"velocity":0.8188976377952756,"duration":0.3081249999999969},{"name":"F5","midi":77,"time":20.400625000000016,"velocity":0.8188976377952756,"duration":0.229375000000001},{"name":"A#3","midi":58,"time":20.699375000000018,"velocity":0.7795275590551181,"duration":0.30749999999999744},{"name":"D5","midi":74,"time":20.705000000000016,"velocity":0.7795275590551181,"duration":0.1524999999999963},{"name":"A#4","midi":70,"time":20.855625000000014,"velocity":0.7795275590551181,"duration":0.15562500000000057},{"name":"D#4","midi":63,"time":21.000625000000014,"velocity":0.8188976377952756,"duration":0.29499999999999815},{"name":"G5","midi":79,"time":21.008125000000014,"velocity":0.8188976377952756,"duration":0.16062499999999957},{"name":"C4","midi":60,"time":21.295625000000012,"velocity":0.7716535433070866,"duration":0.2925000000000004},{"name":"D#5","midi":75,"time":21.301875000000013,"velocity":0.7716535433070866,"duration":0.14687499999999787},{"name":"A#4","midi":70,"time":21.44812500000001,"velocity":0.7874015748031497,"duration":0.15687499999999943},{"name":"D4","midi":62,"time":21.595625000000013,"velocity":0.8031496062992126,"duration":0.16062499999999957},{"name":"F5","midi":77,"time":21.603750000000012,"velocity":0.8031496062992126,"duration":0.6037500000000016},{"name":"C4","midi":60,"time":21.748750000000012,"velocity":0.8188976377952756,"duration":0.14812500000000028},{"name":"A#3","midi":58,"time":21.896250000000013,"velocity":0.8346456692913385,"duration":0.14874999999999972},{"name":"A3","midi":57,"time":22.04625000000001,"velocity":0.8503937007874016,"duration":0.15812500000000185},{"name":"G3","midi":55,"time":22.19812500000001,"velocity":0.8661417322834646,"duration":0.14500000000000313},{"name":"A#5","midi":82,"time":22.204375000000013,"velocity":0.8661417322834646,"duration":0.15374999999999872},{"name":"A5","midi":81,"time":22.352500000000013,"velocity":0.8740157480314961,"duration":0.14937499999999915},{"name":"F3","midi":53,"time":22.496875000000014,"velocity":0.8740157480314961,"duration":0.14624999999999844},{"name":"G5","midi":79,"time":22.498750000000012,"velocity":0.8740157480314961,"duration":0.1581249999999983},{"name":"A5","midi":81,"time":22.65125000000001,"velocity":0.8740157480314961,"duration":0.145624999999999},{"name":"E3","midi":52,"time":22.79750000000001,"velocity":0.8740157480314961,"duration":0.37312499999999815},{"name":"A#5","midi":82,"time":22.79937500000001,"velocity":0.8740157480314961,"duration":0.15562500000000057},{"name":"G5","midi":79,"time":22.94750000000001,"velocity":0.8582677165354331,"duration":0.1581249999999983},{"name":"E5","midi":76,"time":23.09937500000001,"velocity":0.8346456692913385,"duration":0.14937499999999915},{"name":"C3","midi":48,"time":23.100625000000008,"velocity":0.8346456692913385,"duration":0.1437500000000007},{"name":"C5","midi":72,"time":23.24812500000001,"velocity":0.8110236220472441,"duration":0.1581249999999983},{"name":"A#5","midi":82,"time":23.398750000000007,"velocity":0.8661417322834646,"duration":0.15562500000000057},{"name":"D3","midi":50,"time":23.401250000000008,"velocity":0.8661417322834646,"duration":0.14187499999999886},{"name":"A5","midi":81,"time":23.54937500000001,"velocity":0.8582677165354331,"duration":0.1524999999999963},{"name":"G5","midi":79,"time":23.699375000000007,"velocity":0.84251968503937,"duration":0.16000000000000014},{"name":"E3","midi":52,"time":23.700625000000006,"velocity":0.84251968503937,"duration":0.14437500000000014},{"name":"A5","midi":81,"time":23.853125000000006,"velocity":0.8346456692913385,"duration":0.15687499999999943},{"name":"F3","midi":53,"time":24.001875000000005,"velocity":0.8267716535433071,"duration":0.3006249999999966},{"name":"A#5","midi":82,"time":24.004375000000007,"velocity":0.8267716535433071,"duration":0.21624999999999872},{"name":"A5","midi":81,"time":24.156875000000007,"velocity":0.8110236220472441,"duration":0.15562499999999702},{"name":"G3","midi":55,"time":24.300625000000004,"velocity":0.8031496062992126,"duration":0.15562499999999702},{"name":"G5","midi":79,"time":24.305625000000003,"velocity":0.8031496062992126,"duration":0.14624999999999844},{"name":"A3","midi":57,"time":24.450625000000002,"velocity":0.7952755905511811,"duration":0.15812499999999474},{"name":"F5","midi":77,"time":24.4525,"velocity":0.7952755905511811,"duration":0.14999999999999858},{"name":"A#3","midi":58,"time":24.60125,"velocity":0.7795275590551181,"duration":0.14499999999999602},{"name":"G5","midi":79,"time":24.603125,"velocity":0.7795275590551181,"duration":0.16062499999999957},{"name":"F5","midi":77,"time":24.752499999999998,"velocity":0.7716535433070866,"duration":0.1531249999999993},{"name":"G3","midi":55,"time":24.89875,"velocity":0.7637795275590551,"duration":0.15312499999999574},{"name":"E5","midi":76,"time":24.900624999999998,"velocity":0.7637795275590551,"duration":0.16375000000000028},{"name":"F5","midi":77,"time":25.054374999999997,"velocity":0.7480314960629921,"duration":0.15375000000000227},{"name":"E3","midi":52,"time":25.197499999999998,"velocity":0.7401574803149606,"duration":0.3049999999999997},{"name":"G5","midi":79,"time":25.204375,"velocity":0.7401574803149606,"duration":0.16062499999999957},{"name":"E5","midi":76,"time":25.353749999999998,"velocity":0.7322834645669292,"duration":0.15187500000000043},{"name":"A2","midi":45,"time":25.49625,"velocity":0.7244094488188977,"duration":0.14812500000000028},{"name":"C#5","midi":73,"time":25.50125,"velocity":0.7244094488188977,"duration":0.15187500000000398},{"name":"A4","midi":69,"time":25.650625,"velocity":0.7086614173228346,"duration":0.146250000000002},{"name":"G5","midi":79,"time":25.797500000000003,"velocity":0.6929133858267716,"duration":0.16187499999999844},{"name":"B2","midi":47,"time":25.799375,"velocity":0.6929133858267716,"duration":0.140625},{"name":"F5","midi":77,"time":25.948125,"velocity":0.6692913385826772,"duration":0.14187499999999886},{"name":"E5","midi":76,"time":26.095,"velocity":0.6456692913385826,"duration":0.16062499999999957},{"name":"C#3","midi":49,"time":26.095625,"velocity":0.6456692913385826,"duration":0.140625},{"name":"F5","midi":77,"time":26.246875,"velocity":0.6220472440944882,"duration":0.16062499999999957},{"name":"G5","midi":79,"time":26.400624999999998,"velocity":0.5984251968503937,"duration":0.1531249999999993},{"name":"D3","midi":50,"time":26.401249999999997,"velocity":0.5984251968503937,"duration":0.3049999999999997},{"name":"F5","midi":77,"time":26.548125,"velocity":0.5748031496062992,"duration":0.1599999999999966},{"name":"E5","midi":76,"time":26.698749999999997,"velocity":0.5511811023622047,"duration":0.15187500000000043},{"name":"D2","midi":38,"time":26.701249999999998,"velocity":0.5511811023622047,"duration":0.13812499999999872},{"name":"D5","midi":74,"time":26.851249999999997,"velocity":0.5275590551181102,"duration":0.15374999999999872},{"name":"A5","midi":81,"time":27.003749999999997,"velocity":0.889763779527559,"duration":0.18124999999999858},{"name":"D4","midi":62,"time":27.003749999999997,"velocity":0.889763779527559,"duration":0.2987499999999983},{"name":"A5","midi":81,"time":27.301249999999996,"velocity":0.889763779527559,"duration":0.18187499999999446},{"name":"F4","midi":65,"time":27.302499999999995,"velocity":0.889763779527559,"duration":0.14812499999999673},{"name":"E4","midi":64,"time":27.448749999999993,"velocity":0.889763779527559,"duration":0.1524999999999963},{"name":"F4","midi":65,"time":27.59937499999999,"velocity":0.889763779527559,"duration":0.30562499999999915},{"name":"A5","midi":81,"time":27.61749999999999,"velocity":0.889763779527559,"duration":0.08437499999999787},{"name":"A#5","midi":82,"time":27.689374999999988,"velocity":0.889763779527559,"duration":0.07124999999999915},{"name":"A5","midi":81,"time":27.753749999999986,"velocity":0.889763779527559,"duration":0.06250000000000355},{"name":"A#5","midi":82,"time":27.809999999999988,"velocity":0.889763779527559,"duration":0.057500000000000995},{"name":"A5","midi":81,"time":27.864999999999988,"velocity":0.889763779527559,"duration":0.05625000000000213},{"name":"D4","midi":62,"time":27.89812499999999,"velocity":0.889763779527559,"duration":0.15437499999999815},{"name":"A#5","midi":82,"time":27.91562499999999,"velocity":0.889763779527559,"duration":0.0537499999999973},{"name":"A5","midi":81,"time":27.96374999999999,"velocity":0.889763779527559,"duration":0.0625},{"name":"A#5","midi":82,"time":28.01562499999999,"velocity":0.889763779527559,"duration":0.05437499999999673},{"name":"A3","midi":57,"time":28.04749999999999,"velocity":0.889763779527559,"duration":0.15499999999999403},{"name":"A5","midi":81,"time":28.069374999999987,"velocity":0.889763779527559,"duration":0.05937499999999929},{"name":"A#5","midi":82,"time":28.116249999999987,"velocity":0.889763779527559,"duration":0.05624999999999858},{"name":"A5","midi":81,"time":28.169374999999985,"velocity":0.889763779527559,"duration":0.06687499999999957},{"name":"E4","midi":64,"time":28.200624999999985,"velocity":0.889763779527559,"duration":0.29999999999999716},{"name":"A#5","midi":82,"time":28.224999999999984,"velocity":0.889763779527559,"duration":0.05625000000000213},{"name":"A5","midi":81,"time":28.284374999999986,"velocity":0.889763779527559,"duration":0.067499999999999},{"name":"A#5","midi":82,"time":28.339374999999986,"velocity":0.889763779527559,"duration":0.051249999999999574},{"name":"A5","midi":81,"time":28.391874999999985,"velocity":0.889763779527559,"duration":0.067499999999999},{"name":"A#5","midi":82,"time":28.443749999999984,"velocity":0.889763779527559,"duration":0.05437499999999673},{"name":"C#4","midi":61,"time":28.496249999999982,"velocity":0.889763779527559,"duration":0.15749999999999886},{"name":"A5","midi":81,"time":28.50499999999998,"velocity":0.889763779527559,"duration":0.0625},{"name":"A#5","midi":82,"time":28.55562499999998,"velocity":0.889763779527559,"duration":0.045624999999997584},{"name":"A5","midi":81,"time":28.59187499999998,"velocity":0.889763779527559,"duration":0.0625},{"name":"A3","midi":57,"time":28.64624999999998,"velocity":0.889763779527559,"duration":0.18187499999999446},{"name":"A#5","midi":82,"time":28.65562499999998,"velocity":0.889763779527559,"duration":0.0381249999999973},{"name":"A5","midi":81,"time":28.688749999999978,"velocity":0.889763779527559,"duration":0.30937499999999574},{"name":"D4","midi":62,"time":28.794999999999977,"velocity":0.889763779527559,"duration":0.6168749999999896},{"name":"F5","midi":77,"time":28.954374999999974,"velocity":0.8661417322834646,"duration":0.15499999999999758},{"name":"G5","midi":79,"time":29.104374999999973,"velocity":0.8976377952755905,"duration":0.1474999999999973},{"name":"A5","midi":81,"time":29.25124999999997,"velocity":0.9212598425196851,"duration":0.15562499999999702},{"name":"A#5","midi":82,"time":29.40062499999997,"velocity":0.952755905511811,"duration":0.22937499999999744},{"name":"G3","midi":55,"time":29.40124999999997,"velocity":0.952755905511811,"duration":0.14624999999999844},{"name":"A5","midi":81,"time":29.55437499999997,"velocity":0.9763779527559056,"duration":0.14999999999999858},{"name":"A3","midi":57,"time":29.696874999999967,"velocity":0.9606299212598425,"duration":0.1543750000000017},{"name":"G5","midi":79,"time":29.700624999999967,"velocity":0.9606299212598425,"duration":0.15062500000000156},{"name":"F5","midi":77,"time":29.851874999999968,"velocity":0.9448818897637795,"duration":0.14812500000000028},{"name":"A#3","midi":58,"time":30.000624999999967,"velocity":0.9291338582677166,"duration":0.307500000000001},{"name":"E5","midi":76,"time":30.001874999999966,"velocity":0.9291338582677166,"duration":0.16062500000000313},{"name":"D5","midi":74,"time":30.152499999999968,"velocity":0.9212598425196851,"duration":0.15500000000000114},{"name":"G3","midi":55,"time":30.300624999999968,"velocity":0.905511811023622,"duration":0.140625},{"name":"C#5","midi":73,"time":30.30312499999997,"velocity":0.905511811023622,"duration":0.14937499999999915},{"name":"D5","midi":74,"time":30.449374999999968,"velocity":0.889763779527559,"duration":0.15749999999999886},{"name":"A3","midi":57,"time":30.59937499999997,"velocity":0.8740157480314961,"duration":0.14062499999999645},{"name":"G5","midi":79,"time":30.60124999999997,"velocity":0.8740157480314961,"duration":0.15937499999999716},{"name":"F5","midi":77,"time":30.752499999999966,"velocity":0.8582677165354331,"duration":0.15374999999999872},{"name":"A2","midi":45,"time":30.899374999999967,"velocity":0.84251968503937,"duration":0.0693749999999973},{"name":"E5","midi":76,"time":30.901249999999965,"velocity":0.84251968503937,"duration":0.16375000000000028},{"name":"F5","midi":77,"time":31.054374999999965,"velocity":0.8346456692913385,"duration":0.229375000000001},{"name":"D2","midi":38,"time":31.200624999999967,"velocity":0.8188976377952756,"duration":0.16000000000000014},{"name":"D5","midi":74,"time":31.209374999999966,"velocity":0.8188976377952756,"duration":0.4631250000000051},{"name":"D3","midi":50,"time":31.354374999999965,"velocity":0.7795275590551181,"duration":0.15625000000000355},{"name":"D#3","midi":51,"time":31.504374999999968,"velocity":0.7559055118110236,"duration":0.14875000000000327},{"name":"F3","midi":53,"time":31.65062499999997,"velocity":0.7322834645669292,"duration":0.14937499999999915},{"name":"G3","midi":55,"time":31.79874999999997,"velocity":0.7086614173228346,"duration":0.145624999999999},{"name":"D5","midi":74,"time":31.80624999999997,"velocity":0.7086614173228346,"duration":0.30187499999999545},{"name":"G3","midi":55,"time":32.09874999999997,"velocity":0.6929133858267716,"duration":0.14124999999999943},{"name":"F5","midi":77,"time":32.102499999999964,"velocity":0.6929133858267716,"duration":0.1525000000000034},{"name":"D#5","midi":75,"time":32.25187499999997,"velocity":0.6929133858267716,"duration":0.161875000000002},{"name":"G3","midi":55,"time":32.39187499999997,"velocity":0.6929133858267716,"duration":0.08624999999999972},{"name":"F5","midi":77,"time":32.40437499999997,"velocity":0.6929133858267716,"duration":0.3087499999999963},{"name":"G#3","midi":56,"time":32.46874999999997,"velocity":0.6850393700787402,"duration":0.08437500000000142},{"name":"G3","midi":55,"time":32.55312499999997,"velocity":0.6850393700787402,"duration":0.05624999999999858},{"name":"G#3","midi":56,"time":32.606874999999974,"velocity":0.6850393700787402,"duration":0.0606249999999946},{"name":"G3","midi":55,"time":32.66374999999997,"velocity":0.6850393700787402,"duration":0.05875000000000341},{"name":"D5","midi":74,"time":32.70562499999997,"velocity":0.6850393700787402,"duration":0.1481250000000074},{"name":"G#3","midi":56,"time":32.71749999999997,"velocity":0.6850393700787402,"duration":0.05812500000000398},{"name":"G3","midi":55,"time":32.768124999999976,"velocity":0.6850393700787402,"duration":0.06374999999999886},{"name":"G#3","midi":56,"time":32.82874999999998,"velocity":0.6850393700787402,"duration":0.054375000000000284},{"name":"B4","midi":71,"time":32.85312499999998,"velocity":0.6850393700787402,"duration":0.15875000000000483},{"name":"G3","midi":55,"time":32.878124999999976,"velocity":0.6850393700787402,"duration":0.060625000000001705},{"name":"G#3","midi":56,"time":32.93499999999998,"velocity":0.6850393700787402,"duration":0.06187500000000057},{"name":"G3","midi":55,"time":32.98999999999998,"velocity":0.6850393700787402,"duration":0.06312500000000654},{"name":"G#5","midi":80,"time":33.00562499999998,"velocity":0.6850393700787402,"duration":0.3087500000000105},{"name":"G#3","midi":56,"time":33.048124999999985,"velocity":0.6771653543307087,"duration":0.05562499999999915},{"name":"G3","midi":55,"time":33.101874999999986,"velocity":0.6771653543307087,"duration":0.05562499999999915},{"name":"G#3","midi":56,"time":33.16249999999999,"velocity":0.6771653543307087,"duration":0.05624999999999858},{"name":"G3","midi":55,"time":33.21624999999999,"velocity":0.6771653543307087,"duration":0.05875000000000341},{"name":"G#3","midi":56,"time":33.26999999999999,"velocity":0.6771653543307087,"duration":0.05875000000000341},{"name":"F5","midi":77,"time":33.30499999999999,"velocity":0.6771653543307087,"duration":0.1481250000000074},{"name":"G3","midi":55,"time":33.32374999999999,"velocity":0.6771653543307087,"duration":0.05562500000000625},{"name":"G#3","midi":56,"time":33.373124999999995,"velocity":0.6771653543307087,"duration":0.0643750000000054},{"name":"G3","midi":55,"time":33.42375,"velocity":0.6771653543307087,"duration":0.05687499999999801},{"name":"D5","midi":74,"time":33.454375,"velocity":0.6771653543307087,"duration":0.15874999999999773},{"name":"G#3","midi":56,"time":33.478125,"velocity":0.6771653543307087,"duration":0.06812499999999488},{"name":"G3","midi":55,"time":33.535,"velocity":0.6771653543307087,"duration":0.521250000000002},{"name":"D#5","midi":75,"time":33.605,"velocity":0.6771653543307087,"duration":0.30187500000000256},{"name":"C5","midi":72,"time":33.902499999999996,"velocity":0.6692913385826772,"duration":0.14375000000000426},{"name":"G4","midi":67,"time":34.05,"velocity":0.6692913385826772,"duration":0.16250000000000142},{"name":"G3","midi":55,"time":34.203125,"velocity":0.6692913385826772,"duration":0.078125},{"name":"G5","midi":79,"time":34.20375,"velocity":0.6692913385826772,"duration":0.30562499999999915},{"name":"G3","midi":55,"time":34.501875,"velocity":0.6692913385826772,"duration":0.06875000000000142},{"name":"D#5","midi":75,"time":34.503125,"velocity":0.6692913385826772,"duration":0.15687500000000654},{"name":"C5","midi":72,"time":34.655,"velocity":0.6692913385826772,"duration":0.1618750000000091},{"name":"G3","midi":55,"time":34.79687500000001,"velocity":0.6692913385826772,"duration":0.4568750000000037},{"name":"D5","midi":74,"time":34.80875000000001,"velocity":0.6692913385826772,"duration":0.29625000000000057},{"name":"A#4","midi":70,"time":35.10375000000001,"velocity":0.6614173228346457,"duration":0.14874999999999972},{"name":"G4","midi":67,"time":35.25250000000001,"velocity":0.6614173228346457,"duration":0.16062499999999602},{"name":"G3","midi":55,"time":35.39625000000001,"velocity":0.6614173228346457,"duration":0.07062499999999972},{"name":"G5","midi":79,"time":35.40625000000001,"velocity":0.6614173228346457,"duration":0.2906249999999986},{"name":"G3","midi":55,"time":35.698750000000004,"velocity":0.6614173228346457,"duration":0.1368749999999963},{"name":"D5","midi":74,"time":35.700625,"velocity":0.6614173228346457,"duration":0.14124999999999943},{"name":"A#4","midi":70,"time":35.844375,"velocity":0.6614173228346457,"duration":0.17062500000000114},{"name":"G3","midi":55,"time":36.000625,"velocity":0.6614173228346457,"duration":0.3793750000000031},{"name":"C5","midi":72,"time":36.003125,"velocity":0.6614173228346457,"duration":0.30000000000000426},{"name":"A4","midi":69,"time":36.301875,"velocity":0.6535433070866141,"duration":0.14999999999999858},{"name":"F#4","midi":66,"time":36.450625,"velocity":0.6535433070866141,"duration":0.16124999999999545},{"name":"G3","midi":55,"time":36.601875,"velocity":0.6535433070866141,"duration":0.07562499999999517},{"name":"D#5","midi":75,"time":36.604375,"velocity":0.6535433070866141,"duration":0.301249999999996},{"name":"G3","midi":55,"time":36.754374999999996,"velocity":0.6535433070866141,"duration":0.06687500000000313},{"name":"C5","midi":72,"time":36.902499999999996,"velocity":0.6535433070866141,"duration":0.15124999999999744},{"name":"G3","midi":55,"time":36.904374999999995,"velocity":0.6535433070866141,"duration":0.08687499999999915},{"name":"A4","midi":69,"time":37.051874999999995,"velocity":0.6535433070866141,"duration":0.16124999999999545},{"name":"G3","midi":55,"time":37.053749999999994,"velocity":0.6535433070866141,"duration":0.07312499999999744},{"name":"D5","midi":74,"time":37.20312499999999,"velocity":0.6299212598425197,"duration":0.3031249999999943},{"name":"G3","midi":55,"time":37.20312499999999,"velocity":0.6299212598425197,"duration":0.07562499999999517},{"name":"G3","midi":55,"time":37.351874999999986,"velocity":0.6062992125984252,"duration":0.07124999999999915},{"name":"G3","midi":55,"time":37.49874999999999,"velocity":0.5905511811023622,"duration":0.07687500000000114},{"name":"A#4","midi":70,"time":37.501249999999985,"velocity":0.5905511811023622,"duration":0.16062499999999602},{"name":"G3","midi":55,"time":37.649374999999985,"velocity":0.5669291338582677,"duration":0.014999999999993463},{"name":"G4","midi":67,"time":37.65249999999998,"velocity":0.5669291338582677,"duration":0.14624999999999488},{"name":"C5","midi":72,"time":37.79812499999998,"velocity":0.5511811023622047,"duration":0.1581249999999983},{"name":"G3","midi":55,"time":37.79812499999998,"velocity":0.5511811023622047,"duration":0.15374999999999517},{"name":"F#3","midi":54,"time":37.94687499999998,"velocity":0.5275590551181102,"duration":0.16062499999999602},{"name":"A4","midi":69,"time":37.950624999999974,"velocity":0.5275590551181102,"duration":0.16437499999999972},{"name":"G3","midi":55,"time":38.10062499999997,"velocity":0.5039370078740157,"duration":0.1581250000000054},{"name":"A#4","midi":70,"time":38.10249999999997,"velocity":0.5039370078740157,"duration":0.15125000000000455},{"name":"G4","midi":67,"time":38.25187499999998,"velocity":0.4881889763779528,"duration":0.15499999999999403},{"name":"D3","midi":50,"time":38.402499999999975,"velocity":0.4645669291338583,"duration":0.1387499999999946},{"name":"A4","midi":69,"time":38.403124999999974,"velocity":0.4645669291338583,"duration":0.23187499999999517},{"name":"D4","midi":62,"time":38.55187499999997,"velocity":0.4645669291338583,"duration":0.14999999999999858},{"name":"E4","midi":64,"time":38.69937499999997,"velocity":0.4645669291338583,"duration":0.15749999999999886},{"name":"C3","midi":48,"time":38.69937499999997,"velocity":0.4645669291338583,"duration":0.13812499999999517},{"name":"F#4","midi":66,"time":38.84937499999997,"velocity":0.4645669291338583,"duration":0.15749999999999886},{"name":"A#2","midi":46,"time":38.998749999999966,"velocity":0.4645669291338583,"duration":0.1443749999999966},{"name":"G4","midi":67,"time":39.00249999999996,"velocity":0.4645669291338583,"duration":0.1524999999999963},{"name":"A4","midi":69,"time":39.15124999999996,"velocity":0.4566929133858268,"duration":0.16312500000000085},{"name":"D3","midi":50,"time":39.29624999999996,"velocity":0.4566929133858268,"duration":0.1481250000000074},{"name":"A#4","midi":70,"time":39.30249999999996,"velocity":0.4566929133858268,"duration":0.14937500000000625},{"name":"G4","midi":67,"time":39.453749999999964,"velocity":0.4566929133858268,"duration":0.15187499999999687},{"name":"F#2","midi":42,"time":39.600624999999965,"velocity":0.4566929133858268,"duration":0.14374999999999716},{"name":"D#5","midi":75,"time":39.602499999999964,"velocity":0.4566929133858268,"duration":0.15124999999999744},{"name":"C5","midi":72,"time":39.75249999999996,"velocity":0.44881889763779526,"duration":0.15500000000000114},{"name":"D3","midi":50,"time":39.899374999999964,"velocity":0.44881889763779526,"duration":0.15124999999999744},{"name":"D5","midi":74,"time":39.905624999999965,"velocity":0.44881889763779526,"duration":0.2974999999999923},{"name":"A#4","midi":70,"time":40.05374999999996,"velocity":0.44881889763779526,"duration":0.1524999999999963},{"name":"G2","midi":43,"time":40.20062499999996,"velocity":0.44881889763779526,"duration":0.14812499999999318},{"name":"C5","midi":72,"time":40.204999999999956,"velocity":0.44881889763779526,"duration":0.14624999999999488},{"name":"A4","midi":69,"time":40.35374999999995,"velocity":0.4409448818897638,"duration":0.14999999999999858},{"name":"D3","midi":50,"time":40.497499999999945,"velocity":0.4409448818897638,"duration":0.14750000000000085},{"name":"A#4","midi":70,"time":40.50249999999995,"velocity":0.4409448818897638,"duration":0.14312499999999773},{"name":"G4","midi":67,"time":40.64874999999994,"velocity":0.4409448818897638,"duration":0.1581249999999983},{"name":"A4","midi":69,"time":40.79749999999994,"velocity":0.4409448818897638,"duration":0.171875},{"name":"D2","midi":38,"time":40.79874999999994,"velocity":0.4409448818897638,"duration":0.16375000000000028},{"name":"D3","midi":50,"time":41.098749999999946,"velocity":0.4645669291338583,"duration":0.1524999999999963},{"name":"D4","midi":62,"time":41.10249999999994,"velocity":0.4645669291338583,"duration":0.3100000000000023},{"name":"C3","midi":48,"time":41.247499999999945,"velocity":0.48031496062992124,"duration":0.16062499999999602},{"name":"A#2","midi":46,"time":41.40124999999994,"velocity":0.4881889763779528,"duration":0.14500000000000313},{"name":"G4","midi":67,"time":41.40312499999994,"velocity":0.4881889763779528,"duration":0.28437500000000426},{"name":"A2","midi":45,"time":41.69812499999994,"velocity":0.5196850393700787,"duration":0.146250000000002},{"name":"A#4","midi":70,"time":41.69937499999994,"velocity":0.5196850393700787,"duration":0.14999999999999858},{"name":"A4","midi":69,"time":41.84624999999994,"velocity":0.5275590551181102,"duration":0.15562499999999346},{"name":"A#4","midi":70,"time":41.99749999999994,"velocity":0.5433070866141733,"duration":0.15500000000000114},{"name":"G2","midi":43,"time":41.999999999999936,"velocity":0.5433070866141733,"duration":0.20937500000000142},{"name":"F#4","midi":66,"time":42.148124999999936,"velocity":0.5590551181102362,"duration":0.15125000000000455},{"name":"G4","midi":67,"time":42.29499999999994,"velocity":0.5669291338582677,"duration":0.16062500000000313},{"name":"D4","midi":62,"time":42.44749999999994,"velocity":0.5826771653543307,"duration":0.161875000000002},{"name":"F2","midi":41,"time":42.600624999999944,"velocity":0.5984251968503937,"duration":0.15749999999999886},{"name":"B4","midi":71,"time":42.60249999999994,"velocity":0.5984251968503937,"duration":0.15500000000000114},{"name":"F4","midi":65,"time":42.75062499999994,"velocity":0.6062992125984252,"duration":0.15562500000000057},{"name":"G4","midi":67,"time":42.89937499999994,"velocity":0.6220472440944882,"duration":0.15375000000000227},{"name":"D4","midi":62,"time":43.04812499999994,"velocity":0.6377952755905512,"duration":0.16062500000000313},{"name":"D#2","midi":39,"time":43.200624999999945,"velocity":0.6456692913385826,"duration":0.14874999999999972},{"name":"C5","midi":72,"time":43.202499999999944,"velocity":0.6456692913385826,"duration":0.15375000000000227},{"name":"D4","midi":62,"time":43.35499999999995,"velocity":0.6614173228346457,"duration":0.15187499999999687},{"name":"D#4","midi":63,"time":43.50312499999995,"velocity":0.6771653543307087,"duration":0.15374999999999517},{"name":"G3","midi":55,"time":43.50374999999995,"velocity":0.6771653543307087,"duration":0.14499999999999602},{"name":"F3","midi":53,"time":43.646874999999945,"velocity":0.6850393700787402,"duration":0.15937499999999716},{"name":"G4","midi":67,"time":43.65187499999994,"velocity":0.6850393700787402,"duration":0.15375000000000227},{"name":"D#3","midi":51,"time":43.79874999999994,"velocity":0.7007874015748031,"duration":0.15500000000000114},{"name":"C5","midi":72,"time":43.82249999999994,"velocity":0.7007874015748031,"duration":0.15375000000000227},{"name":"G4","midi":67,"time":43.96124999999994,"velocity":0.7165354330708661,"duration":0.14624999999999488},{"name":"D3","midi":50,"time":44.09624999999994,"velocity":0.7244094488188977,"duration":0.1581249999999983},{"name":"D5","midi":74,"time":44.10687499999994,"velocity":0.7322834645669292,"duration":0.146250000000002},{"name":"G4","midi":67,"time":44.25624999999994,"velocity":0.7401574803149606,"duration":0.1424999999999983},{"name":"C3","midi":48,"time":44.39749999999994,"velocity":0.7559055118110236,"duration":0.22437499999999488},{"name":"D#5","midi":75,"time":44.40187499999993,"velocity":0.7559055118110236,"duration":0.15500000000000114},{"name":"B4","midi":71,"time":44.554999999999936,"velocity":0.7716535433070866,"duration":0.1506249999999909},{"name":"C5","midi":72,"time":44.70312499999993,"velocity":0.7795275590551181,"duration":0.14999999999999858},{"name":"G4","midi":67,"time":44.85249999999993,"velocity":0.7952755905511811,"duration":0.15375000000000227},{"name":"A#2","midi":46,"time":45.00062499999993,"velocity":0.8110236220472441,"duration":0.2168750000000017},{"name":"E5","midi":76,"time":45.00187499999993,"velocity":0.8110236220472441,"duration":0.15875000000000483},{"name":"A#4","midi":70,"time":45.15249999999993,"velocity":0.8188976377952756,"duration":0.15687499999999943},{"name":"C5","midi":72,"time":45.30187499999993,"velocity":0.8346456692913385,"duration":0.15687499999999943},{"name":"G4","midi":67,"time":45.454999999999934,"velocity":0.8503937007874016,"duration":0.1543750000000017},{"name":"A2","midi":45,"time":45.596249999999934,"velocity":0.8582677165354331,"duration":0.15562500000000057},{"name":"F5","midi":77,"time":45.60499999999993,"velocity":0.8582677165354331,"duration":0.21937500000000654},{"name":"G4","midi":67,"time":45.75624999999994,"velocity":0.8661417322834646,"duration":0.1443750000000037},{"name":"C4","midi":60,"time":45.90124999999994,"velocity":0.8740157480314961,"duration":0.14937499999999204},{"name":"A4","midi":69,"time":45.90312499999994,"velocity":0.8740157480314961,"duration":0.14187499999999886},{"name":"A#3","midi":58,"time":46.048124999999935,"velocity":0.8740157480314961,"duration":0.1524999999999963},{"name":"C5","midi":72,"time":46.049374999999934,"velocity":0.8740157480314961,"duration":0.16249999999999432},{"name":"A3","midi":57,"time":46.19812499999993,"velocity":0.8818897637795275,"duration":0.14562499999999545},{"name":"F#5","midi":78,"time":46.20437499999993,"velocity":0.8818897637795275,"duration":0.14562500000000256},{"name":"C5","midi":72,"time":46.35312499999993,"velocity":0.8818897637795275,"duration":0.15500000000000114},{"name":"G3","midi":55,"time":46.494999999999926,"velocity":0.889763779527559,"duration":0.15062500000000512},{"name":"G5","midi":79,"time":46.50249999999993,"velocity":0.889763779527559,"duration":0.14375000000000426},{"name":"C5","midi":72,"time":46.65124999999993,"velocity":0.889763779527559,"duration":0.15312500000000284},{"name":"A5","midi":81,"time":46.797499999999935,"velocity":0.8976377952755905,"duration":0.16125000000000256},{"name":"F#3","midi":54,"time":46.798124999999935,"velocity":0.8976377952755905,"duration":0.2931250000000034},{"name":"E5","midi":76,"time":46.95062499999994,"velocity":0.8976377952755905,"duration":0.15687499999999943},{"name":"F#5","midi":78,"time":47.10062499999994,"velocity":0.905511811023622,"duration":0.14937499999999915},{"name":"D5","midi":74,"time":47.251249999999935,"velocity":0.9133858267716536,"duration":0.1581249999999983},{"name":"E3","midi":52,"time":47.398749999999936,"velocity":0.9133858267716536,"duration":0.22624999999999318},{"name":"A#5","midi":82,"time":47.40187499999993,"velocity":0.9133858267716536,"duration":0.15687499999999943},{"name":"F#5","midi":78,"time":47.55124999999993,"velocity":0.9212598425196851,"duration":0.16062499999999602},{"name":"G5","midi":79,"time":47.70249999999993,"velocity":0.9212598425196851,"duration":0.14999999999999858},{"name":"D5","midi":74,"time":47.85187499999993,"velocity":0.9291338582677166,"duration":0.16124999999999545},{"name":"C6","midi":84,"time":48.00249999999993,"velocity":0.9291338582677166,"duration":0.15749999999999886},{"name":"D3","midi":50,"time":48.003124999999926,"velocity":0.9291338582677166,"duration":0.2950000000000017},{"name":"A5","midi":81,"time":48.153124999999925,"velocity":0.9291338582677166,"duration":0.1600000000000037},{"name":"F#3","midi":54,"time":48.29749999999993,"velocity":0.8976377952755905,"duration":0.3143750000000054},{"name":"D5","midi":74,"time":48.30562499999993,"velocity":0.8976377952755905,"duration":0.15125000000000455},{"name":"C6","midi":84,"time":48.45249999999993,"velocity":0.8740157480314961,"duration":0.15875000000000483},{"name":"G3","midi":55,"time":48.602499999999935,"velocity":0.8503937007874016,"duration":0.29749999999999943},{"name":"A#5","midi":82,"time":48.60437499999993,"velocity":0.8503937007874016,"duration":0.15500000000000114},{"name":"A5","midi":81,"time":48.75374999999993,"velocity":0.8267716535433071,"duration":0.15125000000000455},{"name":"A3","midi":57,"time":48.898749999999936,"velocity":0.8031496062992126,"duration":0.3062500000000057},{"name":"G5","midi":79,"time":48.90562499999994,"velocity":0.8031496062992126,"duration":0.14750000000000085},{"name":"F#5","midi":78,"time":49.05187499999994,"velocity":0.7795275590551181,"duration":0.15875000000000483},{"name":"A#3","midi":58,"time":49.19874999999994,"velocity":0.7559055118110236,"duration":0.30374999999999375},{"name":"G5","midi":79,"time":49.20437499999994,"velocity":0.7480314960629921,"duration":0.14874999999999972},{"name":"D5","midi":74,"time":49.35187499999994,"velocity":0.7244094488188977,"duration":0.15562499999999346},{"name":"C4","midi":60,"time":49.49687499999994,"velocity":0.7007874015748031,"duration":0.3049999999999926},{"name":"D#5","midi":75,"time":49.500624999999935,"velocity":0.7007874015748031,"duration":0.14750000000000085},{"name":"C5","midi":72,"time":49.650624999999934,"velocity":0.6771653543307087,"duration":0.15562499999999346},{"name":"D4","midi":62,"time":49.799374999999934,"velocity":0.6535433070866141,"duration":0.3012499999999889},{"name":"A#4","midi":70,"time":49.80499999999993,"velocity":0.6535433070866141,"duration":0.04999999999999716},{"name":"C5","midi":72,"time":49.82812499999993,"velocity":0.6456692913385826,"duration":0.04999999999999716},{"name":"A#4","midi":70,"time":49.86624999999992,"velocity":0.6377952755905512,"duration":0.23499999999999943},{"name":"D3","midi":50,"time":50.098749999999924,"velocity":0.6062992125984252,"duration":0.296875},{"name":"A4","midi":69,"time":50.11062499999992,"velocity":0.5984251968503937,"duration":0.14687500000000142},{"name":"G4","midi":67,"time":50.25812499999992,"velocity":0.5748031496062992,"duration":0.08562500000000028},{"name":"G2","midi":43,"time":50.40624999999992,"velocity":0.5511811023622047,"duration":0.5850000000000009},{"name":"G4","midi":67,"time":50.410624999999925,"velocity":0.5511811023622047,"duration":0.5850000000000009},{"name":"D5","midi":74,"time":51.00124999999993,"velocity":0.5118110236220472,"duration":0.3068750000000051},{"name":"A#3","midi":58,"time":51.004374999999925,"velocity":0.5118110236220472,"duration":0.1856250000000017},{"name":"C4","midi":60,"time":51.29812499999993,"velocity":0.5118110236220472,"duration":0.29187500000000455},{"name":"F5","midi":77,"time":51.30249999999993,"velocity":0.5118110236220472,"duration":0.14874999999999972},{"name":"D#5","midi":75,"time":51.44937499999993,"velocity":0.5118110236220472,"duration":0.150624999999998},{"name":"D4","midi":62,"time":51.59812499999993,"velocity":0.5118110236220472,"duration":0.3081249999999969},{"name":"F5","midi":77,"time":51.60062499999993,"velocity":0.5118110236220472,"duration":0.22937499999999744},{"name":"A#3","midi":58,"time":51.89937499999993,"velocity":0.5118110236220472,"duration":0.30749999999999744},{"name":"D5","midi":74,"time":51.90499999999993,"velocity":0.5118110236220472,"duration":0.1524999999999963},{"name":"A#4","midi":70,"time":52.05562499999993,"velocity":0.5118110236220472,"duration":0.15562499999999346},{"name":"D#4","midi":63,"time":52.200624999999924,"velocity":0.5118110236220472,"duration":0.2949999999999946},{"name":"G5","midi":79,"time":52.208124999999924,"velocity":0.5118110236220472,"duration":0.16062499999999602},{"name":"C4","midi":60,"time":52.49562499999992,"velocity":0.5118110236220472,"duration":0.292500000000004},{"name":"D#5","midi":75,"time":52.50187499999992,"velocity":0.5118110236220472,"duration":0.14687500000000142},{"name":"A#4","midi":70,"time":52.64812499999992,"velocity":0.5118110236220472,"duration":0.15687499999999943},{"name":"D4","midi":62,"time":52.79562499999992,"velocity":0.5118110236220472,"duration":0.16062499999999602},{"name":"F5","midi":77,"time":52.80374999999992,"velocity":0.5118110236220472,"duration":0.6037499999999909},{"name":"C4","midi":60,"time":52.94874999999992,"velocity":0.5275590551181102,"duration":0.14812500000000028},{"name":"A#3","midi":58,"time":53.09624999999992,"velocity":0.5590551181102362,"duration":0.14874999999999972},{"name":"A3","midi":57,"time":53.24624999999992,"velocity":0.5905511811023622,"duration":0.1581249999999983},{"name":"G3","midi":55,"time":53.398124999999915,"velocity":0.6141732283464567,"duration":0.14499999999999602},{"name":"A#5","midi":82,"time":53.404374999999916,"velocity":0.6220472440944882,"duration":0.15374999999999517},{"name":"A5","midi":81,"time":53.55249999999991,"velocity":0.6456692913385826,"duration":0.14937499999999915},{"name":"F3","midi":53,"time":53.69687499999991,"velocity":0.6614173228346457,"duration":0.14624999999999488},{"name":"G5","midi":79,"time":53.69874999999991,"velocity":0.6614173228346457,"duration":0.1581249999999983},{"name":"A5","midi":81,"time":53.85124999999991,"velocity":0.6614173228346457,"duration":0.14562500000000256},{"name":"E3","midi":52,"time":53.99749999999991,"velocity":0.6614173228346457,"duration":0.3731249999999946},{"name":"A#5","midi":82,"time":53.99937499999991,"velocity":0.6614173228346457,"duration":0.15562500000000057},{"name":"G5","midi":79,"time":54.14749999999991,"velocity":0.6614173228346457,"duration":0.1581249999999983},{"name":"E5","midi":76,"time":54.299374999999905,"velocity":0.6614173228346457,"duration":0.14937499999999204},{"name":"C3","midi":48,"time":54.300624999999904,"velocity":0.6614173228346457,"duration":0.14374999999999716},{"name":"C5","midi":72,"time":54.4481249999999,"velocity":0.6614173228346457,"duration":0.1581249999999983},{"name":"A#5","midi":82,"time":54.598749999999896,"velocity":0.6614173228346457,"duration":0.15562500000000767},{"name":"D3","midi":50,"time":54.601249999999894,"velocity":0.6614173228346457,"duration":0.14187500000000597},{"name":"A5","midi":81,"time":54.7493749999999,"velocity":0.6614173228346457,"duration":0.1525000000000034},{"name":"G5","midi":79,"time":54.89937499999991,"velocity":0.6614173228346457,"duration":0.1599999999999966},{"name":"E3","midi":52,"time":54.900624999999906,"velocity":0.6614173228346457,"duration":0.1443749999999966},{"name":"A5","midi":81,"time":55.0531249999999,"velocity":0.6614173228346457,"duration":0.15687499999999943},{"name":"F3","midi":53,"time":55.2018749999999,"velocity":0.6614173228346457,"duration":0.3006249999999966},{"name":"A#5","midi":82,"time":55.2043749999999,"velocity":0.6614173228346457,"duration":0.21625000000000227},{"name":"A5","midi":81,"time":55.3568749999999,"velocity":0.6614173228346457,"duration":0.15562499999999346},{"name":"G3","midi":55,"time":55.5006249999999,"velocity":0.6614173228346457,"duration":0.15562499999999346},{"name":"G5","midi":79,"time":55.505624999999895,"velocity":0.6614173228346457,"duration":0.146250000000002},{"name":"A3","midi":57,"time":55.6506249999999,"velocity":0.6614173228346457,"duration":0.1581249999999983},{"name":"F5","midi":77,"time":55.6524999999999,"velocity":0.6614173228346457,"duration":0.14999999999999858},{"name":"A#3","midi":58,"time":55.8012499999999,"velocity":0.6614173228346457,"duration":0.14500000000000313},{"name":"G5","midi":79,"time":55.803124999999895,"velocity":0.6614173228346457,"duration":0.16062500000000313},{"name":"F5","midi":77,"time":55.9524999999999,"velocity":0.6614173228346457,"duration":0.15312499999999574},{"name":"G3","midi":55,"time":56.098749999999896,"velocity":0.6614173228346457,"duration":0.15312500000000284},{"name":"E5","midi":76,"time":56.100624999999894,"velocity":0.6614173228346457,"duration":0.16375000000000028},{"name":"F5","midi":77,"time":56.2543749999999,"velocity":0.6614173228346457,"duration":0.15374999999999517},{"name":"E3","midi":52,"time":56.397499999999894,"velocity":0.6692913385826772,"duration":0.3049999999999997},{"name":"G5","midi":79,"time":56.404374999999895,"velocity":0.6692913385826772,"duration":0.16062499999999602},{"name":"E5","midi":76,"time":56.553749999999894,"velocity":0.6535433070866141,"duration":0.15187499999999687},{"name":"A2","midi":45,"time":56.69624999999989,"velocity":0.6377952755905512,"duration":0.14812500000000028},{"name":"C#5","midi":73,"time":56.701249999999895,"velocity":0.6377952755905512,"duration":0.15187499999999687},{"name":"A4","midi":69,"time":56.850624999999894,"velocity":0.6299212598425197,"duration":0.14624999999999488},{"name":"G5","midi":79,"time":56.99749999999989,"velocity":0.6141732283464567,"duration":0.16187499999999488},{"name":"B2","midi":47,"time":56.99937499999989,"velocity":0.6141732283464567,"duration":0.140625},{"name":"F5","midi":77,"time":57.14812499999989,"velocity":0.5984251968503937,"duration":0.14187499999999886},{"name":"E5","midi":76,"time":57.29499999999989,"velocity":0.5905511811023622,"duration":0.16062499999999602},{"name":"C#3","midi":49,"time":57.29562499999989,"velocity":0.5905511811023622,"duration":0.140625},{"name":"F5","midi":77,"time":57.446874999999885,"velocity":0.5748031496062992,"duration":0.16062500000000313},{"name":"G5","midi":79,"time":57.60062499999989,"velocity":0.5590551181102362,"duration":0.15312500000000284},{"name":"D3","midi":50,"time":57.60124999999989,"velocity":0.5590551181102362,"duration":0.3050000000000068},{"name":"F5","midi":77,"time":57.74812499999989,"velocity":0.5511811023622047,"duration":0.1600000000000037},{"name":"E5","midi":76,"time":57.89874999999989,"velocity":0.5354330708661418,"duration":0.15187499999999687},{"name":"D2","midi":38,"time":57.90124999999989,"velocity":0.5354330708661418,"duration":0.13812500000000227},{"name":"D5","midi":74,"time":58.05124999999989,"velocity":0.5275590551181102,"duration":0.15375000000000227},{"name":"A5","midi":81,"time":58.20374999999989,"velocity":0.889763779527559,"duration":0.18124999999999858},{"name":"D4","midi":62,"time":58.20374999999989,"velocity":0.889763779527559,"duration":0.2987499999999983},{"name":"A5","midi":81,"time":58.50124999999989,"velocity":0.889763779527559,"duration":0.181874999999998},{"name":"F4","midi":65,"time":58.50249999999989,"velocity":0.889763779527559,"duration":0.14812500000000028},{"name":"E4","midi":64,"time":58.64874999999989,"velocity":0.889763779527559,"duration":0.1524999999999963},{"name":"F4","midi":65,"time":58.79937499999989,"velocity":0.889763779527559,"duration":0.30562499999999915},{"name":"A5","midi":81,"time":58.81749999999989,"velocity":0.889763779527559,"duration":0.08437500000000142},{"name":"A#5","midi":82,"time":58.88937499999989,"velocity":0.889763779527559,"duration":0.07125000000000625},{"name":"A5","midi":81,"time":58.95374999999989,"velocity":0.889763779527559,"duration":0.0625},{"name":"A#5","midi":82,"time":59.00999999999989,"velocity":0.889763779527559,"duration":0.05749999999999744},{"name":"A5","midi":81,"time":59.06499999999989,"velocity":0.889763779527559,"duration":0.05624999999999858},{"name":"D4","midi":62,"time":59.09812499999989,"velocity":0.889763779527559,"duration":0.1543750000000017},{"name":"A#5","midi":82,"time":59.11562499999989,"velocity":0.889763779527559,"duration":0.05375000000000085},{"name":"A5","midi":81,"time":59.16374999999989,"velocity":0.889763779527559,"duration":0.0625},{"name":"A#5","midi":82,"time":59.21562499999989,"velocity":0.889763779527559,"duration":0.054375000000000284},{"name":"A3","midi":57,"time":59.24749999999989,"velocity":0.889763779527559,"duration":0.15500000000000114},{"name":"A5","midi":81,"time":59.26937499999989,"velocity":0.889763779527559,"duration":0.05937500000000284},{"name":"A#5","midi":82,"time":59.31624999999989,"velocity":0.889763779527559,"duration":0.05624999999999858},{"name":"A5","midi":81,"time":59.36937499999989,"velocity":0.889763779527559,"duration":0.06687499999999602},{"name":"E4","midi":64,"time":59.40062499999989,"velocity":0.889763779527559,"duration":0.29999999999999716},{"name":"A#5","midi":82,"time":59.42499999999989,"velocity":0.889763779527559,"duration":0.05624999999999858},{"name":"A5","midi":81,"time":59.484374999999886,"velocity":0.889763779527559,"duration":0.06750000000000256},{"name":"A#5","midi":82,"time":59.539374999999886,"velocity":0.889763779527559,"duration":0.051250000000003126},{"name":"A5","midi":81,"time":59.59187499999989,"velocity":0.889763779527559,"duration":0.06750000000000256},{"name":"A#5","midi":82,"time":59.64374999999989,"velocity":0.889763779527559,"duration":0.054375000000000284},{"name":"C#4","midi":61,"time":59.69624999999989,"velocity":0.889763779527559,"duration":0.15749999999999886},{"name":"A5","midi":81,"time":59.70499999999989,"velocity":0.889763779527559,"duration":0.0625},{"name":"A#5","midi":82,"time":59.75562499999989,"velocity":0.889763779527559,"duration":0.04562500000000114},{"name":"A5","midi":81,"time":59.79187499999989,"velocity":0.889763779527559,"duration":0.0625},{"name":"A3","midi":57,"time":59.84624999999989,"velocity":0.889763779527559,"duration":0.181874999999998},{"name":"A#5","midi":82,"time":59.85562499999989,"velocity":0.889763779527559,"duration":0.03812500000000085},{"name":"A5","midi":81,"time":59.88874999999989,"velocity":0.889763779527559,"duration":0.30937500000000284},{"name":"D4","midi":62,"time":59.99499999999989,"velocity":0.889763779527559,"duration":0.6168750000000074},{"name":"F5","midi":77,"time":60.15437499999989,"velocity":0.8661417322834646,"duration":0.15500000000000824},{"name":"G5","midi":79,"time":60.304374999999894,"velocity":0.8976377952755905,"duration":0.14750000000000085},{"name":"A5","midi":81,"time":60.451249999999895,"velocity":0.9212598425196851,"duration":0.15562500000000057},{"name":"A#5","midi":82,"time":60.600624999999894,"velocity":0.952755905511811,"duration":0.22937500000000455},{"name":"G3","midi":55,"time":60.601249999999894,"velocity":0.952755905511811,"duration":0.146250000000002},{"name":"A5","midi":81,"time":60.7543749999999,"velocity":0.9763779527559056,"duration":0.14999999999999858},{"name":"A3","midi":57,"time":60.8968749999999,"velocity":0.9606299212598425,"duration":0.1543749999999946},{"name":"G5","midi":79,"time":60.9006249999999,"velocity":0.9606299212598425,"duration":0.150624999999998},{"name":"F5","midi":77,"time":61.051874999999896,"velocity":0.9448818897637795,"duration":0.14812500000000028},{"name":"A#3","midi":58,"time":61.200624999999896,"velocity":0.9291338582677166,"duration":0.30749999999999744},{"name":"E5","midi":76,"time":61.201874999999895,"velocity":0.9291338582677166,"duration":0.16062499999999602},{"name":"D5","midi":74,"time":61.35249999999989,"velocity":0.9212598425196851,"duration":0.15500000000000114},{"name":"G3","midi":55,"time":61.50062499999989,"velocity":0.905511811023622,"duration":0.140625},{"name":"C#5","midi":73,"time":61.50312499999989,"velocity":0.905511811023622,"duration":0.14937499999999915},{"name":"D5","midi":74,"time":61.64937499999989,"velocity":0.889763779527559,"duration":0.15749999999999886},{"name":"A3","midi":57,"time":61.79937499999989,"velocity":0.8740157480314961,"duration":0.140625},{"name":"G5","midi":79,"time":61.80124999999989,"velocity":0.8740157480314961,"duration":0.15937500000000426},{"name":"F5","midi":77,"time":61.952499999999894,"velocity":0.8582677165354331,"duration":0.15375000000000227},{"name":"A2","midi":45,"time":62.099374999999895,"velocity":0.84251968503937,"duration":0.06937500000000085},{"name":"E5","midi":76,"time":62.101249999999894,"velocity":0.84251968503937,"duration":0.16375000000000028},{"name":"F5","midi":77,"time":62.2543749999999,"velocity":0.8346456692913385,"duration":0.22937499999999744},{"name":"D2","midi":38,"time":62.40062499999989,"velocity":0.8188976377952756,"duration":0.1600000000000037},{"name":"D5","midi":74,"time":62.40937499999989,"velocity":0.8188976377952756,"duration":0.463124999999998},{"name":"D3","midi":50,"time":62.554374999999894,"velocity":0.7795275590551181,"duration":0.15625},{"name":"D#3","midi":51,"time":62.70437499999989,"velocity":0.7559055118110236,"duration":0.14874999999999972},{"name":"F3","midi":53,"time":62.850624999999894,"velocity":0.7322834645669292,"duration":0.14937499999999204},{"name":"G3","midi":55,"time":62.99874999999989,"velocity":0.7086614173228346,"duration":0.14562500000000256},{"name":"D5","midi":74,"time":63.00624999999989,"velocity":0.7086614173228346,"duration":0.30187500000000256},{"name":"G3","midi":55,"time":63.29874999999989,"velocity":0.6929133858267716,"duration":0.14124999999999943},{"name":"F5","midi":77,"time":63.30249999999989,"velocity":0.6929133858267716,"duration":0.1525000000000034},{"name":"D#5","midi":75,"time":63.451874999999895,"velocity":0.6929133858267716,"duration":0.161875000000002},{"name":"G3","midi":55,"time":63.591874999999895,"velocity":0.6929133858267716,"duration":0.08624999999999972},{"name":"F5","midi":77,"time":63.6043749999999,"velocity":0.6850393700787402,"duration":0.3087499999999963},{"name":"G#3","midi":56,"time":63.668749999999896,"velocity":0.6850393700787402,"duration":0.08437500000000142},{"name":"G3","midi":55,"time":63.7531249999999,"velocity":0.6850393700787402,"duration":0.05624999999999858},{"name":"G#3","midi":56,"time":63.8068749999999,"velocity":0.6929133858267716,"duration":0.0606249999999946},{"name":"G3","midi":55,"time":63.8637499999999,"velocity":0.6929133858267716,"duration":0.05875000000000341},{"name":"D5","midi":74,"time":63.905624999999894,"velocity":0.6929133858267716,"duration":0.14812500000000028},{"name":"G#3","midi":56,"time":63.9174999999999,"velocity":0.6929133858267716,"duration":0.05812500000000398},{"name":"G3","midi":55,"time":63.9681249999999,"velocity":0.6929133858267716,"duration":0.06374999999999886},{"name":"G#3","midi":56,"time":64.0287499999999,"velocity":0.7007874015748031,"duration":0.05437499999999318},{"name":"B4","midi":71,"time":64.0531249999999,"velocity":0.7007874015748031,"duration":0.15874999999998352},{"name":"G3","midi":55,"time":64.0781249999999,"velocity":0.7007874015748031,"duration":0.060624999999987494},{"name":"G#3","midi":56,"time":64.13499999999989,"velocity":0.7007874015748031,"duration":0.06187499999998636},{"name":"G3","midi":55,"time":64.18999999999988,"velocity":0.7086614173228346,"duration":0.06312499999998522},{"name":"G#5","midi":80,"time":64.20562499999988,"velocity":0.7086614173228346,"duration":0.3087499999999608},{"name":"G#3","midi":56,"time":64.24812499999987,"velocity":0.7086614173228346,"duration":0.05562499999999204},{"name":"G3","midi":55,"time":64.30187499999987,"velocity":0.7086614173228346,"duration":0.05562499999999204},{"name":"G#3","midi":56,"time":64.36249999999986,"velocity":0.7086614173228346,"duration":0.056249999999991473},{"name":"G3","midi":55,"time":64.41624999999985,"velocity":0.7165354330708661,"duration":0.0587499999999892},{"name":"G#3","midi":56,"time":64.46999999999984,"velocity":0.7165354330708661,"duration":0.05875000000000341},{"name":"F5","midi":77,"time":64.50499999999984,"velocity":0.7165354330708661,"duration":0.1481250000000074},{"name":"G3","midi":55,"time":64.52374999999985,"velocity":0.7165354330708661,"duration":0.05562499999999204},{"name":"G#3","midi":56,"time":64.57312499999985,"velocity":0.7165354330708661,"duration":0.0643749999999983},{"name":"G3","midi":55,"time":64.62374999999984,"velocity":0.7244094488188977,"duration":0.056875000000005116},{"name":"D5","midi":74,"time":64.65437499999985,"velocity":0.7244094488188977,"duration":0.15875000000001194},{"name":"G#3","midi":56,"time":64.67812499999985,"velocity":0.7244094488188977,"duration":0.06812499999999488},{"name":"G3","midi":55,"time":64.73499999999984,"velocity":0.7244094488188977,"duration":0.5212500000000091},{"name":"D#5","midi":75,"time":64.80499999999985,"velocity":0.7322834645669292,"duration":0.30187500000000966},{"name":"C5","midi":72,"time":65.10249999999986,"velocity":0.7401574803149606,"duration":0.14374999999999716},{"name":"G4","midi":67,"time":65.24999999999986,"velocity":0.7480314960629921,"duration":0.16249999999999432},{"name":"G3","midi":55,"time":65.40312499999985,"velocity":0.7637795275590551,"duration":0.078125},{"name":"G5","midi":79,"time":65.40374999999985,"velocity":0.7637795275590551,"duration":0.30562499999999204},{"name":"G3","midi":55,"time":65.70187499999984,"velocity":0.7795275590551181,"duration":0.06874999999999432},{"name":"D#5","midi":75,"time":65.70312499999984,"velocity":0.7795275590551181,"duration":0.15687499999998522},{"name":"C5","midi":72,"time":65.85499999999983,"velocity":0.7874015748031497,"duration":0.1618750000000091},{"name":"G3","midi":55,"time":65.99687499999983,"velocity":0.7952755905511811,"duration":0.4568749999999966},{"name":"D5","midi":74,"time":66.00874999999984,"velocity":0.7952755905511811,"duration":0.29625000000000057},{"name":"A#4","midi":70,"time":66.30374999999984,"velocity":0.8110236220472441,"duration":0.1487499999999926},{"name":"G4","midi":67,"time":66.45249999999983,"velocity":0.8188976377952756,"duration":0.16062499999999602},{"name":"G3","midi":55,"time":66.59624999999983,"velocity":0.8267716535433071,"duration":0.07062499999999261},{"name":"G5","midi":79,"time":66.60624999999983,"velocity":0.8267716535433071,"duration":0.2906249999999915},{"name":"G3","midi":55,"time":66.89874999999982,"velocity":0.8503937007874016,"duration":0.1368750000000034},{"name":"D5","midi":74,"time":66.90062499999982,"velocity":0.8503937007874016,"duration":0.14124999999999943},{"name":"A#4","midi":70,"time":67.04437499999982,"velocity":0.8582677165354331,"duration":0.17062500000000114},{"name":"G3","midi":55,"time":67.20062499999982,"velocity":0.8661417322834646,"duration":0.379374999999996},{"name":"C5","midi":72,"time":67.20312499999982,"velocity":0.8661417322834646,"duration":0.29999999999999716},{"name":"A4","midi":69,"time":67.50187499999981,"velocity":0.8818897637795275,"duration":0.15000000000000568},{"name":"F#4","midi":66,"time":67.65062499999982,"velocity":0.889763779527559,"duration":0.16124999999999545},{"name":"G3","midi":55,"time":67.80187499999982,"velocity":0.8976377952755905,"duration":0.07562499999998806},{"name":"D#5","midi":75,"time":67.80437499999982,"velocity":0.8976377952755905,"duration":0.3012499999999818},{"name":"G3","midi":55,"time":67.95437499999981,"velocity":0.905511811023622,"duration":0.06687499999999602},{"name":"C5","midi":72,"time":68.10249999999981,"velocity":0.9133858267716536,"duration":0.15124999999999034},{"name":"G3","midi":55,"time":68.1043749999998,"velocity":0.9212598425196851,"duration":0.08687499999999204},{"name":"A4","midi":69,"time":68.2518749999998,"velocity":0.9291338582677166,"duration":0.16125000000000966},{"name":"G3","midi":55,"time":68.2537499999998,"velocity":0.9291338582677166,"duration":0.07312500000000455},{"name":"D5","midi":74,"time":68.4031249999998,"velocity":0.9212598425196851,"duration":0.3031250000000085},{"name":"G3","midi":55,"time":68.4031249999998,"velocity":0.9212598425196851,"duration":0.07562500000000227},{"name":"G3","midi":55,"time":68.55187499999981,"velocity":0.8818897637795275,"duration":0.07125000000000625},{"name":"G3","midi":55,"time":68.69874999999982,"velocity":0.84251968503937,"duration":0.07687499999998693},{"name":"A#4","midi":70,"time":68.70124999999982,"velocity":0.84251968503937,"duration":0.16062499999999602},{"name":"G3","midi":55,"time":68.84937499999981,"velocity":0.8031496062992126,"duration":0.015000000000000568},{"name":"G4","midi":67,"time":68.85249999999981,"velocity":0.8031496062992126,"duration":0.1462500000000091},{"name":"C5","midi":72,"time":68.99812499999982,"velocity":0.7637795275590551,"duration":0.15812499999998408},{"name":"G3","midi":55,"time":68.99812499999982,"velocity":0.7637795275590551,"duration":0.15374999999998806},{"name":"F#3","midi":54,"time":69.14687499999981,"velocity":0.7244094488188977,"duration":0.1606249999999818},{"name":"A4","midi":69,"time":69.1506249999998,"velocity":0.7244094488188977,"duration":0.1643749999999784},{"name":"G3","midi":55,"time":69.3006249999998,"velocity":0.6850393700787402,"duration":0.15812499999998408},{"name":"A#4","midi":70,"time":69.3024999999998,"velocity":0.6850393700787402,"duration":0.15124999999999034},{"name":"G4","midi":67,"time":69.45187499999979,"velocity":0.6456692913385826,"duration":0.15499999999998693},{"name":"D3","midi":50,"time":69.60249999999978,"velocity":0.6062992125984252,"duration":0.1387500000000017},{"name":"A4","midi":69,"time":69.60312499999978,"velocity":0.6062992125984252,"duration":0.23187500000000227},{"name":"D4","midi":62,"time":69.75187499999979,"velocity":0.5748031496062992,"duration":0.14999999999999147},{"name":"E4","midi":64,"time":69.89937499999978,"velocity":0.5669291338582677,"duration":0.15749999999999886},{"name":"C3","midi":48,"time":69.89937499999978,"velocity":0.5669291338582677,"duration":0.13812500000000227},{"name":"F#4","midi":66,"time":70.04937499999978,"velocity":0.5590551181102362,"duration":0.15749999999998465},{"name":"A#2","midi":46,"time":70.19874999999978,"velocity":0.5511811023622047,"duration":0.1443749999999966},{"name":"G4","midi":67,"time":70.20249999999977,"velocity":0.5511811023622047,"duration":0.1525000000000034},{"name":"A4","midi":69,"time":70.35124999999978,"velocity":0.5433070866141733,"duration":0.16312499999999375},{"name":"D3","midi":50,"time":70.49624999999978,"velocity":0.5433070866141733,"duration":0.14812499999999318},{"name":"A#4","midi":70,"time":70.50249999999977,"velocity":0.5433070866141733,"duration":0.14937499999999204},{"name":"G4","midi":67,"time":70.65374999999976,"velocity":0.5354330708661418,"duration":0.15187499999998977},{"name":"F#2","midi":42,"time":70.80062499999976,"velocity":0.5275590551181102,"duration":0.14374999999999716},{"name":"D#5","midi":75,"time":70.80249999999975,"velocity":0.5275590551181102,"duration":0.15125000000000455},{"name":"C5","midi":72,"time":70.95249999999976,"velocity":0.5196850393700787,"duration":0.15499999999998693},{"name":"D3","midi":50,"time":71.09937499999975,"velocity":0.5118110236220472,"duration":0.15124999999999034},{"name":"D5","midi":74,"time":71.10562499999975,"velocity":0.5118110236220472,"duration":0.2974999999999852},{"name":"A#4","midi":70,"time":71.25374999999974,"velocity":0.5039370078740157,"duration":0.1524999999999892},{"name":"G2","midi":43,"time":71.40062499999974,"velocity":0.49606299212598426,"duration":0.14812499999999318},{"name":"C5","midi":72,"time":71.40499999999973,"velocity":0.49606299212598426,"duration":0.14624999999999488},{"name":"A4","midi":69,"time":71.55374999999972,"velocity":0.4881889763779528,"duration":0.14999999999999147},{"name":"D3","midi":50,"time":71.69749999999972,"velocity":0.48031496062992124,"duration":0.14749999999999375},{"name":"A#4","midi":70,"time":71.70249999999972,"velocity":0.48031496062992124,"duration":0.14312499999999773},{"name":"G4","midi":67,"time":71.84874999999971,"velocity":0.47244094488188976,"duration":0.1581250000000125},{"name":"A4","midi":69,"time":71.99749999999972,"velocity":0.47244094488188976,"duration":0.171875},{"name":"D2","midi":38,"time":71.99874999999972,"velocity":0.47244094488188976,"duration":0.1637500000000074},{"name":"D3","midi":50,"time":72.29874999999971,"velocity":0.4645669291338583,"duration":0.1524999999999892},{"name":"D4","midi":62,"time":72.30249999999971,"velocity":0.4645669291338583,"duration":0.30999999999998806},{"name":"C3","midi":48,"time":72.4474999999997,"velocity":0.48031496062992124,"duration":0.16062499999999602},{"name":"A#2","midi":46,"time":72.60124999999971,"velocity":0.4881889763779528,"duration":0.14499999999999602},{"name":"G4","midi":67,"time":72.60312499999971,"velocity":0.4881889763779528,"duration":0.28437499999999716},{"name":"A2","midi":45,"time":72.89812499999971,"velocity":0.5196850393700787,"duration":0.14624999999999488},{"name":"A#4","midi":70,"time":72.89937499999971,"velocity":0.5196850393700787,"duration":0.14999999999999147},{"name":"A4","midi":69,"time":73.0462499999997,"velocity":0.5275590551181102,"duration":0.15562499999998636},{"name":"A#4","midi":70,"time":73.19749999999969,"velocity":0.5433070866141733,"duration":0.15499999999998693},{"name":"G2","midi":43,"time":73.19999999999969,"velocity":0.5433070866141733,"duration":0.20937499999999432},{"name":"F#4","midi":66,"time":73.34812499999968,"velocity":0.5590551181102362,"duration":0.15124999999999034},{"name":"G4","midi":67,"time":73.49499999999968,"velocity":0.5669291338582677,"duration":0.16062499999999602},{"name":"D4","midi":62,"time":73.64749999999967,"velocity":0.5826771653543307,"duration":0.16187499999999488},{"name":"F2","midi":41,"time":73.80062499999967,"velocity":0.5984251968503937,"duration":0.15749999999998465},{"name":"B4","midi":71,"time":73.80249999999967,"velocity":0.5984251968503937,"duration":0.15499999999998693},{"name":"F4","midi":65,"time":73.95062499999966,"velocity":0.6062992125984252,"duration":0.15562499999998636},{"name":"G4","midi":67,"time":74.09937499999965,"velocity":0.6220472440944882,"duration":0.15374999999998806},{"name":"D4","midi":62,"time":74.24812499999965,"velocity":0.6377952755905512,"duration":0.1606249999999818},{"name":"D#2","midi":39,"time":74.40062499999964,"velocity":0.6456692913385826,"duration":0.1487499999999926},{"name":"C5","midi":72,"time":74.40249999999963,"velocity":0.6456692913385826,"duration":0.15374999999998806},{"name":"D4","midi":62,"time":74.55499999999962,"velocity":0.6614173228346457,"duration":0.15187499999998977},{"name":"D#4","midi":63,"time":74.70312499999962,"velocity":0.6771653543307087,"duration":0.15374999999998806},{"name":"G3","midi":55,"time":74.70374999999962,"velocity":0.6771653543307087,"duration":0.14499999999999602},{"name":"F3","midi":53,"time":74.84687499999961,"velocity":0.6850393700787402,"duration":0.15937499999998295},{"name":"G4","midi":67,"time":74.85187499999961,"velocity":0.6850393700787402,"duration":0.15374999999998806},{"name":"D#3","midi":51,"time":74.9987499999996,"velocity":0.7007874015748031,"duration":0.15499999999998693},{"name":"C5","midi":72,"time":75.0224999999996,"velocity":0.7007874015748031,"duration":0.15374999999998806},{"name":"G4","midi":67,"time":75.16124999999958,"velocity":0.7165354330708661,"duration":0.1462500000000091},{"name":"D3","midi":50,"time":75.29624999999959,"velocity":0.7244094488188977,"duration":0.1581249999999983},{"name":"D5","midi":74,"time":75.3068749999996,"velocity":0.7322834645669292,"duration":0.14624999999999488},{"name":"G4","midi":67,"time":75.45624999999959,"velocity":0.7401574803149606,"duration":0.1424999999999983},{"name":"C3","midi":48,"time":75.59749999999958,"velocity":0.7559055118110236,"duration":0.22437499999999488},{"name":"D#5","midi":75,"time":75.60187499999958,"velocity":0.7559055118110236,"duration":0.15500000000000114},{"name":"B4","midi":71,"time":75.75499999999958,"velocity":0.7716535433070866,"duration":0.1506249999999909},{"name":"C5","midi":72,"time":75.90312499999958,"velocity":0.7795275590551181,"duration":0.14999999999999147},{"name":"G4","midi":67,"time":76.05249999999957,"velocity":0.7952755905511811,"duration":0.15374999999998806},{"name":"A#2","midi":46,"time":76.20062499999956,"velocity":0.8110236220472441,"duration":0.2168750000000017},{"name":"E5","midi":76,"time":76.20187499999956,"velocity":0.8110236220472441,"duration":0.15874999999999773},{"name":"A#4","midi":70,"time":76.35249999999955,"velocity":0.8188976377952756,"duration":0.15687499999999943},{"name":"C5","midi":72,"time":76.50187499999956,"velocity":0.8346456692913385,"duration":0.15687499999998522},{"name":"G4","midi":67,"time":76.65499999999955,"velocity":0.8503937007874016,"duration":0.1543750000000017},{"name":"A2","midi":45,"time":76.79624999999955,"velocity":0.8582677165354331,"duration":0.15562500000000057},{"name":"F5","midi":77,"time":76.80499999999955,"velocity":0.8582677165354331,"duration":0.21937499999998522},{"name":"G4","midi":67,"time":76.95624999999954,"velocity":0.8661417322834646,"duration":0.1443749999999966},{"name":"C4","midi":60,"time":77.10124999999954,"velocity":0.8740157480314961,"duration":0.14937499999999204},{"name":"A4","midi":69,"time":77.10312499999954,"velocity":0.8740157480314961,"duration":0.14187499999999886},{"name":"A#3","midi":58,"time":77.24812499999953,"velocity":0.8740157480314961,"duration":0.1524999999999892},{"name":"C5","midi":72,"time":77.24937499999953,"velocity":0.8740157480314961,"duration":0.1624999999999801},{"name":"A3","midi":57,"time":77.39812499999952,"velocity":0.8818897637795275,"duration":0.14562499999998124},{"name":"F#5","midi":78,"time":77.40437499999952,"velocity":0.8818897637795275,"duration":0.14562499999998124},{"name":"C5","midi":72,"time":77.5531249999995,"velocity":0.8818897637795275,"duration":0.15499999999998693},{"name":"G3","midi":55,"time":77.6949999999995,"velocity":0.889763779527559,"duration":0.1506249999999909},{"name":"G5","midi":79,"time":77.70249999999949,"velocity":0.889763779527559,"duration":0.14374999999999716},{"name":"C5","midi":72,"time":77.85124999999948,"velocity":0.889763779527559,"duration":0.15312499999998863},{"name":"A5","midi":81,"time":77.99749999999948,"velocity":0.8976377952755905,"duration":0.16124999999999545},{"name":"F#3","midi":54,"time":77.99812499999948,"velocity":0.8976377952755905,"duration":0.2931249999999892},{"name":"E5","midi":76,"time":78.15062499999947,"velocity":0.8976377952755905,"duration":0.15687499999999943},{"name":"F#5","midi":78,"time":78.30062499999947,"velocity":0.905511811023622,"duration":0.14937499999999204},{"name":"D5","midi":74,"time":78.45124999999946,"velocity":0.9133858267716536,"duration":0.15812499999998408},{"name":"E3","midi":52,"time":78.59874999999946,"velocity":0.9133858267716536,"duration":0.22624999999997897},{"name":"A#5","midi":82,"time":78.60187499999945,"velocity":0.9133858267716536,"duration":0.15687499999998522},{"name":"F#5","midi":78,"time":78.75124999999944,"velocity":0.9212598425196851,"duration":0.16062499999999602},{"name":"G5","midi":79,"time":78.90249999999943,"velocity":0.9212598425196851,"duration":0.15000000000000568},{"name":"D5","midi":74,"time":79.05187499999944,"velocity":0.9291338582677166,"duration":0.16125000000000966},{"name":"C6","midi":84,"time":79.20249999999945,"velocity":0.9291338582677166,"duration":0.15749999999999886},{"name":"D3","midi":50,"time":79.20312499999945,"velocity":0.9291338582677166,"duration":0.2950000000000017},{"name":"A5","midi":81,"time":79.35312499999945,"velocity":0.9291338582677166,"duration":0.15999999999998238},{"name":"F#3","midi":54,"time":79.49749999999945,"velocity":0.9291338582677166,"duration":0.3143749999999699},{"name":"D5","midi":74,"time":79.50562499999944,"velocity":0.9291338582677166,"duration":0.15124999999999034},{"name":"C6","midi":84,"time":79.65249999999943,"velocity":0.9291338582677166,"duration":0.15874999999998352},{"name":"G3","midi":55,"time":79.80249999999943,"velocity":0.9291338582677166,"duration":0.2974999999999852},{"name":"A#5","midi":82,"time":79.80437499999942,"velocity":0.9291338582677166,"duration":0.15499999999998693},{"name":"A5","midi":81,"time":79.95374999999942,"velocity":0.937007874015748,"duration":0.15124999999999034},{"name":"A3","midi":57,"time":80.09874999999941,"velocity":0.937007874015748,"duration":0.30624999999997726},{"name":"G5","midi":79,"time":80.1056249999994,"velocity":0.937007874015748,"duration":0.14749999999999375},{"name":"F#5","midi":78,"time":80.2518749999994,"velocity":0.937007874015748,"duration":0.15874999999998352},{"name":"A#3","midi":58,"time":80.3987499999994,"velocity":0.937007874015748,"duration":0.30374999999997954},{"name":"G5","midi":79,"time":80.40437499999939,"velocity":0.937007874015748,"duration":0.1487499999999926},{"name":"D5","midi":74,"time":80.55187499999938,"velocity":0.9448818897637795,"duration":0.15562499999998636},{"name":"C4","midi":60,"time":80.69687499999938,"velocity":0.9448818897637795,"duration":0.3049999999999926},{"name":"D#5","midi":75,"time":80.70062499999938,"velocity":0.9448818897637795,"duration":0.14749999999999375},{"name":"C5","midi":72,"time":80.85062499999937,"velocity":0.9448818897637795,"duration":0.15562500000000057},{"name":"D4","midi":62,"time":80.99937499999938,"velocity":0.9448818897637795,"duration":0.301249999999996},{"name":"A#4","midi":70,"time":81.00499999999937,"velocity":0.9448818897637795,"duration":0.04999999999999716},{"name":"C5","midi":72,"time":81.02812499999936,"velocity":0.9448818897637795,"duration":0.05000000000001137},{"name":"A#4","midi":70,"time":81.06624999999937,"velocity":0.9448818897637795,"duration":0.23499999999999943},{"name":"D3","midi":50,"time":81.29874999999937,"velocity":0.952755905511811,"duration":0.2968749999999858},{"name":"A4","midi":69,"time":81.31062499999938,"velocity":0.952755905511811,"duration":0.14687499999999432},{"name":"G4","midi":67,"time":81.45812499999937,"velocity":0.952755905511811,"duration":0.08562499999999318},{"name":"G2","midi":43,"time":81.60624999999936,"velocity":0.952755905511811,"duration":0.5849999999999937},{"name":"G4","midi":67,"time":81.61062499999936,"velocity":0.952755905511811,"duration":0.5849999999999937},{"name":"G3","midi":55,"time":82.20374999999936,"velocity":0.4645669291338583,"duration":4.0518749999998676},{"name":"D4","midi":62,"time":82.20499999999936,"velocity":0.4645669291338583,"duration":0.301249999999996},{"name":"B3","midi":59,"time":82.20562499999936,"velocity":0.4645669291338583,"duration":0.30187499999999545},{"name":"E4","midi":64,"time":82.50499999999936,"velocity":0.4645669291338583,"duration":0.1543749999999875},{"name":"A3","midi":57,"time":82.50562499999936,"velocity":0.4645669291338583,"duration":0.29812499999998465},{"name":"C4","midi":60,"time":82.65437499999935,"velocity":0.4645669291338583,"duration":0.15124999999999034},{"name":"B3","midi":59,"time":82.80624999999934,"velocity":0.4645669291338583,"duration":0.3006249999999966},{"name":"D4","midi":62,"time":82.80749999999934,"velocity":0.4645669291338583,"duration":0.2993749999999977},{"name":"C4","midi":60,"time":83.10437499999934,"velocity":0.4645669291338583,"duration":0.3024999999999807},{"name":"G4","midi":67,"time":83.10437499999934,"velocity":0.4645669291338583,"duration":0.1562499999999858},{"name":"A4","midi":69,"time":83.25437499999933,"velocity":0.4645669291338583,"duration":0.15374999999998806},{"name":"D4","midi":62,"time":83.40374999999932,"velocity":0.4645669291338583,"duration":0.30562499999999204},{"name":"B4","midi":71,"time":83.40562499999932,"velocity":0.4645669291338583,"duration":0.3006249999999966},{"name":"A4","midi":69,"time":83.70374999999932,"velocity":0.4645669291338583,"duration":0.15562499999998636},{"name":"C4","midi":60,"time":83.70499999999932,"velocity":0.4645669291338583,"duration":0.29187499999999034},{"name":"F#4","midi":66,"time":83.85187499999931,"velocity":0.4645669291338583,"duration":0.14999999999999147},{"name":"G4","midi":67,"time":83.9993749999993,"velocity":0.4645669291338583,"duration":0.30812499999998977},{"name":"B3","midi":59,"time":84.0012499999993,"velocity":0.4645669291338583,"duration":0.296875},{"name":"D4","midi":62,"time":84.2987499999993,"velocity":0.4645669291338583,"duration":0.30187499999998124},{"name":"C4","midi":60,"time":84.3012499999993,"velocity":0.4645669291338583,"duration":0.2949999999999875},{"name":"B3","midi":59,"time":84.59874999999928,"velocity":0.4645669291338583,"duration":0.30187499999999545},{"name":"G4","midi":67,"time":84.60312499999928,"velocity":0.4645669291338583,"duration":0.29999999999999716},{"name":"A3","midi":57,"time":84.89624999999928,"velocity":0.4645669291338583,"duration":0.3024999999999949},{"name":"A4","midi":69,"time":84.90249999999928,"velocity":0.4645669291338583,"duration":0.1581249999999983},{"name":"F#4","midi":66,"time":85.05437499999928,"velocity":0.4645669291338583,"duration":0.14374999999999716},{"name":"B3","midi":59,"time":85.19562499999928,"velocity":0.48031496062992124,"duration":0.3143749999999841},{"name":"G4","midi":67,"time":85.20062499999928,"velocity":0.48031496062992124,"duration":0.1506249999999909},{"name":"A4","midi":69,"time":85.34874999999927,"velocity":0.5039370078740157,"duration":0.15749999999999886},{"name":"C4","midi":60,"time":85.50062499999927,"velocity":0.5196850393700787,"duration":0.2993749999999835},{"name":"B4","midi":71,"time":85.50124999999927,"velocity":0.5196850393700787,"duration":0.1524999999999892},{"name":"C5","midi":72,"time":85.64812499999927,"velocity":0.5433070866141733,"duration":0.14999999999999147},{"name":"B3","midi":59,"time":85.79749999999926,"velocity":0.5669291338582677,"duration":0.30374999999997954},{"name":"D5","midi":74,"time":85.80062499999926,"velocity":0.5669291338582677,"duration":0.14812499999999318},{"name":"B4","midi":71,"time":85.94937499999925,"velocity":0.5905511811023622,"duration":0.1506249999999909},{"name":"A3","midi":57,"time":86.09562499999925,"velocity":0.5511811023622047,"duration":0.31624999999996817},{"name":"C5","midi":72,"time":86.09874999999924,"velocity":0.5511811023622047,"duration":0.15187499999998977},{"name":"A4","midi":69,"time":86.24874999999923,"velocity":0.5118110236220472,"duration":0.214999999999975},{"name":"G3","midi":55,"time":86.40062499999922,"velocity":0.47244094488188976,"duration":0.4574999999999818},{"name":"B4","midi":71,"time":86.40562499999922,"velocity":0.47244094488188976,"duration":0.3224999999999909},{"name":"D4","midi":62,"time":86.97624999999921,"velocity":0.7165354330708661,"duration":0.03437499999999716},{"name":"B3","midi":59,"time":87.0181249999992,"velocity":0.7165354330708661,"duration":0.3149999999999977},{"name":"G3","midi":55,"time":87.0212499999992,"velocity":0.7165354330708661,"duration":4.063749999999942},{"name":"C4","midi":60,"time":87.0212499999992,"velocity":0.7165354330708661,"duration":0.06187500000000057},{"name":"D4","midi":62,"time":87.0799999999992,"velocity":0.7165354330708661,"duration":0.25},{"name":"A3","midi":57,"time":87.3218749999992,"velocity":0.7165354330708661,"duration":0.2943750000000023},{"name":"E4","midi":64,"time":87.3337499999992,"velocity":0.7165354330708661,"duration":0.1443749999999966},{"name":"C4","midi":60,"time":87.4718749999992,"velocity":0.7165354330708661,"duration":0.14562499999999545},{"name":"D4","midi":62,"time":87.6274999999992,"velocity":0.7165354330708661,"duration":0.27062499999999545},{"name":"B3","midi":59,"time":87.6337499999992,"velocity":0.7165354330708661,"duration":0.2674999999999983},{"name":"G4","midi":67,"time":87.8949999999992,"velocity":0.7165354330708661,"duration":0.1662499999999909},{"name":"C4","midi":60,"time":87.9012499999992,"velocity":0.7165354330708661,"duration":0.3062499999999915},{"name":"A4","midi":69,"time":88.0393749999992,"velocity":0.7165354330708661,"duration":0.17562499999998238},{"name":"B4","midi":71,"time":88.20749999999919,"velocity":0.7165354330708661,"duration":0.27812500000000284},{"name":"D4","midi":62,"time":88.21062499999918,"velocity":0.7165354330708661,"duration":0.28624999999999545},{"name":"C4","midi":60,"time":88.47499999999918,"velocity":0.7165354330708661,"duration":0.2749999999999915},{"name":"A4","midi":69,"time":88.49062499999918,"velocity":0.7165354330708661,"duration":0.14812499999999318},{"name":"F#4","midi":66,"time":88.61874999999918,"velocity":0.7165354330708661,"duration":0.10249999999999204},{"name":"G4","midi":67,"time":88.73812499999917,"velocity":0.7165354330708661,"duration":0.05812500000000398},{"name":"B3","midi":59,"time":88.75562499999917,"velocity":0.7165354330708661,"duration":0.32500000000000284},{"name":"F#4","midi":66,"time":88.79562499999918,"velocity":0.7165354330708661,"duration":0.06187500000000057},{"name":"G4","midi":67,"time":88.84687499999917,"velocity":0.7165354330708661,"duration":0.24500000000000455},{"name":"C4","midi":60,"time":89.08124999999917,"velocity":0.7165354330708661,"duration":0.3087500000000034},{"name":"D4","midi":62,"time":89.09749999999917,"velocity":0.7165354330708661,"duration":0.24375000000000568},{"name":"G4","midi":67,"time":89.37124999999918,"velocity":0.7165354330708661,"duration":0.07312500000000455},{"name":"B3","midi":59,"time":89.38249999999918,"velocity":0.7165354330708661,"duration":0.3143749999999983},{"name":"F#4","midi":66,"time":89.41999999999918,"velocity":0.7165354330708661,"duration":0.08500000000000796},{"name":"G4","midi":67,"time":89.50312499999919,"velocity":0.7165354330708661,"duration":0.19874999999998977},{"name":"A3","midi":57,"time":89.69124999999919,"velocity":0.7165354330708661,"duration":0.31562499999999716},{"name":"A4","midi":69,"time":89.70187499999918,"velocity":0.7165354330708661,"duration":0.15312500000000284},{"name":"F#4","midi":66,"time":89.84249999999918,"velocity":0.7165354330708661,"duration":0.13437500000000568},{"name":"G4","midi":67,"time":89.97874999999918,"velocity":0.7244094488188977,"duration":0.15749999999999886},{"name":"B3","midi":59,"time":89.98999999999918,"velocity":0.7244094488188977,"duration":0.28062499999998636},{"name":"A4","midi":69,"time":90.13249999999918,"velocity":0.7401574803149606,"duration":0.15687499999998522},{"name":"C4","midi":60,"time":90.26562499999918,"velocity":0.7637795275590551,"duration":0.3168749999999818},{"name":"B4","midi":71,"time":90.27249999999917,"velocity":0.7637795275590551,"duration":0.16124999999999545},{"name":"C5","midi":72,"time":90.41312499999917,"velocity":0.7874015748031497,"duration":0.15937499999999716},{"name":"D5","midi":74,"time":90.57999999999916,"velocity":0.7952755905511811,"duration":0.1662499999999909},{"name":"B3","midi":59,"time":90.58687499999915,"velocity":0.7952755905511811,"duration":0.30937499999998863},{"name":"B4","midi":71,"time":90.73437499999915,"velocity":0.7716535433070866,"duration":0.1643749999999926},{"name":"A3","midi":57,"time":90.85562499999915,"velocity":0.7559055118110236,"duration":0.34687499999998295},{"name":"C5","midi":72,"time":90.87499999999915,"velocity":0.7480314960629921,"duration":0.16312499999999375},{"name":"A4","midi":69,"time":91.01999999999914,"velocity":0.7322834645669292,"duration":0.20562499999998352},{"name":"G3","midi":55,"time":91.18062499999914,"velocity":0.7086614173228346,"duration":0.47937499999999034},{"name":"B4","midi":71,"time":91.20062499999914,"velocity":0.7007874015748031,"duration":0.4668749999999875},{"name":"B3","midi":59,"time":91.80062499999913,"velocity":0.7007874015748031,"duration":0.3024999999999949},{"name":"D5","midi":74,"time":91.80062499999913,"velocity":0.7007874015748031,"duration":0.3024999999999949},{"name":"G3","midi":55,"time":91.80124999999913,"velocity":0.7007874015748031,"duration":14.399999999999977},{"name":"A3","midi":57,"time":92.10062499999913,"velocity":0.7007874015748031,"duration":0.2956249999999869},{"name":"E5","midi":76,"time":92.10124999999913,"velocity":0.7007874015748031,"duration":0.1506249999999909},{"name":"C5","midi":72,"time":92.25124999999912,"velocity":0.7007874015748031,"duration":0.14937499999999204},{"name":"B3","midi":59,"time":92.39937499999911,"velocity":0.7007874015748031,"duration":0.2987499999999983},{"name":"D5","midi":74,"time":92.40124999999911,"velocity":0.7007874015748031,"duration":0.29625000000000057},{"name":"E4","midi":64,"time":92.69874999999911,"velocity":0.7007874015748031,"duration":0.29937500000001194},{"name":"C5","midi":72,"time":92.69937499999911,"velocity":0.7007874015748031,"duration":0.14875000000000682},{"name":"A4","midi":69,"time":92.84937499999911,"velocity":0.7007874015748031,"duration":0.14875000000000682},{"name":"D4","midi":62,"time":92.99874999999912,"velocity":0.7007874015748031,"duration":0.30000000000001137},{"name":"B4","midi":71,"time":92.99937499999912,"velocity":0.7007874015748031,"duration":0.14875000000000682},{"name":"G4","midi":67,"time":93.14937499999913,"velocity":0.6692913385826772,"duration":0.14937500000000625},{"name":"C4","midi":60,"time":93.29937499999913,"velocity":0.6377952755905512,"duration":0.2974999999999852},{"name":"A4","midi":69,"time":93.30062499999913,"velocity":0.6377952755905512,"duration":0.14687499999999432},{"name":"F#4","midi":66,"time":93.44874999999912,"velocity":0.6062992125984252,"duration":0.15124999999999034},{"name":"B3","midi":59,"time":93.59874999999911,"velocity":0.5826771653543307,"duration":0.301249999999996},{"name":"G4","midi":67,"time":93.59874999999911,"velocity":0.5826771653543307,"duration":0.3006249999999966},{"name":"A3","midi":57,"time":93.89874999999911,"velocity":0.5196850393700787,"duration":0.15125000000000455},{"name":"D4","midi":62,"time":93.89874999999911,"velocity":0.5196850393700787,"duration":0.30125000000001023},{"name":"B3","midi":59,"time":94.04874999999912,"velocity":0.4881889763779528,"duration":0.15125000000000455},{"name":"E4","midi":64,"time":94.19874999999912,"velocity":0.4881889763779528,"duration":0.15187500000000398},{"name":"C4","midi":60,"time":94.20062499999912,"velocity":0.4881889763779528,"duration":0.29562500000000114},{"name":"D4","midi":62,"time":94.34937499999913,"velocity":0.4881889763779528,"duration":0.1506249999999909},{"name":"B3","midi":59,"time":94.49874999999912,"velocity":0.4881889763779528,"duration":0.3006249999999966},{"name":"G4","midi":67,"time":94.50062499999912,"velocity":0.4881889763779528,"duration":0.14812499999999318},{"name":"D4","midi":62,"time":94.64937499999911,"velocity":0.4881889763779528,"duration":0.15062500000000512},{"name":"C4","midi":60,"time":94.79937499999912,"velocity":0.4881889763779528,"duration":0.2993749999999977},{"name":"E4","midi":64,"time":94.80062499999912,"velocity":0.4881889763779528,"duration":0.14749999999999375},{"name":"D4","midi":62,"time":94.94937499999911,"velocity":0.4881889763779528,"duration":0.15125000000000455},{"name":"G4","midi":67,"time":95.09937499999911,"velocity":0.48031496062992124,"duration":0.15000000000000568},{"name":"B3","midi":59,"time":95.10062499999911,"velocity":0.48031496062992124,"duration":0.30125000000001023},{"name":"D4","midi":62,"time":95.24937499999912,"velocity":0.48031496062992124,"duration":0.15062500000000512},{"name":"C4","midi":60,"time":95.40062499999912,"velocity":0.48031496062992124,"duration":0.1487499999999926},{"name":"E4","midi":64,"time":95.40062499999912,"velocity":0.48031496062992124,"duration":0.14687499999999432},{"name":"D4","midi":62,"time":95.54874999999912,"velocity":0.48031496062992124,"duration":0.15312500000000284},{"name":"C4","midi":60,"time":95.69999999999912,"velocity":0.48031496062992124,"duration":0.1487499999999926},{"name":"A4","midi":69,"time":95.70124999999912,"velocity":0.48031496062992124,"duration":0.1599999999999966},{"name":"A3","midi":57,"time":95.84937499999911,"velocity":0.48031496062992124,"duration":0.15375000000000227},{"name":"C4","midi":60,"time":96.00124999999912,"velocity":0.48031496062992124,"duration":0.4156250000000057},{"name":"F#4","midi":66,"time":96.00249999999912,"velocity":0.48031496062992124,"duration":0.3256250000000023},{"name":"A4","midi":69,"time":96.00249999999912,"velocity":0.48031496062992124,"duration":0.40125000000000455},{"name":"C4","midi":60,"time":96.59937499999913,"velocity":0.48031496062992124,"duration":0.30187499999999545},{"name":"A4","midi":69,"time":96.59937499999913,"velocity":0.48031496062992124,"duration":0.3024999999999949},{"name":"B4","midi":71,"time":96.89937499999913,"velocity":0.5118110236220472,"duration":0.15124999999999034},{"name":"D4","midi":62,"time":96.90124999999912,"velocity":0.5118110236220472,"duration":0.3006249999999966},{"name":"G4","midi":67,"time":97.04874999999912,"velocity":0.5275590551181102,"duration":0.15500000000000114},{"name":"C5","midi":72,"time":97.20062499999912,"velocity":0.5433070866141733,"duration":0.30187499999999545},{"name":"E4","midi":64,"time":97.20124999999912,"velocity":0.5433070866141733,"duration":0.3006249999999966},{"name":"D4","midi":62,"time":97.50062499999912,"velocity":0.5669291338582677,"duration":0.29999999999999716},{"name":"B4","midi":71,"time":97.50062499999912,"velocity":0.5669291338582677,"duration":0.14749999999999375},{"name":"G4","midi":67,"time":97.64937499999911,"velocity":0.5826771653543307,"duration":0.15187500000000398},{"name":"C4","midi":60,"time":97.79937499999912,"velocity":0.5984251968503937,"duration":0.301249999999996},{"name":"E5","midi":76,"time":97.80062499999912,"velocity":0.5984251968503937,"duration":0.1487499999999926},{"name":"C5","midi":72,"time":97.94937499999911,"velocity":0.6141732283464567,"duration":0.15187500000000398},{"name":"B3","midi":59,"time":98.09937499999911,"velocity":0.6299212598425197,"duration":0.3006249999999966},{"name":"D5","midi":74,"time":98.09937499999911,"velocity":0.6299212598425197,"duration":0.15062500000000512},{"name":"B4","midi":71,"time":98.25062499999912,"velocity":0.6456692913385826,"duration":0.1487499999999926},{"name":"A3","midi":57,"time":98.39874999999911,"velocity":0.6535433070866141,"duration":0.3006250000000108},{"name":"C5","midi":72,"time":98.40062499999911,"velocity":0.6535433070866141,"duration":0.2206250000000125},{"name":"B4","midi":71,"time":98.54937499999912,"velocity":0.6535433070866141,"duration":0.15000000000000568},{"name":"B3","midi":59,"time":98.69874999999912,"velocity":0.6377952755905512,"duration":0.30374999999999375},{"name":"A4","midi":69,"time":98.69937499999912,"velocity":0.6377952755905512,"duration":0.14812499999999318},{"name":"G4","midi":67,"time":98.84874999999911,"velocity":0.6220472440944882,"duration":0.1525000000000034},{"name":"C4","midi":60,"time":98.99937499999912,"velocity":0.6141732283464567,"duration":0.3006249999999824},{"name":"A4","midi":69,"time":98.99937499999912,"velocity":0.6141732283464567,"duration":0.15312499999998863},{"name":"B4","midi":71,"time":99.15062499999911,"velocity":0.5984251968503937,"duration":0.14937499999999204},{"name":"D4","midi":62,"time":99.2993749999991,"velocity":0.5826771653543307,"duration":0.2987499999999983},{"name":"C5","midi":72,"time":99.2993749999991,"velocity":0.5826771653543307,"duration":0.15125000000000455},{"name":"B4","midi":71,"time":99.44937499999911,"velocity":0.5669291338582677,"duration":0.15124999999999034},{"name":"C4","midi":60,"time":99.5987499999991,"velocity":0.5590551181102362,"duration":0.3024999999999949},{"name":"A4","midi":69,"time":99.5993749999991,"velocity":0.5590551181102362,"duration":0.15187500000000398},{"name":"G4","midi":67,"time":99.7506249999991,"velocity":0.5433070866141733,"duration":0.14937499999999204},{"name":"E4","midi":64,"time":99.8993749999991,"velocity":0.5275590551181102,"duration":0.2987499999999983},{"name":"F#4","midi":66,"time":99.9006249999991,"velocity":0.5275590551181102,"duration":0.15375000000000227},{"name":"G4","midi":67,"time":100.0512499999991,"velocity":0.5118110236220472,"duration":0.14749999999999375},{"name":"D4","midi":62,"time":100.1993749999991,"velocity":0.5039370078740157,"duration":0.301249999999996},{"name":"A4","midi":69,"time":100.20124999999909,"velocity":0.5039370078740157,"duration":0.15000000000000568},{"name":"G4","midi":67,"time":100.3506249999991,"velocity":0.4881889763779528,"duration":0.14812499999999318},{"name":"C4","midi":60,"time":100.49937499999909,"velocity":0.47244094488188976,"duration":0.3025000000000091},{"name":"F#4","midi":66,"time":100.49937499999909,"velocity":0.47244094488188976,"duration":0.1525000000000034},{"name":"E4","midi":64,"time":100.6499999999991,"velocity":0.4566929133858268,"duration":0.15187500000000398},{"name":"D4","midi":62,"time":100.8006249999991,"velocity":0.44881889763779526,"duration":0.3612499999999983},{"name":"B3","midi":59,"time":100.8012499999991,"velocity":0.44881889763779526,"duration":0.2987499999999983},{"name":"C4","midi":60,"time":101.1006249999991,"velocity":0.41732283464566927,"duration":0.2993749999999977},{"name":"B3","midi":59,"time":101.4006249999991,"velocity":0.41732283464566927,"duration":0.29812499999999886},{"name":"D4","midi":62,"time":101.4012499999991,"velocity":0.41732283464566927,"duration":0.29625000000000057},{"name":"A3","midi":57,"time":101.6993749999991,"velocity":0.41732283464566927,"duration":0.3031249999999943},{"name":"E4","midi":64,"time":101.6993749999991,"velocity":0.41732283464566927,"duration":0.15375000000000227},{"name":"C4","midi":60,"time":101.8506249999991,"velocity":0.4094488188976378,"duration":0.1524999999999892},{"name":"B3","midi":59,"time":102.00124999999909,"velocity":0.4330708661417323,"duration":0.29625000000000057},{"name":"D4","midi":62,"time":102.00187499999909,"velocity":0.4330708661417323,"duration":0.2943750000000023},{"name":"G4","midi":67,"time":102.29874999999909,"velocity":0.4881889763779528,"duration":0.15187500000000398},{"name":"C4","midi":60,"time":102.29937499999909,"velocity":0.4881889763779528,"duration":0.30375000000000796},{"name":"A4","midi":69,"time":102.4487499999991,"velocity":0.5118110236220472,"duration":0.21625000000000227},{"name":"D4","midi":62,"time":102.6006249999991,"velocity":0.5354330708661418,"duration":0.301249999999996},{"name":"B4","midi":71,"time":102.6006249999991,"velocity":0.5354330708661418,"duration":0.301249999999996},{"name":"C4","midi":60,"time":102.9006249999991,"velocity":0.4881889763779528,"duration":0.2993749999999977},{"name":"A4","midi":69,"time":102.9006249999991,"velocity":0.4881889763779528,"duration":0.15187500000000398},{"name":"F#4","midi":66,"time":103.0506249999991,"velocity":0.4645669291338583,"duration":0.1506249999999909},{"name":"G4","midi":67,"time":103.20062499999909,"velocity":0.4409448818897638,"duration":0.301249999999996},{"name":"B3","midi":59,"time":103.20124999999909,"velocity":0.4409448818897638,"duration":0.29749999999999943},{"name":"D4","midi":62,"time":103.50062499999909,"velocity":0.4251968503937008,"duration":0.17812499999999432},{"name":"B4","midi":71,"time":103.79937499999909,"velocity":0.3858267716535433,"duration":0.15187500000000398},{"name":"D4","midi":62,"time":103.80062499999909,"velocity":0.3858267716535433,"duration":0.15000000000000568},{"name":"F#4","midi":66,"time":103.9493749999991,"velocity":0.3858267716535433,"duration":0.14999999999999147},{"name":"G4","midi":67,"time":104.09874999999909,"velocity":0.3858267716535433,"duration":0.14937500000000625},{"name":"D4","midi":62,"time":104.24937499999909,"velocity":0.3858267716535433,"duration":0.22812500000000568},{"name":"B3","midi":59,"time":104.4006249999991,"velocity":0.3779527559055118,"duration":0.21187500000000625},{"name":"D5","midi":74,"time":104.4006249999991,"velocity":0.3779527559055118,"duration":0.14750000000000796},{"name":"F#4","midi":66,"time":104.5493749999991,"velocity":0.3779527559055118,"duration":0.15375000000000227},{"name":"G4","midi":67,"time":104.7006249999991,"velocity":0.3779527559055118,"duration":0.14937499999999204},{"name":"D4","midi":62,"time":104.8506249999991,"velocity":0.3779527559055118,"duration":0.30125000000001023},{"name":"B4","midi":71,"time":105.0006249999991,"velocity":0.3779527559055118,"duration":0.1525000000000034},{"name":"F#4","midi":66,"time":105.15062499999911,"velocity":0.3700787401574803,"duration":0.15187499999998977},{"name":"G4","midi":67,"time":105.3012499999991,"velocity":0.3700787401574803,"duration":0.14812499999999318},{"name":"D4","midi":62,"time":105.45062499999909,"velocity":0.3700787401574803,"duration":0.4431250000000091},{"name":"G4","midi":67,"time":105.6024999999991,"velocity":0.3700787401574803,"duration":0.27625000000000455},{"name":"B3","midi":59,"time":105.6606249999991,"velocity":0.3700787401574803,"duration":0.3712500000000034},{"name":"G3","midi":55,"time":106.2024999999991,"velocity":0.6929133858267716,"duration":14.83874999999965},{"name":"B3","midi":59,"time":106.2043749999991,"velocity":0.6929133858267716,"duration":0.3024999999999949},{"name":"D5","midi":74,"time":106.2049999999991,"velocity":0.6929133858267716,"duration":0.3006249999999966},{"name":"A3","midi":57,"time":106.5024999999991,"velocity":0.6929133858267716,"duration":0.2906249999999915},{"name":"E5","midi":76,"time":106.5031249999991,"velocity":0.6929133858267716,"duration":0.14812499999999318},{"name":"C5","midi":72,"time":106.6506249999991,"velocity":0.6929133858267716,"duration":0.16124999999999545},{"name":"B3","midi":59,"time":106.8012499999991,"velocity":0.6929133858267716,"duration":0.3006249999999824},{"name":"D5","midi":74,"time":106.8049999999991,"velocity":0.6929133858267716,"duration":0.2987499999999841},{"name":"C5","midi":72,"time":107.09937499999909,"velocity":0.6929133858267716,"duration":0.15374999999998806},{"name":"E4","midi":64,"time":107.10312499999908,"velocity":0.6929133858267716,"duration":0.3031249999999943},{"name":"A4","midi":69,"time":107.24999999999908,"velocity":0.6850393700787402,"duration":0.15187500000000398},{"name":"B4","midi":71,"time":107.40249999999908,"velocity":0.6614173228346457,"duration":0.1487499999999926},{"name":"D4","midi":62,"time":107.40312499999908,"velocity":0.6614173228346457,"duration":0.29374999999998863},{"name":"G4","midi":67,"time":107.54937499999907,"velocity":0.6377952755905512,"duration":0.14687499999999432},{"name":"A4","midi":69,"time":107.69874999999907,"velocity":0.6141732283464567,"duration":0.15187499999998977},{"name":"C4","midi":60,"time":107.70062499999906,"velocity":0.6141732283464567,"duration":0.25499999999998124},{"name":"F#4","midi":66,"time":107.84687499999906,"velocity":0.5984251968503937,"duration":0.10499999999998977},{"name":"G4","midi":67,"time":107.95124999999905,"velocity":0.5826771653543307,"duration":0.060625000000001705},{"name":"B3","midi":59,"time":107.96562499999905,"velocity":0.5748031496062992,"duration":0.301249999999996},{"name":"F#4","midi":66,"time":108.01874999999905,"velocity":0.5669291338582677,"duration":0.04749999999999943},{"name":"G4","midi":67,"time":108.05437499999904,"velocity":0.5669291338582677,"duration":0.265625},{"name":"A3","midi":57,"time":108.29499999999905,"velocity":0.5433070866141733,"duration":0.16249999999999432},{"name":"D4","midi":62,"time":108.30062499999904,"velocity":0.5433070866141733,"duration":0.29375000000000284},{"name":"B3","midi":59,"time":108.44687499999904,"velocity":0.5354330708661418,"duration":0.1525000000000034},{"name":"C4","midi":60,"time":108.59812499999904,"velocity":0.5354330708661418,"duration":0.30187499999999545},{"name":"E4","midi":64,"time":108.60062499999904,"velocity":0.5354330708661418,"duration":0.15187500000000398},{"name":"D4","midi":62,"time":108.75124999999905,"velocity":0.5275590551181102,"duration":0.15124999999999034},{"name":"B3","midi":59,"time":108.90062499999904,"velocity":0.5275590551181102,"duration":0.29937500000001194},{"name":"G4","midi":67,"time":108.90124999999904,"velocity":0.5275590551181102,"duration":0.16312500000000796},{"name":"D4","midi":62,"time":109.05374999999904,"velocity":0.5196850393700787,"duration":0.14562500000000966},{"name":"C4","midi":60,"time":109.20249999999905,"velocity":0.5196850393700787,"duration":0.2893749999999926},{"name":"E4","midi":64,"time":109.20312499999905,"velocity":0.5196850393700787,"duration":0.140625},{"name":"D4","midi":62,"time":109.34749999999904,"velocity":0.5118110236220472,"duration":0.15499999999998693},{"name":"B3","midi":59,"time":109.49749999999904,"velocity":0.5039370078740157,"duration":0.31312499999999943},{"name":"G4","midi":67,"time":109.50062499999903,"velocity":0.5039370078740157,"duration":0.30750000000000455},{"name":"D4","midi":62,"time":109.65312499999904,"velocity":0.5039370078740157,"duration":0.15312500000000284},{"name":"C4","midi":60,"time":109.80562499999904,"velocity":0.49606299212598426,"duration":0.1524999999999892},{"name":"E4","midi":64,"time":109.80624999999904,"velocity":0.49606299212598426,"duration":0.14499999999999602},{"name":"D4","midi":62,"time":109.95312499999903,"velocity":0.49606299212598426,"duration":0.14687499999999432},{"name":"C4","midi":60,"time":110.10062499999903,"velocity":0.4881889763779528,"duration":0.15124999999999034},{"name":"A4","midi":69,"time":110.10312499999903,"velocity":0.4881889763779528,"duration":0.15312499999998863},{"name":"A3","midi":57,"time":110.24937499999902,"velocity":0.4881889763779528,"duration":0.1599999999999966},{"name":"C4","midi":60,"time":110.40499999999902,"velocity":0.48031496062992124,"duration":0.4006250000000051},{"name":"A4","midi":69,"time":110.40562499999902,"velocity":0.48031496062992124,"duration":0.43062500000000625},{"name":"F#4","midi":66,"time":110.40624999999902,"velocity":0.48031496062992124,"duration":0.35999999999999943},{"name":"A4","midi":69,"time":110.97499999999903,"velocity":0.5354330708661418,"duration":0.03562499999999602},{"name":"C4","midi":60,"time":110.98749999999903,"velocity":0.5354330708661418,"duration":0.31374999999999886},{"name":"G4","midi":67,"time":111.01874999999903,"velocity":0.5354330708661418,"duration":0.06187500000000057},{"name":"A4","midi":69,"time":111.06374999999903,"velocity":0.5433070866141733,"duration":0.28999999999999204},{"name":"D4","midi":62,"time":111.29937499999903,"velocity":0.5511811023622047,"duration":0.3068749999999767},{"name":"B4","midi":71,"time":111.30312499999903,"velocity":0.5511811023622047,"duration":0.14624999999999488},{"name":"G4","midi":67,"time":111.45062499999902,"velocity":0.5590551181102362,"duration":0.1524999999999892},{"name":"C5","midi":72,"time":111.59874999999901,"velocity":0.5669291338582677,"duration":0.30999999999998806},{"name":"E4","midi":64,"time":111.60249999999901,"velocity":0.5669291338582677,"duration":0.30187499999999545},{"name":"B4","midi":71,"time":111.89937499999901,"velocity":0.5826771653543307,"duration":0.14999999999999147},{"name":"D4","midi":62,"time":111.90187499999901,"velocity":0.5826771653543307,"duration":0.2949999999999875},{"name":"G4","midi":67,"time":112.051249999999,"velocity":0.5905511811023622,"duration":0.15124999999999034},{"name":"C4","midi":60,"time":112.200624999999,"velocity":0.5984251968503937,"duration":0.292500000000004},{"name":"E5","midi":76,"time":112.200624999999,"velocity":0.5984251968503937,"duration":0.15749999999999886},{"name":"C5","midi":72,"time":112.351874999999,"velocity":0.6062992125984252,"duration":0.15124999999999034},{"name":"B3","midi":59,"time":112.495624999999,"velocity":0.6141732283464567,"duration":0.2993749999999835},{"name":"D5","midi":74,"time":112.50124999999899,"velocity":0.6141732283464567,"duration":0.14124999999999943},{"name":"B4","midi":71,"time":112.64812499999898,"velocity":0.6220472440944882,"duration":0.14937499999999204},{"name":"A3","midi":57,"time":112.79187499999898,"velocity":0.6299212598425197,"duration":0.30812499999998977},{"name":"C5","midi":72,"time":112.79812499999898,"velocity":0.6299212598425197,"duration":0.15687499999999943},{"name":"B4","midi":71,"time":112.94624999999897,"velocity":0.6377952755905512,"duration":0.15625},{"name":"B3","midi":59,"time":113.09499999999898,"velocity":0.6456692913385826,"duration":0.3106249999999875},{"name":"A4","midi":69,"time":113.09874999999897,"velocity":0.6456692913385826,"duration":0.1487499999999926},{"name":"G4","midi":67,"time":113.24687499999897,"velocity":0.6535433070866141,"duration":0.15749999999999886},{"name":"C4","midi":60,"time":113.40062499999897,"velocity":0.6614173228346457,"duration":0.2987499999999841},{"name":"A4","midi":69,"time":113.40062499999897,"velocity":0.6614173228346457,"duration":0.15312499999998863},{"name":"B4","midi":71,"time":113.54937499999896,"velocity":0.6692913385826772,"duration":0.14937499999999204},{"name":"C5","midi":72,"time":113.69687499999895,"velocity":0.6771653543307087,"duration":0.15749999999998465},{"name":"D4","midi":62,"time":113.69812499999895,"velocity":0.6771653543307087,"duration":0.3012499999999818},{"name":"B4","midi":71,"time":113.84687499999895,"velocity":0.6850393700787402,"duration":0.16187499999998067},{"name":"C4","midi":60,"time":113.99812499999894,"velocity":0.6929133858267716,"duration":0.2956249999999869},{"name":"A4","midi":69,"time":114.00187499999893,"velocity":0.6929133858267716,"duration":0.14687499999999432},{"name":"G4","midi":67,"time":114.15187499999892,"velocity":0.6850393700787402,"duration":0.1424999999999983},{"name":"E4","midi":64,"time":114.29562499999892,"velocity":0.6692913385826772,"duration":0.30374999999999375},{"name":"F#4","midi":66,"time":114.29874999999892,"velocity":0.6692913385826772,"duration":0.14124999999999943},{"name":"G4","midi":67,"time":114.44374999999891,"velocity":0.6456692913385826,"duration":0.15749999999999886},{"name":"D4","midi":62,"time":114.59624999999892,"velocity":0.6220472440944882,"duration":0.2912499999999909},{"name":"A4","midi":69,"time":114.59812499999892,"velocity":0.6220472440944882,"duration":0.14562499999999545},{"name":"G4","midi":67,"time":114.74624999999891,"velocity":0.5984251968503937,"duration":0.14374999999999716},{"name":"F#4","midi":66,"time":114.8918749999989,"velocity":0.5826771653543307,"duration":0.15187500000000398},{"name":"C4","midi":60,"time":114.8931249999989,"velocity":0.5826771653543307,"duration":0.29812499999999886},{"name":"E4","midi":64,"time":115.04187499999891,"velocity":0.5590551181102362,"duration":0.14562499999999545},{"name":"D4","midi":62,"time":115.1906249999989,"velocity":0.5354330708661418,"duration":0.01562499999998579},{"name":"B3","midi":59,"time":115.1943749999989,"velocity":0.5354330708661418,"duration":0.3006249999999966},{"name":"E4","midi":64,"time":115.20187499999889,"velocity":0.5354330708661418,"duration":0.01624999999999943},{"name":"D4","midi":62,"time":115.20937499999889,"velocity":0.5354330708661418,"duration":0.3831250000000068},{"name":"C4","midi":60,"time":115.4968749999989,"velocity":0.48031496062992124,"duration":0.18437500000000284},{"name":"D4","midi":62,"time":115.7756249999989,"velocity":0.5118110236220472,"duration":0.06125000000000114},{"name":"B3","midi":59,"time":115.7906249999989,"velocity":0.5118110236220472,"duration":0.3199999999999932},{"name":"C4","midi":60,"time":115.8368749999989,"velocity":0.5118110236220472,"duration":0.05812500000000398},{"name":"D4","midi":62,"time":115.8843749999989,"velocity":0.5118110236220472,"duration":0.23687499999999773},{"name":"A3","midi":57,"time":116.0981249999989,"velocity":0.5039370078740157,"duration":0.2987499999999841},{"name":"E4","midi":64,"time":116.1037499999989,"velocity":0.5039370078740157,"duration":0.140625},{"name":"C4","midi":60,"time":116.24874999999889,"velocity":0.5039370078740157,"duration":0.15937499999998295},{"name":"B3","midi":59,"time":116.40312499999888,"velocity":0.49606299212598426,"duration":0.2931250000000034},{"name":"D4","midi":62,"time":116.40437499999888,"velocity":0.49606299212598426,"duration":0.2831249999999983},{"name":"C4","midi":60,"time":116.69687499999888,"velocity":0.5196850393700787,"duration":0.31187499999998636},{"name":"G4","midi":67,"time":116.69874999999888,"velocity":0.5196850393700787,"duration":0.14812499999999318},{"name":"A4","midi":69,"time":116.84874999999887,"velocity":0.5354330708661418,"duration":0.16249999999999432},{"name":"D4","midi":62,"time":117.00249999999888,"velocity":0.5511811023622047,"duration":0.2949999999999875},{"name":"B4","midi":71,"time":117.00687499999887,"velocity":0.5590551181102362,"duration":0.28437499999999716},{"name":"C4","midi":60,"time":117.29812499999886,"velocity":0.5196850393700787,"duration":0.30812499999998977},{"name":"A4","midi":69,"time":117.30062499999886,"velocity":0.5196850393700787,"duration":0.14749999999999375},{"name":"F#4","midi":66,"time":117.44687499999885,"velocity":0.5039370078740157,"duration":0.1525000000000034},{"name":"B3","midi":59,"time":117.60062499999886,"velocity":0.48031496062992124,"duration":0.29812499999999886},{"name":"G4","midi":67,"time":117.60312499999885,"velocity":0.48031496062992124,"duration":0.29562500000000114},{"name":"D4","midi":62,"time":117.90187499999885,"velocity":0.4645669291338583,"duration":0.19499999999999318},{"name":"B4","midi":71,"time":118.20562499999885,"velocity":0.41732283464566927,"duration":0.15124999999999034},{"name":"D4","midi":62,"time":118.20624999999885,"velocity":0.41732283464566927,"duration":0.1487499999999926},{"name":"F#4","midi":66,"time":118.35374999999884,"velocity":0.41732283464566927,"duration":0.15187499999998977},{"name":"G4","midi":67,"time":118.50312499999883,"velocity":0.41732283464566927,"duration":0.1443749999999966},{"name":"D4","midi":62,"time":118.65249999999882,"velocity":0.41732283464566927,"duration":0.15562499999998636},{"name":"B3","midi":59,"time":118.80062499999882,"velocity":0.41732283464566927,"duration":0.15687499999999943},{"name":"D5","midi":74,"time":118.80374999999881,"velocity":0.41732283464566927,"duration":0.14187499999999886},{"name":"F#4","midi":66,"time":118.94937499999881,"velocity":0.41732283464566927,"duration":0.15562500000000057},{"name":"G4","midi":67,"time":119.10187499999881,"velocity":0.41732283464566927,"duration":0.1487499999999926},{"name":"D4","midi":62,"time":119.2512499999988,"velocity":0.4094488188976378,"duration":0.14812499999999318},{"name":"B4","midi":71,"time":119.40562499999879,"velocity":0.4015748031496063,"duration":0.15749999999999886},{"name":"D4","midi":62,"time":119.40687499999879,"velocity":0.4015748031496063,"duration":0.140625},{"name":"F#4","midi":66,"time":119.5556249999988,"velocity":0.4015748031496063,"duration":0.1562499999999858},{"name":"G4","midi":67,"time":119.70812499999879,"velocity":0.3937007874015748,"duration":0.15187499999998977},{"name":"D4","midi":62,"time":119.86187499999878,"velocity":0.3937007874015748,"duration":1.1187499999999915},{"name":"B3","midi":59,"time":120.10062499999877,"velocity":0.3858267716535433,"duration":0.9024999999999892},{"name":"G4","midi":67,"time":120.12249999999877,"velocity":0.3858267716535433,"duration":0.03187499999999943},{"name":"F#4","midi":66,"time":120.17124999999876,"velocity":0.3779527559055118,"duration":0.060625000000001705},{"name":"G4","midi":67,"time":120.22062499999876,"velocity":0.3779527559055118,"duration":0.7874999999999943}],"controlChanges":{"7":[{"number":7,"time":0,"value":0.905511811023622}],"91":[{"number":91,"time":0,"value":1}],"121":[{"number":121,"time":0,"value":1},{"number":121,"time":121.19999999999875,"value":1}]},"id":1,"name":"Piano 1","instrumentNumber":6,"instrument":"harpsichord","instrumentFamily":"piano","channelNumber":0,"isPercussion":false}]}