{"header":{"PPQ":384,"timeSignature":[4,4],"bpm":72.00002880001152,"name":"--------"},"startTime":0,"duration":595.8157338958457,"tracks":[{"startTime":0,"duration":0,"length":0,"notes":[],"controlChanges":{},"id":0,"name":"--------"},{"startTime":0.20833325,"duration":595.8157338958457,"length":3839,"notes":[{"name":"B4","midi":71,"time":0.20833325,"velocity":0.8031496062992126,"duration":0.17361104166666666},{"name":"B4","midi":71,"time":0.4166665,"velocity":0.8031496062992126,"duration":0.6228296119791665},{"name":"G3","midi":55,"time":0.4166665,"velocity":0.8031496062992126,"duration":0.8246524479166666},{"name":"B3","midi":59,"time":0.62499975,"velocity":0.8031496062992126,"duration":0.2061631119791667},{"name":"D4","midi":62,"time":0.833333,"velocity":0.8031496062992126,"duration":0.2061631119791666},{"name":"C5","midi":72,"time":1.04166625,"velocity":0.8031496062992126,"duration":0.2061631119791667},{"name":"G4","midi":67,"time":1.04166625,"velocity":0.8031496062992126,"duration":0.4123262239583336},{"name":"D5","midi":74,"time":1.2499995000000002,"velocity":0.8031496062992126,"duration":0.10199648697916675},{"name":"A3","midi":57,"time":1.2499995000000002,"velocity":0.8031496062992126,"duration":0.8246524479166679},{"name":"C5","midi":72,"time":1.3541661250000003,"velocity":0.8031496062992126,"duration":0.10199648697916675},{"name":"D5","midi":74,"time":1.4583327500000005,"velocity":0.8031496062992126,"duration":0.10199648697916675},{"name":"G4","midi":67,"time":1.4583327500000005,"velocity":0.8031496062992126,"duration":0.20616311197916692},{"name":"C5","midi":72,"time":1.5624993750000007,"velocity":0.8031496062992126,"duration":0.10199648697916675},{"name":"D5","midi":74,"time":1.6666660000000009,"velocity":0.8031496062992126,"duration":0.10199648697916675},{"name":"F#4","midi":66,"time":1.6666660000000009,"velocity":0.8031496062992126,"duration":0.20616311197916692},{"name":"C5","midi":72,"time":1.770832625000001,"velocity":0.8031496062992126,"duration":0.10199648697916675},{"name":"B4","midi":71,"time":1.8749992500000012,"velocity":0.8031496062992126,"duration":0.10199648697916675},{"name":"E4","midi":64,"time":1.8749992500000012,"velocity":0.8031496062992126,"duration":0.2061631119791667},{"name":"C5","midi":72,"time":1.9791658750000014,"velocity":0.8031496062992126,"duration":0.10199648697916652},{"name":"D5","midi":74,"time":2.0833325000000014,"velocity":0.8031496062992126,"duration":1.0199648697916666},{"name":"B3","midi":59,"time":2.0833325000000014,"velocity":0.8031496062992126,"duration":1.2478293619791665},{"name":"D4","midi":62,"time":2.2916657500000013,"velocity":0.8031496062992126,"duration":0.20616311197916648},{"name":"F#4","midi":66,"time":2.499999000000001,"velocity":0.8031496062992126,"duration":0.20616311197916648},{"name":"G4","midi":67,"time":2.708332250000001,"velocity":0.8031496062992126,"duration":2.278644921875},{"name":"B4","midi":71,"time":2.916665500000001,"velocity":0.8031496062992126,"duration":0.8246524479166668},{"name":"D5","midi":74,"time":3.1249987500000014,"velocity":0.8031496062992126,"duration":0.20616311197916648},{"name":"F#5","midi":78,"time":3.3333320000000013,"velocity":0.8031496062992126,"duration":0.20616311197916648},{"name":"B3","midi":59,"time":3.3333320000000013,"velocity":0.8031496062992126,"duration":0.4144963619791664},{"name":"G5","midi":79,"time":3.541665250000001,"velocity":0.8031496062992126,"duration":0.20616311197916648},{"name":"E5","midi":76,"time":3.749998500000001,"velocity":0.8031496062992126,"duration":0.20616311197916648},{"name":"C4","midi":60,"time":3.749998500000001,"velocity":0.8031496062992126,"duration":0.4144963619791664},{"name":"G5","midi":79,"time":3.958331750000001,"velocity":0.8031496062992126,"duration":0.20616311197916648},{"name":"D5","midi":74,"time":4.166665000000001,"velocity":0.8031496062992126,"duration":0.20616311197916648},{"name":"B3","midi":59,"time":4.166665000000001,"velocity":0.8031496062992126,"duration":0.4144963619791664},{"name":"G5","midi":79,"time":4.374998250000001,"velocity":0.8031496062992126,"duration":0.20616311197916648},{"name":"C5","midi":72,"time":4.583331500000001,"velocity":0.8031496062992126,"duration":0.20616311197916648},{"name":"A3","midi":57,"time":4.583331500000001,"velocity":0.8031496062992126,"duration":0.8246524479166668},{"name":"B4","midi":71,"time":4.791664750000001,"velocity":0.8031496062992126,"duration":0.20616311197916648},{"name":"C5","midi":72,"time":4.999998000000001,"velocity":0.8031496062992126,"duration":0.20616311197916648},{"name":"F#4","midi":66,"time":4.999998000000001,"velocity":0.8031496062992126,"duration":0.4144963619791673},{"name":"A5","midi":81,"time":5.2083312500000005,"velocity":0.8031496062992126,"duration":0.20616311197916737},{"name":"C5","midi":72,"time":5.416664500000001,"velocity":0.8031496062992126,"duration":0.20616311197916648},{"name":"G3","midi":55,"time":5.416664500000001,"velocity":0.8031496062992126,"duration":1.0416662499999996},{"name":"B4","midi":71,"time":5.624997750000001,"velocity":0.8031496062992126,"duration":0.20616311197916648},{"name":"A4","midi":69,"time":5.833331000000001,"velocity":0.8031496062992126,"duration":0.20616311197916648},{"name":"B3","midi":59,"time":5.833331000000001,"velocity":0.8031496062992126,"duration":0.4144963619791664},{"name":"G4","midi":67,"time":6.041664250000001,"velocity":0.8031496062992126,"duration":0.20616311197916648},{"name":"B4","midi":71,"time":6.249997500000001,"velocity":0.8031496062992126,"duration":0.9982634895833327},{"name":"D4","midi":62,"time":6.249997500000001,"velocity":0.8031496062992126,"duration":0.41232622395833296},{"name":"F#3","midi":54,"time":6.458330750000001,"velocity":0.8031496062992126,"duration":0.20616311197916648},{"name":"G4","midi":67,"time":6.666664000000001,"velocity":0.8031496062992126,"duration":0.41232622395833296},{"name":"E3","midi":52,"time":6.666664000000001,"velocity":0.8031496062992126,"duration":0.20616311197916648},{"name":"D3","midi":50,"time":6.874997250000001,"velocity":0.8031496062992126,"duration":0.20616311197916648},{"name":"E4","midi":64,"time":7.083330500000001,"velocity":0.8031496062992126,"duration":0.8246524479166668},{"name":"C#3","midi":49,"time":7.083330500000001,"velocity":0.8031496062992126,"duration":1.2478293619791678},{"name":"E5","midi":76,"time":7.2916637500000006,"velocity":0.8031496062992126,"duration":0.20616311197916648},{"name":"A4","midi":69,"time":7.4999970000000005,"velocity":0.8031496062992126,"duration":0.20616311197916648},{"name":"E3","midi":52,"time":7.4999970000000005,"velocity":0.8031496062992126,"duration":0.4144963619791673},{"name":"E5","midi":76,"time":7.70833025,"velocity":0.8031496062992126,"duration":0.20616311197916737},{"name":"G4","midi":67,"time":7.916663500000001,"velocity":0.8031496062992126,"duration":0.20616311197916648},{"name":"A3","midi":57,"time":7.916663500000001,"velocity":0.8031496062992126,"duration":0.8246524479166686},{"name":"F#4","midi":66,"time":8.124996750000001,"velocity":0.8031496062992126,"duration":0.20616311197916737},{"name":"G4","midi":67,"time":8.333330000000002,"velocity":0.8031496062992126,"duration":0.20616311197916737},{"name":"C#3","midi":49,"time":8.333330000000002,"velocity":0.8031496062992126,"duration":0.41449636197916817},{"name":"E5","midi":76,"time":8.541663250000003,"velocity":0.8031496062992126,"duration":0.20616311197916737},{"name":"G4","midi":67,"time":8.749996500000004,"velocity":0.8031496062992126,"duration":0.20616311197916737},{"name":"D3","midi":50,"time":8.749996500000004,"velocity":0.8031496062992126,"duration":1.2478293619791714},{"name":"F#4","midi":66,"time":8.958329750000004,"velocity":0.8031496062992126,"duration":0.20616311197916737},{"name":"E4","midi":64,"time":9.166663000000005,"velocity":0.8031496062992126,"duration":0.20616311197916737},{"name":"F#3","midi":54,"time":9.166663000000005,"velocity":0.8031496062992126,"duration":0.41449636197916817},{"name":"D4","midi":62,"time":9.374996250000006,"velocity":0.8031496062992126,"duration":0.20616311197916737},{"name":"E4","midi":64,"time":9.583329500000007,"velocity":0.8031496062992126,"duration":0.20616311197916737},{"name":"A3","midi":57,"time":9.583329500000007,"velocity":0.8031496062992126,"duration":0.8246524479166695},{"name":"F#4","midi":66,"time":9.791662750000008,"velocity":0.8031496062992126,"duration":0.20616311197916737},{"name":"G4","midi":67,"time":9.999996000000008,"velocity":0.8031496062992126,"duration":0.20616311197916737},{"name":"C3","midi":48,"time":9.999996000000008,"velocity":0.8031496062992126,"duration":0.41449636197916817},{"name":"F#4","midi":66,"time":10.20832925000001,"velocity":0.8031496062992126,"duration":0.20616311197916737},{"name":"G4","midi":67,"time":10.41666250000001,"velocity":0.8031496062992126,"duration":0.20616311197916737},{"name":"B2","midi":47,"time":10.41666250000001,"velocity":0.8031496062992126,"duration":0.8246524479166695},{"name":"D3","midi":50,"time":10.41666250000001,"velocity":0.8031496062992126,"duration":0.41449636197916817},{"name":"A4","midi":69,"time":10.62499575000001,"velocity":0.8031496062992126,"duration":0.20616311197916737},{"name":"G4","midi":67,"time":10.833329000000012,"velocity":0.8031496062992126,"duration":0.20616311197916737},{"name":"G3","midi":55,"time":10.833329000000012,"velocity":0.8031496062992126,"duration":0.8246524479166677},{"name":"A4","midi":69,"time":11.041662250000012,"velocity":0.8031496062992126,"duration":0.20616311197916737},{"name":"B4","midi":71,"time":11.249995500000013,"velocity":0.8031496062992126,"duration":0.10199648697916608},{"name":"A2","midi":45,"time":11.249995500000013,"velocity":0.8031496062992126,"duration":0.8246524479166641},{"name":"A4","midi":69,"time":11.354162125000013,"velocity":0.8031496062992126,"duration":0.10199648697916608},{"name":"B4","midi":71,"time":11.458328750000012,"velocity":0.8031496062992126,"duration":0.10199648697916608},{"name":"A4","midi":69,"time":11.562495375000012,"velocity":0.8031496062992126,"duration":0.10199648697916786},{"name":"B4","midi":71,"time":11.666662000000013,"velocity":0.8031496062992126,"duration":0.10199648697916608},{"name":"F#3","midi":54,"time":11.666662000000013,"velocity":0.8031496062992126,"duration":0.4144963619791646},{"name":"A4","midi":69,"time":11.770828625000012,"velocity":0.8031496062992126,"duration":0.10199648697916608},{"name":"G4","midi":67,"time":11.874995250000012,"velocity":0.8031496062992126,"duration":0.10199648697916608},{"name":"A4","midi":69,"time":11.979161875000012,"velocity":0.8031496062992126,"duration":0.10199648697916608},{"name":"B4","midi":71,"time":12.083328500000011,"velocity":0.8031496062992126,"duration":0.7378469270833357},{"name":"G3","midi":55,"time":12.083328500000011,"velocity":0.8031496062992126,"duration":0.7378469270833357},{"name":"G2","midi":43,"time":12.291661750000012,"velocity":0.8031496062992126,"duration":0.20616311197916737},{"name":"B2","midi":47,"time":12.499995000000013,"velocity":0.8031496062992126,"duration":0.20616311197916737},{"name":"D3","midi":50,"time":12.708328250000013,"velocity":0.8031496062992126,"duration":0.20616311197916737},{"name":"G3","midi":55,"time":12.916661500000014,"velocity":0.8031496062992126,"duration":0.41449636197916817},{"name":"B4","midi":71,"time":13.124994750000015,"velocity":0.8031496062992126,"duration":0.20616311197916737},{"name":"E5","midi":76,"time":13.333328000000016,"velocity":0.8031496062992126,"duration":0.20616311197916737},{"name":"A3","midi":57,"time":13.333328000000016,"velocity":0.8031496062992126,"duration":0.20616311197916737},{"name":"D#5","midi":75,"time":13.541661250000017,"velocity":0.8031496062992126,"duration":0.20616311197916737},{"name":"B3","midi":59,"time":13.541661250000017,"velocity":0.8031496062992126,"duration":0.20616311197916737},{"name":"E5","midi":76,"time":13.749994500000017,"velocity":0.8031496062992126,"duration":0.20616311197916737},{"name":"C4","midi":60,"time":13.749994500000017,"velocity":0.8031496062992126,"duration":0.41449636197916817},{"name":"F#5","midi":78,"time":13.958327750000018,"velocity":0.8031496062992126,"duration":0.20616311197916737},{"name":"E5","midi":76,"time":14.166661000000019,"velocity":0.8031496062992126,"duration":0.20616311197916737},{"name":"E4","midi":64,"time":14.166661000000019,"velocity":0.8031496062992126,"duration":0.8246524479166659},{"name":"G3","midi":55,"time":14.166661000000019,"velocity":0.8031496062992126,"duration":0.41449636197916817},{"name":"F#5","midi":78,"time":14.37499425000002,"velocity":0.8031496062992126,"duration":0.20616311197916737},{"name":"G5","midi":79,"time":14.58332750000002,"velocity":0.8031496062992126,"duration":0.10199648697916608},{"name":"A3","midi":57,"time":14.58332750000002,"velocity":0.8031496062992126,"duration":0.4144963619791646},{"name":"F#5","midi":78,"time":14.68749412500002,"velocity":0.8031496062992126,"duration":0.10199648697916608},{"name":"G5","midi":79,"time":14.79166075000002,"velocity":0.8031496062992126,"duration":0.10199648697916608},{"name":"F#5","midi":78,"time":14.89582737500002,"velocity":0.8031496062992126,"duration":0.10199648697916608},{"name":"G5","midi":79,"time":14.999994000000019,"velocity":0.8031496062992126,"duration":0.10199648697916608},{"name":"B3","midi":59,"time":14.999994000000019,"velocity":0.8031496062992126,"duration":0.4144963619791646},{"name":"D#4","midi":63,"time":14.999994000000019,"velocity":0.8031496062992126,"duration":0.4144963619791646},{"name":"F#5","midi":78,"time":15.104160625000018,"velocity":0.8031496062992126,"duration":0.10199648697916608},{"name":"E5","midi":76,"time":15.208327250000018,"velocity":0.8031496062992126,"duration":0.10199648697916608},{"name":"F#5","midi":78,"time":15.312493875000017,"velocity":0.8031496062992126,"duration":0.10199648697916608},{"name":"G5","midi":79,"time":15.416660500000017,"velocity":0.8031496062992126,"duration":1.0394961119791652},{"name":"E4","midi":64,"time":15.416660500000017,"velocity":0.8031496062992126,"duration":0.8246524479166659},{"name":"B3","midi":59,"time":15.624993750000018,"velocity":0.8031496062992126,"duration":0.20616311197916737},{"name":"G3","midi":55,"time":15.833327000000018,"velocity":0.8031496062992126,"duration":0.2061631119791656},{"name":"B3","midi":59,"time":16.041660250000017,"velocity":0.8031496062992126,"duration":0.2061631119791656},{"name":"E3","midi":52,"time":16.249993500000016,"velocity":0.8031496062992126,"duration":0.4144963619791646},{"name":"F#5","midi":78,"time":16.458326750000015,"velocity":0.8031496062992126,"duration":0.2061631119791656},{"name":"E5","midi":76,"time":16.666660000000014,"velocity":0.8031496062992126,"duration":0.2061631119791656},{"name":"G3","midi":55,"time":16.666660000000014,"velocity":0.8031496062992126,"duration":0.4144963619791646},{"name":"D5","midi":74,"time":16.874993250000013,"velocity":0.8031496062992126,"duration":0.2061631119791656},{"name":"C#5","midi":73,"time":17.083326500000013,"velocity":0.8031496062992126,"duration":0.2604165624999979},{"name":"A3","midi":57,"time":17.083326500000013,"velocity":0.8031496062992126,"duration":1.2478293619791607},{"name":"E5","midi":76,"time":17.29165975000001,"velocity":0.8031496062992126,"duration":0.2061631119791656},{"name":"B4","midi":71,"time":17.49999300000001,"velocity":0.8031496062992126,"duration":0.2604165624999979},{"name":"B3","midi":59,"time":17.49999300000001,"velocity":0.8031496062992126,"duration":0.4144963619791646},{"name":"E5","midi":76,"time":17.70832625000001,"velocity":0.8031496062992126,"duration":0.2061631119791656},{"name":"A4","midi":69,"time":17.91665950000001,"velocity":0.8031496062992126,"duration":0.2061631119791656},{"name":"C#4","midi":61,"time":17.91665950000001,"velocity":0.8031496062992126,"duration":0.8246524479166624},{"name":"G5","midi":79,"time":18.124992750000008,"velocity":0.8031496062992126,"duration":0.2061631119791656},{"name":"F#5","midi":78,"time":18.333326000000007,"velocity":0.8031496062992126,"duration":0.2061631119791656},{"name":"A3","midi":57,"time":18.333326000000007,"velocity":0.8031496062992126,"duration":0.4144963619791646},{"name":"E5","midi":76,"time":18.541659250000006,"velocity":0.8031496062992126,"duration":0.2061631119791656},{"name":"F#5","midi":78,"time":18.749992500000005,"velocity":0.8031496062992126,"duration":0.2604165624999979},{"name":"D4","midi":62,"time":18.749992500000005,"velocity":0.8031496062992126,"duration":2.0833324999999903},{"name":"D3","midi":50,"time":18.749992500000005,"velocity":0.8031496062992126,"duration":0.4144963619791646},{"name":"A5","midi":81,"time":18.958325750000004,"velocity":0.8031496062992126,"duration":0.2061631119791656},{"name":"E5","midi":76,"time":19.166659000000003,"velocity":0.8031496062992126,"duration":0.2604165624999979},{"name":"E3","midi":52,"time":19.166659000000003,"velocity":0.8031496062992126,"duration":0.4144963619791646},{"name":"A5","midi":81,"time":19.374992250000002,"velocity":0.8031496062992126,"duration":0.2061631119791656},{"name":"D5","midi":74,"time":19.5833255,"velocity":0.8031496062992126,"duration":0.2061631119791656},{"name":"F#3","midi":54,"time":19.5833255,"velocity":0.8031496062992126,"duration":0.4144963619791646},{"name":"C5","midi":72,"time":19.79165875,"velocity":0.8031496062992126,"duration":0.2061631119791656},{"name":"B4","midi":71,"time":19.999992,"velocity":0.8031496062992126,"duration":0.2061631119791656},{"name":"D3","midi":50,"time":19.999992,"velocity":0.8031496062992126,"duration":0.4144963619791646},{"name":"A4","midi":69,"time":20.208325249999998,"velocity":0.8031496062992126,"duration":0.2061631119791656},{"name":"B4","midi":71,"time":20.416658499999997,"velocity":0.8031496062992126,"duration":0.2604165624999979},{"name":"G3","midi":55,"time":20.416658499999997,"velocity":0.8031496062992126,"duration":1.6644958619791588},{"name":"D5","midi":74,"time":20.624991749999996,"velocity":0.8031496062992126,"duration":0.2061631119791656},{"name":"A4","midi":69,"time":20.833324999999995,"velocity":0.8031496062992126,"duration":0.2604165624999979},{"name":"C4","midi":60,"time":20.833324999999995,"velocity":0.8031496062992126,"duration":0.4144963619791646},{"name":"D5","midi":74,"time":21.041658249999994,"velocity":0.8031496062992126,"duration":0.2061631119791656},{"name":"G4","midi":67,"time":21.249991499999993,"velocity":0.8031496062992126,"duration":0.2604165624999979},{"name":"B3","midi":59,"time":21.249991499999993,"velocity":0.8031496062992126,"duration":0.4144963619791646},{"name":"D5","midi":74,"time":21.458324749999992,"velocity":0.8031496062992126,"duration":0.2061631119791656},{"name":"F#4","midi":66,"time":21.66665799999999,"velocity":0.8031496062992126,"duration":0.2604165624999979},{"name":"A3","midi":57,"time":21.66665799999999,"velocity":0.8031496062992126,"duration":0.4144963619791646},{"name":"D5","midi":74,"time":21.87499124999999,"velocity":0.8031496062992126,"duration":0.2061631119791656},{"name":"E4","midi":64,"time":22.08332449999999,"velocity":0.8031496062992126,"duration":0.2061631119791656},{"name":"G3","midi":55,"time":22.08332449999999,"velocity":0.8031496062992126,"duration":1.2478293619791607},{"name":"D5","midi":74,"time":22.291657749999988,"velocity":0.8031496062992126,"duration":0.2061631119791656},{"name":"C#5","midi":73,"time":22.499990999999987,"velocity":0.8031496062992126,"duration":0.2061631119791656},{"name":"E3","midi":52,"time":22.499990999999987,"velocity":0.8031496062992126,"duration":0.4144963619791646},{"name":"B4","midi":71,"time":22.708324249999986,"velocity":0.8031496062992126,"duration":0.2061631119791656},{"name":"C#5","midi":73,"time":22.916657499999985,"velocity":0.8031496062992126,"duration":0.2061631119791656},{"name":"A2","midi":45,"time":22.916657499999985,"velocity":0.8031496062992126,"duration":0.4144963619791646},{"name":"E5","midi":76,"time":23.124990749999984,"velocity":0.8031496062992126,"duration":0.2061631119791656},{"name":"A4","midi":69,"time":23.333323999999983,"velocity":0.8031496062992126,"duration":0.2061631119791656},{"name":"E3","midi":52,"time":23.333323999999983,"velocity":0.8031496062992126,"duration":0.4144963619791646},{"name":"C#3","midi":49,"time":23.333323999999983,"velocity":0.8031496062992126,"duration":0.4144963619791646},{"name":"G5","midi":79,"time":23.541657249999982,"velocity":0.8031496062992126,"duration":0.2061631119791656},{"name":"F#5","midi":78,"time":23.74999049999998,"velocity":0.8031496062992126,"duration":0.2061631119791656},{"name":"D3","midi":50,"time":23.74999049999998,"velocity":0.8031496062992126,"duration":0.6076386458333332},{"name":"E5","midi":76,"time":23.95832374999998,"velocity":0.8031496062992126,"duration":0.2061631119791656},{"name":"F#5","midi":78,"time":24.16665699999998,"velocity":0.8031496062992126,"duration":0.20616311197916914},{"name":"G2","midi":43,"time":24.16665699999998,"velocity":0.8031496062992126,"duration":0.4123262239583383},{"name":"D5","midi":74,"time":24.374990249999982,"velocity":0.8031496062992126,"duration":0.18229159375000137},{"name":"E3","midi":52,"time":24.374990249999982,"velocity":0.8031496062992126,"duration":0.20616311197916914},{"name":"D5","midi":74,"time":24.583323499999985,"velocity":0.8031496062992126,"duration":0.10199648697916786},{"name":"F#3","midi":54,"time":24.583323499999985,"velocity":0.8031496062992126,"duration":0.4144963619791717},{"name":"A2","midi":45,"time":24.583323499999985,"velocity":0.8031496062992126,"duration":0.8246524479166695},{"name":"C#5","midi":73,"time":24.687490124999986,"velocity":0.8031496062992126,"duration":0.10199648697916786},{"name":"D5","midi":74,"time":24.791656749999987,"velocity":0.8031496062992126,"duration":0.10199648697916786},{"name":"C#5","midi":73,"time":24.89582337499999,"velocity":0.8031496062992126,"duration":0.3103297369791669},{"name":"G3","midi":55,"time":24.99998999999999,"velocity":0.8031496062992126,"duration":0.4144963619791646},{"name":"D5","midi":74,"time":25.20832324999999,"velocity":0.8031496062992126,"duration":0.2061631119791656},{"name":"D5","midi":74,"time":25.416656499999988,"velocity":0.8031496062992126,"duration":1.0394961119791688},{"name":"D3","midi":50,"time":25.416656499999988,"velocity":0.8031496062992126,"duration":0.3038193229166666},{"name":"F#3","midi":54,"time":25.416656499999988,"velocity":0.8031496062992126,"duration":0.2061631119791656},{"name":"D4","midi":62,"time":25.624989749999987,"velocity":0.8031496062992126,"duration":0.20616311197916914},{"name":"E3","midi":52,"time":25.83332299999999,"velocity":0.8031496062992126,"duration":0.3038193229166666},{"name":"G3","midi":55,"time":25.83332299999999,"velocity":0.8031496062992126,"duration":0.2061631119791656},{"name":"D4","midi":62,"time":26.04165624999999,"velocity":0.8031496062992126,"duration":0.20616311197916914},{"name":"F#3","midi":54,"time":26.24998949999999,"velocity":0.8031496062992126,"duration":0.3038193229166666},{"name":"A3","midi":57,"time":26.24998949999999,"velocity":0.8031496062992126,"duration":0.2061631119791656},{"name":"F#5","midi":78,"time":26.45832274999999,"velocity":0.8031496062992126,"duration":0.20616311197916914},{"name":"D4","midi":62,"time":26.45832274999999,"velocity":0.8031496062992126,"duration":0.20616311197916914},{"name":"A5","midi":81,"time":26.666655999999993,"velocity":0.8031496062992126,"duration":0.2061631119791656},{"name":"D3","midi":50,"time":26.666655999999993,"velocity":0.8031496062992126,"duration":0.2061631119791656},{"name":"F#3","midi":54,"time":26.666655999999993,"velocity":0.8031496062992126,"duration":0.2061631119791656},{"name":"C6","midi":84,"time":26.87498924999999,"velocity":0.8031496062992126,"duration":0.2061631119791656},{"name":"D4","midi":62,"time":26.87498924999999,"velocity":0.8031496062992126,"duration":0.2061631119791656},{"name":"B5","midi":83,"time":27.08332249999999,"velocity":0.8031496062992126,"duration":0.6228296119791672},{"name":"G3","midi":55,"time":27.08332249999999,"velocity":0.8031496062992126,"duration":0.3038193229166666},{"name":"D4","midi":62,"time":27.29165574999999,"velocity":0.8031496062992126,"duration":0.20616311197916914},{"name":"A3","midi":57,"time":27.499988999999992,"velocity":0.8031496062992126,"duration":0.3038193229166666},{"name":"A5","midi":81,"time":27.70832224999999,"velocity":0.8031496062992126,"duration":0.20616311197916914},{"name":"D4","midi":62,"time":27.70832224999999,"velocity":0.8031496062992126,"duration":0.20616311197916914},{"name":"G5","midi":79,"time":27.916655499999994,"velocity":0.8031496062992126,"duration":0.2061631119791656},{"name":"B3","midi":59,"time":27.916655499999994,"velocity":0.8031496062992126,"duration":0.3038193229166666},{"name":"F#5","midi":78,"time":28.124988749999993,"velocity":0.8031496062992126,"duration":0.20616311197916914},{"name":"D4","midi":62,"time":28.124988749999993,"velocity":0.8031496062992126,"duration":0.20616311197916914},{"name":"E5","midi":76,"time":28.333321999999995,"velocity":0.8031496062992126,"duration":0.2061631119791656},{"name":"G3","midi":55,"time":28.333321999999995,"velocity":0.8031496062992126,"duration":0.2061631119791656},{"name":"D5","midi":74,"time":28.541655249999994,"velocity":0.8031496062992126,"duration":0.2061631119791656},{"name":"D4","midi":62,"time":28.541655249999994,"velocity":0.8031496062992126,"duration":0.2061631119791656},{"name":"G5","midi":79,"time":28.749988499999994,"velocity":0.8031496062992126,"duration":0.6228296119791672},{"name":"E3","midi":52,"time":28.749988499999994,"velocity":0.8031496062992126,"duration":0.3038193229166666},{"name":"D4","midi":62,"time":28.958321749999993,"velocity":0.8031496062992126,"duration":0.20616311197916914},{"name":"F#3","midi":54,"time":29.166654999999995,"velocity":0.8031496062992126,"duration":0.3038193229166666},{"name":"F#5","midi":78,"time":29.374988249999994,"velocity":0.8031496062992126,"duration":0.20616311197916914},{"name":"D4","midi":62,"time":29.374988249999994,"velocity":0.8031496062992126,"duration":0.20616311197916914},{"name":"E5","midi":76,"time":29.583321499999997,"velocity":0.8031496062992126,"duration":0.2061631119791656},{"name":"G3","midi":55,"time":29.583321499999997,"velocity":0.8031496062992126,"duration":0.3038193229166666},{"name":"D5","midi":74,"time":29.791654749999996,"velocity":0.8031496062992126,"duration":0.20616311197916914},{"name":"D4","midi":62,"time":29.791654749999996,"velocity":0.8031496062992126,"duration":0.20616311197916914},{"name":"C#5","midi":73,"time":29.999988,"velocity":0.8031496062992126,"duration":0.2061631119791656},{"name":"E3","midi":52,"time":29.999988,"velocity":0.8031496062992126,"duration":0.2061631119791656},{"name":"B4","midi":71,"time":30.208321249999997,"velocity":0.8031496062992126,"duration":0.2061631119791656},{"name":"D4","midi":62,"time":30.208321249999997,"velocity":0.8031496062992126,"duration":0.2061631119791656},{"name":"C#5","midi":73,"time":30.416654499999996,"velocity":0.8031496062992126,"duration":0.2061631119791656},{"name":"A3","midi":57,"time":30.416654499999996,"velocity":0.8031496062992126,"duration":0.2061631119791656},{"name":"A4","midi":69,"time":30.624987749999995,"velocity":0.8031496062992126,"duration":0.2061631119791656},{"name":"C#4","midi":61,"time":30.624987749999995,"velocity":0.8031496062992126,"duration":0.2061631119791656},{"name":"D5","midi":74,"time":30.833320999999994,"velocity":0.8031496062992126,"duration":0.2061631119791656},{"name":"B3","midi":59,"time":30.833320999999994,"velocity":0.8031496062992126,"duration":0.2061631119791656},{"name":"A4","midi":69,"time":31.041654249999993,"velocity":0.8031496062992126,"duration":0.2061631119791656},{"name":"D4","midi":62,"time":31.041654249999993,"velocity":0.8031496062992126,"duration":0.2061631119791656},{"name":"E5","midi":76,"time":31.249987499999992,"velocity":0.8031496062992126,"duration":0.2061631119791656},{"name":"C#4","midi":61,"time":31.249987499999992,"velocity":0.8031496062992126,"duration":0.2061631119791656},{"name":"A4","midi":69,"time":31.45832074999999,"velocity":0.8031496062992126,"duration":0.2061631119791656},{"name":"E4","midi":64,"time":31.45832074999999,"velocity":0.8031496062992126,"duration":0.2061631119791656},{"name":"G5","midi":79,"time":31.66665399999999,"velocity":0.8031496062992126,"duration":0.2061631119791656},{"name":"A3","midi":57,"time":31.66665399999999,"velocity":0.8031496062992126,"duration":0.2061631119791656},{"name":"E5","midi":76,"time":31.87498724999999,"velocity":0.8031496062992126,"duration":0.2061631119791656},{"name":"C#4","midi":61,"time":31.87498724999999,"velocity":0.8031496062992126,"duration":0.2061631119791656},{"name":"F5","midi":77,"time":32.083320499999985,"velocity":0.8031496062992126,"duration":0.2061631119791656},{"name":"D4","midi":62,"time":32.083320499999985,"velocity":0.8031496062992126,"duration":0.41449636197916107},{"name":"A4","midi":69,"time":32.29165374999998,"velocity":0.8031496062992126,"duration":0.2061631119791656},{"name":"D5","midi":74,"time":32.499986999999976,"velocity":0.8031496062992126,"duration":0.2061631119791656},{"name":"C4","midi":60,"time":32.499986999999976,"velocity":0.8031496062992126,"duration":0.41449636197916107},{"name":"E5","midi":76,"time":32.70832024999997,"velocity":0.8031496062992126,"duration":0.2061631119791656},{"name":"F5","midi":77,"time":32.91665349999997,"velocity":0.8031496062992126,"duration":0.2061631119791656},{"name":"A#3","midi":58,"time":32.91665349999997,"velocity":0.8031496062992126,"duration":0.41449636197916107},{"name":"D5","midi":74,"time":33.12498674999996,"velocity":0.8031496062992126,"duration":0.2061631119791656},{"name":"F#5","midi":78,"time":33.33331999999996,"velocity":0.8031496062992126,"duration":0.2061631119791656},{"name":"A3","midi":57,"time":33.33331999999996,"velocity":0.8031496062992126,"duration":0.41449636197916107},{"name":"D5","midi":74,"time":33.54165324999995,"velocity":0.8031496062992126,"duration":0.2061631119791656},{"name":"G5","midi":79,"time":33.74998649999995,"velocity":0.8031496062992126,"duration":0.3038193229166666},{"name":"A#3","midi":58,"time":33.74998649999995,"velocity":0.8031496062992126,"duration":0.41449636197916817},{"name":"D5","midi":74,"time":33.95831974999995,"velocity":0.8031496062992126,"duration":0.607638645833326},{"name":"A#5","midi":82,"time":34.16665299999995,"velocity":0.8031496062992126,"duration":0.2061631119791656},{"name":"G3","midi":55,"time":34.16665299999995,"velocity":0.8031496062992126,"duration":0.41449636197916107},{"name":"A5","midi":81,"time":34.37498624999994,"velocity":0.8031496062992126,"duration":0.2061631119791656},{"name":"G#5","midi":80,"time":34.58331949999994,"velocity":0.8031496062992126,"duration":0.5208331249999958},{"name":"E3","midi":52,"time":34.58331949999994,"velocity":0.8031496062992126,"duration":0.41449636197916817},{"name":"D5","midi":74,"time":34.79165274999994,"velocity":0.8031496062992126,"duration":0.2061631119791656},{"name":"C#5","midi":73,"time":34.999985999999936,"velocity":0.8031496062992126,"duration":0.2061631119791656},{"name":"A3","midi":57,"time":34.999985999999936,"velocity":0.8031496062992126,"duration":0.41449636197916107},{"name":"G5","midi":79,"time":35.20831924999993,"velocity":0.8031496062992126,"duration":0.2061631119791656},{"name":"F#5","midi":78,"time":35.41665249999993,"velocity":0.8031496062992126,"duration":0.6076386458333332},{"name":"D4","midi":62,"time":35.41665249999993,"velocity":0.8031496062992126,"duration":0.41449636197916817},{"name":"C5","midi":72,"time":35.62498574999993,"velocity":0.8031496062992126,"duration":0.2061631119791656},{"name":"B4","midi":71,"time":35.833318999999925,"velocity":0.8031496062992126,"duration":0.2061631119791656},{"name":"G3","midi":55,"time":35.833318999999925,"velocity":0.8031496062992126,"duration":0.41449636197916107},{"name":"E5","midi":76,"time":36.04165224999992,"velocity":0.8031496062992126,"duration":0.4123262239583312},{"name":"F#4","midi":66,"time":36.249985499999916,"velocity":0.8031496062992126,"duration":0.3038193229166595},{"name":"A4","midi":69,"time":36.249985499999916,"velocity":0.8031496062992126,"duration":0.2061631119791656},{"name":"A3","midi":57,"time":36.249985499999916,"velocity":0.8031496062992126,"duration":0.831162861979152},{"name":"D5","midi":74,"time":36.45831874999991,"velocity":0.8031496062992126,"duration":0.4123262239583312},{"name":"E4","midi":64,"time":36.66665199999991,"velocity":0.8031496062992126,"duration":0.3038193229166595},{"name":"G4","midi":67,"time":36.66665199999991,"velocity":0.8031496062992126,"duration":0.2061631119791656},{"name":"C#5","midi":73,"time":36.8749852499999,"velocity":0.8031496062992126,"duration":0.2061631119791656},{"name":"D5","midi":74,"time":37.0833184999999,"velocity":0.8031496062992126,"duration":2.9079849479166526},{"name":"D4","midi":62,"time":37.0833184999999,"velocity":0.8031496062992126,"duration":1.0394961119791617},{"name":"G4","midi":67,"time":37.2916517499999,"velocity":0.8031496062992126,"duration":0.2061631119791656},{"name":"A4","midi":69,"time":37.499984999999896,"velocity":0.8031496062992126,"duration":2.4956587239583214},{"name":"E4","midi":64,"time":37.7083182499999,"velocity":0.8031496062992126,"duration":0.2061631119791656},{"name":"F#4","midi":66,"time":37.916651499999894,"velocity":0.8031496062992126,"duration":2.083332499999983},{"name":"C#4","midi":61,"time":38.12498474999989,"velocity":0.8031496062992126,"duration":0.2061631119791656},{"name":"D4","midi":62,"time":38.333317999999885,"velocity":0.8031496062992126,"duration":1.2478293619791643},{"name":"A3","midi":57,"time":38.54165124999989,"velocity":0.8031496062992126,"duration":0.2061631119791656},{"name":"D3","midi":50,"time":38.74998449999988,"velocity":0.8031496062992126,"duration":1.2478293619791643},{"name":"F#5","midi":78,"time":40.20831724999988,"velocity":0.8031496062992126,"duration":0.2061631119791656},{"name":"A4","midi":69,"time":40.416650499999875,"velocity":0.8031496062992126,"duration":0.6228296119791565},{"name":"D5","midi":74,"time":40.416650499999875,"velocity":0.8031496062992126,"duration":0.6228296119791565},{"name":"F#5","midi":78,"time":40.416650499999875,"velocity":0.8031496062992126,"duration":0.6228296119791565},{"name":"D3","midi":50,"time":40.416650499999875,"velocity":0.8031496062992126,"duration":0.2061631119791656},{"name":"F#3","midi":54,"time":40.62498374999987,"velocity":0.8031496062992126,"duration":0.2061631119791656},{"name":"A3","midi":57,"time":40.833316999999866,"velocity":0.8031496062992126,"duration":0.2061631119791656},{"name":"G5","midi":79,"time":41.04165024999986,"velocity":0.8031496062992126,"duration":0.2061631119791656},{"name":"C4","midi":60,"time":41.04165024999986,"velocity":0.8031496062992126,"duration":0.2061631119791656},{"name":"A5","midi":81,"time":41.24998349999986,"velocity":0.8031496062992126,"duration":0.10199648697916786},{"name":"B3","midi":59,"time":41.24998349999986,"velocity":0.8031496062992126,"duration":0.2061631119791656},{"name":"G5","midi":79,"time":41.354150124999855,"velocity":0.8031496062992126,"duration":0.10199648697916786},{"name":"A5","midi":81,"time":41.45831674999985,"velocity":0.8031496062992126,"duration":0.10199648697916786},{"name":"A3","midi":57,"time":41.45831674999985,"velocity":0.8031496062992126,"duration":0.2061631119791656},{"name":"G5","midi":79,"time":41.56248337499985,"velocity":0.8031496062992126,"duration":0.10199648697916786},{"name":"A5","midi":81,"time":41.66664999999985,"velocity":0.8031496062992126,"duration":0.10199648697916786},{"name":"B3","midi":59,"time":41.66664999999985,"velocity":0.8031496062992126,"duration":0.2061631119791656},{"name":"G5","midi":79,"time":41.770816624999846,"velocity":0.8031496062992126,"duration":0.10199648697916786},{"name":"F#5","midi":78,"time":41.87498324999984,"velocity":0.8031496062992126,"duration":0.10199648697916786},{"name":"G3","midi":55,"time":41.87498324999984,"velocity":0.8031496062992126,"duration":0.2061631119791656},{"name":"G5","midi":79,"time":41.97914987499984,"velocity":0.8031496062992126,"duration":0.10199648697916786},{"name":"A5","midi":81,"time":42.08331649999984,"velocity":0.8031496062992126,"duration":0.9548607291666542},{"name":"F#3","midi":54,"time":42.08331649999984,"velocity":0.8031496062992126,"duration":1.24782936197915},{"name":"A3","midi":57,"time":42.29164974999984,"velocity":0.8031496062992126,"duration":0.2061631119791656},{"name":"C4","midi":60,"time":42.49998299999984,"velocity":0.8031496062992126,"duration":0.2061631119791656},{"name":"E4","midi":64,"time":42.70831624999983,"velocity":0.8031496062992126,"duration":0.2061631119791656},{"name":"D4","midi":62,"time":42.91664949999983,"velocity":0.8031496062992126,"duration":0.41449636197916107},{"name":"C5","midi":72,"time":43.12498274999982,"velocity":0.8031496062992126,"duration":0.2061631119791656},{"name":"D5","midi":74,"time":43.33331599999982,"velocity":0.8031496062992126,"duration":0.2061631119791656},{"name":"F#3","midi":54,"time":43.33331599999982,"velocity":0.8031496062992126,"duration":0.41449636197916107},{"name":"A3","midi":57,"time":43.33331599999982,"velocity":0.8031496062992126,"duration":0.41449636197916107},{"name":"A4","midi":69,"time":43.541649249999814,"velocity":0.8031496062992126,"duration":0.2061631119791656},{"name":"B4","midi":71,"time":43.74998249999981,"velocity":0.8031496062992126,"duration":0.2061631119791656},{"name":"G3","midi":55,"time":43.74998249999981,"velocity":0.8031496062992126,"duration":0.41449636197916107},{"name":"D#5","midi":75,"time":43.958315749999805,"velocity":0.8031496062992126,"duration":0.2061631119791656},{"name":"E5","midi":76,"time":44.1666489999998,"velocity":0.8031496062992126,"duration":0.2061631119791656},{"name":"C3","midi":48,"time":44.1666489999998,"velocity":0.8031496062992126,"duration":0.41449636197916107},{"name":"E3","midi":52,"time":44.1666489999998,"velocity":0.8031496062992126,"duration":0.8246524479166624},{"name":"G5","midi":79,"time":44.374982249999796,"velocity":0.8031496062992126,"duration":0.2061631119791656},{"name":"F#5","midi":78,"time":44.58331549999979,"velocity":0.8031496062992126,"duration":0.4123262239583383},{"name":"A2","midi":45,"time":44.58331549999979,"velocity":0.8031496062992126,"duration":0.41449636197916817},{"name":"C5","midi":72,"time":44.791648749999794,"velocity":0.8031496062992126,"duration":0.2061631119791656},{"name":"B4","midi":71,"time":44.99998199999979,"velocity":0.8031496062992126,"duration":0.2061631119791656},{"name":"B2","midi":47,"time":44.99998199999979,"velocity":0.8031496062992126,"duration":0.41449636197916107},{"name":"D#3","midi":51,"time":44.99998199999979,"velocity":0.8031496062992126,"duration":0.41449636197916107},{"name":"A5","midi":81,"time":45.208315249999785,"velocity":0.8031496062992126,"duration":0.2061631119791656},{"name":"G5","midi":79,"time":45.41664849999978,"velocity":0.8031496062992126,"duration":0.260416562500005},{"name":"E3","midi":52,"time":45.41664849999978,"velocity":0.8031496062992126,"duration":0.8246524479166624},{"name":"E2","midi":40,"time":45.41664849999978,"velocity":0.8031496062992126,"duration":0.8246524479166624},{"name":"D#5","midi":75,"time":45.62498174999978,"velocity":0.8031496062992126,"duration":0.2061631119791656},{"name":"E5","midi":76,"time":45.83331499999978,"velocity":0.8031496062992126,"duration":0.2061631119791656},{"name":"G5","midi":79,"time":46.041648249999774,"velocity":0.8031496062992126,"duration":0.2061631119791656},{"name":"C5","midi":72,"time":46.24998149999977,"velocity":0.8031496062992126,"duration":0.10199648697916786},{"name":"B4","midi":71,"time":46.35414812499977,"velocity":0.8031496062992126,"duration":0.10199648697916786},{"name":"C5","midi":72,"time":46.458314749999765,"velocity":0.8031496062992126,"duration":0.41449636197916107},{"name":"E3","midi":52,"time":46.458314749999765,"velocity":0.8031496062992126,"duration":0.2061631119791656},{"name":"F#3","midi":54,"time":46.66664799999976,"velocity":0.8031496062992126,"duration":0.2061631119791656},{"name":"C5","midi":72,"time":46.874981249999756,"velocity":0.8031496062992126,"duration":0.2061631119791656},{"name":"D3","midi":50,"time":46.874981249999756,"velocity":0.8031496062992126,"duration":0.2061631119791656},{"name":"C5","midi":72,"time":47.08331449999975,"velocity":0.8031496062992126,"duration":0.2061631119791656},{"name":"G3","midi":55,"time":47.08331449999975,"velocity":0.8031496062992126,"duration":0.41449636197916107},{"name":"A4","midi":69,"time":47.29164774999975,"velocity":0.8031496062992126,"duration":0.2061631119791656},{"name":"B4","midi":71,"time":47.49998099999974,"velocity":0.8031496062992126,"duration":0.2061631119791656},{"name":"G2","midi":43,"time":47.49998099999974,"velocity":0.8031496062992126,"duration":0.4123262239583312},{"name":"E5","midi":76,"time":47.70831424999974,"velocity":0.8031496062992126,"duration":0.2061631119791656},{"name":"A4","midi":69,"time":47.91664749999973,"velocity":0.8031496062992126,"duration":0.10199648697916786},{"name":"G#4","midi":68,"time":48.02081412499973,"velocity":0.8031496062992126,"duration":0.10199648697916786},{"name":"A4","midi":69,"time":48.12498074999973,"velocity":0.8031496062992126,"duration":0.41449636197916107},{"name":"C#3","midi":49,"time":48.12498074999973,"velocity":0.8031496062992126,"duration":0.2061631119791656},{"name":"D#3","midi":51,"time":48.333313999999724,"velocity":0.8031496062992126,"duration":0.2061631119791656},{"name":"A4","midi":69,"time":48.54164724999972,"velocity":0.8031496062992126,"duration":0.2061631119791656},{"name":"B2","midi":47,"time":48.54164724999972,"velocity":0.8031496062992126,"duration":0.2061631119791656},{"name":"A4","midi":69,"time":48.749980499999715,"velocity":0.8031496062992126,"duration":0.2061631119791656},{"name":"E3","midi":52,"time":48.749980499999715,"velocity":0.8031496062992126,"duration":0.41449636197916107},{"name":"F#4","midi":66,"time":48.95831374999971,"velocity":0.8031496062992126,"duration":0.2061631119791656},{"name":"G4","midi":67,"time":49.166646999999706,"velocity":0.8031496062992126,"duration":0.2061631119791656},{"name":"E2","midi":40,"time":49.166646999999706,"velocity":0.8031496062992126,"duration":0.4123262239583312},{"name":"C5","midi":72,"time":49.3749802499997,"velocity":0.8031496062992126,"duration":0.2061631119791656},{"name":"F4","midi":65,"time":49.5833134999997,"velocity":0.8031496062992126,"duration":0.10199648697916786},{"name":"E4","midi":64,"time":49.687480124999695,"velocity":0.8031496062992126,"duration":0.10199648697916786},{"name":"F4","midi":65,"time":49.79164674999969,"velocity":0.8031496062992126,"duration":0.41449636197916107},{"name":"A2","midi":45,"time":49.79164674999969,"velocity":0.8031496062992126,"duration":0.2061631119791656},{"name":"B2","midi":47,"time":49.99997999999969,"velocity":0.8031496062992126,"duration":0.2061631119791656},{"name":"F4","midi":65,"time":50.208313249999684,"velocity":0.8031496062992126,"duration":0.2061631119791656},{"name":"G2","midi":43,"time":50.208313249999684,"velocity":0.8031496062992126,"duration":0.2061631119791656},{"name":"F4","midi":65,"time":50.41664649999968,"velocity":0.8031496062992126,"duration":0.260416562500005},{"name":"C3","midi":48,"time":50.41664649999968,"velocity":0.8031496062992126,"duration":0.41449636197916817},{"name":"D#4","midi":63,"time":50.62497974999968,"velocity":0.8031496062992126,"duration":0.2061631119791656},{"name":"E4","midi":64,"time":50.83331299999968,"velocity":0.8031496062992126,"duration":0.2061631119791656},{"name":"C#3","midi":49,"time":50.83331299999968,"velocity":0.8031496062992126,"duration":0.41449636197916107},{"name":"A4","midi":69,"time":51.04164624999967,"velocity":0.8031496062992126,"duration":0.2061631119791656},{"name":"G4","midi":67,"time":51.24997949999967,"velocity":0.8031496062992126,"duration":0.260416562500005},{"name":"D3","midi":50,"time":51.24997949999967,"velocity":0.8031496062992126,"duration":0.41449636197916817},{"name":"E4","midi":64,"time":51.45831274999967,"velocity":0.8031496062992126,"duration":0.2061631119791656},{"name":"F#4","midi":66,"time":51.666645999999666,"velocity":0.8031496062992126,"duration":0.2061631119791656},{"name":"D#3","midi":51,"time":51.666645999999666,"velocity":0.8031496062992126,"duration":0.41449636197916107},{"name":"B4","midi":71,"time":51.87497924999966,"velocity":0.8031496062992126,"duration":0.2061631119791656},{"name":"A4","midi":69,"time":52.08331249999966,"velocity":0.8031496062992126,"duration":0.260416562500005},{"name":"E3","midi":52,"time":52.08331249999966,"velocity":0.8031496062992126,"duration":0.41449636197916817},{"name":"F#4","midi":66,"time":52.29164574999966,"velocity":0.8031496062992126,"duration":0.2061631119791656},{"name":"G4","midi":67,"time":52.499978999999655,"velocity":0.8031496062992126,"duration":0.2061631119791656},{"name":"E2","midi":40,"time":52.499978999999655,"velocity":0.8031496062992126,"duration":0.41449636197916107},{"name":"C5","midi":72,"time":52.70831224999965,"velocity":0.8031496062992126,"duration":0.2061631119791656},{"name":"B4","midi":71,"time":52.916645499999646,"velocity":0.8031496062992126,"duration":0.260416562500005},{"name":"F#2","midi":42,"time":52.916645499999646,"velocity":0.8031496062992126,"duration":0.41449636197916817},{"name":"G4","midi":67,"time":53.12497874999965,"velocity":0.8031496062992126,"duration":0.2061631119791656},{"name":"A4","midi":69,"time":53.333311999999644,"velocity":0.8031496062992126,"duration":0.2061631119791656},{"name":"F#3","midi":54,"time":53.333311999999644,"velocity":0.8031496062992126,"duration":0.41449636197916107},{"name":"D5","midi":74,"time":53.54164524999964,"velocity":0.8031496062992126,"duration":0.2061631119791656},{"name":"C5","midi":72,"time":53.749978499999635,"velocity":0.8031496062992126,"duration":0.2061631119791656},{"name":"G3","midi":55,"time":53.749978499999635,"velocity":0.8031496062992126,"duration":0.41449636197916107},{"name":"A4","midi":69,"time":53.95831174999963,"velocity":0.8031496062992126,"duration":0.2061631119791656},{"name":"B4","midi":71,"time":54.166644999999626,"velocity":0.8031496062992126,"duration":0.2061631119791656},{"name":"G2","midi":43,"time":54.166644999999626,"velocity":0.8031496062992126,"duration":0.4123262239583312},{"name":"D5","midi":74,"time":54.37497824999962,"velocity":0.8031496062992126,"duration":0.2061631119791656},{"name":"G5","midi":79,"time":54.58331149999962,"velocity":0.8031496062992126,"duration":0.10199648697916786},{"name":"F#5","midi":78,"time":54.687478124999615,"velocity":0.8031496062992126,"duration":0.10199648697916786},{"name":"G5","midi":79,"time":54.79164474999961,"velocity":0.8031496062992126,"duration":0.41449636197916817},{"name":"E3","midi":52,"time":54.79164474999961,"velocity":0.8031496062992126,"duration":0.6076386458333332},{"name":"G3","midi":55,"time":54.999977999999615,"velocity":0.8031496062992126,"duration":0.2061631119791656},{"name":"G5","midi":79,"time":55.20831124999961,"velocity":0.8031496062992126,"duration":0.2061631119791656},{"name":"B3","midi":59,"time":55.20831124999961,"velocity":0.8031496062992126,"duration":0.2061631119791656},{"name":"G5","midi":79,"time":55.416644499999606,"velocity":0.8031496062992126,"duration":0.2061631119791656},{"name":"C3","midi":48,"time":55.416644499999606,"velocity":0.8031496062992126,"duration":0.8246524479166553},{"name":"B4","midi":71,"time":55.6249777499996,"velocity":0.8031496062992126,"duration":0.2061631119791656},{"name":"C5","midi":72,"time":55.8333109999996,"velocity":0.8031496062992126,"duration":0.2061631119791656},{"name":"G3","midi":55,"time":55.8333109999996,"velocity":0.8031496062992126,"duration":0.41449636197916107},{"name":"E5","midi":76,"time":56.04164424999959,"velocity":0.8031496062992126,"duration":0.2061631119791656},{"name":"A4","midi":69,"time":56.24997749999959,"velocity":0.8031496062992126,"duration":1.0416662499999916},{"name":"C4","midi":60,"time":56.24997749999959,"velocity":0.8031496062992126,"duration":0.8246524479166624},{"name":"G5","midi":79,"time":56.45831074999959,"velocity":0.8031496062992126,"duration":0.2061631119791656},{"name":"F#5","midi":78,"time":56.666643999999586,"velocity":0.8031496062992126,"duration":0.2061631119791656},{"name":"A3","midi":57,"time":56.666643999999586,"velocity":0.8031496062992126,"duration":0.41449636197916107},{"name":"A5","midi":81,"time":56.87497724999958,"velocity":0.8031496062992126,"duration":0.2061631119791656},{"name":"D#5","midi":75,"time":57.08331049999958,"velocity":0.8031496062992126,"duration":0.5642358854166645},{"name":"B3","midi":59,"time":57.08331049999958,"velocity":0.8031496062992126,"duration":0.8246524479166695},{"name":"A4","midi":69,"time":57.29164374999958,"velocity":0.8031496062992126,"duration":0.2061631119791656},{"name":"G4","midi":67,"time":57.499976999999575,"velocity":0.8031496062992126,"duration":0.4123262239583383},{"name":"E3","midi":52,"time":57.499976999999575,"velocity":0.8031496062992126,"duration":0.41449636197916817},{"name":"E5","midi":76,"time":57.70831024999958,"velocity":0.8031496062992126,"duration":0.6076386458333332},{"name":"F#4","midi":66,"time":57.91664349999957,"velocity":0.8031496062992126,"duration":0.8246524479166695},{"name":"B3","midi":59,"time":57.91664349999957,"velocity":0.8031496062992126,"duration":1.4453119218750032},{"name":"A4","midi":69,"time":58.124976749999576,"velocity":0.8031496062992126,"duration":0.6076386458333332},{"name":"E5","midi":76,"time":58.33330999999958,"velocity":0.8031496062992126,"duration":0.2061631119791656},{"name":"B2","midi":47,"time":58.33330999999958,"velocity":0.8031496062992126,"duration":0.41449636197916107},{"name":"D#5","midi":75,"time":58.541643249999574,"velocity":0.8031496062992126,"duration":0.2061631119791656},{"name":"E5","midi":76,"time":58.74997649999957,"velocity":0.8031496062992126,"duration":1.6644958619791552},{"name":"E3","midi":52,"time":58.74997649999957,"velocity":0.8031496062992126,"duration":0.8246524479166766},{"name":"B4","midi":71,"time":58.95830974999957,"velocity":0.8031496062992126,"duration":1.2478293619791572},{"name":"G4","midi":67,"time":59.166642999999574,"velocity":0.8031496062992126,"duration":1.0416662499999845},{"name":"B3","midi":59,"time":59.37497624999958,"velocity":0.8031496062992126,"duration":0.2061631119791656},{"name":"E4","midi":64,"time":59.58330949999957,"velocity":0.8031496062992126,"duration":0.2061631119791656},{"name":"C#4","midi":61,"time":59.79164274999957,"velocity":0.8031496062992126,"duration":0.2061631119791656},{"name":"D4","midi":62,"time":59.99997599999956,"velocity":0.8031496062992126,"duration":0.2061631119791656},{"name":"B3","midi":59,"time":60.20830924999956,"velocity":0.8031496062992126,"duration":0.2061631119791656},{"name":"C#4","midi":61,"time":60.416642499999554,"velocity":0.8031496062992126,"duration":0.8246524479166624},{"name":"A4","midi":69,"time":60.62497574999956,"velocity":0.8031496062992126,"duration":0.2061631119791656},{"name":"B4","midi":71,"time":60.83330899999955,"velocity":0.8031496062992126,"duration":0.2061631119791656},{"name":"G4","midi":67,"time":61.04164224999955,"velocity":0.8031496062992126,"duration":0.2061631119791656},{"name":"A4","midi":69,"time":61.24997549999954,"velocity":0.8031496062992126,"duration":0.2061631119791656},{"name":"F#4","midi":66,"time":61.45830874999954,"velocity":0.8031496062992126,"duration":0.2061631119791656},{"name":"A3","midi":57,"time":61.45830874999954,"velocity":0.8031496062992126,"duration":0.2061631119791656},{"name":"G4","midi":67,"time":61.666641999999534,"velocity":0.8031496062992126,"duration":0.2061631119791656},{"name":"B3","midi":59,"time":61.666641999999534,"velocity":0.8031496062992126,"duration":0.2061631119791656},{"name":"E5","midi":76,"time":61.87497524999953,"velocity":0.8031496062992126,"duration":0.2061631119791656},{"name":"C#4","midi":61,"time":61.87497524999953,"velocity":0.8031496062992126,"duration":0.2061631119791656},{"name":"G4","midi":67,"time":62.083308499999525,"velocity":0.8031496062992126,"duration":0.2061631119791656},{"name":"D4","midi":62,"time":62.083308499999525,"velocity":0.8031496062992126,"duration":1.0394961119791617},{"name":"E4","midi":64,"time":62.29164174999952,"velocity":0.8031496062992126,"duration":0.2061631119791656},{"name":"F#4","midi":66,"time":62.499974999999516,"velocity":0.8031496062992126,"duration":1.0416662499999916},{"name":"A4","midi":69,"time":62.70830824999952,"velocity":0.8031496062992126,"duration":0.8246524479166624},{"name":"C5","midi":72,"time":62.91664149999952,"velocity":0.8031496062992126,"duration":0.9548607291666471},{"name":"A3","midi":57,"time":63.12497474999952,"velocity":0.8031496062992126,"duration":0.2061631119791656},{"name":"F#3","midi":54,"time":63.33330799999951,"velocity":0.8031496062992126,"duration":0.2061631119791656},{"name":"D3","midi":50,"time":63.54164124999951,"velocity":0.8031496062992126,"duration":0.2061631119791656},{"name":"G3","midi":55,"time":63.7499744999995,"velocity":0.8031496062992126,"duration":1.0394961119791546},{"name":"A4","midi":69,"time":63.9583077499995,"velocity":0.8031496062992126,"duration":0.2061631119791727},{"name":"B4","midi":71,"time":64.1666409999995,"velocity":0.8031496062992126,"duration":0.2061631119791656},{"name":"D5","midi":74,"time":64.3749742499995,"velocity":0.8031496062992126,"duration":0.2061631119791656},{"name":"F5","midi":77,"time":64.58330749999949,"velocity":0.8031496062992126,"duration":1.0416662499999774},{"name":"C5","midi":72,"time":64.79164074999949,"velocity":0.8031496062992126,"duration":0.2061631119791656},{"name":"A3","midi":57,"time":64.79164074999949,"velocity":0.8031496062992126,"duration":0.2061631119791656},{"name":"D5","midi":74,"time":64.99997399999948,"velocity":0.8031496062992126,"duration":0.2061631119791656},{"name":"B3","midi":59,"time":64.99997399999948,"velocity":0.8031496062992126,"duration":0.2061631119791656},{"name":"B4","midi":71,"time":65.20830724999948,"velocity":0.8031496062992126,"duration":0.2061631119791656},{"name":"G3","midi":55,"time":65.20830724999948,"velocity":0.8031496062992126,"duration":0.2061631119791656},{"name":"G4","midi":67,"time":65.41664049999947,"velocity":0.8031496062992126,"duration":0.8246524479166482},{"name":"C4","midi":60,"time":65.41664049999947,"velocity":0.8031496062992126,"duration":1.0394961119791475},{"name":"B4","midi":71,"time":65.62497374999947,"velocity":0.8031496062992126,"duration":0.2061631119791656},{"name":"C5","midi":72,"time":65.83330699999946,"velocity":0.8031496062992126,"duration":0.2061631119791656},{"name":"E5","midi":76,"time":66.04164024999946,"velocity":0.8031496062992126,"duration":0.2061631119791656},{"name":"F#5","midi":78,"time":66.24997349999946,"velocity":0.8031496062992126,"duration":0.4123262239583312},{"name":"D5","midi":74,"time":66.45830674999945,"velocity":0.8031496062992126,"duration":0.4123262239583312},{"name":"A3","midi":57,"time":66.45830674999945,"velocity":0.8031496062992126,"duration":0.2061631119791656},{"name":"G5","midi":79,"time":66.66663999999945,"velocity":0.8031496062992126,"duration":0.4123262239583312},{"name":"B3","midi":59,"time":66.66663999999945,"velocity":0.8031496062992126,"duration":0.2061631119791656},{"name":"D5","midi":74,"time":66.87497324999944,"velocity":0.8031496062992126,"duration":0.4123262239583312},{"name":"D4","midi":62,"time":66.87497324999944,"velocity":0.8031496062992126,"duration":0.2061631119791656},{"name":"A5","midi":81,"time":67.08330649999944,"velocity":0.8031496062992126,"duration":0.4123262239583312},{"name":"F#3","midi":54,"time":67.08330649999944,"velocity":0.8031496062992126,"duration":0.2061631119791656},{"name":"D5","midi":74,"time":67.29163974999943,"velocity":0.8031496062992126,"duration":0.4123262239583312},{"name":"A3","midi":57,"time":67.29163974999943,"velocity":0.8031496062992126,"duration":0.2061631119791656},{"name":"B5","midi":83,"time":67.49997299999943,"velocity":0.8031496062992126,"duration":0.4123262239583312},{"name":"G3","midi":55,"time":67.49997299999943,"velocity":0.8031496062992126,"duration":0.2061631119791656},{"name":"D5","midi":74,"time":67.70830624999942,"velocity":0.8031496062992126,"duration":0.2061631119791656},{"name":"B3","midi":59,"time":67.70830624999942,"velocity":0.8031496062992126,"duration":0.2061631119791656},{"name":"E5","midi":76,"time":67.91663949999942,"velocity":0.8031496062992126,"duration":0.607638645833319},{"name":"C3","midi":48,"time":67.91663949999942,"velocity":0.8031496062992126,"duration":0.2061631119791656},{"name":"B4","midi":71,"time":68.12497274999942,"velocity":0.8031496062992126,"duration":0.2061631119791656},{"name":"E3","midi":52,"time":68.12497274999942,"velocity":0.8031496062992126,"duration":0.2061631119791656},{"name":"C5","midi":72,"time":68.33330599999941,"velocity":0.8031496062992126,"duration":1.0416662499999774},{"name":"A2","midi":45,"time":68.33330599999941,"velocity":0.8031496062992126,"duration":0.2061631119791656},{"name":"A5","midi":81,"time":68.5416392499994,"velocity":0.8031496062992126,"duration":0.2061631119791656},{"name":"C3","midi":48,"time":68.5416392499994,"velocity":0.8031496062992126,"duration":0.2061631119791656},{"name":"G5","midi":79,"time":68.7499724999994,"velocity":0.8031496062992126,"duration":0.2061631119791656},{"name":"D3","midi":50,"time":68.7499724999994,"velocity":0.8031496062992126,"duration":1.8663186979166255},{"name":"E5","midi":76,"time":68.9583057499994,"velocity":0.8031496062992126,"duration":0.2061631119791656},{"name":"F#5","midi":78,"time":69.16663899999939,"velocity":0.8031496062992126,"duration":0.4123262239583312},{"name":"D2","midi":38,"time":69.16663899999939,"velocity":0.8031496062992126,"duration":1.247829361979143},{"name":"A4","midi":69,"time":69.37497224999939,"velocity":0.8031496062992126,"duration":0.2061631119791656},{"name":"B4","midi":71,"time":69.58330549999938,"velocity":0.8031496062992126,"duration":0.4123262239583312},{"name":"G4","midi":67,"time":69.79163874999938,"velocity":0.8031496062992126,"duration":0.4123262239583312},{"name":"E5","midi":76,"time":69.99997199999937,"velocity":0.8031496062992126,"duration":0.3038193229166666},{"name":"G4","midi":67,"time":70.20830524999937,"velocity":0.8031496062992126,"duration":0.2061631119791656},{"name":"F#4","midi":66,"time":70.41663849999937,"velocity":0.8031496062992126,"duration":0.2061631119791656},{"name":"D4","midi":62,"time":70.62497174999936,"velocity":0.8031496062992126,"duration":0.2061631119791656},{"name":"F#3","midi":54,"time":70.62497174999936,"velocity":0.8031496062992126,"duration":0.2061631119791656},{"name":"G4","midi":67,"time":70.83330499999936,"velocity":0.8031496062992126,"duration":0.2061631119791656},{"name":"E3","midi":52,"time":70.83330499999936,"velocity":0.8031496062992126,"duration":0.2061631119791656},{"name":"D4","midi":62,"time":71.04163824999935,"velocity":0.8031496062992126,"duration":0.2061631119791656},{"name":"G3","midi":55,"time":71.04163824999935,"velocity":0.8031496062992126,"duration":0.2061631119791656},{"name":"A4","midi":69,"time":71.24997149999935,"velocity":0.8031496062992126,"duration":0.2061631119791656},{"name":"F#3","midi":54,"time":71.24997149999935,"velocity":0.8031496062992126,"duration":0.2061631119791656},{"name":"D4","midi":62,"time":71.45830474999934,"velocity":0.8031496062992126,"duration":0.2061631119791656},{"name":"A3","midi":57,"time":71.45830474999934,"velocity":0.8031496062992126,"duration":0.2061631119791656},{"name":"C5","midi":72,"time":71.66663799999934,"velocity":0.8031496062992126,"duration":0.2061631119791656},{"name":"D3","midi":50,"time":71.66663799999934,"velocity":0.8031496062992126,"duration":0.2061631119791656},{"name":"A4","midi":69,"time":71.87497124999933,"velocity":0.8031496062992126,"duration":0.2061631119791656},{"name":"F#3","midi":54,"time":71.87497124999933,"velocity":0.8031496062992126,"duration":0.2061631119791656},{"name":"A#4","midi":70,"time":72.08330449999933,"velocity":0.8031496062992126,"duration":0.4123262239583312},{"name":"G3","midi":55,"time":72.08330449999933,"velocity":0.8031496062992126,"duration":0.41449636197916107},{"name":"D4","midi":62,"time":72.29163774999932,"velocity":0.8031496062992126,"duration":0.2061631119791656},{"name":"G4","midi":67,"time":72.49997099999932,"velocity":0.8031496062992126,"duration":0.2061631119791656},{"name":"F3","midi":53,"time":72.49997099999932,"velocity":0.8031496062992126,"duration":0.41449636197916107},{"name":"A4","midi":69,"time":72.70830424999932,"velocity":0.8031496062992126,"duration":0.2061631119791656},{"name":"A#4","midi":70,"time":72.91663749999931,"velocity":0.8031496062992126,"duration":0.2061631119791656},{"name":"D#3","midi":51,"time":72.91663749999931,"velocity":0.8031496062992126,"duration":0.41449636197916107},{"name":"G4","midi":67,"time":73.1249707499993,"velocity":0.8031496062992126,"duration":0.2061631119791656},{"name":"B4","midi":71,"time":73.3333039999993,"velocity":0.8031496062992126,"duration":0.2061631119791656},{"name":"D3","midi":50,"time":73.3333039999993,"velocity":0.8031496062992126,"duration":0.41449636197916107},{"name":"G4","midi":67,"time":73.5416372499993,"velocity":0.8031496062992126,"duration":0.2061631119791656},{"name":"C5","midi":72,"time":73.74997049999929,"velocity":0.8031496062992126,"duration":0.3038193229166666},{"name":"D#3","midi":51,"time":73.74997049999929,"velocity":0.8031496062992126,"duration":0.41449636197916107},{"name":"G4","midi":67,"time":73.95830374999929,"velocity":0.8031496062992126,"duration":0.2061631119791656},{"name":"D#5","midi":75,"time":74.16663699999928,"velocity":0.8031496062992126,"duration":0.2061631119791656},{"name":"C3","midi":48,"time":74.16663699999928,"velocity":0.8031496062992126,"duration":0.41449636197916107},{"name":"D5","midi":74,"time":74.37497024999928,"velocity":0.8031496062992126,"duration":0.2061631119791656},{"name":"C#5","midi":73,"time":74.58330349999927,"velocity":0.8031496062992126,"duration":0.5208331249999958},{"name":"A2","midi":45,"time":74.58330349999927,"velocity":0.8031496062992126,"duration":0.41449636197916107},{"name":"G4","midi":67,"time":74.79163674999927,"velocity":0.8031496062992126,"duration":0.2061631119791656},{"name":"F#4","midi":66,"time":74.99996999999927,"velocity":0.8031496062992126,"duration":0.2061631119791656},{"name":"D3","midi":50,"time":74.99996999999927,"velocity":0.8031496062992126,"duration":0.41449636197916107},{"name":"C5","midi":72,"time":75.20830324999926,"velocity":0.8031496062992126,"duration":0.2061631119791656},{"name":"B4","midi":71,"time":75.41663649999926,"velocity":0.8031496062992126,"duration":0.607638645833319},{"name":"G3","midi":55,"time":75.41663649999926,"velocity":0.8031496062992126,"duration":0.41449636197916107},{"name":"F4","midi":65,"time":75.62496974999925,"velocity":0.8031496062992126,"duration":0.2061631119791656},{"name":"E4","midi":64,"time":75.83330299999925,"velocity":0.8031496062992126,"duration":0.4123262239583312},{"name":"C3","midi":48,"time":75.83330299999925,"velocity":0.8031496062992126,"duration":0.4123262239583312},{"name":"A4","midi":69,"time":76.04163624999924,"velocity":0.8031496062992126,"duration":0.4123262239583312},{"name":"C4","midi":60,"time":76.04163624999924,"velocity":0.8031496062992126,"duration":0.2061631119791656},{"name":"D4","midi":62,"time":76.24996949999924,"velocity":0.8031496062992126,"duration":0.4123262239583312},{"name":"B3","midi":59,"time":76.24996949999924,"velocity":0.8031496062992126,"duration":0.41449636197916107},{"name":"D3","midi":50,"time":76.24996949999924,"velocity":0.8031496062992126,"duration":0.8246524479166482},{"name":"G4","midi":67,"time":76.45830274999923,"velocity":0.8031496062992126,"duration":0.4123262239583312},{"name":"C4","midi":60,"time":76.66663599999923,"velocity":0.8031496062992126,"duration":0.412326223958317},{"name":"A3","midi":57,"time":76.66663599999923,"velocity":0.8031496062992126,"duration":0.41449636197914685},{"name":"F#4","midi":66,"time":76.87496924999922,"velocity":0.8031496062992126,"duration":0.20616311197915138},{"name":"G4","midi":67,"time":77.0833024999992,"velocity":0.8031496062992126,"duration":2.495658723958286},{"name":"G3","midi":55,"time":77.0833024999992,"velocity":0.8031496062992126,"duration":1.0394961119791475},{"name":"C4","midi":60,"time":77.2916357499992,"velocity":0.8031496062992126,"duration":0.2061631119791656},{"name":"D4","midi":62,"time":77.4999689999992,"velocity":0.8031496062992126,"duration":1.8663186979166397},{"name":"A3","midi":57,"time":77.70830224999919,"velocity":0.8031496062992126,"duration":0.2061631119791656},{"name":"B3","midi":59,"time":77.91663549999919,"velocity":0.8031496062992126,"duration":1.4561626119791526},{"name":"F#3","midi":54,"time":78.12496874999918,"velocity":0.8031496062992126,"duration":0.2061631119791656},{"name":"G3","midi":55,"time":78.33330199999918,"velocity":0.8031496062992126,"duration":1.0416662499999916},{"name":"D3","midi":50,"time":78.54163524999917,"velocity":0.8031496062992126,"duration":0.2061631119791656},{"name":"G2","midi":43,"time":78.74996849999917,"velocity":0.8031496062992126,"duration":0.8246524479166624},{"name":"G5","midi":79,"time":79.99996799999916,"velocity":0.8031496062992126,"duration":0.17361104166666053},{"name":"G3","midi":55,"time":80.20830124999915,"velocity":0.8031496062992126,"duration":0.8246524479166482},{"name":"G5","midi":79,"time":80.20830124999915,"velocity":0.8031496062992126,"duration":0.3949651197916637},{"name":"D5","midi":74,"time":80.20830124999915,"velocity":0.8031496062992126,"duration":0.3949651197916637},{"name":"B4","midi":71,"time":80.20830124999915,"velocity":0.8031496062992126,"duration":0.607638645833319},{"name":"F#5","midi":78,"time":80.62496774999914,"velocity":0.8031496062992126,"duration":0.2061631119791656},{"name":"E5","midi":76,"time":80.83330099999914,"velocity":0.8031496062992126,"duration":0.2061631119791656},{"name":"D5","midi":74,"time":81.04163424999913,"velocity":0.8031496062992126,"duration":0.2061631119791656},{"name":"C5","midi":72,"time":81.24996749999913,"velocity":0.8031496062992126,"duration":0.2061631119791656},{"name":"D4","midi":62,"time":81.45830074999913,"velocity":0.8031496062992126,"duration":0.3949651197916637},{"name":"B4","midi":71,"time":81.45830074999913,"velocity":0.8031496062992126,"duration":0.2061631119791656},{"name":"A4","midi":69,"time":81.66663399999912,"velocity":0.8031496062992126,"duration":0.2061631119791656},{"name":"G4","midi":67,"time":81.87496724999912,"velocity":0.8031496062992126,"duration":0.3949651197916637},{"name":"B4","midi":71,"time":81.87496724999912,"velocity":0.8031496062992126,"duration":0.2061631119791656},{"name":"D5","midi":74,"time":82.08330049999911,"velocity":0.8031496062992126,"duration":0.2061631119791656},{"name":"F#4","midi":66,"time":82.29163374999911,"velocity":0.8031496062992126,"duration":0.3949651197916637},{"name":"A4","midi":69,"time":82.29163374999911,"velocity":0.8031496062992126,"duration":0.2061631119791656},{"name":"C5","midi":72,"time":82.4999669999991,"velocity":0.8031496062992126,"duration":0.2061631119791656},{"name":"G4","midi":67,"time":82.7083002499991,"velocity":0.8031496062992126,"duration":0.3949651197916637},{"name":"B4","midi":71,"time":82.7083002499991,"velocity":0.8031496062992126,"duration":0.3949651197916637},{"name":"F#4","midi":66,"time":83.12496674999909,"velocity":0.8031496062992126,"duration":0.2061631119791656},{"name":"G4","midi":67,"time":83.12496674999909,"velocity":0.8031496062992126,"duration":0.3949651197916637},{"name":"E4","midi":64,"time":83.33329999999908,"velocity":0.8031496062992126,"duration":0.2061631119791656},{"name":"D4","midi":62,"time":83.54163324999908,"velocity":0.8031496062992126,"duration":0.2061631119791656},{"name":"B4","midi":71,"time":83.54163324999908,"velocity":0.8031496062992126,"duration":0.3949651197916637},{"name":"C4","midi":60,"time":83.74996649999908,"velocity":0.8031496062992126,"duration":0.2061631119791656},{"name":"B3","midi":59,"time":83.95829974999907,"velocity":0.8031496062992126,"duration":0.2061631119791656},{"name":"D5","midi":74,"time":83.95829974999907,"velocity":0.8031496062992126,"duration":0.3949651197916637},{"name":"A3","midi":57,"time":84.16663299999907,"velocity":0.8031496062992126,"duration":0.2061631119791656},{"name":"B3","midi":59,"time":84.37496624999906,"velocity":0.8031496062992126,"duration":0.2061631119791656},{"name":"G5","midi":79,"time":84.37496624999906,"velocity":0.8031496062992126,"duration":0.3949651197916637},{"name":"D4","midi":62,"time":84.58329949999906,"velocity":0.8031496062992126,"duration":0.2061631119791656},{"name":"A3","midi":57,"time":84.79163274999905,"velocity":0.8031496062992126,"duration":0.2061631119791656},{"name":"F#5","midi":78,"time":84.79163274999905,"velocity":0.8031496062992126,"duration":0.3949651197916637},{"name":"C4","midi":60,"time":84.99996599999905,"velocity":0.8031496062992126,"duration":0.2061631119791656},{"name":"B3","midi":59,"time":85.20829924999904,"velocity":0.8031496062992126,"duration":0.3949651197916637},{"name":"G5","midi":79,"time":85.20829924999904,"velocity":0.8031496062992126,"duration":0.2061631119791656},{"name":"A5","midi":81,"time":85.41663249999904,"velocity":0.8031496062992126,"duration":0.2061631119791656},{"name":"G3","midi":55,"time":85.62496574999903,"velocity":0.8031496062992126,"duration":0.3949651197916637},{"name":"B5","midi":83,"time":85.62496574999903,"velocity":0.8031496062992126,"duration":0.2061631119791656},{"name":"G5","midi":79,"time":85.83329899999903,"velocity":0.8031496062992126,"duration":0.2061631119791656},{"name":"B3","midi":59,"time":86.04163224999903,"velocity":0.8031496062992126,"duration":0.3949651197916637},{"name":"D5","midi":74,"time":86.04163224999903,"velocity":0.8031496062992126,"duration":0.2061631119791656},{"name":"F5","midi":77,"time":86.24996549999902,"velocity":0.8031496062992126,"duration":0.2061631119791656},{"name":"G3","midi":55,"time":86.45829874999902,"velocity":0.8031496062992126,"duration":0.3949651197916637},{"name":"E5","midi":76,"time":86.45829874999902,"velocity":0.8031496062992126,"duration":0.2061631119791656},{"name":"D5","midi":74,"time":86.66663199999901,"velocity":0.8031496062992126,"duration":0.2061631119791656},{"name":"C4","midi":60,"time":86.87496524999901,"velocity":0.8031496062992126,"duration":0.3949651197916637},{"name":"E5","midi":76,"time":86.87496524999901,"velocity":0.8031496062992126,"duration":0.2061631119791656},{"name":"A5","midi":81,"time":87.083298499999,"velocity":0.8031496062992126,"duration":0.2061631119791656},{"name":"A3","midi":57,"time":87.291631749999,"velocity":0.8031496062992126,"duration":0.3949651197916637},{"name":"B5","midi":83,"time":87.291631749999,"velocity":0.8031496062992126,"duration":0.2061631119791656},{"name":"C6","midi":84,"time":87.499964999999,"velocity":0.8031496062992126,"duration":0.2061631119791656},{"name":"D4","midi":62,"time":87.70829824999899,"velocity":0.8031496062992126,"duration":0.3949651197916637},{"name":"F#5","midi":78,"time":87.70829824999899,"velocity":0.8031496062992126,"duration":0.3949651197916637},{"name":"C4","midi":60,"time":88.12496474999898,"velocity":0.8031496062992126,"duration":0.2061631119791656},{"name":"D5","midi":74,"time":88.12496474999898,"velocity":0.8031496062992126,"duration":0.4123262239583312},{"name":"B3","midi":59,"time":88.33329799999898,"velocity":0.8031496062992126,"duration":0.2061631119791656},{"name":"A3","midi":57,"time":88.54163124999897,"velocity":0.8031496062992126,"duration":0.2061631119791656},{"name":"G3","midi":55,"time":88.74996449999897,"velocity":0.8031496062992126,"duration":0.2061631119791656},{"name":"E5","midi":76,"time":88.74996449999897,"velocity":0.8031496062992126,"duration":0.2061631119791656},{"name":"F#3","midi":54,"time":88.95829774999896,"velocity":0.8031496062992126,"duration":0.2061631119791656},{"name":"D5","midi":74,"time":88.95829774999896,"velocity":0.8031496062992126,"duration":0.2061631119791656},{"name":"E3","midi":52,"time":89.16663099999896,"velocity":0.8031496062992126,"duration":0.2061631119791656},{"name":"C5","midi":72,"time":89.16663099999896,"velocity":0.8031496062992126,"duration":0.2061631119791656},{"name":"D3","midi":50,"time":89.37496424999895,"velocity":0.8031496062992126,"duration":0.2061631119791656},{"name":"B4","midi":71,"time":89.37496424999895,"velocity":0.8031496062992126,"duration":0.3038193229166666},{"name":"F#3","midi":54,"time":89.58329749999895,"velocity":0.8031496062992126,"duration":0.2061631119791656},{"name":"D5","midi":74,"time":89.58329749999895,"velocity":0.8031496062992126,"duration":0.2061631119791656},{"name":"C3","midi":48,"time":89.79163074999894,"velocity":0.8031496062992126,"duration":0.2061631119791656},{"name":"A4","midi":69,"time":89.79163074999894,"velocity":0.8031496062992126,"duration":0.3038193229166666},{"name":"F#3","midi":54,"time":89.99996399999894,"velocity":0.8031496062992126,"duration":0.2061631119791656},{"name":"D5","midi":74,"time":89.99996399999894,"velocity":0.8031496062992126,"duration":0.2061631119791656},{"name":"B2","midi":47,"time":90.20829724999894,"velocity":0.8031496062992126,"duration":0.3949651197916637},{"name":"G4","midi":67,"time":90.20829724999894,"velocity":0.8031496062992126,"duration":0.3038193229166666},{"name":"D5","midi":74,"time":90.41663049999893,"velocity":0.8031496062992126,"duration":0.2061631119791656},{"name":"A2","midi":45,"time":90.62496374999893,"velocity":0.8031496062992126,"duration":0.3949651197916637},{"name":"F#4","midi":66,"time":90.62496374999893,"velocity":0.8031496062992126,"duration":0.3038193229166666},{"name":"D5","midi":74,"time":90.83329699999892,"velocity":0.8031496062992126,"duration":0.2061631119791656},{"name":"B2","midi":47,"time":91.04163024999892,"velocity":0.8031496062992126,"duration":0.3949651197916637},{"name":"G4","midi":67,"time":91.04163024999892,"velocity":0.8031496062992126,"duration":0.2061631119791656},{"name":"D5","midi":74,"time":91.24996349999891,"velocity":0.8031496062992126,"duration":0.2061631119791656},{"name":"G2","midi":43,"time":91.45829674999891,"velocity":0.8031496062992126,"duration":0.3949651197916637},{"name":"C5","midi":72,"time":91.45829674999891,"velocity":0.8031496062992126,"duration":0.2061631119791656},{"name":"B4","midi":71,"time":91.6666299999989,"velocity":0.8031496062992126,"duration":0.2061631119791656},{"name":"A2","midi":45,"time":91.8749632499989,"velocity":0.8031496062992126,"duration":0.3949651197916637},{"name":"A4","midi":69,"time":91.8749632499989,"velocity":0.8031496062992126,"duration":0.2061631119791656},{"name":"G4","midi":67,"time":92.0832964999989,"velocity":0.8031496062992126,"duration":0.2061631119791656},{"name":"B2","midi":47,"time":92.29162974999889,"velocity":0.8031496062992126,"duration":0.3949651197916637},{"name":"F4","midi":65,"time":92.29162974999889,"velocity":0.8031496062992126,"duration":0.3038193229166666},{"name":"D5","midi":74,"time":92.49996299999889,"velocity":0.8031496062992126,"duration":0.2061631119791656},{"name":"C3","midi":48,"time":92.70829624999888,"velocity":0.8031496062992126,"duration":0.3949651197916637},{"name":"E4","midi":64,"time":92.70829624999888,"velocity":0.8031496062992126,"duration":0.3038193229166666},{"name":"D5","midi":74,"time":92.91662949999888,"velocity":0.8031496062992126,"duration":0.2061631119791656},{"name":"B2","midi":47,"time":93.12496274999887,"velocity":0.8031496062992126,"duration":0.3949651197916637},{"name":"D4","midi":62,"time":93.12496274999887,"velocity":0.8031496062992126,"duration":0.3038193229166666},{"name":"D5","midi":74,"time":93.33329599999887,"velocity":0.8031496062992126,"duration":0.2061631119791656},{"name":"C3","midi":48,"time":93.54162924999886,"velocity":0.8031496062992126,"duration":0.3949651197916637},{"name":"E4","midi":64,"time":93.54162924999886,"velocity":0.8031496062992126,"duration":0.2061631119791656},{"name":"D5","midi":74,"time":93.74996249999886,"velocity":0.8031496062992126,"duration":0.2061631119791656},{"name":"A2","midi":45,"time":93.95829574999885,"velocity":0.8031496062992126,"duration":0.3949651197916637},{"name":"C5","midi":72,"time":93.95829574999885,"velocity":0.8031496062992126,"duration":0.2061631119791656},{"name":"B4","midi":71,"time":94.16662899999885,"velocity":0.8031496062992126,"duration":0.2061631119791656},{"name":"B2","midi":47,"time":94.37496224999884,"velocity":0.8031496062992126,"duration":0.3949651197916637},{"name":"A4","midi":69,"time":94.37496224999884,"velocity":0.8031496062992126,"duration":0.2061631119791656},{"name":"G4","midi":67,"time":94.58329549999884,"velocity":0.8031496062992126,"duration":0.2061631119791656},{"name":"C3","midi":48,"time":94.79162874999884,"velocity":0.8031496062992126,"duration":0.3949651197916637},{"name":"A4","midi":69,"time":94.79162874999884,"velocity":0.8031496062992126,"duration":0.2061631119791656},{"name":"C5","midi":72,"time":94.99996199999883,"velocity":0.8031496062992126,"duration":0.2061631119791656},{"name":"D3","midi":50,"time":95.20829524999883,"velocity":0.8031496062992126,"duration":0.3949651197916637},{"name":"F#4","midi":66,"time":95.20829524999883,"velocity":0.8031496062992126,"duration":0.2061631119791656},{"name":"E4","midi":64,"time":95.41662849999882,"velocity":0.8031496062992126,"duration":0.2061631119791656},{"name":"C3","midi":48,"time":95.62496174999882,"velocity":0.8031496062992126,"duration":0.2061631119791656},{"name":"D4","midi":62,"time":95.62496174999882,"velocity":0.8031496062992126,"duration":0.2061631119791656},{"name":"B2","midi":47,"time":95.83329499999881,"velocity":0.8031496062992126,"duration":0.2061631119791656},{"name":"E4","midi":64,"time":95.83329499999881,"velocity":0.8031496062992126,"duration":0.2061631119791656},{"name":"A2","midi":45,"time":96.04162824999881,"velocity":0.8031496062992126,"duration":0.2061631119791656},{"name":"F#4","midi":66,"time":96.04162824999881,"velocity":0.8031496062992126,"duration":0.2061631119791656},{"name":"G2","midi":43,"time":96.2499614999988,"velocity":0.8031496062992126,"duration":0.2061631119791656},{"name":"G4","midi":67,"time":96.2499614999988,"velocity":0.8031496062992126,"duration":0.2061631119791656},{"name":"F#2","midi":42,"time":96.4582947499988,"velocity":0.8031496062992126,"duration":0.2061631119791656},{"name":"A4","midi":69,"time":96.4582947499988,"velocity":0.8031496062992126,"duration":0.2061631119791656},{"name":"E2","midi":40,"time":96.6666279999988,"velocity":0.8031496062992126,"duration":0.2061631119791656},{"name":"B4","midi":71,"time":96.6666279999988,"velocity":0.8031496062992126,"duration":0.2061631119791656},{"name":"D2","midi":38,"time":96.87496124999879,"velocity":0.8031496062992126,"duration":0.2061631119791656},{"name":"C5","midi":72,"time":96.87496124999879,"velocity":0.8031496062992126,"duration":0.2061631119791656},{"name":"F#2","midi":42,"time":97.08329449999879,"velocity":0.8031496062992126,"duration":0.2061631119791656},{"name":"A4","midi":69,"time":97.08329449999879,"velocity":0.8031496062992126,"duration":0.2061631119791656},{"name":"A2","midi":45,"time":97.29162774999878,"velocity":0.8031496062992126,"duration":0.2061631119791656},{"name":"D5","midi":74,"time":97.29162774999878,"velocity":0.8031496062992126,"duration":0.2061631119791656},{"name":"D3","midi":50,"time":97.49996099999878,"velocity":0.8031496062992126,"duration":0.2061631119791656},{"name":"A4","midi":69,"time":97.49996099999878,"velocity":0.8031496062992126,"duration":0.2061631119791656},{"name":"G2","midi":43,"time":97.70829424999877,"velocity":0.8031496062992126,"duration":1.664495861979134},{"name":"B4","midi":71,"time":97.70829424999877,"velocity":0.8031496062992126,"duration":1.664495861979134},{"name":"G4","midi":67,"time":97.91662749999877,"velocity":0.8031496062992126,"duration":0.2061631119791656},{"name":"F#4","midi":66,"time":98.12496074999876,"velocity":0.8031496062992126,"duration":0.2061631119791656},{"name":"E4","midi":64,"time":98.33329399999876,"velocity":0.8031496062992126,"duration":0.2061631119791656},{"name":"D4","midi":62,"time":98.54162724999875,"velocity":0.8031496062992126,"duration":0.2061631119791656},{"name":"C4","midi":60,"time":98.74996049999875,"velocity":0.8031496062992126,"duration":0.2061631119791656},{"name":"B3","midi":59,"time":98.95829374999875,"velocity":0.8031496062992126,"duration":0.2061631119791656},{"name":"A3","midi":57,"time":99.16662699999874,"velocity":0.8031496062992126,"duration":0.2061631119791656},{"name":"G3","midi":55,"time":99.37496024999874,"velocity":0.8031496062992126,"duration":0.2061631119791656},{"name":"B3","midi":59,"time":99.58329349999873,"velocity":0.8031496062992126,"duration":0.2061631119791656},{"name":"F#3","midi":54,"time":99.79162674999873,"velocity":0.8031496062992126,"duration":0.2061631119791656},{"name":"B4","midi":71,"time":99.79162674999873,"velocity":0.8031496062992126,"duration":0.38845470572915985},{"name":"A3","midi":57,"time":99.99995999999872,"velocity":0.8031496062992126,"duration":0.2061631119791656},{"name":"G3","midi":55,"time":100.20829324999872,"velocity":0.8031496062992126,"duration":0.3949651197916637},{"name":"E5","midi":76,"time":100.20829324999872,"velocity":0.8031496062992126,"duration":0.2061631119791656},{"name":"F#5","midi":78,"time":100.41662649999871,"velocity":0.8031496062992126,"duration":0.2061631119791656},{"name":"E3","midi":52,"time":100.62495974999871,"velocity":0.8031496062992126,"duration":0.3949651197916637},{"name":"G5","midi":79,"time":100.62495974999871,"velocity":0.8031496062992126,"duration":0.2061631119791656},{"name":"E5","midi":76,"time":100.8332929999987,"velocity":0.8031496062992126,"duration":0.2061631119791656},{"name":"G3","midi":55,"time":101.0416262499987,"velocity":0.8031496062992126,"duration":0.3949651197916637},{"name":"B4","midi":71,"time":101.0416262499987,"velocity":0.8031496062992126,"duration":0.2604165624999979},{"name":"E5","midi":76,"time":101.2499594999987,"velocity":0.8031496062992126,"duration":0.2061631119791656},{"name":"E3","midi":52,"time":101.45829274999869,"velocity":0.8031496062992126,"duration":0.3949651197916637},{"name":"F#5","midi":78,"time":101.45829274999869,"velocity":0.8031496062992126,"duration":0.2061631119791656},{"name":"G5","midi":79,"time":101.66662599999869,"velocity":0.8031496062992126,"duration":0.2061631119791656},{"name":"B3","midi":59,"time":101.87495924999868,"velocity":0.8031496062992126,"duration":0.3949651197916637},{"name":"D#5","midi":75,"time":101.87495924999868,"velocity":0.8031496062992126,"duration":0.2604165624999979},{"name":"A5","midi":81,"time":102.08329249999868,"velocity":0.8031496062992126,"duration":0.2061631119791656},{"name":"B2","midi":47,"time":102.29162574999867,"velocity":0.8031496062992126,"duration":0.3949651197916637},{"name":"G5","midi":79,"time":102.29162574999867,"velocity":0.8031496062992126,"duration":0.2061631119791656},{"name":"F#5","midi":78,"time":102.49995899999867,"velocity":0.8031496062992126,"duration":0.2061631119791656},{"name":"E3","midi":52,"time":102.70829224999866,"velocity":0.8031496062992126,"duration":0.2061631119791656},{"name":"G5","midi":79,"time":102.70829224999866,"velocity":0.8031496062992126,"duration":0.3949651197916637},{"name":"F#3","midi":54,"time":102.91662549999866,"velocity":0.8031496062992126,"duration":0.2061631119791656},{"name":"G3","midi":55,"time":103.12495874999865,"velocity":0.8031496062992126,"duration":0.2061631119791656},{"name":"E5","midi":76,"time":103.12495874999865,"velocity":0.8031496062992126,"duration":0.3949651197916637},{"name":"E3","midi":52,"time":103.33329199999865,"velocity":0.8031496062992126,"duration":0.2061631119791656},{"name":"C#3","midi":49,"time":103.54162524999865,"velocity":0.8031496062992126,"duration":0.2061631119791656},{"name":"G5","midi":79,"time":103.54162524999865,"velocity":0.8031496062992126,"duration":0.3949651197916637},{"name":"G3","midi":55,"time":103.74995849999864,"velocity":0.8031496062992126,"duration":0.2061631119791656},{"name":"B2","midi":47,"time":103.95829174999864,"velocity":0.8031496062992126,"duration":0.2061631119791656},{"name":"D5","midi":74,"time":103.95829174999864,"velocity":0.8031496062992126,"duration":0.3949651197916637},{"name":"G3","midi":55,"time":104.16662499999863,"velocity":0.8031496062992126,"duration":0.2061631119791656},{"name":"A2","midi":45,"time":104.37495824999863,"velocity":0.8031496062992126,"duration":0.2061631119791656},{"name":"C#5","midi":73,"time":104.37495824999863,"velocity":0.8031496062992126,"duration":0.3949651197916637},{"name":"G3","midi":55,"time":104.58329149999862,"velocity":0.8031496062992126,"duration":0.2061631119791656},{"name":"F#3","midi":54,"time":104.79162474999862,"velocity":0.8031496062992126,"duration":0.2061631119791656},{"name":"A5","midi":81,"time":104.79162474999862,"velocity":0.8031496062992126,"duration":0.3949651197916637},{"name":"E3","midi":52,"time":104.99995799999861,"velocity":0.8031496062992126,"duration":0.2061631119791656},{"name":"F#3","midi":54,"time":105.20829124999861,"velocity":0.8031496062992126,"duration":0.3949651197916637},{"name":"D5","midi":74,"time":105.20829124999861,"velocity":0.8031496062992126,"duration":0.2061631119791656},{"name":"E5","midi":76,"time":105.4166244999986,"velocity":0.8031496062992126,"duration":0.2061631119791656},{"name":"D3","midi":50,"time":105.6249577499986,"velocity":0.8031496062992126,"duration":0.3949651197916637},{"name":"F#5","midi":78,"time":105.6249577499986,"velocity":0.8031496062992126,"duration":0.2061631119791656},{"name":"D5","midi":74,"time":105.8332909999986,"velocity":0.8031496062992126,"duration":0.2061631119791656},{"name":"F#3","midi":54,"time":106.04162424999859,"velocity":0.8031496062992126,"duration":0.3949651197916637},{"name":"A4","midi":69,"time":106.04162424999859,"velocity":0.8031496062992126,"duration":0.2061631119791656},{"name":"C5","midi":72,"time":106.24995749999859,"velocity":0.8031496062992126,"duration":0.2061631119791656},{"name":"D3","midi":50,"time":106.45829074999858,"velocity":0.8031496062992126,"duration":0.3949651197916637},{"name":"B4","midi":71,"time":106.45829074999858,"velocity":0.8031496062992126,"duration":0.2061631119791656},{"name":"A4","midi":69,"time":106.66662399999858,"velocity":0.8031496062992126,"duration":0.2061631119791656},{"name":"G3","midi":55,"time":106.87495724999857,"velocity":0.8031496062992126,"duration":0.3949651197916637},{"name":"B4","midi":71,"time":106.87495724999857,"velocity":0.8031496062992126,"duration":0.2061631119791656},{"name":"E5","midi":76,"time":107.08329049999857,"velocity":0.8031496062992126,"duration":0.2061631119791656},{"name":"E3","midi":52,"time":107.29162374999856,"velocity":0.8031496062992126,"duration":0.3949651197916637},{"name":"F#5","midi":78,"time":107.29162374999856,"velocity":0.8031496062992126,"duration":0.2061631119791656},{"name":"G5","midi":79,"time":107.49995699999856,"velocity":0.8031496062992126,"duration":0.2061631119791656},{"name":"A3","midi":57,"time":107.70829024999856,"velocity":0.8031496062992126,"duration":0.3949651197916637},{"name":"C#5","midi":73,"time":107.70829024999856,"velocity":0.8031496062992126,"duration":0.3949651197916637},{"name":"G3","midi":55,"time":108.12495674999855,"velocity":0.8031496062992126,"duration":0.2061631119791656},{"name":"A4","midi":69,"time":108.12495674999855,"velocity":0.8031496062992126,"duration":0.4123262239583312},{"name":"F#3","midi":54,"time":108.33328999999854,"velocity":0.8031496062992126,"duration":0.2061631119791656},{"name":"E3","midi":52,"time":108.54162324999854,"velocity":0.8031496062992126,"duration":0.2061631119791656},{"name":"D3","midi":50,"time":108.74995649999853,"velocity":0.8031496062992126,"duration":0.2061631119791656},{"name":"C#3","midi":49,"time":108.95828974999853,"velocity":0.8031496062992126,"duration":0.2061631119791656},{"name":"A4","midi":69,"time":108.95828974999853,"velocity":0.8031496062992126,"duration":0.2061631119791656},{"name":"B2","midi":47,"time":109.16662299999852,"velocity":0.8031496062992126,"duration":0.2061631119791656},{"name":"B4","midi":71,"time":109.16662299999852,"velocity":0.8031496062992126,"duration":0.2061631119791656},{"name":"A2","midi":45,"time":109.37495624999852,"velocity":0.8031496062992126,"duration":0.2061631119791656},{"name":"C#5","midi":73,"time":109.37495624999852,"velocity":0.8031496062992126,"duration":0.2061631119791656},{"name":"E3","midi":52,"time":109.58328949999851,"velocity":0.8031496062992126,"duration":0.2061631119791656},{"name":"D5","midi":74,"time":109.58328949999851,"velocity":0.8031496062992126,"duration":0.2061631119791656},{"name":"G2","midi":43,"time":109.79162274999851,"velocity":0.8031496062992126,"duration":0.2061631119791656},{"name":"E5","midi":76,"time":109.79162274999851,"velocity":0.8031496062992126,"duration":0.2061631119791656},{"name":"E3","midi":52,"time":109.9999559999985,"velocity":0.8031496062992126,"duration":0.2061631119791656},{"name":"C#5","midi":73,"time":109.9999559999985,"velocity":0.8031496062992126,"duration":0.2061631119791656},{"name":"F#2","midi":42,"time":110.2082892499985,"velocity":0.8031496062992126,"duration":0.3949651197916637},{"name":"D5","midi":74,"time":110.2082892499985,"velocity":0.8031496062992126,"duration":0.2061631119791656},{"name":"E5","midi":76,"time":110.4166224999985,"velocity":0.8031496062992126,"duration":0.2061631119791656},{"name":"E2","midi":40,"time":110.62495574999849,"velocity":0.8031496062992126,"duration":0.3949651197916637},{"name":"A4","midi":69,"time":110.62495574999849,"velocity":0.8031496062992126,"duration":0.2061631119791656},{"name":"C#5","midi":73,"time":110.83328899999849,"velocity":0.8031496062992126,"duration":0.2061631119791656},{"name":"F#2","midi":42,"time":111.04162224999848,"velocity":0.8031496062992126,"duration":0.3949651197916637},{"name":"D5","midi":74,"time":111.04162224999848,"velocity":0.8031496062992126,"duration":0.2061631119791656},{"name":"E5","midi":76,"time":111.24995549999848,"velocity":0.8031496062992126,"duration":0.2061631119791656},{"name":"A2","midi":45,"time":111.45828874999847,"velocity":0.8031496062992126,"duration":0.3949651197916637},{"name":"A4","midi":69,"time":111.45828874999847,"velocity":0.8031496062992126,"duration":0.3038193229166666},{"name":"D5","midi":74,"time":111.66662199999847,"velocity":0.8031496062992126,"duration":0.2061631119791656},{"name":"D3","midi":50,"time":111.87495524999846,"velocity":0.8031496062992126,"duration":0.3949651197916637},{"name":"F#4","midi":66,"time":111.87495524999846,"velocity":0.8031496062992126,"duration":0.3038193229166666},{"name":"D5","midi":74,"time":112.08328849999846,"velocity":0.8031496062992126,"duration":0.2061631119791656},{"name":"F#2","midi":42,"time":112.29162174999846,"velocity":0.8031496062992126,"duration":0.3949651197916637},{"name":"A4","midi":69,"time":112.29162174999846,"velocity":0.8031496062992126,"duration":0.3038193229166666},{"name":"E5","midi":76,"time":112.49995499999845,"velocity":0.8031496062992126,"duration":0.2061631119791656},{"name":"G2","midi":43,"time":112.70828824999845,"velocity":0.8031496062992126,"duration":0.3949651197916637},{"name":"D5","midi":74,"time":112.70828824999845,"velocity":0.8031496062992126,"duration":0.2061631119791656},{"name":"E5","midi":76,"time":112.91662149999844,"velocity":0.8031496062992126,"duration":0.2061631119791656},{"name":"A2","midi":45,"time":113.12495474999844,"velocity":0.8031496062992126,"duration":0.3949651197916637},{"name":"B4","midi":71,"time":113.12495474999844,"velocity":0.8031496062992126,"duration":0.2061631119791656},{"name":"C#5","midi":73,"time":113.33328799999843,"velocity":0.8031496062992126,"duration":0.2061631119791656},{"name":"B2","midi":47,"time":113.54162124999843,"velocity":0.8031496062992126,"duration":0.3949651197916637},{"name":"D5","midi":74,"time":113.54162124999843,"velocity":0.8031496062992126,"duration":0.2061631119791656},{"name":"E5","midi":76,"time":113.74995449999842,"velocity":0.8031496062992126,"duration":0.2061631119791656},{"name":"G2","midi":43,"time":113.95828774999842,"velocity":0.8031496062992126,"duration":0.3949651197916637},{"name":"B4","midi":71,"time":113.95828774999842,"velocity":0.8031496062992126,"duration":0.3038193229166666},{"name":"D5","midi":74,"time":114.16662099999841,"velocity":0.8031496062992126,"duration":0.2061631119791656},{"name":"E2","midi":40,"time":114.37495424999841,"velocity":0.8031496062992126,"duration":0.3949651197916637},{"name":"G4","midi":67,"time":114.37495424999841,"velocity":0.8031496062992126,"duration":0.3038193229166666},{"name":"D5","midi":74,"time":114.5832874999984,"velocity":0.8031496062992126,"duration":0.2061631119791656},{"name":"G2","midi":43,"time":114.7916207499984,"velocity":0.8031496062992126,"duration":0.3949651197916637},{"name":"B4","midi":71,"time":114.7916207499984,"velocity":0.8031496062992126,"duration":0.3038193229166666},{"name":"D5","midi":74,"time":114.9999539999984,"velocity":0.8031496062992126,"duration":0.2061631119791656},{"name":"A2","midi":45,"time":115.20828724999839,"velocity":0.8031496062992126,"duration":0.3949651197916637},{"name":"C#5","midi":73,"time":115.20828724999839,"velocity":0.8031496062992126,"duration":0.2061631119791656},{"name":"D5","midi":74,"time":115.41662049999839,"velocity":0.8031496062992126,"duration":0.2061631119791656},{"name":"B2","midi":47,"time":115.62495374999838,"velocity":0.8031496062992126,"duration":0.3949651197916637},{"name":"E5","midi":76,"time":115.62495374999838,"velocity":0.8031496062992126,"duration":0.2061631119791656},{"name":"C#5","midi":73,"time":115.83328699999838,"velocity":0.8031496062992126,"duration":0.2061631119791656},{"name":"C#3","midi":49,"time":116.04162024999837,"velocity":0.8031496062992126,"duration":0.3949651197916637},{"name":"G4","midi":67,"time":116.04162024999837,"velocity":0.8031496062992126,"duration":0.2061631119791656},{"name":"B4","midi":71,"time":116.24995349999837,"velocity":0.8031496062992126,"duration":0.2061631119791656},{"name":"D3","midi":50,"time":116.45828674999836,"velocity":0.8031496062992126,"duration":0.3949651197916637},{"name":"A4","midi":69,"time":116.45828674999836,"velocity":0.8031496062992126,"duration":0.2061631119791656},{"name":"G4","midi":67,"time":116.66661999999836,"velocity":0.8031496062992126,"duration":0.2061631119791656},{"name":"A2","midi":45,"time":116.87495324999836,"velocity":0.8031496062992126,"duration":0.3949651197916637},{"name":"F#4","midi":66,"time":116.87495324999836,"velocity":0.8031496062992126,"duration":0.2604165624999979},{"name":"D5","midi":74,"time":117.08328649999835,"velocity":0.8031496062992126,"duration":0.2604165624999979},{"name":"G3","midi":55,"time":117.29161974999835,"velocity":0.8031496062992126,"duration":0.3949651197916637},{"name":"E4","midi":64,"time":117.29161974999835,"velocity":0.8031496062992126,"duration":0.2604165624999979},{"name":"C#5","midi":73,"time":117.49995299999834,"velocity":0.8031496062992126,"duration":0.2061631119791656},{"name":"F#3","midi":54,"time":117.70828624999834,"velocity":0.8031496062992126,"duration":0.8246524479166482},{"name":"D5","midi":74,"time":117.70828624999834,"velocity":0.8031496062992126,"duration":0.3949651197916637},{"name":"D3","midi":50,"time":118.12495274999833,"velocity":0.8031496062992126,"duration":2.083332499999969},{"name":"C#5","midi":73,"time":118.12495274999833,"velocity":0.8031496062992126,"duration":0.2061631119791656},{"name":"B4","midi":71,"time":118.33328599999832,"velocity":0.8031496062992126,"duration":0.2061631119791656},{"name":"F#3","midi":54,"time":118.54161924999832,"velocity":0.8031496062992126,"duration":0.3949651197916637},{"name":"A4","midi":69,"time":118.54161924999832,"velocity":0.8031496062992126,"duration":0.2061631119791656},{"name":"G4","midi":67,"time":118.74995249999832,"velocity":0.8031496062992126,"duration":0.2061631119791656},{"name":"A3","midi":57,"time":118.95828574999831,"velocity":0.8031496062992126,"duration":0.4123262239583312},{"name":"F#4","midi":66,"time":118.95828574999831,"velocity":0.8031496062992126,"duration":0.2061631119791656},{"name":"E4","midi":64,"time":119.1666189999983,"velocity":0.8031496062992126,"duration":0.2061631119791656},{"name":"D4","midi":62,"time":119.3749522499983,"velocity":0.8031496062992126,"duration":0.6228296119791707},{"name":"F#5","midi":78,"time":119.9999519999983,"velocity":0.8031496062992126,"duration":0.2061631119791656},{"name":"D4","midi":62,"time":120.2082852499983,"velocity":0.8031496062992126,"duration":0.3949651197916637},{"name":"F#5","midi":78,"time":120.2082852499983,"velocity":0.8031496062992126,"duration":1.247829361979143},{"name":"D5","midi":74,"time":120.2082852499983,"velocity":0.8031496062992126,"duration":1.247829361979143},{"name":"A4","midi":69,"time":120.2082852499983,"velocity":0.8031496062992126,"duration":1.247829361979143},{"name":"C4","midi":60,"time":120.62495174999829,"velocity":0.8031496062992126,"duration":0.2061631119791656},{"name":"B3","midi":59,"time":120.83328499999828,"velocity":0.8031496062992126,"duration":0.2061631119791656},{"name":"A3","midi":57,"time":121.04161824999828,"velocity":0.8031496062992126,"duration":0.2061631119791656},{"name":"G3","midi":55,"time":121.24995149999828,"velocity":0.8031496062992126,"duration":0.2061631119791656},{"name":"F#3","midi":54,"time":121.45828474999827,"velocity":0.8031496062992126,"duration":0.2061631119791656},{"name":"D5","midi":74,"time":121.45828474999827,"velocity":0.8031496062992126,"duration":0.2061631119791656},{"name":"E3","midi":52,"time":121.66661799999827,"velocity":0.8031496062992126,"duration":0.2061631119791656},{"name":"E5","midi":76,"time":121.66661799999827,"velocity":0.8031496062992126,"duration":0.2061631119791656},{"name":"D3","midi":50,"time":121.87495124999826,"velocity":0.8031496062992126,"duration":0.2061631119791656},{"name":"F#5","midi":78,"time":121.87495124999826,"velocity":0.8031496062992126,"duration":0.2061631119791656},{"name":"A3","midi":57,"time":122.08328449999826,"velocity":0.8031496062992126,"duration":0.2061631119791656},{"name":"G5","midi":79,"time":122.08328449999826,"velocity":0.8031496062992126,"duration":0.2061631119791656},{"name":"C3","midi":48,"time":122.29161774999825,"velocity":0.8031496062992126,"duration":0.2061631119791656},{"name":"A5","midi":81,"time":122.29161774999825,"velocity":0.8031496062992126,"duration":0.2061631119791656},{"name":"A3","midi":57,"time":122.49995099999825,"velocity":0.8031496062992126,"duration":0.2061631119791656},{"name":"F#5","midi":78,"time":122.49995099999825,"velocity":0.8031496062992126,"duration":0.2061631119791656},{"name":"B2","midi":47,"time":122.70828424999824,"velocity":0.8031496062992126,"duration":0.3949651197916637},{"name":"G5","midi":79,"time":122.70828424999824,"velocity":0.8031496062992126,"duration":0.3949651197916637},{"name":"D3","midi":50,"time":123.12495074999823,"velocity":0.8031496062992126,"duration":0.3949651197916637},{"name":"F#5","midi":78,"time":123.12495074999823,"velocity":0.8031496062992126,"duration":0.2061631119791656},{"name":"E5","midi":76,"time":123.33328399999823,"velocity":0.8031496062992126,"duration":0.2061631119791656},{"name":"G3","midi":55,"time":123.54161724999823,"velocity":0.8031496062992126,"duration":0.3949651197916637},{"name":"D5","midi":74,"time":123.54161724999823,"velocity":0.8031496062992126,"duration":0.2061631119791656},{"name":"C5","midi":72,"time":123.74995049999822,"velocity":0.8031496062992126,"duration":0.2061631119791656},{"name":"A3","midi":57,"time":123.95828374999822,"velocity":0.8031496062992126,"duration":0.3949651197916637},{"name":"B4","midi":71,"time":123.95828374999822,"velocity":0.8031496062992126,"duration":0.2061631119791656},{"name":"A4","midi":69,"time":124.16661699999821,"velocity":0.8031496062992126,"duration":0.2061631119791656},{"name":"B3","midi":59,"time":124.37495024999821,"velocity":0.8031496062992126,"duration":0.3949651197916637},{"name":"G4","midi":67,"time":124.37495024999821,"velocity":0.8031496062992126,"duration":0.2061631119791656},{"name":"B4","midi":71,"time":124.5832834999982,"velocity":0.8031496062992126,"duration":0.2061631119791656},{"name":"G3","midi":55,"time":124.7916167499982,"velocity":0.8031496062992126,"duration":0.3949651197916637},{"name":"D5","midi":74,"time":124.7916167499982,"velocity":0.8031496062992126,"duration":0.2061631119791656},{"name":"F5","midi":77,"time":124.9999499999982,"velocity":0.8031496062992126,"duration":0.2061631119791656},{"name":"C4","midi":60,"time":125.20828324999819,"velocity":0.8031496062992126,"duration":0.3949651197916637},{"name":"E5","midi":76,"time":125.20828324999819,"velocity":0.8031496062992126,"duration":0.2061631119791656},{"name":"D5","midi":74,"time":125.41661649999818,"velocity":0.8031496062992126,"duration":0.2061631119791656},{"name":"E4","midi":64,"time":125.62494974999818,"velocity":0.8031496062992126,"duration":0.3949651197916637},{"name":"C5","midi":72,"time":125.62494974999818,"velocity":0.8031496062992126,"duration":0.2061631119791656},{"name":"B4","midi":71,"time":125.83328299999818,"velocity":0.8031496062992126,"duration":0.2061631119791656},{"name":"C4","midi":60,"time":126.04161624999817,"velocity":0.8031496062992126,"duration":0.3949651197916637},{"name":"A4","midi":69,"time":126.04161624999817,"velocity":0.8031496062992126,"duration":0.2061631119791656},{"name":"F#5","midi":78,"time":126.24994949999817,"velocity":0.8031496062992126,"duration":0.2061631119791656},{"name":"B3","midi":59,"time":126.45828274999816,"velocity":0.8031496062992126,"duration":0.3949651197916637},{"name":"G5","midi":79,"time":126.45828274999816,"velocity":0.8031496062992126,"duration":0.2061631119791656},{"name":"A5","midi":81,"time":126.66661599999816,"velocity":0.8031496062992126,"duration":0.2061631119791656},{"name":"C4","midi":60,"time":126.87494924999815,"velocity":0.8031496062992126,"duration":0.3949651197916637},{"name":"G5","midi":79,"time":126.87494924999815,"velocity":0.8031496062992126,"duration":0.2061631119791656},{"name":"F#5","midi":78,"time":127.08328249999815,"velocity":0.8031496062992126,"duration":0.2061631119791656},{"name":"A3","midi":57,"time":127.29161574999814,"velocity":0.8031496062992126,"duration":0.3949651197916637},{"name":"G5","midi":79,"time":127.29161574999814,"velocity":0.8031496062992126,"duration":0.2061631119791656},{"name":"E5","midi":76,"time":127.49994899999814,"velocity":0.8031496062992126,"duration":0.2061631119791656},{"name":"B3","midi":59,"time":127.70828224999813,"velocity":0.8031496062992126,"duration":0.3949651197916779},{"name":"D#5","midi":75,"time":127.70828224999813,"velocity":0.8031496062992126,"duration":0.3949651197916779},{"name":"A3","midi":57,"time":128.12494874999814,"velocity":0.8031496062992126,"duration":0.2061631119791798},{"name":"B4","midi":71,"time":128.12494874999814,"velocity":0.8031496062992126,"duration":0.4123262239583312},{"name":"G3","midi":55,"time":128.33328199999815,"velocity":0.8031496062992126,"duration":0.20616311197915138},{"name":"F#3","midi":54,"time":128.54161524999813,"velocity":0.8031496062992126,"duration":0.2061631119791798},{"name":"E3","midi":52,"time":128.74994849999814,"velocity":0.8031496062992126,"duration":0.2061631119791798},{"name":"D#3","midi":51,"time":128.95828174999815,"velocity":0.8031496062992126,"duration":0.2061631119791798},{"name":"B5","midi":83,"time":128.95828174999815,"velocity":0.8031496062992126,"duration":0.2061631119791798},{"name":"C#3","midi":49,"time":129.16661499999816,"velocity":0.8031496062992126,"duration":0.2061631119791798},{"name":"A5","midi":81,"time":129.16661499999816,"velocity":0.8031496062992126,"duration":0.2061631119791798},{"name":"B2","midi":47,"time":129.37494824999817,"velocity":0.8031496062992126,"duration":0.2061631119791798},{"name":"G5","midi":79,"time":129.37494824999817,"velocity":0.8031496062992126,"duration":0.2061631119791798},{"name":"F#3","midi":54,"time":129.58328149999818,"velocity":0.8031496062992126,"duration":0.2061631119791798},{"name":"F#5","midi":78,"time":129.58328149999818,"velocity":0.8031496062992126,"duration":0.2061631119791798},{"name":"A2","midi":45,"time":129.7916147499982,"velocity":0.8031496062992126,"duration":0.2061631119791798},{"name":"E5","midi":76,"time":129.7916147499982,"velocity":0.8031496062992126,"duration":0.2061631119791798},{"name":"F#3","midi":54,"time":129.9999479999982,"velocity":0.8031496062992126,"duration":0.2061631119791798},{"name":"D#5","midi":75,"time":129.9999479999982,"velocity":0.8031496062992126,"duration":0.2061631119791798},{"name":"G2","midi":43,"time":130.2082812499982,"velocity":0.8031496062992126,"duration":0.2061631119791798},{"name":"E5","midi":76,"time":130.2082812499982,"velocity":0.8031496062992126,"duration":0.3949651197916637},{"name":"A2","midi":45,"time":130.41661449999822,"velocity":0.8031496062992126,"duration":0.20616311197915138},{"name":"F#2","midi":42,"time":130.6249477499982,"velocity":0.8031496062992126,"duration":0.2061631119791798},{"name":"F#5","midi":78,"time":130.6249477499982,"velocity":0.8031496062992126,"duration":0.2061631119791798},{"name":"A2","midi":45,"time":130.8332809999982,"velocity":0.8031496062992126,"duration":0.2061631119791798},{"name":"D#5","midi":75,"time":130.8332809999982,"velocity":0.8031496062992126,"duration":0.2061631119791798},{"name":"G2","midi":43,"time":131.04161424999822,"velocity":0.8031496062992126,"duration":0.2061631119791798},{"name":"E5","midi":76,"time":131.04161424999822,"velocity":0.8031496062992126,"duration":0.3949651197916637},{"name":"A2","midi":45,"time":131.24994749999823,"velocity":0.8031496062992126,"duration":0.20616311197915138},{"name":"F#2","midi":42,"time":131.4582807499982,"velocity":0.8031496062992126,"duration":0.2061631119791798},{"name":"F#5","midi":78,"time":131.4582807499982,"velocity":0.8031496062992126,"duration":0.2061631119791798},{"name":"A2","midi":45,"time":131.66661399999822,"velocity":0.8031496062992126,"duration":0.2061631119791798},{"name":"D#5","midi":75,"time":131.66661399999822,"velocity":0.8031496062992126,"duration":0.2061631119791798},{"name":"G2","midi":43,"time":131.87494724999823,"velocity":0.8031496062992126,"duration":0.2061631119791798},{"name":"E5","midi":76,"time":131.87494724999823,"velocity":0.8031496062992126,"duration":2.9296863281250296},{"name":"B2","midi":47,"time":132.08328049999824,"velocity":0.8031496062992126,"duration":0.2061631119791798},{"name":"E2","midi":40,"time":132.29161374999825,"velocity":0.8031496062992126,"duration":0.2061631119791798},{"name":"B4","midi":71,"time":132.29161374999825,"velocity":0.8031496062992126,"duration":0.3949651197916637},{"name":"G2","midi":43,"time":132.49994699999826,"velocity":0.8031496062992126,"duration":0.20616311197915138},{"name":"A2","midi":45,"time":132.70828024999824,"velocity":0.8031496062992126,"duration":0.2061631119791798},{"name":"C5","midi":72,"time":132.70828024999824,"velocity":0.8031496062992126,"duration":0.3949651197916637},{"name":"B2","midi":47,"time":132.91661349999825,"velocity":0.8031496062992126,"duration":0.20616311197915138},{"name":"G2","midi":43,"time":133.12494674999823,"velocity":0.8031496062992126,"duration":0.2061631119791798},{"name":"D5","midi":74,"time":133.12494674999823,"velocity":0.8031496062992126,"duration":0.2061631119791798},{"name":"B2","midi":47,"time":133.33327999999824,"velocity":0.8031496062992126,"duration":0.2061631119791798},{"name":"B4","midi":71,"time":133.33327999999824,"velocity":0.8031496062992126,"duration":0.2061631119791798},{"name":"A2","midi":45,"time":133.54161324999825,"velocity":0.8031496062992126,"duration":0.2061631119791798},{"name":"C5","midi":72,"time":133.54161324999825,"velocity":0.8031496062992126,"duration":0.3949651197916637},{"name":"B2","midi":47,"time":133.74994649999826,"velocity":0.8031496062992126,"duration":0.20616311197915138},{"name":"G2","midi":43,"time":133.95827974999824,"velocity":0.8031496062992126,"duration":0.2061631119791798},{"name":"D5","midi":74,"time":133.95827974999824,"velocity":0.8031496062992126,"duration":0.2061631119791798},{"name":"B2","midi":47,"time":134.16661299999825,"velocity":0.8031496062992126,"duration":0.2061631119791798},{"name":"B4","midi":71,"time":134.16661299999825,"velocity":0.8031496062992126,"duration":0.2061631119791798},{"name":"A2","midi":45,"time":134.37494624999826,"velocity":0.8031496062992126,"duration":0.2061631119791798},{"name":"C5","midi":72,"time":134.37494624999826,"velocity":0.8031496062992126,"duration":0.3949651197916637},{"name":"C3","midi":48,"time":134.58327949999827,"velocity":0.8031496062992126,"duration":0.20616311197915138},{"name":"F#2","midi":42,"time":134.79161274999825,"velocity":0.8031496062992126,"duration":0.2061631119791798},{"name":"A5","midi":81,"time":134.79161274999825,"velocity":0.8031496062992126,"duration":0.3949651197916637},{"name":"C5","midi":72,"time":134.79161274999825,"velocity":0.8031496062992126,"duration":0.3949651197916637},{"name":"A2","midi":45,"time":134.99994599999826,"velocity":0.8031496062992126,"duration":0.20616311197915138},{"name":"B2","midi":47,"time":135.20827924999824,"velocity":0.8031496062992126,"duration":0.3949651197916637},{"name":"G5","midi":79,"time":135.20827924999824,"velocity":0.8031496062992126,"duration":0.3949651197916637},{"name":"B4","midi":71,"time":135.20827924999824,"velocity":0.8031496062992126,"duration":0.3949651197916637},{"name":"C#3","midi":49,"time":135.62494574999823,"velocity":0.8031496062992126,"duration":0.2061631119791798},{"name":"A4","midi":69,"time":135.62494574999823,"velocity":0.8031496062992126,"duration":0.3949651197916637},{"name":"F#5","midi":78,"time":135.62494574999823,"velocity":0.8031496062992126,"duration":0.8246524479166624},{"name":"D#3","midi":51,"time":135.83327899999824,"velocity":0.8031496062992126,"duration":0.20616311197915138},{"name":"E3","midi":52,"time":136.04161224999822,"velocity":0.8031496062992126,"duration":0.2061631119791798},{"name":"G4","midi":67,"time":136.04161224999822,"velocity":0.8031496062992126,"duration":0.8246524479166624},{"name":"F#3","midi":54,"time":136.24994549999823,"velocity":0.8031496062992126,"duration":0.20616311197915138},{"name":"G3","midi":55,"time":136.45827874999821,"velocity":0.8031496062992126,"duration":0.2061631119791798},{"name":"E5","midi":76,"time":136.45827874999821,"velocity":0.8031496062992126,"duration":0.6076386458333332},{"name":"A3","midi":57,"time":136.66661199999822,"velocity":0.8031496062992126,"duration":0.20616311197915138},{"name":"B3","midi":59,"time":136.8749452499982,"velocity":0.8031496062992126,"duration":0.3949651197916637},{"name":"F#4","midi":66,"time":136.8749452499982,"velocity":0.8031496062992126,"duration":0.8246524479166624},{"name":"A4","midi":69,"time":137.08327849999822,"velocity":0.8031496062992126,"duration":0.20616311197915138},{"name":"B2","midi":47,"time":137.2916117499982,"velocity":0.8031496062992126,"duration":0.3949651197916637},{"name":"E5","midi":76,"time":137.2916117499982,"velocity":0.8031496062992126,"duration":0.2061631119791798},{"name":"D#5","midi":75,"time":137.4999449999982,"velocity":0.8031496062992126,"duration":0.20616311197915138},{"name":"E3","midi":52,"time":137.7082782499982,"velocity":0.8031496062992126,"duration":0.3949651197916637},{"name":"E5","midi":76,"time":137.7082782499982,"velocity":0.8031496062992126,"duration":2.0833324999999547},{"name":"F#3","midi":54,"time":138.12494474999818,"velocity":0.8031496062992126,"duration":0.2061631119791798},{"name":"C5","midi":72,"time":138.12494474999818,"velocity":0.8031496062992126,"duration":0.3949651197916637},{"name":"G3","midi":55,"time":138.3332779999982,"velocity":0.8031496062992126,"duration":0.20616311197915138},{"name":"A3","midi":57,"time":138.54161124999817,"velocity":0.8031496062992126,"duration":0.2061631119791798},{"name":"B4","midi":71,"time":138.54161124999817,"velocity":0.8031496062992126,"duration":0.3949651197916637},{"name":"B3","midi":59,"time":138.74994449999818,"velocity":0.8031496062992126,"duration":0.20616311197915138},{"name":"C#4","midi":61,"time":138.95827774999816,"velocity":0.8031496062992126,"duration":0.2061631119791798},{"name":"A4","midi":69,"time":138.95827774999816,"velocity":0.8031496062992126,"duration":0.3949651197916637},{"name":"D#4","midi":63,"time":139.16661099999817,"velocity":0.8031496062992126,"duration":0.20616311197915138},{"name":"E4","midi":64,"time":139.37494424999815,"velocity":0.8031496062992126,"duration":0.2061631119791798},{"name":"G4","midi":67,"time":139.37494424999815,"velocity":0.8031496062992126,"duration":0.3949651197916637},{"name":"C#4","midi":61,"time":139.58327749999816,"velocity":0.8031496062992126,"duration":0.20616311197915138},{"name":"D4","midi":62,"time":139.79161074999814,"velocity":0.8031496062992126,"duration":0.2061631119791798},{"name":"E5","midi":76,"time":139.79161074999814,"velocity":0.8031496062992126,"duration":0.3949651197916637},{"name":"B3","midi":59,"time":139.99994399999815,"velocity":0.8031496062992126,"duration":0.20616311197915138},{"name":"C#4","midi":61,"time":140.20827724999813,"velocity":0.8031496062992126,"duration":0.2061631119791798},{"name":"A4","midi":69,"time":140.20827724999813,"velocity":0.8031496062992126,"duration":0.3949651197916637},{"name":"D4","midi":62,"time":140.41661049999814,"velocity":0.8031496062992126,"duration":0.20616311197915138},{"name":"C#4","midi":61,"time":140.62494374999812,"velocity":0.8031496062992126,"duration":0.2061631119791798},{"name":"B4","midi":71,"time":140.62494374999812,"velocity":0.8031496062992126,"duration":0.2061631119791798},{"name":"B3","midi":59,"time":140.83327699999813,"velocity":0.8031496062992126,"duration":0.2061631119791798},{"name":"C#5","midi":73,"time":140.83327699999813,"velocity":0.8031496062992126,"duration":0.2061631119791798},{"name":"A3","midi":57,"time":141.04161024999814,"velocity":0.8031496062992126,"duration":0.2061631119791798},{"name":"D5","midi":74,"time":141.04161024999814,"velocity":0.8031496062992126,"duration":0.2061631119791798},{"name":"G3","midi":55,"time":141.24994349999815,"velocity":0.8031496062992126,"duration":0.2061631119791798},{"name":"E5","midi":76,"time":141.24994349999815,"velocity":0.8031496062992126,"duration":0.2061631119791798},{"name":"F#3","midi":54,"time":141.45827674999816,"velocity":0.8031496062992126,"duration":0.2061631119791798},{"name":"F#5","midi":78,"time":141.45827674999816,"velocity":0.8031496062992126,"duration":0.2061631119791798},{"name":"E3","midi":52,"time":141.66660999999817,"velocity":0.8031496062992126,"duration":0.2061631119791798},{"name":"G5","midi":79,"time":141.66660999999817,"velocity":0.8031496062992126,"duration":0.2061631119791798},{"name":"F#3","midi":54,"time":141.87494324999818,"velocity":0.8031496062992126,"duration":0.2061631119791798},{"name":"A5","midi":81,"time":141.87494324999818,"velocity":0.8031496062992126,"duration":0.2061631119791798},{"name":"D4","midi":62,"time":142.0832764999982,"velocity":0.8031496062992126,"duration":0.2061631119791798},{"name":"F#5","midi":78,"time":142.0832764999982,"velocity":0.8031496062992126,"duration":0.2061631119791798},{"name":"E3","midi":52,"time":142.2916097499982,"velocity":0.8031496062992126,"duration":0.2061631119791798},{"name":"G5","midi":79,"time":142.2916097499982,"velocity":0.8031496062992126,"duration":0.2061631119791798},{"name":"C#4","midi":61,"time":142.4999429999982,"velocity":0.8031496062992126,"duration":0.2061631119791798},{"name":"E5","midi":76,"time":142.4999429999982,"velocity":0.8031496062992126,"duration":0.2061631119791798},{"name":"D4","midi":62,"time":142.70827624999822,"velocity":0.8031496062992126,"duration":0.3949651197916637},{"name":"F#5","midi":78,"time":142.70827624999822,"velocity":0.8031496062992126,"duration":0.2061631119791798},{"name":"G5","midi":79,"time":142.91660949999823,"velocity":0.8031496062992126,"duration":0.20616311197915138},{"name":"D3","midi":50,"time":143.1249427499982,"velocity":0.8031496062992126,"duration":0.2061631119791798},{"name":"F#5","midi":78,"time":143.1249427499982,"velocity":0.8031496062992126,"duration":0.2061631119791798},{"name":"E3","midi":52,"time":143.33327599999822,"velocity":0.8031496062992126,"duration":0.2061631119791798},{"name":"E5","midi":76,"time":143.33327599999822,"velocity":0.8031496062992126,"duration":0.2061631119791798},{"name":"F#3","midi":54,"time":143.54160924999823,"velocity":0.8031496062992126,"duration":0.2061631119791798},{"name":"D5","midi":74,"time":143.54160924999823,"velocity":0.8031496062992126,"duration":0.2061631119791798},{"name":"G3","midi":55,"time":143.74994249999824,"velocity":0.8031496062992126,"duration":0.2061631119791798},{"name":"E5","midi":76,"time":143.74994249999824,"velocity":0.8031496062992126,"duration":0.2061631119791798},{"name":"A3","midi":57,"time":143.95827574999825,"velocity":0.8031496062992126,"duration":0.2061631119791798},{"name":"F#5","midi":78,"time":143.95827574999825,"velocity":0.8031496062992126,"duration":0.2061631119791798},{"name":"B3","midi":59,"time":144.16660899999826,"velocity":0.8031496062992126,"duration":0.2061631119791798},{"name":"G5","midi":79,"time":144.16660899999826,"velocity":0.8031496062992126,"duration":0.2061631119791798},{"name":"C4","midi":60,"time":144.37494224999827,"velocity":0.8031496062992126,"duration":0.2061631119791798},{"name":"A5","midi":81,"time":144.37494224999827,"velocity":0.8031496062992126,"duration":0.2061631119791798},{"name":"D4","midi":62,"time":144.58327549999828,"velocity":0.8031496062992126,"duration":0.2061631119791798},{"name":"B5","midi":83,"time":144.58327549999828,"velocity":0.8031496062992126,"duration":0.2061631119791798},{"name":"E4","midi":64,"time":144.7916087499983,"velocity":0.8031496062992126,"duration":0.2061631119791798},{"name":"C6","midi":84,"time":144.7916087499983,"velocity":0.8031496062992126,"duration":0.2061631119791798},{"name":"F#4","midi":66,"time":144.9999419999983,"velocity":0.8031496062992126,"duration":0.2061631119791798},{"name":"A5","midi":81,"time":144.9999419999983,"velocity":0.8031496062992126,"duration":0.2061631119791798},{"name":"G4","midi":67,"time":145.2082752499983,"velocity":0.8031496062992126,"duration":0.3949651197916637},{"name":"B5","midi":83,"time":145.2082752499983,"velocity":0.8031496062992126,"duration":0.2061631119791798},{"name":"F#5","midi":78,"time":145.41660849999832,"velocity":0.8031496062992126,"duration":0.20616311197915138},{"name":"B3","midi":59,"time":145.6249417499983,"velocity":0.8031496062992126,"duration":0.3949651197916637},{"name":"G5","midi":79,"time":145.6249417499983,"velocity":0.8031496062992126,"duration":0.2061631119791798},{"name":"D5","midi":74,"time":145.8332749999983,"velocity":0.8031496062992126,"duration":0.20616311197915138},{"name":"C4","midi":60,"time":146.0416082499983,"velocity":0.8031496062992126,"duration":0.3949651197916637},{"name":"E5","midi":76,"time":146.0416082499983,"velocity":0.8031496062992126,"duration":0.2061631119791798},{"name":"B4","midi":71,"time":146.2499414999983,"velocity":0.8031496062992126,"duration":0.20616311197915138},{"name":"E4","midi":64,"time":146.45827474999828,"velocity":0.8031496062992126,"duration":0.3949651197916637},{"name":"C5","midi":72,"time":146.45827474999828,"velocity":0.8031496062992126,"duration":0.2061631119791798},{"name":"G4","midi":67,"time":146.6666079999983,"velocity":0.8031496062992126,"duration":0.20616311197915138},{"name":"C4","midi":60,"time":146.87494124999827,"velocity":0.8031496062992126,"duration":0.3949651197916637},{"name":"A4","midi":69,"time":146.87494124999827,"velocity":0.8031496062992126,"duration":0.2061631119791798},{"name":"C5","midi":72,"time":147.08327449999828,"velocity":0.8031496062992126,"duration":0.20616311197915138},{"name":"A3","midi":57,"time":147.29160774999826,"velocity":0.8031496062992126,"duration":0.3949651197916637},{"name":"E4","midi":64,"time":147.29160774999826,"velocity":0.8031496062992126,"duration":0.2061631119791798},{"name":"G4","midi":67,"time":147.49994099999827,"velocity":0.8031496062992126,"duration":0.20616311197915138},{"name":"D4","midi":62,"time":147.70827424999825,"velocity":0.8031496062992126,"duration":0.3949651197916637},{"name":"F#4","midi":66,"time":147.70827424999825,"velocity":0.8031496062992126,"duration":0.2061631119791798},{"name":"A4","midi":69,"time":147.91660749999826,"velocity":0.8031496062992126,"duration":0.20616311197915138},{"name":"C4","midi":60,"time":148.12494074999825,"velocity":0.8031496062992126,"duration":0.2061631119791798},{"name":"D4","midi":62,"time":148.12494074999825,"velocity":0.8031496062992126,"duration":0.2061631119791798},{"name":"B3","midi":59,"time":148.33327399999826,"velocity":0.8031496062992126,"duration":0.2061631119791798},{"name":"E4","midi":64,"time":148.33327399999826,"velocity":0.8031496062992126,"duration":0.2061631119791798},{"name":"A3","midi":57,"time":148.54160724999826,"velocity":0.8031496062992126,"duration":0.2061631119791798},{"name":"F#4","midi":66,"time":148.54160724999826,"velocity":0.8031496062992126,"duration":0.2061631119791798},{"name":"G3","midi":55,"time":148.74994049999827,"velocity":0.8031496062992126,"duration":0.2061631119791798},{"name":"G4","midi":67,"time":148.74994049999827,"velocity":0.8031496062992126,"duration":0.2061631119791798},{"name":"F#3","midi":54,"time":148.95827374999828,"velocity":0.8031496062992126,"duration":0.2061631119791798},{"name":"A4","midi":69,"time":148.95827374999828,"velocity":0.8031496062992126,"duration":0.2061631119791798},{"name":"E3","midi":52,"time":149.1666069999983,"velocity":0.8031496062992126,"duration":0.2061631119791798},{"name":"B4","midi":71,"time":149.1666069999983,"velocity":0.8031496062992126,"duration":0.2061631119791798},{"name":"D3","midi":50,"time":149.3749402499983,"velocity":0.8031496062992126,"duration":0.2061631119791798},{"name":"C5","midi":72,"time":149.3749402499983,"velocity":0.8031496062992126,"duration":0.2061631119791798},{"name":"A3","midi":57,"time":149.5832734999983,"velocity":0.8031496062992126,"duration":0.2061631119791798},{"name":"D5","midi":74,"time":149.5832734999983,"velocity":0.8031496062992126,"duration":0.2061631119791798},{"name":"C3","midi":48,"time":149.79160674999832,"velocity":0.8031496062992126,"duration":0.2061631119791798},{"name":"E5","midi":76,"time":149.79160674999832,"velocity":0.8031496062992126,"duration":0.2061631119791798},{"name":"A3","midi":57,"time":149.99993999999833,"velocity":0.8031496062992126,"duration":0.2061631119791798},{"name":"F#5","midi":78,"time":149.99993999999833,"velocity":0.8031496062992126,"duration":0.2061631119791798},{"name":"B2","midi":47,"time":150.20827324999834,"velocity":0.8031496062992126,"duration":0.3949651197916637},{"name":"G5","midi":79,"time":150.20827324999834,"velocity":0.8031496062992126,"duration":0.2061631119791798},{"name":"A5","midi":81,"time":150.41660649999835,"velocity":0.8031496062992126,"duration":0.20616311197915138},{"name":"A2","midi":45,"time":150.62493974999833,"velocity":0.8031496062992126,"duration":0.3949651197916637},{"name":"D5","midi":74,"time":150.62493974999833,"velocity":0.8031496062992126,"duration":0.2061631119791798},{"name":"F#5","midi":78,"time":150.83327299999834,"velocity":0.8031496062992126,"duration":0.20616311197915138},{"name":"B2","midi":47,"time":151.04160624999832,"velocity":0.8031496062992126,"duration":0.3949651197916637},{"name":"G5","midi":79,"time":151.04160624999832,"velocity":0.8031496062992126,"duration":0.2061631119791798},{"name":"A5","midi":81,"time":151.24993949999833,"velocity":0.8031496062992126,"duration":0.20616311197915138},{"name":"D3","midi":50,"time":151.45827274999832,"velocity":0.8031496062992126,"duration":0.3949651197916637},{"name":"D5","midi":74,"time":151.45827274999832,"velocity":0.8031496062992126,"duration":0.3038193229166666},{"name":"G5","midi":79,"time":151.66660599999832,"velocity":0.8031496062992126,"duration":0.20616311197915138},{"name":"G3","midi":55,"time":151.8749392499983,"velocity":0.8031496062992126,"duration":0.3949651197916637},{"name":"B4","midi":71,"time":151.8749392499983,"velocity":0.8031496062992126,"duration":0.3038193229166666},{"name":"G5","midi":79,"time":152.08327249999832,"velocity":0.8031496062992126,"duration":0.20616311197915138},{"name":"B2","midi":47,"time":152.2916057499983,"velocity":0.8031496062992126,"duration":0.3949651197916637},{"name":"D5","midi":74,"time":152.2916057499983,"velocity":0.8031496062992126,"duration":0.3038193229166666},{"name":"A5","midi":81,"time":152.4999389999983,"velocity":0.8031496062992126,"duration":0.20616311197915138},{"name":"C3","midi":48,"time":152.7082722499983,"velocity":0.8031496062992126,"duration":0.3949651197916637},{"name":"G5","midi":79,"time":152.7082722499983,"velocity":0.8031496062992126,"duration":0.2061631119791798},{"name":"A5","midi":81,"time":152.9166054999983,"velocity":0.8031496062992126,"duration":0.20616311197915138},{"name":"D3","midi":50,"time":153.12493874999828,"velocity":0.8031496062992126,"duration":0.3949651197916637},{"name":"E5","midi":76,"time":153.12493874999828,"velocity":0.8031496062992126,"duration":0.2061631119791798},{"name":"F#5","midi":78,"time":153.3332719999983,"velocity":0.8031496062992126,"duration":0.20616311197915138},{"name":"E3","midi":52,"time":153.54160524999827,"velocity":0.8031496062992126,"duration":0.3949651197916637},{"name":"G5","midi":79,"time":153.54160524999827,"velocity":0.8031496062992126,"duration":0.2061631119791798},{"name":"A5","midi":81,"time":153.74993849999828,"velocity":0.8031496062992126,"duration":0.20616311197915138},{"name":"C3","midi":48,"time":153.95827174999826,"velocity":0.8031496062992126,"duration":0.3949651197916637},{"name":"E5","midi":76,"time":153.95827174999826,"velocity":0.8031496062992126,"duration":0.3038193229166666},{"name":"G5","midi":79,"time":154.16660499999827,"velocity":0.8031496062992126,"duration":0.20616311197915138},{"name":"A2","midi":45,"time":154.37493824999825,"velocity":0.8031496062992126,"duration":0.3949651197916637},{"name":"C5","midi":72,"time":154.37493824999825,"velocity":0.8031496062992126,"duration":0.3038193229166666},{"name":"G5","midi":79,"time":154.58327149999826,"velocity":0.8031496062992126,"duration":0.20616311197915138},{"name":"C3","midi":48,"time":154.79160474999824,"velocity":0.8031496062992126,"duration":0.3949651197916637},{"name":"E5","midi":76,"time":154.79160474999824,"velocity":0.8031496062992126,"duration":0.3038193229166666},{"name":"G5","midi":79,"time":154.99993799999825,"velocity":0.8031496062992126,"duration":0.21050338802081114},{"name":"F#5","midi":78,"time":155.2126115260399,"velocity":0.8031496062992126,"duration":0.21050338802083957},{"name":"D3","midi":50,"time":155.2126115260399,"velocity":0.8031496062992126,"duration":0.40581580989584154},{"name":"G5","midi":79,"time":155.4274551901024,"velocity":0.8031496062992126,"duration":0.21050338802083957},{"name":"A5","midi":81,"time":155.6422988541649,"velocity":0.8031496062992126,"duration":0.21050338802083957},{"name":"E3","midi":52,"time":155.6422988541649,"velocity":0.8031496062992126,"duration":0.40581580989584154},{"name":"F#5","midi":78,"time":155.8571425182274,"velocity":0.8031496062992126,"duration":0.21050338802083957},{"name":"C5","midi":72,"time":156.0719861822899,"velocity":0.8031496062992126,"duration":0.21050338802083957},{"name":"F#3","midi":54,"time":156.0719861822899,"velocity":0.8031496062992126,"duration":0.40581580989584154},{"name":"E5","midi":76,"time":156.2868298463524,"velocity":0.8031496062992126,"duration":0.21050338802083957},{"name":"D5","midi":74,"time":156.5016735104149,"velocity":0.8031496062992126,"duration":0.21050338802083957},{"name":"G3","midi":55,"time":156.5016735104149,"velocity":0.8031496062992126,"duration":0.40581580989584154},{"name":"C5","midi":72,"time":156.7165171744774,"velocity":0.8031496062992126,"duration":0.2191839401041875},{"name":"B4","midi":71,"time":156.94004139062324,"velocity":0.8031496062992126,"duration":0.27994780468750946},{"name":"D3","midi":50,"time":156.94004139062324,"velocity":0.8031496062992126,"duration":0.8984371406250204},{"name":"G5","midi":79,"time":157.16790588281074,"velocity":0.8031496062992126,"duration":0.27994780468750946},{"name":"A4","midi":69,"time":157.39577037499825,"velocity":0.8031496062992126,"duration":0.27994780468750946},{"name":"C4","midi":60,"time":157.39577037499825,"velocity":0.8031496062992126,"duration":0.4275171901041688},{"name":"F#5","midi":78,"time":157.62363486718576,"velocity":0.8031496062992126,"duration":0.2322047682291668},{"name":"G5","midi":79,"time":157.86017991145658,"velocity":0.8031496062992126,"duration":0.4513887083333259},{"name":"B3","midi":59,"time":157.86017991145658,"velocity":0.8031496062992126,"duration":0.9505204531250229},{"name":"F#5","midi":78,"time":158.34412069010241,"velocity":0.8031496062992126,"duration":0.2322047682291668},{"name":"G3","midi":55,"time":158.34412069010241,"velocity":0.8031496062992126,"duration":2.4088532031250054},{"name":"E5","midi":76,"time":158.58717614843576,"velocity":0.8031496062992126,"duration":0.2452255963541745},{"name":"D5","midi":74,"time":158.8367420208316,"velocity":0.8031496062992126,"duration":0.2452255963541745},{"name":"B3","midi":59,"time":158.8367420208316,"velocity":0.8031496062992126,"duration":0.4774303645833413},{"name":"C5","midi":72,"time":159.09932872135244,"velocity":0.8031496062992126,"duration":0.2452255963541745},{"name":"B4","midi":71,"time":159.35323486978993,"velocity":0.8031496062992126,"duration":0.2452255963541745},{"name":"D4","midi":62,"time":159.35323486978993,"velocity":0.8031496062992126,"duration":0.49913174479166855},{"name":"A4","midi":69,"time":159.60714101822742,"velocity":0.8031496062992126,"duration":0.29730890885417693},{"name":"G4","midi":67,"time":159.92615130728993,"velocity":0.8031496062992126,"duration":1.47569385416665},{"name":"B4","midi":71,"time":164.99993399999823,"velocity":0.8031496062992126,"duration":0.2061631119791798},{"name":"G2","midi":43,"time":164.99993399999823,"velocity":0.8031496062992126,"duration":1.6644958619791623},{"name":"A4","midi":69,"time":165.20826724999824,"velocity":0.8031496062992126,"duration":0.2061631119791798},{"name":"B4","midi":71,"time":165.41660049999825,"velocity":0.8031496062992126,"duration":0.831162861979152},{"name":"G3","midi":55,"time":165.83326699999824,"velocity":0.8031496062992126,"duration":2.9079849479167024},{"name":"C5","midi":72,"time":166.24993349999824,"velocity":0.8031496062992126,"duration":0.41449636197916107},{"name":"B4","midi":71,"time":166.66659999999823,"velocity":0.8031496062992126,"duration":0.1367186953125099},{"name":"E3","midi":52,"time":166.66659999999823,"velocity":0.8031496062992126,"duration":0.8311628619792089},{"name":"A4","midi":69,"time":166.80548883333157,"velocity":0.8031496062992126,"duration":0.1367186953125099},{"name":"B4","midi":71,"time":166.9443776666649,"velocity":0.8031496062992126,"duration":0.1367186953125099},{"name":"A4","midi":69,"time":167.08326649999825,"velocity":0.8031496062992126,"duration":0.2061631119791798},{"name":"G4","midi":67,"time":167.29159974999826,"velocity":0.8031496062992126,"duration":0.2061631119791798},{"name":"D5","midi":74,"time":167.49993299999826,"velocity":0.8031496062992126,"duration":0.8029510677083351},{"name":"B2","midi":47,"time":167.49993299999826,"velocity":0.8031496062992126,"duration":0.8311628619791804},{"name":"D5","midi":74,"time":168.33326599999828,"velocity":0.8031496062992126,"duration":0.41449636197916107},{"name":"C3","midi":48,"time":168.33326599999828,"velocity":0.8031496062992126,"duration":1.6644958619791907},{"name":"E5","midi":76,"time":168.74993249999827,"velocity":0.8031496062992126,"duration":0.2061631119791798},{"name":"G3","midi":55,"time":168.74993249999827,"velocity":0.8031496062992126,"duration":0.4144963619791895},{"name":"D5","midi":74,"time":168.95826574999828,"velocity":0.8031496062992126,"duration":0.2061631119791798},{"name":"E5","midi":76,"time":169.16659899999829,"velocity":0.8031496062992126,"duration":0.6076386458333332},{"name":"A3","midi":57,"time":169.16659899999829,"velocity":0.8031496062992126,"duration":0.41449636197916107},{"name":"B3","midi":59,"time":169.58326549999828,"velocity":0.8031496062992126,"duration":0.4144963619791895},{"name":"G4","midi":67,"time":169.9999319999983,"velocity":0.8031496062992126,"duration":0.41449636197916107},{"name":"C4","midi":60,"time":169.9999319999983,"velocity":0.8031496062992126,"duration":0.831162861979152},{"name":"A3","midi":57,"time":169.9999319999983,"velocity":0.8031496062992126,"duration":0.831162861979152},{"name":"F#4","midi":66,"time":170.4165984999983,"velocity":0.8031496062992126,"duration":0.831162861979152},{"name":"F#3","midi":54,"time":170.83326499999828,"velocity":0.8031496062992126,"duration":0.831162861979152},{"name":"A3","midi":57,"time":170.83326499999828,"velocity":0.8031496062992126,"duration":0.831162861979152},{"name":"C5","midi":72,"time":171.24993149999827,"velocity":0.8031496062992126,"duration":0.41449636197916107},{"name":"C5","midi":72,"time":171.66659799999826,"velocity":0.8031496062992126,"duration":0.1367186953125099},{"name":"G3","midi":55,"time":171.66659799999826,"velocity":0.8031496062992126,"duration":1.2478293619791998},{"name":"B4","midi":71,"time":171.8054868333316,"velocity":0.8031496062992126,"duration":0.1367186953125099},{"name":"C5","midi":72,"time":171.94437566666494,"velocity":0.8031496062992126,"duration":0.1367186953125099},{"name":"B4","midi":71,"time":172.08326449999828,"velocity":0.8031496062992126,"duration":0.2061631119791798},{"name":"A4","midi":69,"time":172.2915977499983,"velocity":0.8031496062992126,"duration":0.2061631119791798},{"name":"A4","midi":69,"time":172.4999309999983,"velocity":0.8031496062992126,"duration":1.664495861979134},{"name":"D3","midi":50,"time":172.4999309999983,"velocity":0.8031496062992126,"duration":1.664495861979134},{"name":"E3","midi":52,"time":172.9165974999983,"velocity":0.8031496062992126,"duration":0.41449636197916107},{"name":"F#3","midi":54,"time":173.33326399999828,"velocity":0.8031496062992126,"duration":0.41449636197916107},{"name":"A3","midi":57,"time":173.74993049999827,"velocity":0.8031496062992126,"duration":0.41449636197916107},{"name":"D4","midi":62,"time":174.16659699999826,"velocity":0.8031496062992126,"duration":0.8246524479166624},{"name":"D3","midi":50,"time":174.58326349999825,"velocity":0.8031496062992126,"duration":0.41449636197916107},{"name":"C3","midi":48,"time":175.01295082812325,"velocity":0.8031496062992126,"duration":1.6644958619791623},{"name":"F#5","midi":78,"time":175.01295082812325,"velocity":0.8031496062992126,"duration":0.2061631119791798},{"name":"E5","midi":76,"time":175.22128407812326,"velocity":0.8031496062992126,"duration":0.2061631119791798},{"name":"F#5","midi":78,"time":175.42961732812327,"velocity":0.8031496062992126,"duration":0.8138017578124845},{"name":"A3","midi":57,"time":175.84628382812326,"velocity":0.8031496062992126,"duration":1.6644958619791907},{"name":"G5","midi":79,"time":176.26295032812325,"velocity":0.8031496062992126,"duration":0.41449636197916107},{"name":"C3","midi":48,"time":176.67961682812324,"velocity":0.8031496062992126,"duration":0.8311628619792089},{"name":"F#5","midi":78,"time":176.67961682812324,"velocity":0.8031496062992126,"duration":0.1367186953125099},{"name":"E5","midi":76,"time":176.81850566145658,"velocity":0.8031496062992126,"duration":0.1367186953125099},{"name":"F#5","midi":78,"time":176.95739449478992,"velocity":0.8031496062992126,"duration":0.1367186953125099},{"name":"E5","midi":76,"time":177.09628332812326,"velocity":0.8031496062992126,"duration":0.2061631119791798},{"name":"D5","midi":74,"time":177.30461657812327,"velocity":0.8031496062992126,"duration":0.2061631119791798},{"name":"B2","midi":47,"time":177.51294982812328,"velocity":0.8031496062992126,"duration":0.8246524479166624},{"name":"G5","midi":79,"time":177.51294982812328,"velocity":0.8031496062992126,"duration":0.8138017578124845},{"name":"D3","midi":50,"time":177.92961632812327,"velocity":0.8031496062992126,"duration":0.41449636197916107},{"name":"G3","midi":55,"time":178.34628282812326,"velocity":0.8031496062992126,"duration":2.4956587239583428},{"name":"E3","midi":52,"time":178.34628282812326,"velocity":0.8031496062992126,"duration":0.8311628619791804},{"name":"C5","midi":72,"time":178.34628282812326,"velocity":0.8031496062992126,"duration":0.2061631119791798},{"name":"B4","midi":71,"time":178.55461607812327,"velocity":0.8031496062992126,"duration":0.2061631119791798},{"name":"C5","midi":72,"time":178.76294932812328,"velocity":0.8031496062992126,"duration":0.831162861979152},{"name":"C3","midi":48,"time":179.17961582812327,"velocity":0.8031496062992126,"duration":0.8311628619791804},{"name":"D5","midi":74,"time":179.59628232812327,"velocity":0.8031496062992126,"duration":0.2061631119791798},{"name":"E5","midi":76,"time":179.80461557812328,"velocity":0.8031496062992126,"duration":0.2061631119791798},{"name":"D3","midi":50,"time":180.01294882812329,"velocity":0.8031496062992126,"duration":2.4956587239583143},{"name":"A4","midi":69,"time":180.01294882812329,"velocity":0.8031496062992126,"duration":0.831162861979152},{"name":"F#3","midi":54,"time":180.84628182812327,"velocity":0.8031496062992126,"duration":0.41449636197916107},{"name":"D5","midi":74,"time":180.84628182812327,"velocity":0.8031496062992126,"duration":0.6228296119791707},{"name":"E3","midi":52,"time":181.26294832812326,"velocity":0.8031496062992126,"duration":0.4144963619791895},{"name":"C5","midi":72,"time":181.47128157812327,"velocity":0.8031496062992126,"duration":0.2061631119791798},{"name":"F#3","midi":54,"time":181.67961482812328,"velocity":0.8031496062992126,"duration":0.831162861979152},{"name":"B4","midi":71,"time":181.67961482812328,"velocity":0.8031496062992126,"duration":0.6228296119791707},{"name":"C5","midi":72,"time":182.30461457812328,"velocity":0.8031496062992126,"duration":0.20616311197915138},{"name":"G3","midi":55,"time":182.51294782812326,"velocity":0.8031496062992126,"duration":2.4956587239582575},{"name":"C5","midi":72,"time":182.51294782812326,"velocity":0.8031496062992126,"duration":0.1649304895833268},{"name":"B4","midi":71,"time":182.6778783177066,"velocity":0.8031496062992126,"duration":0.1649304895833268},{"name":"C5","midi":72,"time":182.84714908333157,"velocity":0.8031496062992126,"duration":0.1649304895833268},{"name":"B4","midi":71,"time":183.0120795729149,"velocity":0.8031496062992126,"duration":0.1649304895833268},{"name":"C5","midi":72,"time":183.17701006249823,"velocity":0.8031496062992126,"duration":0.1649304895833268},{"name":"B4","midi":71,"time":183.3462808281232,"velocity":0.8031496062992126,"duration":0.4123262239583312},{"name":"D3","midi":50,"time":183.3462808281232,"velocity":0.8031496062992126,"duration":0.831162861979152},{"name":"A4","midi":69,"time":183.7629473281232,"velocity":0.8031496062992126,"duration":0.41449636197916107},{"name":"G2","midi":43,"time":184.1796138281232,"velocity":0.8031496062992126,"duration":0.831162861979152},{"name":"G4","midi":67,"time":184.1796138281232,"velocity":0.8031496062992126,"duration":0.6076386458333332},{"name":"G3","midi":55,"time":185.0389884843732,"velocity":0.8031496062992126,"duration":2.907984947916674},{"name":"B5","midi":83,"time":185.0389884843732,"velocity":0.8031496062992126,"duration":1.1718745312499834},{"name":"B3","midi":59,"time":185.45565498437318,"velocity":0.8031496062992126,"duration":0.41449636197916107},{"name":"E4","midi":64,"time":185.87232148437317,"velocity":0.8031496062992126,"duration":0.831162861979152},{"name":"G5","midi":79,"time":186.28898798437316,"velocity":0.8031496062992126,"duration":0.41449636197916107},{"name":"D4","midi":62,"time":186.70565448437316,"velocity":0.8031496062992126,"duration":0.8311628619792089},{"name":"G5","midi":79,"time":186.70565448437316,"velocity":0.8031496062992126,"duration":0.1367186953125099},{"name":"F#5","midi":78,"time":186.8445433177065,"velocity":0.8031496062992126,"duration":0.1367186953125099},{"name":"G5","midi":79,"time":186.98343215103984,"velocity":0.8031496062992126,"duration":0.1367186953125099},{"name":"F#5","midi":78,"time":187.12232098437318,"velocity":0.8031496062992126,"duration":0.2061631119791798},{"name":"E5","midi":76,"time":187.33065423437318,"velocity":0.8031496062992126,"duration":0.2061631119791798},{"name":"C#4","midi":61,"time":187.5389874843732,"velocity":0.8031496062992126,"duration":0.8246524479166624},{"name":"A5","midi":81,"time":187.5389874843732,"velocity":0.8031496062992126,"duration":0.831162861979152},{"name":"G3","midi":55,"time":187.95565398437319,"velocity":0.8031496062992126,"duration":0.41449636197916107},{"name":"F#3","midi":54,"time":188.37232048437318,"velocity":0.8031496062992126,"duration":1.6644958619791623},{"name":"D5","midi":74,"time":188.37232048437318,"velocity":0.8031496062992126,"duration":1.0416662499999916},{"name":"A3","midi":57,"time":188.78898698437317,"velocity":0.8031496062992126,"duration":0.41449636197916107},{"name":"D4","midi":62,"time":189.20565348437316,"velocity":0.8031496062992126,"duration":0.8311628619791804},{"name":"F#5","midi":78,"time":189.62231998437318,"velocity":0.8031496062992126,"duration":0.41449636197916107},{"name":"G3","midi":55,"time":190.03898648437317,"velocity":0.8031496062992126,"duration":2.907984947916731},{"name":"B4","midi":71,"time":190.03898648437317,"velocity":0.8031496062992126,"duration":1.0394961119791617},{"name":"F#3","midi":54,"time":190.45565298437316,"velocity":0.8031496062992126,"duration":0.41449636197916107},{"name":"E3","midi":52,"time":190.87231948437315,"velocity":0.8031496062992126,"duration":0.4144963619791895},{"name":"D5","midi":74,"time":191.08065273437316,"velocity":0.8031496062992126,"duration":0.2061631119791798},{"name":"D3","midi":50,"time":191.28898598437317,"velocity":0.8031496062992126,"duration":0.4144963619791895},{"name":"C#5","midi":73,"time":191.28898598437317,"velocity":0.8031496062992126,"duration":0.2061631119791798},{"name":"B4","midi":71,"time":191.49731923437318,"velocity":0.8031496062992126,"duration":0.2061631119791798},{"name":"C#3","midi":49,"time":191.7056524843732,"velocity":0.8031496062992126,"duration":0.4144963619791895},{"name":"E5","midi":76,"time":191.7056524843732,"velocity":0.8031496062992126,"duration":0.2061631119791798},{"name":"G5","midi":79,"time":191.9139857343732,"velocity":0.8031496062992126,"duration":0.2061631119791798},{"name":"B2","midi":47,"time":192.1223189843732,"velocity":0.8031496062992126,"duration":0.4144963619791895},{"name":"F#5","midi":78,"time":192.1223189843732,"velocity":0.8031496062992126,"duration":0.2061631119791798},{"name":"E5","midi":76,"time":192.33065223437322,"velocity":0.8031496062992126,"duration":0.2061631119791798},{"name":"A2","midi":45,"time":192.53898548437323,"velocity":0.8031496062992126,"duration":1.6644958619791623},{"name":"D5","midi":74,"time":192.53898548437323,"velocity":0.8031496062992126,"duration":0.1367186953125099},{"name":"C#5","midi":73,"time":192.67787431770657,"velocity":0.8031496062992126,"duration":0.1367186953125099},{"name":"D5","midi":74,"time":192.8167631510399,"velocity":0.8031496062992126,"duration":0.1367186953124815},{"name":"E3","midi":52,"time":192.95565198437322,"velocity":0.8031496062992126,"duration":0.4144963619791895},{"name":"C#5","midi":73,"time":192.95565198437322,"velocity":0.8031496062992126,"duration":0.1367186953125099},{"name":"D5","midi":74,"time":193.09454081770656,"velocity":0.8031496062992126,"duration":0.1367186953125099},{"name":"C#5","midi":73,"time":193.2334296510399,"velocity":0.8031496062992126,"duration":0.5533851953125009},{"name":"A3","midi":57,"time":193.37231848437324,"velocity":0.8031496062992126,"duration":0.41449636197916107},{"name":"G3","midi":55,"time":193.78898498437323,"velocity":0.8031496062992126,"duration":0.41449636197916107},{"name":"B4","midi":71,"time":193.78898498437323,"velocity":0.8031496062992126,"duration":0.41449636197916107},{"name":"F#3","midi":54,"time":194.20565148437322,"velocity":0.8031496062992126,"duration":0.8246524479166624},{"name":"A4","midi":69,"time":194.20565148437322,"velocity":0.8031496062992126,"duration":0.6076386458333332},{"name":"D3","midi":50,"time":194.6223179843732,"velocity":0.8031496062992126,"duration":0.8246524479166624},{"name":"A4","midi":69,"time":195.0520053124982,"velocity":0.8031496062992126,"duration":0.2061631119791798},{"name":"E3","midi":52,"time":195.0520053124982,"velocity":0.8031496062992126,"duration":1.247829361979143},{"name":"G4","midi":67,"time":195.26033856249822,"velocity":0.8031496062992126,"duration":0.20616311197915138},{"name":"F#4","midi":66,"time":195.4686718124982,"velocity":0.8031496062992126,"duration":0.41449636197916107},{"name":"D3","midi":50,"time":195.4686718124982,"velocity":0.8031496062992126,"duration":0.41449636197916107},{"name":"G4","midi":67,"time":195.8853383124982,"velocity":0.8031496062992126,"duration":0.41449636197916107},{"name":"C#3","midi":49,"time":195.8853383124982,"velocity":0.8031496062992126,"duration":1.247829361979143},{"name":"E5","midi":76,"time":196.30200481249818,"velocity":0.8031496062992126,"duration":0.831162861979152},{"name":"E3","midi":52,"time":196.30200481249818,"velocity":0.8031496062992126,"duration":0.41449636197916107},{"name":"A3","midi":57,"time":196.71867131249817,"velocity":0.8031496062992126,"duration":1.2478293619791714},{"name":"D5","midi":74,"time":197.13533781249816,"velocity":0.8031496062992126,"duration":0.2061631119791798},{"name":"B2","midi":47,"time":197.13533781249816,"velocity":0.8031496062992126,"duration":0.4144963619791895},{"name":"C#5","midi":73,"time":197.34367106249817,"velocity":0.8031496062992126,"duration":0.2061631119791798},{"name":"G5","midi":79,"time":197.55200431249818,"velocity":0.8031496062992126,"duration":0.41449636197916107},{"name":"A2","midi":45,"time":197.55200431249818,"velocity":0.8031496062992126,"duration":1.2478293619791714},{"name":"F#5","midi":78,"time":197.96867081249817,"velocity":0.8031496062992126,"duration":0.2061631119791798},{"name":"D3","midi":50,"time":197.96867081249817,"velocity":0.8031496062992126,"duration":0.4144963619791895},{"name":"E5","midi":76,"time":198.17700406249818,"velocity":0.8031496062992126,"duration":0.2061631119791798},{"name":"A5","midi":81,"time":198.3853373124982,"velocity":0.8031496062992126,"duration":0.6228296119791707},{"name":"C#3","midi":49,"time":198.3853373124982,"velocity":0.8031496062992126,"duration":0.8246524479166624},{"name":"G2","midi":43,"time":198.80200381249819,"velocity":0.8031496062992126,"duration":0.41449636197916107},{"name":"F#5","midi":78,"time":199.0103370624982,"velocity":0.8031496062992126,"duration":0.20616311197915138},{"name":"E5","midi":76,"time":199.21867031249818,"velocity":0.8031496062992126,"duration":0.41449636197916107},{"name":"D3","midi":50,"time":199.21867031249818,"velocity":0.8031496062992126,"duration":0.41449636197916107},{"name":"F#2","midi":42,"time":199.21867031249818,"velocity":0.8031496062992126,"duration":1.247829361979143},{"name":"D5","midi":74,"time":199.63533681249817,"velocity":0.8031496062992126,"duration":0.8246524479166624},{"name":"E3","midi":52,"time":199.63533681249817,"velocity":0.8031496062992126,"duration":0.41449636197916107},{"name":"F#3","midi":54,"time":200.05200331249816,"velocity":0.8031496062992126,"duration":0.8246524479166624},{"name":"G2","midi":43,"time":200.46866981249815,"velocity":0.8031496062992126,"duration":0.41449636197916107},{"name":"B4","midi":71,"time":200.67700306249816,"velocity":0.8031496062992126,"duration":0.20616311197915138},{"name":"D5","midi":74,"time":200.88533631249814,"velocity":0.8031496062992126,"duration":0.2756075286458213},{"name":"E3","midi":52,"time":200.88533631249814,"velocity":0.8031496062992126,"duration":0.41449636197916107},{"name":"A2","midi":45,"time":200.88533631249814,"velocity":0.8031496062992126,"duration":1.6644958619791907},{"name":"C#5","midi":73,"time":201.1631139791648,"velocity":0.8031496062992126,"duration":0.1367186953125099},{"name":"D5","midi":74,"time":201.30200281249813,"velocity":0.8031496062992126,"duration":0.1367186953125099},{"name":"F#3","midi":54,"time":201.30200281249813,"velocity":0.8031496062992126,"duration":0.4144963619791895},{"name":"C#5","midi":73,"time":201.44089164583147,"velocity":0.8031496062992126,"duration":0.1367186953125099},{"name":"D5","midi":74,"time":201.5797804791648,"velocity":0.8031496062992126,"duration":0.1367186953125099},{"name":"C#5","midi":73,"time":201.71866931249815,"velocity":0.8031496062992126,"duration":0.6076386458333332},{"name":"G3","midi":55,"time":201.71866931249815,"velocity":0.8031496062992126,"duration":1.2478293619791714},{"name":"D5","midi":74,"time":202.35451975260233,"velocity":0.8031496062992126,"duration":0.1931422838541721},{"name":"D5","midi":74,"time":202.55200231249816,"velocity":0.8031496062992126,"duration":1.6644958619791623},{"name":"D3","midi":50,"time":202.55200231249816,"velocity":0.8031496062992126,"duration":1.2478293619791714},{"name":"F#3","midi":54,"time":202.96866881249815,"velocity":0.8031496062992126,"duration":0.2061631119791798},{"name":"E3","midi":52,"time":203.17700206249816,"velocity":0.8031496062992126,"duration":0.2061631119791798},{"name":"F#3","midi":54,"time":203.38533531249817,"velocity":0.8031496062992126,"duration":0.8246524479166624},{"name":"D3","midi":50,"time":203.80200181249816,"velocity":0.8031496062992126,"duration":0.41449636197916107},{"name":"D2","midi":38,"time":204.21866831249815,"velocity":0.8031496062992126,"duration":0.8311628619791804},{"name":"D3","midi":50,"time":205.09106379687316,"velocity":0.8031496062992126,"duration":1.6644958619791623},{"name":"F#5","midi":78,"time":205.09106379687316,"velocity":0.8031496062992126,"duration":1.228298119791674},{"name":"D4","midi":62,"time":205.92439679687317,"velocity":0.8031496062992126,"duration":2.083332499999983},{"name":"G5","midi":79,"time":206.34106329687316,"velocity":0.8031496062992126,"duration":0.41449636197916107},{"name":"C4","midi":60,"time":206.75772979687315,"velocity":0.8031496062992126,"duration":0.8311628619791804},{"name":"A5","midi":81,"time":206.75772979687315,"velocity":0.8031496062992126,"duration":0.6228296119791707},{"name":"F#5","midi":78,"time":207.38272954687315,"velocity":0.8031496062992126,"duration":0.2061631119791798},{"name":"B3","midi":59,"time":207.59106279687316,"velocity":0.8031496062992126,"duration":1.247829361979143},{"name":"D5","midi":74,"time":207.59106279687316,"velocity":0.8031496062992126,"duration":0.831162861979152},{"name":"D4","midi":62,"time":208.00772929687315,"velocity":0.8031496062992126,"duration":0.41449636197916107},{"name":"C4","midi":60,"time":208.42439579687314,"velocity":0.8031496062992126,"duration":0.41449636197916107},{"name":"G5","midi":79,"time":208.42439579687314,"velocity":0.8031496062992126,"duration":1.0416662499999916},{"name":"B3","midi":59,"time":208.84106229687313,"velocity":0.8031496062992126,"duration":1.2478293619791998},{"name":"A3","midi":57,"time":209.25772879687312,"velocity":0.8031496062992126,"duration":0.4144963619791895},{"name":"G3","midi":55,"time":209.67439529687314,"velocity":0.8031496062992126,"duration":0.4144963619791895},{"name":"A5","midi":81,"time":209.67439529687314,"velocity":0.8031496062992126,"duration":0.2061631119791798},{"name":"B5","midi":83,"time":209.88272854687315,"velocity":0.8031496062992126,"duration":0.2061631119791798},{"name":"C4","midi":60,"time":210.09106179687316,"velocity":0.8031496062992126,"duration":1.2478293619791714},{"name":"E5","midi":76,"time":210.09106179687316,"velocity":0.8031496062992126,"duration":1.219617567708326},{"name":"C3","midi":48,"time":210.50772829687315,"velocity":0.8031496062992126,"duration":0.41449636197916107},{"name":"D3","midi":50,"time":210.92439479687314,"velocity":0.8031496062992126,"duration":0.8246524479166908},{"name":"B3","midi":59,"time":211.34106129687316,"velocity":0.8031496062992126,"duration":0.41449636197916107},{"name":"D5","midi":74,"time":211.34106129687316,"velocity":0.8031496062992126,"duration":0.41449636197916107},{"name":"A3","midi":57,"time":211.75772779687316,"velocity":0.8031496062992126,"duration":0.41449636197916107},{"name":"E3","midi":52,"time":211.75772779687316,"velocity":0.8031496062992126,"duration":0.8246524479166624},{"name":"C5","midi":72,"time":211.75772779687316,"velocity":0.8031496062992126,"duration":0.6228296119791707},{"name":"G#3","midi":56,"time":212.17439429687315,"velocity":0.8031496062992126,"duration":0.41449636197916107},{"name":"B4","midi":71,"time":212.38272754687316,"velocity":0.8031496062992126,"duration":0.20616311197915138},{"name":"A3","midi":57,"time":212.59106079687314,"velocity":0.8031496062992126,"duration":0.8246524479166908},{"name":"C5","midi":72,"time":212.59106079687314,"velocity":0.8031496062992126,"duration":0.2061631119791798},{"name":"B4","midi":71,"time":212.79939404687315,"velocity":0.8031496062992126,"duration":0.2061631119791798},{"name":"E3","midi":52,"time":213.00772729687316,"velocity":0.8031496062992126,"duration":0.41449636197916107},{"name":"C5","midi":72,"time":213.00772729687316,"velocity":0.8031496062992126,"duration":0.831162861979152},{"name":"A2","midi":45,"time":213.42439379687315,"velocity":0.8031496062992126,"duration":0.41449636197916107},{"name":"B2","midi":47,"time":213.84106029687314,"velocity":0.8031496062992126,"duration":0.41449636197916107},{"name":"B4","midi":71,"time":213.84106029687314,"velocity":0.8031496062992126,"duration":0.41449636197916107},{"name":"C3","midi":48,"time":214.25772679687313,"velocity":0.8031496062992126,"duration":0.41449636197916107},{"name":"A4","midi":69,"time":214.25772679687313,"velocity":0.8031496062992126,"duration":0.6076386458333332},{"name":"E3","midi":52,"time":214.67439329687312,"velocity":0.8031496062992126,"duration":0.4144963619791895},{"name":"C6","midi":84,"time":215.10408062499815,"velocity":0.8031496062992126,"duration":1.247829361979143},{"name":"A3","midi":57,"time":215.10408062499815,"velocity":0.8031496062992126,"duration":1.247829361979143},{"name":"C4","midi":60,"time":215.52074712499814,"velocity":0.8031496062992126,"duration":0.41449636197916107},{"name":"F#4","midi":66,"time":215.93741362499813,"velocity":0.8031496062992126,"duration":0.8246524479166624},{"name":"B5","midi":83,"time":216.35408012499812,"velocity":0.8031496062992126,"duration":0.2061631119791798},{"name":"A3","midi":57,"time":216.35408012499812,"velocity":0.8031496062992126,"duration":0.41449636197916107},{"name":"A5","midi":81,"time":216.56241337499813,"velocity":0.8031496062992126,"duration":0.20616311197915138},{"name":"B5","midi":83,"time":216.7707466249981,"velocity":0.8031496062992126,"duration":0.6228296119791707},{"name":"G3","midi":55,"time":216.7707466249981,"velocity":0.8031496062992126,"duration":0.8246524479166624},{"name":"B3","midi":59,"time":217.1874131249981,"velocity":0.8031496062992126,"duration":0.41449636197916107},{"name":"E5","midi":76,"time":217.3957463749981,"velocity":0.8031496062992126,"duration":0.20616311197915138},{"name":"E5","midi":76,"time":217.6040796249981,"velocity":0.8031496062992126,"duration":0.2756075286458213},{"name":"F#3","midi":54,"time":217.6040796249981,"velocity":0.8031496062992126,"duration":1.2478293619791714},{"name":"D#5","midi":75,"time":217.88185729166474,"velocity":0.8031496062992126,"duration":0.1367186953125099},{"name":"E5","midi":76,"time":218.02074612499808,"velocity":0.8031496062992126,"duration":0.1367186953125099},{"name":"A3","midi":57,"time":218.02074612499808,"velocity":0.8031496062992126,"duration":0.4144963619791895},{"name":"D#5","midi":75,"time":218.15963495833142,"velocity":0.8031496062992126,"duration":0.1367186953125099},{"name":"E5","midi":76,"time":218.29852379166476,"velocity":0.8031496062992126,"duration":0.1367186953125099},{"name":"D#5","midi":75,"time":218.4374126249981,"velocity":0.8031496062992126,"duration":0.41449636197916107},{"name":"C4","midi":60,"time":218.4374126249981,"velocity":0.8031496062992126,"duration":0.8246524479166624},{"name":"E5","midi":76,"time":218.8540791249981,"velocity":0.8031496062992126,"duration":0.2061631119791798},{"name":"E3","midi":52,"time":218.8540791249981,"velocity":0.8031496062992126,"duration":0.41449636197916107},{"name":"F#5","midi":78,"time":219.0624123749981,"velocity":0.8031496062992126,"duration":0.20616311197915138},{"name":"B4","midi":71,"time":219.27074562499809,"velocity":0.8031496062992126,"duration":0.5729164374999982},{"name":"F#3","midi":54,"time":219.27074562499809,"velocity":0.8031496062992126,"duration":0.8311628619791804},{"name":"D#3","midi":51,"time":219.27074562499809,"velocity":0.8031496062992126,"duration":0.8311628619791804},{"name":"A5","midi":81,"time":219.89574537499809,"velocity":0.8031496062992126,"duration":0.2061631119791798},{"name":"G5","midi":79,"time":220.1040786249981,"velocity":0.8031496062992126,"duration":0.6228296119791707},{"name":"E3","midi":52,"time":220.1040786249981,"velocity":0.8031496062992126,"duration":0.41449636197916107},{"name":"F#3","midi":54,"time":220.5207451249981,"velocity":0.8031496062992126,"duration":0.8246524479166624},{"name":"A2","midi":45,"time":220.5207451249981,"velocity":0.8031496062992126,"duration":0.4144963619791895},{"name":"F#5","midi":78,"time":220.7290783749981,"velocity":0.8031496062992126,"duration":0.2061631119791798},{"name":"E5","midi":76,"time":220.9374116249981,"velocity":0.8031496062992126,"duration":0.2756075286458213},{"name":"B2","midi":47,"time":220.9374116249981,"velocity":0.8031496062992126,"duration":1.664495861979134},{"name":"D#5","midi":75,"time":221.21518929166476,"velocity":0.8031496062992126,"duration":0.1367186953124815},{"name":"E5","midi":76,"time":221.35407812499807,"velocity":0.8031496062992126,"duration":0.1367186953125099},{"name":"G3","midi":55,"time":221.35407812499807,"velocity":0.8031496062992126,"duration":0.4144963619791895},{"name":"D#5","midi":75,"time":221.4929669583314,"velocity":0.8031496062992126,"duration":0.1367186953125099},{"name":"E5","midi":76,"time":221.63185579166475,"velocity":0.8031496062992126,"duration":0.1367186953125099},{"name":"D#5","midi":75,"time":221.7707446249981,"velocity":0.8031496062992126,"duration":0.41449636197916107},{"name":"A3","midi":57,"time":221.7707446249981,"velocity":0.8031496062992126,"duration":1.2478293619791714},{"name":"E5","midi":76,"time":222.18741112499808,"velocity":0.8031496062992126,"duration":0.41449636197916107},{"name":"E5","midi":76,"time":222.60407762499807,"velocity":0.8031496062992126,"duration":0.2061631119791798},{"name":"E3","midi":52,"time":222.60407762499807,"velocity":0.8031496062992126,"duration":1.2478293619791998},{"name":"D#5","midi":75,"time":222.81241087499808,"velocity":0.8031496062992126,"duration":0.2061631119791798},{"name":"E5","midi":76,"time":223.0207441249981,"velocity":0.8031496062992126,"duration":1.6644958619791907},{"name":"G3","midi":55,"time":223.0207441249981,"velocity":0.8031496062992126,"duration":0.2061631119791798},{"name":"F#3","midi":54,"time":223.2290773749981,"velocity":0.8031496062992126,"duration":0.2061631119791798},{"name":"G3","midi":55,"time":223.4374106249981,"velocity":0.8031496062992126,"duration":0.8246524479166624},{"name":"E3","midi":52,"time":223.8540771249981,"velocity":0.8031496062992126,"duration":0.6076386458333332},{"name":"E2","midi":40,"time":224.2707436249981,"velocity":0.8031496062992126,"duration":0.8311628619791804},{"name":"B4","midi":71,"time":225.13011828124812,"velocity":0.8031496062992126,"duration":0.2061631119791798},{"name":"G3","midi":55,"time":225.13011828124812,"velocity":0.8031496062992126,"duration":3.3246514479167217},{"name":"E3","midi":52,"time":225.13011828124812,"velocity":0.8031496062992126,"duration":0.8311628619791804},{"name":"A4","midi":69,"time":225.33845153124813,"velocity":0.8031496062992126,"duration":0.2061631119791798},{"name":"B4","midi":71,"time":225.54678478124814,"velocity":0.8031496062992126,"duration":0.831162861979152},{"name":"D3","midi":50,"time":225.96345128124813,"velocity":0.8031496062992126,"duration":0.831162861979152},{"name":"C5","midi":72,"time":226.38011778124812,"velocity":0.8031496062992126,"duration":0.41449636197916107},{"name":"B4","midi":71,"time":226.7967842812481,"velocity":0.8031496062992126,"duration":0.1367186953125099},{"name":"C3","midi":48,"time":226.7967842812481,"velocity":0.8031496062992126,"duration":0.8311628619792089},{"name":"A4","midi":69,"time":226.93567311458145,"velocity":0.8031496062992126,"duration":0.1367186953125099},{"name":"B4","midi":71,"time":227.0745619479148,"velocity":0.8031496062992126,"duration":0.1367186953125099},{"name":"A4","midi":69,"time":227.21345078124813,"velocity":0.8031496062992126,"duration":0.2061631119791798},{"name":"G4","midi":67,"time":227.42178403124814,"velocity":0.8031496062992126,"duration":0.2061631119791798},{"name":"F5","midi":77,"time":227.63011728124815,"velocity":0.8031496062992126,"duration":0.2061631119791798},{"name":"B2","midi":47,"time":227.63011728124815,"velocity":0.8031496062992126,"duration":0.8311628619791804},{"name":"E5","midi":76,"time":227.83845053124816,"velocity":0.8031496062992126,"duration":0.2061631119791798},{"name":"F5","midi":77,"time":228.04678378124817,"velocity":0.8031496062992126,"duration":1.247829361979143},{"name":"C3","midi":48,"time":228.46345028124816,"velocity":0.8031496062992126,"duration":1.6644958619791623},{"name":"E3","midi":52,"time":228.88011678124815,"velocity":0.8031496062992126,"duration":0.41449636197916107},{"name":"E5","midi":76,"time":229.29678328124814,"velocity":0.8031496062992126,"duration":0.6076386458333332},{"name":"F3","midi":53,"time":229.29678328124814,"velocity":0.8031496062992126,"duration":0.41449636197916107},{"name":"G3","midi":55,"time":229.71344978124813,"velocity":0.8031496062992126,"duration":0.4144963619791895},{"name":"D5","midi":74,"time":230.13011628124815,"velocity":0.8031496062992126,"duration":0.41449636197916107},{"name":"A3","midi":57,"time":230.13011628124815,"velocity":0.8031496062992126,"duration":0.41449636197916107},{"name":"F3","midi":53,"time":230.13011628124815,"velocity":0.8031496062992126,"duration":1.2478293619791714},{"name":"C5","midi":72,"time":230.54678278124814,"velocity":0.8031496062992126,"duration":0.2061631119791798},{"name":"B3","midi":59,"time":230.54678278124814,"velocity":0.8031496062992126,"duration":0.4144963619791895},{"name":"B4","midi":71,"time":230.75511603124815,"velocity":0.8031496062992126,"duration":0.2061631119791798},{"name":"A5","midi":81,"time":230.96344928124816,"velocity":0.8031496062992126,"duration":0.6228296119791707},{"name":"C4","midi":60,"time":230.96344928124816,"velocity":0.8031496062992126,"duration":2.495658723958371},{"name":"G3","midi":55,"time":231.38011578124815,"velocity":0.8031496062992126,"duration":0.4144963619791895},{"name":"G5","midi":79,"time":231.58844903124816,"velocity":0.8031496062992126,"duration":0.2061631119791798},{"name":"F5","midi":77,"time":231.79678228124817,"velocity":0.8031496062992126,"duration":0.2061631119791798},{"name":"A3","midi":57,"time":231.79678228124817,"velocity":0.8031496062992126,"duration":0.4144963619791895},{"name":"E5","midi":76,"time":232.00511553124818,"velocity":0.8031496062992126,"duration":0.2061631119791798},{"name":"D5","midi":74,"time":232.2134487812482,"velocity":0.8031496062992126,"duration":0.2061631119791798},{"name":"F3","midi":53,"time":232.2134487812482,"velocity":0.8031496062992126,"duration":0.4144963619791895},{"name":"C5","midi":72,"time":232.4217820312482,"velocity":0.8031496062992126,"duration":0.2061631119791798},{"name":"E5","midi":76,"time":232.6301152812482,"velocity":0.8031496062992126,"duration":0.831162861979152},{"name":"G3","midi":55,"time":232.6301152812482,"velocity":0.8031496062992126,"duration":1.6644958619791623},{"name":"E5","midi":76,"time":233.4634482812482,"velocity":0.8031496062992126,"duration":0.1367186953125099},{"name":"B3","midi":59,"time":233.4634482812482,"velocity":0.8031496062992126,"duration":0.8311628619791804},{"name":"D5","midi":74,"time":233.60233711458153,"velocity":0.8031496062992126,"duration":0.1367186953125099},{"name":"C5","midi":72,"time":233.74122594791487,"velocity":0.8031496062992126,"duration":0.1367186953125099},{"name":"D5","midi":74,"time":233.8801147812482,"velocity":0.8031496062992126,"duration":0.41449636197916107},{"name":"C5","midi":72,"time":234.2967812812482,"velocity":0.8031496062992126,"duration":0.6076386458333332},{"name":"C4","midi":60,"time":234.2967812812482,"velocity":0.8031496062992126,"duration":0.8311628619791804},{"name":"C3","midi":48,"time":234.2967812812482,"velocity":0.8031496062992126,"duration":1.2478293619791714},{"name":"F#3","midi":54,"time":235.14313510937322,"velocity":0.8031496062992126,"duration":1.664495861979134},{"name":"B4","midi":71,"time":235.14313510937322,"velocity":0.8031496062992126,"duration":0.41449636197916107},{"name":"E3","midi":52,"time":235.5598016093732,"velocity":0.8031496062992126,"duration":0.41449636197916107},{"name":"A4","midi":69,"time":235.5598016093732,"velocity":0.8031496062992126,"duration":0.831162861979152},{"name":"D3","midi":50,"time":235.9764681093732,"velocity":0.8031496062992126,"duration":0.41449636197916107},{"name":"C3","midi":48,"time":236.3931346093732,"velocity":0.8031496062992126,"duration":0.41449636197916107},{"name":"B4","midi":71,"time":236.3931346093732,"velocity":0.8031496062992126,"duration":0.41449636197916107},{"name":"B2","midi":47,"time":236.80980110937318,"velocity":0.8031496062992126,"duration":0.4144963619791895},{"name":"A4","midi":69,"time":236.80980110937318,"velocity":0.8031496062992126,"duration":0.1367186953125099},{"name":"G4","midi":67,"time":236.94868994270652,"velocity":0.8031496062992126,"duration":0.1367186953125099},{"name":"A4","midi":69,"time":237.08757877603986,"velocity":0.8031496062992126,"duration":0.1367186953125099},{"name":"A2","midi":45,"time":237.2264676093732,"velocity":0.8031496062992126,"duration":0.4144963619791895},{"name":"G4","midi":67,"time":237.2264676093732,"velocity":0.8031496062992126,"duration":0.2061631119791798},{"name":"F#4","midi":66,"time":237.4348008593732,"velocity":0.8031496062992126,"duration":0.2061631119791798},{"name":"G3","midi":55,"time":237.64313410937322,"velocity":0.8031496062992126,"duration":1.6644958619791623},{"name":"B2","midi":47,"time":237.64313410937322,"velocity":0.8031496062992126,"duration":0.41449636197916107},{"name":"D5","midi":74,"time":237.64313410937322,"velocity":0.8031496062992126,"duration":0.831162861979152},{"name":"D3","midi":50,"time":238.0598006093732,"velocity":0.8031496062992126,"duration":0.41449636197916107},{"name":"C3","midi":48,"time":238.4764671093732,"velocity":0.8031496062992126,"duration":0.41449636197916107},{"name":"D5","midi":74,"time":238.4764671093732,"velocity":0.8031496062992126,"duration":0.41449636197916107},{"name":"B2","midi":47,"time":238.8931336093732,"velocity":0.8031496062992126,"duration":0.4144963619791895},{"name":"E5","midi":76,"time":238.8931336093732,"velocity":0.8031496062992126,"duration":0.2061631119791798},{"name":"D5","midi":74,"time":239.1014668593732,"velocity":0.8031496062992126,"duration":0.2061631119791798},{"name":"A2","midi":45,"time":239.3098001093732,"velocity":0.8031496062992126,"duration":0.41449636197916107},{"name":"E5","midi":76,"time":239.3098001093732,"velocity":0.8031496062992126,"duration":0.6076386458333332},{"name":"G2","midi":43,"time":239.7264666093732,"velocity":0.8031496062992126,"duration":0.4144963619791895},{"name":"F#2","midi":42,"time":240.14313310937322,"velocity":0.8031496062992126,"duration":1.2478293619792282},{"name":"D4","midi":62,"time":240.14313310937322,"velocity":0.8031496062992126,"duration":0.2061631119791798},{"name":"E4","midi":64,"time":240.35146635937323,"velocity":0.8031496062992126,"duration":0.2061631119791798},{"name":"A2","midi":45,"time":240.55979960937324,"velocity":0.8031496062992126,"duration":0.4144963619791895},{"name":"F#4","midi":66,"time":240.55979960937324,"velocity":0.8031496062992126,"duration":0.2061631119791798},{"name":"G4","midi":67,"time":240.76813285937325,"velocity":0.8031496062992126,"duration":0.2061631119791798},{"name":"D3","midi":50,"time":240.97646610937326,"velocity":0.8031496062992126,"duration":1.2478293619792282},{"name":"A4","midi":69,"time":240.97646610937326,"velocity":0.8031496062992126,"duration":0.2061631119791798},{"name":"B4","midi":71,"time":241.18479935937327,"velocity":0.8031496062992126,"duration":0.2061631119791798},{"name":"F#2","midi":42,"time":241.39313260937328,"velocity":0.8031496062992126,"duration":0.4144963619791895},{"name":"C5","midi":72,"time":241.39313260937328,"velocity":0.8031496062992126,"duration":0.2061631119791798},{"name":"A4","midi":69,"time":241.6014658593733,"velocity":0.8031496062992126,"duration":0.2061631119791798},{"name":"G2","midi":43,"time":241.8097991093733,"velocity":0.8031496062992126,"duration":0.4144963619791895},{"name":"B4","midi":71,"time":241.8097991093733,"velocity":0.8031496062992126,"duration":0.1367186953125099},{"name":"A4","midi":69,"time":241.94868794270664,"velocity":0.8031496062992126,"duration":0.1367186953125099},{"name":"G4","midi":67,"time":242.08757677603998,"velocity":0.8031496062992126,"duration":0.1367186953125099},{"name":"C3","midi":48,"time":242.22646560937332,"velocity":0.8031496062992126,"duration":0.4144963619791895},{"name":"E3","midi":52,"time":242.22646560937332,"velocity":0.8031496062992126,"duration":0.4144963619791895},{"name":"A4","midi":69,"time":242.22646560937332,"velocity":0.8031496062992126,"duration":0.1367186953125099},{"name":"G4","midi":67,"time":242.36535444270666,"velocity":0.8031496062992126,"duration":0.1367186953125099},{"name":"F#4","midi":66,"time":242.50424327604,"velocity":0.8031496062992126,"duration":0.1367186953125099},{"name":"D3","midi":50,"time":242.64313210937334,"velocity":0.8031496062992126,"duration":1.8663186979166824},{"name":"G4","midi":67,"time":242.64313210937334,"velocity":0.8031496062992126,"duration":0.831162861979152},{"name":"B3","midi":59,"time":243.05979860937333,"velocity":0.8031496062992126,"duration":0.41449636197916107},{"name":"A3","midi":57,"time":243.47646510937332,"velocity":0.8031496062992126,"duration":0.4144963619791895},{"name":"G4","midi":67,"time":243.47646510937332,"velocity":0.8031496062992126,"duration":0.1367186953125099},{"name":"F#4","midi":66,"time":243.61535394270666,"velocity":0.8031496062992126,"duration":0.1367186953125099},{"name":"G4","midi":67,"time":243.75424277604,"velocity":0.8031496062992126,"duration":0.1367186953125099},{"name":"G3","midi":55,"time":243.89313160937334,"velocity":0.8031496062992126,"duration":0.4144963619791895},{"name":"F#4","midi":66,"time":243.89313160937334,"velocity":0.8031496062992126,"duration":0.2061631119791798},{"name":"E4","midi":64,"time":244.10146485937335,"velocity":0.8031496062992126,"duration":0.2061631119791798},{"name":"F#3","midi":54,"time":244.30979810937336,"velocity":0.8031496062992126,"duration":0.8246524479166624},{"name":"D4","midi":62,"time":244.30979810937336,"velocity":0.8031496062992126,"duration":0.6076386458333332},{"name":"C3","midi":48,"time":244.72646460937335,"velocity":0.8031496062992126,"duration":0.41449636197916107},{"name":"D5","midi":74,"time":245.18219359374834,"velocity":0.8031496062992126,"duration":0.2061631119791798},{"name":"B2","midi":47,"time":245.18219359374834,"velocity":0.8031496062992126,"duration":1.2478293619791714},{"name":"C5","midi":72,"time":245.39052684374835,"velocity":0.8031496062992126,"duration":0.2061631119791798},{"name":"D5","midi":74,"time":245.59886009374836,"velocity":0.8031496062992126,"duration":0.831162861979152},{"name":"D3","midi":50,"time":245.59886009374836,"velocity":0.8031496062992126,"duration":0.41449636197916107},{"name":"G3","midi":55,"time":246.01552659374835,"velocity":0.8031496062992126,"duration":2.0833325000000116},{"name":"E5","midi":76,"time":246.43219309374834,"velocity":0.8031496062992126,"duration":0.41449636197916107},{"name":"B2","midi":47,"time":246.43219309374834,"velocity":0.8031496062992126,"duration":0.41449636197916107},{"name":"D5","midi":74,"time":246.84885959374833,"velocity":0.8031496062992126,"duration":0.1367186953125099},{"name":"A2","midi":45,"time":246.84885959374833,"velocity":0.8031496062992126,"duration":0.4144963619791895},{"name":"C5","midi":72,"time":246.98774842708167,"velocity":0.8031496062992126,"duration":0.1367186953125099},{"name":"D5","midi":74,"time":247.126637260415,"velocity":0.8031496062992126,"duration":0.1367186953125099},{"name":"C5","midi":72,"time":247.26552609374835,"velocity":0.8031496062992126,"duration":0.2061631119791798},{"name":"G2","midi":43,"time":247.26552609374835,"velocity":0.8031496062992126,"duration":0.4144963619791895},{"name":"B4","midi":71,"time":247.47385934374836,"velocity":0.8031496062992126,"duration":0.2061631119791798},{"name":"E5","midi":76,"time":247.68219259374837,"velocity":0.8031496062992126,"duration":0.831162861979152},{"name":"C3","midi":48,"time":247.68219259374837,"velocity":0.8031496062992126,"duration":1.2478293619791714},{"name":"E3","midi":52,"time":248.09885909374836,"velocity":0.8031496062992126,"duration":0.41449636197916107},{"name":"E5","midi":76,"time":248.51552559374835,"velocity":0.8031496062992126,"duration":0.1367186953125099},{"name":"A3","midi":57,"time":248.51552559374835,"velocity":0.8031496062992126,"duration":1.6644958619792476},{"name":"F#5","midi":78,"time":248.6544144270817,"velocity":0.8031496062992126,"duration":0.1367186953125099},{"name":"G5","midi":79,"time":248.79330326041503,"velocity":0.8031496062992126,"duration":0.1367186953125099},{"name":"F#5","midi":78,"time":248.93219209374837,"velocity":0.8031496062992126,"duration":0.1367186953125099},{"name":"A2","midi":45,"time":248.93219209374837,"velocity":0.8031496062992126,"duration":0.4144963619791895},{"name":"G5","midi":79,"time":249.0710809270817,"velocity":0.8031496062992126,"duration":0.1367186953125099},{"name":"F#5","midi":78,"time":249.20996976041505,"velocity":0.8031496062992126,"duration":0.1367186953125099},{"name":"G5","midi":79,"time":249.3488585937484,"velocity":0.8031496062992126,"duration":0.1367186953125099},{"name":"D3","midi":50,"time":249.3488585937484,"velocity":0.8031496062992126,"duration":0.4144963619791895},{"name":"F#5","midi":78,"time":249.48774742708173,"velocity":0.8031496062992126,"duration":0.1367186953125099},{"name":"G5","midi":79,"time":249.62663626041507,"velocity":0.8031496062992126,"duration":0.1367186953125099},{"name":"F#5","midi":78,"time":249.7655250937484,"velocity":0.8031496062992126,"duration":0.1367186953125099},{"name":"C3","midi":48,"time":249.7655250937484,"velocity":0.8031496062992126,"duration":0.4144963619791895},{"name":"E5","midi":76,"time":249.90441392708175,"velocity":0.8031496062992126,"duration":0.1367186953125099},{"name":"F#5","midi":78,"time":250.0433027604151,"velocity":0.8031496062992126,"duration":0.1367186953125099},{"name":"G5","midi":79,"time":250.18219159374843,"velocity":0.8031496062992126,"duration":1.2022564635416586},{"name":"B2","midi":47,"time":250.18219159374843,"velocity":0.8031496062992126,"duration":0.8246524479166624},{"name":"D3","midi":50,"time":250.59885809374842,"velocity":0.8031496062992126,"duration":0.41449636197916107},{"name":"C#3","midi":49,"time":251.0155245937484,"velocity":0.8031496062992126,"duration":1.2478293619792282},{"name":"A5","midi":81,"time":251.43219109374843,"velocity":0.8031496062992126,"duration":0.2061631119791798},{"name":"E3","midi":52,"time":251.43219109374843,"velocity":0.8031496062992126,"duration":0.4144963619791895},{"name":"B5","midi":83,"time":251.64052434374844,"velocity":0.8031496062992126,"duration":0.2061631119791798},{"name":"A5","midi":81,"time":251.84885759374845,"velocity":0.8031496062992126,"duration":0.2061631119791798},{"name":"A3","midi":57,"time":251.84885759374845,"velocity":0.8031496062992126,"duration":1.2478293619791714},{"name":"F#5","midi":78,"time":252.05719084374846,"velocity":0.8031496062992126,"duration":0.2061631119791798},{"name":"G5","midi":79,"time":252.26552409374847,"velocity":0.8031496062992126,"duration":0.41449636197916107},{"name":"A2","midi":45,"time":252.26552409374847,"velocity":0.8031496062992126,"duration":0.41449636197916107},{"name":"G5","midi":79,"time":252.68219059374846,"velocity":0.8031496062992126,"duration":0.2756075286458213},{"name":"D3","midi":50,"time":252.68219059374846,"velocity":0.8031496062992126,"duration":2.3871518229166497},{"name":"F#5","midi":78,"time":252.9599682604151,"velocity":0.8031496062992126,"duration":0.1367186953125099},{"name":"G5","midi":79,"time":253.09885709374845,"velocity":0.8031496062992126,"duration":0.1367186953125099},{"name":"A3","midi":57,"time":253.09885709374845,"velocity":0.8031496062992126,"duration":0.4144963619791895},{"name":"F#5","midi":78,"time":253.2377459270818,"velocity":0.8031496062992126,"duration":0.1367186953125099},{"name":"G5","midi":79,"time":253.37663476041513,"velocity":0.8031496062992126,"duration":0.1367186953125099},{"name":"F#5","midi":78,"time":253.51552359374847,"velocity":0.8031496062992126,"duration":0.41449636197916107},{"name":"D4","midi":62,"time":253.51552359374847,"velocity":0.8031496062992126,"duration":0.41449636197916107},{"name":"E5","midi":76,"time":253.93219009374846,"velocity":0.8031496062992126,"duration":0.41449636197916107},{"name":"C4","midi":60,"time":253.93219009374846,"velocity":0.8031496062992126,"duration":0.41449636197916107},{"name":"D5","midi":74,"time":254.34885659374845,"velocity":0.8031496062992126,"duration":0.6076386458333332},{"name":"B3","midi":59,"time":254.34885659374845,"velocity":0.8031496062992126,"duration":0.41449636197916107},{"name":"A3","midi":57,"time":254.76552309374844,"velocity":0.8031496062992126,"duration":0.41449636197916107},{"name":"E3","midi":52,"time":255.19521042187344,"velocity":0.8031496062992126,"duration":0.4144963619791895},{"name":"G3","midi":55,"time":255.19521042187344,"velocity":0.8031496062992126,"duration":0.8246524479166908},{"name":"D5","midi":74,"time":255.19521042187344,"velocity":0.8031496062992126,"duration":0.2061631119791798},{"name":"C5","midi":72,"time":255.40354367187345,"velocity":0.8031496062992126,"duration":0.2061631119791798},{"name":"D3","midi":50,"time":255.61187692187346,"velocity":0.8031496062992126,"duration":0.4144963619791895},{"name":"B4","midi":71,"time":255.61187692187346,"velocity":0.8031496062992126,"duration":0.2061631119791798},{"name":"C5","midi":72,"time":255.82021017187347,"velocity":0.8031496062992126,"duration":0.2061631119791798},{"name":"C3","midi":48,"time":256.0285434218735,"velocity":0.8031496062992126,"duration":0.41449636197916107},{"name":"A3","midi":57,"time":256.0285434218735,"velocity":0.8031496062992126,"duration":0.8246524479166624},{"name":"F#4","midi":66,"time":256.0285434218735,"velocity":0.8031496062992126,"duration":1.208766877604205},{"name":"B2","midi":47,"time":256.4452099218735,"velocity":0.8031496062992126,"duration":0.41449636197916107},{"name":"A2","midi":45,"time":256.86187642187355,"velocity":0.8031496062992126,"duration":0.41449636197916107},{"name":"G2","midi":43,"time":257.27854292187357,"velocity":0.8031496062992126,"duration":0.41449636197916107},{"name":"G4","midi":67,"time":257.27854292187357,"velocity":0.8031496062992126,"duration":0.20616311197915138},{"name":"A4","midi":69,"time":257.4868761718736,"velocity":0.8031496062992126,"duration":0.20616311197915138},{"name":"F#2","midi":42,"time":257.6952094218736,"velocity":0.8031496062992126,"duration":0.41449636197916107},{"name":"D4","midi":62,"time":257.6952094218736,"velocity":0.8031496062992126,"duration":0.41449636197916107},{"name":"C3","midi":48,"time":258.1118759218736,"velocity":0.8031496062992126,"duration":0.41449636197916107},{"name":"E4","midi":64,"time":258.1118759218736,"velocity":0.8031496062992126,"duration":0.20616311197915138},{"name":"F#4","midi":66,"time":258.3202091718736,"velocity":0.8031496062992126,"duration":0.20616311197915138},{"name":"B2","midi":47,"time":258.5285424218736,"velocity":0.8031496062992126,"duration":0.41449636197916107},{"name":"G4","midi":67,"time":258.5285424218736,"velocity":0.8031496062992126,"duration":0.20616311197915138},{"name":"A4","midi":69,"time":258.73687567187363,"velocity":0.8031496062992126,"duration":0.20616311197915138},{"name":"A2","midi":45,"time":258.94520892187364,"velocity":0.8031496062992126,"duration":0.41449636197916107},{"name":"C3","midi":48,"time":258.94520892187364,"velocity":0.8031496062992126,"duration":0.41449636197916107},{"name":"B4","midi":71,"time":258.94520892187364,"velocity":0.8031496062992126,"duration":0.20616311197915138},{"name":"C5","midi":72,"time":259.15354217187365,"velocity":0.8031496062992126,"duration":0.20616311197915138},{"name":"G2","midi":43,"time":259.36187542187366,"velocity":0.8031496062992126,"duration":0.41449636197916107},{"name":"B2","midi":47,"time":259.36187542187366,"velocity":0.8031496062992126,"duration":0.41449636197916107},{"name":"D5","midi":74,"time":259.36187542187366,"velocity":0.8031496062992126,"duration":0.20616311197915138},{"name":"G5","midi":79,"time":259.5702086718737,"velocity":0.8031496062992126,"duration":0.20616311197915138},{"name":"C3","midi":48,"time":259.7785419218737,"velocity":0.8031496062992126,"duration":0.41449636197916107},{"name":"A2","midi":45,"time":259.7785419218737,"velocity":0.8031496062992126,"duration":0.41449636197916107},{"name":"F#5","midi":78,"time":259.7785419218737,"velocity":0.8031496062992126,"duration":0.20616311197915138},{"name":"E5","midi":76,"time":259.9868751718737,"velocity":0.8031496062992126,"duration":0.20616311197915138},{"name":"B2","midi":47,"time":260.1952084218737,"velocity":0.8031496062992126,"duration":0.4361977421874599},{"name":"D3","midi":50,"time":260.1952084218737,"velocity":0.8031496062992126,"duration":0.4361977421874599},{"name":"D5","midi":74,"time":260.1952084218737,"velocity":0.8031496062992126,"duration":0.14105897135414125},{"name":"C5","midi":72,"time":260.3384375312487,"velocity":0.8031496062992126,"duration":0.14105897135414125},{"name":"B4","midi":71,"time":260.48600691666536,"velocity":0.8031496062992126,"duration":0.14105897135414125},{"name":"G3","midi":55,"time":260.633576302082,"velocity":0.8031496062992126,"duration":0.8723954843749766},{"name":"C3","midi":48,"time":260.633576302082,"velocity":0.8031496062992126,"duration":0.4361977421874599},{"name":"E5","midi":76,"time":260.633576302082,"velocity":0.8031496062992126,"duration":0.14105897135414125},{"name":"D5","midi":74,"time":260.7811456874987,"velocity":0.8031496062992126,"duration":0.14105897135414125},{"name":"C5","midi":72,"time":260.92871507291534,"velocity":0.8031496062992126,"duration":0.14105897135414125},{"name":"B4","midi":71,"time":261.076284458332,"velocity":0.8031496062992126,"duration":0.9049475546875101},{"name":"D3","midi":50,"time":261.076284458332,"velocity":0.8031496062992126,"duration":1.816405523437595},{"name":"E3","midi":52,"time":261.52984330468615,"velocity":0.8031496062992126,"duration":0.449218570312496},{"name":"F#3","midi":54,"time":261.987742427082,"velocity":0.8031496062992126,"duration":0.462239398437589},{"name":"B4","midi":71,"time":261.987742427082,"velocity":0.8031496062992126,"duration":0.14539924739585786},{"name":"A4","midi":69,"time":262.1418222265612,"velocity":0.8031496062992126,"duration":0.14539924739585786},{"name":"B4","midi":71,"time":262.29807216406124,"velocity":0.8031496062992126,"duration":0.14539924739585786},{"name":"C4","midi":60,"time":262.4543221015613,"velocity":0.8031496062992126,"duration":0.9244787968750074},{"name":"A4","midi":69,"time":262.4543221015613,"velocity":0.8031496062992126,"duration":0.22569435416664874},{"name":"G4","midi":67,"time":262.68869700781124,"velocity":0.8031496062992126,"duration":0.22569435416670558},{"name":"G4","midi":67,"time":262.92307191406127,"velocity":0.8031496062992126,"duration":2.8862835677084036},{"name":"G3","midi":55,"time":262.92307191406127,"velocity":0.8031496062992126,"duration":1.4257806796875343},{"name":"B3","midi":59,"time":263.4048425546863,"velocity":0.8031496062992126,"duration":0.2322047682291668},{"name":"A3","midi":57,"time":263.64789801301964,"velocity":0.8031496062992126,"duration":0.2322047682291668},{"name":"B3","midi":59,"time":263.8887833333321,"velocity":0.8031496062992126,"duration":0.9787322473958397},{"name":"G3","midi":55,"time":264.38357480208214,"velocity":0.8031496062992126,"duration":0.525173401041684},{"name":"G2","midi":43,"time":264.9391301354155,"velocity":0.8031496062992126,"duration":1.6644958619791623},{"name":"G3","midi":55,"time":269.99989199999885,"velocity":0.8031496062992126,"duration":0.41449636197916107},{"name":"B5","midi":83,"time":269.99989199999885,"velocity":0.8031496062992126,"duration":0.41449636197916107},{"name":"D5","midi":74,"time":269.99989199999885,"velocity":0.8031496062992126,"duration":0.41449636197916107},{"name":"G4","midi":67,"time":270.41655849999887,"velocity":0.8031496062992126,"duration":0.41449636197916107},{"name":"G5","midi":79,"time":270.41655849999887,"velocity":0.8031496062992126,"duration":0.41449636197916107},{"name":"B4","midi":71,"time":270.41655849999887,"velocity":0.8031496062992126,"duration":0.41449636197916107},{"name":"F#4","midi":66,"time":270.8332249999989,"velocity":0.8031496062992126,"duration":0.41449636197916107},{"name":"A4","midi":69,"time":270.8332249999989,"velocity":0.8031496062992126,"duration":0.8246524479167192},{"name":"D5","midi":74,"time":270.8332249999989,"velocity":0.8031496062992126,"duration":0.41449636197916107},{"name":"F#3","midi":54,"time":271.2498914999989,"velocity":0.8031496062992126,"duration":0.4144963619792179},{"name":"E5","midi":76,"time":271.2498914999989,"velocity":0.8031496062992126,"duration":0.20616311197915138},{"name":"F#5","midi":78,"time":271.4582247499989,"velocity":0.8031496062992126,"duration":0.20616311197920822},{"name":"E3","midi":52,"time":271.666557999999,"velocity":0.8031496062992126,"duration":0.41449636197916107},{"name":"G5","midi":79,"time":271.666557999999,"velocity":0.8031496062992126,"duration":0.41449636197916107},{"name":"B4","midi":71,"time":271.666557999999,"velocity":0.8031496062992126,"duration":0.41449636197916107},{"name":"E4","midi":64,"time":272.083224499999,"velocity":0.8031496062992126,"duration":0.41449636197916107},{"name":"E5","midi":76,"time":272.083224499999,"velocity":0.8031496062992126,"duration":0.41449636197916107},{"name":"G4","midi":67,"time":272.083224499999,"velocity":0.8031496062992126,"duration":0.41449636197916107},{"name":"D4","midi":62,"time":272.499890999999,"velocity":0.8031496062992126,"duration":0.41449636197916107},{"name":"F#4","midi":66,"time":272.499890999999,"velocity":0.8031496062992126,"duration":0.8311628619791804},{"name":"B4","midi":71,"time":272.499890999999,"velocity":0.8031496062992126,"duration":0.6076386458333332},{"name":"D3","midi":50,"time":272.91655749999904,"velocity":0.8031496062992126,"duration":0.41449636197916107},{"name":"C3","midi":48,"time":273.33322399999906,"velocity":0.8031496062992126,"duration":0.41449636197916107},{"name":"E5","midi":76,"time":273.33322399999906,"velocity":0.8031496062992126,"duration":0.41449636197916107},{"name":"G4","midi":67,"time":273.33322399999906,"velocity":0.8031496062992126,"duration":0.41449636197916107},{"name":"C4","midi":60,"time":273.7498904999991,"velocity":0.8031496062992126,"duration":0.41449636197916107},{"name":"C5","midi":72,"time":273.7498904999991,"velocity":0.8031496062992126,"duration":0.41449636197916107},{"name":"A4","midi":69,"time":273.7498904999991,"velocity":0.8031496062992126,"duration":0.41449636197916107},{"name":"D4","midi":62,"time":274.1665569999991,"velocity":0.8031496062992126,"duration":0.41449636197916107},{"name":"A4","midi":69,"time":274.1665569999991,"velocity":0.8031496062992126,"duration":0.41449636197916107},{"name":"F#4","midi":66,"time":274.1665569999991,"velocity":0.8031496062992126,"duration":0.41449636197916107},{"name":"A3","midi":57,"time":274.5832234999991,"velocity":0.8031496062992126,"duration":0.41449636197916107},{"name":"B4","midi":71,"time":274.5832234999991,"velocity":0.8031496062992126,"duration":0.20616311197915138},{"name":"C5","midi":72,"time":274.79155674999913,"velocity":0.8031496062992126,"duration":0.20616311197915138},{"name":"F#3","midi":54,"time":274.99988999999914,"velocity":0.8031496062992126,"duration":0.4144963619792179},{"name":"D5","midi":74,"time":274.99988999999914,"velocity":0.8031496062992126,"duration":0.20616311197915138},{"name":"A4","midi":69,"time":274.99988999999914,"velocity":0.8031496062992126,"duration":0.4123262239583596},{"name":"B4","midi":71,"time":275.20822324999915,"velocity":0.8031496062992126,"duration":0.20616311197920822},{"name":"D3","midi":50,"time":275.4165564999992,"velocity":0.8031496062992126,"duration":0.41449636197916107},{"name":"C5","midi":72,"time":275.4165564999992,"velocity":0.8031496062992126,"duration":0.20616311197915138},{"name":"A4","midi":69,"time":275.6248897499992,"velocity":0.8031496062992126,"duration":0.20616311197915138},{"name":"G3","midi":55,"time":275.83322299999924,"velocity":0.8031496062992126,"duration":0.4144963619792179},{"name":"C5","midi":72,"time":275.83322299999924,"velocity":0.8031496062992126,"duration":0.20616311197915138},{"name":"G4","midi":67,"time":275.83322299999924,"velocity":0.8031496062992126,"duration":0.4123262239583596},{"name":"B4","midi":71,"time":276.04155624999925,"velocity":0.8031496062992126,"duration":0.20616311197920822},{"name":"D3","midi":50,"time":276.2498894999993,"velocity":0.8031496062992126,"duration":0.41449636197916107},{"name":"A4","midi":69,"time":276.2498894999993,"velocity":0.8031496062992126,"duration":0.20616311197915138},{"name":"G4","midi":67,"time":276.4582227499993,"velocity":0.8031496062992126,"duration":0.20616311197915138},{"name":"G2","midi":43,"time":276.66655599999933,"velocity":0.8031496062992126,"duration":0.20616311197915138},{"name":"B5","midi":83,"time":276.66655599999933,"velocity":0.8031496062992126,"duration":0.41449636197916107},{"name":"D5","midi":74,"time":276.66655599999933,"velocity":0.8031496062992126,"duration":0.41449636197916107},{"name":"D3","midi":50,"time":276.87488924999934,"velocity":0.8031496062992126,"duration":0.20616311197915138},{"name":"E3","midi":52,"time":277.08322249999935,"velocity":0.8031496062992126,"duration":0.20616311197915138},{"name":"G5","midi":79,"time":277.08322249999935,"velocity":0.8031496062992126,"duration":0.41449636197916107},{"name":"B4","midi":71,"time":277.08322249999935,"velocity":0.8031496062992126,"duration":0.41449636197916107},{"name":"F#3","midi":54,"time":277.29155574999936,"velocity":0.8031496062992126,"duration":0.20616311197915138},{"name":"G3","midi":55,"time":277.49988899999937,"velocity":0.8031496062992126,"duration":0.20616311197915138},{"name":"C#5","midi":73,"time":277.49988899999937,"velocity":0.8031496062992126,"duration":0.41449636197916107},{"name":"E5","midi":76,"time":277.49988899999937,"velocity":0.8031496062992126,"duration":0.41449636197916107},{"name":"A3","midi":57,"time":277.7082222499994,"velocity":0.8031496062992126,"duration":0.20616311197915138},{"name":"G3","midi":55,"time":277.9165554999994,"velocity":0.8031496062992126,"duration":0.20616311197915138},{"name":"E5","midi":76,"time":277.9165554999994,"velocity":0.8031496062992126,"duration":0.20616311197915138},{"name":"C#5","midi":73,"time":277.9165554999994,"velocity":0.8031496062992126,"duration":0.20616311197915138},{"name":"F#3","midi":54,"time":278.1248887499994,"velocity":0.8031496062992126,"duration":0.20616311197915138},{"name":"D5","midi":74,"time":278.1248887499994,"velocity":0.8031496062992126,"duration":0.20616311197915138},{"name":"F#5","midi":78,"time":278.1248887499994,"velocity":0.8031496062992126,"duration":0.20616311197915138},{"name":"E3","midi":52,"time":278.3332219999994,"velocity":0.8031496062992126,"duration":0.20616311197915138},{"name":"G5","midi":79,"time":278.3332219999994,"velocity":0.8031496062992126,"duration":0.41449636197916107},{"name":"E5","midi":76,"time":278.3332219999994,"velocity":0.8031496062992126,"duration":0.41449636197916107},{"name":"D3","midi":50,"time":278.5415552499994,"velocity":0.8031496062992126,"duration":0.20616311197915138},{"name":"E3","midi":52,"time":278.74988849999943,"velocity":0.8031496062992126,"duration":0.20616311197915138},{"name":"E5","midi":76,"time":278.74988849999943,"velocity":0.8031496062992126,"duration":0.41449636197916107},{"name":"C#5","midi":73,"time":278.74988849999943,"velocity":0.8031496062992126,"duration":0.41449636197916107},{"name":"F#3","midi":54,"time":278.95822174999944,"velocity":0.8031496062992126,"duration":0.20616311197915138},{"name":"G3","midi":55,"time":279.16655499999945,"velocity":0.8031496062992126,"duration":0.20616311197915138},{"name":"A4","midi":69,"time":279.16655499999945,"velocity":0.8031496062992126,"duration":2.083332500000097},{"name":"C#5","midi":73,"time":279.16655499999945,"velocity":0.8031496062992126,"duration":0.41449636197916107},{"name":"A3","midi":57,"time":279.37488824999946,"velocity":0.8031496062992126,"duration":0.20616311197915138},{"name":"B3","midi":59,"time":279.58322149999947,"velocity":0.8031496062992126,"duration":0.20616311197915138},{"name":"D5","midi":74,"time":279.58322149999947,"velocity":0.8031496062992126,"duration":0.20616311197915138},{"name":"C#4","midi":61,"time":279.7915547499995,"velocity":0.8031496062992126,"duration":0.20616311197915138},{"name":"E5","midi":76,"time":279.7915547499995,"velocity":0.8031496062992126,"duration":0.20616311197915138},{"name":"D4","midi":62,"time":279.9998879999995,"velocity":0.8031496062992126,"duration":0.41449636197916107},{"name":"F#5","midi":78,"time":279.9998879999995,"velocity":0.8031496062992126,"duration":0.20616311197915138},{"name":"D5","midi":74,"time":280.2082212499995,"velocity":0.8031496062992126,"duration":0.20616311197915138},{"name":"C#4","midi":61,"time":280.4165544999995,"velocity":0.8031496062992126,"duration":0.41449636197916107},{"name":"G5","midi":79,"time":280.4165544999995,"velocity":0.8031496062992126,"duration":0.20616311197915138},{"name":"E5","midi":76,"time":280.6248877499995,"velocity":0.8031496062992126,"duration":0.20616311197915138},{"name":"D4","midi":62,"time":280.8332209999995,"velocity":0.8031496062992126,"duration":0.41449636197916107},{"name":"F#5","midi":78,"time":280.8332209999995,"velocity":0.8031496062992126,"duration":0.20616311197915138},{"name":"D5","midi":74,"time":281.04155424999954,"velocity":0.8031496062992126,"duration":0.20616311197915138},{"name":"F#3","midi":54,"time":281.24988749999955,"velocity":0.8031496062992126,"duration":0.20616311197915138},{"name":"A5","midi":81,"time":281.24988749999955,"velocity":0.8031496062992126,"duration":0.41449636197916107},{"name":"D5","midi":74,"time":281.24988749999955,"velocity":0.8031496062992126,"duration":0.8246524479167192},{"name":"G3","midi":55,"time":281.45822074999955,"velocity":0.8031496062992126,"duration":0.20616311197915138},{"name":"A3","midi":57,"time":281.66655399999956,"velocity":0.8031496062992126,"duration":0.4144963619792179},{"name":"G5","midi":79,"time":281.66655399999956,"velocity":0.8031496062992126,"duration":0.20616311197915138},{"name":"F#5","midi":78,"time":281.8748872499996,"velocity":0.8031496062992126,"duration":0.20616311197920822},{"name":"A2","midi":45,"time":282.08322049999964,"velocity":0.8031496062992126,"duration":0.4144963619792179},{"name":"E5","midi":76,"time":282.08322049999964,"velocity":0.8031496062992126,"duration":0.20616311197915138},{"name":"C#5","midi":73,"time":282.08322049999964,"velocity":0.8031496062992126,"duration":0.4123262239583596},{"name":"F#5","midi":78,"time":282.29155374999965,"velocity":0.8031496062992126,"duration":0.20616311197920822},{"name":"D3","midi":50,"time":282.4998869999997,"velocity":0.8031496062992126,"duration":0.8311628619791804},{"name":"D5","midi":74,"time":282.4998869999997,"velocity":0.8031496062992126,"duration":0.6076386458333332},{"name":"D4","midi":62,"time":283.33321999999976,"velocity":0.8031496062992126,"duration":0.41449636197916107},{"name":"A4","midi":69,"time":283.33321999999976,"velocity":0.8031496062992126,"duration":0.41449636197916107},{"name":"F#4","midi":66,"time":283.33321999999976,"velocity":0.8031496062992126,"duration":0.41449636197916107},{"name":"A3","midi":57,"time":283.7498864999998,"velocity":0.8031496062992126,"duration":0.41449636197916107},{"name":"A4","midi":69,"time":283.7498864999998,"velocity":0.8031496062992126,"duration":0.41449636197916107},{"name":"F#4","midi":66,"time":283.7498864999998,"velocity":0.8031496062992126,"duration":0.41449636197916107},{"name":"D5","midi":74,"time":283.7498864999998,"velocity":0.8031496062992126,"duration":0.41449636197916107},{"name":"G3","midi":55,"time":284.1665529999998,"velocity":0.8031496062992126,"duration":0.20616311197915138},{"name":"A4","midi":69,"time":284.1665529999998,"velocity":0.8031496062992126,"duration":0.8311628619791804},{"name":"F#5","midi":78,"time":284.1665529999998,"velocity":0.8031496062992126,"duration":0.8311628619791804},{"name":"D5","midi":74,"time":284.1665529999998,"velocity":0.8031496062992126,"duration":0.8311628619791804},{"name":"F#3","midi":54,"time":284.3748862499998,"velocity":0.8031496062992126,"duration":0.20616311197915138},{"name":"E3","midi":52,"time":284.5832194999998,"velocity":0.8031496062992126,"duration":0.20616311197915138},{"name":"D3","midi":50,"time":284.7915527499998,"velocity":0.8031496062992126,"duration":0.20616311197915138},{"name":"A3","midi":57,"time":284.99988599999983,"velocity":0.8031496062992126,"duration":0.41449636197916107},{"name":"G5","midi":79,"time":284.99988599999983,"velocity":0.8031496062992126,"duration":0.20616311197915138},{"name":"F#5","midi":78,"time":285.20821924999984,"velocity":0.8031496062992126,"duration":0.20616311197915138},{"name":"C4","midi":60,"time":285.41655249999985,"velocity":0.8031496062992126,"duration":0.41449636197916107},{"name":"E5","midi":76,"time":285.41655249999985,"velocity":0.8031496062992126,"duration":0.20616311197915138},{"name":"D5","midi":74,"time":285.62488574999986,"velocity":0.8031496062992126,"duration":0.20616311197915138},{"name":"B3","midi":59,"time":285.8332189999999,"velocity":0.8031496062992126,"duration":0.20616311197915138},{"name":"G4","midi":67,"time":285.8332189999999,"velocity":0.8031496062992126,"duration":0.41449636197916107},{"name":"G5","midi":79,"time":285.8332189999999,"velocity":0.8031496062992126,"duration":0.41449636197916107},{"name":"D5","midi":74,"time":285.8332189999999,"velocity":0.8031496062992126,"duration":0.41449636197916107},{"name":"C4","midi":60,"time":286.0415522499999,"velocity":0.8031496062992126,"duration":0.20616311197915138},{"name":"B3","midi":59,"time":286.2498854999999,"velocity":0.8031496062992126,"duration":0.20616311197915138},{"name":"D5","midi":74,"time":286.2498854999999,"velocity":0.8031496062992126,"duration":0.41449636197916107},{"name":"A3","midi":57,"time":286.4582187499999,"velocity":0.8031496062992126,"duration":0.20616311197915138},{"name":"G3","midi":55,"time":286.6665519999999,"velocity":0.8031496062992126,"duration":0.20616311197915138},{"name":"G5","midi":79,"time":286.6665519999999,"velocity":0.8031496062992126,"duration":0.41449636197916107},{"name":"D5","midi":74,"time":286.6665519999999,"velocity":0.8031496062992126,"duration":0.41449636197916107},{"name":"B5","midi":83,"time":286.6665519999999,"velocity":0.8031496062992126,"duration":0.41449636197916107},{"name":"A3","midi":57,"time":286.8748852499999,"velocity":0.8031496062992126,"duration":0.20616311197915138},{"name":"B3","midi":59,"time":287.08321849999993,"velocity":0.8031496062992126,"duration":0.20616311197915138},{"name":"B4","midi":71,"time":287.08321849999993,"velocity":0.8031496062992126,"duration":0.41449636197916107},{"name":"G5","midi":79,"time":287.08321849999993,"velocity":0.8031496062992126,"duration":0.41449636197916107},{"name":"G3","midi":55,"time":287.29155174999994,"velocity":0.8031496062992126,"duration":0.20616311197915138},{"name":"C4","midi":60,"time":287.49988499999995,"velocity":0.8031496062992126,"duration":0.20616311197915138},{"name":"E5","midi":76,"time":287.49988499999995,"velocity":0.8031496062992126,"duration":0.41449636197916107},{"name":"G4","midi":67,"time":287.49988499999995,"velocity":0.8031496062992126,"duration":0.41449636197916107},{"name":"D4","midi":62,"time":287.70821824999996,"velocity":0.8031496062992126,"duration":0.20616311197915138},{"name":"C4","midi":60,"time":287.91655149999997,"velocity":0.8031496062992126,"duration":0.20616311197915138},{"name":"A4","midi":69,"time":287.91655149999997,"velocity":0.8031496062992126,"duration":0.20616311197915138},{"name":"F#5","midi":78,"time":287.91655149999997,"velocity":0.8031496062992126,"duration":0.20616311197915138},{"name":"B3","midi":59,"time":288.12488475,"velocity":0.8031496062992126,"duration":0.20616311197915138},{"name":"B4","midi":71,"time":288.12488475,"velocity":0.8031496062992126,"duration":0.20616311197915138},{"name":"G5","midi":79,"time":288.12488475,"velocity":0.8031496062992126,"duration":0.20616311197915138},{"name":"A3","midi":57,"time":288.333218,"velocity":0.8031496062992126,"duration":0.20616311197915138},{"name":"A5","midi":81,"time":288.333218,"velocity":0.8031496062992126,"duration":0.41449636197916107},{"name":"C5","midi":72,"time":288.333218,"velocity":0.8031496062992126,"duration":0.41449636197916107},{"name":"B3","midi":59,"time":288.54155125,"velocity":0.8031496062992126,"duration":0.20616311197915138},{"name":"C4","midi":60,"time":288.7498845,"velocity":0.8031496062992126,"duration":0.20616311197915138},{"name":"A4","midi":69,"time":288.7498845,"velocity":0.8031496062992126,"duration":0.41449636197916107},{"name":"F#5","midi":78,"time":288.7498845,"velocity":0.8031496062992126,"duration":0.41449636197916107},{"name":"A3","midi":57,"time":288.95821775,"velocity":0.8031496062992126,"duration":0.20616311197915138},{"name":"B3","midi":59,"time":289.166551,"velocity":0.8031496062992126,"duration":0.41449636197916107},{"name":"D#5","midi":75,"time":289.166551,"velocity":0.8031496062992126,"duration":0.6076386458333332},{"name":"F#4","midi":66,"time":289.166551,"velocity":0.8031496062992126,"duration":0.8311628619791804},{"name":"B2","midi":47,"time":289.58321750000005,"velocity":0.8031496062992126,"duration":0.41232622395830276},{"name":"B4","midi":71,"time":289.99988400000007,"velocity":0.8031496062992126,"duration":0.4123262239583596},{"name":"C#5","midi":73,"time":290.2082172500001,"velocity":0.8031496062992126,"duration":0.20616311197920822},{"name":"F#4","midi":66,"time":290.41655050000014,"velocity":0.8031496062992126,"duration":0.41449636197916107},{"name":"D#5","midi":75,"time":290.41655050000014,"velocity":0.8031496062992126,"duration":0.20616311197915138},{"name":"E5","midi":76,"time":290.62488375000015,"velocity":0.8031496062992126,"duration":0.20616311197915138},{"name":"D#4","midi":63,"time":290.83321700000016,"velocity":0.8031496062992126,"duration":0.41449636197916107},{"name":"F#5","midi":78,"time":290.83321700000016,"velocity":0.8031496062992126,"duration":0.20616311197915138},{"name":"G5","midi":79,"time":291.04155025000017,"velocity":0.8031496062992126,"duration":0.20616311197915138},{"name":"D#4","midi":63,"time":291.2498835000002,"velocity":0.8031496062992126,"duration":0.20616311197915138},{"name":"F#5","midi":78,"time":291.2498835000002,"velocity":0.8031496062992126,"duration":0.20616311197915138},{"name":"E4","midi":64,"time":291.4582167500002,"velocity":0.8031496062992126,"duration":0.20616311197915138},{"name":"E5","midi":76,"time":291.4582167500002,"velocity":0.8031496062992126,"duration":0.20616311197915138},{"name":"F#4","midi":66,"time":291.6665500000002,"velocity":0.8031496062992126,"duration":0.41449636197916107},{"name":"D#5","midi":75,"time":291.6665500000002,"velocity":0.8031496062992126,"duration":0.20616311197915138},{"name":"E5","midi":76,"time":291.8748832500002,"velocity":0.8031496062992126,"duration":0.20616311197915138},{"name":"D#4","midi":63,"time":292.0832165000002,"velocity":0.8031496062992126,"duration":0.41449636197916107},{"name":"F#5","midi":78,"time":292.0832165000002,"velocity":0.8031496062992126,"duration":0.20616311197915138},{"name":"G5","midi":79,"time":292.29154975000023,"velocity":0.8031496062992126,"duration":0.20616311197915138},{"name":"B3","midi":59,"time":292.49988300000024,"velocity":0.8031496062992126,"duration":0.41449636197916107},{"name":"A5","midi":81,"time":292.49988300000024,"velocity":0.8031496062992126,"duration":0.20616311197915138},{"name":"B5","midi":83,"time":292.70821625000025,"velocity":0.8031496062992126,"duration":0.20616311197915138},{"name":"B3","midi":59,"time":292.91654950000026,"velocity":0.8031496062992126,"duration":0.20616311197915138},{"name":"A5","midi":81,"time":292.91654950000026,"velocity":0.8031496062992126,"duration":0.20616311197915138},{"name":"C#4","midi":61,"time":293.12488275000027,"velocity":0.8031496062992126,"duration":0.20616311197915138},{"name":"G5","midi":79,"time":293.12488275000027,"velocity":0.8031496062992126,"duration":0.20616311197915138},{"name":"D#4","midi":63,"time":293.3332160000003,"velocity":0.8031496062992126,"duration":0.41449636197916107},{"name":"F#5","midi":78,"time":293.3332160000003,"velocity":0.8031496062992126,"duration":0.20616311197915138},{"name":"G5","midi":79,"time":293.5415492500003,"velocity":0.8031496062992126,"duration":0.20616311197915138},{"name":"B3","midi":59,"time":293.7498825000003,"velocity":0.8031496062992126,"duration":0.41449636197916107},{"name":"A5","midi":81,"time":293.7498825000003,"velocity":0.8031496062992126,"duration":0.20616311197915138},{"name":"B5","midi":83,"time":293.9582157500003,"velocity":0.8031496062992126,"duration":0.20616311197915138},{"name":"G3","midi":55,"time":294.1665490000003,"velocity":0.8031496062992126,"duration":0.20616311197915138},{"name":"C6","midi":84,"time":294.1665490000003,"velocity":0.8031496062992126,"duration":0.20616311197915138},{"name":"F#3","midi":54,"time":294.3748822500003,"velocity":0.8031496062992126,"duration":0.20616311197915138},{"name":"A5","midi":81,"time":294.3748822500003,"velocity":0.8031496062992126,"duration":0.20616311197915138},{"name":"G3","midi":55,"time":294.58321550000034,"velocity":0.8031496062992126,"duration":0.20616311197915138},{"name":"B5","midi":83,"time":294.58321550000034,"velocity":0.8031496062992126,"duration":0.41449636197916107},{"name":"A3","midi":57,"time":294.79154875000035,"velocity":0.8031496062992126,"duration":0.20616311197915138},{"name":"B3","midi":59,"time":294.99988200000035,"velocity":0.8031496062992126,"duration":0.41449636197916107},{"name":"G4","midi":67,"time":294.99988200000035,"velocity":0.8031496062992126,"duration":0.41449636197916107},{"name":"E5","midi":76,"time":294.99988200000035,"velocity":0.8031496062992126,"duration":0.41449636197916107},{"name":"B2","midi":47,"time":295.4165485000004,"velocity":0.8031496062992126,"duration":0.4144963619792179},{"name":"F#5","midi":78,"time":295.4165485000004,"velocity":0.8031496062992126,"duration":0.20616311197915138},{"name":"A4","midi":69,"time":295.4165485000004,"velocity":0.8031496062992126,"duration":0.4123262239583596},{"name":"D#5","midi":75,"time":295.6248817500004,"velocity":0.8031496062992126,"duration":0.20616311197920822},{"name":"E3","midi":52,"time":295.83321500000045,"velocity":0.8031496062992126,"duration":0.41449636197916107},{"name":"E5","midi":76,"time":295.83321500000045,"velocity":0.8031496062992126,"duration":0.5208331250000242},{"name":"G4","midi":67,"time":295.83321500000045,"velocity":0.8031496062992126,"duration":0.8311628619791804},{"name":"B2","midi":47,"time":296.24988150000047,"velocity":0.8031496062992126,"duration":0.41449636197916107},{"name":"E2","midi":40,"time":296.6665480000005,"velocity":0.8031496062992126,"duration":0.20616311197915138},{"name":"B4","midi":71,"time":296.6665480000005,"velocity":0.8031496062992126,"duration":0.41449636197916107},{"name":"G4","midi":67,"time":296.6665480000005,"velocity":0.8031496062992126,"duration":0.41449636197916107},{"name":"F#2","midi":42,"time":296.8748812500005,"velocity":0.8031496062992126,"duration":0.20616311197915138},{"name":"G2","midi":43,"time":297.0832145000005,"velocity":0.8031496062992126,"duration":0.20616311197915138},{"name":"E5","midi":76,"time":297.0832145000005,"velocity":0.8031496062992126,"duration":0.41449636197916107},{"name":"B4","midi":71,"time":297.0832145000005,"velocity":0.8031496062992126,"duration":0.41449636197916107},{"name":"A2","midi":45,"time":297.2915477500005,"velocity":0.8031496062992126,"duration":0.20616311197915138},{"name":"B2","midi":47,"time":297.4998810000005,"velocity":0.8031496062992126,"duration":0.20616311197915138},{"name":"G5","midi":79,"time":297.4998810000005,"velocity":0.8031496062992126,"duration":0.6076386458333332},{"name":"D5","midi":74,"time":297.4998810000005,"velocity":0.8031496062992126,"duration":0.8311628619791804},{"name":"C3","midi":48,"time":297.70821425000054,"velocity":0.8031496062992126,"duration":0.20616311197915138},{"name":"D3","midi":50,"time":297.91654750000055,"velocity":0.8031496062992126,"duration":0.20616311197915138},{"name":"E3","midi":52,"time":298.12488075000056,"velocity":0.8031496062992126,"duration":0.20616311197915138},{"name":"F3","midi":53,"time":298.33321400000057,"velocity":0.8031496062992126,"duration":0.20616311197915138},{"name":"C5","midi":72,"time":298.33321400000057,"velocity":0.8031496062992126,"duration":0.20616311197915138},{"name":"G3","midi":55,"time":298.5415472500006,"velocity":0.8031496062992126,"duration":0.20616311197915138},{"name":"B4","midi":71,"time":298.5415472500006,"velocity":0.8031496062992126,"duration":0.20616311197915138},{"name":"A3","midi":57,"time":298.7498805000006,"velocity":0.8031496062992126,"duration":0.20616311197915138},{"name":"A4","midi":69,"time":298.7498805000006,"velocity":0.8031496062992126,"duration":0.20616311197915138},{"name":"B3","midi":59,"time":298.9582137500006,"velocity":0.8031496062992126,"duration":0.20616311197915138},{"name":"G4","midi":67,"time":298.9582137500006,"velocity":0.8031496062992126,"duration":0.20616311197915138},{"name":"C4","midi":60,"time":299.1665470000006,"velocity":0.8031496062992126,"duration":0.20616311197915138},{"name":"F5","midi":77,"time":299.1665470000006,"velocity":0.8031496062992126,"duration":0.20616311197915138},{"name":"D4","midi":62,"time":299.3748802500006,"velocity":0.8031496062992126,"duration":0.20616311197915138},{"name":"D5","midi":74,"time":299.3748802500006,"velocity":0.8031496062992126,"duration":0.20616311197915138},{"name":"C4","midi":60,"time":299.5832135000006,"velocity":0.8031496062992126,"duration":0.20616311197915138},{"name":"E5","midi":76,"time":299.5832135000006,"velocity":0.8031496062992126,"duration":0.3472220833333495},{"name":"B3","midi":59,"time":299.79154675000063,"velocity":0.8031496062992126,"duration":0.20616311197915138},{"name":"A3","midi":57,"time":299.99988000000064,"velocity":0.8031496062992126,"duration":0.20616311197915138},{"name":"F#4","midi":66,"time":299.99988000000064,"velocity":0.8031496062992126,"duration":0.20616311197915138},{"name":"G3","midi":55,"time":300.20821325000065,"velocity":0.8031496062992126,"duration":0.20616311197915138},{"name":"G4","midi":67,"time":300.20821325000065,"velocity":0.8031496062992126,"duration":0.20616311197915138},{"name":"F#3","midi":54,"time":300.41654650000066,"velocity":0.8031496062992126,"duration":0.20616311197915138},{"name":"A4","midi":69,"time":300.41654650000066,"velocity":0.8031496062992126,"duration":0.20616311197915138},{"name":"E3","midi":52,"time":300.6248797500007,"velocity":0.8031496062992126,"duration":0.20616311197915138},{"name":"B4","midi":71,"time":300.6248797500007,"velocity":0.8031496062992126,"duration":0.20616311197915138},{"name":"D3","midi":50,"time":300.8332130000007,"velocity":0.8031496062992126,"duration":0.20616311197915138},{"name":"C5","midi":72,"time":300.8332130000007,"velocity":0.8031496062992126,"duration":0.20616311197915138},{"name":"C3","midi":48,"time":301.0415462500007,"velocity":0.8031496062992126,"duration":0.20616311197915138},{"name":"A4","midi":69,"time":301.0415462500007,"velocity":0.8031496062992126,"duration":0.20616311197915138},{"name":"B2","midi":47,"time":301.2498795000007,"velocity":0.8031496062992126,"duration":0.20616311197915138},{"name":"B4","midi":71,"time":301.2498795000007,"velocity":0.8031496062992126,"duration":0.20616311197915138},{"name":"A2","midi":45,"time":301.4582127500007,"velocity":0.8031496062992126,"duration":0.20616311197915138},{"name":"C5","midi":72,"time":301.4582127500007,"velocity":0.8031496062992126,"duration":0.20616311197915138},{"name":"G2","midi":43,"time":301.6665460000007,"velocity":0.8031496062992126,"duration":0.20616311197915138},{"name":"D5","midi":74,"time":301.6665460000007,"velocity":0.8031496062992126,"duration":0.20616311197915138},{"name":"A2","midi":45,"time":301.87487925000073,"velocity":0.8031496062992126,"duration":0.20616311197915138},{"name":"C5","midi":72,"time":301.87487925000073,"velocity":0.8031496062992126,"duration":0.20616311197915138},{"name":"B2","midi":47,"time":302.08321250000074,"velocity":0.8031496062992126,"duration":0.20616311197915138},{"name":"D5","midi":74,"time":302.08321250000074,"velocity":0.8031496062992126,"duration":0.20616311197915138},{"name":"C3","midi":48,"time":302.29154575000075,"velocity":0.8031496062992126,"duration":0.20616311197915138},{"name":"E5","midi":76,"time":302.29154575000075,"velocity":0.8031496062992126,"duration":0.20616311197915138},{"name":"D3","midi":50,"time":302.49987900000076,"velocity":0.8031496062992126,"duration":0.20616311197915138},{"name":"A4","midi":69,"time":302.49987900000076,"velocity":0.8031496062992126,"duration":0.6076386458333332},{"name":"F#4","midi":66,"time":302.49987900000076,"velocity":0.8031496062992126,"duration":0.8311628619791804},{"name":"A2","midi":45,"time":302.70821225000077,"velocity":0.8031496062992126,"duration":0.20616311197915138},{"name":"F#2","midi":42,"time":302.9165455000008,"velocity":0.8031496062992126,"duration":0.20616311197915138},{"name":"A2","midi":45,"time":303.1248787500008,"velocity":0.8031496062992126,"duration":0.20616311197915138},{"name":"D2","midi":38,"time":303.3332120000008,"velocity":0.8031496062992126,"duration":0.20616311197915138},{"name":"A5","midi":81,"time":303.3332120000008,"velocity":0.8031496062992126,"duration":0.41449636197916107},{"name":"C6","midi":84,"time":303.3332120000008,"velocity":0.8031496062992126,"duration":0.41449636197916107},{"name":"E2","midi":40,"time":303.5415452500008,"velocity":0.8031496062992126,"duration":0.20616311197915138},{"name":"F#2","midi":42,"time":303.7498785000008,"velocity":0.8031496062992126,"duration":0.20616311197915138},{"name":"A5","midi":81,"time":303.7498785000008,"velocity":0.8031496062992126,"duration":0.41449636197916107},{"name":"D5","midi":74,"time":303.7498785000008,"velocity":0.8031496062992126,"duration":0.41449636197916107},{"name":"G2","midi":43,"time":303.9582117500008,"velocity":0.8031496062992126,"duration":0.20616311197915138},{"name":"A2","midi":45,"time":304.16654500000084,"velocity":0.8031496062992126,"duration":0.20616311197915138},{"name":"F#5","midi":78,"time":304.16654500000084,"velocity":0.8031496062992126,"duration":0.41449636197916107},{"name":"C5","midi":72,"time":304.16654500000084,"velocity":0.8031496062992126,"duration":0.8246524479167192},{"name":"B2","midi":47,"time":304.37487825000085,"velocity":0.8031496062992126,"duration":0.20616311197915138},{"name":"A2","midi":45,"time":304.58321150000086,"velocity":0.8031496062992126,"duration":0.20616311197915138},{"name":"F#5","midi":78,"time":304.58321150000086,"velocity":0.8031496062992126,"duration":0.20616311197915138},{"name":"G2","midi":43,"time":304.79154475000087,"velocity":0.8031496062992126,"duration":0.20616311197920822},{"name":"G5","midi":79,"time":304.79154475000087,"velocity":0.8031496062992126,"duration":0.20616311197920822},{"name":"C5","midi":72,"time":304.99987800000093,"velocity":0.8031496062992126,"duration":0.4253470520833389},{"name":"A5","midi":81,"time":304.99987800000093,"velocity":0.8031496062992126,"duration":0.4253470520833389},{"name":"F#2","midi":42,"time":304.99987800000093,"velocity":0.8031496062992126,"duration":0.21050338802081114},{"name":"G2","midi":43,"time":305.2125515260426,"velocity":0.8031496062992126,"duration":0.21050338802081114},{"name":"A4","midi":69,"time":305.42739519010513,"velocity":0.8031496062992126,"duration":0.42534705208328205},{"name":"F#5","midi":78,"time":305.42739519010513,"velocity":0.8031496062992126,"duration":0.42534705208328205},{"name":"A2","midi":45,"time":305.42739519010513,"velocity":0.8031496062992126,"duration":0.21050338802081114},{"name":"B2","midi":47,"time":305.6422388541676,"velocity":0.8031496062992126,"duration":0.21050338802081114},{"name":"D5","midi":74,"time":305.8570825182301,"velocity":0.8031496062992126,"duration":0.42534705208328205},{"name":"F#4","midi":66,"time":305.8570825182301,"velocity":0.8031496062992126,"duration":0.8485239661457626},{"name":"C3","midi":48,"time":305.8570825182301,"velocity":0.8031496062992126,"duration":0.21050338802081114},{"name":"D3","midi":50,"time":306.07192618229254,"velocity":0.8031496062992126,"duration":0.21050338802081114},{"name":"D5","midi":74,"time":306.286769846355,"velocity":0.8031496062992126,"duration":0.21050338802081114},{"name":"C3","midi":48,"time":306.286769846355,"velocity":0.8031496062992126,"duration":0.21050338802081114},{"name":"E5","midi":76,"time":306.5016135104175,"velocity":0.8031496062992126,"duration":0.210503388020868},{"name":"B2","midi":47,"time":306.5016135104175,"velocity":0.8031496062992126,"duration":0.210503388020868},{"name":"C5","midi":72,"time":306.71645717448,"velocity":0.8031496062992126,"duration":0.8984371406250489},{"name":"F#5","midi":78,"time":306.71645717448,"velocity":0.8031496062992126,"duration":0.2191839401041875},{"name":"A2","midi":45,"time":306.71645717448,"velocity":0.8031496062992126,"duration":0.2191839401041875},{"name":"G5","midi":79,"time":306.93998139062586,"velocity":0.8031496062992126,"duration":0.2191839401041875},{"name":"B2","midi":47,"time":306.93998139062586,"velocity":0.8031496062992126,"duration":0.2191839401041875},{"name":"A5","midi":81,"time":307.16784588281337,"velocity":0.8031496062992126,"duration":0.2191839401041875},{"name":"C3","midi":48,"time":307.16784588281337,"velocity":0.8031496062992126,"duration":0.2191839401041875},{"name":"F#5","midi":78,"time":307.3957103750009,"velocity":0.8031496062992126,"duration":0.2191839401041875},{"name":"D3","midi":50,"time":307.3957103750009,"velocity":0.8031496062992126,"duration":0.2191839401041875},{"name":"B4","midi":71,"time":307.6235748671884,"velocity":0.8031496062992126,"duration":0.47309008854165313},{"name":"G5","midi":79,"time":307.6235748671884,"velocity":0.8031496062992126,"duration":0.2322047682291668},{"name":"E3","midi":52,"time":307.6235748671884,"velocity":0.8031496062992126,"duration":0.47526022656251143},{"name":"E5","midi":76,"time":307.8601199114592,"velocity":0.8031496062992126,"duration":0.2322047682291668},{"name":"C5","midi":72,"time":308.10317536979255,"velocity":0.8031496062992126,"duration":0.47526022656251143},{"name":"A5","midi":81,"time":308.10317536979255,"velocity":0.8031496062992126,"duration":0.47526022656251143},{"name":"C3","midi":48,"time":308.10317536979255,"velocity":0.8031496062992126,"duration":0.47526022656251143},{"name":"G5","midi":79,"time":308.5871161484384,"velocity":0.8031496062992126,"duration":0.11718745312498413},{"name":"A4","midi":69,"time":308.5871161484384,"velocity":0.8031496062992126,"duration":1.006944041666543},{"name":"D3","midi":50,"time":308.5871161484384,"velocity":0.8031496062992126,"duration":0.5013018828124132},{"name":"F#5","midi":78,"time":308.71515429166755,"velocity":0.8031496062992126,"duration":0.11718745312498413},{"name":"G5","midi":79,"time":308.8366820208342,"velocity":0.8031496062992126,"duration":0.11718745312498413},{"name":"F#5","midi":78,"time":308.9712305781258,"velocity":0.8031496062992126,"duration":0.37326373958330805},{"name":"D2","midi":38,"time":309.099268721355,"velocity":0.8031496062992126,"duration":0.50130188281247},{"name":"G5","midi":79,"time":309.35317486979244,"velocity":0.8031496062992126,"duration":0.2452255963541461},{"name":"B4","midi":71,"time":309.60708101822996,"velocity":0.8031496062992126,"duration":1.47569385416665},{"name":"G5","midi":79,"time":309.60708101822996,"velocity":0.8031496062992126,"duration":1.47569385416665},{"name":"G2","midi":43,"time":309.60708101822996,"velocity":0.8031496062992126,"duration":1.47569385416665},{"name":"B4","midi":71,"time":313.2594233072924,"velocity":0.8031496062992126,"duration":0.20616311197915138},{"name":"D5","midi":74,"time":313.51766973177155,"velocity":0.8031496062992126,"duration":0.20616311197915138},{"name":"G5","midi":79,"time":313.7498745000007,"velocity":0.8031496062992126,"duration":0.10199648697914654},{"name":"F#5","midi":78,"time":313.8540411250007,"velocity":0.8031496062992126,"duration":0.10199648697914654},{"name":"D4","midi":62,"time":313.9582077500007,"velocity":0.8031496062992126,"duration":0.20616311197915138},{"name":"G5","midi":79,"time":313.9582077500007,"velocity":0.8031496062992126,"duration":0.41449636197916107},{"name":"B3","midi":59,"time":314.16654100000073,"velocity":0.8031496062992126,"duration":0.20616311197915138},{"name":"G3","midi":55,"time":314.37487425000074,"velocity":0.8031496062992126,"duration":0.20616311197915138},{"name":"A5","midi":81,"time":314.37487425000074,"velocity":0.8031496062992126,"duration":0.20616311197915138},{"name":"F#3","midi":54,"time":314.58320750000075,"velocity":0.8031496062992126,"duration":0.20616311197915138},{"name":"B5","midi":83,"time":314.58320750000075,"velocity":0.8031496062992126,"duration":0.10199648697914654},{"name":"A5","midi":81,"time":314.68737412500076,"velocity":0.8031496062992126,"duration":0.10199648697914654},{"name":"C4","midi":60,"time":314.79154075000076,"velocity":0.8031496062992126,"duration":0.20616311197915138},{"name":"B5","midi":83,"time":314.79154075000076,"velocity":0.8031496062992126,"duration":0.10199648697914654},{"name":"A5","midi":81,"time":314.89570737500077,"velocity":0.8031496062992126,"duration":0.10199648697914654},{"name":"A3","midi":57,"time":314.9998740000008,"velocity":0.8031496062992126,"duration":0.20616311197915138},{"name":"B5","midi":83,"time":314.9998740000008,"velocity":0.8031496062992126,"duration":0.10199648697914654},{"name":"A5","midi":81,"time":315.1040406250008,"velocity":0.8031496062992126,"duration":0.10199648697914654},{"name":"F#3","midi":54,"time":315.2082072500008,"velocity":0.8031496062992126,"duration":0.20616311197915138},{"name":"G5","midi":79,"time":315.2082072500008,"velocity":0.8031496062992126,"duration":0.10199648697914654},{"name":"A5","midi":81,"time":315.3123738750008,"velocity":0.8031496062992126,"duration":0.10199648697914654},{"name":"G3","midi":55,"time":315.4165405000008,"velocity":0.8031496062992126,"duration":0.20616311197915138},{"name":"B5","midi":83,"time":315.4165405000008,"velocity":0.8031496062992126,"duration":0.41449636197916107},{"name":"B3","midi":59,"time":315.6248737500008,"velocity":0.8031496062992126,"duration":0.20616311197915138},{"name":"G3","midi":55,"time":315.8332070000008,"velocity":0.8031496062992126,"duration":0.20616311197915138},{"name":"A5","midi":81,"time":315.8332070000008,"velocity":0.8031496062992126,"duration":0.20616311197915138},{"name":"D3","midi":50,"time":316.0415402500008,"velocity":0.8031496062992126,"duration":0.20616311197915138},{"name":"B5","midi":83,"time":316.0415402500008,"velocity":0.8031496062992126,"duration":0.20616311197915138},{"name":"B2","midi":47,"time":316.24987350000083,"velocity":0.8031496062992126,"duration":0.20616311197915138},{"name":"G5","midi":79,"time":316.24987350000083,"velocity":0.8031496062992126,"duration":0.41449636197916107},{"name":"D3","midi":50,"time":316.45820675000084,"velocity":0.8031496062992126,"duration":0.20616311197915138},{"name":"B2","midi":47,"time":316.66654000000085,"velocity":0.8031496062992126,"duration":0.20616311197915138},{"name":"D5","midi":74,"time":316.66654000000085,"velocity":0.8031496062992126,"duration":0.20616311197915138},{"name":"G2","midi":43,"time":316.87487325000086,"velocity":0.8031496062992126,"duration":0.20616311197915138},{"name":"B4","midi":71,"time":316.87487325000086,"velocity":0.8031496062992126,"duration":0.20616311197915138},{"name":"C3","midi":48,"time":317.08320650000087,"velocity":0.8031496062992126,"duration":0.20616311197915138},{"name":"E5","midi":76,"time":317.08320650000087,"velocity":0.8031496062992126,"duration":0.39062484375000395},{"name":"G2","midi":43,"time":317.2915397500009,"velocity":0.8031496062992126,"duration":0.20616311197915138},{"name":"E3","midi":52,"time":317.4998730000009,"velocity":0.8031496062992126,"duration":0.20616311197915138},{"name":"C5","midi":72,"time":317.4998730000009,"velocity":0.8031496062992126,"duration":0.20616311197915138},{"name":"C3","midi":48,"time":317.7082062500009,"velocity":0.8031496062992126,"duration":0.20616311197915138},{"name":"A4","midi":69,"time":317.7082062500009,"velocity":0.8031496062992126,"duration":0.20616311197915138},{"name":"D3","midi":50,"time":317.9165395000009,"velocity":0.8031496062992126,"duration":0.20616311197915138},{"name":"F#4","midi":66,"time":317.9165395000009,"velocity":0.8031496062992126,"duration":0.39062484375000395},{"name":"A2","midi":45,"time":318.1248727500009,"velocity":0.8031496062992126,"duration":0.20616311197915138},{"name":"F#3","midi":54,"time":318.3332060000009,"velocity":0.8031496062992126,"duration":0.20616311197915138},{"name":"D5","midi":74,"time":318.3332060000009,"velocity":0.8031496062992126,"duration":0.20616311197915138},{"name":"D3","midi":50,"time":318.54153925000094,"velocity":0.8031496062992126,"duration":0.20616311197915138},{"name":"A4","midi":69,"time":318.54153925000094,"velocity":0.8031496062992126,"duration":0.20616311197915138},{"name":"G3","midi":55,"time":318.74987250000095,"velocity":0.8031496062992126,"duration":0.41449636197916107},{"name":"C5","midi":72,"time":318.74987250000095,"velocity":0.8031496062992126,"duration":0.20616311197915138},{"name":"B4","midi":71,"time":318.95820575000096,"velocity":0.8031496062992126,"duration":0.20616311197915138},{"name":"D3","midi":50,"time":319.16653900000097,"velocity":0.8031496062992126,"duration":0.41449636197916107},{"name":"A4","midi":69,"time":319.16653900000097,"velocity":0.8031496062992126,"duration":0.20616311197915138},{"name":"B4","midi":71,"time":319.374872250001,"velocity":0.8031496062992126,"duration":0.20616311197915138},{"name":"B2","midi":47,"time":319.583205500001,"velocity":0.8031496062992126,"duration":0.41449636197916107},{"name":"G4","midi":67,"time":319.583205500001,"velocity":0.8031496062992126,"duration":0.20616311197915138},{"name":"A4","midi":69,"time":319.791538750001,"velocity":0.8031496062992126,"duration":0.20616311197915138},{"name":"D3","midi":50,"time":319.999872000001,"velocity":0.8031496062992126,"duration":0.41449636197916107},{"name":"B4","midi":71,"time":319.999872000001,"velocity":0.8031496062992126,"duration":0.20616311197915138},{"name":"D5","midi":74,"time":320.208205250001,"velocity":0.8031496062992126,"duration":0.20616311197915138},{"name":"G2","midi":43,"time":320.416538500001,"velocity":0.8031496062992126,"duration":0.20616311197915138},{"name":"G5","midi":79,"time":320.416538500001,"velocity":0.8031496062992126,"duration":0.10199648697914654},{"name":"F#5","midi":78,"time":320.52070512500103,"velocity":0.8031496062992126,"duration":0.10199648697914654},{"name":"D4","midi":62,"time":320.62487175000103,"velocity":0.8031496062992126,"duration":0.20616311197915138},{"name":"G5","midi":79,"time":320.62487175000103,"velocity":0.8031496062992126,"duration":0.41449636197916107},{"name":"B3","midi":59,"time":320.83320500000104,"velocity":0.8031496062992126,"duration":0.20616311197915138},{"name":"G3","midi":55,"time":321.04153825000105,"velocity":0.8031496062992126,"duration":0.20616311197915138},{"name":"A5","midi":81,"time":321.04153825000105,"velocity":0.8031496062992126,"duration":0.20616311197915138},{"name":"F#3","midi":54,"time":321.24987150000106,"velocity":0.8031496062992126,"duration":0.20616311197915138},{"name":"B5","midi":83,"time":321.24987150000106,"velocity":0.8031496062992126,"duration":0.10199648697914654},{"name":"A5","midi":81,"time":321.35403812500107,"velocity":0.8031496062992126,"duration":0.10199648697914654},{"name":"C4","midi":60,"time":321.4582047500011,"velocity":0.8031496062992126,"duration":0.20616311197915138},{"name":"B5","midi":83,"time":321.4582047500011,"velocity":0.8031496062992126,"duration":0.10199648697914654},{"name":"A5","midi":81,"time":321.5623713750011,"velocity":0.8031496062992126,"duration":0.10199648697914654},{"name":"A3","midi":57,"time":321.6665380000011,"velocity":0.8031496062992126,"duration":0.20616311197915138},{"name":"B5","midi":83,"time":321.6665380000011,"velocity":0.8031496062992126,"duration":0.10199648697914654},{"name":"A5","midi":81,"time":321.7707046250011,"velocity":0.8031496062992126,"duration":0.10199648697914654},{"name":"F#3","midi":54,"time":321.8748712500011,"velocity":0.8031496062992126,"duration":0.20616311197915138},{"name":"G5","midi":79,"time":321.8748712500011,"velocity":0.8031496062992126,"duration":0.10199648697914654},{"name":"A5","midi":81,"time":321.9790378750011,"velocity":0.8031496062992126,"duration":0.10199648697914654},{"name":"G3","midi":55,"time":322.0832045000011,"velocity":0.8031496062992126,"duration":0.20616311197915138},{"name":"B5","midi":83,"time":322.0832045000011,"velocity":0.8031496062992126,"duration":0.41449636197916107},{"name":"B3","midi":59,"time":322.2915377500011,"velocity":0.8031496062992126,"duration":0.20616311197915138},{"name":"G3","midi":55,"time":322.4998710000011,"velocity":0.8031496062992126,"duration":0.20616311197915138},{"name":"A5","midi":81,"time":322.4998710000011,"velocity":0.8031496062992126,"duration":0.20616311197915138},{"name":"D3","midi":50,"time":322.70820425000113,"velocity":0.8031496062992126,"duration":0.20616311197915138},{"name":"B5","midi":83,"time":322.70820425000113,"velocity":0.8031496062992126,"duration":0.20616311197915138},{"name":"B2","midi":47,"time":322.91653750000114,"velocity":0.8031496062992126,"duration":0.20616311197915138},{"name":"G5","midi":79,"time":322.91653750000114,"velocity":0.8031496062992126,"duration":0.41449636197916107},{"name":"G3","midi":55,"time":323.12487075000115,"velocity":0.8031496062992126,"duration":0.20616311197915138},{"name":"D3","midi":50,"time":323.33320400000116,"velocity":0.8031496062992126,"duration":0.20616311197915138},{"name":"A5","midi":81,"time":323.33320400000116,"velocity":0.8031496062992126,"duration":0.20616311197915138},{"name":"B2","midi":47,"time":323.54153725000117,"velocity":0.8031496062992126,"duration":0.20616311197915138},{"name":"C6","midi":84,"time":323.54153725000117,"velocity":0.8031496062992126,"duration":0.20616311197915138},{"name":"G2","midi":43,"time":323.7498705000012,"velocity":0.8031496062992126,"duration":0.20616311197915138},{"name":"B5","midi":83,"time":323.7498705000012,"velocity":0.8031496062992126,"duration":0.39062484375000395},{"name":"B2","midi":47,"time":323.9582037500012,"velocity":0.8031496062992126,"duration":0.20616311197915138},{"name":"C#3","midi":49,"time":324.1665370000012,"velocity":0.8031496062992126,"duration":0.20616311197915138},{"name":"E5","midi":76,"time":324.1665370000012,"velocity":0.8031496062992126,"duration":0.20616311197915138},{"name":"E3","midi":52,"time":324.3748702500012,"velocity":0.8031496062992126,"duration":0.20616311197915138},{"name":"G5","midi":79,"time":324.3748702500012,"velocity":0.8031496062992126,"duration":0.20616311197915138},{"name":"F#2","midi":42,"time":324.5832035000012,"velocity":0.8031496062992126,"duration":0.20616311197915138},{"name":"A5","midi":81,"time":324.5832035000012,"velocity":0.8031496062992126,"duration":0.39062484375000395},{"name":"A2","midi":45,"time":324.7915367500012,"velocity":0.8031496062992126,"duration":0.20616311197915138},{"name":"D3","midi":50,"time":324.99987000000124,"velocity":0.8031496062992126,"duration":0.41449636197916107},{"name":"B4","midi":71,"time":324.99987000000124,"velocity":0.8031496062992126,"duration":0.20616311197915138},{"name":"D5","midi":74,"time":325.20820325000125,"velocity":0.8031496062992126,"duration":0.20616311197915138},{"name":"E2","midi":40,"time":325.41653650000126,"velocity":0.8031496062992126,"duration":0.20616311197915138},{"name":"G5","midi":79,"time":325.41653650000126,"velocity":0.8031496062992126,"duration":0.39062484375000395},{"name":"G2","midi":43,"time":325.62486975000127,"velocity":0.8031496062992126,"duration":0.20616311197915138},{"name":"A2","midi":45,"time":325.8332030000013,"velocity":0.8031496062992126,"duration":0.20616311197915138},{"name":"C#5","midi":73,"time":325.8332030000013,"velocity":0.8031496062992126,"duration":0.20616311197915138},{"name":"C#3","midi":49,"time":326.0415362500013,"velocity":0.8031496062992126,"duration":0.20616311197915138},{"name":"E5","midi":76,"time":326.0415362500013,"velocity":0.8031496062992126,"duration":0.20616311197915138},{"name":"D3","midi":50,"time":326.2498695000013,"velocity":0.8031496062992126,"duration":0.20616311197915138},{"name":"F#5","midi":78,"time":326.2498695000013,"velocity":0.8031496062992126,"duration":0.39062484375000395},{"name":"E3","midi":52,"time":326.4582027500013,"velocity":0.8031496062992126,"duration":0.20616311197915138},{"name":"F#3","midi":54,"time":326.6665360000013,"velocity":0.8031496062992126,"duration":0.20616311197915138},{"name":"D5","midi":74,"time":326.6665360000013,"velocity":0.8031496062992126,"duration":0.20616311197915138},{"name":"D3","midi":50,"time":326.8748692500013,"velocity":0.8031496062992126,"duration":0.20616311197915138},{"name":"F#5","midi":78,"time":326.8748692500013,"velocity":0.8031496062992126,"duration":0.20616311197915138},{"name":"G3","midi":55,"time":327.08320250000133,"velocity":0.8031496062992126,"duration":0.20616311197915138},{"name":"B5","midi":83,"time":327.08320250000133,"velocity":0.8031496062992126,"duration":0.41449636197916107},{"name":"E3","midi":52,"time":327.29153575000134,"velocity":0.8031496062992126,"duration":0.20616311197915138},{"name":"F#3","midi":54,"time":327.49986900000135,"velocity":0.8031496062992126,"duration":0.20616311197915138},{"name":"A5","midi":81,"time":327.49986900000135,"velocity":0.8031496062992126,"duration":0.41449636197916107},{"name":"D3","midi":50,"time":327.70820225000136,"velocity":0.8031496062992126,"duration":0.20616311197915138},{"name":"A3","midi":57,"time":327.9165355000014,"velocity":0.8031496062992126,"duration":0.41449636197916107},{"name":"G5","midi":79,"time":327.9165355000014,"velocity":0.8031496062992126,"duration":0.20616311197915138},{"name":"F#5","midi":78,"time":328.1248687500014,"velocity":0.8031496062992126,"duration":0.20616311197915138},{"name":"A2","midi":45,"time":328.3332020000014,"velocity":0.8031496062992126,"duration":0.41449636197916107},{"name":"G5","midi":79,"time":328.3332020000014,"velocity":0.8031496062992126,"duration":0.20616311197915138},{"name":"E5","midi":76,"time":328.5415352500014,"velocity":0.8031496062992126,"duration":0.20616311197915138},{"name":"D3","midi":50,"time":328.7498685000014,"velocity":0.8031496062992126,"duration":0.20616311197915138},{"name":"D5","midi":74,"time":328.7498685000014,"velocity":0.8031496062992126,"duration":0.8246524479167192},{"name":"A2","midi":45,"time":328.9582017500014,"velocity":0.8031496062992126,"duration":0.20616311197915138},{"name":"F#2","midi":42,"time":329.16653500000143,"velocity":0.8031496062992126,"duration":0.20616311197915138},{"name":"A2","midi":45,"time":329.37486825000144,"velocity":0.8031496062992126,"duration":0.20616311197920822},{"name":"D2","midi":38,"time":329.5832015000015,"velocity":0.8031496062992126,"duration":0.4123262239583596},{"name":"A5","midi":81,"time":329.9998680000015,"velocity":0.8031496062992126,"duration":0.20616311197915138},{"name":"F#5","midi":78,"time":330.20820125000154,"velocity":0.8031496062992126,"duration":0.20616311197915138},{"name":"D5","midi":74,"time":330.41653450000155,"velocity":0.8031496062992126,"duration":0.6228296119791707},{"name":"D4","midi":62,"time":330.62486775000156,"velocity":0.8031496062992126,"duration":0.20616311197915138},{"name":"A3","midi":57,"time":330.83320100000157,"velocity":0.8031496062992126,"duration":0.20616311197915138},{"name":"F#3","midi":54,"time":331.0415342500016,"velocity":0.8031496062992126,"duration":0.20616311197915138},{"name":"E5","midi":76,"time":331.0415342500016,"velocity":0.8031496062992126,"duration":0.10199648697914654},{"name":"F#5","midi":78,"time":331.1457008750016,"velocity":0.8031496062992126,"duration":0.10199648697914654},{"name":"D3","midi":50,"time":331.2498675000016,"velocity":0.8031496062992126,"duration":0.20616311197915138},{"name":"G5","midi":79,"time":331.2498675000016,"velocity":0.8031496062992126,"duration":0.10199648697914654},{"name":"F#5","midi":78,"time":331.3540341250016,"velocity":0.8031496062992126,"duration":0.10199648697914654},{"name":"A3","midi":57,"time":331.4582007500016,"velocity":0.8031496062992126,"duration":0.20616311197915138},{"name":"G5","midi":79,"time":331.4582007500016,"velocity":0.8031496062992126,"duration":0.10199648697914654},{"name":"F#5","midi":78,"time":331.5623673750016,"velocity":0.8031496062992126,"duration":0.10199648697914654},{"name":"F#3","midi":54,"time":331.6665340000016,"velocity":0.8031496062992126,"duration":0.20616311197915138},{"name":"G5","midi":79,"time":331.6665340000016,"velocity":0.8031496062992126,"duration":0.10199648697914654},{"name":"F#5","midi":78,"time":331.7707006250016,"velocity":0.8031496062992126,"duration":0.10199648697914654},{"name":"D3","midi":50,"time":331.8748672500016,"velocity":0.8031496062992126,"duration":0.20616311197915138},{"name":"E5","midi":76,"time":331.8748672500016,"velocity":0.8031496062992126,"duration":0.10199648697914654},{"name":"F#5","midi":78,"time":331.9790338750016,"velocity":0.8031496062992126,"duration":0.10199648697914654},{"name":"B2","midi":47,"time":332.0832005000016,"velocity":0.8031496062992126,"duration":0.20616311197915138},{"name":"G5","midi":79,"time":332.0832005000016,"velocity":0.8031496062992126,"duration":1.1718745312500687},{"name":"B3","midi":59,"time":332.29153375000163,"velocity":0.8031496062992126,"duration":0.20616311197915138},{"name":"G3","midi":55,"time":332.49986700000164,"velocity":0.8031496062992126,"duration":0.20616311197915138},{"name":"D3","midi":50,"time":332.70820025000165,"velocity":0.8031496062992126,"duration":0.20616311197915138},{"name":"B2","midi":47,"time":332.91653350000166,"velocity":0.8031496062992126,"duration":0.20616311197915138},{"name":"D3","midi":50,"time":333.1248667500017,"velocity":0.8031496062992126,"duration":0.20616311197920822},{"name":"B2","midi":47,"time":333.33320000000174,"velocity":0.8031496062992126,"duration":0.20616311197915138},{"name":"D5","midi":74,"time":333.33320000000174,"velocity":0.8031496062992126,"duration":0.20616311197915138},{"name":"G2","midi":43,"time":333.54153325000175,"velocity":0.8031496062992126,"duration":0.20616311197915138},{"name":"G5","midi":79,"time":333.54153325000175,"velocity":0.8031496062992126,"duration":0.20616311197915138},{"name":"A2","midi":45,"time":333.74986650000176,"velocity":0.8031496062992126,"duration":0.20616311197915138},{"name":"C6","midi":84,"time":333.74986650000176,"velocity":0.8031496062992126,"duration":0.39062484375000395},{"name":"C3","midi":48,"time":333.95819975000177,"velocity":0.8031496062992126,"duration":0.20616311197915138},{"name":"A2","midi":45,"time":334.1665330000018,"velocity":0.8031496062992126,"duration":0.20616311197915138},{"name":"D#5","midi":75,"time":334.1665330000018,"velocity":0.8031496062992126,"duration":0.20616311197915138},{"name":"F#2","midi":42,"time":334.3748662500018,"velocity":0.8031496062992126,"duration":0.20616311197915138},{"name":"F#5","midi":78,"time":334.3748662500018,"velocity":0.8031496062992126,"duration":0.20616311197915138},{"name":"G2","midi":43,"time":334.5831995000018,"velocity":0.8031496062992126,"duration":0.20616311197915138},{"name":"B5","midi":83,"time":334.5831995000018,"velocity":0.8031496062992126,"duration":0.39062484375000395},{"name":"B2","midi":47,"time":334.7915327500018,"velocity":0.8031496062992126,"duration":0.20616311197915138},{"name":"G2","midi":43,"time":334.9998660000018,"velocity":0.8031496062992126,"duration":0.20616311197915138},{"name":"E5","midi":76,"time":334.9998660000018,"velocity":0.8031496062992126,"duration":0.20616311197915138},{"name":"E2","midi":40,"time":335.2081992500018,"velocity":0.8031496062992126,"duration":0.20616311197915138},{"name":"G5","midi":79,"time":335.2081992500018,"velocity":0.8031496062992126,"duration":0.20616311197915138},{"name":"B2","midi":47,"time":335.41653250000184,"velocity":0.8031496062992126,"duration":0.41449636197916107},{"name":"F#5","midi":78,"time":335.41653250000184,"velocity":0.8031496062992126,"duration":0.20616311197915138},{"name":"E5","midi":76,"time":335.62486575000185,"velocity":0.8031496062992126,"duration":0.20616311197915138},{"name":"C#3","midi":49,"time":335.83319900000185,"velocity":0.8031496062992126,"duration":0.41449636197916107},{"name":"D#5","midi":75,"time":335.83319900000185,"velocity":0.8031496062992126,"duration":0.20616311197915138},{"name":"C#5","midi":73,"time":336.04153225000186,"velocity":0.8031496062992126,"duration":0.20616311197915138},{"name":"D#3","midi":51,"time":336.2498655000019,"velocity":0.8031496062992126,"duration":0.20616311197915138},{"name":"B4","midi":71,"time":336.2498655000019,"velocity":0.8031496062992126,"duration":0.41449636197916107},{"name":"F#3","midi":54,"time":336.4581987500019,"velocity":0.8031496062992126,"duration":0.20616311197915138},{"name":"B3","midi":59,"time":336.6665320000019,"velocity":0.8031496062992126,"duration":0.20616311197915138},{"name":"A5","midi":81,"time":336.6665320000019,"velocity":0.8031496062992126,"duration":0.20616311197915138},{"name":"D#3","midi":51,"time":336.8748652500019,"velocity":0.8031496062992126,"duration":0.20616311197915138},{"name":"F#5","midi":78,"time":336.8748652500019,"velocity":0.8031496062992126,"duration":0.20616311197915138},{"name":"E3","midi":52,"time":337.0831985000019,"velocity":0.8031496062992126,"duration":0.20616311197915138},{"name":"B4","midi":71,"time":337.0831985000019,"velocity":0.8031496062992126,"duration":0.39062484375000395},{"name":"G3","midi":55,"time":337.2915317500019,"velocity":0.8031496062992126,"duration":0.20616311197915138},{"name":"B3","midi":59,"time":337.49986500000193,"velocity":0.8031496062992126,"duration":0.20616311197915138},{"name":"G5","midi":79,"time":337.49986500000193,"velocity":0.8031496062992126,"duration":0.20616311197915138},{"name":"D3","midi":50,"time":337.70819825000194,"velocity":0.8031496062992126,"duration":0.20616311197915138},{"name":"E5","midi":76,"time":337.70819825000194,"velocity":0.8031496062992126,"duration":0.20616311197915138},{"name":"C#3","midi":49,"time":337.91653150000195,"velocity":0.8031496062992126,"duration":0.20616311197915138},{"name":"A#4","midi":70,"time":337.91653150000195,"velocity":0.8031496062992126,"duration":0.39062484375000395},{"name":"E3","midi":52,"time":338.12486475000196,"velocity":0.8031496062992126,"duration":0.20616311197915138},{"name":"B3","midi":59,"time":338.33319800000197,"velocity":0.8031496062992126,"duration":0.20616311197915138},{"name":"G5","midi":79,"time":338.33319800000197,"velocity":0.8031496062992126,"duration":0.20616311197915138},{"name":"C#3","midi":49,"time":338.541531250002,"velocity":0.8031496062992126,"duration":0.20616311197915138},{"name":"E5","midi":76,"time":338.541531250002,"velocity":0.8031496062992126,"duration":0.20616311197915138},{"name":"D#3","midi":51,"time":338.749864500002,"velocity":0.8031496062992126,"duration":0.20616311197915138},{"name":"A4","midi":69,"time":338.749864500002,"velocity":0.8031496062992126,"duration":0.39062484375000395},{"name":"F#3","midi":54,"time":338.958197750002,"velocity":0.8031496062992126,"duration":0.20616311197915138},{"name":"A3","midi":57,"time":339.166531000002,"velocity":0.8031496062992126,"duration":0.20616311197915138},{"name":"F#5","midi":78,"time":339.166531000002,"velocity":0.8031496062992126,"duration":0.20616311197915138},{"name":"C4","midi":60,"time":339.374864250002,"velocity":0.8031496062992126,"duration":0.20616311197915138},{"name":"D#5","midi":75,"time":339.374864250002,"velocity":0.8031496062992126,"duration":0.20616311197915138},{"name":"B3","midi":59,"time":339.58319750000203,"velocity":0.8031496062992126,"duration":0.20616311197915138},{"name":"G#4","midi":68,"time":339.58319750000203,"velocity":0.8031496062992126,"duration":0.39062484375000395},{"name":"E3","midi":52,"time":339.79153075000204,"velocity":0.8031496062992126,"duration":0.20616311197915138},{"name":"G#3","midi":56,"time":339.99986400000205,"velocity":0.8031496062992126,"duration":0.20616311197915138},{"name":"F5","midi":77,"time":339.99986400000205,"velocity":0.8031496062992126,"duration":0.20616311197915138},{"name":"B3","midi":59,"time":340.20819725000206,"velocity":0.8031496062992126,"duration":0.20616311197915138},{"name":"D#5","midi":75,"time":340.20819725000206,"velocity":0.8031496062992126,"duration":0.1909721458333138},{"name":"C4","midi":60,"time":340.41653050000207,"velocity":0.8031496062992126,"duration":0.20616311197915138},{"name":"E5","midi":76,"time":340.41653050000207,"velocity":0.8031496062992126,"duration":0.41449636197916107},{"name":"E4","midi":64,"time":340.6248637500021,"velocity":0.8031496062992126,"duration":0.20616311197915138},{"name":"C4","midi":60,"time":340.8331970000021,"velocity":0.8031496062992126,"duration":0.20616311197915138},{"name":"F#5","midi":78,"time":340.8331970000021,"velocity":0.8031496062992126,"duration":0.39062484375000395},{"name":"A3","midi":57,"time":341.0415302500021,"velocity":0.8031496062992126,"duration":0.20616311197915138},{"name":"B3","midi":59,"time":341.2498635000021,"velocity":0.8031496062992126,"duration":0.41449636197916107},{"name":"B4","midi":71,"time":341.2498635000021,"velocity":0.8031496062992126,"duration":0.41449636197916107},{"name":"B2","midi":47,"time":341.6665300000021,"velocity":0.8031496062992126,"duration":0.41449636197916107},{"name":"D#5","midi":75,"time":341.6665300000021,"velocity":0.8031496062992126,"duration":0.39062484375000395},{"name":"E3","midi":52,"time":342.08319650000215,"velocity":0.8031496062992126,"duration":0.20616311197915138},{"name":"E5","midi":76,"time":342.08319650000215,"velocity":0.8031496062992126,"duration":0.8246524479167192},{"name":"B2","midi":47,"time":342.29152975000216,"velocity":0.8031496062992126,"duration":0.20616311197915138},{"name":"G2","midi":43,"time":342.49986300000216,"velocity":0.8031496062992126,"duration":0.20616311197915138},{"name":"B2","midi":47,"time":342.7081962500022,"velocity":0.8031496062992126,"duration":0.20616311197920822},{"name":"E2","midi":40,"time":342.91652950000224,"velocity":0.8031496062992126,"duration":0.4123262239583596},{"name":"G5","midi":79,"time":343.33319600000226,"velocity":0.8031496062992126,"duration":0.19531242187497355},{"name":"E5","midi":76,"time":343.5415292500022,"velocity":0.8031496062992126,"duration":0.19531242187497355},{"name":"B4","midi":71,"time":343.74986250000217,"velocity":0.8031496062992126,"duration":0.6228296119791707},{"name":"E4","midi":64,"time":343.9581957500022,"velocity":0.8031496062992126,"duration":0.20616311197915138},{"name":"B3","midi":59,"time":344.1665290000022,"velocity":0.8031496062992126,"duration":0.20616311197915138},{"name":"G3","midi":55,"time":344.3748622500022,"velocity":0.8031496062992126,"duration":0.20616311197915138},{"name":"C5","midi":72,"time":344.3748622500022,"velocity":0.8031496062992126,"duration":0.20616311197915138},{"name":"E3","midi":52,"time":344.5831955000022,"velocity":0.8031496062992126,"duration":0.20616311197915138},{"name":"D5","midi":74,"time":344.5831955000022,"velocity":0.8031496062992126,"duration":0.10199648697914654},{"name":"C5","midi":72,"time":344.6873621250022,"velocity":0.8031496062992126,"duration":0.10199648697914654},{"name":"G3","midi":55,"time":344.7915287500022,"velocity":0.8031496062992126,"duration":0.20616311197915138},{"name":"D5","midi":74,"time":344.7915287500022,"velocity":0.8031496062992126,"duration":0.10199648697914654},{"name":"C5","midi":72,"time":344.8956953750022,"velocity":0.8031496062992126,"duration":0.10199648697914654},{"name":"C3","midi":48,"time":344.9998620000022,"velocity":0.8031496062992126,"duration":0.20616311197915138},{"name":"D5","midi":74,"time":344.9998620000022,"velocity":0.8031496062992126,"duration":0.10199648697914654},{"name":"C5","midi":72,"time":345.10402862500223,"velocity":0.8031496062992126,"duration":0.10199648697914654},{"name":"E3","midi":52,"time":345.20819525000223,"velocity":0.8031496062992126,"duration":0.20616311197915138},{"name":"B4","midi":71,"time":345.20819525000223,"velocity":0.8031496062992126,"duration":0.10199648697914654},{"name":"C5","midi":72,"time":345.31236187500224,"velocity":0.8031496062992126,"duration":0.10199648697914654},{"name":"B2","midi":47,"time":345.41652850000224,"velocity":0.8031496062992126,"duration":0.20616311197915138},{"name":"D5","midi":74,"time":345.41652850000224,"velocity":0.8031496062992126,"duration":0.41449636197916107},{"name":"B3","midi":59,"time":345.62486175000225,"velocity":0.8031496062992126,"duration":0.20616311197915138},{"name":"G3","midi":55,"time":345.83319500000226,"velocity":0.8031496062992126,"duration":0.20616311197915138},{"name":"B4","midi":71,"time":345.83319500000226,"velocity":0.8031496062992126,"duration":0.20616311197915138},{"name":"D3","midi":50,"time":346.0415282500023,"velocity":0.8031496062992126,"duration":0.20616311197915138},{"name":"D5","midi":74,"time":346.0415282500023,"velocity":0.8031496062992126,"duration":0.20616311197915138},{"name":"B2","midi":47,"time":346.2498615000023,"velocity":0.8031496062992126,"duration":0.20616311197915138},{"name":"G5","midi":79,"time":346.2498615000023,"velocity":0.8031496062992126,"duration":0.41449636197916107},{"name":"D3","midi":50,"time":346.4581947500023,"velocity":0.8031496062992126,"duration":0.20616311197915138},{"name":"G2","midi":43,"time":346.6665280000023,"velocity":0.8031496062992126,"duration":0.20616311197915138},{"name":"B5","midi":83,"time":346.6665280000023,"velocity":0.8031496062992126,"duration":0.20616311197915138},{"name":"B2","midi":47,"time":346.8748612500023,"velocity":0.8031496062992126,"duration":0.20616311197915138},{"name":"G5","midi":79,"time":346.8748612500023,"velocity":0.8031496062992126,"duration":0.20616311197915138},{"name":"C3","midi":48,"time":347.0831945000023,"velocity":0.8031496062992126,"duration":0.20616311197915138},{"name":"E5","midi":76,"time":347.0831945000023,"velocity":0.8031496062992126,"duration":0.39062484375000395},{"name":"E3","midi":52,"time":347.29152775000233,"velocity":0.8031496062992126,"duration":0.20616311197915138},{"name":"F3","midi":53,"time":347.49986100000234,"velocity":0.8031496062992126,"duration":0.41449636197916107},{"name":"A4","midi":69,"time":347.49986100000234,"velocity":0.8031496062992126,"duration":0.20616311197915138},{"name":"C5","midi":72,"time":347.70819425000235,"velocity":0.8031496062992126,"duration":0.20616311197915138},{"name":"B2","midi":47,"time":347.91652750000236,"velocity":0.8031496062992126,"duration":0.20616311197915138},{"name":"D5","midi":74,"time":347.91652750000236,"velocity":0.8031496062992126,"duration":0.39062484375000395},{"name":"D3","midi":50,"time":348.12486075000237,"velocity":0.8031496062992126,"duration":0.20616311197915138},{"name":"E3","midi":52,"time":348.3331940000024,"velocity":0.8031496062992126,"duration":0.41449636197916107},{"name":"G#4","midi":68,"time":348.3331940000024,"velocity":0.8031496062992126,"duration":0.20616311197915138},{"name":"B4","midi":71,"time":348.5415272500024,"velocity":0.8031496062992126,"duration":0.20616311197915138},{"name":"A2","midi":45,"time":348.7498605000024,"velocity":0.8031496062992126,"duration":0.20616311197915138},{"name":"C5","midi":72,"time":348.7498605000024,"velocity":0.8031496062992126,"duration":0.41449636197916107},{"name":"C3","midi":48,"time":348.9581937500024,"velocity":0.8031496062992126,"duration":0.20616311197915138},{"name":"E3","midi":52,"time":349.1665270000024,"velocity":0.8031496062992126,"duration":0.20616311197915138},{"name":"B4","midi":71,"time":349.1665270000024,"velocity":0.8031496062992126,"duration":0.20616311197915138},{"name":"G3","midi":55,"time":349.3748602500024,"velocity":0.8031496062992126,"duration":0.20616311197915138},{"name":"C5","midi":72,"time":349.3748602500024,"velocity":0.8031496062992126,"duration":0.20616311197915138},{"name":"F#3","midi":54,"time":349.58319350000244,"velocity":0.8031496062992126,"duration":0.20616311197915138},{"name":"A4","midi":69,"time":349.58319350000244,"velocity":0.8031496062992126,"duration":0.3472220833333495},{"name":"A3","midi":57,"time":349.79152675000245,"velocity":0.8031496062992126,"duration":0.20616311197915138},{"name":"F#3","midi":54,"time":349.99986000000246,"velocity":0.8031496062992126,"duration":0.20616311197915138},{"name":"D5","midi":74,"time":349.99986000000246,"velocity":0.8031496062992126,"duration":0.20616311197915138},{"name":"D3","midi":50,"time":350.20819325000247,"velocity":0.8031496062992126,"duration":0.20616311197915138},{"name":"A4","midi":69,"time":350.20819325000247,"velocity":0.8031496062992126,"duration":0.20616311197915138},{"name":"G3","midi":55,"time":350.4165265000025,"velocity":0.8031496062992126,"duration":0.20616311197915138},{"name":"B4","midi":71,"time":350.4165265000025,"velocity":0.8031496062992126,"duration":0.39062484375000395},{"name":"D3","midi":50,"time":350.6248597500025,"velocity":0.8031496062992126,"duration":0.20616311197915138},{"name":"B2","midi":47,"time":350.8331930000025,"velocity":0.8031496062992126,"duration":0.20616311197915138},{"name":"G4","midi":67,"time":350.8331930000025,"velocity":0.8031496062992126,"duration":0.20616311197915138},{"name":"D3","midi":50,"time":351.0415262500025,"velocity":0.8031496062992126,"duration":0.20616311197915138},{"name":"B4","midi":71,"time":351.0415262500025,"velocity":0.8031496062992126,"duration":0.20616311197915138},{"name":"G2","midi":43,"time":351.2498595000025,"velocity":0.8031496062992126,"duration":0.20616311197915138},{"name":"E5","midi":76,"time":351.2498595000025,"velocity":0.8031496062992126,"duration":0.39062484375000395},{"name":"B2","midi":47,"time":351.4581927500025,"velocity":0.8031496062992126,"duration":0.20616311197915138},{"name":"E3","midi":52,"time":351.66652600000253,"velocity":0.8031496062992126,"duration":0.20616311197915138},{"name":"G5","midi":79,"time":351.66652600000253,"velocity":0.8031496062992126,"duration":0.20616311197915138},{"name":"G3","midi":55,"time":351.87485925000254,"velocity":0.8031496062992126,"duration":0.20616311197915138},{"name":"B4","midi":71,"time":351.87485925000254,"velocity":0.8031496062992126,"duration":0.20616311197915138},{"name":"A3","midi":57,"time":352.08319250000255,"velocity":0.8031496062992126,"duration":0.20616311197915138},{"name":"C5","midi":72,"time":352.08319250000255,"velocity":0.8031496062992126,"duration":0.39062484375000395},{"name":"E3","midi":52,"time":352.29152575000256,"velocity":0.8031496062992126,"duration":0.20616311197915138},{"name":"C3","midi":48,"time":352.4998590000026,"velocity":0.8031496062992126,"duration":0.20616311197915138},{"name":"A4","midi":69,"time":352.4998590000026,"velocity":0.8031496062992126,"duration":0.20616311197915138},{"name":"E3","midi":52,"time":352.7081922500026,"velocity":0.8031496062992126,"duration":0.20616311197915138},{"name":"C5","midi":72,"time":352.7081922500026,"velocity":0.8031496062992126,"duration":0.20616311197915138},{"name":"A2","midi":45,"time":352.9165255000026,"velocity":0.8031496062992126,"duration":0.20616311197915138},{"name":"F#5","midi":78,"time":352.9165255000026,"velocity":0.8031496062992126,"duration":0.39062484375000395},{"name":"C3","midi":48,"time":353.1248587500026,"velocity":0.8031496062992126,"duration":0.20616311197915138},{"name":"F#3","midi":54,"time":353.3331920000026,"velocity":0.8031496062992126,"duration":0.20616311197915138},{"name":"A5","midi":81,"time":353.3331920000026,"velocity":0.8031496062992126,"duration":0.20616311197915138},{"name":"A3","midi":57,"time":353.5415252500026,"velocity":0.8031496062992126,"duration":0.20616311197915138},{"name":"C5","midi":72,"time":353.5415252500026,"velocity":0.8031496062992126,"duration":0.20616311197915138},{"name":"B3","midi":59,"time":353.74985850000263,"velocity":0.8031496062992126,"duration":0.20616311197915138},{"name":"D5","midi":74,"time":353.74985850000263,"velocity":0.8031496062992126,"duration":0.39062484375000395},{"name":"G3","midi":55,"time":353.95819175000264,"velocity":0.8031496062992126,"duration":0.20616311197915138},{"name":"D3","midi":50,"time":354.16652500000265,"velocity":0.8031496062992126,"duration":0.20616311197915138},{"name":"B4","midi":71,"time":354.16652500000265,"velocity":0.8031496062992126,"duration":0.20616311197915138},{"name":"G3","midi":55,"time":354.37485825000266,"velocity":0.8031496062992126,"duration":0.20616311197915138},{"name":"D5","midi":74,"time":354.37485825000266,"velocity":0.8031496062992126,"duration":0.20616311197915138},{"name":"B2","midi":47,"time":354.58319150000267,"velocity":0.8031496062992126,"duration":0.20616311197915138},{"name":"G5","midi":79,"time":354.58319150000267,"velocity":0.8031496062992126,"duration":0.39062484375000395},{"name":"D3","midi":50,"time":354.7915247500027,"velocity":0.8031496062992126,"duration":0.20616311197915138},{"name":"G3","midi":55,"time":354.9998580000027,"velocity":0.8031496062992126,"duration":0.20616311197915138},{"name":"B5","midi":83,"time":354.9998580000027,"velocity":0.8031496062992126,"duration":0.20616311197915138},{"name":"B3","midi":59,"time":355.2081912500027,"velocity":0.8031496062992126,"duration":0.20616311197915138},{"name":"G5","midi":79,"time":355.2081912500027,"velocity":0.8031496062992126,"duration":0.20616311197915138},{"name":"D4","midi":62,"time":355.4165245000027,"velocity":0.8031496062992126,"duration":0.20616311197915138},{"name":"A5","midi":81,"time":355.4165245000027,"velocity":0.8031496062992126,"duration":0.20616311197915138},{"name":"E4","midi":64,"time":355.6248577500027,"velocity":0.8031496062992126,"duration":0.20616311197915138},{"name":"G5","midi":79,"time":355.6248577500027,"velocity":0.8031496062992126,"duration":0.20616311197915138},{"name":"D4","midi":62,"time":355.8331910000027,"velocity":0.8031496062992126,"duration":0.20616311197915138},{"name":"F#5","midi":78,"time":355.8331910000027,"velocity":0.8031496062992126,"duration":0.20616311197915138},{"name":"C4","midi":60,"time":356.04152425000274,"velocity":0.8031496062992126,"duration":0.20616311197915138},{"name":"E5","midi":76,"time":356.04152425000274,"velocity":0.8031496062992126,"duration":0.20616311197915138},{"name":"B3","midi":59,"time":356.24985750000275,"velocity":0.8031496062992126,"duration":0.20616311197915138},{"name":"D5","midi":74,"time":356.24985750000275,"velocity":0.8031496062992126,"duration":0.41449636197916107},{"name":"D4","midi":62,"time":356.45819075000276,"velocity":0.8031496062992126,"duration":0.20616311197915138},{"name":"B3","midi":59,"time":356.66652400000277,"velocity":0.8031496062992126,"duration":0.20616311197915138},{"name":"G5","midi":79,"time":356.66652400000277,"velocity":0.8031496062992126,"duration":0.20616311197915138},{"name":"G3","midi":55,"time":356.8748572500028,"velocity":0.8031496062992126,"duration":0.20616311197915138},{"name":"D5","midi":74,"time":356.8748572500028,"velocity":0.8031496062992126,"duration":0.20616311197915138},{"name":"C3","midi":48,"time":357.0831905000028,"velocity":0.8031496062992126,"duration":0.20616311197915138},{"name":"E5","midi":76,"time":357.0831905000028,"velocity":0.8031496062992126,"duration":0.39062484375000395},{"name":"E3","midi":52,"time":357.2915237500028,"velocity":0.8031496062992126,"duration":0.20616311197915138},{"name":"F#3","midi":54,"time":357.4998570000028,"velocity":0.8031496062992126,"duration":0.20616311197915138},{"name":"A4","midi":69,"time":357.4998570000028,"velocity":0.8031496062992126,"duration":0.20616311197915138},{"name":"A3","midi":57,"time":357.7081902500028,"velocity":0.8031496062992126,"duration":0.20616311197915138},{"name":"C5","midi":72,"time":357.7081902500028,"velocity":0.8031496062992126,"duration":0.20616311197915138},{"name":"B2","midi":47,"time":357.9165235000028,"velocity":0.8031496062992126,"duration":0.20616311197915138},{"name":"D5","midi":74,"time":357.9165235000028,"velocity":0.8031496062992126,"duration":0.39062484375000395},{"name":"D3","midi":50,"time":358.12485675000283,"velocity":0.8031496062992126,"duration":0.20616311197915138},{"name":"G3","midi":55,"time":358.33319000000284,"velocity":0.8031496062992126,"duration":0.41449636197916107},{"name":"E4","midi":64,"time":358.33319000000284,"velocity":0.8031496062992126,"duration":0.20616311197915138},{"name":"G4","midi":67,"time":358.54152325000285,"velocity":0.8031496062992126,"duration":0.20616311197915138},{"name":"A2","midi":45,"time":358.74985650000286,"velocity":0.8031496062992126,"duration":0.20616311197915138},{"name":"C5","midi":72,"time":358.74985650000286,"velocity":0.8031496062992126,"duration":0.39062484375000395},{"name":"C3","midi":48,"time":358.9581897500029,"velocity":0.8031496062992126,"duration":0.20616311197915138},{"name":"D3","midi":50,"time":359.1665230000029,"velocity":0.8031496062992126,"duration":0.20616311197915138},{"name":"F#4","midi":66,"time":359.1665230000029,"velocity":0.8031496062992126,"duration":0.20616311197915138},{"name":"F#3","midi":54,"time":359.3748562500029,"velocity":0.8031496062992126,"duration":0.20616311197915138},{"name":"A4","midi":69,"time":359.3748562500029,"velocity":0.8031496062992126,"duration":0.20616311197915138},{"name":"B4","midi":71,"time":359.5831895000029,"velocity":0.8031496062992126,"duration":0.4014755338541818},{"name":"G3","midi":55,"time":359.5831895000029,"velocity":0.8031496062992126,"duration":0.21050338802081114},{"name":"D3","midi":50,"time":359.7958630260446,"velocity":0.8031496062992126,"duration":0.210503388020868},{"name":"B2","midi":47,"time":360.0107066901071,"velocity":0.8031496062992126,"duration":0.21484366406252775},{"name":"G4","midi":67,"time":360.0107066901071,"velocity":0.8031496062992126,"duration":0.21484366406252775},{"name":"D3","midi":50,"time":360.2298906302113,"velocity":0.8031496062992126,"duration":0.21484366406252775},{"name":"B4","midi":71,"time":360.2298906302113,"velocity":0.8031496062992126,"duration":0.21484366406252775},{"name":"D5","midi":74,"time":360.45124470833633,"velocity":0.8031496062992126,"duration":0.2191839401041875},{"name":"G3","midi":55,"time":360.45124470833633,"velocity":0.8031496062992126,"duration":0.2191839401041875},{"name":"B4","midi":71,"time":360.67693906250304,"velocity":0.8031496062992126,"duration":0.2191839401041875},{"name":"D3","midi":50,"time":360.67693906250304,"velocity":0.8031496062992126,"duration":0.2191839401041875},{"name":"B2","midi":47,"time":360.90480355469055,"velocity":0.8031496062992126,"duration":0.22569435416664874},{"name":"G5","midi":79,"time":360.90480355469055,"velocity":0.8031496062992126,"duration":0.4622393984374753},{"name":"G2","midi":43,"time":361.1370083229197,"velocity":0.8031496062992126,"duration":0.22569435416664874},{"name":"C5","midi":72,"time":361.37355336719054,"velocity":0.8031496062992126,"duration":0.2322047682291668},{"name":"D3","midi":50,"time":361.37355336719054,"velocity":0.8031496062992126,"duration":0.47526022656251143},{"name":"B4","midi":71,"time":361.6122685494822,"velocity":0.8031496062992126,"duration":0.2322047682291668},{"name":"A4","midi":69,"time":361.85532400781557,"velocity":0.8031496062992126,"duration":0.2452255963541461},{"name":"D2","midi":38,"time":361.85532400781557,"velocity":0.8031496062992126,"duration":0.50130188281247},{"name":"G4","midi":67,"time":362.1048898802114,"velocity":0.8031496062992126,"duration":0.2452255963541461},{"name":"G2","midi":43,"time":362.37615713281554,"velocity":0.8031496062992126,"duration":1.5711799270833353},{"name":"G4","midi":67,"time":362.37615713281554,"velocity":0.8031496062992126,"duration":1.5711799270833353},{"name":"D5","midi":74,"time":364.99985400000304,"velocity":0.8031496062992126,"duration":0.1388888333333398},{"name":"B4","midi":71,"time":365.1387428333364,"velocity":0.8031496062992126,"duration":0.3472220833333495},{"name":"A4","midi":69,"time":365.48596491666973,"velocity":0.8031496062992126,"duration":0.1388888333333398},{"name":"G4","midi":67,"time":365.62485375000307,"velocity":0.8031496062992126,"duration":1.6644958619791623},{"name":"D4","midi":62,"time":366.24985350000304,"velocity":0.8031496062992126,"duration":0.1388888333333398},{"name":"B3","midi":59,"time":366.3887423333364,"velocity":0.8031496062992126,"duration":0.3472220833333495},{"name":"A3","midi":57,"time":366.73596441666973,"velocity":0.8031496062992126,"duration":0.1388888333333398},{"name":"G3","midi":55,"time":366.87485325000307,"velocity":0.8031496062992126,"duration":0.6076386458333332},{"name":"A4","midi":69,"time":367.49985300000304,"velocity":0.8031496062992126,"duration":0.20616311197915138},{"name":"F#3","midi":54,"time":367.49985300000304,"velocity":0.8031496062992126,"duration":0.20616311197915138},{"name":"B4","midi":71,"time":367.70818625000305,"velocity":0.8031496062992126,"duration":0.41449636197916107},{"name":"G3","midi":55,"time":367.70818625000305,"velocity":0.8031496062992126,"duration":0.10199648697914654},{"name":"B3","midi":59,"time":367.81235287500306,"velocity":0.8031496062992126,"duration":0.10199648697914654},{"name":"D4","midi":62,"time":367.91651950000306,"velocity":0.8031496062992126,"duration":0.10199648697914654},{"name":"G4","midi":67,"time":368.02068612500307,"velocity":0.8031496062992126,"duration":0.10199648697914654},{"name":"A4","midi":69,"time":368.1248527500031,"velocity":0.8031496062992126,"duration":1.872829111979172},{"name":"F#4","midi":66,"time":368.1248527500031,"velocity":0.8031496062992126,"duration":1.872829111979172},{"name":"A2","midi":45,"time":368.74985250000304,"velocity":0.8031496062992126,"duration":0.1388888333333398},{"name":"F#2","midi":42,"time":368.8887413333364,"velocity":0.8031496062992126,"duration":0.3472220833333495},{"name":"E2","midi":40,"time":369.23596341666973,"velocity":0.8031496062992126,"duration":0.1388888333333398},{"name":"D2","midi":38,"time":369.3748522500031,"velocity":0.8031496062992126,"duration":0.6076386458333332},{"name":"B4","midi":71,"time":369.9998520000031,"velocity":0.8031496062992126,"duration":0.20616311197915138},{"name":"G4","midi":67,"time":369.9998520000031,"velocity":0.8031496062992126,"duration":0.20616311197915138},{"name":"D3","midi":50,"time":369.9998520000031,"velocity":0.8031496062992126,"duration":0.20616311197915138},{"name":"C5","midi":72,"time":370.2081852500031,"velocity":0.8031496062992126,"duration":0.41449636197916107},{"name":"A4","midi":69,"time":370.2081852500031,"velocity":0.8031496062992126,"duration":0.41449636197916107},{"name":"C3","midi":48,"time":370.2081852500031,"velocity":0.8031496062992126,"duration":0.41449636197916107},{"name":"D5","midi":74,"time":370.62485175000313,"velocity":0.8031496062992126,"duration":0.6076386458333332},{"name":"B2","midi":47,"time":370.62485175000313,"velocity":0.8031496062992126,"duration":0.41449636197916107},{"name":"G4","midi":67,"time":371.04151825000315,"velocity":0.8031496062992126,"duration":1.247829361979143},{"name":"E3","midi":52,"time":371.04151825000315,"velocity":0.8031496062992126,"duration":0.4144963619791042},{"name":"G5","midi":79,"time":371.2498515000031,"velocity":0.8031496062992126,"duration":0.20616311197915138},{"name":"E5","midi":76,"time":371.4581847500031,"velocity":0.8031496062992126,"duration":0.41449636197916107},{"name":"C3","midi":48,"time":371.4581847500031,"velocity":0.8031496062992126,"duration":0.41449636197916107},{"name":"D5","midi":74,"time":371.87485125000313,"velocity":0.8031496062992126,"duration":0.10199648697914654},{"name":"A2","midi":45,"time":371.87485125000313,"velocity":0.8031496062992126,"duration":0.20616311197915138},{"name":"C5","midi":72,"time":371.97901787500314,"velocity":0.8031496062992126,"duration":0.10199648697914654},{"name":"D5","midi":74,"time":372.08318450000314,"velocity":0.8031496062992126,"duration":0.10199648697914654},{"name":"C3","midi":48,"time":372.08318450000314,"velocity":0.8031496062992126,"duration":0.20616311197915138},{"name":"C5","midi":72,"time":372.18735112500315,"velocity":0.8031496062992126,"duration":0.303819322916695},{"name":"F#4","midi":66,"time":372.29151775000315,"velocity":0.8031496062992126,"duration":0.824652447916776},{"name":"B2","midi":47,"time":372.29151775000315,"velocity":0.8031496062992126,"duration":0.20616311197920822},{"name":"B4","midi":71,"time":372.4998510000032,"velocity":0.8031496062992126,"duration":0.20616311197915138},{"name":"A2","midi":45,"time":372.4998510000032,"velocity":0.8031496062992126,"duration":0.20616311197915138},{"name":"C5","midi":72,"time":372.7081842500032,"velocity":0.8031496062992126,"duration":0.20616311197915138},{"name":"D3","midi":50,"time":372.7081842500032,"velocity":0.8031496062992126,"duration":0.20616311197915138},{"name":"A4","midi":69,"time":372.91651750000324,"velocity":0.8031496062992126,"duration":0.20616311197920822},{"name":"D2","midi":38,"time":372.91651750000324,"velocity":0.8031496062992126,"duration":0.20616311197920822},{"name":"C5","midi":72,"time":373.1248507500033,"velocity":0.8031496062992126,"duration":0.10199648697914654},{"name":"G4","midi":67,"time":373.1248507500033,"velocity":0.8031496062992126,"duration":0.8246524479167192},{"name":"G2","midi":43,"time":373.1248507500033,"velocity":0.8031496062992126,"duration":0.41449636197916107},{"name":"B4","midi":71,"time":373.2290173750033,"velocity":0.8031496062992126,"duration":0.10199648697914654},{"name":"C5","midi":72,"time":373.3331840000033,"velocity":0.8031496062992126,"duration":0.10199648697914654},{"name":"B4","midi":71,"time":373.4373506250033,"velocity":0.8031496062992126,"duration":0.10199648697914654},{"name":"C5","midi":72,"time":373.5415172500033,"velocity":0.8031496062992126,"duration":0.10199648697914654},{"name":"B2","midi":47,"time":373.5415172500033,"velocity":0.8031496062992126,"duration":0.4144963619792179},{"name":"B4","midi":71,"time":373.64568387500333,"velocity":0.8031496062992126,"duration":0.10199648697914654},{"name":"A4","midi":69,"time":373.74985050000333,"velocity":0.8031496062992126,"duration":0.20616311197920822},{"name":"G4","midi":67,"time":373.9581837500034,"velocity":0.8031496062992126,"duration":0.41449636197916107},{"name":"D3","midi":50,"time":373.9581837500034,"velocity":0.8031496062992126,"duration":0.41449636197916107},{"name":"B3","midi":59,"time":374.3748502500034,"velocity":0.8031496062992126,"duration":0.41449636197916107},{"name":"G4","midi":67,"time":374.3748502500034,"velocity":0.8031496062992126,"duration":0.6076386458333332},{"name":"D4","midi":62,"time":374.3748502500034,"velocity":0.8031496062992126,"duration":0.41449636197916107},{"name":"G3","midi":55,"time":374.3748502500034,"velocity":0.8031496062992126,"duration":0.8246524479166624},{"name":"B4","midi":71,"time":374.9998500000034,"velocity":0.8031496062992126,"duration":0.20616311197920822},{"name":"D5","midi":74,"time":375.20818325000346,"velocity":0.8031496062992126,"duration":0.41449636197916107},{"name":"G5","midi":79,"time":375.6248497500035,"velocity":0.8031496062992126,"duration":0.10199648697914654},{"name":"F#5","midi":78,"time":375.7290163750035,"velocity":0.8031496062992126,"duration":0.10199648697914654},{"name":"G2","midi":43,"time":375.7290163750035,"velocity":0.8031496062992126,"duration":0.10199648697914654},{"name":"G5","midi":79,"time":375.8331830000035,"velocity":0.8031496062992126,"duration":0.41449636197916107},{"name":"A2","midi":45,"time":375.8331830000035,"velocity":0.8031496062992126,"duration":0.10199648697914654},{"name":"B2","midi":47,"time":375.9373496250035,"velocity":0.8031496062992126,"duration":0.10199648697914654},{"name":"C3","midi":48,"time":376.0415162500035,"velocity":0.8031496062992126,"duration":0.10199648697914654},{"name":"D3","midi":50,"time":376.1456828750035,"velocity":0.8031496062992126,"duration":0.10199648697914654},{"name":"A5","midi":81,"time":376.2498495000035,"velocity":0.8031496062992126,"duration":0.20616311197915138},{"name":"E3","midi":52,"time":376.2498495000035,"velocity":0.8031496062992126,"duration":0.10199648697914654},{"name":"F#3","midi":54,"time":376.3540161250035,"velocity":0.8031496062992126,"duration":0.10199648697914654},{"name":"B5","midi":83,"time":376.4581827500035,"velocity":0.8031496062992126,"duration":0.41449636197916107},{"name":"G3","midi":55,"time":376.4581827500035,"velocity":0.8031496062992126,"duration":0.10199648697914654},{"name":"B3","midi":59,"time":376.5623493750035,"velocity":0.8031496062992126,"duration":0.10199648697914654},{"name":"A3","midi":57,"time":376.6665160000035,"velocity":0.8031496062992126,"duration":0.10199648697914654},{"name":"G3","midi":55,"time":376.77068262500353,"velocity":0.8031496062992126,"duration":0.10199648697914654},{"name":"E4","midi":64,"time":376.87484925000354,"velocity":0.8031496062992126,"duration":0.8246524479167192},{"name":"A4","midi":69,"time":376.87484925000354,"velocity":0.8031496062992126,"duration":0.8246524479167192},{"name":"D5","midi":74,"time":376.87484925000354,"velocity":0.8031496062992126,"duration":0.20616311197915138},{"name":"G3","midi":55,"time":376.87484925000354,"velocity":0.8031496062992126,"duration":0.5186629869791659},{"name":"C#5","midi":73,"time":377.08318250000355,"velocity":0.8031496062992126,"duration":0.41449636197916107},{"name":"B3","midi":59,"time":377.39568237500356,"velocity":0.8031496062992126,"duration":0.10199648697914654},{"name":"E5","midi":76,"time":377.49984900000356,"velocity":0.8031496062992126,"duration":0.20616311197920822},{"name":"A3","midi":57,"time":377.49984900000356,"velocity":0.8031496062992126,"duration":0.10199648697914654},{"name":"G3","midi":55,"time":377.60401562500357,"velocity":0.8031496062992126,"duration":0.10199648697920338},{"name":"A5","midi":81,"time":377.70818225000363,"velocity":0.8031496062992126,"duration":0.41449636197916107},{"name":"F#3","midi":54,"time":377.70818225000363,"velocity":0.8031496062992126,"duration":0.10199648697914654},{"name":"G3","midi":55,"time":377.81234887500364,"velocity":0.8031496062992126,"duration":0.10199648697914654},{"name":"E3","midi":52,"time":377.91651550000364,"velocity":0.8031496062992126,"duration":0.20616311197915138},{"name":"D#5","midi":75,"time":378.12484875000365,"velocity":0.8031496062992126,"duration":0.10199648697914654},{"name":"F#3","midi":54,"time":378.12484875000365,"velocity":0.8031496062992126,"duration":0.41449636197916107},{"name":"E5","midi":76,"time":378.22901537500366,"velocity":0.8031496062992126,"duration":0.10199648697914654},{"name":"F#5","midi":78,"time":378.33318200000366,"velocity":0.8031496062992126,"duration":0.10199648697914654},{"name":"G5","midi":79,"time":378.43734862500366,"velocity":0.8031496062992126,"duration":0.10199648697914654},{"name":"A5","midi":81,"time":378.54151525000367,"velocity":0.8031496062992126,"duration":0.10199648697914654},{"name":"D#3","midi":51,"time":378.54151525000367,"velocity":0.8031496062992126,"duration":0.41449636197916107},{"name":"C6","midi":84,"time":378.6456818750037,"velocity":0.8031496062992126,"duration":0.10199648697914654},{"name":"B5","midi":83,"time":378.7498485000037,"velocity":0.8031496062992126,"duration":0.10199648697914654},{"name":"A5","midi":81,"time":378.8540151250037,"velocity":0.8031496062992126,"duration":0.10199648697914654},{"name":"G5","midi":79,"time":378.9581817500037,"velocity":0.8031496062992126,"duration":0.10199648697914654},{"name":"B2","midi":47,"time":378.9581817500037,"velocity":0.8031496062992126,"duration":0.4340276041666584},{"name":"A5","midi":81,"time":379.0623483750037,"velocity":0.8031496062992126,"duration":0.10199648697914654},{"name":"F#5","midi":78,"time":379.1665150000037,"velocity":0.8031496062992126,"duration":0.20616311197915138},{"name":"G5","midi":79,"time":379.3748482500037,"velocity":0.8031496062992126,"duration":1.8663186979167108},{"name":"E3","midi":52,"time":379.47901487500366,"velocity":0.8031496062992126,"duration":0.10199648697914654},{"name":"G3","midi":55,"time":379.58318150000366,"velocity":0.8031496062992126,"duration":0.10199648697914654},{"name":"F#3","midi":54,"time":379.68734812500367,"velocity":0.8031496062992126,"duration":0.10199648697914654},{"name":"E3","midi":52,"time":379.79151475000367,"velocity":0.8031496062992126,"duration":0.10199648697914654},{"name":"D3","midi":50,"time":379.8956813750037,"velocity":0.8031496062992126,"duration":0.10199648697914654},{"name":"E5","midi":76,"time":379.9998480000037,"velocity":0.8031496062992126,"duration":0.20616311197915138},{"name":"C#3","midi":49,"time":379.9998480000037,"velocity":0.8031496062992126,"duration":0.10199648697914654},{"name":"D3","midi":50,"time":380.1040146250037,"velocity":0.8031496062992126,"duration":0.10199648697914654},{"name":"C#5","midi":73,"time":380.2081812500037,"velocity":0.8031496062992126,"duration":0.41449636197916107},{"name":"E3","midi":52,"time":380.2081812500037,"velocity":0.8031496062992126,"duration":0.10199648697914654},{"name":"C#3","midi":49,"time":380.3123478750037,"velocity":0.8031496062992126,"duration":0.10199648697914654},{"name":"D3","midi":50,"time":380.4165145000037,"velocity":0.8031496062992126,"duration":0.10199648697914654},{"name":"E3","midi":52,"time":380.5206811250037,"velocity":0.8031496062992126,"duration":0.10199648697914654},{"name":"B4","midi":71,"time":380.6248477500037,"velocity":0.8031496062992126,"duration":0.20616311197915138},{"name":"F#2","midi":42,"time":380.6248477500037,"velocity":0.8031496062992126,"duration":0.5186629869791659},{"name":"A4","midi":69,"time":380.8331810000037,"velocity":0.8031496062992126,"duration":1.0416662500001053},{"name":"B2","midi":47,"time":381.14568087500373,"velocity":0.8031496062992126,"duration":0.10199648697920338},{"name":"E5","midi":76,"time":381.2498475000038,"velocity":0.8031496062992126,"duration":0.20616311197915138},{"name":"C#3","midi":49,"time":381.2498475000038,"velocity":0.8031496062992126,"duration":0.20616311197915138},{"name":"F#5","midi":78,"time":381.4581807500038,"velocity":0.8031496062992126,"duration":0.41449636197916107},{"name":"D3","midi":50,"time":381.4581807500038,"velocity":0.8031496062992126,"duration":0.20616311197915138},{"name":"E3","midi":52,"time":381.6665140000038,"velocity":0.8031496062992126,"duration":0.20616311197915138},{"name":"G4","midi":67,"time":381.8748472500038,"velocity":0.8031496062992126,"duration":0.303819322916695},{"name":"A4","midi":69,"time":381.8748472500038,"velocity":0.8031496062992126,"duration":0.303819322916695},{"name":"F#3","midi":54,"time":381.8748472500038,"velocity":0.8031496062992126,"duration":0.4144963619792179},{"name":"B4","midi":71,"time":382.2915137500039,"velocity":0.8031496062992126,"duration":0.303819322916695},{"name":"F#4","midi":66,"time":382.2915137500039,"velocity":0.8031496062992126,"duration":0.303819322916695},{"name":"G2","midi":43,"time":382.2915137500039,"velocity":0.8031496062992126,"duration":0.4144963619792179},{"name":"E4","midi":64,"time":382.708180250004,"velocity":0.8031496062992126,"duration":0.303819322916695},{"name":"C#5","midi":73,"time":382.708180250004,"velocity":0.8031496062992126,"duration":0.303819322916695},{"name":"A2","midi":45,"time":382.708180250004,"velocity":0.8031496062992126,"duration":0.4144963619792179},{"name":"A4","midi":69,"time":383.12484675000405,"velocity":0.8031496062992126,"duration":1.6644958619792192},{"name":"D5","midi":74,"time":383.12484675000405,"velocity":0.8031496062992126,"duration":1.6644958619792192},{"name":"F#4","midi":66,"time":383.12484675000405,"velocity":0.8031496062992126,"duration":1.6644958619792192},{"name":"D3","midi":50,"time":383.12484675000405,"velocity":0.8031496062992126,"duration":0.5642358854166787},{"name":"A2","midi":45,"time":383.7498465000041,"velocity":0.8031496062992126,"duration":0.17361104166667474},{"name":"F#2","midi":42,"time":383.92345754167076,"velocity":0.8031496062992126,"duration":0.4557289843750141},{"name":"D2","midi":38,"time":384.3748462500041,"velocity":0.8031496062992126,"duration":0.8246524479166624},{"name":"A5","midi":81,"time":384.9998460000041,"velocity":0.8031496062992126,"duration":0.1388888333333398},{"name":"F#5","midi":78,"time":385.1387348333374,"velocity":0.8031496062992126,"duration":0.41449636197916107},{"name":"E5","midi":76,"time":385.55540133333744,"velocity":0.8031496062992126,"duration":0.20616311197915138},{"name":"D5","midi":74,"time":385.7528838932333,"velocity":0.8031496062992126,"duration":1.6644958619791623},{"name":"A4","midi":69,"time":386.2498455000041,"velocity":0.8031496062992126,"duration":0.18446173177085257},{"name":"F#4","midi":66,"time":386.4126058515666,"velocity":0.8031496062992126,"duration":1.0416662500000484},{"name":"C4","midi":60,"time":386.85097373177496,"velocity":0.8031496062992126,"duration":1.2478293619791998},{"name":"E5","midi":76,"time":387.49984500000414,"velocity":0.8031496062992126,"duration":0.17361104166667474},{"name":"G4","midi":67,"time":387.49984500000414,"velocity":0.8031496062992126,"duration":0.17361104166667474},{"name":"F#5","midi":78,"time":387.6777963177125,"velocity":0.8031496062992126,"duration":0.4340276041666584},{"name":"A4","midi":69,"time":387.6777963177125,"velocity":0.8031496062992126,"duration":0.4340276041666584},{"name":"G5","midi":79,"time":388.1248447500041,"velocity":0.8031496062992126,"duration":1.8663186979167108},{"name":"B3","midi":59,"time":388.1248447500041,"velocity":0.8031496062992126,"duration":0.6228296119791707},{"name":"D4","midi":62,"time":388.1248447500041,"velocity":0.8031496062992126,"duration":0.6228296119791707},{"name":"D5","midi":74,"time":388.3331780000041,"velocity":0.8031496062992126,"duration":1.6644958619792192},{"name":"B4","midi":71,"time":388.54151125000413,"velocity":0.8031496062992126,"duration":1.4561626119792095},{"name":"G4","midi":67,"time":388.74984450000414,"velocity":0.8031496062992126,"duration":1.2478293619791998},{"name":"D4","midi":62,"time":388.74984450000414,"velocity":0.8031496062992126,"duration":0.20616311197915138},{"name":"B3","midi":59,"time":388.95817775000415,"velocity":0.8031496062992126,"duration":1.0416662500000484},{"name":"F3","midi":53,"time":389.3748442500042,"velocity":0.8031496062992126,"duration":1.2478293619792566},{"name":"A5","midi":81,"time":389.9998440000042,"velocity":0.8031496062992126,"duration":0.20616311197915138},{"name":"C4","midi":60,"time":389.9998440000042,"velocity":0.8031496062992126,"duration":0.20616311197915138},{"name":"B5","midi":83,"time":390.2081772500042,"velocity":0.8031496062992126,"duration":0.4144963619792179},{"name":"D4","midi":62,"time":390.2081772500042,"velocity":0.8031496062992126,"duration":0.4123262239583596},{"name":"C6","midi":84,"time":390.6248437500043,"velocity":0.8031496062992126,"duration":0.10199648697914654},{"name":"E3","midi":52,"time":390.6248437500043,"velocity":0.8031496062992126,"duration":0.41449636197916107},{"name":"B5","midi":83,"time":390.7290103750043,"velocity":0.8031496062992126,"duration":0.10199648697914654},{"name":"A5","midi":81,"time":390.8331770000043,"velocity":0.8031496062992126,"duration":0.10199648697914654},{"name":"G#5","midi":80,"time":390.9373436250043,"velocity":0.8031496062992126,"duration":0.10199648697914654},{"name":"A5","midi":81,"time":391.0415102500043,"velocity":0.8031496062992126,"duration":0.3103297369791562},{"name":"F3","midi":53,"time":391.0415102500043,"velocity":0.8031496062992126,"duration":0.41449636197916107},{"name":"C4","midi":60,"time":391.0415102500043,"velocity":0.8031496062992126,"duration":0.41449636197916107},{"name":"E5","midi":76,"time":391.3540101250043,"velocity":0.8031496062992126,"duration":0.10199648697914654},{"name":"A4","midi":69,"time":391.4581767500043,"velocity":0.8031496062992126,"duration":1.2478293619791998},{"name":"F5","midi":77,"time":391.4581767500043,"velocity":0.8031496062992126,"duration":0.41449636197916107},{"name":"D3","midi":50,"time":391.4581767500043,"velocity":0.8031496062992126,"duration":0.41449636197916107},{"name":"B3","midi":59,"time":391.4581767500043,"velocity":0.8031496062992126,"duration":0.8246524479167192},{"name":"C5","midi":72,"time":391.87484325000435,"velocity":0.8031496062992126,"duration":0.20616311197915138},{"name":"E3","midi":52,"time":391.87484325000435,"velocity":0.8031496062992126,"duration":1.2478293619791998},{"name":"B4","midi":71,"time":392.08317650000436,"velocity":0.8031496062992126,"duration":0.41449636197916107},{"name":"B3","midi":59,"time":392.29150975000437,"velocity":0.8031496062992126,"duration":0.41449636197916107},{"name":"F5","midi":77,"time":392.4998430000044,"velocity":0.8031496062992126,"duration":0.20616311197915138},{"name":"G#4","midi":68,"time":392.7081762500044,"velocity":0.8031496062992126,"duration":0.41449636197916107},{"name":"E5","midi":76,"time":392.7081762500044,"velocity":0.8031496062992126,"duration":0.41449636197916107},{"name":"E4","midi":64,"time":392.7081762500044,"velocity":0.8031496062992126,"duration":0.41449636197916107},{"name":"A4","midi":69,"time":393.1248427500044,"velocity":0.8031496062992126,"duration":0.8246524479167192},{"name":"D5","midi":74,"time":393.1248427500044,"velocity":0.8031496062992126,"duration":0.10199648697914654},{"name":"A3","midi":57,"time":393.1248427500044,"velocity":0.8031496062992126,"duration":1.2478293619792566},{"name":"C5","midi":72,"time":393.2290093750044,"velocity":0.8031496062992126,"duration":0.10199648697914654},{"name":"D5","midi":74,"time":393.3331760000044,"velocity":0.8031496062992126,"duration":0.10199648697914654},{"name":"C5","midi":72,"time":393.4373426250044,"velocity":0.8031496062992126,"duration":0.10199648697914654},{"name":"D5","midi":74,"time":393.5415092500044,"velocity":0.8031496062992126,"duration":0.10199648697914654},{"name":"E3","midi":52,"time":393.5415092500044,"velocity":0.8031496062992126,"duration":0.4144963619792179},{"name":"C5","midi":72,"time":393.64567587500443,"velocity":0.8031496062992126,"duration":0.10199648697914654},{"name":"B4","midi":71,"time":393.74984250000443,"velocity":0.8031496062992126,"duration":0.20616311197920822},{"name":"A4","midi":69,"time":393.9581757500045,"velocity":0.8031496062992126,"duration":0.41449636197916107},{"name":"C3","midi":48,"time":393.9581757500045,"velocity":0.8031496062992126,"duration":0.41449636197916107},{"name":"A4","midi":69,"time":394.3748422500045,"velocity":0.8031496062992126,"duration":0.41666650000001937},{"name":"A2","midi":45,"time":394.3748422500045,"velocity":0.8031496062992126,"duration":0.41449636197916107},{"name":"B2","midi":47,"time":394.79150875000454,"velocity":0.8031496062992126,"duration":0.41449636197916107},{"name":"C5","midi":72,"time":394.89567537500454,"velocity":0.8031496062992126,"duration":0.10199648697914654},{"name":"B4","midi":71,"time":394.99984200000455,"velocity":0.8031496062992126,"duration":0.10199648697914654},{"name":"A4","midi":69,"time":395.10400862500455,"velocity":0.8031496062992126,"duration":0.10199648697914654},{"name":"E5","midi":76,"time":395.20817525000456,"velocity":0.8031496062992126,"duration":0.41449636197916107},{"name":"C3","midi":48,"time":395.20817525000456,"velocity":0.8031496062992126,"duration":0.41449636197916107},{"name":"F#4","midi":66,"time":395.6248417500046,"velocity":0.8031496062992126,"duration":0.6228296119791707},{"name":"D2","midi":38,"time":395.6248417500046,"velocity":0.8031496062992126,"duration":0.20616311197915138},{"name":"A2","midi":45,"time":395.8331750000046,"velocity":0.8031496062992126,"duration":0.20616311197915138},{"name":"D3","midi":50,"time":396.0415082500046,"velocity":0.8031496062992126,"duration":0.20616311197915138},{"name":"A4","midi":69,"time":396.2498415000046,"velocity":0.8031496062992126,"duration":0.20616311197915138},{"name":"E3","midi":52,"time":396.2498415000046,"velocity":0.8031496062992126,"duration":0.10199648697914654},{"name":"F#3","midi":54,"time":396.3540081250046,"velocity":0.8031496062992126,"duration":0.10199648697914654},{"name":"C5","midi":72,"time":396.4581747500046,"velocity":0.8031496062992126,"duration":1.2478293619792566},{"name":"E3","midi":52,"time":396.4581747500046,"velocity":0.8031496062992126,"duration":0.4123262239583596},{"name":"F#3","midi":54,"time":396.6665080000046,"velocity":0.8031496062992126,"duration":0.10199648697914654},{"name":"G3","midi":55,"time":396.77067462500463,"velocity":0.8031496062992126,"duration":0.10199648697920338},{"name":"D4","midi":62,"time":396.8748412500047,"velocity":0.8031496062992126,"duration":0.5186629869791659},{"name":"F#3","midi":54,"time":396.8748412500047,"velocity":0.8031496062992126,"duration":0.20616311197915138},{"name":"G3","midi":55,"time":397.0831745000047,"velocity":0.8031496062992126,"duration":0.10199648697914654},{"name":"A3","midi":57,"time":397.1873411250047,"velocity":0.8031496062992126,"duration":0.10199648697914654},{"name":"B2","midi":47,"time":397.2915077500047,"velocity":0.8031496062992126,"duration":0.20616311197915138},{"name":"F#4","midi":66,"time":397.3956743750047,"velocity":0.8031496062992126,"duration":0.10199648697914654},{"name":"E4","midi":64,"time":397.4998410000047,"velocity":0.8031496062992126,"duration":0.10199648697914654},{"name":"D3","midi":50,"time":397.4998410000047,"velocity":0.8031496062992126,"duration":0.20616311197915138},{"name":"D4","midi":62,"time":397.6040076250047,"velocity":0.8031496062992126,"duration":0.10199648697914654},{"name":"B4","midi":71,"time":397.70817425000473,"velocity":0.8031496062992126,"duration":0.41449636197916107},{"name":"G3","midi":55,"time":397.70817425000473,"velocity":0.8031496062992126,"duration":0.6076386458333332},{"name":"B3","midi":59,"time":397.91650750000474,"velocity":0.8031496062992126,"duration":0.20616311197915138},{"name":"A4","midi":69,"time":398.12484075000475,"velocity":0.8031496062992126,"duration":0.6228296119791707},{"name":"C4","midi":60,"time":398.12484075000475,"velocity":0.8031496062992126,"duration":0.41232622395830276},{"name":"G3","midi":55,"time":398.3331740000047,"velocity":0.8031496062992126,"duration":0.20616311197920822},{"name":"F#3","midi":54,"time":398.54150725000477,"velocity":0.8031496062992126,"duration":0.20616311197915138},{"name":"E5","midi":76,"time":398.7498405000048,"velocity":0.8031496062992126,"duration":0.20616311197915138},{"name":"E3","midi":52,"time":398.7498405000048,"velocity":0.8031496062992126,"duration":0.20616311197915138},{"name":"A5","midi":81,"time":398.9581737500048,"velocity":0.8031496062992126,"duration":0.9201385208333477},{"name":"D#3","midi":51,"time":398.9581737500048,"velocity":0.8031496062992126,"duration":0.20616311197915138},{"name":"E3","midi":52,"time":399.1665070000048,"velocity":0.8031496062992126,"duration":0.20616311197915138},{"name":"B4","midi":71,"time":399.3748402500048,"velocity":0.8031496062992126,"duration":1.247829361979143},{"name":"D#3","midi":51,"time":399.3748402500048,"velocity":0.8031496062992126,"duration":0.20616311197915138},{"name":"E3","midi":52,"time":399.5831735000048,"velocity":0.8031496062992126,"duration":0.10199648697914654},{"name":"F#3","midi":54,"time":399.6873401250048,"velocity":0.8031496062992126,"duration":0.10199648697914654},{"name":"B2","midi":47,"time":399.7915067500048,"velocity":0.8031496062992126,"duration":0.20616311197909454},{"name":"A5","midi":81,"time":399.8956733750048,"velocity":0.8031496062992126,"duration":0.10199648697914654},{"name":"G5","midi":79,"time":399.9998400000048,"velocity":0.8031496062992126,"duration":0.10199648697914654},{"name":"D#3","midi":51,"time":399.9998400000048,"velocity":0.8031496062992126,"duration":0.20616311197915138},{"name":"F#5","midi":78,"time":400.1040066250048,"velocity":0.8031496062992126,"duration":0.10199648697914654},{"name":"G5","midi":79,"time":400.2081732500048,"velocity":0.8031496062992126,"duration":0.41449636197916107},{"name":"E3","midi":52,"time":400.2081732500048,"velocity":0.8031496062992126,"duration":0.20616311197915138},{"name":"F#3","midi":54,"time":400.4165065000048,"velocity":0.8031496062992126,"duration":0.10199648697914654},{"name":"G3","midi":55,"time":400.5206731250048,"velocity":0.8031496062992126,"duration":0.10199648697914654},{"name":"C5","midi":72,"time":400.6248397500048,"velocity":0.8031496062992126,"duration":0.10199648697914654},{"name":"A3","midi":57,"time":400.6248397500048,"velocity":0.8031496062992126,"duration":1.6644958619793329},{"name":"B4","midi":71,"time":400.7290063750048,"velocity":0.8031496062992126,"duration":0.10199648697914654},{"name":"A4","midi":69,"time":400.8331730000048,"velocity":0.8031496062992126,"duration":0.10199648697914654},{"name":"G4","midi":67,"time":400.9373396250048,"velocity":0.8031496062992126,"duration":0.10199648697914654},{"name":"F#4","midi":66,"time":401.04150625000483,"velocity":0.8031496062992126,"duration":0.10199648697914654},{"name":"E5","midi":76,"time":401.14567287500483,"velocity":0.8031496062992126,"duration":0.10199648697914654},{"name":"D5","midi":74,"time":401.24983950000484,"velocity":0.8031496062992126,"duration":0.10199648697914654},{"name":"F#3","midi":54,"time":401.24983950000484,"velocity":0.8031496062992126,"duration":0.20616311197915138},{"name":"C5","midi":72,"time":401.35400612500484,"velocity":0.8031496062992126,"duration":0.10199648697914654},{"name":"D5","midi":74,"time":401.45817275000485,"velocity":0.8031496062992126,"duration":0.303819322916695},{"name":"C3","midi":48,"time":401.45817275000485,"velocity":0.8031496062992126,"duration":0.4144963619792179},{"name":"D4","midi":62,"time":401.8748392500049,"velocity":0.8031496062992126,"duration":0.303819322916695},{"name":"C4","midi":60,"time":401.8748392500049,"velocity":0.8031496062992126,"duration":0.303819322916695},{"name":"B2","midi":47,"time":401.8748392500049,"velocity":0.8031496062992126,"duration":0.4144963619792179},{"name":"E4","midi":64,"time":402.291505750005,"velocity":0.8031496062992126,"duration":0.303819322916695},{"name":"B3","midi":59,"time":402.291505750005,"velocity":0.8031496062992126,"duration":0.303819322916695},{"name":"G3","midi":55,"time":402.291505750005,"velocity":0.8031496062992126,"duration":0.4144963619792179},{"name":"C3","midi":48,"time":402.291505750005,"velocity":0.8031496062992126,"duration":0.4144963619792179},{"name":"F#4","midi":66,"time":402.7081722500051,"velocity":0.8031496062992126,"duration":0.303819322916695},{"name":"A3","midi":57,"time":402.7081722500051,"velocity":0.8031496062992126,"duration":0.303819322916695},{"name":"D3","midi":50,"time":402.7081722500051,"velocity":0.8031496062992126,"duration":0.4144963619792179},{"name":"D4","midi":62,"time":403.12483875000515,"velocity":0.8031496062992126,"duration":2.4956587239583996},{"name":"G4","midi":67,"time":403.12483875000515,"velocity":0.8031496062992126,"duration":2.4956587239583996},{"name":"B3","midi":59,"time":403.12483875000515,"velocity":0.8031496062992126,"duration":2.4956587239583996},{"name":"G2","midi":43,"time":403.12483875000515,"velocity":0.8031496062992126,"duration":0.6228296119791707},{"name":"B2","midi":47,"time":403.7498385000052,"velocity":0.8031496062992126,"duration":0.20616311197915138},{"name":"D3","midi":50,"time":403.9581717500052,"velocity":0.8031496062992126,"duration":0.41449636197916107},{"name":"G3","midi":55,"time":404.3748382500052,"velocity":0.8031496062992126,"duration":1.2478293619791998},{"name":"D5","midi":74,"time":407.49983700000524,"velocity":0.8031496062992126,"duration":0.2756075286458213},{"name":"G5","midi":79,"time":407.7776146666719,"velocity":0.8031496062992126,"duration":0.2756075286458213},{"name":"B5","midi":83,"time":408.0553923333386,"velocity":0.8031496062992126,"duration":0.2756075286458213},{"name":"F#5","midi":78,"time":408.3331700000053,"velocity":0.8031496062992126,"duration":0.2756075286458213},{"name":"G5","midi":79,"time":408.61094766667196,"velocity":0.8031496062992126,"duration":0.2756075286458213},{"name":"B5","midi":83,"time":408.88872533333864,"velocity":0.8031496062992126,"duration":0.2756075286458213},{"name":"D5","midi":74,"time":409.1665030000053,"velocity":0.8031496062992126,"duration":0.2756075286458213},{"name":"G5","midi":79,"time":409.444280666672,"velocity":0.8031496062992126,"duration":0.2756075286458213},{"name":"B5","midi":83,"time":409.7220583333387,"velocity":0.8031496062992126,"duration":0.2756075286458213},{"name":"F#5","midi":78,"time":409.99983600000536,"velocity":0.8031496062992126,"duration":0.2756075286458213},{"name":"G5","midi":79,"time":410.27761366667204,"velocity":0.8031496062992126,"duration":0.2756075286458213},{"name":"B5","midi":83,"time":410.5553913333387,"velocity":0.8031496062992126,"duration":0.2756075286458213},{"name":"D5","midi":74,"time":410.8331690000054,"velocity":0.8031496062992126,"duration":0.2756075286458213},{"name":"E5","midi":76,"time":411.1109466666721,"velocity":0.8031496062992126,"duration":0.2756075286458213},{"name":"C5","midi":72,"time":411.38872433333876,"velocity":0.8031496062992126,"duration":0.2756075286458213},{"name":"G4","midi":67,"time":411.66650200000544,"velocity":0.8031496062992126,"duration":0.2756075286458213},{"name":"G5","midi":79,"time":411.9442796666721,"velocity":0.8031496062992126,"duration":0.4123262239583596},{"name":"C5","midi":72,"time":412.4998350000055,"velocity":0.8031496062992126,"duration":0.2756075286458213},{"name":"D5","midi":74,"time":412.77761266667216,"velocity":0.8031496062992126,"duration":0.2756075286458213},{"name":"B4","midi":71,"time":413.05539033333883,"velocity":0.8031496062992126,"duration":0.2756075286458213},{"name":"G4","midi":67,"time":413.3331680000055,"velocity":0.8031496062992126,"duration":0.2756075286458213},{"name":"G5","midi":79,"time":413.6109456666722,"velocity":0.8031496062992126,"duration":0.4123262239583596},{"name":"B4","midi":71,"time":414.16650100000555,"velocity":0.8031496062992126,"duration":0.2756075286458213},{"name":"C5","midi":72,"time":414.44427866667223,"velocity":0.8031496062992126,"duration":0.2756075286458213},{"name":"D5","midi":74,"time":414.7220563333389,"velocity":0.8031496062992126,"duration":0.2756075286458213},{"name":"E5","midi":76,"time":414.9998340000056,"velocity":0.8031496062992126,"duration":0.2756075286458213},{"name":"D5","midi":74,"time":415.27761166667227,"velocity":0.8031496062992126,"duration":0.2756075286458213},{"name":"E5","midi":76,"time":415.55538933333895,"velocity":0.8031496062992126,"duration":0.2756075286458213},{"name":"C5","midi":72,"time":415.83316700000563,"velocity":0.8031496062992126,"duration":0.2756075286458213},{"name":"B4","midi":71,"time":416.1109446666723,"velocity":0.8031496062992126,"duration":0.2756075286458213},{"name":"D5","midi":74,"time":416.388722333339,"velocity":0.8031496062992126,"duration":0.2756075286458213},{"name":"G5","midi":79,"time":416.66650000000567,"velocity":0.8031496062992126,"duration":0.2756075286458213},{"name":"B5","midi":83,"time":416.94427766667235,"velocity":0.8031496062992126,"duration":0.2756075286458213},{"name":"A5","midi":81,"time":417.22205533333903,"velocity":0.8031496062992126,"duration":0.2756075286458213},{"name":"G5","midi":79,"time":417.4998330000057,"velocity":0.8031496062992126,"duration":0.2756075286458213},{"name":"G4","midi":67,"time":417.4998330000057,"velocity":0.8031496062992126,"duration":0.2756075286458213},{"name":"D5","midi":74,"time":417.7776106666724,"velocity":0.8031496062992126,"duration":0.2756075286458213},{"name":"A5","midi":81,"time":417.7776106666724,"velocity":0.8031496062992126,"duration":0.5533851953125009},{"name":"F#5","midi":78,"time":418.05538833333907,"velocity":0.8031496062992126,"duration":0.2756075286458213},{"name":"C#5","midi":73,"time":418.33316600000575,"velocity":0.8031496062992126,"duration":0.2756075286458213},{"name":"A5","midi":81,"time":418.33316600000575,"velocity":0.8031496062992126,"duration":0.2756075286458213},{"name":"A5","midi":81,"time":418.6109436666724,"velocity":0.8031496062992126,"duration":0.5533851953125009},{"name":"D5","midi":74,"time":418.6109436666724,"velocity":0.8031496062992126,"duration":0.2756075286458213},{"name":"F#5","midi":78,"time":418.8887213333391,"velocity":0.8031496062992126,"duration":0.2756075286458213},{"name":"A4","midi":69,"time":419.1664990000058,"velocity":0.8031496062992126,"duration":0.2756075286458213},{"name":"A5","midi":81,"time":419.1664990000058,"velocity":0.8031496062992126,"duration":0.2756075286458213},{"name":"D5","midi":74,"time":419.44427666667247,"velocity":0.8031496062992126,"duration":0.2756075286458213},{"name":"A5","midi":81,"time":419.44427666667247,"velocity":0.8031496062992126,"duration":0.5533851953125009},{"name":"F#5","midi":78,"time":419.72205433333914,"velocity":0.8031496062992126,"duration":0.2756075286458213},{"name":"C#5","midi":73,"time":419.9998320000058,"velocity":0.8031496062992126,"duration":0.2756075286458213},{"name":"A5","midi":81,"time":419.9998320000058,"velocity":0.8031496062992126,"duration":0.2756075286458213},{"name":"A5","midi":81,"time":420.2776096666725,"velocity":0.8031496062992126,"duration":0.5533851953125009},{"name":"D5","midi":74,"time":420.2776096666725,"velocity":0.8031496062992126,"duration":0.2756075286458213},{"name":"F#5","midi":78,"time":420.5553873333392,"velocity":0.8031496062992126,"duration":0.2756075286458213},{"name":"A4","midi":69,"time":420.83316500000586,"velocity":0.8031496062992126,"duration":0.2756075286458213},{"name":"A5","midi":81,"time":420.83316500000586,"velocity":0.8031496062992126,"duration":0.2756075286458213},{"name":"B4","midi":71,"time":421.11094266667254,"velocity":0.8031496062992126,"duration":0.2756075286458213},{"name":"D5","midi":74,"time":421.11094266667254,"velocity":0.8031496062992126,"duration":0.2756075286458213},{"name":"G5","midi":79,"time":421.3887203333392,"velocity":0.8031496062992126,"duration":0.2756075286458213},{"name":"G4","midi":67,"time":421.3887203333392,"velocity":0.8031496062992126,"duration":0.2756075286458213},{"name":"B5","midi":83,"time":421.6664980000059,"velocity":0.8031496062992126,"duration":0.2756075286458213},{"name":"D4","midi":62,"time":421.6664980000059,"velocity":0.8031496062992126,"duration":0.2756075286458213},{"name":"B5","midi":83,"time":421.9442756666726,"velocity":0.8031496062992126,"duration":0.2756075286458213},{"name":"D5","midi":74,"time":421.9442756666726,"velocity":0.8031496062992126,"duration":0.4123262239583596},{"name":"G5","midi":79,"time":422.22205333333926,"velocity":0.8031496062992126,"duration":0.2756075286458213},{"name":"D5","midi":74,"time":422.49983100000594,"velocity":0.8031496062992126,"duration":0.2756075286458213},{"name":"G4","midi":67,"time":422.49983100000594,"velocity":0.8031496062992126,"duration":0.2756075286458213},{"name":"D5","midi":74,"time":422.7776086666726,"velocity":0.8031496062992126,"duration":0.2756075286458213},{"name":"A4","midi":69,"time":422.7776086666726,"velocity":0.8031496062992126,"duration":0.2756075286458213},{"name":"F#4","midi":66,"time":423.0553863333393,"velocity":0.8031496062992126,"duration":0.2756075286458213},{"name":"F#5","midi":78,"time":423.0553863333393,"velocity":0.8031496062992126,"duration":0.2756075286458213},{"name":"A5","midi":81,"time":423.333164000006,"velocity":0.8031496062992126,"duration":0.2756075286458213},{"name":"D4","midi":62,"time":423.333164000006,"velocity":0.8031496062992126,"duration":0.2756075286458213},{"name":"A5","midi":81,"time":423.61094166667266,"velocity":0.8031496062992126,"duration":0.2756075286458213},{"name":"D5","midi":74,"time":423.61094166667266,"velocity":0.8031496062992126,"duration":0.4123262239583596},{"name":"F#5","midi":78,"time":423.88871933333934,"velocity":0.8031496062992126,"duration":0.2756075286458213},{"name":"D5","midi":74,"time":424.166497000006,"velocity":0.8031496062992126,"duration":0.2756075286458213},{"name":"F#4","midi":66,"time":424.166497000006,"velocity":0.8031496062992126,"duration":0.2756075286458213},{"name":"D5","midi":74,"time":424.4442746666727,"velocity":0.8031496062992126,"duration":0.8246524479167192},{"name":"G4","midi":67,"time":424.4442746666727,"velocity":0.8031496062992126,"duration":0.2756075286458213},{"name":"A4","midi":69,"time":424.7220523333394,"velocity":0.8031496062992126,"duration":0.2756075286458213},{"name":"B4","midi":71,"time":424.99983000000606,"velocity":0.8031496062992126,"duration":0.2756075286458781},{"name":"C#5","midi":73,"time":425.2776076666728,"velocity":0.8031496062992126,"duration":0.8246524479167192},{"name":"A4","midi":69,"time":425.2776076666728,"velocity":0.8031496062992126,"duration":0.2756075286458213},{"name":"B4","midi":71,"time":425.5553853333395,"velocity":0.8031496062992126,"duration":0.2756075286458213},{"name":"G4","midi":67,"time":425.83316300000615,"velocity":0.8031496062992126,"duration":0.2756075286458781},{"name":"D5","midi":74,"time":426.1109406666729,"velocity":0.8031496062992126,"duration":0.8246524479167192},{"name":"F#4","midi":66,"time":426.1109406666729,"velocity":0.8031496062992126,"duration":0.2756075286458213},{"name":"A4","midi":69,"time":426.38871833333957,"velocity":0.8031496062992126,"duration":0.2756075286458213},{"name":"C5","midi":72,"time":426.66649600000625,"velocity":0.8031496062992126,"duration":0.2756075286458781},{"name":"F#5","midi":78,"time":426.944273666673,"velocity":0.8031496062992126,"duration":0.8246524479167192},{"name":"E5","midi":76,"time":426.944273666673,"velocity":0.8031496062992126,"duration":0.2756075286458213},{"name":"D5","midi":74,"time":427.22205133333966,"velocity":0.8031496062992126,"duration":0.2756075286458213},{"name":"C5","midi":72,"time":427.49982900000634,"velocity":0.8031496062992126,"duration":0.2756075286458781},{"name":"D4","midi":62,"time":427.49982900000634,"velocity":0.8031496062992126,"duration":0.2756075286458781},{"name":"G5","midi":79,"time":427.7776066666731,"velocity":0.8031496062992126,"duration":0.5533851953125009},{"name":"B4","midi":71,"time":427.7776066666731,"velocity":0.8031496062992126,"duration":0.2756075286458213},{"name":"G4","midi":67,"time":427.7776066666731,"velocity":0.8031496062992126,"duration":0.2756075286458213},{"name":"B4","midi":71,"time":428.05538433333976,"velocity":0.8031496062992126,"duration":0.2756075286458213},{"name":"D5","midi":74,"time":428.33316200000644,"velocity":0.8031496062992126,"duration":0.2756075286458213},{"name":"A5","midi":81,"time":428.33316200000644,"velocity":0.8031496062992126,"duration":0.2756075286458213},{"name":"F#4","midi":66,"time":428.33316200000644,"velocity":0.8031496062992126,"duration":0.2756075286458213},{"name":"B5","midi":83,"time":428.6109396666731,"velocity":0.8031496062992126,"duration":0.5533851953125009},{"name":"D5","midi":74,"time":428.6109396666731,"velocity":0.8031496062992126,"duration":0.5533851953125009},{"name":"G4","midi":67,"time":428.6109396666731,"velocity":0.8031496062992126,"duration":0.2756075286458213},{"name":"B4","midi":71,"time":428.8887173333398,"velocity":0.8031496062992126,"duration":0.2756075286458213},{"name":"C6","midi":84,"time":429.1664950000065,"velocity":0.8031496062992126,"duration":0.2756075286458213},{"name":"D5","midi":74,"time":429.1664950000065,"velocity":0.8031496062992126,"duration":0.2756075286458213},{"name":"D4","midi":62,"time":429.1664950000065,"velocity":0.8031496062992126,"duration":0.2756075286458213},{"name":"B5","midi":83,"time":429.44427266667316,"velocity":0.8031496062992126,"duration":0.5533851953125009},{"name":"D5","midi":74,"time":429.44427266667316,"velocity":0.8031496062992126,"duration":0.5533851953125009},{"name":"G4","midi":67,"time":429.44427266667316,"velocity":0.8031496062992126,"duration":0.2756075286458213},{"name":"B4","midi":71,"time":429.72205033333984,"velocity":0.8031496062992126,"duration":0.2756075286458213},{"name":"D5","midi":74,"time":429.9998280000065,"velocity":0.8031496062992126,"duration":0.2756075286458213},{"name":"A5","midi":81,"time":429.9998280000065,"velocity":0.8031496062992126,"duration":0.2756075286458213},{"name":"F#4","midi":66,"time":429.9998280000065,"velocity":0.8031496062992126,"duration":0.2756075286458213},{"name":"D5","midi":74,"time":430.2776056666732,"velocity":0.8031496062992126,"duration":0.5533851953125009},{"name":"G5","midi":79,"time":430.2776056666732,"velocity":0.8031496062992126,"duration":4.168835138021052},{"name":"G4","midi":67,"time":430.2776056666732,"velocity":0.8031496062992126,"duration":0.2756075286458213},{"name":"B4","midi":71,"time":430.5553833333399,"velocity":0.8031496062992126,"duration":0.2756075286458213},{"name":"B4","midi":71,"time":430.83316100000656,"velocity":0.8031496062992126,"duration":0.2756075286458213},{"name":"D4","midi":62,"time":430.83316100000656,"velocity":0.8031496062992126,"duration":0.2756075286458213},{"name":"G4","midi":67,"time":431.11093866667323,"velocity":0.8031496062992126,"duration":0.2756075286458213},{"name":"E4","midi":64,"time":431.11093866667323,"velocity":0.8031496062992126,"duration":0.2756075286458213},{"name":"C5","midi":72,"time":431.3887163333399,"velocity":0.8031496062992126,"duration":0.2756075286458213},{"name":"C4","midi":60,"time":431.3887163333399,"velocity":0.8031496062992126,"duration":0.2756075286458213},{"name":"E5","midi":76,"time":431.6664940000066,"velocity":0.8031496062992126,"duration":0.2756075286458213},{"name":"G3","midi":55,"time":431.6664940000066,"velocity":0.8031496062992126,"duration":0.2756075286458213},{"name":"E5","midi":76,"time":431.9442716666733,"velocity":0.8031496062992126,"duration":0.2756075286458213},{"name":"G4","midi":67,"time":431.9442716666733,"velocity":0.8031496062992126,"duration":0.4123262239583596},{"name":"C5","midi":72,"time":432.22204933333995,"velocity":0.8031496062992126,"duration":0.2756075286458213},{"name":"G4","midi":67,"time":432.49982700000663,"velocity":0.8031496062992126,"duration":0.2756075286458213},{"name":"C4","midi":60,"time":432.49982700000663,"velocity":0.8031496062992126,"duration":0.2756075286458213},{"name":"G4","midi":67,"time":432.7776046666733,"velocity":0.8031496062992126,"duration":0.2756075286458213},{"name":"D4","midi":62,"time":432.7776046666733,"velocity":0.8031496062992126,"duration":0.2756075286458213},{"name":"B4","midi":71,"time":433.05538233334,"velocity":0.8031496062992126,"duration":0.2756075286458213},{"name":"B3","midi":59,"time":433.05538233334,"velocity":0.8031496062992126,"duration":0.2756075286458213},{"name":"D5","midi":74,"time":433.33316000000667,"velocity":0.8031496062992126,"duration":0.2756075286458213},{"name":"G3","midi":55,"time":433.33316000000667,"velocity":0.8031496062992126,"duration":0.2756075286458213},{"name":"D5","midi":74,"time":433.61093766667335,"velocity":0.8031496062992126,"duration":0.2756075286458213},{"name":"G4","midi":67,"time":433.61093766667335,"velocity":0.8031496062992126,"duration":0.4123262239583596},{"name":"B4","midi":71,"time":433.88871533334003,"velocity":0.8031496062992126,"duration":0.2756075286458213},{"name":"G4","midi":67,"time":434.1664930000067,"velocity":0.8031496062992126,"duration":0.2756075286458213},{"name":"B3","midi":59,"time":434.1664930000067,"velocity":0.8031496062992126,"duration":0.2756075286458213},{"name":"A4","midi":69,"time":434.4442706666734,"velocity":0.8031496062992126,"duration":1.664495861979276},{"name":"C4","midi":60,"time":434.4442706666734,"velocity":0.8031496062992126,"duration":0.2756075286458781},{"name":"D4","midi":62,"time":434.7220483333401,"velocity":0.8031496062992126,"duration":0.2756075286458213},{"name":"E4","midi":64,"time":434.9998260000068,"velocity":0.8031496062992126,"duration":0.2756075286458213},{"name":"F#5","midi":78,"time":435.2776036666735,"velocity":0.8031496062992126,"duration":0.8311628619791804},{"name":"D4","midi":62,"time":435.2776036666735,"velocity":0.8031496062992126,"duration":0.2756075286458213},{"name":"E4","midi":64,"time":435.55538133334016,"velocity":0.8031496062992126,"duration":0.2756075286458213},{"name":"C4","midi":60,"time":435.83315900000684,"velocity":0.8031496062992126,"duration":0.2756075286458213},{"name":"G5","midi":79,"time":436.1109366666735,"velocity":0.8031496062992126,"duration":0.5533851953125009},{"name":"G4","midi":67,"time":436.1109366666735,"velocity":0.8031496062992126,"duration":0.5533851953125009},{"name":"B3","midi":59,"time":436.1109366666735,"velocity":0.8031496062992126,"duration":0.2756075286458213},{"name":"D4","midi":62,"time":436.3887143333402,"velocity":0.8031496062992126,"duration":0.2756075286458213},{"name":"A3","midi":57,"time":436.6664920000069,"velocity":0.8031496062992126,"duration":0.2756075286458213},{"name":"B3","midi":59,"time":436.94426966667356,"velocity":0.8031496062992126,"duration":0.2756075286458213},{"name":"D4","midi":62,"time":437.22204733334024,"velocity":0.8031496062992126,"duration":0.2756075286458213},{"name":"D5","midi":74,"time":437.4998250000069,"velocity":0.8031496062992126,"duration":0.2756075286458213},{"name":"G3","midi":55,"time":437.4998250000069,"velocity":0.8031496062992126,"duration":0.2756075286458213},{"name":"E5","midi":76,"time":437.7776026666736,"velocity":0.8031496062992126,"duration":0.2756075286458213},{"name":"C4","midi":60,"time":437.7776026666736,"velocity":0.8031496062992126,"duration":0.5533851953125009},{"name":"G5","midi":79,"time":438.0553803333403,"velocity":0.8031496062992126,"duration":0.2756075286458213},{"name":"D5","midi":74,"time":438.33315800000696,"velocity":0.8031496062992126,"duration":0.2756075286458213},{"name":"B3","midi":59,"time":438.33315800000696,"velocity":0.8031496062992126,"duration":0.2756075286458213},{"name":"E5","midi":76,"time":438.61093566667364,"velocity":0.8031496062992126,"duration":0.2756075286458213},{"name":"C4","midi":60,"time":438.61093566667364,"velocity":0.8031496062992126,"duration":0.5533851953125009},{"name":"G5","midi":79,"time":438.8887133333403,"velocity":0.8031496062992126,"duration":0.2756075286458213},{"name":"B4","midi":71,"time":439.166491000007,"velocity":0.8031496062992126,"duration":0.2756075286458213},{"name":"G3","midi":55,"time":439.166491000007,"velocity":0.8031496062992126,"duration":0.2756075286458213},{"name":"C5","midi":72,"time":439.4442686666737,"velocity":0.8031496062992126,"duration":0.5533851953125009},{"name":"A3","midi":57,"time":439.4442686666737,"velocity":0.8031496062992126,"duration":0.2756075286458213},{"name":"C4","midi":60,"time":439.72204633334036,"velocity":0.8031496062992126,"duration":0.2756075286458213},{"name":"G3","midi":55,"time":439.99982400000704,"velocity":0.8031496062992126,"duration":0.2756075286458213},{"name":"A3","midi":57,"time":440.2776016666737,"velocity":0.8031496062992126,"duration":0.2756075286458213},{"name":"C4","midi":60,"time":440.5553793333404,"velocity":0.8031496062992126,"duration":0.2756075286458213},{"name":"G5","midi":79,"time":440.8331570000071,"velocity":0.8031496062992126,"duration":0.2756075286458213},{"name":"E3","midi":52,"time":440.8331570000071,"velocity":0.8031496062992126,"duration":0.2756075286458213},{"name":"A5","midi":81,"time":441.11093466667376,"velocity":0.8031496062992126,"duration":0.2756075286458213},{"name":"F#3","midi":54,"time":441.11093466667376,"velocity":0.8031496062992126,"duration":0.5533851953125009},{"name":"C6","midi":84,"time":441.38871233334044,"velocity":0.8031496062992126,"duration":0.2756075286458213},{"name":"G5","midi":79,"time":441.6664900000071,"velocity":0.8031496062992126,"duration":0.2756075286458213},{"name":"E3","midi":52,"time":441.6664900000071,"velocity":0.8031496062992126,"duration":0.2756075286458213},{"name":"A5","midi":81,"time":441.9442676666738,"velocity":0.8031496062992126,"duration":0.2756075286458213},{"name":"F#3","midi":54,"time":441.9442676666738,"velocity":0.8031496062992126,"duration":0.5533851953125009},{"name":"C6","midi":84,"time":442.2220453333405,"velocity":0.8031496062992126,"duration":0.2756075286458213},{"name":"E5","midi":76,"time":442.49982300000715,"velocity":0.8031496062992126,"duration":0.2756075286458213},{"name":"A3","midi":57,"time":442.49982300000715,"velocity":0.8031496062992126,"duration":0.2756075286458213},{"name":"F#5","midi":78,"time":442.77760066667383,"velocity":0.8031496062992126,"duration":0.2756075286458213},{"name":"D4","midi":62,"time":442.77760066667383,"velocity":0.8031496062992126,"duration":0.2756075286458213},{"name":"A5","midi":81,"time":443.0553783333405,"velocity":0.8031496062992126,"duration":0.2756075286458213},{"name":"F#4","midi":66,"time":443.0553783333405,"velocity":0.8031496062992126,"duration":0.2756075286458213},{"name":"E5","midi":76,"time":443.3331560000072,"velocity":0.8031496062992126,"duration":0.2756075286458213},{"name":"C#4","midi":61,"time":443.3331560000072,"velocity":0.8031496062992126,"duration":0.2756075286458213},{"name":"F#5","midi":78,"time":443.6109336666739,"velocity":0.8031496062992126,"duration":0.2756075286458213},{"name":"D4","midi":62,"time":443.6109336666739,"velocity":0.8031496062992126,"duration":0.2756075286458213},{"name":"A5","midi":81,"time":443.88871133334055,"velocity":0.8031496062992126,"duration":0.2756075286458213},{"name":"F#4","midi":66,"time":443.88871133334055,"velocity":0.8031496062992126,"duration":0.2756075286458213},{"name":"C#5","midi":73,"time":444.16648900000723,"velocity":0.8031496062992126,"duration":0.2756075286458213},{"name":"A3","midi":57,"time":444.16648900000723,"velocity":0.8031496062992126,"duration":0.2756075286458213},{"name":"D5","midi":74,"time":444.4442666666739,"velocity":0.8031496062992126,"duration":0.2756075286458213},{"name":"B3","midi":59,"time":444.4442666666739,"velocity":0.8031496062992126,"duration":0.2756075286458213},{"name":"F#5","midi":78,"time":444.7220443333406,"velocity":0.8031496062992126,"duration":0.2756075286458213},{"name":"D4","midi":62,"time":444.7220443333406,"velocity":0.8031496062992126,"duration":0.2756075286458213},{"name":"C#5","midi":73,"time":444.99982200000727,"velocity":0.8031496062992126,"duration":0.2756075286458213},{"name":"A3","midi":57,"time":444.99982200000727,"velocity":0.8031496062992126,"duration":0.2756075286458213},{"name":"D5","midi":74,"time":445.27759966667395,"velocity":0.8031496062992126,"duration":0.2756075286458213},{"name":"B3","midi":59,"time":445.27759966667395,"velocity":0.8031496062992126,"duration":0.2756075286458213},{"name":"F#5","midi":78,"time":445.55537733334063,"velocity":0.8031496062992126,"duration":0.2756075286458213},{"name":"D4","midi":62,"time":445.55537733334063,"velocity":0.8031496062992126,"duration":0.2756075286458213},{"name":"A4","midi":69,"time":445.8331550000073,"velocity":0.8031496062992126,"duration":0.2756075286458213},{"name":"F#3","midi":54,"time":445.8331550000073,"velocity":0.8031496062992126,"duration":0.2756075286458213},{"name":"B4","midi":71,"time":446.110932666674,"velocity":0.8031496062992126,"duration":0.2756075286458213},{"name":"G3","midi":55,"time":446.110932666674,"velocity":0.8031496062992126,"duration":0.5533851953125009},{"name":"D5","midi":74,"time":446.38871033334067,"velocity":0.8031496062992126,"duration":0.2756075286458213},{"name":"C#5","midi":73,"time":446.66648800000735,"velocity":0.8031496062992126,"duration":0.2756075286458213},{"name":"E3","midi":52,"time":446.66648800000735,"velocity":0.8031496062992126,"duration":0.2756075286458213},{"name":"D5","midi":74,"time":446.944265666674,"velocity":0.8031496062992126,"duration":0.2756075286458213},{"name":"F#3","midi":54,"time":446.944265666674,"velocity":0.8031496062992126,"duration":0.5533851953125009},{"name":"E5","midi":76,"time":447.2220433333407,"velocity":0.8031496062992126,"duration":0.2756075286458213},{"name":"B4","midi":71,"time":447.4998210000074,"velocity":0.8031496062992126,"duration":0.2756075286458213},{"name":"G3","midi":55,"time":447.4998210000074,"velocity":0.8031496062992126,"duration":0.2756075286458213},{"name":"C#5","midi":73,"time":447.77759866667407,"velocity":0.8031496062992126,"duration":0.2756075286458213},{"name":"A3","midi":57,"time":447.77759866667407,"velocity":0.8031496062992126,"duration":0.5533851953125009},{"name":"E5","midi":76,"time":448.05537633334075,"velocity":0.8031496062992126,"duration":0.2756075286458213},{"name":"D5","midi":74,"time":448.3331540000074,"velocity":0.8031496062992126,"duration":0.2756075286458213},{"name":"F#3","midi":54,"time":448.3331540000074,"velocity":0.8031496062992126,"duration":0.2756075286458213},{"name":"E5","midi":76,"time":448.6109316666741,"velocity":0.8031496062992126,"duration":0.2756075286458213},{"name":"G3","midi":55,"time":448.6109316666741,"velocity":0.8031496062992126,"duration":0.5533851953125009},{"name":"F#5","midi":78,"time":448.8887093333408,"velocity":0.8031496062992126,"duration":0.2756075286458213},{"name":"C#5","midi":73,"time":449.16648700000746,"velocity":0.8031496062992126,"duration":0.2756075286458213},{"name":"A3","midi":57,"time":449.16648700000746,"velocity":0.8031496062992126,"duration":0.2756075286458213},{"name":"D5","midi":74,"time":449.44426466667414,"velocity":0.8031496062992126,"duration":0.2756075286458213},{"name":"B3","midi":59,"time":449.44426466667414,"velocity":0.8031496062992126,"duration":0.5533851953125009},{"name":"F#5","midi":78,"time":449.7220423333408,"velocity":0.8031496062992126,"duration":0.2756075286458213},{"name":"E5","midi":76,"time":449.9998200000075,"velocity":0.8031496062992126,"duration":0.2756075286458213},{"name":"C#4","midi":61,"time":449.9998200000075,"velocity":0.8031496062992126,"duration":0.2756075286458213},{"name":"F#5","midi":78,"time":450.2775976666742,"velocity":0.8031496062992126,"duration":0.2756075286458213},{"name":"D4","midi":62,"time":450.2775976666742,"velocity":0.8031496062992126,"duration":0.5533851953125009},{"name":"A5","midi":81,"time":450.55537533334086,"velocity":0.8031496062992126,"duration":0.2756075286458213},{"name":"G5","midi":79,"time":450.83315300000754,"velocity":0.8031496062992126,"duration":0.2756075286458213},{"name":"B3","midi":59,"time":450.83315300000754,"velocity":0.8031496062992126,"duration":0.2756075286458213},{"name":"A5","midi":81,"time":451.1109306666742,"velocity":0.8031496062992126,"duration":0.2756075286458213},{"name":"C#4","midi":61,"time":451.1109306666742,"velocity":0.8031496062992126,"duration":0.2756075286458213},{"name":"E4","midi":64,"time":451.3887083333409,"velocity":0.8031496062992126,"duration":0.2756075286458213},{"name":"A4","midi":69,"time":451.6664860000076,"velocity":0.8031496062992126,"duration":0.2756075286458213},{"name":"C#5","midi":73,"time":451.94426366667426,"velocity":0.8031496062992126,"duration":0.2756075286458213},{"name":"E5","midi":76,"time":452.22204133334094,"velocity":0.8031496062992126,"duration":0.2756075286458213},{"name":"G5","midi":79,"time":452.4998190000076,"velocity":0.8031496062992126,"duration":0.2756075286458213},{"name":"A2","midi":45,"time":452.4998190000076,"velocity":0.8031496062992126,"duration":0.2756075286458213},{"name":"F#5","midi":78,"time":452.7775966666743,"velocity":0.8031496062992126,"duration":0.5533851953125009},{"name":"D3","midi":50,"time":452.7775966666743,"velocity":0.8031496062992126,"duration":0.2756075286458213},{"name":"F#3","midi":54,"time":453.055374333341,"velocity":0.8031496062992126,"duration":0.2756075286458213},{"name":"A4","midi":69,"time":453.33315200000766,"velocity":0.8031496062992126,"duration":0.2756075286458213},{"name":"E5","midi":76,"time":453.33315200000766,"velocity":0.8031496062992126,"duration":0.2756075286458213},{"name":"C#3","midi":49,"time":453.33315200000766,"velocity":0.8031496062992126,"duration":0.2756075286458213},{"name":"A4","midi":69,"time":453.61092966667434,"velocity":0.8031496062992126,"duration":0.5533851953125009},{"name":"F#5","midi":78,"time":453.61092966667434,"velocity":0.8031496062992126,"duration":0.5533851953125009},{"name":"D3","midi":50,"time":453.61092966667434,"velocity":0.8031496062992126,"duration":0.2756075286458213},{"name":"F#3","midi":54,"time":453.888707333341,"velocity":0.8031496062992126,"duration":0.2756075286458213},{"name":"A4","midi":69,"time":454.1664850000077,"velocity":0.8031496062992126,"duration":0.2756075286458213},{"name":"G5","midi":79,"time":454.1664850000077,"velocity":0.8031496062992126,"duration":0.2756075286458213},{"name":"A2","midi":45,"time":454.1664850000077,"velocity":0.8031496062992126,"duration":0.2756075286458213},{"name":"F#5","midi":78,"time":454.4442626666744,"velocity":0.8031496062992126,"duration":0.5533851953125009},{"name":"A4","midi":69,"time":454.4442626666744,"velocity":0.8031496062992126,"duration":0.5533851953125009},{"name":"D3","midi":50,"time":454.4442626666744,"velocity":0.8031496062992126,"duration":0.2756075286458213},{"name":"F#3","midi":54,"time":454.72204033334106,"velocity":0.8031496062992126,"duration":0.2756075286458213},{"name":"E5","midi":76,"time":454.99981800000774,"velocity":0.8031496062992126,"duration":0.2756075286458213},{"name":"A4","midi":69,"time":454.99981800000774,"velocity":0.8031496062992126,"duration":0.2756075286458213},{"name":"C#3","midi":49,"time":454.99981800000774,"velocity":0.8031496062992126,"duration":0.2756075286458213},{"name":"D5","midi":74,"time":455.2775956666744,"velocity":0.8031496062992126,"duration":4.166665000000194},{"name":"A4","midi":69,"time":455.2775956666744,"velocity":0.8031496062992126,"duration":0.5533851953125009},{"name":"D3","midi":50,"time":455.2775956666744,"velocity":0.8031496062992126,"duration":0.2756075286458213},{"name":"F#3","midi":54,"time":455.5553733333411,"velocity":0.8031496062992126,"duration":0.2756075286458213},{"name":"F#4","midi":66,"time":455.8331510000078,"velocity":0.8031496062992126,"duration":0.2756075286458213},{"name":"A2","midi":45,"time":455.8331510000078,"velocity":0.8031496062992126,"duration":0.2756075286458213},{"name":"D4","midi":62,"time":456.11092866667445,"velocity":0.8031496062992126,"duration":0.2756075286458213},{"name":"B2","midi":47,"time":456.11092866667445,"velocity":0.8031496062992126,"duration":0.2756075286458213},{"name":"G4","midi":67,"time":456.38870633334113,"velocity":0.8031496062992126,"duration":0.2756075286458213},{"name":"G2","midi":43,"time":456.38870633334113,"velocity":0.8031496062992126,"duration":0.2756075286458213},{"name":"B4","midi":71,"time":456.6664840000078,"velocity":0.8031496062992126,"duration":0.2756075286458213},{"name":"D2","midi":38,"time":456.6664840000078,"velocity":0.8031496062992126,"duration":0.2756075286458213},{"name":"B4","midi":71,"time":456.9442616666745,"velocity":0.8031496062992126,"duration":0.2756075286458213},{"name":"D3","midi":50,"time":456.9442616666745,"velocity":0.8031496062992126,"duration":0.4123262239583596},{"name":"G4","midi":67,"time":457.2220393333412,"velocity":0.8031496062992126,"duration":0.2756075286458213},{"name":"D4","midi":62,"time":457.49981700000785,"velocity":0.8031496062992126,"duration":0.2756075286458213},{"name":"G2","midi":43,"time":457.49981700000785,"velocity":0.8031496062992126,"duration":0.2756075286458213},{"name":"D4","midi":62,"time":457.77759466667453,"velocity":0.8031496062992126,"duration":0.2756075286458213},{"name":"A2","midi":45,"time":457.77759466667453,"velocity":0.8031496062992126,"duration":0.2756075286458213},{"name":"F#4","midi":66,"time":458.0553723333412,"velocity":0.8031496062992126,"duration":0.2756075286458213},{"name":"F#2","midi":42,"time":458.0553723333412,"velocity":0.8031496062992126,"duration":0.2756075286458213},{"name":"A4","midi":69,"time":458.3331500000079,"velocity":0.8031496062992126,"duration":0.2756075286458213},{"name":"D2","midi":38,"time":458.3331500000079,"velocity":0.8031496062992126,"duration":0.2756075286458213},{"name":"A4","midi":69,"time":458.61092766667457,"velocity":0.8031496062992126,"duration":0.2756075286458213},{"name":"D3","midi":50,"time":458.61092766667457,"velocity":0.8031496062992126,"duration":0.4123262239583596},{"name":"F#4","midi":66,"time":458.88870533334125,"velocity":0.8031496062992126,"duration":0.2756075286458213},{"name":"D4","midi":62,"time":459.16648300000793,"velocity":0.8031496062992126,"duration":0.2756075286458213},{"name":"F#2","midi":42,"time":459.16648300000793,"velocity":0.8031496062992126,"duration":0.2756075286458213},{"name":"E4","midi":64,"time":459.4442606666746,"velocity":0.8031496062992126,"duration":2.2092005052084005},{"name":"G2","midi":43,"time":459.4442606666746,"velocity":0.8031496062992126,"duration":0.2756075286458213},{"name":"A2","midi":45,"time":459.7220383333413,"velocity":0.8031496062992126,"duration":0.2756075286458213},{"name":"D5","midi":74,"time":459.99981600000797,"velocity":0.8031496062992126,"duration":0.2756075286458213},{"name":"B2","midi":47,"time":459.99981600000797,"velocity":0.8031496062992126,"duration":0.2756075286458213},{"name":"C#5","midi":73,"time":460.27759366667465,"velocity":0.8031496062992126,"duration":0.5533851953125009},{"name":"A2","midi":45,"time":460.27759366667465,"velocity":0.8031496062992126,"duration":0.2756075286458213},{"name":"B2","midi":47,"time":460.5553713333413,"velocity":0.8031496062992126,"duration":0.2756075286458213},{"name":"B4","midi":71,"time":460.833149000008,"velocity":0.8031496062992126,"duration":0.2756075286458213},{"name":"A2","midi":45,"time":460.833149000008,"velocity":0.8031496062992126,"duration":0.2756075286458213},{"name":"A4","midi":69,"time":461.1109266666747,"velocity":0.8031496062992126,"duration":0.8246524479167192},{"name":"F#2","midi":42,"time":461.1109266666747,"velocity":0.8031496062992126,"duration":0.2756075286458213},{"name":"G2","midi":43,"time":461.38870433334137,"velocity":0.8031496062992126,"duration":0.2756075286458213},{"name":"D4","midi":62,"time":461.66648200000805,"velocity":0.8031496062992126,"duration":1.664495861979276},{"name":"A2","midi":45,"time":461.66648200000805,"velocity":0.8031496062992126,"duration":0.2756075286458781},{"name":"B4","midi":71,"time":461.9442596666748,"velocity":0.8031496062992126,"duration":0.5533851953125009},{"name":"G2","midi":43,"time":461.9442596666748,"velocity":0.8031496062992126,"duration":0.2756075286458213},{"name":"A2","midi":45,"time":462.22203733334146,"velocity":0.8031496062992126,"duration":0.2756075286458213},{"name":"A4","midi":69,"time":462.49981500000814,"velocity":0.8031496062992126,"duration":0.2756075286458213},{"name":"F#2","midi":42,"time":462.49981500000814,"velocity":0.8031496062992126,"duration":0.2756075286458213},{"name":"G4","midi":67,"time":462.7775926666748,"velocity":0.8031496062992126,"duration":0.8246524479167192},{"name":"E2","midi":40,"time":462.7775926666748,"velocity":0.8031496062992126,"duration":0.2756075286458213},{"name":"F#2","midi":42,"time":463.0553703333415,"velocity":0.8031496062992126,"duration":0.2756075286458213},{"name":"C#4","midi":61,"time":463.3331480000082,"velocity":0.8031496062992126,"duration":1.1067703906250586},{"name":"G2","midi":43,"time":463.3331480000082,"velocity":0.8031496062992126,"duration":0.2756075286458781},{"name":"A4","midi":69,"time":463.6109256666749,"velocity":0.8031496062992126,"duration":0.5533851953125009},{"name":"F#2","midi":42,"time":463.6109256666749,"velocity":0.8031496062992126,"duration":0.2756075286458213},{"name":"G2","midi":43,"time":463.8887033333416,"velocity":0.8031496062992126,"duration":0.2756075286458213},{"name":"G4","midi":67,"time":464.1664810000083,"velocity":0.8031496062992126,"duration":0.19531242187497355},{"name":"E2","midi":40,"time":464.1664810000083,"velocity":0.8031496062992126,"duration":0.2756075286458213},{"name":"F#4","midi":66,"time":464.44425866667495,"velocity":0.8031496062992126,"duration":0.5533851953125009},{"name":"D2","midi":38,"time":464.44425866667495,"velocity":0.8031496062992126,"duration":0.5533851953125009},{"name":"D4","midi":62,"time":464.72203633334163,"velocity":0.8031496062992126,"duration":0.8246524479167192},{"name":"G4","midi":67,"time":464.9998140000083,"velocity":0.8031496062992126,"duration":0.2756075286458213},{"name":"E2","midi":40,"time":464.9998140000083,"velocity":0.8031496062992126,"duration":0.2756075286458213},{"name":"A4","midi":69,"time":465.277591666675,"velocity":0.8031496062992126,"duration":0.5533851953125009},{"name":"F#2","midi":42,"time":465.277591666675,"velocity":0.8031496062992126,"duration":0.5533851953125009},{"name":"D4","midi":62,"time":465.5553693333417,"velocity":0.8031496062992126,"duration":0.5533851953125577},{"name":"B4","midi":71,"time":465.83314700000835,"velocity":0.8031496062992126,"duration":0.23871518229168487},{"name":"G2","midi":43,"time":465.83314700000835,"velocity":0.8031496062992126,"duration":0.2756075286458781},{"name":"C#4","midi":61,"time":466.1109246666751,"velocity":0.8031496062992126,"duration":0.5533851953125009},{"name":"A2","midi":45,"time":466.1109246666751,"velocity":0.8031496062992126,"duration":0.5533851953125009},{"name":"A3","midi":57,"time":466.38870233334177,"velocity":0.8031496062992126,"duration":0.8246524479167192},{"name":"D4","midi":62,"time":466.66648000000845,"velocity":0.8031496062992126,"duration":0.2756075286458213},{"name":"B2","midi":47,"time":466.66648000000845,"velocity":0.8031496062992126,"duration":0.2756075286458213},{"name":"E4","midi":64,"time":466.9442576666751,"velocity":0.8031496062992126,"duration":0.5533851953125009},{"name":"C#3","midi":49,"time":466.9442576666751,"velocity":0.8031496062992126,"duration":0.5533851953125009},{"name":"A3","midi":57,"time":467.2220353333418,"velocity":0.8031496062992126,"duration":0.5533851953125577},{"name":"F#4","midi":66,"time":467.4998130000085,"velocity":0.8031496062992126,"duration":0.23871518229168487},{"name":"D3","midi":50,"time":467.4998130000085,"velocity":0.8031496062992126,"duration":0.2756075286458781},{"name":"G4","midi":67,"time":467.7775906666752,"velocity":0.8031496062992126,"duration":0.5533851953125009},{"name":"E2","midi":40,"time":467.7775906666752,"velocity":0.8031496062992126,"duration":0.5533851953125009},{"name":"E4","midi":64,"time":468.0553683333419,"velocity":0.8031496062992126,"duration":0.8246524479167192},{"name":"A4","midi":69,"time":468.3331460000086,"velocity":0.8031496062992126,"duration":0.2756075286458213},{"name":"F#2","midi":42,"time":468.3331460000086,"velocity":0.8031496062992126,"duration":0.2756075286458213},{"name":"B4","midi":71,"time":468.61092366667526,"velocity":0.8031496062992126,"duration":0.5533851953125009},{"name":"G2","midi":43,"time":468.61092366667526,"velocity":0.8031496062992126,"duration":0.5533851953125009},{"name":"E4","midi":64,"time":468.88870133334194,"velocity":0.8031496062992126,"duration":0.5533851953125577},{"name":"C#5","midi":73,"time":469.1664790000086,"velocity":0.8031496062992126,"duration":0.23871518229168487},{"name":"A2","midi":45,"time":469.1664790000086,"velocity":0.8031496062992126,"duration":0.2756075286458781},{"name":"D4","midi":62,"time":469.44425666667536,"velocity":0.8031496062992126,"duration":0.5533851953125009},{"name":"B2","midi":47,"time":469.44425666667536,"velocity":0.8031496062992126,"duration":0.5533851953125009},{"name":"B3","midi":59,"time":469.72203433334204,"velocity":0.8031496062992126,"duration":0.8246524479167192},{"name":"E4","midi":64,"time":469.9998120000087,"velocity":0.8031496062992126,"duration":0.2756075286458213},{"name":"C#3","midi":49,"time":469.9998120000087,"velocity":0.8031496062992126,"duration":0.2756075286458213},{"name":"F#4","midi":66,"time":470.2775896666754,"velocity":0.8031496062992126,"duration":0.5533851953125009},{"name":"D3","midi":50,"time":470.2775896666754,"velocity":0.8031496062992126,"duration":0.5533851953125009},{"name":"B3","midi":59,"time":470.5553673333421,"velocity":0.8031496062992126,"duration":0.5533851953125009},{"name":"G4","midi":67,"time":470.83314500000876,"velocity":0.8031496062992126,"duration":0.2604165624999837},{"name":"E3","midi":52,"time":470.83314500000876,"velocity":0.8031496062992126,"duration":0.2756075286458213},{"name":"A4","midi":69,"time":471.11092266667544,"velocity":0.8031496062992126,"duration":3.320311171875119},{"name":"F#3","midi":54,"time":471.11092266667544,"velocity":0.8031496062992126,"duration":0.5533851953125009},{"name":"F#4","midi":66,"time":471.3887003333421,"velocity":0.8031496062992126,"duration":0.2756075286458213},{"name":"C#4","midi":61,"time":471.6664780000088,"velocity":0.8031496062992126,"duration":0.2756075286458213},{"name":"G3","midi":55,"time":471.6664780000088,"velocity":0.8031496062992126,"duration":0.2756075286458213},{"name":"D4","midi":62,"time":471.9442556666755,"velocity":0.8031496062992126,"duration":0.2756075286458213},{"name":"F#3","midi":54,"time":471.9442556666755,"velocity":0.8031496062992126,"duration":0.5533851953125009},{"name":"F#4","midi":66,"time":472.22203333334215,"velocity":0.8031496062992126,"duration":0.2756075286458213},{"name":"A3","midi":57,"time":472.49981100000883,"velocity":0.8031496062992126,"duration":0.2756075286458213},{"name":"E3","midi":52,"time":472.49981100000883,"velocity":0.8031496062992126,"duration":0.2756075286458213},{"name":"D4","midi":62,"time":472.7775886666755,"velocity":0.8031496062992126,"duration":0.2756075286458213},{"name":"F#3","midi":54,"time":472.7775886666755,"velocity":0.8031496062992126,"duration":0.5533851953125009},{"name":"F#4","midi":66,"time":473.0553663333422,"velocity":0.8031496062992126,"duration":0.2756075286458213},{"name":"C#4","midi":61,"time":473.3331440000089,"velocity":0.8031496062992126,"duration":0.2756075286458213},{"name":"G3","midi":55,"time":473.3331440000089,"velocity":0.8031496062992126,"duration":0.2756075286458213},{"name":"D4","midi":62,"time":473.61092166667555,"velocity":0.8031496062992126,"duration":0.2756075286458213},{"name":"F#3","midi":54,"time":473.61092166667555,"velocity":0.8031496062992126,"duration":0.5533851953125009},{"name":"F#4","midi":66,"time":473.88869933334223,"velocity":0.8031496062992126,"duration":0.2756075286458213},{"name":"A3","midi":57,"time":474.1664770000089,"velocity":0.8031496062992126,"duration":0.2756075286458213},{"name":"E3","midi":52,"time":474.1664770000089,"velocity":0.8031496062992126,"duration":0.2756075286458213},{"name":"B3","midi":59,"time":474.4442546666756,"velocity":0.8031496062992126,"duration":0.2756075286458213},{"name":"D3","midi":50,"time":474.4442546666756,"velocity":0.8031496062992126,"duration":0.2756075286458213},{"name":"G4","midi":67,"time":474.72203233334227,"velocity":0.8031496062992126,"duration":0.2756075286458213},{"name":"G3","midi":55,"time":474.72203233334227,"velocity":0.8031496062992126,"duration":0.2756075286458213},{"name":"D4","midi":62,"time":474.99981000000895,"velocity":0.8031496062992126,"duration":0.2756075286458213},{"name":"B3","midi":59,"time":474.99981000000895,"velocity":0.8031496062992126,"duration":0.2756075286458213},{"name":"D5","midi":74,"time":475.27758766667563,"velocity":0.8031496062992126,"duration":0.4123262239583596},{"name":"B3","midi":59,"time":475.27758766667563,"velocity":0.8031496062992126,"duration":0.2756075286458213},{"name":"G3","midi":55,"time":475.5553653333423,"velocity":0.8031496062992126,"duration":0.2756075286458213},{"name":"G4","midi":67,"time":475.833143000009,"velocity":0.8031496062992126,"duration":0.2756075286458213},{"name":"D3","midi":50,"time":475.833143000009,"velocity":0.8031496062992126,"duration":0.2756075286458213},{"name":"A4","midi":69,"time":476.11092066667567,"velocity":0.8031496062992126,"duration":0.2756075286458213},{"name":"D3","midi":50,"time":476.11092066667567,"velocity":0.8031496062992126,"duration":0.2756075286458213},{"name":"F#4","midi":66,"time":476.38869833334235,"velocity":0.8031496062992126,"duration":0.2756075286458213},{"name":"F#3","midi":54,"time":476.38869833334235,"velocity":0.8031496062992126,"duration":0.2756075286458213},{"name":"D4","midi":62,"time":476.666476000009,"velocity":0.8031496062992126,"duration":0.2756075286458213},{"name":"A3","midi":57,"time":476.666476000009,"velocity":0.8031496062992126,"duration":0.2756075286458213},{"name":"D5","midi":74,"time":476.9442536666757,"velocity":0.8031496062992126,"duration":0.4123262239583596},{"name":"A3","midi":57,"time":476.9442536666757,"velocity":0.8031496062992126,"duration":0.2756075286458213},{"name":"F#3","midi":54,"time":477.2220313333424,"velocity":0.8031496062992126,"duration":0.2756075286458213},{"name":"F#4","midi":66,"time":477.49980900000907,"velocity":0.8031496062992126,"duration":0.2756075286458213},{"name":"D3","midi":50,"time":477.49980900000907,"velocity":0.8031496062992126,"duration":0.2756075286458213},{"name":"G4","midi":67,"time":477.77758666667575,"velocity":0.8031496062992126,"duration":0.2756075286458213},{"name":"E3","midi":52,"time":477.77758666667575,"velocity":0.8031496062992126,"duration":0.8311628619791804},{"name":"D3","midi":50,"time":477.77758666667575,"velocity":0.8031496062992126,"duration":0.8311628619791804},{"name":"A4","midi":69,"time":478.0553643333424,"velocity":0.8031496062992126,"duration":0.2756075286458213},{"name":"B4","midi":71,"time":478.3331420000091,"velocity":0.8031496062992126,"duration":0.2756075286458213},{"name":"A4","midi":69,"time":478.6109196666758,"velocity":0.8031496062992126,"duration":0.2756075286458213},{"name":"E3","midi":52,"time":478.6109196666758,"velocity":0.8031496062992126,"duration":0.8311628619791804},{"name":"C#3","midi":49,"time":478.6109196666758,"velocity":0.8031496062992126,"duration":0.8311628619791804},{"name":"B4","midi":71,"time":478.88869733334246,"velocity":0.8031496062992126,"duration":0.2756075286458213},{"name":"G4","midi":67,"time":479.16647500000914,"velocity":0.8031496062992126,"duration":0.2756075286458213},{"name":"F#4","midi":66,"time":479.4442526666758,"velocity":0.8031496062992126,"duration":0.2756075286458213},{"name":"D3","midi":50,"time":479.4442526666758,"velocity":0.8031496062992126,"duration":0.5533851953125009},{"name":"A4","midi":69,"time":479.7220303333425,"velocity":0.8031496062992126,"duration":0.2756075286458213},{"name":"G4","midi":67,"time":479.9998080000092,"velocity":0.8031496062992126,"duration":0.2756075286458213},{"name":"E3","midi":52,"time":479.9998080000092,"velocity":0.8031496062992126,"duration":0.2756075286458213},{"name":"A4","midi":69,"time":480.27758566667586,"velocity":0.8031496062992126,"duration":0.2756075286458213},{"name":"F#3","midi":54,"time":480.27758566667586,"velocity":0.8031496062992126,"duration":0.5533851953125009},{"name":"C#5","midi":73,"time":480.55536333334254,"velocity":0.8031496062992126,"duration":0.2756075286458213},{"name":"B4","midi":71,"time":480.8331410000092,"velocity":0.8031496062992126,"duration":0.2756075286458213},{"name":"G3","midi":55,"time":480.8331410000092,"velocity":0.8031496062992126,"duration":0.2756075286458213},{"name":"C#5","midi":73,"time":481.1109186666759,"velocity":0.8031496062992126,"duration":0.2756075286458213},{"name":"A3","midi":57,"time":481.1109186666759,"velocity":0.8031496062992126,"duration":0.2756075286458213},{"name":"E5","midi":76,"time":481.3886963333426,"velocity":0.8031496062992126,"duration":0.2756075286458213},{"name":"C#4","midi":61,"time":481.3886963333426,"velocity":0.8031496062992126,"duration":0.2756075286458213},{"name":"G5","midi":79,"time":481.66647400000926,"velocity":0.8031496062992126,"duration":0.2756075286458213},{"name":"A3","midi":57,"time":481.66647400000926,"velocity":0.8031496062992126,"duration":0.2756075286458213},{"name":"G5","midi":79,"time":481.94425166667594,"velocity":0.8031496062992126,"duration":0.2756075286458213},{"name":"E3","midi":52,"time":481.94425166667594,"velocity":0.8031496062992126,"duration":0.2756075286458213},{"name":"E5","midi":76,"time":482.2220293333426,"velocity":0.8031496062992126,"duration":0.2756075286458213},{"name":"A3","midi":57,"time":482.2220293333426,"velocity":0.8031496062992126,"duration":0.2756075286458213},{"name":"C#5","midi":73,"time":482.4998070000093,"velocity":0.8031496062992126,"duration":0.2756075286458213},{"name":"E3","midi":52,"time":482.4998070000093,"velocity":0.8031496062992126,"duration":0.2756075286458213},{"name":"A4","midi":69,"time":482.777584666676,"velocity":0.8031496062992126,"duration":0.2756075286458213},{"name":"C#3","midi":49,"time":482.777584666676,"velocity":0.8031496062992126,"duration":0.2756075286458213},{"name":"C#5","midi":73,"time":483.05536233334266,"velocity":0.8031496062992126,"duration":0.2756075286458213},{"name":"E3","midi":52,"time":483.05536233334266,"velocity":0.8031496062992126,"duration":0.2756075286458213},{"name":"E5","midi":76,"time":483.33314000000934,"velocity":0.8031496062992126,"duration":0.2756075286458213},{"name":"C#3","midi":49,"time":483.33314000000934,"velocity":0.8031496062992126,"duration":0.2756075286458213},{"name":"G5","midi":79,"time":483.610917666676,"velocity":0.8031496062992126,"duration":0.2756075286458213},{"name":"A2","midi":45,"time":483.610917666676,"velocity":0.8031496062992126,"duration":0.2756075286458213},{"name":"F#5","midi":78,"time":483.8886953333427,"velocity":0.8031496062992126,"duration":0.2756075286458213},{"name":"B2","midi":47,"time":483.8886953333427,"velocity":0.8031496062992126,"duration":0.2756075286458213},{"name":"E5","midi":76,"time":484.1664730000094,"velocity":0.8031496062992126,"duration":0.2756075286458213},{"name":"C#3","midi":49,"time":484.1664730000094,"velocity":0.8031496062992126,"duration":0.2756075286458213},{"name":"F#5","midi":78,"time":484.44425066667606,"velocity":0.8031496062992126,"duration":0.2756075286458213},{"name":"D3","midi":50,"time":484.44425066667606,"velocity":0.8031496062992126,"duration":0.5533851953125009},{"name":"E5","midi":76,"time":484.72202833334273,"velocity":0.8031496062992126,"duration":0.2756075286458213},{"name":"B4","midi":71,"time":484.9998060000094,"velocity":0.8031496062992126,"duration":0.2756075286458213},{"name":"D5","midi":74,"time":484.9998060000094,"velocity":0.8031496062992126,"duration":0.5533851953125009},{"name":"G3","midi":55,"time":484.9998060000094,"velocity":0.8031496062992126,"duration":0.2756075286458213},{"name":"A4","midi":69,"time":485.2775836666761,"velocity":0.8031496062992126,"duration":0.5533851953125009},{"name":"A3","midi":57,"time":485.2775836666761,"velocity":0.8031496062992126,"duration":0.5533851953125009},{"name":"E5","midi":76,"time":485.5553613333428,"velocity":0.8031496062992126,"duration":0.2756075286458213},{"name":"G4","midi":67,"time":485.83313900000945,"velocity":0.8031496062992126,"duration":0.5533851953125009},{"name":"C#5","midi":73,"time":485.83313900000945,"velocity":0.8031496062992126,"duration":0.2756075286458213},{"name":"A2","midi":45,"time":485.83313900000945,"velocity":0.8031496062992126,"duration":0.2756075286458213},{"name":"D5","midi":74,"time":486.11091666667613,"velocity":0.8031496062992126,"duration":1.2803814322917333},{"name":"D2","midi":38,"time":486.11091666667613,"velocity":0.8031496062992126,"duration":1.1089405286459169},{"name":"A4","midi":69,"time":486.3886943333428,"velocity":0.8031496062992126,"duration":0.8246524479167192},{"name":"F#2","midi":42,"time":486.3886943333428,"velocity":0.8031496062992126,"duration":0.2756075286458213},{"name":"F#4","midi":66,"time":486.6664720000095,"velocity":0.8031496062992126,"duration":0.5533851953125577},{"name":"A2","midi":45,"time":486.6664720000095,"velocity":0.8031496062992126,"duration":0.2756075286458213},{"name":"D4","midi":62,"time":486.94424966667617,"velocity":0.8031496062992126,"duration":0.2756075286458781},{"name":"D3","midi":50,"time":486.94424966667617,"velocity":0.8031496062992126,"duration":0.48828105468754757},{"name":"A3","midi":57,"time":487.49980500000953,"velocity":0.8031496062992126,"duration":0.2756075286458213},{"name":"F#3","midi":54,"time":487.7775826666762,"velocity":0.8031496062992126,"duration":0.2756075286458213},{"name":"D3","midi":50,"time":488.0553603333429,"velocity":0.8031496062992126,"duration":0.2756075286458213},{"name":"G3","midi":55,"time":488.33313800000957,"velocity":0.8031496062992126,"duration":0.2756075286458213},{"name":"F#3","midi":54,"time":488.61091566667625,"velocity":0.8031496062992126,"duration":0.2756075286458213},{"name":"D3","midi":50,"time":488.8886933333429,"velocity":0.8031496062992126,"duration":0.2756075286458213},{"name":"A3","midi":57,"time":489.1664710000096,"velocity":0.8031496062992126,"duration":0.2756075286458213},{"name":"F#3","midi":54,"time":489.4442486666763,"velocity":0.8031496062992126,"duration":0.2756075286458213},{"name":"D3","midi":50,"time":489.72202633334297,"velocity":0.8031496062992126,"duration":0.2756075286458213},{"name":"G3","midi":55,"time":489.99980400000965,"velocity":0.8031496062992126,"duration":0.2756075286458213},{"name":"F#3","midi":54,"time":490.2775816666763,"velocity":0.8031496062992126,"duration":0.2756075286458213},{"name":"D3","midi":50,"time":490.555359333343,"velocity":0.8031496062992126,"duration":0.2756075286458213},{"name":"A3","midi":57,"time":490.8331370000097,"velocity":0.8031496062992126,"duration":0.2756075286458213},{"name":"F#3","midi":54,"time":491.11091466667636,"velocity":0.8031496062992126,"duration":0.2756075286458213},{"name":"A3","midi":57,"time":491.38869233334304,"velocity":0.8031496062992126,"duration":0.2756075286458213},{"name":"C4","midi":60,"time":491.6664700000097,"velocity":0.8031496062992126,"duration":0.2756075286458213},{"name":"D3","midi":50,"time":491.9442476666764,"velocity":0.8031496062992126,"duration":0.4123262239583596},{"name":"B3","midi":59,"time":492.49980300000976,"velocity":0.8031496062992126,"duration":0.2756075286458213},{"name":"G3","midi":55,"time":492.77758066667644,"velocity":0.8031496062992126,"duration":0.2756075286458213},{"name":"B3","midi":59,"time":493.0553583333431,"velocity":0.8031496062992126,"duration":0.2756075286458213},{"name":"D4","midi":62,"time":493.3331360000098,"velocity":0.8031496062992126,"duration":0.2756075286458213},{"name":"E3","midi":52,"time":493.6109136666765,"velocity":0.8031496062992126,"duration":0.4123262239583596},{"name":"C4","midi":60,"time":494.16646900000984,"velocity":0.8031496062992126,"duration":0.2756075286458213},{"name":"A3","midi":57,"time":494.4442466666765,"velocity":0.8031496062992126,"duration":0.2756075286458213},{"name":"C4","midi":60,"time":494.7220243333432,"velocity":0.8031496062992126,"duration":0.2756075286458213},{"name":"E4","midi":64,"time":494.9998020000099,"velocity":0.8031496062992126,"duration":0.2756075286458213},{"name":"F#3","midi":54,"time":495.27757966667656,"velocity":0.8031496062992126,"duration":0.2756075286458213},{"name":"D4","midi":62,"time":495.55535733334324,"velocity":0.8031496062992126,"duration":0.2756075286458213},{"name":"C4","midi":60,"time":495.8331350000099,"velocity":0.8031496062992126,"duration":0.2756075286458213},{"name":"B3","midi":59,"time":496.1109126666766,"velocity":0.8031496062992126,"duration":0.2756075286458213},{"name":"G3","midi":55,"time":496.3886903333433,"velocity":0.8031496062992126,"duration":0.2756075286458213},{"name":"D3","midi":50,"time":496.66646800000996,"velocity":0.8031496062992126,"duration":0.2756075286458213},{"name":"G3","midi":55,"time":496.94424566667664,"velocity":0.8031496062992126,"duration":0.2756075286458213},{"name":"D3","midi":50,"time":497.2220233333433,"velocity":0.8031496062992126,"duration":0.2756075286458213},{"name":"D4","midi":62,"time":497.49980100001,"velocity":0.8031496062992126,"duration":0.2756075286458213},{"name":"B2","midi":47,"time":497.49980100001,"velocity":0.8031496062992126,"duration":0.2756075286458213},{"name":"B3","midi":59,"time":497.7775786666767,"velocity":0.8031496062992126,"duration":0.2756075286458213},{"name":"G2","midi":43,"time":497.7775786666767,"velocity":0.8031496062992126,"duration":0.5533851953125009},{"name":"G3","midi":55,"time":498.05535633334335,"velocity":0.8031496062992126,"duration":0.2756075286458213},{"name":"C4","midi":60,"time":498.33313400001003,"velocity":0.8031496062992126,"duration":0.2756075286458213},{"name":"E3","midi":52,"time":498.33313400001003,"velocity":0.8031496062992126,"duration":0.2756075286458213},{"name":"B3","midi":59,"time":498.6109116666767,"velocity":0.8031496062992126,"duration":0.2756075286458213},{"name":"D3","midi":50,"time":498.6109116666767,"velocity":0.8031496062992126,"duration":0.5533851953125009},{"name":"G3","midi":55,"time":498.8886893333434,"velocity":0.8031496062992126,"duration":0.2756075286458213},{"name":"D4","midi":62,"time":499.1664670000101,"velocity":0.8031496062992126,"duration":0.2756075286458213},{"name":"F#2","midi":42,"time":499.1664670000101,"velocity":0.8031496062992126,"duration":0.2756075286458213},{"name":"B3","midi":59,"time":499.44424466667675,"velocity":0.8031496062992126,"duration":0.2756075286458213},{"name":"G2","midi":43,"time":499.44424466667675,"velocity":0.8031496062992126,"duration":0.5533851953125009},{"name":"G3","midi":55,"time":499.72202233334343,"velocity":0.8031496062992126,"duration":0.2756075286458213},{"name":"C4","midi":60,"time":499.9998000000101,"velocity":0.8031496062992126,"duration":0.2756075286458213},{"name":"E3","midi":52,"time":499.9998000000101,"velocity":0.8031496062992126,"duration":0.2756075286458213},{"name":"B3","midi":59,"time":500.2775776666768,"velocity":0.8031496062992126,"duration":0.2756075286458213},{"name":"D3","midi":50,"time":500.2775776666768,"velocity":0.8031496062992126,"duration":0.5533851953125009},{"name":"G3","midi":55,"time":500.55535533334347,"velocity":0.8031496062992126,"duration":0.2756075286458213},{"name":"D4","midi":62,"time":500.83313300001015,"velocity":0.8031496062992126,"duration":0.2756075286458213},{"name":"F#2","midi":42,"time":500.83313300001015,"velocity":0.8031496062992126,"duration":0.2756075286458213},{"name":"B3","midi":59,"time":501.11091066667683,"velocity":0.8031496062992126,"duration":0.2756075286458213},{"name":"G2","midi":43,"time":501.11091066667683,"velocity":0.8031496062992126,"duration":0.2756075286458213},{"name":"D4","midi":62,"time":501.3886883333435,"velocity":0.8031496062992126,"duration":0.2756075286458213},{"name":"B2","midi":47,"time":501.3886883333435,"velocity":0.8031496062992126,"duration":0.2756075286458213},{"name":"F4","midi":65,"time":501.6664660000102,"velocity":0.8031496062992126,"duration":0.2756075286458213},{"name":"D3","midi":50,"time":501.6664660000102,"velocity":0.8031496062992126,"duration":0.2756075286458213},{"name":"G3","midi":55,"time":501.94424366667687,"velocity":0.8031496062992126,"duration":0.4123262239583596},{"name":"B2","midi":47,"time":501.94424366667687,"velocity":0.8031496062992126,"duration":0.2756075286458213},{"name":"G2","midi":43,"time":502.22202133334355,"velocity":0.8031496062992126,"duration":0.2756075286458213},{"name":"E4","midi":64,"time":502.4997990000102,"velocity":0.8031496062992126,"duration":0.2756075286458213},{"name":"C3","midi":48,"time":502.4997990000102,"velocity":0.8031496062992126,"duration":0.2756075286458213},{"name":"C4","midi":60,"time":502.7775766666769,"velocity":0.8031496062992126,"duration":0.2756075286458213},{"name":"A2","midi":45,"time":502.7775766666769,"velocity":0.8031496062992126,"duration":0.2756075286458213},{"name":"E4","midi":64,"time":503.0553543333436,"velocity":0.8031496062992126,"duration":0.2756075286458213},{"name":"C3","midi":48,"time":503.0553543333436,"velocity":0.8031496062992126,"duration":0.2756075286458213},{"name":"G4","midi":67,"time":503.33313200001027,"velocity":0.8031496062992126,"duration":0.2756075286458213},{"name":"E3","midi":52,"time":503.33313200001027,"velocity":0.8031496062992126,"duration":0.2756075286458213},{"name":"A3","midi":57,"time":503.61090966667695,"velocity":0.8031496062992126,"duration":0.4123262239583596},{"name":"C3","midi":48,"time":503.61090966667695,"velocity":0.8031496062992126,"duration":0.2756075286458213},{"name":"A2","midi":45,"time":503.8886873333436,"velocity":0.8031496062992126,"duration":0.2756075286458213},{"name":"F4","midi":65,"time":504.1664650000103,"velocity":0.8031496062992126,"duration":0.2756075286458213},{"name":"D3","midi":50,"time":504.1664650000103,"velocity":0.8031496062992126,"duration":0.2756075286458213},{"name":"D4","midi":62,"time":504.444242666677,"velocity":0.8031496062992126,"duration":0.2756075286458213},{"name":"B2","midi":47,"time":504.444242666677,"velocity":0.8031496062992126,"duration":0.2756075286458213},{"name":"F4","midi":65,"time":504.72202033334366,"velocity":0.8031496062992126,"duration":0.2756075286458213},{"name":"D3","midi":50,"time":504.72202033334366,"velocity":0.8031496062992126,"duration":0.2756075286458213},{"name":"A4","midi":69,"time":504.99979800001034,"velocity":0.8031496062992126,"duration":0.2756075286458213},{"name":"F3","midi":53,"time":504.99979800001034,"velocity":0.8031496062992126,"duration":0.2756075286458213},{"name":"B3","midi":59,"time":505.277575666677,"velocity":0.8031496062992126,"duration":0.2756075286458213},{"name":"D3","midi":50,"time":505.277575666677,"velocity":0.8031496062992126,"duration":0.2756075286458213},{"name":"G4","midi":67,"time":505.5553533333437,"velocity":0.8031496062992126,"duration":0.2756075286458213},{"name":"B2","midi":47,"time":505.5553533333437,"velocity":0.8031496062992126,"duration":0.2756075286458213},{"name":"F4","midi":65,"time":505.8331310000104,"velocity":0.8031496062992126,"duration":0.2756075286458213},{"name":"D3","midi":50,"time":505.8331310000104,"velocity":0.8031496062992126,"duration":0.2756075286458213},{"name":"E4","midi":64,"time":506.11090866667706,"velocity":0.8031496062992126,"duration":0.5533851953125009},{"name":"C3","midi":48,"time":506.11090866667706,"velocity":0.8031496062992126,"duration":0.2756075286458213},{"name":"E3","midi":52,"time":506.38868633334374,"velocity":0.8031496062992126,"duration":0.2756075286458213},{"name":"G3","midi":55,"time":506.6664640000104,"velocity":0.8031496062992126,"duration":0.2756075286458213},{"name":"E3","midi":52,"time":506.9442416666771,"velocity":0.8031496062992126,"duration":0.2756075286458213},{"name":"C3","midi":48,"time":507.2220193333438,"velocity":0.8031496062992126,"duration":0.2756075286458213},{"name":"C4","midi":60,"time":507.49979700001046,"velocity":0.8031496062992126,"duration":0.2756075286458213},{"name":"E3","midi":52,"time":507.49979700001046,"velocity":0.8031496062992126,"duration":0.2756075286458213},{"name":"A3","midi":57,"time":507.77757466667714,"velocity":0.8031496062992126,"duration":0.2756075286458213},{"name":"F#2","midi":42,"time":507.77757466667714,"velocity":0.8031496062992126,"duration":0.5533851953125009},{"name":"C4","midi":60,"time":508.0553523333438,"velocity":0.8031496062992126,"duration":0.2756075286458213},{"name":"E4","midi":64,"time":508.3331300000105,"velocity":0.8031496062992126,"duration":0.2756075286458213},{"name":"C4","midi":60,"time":508.6109076666772,"velocity":0.8031496062992126,"duration":0.2756075286458213},{"name":"A3","midi":57,"time":508.88868533334386,"velocity":0.8031496062992126,"duration":0.2756075286458213},{"name":"C4","midi":60,"time":509.16646300001054,"velocity":0.8031496062992126,"duration":0.2756075286458213},{"name":"A2","midi":45,"time":509.16646300001054,"velocity":0.8031496062992126,"duration":0.2756075286458213},{"name":"F#3","midi":54,"time":509.4442406666772,"velocity":0.8031496062992126,"duration":0.5533851953125009},{"name":"B2","midi":47,"time":509.4442406666772,"velocity":0.8031496062992126,"duration":0.2756075286458213},{"name":"D3","midi":50,"time":509.7220183333439,"velocity":0.8031496062992126,"duration":0.2756075286458213},{"name":"D4","midi":62,"time":509.9997960000106,"velocity":0.8031496062992126,"duration":0.2756075286458213},{"name":"F#3","midi":54,"time":509.9997960000106,"velocity":0.8031496062992126,"duration":0.2756075286458213},{"name":"B3","midi":59,"time":510.27757366667726,"velocity":0.8031496062992126,"duration":0.5533851953125009},{"name":"D3","midi":50,"time":510.27757366667726,"velocity":0.8031496062992126,"duration":0.2756075286458213},{"name":"B2","midi":47,"time":510.55535133334394,"velocity":0.8031496062992126,"duration":0.2756075286458213},{"name":"A3","midi":57,"time":510.8331290000106,"velocity":0.8031496062992126,"duration":0.2756075286458213},{"name":"D3","midi":50,"time":510.8331290000106,"velocity":0.8031496062992126,"duration":0.2756075286458213},{"name":"G3","midi":55,"time":511.1109066666773,"velocity":0.8031496062992126,"duration":0.2756075286458213},{"name":"E2","midi":40,"time":511.1109066666773,"velocity":0.8031496062992126,"duration":0.5533851953125009},{"name":"B3","midi":59,"time":511.388684333344,"velocity":0.8031496062992126,"duration":0.2756075286458213},{"name":"D4","midi":62,"time":511.66646200001065,"velocity":0.8031496062992126,"duration":0.2756075286458213},{"name":"B3","midi":59,"time":511.94423966667733,"velocity":0.8031496062992126,"duration":0.2756075286458213},{"name":"G3","midi":55,"time":512.222017333344,"velocity":0.8031496062992126,"duration":0.2756075286458781},{"name":"B3","midi":59,"time":512.4997950000106,"velocity":0.8031496062992126,"duration":0.2756075286458781},{"name":"G2","midi":43,"time":512.4997950000106,"velocity":0.8031496062992126,"duration":0.2756075286458781},{"name":"E3","midi":52,"time":512.7775726666773,"velocity":0.8031496062992126,"duration":0.5533851953125577},{"name":"A2","midi":45,"time":512.7775726666773,"velocity":0.8031496062992126,"duration":0.2756075286458781},{"name":"C3","midi":48,"time":513.055350333344,"velocity":0.8031496062992126,"duration":0.2756075286458781},{"name":"C4","midi":60,"time":513.3331280000107,"velocity":0.8031496062992126,"duration":0.2756075286458781},{"name":"E3","midi":52,"time":513.3331280000107,"velocity":0.8031496062992126,"duration":0.2756075286458781},{"name":"A3","midi":57,"time":513.6109056666774,"velocity":0.8031496062992126,"duration":0.5533851953125577},{"name":"C3","midi":48,"time":513.6109056666774,"velocity":0.8031496062992126,"duration":0.2756075286458781},{"name":"A2","midi":45,"time":513.888683333344,"velocity":0.8031496062992126,"duration":0.2756075286458781},{"name":"G4","midi":67,"time":514.1664610000107,"velocity":0.8031496062992126,"duration":0.2756075286458781},{"name":"C3","midi":48,"time":514.1664610000107,"velocity":0.8031496062992126,"duration":0.2756075286458781},{"name":"F#4","midi":66,"time":514.4442386666774,"velocity":0.8031496062992126,"duration":0.2756075286458781},{"name":"D3","midi":50,"time":514.4442386666774,"velocity":0.8031496062992126,"duration":1.3867181953125964},{"name":"D4","midi":62,"time":514.7220163333441,"velocity":0.8031496062992126,"duration":0.2756075286458781},{"name":"G4","midi":67,"time":514.9997940000108,"velocity":0.8031496062992126,"duration":0.2756075286458781},{"name":"B3","midi":59,"time":514.9997940000108,"velocity":0.8031496062992126,"duration":0.2756075286458781},{"name":"F#4","midi":66,"time":515.2775716666774,"velocity":0.8031496062992126,"duration":0.2756075286458781},{"name":"A3","midi":57,"time":515.2775716666774,"velocity":0.8031496062992126,"duration":1.3867181953125964},{"name":"D4","midi":62,"time":515.5553493333441,"velocity":0.8031496062992126,"duration":0.2756075286458781},{"name":"A4","midi":69,"time":515.8331270000108,"velocity":0.8031496062992126,"duration":0.2756075286458781},{"name":"C#3","midi":49,"time":515.8331270000108,"velocity":0.8031496062992126,"duration":0.2756075286458781},{"name":"F#4","midi":66,"time":516.1109046666775,"velocity":0.8031496062992126,"duration":0.2756075286458781},{"name":"D3","midi":50,"time":516.1109046666775,"velocity":0.8031496062992126,"duration":1.3867181953125964},{"name":"D4","midi":62,"time":516.3886823333441,"velocity":0.8031496062992126,"duration":0.2756075286458781},{"name":"G4","midi":67,"time":516.6664600000108,"velocity":0.8031496062992126,"duration":0.2756075286458781},{"name":"B3","midi":59,"time":516.6664600000108,"velocity":0.8031496062992126,"duration":0.2756075286458781},{"name":"F#4","midi":66,"time":516.9442376666775,"velocity":0.8031496062992126,"duration":0.2756075286458781},{"name":"A3","midi":57,"time":516.9442376666775,"velocity":0.8031496062992126,"duration":0.8246524479167192},{"name":"D4","midi":62,"time":517.2220153333442,"velocity":0.8031496062992126,"duration":0.2756075286458781},{"name":"A4","midi":69,"time":517.4997930000109,"velocity":0.8031496062992126,"duration":0.2756075286458781},{"name":"C#3","midi":49,"time":517.4997930000109,"velocity":0.8031496062992126,"duration":0.2756075286458781},{"name":"F#4","midi":66,"time":517.7775706666775,"velocity":0.8031496062992126,"duration":0.2756075286458781},{"name":"D3","midi":50,"time":517.7775706666775,"velocity":0.8031496062992126,"duration":0.2756075286458781},{"name":"A4","midi":69,"time":518.0553483333442,"velocity":0.8031496062992126,"duration":0.2756075286458781},{"name":"F#3","midi":54,"time":518.0553483333442,"velocity":0.8031496062992126,"duration":0.2756075286458781},{"name":"C5","midi":72,"time":518.3331260000109,"velocity":0.8031496062992126,"duration":0.2756075286458781},{"name":"A3","midi":57,"time":518.3331260000109,"velocity":0.8031496062992126,"duration":0.2756075286458781},{"name":"D4","midi":62,"time":518.6109036666776,"velocity":0.8031496062992126,"duration":0.41232622395830276},{"name":"F#3","midi":54,"time":518.6109036666776,"velocity":0.8031496062992126,"duration":0.2756075286458781},{"name":"D3","midi":50,"time":518.8886813333443,"velocity":0.8031496062992126,"duration":0.27560752864576443},{"name":"B4","midi":71,"time":519.1664590000108,"velocity":0.8031496062992126,"duration":0.2756075286458781},{"name":"G3","midi":55,"time":519.1664590000108,"velocity":0.8031496062992126,"duration":0.2756075286458781},{"name":"G4","midi":67,"time":519.4442366666775,"velocity":0.8031496062992126,"duration":0.2756075286458781},{"name":"E3","midi":52,"time":519.4442366666775,"velocity":0.8031496062992126,"duration":0.2756075286458781},{"name":"B4","midi":71,"time":519.7220143333442,"velocity":0.8031496062992126,"duration":0.2756075286458781},{"name":"G3","midi":55,"time":519.7220143333442,"velocity":0.8031496062992126,"duration":0.2756075286458781},{"name":"D5","midi":74,"time":519.9997920000109,"velocity":0.8031496062992126,"duration":0.2756075286458781},{"name":"B3","midi":59,"time":519.9997920000109,"velocity":0.8031496062992126,"duration":0.2756075286458781},{"name":"E4","midi":64,"time":520.2775696666776,"velocity":0.8031496062992126,"duration":0.41232622395830276},{"name":"G3","midi":55,"time":520.2775696666776,"velocity":0.8031496062992126,"duration":0.2756075286458781},{"name":"E3","midi":52,"time":520.5553473333442,"velocity":0.8031496062992126,"duration":0.27560752864576443},{"name":"C5","midi":72,"time":520.8331250000108,"velocity":0.8031496062992126,"duration":0.2756075286458781},{"name":"A3","midi":57,"time":520.8331250000108,"velocity":0.8031496062992126,"duration":0.2756075286458781},{"name":"A4","midi":69,"time":521.1109026666775,"velocity":0.8031496062992126,"duration":0.2756075286458781},{"name":"F#3","midi":54,"time":521.1109026666775,"velocity":0.8031496062992126,"duration":0.2756075286458781},{"name":"C5","midi":72,"time":521.3886803333442,"velocity":0.8031496062992126,"duration":0.2756075286458781},{"name":"A3","midi":57,"time":521.3886803333442,"velocity":0.8031496062992126,"duration":0.2756075286458781},{"name":"E5","midi":76,"time":521.6664580000108,"velocity":0.8031496062992126,"duration":0.2756075286458781},{"name":"C4","midi":60,"time":521.6664580000108,"velocity":0.8031496062992126,"duration":0.2756075286458781},{"name":"F#4","midi":66,"time":521.9442356666775,"velocity":0.8031496062992126,"duration":0.2756075286458781},{"name":"A3","midi":57,"time":521.9442356666775,"velocity":0.8031496062992126,"duration":0.2756075286458781},{"name":"D5","midi":74,"time":522.2220133333442,"velocity":0.8031496062992126,"duration":0.2756075286458781},{"name":"F#3","midi":54,"time":522.2220133333442,"velocity":0.8031496062992126,"duration":0.2756075286458781},{"name":"C5","midi":72,"time":522.4997910000109,"velocity":0.8031496062992126,"duration":0.2756075286458781},{"name":"A3","midi":57,"time":522.4997910000109,"velocity":0.8031496062992126,"duration":0.2756075286458781},{"name":"B4","midi":71,"time":522.7775686666776,"velocity":0.8031496062992126,"duration":0.2756075286458781},{"name":"G3","midi":55,"time":522.7775686666776,"velocity":0.8031496062992126,"duration":0.2756075286458781},{"name":"D5","midi":74,"time":523.0553463333442,"velocity":0.8031496062992126,"duration":0.2756075286458781},{"name":"B3","midi":59,"time":523.0553463333442,"velocity":0.8031496062992126,"duration":0.2756075286458781},{"name":"G5","midi":79,"time":523.3331240000109,"velocity":0.8031496062992126,"duration":0.2756075286458781},{"name":"D4","midi":62,"time":523.3331240000109,"velocity":0.8031496062992126,"duration":0.2756075286458781},{"name":"D5","midi":74,"time":523.6109016666776,"velocity":0.8031496062992126,"duration":0.2756075286458781},{"name":"B3","midi":59,"time":523.6109016666776,"velocity":0.8031496062992126,"duration":0.2756075286458781},{"name":"G5","midi":79,"time":523.8886793333443,"velocity":0.8031496062992126,"duration":0.2756075286458781},{"name":"D4","midi":62,"time":523.8886793333443,"velocity":0.8031496062992126,"duration":0.2756075286458781},{"name":"B5","midi":83,"time":524.166457000011,"velocity":0.8031496062992126,"duration":0.2756075286458781},{"name":"G4","midi":67,"time":524.166457000011,"velocity":0.8031496062992126,"duration":0.2756075286458781},{"name":"E5","midi":76,"time":524.4442346666776,"velocity":0.8031496062992126,"duration":0.2756075286458781},{"name":"C4","midi":60,"time":524.4442346666776,"velocity":0.8031496062992126,"duration":0.2756075286458781},{"name":"G5","midi":79,"time":524.7220123333443,"velocity":0.8031496062992126,"duration":0.2756075286458781},{"name":"E4","midi":64,"time":524.7220123333443,"velocity":0.8031496062992126,"duration":0.2756075286458781},{"name":"B4","midi":71,"time":524.999790000011,"velocity":0.8031496062992126,"duration":0.2756075286458781},{"name":"G4","midi":67,"time":524.999790000011,"velocity":0.8031496062992126,"duration":0.2756075286458781},{"name":"C5","midi":72,"time":525.2775676666777,"velocity":0.8031496062992126,"duration":0.2756075286458781},{"name":"E4","midi":64,"time":525.2775676666777,"velocity":0.8031496062992126,"duration":0.2756075286458781},{"name":"E5","midi":76,"time":525.5553453333443,"velocity":0.8031496062992126,"duration":0.2756075286458781},{"name":"C4","midi":60,"time":525.5553453333443,"velocity":0.8031496062992126,"duration":0.2756075286458781},{"name":"G4","midi":67,"time":525.833123000011,"velocity":0.8031496062992126,"duration":0.2756075286458781},{"name":"E4","midi":64,"time":525.833123000011,"velocity":0.8031496062992126,"duration":0.2756075286458781},{"name":"A4","midi":69,"time":526.1109006666777,"velocity":0.8031496062992126,"duration":0.2756075286458781},{"name":"F#3","midi":54,"time":526.1109006666777,"velocity":0.8031496062992126,"duration":0.2756075286458781},{"name":"C5","midi":72,"time":526.3886783333444,"velocity":0.8031496062992126,"duration":0.2756075286458781},{"name":"A3","midi":57,"time":526.3886783333444,"velocity":0.8031496062992126,"duration":0.2756075286458781},{"name":"F#5","midi":78,"time":526.6664560000111,"velocity":0.8031496062992126,"duration":0.2756075286458781},{"name":"C4","midi":60,"time":526.6664560000111,"velocity":0.8031496062992126,"duration":0.2756075286458781},{"name":"C5","midi":72,"time":526.9442336666777,"velocity":0.8031496062992126,"duration":0.2756075286458781},{"name":"A3","midi":57,"time":526.9442336666777,"velocity":0.8031496062992126,"duration":0.2756075286458781},{"name":"F#5","midi":78,"time":527.2220113333444,"velocity":0.8031496062992126,"duration":0.2756075286458781},{"name":"C4","midi":60,"time":527.2220113333444,"velocity":0.8031496062992126,"duration":0.2756075286458781},{"name":"A5","midi":81,"time":527.4997890000111,"velocity":0.8031496062992126,"duration":0.2756075286458781},{"name":"F#4","midi":66,"time":527.4997890000111,"velocity":0.8031496062992126,"duration":0.2756075286458781},{"name":"D#5","midi":75,"time":527.7775666666778,"velocity":0.8031496062992126,"duration":0.2756075286458781},{"name":"B3","midi":59,"time":527.7775666666778,"velocity":0.8031496062992126,"duration":0.2756075286458781},{"name":"F#5","midi":78,"time":528.0553443333445,"velocity":0.8031496062992126,"duration":0.2756075286458781},{"name":"D#4","midi":63,"time":528.0553443333445,"velocity":0.8031496062992126,"duration":0.2756075286458781},{"name":"A4","midi":69,"time":528.3331220000111,"velocity":0.8031496062992126,"duration":0.2756075286458781},{"name":"F#4","midi":66,"time":528.3331220000111,"velocity":0.8031496062992126,"duration":0.2756075286458781},{"name":"B4","midi":71,"time":528.6108996666778,"velocity":0.8031496062992126,"duration":0.2756075286458781},{"name":"D#4","midi":63,"time":528.6108996666778,"velocity":0.8031496062992126,"duration":0.2756075286458781},{"name":"D#5","midi":75,"time":528.8886773333445,"velocity":0.8031496062992126,"duration":0.2756075286458781},{"name":"B3","midi":59,"time":528.8886773333445,"velocity":0.8031496062992126,"duration":0.2756075286458781},{"name":"F#4","midi":66,"time":529.1664550000112,"velocity":0.8031496062992126,"duration":0.2756075286458781},{"name":"D#4","midi":63,"time":529.1664550000112,"velocity":0.8031496062992126,"duration":0.2756075286458781},{"name":"G4","midi":67,"time":529.4442326666779,"velocity":0.8031496062992126,"duration":0.2756075286458781},{"name":"E3","midi":52,"time":529.4442326666779,"velocity":0.8031496062992126,"duration":0.2756075286458781},{"name":"B4","midi":71,"time":529.7220103333445,"velocity":0.8031496062992126,"duration":0.2756075286458781},{"name":"G3","midi":55,"time":529.7220103333445,"velocity":0.8031496062992126,"duration":0.2756075286458781},{"name":"E5","midi":76,"time":529.9997880000112,"velocity":0.8031496062992126,"duration":0.2756075286458781},{"name":"B3","midi":59,"time":529.9997880000112,"velocity":0.8031496062992126,"duration":0.2756075286458781},{"name":"B4","midi":71,"time":530.2775656666779,"velocity":0.8031496062992126,"duration":0.2756075286458781},{"name":"G3","midi":55,"time":530.2775656666779,"velocity":0.8031496062992126,"duration":0.2756075286458781},{"name":"E5","midi":76,"time":530.5553433333446,"velocity":0.8031496062992126,"duration":0.2756075286458781},{"name":"B3","midi":59,"time":530.5553433333446,"velocity":0.8031496062992126,"duration":0.2756075286458781},{"name":"G5","midi":79,"time":530.8331210000113,"velocity":0.8031496062992126,"duration":0.2756075286458781},{"name":"E4","midi":64,"time":530.8331210000113,"velocity":0.8031496062992126,"duration":0.2756075286458781},{"name":"C5","midi":72,"time":531.1108986666779,"velocity":0.8031496062992126,"duration":0.2756075286458781},{"name":"A3","midi":57,"time":531.1108986666779,"velocity":0.8031496062992126,"duration":0.2756075286458781},{"name":"E5","midi":76,"time":531.3886763333446,"velocity":0.8031496062992126,"duration":0.2756075286458781},{"name":"C4","midi":60,"time":531.3886763333446,"velocity":0.8031496062992126,"duration":0.2756075286458781},{"name":"G#4","midi":68,"time":531.6664540000113,"velocity":0.8031496062992126,"duration":0.2756075286458781},{"name":"E4","midi":64,"time":531.6664540000113,"velocity":0.8031496062992126,"duration":0.2756075286458781},{"name":"A4","midi":69,"time":531.944231666678,"velocity":0.8031496062992126,"duration":0.2756075286458781},{"name":"C4","midi":60,"time":531.944231666678,"velocity":0.8031496062992126,"duration":0.2756075286458781},{"name":"C5","midi":72,"time":532.2220093333447,"velocity":0.8031496062992126,"duration":0.2756075286458781},{"name":"A3","midi":57,"time":532.2220093333447,"velocity":0.8031496062992126,"duration":0.2756075286458781},{"name":"E5","midi":76,"time":532.4997870000113,"velocity":0.8031496062992126,"duration":0.2756075286458781},{"name":"C4","midi":60,"time":532.4997870000113,"velocity":0.8031496062992126,"duration":0.2756075286458781},{"name":"A5","midi":81,"time":532.777564666678,"velocity":0.8031496062992126,"duration":0.8246524479167192},{"name":"E4","midi":64,"time":532.777564666678,"velocity":0.8031496062992126,"duration":0.2756075286458781},{"name":"A4","midi":69,"time":533.0553423333447,"velocity":0.8031496062992126,"duration":0.2756075286458781},{"name":"C5","midi":72,"time":533.3331200000114,"velocity":0.8031496062992126,"duration":0.2756075286458781},{"name":"A4","midi":69,"time":533.610897666678,"velocity":0.8031496062992126,"duration":0.2756075286458781},{"name":"F#4","midi":66,"time":533.8886753333447,"velocity":0.8031496062992126,"duration":0.2756075286458781},{"name":"E3","midi":52,"time":534.1664530000114,"velocity":0.8031496062992126,"duration":0.2756075286458781},{"name":"A4","midi":69,"time":534.1664530000114,"velocity":0.8031496062992126,"duration":0.2756075286458781},{"name":"B4","midi":71,"time":534.4442306666781,"velocity":0.8031496062992126,"duration":1.3867181953125964},{"name":"D#3","midi":51,"time":534.4442306666781,"velocity":0.8031496062992126,"duration":0.2756075286458781},{"name":"B2","midi":47,"time":534.7220083333448,"velocity":0.8031496062992126,"duration":0.2756075286458781},{"name":"G5","midi":79,"time":534.9997860000115,"velocity":0.8031496062992126,"duration":0.2756075286458781},{"name":"E3","midi":52,"time":534.9997860000115,"velocity":0.8031496062992126,"duration":0.2756075286458781},{"name":"F#5","midi":78,"time":535.2775636666781,"velocity":0.8031496062992126,"duration":1.3867181953125964},{"name":"D#3","midi":51,"time":535.2775636666781,"velocity":0.8031496062992126,"duration":0.2756075286458781},{"name":"B2","midi":47,"time":535.5553413333448,"velocity":0.8031496062992126,"duration":0.2756075286458781},{"name":"A4","midi":69,"time":535.8331190000115,"velocity":0.8031496062992126,"duration":0.2756075286458781},{"name":"F#3","midi":54,"time":535.8331190000115,"velocity":0.8031496062992126,"duration":0.2756075286458781},{"name":"B4","midi":71,"time":536.1108966666782,"velocity":0.8031496062992126,"duration":1.3867181953125964},{"name":"D#3","midi":51,"time":536.1108966666782,"velocity":0.8031496062992126,"duration":0.2756075286458781},{"name":"B2","midi":47,"time":536.3886743333449,"velocity":0.8031496062992126,"duration":0.2756075286458781},{"name":"G5","midi":79,"time":536.6664520000115,"velocity":0.8031496062992126,"duration":0.2756075286458781},{"name":"E3","midi":52,"time":536.6664520000115,"velocity":0.8031496062992126,"duration":0.2756075286458781},{"name":"F#5","midi":78,"time":536.9442296666782,"velocity":0.8031496062992126,"duration":1.1089405286459169},{"name":"D#3","midi":51,"time":536.9442296666782,"velocity":0.8031496062992126,"duration":0.2756075286458781},{"name":"B2","midi":47,"time":537.2220073333449,"velocity":0.8031496062992126,"duration":0.2756075286458781},{"name":"A4","midi":69,"time":537.4997850000116,"velocity":0.8031496062992126,"duration":0.2756075286458781},{"name":"F#3","midi":54,"time":537.4997850000116,"velocity":0.8031496062992126,"duration":0.2756075286458781},{"name":"B4","midi":71,"time":537.7775626666783,"velocity":0.8031496062992126,"duration":0.2756075286458781},{"name":"D#3","midi":51,"time":537.7775626666783,"velocity":0.8031496062992126,"duration":0.2756075286458781},{"name":"D#5","midi":75,"time":538.0553403333449,"velocity":0.8031496062992126,"duration":0.2756075286458781},{"name":"F#3","midi":54,"time":538.0553403333449,"velocity":0.8031496062992126,"duration":0.2756075286458781},{"name":"F#5","midi":78,"time":538.3331180000116,"velocity":0.8031496062992126,"duration":0.2756075286458781},{"name":"A3","midi":57,"time":538.3331180000116,"velocity":0.8031496062992126,"duration":0.2756075286458781},{"name":"D#5","midi":75,"time":538.6108956666783,"velocity":0.8031496062992126,"duration":0.2756075286458781},{"name":"G5","midi":79,"time":538.6108956666783,"velocity":0.8031496062992126,"duration":1.3867181953124827},{"name":"B2","midi":47,"time":538.6108956666783,"velocity":0.8031496062992126,"duration":0.41232622395830276},{"name":"B4","midi":71,"time":538.888673333345,"velocity":0.8031496062992126,"duration":0.27560752864576443},{"name":"E5","midi":76,"time":539.1664510000115,"velocity":0.8031496062992126,"duration":0.2756075286458781},{"name":"G3","midi":55,"time":539.1664510000115,"velocity":0.8031496062992126,"duration":0.2756075286458781},{"name":"C#5","midi":73,"time":539.4442286666782,"velocity":0.8031496062992126,"duration":0.2756075286458781},{"name":"E3","midi":52,"time":539.4442286666782,"velocity":0.8031496062992126,"duration":0.2756075286458781},{"name":"E5","midi":76,"time":539.7220063333449,"velocity":0.8031496062992126,"duration":0.2756075286458781},{"name":"G3","midi":55,"time":539.7220063333449,"velocity":0.8031496062992126,"duration":0.2756075286458781},{"name":"G5","midi":79,"time":539.9997840000116,"velocity":0.8031496062992126,"duration":0.2756075286458781},{"name":"B3","midi":59,"time":539.9997840000116,"velocity":0.8031496062992126,"duration":0.2756075286458781},{"name":"E5","midi":76,"time":540.2775616666783,"velocity":0.8031496062992126,"duration":0.2756075286458781},{"name":"A5","midi":81,"time":540.2775616666783,"velocity":0.8031496062992126,"duration":1.3867181953124827},{"name":"C#3","midi":49,"time":540.2775616666783,"velocity":0.8031496062992126,"duration":0.41232622395830276},{"name":"C#5","midi":73,"time":540.5553393333449,"velocity":0.8031496062992126,"duration":0.27560752864576443},{"name":"F#5","midi":78,"time":540.8331170000115,"velocity":0.8031496062992126,"duration":0.2756075286458781},{"name":"A3","midi":57,"time":540.8331170000115,"velocity":0.8031496062992126,"duration":0.2756075286458781},{"name":"D#5","midi":75,"time":541.1108946666782,"velocity":0.8031496062992126,"duration":0.2756075286458781},{"name":"F#3","midi":54,"time":541.1108946666782,"velocity":0.8031496062992126,"duration":0.2756075286458781},{"name":"F#5","midi":78,"time":541.3886723333449,"velocity":0.8031496062992126,"duration":0.2756075286458781},{"name":"A3","midi":57,"time":541.3886723333449,"velocity":0.8031496062992126,"duration":0.2756075286458781},{"name":"A5","midi":81,"time":541.6664500000115,"velocity":0.8031496062992126,"duration":0.2756075286458781},{"name":"C4","midi":60,"time":541.6664500000115,"velocity":0.8031496062992126,"duration":0.2756075286458781},{"name":"F#5","midi":78,"time":541.9442276666782,"velocity":0.8031496062992126,"duration":0.2756075286458781},{"name":"B5","midi":83,"time":541.9442276666782,"velocity":0.8031496062992126,"duration":2.4956587239583996},{"name":"D#3","midi":51,"time":541.9442276666782,"velocity":0.8031496062992126,"duration":0.2756075286458781},{"name":"D#5","midi":75,"time":542.2220053333449,"velocity":0.8031496062992126,"duration":0.2756075286458781},{"name":"B3","midi":59,"time":542.2220053333449,"velocity":0.8031496062992126,"duration":0.2756075286458781},{"name":"F#5","midi":78,"time":542.4997830000116,"velocity":0.8031496062992126,"duration":0.2756075286458781},{"name":"A3","midi":57,"time":542.4997830000116,"velocity":0.8031496062992126,"duration":0.2756075286458781},{"name":"E5","midi":76,"time":542.7775606666783,"velocity":0.8031496062992126,"duration":0.2756075286458781},{"name":"G3","midi":55,"time":542.7775606666783,"velocity":0.8031496062992126,"duration":0.2756075286458781},{"name":"G5","midi":79,"time":543.0553383333449,"velocity":0.8031496062992126,"duration":0.2756075286458781},{"name":"E3","midi":52,"time":543.0553383333449,"velocity":0.8031496062992126,"duration":0.2756075286458781},{"name":"D#5","midi":75,"time":543.3331160000116,"velocity":0.8031496062992126,"duration":0.2756075286458781},{"name":"B2","midi":47,"time":543.3331160000116,"velocity":0.8031496062992126,"duration":0.2756075286458781},{"name":"E5","midi":76,"time":543.6108936666783,"velocity":0.8031496062992126,"duration":0.2756075286458781},{"name":"E3","midi":52,"time":543.6108936666783,"velocity":0.8031496062992126,"duration":0.2756075286458781},{"name":"G5","midi":79,"time":543.888671333345,"velocity":0.8031496062992126,"duration":0.2756075286458781},{"name":"B2","midi":47,"time":543.888671333345,"velocity":0.8031496062992126,"duration":0.2756075286458781},{"name":"D#5","midi":75,"time":544.1664490000117,"velocity":0.8031496062992126,"duration":0.27560752864576443},{"name":"G2","midi":43,"time":544.1664490000117,"velocity":0.8031496062992126,"duration":0.27560752864576443},{"name":"E5","midi":76,"time":544.4442266666782,"velocity":0.8031496062992126,"duration":0.2756075286458781},{"name":"C3","midi":48,"time":544.4442266666782,"velocity":0.8031496062992126,"duration":1.0199648697916928},{"name":"G#5","midi":80,"time":544.7220043333449,"velocity":0.8031496062992126,"duration":0.2756075286458781},{"name":"A5","midi":81,"time":544.9997820000116,"velocity":0.8031496062992126,"duration":0.2756075286458781},{"name":"F5","midi":77,"time":545.2775596666783,"velocity":0.8031496062992126,"duration":0.27560752864576443},{"name":"D#5","midi":75,"time":545.5553373333448,"velocity":0.8031496062992126,"duration":0.2756075286458781},{"name":"B2","midi":47,"time":545.5553373333448,"velocity":0.8031496062992126,"duration":0.2756075286458781},{"name":"E5","midi":76,"time":545.8331150000115,"velocity":0.8031496062992126,"duration":0.2756075286458781},{"name":"C3","midi":48,"time":545.8331150000115,"velocity":0.8031496062992126,"duration":0.2756075286458781},{"name":"C5","midi":72,"time":546.1108926666782,"velocity":0.8031496062992126,"duration":0.2756075286458781},{"name":"A2","midi":45,"time":546.1108926666782,"velocity":0.8031496062992126,"duration":0.2756075286458781},{"name":"G#4","midi":68,"time":546.3886703333449,"velocity":0.8031496062992126,"duration":0.2756075286458781},{"name":"B2","midi":47,"time":546.3886703333449,"velocity":0.8031496062992126,"duration":0.2756075286458781},{"name":"A4","midi":69,"time":546.6664480000115,"velocity":0.8031496062992126,"duration":0.2756075286458781},{"name":"C3","midi":48,"time":546.6664480000115,"velocity":0.8031496062992126,"duration":0.2756075286458781},{"name":"F4","midi":65,"time":546.9442256666782,"velocity":0.8031496062992126,"duration":0.2756075286458781},{"name":"A2","midi":45,"time":546.9442256666782,"velocity":0.8031496062992126,"duration":0.2756075286458781},{"name":"D#4","midi":63,"time":547.2220033333449,"velocity":0.8031496062992126,"duration":0.2756075286458781},{"name":"B2","midi":47,"time":547.2220033333449,"velocity":0.8031496062992126,"duration":0.2756075286458781},{"name":"E4","midi":64,"time":547.4997810000116,"velocity":0.8031496062992126,"duration":0.2756075286458781},{"name":"C3","midi":48,"time":547.4997810000116,"velocity":0.8031496062992126,"duration":0.2756075286458781},{"name":"D#4","midi":63,"time":547.7775586666783,"velocity":0.8031496062992126,"duration":0.2756075286458781},{"name":"F#2","midi":42,"time":547.7775586666783,"velocity":0.8031496062992126,"duration":0.2756075286458781},{"name":"F#4","midi":66,"time":548.0553363333449,"velocity":0.8031496062992126,"duration":0.2756075286458781},{"name":"A2","midi":45,"time":548.0553363333449,"velocity":0.8031496062992126,"duration":0.2756075286458781},{"name":"A4","midi":69,"time":548.3331140000116,"velocity":0.8031496062992126,"duration":0.2756075286458781},{"name":"C3","midi":48,"time":548.3331140000116,"velocity":0.8031496062992126,"duration":0.2756075286458781},{"name":"C5","midi":72,"time":548.6108916666783,"velocity":0.8031496062992126,"duration":0.2756075286458781},{"name":"D#3","midi":51,"time":548.6108916666783,"velocity":0.8031496062992126,"duration":0.2756075286458781},{"name":"B4","midi":71,"time":548.888669333345,"velocity":0.8031496062992126,"duration":0.2756075286458781},{"name":"F#3","midi":54,"time":548.888669333345,"velocity":0.8031496062992126,"duration":0.2756075286458781},{"name":"D#5","midi":75,"time":549.1664470000117,"velocity":0.8031496062992126,"duration":0.2756075286458781},{"name":"A3","midi":57,"time":549.1664470000117,"velocity":0.8031496062992126,"duration":0.2756075286458781},{"name":"E5","midi":76,"time":549.4442246666783,"velocity":0.8031496062992126,"duration":0.2756075286458781},{"name":"G3","midi":55,"time":549.4442246666783,"velocity":0.8031496062992126,"duration":0.2756075286458781},{"name":"F#5","midi":78,"time":549.722002333345,"velocity":0.8031496062992126,"duration":0.2756075286458781},{"name":"F#3","midi":54,"time":549.722002333345,"velocity":0.8031496062992126,"duration":0.2756075286458781},{"name":"G5","midi":79,"time":549.9997800000117,"velocity":0.8031496062992126,"duration":0.2756075286458781},{"name":"E3","midi":52,"time":549.9997800000117,"velocity":0.8031496062992126,"duration":0.2756075286458781},{"name":"B4","midi":71,"time":550.2775576666784,"velocity":0.8031496062992126,"duration":0.2756075286458781},{"name":"B3","midi":59,"time":550.2775576666784,"velocity":0.8031496062992126,"duration":0.5533851953125577},{"name":"E5","midi":76,"time":550.555335333345,"velocity":0.8031496062992126,"duration":0.2756075286458781},{"name":"A4","midi":69,"time":550.8331130000117,"velocity":0.8031496062992126,"duration":0.2756075286458781},{"name":"D#5","midi":75,"time":550.8331130000117,"velocity":0.8031496062992126,"duration":0.2756075286458781},{"name":"B2","midi":47,"time":550.8331130000117,"velocity":0.8031496062992126,"duration":0.2756075286458781},{"name":"G4","midi":67,"time":551.1108906666784,"velocity":0.8031496062992126,"duration":0.2756075286458781},{"name":"E5","midi":76,"time":551.1108906666784,"velocity":0.8031496062992126,"duration":3.320311171875119},{"name":"E3","midi":52,"time":551.1108906666784,"velocity":0.8031496062992126,"duration":0.5533851953125577},{"name":"E4","midi":64,"time":551.3886683333451,"velocity":0.8031496062992126,"duration":0.2756075286458781},{"name":"A4","midi":69,"time":551.6664460000118,"velocity":0.8031496062992126,"duration":0.2756075286458781},{"name":"C4","midi":60,"time":551.6664460000118,"velocity":0.8031496062992126,"duration":0.2756075286458781},{"name":"G4","midi":67,"time":551.9442236666785,"velocity":0.8031496062992126,"duration":0.2756075286458781},{"name":"B3","midi":59,"time":551.9442236666785,"velocity":0.8031496062992126,"duration":0.5533851953125577},{"name":"E4","midi":64,"time":552.2220013333451,"velocity":0.8031496062992126,"duration":0.2756075286458781},{"name":"B4","midi":71,"time":552.4997790000118,"velocity":0.8031496062992126,"duration":0.2756075286458781},{"name":"D#3","midi":51,"time":552.4997790000118,"velocity":0.8031496062992126,"duration":0.2756075286458781},{"name":"G4","midi":67,"time":552.7775566666785,"velocity":0.8031496062992126,"duration":0.2756075286458781},{"name":"E3","midi":52,"time":552.7775566666785,"velocity":0.8031496062992126,"duration":0.5533851953125577},{"name":"E4","midi":64,"time":553.0553343333452,"velocity":0.8031496062992126,"duration":0.2756075286458781},{"name":"A4","midi":69,"time":553.3331120000119,"velocity":0.8031496062992126,"duration":0.2756075286458781},{"name":"C4","midi":60,"time":553.3331120000119,"velocity":0.8031496062992126,"duration":0.2756075286458781},{"name":"G4","midi":67,"time":553.6108896666785,"velocity":0.8031496062992126,"duration":0.2756075286458781},{"name":"B3","midi":59,"time":553.6108896666785,"velocity":0.8031496062992126,"duration":0.5533851953125577},{"name":"E4","midi":64,"time":553.8886673333452,"velocity":0.8031496062992126,"duration":0.2756075286458781},{"name":"B4","midi":71,"time":554.1664450000119,"velocity":0.8031496062992126,"duration":0.27560752864576443},{"name":"D#3","midi":51,"time":554.1664450000119,"velocity":0.8031496062992126,"duration":0.27560752864576443},{"name":"G#4","midi":68,"time":554.4442226666785,"velocity":0.8031496062992126,"duration":0.2756075286458781},{"name":"E3","midi":52,"time":554.4442226666785,"velocity":0.8031496062992126,"duration":0.2756075286458781},{"name":"B4","midi":71,"time":554.7220003333451,"velocity":0.8031496062992126,"duration":0.2756075286458781},{"name":"G#3","midi":56,"time":554.7220003333451,"velocity":0.8031496062992126,"duration":0.2756075286458781},{"name":"D5","midi":74,"time":554.9997780000118,"velocity":0.8031496062992126,"duration":0.2756075286458781},{"name":"B3","midi":59,"time":554.9997780000118,"velocity":0.8031496062992126,"duration":0.2756075286458781},{"name":"E4","midi":64,"time":555.2775556666785,"velocity":0.8031496062992126,"duration":0.41232622395830276},{"name":"G#3","midi":56,"time":555.2775556666785,"velocity":0.8031496062992126,"duration":0.2756075286458781},{"name":"E3","midi":52,"time":555.5553333333452,"velocity":0.8031496062992126,"duration":0.27560752864576443},{"name":"C5","midi":72,"time":555.8331110000117,"velocity":0.8031496062992126,"duration":0.2756075286458781},{"name":"A3","midi":57,"time":555.8331110000117,"velocity":0.8031496062992126,"duration":0.2756075286458781},{"name":"A4","midi":69,"time":556.1108886666784,"velocity":0.8031496062992126,"duration":0.2756075286458781},{"name":"F#3","midi":54,"time":556.1108886666784,"velocity":0.8031496062992126,"duration":0.2756075286458781},{"name":"C5","midi":72,"time":556.3886663333451,"velocity":0.8031496062992126,"duration":0.2756075286458781},{"name":"A3","midi":57,"time":556.3886663333451,"velocity":0.8031496062992126,"duration":0.2756075286458781},{"name":"E5","midi":76,"time":556.6664440000118,"velocity":0.8031496062992126,"duration":0.2756075286458781},{"name":"C4","midi":60,"time":556.6664440000118,"velocity":0.8031496062992126,"duration":0.2756075286458781},{"name":"F#4","midi":66,"time":556.9442216666785,"velocity":0.8031496062992126,"duration":0.41232622395830276},{"name":"A3","midi":57,"time":556.9442216666785,"velocity":0.8031496062992126,"duration":0.2756075286458781},{"name":"F#3","midi":54,"time":557.2219993333451,"velocity":0.8031496062992126,"duration":0.27560752864576443},{"name":"D5","midi":74,"time":557.4997770000117,"velocity":0.8031496062992126,"duration":0.2756075286458781},{"name":"B3","midi":59,"time":557.4997770000117,"velocity":0.8031496062992126,"duration":0.2756075286458781},{"name":"B4","midi":71,"time":557.7775546666784,"velocity":0.8031496062992126,"duration":0.2756075286458781},{"name":"G#3","midi":56,"time":557.7775546666784,"velocity":0.8031496062992126,"duration":0.2756075286458781},{"name":"D5","midi":74,"time":558.0553323333451,"velocity":0.8031496062992126,"duration":0.2756075286458781},{"name":"B3","midi":59,"time":558.0553323333451,"velocity":0.8031496062992126,"duration":0.2756075286458781},{"name":"F5","midi":77,"time":558.3331100000117,"velocity":0.8031496062992126,"duration":0.5533851953125577},{"name":"D4","midi":62,"time":558.3331100000117,"velocity":0.8031496062992126,"duration":0.2756075286458781},{"name":"G#4","midi":68,"time":558.6108876666784,"velocity":0.8031496062992126,"duration":0.8246524479167192},{"name":"B3","midi":59,"time":558.6108876666784,"velocity":0.8031496062992126,"duration":0.2756075286458781},{"name":"E5","midi":76,"time":558.8886653333451,"velocity":0.8031496062992126,"duration":0.2756075286458781},{"name":"G#3","midi":56,"time":558.8886653333451,"velocity":0.8031496062992126,"duration":0.2756075286458781},{"name":"D5","midi":74,"time":559.1664430000118,"velocity":0.8031496062992126,"duration":0.2756075286458781},{"name":"B3","midi":59,"time":559.1664430000118,"velocity":0.8031496062992126,"duration":0.2756075286458781},{"name":"C5","midi":72,"time":559.4442206666785,"velocity":0.8031496062992126,"duration":0.2756075286458781},{"name":"A3","midi":57,"time":559.4442206666785,"velocity":0.8031496062992126,"duration":1.3867181953125964},{"name":"A4","midi":69,"time":559.7219983333451,"velocity":0.8031496062992126,"duration":0.2756075286458781},{"name":"D5","midi":74,"time":559.9997760000118,"velocity":0.8031496062992126,"duration":0.2756075286458781},{"name":"F4","midi":65,"time":559.9997760000118,"velocity":0.8031496062992126,"duration":0.2756075286458781},{"name":"C5","midi":72,"time":560.2775536666785,"velocity":0.8031496062992126,"duration":0.2756075286458781},{"name":"E4","midi":64,"time":560.2775536666785,"velocity":0.8031496062992126,"duration":1.3867181953125964},{"name":"A4","midi":69,"time":560.5553313333452,"velocity":0.8031496062992126,"duration":0.2756075286458781},{"name":"E5","midi":76,"time":560.8331090000119,"velocity":0.8031496062992126,"duration":0.2756075286458781},{"name":"G#3","midi":56,"time":560.8331090000119,"velocity":0.8031496062992126,"duration":0.2756075286458781},{"name":"C5","midi":72,"time":561.1108866666785,"velocity":0.8031496062992126,"duration":0.2756075286458781},{"name":"A3","midi":57,"time":561.1108866666785,"velocity":0.8031496062992126,"duration":1.3867181953125964},{"name":"A4","midi":69,"time":561.3886643333452,"velocity":0.8031496062992126,"duration":0.2756075286458781},{"name":"D5","midi":74,"time":561.6664420000119,"velocity":0.8031496062992126,"duration":0.2756075286458781},{"name":"F4","midi":65,"time":561.6664420000119,"velocity":0.8031496062992126,"duration":0.2756075286458781},{"name":"C5","midi":72,"time":561.9442196666786,"velocity":0.8031496062992126,"duration":0.2756075286458781},{"name":"E4","midi":64,"time":561.9442196666786,"velocity":0.8031496062992126,"duration":1.3867181953125964},{"name":"A4","midi":69,"time":562.2219973333453,"velocity":0.8031496062992126,"duration":0.2756075286458781},{"name":"E5","midi":76,"time":562.4997750000119,"velocity":0.8031496062992126,"duration":0.2756075286458781},{"name":"G#3","midi":56,"time":562.4997750000119,"velocity":0.8031496062992126,"duration":0.2756075286458781},{"name":"C#5","midi":73,"time":562.7775526666786,"velocity":0.8031496062992126,"duration":0.2756075286458781},{"name":"A3","midi":57,"time":562.7775526666786,"velocity":0.8031496062992126,"duration":0.2756075286458781},{"name":"E5","midi":76,"time":563.0553303333453,"velocity":0.8031496062992126,"duration":0.2756075286458781},{"name":"C#4","midi":61,"time":563.0553303333453,"velocity":0.8031496062992126,"duration":0.2756075286458781},{"name":"G5","midi":79,"time":563.333108000012,"velocity":0.8031496062992126,"duration":0.2756075286458781},{"name":"E4","midi":64,"time":563.333108000012,"velocity":0.8031496062992126,"duration":0.2756075286458781},{"name":"A4","midi":69,"time":563.6108856666787,"velocity":0.8031496062992126,"duration":0.5533851953125577},{"name":"C#4","midi":61,"time":563.6108856666787,"velocity":0.8031496062992126,"duration":0.2756075286458781},{"name":"A3","midi":57,"time":563.8886633333453,"velocity":0.8031496062992126,"duration":0.2756075286458781},{"name":"F#5","midi":78,"time":564.166441000012,"velocity":0.8031496062992126,"duration":0.2756075286458781},{"name":"D4","midi":62,"time":564.166441000012,"velocity":0.8031496062992126,"duration":0.2756075286458781},{"name":"D5","midi":74,"time":564.4442186666787,"velocity":0.8031496062992126,"duration":0.2756075286458781},{"name":"B3","midi":59,"time":564.4442186666787,"velocity":0.8031496062992126,"duration":0.2756075286458781},{"name":"F#5","midi":78,"time":564.7219963333454,"velocity":0.8031496062992126,"duration":0.2756075286458781},{"name":"D4","midi":62,"time":564.7219963333454,"velocity":0.8031496062992126,"duration":0.2756075286458781},{"name":"A5","midi":81,"time":564.999774000012,"velocity":0.8031496062992126,"duration":0.2756075286458781},{"name":"F#4","midi":66,"time":564.999774000012,"velocity":0.8031496062992126,"duration":0.2756075286458781},{"name":"B4","midi":71,"time":565.2775516666787,"velocity":0.8031496062992126,"duration":0.5533851953125577},{"name":"D4","midi":62,"time":565.2775516666787,"velocity":0.8031496062992126,"duration":0.2756075286458781},{"name":"B3","midi":59,"time":565.5553293333454,"velocity":0.8031496062992126,"duration":0.2756075286458781},{"name":"G5","midi":79,"time":565.8331070000121,"velocity":0.8031496062992126,"duration":0.2756075286458781},{"name":"E4","midi":64,"time":565.8331070000121,"velocity":0.8031496062992126,"duration":0.2756075286458781},{"name":"E5","midi":76,"time":566.1108846666788,"velocity":0.8031496062992126,"duration":0.2756075286458781},{"name":"C#4","midi":61,"time":566.1108846666788,"velocity":0.8031496062992126,"duration":0.2756075286458781},{"name":"G5","midi":79,"time":566.3886623333455,"velocity":0.8031496062992126,"duration":0.2756075286458781},{"name":"E4","midi":64,"time":566.3886623333455,"velocity":0.8031496062992126,"duration":0.2756075286458781},{"name":"B5","midi":83,"time":566.6664400000121,"velocity":0.8031496062992126,"duration":0.5533851953125577},{"name":"G4","midi":67,"time":566.6664400000121,"velocity":0.8031496062992126,"duration":0.2756075286458781},{"name":"C#5","midi":73,"time":566.9442176666788,"velocity":0.8031496062992126,"duration":0.2756075286458781},{"name":"E4","midi":64,"time":566.9442176666788,"velocity":0.8031496062992126,"duration":0.2756075286458781},{"name":"A5","midi":81,"time":567.2219953333455,"velocity":0.8031496062992126,"duration":0.2756075286458781},{"name":"C#4","midi":61,"time":567.2219953333455,"velocity":0.8031496062992126,"duration":0.2756075286458781},{"name":"G5","midi":79,"time":567.4997730000122,"velocity":0.8031496062992126,"duration":0.2756075286458781},{"name":"E4","midi":64,"time":567.4997730000122,"velocity":0.8031496062992126,"duration":0.2756075286458781},{"name":"F#5","midi":78,"time":567.7775506666788,"velocity":0.8031496062992126,"duration":0.2756075286458781},{"name":"D4","midi":62,"time":567.7775506666788,"velocity":0.8031496062992126,"duration":0.5533851953125577},{"name":"D5","midi":74,"time":568.0553283333455,"velocity":0.8031496062992126,"duration":0.2756075286458781},{"name":"G5","midi":79,"time":568.3331060000122,"velocity":0.8031496062992126,"duration":0.2756075286458781},{"name":"B4","midi":71,"time":568.3331060000122,"velocity":0.8031496062992126,"duration":0.2756075286458781},{"name":"F#5","midi":78,"time":568.6108836666789,"velocity":0.8031496062992126,"duration":0.2756075286458781},{"name":"A4","midi":69,"time":568.6108836666789,"velocity":0.8031496062992126,"duration":0.5533851953125577},{"name":"D5","midi":74,"time":568.8886613333456,"velocity":0.8031496062992126,"duration":0.2756075286458781},{"name":"A5","midi":81,"time":569.1664390000122,"velocity":0.8031496062992126,"duration":0.2756075286458781},{"name":"C#4","midi":61,"time":569.1664390000122,"velocity":0.8031496062992126,"duration":0.2756075286458781},{"name":"F#5","midi":78,"time":569.4442166666789,"velocity":0.8031496062992126,"duration":0.2756075286458781},{"name":"D4","midi":62,"time":569.4442166666789,"velocity":0.8031496062992126,"duration":0.5533851953125577},{"name":"D5","midi":74,"time":569.7219943333456,"velocity":0.8031496062992126,"duration":0.2756075286458781},{"name":"G5","midi":79,"time":569.9997720000123,"velocity":0.8031496062992126,"duration":0.2756075286458781},{"name":"B4","midi":71,"time":569.9997720000123,"velocity":0.8031496062992126,"duration":0.2756075286458781},{"name":"F#5","midi":78,"time":570.277549666679,"velocity":0.8031496062992126,"duration":0.2756075286458781},{"name":"A4","midi":69,"time":570.277549666679,"velocity":0.8031496062992126,"duration":0.5533851953125577},{"name":"D5","midi":74,"time":570.5553273333456,"velocity":0.8031496062992126,"duration":0.2756075286458781},{"name":"A5","midi":81,"time":570.8331050000123,"velocity":0.8031496062992126,"duration":0.2756075286458781},{"name":"C#4","midi":61,"time":570.8331050000123,"velocity":0.8031496062992126,"duration":0.2756075286458781},{"name":"F#5","midi":78,"time":571.110882666679,"velocity":0.8031496062992126,"duration":0.2756075286458781},{"name":"D4","midi":62,"time":571.110882666679,"velocity":0.8031496062992126,"duration":0.2756075286458781},{"name":"A5","midi":81,"time":571.3886603333457,"velocity":0.8031496062992126,"duration":0.2756075286458781},{"name":"F#4","midi":66,"time":571.3886603333457,"velocity":0.8031496062992126,"duration":0.2756075286458781},{"name":"C6","midi":84,"time":571.6664380000124,"velocity":0.8031496062992126,"duration":0.2756075286458781},{"name":"A4","midi":69,"time":571.6664380000124,"velocity":0.8031496062992126,"duration":0.2756075286458781},{"name":"D5","midi":74,"time":571.944215666679,"velocity":0.8031496062992126,"duration":0.41232622395830276},{"name":"F#4","midi":66,"time":571.944215666679,"velocity":0.8031496062992126,"duration":0.2756075286458781},{"name":"D4","midi":62,"time":572.2219933333457,"velocity":0.8031496062992126,"duration":0.27560752864576443},{"name":"B5","midi":83,"time":572.4997710000123,"velocity":0.8031496062992126,"duration":0.2756075286458781},{"name":"G4","midi":67,"time":572.4997710000123,"velocity":0.8031496062992126,"duration":0.2756075286458781},{"name":"E5","midi":76,"time":572.777548666679,"velocity":0.8031496062992126,"duration":0.2756075286458781},{"name":"C4","midi":60,"time":572.777548666679,"velocity":0.8031496062992126,"duration":0.2756075286458781},{"name":"G5","midi":79,"time":573.0553263333456,"velocity":0.8031496062992126,"duration":0.2756075286458781},{"name":"E4","midi":64,"time":573.0553263333456,"velocity":0.8031496062992126,"duration":0.2756075286458781},{"name":"B5","midi":83,"time":573.3331040000123,"velocity":0.8031496062992126,"duration":0.2756075286458781},{"name":"G4","midi":67,"time":573.3331040000123,"velocity":0.8031496062992126,"duration":0.2756075286458781},{"name":"C5","midi":72,"time":573.610881666679,"velocity":0.8031496062992126,"duration":0.41232622395830276},{"name":"E4","midi":64,"time":573.610881666679,"velocity":0.8031496062992126,"duration":0.2756075286458781},{"name":"C4","midi":60,"time":573.8886593333457,"velocity":0.8031496062992126,"duration":0.27560752864576443},{"name":"A5","midi":81,"time":574.1664370000123,"velocity":0.8031496062992126,"duration":0.2756075286458781},{"name":"F#4","midi":66,"time":574.1664370000123,"velocity":0.8031496062992126,"duration":0.2756075286458781},{"name":"D5","midi":74,"time":574.4442146666789,"velocity":0.8031496062992126,"duration":0.2756075286458781},{"name":"B3","midi":59,"time":574.4442146666789,"velocity":0.8031496062992126,"duration":0.2756075286458781},{"name":"F#5","midi":78,"time":574.7219923333456,"velocity":0.8031496062992126,"duration":0.2756075286458781},{"name":"D4","midi":62,"time":574.7219923333456,"velocity":0.8031496062992126,"duration":0.2756075286458781},{"name":"A5","midi":81,"time":574.9997700000123,"velocity":0.8031496062992126,"duration":0.2756075286458781},{"name":"F#4","midi":66,"time":574.9997700000123,"velocity":0.8031496062992126,"duration":0.2756075286458781},{"name":"B4","midi":71,"time":575.277547666679,"velocity":0.8031496062992126,"duration":0.41232622395830276},{"name":"D4","midi":62,"time":575.277547666679,"velocity":0.8031496062992126,"duration":0.2756075286458781},{"name":"B3","midi":59,"time":575.5553253333456,"velocity":0.8031496062992126,"duration":0.27560752864576443},{"name":"G5","midi":79,"time":575.8331030000122,"velocity":0.8031496062992126,"duration":0.2756075286458781},{"name":"E4","midi":64,"time":575.8331030000122,"velocity":0.8031496062992126,"duration":0.2756075286458781},{"name":"C5","midi":72,"time":576.1108806666789,"velocity":0.8031496062992126,"duration":0.2756075286458781},{"name":"A3","midi":57,"time":576.1108806666789,"velocity":0.8031496062992126,"duration":0.2756075286458781},{"name":"E5","midi":76,"time":576.3886583333456,"velocity":0.8031496062992126,"duration":0.2756075286458781},{"name":"C4","midi":60,"time":576.3886583333456,"velocity":0.8031496062992126,"duration":0.2756075286458781},{"name":"G5","midi":79,"time":576.6664360000123,"velocity":0.8031496062992126,"duration":0.2756075286458781},{"name":"E4","midi":64,"time":576.6664360000123,"velocity":0.8031496062992126,"duration":0.2756075286458781},{"name":"A4","midi":69,"time":576.9442136666789,"velocity":0.8031496062992126,"duration":0.2756075286458781},{"name":"C4","midi":60,"time":576.9442136666789,"velocity":0.8031496062992126,"duration":0.2756075286458781},{"name":"C5","midi":72,"time":577.2219913333456,"velocity":0.8031496062992126,"duration":0.2756075286458781},{"name":"A3","midi":57,"time":577.2219913333456,"velocity":0.8031496062992126,"duration":0.2756075286458781},{"name":"E5","midi":76,"time":577.4997690000123,"velocity":0.8031496062992126,"duration":0.2756075286458781},{"name":"C4","midi":60,"time":577.4997690000123,"velocity":0.8031496062992126,"duration":0.2756075286458781},{"name":"F#4","midi":66,"time":577.777546666679,"velocity":0.8031496062992126,"duration":0.2756075286458781},{"name":"D4","midi":62,"time":577.777546666679,"velocity":0.8031496062992126,"duration":0.2756075286458781},{"name":"A4","midi":69,"time":578.0553243333457,"velocity":0.8031496062992126,"duration":0.2756075286458781},{"name":"A3","midi":57,"time":578.0553243333457,"velocity":0.8031496062992126,"duration":0.2756075286458781},{"name":"C5","midi":72,"time":578.3331020000123,"velocity":0.8031496062992126,"duration":0.2756075286458781},{"name":"F#3","midi":54,"time":578.3331020000123,"velocity":0.8031496062992126,"duration":0.2756075286458781},{"name":"D4","midi":62,"time":578.610879666679,"velocity":0.8031496062992126,"duration":0.2756075286458781},{"name":"D3","midi":50,"time":578.610879666679,"velocity":0.8031496062992126,"duration":0.5533851953125577},{"name":"F#4","midi":66,"time":578.8886573333457,"velocity":0.8031496062992126,"duration":0.2756075286458781},{"name":"A4","midi":69,"time":579.1664350000124,"velocity":0.8031496062992126,"duration":0.2756075286458781},{"name":"A2","midi":45,"time":579.1664350000124,"velocity":0.8031496062992126,"duration":0.2756075286458781},{"name":"C5","midi":72,"time":579.444212666679,"velocity":0.8031496062992126,"duration":1.3867181953125964},{"name":"F#2","midi":42,"time":579.444212666679,"velocity":0.8031496062992126,"duration":0.2756075286458781},{"name":"D2","midi":38,"time":579.7219903333457,"velocity":0.8031496062992126,"duration":0.2756075286458781},{"name":"B4","midi":71,"time":579.9997680000124,"velocity":0.8031496062992126,"duration":0.2756075286458781},{"name":"G2","midi":43,"time":579.9997680000124,"velocity":0.8031496062992126,"duration":0.2756075286458781},{"name":"A4","midi":69,"time":580.2775456666791,"velocity":0.8031496062992126,"duration":0.8246524479167192},{"name":"F#2","midi":42,"time":580.2775456666791,"velocity":0.8031496062992126,"duration":0.2756075286458781},{"name":"D2","midi":38,"time":580.5553233333458,"velocity":0.8031496062992126,"duration":0.2756075286458781},{"name":"C5","midi":72,"time":580.8331010000124,"velocity":0.8031496062992126,"duration":1.3867181953125964},{"name":"A2","midi":45,"time":580.8331010000124,"velocity":0.8031496062992126,"duration":0.2756075286458781},{"name":"D4","midi":62,"time":581.1108786666791,"velocity":0.8031496062992126,"duration":0.5533851953125577},{"name":"F#2","midi":42,"time":581.1108786666791,"velocity":0.8031496062992126,"duration":0.2756075286458781},{"name":"D2","midi":38,"time":581.3886563333458,"velocity":0.8031496062992126,"duration":0.2756075286458781},{"name":"B4","midi":71,"time":581.6664340000125,"velocity":0.8031496062992126,"duration":0.2756075286458781},{"name":"G2","midi":43,"time":581.6664340000125,"velocity":0.8031496062992126,"duration":0.2756075286458781},{"name":"A4","midi":69,"time":581.9442116666792,"velocity":0.8031496062992126,"duration":0.8246524479167192},{"name":"F#2","midi":42,"time":581.9442116666792,"velocity":0.8031496062992126,"duration":0.2756075286458781},{"name":"D2","midi":38,"time":582.2219893333458,"velocity":0.8031496062992126,"duration":0.2756075286458781},{"name":"C5","midi":72,"time":582.4997670000125,"velocity":0.8031496062992126,"duration":1.3867181953125964},{"name":"A2","midi":45,"time":582.4997670000125,"velocity":0.8031496062992126,"duration":0.2756075286458781},{"name":"D4","midi":62,"time":582.7775446666792,"velocity":0.8031496062992126,"duration":0.2756075286458781},{"name":"F#2","midi":42,"time":582.7775446666792,"velocity":0.8031496062992126,"duration":0.2756075286458781},{"name":"F#4","midi":66,"time":583.0553223333459,"velocity":0.8031496062992126,"duration":0.2756075286458781},{"name":"A2","midi":45,"time":583.0553223333459,"velocity":0.8031496062992126,"duration":0.2756075286458781},{"name":"A4","midi":69,"time":583.3331000000126,"velocity":0.8031496062992126,"duration":0.2756075286458781},{"name":"C3","midi":48,"time":583.3331000000126,"velocity":0.8031496062992126,"duration":0.2756075286458781},{"name":"F#4","midi":66,"time":583.6108776666792,"velocity":0.8031496062992126,"duration":0.8246524479166055},{"name":"D2","midi":38,"time":583.6108776666792,"velocity":0.8031496062992126,"duration":0.41232622395830276},{"name":"A4","midi":69,"time":583.8886553333459,"velocity":0.8031496062992126,"duration":0.27560752864576443},{"name":"D5","midi":74,"time":584.1664330000125,"velocity":0.8031496062992126,"duration":1.3867181953125964},{"name":"B2","midi":47,"time":584.1664330000125,"velocity":0.8031496062992126,"duration":0.2756075286458781},{"name":"E4","midi":64,"time":584.4442106666792,"velocity":0.8031496062992126,"duration":0.2756075286458781},{"name":"G2","midi":43,"time":584.4442106666792,"velocity":0.8031496062992126,"duration":0.2756075286458781},{"name":"G4","midi":67,"time":584.7219883333458,"velocity":0.8031496062992126,"duration":0.2756075286458781},{"name":"B2","midi":47,"time":584.7219883333458,"velocity":0.8031496062992126,"duration":0.2756075286458781},{"name":"B4","midi":71,"time":584.9997660000125,"velocity":0.8031496062992126,"duration":0.2756075286458781},{"name":"D3","midi":50,"time":584.9997660000125,"velocity":0.8031496062992126,"duration":0.2756075286458781},{"name":"G4","midi":67,"time":585.2775436666792,"velocity":0.8031496062992126,"duration":0.8246524479166055},{"name":"E2","midi":40,"time":585.2775436666792,"velocity":0.8031496062992126,"duration":0.41232622395830276},{"name":"B4","midi":71,"time":585.5553213333459,"velocity":0.8031496062992126,"duration":0.27560752864576443},{"name":"E5","midi":76,"time":585.8330990000125,"velocity":0.8031496062992126,"duration":1.3867181953125964},{"name":"C3","midi":48,"time":585.8330990000125,"velocity":0.8031496062992126,"duration":0.2756075286458781},{"name":"F#4","midi":66,"time":586.1108766666791,"velocity":0.8031496062992126,"duration":0.2756075286458781},{"name":"A2","midi":45,"time":586.1108766666791,"velocity":0.8031496062992126,"duration":0.2756075286458781},{"name":"A4","midi":69,"time":586.3886543333458,"velocity":0.8031496062992126,"duration":0.2756075286458781},{"name":"C3","midi":48,"time":586.3886543333458,"velocity":0.8031496062992126,"duration":0.2756075286458781},{"name":"C5","midi":72,"time":586.6664320000125,"velocity":0.8031496062992126,"duration":0.2756075286458781},{"name":"E3","midi":52,"time":586.6664320000125,"velocity":0.8031496062992126,"duration":0.2756075286458781},{"name":"A4","midi":69,"time":586.9442096666792,"velocity":0.8031496062992126,"duration":0.8246524479167192},{"name":"F#2","midi":42,"time":586.9442096666792,"velocity":0.8031496062992126,"duration":0.2756075286458781},{"name":"C5","midi":72,"time":587.2219873333459,"velocity":0.8031496062992126,"duration":0.2756075286458781},{"name":"D3","midi":50,"time":587.2219873333459,"velocity":0.8031496062992126,"duration":0.2756075286458781},{"name":"C3","midi":48,"time":587.4997650000125,"velocity":0.8031496062992126,"duration":0.27994780468748104},{"name":"F#5","midi":78,"time":587.4997650000125,"velocity":0.8031496062992126,"duration":0.27994780468748104},{"name":"B2","midi":47,"time":587.7818829427208,"velocity":0.8031496062992126,"duration":0.27994780468748104},{"name":"G5","midi":79,"time":587.7818829427208,"velocity":0.8031496062992126,"duration":1.1393224609374784},{"name":"D3","midi":50,"time":588.0683411614708,"velocity":0.8031496062992126,"duration":0.27994780468748104},{"name":"D5","midi":74,"time":588.0683411614708,"velocity":0.8031496062992126,"duration":0.27994780468748104},{"name":"G3","midi":55,"time":588.3547993802208,"velocity":0.8031496062992126,"duration":0.27994780468748104},{"name":"B4","midi":71,"time":588.3547993802208,"velocity":0.8031496062992126,"duration":0.27994780468748104},{"name":"B3","midi":59,"time":588.6412575989708,"velocity":0.8031496062992126,"duration":0.27994780468748104},{"name":"G4","midi":67,"time":588.6412575989708,"velocity":0.8031496062992126,"duration":0.8463538281249612},{"name":"G3","midi":55,"time":588.9277158177208,"velocity":0.8031496062992126,"duration":0.27994780468748104},{"name":"F5","midi":77,"time":588.9277158177208,"velocity":0.8031496062992126,"duration":0.27994780468748104},{"name":"D5","midi":74,"time":589.2141740364708,"velocity":0.8031496062992126,"duration":0.2864582187499991},{"name":"B3","midi":59,"time":589.2141740364708,"velocity":0.8031496062992126,"duration":0.2864582187499991},{"name":"E5","midi":76,"time":589.5049725312625,"velocity":0.8031496062992126,"duration":0.5815969895833177},{"name":"C4","midi":60,"time":589.5049725312625,"velocity":0.8031496062992126,"duration":0.2864582187499991},{"name":"C5","midi":72,"time":589.8001113020958,"velocity":0.8031496062992126,"duration":0.2864582187499991},{"name":"A3","midi":57,"time":589.8001113020958,"velocity":0.8031496062992126,"duration":0.2864582187499991},{"name":"A4","midi":69,"time":590.0952500729292,"velocity":0.8031496062992126,"duration":0.2864582187499991},{"name":"F#3","midi":54,"time":590.0952500729292,"velocity":0.8031496062992126,"duration":0.2864582187499991},{"name":"F#4","midi":66,"time":590.3903888437625,"velocity":0.8031496062992126,"duration":0.5815969895833177},{"name":"D3","midi":50,"time":590.3903888437625,"velocity":0.8031496062992126,"duration":0.2864582187499991},{"name":"A4","midi":69,"time":590.6855276145958,"velocity":0.8031496062992126,"duration":0.2864582187499991},{"name":"F#3","midi":54,"time":590.6855276145958,"velocity":0.8031496062992126,"duration":0.2864582187499991},{"name":"A3","midi":57,"time":590.9806663854291,"velocity":0.8031496062992126,"duration":0.29296863281251717},{"name":"C5","midi":72,"time":590.9806663854291,"velocity":0.8031496062992126,"duration":0.29296863281251717},{"name":"G3","midi":55,"time":591.2801454323042,"velocity":0.8031496062992126,"duration":0.5989580937499568},{"name":"B4","midi":71,"time":591.2801454323042,"velocity":0.8031496062992126,"duration":0.29296863281251717},{"name":"A4","midi":69,"time":591.5839647552208,"velocity":0.8031496062992126,"duration":0.29296863281251717},{"name":"E4","midi":64,"time":591.8877840781374,"velocity":0.8031496062992126,"duration":0.3016491848958367},{"name":"G4","midi":67,"time":591.8877840781374,"velocity":0.8031496062992126,"duration":0.3016491848958367},{"name":"C3","midi":48,"time":591.8877840781374,"velocity":0.8031496062992126,"duration":0.3016491848958367},{"name":"D4","midi":62,"time":592.2002839531374,"velocity":0.8031496062992126,"duration":0.6163191979167095},{"name":"G4","midi":67,"time":592.2002839531374,"velocity":0.8031496062992126,"duration":0.3016491848958367},{"name":"D3","midi":50,"time":592.2002839531374,"velocity":0.8031496062992126,"duration":0.6163191979167095},{"name":"A4","midi":69,"time":592.5171241041791,"velocity":0.8031496062992126,"duration":0.3103297369791562},{"name":"C4","midi":60,"time":592.8383045312623,"velocity":0.8031496062992126,"duration":0.6510414062498739},{"name":"F#4","midi":66,"time":592.8383045312623,"velocity":0.8031496062992126,"duration":0.31901028906247575},{"name":"D2","midi":38,"time":592.8383045312623,"velocity":0.8031496062992126,"duration":0.31901028906247575},{"name":"G4","midi":67,"time":593.1681655104289,"velocity":0.8031496062992126,"duration":1.9791658750000352},{"name":"G2","midi":43,"time":593.1681655104289,"velocity":0.8031496062992126,"duration":1.9791658750000352},{"name":"D4","midi":62,"time":593.5175577317831,"velocity":0.8031496062992126,"duration":1.506075786458382},{"name":"B2","midi":47,"time":593.5175577317831,"velocity":0.8031496062992126,"duration":0.3602429114583856},{"name":"B3","midi":59,"time":593.9038422994914,"velocity":0.8031496062992126,"duration":1.5039056484375806},{"name":"D3","midi":50,"time":593.9038422994914,"velocity":0.8031496062992126,"duration":0.3602429114583856},{"name":"G3","midi":55,"time":594.3834428020956,"velocity":0.8031496062992126,"duration":1.4322910937501092}],"controlChanges":{"7":[{"number":7,"time":0,"value":0.7874015748031497}]},"id":1,"name":"Ger.8l","instrumentNumber":7,"instrument":"clavi","instrumentFamily":"piano","channelNumber":0,"isPercussion":false}]}