{"header":{"PPQ":240,"timeSignature":[4,4],"bpm":53.000022083342536,"name":"--------"},"startTime":0,"duration":208.30179999999814,"tracks":[{"startTime":0,"duration":0,"length":0,"notes":[],"controlChanges":{},"id":0,"name":"--------"},{"startTime":0.5660375,"duration":208.30179999999814,"length":1014,"notes":[{"name":"D#4","midi":63,"time":0.5660375,"velocity":0.5826771653543307,"duration":0.5660375},{"name":"D#4","midi":63,"time":1.132075,"velocity":0.5826771653543307,"duration":0.5660375},{"name":"D#4","midi":63,"time":1.6981125,"velocity":0.5826771653543307,"duration":0.5660375},{"name":"D4","midi":62,"time":2.26415,"velocity":0.5826771653543307,"duration":0.5660375000000002},{"name":"D#4","midi":63,"time":2.8301875,"velocity":0.5826771653543307,"duration":0.5660375000000002},{"name":"F4","midi":65,"time":3.3962250000000003,"velocity":0.5826771653543307,"duration":1.6981124999999997},{"name":"D#4","midi":63,"time":5.0943375,"velocity":0.5826771653543307,"duration":0.5660375000000002},{"name":"G#4","midi":68,"time":5.660375,"velocity":0.5826771653543307,"duration":1.6981124999999997},{"name":"F#4","midi":66,"time":7.3584875,"velocity":0.5826771653543307,"duration":0.2830187500000001},{"name":"F4","midi":65,"time":7.64150625,"velocity":0.5826771653543307,"duration":0.2830187500000001},{"name":"A#4","midi":70,"time":7.924525,"velocity":0.5826771653543307,"duration":0.5660374999999993},{"name":"G#4","midi":68,"time":8.4905625,"velocity":0.5826771653543307,"duration":0.5660375000000002},{"name":"F#4","midi":66,"time":9.0566,"velocity":0.5826771653543307,"duration":0.5660375000000002},{"name":"F4","midi":65,"time":9.6226375,"velocity":0.5826771653543307,"duration":0.5660375000000002},{"name":"A#3","midi":58,"time":9.6226375,"velocity":0.5826771653543307,"duration":0.5660375000000002},{"name":"D#4","midi":63,"time":10.188675,"velocity":0.5826771653543307,"duration":0.5660375000000002},{"name":"A#3","midi":58,"time":10.188675,"velocity":0.5826771653543307,"duration":0.5660375000000002},{"name":"C#4","midi":61,"time":10.7547125,"velocity":0.5826771653543307,"duration":0.2830187500000001},{"name":"A#3","midi":58,"time":10.7547125,"velocity":0.5826771653543307,"duration":0.5660375000000002},{"name":"D#4","midi":63,"time":11.03773125,"velocity":0.5826771653543307,"duration":0.2830187500000001},{"name":"F4","midi":65,"time":11.32075,"velocity":0.5826771653543307,"duration":1.6981125000000006},{"name":"A3","midi":57,"time":11.32075,"velocity":0.5826771653543307,"duration":0.5660375000000002},{"name":"A#3","midi":58,"time":11.8867875,"velocity":0.5826771653543307,"duration":0.5660375000000002},{"name":"C4","midi":60,"time":12.452825,"velocity":0.5826771653543307,"duration":1.6981125000000006},{"name":"D#4","midi":63,"time":13.018862500000001,"velocity":0.5826771653543307,"duration":0.2830187500000001},{"name":"F4","midi":65,"time":13.301881250000001,"velocity":0.5826771653543307,"duration":0.2830187500000001},{"name":"F#4","midi":66,"time":13.584900000000001,"velocity":0.5826771653543307,"duration":1.6981125000000006},{"name":"A#3","midi":58,"time":14.150937500000001,"velocity":0.5826771653543307,"duration":0.5660375000000002},{"name":"D#4","midi":63,"time":14.716975000000001,"velocity":0.5826771653543307,"duration":1.6981125000000006},{"name":"F4","midi":65,"time":15.283012500000002,"velocity":0.5826771653543307,"duration":0.2830187500000001},{"name":"G4","midi":67,"time":15.566031250000002,"velocity":0.5826771653543307,"duration":0.2830187500000001},{"name":"G#4","midi":68,"time":15.849050000000002,"velocity":0.5826771653543307,"duration":1.6981125000000006},{"name":"C#4","midi":61,"time":16.415087500000002,"velocity":0.5826771653543307,"duration":0.2830187500000001},{"name":"C4","midi":60,"time":16.698106250000002,"velocity":0.5826771653543307,"duration":0.2830187500000001},{"name":"F4","midi":65,"time":16.981125000000002,"velocity":0.5826771653543307,"duration":0.5660375000000002},{"name":"D#4","midi":63,"time":17.547162500000002,"velocity":0.5826771653543307,"duration":0.5660375000000002},{"name":"G4","midi":67,"time":17.547162500000002,"velocity":0.5826771653543307,"duration":0.2830187500000001},{"name":"A4","midi":69,"time":17.830181250000003,"velocity":0.5826771653543307,"duration":0.2830187500000001},{"name":"A#4","midi":70,"time":18.113200000000003,"velocity":0.5826771653543307,"duration":0.5660375000000002},{"name":"C#4","midi":61,"time":18.113200000000003,"velocity":0.5826771653543307,"duration":0.5660375000000002},{"name":"C5","midi":72,"time":18.679237500000003,"velocity":0.5826771653543307,"duration":0.5660375000000002},{"name":"C4","midi":60,"time":18.679237500000003,"velocity":0.5826771653543307,"duration":0.5660375000000002},{"name":"C#5","midi":73,"time":19.245275000000003,"velocity":0.5826771653543307,"duration":1.6981125000000006},{"name":"A#3","midi":58,"time":19.245275000000003,"velocity":0.5826771653543307,"duration":0.5660375000000002},{"name":"A#4","midi":70,"time":19.811312500000003,"velocity":0.5826771653543307,"duration":0.5660375000000002},{"name":"D#4","midi":63,"time":20.377350000000003,"velocity":0.5826771653543307,"duration":1.6981125000000006},{"name":"G4","midi":67,"time":20.943387500000004,"velocity":0.5826771653543307,"duration":0.5660375000000002},{"name":"G#4","midi":68,"time":21.509425000000004,"velocity":0.5826771653543307,"duration":0.5660375000000002},{"name":"C#4","midi":61,"time":22.075462500000004,"velocity":0.5826771653543307,"duration":0.5660375000000002},{"name":"A#4","midi":70,"time":22.075462500000004,"velocity":0.5826771653543307,"duration":0.5660375000000002},{"name":"D#4","midi":63,"time":22.641500000000004,"velocity":0.5826771653543307,"duration":0.5660375000000002},{"name":"B3","midi":59,"time":22.641500000000004,"velocity":0.5826771653543307,"duration":1.1320750000000004},{"name":"G#4","midi":68,"time":23.207537500000004,"velocity":0.5826771653543307,"duration":1.1320750000000004},{"name":"A#3","midi":58,"time":23.773575000000005,"velocity":0.5826771653543307,"duration":1.1320750000000004},{"name":"G4","midi":67,"time":24.339612500000005,"velocity":0.5826771653543307,"duration":0.5660375000000002},{"name":"B4","midi":71,"time":24.905650000000005,"velocity":0.5826771653543307,"duration":1.6981125000000006},{"name":"G#3","midi":56,"time":24.905650000000005,"velocity":0.5826771653543307,"duration":0.5660375000000002},{"name":"G#4","midi":68,"time":25.471687500000005,"velocity":0.5826771653543307,"duration":0.5660375000000002},{"name":"D4","midi":62,"time":26.037725000000005,"velocity":0.5826771653543307,"duration":1.1320750000000004},{"name":"A#4","midi":70,"time":26.603762500000006,"velocity":0.5826771653543307,"duration":0.2830187500000001},{"name":"G#4","midi":68,"time":26.886781250000006,"velocity":0.5826771653543307,"duration":0.2830187500000001},{"name":"F#4","midi":66,"time":27.169800000000006,"velocity":0.5826771653543307,"duration":0.5660375000000002},{"name":"D#4","midi":63,"time":27.169800000000006,"velocity":0.5826771653543307,"duration":0.5660375000000002},{"name":"G#4","midi":68,"time":27.735837500000006,"velocity":0.5826771653543307,"duration":0.5660375000000002},{"name":"F3","midi":53,"time":27.735837500000006,"velocity":0.5826771653543307,"duration":0.5660375000000002},{"name":"D#3","midi":51,"time":27.735837500000006,"velocity":0.5826771653543307,"duration":0.5660375000000002},{"name":"A#4","midi":70,"time":28.301875000000006,"velocity":0.5826771653543307,"duration":0.5660375000000002},{"name":"F#3","midi":54,"time":28.301875000000006,"velocity":0.5826771653543307,"duration":0.5660375000000002},{"name":"D#3","midi":51,"time":28.301875000000006,"velocity":0.5826771653543307,"duration":0.5660375000000002},{"name":"B4","midi":71,"time":28.867912500000006,"velocity":0.5826771653543307,"duration":0.5660375000000002},{"name":"G#3","midi":56,"time":28.867912500000006,"velocity":0.5826771653543307,"duration":0.5660375000000002},{"name":"D#3","midi":51,"time":28.867912500000006,"velocity":0.5826771653543307,"duration":0.5660375000000002},{"name":"F4","midi":65,"time":29.433950000000006,"velocity":0.5826771653543307,"duration":0.2830187500000001},{"name":"A#3","midi":58,"time":29.433950000000006,"velocity":0.5826771653543307,"duration":1.6981125000000006},{"name":"D3","midi":50,"time":29.433950000000006,"velocity":0.5826771653543307,"duration":0.5660375000000002},{"name":"F#4","midi":66,"time":29.716968750000007,"velocity":0.5826771653543307,"duration":0.2830187500000001},{"name":"F4","midi":65,"time":29.999987500000007,"velocity":0.5826771653543307,"duration":0.2830187500000001},{"name":"D#3","midi":51,"time":29.999987500000007,"velocity":0.5826771653543307,"duration":0.5660375000000002},{"name":"D#4","midi":63,"time":30.283006250000007,"velocity":0.5826771653543307,"duration":0.2830187500000001},{"name":"F3","midi":53,"time":30.566025000000007,"velocity":0.5826771653543307,"duration":1.698112499999997},{"name":"D4","midi":62,"time":30.566025000000007,"velocity":0.5826771653543307,"duration":0.2830187500000001},{"name":"D#4","midi":63,"time":30.849043750000007,"velocity":0.5826771653543307,"duration":0.2830187500000001},{"name":"F4","midi":65,"time":31.132062500000007,"velocity":0.5826771653543307,"duration":0.2830187500000001},{"name":"G#3","midi":56,"time":31.132062500000007,"velocity":0.5826771653543307,"duration":0.2830187500000001},{"name":"A#3","midi":58,"time":31.415081250000007,"velocity":0.5826771653543307,"duration":0.2830187500000001},{"name":"F#4","midi":66,"time":31.415081250000007,"velocity":0.5826771653543307,"duration":0.2830187500000001},{"name":"G#4","midi":68,"time":31.698100000000007,"velocity":0.5826771653543307,"duration":0.2830187500000001},{"name":"B3","midi":59,"time":31.698100000000007,"velocity":0.5826771653543307,"duration":1.69811249999999},{"name":"A#4","midi":70,"time":31.981118750000007,"velocity":0.5826771653543307,"duration":0.28301874999999654},{"name":"G#4","midi":68,"time":32.264137500000004,"velocity":0.5826771653543307,"duration":0.28301874999999654},{"name":"D#3","midi":51,"time":32.264137500000004,"velocity":0.5826771653543307,"duration":0.5660374999999931},{"name":"F#4","midi":66,"time":32.54715625,"velocity":0.5826771653543307,"duration":0.28301874999999654},{"name":"F4","midi":65,"time":32.830175,"velocity":0.5826771653543307,"duration":1.6981124999999935},{"name":"G#3","midi":56,"time":32.830175,"velocity":0.5826771653543307,"duration":1.6981124999999935},{"name":"A#3","midi":58,"time":33.3962125,"velocity":0.5826771653543307,"duration":0.28301874999999654},{"name":"C4","midi":60,"time":33.679231249999994,"velocity":0.5826771653543307,"duration":0.28301874999999654},{"name":"C#4","midi":61,"time":33.96224999999999,"velocity":0.5826771653543307,"duration":1.6981124999999935},{"name":"F#4","midi":66,"time":34.52828749999999,"velocity":0.5826771653543307,"duration":0.28301874999999654},{"name":"F#3","midi":54,"time":34.52828749999999,"velocity":0.5826771653543307,"duration":0.28301874999999654},{"name":"G#4","midi":68,"time":34.81130624999999,"velocity":0.5826771653543307,"duration":0.28301874999999654},{"name":"F3","midi":53,"time":34.81130624999999,"velocity":0.5826771653543307,"duration":0.28301874999999654},{"name":"F#4","midi":66,"time":35.094324999999984,"velocity":0.5826771653543307,"duration":0.5660375000000002},{"name":"A#3","midi":58,"time":35.094324999999984,"velocity":0.5826771653543307,"duration":0.5660375000000002},{"name":"G#3","midi":56,"time":35.660362499999984,"velocity":0.5826771653543307,"duration":0.5660374999999931},{"name":"F4","midi":65,"time":35.660362499999984,"velocity":0.5826771653543307,"duration":0.5660374999999931},{"name":"C4","midi":60,"time":35.660362499999984,"velocity":0.5826771653543307,"duration":0.28301874999999654},{"name":"D4","midi":62,"time":35.94338124999998,"velocity":0.5826771653543307,"duration":0.28301874999999654},{"name":"D#4","midi":63,"time":36.22639999999998,"velocity":0.5826771653543307,"duration":0.5660375000000002},{"name":"F#3","midi":54,"time":36.22639999999998,"velocity":0.5826771653543307,"duration":0.5660375000000002},{"name":"A#4","midi":70,"time":36.79243749999998,"velocity":0.5826771653543307,"duration":0.5660375000000002},{"name":"D4","midi":62,"time":36.79243749999998,"velocity":0.5826771653543307,"duration":0.5660375000000002},{"name":"G#3","midi":56,"time":36.79243749999998,"velocity":0.5826771653543307,"duration":0.5660375000000002},{"name":"F3","midi":53,"time":36.79243749999998,"velocity":0.5826771653543307,"duration":0.5660375000000002},{"name":"A#4","midi":70,"time":37.35847499999998,"velocity":0.5826771653543307,"duration":0.5660374999999931},{"name":"D#4","midi":63,"time":37.35847499999998,"velocity":0.5826771653543307,"duration":0.28301874999999654},{"name":"F#3","midi":54,"time":37.35847499999998,"velocity":0.5826771653543307,"duration":0.28301874999999654},{"name":"D#3","midi":51,"time":37.35847499999998,"velocity":0.5826771653543307,"duration":0.5660374999999931},{"name":"F4","midi":65,"time":37.641493749999974,"velocity":0.5826771653543307,"duration":0.28301874999999654},{"name":"G#3","midi":56,"time":37.641493749999974,"velocity":0.5826771653543307,"duration":0.28301874999999654},{"name":"A#4","midi":70,"time":37.92451249999997,"velocity":0.5826771653543307,"duration":0.5660374999999931},{"name":"F#4","midi":66,"time":37.92451249999997,"velocity":0.5826771653543307,"duration":0.5660374999999931},{"name":"A#3","midi":58,"time":37.92451249999997,"velocity":0.5826771653543307,"duration":0.28301874999999654},{"name":"C#3","midi":49,"time":37.92451249999997,"velocity":0.5826771653543307,"duration":0.28301874999999654},{"name":"C4","midi":60,"time":38.20753124999997,"velocity":0.5826771653543307,"duration":0.28301874999999654},{"name":"D#3","midi":51,"time":38.20753124999997,"velocity":0.5826771653543307,"duration":0.28301874999999654},{"name":"A4","midi":69,"time":38.49054999999996,"velocity":0.5826771653543307,"duration":0.5660375000000002},{"name":"F4","midi":65,"time":38.49054999999996,"velocity":0.5826771653543307,"duration":1.6981124999999935},{"name":"C#4","midi":61,"time":38.49054999999996,"velocity":0.5826771653543307,"duration":0.5660375000000002},{"name":"F3","midi":53,"time":38.49054999999996,"velocity":0.5826771653543307,"duration":1.6981124999999935},{"name":"A#4","midi":70,"time":39.056587499999964,"velocity":0.5826771653543307,"duration":0.5660374999999931},{"name":"C4","midi":60,"time":39.056587499999964,"velocity":0.5826771653543307,"duration":0.28301874999999654},{"name":"A#3","midi":58,"time":39.33960624999996,"velocity":0.5826771653543307,"duration":0.28301874999999654},{"name":"C5","midi":72,"time":39.62262499999996,"velocity":0.5826771653543307,"duration":1.6981124999999935},{"name":"A3","midi":57,"time":39.62262499999996,"velocity":0.5826771653543307,"duration":1.6981124999999935},{"name":"F#4","midi":66,"time":40.18866249999996,"velocity":0.5826771653543307,"duration":0.28301874999999654},{"name":"D#3","midi":51,"time":40.18866249999996,"velocity":0.5826771653543307,"duration":0.28301874999999654},{"name":"F4","midi":65,"time":40.47168124999995,"velocity":0.5826771653543307,"duration":0.28301874999999654},{"name":"F3","midi":53,"time":40.47168124999995,"velocity":0.5826771653543307,"duration":0.28301874999999654},{"name":"D#4","midi":63,"time":40.75469999999995,"velocity":0.5826771653543307,"duration":0.5660375000000002},{"name":"F#3","midi":54,"time":40.75469999999995,"velocity":0.5826771653543307,"duration":1.6981124999999935},{"name":"A#4","midi":70,"time":41.32073749999995,"velocity":0.5826771653543307,"duration":0.5660374999999931},{"name":"C#4","midi":61,"time":41.32073749999995,"velocity":0.5826771653543307,"duration":0.5660374999999931},{"name":"A#3","midi":58,"time":41.32073749999995,"velocity":0.5826771653543307,"duration":0.28301874999999654},{"name":"A3","midi":57,"time":41.60375624999995,"velocity":0.5826771653543307,"duration":0.28301874999999654},{"name":"D#5","midi":75,"time":41.88677499999994,"velocity":0.5826771653543307,"duration":1.6981124999999935},{"name":"A#3","midi":58,"time":41.88677499999994,"velocity":0.5826771653543307,"duration":0.5660375000000002},{"name":"C#5","midi":73,"time":42.45281249999994,"velocity":0.5826771653543307,"duration":0.5660374999999931},{"name":"F3","midi":53,"time":42.45281249999994,"velocity":0.5826771653543307,"duration":0.28301874999999654},{"name":"G3","midi":55,"time":42.73583124999994,"velocity":0.5826771653543307,"duration":0.28301874999999654},{"name":"C5","midi":72,"time":43.01884999999994,"velocity":0.5826771653543307,"duration":0.5660375000000002},{"name":"G#3","midi":56,"time":43.01884999999994,"velocity":0.5826771653543307,"duration":1.6981124999999864},{"name":"C#5","midi":73,"time":43.58488749999994,"velocity":0.5826771653543307,"duration":0.28301874999999654},{"name":"A#4","midi":70,"time":43.58488749999994,"velocity":0.5826771653543307,"duration":0.5660374999999931},{"name":"D#4","midi":63,"time":43.58488749999994,"velocity":0.5826771653543307,"duration":0.5660374999999931},{"name":"C5","midi":72,"time":43.86790624999993,"velocity":0.5826771653543307,"duration":0.28301874999999654},{"name":"F5","midi":77,"time":44.15092499999993,"velocity":0.5826771653543307,"duration":0.5660374999999931},{"name":"G#4","midi":68,"time":44.15092499999993,"velocity":0.5826771653543307,"duration":0.28301874999999654},{"name":"C4","midi":60,"time":44.15092499999993,"velocity":0.5826771653543307,"duration":0.5660374999999931},{"name":"A#4","midi":70,"time":44.433943749999926,"velocity":0.5826771653543307,"duration":0.28301874999999654},{"name":"F4","midi":65,"time":44.71696249999992,"velocity":0.5826771653543307,"duration":0.5660374999999931},{"name":"D#5","midi":75,"time":44.71696249999992,"velocity":0.5826771653543307,"duration":0.5660374999999931},{"name":"C5","midi":72,"time":44.71696249999992,"velocity":0.5826771653543307,"duration":1.1320749999999933},{"name":"G3","midi":55,"time":44.71696249999992,"velocity":0.5826771653543307,"duration":0.28301874999999654},{"name":"A3","midi":57,"time":44.99998124999992,"velocity":0.5826771653543307,"duration":0.28301874999999654},{"name":"C#5","midi":73,"time":45.282999999999916,"velocity":0.5826771653543307,"duration":1.6981124999999935},{"name":"F4","midi":65,"time":45.282999999999916,"velocity":0.5826771653543307,"duration":1.1320749999999933},{"name":"A#3","midi":58,"time":45.282999999999916,"velocity":0.5826771653543307,"duration":0.5660375000000002},{"name":"A#4","midi":70,"time":45.849037499999916,"velocity":0.5826771653543307,"duration":0.28301874999999654},{"name":"C4","midi":60,"time":45.849037499999916,"velocity":0.5826771653543307,"duration":0.5660374999999931},{"name":"A4","midi":69,"time":46.13205624999991,"velocity":0.5826771653543307,"duration":0.28301874999999654},{"name":"A#4","midi":70,"time":46.41507499999991,"velocity":0.5826771653543307,"duration":0.5660375000000002},{"name":"C#4","midi":61,"time":46.41507499999991,"velocity":0.5826771653543307,"duration":1.6981124999999935},{"name":"D#5","midi":75,"time":46.98111249999991,"velocity":0.5826771653543307,"duration":0.28301874999999654},{"name":"G#4","midi":68,"time":46.98111249999991,"velocity":0.5826771653543307,"duration":0.5660374999999931},{"name":"E5","midi":76,"time":47.264131249999906,"velocity":0.5826771653543307,"duration":0.28301874999999654},{"name":"A#4","midi":70,"time":47.5471499999999,"velocity":0.5826771653543307,"duration":0.5660375000000002},{"name":"G4","midi":67,"time":47.5471499999999,"velocity":0.5826771653543307,"duration":0.5660375000000002},{"name":"D#5","midi":75,"time":48.1131874999999,"velocity":0.5826771653543307,"duration":1.1320749999999933},{"name":"A#4","midi":70,"time":48.1131874999999,"velocity":0.5826771653543307,"duration":0.5660375000000002},{"name":"C#4","midi":61,"time":48.1131874999999,"velocity":0.5826771653543307,"duration":0.5660375000000002},{"name":"G3","midi":55,"time":48.1131874999999,"velocity":0.5826771653543307,"duration":0.5660375000000002},{"name":"D#4","midi":63,"time":48.6792249999999,"velocity":0.5826771653543307,"duration":0.28301874999999654},{"name":"B3","midi":59,"time":48.6792249999999,"velocity":0.5826771653543307,"duration":0.5660374999999931},{"name":"G#3","midi":56,"time":48.6792249999999,"velocity":0.5826771653543307,"duration":0.5660374999999931},{"name":"F4","midi":65,"time":48.9622437499999,"velocity":0.5826771653543307,"duration":0.28301874999999654},{"name":"C#4","midi":61,"time":49.245262499999896,"velocity":0.5826771653543307,"duration":0.5660374999999931},{"name":"A#3","midi":58,"time":49.245262499999896,"velocity":0.5826771653543307,"duration":0.5660374999999931},{"name":"C#5","midi":73,"time":49.245262499999896,"velocity":0.5826771653543307,"duration":1.1320749999999933},{"name":"G4","midi":67,"time":49.245262499999896,"velocity":0.5826771653543307,"duration":0.28301874999999654},{"name":"G#4","midi":68,"time":49.52828124999989,"velocity":0.5826771653543307,"duration":0.28301874999999654},{"name":"A#4","midi":70,"time":49.81129999999989,"velocity":0.5826771653543307,"duration":0.5660375000000002},{"name":"G3","midi":55,"time":49.81129999999989,"velocity":0.5826771653543307,"duration":0.5660375000000002},{"name":"D#3","midi":51,"time":49.81129999999989,"velocity":0.5826771653543307,"duration":0.5660375000000002},{"name":"B4","midi":71,"time":50.37733749999989,"velocity":0.5826771653543307,"duration":0.5660375000000002},{"name":"G#4","midi":68,"time":50.37733749999989,"velocity":0.5826771653543307,"duration":0.5660375000000002},{"name":"E4","midi":64,"time":50.37733749999989,"velocity":0.5826771653543307,"duration":1.1320750000000004},{"name":"G#3","midi":56,"time":50.37733749999989,"velocity":0.5826771653543307,"duration":1.1320750000000004},{"name":"A#4","midi":70,"time":50.94337499999989,"velocity":0.5826771653543307,"duration":1.6981124999999935},{"name":"D#4","midi":63,"time":51.50941249999989,"velocity":0.5826771653543307,"duration":0.28301874999999654},{"name":"G3","midi":55,"time":51.50941249999989,"velocity":0.5826771653543307,"duration":0.5660374999999931},{"name":"D4","midi":62,"time":51.792431249999886,"velocity":0.5826771653543307,"duration":0.28301874999999654},{"name":"D#4","midi":63,"time":52.07544999999988,"velocity":0.5826771653543307,"duration":1.6981125000000006},{"name":"B3","midi":59,"time":52.07544999999988,"velocity":0.5826771653543307,"duration":1.6981125000000006},{"name":"G#4","midi":68,"time":52.64148749999988,"velocity":0.5826771653543307,"duration":0.5660375000000002},{"name":"G#5","midi":80,"time":53.20752499999988,"velocity":0.5826771653543307,"duration":1.6981124999999935},{"name":"B4","midi":71,"time":53.77356249999988,"velocity":0.5826771653543307,"duration":0.5660374999999931},{"name":"A#3","midi":58,"time":53.77356249999988,"velocity":0.5826771653543307,"duration":0.28301874999999654},{"name":"G#3","midi":56,"time":54.05658124999988,"velocity":0.5826771653543307,"duration":0.28301874999999654},{"name":"A#4","midi":70,"time":54.339599999999876,"velocity":0.5826771653543307,"duration":0.5660375000000002},{"name":"D#4","midi":63,"time":54.339599999999876,"velocity":0.5826771653543307,"duration":0.5707544791666663},{"name":"F#5","midi":78,"time":54.90563749999988,"velocity":0.5826771653543307,"duration":1.1320750000000004},{"name":"D#4","midi":63,"time":54.90563749999988,"velocity":0.5826771653543307,"duration":0.5660375000000002},{"name":"C#4","midi":61,"time":54.90563749999988,"velocity":0.5826771653543307,"duration":0.5660375000000002},{"name":"G#4","midi":68,"time":55.47167499999988,"velocity":0.5826771653543307,"duration":1.6981124999999935},{"name":"B3","midi":59,"time":55.47167499999988,"velocity":0.5826771653543307,"duration":1.1320749999999933},{"name":"F5","midi":77,"time":56.03771249999988,"velocity":0.5826771653543307,"duration":0.28301874999999654},{"name":"D#5","midi":75,"time":56.320731249999874,"velocity":0.5826771653543307,"duration":0.28301874999999654},{"name":"D5","midi":74,"time":56.60374999999987,"velocity":0.5826771653543307,"duration":0.5660375000000002},{"name":"A#3","midi":58,"time":56.60374999999987,"velocity":0.5826771653543307,"duration":1.6981125000000006},{"name":"F5","midi":77,"time":57.16978749999987,"velocity":0.5826771653543307,"duration":0.5660375000000002},{"name":"D4","midi":62,"time":57.16978749999987,"velocity":0.5826771653543307,"duration":0.5660375000000002},{"name":"F#5","midi":78,"time":57.73582499999987,"velocity":0.5826771653543307,"duration":0.5660375000000002},{"name":"D#4","midi":63,"time":57.73582499999987,"velocity":0.5826771653543307,"duration":0.5660375000000002},{"name":"D5","midi":74,"time":58.30186249999987,"velocity":0.5826771653543307,"duration":0.5660375000000002},{"name":"F4","midi":65,"time":58.30186249999987,"velocity":0.5826771653543307,"duration":0.5660375000000002},{"name":"G#3","midi":56,"time":58.30186249999987,"velocity":0.5826771653543307,"duration":0.5660375000000002},{"name":"D#5","midi":75,"time":58.86789999999987,"velocity":0.5826771653543307,"duration":0.28301874999999654},{"name":"A#3","midi":58,"time":58.86789999999987,"velocity":0.5826771653543307,"duration":0.5660374999999931},{"name":"F#3","midi":54,"time":58.86789999999987,"velocity":0.5826771653543307,"duration":1.1320749999999862},{"name":"C#5","midi":73,"time":59.15091874999987,"velocity":0.5826771653543307,"duration":0.28301874999999654},{"name":"B4","midi":71,"time":59.433937499999864,"velocity":0.5826771653543307,"duration":0.28301874999999654},{"name":"D#4","midi":63,"time":59.433937499999864,"velocity":0.5826771653543307,"duration":1.1320749999999933},{"name":"A#4","midi":70,"time":59.71695624999986,"velocity":0.5826771653543307,"duration":0.28301874999999654},{"name":"G#4","midi":68,"time":59.99997499999986,"velocity":0.5826771653543307,"duration":0.5660375000000002},{"name":"F3","midi":53,"time":59.99997499999986,"velocity":0.5826771653543307,"duration":1.1320750000000004},{"name":"B4","midi":71,"time":60.56601249999986,"velocity":0.5826771653543307,"duration":0.33490552083333114},{"name":"D4","midi":62,"time":60.56601249999986,"velocity":0.5826771653543307,"duration":0.5660375000000002},{"name":"A#4","midi":70,"time":60.83016333333319,"velocity":0.5826771653543307,"duration":0.33490552083333824},{"name":"B4","midi":71,"time":61.13204999999986,"velocity":0.5826771653543307,"duration":0.5660375000000002},{"name":"F#4","midi":66,"time":61.13204999999986,"velocity":0.5826771653543307,"duration":1.6981125000000006},{"name":"D#3","midi":51,"time":61.13204999999986,"velocity":0.5826771653543307,"duration":0.5660375000000002},{"name":"A#4","midi":70,"time":61.69808749999986,"velocity":0.5826771653543307,"duration":0.5660375000000002},{"name":"C#3","midi":49,"time":61.69808749999986,"velocity":0.5826771653543307,"duration":0.5660375000000002},{"name":"G#4","midi":68,"time":62.26412499999986,"velocity":0.5826771653543307,"duration":1.6981124999999935},{"name":"B2","midi":47,"time":62.26412499999986,"velocity":0.5826771653543307,"duration":0.5660375000000002},{"name":"B3","midi":59,"time":62.83016249999986,"velocity":0.5826771653543307,"duration":0.5660374999999931},{"name":"F4","midi":65,"time":62.83016249999986,"velocity":0.5826771653543307,"duration":0.28301874999999654},{"name":"D#4","midi":63,"time":63.113181249999855,"velocity":0.5826771653543307,"duration":0.28301874999999654},{"name":"D4","midi":62,"time":63.39619999999985,"velocity":0.5826771653543307,"duration":0.5660375000000002},{"name":"A#3","midi":58,"time":63.39619999999985,"velocity":0.5826771653543307,"duration":0.5660375000000002},{"name":"F#4","midi":66,"time":63.96223749999985,"velocity":0.5826771653543307,"duration":0.5660375000000002},{"name":"D#4","midi":63,"time":63.96223749999985,"velocity":0.5826771653543307,"duration":1.1320749999999933},{"name":"A#2","midi":46,"time":63.96223749999985,"velocity":0.5826771653543307,"duration":0.5660375000000002},{"name":"F4","midi":65,"time":64.52827499999985,"velocity":0.5826771653543307,"duration":0.5660374999999931},{"name":"A#2","midi":46,"time":64.52827499999985,"velocity":0.5826771653543307,"duration":0.5660374999999931},{"name":"E4","midi":64,"time":65.09431249999984,"velocity":0.5826771653543307,"duration":0.5660374999999931},{"name":"C#4","midi":61,"time":65.09431249999984,"velocity":0.5826771653543307,"duration":0.8490562499999896},{"name":"A#2","midi":46,"time":65.09431249999984,"velocity":0.5826771653543307,"duration":0.5660374999999931},{"name":"D#4","midi":63,"time":65.66034999999984,"velocity":0.5826771653543307,"duration":1.6981124999999793},{"name":"G2","midi":43,"time":65.66034999999984,"velocity":0.5826771653543307,"duration":0.5660374999999931},{"name":"B3","midi":59,"time":65.94336874999983,"velocity":0.5826771653543307,"duration":0.28301874999999654},{"name":"A#3","midi":58,"time":66.22638749999983,"velocity":0.5826771653543307,"duration":0.28301874999999654},{"name":"G#2","midi":44,"time":66.22638749999983,"velocity":0.5826771653543307,"duration":0.5660374999999931},{"name":"G#3","midi":56,"time":66.50940624999983,"velocity":0.5826771653543307,"duration":0.28301874999999654},{"name":"A#2","midi":46,"time":66.79242499999982,"velocity":0.5826771653543307,"duration":1.6981124999999793},{"name":"G3","midi":55,"time":66.79242499999982,"velocity":0.5826771653543307,"duration":0.28301874999999654},{"name":"G#3","midi":56,"time":67.07544374999982,"velocity":0.5826771653543307,"duration":0.28301874999999654},{"name":"C#4","midi":61,"time":67.35846249999982,"velocity":0.5826771653543307,"duration":0.28301874999999654},{"name":"A#3","midi":58,"time":67.35846249999982,"velocity":0.5826771653543307,"duration":0.28301874999999654},{"name":"D#4","midi":63,"time":67.64148124999981,"velocity":0.5826771653543307,"duration":0.28301874999999654},{"name":"B3","midi":59,"time":67.64148124999981,"velocity":0.5826771653543307,"duration":0.28301874999999654},{"name":"E4","midi":64,"time":67.92449999999981,"velocity":0.5826771653543307,"duration":1.6981124999999793},{"name":"C#4","midi":61,"time":67.92449999999981,"velocity":0.5826771653543307,"duration":0.28301874999999654},{"name":"D#4","midi":63,"time":68.2075187499998,"velocity":0.5826771653543307,"duration":0.28301874999999654},{"name":"C#4","midi":61,"time":68.4905374999998,"velocity":0.5826771653543307,"duration":0.28301874999999654},{"name":"G#2","midi":44,"time":68.4905374999998,"velocity":0.5826771653543307,"duration":0.5660374999999931},{"name":"B3","midi":59,"time":68.7735562499998,"velocity":0.5826771653543307,"duration":0.28301874999999654},{"name":"A#3","midi":58,"time":69.0565749999998,"velocity":0.5826771653543307,"duration":0.28301874999999654},{"name":"C#3","midi":49,"time":69.0565749999998,"velocity":0.5826771653543307,"duration":1.6981124999999793},{"name":"G#3","midi":56,"time":69.33959374999979,"velocity":0.5826771653543307,"duration":0.28301874999999654},{"name":"D#4","midi":63,"time":69.62261249999979,"velocity":0.5826771653543307,"duration":0.28301874999999654},{"name":"F#3","midi":54,"time":69.62261249999979,"velocity":0.5826771653543307,"duration":0.28301874999999654},{"name":"F4","midi":65,"time":69.90563124999979,"velocity":0.5826771653543307,"duration":0.28301874999999654},{"name":"F3","midi":53,"time":69.90563124999979,"velocity":0.5826771653543307,"duration":0.28301874999999654},{"name":"F#4","midi":66,"time":70.18864999999978,"velocity":0.5826771653543307,"duration":1.6981124999999793},{"name":"D#3","midi":51,"time":70.18864999999978,"velocity":0.5826771653543307,"duration":1.1320749999999862},{"name":"B2","midi":47,"time":70.75468749999978,"velocity":0.5826771653543307,"duration":0.28301874999999654},{"name":"A#2","midi":46,"time":71.03770624999977,"velocity":0.5826771653543307,"duration":0.28301874999999654},{"name":"D#3","midi":51,"time":71.32072499999977,"velocity":0.5826771653543307,"duration":0.5660374999999931},{"name":"A#3","midi":58,"time":71.88676249999976,"velocity":0.5826771653543307,"duration":0.5660374999999931},{"name":"C#3","midi":49,"time":71.88676249999976,"velocity":0.5826771653543307,"duration":0.5660374999999931},{"name":"F4","midi":65,"time":71.88676249999976,"velocity":0.5826771653543307,"duration":0.28301874999999654},{"name":"G4","midi":67,"time":72.16978124999976,"velocity":0.5826771653543307,"duration":0.28301874999999654},{"name":"G#4","midi":68,"time":72.45279999999975,"velocity":0.5826771653543307,"duration":0.5660374999999931},{"name":"D#4","midi":63,"time":72.45279999999975,"velocity":0.5826771653543307,"duration":0.28301874999999654},{"name":"B2","midi":47,"time":72.45279999999975,"velocity":0.5826771653543307,"duration":0.8490562499999896},{"name":"E4","midi":64,"time":72.73581874999975,"velocity":0.5826771653543307,"duration":0.28301874999999654},{"name":"G#4","midi":68,"time":73.01883749999975,"velocity":0.5826771653543307,"duration":0.5660374999999931},{"name":"D#4","midi":63,"time":73.01883749999975,"velocity":0.5826771653543307,"duration":0.28301874999999654},{"name":"C#4","midi":61,"time":73.30185624999974,"velocity":0.5826771653543307,"duration":0.28301874999999654},{"name":"A#2","midi":46,"time":73.30185624999974,"velocity":0.5826771653543307,"duration":0.28301874999999654},{"name":"G#4","midi":68,"time":73.58487499999974,"velocity":0.5826771653543307,"duration":0.5660374999999931},{"name":"B3","midi":59,"time":73.58487499999974,"velocity":0.5826771653543307,"duration":0.28301874999999654},{"name":"G#2","midi":44,"time":73.58487499999974,"velocity":0.5826771653543307,"duration":0.28301874999999654},{"name":"C#4","midi":61,"time":73.86789374999974,"velocity":0.5826771653543307,"duration":0.28301874999999654},{"name":"A#2","midi":46,"time":73.86789374999974,"velocity":0.5826771653543307,"duration":0.28301874999999654},{"name":"G#4","midi":68,"time":74.15091249999973,"velocity":0.5826771653543307,"duration":0.5660374999999931},{"name":"D#4","midi":63,"time":74.15091249999973,"velocity":0.5826771653543307,"duration":0.8490562499999896},{"name":"B2","midi":47,"time":74.15091249999973,"velocity":0.5826771653543307,"duration":0.28301874999999654},{"name":"G#2","midi":44,"time":74.43393124999973,"velocity":0.5826771653543307,"duration":0.28301874999999654},{"name":"F4","midi":65,"time":74.71694999999973,"velocity":0.5826771653543307,"duration":0.5660374999999931},{"name":"C#3","midi":49,"time":74.71694999999973,"velocity":0.5826771653543307,"duration":0.5660374999999931},{"name":"C#4","midi":61,"time":74.99996874999972,"velocity":0.5826771653543307,"duration":0.28301874999999654},{"name":"F#4","midi":66,"time":75.28298749999972,"velocity":0.5826771653543307,"duration":0.5660374999999931},{"name":"B3","midi":59,"time":75.28298749999972,"velocity":0.5826771653543307,"duration":0.28301874999999654},{"name":"D#3","midi":51,"time":75.28298749999972,"velocity":0.5826771653543307,"duration":0.5660374999999931},{"name":"A#3","midi":58,"time":75.56600624999972,"velocity":0.5826771653543307,"duration":0.28301874999999654},{"name":"G#4","midi":68,"time":75.84902499999971,"velocity":0.5826771653543307,"duration":1.6981124999999793},{"name":"G#3","midi":56,"time":75.84902499999971,"velocity":0.5826771653543307,"duration":0.28301874999999654},{"name":"F3","midi":53,"time":75.84902499999971,"velocity":0.5826771653543307,"duration":0.5660374999999931},{"name":"A#3","midi":58,"time":76.13204374999971,"velocity":0.5826771653543307,"duration":0.28301874999999654},{"name":"C#3","midi":49,"time":76.4150624999997,"velocity":0.5826771653543307,"duration":0.5660374999999931},{"name":"B3","midi":59,"time":76.4150624999997,"velocity":0.5826771653543307,"duration":0.28301874999999654},{"name":"G#3","midi":56,"time":76.6980812499997,"velocity":0.5826771653543307,"duration":0.28301874999999654},{"name":"A#3","midi":58,"time":76.9810999999997,"velocity":0.5826771653543307,"duration":0.5660374999999931},{"name":"F#3","midi":54,"time":76.9810999999997,"velocity":0.5826771653543307,"duration":1.6981124999999793},{"name":"F#4","midi":66,"time":77.54713749999969,"velocity":0.5826771653543307,"duration":0.5660374999999931},{"name":"D#4","midi":63,"time":77.54713749999969,"velocity":0.5826771653543307,"duration":0.5660374999999931},{"name":"B4","midi":71,"time":78.11317499999969,"velocity":0.5826771653543307,"duration":1.6981124999999793},{"name":"G#3","midi":56,"time":78.11317499999969,"velocity":0.5826771653543307,"duration":0.5660374999999931},{"name":"G#4","midi":68,"time":78.67921249999968,"velocity":0.5826771653543307,"duration":0.5660374999999931},{"name":"F3","midi":53,"time":78.67921249999968,"velocity":0.5826771653543307,"duration":0.28301874999999654},{"name":"D#3","midi":51,"time":78.96223124999968,"velocity":0.5826771653543307,"duration":0.28301874999999654},{"name":"C#4","midi":61,"time":79.24524999999967,"velocity":0.5826771653543307,"duration":2.8301874999999654},{"name":"F3","midi":53,"time":79.24524999999967,"velocity":0.5826771653543307,"duration":0.28301874999999654},{"name":"G#3","midi":56,"time":79.52826874999967,"velocity":0.5826771653543307,"duration":0.28301874999999654},{"name":"A#4","midi":70,"time":79.81128749999966,"velocity":0.5826771653543307,"duration":0.28301874999999654},{"name":"C#3","midi":49,"time":79.81128749999966,"velocity":0.5826771653543307,"duration":0.28301874999999654},{"name":"G#4","midi":68,"time":80.09430624999966,"velocity":0.5826771653543307,"duration":0.28301874999999654},{"name":"D#3","midi":51,"time":80.09430624999966,"velocity":0.5826771653543307,"duration":0.28301874999999654},{"name":"C#5","midi":73,"time":80.37732499999966,"velocity":0.5826771653543307,"duration":0.5660374999999931},{"name":"F3","midi":53,"time":80.37732499999966,"velocity":0.5826771653543307,"duration":0.28301874999999654},{"name":"F#3","midi":54,"time":80.66034374999965,"velocity":0.5826771653543307,"duration":0.28301874999999654},{"name":"B4","midi":71,"time":80.94336249999965,"velocity":0.5826771653543307,"duration":0.5660374999999931},{"name":"G#3","midi":56,"time":80.94336249999965,"velocity":0.5826771653543307,"duration":0.28301874999999654},{"name":"F3","midi":53,"time":81.22638124999965,"velocity":0.5826771653543307,"duration":0.28301874999999654},{"name":"A#4","midi":70,"time":81.50939999999964,"velocity":0.5826771653543307,"duration":0.5660374999999931},{"name":"F#3","midi":54,"time":81.50939999999964,"velocity":0.5826771653543307,"duration":0.5660374999999931},{"name":"G#4","midi":68,"time":82.07543749999964,"velocity":0.5826771653543307,"duration":0.28301874999999654},{"name":"C#4","midi":61,"time":82.07543749999964,"velocity":0.5826771653543307,"duration":0.5660374999999931},{"name":"F3","midi":53,"time":82.07543749999964,"velocity":0.5826771653543307,"duration":0.28301874999999654},{"name":"F#4","midi":66,"time":82.35845624999963,"velocity":0.5826771653543307,"duration":0.28301874999999654},{"name":"D#3","midi":51,"time":82.35845624999963,"velocity":0.5826771653543307,"duration":0.28301874999999654},{"name":"F4","midi":65,"time":82.64147499999963,"velocity":0.5826771653543307,"duration":0.28301874999999654},{"name":"C#4","midi":61,"time":82.64147499999963,"velocity":0.5826771653543307,"duration":0.5660374999999931},{"name":"C#3","midi":49,"time":82.64147499999963,"velocity":0.5826771653543307,"duration":0.28301874999999654},{"name":"G4","midi":67,"time":82.92449374999963,"velocity":0.5826771653543307,"duration":0.28301874999999654},{"name":"D#3","midi":51,"time":82.92449374999963,"velocity":0.5826771653543307,"duration":0.28301874999999654},{"name":"G#4","midi":68,"time":83.20751249999962,"velocity":0.5826771653543307,"duration":1.1320749999999862},{"name":"C#4","midi":61,"time":83.20751249999962,"velocity":0.5826771653543307,"duration":0.5660374999999931},{"name":"E3","midi":52,"time":83.20751249999962,"velocity":0.5826771653543307,"duration":0.28301874999999654},{"name":"C#3","midi":49,"time":83.49053124999962,"velocity":0.5826771653543307,"duration":0.28301874999999654},{"name":"A#3","midi":58,"time":83.77354999999962,"velocity":0.5826771653543307,"duration":0.5660374999999931},{"name":"D#3","midi":51,"time":83.77354999999962,"velocity":0.5826771653543307,"duration":1.4150937499999827},{"name":"G4","midi":67,"time":84.33958749999961,"velocity":0.5826771653543307,"duration":0.28301874999999654},{"name":"B3","midi":59,"time":84.33958749999961,"velocity":0.5826771653543307,"duration":0.5660374999999931},{"name":"G#4","midi":68,"time":84.6226062499996,"velocity":0.5826771653543307,"duration":0.28301874999999654},{"name":"C#4","midi":61,"time":84.9056249999996,"velocity":0.5826771653543307,"duration":1.6981124999999793},{"name":"A#4","midi":70,"time":84.9056249999996,"velocity":0.5826771653543307,"duration":1.6981124999999793},{"name":"D#2","midi":39,"time":85.1886437499996,"velocity":0.5826771653543307,"duration":0.28301874999999654},{"name":"F2","midi":41,"time":85.4716624999996,"velocity":0.5826771653543307,"duration":0.28301874999999654},{"name":"G2","midi":43,"time":85.75468124999959,"velocity":0.5826771653543307,"duration":0.28301874999999654},{"name":"G#2","midi":44,"time":86.03769999999959,"velocity":0.5826771653543307,"duration":1.6981124999999793},{"name":"G#4","midi":68,"time":86.60373749999958,"velocity":0.5826771653543307,"duration":0.28301874999999654},{"name":"B3","midi":59,"time":86.60373749999958,"velocity":0.5826771653543307,"duration":0.5660374999999931},{"name":"G4","midi":67,"time":86.88675624999958,"velocity":0.5826771653543307,"duration":0.28301874999999654},{"name":"G#4","midi":68,"time":87.16977499999958,"velocity":0.5826771653543307,"duration":0.5660374999999931},{"name":"E4","midi":64,"time":87.16977499999958,"velocity":0.5826771653543307,"duration":1.6981124999999793},{"name":"A#4","midi":70,"time":87.73581249999957,"velocity":0.5826771653543307,"duration":0.28301874999999654},{"name":"G2","midi":43,"time":87.73581249999957,"velocity":0.5826771653543307,"duration":0.28301874999999654},{"name":"B4","midi":71,"time":88.01883124999956,"velocity":0.5826771653543307,"duration":0.28301874999999654},{"name":"G#2","midi":44,"time":88.01883124999956,"velocity":0.5826771653543307,"duration":0.28301874999999654},{"name":"C#5","midi":73,"time":88.30184999999956,"velocity":0.5826771653543307,"duration":2.8301874999999654},{"name":"A#2","midi":46,"time":88.30184999999956,"velocity":0.5826771653543307,"duration":1.6981124999999793},{"name":"D#4","midi":63,"time":88.86788749999955,"velocity":0.5826771653543307,"duration":0.28301874999999654},{"name":"C#4","midi":61,"time":89.15090624999955,"velocity":0.5826771653543307,"duration":0.28301874999999654},{"name":"F#4","midi":66,"time":89.43392499999955,"velocity":0.5826771653543307,"duration":0.5660374999999931},{"name":"E4","midi":64,"time":89.99996249999954,"velocity":0.5826771653543307,"duration":0.5660374999999931},{"name":"G#2","midi":44,"time":89.99996249999954,"velocity":0.5826771653543307,"duration":0.28301874999999654},{"name":"A#2","midi":46,"time":90.28298124999954,"velocity":0.5826771653543307,"duration":0.28301874999999654},{"name":"D#4","midi":63,"time":90.56599999999953,"velocity":0.5826771653543307,"duration":0.5660374999999931},{"name":"B2","midi":47,"time":90.56599999999953,"velocity":0.5826771653543307,"duration":2.2641499999999724},{"name":"D#5","midi":75,"time":91.13203749999953,"velocity":0.5826771653543307,"duration":0.5660374999999931},{"name":"B4","midi":71,"time":91.13203749999953,"velocity":0.5826771653543307,"duration":0.28301874999999654},{"name":"G3","midi":55,"time":91.13203749999953,"velocity":0.5826771653543307,"duration":0.5660374999999931},{"name":"A#4","midi":70,"time":91.41505624999952,"velocity":0.5826771653543307,"duration":0.28301874999999654},{"name":"D#5","midi":75,"time":91.69807499999952,"velocity":0.5826771653543307,"duration":0.5660374999999931},{"name":"B4","midi":71,"time":91.69807499999952,"velocity":0.5826771653543307,"duration":0.28301874999999654},{"name":"G#3","midi":56,"time":91.69807499999952,"velocity":0.5826771653543307,"duration":0.5660374999999931},{"name":"G#4","midi":68,"time":91.98109374999952,"velocity":0.5826771653543307,"duration":0.28301874999999654},{"name":"D#5","midi":75,"time":92.26411249999951,"velocity":0.5826771653543307,"duration":0.5660374999999931},{"name":"F#4","midi":66,"time":92.26411249999951,"velocity":0.5826771653543307,"duration":0.28301874999999654},{"name":"A3","midi":57,"time":92.26411249999951,"velocity":0.5826771653543307,"duration":0.5660374999999931},{"name":"F4","midi":65,"time":92.54713124999951,"velocity":0.5826771653543307,"duration":0.28301874999999654},{"name":"D5","midi":74,"time":92.8301499999995,"velocity":0.5826771653543307,"duration":0.5660374999999931},{"name":"F#4","midi":66,"time":92.8301499999995,"velocity":0.5826771653543307,"duration":0.8490562499999896},{"name":"A#3","midi":58,"time":92.8301499999995,"velocity":0.5826771653543307,"duration":1.6981124999999793},{"name":"A#2","midi":46,"time":92.8301499999995,"velocity":0.5826771653543307,"duration":0.5660374999999931},{"name":"D#5","midi":75,"time":93.3961874999995,"velocity":0.5826771653543307,"duration":0.5660374999999931},{"name":"C3","midi":48,"time":93.3961874999995,"velocity":0.5826771653543307,"duration":0.5660374999999931},{"name":"F#4","midi":66,"time":93.6792062499995,"velocity":0.5826771653543307,"duration":0.28301874999999654},{"name":"F5","midi":77,"time":93.96222499999949,"velocity":0.5826771653543307,"duration":1.6981124999999793},{"name":"F4","midi":65,"time":93.96222499999949,"velocity":0.5826771653543307,"duration":0.28301874999999654},{"name":"D3","midi":50,"time":93.96222499999949,"velocity":0.5826771653543307,"duration":0.5660374999999931},{"name":"F#4","midi":66,"time":94.24524374999949,"velocity":0.5826771653543307,"duration":0.28301874999999654},{"name":"G#4","midi":68,"time":94.52826249999949,"velocity":0.5826771653543307,"duration":1.1320749999999862},{"name":"G#3","midi":56,"time":94.52826249999949,"velocity":0.5826771653543307,"duration":0.28301874999999654},{"name":"C3","midi":48,"time":94.52826249999949,"velocity":0.5826771653543307,"duration":0.28301874999999654},{"name":"D3","midi":50,"time":94.81128124999948,"velocity":0.5826771653543307,"duration":0.28301874999999654},{"name":"A#3","midi":58,"time":94.81128124999948,"velocity":0.5826771653543307,"duration":0.28301874999999654},{"name":"B3","midi":59,"time":95.09429999999948,"velocity":0.5826771653543307,"duration":1.6981124999999793},{"name":"D#3","midi":51,"time":95.09429999999948,"velocity":0.5826771653543307,"duration":0.5660374999999931},{"name":"F#4","midi":66,"time":95.66033749999947,"velocity":0.5826771653543307,"duration":0.5660374999999931},{"name":"D#5","midi":75,"time":95.66033749999947,"velocity":0.5826771653543307,"duration":0.5660374999999931},{"name":"D3","midi":50,"time":95.66033749999947,"velocity":0.5826771653543307,"duration":0.28301874999999654},{"name":"D#3","midi":51,"time":95.94335624999947,"velocity":0.5826771653543307,"duration":0.28301874999999654},{"name":"G#5","midi":80,"time":96.22637499999946,"velocity":0.5826771653543307,"duration":1.6981124999999793},{"name":"F3","midi":53,"time":96.22637499999946,"velocity":0.5826771653543307,"duration":1.6981124999999793},{"name":"F#5","midi":78,"time":96.79241249999946,"velocity":0.5826771653543307,"duration":0.5660374999999931},{"name":"A#3","midi":58,"time":96.79241249999946,"velocity":0.5826771653543307,"duration":0.28301874999999654},{"name":"C4","midi":60,"time":97.07543124999945,"velocity":0.5826771653543307,"duration":0.28301874999999654},{"name":"F5","midi":77,"time":97.35844999999945,"velocity":0.5826771653543307,"duration":1.1320749999999862},{"name":"C#4","midi":61,"time":97.35844999999945,"velocity":0.5826771653543307,"duration":1.6981124999999793},{"name":"F#5","midi":78,"time":97.92448749999944,"velocity":0.5826771653543307,"duration":0.28301874999999654},{"name":"D#3","midi":51,"time":97.92448749999944,"velocity":0.5826771653543307,"duration":0.28301874999999654},{"name":"F5","midi":77,"time":98.20750624999944,"velocity":0.5826771653543307,"duration":0.28301874999999654},{"name":"F3","midi":53,"time":98.20750624999944,"velocity":0.5826771653543307,"duration":0.28301874999999654},{"name":"F#3","midi":54,"time":98.49052499999944,"velocity":0.5826771653543307,"duration":1.6981124999999793},{"name":"A#5","midi":82,"time":98.49052499999944,"velocity":0.5826771653543307,"duration":0.5660374999999931},{"name":"F5","midi":77,"time":99.05656249999943,"velocity":0.5826771653543307,"duration":0.5660374999999931},{"name":"G#5","midi":80,"time":99.05656249999943,"velocity":0.5826771653543307,"duration":0.5660374999999931},{"name":"C4","midi":60,"time":99.05656249999943,"velocity":0.5826771653543307,"duration":0.28301874999999654},{"name":"D4","midi":62,"time":99.33958124999943,"velocity":0.5826771653543307,"duration":0.28301874999999654},{"name":"F#5","midi":78,"time":99.62259999999942,"velocity":0.5826771653543307,"duration":0.5660374999999931},{"name":"D#5","midi":75,"time":99.62259999999942,"velocity":0.5826771653543307,"duration":0.5660374999999931},{"name":"D#4","midi":63,"time":99.62259999999942,"velocity":0.5826771653543307,"duration":1.4150937499999827},{"name":"A#5","midi":82,"time":100.18863749999942,"velocity":0.5826771653543307,"duration":0.5660374999999931},{"name":"C#5","midi":73,"time":100.18863749999942,"velocity":0.5826771653543307,"duration":1.1320749999999862},{"name":"F3","midi":53,"time":100.18863749999942,"velocity":0.5826771653543307,"duration":0.28301874999999654},{"name":"G3","midi":55,"time":100.47165624999941,"velocity":0.5826771653543307,"duration":0.28301874999999654},{"name":"D#5","midi":75,"time":100.75467499999941,"velocity":0.5826771653543307,"duration":2.8301874999999654},{"name":"G#3","midi":56,"time":100.75467499999941,"velocity":0.5826771653543307,"duration":1.6981124999999793},{"name":"E4","midi":64,"time":101.0376937499994,"velocity":0.5826771653543307,"duration":0.28301874999999654},{"name":"B4","midi":71,"time":101.3207124999994,"velocity":0.5826771653543307,"duration":0.28301874999999654},{"name":"D#4","midi":63,"time":101.3207124999994,"velocity":0.5826771653543307,"duration":0.28301874999999654},{"name":"A#4","midi":70,"time":101.6037312499994,"velocity":0.5826771653543307,"duration":0.28301874999999654},{"name":"C#4","midi":61,"time":101.6037312499994,"velocity":0.5826771653543307,"duration":0.28301874999999654},{"name":"G#4","midi":68,"time":101.8867499999994,"velocity":0.5826771653543307,"duration":0.28301874999999654},{"name":"B3","midi":59,"time":101.8867499999994,"velocity":0.5826771653543307,"duration":1.6981124999999793},{"name":"D#4","midi":63,"time":102.16976874999939,"velocity":0.5826771653543307,"duration":0.28301874999999654},{"name":"G#4","midi":68,"time":102.45278749999939,"velocity":0.5826771653543307,"duration":0.5660374999999931},{"name":"F#3","midi":54,"time":102.45278749999939,"velocity":0.5826771653543307,"duration":0.5660374999999931},{"name":"E3","midi":52,"time":103.01882499999938,"velocity":0.5826771653543307,"duration":1.1320749999999862},{"name":"G#4","midi":68,"time":103.01882499999938,"velocity":0.5826771653543307,"duration":0.5660374999999931},{"name":"G#4","midi":68,"time":103.58486249999937,"velocity":0.5826771653543307,"duration":0.5660374999999931},{"name":"D5","midi":74,"time":103.58486249999937,"velocity":0.5826771653543307,"duration":0.5660374999999931},{"name":"A#3","midi":58,"time":103.58486249999937,"velocity":0.5826771653543307,"duration":0.28301874999999654},{"name":"G#3","midi":56,"time":103.86788124999937,"velocity":0.5826771653543307,"duration":0.28301874999999654},{"name":"D#5","midi":75,"time":104.15089999999937,"velocity":0.5826771653543307,"duration":0.5660374999999931},{"name":"G4","midi":67,"time":104.15089999999937,"velocity":0.5826771653543307,"duration":0.5660374999999931},{"name":"A#3","midi":58,"time":104.15089999999937,"velocity":0.5826771653543307,"duration":0.5660374999999931},{"name":"D#3","midi":51,"time":104.15089999999937,"velocity":0.5826771653543307,"duration":1.1320749999999862},{"name":"G#4","midi":68,"time":104.71693749999936,"velocity":0.5826771653543307,"duration":0.5660374999999931},{"name":"E4","midi":64,"time":104.71693749999936,"velocity":0.5826771653543307,"duration":0.5660374999999931},{"name":"A#4","midi":70,"time":105.28297499999935,"velocity":0.5826771653543307,"duration":1.6981124999999793},{"name":"E4","midi":64,"time":105.28297499999935,"velocity":0.5826771653543307,"duration":0.5660374999999931},{"name":"C#3","midi":49,"time":105.28297499999935,"velocity":0.5826771653543307,"duration":1.1320749999999862},{"name":"E4","midi":64,"time":105.84901249999935,"velocity":0.5826771653543307,"duration":0.5660374999999931},{"name":"D#4","midi":63,"time":106.41504999999934,"velocity":0.5826771653543307,"duration":0.5660374999999931},{"name":"B2","midi":47,"time":106.41504999999934,"velocity":0.5826771653543307,"duration":1.6981124999999793},{"name":"G#4","midi":68,"time":106.98108749999933,"velocity":0.5826771653543307,"duration":0.5660374999999931},{"name":"F4","midi":65,"time":106.98108749999933,"velocity":0.5826771653543307,"duration":0.5660374999999931},{"name":"C#5","midi":73,"time":107.54712499999933,"velocity":0.5826771653543307,"duration":1.6981124999999793},{"name":"G4","midi":67,"time":107.54712499999933,"velocity":0.5826771653543307,"duration":0.5660374999999931},{"name":"G#4","midi":68,"time":108.11316249999932,"velocity":0.5826771653543307,"duration":0.5660374999999931},{"name":"A#2","midi":46,"time":108.11316249999932,"velocity":0.5826771653543307,"duration":0.28301874999999654},{"name":"G#2","midi":44,"time":108.39618124999932,"velocity":0.5826771653543307,"duration":0.28301874999999654},{"name":"A#4","midi":70,"time":108.67919999999931,"velocity":0.5826771653543307,"duration":0.5660374999999931},{"name":"G2","midi":43,"time":108.67919999999931,"velocity":0.5826771653543307,"duration":0.5660374999999931},{"name":"B4","midi":71,"time":109.2452374999993,"velocity":0.5826771653543307,"duration":0.28301874999999654},{"name":"G#4","midi":68,"time":109.2452374999993,"velocity":0.5826771653543307,"duration":0.5660374999999931},{"name":"D#3","midi":51,"time":109.2452374999993,"velocity":0.5826771653543307,"duration":0.5660374999999931},{"name":"A#4","midi":70,"time":109.5282562499993,"velocity":0.5826771653543307,"duration":0.28301874999999654},{"name":"D#5","midi":75,"time":109.8112749999993,"velocity":0.5826771653543307,"duration":0.5660374999999931},{"name":"G4","midi":67,"time":109.8112749999993,"velocity":0.5826771653543307,"duration":1.1320749999999862},{"name":"D#3","midi":51,"time":109.8112749999993,"velocity":0.5826771653543307,"duration":0.5660374999999931},{"name":"C#5","midi":73,"time":110.37731249999929,"velocity":0.5826771653543307,"duration":0.5660374999999931},{"name":"D#3","midi":51,"time":110.37731249999929,"velocity":0.5826771653543307,"duration":0.5660374999999931},{"name":"B4","midi":71,"time":110.94334999999928,"velocity":0.5826771653543307,"duration":0.5660374999999931},{"name":"G#4","midi":68,"time":110.94334999999928,"velocity":0.5826771653543307,"duration":0.5660374999999931},{"name":"D3","midi":50,"time":110.94334999999928,"velocity":0.5826771653543307,"duration":0.5660374999999931},{"name":"A#4","midi":70,"time":111.50938749999928,"velocity":0.5826771653543307,"duration":0.5660374999999931},{"name":"F#4","midi":66,"time":111.50938749999928,"velocity":0.5826771653543307,"duration":1.1320749999999862},{"name":"D#3","midi":51,"time":111.50938749999928,"velocity":0.5826771653543307,"duration":0.5660374999999931},{"name":"G#4","midi":68,"time":112.07542499999927,"velocity":0.5826771653543307,"duration":1.6981124999999793},{"name":"F3","midi":53,"time":112.07542499999927,"velocity":0.5826771653543307,"duration":1.6981124999999793},{"name":"F4","midi":65,"time":112.64146249999926,"velocity":0.5826771653543307,"duration":0.28301874999999654},{"name":"D#4","midi":63,"time":112.92448124999926,"velocity":0.5826771653543307,"duration":0.28301874999999654},{"name":"D4","midi":62,"time":113.20749999999926,"velocity":0.5826771653543307,"duration":0.5660374999999931},{"name":"F#4","midi":66,"time":113.77353749999925,"velocity":0.5826771653543307,"duration":0.5660374999999931},{"name":"D#4","midi":63,"time":113.77353749999925,"velocity":0.5826771653543307,"duration":1.1320749999999862},{"name":"D#3","midi":51,"time":113.77353749999925,"velocity":0.5826771653543307,"duration":0.5660374999999931},{"name":"F4","midi":65,"time":114.33957499999924,"velocity":0.5826771653543307,"duration":1.6981124999999793},{"name":"G#3","midi":56,"time":114.33957499999924,"velocity":0.5826771653543307,"duration":1.6981124999999793},{"name":"D4","midi":62,"time":114.90561249999924,"velocity":0.5826771653543307,"duration":0.28301874999999654},{"name":"C4","midi":60,"time":115.18863124999923,"velocity":0.5826771653543307,"duration":0.28301874999999654},{"name":"D4","midi":62,"time":115.47164999999923,"velocity":0.5826771653543307,"duration":1.1320749999999862},{"name":"A#4","midi":70,"time":116.03768749999922,"velocity":0.5826771653543307,"duration":0.28301874999999654},{"name":"F#3","midi":54,"time":116.03768749999922,"velocity":0.5826771653543307,"duration":0.28301874999999654},{"name":"G#4","midi":68,"time":116.32070624999922,"velocity":0.5826771653543307,"duration":0.28301874999999654},{"name":"F3","midi":53,"time":116.32070624999922,"velocity":0.5826771653543307,"duration":0.28301874999999654},{"name":"C#4","midi":61,"time":116.60372499999922,"velocity":0.5826771653543307,"duration":1.6981124999999793},{"name":"F#4","midi":66,"time":116.60372499999922,"velocity":0.5826771653543307,"duration":0.5660374999999931},{"name":"A#3","midi":58,"time":116.60372499999922,"velocity":0.5826771653543307,"duration":0.5660374999999931},{"name":"G#3","midi":56,"time":117.16976249999921,"velocity":0.5826771653543307,"duration":0.5660374999999931},{"name":"E4","midi":64,"time":117.16976249999921,"velocity":0.5826771653543307,"duration":0.5660374999999931},{"name":"D#4","midi":63,"time":117.7357999999992,"velocity":0.5826771653543307,"duration":0.5660374999999931},{"name":"G3","midi":55,"time":117.7357999999992,"velocity":0.5826771653543307,"duration":0.5660374999999931},{"name":"D#5","midi":75,"time":118.3018374999992,"velocity":0.5826771653543307,"duration":0.8490562499999896},{"name":"B3","midi":59,"time":118.3018374999992,"velocity":0.5826771653543307,"duration":0.28301874999999654},{"name":"D#3","midi":51,"time":118.3018374999992,"velocity":0.5826771653543307,"duration":0.5660374999999931},{"name":"A#3","midi":58,"time":118.58485624999919,"velocity":0.5826771653543307,"duration":0.28301874999999654},{"name":"B3","midi":59,"time":118.86787499999919,"velocity":0.5826771653543307,"duration":0.5660374999999931},{"name":"G#3","midi":56,"time":118.86787499999919,"velocity":0.5826771653543307,"duration":1.6981124999999793},{"name":"B4","midi":71,"time":119.15089374999918,"velocity":0.5826771653543307,"duration":0.28301874999999654},{"name":"A#4","midi":70,"time":119.43391249999918,"velocity":0.5826771653543307,"duration":0.28301874999999654},{"name":"E4","midi":64,"time":119.43391249999918,"velocity":0.5826771653543307,"duration":0.5660374999999931},{"name":"G#4","midi":68,"time":119.71693124999918,"velocity":0.5826771653543307,"duration":0.28301874999999654},{"name":"A#4","midi":70,"time":119.99994999999917,"velocity":0.5826771653543307,"duration":1.6981124999999793},{"name":"C#4","midi":61,"time":119.99994999999917,"velocity":0.5826771653543307,"duration":0.5660374999999931},{"name":"C#5","midi":73,"time":120.56598749999917,"velocity":0.5826771653543307,"duration":0.5660374999999931},{"name":"A#3","midi":58,"time":120.56598749999917,"velocity":0.5826771653543307,"duration":0.5660374999999931},{"name":"G3","midi":55,"time":120.56598749999917,"velocity":0.5826771653543307,"duration":0.28301874999999654},{"name":"F3","midi":53,"time":120.84900624999916,"velocity":0.5826771653543307,"duration":0.28301874999999654},{"name":"C#5","midi":73,"time":121.13202499999916,"velocity":0.5826771653543307,"duration":0.5660374999999931},{"name":"D#4","midi":63,"time":121.13202499999916,"velocity":0.5826771653543307,"duration":0.5660374999999931},{"name":"G3","midi":55,"time":121.13202499999916,"velocity":0.5826771653543307,"duration":0.5660374999999931},{"name":"C#5","midi":73,"time":121.69806249999915,"velocity":0.5826771653543307,"duration":0.5660374999999931},{"name":"E4","midi":64,"time":121.69806249999915,"velocity":0.5826771653543307,"duration":0.5660374999999931},{"name":"F#3","midi":54,"time":121.69806249999915,"velocity":0.5826771653543307,"duration":1.1320749999999862},{"name":"A4","midi":69,"time":121.69806249999915,"velocity":0.5826771653543307,"duration":0.5660374999999931},{"name":"C5","midi":72,"time":122.26409999999915,"velocity":0.5826771653543307,"duration":0.5660374999999931},{"name":"G#4","midi":68,"time":122.26409999999915,"velocity":0.5826771653543307,"duration":1.1320749999999862},{"name":"D#4","midi":63,"time":122.26409999999915,"velocity":0.5826771653543307,"duration":0.5660374999999931},{"name":"C#5","midi":73,"time":122.83013749999914,"velocity":0.5826771653543307,"duration":0.5660374999999931},{"name":"C#4","midi":61,"time":122.83013749999914,"velocity":0.5826771653543307,"duration":1.1320749999999862},{"name":"E3","midi":52,"time":122.83013749999914,"velocity":0.5826771653543307,"duration":0.5660374999999931},{"name":"D#5","midi":75,"time":123.39617499999913,"velocity":0.5826771653543307,"duration":1.6981124999999793},{"name":"A4","midi":69,"time":123.39617499999913,"velocity":0.5826771653543307,"duration":0.5660374999999931},{"name":"F#3","midi":54,"time":123.39617499999913,"velocity":0.5826771653543307,"duration":0.5660374999999931},{"name":"G#4","midi":68,"time":123.96221249999913,"velocity":0.5826771653543307,"duration":0.28301874999999654},{"name":"C4","midi":60,"time":123.96221249999913,"velocity":0.5826771653543307,"duration":0.5660374999999931},{"name":"G#3","midi":56,"time":123.96221249999913,"velocity":0.5826771653543307,"duration":0.5660374999999931},{"name":"F#4","midi":66,"time":124.24523124999912,"velocity":0.5826771653543307,"duration":0.28301874999999654},{"name":"E4","midi":64,"time":124.52824999999912,"velocity":0.5826771653543307,"duration":0.5660374999999931},{"name":"C#4","midi":61,"time":124.52824999999912,"velocity":0.5826771653543307,"duration":1.6981124999999793},{"name":"A3","midi":57,"time":124.52824999999912,"velocity":0.5826771653543307,"duration":1.6981124999999793},{"name":"C#5","midi":73,"time":125.09428749999911,"velocity":0.5826771653543307,"duration":0.5660374999999931},{"name":"F#4","midi":66,"time":125.09428749999911,"velocity":0.5826771653543307,"duration":0.28301874999999654},{"name":"G#4","midi":68,"time":125.37730624999911,"velocity":0.5826771653543307,"duration":0.28301874999999654},{"name":"A4","midi":69,"time":125.6603249999991,"velocity":0.5826771653543307,"duration":1.1320749999999862},{"name":"F#5","midi":78,"time":125.6603249999991,"velocity":0.5826771653543307,"duration":1.6981124999999793},{"name":"D#4","midi":63,"time":126.2263624999991,"velocity":0.5826771653543307,"duration":0.5660374999999931},{"name":"G#3","midi":56,"time":126.2263624999991,"velocity":0.5826771653543307,"duration":0.28301874999999654},{"name":"F#3","midi":54,"time":126.5093812499991,"velocity":0.5826771653543307,"duration":0.28301874999999654},{"name":"G#4","midi":68,"time":126.79239999999909,"velocity":0.5826771653543307,"duration":1.6981124999999935},{"name":"C4","midi":60,"time":126.79239999999909,"velocity":0.5826771653543307,"duration":0.5660374999999931},{"name":"G#3","midi":56,"time":126.79239999999909,"velocity":0.5826771653543307,"duration":0.5660374999999931},{"name":"E5","midi":76,"time":127.35843749999908,"velocity":0.5826771653543307,"duration":0.28301874999999654},{"name":"C#4","midi":61,"time":127.35843749999908,"velocity":0.5826771653543307,"duration":0.5660374999999931},{"name":"A#3","midi":58,"time":127.35843749999908,"velocity":0.5826771653543307,"duration":0.5660374999999931},{"name":"D#5","midi":75,"time":127.64145624999908,"velocity":0.5826771653543307,"duration":0.28301874999999654},{"name":"G#5","midi":80,"time":127.92447499999908,"velocity":0.5826771653543307,"duration":0.5660375000000073},{"name":"D4","midi":62,"time":127.92447499999908,"velocity":0.5826771653543307,"duration":1.1320750000000004},{"name":"B3","midi":59,"time":127.92447499999908,"velocity":0.5826771653543307,"duration":1.6981124999999935},{"name":"F#5","midi":78,"time":128.49051249999908,"velocity":0.5826771653543307,"duration":0.5660374999999931},{"name":"A4","midi":69,"time":128.49051249999908,"velocity":0.5826771653543307,"duration":0.28301874999999654},{"name":"B4","midi":71,"time":128.77353124999908,"velocity":0.5826771653543307,"duration":0.28301874999999654},{"name":"F5","midi":77,"time":129.05654999999908,"velocity":0.5826771653543307,"duration":0.5660374999999931},{"name":"C#5","midi":73,"time":129.05654999999908,"velocity":0.5826771653543307,"duration":1.1320749999999862},{"name":"C#4","midi":61,"time":129.05654999999908,"velocity":0.5826771653543307,"duration":0.5660374999999931},{"name":"C#5","midi":73,"time":129.62258749999907,"velocity":0.5826771653543307,"duration":1.1320749999999862},{"name":"D#4","midi":63,"time":129.62258749999907,"velocity":0.5826771653543307,"duration":0.28301874999999654},{"name":"A#3","midi":58,"time":129.62258749999907,"velocity":0.5826771653543307,"duration":0.28301874999999654},{"name":"F4","midi":65,"time":129.90560624999907,"velocity":0.5826771653543307,"duration":0.28301874999999654},{"name":"G#3","midi":56,"time":129.90560624999907,"velocity":0.5826771653543307,"duration":0.28301874999999654},{"name":"F#5","midi":78,"time":130.18862499999906,"velocity":0.5826771653543307,"duration":2.2641499999999724},{"name":"F#4","midi":66,"time":130.18862499999906,"velocity":0.5826771653543307,"duration":0.28301874999999654},{"name":"A#3","midi":58,"time":130.18862499999906,"velocity":0.5826771653543307,"duration":0.5660374999999931},{"name":"G#4","midi":68,"time":130.47164374999906,"velocity":0.5826771653543307,"duration":0.28301874999999654},{"name":"D#5","midi":75,"time":130.75466249999906,"velocity":0.5826771653543307,"duration":0.5660374999999931},{"name":"C4","midi":60,"time":130.75466249999906,"velocity":0.5826771653543307,"duration":0.5660374999999931},{"name":"A4","midi":69,"time":130.75466249999906,"velocity":0.5826771653543307,"duration":1.1320749999999862},{"name":"C#5","midi":73,"time":131.32069999999905,"velocity":0.5826771653543307,"duration":0.5660374999999931},{"name":"C#4","midi":61,"time":131.32069999999905,"velocity":0.5826771653543307,"duration":1.1320749999999862},{"name":"B4","midi":71,"time":131.88673749999904,"velocity":0.5826771653543307,"duration":0.5660374999999931},{"name":"G#4","midi":68,"time":131.88673749999904,"velocity":0.5826771653543307,"duration":0.28301874999999654},{"name":"F#4","midi":66,"time":132.16975624999904,"velocity":0.5826771653543307,"duration":0.28301874999999654},{"name":"F5","midi":77,"time":132.45277499999904,"velocity":0.5826771653543307,"duration":1.1320749999999862},{"name":"B4","midi":71,"time":132.45277499999904,"velocity":0.5826771653543307,"duration":0.5660374999999931},{"name":"G#4","midi":68,"time":132.45277499999904,"velocity":0.5826771653543307,"duration":1.1320749999999862},{"name":"C#3","midi":49,"time":132.45277499999904,"velocity":0.5826771653543307,"duration":1.1320749999999862},{"name":"B4","midi":71,"time":133.01881249999903,"velocity":0.5826771653543307,"duration":0.5660374999999931},{"name":"F#5","midi":78,"time":133.58484999999902,"velocity":0.5826771653543307,"duration":1.6981124999999793},{"name":"A#4","midi":70,"time":133.58484999999902,"velocity":0.5826771653543307,"duration":0.5660374999999931},{"name":"F#4","midi":66,"time":133.58484999999902,"velocity":0.5826771653543307,"duration":0.5660374999999931},{"name":"F#3","midi":54,"time":133.58484999999902,"velocity":0.5826771653543307,"duration":0.28301874999999654},{"name":"F3","midi":53,"time":133.86786874999902,"velocity":0.5826771653543307,"duration":0.28301874999999654},{"name":"B4","midi":71,"time":134.15088749999902,"velocity":0.5826771653543307,"duration":0.5660374999999931},{"name":"F#3","midi":54,"time":134.15088749999902,"velocity":0.5826771653543307,"duration":0.28301874999999654},{"name":"G#3","midi":56,"time":134.433906249999,"velocity":0.5826771653543307,"duration":0.28301874999999654},{"name":"C#5","midi":73,"time":134.716924999999,"velocity":0.5826771653543307,"duration":1.6981124999999793},{"name":"A#3","midi":58,"time":134.716924999999,"velocity":0.5826771653543307,"duration":0.28301874999999654},{"name":"F#3","midi":54,"time":134.999943749999,"velocity":0.5826771653543307,"duration":0.28301874999999654},{"name":"E5","midi":76,"time":135.282962499999,"velocity":0.5826771653543307,"duration":0.5660374999999931},{"name":"G#3","midi":56,"time":135.282962499999,"velocity":0.5826771653543307,"duration":0.28301874999999654},{"name":"A#3","midi":58,"time":135.565981249999,"velocity":0.5826771653543307,"duration":0.28301874999999654},{"name":"D#5","midi":75,"time":135.848999999999,"velocity":0.5826771653543307,"duration":1.6981124999999793},{"name":"B3","midi":59,"time":135.848999999999,"velocity":0.5826771653543307,"duration":0.28301874999999654},{"name":"C#4","midi":61,"time":136.132018749999,"velocity":0.5826771653543307,"duration":0.28301874999999654},{"name":"B4","midi":71,"time":136.415037499999,"velocity":0.5826771653543307,"duration":0.5660374999999931},{"name":"D#4","midi":63,"time":136.415037499999,"velocity":0.5826771653543307,"duration":0.28301874999999654},{"name":"B3","midi":59,"time":136.69805624999898,"velocity":0.5826771653543307,"duration":0.28301874999999654},{"name":"E5","midi":76,"time":136.98107499999898,"velocity":0.5826771653543307,"duration":1.6981124999999793},{"name":"C#4","midi":61,"time":136.98107499999898,"velocity":0.5826771653543307,"duration":0.28301874999999654},{"name":"B3","midi":59,"time":137.26409374999898,"velocity":0.5826771653543307,"duration":0.28301874999999654},{"name":"C#5","midi":73,"time":137.54711249999897,"velocity":0.5826771653543307,"duration":0.28301874999999654},{"name":"A#3","midi":58,"time":137.54711249999897,"velocity":0.5826771653543307,"duration":0.28301874999999654},{"name":"B4","midi":71,"time":137.83013124999897,"velocity":0.5826771653543307,"duration":0.28301874999999654},{"name":"G#3","midi":56,"time":137.83013124999897,"velocity":0.5826771653543307,"duration":0.28301874999999654},{"name":"A#4","midi":70,"time":138.11314999999897,"velocity":0.5826771653543307,"duration":1.1320749999999862},{"name":"F#3","midi":54,"time":138.11314999999897,"velocity":0.5826771653543307,"duration":0.28301874999999654},{"name":"G#3","midi":56,"time":138.39616874999896,"velocity":0.5826771653543307,"duration":0.28301874999999654},{"name":"D#5","midi":75,"time":138.67918749999896,"velocity":0.5826771653543307,"duration":0.28301874999999654},{"name":"F#3","midi":54,"time":138.67918749999896,"velocity":0.5826771653543307,"duration":0.28301874999999654},{"name":"C#5","midi":73,"time":138.96220624999896,"velocity":0.5826771653543307,"duration":0.28301874999999654},{"name":"E3","midi":52,"time":138.96220624999896,"velocity":0.5826771653543307,"duration":0.28301874999999654},{"name":"F#5","midi":78,"time":139.24522499999895,"velocity":0.5826771653543307,"duration":0.5660374999999931},{"name":"A#5","midi":82,"time":139.24522499999895,"velocity":0.5826771653543307,"duration":1.6981124999999793},{"name":"D#3","midi":51,"time":139.24522499999895,"velocity":0.5826771653543307,"duration":0.28301874999999654},{"name":"C#3","midi":49,"time":139.52824374999895,"velocity":0.5826771653543307,"duration":0.28301874999999654},{"name":"E5","midi":76,"time":139.81126249999895,"velocity":0.5826771653543307,"duration":0.5660374999999931},{"name":"B2","midi":47,"time":139.81126249999895,"velocity":0.5826771653543307,"duration":0.28301874999999654},{"name":"A#2","midi":46,"time":140.09428124999894,"velocity":0.5826771653543307,"duration":0.28301874999999654},{"name":"D#5","midi":75,"time":140.37729999999894,"velocity":0.5826771653543307,"duration":1.1320749999999862},{"name":"B2","midi":47,"time":140.37729999999894,"velocity":0.5826771653543307,"duration":0.5660374999999931},{"name":"G#5","midi":80,"time":140.94333749999893,"velocity":0.5826771653543307,"duration":0.28301874999999654},{"name":"D#4","midi":63,"time":140.94333749999893,"velocity":0.5826771653543307,"duration":0.5660374999999931},{"name":"B3","midi":59,"time":140.94333749999893,"velocity":0.5826771653543307,"duration":0.28301874999999654},{"name":"G5","midi":79,"time":141.22635624999893,"velocity":0.5826771653543307,"duration":0.28301874999999654},{"name":"A#3","midi":58,"time":141.22635624999893,"velocity":0.5826771653543307,"duration":0.28301874999999654},{"name":"G#5","midi":80,"time":141.50937499999893,"velocity":0.5826771653543307,"duration":2.8301874999999654},{"name":"D#4","midi":63,"time":141.50937499999893,"velocity":0.5826771653543307,"duration":0.5660374999999931},{"name":"B3","midi":59,"time":141.50937499999893,"velocity":0.5826771653543307,"duration":0.5660374999999931},{"name":"G#4","midi":68,"time":142.07541249999892,"velocity":0.5826771653543307,"duration":0.5660374999999931},{"name":"D#4","midi":63,"time":142.07541249999892,"velocity":0.5826771653543307,"duration":0.5660374999999931},{"name":"C#4","midi":61,"time":142.07541249999892,"velocity":0.5826771653543307,"duration":0.28301874999999654},{"name":"B3","midi":59,"time":142.35843124999892,"velocity":0.5826771653543307,"duration":0.28301874999999654},{"name":"A#4","midi":70,"time":142.6414499999989,"velocity":0.5826771653543307,"duration":0.5660374999999931},{"name":"C#4","midi":61,"time":142.6414499999989,"velocity":0.5826771653543307,"duration":0.5660374999999931},{"name":"A#3","midi":58,"time":142.6414499999989,"velocity":0.5826771653543307,"duration":1.1320749999999862},{"name":"B4","midi":71,"time":143.2074874999989,"velocity":0.5826771653543307,"duration":0.5660374999999931},{"name":"D#4","midi":63,"time":143.2074874999989,"velocity":0.5826771653543307,"duration":0.5660374999999931},{"name":"C#5","midi":73,"time":143.7735249999989,"velocity":0.5826771653543307,"duration":1.6981124999999793},{"name":"A3","midi":57,"time":143.7735249999989,"velocity":0.5826771653543307,"duration":1.1320749999999862},{"name":"E4","midi":64,"time":143.7735249999989,"velocity":0.5826771653543307,"duration":1.6981124999999793},{"name":"G5","midi":79,"time":144.3395624999989,"velocity":0.5826771653543307,"duration":0.5660374999999931},{"name":"G#5","midi":80,"time":144.90559999999888,"velocity":0.5826771653543307,"duration":1.6981124999999793},{"name":"G#3","midi":56,"time":144.90559999999888,"velocity":0.5826771653543307,"duration":1.4150937499999827},{"name":"B4","midi":71,"time":145.47163749999888,"velocity":0.5826771653543307,"duration":0.28301874999999654},{"name":"D#4","midi":63,"time":145.47163749999888,"velocity":0.5826771653543307,"duration":0.5660374999999931},{"name":"A#4","midi":70,"time":145.75465624999887,"velocity":0.5826771653543307,"duration":0.28301874999999654},{"name":"B4","midi":71,"time":146.03767499999887,"velocity":0.5826771653543307,"duration":1.6981124999999793},{"name":"G#4","midi":68,"time":146.03767499999887,"velocity":0.5826771653543307,"duration":1.6981124999999793},{"name":"F#3","midi":54,"time":146.32069374999887,"velocity":0.5826771653543307,"duration":0.28301874999999654},{"name":"F#5","midi":78,"time":146.60371249999886,"velocity":0.5826771653543307,"duration":0.5660374999999931},{"name":"F3","midi":53,"time":146.60371249999886,"velocity":0.5826771653543307,"duration":0.28301874999999654},{"name":"D#3","midi":51,"time":146.88673124999886,"velocity":0.5826771653543307,"duration":0.28301874999999654},{"name":"F5","midi":77,"time":147.16974999999886,"velocity":0.5826771653543307,"duration":2.8301874999999654},{"name":"D3","midi":50,"time":147.16974999999886,"velocity":0.5826771653543307,"duration":1.6981124999999793},{"name":"A#4","midi":70,"time":147.73578749999885,"velocity":0.5826771653543307,"duration":0.28301874999999654},{"name":"F#4","midi":66,"time":147.73578749999885,"velocity":0.5826771653543307,"duration":0.28301874999999654},{"name":"G#4","midi":68,"time":148.01880624999885,"velocity":0.5826771653543307,"duration":0.28301874999999654},{"name":"F4","midi":65,"time":148.01880624999885,"velocity":0.5826771653543307,"duration":0.28301874999999654},{"name":"A#4","midi":70,"time":148.30182499999884,"velocity":0.5826771653543307,"duration":1.9811312499999758},{"name":"G#4","midi":68,"time":148.86786249999884,"velocity":0.5826771653543307,"duration":0.5660374999999931},{"name":"C3","midi":48,"time":148.86786249999884,"velocity":0.5826771653543307,"duration":0.28301874999999654},{"name":"A#2","midi":46,"time":149.15088124999883,"velocity":0.5826771653543307,"duration":0.28301874999999654},{"name":"F#4","midi":66,"time":149.43389999999883,"velocity":0.5826771653543307,"duration":0.8490562499999896},{"name":"D#3","midi":51,"time":149.43389999999883,"velocity":0.5826771653543307,"duration":0.5660374999999931},{"name":"D#5","midi":75,"time":149.99993749999882,"velocity":0.5826771653543307,"duration":0.28301874999999654},{"name":"D#2","midi":39,"time":149.99993749999882,"velocity":0.5826771653543307,"duration":0.5660374999999931},{"name":"C#5","midi":73,"time":150.28295624999882,"velocity":0.5826771653543307,"duration":0.28301874999999654},{"name":"G#4","midi":68,"time":150.28295624999882,"velocity":0.5826771653543307,"duration":0.28301874999999654},{"name":"F4","midi":65,"time":150.28295624999882,"velocity":0.5826771653543307,"duration":0.28301874999999654},{"name":"B4","midi":71,"time":150.56597499999882,"velocity":0.5826771653543307,"duration":0.5660374999999931},{"name":"F#4","midi":66,"time":150.56597499999882,"velocity":0.5826771653543307,"duration":0.5660374999999931},{"name":"D#4","midi":63,"time":150.56597499999882,"velocity":0.5826771653543307,"duration":0.5660374999999931},{"name":"D#3","midi":51,"time":150.56597499999882,"velocity":0.5826771653543307,"duration":0.5660374999999931},{"name":"A#4","midi":70,"time":151.1320124999988,"velocity":0.5826771653543307,"duration":0.5660374999999931},{"name":"F4","midi":65,"time":151.1320124999988,"velocity":0.5826771653543307,"duration":0.5660374999999931},{"name":"C#4","midi":61,"time":151.1320124999988,"velocity":0.5826771653543307,"duration":0.5660374999999931},{"name":"F3","midi":53,"time":151.1320124999988,"velocity":0.5826771653543307,"duration":0.5660374999999931},{"name":"A4","midi":69,"time":151.6980499999988,"velocity":0.5826771653543307,"duration":1.1320749999999862},{"name":"D#4","midi":63,"time":151.6980499999988,"velocity":0.5826771653543307,"duration":0.28301874999999654},{"name":"C4","midi":60,"time":151.6980499999988,"velocity":0.5826771653543307,"duration":1.1320749999999862},{"name":"F#3","midi":54,"time":151.6980499999988,"velocity":0.5826771653543307,"duration":0.5660374999999931},{"name":"F4","midi":65,"time":151.9810687499988,"velocity":0.5826771653543307,"duration":0.28301874999999654},{"name":"F#4","midi":66,"time":152.2640874999988,"velocity":0.5826771653543307,"duration":0.5660374999999931},{"name":"F3","midi":53,"time":152.2640874999988,"velocity":0.5826771653543307,"duration":0.28301874999999654},{"name":"D#3","midi":51,"time":152.5471062499988,"velocity":0.5826771653543307,"duration":0.28301874999999654},{"name":"A#4","midi":70,"time":152.8301249999988,"velocity":0.5826771653543307,"duration":2.2641499999999724},{"name":"C#4","midi":61,"time":152.8301249999988,"velocity":0.5826771653543307,"duration":1.1320749999999862},{"name":"F4","midi":65,"time":152.8301249999988,"velocity":0.5826771653543307,"duration":0.5660374999999931},{"name":"C#3","midi":49,"time":152.8301249999988,"velocity":0.5826771653543307,"duration":0.28301874999999654},{"name":"C3","midi":48,"time":153.11314374999878,"velocity":0.5826771653543307,"duration":0.28301874999999654},{"name":"F#4","midi":66,"time":153.39616249999878,"velocity":0.5826771653543307,"duration":0.28301874999999654},{"name":"A#2","midi":46,"time":153.39616249999878,"velocity":0.5826771653543307,"duration":0.28301874999999654},{"name":"E4","midi":64,"time":153.67918124999878,"velocity":0.5826771653543307,"duration":0.28301874999999654},{"name":"C#3","midi":49,"time":153.67918124999878,"velocity":0.5826771653543307,"duration":0.28301874999999654},{"name":"F4","midi":65,"time":153.96219999999877,"velocity":0.5826771653543307,"duration":1.6981124999999793},{"name":"C4","midi":60,"time":153.96219999999877,"velocity":0.5826771653543307,"duration":0.5660374999999931},{"name":"F2","midi":41,"time":153.96219999999877,"velocity":0.5826771653543307,"duration":2.2641499999999724},{"name":"C#4","midi":61,"time":154.52823749999877,"velocity":0.5826771653543307,"duration":0.28301874999999654},{"name":"A#3","midi":58,"time":154.81125624999876,"velocity":0.5826771653543307,"duration":0.28301874999999654},{"name":"A4","midi":69,"time":155.09427499999876,"velocity":0.5826771653543307,"duration":1.1320749999999862},{"name":"C4","midi":60,"time":155.09427499999876,"velocity":0.5826771653543307,"duration":1.1320749999999862},{"name":"D#4","midi":63,"time":155.66031249999875,"velocity":0.5826771653543307,"duration":0.5660374999999931},{"name":"A#4","midi":70,"time":156.22634999999875,"velocity":0.5826771653543307,"duration":1.6981124999999793},{"name":"C#4","midi":61,"time":156.22634999999875,"velocity":0.5826771653543307,"duration":0.5660374999999931},{"name":"A#3","midi":58,"time":156.22634999999875,"velocity":0.5826771653543307,"duration":0.5660374999999931},{"name":"A#2","midi":46,"time":156.22634999999875,"velocity":0.5826771653543307,"duration":0.5660374999999931},{"name":"D#4","midi":63,"time":156.79238749999874,"velocity":0.5826771653543307,"duration":0.5660374999999931},{"name":"C4","midi":60,"time":156.79238749999874,"velocity":0.5826771653543307,"duration":0.5660374999999931},{"name":"C#4","midi":61,"time":157.35842499999873,"velocity":0.5826771653543307,"duration":1.6981124999999793},{"name":"F4","midi":65,"time":157.35842499999873,"velocity":0.5826771653543307,"duration":0.5660374999999931},{"name":"G#4","midi":68,"time":157.92446249999873,"velocity":0.5826771653543307,"duration":0.5660374999999931},{"name":"E4","midi":64,"time":157.92446249999873,"velocity":0.5826771653543307,"duration":0.5660374999999931},{"name":"G4","midi":67,"time":158.49049999999872,"velocity":0.5826771653543307,"duration":0.5660374999999931},{"name":"D#4","midi":63,"time":158.49049999999872,"velocity":0.5826771653543307,"duration":1.6981124999999793},{"name":"C#5","midi":73,"time":159.0565374999987,"velocity":0.5826771653543307,"duration":0.5660374999999931},{"name":"G3","midi":55,"time":159.0565374999987,"velocity":0.5826771653543307,"duration":0.5660374999999931},{"name":"B4","midi":71,"time":159.6225749999987,"velocity":0.5826771653543307,"duration":0.5660374999999931},{"name":"G#3","midi":56,"time":159.6225749999987,"velocity":0.5826771653543307,"duration":0.5660374999999931},{"name":"A#4","midi":70,"time":160.1886124999987,"velocity":0.5826771653543307,"duration":1.1320749999999862},{"name":"C#4","midi":61,"time":160.1886124999987,"velocity":0.5826771653543307,"duration":0.5660374999999931},{"name":"A#3","midi":58,"time":160.1886124999987,"velocity":0.5826771653543307,"duration":0.5660374999999931},{"name":"B3","midi":59,"time":160.7546499999987,"velocity":0.5826771653543307,"duration":1.1320749999999862},{"name":"D#3","midi":51,"time":160.7546499999987,"velocity":0.5826771653543307,"duration":0.5660374999999931},{"name":"G#4","midi":68,"time":161.32068749999868,"velocity":0.5826771653543307,"duration":0.5660374999999931},{"name":"G#3","midi":56,"time":161.32068749999868,"velocity":0.5826771653543307,"duration":1.1320749999999862},{"name":"C#5","midi":73,"time":161.88672499999868,"velocity":0.5826771653543307,"duration":1.6981124999999793},{"name":"A#3","midi":58,"time":161.88672499999868,"velocity":0.5826771653543307,"duration":0.5660374999999931},{"name":"G3","midi":55,"time":162.45276249999867,"velocity":0.5826771653543307,"duration":0.5660374999999931},{"name":"A#4","midi":70,"time":162.45276249999867,"velocity":0.5826771653543307,"duration":0.5660374999999931},{"name":"D#4","midi":63,"time":163.01879999999866,"velocity":0.5826771653543307,"duration":0.5660374999999931},{"name":"B3","midi":59,"time":163.01879999999866,"velocity":0.5826771653543307,"duration":1.6981124999999793},{"name":"B4","midi":71,"time":163.58483749999866,"velocity":0.5826771653543307,"duration":0.28301874999999654},{"name":"G#4","midi":68,"time":163.58483749999866,"velocity":0.5826771653543307,"duration":0.28301874999999654},{"name":"A#4","midi":70,"time":163.86785624999865,"velocity":0.5826771653543307,"duration":0.28301874999999654},{"name":"G4","midi":67,"time":163.86785624999865,"velocity":0.5826771653543307,"duration":0.28301874999999654},{"name":"B4","midi":71,"time":164.15087499999865,"velocity":0.5826771653543307,"duration":0.5660374999999931},{"name":"G#4","midi":68,"time":164.15087499999865,"velocity":0.5826771653543307,"duration":1.6981124999999793},{"name":"E5","midi":76,"time":164.71691249999864,"velocity":0.5826771653543307,"duration":0.5660374999999931},{"name":"A#3","midi":58,"time":164.71691249999864,"velocity":0.5826771653543307,"duration":0.28301874999999654},{"name":"G#3","midi":56,"time":164.99993124999864,"velocity":0.5826771653543307,"duration":0.28301874999999654},{"name":"D5","midi":74,"time":165.28294999999864,"velocity":0.5826771653543307,"duration":0.5660374999999931},{"name":"A#3","midi":58,"time":165.28294999999864,"velocity":0.5826771653543307,"duration":0.5660374999999931},{"name":"A#4","midi":70,"time":165.84898749999863,"velocity":0.5826771653543307,"duration":0.5660374999999931},{"name":"F#4","midi":66,"time":165.84898749999863,"velocity":0.5826771653543307,"duration":0.5660374999999931},{"name":"D#4","midi":63,"time":165.84898749999863,"velocity":0.5826771653543307,"duration":1.1320749999999862},{"name":"G#5","midi":80,"time":166.41502499999862,"velocity":0.5826771653543307,"duration":1.6981124999999793},{"name":"F4","midi":65,"time":166.41502499999862,"velocity":0.5826771653543307,"duration":0.5660374999999931},{"name":"D4","midi":62,"time":166.98106249999861,"velocity":0.5826771653543307,"duration":0.5660374999999931},{"name":"F5","midi":77,"time":166.98106249999861,"velocity":0.5826771653543307,"duration":0.5660374999999931},{"name":"A#4","midi":70,"time":167.5470999999986,"velocity":0.5826771653543307,"duration":0.5660374999999931},{"name":"F#4","midi":66,"time":167.5470999999986,"velocity":0.5826771653543307,"duration":1.6981124999999793},{"name":"F#5","midi":78,"time":168.1131374999986,"velocity":0.5826771653543307,"duration":0.28301874999999654},{"name":"D#5","midi":75,"time":168.1131374999986,"velocity":0.5826771653543307,"duration":0.28301874999999654},{"name":"F5","midi":77,"time":168.3961562499986,"velocity":0.5826771653543307,"duration":0.28301874999999654},{"name":"D5","midi":74,"time":168.3961562499986,"velocity":0.5826771653543307,"duration":0.28301874999999654},{"name":"F#5","midi":78,"time":168.6791749999986,"velocity":0.5826771653543307,"duration":0.5660374999999931},{"name":"D#5","midi":75,"time":168.6791749999986,"velocity":0.5826771653543307,"duration":1.6981124999999793},{"name":"B5","midi":83,"time":169.2452124999986,"velocity":0.5826771653543307,"duration":0.5660374999999931},{"name":"F4","midi":65,"time":169.2452124999986,"velocity":0.5826771653543307,"duration":0.28301874999999654},{"name":"D#4","midi":63,"time":169.52823124999858,"velocity":0.5826771653543307,"duration":0.28301874999999654},{"name":"A5","midi":81,"time":169.81124999999858,"velocity":0.5826771653543307,"duration":0.5660374999999931},{"name":"F4","midi":65,"time":169.81124999999858,"velocity":0.5826771653543307,"duration":0.5660374999999931},{"name":"F5","midi":77,"time":170.37728749999857,"velocity":0.5826771653543307,"duration":0.5660374999999931},{"name":"C#5","midi":73,"time":170.37728749999857,"velocity":0.5826771653543307,"duration":0.28301874999999654},{"name":"A#4","midi":70,"time":170.37728749999857,"velocity":0.5826771653543307,"duration":1.1320749999999862},{"name":"C5","midi":72,"time":170.66030624999857,"velocity":0.5826771653543307,"duration":0.28301874999999654},{"name":"C#5","midi":73,"time":170.94332499999857,"velocity":0.5826771653543307,"duration":1.4150937499999827},{"name":"A#5","midi":82,"time":170.94332499999857,"velocity":0.5826771653543307,"duration":0.28301874999999654},{"name":"G#5","midi":80,"time":171.22634374999856,"velocity":0.5826771653543307,"duration":0.28301874999999654},{"name":"G#4","midi":68,"time":171.50936249999856,"velocity":0.5826771653543307,"duration":0.5660374999999931},{"name":"G5","midi":79,"time":171.50936249999856,"velocity":0.5826771653543307,"duration":0.28301874999999654},{"name":"F5","midi":77,"time":171.79238124999856,"velocity":0.5826771653543307,"duration":0.28301874999999654},{"name":"D#5","midi":75,"time":172.07539999999855,"velocity":0.5826771653543307,"duration":1.4150937499999827},{"name":"G4","midi":67,"time":172.07539999999855,"velocity":0.5826771653543307,"duration":0.5660374999999931},{"name":"C#5","midi":73,"time":172.35841874999855,"velocity":0.5826771653543307,"duration":0.28301874999999654},{"name":"B4","midi":71,"time":172.64143749999855,"velocity":0.5826771653543307,"duration":0.28301874999999654},{"name":"D#4","midi":63,"time":172.64143749999855,"velocity":0.5826771653543307,"duration":0.5660374999999931},{"name":"A#4","midi":70,"time":172.92445624999854,"velocity":0.5826771653543307,"duration":0.28301874999999654},{"name":"B4","midi":71,"time":173.20747499999854,"velocity":0.5826771653543307,"duration":1.1320749999999862},{"name":"G#4","midi":68,"time":173.20747499999854,"velocity":0.5826771653543307,"duration":1.6981124999999793},{"name":"F#5","midi":78,"time":173.49049374999854,"velocity":0.5826771653543307,"duration":0.28301874999999654},{"name":"F5","midi":77,"time":173.77351249999853,"velocity":0.5826771653543307,"duration":0.28301874999999654},{"name":"D#5","midi":75,"time":174.05653124999853,"velocity":0.5826771653543307,"duration":0.28301874999999654},{"name":"D5","midi":74,"time":174.33954999999852,"velocity":0.5826771653543307,"duration":0.28301874999999654},{"name":"A#4","midi":70,"time":174.33954999999852,"velocity":0.5826771653543307,"duration":1.1320749999999862},{"name":"F5","midi":77,"time":174.62256874999852,"velocity":0.5826771653543307,"duration":0.28301874999999654},{"name":"D#5","midi":75,"time":174.90558749999852,"velocity":0.5826771653543307,"duration":0.28301874999999654},{"name":"F#4","midi":66,"time":174.90558749999852,"velocity":0.5826771653543307,"duration":0.8490562499999896},{"name":"C#5","midi":73,"time":175.18860624999851,"velocity":0.5826771653543307,"duration":0.28301874999999654},{"name":"G#4","midi":68,"time":175.4716249999985,"velocity":0.5826771653543307,"duration":1.4150937499999827},{"name":"C5","midi":72,"time":175.4716249999985,"velocity":0.5826771653543307,"duration":0.28301874999999654},{"name":"D#5","midi":75,"time":175.7546437499985,"velocity":0.5826771653543307,"duration":0.28301874999999654},{"name":"F#4","midi":66,"time":175.7546437499985,"velocity":0.5826771653543307,"duration":0.28301874999999654},{"name":"C#5","midi":73,"time":176.0376624999985,"velocity":0.5826771653543307,"duration":0.28301874999999654},{"name":"F4","midi":65,"time":176.0376624999985,"velocity":0.5826771653543307,"duration":0.28301874999999654},{"name":"D#4","midi":63,"time":176.3206812499985,"velocity":0.5826771653543307,"duration":0.28301874999999654},{"name":"B4","midi":71,"time":176.3206812499985,"velocity":0.5826771653543307,"duration":0.28301874999999654},{"name":"A#4","midi":70,"time":176.6036999999985,"velocity":0.5826771653543307,"duration":1.6981124999999793},{"name":"D4","midi":62,"time":176.6036999999985,"velocity":0.5826771653543307,"duration":0.28301874999999654},{"name":"G#4","midi":68,"time":176.8867187499985,"velocity":0.5826771653543307,"duration":0.28301874999999654},{"name":"F4","midi":65,"time":176.8867187499985,"velocity":0.5826771653543307,"duration":0.28301874999999654},{"name":"F#4","midi":66,"time":177.1697374999985,"velocity":0.5826771653543307,"duration":0.28301874999999654},{"name":"D#4","midi":63,"time":177.1697374999985,"velocity":0.5826771653543307,"duration":0.28301874999999654},{"name":"F4","midi":65,"time":177.4527562499985,"velocity":0.5826771653543307,"duration":0.28301874999999654},{"name":"C#4","midi":61,"time":177.4527562499985,"velocity":0.5826771653543307,"duration":0.28301874999999654},{"name":"D#4","midi":63,"time":177.73577499999848,"velocity":0.5826771653543307,"duration":0.28301874999999654},{"name":"C4","midi":60,"time":177.73577499999848,"velocity":0.5826771653543307,"duration":0.5660374999999931},{"name":"F#4","midi":66,"time":178.01879374999848,"velocity":0.5826771653543307,"duration":0.28301874999999654},{"name":"G#4","midi":68,"time":178.30181249999848,"velocity":0.5826771653543307,"duration":0.8490562499999896},{"name":"F4","midi":65,"time":178.30181249999848,"velocity":0.5826771653543307,"duration":0.28301874999999654},{"name":"B3","midi":59,"time":178.30181249999848,"velocity":0.5826771653543307,"duration":0.5660374999999931},{"name":"D#4","midi":63,"time":178.58483124999847,"velocity":0.5826771653543307,"duration":0.28301874999999654},{"name":"D4","midi":62,"time":178.86784999999847,"velocity":0.5826771653543307,"duration":0.5660374999999931},{"name":"A#3","midi":58,"time":178.86784999999847,"velocity":0.5826771653543307,"duration":1.1320749999999862},{"name":"F4","midi":65,"time":179.15086874999847,"velocity":0.5826771653543307,"duration":0.28301874999999654},{"name":"F#4","midi":66,"time":179.43388749999846,"velocity":0.5826771653543307,"duration":0.28301874999999654},{"name":"D#4","midi":63,"time":179.43388749999846,"velocity":0.5826771653543307,"duration":0.5660374999999931},{"name":"D#3","midi":51,"time":179.43388749999846,"velocity":0.5826771653543307,"duration":0.5660374999999931},{"name":"A#4","midi":70,"time":179.71690624999846,"velocity":0.5826771653543307,"duration":0.28301874999999654},{"name":"D#5","midi":75,"time":179.99992499999846,"velocity":0.5826771653543307,"duration":0.28301874999999654},{"name":"D#3","midi":51,"time":179.99992499999846,"velocity":0.5826771653543307,"duration":0.5660374999999931},{"name":"A#4","midi":70,"time":180.28294374999845,"velocity":0.5826771653543307,"duration":0.28301874999999654},{"name":"C4","midi":60,"time":180.56596249999845,"velocity":0.5826771653543307,"duration":0.5660374999999931},{"name":"A4","midi":69,"time":180.56596249999845,"velocity":0.5826771653543307,"duration":0.5660374999999931},{"name":"D#3","midi":51,"time":180.56596249999845,"velocity":0.5826771653543307,"duration":0.5660374999999931},{"name":"F#5","midi":78,"time":180.56596249999845,"velocity":0.5826771653543307,"duration":0.5660374999999931},{"name":"A#4","midi":70,"time":181.13199999999844,"velocity":0.5826771653543307,"duration":0.5660374999999931},{"name":"F4","midi":65,"time":181.13199999999844,"velocity":0.5826771653543307,"duration":0.5660374999999931},{"name":"D3","midi":50,"time":181.13199999999844,"velocity":0.5826771653543307,"duration":0.5660374999999931},{"name":"F5","midi":77,"time":181.13199999999844,"velocity":0.5826771653543307,"duration":0.5660374999999931},{"name":"D#3","midi":51,"time":181.69803749999843,"velocity":0.5826771653543307,"duration":0.5660374999999931},{"name":"F3","midi":53,"time":182.26407499999843,"velocity":0.5826771653543307,"duration":1.6981124999999793},{"name":"B5","midi":83,"time":182.83011249999842,"velocity":0.5826771653543307,"duration":0.5660374999999931},{"name":"D5","midi":74,"time":182.83011249999842,"velocity":0.5826771653543307,"duration":0.5660374999999931},{"name":"F4","midi":65,"time":182.83011249999842,"velocity":0.5826771653543307,"duration":0.5660374999999931},{"name":"A#5","midi":82,"time":183.3961499999984,"velocity":0.5826771653543307,"duration":0.5660374999999931},{"name":"F#5","midi":78,"time":183.3961499999984,"velocity":0.5826771653543307,"duration":0.5660374999999931},{"name":"A#3","midi":58,"time":183.3961499999984,"velocity":0.5826771653543307,"duration":0.5660374999999931},{"name":"D#3","midi":51,"time":183.9621874999984,"velocity":0.5826771653543307,"duration":0.5660374999999931},{"name":"G#3","midi":56,"time":184.5282249999984,"velocity":0.5826771653543307,"duration":1.6981124999999793},{"name":"D#4","midi":63,"time":185.0942624999984,"velocity":0.5826771653543307,"duration":0.5660374999999931},{"name":"B4","midi":71,"time":185.0942624999984,"velocity":0.5826771653543307,"duration":0.5660374999999931},{"name":"G#5","midi":80,"time":185.0942624999984,"velocity":0.5826771653543307,"duration":0.5660374999999931},{"name":"D5","midi":74,"time":185.6602999999984,"velocity":0.5826771653543307,"duration":0.5660374999999931},{"name":"A#4","midi":70,"time":185.6602999999984,"velocity":0.5826771653543307,"duration":1.1320749999999862},{"name":"F4","midi":65,"time":185.6602999999984,"velocity":0.5826771653543307,"duration":0.5660374999999931},{"name":"F#3","midi":54,"time":186.22633749999838,"velocity":0.5826771653543307,"duration":0.28301874999999654},{"name":"F3","midi":53,"time":186.50935624999838,"velocity":0.5826771653543307,"duration":0.28301874999999654},{"name":"A#3","midi":58,"time":186.79237499999837,"velocity":0.5826771653543307,"duration":0.5660374999999931},{"name":"F5","midi":77,"time":187.35841249999837,"velocity":0.5826771653543307,"duration":0.5660374999999931},{"name":"F4","midi":65,"time":187.35841249999837,"velocity":0.5826771653543307,"duration":0.5660374999999931},{"name":"D4","midi":62,"time":187.35841249999837,"velocity":0.5826771653543307,"duration":0.5660374999999931},{"name":"G#3","midi":56,"time":187.35841249999837,"velocity":0.5826771653543307,"duration":0.5660374999999931},{"name":"A#4","midi":70,"time":187.92444999999836,"velocity":0.5826771653543307,"duration":0.5660374999999931},{"name":"F#4","midi":66,"time":187.92444999999836,"velocity":0.5826771653543307,"duration":0.5660374999999931},{"name":"D#4","midi":63,"time":187.92444999999836,"velocity":0.5826771653543307,"duration":0.5660374999999931},{"name":"F#3","midi":54,"time":187.92444999999836,"velocity":0.5826771653543307,"duration":0.5660374999999931},{"name":"D#5","midi":75,"time":188.49048749999835,"velocity":0.5826771653543307,"duration":0.28301874999999654},{"name":"F#4","midi":66,"time":188.49048749999835,"velocity":0.5826771653543307,"duration":0.28301874999999654},{"name":"A#3","midi":58,"time":188.49048749999835,"velocity":0.5826771653543307,"duration":0.28301874999999654},{"name":"D#3","midi":51,"time":188.49048749999835,"velocity":0.5826771653543307,"duration":0.28301874999999654},{"name":"D5","midi":74,"time":188.77350624999835,"velocity":0.5826771653543307,"duration":0.28301874999999654},{"name":"F4","midi":65,"time":188.77350624999835,"velocity":0.5826771653543307,"duration":0.28301874999999654},{"name":"G#3","midi":56,"time":188.77350624999835,"velocity":0.5826771653543307,"duration":0.28301874999999654},{"name":"F3","midi":53,"time":188.77350624999835,"velocity":0.5826771653543307,"duration":0.28301874999999654},{"name":"D#5","midi":75,"time":189.05652499999835,"velocity":0.5826771653543307,"duration":0.5660374999999931},{"name":"D#4","midi":63,"time":189.05652499999835,"velocity":0.5826771653543307,"duration":0.5660374999999931},{"name":"A#3","midi":58,"time":189.05652499999835,"velocity":0.5826771653543307,"duration":0.5660374999999931},{"name":"F#3","midi":54,"time":189.05652499999835,"velocity":0.5826771653543307,"duration":0.5660374999999931},{"name":"B3","midi":59,"time":189.62256249999834,"velocity":0.5826771653543307,"duration":0.5660374999999931},{"name":"F4","midi":65,"time":189.62256249999834,"velocity":0.5826771653543307,"duration":1.1320749999999862},{"name":"G#4","midi":68,"time":189.62256249999834,"velocity":0.5826771653543307,"duration":0.5660374999999931},{"name":"G#3","midi":56,"time":189.62256249999834,"velocity":0.5826771653543307,"duration":0.5660374999999931},{"name":"F#4","midi":66,"time":190.18859999999833,"velocity":0.5826771653543307,"duration":1.1320749999999862},{"name":"A#3","midi":58,"time":190.18859999999833,"velocity":0.5826771653543307,"duration":1.9811312499999758},{"name":"D#4","midi":63,"time":190.75463749999832,"velocity":0.5826771653543307,"duration":1.1320749999999862},{"name":"F4","midi":65,"time":191.32067499999832,"velocity":0.5826771653543307,"duration":1.1320749999999862},{"name":"A#2","midi":46,"time":191.32067499999832,"velocity":0.5826771653543307,"duration":1.1320749999999862},{"name":"D4","midi":62,"time":191.8867124999983,"velocity":0.5826771653543307,"duration":0.5660374999999931},{"name":"G#3","midi":56,"time":192.1697312499983,"velocity":0.5826771653543307,"duration":0.28301874999999654},{"name":"D#3","midi":51,"time":192.4527499999983,"velocity":0.5826771653543307,"duration":2.8301874999999654},{"name":"D#4","midi":63,"time":192.4527499999983,"velocity":0.5826771653543307,"duration":0.5660374999999931},{"name":"F#3","midi":54,"time":192.4527499999983,"velocity":0.5826771653543307,"duration":0.5660374999999931},{"name":"D#5","midi":75,"time":193.0187874999983,"velocity":0.5826771653543307,"duration":0.5660374999999931},{"name":"F#4","midi":66,"time":193.0187874999983,"velocity":0.5826771653543307,"duration":0.28301874999999654},{"name":"A#3","midi":58,"time":193.0187874999983,"velocity":0.5826771653543307,"duration":0.5660374999999931},{"name":"F4","midi":65,"time":193.3018062499983,"velocity":0.5826771653543307,"duration":0.28301874999999654},{"name":"D#5","midi":75,"time":193.5848249999983,"velocity":0.5826771653543307,"duration":0.5660374999999931},{"name":"F#4","midi":66,"time":193.5848249999983,"velocity":0.5826771653543307,"duration":0.28301874999999654},{"name":"A#3","midi":58,"time":193.5848249999983,"velocity":0.5826771653543307,"duration":0.5660374999999931},{"name":"A#4","midi":70,"time":193.8678437499983,"velocity":0.5826771653543307,"duration":0.28301874999999654},{"name":"A#3","midi":58,"time":194.15086249999828,"velocity":0.5826771653543307,"duration":0.5660374999999931},{"name":"D#5","midi":75,"time":194.15086249999828,"velocity":0.5826771653543307,"duration":0.5660374999999931},{"name":"G#4","midi":68,"time":194.15086249999828,"velocity":0.5826771653543307,"duration":0.28301874999999654},{"name":"F#4","midi":66,"time":194.43388124999828,"velocity":0.5826771653543307,"duration":0.28301874999999654},{"name":"D5","midi":74,"time":194.71689999999828,"velocity":0.5826771653543307,"duration":0.5660374999999931},{"name":"F4","midi":65,"time":194.71689999999828,"velocity":0.5826771653543307,"duration":0.28301874999999654},{"name":"B3","midi":59,"time":194.71689999999828,"velocity":0.5826771653543307,"duration":0.5660374999999931},{"name":"G#4","midi":68,"time":194.99991874999827,"velocity":0.5826771653543307,"duration":0.28301874999999654},{"name":"D#5","midi":75,"time":195.28293749999827,"velocity":0.5826771653543307,"duration":0.5660374999999931},{"name":"F#4","midi":66,"time":195.28293749999827,"velocity":0.5826771653543307,"duration":0.28301874999999654},{"name":"A#3","midi":58,"time":195.28293749999827,"velocity":0.5826771653543307,"duration":0.5660374999999931},{"name":"D#3","midi":51,"time":195.28293749999827,"velocity":0.5826771653543307,"duration":0.28301874999999654},{"name":"A#4","midi":70,"time":195.56595624999827,"velocity":0.5826771653543307,"duration":0.28301874999999654},{"name":"D3","midi":50,"time":195.56595624999827,"velocity":0.5826771653543307,"duration":0.28301874999999654},{"name":"F5","midi":77,"time":195.84897499999826,"velocity":0.5826771653543307,"duration":1.6981124999999793},{"name":"B4","midi":71,"time":195.84897499999826,"velocity":0.5826771653543307,"duration":0.28301874999999654},{"name":"G#3","midi":56,"time":195.84897499999826,"velocity":0.5826771653543307,"duration":1.6981124999999793},{"name":"D#3","midi":51,"time":195.84897499999826,"velocity":0.5826771653543307,"duration":0.28301874999999654},{"name":"A#4","midi":70,"time":196.13199374999826,"velocity":0.5826771653543307,"duration":0.28301874999999654},{"name":"F#3","midi":54,"time":196.13199374999826,"velocity":0.5826771653543307,"duration":0.28301874999999654},{"name":"B4","midi":71,"time":196.41501249999826,"velocity":0.5826771653543307,"duration":1.1320749999999862},{"name":"F3","midi":53,"time":196.41501249999826,"velocity":0.5826771653543307,"duration":0.28301874999999654},{"name":"D#3","midi":51,"time":196.69803124999825,"velocity":0.5826771653543307,"duration":0.28301874999999654},{"name":"D3","midi":50,"time":196.98104999999825,"velocity":0.5826771653543307,"duration":0.5660374999999931},{"name":"D#5","midi":75,"time":197.54708749999824,"velocity":0.5826771653543307,"duration":0.5660374999999931},{"name":"A#4","midi":70,"time":197.54708749999824,"velocity":0.5826771653543307,"duration":0.5660374999999931},{"name":"A#3","midi":58,"time":197.54708749999824,"velocity":0.5826771653543307,"duration":0.5660374999999931},{"name":"F#3","midi":54,"time":197.54708749999824,"velocity":0.5826771653543307,"duration":0.5660374999999931},{"name":"F3","midi":53,"time":198.11312499999823,"velocity":0.5826771653543307,"duration":1.6981124999999793},{"name":"G#5","midi":80,"time":198.11312499999823,"velocity":0.5826771653543307,"duration":1.6981124999999793},{"name":"D#5","midi":75,"time":198.39614374999823,"velocity":0.5826771653543307,"duration":0.28301874999999654},{"name":"B2","midi":47,"time":198.39614374999823,"velocity":0.5826771653543307,"duration":0.28301874999999654},{"name":"D5","midi":74,"time":198.67916249999823,"velocity":0.5826771653543307,"duration":0.28301874999999654},{"name":"A#2","midi":46,"time":198.67916249999823,"velocity":0.5826771653543307,"duration":0.28301874999999654},{"name":"G#2","midi":44,"time":198.96218124999822,"velocity":0.5826771653543307,"duration":0.28301874999999654},{"name":"C5","midi":72,"time":198.96218124999822,"velocity":0.5826771653543307,"duration":0.28301874999999654},{"name":"D5","midi":74,"time":199.24519999999822,"velocity":0.5826771653543307,"duration":0.5660374999999931},{"name":"A#2","midi":46,"time":199.24519999999822,"velocity":0.5826771653543307,"duration":0.8490562499999896},{"name":"F#5","midi":78,"time":199.8112374999982,"velocity":0.5826771653543307,"duration":0.28301874999999654},{"name":"D#5","midi":75,"time":199.8112374999982,"velocity":0.5826771653543307,"duration":0.28301874999999654},{"name":"F#3","midi":54,"time":199.8112374999982,"velocity":0.5826771653543307,"duration":0.28301874999999654},{"name":"F5","midi":77,"time":200.0942562499982,"velocity":0.5826771653543307,"duration":0.28301874999999654},{"name":"G#3","midi":56,"time":200.0942562499982,"velocity":0.5826771653543307,"duration":0.28301874999999654},{"name":"G#2","midi":44,"time":200.0942562499982,"velocity":0.5826771653543307,"duration":0.28301874999999654},{"name":"A#5","midi":82,"time":200.3772749999982,"velocity":0.5826771653543307,"duration":0.5660374999999931},{"name":"F#5","midi":78,"time":200.3772749999982,"velocity":0.5826771653543307,"duration":0.5660374999999931},{"name":"D#3","midi":51,"time":200.3772749999982,"velocity":0.5826771653543307,"duration":0.5660374999999931},{"name":"F#2","midi":42,"time":200.3772749999982,"velocity":0.5826771653543307,"duration":0.5660374999999931},{"name":"G#5","midi":80,"time":200.9433124999982,"velocity":0.5826771653543307,"duration":0.5660374999999931},{"name":"D5","midi":74,"time":200.9433124999982,"velocity":0.5826771653543307,"duration":0.5660374999999931},{"name":"F3","midi":53,"time":200.9433124999982,"velocity":0.5826771653543307,"duration":0.5660374999999931},{"name":"A#2","midi":46,"time":200.9433124999982,"velocity":0.5826771653543307,"duration":0.5660374999999931},{"name":"F#5","midi":78,"time":201.5093499999982,"velocity":0.5826771653543307,"duration":0.5660374999999931},{"name":"D#5","midi":75,"time":201.5093499999982,"velocity":0.5826771653543307,"duration":0.5660374999999931},{"name":"F#3","midi":54,"time":201.5093499999982,"velocity":0.5826771653543307,"duration":0.5660374999999931},{"name":"D#3","midi":51,"time":201.5093499999982,"velocity":0.5826771653543307,"duration":0.5660374999999931},{"name":"D5","midi":74,"time":202.0753874999982,"velocity":0.5826771653543307,"duration":0.5660374999999931},{"name":"G#4","midi":68,"time":202.0753874999982,"velocity":0.5826771653543307,"duration":0.5660374999999931},{"name":"B3","midi":59,"time":202.0753874999982,"velocity":0.5826771653543307,"duration":0.5660374999999931},{"name":"F3","midi":53,"time":202.0753874999982,"velocity":0.5826771653543307,"duration":0.5660374999999931},{"name":"D#5","midi":75,"time":202.64142499999818,"velocity":0.5826771653543307,"duration":2.2641499999999724},{"name":"F#4","midi":66,"time":202.64142499999818,"velocity":0.5826771653543307,"duration":0.28301874999999654},{"name":"A#3","midi":58,"time":202.64142499999818,"velocity":0.5826771653543307,"duration":0.5660374999999931},{"name":"F#3","midi":54,"time":202.64142499999818,"velocity":0.5826771653543307,"duration":0.5660374999999931},{"name":"F4","midi":65,"time":202.92444374999818,"velocity":0.5826771653543307,"duration":0.28301874999999654},{"name":"F#4","midi":66,"time":203.20746249999817,"velocity":0.5826771653543307,"duration":1.1320749999999862},{"name":"A2","midi":45,"time":203.20746249999817,"velocity":0.5826771653543307,"duration":0.5660374999999931},{"name":"D#3","midi":51,"time":203.20746249999817,"velocity":0.5826771653543307,"duration":0.28301874999999654},{"name":"F3","midi":53,"time":203.49048124999817,"velocity":0.5826771653543307,"duration":0.28301874999999654},{"name":"A#4","midi":70,"time":203.77349999999817,"velocity":0.5826771653543307,"duration":2.2641499999999724},{"name":"F#3","midi":54,"time":203.77349999999817,"velocity":0.5826771653543307,"duration":0.5660374999999931},{"name":"A#2","midi":46,"time":203.77349999999817,"velocity":0.5826771653543307,"duration":2.2641499999999724},{"name":"G#4","midi":68,"time":204.33953749999816,"velocity":0.5826771653543307,"duration":0.28301874999999654},{"name":"F3","midi":53,"time":204.33953749999816,"velocity":0.5826771653543307,"duration":0.28301874999999654},{"name":"F#4","midi":66,"time":204.62255624999815,"velocity":0.5826771653543307,"duration":0.28301874999999654},{"name":"D#3","midi":51,"time":204.62255624999815,"velocity":0.5826771653543307,"duration":0.28301874999999654},{"name":"D5","midi":74,"time":204.90557499999815,"velocity":0.5826771653543307,"duration":1.1320749999999862},{"name":"F4","midi":65,"time":204.90557499999815,"velocity":0.5826771653543307,"duration":0.28301874999999654},{"name":"A#3","midi":58,"time":204.90557499999815,"velocity":0.5826771653543307,"duration":0.5660374999999931},{"name":"F#4","midi":66,"time":205.18859374999815,"velocity":0.5826771653543307,"duration":0.28301874999999654},{"name":"G#4","midi":68,"time":205.47161249999814,"velocity":0.5826771653543307,"duration":0.5660374999999931},{"name":"F4","midi":65,"time":205.47161249999814,"velocity":0.5826771653543307,"duration":0.5660374999999931},{"name":"A#4","midi":70,"time":206.03764999999814,"velocity":0.5826771653543307,"duration":2.2641500000000008},{"name":"D#5","midi":75,"time":206.03764999999814,"velocity":0.5826771653543307,"duration":2.2641500000000008},{"name":"G4","midi":67,"time":206.03764999999814,"velocity":0.5826771653543307,"duration":2.2641500000000008},{"name":"D#2","midi":39,"time":206.03764999999814,"velocity":0.5826771653543307,"duration":2.2641500000000008},{"name":"D#4","midi":63,"time":206.03764999999814,"velocity":0.5826771653543307,"duration":2.2641500000000008}],"controlChanges":{"7":[{"number":7,"time":0,"value":0.7874015748031497}]},"id":1,"name":"BWV 877/2","instrumentNumber":6,"instrument":"harpsichord","instrumentFamily":"piano","channelNumber":0,"isPercussion":false}]}