{"header":{"PPQ":384,"timeSignature":[4,4],"bpm":120,"name":"--------"},"startTime":0,"duration":95.67838541666683,"tracks":[{"startTime":0,"duration":0,"length":0,"notes":[],"controlChanges":{},"id":0,"name":"--------"},{"startTime":0.0625,"duration":95.67838541666683,"length":632,"notes":[{"name":"A#3","midi":58,"time":0.0625,"velocity":0.8031496062992126,"duration":0.49739583333333326},{"name":"A#4","midi":70,"time":0.0625,"velocity":0.8031496062992126,"duration":1.2473958333333333},{"name":"D4","midi":62,"time":0.5624999999999999,"velocity":0.8031496062992126,"duration":0.49739583333333337},{"name":"C4","midi":60,"time":1.0625,"velocity":0.8031496062992126,"duration":0.49739583333333326},{"name":"A#4","midi":70,"time":1.3125,"velocity":0.8031496062992126,"duration":0.24739583333333326},{"name":"A#3","midi":58,"time":1.5625,"velocity":0.8031496062992126,"duration":0.4973958333333335},{"name":"A4","midi":69,"time":1.5625,"velocity":0.8031496062992126,"duration":0.24739583333333326},{"name":"G4","midi":67,"time":1.8125,"velocity":0.8031496062992126,"duration":0.24739583333333348},{"name":"A3","midi":57,"time":2.0625,"velocity":0.8031496062992126,"duration":0.4973958333333335},{"name":"F4","midi":65,"time":2.0625,"velocity":0.8031496062992126,"duration":0.4973958333333335},{"name":"G3","midi":55,"time":2.5625,"velocity":0.8031496062992126,"duration":0.4973958333333335},{"name":"G4","midi":67,"time":2.5625,"velocity":0.8031496062992126,"duration":0.4973958333333335},{"name":"F3","midi":53,"time":3.0625,"velocity":0.8031496062992126,"duration":0.4973958333333335},{"name":"D4","midi":62,"time":3.0625,"velocity":0.8031496062992126,"duration":0.24739583333333348},{"name":"D#4","midi":63,"time":3.3125,"velocity":0.8031496062992126,"duration":0.24739583333333348},{"name":"D#3","midi":51,"time":3.5625,"velocity":0.8031496062992126,"duration":0.49739583333333304},{"name":"F4","midi":65,"time":3.5625,"velocity":0.8031496062992126,"duration":0.49739583333333304},{"name":"D3","midi":50,"time":4.0625,"velocity":0.8031496062992126,"duration":0.997395833333333},{"name":"A#3","midi":58,"time":4.0625,"velocity":0.8031496062992126,"duration":0.24739583333333304},{"name":"F3","midi":53,"time":4.3125,"velocity":0.8031496062992126,"duration":0.24739583333333304},{"name":"A#3","midi":58,"time":4.5625,"velocity":0.8031496062992126,"duration":0.24739583333333304},{"name":"F5","midi":77,"time":4.5625,"velocity":0.8031496062992126,"duration":0.747395833333333},{"name":"D4","midi":62,"time":4.8125,"velocity":0.8031496062992126,"duration":0.24739583333333304},{"name":"F3","midi":53,"time":5.0625,"velocity":0.8031496062992126,"duration":0.997395833333333},{"name":"C4","midi":60,"time":5.0625,"velocity":0.8031496062992126,"duration":0.49739583333333304},{"name":"D#5","midi":75,"time":5.3125,"velocity":0.8031496062992126,"duration":0.24739583333333304},{"name":"D#4","midi":63,"time":5.5625,"velocity":0.8031496062992126,"duration":0.997395833333333},{"name":"D5","midi":74,"time":5.5625,"velocity":0.8031496062992126,"duration":0.24739583333333304},{"name":"C5","midi":72,"time":5.8125,"velocity":0.8031496062992126,"duration":0.24739583333333304},{"name":"G3","midi":55,"time":6.0625,"velocity":0.8031496062992126,"duration":0.997395833333333},{"name":"A#4","midi":70,"time":6.0625,"velocity":0.8031496062992126,"duration":0.49739583333333304},{"name":"D4","midi":62,"time":6.5625,"velocity":0.8031496062992126,"duration":0.24739583333333304},{"name":"D5","midi":74,"time":6.5625,"velocity":0.8031496062992126,"duration":0.49739583333333304},{"name":"E4","midi":64,"time":6.8125,"velocity":0.8031496062992126,"duration":0.24739583333333304},{"name":"C4","midi":60,"time":7.0625,"velocity":0.8031496062992126,"duration":0.9973958333333339},{"name":"F4","midi":65,"time":7.0625,"velocity":0.8031496062992126,"duration":0.35416666666666696},{"name":"A4","midi":69,"time":7.0625,"velocity":0.8031496062992126,"duration":0.24739583333333304},{"name":"A#4","midi":70,"time":7.3125,"velocity":0.8031496062992126,"duration":0.24739583333333393},{"name":"E4","midi":64,"time":7.419270833333334,"velocity":0.8031496062992126,"duration":0.140625},{"name":"F4","midi":65,"time":7.562500000000001,"velocity":0.8031496062992126,"duration":0.12239583333333304},{"name":"C5","midi":72,"time":7.562500000000001,"velocity":0.8031496062992126,"duration":0.49479166666666696},{"name":"E4","midi":64,"time":7.687500000000001,"velocity":0.8031496062992126,"duration":0.12239583333333304},{"name":"D4","midi":62,"time":7.812500000000001,"velocity":0.8031496062992126,"duration":0.12239583333333304},{"name":"E4","midi":64,"time":7.937500000000001,"velocity":0.8031496062992126,"duration":0.12239583333333304},{"name":"D4","midi":62,"time":8.0625,"velocity":0.8031496062992126,"duration":1.247395833333334},{"name":"F4","midi":65,"time":8.0625,"velocity":0.8031496062992126,"duration":0.9973958333333339},{"name":"F5","midi":77,"time":8.3125,"velocity":0.8031496062992126,"duration":0.24739583333333393},{"name":"D5","midi":74,"time":8.5625,"velocity":0.8031496062992126,"duration":0.24739583333333393},{"name":"A#4","midi":70,"time":8.8125,"velocity":0.8031496062992126,"duration":0.24739583333333393},{"name":"G4","midi":67,"time":9.0625,"velocity":0.8031496062992126,"duration":0.4973958333333339},{"name":"D#5","midi":75,"time":9.0625,"velocity":0.8031496062992126,"duration":0.4973958333333339},{"name":"D4","midi":62,"time":9.3125,"velocity":0.8031496062992126,"duration":0.24739583333333393},{"name":"A#3","midi":58,"time":9.5625,"velocity":0.8031496062992126,"duration":0.24739583333333393},{"name":"A#4","midi":70,"time":9.5625,"velocity":0.8031496062992126,"duration":0.4973958333333339},{"name":"G5","midi":79,"time":9.5625,"velocity":0.8031496062992126,"duration":0.7473958333333339},{"name":"G3","midi":55,"time":9.8125,"velocity":0.8031496062992126,"duration":0.24739583333333393},{"name":"C4","midi":60,"time":10.0625,"velocity":0.8031496062992126,"duration":0.4973958333333339},{"name":"D#4","midi":63,"time":10.0625,"velocity":0.8031496062992126,"duration":0.4973958333333339},{"name":"D#5","midi":75,"time":10.3125,"velocity":0.8031496062992126,"duration":0.24739583333333393},{"name":"D#4","midi":63,"time":10.5625,"velocity":0.8031496062992126,"duration":0.7473958333333339},{"name":"G4","midi":67,"time":10.5625,"velocity":0.8031496062992126,"duration":0.4973958333333339},{"name":"C5","midi":72,"time":10.5625,"velocity":0.8031496062992126,"duration":0.24739583333333393},{"name":"A4","midi":69,"time":10.8125,"velocity":0.8031496062992126,"duration":0.7291666666666661},{"name":"C5","midi":72,"time":11.0625,"velocity":0.8031496062992126,"duration":0.49739583333333215},{"name":"C4","midi":60,"time":11.3125,"velocity":0.8031496062992126,"duration":0.24739583333333215},{"name":"A3","midi":57,"time":11.562499999999998,"velocity":0.8031496062992126,"duration":0.24739583333333393},{"name":"C5","midi":72,"time":11.562499999999998,"velocity":0.8031496062992126,"duration":0.7473958333333339},{"name":"F5","midi":77,"time":11.562499999999998,"velocity":0.8031496062992126,"duration":0.4973958333333339},{"name":"F3","midi":53,"time":11.812499999999998,"velocity":0.8031496062992126,"duration":0.24739583333333393},{"name":"A#3","midi":58,"time":12.062499999999998,"velocity":0.8031496062992126,"duration":1.2473958333333321},{"name":"D5","midi":74,"time":12.062499999999998,"velocity":0.8031496062992126,"duration":0.7291666666666661},{"name":"F4","midi":65,"time":12.312499999999998,"velocity":0.8031496062992126,"duration":0.24739583333333393},{"name":"A#4","midi":70,"time":12.562499999999998,"velocity":0.8031496062992126,"duration":0.24739583333333215},{"name":"D5","midi":74,"time":12.812499999999996,"velocity":0.8031496062992126,"duration":0.24739583333333393},{"name":"G4","midi":67,"time":13.062499999999996,"velocity":0.8031496062992126,"duration":0.4973958333333339},{"name":"E5","midi":76,"time":13.062499999999996,"velocity":0.8031496062992126,"duration":0.9973958333333339},{"name":"A#3","midi":58,"time":13.312499999999996,"velocity":0.8031496062992126,"duration":0.24739583333333393},{"name":"A3","midi":57,"time":13.562499999999996,"velocity":0.8031496062992126,"duration":0.24739583333333393},{"name":"A#4","midi":70,"time":13.562499999999996,"velocity":0.8031496062992126,"duration":0.4973958333333339},{"name":"G3","midi":55,"time":13.812499999999996,"velocity":0.8031496062992126,"duration":0.24739583333333393},{"name":"F3","midi":53,"time":14.062499999999996,"velocity":0.8031496062992126,"duration":0.4973958333333339},{"name":"A4","midi":69,"time":14.062499999999996,"velocity":0.8031496062992126,"duration":0.4973958333333339},{"name":"F5","midi":77,"time":14.062499999999996,"velocity":0.8031496062992126,"duration":0.4973958333333339},{"name":"G3","midi":55,"time":14.562499999999996,"velocity":0.8031496062992126,"duration":0.4973958333333339},{"name":"D4","midi":62,"time":14.562499999999996,"velocity":0.8031496062992126,"duration":0.24739583333333393},{"name":"A#4","midi":70,"time":14.562499999999996,"velocity":0.8031496062992126,"duration":0.9973958333333339},{"name":"D#4","midi":63,"time":14.812499999999996,"velocity":0.8031496062992126,"duration":0.24739583333333393},{"name":"D3","midi":50,"time":15.062499999999996,"velocity":0.8031496062992126,"duration":0.24739583333333393},{"name":"F4","midi":65,"time":15.062499999999996,"velocity":0.8031496062992126,"duration":0.24739583333333393},{"name":"D#3","midi":51,"time":15.312499999999996,"velocity":0.8031496062992126,"duration":0.24739583333333393},{"name":"G4","midi":67,"time":15.312499999999996,"velocity":0.8031496062992126,"duration":0.24739583333333393},{"name":"F3","midi":53,"time":15.562499999999996,"velocity":0.8031496062992126,"duration":0.49739583333333215},{"name":"D#4","midi":63,"time":15.562499999999996,"velocity":0.8031496062992126,"duration":0.24739583333333393},{"name":"A4","midi":69,"time":15.562499999999996,"velocity":0.8031496062992126,"duration":0.9973958333333321},{"name":"F4","midi":65,"time":15.812499999999996,"velocity":0.8031496062992126,"duration":0.24739583333333215},{"name":"A#2","midi":46,"time":16.062499999999996,"velocity":0.8031496062992126,"duration":0.49739583333333215},{"name":"D4","midi":62,"time":16.062499999999996,"velocity":0.8031496062992126,"duration":0.24739583333333215},{"name":"F4","midi":65,"time":16.312499999999996,"velocity":0.8031496062992126,"duration":0.24739583333333215},{"name":"D#3","midi":51,"time":16.562499999999996,"velocity":0.8031496062992126,"duration":0.49739583333333215},{"name":"A#3","midi":58,"time":16.562499999999996,"velocity":0.8031496062992126,"duration":0.24739583333333215},{"name":"G4","midi":67,"time":16.562499999999996,"velocity":0.8031496062992126,"duration":0.9973958333333321},{"name":"C4","midi":60,"time":16.812499999999996,"velocity":0.8031496062992126,"duration":0.24739583333333215},{"name":"A#2","midi":46,"time":17.062499999999996,"velocity":0.8031496062992126,"duration":0.24739583333333215},{"name":"D4","midi":62,"time":17.062499999999996,"velocity":0.8031496062992126,"duration":0.24739583333333215},{"name":"C3","midi":48,"time":17.312499999999996,"velocity":0.8031496062992126,"duration":0.24739583333333215},{"name":"D#4","midi":63,"time":17.312499999999996,"velocity":0.8031496062992126,"duration":0.24739583333333215},{"name":"D3","midi":50,"time":17.562499999999996,"velocity":0.8031496062992126,"duration":0.49739583333333215},{"name":"C4","midi":60,"time":17.562499999999996,"velocity":0.8031496062992126,"duration":0.24739583333333215},{"name":"F4","midi":65,"time":17.562499999999996,"velocity":0.8031496062992126,"duration":0.9973958333333321},{"name":"D4","midi":62,"time":17.812499999999996,"velocity":0.8031496062992126,"duration":0.24739583333333215},{"name":"G2","midi":43,"time":18.062499999999996,"velocity":0.8031496062992126,"duration":0.49739583333333215},{"name":"A#3","midi":58,"time":18.062499999999996,"velocity":0.8031496062992126,"duration":0.24739583333333215},{"name":"D4","midi":62,"time":18.312499999999996,"velocity":0.8031496062992126,"duration":0.24739583333333215},{"name":"C3","midi":48,"time":18.562499999999996,"velocity":0.8031496062992126,"duration":0.49739583333333215},{"name":"G3","midi":55,"time":18.562499999999996,"velocity":0.8031496062992126,"duration":0.24739583333333215},{"name":"D#4","midi":63,"time":18.562499999999996,"velocity":0.8031496062992126,"duration":0.9973958333333321},{"name":"A3","midi":57,"time":18.812499999999996,"velocity":0.8031496062992126,"duration":0.24739583333333215},{"name":"G2","midi":43,"time":19.062499999999996,"velocity":0.8031496062992126,"duration":0.24739583333333215},{"name":"A#3","midi":58,"time":19.062499999999996,"velocity":0.8031496062992126,"duration":0.24739583333333215},{"name":"A2","midi":45,"time":19.312499999999996,"velocity":0.8031496062992126,"duration":0.24739583333333215},{"name":"C4","midi":60,"time":19.312499999999996,"velocity":0.8031496062992126,"duration":0.24739583333333215},{"name":"A#2","midi":46,"time":19.562499999999996,"velocity":0.8031496062992126,"duration":0.49739583333333215},{"name":"G#3","midi":56,"time":19.562499999999996,"velocity":0.8031496062992126,"duration":0.24739583333333215},{"name":"D4","midi":62,"time":19.562499999999996,"velocity":0.8031496062992126,"duration":0.7473958333333321},{"name":"A#3","midi":58,"time":19.812499999999996,"velocity":0.8031496062992126,"duration":0.24739583333333215},{"name":"D#2","midi":39,"time":20.062499999999996,"velocity":0.8031496062992126,"duration":0.49739583333333215},{"name":"G3","midi":55,"time":20.062499999999996,"velocity":0.8031496062992126,"duration":0.9973958333333321},{"name":"G4","midi":67,"time":20.312499999999996,"velocity":0.8031496062992126,"duration":0.24739583333333215},{"name":"D#3","midi":51,"time":20.562499999999996,"velocity":0.8031496062992126,"duration":0.7473958333333321},{"name":"D#4","midi":63,"time":20.562499999999996,"velocity":0.8031496062992126,"duration":0.24739583333333215},{"name":"C4","midi":60,"time":20.812499999999996,"velocity":0.8031496062992126,"duration":0.24739583333333215},{"name":"F3","midi":53,"time":21.062499999999996,"velocity":0.8031496062992126,"duration":0.49479166666666785},{"name":"A4","midi":69,"time":21.062499999999996,"velocity":0.8031496062992126,"duration":0.4973958333333357},{"name":"C4","midi":60,"time":21.312499999999996,"velocity":0.8031496062992126,"duration":0.2473958333333357},{"name":"A3","midi":57,"time":21.5625,"velocity":0.8031496062992126,"duration":0.24739583333333215},{"name":"C5","midi":72,"time":21.5625,"velocity":0.8031496062992126,"duration":0.7473958333333321},{"name":"F3","midi":53,"time":21.8125,"velocity":0.8031496062992126,"duration":0.24739583333333215},{"name":"D3","midi":50,"time":22.0625,"velocity":0.8031496062992126,"duration":0.49739583333333215},{"name":"F4","midi":65,"time":22.3125,"velocity":0.8031496062992126,"duration":0.24739583333333215},{"name":"G3","midi":55,"time":22.5625,"velocity":0.8031496062992126,"duration":0.49739583333333215},{"name":"A#4","midi":70,"time":22.5625,"velocity":0.8031496062992126,"duration":0.24739583333333215},{"name":"D5","midi":74,"time":22.8125,"velocity":0.8031496062992126,"duration":0.24739583333333215},{"name":"D#3","midi":51,"time":23.0625,"velocity":0.8031496062992126,"duration":0.24739583333333215},{"name":"C5","midi":72,"time":23.0625,"velocity":0.8031496062992126,"duration":0.49739583333333215},{"name":"C3","midi":48,"time":23.3125,"velocity":0.8031496062992126,"duration":0.24739583333333215},{"name":"F3","midi":53,"time":23.5625,"velocity":0.8031496062992126,"duration":0.24739583333333215},{"name":"D#5","midi":75,"time":23.5625,"velocity":0.8031496062992126,"duration":0.9973958333333321},{"name":"A3","midi":57,"time":23.8125,"velocity":0.8031496062992126,"duration":0.24739583333333215},{"name":"A#2","midi":46,"time":24.0625,"velocity":0.8031496062992126,"duration":0.24739583333333215},{"name":"A#4","midi":70,"time":24.0625,"velocity":0.8031496062992126,"duration":1.2473958333333357},{"name":"A#3","midi":58,"time":24.3125,"velocity":0.8031496062992126,"duration":0.24739583333333215},{"name":"G3","midi":55,"time":24.5625,"velocity":0.8031496062992126,"duration":0.24739583333333215},{"name":"D5","midi":74,"time":24.5625,"velocity":0.8031496062992126,"duration":0.9973958333333393},{"name":"D3","midi":50,"time":24.8125,"velocity":0.8031496062992126,"duration":0.24739583333333215},{"name":"F3","midi":53,"time":25.0625,"velocity":0.8031496062992126,"duration":0.1640625},{"name":"D#3","midi":51,"time":25.229166666666668,"velocity":0.8031496062992126,"duration":0.0911458333333357},{"name":"A#4","midi":70,"time":25.312500000000004,"velocity":0.8031496062992126,"duration":0.2473958333333357},{"name":"F3","midi":53,"time":25.32291666666667,"velocity":0.8031496062992126,"duration":0.09114583333333215},{"name":"D#3","midi":51,"time":25.41666666666667,"velocity":0.8031496062992126,"duration":0.09114583333333215},{"name":"F3","midi":53,"time":25.51041666666667,"velocity":0.8031496062992126,"duration":0.0911458333333357},{"name":"A4","midi":69,"time":25.562500000000007,"velocity":0.8031496062992126,"duration":0.2473958333333357},{"name":"C5","midi":72,"time":25.562500000000007,"velocity":0.8031496062992126,"duration":0.4973958333333357},{"name":"D#3","midi":51,"time":25.604166666666675,"velocity":0.8031496062992126,"duration":0.09114583333333215},{"name":"F3","midi":53,"time":25.697916666666675,"velocity":0.8031496062992126,"duration":0.09114583333333215},{"name":"D#3","midi":51,"time":25.791666666666675,"velocity":0.8031496062992126,"duration":0.26822916666666785},{"name":"G4","midi":67,"time":25.81250000000001,"velocity":0.8031496062992126,"duration":0.24739583333333215},{"name":"D3","midi":50,"time":26.06250000000001,"velocity":0.8031496062992126,"duration":0.24739583333333215},{"name":"F#4","midi":66,"time":26.06250000000001,"velocity":0.8031496062992126,"duration":0.4973958333333357},{"name":"D5","midi":74,"time":26.06250000000001,"velocity":0.8031496062992126,"duration":0.49479166666666785},{"name":"C4","midi":60,"time":26.31250000000001,"velocity":0.8031496062992126,"duration":0.2473958333333357},{"name":"A#3","midi":58,"time":26.562500000000014,"velocity":0.8031496062992126,"duration":0.24739583333333215},{"name":"G4","midi":67,"time":26.562500000000014,"velocity":0.8031496062992126,"duration":0.49739583333333215},{"name":"A3","midi":57,"time":26.812500000000014,"velocity":0.8031496062992126,"duration":0.24739583333333215},{"name":"G3","midi":55,"time":27.062500000000014,"velocity":0.8031496062992126,"duration":0.24739583333333215},{"name":"D4","midi":62,"time":27.062500000000014,"velocity":0.8031496062992126,"duration":0.24739583333333215},{"name":"A#3","midi":58,"time":27.312500000000014,"velocity":0.8031496062992126,"duration":0.24739583333333215},{"name":"E4","midi":64,"time":27.312500000000014,"velocity":0.8031496062992126,"duration":0.24739583333333215},{"name":"G#3","midi":56,"time":27.562500000000014,"velocity":0.8031496062992126,"duration":0.24739583333333215},{"name":"F4","midi":65,"time":27.562500000000014,"velocity":0.8031496062992126,"duration":0.49739583333333215},{"name":"G3","midi":55,"time":27.812500000000014,"velocity":0.8031496062992126,"duration":0.24739583333333215},{"name":"F3","midi":53,"time":28.062500000000014,"velocity":0.8031496062992126,"duration":0.24739583333333215},{"name":"B3","midi":59,"time":28.062500000000014,"velocity":0.8031496062992126,"duration":0.9973958333333321},{"name":"G#3","midi":56,"time":28.312500000000014,"velocity":0.8031496062992126,"duration":0.24739583333333215},{"name":"G3","midi":55,"time":28.562500000000014,"velocity":0.8031496062992126,"duration":0.24739583333333215},{"name":"G5","midi":79,"time":28.562500000000014,"velocity":0.8031496062992126,"duration":0.7473958333333321},{"name":"F3","midi":53,"time":28.812500000000014,"velocity":0.8031496062992126,"duration":0.24739583333333215},{"name":"D#3","midi":51,"time":29.062500000000014,"velocity":0.8031496062992126,"duration":0.49739583333333215},{"name":"C4","midi":60,"time":29.062500000000014,"velocity":0.8031496062992126,"duration":1.4973958333333321},{"name":"G5","midi":79,"time":29.312500000000014,"velocity":0.8031496062992126,"duration":0.24739583333333215},{"name":"C3","midi":48,"time":29.562500000000014,"velocity":0.8031496062992126,"duration":0.49739583333333215},{"name":"F5","midi":77,"time":29.562500000000014,"velocity":0.8031496062992126,"duration":0.24739583333333215},{"name":"D#5","midi":75,"time":29.812500000000014,"velocity":0.8031496062992126,"duration":0.24739583333333215},{"name":"F3","midi":53,"time":30.062500000000014,"velocity":0.8031496062992126,"duration":0.24739583333333215},{"name":"D5","midi":74,"time":30.062500000000014,"velocity":0.8031496062992126,"duration":0.49739583333333215},{"name":"D#3","midi":51,"time":30.312500000000014,"velocity":0.8031496062992126,"duration":0.24739583333333215},{"name":"F3","midi":53,"time":30.562500000000014,"velocity":0.8031496062992126,"duration":0.24739583333333215},{"name":"G#4","midi":68,"time":30.562500000000014,"velocity":0.8031496062992126,"duration":0.49739583333333215},{"name":"F5","midi":77,"time":30.562500000000014,"velocity":0.8031496062992126,"duration":0.49739583333333215},{"name":"G3","midi":55,"time":30.812500000000014,"velocity":0.8031496062992126,"duration":0.24739583333333215},{"name":"G#3","midi":56,"time":31.062500000000014,"velocity":0.8031496062992126,"duration":0.24739583333333215},{"name":"D4","midi":62,"time":31.062500000000014,"velocity":0.8031496062992126,"duration":0.24739583333333215},{"name":"B4","midi":71,"time":31.062500000000014,"velocity":0.8031496062992126,"duration":0.24739583333333215},{"name":"G3","midi":55,"time":31.312500000000014,"velocity":0.8031496062992126,"duration":0.24739583333333215},{"name":"D#4","midi":63,"time":31.312500000000014,"velocity":0.8031496062992126,"duration":0.24739583333333215},{"name":"C5","midi":72,"time":31.312500000000014,"velocity":0.8031496062992126,"duration":0.24739583333333215},{"name":"F3","midi":53,"time":31.562500000000014,"velocity":0.8031496062992126,"duration":0.24739583333333215},{"name":"F4","midi":65,"time":31.562500000000014,"velocity":0.8031496062992126,"duration":0.4973958333333357},{"name":"D5","midi":74,"time":31.562500000000014,"velocity":0.8031496062992126,"duration":0.4973958333333357},{"name":"D#3","midi":51,"time":31.812500000000014,"velocity":0.8031496062992126,"duration":0.2473958333333357},{"name":"F3","midi":53,"time":32.062500000000014,"velocity":0.8031496062992126,"duration":0.2473958333333357},{"name":"B3","midi":59,"time":32.062500000000014,"velocity":0.8031496062992126,"duration":0.4973958333333357},{"name":"G4","midi":67,"time":32.062500000000014,"velocity":0.8031496062992126,"duration":0.4973958333333357},{"name":"G#3","midi":56,"time":32.312500000000014,"velocity":0.8031496062992126,"duration":0.2473958333333357},{"name":"G3","midi":55,"time":32.562500000000014,"velocity":0.8031496062992126,"duration":0.2473958333333357},{"name":"D4","midi":62,"time":32.562500000000014,"velocity":0.8031496062992126,"duration":0.4973958333333357},{"name":"B4","midi":71,"time":32.562500000000014,"velocity":0.8031496062992126,"duration":0.4973958333333357},{"name":"F3","midi":53,"time":32.812500000000014,"velocity":0.8031496062992126,"duration":0.2473958333333357},{"name":"D#3","midi":51,"time":33.062500000000014,"velocity":0.8031496062992126,"duration":0.2473958333333357},{"name":"G4","midi":67,"time":33.062500000000014,"velocity":0.8031496062992126,"duration":0.2473958333333357},{"name":"C5","midi":72,"time":33.062500000000014,"velocity":0.8031496062992126,"duration":1.9973958333333357},{"name":"D3","midi":50,"time":33.312500000000014,"velocity":0.8031496062992126,"duration":0.2473958333333357},{"name":"A#4","midi":70,"time":33.312500000000014,"velocity":0.8031496062992126,"duration":0.2473958333333357},{"name":"C3","midi":48,"time":33.562500000000014,"velocity":0.8031496062992126,"duration":0.2473958333333357},{"name":"G#4","midi":68,"time":33.562500000000014,"velocity":0.8031496062992126,"duration":0.2473958333333357},{"name":"A#2","midi":46,"time":33.812500000000014,"velocity":0.8031496062992126,"duration":0.2473958333333357},{"name":"G4","midi":67,"time":33.812500000000014,"velocity":0.8031496062992126,"duration":0.2473958333333357},{"name":"G#2","midi":44,"time":34.062500000000014,"velocity":0.8031496062992126,"duration":0.2473958333333357},{"name":"F4","midi":65,"time":34.062500000000014,"velocity":0.8031496062992126,"duration":0.4973958333333357},{"name":"C3","midi":48,"time":34.312500000000014,"velocity":0.8031496062992126,"duration":0.2473958333333357},{"name":"F3","midi":53,"time":34.562500000000014,"velocity":0.8031496062992126,"duration":0.2473958333333357},{"name":"G#4","midi":68,"time":34.562500000000014,"velocity":0.8031496062992126,"duration":0.4973958333333357},{"name":"G#3","midi":56,"time":34.812500000000014,"velocity":0.8031496062992126,"duration":0.2473958333333357},{"name":"G3","midi":55,"time":35.062500000000014,"velocity":0.8031496062992126,"duration":0.4973958333333357},{"name":"D4","midi":62,"time":35.062500000000014,"velocity":0.8031496062992126,"duration":0.2473958333333357},{"name":"B4","midi":71,"time":35.062500000000014,"velocity":0.8031496062992126,"duration":0.9973958333333357},{"name":"D#4","midi":63,"time":35.312500000000014,"velocity":0.8031496062992126,"duration":0.2473958333333357},{"name":"G2","midi":43,"time":35.562500000000014,"velocity":0.8031496062992126,"duration":0.4973958333333357},{"name":"F4","midi":65,"time":35.562500000000014,"velocity":0.8031496062992126,"duration":0.7473958333333357},{"name":"C3","midi":48,"time":36.062500000000014,"velocity":0.8031496062992126,"duration":0.4973958333333357},{"name":"C5","midi":72,"time":36.062500000000014,"velocity":0.8031496062992126,"duration":1.4973958333333357},{"name":"F4","midi":65,"time":36.312500000000014,"velocity":0.8031496062992126,"duration":0.2473958333333357},{"name":"C4","midi":60,"time":36.562500000000014,"velocity":0.8031496062992126,"duration":0.7473958333333357},{"name":"E4","midi":64,"time":36.562500000000014,"velocity":0.8031496062992126,"duration":0.2473958333333357},{"name":"D4","midi":62,"time":36.812500000000014,"velocity":0.8031496062992126,"duration":0.2473958333333357},{"name":"E4","midi":64,"time":37.062500000000014,"velocity":0.8031496062992126,"duration":0.4973958333333357},{"name":"A#3","midi":58,"time":37.312500000000014,"velocity":0.8031496062992126,"duration":0.2473958333333357},{"name":"A3","midi":57,"time":37.562500000000014,"velocity":0.8031496062992126,"duration":0.2473958333333357},{"name":"A#4","midi":70,"time":37.562500000000014,"velocity":0.8031496062992126,"duration":0.7473958333333357},{"name":"G3","midi":55,"time":37.812500000000014,"velocity":0.8031496062992126,"duration":0.2473958333333357},{"name":"F3","midi":53,"time":38.062500000000014,"velocity":0.8031496062992126,"duration":0.4973958333333357},{"name":"A4","midi":69,"time":38.312500000000014,"velocity":0.8031496062992126,"duration":0.2473958333333357},{"name":"A3","midi":57,"time":38.562500000000014,"velocity":0.8031496062992126,"duration":0.4973958333333357},{"name":"G4","midi":67,"time":38.562500000000014,"velocity":0.8031496062992126,"duration":0.2473958333333357},{"name":"F4","midi":65,"time":38.812500000000014,"velocity":0.8031496062992126,"duration":0.2473958333333357},{"name":"E3","midi":52,"time":39.062500000000014,"velocity":0.8031496062992126,"duration":0.2473958333333357},{"name":"G4","midi":67,"time":39.062500000000014,"velocity":0.8031496062992126,"duration":0.2473958333333357},{"name":"F3","midi":53,"time":39.312500000000014,"velocity":0.8031496062992126,"duration":0.2473958333333357},{"name":"A4","midi":69,"time":39.312500000000014,"velocity":0.8031496062992126,"duration":0.2473958333333357},{"name":"G3","midi":55,"time":39.562500000000014,"velocity":0.8031496062992126,"duration":0.4973958333333357},{"name":"A#4","midi":70,"time":39.562500000000014,"velocity":0.8031496062992126,"duration":0.2473958333333357},{"name":"G4","midi":67,"time":39.812500000000014,"velocity":0.8031496062992126,"duration":0.2473958333333357},{"name":"A2","midi":45,"time":40.062500000000014,"velocity":0.8031496062992126,"duration":1.2473958333333357},{"name":"E4","midi":64,"time":40.062500000000014,"velocity":0.8031496062992126,"duration":0.2473958333333357},{"name":"G4","midi":67,"time":40.312500000000014,"velocity":0.8031496062992126,"duration":0.2473958333333357},{"name":"E4","midi":64,"time":40.562500000000014,"velocity":0.8031496062992126,"duration":0.2473958333333357},{"name":"C4","midi":60,"time":40.812500000000014,"velocity":0.8031496062992126,"duration":0.2473958333333357},{"name":"F4","midi":65,"time":41.062500000000014,"velocity":0.8031496062992126,"duration":0.4973958333333357},{"name":"A3","midi":57,"time":41.312500000000014,"velocity":0.8031496062992126,"duration":0.2473958333333357},{"name":"F3","midi":53,"time":41.562500000000014,"velocity":0.8031496062992126,"duration":0.2473958333333357},{"name":"A4","midi":69,"time":41.562500000000014,"velocity":0.8031496062992126,"duration":0.4973958333333357},{"name":"F5","midi":77,"time":41.562500000000014,"velocity":0.8031496062992126,"duration":0.7473958333333357},{"name":"D3","midi":50,"time":41.812500000000014,"velocity":0.8031496062992126,"duration":0.2473958333333357},{"name":"A#2","midi":46,"time":42.062500000000014,"velocity":0.8031496062992126,"duration":0.2473958333333357},{"name":"G4","midi":67,"time":42.062500000000014,"velocity":0.8031496062992126,"duration":1.9973958333333144},{"name":"D3","midi":50,"time":42.312500000000014,"velocity":0.8031496062992126,"duration":0.2473958333333357},{"name":"E5","midi":76,"time":42.312500000000014,"velocity":0.8031496062992126,"duration":0.2473958333333357},{"name":"A#2","midi":46,"time":42.562500000000014,"velocity":0.8031496062992126,"duration":0.2473958333333357},{"name":"D5","midi":74,"time":42.562500000000014,"velocity":0.8031496062992126,"duration":0.2473958333333357},{"name":"G2","midi":43,"time":42.812500000000014,"velocity":0.8031496062992126,"duration":0.2473958333333357},{"name":"E5","midi":76,"time":42.812500000000014,"velocity":0.8031496062992126,"duration":0.2473958333333357},{"name":"C3","midi":48,"time":43.062500000000014,"velocity":0.8031496062992126,"duration":0.4973958333333144},{"name":"D5","midi":74,"time":43.062500000000014,"velocity":0.8031496062992126,"duration":0.1640625},{"name":"E5","midi":76,"time":43.22916666666668,"velocity":0.8031496062992126,"duration":0.0807291666666643},{"name":"F5","midi":77,"time":43.31250000000001,"velocity":0.8031496062992126,"duration":0.0807291666666643},{"name":"E5","midi":76,"time":43.395833333333336,"velocity":0.8031496062992126,"duration":0.0807291666666643},{"name":"F5","midi":77,"time":43.479166666666664,"velocity":0.8031496062992126,"duration":0.0807291666666643},{"name":"C2","midi":36,"time":43.56249999999999,"velocity":0.8031496062992126,"duration":0.4973958333333357},{"name":"E5","midi":76,"time":43.56249999999999,"velocity":0.8031496062992126,"duration":0.2473958333333357},{"name":"F5","midi":77,"time":43.81249999999999,"velocity":0.8031496062992126,"duration":0.2473958333333357},{"name":"F2","midi":41,"time":44.06249999999999,"velocity":0.8031496062992126,"duration":0.2473958333333357},{"name":"A4","midi":69,"time":44.06249999999999,"velocity":0.8031496062992126,"duration":0.9973958333333357},{"name":"F5","midi":77,"time":44.06249999999999,"velocity":0.8031496062992126,"duration":0.4973958333333357},{"name":"G3","midi":55,"time":44.31249999999999,"velocity":0.8031496062992126,"duration":0.2473958333333357},{"name":"F3","midi":53,"time":44.56249999999999,"velocity":0.8031496062992126,"duration":0.2473958333333357},{"name":"A5","midi":81,"time":44.56249999999999,"velocity":0.8031496062992126,"duration":0.7473958333333357},{"name":"E3","midi":52,"time":44.81249999999999,"velocity":0.8031496062992126,"duration":0.2473958333333357},{"name":"D3","midi":50,"time":45.06249999999999,"velocity":0.8031496062992126,"duration":0.4973958333333357},{"name":"A#4","midi":70,"time":45.06249999999999,"velocity":0.8031496062992126,"duration":1.2473958333333357},{"name":"A5","midi":81,"time":45.31249999999999,"velocity":0.8031496062992126,"duration":0.2473958333333357},{"name":"E3","midi":52,"time":45.56249999999999,"velocity":0.8031496062992126,"duration":0.2473958333333357},{"name":"G5","midi":79,"time":45.56249999999999,"velocity":0.8031496062992126,"duration":0.2473958333333357},{"name":"F3","midi":53,"time":45.81249999999999,"velocity":0.8031496062992126,"duration":0.2473958333333357},{"name":"F5","midi":77,"time":45.81249999999999,"velocity":0.8031496062992126,"duration":0.2473958333333357},{"name":"G3","midi":55,"time":46.06249999999999,"velocity":0.8031496062992126,"duration":2.2473958333333357},{"name":"E5","midi":76,"time":46.06249999999999,"velocity":0.8031496062992126,"duration":0.4973958333333357},{"name":"A4","midi":69,"time":46.31249999999999,"velocity":0.8031496062992126,"duration":0.2473958333333357},{"name":"G4","midi":67,"time":46.56249999999999,"velocity":0.8031496062992126,"duration":0.2473958333333357},{"name":"G5","midi":79,"time":46.56249999999999,"velocity":0.8031496062992126,"duration":0.4973958333333357},{"name":"F4","midi":65,"time":46.81249999999999,"velocity":0.8031496062992126,"duration":0.2473958333333357},{"name":"E4","midi":64,"time":47.06249999999999,"velocity":0.8031496062992126,"duration":0.4973958333333357},{"name":"C#5","midi":73,"time":47.06249999999999,"velocity":0.8031496062992126,"duration":0.2473958333333357},{"name":"D5","midi":74,"time":47.31249999999999,"velocity":0.8031496062992126,"duration":0.2473958333333357},{"name":"G4","midi":67,"time":47.56249999999999,"velocity":0.8031496062992126,"duration":0.4973958333333357},{"name":"E5","midi":76,"time":47.56249999999999,"velocity":0.8031496062992126,"duration":0.4973958333333357},{"name":"C#4","midi":61,"time":48.06249999999999,"velocity":0.8031496062992126,"duration":0.2473958333333357},{"name":"A4","midi":69,"time":48.06249999999999,"velocity":0.8031496062992126,"duration":0.7473958333333357},{"name":"A#3","midi":58,"time":48.31249999999999,"velocity":0.8031496062992126,"duration":0.2473958333333357},{"name":"D4","midi":62,"time":48.31249999999999,"velocity":0.8031496062992126,"duration":0.2473958333333357},{"name":"A3","midi":57,"time":48.56249999999999,"velocity":0.8031496062992126,"duration":0.2473958333333357},{"name":"E4","midi":64,"time":48.56249999999999,"velocity":0.8031496062992126,"duration":0.4973958333333357},{"name":"G3","midi":55,"time":48.81249999999999,"velocity":0.8031496062992126,"duration":0.2473958333333357},{"name":"B4","midi":71,"time":48.81249999999999,"velocity":0.8031496062992126,"duration":0.2473958333333357},{"name":"F#3","midi":54,"time":49.06249999999999,"velocity":0.8031496062992126,"duration":0.2473958333333357},{"name":"A3","midi":57,"time":49.06249999999999,"velocity":0.8031496062992126,"duration":0.4973958333333357},{"name":"C5","midi":72,"time":49.06249999999999,"velocity":0.8031496062992126,"duration":0.2473958333333357},{"name":"D3","midi":50,"time":49.31249999999999,"velocity":0.8031496062992126,"duration":0.2473958333333357},{"name":"B4","midi":71,"time":49.31249999999999,"velocity":0.8031496062992126,"duration":0.2473958333333357},{"name":"E3","midi":52,"time":49.56249999999999,"velocity":0.8031496062992126,"duration":0.2473958333333357},{"name":"A4","midi":69,"time":49.56249999999999,"velocity":0.8031496062992126,"duration":0.703125},{"name":"C5","midi":72,"time":49.56249999999999,"velocity":0.8031496062992126,"duration":0.2473958333333357},{"name":"F3","midi":53,"time":49.81249999999999,"velocity":0.8031496062992126,"duration":0.2473958333333357},{"name":"D5","midi":74,"time":49.81249999999999,"velocity":0.8031496062992126,"duration":0.2473958333333357},{"name":"G3","midi":55,"time":50.06249999999999,"velocity":0.8031496062992126,"duration":0.2473958333333357},{"name":"B4","midi":71,"time":50.06249999999999,"velocity":0.8031496062992126,"duration":0.3645833333333357},{"name":"F#3","midi":54,"time":50.31249999999999,"velocity":0.8031496062992126,"duration":0.2473958333333357},{"name":"A4","midi":69,"time":50.31249999999999,"velocity":0.8031496062992126,"duration":0.2473958333333357},{"name":"G3","midi":55,"time":50.56249999999999,"velocity":0.8031496062992126,"duration":0.2473958333333357},{"name":"G4","midi":67,"time":50.56249999999999,"velocity":0.8031496062992126,"duration":0.7473958333333357},{"name":"B4","midi":71,"time":50.56249999999999,"velocity":0.8031496062992126,"duration":0.2473958333333357},{"name":"A3","midi":57,"time":50.81249999999999,"velocity":0.8031496062992126,"duration":0.2473958333333357},{"name":"C#5","midi":73,"time":50.81249999999999,"velocity":0.8031496062992126,"duration":0.2473958333333357},{"name":"A#3","midi":58,"time":51.06249999999999,"velocity":0.8031496062992126,"duration":0.4973958333333357},{"name":"D5","midi":74,"time":51.06249999999999,"velocity":0.8031496062992126,"duration":1.9973958333333357},{"name":"F4","midi":65,"time":51.31249999999999,"velocity":0.8031496062992126,"duration":0.2473958333333357},{"name":"A3","midi":57,"time":51.56249999999999,"velocity":0.8031496062992126,"duration":0.4973958333333357},{"name":"G4","midi":67,"time":51.56249999999999,"velocity":0.8031496062992126,"duration":0.2473958333333357},{"name":"A4","midi":69,"time":51.81249999999999,"velocity":0.8031496062992126,"duration":0.2473958333333357},{"name":"G3","midi":55,"time":52.06249999999999,"velocity":0.8031496062992126,"duration":0.2473958333333357},{"name":"A#4","midi":70,"time":52.06249999999999,"velocity":0.8031496062992126,"duration":0.2473958333333357},{"name":"E3","midi":52,"time":52.31249999999999,"velocity":0.8031496062992126,"duration":0.2473958333333357},{"name":"G4","midi":67,"time":52.31249999999999,"velocity":0.8031496062992126,"duration":0.2473958333333357},{"name":"F3","midi":53,"time":52.56249999999999,"velocity":0.8031496062992126,"duration":0.2473958333333357},{"name":"A4","midi":69,"time":52.56249999999999,"velocity":0.8031496062992126,"duration":0.2473958333333357},{"name":"G3","midi":55,"time":52.81249999999999,"velocity":0.8031496062992126,"duration":0.2473958333333357},{"name":"A#4","midi":70,"time":52.81249999999999,"velocity":0.8031496062992126,"duration":0.2473958333333357},{"name":"A3","midi":57,"time":53.06249999999999,"velocity":0.8031496062992126,"duration":0.4973958333333357},{"name":"E4","midi":64,"time":53.06249999999999,"velocity":0.8031496062992126,"duration":0.2473958333333357},{"name":"C#5","midi":73,"time":53.06249999999999,"velocity":0.8031496062992126,"duration":0.9973958333333357},{"name":"A#4","midi":70,"time":53.31249999999999,"velocity":0.8031496062992126,"duration":0.2473958333333357},{"name":"A2","midi":45,"time":53.56249999999999,"velocity":0.8031496062992126,"duration":0.4973958333333357},{"name":"A4","midi":69,"time":53.56249999999999,"velocity":0.8031496062992126,"duration":0.2473958333333357},{"name":"G4","midi":67,"time":53.81249999999999,"velocity":0.8031496062992126,"duration":0.2473958333333357},{"name":"D3","midi":50,"time":54.06249999999999,"velocity":0.8031496062992126,"duration":0.2473958333333357},{"name":"F4","midi":65,"time":54.06249999999999,"velocity":0.8031496062992126,"duration":0.9895833333333357},{"name":"D5","midi":74,"time":54.06249999999999,"velocity":0.8031496062992126,"duration":0.4973958333333357},{"name":"A3","midi":57,"time":54.31249999999999,"velocity":0.8031496062992126,"duration":0.2473958333333357},{"name":"F3","midi":53,"time":54.56249999999999,"velocity":0.8031496062992126,"duration":0.2473958333333357},{"name":"F5","midi":77,"time":54.56249999999999,"velocity":0.8031496062992126,"duration":0.7473958333333357},{"name":"D3","midi":50,"time":54.81249999999999,"velocity":0.8031496062992126,"duration":0.2473958333333357},{"name":"D4","midi":62,"time":55.06249999999999,"velocity":0.8031496062992126,"duration":0.4973958333333357},{"name":"D#5","midi":75,"time":55.31249999999999,"velocity":0.8031496062992126,"duration":0.2473958333333357},{"name":"F4","midi":65,"time":55.56249999999999,"velocity":0.8031496062992126,"duration":0.7473958333333357},{"name":"D5","midi":74,"time":55.56249999999999,"velocity":0.8031496062992126,"duration":0.2473958333333357},{"name":"C5","midi":72,"time":55.81249999999999,"velocity":0.8031496062992126,"duration":0.2473958333333357},{"name":"B4","midi":71,"time":56.06249999999999,"velocity":0.8031496062992126,"duration":0.4973958333333357},{"name":"D#4","midi":63,"time":56.31249999999999,"velocity":0.8031496062992126,"duration":0.2473958333333357},{"name":"D4","midi":62,"time":56.56249999999999,"velocity":0.8031496062992126,"duration":0.2473958333333357},{"name":"D5","midi":74,"time":56.56249999999999,"velocity":0.8031496062992126,"duration":0.4973958333333357},{"name":"C4","midi":60,"time":56.81249999999999,"velocity":0.8031496062992126,"duration":0.2473958333333357},{"name":"B3","midi":59,"time":57.06249999999999,"velocity":0.8031496062992126,"duration":0.4973958333333357},{"name":"G4","midi":67,"time":57.06249999999999,"velocity":0.8031496062992126,"duration":0.2473958333333357},{"name":"A4","midi":69,"time":57.31249999999999,"velocity":0.8031496062992126,"duration":0.2473958333333357},{"name":"G3","midi":55,"time":57.56249999999999,"velocity":0.8031496062992126,"duration":0.4973958333333357},{"name":"B4","midi":71,"time":57.56249999999999,"velocity":0.8031496062992126,"duration":0.1223958333333357},{"name":"A4","midi":69,"time":57.68749999999999,"velocity":0.8031496062992126,"duration":0.1223958333333357},{"name":"B4","midi":71,"time":57.81249999999999,"velocity":0.8031496062992126,"duration":0.2473958333333357},{"name":"C4","midi":60,"time":58.06249999999999,"velocity":0.8031496062992126,"duration":0.2473958333333357},{"name":"D#4","midi":63,"time":58.06249999999999,"velocity":0.8031496062992126,"duration":0.9895833333333357},{"name":"G3","midi":55,"time":58.31249999999999,"velocity":0.8031496062992126,"duration":0.2473958333333357},{"name":"D#3","midi":51,"time":58.56249999999999,"velocity":0.8031496062992126,"duration":0.2473958333333357},{"name":"C5","midi":72,"time":58.56249999999999,"velocity":0.8031496062992126,"duration":0.4973958333333357},{"name":"C3","midi":48,"time":58.81249999999999,"velocity":0.8031496062992126,"duration":0.2473958333333357},{"name":"A#3","midi":58,"time":59.06249999999999,"velocity":0.8031496062992126,"duration":0.2473958333333357},{"name":"D#5","midi":75,"time":59.06249999999999,"velocity":0.8031496062992126,"duration":1.4973958333333357},{"name":"D4","midi":62,"time":59.31249999999999,"velocity":0.8031496062992126,"duration":0.2473958333333357},{"name":"A#4","midi":70,"time":59.31249999999999,"velocity":0.8031496062992126,"duration":0.2473958333333357},{"name":"C4","midi":60,"time":59.56249999999999,"velocity":0.8031496062992126,"duration":0.2473958333333357},{"name":"A4","midi":69,"time":59.56249999999999,"velocity":0.8031496062992126,"duration":0.2473958333333357},{"name":"A#3","midi":58,"time":59.81249999999999,"velocity":0.8031496062992126,"duration":0.2473958333333357},{"name":"G4","midi":67,"time":59.81249999999999,"velocity":0.8031496062992126,"duration":0.2473958333333357},{"name":"A3","midi":57,"time":60.06249999999999,"velocity":0.8031496062992126,"duration":0.2473958333333357},{"name":"F4","midi":65,"time":60.06249999999999,"velocity":0.8031496062992126,"duration":0.4973958333333357},{"name":"G3","midi":55,"time":60.31249999999999,"velocity":0.8031496062992126,"duration":0.2473958333333357},{"name":"F3","midi":53,"time":60.56249999999999,"velocity":0.8031496062992126,"duration":0.2473958333333357},{"name":"A4","midi":69,"time":60.56249999999999,"velocity":0.8031496062992126,"duration":0.4973958333333357},{"name":"D5","midi":74,"time":60.56249999999999,"velocity":0.8031496062992126,"duration":0.2473958333333357},{"name":"D#3","midi":51,"time":60.81249999999999,"velocity":0.8031496062992126,"duration":0.2473958333333357},{"name":"C5","midi":72,"time":60.81249999999999,"velocity":0.8031496062992126,"duration":0.2473958333333357},{"name":"F3","midi":53,"time":61.06249999999999,"velocity":0.8031496062992126,"duration":0.7473958333333357},{"name":"D4","midi":62,"time":61.06249999999999,"velocity":0.8031496062992126,"duration":0.2473958333333357},{"name":"A#4","midi":70,"time":61.06249999999999,"velocity":0.8031496062992126,"duration":0.4973958333333357},{"name":"D#4","midi":63,"time":61.31249999999999,"velocity":0.8031496062992126,"duration":0.2473958333333357},{"name":"F4","midi":65,"time":61.56249999999999,"velocity":0.8031496062992126,"duration":0.4973958333333357},{"name":"A4","midi":69,"time":61.56249999999999,"velocity":0.8031496062992126,"duration":0.4973958333333357},{"name":"G3","midi":55,"time":61.81249999999999,"velocity":0.8031496062992126,"duration":0.2473958333333357},{"name":"G#3","midi":56,"time":62.06249999999999,"velocity":0.8031496062992126,"duration":0.2630208333333357},{"name":"A#3","midi":58,"time":62.06249999999999,"velocity":0.8031496062992126,"duration":0.2278645833333357},{"name":"D5","midi":74,"time":62.06249999999999,"velocity":0.8031496062992126,"duration":0.7473958333333357},{"name":"A#3","midi":58,"time":62.31249999999999,"velocity":0.8031496062992126,"duration":0.2473958333333357},{"name":"G#3","midi":56,"time":62.56249999999999,"velocity":0.8031496062992126,"duration":0.2473958333333357},{"name":"F4","midi":65,"time":62.56249999999999,"velocity":0.8031496062992126,"duration":1.7473958333333357},{"name":"G3","midi":55,"time":62.81249999999999,"velocity":0.8031496062992126,"duration":0.2473958333333357},{"name":"D#5","midi":75,"time":62.81249999999999,"velocity":0.8031496062992126,"duration":0.2473958333333357},{"name":"F3","midi":53,"time":63.06249999999999,"velocity":0.8031496062992126,"duration":0.2473958333333357},{"name":"D5","midi":74,"time":63.06249999999999,"velocity":0.8031496062992126,"duration":0.2473958333333357},{"name":"D#3","midi":51,"time":63.31249999999999,"velocity":0.8031496062992126,"duration":0.2473958333333357},{"name":"C5","midi":72,"time":63.31249999999999,"velocity":0.8031496062992126,"duration":0.2473958333333357},{"name":"D3","midi":50,"time":63.56249999999999,"velocity":0.8031496062992126,"duration":0.2473958333333357},{"name":"A#4","midi":70,"time":63.56249999999999,"velocity":0.8031496062992126,"duration":0.2473958333333357},{"name":"C3","midi":48,"time":63.81249999999999,"velocity":0.8031496062992126,"duration":0.2473958333333357},{"name":"G#4","midi":68,"time":63.81249999999999,"velocity":0.8031496062992126,"duration":0.2473958333333357},{"name":"A#2","midi":46,"time":64.0625,"velocity":0.8031496062992126,"duration":0.4973958333333286},{"name":"G4","midi":67,"time":64.0625,"velocity":0.8031496062992126,"duration":0.7473958333333286},{"name":"D4","midi":62,"time":64.3125,"velocity":0.8031496062992126,"duration":0.2473958333333286},{"name":"C3","midi":48,"time":64.5625,"velocity":0.8031496062992126,"duration":0.4973958333333286},{"name":"D#4","midi":63,"time":64.5625,"velocity":0.8031496062992126,"duration":0.9973958333333286},{"name":"G#4","midi":68,"time":64.8125,"velocity":0.8031496062992126,"duration":0.2473958333333286},{"name":"G2","midi":43,"time":65.0625,"velocity":0.8031496062992126,"duration":0.2473958333333286},{"name":"A#4","midi":70,"time":65.0625,"velocity":0.8031496062992126,"duration":0.4973958333333286},{"name":"G#2","midi":44,"time":65.3125,"velocity":0.8031496062992126,"duration":0.2473958333333286},{"name":"A#2","midi":46,"time":65.5625,"velocity":0.8031496062992126,"duration":0.4973958333333286},{"name":"D4","midi":62,"time":65.5625,"velocity":0.8031496062992126,"duration":0.4973958333333286},{"name":"F4","midi":65,"time":65.5625,"velocity":0.8031496062992126,"duration":0.4973958333333286},{"name":"D#2","midi":39,"time":66.0625,"velocity":0.8031496062992126,"duration":0.9895833333333428},{"name":"D#4","midi":63,"time":66.0625,"velocity":0.8031496062992126,"duration":0.4947916666666714},{"name":"G4","midi":67,"time":66.0625,"velocity":0.8031496062992126,"duration":0.4973958333333428},{"name":"G5","midi":79,"time":66.56250000000001,"velocity":0.8031496062992126,"duration":0.7473958333333286},{"name":"C5","midi":72,"time":67.06250000000001,"velocity":0.8031496062992126,"duration":0.7473958333333286},{"name":"F5","midi":77,"time":67.31250000000001,"velocity":0.8031496062992126,"duration":0.2473958333333286},{"name":"D#4","midi":63,"time":67.56250000000001,"velocity":0.8031496062992126,"duration":0.9973958333333286},{"name":"D#5","midi":75,"time":67.56250000000001,"velocity":0.8031496062992126,"duration":0.2473958333333286},{"name":"A#4","midi":70,"time":67.81250000000001,"velocity":0.8031496062992126,"duration":0.2473958333333286},{"name":"D5","midi":74,"time":67.81250000000001,"velocity":0.8031496062992126,"duration":0.2473958333333286},{"name":"A4","midi":69,"time":68.06250000000001,"velocity":0.8031496062992126,"duration":0.2473958333333286},{"name":"C5","midi":72,"time":68.06250000000001,"velocity":0.8031496062992126,"duration":0.4973958333333286},{"name":"G4","midi":67,"time":68.31250000000001,"velocity":0.8031496062992126,"duration":0.2473958333333286},{"name":"D4","midi":62,"time":68.56250000000001,"velocity":0.8031496062992126,"duration":0.7473958333333286},{"name":"F4","midi":65,"time":68.56250000000001,"velocity":0.8031496062992126,"duration":0.4973958333333286},{"name":"F5","midi":77,"time":68.56250000000001,"velocity":0.8031496062992126,"duration":0.4973958333333286},{"name":"G4","midi":67,"time":69.06250000000001,"velocity":0.8031496062992126,"duration":0.4973958333333286},{"name":"A#4","midi":70,"time":69.06250000000001,"velocity":0.8031496062992126,"duration":0.2473958333333286},{"name":"D4","midi":62,"time":69.31250000000001,"velocity":0.8031496062992126,"duration":0.2473958333333286},{"name":"C5","midi":72,"time":69.31250000000001,"velocity":0.8031496062992126,"duration":0.2473958333333286},{"name":"C4","midi":60,"time":69.56250000000001,"velocity":0.8031496062992126,"duration":0.2473958333333286},{"name":"A#4","midi":70,"time":69.56250000000001,"velocity":0.8031496062992126,"duration":0.4973958333333286},{"name":"D5","midi":74,"time":69.56250000000001,"velocity":0.8031496062992126,"duration":0.4973958333333286},{"name":"A#3","midi":58,"time":69.81250000000001,"velocity":0.8031496062992126,"duration":0.2473958333333286},{"name":"C4","midi":60,"time":70.06250000000001,"velocity":0.8031496062992126,"duration":0.2473958333333286},{"name":"D#4","midi":63,"time":70.06250000000001,"velocity":0.8031496062992126,"duration":0.2473958333333286},{"name":"G4","midi":67,"time":70.06250000000001,"velocity":0.8031496062992126,"duration":0.4973958333333286},{"name":"D4","midi":62,"time":70.31250000000001,"velocity":0.8031496062992126,"duration":0.2473958333333286},{"name":"F4","midi":65,"time":70.31250000000001,"velocity":0.8031496062992126,"duration":0.2473958333333286},{"name":"C4","midi":60,"time":70.56250000000001,"velocity":0.8031496062992126,"duration":0.2473958333333286},{"name":"G4","midi":67,"time":70.56250000000001,"velocity":0.8031496062992126,"duration":0.4973958333333286},{"name":"D#5","midi":75,"time":70.56250000000001,"velocity":0.8031496062992126,"duration":0.7473958333333286},{"name":"A#3","midi":58,"time":70.81250000000001,"velocity":0.8031496062992126,"duration":0.2473958333333286},{"name":"A3","midi":57,"time":71.06250000000001,"velocity":0.8031496062992126,"duration":0.2473958333333286},{"name":"C4","midi":60,"time":71.06250000000001,"velocity":0.8031496062992126,"duration":0.4973958333333286},{"name":"A#3","midi":58,"time":71.31250000000001,"velocity":0.8031496062992126,"duration":0.2473958333333286},{"name":"D5","midi":74,"time":71.31250000000001,"velocity":0.8031496062992126,"duration":0.2473958333333286},{"name":"A3","midi":57,"time":71.56250000000001,"velocity":0.8031496062992126,"duration":0.2473958333333286},{"name":"F4","midi":65,"time":71.56250000000001,"velocity":0.8031496062992126,"duration":0.7473958333333286},{"name":"C5","midi":72,"time":71.56250000000001,"velocity":0.8031496062992126,"duration":0.2473958333333286},{"name":"G3","midi":55,"time":71.81250000000001,"velocity":0.8031496062992126,"duration":0.2473958333333286},{"name":"A#4","midi":70,"time":71.81250000000001,"velocity":0.8031496062992126,"duration":0.2473958333333286},{"name":"F3","midi":53,"time":72.06250000000001,"velocity":0.8031496062992126,"duration":0.4973958333333286},{"name":"A4","midi":69,"time":72.06250000000001,"velocity":0.8031496062992126,"duration":0.4973958333333286},{"name":"D#4","midi":63,"time":72.31250000000001,"velocity":0.8031496062992126,"duration":0.2473958333333286},{"name":"A#2","midi":46,"time":72.56250000000001,"velocity":0.8031496062992126,"duration":0.4973958333333286},{"name":"D4","midi":62,"time":72.56250000000001,"velocity":0.8031496062992126,"duration":0.2473958333333286},{"name":"D5","midi":74,"time":72.56250000000001,"velocity":0.8031496062992126,"duration":0.4973958333333286},{"name":"C4","midi":60,"time":72.81250000000001,"velocity":0.8031496062992126,"duration":0.2473958333333286},{"name":"D#3","midi":51,"time":73.06250000000001,"velocity":0.8031496062992126,"duration":0.2473958333333286},{"name":"A#3","midi":58,"time":73.06250000000001,"velocity":0.8031496062992126,"duration":0.4973958333333286},{"name":"G4","midi":67,"time":73.06250000000001,"velocity":0.8031496062992126,"duration":0.2473958333333286},{"name":"D3","midi":50,"time":73.31250000000001,"velocity":0.8031496062992126,"duration":0.2473958333333286},{"name":"A4","midi":69,"time":73.31250000000001,"velocity":0.8031496062992126,"duration":0.2473958333333286},{"name":"C3","midi":48,"time":73.56250000000001,"velocity":0.8031496062992126,"duration":0.2473958333333286},{"name":"D4","midi":62,"time":73.56250000000001,"velocity":0.8031496062992126,"duration":0.4973958333333286},{"name":"A#4","midi":70,"time":73.56250000000001,"velocity":0.8031496062992126,"duration":0.4973958333333286},{"name":"A#2","midi":46,"time":73.81250000000001,"velocity":0.8031496062992126,"duration":0.2473958333333286},{"name":"C3","midi":48,"time":74.06250000000001,"velocity":0.8031496062992126,"duration":0.2473958333333286},{"name":"A3","midi":57,"time":74.06250000000001,"velocity":0.8031496062992126,"duration":0.2473958333333286},{"name":"D#4","midi":63,"time":74.06250000000001,"velocity":0.8031496062992126,"duration":0.4973958333333286},{"name":"A#2","midi":46,"time":74.31250000000001,"velocity":0.8031496062992126,"duration":0.2473958333333286},{"name":"A#3","midi":58,"time":74.31250000000001,"velocity":0.8031496062992126,"duration":0.2473958333333286},{"name":"A2","midi":45,"time":74.56250000000001,"velocity":0.8031496062992126,"duration":0.2473958333333286},{"name":"C4","midi":60,"time":74.56250000000001,"velocity":0.8031496062992126,"duration":0.4973958333333286},{"name":"C5","midi":72,"time":74.56250000000001,"velocity":0.8031496062992126,"duration":0.7473958333333286},{"name":"G2","midi":43,"time":74.81250000000001,"velocity":0.8031496062992126,"duration":0.2473958333333286},{"name":"A2","midi":45,"time":75.06250000000001,"velocity":0.8031496062992126,"duration":0.2473958333333286},{"name":"F3","midi":53,"time":75.06250000000001,"velocity":0.8031496062992126,"duration":1.25},{"name":"G2","midi":43,"time":75.31250000000001,"velocity":0.8031496062992126,"duration":0.2473958333333286},{"name":"A#4","midi":70,"time":75.31250000000001,"velocity":0.8031496062992126,"duration":0.2473958333333286},{"name":"F2","midi":41,"time":75.56250000000001,"velocity":0.8031496062992126,"duration":0.2473958333333286},{"name":"A4","midi":69,"time":75.56250000000001,"velocity":0.8031496062992126,"duration":0.2473958333333286},{"name":"D#2","midi":39,"time":75.81250000000001,"velocity":0.8031496062992126,"duration":0.2473958333333286},{"name":"G4","midi":67,"time":75.81250000000001,"velocity":0.8031496062992126,"duration":0.2473958333333286},{"name":"D2","midi":38,"time":76.06250000000001,"velocity":0.8031496062992126,"duration":0.2473958333333286},{"name":"F4","midi":65,"time":76.06250000000001,"velocity":0.8031496062992126,"duration":0.9895833333333286},{"name":"D#3","midi":51,"time":76.31250000000001,"velocity":0.8031496062992126,"duration":0.2473958333333286},{"name":"D3","midi":50,"time":76.56250000000001,"velocity":0.8031496062992126,"duration":0.2473958333333286},{"name":"A#4","midi":70,"time":76.56250000000001,"velocity":0.8031496062992126,"duration":0.7473958333333286},{"name":"C3","midi":48,"time":76.81250000000001,"velocity":0.8031496062992126,"duration":0.2473958333333286},{"name":"A#2","midi":46,"time":77.06250000000001,"velocity":0.8031496062992126,"duration":0.2473958333333286},{"name":"G3","midi":55,"time":77.31250000000001,"velocity":0.8031496062992126,"duration":0.2473958333333286},{"name":"A#4","midi":70,"time":77.31250000000001,"velocity":0.8031496062992126,"duration":0.2473958333333286},{"name":"F3","midi":53,"time":77.56250000000001,"velocity":0.8031496062992126,"duration":0.2473958333333286},{"name":"A4","midi":69,"time":77.56250000000001,"velocity":0.8031496062992126,"duration":0.2473958333333286},{"name":"D#3","midi":51,"time":77.81250000000001,"velocity":0.8031496062992126,"duration":0.2473958333333286},{"name":"G4","midi":67,"time":77.81250000000001,"velocity":0.8031496062992126,"duration":0.2473958333333286},{"name":"D3","midi":50,"time":78.06250000000001,"velocity":0.8031496062992126,"duration":0.2473958333333286},{"name":"F4","midi":65,"time":78.06250000000001,"velocity":0.8031496062992126,"duration":0.4973958333333286},{"name":"D#4","midi":63,"time":78.31250000000001,"velocity":0.8031496062992126,"duration":0.2473958333333286},{"name":"D4","midi":62,"time":78.56250000000001,"velocity":0.8031496062992126,"duration":0.2473958333333286},{"name":"A4","midi":69,"time":78.56250000000001,"velocity":0.8031496062992126,"duration":0.4973958333333286},{"name":"F5","midi":77,"time":78.56250000000001,"velocity":0.8031496062992126,"duration":0.7473958333333286},{"name":"C4","midi":60,"time":78.81250000000001,"velocity":0.8031496062992126,"duration":0.2473958333333286},{"name":"A#3","midi":58,"time":79.06250000000001,"velocity":0.8031496062992126,"duration":0.7473958333333286},{"name":"D4","midi":62,"time":79.06250000000001,"velocity":0.8031496062992126,"duration":0.2473958333333286},{"name":"D#4","midi":63,"time":79.31250000000001,"velocity":0.8031496062992126,"duration":0.2473958333333286},{"name":"D#5","midi":75,"time":79.31250000000001,"velocity":0.8031496062992126,"duration":0.2473958333333286},{"name":"F4","midi":65,"time":79.56250000000001,"velocity":0.8031496062992126,"duration":0.4973958333333286},{"name":"D5","midi":74,"time":79.56250000000001,"velocity":0.8031496062992126,"duration":0.2473958333333286},{"name":"A3","midi":57,"time":79.81250000000001,"velocity":0.8031496062992126,"duration":0.2473958333333286},{"name":"C5","midi":72,"time":79.81250000000001,"velocity":0.8031496062992126,"duration":0.2473958333333286},{"name":"G3","midi":55,"time":80.06250000000001,"velocity":0.8031496062992126,"duration":0.4973958333333286},{"name":"A#3","midi":58,"time":80.06250000000001,"velocity":0.8031496062992126,"duration":0.2473958333333286},{"name":"A#4","midi":70,"time":80.06250000000001,"velocity":0.8031496062992126,"duration":0.4973958333333286},{"name":"A3","midi":57,"time":80.31250000000001,"velocity":0.8031496062992126,"duration":0.2473958333333286},{"name":"F3","midi":53,"time":80.56250000000001,"velocity":0.8031496062992126,"duration":0.7473958333333286},{"name":"A#3","midi":58,"time":80.56250000000001,"velocity":0.8031496062992126,"duration":0.2473958333333286},{"name":"D5","midi":74,"time":80.56250000000001,"velocity":0.8031496062992126,"duration":0.4973958333333286},{"name":"D4","midi":62,"time":80.81250000000001,"velocity":0.8031496062992126,"duration":0.2473958333333286},{"name":"C4","midi":60,"time":81.06250000000001,"velocity":0.8031496062992126,"duration":0.4973958333333286},{"name":"A4","midi":69,"time":81.06250000000001,"velocity":0.8031496062992126,"duration":0.2473958333333286},{"name":"D#3","midi":51,"time":81.31250000000001,"velocity":0.8031496062992126,"duration":0.2473958333333286},{"name":"A#4","midi":70,"time":81.31250000000001,"velocity":0.8031496062992126,"duration":0.2473958333333286},{"name":"D3","midi":50,"time":81.56250000000001,"velocity":0.8031496062992126,"duration":0.2473958333333286},{"name":"D#4","midi":63,"time":81.56250000000001,"velocity":0.8031496062992126,"duration":0.9973958333333286},{"name":"C5","midi":72,"time":81.56250000000001,"velocity":0.8031496062992126,"duration":0.7473958333333286},{"name":"C3","midi":48,"time":81.81250000000001,"velocity":0.8031496062992126,"duration":0.2473958333333286},{"name":"A#2","midi":46,"time":82.06250000000001,"velocity":0.8031496062992126,"duration":0.4973958333333286},{"name":"F4","midi":65,"time":82.31250000000001,"velocity":0.8031496062992126,"duration":0.2473958333333286},{"name":"D3","midi":50,"time":82.56250000000001,"velocity":0.8031496062992126,"duration":0.4973958333333286},{"name":"D4","midi":62,"time":82.56250000000001,"velocity":0.8031496062992126,"duration":0.46875},{"name":"A#4","midi":70,"time":82.56250000000001,"velocity":0.8031496062992126,"duration":0.2473958333333286},{"name":"D5","midi":74,"time":82.81250000000001,"velocity":0.8031496062992126,"duration":0.2473958333333286},{"name":"A2","midi":45,"time":83.06250000000001,"velocity":0.8031496062992126,"duration":0.2473958333333286},{"name":"C5","midi":72,"time":83.06250000000001,"velocity":0.8031496062992126,"duration":0.4973958333333286},{"name":"A#2","midi":46,"time":83.31250000000001,"velocity":0.8031496062992126,"duration":0.2473958333333286},{"name":"A#4","midi":70,"time":83.31250000000001,"velocity":0.8031496062992126,"duration":0.2473958333333286},{"name":"C3","midi":48,"time":83.56250000000001,"velocity":0.8031496062992126,"duration":0.4973958333333286},{"name":"A4","midi":69,"time":83.56250000000001,"velocity":0.8031496062992126,"duration":0.2473958333333286},{"name":"D#5","midi":75,"time":83.56250000000001,"velocity":0.8031496062992126,"duration":0.7473958333333286},{"name":"G4","midi":67,"time":83.81250000000001,"velocity":0.8031496062992126,"duration":0.2473958333333286},{"name":"D2","midi":38,"time":84.06250000000001,"velocity":0.8031496062992126,"duration":0.4973958333333286},{"name":"F4","midi":65,"time":84.06250000000001,"velocity":0.8031496062992126,"duration":0.9635416666666714},{"name":"A4","midi":69,"time":84.31250000000001,"velocity":0.8031496062992126,"duration":0.2473958333333286},{"name":"D3","midi":50,"time":84.56250000000001,"velocity":0.8031496062992126,"duration":0.4973958333333428},{"name":"A#4","midi":70,"time":84.56250000000001,"velocity":0.8031496062992126,"duration":0.2473958333333286},{"name":"D5","midi":74,"time":84.81250000000001,"velocity":0.8031496062992126,"duration":0.2473958333333428},{"name":"A#2","midi":46,"time":85.06250000000003,"velocity":0.8031496062992126,"duration":0.4973958333333286},{"name":"F5","midi":77,"time":85.06250000000003,"velocity":0.8031496062992126,"duration":1.2473958333333286},{"name":"D5","midi":74,"time":85.31250000000003,"velocity":0.8031496062992126,"duration":0.2473958333333286},{"name":"D3","midi":50,"time":85.56250000000003,"velocity":0.8031496062992126,"duration":0.4973958333333286},{"name":"A#4","midi":70,"time":85.56250000000003,"velocity":0.8031496062992126,"duration":0.2473958333333286},{"name":"G#4","midi":68,"time":85.81250000000003,"velocity":0.8031496062992126,"duration":0.2473958333333286},{"name":"D#2","midi":39,"time":86.06250000000003,"velocity":0.8031496062992126,"duration":0.4973958333333286},{"name":"G4","midi":67,"time":86.06250000000003,"velocity":0.8031496062992126,"duration":0.9635416666666714},{"name":"A#4","midi":70,"time":86.31250000000003,"velocity":0.8031496062992126,"duration":0.2473958333333286},{"name":"D#3","midi":51,"time":86.56250000000003,"velocity":0.8031496062992126,"duration":0.4973958333333428},{"name":"C5","midi":72,"time":86.56250000000003,"velocity":0.8031496062992126,"duration":0.2473958333333286},{"name":"D#5","midi":75,"time":86.81250000000003,"velocity":0.8031496062992126,"duration":0.2473958333333428},{"name":"C3","midi":48,"time":87.06250000000004,"velocity":0.8031496062992126,"duration":0.4973958333333286},{"name":"G5","midi":79,"time":87.06250000000004,"velocity":0.8031496062992126,"duration":0.9973958333333286},{"name":"D#5","midi":75,"time":87.31250000000004,"velocity":0.8031496062992126,"duration":0.2473958333333286},{"name":"D#3","midi":51,"time":87.56250000000004,"velocity":0.8031496062992126,"duration":1.0234375000000142},{"name":"C5","midi":72,"time":87.56250000000004,"velocity":0.8031496062992126,"duration":0.2473958333333286},{"name":"A#4","midi":70,"time":87.81250000000004,"velocity":0.8031496062992126,"duration":0.2473958333333286},{"name":"F5","midi":77,"time":88.06250000000004,"velocity":0.8031496062992126,"duration":0.739583333333357},{"name":"A#5","midi":82,"time":88.06250000000004,"velocity":0.8031496062992126,"duration":0.2604166666666714},{"name":"A5","midi":81,"time":88.32552083333339,"velocity":0.8031496062992126,"duration":0.2604166666666714},{"name":"D#4","midi":63,"time":88.58854166666673,"velocity":0.8031496062992126,"duration":0.5234375000000142},{"name":"G5","midi":79,"time":88.58854166666673,"velocity":0.8031496062992126,"duration":0.2604166666666714},{"name":"F5","midi":77,"time":88.85156250000007,"velocity":0.8031496062992126,"duration":0.2604166666666714},{"name":"D4","midi":62,"time":89.11458333333341,"velocity":0.8031496062992126,"duration":0.5234375000000142},{"name":"A#5","midi":82,"time":89.11458333333341,"velocity":0.8031496062992126,"duration":0.2604166666666714},{"name":"A5","midi":81,"time":89.37760416666676,"velocity":0.8031496062992126,"duration":0.12890625},{"name":"G5","midi":79,"time":89.50911458333343,"velocity":0.8031496062992126,"duration":0.12890625},{"name":"A#3","midi":58,"time":89.6406250000001,"velocity":0.8031496062992126,"duration":0.5234375000000142},{"name":"F5","midi":77,"time":89.6406250000001,"velocity":0.8031496062992126,"duration":0.12890625},{"name":"D#5","midi":75,"time":89.77213541666677,"velocity":0.8031496062992126,"duration":0.12890625},{"name":"D5","midi":74,"time":89.90364583333344,"velocity":0.8031496062992126,"duration":0.12890625},{"name":"C5","midi":72,"time":90.03515625000011,"velocity":0.8031496062992126,"duration":0.12890625},{"name":"G3","midi":55,"time":90.16666666666679,"velocity":0.8031496062992126,"duration":0.5234375000000142},{"name":"A#4","midi":70,"time":90.16666666666679,"velocity":0.8031496062992126,"duration":1.3437500000000426},{"name":"A4","midi":69,"time":90.29817708333346,"velocity":0.8031496062992126,"duration":0.12890625},{"name":"G4","midi":67,"time":90.42968750000013,"velocity":0.8031496062992126,"duration":0.12890625},{"name":"F4","midi":65,"time":90.5611979166668,"velocity":0.8031496062992126,"duration":0.12890625},{"name":"D#3","midi":51,"time":90.69270833333347,"velocity":0.8031496062992126,"duration":0.5234375000000142},{"name":"G4","midi":67,"time":90.69270833333347,"velocity":0.8031496062992126,"duration":0.2604166666666714},{"name":"D#4","midi":63,"time":90.95572916666681,"velocity":0.8031496062992126,"duration":0.2604166666666714},{"name":"F3","midi":53,"time":91.21875000000016,"velocity":0.8031496062992126,"duration":0.5859375000000142},{"name":"D4","midi":62,"time":91.21875000000016,"velocity":0.8031496062992126,"duration":0.5859375000000142},{"name":"A#4","midi":70,"time":91.5130208333335,"velocity":0.8031496062992126,"duration":0.6315104166666714},{"name":"F2","midi":41,"time":91.80729166666684,"velocity":0.8031496062992126,"duration":0.6783854166666572},{"name":"C4","midi":60,"time":91.80729166666684,"velocity":0.8031496062992126,"duration":0.6783854166666572},{"name":"A4","midi":69,"time":92.14843750000017,"velocity":0.8031496062992126,"duration":0.3372395833333286},{"name":"A#2","midi":46,"time":92.5247395833335,"velocity":0.8031496062992126,"duration":3.1536458333333286},{"name":"D4","midi":62,"time":92.5247395833335,"velocity":0.8031496062992126,"duration":3.1536458333333286},{"name":"A#4","midi":70,"time":92.5247395833335,"velocity":0.8031496062992126,"duration":3.1536458333333286}],"controlChanges":{"7":[{"number":7,"time":0,"value":0.7874015748031497}]},"id":1,"name":"Piano 1","instrumentNumber":6,"instrument":"harpsichord","instrumentFamily":"piano","channelNumber":0,"isPercussion":false}]}