{"header":{"PPQ":384,"timeSignature":[4,4],"bpm":120,"name":"--------"},"startTime":0,"duration":483.33333333333877,"tracks":[{"startTime":0,"duration":0,"length":0,"notes":[],"controlChanges":{},"id":0,"name":"--------"},{"startTime":0.041666666666666664,"duration":483.33333333333877,"length":3364,"notes":[{"name":"D#5","midi":75,"time":0.041666666666666664,"velocity":0.7244094488188977,"duration":0.19140625},{"name":"G4","midi":67,"time":0.041666666666666664,"velocity":0.7244094488188977,"duration":0.9882812500000001},{"name":"D#4","midi":63,"time":0.041666666666666664,"velocity":0.7244094488188977,"duration":1.16015625},{"name":"F5","midi":77,"time":0.234375,"velocity":0.7244094488188977,"duration":0.19140625},{"name":"G5","midi":79,"time":0.4283854166666667,"velocity":0.7244094488188977,"duration":0.19140625000000006},{"name":"D#5","midi":75,"time":0.6223958333333334,"velocity":0.7244094488188977,"duration":0.19140625},{"name":"D5","midi":74,"time":0.81640625,"velocity":0.7244094488188977,"duration":0.19140625},{"name":"C5","midi":72,"time":1.0104166666666667,"velocity":0.7244094488188977,"duration":0.19140625},{"name":"A#4","midi":70,"time":1.203125,"velocity":0.7244094488188977,"duration":0.19140625},{"name":"D4","midi":62,"time":1.203125,"velocity":0.7244094488188977,"duration":0.38541666666666674},{"name":"F4","midi":65,"time":1.203125,"velocity":0.7244094488188977,"duration":0.38541666666666674},{"name":"G#4","midi":68,"time":1.3971354166666667,"velocity":0.7244094488188977,"duration":0.19140625},{"name":"G4","midi":67,"time":1.5911458333333335,"velocity":0.7244094488188977,"duration":0.19140625},{"name":"D#4","midi":63,"time":1.5911458333333335,"velocity":0.7244094488188977,"duration":0.19140625},{"name":"G#4","midi":68,"time":1.7851562500000002,"velocity":0.7244094488188977,"duration":0.19140625},{"name":"F4","midi":65,"time":1.7851562500000002,"velocity":0.7244094488188977,"duration":0.19140625},{"name":"A#4","midi":70,"time":1.979166666666667,"velocity":0.7244094488188977,"duration":0.19140625},{"name":"G4","midi":67,"time":1.979166666666667,"velocity":0.7244094488188977,"duration":0.19140625},{"name":"C5","midi":72,"time":2.1718750000000004,"velocity":0.7244094488188977,"duration":0.19140625},{"name":"D#4","midi":63,"time":2.1718750000000004,"velocity":0.7244094488188977,"duration":0.19140625},{"name":"A#4","midi":70,"time":2.365885416666667,"velocity":0.7244094488188977,"duration":0.19140625},{"name":"D4","midi":62,"time":2.365885416666667,"velocity":0.7244094488188977,"duration":0.19140625},{"name":"D#5","midi":75,"time":2.5598958333333335,"velocity":0.7244094488188977,"duration":0.19140625},{"name":"C4","midi":60,"time":2.5598958333333335,"velocity":0.7244094488188977,"duration":0.19140625},{"name":"D5","midi":74,"time":2.75390625,"velocity":0.7244094488188977,"duration":0.19140625},{"name":"A#3","midi":58,"time":2.75390625,"velocity":0.7244094488188977,"duration":0.19140625},{"name":"C5","midi":72,"time":2.9479166666666665,"velocity":0.7244094488188977,"duration":0.19140625},{"name":"G#3","midi":56,"time":2.9479166666666665,"velocity":0.7244094488188977,"duration":0.19140625},{"name":"A#4","midi":70,"time":3.140625,"velocity":0.7244094488188977,"duration":0.19140625},{"name":"G3","midi":55,"time":3.140625,"velocity":0.7244094488188977,"duration":0.19140625},{"name":"G#4","midi":68,"time":3.3346354166666665,"velocity":0.7244094488188977,"duration":0.19140625},{"name":"F3","midi":53,"time":3.3346354166666665,"velocity":0.7244094488188977,"duration":0.19140625},{"name":"G4","midi":67,"time":3.528645833333333,"velocity":0.7244094488188977,"duration":0.19140625},{"name":"D#3","midi":51,"time":3.528645833333333,"velocity":0.7244094488188977,"duration":0.19140625},{"name":"C5","midi":72,"time":3.7226562499999996,"velocity":0.7244094488188977,"duration":0.19140625},{"name":"F3","midi":53,"time":3.7226562499999996,"velocity":0.7244094488188977,"duration":0.19140625},{"name":"A#4","midi":70,"time":3.916666666666666,"velocity":0.7244094488188977,"duration":0.19140625},{"name":"G3","midi":55,"time":3.916666666666666,"velocity":0.7244094488188977,"duration":0.3424479166666661},{"name":"G#4","midi":68,"time":4.109374999999999,"velocity":0.7244094488188977,"duration":0.19140625},{"name":"G4","midi":67,"time":4.303385416666666,"velocity":0.7244094488188977,"duration":0.19140625},{"name":"G#3","midi":56,"time":4.303385416666666,"velocity":0.7244094488188977,"duration":0.34244791666666696},{"name":"F4","midi":65,"time":4.497395833333333,"velocity":0.7244094488188977,"duration":0.19140625},{"name":"D#4","midi":63,"time":4.69140625,"velocity":0.7244094488188977,"duration":0.19140625},{"name":"A#3","midi":58,"time":4.69140625,"velocity":0.7244094488188977,"duration":0.09375},{"name":"G#3","midi":56,"time":4.787760416666667,"velocity":0.7244094488188977,"duration":0.09375},{"name":"D4","midi":62,"time":4.885416666666667,"velocity":0.7244094488188977,"duration":0.19140625},{"name":"A#3","midi":58,"time":4.885416666666667,"velocity":0.7244094488188977,"duration":0.19140625},{"name":"C4","midi":60,"time":5.078125,"velocity":0.7244094488188977,"duration":0.19140625},{"name":"F3","midi":53,"time":5.078125,"velocity":0.7244094488188977,"duration":0.38541666666666696},{"name":"D4","midi":62,"time":5.272135416666667,"velocity":0.7244094488188977,"duration":0.19140625},{"name":"A#3","midi":58,"time":5.466145833333334,"velocity":0.7244094488188977,"duration":0.19140625},{"name":"D3","midi":50,"time":5.466145833333334,"velocity":0.7244094488188977,"duration":0.34244791666666696},{"name":"D4","midi":62,"time":5.660156250000001,"velocity":0.7244094488188977,"duration":0.19140625},{"name":"F4","midi":65,"time":5.854166666666668,"velocity":0.7244094488188977,"duration":0.19140625},{"name":"A#2","midi":46,"time":5.854166666666668,"velocity":0.7244094488188977,"duration":0.3424479166666661},{"name":"G#4","midi":68,"time":6.046875000000001,"velocity":0.7244094488188977,"duration":0.19140625},{"name":"G4","midi":67,"time":6.240885416666668,"velocity":0.7244094488188977,"duration":0.19140625},{"name":"D#3","midi":51,"time":6.240885416666668,"velocity":0.7244094488188977,"duration":0.40494791666666696},{"name":"G#4","midi":68,"time":6.434895833333335,"velocity":0.7244094488188977,"duration":0.19140625},{"name":"A#4","midi":70,"time":6.628906250000002,"velocity":0.7244094488188977,"duration":0.28255208333333304},{"name":"G3","midi":55,"time":6.628906250000002,"velocity":0.7244094488188977,"duration":0.36328125},{"name":"D#5","midi":75,"time":6.822916666666668,"velocity":0.7244094488188977,"duration":0.1914062500000009},{"name":"G#4","midi":68,"time":7.015625000000002,"velocity":0.7244094488188977,"duration":0.2825520833333339},{"name":"G3","midi":55,"time":7.015625000000002,"velocity":0.7244094488188977,"duration":0.09375},{"name":"F3","midi":53,"time":7.113281250000002,"velocity":0.7244094488188977,"duration":0.09375},{"name":"D#5","midi":75,"time":7.209635416666669,"velocity":0.7244094488188977,"duration":0.19140625},{"name":"G3","midi":55,"time":7.209635416666669,"velocity":0.7244094488188977,"duration":0.09375},{"name":"F3","midi":53,"time":7.307291666666669,"velocity":0.7244094488188977,"duration":0.09375},{"name":"G4","midi":67,"time":7.403645833333336,"velocity":0.7244094488188977,"duration":0.2825520833333339},{"name":"D#3","midi":51,"time":7.403645833333336,"velocity":0.7244094488188977,"duration":0.3632812500000009},{"name":"D#5","midi":75,"time":7.597656250000003,"velocity":0.7244094488188977,"duration":0.1914062500000009},{"name":"F4","midi":65,"time":7.7916666666666705,"velocity":0.7244094488188977,"duration":0.19140625},{"name":"D3","midi":50,"time":7.7916666666666705,"velocity":0.7244094488188977,"duration":0.19140625},{"name":"G4","midi":67,"time":7.9843750000000036,"velocity":0.7244094488188977,"duration":0.19140625},{"name":"D#3","midi":51,"time":7.9843750000000036,"velocity":0.7244094488188977,"duration":0.19140625},{"name":"G#4","midi":68,"time":8.17838541666667,"velocity":0.7244094488188977,"duration":0.19140625},{"name":"F3","midi":53,"time":8.17838541666667,"velocity":0.7244094488188977,"duration":0.19140625},{"name":"F4","midi":65,"time":8.372395833333336,"velocity":0.7244094488188977,"duration":0.19140625},{"name":"D3","midi":50,"time":8.372395833333336,"velocity":0.7244094488188977,"duration":0.19140625},{"name":"D#4","midi":63,"time":8.566406250000002,"velocity":0.7244094488188977,"duration":0.28255208333333215},{"name":"C3","midi":48,"time":8.566406250000002,"velocity":0.7244094488188977,"duration":0.19140625},{"name":"G#4","midi":68,"time":8.760416666666668,"velocity":0.7244094488188977,"duration":0.19140625},{"name":"F3","midi":53,"time":8.760416666666668,"velocity":0.7244094488188977,"duration":0.19140625},{"name":"D4","midi":62,"time":8.953125000000002,"velocity":0.7244094488188977,"duration":0.28255208333333215},{"name":"A#2","midi":46,"time":8.953125000000002,"velocity":0.7244094488188977,"duration":0.19140625},{"name":"G#4","midi":68,"time":9.147135416666668,"velocity":0.7244094488188977,"duration":0.19140625},{"name":"F3","midi":53,"time":9.147135416666668,"velocity":0.7244094488188977,"duration":0.19140625},{"name":"G4","midi":67,"time":9.341145833333334,"velocity":0.7244094488188977,"duration":0.19140625},{"name":"D#3","midi":51,"time":9.341145833333334,"velocity":0.7244094488188977,"duration":0.37239583333333215},{"name":"G#4","midi":68,"time":9.53515625,"velocity":0.7244094488188977,"duration":0.19140625},{"name":"A#4","midi":70,"time":9.729166666666666,"velocity":0.7244094488188977,"duration":0.19140625},{"name":"G3","midi":55,"time":9.729166666666666,"velocity":0.7244094488188977,"duration":0.3723958333333339},{"name":"D#5","midi":75,"time":9.921875,"velocity":0.7244094488188977,"duration":0.3828125},{"name":"G#4","midi":68,"time":10.115885416666666,"velocity":0.7244094488188977,"duration":0.19140625},{"name":"F3","midi":53,"time":10.115885416666666,"velocity":0.7244094488188977,"duration":0.09375},{"name":"G3","midi":55,"time":10.213541666666666,"velocity":0.7244094488188977,"duration":0.09375},{"name":"D#5","midi":75,"time":10.309895833333332,"velocity":0.7244094488188977,"duration":0.3828125},{"name":"F3","midi":53,"time":10.309895833333332,"velocity":0.7244094488188977,"duration":0.18359375},{"name":"G4","midi":67,"time":10.503906249999998,"velocity":0.7244094488188977,"duration":0.19140625},{"name":"D#3","midi":51,"time":10.503906249999998,"velocity":0.7244094488188977,"duration":0.37239583333333215},{"name":"D#5","midi":75,"time":10.697916666666664,"velocity":0.7244094488188977,"duration":0.19140625},{"name":"F4","midi":65,"time":10.890624999999998,"velocity":0.7244094488188977,"duration":0.19140625},{"name":"D3","midi":50,"time":10.890624999999998,"velocity":0.7244094488188977,"duration":0.19140625},{"name":"G4","midi":67,"time":11.084635416666664,"velocity":0.7244094488188977,"duration":0.19140625},{"name":"D#3","midi":51,"time":11.084635416666664,"velocity":0.7244094488188977,"duration":0.19140625},{"name":"G#4","midi":68,"time":11.27864583333333,"velocity":0.7244094488188977,"duration":0.5651041666666661},{"name":"F3","midi":53,"time":11.27864583333333,"velocity":0.7244094488188977,"duration":0.19140625},{"name":"F4","midi":65,"time":11.472656249999996,"velocity":0.7244094488188977,"duration":0.19140625},{"name":"D3","midi":50,"time":11.472656249999996,"velocity":0.7244094488188977,"duration":0.19140625},{"name":"D#4","midi":63,"time":11.666666666666663,"velocity":0.7244094488188977,"duration":0.19140625},{"name":"C3","midi":48,"time":11.666666666666663,"velocity":0.7244094488188977,"duration":0.19140625},{"name":"G#4","midi":68,"time":11.859374999999996,"velocity":0.7244094488188977,"duration":0.3828125},{"name":"F3","midi":53,"time":11.859374999999996,"velocity":0.7244094488188977,"duration":0.19140625},{"name":"D4","midi":62,"time":12.053385416666663,"velocity":0.7244094488188977,"duration":0.19140625},{"name":"A#2","midi":46,"time":12.053385416666663,"velocity":0.7244094488188977,"duration":0.19140625},{"name":"G#4","midi":68,"time":12.247395833333329,"velocity":0.7244094488188977,"duration":0.19140625},{"name":"F3","midi":53,"time":12.247395833333329,"velocity":0.7244094488188977,"duration":0.19140625},{"name":"G4","midi":67,"time":12.441406249999995,"velocity":0.7244094488188977,"duration":0.19140625},{"name":"D#3","midi":51,"time":12.441406249999995,"velocity":0.7244094488188977,"duration":0.3854166666666661},{"name":"G#4","midi":68,"time":12.63541666666666,"velocity":0.7244094488188977,"duration":0.19140625},{"name":"A#4","midi":70,"time":12.828124999999995,"velocity":0.7244094488188977,"duration":0.5651041666666661},{"name":"D#2","midi":39,"time":12.828124999999995,"velocity":0.7244094488188977,"duration":0.3854166666666661},{"name":"F4","midi":65,"time":13.02213541666666,"velocity":0.7244094488188977,"duration":0.19140625},{"name":"D#4","midi":63,"time":13.216145833333327,"velocity":0.7244094488188977,"duration":0.19140625},{"name":"F2","midi":41,"time":13.216145833333327,"velocity":0.7244094488188977,"duration":0.37239583333333215},{"name":"A#4","midi":70,"time":13.410156249999993,"velocity":0.7244094488188977,"duration":0.3828125},{"name":"C#4","midi":61,"time":13.604166666666659,"velocity":0.7244094488188977,"duration":0.19140625},{"name":"G2","midi":43,"time":13.604166666666659,"velocity":0.7244094488188977,"duration":0.3723958333333339},{"name":"A#4","midi":70,"time":13.796874999999993,"velocity":0.7244094488188977,"duration":0.19140625},{"name":"C4","midi":60,"time":13.990885416666659,"velocity":0.7244094488188977,"duration":0.19140625},{"name":"G#2","midi":44,"time":13.990885416666659,"velocity":0.7244094488188977,"duration":0.3854166666666661},{"name":"C#4","midi":61,"time":14.184895833333325,"velocity":0.7244094488188977,"duration":0.19140625},{"name":"D#4","midi":63,"time":14.378906249999991,"velocity":0.7244094488188977,"duration":0.19140625},{"name":"G3","midi":55,"time":14.378906249999991,"velocity":0.7244094488188977,"duration":0.3854166666666661},{"name":"G#4","midi":68,"time":14.572916666666657,"velocity":0.7244094488188977,"duration":0.3828125},{"name":"D4","midi":62,"time":14.765624999999991,"velocity":0.7244094488188977,"duration":0.19140625},{"name":"F3","midi":53,"time":14.765624999999991,"velocity":0.7244094488188977,"duration":0.09375},{"name":"G3","midi":55,"time":14.863281249999991,"velocity":0.7244094488188977,"duration":0.09375},{"name":"G#4","midi":68,"time":14.959635416666657,"velocity":0.7244094488188977,"duration":0.3828125},{"name":"F3","midi":53,"time":14.959635416666657,"velocity":0.7244094488188977,"duration":0.19140625},{"name":"C4","midi":60,"time":15.153645833333323,"velocity":0.7244094488188977,"duration":0.19140625},{"name":"D#3","midi":51,"time":15.153645833333323,"velocity":0.7244094488188977,"duration":0.37630208333333215},{"name":"G#4","midi":68,"time":15.34765624999999,"velocity":0.7244094488188977,"duration":0.19140625},{"name":"A#3","midi":58,"time":15.541666666666655,"velocity":0.7244094488188977,"duration":0.19140625},{"name":"D3","midi":50,"time":15.541666666666655,"velocity":0.7244094488188977,"duration":0.38541666666666785},{"name":"G#4","midi":68,"time":15.73437499999999,"velocity":0.7244094488188977,"duration":0.19140625},{"name":"G4","midi":67,"time":15.928385416666657,"velocity":0.7244094488188977,"duration":0.19140625},{"name":"D#3","midi":51,"time":15.928385416666657,"velocity":0.7244094488188977,"duration":0.38541666666666785},{"name":"F4","midi":65,"time":16.122395833333325,"velocity":0.7244094488188977,"duration":0.19140625},{"name":"G4","midi":67,"time":16.316406249999993,"velocity":0.7244094488188977,"duration":0.19140625},{"name":"A#3","midi":58,"time":16.316406249999993,"velocity":0.7244094488188977,"duration":0.38541666666666785},{"name":"D#4","midi":63,"time":16.51041666666666,"velocity":0.7244094488188977,"duration":0.19140625},{"name":"A#3","midi":58,"time":16.703124999999993,"velocity":0.7244094488188977,"duration":0.19140625},{"name":"A#2","midi":46,"time":16.703124999999993,"velocity":0.7244094488188977,"duration":0.38541666666666785},{"name":"D4","midi":62,"time":16.89713541666666,"velocity":0.7244094488188977,"duration":0.19140625},{"name":"D4","midi":62,"time":17.09114583333333,"velocity":0.7244094488188977,"duration":0.19140625},{"name":"D#3","midi":51,"time":17.09114583333333,"velocity":0.7244094488188977,"duration":0.19140625},{"name":"D#4","midi":63,"time":17.285156249999996,"velocity":0.7244094488188977,"duration":0.09375},{"name":"F3","midi":53,"time":17.285156249999996,"velocity":0.7244094488188977,"duration":0.19140625},{"name":"D4","midi":62,"time":17.381510416666664,"velocity":0.7244094488188977,"duration":0.09375},{"name":"D#4","midi":63,"time":17.479166666666664,"velocity":0.7244094488188977,"duration":0.5651041666666679},{"name":"G3","midi":55,"time":17.479166666666664,"velocity":0.7244094488188977,"duration":0.19140625},{"name":"F3","midi":53,"time":17.671874999999996,"velocity":0.7244094488188977,"duration":0.19140625},{"name":"D#3","midi":51,"time":17.865885416666664,"velocity":0.7244094488188977,"duration":0.19140625},{"name":"G3","midi":55,"time":18.059895833333332,"velocity":0.7244094488188977,"duration":0.19140625},{"name":"G4","midi":67,"time":18.25390625,"velocity":0.7244094488188977,"duration":0.38541666666666785},{"name":"D3","midi":50,"time":18.25390625,"velocity":0.7244094488188977,"duration":0.19140625},{"name":"G3","midi":55,"time":18.447916666666668,"velocity":0.7244094488188977,"duration":0.19140625},{"name":"C5","midi":72,"time":18.640625,"velocity":0.7244094488188977,"duration":0.19140625},{"name":"D#3","midi":51,"time":18.640625,"velocity":0.7244094488188977,"duration":0.38541666666666785},{"name":"D5","midi":74,"time":18.834635416666668,"velocity":0.7244094488188977,"duration":0.19140625},{"name":"D#5","midi":75,"time":19.028645833333336,"velocity":0.7244094488188977,"duration":0.2825520833333357},{"name":"C4","midi":60,"time":19.028645833333336,"velocity":0.7244094488188977,"duration":0.38541666666666785},{"name":"G5","midi":79,"time":19.222656250000004,"velocity":0.7244094488188977,"duration":0.19140625},{"name":"D5","midi":74,"time":19.41666666666667,"velocity":0.7244094488188977,"duration":0.2825520833333357},{"name":"C4","midi":60,"time":19.41666666666667,"velocity":0.7244094488188977,"duration":0.09375},{"name":"B3","midi":59,"time":19.51302083333334,"velocity":0.7244094488188977,"duration":0.09375},{"name":"G5","midi":79,"time":19.609375000000007,"velocity":0.7244094488188977,"duration":0.19140625},{"name":"C4","midi":60,"time":19.609375000000007,"velocity":0.7244094488188977,"duration":0.09375},{"name":"B3","midi":59,"time":19.707031250000007,"velocity":0.7244094488188977,"duration":0.09375},{"name":"C5","midi":72,"time":19.803385416666675,"velocity":0.7244094488188977,"duration":0.2825520833333357},{"name":"A3","midi":57,"time":19.803385416666675,"velocity":0.7244094488188977,"duration":0.38541666666666785},{"name":"G5","midi":79,"time":19.997395833333343,"velocity":0.7244094488188977,"duration":0.19140625},{"name":"B4","midi":71,"time":20.19140625000001,"velocity":0.7244094488188977,"duration":0.19140625},{"name":"G3","midi":55,"time":20.19140625000001,"velocity":0.7244094488188977,"duration":0.38541666666666785},{"name":"C5","midi":72,"time":20.38541666666668,"velocity":0.7244094488188977,"duration":0.19140625},{"name":"D5","midi":74,"time":20.57812500000001,"velocity":0.7244094488188977,"duration":0.2825520833333357},{"name":"B3","midi":59,"time":20.57812500000001,"velocity":0.7244094488188977,"duration":0.38541666666666785},{"name":"F5","midi":77,"time":20.77213541666668,"velocity":0.7244094488188977,"duration":0.19140625},{"name":"B4","midi":71,"time":20.966145833333346,"velocity":0.7244094488188977,"duration":0.2825520833333357},{"name":"D4","midi":62,"time":20.966145833333346,"velocity":0.7244094488188977,"duration":0.38541666666666785},{"name":"F5","midi":77,"time":21.160156250000014,"velocity":0.7244094488188977,"duration":0.19140625},{"name":"G4","midi":67,"time":21.354166666666682,"velocity":0.7244094488188977,"duration":0.28255208333333215},{"name":"B3","midi":59,"time":21.354166666666682,"velocity":0.7244094488188977,"duration":0.3854166666666643},{"name":"F5","midi":77,"time":21.546875000000014,"velocity":0.7244094488188977,"duration":0.19140625},{"name":"C5","midi":72,"time":21.74088541666668,"velocity":0.7244094488188977,"duration":0.19140625},{"name":"D#4","midi":63,"time":21.74088541666668,"velocity":0.7244094488188977,"duration":0.38541666666666785},{"name":"D5","midi":74,"time":21.934895833333346,"velocity":0.7244094488188977,"duration":0.19140625},{"name":"D#5","midi":75,"time":22.128906250000014,"velocity":0.7244094488188977,"duration":0.19140625},{"name":"C4","midi":60,"time":22.128906250000014,"velocity":0.7244094488188977,"duration":0.38541666666666785},{"name":"G5","midi":79,"time":22.322916666666682,"velocity":0.7244094488188977,"duration":0.3828125},{"name":"C5","midi":72,"time":22.515625000000014,"velocity":0.7244094488188977,"duration":0.19140625},{"name":"A3","midi":57,"time":22.515625000000014,"velocity":0.7244094488188977,"duration":0.38541666666666785},{"name":"G5","midi":79,"time":22.709635416666682,"velocity":0.7244094488188977,"duration":0.3828125},{"name":"A#4","midi":70,"time":22.90364583333335,"velocity":0.7244094488188977,"duration":0.19140625},{"name":"C4","midi":60,"time":22.90364583333335,"velocity":0.7244094488188977,"duration":0.38541666666666785},{"name":"G5","midi":79,"time":23.097656250000018,"velocity":0.7244094488188977,"duration":0.19140625},{"name":"A4","midi":69,"time":23.291666666666686,"velocity":0.7244094488188977,"duration":0.19140625},{"name":"F3","midi":53,"time":23.291666666666686,"velocity":0.7244094488188977,"duration":0.3854166666666643},{"name":"A#4","midi":70,"time":23.484375000000018,"velocity":0.7244094488188977,"duration":0.19140625},{"name":"C5","midi":72,"time":23.678385416666682,"velocity":0.7244094488188977,"duration":0.19140625},{"name":"A3","midi":57,"time":23.678385416666682,"velocity":0.7244094488188977,"duration":0.38541666666666785},{"name":"D#5","midi":75,"time":23.87239583333335,"velocity":0.7244094488188977,"duration":0.3828125},{"name":"A4","midi":69,"time":24.066406250000018,"velocity":0.7244094488188977,"duration":0.19140625},{"name":"C4","midi":60,"time":24.066406250000018,"velocity":0.7244094488188977,"duration":0.38541666666666785},{"name":"D#5","midi":75,"time":24.260416666666686,"velocity":0.7244094488188977,"duration":0.3828125},{"name":"F4","midi":65,"time":24.453125000000018,"velocity":0.7244094488188977,"duration":0.19140625},{"name":"A3","midi":57,"time":24.453125000000018,"velocity":0.7244094488188977,"duration":0.38541666666666785},{"name":"D#5","midi":75,"time":24.647135416666686,"velocity":0.7244094488188977,"duration":0.19140625},{"name":"D5","midi":74,"time":24.841145833333353,"velocity":0.7244094488188977,"duration":0.38541666666666785},{"name":"A#3","midi":58,"time":24.841145833333353,"velocity":0.7244094488188977,"duration":0.19140625},{"name":"C4","midi":60,"time":25.03515625000002,"velocity":0.7244094488188977,"duration":0.19140625},{"name":"F5","midi":77,"time":25.22916666666669,"velocity":0.7244094488188977,"duration":0.3854166666666643},{"name":"D4","midi":62,"time":25.22916666666669,"velocity":0.7244094488188977,"duration":0.19140625},{"name":"F4","midi":65,"time":25.42187500000002,"velocity":0.7244094488188977,"duration":0.19140625},{"name":"A4","midi":69,"time":25.615885416666686,"velocity":0.7244094488188977,"duration":0.38541666666666785},{"name":"C4","midi":60,"time":25.615885416666686,"velocity":0.7244094488188977,"duration":0.19140625},{"name":"F4","midi":65,"time":25.809895833333353,"velocity":0.7244094488188977,"duration":0.19140625},{"name":"C5","midi":72,"time":26.00390625000002,"velocity":0.7244094488188977,"duration":0.09375},{"name":"A#3","midi":58,"time":26.00390625000002,"velocity":0.7244094488188977,"duration":0.19140625},{"name":"A#4","midi":70,"time":26.10026041666669,"velocity":0.7244094488188977,"duration":0.09375},{"name":"A4","midi":69,"time":26.19791666666669,"velocity":0.7244094488188977,"duration":0.09375},{"name":"F4","midi":65,"time":26.19791666666669,"velocity":0.7244094488188977,"duration":0.19140625},{"name":"A#4","midi":70,"time":26.294270833333357,"velocity":0.7244094488188977,"duration":0.09375},{"name":"C5","midi":72,"time":26.39062500000002,"velocity":0.7244094488188977,"duration":0.38541666666666785},{"name":"A3","midi":57,"time":26.39062500000002,"velocity":0.7244094488188977,"duration":0.19140625},{"name":"A#3","midi":58,"time":26.58463541666669,"velocity":0.7244094488188977,"duration":0.19140625},{"name":"D#5","midi":75,"time":26.778645833333357,"velocity":0.7244094488188977,"duration":0.38541666666666785},{"name":"C4","midi":60,"time":26.778645833333357,"velocity":0.7244094488188977,"duration":0.19140625},{"name":"F4","midi":65,"time":26.972656250000025,"velocity":0.7244094488188977,"duration":0.19140625},{"name":"D#5","midi":75,"time":27.166666666666693,"velocity":0.7244094488188977,"duration":0.09375},{"name":"F3","midi":53,"time":27.166666666666693,"velocity":0.7244094488188977,"duration":0.19140625},{"name":"D5","midi":74,"time":27.26302083333336,"velocity":0.7244094488188977,"duration":0.09375},{"name":"D#5","midi":75,"time":27.359375000000025,"velocity":0.7244094488188977,"duration":0.09375},{"name":"F4","midi":65,"time":27.359375000000025,"velocity":0.7244094488188977,"duration":0.19140625},{"name":"D5","midi":74,"time":27.457031250000025,"velocity":0.7244094488188977,"duration":0.09375},{"name":"C5","midi":72,"time":27.553385416666693,"velocity":0.7244094488188977,"duration":0.38541666666666785},{"name":"A3","midi":57,"time":27.553385416666693,"velocity":0.7244094488188977,"duration":0.19140625},{"name":"F4","midi":65,"time":27.74739583333336,"velocity":0.7244094488188977,"duration":0.19140625},{"name":"D5","midi":74,"time":27.94140625000003,"velocity":0.7244094488188977,"duration":0.38541666666666785},{"name":"A#3","midi":58,"time":27.94140625000003,"velocity":0.7244094488188977,"duration":0.19140625},{"name":"C4","midi":60,"time":28.135416666666696,"velocity":0.7244094488188977,"duration":0.19140625},{"name":"F5","midi":77,"time":28.32812500000003,"velocity":0.7244094488188977,"duration":0.38541666666666785},{"name":"D4","midi":62,"time":28.32812500000003,"velocity":0.7244094488188977,"duration":0.19140625},{"name":"F4","midi":65,"time":28.522135416666696,"velocity":0.7244094488188977,"duration":0.19140625},{"name":"D#5","midi":75,"time":28.716145833333364,"velocity":0.7244094488188977,"duration":0.19140625},{"name":"A#3","midi":58,"time":28.716145833333364,"velocity":0.7244094488188977,"duration":0.19140625},{"name":"D5","midi":74,"time":28.910156250000032,"velocity":0.7244094488188977,"duration":0.19140625},{"name":"F4","midi":65,"time":28.910156250000032,"velocity":0.7244094488188977,"duration":0.19140625},{"name":"C5","midi":72,"time":29.1041666666667,"velocity":0.7244094488188977,"duration":0.19140625},{"name":"G#3","midi":56,"time":29.1041666666667,"velocity":0.7244094488188977,"duration":0.19140625},{"name":"A#4","midi":70,"time":29.296875000000032,"velocity":0.7244094488188977,"duration":0.19140625},{"name":"F4","midi":65,"time":29.296875000000032,"velocity":0.7244094488188977,"duration":0.19140625},{"name":"D#5","midi":75,"time":29.4908854166667,"velocity":0.7244094488188977,"duration":0.38541666666666785},{"name":"G3","midi":55,"time":29.4908854166667,"velocity":0.7244094488188977,"duration":0.19140625},{"name":"G#3","midi":56,"time":29.684895833333368,"velocity":0.7244094488188977,"duration":0.19140625},{"name":"G5","midi":79,"time":29.878906250000036,"velocity":0.7244094488188977,"duration":0.38541666666666785},{"name":"A#3","midi":58,"time":29.878906250000036,"velocity":0.7244094488188977,"duration":0.19140625},{"name":"C#4","midi":61,"time":30.072916666666703,"velocity":0.7244094488188977,"duration":0.19140625},{"name":"A#5","midi":82,"time":30.265625000000036,"velocity":0.7244094488188977,"duration":0.7812500000000036},{"name":"G3","midi":55,"time":30.265625000000036,"velocity":0.7244094488188977,"duration":0.19140625},{"name":"C#4","midi":61,"time":30.459635416666703,"velocity":0.7244094488188977,"duration":0.19140625},{"name":"C#5","midi":73,"time":30.65364583333337,"velocity":0.7244094488188977,"duration":0.38541666666666785},{"name":"F3","midi":53,"time":30.65364583333337,"velocity":0.7244094488188977,"duration":0.19140625},{"name":"C#4","midi":61,"time":30.84765625000004,"velocity":0.7244094488188977,"duration":0.19140625},{"name":"C5","midi":72,"time":31.041666666666707,"velocity":0.7244094488188977,"duration":0.28255208333333215},{"name":"E3","midi":52,"time":31.041666666666707,"velocity":0.7244094488188977,"duration":0.3854166666666643},{"name":"A#5","midi":82,"time":31.23437500000004,"velocity":0.7244094488188977,"duration":0.19140625},{"name":"A5","midi":81,"time":31.428385416666703,"velocity":0.7244094488188977,"duration":0.19140625},{"name":"C4","midi":60,"time":31.428385416666703,"velocity":0.7244094488188977,"duration":0.38541666666666785},{"name":"G5","midi":79,"time":31.62239583333337,"velocity":0.7244094488188977,"duration":0.19140625},{"name":"A5","midi":81,"time":31.81640625000004,"velocity":0.7244094488188977,"duration":0.38281250000000355},{"name":"F3","midi":53,"time":31.81640625000004,"velocity":0.7244094488188977,"duration":0.38541666666666785},{"name":"F5","midi":77,"time":32.01041666666671,"velocity":0.7244094488188977,"duration":0.19140625},{"name":"A5","midi":81,"time":32.20312500000004,"velocity":0.7244094488188977,"duration":0.19140625},{"name":"C4","midi":60,"time":32.20312500000004,"velocity":0.7244094488188977,"duration":0.3854166666666643},{"name":"D#5","midi":75,"time":32.39713541666671,"velocity":0.7244094488188977,"duration":0.19140625},{"name":"D5","midi":74,"time":32.59114583333337,"velocity":0.7244094488188977,"duration":0.2825520833333286},{"name":"A#2","midi":46,"time":32.59114583333337,"velocity":0.7244094488188977,"duration":0.3854166666666643},{"name":"G#5","midi":80,"time":32.785156250000036,"velocity":0.7244094488188977,"duration":0.19140625},{"name":"G5","midi":79,"time":32.9791666666667,"velocity":0.7244094488188977,"duration":0.19140625},{"name":"A#3","midi":58,"time":32.9791666666667,"velocity":0.7244094488188977,"duration":0.3854166666666714},{"name":"F5","midi":77,"time":33.171875000000036,"velocity":0.7244094488188977,"duration":0.19140625},{"name":"G5","midi":79,"time":33.36588541666671,"velocity":0.7244094488188977,"duration":0.3828125},{"name":"D#3","midi":51,"time":33.36588541666671,"velocity":0.7244094488188977,"duration":0.3854166666666643},{"name":"D#5","midi":75,"time":33.55989583333337,"velocity":0.7244094488188977,"duration":0.19140625},{"name":"G5","midi":79,"time":33.753906250000036,"velocity":0.7244094488188977,"duration":0.3828125},{"name":"A#3","midi":58,"time":33.753906250000036,"velocity":0.7244094488188977,"duration":0.3854166666666643},{"name":"D5","midi":74,"time":33.9479166666667,"velocity":0.7244094488188977,"duration":0.19140625},{"name":"C5","midi":72,"time":34.140625000000036,"velocity":0.7244094488188977,"duration":0.19140625},{"name":"A3","midi":57,"time":34.140625000000036,"velocity":0.7244094488188977,"duration":0.19140625},{"name":"D5","midi":74,"time":34.3346354166667,"velocity":0.7244094488188977,"duration":0.19140625},{"name":"A#3","midi":58,"time":34.3346354166667,"velocity":0.7244094488188977,"duration":0.19140625},{"name":"D#5","midi":75,"time":34.528645833333364,"velocity":0.7244094488188977,"duration":0.5651041666666643},{"name":"C4","midi":60,"time":34.528645833333364,"velocity":0.7244094488188977,"duration":0.19140625},{"name":"A#4","midi":70,"time":34.72265625000003,"velocity":0.7244094488188977,"duration":0.19140625},{"name":"G3","midi":55,"time":34.72265625000003,"velocity":0.7244094488188977,"duration":0.19140625},{"name":"A4","midi":69,"time":34.91666666666669,"velocity":0.7244094488188977,"duration":0.19140625},{"name":"F3","midi":53,"time":34.91666666666669,"velocity":0.7244094488188977,"duration":0.19140625},{"name":"D#5","midi":75,"time":35.10937500000003,"velocity":0.7244094488188977,"duration":0.3828125},{"name":"C4","midi":60,"time":35.10937500000003,"velocity":0.7244094488188977,"duration":0.19140625},{"name":"G4","midi":67,"time":35.30338541666669,"velocity":0.7244094488188977,"duration":0.19140625},{"name":"D#3","midi":51,"time":35.30338541666669,"velocity":0.7244094488188977,"duration":0.19140625},{"name":"D#5","midi":75,"time":35.49739583333336,"velocity":0.7244094488188977,"duration":0.19140625},{"name":"C4","midi":60,"time":35.49739583333336,"velocity":0.7244094488188977,"duration":0.19140625},{"name":"A4","midi":69,"time":35.69140625000002,"velocity":0.7244094488188977,"duration":0.19140625},{"name":"F3","midi":53,"time":35.69140625000002,"velocity":0.7244094488188977,"duration":0.3854166666666643},{"name":"A#4","midi":70,"time":35.885416666666686,"velocity":0.7244094488188977,"duration":0.19140625},{"name":"C5","midi":72,"time":36.07812500000002,"velocity":0.7244094488188977,"duration":0.5651041666666572},{"name":"D#3","midi":51,"time":36.07812500000002,"velocity":0.7244094488188977,"duration":0.3854166666666643},{"name":"G4","midi":67,"time":36.272135416666686,"velocity":0.7244094488188977,"duration":0.19140625},{"name":"F4","midi":65,"time":36.46614583333335,"velocity":0.7244094488188977,"duration":0.19140625},{"name":"D#3","midi":51,"time":36.46614583333335,"velocity":0.7244094488188977,"duration":0.09375},{"name":"D3","midi":50,"time":36.562500000000014,"velocity":0.7244094488188977,"duration":0.09375},{"name":"C5","midi":72,"time":36.660156250000014,"velocity":0.7244094488188977,"duration":0.3828125},{"name":"D#3","midi":51,"time":36.660156250000014,"velocity":0.7244094488188977,"duration":0.09375},{"name":"D3","midi":50,"time":36.75651041666668,"velocity":0.7244094488188977,"duration":0.09375},{"name":"D#4","midi":63,"time":36.85416666666668,"velocity":0.7244094488188977,"duration":0.19140625},{"name":"C3","midi":48,"time":36.85416666666668,"velocity":0.7244094488188977,"duration":0.3854166666666714},{"name":"C5","midi":72,"time":37.046875000000014,"velocity":0.7244094488188977,"duration":0.19140625},{"name":"D4","midi":62,"time":37.240885416666686,"velocity":0.7244094488188977,"duration":0.2825520833333286},{"name":"A#2","midi":46,"time":37.240885416666686,"velocity":0.7244094488188977,"duration":0.3854166666666643},{"name":"A#4","midi":70,"time":37.43489583333335,"velocity":0.7244094488188977,"duration":0.19140625},{"name":"G4","midi":67,"time":37.628906250000014,"velocity":0.7244094488188977,"duration":0.19140625},{"name":"F3","midi":53,"time":37.628906250000014,"velocity":0.7244094488188977,"duration":0.09375},{"name":"D#3","midi":51,"time":37.72526041666668,"velocity":0.7244094488188977,"duration":0.09375},{"name":"D#4","midi":63,"time":37.82291666666668,"velocity":0.7244094488188977,"duration":0.19140625},{"name":"D3","midi":50,"time":37.82291666666668,"velocity":0.7244094488188977,"duration":0.09375},{"name":"D#3","midi":51,"time":37.91927083333334,"velocity":0.7244094488188977,"duration":0.09375},{"name":"D4","midi":62,"time":38.015625000000014,"velocity":0.7244094488188977,"duration":0.2825520833333286},{"name":"F3","midi":53,"time":38.015625000000014,"velocity":0.7244094488188977,"duration":0.3229166666666643},{"name":"A#4","midi":70,"time":38.20963541666668,"velocity":0.7244094488188977,"duration":0.19140625},{"name":"C4","midi":60,"time":38.40364583333334,"velocity":0.7244094488188977,"duration":0.2825520833333286},{"name":"F2","midi":41,"time":38.40364583333334,"velocity":0.7244094488188977,"duration":0.3229166666666643},{"name":"A4","midi":69,"time":38.59765625000001,"velocity":0.7244094488188977,"duration":0.19140625},{"name":"A4","midi":69,"time":38.79166666666667,"velocity":0.7244094488188977,"duration":0.19140625},{"name":"A#4","midi":70,"time":38.98437500000001,"velocity":0.7244094488188977,"duration":0.09375},{"name":"A#2","midi":46,"time":38.98437500000001,"velocity":0.7244094488188977,"duration":0.19140625},{"name":"A4","midi":69,"time":39.10286458333334,"velocity":0.7244094488188977,"duration":0.09375},{"name":"D3","midi":50,"time":39.19921875000001,"velocity":0.7244094488188977,"duration":0.19140625},{"name":"A#4","midi":70,"time":39.19921875000001,"velocity":0.7244094488188977,"duration":0.9661458333333357},{"name":"F3","midi":53,"time":39.41406250000001,"velocity":0.7244094488188977,"duration":0.19140625},{"name":"A#3","midi":58,"time":39.62890625000001,"velocity":0.7244094488188977,"duration":0.7721354166666643},{"name":"F4","midi":65,"time":40.23046875000001,"velocity":0.7244094488188977,"duration":0.19140625},{"name":"F4","midi":65,"time":40.42447916666667,"velocity":0.7244094488188977,"duration":0.19140625},{"name":"A#3","midi":58,"time":40.42447916666667,"velocity":0.7244094488188977,"duration":0.7721354166666643},{"name":"D4","midi":62,"time":40.42447916666667,"velocity":0.7244094488188977,"duration":0.7721354166666643},{"name":"G4","midi":67,"time":40.618489583333336,"velocity":0.7244094488188977,"duration":0.19140625},{"name":"G#4","midi":68,"time":40.8125,"velocity":0.7244094488188977,"duration":0.19140625},{"name":"F4","midi":65,"time":41.005208333333336,"velocity":0.7244094488188977,"duration":0.19140625},{"name":"G4","midi":67,"time":41.19921875,"velocity":0.7244094488188977,"duration":0.19140625},{"name":"D#4","midi":63,"time":41.19921875,"velocity":0.7244094488188977,"duration":0.3854166666666643},{"name":"A#4","midi":70,"time":41.393229166666664,"velocity":0.7244094488188977,"duration":0.19140625},{"name":"F4","midi":65,"time":41.58723958333333,"velocity":0.7244094488188977,"duration":0.19140625},{"name":"D4","midi":62,"time":41.58723958333333,"velocity":0.7244094488188977,"duration":0.3854166666666643},{"name":"A#3","midi":58,"time":41.58723958333333,"velocity":0.7244094488188977,"duration":0.3854166666666643},{"name":"A#4","midi":70,"time":41.78124999999999,"velocity":0.7244094488188977,"duration":0.19140625},{"name":"G4","midi":67,"time":41.97395833333333,"velocity":0.7244094488188977,"duration":0.19140625},{"name":"D#4","midi":63,"time":41.97395833333333,"velocity":0.7244094488188977,"duration":0.3854166666666643},{"name":"F4","midi":65,"time":42.16796874999999,"velocity":0.7244094488188977,"duration":0.19140625},{"name":"D#4","midi":63,"time":42.36197916666666,"velocity":0.7244094488188977,"duration":0.19140625},{"name":"A#3","midi":58,"time":42.36197916666666,"velocity":0.7244094488188977,"duration":0.3854166666666643},{"name":"F4","midi":65,"time":42.55598958333332,"velocity":0.7244094488188977,"duration":0.19140625},{"name":"G4","midi":67,"time":42.749999999999986,"velocity":0.7244094488188977,"duration":0.19140625},{"name":"D#3","midi":51,"time":42.749999999999986,"velocity":0.7244094488188977,"duration":0.3854166666666714},{"name":"G#4","midi":68,"time":42.94270833333332,"velocity":0.7244094488188977,"duration":0.19140625},{"name":"A#4","midi":70,"time":43.13671874999999,"velocity":0.7244094488188977,"duration":0.19140625},{"name":"F3","midi":53,"time":43.13671874999999,"velocity":0.7244094488188977,"duration":0.3854166666666643},{"name":"C5","midi":72,"time":43.33072916666666,"velocity":0.7244094488188977,"duration":0.19140625},{"name":"C#5","midi":73,"time":43.52473958333332,"velocity":0.7244094488188977,"duration":0.19140625},{"name":"G3","midi":55,"time":43.52473958333332,"velocity":0.7244094488188977,"duration":1.160156249999993},{"name":"D#5","midi":75,"time":43.718749999999986,"velocity":0.7244094488188977,"duration":0.19140625},{"name":"F5","midi":77,"time":43.91145833333332,"velocity":0.7244094488188977,"duration":0.19140625},{"name":"A#3","midi":58,"time":43.91145833333332,"velocity":0.7244094488188977,"duration":0.3854166666666643},{"name":"C#5","midi":73,"time":44.105468749999986,"velocity":0.7244094488188977,"duration":0.19140625},{"name":"A#4","midi":70,"time":44.29947916666665,"velocity":0.7244094488188977,"duration":0.19140625},{"name":"D#4","midi":63,"time":44.29947916666665,"velocity":0.7244094488188977,"duration":0.7669270833333286},{"name":"C#5","midi":73,"time":44.493489583333314,"velocity":0.7244094488188977,"duration":0.19140625},{"name":"G4","midi":67,"time":44.68749999999998,"velocity":0.7244094488188977,"duration":0.19140625},{"name":"D#3","midi":51,"time":44.68749999999998,"velocity":0.7244094488188977,"duration":0.3854166666666714},{"name":"C#5","midi":73,"time":44.880208333333314,"velocity":0.7244094488188977,"duration":0.19140625},{"name":"C5","midi":72,"time":45.074218749999986,"velocity":0.7244094488188977,"duration":0.19140625},{"name":"G#3","midi":56,"time":45.074218749999986,"velocity":0.7244094488188977,"duration":0.3854166666666643},{"name":"A#4","midi":70,"time":45.26822916666665,"velocity":0.7244094488188977,"duration":0.19140625},{"name":"G#4","midi":68,"time":45.462239583333314,"velocity":0.7244094488188977,"duration":0.19140625},{"name":"C4","midi":60,"time":45.462239583333314,"velocity":0.7244094488188977,"duration":0.3854166666666643},{"name":"A#4","midi":70,"time":45.65624999999998,"velocity":0.7244094488188977,"duration":0.19140625},{"name":"C5","midi":72,"time":45.848958333333314,"velocity":0.7244094488188977,"duration":0.19140625},{"name":"G#3","midi":56,"time":45.848958333333314,"velocity":0.7244094488188977,"duration":0.3854166666666643},{"name":"D5","midi":74,"time":46.04296874999998,"velocity":0.7244094488188977,"duration":0.19140625},{"name":"E5","midi":76,"time":46.23697916666664,"velocity":0.7244094488188977,"duration":0.19140625},{"name":"F3","midi":53,"time":46.23697916666664,"velocity":0.7244094488188977,"duration":0.3854166666666643},{"name":"F5","midi":77,"time":46.43098958333331,"velocity":0.7244094488188977,"duration":0.19140625},{"name":"G5","midi":79,"time":46.62499999999997,"velocity":0.7244094488188977,"duration":0.19140625},{"name":"E3","midi":52,"time":46.62499999999997,"velocity":0.7244094488188977,"duration":0.3854166666666714},{"name":"G#5","midi":80,"time":46.81770833333331,"velocity":0.7244094488188977,"duration":0.19140625},{"name":"A#5","midi":82,"time":47.01171874999998,"velocity":0.7244094488188977,"duration":0.19140625},{"name":"C4","midi":60,"time":47.01171874999998,"velocity":0.7244094488188977,"duration":0.3854166666666643},{"name":"G5","midi":79,"time":47.20572916666664,"velocity":0.7244094488188977,"duration":0.19140625},{"name":"G#5","midi":80,"time":47.39973958333331,"velocity":0.7244094488188977,"duration":0.2825520833333286},{"name":"C3","midi":48,"time":47.39973958333331,"velocity":0.7244094488188977,"duration":0.3854166666666643},{"name":"C6","midi":84,"time":47.59374999999997,"velocity":0.7244094488188977,"duration":0.19140625},{"name":"G5","midi":79,"time":47.78645833333331,"velocity":0.7244094488188977,"duration":0.2825520833333286},{"name":"C4","midi":60,"time":47.78645833333331,"velocity":0.7244094488188977,"duration":0.3854166666666643},{"name":"C6","midi":84,"time":47.98046874999997,"velocity":0.7244094488188977,"duration":0.19140625},{"name":"G#5","midi":80,"time":48.174479166666636,"velocity":0.7244094488188977,"duration":0.19140625},{"name":"F3","midi":53,"time":48.174479166666636,"velocity":0.7244094488188977,"duration":0.3854166666666643},{"name":"A#5","midi":82,"time":48.3684895833333,"velocity":0.7244094488188977,"duration":0.19140625},{"name":"C6","midi":84,"time":48.562499999999964,"velocity":0.7244094488188977,"duration":0.19140625},{"name":"G#3","midi":56,"time":48.562499999999964,"velocity":0.7244094488188977,"duration":0.3854166666666714},{"name":"G#5","midi":80,"time":48.7552083333333,"velocity":0.7244094488188977,"duration":0.19140625},{"name":"G5","midi":79,"time":48.94921874999997,"velocity":0.7244094488188977,"duration":0.2825520833333286},{"name":"C#4","midi":61,"time":48.94921874999997,"velocity":0.7244094488188977,"duration":0.3854166666666643},{"name":"A#5","midi":82,"time":49.143229166666636,"velocity":0.7244094488188977,"duration":0.19140625},{"name":"F5","midi":77,"time":49.3372395833333,"velocity":0.7244094488188977,"duration":0.2825520833333286},{"name":"A#3","midi":58,"time":49.3372395833333,"velocity":0.7244094488188977,"duration":0.3854166666666643},{"name":"A#5","midi":82,"time":49.531249999999964,"velocity":0.7244094488188977,"duration":0.19140625},{"name":"E5","midi":76,"time":49.7239583333333,"velocity":0.7244094488188977,"duration":0.19140625},{"name":"C4","midi":60,"time":49.7239583333333,"velocity":0.7244094488188977,"duration":0.3854166666666643},{"name":"F5","midi":77,"time":49.917968749999964,"velocity":0.7244094488188977,"duration":0.19140625},{"name":"G5","midi":79,"time":50.11197916666663,"velocity":0.7244094488188977,"duration":0.19140625},{"name":"E4","midi":64,"time":50.11197916666663,"velocity":0.7244094488188977,"duration":0.3854166666666643},{"name":"E5","midi":76,"time":50.30598958333329,"velocity":0.7244094488188977,"duration":0.19140625},{"name":"C5","midi":72,"time":50.49999999999996,"velocity":0.7244094488188977,"duration":0.2825520833333357},{"name":"G4","midi":67,"time":50.49999999999996,"velocity":0.7244094488188977,"duration":0.3854166666666714},{"name":"E5","midi":76,"time":50.69270833333329,"velocity":0.7244094488188977,"duration":0.19140625},{"name":"A#4","midi":70,"time":50.886718749999964,"velocity":0.7244094488188977,"duration":0.2825520833333286},{"name":"C4","midi":60,"time":50.886718749999964,"velocity":0.7244094488188977,"duration":0.3854166666666643},{"name":"E5","midi":76,"time":51.08072916666663,"velocity":0.7244094488188977,"duration":0.19140625},{"name":"G#4","midi":68,"time":51.27473958333329,"velocity":0.7244094488188977,"duration":0.19140625},{"name":"F4","midi":65,"time":51.27473958333329,"velocity":0.7244094488188977,"duration":0.3854166666666643},{"name":"C5","midi":72,"time":51.46874999999996,"velocity":0.7244094488188977,"duration":0.19140625},{"name":"F5","midi":77,"time":51.66145833333329,"velocity":0.7244094488188977,"duration":0.19140625},{"name":"F3","midi":53,"time":51.66145833333329,"velocity":0.7244094488188977,"duration":0.3854166666666643},{"name":"D#5","midi":75,"time":51.85546874999996,"velocity":0.7244094488188977,"duration":0.19140625},{"name":"C#5","midi":73,"time":52.04947916666662,"velocity":0.7244094488188977,"duration":0.2825520833333286},{"name":"G3","midi":55,"time":52.04947916666662,"velocity":0.7244094488188977,"duration":0.3854166666666643},{"name":"F5","midi":77,"time":52.243489583333286,"velocity":0.7244094488188977,"duration":0.19140625},{"name":"C5","midi":72,"time":52.43749999999995,"velocity":0.7244094488188977,"duration":0.2825520833333357},{"name":"A3","midi":57,"time":52.43749999999995,"velocity":0.7244094488188977,"duration":0.3854166666666714},{"name":"F5","midi":77,"time":52.630208333333286,"velocity":0.7244094488188977,"duration":0.19140625},{"name":"C#5","midi":73,"time":52.82421874999996,"velocity":0.7244094488188977,"duration":0.3854166666666643},{"name":"A#3","midi":58,"time":52.82421874999996,"velocity":0.7244094488188977,"duration":0.19140625},{"name":"F4","midi":65,"time":53.01822916666662,"velocity":0.7244094488188977,"duration":0.19140625},{"name":"C5","midi":72,"time":53.212239583333286,"velocity":0.7244094488188977,"duration":0.3854166666666643},{"name":"G#3","midi":56,"time":53.212239583333286,"velocity":0.7244094488188977,"duration":0.19140625},{"name":"F4","midi":65,"time":53.40624999999995,"velocity":0.7244094488188977,"duration":0.19140625},{"name":"A#4","midi":70,"time":53.598958333333286,"velocity":0.7244094488188977,"duration":0.3854166666666643},{"name":"G3","midi":55,"time":53.598958333333286,"velocity":0.7244094488188977,"duration":0.19140625},{"name":"F4","midi":65,"time":53.79296874999995,"velocity":0.7244094488188977,"duration":0.19140625},{"name":"F5","midi":77,"time":53.986979166666615,"velocity":0.7244094488188977,"duration":0.3854166666666643},{"name":"A#3","midi":58,"time":53.986979166666615,"velocity":0.7244094488188977,"duration":0.19140625},{"name":"F4","midi":65,"time":54.18098958333328,"velocity":0.7244094488188977,"duration":0.19140625},{"name":"C5","midi":72,"time":54.37499999999994,"velocity":0.7244094488188977,"duration":0.3854166666666714},{"name":"G#3","midi":56,"time":54.37499999999994,"velocity":0.7244094488188977,"duration":0.19140625},{"name":"F4","midi":65,"time":54.56770833333328,"velocity":0.7244094488188977,"duration":0.19140625},{"name":"A#4","midi":70,"time":54.76171874999995,"velocity":0.7244094488188977,"duration":0.3854166666666643},{"name":"G3","midi":55,"time":54.76171874999995,"velocity":0.7244094488188977,"duration":0.19140625},{"name":"F4","midi":65,"time":54.955729166666615,"velocity":0.7244094488188977,"duration":0.19140625},{"name":"G#4","midi":68,"time":55.14973958333328,"velocity":0.7244094488188977,"duration":0.19140625},{"name":"F3","midi":53,"time":55.14973958333328,"velocity":0.7244094488188977,"duration":0.3854166666666643},{"name":"C5","midi":72,"time":55.34374999999994,"velocity":0.7244094488188977,"duration":0.19140625},{"name":"F5","midi":77,"time":55.53645833333328,"velocity":0.7244094488188977,"duration":0.19140625},{"name":"G#3","midi":56,"time":55.53645833333328,"velocity":0.7244094488188977,"duration":0.3854166666666643},{"name":"E5","midi":76,"time":55.73046874999994,"velocity":0.7244094488188977,"duration":0.19140625},{"name":"F5","midi":77,"time":55.92447916666661,"velocity":0.7244094488188977,"duration":0.19140625},{"name":"C#3","midi":49,"time":55.92447916666661,"velocity":0.7244094488188977,"duration":0.3854166666666643},{"name":"A#5","midi":82,"time":56.11848958333327,"velocity":0.7244094488188977,"duration":0.19140625},{"name":"G#5","midi":80,"time":56.312499999999936,"velocity":0.7244094488188977,"duration":0.19140625},{"name":"A#3","midi":58,"time":56.312499999999936,"velocity":0.7244094488188977,"duration":0.3854166666666714},{"name":"G5","midi":79,"time":56.50520833333327,"velocity":0.7244094488188977,"duration":0.19140625},{"name":"G#5","midi":80,"time":56.69921874999994,"velocity":0.7244094488188977,"duration":0.19140625},{"name":"C4","midi":60,"time":56.69921874999994,"velocity":0.7244094488188977,"duration":0.3854166666666643},{"name":"F5","midi":77,"time":56.89322916666661,"velocity":0.7244094488188977,"duration":0.19140625},{"name":"C5","midi":72,"time":57.08723958333327,"velocity":0.7244094488188977,"duration":0.19140625},{"name":"C3","midi":48,"time":57.08723958333327,"velocity":0.7244094488188977,"duration":0.3854166666666643},{"name":"E5","midi":76,"time":57.281249999999936,"velocity":0.7244094488188977,"duration":0.19140625},{"name":"E5","midi":76,"time":57.47395833333327,"velocity":0.7244094488188977,"duration":0.19140625},{"name":"F3","midi":53,"time":57.47395833333327,"velocity":0.7244094488188977,"duration":0.19140625},{"name":"F5","midi":77,"time":57.667968749999936,"velocity":0.7244094488188977,"duration":0.09375},{"name":"G3","midi":55,"time":57.667968749999936,"velocity":0.7244094488188977,"duration":0.19140625},{"name":"E5","midi":76,"time":57.765624999999936,"velocity":0.7244094488188977,"duration":0.09375},{"name":"F5","midi":77,"time":57.8619791666666,"velocity":0.7244094488188977,"duration":0.7721354166666643},{"name":"G#3","midi":56,"time":57.8619791666666,"velocity":0.7244094488188977,"duration":0.19140625},{"name":"G3","midi":55,"time":58.055989583333265,"velocity":0.7244094488188977,"duration":0.19140625},{"name":"F3","midi":53,"time":58.24999999999993,"velocity":0.7244094488188977,"duration":0.19140625},{"name":"G#3","midi":56,"time":58.442708333333265,"velocity":0.7244094488188977,"duration":0.19140625},{"name":"F5","midi":77,"time":58.63671874999993,"velocity":0.7244094488188977,"duration":0.3854166666666643},{"name":"D#3","midi":51,"time":58.63671874999993,"velocity":0.7244094488188977,"duration":0.19140625},{"name":"G#3","midi":56,"time":58.83072916666659,"velocity":0.7244094488188977,"duration":0.19140625},{"name":"A#4","midi":70,"time":59.02473958333326,"velocity":0.7244094488188977,"duration":0.3854166666666643},{"name":"D3","midi":50,"time":59.02473958333326,"velocity":0.7244094488188977,"duration":0.19140625},{"name":"D#3","midi":51,"time":59.21874999999992,"velocity":0.7244094488188977,"duration":0.19140625},{"name":"A#5","midi":82,"time":59.41145833333326,"velocity":0.7244094488188977,"duration":0.09375},{"name":"F3","midi":53,"time":59.41145833333326,"velocity":0.7244094488188977,"duration":0.19140625},{"name":"G#5","midi":80,"time":59.52864583333326,"velocity":0.7244094488188977,"duration":0.09375},{"name":"D3","midi":50,"time":59.60546874999992,"velocity":0.7244094488188977,"duration":0.19140625},{"name":"G5","midi":79,"time":59.64583333333326,"velocity":0.7244094488188977,"duration":0.09375},{"name":"G#5","midi":80,"time":59.76302083333326,"velocity":0.7244094488188977,"duration":0.4036458333333286},{"name":"A#2","midi":46,"time":59.799479166666586,"velocity":0.7244094488188977,"duration":0.19140625},{"name":"F3","midi":53,"time":59.99348958333325,"velocity":0.7244094488188977,"duration":0.19140625},{"name":"G5","midi":79,"time":60.187499999999915,"velocity":0.7244094488188977,"duration":0.19140625},{"name":"D3","midi":50,"time":60.187499999999915,"velocity":0.7244094488188977,"duration":0.19140625},{"name":"F5","midi":77,"time":60.38020833333325,"velocity":0.7244094488188977,"duration":0.19140625},{"name":"F3","midi":53,"time":60.38020833333325,"velocity":0.7244094488188977,"duration":0.19140625},{"name":"G5","midi":79,"time":60.574218749999915,"velocity":0.7244094488188977,"duration":0.19140625},{"name":"D#3","midi":51,"time":60.574218749999915,"velocity":0.7244094488188977,"duration":0.19140625},{"name":"G#5","midi":80,"time":60.76822916666658,"velocity":0.7244094488188977,"duration":0.19140625},{"name":"F3","midi":53,"time":60.76822916666658,"velocity":0.7244094488188977,"duration":0.19140625},{"name":"A#5","midi":82,"time":60.96223958333324,"velocity":0.7244094488188977,"duration":0.19140625},{"name":"G3","midi":55,"time":60.96223958333324,"velocity":0.7244094488188977,"duration":0.19140625},{"name":"G#5","midi":80,"time":61.15624999999991,"velocity":0.7244094488188977,"duration":0.19140625},{"name":"F3","midi":53,"time":61.15624999999991,"velocity":0.7244094488188977,"duration":0.19140625},{"name":"G5","midi":79,"time":61.34895833333324,"velocity":0.7244094488188977,"duration":0.2825520833333286},{"name":"D#3","midi":51,"time":61.34895833333324,"velocity":0.7244094488188977,"duration":0.19140625},{"name":"A#5","midi":82,"time":61.54296874999991,"velocity":0.7244094488188977,"duration":0.19140625},{"name":"G3","midi":55,"time":61.54296874999991,"velocity":0.7244094488188977,"duration":0.19140625},{"name":"F5","midi":77,"time":61.73697916666657,"velocity":0.7244094488188977,"duration":0.2825520833333286},{"name":"C#3","midi":49,"time":61.73697916666657,"velocity":0.7244094488188977,"duration":0.19140625},{"name":"A#5","midi":82,"time":61.930989583333236,"velocity":0.7244094488188977,"duration":0.19140625},{"name":"G3","midi":55,"time":61.930989583333236,"velocity":0.7244094488188977,"duration":0.19140625},{"name":"E5","midi":76,"time":62.1249999999999,"velocity":0.7244094488188977,"duration":0.19140625},{"name":"C3","midi":48,"time":62.1249999999999,"velocity":0.7244094488188977,"duration":0.3854166666666714},{"name":"F5","midi":77,"time":62.317708333333236,"velocity":0.7244094488188977,"duration":0.19140625},{"name":"G5","midi":79,"time":62.51171874999991,"velocity":0.7244094488188977,"duration":0.19140625},{"name":"A#3","midi":58,"time":62.51171874999991,"velocity":0.7244094488188977,"duration":0.7721354166666572},{"name":"E5","midi":76,"time":62.70572916666657,"velocity":0.7244094488188977,"duration":0.19140625},{"name":"C5","midi":72,"time":62.899739583333236,"velocity":0.7244094488188977,"duration":0.2825520833333286},{"name":"G5","midi":79,"time":63.0937499999999,"velocity":0.7244094488188977,"duration":0.19140625},{"name":"E5","midi":76,"time":63.286458333333236,"velocity":0.7244094488188977,"duration":0.2825520833333286},{"name":"G#3","midi":56,"time":63.286458333333236,"velocity":0.7244094488188977,"duration":0.19140625},{"name":"G5","midi":79,"time":63.4804687499999,"velocity":0.7244094488188977,"duration":0.19140625},{"name":"G3","midi":55,"time":63.4804687499999,"velocity":0.7244094488188977,"duration":0.19140625},{"name":"F5","midi":77,"time":63.674479166666565,"velocity":0.7244094488188977,"duration":0.19140625},{"name":"G#3","midi":56,"time":63.674479166666565,"velocity":0.7244094488188977,"duration":0.19140625},{"name":"G5","midi":79,"time":63.86848958333323,"velocity":0.7244094488188977,"duration":0.19140625},{"name":"A#3","midi":58,"time":63.86848958333323,"velocity":0.7244094488188977,"duration":0.19140625},{"name":"G#5","midi":80,"time":64.0624999999999,"velocity":0.7244094488188977,"duration":0.19140625},{"name":"C4","midi":60,"time":64.0624999999999,"velocity":0.7244094488188977,"duration":0.19140625},{"name":"G5","midi":79,"time":64.25520833333323,"velocity":0.7244094488188977,"duration":0.19140625},{"name":"A#3","midi":58,"time":64.25520833333323,"velocity":0.7244094488188977,"duration":0.19140625},{"name":"F5","midi":77,"time":64.4492187499999,"velocity":0.7244094488188977,"duration":0.19140625},{"name":"G#3","midi":56,"time":64.4492187499999,"velocity":0.7244094488188977,"duration":0.19140625},{"name":"G#5","midi":80,"time":64.64322916666657,"velocity":0.7244094488188977,"duration":0.19140625},{"name":"C4","midi":60,"time":64.64322916666657,"velocity":0.7244094488188977,"duration":0.19140625},{"name":"D#5","midi":75,"time":64.83723958333324,"velocity":0.7244094488188977,"duration":0.19140625},{"name":"G3","midi":55,"time":64.83723958333324,"velocity":0.7244094488188977,"duration":0.19140625},{"name":"G#5","midi":80,"time":65.03124999999991,"velocity":0.7244094488188977,"duration":0.19140625},{"name":"C4","midi":60,"time":65.03124999999991,"velocity":0.7244094488188977,"duration":0.19140625},{"name":"D5","midi":74,"time":65.22395833333324,"velocity":0.7244094488188977,"duration":0.3854166666666714},{"name":"F3","midi":53,"time":65.22395833333324,"velocity":0.7244094488188977,"duration":0.19140625},{"name":"G3","midi":55,"time":65.41796874999991,"velocity":0.7244094488188977,"duration":0.19140625},{"name":"D6","midi":86,"time":65.61197916666659,"velocity":0.7244094488188977,"duration":0.09375},{"name":"G#3","midi":56,"time":65.61197916666659,"velocity":0.7244094488188977,"duration":0.19140625},{"name":"C6","midi":84,"time":65.71744791666659,"velocity":0.7244094488188977,"duration":0.09375},{"name":"G3","midi":55,"time":65.80598958333326,"velocity":0.7244094488188977,"duration":0.19140625},{"name":"B5","midi":83,"time":65.82161458333326,"velocity":0.7244094488188977,"duration":0.09375},{"name":"C6","midi":84,"time":65.92708333333326,"velocity":0.7244094488188977,"duration":0.4036458333333286},{"name":"F3","midi":53,"time":65.99999999999993,"velocity":0.7244094488188977,"duration":0.19140625},{"name":"G#3","midi":56,"time":66.19270833333326,"velocity":0.7244094488188977,"duration":0.19140625},{"name":"A#5","midi":82,"time":66.38671874999993,"velocity":0.7244094488188977,"duration":0.19140625},{"name":"D3","midi":50,"time":66.38671874999993,"velocity":0.7244094488188977,"duration":0.19140625},{"name":"G#5","midi":80,"time":66.5807291666666,"velocity":0.7244094488188977,"duration":0.19140625},{"name":"F3","midi":53,"time":66.5807291666666,"velocity":0.7244094488188977,"duration":0.19140625},{"name":"A#5","midi":82,"time":66.77473958333327,"velocity":0.7244094488188977,"duration":0.3854166666666714},{"name":"G3","midi":55,"time":66.77473958333327,"velocity":0.7244094488188977,"duration":0.19140625},{"name":"G#3","midi":56,"time":66.96874999999994,"velocity":0.7244094488188977,"duration":0.19140625},{"name":"C#5","midi":73,"time":67.16145833333327,"velocity":0.7244094488188977,"duration":0.09375},{"name":"A#3","midi":58,"time":67.16145833333327,"velocity":0.7244094488188977,"duration":0.19140625},{"name":"C5","midi":72,"time":67.25911458333327,"velocity":0.7244094488188977,"duration":0.09375},{"name":"C#5","midi":73,"time":67.35546874999994,"velocity":0.7244094488188977,"duration":0.5807291666666714},{"name":"G#3","midi":56,"time":67.35546874999994,"velocity":0.7244094488188977,"duration":0.19140625},{"name":"G3","midi":55,"time":67.54947916666661,"velocity":0.7244094488188977,"duration":0.19140625},{"name":"A#3","midi":58,"time":67.74348958333329,"velocity":0.7244094488188977,"duration":0.19140625},{"name":"C5","midi":72,"time":67.93749999999994,"velocity":0.7244094488188977,"duration":0.19140625},{"name":"D#3","midi":51,"time":67.93749999999994,"velocity":0.7244094488188977,"duration":0.19140625},{"name":"A#4","midi":70,"time":68.13020833333327,"velocity":0.7244094488188977,"duration":0.19140625},{"name":"G3","midi":55,"time":68.13020833333327,"velocity":0.7244094488188977,"duration":0.19140625},{"name":"C5","midi":72,"time":68.32421874999994,"velocity":0.7244094488188977,"duration":0.19140625},{"name":"G#3","midi":56,"time":68.32421874999994,"velocity":0.7244094488188977,"duration":0.19140625},{"name":"A#5","midi":82,"time":68.51822916666661,"velocity":0.7244094488188977,"duration":0.19140625},{"name":"G3","midi":55,"time":68.51822916666661,"velocity":0.7244094488188977,"duration":0.19140625},{"name":"G#5","midi":80,"time":68.71223958333329,"velocity":0.7244094488188977,"duration":0.19140625},{"name":"F3","midi":53,"time":68.71223958333329,"velocity":0.7244094488188977,"duration":0.19140625},{"name":"G5","midi":79,"time":68.90624999999996,"velocity":0.7244094488188977,"duration":0.19140625},{"name":"G3","midi":55,"time":68.90624999999996,"velocity":0.7244094488188977,"duration":0.19140625},{"name":"F5","midi":77,"time":69.09895833333329,"velocity":0.7244094488188977,"duration":0.19140625},{"name":"G#3","midi":56,"time":69.09895833333329,"velocity":0.7244094488188977,"duration":0.3854166666666714},{"name":"G5","midi":79,"time":69.29296874999996,"velocity":0.7244094488188977,"duration":0.19140625},{"name":"G#5","midi":80,"time":69.48697916666663,"velocity":0.7244094488188977,"duration":0.19140625},{"name":"F3","midi":53,"time":69.48697916666663,"velocity":0.7244094488188977,"duration":0.3854166666666714},{"name":"F5","midi":77,"time":69.6809895833333,"velocity":0.7244094488188977,"duration":0.19140625},{"name":"D#5","midi":75,"time":69.87499999999997,"velocity":0.7244094488188977,"duration":0.19140625},{"name":"A#3","midi":58,"time":69.87499999999997,"velocity":0.7244094488188977,"duration":0.09375},{"name":"G#3","midi":56,"time":69.97135416666664,"velocity":0.7244094488188977,"duration":0.09375},{"name":"D5","midi":74,"time":70.0677083333333,"velocity":0.7244094488188977,"duration":0.19140625},{"name":"A#3","midi":58,"time":70.0677083333333,"velocity":0.7244094488188977,"duration":1.1601562500000142},{"name":"D#5","midi":75,"time":70.26171874999997,"velocity":0.7244094488188977,"duration":0.19140625},{"name":"A#2","midi":46,"time":70.26171874999997,"velocity":0.7244094488188977,"duration":0.3854166666666714},{"name":"F5","midi":77,"time":70.45572916666664,"velocity":0.7244094488188977,"duration":0.19140625},{"name":"A#4","midi":70,"time":70.64973958333331,"velocity":0.7244094488188977,"duration":0.19140625},{"name":"D3","midi":50,"time":70.64973958333331,"velocity":0.7244094488188977,"duration":0.3854166666666714},{"name":"F5","midi":77,"time":70.84374999999999,"velocity":0.7244094488188977,"duration":0.19140625},{"name":"G#4","midi":68,"time":71.03645833333331,"velocity":0.7244094488188977,"duration":0.19140625},{"name":"A#2","midi":46,"time":71.03645833333331,"velocity":0.7244094488188977,"duration":0.3854166666666714},{"name":"F5","midi":77,"time":71.23046874999999,"velocity":0.7244094488188977,"duration":0.19140625},{"name":"G4","midi":67,"time":71.42447916666666,"velocity":0.7244094488188977,"duration":0.19140625},{"name":"D#3","midi":51,"time":71.42447916666666,"velocity":0.7244094488188977,"duration":0.3528645833333428},{"name":"G#4","midi":68,"time":71.61848958333333,"velocity":0.7244094488188977,"duration":0.19140625},{"name":"G3","midi":55,"time":71.8125,"velocity":0.7244094488188977,"duration":0.3528645833333286},{"name":"A#4","midi":70,"time":71.8125,"velocity":0.7244094488188977,"duration":0.2825520833333286},{"name":"D#5","midi":75,"time":72.00520833333333,"velocity":0.7244094488188977,"duration":0.19140625},{"name":"G#4","midi":68,"time":72.19921875,"velocity":0.7244094488188977,"duration":0.2825520833333428},{"name":"G3","midi":55,"time":72.19921875,"velocity":0.7244094488188977,"duration":0.09375},{"name":"F3","midi":53,"time":72.296875,"velocity":0.7244094488188977,"duration":0.09375},{"name":"D#5","midi":75,"time":72.39322916666667,"velocity":0.7244094488188977,"duration":0.19140625},{"name":"G3","midi":55,"time":72.39322916666667,"velocity":0.7244094488188977,"duration":0.09375},{"name":"F3","midi":53,"time":72.48958333333334,"velocity":0.7244094488188977,"duration":0.09375},{"name":"G4","midi":67,"time":72.58723958333334,"velocity":0.7244094488188977,"duration":0.2825520833333428},{"name":"D#3","midi":51,"time":72.58723958333334,"velocity":0.7244094488188977,"duration":0.3854166666666714},{"name":"D#5","midi":75,"time":72.78125000000001,"velocity":0.7244094488188977,"duration":0.19140625},{"name":"F4","midi":65,"time":72.97395833333334,"velocity":0.7244094488188977,"duration":0.19140625},{"name":"A#3","midi":58,"time":72.97395833333334,"velocity":0.7244094488188977,"duration":0.3854166666666714},{"name":"G4","midi":67,"time":73.16796875000001,"velocity":0.7244094488188977,"duration":0.19140625},{"name":"G#4","midi":68,"time":73.36197916666669,"velocity":0.7244094488188977,"duration":0.2825520833333428},{"name":"C4","midi":60,"time":73.36197916666669,"velocity":0.7244094488188977,"duration":0.3854166666666714},{"name":"D5","midi":74,"time":73.55598958333336,"velocity":0.7244094488188977,"duration":0.19140625},{"name":"G4","midi":67,"time":73.75000000000003,"velocity":0.7244094488188977,"duration":0.2825520833333428},{"name":"A#3","midi":58,"time":73.75000000000003,"velocity":0.7244094488188977,"duration":0.0924479166666714},{"name":"C4","midi":60,"time":73.8463541666667,"velocity":0.7244094488188977,"duration":0.09375},{"name":"D5","midi":74,"time":73.94270833333337,"velocity":0.7244094488188977,"duration":0.19140625},{"name":"A#3","midi":58,"time":73.94270833333337,"velocity":0.7244094488188977,"duration":0.19140625},{"name":"F4","midi":65,"time":74.13671875000004,"velocity":0.7244094488188977,"duration":0.2825520833333428},{"name":"G#3","midi":56,"time":74.13671875000004,"velocity":0.7244094488188977,"duration":0.3854166666666714},{"name":"D5","midi":74,"time":74.33072916666671,"velocity":0.7244094488188977,"duration":0.19140625},{"name":"D#4","midi":63,"time":74.52473958333339,"velocity":0.7244094488188977,"duration":0.19140625},{"name":"G3","midi":55,"time":74.52473958333339,"velocity":0.7244094488188977,"duration":0.3854166666666714},{"name":"F4","midi":65,"time":74.71875000000006,"velocity":0.7244094488188977,"duration":0.19140625},{"name":"G4","midi":67,"time":74.91145833333339,"velocity":0.7244094488188977,"duration":0.3020833333333428},{"name":"D#3","midi":51,"time":74.91145833333339,"velocity":0.7244094488188977,"duration":0.3854166666666714},{"name":"C#5","midi":73,"time":75.10546875000006,"velocity":0.7244094488188977,"duration":0.19140625},{"name":"G#4","midi":68,"time":75.29947916666673,"velocity":0.7244094488188977,"duration":0.3020833333333428},{"name":"F3","midi":53,"time":75.29947916666673,"velocity":0.7244094488188977,"duration":0.3854166666666714},{"name":"C#5","midi":73,"time":75.4934895833334,"velocity":0.7244094488188977,"duration":0.19140625},{"name":"A#4","midi":70,"time":75.68750000000007,"velocity":0.7244094488188977,"duration":0.19140625},{"name":"G3","midi":55,"time":75.68750000000007,"velocity":0.7244094488188977,"duration":0.3854166666666572},{"name":"C#5","midi":73,"time":75.8802083333334,"velocity":0.7244094488188977,"duration":0.19140625},{"name":"C5","midi":72,"time":76.07421875000006,"velocity":0.7244094488188977,"duration":0.19140625},{"name":"G#3","midi":56,"time":76.07421875000006,"velocity":0.7244094488188977,"duration":0.3854166666666714},{"name":"C#5","midi":73,"time":76.26822916666673,"velocity":0.7244094488188977,"duration":0.19140625},{"name":"D#5","midi":75,"time":76.4622395833334,"velocity":0.7244094488188977,"duration":0.3229166666666714},{"name":"G3","midi":55,"time":76.4622395833334,"velocity":0.7244094488188977,"duration":0.3854166666666714},{"name":"G#5","midi":80,"time":76.65625000000007,"velocity":0.7244094488188977,"duration":0.19140625},{"name":"D5","midi":74,"time":76.8489583333334,"velocity":0.7244094488188977,"duration":0.3229166666666714},{"name":"F3","midi":53,"time":76.8489583333334,"velocity":0.7244094488188977,"duration":0.09375},{"name":"G3","midi":55,"time":76.9466145833334,"velocity":0.7244094488188977,"duration":0.09375},{"name":"G#5","midi":80,"time":77.04296875000007,"velocity":0.7244094488188977,"duration":0.19140625},{"name":"F3","midi":53,"time":77.04296875000007,"velocity":0.7244094488188977,"duration":0.19140625},{"name":"C5","midi":72,"time":77.23697916666674,"velocity":0.7244094488188977,"duration":0.3229166666666714},{"name":"D#3","midi":51,"time":77.23697916666674,"velocity":0.7244094488188977,"duration":0.3854166666666714},{"name":"G#5","midi":80,"time":77.43098958333341,"velocity":0.7244094488188977,"duration":0.19140625},{"name":"A#4","midi":70,"time":77.62500000000009,"velocity":0.7244094488188977,"duration":0.7981770833333428},{"name":"D3","midi":50,"time":77.62500000000009,"velocity":0.7244094488188977,"duration":0.4010416666666714},{"name":"G#5","midi":80,"time":77.82682291666676,"velocity":0.7244094488188977,"duration":0.19921875},{"name":"G5","midi":79,"time":78.02864583333343,"velocity":0.7244094488188977,"duration":0.19921875},{"name":"D#3","midi":51,"time":78.02864583333343,"velocity":0.7244094488188977,"duration":0.4010416666666714},{"name":"F5","midi":77,"time":78.2304687500001,"velocity":0.7244094488188977,"duration":0.19921875},{"name":"G5","midi":79,"time":78.43229166666677,"velocity":0.7244094488188977,"duration":0.2109375000000142},{"name":"A#3","midi":58,"time":78.43229166666677,"velocity":0.7244094488188977,"duration":0.1041666666666714},{"name":"G#3","midi":56,"time":78.53906250000011,"velocity":0.7244094488188977,"duration":0.1041666666666714},{"name":"D#5","midi":75,"time":78.64583333333346,"velocity":0.7244094488188977,"duration":0.2135416666666714},{"name":"A#3","midi":58,"time":78.64583333333346,"velocity":0.7244094488188977,"duration":0.4270833333333428},{"name":"A#4","midi":70,"time":78.8619791666668,"velocity":0.7244094488188977,"duration":0.2135416666666714},{"name":"A#2","midi":46,"time":78.8619791666668,"velocity":0.7244094488188977,"duration":0.4296875000000142},{"name":"D5","midi":74,"time":79.07812500000014,"velocity":0.7244094488188977,"duration":0.2135416666666714},{"name":"D#5","midi":75,"time":79.29296875000014,"velocity":0.7244094488188977,"duration":1.4036458333333428},{"name":"D#2","midi":39,"time":79.29296875000014,"velocity":0.7244094488188977,"duration":1.8020833333333428},{"name":"A#4","midi":70,"time":79.54557291666681,"velocity":0.7244094488188977,"duration":0.3138020833333428},{"name":"G4","midi":67,"time":79.79817708333348,"velocity":0.7244094488188977,"duration":0.8932291666666714},{"name":"A#4","midi":70,"time":80.05078125000016,"velocity":0.7244094488188977,"duration":0.6328125},{"name":"D#4","midi":63,"time":80.30208333333348,"velocity":0.7244094488188977,"duration":0.8580729166666714},{"name":"A#4","midi":70,"time":81.65755208333348,"velocity":0.7244094488188977,"duration":0.20703125},{"name":"D#5","midi":75,"time":81.86848958333348,"velocity":0.7244094488188977,"duration":0.20703125},{"name":"A#3","midi":58,"time":81.86848958333348,"velocity":0.7244094488188977,"duration":0.6106770833333428},{"name":"G3","midi":55,"time":81.86848958333348,"velocity":0.7244094488188977,"duration":0.8294270833333428},{"name":"D#3","midi":51,"time":81.86848958333348,"velocity":0.7244094488188977,"duration":1.4635416666666856},{"name":"D5","midi":74,"time":82.07812500000016,"velocity":0.7244094488188977,"duration":0.20703125},{"name":"D#5","midi":75,"time":82.28776041666683,"velocity":0.7244094488188977,"duration":0.20703125},{"name":"G5","midi":79,"time":82.4973958333335,"velocity":0.7244094488188977,"duration":0.20703125},{"name":"G#4","midi":68,"time":82.70703125000017,"velocity":0.7244094488188977,"duration":0.20703125},{"name":"C5","midi":72,"time":82.91666666666684,"velocity":0.7244094488188977,"duration":0.20703125},{"name":"A#4","midi":70,"time":83.12500000000017,"velocity":0.7244094488188977,"duration":0.20703125},{"name":"G#4","midi":68,"time":83.33463541666684,"velocity":0.7244094488188977,"duration":0.20703125},{"name":"A#3","midi":58,"time":83.33463541666684,"velocity":0.7244094488188977,"duration":0.20703125},{"name":"G4","midi":67,"time":83.54427083333351,"velocity":0.7244094488188977,"duration":0.6263020833333428},{"name":"D#4","midi":63,"time":83.54427083333351,"velocity":0.7244094488188977,"duration":0.20703125},{"name":"D4","midi":62,"time":83.75520833333351,"velocity":0.7244094488188977,"duration":0.20703125},{"name":"D#4","midi":63,"time":83.96484375000018,"velocity":0.7244094488188977,"duration":0.20703125},{"name":"A#4","midi":70,"time":84.17447916666686,"velocity":0.7244094488188977,"duration":0.20703125},{"name":"G4","midi":67,"time":84.17447916666686,"velocity":0.7244094488188977,"duration":0.20703125},{"name":"D#4","midi":63,"time":84.38411458333353,"velocity":0.7244094488188977,"duration":0.3111979166666714},{"name":"G#3","midi":56,"time":84.38411458333353,"velocity":0.7244094488188977,"duration":0.20703125},{"name":"C4","midi":60,"time":84.5937500000002,"velocity":0.7244094488188977,"duration":0.20703125},{"name":"D4","midi":62,"time":84.6992187500002,"velocity":0.7244094488188977,"duration":0.3111979166666714},{"name":"A#3","midi":58,"time":84.80338541666687,"velocity":0.7244094488188977,"duration":0.20703125},{"name":"F4","midi":65,"time":85.01302083333354,"velocity":0.7244094488188977,"duration":0.20703125},{"name":"G#3","midi":56,"time":85.01302083333354,"velocity":0.7244094488188977,"duration":0.20703125},{"name":"A#4","midi":70,"time":85.22135416666687,"velocity":0.7244094488188977,"duration":0.20703125},{"name":"G3","midi":55,"time":85.22135416666687,"velocity":0.7244094488188977,"duration":0.6263020833333428},{"name":"G#4","midi":68,"time":85.43098958333354,"velocity":0.7244094488188977,"duration":0.20703125},{"name":"A#4","midi":70,"time":85.64192708333354,"velocity":0.7244094488188977,"duration":0.20703125},{"name":"D#5","midi":75,"time":85.85156250000021,"velocity":0.7244094488188977,"duration":0.20703125},{"name":"C4","midi":60,"time":85.85156250000021,"velocity":0.7244094488188977,"duration":0.20703125},{"name":"F4","midi":65,"time":86.06119791666688,"velocity":0.7244094488188977,"duration":0.20703125},{"name":"A#3","midi":58,"time":86.06119791666688,"velocity":0.7244094488188977,"duration":0.4166666666666714},{"name":"G#4","midi":68,"time":86.27083333333356,"velocity":0.7244094488188977,"duration":0.20703125},{"name":"G4","midi":67,"time":86.48046875000023,"velocity":0.7244094488188977,"duration":0.20703125},{"name":"G#3","midi":56,"time":86.48046875000023,"velocity":0.7244094488188977,"duration":1.0442708333333428},{"name":"F4","midi":65,"time":86.6901041666669,"velocity":0.7244094488188977,"duration":0.20703125},{"name":"D#4","midi":63,"time":86.89973958333357,"velocity":0.7244094488188977,"duration":0.20703125},{"name":"D4","midi":62,"time":87.10937500000024,"velocity":0.7244094488188977,"duration":0.20703125},{"name":"C4","midi":60,"time":87.31770833333357,"velocity":0.7244094488188977,"duration":0.20703125},{"name":"D4","midi":62,"time":87.52864583333357,"velocity":0.7244094488188977,"duration":0.20703125},{"name":"F3","midi":53,"time":87.52864583333357,"velocity":0.7244094488188977,"duration":0.20703125},{"name":"A#3","midi":58,"time":87.73828125000024,"velocity":0.7244094488188977,"duration":0.20703125},{"name":"D#3","midi":51,"time":87.73828125000024,"velocity":0.7244094488188977,"duration":0.20703125},{"name":"D4","midi":62,"time":87.94791666666691,"velocity":0.7244094488188977,"duration":0.20703125},{"name":"D3","midi":50,"time":87.94791666666691,"velocity":0.7244094488188977,"duration":0.20703125},{"name":"F4","midi":65,"time":88.15755208333358,"velocity":0.7244094488188977,"duration":0.20703125},{"name":"C3","midi":48,"time":88.15755208333358,"velocity":0.7244094488188977,"duration":0.20703125},{"name":"G#4","midi":68,"time":88.36718750000026,"velocity":0.7244094488188977,"duration":0.20703125},{"name":"A#2","midi":46,"time":88.36718750000026,"velocity":0.7244094488188977,"duration":0.20703125},{"name":"G4","midi":67,"time":88.57682291666693,"velocity":0.7244094488188977,"duration":0.20703125},{"name":"D#3","midi":51,"time":88.57682291666693,"velocity":0.7244094488188977,"duration":0.20703125},{"name":"D4","midi":62,"time":88.7864583333336,"velocity":0.7244094488188977,"duration":0.20703125},{"name":"F3","midi":53,"time":88.7864583333336,"velocity":0.7244094488188977,"duration":0.20703125},{"name":"D#4","midi":63,"time":88.99609375000027,"velocity":0.7244094488188977,"duration":0.3736979166666572},{"name":"G3","midi":55,"time":88.99609375000027,"velocity":0.7244094488188977,"duration":0.6302083333333286},{"name":"C5","midi":72,"time":89.2083333333336,"velocity":0.7244094488188977,"duration":0.2083333333333286},{"name":"A#4","midi":70,"time":89.42057291666693,"velocity":0.7244094488188977,"duration":0.20703125},{"name":"F4","midi":65,"time":89.62890625000026,"velocity":0.7244094488188977,"duration":0.20703125},{"name":"D3","midi":50,"time":89.62890625000026,"velocity":0.7244094488188977,"duration":0.20703125},{"name":"G4","midi":67,"time":89.83854166666693,"velocity":0.7244094488188977,"duration":0.3502604166666714},{"name":"D#3","midi":51,"time":89.83854166666693,"velocity":0.7244094488188977,"duration":0.20703125},{"name":"D#5","midi":75,"time":90.0481770833336,"velocity":0.7244094488188977,"duration":0.2083333333333286},{"name":"G3","midi":55,"time":90.0481770833336,"velocity":0.7244094488188977,"duration":0.2083333333333286},{"name":"D5","midi":74,"time":90.26041666666693,"velocity":0.7244094488188977,"duration":0.20703125},{"name":"A#3","midi":58,"time":90.26041666666693,"velocity":0.7244094488188977,"duration":0.20703125},{"name":"A4","midi":69,"time":90.47135416666693,"velocity":0.7244094488188977,"duration":0.20703125},{"name":"C4","midi":60,"time":90.47135416666693,"velocity":0.7244094488188977,"duration":0.20703125},{"name":"A#4","midi":70,"time":90.6809895833336,"velocity":0.7244094488188977,"duration":0.328125},{"name":"D4","midi":62,"time":90.6809895833336,"velocity":0.7244094488188977,"duration":0.6276041666666714},{"name":"G5","midi":79,"time":90.8919270833336,"velocity":0.7244094488188977,"duration":0.20703125},{"name":"F5","midi":77,"time":91.10156250000027,"velocity":0.7244094488188977,"duration":0.20703125},{"name":"C5","midi":72,"time":91.31119791666694,"velocity":0.7244094488188977,"duration":0.20703125},{"name":"A3","midi":57,"time":91.31119791666694,"velocity":0.7244094488188977,"duration":0.20703125},{"name":"D5","midi":74,"time":91.52083333333361,"velocity":0.7244094488188977,"duration":0.3046875},{"name":"A#3","midi":58,"time":91.52083333333361,"velocity":0.7244094488188977,"duration":0.20703125},{"name":"G#5","midi":80,"time":91.73046875000028,"velocity":0.7244094488188977,"duration":0.20703125},{"name":"D4","midi":62,"time":91.73046875000028,"velocity":0.7244094488188977,"duration":0.20703125},{"name":"G5","midi":79,"time":91.93880208333361,"velocity":0.7244094488188977,"duration":0.20703125},{"name":"D#4","midi":63,"time":91.93880208333361,"velocity":0.7244094488188977,"duration":0.20703125},{"name":"F5","midi":77,"time":92.14843750000028,"velocity":0.7244094488188977,"duration":0.20703125},{"name":"D4","midi":62,"time":92.14843750000028,"velocity":0.7244094488188977,"duration":0.20703125},{"name":"G5","midi":79,"time":92.35937500000028,"velocity":0.7244094488188977,"duration":0.20703125},{"name":"D#4","midi":63,"time":92.35937500000028,"velocity":0.7244094488188977,"duration":0.20703125},{"name":"A#5","midi":82,"time":92.56901041666696,"velocity":0.7244094488188977,"duration":0.20703125},{"name":"G4","midi":67,"time":92.56901041666696,"velocity":0.7244094488188977,"duration":0.20703125},{"name":"C5","midi":72,"time":92.77864583333363,"velocity":0.7244094488188977,"duration":0.20703125},{"name":"G#3","midi":56,"time":92.77864583333363,"velocity":0.7244094488188977,"duration":0.20703125},{"name":"D#5","midi":75,"time":92.9882812500003,"velocity":0.7244094488188977,"duration":0.20703125},{"name":"C4","midi":60,"time":92.9882812500003,"velocity":0.7244094488188977,"duration":0.20703125},{"name":"F5","midi":77,"time":93.19791666666697,"velocity":0.7244094488188977,"duration":0.20703125},{"name":"D4","midi":62,"time":93.19791666666697,"velocity":0.7244094488188977,"duration":0.20703125},{"name":"G5","midi":79,"time":93.40755208333364,"velocity":0.7244094488188977,"duration":0.20703125},{"name":"D#4","midi":63,"time":93.40755208333364,"velocity":0.7244094488188977,"duration":0.20703125},{"name":"G#5","midi":80,"time":93.61718750000031,"velocity":0.7244094488188977,"duration":0.20703125},{"name":"F4","midi":65,"time":93.61718750000031,"velocity":0.7244094488188977,"duration":0.20703125},{"name":"G5","midi":79,"time":93.82682291666698,"velocity":0.7244094488188977,"duration":0.20703125},{"name":"D#4","midi":63,"time":93.82682291666698,"velocity":0.7244094488188977,"duration":0.20703125},{"name":"G#5","midi":80,"time":94.03515625000031,"velocity":0.7244094488188977,"duration":0.23046875},{"name":"F4","midi":65,"time":94.03515625000031,"velocity":0.7244094488188977,"duration":0.20703125},{"name":"C6","midi":84,"time":94.24609375000031,"velocity":0.7244094488188977,"duration":0.20703125},{"name":"G#4","midi":68,"time":94.24609375000031,"velocity":0.7244094488188977,"duration":0.20703125},{"name":"D5","midi":74,"time":94.45572916666698,"velocity":0.7244094488188977,"duration":0.20703125},{"name":"A#3","midi":58,"time":94.45572916666698,"velocity":0.7244094488188977,"duration":0.20703125},{"name":"F5","midi":77,"time":94.66536458333366,"velocity":0.7244094488188977,"duration":0.20703125},{"name":"D4","midi":62,"time":94.66536458333366,"velocity":0.7244094488188977,"duration":0.20703125},{"name":"G5","midi":79,"time":94.87500000000033,"velocity":0.7244094488188977,"duration":0.20703125},{"name":"D#4","midi":63,"time":94.87500000000033,"velocity":0.7244094488188977,"duration":0.20703125},{"name":"G#5","midi":80,"time":95.084635416667,"velocity":0.7244094488188977,"duration":0.20703125},{"name":"F4","midi":65,"time":95.084635416667,"velocity":0.7244094488188977,"duration":0.20703125},{"name":"A#5","midi":82,"time":95.29427083333367,"velocity":0.7244094488188977,"duration":0.20703125},{"name":"G4","midi":67,"time":95.29427083333367,"velocity":0.7244094488188977,"duration":0.20703125},{"name":"G#5","midi":80,"time":95.50390625000034,"velocity":0.7244094488188977,"duration":0.20703125},{"name":"C5","midi":72,"time":95.50390625000034,"velocity":0.7244094488188977,"duration":0.20703125},{"name":"G5","midi":79,"time":95.71354166666701,"velocity":0.7244094488188977,"duration":0.5221354166666572},{"name":"A#4","midi":70,"time":95.71354166666701,"velocity":0.7244094488188977,"duration":0.20703125},{"name":"D4","midi":62,"time":95.92447916666701,"velocity":0.7244094488188977,"duration":0.20703125},{"name":"D#4","midi":63,"time":96.13281250000034,"velocity":0.7244094488188977,"duration":0.20703125},{"name":"C6","midi":84,"time":96.34244791666701,"velocity":0.7244094488188977,"duration":0.20703125},{"name":"G#4","midi":68,"time":96.34244791666701,"velocity":0.7244094488188977,"duration":0.20703125},{"name":"A#5","midi":82,"time":96.55208333333368,"velocity":0.7244094488188977,"duration":0.20703125},{"name":"G4","midi":67,"time":96.55208333333368,"velocity":0.7244094488188977,"duration":0.20703125},{"name":"G5","midi":79,"time":96.76171875000036,"velocity":0.7244094488188977,"duration":0.20703125},{"name":"A#3","midi":58,"time":96.76171875000036,"velocity":0.7244094488188977,"duration":0.20703125},{"name":"D#5","midi":75,"time":96.97135416666703,"velocity":0.7244094488188977,"duration":0.20703125},{"name":"C4","midi":60,"time":96.97135416666703,"velocity":0.7244094488188977,"duration":0.20703125},{"name":"D5","midi":74,"time":97.1809895833337,"velocity":0.7244094488188977,"duration":0.20703125},{"name":"F4","midi":65,"time":97.1809895833337,"velocity":0.7244094488188977,"duration":0.20703125},{"name":"C5","midi":72,"time":97.39062500000037,"velocity":0.7244094488188977,"duration":0.5221354166666714},{"name":"D#4","midi":63,"time":97.39062500000037,"velocity":0.7244094488188977,"duration":0.20703125},{"name":"G3","midi":55,"time":97.60026041666704,"velocity":0.7244094488188977,"duration":0.20703125},{"name":"G#3","midi":56,"time":97.81119791666704,"velocity":0.7244094488188977,"duration":0.20703125},{"name":"F5","midi":77,"time":98.02083333333371,"velocity":0.7244094488188977,"duration":0.20703125},{"name":"C#4","midi":61,"time":98.02083333333371,"velocity":0.7244094488188977,"duration":0.20703125},{"name":"D#5","midi":75,"time":98.22916666666704,"velocity":0.7244094488188977,"duration":0.20703125},{"name":"C4","midi":60,"time":98.22916666666704,"velocity":0.7244094488188977,"duration":0.20703125},{"name":"C5","midi":72,"time":98.43880208333371,"velocity":0.7244094488188977,"duration":0.20703125},{"name":"D#3","midi":51,"time":98.43880208333371,"velocity":0.7244094488188977,"duration":0.20703125},{"name":"G#4","midi":68,"time":98.64843750000038,"velocity":0.7244094488188977,"duration":0.3072916666666572},{"name":"F3","midi":53,"time":98.64843750000038,"velocity":0.7244094488188977,"duration":0.4179687499999858},{"name":"D5","midi":74,"time":98.86067708333371,"velocity":0.7244094488188977,"duration":0.2070312499999858},{"name":"D#5","midi":75,"time":99.07031250000037,"velocity":0.7244094488188977,"duration":0.3072916666666572},{"name":"G3","midi":55,"time":99.07031250000037,"velocity":0.7244094488188977,"duration":0.4179687499999858},{"name":"G4","midi":67,"time":99.2825520833337,"velocity":0.7244094488188977,"duration":0.2070312499999858},{"name":"F4","midi":65,"time":99.49218750000036,"velocity":0.7244094488188977,"duration":0.2643229166666714},{"name":"G#3","midi":56,"time":99.49218750000036,"velocity":0.7244094488188977,"duration":0.4205729166666714},{"name":"G#4","midi":68,"time":99.70312500000036,"velocity":0.7244094488188977,"duration":0.2083333333333428},{"name":"G4","midi":67,"time":99.9153645833337,"velocity":0.7244094488188977,"duration":0.20703125},{"name":"A#3","midi":58,"time":99.9153645833337,"velocity":0.7244094488188977,"duration":0.4166666666666714},{"name":"D4","midi":62,"time":100.12500000000037,"velocity":0.7244094488188977,"duration":0.20703125},{"name":"D#4","midi":63,"time":100.33463541666704,"velocity":0.7244094488188977,"duration":1.0494791666666714},{"name":"D#3","midi":51,"time":100.33463541666704,"velocity":0.7244094488188977,"duration":1.0494791666666714},{"name":"G#3","midi":56,"time":100.54687500000037,"velocity":0.7244094488188977,"duration":0.20703125},{"name":"A#3","midi":58,"time":100.75651041666704,"velocity":0.7244094488188977,"duration":0.20703125},{"name":"F3","midi":53,"time":100.96614583333371,"velocity":0.7244094488188977,"duration":0.20703125},{"name":"G3","midi":55,"time":101.17578125000038,"velocity":0.7244094488188977,"duration":0.20703125},{"name":"B2","midi":47,"time":101.38541666666704,"velocity":0.7244094488188977,"duration":0.20703125},{"name":"C3","midi":48,"time":101.59505208333371,"velocity":0.7244094488188977,"duration":0.20703125},{"name":"G4","midi":67,"time":101.80468750000038,"velocity":0.7244094488188977,"duration":0.20703125},{"name":"G2","midi":43,"time":101.80468750000038,"velocity":0.7244094488188977,"duration":0.20703125},{"name":"C5","midi":72,"time":102.01302083333371,"velocity":0.7244094488188977,"duration":0.20703125},{"name":"G#2","midi":44,"time":102.01302083333371,"velocity":0.7244094488188977,"duration":0.3932291666666714},{"name":"B4","midi":71,"time":102.22265625000038,"velocity":0.7244094488188977,"duration":0.20703125},{"name":"C5","midi":72,"time":102.43359375000038,"velocity":0.7244094488188977,"duration":0.20703125},{"name":"G#3","midi":56,"time":102.43359375000038,"velocity":0.7244094488188977,"duration":0.3932291666666714},{"name":"D#5","midi":75,"time":102.64322916666706,"velocity":0.7244094488188977,"duration":0.20703125},{"name":"G#5","midi":80,"time":102.85286458333373,"velocity":0.7244094488188977,"duration":0.20703125},{"name":"D3","midi":50,"time":102.85286458333373,"velocity":0.7244094488188977,"duration":0.20703125},{"name":"G5","midi":79,"time":103.0625000000004,"velocity":0.7244094488188977,"duration":0.20703125},{"name":"D#3","midi":51,"time":103.0625000000004,"velocity":0.7244094488188977,"duration":0.20703125},{"name":"D5","midi":74,"time":103.27213541666707,"velocity":0.7244094488188977,"duration":0.20703125},{"name":"F3","midi":53,"time":103.27213541666707,"velocity":0.7244094488188977,"duration":0.5885416666666714},{"name":"D#5","midi":75,"time":103.48177083333374,"velocity":0.7244094488188977,"duration":0.20703125},{"name":"B4","midi":71,"time":103.69140625000041,"velocity":0.7244094488188977,"duration":0.20703125},{"name":"A4","midi":69,"time":103.90104166666708,"velocity":0.7244094488188977,"duration":0.20703125},{"name":"C3","midi":48,"time":103.90104166666708,"velocity":0.7244094488188977,"duration":0.20703125},{"name":"B4","midi":71,"time":104.10937500000041,"velocity":0.7244094488188977,"duration":0.20703125},{"name":"D3","midi":50,"time":104.10937500000041,"velocity":0.7244094488188977,"duration":0.20703125},{"name":"D5","midi":74,"time":104.32031250000041,"velocity":0.7244094488188977,"duration":0.20703125},{"name":"F3","midi":53,"time":104.32031250000041,"velocity":0.7244094488188977,"duration":0.20703125},{"name":"G#4","midi":68,"time":104.52994791666708,"velocity":0.7244094488188977,"duration":0.20703125},{"name":"C3","midi":48,"time":104.52994791666708,"velocity":0.7244094488188977,"duration":0.20703125},{"name":"G4","midi":67,"time":104.73958333333375,"velocity":0.7244094488188977,"duration":0.20703125},{"name":"B2","midi":47,"time":104.73958333333375,"velocity":0.7244094488188977,"duration":0.3268229166666714},{"name":"G5","midi":79,"time":104.94921875000043,"velocity":0.7244094488188977,"duration":0.20703125},{"name":"A4","midi":69,"time":105.1588541666671,"velocity":0.7244094488188977,"duration":0.20703125},{"name":"F3","midi":53,"time":105.1588541666671,"velocity":0.7244094488188977,"duration":0.20703125},{"name":"A#4","midi":70,"time":105.36848958333377,"velocity":0.7244094488188977,"duration":0.20703125},{"name":"E3","midi":52,"time":105.36848958333377,"velocity":0.7244094488188977,"duration":0.4166666666666714},{"name":"A4","midi":69,"time":105.57812500000044,"velocity":0.7244094488188977,"duration":0.20703125},{"name":"A#4","midi":70,"time":105.78776041666711,"velocity":0.7244094488188977,"duration":0.20703125},{"name":"G3","midi":55,"time":105.78776041666711,"velocity":0.7244094488188977,"duration":0.4166666666666714},{"name":"C#5","midi":73,"time":105.99869791666711,"velocity":0.7244094488188977,"duration":0.20703125},{"name":"F#5","midi":78,"time":106.20703125000044,"velocity":0.7244094488188977,"duration":0.20703125},{"name":"C3","midi":48,"time":106.20703125000044,"velocity":0.7244094488188977,"duration":0.20703125},{"name":"F5","midi":77,"time":106.41666666666711,"velocity":0.7244094488188977,"duration":0.20703125},{"name":"C#3","midi":49,"time":106.41666666666711,"velocity":0.7244094488188977,"duration":0.20703125},{"name":"C5","midi":72,"time":106.62630208333378,"velocity":0.7244094488188977,"duration":0.20703125},{"name":"D#3","midi":51,"time":106.62630208333378,"velocity":0.7244094488188977,"duration":0.5885416666666714},{"name":"C#5","midi":73,"time":106.83593750000045,"velocity":0.7244094488188977,"duration":0.20703125},{"name":"A4","midi":69,"time":107.04557291666713,"velocity":0.7244094488188977,"duration":0.20703125},{"name":"G4","midi":67,"time":107.2552083333338,"velocity":0.7244094488188977,"duration":0.20703125},{"name":"A#2","midi":46,"time":107.2552083333338,"velocity":0.7244094488188977,"duration":0.20703125},{"name":"A4","midi":69,"time":107.46484375000047,"velocity":0.7244094488188977,"duration":0.20703125},{"name":"C3","midi":48,"time":107.46484375000047,"velocity":0.7244094488188977,"duration":0.20703125},{"name":"C5","midi":72,"time":107.67447916666714,"velocity":0.7244094488188977,"duration":0.20703125},{"name":"D#3","midi":51,"time":107.67447916666714,"velocity":0.7244094488188977,"duration":0.20703125},{"name":"F#4","midi":66,"time":107.88541666666714,"velocity":0.7244094488188977,"duration":0.20703125},{"name":"A#2","midi":46,"time":107.88541666666714,"velocity":0.7244094488188977,"duration":0.20703125},{"name":"F4","midi":65,"time":108.09505208333381,"velocity":0.7244094488188977,"duration":0.20703125},{"name":"A2","midi":45,"time":108.09505208333381,"velocity":0.7244094488188977,"duration":0.3385416666666572},{"name":"D#5","midi":75,"time":108.30338541666714,"velocity":0.7244094488188977,"duration":0.2083333333333286},{"name":"C5","midi":72,"time":108.51562500000047,"velocity":0.7244094488188977,"duration":0.20703125},{"name":"F3","midi":53,"time":108.51562500000047,"velocity":0.7244094488188977,"duration":0.20703125},{"name":"D5","midi":74,"time":108.72526041666714,"velocity":0.7244094488188977,"duration":0.4166666666666714},{"name":"A#3","midi":58,"time":108.72526041666714,"velocity":0.7244094488188977,"duration":0.20703125},{"name":"A3","midi":57,"time":108.93489583333381,"velocity":0.7244094488188977,"duration":0.20703125},{"name":"G5","midi":79,"time":109.14453125000048,"velocity":0.7244094488188977,"duration":0.20703125},{"name":"A#3","midi":58,"time":109.14453125000048,"velocity":0.7244094488188977,"duration":0.20703125},{"name":"F5","midi":77,"time":109.35286458333381,"velocity":0.7244094488188977,"duration":0.20703125},{"name":"D4","midi":62,"time":109.35286458333381,"velocity":0.7244094488188977,"duration":0.20703125},{"name":"D#5","midi":75,"time":109.56250000000048,"velocity":0.7244094488188977,"duration":0.20703125},{"name":"G4","midi":67,"time":109.56250000000048,"velocity":0.7244094488188977,"duration":0.20703125},{"name":"D5","midi":74,"time":109.77343750000048,"velocity":0.7244094488188977,"duration":0.20703125},{"name":"F4","midi":65,"time":109.77343750000048,"velocity":0.7244094488188977,"duration":0.20703125},{"name":"D#5","midi":75,"time":109.98307291666715,"velocity":0.7244094488188977,"duration":0.5885416666666714},{"name":"A3","midi":57,"time":109.98307291666715,"velocity":0.7244094488188977,"duration":0.20703125},{"name":"A#3","midi":58,"time":110.19270833333383,"velocity":0.7244094488188977,"duration":0.20703125},{"name":"A3","midi":57,"time":110.4023437500005,"velocity":0.7244094488188977,"duration":0.20703125},{"name":"A#4","midi":70,"time":110.61197916666717,"velocity":0.7244094488188977,"duration":0.20703125},{"name":"G3","midi":55,"time":110.61197916666717,"velocity":0.7244094488188977,"duration":0.20703125},{"name":"C5","midi":72,"time":110.82161458333384,"velocity":0.7244094488188977,"duration":0.20703125},{"name":"A3","midi":57,"time":110.82161458333384,"velocity":0.7244094488188977,"duration":0.20703125},{"name":"D#5","midi":75,"time":111.03125000000051,"velocity":0.7244094488188977,"duration":0.20703125},{"name":"C4","midi":60,"time":111.03125000000051,"velocity":0.7244094488188977,"duration":0.20703125},{"name":"A#4","midi":70,"time":111.24088541666718,"velocity":0.7244094488188977,"duration":0.20703125},{"name":"F#3","midi":54,"time":111.24088541666718,"velocity":0.7244094488188977,"duration":0.20703125},{"name":"A4","midi":69,"time":111.45052083333385,"velocity":0.7244094488188977,"duration":0.20703125},{"name":"F3","midi":53,"time":111.45052083333385,"velocity":0.7244094488188977,"duration":0.20703125},{"name":"F4","midi":65,"time":111.66015625000053,"velocity":0.7244094488188977,"duration":0.20703125},{"name":"D#5","midi":75,"time":111.8697916666672,"velocity":0.7244094488188977,"duration":0.20703125},{"name":"G3","midi":55,"time":111.8697916666672,"velocity":0.7244094488188977,"duration":0.20703125},{"name":"D5","midi":74,"time":112.07942708333387,"velocity":0.7244094488188977,"duration":0.4166666666666714},{"name":"G#3","midi":56,"time":112.07942708333387,"velocity":0.7244094488188977,"duration":0.20703125},{"name":"G3","midi":55,"time":112.28906250000054,"velocity":0.7244094488188977,"duration":0.20703125},{"name":"F5","midi":77,"time":112.49869791666721,"velocity":0.7244094488188977,"duration":0.20703125},{"name":"G#3","midi":56,"time":112.49869791666721,"velocity":0.7244094488188977,"duration":0.20703125},{"name":"D#5","midi":75,"time":112.70833333333388,"velocity":0.7244094488188977,"duration":0.20703125},{"name":"B3","midi":59,"time":112.70833333333388,"velocity":0.7244094488188977,"duration":0.20703125},{"name":"C#5","midi":73,"time":112.91796875000055,"velocity":0.7244094488188977,"duration":0.20703125},{"name":"E4","midi":64,"time":112.91796875000055,"velocity":0.7244094488188977,"duration":0.20703125},{"name":"C5","midi":72,"time":113.12760416666723,"velocity":0.7244094488188977,"duration":0.20703125},{"name":"D#4","midi":63,"time":113.12760416666723,"velocity":0.7244094488188977,"duration":0.20703125},{"name":"C#5","midi":73,"time":113.33854166666723,"velocity":0.7244094488188977,"duration":0.5885416666666714},{"name":"A#3","midi":58,"time":113.33854166666723,"velocity":0.7244094488188977,"duration":0.20703125},{"name":"B3","midi":59,"time":113.54687500000055,"velocity":0.7244094488188977,"duration":0.20703125},{"name":"G3","midi":55,"time":113.75651041666723,"velocity":0.7244094488188977,"duration":0.20703125},{"name":"G#4","midi":68,"time":113.9661458333339,"velocity":0.7244094488188977,"duration":0.20703125},{"name":"F3","midi":53,"time":113.9661458333339,"velocity":0.7244094488188977,"duration":0.20703125},{"name":"A#4","midi":70,"time":114.17578125000057,"velocity":0.7244094488188977,"duration":0.20703125},{"name":"G3","midi":55,"time":114.17578125000057,"velocity":0.7244094488188977,"duration":0.20703125},{"name":"C#5","midi":73,"time":114.38541666666724,"velocity":0.7244094488188977,"duration":0.20703125},{"name":"A#3","midi":58,"time":114.38541666666724,"velocity":0.7244094488188977,"duration":0.20703125},{"name":"G#4","midi":68,"time":114.59505208333391,"velocity":0.7244094488188977,"duration":0.20703125},{"name":"E3","midi":52,"time":114.59505208333391,"velocity":0.7244094488188977,"duration":0.20703125},{"name":"G4","midi":67,"time":114.80468750000058,"velocity":0.7244094488188977,"duration":0.20703125},{"name":"D#3","midi":51,"time":114.80468750000058,"velocity":0.7244094488188977,"duration":0.20703125},{"name":"C#4","midi":61,"time":115.01432291666725,"velocity":0.7244094488188977,"duration":0.20703125},{"name":"D#5","midi":75,"time":115.22526041666725,"velocity":0.7244094488188977,"duration":0.20703125},{"name":"A#3","midi":58,"time":115.22526041666725,"velocity":0.7244094488188977,"duration":0.20703125},{"name":"A#4","midi":70,"time":115.43489583333393,"velocity":0.7244094488188977,"duration":0.20703125},{"name":"C4","midi":60,"time":115.43489583333393,"velocity":0.7244094488188977,"duration":0.4166666666666572},{"name":"A4","midi":69,"time":115.64322916666725,"velocity":0.7244094488188977,"duration":0.20703125},{"name":"F#5","midi":78,"time":115.85286458333391,"velocity":0.7244094488188977,"duration":0.20703125},{"name":"F3","midi":53,"time":115.85286458333391,"velocity":0.7244094488188977,"duration":0.4166666666666714},{"name":"F5","midi":77,"time":116.06250000000058,"velocity":0.7244094488188977,"duration":0.20703125},{"name":"C5","midi":72,"time":116.27213541666725,"velocity":0.7244094488188977,"duration":0.20703125},{"name":"C#4","midi":61,"time":116.27213541666725,"velocity":0.7244094488188977,"duration":0.4166666666666714},{"name":"A#4","midi":70,"time":116.48177083333393,"velocity":0.7244094488188977,"duration":0.20703125},{"name":"G#5","midi":80,"time":116.6914062500006,"velocity":0.7244094488188977,"duration":0.20703125},{"name":"F3","midi":53,"time":116.6914062500006,"velocity":0.7244094488188977,"duration":0.4166666666666714},{"name":"G5","midi":79,"time":116.9023437500006,"velocity":0.7244094488188977,"duration":0.20703125},{"name":"C#5","midi":73,"time":117.11197916666727,"velocity":0.7244094488188977,"duration":0.20703125},{"name":"D#4","midi":63,"time":117.11197916666727,"velocity":0.7244094488188977,"duration":0.4166666666666714},{"name":"C5","midi":72,"time":117.32161458333394,"velocity":0.7244094488188977,"duration":0.20703125},{"name":"B5","midi":83,"time":117.53125000000061,"velocity":0.7244094488188977,"duration":0.20703125},{"name":"F3","midi":53,"time":117.53125000000061,"velocity":0.7244094488188977,"duration":0.4166666666666572},{"name":"A5","midi":81,"time":117.73958333333394,"velocity":0.7244094488188977,"duration":0.20703125},{"name":"A#5","midi":82,"time":117.9492187500006,"velocity":0.7244094488188977,"duration":0.20703125},{"name":"E4","midi":64,"time":117.9492187500006,"velocity":0.7244094488188977,"duration":0.4166666666666714},{"name":"C5","midi":72,"time":118.15885416666727,"velocity":0.7244094488188977,"duration":0.20703125},{"name":"C#5","midi":73,"time":118.36848958333394,"velocity":0.7244094488188977,"duration":0.20703125},{"name":"F3","midi":53,"time":118.36848958333394,"velocity":0.7244094488188977,"duration":0.4166666666666714},{"name":"A#4","midi":70,"time":118.57812500000061,"velocity":0.7244094488188977,"duration":0.20703125},{"name":"A4","midi":69,"time":118.78906250000061,"velocity":0.7244094488188977,"duration":0.20703125},{"name":"F4","midi":65,"time":118.78906250000061,"velocity":0.7244094488188977,"duration":0.20703125},{"name":"F#5","midi":78,"time":118.99869791666728,"velocity":0.7244094488188977,"duration":0.20703125},{"name":"D#4","midi":63,"time":118.99869791666728,"velocity":0.7244094488188977,"duration":0.20703125},{"name":"F5","midi":77,"time":119.20833333333395,"velocity":0.7244094488188977,"duration":0.20703125},{"name":"D4","midi":62,"time":119.20833333333395,"velocity":0.7244094488188977,"duration":0.5221354166666714},{"name":"A4","midi":69,"time":119.41796875000063,"velocity":0.7244094488188977,"duration":0.20703125},{"name":"A#4","midi":70,"time":119.6276041666673,"velocity":0.7244094488188977,"duration":0.20703125},{"name":"D#5","midi":75,"time":119.83593750000063,"velocity":0.7244094488188977,"duration":0.20703125},{"name":"G4","midi":67,"time":119.83593750000063,"velocity":0.7244094488188977,"duration":0.20703125},{"name":"D5","midi":74,"time":120.0455729166673,"velocity":0.7244094488188977,"duration":0.20703125},{"name":"F4","midi":65,"time":120.0455729166673,"velocity":0.7244094488188977,"duration":0.20703125},{"name":"F4","midi":65,"time":120.25520833333397,"velocity":0.7244094488188977,"duration":0.20703125},{"name":"D4","midi":62,"time":120.25520833333397,"velocity":0.7244094488188977,"duration":0.20703125},{"name":"G4","midi":67,"time":120.46484375000064,"velocity":0.7244094488188977,"duration":0.20703125},{"name":"A#3","midi":58,"time":120.46484375000064,"velocity":0.7244094488188977,"duration":0.20703125},{"name":"C5","midi":72,"time":120.67578125000064,"velocity":0.7244094488188977,"duration":0.20703125},{"name":"A3","midi":57,"time":120.67578125000064,"velocity":0.7244094488188977,"duration":0.20703125},{"name":"A#4","midi":70,"time":120.88541666666731,"velocity":0.7244094488188977,"duration":0.20703125},{"name":"G3","midi":55,"time":120.88541666666731,"velocity":0.7244094488188977,"duration":0.5221354166666714},{"name":"D4","midi":62,"time":121.09505208333398,"velocity":0.7244094488188977,"duration":0.20703125},{"name":"D#4","midi":63,"time":121.30468750000065,"velocity":0.7244094488188977,"duration":0.20703125},{"name":"G#4","midi":68,"time":121.51432291666733,"velocity":0.7244094488188977,"duration":0.20703125},{"name":"C4","midi":60,"time":121.51432291666733,"velocity":0.7244094488188977,"duration":0.20703125},{"name":"G4","midi":67,"time":121.723958333334,"velocity":0.7244094488188977,"duration":0.20703125},{"name":"A#3","midi":58,"time":121.723958333334,"velocity":0.7244094488188977,"duration":0.20703125},{"name":"A#3","midi":58,"time":121.93229166666733,"velocity":0.7244094488188977,"duration":0.20703125},{"name":"G3","midi":55,"time":121.93229166666733,"velocity":0.7244094488188977,"duration":0.20703125},{"name":"C4","midi":60,"time":122.141927083334,"velocity":0.7244094488188977,"duration":0.20703125},{"name":"D#3","midi":51,"time":122.141927083334,"velocity":0.7244094488188977,"duration":0.20703125},{"name":"D4","midi":62,"time":122.35156250000067,"velocity":0.7244094488188977,"duration":0.1015625},{"name":"A3","midi":57,"time":122.35156250000067,"velocity":0.7244094488188977,"duration":0.20703125},{"name":"D#4","midi":63,"time":122.45703125000067,"velocity":0.7244094488188977,"duration":0.1015625},{"name":"D4","midi":62,"time":122.56250000000067,"velocity":0.7244094488188977,"duration":0.20703125},{"name":"A#3","midi":58,"time":122.56250000000067,"velocity":0.7244094488188977,"duration":0.20703125},{"name":"A#4","midi":70,"time":122.77213541666734,"velocity":0.7244094488188977,"duration":0.20703125},{"name":"D3","midi":50,"time":122.77213541666734,"velocity":0.7244094488188977,"duration":0.20703125},{"name":"D#4","midi":63,"time":122.98177083333401,"velocity":0.7244094488188977,"duration":0.20703125},{"name":"C3","midi":48,"time":122.98177083333401,"velocity":0.7244094488188977,"duration":0.20703125},{"name":"D4","midi":62,"time":123.19140625000068,"velocity":0.7244094488188977,"duration":0.20703125},{"name":"A#3","midi":58,"time":123.19140625000068,"velocity":0.7244094488188977,"duration":0.20703125},{"name":"D#4","midi":63,"time":123.40104166666735,"velocity":0.7244094488188977,"duration":0.20703125},{"name":"F3","midi":53,"time":123.40104166666735,"velocity":0.7244094488188977,"duration":0.20703125},{"name":"C4","midi":60,"time":123.61067708333402,"velocity":0.7244094488188977,"duration":0.20703125},{"name":"A3","midi":57,"time":123.61067708333402,"velocity":0.7244094488188977,"duration":0.20703125},{"name":"A#3","midi":58,"time":123.8203125000007,"velocity":0.7244094488188977,"duration":1.4661458333333286},{"name":"A#2","midi":46,"time":123.8203125000007,"velocity":0.7244094488188977,"duration":1.0494791666666714},{"name":"D#3","midi":51,"time":124.0312500000007,"velocity":0.7244094488188977,"duration":0.20703125},{"name":"F3","midi":53,"time":124.2421875000007,"velocity":0.7244094488188977,"duration":0.20703125},{"name":"C3","midi":48,"time":124.45182291666737,"velocity":0.7244094488188977,"duration":0.20703125},{"name":"D3","midi":50,"time":124.66145833333404,"velocity":0.7244094488188977,"duration":0.20703125},{"name":"F2","midi":41,"time":124.89322916666737,"velocity":0.7244094488188977,"duration":0.20703125},{"name":"A#1","midi":34,"time":125.1250000000007,"velocity":0.7244094488188977,"duration":0.4166666666666714},{"name":"F4","midi":65,"time":125.3554687500007,"velocity":0.7244094488188977,"duration":0.20703125},{"name":"A#3","midi":58,"time":125.56510416666737,"velocity":0.7244094488188977,"duration":0.8294270833333428},{"name":"D4","midi":62,"time":125.56510416666737,"velocity":0.7244094488188977,"duration":0.20703125},{"name":"F4","midi":65,"time":125.56510416666737,"velocity":0.7244094488188977,"duration":0.20703125},{"name":"C4","midi":60,"time":125.77473958333404,"velocity":0.7244094488188977,"duration":0.20703125},{"name":"D#4","midi":63,"time":125.77473958333404,"velocity":0.7244094488188977,"duration":0.20703125},{"name":"D4","midi":62,"time":125.98437500000071,"velocity":0.7244094488188977,"duration":0.20703125},{"name":"F4","midi":65,"time":125.98437500000071,"velocity":0.7244094488188977,"duration":0.20703125},{"name":"D#4","midi":63,"time":126.19401041666738,"velocity":0.7244094488188977,"duration":0.20703125},{"name":"G#4","midi":68,"time":126.19401041666738,"velocity":0.7244094488188977,"duration":0.20703125},{"name":"F4","midi":65,"time":126.40494791666738,"velocity":0.7244094488188977,"duration":0.4166666666666714},{"name":"D5","midi":74,"time":126.40494791666738,"velocity":0.7244094488188977,"duration":0.20703125},{"name":"G#4","midi":68,"time":126.61458333333405,"velocity":0.7244094488188977,"duration":0.20703125},{"name":"D4","midi":62,"time":126.82421875000072,"velocity":0.7244094488188977,"duration":0.4166666666666714},{"name":"A#3","midi":58,"time":126.82421875000072,"velocity":0.7244094488188977,"duration":0.4166666666666714},{"name":"F5","midi":77,"time":126.82421875000072,"velocity":0.7244094488188977,"duration":0.20703125},{"name":"G#4","midi":68,"time":127.0338541666674,"velocity":0.7244094488188977,"duration":0.20703125},{"name":"D#3","midi":51,"time":127.24348958333407,"velocity":0.7244094488188977,"duration":0.20703125},{"name":"G4","midi":67,"time":127.24348958333407,"velocity":0.7244094488188977,"duration":0.20703125},{"name":"G3","midi":55,"time":127.4518229166674,"velocity":0.7244094488188977,"duration":0.20703125},{"name":"A#4","midi":70,"time":127.4518229166674,"velocity":0.7244094488188977,"duration":0.20703125},{"name":"A#3","midi":58,"time":127.66145833333407,"velocity":0.7244094488188977,"duration":0.20703125},{"name":"D#4","midi":63,"time":127.66145833333407,"velocity":0.7244094488188977,"duration":0.20703125},{"name":"D4","midi":62,"time":127.87109375000074,"velocity":0.7244094488188977,"duration":0.20703125},{"name":"F4","midi":65,"time":127.87109375000074,"velocity":0.7244094488188977,"duration":0.20703125},{"name":"D#4","midi":63,"time":128.08203125000074,"velocity":0.7244094488188977,"duration":0.20703125},{"name":"G4","midi":67,"time":128.08203125000074,"velocity":0.7244094488188977,"duration":0.20703125},{"name":"F4","midi":65,"time":128.2916666666674,"velocity":0.7244094488188977,"duration":0.20703125},{"name":"G#4","midi":68,"time":128.2916666666674,"velocity":0.7244094488188977,"duration":0.20703125},{"name":"G4","midi":67,"time":128.50130208333405,"velocity":0.7244094488188977,"duration":0.20703125},{"name":"A#4","midi":70,"time":128.50130208333405,"velocity":0.7244094488188977,"duration":0.20703125},{"name":"G#4","midi":68,"time":128.7109375000007,"velocity":0.7244094488188977,"duration":0.20703125},{"name":"C5","midi":72,"time":128.7109375000007,"velocity":0.7244094488188977,"duration":0.20703125},{"name":"D#4","midi":63,"time":128.92057291666737,"velocity":0.7244094488188977,"duration":0.8294270833333144},{"name":"G4","midi":67,"time":128.92057291666737,"velocity":0.7244094488188977,"duration":0.20703125},{"name":"A#4","midi":70,"time":128.92057291666737,"velocity":0.7244094488188977,"duration":0.20703125},{"name":"F4","midi":65,"time":129.13020833333402,"velocity":0.7244094488188977,"duration":0.20703125},{"name":"G#4","midi":68,"time":129.13020833333402,"velocity":0.7244094488188977,"duration":0.20703125},{"name":"G4","midi":67,"time":129.33984375000068,"velocity":0.7244094488188977,"duration":0.20703125},{"name":"A#4","midi":70,"time":129.33984375000068,"velocity":0.7244094488188977,"duration":0.20703125},{"name":"G#4","midi":68,"time":129.54817708333402,"velocity":0.7244094488188977,"duration":0.20703125},{"name":"C#5","midi":73,"time":129.54817708333402,"velocity":0.7244094488188977,"duration":0.20703125},{"name":"A#4","midi":70,"time":129.75781250000068,"velocity":0.7244094488188977,"duration":0.4166666666666572},{"name":"G5","midi":79,"time":129.75781250000068,"velocity":0.7244094488188977,"duration":0.20703125},{"name":"C#5","midi":73,"time":129.96875000000068,"velocity":0.7244094488188977,"duration":0.20703125},{"name":"G4","midi":67,"time":130.17838541666734,"velocity":0.7244094488188977,"duration":0.4166666666666572},{"name":"D#4","midi":63,"time":130.17838541666734,"velocity":0.7244094488188977,"duration":0.4166666666666572},{"name":"A#5","midi":82,"time":130.17838541666734,"velocity":0.7244094488188977,"duration":0.20703125},{"name":"C#5","midi":73,"time":130.388020833334,"velocity":0.7244094488188977,"duration":0.20703125},{"name":"G#3","midi":56,"time":130.59765625000065,"velocity":0.7244094488188977,"duration":0.20703125},{"name":"C5","midi":72,"time":130.59765625000065,"velocity":0.7244094488188977,"duration":0.20703125},{"name":"C4","midi":60,"time":130.8072916666673,"velocity":0.7244094488188977,"duration":0.20703125},{"name":"D#5","midi":75,"time":130.8072916666673,"velocity":0.7244094488188977,"duration":0.20703125},{"name":"D#4","midi":63,"time":131.01692708333397,"velocity":0.7244094488188977,"duration":0.20703125},{"name":"G#4","midi":68,"time":131.01692708333397,"velocity":0.7244094488188977,"duration":0.20703125},{"name":"G4","midi":67,"time":131.22656250000063,"velocity":0.7244094488188977,"duration":0.20703125},{"name":"A#4","midi":70,"time":131.22656250000063,"velocity":0.7244094488188977,"duration":0.20703125},{"name":"G#4","midi":68,"time":131.43619791666728,"velocity":0.7244094488188977,"duration":0.20703125},{"name":"C5","midi":72,"time":131.43619791666728,"velocity":0.7244094488188977,"duration":0.20703125},{"name":"A#4","midi":70,"time":131.64453125000063,"velocity":0.7244094488188977,"duration":0.20703125},{"name":"D5","midi":74,"time":131.64453125000063,"velocity":0.7244094488188977,"duration":0.20703125},{"name":"C5","midi":72,"time":131.85546875000063,"velocity":0.7244094488188977,"duration":0.20703125},{"name":"E5","midi":76,"time":131.85546875000063,"velocity":0.7244094488188977,"duration":0.20703125},{"name":"C#5","midi":73,"time":132.06510416666728,"velocity":0.7244094488188977,"duration":0.20703125},{"name":"F5","midi":77,"time":132.06510416666728,"velocity":0.7244094488188977,"duration":0.20703125},{"name":"G4","midi":67,"time":132.27473958333394,"velocity":0.7244094488188977,"duration":0.4166666666666572},{"name":"E5","midi":76,"time":132.27473958333394,"velocity":0.7244094488188977,"duration":0.20703125},{"name":"D5","midi":74,"time":132.4843750000006,"velocity":0.7244094488188977,"duration":0.20703125},{"name":"A#3","midi":58,"time":132.69401041666725,"velocity":0.7244094488188977,"duration":0.4166666666666572},{"name":"E5","midi":76,"time":132.69401041666725,"velocity":0.7244094488188977,"duration":0.20703125},{"name":"G5","midi":79,"time":132.9036458333339,"velocity":0.7244094488188977,"duration":0.20703125},{"name":"C#4","midi":61,"time":133.11328125000057,"velocity":0.7244094488188977,"duration":0.4166666666666572},{"name":"A#4","midi":70,"time":133.11328125000057,"velocity":0.7244094488188977,"duration":0.20703125},{"name":"C#5","midi":73,"time":133.32291666666723,"velocity":0.7244094488188977,"duration":0.20703125},{"name":"E3","midi":52,"time":133.53385416666723,"velocity":0.7244094488188977,"duration":0.4166666666666856},{"name":"C5","midi":72,"time":133.53385416666723,"velocity":0.7244094488188977,"duration":0.20703125},{"name":"A#4","midi":70,"time":133.74218750000057,"velocity":0.7244094488188977,"duration":0.20703125},{"name":"F3","midi":53,"time":133.95182291666725,"velocity":0.7244094488188977,"duration":0.5885416666666572},{"name":"G#4","midi":68,"time":133.95182291666725,"velocity":0.7244094488188977,"duration":0.20703125},{"name":"G4","midi":67,"time":134.1614583333339,"velocity":0.7244094488188977,"duration":0.20703125},{"name":"G#4","midi":68,"time":134.37109375000057,"velocity":0.7244094488188977,"duration":0.20703125},{"name":"G3","midi":55,"time":134.58072916666723,"velocity":0.7244094488188977,"duration":0.20703125},{"name":"C5","midi":72,"time":134.58072916666723,"velocity":0.7244094488188977,"duration":0.20703125},{"name":"G#3","midi":56,"time":134.79036458333388,"velocity":0.7244094488188977,"duration":0.20703125},{"name":"F5","midi":77,"time":134.79036458333388,"velocity":0.7244094488188977,"duration":0.20703125},{"name":"A#3","midi":58,"time":135.00000000000054,"velocity":0.7244094488188977,"duration":0.20703125},{"name":"G5","midi":79,"time":135.00000000000054,"velocity":0.7244094488188977,"duration":0.20703125},{"name":"C4","midi":60,"time":135.2096354166672,"velocity":0.7244094488188977,"duration":0.20703125},{"name":"E5","midi":76,"time":135.2096354166672,"velocity":0.7244094488188977,"duration":0.20703125},{"name":"D4","midi":62,"time":135.4205729166672,"velocity":0.7244094488188977,"duration":0.20703125},{"name":"F5","midi":77,"time":135.4205729166672,"velocity":0.7244094488188977,"duration":0.20703125},{"name":"E4","midi":64,"time":135.63020833333385,"velocity":0.7244094488188977,"duration":0.20703125},{"name":"G5","midi":79,"time":135.63020833333385,"velocity":0.7244094488188977,"duration":0.4166666666666856},{"name":"D4","midi":62,"time":135.8385416666672,"velocity":0.7244094488188977,"duration":0.20703125},{"name":"E4","midi":64,"time":136.04817708333388,"velocity":0.7244094488188977,"duration":0.20703125},{"name":"A#4","midi":70,"time":136.04817708333388,"velocity":0.7244094488188977,"duration":0.4166666666666572},{"name":"G4","midi":67,"time":136.25781250000054,"velocity":0.7244094488188977,"duration":0.20703125},{"name":"A#3","midi":58,"time":136.4674479166672,"velocity":0.7244094488188977,"duration":0.20703125},{"name":"C#5","midi":73,"time":136.4674479166672,"velocity":0.7244094488188977,"duration":0.4166666666666572},{"name":"C#4","midi":61,"time":136.67708333333385,"velocity":0.7244094488188977,"duration":0.20703125},{"name":"C4","midi":60,"time":136.8867187500005,"velocity":0.7244094488188977,"duration":0.20703125},{"name":"E4","midi":64,"time":136.8867187500005,"velocity":0.7244094488188977,"duration":0.4166666666666572},{"name":"A#3","midi":58,"time":137.09635416666717,"velocity":0.7244094488188977,"duration":0.20703125},{"name":"G#3","midi":56,"time":137.30729166666717,"velocity":0.7244094488188977,"duration":0.20703125},{"name":"F4","midi":65,"time":137.30729166666717,"velocity":0.7244094488188977,"duration":0.6263020833333144},{"name":"G3","midi":55,"time":137.51692708333383,"velocity":0.7244094488188977,"duration":0.20703125},{"name":"G#3","midi":56,"time":137.72656250000048,"velocity":0.7244094488188977,"duration":0.20703125},{"name":"C4","midi":60,"time":137.93489583333383,"velocity":0.7244094488188977,"duration":0.20703125},{"name":"G4","midi":67,"time":137.93489583333383,"velocity":0.7244094488188977,"duration":0.20703125},{"name":"F4","midi":65,"time":138.14453125000048,"velocity":0.7244094488188977,"duration":0.20703125},{"name":"G#4","midi":68,"time":138.14453125000048,"velocity":0.7244094488188977,"duration":0.20703125},{"name":"G4","midi":67,"time":138.35416666666714,"velocity":0.7244094488188977,"duration":0.20703125},{"name":"A#4","midi":70,"time":138.35416666666714,"velocity":0.7244094488188977,"duration":0.20703125},{"name":"D#4","midi":63,"time":138.5638020833338,"velocity":0.7244094488188977,"duration":0.20703125},{"name":"C5","midi":72,"time":138.5638020833338,"velocity":0.7244094488188977,"duration":0.5221354166666572},{"name":"F4","midi":65,"time":138.77343750000045,"velocity":0.7244094488188977,"duration":0.20703125},{"name":"C#4","midi":61,"time":138.9830729166671,"velocity":0.7244094488188977,"duration":1.0442708333333144},{"name":"A4","midi":69,"time":139.1940104166671,"velocity":0.7244094488188977,"duration":0.20703125},{"name":"A#4","midi":70,"time":139.40364583333377,"velocity":0.7244094488188977,"duration":0.20703125},{"name":"F#5","midi":78,"time":139.61328125000043,"velocity":0.7244094488188977,"duration":0.20703125},{"name":"E5","midi":76,"time":139.82291666666708,"velocity":0.7244094488188977,"duration":0.20703125},{"name":"C4","midi":60,"time":140.03125000000043,"velocity":0.7244094488188977,"duration":0.20703125},{"name":"F5","midi":77,"time":140.03125000000043,"velocity":0.7244094488188977,"duration":0.20703125},{"name":"C#4","midi":61,"time":140.24088541666708,"velocity":0.7244094488188977,"duration":0.20703125},{"name":"A#4","midi":70,"time":140.24088541666708,"velocity":0.7244094488188977,"duration":0.5520833333333144},{"name":"A#3","midi":58,"time":140.45052083333374,"velocity":0.7244094488188977,"duration":0.20703125},{"name":"C4","midi":60,"time":140.6601562500004,"velocity":0.7244094488188977,"duration":1.0442708333333144},{"name":"G4","midi":67,"time":140.86979166666706,"velocity":0.7244094488188977,"duration":0.20703125},{"name":"G#4","midi":68,"time":141.08072916666706,"velocity":0.7244094488188977,"duration":0.20703125},{"name":"F#5","midi":78,"time":141.2903645833337,"velocity":0.7244094488188977,"duration":0.20703125},{"name":"E5","midi":76,"time":141.50000000000037,"velocity":0.7244094488188977,"duration":0.20703125},{"name":"A#3","midi":58,"time":141.70963541666703,"velocity":0.7244094488188977,"duration":0.20703125},{"name":"F5","midi":77,"time":141.70963541666703,"velocity":0.7244094488188977,"duration":0.20703125},{"name":"C4","midi":60,"time":141.91927083333368,"velocity":0.7244094488188977,"duration":0.20703125},{"name":"G#4","midi":68,"time":141.91927083333368,"velocity":0.7244094488188977,"duration":0.5520833333333428},{"name":"G#3","midi":56,"time":142.12760416666703,"velocity":0.7244094488188977,"duration":0.20703125},{"name":"A#3","midi":58,"time":142.33723958333368,"velocity":0.7244094488188977,"duration":0.20703125},{"name":"G#3","midi":56,"time":142.54687500000034,"velocity":0.7244094488188977,"duration":0.20703125},{"name":"F4","midi":65,"time":142.54687500000034,"velocity":0.7244094488188977,"duration":0.20703125},{"name":"A#3","midi":58,"time":142.756510416667,"velocity":0.7244094488188977,"duration":0.20703125},{"name":"G4","midi":67,"time":142.756510416667,"velocity":0.7244094488188977,"duration":0.20703125},{"name":"G3","midi":55,"time":142.967447916667,"velocity":0.7244094488188977,"duration":0.20703125},{"name":"F5","midi":77,"time":142.967447916667,"velocity":0.7244094488188977,"duration":0.20703125},{"name":"C4","midi":60,"time":143.17708333333366,"velocity":0.7244094488188977,"duration":0.4166666666666572},{"name":"E5","midi":76,"time":143.17708333333366,"velocity":0.7244094488188977,"duration":0.20703125},{"name":"A#5","midi":82,"time":143.3867187500003,"velocity":0.7244094488188977,"duration":0.20703125},{"name":"C3","midi":48,"time":143.59635416666697,"velocity":0.7244094488188977,"duration":0.4166666666666572},{"name":"G#5","midi":80,"time":143.59635416666697,"velocity":0.7244094488188977,"duration":0.20703125},{"name":"E5","midi":76,"time":143.80598958333363,"velocity":0.7244094488188977,"duration":0.20703125},{"name":"F3","midi":53,"time":144.01562500000028,"velocity":0.7244094488188977,"duration":1.0468749999999716},{"name":"F5","midi":77,"time":144.01562500000028,"velocity":0.7244094488188977,"duration":1.0494791666666288},{"name":"A#4","midi":70,"time":144.22656250000028,"velocity":0.7244094488188977,"duration":0.20703125},{"name":"C5","midi":72,"time":144.43750000000028,"velocity":0.7244094488188977,"duration":0.20703125},{"name":"G4","midi":67,"time":144.64713541666694,"velocity":0.7244094488188977,"duration":0.20703125},{"name":"G#4","midi":68,"time":144.8567708333336,"velocity":0.7244094488188977,"duration":0.6263020833333428},{"name":"D#4","midi":63,"time":145.06640625000026,"velocity":0.7244094488188977,"duration":0.20703125},{"name":"F4","midi":65,"time":145.2747395833336,"velocity":0.7244094488188977,"duration":0.20703125},{"name":"C4","midi":60,"time":145.48437500000028,"velocity":0.7244094488188977,"duration":0.20703125},{"name":"F5","midi":77,"time":145.48437500000028,"velocity":0.7244094488188977,"duration":0.20703125},{"name":"D4","midi":62,"time":145.69401041666694,"velocity":0.7244094488188977,"duration":0.20703125},{"name":"A#4","midi":70,"time":145.69401041666694,"velocity":0.7244094488188977,"duration":0.20703125},{"name":"C4","midi":60,"time":145.9036458333336,"velocity":0.7244094488188977,"duration":0.20703125},{"name":"G#4","midi":68,"time":145.9036458333336,"velocity":0.7244094488188977,"duration":0.20703125},{"name":"D4","midi":62,"time":146.11328125000026,"velocity":0.7244094488188977,"duration":0.20703125},{"name":"A#4","midi":70,"time":146.11328125000026,"velocity":0.7244094488188977,"duration":0.20703125},{"name":"F4","midi":65,"time":146.32421875000026,"velocity":0.7244094488188977,"duration":0.20703125},{"name":"D5","midi":74,"time":146.32421875000026,"velocity":0.7244094488188977,"duration":0.20703125},{"name":"G#3","midi":56,"time":146.5338541666669,"velocity":0.7244094488188977,"duration":0.20703125},{"name":"F5","midi":77,"time":146.5338541666669,"velocity":0.7244094488188977,"duration":1.0078124999999716},{"name":"C4","midi":60,"time":146.74348958333357,"velocity":0.7244094488188977,"duration":0.20703125},{"name":"A#3","midi":58,"time":146.95312500000023,"velocity":0.7244094488188977,"duration":0.20703125},{"name":"G#3","midi":56,"time":147.16276041666688,"velocity":0.7244094488188977,"duration":0.20703125},{"name":"G3","midi":55,"time":147.37109375000023,"velocity":0.7244094488188977,"duration":0.20703125},{"name":"F3","midi":53,"time":147.58072916666688,"velocity":0.7244094488188977,"duration":0.20703125},{"name":"D5","midi":74,"time":147.58072916666688,"velocity":0.7244094488188977,"duration":0.20703125},{"name":"G3","midi":55,"time":147.79036458333354,"velocity":0.7244094488188977,"duration":0.20703125},{"name":"D#5","midi":75,"time":147.79036458333354,"velocity":0.7244094488188977,"duration":0.20703125},{"name":"A#3","midi":58,"time":148.0000000000002,"velocity":0.7244094488188977,"duration":0.20703125},{"name":"G5","midi":79,"time":148.0000000000002,"velocity":0.7244094488188977,"duration":0.20703125},{"name":"C#3","midi":49,"time":148.2109375000002,"velocity":0.7244094488188977,"duration":0.20703125},{"name":"A#5","midi":82,"time":148.2109375000002,"velocity":0.7244094488188977,"duration":0.5716145833333144},{"name":"F3","midi":53,"time":148.42057291666686,"velocity":0.7244094488188977,"duration":0.20703125},{"name":"D#3","midi":51,"time":148.6302083333335,"velocity":0.7244094488188977,"duration":0.2083333333333428},{"name":"C#3","midi":49,"time":148.8411458333335,"velocity":0.7244094488188977,"duration":0.20703125},{"name":"F5","midi":77,"time":148.8411458333335,"velocity":0.7244094488188977,"duration":0.20703125},{"name":"C3","midi":48,"time":149.05078125000017,"velocity":0.7244094488188977,"duration":0.20703125},{"name":"E5","midi":76,"time":149.05078125000017,"velocity":0.7244094488188977,"duration":0.20703125},{"name":"A#2","midi":46,"time":149.26041666666683,"velocity":0.7244094488188977,"duration":0.20703125},{"name":"D5","midi":74,"time":149.26041666666683,"velocity":0.7244094488188977,"duration":0.20703125},{"name":"C3","midi":48,"time":149.47005208333348,"velocity":0.7244094488188977,"duration":0.20703125},{"name":"E5","midi":76,"time":149.47005208333348,"velocity":0.7244094488188977,"duration":0.20703125},{"name":"E3","midi":52,"time":149.67968750000014,"velocity":0.7244094488188977,"duration":0.20703125},{"name":"G5","midi":79,"time":149.67968750000014,"velocity":0.7244094488188977,"duration":0.20703125},{"name":"G3","midi":55,"time":149.89062500000014,"velocity":0.7244094488188977,"duration":0.9153645833333144},{"name":"A#4","midi":70,"time":149.89062500000014,"velocity":0.7244094488188977,"duration":0.20703125},{"name":"C#5","midi":73,"time":150.1002604166668,"velocity":0.7244094488188977,"duration":0.20703125},{"name":"C5","midi":72,"time":150.30989583333346,"velocity":0.7244094488188977,"duration":0.20703125},{"name":"A#4","midi":70,"time":150.5195312500001,"velocity":0.7244094488188977,"duration":0.20703125},{"name":"G#4","midi":68,"time":150.72786458333346,"velocity":0.7244094488188977,"duration":0.2083333333333428},{"name":"E3","midi":52,"time":150.9401041666668,"velocity":0.7244094488188977,"duration":0.20703125},{"name":"G4","midi":67,"time":150.9401041666668,"velocity":0.7244094488188977,"duration":0.20703125},{"name":"F3","midi":53,"time":151.14973958333346,"velocity":0.7244094488188977,"duration":0.20703125},{"name":"G#4","midi":68,"time":151.14973958333346,"velocity":0.7244094488188977,"duration":0.20703125},{"name":"G#3","midi":56,"time":151.3593750000001,"velocity":0.7244094488188977,"duration":0.20703125},{"name":"C5","midi":72,"time":151.3593750000001,"velocity":0.7244094488188977,"duration":0.20703125},{"name":"C4","midi":60,"time":151.5703125000001,"velocity":0.7244094488188977,"duration":0.5677083333333428},{"name":"D#4","midi":63,"time":151.5703125000001,"velocity":0.7244094488188977,"duration":0.20703125},{"name":"G4","midi":67,"time":151.77864583333346,"velocity":0.7244094488188977,"duration":0.20703125},{"name":"F4","midi":65,"time":151.9882812500001,"velocity":0.7244094488188977,"duration":0.2083333333333428},{"name":"G3","midi":55,"time":152.20052083333346,"velocity":0.7244094488188977,"duration":0.20703125},{"name":"D#4","midi":63,"time":152.20052083333346,"velocity":0.7244094488188977,"duration":0.20703125},{"name":"F3","midi":53,"time":152.4101562500001,"velocity":0.7244094488188977,"duration":0.20703125},{"name":"D4","midi":62,"time":152.4101562500001,"velocity":0.7244094488188977,"duration":0.20703125},{"name":"G#3","midi":56,"time":152.61979166666677,"velocity":0.7244094488188977,"duration":0.20703125},{"name":"F4","midi":65,"time":152.61979166666677,"velocity":0.7244094488188977,"duration":0.20703125},{"name":"F3","midi":53,"time":152.82942708333343,"velocity":0.7244094488188977,"duration":0.20703125},{"name":"G#4","midi":68,"time":152.82942708333343,"velocity":0.7244094488188977,"duration":0.20703125},{"name":"D3","midi":50,"time":153.03776041666677,"velocity":0.7244094488188977,"duration":0.20703125},{"name":"C5","midi":72,"time":153.03776041666677,"velocity":0.7244094488188977,"duration":0.3268229166666572},{"name":"G2","midi":43,"time":153.24869791666677,"velocity":0.7244094488188977,"duration":0.5872395833333144},{"name":"D4","midi":62,"time":153.45833333333343,"velocity":0.7244094488188977,"duration":0.20703125},{"name":"A#4","midi":70,"time":153.66796875000009,"velocity":0.7244094488188977,"duration":0.20703125},{"name":"F3","midi":53,"time":153.87760416666674,"velocity":0.7244094488188977,"duration":0.20703125},{"name":"G#4","midi":68,"time":153.87760416666674,"velocity":0.7244094488188977,"duration":0.20703125},{"name":"G3","midi":55,"time":154.0872395833334,"velocity":0.7244094488188977,"duration":0.20703125},{"name":"A#4","midi":70,"time":154.0872395833334,"velocity":0.7244094488188977,"duration":0.20703125},{"name":"A#3","midi":58,"time":154.29687500000006,"velocity":0.7244094488188977,"duration":0.20703125},{"name":"G4","midi":67,"time":154.29687500000006,"velocity":0.7244094488188977,"duration":0.20703125},{"name":"G3","midi":55,"time":154.5065104166667,"velocity":0.7244094488188977,"duration":0.20703125},{"name":"D#4","midi":63,"time":154.5065104166667,"velocity":0.7244094488188977,"duration":0.20703125},{"name":"D#3","midi":51,"time":154.71614583333337,"velocity":0.7244094488188977,"duration":0.20703125},{"name":"C#4","midi":61,"time":154.71614583333337,"velocity":0.7244094488188977,"duration":0.3268229166666572},{"name":"G#2","midi":44,"time":154.92708333333337,"velocity":0.7244094488188977,"duration":0.5872395833333144},{"name":"A#4","midi":70,"time":155.13541666666669,"velocity":0.7244094488188977,"duration":0.20703125},{"name":"C4","midi":60,"time":155.34505208333334,"velocity":0.7244094488188977,"duration":0.20703125},{"name":"G3","midi":55,"time":155.5546875,"velocity":0.7244094488188977,"duration":0.20703125},{"name":"C#4","midi":61,"time":155.5546875,"velocity":0.7244094488188977,"duration":0.20703125},{"name":"G#3","midi":56,"time":155.76432291666666,"velocity":0.7244094488188977,"duration":0.20703125},{"name":"C4","midi":60,"time":155.76432291666666,"velocity":0.7244094488188977,"duration":0.20703125},{"name":"G3","midi":55,"time":155.97395833333331,"velocity":0.7244094488188977,"duration":0.20703125},{"name":"A#3","midi":58,"time":155.97395833333331,"velocity":0.7244094488188977,"duration":0.20703125},{"name":"G#3","midi":56,"time":156.18359374999997,"velocity":0.7244094488188977,"duration":0.20703125},{"name":"C4","midi":60,"time":156.18359374999997,"velocity":0.7244094488188977,"duration":0.20703125},{"name":"C4","midi":60,"time":156.39322916666663,"velocity":0.7244094488188977,"duration":0.20703125},{"name":"D#4","midi":63,"time":156.39322916666663,"velocity":0.7244094488188977,"duration":0.20703125},{"name":"F3","midi":53,"time":156.6028645833333,"velocity":0.7244094488188977,"duration":0.20703125},{"name":"G#4","midi":68,"time":156.6028645833333,"velocity":0.7244094488188977,"duration":1.0442708333333144},{"name":"G#3","midi":56,"time":156.8138020833333,"velocity":0.7244094488188977,"duration":0.20703125},{"name":"C3","midi":48,"time":157.02343749999994,"velocity":0.7244094488188977,"duration":0.20703125},{"name":"D#3","midi":51,"time":157.2317708333333,"velocity":0.7244094488188977,"duration":0.20703125},{"name":"D3","midi":50,"time":157.44140624999994,"velocity":0.7244094488188977,"duration":0.20703125},{"name":"D#3","midi":51,"time":157.6510416666666,"velocity":0.7244094488188977,"duration":0.20703125},{"name":"G4","midi":67,"time":157.6510416666666,"velocity":0.7244094488188977,"duration":0.20703125},{"name":"F3","midi":53,"time":157.86067708333326,"velocity":0.7244094488188977,"duration":0.20703125},{"name":"G#4","midi":68,"time":157.86067708333326,"velocity":0.7244094488188977,"duration":0.20703125},{"name":"D3","midi":50,"time":158.07031249999991,"velocity":0.7244094488188977,"duration":0.20703125},{"name":"F5","midi":77,"time":158.07031249999991,"velocity":0.7244094488188977,"duration":0.20703125},{"name":"A#2","midi":46,"time":158.27994791666657,"velocity":0.7244094488188977,"duration":0.4791666666666572},{"name":"D#5","midi":75,"time":158.27994791666657,"velocity":0.7244094488188977,"duration":0.20703125},{"name":"D5","midi":74,"time":158.48958333333323,"velocity":0.7244094488188977,"duration":0.20703125},{"name":"C5","midi":72,"time":158.70052083333323,"velocity":0.7244094488188977,"duration":0.2083333333333428},{"name":"D3","midi":50,"time":158.91145833333323,"velocity":0.7244094488188977,"duration":0.20703125},{"name":"A#4","midi":70,"time":158.91145833333323,"velocity":0.7244094488188977,"duration":0.20703125},{"name":"D#3","midi":51,"time":159.1210937499999,"velocity":0.7244094488188977,"duration":0.20703125},{"name":"G#4","midi":68,"time":159.1210937499999,"velocity":0.7244094488188977,"duration":0.20703125},{"name":"D3","midi":50,"time":159.33072916666654,"velocity":0.7244094488188977,"duration":0.20703125},{"name":"F4","midi":65,"time":159.33072916666654,"velocity":0.7244094488188977,"duration":0.20703125},{"name":"D#3","midi":51,"time":159.5403645833332,"velocity":0.7244094488188977,"duration":0.20703125},{"name":"G4","midi":67,"time":159.5403645833332,"velocity":0.7244094488188977,"duration":0.20703125},{"name":"G3","midi":55,"time":159.74999999999986,"velocity":0.7244094488188977,"duration":0.20703125},{"name":"A#4","midi":70,"time":159.74999999999986,"velocity":0.7244094488188977,"duration":0.20703125},{"name":"A#3","midi":58,"time":159.95963541666652,"velocity":0.7244094488188977,"duration":0.5221354166666572},{"name":"D#5","midi":75,"time":159.95963541666652,"velocity":0.7244094488188977,"duration":0.20703125},{"name":"A#4","midi":70,"time":160.16927083333317,"velocity":0.7244094488188977,"duration":0.20703125},{"name":"G5","midi":79,"time":160.37890624999983,"velocity":0.7244094488188977,"duration":0.20703125},{"name":"D#3","midi":51,"time":160.5885416666665,"velocity":0.7244094488188977,"duration":0.20703125},{"name":"A4","midi":69,"time":160.5885416666665,"velocity":0.7244094488188977,"duration":0.20703125},{"name":"D3","midi":50,"time":160.79817708333314,"velocity":0.7244094488188977,"duration":0.20703125},{"name":"A#4","midi":70,"time":160.79817708333314,"velocity":0.7244094488188977,"duration":0.20703125},{"name":"C3","midi":48,"time":161.0078124999998,"velocity":0.7244094488188977,"duration":0.20703125},{"name":"A4","midi":69,"time":161.0078124999998,"velocity":0.7244094488188977,"duration":0.20703125},{"name":"D3","midi":50,"time":161.21744791666646,"velocity":0.7244094488188977,"duration":0.20703125},{"name":"A#4","midi":70,"time":161.21744791666646,"velocity":0.7244094488188977,"duration":0.20703125},{"name":"F3","midi":53,"time":161.42708333333312,"velocity":0.7244094488188977,"duration":0.20703125},{"name":"D5","midi":74,"time":161.42708333333312,"velocity":0.7244094488188977,"duration":0.20703125},{"name":"G#2","midi":44,"time":161.63671874999977,"velocity":0.7244094488188977,"duration":0.20703125},{"name":"F5","midi":77,"time":161.63671874999977,"velocity":0.7244094488188977,"duration":0.20703125},{"name":"C3","midi":48,"time":161.84635416666643,"velocity":0.7244094488188977,"duration":0.20703125},{"name":"G5","midi":79,"time":161.84635416666643,"velocity":0.7244094488188977,"duration":0.20703125},{"name":"A#2","midi":46,"time":162.0559895833331,"velocity":0.7244094488188977,"duration":0.20703125},{"name":"G#5","midi":80,"time":162.0559895833331,"velocity":0.7244094488188977,"duration":0.20703125},{"name":"G#2","midi":44,"time":162.2669270833331,"velocity":0.7244094488188977,"duration":0.20703125},{"name":"C6","midi":84,"time":162.2669270833331,"velocity":0.7244094488188977,"duration":0.20703125},{"name":"G2","midi":43,"time":162.47526041666643,"velocity":0.7244094488188977,"duration":0.20703125},{"name":"A#5","midi":82,"time":162.47526041666643,"velocity":0.7244094488188977,"duration":0.20703125},{"name":"D2","midi":38,"time":162.6848958333331,"velocity":0.7244094488188977,"duration":0.20703125},{"name":"F5","midi":77,"time":162.6848958333331,"velocity":0.7244094488188977,"duration":0.20703125},{"name":"D#2","midi":39,"time":162.89453124999974,"velocity":0.7244094488188977,"duration":0.20703125},{"name":"G5","midi":79,"time":162.89453124999974,"velocity":0.7244094488188977,"duration":0.5221354166666572},{"name":"C3","midi":48,"time":163.1041666666664,"velocity":0.7244094488188977,"duration":0.20703125},{"name":"A#2","midi":46,"time":163.31380208333306,"velocity":0.7244094488188977,"duration":0.20703125},{"name":"F2","midi":41,"time":163.52343749999972,"velocity":0.7244094488188977,"duration":0.20703125},{"name":"D5","midi":74,"time":163.52343749999972,"velocity":0.7244094488188977,"duration":0.20703125},{"name":"G2","midi":43,"time":163.73307291666637,"velocity":0.7244094488188977,"duration":0.20703125},{"name":"D#5","midi":75,"time":163.73307291666637,"velocity":0.7244094488188977,"duration":0.20703125},{"name":"D#3","midi":51,"time":163.94270833333303,"velocity":0.7244094488188977,"duration":0.20703125},{"name":"G5","midi":79,"time":163.94270833333303,"velocity":0.7244094488188977,"duration":0.20703125},{"name":"D3","midi":50,"time":164.15364583333303,"velocity":0.7244094488188977,"duration":0.20703125},{"name":"F5","midi":77,"time":164.15364583333303,"velocity":0.7244094488188977,"duration":0.20703125},{"name":"A2","midi":45,"time":164.3632812499997,"velocity":0.7244094488188977,"duration":0.20703125},{"name":"C5","midi":72,"time":164.3632812499997,"velocity":0.7244094488188977,"duration":0.20703125},{"name":"A#2","midi":46,"time":164.57161458333303,"velocity":0.7244094488188977,"duration":0.20703125},{"name":"D5","midi":74,"time":164.57161458333303,"velocity":0.7244094488188977,"duration":0.5221354166666572},{"name":"G3","midi":55,"time":164.7812499999997,"velocity":0.7244094488188977,"duration":0.20703125},{"name":"F3","midi":53,"time":164.99088541666634,"velocity":0.7244094488188977,"duration":0.20703125},{"name":"C3","midi":48,"time":165.200520833333,"velocity":0.7244094488188977,"duration":0.20703125},{"name":"A4","midi":69,"time":165.200520833333,"velocity":0.7244094488188977,"duration":0.20703125},{"name":"D3","midi":50,"time":165.41015624999966,"velocity":0.7244094488188977,"duration":0.20703125},{"name":"A#4","midi":70,"time":165.41015624999966,"velocity":0.7244094488188977,"duration":0.20703125},{"name":"G#3","midi":56,"time":165.61979166666632,"velocity":0.7244094488188977,"duration":0.20703125},{"name":"F5","midi":77,"time":165.61979166666632,"velocity":0.7244094488188977,"duration":0.20703125},{"name":"G3","midi":55,"time":165.83072916666632,"velocity":0.7244094488188977,"duration":0.140625},{"name":"D#5","midi":75,"time":165.83072916666632,"velocity":0.7244094488188977,"duration":0.140625},{"name":"F5","midi":77,"time":165.97395833333297,"velocity":0.7244094488188977,"duration":0.140625},{"name":"F3","midi":53,"time":165.97395833333297,"velocity":0.7244094488188977,"duration":0.140625},{"name":"G5","midi":79,"time":166.11718749999963,"velocity":0.7244094488188977,"duration":0.140625},{"name":"D#3","midi":51,"time":166.11718749999963,"velocity":0.7244094488188977,"duration":0.140625},{"name":"C4","midi":60,"time":166.25911458333297,"velocity":0.7244094488188977,"duration":0.2135416666666572},{"name":"G#4","midi":68,"time":166.25911458333297,"velocity":0.7244094488188977,"duration":0.2135416666666572},{"name":"G#3","midi":56,"time":166.47656249999963,"velocity":0.7244094488188977,"duration":0.2135416666666572},{"name":"F5","midi":77,"time":166.47656249999963,"velocity":0.7244094488188977,"duration":0.2135416666666572},{"name":"A#3","midi":58,"time":166.69270833333294,"velocity":0.7244094488188977,"duration":0.4453124999999716},{"name":"G4","midi":67,"time":166.69270833333294,"velocity":0.7244094488188977,"duration":0.2213541666666572},{"name":"D#5","midi":75,"time":166.91666666666626,"velocity":0.7244094488188977,"duration":0.2213541666666572},{"name":"A#2","midi":46,"time":167.14192708333292,"velocity":0.7244094488188977,"duration":0.4453124999999716},{"name":"F4","midi":65,"time":167.14192708333292,"velocity":0.7244094488188977,"duration":0.2213541666666572},{"name":"D5","midi":74,"time":167.36588541666623,"velocity":0.7244094488188977,"duration":0.2213541666666572},{"name":"D#3","midi":51,"time":167.5911458333329,"velocity":0.7244094488188977,"duration":1.1901041666666572},{"name":"D#5","midi":75,"time":167.5911458333329,"velocity":0.7244094488188977,"duration":2.6966145833333144},{"name":"G#4","midi":68,"time":167.81510416666623,"velocity":0.7244094488188977,"duration":0.2213541666666572},{"name":"A#4","midi":70,"time":168.0403645833329,"velocity":0.7244094488188977,"duration":0.2760416666666572},{"name":"F4","midi":65,"time":168.2864583333329,"velocity":0.7244094488188977,"duration":0.2213541666666572},{"name":"G4","midi":67,"time":168.51171874999955,"velocity":0.7244094488188977,"duration":1.8125},{"name":"A#3","midi":58,"time":168.7786458333329,"velocity":0.7244094488188977,"duration":0.328125},{"name":"D#4","midi":63,"time":169.23046874999955,"velocity":0.7244094488188977,"duration":2.700520833333343},{"name":"G4","midi":67,"time":172.50390624999955,"velocity":0.7244094488188977,"duration":0.2096354166666572},{"name":"A#3","midi":58,"time":172.71614583333286,"velocity":0.7244094488188977,"duration":1.3268229166666856},{"name":"D#3","midi":51,"time":172.71614583333286,"velocity":0.7244094488188977,"duration":1.6966145833333144},{"name":"D#4","midi":63,"time":172.9283854166662,"velocity":0.7244094488188977,"duration":1.12109375},{"name":"G4","midi":67,"time":173.1393229166662,"velocity":0.7244094488188977,"duration":1.0611979166666572},{"name":"A#2","midi":46,"time":173.1393229166662,"velocity":0.7244094488188977,"duration":0.4231770833333428},{"name":"G2","midi":43,"time":173.5651041666662,"velocity":0.7244094488188977,"duration":0.4231770833333428},{"name":"D#2","midi":39,"time":173.99218749999955,"velocity":0.7244094488188977,"duration":0.42057291666662877},{"name":"F4","midi":65,"time":174.20312499999952,"velocity":0.7244094488188977,"duration":0.2096354166666572},{"name":"G4","midi":67,"time":174.41536458333283,"velocity":0.7244094488188977,"duration":0.2096354166666572},{"name":"D#3","midi":51,"time":174.41536458333283,"velocity":0.7244094488188977,"duration":0.4205729166666572},{"name":"G#4","midi":68,"time":174.62760416666615,"velocity":0.7244094488188977,"duration":0.20963541666668561},{"name":"A#4","midi":70,"time":174.8398437499995,"velocity":0.7244094488188977,"duration":0.10416666666665719},{"name":"F3","midi":53,"time":174.8398437499995,"velocity":0.7244094488188977,"duration":0.42578124999994316},{"name":"G#4","midi":68,"time":174.9466145833328,"velocity":0.7244094488188977,"duration":0.10416666666665719},{"name":"G4","midi":67,"time":175.05338541666612,"velocity":0.7244094488188977,"duration":0.10416666666665719},{"name":"G#4","midi":68,"time":175.16015624999943,"velocity":0.7244094488188977,"duration":0.10416666666665719},{"name":"A#3","midi":58,"time":175.26692708333277,"velocity":0.7244094488188977,"duration":1.3255208333333428},{"name":"G3","midi":55,"time":175.26692708333277,"velocity":0.7244094488188977,"duration":1.6953125},{"name":"D#4","midi":63,"time":175.47916666666612,"velocity":0.7244094488188977,"duration":1.1158854166666572},{"name":"G4","midi":67,"time":175.69140624999946,"velocity":0.7244094488188977,"duration":0.9049479166666572},{"name":"D#3","midi":51,"time":175.69140624999946,"velocity":0.7244094488188977,"duration":0.4205729166666572},{"name":"A#4","midi":70,"time":175.90234374999946,"velocity":0.7244094488188977,"duration":0.84765625},{"name":"A#2","midi":46,"time":176.11458333333277,"velocity":0.7244094488188977,"duration":0.4231770833333428},{"name":"G2","midi":43,"time":176.54036458333277,"velocity":0.7244094488188977,"duration":0.4192708333333428},{"name":"G#4","midi":68,"time":176.75260416666612,"velocity":0.7244094488188977,"duration":0.2096354166666572},{"name":"A#4","midi":70,"time":176.96484374999943,"velocity":0.7244094488188977,"duration":0.2096354166666572},{"name":"G3","midi":55,"time":176.96484374999943,"velocity":0.7244094488188977,"duration":0.4205729166666572},{"name":"C5","midi":72,"time":177.17578124999943,"velocity":0.7244094488188977,"duration":0.2096354166666572},{"name":"A#4","midi":70,"time":177.38802083333275,"velocity":0.7244094488188977,"duration":0.2096354166666572},{"name":"G#3","midi":56,"time":177.38802083333275,"velocity":0.7244094488188977,"duration":0.4205729166666572},{"name":"C5","midi":72,"time":177.60026041666606,"velocity":0.7244094488188977,"duration":0.20963541666668561},{"name":"D4","midi":62,"time":177.8124999999994,"velocity":0.7244094488188977,"duration":0.2096354166666572},{"name":"A#3","midi":58,"time":177.8124999999994,"velocity":0.7244094488188977,"duration":1.6927083333332575},{"name":"D#4","midi":63,"time":178.0234374999994,"velocity":0.7244094488188977,"duration":0.2096354166666572},{"name":"F4","midi":65,"time":178.23567708333272,"velocity":0.7244094488188977,"duration":0.2096354166666572},{"name":"F3","midi":53,"time":178.23567708333272,"velocity":0.7244094488188977,"duration":0.4205729166666572},{"name":"G4","midi":67,"time":178.44791666666603,"velocity":0.7244094488188977,"duration":0.20963541666668561},{"name":"F4","midi":65,"time":178.66015624999937,"velocity":0.7244094488188977,"duration":0.2096354166666572},{"name":"D3","midi":50,"time":178.66015624999937,"velocity":0.7244094488188977,"duration":0.4205729166666572},{"name":"G4","midi":67,"time":178.87109374999937,"velocity":0.7244094488188977,"duration":0.2096354166666572},{"name":"G#4","midi":68,"time":179.0833333333327,"velocity":0.7244094488188977,"duration":0.2096354166666572},{"name":"A#2","midi":46,"time":179.0833333333327,"velocity":0.7244094488188977,"duration":1.2682291666666003},{"name":"G4","midi":67,"time":179.295572916666,"velocity":0.7244094488188977,"duration":0.2096354166666572},{"name":"G#4","midi":68,"time":179.50781249999932,"velocity":0.7244094488188977,"duration":0.2096354166666572},{"name":"F3","midi":53,"time":179.50781249999932,"velocity":0.7244094488188977,"duration":0.4205729166666572},{"name":"C5","midi":72,"time":179.71874999999932,"velocity":0.7244094488188977,"duration":0.2096354166666572},{"name":"A#4","midi":70,"time":179.93098958333263,"velocity":0.7244094488188977,"duration":0.2096354166666572},{"name":"D3","midi":50,"time":179.93098958333263,"velocity":0.7244094488188977,"duration":0.4205729166666572},{"name":"G#4","midi":68,"time":180.14322916666595,"velocity":0.7244094488188977,"duration":0.20963541666668561},{"name":"A#3","midi":58,"time":180.3554687499993,"velocity":0.7244094488188977,"duration":1.3268229166666856},{"name":"D#3","midi":51,"time":180.3554687499993,"velocity":0.7244094488188977,"duration":1.6966145833333712},{"name":"D#4","midi":63,"time":180.5664062499993,"velocity":0.7244094488188977,"duration":1.1171875000000284},{"name":"G4","midi":67,"time":180.77864583333263,"velocity":0.7244094488188977,"duration":1.0611979166666856},{"name":"A#2","midi":46,"time":180.77864583333263,"velocity":0.7244094488188977,"duration":0.4231770833333428},{"name":"G2","midi":43,"time":181.20442708333263,"velocity":0.7244094488188977,"duration":0.4231770833333428},{"name":"D#2","midi":39,"time":181.63020833333263,"velocity":0.7244094488188977,"duration":0.4205729166666856},{"name":"G4","midi":67,"time":181.84244791666598,"velocity":0.7244094488188977,"duration":0.20963541666668561},{"name":"G#4","midi":68,"time":182.05468749999932,"velocity":0.7244094488188977,"duration":0.2096354166666572},{"name":"D#3","midi":51,"time":182.05468749999932,"velocity":0.7244094488188977,"duration":0.4205729166666572},{"name":"A#4","midi":70,"time":182.26692708333263,"velocity":0.7244094488188977,"duration":0.20963541666668561},{"name":"C5","midi":72,"time":182.47786458333266,"velocity":0.7244094488188977,"duration":0.2096354166666572},{"name":"D3","midi":50,"time":182.47786458333266,"velocity":0.7244094488188977,"duration":0.4205729166666572},{"name":"D5","midi":74,"time":182.69010416666598,"velocity":0.7244094488188977,"duration":0.20963541666668561},{"name":"G4","midi":67,"time":182.90234374999932,"velocity":0.7244094488188977,"duration":1.3268229166666856},{"name":"C3","midi":48,"time":182.90234374999932,"velocity":0.7244094488188977,"duration":1.6966145833333144},{"name":"C5","midi":72,"time":183.11458333333266,"velocity":0.7244094488188977,"duration":1.1171875},{"name":"D#5","midi":75,"time":183.32552083333266,"velocity":0.7244094488188977,"duration":1.0611979166666572},{"name":"D#3","midi":51,"time":183.32552083333266,"velocity":0.7244094488188977,"duration":0.4231770833333428},{"name":"G3","midi":55,"time":183.75130208333266,"velocity":0.7244094488188977,"duration":0.4231770833333428},{"name":"C4","midi":60,"time":184.17708333333266,"velocity":0.7244094488188977,"duration":1.2682291666666288},{"name":"F5","midi":77,"time":184.38932291666598,"velocity":0.7244094488188977,"duration":0.2096354166666572},{"name":"G5","midi":79,"time":184.6015624999993,"velocity":0.7244094488188977,"duration":0.2096354166666572},{"name":"C3","midi":48,"time":184.6015624999993,"velocity":0.7244094488188977,"duration":0.4205729166666572},{"name":"D#5","midi":75,"time":184.8138020833326,"velocity":0.7244094488188977,"duration":0.20963541666668561},{"name":"D5","midi":74,"time":185.02473958333263,"velocity":0.7244094488188977,"duration":0.2096354166666572},{"name":"D#3","midi":51,"time":185.02473958333263,"velocity":0.7244094488188977,"duration":0.4205729166666572},{"name":"C5","midi":72,"time":185.23697916666595,"velocity":0.7244094488188977,"duration":0.20963541666668561},{"name":"C4","midi":60,"time":185.4492187499993,"velocity":0.7244094488188977,"duration":1.3268229166666856},{"name":"F3","midi":53,"time":185.4492187499993,"velocity":0.7244094488188977,"duration":1.6966145833333428},{"name":"F4","midi":65,"time":185.66145833333263,"velocity":0.7244094488188977,"duration":1.1171875},{"name":"A4","midi":69,"time":185.87239583333263,"velocity":0.7244094488188977,"duration":1.0611979166666572},{"name":"C3","midi":48,"time":185.87239583333263,"velocity":0.7244094488188977,"duration":0.4231770833333428},{"name":"A2","midi":45,"time":186.29817708333263,"velocity":0.7244094488188977,"duration":0.4231770833333428},{"name":"F2","midi":41,"time":186.72395833333263,"velocity":0.7244094488188977,"duration":0.4205729166666572},{"name":"C5","midi":72,"time":186.93619791666595,"velocity":0.7244094488188977,"duration":0.20963541666668561},{"name":"D5","midi":74,"time":187.1484374999993,"velocity":0.7244094488188977,"duration":0.2096354166666572},{"name":"F3","midi":53,"time":187.1484374999993,"velocity":0.7244094488188977,"duration":0.4205729166666572},{"name":"D#5","midi":75,"time":187.3606770833326,"velocity":0.7244094488188977,"duration":0.20963541666668561},{"name":"D5","midi":74,"time":187.57161458333263,"velocity":0.7244094488188977,"duration":0.2096354166666572},{"name":"D#3","midi":51,"time":187.57161458333263,"velocity":0.7244094488188977,"duration":0.4205729166666572},{"name":"D#5","midi":75,"time":187.78385416666595,"velocity":0.7244094488188977,"duration":0.20963541666668561},{"name":"F4","midi":65,"time":187.9960937499993,"velocity":0.7244094488188977,"duration":1.3255208333333712},{"name":"D3","midi":50,"time":187.9960937499993,"velocity":0.7244094488188977,"duration":1.6953125000000284},{"name":"A#4","midi":70,"time":188.20833333333263,"velocity":0.7244094488188977,"duration":1.1158854166666856},{"name":"D5","midi":74,"time":188.41927083333263,"velocity":0.7244094488188977,"duration":0.9049479166666856},{"name":"F3","midi":53,"time":188.41927083333263,"velocity":0.7244094488188977,"duration":0.4205729166666856},{"name":"F5","midi":77,"time":188.63151041666598,"velocity":0.7244094488188977,"duration":0.84765625},{"name":"A#3","midi":58,"time":188.84374999999932,"velocity":0.7244094488188977,"duration":0.4231770833333428},{"name":"D4","midi":62,"time":189.26953124999932,"velocity":0.7244094488188977,"duration":0.4205729166666572},{"name":"D#5","midi":75,"time":189.48177083333263,"velocity":0.7244094488188977,"duration":0.20963541666668561},{"name":"D5","midi":74,"time":189.69401041666598,"velocity":0.7244094488188977,"duration":0.2096354166666572},{"name":"F3","midi":53,"time":189.69401041666598,"velocity":0.7244094488188977,"duration":0.4205729166666572},{"name":"F5","midi":77,"time":189.90494791666598,"velocity":0.7244094488188977,"duration":0.2096354166666572},{"name":"A#4","midi":70,"time":190.1171874999993,"velocity":0.7244094488188977,"duration":0.2096354166666572},{"name":"D3","midi":50,"time":190.1171874999993,"velocity":0.7244094488188977,"duration":0.4205729166666572},{"name":"G#4","midi":68,"time":190.3294270833326,"velocity":0.7244094488188977,"duration":0.20963541666668561},{"name":"A#3","midi":58,"time":190.54166666666595,"velocity":0.7244094488188977,"duration":1.3268229166666856},{"name":"D#3","midi":51,"time":190.54166666666595,"velocity":0.7244094488188977,"duration":1.6966145833333712},{"name":"D#4","midi":63,"time":190.75260416666595,"velocity":0.7244094488188977,"duration":1.1171875000000284},{"name":"G4","midi":67,"time":190.9648437499993,"velocity":0.7244094488188977,"duration":1.0611979166666856},{"name":"A#2","midi":46,"time":190.9648437499993,"velocity":0.7244094488188977,"duration":0.4231770833333428},{"name":"G2","midi":43,"time":191.3906249999993,"velocity":0.7244094488188977,"duration":0.4231770833333428},{"name":"D#2","midi":39,"time":191.8164062499993,"velocity":0.7244094488188977,"duration":0.4205729166666856},{"name":"G4","midi":67,"time":192.02864583333263,"velocity":0.7244094488188977,"duration":0.20963541666668561},{"name":"A4","midi":69,"time":192.24088541666598,"velocity":0.7244094488188977,"duration":0.2096354166666572},{"name":"D#3","midi":51,"time":192.24088541666598,"velocity":0.7244094488188977,"duration":0.4205729166666572},{"name":"A#4","midi":70,"time":192.45182291666598,"velocity":0.7244094488188977,"duration":0.2096354166666572},{"name":"C5","midi":72,"time":192.6640624999993,"velocity":0.7244094488188977,"duration":0.2096354166666572},{"name":"D3","midi":50,"time":192.6640624999993,"velocity":0.7244094488188977,"duration":0.4205729166666572},{"name":"D5","midi":74,"time":192.8763020833326,"velocity":0.7244094488188977,"duration":0.20963541666668561},{"name":"D#5","midi":75,"time":193.08854166666595,"velocity":0.7244094488188977,"duration":0.2096354166666572},{"name":"C3","midi":48,"time":193.08854166666595,"velocity":0.7244094488188977,"duration":1.6927083333332575},{"name":"D5","midi":74,"time":193.29947916666595,"velocity":0.7244094488188977,"duration":0.2096354166666572},{"name":"D#5","midi":75,"time":193.51171874999926,"velocity":0.7244094488188977,"duration":0.2096354166666572},{"name":"D#3","midi":51,"time":193.51171874999926,"velocity":0.7244094488188977,"duration":0.4205729166666572},{"name":"G5","midi":79,"time":193.72395833333258,"velocity":0.7244094488188977,"duration":0.20963541666668561},{"name":"D5","midi":74,"time":193.93619791666592,"velocity":0.7244094488188977,"duration":0.2096354166666572},{"name":"G3","midi":55,"time":193.93619791666592,"velocity":0.7244094488188977,"duration":0.4205729166666572},{"name":"G5","midi":79,"time":194.14713541666592,"velocity":0.7244094488188977,"duration":0.2096354166666572},{"name":"C5","midi":72,"time":194.35937499999923,"velocity":0.7244094488188977,"duration":0.2096354166666572},{"name":"C4","midi":60,"time":194.35937499999923,"velocity":0.7244094488188977,"duration":1.6927083333332575},{"name":"G5","midi":79,"time":194.57161458333255,"velocity":0.7244094488188977,"duration":0.2096354166666572},{"name":"A#4","midi":70,"time":194.78385416666586,"velocity":0.7244094488188977,"duration":0.2096354166666572},{"name":"D3","midi":50,"time":194.78385416666586,"velocity":0.7244094488188977,"duration":0.4205729166666572},{"name":"A4","midi":69,"time":194.99479166666586,"velocity":0.7244094488188977,"duration":0.2096354166666572},{"name":"A#4","midi":70,"time":195.20703124999918,"velocity":0.7244094488188977,"duration":0.2096354166666572},{"name":"E3","midi":52,"time":195.20703124999918,"velocity":0.7244094488188977,"duration":0.4205729166666572},{"name":"G5","midi":79,"time":195.4192708333325,"velocity":0.7244094488188977,"duration":0.20963541666668561},{"name":"A4","midi":69,"time":195.63151041666583,"velocity":0.7244094488188977,"duration":0.2096354166666572},{"name":"F3","midi":53,"time":195.63151041666583,"velocity":0.7244094488188977,"duration":2.1184895833332575},{"name":"G4","midi":67,"time":195.84244791666583,"velocity":0.7244094488188977,"duration":0.2096354166666572},{"name":"A4","midi":69,"time":196.05468749999915,"velocity":0.7244094488188977,"duration":0.2096354166666572},{"name":"C4","midi":60,"time":196.05468749999915,"velocity":0.7244094488188977,"duration":0.4205729166666572},{"name":"C5","midi":72,"time":196.26692708333246,"velocity":0.7244094488188977,"duration":0.20963541666668561},{"name":"G4","midi":67,"time":196.4791666666658,"velocity":0.7244094488188977,"duration":0.2096354166666572},{"name":"D#4","midi":63,"time":196.4791666666658,"velocity":0.7244094488188977,"duration":0.4205729166666572},{"name":"C5","midi":72,"time":196.6901041666658,"velocity":0.7244094488188977,"duration":0.2096354166666572},{"name":"F4","midi":65,"time":196.90234374999912,"velocity":0.7244094488188977,"duration":0.2096354166666572},{"name":"C4","midi":60,"time":196.90234374999912,"velocity":0.7244094488188977,"duration":0.4205729166666572},{"name":"C5","midi":72,"time":197.11458333333243,"velocity":0.7244094488188977,"duration":0.20963541666668561},{"name":"D#4","midi":63,"time":197.32682291666578,"velocity":0.7244094488188977,"duration":0.2096354166666572},{"name":"A3","midi":57,"time":197.32682291666578,"velocity":0.7244094488188977,"duration":0.8385416666666288},{"name":"D4","midi":62,"time":197.53776041666578,"velocity":0.7244094488188977,"duration":0.2096354166666572},{"name":"D#4","midi":63,"time":197.7499999999991,"velocity":0.7244094488188977,"duration":0.2096354166666572},{"name":"F3","midi":53,"time":197.7499999999991,"velocity":0.7244094488188977,"duration":0.4205729166666572},{"name":"C5","midi":72,"time":197.9622395833324,"velocity":0.7244094488188977,"duration":0.20963541666668561},{"name":"D4","midi":62,"time":198.17447916666575,"velocity":0.7244094488188977,"duration":0.2096354166666572},{"name":"A#3","midi":58,"time":198.17447916666575,"velocity":0.7244094488188977,"duration":0.4205729166666572},{"name":"C4","midi":60,"time":198.38541666666575,"velocity":0.7244094488188977,"duration":0.2096354166666572},{"name":"D4","midi":62,"time":198.59765624999906,"velocity":0.7244094488188977,"duration":0.2096354166666572},{"name":"G3","midi":55,"time":198.59765624999906,"velocity":0.7244094488188977,"duration":0.4205729166666572},{"name":"F4","midi":65,"time":198.80989583333238,"velocity":0.7244094488188977,"duration":0.20963541666668561},{"name":"G4","midi":67,"time":199.02213541666572,"velocity":0.7244094488188977,"duration":0.2096354166666572},{"name":"D#3","midi":51,"time":199.02213541666572,"velocity":0.7244094488188977,"duration":0.4205729166666572},{"name":"A4","midi":69,"time":199.23307291666572,"velocity":0.7244094488188977,"duration":0.2096354166666572},{"name":"A#4","midi":70,"time":199.44531249999903,"velocity":0.7244094488188977,"duration":0.2096354166666572},{"name":"C3","midi":48,"time":199.44531249999903,"velocity":0.7244094488188977,"duration":0.4205729166666572},{"name":"C5","midi":72,"time":199.65755208333235,"velocity":0.7244094488188977,"duration":0.20963541666668561},{"name":"D5","midi":74,"time":199.8697916666657,"velocity":0.7244094488188977,"duration":0.2096354166666572},{"name":"F3","midi":53,"time":199.8697916666657,"velocity":0.7244094488188977,"duration":0.8385416666666288},{"name":"A#4","midi":70,"time":200.0807291666657,"velocity":0.7244094488188977,"duration":0.2096354166666572},{"name":"A4","midi":69,"time":200.292968749999,"velocity":0.7244094488188977,"duration":0.2096354166666572},{"name":"F2","midi":41,"time":200.292968749999,"velocity":0.7244094488188977,"duration":0.4205729166666572},{"name":"C5","midi":72,"time":200.50520833333232,"velocity":0.7244094488188977,"duration":0.20963541666668561},{"name":"A#4","midi":70,"time":200.71744791666566,"velocity":0.7244094488188977,"duration":1.0585937499999432},{"name":"A#2","midi":46,"time":200.71744791666566,"velocity":0.7244094488188977,"duration":2.1210937499999716},{"name":"F4","midi":65,"time":200.92838541666566,"velocity":0.7244094488188977,"duration":0.2096354166666572},{"name":"G4","midi":67,"time":201.14062499999898,"velocity":0.7244094488188977,"duration":0.2096354166666572},{"name":"D#3","midi":51,"time":201.14062499999898,"velocity":0.7244094488188977,"duration":0.8385416666666288},{"name":"D#4","midi":63,"time":201.3528645833323,"velocity":0.7244094488188977,"duration":0.2096354166666572},{"name":"C4","midi":60,"time":201.5651041666656,"velocity":0.7244094488188977,"duration":0.4192708333333428},{"name":"F#3","midi":54,"time":201.5651041666656,"velocity":0.7244094488188977,"duration":0.4205729166666856},{"name":"A4","midi":69,"time":201.7760416666656,"velocity":0.7244094488188977,"duration":0.20963541666668561},{"name":"D4","midi":62,"time":201.98828124999895,"velocity":0.7244094488188977,"duration":1.0611979166666856},{"name":"F3","midi":53,"time":201.98828124999895,"velocity":0.7244094488188977,"duration":1.2708333333333428},{"name":"F4","midi":65,"time":202.2005208333323,"velocity":0.7244094488188977,"duration":0.8515625},{"name":"A#4","midi":70,"time":202.41276041666563,"velocity":0.7244094488188977,"duration":0.6354166666666572},{"name":"F5","midi":77,"time":203.04947916666563,"velocity":0.7244094488188977,"duration":0.2096354166666572},{"name":"A#4","midi":70,"time":203.26171874999895,"velocity":0.7244094488188977,"duration":1.3268229166666856},{"name":"A#2","midi":46,"time":203.26171874999895,"velocity":0.7244094488188977,"duration":1.6966145833333428},{"name":"D5","midi":74,"time":203.4739583333323,"velocity":0.7244094488188977,"duration":1.1171875},{"name":"F5","midi":77,"time":203.68619791666563,"velocity":0.7244094488188977,"duration":1.0611979166666572},{"name":"D3","midi":50,"time":203.68619791666563,"velocity":0.7244094488188977,"duration":0.4231770833333428},{"name":"F3","midi":53,"time":204.11197916666563,"velocity":0.7244094488188977,"duration":0.4231770833333428},{"name":"A#3","midi":58,"time":204.53776041666563,"velocity":0.7244094488188977,"duration":0.4205729166666572},{"name":"D5","midi":74,"time":204.74999999999895,"velocity":0.7244094488188977,"duration":0.20963541666668561},{"name":"C5","midi":72,"time":204.96093749999898,"velocity":0.7244094488188977,"duration":0.2096354166666572},{"name":"A#2","midi":46,"time":204.96093749999898,"velocity":0.7244094488188977,"duration":0.4205729166666572},{"name":"A#4","midi":70,"time":205.1731770833323,"velocity":0.7244094488188977,"duration":0.20963541666668561},{"name":"C5","midi":72,"time":205.38541666666563,"velocity":0.7244094488188977,"duration":0.2096354166666572},{"name":"G#2","midi":44,"time":205.38541666666563,"velocity":0.7244094488188977,"duration":0.4205729166666572},{"name":"D5","midi":74,"time":205.59765624999895,"velocity":0.7244094488188977,"duration":0.20963541666668561},{"name":"D#4","midi":63,"time":205.80859374999898,"velocity":0.7244094488188977,"duration":1.3255208333333712},{"name":"G2","midi":43,"time":205.80859374999898,"velocity":0.7244094488188977,"duration":1.6953125000000568},{"name":"G4","midi":67,"time":206.02083333333232,"velocity":0.7244094488188977,"duration":1.1158854166666856},{"name":"A#4","midi":70,"time":206.23307291666566,"velocity":0.7244094488188977,"duration":0.9049479166666856},{"name":"A#2","midi":46,"time":206.23307291666566,"velocity":0.7244094488188977,"duration":0.4205729166666856},{"name":"D#5","midi":75,"time":206.445312499999,"velocity":0.7244094488188977,"duration":0.84765625},{"name":"D#3","midi":51,"time":206.656249999999,"velocity":0.7244094488188977,"duration":0.4231770833333428},{"name":"G3","midi":55,"time":207.082031249999,"velocity":0.7244094488188977,"duration":0.4205729166666856},{"name":"D5","midi":74,"time":207.29427083333235,"velocity":0.7244094488188977,"duration":0.20963541666668561},{"name":"D#5","midi":75,"time":207.5065104166657,"velocity":0.7244094488188977,"duration":0.2096354166666572},{"name":"F3","midi":53,"time":207.5065104166657,"velocity":0.7244094488188977,"duration":0.4205729166666572},{"name":"F5","midi":77,"time":207.718749999999,"velocity":0.7244094488188977,"duration":0.20963541666668561},{"name":"G5","midi":79,"time":207.92968749999903,"velocity":0.7244094488188977,"duration":0.2096354166666572},{"name":"D#3","midi":51,"time":207.92968749999903,"velocity":0.7244094488188977,"duration":0.4205729166666572},{"name":"D#5","midi":75,"time":208.14192708333235,"velocity":0.7244094488188977,"duration":0.20963541666668561},{"name":"C5","midi":72,"time":208.3541666666657,"velocity":0.7244094488188977,"duration":0.2096354166666572},{"name":"G#2","midi":44,"time":208.3541666666657,"velocity":0.7244094488188977,"duration":0.4205729166666572},{"name":"B4","midi":71,"time":208.566406249999,"velocity":0.7244094488188977,"duration":0.20963541666668561},{"name":"C5","midi":72,"time":208.77734374999903,"velocity":0.7244094488188977,"duration":0.2096354166666572},{"name":"G#3","midi":56,"time":208.77734374999903,"velocity":0.7244094488188977,"duration":0.4205729166666572},{"name":"D#5","midi":75,"time":208.98958333333235,"velocity":0.7244094488188977,"duration":0.20963541666668561},{"name":"F5","midi":77,"time":209.2018229166657,"velocity":0.7244094488188977,"duration":0.2096354166666572},{"name":"G3","midi":55,"time":209.2018229166657,"velocity":0.7244094488188977,"duration":0.4205729166666572},{"name":"G5","midi":79,"time":209.414062499999,"velocity":0.7244094488188977,"duration":0.20963541666668561},{"name":"G#5","midi":80,"time":209.62499999999903,"velocity":0.7244094488188977,"duration":0.2096354166666572},{"name":"F3","midi":53,"time":209.62499999999903,"velocity":0.7244094488188977,"duration":0.4205729166666572},{"name":"F5","midi":77,"time":209.83723958333235,"velocity":0.7244094488188977,"duration":0.20963541666668561},{"name":"D5","midi":74,"time":210.0494791666657,"velocity":0.7244094488188977,"duration":0.2096354166666572},{"name":"D#3","midi":51,"time":210.0494791666657,"velocity":0.7244094488188977,"duration":0.4205729166666572},{"name":"D#5","midi":75,"time":210.261718749999,"velocity":0.7244094488188977,"duration":0.20963541666668561},{"name":"F5","midi":77,"time":210.47265624999903,"velocity":0.7244094488188977,"duration":0.2096354166666572},{"name":"D3","midi":50,"time":210.47265624999903,"velocity":0.7244094488188977,"duration":0.4205729166666572},{"name":"D5","midi":74,"time":210.68489583333235,"velocity":0.7244094488188977,"duration":0.20963541666668561},{"name":"C5","midi":72,"time":210.8971354166657,"velocity":0.7244094488188977,"duration":0.2096354166666572},{"name":"G2","midi":43,"time":210.8971354166657,"velocity":0.7244094488188977,"duration":0.4205729166666572},{"name":"B4","midi":71,"time":211.109374999999,"velocity":0.7244094488188977,"duration":0.20963541666668561},{"name":"C5","midi":72,"time":211.32031249999903,"velocity":0.7244094488188977,"duration":0.2096354166666572},{"name":"G3","midi":55,"time":211.32031249999903,"velocity":0.7244094488188977,"duration":0.4205729166666572},{"name":"D5","midi":74,"time":211.53255208333235,"velocity":0.7244094488188977,"duration":0.20963541666668561},{"name":"C5","midi":72,"time":211.7447916666657,"velocity":0.7244094488188977,"duration":0.2096354166666572},{"name":"A3","midi":57,"time":211.7447916666657,"velocity":0.7244094488188977,"duration":0.4205729166666572},{"name":"B4","midi":71,"time":211.957031249999,"velocity":0.7244094488188977,"duration":0.20963541666668561},{"name":"A4","midi":69,"time":212.16796874999903,"velocity":0.7244094488188977,"duration":0.2096354166666572},{"name":"B3","midi":59,"time":212.16796874999903,"velocity":0.7244094488188977,"duration":0.4205729166666572},{"name":"G4","midi":67,"time":212.38020833333235,"velocity":0.7244094488188977,"duration":0.20963541666668561},{"name":"G5","midi":79,"time":212.5924479166657,"velocity":0.7244094488188977,"duration":0.10416666666665719},{"name":"C4","midi":60,"time":212.5924479166657,"velocity":0.7244094488188977,"duration":0.21093749999997158},{"name":"F5","midi":77,"time":212.699218749999,"velocity":0.7244094488188977,"duration":0.10416666666665719},{"name":"G5","midi":79,"time":212.80598958333232,"velocity":0.7244094488188977,"duration":0.4205729166666572},{"name":"B3","midi":59,"time":212.80598958333232,"velocity":0.7244094488188977,"duration":0.2096354166666572},{"name":"A3","midi":57,"time":213.01822916666563,"velocity":0.7244094488188977,"duration":0.20963541666668561},{"name":"F5","midi":77,"time":213.23046874999898,"velocity":0.7244094488188977,"duration":0.2096354166666572},{"name":"G3","midi":55,"time":213.23046874999898,"velocity":0.7244094488188977,"duration":0.2096354166666572},{"name":"E5","midi":76,"time":213.44140624999898,"velocity":0.7244094488188977,"duration":0.2096354166666572},{"name":"C4","midi":60,"time":213.44140624999898,"velocity":0.7244094488188977,"duration":0.4205729166666572},{"name":"D5","midi":74,"time":213.6536458333323,"velocity":0.7244094488188977,"duration":0.20963541666668561},{"name":"E5","midi":76,"time":213.86588541666563,"velocity":0.7244094488188977,"duration":0.2096354166666572},{"name":"C3","midi":48,"time":213.86588541666563,"velocity":0.7244094488188977,"duration":0.4205729166666572},{"name":"F5","midi":77,"time":214.07812499999895,"velocity":0.7244094488188977,"duration":0.20963541666668561},{"name":"G5","midi":79,"time":214.28906249999898,"velocity":0.7244094488188977,"duration":0.2096354166666572},{"name":"D3","midi":50,"time":214.28906249999898,"velocity":0.7244094488188977,"duration":0.4205729166666572},{"name":"E5","midi":76,"time":214.5013020833323,"velocity":0.7244094488188977,"duration":0.20963541666668561},{"name":"C5","midi":72,"time":214.71354166666563,"velocity":0.7244094488188977,"duration":0.2096354166666572},{"name":"E3","midi":52,"time":214.71354166666563,"velocity":0.7244094488188977,"duration":0.4205729166666572},{"name":"E5","midi":76,"time":214.92578124999895,"velocity":0.7244094488188977,"duration":0.20963541666668561},{"name":"G5","midi":79,"time":215.13671874999898,"velocity":0.7244094488188977,"duration":0.2096354166666572},{"name":"D3","midi":50,"time":215.13671874999898,"velocity":0.7244094488188977,"duration":0.4205729166666572},{"name":"A#5","midi":82,"time":215.3489583333323,"velocity":0.7244094488188977,"duration":0.20963541666668561},{"name":"G#5","midi":80,"time":215.56119791666563,"velocity":0.7244094488188977,"duration":0.2096354166666572},{"name":"C3","midi":48,"time":215.56119791666563,"velocity":0.7244094488188977,"duration":0.4205729166666572},{"name":"G5","midi":79,"time":215.77343749999895,"velocity":0.7244094488188977,"duration":0.20963541666668561},{"name":"G5","midi":79,"time":215.98437499999898,"velocity":0.7244094488188977,"duration":0.2096354166666572},{"name":"F3","midi":53,"time":215.98437499999898,"velocity":0.7244094488188977,"duration":0.2096354166666572},{"name":"G#5","midi":80,"time":216.1966145833323,"velocity":0.7244094488188977,"duration":0.10416666666665719},{"name":"E3","midi":52,"time":216.1966145833323,"velocity":0.7244094488188977,"duration":0.21093749999997158},{"name":"G5","midi":79,"time":216.3033854166656,"velocity":0.7244094488188977,"duration":0.10416666666665719},{"name":"G#5","midi":80,"time":216.41015624999892,"velocity":0.7244094488188977,"duration":0.2096354166666572},{"name":"F3","midi":53,"time":216.41015624999892,"velocity":0.7244094488188977,"duration":0.2096354166666572},{"name":"G5","midi":79,"time":216.62239583333223,"velocity":0.7244094488188977,"duration":0.2096354166666572},{"name":"G3","midi":55,"time":216.62239583333223,"velocity":0.7244094488188977,"duration":0.2096354166666572},{"name":"F5","midi":77,"time":216.83463541666555,"velocity":0.7244094488188977,"duration":0.2096354166666572},{"name":"G#3","midi":56,"time":216.83463541666555,"velocity":0.7244094488188977,"duration":0.2096354166666572},{"name":"D#5","midi":75,"time":217.04687499999886,"velocity":0.7244094488188977,"duration":0.2096354166666572},{"name":"F3","midi":53,"time":217.04687499999886,"velocity":0.7244094488188977,"duration":0.2096354166666572},{"name":"C#5","midi":73,"time":217.25781249999886,"velocity":0.7244094488188977,"duration":0.2096354166666572},{"name":"A#3","midi":58,"time":217.25781249999886,"velocity":0.7244094488188977,"duration":0.4205729166666572},{"name":"C5","midi":72,"time":217.47005208333218,"velocity":0.7244094488188977,"duration":0.20963541666668561},{"name":"C#5","midi":73,"time":217.68229166666552,"velocity":0.7244094488188977,"duration":0.2096354166666572},{"name":"G#3","midi":56,"time":217.68229166666552,"velocity":0.7244094488188977,"duration":0.4205729166666572},{"name":"F5","midi":77,"time":217.89453124999883,"velocity":0.7244094488188977,"duration":0.20963541666668561},{"name":"A#5","midi":82,"time":218.10546874999886,"velocity":0.7244094488188977,"duration":0.2096354166666572},{"name":"G3","midi":55,"time":218.10546874999886,"velocity":0.7244094488188977,"duration":0.4205729166666572},{"name":"G5","midi":79,"time":218.31770833333218,"velocity":0.7244094488188977,"duration":0.20963541666668561},{"name":"F5","midi":77,"time":218.52994791666552,"velocity":0.7244094488188977,"duration":0.2096354166666572},{"name":"C4","midi":60,"time":218.52994791666552,"velocity":0.7244094488188977,"duration":0.6328124999999716},{"name":"E5","midi":76,"time":218.74218749999883,"velocity":0.7244094488188977,"duration":0.2096354166666572},{"name":"D5","midi":74,"time":218.95312499999883,"velocity":0.7244094488188977,"duration":0.2096354166666572},{"name":"C5","midi":72,"time":219.16536458333215,"velocity":0.7244094488188977,"duration":0.2096354166666572},{"name":"A#3","midi":58,"time":219.16536458333215,"velocity":0.7244094488188977,"duration":0.2096354166666572},{"name":"D5","midi":74,"time":219.37760416666546,"velocity":0.7244094488188977,"duration":0.2096354166666572},{"name":"G#3","midi":56,"time":219.37760416666546,"velocity":0.7244094488188977,"duration":0.2096354166666572},{"name":"E5","midi":76,"time":219.58984374999878,"velocity":0.7244094488188977,"duration":0.2096354166666572},{"name":"G3","midi":55,"time":219.58984374999878,"velocity":0.7244094488188977,"duration":0.2096354166666572},{"name":"F5","midi":77,"time":219.80078124999878,"velocity":0.7244094488188977,"duration":0.2096354166666572},{"name":"G#3","midi":56,"time":219.80078124999878,"velocity":0.7244094488188977,"duration":0.2096354166666572},{"name":"G#5","midi":80,"time":220.0130208333321,"velocity":0.7244094488188977,"duration":0.2096354166666572},{"name":"F3","midi":53,"time":220.0130208333321,"velocity":0.7244094488188977,"duration":0.2096354166666572},{"name":"G5","midi":79,"time":220.2252604166654,"velocity":0.7244094488188977,"duration":0.2096354166666572},{"name":"C4","midi":60,"time":220.2252604166654,"velocity":0.7244094488188977,"duration":0.4205729166666572},{"name":"F5","midi":77,"time":220.43749999999872,"velocity":0.7244094488188977,"duration":0.20963541666668561},{"name":"G5","midi":79,"time":220.64843749999875,"velocity":0.7244094488188977,"duration":0.2096354166666572},{"name":"C3","midi":48,"time":220.64843749999875,"velocity":0.7244094488188977,"duration":0.4205729166666572},{"name":"E5","midi":76,"time":220.86067708333206,"velocity":0.7244094488188977,"duration":0.20963541666668561},{"name":"E5","midi":76,"time":221.0729166666654,"velocity":0.7244094488188977,"duration":0.2096354166666572},{"name":"F3","midi":53,"time":221.0729166666654,"velocity":0.7244094488188977,"duration":0.2096354166666572},{"name":"F5","midi":77,"time":221.28515624999872,"velocity":0.7244094488188977,"duration":0.10416666666665719},{"name":"C3","midi":48,"time":221.28515624999872,"velocity":0.7244094488188977,"duration":0.21093749999997158},{"name":"E5","midi":76,"time":221.39192708333204,"velocity":0.7244094488188977,"duration":0.10416666666665719},{"name":"F5","midi":77,"time":221.49869791666535,"velocity":0.7244094488188977,"duration":1.0572916666666003},{"name":"A#2","midi":46,"time":221.49869791666535,"velocity":0.7244094488188977,"duration":0.2096354166666572},{"name":"G#2","midi":44,"time":221.71093749999866,"velocity":0.7244094488188977,"duration":0.2096354166666572},{"name":"A#2","midi":46,"time":221.92187499999866,"velocity":0.7244094488188977,"duration":0.2096354166666572},{"name":"C3","midi":48,"time":222.13411458333198,"velocity":0.7244094488188977,"duration":0.2096354166666572},{"name":"F2","midi":41,"time":222.3463541666653,"velocity":0.7244094488188977,"duration":0.4205729166666572},{"name":"G5","midi":79,"time":222.5585937499986,"velocity":0.7244094488188977,"duration":0.20963541666668561},{"name":"G#5","midi":80,"time":222.76953124999864,"velocity":0.7244094488188977,"duration":0.2096354166666572},{"name":"F3","midi":53,"time":222.76953124999864,"velocity":0.7244094488188977,"duration":0.4205729166666572},{"name":"F5","midi":77,"time":222.98177083333195,"velocity":0.7244094488188977,"duration":0.20963541666668561},{"name":"G5","midi":79,"time":223.1940104166653,"velocity":0.7244094488188977,"duration":0.2096354166666572},{"name":"G#3","midi":56,"time":223.1940104166653,"velocity":0.7244094488188977,"duration":0.4205729166666572},{"name":"D#5","midi":75,"time":223.4062499999986,"velocity":0.7244094488188977,"duration":0.20963541666668561},{"name":"D5","midi":74,"time":223.61718749999864,"velocity":0.7244094488188977,"duration":0.2096354166666572},{"name":"A#3","midi":58,"time":223.61718749999864,"velocity":0.7244094488188977,"duration":0.4205729166666572},{"name":"D#5","midi":75,"time":223.82942708333195,"velocity":0.7244094488188977,"duration":0.20963541666668561},{"name":"F5","midi":77,"time":224.0416666666653,"velocity":0.7244094488188977,"duration":0.2096354166666572},{"name":"A#2","midi":46,"time":224.0416666666653,"velocity":0.7244094488188977,"duration":0.4205729166666572},{"name":"D5","midi":74,"time":224.2539062499986,"velocity":0.7244094488188977,"duration":0.20963541666668561},{"name":"D#5","midi":75,"time":224.46484374999864,"velocity":0.7244094488188977,"duration":0.2096354166666572},{"name":"C3","midi":48,"time":224.46484374999864,"velocity":0.7244094488188977,"duration":0.4205729166666572},{"name":"C5","midi":72,"time":224.67708333333195,"velocity":0.7244094488188977,"duration":0.20963541666668561},{"name":"A#4","midi":70,"time":224.8893229166653,"velocity":0.7244094488188977,"duration":0.4192708333333428},{"name":"D3","midi":50,"time":224.8893229166653,"velocity":0.7244094488188977,"duration":0.4205729166666856},{"name":"F5","midi":77,"time":225.10156249999864,"velocity":0.7244094488188977,"duration":0.20963541666668561},{"name":"G#4","midi":68,"time":225.31249999999866,"velocity":0.7244094488188977,"duration":0.2096354166666572},{"name":"C3","midi":48,"time":225.31249999999866,"velocity":0.7244094488188977,"duration":0.4205729166666572},{"name":"G4","midi":67,"time":225.52473958333198,"velocity":0.7244094488188977,"duration":0.20963541666668561},{"name":"G#4","midi":68,"time":225.73697916666532,"velocity":0.7244094488188977,"duration":0.2096354166666572},{"name":"A#2","midi":46,"time":225.73697916666532,"velocity":0.7244094488188977,"duration":0.4205729166666572},{"name":"A#4","midi":70,"time":225.94921874999864,"velocity":0.7244094488188977,"duration":0.20963541666668561},{"name":"G4","midi":67,"time":226.16015624999866,"velocity":0.7244094488188977,"duration":0.2096354166666572},{"name":"D#3","midi":51,"time":226.16015624999866,"velocity":0.7244094488188977,"duration":0.4205729166666572},{"name":"G#4","midi":68,"time":226.37239583333198,"velocity":0.7244094488188977,"duration":0.20963541666668561},{"name":"A#4","midi":70,"time":226.58463541666532,"velocity":0.7244094488188977,"duration":0.2096354166666572},{"name":"D#2","midi":39,"time":226.58463541666532,"velocity":0.7244094488188977,"duration":0.4205729166666572},{"name":"C5","midi":72,"time":226.79687499999864,"velocity":0.7244094488188977,"duration":0.20963541666668561},{"name":"C#5","midi":73,"time":227.00781249999866,"velocity":0.7244094488188977,"duration":0.10416666666665719},{"name":"F2","midi":41,"time":227.00781249999866,"velocity":0.7244094488188977,"duration":0.4231770833333144},{"name":"C5","midi":72,"time":227.11588541666532,"velocity":0.7244094488188977,"duration":0.10416666666665719},{"name":"C#5","midi":73,"time":227.22265624999864,"velocity":0.7244094488188977,"duration":0.4192708333333428},{"name":"G2","midi":43,"time":227.43489583333198,"velocity":0.7244094488188977,"duration":1.2682291666666288},{"name":"A#5","midi":82,"time":227.64583333333198,"velocity":0.7244094488188977,"duration":0.2096354166666572},{"name":"D#5","midi":75,"time":227.8580729166653,"velocity":0.7244094488188977,"duration":0.2096354166666572},{"name":"A#2","midi":46,"time":227.8580729166653,"velocity":0.7244094488188977,"duration":0.4205729166666572},{"name":"C5","midi":72,"time":228.0703124999986,"velocity":0.7244094488188977,"duration":0.20963541666668561},{"name":"C#5","midi":73,"time":228.28255208333195,"velocity":0.7244094488188977,"duration":0.2096354166666572},{"name":"D#3","midi":51,"time":228.28255208333195,"velocity":0.7244094488188977,"duration":0.8385416666666288},{"name":"A#4","midi":70,"time":228.49348958333195,"velocity":0.7244094488188977,"duration":0.2096354166666572},{"name":"C5","midi":72,"time":228.70572916666526,"velocity":0.7244094488188977,"duration":0.2096354166666572},{"name":"G#2","midi":44,"time":228.70572916666526,"velocity":0.7244094488188977,"duration":0.4205729166666572},{"name":"A#4","midi":70,"time":228.91796874999858,"velocity":0.7244094488188977,"duration":0.20963541666668561},{"name":"C5","midi":72,"time":229.13020833333192,"velocity":0.7244094488188977,"duration":0.2096354166666572},{"name":"G#3","midi":56,"time":229.13020833333192,"velocity":0.7244094488188977,"duration":0.2096354166666572},{"name":"D#5","midi":75,"time":229.34114583333192,"velocity":0.7244094488188977,"duration":0.2096354166666572},{"name":"G3","midi":55,"time":229.34114583333192,"velocity":0.7244094488188977,"duration":0.2096354166666572},{"name":"G#5","midi":80,"time":229.55338541666524,"velocity":0.7244094488188977,"duration":0.10416666666665719},{"name":"F3","midi":53,"time":229.55338541666524,"velocity":0.7244094488188977,"duration":0.21093749999997158},{"name":"G5","midi":79,"time":229.66015624999855,"velocity":0.7244094488188977,"duration":0.10416666666665719},{"name":"G#5","midi":80,"time":229.76692708333186,"velocity":0.7244094488188977,"duration":0.4192708333333144},{"name":"D#3","midi":51,"time":229.76692708333186,"velocity":0.7244094488188977,"duration":0.2096354166666572},{"name":"D3","midi":50,"time":229.97916666666518,"velocity":0.7244094488188977,"duration":0.4205729166666856},{"name":"F5","midi":77,"time":230.19140624999852,"velocity":0.7244094488188977,"duration":0.20963541666668561},{"name":"G5","midi":79,"time":230.40364583333186,"velocity":0.7244094488188977,"duration":0.2096354166666572},{"name":"D#3","midi":51,"time":230.40364583333186,"velocity":0.7244094488188977,"duration":0.4205729166666572},{"name":"C6","midi":84,"time":230.61458333333186,"velocity":0.7244094488188977,"duration":0.2096354166666572},{"name":"F5","midi":77,"time":230.82682291666518,"velocity":0.7244094488188977,"duration":0.2096354166666572},{"name":"G#3","midi":56,"time":230.82682291666518,"velocity":0.7244094488188977,"duration":0.4205729166666572},{"name":"D5","midi":74,"time":231.0390624999985,"velocity":0.7244094488188977,"duration":0.20963541666668561},{"name":"D#5","midi":75,"time":231.25130208333184,"velocity":0.7244094488188977,"duration":0.2096354166666572},{"name":"A#3","midi":58,"time":231.25130208333184,"velocity":0.7244094488188977,"duration":0.4205729166666572},{"name":"C5","midi":72,"time":231.46223958333184,"velocity":0.7244094488188977,"duration":0.2096354166666572},{"name":"D5","midi":74,"time":231.67447916666515,"velocity":0.7244094488188977,"duration":0.2096354166666572},{"name":"A#2","midi":46,"time":231.67447916666515,"velocity":0.7244094488188977,"duration":0.4205729166666572},{"name":"F5","midi":77,"time":231.88671874999847,"velocity":0.7244094488188977,"duration":0.20963541666668561},{"name":"C5","midi":72,"time":232.0989583333318,"velocity":0.7244094488188977,"duration":0.2096354166666572},{"name":"C3","midi":48,"time":232.0989583333318,"velocity":0.7244094488188977,"duration":0.4205729166666572},{"name":"A4","midi":69,"time":232.3098958333318,"velocity":0.7244094488188977,"duration":0.2096354166666572},{"name":"A4","midi":69,"time":232.52213541666512,"velocity":0.7244094488188977,"duration":0.2096354166666572},{"name":"D3","midi":50,"time":232.52213541666512,"velocity":0.7244094488188977,"duration":0.2096354166666572},{"name":"A#4","midi":70,"time":232.73437499999844,"velocity":0.7244094488188977,"duration":0.10416666666665719},{"name":"A#2","midi":46,"time":232.73437499999844,"velocity":0.7244094488188977,"duration":0.21093749999997158},{"name":"A4","midi":69,"time":232.84114583333175,"velocity":0.7244094488188977,"duration":0.10416666666665719},{"name":"A#4","midi":70,"time":232.94791666666507,"velocity":0.7244094488188977,"duration":1.0572916666666003},{"name":"C3","midi":48,"time":232.94791666666507,"velocity":0.7244094488188977,"duration":0.2096354166666572},{"name":"D3","midi":50,"time":233.16015624999838,"velocity":0.7244094488188977,"duration":0.2096354166666572},{"name":"D#3","midi":51,"time":233.3723958333317,"velocity":0.7244094488188977,"duration":0.2096354166666572},{"name":"F3","midi":53,"time":233.5833333333317,"velocity":0.7244094488188977,"duration":0.2096354166666572},{"name":"G3","midi":55,"time":233.795572916665,"velocity":0.7244094488188977,"duration":1.4804687499999147},{"name":"G#4","midi":68,"time":234.00781249999832,"velocity":0.7244094488188977,"duration":0.2096354166666572},{"name":"A#4","midi":70,"time":234.22005208333164,"velocity":0.7244094488188977,"duration":0.2096354166666572},{"name":"C#5","midi":73,"time":234.43098958333164,"velocity":0.7244094488188977,"duration":0.2096354166666572},{"name":"C5","midi":72,"time":234.64322916666495,"velocity":0.7244094488188977,"duration":0.2096354166666572},{"name":"D#5","midi":75,"time":234.85546874999827,"velocity":0.7244094488188977,"duration":0.2096354166666572},{"name":"C#5","midi":73,"time":235.06770833333158,"velocity":0.7244094488188977,"duration":0.20963541666668561},{"name":"A#4","midi":70,"time":235.2786458333316,"velocity":0.7244094488188977,"duration":0.2096354166666572},{"name":"F3","midi":53,"time":235.2786458333316,"velocity":0.7244094488188977,"duration":0.2096354166666572},{"name":"G4","midi":67,"time":235.49088541666492,"velocity":0.7244094488188977,"duration":0.2096354166666572},{"name":"D#3","midi":51,"time":235.49088541666492,"velocity":0.7244094488188977,"duration":0.2096354166666572},{"name":"D#4","midi":63,"time":235.70312499999824,"velocity":0.7244094488188977,"duration":0.2096354166666572},{"name":"F3","midi":53,"time":235.70312499999824,"velocity":0.7244094488188977,"duration":0.2096354166666572},{"name":"C#5","midi":73,"time":235.91536458333155,"velocity":0.7244094488188977,"duration":0.10416666666665719},{"name":"G3","midi":55,"time":235.91536458333155,"velocity":0.7244094488188977,"duration":0.21093749999997158},{"name":"C5","midi":72,"time":236.02213541666487,"velocity":0.7244094488188977,"duration":0.10416666666665719},{"name":"C#5","midi":73,"time":236.12890624999818,"velocity":0.7244094488188977,"duration":0.4205729166666572},{"name":"D#3","midi":51,"time":236.12890624999818,"velocity":0.7244094488188977,"duration":0.2096354166666572},{"name":"G#3","midi":56,"time":236.3411458333315,"velocity":0.7244094488188977,"duration":1.2682291666666003},{"name":"A#4","midi":70,"time":236.5520833333315,"velocity":0.7244094488188977,"duration":0.2096354166666572},{"name":"C5","midi":72,"time":236.7643229166648,"velocity":0.7244094488188977,"duration":0.2096354166666572},{"name":"D#5","midi":75,"time":236.97656249999812,"velocity":0.7244094488188977,"duration":0.2096354166666572},{"name":"D5","midi":74,"time":237.18880208333144,"velocity":0.7244094488188977,"duration":0.2096354166666572},{"name":"F5","midi":77,"time":237.39973958333144,"velocity":0.7244094488188977,"duration":0.2096354166666572},{"name":"D#5","midi":75,"time":237.61197916666475,"velocity":0.7244094488188977,"duration":0.2096354166666572},{"name":"A3","midi":57,"time":237.61197916666475,"velocity":0.7244094488188977,"duration":0.2096354166666572},{"name":"C5","midi":72,"time":237.82421874999807,"velocity":0.7244094488188977,"duration":0.2096354166666572},{"name":"G3","midi":55,"time":237.82421874999807,"velocity":0.7244094488188977,"duration":0.2096354166666572},{"name":"A4","midi":69,"time":238.03645833333138,"velocity":0.7244094488188977,"duration":0.2096354166666572},{"name":"F3","midi":53,"time":238.03645833333138,"velocity":0.7244094488188977,"duration":0.2096354166666572},{"name":"F4","midi":65,"time":238.24739583333138,"velocity":0.7244094488188977,"duration":0.2096354166666572},{"name":"G3","midi":55,"time":238.24739583333138,"velocity":0.7244094488188977,"duration":0.2096354166666572},{"name":"D#5","midi":75,"time":238.4596354166647,"velocity":0.7244094488188977,"duration":0.10416666666665719},{"name":"A3","midi":57,"time":238.4596354166647,"velocity":0.7244094488188977,"duration":0.21093749999997158},{"name":"D5","midi":74,"time":238.566406249998,"velocity":0.7244094488188977,"duration":0.10416666666665719},{"name":"D#5","midi":75,"time":238.67317708333132,"velocity":0.7244094488188977,"duration":0.4205729166666572},{"name":"F3","midi":53,"time":238.67317708333132,"velocity":0.7244094488188977,"duration":0.2096354166666572},{"name":"A#3","midi":58,"time":238.88541666666464,"velocity":0.7244094488188977,"duration":0.4205729166666856},{"name":"C5","midi":72,"time":239.09765624999798,"velocity":0.7244094488188977,"duration":0.20963541666668561},{"name":"D5","midi":74,"time":239.30989583333132,"velocity":0.7244094488188977,"duration":0.2096354166666572},{"name":"A#2","midi":46,"time":239.30989583333132,"velocity":0.7244094488188977,"duration":0.4205729166666572},{"name":"F5","midi":77,"time":239.52083333333132,"velocity":0.7244094488188977,"duration":0.2096354166666572},{"name":"A#4","midi":70,"time":239.73307291666464,"velocity":0.7244094488188977,"duration":0.2096354166666572},{"name":"D3","midi":50,"time":239.73307291666464,"velocity":0.7244094488188977,"duration":0.4205729166666572},{"name":"G#4","midi":68,"time":239.94531249999795,"velocity":0.7244094488188977,"duration":0.20963541666668561},{"name":"G4","midi":67,"time":240.1575520833313,"velocity":0.7244094488188977,"duration":0.2096354166666572},{"name":"D#3","midi":51,"time":240.1575520833313,"velocity":0.7244094488188977,"duration":0.4205729166666572},{"name":"C5","midi":72,"time":240.3684895833313,"velocity":0.7244094488188977,"duration":0.2096354166666572},{"name":"A#4","midi":70,"time":240.5807291666646,"velocity":0.7244094488188977,"duration":0.2096354166666572},{"name":"G2","midi":43,"time":240.5807291666646,"velocity":0.7244094488188977,"duration":0.4205729166666572},{"name":"G4","midi":67,"time":240.79296874999793,"velocity":0.7244094488188977,"duration":0.20963541666668561},{"name":"G#4","midi":68,"time":241.00520833333127,"velocity":0.7244094488188977,"duration":0.2096354166666572},{"name":"A#2","midi":46,"time":241.00520833333127,"velocity":0.7244094488188977,"duration":0.4205729166666572},{"name":"F4","midi":65,"time":241.21614583333127,"velocity":0.7244094488188977,"duration":0.2096354166666572},{"name":"F4","midi":65,"time":241.42838541666458,"velocity":0.7244094488188977,"duration":0.2330729166666572},{"name":"D#2","midi":39,"time":241.42838541666458,"velocity":0.7244094488188977,"duration":4.296875000000028},{"name":"D#4","midi":63,"time":241.66536458333124,"velocity":0.7244094488188977,"duration":0.11458333333334281},{"name":"F4","midi":65,"time":241.78124999999793,"velocity":0.7244094488188977,"duration":0.11458333333334281},{"name":"D#4","midi":63,"time":241.89843749999793,"velocity":0.7244094488188977,"duration":0.11458333333334281},{"name":"G2","midi":43,"time":241.89843749999793,"velocity":0.7244094488188977,"duration":0.4661458333333428},{"name":"F4","midi":65,"time":242.01562499999793,"velocity":0.7244094488188977,"duration":0.11458333333334281},{"name":"D#4","midi":63,"time":242.13281249999793,"velocity":0.7244094488188977,"duration":0.11458333333334281},{"name":"F4","midi":65,"time":242.24999999999793,"velocity":0.7244094488188977,"duration":0.11458333333334281},{"name":"D#4","midi":63,"time":242.36718749999793,"velocity":0.7244094488188977,"duration":3.6458333333333712},{"name":"A#2","midi":46,"time":242.36718749999793,"velocity":0.7244094488188977,"duration":0.4700520833333428},{"name":"D#3","midi":51,"time":242.83984374999793,"velocity":0.7244094488188977,"duration":2.9947916666666856},{"name":"G3","midi":55,"time":242.93880208333127,"velocity":0.7244094488188977,"duration":2.9947916666666856},{"name":"A#3","midi":58,"time":243.0377604166646,"velocity":0.7244094488188977,"duration":2.9947916666666856},{"name":"D#3","midi":51,"time":248.59244791666464,"velocity":0.7244094488188977,"duration":0.4700520833333428},{"name":"D#4","midi":63,"time":248.59244791666464,"velocity":0.7244094488188977,"duration":0.6875000000000284},{"name":"G4","midi":67,"time":248.59244791666464,"velocity":0.7244094488188977,"duration":0.15494791666668561},{"name":"F4","midi":65,"time":248.71093749999798,"velocity":0.7244094488188977,"duration":0.15234375},{"name":"G4","midi":67,"time":248.82812499999798,"velocity":0.7244094488188977,"duration":0.4700520833333428},{"name":"D#3","midi":51,"time":249.06380208333132,"velocity":0.7244094488188977,"duration":0.4700520833333144},{"name":"G#4","midi":68,"time":249.30078124999798,"velocity":0.7244094488188977,"duration":0.2330729166666572},{"name":"F4","midi":65,"time":249.30078124999798,"velocity":0.7244094488188977,"duration":0.2330729166666572},{"name":"D#3","midi":51,"time":249.5364583333313,"velocity":0.7244094488188977,"duration":0.4674479166666572},{"name":"G#4","midi":68,"time":249.5364583333313,"velocity":0.7244094488188977,"duration":0.24609375},{"name":"F4","midi":65,"time":249.5364583333313,"velocity":0.7244094488188977,"duration":0.24609375},{"name":"G4","midi":67,"time":249.77213541666464,"velocity":0.7244094488188977,"duration":0.6861979166666288},{"name":"A#4","midi":70,"time":249.77213541666464,"velocity":0.7244094488188977,"duration":0.11458333333331439},{"name":"G#4","midi":68,"time":249.8893229166646,"velocity":0.7244094488188977,"duration":0.11458333333334281},{"name":"D#3","midi":51,"time":250.0065104166646,"velocity":0.7244094488188977,"duration":0.4700520833333144},{"name":"A#4","midi":70,"time":250.0065104166646,"velocity":0.7244094488188977,"duration":0.4700520833333144},{"name":"D#3","midi":51,"time":250.47916666666458,"velocity":0.7244094488188977,"duration":0.4700520833333428},{"name":"G#4","midi":68,"time":250.47916666666458,"velocity":0.7244094488188977,"duration":0.9414062500000284},{"name":"C5","midi":72,"time":250.47916666666458,"velocity":0.7244094488188977,"duration":0.9882812500000284},{"name":"D#3","midi":51,"time":250.95052083333127,"velocity":0.7244094488188977,"duration":0.4700520833333428},{"name":"D#3","midi":51,"time":251.42317708333127,"velocity":0.7244094488188977,"duration":1.1757812499999432},{"name":"G#4","midi":68,"time":251.42317708333127,"velocity":0.7244094488188977,"duration":0.9322916666666288},{"name":"C#5","midi":73,"time":251.42317708333127,"velocity":0.7244094488188977,"duration":0.11458333333334281},{"name":"C5","midi":72,"time":251.54036458333127,"velocity":0.7244094488188977,"duration":0.11458333333334281},{"name":"A#4","midi":70,"time":251.65755208333127,"velocity":0.7244094488188977,"duration":0.2330729166666572},{"name":"C5","midi":72,"time":251.89322916666458,"velocity":0.7244094488188977,"duration":0.2330729166666572},{"name":"C#5","midi":73,"time":252.13020833333124,"velocity":0.7244094488188977,"duration":0.2330729166666572},{"name":"G4","midi":67,"time":252.36588541666455,"velocity":0.7244094488188977,"duration":1.8203124999999147},{"name":"C5","midi":72,"time":252.36588541666455,"velocity":0.7244094488188977,"duration":0.2330729166666572},{"name":"F3","midi":53,"time":252.60156249999787,"velocity":0.7244094488188977,"duration":0.23307291666668561},{"name":"A#4","midi":70,"time":252.60156249999787,"velocity":0.7244094488188977,"duration":0.11848958333334281},{"name":"C5","midi":72,"time":252.72135416666455,"velocity":0.7244094488188977,"duration":0.11588541666665719},{"name":"G3","midi":55,"time":252.83854166666455,"velocity":0.7244094488188977,"duration":0.2330729166666572},{"name":"A#4","midi":70,"time":252.83854166666455,"velocity":0.7244094488188977,"duration":1.4140624999999147},{"name":"G#3","midi":56,"time":253.07421874999787,"velocity":0.7244094488188977,"duration":0.2330729166666572},{"name":"G3","midi":55,"time":253.30989583333118,"velocity":0.7244094488188977,"duration":0.2330729166666572},{"name":"G#3","midi":56,"time":253.54687499999784,"velocity":0.7244094488188977,"duration":0.2330729166666572},{"name":"A#3","midi":58,"time":253.78255208333115,"velocity":0.7244094488188977,"duration":0.2330729166666572},{"name":"C4","midi":60,"time":254.01822916666447,"velocity":0.7244094488188977,"duration":0.2330729166666572},{"name":"A#3","midi":58,"time":254.25520833333113,"velocity":0.7244094488188977,"duration":0.4700520833333428},{"name":"A#4","midi":70,"time":254.25520833333113,"velocity":0.7244094488188977,"duration":0.7057291666666572},{"name":"D4","midi":62,"time":254.25520833333113,"velocity":0.7244094488188977,"duration":0.7057291666666572},{"name":"A#3","midi":58,"time":254.72786458333113,"velocity":0.7244094488188977,"duration":0.4700520833333144},{"name":"C5","midi":72,"time":254.96354166666444,"velocity":0.7244094488188977,"duration":0.2330729166666572},{"name":"D#4","midi":63,"time":254.96354166666444,"velocity":0.7244094488188977,"duration":0.2330729166666572},{"name":"A#3","midi":58,"time":255.19921874999778,"velocity":0.7244094488188977,"duration":0.4700520833333144},{"name":"C5","midi":72,"time":255.19921874999778,"velocity":0.7244094488188977,"duration":0.2330729166666572},{"name":"D#4","midi":63,"time":255.19921874999778,"velocity":0.7244094488188977,"duration":0.2330729166666572},{"name":"F4","midi":65,"time":255.43619791666444,"velocity":0.7244094488188977,"duration":0.7057291666666572},{"name":"D5","midi":74,"time":255.43619791666444,"velocity":0.7244094488188977,"duration":0.7057291666666572},{"name":"A#3","midi":58,"time":255.67187499999775,"velocity":0.7244094488188977,"duration":0.4700520833333428},{"name":"A#3","midi":58,"time":256.1445312499978,"velocity":0.7244094488188977,"duration":0.4700520833333144},{"name":"D#5","midi":75,"time":256.1445312499978,"velocity":0.7244094488188977,"duration":0.9414062499999432},{"name":"G4","midi":67,"time":256.1445312499978,"velocity":0.7244094488188977,"duration":0.9414062499999432},{"name":"A#3","midi":58,"time":256.6158854166644,"velocity":0.7244094488188977,"duration":0.4700520833333144},{"name":"A#3","midi":58,"time":257.0885416666644,"velocity":0.7244094488188977,"duration":1.1757812500001137},{"name":"G#4","midi":68,"time":257.0885416666644,"velocity":0.7244094488188977,"duration":0.11458333333331439},{"name":"D#5","midi":75,"time":257.0885416666644,"velocity":0.7244094488188977,"duration":0.9322916666667425},{"name":"G4","midi":67,"time":257.2057291666644,"velocity":0.7244094488188977,"duration":0.11458333333331439},{"name":"F4","midi":65,"time":257.3229166666644,"velocity":0.7244094488188977,"duration":0.23307291666668561},{"name":"G4","midi":67,"time":257.5585937499978,"velocity":0.7244094488188977,"duration":0.23307291666668561},{"name":"G#4","midi":68,"time":257.79557291666447,"velocity":0.7244094488188977,"duration":0.23307291666668561},{"name":"D5","midi":74,"time":258.03124999999784,"velocity":0.7244094488188977,"duration":1.817708333333428},{"name":"G4","midi":67,"time":258.03124999999784,"velocity":0.7244094488188977,"duration":0.47005208333337123},{"name":"C4","midi":60,"time":258.2669270833312,"velocity":0.7244094488188977,"duration":0.23307291666668561},{"name":"A#3","midi":58,"time":258.5039062499979,"velocity":0.7244094488188977,"duration":0.23177083333325754},{"name":"F4","midi":65,"time":258.5039062499979,"velocity":0.7244094488188977,"duration":0.11458333333331439},{"name":"G4","midi":67,"time":258.6197916666645,"velocity":0.7244094488188977,"duration":0.11458333333331439},{"name":"G#3","midi":56,"time":258.73697916666447,"velocity":0.7244094488188977,"duration":0.23307291666668561},{"name":"F4","midi":65,"time":258.73697916666447,"velocity":0.7244094488188977,"duration":1.1796875000001137},{"name":"A#3","midi":58,"time":258.97395833333115,"velocity":0.7244094488188977,"duration":0.23307291666668561},{"name":"G#3","midi":56,"time":259.2096354166645,"velocity":0.7244094488188977,"duration":0.23307291666668561},{"name":"G3","midi":55,"time":259.4453124999979,"velocity":0.7244094488188977,"duration":0.23307291666668561},{"name":"G#3","midi":56,"time":259.6822916666646,"velocity":0.7244094488188977,"duration":0.23307291666668561},{"name":"G3","midi":55,"time":259.9179687499979,"velocity":0.7244094488188977,"duration":0.4700520833333144},{"name":"D#5","midi":75,"time":259.9179687499979,"velocity":0.7244094488188977,"duration":0.7057291666666856},{"name":"G4","midi":67,"time":259.9179687499979,"velocity":0.7244094488188977,"duration":0.7057291666666856},{"name":"G3","midi":55,"time":260.3906249999979,"velocity":0.7244094488188977,"duration":0.47005208333337123},{"name":"F5","midi":77,"time":260.62630208333127,"velocity":0.7244094488188977,"duration":0.23307291666668561},{"name":"G#4","midi":68,"time":260.62630208333127,"velocity":0.7244094488188977,"duration":0.23307291666668561},{"name":"G3","midi":55,"time":260.86328124999795,"velocity":0.7244094488188977,"duration":0.47005208333337123},{"name":"G#4","midi":68,"time":260.86328124999795,"velocity":0.7244094488188977,"duration":0.23307291666668561},{"name":"F5","midi":77,"time":260.86328124999795,"velocity":0.7244094488188977,"duration":0.23307291666668561},{"name":"G5","midi":79,"time":261.0989583333313,"velocity":0.7244094488188977,"duration":0.4700520833333144},{"name":"A#4","midi":70,"time":261.0989583333313,"velocity":0.7244094488188977,"duration":0.4700520833333144},{"name":"G3","midi":55,"time":261.33463541666464,"velocity":0.7244094488188977,"duration":0.47005208333337123},{"name":"C5","midi":72,"time":261.5716145833313,"velocity":0.7244094488188977,"duration":0.23307291666668561},{"name":"G#5","midi":80,"time":261.5716145833313,"velocity":0.7244094488188977,"duration":0.23307291666668561},{"name":"G3","midi":55,"time":261.8072916666647,"velocity":0.7244094488188977,"duration":0.47005208333337123},{"name":"C5","midi":72,"time":261.8072916666647,"velocity":0.7244094488188977,"duration":0.4674479166666856},{"name":"G#5","midi":80,"time":261.8072916666647,"velocity":0.7244094488188977,"duration":0.4674479166666856},{"name":"G3","midi":55,"time":262.27994791666475,"velocity":0.7244094488188977,"duration":0.4700520833333144},{"name":"C#5","midi":73,"time":262.27994791666475,"velocity":0.7244094488188977,"duration":1.1796874999999432},{"name":"A#5","midi":82,"time":262.27994791666475,"velocity":0.7244094488188977,"duration":1.4140624999999432},{"name":"G#3","midi":56,"time":262.7513020833314,"velocity":0.7244094488188977,"duration":0.4700520833333144},{"name":"G#3","midi":56,"time":263.2239583333314,"velocity":0.7244094488188977,"duration":0.4700520833333144},{"name":"G#3","midi":56,"time":263.6966145833314,"velocity":0.7244094488188977,"duration":0.4700520833333144},{"name":"G#5","midi":80,"time":263.6966145833314,"velocity":0.7244094488188977,"duration":0.7057291666666288},{"name":"C5","midi":72,"time":263.6966145833314,"velocity":0.7244094488188977,"duration":0.7057291666666288},{"name":"G#3","midi":56,"time":264.167968749998,"velocity":0.7244094488188977,"duration":0.47005208333337123},{"name":"A#4","midi":70,"time":264.4049479166647,"velocity":0.7244094488188977,"duration":0.23307291666668561},{"name":"G5","midi":79,"time":264.4049479166647,"velocity":0.7244094488188977,"duration":0.23307291666668561},{"name":"G#3","midi":56,"time":264.64062499999807,"velocity":0.7244094488188977,"duration":0.47005208333337123},{"name":"A#4","midi":70,"time":264.64062499999807,"velocity":0.7244094488188977,"duration":0.23307291666668561},{"name":"G5","midi":79,"time":264.64062499999807,"velocity":0.7244094488188977,"duration":0.23307291666668561},{"name":"G#4","midi":68,"time":264.87630208333144,"velocity":0.7244094488188977,"duration":0.47005208333337123},{"name":"F5","midi":77,"time":264.87630208333144,"velocity":0.7244094488188977,"duration":0.47005208333337123},{"name":"G#3","midi":56,"time":265.1132812499981,"velocity":0.7244094488188977,"duration":0.47005208333337123},{"name":"D#5","midi":75,"time":265.3489583333315,"velocity":0.7244094488188977,"duration":0.23307291666668561},{"name":"G4","midi":67,"time":265.3489583333315,"velocity":0.7244094488188977,"duration":0.23307291666668561},{"name":"G#3","midi":56,"time":265.5859374999982,"velocity":0.7244094488188977,"duration":0.23307291666668561},{"name":"D#5","midi":75,"time":265.5859374999982,"velocity":0.7244094488188977,"duration":0.4674479166666856},{"name":"G4","midi":67,"time":265.5859374999982,"velocity":0.7244094488188977,"duration":0.4674479166666856},{"name":"C4","midi":60,"time":265.82161458333155,"velocity":0.7244094488188977,"duration":0.23307291666662877},{"name":"A#3","midi":58,"time":266.05729166666487,"velocity":0.7244094488188977,"duration":0.23307291666668561},{"name":"F4","midi":65,"time":266.05729166666487,"velocity":0.7244094488188977,"duration":0.46614583333337123},{"name":"D5","midi":74,"time":266.05729166666487,"velocity":0.7244094488188977,"duration":0.4166666666666856},{"name":"G#3","midi":56,"time":266.29427083333155,"velocity":0.7244094488188977,"duration":0.23177083333337123},{"name":"A#3","midi":58,"time":266.52734374999824,"velocity":0.7244094488188977,"duration":0.23307291666668561},{"name":"D#5","midi":75,"time":266.52734374999824,"velocity":0.7244094488188977,"duration":0.47005208333337123},{"name":"G4","midi":67,"time":266.52734374999824,"velocity":0.7244094488188977,"duration":0.47005208333337123},{"name":"G#3","midi":56,"time":266.7643229166649,"velocity":0.7244094488188977,"duration":0.23307291666668561},{"name":"G3","midi":55,"time":266.9999999999983,"velocity":0.7244094488188977,"duration":0.23307291666668561},{"name":"G#4","midi":68,"time":266.9999999999983,"velocity":0.7244094488188977,"duration":0.23307291666668561},{"name":"F5","midi":77,"time":266.9999999999983,"velocity":0.7244094488188977,"duration":0.23307291666668561},{"name":"F3","midi":53,"time":267.23567708333167,"velocity":0.7244094488188977,"duration":0.23307291666668561},{"name":"G5","midi":79,"time":267.23567708333167,"velocity":0.7244094488188977,"duration":0.23307291666668561},{"name":"A#4","midi":70,"time":267.23567708333167,"velocity":0.7244094488188977,"duration":0.23307291666668561},{"name":"G#3","midi":56,"time":267.47265624999835,"velocity":0.7244094488188977,"duration":0.23307291666668561},{"name":"G#4","midi":68,"time":267.47265624999835,"velocity":0.7244094488188977,"duration":0.47005208333337123},{"name":"F5","midi":77,"time":267.47265624999835,"velocity":0.7244094488188977,"duration":0.47005208333337123},{"name":"G3","midi":55,"time":267.7083333333317,"velocity":0.7244094488188977,"duration":0.23307291666668561},{"name":"F3","midi":53,"time":267.94401041666504,"velocity":0.7244094488188977,"duration":0.23307291666668561},{"name":"G4","midi":67,"time":267.94401041666504,"velocity":0.7244094488188977,"duration":0.47005208333337123},{"name":"D#5","midi":75,"time":267.94401041666504,"velocity":0.7244094488188977,"duration":0.47005208333337123},{"name":"D#3","midi":51,"time":268.1809895833317,"velocity":0.7244094488188977,"duration":0.23307291666668561},{"name":"A#3","midi":58,"time":268.4166666666651,"velocity":0.7244094488188977,"duration":1.1783854166666856},{"name":"F4","midi":65,"time":268.4166666666651,"velocity":0.7244094488188977,"duration":0.6875},{"name":"D#5","midi":75,"time":268.4166666666651,"velocity":0.7244094488188977,"duration":0.4700520833333144},{"name":"D5","midi":74,"time":268.8893229166651,"velocity":0.7244094488188977,"duration":2.358072916666856},{"name":"G4","midi":67,"time":269.1249999999984,"velocity":0.7244094488188977,"duration":0.23307291666668561},{"name":"G4","midi":67,"time":269.3619791666651,"velocity":0.7244094488188977,"duration":0.23307291666668561},{"name":"G#3","midi":56,"time":269.59765624999847,"velocity":0.7244094488188977,"duration":0.23177083333331439},{"name":"G#4","midi":68,"time":269.59765624999847,"velocity":0.7244094488188977,"duration":0.11458333333331439},{"name":"G4","midi":67,"time":269.71484374999847,"velocity":0.7244094488188977,"duration":0.11458333333331439},{"name":"G3","midi":55,"time":269.83203124999847,"velocity":0.7244094488188977,"duration":0.23307291666668561},{"name":"G#4","midi":68,"time":269.83203124999847,"velocity":0.7244094488188977,"duration":0.47005208333337123},{"name":"F3","midi":53,"time":270.06770833333184,"velocity":0.7244094488188977,"duration":0.23307291666668561},{"name":"D#3","midi":51,"time":270.30338541666515,"velocity":0.7244094488188977,"duration":0.23307291666668561},{"name":"A#4","midi":70,"time":270.30338541666515,"velocity":0.7244094488188977,"duration":0.9414062500001137},{"name":"D3","midi":50,"time":270.54036458333184,"velocity":0.7244094488188977,"duration":0.23307291666668561},{"name":"C3","midi":48,"time":270.7760416666652,"velocity":0.7244094488188977,"duration":0.23307291666668561},{"name":"A#2","midi":46,"time":271.0117187499986,"velocity":0.7244094488188977,"duration":0.23307291666668561},{"name":"D#3","midi":51,"time":271.24869791666526,"velocity":0.7244094488188977,"duration":1.17578125},{"name":"G#4","midi":68,"time":271.24869791666526,"velocity":0.7244094488188977,"duration":0.4674479166666856},{"name":"G4","midi":67,"time":271.72135416666526,"velocity":0.7244094488188977,"duration":2.358072916666913},{"name":"D#5","midi":75,"time":271.72135416666526,"velocity":0.7244094488188977,"duration":0.4674479166666856},{"name":"F5","midi":77,"time":272.19270833333195,"velocity":0.7244094488188977,"duration":0.11458333333331439},{"name":"D#5","midi":75,"time":272.30989583333195,"velocity":0.7244094488188977,"duration":0.11458333333331439},{"name":"F3","midi":53,"time":272.42708333333195,"velocity":0.7244094488188977,"duration":0.23307291666668561},{"name":"F5","midi":77,"time":272.42708333333195,"velocity":0.7244094488188977,"duration":0.7057291666667425},{"name":"D#3","midi":51,"time":272.6627604166653,"velocity":0.7244094488188977,"duration":0.23307291666668561},{"name":"D3","midi":50,"time":272.899739583332,"velocity":0.7244094488188977,"duration":0.23307291666668561},{"name":"D#3","midi":51,"time":273.1354166666654,"velocity":0.7244094488188977,"duration":0.23307291666668561},{"name":"G5","midi":79,"time":273.1354166666654,"velocity":0.7244094488188977,"duration":0.9414062500001137},{"name":"D3","midi":50,"time":273.37109374999875,"velocity":0.7244094488188977,"duration":0.23307291666668561},{"name":"C3","midi":48,"time":273.60807291666544,"velocity":0.7244094488188977,"duration":0.23307291666668561},{"name":"D3","midi":50,"time":273.8437499999988,"velocity":0.7244094488188977,"duration":0.23307291666668561},{"name":"C3","midi":48,"time":274.0794270833322,"velocity":0.7244094488188977,"duration":1.1783854166667425},{"name":"F5","midi":77,"time":274.0794270833322,"velocity":0.7244094488188977,"duration":0.4700520833333144},{"name":"D#5","midi":75,"time":274.5520833333322,"velocity":0.7244094488188977,"duration":3.071614583333485},{"name":"A4","midi":69,"time":274.78906249999886,"velocity":0.7244094488188977,"duration":0.23307291666668561},{"name":"A4","midi":69,"time":275.02473958333223,"velocity":0.7244094488188977,"duration":0.47005208333337123},{"name":"D3","midi":50,"time":275.2604166666656,"velocity":0.7244094488188977,"duration":0.23307291666668561},{"name":"D#3","midi":51,"time":275.4973958333323,"velocity":0.7244094488188977,"duration":0.23177083333325754},{"name":"A#4","midi":70,"time":275.4973958333323,"velocity":0.7244094488188977,"duration":0.11458333333331439},{"name":"A4","midi":69,"time":275.6132812499989,"velocity":0.7244094488188977,"duration":0.11458333333331439},{"name":"F3","midi":53,"time":275.73046874999886,"velocity":0.7244094488188977,"duration":0.23307291666668561},{"name":"A#4","midi":70,"time":275.73046874999886,"velocity":0.7244094488188977,"duration":0.23307291666668561},{"name":"G3","midi":55,"time":275.96744791666555,"velocity":0.7244094488188977,"duration":0.23307291666668561},{"name":"C5","midi":72,"time":275.96744791666555,"velocity":0.7244094488188977,"duration":0.9414062500001137},{"name":"A3","midi":57,"time":276.2031249999989,"velocity":0.7244094488188977,"duration":0.23307291666668561},{"name":"A#3","midi":58,"time":276.4388020833323,"velocity":0.7244094488188977,"duration":0.23307291666668561},{"name":"C4","midi":60,"time":276.675781249999,"velocity":0.7244094488188977,"duration":0.23307291666668561},{"name":"F3","midi":53,"time":276.91145833333235,"velocity":0.7244094488188977,"duration":1.17578125},{"name":"A#4","midi":70,"time":276.91145833333235,"velocity":0.7244094488188977,"duration":0.4674479166666856},{"name":"A4","midi":69,"time":277.38411458333235,"velocity":0.7244094488188977,"duration":2.3541666666667993},{"name":"D5","midi":74,"time":277.61979166666566,"velocity":0.7244094488188977,"duration":0.23177083333331439},{"name":"D5","midi":74,"time":277.85416666666566,"velocity":0.7244094488188977,"duration":0.23307291666668561},{"name":"G3","midi":55,"time":278.08984374999903,"velocity":0.7244094488188977,"duration":0.23177083333331439},{"name":"D#5","midi":75,"time":278.08984374999903,"velocity":0.7244094488188977,"duration":0.11458333333331439},{"name":"D5","midi":74,"time":278.20703124999903,"velocity":0.7244094488188977,"duration":0.11458333333331439},{"name":"F3","midi":53,"time":278.32421874999903,"velocity":0.7244094488188977,"duration":0.23307291666668561},{"name":"D#5","midi":75,"time":278.32421874999903,"velocity":0.7244094488188977,"duration":0.4674479166666856},{"name":"D#3","midi":51,"time":278.5598958333324,"velocity":0.7244094488188977,"duration":0.23307291666662877},{"name":"D3","midi":50,"time":278.79687499999903,"velocity":0.7244094488188977,"duration":0.23307291666668561},{"name":"G5","midi":79,"time":278.79687499999903,"velocity":0.7244094488188977,"duration":0.23307291666668561},{"name":"C3","midi":48,"time":279.0325520833324,"velocity":0.7244094488188977,"duration":0.23177083333331439},{"name":"F5","midi":77,"time":279.0325520833324,"velocity":0.7244094488188977,"duration":0.11458333333331439},{"name":"G5","midi":79,"time":279.1497395833324,"velocity":0.7244094488188977,"duration":0.11458333333331439},{"name":"A#2","midi":46,"time":279.2669270833324,"velocity":0.7244094488188977,"duration":0.23307291666668561},{"name":"F5","midi":77,"time":279.2669270833324,"velocity":0.7244094488188977,"duration":0.23307291666668561},{"name":"A2","midi":45,"time":279.5026041666658,"velocity":0.7244094488188977,"duration":0.23307291666668561},{"name":"D#5","midi":75,"time":279.5026041666658,"velocity":0.7244094488188977,"duration":0.23307291666668561},{"name":"A#2","midi":46,"time":279.73958333333246,"velocity":0.7244094488188977,"duration":1.1783854166666288},{"name":"D#5","midi":75,"time":279.73958333333246,"velocity":0.7244094488188977,"duration":0.4700520833333144},{"name":"F4","midi":65,"time":280.2109374999991,"velocity":0.7244094488188977,"duration":0.4700520833333144},{"name":"D5","midi":74,"time":280.2109374999991,"velocity":0.7244094488188977,"duration":2.360677083333485},{"name":"A#4","midi":70,"time":280.6835937499991,"velocity":0.7244094488188977,"duration":0.7057291666666856},{"name":"A2","midi":45,"time":280.9192708333324,"velocity":0.7244094488188977,"duration":0.23307291666668561},{"name":"A#2","midi":46,"time":281.1562499999991,"velocity":0.7244094488188977,"duration":0.23307291666668561},{"name":"C3","midi":48,"time":281.39192708333246,"velocity":0.7244094488188977,"duration":0.23307291666668561},{"name":"G#4","midi":68,"time":281.39192708333246,"velocity":0.7244094488188977,"duration":0.23307291666668561},{"name":"D3","midi":50,"time":281.62760416666583,"velocity":0.7244094488188977,"duration":0.23307291666668561},{"name":"G#4","midi":68,"time":281.62760416666583,"velocity":0.7244094488188977,"duration":0.23307291666668561},{"name":"D#3","midi":51,"time":281.8645833333325,"velocity":0.7244094488188977,"duration":0.23307291666668561},{"name":"G4","midi":67,"time":281.8645833333325,"velocity":0.7244094488188977,"duration":0.47005208333337123},{"name":"F3","midi":53,"time":282.1002604166659,"velocity":0.7244094488188977,"duration":0.23307291666668561},{"name":"D3","midi":50,"time":282.3372395833326,"velocity":0.7244094488188977,"duration":0.23307291666668561},{"name":"F4","midi":65,"time":282.3372395833326,"velocity":0.7244094488188977,"duration":0.23307291666668561},{"name":"G3","midi":55,"time":282.5729166666659,"velocity":0.7244094488188977,"duration":1.1783854166666856},{"name":"F4","midi":65,"time":282.5729166666659,"velocity":0.7244094488188977,"duration":0.4674479166666856},{"name":"D#4","midi":63,"time":283.0455729166659,"velocity":0.7244094488188977,"duration":2.3541666666667993},{"name":"G4","midi":67,"time":283.2812499999992,"velocity":0.7244094488188977,"duration":0.23307291666668561},{"name":"G4","midi":67,"time":283.5169270833326,"velocity":0.7244094488188977,"duration":0.23307291666668561},{"name":"F3","midi":53,"time":283.75390624999926,"velocity":0.7244094488188977,"duration":0.23177083333331439},{"name":"C5","midi":72,"time":283.75390624999926,"velocity":0.7244094488188977,"duration":0.11458333333331439},{"name":"A#4","midi":70,"time":283.87109374999926,"velocity":0.7244094488188977,"duration":0.11458333333331439},{"name":"D#3","midi":51,"time":283.9869791666659,"velocity":0.7244094488188977,"duration":0.23307291666668561},{"name":"C5","midi":72,"time":283.9869791666659,"velocity":0.7244094488188977,"duration":0.23307291666668561},{"name":"D3","midi":50,"time":284.2239583333326,"velocity":0.7244094488188977,"duration":0.23307291666668561},{"name":"A#4","midi":70,"time":284.2239583333326,"velocity":0.7244094488188977,"duration":0.23307291666668561},{"name":"C3","midi":48,"time":284.45963541666595,"velocity":0.7244094488188977,"duration":0.23177083333331439},{"name":"A4","midi":69,"time":284.45963541666595,"velocity":0.7244094488188977,"duration":0.11458333333331439},{"name":"A#4","midi":70,"time":284.57682291666595,"velocity":0.7244094488188977,"duration":0.11458333333331439},{"name":"D3","midi":50,"time":284.69401041666595,"velocity":0.7244094488188977,"duration":0.23307291666668561},{"name":"A4","midi":69,"time":284.69401041666595,"velocity":0.7244094488188977,"duration":0.23307291666668561},{"name":"D#3","midi":51,"time":284.9296874999993,"velocity":0.7244094488188977,"duration":0.23177083333331439},{"name":"A#4","midi":70,"time":284.9296874999993,"velocity":0.7244094488188977,"duration":0.11458333333331439},{"name":"A4","midi":69,"time":285.0468749999993,"velocity":0.7244094488188977,"duration":0.11458333333331439},{"name":"C3","midi":48,"time":285.1640624999993,"velocity":0.7244094488188977,"duration":0.23307291666668561},{"name":"G4","midi":67,"time":285.1640624999993,"velocity":0.7244094488188977,"duration":0.23307291666668561},{"name":"A3","midi":57,"time":285.3997395833327,"velocity":0.7244094488188977,"duration":0.23307291666668561},{"name":"G4","midi":67,"time":285.3997395833327,"velocity":0.7244094488188977,"duration":0.4674479166666856},{"name":"F3","midi":53,"time":285.6367187499994,"velocity":0.7244094488188977,"duration":0.23307291666668561},{"name":"G3","midi":55,"time":285.87239583333275,"velocity":0.7244094488188977,"duration":0.23307291666668561},{"name":"F4","midi":65,"time":285.87239583333275,"velocity":0.7244094488188977,"duration":0.9335937500000568},{"name":"A3","midi":57,"time":286.1080729166661,"velocity":0.7244094488188977,"duration":0.23307291666668561},{"name":"C4","midi":60,"time":286.1080729166661,"velocity":0.7244094488188977,"duration":0.23307291666668561},{"name":"A#3","midi":58,"time":286.3450520833328,"velocity":0.7244094488188977,"duration":1.1783854166666288},{"name":"D4","midi":62,"time":286.3450520833328,"velocity":0.7244094488188977,"duration":0.6875},{"name":"G4","midi":67,"time":286.8177083333328,"velocity":0.7244094488188977,"duration":0.46744791666662877},{"name":"D#4","midi":63,"time":287.0533854166661,"velocity":0.7244094488188977,"duration":0.23307291666662877},{"name":"G#4","midi":68,"time":287.28906249999943,"velocity":0.7244094488188977,"duration":0.7057291666667425},{"name":"C4","midi":60,"time":287.28906249999943,"velocity":0.7244094488188977,"duration":0.7057291666667425},{"name":"G#3","midi":56,"time":287.5260416666661,"velocity":0.7244094488188977,"duration":0.23307291666668561},{"name":"G3","midi":55,"time":287.7617187499995,"velocity":0.7244094488188977,"duration":0.23307291666668561},{"name":"F3","midi":53,"time":287.99739583333286,"velocity":0.7244094488188977,"duration":0.23307291666668561},{"name":"A#4","midi":70,"time":287.99739583333286,"velocity":0.7244094488188977,"duration":0.23307291666668561},{"name":"D4","midi":62,"time":287.99739583333286,"velocity":0.7244094488188977,"duration":0.23307291666668561},{"name":"D#3","midi":51,"time":288.23437499999955,"velocity":0.7244094488188977,"duration":0.23307291666668561},{"name":"G#4","midi":68,"time":288.23437499999955,"velocity":0.7244094488188977,"duration":0.4674479166666856},{"name":"D#4","midi":63,"time":288.23437499999955,"velocity":0.7244094488188977,"duration":1.4101562500000568},{"name":"D3","midi":50,"time":288.4700520833329,"velocity":0.7244094488188977,"duration":0.23307291666662877},{"name":"C3","midi":48,"time":288.70572916666623,"velocity":0.7244094488188977,"duration":0.23307291666668561},{"name":"G4","midi":67,"time":288.70572916666623,"velocity":0.7244094488188977,"duration":0.47005208333337123},{"name":"A#2","midi":46,"time":288.9427083333329,"velocity":0.7244094488188977,"duration":0.23307291666668561},{"name":"C5","midi":72,"time":288.9427083333329,"velocity":0.7244094488188977,"duration":0.23307291666668561},{"name":"F3","midi":53,"time":289.1783854166663,"velocity":0.7244094488188977,"duration":0.4661458333333144},{"name":"A#4","midi":70,"time":289.1783854166663,"velocity":0.7244094488188977,"duration":0.11458333333331439},{"name":"A4","midi":69,"time":289.2955729166663,"velocity":0.7244094488188977,"duration":0.11458333333331439},{"name":"A#4","midi":70,"time":289.4127604166663,"velocity":0.7244094488188977,"duration":0.11458333333331439},{"name":"A4","midi":69,"time":289.5299479166663,"velocity":0.7244094488188977,"duration":1.5312500000000568},{"name":"F3","midi":53,"time":289.6471354166663,"velocity":0.7244094488188977,"duration":0.4700520833333144},{"name":"G4","midi":67,"time":289.6471354166663,"velocity":0.7244094488188977,"duration":0.4700520833333144},{"name":"F2","midi":41,"time":290.1184895833329,"velocity":0.7244094488188977,"duration":0.47005208333337123},{"name":"G4","midi":67,"time":290.1184895833329,"velocity":0.7244094488188977,"duration":0.4674479166666856},{"name":"F2","midi":41,"time":290.591145833333,"velocity":0.7244094488188977,"duration":0.47005208333337123},{"name":"F4","midi":65,"time":290.591145833333,"velocity":0.7244094488188977,"duration":0.23307291666668561},{"name":"D#4","midi":63,"time":290.82682291666634,"velocity":0.7244094488188977,"duration":0.23307291666668561},{"name":"A#2","midi":46,"time":291.06380208333303,"velocity":0.7244094488188977,"duration":0.4700520833333144},{"name":"A#4","midi":70,"time":291.06380208333303,"velocity":0.7244094488188977,"duration":2.8268229166666856},{"name":"D#4","midi":63,"time":291.06380208333303,"velocity":0.7244094488188977,"duration":0.7057291666666288},{"name":"D3","midi":50,"time":291.53515624999966,"velocity":0.7244094488188977,"duration":0.23307291666668561},{"name":"F3","midi":53,"time":291.77213541666634,"velocity":0.7244094488188977,"duration":0.23307291666668561},{"name":"C4","midi":60,"time":291.77213541666634,"velocity":0.7244094488188977,"duration":0.23307291666668561},{"name":"A#3","midi":58,"time":292.0078124999997,"velocity":0.7244094488188977,"duration":1.8841145833333144},{"name":"C4","midi":60,"time":292.0078124999997,"velocity":0.7244094488188977,"duration":0.4700520833333144},{"name":"D4","midi":62,"time":292.4804687499997,"velocity":0.7244094488188977,"duration":0.11458333333331439},{"name":"C4","midi":60,"time":292.5976562499997,"velocity":0.7244094488188977,"duration":0.11458333333331439},{"name":"D4","midi":62,"time":292.7148437499997,"velocity":0.7244094488188977,"duration":1.1783854166666288},{"name":"A#3","midi":58,"time":293.89453124999966,"velocity":0.7244094488188977,"duration":0.4674479166666856},{"name":"F4","midi":65,"time":293.89453124999966,"velocity":0.7244094488188977,"duration":0.11458333333331439},{"name":"D4","midi":62,"time":293.89453124999966,"velocity":0.7244094488188977,"duration":0.6861979166666856},{"name":"D#4","midi":63,"time":294.01171874999966,"velocity":0.7244094488188977,"duration":0.11458333333331439},{"name":"F4","midi":65,"time":294.12890624999966,"velocity":0.7244094488188977,"duration":0.47005208333337123},{"name":"A#3","midi":58,"time":294.36588541666634,"velocity":0.7244094488188977,"duration":0.47005208333337123},{"name":"D#4","midi":63,"time":294.6015624999997,"velocity":0.7244094488188977,"duration":0.23307291666668561},{"name":"C4","midi":60,"time":294.6015624999997,"velocity":0.7244094488188977,"duration":0.23307291666668561},{"name":"A#3","midi":58,"time":294.83723958333303,"velocity":0.7244094488188977,"duration":0.4700520833333144},{"name":"D#4","midi":63,"time":294.83723958333303,"velocity":0.7244094488188977,"duration":0.4700520833333144},{"name":"C4","midi":60,"time":294.83723958333303,"velocity":0.7244094488188977,"duration":0.4700520833333144},{"name":"A#3","midi":58,"time":295.30989583333303,"velocity":0.7244094488188977,"duration":0.4674479166666856},{"name":"D4","midi":62,"time":295.30989583333303,"velocity":0.7244094488188977,"duration":0.45703125},{"name":"F4","midi":65,"time":295.30989583333303,"velocity":0.7244094488188977,"duration":0.11458333333331439},{"name":"D#4","midi":63,"time":295.42708333333303,"velocity":0.7244094488188977,"duration":0.11458333333331439},{"name":"F4","midi":65,"time":295.54427083333303,"velocity":0.7244094488188977,"duration":0.23307291666668561},{"name":"A#3","midi":58,"time":295.7799479166664,"velocity":0.7244094488188977,"duration":0.4700520833333144},{"name":"D#4","midi":63,"time":295.7799479166664,"velocity":0.7244094488188977,"duration":0.93359375},{"name":"F4","midi":65,"time":295.8997395833331,"velocity":0.7244094488188977,"duration":0.11458333333331439},{"name":"G4","midi":67,"time":296.0156249999997,"velocity":0.7244094488188977,"duration":0.7057291666666856},{"name":"A#3","midi":58,"time":296.2526041666664,"velocity":0.7244094488188977,"duration":0.4700520833333144},{"name":"B3","midi":59,"time":296.72395833333303,"velocity":0.7244094488188977,"duration":1.1783854166667425},{"name":"F4","midi":65,"time":296.72395833333303,"velocity":0.7244094488188977,"duration":0.9335937500000568},{"name":"A#4","midi":70,"time":296.72395833333303,"velocity":0.7244094488188977,"duration":0.15494791666668561},{"name":"G#4","midi":68,"time":296.8815104166664,"velocity":0.7244094488188977,"duration":0.17838541666668561},{"name":"G4","midi":67,"time":297.0794270833331,"velocity":0.7244094488188977,"duration":0.11458333333331439},{"name":"G#4","midi":68,"time":297.1966145833331,"velocity":0.7244094488188977,"duration":0.23307291666668561},{"name":"A#4","midi":70,"time":297.4335937499998,"velocity":0.7244094488188977,"duration":0.23307291666662877},{"name":"G#4","midi":68,"time":297.6692708333331,"velocity":0.7244094488188977,"duration":0.4674479166666856},{"name":"F4","midi":65,"time":297.6692708333331,"velocity":0.7244094488188977,"duration":1.8867187500001705},{"name":"C4","midi":60,"time":297.90494791666646,"velocity":0.7244094488188977,"duration":0.23307291666662877},{"name":"D4","midi":62,"time":298.1419270833331,"velocity":0.7244094488188977,"duration":0.23307291666668561},{"name":"G4","midi":67,"time":298.1419270833331,"velocity":0.7244094488188977,"duration":1.4140625000001705},{"name":"C4","midi":60,"time":298.37760416666646,"velocity":0.7244094488188977,"duration":0.23307291666668561},{"name":"B3","midi":59,"time":298.61328124999983,"velocity":0.7244094488188977,"duration":0.23307291666668561},{"name":"C4","midi":60,"time":298.8502604166665,"velocity":0.7244094488188977,"duration":0.23307291666668561},{"name":"A3","midi":57,"time":299.0859374999999,"velocity":0.7244094488188977,"duration":0.23307291666668561},{"name":"B3","midi":59,"time":299.32161458333326,"velocity":0.7244094488188977,"duration":0.23307291666668561},{"name":"C4","midi":60,"time":299.55859374999994,"velocity":0.7244094488188977,"duration":0.4700520833333144},{"name":"G4","midi":67,"time":299.55859374999994,"velocity":0.7244094488188977,"duration":0.7057291666666288},{"name":"D#4","midi":63,"time":299.55859374999994,"velocity":0.7244094488188977,"duration":0.7057291666666288},{"name":"C4","midi":60,"time":300.0299479166666,"velocity":0.7244094488188977,"duration":0.47005208333337123},{"name":"F4","midi":65,"time":300.26692708333326,"velocity":0.7244094488188977,"duration":0.23307291666668561},{"name":"A4","midi":69,"time":300.26692708333326,"velocity":0.7244094488188977,"duration":0.23307291666668561},{"name":"G#3","midi":56,"time":300.50260416666663,"velocity":0.7244094488188977,"duration":0.47005208333337123},{"name":"D#4","midi":63,"time":300.50260416666663,"velocity":0.7244094488188977,"duration":0.4674479166666856},{"name":"B4","midi":71,"time":300.50260416666663,"velocity":0.7244094488188977,"duration":0.9335937500000568},{"name":"G#3","midi":56,"time":300.9752604166667,"velocity":0.7244094488188977,"duration":0.46744791666662877},{"name":"D4","midi":62,"time":300.9752604166667,"velocity":0.7244094488188977,"duration":0.4661458333333144},{"name":"F#3","midi":54,"time":301.4453125,"velocity":0.7244094488188977,"duration":0.4700520833333144},{"name":"C5","midi":72,"time":301.4453125,"velocity":0.7244094488188977,"duration":0.94140625},{"name":"D#4","midi":63,"time":301.4453125,"velocity":0.7244094488188977,"duration":0.94140625},{"name":"F#3","midi":54,"time":301.91796875,"velocity":0.7244094488188977,"duration":0.4700520833333144},{"name":"G3","midi":55,"time":302.38932291666663,"velocity":0.7244094488188977,"duration":1.1757812500001137},{"name":"F4","midi":65,"time":302.38932291666663,"velocity":0.7244094488188977,"duration":0.11458333333331439},{"name":"C5","midi":72,"time":302.38932291666663,"velocity":0.7244094488188977,"duration":0.9322916666667425},{"name":"D#4","midi":63,"time":302.50651041666663,"velocity":0.7244094488188977,"duration":0.11458333333331439},{"name":"D4","midi":62,"time":302.62369791666663,"velocity":0.7244094488188977,"duration":0.23307291666668561},{"name":"D#4","midi":63,"time":302.859375,"velocity":0.7244094488188977,"duration":0.23307291666668561},{"name":"F4","midi":65,"time":303.0963541666667,"velocity":0.7244094488188977,"duration":0.23307291666668561},{"name":"D#4","midi":63,"time":303.33203125000006,"velocity":0.7244094488188977,"duration":0.47005208333337123},{"name":"B4","midi":71,"time":303.33203125000006,"velocity":0.7244094488188977,"duration":1.8867187500002274},{"name":"F3","midi":53,"time":303.56901041666674,"velocity":0.7244094488188977,"duration":0.23307291666668561},{"name":"G3","midi":55,"time":303.8046875000001,"velocity":0.7244094488188977,"duration":0.23307291666668561},{"name":"D4","midi":62,"time":303.8046875000001,"velocity":0.7244094488188977,"duration":1.4140625000001705},{"name":"G#3","midi":56,"time":304.0403645833335,"velocity":0.7244094488188977,"duration":0.23307291666668561},{"name":"G3","midi":55,"time":304.27734375000017,"velocity":0.7244094488188977,"duration":0.23307291666668561},{"name":"G#3","midi":56,"time":304.51302083333354,"velocity":0.7244094488188977,"duration":0.23307291666668561},{"name":"G3","midi":55,"time":304.7486979166669,"velocity":0.7244094488188977,"duration":0.23307291666668561},{"name":"F3","midi":53,"time":304.9856770833336,"velocity":0.7244094488188977,"duration":0.23307291666668561},{"name":"D#3","midi":51,"time":305.22135416666697,"velocity":0.7244094488188977,"duration":0.4700520833333144},{"name":"C5","midi":72,"time":305.22135416666697,"velocity":0.7244094488188977,"duration":0.7057291666666856},{"name":"D#4","midi":63,"time":305.22135416666697,"velocity":0.7244094488188977,"duration":0.7057291666666856},{"name":"D#3","midi":51,"time":305.69401041666697,"velocity":0.7244094488188977,"duration":0.47005208333337123},{"name":"D4","midi":62,"time":305.92968750000034,"velocity":0.7244094488188977,"duration":0.23307291666668561},{"name":"B4","midi":71,"time":305.92968750000034,"velocity":0.7244094488188977,"duration":0.23307291666668561},{"name":"G3","midi":55,"time":306.16536458333366,"velocity":0.7244094488188977,"duration":0.47005208333337123},{"name":"D4","midi":62,"time":306.16536458333366,"velocity":0.7244094488188977,"duration":0.23307291666668561},{"name":"B4","midi":71,"time":306.16536458333366,"velocity":0.7244094488188977,"duration":0.23307291666668561},{"name":"C5","midi":72,"time":306.40234375000034,"velocity":0.7244094488188977,"duration":0.47005208333337123},{"name":"D#4","midi":63,"time":306.40234375000034,"velocity":0.7244094488188977,"duration":0.47005208333337123},{"name":"G3","midi":55,"time":306.6380208333337,"velocity":0.7244094488188977,"duration":0.4700520833333144},{"name":"F4","midi":65,"time":306.873697916667,"velocity":0.7244094488188977,"duration":0.23307291666668561},{"name":"D5","midi":74,"time":306.873697916667,"velocity":0.7244094488188977,"duration":0.23307291666668561},{"name":"C3","midi":48,"time":307.1106770833337,"velocity":0.7244094488188977,"duration":0.4700520833333144},{"name":"F4","midi":65,"time":307.1106770833337,"velocity":0.7244094488188977,"duration":0.4700520833333144},{"name":"D5","midi":74,"time":307.1106770833337,"velocity":0.7244094488188977,"duration":0.4700520833333144},{"name":"C3","midi":48,"time":307.58203125000034,"velocity":0.7244094488188977,"duration":0.4700520833333144},{"name":"G4","midi":67,"time":307.58203125000034,"velocity":0.7244094488188977,"duration":0.93359375},{"name":"D#5","midi":75,"time":307.58203125000034,"velocity":0.7244094488188977,"duration":0.93359375},{"name":"F3","midi":53,"time":308.05468750000034,"velocity":0.7244094488188977,"duration":0.4700520833333144},{"name":"F3","midi":53,"time":308.52734375000034,"velocity":0.7244094488188977,"duration":0.4700520833333144},{"name":"D#4","midi":63,"time":308.76302083333366,"velocity":0.7244094488188977,"duration":0.23307291666668561},{"name":"C5","midi":72,"time":308.76302083333366,"velocity":0.7244094488188977,"duration":0.23307291666668561},{"name":"G#3","midi":56,"time":309.00000000000034,"velocity":0.7244094488188977,"duration":0.47005208333337123},{"name":"D#4","midi":63,"time":309.00000000000034,"velocity":0.7244094488188977,"duration":0.23307291666668561},{"name":"C5","midi":72,"time":309.00000000000034,"velocity":0.7244094488188977,"duration":0.23307291666668561},{"name":"F4","midi":65,"time":309.2356770833337,"velocity":0.7244094488188977,"duration":0.4700520833333144},{"name":"D5","midi":74,"time":309.2356770833337,"velocity":0.7244094488188977,"duration":0.4700520833333144},{"name":"G#3","midi":56,"time":309.471354166667,"velocity":0.7244094488188977,"duration":0.47005208333337123},{"name":"G4","midi":67,"time":309.7083333333337,"velocity":0.7244094488188977,"duration":0.23307291666668561},{"name":"D#5","midi":75,"time":309.7083333333337,"velocity":0.7244094488188977,"duration":0.23307291666668561},{"name":"B2","midi":47,"time":309.9440104166671,"velocity":0.7244094488188977,"duration":0.47005208333337123},{"name":"G4","midi":67,"time":309.9440104166671,"velocity":0.7244094488188977,"duration":0.4674479166666856},{"name":"D#5","midi":75,"time":309.9440104166671,"velocity":0.7244094488188977,"duration":0.4674479166666856},{"name":"B2","midi":47,"time":310.41666666666714,"velocity":0.7244094488188977,"duration":0.4700520833333144},{"name":"G#4","midi":68,"time":310.41666666666714,"velocity":0.7244094488188977,"duration":0.9335937499999432},{"name":"F5","midi":77,"time":310.41666666666714,"velocity":0.7244094488188977,"duration":0.9335937499999432},{"name":"C3","midi":48,"time":310.88802083333377,"velocity":0.7244094488188977,"duration":0.4700520833333144},{"name":"C3","midi":48,"time":311.36067708333377,"velocity":0.7244094488188977,"duration":0.4700520833333144},{"name":"D#5","midi":75,"time":311.5963541666671,"velocity":0.7244094488188977,"duration":0.23307291666668561},{"name":"G4","midi":67,"time":311.5963541666671,"velocity":0.7244094488188977,"duration":0.23307291666668561},{"name":"G3","midi":55,"time":311.83333333333377,"velocity":0.7244094488188977,"duration":0.4700520833333144},{"name":"D#5","midi":75,"time":311.83333333333377,"velocity":0.7244094488188977,"duration":0.24609375},{"name":"G4","midi":67,"time":311.83333333333377,"velocity":0.7244094488188977,"duration":0.24609375},{"name":"F4","midi":65,"time":312.0690104166671,"velocity":0.7244094488188977,"duration":0.4700520833333144},{"name":"D5","midi":74,"time":312.0690104166671,"velocity":0.7244094488188977,"duration":0.4700520833333144},{"name":"G3","midi":55,"time":312.3046875000004,"velocity":0.7244094488188977,"duration":0.47005208333337123},{"name":"D#4","midi":63,"time":312.5416666666671,"velocity":0.7244094488188977,"duration":0.23307291666668561},{"name":"C5","midi":72,"time":312.5416666666671,"velocity":0.7244094488188977,"duration":0.23307291666668561},{"name":"G2","midi":43,"time":312.77734375000045,"velocity":0.7244094488188977,"duration":0.47005208333337123},{"name":"C5","midi":72,"time":312.77734375000045,"velocity":0.7244094488188977,"duration":0.23697916666668561},{"name":"D#4","midi":63,"time":312.77734375000045,"velocity":0.7244094488188977,"duration":0.23697916666668561},{"name":"D5","midi":74,"time":313.01432291666714,"velocity":0.7244094488188977,"duration":0.47005208333337123},{"name":"F4","midi":65,"time":313.01432291666714,"velocity":0.7244094488188977,"duration":0.47005208333337123},{"name":"G2","midi":43,"time":313.2500000000005,"velocity":0.7244094488188977,"duration":0.4700520833333144},{"name":"B4","midi":71,"time":313.4856770833338,"velocity":0.7244094488188977,"duration":0.23307291666668561},{"name":"D4","midi":62,"time":313.4856770833338,"velocity":0.7244094488188977,"duration":0.23307291666668561},{"name":"C3","midi":48,"time":313.7226562500005,"velocity":0.7244094488188977,"duration":0.4700520833333144},{"name":"C5","midi":72,"time":313.7226562500005,"velocity":0.7244094488188977,"duration":1.4140624999999432},{"name":"D4","midi":62,"time":313.7226562500005,"velocity":0.7244094488188977,"duration":0.4700520833333144},{"name":"C3","midi":48,"time":314.19401041666714,"velocity":0.7244094488188977,"duration":0.4700520833333144},{"name":"D#4","midi":63,"time":314.19401041666714,"velocity":0.7244094488188977,"duration":3.0611979166667993},{"name":"A#2","midi":46,"time":314.66666666666714,"velocity":0.7244094488188977,"duration":0.4700520833333144},{"name":"A#2","midi":46,"time":315.13932291666714,"velocity":0.7244094488188977,"duration":0.47005208333337123},{"name":"G4","midi":67,"time":315.13932291666714,"velocity":0.7244094488188977,"duration":0.23307291666668561},{"name":"F4","midi":65,"time":315.3750000000005,"velocity":0.7244094488188977,"duration":0.23307291666668561},{"name":"G#2","midi":44,"time":315.6106770833338,"velocity":0.7244094488188977,"duration":0.47005208333337123},{"name":"G4","midi":67,"time":315.6106770833338,"velocity":0.7244094488188977,"duration":0.23307291666668561},{"name":"G#4","midi":68,"time":315.8476562500005,"velocity":0.7244094488188977,"duration":0.23307291666668561},{"name":"G#2","midi":44,"time":316.0833333333339,"velocity":0.7244094488188977,"duration":0.47005208333337123},{"name":"G4","midi":67,"time":316.0833333333339,"velocity":0.7244094488188977,"duration":0.23307291666668561},{"name":"G#4","midi":68,"time":316.31901041666725,"velocity":0.7244094488188977,"duration":0.23307291666668561},{"name":"G2","midi":43,"time":316.55598958333394,"velocity":0.7244094488188977,"duration":1.1783854166666856},{"name":"G#4","midi":68,"time":316.55598958333394,"velocity":0.7244094488188977,"duration":0.4674479166666856},{"name":"A#4","midi":70,"time":317.0273437500006,"velocity":0.7244094488188977,"duration":2.360677083333485},{"name":"F4","midi":65,"time":317.26432291666725,"velocity":0.7244094488188977,"duration":0.23307291666668561},{"name":"F4","midi":65,"time":317.5000000000006,"velocity":0.7244094488188977,"duration":0.23307291666668561},{"name":"G#2","midi":44,"time":317.7369791666673,"velocity":0.7244094488188977,"duration":0.23307291666668561},{"name":"D#4","midi":63,"time":317.7369791666673,"velocity":0.7244094488188977,"duration":0.23307291666668561},{"name":"G2","midi":43,"time":317.9726562500007,"velocity":0.7244094488188977,"duration":0.23307291666668561},{"name":"C#4","midi":61,"time":317.9726562500007,"velocity":0.7244094488188977,"duration":0.47005208333337123},{"name":"F2","midi":41,"time":318.20833333333405,"velocity":0.7244094488188977,"duration":0.23307291666668561},{"name":"G2","midi":43,"time":318.44531250000074,"velocity":0.7244094488188977,"duration":0.23307291666668561},{"name":"C4","midi":60,"time":318.44531250000074,"velocity":0.7244094488188977,"duration":0.47005208333337123},{"name":"D#2","midi":39,"time":318.6809895833341,"velocity":0.7244094488188977,"duration":0.23307291666668561},{"name":"F2","midi":41,"time":318.9166666666674,"velocity":0.7244094488188977,"duration":0.23307291666668561},{"name":"C#4","midi":61,"time":318.9166666666674,"velocity":0.7244094488188977,"duration":0.47005208333337123},{"name":"G2","midi":43,"time":319.1536458333341,"velocity":0.7244094488188977,"duration":0.23307291666668561},{"name":"G#2","midi":44,"time":319.3893229166674,"velocity":0.7244094488188977,"duration":1.1783854166666856},{"name":"C#4","midi":61,"time":319.3893229166674,"velocity":0.7244094488188977,"duration":0.4700520833333144},{"name":"C4","midi":60,"time":319.8619791666674,"velocity":0.7244094488188977,"duration":3.061197916666913},{"name":"D#4","midi":63,"time":320.09765625000074,"velocity":0.7244094488188977,"duration":0.23307291666668561},{"name":"D#4","midi":63,"time":320.3333333333341,"velocity":0.7244094488188977,"duration":0.23307291666668561},{"name":"C#3","midi":49,"time":320.5703125000008,"velocity":0.7244094488188977,"duration":0.23307291666668561},{"name":"F4","midi":65,"time":320.5703125000008,"velocity":0.7244094488188977,"duration":0.23307291666668561},{"name":"C3","midi":48,"time":320.80598958333417,"velocity":0.7244094488188977,"duration":0.23307291666668561},{"name":"G4","midi":67,"time":320.80598958333417,"velocity":0.7244094488188977,"duration":0.47005208333337123},{"name":"A#2","midi":46,"time":321.04166666666754,"velocity":0.7244094488188977,"duration":0.23307291666668561},{"name":"C3","midi":48,"time":321.2786458333342,"velocity":0.7244094488188977,"duration":0.23307291666668561},{"name":"G#4","midi":68,"time":321.2786458333342,"velocity":0.7244094488188977,"duration":0.47005208333337123},{"name":"A#2","midi":46,"time":321.5143229166676,"velocity":0.7244094488188977,"duration":0.23307291666668561},{"name":"G#2","midi":44,"time":321.7500000000009,"velocity":0.7244094488188977,"duration":0.23307291666668561},{"name":"A#4","midi":70,"time":321.7500000000009,"velocity":0.7244094488188977,"duration":0.47005208333337123},{"name":"G2","midi":43,"time":321.9869791666676,"velocity":0.7244094488188977,"duration":0.23307291666668561},{"name":"F2","midi":41,"time":322.22265625000097,"velocity":0.7244094488188977,"duration":0.47005208333337123},{"name":"A#4","midi":70,"time":322.22265625000097,"velocity":0.7244094488188977,"duration":0.4674479166666856},{"name":"F2","midi":41,"time":322.695312500001,"velocity":0.7244094488188977,"duration":0.4700520833333144},{"name":"G#4","midi":68,"time":322.695312500001,"velocity":0.7244094488188977,"duration":1.1796874999999432},{"name":"A#3","midi":58,"time":322.93098958333434,"velocity":0.7244094488188977,"duration":0.23307291666668561},{"name":"F3","midi":53,"time":323.167968750001,"velocity":0.7244094488188977,"duration":0.4700520833333144},{"name":"C4","midi":60,"time":323.167968750001,"velocity":0.7244094488188977,"duration":0.7057291666666288},{"name":"F3","midi":53,"time":323.63932291666765,"velocity":0.7244094488188977,"duration":0.4700520833333144},{"name":"F4","midi":65,"time":323.8763020833343,"velocity":0.7244094488188977,"duration":0.23307291666668561},{"name":"D4","midi":62,"time":323.8763020833343,"velocity":0.7244094488188977,"duration":0.23307291666668561},{"name":"C3","midi":48,"time":324.11197916666765,"velocity":0.7244094488188977,"duration":0.4700520833333144},{"name":"G4","midi":67,"time":324.11197916666765,"velocity":0.7244094488188977,"duration":0.7057291666666856},{"name":"D#4","midi":63,"time":324.11197916666765,"velocity":0.7244094488188977,"duration":0.7057291666666856},{"name":"A#2","midi":46,"time":324.58463541666765,"velocity":0.7244094488188977,"duration":0.47005208333337123},{"name":"G#4","midi":68,"time":324.820312500001,"velocity":0.7244094488188977,"duration":0.23307291666668561},{"name":"F4","midi":65,"time":324.820312500001,"velocity":0.7244094488188977,"duration":0.23307291666668561},{"name":"G#2","midi":44,"time":325.05598958333434,"velocity":0.7244094488188977,"duration":0.23307291666668561},{"name":"G4","midi":67,"time":325.05598958333434,"velocity":0.7244094488188977,"duration":0.9335937500001137},{"name":"A#4","midi":70,"time":325.05598958333434,"velocity":0.7244094488188977,"duration":0.23307291666668561},{"name":"F2","midi":41,"time":325.292968750001,"velocity":0.7244094488188977,"duration":0.23307291666668561},{"name":"G#4","midi":68,"time":325.292968750001,"velocity":0.7244094488188977,"duration":0.23307291666668561},{"name":"G2","midi":43,"time":325.5286458333344,"velocity":0.7244094488188977,"duration":0.23307291666668561},{"name":"A#4","midi":70,"time":325.5286458333344,"velocity":0.7244094488188977,"duration":0.23307291666668561},{"name":"G#2","midi":44,"time":325.76432291666777,"velocity":0.7244094488188977,"duration":0.23307291666668561},{"name":"C5","midi":72,"time":325.76432291666777,"velocity":0.7244094488188977,"duration":0.23307291666668561},{"name":"A#2","midi":46,"time":326.00130208333445,"velocity":0.7244094488188977,"duration":0.23307291666668561},{"name":"G4","midi":67,"time":326.00130208333445,"velocity":0.7244094488188977,"duration":0.47005208333337123},{"name":"D4","midi":62,"time":326.00130208333445,"velocity":0.7244094488188977,"duration":1.8828125000001137},{"name":"C3","midi":48,"time":326.2369791666678,"velocity":0.7244094488188977,"duration":0.23307291666668561},{"name":"D3","midi":50,"time":326.47265625000114,"velocity":0.7244094488188977,"duration":0.23177083333331439},{"name":"F4","midi":65,"time":326.47265625000114,"velocity":0.7244094488188977,"duration":0.11458333333331439},{"name":"G4","midi":67,"time":326.58984375000114,"velocity":0.7244094488188977,"duration":0.11458333333331439},{"name":"D#3","midi":51,"time":326.70703125000114,"velocity":0.7244094488188977,"duration":0.23177083333331439},{"name":"F4","midi":65,"time":326.70703125000114,"velocity":0.7244094488188977,"duration":0.11458333333331439},{"name":"G4","midi":67,"time":326.82421875000114,"velocity":0.7244094488188977,"duration":0.11458333333331439},{"name":"F3","midi":53,"time":326.94140625000114,"velocity":0.7244094488188977,"duration":0.23307291666668561},{"name":"F4","midi":65,"time":326.94140625000114,"velocity":0.7244094488188977,"duration":0.9414062500001137},{"name":"G3","midi":55,"time":327.1770833333345,"velocity":0.7244094488188977,"duration":0.23307291666668561},{"name":"G#3","midi":56,"time":327.4140625000012,"velocity":0.7244094488188977,"duration":0.23307291666668561},{"name":"A#3","midi":58,"time":327.64973958333456,"velocity":0.7244094488188977,"duration":0.23307291666668561},{"name":"D#3","midi":51,"time":327.8854166666679,"velocity":0.7244094488188977,"duration":1.1783854166667425},{"name":"G4","midi":67,"time":327.8854166666679,"velocity":0.7244094488188977,"duration":0.7057291666666856},{"name":"A#4","midi":70,"time":327.8854166666679,"velocity":0.7244094488188977,"duration":0.7057291666666856},{"name":"G#4","midi":68,"time":328.59505208333456,"velocity":0.7244094488188977,"duration":0.23307291666668561},{"name":"F4","midi":65,"time":328.59505208333456,"velocity":0.7244094488188977,"duration":0.23307291666668561},{"name":"G#4","midi":68,"time":328.83072916666794,"velocity":0.7244094488188977,"duration":0.47005208333337123},{"name":"F4","midi":65,"time":328.83072916666794,"velocity":0.7244094488188977,"duration":0.47005208333337123},{"name":"G3","midi":55,"time":329.0664062500013,"velocity":0.7244094488188977,"duration":0.23307291666668561},{"name":"F3","midi":53,"time":329.303385416668,"velocity":0.7244094488188977,"duration":0.23177083333325754},{"name":"G4","midi":67,"time":329.303385416668,"velocity":0.7244094488188977,"duration":0.4596354166665719},{"name":"A#4","midi":70,"time":329.303385416668,"velocity":0.7244094488188977,"duration":0.11458333333331439},{"name":"G#4","midi":68,"time":329.4192708333346,"velocity":0.7244094488188977,"duration":0.11458333333331439},{"name":"D#3","midi":51,"time":329.53645833333456,"velocity":0.7244094488188977,"duration":0.23307291666668561},{"name":"A#4","midi":70,"time":329.53645833333456,"velocity":0.7244094488188977,"duration":0.23307291666668561},{"name":"C#3","midi":49,"time":329.77343750000125,"velocity":0.7244094488188977,"duration":0.23307291666662877},{"name":"G#4","midi":68,"time":329.77343750000125,"velocity":0.7244094488188977,"duration":0.9335937500000568},{"name":"A#4","midi":70,"time":329.89192708333456,"velocity":0.7244094488188977,"duration":0.11458333333331439},{"name":"C3","midi":48,"time":330.00911458333456,"velocity":0.7244094488188977,"duration":0.23307291666668561},{"name":"C5","midi":72,"time":330.00911458333456,"velocity":0.7244094488188977,"duration":0.7057291666667425},{"name":"A#2","midi":46,"time":330.24479166666794,"velocity":0.7244094488188977,"duration":0.23307291666668561},{"name":"G#2","midi":44,"time":330.4817708333346,"velocity":0.7244094488188977,"duration":0.23307291666668561},{"name":"G2","midi":43,"time":330.717447916668,"velocity":0.7244094488188977,"duration":0.23177083333331439},{"name":"A#4","midi":70,"time":330.717447916668,"velocity":0.7244094488188977,"duration":1.645833333333485},{"name":"D#5","midi":75,"time":330.717447916668,"velocity":0.7244094488188977,"duration":0.11458333333331439},{"name":"C#5","midi":73,"time":330.834635416668,"velocity":0.7244094488188977,"duration":0.11458333333331439},{"name":"D#2","midi":39,"time":330.951822916668,"velocity":0.7244094488188977,"duration":0.23307291666668561},{"name":"C5","midi":72,"time":330.951822916668,"velocity":0.7244094488188977,"duration":0.23307291666668561},{"name":"F2","midi":41,"time":331.18750000000136,"velocity":0.7244094488188977,"duration":0.23307291666668561},{"name":"C#5","midi":73,"time":331.18750000000136,"velocity":0.7244094488188977,"duration":0.23307291666668561},{"name":"G2","midi":43,"time":331.42447916666805,"velocity":0.7244094488188977,"duration":0.23307291666668561},{"name":"D#5","midi":75,"time":331.42447916666805,"velocity":0.7244094488188977,"duration":0.23307291666668561},{"name":"G#2","midi":44,"time":331.6601562500014,"velocity":0.7244094488188977,"duration":0.23307291666668561},{"name":"C#5","midi":73,"time":331.6601562500014,"velocity":0.7244094488188977,"duration":0.47005208333337123},{"name":"A#2","midi":46,"time":331.8958333333348,"velocity":0.7244094488188977,"duration":0.23307291666668561},{"name":"C3","midi":48,"time":332.1328125000015,"velocity":0.7244094488188977,"duration":0.23307291666668561},{"name":"C5","midi":72,"time":332.1328125000015,"velocity":0.7244094488188977,"duration":0.6875000000000568},{"name":"G#2","midi":44,"time":332.36848958333485,"velocity":0.7244094488188977,"duration":0.23307291666668561},{"name":"G4","midi":67,"time":332.36848958333485,"velocity":0.7244094488188977,"duration":0.23307291666668561},{"name":"F2","midi":41,"time":332.6041666666682,"velocity":0.7244094488188977,"duration":0.23307291666662877},{"name":"G#4","midi":68,"time":332.6041666666682,"velocity":0.7244094488188977,"duration":0.9335937500000568},{"name":"G2","midi":43,"time":332.84114583333485,"velocity":0.7244094488188977,"duration":0.23307291666668561},{"name":"A#4","midi":70,"time":332.84114583333485,"velocity":0.7244094488188977,"duration":0.23307291666668561},{"name":"G#2","midi":44,"time":333.0768229166682,"velocity":0.7244094488188977,"duration":0.23307291666668561},{"name":"C5","midi":72,"time":333.0768229166682,"velocity":0.7244094488188977,"duration":0.23307291666668561},{"name":"A#2","midi":46,"time":333.3125000000016,"velocity":0.7244094488188977,"duration":0.23307291666668561},{"name":"D5","midi":74,"time":333.3125000000016,"velocity":0.7244094488188977,"duration":0.23307291666668561},{"name":"C3","midi":48,"time":333.5494791666683,"velocity":0.7244094488188977,"duration":0.23307291666668561},{"name":"D#5","midi":75,"time":333.5494791666683,"velocity":0.7244094488188977,"duration":0.23307291666668561},{"name":"G4","midi":67,"time":333.5494791666683,"velocity":0.7244094488188977,"duration":0.6875000000000568},{"name":"A#2","midi":46,"time":333.78515625000165,"velocity":0.7244094488188977,"duration":0.23307291666668561},{"name":"D5","midi":74,"time":333.78515625000165,"velocity":0.7244094488188977,"duration":0.23307291666668561},{"name":"C3","midi":48,"time":334.020833333335,"velocity":0.7244094488188977,"duration":0.23307291666662877},{"name":"D#5","midi":75,"time":334.020833333335,"velocity":0.7244094488188977,"duration":0.23307291666662877},{"name":"G#2","midi":44,"time":334.25781250000165,"velocity":0.7244094488188977,"duration":0.23307291666668561},{"name":"F5","midi":77,"time":334.25781250000165,"velocity":0.7244094488188977,"duration":0.23307291666668561},{"name":"G#4","midi":68,"time":334.25781250000165,"velocity":0.7244094488188977,"duration":0.23307291666668561},{"name":"A#2","midi":46,"time":334.493489583335,"velocity":0.7244094488188977,"duration":0.4895833333333144},{"name":"D#5","midi":75,"time":334.493489583335,"velocity":0.7244094488188977,"duration":0.24348958333331439},{"name":"F4","midi":65,"time":334.493489583335,"velocity":0.7244094488188977,"duration":0.7200520833333144},{"name":"D5","midi":74,"time":334.739583333335,"velocity":0.7244094488188977,"duration":1.7213541666666288},{"name":"A#2","midi":46,"time":334.985677083335,"velocity":0.7244094488188977,"duration":0.49218749999994316},{"name":"C5","midi":72,"time":335.23437500000165,"velocity":0.7244094488188977,"duration":0.24348958333331439},{"name":"A#3","midi":58,"time":335.48046875000165,"velocity":0.7244094488188977,"duration":0.4895833333333144},{"name":"C5","midi":72,"time":335.48046875000165,"velocity":0.7244094488188977,"duration":0.24348958333331439},{"name":"A#4","midi":70,"time":335.72656250000165,"velocity":0.7244094488188977,"duration":0.4895833333333144},{"name":"A#3","midi":58,"time":335.97265625000165,"velocity":0.7244094488188977,"duration":0.4895833333333144},{"name":"G#4","midi":68,"time":336.21875000000165,"velocity":0.7244094488188977,"duration":0.24348958333331439},{"name":"D#3","midi":51,"time":336.46614583333496,"velocity":0.7244094488188977,"duration":0.5768229166666856},{"name":"D#5","midi":75,"time":336.46614583333496,"velocity":0.7244094488188977,"duration":4.618489583333314},{"name":"G#4","midi":68,"time":336.46614583333496,"velocity":0.7244094488188977,"duration":0.8645833333333144},{"name":"G3","midi":55,"time":337.04427083333496,"velocity":0.7244094488188977,"duration":0.2864583333333144},{"name":"A#3","midi":58,"time":337.33333333333496,"velocity":0.7244094488188977,"duration":0.2864583333333144},{"name":"F4","midi":65,"time":337.33333333333496,"velocity":0.7244094488188977,"duration":0.2864583333333144},{"name":"D#4","midi":63,"time":337.62239583333496,"velocity":0.7244094488188977,"duration":3.4752604166666288},{"name":"F4","midi":65,"time":337.62239583333496,"velocity":0.7244094488188977,"duration":0.2864583333333144},{"name":"G4","midi":67,"time":337.9101562500016,"velocity":0.7244094488188977,"duration":0.140625},{"name":"F4","midi":65,"time":338.0533854166683,"velocity":0.7244094488188977,"duration":0.140625},{"name":"G4","midi":67,"time":338.19661458333496,"velocity":0.7244094488188977,"duration":2.906249999999943},{"name":"D#5","midi":75,"time":343.4283854166682,"velocity":0.7244094488188977,"duration":0.23177083333331439},{"name":"A#4","midi":70,"time":343.6627604166682,"velocity":0.7244094488188977,"duration":0.23177083333331439},{"name":"G4","midi":67,"time":343.8971354166682,"velocity":0.7244094488188977,"duration":0.4635416666666856},{"name":"D#3","midi":51,"time":344.3632812500016,"velocity":0.7244094488188977,"duration":1.861979166666572},{"name":"G3","midi":55,"time":344.3632812500016,"velocity":0.7244094488188977,"duration":0.23177083333331439},{"name":"D#4","midi":63,"time":344.3632812500016,"velocity":0.7244094488188977,"duration":0.23177083333331439},{"name":"F3","midi":53,"time":344.5963541666682,"velocity":0.7244094488188977,"duration":0.23177083333331439},{"name":"D4","midi":62,"time":344.5963541666682,"velocity":0.7244094488188977,"duration":0.23177083333331439},{"name":"G3","midi":55,"time":344.8307291666682,"velocity":0.7244094488188977,"duration":0.4661458333333144},{"name":"D#4","midi":63,"time":344.8307291666682,"velocity":0.7244094488188977,"duration":0.11458333333331439},{"name":"D4","midi":62,"time":344.9479166666682,"velocity":0.7244094488188977,"duration":0.11458333333331439},{"name":"D#4","midi":63,"time":345.0651041666682,"velocity":0.7244094488188977,"duration":0.23177083333331439},{"name":"G#3","midi":56,"time":345.2994791666682,"velocity":0.7244094488188977,"duration":0.4661458333333144},{"name":"G4","midi":67,"time":345.2994791666682,"velocity":0.7244094488188977,"duration":0.11458333333331439},{"name":"F4","midi":65,"time":345.4166666666682,"velocity":0.7244094488188977,"duration":0.11458333333331439},{"name":"D#4","midi":63,"time":345.5338541666682,"velocity":0.7244094488188977,"duration":0.11458333333331439},{"name":"F4","midi":65,"time":345.6510416666682,"velocity":0.7244094488188977,"duration":0.11458333333331439},{"name":"A#3","midi":58,"time":345.76692708333485,"velocity":0.7244094488188977,"duration":0.46354166666662877},{"name":"G4","midi":67,"time":345.76692708333485,"velocity":0.7244094488188977,"duration":0.46354166666662877},{"name":"D#3","midi":51,"time":346.2343750000015,"velocity":0.7244094488188977,"duration":0.23177083333331439},{"name":"C5","midi":72,"time":346.2343750000015,"velocity":0.7244094488188977,"duration":0.23177083333331439},{"name":"D3","midi":50,"time":346.4674479166681,"velocity":0.7244094488188977,"duration":0.23177083333331439},{"name":"A#4","midi":70,"time":346.4674479166681,"velocity":0.7244094488188977,"duration":0.23177083333331439},{"name":"D#3","midi":51,"time":346.7018229166681,"velocity":0.7244094488188977,"duration":0.4661458333333144},{"name":"C5","midi":72,"time":346.7018229166681,"velocity":0.7244094488188977,"duration":0.11458333333331439},{"name":"A#4","midi":70,"time":346.8190104166681,"velocity":0.7244094488188977,"duration":0.11458333333331439},{"name":"C5","midi":72,"time":346.9361979166681,"velocity":0.7244094488188977,"duration":0.23177083333331439},{"name":"F3","midi":53,"time":347.1705729166681,"velocity":0.7244094488188977,"duration":0.4635416666666856},{"name":"G#4","midi":68,"time":347.1705729166681,"velocity":0.7244094488188977,"duration":0.4635416666666856},{"name":"G3","midi":55,"time":347.6367187500015,"velocity":0.7244094488188977,"duration":0.4635416666666856},{"name":"A#4","midi":70,"time":347.6367187500015,"velocity":0.7244094488188977,"duration":0.4635416666666856},{"name":"C4","midi":60,"time":348.10286458333485,"velocity":0.7244094488188977,"duration":0.23177083333331439},{"name":"D#5","midi":75,"time":348.10286458333485,"velocity":0.7244094488188977,"duration":0.23177083333331439},{"name":"A#3","midi":58,"time":348.33723958333485,"velocity":0.7244094488188977,"duration":0.23177083333331439},{"name":"D5","midi":74,"time":348.33723958333485,"velocity":0.7244094488188977,"duration":0.23177083333331439},{"name":"C4","midi":60,"time":348.5703125000015,"velocity":0.7244094488188977,"duration":0.4635416666666856},{"name":"D#5","midi":75,"time":348.5703125000015,"velocity":0.7244094488188977,"duration":0.4635416666666856},{"name":"G#3","midi":56,"time":349.03645833333485,"velocity":0.7244094488188977,"duration":0.4661458333333144},{"name":"G5","midi":79,"time":349.03645833333485,"velocity":0.7244094488188977,"duration":0.11458333333331439},{"name":"F5","midi":77,"time":349.15364583333485,"velocity":0.7244094488188977,"duration":0.11458333333331439},{"name":"D#5","midi":75,"time":349.27083333333485,"velocity":0.7244094488188977,"duration":0.11458333333331439},{"name":"F5","midi":77,"time":349.38802083333485,"velocity":0.7244094488188977,"duration":0.11458333333331439},{"name":"A#3","midi":58,"time":349.50520833333485,"velocity":0.7244094488188977,"duration":0.4661458333333144},{"name":"D#5","midi":75,"time":349.50520833333485,"velocity":0.7244094488188977,"duration":0.23177083333331439},{"name":"D5","midi":74,"time":349.73958333333485,"velocity":0.7244094488188977,"duration":0.23177083333331439},{"name":"C4","midi":60,"time":349.97395833333485,"velocity":0.7244094488188977,"duration":0.46614583333325754},{"name":"C5","midi":72,"time":349.97395833333485,"velocity":0.7244094488188977,"duration":0.23177083333331439},{"name":"D5","midi":74,"time":350.2070312500015,"velocity":0.7244094488188977,"duration":0.23177083333331439},{"name":"D4","midi":62,"time":350.4414062500014,"velocity":0.7244094488188977,"duration":0.4635416666666856},{"name":"A#4","midi":70,"time":350.4414062500014,"velocity":0.7244094488188977,"duration":0.4635416666666856},{"name":"A#3","midi":58,"time":350.9075520833348,"velocity":0.7244094488188977,"duration":0.4661458333333144},{"name":"F5","midi":77,"time":350.9075520833348,"velocity":0.7244094488188977,"duration":0.23177083333331439},{"name":"D5","midi":74,"time":351.1419270833348,"velocity":0.7244094488188977,"duration":0.23177083333331439},{"name":"C4","midi":60,"time":351.3763020833348,"velocity":0.7244094488188977,"duration":0.4635416666666856},{"name":"A#4","midi":70,"time":351.3763020833348,"velocity":0.7244094488188977,"duration":0.4635416666666856},{"name":"F4","midi":65,"time":351.84244791666816,"velocity":0.7244094488188977,"duration":0.4661458333333144},{"name":"A#4","midi":70,"time":351.84244791666816,"velocity":0.7244094488188977,"duration":0.11458333333331439},{"name":"G#4","midi":68,"time":351.95963541666816,"velocity":0.7244094488188977,"duration":0.11458333333331439},{"name":"G4","midi":67,"time":352.07682291666816,"velocity":0.7244094488188977,"duration":0.23177083333331439},{"name":"D4","midi":62,"time":352.31119791666816,"velocity":0.7244094488188977,"duration":0.4635416666666856},{"name":"G#4","midi":68,"time":352.31119791666816,"velocity":0.7244094488188977,"duration":0.4635416666666856},{"name":"A#3","midi":58,"time":352.77734375000153,"velocity":0.7244094488188977,"duration":0.46614583333325754},{"name":"F5","midi":77,"time":352.77734375000153,"velocity":0.7244094488188977,"duration":0.23177083333331439},{"name":"D5","midi":74,"time":353.01041666666816,"velocity":0.7244094488188977,"duration":0.23177083333331439},{"name":"D#4","midi":63,"time":353.2447916666681,"velocity":0.7244094488188977,"duration":0.4661458333333144},{"name":"A#4","midi":70,"time":353.2447916666681,"velocity":0.7244094488188977,"duration":0.23177083333331439},{"name":"G4","midi":67,"time":353.4791666666681,"velocity":0.7244094488188977,"duration":0.23177083333331439},{"name":"A#3","midi":58,"time":353.7135416666681,"velocity":0.7244094488188977,"duration":0.4661458333333144},{"name":"G#4","midi":68,"time":353.7135416666681,"velocity":0.7244094488188977,"duration":0.23177083333331439},{"name":"F4","midi":65,"time":353.9479166666681,"velocity":0.7244094488188977,"duration":0.23177083333331439},{"name":"D#3","midi":51,"time":354.18098958333474,"velocity":0.7244094488188977,"duration":0.4661458333333144},{"name":"G4","midi":67,"time":354.18098958333474,"velocity":0.7244094488188977,"duration":0.11458333333331439},{"name":"F4","midi":65,"time":354.29817708333474,"velocity":0.7244094488188977,"duration":0.11458333333331439},{"name":"G4","midi":67,"time":354.41536458333474,"velocity":0.7244094488188977,"duration":0.23177083333331439},{"name":"C4","midi":60,"time":354.64973958333474,"velocity":0.7244094488188977,"duration":0.4661458333333144},{"name":"G5","midi":79,"time":354.64973958333474,"velocity":0.7244094488188977,"duration":0.23177083333331439},{"name":"D#5","midi":75,"time":354.88411458333474,"velocity":0.7244094488188977,"duration":0.23177083333331439},{"name":"D4","midi":62,"time":355.11848958333474,"velocity":0.7244094488188977,"duration":0.4635416666666856},{"name":"C5","midi":72,"time":355.11848958333474,"velocity":0.7244094488188977,"duration":0.4635416666666856},{"name":"G4","midi":67,"time":355.5846354166681,"velocity":0.7244094488188977,"duration":0.46614583333325754},{"name":"C5","midi":72,"time":355.5846354166681,"velocity":0.7244094488188977,"duration":0.11458333333331439},{"name":"A#4","midi":70,"time":355.7018229166681,"velocity":0.7244094488188977,"duration":0.11458333333331439},{"name":"A4","midi":69,"time":355.81770833333474,"velocity":0.7244094488188977,"duration":0.23177083333331439},{"name":"E4","midi":64,"time":356.0520833333347,"velocity":0.7244094488188977,"duration":0.4635416666666856},{"name":"A#4","midi":70,"time":356.0520833333347,"velocity":0.7244094488188977,"duration":0.4635416666666856},{"name":"C4","midi":60,"time":356.51822916666805,"velocity":0.7244094488188977,"duration":0.4661458333333144},{"name":"G5","midi":79,"time":356.51822916666805,"velocity":0.7244094488188977,"duration":0.23177083333331439},{"name":"E5","midi":76,"time":356.75260416666805,"velocity":0.7244094488188977,"duration":0.23177083333331439},{"name":"F4","midi":65,"time":356.98697916666805,"velocity":0.7244094488188977,"duration":0.4661458333333144},{"name":"C5","midi":72,"time":356.98697916666805,"velocity":0.7244094488188977,"duration":0.23177083333331439},{"name":"A4","midi":69,"time":357.22135416666805,"velocity":0.7244094488188977,"duration":0.23177083333331439},{"name":"C4","midi":60,"time":357.45572916666805,"velocity":0.7244094488188977,"duration":0.46614583333325754},{"name":"A#4","midi":70,"time":357.45572916666805,"velocity":0.7244094488188977,"duration":0.23177083333331439},{"name":"G4","midi":67,"time":357.6888020833347,"velocity":0.7244094488188977,"duration":0.23177083333331439},{"name":"F3","midi":53,"time":357.9231770833346,"velocity":0.7244094488188977,"duration":0.4609375},{"name":"A4","midi":69,"time":357.9231770833346,"velocity":0.7244094488188977,"duration":0.11458333333331439},{"name":"G4","midi":67,"time":358.0403645833346,"velocity":0.7244094488188977,"duration":0.11458333333331439},{"name":"A4","midi":69,"time":358.1575520833346,"velocity":0.7244094488188977,"duration":0.23177083333331439},{"name":"F4","midi":65,"time":358.3919270833346,"velocity":0.7244094488188977,"duration":0.23177083333331439},{"name":"A4","midi":69,"time":358.6263020833346,"velocity":0.7244094488188977,"duration":0.23177083333331439},{"name":"C5","midi":72,"time":358.85937500000125,"velocity":0.7244094488188977,"duration":0.23177083333331439},{"name":"A4","midi":69,"time":359.09375000000125,"velocity":0.7244094488188977,"duration":0.23177083333331439},{"name":"A3","midi":57,"time":359.32812500000125,"velocity":0.7244094488188977,"duration":0.23177083333331439},{"name":"F4","midi":65,"time":359.32812500000125,"velocity":0.7244094488188977,"duration":0.23177083333331439},{"name":"F3","midi":53,"time":359.56250000000125,"velocity":0.7244094488188977,"duration":0.23177083333331439},{"name":"A4","midi":69,"time":359.56250000000125,"velocity":0.7244094488188977,"duration":0.23177083333331439},{"name":"C3","midi":48,"time":359.79687500000125,"velocity":0.7244094488188977,"duration":0.46614583333325754},{"name":"C5","midi":72,"time":359.79687500000125,"velocity":0.7244094488188977,"duration":0.23177083333331439},{"name":"A4","midi":69,"time":360.0299479166679,"velocity":0.7244094488188977,"duration":0.23177083333331439},{"name":"F3","midi":53,"time":360.2643229166678,"velocity":0.7244094488188977,"duration":0.23177083333331439},{"name":"C5","midi":72,"time":360.2643229166678,"velocity":0.7244094488188977,"duration":0.23177083333331439},{"name":"C3","midi":48,"time":360.4986979166678,"velocity":0.7244094488188977,"duration":0.23177083333331439},{"name":"D#5","midi":75,"time":360.4986979166678,"velocity":0.7244094488188977,"duration":0.23177083333331439},{"name":"F2","midi":41,"time":360.7330729166678,"velocity":0.7244094488188977,"duration":1.3997395833333144},{"name":"A5","midi":81,"time":360.7330729166678,"velocity":0.7244094488188977,"duration":0.23177083333331439},{"name":"D#5","midi":75,"time":360.9674479166678,"velocity":0.7244094488188977,"duration":0.23177083333331439},{"name":"C5","midi":72,"time":361.20052083333445,"velocity":0.7244094488188977,"duration":0.23177083333331439},{"name":"D#5","midi":75,"time":361.43489583333445,"velocity":0.7244094488188977,"duration":0.23177083333331439},{"name":"A5","midi":81,"time":361.66927083333445,"velocity":0.7244094488188977,"duration":0.23177083333331439},{"name":"D#5","midi":75,"time":361.90364583333445,"velocity":0.7244094488188977,"duration":0.23177083333337123},{"name":"A5","midi":81,"time":362.1380208333345,"velocity":0.7244094488188977,"duration":0.23177083333331439},{"name":"C6","midi":84,"time":362.37109375000114,"velocity":0.7244094488188977,"duration":0.23177083333331439},{"name":"D5","midi":74,"time":362.60546875000114,"velocity":0.7244094488188977,"duration":0.23177083333331439},{"name":"F5","midi":77,"time":362.83984375000114,"velocity":0.7244094488188977,"duration":0.23177083333331439},{"name":"F3","midi":53,"time":363.07421875000114,"velocity":0.7244094488188977,"duration":0.23177083333331439},{"name":"A#5","midi":82,"time":363.07421875000114,"velocity":0.7244094488188977,"duration":0.23177083333331439},{"name":"D3","midi":50,"time":363.30859375000114,"velocity":0.7244094488188977,"duration":0.23177083333331439},{"name":"F5","midi":77,"time":363.30859375000114,"velocity":0.7244094488188977,"duration":0.23177083333331439},{"name":"A#2","midi":46,"time":363.54166666666777,"velocity":0.7244094488188977,"duration":0.4661458333333144},{"name":"G5","midi":79,"time":363.54166666666777,"velocity":0.7244094488188977,"duration":0.23177083333331439},{"name":"D#5","midi":75,"time":363.77604166666777,"velocity":0.7244094488188977,"duration":0.23177083333331439},{"name":"D3","midi":50,"time":364.01041666666777,"velocity":0.7244094488188977,"duration":0.23177083333331439},{"name":"F5","midi":77,"time":364.01041666666777,"velocity":0.7244094488188977,"duration":0.23177083333331439},{"name":"A#2","midi":46,"time":364.24479166666777,"velocity":0.7244094488188977,"duration":0.23177083333331439},{"name":"D5","midi":74,"time":364.24479166666777,"velocity":0.7244094488188977,"duration":0.23177083333331439},{"name":"F2","midi":41,"time":364.47916666666777,"velocity":0.7244094488188977,"duration":0.9335937499999432},{"name":"D#5","midi":75,"time":364.47916666666777,"velocity":0.7244094488188977,"duration":0.23177083333331439},{"name":"C5","midi":72,"time":364.7122395833344,"velocity":0.7244094488188977,"duration":0.23177083333331439},{"name":"D5","midi":74,"time":364.9466145833344,"velocity":0.7244094488188977,"duration":0.23177083333331439},{"name":"A#4","midi":70,"time":365.1809895833344,"velocity":0.7244094488188977,"duration":0.23177083333331439},{"name":"C5","midi":72,"time":365.4153645833344,"velocity":0.7244094488188977,"duration":0.23177083333331439},{"name":"A4","midi":69,"time":365.6497395833344,"velocity":0.7244094488188977,"duration":0.23177083333331439},{"name":"C3","midi":48,"time":365.882812500001,"velocity":0.7244094488188977,"duration":0.4661458333333144},{"name":"A#4","midi":70,"time":365.882812500001,"velocity":0.7244094488188977,"duration":0.23177083333331439},{"name":"G4","midi":67,"time":366.117187500001,"velocity":0.7244094488188977,"duration":0.23177083333331439},{"name":"D3","midi":50,"time":366.351562500001,"velocity":0.7244094488188977,"duration":0.4661458333333144},{"name":"F4","midi":65,"time":366.351562500001,"velocity":0.7244094488188977,"duration":0.23177083333331439},{"name":"A#4","midi":70,"time":366.585937500001,"velocity":0.7244094488188977,"duration":0.23177083333331439},{"name":"D#3","midi":51,"time":366.820312500001,"velocity":0.7244094488188977,"duration":0.46614583333325754},{"name":"G4","midi":67,"time":366.820312500001,"velocity":0.7244094488188977,"duration":0.23177083333331439},{"name":"D#4","midi":63,"time":367.05338541666765,"velocity":0.7244094488188977,"duration":0.23177083333331439},{"name":"F3","midi":53,"time":367.2877604166676,"velocity":0.7244094488188977,"duration":0.4661458333333144},{"name":"D4","midi":62,"time":367.2877604166676,"velocity":0.7244094488188977,"duration":0.23177083333331439},{"name":"A#4","midi":70,"time":367.5221354166676,"velocity":0.7244094488188977,"duration":0.23177083333331439},{"name":"F2","midi":41,"time":367.7565104166676,"velocity":0.7244094488188977,"duration":0.4661458333333144},{"name":"C4","midi":60,"time":367.7565104166676,"velocity":0.7244094488188977,"duration":0.23177083333331439},{"name":"A4","midi":69,"time":367.9908854166676,"velocity":0.7244094488188977,"duration":0.23177083333331439},{"name":"A#2","midi":46,"time":368.2239583333342,"velocity":0.7244094488188977,"duration":0.4661458333333144},{"name":"A4","midi":69,"time":368.2239583333342,"velocity":0.7244094488188977,"duration":0.23177083333331439},{"name":"A#4","midi":70,"time":368.4583333333342,"velocity":0.7244094488188977,"duration":0.11458333333331439},{"name":"A4","midi":69,"time":368.5755208333342,"velocity":0.7244094488188977,"duration":0.11458333333331439},{"name":"D3","midi":50,"time":368.6927083333342,"velocity":0.7244094488188977,"duration":0.23177083333331439},{"name":"A#4","midi":70,"time":368.6927083333342,"velocity":0.7244094488188977,"duration":0.9322916666666856},{"name":"F3","midi":53,"time":368.9270833333342,"velocity":0.7244094488188977,"duration":0.23177083333331439},{"name":"A#3","midi":58,"time":369.1614583333342,"velocity":0.7244094488188977,"duration":0.9322916666666288},{"name":"A#5","midi":82,"time":369.6276041666676,"velocity":0.7244094488188977,"duration":0.23177083333331439},{"name":"F5","midi":77,"time":369.8606770833342,"velocity":0.7244094488188977,"duration":0.23177083333331439},{"name":"D5","midi":74,"time":370.09505208333417,"velocity":0.7244094488188977,"duration":0.4635416666666856},{"name":"A#3","midi":58,"time":370.56119791666754,"velocity":0.7244094488188977,"duration":0.93359375},{"name":"D4","midi":62,"time":370.56119791666754,"velocity":0.7244094488188977,"duration":0.23177083333331439},{"name":"A#4","midi":70,"time":370.56119791666754,"velocity":0.7244094488188977,"duration":0.23177083333331439},{"name":"C4","midi":60,"time":370.79557291666754,"velocity":0.7244094488188977,"duration":0.23177083333331439},{"name":"A4","midi":69,"time":370.79557291666754,"velocity":0.7244094488188977,"duration":0.23177083333331439},{"name":"D4","midi":62,"time":371.02994791666754,"velocity":0.7244094488188977,"duration":0.4661458333333144},{"name":"A#4","midi":70,"time":371.02994791666754,"velocity":0.7244094488188977,"duration":0.11458333333331439},{"name":"A4","midi":69,"time":371.14713541666754,"velocity":0.7244094488188977,"duration":0.11458333333331439},{"name":"A#4","midi":70,"time":371.26432291666754,"velocity":0.7244094488188977,"duration":0.23177083333331439},{"name":"G#3","midi":56,"time":371.49739583333417,"velocity":0.7244094488188977,"duration":0.4661458333333144},{"name":"F4","midi":65,"time":371.49739583333417,"velocity":0.7244094488188977,"duration":0.4661458333333144},{"name":"D#5","midi":75,"time":371.49739583333417,"velocity":0.7244094488188977,"duration":0.11458333333331439},{"name":"D5","midi":74,"time":371.61458333333417,"velocity":0.7244094488188977,"duration":0.11458333333331439},{"name":"C5","midi":72,"time":371.73177083333417,"velocity":0.7244094488188977,"duration":0.11458333333331439},{"name":"D5","midi":74,"time":371.84895833333417,"velocity":0.7244094488188977,"duration":0.11458333333331439},{"name":"A#3","midi":58,"time":371.96614583333417,"velocity":0.7244094488188977,"duration":1.3997395833332575},{"name":"G3","midi":55,"time":371.96614583333417,"velocity":0.7244094488188977,"duration":0.4661458333333144},{"name":"D#5","midi":75,"time":371.96614583333417,"velocity":0.7244094488188977,"duration":0.23177083333331439},{"name":"A#4","midi":70,"time":372.20052083333417,"velocity":0.7244094488188977,"duration":0.23177083333331439},{"name":"F3","midi":53,"time":372.43489583333417,"velocity":0.7244094488188977,"duration":0.46614583333325754},{"name":"F5","midi":77,"time":372.43489583333417,"velocity":0.7244094488188977,"duration":0.23177083333331439},{"name":"A#4","midi":70,"time":372.6679687500008,"velocity":0.7244094488188977,"duration":0.23177083333331439},{"name":"D#3","midi":51,"time":372.90234375000074,"velocity":0.7244094488188977,"duration":0.46614583333337123},{"name":"G5","midi":79,"time":372.90234375000074,"velocity":0.7244094488188977,"duration":0.23177083333331439},{"name":"D#5","midi":75,"time":373.13671875000074,"velocity":0.7244094488188977,"duration":0.23177083333337123},{"name":"G3","midi":55,"time":373.3710937500008,"velocity":0.7244094488188977,"duration":0.4661458333333144},{"name":"C#5","midi":73,"time":373.3710937500008,"velocity":0.7244094488188977,"duration":0.23177083333331439},{"name":"A#4","midi":70,"time":373.6054687500008,"velocity":0.7244094488188977,"duration":0.23177083333331439},{"name":"G#3","midi":56,"time":373.8385416666674,"velocity":0.7244094488188977,"duration":0.4661458333333144},{"name":"C5","midi":72,"time":373.8385416666674,"velocity":0.7244094488188977,"duration":0.23177083333331439},{"name":"F5","midi":77,"time":374.0729166666674,"velocity":0.7244094488188977,"duration":0.23177083333331439},{"name":"F3","midi":53,"time":374.3072916666674,"velocity":0.7244094488188977,"duration":0.4661458333333144},{"name":"G5","midi":79,"time":374.3072916666674,"velocity":0.7244094488188977,"duration":0.23177083333331439},{"name":"G#5","midi":80,"time":374.5416666666674,"velocity":0.7244094488188977,"duration":0.23177083333331439},{"name":"D3","midi":50,"time":374.7760416666674,"velocity":0.7244094488188977,"duration":0.46614583333325754},{"name":"G5","midi":79,"time":374.7760416666674,"velocity":0.7244094488188977,"duration":0.23177083333331439},{"name":"F5","midi":77,"time":375.00911458333405,"velocity":0.7244094488188977,"duration":0.23177083333331439},{"name":"F3","midi":53,"time":375.243489583334,"velocity":0.7244094488188977,"duration":0.4661458333333144},{"name":"D#5","midi":75,"time":375.243489583334,"velocity":0.7244094488188977,"duration":0.23177083333331439},{"name":"D5","midi":74,"time":375.477864583334,"velocity":0.7244094488188977,"duration":0.23177083333331439},{"name":"G3","midi":55,"time":375.712239583334,"velocity":0.7244094488188977,"duration":0.4661458333333144},{"name":"C5","midi":72,"time":375.712239583334,"velocity":0.7244094488188977,"duration":0.23177083333331439},{"name":"B4","midi":71,"time":375.946614583334,"velocity":0.7244094488188977,"duration":0.23177083333331439},{"name":"A3","midi":57,"time":376.1796875000006,"velocity":0.7244094488188977,"duration":0.4661458333333144},{"name":"A4","midi":69,"time":376.1796875000006,"velocity":0.7244094488188977,"duration":0.23177083333331439},{"name":"B4","midi":71,"time":376.4140625000006,"velocity":0.7244094488188977,"duration":0.23177083333331439},{"name":"B3","midi":59,"time":376.6484375000006,"velocity":0.7244094488188977,"duration":0.4635416666666856},{"name":"G4","midi":67,"time":376.6484375000006,"velocity":0.7244094488188977,"duration":0.4635416666666856},{"name":"G3","midi":55,"time":377.114583333334,"velocity":0.7244094488188977,"duration":0.4661458333333144},{"name":"G5","midi":79,"time":377.114583333334,"velocity":0.7244094488188977,"duration":0.23177083333331439},{"name":"D5","midi":74,"time":377.348958333334,"velocity":0.7244094488188977,"duration":0.23177083333331439},{"name":"C4","midi":60,"time":377.583333333334,"velocity":0.7244094488188977,"duration":0.46614583333325754},{"name":"D#5","midi":75,"time":377.583333333334,"velocity":0.7244094488188977,"duration":0.23177083333331439},{"name":"C5","midi":72,"time":377.8164062500006,"velocity":0.7244094488188977,"duration":0.23177083333331439},{"name":"D4","midi":62,"time":378.05078125000057,"velocity":0.7244094488188977,"duration":0.4661458333333144},{"name":"B4","midi":71,"time":378.05078125000057,"velocity":0.7244094488188977,"duration":0.23177083333331439},{"name":"C5","midi":72,"time":378.28515625000057,"velocity":0.7244094488188977,"duration":0.23177083333331439},{"name":"D#4","midi":63,"time":378.51953125000057,"velocity":0.7244094488188977,"duration":0.4661458333333144},{"name":"G5","midi":79,"time":378.51953125000057,"velocity":0.7244094488188977,"duration":0.23177083333331439},{"name":"C5","midi":72,"time":378.75390625000057,"velocity":0.7244094488188977,"duration":0.23177083333331439},{"name":"F4","midi":65,"time":378.9869791666672,"velocity":0.7244094488188977,"duration":0.4661458333333144},{"name":"G#5","midi":80,"time":378.9869791666672,"velocity":0.7244094488188977,"duration":0.23177083333331439},{"name":"C5","midi":72,"time":379.2213541666672,"velocity":0.7244094488188977,"duration":0.23177083333331439},{"name":"G4","midi":67,"time":379.4557291666672,"velocity":0.7244094488188977,"duration":0.4661458333333144},{"name":"B4","midi":71,"time":379.4557291666672,"velocity":0.7244094488188977,"duration":0.23177083333331439},{"name":"F5","midi":77,"time":379.6901041666672,"velocity":0.7244094488188977,"duration":0.23177083333331439},{"name":"D4","midi":62,"time":379.9244791666672,"velocity":0.7244094488188977,"duration":0.46614583333325754},{"name":"G5","midi":79,"time":379.9244791666672,"velocity":0.7244094488188977,"duration":0.23177083333331439},{"name":"F5","midi":77,"time":380.1575520833338,"velocity":0.7244094488188977,"duration":0.23177083333331439},{"name":"B3","midi":59,"time":380.39192708333377,"velocity":0.7244094488188977,"duration":0.4661458333333144},{"name":"D5","midi":74,"time":380.39192708333377,"velocity":0.7244094488188977,"duration":0.23177083333331439},{"name":"F5","midi":77,"time":380.62630208333377,"velocity":0.7244094488188977,"duration":0.23177083333331439},{"name":"G3","midi":55,"time":380.86067708333377,"velocity":0.7244094488188977,"duration":0.4661458333333144},{"name":"B4","midi":71,"time":380.86067708333377,"velocity":0.7244094488188977,"duration":0.23177083333331439},{"name":"F5","midi":77,"time":381.09505208333377,"velocity":0.7244094488188977,"duration":0.23177083333331439},{"name":"C4","midi":60,"time":381.3281250000004,"velocity":0.7244094488188977,"duration":0.4661458333333144},{"name":"D#5","midi":75,"time":381.3281250000004,"velocity":0.7244094488188977,"duration":0.23177083333331439},{"name":"C5","midi":72,"time":381.5625000000004,"velocity":0.7244094488188977,"duration":0.23177083333331439},{"name":"G#3","midi":56,"time":381.7968750000004,"velocity":0.7244094488188977,"duration":0.4661458333333144},{"name":"B4","midi":71,"time":381.7968750000004,"velocity":0.7244094488188977,"duration":0.23177083333331439},{"name":"C5","midi":72,"time":382.0312500000004,"velocity":0.7244094488188977,"duration":0.23177083333331439},{"name":"F3","midi":53,"time":382.2656250000004,"velocity":0.7244094488188977,"duration":0.46614583333325754},{"name":"G#4","midi":68,"time":382.2656250000004,"velocity":0.7244094488188977,"duration":0.23177083333331439},{"name":"C5","midi":72,"time":382.498697916667,"velocity":0.7244094488188977,"duration":0.23177083333331439},{"name":"D#3","midi":51,"time":382.73307291666697,"velocity":0.7244094488188977,"duration":0.4661458333333144},{"name":"G4","midi":67,"time":382.73307291666697,"velocity":0.7244094488188977,"duration":0.23177083333331439},{"name":"C5","midi":72,"time":382.96744791666697,"velocity":0.7244094488188977,"duration":0.23177083333331439},{"name":"D3","midi":50,"time":383.20182291666697,"velocity":0.7244094488188977,"duration":0.4661458333333144},{"name":"F4","midi":65,"time":383.20182291666697,"velocity":0.7244094488188977,"duration":0.23177083333331439},{"name":"B4","midi":71,"time":383.43619791666697,"velocity":0.7244094488188977,"duration":0.23177083333331439},{"name":"C3","midi":48,"time":383.6692708333336,"velocity":0.7244094488188977,"duration":0.4661458333333144},{"name":"A4","midi":69,"time":383.6692708333336,"velocity":0.7244094488188977,"duration":0.23177083333331439},{"name":"B4","midi":71,"time":383.9036458333336,"velocity":0.7244094488188977,"duration":0.23177083333331439},{"name":"B2","midi":47,"time":384.1380208333336,"velocity":0.7244094488188977,"duration":0.4661458333333144},{"name":"D5","midi":74,"time":384.1380208333336,"velocity":0.7244094488188977,"duration":0.23177083333331439},{"name":"G4","midi":67,"time":384.3723958333336,"velocity":0.7244094488188977,"duration":0.23177083333331439},{"name":"G2","midi":43,"time":384.6067708333336,"velocity":0.7244094488188977,"duration":0.46614583333325754},{"name":"F5","midi":77,"time":384.6067708333336,"velocity":0.7244094488188977,"duration":0.23177083333331439},{"name":"G4","midi":67,"time":384.8398437500002,"velocity":0.7244094488188977,"duration":0.23177083333331439},{"name":"C3","midi":48,"time":385.07421875000017,"velocity":0.7244094488188977,"duration":0.4661458333333144},{"name":"F5","midi":77,"time":385.07421875000017,"velocity":0.7244094488188977,"duration":0.23177083333331439},{"name":"D#5","midi":75,"time":385.30859375000017,"velocity":0.7244094488188977,"duration":0.23177083333331439},{"name":"G#2","midi":44,"time":385.54296875000017,"velocity":0.7244094488188977,"duration":0.4661458333333144},{"name":"D5","midi":74,"time":385.54296875000017,"velocity":0.7244094488188977,"duration":0.23177083333331439},{"name":"C5","midi":72,"time":385.77734375000017,"velocity":0.7244094488188977,"duration":0.23177083333331439},{"name":"F2","midi":41,"time":386.0104166666668,"velocity":0.7244094488188977,"duration":0.4661458333333144},{"name":"D#5","midi":75,"time":386.0104166666668,"velocity":0.7244094488188977,"duration":0.23177083333331439},{"name":"D5","midi":74,"time":386.2447916666668,"velocity":0.7244094488188977,"duration":0.23177083333331439},{"name":"G2","midi":43,"time":386.4791666666668,"velocity":0.7244094488188977,"duration":0.4661458333333144},{"name":"C5","midi":72,"time":386.4791666666668,"velocity":0.7244094488188977,"duration":0.23177083333331439},{"name":"B4","midi":71,"time":386.7135416666668,"velocity":0.7244094488188977,"duration":0.23177083333331439},{"name":"C2","midi":36,"time":386.9479166666668,"velocity":0.7244094488188977,"duration":0.4635416666666856},{"name":"B4","midi":71,"time":386.9479166666668,"velocity":0.7244094488188977,"duration":0.4635416666666856},{"name":"D#2","midi":39,"time":387.41406250000017,"velocity":0.7244094488188977,"duration":0.23177083333331439},{"name":"C5","midi":72,"time":387.41406250000017,"velocity":0.7244094488188977,"duration":0.11458333333331439},{"name":"B4","midi":71,"time":387.53125000000017,"velocity":0.7244094488188977,"duration":0.11458333333331439},{"name":"G2","midi":43,"time":387.64843750000017,"velocity":0.7244094488188977,"duration":0.23177083333331439},{"name":"C5","midi":72,"time":387.64843750000017,"velocity":0.7244094488188977,"duration":0.6979166666666288},{"name":"C3","midi":48,"time":387.8815104166668,"velocity":0.7244094488188977,"duration":0.4635416666666856},{"name":"D#3","midi":51,"time":388.3476562500001,"velocity":0.7244094488188977,"duration":0.23177083333331439},{"name":"C5","midi":72,"time":388.3476562500001,"velocity":0.7244094488188977,"duration":0.23177083333331439},{"name":"C3","midi":48,"time":388.5820312500001,"velocity":0.7244094488188977,"duration":0.23177083333331439},{"name":"D5","midi":74,"time":388.5820312500001,"velocity":0.7244094488188977,"duration":0.23177083333331439},{"name":"F3","midi":53,"time":388.8164062500001,"velocity":0.7244094488188977,"duration":0.4661458333333144},{"name":"D#5","midi":75,"time":388.8164062500001,"velocity":0.7244094488188977,"duration":0.23177083333331439},{"name":"C5","midi":72,"time":389.0507812500001,"velocity":0.7244094488188977,"duration":0.23177083333331439},{"name":"C3","midi":48,"time":389.2851562500001,"velocity":0.7244094488188977,"duration":0.23177083333331439},{"name":"A4","midi":69,"time":389.2851562500001,"velocity":0.7244094488188977,"duration":0.23177083333331439},{"name":"A2","midi":45,"time":389.51822916666674,"velocity":0.7244094488188977,"duration":0.23177083333331439},{"name":"F4","midi":65,"time":389.51822916666674,"velocity":0.7244094488188977,"duration":0.23177083333331439},{"name":"F2","midi":41,"time":389.75260416666674,"velocity":0.7244094488188977,"duration":0.4661458333333144},{"name":"A4","midi":69,"time":389.75260416666674,"velocity":0.7244094488188977,"duration":0.23177083333331439},{"name":"C5","midi":72,"time":389.98697916666674,"velocity":0.7244094488188977,"duration":0.23177083333331439},{"name":"A2","midi":45,"time":390.22135416666674,"velocity":0.7244094488188977,"duration":0.23177083333331439},{"name":"F5","midi":77,"time":390.22135416666674,"velocity":0.7244094488188977,"duration":0.4661458333333144},{"name":"F2","midi":41,"time":390.45572916666674,"velocity":0.7244094488188977,"duration":0.23177083333331439},{"name":"A#2","midi":46,"time":390.68880208333337,"velocity":0.7244094488188977,"duration":0.4661458333333144},{"name":"D#5","midi":75,"time":390.68880208333337,"velocity":0.7244094488188977,"duration":0.23177083333331439},{"name":"D5","midi":74,"time":390.92317708333337,"velocity":0.7244094488188977,"duration":0.23177083333331439},{"name":"D3","midi":50,"time":391.15755208333337,"velocity":0.7244094488188977,"duration":0.23177083333331439},{"name":"C5","midi":72,"time":391.15755208333337,"velocity":0.7244094488188977,"duration":0.23177083333331439},{"name":"F3","midi":53,"time":391.39192708333337,"velocity":0.7244094488188977,"duration":0.23177083333331439},{"name":"D#5","midi":75,"time":391.39192708333337,"velocity":0.7244094488188977,"duration":0.23177083333331439},{"name":"A#3","midi":58,"time":391.62630208333337,"velocity":0.7244094488188977,"duration":0.46614583333325754},{"name":"D5","midi":74,"time":391.62630208333337,"velocity":0.7244094488188977,"duration":0.23177083333331439},{"name":"C5","midi":72,"time":391.859375,"velocity":0.7244094488188977,"duration":0.23177083333331439},{"name":"D4","midi":62,"time":392.09374999999994,"velocity":0.7244094488188977,"duration":0.23177083333331439},{"name":"A#4","midi":70,"time":392.09374999999994,"velocity":0.7244094488188977,"duration":0.23177083333331439},{"name":"A#3","midi":58,"time":392.32812499999994,"velocity":0.7244094488188977,"duration":0.23177083333331439},{"name":"C5","midi":72,"time":392.32812499999994,"velocity":0.7244094488188977,"duration":0.23177083333331439},{"name":"D#4","midi":63,"time":392.56249999999994,"velocity":0.7244094488188977,"duration":0.4661458333333144},{"name":"C#5","midi":73,"time":392.56249999999994,"velocity":0.7244094488188977,"duration":0.23177083333331439},{"name":"A#4","midi":70,"time":392.79687499999994,"velocity":0.7244094488188977,"duration":0.23177083333331439},{"name":"A#3","midi":58,"time":393.0299479166666,"velocity":0.7244094488188977,"duration":0.23177083333331439},{"name":"G4","midi":67,"time":393.0299479166666,"velocity":0.7244094488188977,"duration":0.23177083333331439},{"name":"G3","midi":55,"time":393.2643229166666,"velocity":0.7244094488188977,"duration":0.23177083333331439},{"name":"D#4","midi":63,"time":393.2643229166666,"velocity":0.7244094488188977,"duration":0.23177083333331439},{"name":"D#3","midi":51,"time":393.4986979166666,"velocity":0.7244094488188977,"duration":0.4661458333333144},{"name":"G4","midi":67,"time":393.4986979166666,"velocity":0.7244094488188977,"duration":0.23177083333331439},{"name":"A#4","midi":70,"time":393.7330729166666,"velocity":0.7244094488188977,"duration":0.23177083333331439},{"name":"G3","midi":55,"time":393.9674479166666,"velocity":0.7244094488188977,"duration":0.23177083333331439},{"name":"D#5","midi":75,"time":393.9674479166666,"velocity":0.7244094488188977,"duration":0.46614583333325754},{"name":"D#3","midi":51,"time":394.2005208333332,"velocity":0.7244094488188977,"duration":0.23177083333331439},{"name":"G#3","midi":56,"time":394.43489583333314,"velocity":0.7244094488188977,"duration":0.4661458333333144},{"name":"C#5","midi":73,"time":394.43489583333314,"velocity":0.7244094488188977,"duration":0.23177083333331439},{"name":"C5","midi":72,"time":394.66927083333314,"velocity":0.7244094488188977,"duration":0.23177083333331439},{"name":"C4","midi":60,"time":394.90364583333314,"velocity":0.7244094488188977,"duration":0.23177083333331439},{"name":"A#4","midi":70,"time":394.90364583333314,"velocity":0.7244094488188977,"duration":0.23177083333331439},{"name":"D#4","midi":63,"time":395.13802083333314,"velocity":0.7244094488188977,"duration":0.23177083333331439},{"name":"C#5","midi":73,"time":395.13802083333314,"velocity":0.7244094488188977,"duration":0.23177083333331439},{"name":"G#4","midi":68,"time":395.3710937499998,"velocity":0.7244094488188977,"duration":0.4661458333333144},{"name":"C5","midi":72,"time":395.3710937499998,"velocity":0.7244094488188977,"duration":0.23177083333331439},{"name":"D#5","midi":75,"time":395.6054687499998,"velocity":0.7244094488188977,"duration":0.23177083333331439},{"name":"G4","midi":67,"time":395.8398437499998,"velocity":0.7244094488188977,"duration":0.4661458333333144},{"name":"F5","midi":77,"time":395.8398437499998,"velocity":0.7244094488188977,"duration":0.23177083333331439},{"name":"G5","midi":79,"time":396.0742187499998,"velocity":0.7244094488188977,"duration":0.23177083333331439},{"name":"F4","midi":65,"time":396.3085937499998,"velocity":0.7244094488188977,"duration":0.46614583333325754},{"name":"G#5","midi":80,"time":396.3085937499998,"velocity":0.7244094488188977,"duration":0.23177083333331439},{"name":"C5","midi":72,"time":396.5416666666664,"velocity":0.7244094488188977,"duration":0.23177083333331439},{"name":"D#4","midi":63,"time":396.77604166666634,"velocity":0.7244094488188977,"duration":0.4661458333333144},{"name":"F5","midi":77,"time":396.77604166666634,"velocity":0.7244094488188977,"duration":0.23177083333331439},{"name":"G5","midi":79,"time":397.01041666666634,"velocity":0.7244094488188977,"duration":0.23177083333331439},{"name":"D4","midi":62,"time":397.24479166666634,"velocity":0.7244094488188977,"duration":0.4661458333333144},{"name":"G#5","midi":80,"time":397.24479166666634,"velocity":0.7244094488188977,"duration":0.23177083333331439},{"name":"A#4","midi":70,"time":397.47916666666634,"velocity":0.7244094488188977,"duration":0.23177083333331439},{"name":"C4","midi":60,"time":397.712239583333,"velocity":0.7244094488188977,"duration":0.4661458333333144},{"name":"F5","midi":77,"time":397.712239583333,"velocity":0.7244094488188977,"duration":0.23177083333331439},{"name":"G5","midi":79,"time":397.946614583333,"velocity":0.7244094488188977,"duration":0.23177083333331439},{"name":"A#3","midi":58,"time":398.180989583333,"velocity":0.7244094488188977,"duration":0.4661458333333144},{"name":"G#5","midi":80,"time":398.180989583333,"velocity":0.7244094488188977,"duration":0.23177083333331439},{"name":"D5","midi":74,"time":398.415364583333,"velocity":0.7244094488188977,"duration":0.23177083333331439},{"name":"G#3","midi":56,"time":398.649739583333,"velocity":0.7244094488188977,"duration":0.46614583333325754},{"name":"F5","midi":77,"time":398.649739583333,"velocity":0.7244094488188977,"duration":0.23177083333331439},{"name":"G5","midi":79,"time":398.8828124999996,"velocity":0.7244094488188977,"duration":0.23177083333331439},{"name":"G3","midi":55,"time":399.11718749999955,"velocity":0.7244094488188977,"duration":0.4661458333333144},{"name":"G#5","midi":80,"time":399.11718749999955,"velocity":0.7244094488188977,"duration":0.23177083333331439},{"name":"F5","midi":77,"time":399.35156249999955,"velocity":0.7244094488188977,"duration":0.23177083333331439},{"name":"F3","midi":53,"time":399.58593749999955,"velocity":0.7244094488188977,"duration":0.4661458333333144},{"name":"G5","midi":79,"time":399.58593749999955,"velocity":0.7244094488188977,"duration":0.23177083333331439},{"name":"G#5","midi":80,"time":399.82031249999955,"velocity":0.7244094488188977,"duration":0.23177083333331439},{"name":"D#3","midi":51,"time":400.0533854166662,"velocity":0.7244094488188977,"duration":0.4661458333333144},{"name":"G5","midi":79,"time":400.0533854166662,"velocity":0.7244094488188977,"duration":0.23177083333331439},{"name":"D#5","midi":75,"time":400.2877604166662,"velocity":0.7244094488188977,"duration":0.23177083333331439},{"name":"F3","midi":53,"time":400.5221354166662,"velocity":0.7244094488188977,"duration":0.4661458333333144},{"name":"D5","midi":74,"time":400.5221354166662,"velocity":0.7244094488188977,"duration":0.23177083333331439},{"name":"D#5","midi":75,"time":400.7565104166662,"velocity":0.7244094488188977,"duration":0.23177083333331439},{"name":"G3","midi":55,"time":400.9908854166662,"velocity":0.7244094488188977,"duration":0.46614583333325754},{"name":"A#5","midi":82,"time":400.9908854166662,"velocity":0.7244094488188977,"duration":0.23177083333331439},{"name":"D#5","midi":75,"time":401.2239583333328,"velocity":0.7244094488188977,"duration":0.23177083333331439},{"name":"G#3","midi":56,"time":401.45833333333275,"velocity":0.7244094488188977,"duration":0.4661458333333144},{"name":"C6","midi":84,"time":401.45833333333275,"velocity":0.7244094488188977,"duration":0.23177083333331439},{"name":"D#5","midi":75,"time":401.69270833333275,"velocity":0.7244094488188977,"duration":0.23177083333331439},{"name":"A#3","midi":58,"time":401.92708333333275,"velocity":0.7244094488188977,"duration":0.4661458333333144},{"name":"D5","midi":74,"time":401.92708333333275,"velocity":0.7244094488188977,"duration":0.23177083333331439},{"name":"F5","midi":77,"time":402.16145833333275,"velocity":0.7244094488188977,"duration":0.23177083333331439},{"name":"F3","midi":53,"time":402.3945312499994,"velocity":0.7244094488188977,"duration":0.23177083333331439},{"name":"G#4","midi":68,"time":402.3945312499994,"velocity":0.7244094488188977,"duration":0.9322916666666856},{"name":"D3","midi":50,"time":402.6289062499994,"velocity":0.7244094488188977,"duration":0.23177083333331439},{"name":"A#2","midi":46,"time":402.8632812499994,"velocity":0.7244094488188977,"duration":0.9322916666666856},{"name":"G4","midi":67,"time":403.32942708333275,"velocity":0.7244094488188977,"duration":0.23177083333331439},{"name":"F4","midi":65,"time":403.56380208333275,"velocity":0.7244094488188977,"duration":0.23177083333331439},{"name":"G4","midi":67,"time":403.79817708333275,"velocity":0.7244094488188977,"duration":0.23177083333331439},{"name":"D#4","midi":63,"time":404.0312499999994,"velocity":0.7244094488188977,"duration":0.23177083333331439},{"name":"G3","midi":55,"time":404.2656249999994,"velocity":0.7244094488188977,"duration":0.23177083333331439},{"name":"A#3","midi":58,"time":404.2656249999994,"velocity":0.7244094488188977,"duration":0.23177083333331439},{"name":"D#3","midi":51,"time":404.4999999999994,"velocity":0.7244094488188977,"duration":0.23177083333331439},{"name":"D#4","midi":63,"time":404.4999999999994,"velocity":0.7244094488188977,"duration":0.23177083333331439},{"name":"A#2","midi":46,"time":404.7343749999994,"velocity":0.7244094488188977,"duration":0.9335937499999432},{"name":"G4","midi":67,"time":404.7343749999994,"velocity":0.7244094488188977,"duration":0.23177083333331439},{"name":"D#4","midi":63,"time":404.9687499999994,"velocity":0.7244094488188977,"duration":0.23177083333331439},{"name":"G4","midi":67,"time":405.201822916666,"velocity":0.7244094488188977,"duration":0.23177083333331439},{"name":"A#4","midi":70,"time":405.436197916666,"velocity":0.7244094488188977,"duration":0.23177083333331439},{"name":"G#4","midi":68,"time":405.670572916666,"velocity":0.7244094488188977,"duration":0.23177083333331439},{"name":"F4","midi":65,"time":405.904947916666,"velocity":0.7244094488188977,"duration":0.23177083333331439},{"name":"F3","midi":53,"time":406.139322916666,"velocity":0.7244094488188977,"duration":0.23177083333331439},{"name":"D4","midi":62,"time":406.139322916666,"velocity":0.7244094488188977,"duration":0.23177083333331439},{"name":"D3","midi":50,"time":406.37239583333263,"velocity":0.7244094488188977,"duration":0.23177083333331439},{"name":"F4","midi":65,"time":406.37239583333263,"velocity":0.7244094488188977,"duration":0.23177083333331439},{"name":"A#2","midi":46,"time":406.60677083333263,"velocity":0.7244094488188977,"duration":0.93359375},{"name":"G#4","midi":68,"time":406.60677083333263,"velocity":0.7244094488188977,"duration":0.23177083333331439},{"name":"F4","midi":65,"time":406.84114583333263,"velocity":0.7244094488188977,"duration":0.23177083333331439},{"name":"G#4","midi":68,"time":407.07552083333263,"velocity":0.7244094488188977,"duration":0.23177083333331439},{"name":"C5","midi":72,"time":407.30989583333263,"velocity":0.7244094488188977,"duration":0.23177083333331439},{"name":"A#4","midi":70,"time":407.54296874999926,"velocity":0.7244094488188977,"duration":0.23177083333331439},{"name":"G4","midi":67,"time":407.77734374999926,"velocity":0.7244094488188977,"duration":0.23177083333331439},{"name":"A#2","midi":46,"time":408.01171874999926,"velocity":0.7244094488188977,"duration":0.23177083333331439},{"name":"D#4","midi":63,"time":408.01171874999926,"velocity":0.7244094488188977,"duration":0.23177083333331439},{"name":"D#3","midi":51,"time":408.24609374999926,"velocity":0.7244094488188977,"duration":0.23177083333331439},{"name":"G4","midi":67,"time":408.24609374999926,"velocity":0.7244094488188977,"duration":0.23177083333331439},{"name":"G3","midi":55,"time":408.48046874999926,"velocity":0.7244094488188977,"duration":0.46614583333325754},{"name":"A#4","midi":70,"time":408.48046874999926,"velocity":0.7244094488188977,"duration":0.23177083333331439},{"name":"G4","midi":67,"time":408.7135416666659,"velocity":0.7244094488188977,"duration":0.23177083333331439},{"name":"D#3","midi":51,"time":408.94791666666583,"velocity":0.7244094488188977,"duration":0.23177083333331439},{"name":"A#4","midi":70,"time":408.94791666666583,"velocity":0.7244094488188977,"duration":0.23177083333331439},{"name":"G3","midi":55,"time":409.18229166666583,"velocity":0.7244094488188977,"duration":0.23177083333331439},{"name":"D#5","midi":75,"time":409.18229166666583,"velocity":0.7244094488188977,"duration":0.23177083333331439},{"name":"A#3","midi":58,"time":409.41666666666583,"velocity":0.7244094488188977,"duration":0.4661458333333144},{"name":"D5","midi":74,"time":409.41666666666583,"velocity":0.7244094488188977,"duration":0.23177083333331439},{"name":"G#4","midi":68,"time":409.65104166666583,"velocity":0.7244094488188977,"duration":0.23177083333331439},{"name":"G#3","midi":56,"time":409.88411458333246,"velocity":0.7244094488188977,"duration":0.4661458333333144},{"name":"F4","midi":65,"time":409.88411458333246,"velocity":0.7244094488188977,"duration":0.23177083333331439},{"name":"G#4","midi":68,"time":410.11848958333246,"velocity":0.7244094488188977,"duration":0.23177083333331439},{"name":"G3","midi":55,"time":410.35286458333246,"velocity":0.7244094488188977,"duration":0.4661458333333144},{"name":"D5","midi":74,"time":410.35286458333246,"velocity":0.7244094488188977,"duration":0.23177083333331439},{"name":"G#4","midi":68,"time":410.58723958333246,"velocity":0.7244094488188977,"duration":0.23177083333331439},{"name":"F3","midi":53,"time":410.82161458333246,"velocity":0.7244094488188977,"duration":0.46614583333325754},{"name":"D5","midi":74,"time":410.82161458333246,"velocity":0.7244094488188977,"duration":0.23177083333331439},{"name":"F5","midi":77,"time":411.0546874999991,"velocity":0.7244094488188977,"duration":0.23177083333331439},{"name":"G#3","midi":56,"time":411.28906249999903,"velocity":0.7244094488188977,"duration":0.2421875},{"name":"D#5","midi":75,"time":411.28906249999903,"velocity":0.7244094488188977,"duration":0.48567708333337123},{"name":"G3","midi":55,"time":411.5338541666657,"velocity":0.7244094488188977,"duration":0.2421875},{"name":"F3","midi":53,"time":411.77734374999903,"velocity":0.7244094488188977,"duration":0.2421875},{"name":"A#4","midi":70,"time":411.77734374999903,"velocity":0.7244094488188977,"duration":0.48567708333337123},{"name":"D#3","midi":51,"time":412.0221354166657,"velocity":0.7244094488188977,"duration":0.2421875},{"name":"A#3","midi":58,"time":412.26562499999903,"velocity":0.7244094488188977,"duration":0.48567708333337123},{"name":"G#4","midi":68,"time":412.26562499999903,"velocity":0.7244094488188977,"duration":0.2421875},{"name":"G4","midi":67,"time":412.5104166666657,"velocity":0.7244094488188977,"duration":0.2421875},{"name":"A#2","midi":46,"time":412.7552083333324,"velocity":0.7244094488188977,"duration":0.4856770833333144},{"name":"F4","midi":65,"time":412.7552083333324,"velocity":0.7244094488188977,"duration":0.2421875},{"name":"G4","midi":67,"time":412.9986979166657,"velocity":0.7244094488188977,"duration":0.2421875},{"name":"D#3","midi":51,"time":413.2434895833324,"velocity":0.7244094488188977,"duration":0.57421875},{"name":"F4","midi":65,"time":413.2434895833324,"velocity":0.7244094488188977,"duration":0.57421875},{"name":"A#2","midi":46,"time":413.8203124999991,"velocity":0.7244094488188977,"duration":0.2864583333333144},{"name":"D#4","midi":63,"time":413.8203124999991,"velocity":0.7244094488188977,"duration":4.029947916666629},{"name":"G2","midi":43,"time":414.1093749999991,"velocity":0.7244094488188977,"duration":0.2864583333333144},{"name":"D#2","midi":39,"time":414.3971354166657,"velocity":0.7244094488188977,"duration":3.453125},{"name":"G3","midi":55,"time":417.8528645833324,"velocity":0.7244094488188977,"duration":0.4700520833333144},{"name":"D#3","midi":51,"time":417.8528645833324,"velocity":0.7244094488188977,"duration":5.667968750000568},{"name":"D#4","midi":63,"time":417.8528645833324,"velocity":0.7244094488188977,"duration":0.4700520833333144},{"name":"A#3","midi":58,"time":418.3255208333324,"velocity":0.7244094488188977,"duration":0.47135416666674246},{"name":"G4","midi":67,"time":418.3255208333324,"velocity":0.7244094488188977,"duration":0.11588541666668561},{"name":"F4","midi":65,"time":418.4440104166658,"velocity":0.7244094488188977,"duration":0.11588541666668561},{"name":"G4","midi":67,"time":418.56249999999915,"velocity":0.7244094488188977,"duration":0.23307291666668561},{"name":"G#3","midi":56,"time":418.79947916666583,"velocity":0.7244094488188977,"duration":0.9453125000001137},{"name":"G4","midi":67,"time":418.79947916666583,"velocity":0.7244094488188977,"duration":0.11588541666668561},{"name":"F4","midi":65,"time":418.9179687499992,"velocity":0.7244094488188977,"duration":0.11588541666668561},{"name":"G4","midi":67,"time":419.0377604166659,"velocity":0.7244094488188977,"duration":0.11588541666668561},{"name":"F4","midi":65,"time":419.15624999999926,"velocity":0.7244094488188977,"duration":0.11588541666668561},{"name":"D#4","midi":63,"time":419.27604166666595,"velocity":0.7244094488188977,"duration":0.4700520833333144},{"name":"G3","midi":55,"time":419.7473958333326,"velocity":0.7244094488188977,"duration":0.4700520833333144},{"name":"A#4","midi":70,"time":419.7473958333326,"velocity":0.7244094488188977,"duration":0.4700520833333144},{"name":"F3","midi":53,"time":420.2200520833326,"velocity":0.7244094488188977,"duration":0.9479166666667425},{"name":"A#4","midi":70,"time":420.2200520833326,"velocity":0.7244094488188977,"duration":0.11588541666668561},{"name":"G#4","midi":68,"time":420.33854166666595,"velocity":0.7244094488188977,"duration":0.11588541666668561},{"name":"A#4","midi":70,"time":420.45833333333263,"velocity":0.7244094488188977,"duration":0.11588541666668561},{"name":"G#4","midi":68,"time":420.576822916666,"velocity":0.7244094488188977,"duration":0.11588541666668561},{"name":"A#3","midi":58,"time":420.6966145833327,"velocity":0.7244094488188977,"duration":0.46744791666662877},{"name":"G#4","midi":68,"time":420.932291666666,"velocity":0.7244094488188977,"duration":0.23567708333331439},{"name":"A#3","midi":58,"time":421.170572916666,"velocity":0.7244094488188977,"duration":0.47005208333337123},{"name":"G4","midi":67,"time":421.170572916666,"velocity":0.7244094488188977,"duration":0.23307291666668561},{"name":"D#4","midi":63,"time":421.4062499999994,"velocity":0.7244094488188977,"duration":0.23307291666668561},{"name":"G#3","midi":56,"time":421.64322916666606,"velocity":0.7244094488188977,"duration":0.9414062500001137},{"name":"F4","midi":65,"time":421.64322916666606,"velocity":0.7244094488188977,"duration":0.23307291666668561},{"name":"D4","midi":62,"time":421.87890624999943,"velocity":0.7244094488188977,"duration":0.23307291666668561},{"name":"D#4","midi":63,"time":422.1145833333328,"velocity":0.7244094488188977,"duration":0.23307291666668561},{"name":"G4","midi":67,"time":422.3515624999995,"velocity":0.7244094488188977,"duration":0.23307291666668561},{"name":"G3","midi":55,"time":422.58723958333286,"velocity":0.7244094488188977,"duration":0.47005208333337123},{"name":"A#4","midi":70,"time":422.58723958333286,"velocity":0.7244094488188977,"duration":0.23307291666668561},{"name":"G4","midi":67,"time":422.82291666666623,"velocity":0.7244094488188977,"duration":0.23307291666668561},{"name":"F3","midi":53,"time":423.0598958333329,"velocity":0.7244094488188977,"duration":0.47005208333337123},{"name":"G#4","midi":68,"time":423.0598958333329,"velocity":0.7244094488188977,"duration":0.23307291666668561},{"name":"F5","midi":77,"time":423.2955729166663,"velocity":0.7244094488188977,"duration":0.23307291666668561},{"name":"D#3","midi":51,"time":423.532552083333,"velocity":0.7244094488188977,"duration":0.23307291666668561},{"name":"G4","midi":67,"time":423.532552083333,"velocity":0.7244094488188977,"duration":1.416666666666913},{"name":"A#3","midi":58,"time":423.76822916666634,"velocity":0.7244094488188977,"duration":0.23307291666668561},{"name":"D#4","midi":63,"time":424.0039062499997,"velocity":0.7244094488188977,"duration":0.23307291666668561},{"name":"C5","midi":72,"time":424.0039062499997,"velocity":0.7244094488188977,"duration":0.47005208333337123},{"name":"C4","midi":60,"time":424.2408854166664,"velocity":0.7244094488188977,"duration":0.23307291666668561},{"name":"D4","midi":62,"time":424.4765624999998,"velocity":0.7244094488188977,"duration":0.23567708333337123},{"name":"C5","midi":72,"time":424.4765624999998,"velocity":0.7244094488188977,"duration":0.11588541666668561},{"name":"A#4","midi":70,"time":424.59505208333314,"velocity":0.7244094488188977,"duration":0.11588541666668561},{"name":"A#3","midi":58,"time":424.71484374999983,"velocity":0.7244094488188977,"duration":0.23567708333337123},{"name":"C5","midi":72,"time":424.71484374999983,"velocity":0.7244094488188977,"duration":0.11588541666668561},{"name":"A#4","midi":70,"time":424.8333333333332,"velocity":0.7244094488188977,"duration":0.11588541666668561},{"name":"C4","midi":60,"time":424.9531249999999,"velocity":0.7244094488188977,"duration":0.23307291666668561},{"name":"A4","midi":69,"time":424.9531249999999,"velocity":0.7244094488188977,"duration":1.416666666666913},{"name":"A3","midi":57,"time":425.18880208333326,"velocity":0.7244094488188977,"duration":0.23307291666668561},{"name":"A#3","midi":58,"time":425.42447916666663,"velocity":0.7244094488188977,"duration":0.23307291666668561},{"name":"G5","midi":79,"time":425.42447916666663,"velocity":0.7244094488188977,"duration":0.47005208333337123},{"name":"G3","midi":55,"time":425.6614583333333,"velocity":0.7244094488188977,"duration":0.23307291666668561},{"name":"A3","midi":57,"time":425.8971354166667,"velocity":0.7244094488188977,"duration":0.23567708333337123},{"name":"G5","midi":79,"time":425.8971354166667,"velocity":0.7244094488188977,"duration":0.11588541666668561},{"name":"F5","midi":77,"time":426.01692708333337,"velocity":0.7244094488188977,"duration":0.11588541666668561},{"name":"F3","midi":53,"time":426.13541666666674,"velocity":0.7244094488188977,"duration":0.23567708333337123},{"name":"G5","midi":79,"time":426.13541666666674,"velocity":0.7244094488188977,"duration":0.11588541666668561},{"name":"F5","midi":77,"time":426.2539062500001,"velocity":0.7244094488188977,"duration":0.11588541666668561},{"name":"D3","midi":50,"time":426.3736979166668,"velocity":0.7244094488188977,"duration":0.23307291666668561},{"name":"F4","midi":65,"time":426.3736979166668,"velocity":0.7244094488188977,"duration":1.4140625000001137},{"name":"G3","midi":55,"time":426.60937500000017,"velocity":0.7244094488188977,"duration":0.23307291666668561},{"name":"D#5","midi":75,"time":426.60937500000017,"velocity":0.7244094488188977,"duration":0.23307291666668561},{"name":"F3","midi":53,"time":426.84635416666686,"velocity":0.7244094488188977,"duration":0.47005208333337123},{"name":"D5","midi":74,"time":426.84635416666686,"velocity":0.7244094488188977,"duration":0.23307291666668561},{"name":"A#4","midi":70,"time":427.0820312500002,"velocity":0.7244094488188977,"duration":0.23307291666668561},{"name":"F2","midi":41,"time":427.31770833333354,"velocity":0.7244094488188977,"duration":0.4713541666666856},{"name":"C5","midi":72,"time":427.31770833333354,"velocity":0.7244094488188977,"duration":0.23307291666668561},{"name":"A4","midi":69,"time":427.5546875000002,"velocity":0.7244094488188977,"duration":0.23567708333331439},{"name":"A#2","midi":46,"time":427.7929687500002,"velocity":0.7244094488188977,"duration":0.7083333333334281},{"name":"A4","midi":69,"time":427.7929687500002,"velocity":0.7244094488188977,"duration":0.23307291666668561},{"name":"F4","midi":65,"time":428.0286458333336,"velocity":0.7244094488188977,"duration":0.23567708333337123},{"name":"A#4","midi":70,"time":428.0286458333336,"velocity":0.7244094488188977,"duration":0.11588541666668561},{"name":"A4","midi":69,"time":428.14713541666697,"velocity":0.7244094488188977,"duration":0.11588541666668561},{"name":"D4","midi":62,"time":428.26692708333366,"velocity":0.7244094488188977,"duration":0.9414062500000568},{"name":"A#4","midi":70,"time":428.26692708333366,"velocity":0.7244094488188977,"duration":0.9414062500000568},{"name":"A#3","midi":58,"time":428.50260416666697,"velocity":0.7244094488188977,"duration":0.23307291666668561},{"name":"F3","midi":53,"time":428.73958333333366,"velocity":0.7244094488188977,"duration":0.23307291666668561},{"name":"D3","midi":50,"time":428.975260416667,"velocity":0.7244094488188977,"duration":0.23307291666668561},{"name":"A#2","midi":46,"time":429.2109375000004,"velocity":0.7244094488188977,"duration":0.23307291666668561},{"name":"F4","midi":65,"time":429.2109375000004,"velocity":0.7244094488188977,"duration":1.4179687500002274},{"name":"F3","midi":53,"time":429.4479166666671,"velocity":0.7244094488188977,"duration":0.23307291666668561},{"name":"A#3","midi":58,"time":429.68359375000045,"velocity":0.7244094488188977,"duration":0.23567708333337123},{"name":"D5","midi":74,"time":429.68359375000045,"velocity":0.7244094488188977,"duration":0.11588541666668561},{"name":"C5","midi":72,"time":429.8020833333338,"velocity":0.7244094488188977,"duration":0.11588541666668561},{"name":"G3","midi":55,"time":429.9218750000005,"velocity":0.7244094488188977,"duration":0.23307291666668561},{"name":"D5","midi":74,"time":429.9218750000005,"velocity":0.7244094488188977,"duration":0.23307291666668561},{"name":"G#3","midi":56,"time":430.1575520833339,"velocity":0.7244094488188977,"duration":0.23567708333337123},{"name":"D5","midi":74,"time":430.1575520833339,"velocity":0.7244094488188977,"duration":0.11588541666668561},{"name":"C5","midi":72,"time":430.27734375000057,"velocity":0.7244094488188977,"duration":0.11588541666668561},{"name":"F3","midi":53,"time":430.39583333333394,"velocity":0.7244094488188977,"duration":0.23567708333337123},{"name":"D5","midi":74,"time":430.39583333333394,"velocity":0.7244094488188977,"duration":0.11588541666668561},{"name":"C5","midi":72,"time":430.5156250000006,"velocity":0.7244094488188977,"duration":0.11588541666668561},{"name":"G3","midi":55,"time":430.634114583334,"velocity":0.7244094488188977,"duration":0.23307291666668561},{"name":"B4","midi":71,"time":430.634114583334,"velocity":0.7244094488188977,"duration":1.4166666666667993},{"name":"D#3","midi":51,"time":430.86979166666737,"velocity":0.7244094488188977,"duration":0.23307291666668561},{"name":"F3","midi":53,"time":431.10677083333405,"velocity":0.7244094488188977,"duration":0.23307291666668561},{"name":"G#5","midi":80,"time":431.10677083333405,"velocity":0.7244094488188977,"duration":0.47005208333337123},{"name":"D3","midi":50,"time":431.3424479166674,"velocity":0.7244094488188977,"duration":0.23307291666668561},{"name":"D#3","midi":51,"time":431.57812500000074,"velocity":0.7244094488188977,"duration":0.23567708333337123},{"name":"G#5","midi":80,"time":431.57812500000074,"velocity":0.7244094488188977,"duration":0.11588541666668561},{"name":"G5","midi":79,"time":431.6979166666674,"velocity":0.7244094488188977,"duration":0.11588541666668561},{"name":"C3","midi":48,"time":431.8164062500008,"velocity":0.7244094488188977,"duration":0.23567708333331439},{"name":"G#5","midi":80,"time":431.8164062500008,"velocity":0.7244094488188977,"duration":0.11588541666668561},{"name":"G5","midi":79,"time":431.9361979166675,"velocity":0.7244094488188977,"duration":0.11588541666662877},{"name":"B2","midi":47,"time":432.0546875000008,"velocity":0.7244094488188977,"duration":0.47005208333337123},{"name":"G4","midi":67,"time":432.0546875000008,"velocity":0.7244094488188977,"duration":1.4140625000001705},{"name":"F5","midi":77,"time":432.2916666666675,"velocity":0.7244094488188977,"duration":0.23307291666668561},{"name":"C3","midi":48,"time":432.52734375000085,"velocity":0.7244094488188977,"duration":0.47005208333337123},{"name":"D#5","midi":75,"time":432.52734375000085,"velocity":0.7244094488188977,"duration":0.23307291666668561},{"name":"C5","midi":72,"time":432.7630208333342,"velocity":0.7244094488188977,"duration":0.23307291666668561},{"name":"F3","midi":53,"time":433.0000000000009,"velocity":0.7244094488188977,"duration":0.47135416666674246},{"name":"D5","midi":74,"time":433.0000000000009,"velocity":0.7244094488188977,"duration":0.23307291666668561},{"name":"F5","midi":77,"time":433.2356770833343,"velocity":0.7244094488188977,"duration":0.23567708333337123},{"name":"G3","midi":55,"time":433.47395833333434,"velocity":0.7244094488188977,"duration":0.7083333333334281},{"name":"C5","midi":72,"time":433.47395833333434,"velocity":0.7244094488188977,"duration":0.23307291666668561},{"name":"A4","midi":69,"time":433.7096354166677,"velocity":0.7244094488188977,"duration":0.23307291666668561},{"name":"B4","midi":71,"time":433.9466145833344,"velocity":0.7244094488188977,"duration":0.11588541666668561},{"name":"A4","midi":69,"time":434.06510416666777,"velocity":0.7244094488188977,"duration":0.11588541666668561},{"name":"F3","midi":53,"time":434.1835937500011,"velocity":0.7244094488188977,"duration":0.23567708333337123},{"name":"B4","midi":71,"time":434.1835937500011,"velocity":0.7244094488188977,"duration":0.11588541666668561},{"name":"D5","midi":74,"time":434.30338541666777,"velocity":0.7244094488188977,"duration":0.11588541666668561},{"name":"D#3","midi":51,"time":434.42187500000114,"velocity":0.7244094488188977,"duration":0.23307291666668561},{"name":"G4","midi":67,"time":434.42187500000114,"velocity":0.7244094488188977,"duration":0.23307291666668561},{"name":"D3","midi":50,"time":434.6588541666678,"velocity":0.7244094488188977,"duration":0.23307291666668561},{"name":"F4","midi":65,"time":434.6588541666678,"velocity":0.7244094488188977,"duration":0.23307291666668561},{"name":"C3","midi":48,"time":434.8945312500012,"velocity":0.7244094488188977,"duration":0.23307291666668561},{"name":"E4","midi":64,"time":434.8945312500012,"velocity":0.7244094488188977,"duration":2.3580729166670267},{"name":"E3","midi":52,"time":435.13020833333456,"velocity":0.7244094488188977,"duration":0.23307291666668561},{"name":"G3","midi":55,"time":435.36718750000125,"velocity":0.7244094488188977,"duration":0.23567708333337123},{"name":"C#5","midi":73,"time":435.36718750000125,"velocity":0.7244094488188977,"duration":0.11588541666668561},{"name":"C5","midi":72,"time":435.4856770833346,"velocity":0.7244094488188977,"duration":0.11588541666668561},{"name":"A#3","midi":58,"time":435.6054687500013,"velocity":0.7244094488188977,"duration":0.23307291666668561},{"name":"C#5","midi":73,"time":435.6054687500013,"velocity":0.7244094488188977,"duration":0.23307291666668561},{"name":"G#3","midi":56,"time":435.8411458333347,"velocity":0.7244094488188977,"duration":0.23567708333337123},{"name":"C#5","midi":73,"time":435.8411458333347,"velocity":0.7244094488188977,"duration":0.11588541666668561},{"name":"C5","midi":72,"time":435.95963541666805,"velocity":0.7244094488188977,"duration":0.11588541666668561},{"name":"F3","midi":53,"time":436.07942708333474,"velocity":0.7244094488188977,"duration":0.23567708333337123},{"name":"C#5","midi":73,"time":436.07942708333474,"velocity":0.7244094488188977,"duration":0.11588541666668561},{"name":"C5","midi":72,"time":436.1979166666681,"velocity":0.7244094488188977,"duration":0.11588541666668561},{"name":"G3","midi":55,"time":436.3177083333348,"velocity":0.7244094488188977,"duration":0.23307291666668561},{"name":"A#4","midi":70,"time":436.3177083333348,"velocity":0.7244094488188977,"duration":0.23307291666668561},{"name":"E3","midi":52,"time":436.55338541666816,"velocity":0.7244094488188977,"duration":0.23307291666668561},{"name":"G4","midi":67,"time":436.55338541666816,"velocity":0.7244094488188977,"duration":0.23307291666668561},{"name":"F3","midi":53,"time":436.78906250000153,"velocity":0.7244094488188977,"duration":0.47005208333337123},{"name":"G#4","midi":68,"time":436.78906250000153,"velocity":0.7244094488188977,"duration":0.23307291666668561},{"name":"F4","midi":65,"time":437.0260416666682,"velocity":0.7244094488188977,"duration":0.23307291666668561},{"name":"G#3","midi":56,"time":437.2617187500016,"velocity":0.7244094488188977,"duration":0.47005208333337123},{"name":"C4","midi":60,"time":437.2617187500016,"velocity":0.7244094488188977,"duration":0.23307291666668561},{"name":"D#4","midi":63,"time":437.4986979166683,"velocity":0.7244094488188977,"duration":0.23307291666668561},{"name":"A#2","midi":46,"time":437.73437500000165,"velocity":0.7244094488188977,"duration":0.23307291666668561},{"name":"D4","midi":62,"time":437.73437500000165,"velocity":0.7244094488188977,"duration":2.3567708333335986},{"name":"D3","midi":50,"time":437.970052083335,"velocity":0.7244094488188977,"duration":0.23307291666668561},{"name":"F3","midi":53,"time":438.2070312500017,"velocity":0.7244094488188977,"duration":0.23307291666668561},{"name":"C5","midi":72,"time":438.2070312500017,"velocity":0.7244094488188977,"duration":0.47005208333337123},{"name":"G#3","midi":56,"time":438.4427083333351,"velocity":0.7244094488188977,"duration":0.23307291666668561},{"name":"G3","midi":55,"time":438.6783854166684,"velocity":0.7244094488188977,"duration":0.23567708333337123},{"name":"C5","midi":72,"time":438.6783854166684,"velocity":0.7244094488188977,"duration":0.11588541666668561},{"name":"A#4","midi":70,"time":438.7981770833351,"velocity":0.7244094488188977,"duration":0.11588541666668561},{"name":"D#3","midi":51,"time":438.91666666666845,"velocity":0.7244094488188977,"duration":0.23567708333337123},{"name":"C5","midi":72,"time":438.91666666666845,"velocity":0.7244094488188977,"duration":0.11588541666668561},{"name":"A#4","midi":70,"time":439.03645833333513,"velocity":0.7244094488188977,"duration":0.11588541666668561},{"name":"F3","midi":53,"time":439.1549479166685,"velocity":0.7244094488188977,"duration":0.23307291666668561},{"name":"G#4","midi":68,"time":439.1549479166685,"velocity":0.7244094488188977,"duration":0.23307291666668561},{"name":"D3","midi":50,"time":439.3906250000019,"velocity":0.7244094488188977,"duration":0.23307291666668561},{"name":"F4","midi":65,"time":439.3906250000019,"velocity":0.7244094488188977,"duration":0.23307291666668561},{"name":"D#3","midi":51,"time":439.62760416666856,"velocity":0.7244094488188977,"duration":0.4700520833333144},{"name":"G4","midi":67,"time":439.62760416666856,"velocity":0.7244094488188977,"duration":0.23307291666668561},{"name":"D#4","midi":63,"time":439.86328125000193,"velocity":0.7244094488188977,"duration":0.23307291666662877},{"name":"G3","midi":55,"time":440.0989583333352,"velocity":0.7244094488188977,"duration":0.47005208333337123},{"name":"A#3","midi":58,"time":440.0989583333352,"velocity":0.7244094488188977,"duration":0.23307291666668561},{"name":"C#4","midi":61,"time":440.3359375000019,"velocity":0.7244094488188977,"duration":0.23307291666668561},{"name":"G#2","midi":44,"time":440.57161458333525,"velocity":0.7244094488188977,"duration":0.23307291666668561},{"name":"C4","midi":60,"time":440.57161458333525,"velocity":0.7244094488188977,"duration":1.4179687500002274},{"name":"D#3","midi":51,"time":440.80859375000193,"velocity":0.7244094488188977,"duration":0.23307291666668561},{"name":"G#3","midi":56,"time":441.0442708333353,"velocity":0.7244094488188977,"duration":0.23567708333337123},{"name":"F4","midi":65,"time":441.0442708333353,"velocity":0.7244094488188977,"duration":0.11588541666668561},{"name":"D#4","midi":63,"time":441.1627604166687,"velocity":0.7244094488188977,"duration":0.11588541666668561},{"name":"F3","midi":53,"time":441.28255208333536,"velocity":0.7244094488188977,"duration":0.23307291666668561},{"name":"F4","midi":65,"time":441.28255208333536,"velocity":0.7244094488188977,"duration":0.23307291666668561},{"name":"G3","midi":55,"time":441.51822916666873,"velocity":0.7244094488188977,"duration":0.23567708333337123},{"name":"F4","midi":65,"time":441.51822916666873,"velocity":0.7244094488188977,"duration":0.11588541666668561},{"name":"D#4","midi":63,"time":441.6380208333354,"velocity":0.7244094488188977,"duration":0.11588541666668561},{"name":"D#3","midi":51,"time":441.7565104166688,"velocity":0.7244094488188977,"duration":0.23567708333331439},{"name":"F4","midi":65,"time":441.7565104166688,"velocity":0.7244094488188977,"duration":0.11588541666668561},{"name":"D#4","midi":63,"time":441.87500000000216,"velocity":0.7244094488188977,"duration":0.11588541666662877},{"name":"F3","midi":53,"time":441.9947916666688,"velocity":0.7244094488188977,"duration":0.23307291666668561},{"name":"D4","midi":62,"time":441.9947916666688,"velocity":0.7244094488188977,"duration":1.4166666666667993},{"name":"D3","midi":50,"time":442.23046875000216,"velocity":0.7244094488188977,"duration":0.23307291666668561},{"name":"D#3","midi":51,"time":442.46744791666885,"velocity":0.7244094488188977,"duration":0.23307291666668561},{"name":"C5","midi":72,"time":442.46744791666885,"velocity":0.7244094488188977,"duration":0.47005208333337123},{"name":"C3","midi":48,"time":442.7031250000022,"velocity":0.7244094488188977,"duration":0.23307291666668561},{"name":"D3","midi":50,"time":442.93880208333553,"velocity":0.7244094488188977,"duration":0.23567708333337123},{"name":"C5","midi":72,"time":442.93880208333553,"velocity":0.7244094488188977,"duration":0.11588541666668561},{"name":"A#4","midi":70,"time":443.0585937500022,"velocity":0.7244094488188977,"duration":0.11588541666668561},{"name":"A#2","midi":46,"time":443.1770833333356,"velocity":0.7244094488188977,"duration":0.23567708333331439},{"name":"C5","midi":72,"time":443.1770833333356,"velocity":0.7244094488188977,"duration":0.11588541666668561},{"name":"A#4","midi":70,"time":443.2968750000023,"velocity":0.7244094488188977,"duration":0.11588541666662877},{"name":"G2","midi":43,"time":443.4153645833356,"velocity":0.7244094488188977,"duration":0.23307291666668561},{"name":"A#3","midi":58,"time":443.4153645833356,"velocity":0.7244094488188977,"duration":0.9414062500001137},{"name":"C3","midi":48,"time":443.65104166666896,"velocity":0.7244094488188977,"duration":0.23307291666668561},{"name":"G#4","midi":68,"time":443.65104166666896,"velocity":0.7244094488188977,"duration":0.23307291666668561},{"name":"A#2","midi":46,"time":443.88802083333564,"velocity":0.7244094488188977,"duration":0.47005208333337123},{"name":"G4","midi":67,"time":443.88802083333564,"velocity":0.7244094488188977,"duration":0.23307291666668561},{"name":"D#4","midi":63,"time":444.123697916669,"velocity":0.7244094488188977,"duration":0.23307291666668561},{"name":"A#3","midi":58,"time":444.3606770833357,"velocity":0.7244094488188977,"duration":0.47005208333337123},{"name":"F4","midi":65,"time":444.3606770833357,"velocity":0.7244094488188977,"duration":0.23307291666668561},{"name":"D4","midi":62,"time":444.5963541666691,"velocity":0.7244094488188977,"duration":0.23307291666668561},{"name":"D#3","midi":51,"time":444.8320312500024,"velocity":0.7244094488188977,"duration":0.47135416666674246},{"name":"D4","midi":62,"time":444.8320312500024,"velocity":0.7244094488188977,"duration":0.23307291666668561},{"name":"D#4","midi":63,"time":445.0690104166691,"velocity":0.7244094488188977,"duration":0.11588541666668561},{"name":"D4","midi":62,"time":445.18750000000244,"velocity":0.7244094488188977,"duration":0.11588541666668561},{"name":"A#2","midi":46,"time":445.3059895833358,"velocity":0.7244094488188977,"duration":0.4700520833333144},{"name":"D#4","midi":63,"time":445.3059895833358,"velocity":0.7244094488188977,"duration":0.4700520833333144},{"name":"D#2","midi":39,"time":445.7786458333358,"velocity":0.7244094488188977,"duration":0.4700520833333144},{"name":"F#4","midi":66,"time":445.7786458333358,"velocity":0.7244094488188977,"duration":0.4700520833333144},{"name":"A#4","midi":70,"time":445.7786458333358,"velocity":0.7244094488188977,"duration":0.4700520833333144},{"name":"D#3","midi":51,"time":446.2513020833358,"velocity":0.7244094488188977,"duration":0.23307291666668561},{"name":"A#4","midi":70,"time":446.2513020833358,"velocity":0.7244094488188977,"duration":0.9414062500001137},{"name":"F#5","midi":78,"time":446.2513020833358,"velocity":0.7244094488188977,"duration":0.9414062500001137},{"name":"D3","midi":50,"time":446.4869791666692,"velocity":0.7244094488188977,"duration":0.23307291666668561},{"name":"D#3","midi":51,"time":446.7239583333359,"velocity":0.7244094488188977,"duration":0.23307291666668561},{"name":"F3","midi":53,"time":446.95963541666924,"velocity":0.7244094488188977,"duration":0.23307291666668561},{"name":"D#3","midi":51,"time":447.1953125000026,"velocity":0.7244094488188977,"duration":0.23307291666668561},{"name":"A#4","midi":70,"time":447.1953125000026,"velocity":0.7244094488188977,"duration":0.47005208333337123},{"name":"F#4","midi":66,"time":447.1953125000026,"velocity":0.7244094488188977,"duration":0.47005208333337123},{"name":"F3","midi":53,"time":447.4322916666693,"velocity":0.7244094488188977,"duration":0.23307291666668561},{"name":"D#3","midi":51,"time":447.6679687500027,"velocity":0.7244094488188977,"duration":0.23307291666668561},{"name":"B4","midi":71,"time":447.6679687500027,"velocity":0.7244094488188977,"duration":0.23307291666668561},{"name":"G#4","midi":68,"time":447.6679687500027,"velocity":0.7244094488188977,"duration":0.9414062500001137},{"name":"D3","midi":50,"time":447.90364583333604,"velocity":0.7244094488188977,"duration":0.23307291666668561},{"name":"A#4","midi":70,"time":447.90364583333604,"velocity":0.7244094488188977,"duration":0.23307291666668561},{"name":"D#3","midi":51,"time":448.14062500000273,"velocity":0.7244094488188977,"duration":0.23307291666668561},{"name":"B4","midi":71,"time":448.14062500000273,"velocity":0.7244094488188977,"duration":0.47005208333337123},{"name":"F3","midi":53,"time":448.3763020833361,"velocity":0.7244094488188977,"duration":0.23307291666668561},{"name":"D#3","midi":51,"time":448.6119791666694,"velocity":0.7244094488188977,"duration":0.23307291666668561},{"name":"F4","midi":65,"time":448.6119791666694,"velocity":0.7244094488188977,"duration":0.47005208333337123},{"name":"G#4","midi":68,"time":448.6119791666694,"velocity":0.7244094488188977,"duration":0.47005208333337123},{"name":"F3","midi":53,"time":448.8489583333361,"velocity":0.7244094488188977,"duration":0.23307291666668561},{"name":"D3","midi":50,"time":449.08463541666947,"velocity":0.7244094488188977,"duration":0.23307291666668561},{"name":"G#4","midi":68,"time":449.08463541666947,"velocity":0.7244094488188977,"duration":0.9414062500001137},{"name":"F5","midi":77,"time":449.08463541666947,"velocity":0.7244094488188977,"duration":0.9414062500001137},{"name":"C3","midi":48,"time":449.32031250000284,"velocity":0.7244094488188977,"duration":0.23307291666668561},{"name":"D3","midi":50,"time":449.5572916666695,"velocity":0.7244094488188977,"duration":0.23307291666668561},{"name":"D#3","midi":51,"time":449.7929687500029,"velocity":0.7244094488188977,"duration":0.23307291666668561},{"name":"C3","midi":48,"time":450.02864583333627,"velocity":0.7244094488188977,"duration":0.23307291666668561},{"name":"F4","midi":65,"time":450.02864583333627,"velocity":0.7244094488188977,"duration":0.47005208333337123},{"name":"G#4","midi":68,"time":450.02864583333627,"velocity":0.7244094488188977,"duration":0.47005208333337123},{"name":"D3","midi":50,"time":450.26562500000296,"velocity":0.7244094488188977,"duration":0.23307291666668561},{"name":"D#3","midi":51,"time":450.5013020833363,"velocity":0.7244094488188977,"duration":0.23307291666668561},{"name":"F#4","midi":66,"time":450.5013020833363,"velocity":0.7244094488188977,"duration":0.23307291666668561},{"name":"D#4","midi":63,"time":450.5013020833363,"velocity":0.7244094488188977,"duration":0.9414062500001137},{"name":"D3","midi":50,"time":450.738281250003,"velocity":0.7244094488188977,"duration":0.23307291666668561},{"name":"F4","midi":65,"time":450.738281250003,"velocity":0.7244094488188977,"duration":0.23307291666668561},{"name":"D#3","midi":51,"time":450.9739583333364,"velocity":0.7244094488188977,"duration":0.23307291666668561},{"name":"F#4","midi":66,"time":450.9739583333364,"velocity":0.7244094488188977,"duration":0.47005208333337123},{"name":"F3","midi":53,"time":451.20963541666976,"velocity":0.7244094488188977,"duration":0.23307291666668561},{"name":"D#3","midi":51,"time":451.44661458333644,"velocity":0.7244094488188977,"duration":0.23307291666668561},{"name":"F#4","midi":66,"time":451.44661458333644,"velocity":0.7244094488188977,"duration":0.47005208333337123},{"name":"A#4","midi":70,"time":451.44661458333644,"velocity":0.7244094488188977,"duration":0.47005208333337123},{"name":"F3","midi":53,"time":451.6822916666698,"velocity":0.7244094488188977,"duration":0.23307291666668561},{"name":"G3","midi":55,"time":451.9179687500031,"velocity":0.7244094488188977,"duration":0.23307291666668561},{"name":"A#4","midi":70,"time":451.9179687500031,"velocity":0.7244094488188977,"duration":1.4140625000001705},{"name":"E5","midi":76,"time":451.9179687500031,"velocity":0.7244094488188977,"duration":0.47005208333337123},{"name":"F3","midi":53,"time":452.1549479166698,"velocity":0.7244094488188977,"duration":0.23307291666668561},{"name":"G3","midi":55,"time":452.3906250000032,"velocity":0.7244094488188977,"duration":0.23307291666668561},{"name":"D#5","midi":75,"time":452.3906250000032,"velocity":0.7244094488188977,"duration":0.47005208333337123},{"name":"G#3","midi":56,"time":452.62630208333655,"velocity":0.7244094488188977,"duration":0.23307291666668561},{"name":"F3","midi":53,"time":452.86328125000324,"velocity":0.7244094488188977,"duration":0.23307291666668561},{"name":"C#5","midi":73,"time":452.86328125000324,"velocity":0.7244094488188977,"duration":0.47135416666674246},{"name":"G3","midi":55,"time":453.0989583333366,"velocity":0.7244094488188977,"duration":0.23567708333337123},{"name":"G#3","midi":56,"time":453.33723958333667,"velocity":0.7244094488188977,"duration":0.23307291666668561},{"name":"G#4","midi":68,"time":453.33723958333667,"velocity":0.7244094488188977,"duration":0.47005208333337123},{"name":"B4","midi":71,"time":453.33723958333667,"velocity":0.7244094488188977,"duration":0.47005208333337123},{"name":"G3","midi":55,"time":453.57291666667004,"velocity":0.7244094488188977,"duration":0.23307291666668561},{"name":"G#3","midi":56,"time":453.8098958333367,"velocity":0.7244094488188977,"duration":0.23307291666668561},{"name":"A#4","midi":70,"time":453.8098958333367,"velocity":0.7244094488188977,"duration":0.47005208333337123},{"name":"F#4","midi":66,"time":453.8098958333367,"velocity":0.7244094488188977,"duration":0.47005208333337123},{"name":"A#3","midi":58,"time":454.0455729166701,"velocity":0.7244094488188977,"duration":0.23307291666668561},{"name":"C4","midi":60,"time":454.2812500000034,"velocity":0.7244094488188977,"duration":0.23307291666668561},{"name":"G#4","midi":68,"time":454.2812500000034,"velocity":0.7244094488188977,"duration":0.47005208333337123},{"name":"F4","midi":65,"time":454.2812500000034,"velocity":0.7244094488188977,"duration":0.47005208333337123},{"name":"D4","midi":62,"time":454.5182291666701,"velocity":0.7244094488188977,"duration":0.23307291666668561},{"name":"D#4","midi":63,"time":454.75390625000347,"velocity":0.7244094488188977,"duration":1.171875},{"name":"F#4","midi":66,"time":454.75390625000347,"velocity":0.7244094488188977,"duration":0.4700520833333144},{"name":"C#4","midi":61,"time":455.22656250000347,"velocity":0.7244094488188977,"duration":0.47005208333337123},{"name":"G#4","midi":68,"time":455.22656250000347,"velocity":0.7244094488188977,"duration":0.23307291666668561},{"name":"F#4","midi":66,"time":455.46223958333684,"velocity":0.7244094488188977,"duration":0.23307291666668561},{"name":"B3","midi":59,"time":455.69791666667015,"velocity":0.7244094488188977,"duration":0.4700520833333144},{"name":"F4","midi":65,"time":455.69791666667015,"velocity":0.7244094488188977,"duration":0.23307291666662877},{"name":"D#4","midi":63,"time":455.9348958333368,"velocity":0.7244094488188977,"duration":0.23307291666668561},{"name":"A#3","midi":58,"time":456.17057291667015,"velocity":0.7244094488188977,"duration":0.4700520833333144},{"name":"A#4","midi":70,"time":456.17057291667015,"velocity":0.7244094488188977,"duration":0.94140625},{"name":"D4","midi":62,"time":456.17057291667015,"velocity":0.7244094488188977,"duration":0.94140625},{"name":"A#2","midi":46,"time":456.64322916667015,"velocity":0.7244094488188977,"duration":0.4700520833333144},{"name":"A#3","midi":58,"time":457.11588541667015,"velocity":0.7244094488188977,"duration":0.4700520833333144},{"name":"D5","midi":74,"time":457.11588541667015,"velocity":0.7244094488188977,"duration":0.4700520833333144},{"name":"F5","midi":77,"time":457.11588541667015,"velocity":0.7244094488188977,"duration":0.4700520833333144},{"name":"D3","midi":50,"time":457.5872395833368,"velocity":0.7244094488188977,"duration":0.23307291666668561},{"name":"F5","midi":77,"time":457.5872395833368,"velocity":0.7244094488188977,"duration":0.9414062500001137},{"name":"G#5","midi":80,"time":457.5872395833368,"velocity":0.7244094488188977,"duration":0.9414062500001137},{"name":"C3","midi":48,"time":457.82421875000347,"velocity":0.7244094488188977,"duration":0.23307291666668561},{"name":"D3","midi":50,"time":458.05989583333684,"velocity":0.7244094488188977,"duration":0.23307291666668561},{"name":"D#3","midi":51,"time":458.2955729166702,"velocity":0.7244094488188977,"duration":0.23307291666668561},{"name":"C3","midi":48,"time":458.5325520833369,"velocity":0.7244094488188977,"duration":0.23307291666668561},{"name":"A#4","midi":70,"time":458.5325520833369,"velocity":0.7244094488188977,"duration":0.47005208333337123},{"name":"F5","midi":77,"time":458.5325520833369,"velocity":0.7244094488188977,"duration":0.47005208333337123},{"name":"D3","midi":50,"time":458.76822916667027,"velocity":0.7244094488188977,"duration":0.23307291666668561},{"name":"D#3","midi":51,"time":459.0039062500036,"velocity":0.7244094488188977,"duration":0.23307291666668561},{"name":"F#5","midi":78,"time":459.0039062500036,"velocity":0.7244094488188977,"duration":0.23307291666668561},{"name":"D#5","midi":75,"time":459.0039062500036,"velocity":0.7244094488188977,"duration":0.9414062500001137},{"name":"D3","midi":50,"time":459.24088541667027,"velocity":0.7244094488188977,"duration":0.23307291666668561},{"name":"F5","midi":77,"time":459.24088541667027,"velocity":0.7244094488188977,"duration":0.23307291666668561},{"name":"D#3","midi":51,"time":459.47656250000364,"velocity":0.7244094488188977,"duration":0.23307291666668561},{"name":"F#5","midi":78,"time":459.47656250000364,"velocity":0.7244094488188977,"duration":0.47005208333337123},{"name":"F3","midi":53,"time":459.712239583337,"velocity":0.7244094488188977,"duration":0.23307291666668561},{"name":"D#3","midi":51,"time":459.9492187500037,"velocity":0.7244094488188977,"duration":0.23307291666668561},{"name":"C#5","midi":73,"time":459.9492187500037,"velocity":0.7244094488188977,"duration":0.47005208333337123},{"name":"A#5","midi":82,"time":459.9492187500037,"velocity":0.7244094488188977,"duration":0.47005208333337123},{"name":"F3","midi":53,"time":460.18489583333707,"velocity":0.7244094488188977,"duration":0.23307291666668561},{"name":"G3","midi":55,"time":460.4205729166704,"velocity":0.7244094488188977,"duration":0.23307291666668561},{"name":"A#4","midi":70,"time":460.4205729166704,"velocity":0.7244094488188977,"duration":1.1744791666667993},{"name":"C#5","midi":73,"time":460.4205729166704,"velocity":0.7244094488188977,"duration":0.47005208333337123},{"name":"F3","midi":53,"time":460.65755208333707,"velocity":0.7244094488188977,"duration":0.23307291666668561},{"name":"G3","midi":55,"time":460.89322916667044,"velocity":0.7244094488188977,"duration":0.23307291666668561},{"name":"D#5","midi":75,"time":460.89322916667044,"velocity":0.7244094488188977,"duration":0.23307291666668561},{"name":"G#3","midi":56,"time":461.1289062500038,"velocity":0.7244094488188977,"duration":0.23307291666668561},{"name":"C#5","midi":73,"time":461.1289062500038,"velocity":0.7244094488188977,"duration":0.23307291666668561},{"name":"F3","midi":53,"time":461.3658854166705,"velocity":0.7244094488188977,"duration":0.23307291666668561},{"name":"B4","midi":71,"time":461.3658854166705,"velocity":0.7244094488188977,"duration":0.23307291666668561},{"name":"G3","midi":55,"time":461.60156250000387,"velocity":0.7244094488188977,"duration":0.23307291666668561},{"name":"A#4","midi":70,"time":461.60156250000387,"velocity":0.7244094488188977,"duration":0.23307291666668561},{"name":"G#3","midi":56,"time":461.83854166667055,"velocity":0.7244094488188977,"duration":0.47005208333337123},{"name":"G#4","midi":68,"time":461.83854166667055,"velocity":0.7244094488188977,"duration":0.7057291666666856},{"name":"C#5","midi":73,"time":461.83854166667055,"velocity":0.7244094488188977,"duration":0.23307291666668561},{"name":"B4","midi":71,"time":462.0742187500039,"velocity":0.7244094488188977,"duration":0.23307291666668561},{"name":"G#2","midi":44,"time":462.30989583333724,"velocity":0.7244094488188977,"duration":0.23307291666668561},{"name":"A#4","midi":70,"time":462.30989583333724,"velocity":0.7244094488188977,"duration":0.23307291666668561},{"name":"F#3","midi":54,"time":462.5468750000039,"velocity":0.7244094488188977,"duration":0.23307291666668561},{"name":"G#4","midi":68,"time":462.5468750000039,"velocity":0.7244094488188977,"duration":0.23307291666668561},{"name":"F3","midi":53,"time":462.7825520833373,"velocity":0.7244094488188977,"duration":0.23307291666668561},{"name":"B4","midi":71,"time":462.7825520833373,"velocity":0.7244094488188977,"duration":0.47005208333337123},{"name":"G#4","midi":68,"time":462.7825520833373,"velocity":0.7244094488188977,"duration":0.47005208333337123},{"name":"D#3","midi":51,"time":463.01822916667066,"velocity":0.7244094488188977,"duration":0.23307291666668561},{"name":"D3","midi":50,"time":463.25520833333735,"velocity":0.7244094488188977,"duration":0.23307291666668561},{"name":"G#4","midi":68,"time":463.25520833333735,"velocity":0.7244094488188977,"duration":0.9414062500001137},{"name":"B4","midi":71,"time":463.25520833333735,"velocity":0.7244094488188977,"duration":0.9414062500001137},{"name":"C3","midi":48,"time":463.4908854166707,"velocity":0.7244094488188977,"duration":0.23307291666668561},{"name":"D3","midi":50,"time":463.7265625000041,"velocity":0.7244094488188977,"duration":0.23307291666668561},{"name":"D#3","midi":51,"time":463.9635416666708,"velocity":0.7244094488188977,"duration":0.23307291666668561},{"name":"F3","midi":53,"time":464.19921875000415,"velocity":0.7244094488188977,"duration":0.23307291666668561},{"name":"F#4","midi":66,"time":464.19921875000415,"velocity":0.7244094488188977,"duration":0.47005208333337123},{"name":"A#4","midi":70,"time":464.19921875000415,"velocity":0.7244094488188977,"duration":0.47005208333337123},{"name":"F#3","midi":54,"time":464.4348958333375,"velocity":0.7244094488188977,"duration":0.23307291666668561},{"name":"G#3","midi":56,"time":464.6718750000042,"velocity":0.7244094488188977,"duration":0.23307291666668561},{"name":"D5","midi":74,"time":464.6718750000042,"velocity":0.7244094488188977,"duration":0.9414062500001137},{"name":"F4","midi":65,"time":464.6718750000042,"velocity":0.7244094488188977,"duration":0.9414062500001137},{"name":"B3","midi":59,"time":464.9075520833376,"velocity":0.7244094488188977,"duration":0.23307291666668561},{"name":"A#3","midi":58,"time":465.14322916667095,"velocity":0.7244094488188977,"duration":0.23307291666668561},{"name":"G#3","midi":56,"time":465.38020833333763,"velocity":0.7244094488188977,"duration":0.23307291666668561},{"name":"F#3","midi":54,"time":465.615885416671,"velocity":0.7244094488188977,"duration":0.23307291666668561},{"name":"F#4","midi":66,"time":465.615885416671,"velocity":0.7244094488188977,"duration":0.47005208333337123},{"name":"D#5","midi":75,"time":465.615885416671,"velocity":0.7244094488188977,"duration":0.47005208333337123},{"name":"F3","midi":53,"time":465.8515625000044,"velocity":0.7244094488188977,"duration":0.23307291666668561},{"name":"D#3","midi":51,"time":466.08854166667106,"velocity":0.7244094488188977,"duration":0.23307291666668561},{"name":"A#4","midi":70,"time":466.08854166667106,"velocity":0.7244094488188977,"duration":0.47005208333337123},{"name":"F5","midi":77,"time":466.08854166667106,"velocity":0.7244094488188977,"duration":0.47005208333337123},{"name":"D3","midi":50,"time":466.32421875000443,"velocity":0.7244094488188977,"duration":0.23307291666668561},{"name":"D#3","midi":51,"time":466.5611979166711,"velocity":0.7244094488188977,"duration":0.47005208333337123},{"name":"F#5","midi":78,"time":466.5611979166711,"velocity":0.7244094488188977,"duration":0.23307291666668561},{"name":"D#5","midi":75,"time":466.5611979166711,"velocity":0.7244094488188977,"duration":0.9414062500000568},{"name":"F5","midi":77,"time":466.7968750000045,"velocity":0.7244094488188977,"duration":0.23307291666668561},{"name":"D#2","midi":39,"time":467.0325520833378,"velocity":0.7244094488188977,"duration":0.47005208333337123},{"name":"F#5","midi":78,"time":467.0325520833378,"velocity":0.7244094488188977,"duration":0.23307291666668561},{"name":"G#5","midi":80,"time":467.2695312500045,"velocity":0.7244094488188977,"duration":0.23307291666668561},{"name":"A#2","midi":46,"time":467.50520833333786,"velocity":0.7244094488188977,"duration":0.23307291666668561},{"name":"F5","midi":77,"time":467.50520833333786,"velocity":0.7244094488188977,"duration":0.9414062500001137},{"name":"D5","midi":74,"time":467.50520833333786,"velocity":0.7244094488188977,"duration":0.9414062500001137},{"name":"A2","midi":45,"time":467.74088541667123,"velocity":0.7244094488188977,"duration":0.23307291666668561},{"name":"A#2","midi":46,"time":467.9778645833379,"velocity":0.7244094488188977,"duration":0.23307291666668561},{"name":"C3","midi":48,"time":468.2135416666713,"velocity":0.7244094488188977,"duration":0.23307291666668561},{"name":"D3","midi":50,"time":468.44921875000466,"velocity":0.7244094488188977,"duration":0.23307291666668561},{"name":"A#4","midi":70,"time":468.44921875000466,"velocity":0.7244094488188977,"duration":0.47005208333337123},{"name":"A#2","midi":46,"time":468.68619791667135,"velocity":0.7244094488188977,"duration":0.23307291666668561},{"name":"D#3","midi":51,"time":468.9218750000047,"velocity":0.7244094488188977,"duration":0.23307291666668561},{"name":"A#4","midi":70,"time":468.9218750000047,"velocity":0.7244094488188977,"duration":0.9414062500001137},{"name":"F#5","midi":78,"time":468.9218750000047,"velocity":0.7244094488188977,"duration":0.9414062500001137},{"name":"D3","midi":50,"time":469.1575520833381,"velocity":0.7244094488188977,"duration":0.23307291666668561},{"name":"D#3","midi":51,"time":469.3945312500048,"velocity":0.7244094488188977,"duration":0.23307291666668561},{"name":"F3","midi":53,"time":469.63020833333815,"velocity":0.7244094488188977,"duration":0.23307291666668561},{"name":"D#3","midi":51,"time":469.8658854166715,"velocity":0.7244094488188977,"duration":0.23307291666668561},{"name":"F#4","midi":66,"time":469.8658854166715,"velocity":0.7244094488188977,"duration":0.47005208333337123},{"name":"A#4","midi":70,"time":469.8658854166715,"velocity":0.7244094488188977,"duration":0.47005208333337123},{"name":"F3","midi":53,"time":470.1028645833382,"velocity":0.7244094488188977,"duration":0.23307291666668561},{"name":"D#3","midi":51,"time":470.3385416666716,"velocity":0.7244094488188977,"duration":0.23307291666668561},{"name":"B4","midi":71,"time":470.3385416666716,"velocity":0.7244094488188977,"duration":0.23307291666668561},{"name":"G#4","midi":68,"time":470.3385416666716,"velocity":0.7244094488188977,"duration":0.9414062500001137},{"name":"D3","midi":50,"time":470.57421875000495,"velocity":0.7244094488188977,"duration":0.23307291666668561},{"name":"A#4","midi":70,"time":470.57421875000495,"velocity":0.7244094488188977,"duration":0.23307291666668561},{"name":"D#3","midi":51,"time":470.81119791667163,"velocity":0.7244094488188977,"duration":0.23307291666668561},{"name":"B4","midi":71,"time":470.81119791667163,"velocity":0.7244094488188977,"duration":0.47005208333337123},{"name":"F3","midi":53,"time":471.046875000005,"velocity":0.7244094488188977,"duration":0.23307291666668561},{"name":"D#3","midi":51,"time":471.2838541666717,"velocity":0.7244094488188977,"duration":0.23307291666668561},{"name":"F4","midi":65,"time":471.2838541666717,"velocity":0.7244094488188977,"duration":0.47005208333337123},{"name":"G#4","midi":68,"time":471.2838541666717,"velocity":0.7244094488188977,"duration":0.47005208333337123},{"name":"F3","midi":53,"time":471.51953125000506,"velocity":0.7244094488188977,"duration":0.23307291666668561},{"name":"D3","midi":50,"time":471.7552083333384,"velocity":0.7244094488188977,"duration":0.23307291666668561},{"name":"G#4","midi":68,"time":471.7552083333384,"velocity":0.7244094488188977,"duration":0.9414062500001137},{"name":"F5","midi":77,"time":471.7552083333384,"velocity":0.7244094488188977,"duration":0.9414062500001137},{"name":"C3","midi":48,"time":471.99218750000506,"velocity":0.7244094488188977,"duration":0.23307291666668561},{"name":"D3","midi":50,"time":472.22786458333843,"velocity":0.7244094488188977,"duration":0.23307291666668561},{"name":"D#3","midi":51,"time":472.4635416666718,"velocity":0.7244094488188977,"duration":0.23307291666668561},{"name":"C3","midi":48,"time":472.7005208333385,"velocity":0.7244094488188977,"duration":0.23307291666668561},{"name":"F4","midi":65,"time":472.7005208333385,"velocity":0.7244094488188977,"duration":0.47005208333337123},{"name":"G#4","midi":68,"time":472.7005208333385,"velocity":0.7244094488188977,"duration":0.47005208333337123},{"name":"D3","midi":50,"time":472.93619791667186,"velocity":0.7244094488188977,"duration":0.23307291666668561},{"name":"D#3","midi":51,"time":473.1718750000052,"velocity":0.7244094488188977,"duration":0.23307291666668561},{"name":"F#4","midi":66,"time":473.1718750000052,"velocity":0.7244094488188977,"duration":0.23307291666668561},{"name":"D#4","midi":63,"time":473.1718750000052,"velocity":0.7244094488188977,"duration":0.9414062500001137},{"name":"D3","midi":50,"time":473.40885416667186,"velocity":0.7244094488188977,"duration":0.23307291666668561},{"name":"F4","midi":65,"time":473.40885416667186,"velocity":0.7244094488188977,"duration":0.23307291666668561},{"name":"D#3","midi":51,"time":473.64453125000523,"velocity":0.7244094488188977,"duration":0.23307291666668561},{"name":"F#4","midi":66,"time":473.64453125000523,"velocity":0.7244094488188977,"duration":0.47005208333337123},{"name":"F3","midi":53,"time":473.8802083333386,"velocity":0.7244094488188977,"duration":0.23307291666668561},{"name":"D#3","midi":51,"time":474.1171875000053,"velocity":0.7244094488188977,"duration":0.23307291666668561},{"name":"F#4","midi":66,"time":474.1171875000053,"velocity":0.7244094488188977,"duration":0.47005208333337123},{"name":"A#4","midi":70,"time":474.1171875000053,"velocity":0.7244094488188977,"duration":0.47005208333337123},{"name":"F3","midi":53,"time":474.35286458333866,"velocity":0.7244094488188977,"duration":0.23307291666668561},{"name":"G3","midi":55,"time":474.588541666672,"velocity":0.7244094488188977,"duration":0.23958333333331439},{"name":"E5","midi":76,"time":474.588541666672,"velocity":0.7244094488188977,"duration":0.4817708333333144},{"name":"A#4","midi":70,"time":474.588541666672,"velocity":0.7244094488188977,"duration":1.4505208333333144},{"name":"F3","midi":53,"time":474.830729166672,"velocity":0.7244094488188977,"duration":0.23958333333331439},{"name":"G3","midi":55,"time":475.072916666672,"velocity":0.7244094488188977,"duration":0.23958333333331439},{"name":"D#5","midi":75,"time":475.072916666672,"velocity":0.7244094488188977,"duration":0.4817708333333144},{"name":"G#3","midi":56,"time":475.315104166672,"velocity":0.7244094488188977,"duration":0.23958333333331439},{"name":"F3","midi":53,"time":475.557291666672,"velocity":0.7244094488188977,"duration":0.23958333333331439},{"name":"C#5","midi":73,"time":475.557291666672,"velocity":0.7244094488188977,"duration":0.484375},{"name":"G3","midi":55,"time":475.799479166672,"velocity":0.7244094488188977,"duration":0.2421875},{"name":"G#3","midi":56,"time":476.04427083333866,"velocity":0.7244094488188977,"duration":0.24739583333331439},{"name":"B4","midi":71,"time":476.04427083333866,"velocity":0.7244094488188977,"duration":0.4973958333333144},{"name":"G#4","midi":68,"time":476.04427083333866,"velocity":0.7244094488188977,"duration":0.4973958333333144},{"name":"G3","midi":55,"time":476.29427083333866,"velocity":0.7244094488188977,"duration":0.24739583333331439},{"name":"G#3","midi":56,"time":476.54427083333866,"velocity":0.7244094488188977,"duration":0.24739583333331439},{"name":"A#4","midi":70,"time":476.54427083333866,"velocity":0.7244094488188977,"duration":0.4973958333333144},{"name":"F#4","midi":66,"time":476.54427083333866,"velocity":0.7244094488188977,"duration":0.4973958333333144},{"name":"A#3","midi":58,"time":476.795572916672,"velocity":0.7244094488188977,"duration":0.24739583333331439},{"name":"B3","midi":59,"time":477.045572916672,"velocity":0.7244094488188977,"duration":0.24739583333331439},{"name":"G#4","midi":68,"time":477.045572916672,"velocity":0.7244094488188977,"duration":0.4973958333333144},{"name":"F4","midi":65,"time":477.045572916672,"velocity":0.7244094488188977,"duration":0.4973958333333144},{"name":"F3","midi":53,"time":477.295572916672,"velocity":0.7244094488188977,"duration":0.24739583333331439},{"name":"F#3","midi":54,"time":477.545572916672,"velocity":0.7244094488188977,"duration":0.26171875},{"name":"A#4","midi":70,"time":477.545572916672,"velocity":0.7244094488188977,"duration":0.5260416666666856},{"name":"D#4","midi":63,"time":477.545572916672,"velocity":0.7244094488188977,"duration":1.0546875000000568},{"name":"G#3","midi":56,"time":477.80989583333866,"velocity":0.7244094488188977,"duration":0.26171875},{"name":"A#3","midi":58,"time":478.07421875000534,"velocity":0.7244094488188977,"duration":0.5260416666666856},{"name":"G#4","midi":68,"time":478.07421875000534,"velocity":0.7244094488188977,"duration":0.26171875},{"name":"F#4","midi":66,"time":478.33854166667203,"velocity":0.7244094488188977,"duration":0.26171875},{"name":"A#2","midi":46,"time":478.6028645833387,"velocity":0.7244094488188977,"duration":0.5260416666666856},{"name":"F4","midi":65,"time":478.6028645833387,"velocity":0.7244094488188977,"duration":0.26171875},{"name":"D4","midi":62,"time":478.6028645833387,"velocity":0.7244094488188977,"duration":0.5221354166666856},{"name":"F#4","midi":66,"time":478.8671875000054,"velocity":0.7244094488188977,"duration":0.26171875},{"name":"D#3","midi":51,"time":479.1315104166721,"velocity":0.7244094488188977,"duration":1.57421875},{"name":"D#4","midi":63,"time":479.1315104166721,"velocity":0.7244094488188977,"duration":4.201822916666686},{"name":"D#2","midi":39,"time":480.20833333333877,"velocity":0.7244094488188977,"duration":3.125}],"controlChanges":{"7":[{"number":7,"time":0,"value":0.7874015748031497}]},"id":1,"name":"Harpsichord","instrumentNumber":6,"instrument":"harpsichord","instrumentFamily":"piano","channelNumber":0,"isPercussion":false}]}