{"header":{"PPQ":384,"timeSignature":[6,8],"bpm":120,"name":"--------"},"startTime":0,"duration":538.9570312500033,"tracks":[{"startTime":0,"duration":0,"length":0,"notes":[],"controlChanges":{},"id":0,"name":"--------"},{"startTime":0.125,"duration":538.9570312500033,"length":5453,"notes":[{"name":"D5","midi":74,"time":0.125,"velocity":0.7637795275590551,"duration":0.12630208333333331},{"name":"C5","midi":72,"time":0.25,"velocity":0.7637795275590551,"duration":0.12630208333333331},{"name":"B4","midi":71,"time":0.375,"velocity":0.7637795275590551,"duration":0.12630208333333337},{"name":"A4","midi":69,"time":0.5,"velocity":0.7637795275590551,"duration":0.12630208333333337},{"name":"G4","midi":67,"time":0.625,"velocity":0.7637795275590551,"duration":0.234375},{"name":"G3","midi":55,"time":1.125,"velocity":0.7637795275590551,"duration":0.12369791666666674},{"name":"B3","midi":59,"time":1.125,"velocity":0.7637795275590551,"duration":0.1171875},{"name":"D4","midi":62,"time":1.125,"velocity":0.7637795275590551,"duration":0.1171875},{"name":"G3","midi":55,"time":1.625,"velocity":0.7637795275590551,"duration":0.1171875},{"name":"C4","midi":60,"time":1.625,"velocity":0.7637795275590551,"duration":0.1171875},{"name":"E4","midi":64,"time":1.625,"velocity":0.7637795275590551,"duration":0.1171875},{"name":"G3","midi":55,"time":2.125,"velocity":0.7637795275590551,"duration":0.16666666666666652},{"name":"B3","midi":59,"time":2.125,"velocity":0.7637795275590551,"duration":0.16666666666666652},{"name":"D4","midi":62,"time":2.125,"velocity":0.7637795275590551,"duration":0.16666666666666652},{"name":"D5","midi":74,"time":3.0625,"velocity":0.7637795275590551,"duration":0.12630208333333348},{"name":"C5","midi":72,"time":3.1875,"velocity":0.7637795275590551,"duration":0.12630208333333348},{"name":"B4","midi":71,"time":3.3125,"velocity":0.7637795275590551,"duration":0.12630208333333348},{"name":"A4","midi":69,"time":3.4375,"velocity":0.7637795275590551,"duration":0.12630208333333348},{"name":"G4","midi":67,"time":3.5625,"velocity":0.7637795275590551,"duration":0.12630208333333348},{"name":"F#4","midi":66,"time":3.6875,"velocity":0.7637795275590551,"duration":0.12630208333333348},{"name":"E4","midi":64,"time":3.8125,"velocity":0.7637795275590551,"duration":0.12630208333333348},{"name":"D4","midi":62,"time":3.9375,"velocity":0.7637795275590551,"duration":0.12630208333333304},{"name":"C4","midi":60,"time":4.0625,"velocity":0.7637795275590551,"duration":0.12630208333333304},{"name":"B3","midi":59,"time":4.1875,"velocity":0.7637795275590551,"duration":0.12630208333333304},{"name":"A3","midi":57,"time":4.3125,"velocity":0.7637795275590551,"duration":0.12630208333333304},{"name":"G3","midi":55,"time":4.4375,"velocity":0.7637795275590551,"duration":0.12630208333333304},{"name":"C4","midi":60,"time":4.5625,"velocity":0.7637795275590551,"duration":0.1171875},{"name":"A3","midi":57,"time":4.5625,"velocity":0.7637795275590551,"duration":0.1171875},{"name":"F#3","midi":54,"time":4.5625,"velocity":0.7637795275590551,"duration":0.1171875},{"name":"G2","midi":43,"time":4.5625,"velocity":0.7637795275590551,"duration":0.1171875},{"name":"D3","midi":50,"time":4.5625,"velocity":0.7637795275590551,"duration":0.1171875},{"name":"B3","midi":59,"time":5.0625,"velocity":0.7637795275590551,"duration":0.16666666666666696},{"name":"D3","midi":50,"time":5.0625,"velocity":0.7637795275590551,"duration":0.16666666666666696},{"name":"G1","midi":31,"time":5.0625,"velocity":0.7637795275590551,"duration":0.16666666666666696},{"name":"G2","midi":43,"time":5.0625,"velocity":0.7637795275590551,"duration":0.16666666666666696},{"name":"G3","midi":55,"time":5.0625,"velocity":0.7637795275590551,"duration":0.16666666666666696},{"name":"G3","midi":55,"time":6,"velocity":0.7637795275590551,"duration":0.24739583333333304},{"name":"B3","midi":59,"time":6.125,"velocity":0.7637795275590551,"duration":0.12630208333333304},{"name":"C4","midi":60,"time":6.25,"velocity":0.7637795275590551,"duration":0.12630208333333304},{"name":"D4","midi":62,"time":6.375,"velocity":0.7637795275590551,"duration":0.12630208333333304},{"name":"E4","midi":64,"time":6.5,"velocity":0.7637795275590551,"duration":0.12630208333333304},{"name":"F#4","midi":66,"time":6.625,"velocity":0.7637795275590551,"duration":0.12630208333333304},{"name":"G4","midi":67,"time":6.75,"velocity":0.7637795275590551,"duration":0.12630208333333304},{"name":"A4","midi":69,"time":6.875,"velocity":0.7637795275590551,"duration":0.12630208333333304},{"name":"B4","midi":71,"time":7,"velocity":0.7637795275590551,"duration":0.12630208333333304},{"name":"C5","midi":72,"time":7.125,"velocity":0.7637795275590551,"duration":0.12630208333333304},{"name":"D5","midi":74,"time":7.25,"velocity":0.7637795275590551,"duration":0.10416666666666607},{"name":"E5","midi":76,"time":7.374999999999999,"velocity":0.7637795275590551,"duration":0.10416666666666696},{"name":"F#3","midi":54,"time":7.499999999999999,"velocity":0.7637795275590551,"duration":0.24739583333333304},{"name":"A3","midi":57,"time":7.624999999999999,"velocity":0.7637795275590551,"duration":0.12630208333333304},{"name":"B3","midi":59,"time":7.749999999999999,"velocity":0.7637795275590551,"duration":0.12630208333333304},{"name":"C4","midi":60,"time":7.874999999999999,"velocity":0.7637795275590551,"duration":0.12630208333333304},{"name":"D4","midi":62,"time":7.999999999999999,"velocity":0.7637795275590551,"duration":0.12630208333333304},{"name":"E4","midi":64,"time":8.124999999999998,"velocity":0.7637795275590551,"duration":0.12630208333333393},{"name":"F#4","midi":66,"time":8.249999999999998,"velocity":0.7637795275590551,"duration":0.12630208333333393},{"name":"G4","midi":67,"time":8.374999999999998,"velocity":0.7637795275590551,"duration":0.12630208333333393},{"name":"A4","midi":69,"time":8.499999999999998,"velocity":0.7637795275590551,"duration":0.12630208333333393},{"name":"B4","midi":71,"time":8.624999999999998,"velocity":0.7637795275590551,"duration":0.12630208333333393},{"name":"C5","midi":72,"time":8.749999999999998,"velocity":0.7637795275590551,"duration":0.10416666666666785},{"name":"D5","midi":74,"time":8.875,"velocity":0.7637795275590551,"duration":0.10416666666666607},{"name":"E3","midi":52,"time":9,"velocity":0.7637795275590551,"duration":0.24739583333333393},{"name":"G3","midi":55,"time":9.125,"velocity":0.7637795275590551,"duration":0.12630208333333393},{"name":"A3","midi":57,"time":9.25,"velocity":0.7637795275590551,"duration":0.12630208333333393},{"name":"B3","midi":59,"time":9.375,"velocity":0.7637795275590551,"duration":0.12630208333333393},{"name":"C4","midi":60,"time":9.5,"velocity":0.7637795275590551,"duration":0.12630208333333393},{"name":"D4","midi":62,"time":9.625,"velocity":0.7637795275590551,"duration":0.12630208333333393},{"name":"E4","midi":64,"time":9.75,"velocity":0.7637795275590551,"duration":0.12630208333333393},{"name":"F#4","midi":66,"time":9.875,"velocity":0.7637795275590551,"duration":0.12630208333333393},{"name":"G4","midi":67,"time":10,"velocity":0.7637795275590551,"duration":0.12630208333333393},{"name":"A4","midi":69,"time":10.125,"velocity":0.7637795275590551,"duration":0.12630208333333393},{"name":"B4","midi":71,"time":10.25,"velocity":0.7637795275590551,"duration":0.12109375},{"name":"C5","midi":72,"time":10.375,"velocity":0.7637795275590551,"duration":0.20833333333333393},{"name":"D3","midi":50,"time":10.5,"velocity":0.7637795275590551,"duration":0.24739583333333393},{"name":"C5","midi":72,"time":10.625,"velocity":0.7637795275590551,"duration":0.12630208333333393},{"name":"A4","midi":69,"time":10.75,"velocity":0.7637795275590551,"duration":0.12630208333333393},{"name":"F#4","midi":66,"time":10.875,"velocity":0.7637795275590551,"duration":0.12630208333333393},{"name":"D4","midi":62,"time":11,"velocity":0.7637795275590551,"duration":0.12630208333333393},{"name":"A3","midi":57,"time":11.125,"velocity":0.7637795275590551,"duration":0.12630208333333393},{"name":"F#3","midi":54,"time":11.25,"velocity":0.7637795275590551,"duration":0.12630208333333393},{"name":"D3","midi":50,"time":11.375,"velocity":0.7637795275590551,"duration":0.12630208333333393},{"name":"D2","midi":38,"time":11.5,"velocity":0.7637795275590551,"duration":0.24739583333333393},{"name":"C4","midi":60,"time":11.625,"velocity":0.7637795275590551,"duration":0.12630208333333393},{"name":"B3","midi":59,"time":11.75,"velocity":0.7637795275590551,"duration":0.12630208333333393},{"name":"A3","midi":57,"time":11.875,"velocity":0.7637795275590551,"duration":0.12630208333333393},{"name":"G3","midi":55,"time":12,"velocity":0.7637795275590551,"duration":0.24739583333333393},{"name":"B4","midi":71,"time":12.125,"velocity":0.7637795275590551,"duration":0.1171875},{"name":"G4","midi":67,"time":12.25,"velocity":0.7637795275590551,"duration":0.1171875},{"name":"F#4","midi":66,"time":12.375,"velocity":0.7637795275590551,"duration":0.1171875},{"name":"D4","midi":62,"time":12.5,"velocity":0.7637795275590551,"duration":0.12630208333333393},{"name":"B3","midi":59,"time":12.625,"velocity":0.7637795275590551,"duration":0.12630208333333393},{"name":"G3","midi":55,"time":12.75,"velocity":0.7637795275590551,"duration":0.12630208333333393},{"name":"D3","midi":50,"time":12.875,"velocity":0.7637795275590551,"duration":0.12630208333333393},{"name":"G2","midi":43,"time":13,"velocity":0.7637795275590551,"duration":0.24739583333333393},{"name":"F#3","midi":54,"time":13.125,"velocity":0.7637795275590551,"duration":0.12630208333333393},{"name":"E3","midi":52,"time":13.25,"velocity":0.7637795275590551,"duration":0.12630208333333393},{"name":"D3","midi":50,"time":13.375,"velocity":0.7637795275590551,"duration":0.12630208333333393},{"name":"C#3","midi":49,"time":13.5,"velocity":0.7637795275590551,"duration":0.24739583333333393},{"name":"B4","midi":71,"time":13.625,"velocity":0.7637795275590551,"duration":0.1171875},{"name":"G4","midi":67,"time":13.75,"velocity":0.7637795275590551,"duration":0.1171875},{"name":"E4","midi":64,"time":13.875,"velocity":0.7637795275590551,"duration":0.1171875},{"name":"C#4","midi":61,"time":14,"velocity":0.7637795275590551,"duration":0.12630208333333393},{"name":"G3","midi":55,"time":14.125,"velocity":0.7637795275590551,"duration":0.12630208333333393},{"name":"E3","midi":52,"time":14.25,"velocity":0.7637795275590551,"duration":0.12630208333333393},{"name":"C#3","midi":49,"time":14.375,"velocity":0.7637795275590551,"duration":0.12630208333333393},{"name":"C#2","midi":37,"time":14.5,"velocity":0.7637795275590551,"duration":0.24739583333333393},{"name":"B3","midi":59,"time":14.625,"velocity":0.7637795275590551,"duration":0.12630208333333393},{"name":"A3","midi":57,"time":14.75,"velocity":0.7637795275590551,"duration":0.12630208333333393},{"name":"G3","midi":55,"time":14.875,"velocity":0.7637795275590551,"duration":0.12630208333333393},{"name":"F#3","midi":54,"time":15,"velocity":0.7637795275590551,"duration":0.24739583333333393},{"name":"A4","midi":69,"time":15.125,"velocity":0.7637795275590551,"duration":0.1171875},{"name":"F#4","midi":66,"time":15.25,"velocity":0.7637795275590551,"duration":0.1171875},{"name":"E4","midi":64,"time":15.375,"velocity":0.7637795275590551,"duration":0.1171875},{"name":"C#4","midi":61,"time":15.5,"velocity":0.7637795275590551,"duration":0.12630208333333393},{"name":"A3","midi":57,"time":15.625,"velocity":0.7637795275590551,"duration":0.12630208333333393},{"name":"F#3","midi":54,"time":15.75,"velocity":0.7637795275590551,"duration":0.12630208333333393},{"name":"C#3","midi":49,"time":15.875,"velocity":0.7637795275590551,"duration":0.12630208333333215},{"name":"F#2","midi":42,"time":16,"velocity":0.7637795275590551,"duration":0.24739583333333215},{"name":"E3","midi":52,"time":16.125,"velocity":0.7637795275590551,"duration":0.12630208333333215},{"name":"D3","midi":50,"time":16.25,"velocity":0.7637795275590551,"duration":0.12630208333333215},{"name":"C#3","midi":49,"time":16.375,"velocity":0.7637795275590551,"duration":0.12630208333333215},{"name":"B2","midi":47,"time":16.5,"velocity":0.7637795275590551,"duration":0.24739583333333215},{"name":"A4","midi":69,"time":16.625,"velocity":0.7637795275590551,"duration":0.1171875},{"name":"F#4","midi":66,"time":16.75,"velocity":0.7637795275590551,"duration":0.1171875},{"name":"D4","midi":62,"time":16.875,"velocity":0.7637795275590551,"duration":0.1171875},{"name":"B3","midi":59,"time":17,"velocity":0.7637795275590551,"duration":0.12630208333333215},{"name":"F#3","midi":54,"time":17.125,"velocity":0.7637795275590551,"duration":0.12630208333333215},{"name":"D3","midi":50,"time":17.25,"velocity":0.7637795275590551,"duration":0.12630208333333215},{"name":"B2","midi":47,"time":17.375,"velocity":0.7637795275590551,"duration":0.12630208333333215},{"name":"B1","midi":35,"time":17.5,"velocity":0.7637795275590551,"duration":0.24739583333333215},{"name":"A3","midi":57,"time":17.625,"velocity":0.7637795275590551,"duration":0.12630208333333215},{"name":"G3","midi":55,"time":17.75,"velocity":0.7637795275590551,"duration":0.12630208333333215},{"name":"F#3","midi":54,"time":17.875,"velocity":0.7637795275590551,"duration":0.12630208333333215},{"name":"E3","midi":52,"time":18,"velocity":0.7637795275590551,"duration":0.24739583333333215},{"name":"G4","midi":67,"time":18.125,"velocity":0.7637795275590551,"duration":0.1171875},{"name":"E4","midi":64,"time":18.25,"velocity":0.7637795275590551,"duration":0.1171875},{"name":"D4","midi":62,"time":18.375,"velocity":0.7637795275590551,"duration":0.1171875},{"name":"B3","midi":59,"time":18.5,"velocity":0.7637795275590551,"duration":0.12630208333333215},{"name":"G3","midi":55,"time":18.625,"velocity":0.7637795275590551,"duration":0.12630208333333215},{"name":"E3","midi":52,"time":18.75,"velocity":0.7637795275590551,"duration":0.12630208333333215},{"name":"B2","midi":47,"time":18.875,"velocity":0.7637795275590551,"duration":0.12630208333333215},{"name":"E2","midi":40,"time":19,"velocity":0.7637795275590551,"duration":0.24739583333333215},{"name":"D3","midi":50,"time":19.125,"velocity":0.7637795275590551,"duration":0.12630208333333215},{"name":"C#3","midi":49,"time":19.25,"velocity":0.7637795275590551,"duration":0.12630208333333215},{"name":"B2","midi":47,"time":19.375,"velocity":0.7637795275590551,"duration":0.12630208333333215},{"name":"A2","midi":45,"time":19.5,"velocity":0.7637795275590551,"duration":0.24739583333333215},{"name":"G4","midi":67,"time":19.625,"velocity":0.7637795275590551,"duration":0.1171875},{"name":"E4","midi":64,"time":19.75,"velocity":0.7637795275590551,"duration":0.1171875},{"name":"C#4","midi":61,"time":19.875,"velocity":0.7637795275590551,"duration":0.1171875},{"name":"A3","midi":57,"time":20,"velocity":0.7637795275590551,"duration":0.12630208333333215},{"name":"E3","midi":52,"time":20.125,"velocity":0.7637795275590551,"duration":0.12630208333333215},{"name":"C#3","midi":49,"time":20.25,"velocity":0.7637795275590551,"duration":0.12630208333333215},{"name":"A2","midi":45,"time":20.375,"velocity":0.7637795275590551,"duration":0.12630208333333215},{"name":"A1","midi":33,"time":20.5,"velocity":0.7637795275590551,"duration":0.24739583333333215},{"name":"G3","midi":55,"time":20.625,"velocity":0.7637795275590551,"duration":0.12630208333333215},{"name":"F#3","midi":54,"time":20.75,"velocity":0.7637795275590551,"duration":0.12630208333333215},{"name":"E3","midi":52,"time":20.875,"velocity":0.7637795275590551,"duration":0.12630208333333215},{"name":"D3","midi":50,"time":21,"velocity":0.7637795275590551,"duration":0.36458333333333215},{"name":"A3","midi":57,"time":21.125,"velocity":0.7637795275590551,"duration":0.12630208333333215},{"name":"B3","midi":59,"time":21.25,"velocity":0.7637795275590551,"duration":0.12630208333333215},{"name":"C#4","midi":61,"time":21.375,"velocity":0.7637795275590551,"duration":0.12630208333333215},{"name":"D4","midi":62,"time":21.5,"velocity":0.7637795275590551,"duration":0.12630208333333215},{"name":"E4","midi":64,"time":21.625,"velocity":0.7637795275590551,"duration":0.12630208333333215},{"name":"F4","midi":65,"time":21.75,"velocity":0.7637795275590551,"duration":0.1953125},{"name":"D4","midi":62,"time":21.875,"velocity":0.7637795275590551,"duration":0.25130208333333215},{"name":"G#3","midi":56,"time":22,"velocity":0.7637795275590551,"duration":0.12630208333333215},{"name":"F4","midi":65,"time":22.125,"velocity":0.7637795275590551,"duration":0.12630208333333215},{"name":"E4","midi":64,"time":22.25,"velocity":0.7637795275590551,"duration":0.12630208333333215},{"name":"D4","midi":62,"time":22.375,"velocity":0.7637795275590551,"duration":0.12630208333333215},{"name":"C#4","midi":61,"time":22.5,"velocity":0.7637795275590551,"duration":0.12630208333333215},{"name":"D4","midi":62,"time":22.625,"velocity":0.7637795275590551,"duration":0.12630208333333215},{"name":"E4","midi":64,"time":22.75,"velocity":0.7637795275590551,"duration":0.12630208333333215},{"name":"F#4","midi":66,"time":22.875,"velocity":0.7637795275590551,"duration":0.12630208333333215},{"name":"G4","midi":67,"time":23,"velocity":0.7637795275590551,"duration":0.12630208333333215},{"name":"A4","midi":69,"time":23.125,"velocity":0.7637795275590551,"duration":0.11458333333333215},{"name":"A#4","midi":70,"time":23.25,"velocity":0.7637795275590551,"duration":0.10416666666666785},{"name":"G4","midi":67,"time":23.375,"velocity":0.7637795275590551,"duration":0.09114583333333215},{"name":"F5","midi":77,"time":23.497395833333332,"velocity":0.7637795275590551,"duration":0.11458333333333215},{"name":"E5","midi":76,"time":23.617187499999996,"velocity":0.7637795275590551,"duration":0.11458333333333215},{"name":"D5","midi":74,"time":23.73958333333333,"velocity":0.7637795275590551,"duration":0.09375},{"name":"C#5","midi":73,"time":23.851562499999996,"velocity":0.7637795275590551,"duration":0.07161458333333215},{"name":"A5","midi":81,"time":23.999999999999996,"velocity":0.7637795275590551,"duration":0.22135416666666785},{"name":"G5","midi":79,"time":24.124999999999996,"velocity":0.7637795275590551,"duration":0.12630208333333215},{"name":"F#5","midi":78,"time":24.249999999999996,"velocity":0.7637795275590551,"duration":0.12630208333333215},{"name":"E5","midi":76,"time":24.374999999999996,"velocity":0.7637795275590551,"duration":0.12630208333333215},{"name":"D5","midi":74,"time":24.499999999999996,"velocity":0.7637795275590551,"duration":0.28645833333333215},{"name":"F#4","midi":66,"time":24.999999999999996,"velocity":0.7637795275590551,"duration":0.1171875},{"name":"D4","midi":62,"time":24.999999999999996,"velocity":0.7637795275590551,"duration":0.1171875},{"name":"A4","midi":69,"time":24.999999999999996,"velocity":0.7637795275590551,"duration":0.1171875},{"name":"B4","midi":71,"time":25.499999999999996,"velocity":0.7637795275590551,"duration":0.1171875},{"name":"D4","midi":62,"time":25.499999999999996,"velocity":0.7637795275590551,"duration":0.1171875},{"name":"G4","midi":67,"time":25.499999999999996,"velocity":0.7637795275590551,"duration":0.1171875},{"name":"D4","midi":62,"time":25.999999999999996,"velocity":0.7637795275590551,"duration":0.16666666666666785},{"name":"A4","midi":69,"time":25.999999999999996,"velocity":0.7637795275590551,"duration":0.16666666666666785},{"name":"F#4","midi":66,"time":25.999999999999996,"velocity":0.7637795275590551,"duration":0.16666666666666785},{"name":"A5","midi":81,"time":26.999999999999996,"velocity":0.7637795275590551,"duration":0.15625},{"name":"G5","midi":79,"time":27.124999999999996,"velocity":0.7637795275590551,"duration":0.12630208333333215},{"name":"F#5","midi":78,"time":27.249999999999996,"velocity":0.7637795275590551,"duration":0.12630208333333215},{"name":"E5","midi":76,"time":27.374999999999996,"velocity":0.7637795275590551,"duration":0.12630208333333215},{"name":"D5","midi":74,"time":27.499999999999996,"velocity":0.7637795275590551,"duration":0.12630208333333215},{"name":"C#5","midi":73,"time":27.624999999999996,"velocity":0.7637795275590551,"duration":0.12630208333333215},{"name":"B4","midi":71,"time":27.749999999999996,"velocity":0.7637795275590551,"duration":0.12630208333333215},{"name":"A4","midi":69,"time":27.874999999999996,"velocity":0.7637795275590551,"duration":0.12630208333333215},{"name":"G4","midi":67,"time":27.999999999999996,"velocity":0.7637795275590551,"duration":0.12630208333333215},{"name":"F#4","midi":66,"time":28.124999999999996,"velocity":0.7637795275590551,"duration":0.12630208333333215},{"name":"E4","midi":64,"time":28.249999999999996,"velocity":0.7637795275590551,"duration":0.12630208333333215},{"name":"D4","midi":62,"time":28.374999999999996,"velocity":0.7637795275590551,"duration":0.12630208333333215},{"name":"D3","midi":50,"time":28.499999999999996,"velocity":0.7637795275590551,"duration":0.1171875},{"name":"A3","midi":57,"time":28.499999999999996,"velocity":0.7637795275590551,"duration":0.1171875},{"name":"G4","midi":67,"time":28.499999999999996,"velocity":0.7637795275590551,"duration":0.1171875},{"name":"E4","midi":64,"time":28.499999999999996,"velocity":0.7637795275590551,"duration":0.1171875},{"name":"C#4","midi":61,"time":28.499999999999996,"velocity":0.7637795275590551,"duration":0.1171875},{"name":"D2","midi":38,"time":28.999999999999996,"velocity":0.7637795275590551,"duration":0.16666666666666785},{"name":"D3","midi":50,"time":28.999999999999996,"velocity":0.7637795275590551,"duration":0.16666666666666785},{"name":"F#4","midi":66,"time":28.999999999999996,"velocity":0.7637795275590551,"duration":0.16666666666666785},{"name":"A3","midi":57,"time":28.999999999999996,"velocity":0.7637795275590551,"duration":0.16666666666666785},{"name":"D4","midi":62,"time":28.999999999999996,"velocity":0.7637795275590551,"duration":0.16666666666666785},{"name":"G2","midi":43,"time":29.999999999999996,"velocity":0.7637795275590551,"duration":0.25130208333333215},{"name":"F#4","midi":66,"time":30.124999999999996,"velocity":0.7637795275590551,"duration":0.12630208333333215},{"name":"G3","midi":55,"time":30.249999999999996,"velocity":0.7637795275590551,"duration":0.25130208333333215},{"name":"E4","midi":64,"time":30.249999999999996,"velocity":0.7637795275590551,"duration":0.12630208333333215},{"name":"F#4","midi":66,"time":30.374999999999996,"velocity":0.7637795275590551,"duration":0.12630208333333215},{"name":"B3","midi":59,"time":30.499999999999996,"velocity":0.7637795275590551,"duration":0.25130208333333215},{"name":"G4","midi":67,"time":30.499999999999996,"velocity":0.7637795275590551,"duration":0.12630208333333215},{"name":"F#4","midi":66,"time":30.624999999999996,"velocity":0.7637795275590551,"duration":0.12630208333333215},{"name":"G3","midi":55,"time":30.749999999999996,"velocity":0.7637795275590551,"duration":0.25130208333333215},{"name":"E4","midi":64,"time":30.749999999999996,"velocity":0.7637795275590551,"duration":0.12630208333333215},{"name":"F#4","midi":66,"time":30.874999999999996,"velocity":0.7637795275590551,"duration":0.12630208333333215},{"name":"E3","midi":52,"time":30.999999999999996,"velocity":0.7637795275590551,"duration":0.23958333333333215},{"name":"G4","midi":67,"time":30.999999999999996,"velocity":0.7637795275590551,"duration":0.12630208333333215},{"name":"E4","midi":64,"time":31.124999999999996,"velocity":0.7637795275590551,"duration":0.12630208333333215},{"name":"C#3","midi":49,"time":31.249999999999996,"velocity":0.7637795275590551,"duration":0.23958333333333215},{"name":"A4","midi":69,"time":31.249999999999996,"velocity":0.7637795275590551,"duration":0.12630208333333215},{"name":"B4","midi":71,"time":31.374999999999996,"velocity":0.7637795275590551,"duration":0.12630208333333215},{"name":"A2","midi":45,"time":31.499999999999996,"velocity":0.7637795275590551,"duration":0.25130208333333215},{"name":"C#5","midi":73,"time":31.499999999999996,"velocity":0.7637795275590551,"duration":0.12630208333333215},{"name":"G4","midi":67,"time":31.624999999999996,"velocity":0.7637795275590551,"duration":0.12630208333333215},{"name":"A3","midi":57,"time":31.749999999999996,"velocity":0.7637795275590551,"duration":0.25130208333333215},{"name":"F#4","midi":66,"time":31.749999999999996,"velocity":0.7637795275590551,"duration":0.12630208333333215},{"name":"G4","midi":67,"time":31.874999999999996,"velocity":0.7637795275590551,"duration":0.12630208333333215},{"name":"C#4","midi":61,"time":31.999999999999996,"velocity":0.7637795275590551,"duration":0.25130208333333215},{"name":"A4","midi":69,"time":31.999999999999996,"velocity":0.7637795275590551,"duration":0.12630208333333215},{"name":"G4","midi":67,"time":32.12499999999999,"velocity":0.7637795275590551,"duration":0.1263020833333357},{"name":"A3","midi":57,"time":32.24999999999999,"velocity":0.7637795275590551,"duration":0.2513020833333357},{"name":"F#4","midi":66,"time":32.24999999999999,"velocity":0.7637795275590551,"duration":0.1263020833333357},{"name":"G4","midi":67,"time":32.37499999999999,"velocity":0.7637795275590551,"duration":0.1263020833333357},{"name":"F#3","midi":54,"time":32.49999999999999,"velocity":0.7637795275590551,"duration":0.2395833333333357},{"name":"A4","midi":69,"time":32.49999999999999,"velocity":0.7637795275590551,"duration":0.1263020833333357},{"name":"F#4","midi":66,"time":32.62499999999999,"velocity":0.7637795275590551,"duration":0.1263020833333357},{"name":"D3","midi":50,"time":32.74999999999999,"velocity":0.7637795275590551,"duration":0.2395833333333357},{"name":"B4","midi":71,"time":32.74999999999999,"velocity":0.7637795275590551,"duration":0.1263020833333357},{"name":"C#5","midi":73,"time":32.87499999999999,"velocity":0.7637795275590551,"duration":0.1263020833333357},{"name":"B2","midi":47,"time":32.99999999999999,"velocity":0.7637795275590551,"duration":0.2513020833333357},{"name":"D5","midi":74,"time":32.99999999999999,"velocity":0.7637795275590551,"duration":0.1263020833333357},{"name":"A4","midi":69,"time":33.12499999999999,"velocity":0.7637795275590551,"duration":0.1263020833333357},{"name":"B3","midi":59,"time":33.24999999999999,"velocity":0.7637795275590551,"duration":0.2513020833333357},{"name":"G4","midi":67,"time":33.24999999999999,"velocity":0.7637795275590551,"duration":0.1263020833333357},{"name":"A4","midi":69,"time":33.37499999999999,"velocity":0.7637795275590551,"duration":0.1263020833333357},{"name":"D4","midi":62,"time":33.49999999999999,"velocity":0.7637795275590551,"duration":0.2513020833333357},{"name":"B4","midi":71,"time":33.49999999999999,"velocity":0.7637795275590551,"duration":0.1263020833333357},{"name":"A4","midi":69,"time":33.62499999999999,"velocity":0.7637795275590551,"duration":0.1263020833333357},{"name":"B3","midi":59,"time":33.74999999999999,"velocity":0.7637795275590551,"duration":0.2513020833333357},{"name":"G4","midi":67,"time":33.74999999999999,"velocity":0.7637795275590551,"duration":0.1263020833333357},{"name":"A4","midi":69,"time":33.87499999999999,"velocity":0.7637795275590551,"duration":0.1263020833333357},{"name":"G3","midi":55,"time":33.99999999999999,"velocity":0.7637795275590551,"duration":0.2395833333333357},{"name":"B4","midi":71,"time":33.99999999999999,"velocity":0.7637795275590551,"duration":0.1263020833333357},{"name":"G4","midi":67,"time":34.12499999999999,"velocity":0.7637795275590551,"duration":0.1263020833333357},{"name":"E3","midi":52,"time":34.24999999999999,"velocity":0.7637795275590551,"duration":0.2395833333333357},{"name":"C#5","midi":73,"time":34.24999999999999,"velocity":0.7637795275590551,"duration":0.1263020833333357},{"name":"D5","midi":74,"time":34.37499999999999,"velocity":0.7637795275590551,"duration":0.1263020833333357},{"name":"C#3","midi":49,"time":34.49999999999999,"velocity":0.7637795275590551,"duration":0.2513020833333357},{"name":"E5","midi":76,"time":34.49999999999999,"velocity":0.7637795275590551,"duration":0.1263020833333357},{"name":"B4","midi":71,"time":34.62499999999999,"velocity":0.7637795275590551,"duration":0.1263020833333357},{"name":"C#4","midi":61,"time":34.74999999999999,"velocity":0.7637795275590551,"duration":0.2513020833333357},{"name":"A4","midi":69,"time":34.74999999999999,"velocity":0.7637795275590551,"duration":0.1263020833333357},{"name":"B4","midi":71,"time":34.87499999999999,"velocity":0.7637795275590551,"duration":0.1263020833333357},{"name":"E4","midi":64,"time":34.99999999999999,"velocity":0.7637795275590551,"duration":0.2513020833333357},{"name":"C#5","midi":73,"time":34.99999999999999,"velocity":0.7637795275590551,"duration":0.1263020833333357},{"name":"B4","midi":71,"time":35.12499999999999,"velocity":0.7637795275590551,"duration":0.1263020833333357},{"name":"C#4","midi":61,"time":35.24999999999999,"velocity":0.7637795275590551,"duration":0.2513020833333357},{"name":"A4","midi":69,"time":35.24999999999999,"velocity":0.7637795275590551,"duration":0.1263020833333357},{"name":"B4","midi":71,"time":35.37499999999999,"velocity":0.7637795275590551,"duration":0.1263020833333357},{"name":"A3","midi":57,"time":35.49999999999999,"velocity":0.7637795275590551,"duration":0.2513020833333357},{"name":"C#5","midi":73,"time":35.49999999999999,"velocity":0.7637795275590551,"duration":0.1263020833333357},{"name":"A4","midi":69,"time":35.62499999999999,"velocity":0.7637795275590551,"duration":0.1263020833333357},{"name":"F#3","midi":54,"time":35.74999999999999,"velocity":0.7637795275590551,"duration":0.2513020833333357},{"name":"D5","midi":74,"time":35.74999999999999,"velocity":0.7637795275590551,"duration":0.1263020833333357},{"name":"E5","midi":76,"time":35.87499999999999,"velocity":0.7637795275590551,"duration":0.1263020833333357},{"name":"D3","midi":50,"time":35.99999999999999,"velocity":0.7637795275590551,"duration":0.1263020833333357},{"name":"F#5","midi":78,"time":35.99999999999999,"velocity":0.7637795275590551,"duration":0.1263020833333357},{"name":"D4","midi":62,"time":36.12499999999999,"velocity":0.7637795275590551,"duration":0.1263020833333357},{"name":"G5","midi":79,"time":36.12499999999999,"velocity":0.7637795275590551,"duration":0.1263020833333357},{"name":"C#4","midi":61,"time":36.24999999999999,"velocity":0.7637795275590551,"duration":0.1263020833333357},{"name":"A5","midi":81,"time":36.24999999999999,"velocity":0.7637795275590551,"duration":0.2473958333333357},{"name":"D4","midi":62,"time":36.37499999999999,"velocity":0.7637795275590551,"duration":0.1263020833333357},{"name":"E4","midi":64,"time":36.49999999999999,"velocity":0.7637795275590551,"duration":0.1263020833333357},{"name":"D4","midi":62,"time":36.62499999999999,"velocity":0.7637795275590551,"duration":0.1263020833333357},{"name":"C#4","midi":61,"time":36.74999999999999,"velocity":0.7637795275590551,"duration":0.1263020833333357},{"name":"F#5","midi":78,"time":36.74999999999999,"velocity":0.7637795275590551,"duration":0.2395833333333357},{"name":"D4","midi":62,"time":36.87499999999999,"velocity":0.7637795275590551,"duration":0.1263020833333357},{"name":"B3","midi":59,"time":36.99999999999999,"velocity":0.7637795275590551,"duration":0.1263020833333357},{"name":"G5","midi":79,"time":36.99999999999999,"velocity":0.7637795275590551,"duration":0.2395833333333357},{"name":"D4","midi":62,"time":37.12499999999999,"velocity":0.7637795275590551,"duration":0.1263020833333357},{"name":"B3","midi":59,"time":37.24999999999999,"velocity":0.7637795275590551,"duration":0.1263020833333357},{"name":"A5","midi":81,"time":37.24999999999999,"velocity":0.7637795275590551,"duration":0.2395833333333357},{"name":"A3","midi":57,"time":37.37499999999999,"velocity":0.7637795275590551,"duration":0.1263020833333357},{"name":"G3","midi":55,"time":37.49999999999999,"velocity":0.7637795275590551,"duration":0.1692708333333357},{"name":"B5","midi":83,"time":37.49999999999999,"velocity":0.7637795275590551,"duration":0.1263020833333357},{"name":"D4","midi":62,"time":37.62499999999999,"velocity":0.7637795275590551,"duration":0.1263020833333357},{"name":"A5","midi":81,"time":37.62499999999999,"velocity":0.7637795275590551,"duration":0.1263020833333357},{"name":"C#4","midi":61,"time":37.74999999999999,"velocity":0.7637795275590551,"duration":0.1263020833333357},{"name":"B5","midi":83,"time":37.74999999999999,"velocity":0.7637795275590551,"duration":0.2513020833333357},{"name":"D4","midi":62,"time":37.87499999999999,"velocity":0.7637795275590551,"duration":0.1263020833333357},{"name":"E4","midi":64,"time":37.99999999999999,"velocity":0.7637795275590551,"duration":0.1263020833333357},{"name":"C#5","midi":73,"time":37.99999999999999,"velocity":0.7637795275590551,"duration":0.1822916666666714},{"name":"D4","midi":62,"time":38.12499999999999,"velocity":0.7637795275590551,"duration":0.1263020833333428},{"name":"C#4","midi":61,"time":38.25,"velocity":0.7637795275590551,"duration":0.1263020833333357},{"name":"E5","midi":76,"time":38.25,"velocity":0.7637795275590551,"duration":0.2395833333333357},{"name":"D4","midi":62,"time":38.375,"velocity":0.7637795275590551,"duration":0.1263020833333357},{"name":"A3","midi":57,"time":38.5,"velocity":0.7637795275590551,"duration":0.1263020833333357},{"name":"F#5","midi":78,"time":38.5,"velocity":0.7637795275590551,"duration":0.2395833333333357},{"name":"D4","midi":62,"time":38.625,"velocity":0.7637795275590551,"duration":0.1263020833333357},{"name":"A3","midi":57,"time":38.75,"velocity":0.7637795275590551,"duration":0.1263020833333357},{"name":"G5","midi":79,"time":38.75,"velocity":0.7637795275590551,"duration":0.2395833333333357},{"name":"G3","midi":55,"time":38.875,"velocity":0.7637795275590551,"duration":0.1263020833333357},{"name":"F#3","midi":54,"time":39,"velocity":0.7637795275590551,"duration":0.15625},{"name":"A5","midi":81,"time":39,"velocity":0.7637795275590551,"duration":0.1263020833333357},{"name":"D4","midi":62,"time":39.125,"velocity":0.7637795275590551,"duration":0.1263020833333357},{"name":"G5","midi":79,"time":39.125,"velocity":0.7637795275590551,"duration":0.1263020833333357},{"name":"C#4","midi":61,"time":39.25,"velocity":0.7637795275590551,"duration":0.1263020833333357},{"name":"A5","midi":81,"time":39.25,"velocity":0.7637795275590551,"duration":0.2513020833333357},{"name":"D4","midi":62,"time":39.375,"velocity":0.7637795275590551,"duration":0.1263020833333357},{"name":"E4","midi":64,"time":39.5,"velocity":0.7637795275590551,"duration":0.1263020833333357},{"name":"B4","midi":71,"time":39.5,"velocity":0.7637795275590551,"duration":0.1822916666666714},{"name":"D4","midi":62,"time":39.625,"velocity":0.7637795275590551,"duration":0.1263020833333428},{"name":"C#4","midi":61,"time":39.75000000000001,"velocity":0.7637795275590551,"duration":0.1263020833333357},{"name":"F#5","midi":78,"time":39.75000000000001,"velocity":0.7637795275590551,"duration":0.2395833333333357},{"name":"D4","midi":62,"time":39.87500000000001,"velocity":0.7637795275590551,"duration":0.1263020833333357},{"name":"G3","midi":55,"time":40.00000000000001,"velocity":0.7637795275590551,"duration":0.1263020833333357},{"name":"B5","midi":83,"time":40.00000000000001,"velocity":0.7637795275590551,"duration":0.2395833333333357},{"name":"D4","midi":62,"time":40.12500000000001,"velocity":0.7637795275590551,"duration":0.1263020833333357},{"name":"G3","midi":55,"time":40.25000000000001,"velocity":0.7637795275590551,"duration":0.1263020833333357},{"name":"A5","midi":81,"time":40.25000000000001,"velocity":0.7637795275590551,"duration":0.2395833333333357},{"name":"F#3","midi":54,"time":40.37500000000001,"velocity":0.7637795275590551,"duration":0.1263020833333357},{"name":"E3","midi":52,"time":40.50000000000001,"velocity":0.7637795275590551,"duration":0.15625},{"name":"G5","midi":79,"time":40.50000000000001,"velocity":0.7637795275590551,"duration":0.1263020833333357},{"name":"D4","midi":62,"time":40.62500000000001,"velocity":0.7637795275590551,"duration":0.1263020833333357},{"name":"F#5","midi":78,"time":40.62500000000001,"velocity":0.7637795275590551,"duration":0.1263020833333357},{"name":"C#4","midi":61,"time":40.75000000000001,"velocity":0.7637795275590551,"duration":0.1263020833333357},{"name":"G5","midi":79,"time":40.75000000000001,"velocity":0.7637795275590551,"duration":0.2513020833333357},{"name":"D4","midi":62,"time":40.87500000000001,"velocity":0.7637795275590551,"duration":0.1263020833333357},{"name":"E4","midi":64,"time":41.00000000000001,"velocity":0.7637795275590551,"duration":0.1263020833333357},{"name":"A4","midi":69,"time":41.00000000000001,"velocity":0.7637795275590551,"duration":0.1822916666666714},{"name":"D4","midi":62,"time":41.12500000000001,"velocity":0.7637795275590551,"duration":0.1263020833333428},{"name":"C#4","midi":61,"time":41.250000000000014,"velocity":0.7637795275590551,"duration":0.1263020833333357},{"name":"E5","midi":76,"time":41.250000000000014,"velocity":0.7637795275590551,"duration":0.2395833333333357},{"name":"D4","midi":62,"time":41.375000000000014,"velocity":0.7637795275590551,"duration":0.1263020833333357},{"name":"F#3","midi":54,"time":41.500000000000014,"velocity":0.7637795275590551,"duration":0.1263020833333357},{"name":"A5","midi":81,"time":41.500000000000014,"velocity":0.7637795275590551,"duration":0.2395833333333357},{"name":"D4","midi":62,"time":41.625000000000014,"velocity":0.7637795275590551,"duration":0.1263020833333357},{"name":"F#3","midi":54,"time":41.750000000000014,"velocity":0.7637795275590551,"duration":0.1263020833333357},{"name":"G5","midi":79,"time":41.750000000000014,"velocity":0.7637795275590551,"duration":0.2395833333333357},{"name":"E3","midi":52,"time":41.875000000000014,"velocity":0.7637795275590551,"duration":0.1263020833333357},{"name":"D3","midi":50,"time":42.000000000000014,"velocity":0.7637795275590551,"duration":0.2513020833333357},{"name":"F#5","midi":78,"time":42.000000000000014,"velocity":0.7637795275590551,"duration":0.1263020833333357},{"name":"E5","midi":76,"time":42.125000000000014,"velocity":0.7637795275590551,"duration":0.1263020833333357},{"name":"A3","midi":57,"time":42.250000000000014,"velocity":0.7637795275590551,"duration":0.2513020833333357},{"name":"D5","midi":74,"time":42.250000000000014,"velocity":0.7637795275590551,"duration":0.1263020833333357},{"name":"C#5","midi":73,"time":42.375000000000014,"velocity":0.7637795275590551,"duration":0.1263020833333357},{"name":"F#3","midi":54,"time":42.500000000000014,"velocity":0.7637795275590551,"duration":0.2513020833333357},{"name":"D5","midi":74,"time":42.500000000000014,"velocity":0.7637795275590551,"duration":0.1263020833333357},{"name":"F#5","midi":78,"time":42.625000000000014,"velocity":0.7637795275590551,"duration":0.1263020833333357},{"name":"D3","midi":50,"time":42.750000000000014,"velocity":0.7637795275590551,"duration":0.2513020833333357},{"name":"A4","midi":69,"time":42.750000000000014,"velocity":0.7637795275590551,"duration":0.1263020833333357},{"name":"C#5","midi":73,"time":42.875000000000014,"velocity":0.7637795275590551,"duration":0.1263020833333357},{"name":"C#3","midi":49,"time":43.000000000000014,"velocity":0.7637795275590551,"duration":0.2278645833333357},{"name":"D5","midi":74,"time":43.000000000000014,"velocity":0.7637795275590551,"duration":0.1263020833333357},{"name":"F#5","midi":78,"time":43.125000000000014,"velocity":0.7637795275590551,"duration":0.1263020833333357},{"name":"A3","midi":57,"time":43.250000000000014,"velocity":0.7637795275590551,"duration":0.2278645833333357},{"name":"A4","midi":69,"time":43.250000000000014,"velocity":0.7637795275590551,"duration":0.1263020833333357},{"name":"C#5","midi":73,"time":43.375000000000014,"velocity":0.7637795275590551,"duration":0.1263020833333357},{"name":"B2","midi":47,"time":43.500000000000014,"velocity":0.7637795275590551,"duration":0.2513020833333357},{"name":"F5","midi":77,"time":43.500000000000014,"velocity":0.7637795275590551,"duration":0.1263020833333357},{"name":"E5","midi":76,"time":43.625000000000014,"velocity":0.7637795275590551,"duration":0.1263020833333357},{"name":"G#3","midi":56,"time":43.750000000000014,"velocity":0.7637795275590551,"duration":0.2513020833333357},{"name":"D5","midi":74,"time":43.750000000000014,"velocity":0.7637795275590551,"duration":0.1263020833333357},{"name":"C#5","midi":73,"time":43.875000000000014,"velocity":0.7637795275590551,"duration":0.1263020833333357},{"name":"F3","midi":53,"time":44.000000000000014,"velocity":0.7637795275590551,"duration":0.2513020833333357},{"name":"D5","midi":74,"time":44.000000000000014,"velocity":0.7637795275590551,"duration":0.1263020833333357},{"name":"F5","midi":77,"time":44.125000000000014,"velocity":0.7637795275590551,"duration":0.1263020833333357},{"name":"D3","midi":50,"time":44.250000000000014,"velocity":0.7637795275590551,"duration":0.2513020833333357},{"name":"G#4","midi":68,"time":44.250000000000014,"velocity":0.7637795275590551,"duration":0.1263020833333357},{"name":"C#5","midi":73,"time":44.375000000000014,"velocity":0.7637795275590551,"duration":0.1263020833333357},{"name":"A2","midi":45,"time":44.500000000000014,"velocity":0.7637795275590551,"duration":0.2213541666666714},{"name":"D5","midi":74,"time":44.500000000000014,"velocity":0.7637795275590551,"duration":0.1263020833333357},{"name":"F5","midi":77,"time":44.625000000000014,"velocity":0.7637795275590551,"duration":0.1263020833333428},{"name":"A3","midi":57,"time":44.75000000000002,"velocity":0.7637795275590551,"duration":0.2213541666666714},{"name":"A4","midi":69,"time":44.75000000000002,"velocity":0.7637795275590551,"duration":0.1263020833333357},{"name":"D5","midi":74,"time":44.87500000000002,"velocity":0.7637795275590551,"duration":0.1263020833333428},{"name":"G#2","midi":44,"time":45.00000000000003,"velocity":0.7637795275590551,"duration":0.2513020833333357},{"name":"F5","midi":77,"time":45.00000000000003,"velocity":0.7637795275590551,"duration":0.1263020833333357},{"name":"E5","midi":76,"time":45.12500000000003,"velocity":0.7637795275590551,"duration":0.1263020833333357},{"name":"B3","midi":59,"time":45.25000000000003,"velocity":0.7637795275590551,"duration":0.2513020833333357},{"name":"D5","midi":74,"time":45.25000000000003,"velocity":0.7637795275590551,"duration":0.1263020833333357},{"name":"C#5","midi":73,"time":45.37500000000003,"velocity":0.7637795275590551,"duration":0.1263020833333357},{"name":"F3","midi":53,"time":45.50000000000003,"velocity":0.7637795275590551,"duration":0.2513020833333357},{"name":"D5","midi":74,"time":45.50000000000003,"velocity":0.7637795275590551,"duration":0.1263020833333357},{"name":"F5","midi":77,"time":45.62500000000003,"velocity":0.7637795275590551,"duration":0.1263020833333357},{"name":"D3","midi":50,"time":45.75000000000003,"velocity":0.7637795275590551,"duration":0.2513020833333357},{"name":"G#4","midi":68,"time":45.75000000000003,"velocity":0.7637795275590551,"duration":0.1263020833333357},{"name":"C#5","midi":73,"time":45.87500000000003,"velocity":0.7637795275590551,"duration":0.1263020833333357},{"name":"G#2","midi":44,"time":46.00000000000003,"velocity":0.7637795275590551,"duration":0.21484375},{"name":"D5","midi":74,"time":46.00000000000003,"velocity":0.7637795275590551,"duration":0.1263020833333357},{"name":"F5","midi":77,"time":46.12500000000003,"velocity":0.7637795275590551,"duration":0.1263020833333357},{"name":"B3","midi":59,"time":46.25000000000003,"velocity":0.7637795275590551,"duration":0.21484375},{"name":"E5","midi":76,"time":46.25000000000003,"velocity":0.7637795275590551,"duration":0.1263020833333357},{"name":"D5","midi":74,"time":46.37500000000003,"velocity":0.7637795275590551,"duration":0.1263020833333357},{"name":"A3","midi":57,"time":46.50000000000003,"velocity":0.7637795275590551,"duration":0.1263020833333357},{"name":"C#5","midi":73,"time":46.50000000000003,"velocity":0.7637795275590551,"duration":0.3645833333333357},{"name":"A2","midi":45,"time":46.62500000000003,"velocity":0.7637795275590551,"duration":0.1263020833333357},{"name":"C#3","midi":49,"time":46.75000000000003,"velocity":0.7637795275590551,"duration":0.1263020833333357},{"name":"E3","midi":52,"time":46.87500000000003,"velocity":0.7637795275590551,"duration":0.1263020833333357},{"name":"A3","midi":57,"time":47.00000000000003,"velocity":0.7637795275590551,"duration":0.1263020833333357},{"name":"C#4","midi":61,"time":47.12500000000003,"velocity":0.7637795275590551,"duration":0.1263020833333357},{"name":"E4","midi":64,"time":47.25000000000003,"velocity":0.7637795275590551,"duration":0.1263020833333357},{"name":"G4","midi":67,"time":47.37500000000003,"velocity":0.7637795275590551,"duration":0.1263020833333357},{"name":"C#5","midi":73,"time":47.50000000000003,"velocity":0.7637795275590551,"duration":0.2473958333333357},{"name":"G4","midi":67,"time":47.62500000000003,"velocity":0.7637795275590551,"duration":0.1263020833333357},{"name":"F#4","midi":66,"time":47.75000000000003,"velocity":0.7637795275590551,"duration":0.1263020833333357},{"name":"E4","midi":64,"time":47.87500000000003,"velocity":0.7637795275590551,"duration":0.1263020833333357},{"name":"F#4","midi":66,"time":48.00000000000003,"velocity":0.7637795275590551,"duration":0.3645833333333357},{"name":"D5","midi":74,"time":48.00000000000003,"velocity":0.7637795275590551,"duration":0.3645833333333357},{"name":"A4","midi":69,"time":48.00000000000003,"velocity":0.7637795275590551,"duration":0.3645833333333357},{"name":"A2","midi":45,"time":48.12500000000003,"velocity":0.7637795275590551,"duration":0.1263020833333357},{"name":"D3","midi":50,"time":48.25000000000003,"velocity":0.7637795275590551,"duration":0.1263020833333357},{"name":"F#3","midi":54,"time":48.37500000000003,"velocity":0.7637795275590551,"duration":0.1263020833333357},{"name":"A3","midi":57,"time":48.50000000000003,"velocity":0.7637795275590551,"duration":0.1263020833333357},{"name":"D4","midi":62,"time":48.62500000000003,"velocity":0.7637795275590551,"duration":0.1263020833333357},{"name":"F#4","midi":66,"time":48.75000000000003,"velocity":0.7637795275590551,"duration":0.1263020833333357},{"name":"A4","midi":69,"time":48.87500000000003,"velocity":0.7637795275590551,"duration":0.1263020833333357},{"name":"D5","midi":74,"time":49.00000000000003,"velocity":0.7637795275590551,"duration":0.2473958333333357},{"name":"A4","midi":69,"time":49.12500000000003,"velocity":0.7637795275590551,"duration":0.1263020833333357},{"name":"G4","midi":67,"time":49.25000000000003,"velocity":0.7637795275590551,"duration":0.1263020833333357},{"name":"F#4","midi":66,"time":49.37500000000003,"velocity":0.7637795275590551,"duration":0.1263020833333357},{"name":"E5","midi":76,"time":49.50000000000003,"velocity":0.7637795275590551,"duration":0.3645833333333357},{"name":"C#5","midi":73,"time":49.50000000000003,"velocity":0.7637795275590551,"duration":0.3645833333333357},{"name":"G4","midi":67,"time":49.50000000000003,"velocity":0.7637795275590551,"duration":0.3645833333333357},{"name":"A2","midi":45,"time":49.62500000000003,"velocity":0.7637795275590551,"duration":0.1263020833333357},{"name":"E3","midi":52,"time":49.75000000000003,"velocity":0.7637795275590551,"duration":0.1263020833333357},{"name":"A3","midi":57,"time":49.87500000000003,"velocity":0.7637795275590551,"duration":0.1263020833333357},{"name":"C#4","midi":61,"time":50.00000000000003,"velocity":0.7637795275590551,"duration":0.1263020833333357},{"name":"E4","midi":64,"time":50.12500000000003,"velocity":0.7637795275590551,"duration":0.1263020833333357},{"name":"G4","midi":67,"time":50.25000000000003,"velocity":0.7637795275590551,"duration":0.1263020833333357},{"name":"C#5","midi":73,"time":50.37500000000003,"velocity":0.7637795275590551,"duration":0.1263020833333357},{"name":"E5","midi":76,"time":50.50000000000003,"velocity":0.7637795275590551,"duration":0.2473958333333357},{"name":"C#5","midi":73,"time":50.62500000000003,"velocity":0.7637795275590551,"duration":0.1263020833333357},{"name":"B4","midi":71,"time":50.75000000000003,"velocity":0.7637795275590551,"duration":0.1263020833333357},{"name":"A4","midi":69,"time":50.87500000000003,"velocity":0.7637795275590551,"duration":0.1263020833333357},{"name":"F5","midi":77,"time":51.00000000000003,"velocity":0.7637795275590551,"duration":0.3645833333333357},{"name":"D5","midi":74,"time":51.00000000000003,"velocity":0.7637795275590551,"duration":0.3645833333333357},{"name":"A4","midi":69,"time":51.00000000000003,"velocity":0.7637795275590551,"duration":0.3645833333333357},{"name":"A2","midi":45,"time":51.12500000000003,"velocity":0.7637795275590551,"duration":0.1263020833333357},{"name":"D3","midi":50,"time":51.25000000000003,"velocity":0.7637795275590551,"duration":0.1263020833333357},{"name":"A3","midi":57,"time":51.37500000000003,"velocity":0.7637795275590551,"duration":0.1263020833333357},{"name":"D4","midi":62,"time":51.50000000000003,"velocity":0.7637795275590551,"duration":0.1263020833333357},{"name":"F4","midi":65,"time":51.62500000000003,"velocity":0.7637795275590551,"duration":0.1263020833333357},{"name":"A4","midi":69,"time":51.75000000000003,"velocity":0.7637795275590551,"duration":0.1263020833333357},{"name":"D5","midi":74,"time":51.87500000000003,"velocity":0.7637795275590551,"duration":0.1263020833333357},{"name":"F5","midi":77,"time":52.00000000000003,"velocity":0.7637795275590551,"duration":0.2473958333333357},{"name":"D5","midi":74,"time":52.12500000000003,"velocity":0.7637795275590551,"duration":0.1263020833333357},{"name":"C5","midi":72,"time":52.25000000000003,"velocity":0.7637795275590551,"duration":0.1263020833333357},{"name":"B4","midi":71,"time":52.37500000000003,"velocity":0.7637795275590551,"duration":0.1263020833333357},{"name":"G#5","midi":80,"time":52.50000000000003,"velocity":0.7637795275590551,"duration":0.3645833333333357},{"name":"D5","midi":74,"time":52.50000000000003,"velocity":0.7637795275590551,"duration":0.3645833333333357},{"name":"B4","midi":71,"time":52.50000000000003,"velocity":0.7637795275590551,"duration":0.3645833333333357},{"name":"A2","midi":45,"time":52.62500000000003,"velocity":0.7637795275590551,"duration":0.1263020833333357},{"name":"B2","midi":47,"time":52.75000000000003,"velocity":0.7637795275590551,"duration":0.1263020833333357},{"name":"D3","midi":50,"time":52.87500000000003,"velocity":0.7637795275590551,"duration":0.1263020833333357},{"name":"G#3","midi":56,"time":53.00000000000003,"velocity":0.7637795275590551,"duration":0.1263020833333357},{"name":"B3","midi":59,"time":53.12500000000003,"velocity":0.7637795275590551,"duration":0.1263020833333357},{"name":"D4","midi":62,"time":53.25000000000003,"velocity":0.7637795275590551,"duration":0.1263020833333357},{"name":"G#4","midi":68,"time":53.37500000000003,"velocity":0.7637795275590551,"duration":0.1263020833333357},{"name":"B4","midi":71,"time":53.50000000000003,"velocity":0.7637795275590551,"duration":0.1263020833333357},{"name":"D5","midi":74,"time":53.62500000000003,"velocity":0.7637795275590551,"duration":0.1263020833333357},{"name":"F5","midi":77,"time":53.75000000000003,"velocity":0.7637795275590551,"duration":0.1263020833333357},{"name":"G#5","midi":80,"time":53.87500000000003,"velocity":0.7637795275590551,"duration":0.1263020833333357},{"name":"A1","midi":33,"time":54.00000000000003,"velocity":0.7637795275590551,"duration":0.3125},{"name":"E5","midi":76,"time":54.00000000000003,"velocity":0.7637795275590551,"duration":0.3125},{"name":"C#5","midi":73,"time":54.00000000000003,"velocity":0.7637795275590551,"duration":0.3125},{"name":"A5","midi":81,"time":54.00000000000003,"velocity":0.7637795275590551,"duration":0.3125},{"name":"A4","midi":69,"time":54.255208333333364,"velocity":0.7637795275590551,"duration":0.1263020833333286},{"name":"B4","midi":71,"time":54.37890625000003,"velocity":0.7637795275590551,"duration":0.1263020833333286},{"name":"C#5","midi":73,"time":54.50260416666669,"velocity":0.7637795275590551,"duration":0.1263020833333286},{"name":"D5","midi":74,"time":54.62630208333336,"velocity":0.7637795275590551,"duration":0.1263020833333286},{"name":"E5","midi":76,"time":54.75000000000002,"velocity":0.7637795275590551,"duration":0.46875},{"name":"C#4","midi":61,"time":55.00000000000002,"velocity":0.7637795275590551,"duration":0.2083333333333357},{"name":"A3","midi":57,"time":55.00000000000002,"velocity":0.7637795275590551,"duration":0.2083333333333357},{"name":"G4","midi":67,"time":55.25000000000002,"velocity":0.7637795275590551,"duration":0.2473958333333357},{"name":"A#3","midi":58,"time":55.50000000000002,"velocity":0.7637795275590551,"duration":0.3645833333333357},{"name":"C#4","midi":61,"time":55.50000000000002,"velocity":0.7637795275590551,"duration":0.3645833333333357},{"name":"F#4","midi":66,"time":55.75000000000002,"velocity":0.7637795275590551,"duration":0.1263020833333357},{"name":"G#4","midi":68,"time":55.87500000000002,"velocity":0.7637795275590551,"duration":0.1263020833333357},{"name":"A#4","midi":70,"time":56.00000000000002,"velocity":0.7637795275590551,"duration":0.1263020833333357},{"name":"B4","midi":71,"time":56.12500000000002,"velocity":0.7637795275590551,"duration":0.1263020833333357},{"name":"C#5","midi":73,"time":56.25000000000002,"velocity":0.7637795275590551,"duration":0.1263020833333357},{"name":"D5","midi":74,"time":56.37500000000002,"velocity":0.7637795275590551,"duration":0.1263020833333357},{"name":"A#3","midi":58,"time":56.50000000000002,"velocity":0.7637795275590551,"duration":0.2083333333333357},{"name":"F#3","midi":54,"time":56.50000000000002,"velocity":0.7637795275590551,"duration":0.2083333333333357},{"name":"E5","midi":76,"time":56.50000000000002,"velocity":0.7637795275590551,"duration":0.1263020833333357},{"name":"D5","midi":74,"time":56.62500000000002,"velocity":0.7637795275590551,"duration":0.1263020833333357},{"name":"C#5","midi":73,"time":56.75000000000002,"velocity":0.7637795275590551,"duration":0.1263020833333357},{"name":"E5","midi":76,"time":56.87500000000002,"velocity":0.7637795275590551,"duration":0.1263020833333357},{"name":"B3","midi":59,"time":57.00000000000002,"velocity":0.7637795275590551,"duration":0.1263020833333357},{"name":"D5","midi":74,"time":57.00000000000002,"velocity":0.7637795275590551,"duration":0.2513020833333357},{"name":"C#4","midi":61,"time":57.12500000000002,"velocity":0.7637795275590551,"duration":0.1263020833333357},{"name":"D4","midi":62,"time":57.25000000000002,"velocity":0.7637795275590551,"duration":0.1263020833333357},{"name":"E4","midi":64,"time":57.37500000000002,"velocity":0.7637795275590551,"duration":0.1263020833333357},{"name":"F#4","midi":66,"time":57.50000000000002,"velocity":0.7637795275590551,"duration":0.1263020833333357},{"name":"G4","midi":67,"time":57.62500000000002,"velocity":0.7637795275590551,"duration":0.1263020833333357},{"name":"A4","midi":69,"time":57.75000000000002,"velocity":0.7637795275590551,"duration":0.46875},{"name":"E3","midi":52,"time":58.00000000000002,"velocity":0.7637795275590551,"duration":0.2513020833333357},{"name":"F#5","midi":78,"time":58.00000000000002,"velocity":0.7637795275590551,"duration":0.2473958333333357},{"name":"C4","midi":60,"time":58.25000000000002,"velocity":0.7637795275590551,"duration":0.4947916666666643},{"name":"D#3","midi":51,"time":58.50000000000002,"velocity":0.7637795275590551,"duration":0.2513020833333357},{"name":"A5","midi":81,"time":58.50000000000002,"velocity":0.7637795275590551,"duration":0.5013020833333357},{"name":"B3","midi":59,"time":58.75000000000002,"velocity":0.7637795275590551,"duration":0.1263020833333357},{"name":"C#4","midi":61,"time":58.87500000000002,"velocity":0.7637795275590551,"duration":0.1263020833333357},{"name":"D#4","midi":63,"time":59.00000000000002,"velocity":0.7637795275590551,"duration":0.1263020833333357},{"name":"E4","midi":64,"time":59.12500000000002,"velocity":0.7637795275590551,"duration":0.1263020833333357},{"name":"F#4","midi":66,"time":59.25000000000002,"velocity":0.7637795275590551,"duration":0.1263020833333357},{"name":"G4","midi":67,"time":59.37500000000002,"velocity":0.7637795275590551,"duration":0.1263020833333357},{"name":"B3","midi":59,"time":59.50000000000002,"velocity":0.7637795275590551,"duration":0.2083333333333357},{"name":"A4","midi":69,"time":59.50000000000002,"velocity":0.7637795275590551,"duration":0.1263020833333357},{"name":"D#5","midi":75,"time":59.50000000000002,"velocity":0.7637795275590551,"duration":0.2473958333333357},{"name":"G4","midi":67,"time":59.62500000000002,"velocity":0.7637795275590551,"duration":0.1263020833333357},{"name":"F#4","midi":66,"time":59.75000000000002,"velocity":0.7637795275590551,"duration":0.1263020833333357},{"name":"A4","midi":69,"time":59.87500000000002,"velocity":0.7637795275590551,"duration":0.1263020833333357},{"name":"G4","midi":67,"time":60.00000000000002,"velocity":0.7637795275590551,"duration":0.3645833333333357},{"name":"E4","midi":64,"time":60.00000000000002,"velocity":0.7637795275590551,"duration":0.3645833333333357},{"name":"E5","midi":76,"time":60.00000000000002,"velocity":0.7637795275590551,"duration":0.3645833333333357},{"name":"B5","midi":83,"time":60.00000000000002,"velocity":0.7637795275590551,"duration":0.1263020833333357},{"name":"A5","midi":81,"time":60.12500000000002,"velocity":0.7637795275590551,"duration":0.1263020833333357},{"name":"G5","midi":79,"time":60.25000000000002,"velocity":0.7637795275590551,"duration":0.1263020833333357},{"name":"F#5","midi":78,"time":60.37500000000002,"velocity":0.7637795275590551,"duration":0.1263020833333357},{"name":"E5","midi":76,"time":60.50000000000002,"velocity":0.7637795275590551,"duration":0.2473958333333357},{"name":"E4","midi":64,"time":61.00000000000002,"velocity":0.7637795275590551,"duration":0.1171875},{"name":"B4","midi":71,"time":61.00000000000002,"velocity":0.7637795275590551,"duration":0.1171875},{"name":"G4","midi":67,"time":61.00000000000002,"velocity":0.7637795275590551,"duration":0.1171875},{"name":"C5","midi":72,"time":61.50000000000002,"velocity":0.7637795275590551,"duration":0.1171875},{"name":"A4","midi":69,"time":61.50000000000002,"velocity":0.7637795275590551,"duration":0.1171875},{"name":"D#4","midi":63,"time":61.50000000000002,"velocity":0.7637795275590551,"duration":0.1171875},{"name":"E4","midi":64,"time":62.00000000000002,"velocity":0.7637795275590551,"duration":0.2473958333333357},{"name":"B4","midi":71,"time":62.00000000000002,"velocity":0.7637795275590551,"duration":0.2473958333333357},{"name":"G4","midi":67,"time":62.00000000000002,"velocity":0.7637795275590551,"duration":0.2473958333333357},{"name":"B5","midi":83,"time":63.00000000000002,"velocity":0.7637795275590551,"duration":0.1263020833333357},{"name":"A5","midi":81,"time":63.12500000000002,"velocity":0.7637795275590551,"duration":0.1263020833333357},{"name":"G5","midi":79,"time":63.25000000000002,"velocity":0.7637795275590551,"duration":0.1263020833333357},{"name":"F#5","midi":78,"time":63.37500000000002,"velocity":0.7637795275590551,"duration":0.1263020833333357},{"name":"E5","midi":76,"time":63.50000000000002,"velocity":0.7637795275590551,"duration":0.1263020833333357},{"name":"D5","midi":74,"time":63.62500000000002,"velocity":0.7637795275590551,"duration":0.1263020833333357},{"name":"C5","midi":72,"time":63.75000000000002,"velocity":0.7637795275590551,"duration":0.1263020833333357},{"name":"B4","midi":71,"time":63.87500000000002,"velocity":0.7637795275590551,"duration":0.1263020833333357},{"name":"A4","midi":69,"time":64.00000000000003,"velocity":0.7637795275590551,"duration":0.1263020833333286},{"name":"G4","midi":67,"time":64.12500000000003,"velocity":0.7637795275590551,"duration":0.1263020833333286},{"name":"F#4","midi":66,"time":64.25000000000003,"velocity":0.7637795275590551,"duration":0.1263020833333286},{"name":"E4","midi":64,"time":64.37500000000003,"velocity":0.7637795275590551,"duration":0.1263020833333286},{"name":"E3","midi":52,"time":64.50000000000003,"velocity":0.7637795275590551,"duration":0.1171875},{"name":"B3","midi":59,"time":64.50000000000003,"velocity":0.7637795275590551,"duration":0.1171875},{"name":"A4","midi":69,"time":64.50000000000003,"velocity":0.7637795275590551,"duration":0.1171875},{"name":"F#4","midi":66,"time":64.50000000000003,"velocity":0.7637795275590551,"duration":0.1171875},{"name":"D#4","midi":63,"time":64.50000000000003,"velocity":0.7637795275590551,"duration":0.1171875},{"name":"E2","midi":40,"time":65.00000000000003,"velocity":0.7637795275590551,"duration":0.2473958333333286},{"name":"E3","midi":52,"time":65.00000000000003,"velocity":0.7637795275590551,"duration":0.2473958333333286},{"name":"E4","midi":64,"time":65.00000000000003,"velocity":0.7637795275590551,"duration":0.2473958333333286},{"name":"B3","midi":59,"time":65.00000000000003,"velocity":0.7637795275590551,"duration":0.2473958333333286},{"name":"G4","midi":67,"time":65.00000000000003,"velocity":0.7637795275590551,"duration":0.2473958333333286},{"name":"E3","midi":52,"time":66.00000000000003,"velocity":0.7637795275590551,"duration":0.2473958333333286},{"name":"G3","midi":55,"time":66.12500000000003,"velocity":0.7637795275590551,"duration":0.1263020833333286},{"name":"A3","midi":57,"time":66.25000000000003,"velocity":0.7637795275590551,"duration":0.1263020833333286},{"name":"B3","midi":59,"time":66.37500000000003,"velocity":0.7637795275590551,"duration":0.1263020833333286},{"name":"C4","midi":60,"time":66.50000000000003,"velocity":0.7637795275590551,"duration":0.1263020833333286},{"name":"D4","midi":62,"time":66.62500000000003,"velocity":0.7637795275590551,"duration":0.1263020833333286},{"name":"E4","midi":64,"time":66.75000000000003,"velocity":0.7637795275590551,"duration":0.1263020833333286},{"name":"F#4","midi":66,"time":66.87500000000003,"velocity":0.7637795275590551,"duration":0.1263020833333286},{"name":"G4","midi":67,"time":67.00000000000003,"velocity":0.7637795275590551,"duration":0.1263020833333286},{"name":"A4","midi":69,"time":67.12500000000003,"velocity":0.7637795275590551,"duration":0.1263020833333286},{"name":"B4","midi":71,"time":67.25000000000003,"velocity":0.7637795275590551,"duration":0.10416666666665719},{"name":"C5","midi":72,"time":67.37500000000001,"velocity":0.7637795275590551,"duration":0.1041666666666714},{"name":"F#3","midi":54,"time":67.50000000000001,"velocity":0.7637795275590551,"duration":0.2473958333333286},{"name":"A3","midi":57,"time":67.62500000000001,"velocity":0.7637795275590551,"duration":0.1263020833333286},{"name":"B3","midi":59,"time":67.75000000000001,"velocity":0.7637795275590551,"duration":0.1263020833333286},{"name":"C4","midi":60,"time":67.87500000000001,"velocity":0.7637795275590551,"duration":0.1263020833333286},{"name":"D4","midi":62,"time":68.00000000000001,"velocity":0.7637795275590551,"duration":0.1263020833333286},{"name":"E4","midi":64,"time":68.12500000000001,"velocity":0.7637795275590551,"duration":0.1263020833333286},{"name":"F#4","midi":66,"time":68.25000000000001,"velocity":0.7637795275590551,"duration":0.1263020833333286},{"name":"G4","midi":67,"time":68.37500000000001,"velocity":0.7637795275590551,"duration":0.1263020833333286},{"name":"A4","midi":69,"time":68.50000000000001,"velocity":0.7637795275590551,"duration":0.1263020833333286},{"name":"B4","midi":71,"time":68.62500000000001,"velocity":0.7637795275590551,"duration":0.1263020833333286},{"name":"C5","midi":72,"time":68.75000000000001,"velocity":0.7637795275590551,"duration":0.10416666666665719},{"name":"D5","midi":74,"time":68.875,"velocity":0.7637795275590551,"duration":0.1041666666666714},{"name":"G3","midi":55,"time":69,"velocity":0.7637795275590551,"duration":0.2473958333333286},{"name":"B3","midi":59,"time":69.125,"velocity":0.7637795275590551,"duration":0.1263020833333286},{"name":"C4","midi":60,"time":69.25,"velocity":0.7637795275590551,"duration":0.1263020833333286},{"name":"D4","midi":62,"time":69.375,"velocity":0.7637795275590551,"duration":0.1263020833333286},{"name":"E4","midi":64,"time":69.5,"velocity":0.7637795275590551,"duration":0.1263020833333286},{"name":"F#4","midi":66,"time":69.625,"velocity":0.7637795275590551,"duration":0.1263020833333286},{"name":"G4","midi":67,"time":69.75,"velocity":0.7637795275590551,"duration":0.1263020833333286},{"name":"A4","midi":69,"time":69.875,"velocity":0.7637795275590551,"duration":0.1263020833333286},{"name":"B4","midi":71,"time":70,"velocity":0.7637795275590551,"duration":0.1263020833333286},{"name":"C5","midi":72,"time":70.125,"velocity":0.7637795275590551,"duration":0.1263020833333286},{"name":"D5","midi":74,"time":70.25,"velocity":0.7637795275590551,"duration":0.10416666666665719},{"name":"E5","midi":76,"time":70.37499999999999,"velocity":0.7637795275590551,"duration":0.1041666666666714},{"name":"A3","midi":57,"time":70.49999999999999,"velocity":0.7637795275590551,"duration":0.2473958333333286},{"name":"C4","midi":60,"time":70.62499999999999,"velocity":0.7637795275590551,"duration":0.1263020833333286},{"name":"D4","midi":62,"time":70.74999999999999,"velocity":0.7637795275590551,"duration":0.1263020833333286},{"name":"E4","midi":64,"time":70.87499999999999,"velocity":0.7637795275590551,"duration":0.1263020833333286},{"name":"F4","midi":65,"time":70.99999999999999,"velocity":0.7637795275590551,"duration":0.1263020833333286},{"name":"G4","midi":67,"time":71.12499999999999,"velocity":0.7637795275590551,"duration":0.1263020833333286},{"name":"A4","midi":69,"time":71.24999999999999,"velocity":0.7637795275590551,"duration":0.1263020833333286},{"name":"B4","midi":71,"time":71.37499999999999,"velocity":0.7637795275590551,"duration":0.1263020833333286},{"name":"C5","midi":72,"time":71.49999999999999,"velocity":0.7637795275590551,"duration":0.1263020833333286},{"name":"D5","midi":74,"time":71.62499999999999,"velocity":0.7637795275590551,"duration":0.1263020833333286},{"name":"E5","midi":76,"time":71.74999999999999,"velocity":0.7637795275590551,"duration":0.1145833333333286},{"name":"F5","midi":77,"time":71.87499999999999,"velocity":0.7637795275590551,"duration":0.1145833333333286},{"name":"D#5","midi":75,"time":71.99999999999999,"velocity":0.7637795275590551,"duration":0.2473958333333286},{"name":"A5","midi":81,"time":72.12499999999999,"velocity":0.7637795275590551,"duration":0.1263020833333286},{"name":"B2","midi":47,"time":72.24999999999999,"velocity":0.7637795275590551,"duration":0.1263020833333286},{"name":"F#5","midi":78,"time":72.24999999999999,"velocity":0.7637795275590551,"duration":0.1263020833333286},{"name":"C#3","midi":49,"time":72.37499999999999,"velocity":0.7637795275590551,"duration":0.1263020833333286},{"name":"D#5","midi":75,"time":72.37499999999999,"velocity":0.7637795275590551,"duration":0.1263020833333286},{"name":"D#3","midi":51,"time":72.49999999999999,"velocity":0.7637795275590551,"duration":0.1263020833333286},{"name":"B4","midi":71,"time":72.49999999999999,"velocity":0.7637795275590551,"duration":0.4947916666666572},{"name":"E3","midi":52,"time":72.62499999999999,"velocity":0.7637795275590551,"duration":0.1263020833333286},{"name":"F#3","midi":54,"time":72.74999999999999,"velocity":0.7637795275590551,"duration":0.1263020833333286},{"name":"G3","midi":55,"time":72.87499999999999,"velocity":0.7637795275590551,"duration":0.12630208333331439},{"name":"A3","midi":57,"time":72.99999999999997,"velocity":0.7637795275590551,"duration":0.1263020833333286},{"name":"G3","midi":55,"time":73.12499999999997,"velocity":0.7637795275590551,"duration":0.1263020833333286},{"name":"F#3","midi":54,"time":73.24999999999997,"velocity":0.7637795275590551,"duration":0.1263020833333286},{"name":"A3","midi":57,"time":73.37499999999997,"velocity":0.7637795275590551,"duration":0.1263020833333286},{"name":"G3","midi":55,"time":73.49999999999997,"velocity":0.7637795275590551,"duration":0.4947916666666572},{"name":"A3","midi":57,"time":73.62499999999997,"velocity":0.7637795275590551,"duration":0.1263020833333286},{"name":"B3","midi":59,"time":73.74999999999997,"velocity":0.7637795275590551,"duration":0.1263020833333286},{"name":"C#4","midi":61,"time":73.87499999999997,"velocity":0.7637795275590551,"duration":0.12630208333331439},{"name":"D#4","midi":63,"time":73.99999999999996,"velocity":0.7637795275590551,"duration":0.1263020833333286},{"name":"F#3","midi":54,"time":74.12499999999996,"velocity":0.7637795275590551,"duration":0.1263020833333286},{"name":"E4","midi":64,"time":74.12499999999996,"velocity":0.7637795275590551,"duration":0.1263020833333286},{"name":"E3","midi":52,"time":74.24999999999996,"velocity":0.7637795275590551,"duration":0.1263020833333286},{"name":"F#4","midi":66,"time":74.24999999999996,"velocity":0.7637795275590551,"duration":0.1263020833333286},{"name":"D3","midi":50,"time":74.37499999999996,"velocity":0.7637795275590551,"duration":0.1263020833333286},{"name":"G4","midi":67,"time":74.37499999999996,"velocity":0.7637795275590551,"duration":0.1263020833333286},{"name":"C#3","midi":49,"time":74.49999999999996,"velocity":0.7637795275590551,"duration":0.1263020833333286},{"name":"A4","midi":69,"time":74.49999999999996,"velocity":0.7637795275590551,"duration":0.1263020833333286},{"name":"E3","midi":52,"time":74.62499999999996,"velocity":0.7637795275590551,"duration":0.1263020833333286},{"name":"G4","midi":67,"time":74.62499999999996,"velocity":0.7637795275590551,"duration":0.1171875},{"name":"D#3","midi":51,"time":74.74999999999996,"velocity":0.7637795275590551,"duration":0.1263020833333286},{"name":"F#4","midi":66,"time":74.74999999999996,"velocity":0.7637795275590551,"duration":0.1171875},{"name":"F#3","midi":54,"time":74.87499999999996,"velocity":0.7637795275590551,"duration":0.1263020833333286},{"name":"A4","midi":69,"time":74.87499999999996,"velocity":0.7637795275590551,"duration":0.1171875},{"name":"E3","midi":52,"time":74.99999999999996,"velocity":0.7637795275590551,"duration":0.5598958333333286},{"name":"G4","midi":67,"time":74.99999999999996,"velocity":0.7637795275590551,"duration":0.1263020833333286},{"name":"F#4","midi":66,"time":75.12499999999996,"velocity":0.7637795275590551,"duration":0.1263020833333286},{"name":"G4","midi":67,"time":75.24999999999996,"velocity":0.7637795275590551,"duration":0.1263020833333286},{"name":"A4","midi":69,"time":75.37499999999996,"velocity":0.7637795275590551,"duration":0.1263020833333286},{"name":"B4","midi":71,"time":75.49999999999996,"velocity":0.7637795275590551,"duration":0.1263020833333286},{"name":"D3","midi":50,"time":75.62499999999996,"velocity":0.7637795275590551,"duration":0.1263020833333286},{"name":"C5","midi":72,"time":75.62499999999996,"velocity":0.7637795275590551,"duration":0.1263020833333286},{"name":"C3","midi":48,"time":75.74999999999996,"velocity":0.7637795275590551,"duration":0.1263020833333286},{"name":"D5","midi":74,"time":75.74999999999996,"velocity":0.7637795275590551,"duration":0.1263020833333286},{"name":"B2","midi":47,"time":75.87499999999996,"velocity":0.7637795275590551,"duration":0.1263020833333286},{"name":"E5","midi":76,"time":75.87499999999996,"velocity":0.7637795275590551,"duration":0.1263020833333286},{"name":"A2","midi":45,"time":75.99999999999996,"velocity":0.7637795275590551,"duration":0.1263020833333286},{"name":"F5","midi":77,"time":75.99999999999996,"velocity":0.7637795275590551,"duration":0.1263020833333286},{"name":"C3","midi":48,"time":76.12499999999996,"velocity":0.7637795275590551,"duration":0.1263020833333286},{"name":"E5","midi":76,"time":76.12499999999996,"velocity":0.7637795275590551,"duration":0.1171875},{"name":"B2","midi":47,"time":76.24999999999996,"velocity":0.7637795275590551,"duration":0.1263020833333286},{"name":"D5","midi":74,"time":76.24999999999996,"velocity":0.7637795275590551,"duration":0.1171875},{"name":"D3","midi":50,"time":76.37499999999996,"velocity":0.7637795275590551,"duration":0.1263020833333286},{"name":"F5","midi":77,"time":76.37499999999996,"velocity":0.7637795275590551,"duration":0.1171875},{"name":"C3","midi":48,"time":76.49999999999996,"velocity":0.7637795275590551,"duration":0.5729166666666572},{"name":"E5","midi":76,"time":76.49999999999996,"velocity":0.7637795275590551,"duration":0.1263020833333286},{"name":"D5","midi":74,"time":76.62499999999996,"velocity":0.7637795275590551,"duration":0.1263020833333286},{"name":"E5","midi":76,"time":76.74999999999996,"velocity":0.7637795275590551,"duration":0.1263020833333286},{"name":"F#5","midi":78,"time":76.87499999999996,"velocity":0.7637795275590551,"duration":0.1263020833333286},{"name":"G#5","midi":80,"time":76.99999999999996,"velocity":0.7637795275590551,"duration":0.12630208333331439},{"name":"B2","midi":47,"time":77.12499999999994,"velocity":0.7637795275590551,"duration":0.1263020833333286},{"name":"A5","midi":81,"time":77.12499999999994,"velocity":0.7637795275590551,"duration":0.1263020833333286},{"name":"A2","midi":45,"time":77.24999999999994,"velocity":0.7637795275590551,"duration":0.1263020833333286},{"name":"B5","midi":83,"time":77.24999999999994,"velocity":0.7637795275590551,"duration":0.1263020833333286},{"name":"G2","midi":43,"time":77.37499999999994,"velocity":0.7637795275590551,"duration":0.1263020833333286},{"name":"C6","midi":84,"time":77.37499999999994,"velocity":0.7637795275590551,"duration":0.1263020833333286},{"name":"F#2","midi":42,"time":77.49999999999994,"velocity":0.7637795275590551,"duration":0.1263020833333286},{"name":"D6","midi":86,"time":77.49999999999994,"velocity":0.7637795275590551,"duration":0.1263020833333286},{"name":"A2","midi":45,"time":77.62499999999994,"velocity":0.7637795275590551,"duration":0.1263020833333286},{"name":"C6","midi":84,"time":77.62499999999994,"velocity":0.7637795275590551,"duration":0.1171875},{"name":"G#2","midi":44,"time":77.74999999999994,"velocity":0.7637795275590551,"duration":0.1263020833333286},{"name":"B5","midi":83,"time":77.74999999999994,"velocity":0.7637795275590551,"duration":0.1171875},{"name":"B2","midi":47,"time":77.87499999999994,"velocity":0.7637795275590551,"duration":0.1263020833333286},{"name":"D6","midi":86,"time":77.87499999999994,"velocity":0.7637795275590551,"duration":0.1171875},{"name":"A2","midi":45,"time":77.99999999999994,"velocity":0.7637795275590551,"duration":0.2864583333333286},{"name":"C6","midi":84,"time":77.99999999999994,"velocity":0.7637795275590551,"duration":0.1263020833333286},{"name":"B5","midi":83,"time":78.12499999999994,"velocity":0.7637795275590551,"duration":0.1263020833333286},{"name":"A5","midi":81,"time":78.24999999999994,"velocity":0.7637795275590551,"duration":0.1263020833333286},{"name":"G#5","midi":80,"time":78.37499999999994,"velocity":0.7637795275590551,"duration":0.1263020833333286},{"name":"A3","midi":57,"time":78.49999999999994,"velocity":0.7637795275590551,"duration":0.2864583333333286},{"name":"A5","midi":81,"time":78.49999999999994,"velocity":0.7637795275590551,"duration":0.1263020833333286},{"name":"G5","midi":79,"time":78.62499999999994,"velocity":0.7637795275590551,"duration":0.1263020833333286},{"name":"F5","midi":77,"time":78.74999999999994,"velocity":0.7637795275590551,"duration":0.1263020833333286},{"name":"E5","midi":76,"time":78.87499999999994,"velocity":0.7637795275590551,"duration":0.1263020833333286},{"name":"D5","midi":74,"time":78.99999999999994,"velocity":0.7637795275590551,"duration":0.1263020833333286},{"name":"C5","midi":72,"time":79.12499999999994,"velocity":0.7637795275590551,"duration":0.1263020833333286},{"name":"B4","midi":71,"time":79.24999999999994,"velocity":0.7637795275590551,"duration":0.1263020833333286},{"name":"A4","midi":69,"time":79.37499999999994,"velocity":0.7637795275590551,"duration":0.1263020833333286},{"name":"G#4","midi":68,"time":79.49999999999994,"velocity":0.7637795275590551,"duration":0.2994791666666572},{"name":"D5","midi":74,"time":79.62499999999994,"velocity":0.7637795275590551,"duration":0.1263020833333286},{"name":"C5","midi":72,"time":79.74999999999994,"velocity":0.7637795275590551,"duration":0.12630208333331439},{"name":"B4","midi":71,"time":79.87499999999993,"velocity":0.7637795275590551,"duration":0.1263020833333286},{"name":"A4","midi":69,"time":79.99999999999993,"velocity":0.7637795275590551,"duration":0.24609375},{"name":"C5","midi":72,"time":79.99999999999993,"velocity":0.7637795275590551,"duration":0.1263020833333286},{"name":"B4","midi":71,"time":80.12499999999993,"velocity":0.7637795275590551,"duration":0.1263020833333286},{"name":"A4","midi":69,"time":80.24999999999993,"velocity":0.7637795275590551,"duration":0.1263020833333286},{"name":"G4","midi":67,"time":80.37499999999993,"velocity":0.7637795275590551,"duration":0.1263020833333286},{"name":"F4","midi":65,"time":80.49999999999993,"velocity":0.7637795275590551,"duration":0.1263020833333286},{"name":"E4","midi":64,"time":80.62499999999993,"velocity":0.7637795275590551,"duration":0.1263020833333286},{"name":"D4","midi":62,"time":80.74999999999993,"velocity":0.7637795275590551,"duration":0.1263020833333286},{"name":"C4","midi":60,"time":80.87499999999993,"velocity":0.7637795275590551,"duration":0.1171875},{"name":"B3","midi":59,"time":80.99999999999993,"velocity":0.7637795275590551,"duration":0.2994791666666572},{"name":"F4","midi":65,"time":81.12499999999993,"velocity":0.7637795275590551,"duration":0.1263020833333286},{"name":"E4","midi":64,"time":81.24999999999993,"velocity":0.7637795275590551,"duration":0.12630208333331439},{"name":"D4","midi":62,"time":81.37499999999991,"velocity":0.7637795275590551,"duration":0.1263020833333286},{"name":"G#3","midi":56,"time":81.49999999999991,"velocity":0.7637795275590551,"duration":0.2864583333333286},{"name":"E4","midi":64,"time":81.49999999999991,"velocity":0.7637795275590551,"duration":0.1263020833333286},{"name":"D4","midi":62,"time":81.62499999999991,"velocity":0.7637795275590551,"duration":0.1263020833333286},{"name":"C4","midi":60,"time":81.74999999999991,"velocity":0.7637795275590551,"duration":0.1263020833333286},{"name":"B3","midi":59,"time":81.87499999999991,"velocity":0.7637795275590551,"duration":0.1263020833333286},{"name":"A3","midi":57,"time":81.99999999999991,"velocity":0.7637795275590551,"duration":0.1263020833333286},{"name":"G#3","midi":56,"time":82.12499999999991,"velocity":0.7637795275590551,"duration":0.1263020833333286},{"name":"F#3","midi":54,"time":82.24999999999991,"velocity":0.7637795275590551,"duration":0.1263020833333286},{"name":"E3","midi":52,"time":82.37499999999991,"velocity":0.7637795275590551,"duration":0.1171875},{"name":"D3","midi":50,"time":82.49999999999991,"velocity":0.7637795275590551,"duration":0.2994791666666572},{"name":"B3","midi":59,"time":82.62499999999991,"velocity":0.7637795275590551,"duration":0.1263020833333286},{"name":"A3","midi":57,"time":82.74999999999991,"velocity":0.7637795275590551,"duration":0.12630208333331439},{"name":"G#3","midi":56,"time":82.8749999999999,"velocity":0.7637795275590551,"duration":0.1263020833333286},{"name":"C3","midi":48,"time":82.9999999999999,"velocity":0.7637795275590551,"duration":0.2864583333333286},{"name":"A3","midi":57,"time":82.9999999999999,"velocity":0.7637795275590551,"duration":0.1263020833333286},{"name":"F3","midi":53,"time":83.1249999999999,"velocity":0.7637795275590551,"duration":0.1263020833333286},{"name":"E3","midi":52,"time":83.2499999999999,"velocity":0.7637795275590551,"duration":0.1263020833333286},{"name":"D3","midi":50,"time":83.3749999999999,"velocity":0.7637795275590551,"duration":0.1263020833333286},{"name":"C3","midi":48,"time":83.4999999999999,"velocity":0.7637795275590551,"duration":0.1263020833333286},{"name":"B2","midi":47,"time":83.6249999999999,"velocity":0.7637795275590551,"duration":0.1263020833333286},{"name":"A2","midi":45,"time":83.7499999999999,"velocity":0.7637795275590551,"duration":0.1263020833333286},{"name":"G#2","midi":44,"time":83.8749999999999,"velocity":0.7637795275590551,"duration":0.1263020833333286},{"name":"A2","midi":45,"time":83.9999999999999,"velocity":0.7637795275590551,"duration":0.2864583333333286},{"name":"F5","midi":77,"time":84.1249999999999,"velocity":0.7637795275590551,"duration":0.1263020833333286},{"name":"A3","midi":57,"time":84.2499999999999,"velocity":0.7637795275590551,"duration":0.2513020833333286},{"name":"E5","midi":76,"time":84.2499999999999,"velocity":0.7637795275590551,"duration":0.1263020833333286},{"name":"D5","midi":74,"time":84.3749999999999,"velocity":0.7637795275590551,"duration":0.1263020833333286},{"name":"C4","midi":60,"time":84.4999999999999,"velocity":0.7637795275590551,"duration":0.2213541666666572},{"name":"E5","midi":76,"time":84.4999999999999,"velocity":0.7637795275590551,"duration":0.1263020833333286},{"name":"D5","midi":74,"time":84.6249999999999,"velocity":0.7637795275590551,"duration":0.12630208333331439},{"name":"A3","midi":57,"time":84.74999999999989,"velocity":0.7637795275590551,"duration":0.2213541666666572},{"name":"C5","midi":72,"time":84.74999999999989,"velocity":0.7637795275590551,"duration":0.1263020833333286},{"name":"B4","midi":71,"time":84.87499999999989,"velocity":0.7637795275590551,"duration":0.12630208333331439},{"name":"F3","midi":53,"time":84.99999999999987,"velocity":0.7637795275590551,"duration":0.2213541666666572},{"name":"A4","midi":69,"time":84.99999999999987,"velocity":0.7637795275590551,"duration":0.1263020833333286},{"name":"D5","midi":74,"time":85.12499999999987,"velocity":0.7637795275590551,"duration":0.11718749999998579},{"name":"D3","midi":50,"time":85.24999999999986,"velocity":0.7637795275590551,"duration":0.2213541666666714},{"name":"E5","midi":76,"time":85.24999999999986,"velocity":0.7637795275590551,"duration":0.1171875},{"name":"F5","midi":77,"time":85.37499999999986,"velocity":0.7637795275590551,"duration":0.1171875},{"name":"G2","midi":43,"time":85.49999999999986,"velocity":0.7637795275590551,"duration":0.2864583333333286},{"name":"B4","midi":71,"time":85.49999999999986,"velocity":0.7637795275590551,"duration":0.1263020833333286},{"name":"D5","midi":74,"time":85.62499999999986,"velocity":0.7637795275590551,"duration":0.1263020833333286},{"name":"G3","midi":55,"time":85.74999999999986,"velocity":0.7637795275590551,"duration":0.2513020833333286},{"name":"E5","midi":76,"time":85.74999999999986,"velocity":0.7637795275590551,"duration":0.1263020833333286},{"name":"F5","midi":77,"time":85.87499999999986,"velocity":0.7637795275590551,"duration":0.1263020833333286},{"name":"B3","midi":59,"time":85.99999999999986,"velocity":0.7637795275590551,"duration":0.2213541666666572},{"name":"G4","midi":67,"time":85.99999999999986,"velocity":0.7637795275590551,"duration":0.1263020833333286},{"name":"F5","midi":77,"time":86.12499999999986,"velocity":0.7637795275590551,"duration":0.12630208333331439},{"name":"G3","midi":55,"time":86.24999999999984,"velocity":0.7637795275590551,"duration":0.2213541666666572},{"name":"E5","midi":76,"time":86.24999999999984,"velocity":0.7637795275590551,"duration":0.1263020833333286},{"name":"D5","midi":74,"time":86.37499999999984,"velocity":0.7637795275590551,"duration":0.12630208333331439},{"name":"E3","midi":52,"time":86.49999999999983,"velocity":0.7637795275590551,"duration":0.2213541666666572},{"name":"C5","midi":72,"time":86.49999999999983,"velocity":0.7637795275590551,"duration":0.1263020833333286},{"name":"D5","midi":74,"time":86.62499999999983,"velocity":0.7637795275590551,"duration":0.11718749999998579},{"name":"C3","midi":48,"time":86.74999999999982,"velocity":0.7637795275590551,"duration":0.2213541666666714},{"name":"E5","midi":76,"time":86.74999999999982,"velocity":0.7637795275590551,"duration":0.1171875},{"name":"C5","midi":72,"time":86.87499999999982,"velocity":0.7637795275590551,"duration":0.1171875},{"name":"F2","midi":41,"time":86.99999999999982,"velocity":0.7637795275590551,"duration":0.2864583333333286},{"name":"A4","midi":69,"time":86.99999999999982,"velocity":0.7637795275590551,"duration":0.1263020833333286},{"name":"D5","midi":74,"time":87.12499999999982,"velocity":0.7637795275590551,"duration":0.1263020833333286},{"name":"F3","midi":53,"time":87.24999999999982,"velocity":0.7637795275590551,"duration":0.2513020833333286},{"name":"C5","midi":72,"time":87.24999999999982,"velocity":0.7637795275590551,"duration":0.1263020833333286},{"name":"B4","midi":71,"time":87.37499999999982,"velocity":0.7637795275590551,"duration":0.1263020833333286},{"name":"A3","midi":57,"time":87.49999999999982,"velocity":0.7637795275590551,"duration":0.2213541666666572},{"name":"C5","midi":72,"time":87.49999999999982,"velocity":0.7637795275590551,"duration":0.1263020833333286},{"name":"B4","midi":71,"time":87.62499999999982,"velocity":0.7637795275590551,"duration":0.12630208333331439},{"name":"F3","midi":53,"time":87.7499999999998,"velocity":0.7637795275590551,"duration":0.2213541666666572},{"name":"A4","midi":69,"time":87.7499999999998,"velocity":0.7637795275590551,"duration":0.1263020833333286},{"name":"G4","midi":67,"time":87.8749999999998,"velocity":0.7637795275590551,"duration":0.12630208333331439},{"name":"D3","midi":50,"time":87.99999999999979,"velocity":0.7637795275590551,"duration":0.2213541666666572},{"name":"F4","midi":65,"time":87.99999999999979,"velocity":0.7637795275590551,"duration":0.1263020833333286},{"name":"B4","midi":71,"time":88.12499999999979,"velocity":0.7637795275590551,"duration":0.11718749999998579},{"name":"B2","midi":47,"time":88.24999999999977,"velocity":0.7637795275590551,"duration":0.2213541666666714},{"name":"C5","midi":72,"time":88.24999999999977,"velocity":0.7637795275590551,"duration":0.1171875},{"name":"D5","midi":74,"time":88.37499999999977,"velocity":0.7637795275590551,"duration":0.1171875},{"name":"E2","midi":40,"time":88.49999999999977,"velocity":0.7637795275590551,"duration":0.2864583333333286},{"name":"G4","midi":67,"time":88.49999999999977,"velocity":0.7637795275590551,"duration":0.1263020833333286},{"name":"B4","midi":71,"time":88.62499999999977,"velocity":0.7637795275590551,"duration":0.1263020833333286},{"name":"E3","midi":52,"time":88.74999999999977,"velocity":0.7637795275590551,"duration":0.2513020833333286},{"name":"C5","midi":72,"time":88.74999999999977,"velocity":0.7637795275590551,"duration":0.1263020833333286},{"name":"D5","midi":74,"time":88.87499999999977,"velocity":0.7637795275590551,"duration":0.1263020833333286},{"name":"G3","midi":55,"time":88.99999999999977,"velocity":0.7637795275590551,"duration":0.2213541666666572},{"name":"E4","midi":64,"time":88.99999999999977,"velocity":0.7637795275590551,"duration":0.1263020833333286},{"name":"D5","midi":74,"time":89.12499999999977,"velocity":0.7637795275590551,"duration":0.12630208333331439},{"name":"E3","midi":52,"time":89.24999999999976,"velocity":0.7637795275590551,"duration":0.2213541666666572},{"name":"C5","midi":72,"time":89.24999999999976,"velocity":0.7637795275590551,"duration":0.1263020833333286},{"name":"B4","midi":71,"time":89.37499999999976,"velocity":0.7637795275590551,"duration":0.12630208333331439},{"name":"C3","midi":48,"time":89.49999999999974,"velocity":0.7637795275590551,"duration":0.2213541666666572},{"name":"A4","midi":69,"time":89.49999999999974,"velocity":0.7637795275590551,"duration":0.1263020833333286},{"name":"B4","midi":71,"time":89.62499999999974,"velocity":0.7637795275590551,"duration":0.11718749999998579},{"name":"A2","midi":45,"time":89.74999999999973,"velocity":0.7637795275590551,"duration":0.2213541666666714},{"name":"C5","midi":72,"time":89.74999999999973,"velocity":0.7637795275590551,"duration":0.1171875},{"name":"A4","midi":69,"time":89.87499999999973,"velocity":0.7637795275590551,"duration":0.1171875},{"name":"D2","midi":38,"time":89.99999999999973,"velocity":0.7637795275590551,"duration":0.1263020833333286},{"name":"F4","midi":65,"time":89.99999999999973,"velocity":0.7637795275590551,"duration":0.2513020833333286},{"name":"C2","midi":36,"time":90.12499999999973,"velocity":0.7637795275590551,"duration":0.1263020833333286},{"name":"D2","midi":38,"time":90.24999999999973,"velocity":0.7637795275590551,"duration":0.1263020833333286},{"name":"B4","midi":71,"time":90.24999999999973,"velocity":0.7637795275590551,"duration":0.1263020833333286},{"name":"E2","midi":40,"time":90.37499999999973,"velocity":0.7637795275590551,"duration":0.1263020833333286},{"name":"C5","midi":72,"time":90.37499999999973,"velocity":0.7637795275590551,"duration":0.1263020833333286},{"name":"F2","midi":41,"time":90.49999999999973,"velocity":0.7637795275590551,"duration":0.1263020833333286},{"name":"D5","midi":74,"time":90.49999999999973,"velocity":0.7637795275590551,"duration":0.4166666666666572},{"name":"G2","midi":43,"time":90.62499999999973,"velocity":0.7637795275590551,"duration":0.1263020833333286},{"name":"A2","midi":45,"time":90.74999999999973,"velocity":0.7637795275590551,"duration":0.1263020833333286},{"name":"B2","midi":47,"time":90.87499999999973,"velocity":0.7637795275590551,"duration":0.12630208333331439},{"name":"C3","midi":48,"time":90.99999999999972,"velocity":0.7637795275590551,"duration":0.1263020833333286},{"name":"B2","midi":47,"time":91.12499999999972,"velocity":0.7637795275590551,"duration":0.1263020833333286},{"name":"G4","midi":67,"time":91.12499999999972,"velocity":0.7637795275590551,"duration":0.1171875},{"name":"A2","midi":45,"time":91.24999999999972,"velocity":0.7637795275590551,"duration":0.1263020833333286},{"name":"F4","midi":65,"time":91.24999999999972,"velocity":0.7637795275590551,"duration":0.1171875},{"name":"C3","midi":48,"time":91.37499999999972,"velocity":0.7637795275590551,"duration":0.1263020833333286},{"name":"E4","midi":64,"time":91.37499999999972,"velocity":0.7637795275590551,"duration":0.1171875},{"name":"B2","midi":47,"time":91.49999999999972,"velocity":0.7637795275590551,"duration":0.1263020833333286},{"name":"F4","midi":65,"time":91.49999999999972,"velocity":0.7637795275590551,"duration":0.2513020833333286},{"name":"A2","midi":45,"time":91.62499999999972,"velocity":0.7637795275590551,"duration":0.1263020833333286},{"name":"G2","midi":43,"time":91.74999999999972,"velocity":0.7637795275590551,"duration":0.1263020833333286},{"name":"B4","midi":71,"time":91.74999999999972,"velocity":0.7637795275590551,"duration":0.1263020833333286},{"name":"A2","midi":45,"time":91.87499999999972,"velocity":0.7637795275590551,"duration":0.1263020833333286},{"name":"C5","midi":72,"time":91.87499999999972,"velocity":0.7637795275590551,"duration":0.1263020833333286},{"name":"B2","midi":47,"time":91.99999999999972,"velocity":0.7637795275590551,"duration":0.1263020833333286},{"name":"D5","midi":74,"time":91.99999999999972,"velocity":0.7637795275590551,"duration":0.5208333333333286},{"name":"C3","midi":48,"time":92.12499999999972,"velocity":0.7637795275590551,"duration":0.1263020833333286},{"name":"D3","midi":50,"time":92.24999999999972,"velocity":0.7637795275590551,"duration":0.1263020833333286},{"name":"E3","midi":52,"time":92.37499999999972,"velocity":0.7637795275590551,"duration":0.1263020833333286},{"name":"F3","midi":53,"time":92.49999999999972,"velocity":0.7637795275590551,"duration":0.1263020833333286},{"name":"E3","midi":52,"time":92.62499999999972,"velocity":0.7637795275590551,"duration":0.1263020833333286},{"name":"C5","midi":72,"time":92.62499999999972,"velocity":0.7637795275590551,"duration":0.1171875},{"name":"D3","midi":50,"time":92.74999999999972,"velocity":0.7637795275590551,"duration":0.1263020833333286},{"name":"B4","midi":71,"time":92.74999999999972,"velocity":0.7637795275590551,"duration":0.1171875},{"name":"F3","midi":53,"time":92.87499999999972,"velocity":0.7637795275590551,"duration":0.1263020833333286},{"name":"D5","midi":74,"time":92.87499999999972,"velocity":0.7637795275590551,"duration":0.1171875},{"name":"E3","midi":52,"time":92.99999999999972,"velocity":0.7637795275590551,"duration":0.1263020833333286},{"name":"G4","midi":67,"time":92.99999999999972,"velocity":0.7637795275590551,"duration":0.1953125},{"name":"E2","midi":40,"time":93.12499999999972,"velocity":0.7637795275590551,"duration":0.1263020833333286},{"name":"C5","midi":72,"time":93.12499999999972,"velocity":0.7637795275590551,"duration":0.1263020833333286},{"name":"F2","midi":41,"time":93.24999999999972,"velocity":0.7637795275590551,"duration":0.1263020833333286},{"name":"B4","midi":71,"time":93.24999999999972,"velocity":0.7637795275590551,"duration":0.1263020833333286},{"name":"G2","midi":43,"time":93.37499999999972,"velocity":0.7637795275590551,"duration":0.1263020833333286},{"name":"A4","midi":69,"time":93.37499999999972,"velocity":0.7637795275590551,"duration":0.1263020833333286},{"name":"A2","midi":45,"time":93.49999999999972,"velocity":0.7637795275590551,"duration":0.1263020833333286},{"name":"G4","midi":67,"time":93.49999999999972,"velocity":0.7637795275590551,"duration":0.1263020833333286},{"name":"B2","midi":47,"time":93.62499999999972,"velocity":0.7637795275590551,"duration":0.1263020833333286},{"name":"F4","midi":65,"time":93.62499999999972,"velocity":0.7637795275590551,"duration":0.1263020833333286},{"name":"C3","midi":48,"time":93.74999999999972,"velocity":0.7637795275590551,"duration":0.1263020833333286},{"name":"E4","midi":64,"time":93.74999999999972,"velocity":0.7637795275590551,"duration":0.1263020833333286},{"name":"D3","midi":50,"time":93.87499999999972,"velocity":0.7637795275590551,"duration":0.1263020833333286},{"name":"D4","midi":62,"time":93.87499999999972,"velocity":0.7637795275590551,"duration":0.1263020833333286},{"name":"E3","midi":52,"time":93.99999999999972,"velocity":0.7637795275590551,"duration":0.1263020833333286},{"name":"C4","midi":60,"time":93.99999999999972,"velocity":0.7637795275590551,"duration":0.2083333333333286},{"name":"D3","midi":50,"time":94.12499999999972,"velocity":0.7637795275590551,"duration":0.1263020833333286},{"name":"E4","midi":64,"time":94.12499999999972,"velocity":0.7637795275590551,"duration":0.1171875},{"name":"E3","midi":52,"time":94.24999999999972,"velocity":0.7637795275590551,"duration":0.1263020833333286},{"name":"D4","midi":62,"time":94.24999999999972,"velocity":0.7637795275590551,"duration":0.1171875},{"name":"F3","midi":53,"time":94.37499999999972,"velocity":0.7637795275590551,"duration":0.1263020833333286},{"name":"C4","midi":60,"time":94.37499999999972,"velocity":0.7637795275590551,"duration":0.1171875},{"name":"G3","midi":55,"time":94.49999999999972,"velocity":0.7637795275590551,"duration":0.2513020833333286},{"name":"B3","midi":59,"time":94.49999999999972,"velocity":0.7637795275590551,"duration":0.2473958333333286},{"name":"C4","midi":60,"time":94.62499999999972,"velocity":0.7637795275590551,"duration":0.1263020833333286},{"name":"F3","midi":53,"time":94.74999999999972,"velocity":0.7637795275590551,"duration":0.1263020833333286},{"name":"D4","midi":62,"time":94.74999999999972,"velocity":0.7637795275590551,"duration":0.1263020833333286},{"name":"E3","midi":52,"time":94.87499999999972,"velocity":0.7637795275590551,"duration":0.1263020833333286},{"name":"E4","midi":64,"time":94.87499999999972,"velocity":0.7637795275590551,"duration":0.1263020833333286},{"name":"D3","midi":50,"time":94.99999999999972,"velocity":0.7637795275590551,"duration":0.1263020833333286},{"name":"F4","midi":65,"time":94.99999999999972,"velocity":0.7637795275590551,"duration":0.1263020833333286},{"name":"C3","midi":48,"time":95.12499999999972,"velocity":0.7637795275590551,"duration":0.1263020833333286},{"name":"G4","midi":67,"time":95.12499999999972,"velocity":0.7637795275590551,"duration":0.1263020833333286},{"name":"B2","midi":47,"time":95.24999999999972,"velocity":0.7637795275590551,"duration":0.1263020833333286},{"name":"A4","midi":69,"time":95.24999999999972,"velocity":0.7637795275590551,"duration":0.1263020833333286},{"name":"A2","midi":45,"time":95.37499999999972,"velocity":0.7637795275590551,"duration":0.1263020833333286},{"name":"B4","midi":71,"time":95.37499999999972,"velocity":0.7637795275590551,"duration":0.1263020833333286},{"name":"G2","midi":43,"time":95.49999999999972,"velocity":0.7637795275590551,"duration":0.1263020833333286},{"name":"C5","midi":72,"time":95.49999999999972,"velocity":0.7637795275590551,"duration":0.1263020833333286},{"name":"F2","midi":41,"time":95.62499999999972,"velocity":0.7637795275590551,"duration":0.1041666666666714},{"name":"D5","midi":74,"time":95.62499999999972,"velocity":0.7637795275590551,"duration":0.09765625},{"name":"E2","midi":40,"time":95.74999999999972,"velocity":0.7637795275590551,"duration":0.1041666666666714},{"name":"E5","midi":76,"time":95.74999999999972,"velocity":0.7637795275590551,"duration":0.09765625},{"name":"D2","midi":38,"time":95.87499999999972,"velocity":0.7637795275590551,"duration":0.10416666666665719},{"name":"F5","midi":77,"time":95.87499999999972,"velocity":0.7637795275590551,"duration":0.0911458333333286},{"name":"C2","midi":36,"time":95.9999999999997,"velocity":0.7637795275590551,"duration":0.4947916666666572},{"name":"G5","midi":79,"time":95.9999999999997,"velocity":0.7637795275590551,"duration":0.1432291666666714},{"name":"F5","midi":77,"time":96.1249999999997,"velocity":0.7637795275590551,"duration":0.1263020833333286},{"name":"E5","midi":76,"time":96.2499999999997,"velocity":0.7637795275590551,"duration":0.1263020833333286},{"name":"D5","midi":74,"time":96.3749999999997,"velocity":0.7637795275590551,"duration":0.12630208333331439},{"name":"C5","midi":72,"time":96.49999999999969,"velocity":0.7637795275590551,"duration":0.2473958333333286},{"name":"C4","midi":60,"time":96.99999999999969,"velocity":0.7637795275590551,"duration":0.15625},{"name":"G4","midi":67,"time":96.99999999999969,"velocity":0.7637795275590551,"duration":0.15625},{"name":"E4","midi":64,"time":96.99999999999969,"velocity":0.7637795275590551,"duration":0.15625},{"name":"C4","midi":60,"time":97.49999999999969,"velocity":0.7637795275590551,"duration":0.15625},{"name":"A4","midi":69,"time":97.49999999999969,"velocity":0.7637795275590551,"duration":0.15625},{"name":"F4","midi":65,"time":97.49999999999969,"velocity":0.7637795275590551,"duration":0.15625},{"name":"C4","midi":60,"time":97.99999999999969,"velocity":0.7637795275590551,"duration":0.2473958333333286},{"name":"E4","midi":64,"time":97.99999999999969,"velocity":0.7637795275590551,"duration":0.2473958333333286},{"name":"G4","midi":67,"time":97.99999999999969,"velocity":0.7637795275590551,"duration":0.2473958333333286},{"name":"G5","midi":79,"time":98.99999999999969,"velocity":0.7637795275590551,"duration":0.1263020833333286},{"name":"F5","midi":77,"time":99.12499999999969,"velocity":0.7637795275590551,"duration":0.1263020833333286},{"name":"E5","midi":76,"time":99.24999999999969,"velocity":0.7637795275590551,"duration":0.1263020833333286},{"name":"D5","midi":74,"time":99.37499999999969,"velocity":0.7637795275590551,"duration":0.1263020833333286},{"name":"C5","midi":72,"time":99.49999999999969,"velocity":0.7637795275590551,"duration":0.1263020833333286},{"name":"B4","midi":71,"time":99.62499999999969,"velocity":0.7637795275590551,"duration":0.1263020833333286},{"name":"A4","midi":69,"time":99.74999999999969,"velocity":0.7637795275590551,"duration":0.1263020833333286},{"name":"G4","midi":67,"time":99.87499999999969,"velocity":0.7637795275590551,"duration":0.1263020833333286},{"name":"F4","midi":65,"time":99.99999999999969,"velocity":0.7637795275590551,"duration":0.1263020833333286},{"name":"E4","midi":64,"time":100.12499999999969,"velocity":0.7637795275590551,"duration":0.1263020833333286},{"name":"D4","midi":62,"time":100.24999999999969,"velocity":0.7637795275590551,"duration":0.1263020833333286},{"name":"C4","midi":60,"time":100.37499999999969,"velocity":0.7637795275590551,"duration":0.1263020833333286},{"name":"G3","midi":55,"time":100.49999999999969,"velocity":0.7637795275590551,"duration":0.1171875},{"name":"C3","midi":48,"time":100.49999999999969,"velocity":0.7637795275590551,"duration":0.1171875},{"name":"B3","midi":59,"time":100.49999999999969,"velocity":0.7637795275590551,"duration":0.1171875},{"name":"F4","midi":65,"time":100.49999999999969,"velocity":0.7637795275590551,"duration":0.1171875},{"name":"D4","midi":62,"time":100.49999999999969,"velocity":0.7637795275590551,"duration":0.1171875},{"name":"C3","midi":48,"time":100.99999999999969,"velocity":0.7637795275590551,"duration":0.2473958333333286},{"name":"C2","midi":36,"time":100.99999999999969,"velocity":0.7637795275590551,"duration":0.2473958333333286},{"name":"G3","midi":55,"time":100.99999999999969,"velocity":0.7637795275590551,"duration":0.2473958333333286},{"name":"E4","midi":64,"time":100.99999999999969,"velocity":0.7637795275590551,"duration":0.2473958333333286},{"name":"C4","midi":60,"time":100.99999999999969,"velocity":0.7637795275590551,"duration":0.2473958333333286},{"name":"C3","midi":48,"time":101.99999999999969,"velocity":0.7637795275590551,"duration":0.1263020833333286},{"name":"C4","midi":60,"time":102.12499999999969,"velocity":0.7637795275590551,"duration":0.1263020833333286},{"name":"E4","midi":64,"time":102.24999999999969,"velocity":0.7637795275590551,"duration":0.1263020833333286},{"name":"C5","midi":72,"time":102.24999999999969,"velocity":0.7637795275590551,"duration":0.2513020833333286},{"name":"C4","midi":60,"time":102.37499999999969,"velocity":0.7637795275590551,"duration":0.1263020833333286},{"name":"A3","midi":57,"time":102.49999999999969,"velocity":0.7637795275590551,"duration":0.1263020833333286},{"name":"E5","midi":76,"time":102.49999999999969,"velocity":0.7637795275590551,"duration":0.2513020833333286},{"name":"C4","midi":60,"time":102.62499999999969,"velocity":0.7637795275590551,"duration":0.1263020833333286},{"name":"E4","midi":64,"time":102.74999999999969,"velocity":0.7637795275590551,"duration":0.1263020833333286},{"name":"C5","midi":72,"time":102.74999999999969,"velocity":0.7637795275590551,"duration":0.2513020833333286},{"name":"C4","midi":60,"time":102.87499999999969,"velocity":0.7637795275590551,"duration":0.1263020833333286},{"name":"F#3","midi":54,"time":102.99999999999969,"velocity":0.7637795275590551,"duration":0.1263020833333286},{"name":"A4","midi":69,"time":102.99999999999969,"velocity":0.7637795275590551,"duration":0.2513020833333286},{"name":"C4","midi":60,"time":103.12499999999969,"velocity":0.7637795275590551,"duration":0.1263020833333286},{"name":"E4","midi":64,"time":103.24999999999969,"velocity":0.7637795275590551,"duration":0.1263020833333286},{"name":"F#4","midi":66,"time":103.24999999999969,"velocity":0.7637795275590551,"duration":0.2864583333333286},{"name":"C4","midi":60,"time":103.37499999999969,"velocity":0.7637795275590551,"duration":0.1263020833333286},{"name":"B2","midi":47,"time":103.49999999999969,"velocity":0.7637795275590551,"duration":0.2513020833333286},{"name":"B4","midi":71,"time":103.62499999999969,"velocity":0.7637795275590551,"duration":0.1263020833333286},{"name":"B3","midi":59,"time":103.74999999999969,"velocity":0.7637795275590551,"duration":0.2513020833333286},{"name":"D5","midi":74,"time":103.74999999999969,"velocity":0.7637795275590551,"duration":0.1263020833333286},{"name":"B4","midi":71,"time":103.87499999999969,"velocity":0.7637795275590551,"duration":0.1263020833333286},{"name":"D4","midi":62,"time":103.99999999999969,"velocity":0.7637795275590551,"duration":0.2513020833333286},{"name":"F#4","midi":66,"time":103.99999999999969,"velocity":0.7637795275590551,"duration":0.1263020833333286},{"name":"B4","midi":71,"time":104.12499999999969,"velocity":0.7637795275590551,"duration":0.1263020833333286},{"name":"B3","midi":59,"time":104.24999999999969,"velocity":0.7637795275590551,"duration":0.2513020833333286},{"name":"D5","midi":74,"time":104.24999999999969,"velocity":0.7637795275590551,"duration":0.1263020833333286},{"name":"B4","midi":71,"time":104.37499999999969,"velocity":0.7637795275590551,"duration":0.1263020833333286},{"name":"G3","midi":55,"time":104.49999999999969,"velocity":0.7637795275590551,"duration":0.2513020833333286},{"name":"E4","midi":64,"time":104.49999999999969,"velocity":0.7637795275590551,"duration":0.1263020833333286},{"name":"B4","midi":71,"time":104.62499999999969,"velocity":0.7637795275590551,"duration":0.1263020833333286},{"name":"E3","midi":52,"time":104.74999999999969,"velocity":0.7637795275590551,"duration":0.2513020833333286},{"name":"D5","midi":74,"time":104.74999999999969,"velocity":0.7637795275590551,"duration":0.1263020833333286},{"name":"B4","midi":71,"time":104.87499999999969,"velocity":0.7637795275590551,"duration":0.1263020833333286},{"name":"A2","midi":45,"time":104.99999999999969,"velocity":0.7637795275590551,"duration":0.1263020833333286},{"name":"C5","midi":72,"time":104.99999999999969,"velocity":0.7637795275590551,"duration":0.2513020833333286},{"name":"A3","midi":57,"time":105.12499999999969,"velocity":0.7637795275590551,"duration":0.1263020833333286},{"name":"C4","midi":60,"time":105.24999999999969,"velocity":0.7637795275590551,"duration":0.1263020833333286},{"name":"A5","midi":81,"time":105.24999999999969,"velocity":0.7637795275590551,"duration":0.2395833333333286},{"name":"A3","midi":57,"time":105.37499999999969,"velocity":0.7637795275590551,"duration":0.1263020833333286},{"name":"F#3","midi":54,"time":105.49999999999969,"velocity":0.7637795275590551,"duration":0.1263020833333286},{"name":"C6","midi":84,"time":105.49999999999969,"velocity":0.7637795275590551,"duration":0.2395833333333286},{"name":"A3","midi":57,"time":105.62499999999969,"velocity":0.7637795275590551,"duration":0.1263020833333286},{"name":"C4","midi":60,"time":105.74999999999969,"velocity":0.7637795275590551,"duration":0.1263020833333286},{"name":"A5","midi":81,"time":105.74999999999969,"velocity":0.7637795275590551,"duration":0.2395833333333286},{"name":"A3","midi":57,"time":105.87499999999969,"velocity":0.7637795275590551,"duration":0.1263020833333286},{"name":"D3","midi":50,"time":105.99999999999969,"velocity":0.7637795275590551,"duration":0.1263020833333286},{"name":"F#5","midi":78,"time":105.99999999999969,"velocity":0.7637795275590551,"duration":0.2395833333333286},{"name":"A3","midi":57,"time":106.12499999999969,"velocity":0.7637795275590551,"duration":0.1263020833333286},{"name":"C4","midi":60,"time":106.24999999999969,"velocity":0.7637795275590551,"duration":0.1263020833333286},{"name":"D5","midi":74,"time":106.24999999999969,"velocity":0.7637795275590551,"duration":0.2864583333333286},{"name":"A3","midi":57,"time":106.37499999999969,"velocity":0.7637795275590551,"duration":0.1263020833333286},{"name":"G2","midi":43,"time":106.49999999999969,"velocity":0.7637795275590551,"duration":0.2513020833333286},{"name":"G5","midi":79,"time":106.62499999999969,"velocity":0.7637795275590551,"duration":0.1263020833333286},{"name":"G3","midi":55,"time":106.74999999999969,"velocity":0.7637795275590551,"duration":0.2513020833333286},{"name":"B5","midi":83,"time":106.74999999999969,"velocity":0.7637795275590551,"duration":0.1263020833333286},{"name":"G5","midi":79,"time":106.87499999999969,"velocity":0.7637795275590551,"duration":0.1263020833333286},{"name":"B3","midi":59,"time":106.99999999999969,"velocity":0.7637795275590551,"duration":0.2513020833333286},{"name":"D5","midi":74,"time":106.99999999999969,"velocity":0.7637795275590551,"duration":0.1263020833333286},{"name":"G5","midi":79,"time":107.12499999999969,"velocity":0.7637795275590551,"duration":0.1263020833333286},{"name":"G3","midi":55,"time":107.24999999999969,"velocity":0.7637795275590551,"duration":0.2513020833333286},{"name":"B5","midi":83,"time":107.24999999999969,"velocity":0.7637795275590551,"duration":0.1263020833333286},{"name":"G5","midi":79,"time":107.37499999999969,"velocity":0.7637795275590551,"duration":0.1263020833333286},{"name":"E3","midi":52,"time":107.49999999999969,"velocity":0.7637795275590551,"duration":0.2513020833333286},{"name":"C5","midi":72,"time":107.49999999999969,"velocity":0.7637795275590551,"duration":0.1263020833333286},{"name":"B5","midi":83,"time":107.62499999999969,"velocity":0.7637795275590551,"duration":0.1263020833333286},{"name":"C3","midi":48,"time":107.74999999999969,"velocity":0.7637795275590551,"duration":0.2513020833333286},{"name":"A5","midi":81,"time":107.74999999999969,"velocity":0.7637795275590551,"duration":0.1263020833333286},{"name":"G5","midi":79,"time":107.87499999999969,"velocity":0.7637795275590551,"duration":0.1263020833333286},{"name":"D3","midi":50,"time":107.99999999999969,"velocity":0.7637795275590551,"duration":0.3645833333333286},{"name":"F#5","midi":78,"time":107.99999999999969,"velocity":0.7637795275590551,"duration":0.2513020833333286},{"name":"D4","midi":62,"time":108.24999999999969,"velocity":0.7637795275590551,"duration":0.1263020833333286},{"name":"E4","midi":64,"time":108.37499999999969,"velocity":0.7637795275590551,"duration":0.1263020833333286},{"name":"D2","midi":38,"time":108.49999999999969,"velocity":0.7637795275590551,"duration":0.3645833333333286},{"name":"F#4","midi":66,"time":108.49999999999969,"velocity":0.7637795275590551,"duration":0.1263020833333286},{"name":"G4","midi":67,"time":108.62499999999969,"velocity":0.7637795275590551,"duration":0.1263020833333286},{"name":"A4","midi":69,"time":108.74999999999969,"velocity":0.7637795275590551,"duration":0.5013020833333286},{"name":"F#3","midi":54,"time":108.99999999999969,"velocity":0.7637795275590551,"duration":0.2473958333333286},{"name":"D3","midi":50,"time":108.99999999999969,"velocity":0.7637795275590551,"duration":0.2473958333333286},{"name":"C4","midi":60,"time":109.24999999999969,"velocity":0.7637795275590551,"duration":0.2864583333333286},{"name":"D3","midi":50,"time":109.49999999999969,"velocity":0.7637795275590551,"duration":0.3645833333333286},{"name":"G3","midi":55,"time":109.49999999999969,"velocity":0.7637795275590551,"duration":0.3645833333333286},{"name":"A#3","midi":58,"time":109.62499999999969,"velocity":0.7637795275590551,"duration":0.1263020833333286},{"name":"C4","midi":60,"time":109.74999999999969,"velocity":0.7637795275590551,"duration":0.1263020833333286},{"name":"D4","midi":62,"time":109.87499999999969,"velocity":0.7637795275590551,"duration":0.1263020833333286},{"name":"D2","midi":38,"time":109.99999999999969,"velocity":0.7637795275590551,"duration":0.2473958333333286},{"name":"E4","midi":64,"time":109.99999999999969,"velocity":0.7637795275590551,"duration":0.1263020833333286},{"name":"F#4","midi":66,"time":110.12499999999969,"velocity":0.7637795275590551,"duration":0.1263020833333286},{"name":"G4","midi":67,"time":110.24999999999969,"velocity":0.7637795275590551,"duration":0.1263020833333286},{"name":"A4","midi":69,"time":110.37499999999969,"velocity":0.7637795275590551,"duration":0.1263020833333286},{"name":"G3","midi":55,"time":110.49999999999969,"velocity":0.7637795275590551,"duration":0.2473958333333286},{"name":"E3","midi":52,"time":110.49999999999969,"velocity":0.7637795275590551,"duration":0.2473958333333286},{"name":"D3","midi":50,"time":110.49999999999969,"velocity":0.7637795275590551,"duration":0.2473958333333286},{"name":"C#4","midi":61,"time":110.49999999999969,"velocity":0.7637795275590551,"duration":0.2083333333333286},{"name":"A#4","midi":70,"time":110.49999999999969,"velocity":0.7637795275590551,"duration":0.1263020833333286},{"name":"A4","midi":69,"time":110.62499999999969,"velocity":0.7637795275590551,"duration":0.1263020833333286},{"name":"G4","midi":67,"time":110.74999999999969,"velocity":0.7637795275590551,"duration":0.1263020833333286},{"name":"A#4","midi":70,"time":110.87499999999969,"velocity":0.7637795275590551,"duration":0.1263020833333286},{"name":"F#3","midi":54,"time":110.99999999999969,"velocity":0.7637795275590551,"duration":0.3645833333333286},{"name":"A3","midi":57,"time":110.99999999999969,"velocity":0.7637795275590551,"duration":0.3645833333333286},{"name":"D3","midi":50,"time":110.99999999999969,"velocity":0.7637795275590551,"duration":0.3645833333333286},{"name":"D4","midi":62,"time":110.99999999999969,"velocity":0.7637795275590551,"duration":0.3645833333333286},{"name":"A4","midi":69,"time":110.99999999999969,"velocity":0.7637795275590551,"duration":0.15625},{"name":"G4","midi":67,"time":111.12499999999969,"velocity":0.7637795275590551,"duration":0.1263020833333286},{"name":"F#4","midi":66,"time":111.24999999999969,"velocity":0.7637795275590551,"duration":0.1263020833333286},{"name":"G4","midi":67,"time":111.37499999999969,"velocity":0.7637795275590551,"duration":0.1263020833333286},{"name":"D2","midi":38,"time":111.49999999999969,"velocity":0.7637795275590551,"duration":0.2473958333333286},{"name":"A4","midi":69,"time":111.49999999999969,"velocity":0.7637795275590551,"duration":0.1263020833333286},{"name":"A#4","midi":70,"time":111.62499999999969,"velocity":0.7637795275590551,"duration":0.1263020833333286},{"name":"C5","midi":72,"time":111.74999999999969,"velocity":0.7637795275590551,"duration":0.5013020833333286},{"name":"A3","midi":57,"time":111.99999999999969,"velocity":0.7637795275590551,"duration":0.2473958333333286},{"name":"F#3","midi":54,"time":111.99999999999969,"velocity":0.7637795275590551,"duration":0.2473958333333286},{"name":"D3","midi":50,"time":111.99999999999969,"velocity":0.7637795275590551,"duration":0.2473958333333286},{"name":"D#4","midi":63,"time":112.24999999999969,"velocity":0.7637795275590551,"duration":0.2864583333333286},{"name":"A#3","midi":58,"time":112.49999999999969,"velocity":0.7637795275590551,"duration":0.3645833333333286},{"name":"G3","midi":55,"time":112.49999999999969,"velocity":0.7637795275590551,"duration":0.3645833333333286},{"name":"D3","midi":50,"time":112.49999999999969,"velocity":0.7637795275590551,"duration":0.3645833333333286},{"name":"D4","midi":62,"time":112.62499999999969,"velocity":0.7637795275590551,"duration":0.1263020833333286},{"name":"E4","midi":64,"time":112.74999999999969,"velocity":0.7637795275590551,"duration":0.1263020833333286},{"name":"F#4","midi":66,"time":112.87499999999969,"velocity":0.7637795275590551,"duration":0.1263020833333286},{"name":"D2","midi":38,"time":112.99999999999969,"velocity":0.7637795275590551,"duration":0.2473958333333286},{"name":"G4","midi":67,"time":112.99999999999969,"velocity":0.7637795275590551,"duration":0.1263020833333286},{"name":"A4","midi":69,"time":113.12499999999969,"velocity":0.7637795275590551,"duration":0.1263020833333286},{"name":"A#4","midi":70,"time":113.24999999999969,"velocity":0.7637795275590551,"duration":0.1263020833333286},{"name":"C5","midi":72,"time":113.37499999999969,"velocity":0.7637795275590551,"duration":0.1263020833333286},{"name":"D3","midi":50,"time":113.49999999999969,"velocity":0.7637795275590551,"duration":0.2473958333333286},{"name":"A#3","midi":58,"time":113.49999999999969,"velocity":0.7637795275590551,"duration":0.2473958333333286},{"name":"G3","midi":55,"time":113.49999999999969,"velocity":0.7637795275590551,"duration":0.2473958333333286},{"name":"D5","midi":74,"time":113.49999999999969,"velocity":0.7637795275590551,"duration":0.1263020833333286},{"name":"C5","midi":72,"time":113.62499999999969,"velocity":0.7637795275590551,"duration":0.1263020833333286},{"name":"A#4","midi":70,"time":113.74999999999969,"velocity":0.7637795275590551,"duration":0.1263020833333286},{"name":"D5","midi":74,"time":113.87499999999969,"velocity":0.7637795275590551,"duration":0.1263020833333286},{"name":"D3","midi":50,"time":113.99999999999969,"velocity":0.7637795275590551,"duration":0.3645833333333286},{"name":"A3","midi":57,"time":113.99999999999969,"velocity":0.7637795275590551,"duration":0.3645833333333286},{"name":"F#3","midi":54,"time":113.99999999999969,"velocity":0.7637795275590551,"duration":0.3645833333333286},{"name":"C5","midi":72,"time":113.99999999999969,"velocity":0.7637795275590551,"duration":0.1263020833333286},{"name":"A#4","midi":70,"time":114.12499999999969,"velocity":0.7637795275590551,"duration":0.1263020833333286},{"name":"A4","midi":69,"time":114.24999999999969,"velocity":0.7637795275590551,"duration":0.1263020833333286},{"name":"A#4","midi":70,"time":114.37499999999969,"velocity":0.7637795275590551,"duration":0.1263020833333286},{"name":"D2","midi":38,"time":114.49999999999969,"velocity":0.7637795275590551,"duration":0.2473958333333286},{"name":"C5","midi":72,"time":114.49999999999969,"velocity":0.7637795275590551,"duration":0.1263020833333286},{"name":"D5","midi":74,"time":114.62499999999969,"velocity":0.7637795275590551,"duration":0.1263020833333286},{"name":"D#5","midi":75,"time":114.74999999999969,"velocity":0.7637795275590551,"duration":0.4427083333333286},{"name":"A#3","midi":58,"time":114.99999999999969,"velocity":0.7637795275590551,"duration":0.2473958333333286},{"name":"D3","midi":50,"time":114.99999999999969,"velocity":0.7637795275590551,"duration":0.2473958333333286},{"name":"G3","midi":55,"time":114.99999999999969,"velocity":0.7637795275590551,"duration":0.2473958333333286},{"name":"G4","midi":67,"time":115.24999999999969,"velocity":0.7637795275590551,"duration":0.2864583333333286},{"name":"D3","midi":50,"time":115.49999999999969,"velocity":0.7637795275590551,"duration":0.3645833333333286},{"name":"A3","midi":57,"time":115.49999999999969,"velocity":0.7637795275590551,"duration":0.2513020833333286},{"name":"C4","midi":60,"time":115.49999999999969,"velocity":0.7637795275590551,"duration":0.2513020833333286},{"name":"F#4","midi":66,"time":115.62499999999969,"velocity":0.7637795275590551,"duration":0.1263020833333286},{"name":"A#3","midi":58,"time":115.74999999999969,"velocity":0.7637795275590551,"duration":0.2513020833333286},{"name":"G3","midi":55,"time":115.74999999999969,"velocity":0.7637795275590551,"duration":0.2513020833333286},{"name":"E4","midi":64,"time":115.74999999999969,"velocity":0.7637795275590551,"duration":0.1263020833333286},{"name":"D4","midi":62,"time":115.87499999999969,"velocity":0.7637795275590551,"duration":0.1263020833333286},{"name":"F#3","midi":54,"time":115.99999999999969,"velocity":0.7637795275590551,"duration":0.2513020833333286},{"name":"A3","midi":57,"time":115.99999999999969,"velocity":0.7637795275590551,"duration":0.2513020833333286},{"name":"E4","midi":64,"time":115.99999999999969,"velocity":0.7637795275590551,"duration":0.1263020833333286},{"name":"F#4","midi":66,"time":116.12499999999969,"velocity":0.7637795275590551,"duration":0.1263020833333286},{"name":"G3","midi":55,"time":116.24999999999969,"velocity":0.7637795275590551,"duration":0.2083333333333286},{"name":"E3","midi":52,"time":116.24999999999969,"velocity":0.7637795275590551,"duration":0.2083333333333286},{"name":"G4","midi":67,"time":116.24999999999969,"velocity":0.7637795275590551,"duration":0.1263020833333286},{"name":"A4","midi":69,"time":116.37499999999969,"velocity":0.7637795275590551,"duration":0.1263020833333286},{"name":"F3","midi":53,"time":116.49999999999969,"velocity":0.7637795275590551,"duration":0.1822916666666572},{"name":"D3","midi":50,"time":116.49999999999969,"velocity":0.7637795275590551,"duration":0.1822916666666572},{"name":"B4","midi":71,"time":116.49999999999969,"velocity":0.7637795275590551,"duration":0.1263020833333286},{"name":"C5","midi":72,"time":116.62499999999969,"velocity":0.7637795275590551,"duration":0.12630208333331439},{"name":"C3","midi":48,"time":116.74999999999967,"velocity":0.7637795275590551,"duration":0.1692708333333286},{"name":"D#3","midi":51,"time":116.74999999999967,"velocity":0.7637795275590551,"duration":0.1692708333333286},{"name":"D5","midi":74,"time":116.74999999999967,"velocity":0.7637795275590551,"duration":0.1263020833333286},{"name":"D#5","midi":75,"time":116.87499999999967,"velocity":0.7637795275590551,"duration":0.1263020833333286},{"name":"B2","midi":47,"time":116.99999999999967,"velocity":0.7637795275590551,"duration":0.1263020833333286},{"name":"D3","midi":50,"time":116.99999999999967,"velocity":0.7637795275590551,"duration":0.1263020833333286},{"name":"F3","midi":53,"time":116.99999999999967,"velocity":0.7637795275590551,"duration":0.1263020833333286},{"name":"F5","midi":77,"time":116.99999999999967,"velocity":0.7637795275590551,"duration":0.2864583333333286},{"name":"G3","midi":55,"time":117.12499999999967,"velocity":0.7637795275590551,"duration":0.1822916666666572},{"name":"F#3","midi":54,"time":117.24999999999967,"velocity":0.7637795275590551,"duration":0.12630208333331439},{"name":"G4","midi":67,"time":117.24999999999967,"velocity":0.7637795275590551,"duration":0.24739583333331439},{"name":"G3","midi":55,"time":117.37499999999966,"velocity":0.7637795275590551,"duration":0.1822916666666714},{"name":"A3","midi":57,"time":117.49999999999966,"velocity":0.7637795275590551,"duration":0.1263020833333286},{"name":"G3","midi":55,"time":117.62499999999966,"velocity":0.7637795275590551,"duration":0.1822916666666714},{"name":"F#3","midi":54,"time":117.74999999999966,"velocity":0.7637795275590551,"duration":0.1263020833333286},{"name":"B4","midi":71,"time":117.74999999999966,"velocity":0.7637795275590551,"duration":0.2513020833333286},{"name":"G3","midi":55,"time":117.87499999999966,"velocity":0.7637795275590551,"duration":0.1263020833333286},{"name":"E3","midi":52,"time":117.99999999999966,"velocity":0.7637795275590551,"duration":0.1263020833333286},{"name":"C5","midi":72,"time":117.99999999999966,"velocity":0.7637795275590551,"duration":0.2513020833333286},{"name":"G3","midi":55,"time":118.12499999999966,"velocity":0.7637795275590551,"duration":0.1263020833333286},{"name":"E3","midi":52,"time":118.24999999999966,"velocity":0.7637795275590551,"duration":0.1263020833333286},{"name":"D5","midi":74,"time":118.24999999999966,"velocity":0.7637795275590551,"duration":0.2513020833333286},{"name":"D3","midi":50,"time":118.37499999999966,"velocity":0.7637795275590551,"duration":0.1263020833333286},{"name":"C3","midi":48,"time":118.49999999999966,"velocity":0.7637795275590551,"duration":0.1263020833333286},{"name":"E5","midi":76,"time":118.49999999999966,"velocity":0.7637795275590551,"duration":0.1263020833333286},{"name":"G3","midi":55,"time":118.62499999999966,"velocity":0.7637795275590551,"duration":0.1263020833333286},{"name":"D5","midi":74,"time":118.62499999999966,"velocity":0.7637795275590551,"duration":0.1263020833333286},{"name":"F#3","midi":54,"time":118.74999999999966,"velocity":0.7637795275590551,"duration":0.1263020833333286},{"name":"E5","midi":76,"time":118.74999999999966,"velocity":0.7637795275590551,"duration":0.2513020833333286},{"name":"G3","midi":55,"time":118.87499999999966,"velocity":0.7637795275590551,"duration":0.1263020833333286},{"name":"A3","midi":57,"time":118.99999999999966,"velocity":0.7637795275590551,"duration":0.1263020833333286},{"name":"F#4","midi":66,"time":118.99999999999966,"velocity":0.7637795275590551,"duration":0.2513020833333286},{"name":"G3","midi":55,"time":119.12499999999966,"velocity":0.7637795275590551,"duration":0.1263020833333286},{"name":"F#3","midi":54,"time":119.24999999999966,"velocity":0.7637795275590551,"duration":0.1263020833333286},{"name":"A4","midi":69,"time":119.24999999999966,"velocity":0.7637795275590551,"duration":0.2395833333333286},{"name":"G3","midi":55,"time":119.37499999999966,"velocity":0.7637795275590551,"duration":0.1263020833333286},{"name":"D3","midi":50,"time":119.49999999999966,"velocity":0.7637795275590551,"duration":0.1263020833333286},{"name":"B4","midi":71,"time":119.49999999999966,"velocity":0.7637795275590551,"duration":0.2395833333333286},{"name":"G3","midi":55,"time":119.62499999999966,"velocity":0.7637795275590551,"duration":0.1263020833333286},{"name":"D3","midi":50,"time":119.74999999999966,"velocity":0.7637795275590551,"duration":0.1263020833333286},{"name":"C5","midi":72,"time":119.74999999999966,"velocity":0.7637795275590551,"duration":0.2395833333333286},{"name":"C3","midi":48,"time":119.87499999999966,"velocity":0.7637795275590551,"duration":0.1263020833333286},{"name":"B2","midi":47,"time":119.99999999999966,"velocity":0.7637795275590551,"duration":0.2513020833333286},{"name":"D5","midi":74,"time":119.99999999999966,"velocity":0.7637795275590551,"duration":0.1263020833333286},{"name":"F#4","midi":66,"time":120.12499999999966,"velocity":0.7637795275590551,"duration":0.1263020833333286},{"name":"G3","midi":55,"time":120.24999999999966,"velocity":0.7637795275590551,"duration":0.2513020833333286},{"name":"E4","midi":64,"time":120.24999999999966,"velocity":0.7637795275590551,"duration":0.1263020833333286},{"name":"F#4","midi":66,"time":120.37499999999966,"velocity":0.7637795275590551,"duration":0.1263020833333286},{"name":"B3","midi":59,"time":120.49999999999966,"velocity":0.7637795275590551,"duration":0.2513020833333286},{"name":"G4","midi":67,"time":120.49999999999966,"velocity":0.7637795275590551,"duration":0.1263020833333286},{"name":"F#4","midi":66,"time":120.62499999999966,"velocity":0.7637795275590551,"duration":0.1263020833333286},{"name":"G3","midi":55,"time":120.74999999999966,"velocity":0.7637795275590551,"duration":0.2513020833333286},{"name":"E4","midi":64,"time":120.74999999999966,"velocity":0.7637795275590551,"duration":0.1263020833333286},{"name":"F#4","midi":66,"time":120.87499999999966,"velocity":0.7637795275590551,"duration":0.1263020833333286},{"name":"E3","midi":52,"time":120.99999999999966,"velocity":0.7637795275590551,"duration":0.2395833333333286},{"name":"G4","midi":67,"time":120.99999999999966,"velocity":0.7637795275590551,"duration":0.1263020833333286},{"name":"E4","midi":64,"time":121.12499999999966,"velocity":0.7637795275590551,"duration":0.1263020833333286},{"name":"C3","midi":48,"time":121.24999999999966,"velocity":0.7637795275590551,"duration":0.2395833333333286},{"name":"A4","midi":69,"time":121.24999999999966,"velocity":0.7637795275590551,"duration":0.1263020833333286},{"name":"B4","midi":71,"time":121.37499999999966,"velocity":0.7637795275590551,"duration":0.1263020833333286},{"name":"A2","midi":45,"time":121.49999999999966,"velocity":0.7637795275590551,"duration":0.2513020833333286},{"name":"C5","midi":72,"time":121.49999999999966,"velocity":0.7637795275590551,"duration":0.1263020833333286},{"name":"E4","midi":64,"time":121.62499999999966,"velocity":0.7637795275590551,"duration":0.1263020833333286},{"name":"F#3","midi":54,"time":121.74999999999966,"velocity":0.7637795275590551,"duration":0.2513020833333286},{"name":"D4","midi":62,"time":121.74999999999966,"velocity":0.7637795275590551,"duration":0.1263020833333286},{"name":"E4","midi":64,"time":121.87499999999966,"velocity":0.7637795275590551,"duration":0.1263020833333286},{"name":"A3","midi":57,"time":121.99999999999966,"velocity":0.7637795275590551,"duration":0.2513020833333286},{"name":"F#4","midi":66,"time":121.99999999999966,"velocity":0.7637795275590551,"duration":0.1263020833333286},{"name":"E4","midi":64,"time":122.12499999999966,"velocity":0.7637795275590551,"duration":0.1263020833333286},{"name":"F#3","midi":54,"time":122.24999999999966,"velocity":0.7637795275590551,"duration":0.2513020833333286},{"name":"D4","midi":62,"time":122.24999999999966,"velocity":0.7637795275590551,"duration":0.1263020833333286},{"name":"E4","midi":64,"time":122.37499999999966,"velocity":0.7637795275590551,"duration":0.1263020833333286},{"name":"D3","midi":50,"time":122.49999999999966,"velocity":0.7637795275590551,"duration":0.2395833333333286},{"name":"F#4","midi":66,"time":122.49999999999966,"velocity":0.7637795275590551,"duration":0.1263020833333286},{"name":"D4","midi":62,"time":122.62499999999966,"velocity":0.7637795275590551,"duration":0.1263020833333286},{"name":"B2","midi":47,"time":122.74999999999966,"velocity":0.7637795275590551,"duration":0.2395833333333286},{"name":"G4","midi":67,"time":122.74999999999966,"velocity":0.7637795275590551,"duration":0.1263020833333286},{"name":"A4","midi":69,"time":122.87499999999966,"velocity":0.7637795275590551,"duration":0.1263020833333286},{"name":"G2","midi":43,"time":122.99999999999966,"velocity":0.7637795275590551,"duration":0.2513020833333286},{"name":"B4","midi":71,"time":122.99999999999966,"velocity":0.7637795275590551,"duration":0.1263020833333286},{"name":"A4","midi":69,"time":123.12499999999966,"velocity":0.7637795275590551,"duration":0.1263020833333286},{"name":"D3","midi":50,"time":123.24999999999966,"velocity":0.7637795275590551,"duration":0.2513020833333286},{"name":"G4","midi":67,"time":123.24999999999966,"velocity":0.7637795275590551,"duration":0.1263020833333286},{"name":"F#4","midi":66,"time":123.37499999999966,"velocity":0.7637795275590551,"duration":0.1263020833333286},{"name":"B2","midi":47,"time":123.49999999999966,"velocity":0.7637795275590551,"duration":0.2395833333333286},{"name":"G4","midi":67,"time":123.49999999999966,"velocity":0.7637795275590551,"duration":0.1263020833333286},{"name":"B4","midi":71,"time":123.62499999999966,"velocity":0.7637795275590551,"duration":0.1263020833333286},{"name":"G2","midi":43,"time":123.74999999999966,"velocity":0.7637795275590551,"duration":0.2395833333333286},{"name":"D4","midi":62,"time":123.74999999999966,"velocity":0.7637795275590551,"duration":0.1263020833333286},{"name":"F#4","midi":66,"time":123.87499999999966,"velocity":0.7637795275590551,"duration":0.1263020833333286},{"name":"F#2","midi":42,"time":123.99999999999966,"velocity":0.7637795275590551,"duration":0.2513020833333286},{"name":"G4","midi":67,"time":123.99999999999966,"velocity":0.7637795275590551,"duration":0.1263020833333286},{"name":"B4","midi":71,"time":124.12499999999966,"velocity":0.7637795275590551,"duration":0.1263020833333286},{"name":"D3","midi":50,"time":124.24999999999966,"velocity":0.7637795275590551,"duration":0.2513020833333144},{"name":"D4","midi":62,"time":124.24999999999966,"velocity":0.7637795275590551,"duration":0.10416666666665719},{"name":"F#4","midi":66,"time":124.37499999999964,"velocity":0.7637795275590551,"duration":0.0846354166666714},{"name":"E2","midi":40,"time":124.49999999999964,"velocity":0.7637795275590551,"duration":0.2513020833333286},{"name":"A#4","midi":70,"time":124.49999999999964,"velocity":0.7637795275590551,"duration":0.1263020833333286},{"name":"A4","midi":69,"time":124.62499999999964,"velocity":0.7637795275590551,"duration":0.1263020833333286},{"name":"C#3","midi":49,"time":124.74999999999964,"velocity":0.7637795275590551,"duration":0.2513020833333286},{"name":"G4","midi":67,"time":124.74999999999964,"velocity":0.7637795275590551,"duration":0.1263020833333286},{"name":"F#4","midi":66,"time":124.87499999999964,"velocity":0.7637795275590551,"duration":0.1263020833333286},{"name":"A#2","midi":46,"time":124.99999999999964,"velocity":0.7637795275590551,"duration":0.2395833333333286},{"name":"G4","midi":67,"time":124.99999999999964,"velocity":0.7637795275590551,"duration":0.1263020833333286},{"name":"A#4","midi":70,"time":125.12499999999964,"velocity":0.7637795275590551,"duration":0.1263020833333286},{"name":"G2","midi":43,"time":125.24999999999964,"velocity":0.7637795275590551,"duration":0.2369791666666572},{"name":"C#4","midi":61,"time":125.24999999999964,"velocity":0.7637795275590551,"duration":0.1263020833333286},{"name":"F#4","midi":66,"time":125.37499999999964,"velocity":0.7637795275590551,"duration":0.12630208333331439},{"name":"D2","midi":38,"time":125.49999999999963,"velocity":0.7637795275590551,"duration":0.2513020833333286},{"name":"G4","midi":67,"time":125.49999999999963,"velocity":0.7637795275590551,"duration":0.1263020833333286},{"name":"A#4","midi":70,"time":125.62499999999963,"velocity":0.7637795275590551,"duration":0.1263020833333286},{"name":"D3","midi":50,"time":125.74999999999963,"velocity":0.7637795275590551,"duration":0.2513020833333144},{"name":"D4","midi":62,"time":125.74999999999963,"velocity":0.7637795275590551,"duration":0.10416666666665719},{"name":"F#4","midi":66,"time":125.87499999999962,"velocity":0.7637795275590551,"duration":0.09765625},{"name":"C#2","midi":37,"time":125.99999999999962,"velocity":0.7637795275590551,"duration":0.2513020833333286},{"name":"A#4","midi":70,"time":125.99999999999962,"velocity":0.7637795275590551,"duration":0.1263020833333286},{"name":"A4","midi":69,"time":126.12499999999962,"velocity":0.7637795275590551,"duration":0.1263020833333286},{"name":"E3","midi":52,"time":126.24999999999962,"velocity":0.7637795275590551,"duration":0.2513020833333286},{"name":"G4","midi":67,"time":126.24999999999962,"velocity":0.7637795275590551,"duration":0.1263020833333286},{"name":"F#4","midi":66,"time":126.37499999999962,"velocity":0.7637795275590551,"duration":0.1263020833333286},{"name":"A#2","midi":46,"time":126.49999999999962,"velocity":0.7637795275590551,"duration":0.2395833333333286},{"name":"G4","midi":67,"time":126.49999999999962,"velocity":0.7637795275590551,"duration":0.1263020833333286},{"name":"A#4","midi":70,"time":126.62499999999962,"velocity":0.7637795275590551,"duration":0.1263020833333286},{"name":"G2","midi":43,"time":126.74999999999962,"velocity":0.7637795275590551,"duration":0.2395833333333286},{"name":"C#4","midi":61,"time":126.74999999999962,"velocity":0.7637795275590551,"duration":0.1263020833333286},{"name":"F#4","midi":66,"time":126.87499999999962,"velocity":0.7637795275590551,"duration":0.1263020833333286},{"name":"C#2","midi":37,"time":126.99999999999962,"velocity":0.7637795275590551,"duration":0.2513020833333286},{"name":"G4","midi":67,"time":126.99999999999962,"velocity":0.7637795275590551,"duration":0.1263020833333286},{"name":"A#4","midi":70,"time":127.12499999999962,"velocity":0.7637795275590551,"duration":0.1263020833333286},{"name":"E3","midi":52,"time":127.24999999999962,"velocity":0.7637795275590551,"duration":0.2513020833333286},{"name":"A4","midi":69,"time":127.24999999999962,"velocity":0.7637795275590551,"duration":0.10416666666665719},{"name":"G4","midi":67,"time":127.3749999999996,"velocity":0.7637795275590551,"duration":0.1041666666666714},{"name":"A4","midi":69,"time":127.56249999999962,"velocity":0.7637795275590551,"duration":0.8333333333333286},{"name":"D5","midi":74,"time":127.56249999999962,"velocity":0.7637795275590551,"duration":0.8333333333333286},{"name":"F#5","midi":78,"time":127.56249999999962,"velocity":0.7637795275590551,"duration":0.8333333333333286},{"name":"C2","midi":36,"time":127.56249999999962,"velocity":0.7637795275590551,"duration":0.8333333333333286},{"name":"F#5","midi":78,"time":128.7499999999996,"velocity":0.7637795275590551,"duration":0.1263020833333428},{"name":"G5","midi":79,"time":128.8749999999996,"velocity":0.7637795275590551,"duration":0.1263020833333428},{"name":"A5","midi":81,"time":128.9999999999996,"velocity":0.7637795275590551,"duration":0.1263020833333428},{"name":"G5","midi":79,"time":129.1249999999996,"velocity":0.7637795275590551,"duration":0.1263020833333428},{"name":"F#5","midi":78,"time":129.2499999999996,"velocity":0.7637795275590551,"duration":0.1263020833333428},{"name":"E5","midi":76,"time":129.3749999999996,"velocity":0.7637795275590551,"duration":0.1263020833333428},{"name":"D5","midi":74,"time":129.4999999999996,"velocity":0.7637795275590551,"duration":0.1822916666666572},{"name":"D6","midi":86,"time":129.6249999999996,"velocity":0.7637795275590551,"duration":0.2513020833333428},{"name":"B2","midi":47,"time":129.7499999999996,"velocity":0.7637795275590551,"duration":0.1263020833333428},{"name":"C3","midi":48,"time":129.8749999999996,"velocity":0.7637795275590551,"duration":0.1263020833333428},{"name":"F#5","midi":78,"time":129.8749999999996,"velocity":0.7637795275590551,"duration":0.2513020833333428},{"name":"D3","midi":50,"time":129.9999999999996,"velocity":0.7637795275590551,"duration":0.1263020833333428},{"name":"C3","midi":48,"time":130.1249999999996,"velocity":0.7637795275590551,"duration":0.1263020833333428},{"name":"G5","midi":79,"time":130.1249999999996,"velocity":0.7637795275590551,"duration":0.2513020833333428},{"name":"B2","midi":47,"time":130.2499999999996,"velocity":0.7637795275590551,"duration":0.1263020833333428},{"name":"A2","midi":45,"time":130.3749999999996,"velocity":0.7637795275590551,"duration":0.1263020833333428},{"name":"B4","midi":71,"time":130.3749999999996,"velocity":0.7637795275590551,"duration":0.2513020833333428},{"name":"G2","midi":43,"time":130.4999999999996,"velocity":0.7637795275590551,"duration":0.1263020833333428},{"name":"D3","midi":50,"time":130.6249999999996,"velocity":0.7637795275590551,"duration":0.2083333333333428},{"name":"A4","midi":69,"time":130.6249999999996,"velocity":0.7637795275590551,"duration":0.2083333333333428},{"name":"D2","midi":38,"time":130.8749999999996,"velocity":0.7637795275590551,"duration":0.2083333333333428},{"name":"F#5","midi":78,"time":130.8749999999996,"velocity":0.7637795275590551,"duration":0.2083333333333428},{"name":"G2","midi":43,"time":131.1249999999996,"velocity":0.7637795275590551,"duration":0.2513020833333428},{"name":"G4","midi":67,"time":131.1249999999996,"velocity":0.7637795275590551,"duration":0.1263020833333428},{"name":"G5","midi":79,"time":131.2499999999996,"velocity":0.7637795275590551,"duration":0.1263020833333428},{"name":"G3","midi":55,"time":131.3749999999996,"velocity":0.7637795275590551,"duration":0.2473958333333428},{"name":"F#5","midi":78,"time":131.3749999999996,"velocity":0.7637795275590551,"duration":0.1263020833333428},{"name":"G5","midi":79,"time":131.4999999999996,"velocity":0.7637795275590551,"duration":0.1263020833333428},{"name":"E5","midi":76,"time":131.6249999999996,"velocity":0.7637795275590551,"duration":0.1263020833333428},{"name":"G5","midi":79,"time":131.7499999999996,"velocity":0.7637795275590551,"duration":0.1263020833333428},{"name":"B3","midi":59,"time":131.8749999999996,"velocity":0.7637795275590551,"duration":0.2513020833333428},{"name":"D5","midi":74,"time":131.8749999999996,"velocity":0.7637795275590551,"duration":0.1171875},{"name":"G5","midi":79,"time":131.9999999999996,"velocity":0.7637795275590551,"duration":0.1263020833333428},{"name":"E3","midi":52,"time":132.1249999999996,"velocity":0.7637795275590551,"duration":0.2513020833333428},{"name":"C5","midi":72,"time":132.1249999999996,"velocity":0.7637795275590551,"duration":0.1171875},{"name":"G5","midi":79,"time":132.2499999999996,"velocity":0.7637795275590551,"duration":0.1263020833333428},{"name":"G3","midi":55,"time":132.3749999999996,"velocity":0.7637795275590551,"duration":0.2513020833333428},{"name":"B4","midi":71,"time":132.3749999999996,"velocity":0.7637795275590551,"duration":0.1171875},{"name":"G5","midi":79,"time":132.4999999999996,"velocity":0.7637795275590551,"duration":0.1263020833333428},{"name":"G2","midi":43,"time":132.6249999999996,"velocity":0.7637795275590551,"duration":0.2513020833333428},{"name":"A4","midi":69,"time":132.6249999999996,"velocity":0.7637795275590551,"duration":0.1263020833333428},{"name":"F#5","midi":78,"time":132.7499999999996,"velocity":0.7637795275590551,"duration":0.1263020833333428},{"name":"C4","midi":60,"time":132.8749999999996,"velocity":0.7637795275590551,"duration":0.2473958333333428},{"name":"E5","midi":76,"time":132.8749999999996,"velocity":0.7637795275590551,"duration":0.1263020833333428},{"name":"F#5","midi":78,"time":132.9999999999996,"velocity":0.7637795275590551,"duration":0.1263020833333428},{"name":"D5","midi":74,"time":133.1249999999996,"velocity":0.7637795275590551,"duration":0.1263020833333428},{"name":"F#5","midi":78,"time":133.2499999999996,"velocity":0.7637795275590551,"duration":0.1263020833333428},{"name":"A3","midi":57,"time":133.3749999999996,"velocity":0.7637795275590551,"duration":0.2513020833333428},{"name":"C5","midi":72,"time":133.3749999999996,"velocity":0.7637795275590551,"duration":0.1171875},{"name":"F#5","midi":78,"time":133.4999999999996,"velocity":0.7637795275590551,"duration":0.1263020833333428},{"name":"D3","midi":50,"time":133.6249999999996,"velocity":0.7637795275590551,"duration":0.2513020833333428},{"name":"B4","midi":71,"time":133.6249999999996,"velocity":0.7637795275590551,"duration":0.1171875},{"name":"F#5","midi":78,"time":133.7499999999996,"velocity":0.7637795275590551,"duration":0.1263020833333428},{"name":"F#3","midi":54,"time":133.8749999999996,"velocity":0.7637795275590551,"duration":0.2513020833333428},{"name":"A4","midi":69,"time":133.8749999999996,"velocity":0.7637795275590551,"duration":0.1171875},{"name":"C5","midi":72,"time":133.9999999999996,"velocity":0.7637795275590551,"duration":0.1263020833333428},{"name":"G2","midi":43,"time":134.1249999999996,"velocity":0.7637795275590551,"duration":0.1263020833333428},{"name":"F5","midi":77,"time":134.1249999999996,"velocity":0.7637795275590551,"duration":0.1263020833333428},{"name":"B3","midi":59,"time":134.2499999999996,"velocity":0.7637795275590551,"duration":0.1263020833333428},{"name":"G4","midi":67,"time":134.2499999999996,"velocity":0.7637795275590551,"duration":0.1263020833333428},{"name":"A3","midi":57,"time":134.3749999999996,"velocity":0.7637795275590551,"duration":0.1263020833333428},{"name":"F#4","midi":66,"time":134.3749999999996,"velocity":0.7637795275590551,"duration":0.1263020833333428},{"name":"B3","midi":59,"time":134.4999999999996,"velocity":0.7637795275590551,"duration":0.1263020833333428},{"name":"G4","midi":67,"time":134.4999999999996,"velocity":0.7637795275590551,"duration":0.1263020833333428},{"name":"G3","midi":55,"time":134.6249999999996,"velocity":0.7637795275590551,"duration":0.1263020833333428},{"name":"A4","midi":69,"time":134.6249999999996,"velocity":0.7637795275590551,"duration":0.1263020833333428},{"name":"B3","midi":59,"time":134.7499999999996,"velocity":0.7637795275590551,"duration":0.1263020833333428},{"name":"G4","midi":67,"time":134.7499999999996,"velocity":0.7637795275590551,"duration":0.1263020833333428},{"name":"F3","midi":53,"time":134.8749999999996,"velocity":0.7637795275590551,"duration":0.1263020833333428},{"name":"B4","midi":71,"time":134.8749999999996,"velocity":0.7637795275590551,"duration":0.1171875},{"name":"B3","midi":59,"time":134.9999999999996,"velocity":0.7637795275590551,"duration":0.1263020833333428},{"name":"G4","midi":67,"time":134.9999999999996,"velocity":0.7637795275590551,"duration":0.1263020833333428},{"name":"E3","midi":52,"time":135.1249999999996,"velocity":0.7637795275590551,"duration":0.1263020833333428},{"name":"C5","midi":72,"time":135.1249999999996,"velocity":0.7637795275590551,"duration":0.1171875},{"name":"B3","midi":59,"time":135.2499999999996,"velocity":0.7637795275590551,"duration":0.1263020833333428},{"name":"G4","midi":67,"time":135.2499999999996,"velocity":0.7637795275590551,"duration":0.1263020833333428},{"name":"D3","midi":50,"time":135.3749999999996,"velocity":0.7637795275590551,"duration":0.1263020833333428},{"name":"D5","midi":74,"time":135.3749999999996,"velocity":0.7637795275590551,"duration":0.1171875},{"name":"B3","midi":59,"time":135.4999999999996,"velocity":0.7637795275590551,"duration":0.1263020833333428},{"name":"G4","midi":67,"time":135.4999999999996,"velocity":0.7637795275590551,"duration":0.1263020833333428},{"name":"C3","midi":48,"time":135.6249999999996,"velocity":0.7637795275590551,"duration":0.1263020833333428},{"name":"E5","midi":76,"time":135.6249999999996,"velocity":0.7637795275590551,"duration":0.1263020833333428},{"name":"A3","midi":57,"time":135.7499999999996,"velocity":0.7637795275590551,"duration":0.1263020833333428},{"name":"F#4","midi":66,"time":135.7499999999996,"velocity":0.7637795275590551,"duration":0.1263020833333428},{"name":"G3","midi":55,"time":135.8749999999996,"velocity":0.7637795275590551,"duration":0.1263020833333428},{"name":"E4","midi":64,"time":135.8749999999996,"velocity":0.7637795275590551,"duration":0.1263020833333428},{"name":"A3","midi":57,"time":135.9999999999996,"velocity":0.7637795275590551,"duration":0.1263020833333428},{"name":"F#4","midi":66,"time":135.9999999999996,"velocity":0.7637795275590551,"duration":0.1263020833333428},{"name":"F#3","midi":54,"time":136.1249999999996,"velocity":0.7637795275590551,"duration":0.1263020833333428},{"name":"G4","midi":67,"time":136.1249999999996,"velocity":0.7637795275590551,"duration":0.1263020833333428},{"name":"A3","midi":57,"time":136.2499999999996,"velocity":0.7637795275590551,"duration":0.1263020833333428},{"name":"F#4","midi":66,"time":136.2499999999996,"velocity":0.7637795275590551,"duration":0.1263020833333428},{"name":"E3","midi":52,"time":136.3749999999996,"velocity":0.7637795275590551,"duration":0.1263020833333428},{"name":"A4","midi":69,"time":136.3749999999996,"velocity":0.7637795275590551,"duration":0.1171875},{"name":"A3","midi":57,"time":136.4999999999996,"velocity":0.7637795275590551,"duration":0.1263020833333428},{"name":"F#4","midi":66,"time":136.4999999999996,"velocity":0.7637795275590551,"duration":0.1263020833333428},{"name":"D3","midi":50,"time":136.6249999999996,"velocity":0.7637795275590551,"duration":0.1263020833333428},{"name":"B4","midi":71,"time":136.6249999999996,"velocity":0.7637795275590551,"duration":0.1171875},{"name":"A3","midi":57,"time":136.7499999999996,"velocity":0.7637795275590551,"duration":0.1263020833333428},{"name":"F#4","midi":66,"time":136.7499999999996,"velocity":0.7637795275590551,"duration":0.1263020833333428},{"name":"C3","midi":48,"time":136.8749999999996,"velocity":0.7637795275590551,"duration":0.1263020833333428},{"name":"C5","midi":72,"time":136.8749999999996,"velocity":0.7637795275590551,"duration":0.1171875},{"name":"A3","midi":57,"time":136.9999999999996,"velocity":0.7637795275590551,"duration":0.1263020833333428},{"name":"F#4","midi":66,"time":136.9999999999996,"velocity":0.7637795275590551,"duration":0.1263020833333428},{"name":"B2","midi":47,"time":137.1249999999996,"velocity":0.7637795275590551,"duration":0.1263020833333428},{"name":"D5","midi":74,"time":137.1249999999996,"velocity":0.7637795275590551,"duration":0.1263020833333428},{"name":"G3","midi":55,"time":137.2499999999996,"velocity":0.7637795275590551,"duration":0.1263020833333428},{"name":"E4","midi":64,"time":137.2499999999996,"velocity":0.7637795275590551,"duration":0.1263020833333428},{"name":"F#3","midi":54,"time":137.3749999999996,"velocity":0.7637795275590551,"duration":0.1263020833333428},{"name":"D4","midi":62,"time":137.3749999999996,"velocity":0.7637795275590551,"duration":0.1263020833333428},{"name":"G3","midi":55,"time":137.4999999999996,"velocity":0.7637795275590551,"duration":0.1263020833333428},{"name":"E4","midi":64,"time":137.4999999999996,"velocity":0.7637795275590551,"duration":0.1263020833333428},{"name":"E3","midi":52,"time":137.6249999999996,"velocity":0.7637795275590551,"duration":0.1263020833333428},{"name":"F#4","midi":66,"time":137.6249999999996,"velocity":0.7637795275590551,"duration":0.1263020833333428},{"name":"G3","midi":55,"time":137.7499999999996,"velocity":0.7637795275590551,"duration":0.1263020833333428},{"name":"E4","midi":64,"time":137.7499999999996,"velocity":0.7637795275590551,"duration":0.1263020833333428},{"name":"D3","midi":50,"time":137.8749999999996,"velocity":0.7637795275590551,"duration":0.1263020833333428},{"name":"G4","midi":67,"time":137.8749999999996,"velocity":0.7637795275590551,"duration":0.1171875},{"name":"G3","midi":55,"time":137.9999999999996,"velocity":0.7637795275590551,"duration":0.1263020833333428},{"name":"E4","midi":64,"time":137.9999999999996,"velocity":0.7637795275590551,"duration":0.1263020833333428},{"name":"C3","midi":48,"time":138.1249999999996,"velocity":0.7637795275590551,"duration":0.1263020833333428},{"name":"A4","midi":69,"time":138.1249999999996,"velocity":0.7637795275590551,"duration":0.1171875},{"name":"G3","midi":55,"time":138.2499999999996,"velocity":0.7637795275590551,"duration":0.1263020833333428},{"name":"E4","midi":64,"time":138.2499999999996,"velocity":0.7637795275590551,"duration":0.1263020833333428},{"name":"B2","midi":47,"time":138.3749999999996,"velocity":0.7637795275590551,"duration":0.1263020833333428},{"name":"B4","midi":71,"time":138.3749999999996,"velocity":0.7637795275590551,"duration":0.1171875},{"name":"G3","midi":55,"time":138.4999999999996,"velocity":0.7637795275590551,"duration":0.1263020833333428},{"name":"E4","midi":64,"time":138.4999999999996,"velocity":0.7637795275590551,"duration":0.1263020833333428},{"name":"A2","midi":45,"time":138.6249999999996,"velocity":0.7637795275590551,"duration":0.1263020833333428},{"name":"C5","midi":72,"time":138.6249999999996,"velocity":0.7637795275590551,"duration":0.6263020833333428},{"name":"C3","midi":48,"time":138.7499999999996,"velocity":0.7637795275590551,"duration":0.1263020833333428},{"name":"E3","midi":52,"time":138.8749999999996,"velocity":0.7637795275590551,"duration":0.1263020833333428},{"name":"G3","midi":55,"time":138.9999999999996,"velocity":0.7637795275590551,"duration":0.1263020833333428},{"name":"F#3","midi":54,"time":139.1249999999996,"velocity":0.7637795275590551,"duration":0.2513020833333428},{"name":"D4","midi":62,"time":139.2499999999996,"velocity":0.7637795275590551,"duration":0.1263020833333428},{"name":"D3","midi":50,"time":139.3749999999996,"velocity":0.7637795275590551,"duration":0.2513020833333428},{"name":"A4","midi":69,"time":139.3749999999996,"velocity":0.7637795275590551,"duration":0.1263020833333428},{"name":"C5","midi":72,"time":139.4999999999996,"velocity":0.7637795275590551,"duration":0.1263020833333428},{"name":"G3","midi":55,"time":139.6249999999996,"velocity":0.7637795275590551,"duration":0.2513020833333428},{"name":"B4","midi":71,"time":139.6249999999996,"velocity":0.7637795275590551,"duration":0.1263020833333428},{"name":"A4","midi":69,"time":139.7499999999996,"velocity":0.7637795275590551,"duration":0.1263020833333428},{"name":"B2","midi":47,"time":139.8749999999996,"velocity":0.7637795275590551,"duration":0.2513020833333428},{"name":"G4","midi":67,"time":139.8749999999996,"velocity":0.7637795275590551,"duration":0.1263020833333428},{"name":"F#4","midi":66,"time":139.9999999999996,"velocity":0.7637795275590551,"duration":0.1263020833333428},{"name":"C3","midi":48,"time":140.1249999999996,"velocity":0.7637795275590551,"duration":0.2513020833333428},{"name":"E4","midi":64,"time":140.1249999999996,"velocity":0.7637795275590551,"duration":0.1263020833333428},{"name":"D4","midi":62,"time":140.2499999999996,"velocity":0.7637795275590551,"duration":0.1263020833333428},{"name":"A2","midi":45,"time":140.3749999999996,"velocity":0.7637795275590551,"duration":0.2513020833333428},{"name":"C4","midi":60,"time":140.3749999999996,"velocity":0.7637795275590551,"duration":0.1263020833333428},{"name":"B3","midi":59,"time":140.4999999999996,"velocity":0.7637795275590551,"duration":0.1263020833333428},{"name":"A3","midi":57,"time":140.6249999999996,"velocity":0.7637795275590551,"duration":0.1263020833333428},{"name":"D3","midi":50,"time":140.6249999999996,"velocity":0.7637795275590551,"duration":0.3645833333333428},{"name":"G3","midi":55,"time":140.7499999999996,"velocity":0.7637795275590551,"duration":0.1263020833333428},{"name":"F#3","midi":54,"time":140.8749999999996,"velocity":0.7637795275590551,"duration":0.1263020833333428},{"name":"E3","midi":52,"time":140.9999999999996,"velocity":0.7637795275590551,"duration":0.1263020833333428},{"name":"D2","midi":38,"time":141.1249999999996,"velocity":0.7637795275590551,"duration":0.3645833333333428},{"name":"D3","midi":50,"time":141.1249999999996,"velocity":0.7637795275590551,"duration":0.1263020833333428},{"name":"C3","midi":48,"time":141.2499999999996,"velocity":0.7637795275590551,"duration":0.1263020833333428},{"name":"B2","midi":47,"time":141.3749999999996,"velocity":0.7637795275590551,"duration":0.1263020833333428},{"name":"A2","midi":45,"time":141.4999999999996,"velocity":0.7637795275590551,"duration":0.1263020833333428},{"name":"G2","midi":43,"time":141.6249999999996,"velocity":0.7637795275590551,"duration":1.5},{"name":"G1","midi":31,"time":141.6249999999996,"velocity":0.7637795275590551,"duration":1.5},{"name":"G5","midi":79,"time":146.89322916666626,"velocity":0.7637795275590551,"duration":0.09114583333334281},{"name":"G3","midi":55,"time":146.9999999999996,"velocity":0.7637795275590551,"duration":0.7486979166666856},{"name":"G5","midi":79,"time":146.9999999999996,"velocity":0.7637795275590551,"duration":0.375},{"name":"D5","midi":74,"time":146.9999999999996,"velocity":0.7637795275590551,"duration":0.33203125},{"name":"B4","midi":71,"time":146.9999999999996,"velocity":0.7637795275590551,"duration":0.33203125},{"name":"G2","midi":43,"time":147.2499999999996,"velocity":0.7637795275590551,"duration":0.2486979166666572},{"name":"F#5","midi":78,"time":147.3749999999996,"velocity":0.7637795275590551,"duration":0.0625},{"name":"E5","midi":76,"time":147.4374999999996,"velocity":0.7637795275590551,"duration":0.0625},{"name":"B2","midi":47,"time":147.4999999999996,"velocity":0.7637795275590551,"duration":0.24869791666668561},{"name":"D5","midi":74,"time":147.4999999999996,"velocity":0.7637795275590551,"duration":0.08203125},{"name":"C5","midi":72,"time":147.58333333333294,"velocity":0.7637795275590551,"duration":0.08203125},{"name":"B4","midi":71,"time":147.6666666666663,"velocity":0.7637795275590551,"duration":0.08203125},{"name":"D3","midi":50,"time":147.74999999999963,"velocity":0.7637795275590551,"duration":0.24869791666668561},{"name":"F#3","midi":54,"time":147.74999999999963,"velocity":0.7637795275590551,"duration":0.24869791666668561},{"name":"C5","midi":72,"time":147.74999999999963,"velocity":0.7637795275590551,"duration":0.08203125},{"name":"B4","midi":71,"time":147.83333333333297,"velocity":0.7637795275590551,"duration":0.08203125},{"name":"A4","midi":69,"time":147.91666666666632,"velocity":0.7637795275590551,"duration":0.08203125},{"name":"G3","midi":55,"time":147.99999999999966,"velocity":0.7637795275590551,"duration":0.3515625000000284},{"name":"B4","midi":71,"time":147.99999999999966,"velocity":0.7637795275590551,"duration":0.08203125},{"name":"G4","midi":67,"time":148.083333333333,"velocity":0.7637795275590551,"duration":0.08203125},{"name":"A4","midi":69,"time":148.16666666666634,"velocity":0.7637795275590551,"duration":0.08203125},{"name":"B4","midi":71,"time":148.2499999999997,"velocity":0.7637795275590551,"duration":0.09375},{"name":"A4","midi":69,"time":148.35677083333303,"velocity":0.7637795275590551,"duration":0.07291666666665719},{"name":"F#3","midi":54,"time":148.3593749999997,"velocity":0.7637795275590551,"duration":0.07291666666665719},{"name":"G4","midi":67,"time":148.42838541666634,"velocity":0.7637795275590551,"duration":0.07291666666668561},{"name":"E3","midi":52,"time":148.4296874999997,"velocity":0.7637795275590551,"duration":0.06510416666665719},{"name":"D3","midi":50,"time":148.4999999999997,"velocity":0.7637795275590551,"duration":0.08203125},{"name":"D5","midi":74,"time":148.4999999999997,"velocity":0.7637795275590551,"duration":0.41536458333337123},{"name":"C3","midi":48,"time":148.58333333333303,"velocity":0.7637795275590551,"duration":0.08203125},{"name":"B2","midi":47,"time":148.66666666666637,"velocity":0.7637795275590551,"duration":0.08203125},{"name":"C3","midi":48,"time":148.74999999999972,"velocity":0.7637795275590551,"duration":0.08203125},{"name":"B2","midi":47,"time":148.83333333333306,"velocity":0.7637795275590551,"duration":0.08203125},{"name":"D5","midi":74,"time":148.91406249999972,"velocity":0.7637795275590551,"duration":0.028645833333342807},{"name":"A2","midi":45,"time":148.9166666666664,"velocity":0.7637795275590551,"duration":0.08203125},{"name":"C5","midi":72,"time":148.94270833333306,"velocity":0.7637795275590551,"duration":0.029947916666685614},{"name":"D5","midi":74,"time":148.9713541666664,"velocity":0.7637795275590551,"duration":0.02734375},{"name":"B2","midi":47,"time":148.99999999999974,"velocity":0.7637795275590551,"duration":0.24869791666668561},{"name":"G5","midi":79,"time":148.99999999999974,"velocity":0.7637795275590551,"duration":0.08203125},{"name":"A5","midi":81,"time":149.0833333333331,"velocity":0.7637795275590551,"duration":0.08203125},{"name":"B5","midi":83,"time":149.16666666666643,"velocity":0.7637795275590551,"duration":0.08203125},{"name":"G2","midi":43,"time":149.24999999999977,"velocity":0.7637795275590551,"duration":0.24869791666668561},{"name":"D5","midi":74,"time":149.24999999999977,"velocity":0.7637795275590551,"duration":0.08203125},{"name":"E5","midi":76,"time":149.33333333333312,"velocity":0.7637795275590551,"duration":0.08203125},{"name":"F5","midi":77,"time":149.41666666666646,"velocity":0.7637795275590551,"duration":0.08203125},{"name":"C3","midi":48,"time":149.4999999999998,"velocity":0.7637795275590551,"duration":0.24869791666668561},{"name":"E5","midi":76,"time":149.4999999999998,"velocity":0.7637795275590551,"duration":0.08203125},{"name":"A5","midi":81,"time":149.58333333333314,"velocity":0.7637795275590551,"duration":0.08203125},{"name":"B5","midi":83,"time":149.6666666666665,"velocity":0.7637795275590551,"duration":0.08203125},{"name":"A2","midi":45,"time":149.74999999999983,"velocity":0.7637795275590551,"duration":0.24869791666668561},{"name":"C6","midi":84,"time":149.74999999999983,"velocity":0.7637795275590551,"duration":0.08203125},{"name":"B5","midi":83,"time":149.83333333333317,"velocity":0.7637795275590551,"duration":0.08203125},{"name":"A5","midi":81,"time":149.91666666666652,"velocity":0.7637795275590551,"duration":0.08203125},{"name":"D3","midi":50,"time":149.99999999999986,"velocity":0.7637795275590551,"duration":0.08203125},{"name":"G5","midi":79,"time":149.99999999999986,"velocity":0.7637795275590551,"duration":0.29036458333337123},{"name":"A3","midi":57,"time":150.0833333333332,"velocity":0.7637795275590551,"duration":0.08203125},{"name":"B3","midi":59,"time":150.16666666666654,"velocity":0.7637795275590551,"duration":0.08203125},{"name":"C4","midi":60,"time":150.2499999999999,"velocity":0.7637795275590551,"duration":0.08203125000002842},{"name":"F#5","midi":78,"time":150.29166666666657,"velocity":0.7637795275590551,"duration":0.04687500000002842},{"name":"B3","midi":59,"time":150.33333333333326,"velocity":0.7637795275590551,"duration":0.08203125000002842},{"name":"G5","midi":79,"time":150.33333333333326,"velocity":0.7637795275590551,"duration":0.04687500000002842},{"name":"F#5","midi":78,"time":150.37499999999994,"velocity":0.7637795275590551,"duration":0.04687500000002842},{"name":"A3","midi":57,"time":150.41666666666663,"velocity":0.7637795275590551,"duration":0.08203125},{"name":"G5","midi":79,"time":150.41666666666663,"velocity":0.7637795275590551,"duration":0.08203125},{"name":"G3","midi":55,"time":150.49999999999997,"velocity":0.7637795275590551,"duration":0.08203125},{"name":"G5","midi":79,"time":150.49999999999997,"velocity":0.7637795275590551,"duration":0.24869791666668561},{"name":"F#3","midi":54,"time":150.58333333333331,"velocity":0.7637795275590551,"duration":0.08203125},{"name":"G3","midi":55,"time":150.66666666666666,"velocity":0.7637795275590551,"duration":0.08203125},{"name":"A3","midi":57,"time":150.75,"velocity":0.7637795275590551,"duration":0.08203125},{"name":"A5","midi":81,"time":150.75,"velocity":0.7637795275590551,"duration":0.2473958333333428},{"name":"G3","midi":55,"time":150.83333333333334,"velocity":0.7637795275590551,"duration":0.08203125},{"name":"F#3","midi":54,"time":150.91666666666669,"velocity":0.7637795275590551,"duration":0.08203125},{"name":"E4","midi":64,"time":151.00000000000003,"velocity":0.7637795275590551,"duration":0.24869791666668561},{"name":"C5","midi":72,"time":151.08333333333337,"velocity":0.7637795275590551,"duration":0.08203125},{"name":"B4","midi":71,"time":151.1666666666667,"velocity":0.7637795275590551,"duration":0.08203125},{"name":"D#4","midi":63,"time":151.25000000000006,"velocity":0.7637795275590551,"duration":0.3320312500000284},{"name":"C5","midi":72,"time":151.25000000000006,"velocity":0.7637795275590551,"duration":0.08203125},{"name":"B4","midi":71,"time":151.3333333333334,"velocity":0.7637795275590551,"duration":0.08203125},{"name":"A4","midi":69,"time":151.41666666666674,"velocity":0.7637795275590551,"duration":0.08203125},{"name":"B4","midi":71,"time":151.50000000000009,"velocity":0.7637795275590551,"duration":0.24869791666668561},{"name":"D#4","midi":63,"time":151.58333333333343,"velocity":0.7637795275590551,"duration":0.08203125},{"name":"C#4","midi":61,"time":151.66666666666677,"velocity":0.7637795275590551,"duration":0.08203125},{"name":"D#4","midi":63,"time":151.7500000000001,"velocity":0.7637795275590551,"duration":0.08203125},{"name":"A5","midi":81,"time":151.7500000000001,"velocity":0.7637795275590551,"duration":0.2994791666666856},{"name":"C#4","midi":61,"time":151.83333333333346,"velocity":0.7637795275590551,"duration":0.08203125},{"name":"B3","midi":59,"time":151.9166666666668,"velocity":0.7637795275590551,"duration":0.08203125},{"name":"E4","midi":64,"time":152.00000000000014,"velocity":0.7637795275590551,"duration":0.2486979166666572},{"name":"G5","midi":79,"time":152.08333333333346,"velocity":0.7637795275590551,"duration":0.08203125},{"name":"A5","midi":81,"time":152.1666666666668,"velocity":0.7637795275590551,"duration":0.08203125},{"name":"E3","midi":52,"time":152.25000000000014,"velocity":0.7637795275590551,"duration":0.24869791666668561},{"name":"B5","midi":83,"time":152.25000000000014,"velocity":0.7637795275590551,"duration":0.08203125},{"name":"A5","midi":81,"time":152.33333333333348,"velocity":0.7637795275590551,"duration":0.08203125},{"name":"G5","midi":79,"time":152.41666666666683,"velocity":0.7637795275590551,"duration":0.08203125},{"name":"G3","midi":55,"time":152.50000000000017,"velocity":0.7637795275590551,"duration":0.24869791666668561},{"name":"F#5","midi":78,"time":152.50000000000017,"velocity":0.7637795275590551,"duration":0.08203125},{"name":"E5","midi":76,"time":152.5833333333335,"velocity":0.7637795275590551,"duration":0.08203125},{"name":"F#5","midi":78,"time":152.66666666666686,"velocity":0.7637795275590551,"duration":0.08203125},{"name":"E3","midi":52,"time":152.7500000000002,"velocity":0.7637795275590551,"duration":0.24869791666668561},{"name":"G5","midi":79,"time":152.7500000000002,"velocity":0.7637795275590551,"duration":0.08203125},{"name":"F#5","midi":78,"time":152.83333333333354,"velocity":0.7637795275590551,"duration":0.08203125},{"name":"E5","midi":76,"time":152.91666666666688,"velocity":0.7637795275590551,"duration":0.08203125},{"name":"A3","midi":57,"time":153.00000000000023,"velocity":0.7637795275590551,"duration":0.24869791666668561},{"name":"D5","midi":74,"time":153.00000000000023,"velocity":0.7637795275590551,"duration":0.08203125},{"name":"C#5","midi":73,"time":153.08333333333357,"velocity":0.7637795275590551,"duration":0.08203125},{"name":"D5","midi":74,"time":153.1666666666669,"velocity":0.7637795275590551,"duration":0.08203125},{"name":"A2","midi":45,"time":153.25000000000026,"velocity":0.7637795275590551,"duration":0.32552083333337123},{"name":"E5","midi":76,"time":153.25000000000026,"velocity":0.7637795275590551,"duration":0.08203125},{"name":"D5","midi":74,"time":153.3333333333336,"velocity":0.7637795275590551,"duration":0.08203125},{"name":"C#5","midi":73,"time":153.41666666666694,"velocity":0.7637795275590551,"duration":0.08203125},{"name":"B4","midi":71,"time":153.50000000000028,"velocity":0.7637795275590551,"duration":0.08203125},{"name":"C#3","midi":49,"time":153.58333333333363,"velocity":0.7637795275590551,"duration":0.08203125},{"name":"A4","midi":69,"time":153.58333333333363,"velocity":0.7637795275590551,"duration":0.08203125},{"name":"B2","midi":47,"time":153.66666666666697,"velocity":0.7637795275590551,"duration":0.08203125},{"name":"C#3","midi":49,"time":153.7500000000003,"velocity":0.7637795275590551,"duration":0.08203125},{"name":"G5","midi":79,"time":153.7500000000003,"velocity":0.7637795275590551,"duration":0.32552083333337123},{"name":"B2","midi":47,"time":153.83333333333366,"velocity":0.7637795275590551,"duration":0.08203125},{"name":"A2","midi":45,"time":153.916666666667,"velocity":0.7637795275590551,"duration":0.08203125},{"name":"D3","midi":50,"time":154.00000000000034,"velocity":0.7637795275590551,"duration":0.24869791666668561},{"name":"F#5","midi":78,"time":154.08333333333368,"velocity":0.7637795275590551,"duration":0.08203125},{"name":"G5","midi":79,"time":154.16666666666703,"velocity":0.7637795275590551,"duration":0.08203125},{"name":"D2","midi":38,"time":154.25000000000037,"velocity":0.7637795275590551,"duration":0.24869791666668561},{"name":"A5","midi":81,"time":154.25000000000037,"velocity":0.7637795275590551,"duration":0.08203125},{"name":"G5","midi":79,"time":154.3333333333337,"velocity":0.7637795275590551,"duration":0.08203125},{"name":"F#5","midi":78,"time":154.41666666666706,"velocity":0.7637795275590551,"duration":0.08203125},{"name":"F#2","midi":42,"time":154.5000000000004,"velocity":0.7637795275590551,"duration":0.24869791666668561},{"name":"E5","midi":76,"time":154.5000000000004,"velocity":0.7637795275590551,"duration":0.08203125},{"name":"D5","midi":74,"time":154.58333333333374,"velocity":0.7637795275590551,"duration":0.08203125},{"name":"E5","midi":76,"time":154.66666666666708,"velocity":0.7637795275590551,"duration":0.08203125},{"name":"D2","midi":38,"time":154.75000000000043,"velocity":0.7637795275590551,"duration":0.24869791666668561},{"name":"F#5","midi":78,"time":154.75000000000043,"velocity":0.7637795275590551,"duration":0.08203125},{"name":"E5","midi":76,"time":154.83333333333377,"velocity":0.7637795275590551,"duration":0.08203125},{"name":"D5","midi":74,"time":154.9166666666671,"velocity":0.7637795275590551,"duration":0.08203125},{"name":"G2","midi":43,"time":155.00000000000045,"velocity":0.7637795275590551,"duration":0.24869791666668561},{"name":"C5","midi":72,"time":155.00000000000045,"velocity":0.7637795275590551,"duration":0.08203125},{"name":"B4","midi":71,"time":155.0833333333338,"velocity":0.7637795275590551,"duration":0.08203125},{"name":"C5","midi":72,"time":155.16666666666714,"velocity":0.7637795275590551,"duration":0.08203125},{"name":"G3","midi":55,"time":155.25000000000048,"velocity":0.7637795275590551,"duration":0.32552083333337123},{"name":"D5","midi":74,"time":155.25000000000048,"velocity":0.7637795275590551,"duration":0.08203125},{"name":"C5","midi":72,"time":155.33333333333383,"velocity":0.7637795275590551,"duration":0.08203125},{"name":"B4","midi":71,"time":155.41666666666717,"velocity":0.7637795275590551,"duration":0.08203125},{"name":"A4","midi":69,"time":155.5000000000005,"velocity":0.7637795275590551,"duration":0.08203125},{"name":"G3","midi":55,"time":155.58333333333385,"velocity":0.7637795275590551,"duration":0.08203125},{"name":"G4","midi":67,"time":155.58333333333385,"velocity":0.7637795275590551,"duration":0.08203125},{"name":"A3","midi":57,"time":155.6666666666672,"velocity":0.7637795275590551,"duration":0.08203125},{"name":"B3","midi":59,"time":155.75000000000054,"velocity":0.7637795275590551,"duration":0.08203125},{"name":"F5","midi":77,"time":155.75000000000054,"velocity":0.7637795275590551,"duration":0.3320312500000284},{"name":"B3","midi":59,"time":155.83333333333388,"velocity":0.7637795275590551,"duration":0.08203125},{"name":"C#4","midi":61,"time":155.91666666666723,"velocity":0.7637795275590551,"duration":0.08203125},{"name":"D4","midi":62,"time":156.00000000000057,"velocity":0.7637795275590551,"duration":0.24869791666668561},{"name":"E5","midi":76,"time":156.0833333333339,"velocity":0.7637795275590551,"duration":0.08203125},{"name":"D5","midi":74,"time":156.16666666666725,"velocity":0.7637795275590551,"duration":0.08203125},{"name":"G#3","midi":56,"time":156.2500000000006,"velocity":0.7637795275590551,"duration":0.24869791666668561},{"name":"E5","midi":76,"time":156.2500000000006,"velocity":0.7637795275590551,"duration":0.08203125},{"name":"D5","midi":74,"time":156.33333333333394,"velocity":0.7637795275590551,"duration":0.08203125},{"name":"C#5","midi":73,"time":156.41666666666728,"velocity":0.7637795275590551,"duration":0.08203125},{"name":"B3","midi":59,"time":156.50000000000063,"velocity":0.7637795275590551,"duration":0.24869791666668561},{"name":"D5","midi":74,"time":156.50000000000063,"velocity":0.7637795275590551,"duration":0.08203125},{"name":"C#5","midi":73,"time":156.58333333333397,"velocity":0.7637795275590551,"duration":0.08203125},{"name":"B4","midi":71,"time":156.6666666666673,"velocity":0.7637795275590551,"duration":0.08203125},{"name":"E3","midi":52,"time":156.75000000000065,"velocity":0.7637795275590551,"duration":0.24869791666668561},{"name":"G#5","midi":80,"time":156.75000000000065,"velocity":0.7637795275590551,"duration":0.1653645833333428},{"name":"A5","midi":81,"time":156.91666666666734,"velocity":0.7637795275590551,"duration":0.08203125},{"name":"A2","midi":45,"time":157.00000000000068,"velocity":0.7637795275590551,"duration":0.33203125},{"name":"A3","midi":57,"time":157.00000000000068,"velocity":0.7637795275590551,"duration":0.33203125},{"name":"E3","midi":52,"time":157.00000000000068,"velocity":0.7637795275590551,"duration":0.33203125},{"name":"D5","midi":74,"time":157.00000000000068,"velocity":0.7637795275590551,"duration":0.2473958333333428},{"name":"C#5","midi":73,"time":157.25000000000068,"velocity":0.7637795275590551,"duration":0.04947916666665719},{"name":"D5","midi":74,"time":157.29166666666734,"velocity":0.7637795275590551,"duration":0.049479166666685614},{"name":"G3","midi":55,"time":157.33333333333402,"velocity":0.7637795275590551,"duration":0.08203125},{"name":"C#5","midi":73,"time":157.33333333333402,"velocity":0.7637795275590551,"duration":0.04947916666665719},{"name":"D5","midi":74,"time":157.37500000000068,"velocity":0.7637795275590551,"duration":0.049479166666685614},{"name":"F#3","midi":54,"time":157.41666666666737,"velocity":0.7637795275590551,"duration":0.08203125},{"name":"C#5","midi":73,"time":157.41666666666737,"velocity":0.7637795275590551,"duration":0.04947916666665719},{"name":"D5","midi":74,"time":157.45833333333402,"velocity":0.7637795275590551,"duration":0.049479166666685614},{"name":"E3","midi":52,"time":157.5000000000007,"velocity":0.7637795275590551,"duration":0.08203125},{"name":"C#5","midi":73,"time":157.5000000000007,"velocity":0.7637795275590551,"duration":0.08203125},{"name":"D3","midi":50,"time":157.58333333333405,"velocity":0.7637795275590551,"duration":0.08203125},{"name":"D5","midi":74,"time":157.58333333333405,"velocity":0.7637795275590551,"duration":0.08203125},{"name":"C#3","midi":49,"time":157.6666666666674,"velocity":0.7637795275590551,"duration":0.08203125},{"name":"E5","midi":76,"time":157.6666666666674,"velocity":0.7637795275590551,"duration":0.08203125},{"name":"D3","midi":50,"time":157.75000000000074,"velocity":0.7637795275590551,"duration":0.08203125},{"name":"G4","midi":67,"time":157.75000000000074,"velocity":0.7637795275590551,"duration":0.1653645833333428},{"name":"C#3","midi":49,"time":157.83333333333408,"velocity":0.7637795275590551,"duration":0.08203125},{"name":"B2","midi":47,"time":157.91666666666742,"velocity":0.7637795275590551,"duration":0.08203125},{"name":"G4","midi":67,"time":157.91666666666742,"velocity":0.7637795275590551,"duration":0.24218750000002842},{"name":"C#3","midi":49,"time":158.00000000000077,"velocity":0.7637795275590551,"duration":0.08203125},{"name":"E5","midi":76,"time":158.00000000000077,"velocity":0.7637795275590551,"duration":0.6653645833333997},{"name":"A2","midi":45,"time":158.0833333333341,"velocity":0.7637795275590551,"duration":0.08203125},{"name":"B2","midi":47,"time":158.16666666666745,"velocity":0.7637795275590551,"duration":0.08203125},{"name":"F#4","midi":66,"time":158.16666666666745,"velocity":0.7637795275590551,"duration":0.08203125},{"name":"C#3","midi":49,"time":158.2500000000008,"velocity":0.7637795275590551,"duration":0.08203125},{"name":"E4","midi":64,"time":158.2500000000008,"velocity":0.7637795275590551,"duration":0.1653645833333428},{"name":"B2","midi":47,"time":158.33333333333414,"velocity":0.7637795275590551,"duration":0.08203125},{"name":"A2","midi":45,"time":158.41666666666748,"velocity":0.7637795275590551,"duration":0.08203125},{"name":"A4","midi":69,"time":158.41666666666748,"velocity":0.7637795275590551,"duration":0.08203125},{"name":"D3","midi":50,"time":158.50000000000082,"velocity":0.7637795275590551,"duration":0.08203125},{"name":"F#4","midi":66,"time":158.50000000000082,"velocity":0.7637795275590551,"duration":0.6653645833333997},{"name":"F#3","midi":54,"time":158.58333333333417,"velocity":0.7637795275590551,"duration":0.08203125},{"name":"E3","midi":52,"time":158.6666666666675,"velocity":0.7637795275590551,"duration":0.08203125},{"name":"A4","midi":69,"time":158.6666666666675,"velocity":0.7637795275590551,"duration":0.08203125},{"name":"D3","midi":50,"time":158.75000000000085,"velocity":0.7637795275590551,"duration":0.08203125},{"name":"D5","midi":74,"time":158.75000000000085,"velocity":0.7637795275590551,"duration":0.1653645833333428},{"name":"E3","midi":52,"time":158.8333333333342,"velocity":0.7637795275590551,"duration":0.08203125},{"name":"F#3","midi":54,"time":158.91666666666754,"velocity":0.7637795275590551,"duration":0.08203125},{"name":"C5","midi":72,"time":158.91666666666754,"velocity":0.7637795275590551,"duration":0.08203125},{"name":"G3","midi":55,"time":159.00000000000088,"velocity":0.7637795275590551,"duration":0.08203125},{"name":"B4","midi":71,"time":159.00000000000088,"velocity":0.7637795275590551,"duration":0.6653645833333997},{"name":"A3","midi":57,"time":159.08333333333422,"velocity":0.7637795275590551,"duration":0.08203125},{"name":"B3","midi":59,"time":159.16666666666757,"velocity":0.7637795275590551,"duration":0.08203125},{"name":"E4","midi":64,"time":159.16666666666757,"velocity":0.7637795275590551,"duration":0.08203125},{"name":"D#3","midi":51,"time":159.2500000000009,"velocity":0.7637795275590551,"duration":0.08203125},{"name":"F#4","midi":66,"time":159.2500000000009,"velocity":0.7637795275590551,"duration":0.1653645833333428},{"name":"E3","midi":52,"time":159.33333333333425,"velocity":0.7637795275590551,"duration":0.08203125},{"name":"F#3","midi":54,"time":159.4166666666676,"velocity":0.7637795275590551,"duration":0.08203125},{"name":"A4","midi":69,"time":159.4166666666676,"velocity":0.7637795275590551,"duration":0.08203125},{"name":"E3","midi":52,"time":159.50000000000094,"velocity":0.7637795275590551,"duration":0.08203125},{"name":"G4","midi":67,"time":159.50000000000094,"velocity":0.7637795275590551,"duration":0.6653645833333997},{"name":"B3","midi":59,"time":159.58333333333428,"velocity":0.7637795275590551,"duration":0.08203125},{"name":"C#4","midi":61,"time":159.66666666666762,"velocity":0.7637795275590551,"duration":0.08203125},{"name":"G5","midi":79,"time":159.66666666666762,"velocity":0.7637795275590551,"duration":0.08203125},{"name":"D4","midi":62,"time":159.75000000000097,"velocity":0.7637795275590551,"duration":0.08203125},{"name":"F#5","midi":78,"time":159.75000000000097,"velocity":0.7637795275590551,"duration":0.1653645833333428},{"name":"C#4","midi":61,"time":159.8333333333343,"velocity":0.7637795275590551,"duration":0.08203125},{"name":"B3","midi":59,"time":159.91666666666765,"velocity":0.7637795275590551,"duration":0.08203125},{"name":"G5","midi":79,"time":159.91666666666765,"velocity":0.7637795275590551,"duration":0.08203125},{"name":"C#4","midi":61,"time":160.000000000001,"velocity":0.7637795275590551,"duration":0.08203125},{"name":"A4","midi":69,"time":160.000000000001,"velocity":0.7637795275590551,"duration":0.6653645833333997},{"name":"A3","midi":57,"time":160.08333333333434,"velocity":0.7637795275590551,"duration":0.08203125},{"name":"B3","midi":59,"time":160.16666666666768,"velocity":0.7637795275590551,"duration":0.08203125},{"name":"G4","midi":67,"time":160.16666666666768,"velocity":0.7637795275590551,"duration":0.08203125},{"name":"C#4","midi":61,"time":160.25000000000102,"velocity":0.7637795275590551,"duration":0.08203125},{"name":"F#4","midi":66,"time":160.25000000000102,"velocity":0.7637795275590551,"duration":0.1653645833333428},{"name":"B3","midi":59,"time":160.33333333333437,"velocity":0.7637795275590551,"duration":0.08203125},{"name":"A3","midi":57,"time":160.4166666666677,"velocity":0.7637795275590551,"duration":0.08203125},{"name":"G4","midi":67,"time":160.4166666666677,"velocity":0.7637795275590551,"duration":0.08203125},{"name":"D4","midi":62,"time":160.50000000000105,"velocity":0.7637795275590551,"duration":0.08203125},{"name":"F#4","midi":66,"time":160.50000000000105,"velocity":0.7637795275590551,"duration":0.572916666666714},{"name":"C#4","midi":61,"time":160.5833333333344,"velocity":0.7637795275590551,"duration":0.08203125},{"name":"B3","midi":59,"time":160.66666666666774,"velocity":0.7637795275590551,"duration":0.08203125},{"name":"D5","midi":74,"time":160.66666666666774,"velocity":0.7637795275590551,"duration":0.08203125},{"name":"A3","midi":57,"time":160.75000000000108,"velocity":0.7637795275590551,"duration":0.08203125},{"name":"E5","midi":76,"time":160.75000000000108,"velocity":0.7637795275590551,"duration":0.1653645833333428},{"name":"B3","midi":59,"time":160.83333333333442,"velocity":0.7637795275590551,"duration":0.08203125},{"name":"C4","midi":60,"time":160.91666666666777,"velocity":0.7637795275590551,"duration":0.08203125},{"name":"F#5","midi":78,"time":160.91666666666777,"velocity":0.7637795275590551,"duration":0.08203125},{"name":"B3","midi":59,"time":161.0000000000011,"velocity":0.7637795275590551,"duration":0.5729166666666856},{"name":"G4","midi":67,"time":161.0000000000011,"velocity":0.7637795275590551,"duration":0.6653645833333428},{"name":"F#4","midi":66,"time":161.08333333333442,"velocity":0.7637795275590551,"duration":0.08203125},{"name":"E4","midi":64,"time":161.16666666666777,"velocity":0.7637795275590551,"duration":0.08203125},{"name":"F#4","midi":66,"time":161.2500000000011,"velocity":0.7637795275590551,"duration":0.08203125},{"name":"E4","midi":64,"time":161.33333333333445,"velocity":0.7637795275590551,"duration":0.08203125},{"name":"D#4","midi":63,"time":161.4166666666678,"velocity":0.7637795275590551,"duration":0.08203125},{"name":"E4","midi":64,"time":161.50000000000114,"velocity":0.7637795275590551,"duration":0.5729166666666856},{"name":"A3","midi":57,"time":161.58333333333445,"velocity":0.7637795275590551,"duration":0.08203125},{"name":"G3","midi":55,"time":161.6666666666678,"velocity":0.7637795275590551,"duration":0.08203125},{"name":"B4","midi":71,"time":161.6666666666678,"velocity":0.7637795275590551,"duration":0.08203125},{"name":"F#3","midi":54,"time":161.75000000000114,"velocity":0.7637795275590551,"duration":0.08203125},{"name":"A4","midi":69,"time":161.75000000000114,"velocity":0.7637795275590551,"duration":0.1653645833333428},{"name":"G3","midi":55,"time":161.83333333333448,"velocity":0.7637795275590551,"duration":0.08203125},{"name":"A3","midi":57,"time":161.91666666666782,"velocity":0.7637795275590551,"duration":0.08203125},{"name":"C5","midi":72,"time":161.91666666666782,"velocity":0.7637795275590551,"duration":0.08203125},{"name":"G3","midi":55,"time":162.00000000000117,"velocity":0.7637795275590551,"duration":0.5729166666666856},{"name":"B4","midi":71,"time":162.00000000000117,"velocity":0.7637795275590551,"duration":1.0807291666667425},{"name":"D#4","midi":63,"time":162.08333333333448,"velocity":0.7637795275590551,"duration":0.08203125},{"name":"E4","midi":64,"time":162.16666666666782,"velocity":0.7637795275590551,"duration":0.08203125},{"name":"F#4","midi":66,"time":162.25000000000117,"velocity":0.7637795275590551,"duration":0.08203125},{"name":"E4","midi":64,"time":162.3333333333345,"velocity":0.7637795275590551,"duration":0.08203125},{"name":"D#4","midi":63,"time":162.41666666666785,"velocity":0.7637795275590551,"duration":0.08203125},{"name":"E4","midi":64,"time":162.5000000000012,"velocity":0.7637795275590551,"duration":0.08203125},{"name":"F#3","midi":54,"time":162.58333333333454,"velocity":0.7637795275590551,"duration":0.08203125},{"name":"F#4","midi":66,"time":162.58333333333454,"velocity":0.7637795275590551,"duration":0.08203125},{"name":"E3","midi":52,"time":162.66666666666788,"velocity":0.7637795275590551,"duration":0.08203125},{"name":"G4","midi":67,"time":162.66666666666788,"velocity":0.7637795275590551,"duration":0.08203125},{"name":"D#3","midi":51,"time":162.75000000000122,"velocity":0.7637795275590551,"duration":0.08203125},{"name":"A4","midi":69,"time":162.75000000000122,"velocity":0.7637795275590551,"duration":0.08203125},{"name":"E3","midi":52,"time":162.83333333333456,"velocity":0.7637795275590551,"duration":0.08203125},{"name":"G4","midi":67,"time":162.83333333333456,"velocity":0.7637795275590551,"duration":0.08203125},{"name":"F#3","midi":54,"time":162.9166666666679,"velocity":0.7637795275590551,"duration":0.08203125},{"name":"F#4","midi":66,"time":162.9166666666679,"velocity":0.7637795275590551,"duration":0.08203125},{"name":"E3","midi":52,"time":163.00000000000125,"velocity":0.7637795275590551,"duration":0.5729166666666856},{"name":"G4","midi":67,"time":163.00000000000125,"velocity":0.7637795275590551,"duration":1.0807291666667425},{"name":"C#5","midi":73,"time":163.08333333333456,"velocity":0.7637795275590551,"duration":0.08203125},{"name":"D5","midi":74,"time":163.1666666666679,"velocity":0.7637795275590551,"duration":0.08203125},{"name":"E5","midi":76,"time":163.25000000000125,"velocity":0.7637795275590551,"duration":0.08203125},{"name":"D5","midi":74,"time":163.3333333333346,"velocity":0.7637795275590551,"duration":0.08203125},{"name":"C#5","midi":73,"time":163.41666666666794,"velocity":0.7637795275590551,"duration":0.08203125},{"name":"D5","midi":74,"time":163.50000000000128,"velocity":0.7637795275590551,"duration":0.08203125},{"name":"D3","midi":50,"time":163.58333333333462,"velocity":0.7637795275590551,"duration":0.08203125},{"name":"E5","midi":76,"time":163.58333333333462,"velocity":0.7637795275590551,"duration":0.08203125},{"name":"C#3","midi":49,"time":163.66666666666796,"velocity":0.7637795275590551,"duration":0.08203125},{"name":"F#5","midi":78,"time":163.66666666666796,"velocity":0.7637795275590551,"duration":0.08203125},{"name":"B2","midi":47,"time":163.7500000000013,"velocity":0.7637795275590551,"duration":0.08203125},{"name":"G5","midi":79,"time":163.7500000000013,"velocity":0.7637795275590551,"duration":0.08203125},{"name":"C#3","midi":49,"time":163.83333333333465,"velocity":0.7637795275590551,"duration":0.08203125},{"name":"F#5","midi":78,"time":163.83333333333465,"velocity":0.7637795275590551,"duration":0.08203125},{"name":"D3","midi":50,"time":163.916666666668,"velocity":0.7637795275590551,"duration":0.08203125},{"name":"E5","midi":76,"time":163.916666666668,"velocity":0.7637795275590551,"duration":0.08203125},{"name":"C#3","midi":49,"time":164.00000000000134,"velocity":0.7637795275590551,"duration":0.2486979166666572},{"name":"A5","midi":81,"time":164.00000000000134,"velocity":0.7637795275590551,"duration":0.24739583333331439},{"name":"A4","midi":69,"time":164.08333333333465,"velocity":0.7637795275590551,"duration":0.08203125},{"name":"B4","midi":71,"time":164.166666666668,"velocity":0.7637795275590551,"duration":0.08203125},{"name":"A2","midi":45,"time":164.25000000000134,"velocity":0.7637795275590551,"duration":0.24869791666668561},{"name":"C#5","midi":73,"time":164.25000000000134,"velocity":0.7637795275590551,"duration":0.08203125},{"name":"C#5","midi":73,"time":164.33333333333468,"velocity":0.7637795275590551,"duration":0.08203125},{"name":"D5","midi":74,"time":164.41666666666802,"velocity":0.7637795275590551,"duration":0.08203125},{"name":"E2","midi":40,"time":164.50000000000136,"velocity":0.7637795275590551,"duration":0.24869791666668561},{"name":"E5","midi":76,"time":164.50000000000136,"velocity":0.7637795275590551,"duration":0.08203125},{"name":"E5","midi":76,"time":164.5833333333347,"velocity":0.7637795275590551,"duration":0.08203125},{"name":"F#5","midi":78,"time":164.66666666666805,"velocity":0.7637795275590551,"duration":0.08203125},{"name":"C#2","midi":37,"time":164.7500000000014,"velocity":0.7637795275590551,"duration":0.24869791666668561},{"name":"G5","midi":79,"time":164.7500000000014,"velocity":0.7637795275590551,"duration":0.08203125},{"name":"G5","midi":79,"time":164.83333333333474,"velocity":0.7637795275590551,"duration":0.08203125},{"name":"A5","midi":81,"time":164.91666666666808,"velocity":0.7637795275590551,"duration":0.08203125},{"name":"A1","midi":33,"time":165.00000000000142,"velocity":0.7637795275590551,"duration":0.08203125},{"name":"A#5","midi":82,"time":165.00000000000142,"velocity":0.7637795275590551,"duration":0.12109375},{"name":"A2","midi":45,"time":165.08333333333476,"velocity":0.7637795275590551,"duration":0.08203125},{"name":"B2","midi":47,"time":165.1666666666681,"velocity":0.7637795275590551,"duration":0.08203125},{"name":"G#5","midi":80,"time":165.1666666666681,"velocity":0.7637795275590551,"duration":0.08203125},{"name":"C#3","midi":49,"time":165.25000000000145,"velocity":0.7637795275590551,"duration":0.08203125},{"name":"A5","midi":81,"time":165.25000000000145,"velocity":0.7637795275590551,"duration":0.3710937500000284},{"name":"D3","midi":50,"time":165.3333333333348,"velocity":0.7637795275590551,"duration":0.08203125},{"name":"E3","midi":52,"time":165.41666666666814,"velocity":0.7637795275590551,"duration":0.08203125},{"name":"F#3","midi":54,"time":165.50000000000148,"velocity":0.7637795275590551,"duration":0.08203125},{"name":"G3","midi":55,"time":165.58333333333482,"velocity":0.7637795275590551,"duration":0.08203125},{"name":"A3","midi":57,"time":165.66666666666816,"velocity":0.7637795275590551,"duration":0.08203125},{"name":"C#6","midi":85,"time":165.66666666666816,"velocity":0.7637795275590551,"duration":0.08203125},{"name":"B3","midi":59,"time":165.7500000000015,"velocity":0.7637795275590551,"duration":0.08203125},{"name":"D6","midi":86,"time":165.7500000000015,"velocity":0.7637795275590551,"duration":0.1653645833333428},{"name":"C#4","midi":61,"time":165.83333333333485,"velocity":0.7637795275590551,"duration":0.08203125},{"name":"D4","midi":62,"time":165.9166666666682,"velocity":0.7637795275590551,"duration":0.08203125},{"name":"F#5","midi":78,"time":165.9166666666682,"velocity":0.7637795275590551,"duration":0.08203125},{"name":"E4","midi":64,"time":166.00000000000153,"velocity":0.7637795275590551,"duration":0.08203125},{"name":"G#5","midi":80,"time":166.00000000000153,"velocity":0.7637795275590551,"duration":0.04166666666665719},{"name":"F#5","midi":78,"time":166.0416666666682,"velocity":0.7637795275590551,"duration":0.04036458333334281},{"name":"D4","midi":62,"time":166.08333333333488,"velocity":0.7637795275590551,"duration":0.08203125},{"name":"G#5","midi":80,"time":166.08333333333488,"velocity":0.7637795275590551,"duration":0.08203125},{"name":"C#4","midi":61,"time":166.16666666666822,"velocity":0.7637795275590551,"duration":0.08203125},{"name":"A5","midi":81,"time":166.16666666666822,"velocity":0.7637795275590551,"duration":0.08203125},{"name":"F#4","midi":66,"time":166.25000000000156,"velocity":0.7637795275590551,"duration":0.08203125},{"name":"C#5","midi":73,"time":166.25000000000156,"velocity":0.7637795275590551,"duration":0.1653645833333428},{"name":"E4","midi":64,"time":166.3333333333349,"velocity":0.7637795275590551,"duration":0.08203125},{"name":"D4","midi":62,"time":166.41666666666825,"velocity":0.7637795275590551,"duration":0.08203125},{"name":"D5","midi":74,"time":166.41666666666825,"velocity":0.7637795275590551,"duration":0.08203125},{"name":"A4","midi":69,"time":166.5000000000016,"velocity":0.7637795275590551,"duration":0.2486979166666572},{"name":"F#5","midi":78,"time":166.5000000000016,"velocity":0.7637795275590551,"duration":0.2486979166666572},{"name":"A3","midi":57,"time":166.7500000000016,"velocity":0.7637795275590551,"duration":0.2486979166666572},{"name":"E5","midi":76,"time":166.7500000000016,"velocity":0.7637795275590551,"duration":0.04036458333334281},{"name":"F#5","midi":78,"time":166.79036458333493,"velocity":0.7637795275590551,"duration":0.04036458333334281},{"name":"E5","midi":76,"time":166.83333333333493,"velocity":0.7637795275590551,"duration":0.08984375},{"name":"D5","midi":74,"time":166.91666666666828,"velocity":0.7637795275590551,"duration":0.07552083333331439},{"name":"B3","midi":59,"time":167.0000000000016,"velocity":0.7637795275590551,"duration":0.2473958333333428},{"name":"D5","midi":74,"time":167.0000000000016,"velocity":0.7637795275590551,"duration":0.08203125},{"name":"C#5","midi":73,"time":167.08333333333493,"velocity":0.7637795275590551,"duration":0.08203125},{"name":"D4","midi":62,"time":167.16666666666828,"velocity":0.7637795275590551,"duration":0.08203125},{"name":"B4","midi":71,"time":167.16666666666828,"velocity":0.7637795275590551,"duration":0.08203125},{"name":"F#3","midi":54,"time":167.25000000000162,"velocity":0.7637795275590551,"duration":0.2473958333333428},{"name":"A3","midi":57,"time":167.25000000000162,"velocity":0.7637795275590551,"duration":0.1653645833333428},{"name":"C5","midi":72,"time":167.25000000000162,"velocity":0.7637795275590551,"duration":0.08203125},{"name":"B4","midi":71,"time":167.33333333333496,"velocity":0.7637795275590551,"duration":0.08203125},{"name":"D4","midi":62,"time":167.4166666666683,"velocity":0.7637795275590551,"duration":0.08203125},{"name":"A4","midi":69,"time":167.4166666666683,"velocity":0.7637795275590551,"duration":0.08203125},{"name":"G3","midi":55,"time":167.50000000000165,"velocity":0.7637795275590551,"duration":0.2473958333333428},{"name":"B4","midi":71,"time":167.50000000000165,"velocity":0.7637795275590551,"duration":0.08203125},{"name":"A4","midi":69,"time":167.583333333335,"velocity":0.7637795275590551,"duration":0.08203125},{"name":"D4","midi":62,"time":167.66666666666833,"velocity":0.7637795275590551,"duration":0.08203125},{"name":"G4","midi":67,"time":167.66666666666833,"velocity":0.7637795275590551,"duration":0.08203125},{"name":"B2","midi":47,"time":167.75000000000168,"velocity":0.7637795275590551,"duration":0.2473958333333428},{"name":"F#3","midi":54,"time":167.75000000000168,"velocity":0.7637795275590551,"duration":0.1653645833333428},{"name":"A4","midi":69,"time":167.75000000000168,"velocity":0.7637795275590551,"duration":0.08203125},{"name":"G4","midi":67,"time":167.83333333333502,"velocity":0.7637795275590551,"duration":0.08203125},{"name":"D4","midi":62,"time":167.91666666666836,"velocity":0.7637795275590551,"duration":0.08203125},{"name":"F#4","midi":66,"time":167.91666666666836,"velocity":0.7637795275590551,"duration":0.08203125},{"name":"C#3","midi":49,"time":168.0000000000017,"velocity":0.7637795275590551,"duration":0.24869791666668561},{"name":"E3","midi":52,"time":168.0000000000017,"velocity":0.7637795275590551,"duration":0.24869791666668561},{"name":"G4","midi":67,"time":168.0000000000017,"velocity":0.7637795275590551,"duration":0.08203125},{"name":"F#4","midi":66,"time":168.08333333333505,"velocity":0.7637795275590551,"duration":0.08203125},{"name":"E4","midi":64,"time":168.1666666666684,"velocity":0.7637795275590551,"duration":0.08203125},{"name":"A3","midi":57,"time":168.25000000000173,"velocity":0.7637795275590551,"duration":0.49479166666671404},{"name":"D3","midi":50,"time":168.25000000000173,"velocity":0.7637795275590551,"duration":0.24869791666668561},{"name":"F#4","midi":66,"time":168.25000000000173,"velocity":0.7637795275590551,"duration":0.1653645833333428},{"name":"D5","midi":74,"time":168.41666666666842,"velocity":0.7637795275590551,"duration":0.07552083333334281},{"name":"A2","midi":45,"time":168.50000000000176,"velocity":0.7637795275590551,"duration":0.49479166666671404},{"name":"E4","midi":64,"time":168.50000000000176,"velocity":0.7637795275590551,"duration":0.1653645833333428},{"name":"G4","midi":67,"time":168.66666666666845,"velocity":0.7637795275590551,"duration":0.07552083333334281},{"name":"G3","midi":55,"time":168.7500000000018,"velocity":0.7637795275590551,"duration":0.32552083333337123},{"name":"D5","midi":74,"time":168.7500000000018,"velocity":0.7637795275590551,"duration":0.1653645833333428},{"name":"C#5","midi":73,"time":168.91666666666848,"velocity":0.7637795275590551,"duration":0.07552083333334281},{"name":"D3","midi":50,"time":169.00000000000182,"velocity":0.7637795275590551,"duration":0.44270833333337123},{"name":"D5","midi":74,"time":169.00000000000182,"velocity":0.7637795275590551,"duration":0.3320312500000284},{"name":"F#3","midi":54,"time":169.08333333333516,"velocity":0.7637795275590551,"duration":0.08203125},{"name":"E3","midi":52,"time":169.1666666666685,"velocity":0.7637795275590551,"duration":0.08203125},{"name":"F#3","midi":54,"time":169.25000000000185,"velocity":0.7637795275590551,"duration":0.2083333333333428},{"name":"A4","midi":69,"time":169.3333333333352,"velocity":0.7637795275590551,"duration":0.08203125},{"name":"G4","midi":67,"time":169.41666666666853,"velocity":0.7637795275590551,"duration":0.08203125},{"name":"D4","midi":62,"time":169.50000000000188,"velocity":0.7637795275590551,"duration":0.18229166666668561},{"name":"F#4","midi":66,"time":169.50000000000188,"velocity":0.7637795275590551,"duration":0.08072916666665719},{"name":"A4","midi":69,"time":169.50000000000188,"velocity":0.7637795275590551,"duration":0.08203125},{"name":"F#4","midi":66,"time":169.58333333333522,"velocity":0.7637795275590551,"duration":0.08203125},{"name":"E4","midi":64,"time":169.66666666666856,"velocity":0.7637795275590551,"duration":0.08203125},{"name":"A3","midi":57,"time":169.7500000000019,"velocity":0.7637795275590551,"duration":0.18229166666668561},{"name":"D4","midi":62,"time":169.7500000000019,"velocity":0.7637795275590551,"duration":0.08072916666665719},{"name":"F#4","midi":66,"time":169.7500000000019,"velocity":0.7637795275590551,"duration":0.08203125},{"name":"D4","midi":62,"time":169.83333333333525,"velocity":0.7637795275590551,"duration":0.08203125},{"name":"C#4","midi":61,"time":169.9166666666686,"velocity":0.7637795275590551,"duration":0.08203125},{"name":"F#3","midi":54,"time":170.00000000000193,"velocity":0.7637795275590551,"duration":0.41666666666671404},{"name":"A3","midi":57,"time":170.00000000000193,"velocity":0.7637795275590551,"duration":0.41666666666671404},{"name":"D4","midi":62,"time":170.00000000000193,"velocity":0.7637795275590551,"duration":0.41666666666671404},{"name":"D3","midi":50,"time":170.08333333333528,"velocity":0.7637795275590551,"duration":0.08203125},{"name":"C#3","midi":49,"time":170.16666666666862,"velocity":0.7637795275590551,"duration":0.08203125},{"name":"D3","midi":50,"time":170.25000000000196,"velocity":0.7637795275590551,"duration":0.08203125},{"name":"A2","midi":45,"time":170.3333333333353,"velocity":0.7637795275590551,"duration":0.08203125},{"name":"F#2","midi":42,"time":170.41666666666865,"velocity":0.7637795275590551,"duration":0.08203125},{"name":"D2","midi":38,"time":170.500000000002,"velocity":0.7637795275590551,"duration":0.3645833333333428},{"name":"A4","midi":69,"time":170.91666666666868,"velocity":0.7637795275590551,"duration":0.08203125},{"name":"D3","midi":50,"time":171.00000000000202,"velocity":0.7637795275590551,"duration":0.748697916666714},{"name":"F#4","midi":66,"time":171.00000000000202,"velocity":0.7637795275590551,"duration":0.33203125},{"name":"A4","midi":69,"time":171.00000000000202,"velocity":0.7637795275590551,"duration":0.33203125},{"name":"D4","midi":62,"time":171.00000000000202,"velocity":0.7637795275590551,"duration":0.33203125},{"name":"D2","midi":38,"time":171.25000000000202,"velocity":0.7637795275590551,"duration":0.24869791666668561},{"name":"B4","midi":71,"time":171.34375000000202,"velocity":0.7637795275590551,"duration":0.07552083333334281},{"name":"C#5","midi":73,"time":171.42187500000202,"velocity":0.7637795275590551,"duration":0.07552083333334281},{"name":"F#2","midi":42,"time":171.50000000000205,"velocity":0.7637795275590551,"duration":0.24869791666668561},{"name":"D5","midi":74,"time":171.50000000000205,"velocity":0.7637795275590551,"duration":0.08203125},{"name":"E5","midi":76,"time":171.5833333333354,"velocity":0.7637795275590551,"duration":0.08203125},{"name":"F#5","midi":78,"time":171.66666666666873,"velocity":0.7637795275590551,"duration":0.08203125},{"name":"C#3","midi":49,"time":171.75000000000207,"velocity":0.7637795275590551,"duration":0.24869791666668561},{"name":"A2","midi":45,"time":171.75000000000207,"velocity":0.7637795275590551,"duration":0.24869791666668561},{"name":"E5","midi":76,"time":171.75000000000207,"velocity":0.7637795275590551,"duration":0.08203125},{"name":"F#5","midi":78,"time":171.83333333333542,"velocity":0.7637795275590551,"duration":0.08203125},{"name":"G5","midi":79,"time":171.91666666666876,"velocity":0.7637795275590551,"duration":0.08203125},{"name":"D3","midi":50,"time":172.0000000000021,"velocity":0.7637795275590551,"duration":0.3320312500000284},{"name":"F#5","midi":78,"time":172.0000000000021,"velocity":0.7637795275590551,"duration":0.08203125},{"name":"E5","midi":76,"time":172.08333333333545,"velocity":0.7637795275590551,"duration":0.08203125},{"name":"D5","midi":74,"time":172.1666666666688,"velocity":0.7637795275590551,"duration":0.08203125},{"name":"A5","midi":81,"time":172.25000000000213,"velocity":0.7637795275590551,"duration":0.19531250000002842},{"name":"E3","midi":52,"time":172.33333333333547,"velocity":0.7637795275590551,"duration":0.08203125},{"name":"F#3","midi":54,"time":172.41666666666882,"velocity":0.7637795275590551,"duration":0.08203125},{"name":"C5","midi":72,"time":172.41666666666882,"velocity":0.7637795275590551,"duration":0.08203125},{"name":"G3","midi":55,"time":172.50000000000216,"velocity":0.7637795275590551,"duration":0.08203125},{"name":"B4","midi":71,"time":172.50000000000216,"velocity":0.7637795275590551,"duration":0.18229166666668561},{"name":"A3","midi":57,"time":172.5833333333355,"velocity":0.7637795275590551,"duration":0.08203125},{"name":"B3","midi":59,"time":172.66666666666885,"velocity":0.7637795275590551,"duration":0.08203125},{"name":"G5","midi":79,"time":172.66666666666885,"velocity":0.7637795275590551,"duration":0.08203125},{"name":"A3","midi":57,"time":172.7500000000022,"velocity":0.7637795275590551,"duration":0.08203125},{"name":"C5","midi":72,"time":172.7500000000022,"velocity":0.7637795275590551,"duration":0.1692708333333428},{"name":"B3","midi":59,"time":172.83333333333553,"velocity":0.7637795275590551,"duration":0.08203125},{"name":"C4","midi":60,"time":172.91666666666887,"velocity":0.7637795275590551,"duration":0.08203124999997158},{"name":"F#5","midi":78,"time":172.91666666666887,"velocity":0.7637795275590551,"duration":0.07552083333331439},{"name":"B3","midi":59,"time":173.0000000000022,"velocity":0.7637795275590551,"duration":0.24869791666668561},{"name":"D5","midi":74,"time":173.0000000000022,"velocity":0.7637795275590551,"duration":0.10416666666668561},{"name":"G5","midi":79,"time":173.08333333333553,"velocity":0.7637795275590551,"duration":0.08203125},{"name":"F#5","midi":78,"time":173.16666666666887,"velocity":0.7637795275590551,"duration":0.08203125},{"name":"G3","midi":55,"time":173.25000000000222,"velocity":0.7637795275590551,"duration":0.24869791666668561},{"name":"G5","midi":79,"time":173.25000000000222,"velocity":0.7637795275590551,"duration":0.08203125},{"name":"A5","midi":81,"time":173.33333333333556,"velocity":0.7637795275590551,"duration":0.08203125},{"name":"B5","midi":83,"time":173.4166666666689,"velocity":0.7637795275590551,"duration":0.08203125},{"name":"C4","midi":60,"time":173.50000000000225,"velocity":0.7637795275590551,"duration":0.24869791666668561},{"name":"E5","midi":76,"time":173.50000000000225,"velocity":0.7637795275590551,"duration":0.1171875},{"name":"C6","midi":84,"time":173.5833333333356,"velocity":0.7637795275590551,"duration":0.08203125},{"name":"B5","midi":83,"time":173.66666666666893,"velocity":0.7637795275590551,"duration":0.08203125},{"name":"F#3","midi":54,"time":173.75000000000227,"velocity":0.7637795275590551,"duration":0.24869791666668561},{"name":"A5","midi":81,"time":173.75000000000227,"velocity":0.7637795275590551,"duration":0.08203125},{"name":"G5","midi":79,"time":173.83333333333562,"velocity":0.7637795275590551,"duration":0.08203125},{"name":"F#5","midi":78,"time":173.91666666666896,"velocity":0.7637795275590551,"duration":0.08203125},{"name":"B3","midi":59,"time":174.0000000000023,"velocity":0.7637795275590551,"duration":0.08203125},{"name":"E5","midi":76,"time":174.0000000000023,"velocity":0.7637795275590551,"duration":0.3007812500000284},{"name":"F#3","midi":54,"time":174.08333333333564,"velocity":0.7637795275590551,"duration":0.08203125},{"name":"G3","midi":55,"time":174.166666666669,"velocity":0.7637795275590551,"duration":0.08203125},{"name":"A3","midi":57,"time":174.25000000000233,"velocity":0.7637795275590551,"duration":0.08203125},{"name":"D#5","midi":75,"time":174.291666666669,"velocity":0.7637795275590551,"duration":0.057291666666685614},{"name":"G3","midi":55,"time":174.33333333333567,"velocity":0.7637795275590551,"duration":0.08203125},{"name":"E5","midi":76,"time":174.33333333333567,"velocity":0.7637795275590551,"duration":0.05729166666665719},{"name":"D#5","midi":75,"time":174.37500000000233,"velocity":0.7637795275590551,"duration":0.057291666666685614},{"name":"F#3","midi":54,"time":174.41666666666902,"velocity":0.7637795275590551,"duration":0.08203125},{"name":"E5","midi":76,"time":174.41666666666902,"velocity":0.7637795275590551,"duration":0.05729166666665719},{"name":"D#5","midi":75,"time":174.45833333333567,"velocity":0.7637795275590551,"duration":0.04036458333334281},{"name":"E3","midi":52,"time":174.50000000000236,"velocity":0.7637795275590551,"duration":0.08203125},{"name":"B5","midi":83,"time":174.50000000000236,"velocity":0.7637795275590551,"duration":0.04166666666665719},{"name":"A5","midi":81,"time":174.54166666666902,"velocity":0.7637795275590551,"duration":0.041666666666685614},{"name":"D#3","midi":51,"time":174.5833333333357,"velocity":0.7637795275590551,"duration":0.08203125},{"name":"B5","midi":83,"time":174.5833333333357,"velocity":0.7637795275590551,"duration":0.49869791666671404},{"name":"E3","midi":52,"time":174.66666666666904,"velocity":0.7637795275590551,"duration":0.08203125},{"name":"F#3","midi":54,"time":174.7500000000024,"velocity":0.7637795275590551,"duration":0.08203125},{"name":"E3","midi":52,"time":174.83333333333573,"velocity":0.7637795275590551,"duration":0.08203125},{"name":"D#3","midi":51,"time":174.91666666666907,"velocity":0.7637795275590551,"duration":0.08203125},{"name":"G#3","midi":56,"time":175.00000000000242,"velocity":0.7637795275590551,"duration":0.572916666666714},{"name":"F5","midi":77,"time":175.08333333333576,"velocity":0.7637795275590551,"duration":0.08203125},{"name":"E5","midi":76,"time":175.1666666666691,"velocity":0.7637795275590551,"duration":0.08203125},{"name":"F5","midi":77,"time":175.25000000000244,"velocity":0.7637795275590551,"duration":0.08203125},{"name":"E5","midi":76,"time":175.3333333333358,"velocity":0.7637795275590551,"duration":0.08203125},{"name":"D5","midi":74,"time":175.41666666666913,"velocity":0.7637795275590551,"duration":0.08203125},{"name":"E5","midi":76,"time":175.50000000000247,"velocity":0.7637795275590551,"duration":0.15624999999997158},{"name":"E3","midi":52,"time":175.5833333333358,"velocity":0.7637795275590551,"duration":0.08203125},{"name":"F#3","midi":54,"time":175.66666666666913,"velocity":0.7637795275590551,"duration":0.08203125},{"name":"B5","midi":83,"time":175.66666666666913,"velocity":0.7637795275590551,"duration":0.08203125},{"name":"G#3","midi":56,"time":175.75000000000247,"velocity":0.7637795275590551,"duration":0.08203125},{"name":"D5","midi":74,"time":175.75000000000247,"velocity":0.7637795275590551,"duration":0.32552083333337123},{"name":"F#3","midi":54,"time":175.83333333333582,"velocity":0.7637795275590551,"duration":0.08203125},{"name":"E3","midi":52,"time":175.91666666666916,"velocity":0.7637795275590551,"duration":0.08203125},{"name":"A3","midi":57,"time":176.0000000000025,"velocity":0.7637795275590551,"duration":0.24869791666668561},{"name":"E4","midi":64,"time":176.08333333333584,"velocity":0.7637795275590551,"duration":0.08203125},{"name":"F#4","midi":66,"time":176.1666666666692,"velocity":0.7637795275590551,"duration":0.08203125},{"name":"E3","midi":52,"time":176.25000000000253,"velocity":0.7637795275590551,"duration":0.24869791666668561},{"name":"G#4","midi":68,"time":176.25000000000253,"velocity":0.7637795275590551,"duration":0.08203125},{"name":"A4","midi":69,"time":176.33333333333587,"velocity":0.7637795275590551,"duration":0.08203125},{"name":"B4","midi":71,"time":176.41666666666922,"velocity":0.7637795275590551,"duration":0.08203125},{"name":"A2","midi":45,"time":176.50000000000256,"velocity":0.7637795275590551,"duration":0.24869791666668561},{"name":"C5","midi":72,"time":176.50000000000256,"velocity":0.7637795275590551,"duration":0.08203125},{"name":"A4","midi":69,"time":176.5833333333359,"velocity":0.7637795275590551,"duration":0.08203125},{"name":"B4","midi":71,"time":176.66666666666924,"velocity":0.7637795275590551,"duration":0.08203125},{"name":"A3","midi":57,"time":176.7500000000026,"velocity":0.7637795275590551,"duration":0.24869791666668561},{"name":"C5","midi":72,"time":176.7500000000026,"velocity":0.7637795275590551,"duration":0.08203125},{"name":"D5","midi":74,"time":176.83333333333593,"velocity":0.7637795275590551,"duration":0.08203125},{"name":"E5","midi":76,"time":176.91666666666927,"velocity":0.7637795275590551,"duration":0.08203125},{"name":"E3","midi":52,"time":177.00000000000261,"velocity":0.7637795275590551,"duration":0.24869791666668561},{"name":"F#5","midi":78,"time":177.00000000000261,"velocity":0.7637795275590551,"duration":0.08203125},{"name":"C5","midi":72,"time":177.08333333333596,"velocity":0.7637795275590551,"duration":0.08203125},{"name":"B4","midi":71,"time":177.1666666666693,"velocity":0.7637795275590551,"duration":0.08203125},{"name":"D#3","midi":51,"time":177.25000000000264,"velocity":0.7637795275590551,"duration":0.32552083333337123},{"name":"C5","midi":72,"time":177.25000000000264,"velocity":0.7637795275590551,"duration":0.08203125},{"name":"B4","midi":71,"time":177.333333333336,"velocity":0.7637795275590551,"duration":0.08203125},{"name":"A4","midi":69,"time":177.41666666666933,"velocity":0.7637795275590551,"duration":0.08203125},{"name":"B4","midi":71,"time":177.50000000000267,"velocity":0.7637795275590551,"duration":0.15625},{"name":"B2","midi":47,"time":177.58333333333601,"velocity":0.7637795275590551,"duration":0.08203125},{"name":"C#3","midi":49,"time":177.66666666666936,"velocity":0.7637795275590551,"duration":0.08203125},{"name":"F#5","midi":78,"time":177.66666666666936,"velocity":0.7637795275590551,"duration":0.08203125},{"name":"D#3","midi":51,"time":177.7500000000027,"velocity":0.7637795275590551,"duration":0.08203125},{"name":"A4","midi":69,"time":177.7500000000027,"velocity":0.7637795275590551,"duration":0.3320312500000284},{"name":"C#3","midi":49,"time":177.83333333333604,"velocity":0.7637795275590551,"duration":0.08203125},{"name":"B2","midi":47,"time":177.91666666666939,"velocity":0.7637795275590551,"duration":0.08203125},{"name":"E3","midi":52,"time":178.00000000000273,"velocity":0.7637795275590551,"duration":0.24869791666668561},{"name":"B3","midi":59,"time":178.08333333333607,"velocity":0.7637795275590551,"duration":0.08203125},{"name":"C#4","midi":61,"time":178.1666666666694,"velocity":0.7637795275590551,"duration":0.08203125},{"name":"B2","midi":47,"time":178.25000000000276,"velocity":0.7637795275590551,"duration":0.24869791666668561},{"name":"D#4","midi":63,"time":178.25000000000276,"velocity":0.7637795275590551,"duration":0.08203125},{"name":"E4","midi":64,"time":178.3333333333361,"velocity":0.7637795275590551,"duration":0.08203125},{"name":"F#4","midi":66,"time":178.41666666666944,"velocity":0.7637795275590551,"duration":0.08203125},{"name":"E2","midi":40,"time":178.50000000000279,"velocity":0.7637795275590551,"duration":0.24869791666668561},{"name":"G4","midi":67,"time":178.50000000000279,"velocity":0.7637795275590551,"duration":0.08203125},{"name":"E4","midi":64,"time":178.58333333333613,"velocity":0.7637795275590551,"duration":0.08203125},{"name":"F#4","midi":66,"time":178.66666666666947,"velocity":0.7637795275590551,"duration":0.08203125},{"name":"E3","midi":52,"time":178.7500000000028,"velocity":0.7637795275590551,"duration":0.24869791666668561},{"name":"G4","midi":67,"time":178.7500000000028,"velocity":0.7637795275590551,"duration":0.08203125},{"name":"A4","midi":69,"time":178.83333333333616,"velocity":0.7637795275590551,"duration":0.08203125},{"name":"B4","midi":71,"time":178.9166666666695,"velocity":0.7637795275590551,"duration":0.08203125},{"name":"A2","midi":45,"time":179.00000000000284,"velocity":0.7637795275590551,"duration":0.49479166666671404},{"name":"C5","midi":72,"time":179.00000000000284,"velocity":0.7637795275590551,"duration":0.08203125},{"name":"A4","midi":69,"time":179.08333333333618,"velocity":0.7637795275590551,"duration":0.08203125},{"name":"G#4","midi":68,"time":179.16666666666953,"velocity":0.7637795275590551,"duration":0.08203125},{"name":"A1","midi":33,"time":179.25000000000287,"velocity":0.7637795275590551,"duration":0.2473958333333428},{"name":"A4","midi":69,"time":179.25000000000287,"velocity":0.7637795275590551,"duration":0.08203125},{"name":"F4","midi":65,"time":179.3333333333362,"velocity":0.7637795275590551,"duration":0.08203125},{"name":"E4","midi":64,"time":179.41666666666956,"velocity":0.7637795275590551,"duration":0.08203125},{"name":"F4","midi":65,"time":179.5000000000029,"velocity":0.7637795275590551,"duration":0.08203125},{"name":"A3","midi":57,"time":179.58333333333624,"velocity":0.7637795275590551,"duration":0.08203125},{"name":"F5","midi":77,"time":179.58333333333624,"velocity":0.7637795275590551,"duration":0.28645833333337123},{"name":"G3","midi":55,"time":179.66666666666958,"velocity":0.7637795275590551,"duration":0.08203125},{"name":"A3","midi":57,"time":179.75000000000293,"velocity":0.7637795275590551,"duration":0.08203125},{"name":"G3","midi":55,"time":179.83333333333627,"velocity":0.7637795275590551,"duration":0.08203125},{"name":"F#3","midi":54,"time":179.9166666666696,"velocity":0.7637795275590551,"duration":0.08203125},{"name":"E5","midi":76,"time":179.9166666666696,"velocity":0.7637795275590551,"duration":0.08203125},{"name":"B3","midi":59,"time":180.00000000000296,"velocity":0.7637795275590551,"duration":0.24869791666668561},{"name":"D#5","midi":75,"time":180.00000000000296,"velocity":0.7637795275590551,"duration":0.08203125},{"name":"C5","midi":72,"time":180.0833333333363,"velocity":0.7637795275590551,"duration":0.08203125},{"name":"B4","midi":71,"time":180.16666666666964,"velocity":0.7637795275590551,"duration":0.08203125},{"name":"F#3","midi":54,"time":180.25000000000298,"velocity":0.7637795275590551,"duration":0.24869791666668561},{"name":"C5","midi":72,"time":180.25000000000298,"velocity":0.7637795275590551,"duration":0.08203125},{"name":"A4","midi":69,"time":180.33333333333633,"velocity":0.7637795275590551,"duration":0.08203125},{"name":"G#4","midi":68,"time":180.41666666666967,"velocity":0.7637795275590551,"duration":0.08203125},{"name":"D#3","midi":51,"time":180.500000000003,"velocity":0.7637795275590551,"duration":0.24869791666668561},{"name":"A4","midi":69,"time":180.500000000003,"velocity":0.7637795275590551,"duration":0.08203125},{"name":"B4","midi":71,"time":180.58333333333636,"velocity":0.7637795275590551,"duration":0.08203125},{"name":"C#5","midi":73,"time":180.6666666666697,"velocity":0.7637795275590551,"duration":0.08203125},{"name":"B2","midi":47,"time":180.75000000000304,"velocity":0.7637795275590551,"duration":0.24869791666668561},{"name":"D#5","midi":75,"time":180.75000000000304,"velocity":0.7637795275590551,"duration":0.08203125},{"name":"E5","midi":76,"time":180.83333333333638,"velocity":0.7637795275590551,"duration":0.08203125},{"name":"F#5","midi":78,"time":180.91666666666973,"velocity":0.7637795275590551,"duration":0.08203125},{"name":"E3","midi":52,"time":181.00000000000307,"velocity":0.7637795275590551,"duration":0.49479166666671404},{"name":"E5","midi":76,"time":181.00000000000307,"velocity":0.7637795275590551,"duration":0.08203125},{"name":"C5","midi":72,"time":181.0833333333364,"velocity":0.7637795275590551,"duration":0.08203125},{"name":"B4","midi":71,"time":181.16666666666976,"velocity":0.7637795275590551,"duration":0.08203125},{"name":"E2","midi":40,"time":181.2500000000031,"velocity":0.7637795275590551,"duration":0.2473958333333428},{"name":"C5","midi":72,"time":181.2500000000031,"velocity":0.7637795275590551,"duration":0.08203125},{"name":"A4","midi":69,"time":181.33333333333644,"velocity":0.7637795275590551,"duration":0.08203125},{"name":"G#4","midi":68,"time":181.41666666666978,"velocity":0.7637795275590551,"duration":0.08203125},{"name":"A4","midi":69,"time":181.50000000000313,"velocity":0.7637795275590551,"duration":0.08203125},{"name":"C4","midi":60,"time":181.58333333333647,"velocity":0.7637795275590551,"duration":0.08203125},{"name":"A5","midi":81,"time":181.58333333333647,"velocity":0.7637795275590551,"duration":0.2929687500000284},{"name":"B3","midi":59,"time":181.6666666666698,"velocity":0.7637795275590551,"duration":0.08203125},{"name":"C4","midi":60,"time":181.75000000000315,"velocity":0.7637795275590551,"duration":0.08203125},{"name":"B3","midi":59,"time":181.8333333333365,"velocity":0.7637795275590551,"duration":0.08203125},{"name":"A3","midi":57,"time":181.91666666666984,"velocity":0.7637795275590551,"duration":0.08203125},{"name":"G5","midi":79,"time":181.91666666666984,"velocity":0.7637795275590551,"duration":0.08203125},{"name":"D#4","midi":63,"time":182.00000000000318,"velocity":0.7637795275590551,"duration":0.24869791666668561},{"name":"F#5","midi":78,"time":182.00000000000318,"velocity":0.7637795275590551,"duration":0.08203125},{"name":"C5","midi":72,"time":182.08333333333653,"velocity":0.7637795275590551,"duration":0.08203125},{"name":"B4","midi":71,"time":182.16666666666987,"velocity":0.7637795275590551,"duration":0.08203125},{"name":"A3","midi":57,"time":182.2500000000032,"velocity":0.7637795275590551,"duration":0.24869791666668561},{"name":"C5","midi":72,"time":182.2500000000032,"velocity":0.7637795275590551,"duration":0.08203125},{"name":"A4","midi":69,"time":182.33333333333655,"velocity":0.7637795275590551,"duration":0.08203125},{"name":"G#4","midi":68,"time":182.4166666666699,"velocity":0.7637795275590551,"duration":0.08203125},{"name":"F#3","midi":54,"time":182.50000000000324,"velocity":0.7637795275590551,"duration":0.24869791666668561},{"name":"A4","midi":69,"time":182.50000000000324,"velocity":0.7637795275590551,"duration":0.08203125},{"name":"D#5","midi":75,"time":182.58333333333658,"velocity":0.7637795275590551,"duration":0.08203125},{"name":"E5","midi":76,"time":182.66666666666993,"velocity":0.7637795275590551,"duration":0.08203125},{"name":"D#3","midi":51,"time":182.75000000000327,"velocity":0.7637795275590551,"duration":0.24869791666668561},{"name":"F#5","midi":78,"time":182.75000000000327,"velocity":0.7637795275590551,"duration":0.08203125},{"name":"G5","midi":79,"time":182.8333333333366,"velocity":0.7637795275590551,"duration":0.08203125},{"name":"A5","midi":81,"time":182.91666666666995,"velocity":0.7637795275590551,"duration":0.08203125},{"name":"E3","midi":52,"time":183.0000000000033,"velocity":0.7637795275590551,"duration":0.49479166666671404},{"name":"G5","midi":79,"time":183.0000000000033,"velocity":0.7637795275590551,"duration":0.08203125},{"name":"E5","midi":76,"time":183.08333333333664,"velocity":0.7637795275590551,"duration":0.08203125},{"name":"D#5","midi":75,"time":183.16666666666998,"velocity":0.7637795275590551,"duration":0.08203125},{"name":"E2","midi":40,"time":183.25000000000333,"velocity":0.7637795275590551,"duration":0.2473958333333428},{"name":"E5","midi":76,"time":183.25000000000333,"velocity":0.7637795275590551,"duration":0.08203125},{"name":"C5","midi":72,"time":183.33333333333667,"velocity":0.7637795275590551,"duration":0.08203125},{"name":"B4","midi":71,"time":183.41666666667,"velocity":0.7637795275590551,"duration":0.08203125},{"name":"C5","midi":72,"time":183.50000000000335,"velocity":0.7637795275590551,"duration":0.08203125},{"name":"E4","midi":64,"time":183.5833333333367,"velocity":0.7637795275590551,"duration":0.08203125},{"name":"C6","midi":84,"time":183.5833333333367,"velocity":0.7637795275590551,"duration":0.3125000000000284},{"name":"D4","midi":62,"time":183.66666666667004,"velocity":0.7637795275590551,"duration":0.08203125},{"name":"E4","midi":64,"time":183.75000000000338,"velocity":0.7637795275590551,"duration":0.08203125},{"name":"D4","midi":62,"time":183.83333333333672,"velocity":0.7637795275590551,"duration":0.08203125},{"name":"C#4","midi":61,"time":183.91666666667007,"velocity":0.7637795275590551,"duration":0.08203125},{"name":"B5","midi":83,"time":183.91666666667007,"velocity":0.7637795275590551,"duration":0.08203125},{"name":"G4","midi":67,"time":184.0000000000034,"velocity":0.7637795275590551,"duration":0.24869791666668561},{"name":"A#5","midi":82,"time":184.0000000000034,"velocity":0.7637795275590551,"duration":0.15625},{"name":"E5","midi":76,"time":184.08333333333675,"velocity":0.7637795275590551,"duration":0.08203125},{"name":"F#5","midi":78,"time":184.1666666666701,"velocity":0.7637795275590551,"duration":0.08203125},{"name":"C#4","midi":61,"time":184.25000000000344,"velocity":0.7637795275590551,"duration":0.24869791666668561},{"name":"G5","midi":79,"time":184.25000000000344,"velocity":0.7637795275590551,"duration":0.08203125},{"name":"F#5","midi":78,"time":184.33333333333678,"velocity":0.7637795275590551,"duration":0.08203125},{"name":"E5","midi":76,"time":184.41666666667012,"velocity":0.7637795275590551,"duration":0.08203125},{"name":"F#4","midi":66,"time":184.50000000000347,"velocity":0.7637795275590551,"duration":0.24869791666668561},{"name":"D#5","midi":75,"time":184.50000000000347,"velocity":0.7637795275590551,"duration":0.15625},{"name":"A5","midi":81,"time":184.5833333333368,"velocity":0.7637795275590551,"duration":0.08203125},{"name":"B5","midi":83,"time":184.66666666667015,"velocity":0.7637795275590551,"duration":0.08203125},{"name":"F#3","midi":54,"time":184.7500000000035,"velocity":0.7637795275590551,"duration":0.24869791666668561},{"name":"C6","midi":84,"time":184.7500000000035,"velocity":0.7637795275590551,"duration":0.08203125},{"name":"B5","midi":83,"time":184.83333333333684,"velocity":0.7637795275590551,"duration":0.08203125},{"name":"A5","midi":81,"time":184.91666666667018,"velocity":0.7637795275590551,"duration":0.08203125},{"name":"G3","midi":55,"time":185.00000000000352,"velocity":0.7637795275590551,"duration":0.24869791666668561},{"name":"B5","midi":83,"time":185.00000000000352,"velocity":0.7637795275590551,"duration":0.08203125},{"name":"A5","midi":81,"time":185.08333333333687,"velocity":0.7637795275590551,"duration":0.08203125},{"name":"G5","midi":79,"time":185.1666666666702,"velocity":0.7637795275590551,"duration":0.08203125},{"name":"A3","midi":57,"time":185.25000000000355,"velocity":0.7637795275590551,"duration":0.24869791666668561},{"name":"F#5","midi":78,"time":185.25000000000355,"velocity":0.7637795275590551,"duration":0.08203125},{"name":"G5","midi":79,"time":185.3333333333369,"velocity":0.7637795275590551,"duration":0.08203125},{"name":"E5","midi":76,"time":185.41666666667024,"velocity":0.7637795275590551,"duration":0.2005208333333428},{"name":"B3","midi":59,"time":185.50000000000358,"velocity":0.7637795275590551,"duration":0.24869791666668561},{"name":"G5","midi":79,"time":185.50000000000358,"velocity":0.7637795275590551,"duration":0.2473958333333428},{"name":"B4","midi":71,"time":185.62500000000358,"velocity":0.7637795275590551,"duration":0.24739583333337123},{"name":"B2","midi":47,"time":185.7500000000036,"velocity":0.7637795275590551,"duration":0.24869791666668561},{"name":"F#5","midi":78,"time":185.7500000000036,"velocity":0.7637795275590551,"duration":0.2473958333333428},{"name":"D#5","midi":75,"time":185.7500000000036,"velocity":0.7637795275590551,"duration":0.2473958333333428},{"name":"A4","midi":69,"time":185.8750000000036,"velocity":0.7637795275590551,"duration":0.12369791666668561},{"name":"E3","midi":52,"time":186.00000000000364,"velocity":0.7637795275590551,"duration":0.08203125},{"name":"E5","midi":76,"time":186.00000000000364,"velocity":0.7637795275590551,"duration":0.5468750000000568},{"name":"B4","midi":71,"time":186.00000000000364,"velocity":0.7637795275590551,"duration":0.49479166666671404},{"name":"G4","midi":67,"time":186.00000000000364,"velocity":0.7637795275590551,"duration":0.49479166666671404},{"name":"B2","midi":47,"time":186.08333333333698,"velocity":0.7637795275590551,"duration":0.08203125},{"name":"A2","midi":45,"time":186.16666666667032,"velocity":0.7637795275590551,"duration":0.08203125},{"name":"G2","midi":43,"time":186.25000000000367,"velocity":0.7637795275590551,"duration":0.08203125},{"name":"A2","midi":45,"time":186.333333333337,"velocity":0.7637795275590551,"duration":0.08203125},{"name":"B2","midi":47,"time":186.41666666667035,"velocity":0.7637795275590551,"duration":0.08203125},{"name":"E2","midi":40,"time":186.5000000000037,"velocity":0.7637795275590551,"duration":0.1653645833333428},{"name":"B4","midi":71,"time":186.58333333333704,"velocity":0.7637795275590551,"duration":0.08203125},{"name":"G2","midi":43,"time":186.66666666667038,"velocity":0.7637795275590551,"duration":0.08203125},{"name":"A4","midi":69,"time":186.66666666667038,"velocity":0.7637795275590551,"duration":0.08203125},{"name":"B2","midi":47,"time":186.75000000000372,"velocity":0.7637795275590551,"duration":0.1653645833333428},{"name":"G4","midi":67,"time":186.75000000000372,"velocity":0.7637795275590551,"duration":0.08203125},{"name":"F#4","midi":66,"time":186.83333333333707,"velocity":0.7637795275590551,"duration":0.08203125},{"name":"E3","midi":52,"time":186.9166666666704,"velocity":0.7637795275590551,"duration":0.08203125},{"name":"G4","midi":67,"time":186.9166666666704,"velocity":0.7637795275590551,"duration":0.08203125},{"name":"A2","midi":45,"time":187.00000000000375,"velocity":0.7637795275590551,"duration":0.08203125},{"name":"C#5","midi":73,"time":187.00000000000375,"velocity":0.7637795275590551,"duration":0.1653645833333428},{"name":"B2","midi":47,"time":187.0833333333371,"velocity":0.7637795275590551,"duration":0.08203125},{"name":"C#3","midi":49,"time":187.16666666667044,"velocity":0.7637795275590551,"duration":0.08203125},{"name":"G4","midi":67,"time":187.16666666667044,"velocity":0.7637795275590551,"duration":0.08203125},{"name":"B2","midi":47,"time":187.25000000000378,"velocity":0.7637795275590551,"duration":0.08203125},{"name":"D5","midi":74,"time":187.25000000000378,"velocity":0.7637795275590551,"duration":0.1653645833333428},{"name":"C#3","midi":49,"time":187.33333333333712,"velocity":0.7637795275590551,"duration":0.08203125},{"name":"D3","midi":50,"time":187.41666666667047,"velocity":0.7637795275590551,"duration":0.08203125},{"name":"G4","midi":67,"time":187.41666666667047,"velocity":0.7637795275590551,"duration":0.08203125},{"name":"C#3","midi":49,"time":187.5000000000038,"velocity":0.7637795275590551,"duration":0.08203125},{"name":"E5","midi":76,"time":187.5000000000038,"velocity":0.7637795275590551,"duration":0.1653645833333428},{"name":"D3","midi":50,"time":187.58333333333715,"velocity":0.7637795275590551,"duration":0.08203125},{"name":"E3","midi":52,"time":187.6666666666705,"velocity":0.7637795275590551,"duration":0.08203125},{"name":"G4","midi":67,"time":187.6666666666705,"velocity":0.7637795275590551,"duration":0.08203125},{"name":"A2","midi":45,"time":187.75000000000384,"velocity":0.7637795275590551,"duration":0.08203125},{"name":"F#4","midi":66,"time":187.75000000000384,"velocity":0.7637795275590551,"duration":0.1653645833333428},{"name":"B2","midi":47,"time":187.83333333333718,"velocity":0.7637795275590551,"duration":0.08203125},{"name":"C#3","midi":49,"time":187.91666666667052,"velocity":0.7637795275590551,"duration":0.08203125},{"name":"E4","midi":64,"time":187.91666666667052,"velocity":0.7637795275590551,"duration":0.08203125},{"name":"D3","midi":50,"time":188.00000000000387,"velocity":0.7637795275590551,"duration":0.08203125},{"name":"F#4","midi":66,"time":188.00000000000387,"velocity":0.7637795275590551,"duration":0.1653645833333428},{"name":"E3","midi":52,"time":188.0833333333372,"velocity":0.7637795275590551,"duration":0.08203125},{"name":"F#3","midi":54,"time":188.16666666667055,"velocity":0.7637795275590551,"duration":0.08203125},{"name":"D4","midi":62,"time":188.16666666667055,"velocity":0.7637795275590551,"duration":0.08203125},{"name":"E3","midi":52,"time":188.2500000000039,"velocity":0.7637795275590551,"duration":0.08203125},{"name":"G4","midi":67,"time":188.2500000000039,"velocity":0.7637795275590551,"duration":0.1653645833333428},{"name":"F#3","midi":54,"time":188.33333333333724,"velocity":0.7637795275590551,"duration":0.08203125},{"name":"G3","midi":55,"time":188.41666666667058,"velocity":0.7637795275590551,"duration":0.08203125},{"name":"D4","midi":62,"time":188.41666666667058,"velocity":0.7637795275590551,"duration":0.08203125},{"name":"F#3","midi":54,"time":188.50000000000392,"velocity":0.7637795275590551,"duration":0.08203125},{"name":"A4","midi":69,"time":188.50000000000392,"velocity":0.7637795275590551,"duration":0.1653645833333428},{"name":"G3","midi":55,"time":188.58333333333727,"velocity":0.7637795275590551,"duration":0.08203125},{"name":"A3","midi":57,"time":188.6666666666706,"velocity":0.7637795275590551,"duration":0.08203125},{"name":"D4","midi":62,"time":188.6666666666706,"velocity":0.7637795275590551,"duration":0.08203125},{"name":"D3","midi":50,"time":188.75000000000395,"velocity":0.7637795275590551,"duration":0.08203125},{"name":"C5","midi":72,"time":188.75000000000395,"velocity":0.7637795275590551,"duration":0.08203125},{"name":"E3","midi":52,"time":188.8333333333373,"velocity":0.7637795275590551,"duration":0.08203125},{"name":"B4","midi":71,"time":188.8333333333373,"velocity":0.7637795275590551,"duration":0.08203125},{"name":"F#3","midi":54,"time":188.91666666667064,"velocity":0.7637795275590551,"duration":0.08203125},{"name":"A4","midi":69,"time":188.91666666667064,"velocity":0.7637795275590551,"duration":0.08203125},{"name":"G3","midi":55,"time":189.00000000000398,"velocity":0.7637795275590551,"duration":0.08203125},{"name":"B4","midi":71,"time":189.00000000000398,"velocity":0.7637795275590551,"duration":0.1653645833333428},{"name":"A3","midi":57,"time":189.08333333333732,"velocity":0.7637795275590551,"duration":0.08203125},{"name":"B3","midi":59,"time":189.16666666667066,"velocity":0.7637795275590551,"duration":0.08203125},{"name":"F4","midi":65,"time":189.16666666667066,"velocity":0.7637795275590551,"duration":0.08203125},{"name":"A3","midi":57,"time":189.250000000004,"velocity":0.7637795275590551,"duration":0.08203125},{"name":"C5","midi":72,"time":189.250000000004,"velocity":0.7637795275590551,"duration":0.1653645833333428},{"name":"B3","midi":59,"time":189.33333333333735,"velocity":0.7637795275590551,"duration":0.08203125},{"name":"C4","midi":60,"time":189.4166666666707,"velocity":0.7637795275590551,"duration":0.08203125},{"name":"F4","midi":65,"time":189.4166666666707,"velocity":0.7637795275590551,"duration":0.08203125},{"name":"B3","midi":59,"time":189.50000000000404,"velocity":0.7637795275590551,"duration":0.08203125},{"name":"D5","midi":74,"time":189.50000000000404,"velocity":0.7637795275590551,"duration":0.1653645833333428},{"name":"C4","midi":60,"time":189.58333333333738,"velocity":0.7637795275590551,"duration":0.08203125},{"name":"D4","midi":62,"time":189.66666666667072,"velocity":0.7637795275590551,"duration":0.08203125},{"name":"F4","midi":65,"time":189.66666666667072,"velocity":0.7637795275590551,"duration":0.08203125},{"name":"G3","midi":55,"time":189.75000000000406,"velocity":0.7637795275590551,"duration":0.08203125},{"name":"E4","midi":64,"time":189.75000000000406,"velocity":0.7637795275590551,"duration":0.1653645833333428},{"name":"A3","midi":57,"time":189.8333333333374,"velocity":0.7637795275590551,"duration":0.08203125},{"name":"B3","midi":59,"time":189.91666666667075,"velocity":0.7637795275590551,"duration":0.08203125},{"name":"D4","midi":62,"time":189.91666666667075,"velocity":0.7637795275590551,"duration":0.08203125},{"name":"C4","midi":60,"time":190.0000000000041,"velocity":0.7637795275590551,"duration":0.08203125},{"name":"E4","midi":64,"time":190.0000000000041,"velocity":0.7637795275590551,"duration":0.046875},{"name":"D4","midi":62,"time":190.04166666667075,"velocity":0.7637795275590551,"duration":0.04687500000002842},{"name":"B3","midi":59,"time":190.08333333333744,"velocity":0.7637795275590551,"duration":0.08203125},{"name":"E4","midi":64,"time":190.08333333333744,"velocity":0.7637795275590551,"duration":0.3320312500000284},{"name":"A3","midi":57,"time":190.16666666667078,"velocity":0.7637795275590551,"duration":0.08203125},{"name":"G#3","midi":56,"time":190.25000000000412,"velocity":0.7637795275590551,"duration":0.08203125},{"name":"A3","midi":57,"time":190.33333333333746,"velocity":0.7637795275590551,"duration":0.08203125},{"name":"B3","midi":59,"time":190.4166666666708,"velocity":0.7637795275590551,"duration":0.08203125},{"name":"E4","midi":64,"time":190.4166666666708,"velocity":0.7637795275590551,"duration":0.08203125},{"name":"A3","midi":57,"time":190.50000000000415,"velocity":0.7637795275590551,"duration":0.08203125},{"name":"C5","midi":72,"time":190.50000000000415,"velocity":0.7637795275590551,"duration":0.5598958333333997},{"name":"G3","midi":55,"time":190.5833333333375,"velocity":0.7637795275590551,"duration":0.08203125},{"name":"F#3","midi":54,"time":190.66666666667084,"velocity":0.7637795275590551,"duration":0.08203125},{"name":"E3","midi":52,"time":190.75000000000418,"velocity":0.7637795275590551,"duration":0.08203125},{"name":"F#3","midi":54,"time":190.83333333333752,"velocity":0.7637795275590551,"duration":0.08203125},{"name":"G3","midi":55,"time":190.91666666667086,"velocity":0.7637795275590551,"duration":0.08203125},{"name":"F#3","midi":54,"time":191.0000000000042,"velocity":0.7637795275590551,"duration":0.5820312500000568},{"name":"E4","midi":64,"time":191.08333333333755,"velocity":0.7637795275590551,"duration":0.08203125},{"name":"D4","midi":62,"time":191.1666666666709,"velocity":0.7637795275590551,"duration":0.08203125},{"name":"E4","midi":64,"time":191.25000000000423,"velocity":0.7637795275590551,"duration":0.08203125},{"name":"D4","midi":62,"time":191.33333333333758,"velocity":0.7637795275590551,"duration":0.08203125},{"name":"C4","midi":60,"time":191.41666666667092,"velocity":0.7637795275590551,"duration":0.08203125},{"name":"D4","midi":62,"time":191.50000000000426,"velocity":0.7637795275590551,"duration":0.24869791666668561},{"name":"F#3","midi":54,"time":191.5833333333376,"velocity":0.7637795275590551,"duration":0.08203125},{"name":"E3","midi":52,"time":191.66666666667095,"velocity":0.7637795275590551,"duration":0.08203125},{"name":"F#3","midi":54,"time":191.7500000000043,"velocity":0.7637795275590551,"duration":0.08203125},{"name":"C5","midi":72,"time":191.7500000000043,"velocity":0.7637795275590551,"duration":0.3190104166666856},{"name":"E3","midi":52,"time":191.83333333333763,"velocity":0.7637795275590551,"duration":0.08203125},{"name":"D3","midi":50,"time":191.91666666667098,"velocity":0.7637795275590551,"duration":0.08203125},{"name":"G3","midi":55,"time":192.00000000000432,"velocity":0.7637795275590551,"duration":0.2486979166666572},{"name":"B4","midi":71,"time":192.08333333333763,"velocity":0.7637795275590551,"duration":0.08203125},{"name":"C5","midi":72,"time":192.16666666667098,"velocity":0.7637795275590551,"duration":0.08203125},{"name":"G2","midi":43,"time":192.25000000000432,"velocity":0.7637795275590551,"duration":0.24869791666668561},{"name":"D5","midi":74,"time":192.25000000000432,"velocity":0.7637795275590551,"duration":0.08203125},{"name":"C5","midi":72,"time":192.33333333333766,"velocity":0.7637795275590551,"duration":0.08203125},{"name":"B4","midi":71,"time":192.416666666671,"velocity":0.7637795275590551,"duration":0.08203125},{"name":"B2","midi":47,"time":192.50000000000435,"velocity":0.7637795275590551,"duration":0.24869791666668561},{"name":"A4","midi":69,"time":192.50000000000435,"velocity":0.7637795275590551,"duration":0.08203125},{"name":"G4","midi":67,"time":192.5833333333377,"velocity":0.7637795275590551,"duration":0.08203125},{"name":"A4","midi":69,"time":192.66666666667103,"velocity":0.7637795275590551,"duration":0.08203125},{"name":"G2","midi":43,"time":192.75000000000438,"velocity":0.7637795275590551,"duration":0.24869791666668561},{"name":"B4","midi":71,"time":192.75000000000438,"velocity":0.7637795275590551,"duration":0.08203125},{"name":"A4","midi":69,"time":192.83333333333772,"velocity":0.7637795275590551,"duration":0.08203125},{"name":"G4","midi":67,"time":192.91666666667106,"velocity":0.7637795275590551,"duration":0.08203125},{"name":"C3","midi":48,"time":193.0000000000044,"velocity":0.7637795275590551,"duration":0.24869791666668561},{"name":"F4","midi":65,"time":193.0000000000044,"velocity":0.7637795275590551,"duration":0.08203125},{"name":"E4","midi":64,"time":193.08333333333775,"velocity":0.7637795275590551,"duration":0.08203125},{"name":"F4","midi":65,"time":193.1666666666711,"velocity":0.7637795275590551,"duration":0.08203125},{"name":"C2","midi":36,"time":193.25000000000443,"velocity":0.7637795275590551,"duration":0.3320312500000284},{"name":"G4","midi":67,"time":193.25000000000443,"velocity":0.7637795275590551,"duration":0.08203125},{"name":"F4","midi":65,"time":193.33333333333778,"velocity":0.7637795275590551,"duration":0.08203125},{"name":"E4","midi":64,"time":193.41666666667112,"velocity":0.7637795275590551,"duration":0.08203125},{"name":"D4","midi":62,"time":193.50000000000446,"velocity":0.7637795275590551,"duration":0.08203125},{"name":"C3","midi":48,"time":193.5833333333378,"velocity":0.7637795275590551,"duration":0.08203125},{"name":"C4","midi":60,"time":193.5833333333378,"velocity":0.7637795275590551,"duration":0.08203125},{"name":"D3","midi":50,"time":193.66666666667115,"velocity":0.7637795275590551,"duration":0.08203125},{"name":"E3","midi":52,"time":193.7500000000045,"velocity":0.7637795275590551,"duration":0.08203125},{"name":"A#4","midi":70,"time":193.7500000000045,"velocity":0.7637795275590551,"duration":0.3320312500000284},{"name":"E3","midi":52,"time":193.83333333333783,"velocity":0.7637795275590551,"duration":0.08203125},{"name":"F#3","midi":54,"time":193.91666666667118,"velocity":0.7637795275590551,"duration":0.08203125},{"name":"G3","midi":55,"time":194.00000000000452,"velocity":0.7637795275590551,"duration":0.24869791666668561},{"name":"A4","midi":69,"time":194.08333333333786,"velocity":0.7637795275590551,"duration":0.08203125},{"name":"G4","midi":67,"time":194.1666666666712,"velocity":0.7637795275590551,"duration":0.08203125},{"name":"C#3","midi":49,"time":194.25000000000455,"velocity":0.7637795275590551,"duration":0.24869791666668561},{"name":"A4","midi":69,"time":194.25000000000455,"velocity":0.7637795275590551,"duration":0.08203125},{"name":"G4","midi":67,"time":194.3333333333379,"velocity":0.7637795275590551,"duration":0.08203125},{"name":"F#4","midi":66,"time":194.41666666667123,"velocity":0.7637795275590551,"duration":0.08203125},{"name":"E3","midi":52,"time":194.50000000000458,"velocity":0.7637795275590551,"duration":0.24869791666668561},{"name":"G4","midi":67,"time":194.50000000000458,"velocity":0.7637795275590551,"duration":0.08203125},{"name":"F#4","midi":66,"time":194.58333333333792,"velocity":0.7637795275590551,"duration":0.08203125},{"name":"E4","midi":64,"time":194.66666666667126,"velocity":0.7637795275590551,"duration":0.08203125},{"name":"A2","midi":45,"time":194.7500000000046,"velocity":0.7637795275590551,"duration":0.24869791666668561},{"name":"C#5","midi":73,"time":194.7500000000046,"velocity":0.7637795275590551,"duration":0.1653645833333428},{"name":"D5","midi":74,"time":194.9166666666713,"velocity":0.7637795275590551,"duration":0.08203125},{"name":"D2","midi":38,"time":195.00000000000463,"velocity":0.7637795275590551,"duration":0.2486979166666572},{"name":"G4","midi":67,"time":195.00000000000463,"velocity":0.7637795275590551,"duration":0.12369791666665719},{"name":"F#4","midi":66,"time":195.12500000000463,"velocity":0.7637795275590551,"duration":0.0703125},{"name":"E4","midi":64,"time":195.18750000000463,"velocity":0.7637795275590551,"duration":0.0703125},{"name":"D3","midi":50,"time":195.25000000000463,"velocity":0.7637795275590551,"duration":0.32421875},{"name":"F#4","midi":66,"time":195.25000000000463,"velocity":0.7637795275590551,"duration":0.06901041666665719},{"name":"G4","midi":67,"time":195.31250000000463,"velocity":0.7637795275590551,"duration":0.0703125},{"name":"F#4","midi":66,"time":195.37500000000463,"velocity":0.7637795275590551,"duration":0.0703125},{"name":"E4","midi":64,"time":195.43750000000463,"velocity":0.7637795275590551,"duration":0.0703125},{"name":"D4","midi":62,"time":195.50000000000463,"velocity":0.7637795275590551,"duration":0.5208333333333997},{"name":"C3","midi":48,"time":195.58333333333798,"velocity":0.7637795275590551,"duration":0.08203125},{"name":"B2","midi":47,"time":195.66666666667132,"velocity":0.7637795275590551,"duration":0.08203125},{"name":"A2","midi":45,"time":195.75000000000466,"velocity":0.7637795275590551,"duration":0.08203125},{"name":"B2","midi":47,"time":195.833333333338,"velocity":0.7637795275590551,"duration":0.08203125},{"name":"C3","midi":48,"time":195.91666666667135,"velocity":0.7637795275590551,"duration":0.08203125},{"name":"B1","midi":35,"time":196.0000000000047,"velocity":0.7637795275590551,"duration":0.24869791666668561},{"name":"D4","midi":62,"time":196.08333333333803,"velocity":0.7637795275590551,"duration":0.08203125},{"name":"E4","midi":64,"time":196.16666666667138,"velocity":0.7637795275590551,"duration":0.08203125},{"name":"B3","midi":59,"time":196.25000000000472,"velocity":0.7637795275590551,"duration":0.24869791666668561},{"name":"F#4","midi":66,"time":196.25000000000472,"velocity":0.7637795275590551,"duration":0.08203125},{"name":"F#4","midi":66,"time":196.33333333333806,"velocity":0.7637795275590551,"duration":0.08203125},{"name":"G4","midi":67,"time":196.4166666666714,"velocity":0.7637795275590551,"duration":0.08203125},{"name":"A3","midi":57,"time":196.50000000000475,"velocity":0.7637795275590551,"duration":0.24869791666668561},{"name":"A4","midi":69,"time":196.50000000000475,"velocity":0.7637795275590551,"duration":0.08203125},{"name":"A4","midi":69,"time":196.5833333333381,"velocity":0.7637795275590551,"duration":0.08203125},{"name":"B4","midi":71,"time":196.66666666667143,"velocity":0.7637795275590551,"duration":0.08203125},{"name":"G3","midi":55,"time":196.75000000000477,"velocity":0.7637795275590551,"duration":0.24869791666668561},{"name":"C5","midi":72,"time":196.75000000000477,"velocity":0.7637795275590551,"duration":0.08203125},{"name":"C5","midi":72,"time":196.83333333333812,"velocity":0.7637795275590551,"duration":0.08203125},{"name":"D5","midi":74,"time":196.91666666667146,"velocity":0.7637795275590551,"duration":0.08203125},{"name":"F#3","midi":54,"time":197.0000000000048,"velocity":0.7637795275590551,"duration":0.08203125},{"name":"D#5","midi":75,"time":197.0000000000048,"velocity":0.7637795275590551,"duration":0.1653645833333428},{"name":"D2","midi":38,"time":197.08333333333815,"velocity":0.7637795275590551,"duration":0.08203125},{"name":"E2","midi":40,"time":197.1666666666715,"velocity":0.7637795275590551,"duration":0.08203125},{"name":"C#5","midi":73,"time":197.1666666666715,"velocity":0.7637795275590551,"duration":0.078125},{"name":"F#2","midi":42,"time":197.25000000000483,"velocity":0.7637795275590551,"duration":0.08203125},{"name":"D5","midi":74,"time":197.25000000000483,"velocity":0.7637795275590551,"duration":0.3906250000000284},{"name":"G2","midi":43,"time":197.33333333333817,"velocity":0.7637795275590551,"duration":0.08203125},{"name":"A2","midi":45,"time":197.41666666667152,"velocity":0.7637795275590551,"duration":0.08203125},{"name":"B2","midi":47,"time":197.50000000000486,"velocity":0.7637795275590551,"duration":0.08203125},{"name":"C3","midi":48,"time":197.5833333333382,"velocity":0.7637795275590551,"duration":0.08203125},{"name":"D3","midi":50,"time":197.66666666667155,"velocity":0.7637795275590551,"duration":0.08203125},{"name":"F#5","midi":78,"time":197.66666666667155,"velocity":0.7637795275590551,"duration":0.08203125},{"name":"E3","midi":52,"time":197.7500000000049,"velocity":0.7637795275590551,"duration":0.08203125},{"name":"G5","midi":79,"time":197.7500000000049,"velocity":0.7637795275590551,"duration":0.1653645833333428},{"name":"F#3","midi":54,"time":197.83333333333823,"velocity":0.7637795275590551,"duration":0.08203125},{"name":"G3","midi":55,"time":197.91666666667157,"velocity":0.7637795275590551,"duration":0.08203125},{"name":"B4","midi":71,"time":197.91666666667157,"velocity":0.7637795275590551,"duration":0.08203125},{"name":"A3","midi":57,"time":198.00000000000492,"velocity":0.7637795275590551,"duration":0.08203125},{"name":"C#5","midi":73,"time":198.00000000000492,"velocity":0.7637795275590551,"duration":0.1653645833333428},{"name":"G3","midi":55,"time":198.08333333333826,"velocity":0.7637795275590551,"duration":0.08203125},{"name":"F#3","midi":54,"time":198.1666666666716,"velocity":0.7637795275590551,"duration":0.08203125},{"name":"D5","midi":74,"time":198.1666666666716,"velocity":0.7637795275590551,"duration":0.08203125},{"name":"B3","midi":59,"time":198.25000000000495,"velocity":0.7637795275590551,"duration":0.08203125},{"name":"F#4","midi":66,"time":198.25000000000495,"velocity":0.7637795275590551,"duration":0.1653645833333428},{"name":"A3","midi":57,"time":198.3333333333383,"velocity":0.7637795275590551,"duration":0.08203125},{"name":"G3","midi":55,"time":198.41666666667163,"velocity":0.7637795275590551,"duration":0.08203125},{"name":"G4","midi":67,"time":198.41666666667163,"velocity":0.7637795275590551,"duration":0.08203125},{"name":"D4","midi":62,"time":198.50000000000497,"velocity":0.7637795275590551,"duration":0.2486979166666572},{"name":"B4","midi":71,"time":198.50000000000497,"velocity":0.7637795275590551,"duration":0.2903645833333428},{"name":"D3","midi":50,"time":198.75000000000497,"velocity":0.7637795275590551,"duration":0.24869791666674246},{"name":"A4","midi":69,"time":198.79166666667166,"velocity":0.7637795275590551,"duration":0.04036458333334281},{"name":"B4","midi":71,"time":198.83333333333835,"velocity":0.7637795275590551,"duration":0.04036458333334281},{"name":"A4","midi":69,"time":198.87500000000503,"velocity":0.7637795275590551,"duration":0.04036458333334281},{"name":"G4","midi":67,"time":198.91666666667172,"velocity":0.7637795275590551,"duration":0.08203125},{"name":"E3","midi":52,"time":199.00000000000506,"velocity":0.7637795275590551,"duration":0.08203125},{"name":"G4","midi":67,"time":199.00000000000506,"velocity":0.7637795275590551,"duration":0.1653645833333428},{"name":"B2","midi":47,"time":199.0833333333384,"velocity":0.7637795275590551,"duration":0.08203125},{"name":"G2","midi":43,"time":199.16666666667174,"velocity":0.7637795275590551,"duration":0.08203125},{"name":"E4","midi":64,"time":199.16666666667174,"velocity":0.7637795275590551,"duration":0.08203125},{"name":"E2","midi":40,"time":199.2500000000051,"velocity":0.7637795275590551,"duration":0.08203125},{"name":"D4","midi":62,"time":199.2500000000051,"velocity":0.7637795275590551,"duration":0.1653645833333428},{"name":"G2","midi":43,"time":199.33333333333843,"velocity":0.7637795275590551,"duration":0.08203125},{"name":"B2","midi":47,"time":199.41666666667177,"velocity":0.7637795275590551,"duration":0.08203125},{"name":"G4","midi":67,"time":199.41666666667177,"velocity":0.7637795275590551,"duration":0.08203125},{"name":"E3","midi":52,"time":199.50000000000512,"velocity":0.7637795275590551,"duration":0.08203125},{"name":"C4","midi":60,"time":199.50000000000512,"velocity":0.7637795275590551,"duration":0.1653645833333428},{"name":"D3","midi":50,"time":199.58333333333846,"velocity":0.7637795275590551,"duration":0.08203125},{"name":"C3","midi":48,"time":199.6666666666718,"velocity":0.7637795275590551,"duration":0.08203125},{"name":"G4","midi":67,"time":199.6666666666718,"velocity":0.7637795275590551,"duration":0.08203125},{"name":"D3","midi":50,"time":199.75000000000514,"velocity":0.7637795275590551,"duration":0.08203125},{"name":"B3","midi":59,"time":199.75000000000514,"velocity":0.7637795275590551,"duration":0.1653645833333428},{"name":"C3","midi":48,"time":199.8333333333385,"velocity":0.7637795275590551,"duration":0.08203125},{"name":"B2","midi":47,"time":199.91666666667183,"velocity":0.7637795275590551,"duration":0.08203125},{"name":"G4","midi":67,"time":199.91666666667183,"velocity":0.7637795275590551,"duration":0.08203125},{"name":"C3","midi":48,"time":200.00000000000517,"velocity":0.7637795275590551,"duration":0.08203125},{"name":"A3","midi":57,"time":200.00000000000517,"velocity":0.7637795275590551,"duration":0.1653645833333428},{"name":"B2","midi":47,"time":200.08333333333852,"velocity":0.7637795275590551,"duration":0.08203125},{"name":"A2","midi":45,"time":200.16666666667186,"velocity":0.7637795275590551,"duration":0.08203125},{"name":"F#4","midi":66,"time":200.16666666667186,"velocity":0.7637795275590551,"duration":0.08203125},{"name":"B2","midi":47,"time":200.2500000000052,"velocity":0.7637795275590551,"duration":0.08203125},{"name":"G4","midi":67,"time":200.2500000000052,"velocity":0.7637795275590551,"duration":0.08203125},{"name":"A2","midi":45,"time":200.33333333333854,"velocity":0.7637795275590551,"duration":0.08203125},{"name":"F#4","midi":66,"time":200.33333333333854,"velocity":0.7637795275590551,"duration":0.08203125},{"name":"G2","midi":43,"time":200.4166666666719,"velocity":0.7637795275590551,"duration":0.08203125},{"name":"E4","midi":64,"time":200.4166666666719,"velocity":0.7637795275590551,"duration":0.08203125},{"name":"D3","midi":50,"time":200.50000000000523,"velocity":0.7637795275590551,"duration":0.49479166666671404},{"name":"G4","midi":67,"time":200.50000000000523,"velocity":0.7637795275590551,"duration":0.2486979166666572},{"name":"D2","midi":38,"time":200.75000000000523,"velocity":0.7637795275590551,"duration":0.24869791666671404},{"name":"F#4","midi":66,"time":200.75000000000523,"velocity":0.7637795275590551,"duration":0.04036458333334281},{"name":"G4","midi":67,"time":200.79166666667192,"velocity":0.7637795275590551,"duration":0.04036458333334281},{"name":"F#4","midi":66,"time":200.8333333333386,"velocity":0.7637795275590551,"duration":0.08203125},{"name":"G4","midi":67,"time":200.91666666667194,"velocity":0.7637795275590551,"duration":0.08203125},{"name":"G2","midi":43,"time":201.0000000000053,"velocity":0.7637795275590551,"duration":0.1822916666666572},{"name":"G4","midi":67,"time":201.0000000000053,"velocity":0.7637795275590551,"duration":0.375},{"name":"B3","midi":59,"time":201.2500000000053,"velocity":0.7637795275590551,"duration":0.1822916666666572},{"name":"D4","midi":62,"time":201.2500000000053,"velocity":0.7637795275590551,"duration":0.1822916666666572},{"name":"B4","midi":71,"time":201.36458333333863,"velocity":0.7637795275590551,"duration":0.06510416666665719},{"name":"A4","midi":69,"time":201.43229166667194,"velocity":0.7637795275590551,"duration":0.06510416666665719},{"name":"G4","midi":67,"time":201.50000000000526,"velocity":0.7637795275590551,"duration":0.18229166666668561},{"name":"D4","midi":62,"time":201.50000000000526,"velocity":0.7637795275590551,"duration":0.18229166666668561},{"name":"B4","midi":71,"time":201.50000000000526,"velocity":0.7637795275590551,"duration":0.08203125},{"name":"D5","midi":74,"time":201.5833333333386,"velocity":0.7637795275590551,"duration":0.08203125},{"name":"C5","midi":72,"time":201.66666666667194,"velocity":0.7637795275590551,"duration":0.08203125},{"name":"G4","midi":67,"time":201.7500000000053,"velocity":0.7637795275590551,"duration":0.18229166666668561},{"name":"B4","midi":71,"time":201.7500000000053,"velocity":0.7637795275590551,"duration":0.18229166666668561},{"name":"D5","midi":74,"time":201.7500000000053,"velocity":0.7637795275590551,"duration":0.08203125},{"name":"G5","midi":79,"time":201.83333333333863,"velocity":0.7637795275590551,"duration":0.08203125},{"name":"F#5","midi":78,"time":201.91666666667197,"velocity":0.7637795275590551,"duration":0.08203125},{"name":"B4","midi":71,"time":202.00000000000531,"velocity":0.7637795275590551,"duration":0.748697916666714},{"name":"D5","midi":74,"time":202.00000000000531,"velocity":0.7637795275590551,"duration":0.748697916666714},{"name":"G5","midi":79,"time":202.00000000000531,"velocity":0.7637795275590551,"duration":0.748697916666714},{"name":"G2","midi":43,"time":202.08333333333866,"velocity":0.7637795275590551,"duration":0.08203125},{"name":"F#2","midi":42,"time":202.166666666672,"velocity":0.7637795275590551,"duration":0.08203125},{"name":"G2","midi":43,"time":202.25000000000534,"velocity":0.7637795275590551,"duration":0.08203125},{"name":"D2","midi":38,"time":202.3333333333387,"velocity":0.7637795275590551,"duration":0.08203125},{"name":"B1","midi":35,"time":202.41666666667203,"velocity":0.7637795275590551,"duration":0.08203125},{"name":"G1","midi":31,"time":202.50000000000537,"velocity":0.7637795275590551,"duration":0.7486979166666572},{"name":"D5","midi":74,"time":206.62500000000537,"velocity":0.7637795275590551,"duration":0.12369791666665719},{"name":"E5","midi":76,"time":206.75000000000537,"velocity":0.7637795275590551,"duration":0.12369791666665719},{"name":"F#5","midi":78,"time":206.87500000000537,"velocity":0.7637795275590551,"duration":0.12369791666665719},{"name":"G3","midi":55,"time":207.00000000000537,"velocity":0.7637795275590551,"duration":0.2486979166666572},{"name":"G5","midi":79,"time":207.00000000000537,"velocity":0.7637795275590551,"duration":0.12369791666665719},{"name":"D5","midi":74,"time":207.12500000000537,"velocity":0.7637795275590551,"duration":0.12369791666665719},{"name":"B3","midi":59,"time":207.25000000000537,"velocity":0.7637795275590551,"duration":0.15625},{"name":"B4","midi":71,"time":207.25000000000537,"velocity":0.7637795275590551,"duration":0.12369791666665719},{"name":"D5","midi":74,"time":207.37500000000537,"velocity":0.7637795275590551,"duration":0.12369791666665719},{"name":"D4","midi":62,"time":207.50000000000537,"velocity":0.7637795275590551,"duration":0.15625},{"name":"G4","midi":67,"time":207.50000000000537,"velocity":0.7637795275590551,"duration":0.12369791666665719},{"name":"B4","midi":71,"time":207.62500000000537,"velocity":0.7637795275590551,"duration":0.12369791666665719},{"name":"B3","midi":59,"time":207.75000000000537,"velocity":0.7637795275590551,"duration":0.15625},{"name":"D5","midi":74,"time":207.75000000000537,"velocity":0.7637795275590551,"duration":0.12369791666665719},{"name":"B4","midi":71,"time":207.87500000000537,"velocity":0.7637795275590551,"duration":0.12369791666665719},{"name":"G3","midi":55,"time":208.00000000000537,"velocity":0.7637795275590551,"duration":0.15625},{"name":"G5","midi":79,"time":208.00000000000537,"velocity":0.7637795275590551,"duration":0.12369791666665719},{"name":"D5","midi":74,"time":208.12500000000537,"velocity":0.7637795275590551,"duration":0.12369791666665719},{"name":"B5","midi":83,"time":208.25000000000537,"velocity":0.7637795275590551,"duration":0.12369791666665719},{"name":"G5","midi":79,"time":208.37500000000537,"velocity":0.7637795275590551,"duration":0.12369791666665719},{"name":"F#3","midi":54,"time":208.50000000000537,"velocity":0.7637795275590551,"duration":0.2486979166666572},{"name":"A5","midi":81,"time":208.50000000000537,"velocity":0.7637795275590551,"duration":0.12369791666665719},{"name":"F#5","midi":78,"time":208.62500000000537,"velocity":0.7637795275590551,"duration":0.12369791666665719},{"name":"A3","midi":57,"time":208.75000000000537,"velocity":0.7637795275590551,"duration":0.15625},{"name":"D5","midi":74,"time":208.75000000000537,"velocity":0.7637795275590551,"duration":0.12369791666665719},{"name":"F#5","midi":78,"time":208.87500000000537,"velocity":0.7637795275590551,"duration":0.12369791666665719},{"name":"D4","midi":62,"time":209.00000000000537,"velocity":0.7637795275590551,"duration":0.15625},{"name":"A4","midi":69,"time":209.00000000000537,"velocity":0.7637795275590551,"duration":0.12369791666665719},{"name":"D5","midi":74,"time":209.12500000000537,"velocity":0.7637795275590551,"duration":0.12369791666665719},{"name":"A3","midi":57,"time":209.25000000000537,"velocity":0.7637795275590551,"duration":0.15625},{"name":"F#5","midi":78,"time":209.25000000000537,"velocity":0.7637795275590551,"duration":0.12369791666665719},{"name":"D5","midi":74,"time":209.37500000000537,"velocity":0.7637795275590551,"duration":0.12369791666665719},{"name":"F#3","midi":54,"time":209.50000000000537,"velocity":0.7637795275590551,"duration":0.15625},{"name":"A5","midi":81,"time":209.50000000000537,"velocity":0.7637795275590551,"duration":0.12369791666665719},{"name":"F#5","midi":78,"time":209.62500000000537,"velocity":0.7637795275590551,"duration":0.12369791666665719},{"name":"C6","midi":84,"time":209.75000000000537,"velocity":0.7637795275590551,"duration":0.12369791666665719},{"name":"A5","midi":81,"time":209.87500000000537,"velocity":0.7637795275590551,"duration":0.12369791666665719},{"name":"G3","midi":55,"time":210.00000000000537,"velocity":0.7637795275590551,"duration":0.2486979166666572},{"name":"B5","midi":83,"time":210.00000000000537,"velocity":0.7637795275590551,"duration":0.12369791666665719},{"name":"G5","midi":79,"time":210.12500000000537,"velocity":0.7637795275590551,"duration":0.12369791666665719},{"name":"B3","midi":59,"time":210.25000000000537,"velocity":0.7637795275590551,"duration":0.15625},{"name":"D5","midi":74,"time":210.25000000000537,"velocity":0.7637795275590551,"duration":0.12369791666665719},{"name":"G5","midi":79,"time":210.37500000000537,"velocity":0.7637795275590551,"duration":0.12369791666665719},{"name":"D4","midi":62,"time":210.50000000000537,"velocity":0.7637795275590551,"duration":0.15625},{"name":"C6","midi":84,"time":210.50000000000537,"velocity":0.7637795275590551,"duration":0.12369791666665719},{"name":"A5","midi":81,"time":210.62500000000537,"velocity":0.7637795275590551,"duration":0.12369791666665719},{"name":"G4","midi":67,"time":210.75000000000537,"velocity":0.7637795275590551,"duration":0.2486979166666572},{"name":"B5","midi":83,"time":210.75000000000537,"velocity":0.7637795275590551,"duration":0.12369791666665719},{"name":"G5","midi":79,"time":210.87500000000537,"velocity":0.7637795275590551,"duration":0.12369791666665719},{"name":"B3","midi":59,"time":211.00000000000537,"velocity":0.7637795275590551,"duration":0.15625},{"name":"D5","midi":74,"time":211.00000000000537,"velocity":0.7637795275590551,"duration":0.12369791666665719},{"name":"G5","midi":79,"time":211.12500000000537,"velocity":0.7637795275590551,"duration":0.12369791666665719},{"name":"D4","midi":62,"time":211.25000000000537,"velocity":0.7637795275590551,"duration":0.15625},{"name":"C6","midi":84,"time":211.25000000000537,"velocity":0.7637795275590551,"duration":0.12369791666665719},{"name":"A5","midi":81,"time":211.37500000000537,"velocity":0.7637795275590551,"duration":0.12369791666665719},{"name":"G3","midi":55,"time":211.50000000000537,"velocity":0.7637795275590551,"duration":0.2486979166666572},{"name":"B5","midi":83,"time":211.50000000000537,"velocity":0.7637795275590551,"duration":0.12369791666665719},{"name":"G5","midi":79,"time":211.62500000000537,"velocity":0.7637795275590551,"duration":0.12369791666665719},{"name":"C4","midi":60,"time":211.75000000000537,"velocity":0.7637795275590551,"duration":0.15625},{"name":"A5","midi":81,"time":211.75000000000537,"velocity":0.7637795275590551,"duration":0.12369791666665719},{"name":"F#5","midi":78,"time":211.87500000000537,"velocity":0.7637795275590551,"duration":0.12369791666665719},{"name":"A3","midi":57,"time":212.00000000000537,"velocity":0.7637795275590551,"duration":0.15625},{"name":"G5","midi":79,"time":212.00000000000537,"velocity":0.7637795275590551,"duration":0.12369791666665719},{"name":"E5","midi":76,"time":212.12500000000537,"velocity":0.7637795275590551,"duration":0.12369791666665719},{"name":"D4","midi":62,"time":212.25000000000537,"velocity":0.7637795275590551,"duration":0.4947916666666572},{"name":"F#5","midi":78,"time":212.25000000000537,"velocity":0.7637795275590551,"duration":0.234375},{"name":"D5","midi":74,"time":212.37500000000537,"velocity":0.7637795275590551,"duration":0.12369791666665719},{"name":"D3","midi":50,"time":212.50000000000537,"velocity":0.7637795275590551,"duration":0.15625},{"name":"A4","midi":69,"time":212.50000000000537,"velocity":0.7637795275590551,"duration":0.12369791666665719},{"name":"D5","midi":74,"time":212.62500000000537,"velocity":0.7637795275590551,"duration":0.12369791666665719},{"name":"C4","midi":60,"time":212.75000000000537,"velocity":0.7637795275590551,"duration":0.15625},{"name":"F#5","midi":78,"time":212.75000000000537,"velocity":0.7637795275590551,"duration":0.12369791666665719},{"name":"D5","midi":74,"time":212.87500000000537,"velocity":0.7637795275590551,"duration":0.12369791666665719},{"name":"B3","midi":59,"time":213.00000000000537,"velocity":0.7637795275590551,"duration":0.15625},{"name":"G5","midi":79,"time":213.00000000000537,"velocity":0.7637795275590551,"duration":0.12369791666665719},{"name":"D5","midi":74,"time":213.12500000000537,"velocity":0.7637795275590551,"duration":0.12369791666665719},{"name":"A3","midi":57,"time":213.25000000000537,"velocity":0.7637795275590551,"duration":0.15625},{"name":"A5","midi":81,"time":213.25000000000537,"velocity":0.7637795275590551,"duration":0.12369791666665719},{"name":"D5","midi":74,"time":213.37500000000537,"velocity":0.7637795275590551,"duration":0.12369791666665719},{"name":"G3","midi":55,"time":213.50000000000537,"velocity":0.7637795275590551,"duration":0.15625},{"name":"B5","midi":83,"time":213.50000000000537,"velocity":0.7637795275590551,"duration":0.12369791666665719},{"name":"D5","midi":74,"time":213.62500000000537,"velocity":0.7637795275590551,"duration":0.12369791666665719},{"name":"C4","midi":60,"time":213.75000000000537,"velocity":0.7637795275590551,"duration":0.4947916666666572},{"name":"E5","midi":76,"time":213.75000000000537,"velocity":0.7637795275590551,"duration":0.234375},{"name":"C5","midi":72,"time":213.87500000000537,"velocity":0.7637795275590551,"duration":0.12369791666665719},{"name":"C3","midi":48,"time":214.00000000000537,"velocity":0.7637795275590551,"duration":0.15625},{"name":"G4","midi":67,"time":214.00000000000537,"velocity":0.7637795275590551,"duration":0.12369791666665719},{"name":"C5","midi":72,"time":214.12500000000537,"velocity":0.7637795275590551,"duration":0.12369791666665719},{"name":"B3","midi":59,"time":214.25000000000537,"velocity":0.7637795275590551,"duration":0.15625},{"name":"E5","midi":76,"time":214.25000000000537,"velocity":0.7637795275590551,"duration":0.12369791666665719},{"name":"C5","midi":72,"time":214.37500000000537,"velocity":0.7637795275590551,"duration":0.12369791666665719},{"name":"A3","midi":57,"time":214.50000000000537,"velocity":0.7637795275590551,"duration":0.15625},{"name":"F#5","midi":78,"time":214.50000000000537,"velocity":0.7637795275590551,"duration":0.12369791666665719},{"name":"C5","midi":72,"time":214.62500000000537,"velocity":0.7637795275590551,"duration":0.12369791666665719},{"name":"G3","midi":55,"time":214.75000000000537,"velocity":0.7637795275590551,"duration":0.15625},{"name":"G5","midi":79,"time":214.75000000000537,"velocity":0.7637795275590551,"duration":0.12369791666665719},{"name":"C5","midi":72,"time":214.87500000000537,"velocity":0.7637795275590551,"duration":0.12369791666665719},{"name":"F#3","midi":54,"time":215.00000000000537,"velocity":0.7637795275590551,"duration":0.15625},{"name":"A5","midi":81,"time":215.00000000000537,"velocity":0.7637795275590551,"duration":0.12369791666665719},{"name":"C5","midi":72,"time":215.12500000000537,"velocity":0.7637795275590551,"duration":0.12369791666665719},{"name":"B3","midi":59,"time":215.25000000000537,"velocity":0.7637795275590551,"duration":0.4947916666666572},{"name":"D#5","midi":75,"time":215.25000000000537,"velocity":0.7637795275590551,"duration":0.2213541666666572},{"name":"B4","midi":71,"time":215.37500000000537,"velocity":0.7637795275590551,"duration":0.12369791666665719},{"name":"B2","midi":47,"time":215.50000000000537,"velocity":0.7637795275590551,"duration":0.15625},{"name":"F#4","midi":66,"time":215.50000000000537,"velocity":0.7637795275590551,"duration":0.12369791666665719},{"name":"B4","midi":71,"time":215.62500000000537,"velocity":0.7637795275590551,"duration":0.12369791666665719},{"name":"A3","midi":57,"time":215.75000000000537,"velocity":0.7637795275590551,"duration":0.15625},{"name":"D#5","midi":75,"time":215.75000000000537,"velocity":0.7637795275590551,"duration":0.12369791666665719},{"name":"B4","midi":71,"time":215.87500000000537,"velocity":0.7637795275590551,"duration":0.12369791666665719},{"name":"G3","midi":55,"time":216.00000000000537,"velocity":0.7637795275590551,"duration":0.2486979166666572},{"name":"E5","midi":76,"time":216.00000000000537,"velocity":0.7637795275590551,"duration":0.12369791666665719},{"name":"B4","midi":71,"time":216.12500000000537,"velocity":0.7637795275590551,"duration":0.12369791666665719},{"name":"F#3","midi":54,"time":216.25000000000537,"velocity":0.7637795275590551,"duration":0.15625},{"name":"F#5","midi":78,"time":216.25000000000537,"velocity":0.7637795275590551,"duration":0.12369791666665719},{"name":"B4","midi":71,"time":216.37500000000537,"velocity":0.7637795275590551,"duration":0.12369791666665719},{"name":"E3","midi":52,"time":216.50000000000537,"velocity":0.7637795275590551,"duration":0.15625},{"name":"G5","midi":79,"time":216.50000000000537,"velocity":0.7637795275590551,"duration":0.12369791666665719},{"name":"B4","midi":71,"time":216.62500000000537,"velocity":0.7637795275590551,"duration":0.12369791666665719},{"name":"A3","midi":57,"time":216.75000000000537,"velocity":0.7637795275590551,"duration":0.2486979166666572},{"name":"C#5","midi":73,"time":216.75000000000537,"velocity":0.7637795275590551,"duration":0.12369791666665719},{"name":"G5","midi":79,"time":216.87500000000537,"velocity":0.7637795275590551,"duration":0.12369791666665719},{"name":"B3","midi":59,"time":217.00000000000537,"velocity":0.7637795275590551,"duration":0.15625},{"name":"D5","midi":74,"time":217.00000000000537,"velocity":0.7637795275590551,"duration":0.12369791666665719},{"name":"G5","midi":79,"time":217.12500000000537,"velocity":0.7637795275590551,"duration":0.12369791666665719},{"name":"C#4","midi":61,"time":217.25000000000537,"velocity":0.7637795275590551,"duration":0.15625},{"name":"E5","midi":76,"time":217.25000000000537,"velocity":0.7637795275590551,"duration":0.12369791666665719},{"name":"G5","midi":79,"time":217.37500000000537,"velocity":0.7637795275590551,"duration":0.12369791666665719},{"name":"D4","midi":62,"time":217.50000000000537,"velocity":0.7637795275590551,"duration":0.2486979166666572},{"name":"F#5","midi":78,"time":217.50000000000537,"velocity":0.7637795275590551,"duration":0.12369791666665719},{"name":"D5","midi":74,"time":217.62500000000537,"velocity":0.7637795275590551,"duration":0.12369791666665719},{"name":"B3","midi":59,"time":217.75000000000537,"velocity":0.7637795275590551,"duration":0.15625},{"name":"G#5","midi":80,"time":217.75000000000537,"velocity":0.7637795275590551,"duration":0.12369791666665719},{"name":"D5","midi":74,"time":217.87500000000537,"velocity":0.7637795275590551,"duration":0.12369791666665719},{"name":"E3","midi":52,"time":218.00000000000537,"velocity":0.7637795275590551,"duration":0.15625},{"name":"B5","midi":83,"time":218.00000000000537,"velocity":0.7637795275590551,"duration":0.12369791666665719},{"name":"D5","midi":74,"time":218.12500000000537,"velocity":0.7637795275590551,"duration":0.12369791666665719},{"name":"A3","midi":57,"time":218.25000000000537,"velocity":0.7637795275590551,"duration":0.4947916666666572},{"name":"C#5","midi":73,"time":218.25000000000537,"velocity":0.7637795275590551,"duration":0.12369791666665719},{"name":"D5","midi":74,"time":218.37500000000537,"velocity":0.7637795275590551,"duration":0.12369791666665719},{"name":"A2","midi":45,"time":218.50000000000537,"velocity":0.7637795275590551,"duration":0.2734375},{"name":"E5","midi":76,"time":218.50000000000537,"velocity":0.7637795275590551,"duration":0.12369791666665719},{"name":"C#5","midi":73,"time":218.62500000000537,"velocity":0.7637795275590551,"duration":0.12369791666665719},{"name":"A3","midi":57,"time":218.75000000000537,"velocity":0.7637795275590551,"duration":0.2994791666666572},{"name":"A4","midi":69,"time":218.75000000000537,"velocity":0.7637795275590551,"duration":0.3125},{"name":"G4","midi":67,"time":218.87500000000537,"velocity":0.7637795275590551,"duration":0.10416666666665719},{"name":"F#4","midi":66,"time":219.00000000000537,"velocity":0.7637795275590551,"duration":0.10416666666665719},{"name":"A4","midi":69,"time":219.12500000000537,"velocity":0.7637795275590551,"duration":0.12369791666665719},{"name":"F#3","midi":54,"time":219.25000000000537,"velocity":0.7637795275590551,"duration":0.15625},{"name":"D5","midi":74,"time":219.25000000000537,"velocity":0.7637795275590551,"duration":0.12369791666665719},{"name":"A4","midi":69,"time":219.37500000000537,"velocity":0.7637795275590551,"duration":0.12369791666665719},{"name":"D3","midi":50,"time":219.50000000000537,"velocity":0.7637795275590551,"duration":0.1822916666666572},{"name":"F#5","midi":78,"time":219.50000000000537,"velocity":0.7637795275590551,"duration":0.12369791666665719},{"name":"D5","midi":74,"time":219.62500000000537,"velocity":0.7637795275590551,"duration":0.12369791666665719},{"name":"G#5","midi":80,"time":219.75000000000537,"velocity":0.7637795275590551,"duration":0.12369791666665719},{"name":"C#3","midi":49,"time":219.87500000000537,"velocity":0.7637795275590551,"duration":0.12369791666665719},{"name":"A5","midi":81,"time":219.87500000000537,"velocity":0.7637795275590551,"duration":0.12369791666665719},{"name":"D3","midi":50,"time":220.00000000000537,"velocity":0.7637795275590551,"duration":0.12369791666665719},{"name":"A4","midi":69,"time":220.00000000000537,"velocity":0.7637795275590551,"duration":0.6236979166666572},{"name":"C#3","midi":49,"time":220.12500000000537,"velocity":0.7637795275590551,"duration":0.12369791666665719},{"name":"B2","midi":47,"time":220.25000000000537,"velocity":0.7637795275590551,"duration":0.12369791666665719},{"name":"A2","midi":45,"time":220.37500000000537,"velocity":0.7637795275590551,"duration":0.12369791666665719},{"name":"G3","midi":55,"time":220.50000000000537,"velocity":0.7637795275590551,"duration":0.2486979166666572},{"name":"B4","midi":71,"time":220.62500000000537,"velocity":0.7637795275590551,"duration":0.12369791666665719},{"name":"E3","midi":52,"time":220.75000000000537,"velocity":0.7637795275590551,"duration":0.15625},{"name":"C#5","midi":73,"time":220.75000000000537,"velocity":0.7637795275590551,"duration":0.12369791666665719},{"name":"A4","midi":69,"time":220.87500000000537,"velocity":0.7637795275590551,"duration":0.12369791666665719},{"name":"C#3","midi":49,"time":221.00000000000537,"velocity":0.7637795275590551,"duration":0.2083333333333428},{"name":"E5","midi":76,"time":221.00000000000537,"velocity":0.7637795275590551,"duration":0.12369791666665719},{"name":"A4","midi":69,"time":221.12500000000537,"velocity":0.7637795275590551,"duration":0.12369791666668561},{"name":"F#5","midi":78,"time":221.2500000000054,"velocity":0.7637795275590551,"duration":0.12369791666665719},{"name":"B2","midi":47,"time":221.3750000000054,"velocity":0.7637795275590551,"duration":0.12369791666665719},{"name":"G5","midi":79,"time":221.3750000000054,"velocity":0.7637795275590551,"duration":0.12369791666665719},{"name":"D3","midi":50,"time":221.5000000000054,"velocity":0.7637795275590551,"duration":0.12369791666665719},{"name":"A4","midi":69,"time":221.5000000000054,"velocity":0.7637795275590551,"duration":0.6145833333333428},{"name":"C#3","midi":49,"time":221.6250000000054,"velocity":0.7637795275590551,"duration":0.12369791666665719},{"name":"B2","midi":47,"time":221.7500000000054,"velocity":0.7637795275590551,"duration":0.12369791666665719},{"name":"A2","midi":45,"time":221.8750000000054,"velocity":0.7637795275590551,"duration":0.12369791666665719},{"name":"F#3","midi":54,"time":222.0000000000054,"velocity":0.7637795275590551,"duration":0.2486979166666572},{"name":"B4","midi":71,"time":222.1250000000054,"velocity":0.7637795275590551,"duration":0.12369791666665719},{"name":"E3","midi":52,"time":222.2500000000054,"velocity":0.7637795275590551,"duration":0.15625},{"name":"C#5","midi":73,"time":222.2500000000054,"velocity":0.7637795275590551,"duration":0.12369791666665719},{"name":"D5","midi":74,"time":222.3750000000054,"velocity":0.7637795275590551,"duration":0.12369791666665719},{"name":"D3","midi":50,"time":222.5000000000054,"velocity":0.7637795275590551,"duration":0.15625},{"name":"E5","midi":76,"time":222.5000000000054,"velocity":0.7637795275590551,"duration":0.12369791666665719},{"name":"F#5","midi":78,"time":222.6250000000054,"velocity":0.7637795275590551,"duration":0.12369791666665719},{"name":"C#3","midi":49,"time":222.7500000000054,"velocity":0.7637795275590551,"duration":0.2486979166666572},{"name":"G5","midi":79,"time":222.7500000000054,"velocity":0.7637795275590551,"duration":0.12369791666665719},{"name":"A5","midi":81,"time":222.8750000000054,"velocity":0.7637795275590551,"duration":0.12369791666665719},{"name":"D3","midi":50,"time":223.0000000000054,"velocity":0.7637795275590551,"duration":0.15625},{"name":"B5","midi":83,"time":223.0000000000054,"velocity":0.7637795275590551,"duration":0.12369791666665719},{"name":"C#6","midi":85,"time":223.1250000000054,"velocity":0.7637795275590551,"duration":0.12369791666665719},{"name":"E3","midi":52,"time":223.2500000000054,"velocity":0.7637795275590551,"duration":0.15625},{"name":"D6","midi":86,"time":223.2500000000054,"velocity":0.7637795275590551,"duration":0.11067708333334281},{"name":"C#6","midi":85,"time":223.3593750000054,"velocity":0.7637795275590551,"duration":0.06119791666665719},{"name":"B5","midi":83,"time":223.4296875000054,"velocity":0.7637795275590551,"duration":0.06119791666665719},{"name":"F#3","midi":54,"time":223.5000000000054,"velocity":0.7637795275590551,"duration":0.15625},{"name":"A5","midi":81,"time":223.5000000000054,"velocity":0.7637795275590551,"duration":0.12369791666665719},{"name":"G5","midi":79,"time":223.6250000000054,"velocity":0.7637795275590551,"duration":0.12369791666665719},{"name":"G3","midi":55,"time":223.7500000000054,"velocity":0.7637795275590551,"duration":0.15625},{"name":"F#5","midi":78,"time":223.7500000000054,"velocity":0.7637795275590551,"duration":0.2486979166666572},{"name":"A3","midi":57,"time":224.0000000000054,"velocity":0.7637795275590551,"duration":0.15625},{"name":"E5","midi":76,"time":224.0000000000054,"velocity":0.7637795275590551,"duration":0.06119791666665719},{"name":"D5","midi":74,"time":224.0625000000054,"velocity":0.7637795275590551,"duration":0.06119791666665719},{"name":"E5","midi":76,"time":224.1250000000054,"velocity":0.7637795275590551,"duration":0.12369791666665719},{"name":"B3","midi":59,"time":224.2500000000054,"velocity":0.7637795275590551,"duration":0.2486979166666572},{"name":"D5","midi":74,"time":224.2500000000054,"velocity":0.7637795275590551,"duration":0.12369791666665719},{"name":"A4","midi":69,"time":224.3750000000054,"velocity":0.7637795275590551,"duration":0.12369791666665719},{"name":"E3","midi":52,"time":224.5000000000054,"velocity":0.7637795275590551,"duration":0.15625},{"name":"G#4","midi":68,"time":224.5000000000054,"velocity":0.7637795275590551,"duration":0.12369791666665719},{"name":"B4","midi":71,"time":224.6250000000054,"velocity":0.7637795275590551,"duration":0.12369791666665719},{"name":"G#3","midi":56,"time":224.7500000000054,"velocity":0.7637795275590551,"duration":0.15625},{"name":"E4","midi":64,"time":224.7500000000054,"velocity":0.7637795275590551,"duration":0.12369791666665719},{"name":"D5","midi":74,"time":224.8750000000054,"velocity":0.7637795275590551,"duration":0.12369791666665719},{"name":"A3","midi":57,"time":225.0000000000054,"velocity":0.7637795275590551,"duration":0.4947916666666572},{"name":"C#5","midi":73,"time":225.0000000000054,"velocity":0.7637795275590551,"duration":0.12369791666665719},{"name":"A4","midi":69,"time":225.1250000000054,"velocity":0.7637795275590551,"duration":0.12369791666665719},{"name":"A2","midi":45,"time":225.2500000000054,"velocity":0.7637795275590551,"duration":0.15625},{"name":"E4","midi":64,"time":225.2500000000054,"velocity":0.7637795275590551,"duration":0.12369791666665719},{"name":"D4","midi":62,"time":225.3750000000054,"velocity":0.7637795275590551,"duration":0.12369791666665719},{"name":"G3","midi":55,"time":225.5000000000054,"velocity":0.7637795275590551,"duration":0.15625},{"name":"C#4","midi":61,"time":225.5000000000054,"velocity":0.7637795275590551,"duration":0.12369791666665719},{"name":"D4","midi":62,"time":225.6250000000054,"velocity":0.7637795275590551,"duration":0.12369791666665719},{"name":"F#3","midi":54,"time":225.7500000000054,"velocity":0.7637795275590551,"duration":0.15625},{"name":"C5","midi":72,"time":225.7500000000054,"velocity":0.7637795275590551,"duration":0.12369791666665719},{"name":"A4","midi":69,"time":225.8750000000054,"velocity":0.7637795275590551,"duration":0.12369791666665719},{"name":"D3","midi":50,"time":226.0000000000054,"velocity":0.7637795275590551,"duration":0.15625},{"name":"F#4","midi":66,"time":226.0000000000054,"velocity":0.7637795275590551,"duration":0.12369791666665719},{"name":"D4","midi":62,"time":226.1250000000054,"velocity":0.7637795275590551,"duration":0.12369791666665719},{"name":"F#3","midi":54,"time":226.2500000000054,"velocity":0.7637795275590551,"duration":0.15625},{"name":"C#4","midi":61,"time":226.2500000000054,"velocity":0.7637795275590551,"duration":0.12369791666665719},{"name":"D4","midi":62,"time":226.3750000000054,"velocity":0.7637795275590551,"duration":0.12369791666665719},{"name":"G3","midi":55,"time":226.5000000000054,"velocity":0.7637795275590551,"duration":0.2486979166666572},{"name":"B4","midi":71,"time":226.5000000000054,"velocity":0.7637795275590551,"duration":0.12369791666665719},{"name":"A4","midi":69,"time":226.6250000000054,"velocity":0.7637795275590551,"duration":0.12369791666665719},{"name":"B2","midi":47,"time":226.7500000000054,"velocity":0.7637795275590551,"duration":0.15625},{"name":"G4","midi":67,"time":226.7500000000054,"velocity":0.7637795275590551,"duration":0.12369791666665719},{"name":"D4","midi":62,"time":226.8750000000054,"velocity":0.7637795275590551,"duration":0.12369791666665719},{"name":"E3","midi":52,"time":227.0000000000054,"velocity":0.7637795275590551,"duration":0.15625},{"name":"C#4","midi":61,"time":227.0000000000054,"velocity":0.7637795275590551,"duration":0.12369791666665719},{"name":"D4","midi":62,"time":227.1250000000054,"velocity":0.7637795275590551,"duration":0.12369791666665719},{"name":"F#3","midi":54,"time":227.2500000000054,"velocity":0.7637795275590551,"duration":0.2486979166666572},{"name":"A4","midi":69,"time":227.2500000000054,"velocity":0.7637795275590551,"duration":0.12369791666665719},{"name":"G4","midi":67,"time":227.3750000000054,"velocity":0.7637795275590551,"duration":0.12369791666665719},{"name":"A2","midi":45,"time":227.5000000000054,"velocity":0.7637795275590551,"duration":0.15625},{"name":"F#4","midi":66,"time":227.5000000000054,"velocity":0.7637795275590551,"duration":0.12369791666665719},{"name":"D4","midi":62,"time":227.6250000000054,"velocity":0.7637795275590551,"duration":0.12369791666665719},{"name":"D3","midi":50,"time":227.7500000000054,"velocity":0.7637795275590551,"duration":0.15625},{"name":"C#4","midi":61,"time":227.7500000000054,"velocity":0.7637795275590551,"duration":0.12369791666665719},{"name":"D4","midi":62,"time":227.8750000000054,"velocity":0.7637795275590551,"duration":0.12369791666665719},{"name":"E3","midi":52,"time":228.0000000000054,"velocity":0.7637795275590551,"duration":0.2486979166666572},{"name":"G4","midi":67,"time":228.0000000000054,"velocity":0.7637795275590551,"duration":0.12369791666665719},{"name":"F#4","midi":66,"time":228.1250000000054,"velocity":0.7637795275590551,"duration":0.12369791666665719},{"name":"G2","midi":43,"time":228.2500000000054,"velocity":0.7637795275590551,"duration":0.15625},{"name":"E4","midi":64,"time":228.2500000000054,"velocity":0.7637795275590551,"duration":0.12369791666665719},{"name":"D4","midi":62,"time":228.3750000000054,"velocity":0.7637795275590551,"duration":0.12369791666665719},{"name":"B2","midi":47,"time":228.5000000000054,"velocity":0.7637795275590551,"duration":0.15625},{"name":"C#4","midi":61,"time":228.5000000000054,"velocity":0.7637795275590551,"duration":0.12369791666665719},{"name":"B3","midi":59,"time":228.6250000000054,"velocity":0.7637795275590551,"duration":0.12369791666665719},{"name":"C#3","midi":49,"time":228.7500000000054,"velocity":0.7637795275590551,"duration":0.2486979166666572},{"name":"A3","midi":57,"time":228.7500000000054,"velocity":0.7637795275590551,"duration":0.12369791666665719},{"name":"C#4","midi":61,"time":228.8750000000054,"velocity":0.7637795275590551,"duration":0.12369791666665719},{"name":"A3","midi":57,"time":229.0000000000054,"velocity":0.7637795275590551,"duration":0.15625},{"name":"E4","midi":64,"time":229.0000000000054,"velocity":0.7637795275590551,"duration":0.12369791666665719},{"name":"G4","midi":67,"time":229.1250000000054,"velocity":0.7637795275590551,"duration":0.12369791666665719},{"name":"G3","midi":55,"time":229.2500000000054,"velocity":0.7637795275590551,"duration":0.15625},{"name":"C#5","midi":73,"time":229.2500000000054,"velocity":0.7637795275590551,"duration":0.12369791666665719},{"name":"E5","midi":76,"time":229.3750000000054,"velocity":0.7637795275590551,"duration":0.12369791666665719},{"name":"F#3","midi":54,"time":229.5000000000054,"velocity":0.7637795275590551,"duration":0.15625},{"name":"A5","midi":81,"time":229.5000000000054,"velocity":0.7637795275590551,"duration":0.1822916666666572},{"name":"G2","midi":43,"time":229.7500000000054,"velocity":0.7637795275590551,"duration":0.15625},{"name":"D5","midi":74,"time":229.7500000000054,"velocity":0.7637795275590551,"duration":0.1822916666666572},{"name":"F#4","midi":66,"time":229.7500000000054,"velocity":0.7637795275590551,"duration":0.1822916666666572},{"name":"A2","midi":45,"time":230.0000000000054,"velocity":0.7637795275590551,"duration":0.15625},{"name":"C#5","midi":73,"time":230.0000000000054,"velocity":0.7637795275590551,"duration":0.1822916666666572},{"name":"E4","midi":64,"time":230.0000000000054,"velocity":0.7637795275590551,"duration":0.1822916666666572},{"name":"D2","midi":38,"time":230.2500000000054,"velocity":0.7637795275590551,"duration":0.3736979166666572},{"name":"D5","midi":74,"time":230.2500000000054,"velocity":0.7637795275590551,"duration":0.4427083333333428},{"name":"F#4","midi":66,"time":230.2500000000054,"velocity":0.7637795275590551,"duration":0.4427083333333428},{"name":"A3","midi":57,"time":230.6250000000054,"velocity":0.7637795275590551,"duration":0.12369791666668561},{"name":"B3","midi":59,"time":230.75000000000543,"velocity":0.7637795275590551,"duration":0.12369791666665719},{"name":"C#4","midi":61,"time":230.87500000000543,"velocity":0.7637795275590551,"duration":0.12369791666665719},{"name":"A5","midi":81,"time":230.87500000000543,"velocity":0.7637795275590551,"duration":0.12369791666665719},{"name":"D4","midi":62,"time":231.00000000000543,"velocity":0.7637795275590551,"duration":0.12369791666665719},{"name":"F#5","midi":78,"time":231.00000000000543,"velocity":0.7637795275590551,"duration":0.2864583333333428},{"name":"A3","midi":57,"time":231.12500000000543,"velocity":0.7637795275590551,"duration":0.12369791666665719},{"name":"F#3","midi":54,"time":231.25000000000543,"velocity":0.7637795275590551,"duration":0.12369791666668561},{"name":"D5","midi":74,"time":231.25000000000543,"velocity":0.7637795275590551,"duration":0.18229166666668561},{"name":"A3","midi":57,"time":231.37500000000546,"velocity":0.7637795275590551,"duration":0.12369791666665719},{"name":"E3","midi":52,"time":231.50000000000546,"velocity":0.7637795275590551,"duration":0.12369791666665719},{"name":"C#5","midi":73,"time":231.50000000000546,"velocity":0.7637795275590551,"duration":0.1822916666666572},{"name":"G3","midi":55,"time":231.62500000000546,"velocity":0.7637795275590551,"duration":0.12369791666665719},{"name":"F#3","midi":54,"time":231.75000000000546,"velocity":0.7637795275590551,"duration":0.12369791666665719},{"name":"D5","midi":74,"time":231.75000000000546,"velocity":0.7637795275590551,"duration":0.2864583333333428},{"name":"A3","midi":57,"time":231.87500000000546,"velocity":0.7637795275590551,"duration":0.12369791666665719},{"name":"G3","midi":55,"time":232.00000000000546,"velocity":0.7637795275590551,"duration":0.12369791666668561},{"name":"E5","midi":76,"time":232.00000000000546,"velocity":0.7637795275590551,"duration":0.18229166666668561},{"name":"B3","midi":59,"time":232.12500000000549,"velocity":0.7637795275590551,"duration":0.12369791666665719},{"name":"A3","midi":57,"time":232.25000000000549,"velocity":0.7637795275590551,"duration":0.12369791666665719},{"name":"F#5","midi":78,"time":232.25000000000549,"velocity":0.7637795275590551,"duration":0.1822916666666572},{"name":"C4","midi":60,"time":232.37500000000549,"velocity":0.7637795275590551,"duration":0.12369791666665719},{"name":"B3","midi":59,"time":232.50000000000549,"velocity":0.7637795275590551,"duration":0.12369791666665719},{"name":"G5","midi":79,"time":232.50000000000549,"velocity":0.7637795275590551,"duration":0.12369791666665719},{"name":"D4","midi":62,"time":232.62500000000549,"velocity":0.7637795275590551,"duration":0.12369791666665719},{"name":"A5","midi":81,"time":232.62500000000549,"velocity":0.7637795275590551,"duration":0.12369791666665719},{"name":"C4","midi":60,"time":232.75000000000549,"velocity":0.7637795275590551,"duration":0.12369791666665719},{"name":"B5","midi":83,"time":232.75000000000549,"velocity":0.7637795275590551,"duration":0.06119791666665719},{"name":"A5","midi":81,"time":232.81250000000549,"velocity":0.7637795275590551,"duration":0.06119791666665719},{"name":"E4","midi":64,"time":232.87500000000549,"velocity":0.7637795275590551,"duration":0.12369791666665719},{"name":"B5","midi":83,"time":232.87500000000549,"velocity":0.7637795275590551,"duration":0.06119791666665719},{"name":"A5","midi":81,"time":232.93750000000549,"velocity":0.7637795275590551,"duration":0.06119791666665719},{"name":"D4","midi":62,"time":233.00000000000549,"velocity":0.7637795275590551,"duration":0.12369791666665719},{"name":"B5","midi":83,"time":233.00000000000549,"velocity":0.7637795275590551,"duration":0.06119791666665719},{"name":"A5","midi":81,"time":233.06250000000549,"velocity":0.7637795275590551,"duration":0.06119791666665719},{"name":"F#4","midi":66,"time":233.12500000000549,"velocity":0.7637795275590551,"duration":0.12369791666665719},{"name":"G5","midi":79,"time":233.12500000000549,"velocity":0.7637795275590551,"duration":0.06119791666665719},{"name":"A5","midi":81,"time":233.18750000000549,"velocity":0.7637795275590551,"duration":0.06119791666665719},{"name":"G4","midi":67,"time":233.25000000000549,"velocity":0.7637795275590551,"duration":0.12369791666665719},{"name":"B5","midi":83,"time":233.25000000000549,"velocity":0.7637795275590551,"duration":0.4947916666666572},{"name":"D4","midi":62,"time":233.37500000000549,"velocity":0.7637795275590551,"duration":0.12369791666665719},{"name":"B3","midi":59,"time":233.50000000000549,"velocity":0.7637795275590551,"duration":0.12369791666665719},{"name":"D4","midi":62,"time":233.62500000000549,"velocity":0.7637795275590551,"duration":0.12369791666665719},{"name":"G3","midi":55,"time":233.75000000000549,"velocity":0.7637795275590551,"duration":0.12369791666665719},{"name":"B4","midi":71,"time":233.75000000000549,"velocity":0.7637795275590551,"duration":0.1822916666666572},{"name":"B3","midi":59,"time":233.87500000000549,"velocity":0.7637795275590551,"duration":0.12369791666665719},{"name":"C4","midi":60,"time":234.00000000000549,"velocity":0.7637795275590551,"duration":0.12369791666665719},{"name":"E5","midi":76,"time":234.00000000000549,"velocity":0.7637795275590551,"duration":0.2864583333333428},{"name":"B3","midi":59,"time":234.12500000000549,"velocity":0.7637795275590551,"duration":0.12369791666665719},{"name":"A3","midi":57,"time":234.25000000000549,"velocity":0.7637795275590551,"duration":0.12369791666668561},{"name":"D#5","midi":75,"time":234.25000000000549,"velocity":0.7637795275590551,"duration":0.18229166666668561},{"name":"B3","midi":59,"time":234.3750000000055,"velocity":0.7637795275590551,"duration":0.12369791666665719},{"name":"G3","midi":55,"time":234.5000000000055,"velocity":0.7637795275590551,"duration":0.12369791666665719},{"name":"E5","midi":76,"time":234.5000000000055,"velocity":0.7637795275590551,"duration":0.1822916666666572},{"name":"B3","midi":59,"time":234.6250000000055,"velocity":0.7637795275590551,"duration":0.12369791666665719},{"name":"F#3","midi":54,"time":234.7500000000055,"velocity":0.7637795275590551,"duration":0.12369791666665719},{"name":"A5","midi":81,"time":234.7500000000055,"velocity":0.7637795275590551,"duration":0.2994791666666572},{"name":"A3","midi":57,"time":234.8750000000055,"velocity":0.7637795275590551,"duration":0.12369791666665719},{"name":"E3","midi":52,"time":235.0000000000055,"velocity":0.7637795275590551,"duration":0.12369791666665719},{"name":"C5","midi":72,"time":235.0000000000055,"velocity":0.7637795275590551,"duration":0.1822916666666572},{"name":"A3","midi":57,"time":235.1250000000055,"velocity":0.7637795275590551,"duration":0.12369791666665719},{"name":"D#3","midi":51,"time":235.2500000000055,"velocity":0.7637795275590551,"duration":0.12369791666665719},{"name":"B4","midi":71,"time":235.2500000000055,"velocity":0.7637795275590551,"duration":0.1822916666666572},{"name":"A3","midi":57,"time":235.3750000000055,"velocity":0.7637795275590551,"duration":0.12369791666665719},{"name":"E3","midi":52,"time":235.5000000000055,"velocity":0.7637795275590551,"duration":0.12369791666665719},{"name":"G5","midi":79,"time":235.5000000000055,"velocity":0.7637795275590551,"duration":0.2486979166666572},{"name":"G3","midi":55,"time":235.6250000000055,"velocity":0.7637795275590551,"duration":0.12369791666665719},{"name":"D3","midi":50,"time":235.7500000000055,"velocity":0.7637795275590551,"duration":0.12369791666665719},{"name":"A5","midi":81,"time":235.7500000000055,"velocity":0.7637795275590551,"duration":0.12369791666665719},{"name":"G3","midi":55,"time":235.8750000000055,"velocity":0.7637795275590551,"duration":0.12369791666665719},{"name":"G5","midi":79,"time":235.8750000000055,"velocity":0.7637795275590551,"duration":0.12369791666665719},{"name":"C3","midi":48,"time":236.0000000000055,"velocity":0.7637795275590551,"duration":0.12369791666665719},{"name":"F#5","midi":78,"time":236.0000000000055,"velocity":0.7637795275590551,"duration":0.12369791666665719},{"name":"A3","midi":57,"time":236.1250000000055,"velocity":0.7637795275590551,"duration":0.12369791666665719},{"name":"E5","midi":76,"time":236.1250000000055,"velocity":0.7637795275590551,"duration":0.12369791666665719},{"name":"B3","midi":59,"time":236.2500000000055,"velocity":0.7637795275590551,"duration":0.12369791666665719},{"name":"D#5","midi":75,"time":236.2500000000055,"velocity":0.7637795275590551,"duration":0.2864583333333428},{"name":"F#3","midi":54,"time":236.3750000000055,"velocity":0.7637795275590551,"duration":0.12369791666665719},{"name":"D#3","midi":51,"time":236.5000000000055,"velocity":0.7637795275590551,"duration":0.12369791666668561},{"name":"B4","midi":71,"time":236.5000000000055,"velocity":0.7637795275590551,"duration":0.18229166666668561},{"name":"F#3","midi":54,"time":236.62500000000554,"velocity":0.7637795275590551,"duration":0.12369791666665719},{"name":"A2","midi":45,"time":236.75000000000554,"velocity":0.7637795275590551,"duration":0.12369791666665719},{"name":"B5","midi":83,"time":236.75000000000554,"velocity":0.7637795275590551,"duration":0.4817708333333428},{"name":"D#3","midi":51,"time":236.87500000000554,"velocity":0.7637795275590551,"duration":0.12369791666665719},{"name":"G2","midi":43,"time":237.00000000000554,"velocity":0.7637795275590551,"duration":0.12369791666665719},{"name":"B2","midi":47,"time":237.12500000000554,"velocity":0.7637795275590551,"duration":0.12369791666668561},{"name":"E3","midi":52,"time":237.25000000000557,"velocity":0.7637795275590551,"duration":0.12369791666665719},{"name":"G5","midi":79,"time":237.25000000000557,"velocity":0.7637795275590551,"duration":0.1822916666666572},{"name":"B2","midi":47,"time":237.37500000000557,"velocity":0.7637795275590551,"duration":0.12369791666665719},{"name":"G3","midi":55,"time":237.50000000000557,"velocity":0.7637795275590551,"duration":0.12369791666665719},{"name":"E5","midi":76,"time":237.50000000000557,"velocity":0.7637795275590551,"duration":0.1822916666666572},{"name":"E3","midi":52,"time":237.62500000000557,"velocity":0.7637795275590551,"duration":0.12369791666665719},{"name":"A#3","midi":58,"time":237.75000000000557,"velocity":0.7637795275590551,"duration":0.12369791666665719},{"name":"B3","midi":59,"time":237.87500000000557,"velocity":0.7637795275590551,"duration":0.12369791666665719},{"name":"D#5","midi":75,"time":237.87500000000557,"velocity":0.7637795275590551,"duration":0.12369791666665719},{"name":"B2","midi":47,"time":238.00000000000557,"velocity":0.7637795275590551,"duration":0.5989583333333428},{"name":"E5","midi":76,"time":238.00000000000557,"velocity":0.7637795275590551,"duration":0.12369791666665719},{"name":"D#5","midi":75,"time":238.12500000000557,"velocity":0.7637795275590551,"duration":0.12369791666665719},{"name":"C#5","midi":73,"time":238.25000000000557,"velocity":0.7637795275590551,"duration":0.12369791666665719},{"name":"B4","midi":71,"time":238.37500000000557,"velocity":0.7637795275590551,"duration":0.12369791666665719},{"name":"A5","midi":81,"time":238.50000000000557,"velocity":0.7637795275590551,"duration":0.2213541666666572},{"name":"C#3","midi":49,"time":238.62500000000557,"velocity":0.7637795275590551,"duration":0.12369791666665719},{"name":"D#3","midi":51,"time":238.75000000000557,"velocity":0.7637795275590551,"duration":0.12369791666665719},{"name":"F#5","midi":78,"time":238.75000000000557,"velocity":0.7637795275590551,"duration":0.1822916666666572},{"name":"B2","midi":47,"time":238.87500000000557,"velocity":0.7637795275590551,"duration":0.12369791666665719},{"name":"F#3","midi":54,"time":239.00000000000557,"velocity":0.7637795275590551,"duration":0.12369791666665719},{"name":"D#5","midi":75,"time":239.00000000000557,"velocity":0.7637795275590551,"duration":0.2083333333333428},{"name":"B2","midi":47,"time":239.12500000000557,"velocity":0.7637795275590551,"duration":0.12369791666668561},{"name":"G3","midi":55,"time":239.2500000000056,"velocity":0.7637795275590551,"duration":0.12369791666665719},{"name":"A3","midi":57,"time":239.3750000000056,"velocity":0.7637795275590551,"duration":0.12369791666665719},{"name":"C#5","midi":73,"time":239.3750000000056,"velocity":0.7637795275590551,"duration":0.12369791666665719},{"name":"B2","midi":47,"time":239.5000000000056,"velocity":0.7637795275590551,"duration":0.5989583333333428},{"name":"E5","midi":76,"time":239.5000000000056,"velocity":0.7637795275590551,"duration":0.12369791666665719},{"name":"D#5","midi":75,"time":239.6250000000056,"velocity":0.7637795275590551,"duration":0.12369791666665719},{"name":"C#5","midi":73,"time":239.7500000000056,"velocity":0.7637795275590551,"duration":0.12369791666665719},{"name":"B4","midi":71,"time":239.8750000000056,"velocity":0.7637795275590551,"duration":0.10416666666665719},{"name":"G5","midi":79,"time":240.0000000000056,"velocity":0.7637795275590551,"duration":0.2994791666666572},{"name":"C#3","midi":49,"time":240.1250000000056,"velocity":0.7637795275590551,"duration":0.12369791666665719},{"name":"D#3","midi":51,"time":240.2500000000056,"velocity":0.7637795275590551,"duration":0.12369791666665719},{"name":"F#5","midi":78,"time":240.2500000000056,"velocity":0.7637795275590551,"duration":0.1822916666666572},{"name":"E3","midi":52,"time":240.3750000000056,"velocity":0.7637795275590551,"duration":0.12369791666665719},{"name":"F#3","midi":54,"time":240.5000000000056,"velocity":0.7637795275590551,"duration":0.12369791666665719},{"name":"E5","midi":76,"time":240.5000000000056,"velocity":0.7637795275590551,"duration":0.1822916666666572},{"name":"G3","midi":55,"time":240.6250000000056,"velocity":0.7637795275590551,"duration":0.12369791666665719},{"name":"A3","midi":57,"time":240.7500000000056,"velocity":0.7637795275590551,"duration":0.12369791666665719},{"name":"C6","midi":84,"time":240.7500000000056,"velocity":0.7637795275590551,"duration":0.2486979166666572},{"name":"B3","midi":59,"time":240.8750000000056,"velocity":0.7637795275590551,"duration":0.12369791666665719},{"name":"C#4","midi":61,"time":241.0000000000056,"velocity":0.7637795275590551,"duration":0.12369791666665719},{"name":"B5","midi":83,"time":241.0000000000056,"velocity":0.7637795275590551,"duration":0.1822916666666572},{"name":"D#4","midi":63,"time":241.1250000000056,"velocity":0.7637795275590551,"duration":0.12369791666665719},{"name":"E4","midi":64,"time":241.2500000000056,"velocity":0.7637795275590551,"duration":0.10416666666665719},{"name":"A5","midi":81,"time":241.2500000000056,"velocity":0.7637795275590551,"duration":0.3359375},{"name":"D#4","midi":63,"time":241.3750000000056,"velocity":0.7637795275590551,"duration":0.10416666666665719},{"name":"E4","midi":64,"time":241.5000000000056,"velocity":0.7637795275590551,"duration":0.2486979166666572},{"name":"G5","midi":79,"time":241.6250000000056,"velocity":0.7637795275590551,"duration":0.12369791666665719},{"name":"G3","midi":55,"time":241.7500000000056,"velocity":0.7637795275590551,"duration":0.2213541666666572},{"name":"B5","midi":83,"time":241.7500000000056,"velocity":0.7637795275590551,"duration":0.12369791666665719},{"name":"A5","midi":81,"time":241.8750000000056,"velocity":0.7637795275590551,"duration":0.12369791666665719},{"name":"B3","midi":59,"time":242.0000000000056,"velocity":0.7637795275590551,"duration":0.22135416666668561},{"name":"G5","midi":79,"time":242.0000000000056,"velocity":0.7637795275590551,"duration":0.1263020833333428},{"name":"F#5","midi":78,"time":242.1250000000056,"velocity":0.7637795275590551,"duration":0.12760416666668561},{"name":"E3","midi":52,"time":242.25000000000563,"velocity":0.7637795275590551,"duration":0.12369791666665719},{"name":"E5","midi":76,"time":242.25000000000563,"velocity":0.7637795275590551,"duration":0.546875},{"name":"B2","midi":47,"time":242.37500000000563,"velocity":0.7637795275590551,"duration":0.12369791666665719},{"name":"G2","midi":43,"time":242.50000000000563,"velocity":0.7637795275590551,"duration":0.12369791666665719},{"name":"B2","midi":47,"time":242.62500000000563,"velocity":0.7637795275590551,"duration":0.12369791666665719},{"name":"E2","midi":40,"time":242.75000000000563,"velocity":0.7637795275590551,"duration":0.12369791666665719},{"name":"G5","midi":79,"time":242.75000000000563,"velocity":0.7637795275590551,"duration":0.1692708333333428},{"name":"E3","midi":52,"time":242.87500000000563,"velocity":0.7637795275590551,"duration":0.12369791666668561},{"name":"A2","midi":45,"time":243.00000000000566,"velocity":0.7637795275590551,"duration":0.12369791666665719},{"name":"C#5","midi":73,"time":243.00000000000566,"velocity":0.7637795275590551,"duration":0.2994791666666572},{"name":"B2","midi":47,"time":243.12500000000566,"velocity":0.7637795275590551,"duration":0.12369791666665719},{"name":"C#3","midi":49,"time":243.25000000000566,"velocity":0.7637795275590551,"duration":0.12369791666665719},{"name":"A4","midi":69,"time":243.25000000000566,"velocity":0.7637795275590551,"duration":0.1692708333333428},{"name":"A2","midi":45,"time":243.37500000000566,"velocity":0.7637795275590551,"duration":0.12369791666668561},{"name":"D3","midi":50,"time":243.50000000000568,"velocity":0.7637795275590551,"duration":0.12369791666665719},{"name":"B4","midi":71,"time":243.50000000000568,"velocity":0.7637795275590551,"duration":0.1692708333333428},{"name":"A2","midi":45,"time":243.62500000000568,"velocity":0.7637795275590551,"duration":0.12369791666668561},{"name":"E3","midi":52,"time":243.7500000000057,"velocity":0.7637795275590551,"duration":0.12369791666665719},{"name":"C#5","midi":73,"time":243.7500000000057,"velocity":0.7637795275590551,"duration":0.1692708333333428},{"name":"A2","midi":45,"time":243.8750000000057,"velocity":0.7637795275590551,"duration":0.12369791666668561},{"name":"F#3","midi":54,"time":244.00000000000574,"velocity":0.7637795275590551,"duration":0.12369791666665719},{"name":"D5","midi":74,"time":244.00000000000574,"velocity":0.7637795275590551,"duration":0.1692708333333428},{"name":"A2","midi":45,"time":244.12500000000574,"velocity":0.7637795275590551,"duration":0.12369791666668561},{"name":"G3","midi":55,"time":244.25000000000577,"velocity":0.7637795275590551,"duration":0.12369791666665719},{"name":"E5","midi":76,"time":244.25000000000577,"velocity":0.7637795275590551,"duration":0.1692708333333428},{"name":"A2","midi":45,"time":244.37500000000577,"velocity":0.7637795275590551,"duration":0.12369791666668561},{"name":"D3","midi":50,"time":244.5000000000058,"velocity":0.7637795275590551,"duration":0.12369791666665719},{"name":"F#5","midi":78,"time":244.5000000000058,"velocity":0.7637795275590551,"duration":0.2994791666666572},{"name":"E3","midi":52,"time":244.6250000000058,"velocity":0.7637795275590551,"duration":0.12369791666665719},{"name":"F#3","midi":54,"time":244.7500000000058,"velocity":0.7637795275590551,"duration":0.12369791666665719},{"name":"D5","midi":74,"time":244.7500000000058,"velocity":0.7637795275590551,"duration":0.1692708333333428},{"name":"D3","midi":50,"time":244.8750000000058,"velocity":0.7637795275590551,"duration":0.12369791666668561},{"name":"G3","midi":55,"time":245.00000000000583,"velocity":0.7637795275590551,"duration":0.12369791666665719},{"name":"E5","midi":76,"time":245.00000000000583,"velocity":0.7637795275590551,"duration":0.1692708333333428},{"name":"D3","midi":50,"time":245.12500000000583,"velocity":0.7637795275590551,"duration":0.12369791666668561},{"name":"A3","midi":57,"time":245.25000000000585,"velocity":0.7637795275590551,"duration":0.12369791666665719},{"name":"F#5","midi":78,"time":245.25000000000585,"velocity":0.7637795275590551,"duration":0.1692708333333428},{"name":"D3","midi":50,"time":245.37500000000585,"velocity":0.7637795275590551,"duration":0.12369791666668561},{"name":"B3","midi":59,"time":245.50000000000588,"velocity":0.7637795275590551,"duration":0.12369791666665719},{"name":"G5","midi":79,"time":245.50000000000588,"velocity":0.7637795275590551,"duration":0.1692708333333428},{"name":"D3","midi":50,"time":245.62500000000588,"velocity":0.7637795275590551,"duration":0.12369791666668561},{"name":"C4","midi":60,"time":245.7500000000059,"velocity":0.7637795275590551,"duration":0.12369791666665719},{"name":"A5","midi":81,"time":245.7500000000059,"velocity":0.7637795275590551,"duration":0.1692708333333428},{"name":"D3","midi":50,"time":245.8750000000059,"velocity":0.7637795275590551,"duration":0.12369791666668561},{"name":"G3","midi":55,"time":246.00000000000594,"velocity":0.7637795275590551,"duration":0.12369791666665719},{"name":"B5","midi":83,"time":246.00000000000594,"velocity":0.7637795275590551,"duration":0.2994791666666572},{"name":"A3","midi":57,"time":246.12500000000594,"velocity":0.7637795275590551,"duration":0.12369791666665719},{"name":"B3","midi":59,"time":246.25000000000594,"velocity":0.7637795275590551,"duration":0.12369791666665719},{"name":"G5","midi":79,"time":246.25000000000594,"velocity":0.7637795275590551,"duration":0.1692708333333428},{"name":"G3","midi":55,"time":246.37500000000594,"velocity":0.7637795275590551,"duration":0.12369791666668561},{"name":"C4","midi":60,"time":246.50000000000597,"velocity":0.7637795275590551,"duration":0.12369791666665719},{"name":"A5","midi":81,"time":246.50000000000597,"velocity":0.7637795275590551,"duration":0.1692708333333428},{"name":"G3","midi":55,"time":246.62500000000597,"velocity":0.7637795275590551,"duration":0.12369791666668561},{"name":"D4","midi":62,"time":246.750000000006,"velocity":0.7637795275590551,"duration":0.12369791666665719},{"name":"B5","midi":83,"time":246.750000000006,"velocity":0.7637795275590551,"duration":0.1692708333333428},{"name":"G3","midi":55,"time":246.875000000006,"velocity":0.7637795275590551,"duration":0.12369791666668561},{"name":"E4","midi":64,"time":247.00000000000603,"velocity":0.7637795275590551,"duration":0.12369791666665719},{"name":"C6","midi":84,"time":247.00000000000603,"velocity":0.7637795275590551,"duration":0.1692708333333428},{"name":"G3","midi":55,"time":247.12500000000603,"velocity":0.7637795275590551,"duration":0.12369791666668561},{"name":"F4","midi":65,"time":247.25000000000605,"velocity":0.7637795275590551,"duration":0.12369791666665719},{"name":"D6","midi":86,"time":247.25000000000605,"velocity":0.7637795275590551,"duration":0.1692708333333428},{"name":"G3","midi":55,"time":247.37500000000605,"velocity":0.7637795275590551,"duration":0.12369791666668561},{"name":"C4","midi":60,"time":247.50000000000608,"velocity":0.7637795275590551,"duration":0.12369791666665719},{"name":"E5","midi":76,"time":247.50000000000608,"velocity":0.7637795275590551,"duration":0.2799479166666572},{"name":"D4","midi":62,"time":247.62500000000608,"velocity":0.7637795275590551,"duration":0.12369791666665719},{"name":"C4","midi":60,"time":247.75000000000608,"velocity":0.7637795275590551,"duration":0.12369791666665719},{"name":"F#5","midi":78,"time":247.75000000000608,"velocity":0.7637795275590551,"duration":0.1822916666666572},{"name":"B3","midi":59,"time":247.87500000000608,"velocity":0.7637795275590551,"duration":0.12369791666665719},{"name":"A3","midi":57,"time":248.00000000000608,"velocity":0.7637795275590551,"duration":0.12369791666665719},{"name":"G5","midi":79,"time":248.00000000000608,"velocity":0.7637795275590551,"duration":0.1822916666666572},{"name":"G3","midi":55,"time":248.12500000000608,"velocity":0.7637795275590551,"duration":0.12369791666665719},{"name":"F#3","midi":54,"time":248.25000000000608,"velocity":0.7637795275590551,"duration":0.12369791666665719},{"name":"A5","midi":81,"time":248.25000000000608,"velocity":0.7637795275590551,"duration":0.3255208333333428},{"name":"E3","midi":52,"time":248.37500000000608,"velocity":0.7637795275590551,"duration":0.12369791666665719},{"name":"D3","midi":50,"time":248.50000000000608,"velocity":0.7637795275590551,"duration":0.12369791666668561},{"name":"D5","midi":74,"time":248.50000000000608,"velocity":0.7637795275590551,"duration":0.18229166666668561},{"name":"C3","midi":48,"time":248.6250000000061,"velocity":0.7637795275590551,"duration":0.12369791666665719},{"name":"B2","midi":47,"time":248.7500000000061,"velocity":0.7637795275590551,"duration":0.12369791666665719},{"name":"A5","midi":81,"time":248.7500000000061,"velocity":0.7637795275590551,"duration":0.1822916666666572},{"name":"A2","midi":45,"time":248.8750000000061,"velocity":0.7637795275590551,"duration":0.12369791666665719},{"name":"G2","midi":43,"time":249.0000000000061,"velocity":0.7637795275590551,"duration":0.12369791666665719},{"name":"B5","midi":83,"time":249.0000000000061,"velocity":0.7637795275590551,"duration":0.1302083333333428},{"name":"B2","midi":47,"time":249.1250000000061,"velocity":0.7637795275590551,"duration":0.12369791666668561},{"name":"G5","midi":79,"time":249.1250000000061,"velocity":0.7637795275590551,"duration":0.12369791666668561},{"name":"D3","midi":50,"time":249.25000000000614,"velocity":0.7637795275590551,"duration":0.12369791666665719},{"name":"D5","midi":74,"time":249.25000000000614,"velocity":0.7637795275590551,"duration":0.12369791666665719},{"name":"G3","midi":55,"time":249.37500000000614,"velocity":0.7637795275590551,"duration":0.12369791666665719},{"name":"B4","midi":71,"time":249.37500000000614,"velocity":0.7637795275590551,"duration":0.12369791666665719},{"name":"F#3","midi":54,"time":249.50000000000614,"velocity":0.7637795275590551,"duration":0.12369791666665719},{"name":"D5","midi":74,"time":249.50000000000614,"velocity":0.7637795275590551,"duration":0.12369791666665719},{"name":"E3","midi":52,"time":249.62500000000614,"velocity":0.7637795275590551,"duration":0.12369791666665719},{"name":"G5","midi":79,"time":249.62500000000614,"velocity":0.7637795275590551,"duration":0.12369791666665719},{"name":"D#3","midi":51,"time":249.75000000000614,"velocity":0.7637795275590551,"duration":0.15625},{"name":"A5","midi":81,"time":249.75000000000614,"velocity":0.7637795275590551,"duration":0.12369791666665719},{"name":"F#5","midi":78,"time":249.87500000000614,"velocity":0.7637795275590551,"duration":0.12369791666665719},{"name":"B2","midi":47,"time":250.00000000000614,"velocity":0.7637795275590551,"duration":0.15625},{"name":"D#5","midi":75,"time":250.00000000000614,"velocity":0.7637795275590551,"duration":0.12369791666665719},{"name":"B4","midi":71,"time":250.12500000000614,"velocity":0.7637795275590551,"duration":0.12369791666665719},{"name":"D#3","midi":51,"time":250.25000000000614,"velocity":0.7637795275590551,"duration":0.15625},{"name":"A#4","midi":70,"time":250.25000000000614,"velocity":0.7637795275590551,"duration":0.12369791666665719},{"name":"B4","midi":71,"time":250.37500000000614,"velocity":0.7637795275590551,"duration":0.12369791666665719},{"name":"E2","midi":40,"time":250.50000000000614,"velocity":0.7637795275590551,"duration":0.12369791666665719},{"name":"G5","midi":79,"time":250.50000000000614,"velocity":0.7637795275590551,"duration":0.1302083333333428},{"name":"G2","midi":43,"time":250.62500000000614,"velocity":0.7637795275590551,"duration":0.12369791666668561},{"name":"E5","midi":76,"time":250.62500000000614,"velocity":0.7637795275590551,"duration":0.12369791666668561},{"name":"B2","midi":47,"time":250.75000000000617,"velocity":0.7637795275590551,"duration":0.12369791666665719},{"name":"B4","midi":71,"time":250.75000000000617,"velocity":0.7637795275590551,"duration":0.12369791666665719},{"name":"E3","midi":52,"time":250.87500000000617,"velocity":0.7637795275590551,"duration":0.12369791666665719},{"name":"G4","midi":67,"time":250.87500000000617,"velocity":0.7637795275590551,"duration":0.12369791666665719},{"name":"D3","midi":50,"time":251.00000000000617,"velocity":0.7637795275590551,"duration":0.12369791666665719},{"name":"B4","midi":71,"time":251.00000000000617,"velocity":0.7637795275590551,"duration":0.12369791666665719},{"name":"C3","midi":48,"time":251.12500000000617,"velocity":0.7637795275590551,"duration":0.12369791666665719},{"name":"E5","midi":76,"time":251.12500000000617,"velocity":0.7637795275590551,"duration":0.12369791666665719},{"name":"B2","midi":47,"time":251.25000000000617,"velocity":0.7637795275590551,"duration":0.15625},{"name":"F5","midi":77,"time":251.25000000000617,"velocity":0.7637795275590551,"duration":0.12369791666665719},{"name":"D5","midi":74,"time":251.37500000000617,"velocity":0.7637795275590551,"duration":0.12369791666665719},{"name":"G2","midi":43,"time":251.50000000000617,"velocity":0.7637795275590551,"duration":0.15625},{"name":"B4","midi":71,"time":251.50000000000617,"velocity":0.7637795275590551,"duration":0.12369791666665719},{"name":"G4","midi":67,"time":251.62500000000617,"velocity":0.7637795275590551,"duration":0.12369791666665719},{"name":"B2","midi":47,"time":251.75000000000617,"velocity":0.7637795275590551,"duration":0.15625},{"name":"F#4","midi":66,"time":251.75000000000617,"velocity":0.7637795275590551,"duration":0.12369791666665719},{"name":"G4","midi":67,"time":251.87500000000617,"velocity":0.7637795275590551,"duration":0.12369791666665719},{"name":"C2","midi":36,"time":252.00000000000617,"velocity":0.7637795275590551,"duration":0.2486979166666572},{"name":"E5","midi":76,"time":252.00000000000617,"velocity":0.7637795275590551,"duration":0.12369791666665719},{"name":"D5","midi":74,"time":252.12500000000617,"velocity":0.7637795275590551,"duration":0.12369791666665719},{"name":"G2","midi":43,"time":252.25000000000617,"velocity":0.7637795275590551,"duration":0.15625},{"name":"C5","midi":72,"time":252.25000000000617,"velocity":0.7637795275590551,"duration":0.12369791666665719},{"name":"B4","midi":71,"time":252.37500000000617,"velocity":0.7637795275590551,"duration":0.12369791666665719},{"name":"C3","midi":48,"time":252.50000000000617,"velocity":0.7637795275590551,"duration":0.4986979166666572},{"name":"A4","midi":69,"time":252.50000000000617,"velocity":0.7637795275590551,"duration":0.12369791666665719},{"name":"G4","midi":67,"time":252.62500000000617,"velocity":0.7637795275590551,"duration":0.12369791666665719},{"name":"F#4","midi":66,"time":252.75000000000617,"velocity":0.7637795275590551,"duration":0.12369791666665719},{"name":"A4","midi":69,"time":252.87500000000617,"velocity":0.7637795275590551,"duration":0.12369791666665719},{"name":"F#2","midi":42,"time":253.00000000000617,"velocity":0.7637795275590551,"duration":0.15625},{"name":"C5","midi":72,"time":253.00000000000617,"velocity":0.7637795275590551,"duration":0.12369791666665719},{"name":"D5","midi":74,"time":253.12500000000617,"velocity":0.7637795275590551,"duration":0.12369791666665719},{"name":"A2","midi":45,"time":253.25000000000617,"velocity":0.7637795275590551,"duration":0.15625},{"name":"F#5","midi":78,"time":253.25000000000617,"velocity":0.7637795275590551,"duration":0.12369791666665719},{"name":"A5","midi":81,"time":253.37500000000617,"velocity":0.7637795275590551,"duration":0.12369791666665719},{"name":"B1","midi":35,"time":253.50000000000617,"velocity":0.7637795275590551,"duration":0.15625},{"name":"D6","midi":86,"time":253.50000000000617,"velocity":0.7637795275590551,"duration":0.1822916666666572},{"name":"C2","midi":36,"time":253.77083333333948,"velocity":0.7637795275590551,"duration":0.15625},{"name":"B4","midi":71,"time":253.77083333333948,"velocity":0.7637795275590551,"duration":0.1822916666666572},{"name":"G5","midi":79,"time":253.77083333333948,"velocity":0.7637795275590551,"duration":0.1822916666666572},{"name":"A4","midi":69,"time":254.05208333333948,"velocity":0.7637795275590551,"duration":0.1822916666666572},{"name":"F#5","midi":78,"time":254.05208333333948,"velocity":0.7637795275590551,"duration":0.1822916666666572},{"name":"D2","midi":38,"time":254.05208333333948,"velocity":0.7637795275590551,"duration":0.15625},{"name":"B4","midi":71,"time":254.36458333333948,"velocity":0.7637795275590551,"duration":0.9986979166666572},{"name":"G5","midi":79,"time":254.36458333333948,"velocity":0.7637795275590551,"duration":0.9986979166666572},{"name":"G1","midi":31,"time":254.36458333333948,"velocity":0.7637795275590551,"duration":0.9986979166666572},{"name":"B4","midi":71,"time":258.8541666666728,"velocity":0.7637795275590551,"duration":0.14453125},{"name":"D5","midi":74,"time":258.8541666666728,"velocity":0.7637795275590551,"duration":0.14453125},{"name":"C5","midi":72,"time":259.00000000000614,"velocity":0.7637795275590551,"duration":0.24869791666668561},{"name":"A4","midi":69,"time":259.00000000000614,"velocity":0.7637795275590551,"duration":0.24869791666668561},{"name":"G4","midi":67,"time":259.25000000000614,"velocity":0.7637795275590551,"duration":0.12369791666668561},{"name":"B4","midi":71,"time":259.25000000000614,"velocity":0.7637795275590551,"duration":0.12369791666668561},{"name":"C5","midi":72,"time":259.37500000000614,"velocity":0.7637795275590551,"duration":0.12369791666668561},{"name":"A4","midi":69,"time":259.37500000000614,"velocity":0.7637795275590551,"duration":0.12369791666668561},{"name":"C5","midi":72,"time":259.50000000000614,"velocity":0.7637795275590551,"duration":0.24869791666668561},{"name":"A4","midi":69,"time":259.50000000000614,"velocity":0.7637795275590551,"duration":0.24869791666668561},{"name":"D5","midi":74,"time":259.75000000000614,"velocity":0.7637795275590551,"duration":0.24869791666668561},{"name":"B4","midi":71,"time":259.75000000000614,"velocity":0.7637795275590551,"duration":0.24869791666668561},{"name":"G3","midi":55,"time":259.87500000000614,"velocity":0.7637795275590551,"duration":0.12369791666668561},{"name":"F3","midi":53,"time":260.00000000000614,"velocity":0.7637795275590551,"duration":0.3736979166666856},{"name":"B4","midi":71,"time":260.00000000000614,"velocity":0.7637795275590551,"duration":0.46875},{"name":"D5","midi":74,"time":260.00000000000614,"velocity":0.7637795275590551,"duration":0.46875},{"name":"E3","midi":52,"time":260.37500000000614,"velocity":0.7637795275590551,"duration":0.12369791666668561},{"name":"D3","midi":50,"time":260.50000000000614,"velocity":0.7637795275590551,"duration":0.3736979166666856},{"name":"E5","midi":76,"time":260.50000000000614,"velocity":0.7637795275590551,"duration":0.3736979166666856},{"name":"C5","midi":72,"time":260.50000000000614,"velocity":0.7637795275590551,"duration":0.3736979166666856},{"name":"C3","midi":48,"time":260.87500000000614,"velocity":0.7637795275590551,"duration":0.12369791666668561},{"name":"F5","midi":77,"time":260.87500000000614,"velocity":0.7637795275590551,"duration":0.12369791666668561},{"name":"D5","midi":74,"time":260.87500000000614,"velocity":0.7637795275590551,"duration":0.12369791666668561},{"name":"A3","midi":57,"time":261.00000000000614,"velocity":0.7637795275590551,"duration":0.24869791666668561},{"name":"C5","midi":72,"time":261.00000000000614,"velocity":0.7637795275590551,"duration":0.4986979166666856},{"name":"E5","midi":76,"time":261.00000000000614,"velocity":0.7637795275590551,"duration":0.4986979166666856},{"name":"G#3","midi":56,"time":261.25000000000614,"velocity":0.7637795275590551,"duration":0.12369791666668561},{"name":"E3","midi":52,"time":261.37500000000614,"velocity":0.7637795275590551,"duration":0.12369791666668561},{"name":"A3","midi":57,"time":261.50000000000614,"velocity":0.7637795275590551,"duration":0.8736979166666288},{"name":"B4","midi":71,"time":261.50000000000614,"velocity":0.7637795275590551,"duration":0.24869791666668561},{"name":"D5","midi":74,"time":261.50000000000614,"velocity":0.7637795275590551,"duration":0.24869791666668561},{"name":"E5","midi":76,"time":261.75000000000614,"velocity":0.7637795275590551,"duration":0.24869791666668561},{"name":"C5","midi":72,"time":261.75000000000614,"velocity":0.7637795275590551,"duration":0.24869791666668561},{"name":"D5","midi":74,"time":262.00000000000614,"velocity":0.7637795275590551,"duration":0.2591145833333144},{"name":"B4","midi":71,"time":262.00000000000614,"velocity":0.7637795275590551,"duration":0.2591145833333144},{"name":"A4","midi":69,"time":262.26041666667277,"velocity":0.7637795275590551,"duration":0.5859375},{"name":"C5","midi":72,"time":262.26041666667277,"velocity":0.7637795275590551,"duration":0.5859375},{"name":"G3","midi":55,"time":262.3750000000061,"velocity":0.7637795275590551,"duration":0.12369791666668561},{"name":"F#3","midi":54,"time":262.5000000000061,"velocity":0.7637795275590551,"duration":0.3736979166666856},{"name":"D3","midi":50,"time":262.8750000000061,"velocity":0.7637795275590551,"duration":0.12369791666668561},{"name":"D5","midi":74,"time":262.8750000000061,"velocity":0.7637795275590551,"duration":0.12369791666668561},{"name":"G3","midi":55,"time":263.0000000000061,"velocity":0.7637795275590551,"duration":0.4986979166666856},{"name":"B4","midi":71,"time":263.0000000000061,"velocity":0.7637795275590551,"duration":0.3736979166666856},{"name":"G4","midi":67,"time":263.0000000000061,"velocity":0.7637795275590551,"duration":0.3736979166666856},{"name":"F#4","midi":66,"time":263.3750000000061,"velocity":0.7637795275590551,"duration":0.12369791666668561},{"name":"A4","midi":69,"time":263.3750000000061,"velocity":0.7637795275590551,"duration":0.12369791666668561},{"name":"C3","midi":48,"time":263.5000000000061,"velocity":0.7637795275590551,"duration":0.4986979166666856},{"name":"B4","midi":71,"time":263.5000000000061,"velocity":0.7637795275590551,"duration":0.3736979166666856},{"name":"G4","midi":67,"time":263.5000000000061,"velocity":0.7637795275590551,"duration":0.3736979166666856},{"name":"C5","midi":72,"time":263.8750000000061,"velocity":0.7637795275590551,"duration":0.12369791666668561},{"name":"A4","midi":69,"time":263.8750000000061,"velocity":0.7637795275590551,"duration":0.12369791666668561},{"name":"D3","midi":50,"time":264.0000000000061,"velocity":0.7637795275590551,"duration":0.9986979166666856},{"name":"G4","midi":67,"time":264.0000000000061,"velocity":0.7637795275590551,"duration":0.2682291666666856},{"name":"B4","midi":71,"time":264.0000000000061,"velocity":0.7637795275590551,"duration":0.2682291666666856},{"name":"F#4","midi":66,"time":264.2656250000061,"velocity":0.7637795275590551,"duration":0.390625},{"name":"A4","midi":69,"time":264.2656250000061,"velocity":0.7637795275590551,"duration":0.390625},{"name":"D2","midi":38,"time":264.5000000000061,"velocity":0.7637795275590551,"duration":0.4947916666666856},{"name":"A4","midi":69,"time":264.7500000000061,"velocity":0.7637795275590551,"duration":0.24869791666668561},{"name":"F#5","midi":78,"time":264.7500000000061,"velocity":0.7637795275590551,"duration":0.24869791666668561},{"name":"F#4","midi":66,"time":265.0000000000061,"velocity":0.7637795275590551,"duration":0.3736979166666856},{"name":"D5","midi":74,"time":265.0000000000061,"velocity":0.7637795275590551,"duration":0.3736979166666856},{"name":"G4","midi":67,"time":265.3750000000061,"velocity":0.7637795275590551,"duration":0.12369791666668561},{"name":"E5","midi":76,"time":265.3750000000061,"velocity":0.7637795275590551,"duration":0.12369791666668561},{"name":"A4","midi":69,"time":265.5000000000061,"velocity":0.7637795275590551,"duration":0.4986979166666856},{"name":"F#5","midi":78,"time":265.5000000000061,"velocity":0.7637795275590551,"duration":0.4986979166666856},{"name":"D4","midi":62,"time":265.8750000000061,"velocity":0.7637795275590551,"duration":0.12369791666668561},{"name":"C4","midi":60,"time":266.0000000000061,"velocity":0.7637795275590551,"duration":0.3736979166666856},{"name":"B4","midi":71,"time":266.0000000000061,"velocity":0.7637795275590551,"duration":0.4986979166666856},{"name":"G5","midi":79,"time":266.0000000000061,"velocity":0.7637795275590551,"duration":0.4986979166666856},{"name":"B3","midi":59,"time":266.3750000000061,"velocity":0.7637795275590551,"duration":0.12369791666668561},{"name":"A3","midi":57,"time":266.5000000000061,"velocity":0.7637795275590551,"duration":0.3736979166666856},{"name":"A5","midi":81,"time":266.5000000000061,"velocity":0.7637795275590551,"duration":0.3736979166666856},{"name":"C5","midi":72,"time":266.5000000000061,"velocity":0.7637795275590551,"duration":0.3736979166666856},{"name":"G3","midi":55,"time":266.8750000000061,"velocity":0.7637795275590551,"duration":0.12369791666668561},{"name":"B5","midi":83,"time":266.8750000000061,"velocity":0.7637795275590551,"duration":0.12369791666668561},{"name":"D5","midi":74,"time":266.8750000000061,"velocity":0.7637795275590551,"duration":0.3125},{"name":"C4","midi":60,"time":267.0000000000061,"velocity":0.7637795275590551,"duration":0.4986979166666856},{"name":"E5","midi":76,"time":267.0000000000061,"velocity":0.7637795275590551,"duration":0.875},{"name":"G4","midi":67,"time":267.3750000000061,"velocity":0.7637795275590551,"duration":0.12369791666668561},{"name":"A3","midi":57,"time":267.5000000000061,"velocity":0.7637795275590551,"duration":0.4986979166666856},{"name":"C5","midi":72,"time":267.5000000000061,"velocity":0.7637795275590551,"duration":0.875},{"name":"F#5","midi":78,"time":267.8750000000061,"velocity":0.7637795275590551,"duration":0.12369791666668561},{"name":"E4","midi":64,"time":268.0000000000061,"velocity":0.7637795275590551,"duration":0.4986979166666856},{"name":"G5","midi":79,"time":268.0000000000061,"velocity":0.7637795275590551,"duration":0.79296875},{"name":"B4","midi":71,"time":268.3750000000061,"velocity":0.7637795275590551,"duration":0.12369791666668561},{"name":"C4","midi":60,"time":268.5000000000061,"velocity":0.7637795275590551,"duration":0.4986979166666856},{"name":"A4","midi":69,"time":268.5000000000061,"velocity":0.7637795275590551,"duration":0.4947916666666856},{"name":"F#5","midi":78,"time":268.7786458333394,"velocity":0.7637795275590551,"duration":0.12239583333337123},{"name":"E5","midi":76,"time":268.88932291667277,"velocity":0.7637795275590551,"duration":0.10807291666668561},{"name":"D4","midi":62,"time":269.0000000000061,"velocity":0.7637795275590551,"duration":0.9986979166666856},{"name":"B4","midi":71,"time":269.0000000000061,"velocity":0.7637795275590551,"duration":0.3736979166666856},{"name":"D5","midi":74,"time":269.0000000000061,"velocity":0.7637795275590551,"duration":0.3736979166666856},{"name":"C5","midi":72,"time":269.3750000000061,"velocity":0.7637795275590551,"duration":0.12369791666668561},{"name":"A4","midi":69,"time":269.3750000000061,"velocity":0.7637795275590551,"duration":0.12369791666668561},{"name":"G4","midi":67,"time":269.5000000000061,"velocity":0.7637795275590551,"duration":0.3736979166666856},{"name":"A5","midi":81,"time":269.5000000000061,"velocity":0.7637795275590551,"duration":0.3736979166666856},{"name":"F#4","midi":66,"time":269.8750000000061,"velocity":0.7637795275590551,"duration":0.12369791666668561},{"name":"C5","midi":72,"time":269.8750000000061,"velocity":0.7637795275590551,"duration":0.12369791666668561},{"name":"G3","midi":55,"time":270.0000000000061,"velocity":0.7637795275590551,"duration":0.49869791666662877},{"name":"F#4","midi":66,"time":270.0000000000061,"velocity":0.7637795275590551,"duration":0.2747395833333144},{"name":"C5","midi":72,"time":270.0000000000061,"velocity":0.7637795275590551,"duration":0.2747395833333144},{"name":"B4","midi":71,"time":270.2734375000061,"velocity":0.7637795275590551,"duration":0.41666666666662877},{"name":"G4","midi":67,"time":270.2734375000061,"velocity":0.7637795275590551,"duration":0.41666666666662877},{"name":"G2","midi":43,"time":270.500000000006,"velocity":0.7637795275590551,"duration":0.3736979166666856},{"name":"G3","midi":55,"time":270.875000000006,"velocity":0.7637795275590551,"duration":0.12369791666668561},{"name":"D5","midi":74,"time":270.875000000006,"velocity":0.7637795275590551,"duration":0.12369791666668561},{"name":"B3","midi":59,"time":271.000000000006,"velocity":0.7637795275590551,"duration":0.3736979166666856},{"name":"G5","midi":79,"time":271.000000000006,"velocity":0.7637795275590551,"duration":0.3736979166666856},{"name":"D4","midi":62,"time":271.375000000006,"velocity":0.7637795275590551,"duration":0.12369791666668561},{"name":"A5","midi":81,"time":271.375000000006,"velocity":0.7637795275590551,"duration":0.12369791666668561},{"name":"G4","midi":67,"time":271.500000000006,"velocity":0.7637795275590551,"duration":0.4986979166666856},{"name":"B5","midi":83,"time":271.500000000006,"velocity":0.7637795275590551,"duration":0.4947916666666856},{"name":"A5","midi":81,"time":271.875000000006,"velocity":0.7637795275590551,"duration":0.12369791666668561},{"name":"G3","midi":55,"time":272.000000000006,"velocity":0.7637795275590551,"duration":0.4986979166666856},{"name":"B5","midi":83,"time":272.000000000006,"velocity":0.7637795275590551,"duration":0.8645833333333144},{"name":"G5","midi":79,"time":272.000000000006,"velocity":0.7637795275590551,"duration":0.3736979166666856},{"name":"F#5","midi":78,"time":272.375000000006,"velocity":0.7637795275590551,"duration":0.12369791666668561},{"name":"G4","midi":67,"time":272.500000000006,"velocity":0.7637795275590551,"duration":0.8736979166666288},{"name":"E5","midi":76,"time":272.500000000006,"velocity":0.7637795275590551,"duration":0.37369791666662877},{"name":"B5","midi":83,"time":272.87500000000597,"velocity":0.7637795275590551,"duration":0.12369791666668561},{"name":"D5","midi":74,"time":272.87500000000597,"velocity":0.7637795275590551,"duration":0.12369791666668561},{"name":"C#5","midi":73,"time":273.00000000000597,"velocity":0.7637795275590551,"duration":1.3723958333332575},{"name":"F#5","midi":78,"time":273.00000000000597,"velocity":0.7637795275590551,"duration":0.4986979166666856},{"name":"B4","midi":71,"time":273.37500000000597,"velocity":0.7637795275590551,"duration":0.12369791666668561},{"name":"E5","midi":76,"time":273.49869791667265,"velocity":0.7637795275590551,"duration":0.37369791666662877},{"name":"A4","midi":69,"time":273.50000000000597,"velocity":0.7637795275590551,"duration":0.37369791666662877},{"name":"G4","midi":67,"time":273.8750000000059,"velocity":0.7637795275590551,"duration":0.12369791666668561},{"name":"E5","midi":76,"time":273.8750000000059,"velocity":0.7637795275590551,"duration":0.12369791666668561},{"name":"F#4","midi":66,"time":274.0000000000059,"velocity":0.7637795275590551,"duration":0.37369791666662877},{"name":"A5","midi":81,"time":274.0000000000059,"velocity":0.7637795275590551,"duration":0.8736979166666288},{"name":"E4","midi":64,"time":274.37500000000585,"velocity":0.7637795275590551,"duration":0.12369791666668561},{"name":"C#5","midi":73,"time":274.37500000000585,"velocity":0.7637795275590551,"duration":0.12369791666668561},{"name":"D4","midi":62,"time":274.50000000000585,"velocity":0.7637795275590551,"duration":0.8736979166666856},{"name":"B4","midi":71,"time":274.50000000000585,"velocity":0.7637795275590551,"duration":1.4973958333332575},{"name":"B5","midi":83,"time":274.87500000000585,"velocity":0.7637795275590551,"duration":0.12369791666668561},{"name":"A5","midi":81,"time":275.00000000000585,"velocity":0.7637795275590551,"duration":0.2578125},{"name":"G#5","midi":80,"time":275.25000000000585,"velocity":0.7637795275590551,"duration":0.09114583333337123},{"name":"A5","midi":81,"time":275.33463541667254,"velocity":0.7637795275590551,"duration":0.09114583333331439},{"name":"B3","midi":59,"time":275.37500000000585,"velocity":0.7637795275590551,"duration":0.12369791666668561},{"name":"G#5","midi":80,"time":275.41927083333917,"velocity":0.7637795275590551,"duration":0.4375},{"name":"E4","midi":64,"time":275.50000000000585,"velocity":0.7637795275590551,"duration":0.37369791666662877},{"name":"D4","midi":62,"time":275.8750000000058,"velocity":0.7637795275590551,"duration":0.12369791666662877},{"name":"A5","midi":81,"time":275.8750000000058,"velocity":0.7637795275590551,"duration":0.12369791666662877},{"name":"C#4","midi":61,"time":276.00000000000574,"velocity":0.7637795275590551,"duration":0.8723958333333144},{"name":"A5","midi":81,"time":276.00000000000574,"velocity":0.7637795275590551,"duration":0.625},{"name":"E4","midi":64,"time":276.37500000000574,"velocity":0.7637795275590551,"duration":0.12369791666668561},{"name":"A4","midi":69,"time":276.50000000000574,"velocity":0.7637795275590551,"duration":1.4973958333332575},{"name":"G5","midi":79,"time":276.62500000000574,"velocity":0.7637795275590551,"duration":0.12369791666668561},{"name":"F#5","midi":78,"time":276.75000000000574,"velocity":0.7637795275590551,"duration":0.12369791666662877},{"name":"A3","midi":57,"time":276.8750000000057,"velocity":0.7637795275590551,"duration":0.12369791666668561},{"name":"A5","midi":81,"time":276.8750000000057,"velocity":0.7637795275590551,"duration":0.12369791666668561},{"name":"B3","midi":59,"time":277.0000000000057,"velocity":0.7637795275590551,"duration":0.3736979166666856},{"name":"G5","midi":79,"time":277.0000000000057,"velocity":0.7637795275590551,"duration":0.12369791666668561},{"name":"F#5","midi":78,"time":277.1250000000057,"velocity":0.7637795275590551,"duration":0.12369791666668561},{"name":"E5","midi":76,"time":277.2500000000057,"velocity":0.7637795275590551,"duration":0.12369791666668561},{"name":"C#4","midi":61,"time":277.3750000000057,"velocity":0.7637795275590551,"duration":0.12369791666668561},{"name":"G5","midi":79,"time":277.3750000000057,"velocity":0.7637795275590551,"duration":0.12369791666668561},{"name":"D4","midi":62,"time":277.5000000000057,"velocity":0.7637795275590551,"duration":0.3736979166666856},{"name":"F#5","midi":78,"time":277.5000000000057,"velocity":0.7637795275590551,"duration":0.4427083333333144},{"name":"D3","midi":50,"time":277.8750000000057,"velocity":0.7637795275590551,"duration":0.12369791666662877},{"name":"G3","midi":55,"time":278.0000000000056,"velocity":0.7637795275590551,"duration":0.3736979166666856},{"name":"B4","midi":71,"time":278.0000000000056,"velocity":0.7637795275590551,"duration":0.7486979166666856},{"name":"F#3","midi":54,"time":278.3750000000056,"velocity":0.7637795275590551,"duration":0.12369791666668561},{"name":"D4","midi":62,"time":278.3750000000056,"velocity":0.7637795275590551,"duration":0.12369791666668561},{"name":"E3","midi":52,"time":278.5000000000056,"velocity":0.7637795275590551,"duration":0.3736979166666856},{"name":"G4","midi":67,"time":278.5000000000056,"velocity":0.7637795275590551,"duration":0.9986979166666856},{"name":"E5","midi":76,"time":278.7500000000056,"velocity":0.7637795275590551,"duration":0.24869791666668561},{"name":"D3","midi":50,"time":278.8750000000056,"velocity":0.7637795275590551,"duration":0.12369791666668561},{"name":"C#3","midi":49,"time":279.0000000000056,"velocity":0.7637795275590551,"duration":0.3736979166666856},{"name":"A4","midi":69,"time":279.0000000000056,"velocity":0.7637795275590551,"duration":0.5989583333333144},{"name":"A2","midi":45,"time":279.3750000000056,"velocity":0.7637795275590551,"duration":0.12369791666668561},{"name":"D3","midi":50,"time":279.5000000000056,"velocity":0.7637795275590551,"duration":0.3736979166666856},{"name":"F#4","midi":66,"time":279.5000000000056,"velocity":0.7637795275590551,"duration":0.4947916666666856},{"name":"A4","midi":69,"time":279.6250000000056,"velocity":0.7637795275590551,"duration":0.12369791666668561},{"name":"B4","midi":71,"time":279.7500000000056,"velocity":0.7637795275590551,"duration":0.12369791666668561},{"name":"C#3","midi":49,"time":279.8750000000056,"velocity":0.7637795275590551,"duration":0.12369791666668561},{"name":"C#5","midi":73,"time":279.8750000000056,"velocity":0.7637795275590551,"duration":0.12369791666668561},{"name":"B2","midi":47,"time":280.0000000000056,"velocity":0.7637795275590551,"duration":0.3736979166666856},{"name":"D5","midi":74,"time":280.0000000000056,"velocity":0.7637795275590551,"duration":0.11588541666668561},{"name":"E5","midi":76,"time":280.1171875000056,"velocity":0.7637795275590551,"duration":0.11588541666668561},{"name":"F#5","midi":78,"time":280.2343750000056,"velocity":0.7637795275590551,"duration":0.09375},{"name":"E5","midi":76,"time":280.3229166666723,"velocity":0.7637795275590551,"duration":0.09114583333331439},{"name":"A2","midi":45,"time":280.3750000000056,"velocity":0.7637795275590551,"duration":0.12369791666662877},{"name":"D5","midi":74,"time":280.41145833333894,"velocity":0.7637795275590551,"duration":0.08203125},{"name":"G2","midi":43,"time":280.50000000000557,"velocity":0.7637795275590551,"duration":0.3736979166666856},{"name":"B5","midi":83,"time":280.50000000000557,"velocity":0.7637795275590551,"duration":0.3125},{"name":"E2","midi":40,"time":280.87500000000557,"velocity":0.7637795275590551,"duration":0.12369791666668561},{"name":"G4","midi":67,"time":280.87500000000557,"velocity":0.7637795275590551,"duration":0.12369791666668561},{"name":"B4","midi":71,"time":280.87500000000557,"velocity":0.7637795275590551,"duration":0.12369791666668561},{"name":"A2","midi":45,"time":281.00000000000557,"velocity":0.7637795275590551,"duration":0.4986979166666856},{"name":"D5","midi":74,"time":281.00000000000557,"velocity":0.7637795275590551,"duration":0.4986979166666856},{"name":"F#4","midi":66,"time":281.00000000000557,"velocity":0.7637795275590551,"duration":0.4986979166666856},{"name":"A1","midi":33,"time":281.50000000000557,"velocity":0.7637795275590551,"duration":0.4986979166666856},{"name":"E4","midi":64,"time":281.50000000000557,"velocity":0.7637795275590551,"duration":0.4947916666666856},{"name":"C#5","midi":73,"time":281.50000000000557,"velocity":0.7637795275590551,"duration":0.3736979166666856},{"name":"D5","midi":74,"time":281.87500000000557,"velocity":0.7637795275590551,"duration":0.12369791666668561},{"name":"D2","midi":38,"time":282.00000000000557,"velocity":0.7637795275590551,"duration":0.9635416666666856},{"name":"D5","midi":74,"time":282.00000000000557,"velocity":0.7637795275590551,"duration":0.7486979166666856},{"name":"F#4","midi":66,"time":282.00000000000557,"velocity":0.7637795275590551,"duration":0.7486979166666856},{"name":"F#5","midi":78,"time":282.85416666667226,"velocity":0.7637795275590551,"duration":0.14453125},{"name":"A5","midi":81,"time":282.85416666667226,"velocity":0.7637795275590551,"duration":0.14453125},{"name":"F#5","midi":78,"time":283.00000000000557,"velocity":0.7637795275590551,"duration":0.3736979166666856},{"name":"D5","midi":74,"time":283.00000000000557,"velocity":0.7637795275590551,"duration":0.3736979166666856},{"name":"G5","midi":79,"time":283.37500000000557,"velocity":0.7637795275590551,"duration":0.12369791666668561},{"name":"E5","midi":76,"time":283.37500000000557,"velocity":0.7637795275590551,"duration":0.12369791666668561},{"name":"F#5","midi":78,"time":283.50000000000557,"velocity":0.7637795275590551,"duration":0.4986979166666856},{"name":"A5","midi":81,"time":283.50000000000557,"velocity":0.7637795275590551,"duration":0.4986979166666856},{"name":"D4","midi":62,"time":283.87500000000557,"velocity":0.7637795275590551,"duration":0.12369791666668561},{"name":"C4","midi":60,"time":284.00000000000557,"velocity":0.7637795275590551,"duration":0.3736979166666856},{"name":"A5","midi":81,"time":284.00000000000557,"velocity":0.7637795275590551,"duration":0.4986979166666856},{"name":"F#5","midi":78,"time":284.00000000000557,"velocity":0.7637795275590551,"duration":0.4986979166666856},{"name":"B3","midi":59,"time":284.37500000000557,"velocity":0.7637795275590551,"duration":0.12369791666668561},{"name":"A3","midi":57,"time":284.50000000000557,"velocity":0.7637795275590551,"duration":0.3736979166666856},{"name":"G5","midi":79,"time":284.50000000000557,"velocity":0.7637795275590551,"duration":0.3736979166666856},{"name":"B5","midi":83,"time":284.50000000000557,"velocity":0.7637795275590551,"duration":0.3736979166666856},{"name":"G3","midi":55,"time":284.87500000000557,"velocity":0.7637795275590551,"duration":0.12369791666668561},{"name":"C6","midi":84,"time":284.87500000000557,"velocity":0.7637795275590551,"duration":0.12369791666668561},{"name":"A5","midi":81,"time":284.87500000000557,"velocity":0.7637795275590551,"duration":0.12369791666668561},{"name":"D#4","midi":63,"time":285.00000000000557,"velocity":0.7637795275590551,"duration":0.3736979166666856},{"name":"B5","midi":83,"time":285.00000000000557,"velocity":0.7637795275590551,"duration":0.48828124999994316},{"name":"G5","midi":79,"time":285.00000000000557,"velocity":0.7637795275590551,"duration":0.48828124999994316},{"name":"B3","midi":59,"time":285.37500000000557,"velocity":0.7637795275590551,"duration":0.12369791666662877},{"name":"A5","midi":81,"time":285.4778645833389,"velocity":0.7637795275590551,"duration":0.22135416666662877},{"name":"F#5","midi":78,"time":285.4778645833389,"velocity":0.7637795275590551,"duration":0.22135416666662877},{"name":"E4","midi":64,"time":285.4791666666722,"velocity":0.7637795275590551,"duration":0.7486979166665719},{"name":"G5","midi":79,"time":285.7513020833388,"velocity":0.7637795275590551,"duration":0.24739583333331439},{"name":"B5","midi":83,"time":285.7513020833388,"velocity":0.7637795275590551,"duration":0.24739583333331439},{"name":"F#5","midi":78,"time":286.00000000000546,"velocity":0.7637795275590551,"duration":0.24739583333331439},{"name":"A5","midi":81,"time":286.00000000000546,"velocity":0.7637795275590551,"duration":0.24739583333331439},{"name":"G5","midi":79,"time":286.2486979166721,"velocity":0.7637795275590551,"duration":0.625},{"name":"E5","midi":76,"time":286.2486979166721,"velocity":0.7637795275590551,"duration":0.625},{"name":"D4","midi":62,"time":286.2500000000054,"velocity":0.7637795275590551,"duration":0.24869791666668561},{"name":"C4","midi":60,"time":286.5000000000054,"velocity":0.7637795275590551,"duration":1.4973958333333144},{"name":"F#5","midi":78,"time":286.8750000000054,"velocity":0.7637795275590551,"duration":0.12369791666668561},{"name":"E4","midi":64,"time":287.0000000000054,"velocity":0.7637795275590551,"duration":0.4986979166666856},{"name":"A5","midi":81,"time":287.0000000000054,"velocity":0.7637795275590551,"duration":0.3736979166666856},{"name":"G5","midi":79,"time":287.3750000000054,"velocity":0.7637795275590551,"duration":0.12369791666668561},{"name":"A4","midi":69,"time":287.5000000000054,"velocity":0.7637795275590551,"duration":0.49869791666662877},{"name":"F#5","midi":78,"time":287.5000000000054,"velocity":0.7637795275590551,"duration":0.12369791666668561},{"name":"G5","midi":79,"time":287.6250000000054,"velocity":0.7637795275590551,"duration":0.12369791666668561},{"name":"F#5","midi":78,"time":287.7500000000054,"velocity":0.7637795275590551,"duration":0.12369791666668561},{"name":"E5","midi":76,"time":287.8750000000054,"velocity":0.7637795275590551,"duration":0.12369791666662877},{"name":"B4","midi":71,"time":288.00000000000534,"velocity":0.7637795275590551,"duration":0.4986979166666856},{"name":"B3","midi":59,"time":288.00000000000534,"velocity":0.7637795275590551,"duration":0.9986979166666856},{"name":"E5","midi":76,"time":288.00000000000534,"velocity":0.7637795275590551,"duration":0.2682291666666856},{"name":"D#5","midi":75,"time":288.26562500000534,"velocity":0.7637795275590551,"duration":0.4166666666666856},{"name":"B2","midi":47,"time":288.50000000000534,"velocity":0.7637795275590551,"duration":0.4947916666666856},{"name":"F#5","midi":78,"time":288.75000000000534,"velocity":0.7637795275590551,"duration":0.24869791666668561},{"name":"D#5","midi":75,"time":288.75000000000534,"velocity":0.7637795275590551,"duration":0.24869791666668561},{"name":"B4","midi":71,"time":289.00000000000534,"velocity":0.7637795275590551,"duration":0.36458333333325754},{"name":"E5","midi":76,"time":289.00000000000534,"velocity":0.7637795275590551,"duration":0.08203125},{"name":"D#5","midi":75,"time":289.08333333333866,"velocity":0.7637795275590551,"duration":0.08203125},{"name":"E5","midi":76,"time":289.166666666672,"velocity":0.7637795275590551,"duration":0.08203125},{"name":"D#5","midi":75,"time":289.2500000000053,"velocity":0.7637795275590551,"duration":0.12369791666662877},{"name":"E5","midi":76,"time":289.37500000000523,"velocity":0.7637795275590551,"duration":0.12369791666668561},{"name":"C#5","midi":73,"time":289.37500000000523,"velocity":0.7637795275590551,"duration":0.12369791666668561},{"name":"F#5","midi":78,"time":289.50000000000523,"velocity":0.7637795275590551,"duration":0.4986979166666856},{"name":"D#5","midi":75,"time":289.50000000000523,"velocity":0.7637795275590551,"duration":0.4986979166666856},{"name":"B4","midi":71,"time":289.87500000000523,"velocity":0.7637795275590551,"duration":0.12369791666668561},{"name":"A4","midi":69,"time":290.00000000000523,"velocity":0.7637795275590551,"duration":0.3736979166666856},{"name":"D#5","midi":75,"time":290.00000000000523,"velocity":0.7637795275590551,"duration":0.4986979166666856},{"name":"F#5","midi":78,"time":290.00000000000523,"velocity":0.7637795275590551,"duration":0.4986979166666856},{"name":"G4","midi":67,"time":290.37500000000523,"velocity":0.7637795275590551,"duration":0.12369791666668561},{"name":"F#4","midi":66,"time":290.50000000000523,"velocity":0.7637795275590551,"duration":0.3736979166666856},{"name":"E5","midi":76,"time":290.50000000000523,"velocity":0.7637795275590551,"duration":0.3736979166666856},{"name":"G5","midi":79,"time":290.50000000000523,"velocity":0.7637795275590551,"duration":0.3736979166666856},{"name":"E4","midi":64,"time":290.87500000000523,"velocity":0.7637795275590551,"duration":0.12369791666668561},{"name":"A5","midi":81,"time":290.87500000000523,"velocity":0.7637795275590551,"duration":0.12369791666668561},{"name":"F#5","midi":78,"time":290.87500000000523,"velocity":0.7637795275590551,"duration":0.12369791666668561},{"name":"B4","midi":71,"time":291.00000000000523,"velocity":0.7637795275590551,"duration":0.9986979166666856},{"name":"G5","midi":79,"time":291.00000000000523,"velocity":0.7637795275590551,"duration":0.2682291666666856},{"name":"E5","midi":76,"time":291.00000000000523,"velocity":0.7637795275590551,"duration":0.2682291666666856},{"name":"D#5","midi":75,"time":291.26562500000523,"velocity":0.7637795275590551,"duration":0.3645833333333144},{"name":"F#5","midi":78,"time":291.26562500000523,"velocity":0.7637795275590551,"duration":0.3645833333333144},{"name":"B3","midi":59,"time":291.50000000000523,"velocity":0.7637795275590551,"duration":0.4947916666666856},{"name":"F#5","midi":78,"time":291.75000000000523,"velocity":0.7637795275590551,"duration":0.24869791666668561},{"name":"D#5","midi":75,"time":291.75000000000523,"velocity":0.7637795275590551,"duration":0.24869791666668561},{"name":"G#5","midi":80,"time":292.00000000000523,"velocity":0.7637795275590551,"duration":0.3736979166666856},{"name":"B4","midi":71,"time":292.00000000000523,"velocity":0.7637795275590551,"duration":0.3736979166666856},{"name":"C5","midi":72,"time":292.37500000000523,"velocity":0.7637795275590551,"duration":0.12369791666668561},{"name":"A5","midi":81,"time":292.37500000000523,"velocity":0.7637795275590551,"duration":0.12369791666668561},{"name":"D5","midi":74,"time":292.50000000000523,"velocity":0.7637795275590551,"duration":0.8658854166666856},{"name":"B5","midi":83,"time":292.50000000000523,"velocity":0.7637795275590551,"duration":0.3736979166666856},{"name":"F4","midi":65,"time":292.87500000000523,"velocity":0.7637795275590551,"duration":0.12369791666668561},{"name":"C6","midi":84,"time":292.87500000000523,"velocity":0.7637795275590551,"duration":0.12369791666668561},{"name":"E4","midi":64,"time":293.00000000000523,"velocity":0.7637795275590551,"duration":0.3736979166666856},{"name":"G#5","midi":80,"time":293.00000000000523,"velocity":0.7637795275590551,"duration":0.8658854166666856},{"name":"D4","midi":62,"time":293.37500000000523,"velocity":0.7637795275590551,"duration":0.12369791666668561},{"name":"F5","midi":77,"time":293.37500000000523,"velocity":0.7637795275590551,"duration":0.12369791666668561},{"name":"C4","midi":60,"time":293.50000000000523,"velocity":0.7637795275590551,"duration":0.3736979166666856},{"name":"E5","midi":76,"time":293.50000000000523,"velocity":0.7637795275590551,"duration":0.3736979166666856},{"name":"B3","midi":59,"time":293.87500000000523,"velocity":0.7637795275590551,"duration":0.12369791666668561},{"name":"G#5","midi":80,"time":293.87500000000523,"velocity":0.7637795275590551,"duration":0.12369791666668561},{"name":"D5","midi":74,"time":293.87500000000523,"velocity":0.7637795275590551,"duration":0.12369791666668561},{"name":"C4","midi":60,"time":294.00000000000523,"velocity":0.7637795275590551,"duration":0.4986979166666856},{"name":"E5","midi":76,"time":294.00000000000523,"velocity":0.7637795275590551,"duration":0.8736979166666856},{"name":"A5","midi":81,"time":294.00000000000523,"velocity":0.7637795275590551,"duration":0.7486979166666856},{"name":"C3","midi":48,"time":294.50000000000523,"velocity":0.7637795275590551,"duration":0.4986979166666856},{"name":"A5","midi":81,"time":294.87500000000523,"velocity":0.7637795275590551,"duration":0.12369791666668561},{"name":"C4","midi":60,"time":295.00000000000523,"velocity":0.7637795275590551,"duration":0.4986979166666856},{"name":"E5","midi":76,"time":295.00000000000523,"velocity":0.7637795275590551,"duration":0.3736979166666856},{"name":"F#5","midi":78,"time":295.37500000000523,"velocity":0.7637795275590551,"duration":0.12369791666668561},{"name":"C#4","midi":61,"time":295.50000000000523,"velocity":0.7637795275590551,"duration":0.4986979166666856},{"name":"G5","midi":79,"time":295.50000000000523,"velocity":0.7637795275590551,"duration":0.12369791666668561},{"name":"F#5","midi":78,"time":295.62500000000523,"velocity":0.7637795275590551,"duration":0.12369791666668561},{"name":"E5","midi":76,"time":295.75000000000523,"velocity":0.7637795275590551,"duration":0.12369791666668561},{"name":"G5","midi":79,"time":295.87500000000523,"velocity":0.7637795275590551,"duration":0.12369791666668561},{"name":"D4","midi":62,"time":296.00000000000523,"velocity":0.7637795275590551,"duration":0.4986979166666856},{"name":"F#5","midi":78,"time":296.00000000000523,"velocity":0.7637795275590551,"duration":1.4973958333333144},{"name":"D5","midi":74,"time":296.37500000000523,"velocity":0.7637795275590551,"duration":0.12369791666668561},{"name":"D3","midi":50,"time":296.50000000000523,"velocity":0.7637795275590551,"duration":0.4986979166666856},{"name":"A4","midi":69,"time":296.50000000000523,"velocity":0.7637795275590551,"duration":0.3736979166666856},{"name":"B4","midi":71,"time":296.87500000000523,"velocity":0.7637795275590551,"duration":0.12369791666668561},{"name":"D4","midi":62,"time":297.00000000000523,"velocity":0.7637795275590551,"duration":0.49869791666662877},{"name":"C5","midi":72,"time":297.00000000000523,"velocity":0.7637795275590551,"duration":0.12369791666668561},{"name":"B4","midi":71,"time":297.12500000000523,"velocity":0.7637795275590551,"duration":0.12369791666668561},{"name":"A4","midi":69,"time":297.25000000000523,"velocity":0.7637795275590551,"duration":0.12369791666668561},{"name":"C5","midi":72,"time":297.37500000000523,"velocity":0.7637795275590551,"duration":0.12369791666662877},{"name":"D#4","midi":63,"time":297.5000000000052,"velocity":0.7637795275590551,"duration":0.12369791666668561},{"name":"B4","midi":71,"time":297.5000000000052,"velocity":0.7637795275590551,"duration":1.3671875},{"name":"F#4","midi":66,"time":297.6250000000052,"velocity":0.7637795275590551,"duration":0.12369791666668561},{"name":"G4","midi":67,"time":297.7500000000052,"velocity":0.7637795275590551,"duration":0.12369791666668561},{"name":"A4","midi":69,"time":297.8750000000052,"velocity":0.7637795275590551,"duration":0.12369791666668561},{"name":"D#5","midi":75,"time":297.8750000000052,"velocity":0.7637795275590551,"duration":0.12369791666668561},{"name":"G4","midi":67,"time":298.0000000000052,"velocity":0.7637795275590551,"duration":0.12369791666668561},{"name":"E5","midi":76,"time":298.0000000000052,"velocity":0.7637795275590551,"duration":0.3736979166666856},{"name":"F#4","midi":66,"time":298.1250000000052,"velocity":0.7637795275590551,"duration":0.12369791666668561},{"name":"E4","midi":64,"time":298.2500000000052,"velocity":0.7637795275590551,"duration":0.12369791666668561},{"name":"D#4","midi":63,"time":298.3750000000052,"velocity":0.7637795275590551,"duration":0.12369791666668561},{"name":"A5","midi":81,"time":298.3750000000052,"velocity":0.7637795275590551,"duration":0.12369791666668561},{"name":"E4","midi":64,"time":298.5000000000052,"velocity":0.7637795275590551,"duration":0.3736979166666856},{"name":"G5","midi":79,"time":298.5000000000052,"velocity":0.7637795275590551,"duration":0.3736979166666856},{"name":"A3","midi":57,"time":298.88802083333854,"velocity":0.7637795275590551,"duration":0.11197916666668561},{"name":"A4","midi":69,"time":298.88802083333854,"velocity":0.7637795275590551,"duration":0.11197916666668561},{"name":"F#5","midi":78,"time":298.88802083333854,"velocity":0.7637795275590551,"duration":0.11197916666668561},{"name":"B3","midi":59,"time":299.00000000000523,"velocity":0.7637795275590551,"duration":0.4986979166666856},{"name":"E5","midi":76,"time":299.00000000000523,"velocity":0.7637795275590551,"duration":0.4986979166666856},{"name":"G4","midi":67,"time":299.00000000000523,"velocity":0.7637795275590551,"duration":0.4986979166666856},{"name":"B2","midi":47,"time":299.50000000000523,"velocity":0.7637795275590551,"duration":0.4986979166666856},{"name":"F#4","midi":66,"time":299.50000000000523,"velocity":0.7637795275590551,"duration":0.4947916666666856},{"name":"D#5","midi":75,"time":299.50000000000523,"velocity":0.7637795275590551,"duration":0.3736979166666856},{"name":"E5","midi":76,"time":299.87500000000523,"velocity":0.7637795275590551,"duration":0.12369791666668561},{"name":"E3","midi":52,"time":300.00000000000523,"velocity":0.7637795275590551,"duration":0.9986979166666856},{"name":"E5","midi":76,"time":300.00000000000523,"velocity":0.7637795275590551,"duration":0.6236979166666856},{"name":"G4","midi":67,"time":300.00000000000523,"velocity":0.7637795275590551,"duration":0.4947916666666856},{"name":"E2","midi":40,"time":300.50000000000523,"velocity":0.7637795275590551,"duration":0.4947916666666856},{"name":"G5","midi":79,"time":300.62500000000523,"velocity":0.7637795275590551,"duration":0.12369791666668561},{"name":"F#5","midi":78,"time":300.75000000000523,"velocity":0.7637795275590551,"duration":0.12369791666668561},{"name":"A5","midi":81,"time":300.87500000000523,"velocity":0.7637795275590551,"duration":0.12369791666668561},{"name":"G5","midi":79,"time":301.00000000000523,"velocity":0.7637795275590551,"duration":0.12369791666668561},{"name":"F#5","midi":78,"time":301.12500000000523,"velocity":0.7637795275590551,"duration":0.12369791666668561},{"name":"E5","midi":76,"time":301.25000000000523,"velocity":0.7637795275590551,"duration":0.12369791666668561},{"name":"D5","midi":74,"time":301.37500000000523,"velocity":0.7637795275590551,"duration":0.12369791666668561},{"name":"C5","midi":72,"time":301.50000000000523,"velocity":0.7637795275590551,"duration":0.24869791666668561},{"name":"F4","midi":65,"time":301.75000000000523,"velocity":0.7637795275590551,"duration":0.24869791666668561},{"name":"B4","midi":71,"time":301.75000000000523,"velocity":0.7637795275590551,"duration":0.3125},{"name":"E4","midi":64,"time":302.00000000000523,"velocity":0.7637795275590551,"duration":0.24869791666668561},{"name":"D5","midi":74,"time":302.12500000000523,"velocity":0.7637795275590551,"duration":0.12369791666668561},{"name":"F4","midi":65,"time":302.25000000000523,"velocity":0.7637795275590551,"duration":0.24869791666668561},{"name":"D4","midi":62,"time":302.25000000000523,"velocity":0.7637795275590551,"duration":0.24869791666668561},{"name":"C5","midi":72,"time":302.25000000000523,"velocity":0.7637795275590551,"duration":0.12369791666668561},{"name":"B4","midi":71,"time":302.37500000000523,"velocity":0.7637795275590551,"duration":0.12369791666668561},{"name":"E4","midi":64,"time":302.50000000000523,"velocity":0.7637795275590551,"duration":0.24869791666668561},{"name":"C4","midi":60,"time":302.50000000000523,"velocity":0.7637795275590551,"duration":0.24869791666668561},{"name":"A5","midi":81,"time":302.50000000000523,"velocity":0.7637795275590551,"duration":0.3515625},{"name":"D4","midi":62,"time":302.75000000000523,"velocity":0.7637795275590551,"duration":0.24869791666668561},{"name":"B3","midi":59,"time":302.75000000000523,"velocity":0.7637795275590551,"duration":0.24869791666668561},{"name":"G5","midi":79,"time":302.87500000000523,"velocity":0.7637795275590551,"duration":0.12369791666668561},{"name":"C4","midi":60,"time":303.00000000000523,"velocity":0.7637795275590551,"duration":0.24869791666662877},{"name":"F5","midi":77,"time":303.00000000000523,"velocity":0.7637795275590551,"duration":0.24869791666662877},{"name":"E5","midi":76,"time":303.24739583333854,"velocity":0.7637795275590551,"duration":0.3255208333333144},{"name":"B3","midi":59,"time":303.2500000000052,"velocity":0.7637795275590551,"duration":0.24739583333331439},{"name":"C4","midi":60,"time":303.5000000000052,"velocity":0.7637795275590551,"duration":0.24869791666668561},{"name":"G5","midi":79,"time":303.6250000000052,"velocity":0.7637795275590551,"duration":0.12369791666668561},{"name":"D4","midi":62,"time":303.7500000000052,"velocity":0.7637795275590551,"duration":0.24869791666668561},{"name":"F#5","midi":78,"time":303.7500000000052,"velocity":0.7637795275590551,"duration":0.12369791666668561},{"name":"E5","midi":76,"time":303.8750000000052,"velocity":0.7637795275590551,"duration":0.12369791666668561},{"name":"E4","midi":64,"time":304.0000000000052,"velocity":0.7637795275590551,"duration":0.24869791666668561},{"name":"A3","midi":57,"time":304.0000000000052,"velocity":0.7637795275590551,"duration":0.4947916666666856},{"name":"C6","midi":84,"time":304.0000000000052,"velocity":0.7637795275590551,"duration":0.3736979166666856},{"name":"F#4","midi":66,"time":304.2500000000052,"velocity":0.7637795275590551,"duration":0.24869791666668561},{"name":"A5","midi":81,"time":304.3750000000052,"velocity":0.7637795275590551,"duration":0.12369791666668561},{"name":"G4","midi":67,"time":304.5000000000052,"velocity":0.7637795275590551,"duration":0.8645833333332575},{"name":"G3","midi":55,"time":304.5000000000052,"velocity":0.7637795275590551,"duration":0.49869791666662877},{"name":"B5","midi":83,"time":304.5000000000052,"velocity":0.7637795275590551,"duration":0.24869791666668561},{"name":"A5","midi":81,"time":304.7500000000052,"velocity":0.7637795275590551,"duration":0.08203125},{"name":"G5","midi":79,"time":304.8333333333385,"velocity":0.7637795275590551,"duration":0.08203125},{"name":"F#5","midi":78,"time":304.9166666666718,"velocity":0.7637795275590551,"duration":0.08203125},{"name":"C4","midi":60,"time":305.0000000000051,"velocity":0.7637795275590551,"duration":0.49479166666662877},{"name":"E5","midi":76,"time":305.0000000000051,"velocity":0.7637795275590551,"duration":0.37369791666662877},{"name":"G4","midi":67,"time":305.37500000000506,"velocity":0.7637795275590551,"duration":0.12369791666668561},{"name":"E5","midi":76,"time":305.37500000000506,"velocity":0.7637795275590551,"duration":0.12369791666668561},{"name":"C#4","midi":61,"time":305.50000000000506,"velocity":0.7637795275590551,"duration":0.4947916666666856},{"name":"A4","midi":69,"time":305.50000000000506,"velocity":0.7637795275590551,"duration":0.3736979166666856},{"name":"F#5","midi":78,"time":305.50000000000506,"velocity":0.7637795275590551,"duration":0.3736979166666856},{"name":"B4","midi":71,"time":305.87500000000506,"velocity":0.7637795275590551,"duration":0.12369791666668561},{"name":"G5","midi":79,"time":305.87500000000506,"velocity":0.7637795275590551,"duration":0.12369791666668561},{"name":"A4","midi":69,"time":306.00000000000506,"velocity":0.7637795275590551,"duration":0.4986979166666856},{"name":"D4","midi":62,"time":306.00000000000506,"velocity":0.7637795275590551,"duration":0.87109375},{"name":"F#5","midi":78,"time":306.00000000000506,"velocity":0.7637795275590551,"duration":0.12369791666668561},{"name":"G5","midi":79,"time":306.12500000000506,"velocity":0.7637795275590551,"duration":0.12369791666668561},{"name":"A5","midi":81,"time":306.25000000000506,"velocity":0.7637795275590551,"duration":0.12369791666668561},{"name":"F#5","midi":78,"time":306.37500000000506,"velocity":0.7637795275590551,"duration":0.12369791666668561},{"name":"D3","midi":50,"time":306.50000000000506,"velocity":0.7637795275590551,"duration":0.3645833333333144},{"name":"D5","midi":74,"time":306.50000000000506,"velocity":0.7637795275590551,"duration":3.12890625},{"name":"A4","midi":69,"time":306.87500000000506,"velocity":0.7637795275590551,"duration":0.12369791666668561},{"name":"F#4","midi":66,"time":306.87500000000506,"velocity":0.7637795275590551,"duration":0.12369791666668561},{"name":"F#4","midi":66,"time":307.00000000000506,"velocity":0.7637795275590551,"duration":0.3736979166666856},{"name":"D4","midi":62,"time":307.00000000000506,"velocity":0.7637795275590551,"duration":0.3736979166666856},{"name":"E4","midi":64,"time":307.37500000000506,"velocity":0.7637795275590551,"duration":0.12369791666668561},{"name":"G4","midi":67,"time":307.37500000000506,"velocity":0.7637795275590551,"duration":0.12369791666668561},{"name":"A4","midi":69,"time":307.50000000000506,"velocity":0.7637795275590551,"duration":0.4986979166666856},{"name":"F#4","midi":66,"time":307.50000000000506,"velocity":0.7637795275590551,"duration":0.4986979166666856},{"name":"D3","midi":50,"time":307.87500000000506,"velocity":0.7637795275590551,"duration":0.12369791666668561},{"name":"C3","midi":48,"time":308.00000000000506,"velocity":0.7637795275590551,"duration":0.3736979166666856},{"name":"A4","midi":69,"time":308.00000000000506,"velocity":0.7637795275590551,"duration":0.4986979166666856},{"name":"F#4","midi":66,"time":308.00000000000506,"velocity":0.7637795275590551,"duration":0.4986979166666856},{"name":"B2","midi":47,"time":308.37500000000506,"velocity":0.7637795275590551,"duration":0.12369791666668561},{"name":"A2","midi":45,"time":308.50000000000506,"velocity":0.7637795275590551,"duration":0.3736979166666856},{"name":"G4","midi":67,"time":308.50000000000506,"velocity":0.7637795275590551,"duration":0.3736979166666856},{"name":"B4","midi":71,"time":308.50000000000506,"velocity":0.7637795275590551,"duration":0.3736979166666856},{"name":"G2","midi":43,"time":308.87500000000506,"velocity":0.7637795275590551,"duration":0.12369791666668561},{"name":"C5","midi":72,"time":308.87500000000506,"velocity":0.7637795275590551,"duration":0.12369791666668561},{"name":"A4","midi":69,"time":308.87500000000506,"velocity":0.7637795275590551,"duration":0.12369791666668561},{"name":"D3","midi":50,"time":309.00000000000506,"velocity":0.7637795275590551,"duration":0.9986979166666856},{"name":"B4","midi":71,"time":309.00000000000506,"velocity":0.7637795275590551,"duration":0.2682291666666856},{"name":"G4","midi":67,"time":309.00000000000506,"velocity":0.7637795275590551,"duration":0.2682291666666856},{"name":"F#4","midi":66,"time":309.26562500000506,"velocity":0.7637795275590551,"duration":0.4166666666666856},{"name":"A4","midi":69,"time":309.26562500000506,"velocity":0.7637795275590551,"duration":0.4166666666666856},{"name":"D2","midi":38,"time":309.50000000000506,"velocity":0.7637795275590551,"duration":0.4947916666666856},{"name":"A4","midi":69,"time":309.85416666667174,"velocity":0.7637795275590551,"duration":0.14453125},{"name":"F#5","midi":78,"time":309.85416666667174,"velocity":0.7637795275590551,"duration":0.14453125},{"name":"D5","midi":74,"time":310.00000000000506,"velocity":0.7637795275590551,"duration":0.3736979166666856},{"name":"F#4","midi":66,"time":310.00000000000506,"velocity":0.7637795275590551,"duration":0.3736979166666856},{"name":"G4","midi":67,"time":310.37500000000506,"velocity":0.7637795275590551,"duration":0.12369791666668561},{"name":"E5","midi":76,"time":310.37500000000506,"velocity":0.7637795275590551,"duration":0.12369791666668561},{"name":"A4","midi":69,"time":310.50000000000506,"velocity":0.7637795275590551,"duration":0.4986979166666856},{"name":"F#5","midi":78,"time":310.50000000000506,"velocity":0.7637795275590551,"duration":0.4986979166666856},{"name":"E4","midi":64,"time":310.87500000000506,"velocity":0.7637795275590551,"duration":0.12369791666668561},{"name":"D4","midi":62,"time":311.00000000000506,"velocity":0.7637795275590551,"duration":0.3736979166666856},{"name":"A5","midi":81,"time":311.00000000000506,"velocity":0.7637795275590551,"duration":0.24869791666668561},{"name":"B4","midi":71,"time":311.00000000000506,"velocity":0.7637795275590551,"duration":0.7486979166666856},{"name":"G#5","midi":80,"time":311.25000000000506,"velocity":0.7637795275590551,"duration":0.4986979166666856},{"name":"C4","midi":60,"time":311.37500000000506,"velocity":0.7637795275590551,"duration":0.12369791666668561},{"name":"B3","midi":59,"time":311.50000000000506,"velocity":0.7637795275590551,"duration":0.3736979166666856},{"name":"A5","midi":81,"time":311.75000000000506,"velocity":0.7637795275590551,"duration":0.24869791666668561},{"name":"C5","midi":72,"time":311.75000000000506,"velocity":0.7637795275590551,"duration":0.24869791666668561},{"name":"A3","midi":57,"time":311.87500000000506,"velocity":0.7637795275590551,"duration":0.12369791666668561},{"name":"G#3","midi":56,"time":312.00000000000506,"velocity":0.7637795275590551,"duration":0.49479166666662877},{"name":"D5","midi":74,"time":312.00000000000506,"velocity":0.7637795275590551,"duration":0.2864583333333144},{"name":"B5","midi":83,"time":312.00000000000506,"velocity":0.7637795275590551,"duration":0.12369791666668561},{"name":"F5","midi":77,"time":312.12500000000506,"velocity":0.7637795275590551,"duration":0.12369791666668561},{"name":"E5","midi":76,"time":312.25000000000506,"velocity":0.7637795275590551,"duration":0.12369791666662877},{"name":"D5","midi":74,"time":312.375000000005,"velocity":0.7637795275590551,"duration":0.12369791666668561},{"name":"E5","midi":76,"time":312.500000000005,"velocity":0.7637795275590551,"duration":0.16927083333331439},{"name":"D5","midi":74,"time":312.625000000005,"velocity":0.7637795275590551,"duration":0.12369791666662877},{"name":"C5","midi":72,"time":312.75000000000495,"velocity":0.7637795275590551,"duration":0.12369791666668561},{"name":"B4","midi":71,"time":312.87500000000495,"velocity":0.7637795275590551,"duration":0.12369791666668561},{"name":"A4","midi":69,"time":313.00000000000495,"velocity":0.7637795275590551,"duration":0.12369791666668561},{"name":"G#4","midi":68,"time":313.12500000000495,"velocity":0.7637795275590551,"duration":0.12369791666668561},{"name":"F#4","midi":66,"time":313.25000000000495,"velocity":0.7637795275590551,"duration":0.12369791666668561},{"name":"E4","midi":64,"time":313.37500000000495,"velocity":0.7637795275590551,"duration":0.11458333333331439},{"name":"D5","midi":74,"time":313.50000000000495,"velocity":0.7637795275590551,"duration":0.14322916666668561},{"name":"C5","midi":72,"time":313.62500000000495,"velocity":0.7637795275590551,"duration":0.12369791666668561},{"name":"B4","midi":71,"time":313.75000000000495,"velocity":0.7637795275590551,"duration":0.12369791666668561},{"name":"E3","midi":52,"time":313.87500000000495,"velocity":0.7637795275590551,"duration":0.12369791666668561},{"name":"D5","midi":74,"time":313.87500000000495,"velocity":0.7637795275590551,"duration":0.12369791666668561},{"name":"A3","midi":57,"time":314.00000000000495,"velocity":0.7637795275590551,"duration":0.3736979166666856},{"name":"C5","midi":72,"time":314.00000000000495,"velocity":0.7637795275590551,"duration":1.09375},{"name":"G3","midi":55,"time":314.37500000000495,"velocity":0.7637795275590551,"duration":0.12369791666668561},{"name":"E4","midi":64,"time":314.37500000000495,"velocity":0.7637795275590551,"duration":0.12369791666668561},{"name":"F#3","midi":54,"time":314.50000000000495,"velocity":0.7637795275590551,"duration":0.3736979166666856},{"name":"A4","midi":69,"time":314.50000000000495,"velocity":0.7637795275590551,"duration":0.3736979166666856},{"name":"E3","midi":52,"time":314.87500000000495,"velocity":0.7637795275590551,"duration":0.12369791666668561},{"name":"G4","midi":67,"time":314.87500000000495,"velocity":0.7637795275590551,"duration":0.12369791666668561},{"name":"D3","midi":50,"time":315.00000000000495,"velocity":0.7637795275590551,"duration":0.3736979166666856},{"name":"F#4","midi":66,"time":315.00000000000495,"velocity":0.7637795275590551,"duration":0.4947916666666856},{"name":"B4","midi":71,"time":315.12500000000495,"velocity":0.7637795275590551,"duration":0.12369791666668561},{"name":"A4","midi":69,"time":315.25000000000495,"velocity":0.7637795275590551,"duration":0.12369791666668561},{"name":"G2","midi":43,"time":315.37500000000495,"velocity":0.7637795275590551,"duration":0.12369791666668561},{"name":"C5","midi":72,"time":315.37500000000495,"velocity":0.7637795275590551,"duration":0.12369791666668561},{"name":"G3","midi":55,"time":315.50000000000495,"velocity":0.7637795275590551,"duration":0.3736979166666856},{"name":"B4","midi":71,"time":315.50000000000495,"velocity":0.7637795275590551,"duration":0.3385416666666856},{"name":"G4","midi":67,"time":315.50000000000495,"velocity":0.7637795275590551,"duration":0.3385416666666856},{"name":"F#4","midi":66,"time":315.87500000000495,"velocity":0.7637795275590551,"duration":0.12369791666668561},{"name":"E5","midi":76,"time":315.87500000000495,"velocity":0.7637795275590551,"duration":0.12369791666668561},{"name":"C5","midi":72,"time":315.87500000000495,"velocity":0.7637795275590551,"duration":0.12369791666668561},{"name":"G4","midi":67,"time":316.00000000000495,"velocity":0.7637795275590551,"duration":0.8072916666666856},{"name":"D5","midi":74,"time":316.00000000000495,"velocity":0.7637795275590551,"duration":0.8072916666666856},{"name":"B4","midi":71,"time":316.00000000000495,"velocity":0.7637795275590551,"duration":0.8072916666666856},{"name":"A3","midi":57,"time":316.37500000000495,"velocity":0.7637795275590551,"duration":0.12369791666668561},{"name":"B3","midi":59,"time":316.50000000000495,"velocity":0.7637795275590551,"duration":0.3736979166666856},{"name":"C4","midi":60,"time":316.87500000000495,"velocity":0.7637795275590551,"duration":0.12369791666668561},{"name":"E4","midi":64,"time":316.87500000000495,"velocity":0.7637795275590551,"duration":0.12369791666668561},{"name":"C5","midi":72,"time":316.87500000000495,"velocity":0.7637795275590551,"duration":0.12369791666668561},{"name":"A4","midi":69,"time":316.87500000000495,"velocity":0.7637795275590551,"duration":0.12369791666668561},{"name":"D4","midi":62,"time":317.00000000000495,"velocity":0.7637795275590551,"duration":0.4986979166666856},{"name":"B4","midi":71,"time":317.00000000000495,"velocity":0.7637795275590551,"duration":0.4986979166666856},{"name":"G4","midi":67,"time":317.00000000000495,"velocity":0.7637795275590551,"duration":0.4986979166666856},{"name":"D3","midi":50,"time":317.50000000000495,"velocity":0.7637795275590551,"duration":0.51953125},{"name":"C4","midi":60,"time":317.50000000000495,"velocity":0.7637795275590551,"duration":0.51953125},{"name":"B4","midi":71,"time":317.50000000000495,"velocity":0.7637795275590551,"duration":0.12369791666668561},{"name":"F#4","midi":66,"time":317.50000000000495,"velocity":0.7637795275590551,"duration":0.51953125},{"name":"A4","midi":69,"time":317.62500000000495,"velocity":0.7637795275590551,"duration":0.061197916666685614},{"name":"B4","midi":71,"time":317.68750000000495,"velocity":0.7637795275590551,"duration":0.061197916666685614},{"name":"A4","midi":69,"time":317.75000000000495,"velocity":0.7637795275590551,"duration":0.15234375},{"name":"G4","midi":67,"time":317.90364583333826,"velocity":0.7637795275590551,"duration":0.11588541666668561},{"name":"G2","midi":43,"time":318.02083333333826,"velocity":0.7637795275590551,"duration":1.4765625},{"name":"G3","midi":55,"time":318.02083333333826,"velocity":0.7637795275590551,"duration":1.4765625},{"name":"G4","midi":67,"time":318.02083333333826,"velocity":0.7637795275590551,"duration":1.4765625},{"name":"B3","midi":59,"time":318.02083333333826,"velocity":0.7637795275590551,"duration":1.4765625},{"name":"D4","midi":62,"time":318.02083333333826,"velocity":0.7637795275590551,"duration":1.4765625},{"name":"D4","midi":62,"time":322.50000000000495,"velocity":0.7637795275590551,"duration":0.2591145833333144},{"name":"G3","midi":55,"time":322.75000000000495,"velocity":0.7637795275590551,"duration":0.15625},{"name":"B3","midi":59,"time":323.00000000000495,"velocity":0.7637795275590551,"duration":0.15625},{"name":"G4","midi":67,"time":323.25000000000495,"velocity":0.7637795275590551,"duration":0.234375},{"name":"B3","midi":59,"time":323.50000000000495,"velocity":0.7637795275590551,"duration":0.15625},{"name":"D4","midi":62,"time":323.75000000000495,"velocity":0.7637795275590551,"duration":0.15625},{"name":"B4","midi":71,"time":324.00000000000495,"velocity":0.7637795275590551,"duration":0.2591145833333144},{"name":"D4","midi":62,"time":324.25000000000495,"velocity":0.7637795275590551,"duration":0.15625},{"name":"G4","midi":67,"time":324.50000000000495,"velocity":0.7637795275590551,"duration":0.15625},{"name":"D5","midi":74,"time":324.75000000000495,"velocity":0.7637795275590551,"duration":0.234375},{"name":"G4","midi":67,"time":325.00000000000495,"velocity":0.7637795275590551,"duration":0.15625},{"name":"B4","midi":71,"time":325.25000000000495,"velocity":0.7637795275590551,"duration":0.15625},{"name":"G5","midi":79,"time":325.50000000000495,"velocity":0.7637795275590551,"duration":0.2591145833333144},{"name":"B4","midi":71,"time":325.75000000000495,"velocity":0.7637795275590551,"duration":0.15625},{"name":"D5","midi":74,"time":326.00000000000495,"velocity":0.7637795275590551,"duration":0.15625},{"name":"B5","midi":83,"time":326.25000000000495,"velocity":0.7637795275590551,"duration":0.234375},{"name":"D5","midi":74,"time":326.50000000000495,"velocity":0.7637795275590551,"duration":0.15625},{"name":"G5","midi":79,"time":326.75000000000495,"velocity":0.7637795275590551,"duration":0.15625},{"name":"C6","midi":84,"time":327.00000000000495,"velocity":0.7637795275590551,"duration":0.12369791666668561},{"name":"G5","midi":79,"time":327.00000000000495,"velocity":0.7637795275590551,"duration":0.9986979166666288},{"name":"B5","midi":83,"time":327.11718750000495,"velocity":0.7637795275590551,"duration":0.12369791666668561},{"name":"C6","midi":84,"time":327.2356770833383,"velocity":0.7637795275590551,"duration":0.12369791666668561},{"name":"D5","midi":74,"time":327.2356770833383,"velocity":0.7637795275590551,"duration":0.15625},{"name":"B5","midi":83,"time":327.3528645833383,"velocity":0.7637795275590551,"duration":0.12369791666662877},{"name":"C6","midi":84,"time":327.47135416667163,"velocity":0.7637795275590551,"duration":0.12369791666668561},{"name":"C#5","midi":73,"time":327.47135416667163,"velocity":0.7637795275590551,"duration":0.15625},{"name":"B5","midi":83,"time":327.58854166667163,"velocity":0.7637795275590551,"duration":0.12369791666662877},{"name":"C6","midi":84,"time":327.70703125000495,"velocity":0.7637795275590551,"duration":0.12369791666668561},{"name":"D5","midi":74,"time":327.70703125000495,"velocity":0.7637795275590551,"duration":0.15625},{"name":"B5","midi":83,"time":327.82421875000495,"velocity":0.7637795275590551,"duration":0.12369791666662877},{"name":"F#5","midi":78,"time":327.94270833333826,"velocity":0.7637795275590551,"duration":0.49479166666662877},{"name":"A5","midi":81,"time":327.94270833333826,"velocity":0.7637795275590551,"duration":0.3645833333333144},{"name":"D4","midi":62,"time":327.94270833333826,"velocity":0.7637795275590551,"duration":0.3645833333333144},{"name":"B5","midi":83,"time":328.5000000000049,"velocity":0.7637795275590551,"duration":0.2591145833333144},{"name":"D5","midi":74,"time":328.7500000000049,"velocity":0.7637795275590551,"duration":0.15625},{"name":"G5","midi":79,"time":329.0000000000049,"velocity":0.7637795275590551,"duration":0.15625},{"name":"E5","midi":76,"time":329.2500000000049,"velocity":0.7637795275590551,"duration":0.234375},{"name":"G4","midi":67,"time":329.5000000000049,"velocity":0.7637795275590551,"duration":0.15625},{"name":"B4","midi":71,"time":329.7500000000049,"velocity":0.7637795275590551,"duration":0.15625},{"name":"A5","midi":81,"time":330.0000000000049,"velocity":0.7637795275590551,"duration":0.2591145833333144},{"name":"C#5","midi":73,"time":330.2500000000049,"velocity":0.7637795275590551,"duration":0.15625},{"name":"E5","midi":76,"time":330.5000000000049,"velocity":0.7637795275590551,"duration":0.15625},{"name":"D5","midi":74,"time":330.7500000000049,"velocity":0.7637795275590551,"duration":0.234375},{"name":"F#4","midi":66,"time":331.0000000000049,"velocity":0.7637795275590551,"duration":0.15625},{"name":"A4","midi":69,"time":331.2500000000049,"velocity":0.7637795275590551,"duration":0.15625},{"name":"G5","midi":79,"time":331.5000000000049,"velocity":0.7637795275590551,"duration":0.2591145833333144},{"name":"B4","midi":71,"time":331.7500000000049,"velocity":0.7637795275590551,"duration":0.15625},{"name":"D5","midi":74,"time":332.0000000000049,"velocity":0.7637795275590551,"duration":0.15625},{"name":"C#5","midi":73,"time":332.2500000000049,"velocity":0.7637795275590551,"duration":0.234375},{"name":"E4","midi":64,"time":332.5000000000049,"velocity":0.7637795275590551,"duration":0.15625},{"name":"G4","midi":67,"time":332.7500000000049,"velocity":0.7637795275590551,"duration":0.15625},{"name":"F#5","midi":78,"time":333.0000000000049,"velocity":0.7637795275590551,"duration":0.2591145833333144},{"name":"A4","midi":69,"time":333.2500000000049,"velocity":0.7637795275590551,"duration":0.15625},{"name":"C#5","midi":73,"time":333.5000000000049,"velocity":0.7637795275590551,"duration":0.15625},{"name":"B4","midi":71,"time":333.7500000000049,"velocity":0.7637795275590551,"duration":0.234375},{"name":"D4","midi":62,"time":334.0000000000049,"velocity":0.7637795275590551,"duration":0.15625},{"name":"F#4","midi":66,"time":334.2500000000049,"velocity":0.7637795275590551,"duration":0.15625},{"name":"E5","midi":76,"time":334.5000000000049,"velocity":0.7637795275590551,"duration":0.2591145833333144},{"name":"G4","midi":67,"time":334.7500000000049,"velocity":0.7637795275590551,"duration":0.15625},{"name":"B4","midi":71,"time":335.0000000000049,"velocity":0.7637795275590551,"duration":0.15625},{"name":"A4","midi":69,"time":335.2500000000049,"velocity":0.7637795275590551,"duration":0.234375},{"name":"C#4","midi":61,"time":335.5000000000049,"velocity":0.7637795275590551,"duration":0.15625},{"name":"E4","midi":64,"time":335.7500000000049,"velocity":0.7637795275590551,"duration":0.15625},{"name":"D5","midi":74,"time":336.0000000000049,"velocity":0.7637795275590551,"duration":0.2591145833333144},{"name":"F#4","midi":66,"time":336.2500000000049,"velocity":0.7637795275590551,"duration":0.15625},{"name":"A4","midi":69,"time":336.5000000000049,"velocity":0.7637795275590551,"duration":0.15625},{"name":"G4","midi":67,"time":336.7500000000049,"velocity":0.7637795275590551,"duration":0.234375},{"name":"B3","midi":59,"time":337.0000000000049,"velocity":0.7637795275590551,"duration":0.15625},{"name":"D4","midi":62,"time":337.2500000000049,"velocity":0.7637795275590551,"duration":0.15625},{"name":"G3","midi":55,"time":337.5000000000049,"velocity":0.7637795275590551,"duration":0.4947916666666856},{"name":"E4","midi":64,"time":337.9804687500049,"velocity":0.7637795275590551,"duration":0.45833333333337123},{"name":"D5","midi":74,"time":337.9804687500049,"velocity":0.7637795275590551,"duration":0.45833333333337123},{"name":"G4","midi":67,"time":338.46093750000495,"velocity":0.7637795275590551,"duration":0.4583333333333144},{"name":"A3","midi":57,"time":338.46093750000495,"velocity":0.7637795275590551,"duration":0.4947916666666856},{"name":"C#5","midi":73,"time":338.46093750000495,"velocity":0.7637795275590551,"duration":0.4583333333333144},{"name":"C#5","midi":73,"time":338.94140625000495,"velocity":0.7637795275590551,"duration":0.5468750000000568},{"name":"G4","midi":67,"time":338.94140625000495,"velocity":0.7637795275590551,"duration":0.5468750000000568},{"name":"D4","midi":62,"time":338.94140625000495,"velocity":0.7637795275590551,"duration":1.3020833333333712},{"name":"D5","midi":74,"time":339.4739583333383,"velocity":0.7637795275590551,"duration":0.5729166666666856},{"name":"F#4","midi":66,"time":339.4739583333383,"velocity":0.7637795275590551,"duration":0.5729166666666856},{"name":"A3","midi":57,"time":340.500000000005,"velocity":0.7637795275590551,"duration":0.2591145833333144},{"name":"D3","midi":50,"time":340.750000000005,"velocity":0.7637795275590551,"duration":0.15625},{"name":"F#3","midi":54,"time":341.000000000005,"velocity":0.7637795275590551,"duration":0.15625},{"name":"D4","midi":62,"time":341.250000000005,"velocity":0.7637795275590551,"duration":0.234375},{"name":"F#3","midi":54,"time":341.500000000005,"velocity":0.7637795275590551,"duration":0.15625},{"name":"A3","midi":57,"time":341.750000000005,"velocity":0.7637795275590551,"duration":0.15625},{"name":"F#4","midi":66,"time":342.000000000005,"velocity":0.7637795275590551,"duration":0.2591145833333144},{"name":"A3","midi":57,"time":342.250000000005,"velocity":0.7637795275590551,"duration":0.15625},{"name":"D4","midi":62,"time":342.500000000005,"velocity":0.7637795275590551,"duration":0.15625},{"name":"A4","midi":69,"time":342.750000000005,"velocity":0.7637795275590551,"duration":0.234375},{"name":"D4","midi":62,"time":343.000000000005,"velocity":0.7637795275590551,"duration":0.15625},{"name":"F#4","midi":66,"time":343.250000000005,"velocity":0.7637795275590551,"duration":0.15625},{"name":"C5","midi":72,"time":343.500000000005,"velocity":0.7637795275590551,"duration":0.2591145833333144},{"name":"F#4","midi":66,"time":343.750000000005,"velocity":0.7637795275590551,"duration":0.15625},{"name":"A4","midi":69,"time":344.000000000005,"velocity":0.7637795275590551,"duration":0.15625},{"name":"D#5","midi":75,"time":344.250000000005,"velocity":0.7637795275590551,"duration":0.234375},{"name":"A4","midi":69,"time":344.500000000005,"velocity":0.7637795275590551,"duration":0.15625},{"name":"C5","midi":72,"time":344.750000000005,"velocity":0.7637795275590551,"duration":0.7486979166666856},{"name":"F#5","midi":78,"time":345.000000000005,"velocity":0.7637795275590551,"duration":0.7486979166666856},{"name":"D#4","midi":63,"time":345.000000000005,"velocity":0.7637795275590551,"duration":0.9986979166666856},{"name":"B4","midi":71,"time":345.4713541666717,"velocity":0.7637795275590551,"duration":0.15625},{"name":"G5","midi":79,"time":345.707031250005,"velocity":0.7637795275590551,"duration":0.12369791666668561},{"name":"A5","midi":81,"time":345.824218750005,"velocity":0.7637795275590551,"duration":0.08333333333337123},{"name":"G5","midi":79,"time":345.9427083333384,"velocity":0.7637795275590551,"duration":0.3645833333333144},{"name":"E4","midi":64,"time":345.9427083333384,"velocity":0.7637795275590551,"duration":0.49479166666662877},{"name":"B3","midi":59,"time":346.500000000005,"velocity":0.7637795275590551,"duration":0.2591145833333144},{"name":"E3","midi":52,"time":346.750000000005,"velocity":0.7637795275590551,"duration":0.15625},{"name":"G3","midi":55,"time":347.000000000005,"velocity":0.7637795275590551,"duration":0.15625},{"name":"E4","midi":64,"time":347.250000000005,"velocity":0.7637795275590551,"duration":0.234375},{"name":"G3","midi":55,"time":347.500000000005,"velocity":0.7637795275590551,"duration":0.15625},{"name":"B3","midi":59,"time":347.750000000005,"velocity":0.7637795275590551,"duration":0.15625},{"name":"G4","midi":67,"time":348.000000000005,"velocity":0.7637795275590551,"duration":0.2591145833333144},{"name":"B3","midi":59,"time":348.250000000005,"velocity":0.7637795275590551,"duration":0.15625},{"name":"E4","midi":64,"time":348.500000000005,"velocity":0.7637795275590551,"duration":0.15625},{"name":"B4","midi":71,"time":348.750000000005,"velocity":0.7637795275590551,"duration":0.234375},{"name":"E4","midi":64,"time":349.000000000005,"velocity":0.7637795275590551,"duration":0.15625},{"name":"G4","midi":67,"time":349.250000000005,"velocity":0.7637795275590551,"duration":0.15625},{"name":"D5","midi":74,"time":349.500000000005,"velocity":0.7637795275590551,"duration":0.2591145833333144},{"name":"G#4","midi":68,"time":349.750000000005,"velocity":0.7637795275590551,"duration":0.15625},{"name":"B4","midi":71,"time":350.000000000005,"velocity":0.7637795275590551,"duration":0.15625},{"name":"F5","midi":77,"time":350.250000000005,"velocity":0.7637795275590551,"duration":0.234375},{"name":"B4","midi":71,"time":350.500000000005,"velocity":0.7637795275590551,"duration":0.15625},{"name":"D5","midi":74,"time":350.750000000005,"velocity":0.7637795275590551,"duration":0.9479166666666856},{"name":"G#5","midi":80,"time":351.000000000005,"velocity":0.7637795275590551,"duration":0.25911458333337123},{"name":"E4","midi":64,"time":351.000000000005,"velocity":0.7637795275590551,"duration":0.45833333333337123},{"name":"A5","midi":81,"time":351.2369791666717,"velocity":0.7637795275590551,"duration":0.15625},{"name":"G#4","midi":68,"time":351.4739583333384,"velocity":0.7637795275590551,"duration":0.4583333333333144},{"name":"B5","midi":83,"time":351.4739583333384,"velocity":0.7637795275590551,"duration":0.24739583333331439},{"name":"D5","midi":74,"time":351.710937500005,"velocity":0.7637795275590551,"duration":0.234375},{"name":"C5","midi":72,"time":351.937500000005,"velocity":0.7637795275590551,"duration":0.3645833333333144},{"name":"A3","midi":57,"time":351.937500000005,"velocity":0.7637795275590551,"duration":0.3645833333333144},{"name":"A4","midi":69,"time":351.937500000005,"velocity":0.7637795275590551,"duration":0.49479166666662877},{"name":"F#5","midi":78,"time":352.50000000000495,"velocity":0.7637795275590551,"duration":0.2591145833333144},{"name":"A4","midi":69,"time":352.75000000000495,"velocity":0.7637795275590551,"duration":0.15625},{"name":"C5","midi":72,"time":353.00000000000495,"velocity":0.7637795275590551,"duration":0.15625},{"name":"B4","midi":71,"time":353.25000000000495,"velocity":0.7637795275590551,"duration":0.234375},{"name":"D#4","midi":63,"time":353.50000000000495,"velocity":0.7637795275590551,"duration":0.15625},{"name":"F#4","midi":66,"time":353.75000000000495,"velocity":0.7637795275590551,"duration":0.15625},{"name":"G5","midi":79,"time":354.00000000000495,"velocity":0.7637795275590551,"duration":0.2591145833333144},{"name":"B4","midi":71,"time":354.25000000000495,"velocity":0.7637795275590551,"duration":0.15625},{"name":"E5","midi":76,"time":354.50000000000495,"velocity":0.7637795275590551,"duration":0.15625},{"name":"A#4","midi":70,"time":354.75000000000495,"velocity":0.7637795275590551,"duration":0.234375},{"name":"C#4","midi":61,"time":355.00000000000495,"velocity":0.7637795275590551,"duration":0.15625},{"name":"E4","midi":64,"time":355.25000000000495,"velocity":0.7637795275590551,"duration":0.15625},{"name":"F#5","midi":78,"time":355.50000000000495,"velocity":0.7637795275590551,"duration":0.2591145833333144},{"name":"A4","midi":69,"time":355.75000000000495,"velocity":0.7637795275590551,"duration":0.15625},{"name":"C5","midi":72,"time":356.00000000000495,"velocity":0.7637795275590551,"duration":0.15625},{"name":"B4","midi":71,"time":356.25000000000495,"velocity":0.7637795275590551,"duration":0.234375},{"name":"D#4","midi":63,"time":356.50000000000495,"velocity":0.7637795275590551,"duration":0.15625},{"name":"F#4","midi":66,"time":356.75000000000495,"velocity":0.7637795275590551,"duration":0.15625},{"name":"A5","midi":81,"time":357.00000000000495,"velocity":0.7637795275590551,"duration":0.2591145833333144},{"name":"C5","midi":72,"time":357.25000000000495,"velocity":0.7637795275590551,"duration":0.15625},{"name":"E5","midi":76,"time":357.50000000000495,"velocity":0.7637795275590551,"duration":0.15625},{"name":"D#5","midi":75,"time":357.75000000000495,"velocity":0.7637795275590551,"duration":0.234375},{"name":"F#4","midi":66,"time":358.00000000000495,"velocity":0.7637795275590551,"duration":0.15625},{"name":"A4","midi":69,"time":358.25000000000495,"velocity":0.7637795275590551,"duration":0.15625},{"name":"G5","midi":79,"time":358.50000000000495,"velocity":0.7637795275590551,"duration":0.2591145833333144},{"name":"B4","midi":71,"time":358.75000000000495,"velocity":0.7637795275590551,"duration":0.15625},{"name":"D5","midi":74,"time":359.00000000000495,"velocity":0.7637795275590551,"duration":0.15625},{"name":"C5","midi":72,"time":359.25000000000495,"velocity":0.7637795275590551,"duration":0.234375},{"name":"E4","midi":64,"time":359.50000000000495,"velocity":0.7637795275590551,"duration":0.15625},{"name":"G4","midi":67,"time":359.75000000000495,"velocity":0.7637795275590551,"duration":0.15625},{"name":"F#5","midi":78,"time":360.00000000000495,"velocity":0.7637795275590551,"duration":0.2591145833333144},{"name":"A4","midi":69,"time":360.25000000000495,"velocity":0.7637795275590551,"duration":0.15625},{"name":"C5","midi":72,"time":360.50000000000495,"velocity":0.7637795275590551,"duration":0.15625},{"name":"B4","midi":71,"time":360.75000000000495,"velocity":0.7637795275590551,"duration":0.234375},{"name":"D4","midi":62,"time":361.00000000000495,"velocity":0.7637795275590551,"duration":0.15625},{"name":"F#4","midi":66,"time":361.25000000000495,"velocity":0.7637795275590551,"duration":0.15625},{"name":"E5","midi":76,"time":361.50000000000495,"velocity":0.7637795275590551,"duration":0.2591145833333144},{"name":"G4","midi":67,"time":361.75000000000495,"velocity":0.7637795275590551,"duration":0.15625},{"name":"B4","midi":71,"time":362.00000000000495,"velocity":0.7637795275590551,"duration":0.15625},{"name":"A4","midi":69,"time":362.25000000000495,"velocity":0.7637795275590551,"duration":0.234375},{"name":"C4","midi":60,"time":362.50000000000495,"velocity":0.7637795275590551,"duration":0.15625},{"name":"E4","midi":64,"time":362.75000000000495,"velocity":0.7637795275590551,"duration":0.15625},{"name":"D#5","midi":75,"time":363.00000000000495,"velocity":0.7637795275590551,"duration":0.2591145833333144},{"name":"F#4","midi":66,"time":363.25000000000495,"velocity":0.7637795275590551,"duration":0.15625},{"name":"A4","midi":69,"time":363.50000000000495,"velocity":0.7637795275590551,"duration":0.15625},{"name":"D#4","midi":63,"time":363.75000000000495,"velocity":0.7637795275590551,"duration":0.234375},{"name":"F#4","midi":66,"time":364.00000000000495,"velocity":0.7637795275590551,"duration":0.15625},{"name":"A4","midi":69,"time":364.25000000000495,"velocity":0.7637795275590551,"duration":0.15625},{"name":"C5","midi":72,"time":364.50000000000495,"velocity":0.7637795275590551,"duration":0.2591145833333144},{"name":"F#4","midi":66,"time":364.75000000000495,"velocity":0.7637795275590551,"duration":0.15625},{"name":"A4","midi":69,"time":365.00000000000495,"velocity":0.7637795275590551,"duration":0.15625},{"name":"D#5","midi":75,"time":365.25000000000495,"velocity":0.7637795275590551,"duration":0.234375},{"name":"A4","midi":69,"time":365.50000000000495,"velocity":0.7637795275590551,"duration":0.15625},{"name":"C5","midi":72,"time":365.75000000000495,"velocity":0.7637795275590551,"duration":0.15625},{"name":"F#5","midi":78,"time":366.00000000000495,"velocity":0.7637795275590551,"duration":0.2591145833333144},{"name":"C5","midi":72,"time":366.25000000000495,"velocity":0.7637795275590551,"duration":0.15625},{"name":"D#5","midi":75,"time":366.50000000000495,"velocity":0.7637795275590551,"duration":0.15625},{"name":"A5","midi":81,"time":366.75000000000495,"velocity":0.7637795275590551,"duration":0.234375},{"name":"D#5","midi":75,"time":367.00000000000495,"velocity":0.7637795275590551,"duration":0.15625},{"name":"F#5","midi":78,"time":367.25000000000495,"velocity":0.7637795275590551,"duration":0.15625},{"name":"E5","midi":76,"time":367.50000000000495,"velocity":0.7637795275590551,"duration":0.4583333333333144},{"name":"G5","midi":79,"time":367.50000000000495,"velocity":0.7637795275590551,"duration":0.4583333333333144},{"name":"G3","midi":55,"time":367.98046875000495,"velocity":0.7637795275590551,"duration":0.4583333333333144},{"name":"B4","midi":71,"time":367.98046875000495,"velocity":0.7637795275590551,"duration":0.4583333333333144},{"name":"E5","midi":76,"time":367.98046875000495,"velocity":0.7637795275590551,"duration":0.4583333333333144},{"name":"B3","midi":59,"time":368.46093750000495,"velocity":0.7637795275590551,"duration":0.4583333333333144},{"name":"D#5","midi":75,"time":368.46093750000495,"velocity":0.7637795275590551,"duration":0.4583333333333144},{"name":"A4","midi":69,"time":368.46093750000495,"velocity":0.7637795275590551,"duration":0.4583333333333144},{"name":"E4","midi":64,"time":368.94140625000495,"velocity":0.7637795275590551,"duration":0.7486979166666288},{"name":"D#5","midi":75,"time":368.94140625000495,"velocity":0.7637795275590551,"duration":0.484375},{"name":"A4","midi":69,"time":368.94140625000495,"velocity":0.7637795275590551,"duration":0.484375},{"name":"G4","midi":67,"time":369.41927083333826,"velocity":0.7637795275590551,"duration":0.15625},{"name":"E5","midi":76,"time":369.41927083333826,"velocity":0.7637795275590551,"duration":0.4583333333333144},{"name":"D4","midi":62,"time":369.7812500000049,"velocity":0.7637795275590551,"duration":0.15625},{"name":"C#4","midi":61,"time":370.0208333333382,"velocity":0.7637795275590551,"duration":0.15625},{"name":"B3","midi":59,"time":370.2604166666715,"velocity":0.7637795275590551,"duration":0.15625},{"name":"A3","midi":57,"time":370.50000000000483,"velocity":0.7637795275590551,"duration":0.2591145833333144},{"name":"E4","midi":64,"time":370.75000000000483,"velocity":0.7637795275590551,"duration":0.15625},{"name":"C#4","midi":61,"time":371.00000000000483,"velocity":0.7637795275590551,"duration":0.15625},{"name":"G4","midi":67,"time":371.25000000000483,"velocity":0.7637795275590551,"duration":0.234375},{"name":"E4","midi":64,"time":371.50000000000483,"velocity":0.7637795275590551,"duration":0.15625},{"name":"C#4","midi":61,"time":371.75000000000483,"velocity":0.7637795275590551,"duration":0.15625},{"name":"A3","midi":57,"time":372.00000000000483,"velocity":0.7637795275590551,"duration":0.2591145833333144},{"name":"F#4","midi":66,"time":372.25000000000483,"velocity":0.7637795275590551,"duration":0.15625},{"name":"D4","midi":62,"time":372.50000000000483,"velocity":0.7637795275590551,"duration":0.15625},{"name":"A4","midi":69,"time":372.75000000000483,"velocity":0.7637795275590551,"duration":0.234375},{"name":"F#4","midi":66,"time":373.00000000000483,"velocity":0.7637795275590551,"duration":0.15625},{"name":"D4","midi":62,"time":373.25000000000483,"velocity":0.7637795275590551,"duration":0.15625},{"name":"A3","midi":57,"time":373.50000000000483,"velocity":0.7637795275590551,"duration":0.2591145833333144},{"name":"E4","midi":64,"time":373.75000000000483,"velocity":0.7637795275590551,"duration":0.15625},{"name":"C#4","midi":61,"time":374.00000000000483,"velocity":0.7637795275590551,"duration":0.15625},{"name":"G4","midi":67,"time":374.25000000000483,"velocity":0.7637795275590551,"duration":0.234375},{"name":"E4","midi":64,"time":374.50000000000483,"velocity":0.7637795275590551,"duration":0.15625},{"name":"C#4","midi":61,"time":374.75000000000483,"velocity":0.7637795275590551,"duration":0.15625},{"name":"A3","midi":57,"time":375.00000000000483,"velocity":0.7637795275590551,"duration":0.2591145833333144},{"name":"F#4","midi":66,"time":375.25000000000483,"velocity":0.7637795275590551,"duration":0.15625},{"name":"D4","midi":62,"time":375.50000000000483,"velocity":0.7637795275590551,"duration":0.15625},{"name":"A4","midi":69,"time":375.75000000000483,"velocity":0.7637795275590551,"duration":0.15625},{"name":"F#4","midi":66,"time":376.00000000000483,"velocity":0.7637795275590551,"duration":0.15625},{"name":"D4","midi":62,"time":376.25000000000483,"velocity":0.7637795275590551,"duration":0.15625},{"name":"G3","midi":55,"time":376.50000000000483,"velocity":0.7637795275590551,"duration":0.2591145833333144},{"name":"D4","midi":62,"time":376.75000000000483,"velocity":0.7637795275590551,"duration":0.15625},{"name":"B3","midi":59,"time":377.00000000000483,"velocity":0.7637795275590551,"duration":0.15625},{"name":"F4","midi":65,"time":377.25000000000483,"velocity":0.7637795275590551,"duration":0.234375},{"name":"D4","midi":62,"time":377.50000000000483,"velocity":0.7637795275590551,"duration":0.15625},{"name":"B3","midi":59,"time":377.75000000000483,"velocity":0.7637795275590551,"duration":0.15625},{"name":"G3","midi":55,"time":378.00000000000483,"velocity":0.7637795275590551,"duration":0.2591145833333144},{"name":"E4","midi":64,"time":378.25000000000483,"velocity":0.7637795275590551,"duration":0.15625},{"name":"C4","midi":60,"time":378.50000000000483,"velocity":0.7637795275590551,"duration":0.15625},{"name":"G4","midi":67,"time":378.75000000000483,"velocity":0.7637795275590551,"duration":0.234375},{"name":"E4","midi":64,"time":379.00000000000483,"velocity":0.7637795275590551,"duration":0.15625},{"name":"C4","midi":60,"time":379.25000000000483,"velocity":0.7637795275590551,"duration":0.15625},{"name":"G3","midi":55,"time":379.50000000000483,"velocity":0.7637795275590551,"duration":0.2591145833333144},{"name":"D4","midi":62,"time":379.75000000000483,"velocity":0.7637795275590551,"duration":0.15625},{"name":"B3","midi":59,"time":380.00000000000483,"velocity":0.7637795275590551,"duration":0.15625},{"name":"F4","midi":65,"time":380.25000000000483,"velocity":0.7637795275590551,"duration":0.234375},{"name":"D4","midi":62,"time":380.50000000000483,"velocity":0.7637795275590551,"duration":0.15625},{"name":"B3","midi":59,"time":380.75000000000483,"velocity":0.7637795275590551,"duration":0.15625},{"name":"G3","midi":55,"time":381.00000000000483,"velocity":0.7637795275590551,"duration":0.2591145833333144},{"name":"E4","midi":64,"time":381.25000000000483,"velocity":0.7637795275590551,"duration":0.15625},{"name":"C4","midi":60,"time":381.50000000000483,"velocity":0.7637795275590551,"duration":0.15625},{"name":"G4","midi":67,"time":381.75000000000483,"velocity":0.7637795275590551,"duration":0.15625},{"name":"E4","midi":64,"time":382.00000000000483,"velocity":0.7637795275590551,"duration":0.15625},{"name":"C4","midi":60,"time":382.25000000000483,"velocity":0.7637795275590551,"duration":0.15625},{"name":"C3","midi":48,"time":382.50000000000483,"velocity":0.7637795275590551,"duration":0.2591145833333144},{"name":"F#4","midi":66,"time":382.50000000000483,"velocity":0.7637795275590551,"duration":0.2591145833333144},{"name":"E4","midi":64,"time":382.75000000000483,"velocity":0.7637795275590551,"duration":0.15625},{"name":"F#3","midi":54,"time":383.00000000000483,"velocity":0.7637795275590551,"duration":0.15625},{"name":"D4","midi":62,"time":383.00000000000483,"velocity":0.7637795275590551,"duration":0.15625},{"name":"A4","midi":69,"time":383.25000000000483,"velocity":0.7637795275590551,"duration":0.15625},{"name":"A3","midi":57,"time":383.50000000000483,"velocity":0.7637795275590551,"duration":0.15625},{"name":"F#4","midi":66,"time":383.50000000000483,"velocity":0.7637795275590551,"duration":0.15625},{"name":"E4","midi":64,"time":383.75000000000483,"velocity":0.7637795275590551,"duration":0.15625},{"name":"D4","midi":62,"time":384.00000000000483,"velocity":0.7637795275590551,"duration":0.2591145833333144},{"name":"F#3","midi":54,"time":384.00000000000483,"velocity":0.7637795275590551,"duration":0.2591145833333144},{"name":"A3","midi":57,"time":384.25000000000483,"velocity":0.7637795275590551,"duration":0.15625},{"name":"D3","midi":50,"time":384.50000000000483,"velocity":0.7637795275590551,"duration":0.15625},{"name":"D4","midi":62,"time":384.50000000000483,"velocity":0.7637795275590551,"duration":0.15625},{"name":"F#4","midi":66,"time":384.75000000000483,"velocity":0.7637795275590551,"duration":0.15625},{"name":"C3","midi":48,"time":385.00000000000483,"velocity":0.7637795275590551,"duration":0.15625},{"name":"D4","midi":62,"time":385.00000000000483,"velocity":0.7637795275590551,"duration":0.15625},{"name":"F#4","midi":66,"time":385.25000000000483,"velocity":0.7637795275590551,"duration":0.15625},{"name":"B2","midi":47,"time":385.50000000000483,"velocity":0.7637795275590551,"duration":0.2591145833333144},{"name":"G4","midi":67,"time":385.50000000000483,"velocity":0.7637795275590551,"duration":0.2591145833333144},{"name":"D4","midi":62,"time":385.75000000000483,"velocity":0.7637795275590551,"duration":0.15625},{"name":"D3","midi":50,"time":386.00000000000483,"velocity":0.7637795275590551,"duration":0.15625},{"name":"G4","midi":67,"time":386.00000000000483,"velocity":0.7637795275590551,"duration":0.15625},{"name":"B4","midi":71,"time":386.25000000000483,"velocity":0.7637795275590551,"duration":0.15625},{"name":"G4","midi":67,"time":386.50000000000483,"velocity":0.7637795275590551,"duration":0.15625},{"name":"G3","midi":55,"time":386.50000000000483,"velocity":0.7637795275590551,"duration":0.15625},{"name":"B4","midi":71,"time":386.75000000000483,"velocity":0.7637795275590551,"duration":0.15625},{"name":"D5","midi":74,"time":387.00000000000483,"velocity":0.7637795275590551,"duration":0.2591145833333144},{"name":"B3","midi":59,"time":387.00000000000483,"velocity":0.7637795275590551,"duration":0.24739583333331439},{"name":"B4","midi":71,"time":387.25000000000483,"velocity":0.7637795275590551,"duration":0.15625},{"name":"D4","midi":62,"time":387.50000000000483,"velocity":0.7637795275590551,"duration":0.10416666666668561},{"name":"G4","midi":67,"time":387.50000000000483,"velocity":0.7637795275590551,"duration":0.15625},{"name":"F5","midi":77,"time":387.75000000000483,"velocity":0.7637795275590551,"duration":0.15625},{"name":"G4","midi":67,"time":388.00000000000483,"velocity":0.7637795275590551,"duration":0.06510416666668561},{"name":"D5","midi":74,"time":388.00000000000483,"velocity":0.7637795275590551,"duration":0.15625},{"name":"B4","midi":71,"time":388.25000000000483,"velocity":0.7637795275590551,"duration":0.15625},{"name":"E5","midi":76,"time":388.50000000000483,"velocity":0.7637795275590551,"duration":0.2591145833333144},{"name":"G4","midi":67,"time":388.75000000000483,"velocity":0.7637795275590551,"duration":0.15625},{"name":"B4","midi":71,"time":389.00000000000483,"velocity":0.7637795275590551,"duration":0.15625},{"name":"A4","midi":69,"time":389.25000000000483,"velocity":0.7637795275590551,"duration":0.234375},{"name":"C4","midi":60,"time":389.50000000000483,"velocity":0.7637795275590551,"duration":0.15625},{"name":"E4","midi":64,"time":389.75000000000483,"velocity":0.7637795275590551,"duration":0.15625},{"name":"D5","midi":74,"time":390.00000000000483,"velocity":0.7637795275590551,"duration":0.2591145833333144},{"name":"F#4","midi":66,"time":390.25000000000483,"velocity":0.7637795275590551,"duration":0.15625},{"name":"A4","midi":69,"time":390.50000000000483,"velocity":0.7637795275590551,"duration":0.15625},{"name":"G4","midi":67,"time":390.75000000000483,"velocity":0.7637795275590551,"duration":0.234375},{"name":"B3","midi":59,"time":391.00000000000483,"velocity":0.7637795275590551,"duration":0.15625},{"name":"D4","midi":62,"time":391.25000000000483,"velocity":0.7637795275590551,"duration":0.15625},{"name":"C5","midi":72,"time":391.50000000000483,"velocity":0.7637795275590551,"duration":0.2591145833333144},{"name":"E4","midi":64,"time":391.75000000000483,"velocity":0.7637795275590551,"duration":0.15625},{"name":"G4","midi":67,"time":392.00000000000483,"velocity":0.7637795275590551,"duration":0.15625},{"name":"F#4","midi":66,"time":392.25000000000483,"velocity":0.7637795275590551,"duration":0.234375},{"name":"A3","midi":57,"time":392.50000000000483,"velocity":0.7637795275590551,"duration":0.15625},{"name":"C4","midi":60,"time":392.75000000000483,"velocity":0.7637795275590551,"duration":0.15625},{"name":"B4","midi":71,"time":393.00000000000483,"velocity":0.7637795275590551,"duration":0.2591145833333144},{"name":"D4","midi":62,"time":393.25000000000483,"velocity":0.7637795275590551,"duration":0.15625},{"name":"F#4","midi":66,"time":393.50000000000483,"velocity":0.7637795275590551,"duration":0.15625},{"name":"E4","midi":64,"time":393.75000000000483,"velocity":0.7637795275590551,"duration":0.234375},{"name":"G3","midi":55,"time":394.00000000000483,"velocity":0.7637795275590551,"duration":0.15625},{"name":"B3","midi":59,"time":394.25000000000483,"velocity":0.7637795275590551,"duration":0.15625},{"name":"A4","midi":69,"time":394.50000000000483,"velocity":0.7637795275590551,"duration":0.2591145833333144},{"name":"C4","midi":60,"time":394.75000000000483,"velocity":0.7637795275590551,"duration":0.15625},{"name":"E4","midi":64,"time":395.00000000000483,"velocity":0.7637795275590551,"duration":0.15625},{"name":"D4","midi":62,"time":395.25000000000483,"velocity":0.7637795275590551,"duration":0.234375},{"name":"F#3","midi":54,"time":395.50000000000483,"velocity":0.7637795275590551,"duration":0.15625},{"name":"A3","midi":57,"time":395.75000000000483,"velocity":0.7637795275590551,"duration":0.15625},{"name":"G4","midi":67,"time":396.00000000000483,"velocity":0.7637795275590551,"duration":0.2591145833333144},{"name":"B3","midi":59,"time":396.25000000000483,"velocity":0.7637795275590551,"duration":0.15625},{"name":"D4","midi":62,"time":396.50000000000483,"velocity":0.7637795275590551,"duration":0.15625},{"name":"C4","midi":60,"time":396.75000000000483,"velocity":0.7637795275590551,"duration":0.234375},{"name":"E3","midi":52,"time":397.00000000000483,"velocity":0.7637795275590551,"duration":0.15625},{"name":"G3","midi":55,"time":397.25000000000483,"velocity":0.7637795275590551,"duration":0.15625},{"name":"C3","midi":48,"time":397.50000000000483,"velocity":0.7637795275590551,"duration":0.4583333333333144},{"name":"A4","midi":69,"time":398.00000000000483,"velocity":0.7637795275590551,"duration":0.3645833333333144},{"name":"G5","midi":79,"time":398.00000000000483,"velocity":0.7637795275590551,"duration":0.3645833333333144},{"name":"D3","midi":50,"time":398.50000000000483,"velocity":0.7637795275590551,"duration":0.4583333333333144},{"name":"F#5","midi":78,"time":398.50000000000483,"velocity":0.7637795275590551,"duration":0.3645833333333144},{"name":"C5","midi":72,"time":398.50000000000483,"velocity":0.7637795275590551,"duration":0.3645833333333144},{"name":"C5","midi":72,"time":399.00000000000483,"velocity":0.7637795275590551,"duration":0.9635416666666856},{"name":"F#5","midi":78,"time":399.00000000000483,"velocity":0.7637795275590551,"duration":0.9635416666666856},{"name":"G2","midi":43,"time":399.00000000000483,"velocity":0.7637795275590551,"duration":1.3671875},{"name":"B4","midi":71,"time":399.9713541666715,"velocity":0.7637795275590551,"duration":0.6510416666666288},{"name":"G5","midi":79,"time":399.9713541666715,"velocity":0.7637795275590551,"duration":0.6640624999999432},{"name":"G2","midi":43,"time":404.0000000000048,"velocity":0.7637795275590551,"duration":0.23958333333331439},{"name":"D4","midi":62,"time":404.0000000000048,"velocity":0.7637795275590551,"duration":0.24869791666662877},{"name":"G3","midi":55,"time":404.2500000000047,"velocity":0.7637795275590551,"duration":0.7486979166666288},{"name":"G4","midi":67,"time":404.2500000000047,"velocity":0.7637795275590551,"duration":0.061197916666685614},{"name":"F#4","midi":66,"time":404.3125000000047,"velocity":0.7637795275590551,"duration":0.061197916666685614},{"name":"G4","midi":67,"time":404.3750000000047,"velocity":0.7637795275590551,"duration":0.3736979166666856},{"name":"B3","midi":59,"time":404.5000000000047,"velocity":0.7637795275590551,"duration":0.49869791666662877},{"name":"E4","midi":64,"time":404.7500000000047,"velocity":0.7637795275590551,"duration":0.48958333333325754},{"name":"G4","midi":67,"time":404.7500000000047,"velocity":0.7637795275590551,"duration":0.08203125},{"name":"A4","midi":69,"time":404.83333333333803,"velocity":0.7637795275590551,"duration":0.08203125},{"name":"B4","midi":71,"time":404.91666666667135,"velocity":0.7637795275590551,"duration":0.08072916666668561},{"name":"F#3","midi":54,"time":405.00000000000466,"velocity":0.7637795275590551,"duration":0.49869791666662877},{"name":"B4","midi":71,"time":405.00000000000466,"velocity":0.7637795275590551,"duration":0.24869791666662877},{"name":"D4","midi":62,"time":405.2500000000046,"velocity":0.7637795275590551,"duration":0.7486979166666856},{"name":"A4","midi":69,"time":405.2500000000046,"velocity":0.7637795275590551,"duration":0.2421875},{"name":"G3","midi":55,"time":405.5000000000046,"velocity":0.7637795275590551,"duration":0.24869791666668561},{"name":"G4","midi":67,"time":405.5000000000046,"velocity":0.7637795275590551,"duration":0.2421875},{"name":"A3","midi":57,"time":405.7500000000046,"velocity":0.7637795275590551,"duration":0.4986979166666856},{"name":"F#4","midi":66,"time":405.7500000000046,"velocity":0.7637795275590551,"duration":0.24869791666668561},{"name":"G4","midi":67,"time":406.0000000000046,"velocity":0.7637795275590551,"duration":0.2421875},{"name":"E4","midi":64,"time":406.0000000000046,"velocity":0.7637795275590551,"duration":0.24869791666668561},{"name":"A2","midi":45,"time":406.2500000000046,"velocity":0.7637795275590551,"duration":0.24869791666668561},{"name":"C#4","midi":61,"time":406.2500000000046,"velocity":0.7637795275590551,"duration":0.24869791666668561},{"name":"E4","midi":64,"time":406.2500000000046,"velocity":0.7637795275590551,"duration":0.2421875},{"name":"B2","midi":47,"time":406.5000000000046,"velocity":0.7637795275590551,"duration":0.12369791666668561},{"name":"D4","midi":62,"time":406.5000000000046,"velocity":0.7637795275590551,"duration":1.7447916666666856},{"name":"C4","midi":60,"time":406.6250000000046,"velocity":0.7637795275590551,"duration":0.12369791666668561},{"name":"B3","midi":59,"time":406.7500000000046,"velocity":0.7637795275590551,"duration":0.12369791666668561},{"name":"A4","midi":69,"time":406.7500000000046,"velocity":0.7637795275590551,"duration":0.2421875},{"name":"A3","midi":57,"time":406.8750000000046,"velocity":0.7637795275590551,"duration":0.12369791666668561},{"name":"B3","midi":59,"time":407.0000000000046,"velocity":0.7637795275590551,"duration":0.12369791666668561},{"name":"G4","midi":67,"time":407.0000000000046,"velocity":0.7637795275590551,"duration":0.2421875},{"name":"G3","midi":55,"time":407.1250000000046,"velocity":0.7637795275590551,"duration":0.12369791666668561},{"name":"A2","midi":45,"time":407.2500000000046,"velocity":0.7637795275590551,"duration":0.12369791666668561},{"name":"F#4","midi":66,"time":407.2500000000046,"velocity":0.7637795275590551,"duration":0.24869791666668561},{"name":"A3","midi":57,"time":407.3750000000046,"velocity":0.7637795275590551,"duration":0.12369791666668561},{"name":"G3","midi":55,"time":407.5000000000046,"velocity":0.7637795275590551,"duration":0.12369791666668561},{"name":"C5","midi":72,"time":407.5000000000046,"velocity":0.7637795275590551,"duration":0.2421875},{"name":"F#3","midi":54,"time":407.6250000000046,"velocity":0.7637795275590551,"duration":0.12369791666668561},{"name":"G3","midi":55,"time":407.7500000000046,"velocity":0.7637795275590551,"duration":0.12369791666668561},{"name":"B4","midi":71,"time":407.7500000000046,"velocity":0.7637795275590551,"duration":0.2421875},{"name":"E3","midi":52,"time":407.8750000000046,"velocity":0.7637795275590551,"duration":0.12369791666668561},{"name":"F#3","midi":54,"time":408.0000000000046,"velocity":0.7637795275590551,"duration":0.4986979166666856},{"name":"A4","midi":69,"time":408.0000000000046,"velocity":0.7637795275590551,"duration":0.24869791666668561},{"name":"E5","midi":76,"time":408.2500000000046,"velocity":0.7637795275590551,"duration":0.2421875},{"name":"C5","midi":72,"time":408.2500000000046,"velocity":0.7637795275590551,"duration":0.24869791666668561},{"name":"G3","midi":55,"time":408.5000000000046,"velocity":0.7637795275590551,"duration":0.24869791666668561},{"name":"B4","midi":71,"time":408.5000000000046,"velocity":0.7637795275590551,"duration":0.24869791666668561},{"name":"D5","midi":74,"time":408.5000000000046,"velocity":0.7637795275590551,"duration":0.2421875},{"name":"C3","midi":48,"time":408.7500000000046,"velocity":0.7637795275590551,"duration":0.24869791666662877},{"name":"A4","midi":69,"time":408.7500000000046,"velocity":0.7637795275590551,"duration":0.24739583333331439},{"name":"D5","midi":74,"time":408.7500000000046,"velocity":0.7637795275590551,"duration":0.061197916666685614},{"name":"C5","midi":72,"time":408.8125000000046,"velocity":0.7637795275590551,"duration":0.061197916666685614},{"name":"D5","midi":74,"time":408.8750000000046,"velocity":0.7637795275590551,"duration":0.061197916666685614},{"name":"C5","midi":72,"time":408.9375000000046,"velocity":0.7637795275590551,"duration":0.06119791666662877},{"name":"D3","midi":50,"time":409.00000000000455,"velocity":0.7637795275590551,"duration":0.24869791666662877},{"name":"B4","midi":71,"time":409.00000000000455,"velocity":0.7637795275590551,"duration":0.12369791666668561},{"name":"G4","midi":67,"time":409.00000000000455,"velocity":0.7637795275590551,"duration":0.24739583333331439},{"name":"A4","midi":69,"time":409.12500000000455,"velocity":0.7637795275590551,"duration":0.12369791666662877},{"name":"D2","midi":38,"time":409.2500000000045,"velocity":0.7637795275590551,"duration":0.24869791666668561},{"name":"F#4","midi":66,"time":409.2500000000045,"velocity":0.7637795275590551,"duration":0.24869791666668561},{"name":"D5","midi":74,"time":409.2500000000045,"velocity":0.7637795275590551,"duration":0.2421875},{"name":"G2","midi":43,"time":409.5000000000045,"velocity":0.7637795275590551,"duration":0.24869791666668561},{"name":"C5","midi":72,"time":409.5000000000045,"velocity":0.7637795275590551,"duration":0.12369791666668561},{"name":"G4","midi":67,"time":409.5000000000045,"velocity":0.7637795275590551,"duration":0.3645833333333144},{"name":"B4","midi":71,"time":409.6250000000045,"velocity":0.7637795275590551,"duration":0.12369791666668561},{"name":"G3","midi":55,"time":409.7500000000045,"velocity":0.7637795275590551,"duration":0.24869791666662877},{"name":"A4","midi":69,"time":409.7500000000045,"velocity":0.7637795275590551,"duration":0.12369791666662877},{"name":"G4","midi":67,"time":409.87500000000443,"velocity":0.7637795275590551,"duration":0.09765625},{"name":"D4","midi":62,"time":410.0104166666711,"velocity":0.7637795275590551,"duration":0.234375},{"name":"F#3","midi":54,"time":410.0104166666711,"velocity":0.7637795275590551,"duration":0.234375},{"name":"E3","midi":52,"time":410.25000000000443,"velocity":0.7637795275590551,"duration":0.7486979166666288},{"name":"G4","midi":67,"time":410.25000000000443,"velocity":0.7637795275590551,"duration":0.061197916666685614},{"name":"F#4","midi":66,"time":410.31250000000443,"velocity":0.7637795275590551,"duration":0.061197916666685614},{"name":"G4","midi":67,"time":410.37500000000443,"velocity":0.7637795275590551,"duration":0.3736979166666856},{"name":"B3","midi":59,"time":410.50000000000443,"velocity":0.7637795275590551,"duration":0.2864583333333144},{"name":"G4","midi":67,"time":410.75000000000443,"velocity":0.7637795275590551,"duration":0.08203125},{"name":"C#4","midi":61,"time":410.75000000000443,"velocity":0.7637795275590551,"duration":0.48958333333325754},{"name":"A4","midi":69,"time":410.83333333333775,"velocity":0.7637795275590551,"duration":0.08203125},{"name":"B4","midi":71,"time":410.91666666667106,"velocity":0.7637795275590551,"duration":0.08072916666668561},{"name":"F#3","midi":54,"time":411.0000000000044,"velocity":0.7637795275590551,"duration":0.49869791666662877},{"name":"B4","midi":71,"time":411.0000000000044,"velocity":0.7637795275590551,"duration":0.24869791666662877},{"name":"D4","midi":62,"time":411.2500000000043,"velocity":0.7637795275590551,"duration":0.7486979166666856},{"name":"A4","midi":69,"time":411.2500000000043,"velocity":0.7637795275590551,"duration":0.2421875},{"name":"B3","midi":59,"time":411.5000000000043,"velocity":0.7637795275590551,"duration":0.24869791666668561},{"name":"G4","midi":67,"time":411.5000000000043,"velocity":0.7637795275590551,"duration":0.2421875},{"name":"G3","midi":55,"time":411.7500000000043,"velocity":0.7637795275590551,"duration":0.4986979166666856},{"name":"F#4","midi":66,"time":411.7500000000043,"velocity":0.7637795275590551,"duration":0.24869791666668561},{"name":"E4","midi":64,"time":412.0000000000043,"velocity":0.7637795275590551,"duration":0.24869791666668561},{"name":"G4","midi":67,"time":412.0000000000043,"velocity":0.7637795275590551,"duration":0.2421875},{"name":"C#4","midi":61,"time":412.2500000000043,"velocity":0.7637795275590551,"duration":0.24869791666668561},{"name":"A3","midi":57,"time":412.2500000000043,"velocity":0.7637795275590551,"duration":0.24869791666668561},{"name":"E4","midi":64,"time":412.2500000000043,"velocity":0.7637795275590551,"duration":0.2421875},{"name":"B3","midi":59,"time":412.5000000000043,"velocity":0.7637795275590551,"duration":0.7486979166666856},{"name":"D4","midi":62,"time":412.5000000000043,"velocity":0.7637795275590551,"duration":0.12369791666668561},{"name":"F#4","midi":66,"time":412.6250000000043,"velocity":0.7637795275590551,"duration":0.12369791666668561},{"name":"B2","midi":47,"time":412.7500000000043,"velocity":0.7637795275590551,"duration":0.24869791666668561},{"name":"E4","midi":64,"time":412.7500000000043,"velocity":0.7637795275590551,"duration":0.12369791666668561},{"name":"D4","midi":62,"time":412.8750000000043,"velocity":0.7637795275590551,"duration":0.12369791666668561},{"name":"C#3","midi":49,"time":413.0000000000043,"velocity":0.7637795275590551,"duration":0.4947916666666856},{"name":"E4","midi":64,"time":413.0000000000043,"velocity":0.7637795275590551,"duration":0.12369791666668561},{"name":"F#4","midi":66,"time":413.1250000000043,"velocity":0.7637795275590551,"duration":0.12369791666668561},{"name":"A3","midi":57,"time":413.2500000000043,"velocity":0.7637795275590551,"duration":0.7486979166666856},{"name":"G4","midi":67,"time":413.2500000000043,"velocity":0.7637795275590551,"duration":0.12369791666668561},{"name":"E5","midi":76,"time":413.3750000000043,"velocity":0.7637795275590551,"duration":0.12369791666668561},{"name":"C#3","midi":49,"time":413.5000000000043,"velocity":0.7637795275590551,"duration":0.24869791666668561},{"name":"D5","midi":74,"time":413.5000000000043,"velocity":0.7637795275590551,"duration":0.12369791666668561},{"name":"C#5","midi":73,"time":413.6250000000043,"velocity":0.7637795275590551,"duration":0.12369791666668561},{"name":"D3","midi":50,"time":413.7500000000043,"velocity":0.7637795275590551,"duration":0.4947916666666856},{"name":"B4","midi":71,"time":413.7500000000043,"velocity":0.7637795275590551,"duration":0.12369791666668561},{"name":"A4","midi":69,"time":413.8750000000043,"velocity":0.7637795275590551,"duration":0.12369791666668561},{"name":"B3","midi":59,"time":414.0000000000043,"velocity":0.7637795275590551,"duration":0.4921875},{"name":"G#4","midi":68,"time":414.0000000000043,"velocity":0.7637795275590551,"duration":0.12369791666668561},{"name":"A4","midi":69,"time":414.1250000000043,"velocity":0.7637795275590551,"duration":0.12890625},{"name":"D3","midi":50,"time":414.2500000000043,"velocity":0.7637795275590551,"duration":0.2421875},{"name":"A5","midi":81,"time":414.2500000000043,"velocity":0.7637795275590551,"duration":0.24869791666668561},{"name":"C#4","midi":61,"time":414.5000000000043,"velocity":0.7637795275590551,"duration":0.2421875},{"name":"E3","midi":52,"time":414.5000000000043,"velocity":0.7637795275590551,"duration":0.2421875},{"name":"G5","midi":79,"time":414.5000000000043,"velocity":0.7637795275590551,"duration":0.18229166666668561},{"name":"F#3","midi":54,"time":414.7500000000043,"velocity":0.7637795275590551,"duration":0.24869791666668561},{"name":"D4","midi":62,"time":414.7500000000043,"velocity":0.7637795275590551,"duration":0.24869791666668561},{"name":"F#5","midi":78,"time":414.7500000000043,"velocity":0.7637795275590551,"duration":0.24869791666668561},{"name":"G3","midi":55,"time":415.0000000000043,"velocity":0.7637795275590551,"duration":0.24869791666668561},{"name":"D5","midi":74,"time":415.0000000000043,"velocity":0.7637795275590551,"duration":0.24088541666668561},{"name":"F#4","midi":66,"time":415.0000000000043,"velocity":0.7637795275590551,"duration":0.24869791666668561},{"name":"A3","midi":57,"time":415.2500000000043,"velocity":0.7637795275590551,"duration":0.24869791666668561},{"name":"C#5","midi":73,"time":415.2500000000043,"velocity":0.7637795275590551,"duration":0.24088541666668561},{"name":"E4","midi":64,"time":415.2500000000043,"velocity":0.7637795275590551,"duration":0.24869791666668561},{"name":"D3","midi":50,"time":415.5000000000043,"velocity":0.7637795275590551,"duration":0.484375},{"name":"D5","midi":74,"time":415.5000000000043,"velocity":0.7637795275590551,"duration":0.4427083333333144},{"name":"F#4","midi":66,"time":415.5000000000043,"velocity":0.7637795275590551,"duration":0.4427083333333144},{"name":"D3","midi":50,"time":416.0000000000043,"velocity":0.7637795275590551,"duration":0.24869791666668561},{"name":"A5","midi":81,"time":416.0000000000043,"velocity":0.7637795275590551,"duration":0.24869791666668561},{"name":"C4","midi":60,"time":416.2500000000043,"velocity":0.7637795275590551,"duration":0.7486979166665719},{"name":"D5","midi":74,"time":416.2500000000043,"velocity":0.7637795275590551,"duration":0.061197916666685614},{"name":"C5","midi":72,"time":416.3125000000043,"velocity":0.7637795275590551,"duration":0.061197916666685614},{"name":"D5","midi":74,"time":416.3750000000043,"velocity":0.7637795275590551,"duration":0.3645833333333144},{"name":"F#4","midi":66,"time":416.5000000000043,"velocity":0.7637795275590551,"duration":0.24869791666662877},{"name":"A4","midi":69,"time":416.75000000000426,"velocity":0.7637795275590551,"duration":0.24739583333331439},{"name":"D5","midi":74,"time":416.75000000000426,"velocity":0.7637795275590551,"duration":0.08203125},{"name":"E5","midi":76,"time":416.8333333333376,"velocity":0.7637795275590551,"duration":0.08203125},{"name":"F#5","midi":78,"time":416.9166666666709,"velocity":0.7637795275590551,"duration":0.08072916666668561},{"name":"B3","midi":59,"time":417.0000000000042,"velocity":0.7637795275590551,"duration":0.4986979166666856},{"name":"D4","midi":62,"time":417.0000000000042,"velocity":0.7637795275590551,"duration":0.24869791666668561},{"name":"G5","midi":79,"time":417.0000000000042,"velocity":0.7637795275590551,"duration":0.4947916666666856},{"name":"G4","midi":67,"time":417.2500000000042,"velocity":0.7637795275590551,"duration":0.24869791666668561},{"name":"A3","midi":57,"time":417.5000000000042,"velocity":0.7637795275590551,"duration":0.24869791666668561},{"name":"A5","midi":81,"time":417.5000000000042,"velocity":0.7637795275590551,"duration":0.2421875},{"name":"F#4","midi":66,"time":417.5000000000042,"velocity":0.7637795275590551,"duration":0.4947916666666856},{"name":"G3","midi":55,"time":417.7500000000042,"velocity":0.7637795275590551,"duration":0.24869791666668561},{"name":"B5","midi":83,"time":417.7500000000042,"velocity":0.7637795275590551,"duration":0.24869791666668561},{"name":"A3","midi":57,"time":418.0000000000042,"velocity":0.7637795275590551,"duration":0.24869791666662877},{"name":"E4","midi":64,"time":418.0000000000042,"velocity":0.7637795275590551,"duration":0.24739583333331439},{"name":"A5","midi":81,"time":418.0000000000042,"velocity":0.7637795275590551,"duration":0.12369791666668561},{"name":"G5","midi":79,"time":418.1250000000042,"velocity":0.7637795275590551,"duration":0.12369791666662877},{"name":"B3","midi":59,"time":418.25000000000415,"velocity":0.7637795275590551,"duration":0.24869791666662877},{"name":"F#5","midi":78,"time":418.25000000000415,"velocity":0.7637795275590551,"duration":0.12369791666668561},{"name":"D#4","midi":63,"time":418.25000000000415,"velocity":0.7637795275590551,"duration":0.24739583333331439},{"name":"G5","midi":79,"time":418.37500000000415,"velocity":0.7637795275590551,"duration":0.12369791666662877},{"name":"E3","midi":52,"time":418.5000000000041,"velocity":0.7637795275590551,"duration":0.24869791666662877},{"name":"A5","midi":81,"time":418.5000000000041,"velocity":0.7637795275590551,"duration":0.12369791666668561},{"name":"E4","midi":64,"time":418.5000000000041,"velocity":0.7637795275590551,"duration":0.24739583333331439},{"name":"G5","midi":79,"time":418.6250000000041,"velocity":0.7637795275590551,"duration":0.12369791666662877},{"name":"B3","midi":59,"time":418.75000000000404,"velocity":0.7637795275590551,"duration":0.24869791666668561},{"name":"F#5","midi":78,"time":418.75000000000404,"velocity":0.7637795275590551,"duration":0.12369791666668561},{"name":"E5","midi":76,"time":418.87500000000404,"velocity":0.7637795275590551,"duration":0.10416666666668561},{"name":"E4","midi":64,"time":419.0052083333374,"velocity":0.7637795275590551,"duration":0.12369791666662877},{"name":"G5","midi":79,"time":419.0052083333374,"velocity":0.7637795275590551,"duration":0.24869791666662877},{"name":"C4","midi":60,"time":419.1276041666707,"velocity":0.7637795275590551,"duration":0.12369791666662877},{"name":"E4","midi":64,"time":419.25000000000404,"velocity":0.7637795275590551,"duration":0.12369791666668561},{"name":"C5","midi":72,"time":419.25000000000404,"velocity":0.7637795275590551,"duration":0.24869791666668561},{"name":"D4","midi":62,"time":419.37500000000404,"velocity":0.7637795275590551,"duration":0.12369791666668561},{"name":"C4","midi":60,"time":419.50000000000404,"velocity":0.7637795275590551,"duration":0.12369791666668561},{"name":"B4","midi":71,"time":419.50000000000404,"velocity":0.7637795275590551,"duration":0.24869791666668561},{"name":"B3","midi":59,"time":419.62500000000404,"velocity":0.7637795275590551,"duration":0.12369791666668561},{"name":"E4","midi":64,"time":419.75000000000404,"velocity":0.7637795275590551,"duration":0.12369791666662877},{"name":"C5","midi":72,"time":419.75000000000404,"velocity":0.7637795275590551,"duration":0.08203125},{"name":"D5","midi":74,"time":419.83333333333735,"velocity":0.7637795275590551,"duration":0.08203124999994316},{"name":"C4","midi":60,"time":419.875000000004,"velocity":0.7637795275590551,"duration":0.12369791666662877},{"name":"E5","midi":76,"time":419.9166666666706,"velocity":0.7637795275590551,"duration":0.08072916666668561},{"name":"E4","midi":64,"time":420.0000000000039,"velocity":0.7637795275590551,"duration":0.12369791666668561},{"name":"G4","midi":67,"time":420.0000000000039,"velocity":0.7637795275590551,"duration":0.46875},{"name":"D4","midi":62,"time":420.1250000000039,"velocity":0.7637795275590551,"duration":0.12369791666668561},{"name":"C4","midi":60,"time":420.2500000000039,"velocity":0.7637795275590551,"duration":0.12369791666668561},{"name":"B3","midi":59,"time":420.3750000000039,"velocity":0.7637795275590551,"duration":0.12369791666668561},{"name":"E4","midi":64,"time":420.5000000000039,"velocity":0.7637795275590551,"duration":0.12369791666668561},{"name":"G5","midi":79,"time":420.5000000000039,"velocity":0.7637795275590551,"duration":0.24869791666668561},{"name":"C4","midi":60,"time":420.6250000000039,"velocity":0.7637795275590551,"duration":0.12369791666668561},{"name":"E4","midi":64,"time":420.7500000000039,"velocity":0.7637795275590551,"duration":0.12369791666668561},{"name":"C5","midi":72,"time":420.7500000000039,"velocity":0.7637795275590551,"duration":0.24869791666668561},{"name":"D4","midi":62,"time":420.8750000000039,"velocity":0.7637795275590551,"duration":0.12369791666668561},{"name":"C4","midi":60,"time":421.0000000000039,"velocity":0.7637795275590551,"duration":0.12369791666668561},{"name":"B4","midi":71,"time":421.0000000000039,"velocity":0.7637795275590551,"duration":0.24869791666668561},{"name":"B3","midi":59,"time":421.1250000000039,"velocity":0.7637795275590551,"duration":0.12369791666668561},{"name":"E4","midi":64,"time":421.2500000000039,"velocity":0.7637795275590551,"duration":0.12369791666662877},{"name":"C5","midi":72,"time":421.2500000000039,"velocity":0.7637795275590551,"duration":0.08203125},{"name":"D5","midi":74,"time":421.33333333333724,"velocity":0.7637795275590551,"duration":0.08203124999994316},{"name":"C4","midi":60,"time":421.37500000000387,"velocity":0.7637795275590551,"duration":0.12369791666662877},{"name":"E5","midi":76,"time":421.4166666666705,"velocity":0.7637795275590551,"duration":0.08072916666668561},{"name":"E4","midi":64,"time":421.5000000000038,"velocity":0.7637795275590551,"duration":0.12369791666668561},{"name":"G4","midi":67,"time":421.5000000000038,"velocity":0.7637795275590551,"duration":0.4557291666666856},{"name":"D4","midi":62,"time":421.6250000000038,"velocity":0.7637795275590551,"duration":0.12369791666668561},{"name":"C4","midi":60,"time":421.7500000000038,"velocity":0.7637795275590551,"duration":0.12369791666668561},{"name":"B3","midi":59,"time":421.8750000000038,"velocity":0.7637795275590551,"duration":0.12369791666668561},{"name":"D4","midi":62,"time":422.0000000000038,"velocity":0.7637795275590551,"duration":0.12369791666668561},{"name":"F5","midi":77,"time":422.0000000000038,"velocity":0.7637795275590551,"duration":0.4947916666666856},{"name":"B3","midi":59,"time":422.1250000000038,"velocity":0.7637795275590551,"duration":0.12369791666668561},{"name":"C4","midi":60,"time":422.2500000000038,"velocity":0.7637795275590551,"duration":0.24869791666668561},{"name":"A4","midi":69,"time":422.2500000000038,"velocity":0.7637795275590551,"duration":0.24869791666668561},{"name":"D3","midi":50,"time":422.5000000000038,"velocity":0.7637795275590551,"duration":0.24869791666668561},{"name":"F5","midi":77,"time":422.5000000000038,"velocity":0.7637795275590551,"duration":0.2421875},{"name":"B4","midi":71,"time":422.5000000000038,"velocity":0.7637795275590551,"duration":0.24869791666668561},{"name":"C3","midi":48,"time":422.7500000000038,"velocity":0.7637795275590551,"duration":0.24869791666668561},{"name":"E5","midi":76,"time":422.7500000000038,"velocity":0.7637795275590551,"duration":0.2421875},{"name":"C5","midi":72,"time":422.7500000000038,"velocity":0.7637795275590551,"duration":0.4947916666666856},{"name":"B2","midi":47,"time":423.0000000000038,"velocity":0.7637795275590551,"duration":0.24869791666668561},{"name":"C6","midi":84,"time":423.0000000000038,"velocity":0.7637795275590551,"duration":0.24869791666668561},{"name":"A3","midi":57,"time":423.2500000000038,"velocity":0.7637795275590551,"duration":0.24869791666668561},{"name":"C5","midi":72,"time":423.2500000000038,"velocity":0.7637795275590551,"duration":0.24869791666668561},{"name":"F#5","midi":78,"time":423.2500000000038,"velocity":0.7637795275590551,"duration":0.2421875},{"name":"G3","midi":55,"time":423.5000000000038,"velocity":0.7637795275590551,"duration":0.24869791666668561},{"name":"B4","midi":71,"time":423.5000000000038,"velocity":0.7637795275590551,"duration":0.24869791666668561},{"name":"G5","midi":79,"time":423.5000000000038,"velocity":0.7637795275590551,"duration":0.2421875},{"name":"F#3","midi":54,"time":423.7500000000038,"velocity":0.7637795275590551,"duration":0.24869791666668561},{"name":"A4","midi":69,"time":423.7500000000038,"velocity":0.7637795275590551,"duration":0.4947916666666856},{"name":"B4","midi":71,"time":423.8750000000038,"velocity":0.7637795275590551,"duration":0.12369791666668561},{"name":"D3","midi":50,"time":424.0000000000038,"velocity":0.7637795275590551,"duration":0.24869791666668561},{"name":"C5","midi":72,"time":424.0000000000038,"velocity":0.7637795275590551,"duration":0.2421875},{"name":"G3","midi":55,"time":424.2500000000038,"velocity":0.7637795275590551,"duration":0.24869791666668561},{"name":"B4","midi":71,"time":424.2500000000038,"velocity":0.7637795275590551,"duration":0.2421875},{"name":"G4","midi":67,"time":424.2500000000038,"velocity":0.7637795275590551,"duration":0.24869791666668561},{"name":"D3","midi":50,"time":424.5000000000038,"velocity":0.7637795275590551,"duration":0.12369791666668561},{"name":"F#4","midi":66,"time":424.5000000000038,"velocity":0.7637795275590551,"duration":0.45572916666662877},{"name":"A4","midi":69,"time":424.5000000000038,"velocity":0.7637795275590551,"duration":0.4427083333333144},{"name":"D4","midi":62,"time":424.6250000000038,"velocity":0.7637795275590551,"duration":0.12369791666668561},{"name":"C4","midi":60,"time":424.7500000000038,"velocity":0.7637795275590551,"duration":0.12369791666668561},{"name":"B3","midi":59,"time":424.8750000000038,"velocity":0.7637795275590551,"duration":0.12369791666662877},{"name":"C4","midi":60,"time":425.00000000000375,"velocity":0.7637795275590551,"duration":0.12369791666668561},{"name":"D5","midi":74,"time":425.00000000000375,"velocity":0.7637795275590551,"duration":0.24869791666668561},{"name":"A3","midi":57,"time":425.12500000000375,"velocity":0.7637795275590551,"duration":0.12369791666668561},{"name":"B3","midi":59,"time":425.25000000000375,"velocity":0.7637795275590551,"duration":0.7486979166665719},{"name":"G5","midi":79,"time":425.25000000000375,"velocity":0.7637795275590551,"duration":0.061197916666685614},{"name":"F#5","midi":78,"time":425.31250000000375,"velocity":0.7637795275590551,"duration":0.061197916666685614},{"name":"G5","midi":79,"time":425.37500000000375,"velocity":0.7637795275590551,"duration":0.3645833333333144},{"name":"D4","midi":62,"time":425.50000000000375,"velocity":0.7637795275590551,"duration":0.24869791666662877},{"name":"G4","midi":67,"time":425.7500000000037,"velocity":0.7637795275590551,"duration":0.49479166666662877},{"name":"G5","midi":79,"time":425.7500000000037,"velocity":0.7637795275590551,"duration":0.08203125},{"name":"A5","midi":81,"time":425.833333333337,"velocity":0.7637795275590551,"duration":0.08203125},{"name":"B5","midi":83,"time":425.9166666666703,"velocity":0.7637795275590551,"duration":0.08072916666668561},{"name":"C4","midi":60,"time":426.00000000000364,"velocity":0.7637795275590551,"duration":0.4986979166666856},{"name":"E5","midi":76,"time":426.00000000000364,"velocity":0.7637795275590551,"duration":0.4947916666666856},{"name":"G#4","midi":68,"time":426.25000000000364,"velocity":0.7637795275590551,"duration":0.24869791666668561},{"name":"F4","midi":65,"time":426.50000000000364,"velocity":0.7637795275590551,"duration":0.24869791666668561},{"name":"D5","midi":74,"time":426.50000000000364,"velocity":0.7637795275590551,"duration":0.2421875},{"name":"A4","midi":69,"time":426.50000000000364,"velocity":0.7637795275590551,"duration":0.7486979166666856},{"name":"D4","midi":62,"time":426.75000000000364,"velocity":0.7637795275590551,"duration":0.24869791666668561},{"name":"C5","midi":72,"time":426.75000000000364,"velocity":0.7637795275590551,"duration":0.24869791666668561},{"name":"E4","midi":64,"time":427.00000000000364,"velocity":0.7637795275590551,"duration":0.24869791666668561},{"name":"B4","midi":71,"time":427.00000000000364,"velocity":0.7637795275590551,"duration":0.12369791666668561},{"name":"C5","midi":72,"time":427.12500000000364,"velocity":0.7637795275590551,"duration":0.12369791666668561},{"name":"E3","midi":52,"time":427.25000000000364,"velocity":0.7637795275590551,"duration":0.24869791666662877},{"name":"D5","midi":74,"time":427.25000000000364,"velocity":0.7637795275590551,"duration":0.12369791666668561},{"name":"G#4","midi":68,"time":427.25000000000364,"velocity":0.7637795275590551,"duration":0.24739583333331439},{"name":"B4","midi":71,"time":427.37500000000364,"velocity":0.7637795275590551,"duration":0.12369791666662877},{"name":"A2","midi":45,"time":427.5000000000036,"velocity":0.7637795275590551,"duration":0.24869791666668561},{"name":"A4","midi":69,"time":427.5000000000036,"velocity":0.7637795275590551,"duration":0.3645833333333144},{"name":"D5","midi":74,"time":427.5000000000036,"velocity":0.7637795275590551,"duration":0.12369791666668561},{"name":"C5","midi":72,"time":427.6250000000036,"velocity":0.7637795275590551,"duration":0.12369791666668561},{"name":"A3","midi":57,"time":427.7500000000036,"velocity":0.7637795275590551,"duration":0.24869791666662877},{"name":"B4","midi":71,"time":427.7500000000036,"velocity":0.7637795275590551,"duration":0.12369791666662877},{"name":"A4","midi":69,"time":427.8750000000035,"velocity":0.7637795275590551,"duration":0.10416666666668561},{"name":"G#3","midi":56,"time":428.0000000000035,"velocity":0.7637795275590551,"duration":0.24869791666668561},{"name":"D5","midi":74,"time":428.0000000000035,"velocity":0.7637795275590551,"duration":0.12369791666668561},{"name":"B4","midi":71,"time":428.1250000000035,"velocity":0.7637795275590551,"duration":0.12369791666668561},{"name":"A3","midi":57,"time":428.2500000000035,"velocity":0.7637795275590551,"duration":0.24869791666668561},{"name":"D5","midi":74,"time":428.2500000000035,"velocity":0.7637795275590551,"duration":0.12369791666668561},{"name":"C5","midi":72,"time":428.3750000000035,"velocity":0.7637795275590551,"duration":0.12369791666668561},{"name":"C3","midi":48,"time":428.5000000000035,"velocity":0.7637795275590551,"duration":0.24088541666662877},{"name":"B4","midi":71,"time":428.5000000000035,"velocity":0.7637795275590551,"duration":0.12369791666668561},{"name":"A4","midi":69,"time":428.6250000000035,"velocity":0.7637795275590551,"duration":0.11067708333331439},{"name":"B2","midi":47,"time":428.75000000000347,"velocity":0.7637795275590551,"duration":0.24088541666668561},{"name":"D5","midi":74,"time":428.75000000000347,"velocity":0.7637795275590551,"duration":0.12369791666668561},{"name":"B4","midi":71,"time":428.87500000000347,"velocity":0.7637795275590551,"duration":0.12369791666668561},{"name":"A2","midi":45,"time":429.00000000000347,"velocity":0.7637795275590551,"duration":0.24869791666668561},{"name":"D5","midi":74,"time":429.00000000000347,"velocity":0.7637795275590551,"duration":0.12369791666668561},{"name":"C5","midi":72,"time":429.12500000000347,"velocity":0.7637795275590551,"duration":0.12369791666668561},{"name":"G3","midi":55,"time":429.25000000000347,"velocity":0.7637795275590551,"duration":0.24088541666662877},{"name":"B4","midi":71,"time":429.25000000000347,"velocity":0.7637795275590551,"duration":0.12369791666668561},{"name":"A4","midi":69,"time":429.37500000000347,"velocity":0.7637795275590551,"duration":0.11067708333331439},{"name":"F#3","midi":54,"time":429.5000000000034,"velocity":0.7637795275590551,"duration":0.24088541666668561},{"name":"C5","midi":72,"time":429.5000000000034,"velocity":0.7637795275590551,"duration":0.12369791666668561},{"name":"A4","midi":69,"time":429.6250000000034,"velocity":0.7637795275590551,"duration":0.12369791666668561},{"name":"G3","midi":55,"time":429.7500000000034,"velocity":0.7637795275590551,"duration":0.24869791666668561},{"name":"C5","midi":72,"time":429.7500000000034,"velocity":0.7637795275590551,"duration":0.12369791666668561},{"name":"B4","midi":71,"time":429.8750000000034,"velocity":0.7637795275590551,"duration":0.12369791666668561},{"name":"B2","midi":47,"time":430.0000000000034,"velocity":0.7637795275590551,"duration":0.24088541666662877},{"name":"A4","midi":69,"time":430.0000000000034,"velocity":0.7637795275590551,"duration":0.12369791666668561},{"name":"G4","midi":67,"time":430.1250000000034,"velocity":0.7637795275590551,"duration":0.11067708333331439},{"name":"A2","midi":45,"time":430.25000000000335,"velocity":0.7637795275590551,"duration":0.24088541666668561},{"name":"C5","midi":72,"time":430.25000000000335,"velocity":0.7637795275590551,"duration":0.12369791666668561},{"name":"A4","midi":69,"time":430.37500000000335,"velocity":0.7637795275590551,"duration":0.12369791666668561},{"name":"G2","midi":43,"time":430.50000000000335,"velocity":0.7637795275590551,"duration":0.24739583333331439},{"name":"C5","midi":72,"time":430.50000000000335,"velocity":0.7637795275590551,"duration":0.12369791666668561},{"name":"B4","midi":71,"time":430.62500000000335,"velocity":0.7637795275590551,"duration":0.12369791666662877},{"name":"A4","midi":69,"time":430.7500000000033,"velocity":0.7637795275590551,"duration":0.12369791666668561},{"name":"B3","midi":59,"time":430.8750000000033,"velocity":0.7637795275590551,"duration":0.12369791666668561},{"name":"G4","midi":67,"time":430.8750000000033,"velocity":0.7637795275590551,"duration":0.12369791666668561},{"name":"A3","midi":57,"time":431.0000000000033,"velocity":0.7637795275590551,"duration":0.12369791666668561},{"name":"A4","midi":69,"time":431.0000000000033,"velocity":0.7637795275590551,"duration":0.12369791666668561},{"name":"G3","midi":55,"time":431.1250000000033,"velocity":0.7637795275590551,"duration":0.12369791666668561},{"name":"B4","midi":71,"time":431.1250000000033,"velocity":0.7637795275590551,"duration":0.12369791666668561},{"name":"C4","midi":60,"time":431.2500000000033,"velocity":0.7637795275590551,"duration":0.12369791666668561},{"name":"E4","midi":64,"time":431.2500000000033,"velocity":0.7637795275590551,"duration":0.46875},{"name":"B3","midi":59,"time":431.3750000000033,"velocity":0.7637795275590551,"duration":0.12369791666668561},{"name":"A3","midi":57,"time":431.5000000000033,"velocity":0.7637795275590551,"duration":0.12369791666668561},{"name":"G3","midi":55,"time":431.6250000000033,"velocity":0.7637795275590551,"duration":0.12369791666668561},{"name":"C4","midi":60,"time":431.7500000000033,"velocity":0.7637795275590551,"duration":0.12369791666662877},{"name":"F#4","midi":66,"time":431.7500000000033,"velocity":0.7637795275590551,"duration":0.08203125},{"name":"G4","midi":67,"time":431.8333333333366,"velocity":0.7637795275590551,"duration":0.08203124999994316},{"name":"A3","midi":57,"time":431.87500000000324,"velocity":0.7637795275590551,"duration":0.12369791666662877},{"name":"A4","midi":69,"time":431.91666666666987,"velocity":0.7637795275590551,"duration":0.08072916666668561},{"name":"C4","midi":60,"time":432.0000000000032,"velocity":0.7637795275590551,"duration":0.12369791666668561},{"name":"D4","midi":62,"time":432.0000000000032,"velocity":0.7637795275590551,"duration":0.4986979166666856},{"name":"B3","midi":59,"time":432.1250000000032,"velocity":0.7637795275590551,"duration":0.12369791666668561},{"name":"A3","midi":57,"time":432.2500000000032,"velocity":0.7637795275590551,"duration":0.12369791666668561},{"name":"G3","midi":55,"time":432.3750000000032,"velocity":0.7637795275590551,"duration":0.12369791666668561},{"name":"C4","midi":60,"time":432.5000000000032,"velocity":0.7637795275590551,"duration":0.12369791666668561},{"name":"D5","midi":74,"time":432.5000000000032,"velocity":0.7637795275590551,"duration":0.24869791666668561},{"name":"A3","midi":57,"time":432.6250000000032,"velocity":0.7637795275590551,"duration":0.12369791666668561},{"name":"C4","midi":60,"time":432.7500000000032,"velocity":0.7637795275590551,"duration":0.12369791666668561},{"name":"G4","midi":67,"time":432.7500000000032,"velocity":0.7637795275590551,"duration":0.061197916666685614},{"name":"F#4","midi":66,"time":432.8125000000032,"velocity":0.7637795275590551,"duration":0.061197916666685614},{"name":"B3","midi":59,"time":432.8750000000032,"velocity":0.7637795275590551,"duration":0.12369791666668561},{"name":"G4","midi":67,"time":432.8750000000032,"velocity":0.7637795275590551,"duration":0.3645833333333144},{"name":"A3","midi":57,"time":433.0000000000032,"velocity":0.7637795275590551,"duration":0.12369791666668561},{"name":"G3","midi":55,"time":433.1250000000032,"velocity":0.7637795275590551,"duration":0.12369791666662877},{"name":"C4","midi":60,"time":433.2500000000031,"velocity":0.7637795275590551,"duration":0.12369791666662877},{"name":"F#4","midi":66,"time":433.2500000000031,"velocity":0.7637795275590551,"duration":0.08203125},{"name":"G4","midi":67,"time":433.33333333333644,"velocity":0.7637795275590551,"duration":0.08203124999994316},{"name":"A3","midi":57,"time":433.37500000000307,"velocity":0.7637795275590551,"duration":0.12369791666662877},{"name":"A4","midi":69,"time":433.4166666666697,"velocity":0.7637795275590551,"duration":0.08072916666668561},{"name":"C4","midi":60,"time":433.500000000003,"velocity":0.7637795275590551,"duration":0.12369791666668561},{"name":"D4","midi":62,"time":433.500000000003,"velocity":0.7637795275590551,"duration":0.46875},{"name":"B3","midi":59,"time":433.625000000003,"velocity":0.7637795275590551,"duration":0.12369791666668561},{"name":"A3","midi":57,"time":433.750000000003,"velocity":0.7637795275590551,"duration":0.12369791666668561},{"name":"G3","midi":55,"time":433.875000000003,"velocity":0.7637795275590551,"duration":0.12369791666668561},{"name":"A3","midi":57,"time":434.000000000003,"velocity":0.7637795275590551,"duration":0.12369791666668561},{"name":"D5","midi":74,"time":434.000000000003,"velocity":0.7637795275590551,"duration":0.24869791666668561},{"name":"F#3","midi":54,"time":434.125000000003,"velocity":0.7637795275590551,"duration":0.12369791666668561},{"name":"G3","midi":55,"time":434.250000000003,"velocity":0.7637795275590551,"duration":0.7486979166666288},{"name":"C5","midi":72,"time":434.250000000003,"velocity":0.7637795275590551,"duration":0.24869791666668561},{"name":"F4","midi":65,"time":434.500000000003,"velocity":0.7637795275590551,"duration":0.24869791666668561},{"name":"B4","midi":71,"time":434.500000000003,"velocity":0.7637795275590551,"duration":0.24869791666668561},{"name":"C5","midi":72,"time":434.750000000003,"velocity":0.7637795275590551,"duration":0.08203125},{"name":"E4","midi":64,"time":434.750000000003,"velocity":0.7637795275590551,"duration":0.49479166666662877},{"name":"D5","midi":74,"time":434.8333333333363,"velocity":0.7637795275590551,"duration":0.08203125},{"name":"E5","midi":76,"time":434.91666666666964,"velocity":0.7637795275590551,"duration":0.08072916666668561},{"name":"A3","midi":57,"time":435.00000000000296,"velocity":0.7637795275590551,"duration":0.4986979166666856},{"name":"F5","midi":77,"time":435.00000000000296,"velocity":0.7637795275590551,"duration":0.4947916666666856},{"name":"E4","midi":64,"time":435.25000000000296,"velocity":0.7637795275590551,"duration":0.24869791666668561},{"name":"B3","midi":59,"time":435.50000000000296,"velocity":0.7637795275590551,"duration":0.24869791666668561},{"name":"D4","midi":62,"time":435.50000000000296,"velocity":0.7637795275590551,"duration":0.24869791666668561},{"name":"G5","midi":79,"time":435.50000000000296,"velocity":0.7637795275590551,"duration":0.2421875},{"name":"C4","midi":60,"time":435.75000000000296,"velocity":0.7637795275590551,"duration":0.24869791666668561},{"name":"E5","midi":76,"time":435.75000000000296,"velocity":0.7637795275590551,"duration":0.24869791666668561},{"name":"F3","midi":53,"time":436.00000000000296,"velocity":0.7637795275590551,"duration":0.24869791666668561},{"name":"F5","midi":77,"time":436.00000000000296,"velocity":0.7637795275590551,"duration":0.2421875},{"name":"D5","midi":74,"time":436.00000000000296,"velocity":0.7637795275590551,"duration":0.24869791666668561},{"name":"G3","midi":55,"time":436.25000000000296,"velocity":0.7637795275590551,"duration":0.24869791666668561},{"name":"D5","midi":74,"time":436.25000000000296,"velocity":0.7637795275590551,"duration":0.2421875},{"name":"B4","midi":71,"time":436.25000000000296,"velocity":0.7637795275590551,"duration":0.4947916666666856},{"name":"C3","midi":48,"time":436.50000000000296,"velocity":0.7637795275590551,"duration":0.7486979166666856},{"name":"F5","midi":77,"time":436.50000000000296,"velocity":0.7637795275590551,"duration":0.12369791666668561},{"name":"E5","midi":76,"time":436.62500000000296,"velocity":0.7637795275590551,"duration":0.12369791666668561},{"name":"B3","midi":59,"time":436.75000000000296,"velocity":0.7637795275590551,"duration":0.24869791666668561},{"name":"D5","midi":74,"time":436.75000000000296,"velocity":0.7637795275590551,"duration":0.12369791666668561},{"name":"C5","midi":72,"time":436.87500000000296,"velocity":0.7637795275590551,"duration":0.12369791666668561},{"name":"A3","midi":57,"time":437.00000000000296,"velocity":0.7637795275590551,"duration":0.4947916666666856},{"name":"E5","midi":76,"time":437.00000000000296,"velocity":0.7637795275590551,"duration":0.12369791666668561},{"name":"C5","midi":72,"time":437.12500000000296,"velocity":0.7637795275590551,"duration":0.12369791666668561},{"name":"B2","midi":47,"time":437.25000000000296,"velocity":0.7637795275590551,"duration":0.7486979166666856},{"name":"E5","midi":76,"time":437.25000000000296,"velocity":0.7637795275590551,"duration":0.12369791666668561},{"name":"D5","midi":74,"time":437.37500000000296,"velocity":0.7637795275590551,"duration":0.12369791666668561},{"name":"A3","midi":57,"time":437.50000000000296,"velocity":0.7637795275590551,"duration":0.24869791666668561},{"name":"C5","midi":72,"time":437.50000000000296,"velocity":0.7637795275590551,"duration":0.12369791666668561},{"name":"B4","midi":71,"time":437.62500000000296,"velocity":0.7637795275590551,"duration":0.12369791666668561},{"name":"G3","midi":55,"time":437.75000000000296,"velocity":0.7637795275590551,"duration":0.4947916666666856},{"name":"D5","midi":74,"time":437.75000000000296,"velocity":0.7637795275590551,"duration":0.12369791666668561},{"name":"B4","midi":71,"time":437.87500000000296,"velocity":0.7637795275590551,"duration":0.12369791666668561},{"name":"A2","midi":45,"time":438.00000000000296,"velocity":0.7637795275590551,"duration":0.7486979166666856},{"name":"D5","midi":74,"time":438.00000000000296,"velocity":0.7637795275590551,"duration":0.12369791666668561},{"name":"C5","midi":72,"time":438.12500000000296,"velocity":0.7637795275590551,"duration":0.12369791666668561},{"name":"G3","midi":55,"time":438.25000000000296,"velocity":0.7637795275590551,"duration":0.24869791666668561},{"name":"B4","midi":71,"time":438.25000000000296,"velocity":0.7637795275590551,"duration":0.12369791666668561},{"name":"A4","midi":69,"time":438.37500000000296,"velocity":0.7637795275590551,"duration":0.12369791666668561},{"name":"F#3","midi":54,"time":438.50000000000296,"velocity":0.7637795275590551,"duration":0.24088541666668561},{"name":"C5","midi":72,"time":438.50000000000296,"velocity":0.7637795275590551,"duration":0.12369791666668561},{"name":"A4","midi":69,"time":438.62500000000296,"velocity":0.7637795275590551,"duration":0.12369791666668561},{"name":"G3","midi":55,"time":438.75000000000296,"velocity":0.7637795275590551,"duration":0.2747395833333144},{"name":"B2","midi":47,"time":438.75000000000296,"velocity":0.7637795275590551,"duration":0.2747395833333144},{"name":"D5","midi":74,"time":438.75000000000296,"velocity":0.7637795275590551,"duration":0.2747395833333144},{"name":"G4","midi":67,"time":439.02343750000296,"velocity":0.7637795275590551,"duration":0.24869791666662877},{"name":"B3","midi":59,"time":439.02343750000296,"velocity":0.7637795275590551,"duration":0.24869791666662877},{"name":"C3","midi":48,"time":439.02343750000296,"velocity":0.7637795275590551,"duration":0.24869791666662877},{"name":"D3","midi":50,"time":439.3125000000029,"velocity":0.7637795275590551,"duration":0.24869791666668561},{"name":"A3","midi":57,"time":439.3125000000029,"velocity":0.7637795275590551,"duration":0.24869791666668561},{"name":"F#4","midi":66,"time":439.3125000000029,"velocity":0.7637795275590551,"duration":0.24869791666668561},{"name":"G4","midi":67,"time":439.6250000000029,"velocity":0.7637795275590551,"duration":0.78125},{"name":"B3","midi":59,"time":439.6250000000029,"velocity":0.7637795275590551,"duration":0.78125},{"name":"G2","midi":43,"time":439.6250000000029,"velocity":0.7637795275590551,"duration":0.78125},{"name":"D5","midi":74,"time":442.2760416666696,"velocity":0.7637795275590551,"duration":0.20833333333331439},{"name":"E5","midi":76,"time":442.5000000000029,"velocity":0.7637795275590551,"duration":0.37109375},{"name":"C5","midi":72,"time":442.8750000000029,"velocity":0.7637795275590551,"duration":0.12109375},{"name":"A4","midi":69,"time":443.0000000000029,"velocity":0.7637795275590551,"duration":0.12109375},{"name":"F#4","midi":66,"time":443.1250000000029,"velocity":0.7637795275590551,"duration":0.12109375},{"name":"D5","midi":74,"time":443.2500000000029,"velocity":0.7637795275590551,"duration":0.18229166666668561},{"name":"G4","midi":67,"time":443.5000000000029,"velocity":0.7637795275590551,"duration":0.18229166666668561},{"name":"C5","midi":72,"time":444.0000000000029,"velocity":0.7637795275590551,"duration":0.37109375},{"name":"A4","midi":69,"time":444.3750000000029,"velocity":0.7637795275590551,"duration":0.12109375},{"name":"F#4","midi":66,"time":444.5000000000029,"velocity":0.7637795275590551,"duration":0.12109375},{"name":"D4","midi":62,"time":444.6250000000029,"velocity":0.7637795275590551,"duration":0.12109375},{"name":"B4","midi":71,"time":444.7500000000029,"velocity":0.7637795275590551,"duration":0.12109375},{"name":"A4","midi":69,"time":444.8750000000029,"velocity":0.7637795275590551,"duration":0.12109375},{"name":"B4","midi":71,"time":445.0000000000029,"velocity":0.7637795275590551,"duration":0.12109375},{"name":"C5","midi":72,"time":445.1250000000029,"velocity":0.7637795275590551,"duration":0.12109375},{"name":"B4","midi":71,"time":445.2500000000029,"velocity":0.7637795275590551,"duration":0.12109375},{"name":"G5","midi":79,"time":445.2500000000029,"velocity":0.7637795275590551,"duration":0.24609375},{"name":"A4","midi":69,"time":445.3750000000029,"velocity":0.7637795275590551,"duration":0.12109375},{"name":"G4","midi":67,"time":445.5000000000029,"velocity":0.7637795275590551,"duration":0.24609375},{"name":"B5","midi":83,"time":445.5000000000029,"velocity":0.7637795275590551,"duration":0.37109375},{"name":"G3","midi":55,"time":445.7500000000029,"velocity":0.7637795275590551,"duration":0.24609375},{"name":"G5","midi":79,"time":445.8750000000029,"velocity":0.7637795275590551,"duration":0.12109375},{"name":"G4","midi":67,"time":446.0000000000029,"velocity":0.7637795275590551,"duration":0.37109375},{"name":"E5","midi":76,"time":446.0000000000029,"velocity":0.7637795275590551,"duration":0.12109375},{"name":"C#5","midi":73,"time":446.1250000000029,"velocity":0.7637795275590551,"duration":0.12109375},{"name":"A5","midi":81,"time":446.2500000000029,"velocity":0.7637795275590551,"duration":0.18229166666668561},{"name":"E4","midi":64,"time":446.3750000000029,"velocity":0.7637795275590551,"duration":0.12109375},{"name":"F#4","midi":66,"time":446.5000000000029,"velocity":0.7637795275590551,"duration":0.12109375},{"name":"D5","midi":74,"time":446.5000000000029,"velocity":0.7637795275590551,"duration":0.18229166666668561},{"name":"A4","midi":69,"time":446.6250000000029,"velocity":0.7637795275590551,"duration":0.12109375},{"name":"G4","midi":67,"time":446.7500000000029,"velocity":0.7637795275590551,"duration":0.12109375},{"name":"F#4","midi":66,"time":446.8750000000029,"velocity":0.7637795275590551,"duration":0.12109375},{"name":"E4","midi":64,"time":447.0000000000029,"velocity":0.7637795275590551,"duration":0.24609375},{"name":"G5","midi":79,"time":447.0000000000029,"velocity":0.7637795275590551,"duration":0.37109375},{"name":"C#4","midi":61,"time":447.2500000000029,"velocity":0.7637795275590551,"duration":0.24609375},{"name":"E5","midi":76,"time":447.3750000000029,"velocity":0.7637795275590551,"duration":0.12109375},{"name":"A3","midi":57,"time":447.5000000000029,"velocity":0.7637795275590551,"duration":0.24609375},{"name":"C#5","midi":73,"time":447.5000000000029,"velocity":0.7637795275590551,"duration":0.12109375},{"name":"A4","midi":69,"time":447.6250000000029,"velocity":0.7637795275590551,"duration":0.12109375},{"name":"D4","midi":62,"time":447.7500000000029,"velocity":0.7637795275590551,"duration":0.24609375},{"name":"F#5","midi":78,"time":447.7500000000029,"velocity":0.7637795275590551,"duration":0.12109375},{"name":"E5","midi":76,"time":447.8750000000029,"velocity":0.7637795275590551,"duration":0.12109375},{"name":"A4","midi":69,"time":448.0000000000029,"velocity":0.7637795275590551,"duration":0.21484375},{"name":"F#5","midi":78,"time":448.0000000000029,"velocity":0.7637795275590551,"duration":0.12109375},{"name":"A5","midi":81,"time":448.1250000000029,"velocity":0.7637795275590551,"duration":0.12109375},{"name":"B4","midi":71,"time":448.2500000000029,"velocity":0.7637795275590551,"duration":0.21484375},{"name":"D5","midi":74,"time":448.2500000000029,"velocity":0.7637795275590551,"duration":0.12109375},{"name":"F#5","midi":78,"time":448.3750000000029,"velocity":0.7637795275590551,"duration":0.12109375},{"name":"E4","midi":64,"time":448.5000000000029,"velocity":0.7637795275590551,"duration":0.24609375},{"name":"G5","midi":79,"time":448.5000000000029,"velocity":0.7637795275590551,"duration":0.12109375},{"name":"F#5","midi":78,"time":448.6250000000029,"velocity":0.7637795275590551,"duration":0.12109375},{"name":"B4","midi":71,"time":448.7500000000029,"velocity":0.7637795275590551,"duration":0.21484375},{"name":"G5","midi":79,"time":448.7500000000029,"velocity":0.7637795275590551,"duration":0.12109375},{"name":"B5","midi":83,"time":448.8750000000029,"velocity":0.7637795275590551,"duration":0.12109375},{"name":"C5","midi":72,"time":449.0000000000029,"velocity":0.7637795275590551,"duration":0.21484375},{"name":"E5","midi":76,"time":449.0000000000029,"velocity":0.7637795275590551,"duration":0.12109375},{"name":"G5","midi":79,"time":449.1250000000029,"velocity":0.7637795275590551,"duration":0.12109375},{"name":"F#4","midi":66,"time":449.2500000000029,"velocity":0.7637795275590551,"duration":0.24609375},{"name":"A5","midi":81,"time":449.2500000000029,"velocity":0.7637795275590551,"duration":0.12109375},{"name":"G5","midi":79,"time":449.3750000000029,"velocity":0.7637795275590551,"duration":0.12109375},{"name":"C5","midi":72,"time":449.5000000000029,"velocity":0.7637795275590551,"duration":0.21484375},{"name":"A5","midi":81,"time":449.5000000000029,"velocity":0.7637795275590551,"duration":0.12109375},{"name":"C6","midi":84,"time":449.6250000000029,"velocity":0.7637795275590551,"duration":0.12109375},{"name":"D5","midi":74,"time":449.7500000000029,"velocity":0.7637795275590551,"duration":0.23828125},{"name":"F#5","midi":78,"time":449.7500000000029,"velocity":0.7637795275590551,"duration":0.12109375},{"name":"A5","midi":81,"time":449.8750000000029,"velocity":0.7637795275590551,"duration":0.12109375},{"name":"G4","midi":67,"time":450.0000000000029,"velocity":0.7637795275590551,"duration":0.24609375},{"name":"B5","midi":83,"time":450.0000000000029,"velocity":0.7637795275590551,"duration":0.12109375},{"name":"A5","midi":81,"time":450.1250000000029,"velocity":0.7637795275590551,"duration":0.12109375},{"name":"E5","midi":76,"time":450.2500000000029,"velocity":0.7637795275590551,"duration":0.21484375},{"name":"C6","midi":84,"time":450.2500000000029,"velocity":0.7637795275590551,"duration":0.12109375},{"name":"B5","midi":83,"time":450.3750000000029,"velocity":0.7637795275590551,"duration":0.12109375},{"name":"C5","midi":72,"time":450.5000000000029,"velocity":0.7637795275590551,"duration":0.21484375},{"name":"A5","midi":81,"time":450.5000000000029,"velocity":0.7637795275590551,"duration":0.12109375},{"name":"G5","midi":79,"time":450.6250000000029,"velocity":0.7637795275590551,"duration":0.12109375},{"name":"D5","midi":74,"time":450.7500000000029,"velocity":0.7637795275590551,"duration":0.24609375},{"name":"F#5","midi":78,"time":450.7500000000029,"velocity":0.7637795275590551,"duration":0.12109375},{"name":"E5","midi":76,"time":450.8750000000029,"velocity":0.7637795275590551,"duration":0.12109375},{"name":"A4","midi":69,"time":451.0000000000029,"velocity":0.7637795275590551,"duration":0.24609375},{"name":"F#5","midi":78,"time":451.0000000000029,"velocity":0.7637795275590551,"duration":0.12109375},{"name":"G5","midi":79,"time":451.1250000000029,"velocity":0.7637795275590551,"duration":0.12109375},{"name":"D5","midi":74,"time":451.2500000000029,"velocity":0.7637795275590551,"duration":0.49609375},{"name":"D4","midi":62,"time":451.2500000000029,"velocity":0.7637795275590551,"duration":0.24609375},{"name":"E5","midi":76,"time":451.2500000000029,"velocity":0.7637795275590551,"duration":0.12109375},{"name":"F#5","midi":78,"time":451.3750000000029,"velocity":0.7637795275590551,"duration":0.12109375},{"name":"E4","midi":64,"time":451.5000000000029,"velocity":0.7637795275590551,"duration":0.37109375},{"name":"G5","midi":79,"time":451.5000000000029,"velocity":0.7637795275590551,"duration":0.49609375},{"name":"C5","midi":72,"time":451.7500000000029,"velocity":0.7637795275590551,"duration":0.62109375},{"name":"C4","midi":60,"time":451.8750000000029,"velocity":0.7637795275590551,"duration":0.12109375},{"name":"A3","midi":57,"time":452.0000000000029,"velocity":0.7637795275590551,"duration":0.12109375},{"name":"C6","midi":84,"time":452.0000000000029,"velocity":0.7637795275590551,"duration":0.24609375},{"name":"F#3","midi":54,"time":452.1250000000029,"velocity":0.7637795275590551,"duration":0.12109375},{"name":"D4","midi":62,"time":452.2500000000029,"velocity":0.7637795275590551,"duration":0.18229166666668561},{"name":"F#5","midi":78,"time":452.2500000000029,"velocity":0.7637795275590551,"duration":0.24609375},{"name":"A4","midi":69,"time":452.3750000000029,"velocity":0.7637795275590551,"duration":0.12109375},{"name":"B4","midi":71,"time":452.5000000000029,"velocity":0.7637795275590551,"duration":0.12109375},{"name":"G3","midi":55,"time":452.5000000000029,"velocity":0.7637795275590551,"duration":0.18229166666668561},{"name":"G5","midi":79,"time":452.5000000000029,"velocity":0.7637795275590551,"duration":0.74609375},{"name":"D5","midi":74,"time":452.6250000000029,"velocity":0.7637795275590551,"duration":0.12109375},{"name":"C5","midi":72,"time":452.7500000000029,"velocity":0.7637795275590551,"duration":0.12109375},{"name":"B4","midi":71,"time":452.8750000000029,"velocity":0.7637795275590551,"duration":0.12109375},{"name":"A4","midi":69,"time":453.0000000000029,"velocity":0.7637795275590551,"duration":0.99609375},{"name":"C4","midi":60,"time":453.0000000000029,"velocity":0.7637795275590551,"duration":0.37109375},{"name":"F#5","midi":78,"time":453.2500000000029,"velocity":0.7637795275590551,"duration":0.24609375},{"name":"A3","midi":57,"time":453.3750000000029,"velocity":0.7637795275590551,"duration":0.12109375},{"name":"F#3","midi":54,"time":453.5000000000029,"velocity":0.7637795275590551,"duration":0.12109375},{"name":"A5","midi":81,"time":453.5000000000029,"velocity":0.7637795275590551,"duration":0.24609375},{"name":"D3","midi":50,"time":453.6250000000029,"velocity":0.7637795275590551,"duration":0.12109375},{"name":"B3","midi":59,"time":453.7500000000029,"velocity":0.7637795275590551,"duration":0.12109375},{"name":"D5","midi":74,"time":453.7500000000029,"velocity":0.7637795275590551,"duration":0.24609375},{"name":"A3","midi":57,"time":453.8750000000029,"velocity":0.7637795275590551,"duration":0.12109375},{"name":"G4","midi":67,"time":454.0000000000029,"velocity":0.7637795275590551,"duration":0.24609375},{"name":"B3","midi":59,"time":454.0000000000029,"velocity":0.7637795275590551,"duration":0.12109375},{"name":"E5","midi":76,"time":454.0000000000029,"velocity":0.7637795275590551,"duration":0.24609375},{"name":"C4","midi":60,"time":454.1250000000029,"velocity":0.7637795275590551,"duration":0.12109375},{"name":"A4","midi":69,"time":454.2500000000029,"velocity":0.7637795275590551,"duration":0.24609375},{"name":"B3","midi":59,"time":454.2500000000029,"velocity":0.7637795275590551,"duration":0.12109375},{"name":"F#5","midi":78,"time":454.2500000000029,"velocity":0.7637795275590551,"duration":0.24609375},{"name":"A3","midi":57,"time":454.3750000000029,"velocity":0.7637795275590551,"duration":0.12109375},{"name":"B4","midi":71,"time":454.5000000000029,"velocity":0.7637795275590551,"duration":0.12109375},{"name":"G3","midi":55,"time":454.5000000000029,"velocity":0.7637795275590551,"duration":0.24609375},{"name":"G5","midi":79,"time":454.5000000000029,"velocity":0.7637795275590551,"duration":0.24739583333331439},{"name":"A4","midi":69,"time":454.6250000000029,"velocity":0.7637795275590551,"duration":0.12109375},{"name":"B4","midi":71,"time":454.7500000000029,"velocity":0.7637795275590551,"duration":0.12109375},{"name":"D4","midi":62,"time":454.7500000000029,"velocity":0.7637795275590551,"duration":0.21484375},{"name":"D5","midi":74,"time":454.8750000000029,"velocity":0.7637795275590551,"duration":0.12109375},{"name":"G4","midi":67,"time":455.0000000000029,"velocity":0.7637795275590551,"duration":0.12109375},{"name":"E4","midi":64,"time":455.0000000000029,"velocity":0.7637795275590551,"duration":0.21484375},{"name":"B4","midi":71,"time":455.1250000000029,"velocity":0.7637795275590551,"duration":0.12109375},{"name":"C5","midi":72,"time":455.2500000000029,"velocity":0.7637795275590551,"duration":0.12109375},{"name":"A3","midi":57,"time":455.2500000000029,"velocity":0.7637795275590551,"duration":0.24609375},{"name":"B4","midi":71,"time":455.3750000000029,"velocity":0.7637795275590551,"duration":0.12109375},{"name":"C5","midi":72,"time":455.5000000000029,"velocity":0.7637795275590551,"duration":0.12109375},{"name":"E4","midi":64,"time":455.5000000000029,"velocity":0.7637795275590551,"duration":0.21484375},{"name":"E5","midi":76,"time":455.6250000000029,"velocity":0.7637795275590551,"duration":0.12109375},{"name":"A4","midi":69,"time":455.7500000000029,"velocity":0.7637795275590551,"duration":0.12109375},{"name":"F4","midi":65,"time":455.7500000000029,"velocity":0.7637795275590551,"duration":0.21484375},{"name":"C5","midi":72,"time":455.8750000000029,"velocity":0.7637795275590551,"duration":0.12109375},{"name":"D5","midi":74,"time":456.0000000000029,"velocity":0.7637795275590551,"duration":0.12109375},{"name":"B3","midi":59,"time":456.0000000000029,"velocity":0.7637795275590551,"duration":0.24609375},{"name":"C5","midi":72,"time":456.1250000000029,"velocity":0.7637795275590551,"duration":0.12109375},{"name":"D5","midi":74,"time":456.2500000000029,"velocity":0.7637795275590551,"duration":0.12109375},{"name":"F4","midi":65,"time":456.2500000000029,"velocity":0.7637795275590551,"duration":0.21484375},{"name":"F5","midi":77,"time":456.3750000000029,"velocity":0.7637795275590551,"duration":0.12109375},{"name":"B4","midi":71,"time":456.5000000000029,"velocity":0.7637795275590551,"duration":0.12109375},{"name":"G4","midi":67,"time":456.5000000000029,"velocity":0.7637795275590551,"duration":0.21484375},{"name":"D5","midi":74,"time":456.6250000000029,"velocity":0.7637795275590551,"duration":0.12369791666668561},{"name":"C4","midi":60,"time":456.7500000000029,"velocity":0.7637795275590551,"duration":0.12109375},{"name":"E5","midi":76,"time":456.7500000000029,"velocity":0.7637795275590551,"duration":0.24609375},{"name":"B3","midi":59,"time":456.8750000000029,"velocity":0.7637795275590551,"duration":0.12109375},{"name":"A4","midi":69,"time":457.0000000000029,"velocity":0.7637795275590551,"duration":0.21484375},{"name":"C4","midi":60,"time":457.0000000000029,"velocity":0.7637795275590551,"duration":0.12109375},{"name":"F#5","midi":78,"time":457.0000000000029,"velocity":0.7637795275590551,"duration":0.24609375},{"name":"D4","midi":62,"time":457.1250000000029,"velocity":0.7637795275590551,"duration":0.12109375},{"name":"B4","midi":71,"time":457.2500000000029,"velocity":0.7637795275590551,"duration":0.21484375},{"name":"C4","midi":60,"time":457.2500000000029,"velocity":0.7637795275590551,"duration":0.12109375},{"name":"G#5","midi":80,"time":457.2500000000029,"velocity":0.7637795275590551,"duration":0.24609375},{"name":"B3","midi":59,"time":457.3750000000029,"velocity":0.7637795275590551,"duration":0.12109375},{"name":"C5","midi":72,"time":457.5000000000029,"velocity":0.7637795275590551,"duration":0.12109375},{"name":"A3","midi":57,"time":457.5000000000029,"velocity":0.7637795275590551,"duration":0.24609375},{"name":"A5","midi":81,"time":457.5000000000029,"velocity":0.7637795275590551,"duration":0.24739583333331439},{"name":"B4","midi":71,"time":457.6250000000029,"velocity":0.7637795275590551,"duration":0.12109375},{"name":"C5","midi":72,"time":457.7500000000029,"velocity":0.7637795275590551,"duration":0.12109375},{"name":"E4","midi":64,"time":457.7500000000029,"velocity":0.7637795275590551,"duration":0.21484375},{"name":"E5","midi":76,"time":457.8750000000029,"velocity":0.7637795275590551,"duration":0.12109375},{"name":"A4","midi":69,"time":458.0000000000029,"velocity":0.7637795275590551,"duration":0.12109375},{"name":"F#4","midi":66,"time":458.0000000000029,"velocity":0.7637795275590551,"duration":0.21484375},{"name":"C5","midi":72,"time":458.1250000000029,"velocity":0.7637795275590551,"duration":0.12109375},{"name":"D5","midi":74,"time":458.2500000000029,"velocity":0.7637795275590551,"duration":0.12109375},{"name":"B3","midi":59,"time":458.2500000000029,"velocity":0.7637795275590551,"duration":0.24609375},{"name":"C5","midi":72,"time":458.3750000000029,"velocity":0.7637795275590551,"duration":0.12109375},{"name":"D5","midi":74,"time":458.5000000000029,"velocity":0.7637795275590551,"duration":0.12109375},{"name":"F#4","midi":66,"time":458.5000000000029,"velocity":0.7637795275590551,"duration":0.21484375},{"name":"F#5","midi":78,"time":458.6250000000029,"velocity":0.7637795275590551,"duration":0.12109375},{"name":"B4","midi":71,"time":458.7500000000029,"velocity":0.7637795275590551,"duration":0.12109375},{"name":"G4","midi":67,"time":458.7500000000029,"velocity":0.7637795275590551,"duration":0.21484375},{"name":"D5","midi":74,"time":458.8750000000029,"velocity":0.7637795275590551,"duration":0.12109375},{"name":"E5","midi":76,"time":459.0000000000029,"velocity":0.7637795275590551,"duration":0.12109375},{"name":"C#4","midi":61,"time":459.0000000000029,"velocity":0.7637795275590551,"duration":0.24609375},{"name":"D5","midi":74,"time":459.1250000000029,"velocity":0.7637795275590551,"duration":0.12109375},{"name":"E5","midi":76,"time":459.2500000000029,"velocity":0.7637795275590551,"duration":0.12109375},{"name":"G4","midi":67,"time":459.2500000000029,"velocity":0.7637795275590551,"duration":0.21484375},{"name":"G5","midi":79,"time":459.3750000000029,"velocity":0.7637795275590551,"duration":0.12109375},{"name":"C#5","midi":73,"time":459.5000000000029,"velocity":0.7637795275590551,"duration":0.12109375},{"name":"A4","midi":69,"time":459.5000000000029,"velocity":0.7637795275590551,"duration":0.21484375},{"name":"E5","midi":76,"time":459.6250000000029,"velocity":0.7637795275590551,"duration":0.12369791666668561},{"name":"D4","midi":62,"time":459.7500000000029,"velocity":0.7637795275590551,"duration":0.12109375},{"name":"F#5","midi":78,"time":459.7500000000029,"velocity":0.7637795275590551,"duration":0.24609375},{"name":"C#4","midi":61,"time":459.8750000000029,"velocity":0.7637795275590551,"duration":0.12109375},{"name":"B4","midi":71,"time":460.0000000000029,"velocity":0.7637795275590551,"duration":0.21484375},{"name":"D4","midi":62,"time":460.0000000000029,"velocity":0.7637795275590551,"duration":0.12109375},{"name":"G5","midi":79,"time":460.0000000000029,"velocity":0.7637795275590551,"duration":0.24609375},{"name":"E4","midi":64,"time":460.1250000000029,"velocity":0.7637795275590551,"duration":0.12109375},{"name":"C#5","midi":73,"time":460.2500000000029,"velocity":0.7637795275590551,"duration":0.21484375},{"name":"D4","midi":62,"time":460.2500000000029,"velocity":0.7637795275590551,"duration":0.12109375},{"name":"A5","midi":81,"time":460.2500000000029,"velocity":0.7637795275590551,"duration":0.49609375},{"name":"C#4","midi":61,"time":460.3750000000029,"velocity":0.7637795275590551,"duration":0.12109375},{"name":"D5","midi":74,"time":460.5000000000029,"velocity":0.7637795275590551,"duration":0.12109375},{"name":"B3","midi":59,"time":460.5000000000029,"velocity":0.7637795275590551,"duration":0.37109375},{"name":"C#5","midi":73,"time":460.6250000000029,"velocity":0.7637795275590551,"duration":0.12109375},{"name":"D5","midi":74,"time":460.7500000000029,"velocity":0.7637795275590551,"duration":0.12109375},{"name":"G5","midi":79,"time":460.7500000000029,"velocity":0.7637795275590551,"duration":0.74609375},{"name":"E5","midi":76,"time":460.8750000000029,"velocity":0.7637795275590551,"duration":0.12109375},{"name":"G3","midi":55,"time":460.8750000000029,"velocity":0.7637795275590551,"duration":0.12109375},{"name":"B4","midi":71,"time":461.0000000000029,"velocity":0.7637795275590551,"duration":0.12109375},{"name":"E3","midi":52,"time":461.0000000000029,"velocity":0.7637795275590551,"duration":0.12109375},{"name":"D5","midi":74,"time":461.1250000000029,"velocity":0.7637795275590551,"duration":0.12109375},{"name":"C#3","midi":49,"time":461.1250000000029,"velocity":0.7637795275590551,"duration":0.12109375},{"name":"C#5","midi":73,"time":461.2500000000029,"velocity":0.7637795275590551,"duration":0.12109375},{"name":"A3","midi":57,"time":461.2500000000029,"velocity":0.7637795275590551,"duration":0.18229166666668561},{"name":"B4","midi":71,"time":461.3750000000029,"velocity":0.7637795275590551,"duration":0.12109375},{"name":"C#5","midi":73,"time":461.5000000000029,"velocity":0.7637795275590551,"duration":0.12109375},{"name":"D3","midi":50,"time":461.5000000000029,"velocity":0.7637795275590551,"duration":0.18229166666668561},{"name":"F#5","midi":78,"time":461.5000000000029,"velocity":0.7637795275590551,"duration":0.74609375},{"name":"D5","midi":74,"time":461.6250000000029,"velocity":0.7637795275590551,"duration":0.12109375},{"name":"A4","midi":69,"time":461.7500000000029,"velocity":0.7637795275590551,"duration":0.12109375},{"name":"C#5","midi":73,"time":461.8750000000029,"velocity":0.7637795275590551,"duration":0.12109375},{"name":"B4","midi":71,"time":462.0000000000029,"velocity":0.7637795275590551,"duration":0.12109375},{"name":"G3","midi":55,"time":462.0000000000029,"velocity":0.7637795275590551,"duration":0.37109375},{"name":"A4","midi":69,"time":462.1250000000029,"velocity":0.7637795275590551,"duration":0.12109375},{"name":"B4","midi":71,"time":462.2500000000029,"velocity":0.7637795275590551,"duration":0.12109375},{"name":"E5","midi":76,"time":462.2500000000029,"velocity":0.7637795275590551,"duration":0.74609375},{"name":"C#5","midi":73,"time":462.3750000000029,"velocity":0.7637795275590551,"duration":0.12109375},{"name":"E3","midi":52,"time":462.3750000000029,"velocity":0.7637795275590551,"duration":0.12109375},{"name":"G4","midi":67,"time":462.5000000000029,"velocity":0.7637795275590551,"duration":0.12109375},{"name":"C#3","midi":49,"time":462.5000000000029,"velocity":0.7637795275590551,"duration":0.12109375},{"name":"B4","midi":71,"time":462.6250000000029,"velocity":0.7637795275590551,"duration":0.12109375},{"name":"A2","midi":45,"time":462.6250000000029,"velocity":0.7637795275590551,"duration":0.12109375},{"name":"A4","midi":69,"time":462.7500000000029,"velocity":0.7637795275590551,"duration":0.4947916666666856},{"name":"F#3","midi":54,"time":462.7500000000029,"velocity":0.7637795275590551,"duration":0.12109375},{"name":"E3","midi":52,"time":462.8750000000029,"velocity":0.7637795275590551,"duration":0.12109375},{"name":"F#3","midi":54,"time":463.0000000000029,"velocity":0.7637795275590551,"duration":0.12109375},{"name":"D5","midi":74,"time":463.0000000000029,"velocity":0.7637795275590551,"duration":0.22916666666668561},{"name":"A3","midi":57,"time":463.1250000000029,"velocity":0.7637795275590551,"duration":0.12109375},{"name":"D3","midi":50,"time":463.2500000000029,"velocity":0.7637795275590551,"duration":0.12109375},{"name":"F#5","midi":78,"time":463.2500000000029,"velocity":0.7637795275590551,"duration":0.49609375},{"name":"F#3","midi":54,"time":463.3750000000029,"velocity":0.7637795275590551,"duration":0.12109375},{"name":"G#3","midi":56,"time":463.5000000000029,"velocity":0.7637795275590551,"duration":0.12109375},{"name":"F#3","midi":54,"time":463.6250000000029,"velocity":0.7637795275590551,"duration":0.12109375},{"name":"G#3","midi":56,"time":463.7500000000029,"velocity":0.7637795275590551,"duration":0.12109375},{"name":"E5","midi":76,"time":463.7500000000029,"velocity":0.7637795275590551,"duration":0.22916666666668561},{"name":"B3","midi":59,"time":463.8750000000029,"velocity":0.7637795275590551,"duration":0.12109375},{"name":"E3","midi":52,"time":464.0000000000029,"velocity":0.7637795275590551,"duration":0.12109375},{"name":"D5","midi":74,"time":464.0000000000029,"velocity":0.7637795275590551,"duration":0.49609375},{"name":"G#3","midi":56,"time":464.1250000000029,"velocity":0.7637795275590551,"duration":0.12109375},{"name":"A#3","midi":58,"time":464.2500000000029,"velocity":0.7637795275590551,"duration":0.12109375},{"name":"G#3","midi":56,"time":464.3750000000029,"velocity":0.7637795275590551,"duration":0.12109375},{"name":"A#3","midi":58,"time":464.5000000000029,"velocity":0.7637795275590551,"duration":0.12109375},{"name":"C#5","midi":73,"time":464.5000000000029,"velocity":0.7637795275590551,"duration":0.22916666666668561},{"name":"C#4","midi":61,"time":464.6250000000029,"velocity":0.7637795275590551,"duration":0.12109375},{"name":"F#3","midi":54,"time":464.7500000000029,"velocity":0.7637795275590551,"duration":0.12109375},{"name":"E5","midi":76,"time":464.7500000000029,"velocity":0.7637795275590551,"duration":0.49609375},{"name":"A#3","midi":58,"time":464.8750000000029,"velocity":0.7637795275590551,"duration":0.12109375},{"name":"B3","midi":59,"time":465.0000000000029,"velocity":0.7637795275590551,"duration":0.12109375},{"name":"A#3","midi":58,"time":465.1250000000029,"velocity":0.7637795275590551,"duration":0.12109375},{"name":"B3","midi":59,"time":465.2500000000029,"velocity":0.7637795275590551,"duration":0.12109375},{"name":"D5","midi":74,"time":465.2500000000029,"velocity":0.7637795275590551,"duration":0.22916666666668561},{"name":"D4","midi":62,"time":465.3750000000029,"velocity":0.7637795275590551,"duration":0.12109375},{"name":"F#3","midi":54,"time":465.5000000000029,"velocity":0.7637795275590551,"duration":0.12109375},{"name":"C5","midi":72,"time":465.5000000000029,"velocity":0.7637795275590551,"duration":0.49609375},{"name":"A3","midi":57,"time":465.6250000000029,"velocity":0.7637795275590551,"duration":0.12109375},{"name":"G#3","midi":56,"time":465.7500000000029,"velocity":0.7637795275590551,"duration":0.12109375},{"name":"F#3","midi":54,"time":465.8750000000029,"velocity":0.7637795275590551,"duration":0.12109375},{"name":"G#3","midi":56,"time":466.0000000000029,"velocity":0.7637795275590551,"duration":0.12109375},{"name":"B4","midi":71,"time":466.0000000000029,"velocity":0.7637795275590551,"duration":0.22916666666668561},{"name":"B3","midi":59,"time":466.1250000000029,"velocity":0.7637795275590551,"duration":0.12109375},{"name":"E3","midi":52,"time":466.2500000000029,"velocity":0.7637795275590551,"duration":0.12109375},{"name":"D5","midi":74,"time":466.2500000000029,"velocity":0.7637795275590551,"duration":0.49609375},{"name":"G#3","midi":56,"time":466.3750000000029,"velocity":0.7637795275590551,"duration":0.12109375},{"name":"A3","midi":57,"time":466.5000000000029,"velocity":0.7637795275590551,"duration":0.12109375},{"name":"G#3","midi":56,"time":466.6250000000029,"velocity":0.7637795275590551,"duration":0.12109375},{"name":"A3","midi":57,"time":466.7500000000029,"velocity":0.7637795275590551,"duration":0.12109375},{"name":"C5","midi":72,"time":466.7500000000029,"velocity":0.7637795275590551,"duration":0.22916666666668561},{"name":"C4","midi":60,"time":466.8750000000029,"velocity":0.7637795275590551,"duration":0.12109375},{"name":"E3","midi":52,"time":467.0000000000029,"velocity":0.7637795275590551,"duration":0.12109375},{"name":"B4","midi":71,"time":467.0000000000029,"velocity":0.7637795275590551,"duration":0.49609375},{"name":"G3","midi":55,"time":467.1250000000029,"velocity":0.7637795275590551,"duration":0.12109375},{"name":"F#3","midi":54,"time":467.2500000000029,"velocity":0.7637795275590551,"duration":0.12109375},{"name":"E3","midi":52,"time":467.3750000000029,"velocity":0.7637795275590551,"duration":0.12109375},{"name":"F#3","midi":54,"time":467.5000000000029,"velocity":0.7637795275590551,"duration":0.12109375},{"name":"A4","midi":69,"time":467.5000000000029,"velocity":0.7637795275590551,"duration":0.22916666666668561},{"name":"A3","midi":57,"time":467.6250000000029,"velocity":0.7637795275590551,"duration":0.12109375},{"name":"D3","midi":50,"time":467.7500000000029,"velocity":0.7637795275590551,"duration":0.12109375},{"name":"C5","midi":72,"time":467.7500000000029,"velocity":0.7637795275590551,"duration":0.49609375},{"name":"F#3","midi":54,"time":467.8750000000029,"velocity":0.7637795275590551,"duration":0.12109375},{"name":"G3","midi":55,"time":468.0000000000029,"velocity":0.7637795275590551,"duration":0.12109375},{"name":"F#3","midi":54,"time":468.1250000000029,"velocity":0.7637795275590551,"duration":0.12109375},{"name":"G3","midi":55,"time":468.2500000000029,"velocity":0.7637795275590551,"duration":0.12109375},{"name":"B4","midi":71,"time":468.2500000000029,"velocity":0.7637795275590551,"duration":0.22916666666668561},{"name":"A3","midi":57,"time":468.3750000000029,"velocity":0.7637795275590551,"duration":0.12109375},{"name":"F#4","midi":66,"time":468.5000000000029,"velocity":0.7637795275590551,"duration":0.49609375},{"name":"B3","midi":59,"time":468.5000000000029,"velocity":0.7637795275590551,"duration":0.12109375},{"name":"D5","midi":74,"time":468.5000000000029,"velocity":0.7637795275590551,"duration":0.49609375},{"name":"G3","midi":55,"time":468.6250000000029,"velocity":0.7637795275590551,"duration":0.12109375},{"name":"A3","midi":57,"time":468.7500000000029,"velocity":0.7637795275590551,"duration":0.12109375},{"name":"G3","midi":55,"time":468.8750000000029,"velocity":0.7637795275590551,"duration":0.12109375},{"name":"E4","midi":64,"time":469.0000000000029,"velocity":0.7637795275590551,"duration":0.22916666666668561},{"name":"A3","midi":57,"time":469.0000000000029,"velocity":0.7637795275590551,"duration":0.12109375},{"name":"C#5","midi":73,"time":469.0000000000029,"velocity":0.7637795275590551,"duration":0.22916666666668561},{"name":"B3","midi":59,"time":469.1250000000029,"velocity":0.7637795275590551,"duration":0.12109375},{"name":"A4","midi":69,"time":469.2500000000029,"velocity":0.7637795275590551,"duration":0.24609375},{"name":"C#4","midi":61,"time":469.2500000000029,"velocity":0.7637795275590551,"duration":0.12109375},{"name":"A5","midi":81,"time":469.2500000000029,"velocity":0.7637795275590551,"duration":0.49609375},{"name":"A3","midi":57,"time":469.3750000000029,"velocity":0.7637795275590551,"duration":0.12109375},{"name":"B4","midi":71,"time":469.5000000000029,"velocity":0.7637795275590551,"duration":0.37109375},{"name":"D4","midi":62,"time":469.5000000000029,"velocity":0.7637795275590551,"duration":0.12109375},{"name":"B3","midi":59,"time":469.6250000000029,"velocity":0.7637795275590551,"duration":0.12109375},{"name":"E4","midi":64,"time":469.7500000000029,"velocity":0.7637795275590551,"duration":0.24609375},{"name":"G5","midi":79,"time":469.7500000000029,"velocity":0.7637795275590551,"duration":0.24739583333331439},{"name":"G4","midi":67,"time":469.8750000000029,"velocity":0.7637795275590551,"duration":0.12109375},{"name":"E4","midi":64,"time":470.0000000000029,"velocity":0.7637795275590551,"duration":0.12109375},{"name":"G3","midi":55,"time":470.0000000000029,"velocity":0.7637795275590551,"duration":0.37109375},{"name":"C#4","midi":61,"time":470.1250000000029,"velocity":0.7637795275590551,"duration":0.12109375},{"name":"A4","midi":69,"time":470.2500000000029,"velocity":0.7637795275590551,"duration":0.18229166666668561},{"name":"C#5","midi":73,"time":470.2500000000029,"velocity":0.7637795275590551,"duration":0.24609375},{"name":"E3","midi":52,"time":470.3750000000029,"velocity":0.7637795275590551,"duration":0.12109375},{"name":"D4","midi":62,"time":470.5000000000029,"velocity":0.7637795275590551,"duration":0.18229166666668561},{"name":"F#3","midi":54,"time":470.5000000000029,"velocity":0.7637795275590551,"duration":0.12109375},{"name":"A4","midi":69,"time":470.5000000000029,"velocity":0.7637795275590551,"duration":0.24609375},{"name":"A3","midi":57,"time":470.6250000000029,"velocity":0.7637795275590551,"duration":0.12109375},{"name":"G3","midi":55,"time":470.7500000000029,"velocity":0.7637795275590551,"duration":0.12109375},{"name":"D5","midi":74,"time":470.7500000000029,"velocity":0.7637795275590551,"duration":0.49609375},{"name":"F#3","midi":54,"time":470.8750000000029,"velocity":0.7637795275590551,"duration":0.12109375},{"name":"G4","midi":67,"time":471.0000000000029,"velocity":0.7637795275590551,"duration":0.37109375},{"name":"E3","midi":52,"time":471.0000000000029,"velocity":0.7637795275590551,"duration":0.12109375},{"name":"A2","midi":45,"time":471.1250000000029,"velocity":0.7637795275590551,"duration":0.12109375},{"name":"A3","midi":57,"time":471.2500000000029,"velocity":0.7637795275590551,"duration":0.12109375},{"name":"C#5","midi":73,"time":471.2500000000029,"velocity":0.7637795275590551,"duration":0.24739583333331439},{"name":"E4","midi":64,"time":471.3750000000029,"velocity":0.7637795275590551,"duration":0.12109375},{"name":"G3","midi":55,"time":471.3750000000029,"velocity":0.7637795275590551,"duration":0.12109375},{"name":"C#4","midi":61,"time":471.5000000000029,"velocity":0.7637795275590551,"duration":0.12109375},{"name":"F#3","midi":54,"time":471.5000000000029,"velocity":0.7637795275590551,"duration":0.12109375},{"name":"A3","midi":57,"time":471.6250000000029,"velocity":0.7637795275590551,"duration":0.12109375},{"name":"E3","midi":52,"time":471.6250000000029,"velocity":0.7637795275590551,"duration":0.12109375},{"name":"F#4","midi":66,"time":471.7500000000029,"velocity":0.7637795275590551,"duration":0.12109375},{"name":"D3","midi":50,"time":471.7500000000029,"velocity":0.7637795275590551,"duration":0.24609375},{"name":"D5","midi":74,"time":471.7500000000029,"velocity":0.7637795275590551,"duration":0.87109375},{"name":"E4","midi":64,"time":471.8750000000029,"velocity":0.7637795275590551,"duration":0.12109375},{"name":"F#4","midi":66,"time":472.0000000000029,"velocity":0.7637795275590551,"duration":0.12109375},{"name":"A3","midi":57,"time":472.0000000000029,"velocity":0.7637795275590551,"duration":0.21484375},{"name":"A4","midi":69,"time":472.1250000000029,"velocity":0.7637795275590551,"duration":0.12109375},{"name":"D4","midi":62,"time":472.2500000000029,"velocity":0.7637795275590551,"duration":0.12109375},{"name":"B3","midi":59,"time":472.2500000000029,"velocity":0.7637795275590551,"duration":0.21484375},{"name":"F#4","midi":66,"time":472.3750000000029,"velocity":0.7637795275590551,"duration":0.12109375},{"name":"G4","midi":67,"time":472.5000000000029,"velocity":0.7637795275590551,"duration":0.87109375},{"name":"E3","midi":52,"time":472.5000000000029,"velocity":0.7637795275590551,"duration":0.24609375},{"name":"C5","midi":72,"time":472.6250000000029,"velocity":0.7637795275590551,"duration":0.12109375},{"name":"B2","midi":47,"time":472.7500000000029,"velocity":0.7637795275590551,"duration":0.21484375},{"name":"D5","midi":74,"time":472.7500000000029,"velocity":0.7637795275590551,"duration":0.12109375},{"name":"E5","midi":76,"time":472.8750000000029,"velocity":0.7637795275590551,"duration":0.12109375},{"name":"G2","midi":43,"time":473.0000000000029,"velocity":0.7637795275590551,"duration":0.21484375},{"name":"B4","midi":71,"time":473.0000000000029,"velocity":0.7637795275590551,"duration":0.12109375},{"name":"D5","midi":74,"time":473.1250000000029,"velocity":0.7637795275590551,"duration":0.12109375},{"name":"E2","midi":40,"time":473.2500000000029,"velocity":0.7637795275590551,"duration":0.24609375},{"name":"C5","midi":72,"time":473.2500000000029,"velocity":0.7637795275590551,"duration":0.87109375},{"name":"F#4","midi":66,"time":473.3750000000029,"velocity":0.7637795275590551,"duration":0.12109375},{"name":"G4","midi":67,"time":473.5000000000029,"velocity":0.7637795275590551,"duration":0.12109375},{"name":"B3","midi":59,"time":473.5000000000029,"velocity":0.7637795275590551,"duration":0.21484375},{"name":"B4","midi":71,"time":473.6250000000029,"velocity":0.7637795275590551,"duration":0.12109375},{"name":"E4","midi":64,"time":473.7500000000029,"velocity":0.7637795275590551,"duration":0.12109375},{"name":"C4","midi":60,"time":473.7500000000029,"velocity":0.7637795275590551,"duration":0.21484375},{"name":"G4","midi":67,"time":473.8750000000029,"velocity":0.7637795275590551,"duration":0.12109375},{"name":"A4","midi":69,"time":474.0000000000029,"velocity":0.7637795275590551,"duration":0.4947916666666856},{"name":"F#3","midi":54,"time":474.0000000000029,"velocity":0.7637795275590551,"duration":0.24609375},{"name":"B4","midi":71,"time":474.1250000000029,"velocity":0.7637795275590551,"duration":0.12109375},{"name":"D3","midi":50,"time":474.2500000000029,"velocity":0.7637795275590551,"duration":0.24609375},{"name":"C5","midi":72,"time":474.2500000000029,"velocity":0.7637795275590551,"duration":0.12109375},{"name":"D5","midi":74,"time":474.3750000000029,"velocity":0.7637795275590551,"duration":0.12109375},{"name":"E3","midi":52,"time":474.5000000000029,"velocity":0.7637795275590551,"duration":0.24609375},{"name":"A4","midi":69,"time":474.5000000000029,"velocity":0.7637795275590551,"duration":0.24739583333331439},{"name":"C5","midi":72,"time":474.6250000000029,"velocity":0.7637795275590551,"duration":0.12109375},{"name":"G4","midi":67,"time":474.7500000000029,"velocity":0.7637795275590551,"duration":0.87109375},{"name":"F3","midi":53,"time":474.7500000000029,"velocity":0.7637795275590551,"duration":0.24609375},{"name":"B4","midi":71,"time":474.7500000000029,"velocity":0.7637795275590551,"duration":0.12109375},{"name":"A4","midi":69,"time":474.8750000000029,"velocity":0.7637795275590551,"duration":0.12109375},{"name":"E3","midi":52,"time":475.0000000000029,"velocity":0.7637795275590551,"duration":0.24609375},{"name":"B4","midi":71,"time":475.0000000000029,"velocity":0.7637795275590551,"duration":0.12109375},{"name":"C5","midi":72,"time":475.1250000000029,"velocity":0.7637795275590551,"duration":0.12109375},{"name":"D3","midi":50,"time":475.2500000000029,"velocity":0.7637795275590551,"duration":0.24609375},{"name":"D5","midi":74,"time":475.2500000000029,"velocity":0.7637795275590551,"duration":0.12109375},{"name":"B4","midi":71,"time":475.3750000000029,"velocity":0.7637795275590551,"duration":0.12109375},{"name":"C3","midi":48,"time":475.5000000000029,"velocity":0.7637795275590551,"duration":0.37109375},{"name":"E5","midi":76,"time":475.5000000000029,"velocity":0.7637795275590551,"duration":0.37109375},{"name":"G3","midi":55,"time":475.6250000000029,"velocity":0.7637795275590551,"duration":0.12109375},{"name":"C4","midi":60,"time":475.7500000000029,"velocity":0.7637795275590551,"duration":0.62109375},{"name":"A3","midi":57,"time":475.8750000000029,"velocity":0.7637795275590551,"duration":0.12109375},{"name":"C5","midi":72,"time":475.8750000000029,"velocity":0.7637795275590551,"duration":0.12109375},{"name":"F#3","midi":54,"time":476.0000000000029,"velocity":0.7637795275590551,"duration":0.12109375},{"name":"A4","midi":69,"time":476.0000000000029,"velocity":0.7637795275590551,"duration":0.12109375},{"name":"A3","midi":57,"time":476.1250000000029,"velocity":0.7637795275590551,"duration":0.12109375},{"name":"F#4","midi":66,"time":476.1250000000029,"velocity":0.7637795275590551,"duration":0.12109375},{"name":"B2","midi":47,"time":476.2500000000029,"velocity":0.7637795275590551,"duration":0.37109375},{"name":"D5","midi":74,"time":476.2500000000029,"velocity":0.7637795275590551,"duration":0.18229166666668561},{"name":"A3","midi":57,"time":476.3750000000029,"velocity":0.7637795275590551,"duration":0.12109375},{"name":"B3","midi":59,"time":476.5000000000029,"velocity":0.7637795275590551,"duration":0.62109375},{"name":"G4","midi":67,"time":476.5000000000029,"velocity":0.7637795275590551,"duration":0.18229166666668561},{"name":"G3","midi":55,"time":476.6250000000029,"velocity":0.7637795275590551,"duration":0.12109375},{"name":"E3","midi":52,"time":476.7500000000029,"velocity":0.7637795275590551,"duration":0.12109375},{"name":"G3","midi":55,"time":476.8750000000029,"velocity":0.7637795275590551,"duration":0.12109375},{"name":"A2","midi":45,"time":477.0000000000029,"velocity":0.7637795275590551,"duration":0.37109375},{"name":"C5","midi":72,"time":477.0000000000029,"velocity":0.7637795275590551,"duration":0.37109375},{"name":"G3","midi":55,"time":477.1250000000029,"velocity":0.7637795275590551,"duration":0.12109375},{"name":"A3","midi":57,"time":477.2500000000029,"velocity":0.7637795275590551,"duration":0.62109375},{"name":"F#3","midi":54,"time":477.3750000000029,"velocity":0.7637795275590551,"duration":0.12109375},{"name":"A4","midi":69,"time":477.3750000000029,"velocity":0.7637795275590551,"duration":0.12109375},{"name":"D3","midi":50,"time":477.5000000000029,"velocity":0.7637795275590551,"duration":0.12109375},{"name":"F#4","midi":66,"time":477.5000000000029,"velocity":0.7637795275590551,"duration":0.12109375},{"name":"F#3","midi":54,"time":477.6250000000029,"velocity":0.7637795275590551,"duration":0.12109375},{"name":"D4","midi":62,"time":477.6250000000029,"velocity":0.7637795275590551,"duration":0.12109375},{"name":"G2","midi":43,"time":477.7500000000029,"velocity":0.7637795275590551,"duration":0.37109375},{"name":"B4","midi":71,"time":477.7500000000029,"velocity":0.7637795275590551,"duration":0.18229166666668561},{"name":"F#3","midi":54,"time":477.8750000000029,"velocity":0.7637795275590551,"duration":0.12109375},{"name":"G3","midi":55,"time":478.0000000000029,"velocity":0.7637795275590551,"duration":0.62109375},{"name":"E4","midi":64,"time":478.0000000000029,"velocity":0.7637795275590551,"duration":0.18229166666668561},{"name":"E3","midi":52,"time":478.1250000000029,"velocity":0.7637795275590551,"duration":0.12109375},{"name":"C#3","midi":49,"time":478.2500000000029,"velocity":0.7637795275590551,"duration":0.12109375},{"name":"E3","midi":52,"time":478.3750000000029,"velocity":0.7637795275590551,"duration":0.12109375},{"name":"F#2","midi":42,"time":478.5000000000029,"velocity":0.7637795275590551,"duration":0.37109375},{"name":"A4","midi":69,"time":478.5000000000029,"velocity":0.7637795275590551,"duration":0.37109375},{"name":"E3","midi":52,"time":478.6250000000029,"velocity":0.7637795275590551,"duration":0.12109375},{"name":"F#3","midi":54,"time":478.7500000000029,"velocity":0.7637795275590551,"duration":0.62109375},{"name":"D3","midi":50,"time":478.8750000000029,"velocity":0.7637795275590551,"duration":0.12109375},{"name":"F#4","midi":66,"time":478.8750000000029,"velocity":0.7637795275590551,"duration":0.12109375},{"name":"B2","midi":47,"time":479.0000000000029,"velocity":0.7637795275590551,"duration":0.12109375},{"name":"D4","midi":62,"time":479.0000000000029,"velocity":0.7637795275590551,"duration":0.12109375},{"name":"D3","midi":50,"time":479.1250000000029,"velocity":0.7637795275590551,"duration":0.12109375},{"name":"B3","midi":59,"time":479.1250000000029,"velocity":0.7637795275590551,"duration":0.12109375},{"name":"E2","midi":40,"time":479.2500000000029,"velocity":0.7637795275590551,"duration":0.37109375},{"name":"G4","midi":67,"time":479.2500000000029,"velocity":0.7637795275590551,"duration":0.18229166666668561},{"name":"D3","midi":50,"time":479.3750000000029,"velocity":0.7637795275590551,"duration":0.12109375},{"name":"E3","midi":52,"time":479.5000000000029,"velocity":0.7637795275590551,"duration":0.24739583333331439},{"name":"C#4","midi":61,"time":479.5000000000029,"velocity":0.7637795275590551,"duration":0.18229166666668561},{"name":"C#3","midi":49,"time":479.6250000000029,"velocity":0.7637795275590551,"duration":0.12109375},{"name":"A2","midi":45,"time":479.7500000000029,"velocity":0.7637795275590551,"duration":0.12109375},{"name":"C#3","midi":49,"time":479.8750000000029,"velocity":0.7637795275590551,"duration":0.12109375},{"name":"D2","midi":38,"time":480.0000000000029,"velocity":0.7637795275590551,"duration":0.24609375},{"name":"E4","midi":64,"time":480.1250000000029,"velocity":0.7637795275590551,"duration":0.12109375},{"name":"A2","midi":45,"time":480.2500000000029,"velocity":0.7637795275590551,"duration":0.21484375},{"name":"F#4","midi":66,"time":480.2500000000029,"velocity":0.7637795275590551,"duration":0.12109375},{"name":"A4","midi":69,"time":480.3750000000029,"velocity":0.7637795275590551,"duration":0.12109375},{"name":"B2","midi":47,"time":480.5000000000029,"velocity":0.7637795275590551,"duration":0.21484375},{"name":"D4","midi":62,"time":480.5000000000029,"velocity":0.7637795275590551,"duration":0.12109375},{"name":"F#4","midi":66,"time":480.6250000000029,"velocity":0.7637795275590551,"duration":0.12109375},{"name":"E2","midi":40,"time":480.7500000000029,"velocity":0.7637795275590551,"duration":0.24609375},{"name":"G4","midi":67,"time":480.7500000000029,"velocity":0.7637795275590551,"duration":0.12109375},{"name":"F#4","midi":66,"time":480.8750000000029,"velocity":0.7637795275590551,"duration":0.12109375},{"name":"B2","midi":47,"time":481.0000000000029,"velocity":0.7637795275590551,"duration":0.21484375},{"name":"G4","midi":67,"time":481.0000000000029,"velocity":0.7637795275590551,"duration":0.12109375},{"name":"B4","midi":71,"time":481.1250000000029,"velocity":0.7637795275590551,"duration":0.12109375},{"name":"C3","midi":48,"time":481.2500000000029,"velocity":0.7637795275590551,"duration":0.21484375},{"name":"E4","midi":64,"time":481.2500000000029,"velocity":0.7637795275590551,"duration":0.12109375},{"name":"G4","midi":67,"time":481.3750000000029,"velocity":0.7637795275590551,"duration":0.12109375},{"name":"F#2","midi":42,"time":481.5000000000029,"velocity":0.7637795275590551,"duration":0.24609375},{"name":"A4","midi":69,"time":481.5000000000029,"velocity":0.7637795275590551,"duration":0.12109375},{"name":"G4","midi":67,"time":481.6250000000029,"velocity":0.7637795275590551,"duration":0.12109375},{"name":"C3","midi":48,"time":481.7500000000029,"velocity":0.7637795275590551,"duration":0.21484375},{"name":"A4","midi":69,"time":481.7500000000029,"velocity":0.7637795275590551,"duration":0.12109375},{"name":"C5","midi":72,"time":481.8750000000029,"velocity":0.7637795275590551,"duration":0.12109375},{"name":"D3","midi":50,"time":482.0000000000029,"velocity":0.7637795275590551,"duration":0.21484375},{"name":"F#4","midi":66,"time":482.0000000000029,"velocity":0.7637795275590551,"duration":0.12109375},{"name":"A4","midi":69,"time":482.1250000000029,"velocity":0.7637795275590551,"duration":0.12109375},{"name":"G2","midi":43,"time":482.2500000000029,"velocity":0.7637795275590551,"duration":0.24609375},{"name":"B4","midi":71,"time":482.2500000000029,"velocity":0.7637795275590551,"duration":0.12109375},{"name":"A4","midi":69,"time":482.3750000000029,"velocity":0.7637795275590551,"duration":0.12109375},{"name":"D3","midi":50,"time":482.5000000000029,"velocity":0.7637795275590551,"duration":0.21484375},{"name":"B4","midi":71,"time":482.5000000000029,"velocity":0.7637795275590551,"duration":0.12109375},{"name":"C#5","midi":73,"time":482.6250000000029,"velocity":0.7637795275590551,"duration":0.12109375},{"name":"E3","midi":52,"time":482.7500000000029,"velocity":0.7637795275590551,"duration":0.21484375},{"name":"D5","midi":74,"time":482.7500000000029,"velocity":0.7637795275590551,"duration":0.12109375},{"name":"B4","midi":71,"time":482.8750000000029,"velocity":0.7637795275590551,"duration":0.12109375},{"name":"A2","midi":45,"time":483.0000000000029,"velocity":0.7637795275590551,"duration":0.12109375},{"name":"C#5","midi":73,"time":483.0000000000029,"velocity":0.7637795275590551,"duration":0.24609375},{"name":"F#3","midi":54,"time":483.1250000000029,"velocity":0.7637795275590551,"duration":0.12109375},{"name":"G3","midi":55,"time":483.2500000000029,"velocity":0.7637795275590551,"duration":0.12109375},{"name":"A4","midi":69,"time":483.2500000000029,"velocity":0.7637795275590551,"duration":0.22916666666668561},{"name":"A3","midi":57,"time":483.3750000000029,"velocity":0.7637795275590551,"duration":0.12109375},{"name":"E3","midi":52,"time":483.5000000000029,"velocity":0.7637795275590551,"duration":0.12109375},{"name":"E5","midi":76,"time":483.5000000000029,"velocity":0.7637795275590551,"duration":0.49609375},{"name":"G3","midi":55,"time":483.6250000000029,"velocity":0.7637795275590551,"duration":0.12109375},{"name":"F#3","midi":54,"time":483.7500000000029,"velocity":0.7637795275590551,"duration":0.12109375},{"name":"E3","midi":52,"time":483.8750000000029,"velocity":0.7637795275590551,"duration":0.12109375},{"name":"F#3","midi":54,"time":484.0000000000029,"velocity":0.7637795275590551,"duration":0.12109375},{"name":"D5","midi":74,"time":484.0000000000029,"velocity":0.7637795275590551,"duration":0.22916666666668561},{"name":"A3","midi":57,"time":484.1250000000029,"velocity":0.7637795275590551,"duration":0.12109375},{"name":"D5","midi":74,"time":484.2500000000029,"velocity":0.7637795275590551,"duration":0.49609375},{"name":"D3","midi":50,"time":484.2500000000029,"velocity":0.7637795275590551,"duration":0.12109375},{"name":"F#5","midi":78,"time":484.2500000000029,"velocity":0.7637795275590551,"duration":0.49609375},{"name":"F#3","midi":54,"time":484.3750000000029,"velocity":0.7637795275590551,"duration":0.12109375},{"name":"E3","midi":52,"time":484.5000000000029,"velocity":0.7637795275590551,"duration":0.12109375},{"name":"D3","midi":50,"time":484.6250000000029,"velocity":0.7637795275590551,"duration":0.12109375},{"name":"C#5","midi":73,"time":484.7500000000029,"velocity":0.7637795275590551,"duration":0.22916666666668561},{"name":"E3","midi":52,"time":484.7500000000029,"velocity":0.7637795275590551,"duration":0.12109375},{"name":"E5","midi":76,"time":484.7500000000029,"velocity":0.7637795275590551,"duration":0.22916666666668561},{"name":"G3","midi":55,"time":484.8750000000029,"velocity":0.7637795275590551,"duration":0.12109375},{"name":"E5","midi":76,"time":485.0000000000029,"velocity":0.7637795275590551,"duration":0.49609375},{"name":"C#3","midi":49,"time":485.0000000000029,"velocity":0.7637795275590551,"duration":0.12109375},{"name":"G5","midi":79,"time":485.0000000000029,"velocity":0.7637795275590551,"duration":0.49609375},{"name":"E3","midi":52,"time":485.1250000000029,"velocity":0.7637795275590551,"duration":0.12109375},{"name":"D3","midi":50,"time":485.2500000000029,"velocity":0.7637795275590551,"duration":0.12109375},{"name":"C#3","midi":49,"time":485.3750000000029,"velocity":0.7637795275590551,"duration":0.12109375},{"name":"D5","midi":74,"time":485.5000000000029,"velocity":0.7637795275590551,"duration":0.22916666666668561},{"name":"D3","midi":50,"time":485.5000000000029,"velocity":0.7637795275590551,"duration":0.12109375},{"name":"F#5","midi":78,"time":485.5000000000029,"velocity":0.7637795275590551,"duration":0.22916666666668561},{"name":"F#3","midi":54,"time":485.6250000000029,"velocity":0.7637795275590551,"duration":0.12109375},{"name":"F#5","midi":78,"time":485.7500000000029,"velocity":0.7637795275590551,"duration":0.37109375},{"name":"B2","midi":47,"time":485.7500000000029,"velocity":0.7637795275590551,"duration":0.12109375},{"name":"A5","midi":81,"time":485.7500000000029,"velocity":0.7637795275590551,"duration":0.24609375},{"name":"D3","midi":50,"time":485.8750000000029,"velocity":0.7637795275590551,"duration":0.12109375},{"name":"G2","midi":43,"time":486.0000000000029,"velocity":0.7637795275590551,"duration":0.24609375},{"name":"B5","midi":83,"time":486.0000000000029,"velocity":0.7637795275590551,"duration":0.37109375},{"name":"D5","midi":74,"time":486.1250000000029,"velocity":0.7637795275590551,"duration":0.12109375},{"name":"E5","midi":76,"time":486.2500000000029,"velocity":0.7637795275590551,"duration":0.24609375},{"name":"G3","midi":55,"time":486.2500000000029,"velocity":0.7637795275590551,"duration":0.24739583333331439},{"name":"G5","midi":79,"time":486.3750000000029,"velocity":0.7637795275590551,"duration":0.12109375},{"name":"G4","midi":67,"time":486.5000000000029,"velocity":0.7637795275590551,"duration":0.37109375},{"name":"E5","midi":76,"time":486.5000000000029,"velocity":0.7637795275590551,"duration":0.12109375},{"name":"C#5","midi":73,"time":486.6250000000029,"velocity":0.7637795275590551,"duration":0.12109375},{"name":"A5","midi":81,"time":486.7500000000029,"velocity":0.7637795275590551,"duration":0.18229166666668561},{"name":"E4","midi":64,"time":486.8750000000029,"velocity":0.7637795275590551,"duration":0.12109375},{"name":"F#4","midi":66,"time":487.0000000000029,"velocity":0.7637795275590551,"duration":0.12109375},{"name":"D5","midi":74,"time":487.0000000000029,"velocity":0.7637795275590551,"duration":0.18229166666668561},{"name":"A4","midi":69,"time":487.1250000000029,"velocity":0.7637795275590551,"duration":0.12109375},{"name":"D4","midi":62,"time":487.2500000000029,"velocity":0.7637795275590551,"duration":0.12109375},{"name":"F#3","midi":54,"time":487.2500000000029,"velocity":0.7637795275590551,"duration":0.37109375},{"name":"F#4","midi":66,"time":487.3750000000029,"velocity":0.7637795275590551,"duration":0.12109375},{"name":"B4","midi":71,"time":487.5000000000029,"velocity":0.7637795275590551,"duration":0.24609375},{"name":"G5","midi":79,"time":487.5000000000029,"velocity":0.7637795275590551,"duration":0.37109375},{"name":"D3","midi":50,"time":487.6250000000029,"velocity":0.7637795275590551,"duration":0.12109375},{"name":"C#5","midi":73,"time":487.7500000000029,"velocity":0.7637795275590551,"duration":0.24739583333331439},{"name":"E3","midi":52,"time":487.7500000000029,"velocity":0.7637795275590551,"duration":0.12109375},{"name":"G3","midi":55,"time":487.8750000000029,"velocity":0.7637795275590551,"duration":0.12109375},{"name":"E5","midi":76,"time":487.8750000000029,"velocity":0.7637795275590551,"duration":0.12109375},{"name":"A2","midi":45,"time":488.0000000000029,"velocity":0.7637795275590551,"duration":0.12109375},{"name":"C#5","midi":73,"time":488.0000000000029,"velocity":0.7637795275590551,"duration":0.12109375},{"name":"C#3","midi":49,"time":488.1250000000029,"velocity":0.7637795275590551,"duration":0.12109375},{"name":"A4","midi":69,"time":488.1250000000029,"velocity":0.7637795275590551,"duration":0.12109375},{"name":"D3","midi":50,"time":488.2500000000029,"velocity":0.7637795275590551,"duration":0.12109375},{"name":"F#5","midi":78,"time":488.2500000000029,"velocity":0.7637795275590551,"duration":0.24609375},{"name":"E3","midi":52,"time":488.3750000000029,"velocity":0.7637795275590551,"duration":0.12109375},{"name":"D5","midi":74,"time":488.5000000000029,"velocity":0.7637795275590551,"duration":0.24609375},{"name":"A4","midi":69,"time":488.5000000000029,"velocity":0.7637795275590551,"duration":0.24609375},{"name":"F#3","midi":54,"time":488.5000000000029,"velocity":0.7637795275590551,"duration":0.12109375},{"name":"A3","midi":57,"time":488.6250000000029,"velocity":0.7637795275590551,"duration":0.12109375},{"name":"A4","midi":69,"time":488.7500000000029,"velocity":0.7637795275590551,"duration":0.37109375},{"name":"D3","midi":50,"time":488.7500000000029,"velocity":0.7637795275590551,"duration":0.12109375},{"name":"C5","midi":72,"time":488.7500000000029,"velocity":0.7637795275590551,"duration":0.24609375},{"name":"F#3","midi":54,"time":488.8750000000029,"velocity":0.7637795275590551,"duration":0.12109375},{"name":"G3","midi":55,"time":489.0000000000029,"velocity":0.7637795275590551,"duration":0.12109375},{"name":"B4","midi":71,"time":489.0000000000029,"velocity":0.7637795275590551,"duration":0.24609375},{"name":"G4","midi":67,"time":489.1250000000029,"velocity":0.7637795275590551,"duration":0.37109375},{"name":"E3","midi":52,"time":489.1250000000029,"velocity":0.7637795275590551,"duration":0.12109375},{"name":"C#3","midi":49,"time":489.2500000000029,"velocity":0.7637795275590551,"duration":0.12109375},{"name":"E5","midi":76,"time":489.2500000000029,"velocity":0.7637795275590551,"duration":0.24609375},{"name":"E3","midi":52,"time":489.3750000000029,"velocity":0.7637795275590551,"duration":0.12109375},{"name":"E4","midi":64,"time":489.5000000000029,"velocity":0.7637795275590551,"duration":0.49609375},{"name":"A2","midi":45,"time":489.5000000000029,"velocity":0.7637795275590551,"duration":0.12109375},{"name":"G4","midi":67,"time":489.5000000000029,"velocity":0.7637795275590551,"duration":0.49609375},{"name":"C#3","midi":49,"time":489.6250000000029,"velocity":0.7637795275590551,"duration":0.12109375},{"name":"D2","midi":38,"time":489.7500000000029,"velocity":0.7637795275590551,"duration":0.24609375},{"name":"D3","midi":50,"time":489.9973958333362,"velocity":0.7637795275590551,"duration":0.24609375000005684},{"name":"F#4","midi":66,"time":490.0000000000029,"velocity":0.7637795275590551,"duration":0.22135416666668561},{"name":"D4","midi":62,"time":490.0000000000029,"velocity":0.7637795275590551,"duration":0.22135416666668561},{"name":"A3","midi":57,"time":490.26562500000296,"velocity":0.7637795275590551,"duration":0.234375},{"name":"D3","midi":50,"time":490.51432291666964,"velocity":0.7637795275590551,"duration":0.18229166666668561},{"name":"G3","midi":55,"time":490.7630208333363,"velocity":0.7637795275590551,"duration":0.18229166666668561},{"name":"G3","midi":55,"time":491.375000000003,"velocity":0.7637795275590551,"duration":0.12109375},{"name":"F#3","midi":54,"time":491.500000000003,"velocity":0.7637795275590551,"duration":0.12109375},{"name":"E3","midi":52,"time":491.625000000003,"velocity":0.7637795275590551,"duration":0.12109375},{"name":"F#3","midi":54,"time":491.750000000003,"velocity":0.7637795275590551,"duration":0.12109375},{"name":"D3","midi":50,"time":491.875000000003,"velocity":0.7637795275590551,"duration":0.12109375},{"name":"B2","midi":47,"time":492.000000000003,"velocity":0.7637795275590551,"duration":0.12109375},{"name":"C#3","midi":49,"time":492.125000000003,"velocity":0.7637795275590551,"duration":0.12109375},{"name":"D3","midi":50,"time":492.250000000003,"velocity":0.7637795275590551,"duration":0.07942708333331439},{"name":"C#3","midi":49,"time":492.3333333333363,"velocity":0.7637795275590551,"duration":0.07942708333331439},{"name":"D3","midi":50,"time":492.41666666666964,"velocity":0.7637795275590551,"duration":0.07942708333331439},{"name":"C#3","midi":49,"time":492.50000000000296,"velocity":0.7637795275590551,"duration":0.07942708333331439},{"name":"B2","midi":47,"time":492.58333333333627,"velocity":0.7637795275590551,"duration":0.07942708333331439},{"name":"C#3","midi":49,"time":492.6666666666696,"velocity":0.7637795275590551,"duration":0.07942708333331439},{"name":"D3","midi":50,"time":492.7500000000029,"velocity":0.7637795275590551,"duration":0.12109375},{"name":"C#3","midi":49,"time":492.8750000000029,"velocity":0.7637795275590551,"duration":0.12109375},{"name":"D3","midi":50,"time":493.0000000000029,"velocity":0.7637795275590551,"duration":0.12109375},{"name":"E3","midi":52,"time":493.1250000000029,"velocity":0.7637795275590551,"duration":0.12109375},{"name":"D4","midi":62,"time":493.2500000000029,"velocity":0.7637795275590551,"duration":0.24609375},{"name":"F#3","midi":54,"time":493.2500000000029,"velocity":0.7637795275590551,"duration":0.12109375},{"name":"D3","midi":50,"time":493.3750000000029,"velocity":0.7637795275590551,"duration":0.12109375},{"name":"G3","midi":55,"time":493.5000000000029,"velocity":0.7637795275590551,"duration":0.18229166666668561},{"name":"E3","midi":52,"time":493.5000000000029,"velocity":0.7637795275590551,"duration":0.12109375},{"name":"D3","midi":50,"time":493.6250000000029,"velocity":0.7637795275590551,"duration":0.12109375},{"name":"C4","midi":60,"time":493.7500000000029,"velocity":0.7637795275590551,"duration":0.18229166666668561},{"name":"E3","midi":52,"time":493.7500000000029,"velocity":0.7637795275590551,"duration":0.12109375},{"name":"F#3","midi":54,"time":493.8750000000029,"velocity":0.7637795275590551,"duration":0.12109375},{"name":"G3","midi":55,"time":494.0000000000029,"velocity":0.7637795275590551,"duration":0.12109375},{"name":"E3","midi":52,"time":494.1250000000029,"velocity":0.7637795275590551,"duration":0.12109375},{"name":"F#3","midi":54,"time":494.2500000000029,"velocity":0.7637795275590551,"duration":0.24609375},{"name":"C4","midi":60,"time":494.3750000000029,"velocity":0.7637795275590551,"duration":0.12109375},{"name":"B3","midi":59,"time":494.5000000000029,"velocity":0.7637795275590551,"duration":0.12109375},{"name":"D3","midi":50,"time":494.5000000000029,"velocity":0.7637795275590551,"duration":0.24609375},{"name":"A3","midi":57,"time":494.6250000000029,"velocity":0.7637795275590551,"duration":0.12109375},{"name":"B3","midi":59,"time":494.7500000000029,"velocity":0.7637795275590551,"duration":0.12109375},{"name":"G3","midi":55,"time":494.7500000000029,"velocity":0.7637795275590551,"duration":0.12369791666668561},{"name":"G3","midi":55,"time":494.8750000000029,"velocity":0.7637795275590551,"duration":0.12109375},{"name":"E3","midi":52,"time":495.0000000000029,"velocity":0.7637795275590551,"duration":0.12109375},{"name":"F#3","midi":54,"time":495.1250000000029,"velocity":0.7637795275590551,"duration":0.12109375},{"name":"D3","midi":50,"time":495.1250000000029,"velocity":0.7637795275590551,"duration":0.12109375},{"name":"G3","midi":55,"time":495.2500000000029,"velocity":0.7637795275590551,"duration":0.05859375},{"name":"C3","midi":48,"time":495.2500000000029,"velocity":0.7637795275590551,"duration":0.12109375},{"name":"F#3","midi":54,"time":495.3125000000029,"velocity":0.7637795275590551,"duration":0.05859375},{"name":"G3","midi":55,"time":495.3750000000029,"velocity":0.7637795275590551,"duration":0.05859375},{"name":"B2","midi":47,"time":495.3750000000029,"velocity":0.7637795275590551,"duration":0.12109375},{"name":"F#3","midi":54,"time":495.4375000000029,"velocity":0.7637795275590551,"duration":0.05859375},{"name":"G3","midi":55,"time":495.5000000000029,"velocity":0.7637795275590551,"duration":0.05859375},{"name":"C3","midi":48,"time":495.5000000000029,"velocity":0.7637795275590551,"duration":0.12109375},{"name":"F#3","midi":54,"time":495.5625000000029,"velocity":0.7637795275590551,"duration":0.05859375},{"name":"E3","midi":52,"time":495.6250000000029,"velocity":0.7637795275590551,"duration":0.05859375},{"name":"A2","midi":45,"time":495.6250000000029,"velocity":0.7637795275590551,"duration":0.12109375},{"name":"F#3","midi":54,"time":495.6875000000029,"velocity":0.7637795275590551,"duration":0.05859375},{"name":"G3","midi":55,"time":495.7500000000029,"velocity":0.7637795275590551,"duration":0.20833333333331439},{"name":"B2","midi":47,"time":495.7500000000029,"velocity":0.7637795275590551,"duration":0.12109375},{"name":"E3","midi":52,"time":495.8750000000029,"velocity":0.7637795275590551,"duration":0.12109375},{"name":"A3","midi":57,"time":496.0000000000029,"velocity":0.7637795275590551,"duration":0.05859375},{"name":"D3","midi":50,"time":496.0000000000029,"velocity":0.7637795275590551,"duration":0.12109375},{"name":"G#3","midi":56,"time":496.0625000000029,"velocity":0.7637795275590551,"duration":0.05859375},{"name":"A3","midi":57,"time":496.1250000000029,"velocity":0.7637795275590551,"duration":0.05859375},{"name":"C#3","midi":49,"time":496.1250000000029,"velocity":0.7637795275590551,"duration":0.12109375},{"name":"G#3","midi":56,"time":496.1875000000029,"velocity":0.7637795275590551,"duration":0.05859375},{"name":"A3","midi":57,"time":496.2500000000029,"velocity":0.7637795275590551,"duration":0.05859375},{"name":"D3","midi":50,"time":496.2500000000029,"velocity":0.7637795275590551,"duration":0.12109375},{"name":"G#3","midi":56,"time":496.3125000000029,"velocity":0.7637795275590551,"duration":0.05859375},{"name":"F#3","midi":54,"time":496.3750000000029,"velocity":0.7637795275590551,"duration":0.05859375},{"name":"B2","midi":47,"time":496.3750000000029,"velocity":0.7637795275590551,"duration":0.12109375},{"name":"G#3","midi":56,"time":496.4375000000029,"velocity":0.7637795275590551,"duration":0.05859375},{"name":"A3","midi":57,"time":496.5000000000029,"velocity":0.7637795275590551,"duration":0.12109375},{"name":"C#3","midi":49,"time":496.5000000000029,"velocity":0.7637795275590551,"duration":0.20833333333331439},{"name":"B3","midi":59,"time":496.6250000000029,"velocity":0.7637795275590551,"duration":0.12109375},{"name":"A3","midi":57,"time":496.7500000000029,"velocity":0.7637795275590551,"duration":0.12109375},{"name":"E3","midi":52,"time":496.7500000000029,"velocity":0.7637795275590551,"duration":0.07942708333331439},{"name":"D#3","midi":51,"time":496.8333333333362,"velocity":0.7637795275590551,"duration":0.07942708333337123},{"name":"G3","midi":55,"time":496.8750000000029,"velocity":0.7637795275590551,"duration":0.12109375},{"name":"E3","midi":52,"time":496.9166666666696,"velocity":0.7637795275590551,"duration":0.07942708333331439},{"name":"A3","midi":57,"time":497.0000000000029,"velocity":0.7637795275590551,"duration":0.12109375},{"name":"D#3","midi":51,"time":497.0000000000029,"velocity":0.7637795275590551,"duration":0.07942708333331439},{"name":"C#3","midi":49,"time":497.0833333333362,"velocity":0.7637795275590551,"duration":0.07942708333337123},{"name":"F#3","midi":54,"time":497.1250000000029,"velocity":0.7637795275590551,"duration":0.12109375},{"name":"D#3","midi":51,"time":497.1666666666696,"velocity":0.7637795275590551,"duration":0.07942708333331439},{"name":"G3","midi":55,"time":497.2500000000029,"velocity":0.7637795275590551,"duration":0.09765625},{"name":"E3","midi":52,"time":497.2500000000029,"velocity":0.7637795275590551,"duration":0.12109375},{"name":"B3","midi":59,"time":497.3750000000029,"velocity":0.7637795275590551,"duration":0.12109375},{"name":"F#3","midi":54,"time":497.3750000000029,"velocity":0.7637795275590551,"duration":0.12109375},{"name":"A3","midi":57,"time":497.5000000000029,"velocity":0.7637795275590551,"duration":0.12109375},{"name":"G3","midi":55,"time":497.5000000000029,"velocity":0.7637795275590551,"duration":0.07942708333331439},{"name":"F#3","midi":54,"time":497.5833333333362,"velocity":0.7637795275590551,"duration":0.07942708333337123},{"name":"B3","midi":59,"time":497.6250000000029,"velocity":0.7637795275590551,"duration":0.12109375},{"name":"G3","midi":55,"time":497.6666666666696,"velocity":0.7637795275590551,"duration":0.07942708333331439},{"name":"C4","midi":60,"time":497.7500000000029,"velocity":0.7637795275590551,"duration":0.12109375},{"name":"F#3","midi":54,"time":497.7500000000029,"velocity":0.7637795275590551,"duration":0.07942708333331439},{"name":"A4","midi":69,"time":497.7500000000029,"velocity":0.7637795275590551,"duration":0.24609375},{"name":"E3","midi":52,"time":497.8333333333362,"velocity":0.7637795275590551,"duration":0.07942708333337123},{"name":"A3","midi":57,"time":497.8750000000029,"velocity":0.7637795275590551,"duration":0.12109375},{"name":"F#3","midi":54,"time":497.9166666666696,"velocity":0.7637795275590551,"duration":0.07942708333331439},{"name":"B3","midi":59,"time":498.0000000000029,"velocity":0.7637795275590551,"duration":0.12109375},{"name":"G3","midi":55,"time":498.0000000000029,"velocity":0.7637795275590551,"duration":0.24609375},{"name":"D4","midi":62,"time":498.0000000000029,"velocity":0.7637795275590551,"duration":0.18229166666668561},{"name":"A3","midi":57,"time":498.1250000000029,"velocity":0.7637795275590551,"duration":0.12109375},{"name":"B3","midi":59,"time":498.2500000000029,"velocity":0.7637795275590551,"duration":0.12109375},{"name":"E3","midi":52,"time":498.2500000000029,"velocity":0.7637795275590551,"duration":0.24739583333331439},{"name":"G4","midi":67,"time":498.2500000000029,"velocity":0.7637795275590551,"duration":0.18229166666668561},{"name":"C#4","midi":61,"time":498.3750000000029,"velocity":0.7637795275590551,"duration":0.12109375},{"name":"D4","midi":62,"time":498.5000000000029,"velocity":0.7637795275590551,"duration":0.12109375},{"name":"B3","midi":59,"time":498.6250000000029,"velocity":0.7637795275590551,"duration":0.12109375},{"name":"C#4","midi":61,"time":498.7500000000029,"velocity":0.7637795275590551,"duration":0.24609375},{"name":"A3","midi":57,"time":498.7500000000029,"velocity":0.7637795275590551,"duration":0.24609375},{"name":"G4","midi":67,"time":498.8750000000029,"velocity":0.7637795275590551,"duration":0.12109375},{"name":"A3","midi":57,"time":499.0000000000029,"velocity":0.7637795275590551,"duration":0.24609375},{"name":"D3","midi":50,"time":499.0000000000029,"velocity":0.7637795275590551,"duration":0.24739583333331439},{"name":"F#4","midi":66,"time":499.0000000000029,"velocity":0.7637795275590551,"duration":0.12109375},{"name":"E4","midi":64,"time":499.1250000000029,"velocity":0.7637795275590551,"duration":0.12109375},{"name":"D4","midi":62,"time":499.2500000000029,"velocity":0.7637795275590551,"duration":0.12109375},{"name":"F#4","midi":66,"time":499.2500000000029,"velocity":0.7637795275590551,"duration":0.12109375},{"name":"D4","midi":62,"time":499.3750000000029,"velocity":0.7637795275590551,"duration":0.12109375},{"name":"G2","midi":43,"time":499.5000000000029,"velocity":0.7637795275590551,"duration":0.24609375},{"name":"B3","midi":59,"time":499.5000000000029,"velocity":0.7637795275590551,"duration":0.19140625},{"name":"A3","midi":57,"time":499.6250000000029,"velocity":0.7637795275590551,"duration":0.12109375},{"name":"C#4","midi":61,"time":499.6953125000029,"velocity":0.7637795275590551,"duration":0.05078125},{"name":"G3","midi":55,"time":499.7500000000029,"velocity":0.7637795275590551,"duration":0.12109374999994316},{"name":"A2","midi":45,"time":499.7500000000029,"velocity":0.7637795275590551,"duration":0.24739583333325754},{"name":"D4","midi":62,"time":499.7500000000029,"velocity":0.7637795275590551,"duration":0.048177083333314386},{"name":"C#4","midi":61,"time":499.8020833333362,"velocity":0.7637795275590551,"duration":0.048177083333314386},{"name":"D4","midi":62,"time":499.8541666666695,"velocity":0.7637795275590551,"duration":0.048177083333314386},{"name":"F#3","midi":54,"time":499.87500000000284,"velocity":0.7637795275590551,"duration":0.12109375},{"name":"C#4","midi":61,"time":499.90625000000284,"velocity":0.7637795275590551,"duration":0.048177083333314386},{"name":"D4","midi":62,"time":499.95833333333616,"velocity":0.7637795275590551,"duration":0.037760416666685614},{"name":"G3","midi":55,"time":500.00000000000284,"velocity":0.7637795275590551,"duration":0.12109374999994316},{"name":"C#4","midi":61,"time":500.00000000000284,"velocity":0.7637795275590551,"duration":0.048177083333314386},{"name":"D4","midi":62,"time":500.05208333333616,"velocity":0.7637795275590551,"duration":0.048177083333314386},{"name":"C#4","midi":61,"time":500.10416666666947,"velocity":0.7637795275590551,"duration":0.048177083333314386},{"name":"E3","midi":52,"time":500.1250000000028,"velocity":0.7637795275590551,"duration":0.12109375},{"name":"B3","midi":59,"time":500.1562500000028,"velocity":0.7637795275590551,"duration":0.048177083333314386},{"name":"C#4","midi":61,"time":500.2083333333361,"velocity":0.7637795275590551,"duration":0.037760416666685614},{"name":"F#3","midi":54,"time":500.2500000000028,"velocity":0.7637795275590551,"duration":0.12109375},{"name":"D3","midi":50,"time":500.2500000000028,"velocity":0.7637795275590551,"duration":0.24609375},{"name":"D4","midi":62,"time":500.2500000000028,"velocity":0.7637795275590551,"duration":0.12109375},{"name":"G#3","midi":56,"time":500.3750000000028,"velocity":0.7637795275590551,"duration":0.12109375},{"name":"E4","midi":64,"time":500.3750000000028,"velocity":0.7637795275590551,"duration":0.12109375},{"name":"A3","midi":57,"time":500.5000000000028,"velocity":0.7637795275590551,"duration":0.05859375},{"name":"B2","midi":47,"time":500.5000000000028,"velocity":0.7637795275590551,"duration":0.24739583333331439},{"name":"D4","midi":62,"time":500.5000000000028,"velocity":0.7637795275590551,"duration":0.12109375},{"name":"G#3","midi":56,"time":500.5625000000028,"velocity":0.7637795275590551,"duration":0.05859375},{"name":"A3","midi":57,"time":500.6250000000028,"velocity":0.7637795275590551,"duration":0.05859375},{"name":"C#4","midi":61,"time":500.6250000000028,"velocity":0.7637795275590551,"duration":0.12109375},{"name":"G#3","midi":56,"time":500.6875000000028,"velocity":0.7637795275590551,"duration":0.05859375},{"name":"A3","midi":57,"time":500.7500000000028,"velocity":0.7637795275590551,"duration":0.05859375},{"name":"D4","midi":62,"time":500.7500000000028,"velocity":0.7637795275590551,"duration":0.12109375},{"name":"G#3","midi":56,"time":500.8125000000028,"velocity":0.7637795275590551,"duration":0.05859375},{"name":"F#3","midi":54,"time":500.8750000000028,"velocity":0.7637795275590551,"duration":0.05859375},{"name":"B3","midi":59,"time":500.8750000000028,"velocity":0.7637795275590551,"duration":0.12109375},{"name":"G#3","midi":56,"time":500.9375000000028,"velocity":0.7637795275590551,"duration":0.05859375},{"name":"A3","midi":57,"time":501.0000000000028,"velocity":0.7637795275590551,"duration":0.24609375},{"name":"C#4","midi":61,"time":501.0000000000028,"velocity":0.7637795275590551,"duration":0.19140625},{"name":"B2","midi":47,"time":501.1250000000028,"velocity":0.7637795275590551,"duration":0.12109375},{"name":"D#4","midi":63,"time":501.1953125000028,"velocity":0.7637795275590551,"duration":0.05078125},{"name":"F#3","midi":54,"time":501.2500000000028,"velocity":0.7637795275590551,"duration":0.4960937499998863},{"name":"A2","midi":45,"time":501.2500000000028,"velocity":0.7637795275590551,"duration":0.12109374999994316},{"name":"E4","midi":64,"time":501.2500000000028,"velocity":0.7637795275590551,"duration":0.048177083333314386},{"name":"D#4","midi":63,"time":501.3020833333361,"velocity":0.7637795275590551,"duration":0.048177083333314386},{"name":"E4","midi":64,"time":501.3541666666694,"velocity":0.7637795275590551,"duration":0.048177083333314386},{"name":"G2","midi":43,"time":501.37500000000273,"velocity":0.7637795275590551,"duration":0.12109375},{"name":"D#4","midi":63,"time":501.40625000000273,"velocity":0.7637795275590551,"duration":0.048177083333314386},{"name":"E4","midi":64,"time":501.45833333333604,"velocity":0.7637795275590551,"duration":0.037760416666685614},{"name":"A2","midi":45,"time":501.50000000000273,"velocity":0.7637795275590551,"duration":0.12109374999994316},{"name":"D#4","midi":63,"time":501.50000000000273,"velocity":0.7637795275590551,"duration":0.048177083333314386},{"name":"E4","midi":64,"time":501.55208333333604,"velocity":0.7637795275590551,"duration":0.048177083333314386},{"name":"D#4","midi":63,"time":501.60416666666936,"velocity":0.7637795275590551,"duration":0.048177083333314386},{"name":"F#2","midi":42,"time":501.6250000000027,"velocity":0.7637795275590551,"duration":0.12109375},{"name":"C#4","midi":61,"time":501.6562500000027,"velocity":0.7637795275590551,"duration":0.048177083333314386},{"name":"D#4","midi":63,"time":501.708333333336,"velocity":0.7637795275590551,"duration":0.037760416666685614},{"name":"E3","midi":52,"time":501.7500000000027,"velocity":0.7637795275590551,"duration":0.24739583333331439},{"name":"G2","midi":43,"time":501.7500000000027,"velocity":0.7637795275590551,"duration":0.24609375},{"name":"E4","midi":64,"time":501.7500000000027,"velocity":0.7637795275590551,"duration":0.12109375},{"name":"B4","midi":71,"time":501.8750000000027,"velocity":0.7637795275590551,"duration":0.12109375},{"name":"A2","midi":45,"time":502.0000000000027,"velocity":0.7637795275590551,"duration":0.24609375},{"name":"A4","midi":69,"time":502.0000000000027,"velocity":0.7637795275590551,"duration":0.12109375},{"name":"G4","midi":67,"time":502.1250000000027,"velocity":0.7637795275590551,"duration":0.12109375},{"name":"B2","midi":47,"time":502.2500000000027,"velocity":0.7637795275590551,"duration":0.24609375},{"name":"A4","midi":69,"time":502.2500000000027,"velocity":0.7637795275590551,"duration":0.12109375},{"name":"F#4","midi":66,"time":502.3750000000027,"velocity":0.7637795275590551,"duration":0.12109375},{"name":"E2","midi":40,"time":502.5000000000027,"velocity":0.7637795275590551,"duration":0.4947916666665719},{"name":"G4","midi":67,"time":502.5000000000027,"velocity":0.7637795275590551,"duration":0.12109375},{"name":"E4","midi":64,"time":502.6250000000027,"velocity":0.7637795275590551,"duration":0.12109375},{"name":"D4","midi":62,"time":502.7500000000027,"velocity":0.7637795275590551,"duration":0.12109374999994316},{"name":"A4","midi":69,"time":502.7500000000027,"velocity":0.7637795275590551,"duration":0.048177083333314386},{"name":"G#4","midi":68,"time":502.802083333336,"velocity":0.7637795275590551,"duration":0.048177083333314386},{"name":"A4","midi":69,"time":502.8541666666693,"velocity":0.7637795275590551,"duration":0.048177083333314386},{"name":"C4","midi":60,"time":502.8750000000026,"velocity":0.7637795275590551,"duration":0.12109374999994316},{"name":"G#4","midi":68,"time":502.9062500000026,"velocity":0.7637795275590551,"duration":0.048177083333314386},{"name":"A4","midi":69,"time":502.95833333333593,"velocity":0.7637795275590551,"duration":0.03776041666662877},{"name":"D4","midi":62,"time":503.00000000000256,"velocity":0.7637795275590551,"duration":0.12109374999994316},{"name":"G#4","midi":68,"time":503.00000000000256,"velocity":0.7637795275590551,"duration":0.048177083333314386},{"name":"A4","midi":69,"time":503.0520833333359,"velocity":0.7637795275590551,"duration":0.048177083333314386},{"name":"G#4","midi":68,"time":503.1041666666692,"velocity":0.7637795275590551,"duration":0.048177083333314386},{"name":"B3","midi":59,"time":503.1250000000025,"velocity":0.7637795275590551,"duration":0.12109375},{"name":"F#4","midi":66,"time":503.1562500000025,"velocity":0.7637795275590551,"duration":0.048177083333314386},{"name":"G#4","midi":68,"time":503.2083333333358,"velocity":0.7637795275590551,"duration":0.037760416666685614},{"name":"C4","midi":60,"time":503.2500000000025,"velocity":0.7637795275590551,"duration":0.24609375},{"name":"A4","midi":69,"time":503.2500000000025,"velocity":0.7637795275590551,"duration":0.12109375},{"name":"E5","midi":76,"time":503.3750000000025,"velocity":0.7637795275590551,"duration":0.12109375},{"name":"D4","midi":62,"time":503.5000000000025,"velocity":0.7637795275590551,"duration":0.24609375},{"name":"D5","midi":74,"time":503.5000000000025,"velocity":0.7637795275590551,"duration":0.12109375},{"name":"C5","midi":72,"time":503.6250000000025,"velocity":0.7637795275590551,"duration":0.12109375},{"name":"E4","midi":64,"time":503.7500000000025,"velocity":0.7637795275590551,"duration":0.24609375},{"name":"D5","midi":74,"time":503.7500000000025,"velocity":0.7637795275590551,"duration":0.12109375},{"name":"B4","midi":71,"time":503.8750000000025,"velocity":0.7637795275590551,"duration":0.12109375},{"name":"A3","midi":57,"time":504.0000000000025,"velocity":0.7637795275590551,"duration":0.18229166666668561},{"name":"C5","midi":72,"time":504.0000000000025,"velocity":0.7637795275590551,"duration":0.12109375},{"name":"A5","midi":81,"time":504.1250000000025,"velocity":0.7637795275590551,"duration":0.12109375},{"name":"D4","midi":62,"time":504.2500000000025,"velocity":0.7637795275590551,"duration":0.18229166666668561},{"name":"G5","midi":79,"time":504.2500000000025,"velocity":0.7637795275590551,"duration":0.12109375},{"name":"F5","midi":77,"time":504.3750000000025,"velocity":0.7637795275590551,"duration":0.12109375},{"name":"G5","midi":79,"time":504.5000000000025,"velocity":0.7637795275590551,"duration":0.12109375},{"name":"E5","midi":76,"time":504.6250000000025,"velocity":0.7637795275590551,"duration":0.12109375},{"name":"F5","midi":77,"time":504.7500000000025,"velocity":0.7637795275590551,"duration":0.24609375},{"name":"D4","midi":62,"time":504.8750000000025,"velocity":0.7637795275590551,"duration":0.12109375},{"name":"C4","midi":60,"time":505.0000000000025,"velocity":0.7637795275590551,"duration":0.12109375},{"name":"G#4","midi":68,"time":505.0000000000025,"velocity":0.7637795275590551,"duration":0.24609375},{"name":"B3","midi":59,"time":505.1250000000025,"velocity":0.7637795275590551,"duration":0.12109375},{"name":"C4","midi":60,"time":505.2500000000025,"velocity":0.7637795275590551,"duration":0.12109375},{"name":"A4","midi":69,"time":505.2500000000025,"velocity":0.7637795275590551,"duration":0.24739583333331439},{"name":"A3","midi":57,"time":505.3750000000025,"velocity":0.7637795275590551,"duration":0.12109375},{"name":"F#3","midi":54,"time":505.5000000000025,"velocity":0.7637795275590551,"duration":0.12109375},{"name":"G#3","midi":56,"time":505.6250000000025,"velocity":0.7637795275590551,"duration":0.12109375},{"name":"C6","midi":84,"time":505.6250000000025,"velocity":0.7637795275590551,"duration":0.12109375},{"name":"A3","midi":57,"time":505.7500000000025,"velocity":0.7637795275590551,"duration":0.05859375},{"name":"B5","midi":83,"time":505.7500000000025,"velocity":0.7637795275590551,"duration":0.12109375},{"name":"G#3","midi":56,"time":505.8125000000025,"velocity":0.7637795275590551,"duration":0.05859375},{"name":"A3","midi":57,"time":505.8750000000025,"velocity":0.7637795275590551,"duration":0.05859375},{"name":"A5","midi":81,"time":505.8750000000025,"velocity":0.7637795275590551,"duration":0.12109375},{"name":"G#3","midi":56,"time":505.9375000000025,"velocity":0.7637795275590551,"duration":0.05859375},{"name":"A3","midi":57,"time":506.0000000000025,"velocity":0.7637795275590551,"duration":0.05859375},{"name":"B5","midi":83,"time":506.0000000000025,"velocity":0.7637795275590551,"duration":0.12109375},{"name":"G#3","midi":56,"time":506.0625000000025,"velocity":0.7637795275590551,"duration":0.05859375},{"name":"F#3","midi":54,"time":506.1250000000025,"velocity":0.7637795275590551,"duration":0.05859375},{"name":"D5","midi":74,"time":506.1250000000025,"velocity":0.7637795275590551,"duration":0.12109375},{"name":"G#3","midi":56,"time":506.1875000000025,"velocity":0.7637795275590551,"duration":0.05859375},{"name":"A3","midi":57,"time":506.2500000000025,"velocity":0.7637795275590551,"duration":0.24609375},{"name":"C5","midi":72,"time":506.2500000000025,"velocity":0.7637795275590551,"duration":0.12109375},{"name":"B5","midi":83,"time":506.3750000000025,"velocity":0.7637795275590551,"duration":0.12109375},{"name":"C4","midi":60,"time":506.5000000000025,"velocity":0.7637795275590551,"duration":0.24609375},{"name":"A5","midi":81,"time":506.5000000000025,"velocity":0.7637795275590551,"duration":0.12109375},{"name":"G#5","midi":80,"time":506.6250000000025,"velocity":0.7637795275590551,"duration":0.12109375},{"name":"E4","midi":64,"time":506.7500000000025,"velocity":0.7637795275590551,"duration":0.24609375},{"name":"A5","midi":81,"time":506.7500000000025,"velocity":0.7637795275590551,"duration":0.12109375},{"name":"C5","midi":72,"time":506.8750000000025,"velocity":0.7637795275590551,"duration":0.12109375},{"name":"D#4","midi":63,"time":507.0000000000025,"velocity":0.7637795275590551,"duration":0.24609375},{"name":"B4","midi":71,"time":507.0000000000025,"velocity":0.7637795275590551,"duration":0.12109375},{"name":"A5","midi":81,"time":507.1250000000025,"velocity":0.7637795275590551,"duration":0.12109375},{"name":"B4","midi":71,"time":507.2500000000025,"velocity":0.7637795275590551,"duration":0.24609375},{"name":"G5","midi":79,"time":507.2500000000025,"velocity":0.7637795275590551,"duration":0.12109375},{"name":"F#5","midi":78,"time":507.3750000000025,"velocity":0.7637795275590551,"duration":0.12109375},{"name":"E4","midi":64,"time":507.5000000000025,"velocity":0.7637795275590551,"duration":0.24609375},{"name":"G5","midi":79,"time":507.5000000000025,"velocity":0.7637795275590551,"duration":0.12109375},{"name":"B4","midi":71,"time":507.6250000000025,"velocity":0.7637795275590551,"duration":0.12109375},{"name":"A4","midi":69,"time":507.7500000000025,"velocity":0.7637795275590551,"duration":0.12109375},{"name":"C5","midi":72,"time":507.7500000000025,"velocity":0.7637795275590551,"duration":0.12109375},{"name":"B4","midi":71,"time":507.8750000000025,"velocity":0.7637795275590551,"duration":0.12109375},{"name":"G5","midi":79,"time":507.8750000000025,"velocity":0.7637795275590551,"duration":0.12109375},{"name":"A4","midi":69,"time":508.0000000000025,"velocity":0.7637795275590551,"duration":0.12109375},{"name":"F#5","midi":78,"time":508.0000000000025,"velocity":0.7637795275590551,"duration":0.12109375},{"name":"G4","midi":67,"time":508.1250000000025,"velocity":0.7637795275590551,"duration":0.12109375},{"name":"E5","midi":76,"time":508.1250000000025,"velocity":0.7637795275590551,"duration":0.12109375},{"name":"A4","midi":69,"time":508.2500000000025,"velocity":0.7637795275590551,"duration":0.12109375},{"name":"F#5","midi":78,"time":508.2500000000025,"velocity":0.7637795275590551,"duration":0.12109375},{"name":"F#4","midi":66,"time":508.3750000000025,"velocity":0.7637795275590551,"duration":0.12109375},{"name":"A5","midi":81,"time":508.3750000000025,"velocity":0.7637795275590551,"duration":0.12109375},{"name":"B4","midi":71,"time":508.5000000000025,"velocity":0.7637795275590551,"duration":0.12109375},{"name":"D#5","midi":75,"time":508.5000000000025,"velocity":0.7637795275590551,"duration":0.19140625},{"name":"A4","midi":69,"time":508.6250000000025,"velocity":0.7637795275590551,"duration":0.12109375},{"name":"E5","midi":76,"time":508.6953125000025,"velocity":0.7637795275590551,"duration":0.05078125},{"name":"G4","midi":67,"time":508.7500000000025,"velocity":0.7637795275590551,"duration":0.12109374999994316},{"name":"F#5","midi":78,"time":508.7500000000025,"velocity":0.7637795275590551,"duration":0.048177083333314386},{"name":"E5","midi":76,"time":508.8020833333358,"velocity":0.7637795275590551,"duration":0.048177083333314386},{"name":"F#5","midi":78,"time":508.85416666666913,"velocity":0.7637795275590551,"duration":0.048177083333314386},{"name":"F#4","midi":66,"time":508.87500000000244,"velocity":0.7637795275590551,"duration":0.12109375},{"name":"E5","midi":76,"time":508.90625000000244,"velocity":0.7637795275590551,"duration":0.048177083333314386},{"name":"F#5","midi":78,"time":508.95833333333576,"velocity":0.7637795275590551,"duration":0.037760416666685614},{"name":"G4","midi":67,"time":509.00000000000244,"velocity":0.7637795275590551,"duration":0.12109374999994316},{"name":"E5","midi":76,"time":509.00000000000244,"velocity":0.7637795275590551,"duration":0.048177083333314386},{"name":"F#5","midi":78,"time":509.05208333333576,"velocity":0.7637795275590551,"duration":0.048177083333314386},{"name":"E5","midi":76,"time":509.1041666666691,"velocity":0.7637795275590551,"duration":0.048177083333314386},{"name":"E4","midi":64,"time":509.1250000000024,"velocity":0.7637795275590551,"duration":0.12109375},{"name":"D#5","midi":75,"time":509.1562500000024,"velocity":0.7637795275590551,"duration":0.048177083333314386},{"name":"E5","midi":76,"time":509.2083333333357,"velocity":0.7637795275590551,"duration":0.037760416666685614},{"name":"D#4","midi":63,"time":509.2500000000024,"velocity":0.7637795275590551,"duration":0.24609375},{"name":"F#5","midi":78,"time":509.2500000000024,"velocity":0.7637795275590551,"duration":0.12109375},{"name":"E5","midi":76,"time":509.3750000000024,"velocity":0.7637795275590551,"duration":0.12109375},{"name":"F#4","midi":66,"time":509.5000000000024,"velocity":0.7637795275590551,"duration":0.24609375},{"name":"F#5","midi":78,"time":509.5000000000024,"velocity":0.7637795275590551,"duration":0.12109375},{"name":"A5","midi":81,"time":509.6250000000024,"velocity":0.7637795275590551,"duration":0.12109375},{"name":"B4","midi":71,"time":509.7500000000024,"velocity":0.7637795275590551,"duration":0.49609375},{"name":"B3","midi":59,"time":509.7500000000024,"velocity":0.7637795275590551,"duration":0.24609375},{"name":"G5","midi":79,"time":509.7500000000024,"velocity":0.7637795275590551,"duration":0.12109375},{"name":"F#5","midi":78,"time":509.8750000000024,"velocity":0.7637795275590551,"duration":0.12109375},{"name":"C4","midi":60,"time":510.0000000000024,"velocity":0.7637795275590551,"duration":0.37109375},{"name":"E5","midi":76,"time":510.0000000000024,"velocity":0.7637795275590551,"duration":0.18229166666668561},{"name":"A4","midi":69,"time":510.2500000000024,"velocity":0.7637795275590551,"duration":0.24609375},{"name":"A5","midi":81,"time":510.2500000000024,"velocity":0.7637795275590551,"duration":0.18229166666668561},{"name":"A3","midi":57,"time":510.3750000000024,"velocity":0.7637795275590551,"duration":0.12109375},{"name":"C5","midi":72,"time":510.5000000000024,"velocity":0.7637795275590551,"duration":0.24609375},{"name":"F#3","midi":54,"time":510.5000000000024,"velocity":0.7637795275590551,"duration":0.12109375},{"name":"D3","midi":50,"time":510.6250000000024,"velocity":0.7637795275590551,"duration":0.12109375},{"name":"D#4","midi":63,"time":510.7500000000024,"velocity":0.7637795275590551,"duration":0.2994791666666856},{"name":"B3","midi":59,"time":510.7500000000024,"velocity":0.7637795275590551,"duration":0.18229166666668561},{"name":"A5","midi":81,"time":510.8750000000024,"velocity":0.7637795275590551,"duration":0.12109375},{"name":"B3","midi":59,"time":511.0000000000024,"velocity":0.7637795275590551,"duration":0.24869791666668561},{"name":"E3","midi":52,"time":511.0000000000024,"velocity":0.7637795275590551,"duration":0.18229166666668561},{"name":"G5","midi":79,"time":511.0000000000024,"velocity":0.7637795275590551,"duration":0.12109375},{"name":"F#5","midi":78,"time":511.1250000000024,"velocity":0.7637795275590551,"duration":0.12109375},{"name":"E4","midi":64,"time":511.2500000000024,"velocity":0.7637795275590551,"duration":0.24609375},{"name":"G5","midi":79,"time":511.2500000000024,"velocity":0.7637795275590551,"duration":0.12109375},{"name":"E5","midi":76,"time":511.3750000000024,"velocity":0.7637795275590551,"duration":0.12109375},{"name":"E4","midi":64,"time":511.5000000000024,"velocity":0.7637795275590551,"duration":0.24609375},{"name":"A3","midi":57,"time":511.5000000000024,"velocity":0.7637795275590551,"duration":0.37109374999994316},{"name":"C#5","midi":73,"time":511.5000000000024,"velocity":0.7637795275590551,"duration":0.19140625},{"name":"D#5","midi":75,"time":511.6953125000024,"velocity":0.7637795275590551,"duration":0.05078125},{"name":"F#4","midi":66,"time":511.7500000000024,"velocity":0.7637795275590551,"duration":0.49609375},{"name":"E5","midi":76,"time":511.7500000000024,"velocity":0.7637795275590551,"duration":0.048177083333314386},{"name":"D#5","midi":75,"time":511.8020833333357,"velocity":0.7637795275590551,"duration":0.048177083333314386},{"name":"E5","midi":76,"time":511.854166666669,"velocity":0.7637795275590551,"duration":0.048177083333314386},{"name":"F#3","midi":54,"time":511.87500000000233,"velocity":0.7637795275590551,"duration":0.12109375},{"name":"D#5","midi":75,"time":511.90625000000233,"velocity":0.7637795275590551,"duration":0.048177083333314386},{"name":"E5","midi":76,"time":511.95833333333564,"velocity":0.7637795275590551,"duration":0.037760416666685614},{"name":"D#3","midi":51,"time":512.0000000000023,"velocity":0.7637795275590551,"duration":0.12109375000011369},{"name":"D#5","midi":75,"time":512.0000000000023,"velocity":0.7637795275590551,"duration":0.04817708333337123},{"name":"E5","midi":76,"time":512.0520833333356,"velocity":0.7637795275590551,"duration":0.04817708333337123},{"name":"D#5","midi":75,"time":512.104166666669,"velocity":0.7637795275590551,"duration":0.04817708333337123},{"name":"B2","midi":47,"time":512.1250000000024,"velocity":0.7637795275590551,"duration":0.12109375},{"name":"C#5","midi":73,"time":512.1562500000024,"velocity":0.7637795275590551,"duration":0.04817708333337123},{"name":"D#5","midi":75,"time":512.2083333333358,"velocity":0.7637795275590551,"duration":0.03776041666662877},{"name":"B3","midi":59,"time":512.2500000000024,"velocity":0.7637795275590551,"duration":0.24739583333337123},{"name":"G3","midi":55,"time":512.2500000000024,"velocity":0.7637795275590551,"duration":0.12109375},{"name":"E5","midi":76,"time":512.2500000000024,"velocity":0.7637795275590551,"duration":0.12109375},{"name":"F#3","midi":54,"time":512.3750000000024,"velocity":0.7637795275590551,"duration":0.12109375},{"name":"D#5","midi":75,"time":512.3750000000024,"velocity":0.7637795275590551,"duration":0.12109375},{"name":"G3","midi":55,"time":512.5000000000024,"velocity":0.7637795275590551,"duration":0.12109375},{"name":"E5","midi":76,"time":512.5000000000024,"velocity":0.7637795275590551,"duration":0.12109375},{"name":"B3","midi":59,"time":512.6250000000024,"velocity":0.7637795275590551,"duration":0.12109375},{"name":"G5","midi":79,"time":512.6250000000024,"velocity":0.7637795275590551,"duration":0.12109375},{"name":"D#3","midi":51,"time":512.7500000000024,"velocity":0.7637795275590551,"duration":0.12109375},{"name":"F#5","midi":78,"time":512.7500000000024,"velocity":0.7637795275590551,"duration":0.12109375},{"name":"F#3","midi":54,"time":512.8750000000024,"velocity":0.7637795275590551,"duration":0.12109375},{"name":"A5","midi":81,"time":512.8750000000024,"velocity":0.7637795275590551,"duration":0.12109375},{"name":"E3","midi":52,"time":513.0000000000024,"velocity":0.7637795275590551,"duration":0.24609375},{"name":"G5","midi":79,"time":513.0000000000024,"velocity":0.7637795275590551,"duration":0.12109375},{"name":"F#5","midi":78,"time":513.1250000000024,"velocity":0.7637795275590551,"duration":0.12109375},{"name":"B3","midi":59,"time":513.2500000000024,"velocity":0.7637795275590551,"duration":0.21484375},{"name":"G5","midi":79,"time":513.2500000000024,"velocity":0.7637795275590551,"duration":0.12109375},{"name":"B5","midi":83,"time":513.3750000000024,"velocity":0.7637795275590551,"duration":0.12109375},{"name":"C4","midi":60,"time":513.5000000000024,"velocity":0.7637795275590551,"duration":0.21484375},{"name":"E5","midi":76,"time":513.5000000000024,"velocity":0.7637795275590551,"duration":0.12109375},{"name":"G#5","midi":80,"time":513.6250000000024,"velocity":0.7637795275590551,"duration":0.12109375},{"name":"F#3","midi":54,"time":513.7500000000024,"velocity":0.7637795275590551,"duration":0.24609375},{"name":"A5","midi":81,"time":513.7500000000024,"velocity":0.7637795275590551,"duration":0.12109375},{"name":"G#5","midi":80,"time":513.8750000000024,"velocity":0.7637795275590551,"duration":0.12109375},{"name":"C4","midi":60,"time":514.0000000000024,"velocity":0.7637795275590551,"duration":0.21484375},{"name":"A5","midi":81,"time":514.0000000000024,"velocity":0.7637795275590551,"duration":0.12109375},{"name":"C6","midi":84,"time":514.1250000000024,"velocity":0.7637795275590551,"duration":0.12109375},{"name":"D4","midi":62,"time":514.2500000000024,"velocity":0.7637795275590551,"duration":0.21484375},{"name":"F#5","midi":78,"time":514.2500000000024,"velocity":0.7637795275590551,"duration":0.12109375},{"name":"A5","midi":81,"time":514.3750000000024,"velocity":0.7637795275590551,"duration":0.12109375},{"name":"G#3","midi":56,"time":514.5000000000024,"velocity":0.7637795275590551,"duration":0.24609375},{"name":"B5","midi":83,"time":514.5000000000024,"velocity":0.7637795275590551,"duration":0.12109375},{"name":"A5","midi":81,"time":514.6250000000024,"velocity":0.7637795275590551,"duration":0.12109375},{"name":"D4","midi":62,"time":514.7500000000024,"velocity":0.7637795275590551,"duration":0.21484375},{"name":"B5","midi":83,"time":514.7500000000024,"velocity":0.7637795275590551,"duration":0.12109375},{"name":"D6","midi":86,"time":514.8750000000024,"velocity":0.7637795275590551,"duration":0.12109375},{"name":"E4","midi":64,"time":515.0000000000024,"velocity":0.7637795275590551,"duration":0.21484375},{"name":"G#5","midi":80,"time":515.0000000000024,"velocity":0.7637795275590551,"duration":0.12109375},{"name":"B5","midi":83,"time":515.1250000000024,"velocity":0.7637795275590551,"duration":0.12109375},{"name":"A3","midi":57,"time":515.2500000000024,"velocity":0.7637795275590551,"duration":0.24609375},{"name":"C6","midi":84,"time":515.2500000000024,"velocity":0.7637795275590551,"duration":0.12109375},{"name":"B5","midi":83,"time":515.3750000000024,"velocity":0.7637795275590551,"duration":0.12109375},{"name":"B3","midi":59,"time":515.5000000000024,"velocity":0.7637795275590551,"duration":0.21484375},{"name":"A5","midi":81,"time":515.5000000000024,"velocity":0.7637795275590551,"duration":0.12109375},{"name":"G5","midi":79,"time":515.6250000000024,"velocity":0.7637795275590551,"duration":0.12109375},{"name":"C4","midi":60,"time":515.7500000000024,"velocity":0.7637795275590551,"duration":0.49609375},{"name":"A5","midi":81,"time":515.7500000000024,"velocity":0.7637795275590551,"duration":0.12109375},{"name":"E5","midi":76,"time":515.8750000000024,"velocity":0.7637795275590551,"duration":0.12109375},{"name":"A4","midi":69,"time":516.0000000000024,"velocity":0.7637795275590551,"duration":0.18229166666662877},{"name":"F5","midi":77,"time":516.0000000000024,"velocity":0.7637795275590551,"duration":0.37109375},{"name":"D5","midi":74,"time":516.2500000000024,"velocity":0.7637795275590551,"duration":0.18229166666662877},{"name":"B3","midi":59,"time":516.2500000000024,"velocity":0.7637795275590551,"duration":0.24609375},{"name":"D6","midi":86,"time":516.3750000000024,"velocity":0.7637795275590551,"duration":0.12109375},{"name":"A3","midi":57,"time":516.5000000000024,"velocity":0.7637795275590551,"duration":0.24609375},{"name":"B5","midi":83,"time":516.5000000000024,"velocity":0.7637795275590551,"duration":0.12109375},{"name":"G#5","midi":80,"time":516.6250000000024,"velocity":0.7637795275590551,"duration":0.12109375},{"name":"G#3","midi":56,"time":516.7500000000024,"velocity":0.7637795275590551,"duration":0.24609375},{"name":"E5","midi":76,"time":516.7500000000024,"velocity":0.7637795275590551,"duration":0.24609375},{"name":"D5","midi":74,"time":516.8750000000024,"velocity":0.7637795275590551,"duration":0.12109375},{"name":"C5","midi":72,"time":517.0000000000024,"velocity":0.7637795275590551,"duration":0.12109375},{"name":"A3","midi":57,"time":517.0000000000024,"velocity":0.7637795275590551,"duration":0.24739583333337123},{"name":"A5","midi":81,"time":517.0000000000024,"velocity":0.7637795275590551,"duration":0.24739583333337123},{"name":"B4","midi":71,"time":517.1250000000024,"velocity":0.7637795275590551,"duration":0.12109375},{"name":"C5","midi":72,"time":517.2500000000024,"velocity":0.7637795275590551,"duration":0.12109375},{"name":"A4","midi":69,"time":517.3750000000024,"velocity":0.7637795275590551,"duration":0.12109375},{"name":"F#4","midi":66,"time":517.5000000000024,"velocity":0.7637795275590551,"duration":0.12109375},{"name":"D5","midi":74,"time":517.5000000000024,"velocity":0.7637795275590551,"duration":0.37109375},{"name":"G#4","midi":68,"time":517.6250000000024,"velocity":0.7637795275590551,"duration":0.12109375},{"name":"A4","midi":69,"time":517.7500000000024,"velocity":0.7637795275590551,"duration":0.05859375},{"name":"G#4","midi":68,"time":517.8125000000024,"velocity":0.7637795275590551,"duration":0.05859375},{"name":"A4","midi":69,"time":517.8750000000024,"velocity":0.7637795275590551,"duration":0.05859375},{"name":"B5","midi":83,"time":517.8750000000024,"velocity":0.7637795275590551,"duration":0.12109375},{"name":"G#4","midi":68,"time":517.9375000000024,"velocity":0.7637795275590551,"duration":0.05859375},{"name":"A4","midi":69,"time":518.0000000000024,"velocity":0.7637795275590551,"duration":0.05859375},{"name":"G#5","midi":80,"time":518.0000000000024,"velocity":0.7637795275590551,"duration":0.12109375},{"name":"G#4","midi":68,"time":518.0625000000024,"velocity":0.7637795275590551,"duration":0.05859375},{"name":"F#4","midi":66,"time":518.1250000000024,"velocity":0.7637795275590551,"duration":0.05859375},{"name":"E5","midi":76,"time":518.1250000000024,"velocity":0.7637795275590551,"duration":0.12109375},{"name":"G#4","midi":68,"time":518.1875000000024,"velocity":0.7637795275590551,"duration":0.05859375},{"name":"A4","midi":69,"time":518.2500000000024,"velocity":0.7637795275590551,"duration":0.12109375},{"name":"C5","midi":72,"time":518.2500000000024,"velocity":0.7637795275590551,"duration":0.24609375},{"name":"G#4","midi":68,"time":518.3750000000024,"velocity":0.7637795275590551,"duration":0.12109375},{"name":"A4","midi":69,"time":518.5000000000024,"velocity":0.7637795275590551,"duration":0.12109375},{"name":"E5","midi":76,"time":518.5000000000024,"velocity":0.7637795275590551,"duration":0.24609375},{"name":"B4","midi":71,"time":518.6250000000024,"velocity":0.7637795275590551,"duration":0.12109375},{"name":"C5","midi":72,"time":518.7500000000024,"velocity":0.7637795275590551,"duration":0.12109375},{"name":"A5","midi":81,"time":518.7500000000024,"velocity":0.7637795275590551,"duration":0.24609375},{"name":"A4","midi":69,"time":518.8750000000024,"velocity":0.7637795275590551,"duration":0.12109375},{"name":"B4","midi":71,"time":519.0000000000024,"velocity":0.7637795275590551,"duration":0.12109375},{"name":"D5","midi":74,"time":519.0000000000024,"velocity":0.7637795275590551,"duration":0.18229166666662877},{"name":"A4","midi":69,"time":519.1250000000024,"velocity":0.7637795275590551,"duration":0.12109375},{"name":"B4","midi":71,"time":519.2500000000024,"velocity":0.7637795275590551,"duration":0.12109375},{"name":"G5","midi":79,"time":519.2500000000024,"velocity":0.7637795275590551,"duration":0.18229166666662877},{"name":"C#5","midi":73,"time":519.3750000000024,"velocity":0.7637795275590551,"duration":0.12109375},{"name":"D5","midi":74,"time":519.5000000000024,"velocity":0.7637795275590551,"duration":0.12109375},{"name":"B4","midi":71,"time":519.6250000000024,"velocity":0.7637795275590551,"duration":0.12109375},{"name":"C#5","midi":73,"time":519.7500000000024,"velocity":0.7637795275590551,"duration":0.24609375},{"name":"G5","midi":79,"time":519.8750000000024,"velocity":0.7637795275590551,"duration":0.12109375},{"name":"A4","midi":69,"time":520.0000000000024,"velocity":0.7637795275590551,"duration":0.24609375},{"name":"F#5","midi":78,"time":520.0000000000024,"velocity":0.7637795275590551,"duration":0.12109375},{"name":"E5","midi":76,"time":520.1250000000024,"velocity":0.7637795275590551,"duration":0.12109375},{"name":"D5","midi":74,"time":520.2500000000024,"velocity":0.7637795275590551,"duration":0.12109375},{"name":"F#5","midi":78,"time":520.2500000000024,"velocity":0.7637795275590551,"duration":0.12109375},{"name":"D5","midi":74,"time":520.3750000000024,"velocity":0.7637795275590551,"duration":0.12109375},{"name":"B4","midi":71,"time":520.5000000000024,"velocity":0.7637795275590551,"duration":0.19140625},{"name":"A4","midi":69,"time":520.6250000000024,"velocity":0.7637795275590551,"duration":0.12109375},{"name":"C#5","midi":73,"time":520.6953125000024,"velocity":0.7637795275590551,"duration":0.05078125},{"name":"G4","midi":67,"time":520.7500000000024,"velocity":0.7637795275590551,"duration":0.12109375000011369},{"name":"D5","midi":74,"time":520.7500000000024,"velocity":0.7637795275590551,"duration":0.04817708333337123},{"name":"C#5","midi":73,"time":520.8020833333358,"velocity":0.7637795275590551,"duration":0.04817708333337123},{"name":"D5","midi":74,"time":520.8541666666691,"velocity":0.7637795275590551,"duration":0.04817708333337123},{"name":"F#4","midi":66,"time":520.8750000000025,"velocity":0.7637795275590551,"duration":0.12109375},{"name":"C#5","midi":73,"time":520.9062500000025,"velocity":0.7637795275590551,"duration":0.04817708333337123},{"name":"D5","midi":74,"time":520.9583333333359,"velocity":0.7637795275590551,"duration":0.03776041666662877},{"name":"G4","midi":67,"time":521.0000000000025,"velocity":0.7637795275590551,"duration":0.12109375000011369},{"name":"C#5","midi":73,"time":521.0000000000025,"velocity":0.7637795275590551,"duration":0.04817708333337123},{"name":"D5","midi":74,"time":521.0520833333359,"velocity":0.7637795275590551,"duration":0.04817708333337123},{"name":"C#5","midi":73,"time":521.1041666666692,"velocity":0.7637795275590551,"duration":0.04817708333337123},{"name":"E4","midi":64,"time":521.1250000000026,"velocity":0.7637795275590551,"duration":0.12109375},{"name":"B4","midi":71,"time":521.1562500000026,"velocity":0.7637795275590551,"duration":0.04817708333337123},{"name":"C#5","midi":73,"time":521.208333333336,"velocity":0.7637795275590551,"duration":0.03776041666662877},{"name":"F#4","midi":66,"time":521.2500000000026,"velocity":0.7637795275590551,"duration":0.12109375},{"name":"D5","midi":74,"time":521.2500000000026,"velocity":0.7637795275590551,"duration":0.20833333333337123},{"name":"G4","midi":67,"time":521.3750000000026,"velocity":0.7637795275590551,"duration":0.12109375},{"name":"F4","midi":65,"time":521.5000000000026,"velocity":0.7637795275590551,"duration":0.12109375000011369},{"name":"C5","midi":72,"time":521.5000000000026,"velocity":0.7637795275590551,"duration":0.04817708333337123},{"name":"B4","midi":71,"time":521.552083333336,"velocity":0.7637795275590551,"duration":0.04817708333337123},{"name":"C5","midi":72,"time":521.6041666666694,"velocity":0.7637795275590551,"duration":0.04817708333337123},{"name":"E4","midi":64,"time":521.6250000000027,"velocity":0.7637795275590551,"duration":0.12109375},{"name":"B4","midi":71,"time":521.6562500000027,"velocity":0.7637795275590551,"duration":0.04817708333337123},{"name":"C5","midi":72,"time":521.7083333333361,"velocity":0.7637795275590551,"duration":0.03776041666662877},{"name":"F4","midi":65,"time":521.7500000000027,"velocity":0.7637795275590551,"duration":0.12109375000011369},{"name":"B4","midi":71,"time":521.7500000000027,"velocity":0.7637795275590551,"duration":0.04817708333337123},{"name":"C5","midi":72,"time":521.8020833333361,"velocity":0.7637795275590551,"duration":0.04817708333337123},{"name":"B4","midi":71,"time":521.8541666666695,"velocity":0.7637795275590551,"duration":0.04817708333337123},{"name":"D4","midi":62,"time":521.8750000000028,"velocity":0.7637795275590551,"duration":0.12109375},{"name":"A4","midi":69,"time":521.9062500000028,"velocity":0.7637795275590551,"duration":0.04817708333337123},{"name":"B4","midi":71,"time":521.9583333333362,"velocity":0.7637795275590551,"duration":0.03776041666662877},{"name":"E4","midi":64,"time":522.0000000000028,"velocity":0.7637795275590551,"duration":0.12109375},{"name":"C5","midi":72,"time":522.0000000000028,"velocity":0.7637795275590551,"duration":0.12109375},{"name":"F#4","midi":66,"time":522.1250000000028,"velocity":0.7637795275590551,"duration":0.12109375},{"name":"D5","midi":74,"time":522.1250000000028,"velocity":0.7637795275590551,"duration":0.12109375},{"name":"G4","midi":67,"time":522.2500000000028,"velocity":0.7637795275590551,"duration":0.05859375},{"name":"C5","midi":72,"time":522.2500000000028,"velocity":0.7637795275590551,"duration":0.12109375},{"name":"F#4","midi":66,"time":522.3125000000028,"velocity":0.7637795275590551,"duration":0.05859375},{"name":"G4","midi":67,"time":522.3750000000028,"velocity":0.7637795275590551,"duration":0.05859375},{"name":"B4","midi":71,"time":522.3750000000028,"velocity":0.7637795275590551,"duration":0.12109375},{"name":"F#4","midi":66,"time":522.4375000000028,"velocity":0.7637795275590551,"duration":0.05859375},{"name":"G4","midi":67,"time":522.5000000000028,"velocity":0.7637795275590551,"duration":0.05859375},{"name":"C5","midi":72,"time":522.5000000000028,"velocity":0.7637795275590551,"duration":0.12109375},{"name":"F#4","midi":66,"time":522.5625000000028,"velocity":0.7637795275590551,"duration":0.05859375},{"name":"E4","midi":64,"time":522.6250000000028,"velocity":0.7637795275590551,"duration":0.05859375},{"name":"A4","midi":69,"time":522.6250000000028,"velocity":0.7637795275590551,"duration":0.12109375},{"name":"F#4","midi":66,"time":522.6875000000028,"velocity":0.7637795275590551,"duration":0.05859375},{"name":"G4","midi":67,"time":522.7500000000028,"velocity":0.7637795275590551,"duration":0.5729166666666288},{"name":"B4","midi":71,"time":522.7500000000028,"velocity":0.7637795275590551,"duration":0.12109375},{"name":"A4","midi":69,"time":522.8750000000028,"velocity":0.7637795275590551,"duration":0.12109375},{"name":"B4","midi":71,"time":523.0000000000028,"velocity":0.7637795275590551,"duration":0.12109375},{"name":"C5","midi":72,"time":523.1250000000028,"velocity":0.7637795275590551,"duration":0.12109375},{"name":"D5","midi":74,"time":523.2500000000028,"velocity":0.7637795275590551,"duration":0.24609375},{"name":"F#4","midi":66,"time":523.3750000000028,"velocity":0.7637795275590551,"duration":0.24609375},{"name":"E3","midi":52,"time":523.5000000000028,"velocity":0.7637795275590551,"duration":0.37109375},{"name":"G4","midi":67,"time":523.5000000000028,"velocity":0.7637795275590551,"duration":0.24609375},{"name":"E4","midi":64,"time":523.6250000000028,"velocity":0.7637795275590551,"duration":0.37109375},{"name":"C5","midi":72,"time":523.7500000000028,"velocity":0.7637795275590551,"duration":0.24739583333337123},{"name":"C3","midi":48,"time":523.8750000000028,"velocity":0.7637795275590551,"duration":0.12109375},{"name":"A4","midi":69,"time":524.0000000000028,"velocity":0.7637795275590551,"duration":0.24609375},{"name":"A2","midi":45,"time":524.0000000000028,"velocity":0.7637795275590551,"duration":0.12109375},{"name":"F#2","midi":42,"time":524.1250000000028,"velocity":0.7637795275590551,"duration":0.12109375},{"name":"F#4","midi":66,"time":524.2500000000028,"velocity":0.7637795275590551,"duration":0.24609375},{"name":"D3","midi":50,"time":524.2500000000028,"velocity":0.7637795275590551,"duration":0.18229166666662877},{"name":"C5","midi":72,"time":524.3750000000028,"velocity":0.7637795275590551,"duration":0.12109375},{"name":"D4","midi":62,"time":524.5000000000028,"velocity":0.7637795275590551,"duration":0.24609375},{"name":"G2","midi":43,"time":524.5000000000028,"velocity":0.7637795275590551,"duration":0.18229166666662877},{"name":"B4","midi":71,"time":524.5000000000028,"velocity":0.7637795275590551,"duration":0.12109375},{"name":"A4","midi":69,"time":524.6250000000028,"velocity":0.7637795275590551,"duration":0.12109375},{"name":"G3","midi":55,"time":524.7500000000028,"velocity":0.7637795275590551,"duration":0.49609375},{"name":"B4","midi":71,"time":524.7500000000028,"velocity":0.7637795275590551,"duration":0.12109375},{"name":"G4","midi":67,"time":524.8750000000028,"velocity":0.7637795275590551,"duration":0.12109375},{"name":"C3","midi":48,"time":525.0000000000028,"velocity":0.7637795275590551,"duration":0.3710937500001137},{"name":"E4","midi":64,"time":525.0000000000028,"velocity":0.7637795275590551,"duration":0.19140625},{"name":"F#4","midi":66,"time":525.1953125000028,"velocity":0.7637795275590551,"duration":0.05078125},{"name":"A3","midi":57,"time":525.2500000000028,"velocity":0.7637795275590551,"duration":0.4960937500002274},{"name":"G4","midi":67,"time":525.2500000000028,"velocity":0.7637795275590551,"duration":0.04817708333337123},{"name":"F#4","midi":66,"time":525.3020833333362,"velocity":0.7637795275590551,"duration":0.04817708333337123},{"name":"G4","midi":67,"time":525.3541666666696,"velocity":0.7637795275590551,"duration":0.04817708333337123},{"name":"A2","midi":45,"time":525.375000000003,"velocity":0.7637795275590551,"duration":0.12109375},{"name":"F#4","midi":66,"time":525.406250000003,"velocity":0.7637795275590551,"duration":0.04817708333337123},{"name":"G4","midi":67,"time":525.4583333333363,"velocity":0.7637795275590551,"duration":0.03776041666662877},{"name":"F#2","midi":42,"time":525.500000000003,"velocity":0.7637795275590551,"duration":0.12109375000011369},{"name":"F#4","midi":66,"time":525.500000000003,"velocity":0.7637795275590551,"duration":0.04817708333337123},{"name":"G4","midi":67,"time":525.5520833333363,"velocity":0.7637795275590551,"duration":0.04817708333337123},{"name":"F#4","midi":66,"time":525.6041666666697,"velocity":0.7637795275590551,"duration":0.04817708333337123},{"name":"D2","midi":38,"time":525.6250000000031,"velocity":0.7637795275590551,"duration":0.12109375},{"name":"E4","midi":64,"time":525.6562500000031,"velocity":0.7637795275590551,"duration":0.04817708333337123},{"name":"F#4","midi":66,"time":525.7083333333364,"velocity":0.7637795275590551,"duration":0.03776041666662877},{"name":"D3","midi":50,"time":525.7500000000031,"velocity":0.7637795275590551,"duration":0.24739583333337123},{"name":"B2","midi":47,"time":525.7500000000031,"velocity":0.7637795275590551,"duration":0.12109375},{"name":"G4","midi":67,"time":525.7500000000031,"velocity":0.7637795275590551,"duration":0.24609375},{"name":"A2","midi":45,"time":525.8750000000031,"velocity":0.7637795275590551,"duration":0.12109375},{"name":"B2","midi":47,"time":526.0000000000031,"velocity":0.7637795275590551,"duration":0.12109375},{"name":"D5","midi":74,"time":526.0000000000031,"velocity":0.7637795275590551,"duration":0.21484375},{"name":"D3","midi":50,"time":526.1250000000031,"velocity":0.7637795275590551,"duration":0.12109375},{"name":"G2","midi":43,"time":526.2500000000031,"velocity":0.7637795275590551,"duration":0.12109375},{"name":"E5","midi":76,"time":526.2500000000031,"velocity":0.7637795275590551,"duration":0.21484375},{"name":"B2","midi":47,"time":526.3750000000031,"velocity":0.7637795275590551,"duration":0.12109375},{"name":"C3","midi":48,"time":526.5000000000031,"velocity":0.7637795275590551,"duration":0.12109375},{"name":"A4","midi":69,"time":526.5000000000031,"velocity":0.7637795275590551,"duration":0.24609375},{"name":"B2","midi":47,"time":526.6250000000031,"velocity":0.7637795275590551,"duration":0.12109375},{"name":"C3","midi":48,"time":526.7500000000031,"velocity":0.7637795275590551,"duration":0.12109375},{"name":"E5","midi":76,"time":526.7500000000031,"velocity":0.7637795275590551,"duration":0.21484375},{"name":"E3","midi":52,"time":526.8750000000031,"velocity":0.7637795275590551,"duration":0.12109375},{"name":"A2","midi":45,"time":527.0000000000031,"velocity":0.7637795275590551,"duration":0.12109375},{"name":"F#5","midi":78,"time":527.0000000000031,"velocity":0.7637795275590551,"duration":0.21484375},{"name":"C3","midi":48,"time":527.1250000000031,"velocity":0.7637795275590551,"duration":0.12109375},{"name":"D3","midi":50,"time":527.2500000000031,"velocity":0.7637795275590551,"duration":0.12109375},{"name":"B4","midi":71,"time":527.2500000000031,"velocity":0.7637795275590551,"duration":0.24609375},{"name":"C3","midi":48,"time":527.3750000000031,"velocity":0.7637795275590551,"duration":0.12109375},{"name":"D3","midi":50,"time":527.5000000000031,"velocity":0.7637795275590551,"duration":0.12109375},{"name":"F#5","midi":78,"time":527.5000000000031,"velocity":0.7637795275590551,"duration":0.21484375},{"name":"F#3","midi":54,"time":527.6250000000031,"velocity":0.7637795275590551,"duration":0.12109375},{"name":"B2","midi":47,"time":527.7500000000031,"velocity":0.7637795275590551,"duration":0.12109375},{"name":"G5","midi":79,"time":527.7500000000031,"velocity":0.7637795275590551,"duration":0.21484375},{"name":"D3","midi":50,"time":527.8750000000031,"velocity":0.7637795275590551,"duration":0.12109375},{"name":"E3","midi":52,"time":528.0000000000031,"velocity":0.7637795275590551,"duration":0.24609375},{"name":"C5","midi":72,"time":528.0000000000031,"velocity":0.7637795275590551,"duration":0.87109375},{"name":"B4","midi":71,"time":528.1250000000031,"velocity":0.7637795275590551,"duration":0.12109375},{"name":"A4","midi":69,"time":528.2500000000031,"velocity":0.7637795275590551,"duration":0.12109375},{"name":"C3","midi":48,"time":528.2500000000031,"velocity":0.7637795275590551,"duration":0.22135416666662877},{"name":"G4","midi":67,"time":528.3750000000031,"velocity":0.7637795275590551,"duration":0.12109375},{"name":"A4","midi":69,"time":528.5000000000031,"velocity":0.7637795275590551,"duration":0.12109375},{"name":"A2","midi":45,"time":528.5000000000031,"velocity":0.7637795275590551,"duration":0.22135416666662877},{"name":"E4","midi":64,"time":528.6250000000031,"velocity":0.7637795275590551,"duration":0.12109375},{"name":"F#4","midi":66,"time":528.7500000000031,"velocity":0.7637795275590551,"duration":0.24739583333337123},{"name":"D3","midi":50,"time":528.7500000000031,"velocity":0.7637795275590551,"duration":0.24609375},{"name":"D5","midi":74,"time":528.8750000000031,"velocity":0.7637795275590551,"duration":0.12109375},{"name":"F#3","midi":54,"time":529.0000000000031,"velocity":0.7637795275590551,"duration":0.22786458333337123},{"name":"C5","midi":72,"time":529.0000000000031,"velocity":0.7637795275590551,"duration":0.12109375},{"name":"B4","midi":71,"time":529.1250000000031,"velocity":0.7637795275590551,"duration":0.12109375},{"name":"D3","midi":50,"time":529.2500000000031,"velocity":0.7637795275590551,"duration":0.22786458333337123},{"name":"C5","midi":72,"time":529.2500000000031,"velocity":0.7637795275590551,"duration":0.12109375},{"name":"A4","midi":69,"time":529.3750000000031,"velocity":0.7637795275590551,"duration":0.12109375},{"name":"G3","midi":55,"time":529.5000000000031,"velocity":0.7637795275590551,"duration":0.24609375},{"name":"B4","midi":71,"time":529.5000000000031,"velocity":0.7637795275590551,"duration":0.24609375},{"name":"A4","midi":69,"time":529.6250000000031,"velocity":0.7637795275590551,"duration":0.12109375},{"name":"G4","midi":67,"time":529.7500000000031,"velocity":0.7637795275590551,"duration":0.12109375},{"name":"E3","midi":52,"time":529.7500000000031,"velocity":0.7637795275590551,"duration":0.234375},{"name":"C#5","midi":73,"time":529.7500000000031,"velocity":0.7637795275590551,"duration":0.49609375},{"name":"F#4","midi":66,"time":529.8750000000031,"velocity":0.7637795275590551,"duration":0.12109375},{"name":"G4","midi":67,"time":530.0000000000031,"velocity":0.7637795275590551,"duration":0.12109375},{"name":"A3","midi":57,"time":530.0000000000031,"velocity":0.7637795275590551,"duration":0.234375},{"name":"E4","midi":64,"time":530.1250000000031,"velocity":0.7637795275590551,"duration":0.12109375},{"name":"F#4","midi":66,"time":530.2500000000031,"velocity":0.7637795275590551,"duration":0.49609375},{"name":"D3","midi":50,"time":530.2500000000031,"velocity":0.7637795275590551,"duration":0.12109375},{"name":"D5","midi":74,"time":530.2500000000031,"velocity":0.7637795275590551,"duration":0.24609375},{"name":"E3","midi":52,"time":530.3750000000031,"velocity":0.7637795275590551,"duration":0.12109375},{"name":"D3","midi":50,"time":530.5000000000031,"velocity":0.7637795275590551,"duration":0.12109375},{"name":"A4","midi":69,"time":530.5000000000031,"velocity":0.7637795275590551,"duration":0.24609375},{"name":"C3","midi":48,"time":530.6250000000031,"velocity":0.7637795275590551,"duration":0.12109375},{"name":"D4","midi":62,"time":530.7500000000031,"velocity":0.7637795275590551,"duration":0.24609375},{"name":"B2","midi":47,"time":530.7500000000031,"velocity":0.7637795275590551,"duration":0.12109375},{"name":"D5","midi":74,"time":530.7500000000031,"velocity":0.7637795275590551,"duration":0.37109375},{"name":"A2","midi":45,"time":530.8750000000031,"velocity":0.7637795275590551,"duration":0.12109375},{"name":"E4","midi":64,"time":531.0000000000031,"velocity":0.7637795275590551,"duration":0.37109375},{"name":"G2","midi":43,"time":531.0000000000031,"velocity":0.7637795275590551,"duration":0.24609375},{"name":"B4","midi":71,"time":531.1250000000031,"velocity":0.7637795275590551,"duration":0.12109375},{"name":"C3","midi":48,"time":531.2500000000031,"velocity":0.7637795275590551,"duration":0.24739583333337123},{"name":"G4","midi":67,"time":531.2500000000031,"velocity":0.7637795275590551,"duration":0.24609375},{"name":"C4","midi":60,"time":531.3750000000031,"velocity":0.7637795275590551,"duration":0.12109375},{"name":"A3","midi":57,"time":531.5000000000031,"velocity":0.7637795275590551,"duration":0.12109375},{"name":"C5","midi":72,"time":531.5000000000031,"velocity":0.7637795275590551,"duration":0.24609375},{"name":"F#3","midi":54,"time":531.6250000000031,"velocity":0.7637795275590551,"duration":0.12109375},{"name":"D4","midi":62,"time":531.7500000000031,"velocity":0.7637795275590551,"duration":0.18229166666662877},{"name":"F#4","midi":66,"time":531.7500000000031,"velocity":0.7637795275590551,"duration":0.24609375},{"name":"C3","midi":48,"time":531.8750000000031,"velocity":0.7637795275590551,"duration":0.12109375},{"name":"G3","midi":55,"time":532.0000000000031,"velocity":0.7637795275590551,"duration":0.18229166666662877},{"name":"B2","midi":47,"time":532.0000000000031,"velocity":0.7637795275590551,"duration":0.12109375},{"name":"D4","midi":62,"time":532.0000000000031,"velocity":0.7637795275590551,"duration":0.24609375},{"name":"A2","midi":45,"time":532.1250000000031,"velocity":0.7637795275590551,"duration":0.12109375},{"name":"B2","midi":47,"time":532.2500000000031,"velocity":0.7637795275590551,"duration":0.12109375},{"name":"G4","midi":67,"time":532.2500000000031,"velocity":0.7637795275590551,"duration":0.37109375},{"name":"G2","midi":43,"time":532.3750000000031,"velocity":0.7637795275590551,"duration":0.12109375},{"name":"C4","midi":60,"time":532.5000000000031,"velocity":0.7637795275590551,"duration":0.3710937500001137},{"name":"E2","midi":40,"time":532.5000000000031,"velocity":0.7637795275590551,"duration":0.12109375},{"name":"F#4","midi":66,"time":532.6223958333364,"velocity":0.7637795275590551,"duration":0.0625},{"name":"F#2","midi":42,"time":532.6250000000031,"velocity":0.7637795275590551,"duration":0.12109375000011369},{"name":"E4","midi":64,"time":532.6861979166698,"velocity":0.7637795275590551,"duration":0.0625},{"name":"G2","midi":43,"time":532.7500000000032,"velocity":0.7637795275590551,"duration":0.07942708333337123},{"name":"D4","midi":62,"time":532.7500000000032,"velocity":0.7637795275590551,"duration":0.24739583333337123},{"name":"F#2","midi":42,"time":532.8333333333366,"velocity":0.7637795275590551,"duration":0.07942708333325754},{"name":"A3","midi":57,"time":532.8750000000032,"velocity":0.7637795275590551,"duration":0.12109375},{"name":"G2","midi":43,"time":532.9166666666698,"velocity":0.7637795275590551,"duration":0.07942708333337123},{"name":"F#3","midi":54,"time":533.0000000000032,"velocity":0.7637795275590551,"duration":0.12109375},{"name":"F#2","midi":42,"time":533.0000000000032,"velocity":0.7637795275590551,"duration":0.07942708333337123},{"name":"E2","midi":40,"time":533.0833333333366,"velocity":0.7637795275590551,"duration":0.07942708333325754},{"name":"D3","midi":50,"time":533.1250000000032,"velocity":0.7637795275590551,"duration":0.12109375},{"name":"F#2","midi":42,"time":533.1666666666698,"velocity":0.7637795275590551,"duration":0.07942708333337123},{"name":"B3","midi":59,"time":533.2500000000032,"velocity":0.7637795275590551,"duration":0.74609375},{"name":"G2","midi":43,"time":533.2500000000032,"velocity":0.7637795275590551,"duration":0.49479166666662877},{"name":"C4","midi":60,"time":533.3750000000032,"velocity":0.7637795275590551,"duration":0.12109375},{"name":"G1","midi":31,"time":533.5000000000032,"velocity":0.7637795275590551,"duration":0.24609375},{"name":"D4","midi":62,"time":533.5000000000032,"velocity":0.7637795275590551,"duration":0.12109375},{"name":"F4","midi":65,"time":533.6250000000032,"velocity":0.7637795275590551,"duration":0.12109375},{"name":"G2","midi":43,"time":533.7500000000032,"velocity":0.7637795275590551,"duration":0.24609375},{"name":"E4","midi":64,"time":533.7500000000032,"velocity":0.7637795275590551,"duration":0.12109375},{"name":"G4","midi":67,"time":533.8750000000032,"velocity":0.7637795275590551,"duration":0.12109375},{"name":"C4","midi":60,"time":534.0000000000032,"velocity":0.7637795275590551,"duration":0.24609375},{"name":"A2","midi":45,"time":534.0000000000032,"velocity":0.7637795275590551,"duration":0.12109375},{"name":"F4","midi":65,"time":534.0000000000032,"velocity":0.7637795275590551,"duration":0.12109375},{"name":"B2","midi":47,"time":534.1250000000032,"velocity":0.7637795275590551,"duration":0.12109375},{"name":"G4","midi":67,"time":534.1250000000032,"velocity":0.7637795275590551,"duration":0.12109375},{"name":"D4","midi":62,"time":534.2500000000032,"velocity":0.7637795275590551,"duration":0.24739583333337123},{"name":"C3","midi":48,"time":534.2500000000032,"velocity":0.7637795275590551,"duration":0.07942708333337123},{"name":"F4","midi":65,"time":534.2500000000032,"velocity":0.7637795275590551,"duration":0.12109375},{"name":"B2","midi":47,"time":534.3333333333366,"velocity":0.7637795275590551,"duration":0.07942708333325754},{"name":"E4","midi":64,"time":534.3750000000032,"velocity":0.7637795275590551,"duration":0.12109375},{"name":"C3","midi":48,"time":534.4166666666698,"velocity":0.7637795275590551,"duration":0.07942708333337123},{"name":"B2","midi":47,"time":534.5000000000032,"velocity":0.7637795275590551,"duration":0.07942708333337123},{"name":"F4","midi":65,"time":534.5000000000032,"velocity":0.7637795275590551,"duration":0.12109375},{"name":"A2","midi":45,"time":534.5833333333366,"velocity":0.7637795275590551,"duration":0.07942708333325754},{"name":"D4","midi":62,"time":534.6250000000032,"velocity":0.7637795275590551,"duration":0.12109375},{"name":"B2","midi":47,"time":534.6666666666698,"velocity":0.7637795275590551,"duration":0.07942708333337123},{"name":"G3","midi":55,"time":534.7500000000032,"velocity":0.7637795275590551,"duration":0.24609375},{"name":"C3","midi":48,"time":534.7500000000032,"velocity":0.7637795275590551,"duration":0.20833333333337123},{"name":"E4","midi":64,"time":534.7500000000032,"velocity":0.7637795275590551,"duration":0.12109375},{"name":"A4","midi":69,"time":534.8750000000032,"velocity":0.7637795275590551,"duration":0.12109375},{"name":"E3","midi":52,"time":535.0000000000032,"velocity":0.7637795275590551,"duration":0.24609375},{"name":"D3","midi":50,"time":535.0000000000032,"velocity":0.7637795275590551,"duration":0.07942708333337123},{"name":"G4","midi":67,"time":535.0000000000032,"velocity":0.7637795275590551,"duration":0.12109375},{"name":"C#3","midi":49,"time":535.0833333333366,"velocity":0.7637795275590551,"duration":0.07942708333325754},{"name":"F#4","midi":66,"time":535.1250000000032,"velocity":0.7637795275590551,"duration":0.12109375},{"name":"D3","midi":50,"time":535.1666666666698,"velocity":0.7637795275590551,"duration":0.07942708333337123},{"name":"C#3","midi":49,"time":535.2500000000032,"velocity":0.7637795275590551,"duration":0.07942708333337123},{"name":"G4","midi":67,"time":535.2500000000032,"velocity":0.7637795275590551,"duration":0.12109375},{"name":"B2","midi":47,"time":535.3333333333366,"velocity":0.7637795275590551,"duration":0.07942708333325754},{"name":"E4","midi":64,"time":535.3750000000032,"velocity":0.7637795275590551,"duration":0.12109375},{"name":"C#3","midi":49,"time":535.4166666666698,"velocity":0.7637795275590551,"duration":0.07942708333337123},{"name":"A3","midi":57,"time":535.5000000000032,"velocity":0.7637795275590551,"duration":0.24609375},{"name":"D3","midi":50,"time":535.5000000000032,"velocity":0.7637795275590551,"duration":0.20833333333337123},{"name":"F#4","midi":66,"time":535.5000000000032,"velocity":0.7637795275590551,"duration":0.12109375},{"name":"B4","midi":71,"time":535.6250000000032,"velocity":0.7637795275590551,"duration":0.12109375},{"name":"F#3","midi":54,"time":535.7500000000032,"velocity":0.7637795275590551,"duration":0.24739583333337123},{"name":"E3","midi":52,"time":535.7500000000032,"velocity":0.7637795275590551,"duration":0.07942708333337123},{"name":"A4","midi":69,"time":535.7500000000032,"velocity":0.7637795275590551,"duration":0.12109375},{"name":"D#3","midi":51,"time":535.8333333333366,"velocity":0.7637795275590551,"duration":0.07942708333325754},{"name":"G4","midi":67,"time":535.8750000000032,"velocity":0.7637795275590551,"duration":0.12109375},{"name":"E3","midi":52,"time":535.9166666666698,"velocity":0.7637795275590551,"duration":0.07942708333337123},{"name":"D#3","midi":51,"time":536.0000000000032,"velocity":0.7637795275590551,"duration":0.07942708333337123},{"name":"A4","midi":69,"time":536.0000000000032,"velocity":0.7637795275590551,"duration":0.12109375},{"name":"C#3","midi":49,"time":536.0833333333366,"velocity":0.7637795275590551,"duration":0.07942708333325754},{"name":"F#4","midi":66,"time":536.1250000000032,"velocity":0.7637795275590551,"duration":0.12109375},{"name":"D#3","midi":51,"time":536.1666666666698,"velocity":0.7637795275590551,"duration":0.07942708333337123},{"name":"E3","midi":52,"time":536.2500000000032,"velocity":0.7637795275590551,"duration":0.12109375},{"name":"G4","midi":67,"time":536.2500000000032,"velocity":0.7637795275590551,"duration":0.24609375},{"name":"D4","midi":62,"time":536.3750000000032,"velocity":0.7637795275590551,"duration":0.12109375},{"name":"F#3","midi":54,"time":536.3750000000032,"velocity":0.7637795275590551,"duration":0.12109375},{"name":"C4","midi":60,"time":536.5000000000032,"velocity":0.7637795275590551,"duration":0.12109375},{"name":"G3","midi":55,"time":536.5000000000032,"velocity":0.7637795275590551,"duration":0.07942708333337123},{"name":"A4","midi":69,"time":536.5000000000032,"velocity":0.7637795275590551,"duration":0.24739583333337123},{"name":"F#3","midi":54,"time":536.5833333333366,"velocity":0.7637795275590551,"duration":0.07942708333325754},{"name":"B3","midi":59,"time":536.6250000000032,"velocity":0.7637795275590551,"duration":0.12109375},{"name":"G3","midi":55,"time":536.6666666666698,"velocity":0.7637795275590551,"duration":0.07942708333337123},{"name":"C4","midi":60,"time":536.7500000000032,"velocity":0.7637795275590551,"duration":0.12109375},{"name":"F#3","midi":54,"time":536.7500000000032,"velocity":0.7637795275590551,"duration":0.07942708333337123},{"name":"E3","midi":52,"time":536.8333333333366,"velocity":0.7637795275590551,"duration":0.07942708333325754},{"name":"A3","midi":57,"time":536.8750000000032,"velocity":0.7637795275590551,"duration":0.12109375},{"name":"F#3","midi":54,"time":536.9166666666698,"velocity":0.7637795275590551,"duration":0.07942708333337123},{"name":"B3","midi":59,"time":537.0000000000032,"velocity":0.7637795275590551,"duration":0.12109375},{"name":"G3","midi":55,"time":537.0000000000032,"velocity":0.7637795275590551,"duration":0.24609375},{"name":"D4","midi":62,"time":537.1250000000032,"velocity":0.7637795275590551,"duration":0.62109375},{"name":"B2","midi":47,"time":537.2500000000032,"velocity":0.7637795275590551,"duration":0.24609375},{"name":"G4","midi":67,"time":537.2500000000032,"velocity":0.7637795275590551,"duration":0.12109375},{"name":"B4","midi":71,"time":537.3750000000032,"velocity":0.7637795275590551,"duration":0.12109375},{"name":"D3","midi":50,"time":537.5000000000032,"velocity":0.7637795275590551,"duration":0.2734375},{"name":"A4","midi":69,"time":537.5000000000032,"velocity":0.7637795275590551,"duration":0.18229166666662877},{"name":"F#4","midi":66,"time":537.6328125000032,"velocity":0.7637795275590551,"duration":0.11458333333337123},{"name":"G2","midi":43,"time":537.7903645833366,"velocity":0.7637795275590551,"duration":1.1197916666667425},{"name":"C4","midi":60,"time":537.7916666666699,"velocity":0.7637795275590551,"duration":0.40364583333337123},{"name":"F#4","midi":66,"time":537.7916666666699,"velocity":0.7637795275590551,"duration":0.40364583333337123},{"name":"G4","midi":67,"time":538.2083333333367,"velocity":0.7637795275590551,"duration":0.7486979166666288},{"name":"B3","midi":59,"time":538.2083333333367,"velocity":0.7637795275590551,"duration":0.7486979166666288}],"controlChanges":{"7":[{"number":7,"time":0,"value":0.7874015748031497}]},"id":1,"name":"Harpsichord","instrumentNumber":7,"instrument":"clavi","instrumentFamily":"piano","channelNumber":0,"isPercussion":false}]}