{"header":{"PPQ":240,"timeSignature":[1,4],"bpm":120,"name":""},"startTime":6.735416666666666,"duration":200.5583333333317,"tracks":[{"startTime":6.735416666666666,"duration":200.5583333333317,"length":1462,"notes":[{"name":"A5","midi":81,"time":6.735416666666666,"velocity":0.4409448818897638,"duration":0.13750000000000018},{"name":"A#3","midi":58,"time":6.737499999999999,"velocity":0.5354330708661418,"duration":0.3625000000000007},{"name":"G3","midi":55,"time":6.747916666666666,"velocity":0.5354330708661418,"duration":0.6750000000000007},{"name":"G5","midi":79,"time":6.874999999999999,"velocity":0.4409448818897638,"duration":0.13333333333333375},{"name":"A5","midi":81,"time":7.010416666666666,"velocity":0.4409448818897638,"duration":0.12291666666666679},{"name":"D4","midi":62,"time":7.1,"velocity":0.6062992125984252,"duration":0.3333333333333339},{"name":"G5","midi":79,"time":7.133333333333333,"velocity":0.4409448818897638,"duration":0.12083333333333357},{"name":"A5","midi":81,"time":7.254166666666666,"velocity":0.4409448818897638,"duration":0.12291666666666679},{"name":"G5","midi":79,"time":7.377083333333333,"velocity":0.4409448818897638,"duration":0.125},{"name":"G3","midi":55,"time":7.435416666666667,"velocity":0.6062992125984252,"duration":0.6562499999999982},{"name":"C4","midi":60,"time":7.435416666666667,"velocity":0.6062992125984252,"duration":0.33749999999999947},{"name":"A5","midi":81,"time":7.504166666666666,"velocity":0.4409448818897638,"duration":0.12291666666666679},{"name":"G5","midi":79,"time":7.627083333333333,"velocity":0.4409448818897638,"duration":0.125},{"name":"A5","midi":81,"time":7.754166666666666,"velocity":0.4409448818897638,"duration":0.10416666666666607},{"name":"D#4","midi":63,"time":7.772916666666666,"velocity":0.6062992125984252,"duration":0.31666666666666554},{"name":"G5","midi":79,"time":7.860416666666666,"velocity":0.4409448818897638,"duration":0.11875000000000036},{"name":"A5","midi":81,"time":7.981249999999999,"velocity":0.4566929133858268,"duration":0.11874999999999858},{"name":"A#3","midi":58,"time":8.091666666666665,"velocity":0.6062992125984252,"duration":0.2916666666666643},{"name":"G3","midi":55,"time":8.093749999999998,"velocity":0.6062992125984252,"duration":0.6104166666666639},{"name":"G5","midi":79,"time":8.099999999999998,"velocity":0.4566929133858268,"duration":0.1083333333333325},{"name":"A5","midi":81,"time":8.210416666666664,"velocity":0.4566929133858268,"duration":0.10624999999999929},{"name":"G5","midi":79,"time":8.316666666666663,"velocity":0.4566929133858268,"duration":0.11041666666666572},{"name":"D4","midi":62,"time":8.385416666666663,"velocity":0.6062992125984252,"duration":0.31874999999999964},{"name":"A5","midi":81,"time":8.427083333333329,"velocity":0.4566929133858268,"duration":0.11875000000000036},{"name":"G5","midi":79,"time":8.547916666666662,"velocity":0.4566929133858268,"duration":0.11250000000000071},{"name":"A5","midi":81,"time":8.662499999999996,"velocity":0.4566929133858268,"duration":0.11666666666666536},{"name":"G3","midi":55,"time":8.706249999999995,"velocity":0.6062992125984252,"duration":0.65625},{"name":"A3","midi":57,"time":8.706249999999995,"velocity":0.6062992125984252,"duration":0.32083333333333286},{"name":"G5","midi":79,"time":8.781249999999995,"velocity":0.4566929133858268,"duration":0.11458333333333393},{"name":"A5","midi":81,"time":8.897916666666662,"velocity":0.4566929133858268,"duration":0.12083333333333357},{"name":"G5","midi":79,"time":9.018749999999995,"velocity":0.4566929133858268,"duration":0.12083333333333357},{"name":"C4","midi":60,"time":9.029166666666661,"velocity":0.6062992125984252,"duration":0.3333333333333339},{"name":"A5","midi":81,"time":9.141666666666662,"velocity":0.4566929133858268,"duration":0.12083333333333357},{"name":"G5","midi":79,"time":9.262499999999996,"velocity":0.4566929133858268,"duration":0.11875000000000036},{"name":"G3","midi":55,"time":9.364583333333329,"velocity":0.6062992125984252,"duration":0.6229166666666703},{"name":"A#3","midi":58,"time":9.364583333333329,"velocity":0.6062992125984252,"duration":0.31041666666666856},{"name":"A5","midi":81,"time":9.38333333333333,"velocity":0.47244094488188976,"duration":0.11458333333333393},{"name":"G5","midi":79,"time":9.499999999999996,"velocity":0.47244094488188976,"duration":0.11250000000000071},{"name":"A5","midi":81,"time":9.612499999999997,"velocity":0.47244094488188976,"duration":0.11250000000000071},{"name":"D4","midi":62,"time":9.674999999999997,"velocity":0.6062992125984252,"duration":0.31041666666666856},{"name":"G5","midi":79,"time":9.727083333333331,"velocity":0.47244094488188976,"duration":0.11458333333333393},{"name":"A5","midi":81,"time":9.843749999999998,"velocity":0.47244094488188976,"duration":0.11250000000000071},{"name":"G5","midi":79,"time":9.956249999999999,"velocity":0.47244094488188976,"duration":0.11458333333333393},{"name":"C4","midi":60,"time":9.987499999999999,"velocity":0.6062992125984252,"duration":0.2958333333333325},{"name":"G3","midi":55,"time":9.989583333333332,"velocity":0.6062992125984252,"duration":0.6020833333333329},{"name":"A5","midi":81,"time":10.070833333333333,"velocity":0.47244094488188976,"duration":0.10416666666666607},{"name":"G5","midi":79,"time":10.177083333333332,"velocity":0.47244094488188976,"duration":0.10416666666666607},{"name":"A5","midi":81,"time":10.283333333333331,"velocity":0.47244094488188976,"duration":0.10416666666666607},{"name":"D#4","midi":63,"time":10.285416666666665,"velocity":0.6062992125984252,"duration":0.30416666666666714},{"name":"G5","midi":79,"time":10.38958333333333,"velocity":0.47244094488188976,"duration":0.11458333333333393},{"name":"A5","midi":81,"time":10.504166666666665,"velocity":0.47244094488188976,"duration":0.11458333333333393},{"name":"A#3","midi":58,"time":10.591666666666665,"velocity":0.6062992125984252,"duration":0.2958333333333325},{"name":"G3","midi":55,"time":10.593749999999998,"velocity":0.6062992125984252,"duration":0.6020833333333346},{"name":"G5","midi":79,"time":10.618749999999999,"velocity":0.47244094488188976,"duration":0.10624999999999929},{"name":"A5","midi":81,"time":10.727083333333331,"velocity":0.47244094488188976,"duration":0.1083333333333325},{"name":"G5","midi":79,"time":10.837499999999997,"velocity":0.47244094488188976,"duration":0.1104166666666675},{"name":"D4","midi":62,"time":10.88958333333333,"velocity":0.6062992125984252,"duration":0.3041666666666689},{"name":"A5","midi":81,"time":10.949999999999998,"velocity":0.47244094488188976,"duration":0.11250000000000071},{"name":"G5","midi":79,"time":11.062499999999998,"velocity":0.47244094488188976,"duration":0.11250000000000071},{"name":"A5","midi":81,"time":11.174999999999999,"velocity":0.47244094488188976,"duration":0.11250000000000071},{"name":"G3","midi":55,"time":11.195833333333333,"velocity":0.6062992125984252,"duration":0.6499999999999986},{"name":"A3","midi":57,"time":11.197916666666666,"velocity":0.6062992125984252,"duration":0.31666666666666643},{"name":"G5","midi":79,"time":11.289583333333333,"velocity":0.47244094488188976,"duration":0.11666666666666714},{"name":"A5","midi":81,"time":11.40625,"velocity":0.4881889763779528,"duration":0.11874999999999858},{"name":"C4","midi":60,"time":11.514583333333333,"velocity":0.6062992125984252,"duration":0.33124999999999893},{"name":"G5","midi":79,"time":11.527083333333332,"velocity":0.4881889763779528,"duration":0.11666666666666714},{"name":"A5","midi":81,"time":11.645833333333332,"velocity":0.4881889763779528,"duration":0.12291666666666679},{"name":"G5","midi":79,"time":11.768749999999999,"velocity":0.4881889763779528,"duration":0.38333333333333286},{"name":"G3","midi":55,"time":11.847916666666665,"velocity":0.6062992125984252,"duration":5.833333333333348},{"name":"A#3","midi":58,"time":11.847916666666665,"velocity":0.6062992125984252,"duration":0.6062500000000011},{"name":"D5","midi":74,"time":12.154166666666665,"velocity":0.5590551181102362,"duration":0.2979166666666675},{"name":"D#5","midi":75,"time":12.454166666666666,"velocity":0.5590551181102362,"duration":0.14791666666666714},{"name":"C4","midi":60,"time":12.456249999999999,"velocity":0.6062992125984252,"duration":0.5979166666666682},{"name":"D5","midi":74,"time":12.604166666666666,"velocity":0.5590551181102362,"duration":0.14791666666666714},{"name":"C5","midi":72,"time":12.754166666666666,"velocity":0.5590551181102362,"duration":0.2979166666666675},{"name":"D5","midi":74,"time":13.054166666666667,"velocity":0.5590551181102362,"duration":0.3020833333333339},{"name":"A#3","midi":58,"time":13.05625,"velocity":0.6062992125984252,"duration":0.6083333333333343},{"name":"G5","midi":79,"time":13.358333333333334,"velocity":0.5590551181102362,"duration":0.30416666666666714},{"name":"C5","midi":72,"time":13.664583333333335,"velocity":0.5590551181102362,"duration":0.15208333333333357},{"name":"D#4","midi":63,"time":13.666666666666668,"velocity":0.6062992125984252,"duration":0.6166666666666671},{"name":"A#4","midi":70,"time":13.818750000000001,"velocity":0.5590551181102362,"duration":0.15208333333333357},{"name":"A4","midi":69,"time":13.972916666666668,"velocity":0.5590551181102362,"duration":0.3104166666666668},{"name":"A#4","midi":70,"time":14.285416666666668,"velocity":0.5590551181102362,"duration":0.3104166666666668},{"name":"D4","midi":62,"time":14.285416666666668,"velocity":0.6062992125984252,"duration":0.625},{"name":"G5","midi":79,"time":14.595833333333335,"velocity":0.5590551181102362,"duration":0.3125},{"name":"C5","midi":72,"time":14.910416666666668,"velocity":0.5590551181102362,"duration":0.15416666666666679},{"name":"D#4","midi":63,"time":14.912500000000001,"velocity":0.6062992125984252,"duration":0.6208333333333336},{"name":"A#4","midi":70,"time":15.066666666666668,"velocity":0.5590551181102362,"duration":0.15416666666666679},{"name":"A4","midi":69,"time":15.222916666666668,"velocity":0.5590551181102362,"duration":0.3104166666666668},{"name":"A#4","midi":70,"time":15.535416666666668,"velocity":0.5590551181102362,"duration":0.3125},{"name":"D4","midi":62,"time":15.535416666666668,"velocity":0.6062992125984252,"duration":0.6166666666666689},{"name":"G5","midi":79,"time":15.847916666666668,"velocity":0.5590551181102362,"duration":0.3020833333333339},{"name":"A4","midi":69,"time":16.152083333333337,"velocity":0.5590551181102362,"duration":0.14791666666666714},{"name":"C4","midi":60,"time":16.154166666666672,"velocity":0.6062992125984252,"duration":0.59791666666667},{"name":"G4","midi":67,"time":16.30208333333334,"velocity":0.6062992125984252,"duration":0.14791666666666714},{"name":"F#4","midi":66,"time":16.45208333333334,"velocity":0.6062992125984252,"duration":0.2979166666666657},{"name":"A4","midi":69,"time":16.754166666666677,"velocity":0.5590551181102362,"duration":0.11041666666666572},{"name":"A#3","midi":58,"time":16.754166666666677,"velocity":0.6062992125984252,"duration":0.31041666666666856},{"name":"G4","midi":67,"time":16.866666666666678,"velocity":0.6062992125984252,"duration":0.11250000000000071},{"name":"A4","midi":69,"time":16.97916666666668,"velocity":0.5590551181102362,"duration":0.11458333333333215},{"name":"C4","midi":60,"time":17.064583333333346,"velocity":0.6062992125984252,"duration":0.310416666666665},{"name":"G4","midi":67,"time":17.09375000000001,"velocity":0.6062992125984252,"duration":0.11458333333333215},{"name":"A4","midi":69,"time":17.210416666666678,"velocity":0.5590551181102362,"duration":0.11458333333333215},{"name":"G4","midi":67,"time":17.32500000000001,"velocity":0.6062992125984252,"duration":0.11250000000000071},{"name":"D4","midi":62,"time":17.377083333333346,"velocity":0.6062992125984252,"duration":0.9166666666666785},{"name":"A4","midi":69,"time":17.43750000000001,"velocity":0.5590551181102362,"duration":0.11250000000000071},{"name":"G4","midi":67,"time":17.55000000000001,"velocity":0.6062992125984252,"duration":0.11041666666666572},{"name":"A4","midi":69,"time":17.662500000000012,"velocity":0.5590551181102362,"duration":0.11041666666666927},{"name":"F3","midi":53,"time":17.683333333333348,"velocity":0.6062992125984252,"duration":0.3041666666666707},{"name":"G4","midi":67,"time":17.775000000000016,"velocity":0.6062992125984252,"duration":0.11041666666666572},{"name":"A4","midi":69,"time":17.887500000000017,"velocity":0.5590551181102362,"duration":0.11041666666666927},{"name":"D#3","midi":51,"time":17.989583333333353,"velocity":0.6062992125984252,"duration":0.6104166666666728},{"name":"G4","midi":67,"time":18.00000000000002,"velocity":0.6062992125984252,"duration":0.11041666666666572},{"name":"A4","midi":69,"time":18.110416666666687,"velocity":0.5590551181102362,"duration":0.11250000000000071},{"name":"G4","midi":67,"time":18.225000000000023,"velocity":0.6062992125984252,"duration":0.11041666666666927},{"name":"C4","midi":60,"time":18.29583333333336,"velocity":0.6062992125984252,"duration":0.6104166666666693},{"name":"A4","midi":69,"time":18.337500000000027,"velocity":0.5590551181102362,"duration":0.11041666666666572},{"name":"G4","midi":67,"time":18.450000000000028,"velocity":0.6062992125984252,"duration":0.11041666666666572},{"name":"A4","midi":69,"time":18.560416666666693,"velocity":0.5590551181102362,"duration":0.11041666666666572},{"name":"D3","midi":50,"time":18.600000000000026,"velocity":0.6062992125984252,"duration":0.6125000000000007},{"name":"G4","midi":67,"time":18.672916666666694,"velocity":0.6062992125984252,"duration":0.11041666666666572},{"name":"A4","midi":69,"time":18.785416666666695,"velocity":0.5590551181102362,"duration":0.11041666666666572},{"name":"G4","midi":67,"time":18.897916666666696,"velocity":0.6062992125984252,"duration":0.11041666666666572},{"name":"A#3","midi":58,"time":18.90625000000003,"velocity":0.6062992125984252,"duration":0.6145833333333321},{"name":"A4","midi":69,"time":19.00833333333336,"velocity":0.5590551181102362,"duration":0.11458333333333215},{"name":"G4","midi":67,"time":19.122916666666693,"velocity":0.6062992125984252,"duration":0.11041666666666572},{"name":"C3","midi":48,"time":19.212500000000027,"velocity":0.6062992125984252,"duration":0.6125000000000007},{"name":"A4","midi":69,"time":19.235416666666694,"velocity":0.5590551181102362,"duration":0.11041666666666572},{"name":"G4","midi":67,"time":19.347916666666695,"velocity":0.6062992125984252,"duration":0.11041666666666572},{"name":"A4","midi":69,"time":19.45833333333336,"velocity":0.5590551181102362,"duration":0.11250000000000071},{"name":"A3","midi":57,"time":19.52083333333336,"velocity":0.6062992125984252,"duration":0.6083333333333343},{"name":"G4","midi":67,"time":19.57083333333336,"velocity":0.6062992125984252,"duration":0.11041666666666572},{"name":"A4","midi":69,"time":19.683333333333362,"velocity":0.5590551181102362,"duration":0.11041666666666572},{"name":"G4","midi":67,"time":19.795833333333363,"velocity":0.6062992125984252,"duration":0.11041666666666572},{"name":"D3","midi":50,"time":19.827083333333363,"velocity":0.6062992125984252,"duration":0.5895833333333371},{"name":"A4","midi":69,"time":19.90625000000003,"velocity":0.5590551181102362,"duration":0.11458333333333215},{"name":"G4","midi":67,"time":20.02083333333336,"velocity":0.6062992125984252,"duration":0.10624999999999929},{"name":"A4","midi":69,"time":20.129166666666695,"velocity":0.5590551181102362,"duration":0.10416666666666785},{"name":"A#3","midi":58,"time":20.13125000000003,"velocity":0.6062992125984252,"duration":0.5708333333333364},{"name":"G4","midi":67,"time":20.235416666666698,"velocity":0.6062992125984252,"duration":0.10416666666666785},{"name":"A4","midi":69,"time":20.3416666666667,"velocity":0.5590551181102362,"duration":0.1041666666666643},{"name":"D#3","midi":51,"time":20.4166666666667,"velocity":0.6062992125984252,"duration":0.5687500000000014},{"name":"G4","midi":67,"time":20.4479166666667,"velocity":0.6062992125984252,"duration":0.10208333333333286},{"name":"A4","midi":69,"time":20.550000000000033,"velocity":0.5590551181102362,"duration":0.10624999999999929},{"name":"G4","midi":67,"time":20.656250000000032,"velocity":0.6062992125984252,"duration":0.10416666666666785},{"name":"C4","midi":60,"time":20.702083333333366,"velocity":0.6062992125984252,"duration":0.568750000000005},{"name":"A4","midi":69,"time":20.7604166666667,"velocity":0.5590551181102362,"duration":0.10208333333333286},{"name":"G4","midi":67,"time":20.862500000000033,"velocity":0.6062992125984252,"duration":0.10416666666666785},{"name":"A4","midi":69,"time":20.9666666666667,"velocity":0.5590551181102362,"duration":0.10416666666666785},{"name":"D3","midi":50,"time":20.987500000000036,"velocity":0.6062992125984252,"duration":0.5875000000000021},{"name":"G4","midi":67,"time":21.07083333333337,"velocity":0.6062992125984252,"duration":0.10208333333333286},{"name":"A4","midi":69,"time":21.175000000000036,"velocity":0.5590551181102362,"duration":0.10416666666666785},{"name":"A#3","midi":58,"time":21.27083333333337,"velocity":0.6062992125984252,"duration":0.30416666666666714},{"name":"G4","midi":67,"time":21.28125000000004,"velocity":0.6062992125984252,"duration":0.11041666666666572},{"name":"A4","midi":69,"time":21.39375000000004,"velocity":0.5590551181102362,"duration":0.11041666666666572},{"name":"G4","midi":67,"time":21.504166666666706,"velocity":0.6062992125984252,"duration":0.38750000000000284},{"name":"C#3","midi":49,"time":21.577083333333373,"velocity":0.6062992125984252,"duration":2.4416666666666877},{"name":"A3","midi":57,"time":21.577083333333373,"velocity":0.6062992125984252,"duration":0.631250000000005},{"name":"E5","midi":76,"time":21.89166666666671,"velocity":0.5590551181102362,"duration":0.314583333333335},{"name":"A#4","midi":70,"time":22.20833333333338,"velocity":0.5590551181102362,"duration":0.14791666666666714},{"name":"G3","midi":55,"time":22.210416666666713,"velocity":0.6062992125984252,"duration":0.600000000000005},{"name":"A4","midi":69,"time":22.35833333333338,"velocity":0.5590551181102362,"duration":0.14791666666666714},{"name":"G4","midi":67,"time":22.508333333333383,"velocity":0.6062992125984252,"duration":0.3000000000000007},{"name":"A4","midi":69,"time":22.81041666666672,"velocity":0.5590551181102362,"duration":0.30416666666666714},{"name":"E3","midi":52,"time":22.812500000000053,"velocity":0.6062992125984252,"duration":0.6062500000000028},{"name":"E5","midi":76,"time":23.11666666666672,"velocity":0.5590551181102362,"duration":0.3000000000000007},{"name":"G4","midi":67,"time":23.418750000000056,"velocity":0.6062992125984252,"duration":0.14791666666666714},{"name":"A3","midi":57,"time":23.42083333333339,"velocity":0.6062992125984252,"duration":0.8958333333333393},{"name":"F#4","midi":66,"time":23.56875000000006,"velocity":0.6062992125984252,"duration":0.14791666666666714},{"name":"E4","midi":64,"time":23.71875000000006,"velocity":0.6062992125984252,"duration":0.2979166666666657},{"name":"F#4","midi":66,"time":24.01875000000006,"velocity":0.6062992125984252,"duration":0.8937500000000078},{"name":"D3","midi":50,"time":24.020833333333396,"velocity":0.6062992125984252,"duration":0.8895833333333378},{"name":"C4","midi":60,"time":24.318750000000065,"velocity":0.6062992125984252,"duration":0.2979166666666657},{"name":"A#3","midi":58,"time":24.618750000000066,"velocity":0.6062992125984252,"duration":0.8791666666666735},{"name":"G4","midi":67,"time":24.91250000000007,"velocity":0.6062992125984252,"duration":0.29375000000000284},{"name":"D3","midi":50,"time":24.914583333333404,"velocity":0.6062992125984252,"duration":0.28958333333333286},{"name":"F#4","midi":66,"time":25.20625000000007,"velocity":0.6062992125984252,"duration":0.29166666666666785},{"name":"C3","midi":48,"time":25.208333333333407,"velocity":0.6062992125984252,"duration":0.5833333333333357},{"name":"A4","midi":69,"time":25.500000000000075,"velocity":0.5748031496062992,"duration":0.29166666666666785},{"name":"A3","midi":57,"time":25.500000000000075,"velocity":0.6062992125984252,"duration":0.5875000000000021},{"name":"D5","midi":74,"time":25.793750000000077,"velocity":0.5748031496062992,"duration":0.14583333333333215},{"name":"A#2","midi":46,"time":25.793750000000077,"velocity":0.6062992125984252,"duration":0.5895833333333371},{"name":"C5","midi":72,"time":25.93958333333341,"velocity":0.5748031496062992,"duration":0.14791666666666714},{"name":"A#4","midi":70,"time":26.08958333333341,"velocity":0.5748031496062992,"duration":0.29166666666666785},{"name":"G3","midi":55,"time":26.08958333333341,"velocity":0.6062992125984252,"duration":0.8895833333333378},{"name":"C5","midi":72,"time":26.383333333333415,"velocity":0.5748031496062992,"duration":0.2979166666666657},{"name":"A2","midi":45,"time":26.383333333333415,"velocity":0.6062992125984252,"duration":1.7770833333333371},{"name":"D#5","midi":75,"time":26.683333333333415,"velocity":0.5748031496062992,"duration":0.2937499999999993},{"name":"D5","midi":74,"time":26.97916666666675,"velocity":0.5748031496062992,"duration":0.1437500000000007},{"name":"G3","midi":55,"time":26.981250000000085,"velocity":0.6062992125984252,"duration":0.5812500000000007},{"name":"C5","midi":72,"time":27.12291666666675,"velocity":0.5748031496062992,"duration":0.1437500000000007},{"name":"A#4","midi":70,"time":27.26666666666675,"velocity":0.5748031496062992,"duration":0.2958333333333343},{"name":"C5","midi":72,"time":27.56458333333342,"velocity":0.5748031496062992,"duration":0.2979166666666657},{"name":"F#3","midi":54,"time":27.56458333333342,"velocity":0.6062992125984252,"duration":1.1854166666666686},{"name":"A5","midi":81,"time":27.862500000000086,"velocity":0.5748031496062992,"duration":0.2979166666666657},{"name":"C5","midi":72,"time":28.162500000000087,"velocity":0.5748031496062992,"duration":0.1437500000000007},{"name":"D3","midi":50,"time":28.162500000000087,"velocity":0.6062992125984252,"duration":0.5875000000000021},{"name":"A#4","midi":70,"time":28.306250000000087,"velocity":0.5748031496062992,"duration":0.14791666666666714},{"name":"A4","midi":69,"time":28.454166666666755,"velocity":0.5748031496062992,"duration":0.2937499999999993},{"name":"A#4","midi":70,"time":28.75000000000009,"velocity":0.5748031496062992,"duration":0.29791666666666927},{"name":"G2","midi":43,"time":28.752083333333424,"velocity":0.6062992125984252,"duration":1.7479166666666792},{"name":"D5","midi":74,"time":29.050000000000093,"velocity":0.5748031496062992,"duration":0.2979166666666657},{"name":"C5","midi":72,"time":29.350000000000094,"velocity":0.5748031496062992,"duration":0.14791666666666714},{"name":"D3","midi":50,"time":29.350000000000094,"velocity":0.6062992125984252,"duration":0.5875000000000057},{"name":"A#4","midi":70,"time":29.500000000000096,"velocity":0.5748031496062992,"duration":0.14583333333333215},{"name":"A4","midi":69,"time":29.647916666666763,"velocity":0.5748031496062992,"duration":0.2875000000000014},{"name":"A#4","midi":70,"time":29.9375000000001,"velocity":0.5748031496062992,"duration":0.27916666666666856},{"name":"E3","midi":52,"time":29.939583333333434,"velocity":0.6062992125984252,"duration":1.1541666666666757},{"name":"G5","midi":79,"time":30.216666666666768,"velocity":0.5748031496062992,"duration":0.283333333333335},{"name":"A#4","midi":70,"time":30.502083333333438,"velocity":0.5748031496062992,"duration":0.1437500000000007},{"name":"C3","midi":48,"time":30.502083333333438,"velocity":0.6062992125984252,"duration":0.5916666666666721},{"name":"A4","midi":69,"time":30.647916666666774,"velocity":0.5748031496062992,"duration":0.1437500000000007},{"name":"G4","midi":67,"time":30.79375000000011,"velocity":0.6062992125984252,"duration":0.3000000000000007},{"name":"A4","midi":69,"time":31.095833333333445,"velocity":0.5748031496062992,"duration":0.2895833333333364},{"name":"F3","midi":53,"time":31.095833333333445,"velocity":0.6062992125984252,"duration":0.5854166666666742},{"name":"F2","midi":41,"time":31.09791666666678,"velocity":0.6062992125984252,"duration":1.1854166666666721},{"name":"F4","midi":65,"time":31.387500000000117,"velocity":0.6062992125984252,"duration":0.29166666666666785},{"name":"A#4","midi":70,"time":31.683333333333454,"velocity":0.5748031496062992,"duration":0.14791666666666714},{"name":"G3","midi":55,"time":31.683333333333454,"velocity":0.6062992125984252,"duration":0.5979166666666664},{"name":"C5","midi":72,"time":31.83125000000012,"velocity":0.5748031496062992,"duration":0.14999999999999858},{"name":"D5","midi":74,"time":31.98125000000012,"velocity":0.5748031496062992,"duration":0.3000000000000007},{"name":"C5","midi":72,"time":32.28333333333345,"velocity":0.5748031496062992,"duration":0.2979166666666657},{"name":"A3","midi":57,"time":32.28333333333345,"velocity":0.6062992125984252,"duration":0.5979166666666629},{"name":"F4","midi":65,"time":32.58125000000012,"velocity":0.6062992125984252,"duration":0.29999999999999716},{"name":"D5","midi":74,"time":32.88333333333345,"velocity":0.5748031496062992,"duration":0.14791666666666714},{"name":"A#3","midi":58,"time":32.88333333333345,"velocity":0.6062992125984252,"duration":0.5916666666666686},{"name":"D#5","midi":75,"time":33.031250000000114,"velocity":0.5748031496062992,"duration":0.14999999999999858},{"name":"F5","midi":77,"time":33.18125000000011,"velocity":0.5748031496062992,"duration":0.29375000000000284},{"name":"D#5","midi":75,"time":33.47708333333345,"velocity":0.5748031496062992,"duration":0.29375000000000284},{"name":"C4","midi":60,"time":33.47708333333345,"velocity":0.6062992125984252,"duration":0.5916666666666686},{"name":"C5","midi":72,"time":33.77291666666678,"velocity":0.5748031496062992,"duration":0.29375000000000284},{"name":"G5","midi":79,"time":34.068750000000115,"velocity":0.5748031496062992,"duration":0.14791666666666714},{"name":"A#3","midi":58,"time":34.07083333333345,"velocity":0.6062992125984252,"duration":0.5979166666666629},{"name":"A5","midi":81,"time":34.218750000000114,"velocity":0.5039370078740157,"duration":0.14791666666666714},{"name":"A#5","midi":82,"time":34.36875000000011,"velocity":0.5039370078740157,"duration":0.2979166666666657},{"name":"A5","midi":81,"time":34.66875000000011,"velocity":0.5039370078740157,"duration":0.1458333333333286},{"name":"C4","midi":60,"time":34.67083333333344,"velocity":0.6062992125984252,"duration":0.5833333333333215},{"name":"A#5","midi":82,"time":34.81666666666677,"velocity":0.5039370078740157,"duration":0.14374999999999716},{"name":"C6","midi":84,"time":34.9625000000001,"velocity":0.5039370078740157,"duration":0.28958333333333286},{"name":"F5","midi":77,"time":35.25416666666676,"velocity":0.5748031496062992,"duration":0.14374999999999716},{"name":"A3","midi":57,"time":35.256250000000094,"velocity":0.6062992125984252,"duration":0.5812500000000043},{"name":"G5","midi":79,"time":35.39791666666676,"velocity":0.5748031496062992,"duration":0.1458333333333357},{"name":"D#5","midi":75,"time":35.543750000000095,"velocity":0.5748031496062992,"duration":0.29375000000000284},{"name":"D5","midi":74,"time":35.83958333333343,"velocity":0.5748031496062992,"duration":0.5874999999999986},{"name":"C4","midi":60,"time":35.83958333333343,"velocity":0.5354330708661418,"duration":0.10625000000000284},{"name":"A#3","midi":58,"time":35.94583333333343,"velocity":0.5354330708661418,"duration":0.10625000000000284},{"name":"C4","midi":60,"time":36.05416666666677,"velocity":0.5354330708661418,"duration":0.10625000000000284},{"name":"A#5","midi":82,"time":36.1312500000001,"velocity":0.5039370078740157,"duration":0.29374999999999574},{"name":"A#3","midi":58,"time":36.1625000000001,"velocity":0.5354330708661418,"duration":0.1041666666666643},{"name":"C4","midi":60,"time":36.2687500000001,"velocity":0.5354330708661418,"duration":0.10625000000000284},{"name":"A#3","midi":58,"time":36.37708333333343,"velocity":0.5354330708661418,"duration":0.10624999999999574},{"name":"D#5","midi":75,"time":36.42708333333343,"velocity":0.5748031496062992,"duration":0.5729166666666572},{"name":"G5","midi":79,"time":36.42708333333343,"velocity":0.5275590551181102,"duration":0.2874999999999943},{"name":"C4","midi":60,"time":36.48541666666676,"velocity":0.5354330708661418,"duration":0.1041666666666643},{"name":"A#3","midi":58,"time":36.58958333333342,"velocity":0.5354330708661418,"duration":0.10625000000000284},{"name":"C4","midi":60,"time":36.695833333333425,"velocity":0.5354330708661418,"duration":0.1041666666666643},{"name":"A#5","midi":82,"time":36.71458333333342,"velocity":0.5039370078740157,"duration":0.2854166666666629},{"name":"A#3","midi":58,"time":36.80000000000009,"velocity":0.5354330708661418,"duration":0.1041666666666643},{"name":"C4","midi":60,"time":36.904166666666754,"velocity":0.5354330708661418,"duration":0.10208333333333286},{"name":"D5","midi":74,"time":37.00208333333342,"velocity":0.5748031496062992,"duration":0.5645833333333243},{"name":"F5","midi":77,"time":37.00208333333342,"velocity":0.5275590551181102,"duration":0.27916666666666146},{"name":"A#3","midi":58,"time":37.00833333333342,"velocity":0.5354330708661418,"duration":0.10208333333333286},{"name":"C4","midi":60,"time":37.11250000000008,"velocity":0.5354330708661418,"duration":0.10208333333333286},{"name":"A#3","midi":58,"time":37.21666666666675,"velocity":0.5354330708661418,"duration":0.10208333333333286},{"name":"A#5","midi":82,"time":37.28333333333341,"velocity":0.5039370078740157,"duration":0.28333333333333144},{"name":"C4","midi":60,"time":37.32083333333341,"velocity":0.5354330708661418,"duration":0.1041666666666643},{"name":"A#3","midi":58,"time":37.425000000000075,"velocity":0.5354330708661418,"duration":0.10208333333333286},{"name":"C4","midi":60,"time":37.52916666666674,"velocity":0.5354330708661418,"duration":0.10208333333333286},{"name":"C5","midi":72,"time":37.56875000000007,"velocity":0.5748031496062992,"duration":0.5645833333333243},{"name":"D#5","midi":75,"time":37.56875000000007,"velocity":0.5748031496062992,"duration":0.27916666666666146},{"name":"A#3","midi":58,"time":37.63125000000007,"velocity":0.5354330708661418,"duration":0.10208333333333286},{"name":"C4","midi":60,"time":37.73541666666674,"velocity":0.5354330708661418,"duration":0.10208333333333286},{"name":"A#3","midi":58,"time":37.8395833333334,"velocity":0.5354330708661418,"duration":0.10208333333333286},{"name":"A#5","midi":82,"time":37.850000000000065,"velocity":0.5039370078740157,"duration":0.28333333333333144},{"name":"C4","midi":60,"time":37.943750000000065,"velocity":0.5354330708661418,"duration":0.10208333333333286},{"name":"A#3","midi":58,"time":38.04791666666673,"velocity":0.5354330708661418,"duration":0.10208333333333286},{"name":"D5","midi":74,"time":38.13541666666673,"velocity":0.5748031496062992,"duration":0.5687500000000014},{"name":"F5","midi":77,"time":38.13541666666673,"velocity":0.5275590551181102,"duration":0.27916666666666856},{"name":"C4","midi":60,"time":38.15000000000006,"velocity":0.5354330708661418,"duration":0.10208333333333286},{"name":"A#3","midi":58,"time":38.252083333333395,"velocity":0.5354330708661418,"duration":0.10625000000000284},{"name":"C4","midi":60,"time":38.3583333333334,"velocity":0.5354330708661418,"duration":0.1041666666666643},{"name":"A#5","midi":82,"time":38.4145833333334,"velocity":0.5039370078740157,"duration":0.28958333333333286},{"name":"A#3","midi":58,"time":38.46250000000006,"velocity":0.5354330708661418,"duration":0.10625000000000284},{"name":"C4","midi":60,"time":38.568750000000065,"velocity":0.5354330708661418,"duration":0.10625000000000284},{"name":"A#3","midi":58,"time":38.6770833333334,"velocity":0.5354330708661418,"duration":0.10624999999999574},{"name":"G5","midi":79,"time":38.70625000000006,"velocity":0.5275590551181102,"duration":0.29375000000000284},{"name":"D#5","midi":75,"time":38.70625000000006,"velocity":0.5748031496062992,"duration":0.59375},{"name":"C4","midi":60,"time":38.78541666666673,"velocity":0.5354330708661418,"duration":0.10625000000000284},{"name":"A#3","midi":58,"time":38.89375000000006,"velocity":0.5354330708661418,"duration":0.10625000000000284},{"name":"A#5","midi":82,"time":39.002083333333395,"velocity":0.5039370078740157,"duration":0.2979166666666657},{"name":"C4","midi":60,"time":39.002083333333395,"velocity":0.5354330708661418,"duration":0.10833333333333428},{"name":"A#3","midi":58,"time":39.11041666666673,"velocity":0.5354330708661418,"duration":0.11041666666666572},{"name":"C4","midi":60,"time":39.220833333333395,"velocity":0.5354330708661418,"duration":0.10833333333332718},{"name":"F5","midi":77,"time":39.30208333333339,"velocity":0.5275590551181102,"duration":0.2979166666666586},{"name":"D5","midi":74,"time":39.30208333333339,"velocity":0.5748031496062992,"duration":0.5999999999999943},{"name":"A#3","midi":58,"time":39.331250000000054,"velocity":0.5354330708661418,"duration":0.10833333333333428},{"name":"C4","midi":60,"time":39.44166666666672,"velocity":0.5354330708661418,"duration":0.10833333333333428},{"name":"A#3","midi":58,"time":39.550000000000054,"velocity":0.5354330708661418,"duration":0.11041666666666572},{"name":"A#5","midi":82,"time":39.60000000000005,"velocity":0.5039370078740157,"duration":0.3020833333333357},{"name":"C4","midi":60,"time":39.66041666666672,"velocity":0.5354330708661418,"duration":0.11041666666666572},{"name":"A#3","midi":58,"time":39.770833333333385,"velocity":0.5354330708661418,"duration":0.10833333333333428},{"name":"C4","midi":60,"time":39.88125000000005,"velocity":0.5354330708661418,"duration":0.10625000000000284},{"name":"D#5","midi":75,"time":39.90416666666672,"velocity":0.5748031496062992,"duration":0.2874999999999943},{"name":"C5","midi":72,"time":39.90416666666672,"velocity":0.5748031496062992,"duration":0.5895833333333229},{"name":"A#3","midi":58,"time":39.989583333333385,"velocity":0.5354330708661418,"duration":0.1041666666666643},{"name":"C4","midi":60,"time":40.09583333333338,"velocity":0.5354330708661418,"duration":0.10624999999999574},{"name":"A5","midi":81,"time":40.193750000000044,"velocity":0.5039370078740157,"duration":0.29999999999999716},{"name":"A#3","midi":58,"time":40.20208333333338,"velocity":0.5354330708661418,"duration":0.11041666666666572},{"name":"C4","midi":60,"time":40.31250000000004,"velocity":0.5354330708661418,"duration":0.11041666666666572},{"name":"A#3","midi":58,"time":40.42291666666671,"velocity":0.5354330708661418,"duration":0.3687499999999986},{"name":"D5","midi":74,"time":40.49375000000004,"velocity":0.5748031496062992,"duration":0.5999999999999943},{"name":"A#5","midi":82,"time":40.49583333333337,"velocity":0.5039370078740157,"duration":3.545833333333313},{"name":"A#2","midi":46,"time":40.79375000000004,"velocity":0.6062992125984252,"duration":0.29999999999999716},{"name":"D#5","midi":75,"time":41.093750000000036,"velocity":0.5748031496062992,"duration":0.59375},{"name":"C3","midi":48,"time":41.09583333333337,"velocity":0.6062992125984252,"duration":0.1458333333333357},{"name":"D3","midi":50,"time":41.243750000000034,"velocity":0.6062992125984252,"duration":0.14999999999999858},{"name":"D#3","midi":51,"time":41.39375000000003,"velocity":0.6062992125984252,"duration":0.29375000000000284},{"name":"F5","midi":77,"time":41.687500000000036,"velocity":0.5748031496062992,"duration":0.5791666666666657},{"name":"D3","midi":50,"time":41.68958333333337,"velocity":0.6062992125984252,"duration":0.2875000000000014},{"name":"A#2","midi":46,"time":41.97708333333337,"velocity":0.6062992125984252,"duration":0.2875000000000014},{"name":"G5","midi":79,"time":42.2666666666667,"velocity":0.5748031496062992,"duration":0.5895833333333229},{"name":"D#3","midi":51,"time":42.26875000000003,"velocity":0.6062992125984252,"duration":0.14374999999999716},{"name":"F3","midi":53,"time":42.41458333333336,"velocity":0.6062992125984252,"duration":0.14374999999999716},{"name":"G3","midi":55,"time":42.56041666666669,"velocity":0.6062992125984252,"duration":0.29375000000000284},{"name":"D5","midi":74,"time":42.856250000000024,"velocity":0.5748031496062992,"duration":0.5979166666666629},{"name":"F3","midi":53,"time":42.858333333333356,"velocity":0.6062992125984252,"duration":0.2958333333333343},{"name":"A#2","midi":46,"time":43.15625000000002,"velocity":0.6062992125984252,"duration":0.2958333333333343},{"name":"D#5","midi":75,"time":43.45416666666669,"velocity":0.5748031496062992,"duration":0.8812499999999943},{"name":"G3","midi":55,"time":43.45625000000002,"velocity":0.6062992125984252,"duration":0.14374999999999716},{"name":"G#3","midi":56,"time":43.600000000000016,"velocity":0.6062992125984252,"duration":0.14791666666666714},{"name":"A#3","midi":58,"time":43.74791666666668,"velocity":0.6062992125984252,"duration":0.29375000000000284},{"name":"F5","midi":77,"time":44.04375000000002,"velocity":0.5748031496062992,"duration":1.2041666666666586},{"name":"G#3","midi":56,"time":44.04375000000002,"velocity":0.6062992125984252,"duration":0.14374999999999716},{"name":"A#3","midi":58,"time":44.187500000000014,"velocity":0.6062992125984252,"duration":0.14791666666666714},{"name":"D5","midi":74,"time":44.33750000000001,"velocity":0.5748031496062992,"duration":0.2958333333333343},{"name":"G#3","midi":56,"time":44.33750000000001,"velocity":0.6062992125984252,"duration":0.2958333333333343},{"name":"B4","midi":71,"time":44.63541666666668,"velocity":0.5748031496062992,"duration":0.2979166666666657},{"name":"G3","midi":55,"time":44.63541666666668,"velocity":0.6062992125984252,"duration":0.14791666666666714},{"name":"G#3","midi":56,"time":44.783333333333346,"velocity":0.6062992125984252,"duration":0.14999999999999858},{"name":"D5","midi":74,"time":44.935416666666676,"velocity":0.5590551181102362,"duration":0.31041666666666856},{"name":"F3","midi":53,"time":44.935416666666676,"velocity":0.6062992125984252,"duration":0.31041666666666856},{"name":"G4","midi":67,"time":45.247916666666676,"velocity":0.6062992125984252,"duration":1.468749999999993},{"name":"B3","midi":59,"time":45.25000000000001,"velocity":0.6062992125984252,"duration":0.5833333333333357},{"name":"G5","midi":79,"time":45.53958333333334,"velocity":0.5433070866141733,"duration":0.14791666666666714},{"name":"F5","midi":77,"time":45.68750000000001,"velocity":0.5433070866141733,"duration":0.1458333333333357},{"name":"D#5","midi":75,"time":45.835416666666674,"velocity":0.5433070866141733,"duration":0.1458333333333357},{"name":"G3","midi":55,"time":45.835416666666674,"velocity":0.6062992125984252,"duration":0.5874999999999986},{"name":"F5","midi":77,"time":45.98333333333334,"velocity":0.5433070866141733,"duration":0.14374999999999716},{"name":"D5","midi":74,"time":46.12916666666667,"velocity":0.5433070866141733,"duration":0.29375000000000284},{"name":"D#5","midi":75,"time":46.425000000000004,"velocity":0.5433070866141733,"duration":1.1479166666666671},{"name":"C4","midi":60,"time":46.425000000000004,"velocity":0.6062992125984252,"duration":0.5791666666666657},{"name":"C5","midi":72,"time":46.71666666666667,"velocity":0.5433070866141733,"duration":0.15625},{"name":"A#4","midi":70,"time":46.860416666666666,"velocity":0.5433070866141733,"duration":0.15625},{"name":"G#4","midi":68,"time":47.00416666666667,"velocity":0.5590551181102362,"duration":0.15625},{"name":"A#3","midi":58,"time":47.00625,"velocity":0.6062992125984252,"duration":0.56666666666667},{"name":"A#4","midi":70,"time":47.14791666666667,"velocity":0.5433070866141733,"duration":0.1562500000000071},{"name":"C5","midi":72,"time":47.28958333333334,"velocity":0.5433070866141733,"duration":0.31041666666666146},{"name":"F4","midi":65,"time":47.575,"velocity":0.6062992125984252,"duration":1.45624999999999},{"name":"G#3","midi":56,"time":47.575,"velocity":0.6062992125984252,"duration":0.5791666666666657},{"name":"F5","midi":77,"time":47.860416666666666,"velocity":0.5433070866141733,"duration":0.1458333333333357},{"name":"D#5","midi":75,"time":48.00625,"velocity":0.5433070866141733,"duration":0.14791666666666714},{"name":"D5","midi":74,"time":48.15625,"velocity":0.5433070866141733,"duration":0.14374999999999716},{"name":"F3","midi":53,"time":48.15625,"velocity":0.6062992125984252,"duration":0.5874999999999915},{"name":"D#5","midi":75,"time":48.3,"velocity":0.5433070866141733,"duration":0.14791666666666714},{"name":"C5","midi":72,"time":48.449999999999996,"velocity":0.5433070866141733,"duration":0.2916666666666643},{"name":"D5","midi":74,"time":48.74374999999999,"velocity":0.5433070866141733,"duration":1.1395833333333272},{"name":"A#3","midi":58,"time":48.74583333333332,"velocity":0.6062992125984252,"duration":0.56666666666667},{"name":"A#4","midi":70,"time":49.033333333333324,"velocity":0.5433070866141733,"duration":0.15208333333333712},{"name":"G#4","midi":68,"time":49.17291666666666,"velocity":0.5590551181102362,"duration":0.15208333333333002},{"name":"G4","midi":67,"time":49.31249999999999,"velocity":0.6062992125984252,"duration":0.13958333333332718},{"name":"G#3","midi":56,"time":49.314583333333324,"velocity":0.6062992125984252,"duration":0.5666666666666629},{"name":"G#4","midi":68,"time":49.45208333333332,"velocity":0.5590551181102362,"duration":0.15625},{"name":"A#4","midi":70,"time":49.593749999999986,"velocity":0.5433070866141733,"duration":0.3187499999999943},{"name":"D#4","midi":63,"time":49.88333333333332,"velocity":0.6062992125984252,"duration":1.4625000000000057},{"name":"G3","midi":55,"time":49.88541666666665,"velocity":0.6062992125984252,"duration":0.5854166666666671},{"name":"D#5","midi":75,"time":50.17499999999998,"velocity":0.5433070866141733,"duration":0.14999999999999858},{"name":"D5","midi":74,"time":50.32499999999998,"velocity":0.5433070866141733,"duration":0.1458333333333357},{"name":"C5","midi":72,"time":50.47291666666665,"velocity":0.5433070866141733,"duration":0.1458333333333357},{"name":"D#3","midi":51,"time":50.47291666666665,"velocity":0.6062992125984252,"duration":0.5875000000000057},{"name":"D5","midi":74,"time":50.618749999999984,"velocity":0.5433070866141733,"duration":0.15833333333333854},{"name":"B4","midi":71,"time":50.76458333333332,"velocity":0.5433070866141733,"duration":0.29375000000000284},{"name":"C5","midi":72,"time":51.060416666666654,"velocity":0.5433070866141733,"duration":1.1437499999999972},{"name":"G#3","midi":56,"time":51.060416666666654,"velocity":0.6062992125984252,"duration":0.56666666666667},{"name":"G#4","midi":68,"time":51.345833333333324,"velocity":0.5590551181102362,"duration":0.14166666666666572},{"name":"G4","midi":67,"time":51.48749999999999,"velocity":0.6062992125984252,"duration":0.13958333333333428},{"name":"G3","midi":55,"time":51.629166666666656,"velocity":0.6062992125984252,"duration":0.5749999999999957},{"name":"F4","midi":65,"time":51.629166666666656,"velocity":0.6062992125984252,"duration":0.14166666666666572},{"name":"G4","midi":67,"time":51.77291666666665,"velocity":0.6062992125984252,"duration":0.14166666666666572},{"name":"G#4","midi":68,"time":51.91666666666665,"velocity":0.5590551181102362,"duration":0.28541666666667},{"name":"D4","midi":62,"time":52.20624999999998,"velocity":0.6062992125984252,"duration":1.4708333333333314},{"name":"F3","midi":53,"time":52.20624999999998,"velocity":0.6062992125984252,"duration":0.5854166666666671},{"name":"D5","midi":74,"time":52.49791666666665,"velocity":0.5590551181102362,"duration":0.1458333333333357},{"name":"C5","midi":72,"time":52.64374999999998,"velocity":0.5590551181102362,"duration":0.14791666666666714},{"name":"B4","midi":71,"time":52.79374999999998,"velocity":0.5590551181102362,"duration":0.14374999999999716},{"name":"D3","midi":50,"time":52.79374999999998,"velocity":0.6062992125984252,"duration":0.59375},{"name":"C5","midi":72,"time":52.93749999999998,"velocity":0.5590551181102362,"duration":0.15625},{"name":"A4","midi":69,"time":53.09374999999998,"velocity":0.5590551181102362,"duration":0.29375000000000284},{"name":"A#4","midi":70,"time":53.38958333333331,"velocity":0.5590551181102362,"duration":1.1541666666666544},{"name":"G3","midi":55,"time":53.38958333333331,"velocity":0.6062992125984252,"duration":0.5770833333333272},{"name":"D#4","midi":63,"time":53.677083333333314,"velocity":0.6062992125984252,"duration":0.14374999999999716},{"name":"F4","midi":65,"time":53.82291666666664,"velocity":0.6062992125984252,"duration":0.14166666666666572},{"name":"D#4","midi":63,"time":53.96666666666664,"velocity":0.6062992125984252,"duration":0.14166666666666572},{"name":"G2","midi":43,"time":53.96874999999997,"velocity":0.6062992125984252,"duration":0.5729166666666643},{"name":"F4","midi":65,"time":54.11041666666664,"velocity":0.6062992125984252,"duration":0.14166666666666572},{"name":"D4","midi":62,"time":54.254166666666634,"velocity":0.6062992125984252,"duration":0.2875000000000014},{"name":"D#4","midi":63,"time":54.54374999999997,"velocity":0.6062992125984252,"duration":0.5916666666666544},{"name":"D3","midi":50,"time":54.5458333333333,"velocity":0.5354330708661418,"duration":0.1041666666666643},{"name":"C3","midi":48,"time":54.64999999999996,"velocity":0.5354330708661418,"duration":0.1041666666666643},{"name":"D3","midi":50,"time":54.75624999999996,"velocity":0.5354330708661418,"duration":0.10833333333333428},{"name":"C5","midi":72,"time":54.83333333333329,"velocity":0.5748031496062992,"duration":0.3291666666666586},{"name":"C3","midi":48,"time":54.866666666666625,"velocity":0.5354330708661418,"duration":0.10833333333333428},{"name":"D3","midi":50,"time":54.97499999999996,"velocity":0.5354330708661418,"duration":0.11041666666666572},{"name":"C3","midi":48,"time":55.085416666666625,"velocity":0.5354330708661418,"duration":0.10833333333332718},{"name":"G#4","midi":68,"time":55.13541666666662,"velocity":0.5748031496062992,"duration":0.29374999999999574},{"name":"F4","midi":65,"time":55.13749999999995,"velocity":0.6062992125984252,"duration":0.58541666666666},{"name":"D3","midi":50,"time":55.19374999999995,"velocity":0.5354330708661418,"duration":0.10625000000000284},{"name":"C3","midi":48,"time":55.302083333333286,"velocity":0.5354330708661418,"duration":0.10625000000000284},{"name":"D3","midi":50,"time":55.41041666666662,"velocity":0.5354330708661418,"duration":0.10624999999999574},{"name":"C5","midi":72,"time":55.42916666666662,"velocity":0.5748031496062992,"duration":0.32083333333332575},{"name":"C3","midi":48,"time":55.51874999999995,"velocity":0.5354330708661418,"duration":0.10625000000000284},{"name":"D3","midi":50,"time":55.62708333333328,"velocity":0.5354330708661418,"duration":0.10624999999999574},{"name":"G4","midi":67,"time":55.724999999999945,"velocity":0.6062992125984252,"duration":0.29375000000000284},{"name":"D#4","midi":63,"time":55.724999999999945,"velocity":0.6062992125984252,"duration":0.5812500000000043},{"name":"C3","midi":48,"time":55.73333333333328,"velocity":0.5354330708661418,"duration":0.10833333333333428},{"name":"D3","midi":50,"time":55.84166666666661,"velocity":0.5354330708661418,"duration":0.10625000000000284},{"name":"C3","midi":48,"time":55.947916666666615,"velocity":0.5354330708661418,"duration":0.10625000000000284},{"name":"C5","midi":72,"time":56.01874999999995,"velocity":0.5748031496062992,"duration":0.31458333333333144},{"name":"D3","midi":50,"time":56.05624999999995,"velocity":0.5354330708661418,"duration":0.10625000000000284},{"name":"C3","midi":48,"time":56.16249999999995,"velocity":0.5354330708661418,"duration":0.1041666666666643},{"name":"D3","midi":50,"time":56.26874999999995,"velocity":0.5354330708661418,"duration":0.10624999999999574},{"name":"F4","midi":65,"time":56.30624999999995,"velocity":0.6062992125984252,"duration":0.2916666666666572},{"name":"D4","midi":62,"time":56.30624999999995,"velocity":0.6062992125984252,"duration":0.5833333333333144},{"name":"C3","midi":48,"time":56.37499999999994,"velocity":0.5354330708661418,"duration":0.1041666666666643},{"name":"D3","midi":50,"time":56.47916666666661,"velocity":0.5354330708661418,"duration":0.10833333333333428},{"name":"C3","midi":48,"time":56.58749999999994,"velocity":0.5354330708661418,"duration":0.10624999999999574},{"name":"C5","midi":72,"time":56.59999999999994,"velocity":0.5748031496062992,"duration":0.3187499999999872},{"name":"D3","midi":50,"time":56.69583333333327,"velocity":0.5354330708661418,"duration":0.1041666666666643},{"name":"C3","midi":48,"time":56.802083333333265,"velocity":0.5354330708661418,"duration":0.1041666666666643},{"name":"G4","midi":67,"time":56.891666666666595,"velocity":0.6062992125984252,"duration":0.2854166666666629},{"name":"D#4","midi":63,"time":56.891666666666595,"velocity":0.6062992125984252,"duration":0.5749999999999886},{"name":"D3","midi":50,"time":56.90833333333326,"velocity":0.5354330708661418,"duration":0.10624999999999574},{"name":"C3","midi":48,"time":57.014583333333256,"velocity":0.5354330708661418,"duration":0.10625000000000284},{"name":"D3","midi":50,"time":57.12083333333326,"velocity":0.5354330708661418,"duration":0.10624999999999574},{"name":"C5","midi":72,"time":57.17916666666659,"velocity":0.5748031496062992,"duration":0.31458333333332433},{"name":"C3","midi":48,"time":57.229166666666586,"velocity":0.5354330708661418,"duration":0.1041666666666643},{"name":"D3","midi":50,"time":57.33541666666658,"velocity":0.5354330708661418,"duration":0.10208333333333286},{"name":"C3","midi":48,"time":57.437499999999915,"velocity":0.5354330708661418,"duration":0.10208333333333286},{"name":"G#4","midi":68,"time":57.46666666666658,"velocity":0.5748031496062992,"duration":0.27916666666666146},{"name":"F4","midi":65,"time":57.468749999999915,"velocity":0.6062992125984252,"duration":0.55416666666666},{"name":"D3","midi":50,"time":57.54166666666658,"velocity":0.5354330708661418,"duration":0.10000000000000142},{"name":"C3","midi":48,"time":57.64374999999991,"velocity":0.5354330708661418,"duration":0.10000000000000142},{"name":"C5","midi":72,"time":57.745833333333245,"velocity":0.5748031496062992,"duration":0.30416666666666003},{"name":"D3","midi":50,"time":57.747916666666576,"velocity":0.5354330708661418,"duration":0.09791666666666998},{"name":"C3","midi":48,"time":57.84791666666658,"velocity":0.5354330708661418,"duration":0.10000000000000142},{"name":"D3","midi":50,"time":57.94999999999991,"velocity":0.5354330708661418,"duration":0.09999999999999432},{"name":"D#4","midi":63,"time":58.022916666666575,"velocity":0.6062992125984252,"duration":0.5624999999999858},{"name":"G4","midi":67,"time":58.024999999999906,"velocity":0.6062992125984252,"duration":0.27708333333333},{"name":"C3","midi":48,"time":58.052083333333236,"velocity":0.5354330708661418,"duration":0.10000000000000142},{"name":"D3","midi":50,"time":58.15208333333324,"velocity":0.5354330708661418,"duration":0.1041666666666643},{"name":"C3","midi":48,"time":58.2562499999999,"velocity":0.5354330708661418,"duration":0.10208333333333286},{"name":"C5","midi":72,"time":58.302083333333236,"velocity":0.5748031496062992,"duration":0.3124999999999858},{"name":"D3","midi":50,"time":58.358333333333235,"velocity":0.5354330708661418,"duration":0.1041666666666643},{"name":"C3","midi":48,"time":58.4624999999999,"velocity":0.5354330708661418,"duration":0.1041666666666643},{"name":"D3","midi":50,"time":58.56666666666656,"velocity":0.5354330708661418,"duration":0.10416666666665719},{"name":"D4","midi":62,"time":58.58749999999989,"velocity":0.6062992125984252,"duration":0.5708333333333115},{"name":"F4","midi":65,"time":58.58749999999989,"velocity":0.6062992125984252,"duration":0.28333333333332433},{"name":"C3","midi":48,"time":58.67083333333322,"velocity":0.5354330708661418,"duration":0.1041666666666643},{"name":"D3","midi":50,"time":58.774999999999885,"velocity":0.5354330708661418,"duration":0.1041666666666643},{"name":"B4","midi":71,"time":58.870833333333216,"velocity":0.5748031496062992,"duration":0.2874999999999872},{"name":"C3","midi":48,"time":58.88124999999988,"velocity":0.5354330708661418,"duration":0.1041666666666643},{"name":"D3","midi":50,"time":58.987499999999876,"velocity":0.5354330708661418,"duration":0.1041666666666643},{"name":"C3","midi":48,"time":59.09374999999987,"velocity":0.5354330708661418,"duration":0.3541666666666643},{"name":"C5","midi":72,"time":59.160416666666535,"velocity":0.5748031496062992,"duration":1.1541666666666544},{"name":"D#4","midi":63,"time":59.160416666666535,"velocity":0.6062992125984252,"duration":0.5770833333333272},{"name":"G2","midi":43,"time":59.44999999999987,"velocity":0.6062992125984252,"duration":0.14166666666666572},{"name":"F2","midi":41,"time":59.593749999999865,"velocity":0.6062992125984252,"duration":0.14166666666666572},{"name":"G4","midi":67,"time":59.73749999999986,"velocity":0.6062992125984252,"duration":1.1541666666666544},{"name":"D#2","midi":39,"time":59.739583333333194,"velocity":0.6062992125984252,"duration":0.13958333333333428},{"name":"F2","midi":41,"time":59.88124999999986,"velocity":0.6062992125984252,"duration":0.14374999999999716},{"name":"G2","midi":43,"time":60.02499999999986,"velocity":0.6062992125984252,"duration":0.2875000000000014},{"name":"D#5","midi":75,"time":60.31458333333319,"velocity":0.5748031496062992,"duration":1.1645833333333258},{"name":"C2","midi":36,"time":60.31458333333319,"velocity":0.6062992125984252,"duration":0.2875000000000014},{"name":"C4","midi":60,"time":60.60416666666652,"velocity":0.6062992125984252,"duration":0.14374999999999716},{"name":"A#3","midi":58,"time":60.74791666666652,"velocity":0.6062992125984252,"duration":0.14374999999999716},{"name":"C5","midi":72,"time":60.89166666666652,"velocity":0.5748031496062992,"duration":2.15208333333333},{"name":"A3","midi":57,"time":60.89374999999985,"velocity":0.6062992125984252,"duration":0.14374999999999716},{"name":"A#3","midi":58,"time":61.037499999999845,"velocity":0.6062992125984252,"duration":0.14791666666666714},{"name":"C4","midi":60,"time":61.18541666666651,"velocity":0.6062992125984252,"duration":0.29375000000000284},{"name":"F#3","midi":54,"time":61.48124999999985,"velocity":0.6062992125984252,"duration":2.33124999999999},{"name":"A5","midi":81,"time":61.77499999999985,"velocity":0.5748031496062992,"duration":0.1458333333333357},{"name":"G5","midi":79,"time":61.92291666666652,"velocity":0.5748031496062992,"duration":0.1458333333333357},{"name":"F#5","midi":78,"time":62.070833333333184,"velocity":0.5748031496062992,"duration":0.14374999999999716},{"name":"G5","midi":79,"time":62.21666666666651,"velocity":0.5748031496062992,"duration":0.14791666666666714},{"name":"A5","midi":81,"time":62.36458333333318,"velocity":0.5748031496062992,"duration":0.2916666666666643},{"name":"D5","midi":74,"time":62.658333333333175,"velocity":0.5748031496062992,"duration":0.2875000000000014},{"name":"D#5","midi":75,"time":62.94583333333318,"velocity":0.5748031496062992,"duration":0.86666666666666},{"name":"C5","midi":72,"time":63.09166666666651,"velocity":0.5748031496062992,"duration":0.14374999999999716},{"name":"A4","midi":69,"time":63.23541666666651,"velocity":0.5748031496062992,"duration":0.14374999999999716},{"name":"A#4","midi":70,"time":63.37916666666651,"velocity":0.5748031496062992,"duration":0.14374999999999716},{"name":"C5","midi":72,"time":63.524999999999835,"velocity":0.5748031496062992,"duration":0.28541666666667},{"name":"D5","midi":74,"time":63.81458333333317,"velocity":0.5748031496062992,"duration":0.5874999999999844},{"name":"A#4","midi":70,"time":63.81458333333317,"velocity":0.5748031496062992,"duration":0.5874999999999844},{"name":"G3","midi":55,"time":63.8166666666665,"velocity":0.6062992125984252,"duration":0.28958333333333286},{"name":"D3","midi":50,"time":64.10833333333316,"velocity":0.6062992125984252,"duration":0.1458333333333286},{"name":"C3","midi":48,"time":64.25624999999982,"velocity":0.6062992125984252,"duration":0.14374999999999716},{"name":"C5","midi":72,"time":64.40416666666648,"velocity":0.5748031496062992,"duration":0.5833333333333144},{"name":"F#4","midi":66,"time":64.40416666666648,"velocity":0.6062992125984252,"duration":0.581249999999983},{"name":"A#2","midi":46,"time":64.40624999999982,"velocity":0.6062992125984252,"duration":0.14374999999999716},{"name":"C3","midi":48,"time":64.54999999999981,"velocity":0.6062992125984252,"duration":0.14791666666666003},{"name":"D3","midi":50,"time":64.69791666666647,"velocity":0.6062992125984252,"duration":0.2874999999999943},{"name":"A#4","midi":70,"time":64.9874999999998,"velocity":0.5748031496062992,"duration":1.1541666666666544},{"name":"G4","midi":67,"time":64.98958333333313,"velocity":0.6062992125984252,"duration":0.5749999999999886},{"name":"G2","midi":43,"time":64.98958333333313,"velocity":0.6062992125984252,"duration":0.2854166666666629},{"name":"G3","midi":55,"time":65.27708333333312,"velocity":0.6062992125984252,"duration":0.15625},{"name":"F3","midi":53,"time":65.42083333333312,"velocity":0.6062992125984252,"duration":0.15625},{"name":"D#3","midi":51,"time":65.56458333333312,"velocity":0.6062992125984252,"duration":0.15625},{"name":"D4","midi":62,"time":65.56666666666645,"velocity":0.6062992125984252,"duration":0.5729166666666714},{"name":"F3","midi":53,"time":65.70833333333312,"velocity":0.6062992125984252,"duration":0.15625},{"name":"G3","midi":55,"time":65.85208333333311,"velocity":0.6062992125984252,"duration":0.3166666666666771},{"name":"D#4","midi":63,"time":66.14166666666645,"velocity":0.6062992125984252,"duration":3.4812499999999744},{"name":"C3","midi":48,"time":66.14374999999978,"velocity":0.6062992125984252,"duration":2.3062499999999773},{"name":"D#5","midi":75,"time":66.42708333333313,"velocity":0.5748031496062992,"duration":0.14791666666666003},{"name":"D5","midi":74,"time":66.57499999999979,"velocity":0.5748031496062992,"duration":0.14374999999999716},{"name":"C5","midi":72,"time":66.71874999999979,"velocity":0.5748031496062992,"duration":0.14374999999999716},{"name":"D5","midi":74,"time":66.86249999999978,"velocity":0.5748031496062992,"duration":0.14374999999999716},{"name":"D#5","midi":75,"time":67.00624999999978,"velocity":0.5748031496062992,"duration":0.2874999999999943},{"name":"G#4","midi":68,"time":67.2958333333331,"velocity":0.5748031496062992,"duration":0.2854166666666629},{"name":"C5","midi":72,"time":67.5833333333331,"velocity":0.5748031496062992,"duration":0.14374999999999716},{"name":"A#4","midi":70,"time":67.72916666666643,"velocity":0.5748031496062992,"duration":0.14374999999999716},{"name":"G#4","midi":68,"time":67.87291666666643,"velocity":0.5748031496062992,"duration":0.14374999999999716},{"name":"A#4","midi":70,"time":68.01666666666642,"velocity":0.5748031496062992,"duration":0.14374999999999716},{"name":"C5","midi":72,"time":68.16041666666642,"velocity":0.5748031496062992,"duration":0.28958333333333997},{"name":"F#4","midi":66,"time":68.45208333333309,"velocity":0.6062992125984252,"duration":1.1687500000000028},{"name":"D3","midi":50,"time":68.45208333333309,"velocity":0.6062992125984252,"duration":0.2916666666666714},{"name":"A3","midi":57,"time":68.7458333333331,"velocity":0.6062992125984252,"duration":0.14166666666666572},{"name":"A#3","midi":58,"time":68.88958333333309,"velocity":0.6062992125984252,"duration":0.15625},{"name":"C4","midi":60,"time":69.03124999999976,"velocity":0.6062992125984252,"duration":0.15833333333333144},{"name":"A#3","midi":58,"time":69.17708333333309,"velocity":0.6062992125984252,"duration":0.1458333333333428},{"name":"A3","midi":57,"time":69.32291666666643,"velocity":0.6062992125984252,"duration":0.2979166666666657},{"name":"D4","midi":62,"time":69.62291666666643,"velocity":0.6062992125984252,"duration":1.1520833333333087},{"name":"A#3","midi":58,"time":69.62499999999976,"velocity":0.6062992125984252,"duration":0.5729166666666572},{"name":"G4","midi":67,"time":69.90833333333309,"velocity":0.6062992125984252,"duration":0.15833333333333144},{"name":"A4","midi":69,"time":70.05208333333309,"velocity":0.5748031496062992,"duration":0.1458333333333286},{"name":"A#4","midi":70,"time":70.19791666666642,"velocity":0.5748031496062992,"duration":0.14374999999999716},{"name":"D3","midi":50,"time":70.19999999999975,"velocity":0.6062992125984252,"duration":0.5749999999999886},{"name":"A4","midi":69,"time":70.34374999999974,"velocity":0.5748031496062992,"duration":0.14166666666666572},{"name":"G4","midi":67,"time":70.48749999999974,"velocity":0.6062992125984252,"duration":0.31458333333333144},{"name":"C5","midi":72,"time":70.77708333333307,"velocity":0.5748031496062992,"duration":1.1520833333333371},{"name":"A3","midi":57,"time":70.77708333333307,"velocity":0.6062992125984252,"duration":0.5729166666666714},{"name":"F#4","midi":66,"time":71.06249999999974,"velocity":0.6062992125984252,"duration":0.14374999999999716},{"name":"G4","midi":67,"time":71.20833333333307,"velocity":0.6062992125984252,"duration":0.15833333333333144},{"name":"A4","midi":69,"time":71.35208333333307,"velocity":0.5748031496062992,"duration":0.14374999999999716},{"name":"D3","midi":50,"time":71.35208333333307,"velocity":0.6062992125984252,"duration":0.5770833333333343},{"name":"G4","midi":67,"time":71.49583333333307,"velocity":0.6062992125984252,"duration":0.15833333333333144},{"name":"F#4","midi":66,"time":71.6416666666664,"velocity":0.6062992125984252,"duration":0.31458333333334565},{"name":"A#4","midi":70,"time":71.93124999999974,"velocity":0.5748031496062992,"duration":1.1520833333333371},{"name":"G3","midi":55,"time":71.93124999999974,"velocity":0.6062992125984252,"duration":0.5750000000000028},{"name":"E4","midi":64,"time":72.21666666666641,"velocity":0.6062992125984252,"duration":0.15833333333333144},{"name":"F#4","midi":66,"time":72.36041666666641,"velocity":0.6062992125984252,"duration":0.14374999999999716},{"name":"G4","midi":67,"time":72.50624999999974,"velocity":0.6062992125984252,"duration":0.14374999999999716},{"name":"D3","midi":50,"time":72.50833333333307,"velocity":0.6062992125984252,"duration":0.5750000000000028},{"name":"F#4","midi":66,"time":72.64999999999974,"velocity":0.6062992125984252,"duration":0.15833333333333144},{"name":"E4","midi":64,"time":72.79374999999973,"velocity":0.6062992125984252,"duration":0.3187500000000085},{"name":"A4","midi":69,"time":73.0854166666664,"velocity":0.5748031496062992,"duration":1.1770833333333286},{"name":"F#3","midi":54,"time":73.0854166666664,"velocity":0.6062992125984252,"duration":0.5874999999999915},{"name":"D4","midi":62,"time":73.3791666666664,"velocity":0.6062992125984252,"duration":0.16249999999999432},{"name":"E4","midi":64,"time":73.52499999999974,"velocity":0.6062992125984252,"duration":0.16249999999999432},{"name":"D3","midi":50,"time":73.67499999999973,"velocity":0.6062992125984252,"duration":0.5854166666666742},{"name":"F#4","midi":66,"time":73.67499999999973,"velocity":0.6062992125984252,"duration":0.1604166666666771},{"name":"E4","midi":64,"time":73.82083333333307,"velocity":0.6062992125984252,"duration":0.16041666666666288},{"name":"D4","midi":62,"time":73.9666666666664,"velocity":0.6062992125984252,"duration":0.32500000000000284},{"name":"G4","midi":67,"time":74.26249999999973,"velocity":0.6062992125984252,"duration":1.16249999999998},{"name":"E3","midi":52,"time":74.26458333333306,"velocity":0.6062992125984252,"duration":0.5833333333333286},{"name":"C#4","midi":61,"time":74.55624999999974,"velocity":0.6062992125984252,"duration":0.1458333333333286},{"name":"D4","midi":62,"time":74.7041666666664,"velocity":0.6062992125984252,"duration":0.14374999999999716},{"name":"D3","midi":50,"time":74.84999999999972,"velocity":0.6062992125984252,"duration":0.5749999999999886},{"name":"E4","midi":64,"time":74.84999999999972,"velocity":0.6062992125984252,"duration":0.14166666666666572},{"name":"D4","midi":62,"time":74.99166666666639,"velocity":0.6062992125984252,"duration":0.14374999999999716},{"name":"C#4","midi":61,"time":75.13749999999972,"velocity":0.6062992125984252,"duration":0.2874999999999943},{"name":"D4","midi":62,"time":75.42499999999971,"velocity":0.6062992125984252,"duration":1.1333333333333258},{"name":"F#4","midi":66,"time":75.42708333333304,"velocity":0.6062992125984252,"duration":1.1312499999999943},{"name":"C3","midi":48,"time":75.42708333333304,"velocity":0.6062992125984252,"duration":0.28333333333333144},{"name":"A3","midi":57,"time":75.71041666666638,"velocity":0.6062992125984252,"duration":0.15416666666666856},{"name":"G3","midi":55,"time":75.85208333333304,"velocity":0.6062992125984252,"duration":0.15416666666666856},{"name":"F3","midi":53,"time":75.99166666666638,"velocity":0.6062992125984252,"duration":0.15625},{"name":"G3","midi":55,"time":76.13333333333304,"velocity":0.6062992125984252,"duration":0.15625},{"name":"A3","midi":57,"time":76.27499999999971,"velocity":0.6062992125984252,"duration":0.3125},{"name":"A#2","midi":46,"time":76.56041666666637,"velocity":0.6062992125984252,"duration":0.5770833333333343},{"name":"G5","midi":79,"time":76.84791666666638,"velocity":0.5748031496062992,"duration":0.2874999999999943},{"name":"F5","midi":77,"time":77.1374999999997,"velocity":0.5748031496062992,"duration":0.14374999999999716},{"name":"B2","midi":47,"time":77.13958333333304,"velocity":0.6062992125984252,"duration":0.5687499999999943},{"name":"D#5","midi":75,"time":77.28333333333303,"velocity":0.5748031496062992,"duration":0.14166666666666572},{"name":"D5","midi":74,"time":77.42708333333303,"velocity":0.5748031496062992,"duration":0.28125},{"name":"D#5","midi":75,"time":77.71041666666636,"velocity":0.5748031496062992,"duration":0.28333333333333144},{"name":"C3","midi":48,"time":77.71041666666636,"velocity":0.6062992125984252,"duration":0.28125},{"name":"C6","midi":84,"time":77.9937499999997,"velocity":0.5748031496062992,"duration":0.28333333333333144},{"name":"A3","midi":57,"time":77.99583333333302,"velocity":0.6062992125984252,"duration":0.27916666666666856},{"name":"D5","midi":74,"time":78.27708333333302,"velocity":0.5748031496062992,"duration":0.14374999999999716},{"name":"A#2","midi":46,"time":78.27916666666636,"velocity":0.6062992125984252,"duration":0.2854166666666629},{"name":"C5","midi":72,"time":78.42083333333302,"velocity":0.5748031496062992,"duration":0.14374999999999716},{"name":"A#4","midi":70,"time":78.56666666666635,"velocity":0.5748031496062992,"duration":0.2916666666666714},{"name":"G3","midi":55,"time":78.56666666666635,"velocity":0.6062992125984252,"duration":0.2916666666666714},{"name":"C5","midi":72,"time":78.86041666666635,"velocity":0.5748031496062992,"duration":0.2916666666666714},{"name":"A2","midi":45,"time":78.86041666666635,"velocity":0.6062992125984252,"duration":0.2916666666666714},{"name":"A5","midi":81,"time":79.15416666666636,"velocity":0.5748031496062992,"duration":0.2854166666666629},{"name":"F#3","midi":54,"time":79.15416666666636,"velocity":0.6062992125984252,"duration":0.28333333333333144},{"name":"A#4","midi":70,"time":79.43958333333302,"velocity":0.5748031496062992,"duration":0.13958333333333428},{"name":"G2","midi":43,"time":79.44166666666635,"velocity":0.6062992125984252,"duration":0.28125},{"name":"A4","midi":69,"time":79.58124999999968,"velocity":0.5748031496062992,"duration":0.14166666666666572},{"name":"D#3","midi":51,"time":79.72499999999968,"velocity":0.6062992125984252,"duration":0.27916666666666856},{"name":"G4","midi":67,"time":79.72499999999968,"velocity":0.6062992125984252,"duration":0.28125},{"name":"A4","midi":69,"time":80.00624999999968,"velocity":0.5748031496062992,"duration":0.28125},{"name":"F#2","midi":42,"time":80.00624999999968,"velocity":0.6062992125984252,"duration":0.5625},{"name":"D#5","midi":75,"time":80.28958333333301,"velocity":0.5748031496062992,"duration":0.13958333333333428},{"name":"D5","midi":74,"time":80.42916666666635,"velocity":0.5748031496062992,"duration":0.13750000000000284},{"name":"C5","midi":72,"time":80.56874999999968,"velocity":0.5748031496062992,"duration":0.13750000000000284},{"name":"D2","midi":38,"time":80.57083333333301,"velocity":0.6062992125984252,"duration":0.5687499999999943},{"name":"A#4","midi":70,"time":80.70833333333302,"velocity":0.5748031496062992,"duration":0.14166666666666572},{"name":"A4","midi":69,"time":80.85208333333301,"velocity":0.5748031496062992,"duration":0.2874999999999943},{"name":"G2","midi":43,"time":81.14166666666634,"velocity":0.6062992125984252,"duration":0.5666666666666913},{"name":"A#4","midi":70,"time":81.14999999999968,"velocity":0.5748031496062992,"duration":1.1604166666666913},{"name":"A4","midi":69,"time":81.42499999999968,"velocity":0.5748031496062992,"duration":0.15000000000000568},{"name":"G4","midi":67,"time":81.56458333333302,"velocity":0.6062992125984252,"duration":0.15416666666668277},{"name":"F4","midi":65,"time":81.70833333333303,"velocity":0.6062992125984252,"duration":0.1604166666666771},{"name":"G3","midi":55,"time":81.71041666666636,"velocity":0.6062992125984252,"duration":0.5916666666666828},{"name":"D#4","midi":63,"time":81.8562499999997,"velocity":0.6062992125984252,"duration":0.14791666666667425},{"name":"D4","midi":62,"time":82.00624999999971,"velocity":0.6062992125984252,"duration":0.29375000000000284},{"name":"D#4","midi":63,"time":82.30416666666638,"velocity":0.6062992125984252,"duration":1.1416666666666515},{"name":"C3","midi":48,"time":82.30416666666638,"velocity":0.6062992125984252,"duration":1.1416666666666515},{"name":"C5","midi":72,"time":82.5749999999997,"velocity":0.5748031496062992,"duration":0.13750000000000284},{"name":"A#4","midi":70,"time":82.71458333333304,"velocity":0.5748031496062992,"duration":0.14166666666666572},{"name":"G#4","midi":68,"time":82.85416666666637,"velocity":0.5748031496062992,"duration":0.13333333333332575},{"name":"C4","midi":60,"time":82.85833333333304,"velocity":0.6062992125984252,"duration":0.58541666666666},{"name":"A#4","midi":70,"time":83.01458333333304,"velocity":0.5748031496062992,"duration":0.15625},{"name":"F#4","midi":66,"time":83.14166666666637,"velocity":0.6062992125984252,"duration":0.2854166666666629},{"name":"E4","midi":64,"time":83.44791666666636,"velocity":0.6062992125984252,"duration":1.1395833333333343},{"name":"A#3","midi":58,"time":83.44791666666636,"velocity":0.6062992125984252,"duration":1.1416666666666657},{"name":"G4","midi":67,"time":83.44999999999969,"velocity":0.6062992125984252,"duration":2.308333333333337},{"name":"C#3","midi":49,"time":83.7249999999997,"velocity":0.6062992125984252,"duration":0.13958333333333428},{"name":"D3","midi":50,"time":83.86666666666636,"velocity":0.6062992125984252,"duration":0.1354166666666714},{"name":"E3","midi":52,"time":84.00416666666636,"velocity":0.6062992125984252,"duration":0.14374999999999716},{"name":"D3","midi":50,"time":84.14791666666636,"velocity":0.6062992125984252,"duration":0.1458333333333286},{"name":"C#3","midi":49,"time":84.29374999999969,"velocity":0.6062992125984252,"duration":0.29375000000000284},{"name":"D3","midi":50,"time":84.58958333333302,"velocity":0.6062992125984252,"duration":2.3062499999999915},{"name":"A3","midi":57,"time":84.8812499999997,"velocity":0.6062992125984252,"duration":0.14791666666666003},{"name":"A#3","midi":58,"time":85.03124999999969,"velocity":0.6062992125984252,"duration":0.14374999999999716},{"name":"C4","midi":60,"time":85.17499999999968,"velocity":0.6062992125984252,"duration":0.15000000000000568},{"name":"A#3","midi":58,"time":85.32499999999969,"velocity":0.6062992125984252,"duration":0.14374999999999716},{"name":"A3","midi":57,"time":85.46874999999969,"velocity":0.6062992125984252,"duration":0.28958333333333997},{"name":"F#4","midi":66,"time":85.76041666666636,"velocity":0.6062992125984252,"duration":1.1333333333333258},{"name":"D2","midi":38,"time":85.76041666666636,"velocity":0.6062992125984252,"duration":1.1333333333333258},{"name":"C4","midi":60,"time":86.04166666666636,"velocity":0.6062992125984252,"duration":0.14166666666666572},{"name":"D4","midi":62,"time":86.18541666666636,"velocity":0.6062992125984252,"duration":0.13958333333333428},{"name":"D#4","midi":63,"time":86.32708333333302,"velocity":0.6062992125984252,"duration":0.14166666666666572},{"name":"D4","midi":62,"time":86.46874999999969,"velocity":0.6062992125984252,"duration":0.13958333333333428},{"name":"C4","midi":60,"time":86.60833333333302,"velocity":0.6062992125984252,"duration":0.28333333333333144},{"name":"A#3","midi":58,"time":86.89583333333302,"velocity":0.6062992125984252,"duration":0.5625},{"name":"G2","midi":43,"time":86.89791666666635,"velocity":0.6062992125984252,"duration":5.683333333333309},{"name":"D4","midi":62,"time":87.17499999999968,"velocity":0.6062992125984252,"duration":0.14374999999999716},{"name":"G4","midi":67,"time":87.31874999999968,"velocity":0.6062992125984252,"duration":0.13958333333333428},{"name":"B3","midi":59,"time":87.46041666666635,"velocity":0.6062992125984252,"duration":0.5729166666666572},{"name":"F4","midi":65,"time":87.46041666666635,"velocity":0.6062992125984252,"duration":0.13958333333333428},{"name":"D#4","midi":63,"time":87.59999999999968,"velocity":0.6062992125984252,"duration":0.14166666666666572},{"name":"D4","midi":62,"time":87.74374999999968,"velocity":0.6062992125984252,"duration":0.2874999999999943},{"name":"C4","midi":60,"time":88.033333333333,"velocity":0.6062992125984252,"duration":0.5687499999999943},{"name":"D#4","midi":63,"time":88.03541666666634,"velocity":0.6062992125984252,"duration":0.5645833333333314},{"name":"C3","midi":48,"time":88.320833333333,"velocity":0.6062992125984252,"duration":0.13750000000000284},{"name":"G3","midi":55,"time":88.458333333333,"velocity":0.6062992125984252,"duration":0.14166666666666572},{"name":"B3","midi":59,"time":88.602083333333,"velocity":0.6062992125984252,"duration":0.5916666666666686},{"name":"D4","midi":62,"time":88.60416666666633,"velocity":0.6062992125984252,"duration":0.5895833333333371},{"name":"F3","midi":53,"time":88.60416666666633,"velocity":0.6062992125984252,"duration":0.1458333333333286},{"name":"D#3","midi":51,"time":88.74999999999966,"velocity":0.6062992125984252,"duration":0.15000000000000568},{"name":"D3","midi":50,"time":88.902083333333,"velocity":0.6062992125984252,"duration":0.28958333333333997},{"name":"C4","midi":60,"time":89.195833333333,"velocity":0.6062992125984252,"duration":3.7541666666666487},{"name":"D#3","midi":51,"time":89.195833333333,"velocity":0.6062992125984252,"duration":2.2479166666666686},{"name":"G4","midi":67,"time":89.47499999999967,"velocity":0.6062992125984252,"duration":0.13958333333333428},{"name":"C5","midi":72,"time":89.61666666666633,"velocity":0.5748031496062992,"duration":0.1354166666666714},{"name":"A#4","midi":70,"time":89.752083333333,"velocity":0.5748031496062992,"duration":0.14166666666666572},{"name":"A4","midi":69,"time":89.89374999999967,"velocity":0.5748031496062992,"duration":0.1354166666666714},{"name":"G4","midi":67,"time":90.03124999999967,"velocity":0.6062992125984252,"duration":0.27916666666666856},{"name":"A4","midi":69,"time":90.31249999999967,"velocity":0.5748031496062992,"duration":0.28333333333333144},{"name":"C5","midi":72,"time":90.595833333333,"velocity":0.5748031496062992,"duration":0.13958333333333428},{"name":"A4","midi":69,"time":90.73541666666634,"velocity":0.5748031496062992,"duration":0.14166666666666572},{"name":"G4","midi":67,"time":90.877083333333,"velocity":0.6062992125984252,"duration":0.14166666666666572},{"name":"F#4","midi":66,"time":91.020833333333,"velocity":0.6062992125984252,"duration":0.13958333333333428},{"name":"E4","midi":64,"time":91.16249999999967,"velocity":0.6062992125984252,"duration":0.28125},{"name":"F#4","midi":66,"time":91.445833333333,"velocity":0.6062992125984252,"duration":2.52916666666664},{"name":"D#3","midi":51,"time":91.73124999999966,"velocity":0.6062992125984252,"duration":0.14374999999999716},{"name":"D3","midi":50,"time":91.87499999999966,"velocity":0.6062992125984252,"duration":0.1458333333333286},{"name":"C3","midi":48,"time":92.02291666666632,"velocity":0.6062992125984252,"duration":0.15000000000000568},{"name":"D3","midi":50,"time":92.17499999999966,"velocity":0.6062992125984252,"duration":0.15208333333333712},{"name":"D#3","midi":51,"time":92.327083333333,"velocity":0.6062992125984252,"duration":1.6479166666666458},{"name":"G2","midi":43,"time":92.63333333333298,"velocity":0.6062992125984252,"duration":8.027083333333323},{"name":"D4","midi":62,"time":92.95208333333298,"velocity":0.6062992125984252,"duration":0.15833333333333144},{"name":"D#4","midi":63,"time":93.11249999999964,"velocity":0.6062992125984252,"duration":0.15833333333333144},{"name":"D4","midi":62,"time":93.2729166666663,"velocity":0.6062992125984252,"duration":0.16875000000000284},{"name":"D#4","midi":63,"time":93.44166666666631,"velocity":0.6062992125984252,"duration":0.16875000000000284},{"name":"C4","midi":60,"time":93.61249999999964,"velocity":0.6062992125984252,"duration":0.7041666666666657},{"name":"D3","midi":50,"time":93.97708333333297,"velocity":0.6062992125984252,"duration":6.683333333333337},{"name":"G4","midi":67,"time":93.97708333333297,"velocity":0.6062992125984252,"duration":6.685416666666669},{"name":"C4","midi":60,"time":94.34166666666631,"velocity":0.6062992125984252,"duration":0.15833333333333144},{"name":"B3","midi":59,"time":94.49999999999964,"velocity":0.6062992125984252,"duration":0.1666666666666714},{"name":"A3","midi":57,"time":94.66666666666632,"velocity":0.6062992125984252,"duration":0.15833333333333144},{"name":"B3","midi":59,"time":94.82499999999965,"velocity":0.6062992125984252,"duration":0.15208333333333712},{"name":"C4","midi":60,"time":94.97708333333298,"velocity":0.6062992125984252,"duration":0.27291666666666003},{"name":"C4","midi":60,"time":95.3041666666663,"velocity":0.6062992125984252,"duration":0.13958333333333428},{"name":"B3","midi":59,"time":95.44374999999964,"velocity":0.6062992125984252,"duration":0.1666666666666714},{"name":"C4","midi":60,"time":95.61041666666631,"velocity":0.6062992125984252,"duration":0.14166666666666572},{"name":"B3","midi":59,"time":95.75416666666631,"velocity":0.6062992125984252,"duration":0.12291666666666856},{"name":"C4","midi":60,"time":95.87708333333298,"velocity":0.6062992125984252,"duration":0.11666666666666003},{"name":"B3","midi":59,"time":95.99583333333297,"velocity":0.6062992125984252,"duration":0.1145833333333286},{"name":"C4","midi":60,"time":96.11249999999963,"velocity":0.6062992125984252,"duration":0.10208333333333997},{"name":"B3","midi":59,"time":96.2166666666663,"velocity":0.6062992125984252,"duration":0.07916666666666572},{"name":"C4","midi":60,"time":96.2979166666663,"velocity":0.6062992125984252,"duration":0.0625},{"name":"B3","midi":59,"time":96.3604166666663,"velocity":0.6062992125984252,"duration":0.056250000000005684},{"name":"C4","midi":60,"time":96.4166666666663,"velocity":0.6062992125984252,"duration":0.0729166666666714},{"name":"B3","midi":59,"time":96.4916666666663,"velocity":0.6062992125984252,"duration":4.166666666666671},{"name":"D4","midi":62,"time":101.47499999999964,"velocity":0.6062992125984252,"duration":0.4270833333333286},{"name":"D#4","midi":63,"time":101.9041666666663,"velocity":0.6062992125984252,"duration":0.39374999999999716},{"name":"G3","midi":55,"time":102.2979166666663,"velocity":0.6062992125984252,"duration":0.3812499999999943},{"name":"F#3","midi":54,"time":102.67916666666629,"velocity":0.6062992125984252,"duration":0.75833333333334},{"name":"G3","midi":55,"time":103.43749999999963,"velocity":0.6062992125984252,"duration":0.9354166666666686},{"name":"A3","midi":57,"time":104.5854166666663,"velocity":0.6062992125984252,"duration":0.18958333333333144},{"name":"A#3","midi":58,"time":104.77499999999964,"velocity":0.6062992125984252,"duration":0.18125000000000568},{"name":"C4","midi":60,"time":104.95624999999964,"velocity":0.6062992125984252,"duration":0.36666666666666003},{"name":"A#3","midi":58,"time":105.3229166666663,"velocity":0.6062992125984252,"duration":0.18333333333333712},{"name":"A3","midi":57,"time":105.50624999999964,"velocity":0.6062992125984252,"duration":0.18125000000000568},{"name":"A#3","midi":58,"time":105.68958333333298,"velocity":0.6062992125984252,"duration":0.7312499999999886},{"name":"G4","midi":67,"time":106.0541666666663,"velocity":0.6062992125984252,"duration":0.37708333333333144},{"name":"A#4","midi":70,"time":106.42083333333296,"velocity":0.6062992125984252,"duration":0.3645833333333428},{"name":"G3","midi":55,"time":106.4229166666663,"velocity":0.6062992125984252,"duration":0.7541666666666771},{"name":"D4","midi":62,"time":106.78749999999964,"velocity":0.6062992125984252,"duration":0.3645833333333286},{"name":"C#4","midi":61,"time":107.15208333333297,"velocity":0.6062992125984252,"duration":0.7229166666666629},{"name":"A3","midi":57,"time":107.51249999999963,"velocity":0.6062992125984252,"duration":0.18125000000000568},{"name":"G3","midi":55,"time":107.69583333333297,"velocity":0.6062992125984252,"duration":0.17916666666666003},{"name":"D4","midi":62,"time":107.87499999999963,"velocity":0.6062992125984252,"duration":0.7249999999999943},{"name":"F3","midi":53,"time":107.87708333333296,"velocity":0.6062992125984252,"duration":0.3583333333333343},{"name":"G3","midi":55,"time":108.23749999999963,"velocity":0.6062992125984252,"duration":0.18125000000000568},{"name":"A3","midi":57,"time":108.41874999999963,"velocity":0.6062992125984252,"duration":0.17916666666666003},{"name":"A#3","midi":58,"time":108.59999999999962,"velocity":0.6062992125984252,"duration":0.3604166666666657},{"name":"E4","midi":64,"time":108.96041666666629,"velocity":0.6062992125984252,"duration":0.18124999999999147},{"name":"G3","midi":55,"time":108.96249999999962,"velocity":0.6062992125984252,"duration":0.36249999999999716},{"name":"F4","midi":65,"time":109.14166666666628,"velocity":0.6062992125984252,"duration":0.18125000000000568},{"name":"E3","midi":52,"time":109.32499999999962,"velocity":0.6062992125984252,"duration":0.3583333333333343},{"name":"G4","midi":67,"time":109.32499999999962,"velocity":0.6062992125984252,"duration":0.3583333333333343},{"name":"C#4","midi":61,"time":109.68541666666628,"velocity":0.6062992125984252,"duration":0.3604166666666515},{"name":"F4","midi":65,"time":109.68541666666628,"velocity":0.6062992125984252,"duration":0.17916666666666003},{"name":"E4","midi":64,"time":109.86666666666628,"velocity":0.6062992125984252,"duration":0.17916666666666003},{"name":"D4","midi":62,"time":110.04791666666627,"velocity":0.6062992125984252,"duration":1.081249999999983},{"name":"F4","midi":65,"time":110.04791666666627,"velocity":0.6062992125984252,"duration":0.3583333333333343},{"name":"G4","midi":67,"time":110.40833333333293,"velocity":0.6062992125984252,"duration":0.17916666666666003},{"name":"A4","midi":69,"time":110.5874999999996,"velocity":0.6062992125984252,"duration":0.17916666666666003},{"name":"A#4","midi":70,"time":110.76874999999959,"velocity":0.5905511811023622,"duration":0.3604166666666657},{"name":"A4","midi":69,"time":111.13124999999958,"velocity":0.5905511811023622,"duration":0.17916666666666003},{"name":"E4","midi":64,"time":111.13124999999958,"velocity":0.6062992125984252,"duration":0.3604166666666515},{"name":"G4","midi":67,"time":111.31249999999957,"velocity":0.6062992125984252,"duration":0.17916666666666003},{"name":"A4","midi":69,"time":111.49374999999957,"velocity":0.5905511811023622,"duration":0.3604166666666657},{"name":"F4","midi":65,"time":111.49374999999957,"velocity":0.6062992125984252,"duration":0.3583333333333343},{"name":"A#4","midi":70,"time":111.85416666666623,"velocity":0.5905511811023622,"duration":0.17916666666666003},{"name":"E4","midi":64,"time":111.85624999999956,"velocity":0.6062992125984252,"duration":0.35833333333332007},{"name":"C5","midi":72,"time":112.03333333333289,"velocity":0.5905511811023622,"duration":0.17916666666666003},{"name":"D5","midi":74,"time":112.21458333333288,"velocity":0.5905511811023622,"duration":0.3604166666666657},{"name":"F4","midi":65,"time":112.21666666666621,"velocity":0.6062992125984252,"duration":0.3583333333333343},{"name":"C5","midi":72,"time":112.57708333333288,"velocity":0.5905511811023622,"duration":0.1770833333333286},{"name":"G4","midi":67,"time":112.57708333333288,"velocity":0.6062992125984252,"duration":0.3604166666666657},{"name":"A#4","midi":70,"time":112.75624999999954,"velocity":0.5905511811023622,"duration":0.18125000000000568},{"name":"C5","midi":72,"time":112.93958333333288,"velocity":0.5905511811023622,"duration":0.7312500000000028},{"name":"A4","midi":69,"time":112.93958333333288,"velocity":0.5905511811023622,"duration":0.36249999999999716},{"name":"D3","midi":50,"time":113.3041666666662,"velocity":0.6062992125984252,"duration":0.36666666666667425},{"name":"G4","midi":67,"time":113.3041666666662,"velocity":0.6062992125984252,"duration":0.18125000000000568},{"name":"F#4","midi":66,"time":113.48541666666621,"velocity":0.6062992125984252,"duration":0.18333333333333712},{"name":"A#4","midi":70,"time":113.67291666666621,"velocity":0.5905511811023622,"duration":0.7312499999999886},{"name":"G4","midi":67,"time":113.67291666666621,"velocity":0.6062992125984252,"duration":0.36249999999999716},{"name":"D#3","midi":51,"time":113.67499999999954,"velocity":0.6062992125984252,"duration":0.3604166666666657},{"name":"C#4","midi":61,"time":114.03749999999954,"velocity":0.6062992125984252,"duration":0.3645833333333286},{"name":"G2","midi":43,"time":114.03749999999954,"velocity":0.6062992125984252,"duration":0.3645833333333286},{"name":"A4","midi":69,"time":114.4041666666662,"velocity":0.5905511811023622,"duration":0.3645833333333286},{"name":"D4","midi":62,"time":114.4041666666662,"velocity":0.6062992125984252,"duration":0.3645833333333286},{"name":"F#2","midi":42,"time":114.40624999999953,"velocity":0.6062992125984252,"duration":0.7291666666666572},{"name":"D5","midi":74,"time":114.76874999999953,"velocity":0.5905511811023622,"duration":0.18124999999999147},{"name":"A4","midi":69,"time":114.77083333333286,"velocity":0.5905511811023622,"duration":0.7291666666666572},{"name":"C5","midi":72,"time":114.94999999999952,"velocity":0.5905511811023622,"duration":0.18333333333333712},{"name":"A#4","midi":70,"time":115.13541666666619,"velocity":0.5905511811023622,"duration":0.3645833333333286},{"name":"G2","midi":43,"time":115.13749999999952,"velocity":0.6062992125984252,"duration":0.7312499999999886},{"name":"C5","midi":72,"time":115.50208333333285,"velocity":0.5905511811023622,"duration":0.18124999999999147},{"name":"G4","midi":67,"time":115.50208333333285,"velocity":0.6062992125984252,"duration":0.17916666666666003},{"name":"D5","midi":74,"time":115.68333333333284,"velocity":0.5905511811023622,"duration":0.18333333333333712},{"name":"F#4","midi":66,"time":115.68541666666617,"velocity":0.6062992125984252,"duration":0.18125000000000568},{"name":"D#5","midi":75,"time":115.86874999999951,"velocity":0.5905511811023622,"duration":0.36249999999999716},{"name":"G4","midi":67,"time":115.87083333333284,"velocity":0.6062992125984252,"duration":0.7291666666666714},{"name":"C5","midi":72,"time":116.23333333333284,"velocity":0.5905511811023622,"duration":0.36666666666667425},{"name":"A2","midi":45,"time":116.23333333333284,"velocity":0.6062992125984252,"duration":0.18125000000000568},{"name":"A#2","midi":46,"time":116.41458333333284,"velocity":0.6062992125984252,"duration":0.18333333333333712},{"name":"A4","midi":69,"time":116.59999999999951,"velocity":0.5905511811023622,"duration":0.36666666666666003},{"name":"F#4","midi":66,"time":116.60208333333284,"velocity":0.6062992125984252,"duration":0.36249999999999716},{"name":"C3","midi":48,"time":116.60208333333284,"velocity":0.6062992125984252,"duration":0.36249999999999716},{"name":"F#5","midi":78,"time":116.96666666666617,"velocity":0.5905511811023622,"duration":0.36249999999998295},{"name":"A4","midi":69,"time":116.9687499999995,"velocity":0.5905511811023622,"duration":0.3604166666666515},{"name":"A#2","midi":46,"time":116.9687499999995,"velocity":0.6062992125984252,"duration":0.1770833333333286},{"name":"A2","midi":45,"time":117.14791666666616,"velocity":0.6062992125984252,"duration":0.17916666666666003},{"name":"D5","midi":74,"time":117.33124999999949,"velocity":0.5905511811023622,"duration":0.7312499999999886},{"name":"G5","midi":79,"time":117.33124999999949,"velocity":0.5905511811023622,"duration":0.7312499999999886},{"name":"A#2","midi":46,"time":117.33333333333282,"velocity":0.6062992125984252,"duration":0.7270833333333258},{"name":"A3","midi":57,"time":117.69374999999948,"velocity":0.6062992125984252,"duration":0.36666666666666003},{"name":"A#3","midi":58,"time":118.0645833333328,"velocity":0.6062992125984252,"duration":0.3604166666666657},{"name":"G2","midi":43,"time":118.0645833333328,"velocity":0.6062992125984252,"duration":0.7291666666666572},{"name":"D3","midi":50,"time":118.4270833333328,"velocity":0.6062992125984252,"duration":0.3645833333333286},{"name":"C#3","midi":49,"time":118.79374999999946,"velocity":0.6062992125984252,"duration":0.7333333333333343},{"name":"E4","midi":64,"time":119.15833333333279,"velocity":0.6062992125984252,"duration":0.36666666666667425},{"name":"A2","midi":45,"time":119.16041666666612,"velocity":0.6062992125984252,"duration":0.18333333333333712},{"name":"G2","midi":43,"time":119.34374999999946,"velocity":0.6062992125984252,"duration":0.18125000000000568},{"name":"A4","midi":69,"time":119.5270833333328,"velocity":0.6062992125984252,"duration":0.3645833333333286},{"name":"D3","midi":50,"time":119.52916666666613,"velocity":0.6062992125984252,"duration":0.7270833333333115},{"name":"F2","midi":41,"time":119.52916666666613,"velocity":0.6062992125984252,"duration":0.36249999999999716},{"name":"F4","midi":65,"time":119.89374999999946,"velocity":0.6062992125984252,"duration":0.36249999999998295},{"name":"G2","midi":43,"time":119.89374999999946,"velocity":0.6062992125984252,"duration":0.17916666666666003},{"name":"A2","midi":45,"time":120.07499999999945,"velocity":0.6062992125984252,"duration":0.17916666666666003},{"name":"D4","midi":62,"time":120.25833333333277,"velocity":0.6062992125984252,"duration":0.7229166666666629},{"name":"A#2","midi":46,"time":120.25833333333277,"velocity":0.6062992125984252,"duration":0.3583333333333343},{"name":"E3","midi":52,"time":120.61874999999944,"velocity":0.6062992125984252,"duration":0.17916666666666003},{"name":"G2","midi":43,"time":120.61874999999944,"velocity":0.6062992125984252,"duration":0.3604166666666657},{"name":"F3","midi":53,"time":120.7979166666661,"velocity":0.6062992125984252,"duration":0.18125000000000568},{"name":"C#4","midi":61,"time":120.98124999999943,"velocity":0.6062992125984252,"duration":0.3645833333333286},{"name":"G3","midi":55,"time":120.98333333333277,"velocity":0.6062992125984252,"duration":0.3604166666666657},{"name":"E2","midi":40,"time":120.98333333333277,"velocity":0.6062992125984252,"duration":0.3604166666666657},{"name":"E4","midi":64,"time":121.34583333333276,"velocity":0.6062992125984252,"duration":0.7291666666666572},{"name":"C#3","midi":49,"time":121.3479166666661,"velocity":0.6062992125984252,"duration":0.36249999999999716},{"name":"F3","midi":53,"time":121.3479166666661,"velocity":0.6062992125984252,"duration":0.1770833333333286},{"name":"E3","midi":52,"time":121.52499999999942,"velocity":0.6062992125984252,"duration":0.18333333333333712},{"name":"F3","midi":53,"time":121.71041666666609,"velocity":0.6062992125984252,"duration":0.3645833333333286},{"name":"D3","midi":50,"time":121.71249999999942,"velocity":0.6062992125984252,"duration":2.8937499999999403},{"name":"D4","midi":62,"time":122.07708333333275,"velocity":0.6062992125984252,"duration":0.3645833333333286},{"name":"G3","midi":55,"time":122.07708333333275,"velocity":0.6062992125984252,"duration":0.17916666666666003},{"name":"A3","midi":57,"time":122.25833333333274,"velocity":0.6062992125984252,"duration":0.18333333333333712},{"name":"G4","midi":67,"time":122.44374999999941,"velocity":0.6062992125984252,"duration":0.9041666666666544},{"name":"A#3","midi":58,"time":122.44374999999941,"velocity":0.6062992125984252,"duration":0.3604166666666657},{"name":"A3","midi":57,"time":122.80624999999941,"velocity":0.6062992125984252,"duration":0.17916666666666003},{"name":"G3","midi":55,"time":122.98541666666607,"velocity":0.6062992125984252,"duration":0.17916666666666003},{"name":"A3","midi":57,"time":123.16666666666606,"velocity":0.6062992125984252,"duration":0.3604166666666657},{"name":"F#4","midi":66,"time":123.34791666666607,"velocity":0.6062992125984252,"duration":0.17916666666666003},{"name":"G4","midi":67,"time":123.52916666666606,"velocity":0.6062992125984252,"duration":0.17916666666666003},{"name":"A#3","midi":58,"time":123.52916666666606,"velocity":0.6062992125984252,"duration":0.17916666666666003},{"name":"A4","midi":69,"time":123.70833333333272,"velocity":0.6062992125984252,"duration":0.1833333333333229},{"name":"C4","midi":60,"time":123.71041666666605,"velocity":0.6062992125984252,"duration":0.17916666666666003},{"name":"A#4","midi":70,"time":123.89166666666604,"velocity":0.6062992125984252,"duration":1.4374999999999858},{"name":"D4","midi":62,"time":123.89166666666604,"velocity":0.6062992125984252,"duration":0.35625000000000284},{"name":"C4","midi":60,"time":124.24999999999937,"velocity":0.6062992125984252,"duration":0.17499999999999716},{"name":"A#3","midi":58,"time":124.4270833333327,"velocity":0.6062992125984252,"duration":0.17916666666666003},{"name":"C4","midi":60,"time":124.6083333333327,"velocity":0.6062992125984252,"duration":2.1666666666666288},{"name":"E3","midi":52,"time":124.6083333333327,"velocity":0.6062992125984252,"duration":0.3583333333333343},{"name":"A3","midi":57,"time":124.96666666666603,"velocity":0.6062992125984252,"duration":0.18125000000000568},{"name":"G3","midi":55,"time":125.14999999999937,"velocity":0.6062992125984252,"duration":0.1770833333333286},{"name":"A4","midi":69,"time":125.32916666666603,"velocity":0.6062992125984252,"duration":0.9020833333333229},{"name":"F#3","midi":54,"time":125.33124999999936,"velocity":0.6062992125984252,"duration":0.3583333333333343},{"name":"G3","midi":55,"time":125.69166666666602,"velocity":0.6062992125984252,"duration":0.17916666666666003},{"name":"A3","midi":57,"time":125.87083333333268,"velocity":0.6062992125984252,"duration":0.18125000000000568},{"name":"A#2","midi":46,"time":126.05208333333269,"velocity":0.6062992125984252,"duration":0.3604166666666515},{"name":"D4","midi":62,"time":126.23333333333268,"velocity":0.6062992125984252,"duration":0.17916666666666003},{"name":"E4","midi":64,"time":126.41458333333267,"velocity":0.6062992125984252,"duration":0.18124999999999147},{"name":"C3","midi":48,"time":126.41458333333267,"velocity":0.6062992125984252,"duration":0.17916666666666003},{"name":"F#4","midi":66,"time":126.59583333333266,"velocity":0.6062992125984252,"duration":0.17916666666666003},{"name":"D3","midi":50,"time":126.597916666666,"velocity":0.6062992125984252,"duration":0.1770833333333286},{"name":"G4","midi":67,"time":126.77708333333266,"velocity":0.6062992125984252,"duration":1.0833333333333286},{"name":"A#3","midi":58,"time":126.77708333333266,"velocity":0.6062992125984252,"duration":0.3604166666666657},{"name":"D#3","midi":51,"time":126.77916666666599,"velocity":0.6062992125984252,"duration":0.35625000000000284},{"name":"D3","midi":50,"time":127.13749999999932,"velocity":0.6062992125984252,"duration":0.17916666666666003},{"name":"D#4","midi":63,"time":127.13958333333265,"velocity":0.6062992125984252,"duration":0.3604166666666657},{"name":"C3","midi":48,"time":127.31666666666598,"velocity":0.6062992125984252,"duration":0.18125000000000568},{"name":"D3","midi":50,"time":127.49999999999932,"velocity":0.6062992125984252,"duration":1.4479166666666856},{"name":"A3","midi":57,"time":127.49999999999932,"velocity":0.6062992125984252,"duration":0.1770833333333286},{"name":"A#3","midi":58,"time":127.67916666666598,"velocity":0.6062992125984252,"duration":0.18125000000000568},{"name":"A3","midi":57,"time":127.86249999999932,"velocity":0.6062992125984252,"duration":0.1770833333333286},{"name":"F#4","midi":66,"time":127.86249999999932,"velocity":0.6062992125984252,"duration":0.17916666666666003},{"name":"G4","midi":67,"time":128.04166666666598,"velocity":0.6062992125984252,"duration":0.17916666666667425},{"name":"A#3","midi":58,"time":128.0437499999993,"velocity":0.6062992125984252,"duration":0.1770833333333428},{"name":"A4","midi":69,"time":128.22291666666598,"velocity":0.6062992125984252,"duration":0.36041666666667993},{"name":"C4","midi":60,"time":128.22291666666598,"velocity":0.6062992125984252,"duration":0.36041666666667993},{"name":"G4","midi":67,"time":128.58333333333266,"velocity":0.6062992125984252,"duration":0.18333333333333712},{"name":"A#3","midi":58,"time":128.585416666666,"velocity":0.6062992125984252,"duration":0.17916666666667425},{"name":"F#4","midi":66,"time":128.766666666666,"velocity":0.6062992125984252,"duration":0.17916666666667425},{"name":"A3","midi":57,"time":128.766666666666,"velocity":0.6062992125984252,"duration":0.1770833333333428},{"name":"G4","midi":67,"time":128.947916666666,"velocity":0.6062992125984252,"duration":1.0812500000000114},{"name":"A#3","midi":58,"time":128.947916666666,"velocity":0.6062992125984252,"duration":0.35833333333332007},{"name":"G2","midi":43,"time":128.94999999999933,"velocity":0.6062992125984252,"duration":1.07916666666668},{"name":"C4","midi":60,"time":129.30833333333266,"velocity":0.6062992125984252,"duration":0.17916666666667425},{"name":"D4","midi":62,"time":129.48749999999933,"velocity":0.6062992125984252,"duration":0.17916666666667425},{"name":"D#4","midi":63,"time":129.66874999999933,"velocity":0.6062992125984252,"duration":1.4458333333333258},{"name":"C5","midi":72,"time":130.03124999999935,"velocity":0.6062992125984252,"duration":0.36041666666667993},{"name":"A2","midi":45,"time":130.03124999999935,"velocity":0.6062992125984252,"duration":0.36041666666667993},{"name":"F4","midi":65,"time":130.39374999999936,"velocity":0.6062992125984252,"duration":0.3604166666666515},{"name":"A#2","midi":46,"time":130.39374999999936,"velocity":0.6062992125984252,"duration":0.35833333333332007},{"name":"G4","midi":67,"time":130.754166666666,"velocity":0.6062992125984252,"duration":0.17916666666664582},{"name":"F3","midi":53,"time":130.75624999999934,"velocity":0.6062992125984252,"duration":0.35833333333332007},{"name":"A4","midi":69,"time":130.93333333333266,"velocity":0.6062992125984252,"duration":0.17916666666667425},{"name":"A#4","midi":70,"time":131.116666666666,"velocity":0.6062992125984252,"duration":1.4437499999999943},{"name":"D4","midi":62,"time":131.116666666666,"velocity":0.6062992125984252,"duration":0.7208333333333314},{"name":"G3","midi":55,"time":131.11874999999932,"velocity":0.6062992125984252,"duration":0.35624999999998863},{"name":"D3","midi":50,"time":131.4749999999993,"velocity":0.6062992125984252,"duration":0.36250000000001137},{"name":"C4","midi":60,"time":131.83958333333266,"velocity":0.6062992125984252,"duration":1.4458333333333258},{"name":"D#3","midi":51,"time":131.83958333333266,"velocity":0.6062992125984252,"duration":0.35833333333332007},{"name":"D3","midi":50,"time":132.1999999999993,"velocity":0.6062992125984252,"duration":0.17916666666667425},{"name":"D#3","midi":51,"time":132.37916666666598,"velocity":0.6062992125984252,"duration":0.17916666666667425},{"name":"A4","midi":69,"time":132.560416666666,"velocity":0.6062992125984252,"duration":0.7249999999999943},{"name":"F3","midi":53,"time":132.56249999999932,"velocity":0.6062992125984252,"duration":0.35833333333332007},{"name":"F2","midi":41,"time":132.92291666666597,"velocity":0.6062992125984252,"duration":0.36041666666667993},{"name":"A#4","midi":70,"time":133.28541666666598,"velocity":0.6062992125984252,"duration":0.7229166666666629},{"name":"D4","midi":62,"time":133.2874999999993,"velocity":0.6062992125984252,"duration":0.7208333333333314},{"name":"A#2","midi":46,"time":133.2874999999993,"velocity":0.6062992125984252,"duration":0.71875},{"name":"F4","midi":65,"time":133.6437499999993,"velocity":0.6062992125984252,"duration":0.36250000000001137},{"name":"G4","midi":67,"time":134.01041666666598,"velocity":0.6062992125984252,"duration":0.35833333333332007},{"name":"A#3","midi":58,"time":134.3687499999993,"velocity":0.6062992125984252,"duration":0.36041666666667993},{"name":"A3","midi":57,"time":134.7312499999993,"velocity":0.6062992125984252,"duration":0.7208333333333599},{"name":"F3","midi":53,"time":135.091666666666,"velocity":0.6062992125984252,"duration":0.18125000000000568},{"name":"D#3","midi":51,"time":135.272916666666,"velocity":0.6062992125984252,"duration":0.17916666666667425},{"name":"A#3","midi":58,"time":135.454166666666,"velocity":0.6062992125984252,"duration":0.7229166666666913},{"name":"D3","midi":50,"time":135.454166666666,"velocity":0.6062992125984252,"duration":0.36041666666667993},{"name":"D#3","midi":51,"time":135.81458333333268,"velocity":0.6062992125984252,"duration":0.18125000000000568},{"name":"F3","midi":53,"time":135.99791666666601,"velocity":0.6062992125984252,"duration":0.1770833333333428},{"name":"G3","midi":55,"time":136.1770833333327,"velocity":0.6062992125984252,"duration":0.36250000000001137},{"name":"D#3","midi":51,"time":136.5395833333327,"velocity":0.6062992125984252,"duration":0.36041666666667993},{"name":"C4","midi":60,"time":136.54166666666603,"velocity":0.6062992125984252,"duration":0.1770833333333428},{"name":"D4","midi":62,"time":136.71874999999937,"velocity":0.6062992125984252,"duration":0.17916666666667425},{"name":"D#4","midi":63,"time":136.89999999999938,"velocity":0.6062992125984252,"duration":0.36041666666667993},{"name":"C3","midi":48,"time":136.89999999999938,"velocity":0.6062992125984252,"duration":0.36041666666667993},{"name":"A3","midi":57,"time":137.2624999999994,"velocity":0.6062992125984252,"duration":0.36041666666667993},{"name":"D4","midi":62,"time":137.2624999999994,"velocity":0.6062992125984252,"duration":0.1770833333333428},{"name":"C4","midi":60,"time":137.44166666666607,"velocity":0.6062992125984252,"duration":0.18125000000000568},{"name":"A#3","midi":58,"time":137.6249999999994,"velocity":0.6062992125984252,"duration":1.8041666666666742},{"name":"D4","midi":62,"time":137.6249999999994,"velocity":0.6062992125984252,"duration":0.1770833333333428},{"name":"E4","midi":64,"time":137.80416666666608,"velocity":0.6062992125984252,"duration":0.1770833333333428},{"name":"D4","midi":62,"time":137.98333333333275,"velocity":0.6062992125984252,"duration":0.18125000000000568},{"name":"A#2","midi":46,"time":137.98333333333275,"velocity":0.6062992125984252,"duration":0.36250000000001137},{"name":"E4","midi":64,"time":138.16458333333276,"velocity":0.6062992125984252,"duration":0.18125000000000568},{"name":"F4","midi":65,"time":138.3479166666661,"velocity":0.6062992125984252,"duration":0.35833333333332007},{"name":"D3","midi":50,"time":138.3479166666661,"velocity":0.6062992125984252,"duration":0.3604166666666515},{"name":"E4","midi":64,"time":138.70833333333275,"velocity":0.6062992125984252,"duration":0.17916666666667425},{"name":"F2","midi":41,"time":138.70833333333275,"velocity":0.6062992125984252,"duration":0.36250000000001137},{"name":"D4","midi":62,"time":138.88749999999942,"velocity":0.6062992125984252,"duration":0.18125000000000568},{"name":"G4","midi":67,"time":139.07083333333276,"velocity":0.6062992125984252,"duration":1.0833333333333144},{"name":"E2","midi":40,"time":139.0729166666661,"velocity":0.6062992125984252,"duration":0.71875},{"name":"C4","midi":60,"time":139.42916666666608,"velocity":0.6062992125984252,"duration":0.18125000000000568},{"name":"A#3","midi":58,"time":139.61249999999941,"velocity":0.6062992125984252,"duration":0.17916666666667425},{"name":"A3","midi":57,"time":139.79374999999942,"velocity":0.6062992125984252,"duration":0.35833333333332007},{"name":"F2","midi":41,"time":139.79374999999942,"velocity":0.6062992125984252,"duration":0.71875},{"name":"A#3","midi":58,"time":140.15416666666607,"velocity":0.6062992125984252,"duration":0.17916666666667425},{"name":"F4","midi":65,"time":140.1562499999994,"velocity":0.6062992125984252,"duration":0.1770833333333428},{"name":"E4","midi":64,"time":140.33541666666608,"velocity":0.6062992125984252,"duration":0.17500000000001137},{"name":"C4","midi":60,"time":140.33541666666608,"velocity":0.6062992125984252,"duration":0.1770833333333428},{"name":"F4","midi":65,"time":140.51458333333275,"velocity":0.6062992125984252,"duration":0.7145833333333371},{"name":"D4","midi":62,"time":140.51458333333275,"velocity":0.6062992125984252,"duration":0.3541666666666572},{"name":"A#3","midi":58,"time":140.87083333333274,"velocity":0.6062992125984252,"duration":0.35625000000001705},{"name":"G2","midi":43,"time":140.87083333333274,"velocity":0.6062992125984252,"duration":0.1770833333333428},{"name":"A2","midi":45,"time":141.04791666666608,"velocity":0.6062992125984252,"duration":0.17916666666667425},{"name":"E4","midi":64,"time":141.2291666666661,"velocity":0.6062992125984252,"duration":0.35624999999998863},{"name":"G3","midi":55,"time":141.23124999999942,"velocity":0.6062992125984252,"duration":0.35208333333332575},{"name":"A#2","midi":46,"time":141.23124999999942,"velocity":0.6062992125984252,"duration":0.35208333333332575},{"name":"A#4","midi":70,"time":141.58541666666608,"velocity":0.6062992125984252,"duration":0.7125000000000057},{"name":"E4","midi":64,"time":141.5874999999994,"velocity":0.6062992125984252,"duration":0.3541666666666856},{"name":"A2","midi":45,"time":141.5874999999994,"velocity":0.6062992125984252,"duration":0.17291666666667993},{"name":"G2","midi":43,"time":141.76249999999942,"velocity":0.6062992125984252,"duration":0.17916666666667425},{"name":"F4","midi":65,"time":141.94374999999943,"velocity":0.6062992125984252,"duration":0.53125},{"name":"A2","midi":45,"time":141.94374999999943,"velocity":0.6062992125984252,"duration":0.7083333333333428},{"name":"C5","midi":72,"time":142.29791666666608,"velocity":0.6062992125984252,"duration":0.3541666666666856},{"name":"A4","midi":69,"time":142.29999999999941,"velocity":0.6062992125984252,"duration":0.7041666666666799},{"name":"D#4","midi":63,"time":142.47499999999943,"velocity":0.6062992125984252,"duration":0.17500000000001137},{"name":"D5","midi":74,"time":142.6541666666661,"velocity":0.6062992125984252,"duration":0.3479166666666629},{"name":"D4","midi":62,"time":142.6541666666661,"velocity":0.6062992125984252,"duration":0.7104166666666742},{"name":"A#2","midi":46,"time":142.65624999999943,"velocity":0.6062992125984252,"duration":0.7062500000000114},{"name":"F4","midi":65,"time":143.0041666666661,"velocity":0.6062992125984252,"duration":0.3583333333333485},{"name":"G4","midi":67,"time":143.00624999999943,"velocity":0.6062992125984252,"duration":0.17500000000001137},{"name":"A4","midi":69,"time":143.18124999999944,"velocity":0.6062992125984252,"duration":0.18125000000000568},{"name":"A#4","midi":70,"time":143.36458333333277,"velocity":0.6062992125984252,"duration":0.7104166666666742},{"name":"C4","midi":60,"time":143.3666666666661,"velocity":0.6062992125984252,"duration":1.0625},{"name":"E4","midi":64,"time":143.3666666666661,"velocity":0.6062992125984252,"duration":0.7083333333333428},{"name":"C3","midi":48,"time":143.71874999999943,"velocity":0.6062992125984252,"duration":0.17916666666667425},{"name":"A#2","midi":46,"time":143.89999999999944,"velocity":0.6062992125984252,"duration":0.17500000000001137},{"name":"A4","midi":69,"time":144.07708333333278,"velocity":0.6062992125984252,"duration":1.0645833333333314},{"name":"F4","midi":65,"time":144.07708333333278,"velocity":0.6062992125984252,"duration":0.7062500000000114},{"name":"A2","midi":45,"time":144.0791666666661,"velocity":0.6062992125984252,"duration":0.3479166666666629},{"name":"D4","midi":62,"time":144.4291666666661,"velocity":0.6062992125984252,"duration":0.17500000000001137},{"name":"A#2","midi":46,"time":144.43124999999944,"velocity":0.6062992125984252,"duration":0.17291666666667993},{"name":"C4","midi":60,"time":144.60624999999945,"velocity":0.6062992125984252,"duration":0.1770833333333428},{"name":"C3","midi":48,"time":144.60624999999945,"velocity":0.6062992125984252,"duration":0.17500000000001137},{"name":"A#3","midi":58,"time":144.78541666666612,"velocity":0.6062992125984252,"duration":1.4187499999999886},{"name":"D3","midi":50,"time":144.78541666666612,"velocity":0.6062992125984252,"duration":0.3541666666666572},{"name":"G4","midi":67,"time":145.1416666666661,"velocity":0.6062992125984252,"duration":0.1770833333333428},{"name":"A#2","midi":46,"time":145.14374999999944,"velocity":0.6062992125984252,"duration":0.3541666666666856},{"name":"A4","midi":69,"time":145.31874999999945,"velocity":0.6062992125984252,"duration":0.17916666666667425},{"name":"F4","midi":65,"time":145.32083333333279,"velocity":0.6062992125984252,"duration":0.17500000000001137},{"name":"A#4","midi":70,"time":145.49999999999946,"velocity":0.6062992125984252,"duration":0.35208333333332575},{"name":"E4","midi":64,"time":145.49999999999946,"velocity":0.6062992125984252,"duration":0.3499999999999943},{"name":"G2","midi":43,"time":145.49999999999946,"velocity":0.6062992125984252,"duration":0.3499999999999943},{"name":"A4","midi":69,"time":145.85208333333279,"velocity":0.6062992125984252,"duration":0.1729166666666515},{"name":"C4","midi":60,"time":145.85416666666612,"velocity":0.6062992125984252,"duration":0.7020833333333201},{"name":"E3","midi":52,"time":145.85416666666612,"velocity":0.6062992125984252,"duration":0.3479166666666629},{"name":"G4","midi":67,"time":146.02708333333277,"velocity":0.6062992125984252,"duration":0.17500000000001137},{"name":"A4","midi":69,"time":146.2041666666661,"velocity":0.6062992125984252,"duration":0.35208333333332575},{"name":"F3","midi":53,"time":146.20624999999944,"velocity":0.6062992125984252,"duration":1.737499999999983},{"name":"A3","midi":57,"time":146.20624999999944,"velocity":0.6062992125984252,"duration":0.7020833333333485},{"name":"A#4","midi":70,"time":146.55833333333277,"velocity":0.6062992125984252,"duration":0.17500000000001137},{"name":"D4","midi":62,"time":146.55833333333277,"velocity":0.6062992125984252,"duration":0.17291666666667993},{"name":"C5","midi":72,"time":146.73333333333278,"velocity":0.6062992125984252,"duration":0.17500000000001137},{"name":"D#4","midi":63,"time":146.7354166666661,"velocity":0.6062992125984252,"duration":0.17916666666667425},{"name":"D5","midi":74,"time":146.91041666666612,"velocity":0.6062992125984252,"duration":0.3541666666666572},{"name":"F4","midi":65,"time":146.91041666666612,"velocity":0.6062992125984252,"duration":0.533333333333303},{"name":"A#3","midi":58,"time":147.0854166666661,"velocity":0.6062992125984252,"duration":0.18541666666666856},{"name":"C5","midi":72,"time":147.26458333333278,"velocity":0.6062992125984252,"duration":0.17708333333331439},{"name":"C4","midi":60,"time":147.2666666666661,"velocity":0.6062992125984252,"duration":0.18124999999997726},{"name":"A#4","midi":70,"time":147.44374999999943,"velocity":0.6062992125984252,"duration":0.17916666666667425},{"name":"G4","midi":67,"time":147.44583333333276,"velocity":0.6062992125984252,"duration":0.1770833333333428},{"name":"D4","midi":62,"time":147.44583333333276,"velocity":0.6062992125984252,"duration":0.18125000000000568},{"name":"A4","midi":69,"time":147.62499999999943,"velocity":0.6062992125984252,"duration":0.6979166666666572},{"name":"C5","midi":72,"time":147.62499999999943,"velocity":0.6062992125984252,"duration":0.3479166666666629},{"name":"D#4","midi":63,"time":147.62499999999943,"velocity":0.6062992125984252,"duration":0.3479166666666629},{"name":"D5","midi":74,"time":147.97499999999943,"velocity":0.6062992125984252,"duration":0.17291666666667993},{"name":"F3","midi":53,"time":147.97499999999943,"velocity":0.6062992125984252,"duration":0.3479166666666629},{"name":"F4","midi":65,"time":147.97499999999943,"velocity":0.6062992125984252,"duration":0.17291666666667993},{"name":"C5","midi":72,"time":148.1479166666661,"velocity":0.6062992125984252,"duration":0.17499999999998295},{"name":"D#4","midi":63,"time":148.14999999999944,"velocity":0.6062992125984252,"duration":0.17083333333332007},{"name":"A#4","midi":70,"time":148.32499999999942,"velocity":0.6062992125984252,"duration":0.34583333333333144},{"name":"G4","midi":67,"time":148.32499999999942,"velocity":0.6062992125984252,"duration":0.689583333333303},{"name":"D4","midi":62,"time":148.32499999999942,"velocity":0.6062992125984252,"duration":0.34583333333333144},{"name":"G3","midi":55,"time":148.32708333333275,"velocity":0.6062992125984252,"duration":0.34166666666666856},{"name":"C5","midi":72,"time":148.67291666666608,"velocity":0.6062992125984252,"duration":0.16874999999998863},{"name":"G3","midi":55,"time":148.67291666666608,"velocity":0.6062992125984252,"duration":0.6874999999999716},{"name":"A#2","midi":46,"time":148.67291666666608,"velocity":0.6062992125984252,"duration":0.34166666666664014},{"name":"D5","midi":74,"time":148.84166666666607,"velocity":0.6062992125984252,"duration":0.17083333333332007},{"name":"D#5","midi":75,"time":149.01666666666605,"velocity":0.6062992125984252,"duration":0.34166666666666856},{"name":"A2","midi":45,"time":149.01666666666605,"velocity":0.6062992125984252,"duration":0.6958333333333542},{"name":"F5","midi":77,"time":149.36041666666605,"velocity":0.6062992125984252,"duration":0.17500000000001137},{"name":"C5","midi":72,"time":149.3624999999994,"velocity":0.6062992125984252,"duration":0.3479166666666913},{"name":"F3","midi":53,"time":149.3624999999994,"velocity":0.6062992125984252,"duration":0.3479166666666913},{"name":"D#5","midi":75,"time":149.53541666666607,"velocity":0.6062992125984252,"duration":0.17291666666667993},{"name":"D5","midi":74,"time":149.7124999999994,"velocity":0.6062992125984252,"duration":0.34583333333333144},{"name":"A#3","midi":58,"time":149.71458333333274,"velocity":0.6062992125984252,"duration":0.34166666666666856},{"name":"A#2","midi":46,"time":149.71458333333274,"velocity":0.6062992125984252,"duration":0.6958333333333258},{"name":"D#5","midi":75,"time":150.05833333333274,"velocity":0.6062992125984252,"duration":0.1729166666666515},{"name":"F4","midi":65,"time":150.06041666666607,"velocity":0.6062992125984252,"duration":0.3479166666666629},{"name":"G#3","midi":56,"time":150.06041666666607,"velocity":0.6062992125984252,"duration":0.3479166666666629},{"name":"F5","midi":77,"time":150.2312499999994,"velocity":0.6062992125984252,"duration":0.17500000000001137},{"name":"G5","midi":79,"time":150.41041666666607,"velocity":0.6062992125984252,"duration":0.34375},{"name":"G3","midi":55,"time":150.4124999999994,"velocity":0.6062992125984252,"duration":0.6937500000000227},{"name":"D#4","midi":63,"time":150.4124999999994,"velocity":0.6062992125984252,"duration":0.6958333333333542},{"name":"D#5","midi":75,"time":150.7562499999994,"velocity":0.6062992125984252,"duration":0.35000000000002274},{"name":"C3","midi":48,"time":150.7562499999994,"velocity":0.6062992125984252,"duration":0.17291666666667993},{"name":"D3","midi":50,"time":150.92916666666608,"velocity":0.6062992125984252,"duration":0.17500000000001137},{"name":"C5","midi":72,"time":151.10833333333275,"velocity":0.6062992125984252,"duration":0.34583333333333144},{"name":"F4","midi":65,"time":151.11041666666608,"velocity":0.6062992125984252,"duration":0.6958333333333258},{"name":"A3","midi":57,"time":151.11041666666608,"velocity":0.6062992125984252,"duration":0.34375},{"name":"D#3","midi":51,"time":151.11249999999941,"velocity":0.6062992125984252,"duration":0.3395833333333371},{"name":"A5","midi":81,"time":151.45624999999941,"velocity":0.6062992125984252,"duration":0.3479166666666629},{"name":"C4","midi":60,"time":151.45624999999941,"velocity":0.6062992125984252,"duration":0.3479166666666629},{"name":"D3","midi":50,"time":151.45833333333275,"velocity":0.6062992125984252,"duration":0.16874999999998863},{"name":"C3","midi":48,"time":151.62708333333273,"velocity":0.6062992125984252,"duration":0.17500000000001137},{"name":"A#5","midi":82,"time":151.8062499999994,"velocity":0.6062992125984252,"duration":0.35208333333332575},{"name":"D3","midi":50,"time":151.80833333333274,"velocity":0.6062992125984252,"duration":0.3479166666666629},{"name":"F3","midi":53,"time":151.80833333333274,"velocity":0.6062992125984252,"duration":0.3499999999999943},{"name":"F4","midi":65,"time":152.16041666666607,"velocity":0.6062992125984252,"duration":0.17291666666667993},{"name":"C3","midi":48,"time":152.16041666666607,"velocity":0.6062992125984252,"duration":0.17291666666667993},{"name":"G4","midi":67,"time":152.33541666666608,"velocity":0.6062992125984252,"duration":0.17500000000001137},{"name":"A#2","midi":46,"time":152.33541666666608,"velocity":0.6062992125984252,"duration":0.17500000000001137},{"name":"G#4","midi":68,"time":152.5104166666661,"velocity":0.5984251968503937,"duration":0.35208333333332575},{"name":"C3","midi":48,"time":152.51249999999942,"velocity":0.6062992125984252,"duration":0.3479166666666629},{"name":"D3","midi":50,"time":152.86249999999941,"velocity":0.6062992125984252,"duration":0.3479166666666629},{"name":"G4","midi":67,"time":152.86458333333275,"velocity":0.6062992125984252,"duration":0.17083333333332007},{"name":"F4","midi":65,"time":153.0374999999994,"velocity":0.6062992125984252,"duration":0.17291666666667993},{"name":"D#3","midi":51,"time":153.21041666666608,"velocity":0.6062992125984252,"duration":0.3479166666666629},{"name":"G4","midi":67,"time":153.2124999999994,"velocity":0.6062992125984252,"duration":0.34583333333333144},{"name":"G5","midi":79,"time":153.55833333333274,"velocity":0.5984251968503937,"duration":0.1770833333333428},{"name":"D3","midi":50,"time":153.56041666666607,"velocity":0.6062992125984252,"duration":0.17291666666667993},{"name":"G#5","midi":80,"time":153.73541666666608,"velocity":0.5984251968503937,"duration":0.1729166666666515},{"name":"C3","midi":48,"time":153.73749999999941,"velocity":0.6062992125984252,"duration":0.17083333333332007},{"name":"A#5","midi":82,"time":153.91041666666607,"velocity":0.5984251968503937,"duration":0.3479166666666629},{"name":"D3","midi":50,"time":153.91041666666607,"velocity":0.6062992125984252,"duration":0.3479166666666629},{"name":"G#5","midi":80,"time":154.26041666666606,"velocity":0.5984251968503937,"duration":0.17083333333332007},{"name":"E3","midi":52,"time":154.26041666666606,"velocity":0.6062992125984252,"duration":0.34583333333333144},{"name":"G5","midi":79,"time":154.4333333333327,"velocity":0.5984251968503937,"duration":0.17291666666667993},{"name":"G#5","midi":80,"time":154.60833333333272,"velocity":0.5984251968503937,"duration":0.3479166666666629},{"name":"F3","midi":53,"time":154.60833333333272,"velocity":0.6062992125984252,"duration":0.3479166666666629},{"name":"F5","midi":77,"time":154.95833333333272,"velocity":0.5984251968503937,"duration":0.1729166666666515},{"name":"G#5","midi":80,"time":154.95833333333272,"velocity":0.5984251968503937,"duration":0.1729166666666515},{"name":"F2","midi":41,"time":154.96041666666605,"velocity":0.6062992125984252,"duration":0.16874999999998863},{"name":"G5","midi":79,"time":155.1333333333327,"velocity":0.5984251968503937,"duration":0.1729166666666515},{"name":"D#5","midi":75,"time":155.1333333333327,"velocity":0.5984251968503937,"duration":0.17083333333332007},{"name":"G2","midi":43,"time":155.13541666666603,"velocity":0.6062992125984252,"duration":0.16874999999998863},{"name":"F5","midi":77,"time":155.30624999999935,"velocity":0.5984251968503937,"duration":0.3479166666666629},{"name":"D5","midi":74,"time":155.30833333333268,"velocity":0.5984251968503937,"duration":0.34375},{"name":"G#2","midi":44,"time":155.30833333333268,"velocity":0.6062992125984252,"duration":0.34375},{"name":"G5","midi":79,"time":155.65416666666601,"velocity":0.5984251968503937,"duration":0.17499999999998295},{"name":"D#5","midi":75,"time":155.65624999999935,"velocity":0.5984251968503937,"duration":0.1729166666666515},{"name":"G2","midi":43,"time":155.65624999999935,"velocity":0.6062992125984252,"duration":0.17083333333332007},{"name":"F5","midi":77,"time":155.83124999999933,"velocity":0.5984251968503937,"duration":0.17083333333332007},{"name":"G#5","midi":80,"time":155.83124999999933,"velocity":0.5984251968503937,"duration":0.1729166666666515},{"name":"F2","midi":41,"time":155.83333333333266,"velocity":0.6062992125984252,"duration":0.16874999999998863},{"name":"D5","midi":74,"time":156.00416666666598,"velocity":0.5984251968503937,"duration":0.3479166666666629},{"name":"B4","midi":71,"time":156.0062499999993,"velocity":0.5984251968503937,"duration":0.34375},{"name":"G2","midi":43,"time":156.0062499999993,"velocity":0.6062992125984252,"duration":0.34375},{"name":"G5","midi":79,"time":156.35208333333264,"velocity":0.5984251968503937,"duration":0.7104166666666742},{"name":"D#5","midi":75,"time":156.35416666666598,"velocity":0.5984251968503937,"duration":0.17291666666667993},{"name":"G3","midi":55,"time":156.35416666666598,"velocity":0.6062992125984252,"duration":0.3520833333333542},{"name":"D5","midi":74,"time":156.529166666666,"velocity":0.5984251968503937,"duration":0.1770833333333428},{"name":"C5","midi":72,"time":156.70833333333266,"velocity":0.5984251968503937,"duration":0.35208333333332575},{"name":"G#3","midi":56,"time":156.70833333333266,"velocity":0.6062992125984252,"duration":0.35208333333332575},{"name":"F5","midi":77,"time":157.06249999999932,"velocity":0.5984251968503937,"duration":0.17499999999998295},{"name":"D5","midi":74,"time":157.06458333333265,"velocity":0.5984251968503937,"duration":0.17083333333332007},{"name":"C3","midi":48,"time":157.06458333333265,"velocity":0.6062992125984252,"duration":0.3479166666666629},{"name":"D#5","midi":75,"time":157.2374999999993,"velocity":0.5984251968503937,"duration":0.17500000000001137},{"name":"D5","midi":74,"time":157.41458333333264,"velocity":0.5984251968503937,"duration":1.04791666666668},{"name":"F4","midi":65,"time":157.41458333333264,"velocity":0.6062992125984252,"duration":0.3479166666666629},{"name":"B2","midi":47,"time":157.41666666666598,"velocity":0.6062992125984252,"duration":0.6979166666666856},{"name":"G4","midi":67,"time":157.7624999999993,"velocity":0.6062992125984252,"duration":0.1770833333333428},{"name":"F4","midi":65,"time":157.93958333333265,"velocity":0.6062992125984252,"duration":0.17291666666667993},{"name":"D#4","midi":63,"time":158.11458333333266,"velocity":0.6062992125984252,"duration":0.34583333333333144},{"name":"C3","midi":48,"time":158.11458333333266,"velocity":0.6062992125984252,"duration":0.6979166666666572},{"name":"C5","midi":72,"time":158.46249999999932,"velocity":0.5984251968503937,"duration":0.1729166666666515},{"name":"F4","midi":65,"time":158.46458333333266,"velocity":0.6062992125984252,"duration":0.17083333333332007},{"name":"B4","midi":71,"time":158.6374999999993,"velocity":0.5984251968503937,"duration":0.17500000000001137},{"name":"G4","midi":67,"time":158.6374999999993,"velocity":0.6062992125984252,"duration":0.17291666666667993},{"name":"C5","midi":72,"time":158.81458333333265,"velocity":0.5984251968503937,"duration":0.6937500000000227},{"name":"G#4","midi":68,"time":158.81458333333265,"velocity":0.5984251968503937,"duration":0.34375},{"name":"F4","midi":65,"time":159.16041666666598,"velocity":0.6062992125984252,"duration":0.3479166666666913},{"name":"D3","midi":50,"time":159.16041666666598,"velocity":0.6062992125984252,"duration":0.17291666666667993},{"name":"D#3","midi":51,"time":159.33333333333266,"velocity":0.6062992125984252,"duration":0.17291666666667993},{"name":"B4","midi":71,"time":159.510416666666,"velocity":0.5984251968503937,"duration":0.3479166666666629},{"name":"D4","midi":62,"time":159.510416666666,"velocity":0.6062992125984252,"duration":0.3479166666666629},{"name":"F3","midi":53,"time":159.51249999999933,"velocity":0.6062992125984252,"duration":0.34375},{"name":"B4","midi":71,"time":159.860416666666,"velocity":0.5984251968503937,"duration":0.3479166666666629},{"name":"D5","midi":74,"time":159.860416666666,"velocity":0.5984251968503937,"duration":0.3479166666666629},{"name":"D#3","midi":51,"time":159.86249999999933,"velocity":0.6062992125984252,"duration":0.16874999999998863},{"name":"D3","midi":50,"time":160.03124999999932,"velocity":0.6062992125984252,"duration":0.17500000000001137},{"name":"C5","midi":72,"time":160.210416666666,"velocity":0.5984251968503937,"duration":0.7104166666666458},{"name":"G4","midi":67,"time":160.210416666666,"velocity":0.6062992125984252,"duration":0.3541666666666572},{"name":"D#3","midi":51,"time":160.21249999999932,"velocity":0.6062992125984252,"duration":0.3499999999999943},{"name":"G5","midi":79,"time":160.56458333333265,"velocity":0.5984251968503937,"duration":0.35624999999998863},{"name":"E3","midi":52,"time":160.56666666666598,"velocity":0.6062992125984252,"duration":0.35208333333332575},{"name":"G#5","midi":80,"time":160.92291666666597,"velocity":0.5984251968503937,"duration":0.35208333333332575},{"name":"F3","midi":53,"time":160.92291666666597,"velocity":0.6062992125984252,"duration":0.3499999999999943},{"name":"C5","midi":72,"time":161.2749999999993,"velocity":0.5984251968503937,"duration":0.35833333333332007},{"name":"D#4","midi":63,"time":161.2749999999993,"velocity":0.6062992125984252,"duration":0.35624999999998863},{"name":"F#3","midi":54,"time":161.27708333333263,"velocity":0.6062992125984252,"duration":0.3541666666666572},{"name":"B4","midi":71,"time":161.63333333333262,"velocity":0.5984251968503937,"duration":0.6249999999999716},{"name":"G3","midi":55,"time":161.63541666666595,"velocity":0.6062992125984252,"duration":0.16874999999998863},{"name":"D4","midi":62,"time":161.63541666666595,"velocity":0.6062992125984252,"duration":0.34375},{"name":"G#3","midi":56,"time":161.80624999999927,"velocity":0.6062992125984252,"duration":0.17291666666667993},{"name":"D#4","midi":63,"time":161.98124999999928,"velocity":0.6062992125984252,"duration":0.125},{"name":"G3","midi":55,"time":161.9833333333326,"velocity":0.6062992125984252,"duration":0.1729166666666515},{"name":"F3","midi":53,"time":162.1520833333326,"velocity":0.6062992125984252,"duration":0.17708333333331439},{"name":"F4","midi":65,"time":162.15416666666593,"velocity":0.6062992125984252,"duration":0.17499999999998295},{"name":"C5","midi":72,"time":162.33124999999924,"velocity":0.5984251968503937,"duration":0.6145833333333428},{"name":"G4","midi":67,"time":162.33124999999924,"velocity":0.6062992125984252,"duration":0.34583333333333144},{"name":"D#3","midi":51,"time":162.33333333333258,"velocity":0.6062992125984252,"duration":0.34375},{"name":"A4","midi":69,"time":162.6791666666659,"velocity":0.5984251968503937,"duration":0.17291666666667993},{"name":"F3","midi":53,"time":162.6791666666659,"velocity":0.6062992125984252,"duration":0.17291666666667993},{"name":"B4","midi":71,"time":162.8520833333326,"velocity":0.5748031496062992,"duration":0.17500000000001137},{"name":"G3","midi":55,"time":162.85416666666592,"velocity":0.6062992125984252,"duration":0.1708333333333485},{"name":"C5","midi":72,"time":163.0270833333326,"velocity":0.5748031496062992,"duration":0.3499999999999943},{"name":"G#3","midi":56,"time":163.02916666666593,"velocity":0.6062992125984252,"duration":0.34583333333333144},{"name":"D5","midi":74,"time":163.3770833333326,"velocity":0.5748031496062992,"duration":0.1729166666666515},{"name":"B4","midi":71,"time":163.37916666666592,"velocity":0.5748031496062992,"duration":0.17083333333332007},{"name":"F3","midi":53,"time":163.37916666666592,"velocity":0.6062992125984252,"duration":0.34583333333333144},{"name":"D#5","midi":75,"time":163.55208333333258,"velocity":0.5748031496062992,"duration":0.17291666666667993},{"name":"C5","midi":72,"time":163.55208333333258,"velocity":0.5748031496062992,"duration":0.17291666666667993},{"name":"D5","midi":74,"time":163.7270833333326,"velocity":0.5748031496062992,"duration":0.3479166666666629},{"name":"F5","midi":77,"time":163.7270833333326,"velocity":0.5748031496062992,"duration":0.3479166666666629},{"name":"D3","midi":50,"time":163.7270833333326,"velocity":0.6062992125984252,"duration":0.3479166666666629},{"name":"D#5","midi":75,"time":164.07708333333258,"velocity":0.5748031496062992,"duration":0.17083333333332007},{"name":"G4","midi":67,"time":164.07708333333258,"velocity":0.6062992125984252,"duration":0.689583333333303},{"name":"B3","midi":59,"time":164.07708333333258,"velocity":0.6062992125984252,"duration":0.34583333333333144},{"name":"D5","midi":74,"time":164.24999999999923,"velocity":0.5748031496062992,"duration":0.17291666666667993},{"name":"D#5","midi":75,"time":164.42499999999924,"velocity":0.5748031496062992,"duration":0.16874999999998863},{"name":"C4","midi":60,"time":164.42499999999924,"velocity":0.6062992125984252,"duration":0.8583333333332632},{"name":"D5","midi":74,"time":164.59583333333256,"velocity":0.5748031496062992,"duration":0.17083333333332007},{"name":"D#5","midi":75,"time":164.76874999999922,"velocity":0.5748031496062992,"duration":0.1729166666666515},{"name":"C5","midi":72,"time":164.76874999999922,"velocity":0.5748031496062992,"duration":0.17083333333332007},{"name":"F5","midi":77,"time":164.94166666666587,"velocity":0.5748031496062992,"duration":0.17083333333332007},{"name":"D5","midi":74,"time":164.9437499999992,"velocity":0.5748031496062992,"duration":0.16874999999998863},{"name":"G5","midi":79,"time":165.11458333333252,"velocity":0.5748031496062992,"duration":0.3437499999999716},{"name":"D#5","midi":75,"time":165.11458333333252,"velocity":0.5748031496062992,"duration":0.34166666666664014},{"name":"D4","midi":62,"time":165.28541666666584,"velocity":0.6062992125984252,"duration":0.17083333333332007},{"name":"C4","midi":60,"time":165.4583333333325,"velocity":0.6062992125984252,"duration":0.17083333333332007},{"name":"G4","midi":67,"time":165.46041666666582,"velocity":0.6062992125984252,"duration":0.34166666666664014},{"name":"A#3","midi":58,"time":165.63124999999914,"velocity":0.6062992125984252,"duration":0.17083333333332007},{"name":"F#4","midi":66,"time":165.8041666666658,"velocity":0.6062992125984252,"duration":0.6895833333332746},{"name":"A3","midi":57,"time":165.8041666666658,"velocity":0.6062992125984252,"duration":0.17083333333332007},{"name":"D3","midi":50,"time":165.9749999999991,"velocity":0.6062992125984252,"duration":0.17083333333332007},{"name":"D5","midi":74,"time":166.14791666666576,"velocity":0.6062992125984252,"duration":0.1729166666666515},{"name":"C3","midi":48,"time":166.14791666666576,"velocity":0.6062992125984252,"duration":0.17083333333332007},{"name":"C5","midi":72,"time":166.32083333333242,"velocity":0.6062992125984252,"duration":0.1729166666666515},{"name":"D3","midi":50,"time":166.32083333333242,"velocity":0.6062992125984252,"duration":0.17083333333332007},{"name":"A#4","midi":70,"time":166.4958333333324,"velocity":0.6062992125984252,"duration":0.34166666666664014},{"name":"G4","midi":67,"time":166.4958333333324,"velocity":0.6062992125984252,"duration":1.0333333333332746},{"name":"D#3","midi":51,"time":166.49791666666573,"velocity":0.6062992125984252,"duration":0.1666666666666572},{"name":"D3","midi":50,"time":166.6645833333324,"velocity":0.6062992125984252,"duration":0.17083333333332007},{"name":"C5","midi":72,"time":166.83749999999904,"velocity":0.6062992125984252,"duration":0.17083333333332007},{"name":"C3","midi":48,"time":166.83958333333237,"velocity":0.6062992125984252,"duration":0.16874999999998863},{"name":"D5","midi":74,"time":167.0104166666657,"velocity":0.6062992125984252,"duration":0.17083333333332007},{"name":"A#2","midi":46,"time":167.0104166666657,"velocity":0.6062992125984252,"duration":0.17083333333332007},{"name":"D#5","midi":75,"time":167.181249999999,"velocity":0.6062992125984252,"duration":0.1729166666666515},{"name":"A2","midi":45,"time":167.18333333333234,"velocity":0.6062992125984252,"duration":0.34375},{"name":"D5","midi":74,"time":167.35416666666566,"velocity":0.6062992125984252,"duration":0.17291666666667993},{"name":"C5","midi":72,"time":167.52916666666567,"velocity":0.6062992125984252,"duration":0.1729166666666515},{"name":"A4","midi":69,"time":167.531249999999,"velocity":0.6062992125984252,"duration":0.16874999999998863},{"name":"C3","midi":48,"time":167.531249999999,"velocity":0.6062992125984252,"duration":0.34166666666664014},{"name":"A#4","midi":70,"time":167.70208333333233,"velocity":0.6062992125984252,"duration":0.17083333333332007},{"name":"C5","midi":72,"time":167.87499999999898,"velocity":0.6062992125984252,"duration":0.34375},{"name":"A4","midi":69,"time":167.87499999999898,"velocity":0.6062992125984252,"duration":0.34375},{"name":"D3","midi":50,"time":167.87499999999898,"velocity":0.6062992125984252,"duration":0.34166666666666856},{"name":"F#5","midi":78,"time":168.2208333333323,"velocity":0.6062992125984252,"duration":0.34375},{"name":"A#4","midi":70,"time":168.2208333333323,"velocity":0.6062992125984252,"duration":0.16874999999998863},{"name":"D2","midi":38,"time":168.2208333333323,"velocity":0.6062992125984252,"duration":0.34375},{"name":"A4","midi":69,"time":168.3895833333323,"velocity":0.6062992125984252,"duration":0.17291666666667993},{"name":"G5","midi":79,"time":168.56666666666564,"velocity":0.6062992125984252,"duration":0.34583333333333144},{"name":"A#4","midi":70,"time":168.56666666666564,"velocity":0.6062992125984252,"duration":0.16874999999998863},{"name":"G2","midi":43,"time":168.56874999999897,"velocity":0.6062992125984252,"duration":0.34375},{"name":"D4","midi":62,"time":168.73541666666563,"velocity":0.6062992125984252,"duration":0.17500000000001137},{"name":"E4","midi":64,"time":168.9145833333323,"velocity":0.6062992125984252,"duration":0.17083333333332007},{"name":"G3","midi":55,"time":168.9145833333323,"velocity":0.6062992125984252,"duration":0.17083333333332007},{"name":"A3","midi":57,"time":169.08749999999895,"velocity":0.6062992125984252,"duration":0.1729166666666515},{"name":"F#4","midi":66,"time":169.08749999999895,"velocity":0.6062992125984252,"duration":0.17083333333332007},{"name":"G4","midi":67,"time":169.2604166666656,"velocity":0.6062992125984252,"duration":0.8374999999999773},{"name":"A#3","midi":58,"time":169.26249999999894,"velocity":0.6062992125984252,"duration":0.34583333333333144},{"name":"D5","midi":74,"time":169.43333333333226,"velocity":0.6062992125984252,"duration":0.17291666666667993},{"name":"C5","midi":72,"time":169.60833333333227,"velocity":0.6062992125984252,"duration":0.1729166666666515},{"name":"A3","midi":57,"time":169.6104166666656,"velocity":0.6062992125984252,"duration":0.17083333333332007},{"name":"A#4","midi":70,"time":169.78333333333225,"velocity":0.6062992125984252,"duration":0.17083333333332007},{"name":"G3","midi":55,"time":169.78333333333225,"velocity":0.6062992125984252,"duration":0.16874999999998863},{"name":"A4","midi":69,"time":169.95416666666557,"velocity":0.6062992125984252,"duration":0.8562499999999886},{"name":"D4","midi":62,"time":169.9562499999989,"velocity":0.6062992125984252,"duration":0.341666666666697},{"name":"G4","midi":67,"time":170.12499999999892,"velocity":0.6062992125984252,"duration":0.17291666666667993},{"name":"D3","midi":50,"time":170.29999999999893,"velocity":0.6062992125984252,"duration":0.16874999999998863},{"name":"F4","midi":65,"time":170.29999999999893,"velocity":0.6062992125984252,"duration":0.1666666666666572},{"name":"D#3","midi":51,"time":170.46874999999892,"velocity":0.6062992125984252,"duration":0.16874999999998863},{"name":"D#4","midi":63,"time":170.47083333333225,"velocity":0.6062992125984252,"duration":0.1666666666666572},{"name":"D4","midi":62,"time":170.63958333333224,"velocity":0.6062992125984252,"duration":0.8687499999999773},{"name":"F3","midi":53,"time":170.6437499999989,"velocity":0.6062992125984252,"duration":0.3479166666666629},{"name":"A#4","midi":70,"time":170.8124999999989,"velocity":0.6062992125984252,"duration":0.17291666666667993},{"name":"C5","midi":72,"time":170.98541666666557,"velocity":0.6062992125984252,"duration":0.17499999999998295},{"name":"D#3","midi":51,"time":170.9874999999989,"velocity":0.6062992125984252,"duration":0.17083333333332007},{"name":"D5","midi":74,"time":171.16041666666555,"velocity":0.6062992125984252,"duration":0.17500000000001137},{"name":"D3","midi":50,"time":171.1624999999989,"velocity":0.6062992125984252,"duration":0.17291666666667993},{"name":"G4","midi":67,"time":171.3374999999989,"velocity":0.6062992125984252,"duration":0.8624999999999545},{"name":"D#2","midi":39,"time":171.3374999999989,"velocity":0.6062992125984252,"duration":0.34583333333333144},{"name":"A#3","midi":58,"time":171.51041666666555,"velocity":0.6062992125984252,"duration":0.17291666666667993},{"name":"D#3","midi":51,"time":171.68541666666556,"velocity":0.6062992125984252,"duration":0.17083333333332007},{"name":"C4","midi":60,"time":171.68541666666556,"velocity":0.6062992125984252,"duration":0.16874999999998863},{"name":"F3","midi":53,"time":171.85624999999888,"velocity":0.6062992125984252,"duration":0.17083333333332007},{"name":"D4","midi":62,"time":171.8583333333322,"velocity":0.6062992125984252,"duration":0.16874999999998863},{"name":"D#4","midi":63,"time":172.02916666666553,"velocity":0.6062992125984252,"duration":0.8375000000000341},{"name":"G3","midi":55,"time":172.02916666666553,"velocity":0.6062992125984252,"duration":0.34583333333333144},{"name":"A#4","midi":70,"time":172.19999999999885,"velocity":0.6062992125984252,"duration":0.17500000000001137},{"name":"G#4","midi":68,"time":172.37499999999886,"velocity":0.6062992125984252,"duration":0.17500000000001137},{"name":"F3","midi":53,"time":172.37499999999886,"velocity":0.6062992125984252,"duration":0.17291666666667993},{"name":"G4","midi":67,"time":172.54999999999887,"velocity":0.6062992125984252,"duration":0.17291666666667993},{"name":"D#3","midi":51,"time":172.54999999999887,"velocity":0.6062992125984252,"duration":0.17291666666667993},{"name":"F4","midi":65,"time":172.7249999999989,"velocity":0.6062992125984252,"duration":0.8645833333333428},{"name":"A#3","midi":58,"time":172.7249999999989,"velocity":0.6062992125984252,"duration":0.3437500000000284},{"name":"D#4","midi":63,"time":172.89583333333223,"velocity":0.6062992125984252,"duration":0.17291666666667993},{"name":"D4","midi":62,"time":173.06874999999891,"velocity":0.6062992125984252,"duration":0.1729166666666515},{"name":"A#2","midi":46,"time":173.07083333333225,"velocity":0.6062992125984252,"duration":0.16874999999998863},{"name":"C4","midi":60,"time":173.24166666666557,"velocity":0.6062992125984252,"duration":0.17500000000001137},{"name":"C3","midi":48,"time":173.2437499999989,"velocity":0.6062992125984252,"duration":0.17291666666667993},{"name":"A#3","midi":58,"time":173.4187499999989,"velocity":0.6062992125984252,"duration":0.8687499999999773},{"name":"D3","midi":50,"time":173.4187499999989,"velocity":0.6062992125984252,"duration":0.34583333333333144},{"name":"G4","midi":67,"time":173.59166666666556,"velocity":0.6062992125984252,"duration":0.17291666666667993},{"name":"G#4","midi":68,"time":173.76666666666557,"velocity":0.6062992125984252,"duration":0.1729166666666515},{"name":"C3","midi":48,"time":173.76666666666557,"velocity":0.6062992125984252,"duration":0.17083333333332007},{"name":"A#4","midi":70,"time":173.93958333333222,"velocity":0.6062992125984252,"duration":0.1729166666666515},{"name":"A#2","midi":46,"time":173.94166666666555,"velocity":0.6062992125984252,"duration":0.17083333333332007},{"name":"D#4","midi":63,"time":174.1145833333322,"velocity":0.6062992125984252,"duration":0.8645833333333144},{"name":"C2","midi":36,"time":174.1145833333322,"velocity":0.6062992125984252,"duration":0.3479166666666913},{"name":"G3","midi":55,"time":174.28958333333222,"velocity":0.6062992125984252,"duration":0.17291666666667993},{"name":"A3","midi":57,"time":174.46458333333223,"velocity":0.6062992125984252,"duration":0.17083333333332007},{"name":"C3","midi":48,"time":174.46458333333223,"velocity":0.6062992125984252,"duration":0.16874999999998863},{"name":"D3","midi":50,"time":174.63541666666555,"velocity":0.6062992125984252,"duration":0.1729166666666515},{"name":"B3","midi":59,"time":174.63749999999888,"velocity":0.6062992125984252,"duration":0.17083333333332007},{"name":"C4","midi":60,"time":174.81041666666553,"velocity":0.6062992125984252,"duration":0.8354166666666458},{"name":"D#3","midi":51,"time":174.81041666666553,"velocity":0.6062992125984252,"duration":0.34166666666664014},{"name":"G4","midi":67,"time":174.98124999999885,"velocity":0.6062992125984252,"duration":0.17083333333332007},{"name":"F4","midi":65,"time":175.1541666666655,"velocity":0.6062992125984252,"duration":0.17500000000001137},{"name":"D3","midi":50,"time":175.1541666666655,"velocity":0.6062992125984252,"duration":0.17291666666667993},{"name":"D#4","midi":63,"time":175.32916666666551,"velocity":0.6062992125984252,"duration":0.1729166666666515},{"name":"C3","midi":48,"time":175.33124999999885,"velocity":0.6062992125984252,"duration":0.17083333333332007},{"name":"D4","midi":62,"time":175.5041666666655,"velocity":0.6062992125984252,"duration":0.8312499999999545},{"name":"G3","midi":55,"time":175.5041666666655,"velocity":0.6062992125984252,"duration":0.34375},{"name":"C4","midi":60,"time":175.67499999999885,"velocity":0.6062992125984252,"duration":0.17083333333332007},{"name":"A#3","midi":58,"time":175.8479166666655,"velocity":0.6062992125984252,"duration":0.1729166666666515},{"name":"G2","midi":43,"time":175.84999999999883,"velocity":0.6062992125984252,"duration":0.17083333333332007},{"name":"A3","midi":57,"time":176.02291666666548,"velocity":0.6062992125984252,"duration":0.17083333333332007},{"name":"A2","midi":45,"time":176.02291666666548,"velocity":0.6062992125984252,"duration":0.16874999999998863},{"name":"G3","midi":55,"time":176.1937499999988,"velocity":0.6062992125984252,"duration":0.8312499999999261},{"name":"A#2","midi":46,"time":176.19583333333213,"velocity":0.6062992125984252,"duration":0.34166666666664014},{"name":"D4","midi":62,"time":176.36458333333212,"velocity":0.6062992125984252,"duration":0.17083333333332007},{"name":"E4","midi":64,"time":176.53749999999877,"velocity":0.6062992125984252,"duration":0.17083333333332007},{"name":"A2","midi":45,"time":176.5395833333321,"velocity":0.6062992125984252,"duration":0.16874999999998863},{"name":"F#4","midi":66,"time":176.71041666666542,"velocity":0.6062992125984252,"duration":0.1729166666666515},{"name":"G2","midi":43,"time":176.71041666666542,"velocity":0.6062992125984252,"duration":0.17083333333332007},{"name":"G4","midi":67,"time":176.88333333333208,"velocity":0.6062992125984252,"duration":0.8562499999999886},{"name":"D#3","midi":51,"time":176.8854166666654,"velocity":0.6062992125984252,"duration":1.3666666666666174},{"name":"G3","midi":55,"time":177.0541666666654,"velocity":0.6062992125984252,"duration":0.17291666666667993},{"name":"A3","midi":57,"time":177.22708333333208,"velocity":0.6062992125984252,"duration":0.17291666666667993},{"name":"A#3","midi":58,"time":177.39999999999876,"velocity":0.6062992125984252,"duration":0.16874999999998863},{"name":"C4","midi":60,"time":177.57083333333208,"velocity":0.6062992125984252,"duration":0.3395833333333087},{"name":"A#4","midi":70,"time":177.73958333333206,"velocity":0.5984251968503937,"duration":0.16874999999998863},{"name":"A4","midi":69,"time":177.91041666666538,"velocity":0.5984251968503937,"duration":0.17083333333332007},{"name":"C#4","midi":61,"time":177.91249999999872,"velocity":0.6062992125984252,"duration":0.3395833333333087},{"name":"G4","midi":67,"time":178.0812499999987,"velocity":0.6062992125984252,"duration":0.16874999999998863},{"name":"D3","midi":50,"time":178.25416666666536,"velocity":0.6062992125984252,"duration":0.6875},{"name":"D4","midi":62,"time":178.25416666666536,"velocity":0.6062992125984252,"duration":0.6895833333333314},{"name":"F#4","midi":66,"time":178.25416666666536,"velocity":0.6062992125984252,"duration":0.34166666666666856},{"name":"D5","midi":74,"time":178.59583333333202,"velocity":0.5984251968503937,"duration":0.34583333333333144},{"name":"D#5","midi":75,"time":178.9437499999987,"velocity":0.5984251968503937,"duration":0.34166666666666856},{"name":"G4","midi":67,"time":179.28541666666536,"velocity":0.6062992125984252,"duration":0.34375},{"name":"F#4","midi":66,"time":179.62916666666536,"velocity":0.6062992125984252,"duration":0.6916666666666629},{"name":"D5","midi":74,"time":179.9749999999987,"velocity":0.5984251968503937,"duration":0.17291666666667993},{"name":"D4","midi":62,"time":179.9749999999987,"velocity":0.6062992125984252,"duration":0.34583333333333144},{"name":"C5","midi":72,"time":180.14791666666537,"velocity":0.5984251968503937,"duration":0.17083333333332007},{"name":"A#4","midi":70,"time":180.32291666666535,"velocity":0.5984251968503937,"duration":0.34375},{"name":"G4","midi":67,"time":180.32291666666535,"velocity":0.6062992125984252,"duration":0.6895833333333314},{"name":"D#4","midi":63,"time":180.32499999999868,"velocity":0.6062992125984252,"duration":0.3395833333333371},{"name":"C5","midi":72,"time":180.66666666666535,"velocity":0.5984251968503937,"duration":0.17083333333332007},{"name":"G3","midi":55,"time":180.66874999999868,"velocity":0.6062992125984252,"duration":0.34375},{"name":"D5","midi":74,"time":180.83749999999867,"velocity":0.5984251968503937,"duration":0.17291666666667993},{"name":"D#5","midi":75,"time":181.014583333332,"velocity":0.5984251968503937,"duration":0.3395833333333371},{"name":"F#3","midi":54,"time":181.014583333332,"velocity":0.6062992125984252,"duration":0.6875},{"name":"D5","midi":74,"time":181.35624999999868,"velocity":0.5984251968503937,"duration":0.34375},{"name":"A4","midi":69,"time":181.35624999999868,"velocity":0.5984251968503937,"duration":0.17083333333332007},{"name":"D3","midi":50,"time":181.358333333332,"velocity":0.6062992125984252,"duration":0.34166666666666856},{"name":"A#4","midi":70,"time":181.527083333332,"velocity":0.5984251968503937,"duration":0.17291666666667993},{"name":"C5","midi":72,"time":181.702083333332,"velocity":0.5984251968503937,"duration":0.34375},{"name":"G3","midi":55,"time":181.70416666666534,"velocity":0.6062992125984252,"duration":0.689583333333303},{"name":"D#3","midi":51,"time":181.70416666666534,"velocity":0.6062992125984252,"duration":0.34166666666666856},{"name":"A#4","midi":70,"time":182.04791666666534,"velocity":0.5984251968503937,"duration":0.17083333333332007},{"name":"D#5","midi":75,"time":182.04791666666534,"velocity":0.5984251968503937,"duration":0.3437499999999716},{"name":"G2","midi":43,"time":182.04999999999868,"velocity":0.6062992125984252,"duration":0.34166666666664014},{"name":"A4","midi":69,"time":182.21874999999866,"velocity":0.5984251968503937,"duration":0.17083333333332007},{"name":"A4","midi":69,"time":182.39374999999865,"velocity":0.5984251968503937,"duration":0.34166666666666856},{"name":"D5","midi":74,"time":182.39374999999865,"velocity":0.5984251968503937,"duration":0.34166666666666856},{"name":"F#2","midi":42,"time":182.39583333333198,"velocity":0.6062992125984252,"duration":0.6854166666666401},{"name":"A3","midi":57,"time":182.73749999999865,"velocity":0.6062992125984252,"duration":0.17083333333332007},{"name":"A#3","midi":58,"time":182.90833333333197,"velocity":0.6062992125984252,"duration":0.17083333333332007},{"name":"C4","midi":60,"time":183.08124999999862,"velocity":0.6062992125984252,"duration":0.34375},{"name":"G2","midi":43,"time":183.08333333333195,"velocity":0.6062992125984252,"duration":0.6875},{"name":"A#3","midi":58,"time":183.42499999999862,"velocity":0.6062992125984252,"duration":0.17291666666667993},{"name":"A3","midi":57,"time":183.59999999999863,"velocity":0.6062992125984252,"duration":0.17083333333332007},{"name":"A#3","midi":58,"time":183.77291666666528,"velocity":0.6062992125984252,"duration":1.6833333333333087},{"name":"D2","midi":38,"time":183.77291666666528,"velocity":0.6062992125984252,"duration":0.3333333333333428},{"name":"D3","midi":50,"time":184.10624999999862,"velocity":0.6062992125984252,"duration":0.1729166666666515},{"name":"F#4","midi":66,"time":184.10833333333196,"velocity":0.6062992125984252,"duration":0.1666666666666572},{"name":"G4","midi":67,"time":184.27708333333194,"velocity":0.6062992125984252,"duration":0.1729166666666515},{"name":"C3","midi":48,"time":184.27708333333194,"velocity":0.6062992125984252,"duration":0.1666666666666572},{"name":"A4","midi":69,"time":184.44583333333193,"velocity":0.6062992125984252,"duration":0.33541666666667425},{"name":"A#2","midi":46,"time":184.44583333333193,"velocity":0.6062992125984252,"duration":0.3333333333333428},{"name":"G4","midi":67,"time":184.7812499999986,"velocity":0.6062992125984252,"duration":0.16874999999998863},{"name":"C3","midi":48,"time":184.78333333333194,"velocity":0.6062992125984252,"duration":0.1666666666666572},{"name":"F#4","midi":66,"time":184.95208333333193,"velocity":0.6062992125984252,"duration":0.1666666666666572},{"name":"D3","midi":50,"time":184.95208333333193,"velocity":0.6062992125984252,"duration":0.1666666666666572},{"name":"G4","midi":67,"time":185.12083333333192,"velocity":0.6062992125984252,"duration":2.689583333333246},{"name":"D#3","midi":51,"time":185.12083333333192,"velocity":0.6062992125984252,"duration":1.6520833333333087},{"name":"D5","midi":74,"time":185.4562499999986,"velocity":0.6062992125984252,"duration":0.16874999999998863},{"name":"B3","midi":59,"time":185.45833333333192,"velocity":0.6062992125984252,"duration":0.1666666666666572},{"name":"D#5","midi":75,"time":185.62499999999858,"velocity":0.6062992125984252,"duration":0.16874999999998863},{"name":"A3","midi":57,"time":185.6270833333319,"velocity":0.6062992125984252,"duration":0.16458333333332575},{"name":"F5","midi":77,"time":185.79374999999857,"velocity":0.6062992125984252,"duration":0.3375000000000057},{"name":"G3","midi":55,"time":185.7958333333319,"velocity":0.6062992125984252,"duration":0.3333333333333428},{"name":"D#5","midi":75,"time":186.13124999999857,"velocity":0.6062992125984252,"duration":0.16874999999998863},{"name":"A3","midi":57,"time":186.1333333333319,"velocity":0.6062992125984252,"duration":0.16458333333332575},{"name":"D5","midi":74,"time":186.29999999999856,"velocity":0.6062992125984252,"duration":0.1666666666666572},{"name":"B3","midi":59,"time":186.29999999999856,"velocity":0.6062992125984252,"duration":0.1666666666666572},{"name":"D#5","midi":75,"time":186.46874999999855,"velocity":0.6062992125984252,"duration":0.8333333333333144},{"name":"C4","midi":60,"time":186.46874999999855,"velocity":0.6062992125984252,"duration":0.6645833333333258},{"name":"D#3","midi":51,"time":186.79999999999856,"velocity":0.6062992125984252,"duration":0.1666666666666572},{"name":"D3","midi":50,"time":186.96666666666522,"velocity":0.6062992125984252,"duration":0.1666666666666572},{"name":"C3","midi":48,"time":187.1354166666652,"velocity":0.6062992125984252,"duration":0.33749999999997726},{"name":"D5","midi":74,"time":187.3041666666652,"velocity":0.6062992125984252,"duration":0.1666666666666572},{"name":"C5","midi":72,"time":187.47291666666518,"velocity":0.6062992125984252,"duration":0.1666666666666572},{"name":"D3","midi":50,"time":187.47291666666518,"velocity":0.6062992125984252,"duration":0.1666666666666572},{"name":"A#4","midi":70,"time":187.64166666666517,"velocity":0.6062992125984252,"duration":0.16874999999998863},{"name":"D#3","midi":51,"time":187.64166666666517,"velocity":0.6062992125984252,"duration":0.1666666666666572},{"name":"A4","midi":69,"time":187.8124999999985,"velocity":0.6062992125984252,"duration":0.6666666666666572},{"name":"F#2","midi":42,"time":187.8124999999985,"velocity":0.6062992125984252,"duration":0.33125000000001137},{"name":"D5","midi":74,"time":188.1437499999985,"velocity":0.6062992125984252,"duration":0.3333333333333144},{"name":"A2","midi":45,"time":188.14583333333184,"velocity":0.6062992125984252,"duration":0.16458333333332575},{"name":"G2","midi":43,"time":188.3124999999985,"velocity":0.6062992125984252,"duration":0.16458333333332575},{"name":"D#5","midi":75,"time":188.47916666666515,"velocity":0.6062992125984252,"duration":0.3333333333333428},{"name":"F#2","midi":42,"time":188.48124999999848,"velocity":0.6062992125984252,"duration":0.32916666666667993},{"name":"D#5","midi":75,"time":188.8124999999985,"velocity":0.6062992125984252,"duration":0.16458333333332575},{"name":"G4","midi":67,"time":188.81458333333183,"velocity":0.6062992125984252,"duration":0.33124999999998295},{"name":"G2","midi":43,"time":188.81458333333183,"velocity":0.6062992125984252,"duration":0.16249999999999432},{"name":"D5","midi":74,"time":188.97916666666515,"velocity":0.6062992125984252,"duration":0.16458333333332575},{"name":"A2","midi":45,"time":188.97916666666515,"velocity":0.6062992125984252,"duration":0.16458333333332575},{"name":"C5","midi":72,"time":189.1458333333318,"velocity":0.6062992125984252,"duration":0.33541666666667425},{"name":"F#4","midi":66,"time":189.14791666666514,"velocity":0.6062992125984252,"duration":0.6687499999999886},{"name":"D2","midi":38,"time":189.14791666666514,"velocity":0.6062992125984252,"duration":0.3333333333333428},{"name":"D5","midi":74,"time":189.4833333333318,"velocity":0.6062992125984252,"duration":0.1666666666666572},{"name":"D3","midi":50,"time":189.4833333333318,"velocity":0.6062992125984252,"duration":0.1666666666666572},{"name":"D#5","midi":75,"time":189.64999999999847,"velocity":0.6062992125984252,"duration":0.1666666666666572},{"name":"C3","midi":48,"time":189.6520833333318,"velocity":0.6062992125984252,"duration":0.16249999999999432},{"name":"D5","midi":74,"time":189.81874999999846,"velocity":0.6062992125984252,"duration":0.33125000000001137},{"name":"G4","midi":67,"time":189.81874999999846,"velocity":0.6062992125984252,"duration":0.6666666666666572},{"name":"A#2","midi":46,"time":189.8208333333318,"velocity":0.6062992125984252,"duration":0.32916666666667993},{"name":"E5","midi":76,"time":190.14999999999847,"velocity":0.5984251968503937,"duration":0.1666666666666572},{"name":"C3","midi":48,"time":190.1520833333318,"velocity":0.6062992125984252,"duration":0.16249999999999432},{"name":"F#5","midi":78,"time":190.31666666666513,"velocity":0.5984251968503937,"duration":0.1666666666666572},{"name":"D3","midi":50,"time":190.31874999999846,"velocity":0.6062992125984252,"duration":0.16458333333332575},{"name":"G5","midi":79,"time":190.48541666666512,"velocity":0.5984251968503937,"duration":0.3375000000000057},{"name":"D#3","midi":51,"time":190.48749999999845,"velocity":0.6062992125984252,"duration":0.3333333333333428},{"name":"F#5","midi":78,"time":190.82291666666512,"velocity":0.5984251968503937,"duration":0.16874999999998863},{"name":"A4","midi":69,"time":190.82499999999845,"velocity":0.5984251968503937,"duration":0.16458333333332575},{"name":"C3","midi":48,"time":190.82499999999845,"velocity":0.6062992125984252,"duration":0.33124999999998295},{"name":"G5","midi":79,"time":190.9916666666651,"velocity":0.5984251968503937,"duration":0.16458333333332575},{"name":"A#4","midi":70,"time":190.99374999999844,"velocity":0.5984251968503937,"duration":0.16041666666666288},{"name":"A5","midi":81,"time":191.15833333333177,"velocity":0.5984251968503937,"duration":0.9979166666666686},{"name":"C5","midi":72,"time":191.15833333333177,"velocity":0.5984251968503937,"duration":0.33125000000001137},{"name":"A2","midi":45,"time":191.1604166666651,"velocity":0.6062992125984252,"duration":0.32916666666667993},{"name":"A#4","midi":70,"time":191.4916666666651,"velocity":0.5984251968503937,"duration":0.16249999999999432},{"name":"F#3","midi":54,"time":191.4916666666651,"velocity":0.6062992125984252,"duration":0.3333333333333144},{"name":"A4","midi":69,"time":191.65624999999844,"velocity":0.5984251968503937,"duration":0.1666666666666572},{"name":"A#4","midi":70,"time":191.82499999999843,"velocity":0.5984251968503937,"duration":1.0083333333333542},{"name":"G3","midi":55,"time":191.82499999999843,"velocity":0.6062992125984252,"duration":0.32916666666667993},{"name":"D5","midi":74,"time":192.15833333333177,"velocity":0.5984251968503937,"duration":0.33541666666667425},{"name":"D4","midi":62,"time":192.15833333333177,"velocity":0.6062992125984252,"duration":0.33541666666667425},{"name":"F3","midi":53,"time":192.15833333333177,"velocity":0.6062992125984252,"duration":0.3333333333333428},{"name":"G5","midi":79,"time":192.49583333333177,"velocity":0.5984251968503937,"duration":0.3375000000000057},{"name":"D#4","midi":63,"time":192.49583333333177,"velocity":0.6062992125984252,"duration":0.3375000000000057},{"name":"D#3","midi":51,"time":192.4979166666651,"velocity":0.6062992125984252,"duration":0.3333333333333428},{"name":"B4","midi":71,"time":192.8354166666651,"velocity":0.5984251968503937,"duration":0.34375},{"name":"F5","midi":77,"time":192.8354166666651,"velocity":0.5984251968503937,"duration":0.34375},{"name":"G4","midi":67,"time":192.83749999999844,"velocity":0.6062992125984252,"duration":0.3395833333333371},{"name":"G3","midi":55,"time":192.83749999999844,"velocity":0.6062992125984252,"duration":0.3395833333333371},{"name":"D3","midi":50,"time":192.83958333333177,"velocity":0.6062992125984252,"duration":0.33541666666667425},{"name":"C5","midi":72,"time":193.18124999999844,"velocity":0.5984251968503937,"duration":0.34166666666666856},{"name":"D#5","midi":75,"time":193.18124999999844,"velocity":0.5984251968503937,"duration":0.34166666666666856},{"name":"A4","midi":69,"time":193.18333333333177,"velocity":0.5984251968503937,"duration":0.3375000000000057},{"name":"F#3","midi":54,"time":193.18333333333177,"velocity":0.6062992125984252,"duration":0.6854166666666686},{"name":"C3","midi":48,"time":193.18333333333177,"velocity":0.6062992125984252,"duration":0.3375000000000057},{"name":"D5","midi":74,"time":193.52499999999844,"velocity":0.6062992125984252,"duration":0.34166666666666856},{"name":"A#2","midi":46,"time":193.52499999999844,"velocity":0.6062992125984252,"duration":0.34166666666666856},{"name":"C5","midi":72,"time":193.86874999999844,"velocity":0.6062992125984252,"duration":0.3541666666666572},{"name":"G3","midi":55,"time":193.87083333333177,"velocity":0.6062992125984252,"duration":0.7041666666666515},{"name":"G4","midi":67,"time":193.87083333333177,"velocity":0.6062992125984252,"duration":0.35208333333332575},{"name":"D4","midi":62,"time":193.8729166666651,"velocity":0.6062992125984252,"duration":0.3479166666666629},{"name":"A2","midi":45,"time":193.8729166666651,"velocity":0.6062992125984252,"duration":0.3479166666666629},{"name":"A#4","midi":70,"time":194.22499999999843,"velocity":0.6062992125984252,"duration":0.3479166666666629},{"name":"G2","midi":43,"time":194.22499999999843,"velocity":0.6062992125984252,"duration":0.3479166666666629},{"name":"A4","midi":69,"time":194.57499999999843,"velocity":0.6062992125984252,"duration":1.7770833333332803},{"name":"D#4","midi":63,"time":194.57499999999843,"velocity":0.5118110236220472,"duration":0.7624999999999602},{"name":"G4","midi":67,"time":194.57708333333176,"velocity":0.5118110236220472,"duration":0.7583333333332973},{"name":"C3","midi":48,"time":194.57708333333176,"velocity":0.5590551181102362,"duration":0.35624999999998863},{"name":"A3","midi":57,"time":194.93541666666508,"velocity":0.6062992125984252,"duration":0.1979166666666572},{"name":"A2","midi":45,"time":194.93541666666508,"velocity":0.6062992125984252,"duration":0.39999999999997726},{"name":"A#3","midi":58,"time":195.13541666666507,"velocity":0.6062992125984252,"duration":0.1979166666666572},{"name":"D4","midi":62,"time":195.33749999999839,"velocity":0.5590551181102362,"duration":1.0062499999999943},{"name":"F#4","midi":66,"time":195.33958333333172,"velocity":0.5590551181102362,"duration":1.0791666666666515},{"name":"D3","midi":50,"time":195.33958333333172,"velocity":0.5590551181102362,"duration":0.5583333333333371},{"name":"C4","midi":60,"time":195.34166666666505,"velocity":0.5590551181102362,"duration":0.5541666666666742},{"name":"A#3","midi":58,"time":195.89791666666505,"velocity":0.6062992125984252,"duration":0.25208333333333144},{"name":"D2","midi":38,"time":195.89999999999839,"velocity":0.6062992125984252,"duration":0.5104166666666572},{"name":"A3","midi":57,"time":196.14999999999839,"velocity":0.6062992125984252,"duration":0.24166666666664582},{"name":"G4","midi":67,"time":196.41041666666504,"velocity":0.5511811023622047,"duration":4.13958333333332},{"name":"G2","midi":43,"time":196.41249999999837,"velocity":0.3858267716535433,"duration":4.137499999999989},{"name":"B3","midi":59,"time":196.41874999999837,"velocity":0.47244094488188976,"duration":4.135416666666657},{"name":"D4","midi":62,"time":196.42916666666503,"velocity":0.5590551181102362,"duration":4.129166666666663}],"controlChanges":{"7":[{"number":7,"time":0,"value":0.8267716535433071},{"number":7,"time":0,"value":0.7874015748031497},{"number":7,"time":0,"value":0.7874015748031497}],"10":[{"number":10,"time":0,"value":0.49606299212598426},{"number":10,"time":0,"value":0.3779527559055118},{"number":10,"time":0,"value":0.3779527559055118},{"number":10,"time":5.458333333333333,"value":0.6220472440944882},{"number":10,"time":5.647916666666666,"value":0.5905511811023622},{"number":10,"time":5.691666666666666,"value":0.47244094488188976},{"number":10,"time":5.766666666666667,"value":0.5275590551181102},{"number":10,"time":5.779166666666667,"value":0.4566929133858268},{"number":10,"time":5.816666666666666,"value":0.5826771653543307},{"number":10,"time":5.822916666666666,"value":0.4330708661417323},{"number":10,"time":5.835416666666666,"value":0.5196850393700787},{"number":10,"time":5.908333333333332,"value":0.4645669291338583}]},"id":0,"name":"--------","instrumentNumber":0,"instrument":"acoustic grand piano","instrumentFamily":"piano","channelNumber":0,"isPercussion":false}]}