{"header":{"PPQ":120,"timeSignature":[2,2],"bpm":150,"name":"--------"},"startTime":0,"duration":112.00000000000026,"tracks":[{"startTime":0,"duration":0,"length":0,"notes":[],"controlChanges":{},"id":0,"name":"--------"},{"startTime":32,"duration":112.00000000000017,"length":127,"notes":[{"name":"A#4","midi":70,"time":32,"velocity":0.5433070866141733,"duration":1.6000000000000014},{"name":"D#5","midi":75,"time":33.6,"velocity":0.5433070866141733,"duration":0.7999999999999972},{"name":"D#5","midi":75,"time":34.8,"velocity":0.5433070866141733,"duration":0.3999999999999986},{"name":"D5","midi":74,"time":35.199999999999996,"velocity":0.5433070866141733,"duration":0.3999999999999986},{"name":"G5","midi":79,"time":35.599999999999994,"velocity":0.5433070866141733,"duration":0.7999999999999972},{"name":"F5","midi":77,"time":36.39999999999999,"velocity":0.5433070866141733,"duration":0.3999999999999986},{"name":"D#5","midi":75,"time":36.79999999999999,"velocity":0.5433070866141733,"duration":0.3999999999999986},{"name":"D#5","midi":75,"time":37.19999999999999,"velocity":0.5433070866141733,"duration":0.20000000000000284},{"name":"D5","midi":74,"time":37.39999999999999,"velocity":0.5433070866141733,"duration":0.20000000000000284},{"name":"D#5","midi":75,"time":37.599999999999994,"velocity":0.5433070866141733,"duration":0.3999999999999986},{"name":"G5","midi":79,"time":37.99999999999999,"velocity":0.5433070866141733,"duration":0.3999999999999986},{"name":"C5","midi":72,"time":38.39999999999999,"velocity":0.5433070866141733,"duration":0.3999999999999986},{"name":"F5","midi":77,"time":38.79999999999999,"velocity":0.5433070866141733,"duration":0.7999999999999972},{"name":"D#5","midi":75,"time":39.59999999999999,"velocity":0.5433070866141733,"duration":0.3999999999999986},{"name":"D5","midi":74,"time":39.999999999999986,"velocity":0.5433070866141733,"duration":0.3999999999999986},{"name":"D5","midi":74,"time":40.399999999999984,"velocity":0.5433070866141733,"duration":0.20000000000000284},{"name":"C5","midi":72,"time":40.59999999999999,"velocity":0.5433070866141733,"duration":0.20000000000000284},{"name":"D5","midi":74,"time":40.79999999999999,"velocity":0.5433070866141733,"duration":0.3999999999999986},{"name":"F5","midi":77,"time":41.19999999999999,"velocity":0.5433070866141733,"duration":0.3999999999999986},{"name":"A#4","midi":70,"time":41.59999999999999,"velocity":0.5433070866141733,"duration":0.3999999999999986},{"name":"A#4","midi":70,"time":41.999999999999986,"velocity":0.5433070866141733,"duration":0.20000000000000284},{"name":"A4","midi":69,"time":42.19999999999999,"velocity":0.5433070866141733,"duration":0.20000000000000284},{"name":"A#4","midi":70,"time":42.39999999999999,"velocity":0.5433070866141733,"duration":0.3999999999999986},{"name":"D5","midi":74,"time":42.79999999999999,"velocity":0.5433070866141733,"duration":0.3999999999999986},{"name":"G4","midi":67,"time":43.19999999999999,"velocity":0.5433070866141733,"duration":0.3999999999999986},{"name":"A4","midi":69,"time":43.59999999999999,"velocity":0.5433070866141733,"duration":0.3999999999999986},{"name":"A#4","midi":70,"time":43.999999999999986,"velocity":0.5433070866141733,"duration":1.6000000000000014},{"name":"A4","midi":69,"time":45.59999999999999,"velocity":0.5433070866141733,"duration":0.7999999999999972},{"name":"A#4","midi":70,"time":46.399999999999984,"velocity":0.5433070866141733,"duration":0.3999999999999986},{"name":"D5","midi":74,"time":46.79999999999998,"velocity":0.5433070866141733,"duration":0.20000000000000284},{"name":"D#5","midi":75,"time":46.999999999999986,"velocity":0.5433070866141733,"duration":0.20000000000000284},{"name":"F5","midi":77,"time":47.19999999999999,"velocity":0.5433070866141733,"duration":0.3999999999999986},{"name":"D5","midi":74,"time":47.59999999999999,"velocity":0.5433070866141733,"duration":0.3999999999999986},{"name":"A#4","midi":70,"time":47.999999999999986,"velocity":0.5433070866141733,"duration":0.3999999999999986},{"name":"D#5","midi":75,"time":48.399999999999984,"velocity":0.5433070866141733,"duration":0.20000000000000284},{"name":"F5","midi":77,"time":48.59999999999999,"velocity":0.5433070866141733,"duration":0.20000000000000284},{"name":"G5","midi":79,"time":48.79999999999999,"velocity":0.5433070866141733,"duration":0.3999999999999986},{"name":"D#5","midi":75,"time":49.19999999999999,"velocity":0.5433070866141733,"duration":0.3999999999999986},{"name":"F5","midi":77,"time":49.59999999999999,"velocity":0.5433070866141733,"duration":0.3999999999999986},{"name":"D#5","midi":75,"time":49.999999999999986,"velocity":0.5433070866141733,"duration":0.20000000000000284},{"name":"D5","midi":74,"time":50.19999999999999,"velocity":0.5433070866141733,"duration":0.20000000000000284},{"name":"C5","midi":72,"time":50.39999999999999,"velocity":0.5433070866141733,"duration":0.3999999999999986},{"name":"D5","midi":74,"time":50.79999999999999,"velocity":0.5433070866141733,"duration":0.3999999999999986},{"name":"D#5","midi":75,"time":51.19999999999999,"velocity":0.5433070866141733,"duration":0.3999999999999986},{"name":"D#5","midi":75,"time":59.19999999999999,"velocity":0.5433070866141733,"duration":1.6000000000000014},{"name":"A#5","midi":82,"time":60.79999999999999,"velocity":0.5433070866141733,"duration":0.7999999999999972},{"name":"G#5","midi":80,"time":61.999999999999986,"velocity":0.5433070866141733,"duration":0.3999999999999986},{"name":"G5","midi":79,"time":62.399999999999984,"velocity":0.5433070866141733,"duration":0.3999999999999986},{"name":"C6","midi":84,"time":62.79999999999998,"velocity":0.5433070866141733,"duration":0.7999999999999972},{"name":"A#5","midi":82,"time":63.59999999999998,"velocity":0.5433070866141733,"duration":0.3999999999999986},{"name":"G#5","midi":80,"time":63.99999999999998,"velocity":0.5433070866141733,"duration":0.3999999999999986},{"name":"G#5","midi":80,"time":64.39999999999998,"velocity":0.5433070866141733,"duration":0.20000000000000284},{"name":"G5","midi":79,"time":64.59999999999998,"velocity":0.5433070866141733,"duration":0.20000000000000284},{"name":"G#5","midi":80,"time":64.79999999999998,"velocity":0.5433070866141733,"duration":0.4000000000000057},{"name":"C6","midi":84,"time":65.19999999999999,"velocity":0.5433070866141733,"duration":0.4000000000000057},{"name":"F5","midi":77,"time":65.6,"velocity":0.5433070866141733,"duration":0.4000000000000057},{"name":"A#5","midi":82,"time":66,"velocity":0.5433070866141733,"duration":0.7999999999999972},{"name":"G#5","midi":80,"time":66.8,"velocity":0.5433070866141733,"duration":0.4000000000000057},{"name":"G5","midi":79,"time":67.2,"velocity":0.5433070866141733,"duration":0.4000000000000057},{"name":"G5","midi":79,"time":67.60000000000001,"velocity":0.5433070866141733,"duration":0.20000000000000284},{"name":"F5","midi":77,"time":67.80000000000001,"velocity":0.5433070866141733,"duration":0.20000000000000284},{"name":"G5","midi":79,"time":68.00000000000001,"velocity":0.5433070866141733,"duration":0.4000000000000057},{"name":"A#5","midi":82,"time":68.40000000000002,"velocity":0.5433070866141733,"duration":0.4000000000000057},{"name":"D#5","midi":75,"time":68.80000000000003,"velocity":0.5433070866141733,"duration":0.4000000000000057},{"name":"D#5","midi":75,"time":69.20000000000003,"velocity":0.5433070866141733,"duration":0.20000000000000284},{"name":"D5","midi":74,"time":69.40000000000003,"velocity":0.5433070866141733,"duration":0.20000000000000284},{"name":"D#5","midi":75,"time":69.60000000000004,"velocity":0.5433070866141733,"duration":0.4000000000000057},{"name":"G5","midi":79,"time":70.00000000000004,"velocity":0.5433070866141733,"duration":0.4000000000000057},{"name":"C5","midi":72,"time":70.40000000000005,"velocity":0.5433070866141733,"duration":0.4000000000000057},{"name":"D5","midi":74,"time":70.80000000000005,"velocity":0.5433070866141733,"duration":0.20000000000000284},{"name":"D#5","midi":75,"time":71.00000000000006,"velocity":0.5433070866141733,"duration":0.20000000000000284},{"name":"F5","midi":77,"time":71.20000000000006,"velocity":0.5433070866141733,"duration":1.5999999999999943},{"name":"D#5","midi":75,"time":72.80000000000005,"velocity":0.5433070866141733,"duration":0.20000000000000284},{"name":"D5","midi":74,"time":73.00000000000006,"velocity":0.5433070866141733,"duration":0.20000000000000284},{"name":"D#5","midi":75,"time":73.20000000000006,"velocity":0.5433070866141733,"duration":0.20000000000000284},{"name":"F5","midi":77,"time":73.40000000000006,"velocity":0.5433070866141733,"duration":0.20000000000000284},{"name":"D5","midi":74,"time":73.60000000000007,"velocity":0.5433070866141733,"duration":0.4000000000000057},{"name":"G5","midi":79,"time":74.00000000000007,"velocity":0.5433070866141733,"duration":0.7999999999999972},{"name":"F5","midi":77,"time":74.80000000000007,"velocity":0.5433070866141733,"duration":0.4000000000000057},{"name":"E5","midi":76,"time":75.20000000000007,"velocity":0.5433070866141733,"duration":0.4000000000000057},{"name":"C5","midi":72,"time":75.60000000000008,"velocity":0.5433070866141733,"duration":0.4000000000000057},{"name":"F5","midi":77,"time":76.00000000000009,"velocity":0.5433070866141733,"duration":1.5999999999999943},{"name":"D#5","midi":75,"time":77.60000000000008,"velocity":0.5433070866141733,"duration":1.5999999999999943},{"name":"D5","midi":74,"time":79.20000000000007,"velocity":0.5433070866141733,"duration":0.20000000000000284},{"name":"C5","midi":72,"time":79.40000000000008,"velocity":0.5433070866141733,"duration":0.20000000000000284},{"name":"D5","midi":74,"time":79.60000000000008,"velocity":0.5433070866141733,"duration":0.20000000000000284},{"name":"D#5","midi":75,"time":79.80000000000008,"velocity":0.5433070866141733,"duration":0.20000000000000284},{"name":"C5","midi":72,"time":80.00000000000009,"velocity":0.5433070866141733,"duration":0.4000000000000057},{"name":"F5","midi":77,"time":80.40000000000009,"velocity":0.5433070866141733,"duration":0.7999999999999972},{"name":"D#5","midi":75,"time":81.20000000000009,"velocity":0.5433070866141733,"duration":0.4000000000000057},{"name":"D5","midi":74,"time":81.6000000000001,"velocity":0.5433070866141733,"duration":0.4000000000000057},{"name":"A#4","midi":70,"time":82.0000000000001,"velocity":0.5433070866141733,"duration":0.4000000000000057},{"name":"D#5","midi":75,"time":82.4000000000001,"velocity":0.5433070866141733,"duration":1.5999999999999943},{"name":"C#5","midi":73,"time":84.0000000000001,"velocity":0.5433070866141733,"duration":1.2000000000000028},{"name":"C5","midi":72,"time":85.2000000000001,"velocity":0.5433070866141733,"duration":0.4000000000000057},{"name":"A#4","midi":70,"time":85.60000000000011,"velocity":0.5433070866141733,"duration":0.7999999999999972},{"name":"G#4","midi":68,"time":86.4000000000001,"velocity":0.5433070866141733,"duration":0.7999999999999972},{"name":"A#4","midi":70,"time":92.8000000000001,"velocity":0.5433070866141733,"duration":1.5999999999999943},{"name":"D#5","midi":75,"time":94.40000000000009,"velocity":0.5433070866141733,"duration":0.7999999999999972},{"name":"D#5","midi":75,"time":95.6000000000001,"velocity":0.5433070866141733,"duration":0.4000000000000057},{"name":"D5","midi":74,"time":96.0000000000001,"velocity":0.5433070866141733,"duration":0.4000000000000057},{"name":"G5","midi":79,"time":96.4000000000001,"velocity":0.5433070866141733,"duration":0.7999999999999972},{"name":"F5","midi":77,"time":97.2000000000001,"velocity":0.5433070866141733,"duration":0.4000000000000057},{"name":"D#5","midi":75,"time":97.60000000000011,"velocity":0.5433070866141733,"duration":0.4000000000000057},{"name":"D#5","midi":75,"time":98.00000000000011,"velocity":0.5433070866141733,"duration":0.20000000000000284},{"name":"D5","midi":74,"time":98.20000000000012,"velocity":0.5433070866141733,"duration":0.20000000000000284},{"name":"D#5","midi":75,"time":98.40000000000012,"velocity":0.5433070866141733,"duration":0.4000000000000057},{"name":"G5","midi":79,"time":98.80000000000013,"velocity":0.5433070866141733,"duration":0.4000000000000057},{"name":"C5","midi":72,"time":99.20000000000013,"velocity":0.5433070866141733,"duration":0.4000000000000057},{"name":"F5","midi":77,"time":99.60000000000014,"velocity":0.5433070866141733,"duration":0.7999999999999972},{"name":"D#5","midi":75,"time":100.40000000000013,"velocity":0.5433070866141733,"duration":0.4000000000000057},{"name":"D5","midi":74,"time":100.80000000000014,"velocity":0.5433070866141733,"duration":0.4000000000000057},{"name":"D5","midi":74,"time":101.20000000000014,"velocity":0.5433070866141733,"duration":0.20000000000000284},{"name":"C5","midi":72,"time":101.40000000000015,"velocity":0.5433070866141733,"duration":0.20000000000000284},{"name":"D5","midi":74,"time":101.60000000000015,"velocity":0.5433070866141733,"duration":0.4000000000000057},{"name":"F5","midi":77,"time":102.00000000000016,"velocity":0.5433070866141733,"duration":0.4000000000000057},{"name":"A#4","midi":70,"time":102.40000000000016,"velocity":0.5433070866141733,"duration":0.4000000000000057},{"name":"D#5","midi":75,"time":102.80000000000017,"velocity":0.5433070866141733,"duration":0.4000000000000057},{"name":"C#5","midi":73,"time":103.20000000000017,"velocity":0.5433070866141733,"duration":1.2000000000000028},{"name":"C5","midi":72,"time":104.40000000000018,"velocity":0.5433070866141733,"duration":0.4000000000000057},{"name":"A#4","midi":70,"time":104.80000000000018,"velocity":0.5433070866141733,"duration":1.2000000000000028},{"name":"G#4","midi":68,"time":106.00000000000018,"velocity":0.5433070866141733,"duration":0.20000000000000284},{"name":"G4","midi":67,"time":106.20000000000019,"velocity":0.5433070866141733,"duration":0.20000000000000284},{"name":"G#4","midi":68,"time":106.40000000000019,"velocity":0.5433070866141733,"duration":1.5999999999999943},{"name":"F#4","midi":66,"time":108.00000000000018,"velocity":0.5433070866141733,"duration":0.7999999999999972},{"name":"F4","midi":65,"time":108.80000000000018,"velocity":0.5433070866141733,"duration":1.5999999999999943},{"name":"D#4","midi":63,"time":110.40000000000018,"velocity":0.5433070866141733,"duration":1.5999999999999943}],"controlChanges":{"7":[{"number":7,"time":0,"value":0.7874015748031497}],"10":[{"number":10,"time":0,"value":0.6220472440944882}]},"id":1,"name":"BWV 876/2","instrumentNumber":6,"instrument":"harpsichord","instrumentFamily":"piano","channelNumber":0,"isPercussion":false},{"startTime":20.8,"duration":112.00000000000026,"length":170,"notes":[{"name":"D#4","midi":63,"time":20.8,"velocity":0.5433070866141733,"duration":1.6000000000000014},{"name":"A#4","midi":70,"time":22.400000000000002,"velocity":0.5433070866141733,"duration":0.8000000000000007},{"name":"G#4","midi":68,"time":23.6,"velocity":0.5433070866141733,"duration":0.3999999999999986},{"name":"G4","midi":67,"time":24,"velocity":0.5433070866141733,"duration":0.3999999999999986},{"name":"C5","midi":72,"time":24.4,"velocity":0.5433070866141733,"duration":0.8000000000000007},{"name":"A#4","midi":70,"time":25.2,"velocity":0.5433070866141733,"duration":0.3999999999999986},{"name":"G#4","midi":68,"time":25.599999999999998,"velocity":0.5433070866141733,"duration":0.3999999999999986},{"name":"G#4","midi":68,"time":25.999999999999996,"velocity":0.5433070866141733,"duration":0.1999999999999993},{"name":"G4","midi":67,"time":26.199999999999996,"velocity":0.5433070866141733,"duration":0.1999999999999993},{"name":"G#4","midi":68,"time":26.399999999999995,"velocity":0.5433070866141733,"duration":0.3999999999999986},{"name":"C5","midi":72,"time":26.799999999999994,"velocity":0.5433070866141733,"duration":0.3999999999999986},{"name":"F4","midi":65,"time":27.199999999999992,"velocity":0.5433070866141733,"duration":0.3999999999999986},{"name":"A#4","midi":70,"time":27.59999999999999,"velocity":0.5433070866141733,"duration":0.8000000000000007},{"name":"G#4","midi":68,"time":28.39999999999999,"velocity":0.5433070866141733,"duration":0.3999999999999986},{"name":"G4","midi":67,"time":28.79999999999999,"velocity":0.5433070866141733,"duration":0.3999999999999986},{"name":"G4","midi":67,"time":29.19999999999999,"velocity":0.5433070866141733,"duration":0.1999999999999993},{"name":"F4","midi":65,"time":29.399999999999988,"velocity":0.5433070866141733,"duration":0.1999999999999993},{"name":"G4","midi":67,"time":29.599999999999987,"velocity":0.5433070866141733,"duration":0.3999999999999986},{"name":"A#4","midi":70,"time":29.999999999999986,"velocity":0.5433070866141733,"duration":0.3999999999999986},{"name":"D#4","midi":63,"time":30.399999999999984,"velocity":0.5433070866141733,"duration":0.3999999999999986},{"name":"F4","midi":65,"time":30.799999999999983,"velocity":0.5433070866141733,"duration":0.1999999999999993},{"name":"D#4","midi":63,"time":30.999999999999982,"velocity":0.5433070866141733,"duration":0.1999999999999993},{"name":"F4","midi":65,"time":31.19999999999998,"velocity":0.5433070866141733,"duration":0.3999999999999986},{"name":"G#4","midi":68,"time":31.59999999999998,"velocity":0.5433070866141733,"duration":0.3999999999999986},{"name":"D4","midi":62,"time":31.99999999999998,"velocity":0.5433070866141733,"duration":0.3999999999999986},{"name":"D#4","midi":63,"time":32.39999999999998,"velocity":0.5433070866141733,"duration":0.7999999999999972},{"name":"D4","midi":62,"time":33.199999999999974,"velocity":0.5433070866141733,"duration":0.3999999999999986},{"name":"C4","midi":60,"time":33.59999999999997,"velocity":0.5433070866141733,"duration":0.3999999999999986},{"name":"G4","midi":67,"time":33.99999999999997,"velocity":0.5433070866141733,"duration":0.3999999999999986},{"name":"C5","midi":72,"time":34.39999999999997,"velocity":0.5433070866141733,"duration":1.2000000000000028},{"name":"A#4","midi":70,"time":35.59999999999997,"velocity":0.5433070866141733,"duration":0.20000000000000284},{"name":"A4","midi":69,"time":35.799999999999976,"velocity":0.5433070866141733,"duration":0.20000000000000284},{"name":"A#4","midi":70,"time":35.99999999999998,"velocity":0.5433070866141733,"duration":1.6000000000000014},{"name":"A4","midi":69,"time":37.59999999999998,"velocity":0.5433070866141733,"duration":0.3999999999999986},{"name":"G4","midi":67,"time":37.99999999999998,"velocity":0.5433070866141733,"duration":0.3999999999999986},{"name":"A4","midi":69,"time":38.39999999999998,"velocity":0.5433070866141733,"duration":0.6000000000000014},{"name":"A#4","midi":70,"time":38.99999999999998,"velocity":0.5433070866141733,"duration":0.10000000000000142},{"name":"A4","midi":69,"time":39.09999999999998,"velocity":0.5433070866141733,"duration":0.10000000000000142},{"name":"G4","midi":67,"time":39.19999999999998,"velocity":0.5433070866141733,"duration":0.3999999999999986},{"name":"A4","midi":69,"time":39.59999999999998,"velocity":0.5433070866141733,"duration":0.3999999999999986},{"name":"A#4","midi":70,"time":39.99999999999998,"velocity":0.5433070866141733,"duration":0.7999999999999972},{"name":"F4","midi":65,"time":41.199999999999974,"velocity":0.5433070866141733,"duration":0.3999999999999986},{"name":"G4","midi":67,"time":41.59999999999997,"velocity":0.5433070866141733,"duration":0.7999999999999972},{"name":"D4","midi":62,"time":42.79999999999997,"velocity":0.5433070866141733,"duration":0.3999999999999986},{"name":"D#4","midi":63,"time":43.19999999999997,"velocity":0.5433070866141733,"duration":0.3999999999999986},{"name":"F4","midi":65,"time":43.599999999999966,"velocity":0.5433070866141733,"duration":0.3999999999999986},{"name":"G4","midi":67,"time":43.999999999999964,"velocity":0.5433070866141733,"duration":0.7999999999999972},{"name":"F4","midi":65,"time":44.79999999999996,"velocity":0.5433070866141733,"duration":1.2000000000000028},{"name":"D#4","midi":63,"time":45.999999999999964,"velocity":0.5433070866141733,"duration":0.3999999999999986},{"name":"D4","midi":62,"time":46.39999999999996,"velocity":0.5433070866141733,"duration":0.3999999999999986},{"name":"F4","midi":65,"time":46.79999999999996,"velocity":0.5433070866141733,"duration":0.20000000000000284},{"name":"G4","midi":67,"time":46.999999999999964,"velocity":0.5433070866141733,"duration":0.20000000000000284},{"name":"G#4","midi":68,"time":47.19999999999997,"velocity":0.5433070866141733,"duration":1.2000000000000028},{"name":"G4","midi":67,"time":48.39999999999997,"velocity":0.5433070866141733,"duration":0.20000000000000284},{"name":"G#4","midi":68,"time":48.59999999999997,"velocity":0.5433070866141733,"duration":0.20000000000000284},{"name":"A#4","midi":70,"time":48.799999999999976,"velocity":0.5433070866141733,"duration":0.3999999999999986},{"name":"G4","midi":67,"time":49.199999999999974,"velocity":0.5433070866141733,"duration":0.3999999999999986},{"name":"F4","midi":65,"time":49.59999999999997,"velocity":0.5433070866141733,"duration":0.3999999999999986},{"name":"A#4","midi":70,"time":49.99999999999997,"velocity":0.5433070866141733,"duration":0.3999999999999986},{"name":"G#4","midi":68,"time":50.39999999999997,"velocity":0.5433070866141733,"duration":0.3999999999999986},{"name":"A#4","midi":70,"time":50.79999999999997,"velocity":0.5433070866141733,"duration":0.3999999999999986},{"name":"A#3","midi":58,"time":51.19999999999997,"velocity":0.5433070866141733,"duration":0.3999999999999986},{"name":"A#4","midi":70,"time":57.599999999999966,"velocity":0.5433070866141733,"duration":1.6000000000000014},{"name":"D#5","midi":75,"time":59.19999999999997,"velocity":0.5433070866141733,"duration":0.7999999999999972},{"name":"D#5","midi":75,"time":60.39999999999996,"velocity":0.5433070866141733,"duration":0.3999999999999986},{"name":"D5","midi":74,"time":60.79999999999996,"velocity":0.5433070866141733,"duration":0.3999999999999986},{"name":"G5","midi":79,"time":61.19999999999996,"velocity":0.5433070866141733,"duration":0.7999999999999972},{"name":"F5","midi":77,"time":61.99999999999996,"velocity":0.5433070866141733,"duration":0.3999999999999986},{"name":"D#5","midi":75,"time":62.399999999999956,"velocity":0.5433070866141733,"duration":0.3999999999999986},{"name":"D#5","midi":75,"time":62.799999999999955,"velocity":0.5433070866141733,"duration":0.20000000000000284},{"name":"D5","midi":74,"time":62.99999999999996,"velocity":0.5433070866141733,"duration":0.20000000000000284},{"name":"D#5","midi":75,"time":63.19999999999996,"velocity":0.5433070866141733,"duration":0.3999999999999986},{"name":"G5","midi":79,"time":63.59999999999996,"velocity":0.5433070866141733,"duration":0.3999999999999986},{"name":"C5","midi":72,"time":63.99999999999996,"velocity":0.5433070866141733,"duration":0.4000000000000057},{"name":"F5","midi":77,"time":64.39999999999996,"velocity":0.5433070866141733,"duration":0.7999999999999972},{"name":"D#5","midi":75,"time":65.19999999999996,"velocity":0.5433070866141733,"duration":0.4000000000000057},{"name":"D5","midi":74,"time":65.59999999999997,"velocity":0.5433070866141733,"duration":0.4000000000000057},{"name":"D5","midi":74,"time":65.99999999999997,"velocity":0.5433070866141733,"duration":0.20000000000000284},{"name":"C5","midi":72,"time":66.19999999999997,"velocity":0.5433070866141733,"duration":0.20000000000000284},{"name":"D5","midi":74,"time":66.39999999999998,"velocity":0.5433070866141733,"duration":0.4000000000000057},{"name":"F5","midi":77,"time":66.79999999999998,"velocity":0.5433070866141733,"duration":0.4000000000000057},{"name":"A#4","midi":70,"time":67.19999999999999,"velocity":0.5433070866141733,"duration":0.4000000000000057},{"name":"A#4","midi":70,"time":67.6,"velocity":0.5433070866141733,"duration":0.20000000000000284},{"name":"G#4","midi":68,"time":67.8,"velocity":0.5433070866141733,"duration":0.20000000000000284},{"name":"A#4","midi":70,"time":68,"velocity":0.5433070866141733,"duration":0.4000000000000057},{"name":"D5","midi":74,"time":68.4,"velocity":0.5433070866141733,"duration":0.4000000000000057},{"name":"G4","midi":67,"time":68.80000000000001,"velocity":0.5433070866141733,"duration":0.4000000000000057},{"name":"A4","midi":69,"time":69.20000000000002,"velocity":0.5433070866141733,"duration":0.20000000000000284},{"name":"B4","midi":71,"time":69.40000000000002,"velocity":0.5433070866141733,"duration":0.20000000000000284},{"name":"C5","midi":72,"time":69.60000000000002,"velocity":0.5433070866141733,"duration":0.4000000000000057},{"name":"B4","midi":71,"time":70.00000000000003,"velocity":0.5433070866141733,"duration":0.4000000000000057},{"name":"C5","midi":72,"time":70.40000000000003,"velocity":0.5433070866141733,"duration":1},{"name":"B4","midi":71,"time":71.40000000000003,"velocity":0.5433070866141733,"duration":0.20000000000000284},{"name":"C5","midi":72,"time":71.60000000000004,"velocity":0.5433070866141733,"duration":0.20000000000000284},{"name":"D5","midi":74,"time":71.80000000000004,"velocity":0.5433070866141733,"duration":0.20000000000000284},{"name":"B4","midi":71,"time":72.00000000000004,"velocity":0.5433070866141733,"duration":0.4000000000000057},{"name":"G4","midi":67,"time":72.40000000000005,"velocity":0.5433070866141733,"duration":0.4000000000000057},{"name":"C5","midi":72,"time":72.80000000000005,"velocity":0.5433070866141733,"duration":1.5999999999999943},{"name":"A#4","midi":70,"time":74.40000000000005,"velocity":0.5433070866141733,"duration":1.5999999999999943},{"name":"G#4","midi":68,"time":76.00000000000004,"velocity":0.5433070866141733,"duration":0.20000000000000284},{"name":"G4","midi":67,"time":76.20000000000005,"velocity":0.5433070866141733,"duration":0.20000000000000284},{"name":"G#4","midi":68,"time":76.40000000000005,"velocity":0.5433070866141733,"duration":0.20000000000000284},{"name":"A#4","midi":70,"time":76.60000000000005,"velocity":0.5433070866141733,"duration":0.20000000000000284},{"name":"G4","midi":67,"time":76.80000000000005,"velocity":0.5433070866141733,"duration":0.4000000000000057},{"name":"C5","midi":72,"time":77.20000000000006,"velocity":0.5433070866141733,"duration":0.7999999999999972},{"name":"A#4","midi":70,"time":78.00000000000006,"velocity":0.5433070866141733,"duration":0.4000000000000057},{"name":"A4","midi":69,"time":78.40000000000006,"velocity":0.5433070866141733,"duration":0.4000000000000057},{"name":"F4","midi":65,"time":78.80000000000007,"velocity":0.5433070866141733,"duration":0.4000000000000057},{"name":"A#4","midi":70,"time":79.20000000000007,"velocity":0.5433070866141733,"duration":1.5999999999999943},{"name":"G#4","midi":68,"time":80.80000000000007,"velocity":0.5433070866141733,"duration":1.5999999999999943},{"name":"G4","midi":67,"time":82.40000000000006,"velocity":0.5433070866141733,"duration":0.20000000000000284},{"name":"F4","midi":65,"time":82.60000000000007,"velocity":0.5433070866141733,"duration":0.20000000000000284},{"name":"G4","midi":67,"time":82.80000000000007,"velocity":0.5433070866141733,"duration":0.20000000000000284},{"name":"G#4","midi":68,"time":83.00000000000007,"velocity":0.5433070866141733,"duration":0.20000000000000284},{"name":"F4","midi":65,"time":83.20000000000007,"velocity":0.5433070866141733,"duration":0.4000000000000057},{"name":"A#4","midi":70,"time":83.60000000000008,"velocity":0.5433070866141733,"duration":0.7999999999999972},{"name":"G#4","midi":68,"time":84.40000000000008,"velocity":0.5433070866141733,"duration":0.4000000000000057},{"name":"A#4","midi":70,"time":84.80000000000008,"velocity":0.5433070866141733,"duration":0.4000000000000057},{"name":"G#4","midi":68,"time":85.20000000000009,"velocity":0.5433070866141733,"duration":0.7999999999999972},{"name":"G4","midi":67,"time":86.00000000000009,"velocity":0.5433070866141733,"duration":0.7999999999999972},{"name":"F4","midi":65,"time":86.80000000000008,"velocity":0.5433070866141733,"duration":0.20000000000000284},{"name":"G4","midi":67,"time":87.00000000000009,"velocity":0.5433070866141733,"duration":0.20000000000000284},{"name":"G#4","midi":68,"time":87.20000000000009,"velocity":0.5433070866141733,"duration":1.2000000000000028},{"name":"F4","midi":65,"time":88.40000000000009,"velocity":0.5433070866141733,"duration":0.4000000000000057},{"name":"A#4","midi":70,"time":88.8000000000001,"velocity":0.5433070866141733,"duration":0.4000000000000057},{"name":"G#4","midi":68,"time":89.2000000000001,"velocity":0.5433070866141733,"duration":0.4000000000000057},{"name":"G4","midi":67,"time":89.60000000000011,"velocity":0.5433070866141733,"duration":0.4000000000000057},{"name":"G4","midi":67,"time":90.00000000000011,"velocity":0.5433070866141733,"duration":0.20000000000000284},{"name":"F4","midi":65,"time":90.20000000000012,"velocity":0.5433070866141733,"duration":0.20000000000000284},{"name":"G4","midi":67,"time":90.40000000000012,"velocity":0.5433070866141733,"duration":0.4000000000000057},{"name":"A#4","midi":70,"time":90.80000000000013,"velocity":0.5433070866141733,"duration":0.4000000000000057},{"name":"D#4","midi":63,"time":91.20000000000013,"velocity":0.5433070866141733,"duration":0.4000000000000057},{"name":"G#4","midi":68,"time":91.60000000000014,"velocity":0.5433070866141733,"duration":0.7999999999999972},{"name":"G4","midi":67,"time":92.40000000000013,"velocity":0.5433070866141733,"duration":0.4000000000000057},{"name":"F4","midi":65,"time":92.80000000000014,"velocity":0.5433070866141733,"duration":0.4000000000000057},{"name":"F4","midi":65,"time":93.20000000000014,"velocity":0.5433070866141733,"duration":0.20000000000000284},{"name":"D#4","midi":63,"time":93.40000000000015,"velocity":0.5433070866141733,"duration":0.20000000000000284},{"name":"F4","midi":65,"time":93.60000000000015,"velocity":0.5433070866141733,"duration":0.4000000000000057},{"name":"G4","midi":67,"time":94.00000000000016,"velocity":0.5433070866141733,"duration":0.20000000000000284},{"name":"F4","midi":65,"time":94.20000000000016,"velocity":0.5433070866141733,"duration":0.20000000000000284},{"name":"D#4","midi":63,"time":94.40000000000016,"velocity":0.5433070866141733,"duration":0.4000000000000057},{"name":"G4","midi":67,"time":94.80000000000017,"velocity":0.5433070866141733,"duration":0.20000000000000284},{"name":"F4","midi":65,"time":95.00000000000017,"velocity":0.5433070866141733,"duration":0.20000000000000284},{"name":"G4","midi":67,"time":95.20000000000017,"velocity":0.5433070866141733,"duration":0.4000000000000057},{"name":"A4","midi":69,"time":95.60000000000018,"velocity":0.5433070866141733,"duration":0.20000000000000284},{"name":"G4","midi":67,"time":95.80000000000018,"velocity":0.5433070866141733,"duration":0.20000000000000284},{"name":"F4","midi":65,"time":96.00000000000018,"velocity":0.5433070866141733,"duration":0.4000000000000057},{"name":"A#4","midi":70,"time":96.40000000000019,"velocity":0.5433070866141733,"duration":0.20000000000000284},{"name":"G#4","midi":68,"time":96.6000000000002,"velocity":0.5433070866141733,"duration":0.20000000000000284},{"name":"A#4","midi":70,"time":96.8000000000002,"velocity":0.5433070866141733,"duration":0.4000000000000057},{"name":"D5","midi":74,"time":97.2000000000002,"velocity":0.5433070866141733,"duration":0.4000000000000057},{"name":"D#5","midi":75,"time":97.60000000000021,"velocity":0.5433070866141733,"duration":0.4000000000000057},{"name":"C5","midi":72,"time":98.00000000000021,"velocity":0.5433070866141733,"duration":0.4000000000000057},{"name":"G4","midi":67,"time":98.40000000000022,"velocity":0.5433070866141733,"duration":0.7999999999999972},{"name":"G#4","midi":68,"time":99.20000000000022,"velocity":0.5433070866141733,"duration":1.2000000000000028},{"name":"G4","midi":67,"time":100.40000000000022,"velocity":0.5433070866141733,"duration":0.4000000000000057},{"name":"G#4","midi":68,"time":100.80000000000022,"velocity":0.5433070866141733,"duration":0.4000000000000057},{"name":"F4","midi":65,"time":101.20000000000023,"velocity":0.5433070866141733,"duration":0.4000000000000057},{"name":"A#4","midi":70,"time":101.60000000000024,"velocity":0.5433070866141733,"duration":1.2000000000000028},{"name":"G#4","midi":68,"time":103.60000000000024,"velocity":0.5433070866141733,"duration":0.4000000000000057},{"name":"G4","midi":67,"time":104.00000000000024,"velocity":0.5433070866141733,"duration":0.7999999999999972},{"name":"F4","midi":65,"time":105.20000000000024,"velocity":0.5433070866141733,"duration":0.4000000000000057},{"name":"D#4","midi":63,"time":105.60000000000025,"velocity":0.5433070866141733,"duration":1.2000000000000028},{"name":"D4","midi":62,"time":106.80000000000025,"velocity":0.5433070866141733,"duration":0.20000000000000284},{"name":"C4","midi":60,"time":107.00000000000026,"velocity":0.5433070866141733,"duration":0.20000000000000284},{"name":"D4","midi":62,"time":107.20000000000026,"velocity":0.5433070866141733,"duration":0.4000000000000057},{"name":"A#3","midi":58,"time":107.60000000000026,"velocity":0.5433070866141733,"duration":0.4000000000000057},{"name":"D#4","midi":63,"time":108.00000000000027,"velocity":0.5433070866141733,"duration":1.61666666666666},{"name":"D4","midi":62,"time":109.60000000000026,"velocity":0.5433070866141733,"duration":0.8299999999999983},{"name":"A#3","midi":58,"time":110.40000000000026,"velocity":0.5433070866141733,"duration":1.5999999999999943}],"controlChanges":{"7":[{"number":7,"time":0,"value":0.7874015748031497}],"10":[{"number":10,"time":0,"value":0.5590551181102362}]},"id":2,"name":"Sequenced","instrumentNumber":6,"instrument":"harpsichord","instrumentFamily":"piano","channelNumber":0,"isPercussion":false},{"startTime":9.600000000000001,"duration":112.00000000000021,"length":180,"notes":[{"name":"A#3","midi":58,"time":9.600000000000001,"velocity":0.5433070866141733,"duration":1.5999999999999996},{"name":"D#4","midi":63,"time":11.200000000000001,"velocity":0.5433070866141733,"duration":0.8000000000000007},{"name":"D#4","midi":63,"time":12.400000000000002,"velocity":0.5433070866141733,"duration":0.40000000000000036},{"name":"D4","midi":62,"time":12.800000000000002,"velocity":0.5433070866141733,"duration":0.40000000000000036},{"name":"G4","midi":67,"time":13.200000000000003,"velocity":0.5433070866141733,"duration":0.8000000000000007},{"name":"F4","midi":65,"time":14.000000000000004,"velocity":0.5433070866141733,"duration":0.40000000000000036},{"name":"D#4","midi":63,"time":14.400000000000004,"velocity":0.5433070866141733,"duration":0.40000000000000036},{"name":"D#4","midi":63,"time":14.800000000000004,"velocity":0.5433070866141733,"duration":0.1999999999999993},{"name":"D4","midi":62,"time":15.000000000000004,"velocity":0.5433070866141733,"duration":0.1999999999999993},{"name":"D#4","midi":63,"time":15.200000000000003,"velocity":0.5433070866141733,"duration":0.40000000000000036},{"name":"G4","midi":67,"time":15.600000000000003,"velocity":0.5433070866141733,"duration":0.40000000000000036},{"name":"C4","midi":60,"time":16.000000000000004,"velocity":0.5433070866141733,"duration":0.3999999999999986},{"name":"F4","midi":65,"time":16.400000000000002,"velocity":0.5433070866141733,"duration":0.8000000000000007},{"name":"D#4","midi":63,"time":17.200000000000003,"velocity":0.5433070866141733,"duration":0.3999999999999986},{"name":"D4","midi":62,"time":17.6,"velocity":0.5433070866141733,"duration":0.3999999999999986},{"name":"D4","midi":62,"time":18,"velocity":0.5433070866141733,"duration":0.1999999999999993},{"name":"C4","midi":60,"time":18.2,"velocity":0.5433070866141733,"duration":0.1999999999999993},{"name":"D4","midi":62,"time":18.4,"velocity":0.5433070866141733,"duration":0.3999999999999986},{"name":"F4","midi":65,"time":18.799999999999997,"velocity":0.5433070866141733,"duration":0.3999999999999986},{"name":"A#3","midi":58,"time":19.199999999999996,"velocity":0.5433070866141733,"duration":0.3999999999999986},{"name":"A#3","midi":58,"time":19.599999999999994,"velocity":0.5433070866141733,"duration":0.1999999999999993},{"name":"G#3","midi":56,"time":19.799999999999994,"velocity":0.5433070866141733,"duration":0.1999999999999993},{"name":"A#3","midi":58,"time":19.999999999999993,"velocity":0.5433070866141733,"duration":0.3999999999999986},{"name":"D4","midi":62,"time":20.39999999999999,"velocity":0.5433070866141733,"duration":0.3999999999999986},{"name":"G3","midi":55,"time":20.79999999999999,"velocity":0.5433070866141733,"duration":0.3999999999999986},{"name":"G#3","midi":56,"time":21.19999999999999,"velocity":0.5433070866141733,"duration":0.1999999999999993},{"name":"A#3","midi":58,"time":21.399999999999988,"velocity":0.5433070866141733,"duration":0.1999999999999993},{"name":"C4","midi":60,"time":21.599999999999987,"velocity":0.5433070866141733,"duration":0.3999999999999986},{"name":"A#3","midi":58,"time":21.999999999999986,"velocity":0.5433070866141733,"duration":0.1999999999999993},{"name":"C4","midi":60,"time":22.199999999999985,"velocity":0.5433070866141733,"duration":0.1999999999999993},{"name":"D4","midi":62,"time":22.399999999999984,"velocity":0.5433070866141733,"duration":0.3999999999999986},{"name":"F4","midi":65,"time":22.799999999999983,"velocity":0.5433070866141733,"duration":0.3999999999999986},{"name":"A#3","midi":58,"time":23.19999999999998,"velocity":0.5433070866141733,"duration":0.3999999999999986},{"name":"D4","midi":62,"time":23.59999999999998,"velocity":0.5433070866141733,"duration":0.3999999999999986},{"name":"D#4","midi":63,"time":23.99999999999998,"velocity":0.5433070866141733,"duration":2.3999999999999986},{"name":"D4","midi":62,"time":26.399999999999977,"velocity":0.5433070866141733,"duration":0.3999999999999986},{"name":"C4","midi":60,"time":26.799999999999976,"velocity":0.5433070866141733,"duration":0.3999999999999986},{"name":"D4","midi":62,"time":27.199999999999974,"velocity":0.5433070866141733,"duration":0.6000000000000014},{"name":"D#4","midi":63,"time":27.799999999999976,"velocity":0.5433070866141733,"duration":0.10000000000000142},{"name":"D4","midi":62,"time":27.899999999999977,"velocity":0.5433070866141733,"duration":0.10000000000000142},{"name":"C4","midi":60,"time":27.99999999999998,"velocity":0.5433070866141733,"duration":0.3999999999999986},{"name":"D4","midi":62,"time":28.399999999999977,"velocity":0.5433070866141733,"duration":0.3999999999999986},{"name":"D#4","midi":63,"time":28.799999999999976,"velocity":0.5433070866141733,"duration":0.3999999999999986},{"name":"A#3","midi":58,"time":29.199999999999974,"velocity":0.5433070866141733,"duration":0.1999999999999993},{"name":"G#3","midi":56,"time":29.399999999999974,"velocity":0.5433070866141733,"duration":0.1999999999999993},{"name":"A#3","midi":58,"time":29.599999999999973,"velocity":0.5433070866141733,"duration":1.1999999999999993},{"name":"G#3","midi":56,"time":30.799999999999972,"velocity":0.5433070866141733,"duration":0.1999999999999993},{"name":"G3","midi":55,"time":30.99999999999997,"velocity":0.5433070866141733,"duration":0.1999999999999993},{"name":"G#3","midi":56,"time":31.19999999999997,"velocity":0.5433070866141733,"duration":1.1999999999999993},{"name":"G3","midi":55,"time":32.39999999999997,"velocity":0.5433070866141733,"duration":0.3999999999999986},{"name":"F3","midi":53,"time":32.79999999999997,"velocity":0.5433070866141733,"duration":0.3999999999999986},{"name":"A#3","midi":58,"time":33.19999999999997,"velocity":0.5433070866141733,"duration":0.3999999999999986},{"name":"G3","midi":55,"time":33.599999999999966,"velocity":0.5433070866141733,"duration":0.7999999999999972},{"name":"F3","midi":53,"time":34.39999999999996,"velocity":0.5433070866141733,"duration":1.2000000000000028},{"name":"D3","midi":50,"time":35.599999999999966,"velocity":0.5433070866141733,"duration":0.3999999999999986},{"name":"G3","midi":55,"time":35.999999999999964,"velocity":0.5433070866141733,"duration":1.2000000000000028},{"name":"C4","midi":60,"time":37.19999999999997,"velocity":0.5433070866141733,"duration":0.20000000000000284},{"name":"A#3","midi":58,"time":37.39999999999997,"velocity":0.5433070866141733,"duration":0.20000000000000284},{"name":"C4","midi":60,"time":37.59999999999997,"velocity":0.5433070866141733,"duration":1.3999999999999986},{"name":"D4","midi":62,"time":38.99999999999997,"velocity":0.5433070866141733,"duration":0.10000000000000142},{"name":"C4","midi":60,"time":39.09999999999997,"velocity":0.5433070866141733,"duration":0.10000000000000142},{"name":"A#3","midi":58,"time":39.199999999999974,"velocity":0.5433070866141733,"duration":0.3999999999999986},{"name":"C4","midi":60,"time":39.59999999999997,"velocity":0.5433070866141733,"duration":0.3999999999999986},{"name":"D4","midi":62,"time":39.99999999999997,"velocity":0.5433070866141733,"duration":0.7999999999999972},{"name":"C4","midi":60,"time":41.19999999999997,"velocity":0.5433070866141733,"duration":0.3999999999999986},{"name":"D4","midi":62,"time":41.599999999999966,"velocity":0.5433070866141733,"duration":0.7999999999999972},{"name":"G#3","midi":56,"time":42.79999999999996,"velocity":0.5433070866141733,"duration":0.3999999999999986},{"name":"A#3","midi":58,"time":43.19999999999996,"velocity":0.5433070866141733,"duration":0.3999999999999986},{"name":"C4","midi":60,"time":43.59999999999996,"velocity":0.5433070866141733,"duration":0.3999999999999986},{"name":"C#4","midi":61,"time":43.99999999999996,"velocity":0.5433070866141733,"duration":0.7999999999999972},{"name":"C4","midi":60,"time":44.799999999999955,"velocity":0.5433070866141733,"duration":0.3999999999999986},{"name":"A#3","midi":58,"time":45.19999999999995,"velocity":0.5433070866141733,"duration":0.3999999999999986},{"name":"C4","midi":60,"time":45.59999999999995,"velocity":0.5433070866141733,"duration":0.7999999999999972},{"name":"A#3","midi":58,"time":46.39999999999995,"velocity":0.5433070866141733,"duration":0.7999999999999972},{"name":"A#3","midi":58,"time":47.199999999999946,"velocity":0.5433070866141733,"duration":0.7999999999999972},{"name":"D#4","midi":63,"time":47.99999999999994,"velocity":0.5433070866141733,"duration":0.7999999999999972},{"name":"D#4","midi":63,"time":49.19999999999994,"velocity":0.5433070866141733,"duration":0.3999999999999986},{"name":"D4","midi":62,"time":49.59999999999994,"velocity":0.5433070866141733,"duration":0.3999999999999986},{"name":"G4","midi":67,"time":49.999999999999936,"velocity":0.5433070866141733,"duration":0.7999999999999972},{"name":"F4","midi":65,"time":50.79999999999993,"velocity":0.5433070866141733,"duration":0.3999999999999986},{"name":"D#4","midi":63,"time":51.19999999999993,"velocity":0.5433070866141733,"duration":0.3999999999999986},{"name":"D#4","midi":63,"time":51.59999999999993,"velocity":0.5433070866141733,"duration":0.20000000000000284},{"name":"D4","midi":62,"time":51.79999999999993,"velocity":0.5433070866141733,"duration":0.20000000000000284},{"name":"D#4","midi":63,"time":51.999999999999936,"velocity":0.5433070866141733,"duration":0.3999999999999986},{"name":"G4","midi":67,"time":52.399999999999935,"velocity":0.5433070866141733,"duration":0.3999999999999986},{"name":"C4","midi":60,"time":52.79999999999993,"velocity":0.5433070866141733,"duration":0.3999999999999986},{"name":"F4","midi":65,"time":53.19999999999993,"velocity":0.5433070866141733,"duration":0.7999999999999972},{"name":"D#4","midi":63,"time":53.99999999999993,"velocity":0.5433070866141733,"duration":0.3999999999999986},{"name":"D4","midi":62,"time":54.39999999999993,"velocity":0.5433070866141733,"duration":0.3999999999999986},{"name":"D4","midi":62,"time":54.799999999999926,"velocity":0.5433070866141733,"duration":0.20000000000000284},{"name":"C4","midi":60,"time":54.99999999999993,"velocity":0.5433070866141733,"duration":0.20000000000000284},{"name":"D4","midi":62,"time":55.19999999999993,"velocity":0.5433070866141733,"duration":0.3999999999999986},{"name":"F4","midi":65,"time":55.59999999999993,"velocity":0.5433070866141733,"duration":0.3999999999999986},{"name":"A#3","midi":58,"time":55.99999999999993,"velocity":0.5433070866141733,"duration":0.3999999999999986},{"name":"A#3","midi":58,"time":56.39999999999993,"velocity":0.5433070866141733,"duration":0.20000000000000284},{"name":"G#3","midi":56,"time":56.59999999999993,"velocity":0.5433070866141733,"duration":0.20000000000000284},{"name":"A#3","midi":58,"time":56.79999999999993,"velocity":0.5433070866141733,"duration":0.3999999999999986},{"name":"D4","midi":62,"time":57.19999999999993,"velocity":0.5433070866141733,"duration":0.3999999999999986},{"name":"G3","midi":55,"time":57.59999999999993,"velocity":0.5433070866141733,"duration":0.7999999999999972},{"name":"G4","midi":67,"time":58.39999999999993,"velocity":0.5433070866141733,"duration":1.2000000000000028},{"name":"G4","midi":67,"time":59.59999999999993,"velocity":0.5433070866141733,"duration":0.20000000000000284},{"name":"F4","midi":65,"time":59.79999999999993,"velocity":0.5433070866141733,"duration":0.20000000000000284},{"name":"G4","midi":67,"time":59.999999999999936,"velocity":0.5433070866141733,"duration":0.3999999999999986},{"name":"A4","midi":69,"time":60.399999999999935,"velocity":0.5433070866141733,"duration":0.3999999999999986},{"name":"A#4","midi":70,"time":60.79999999999993,"velocity":0.5433070866141733,"duration":0.3999999999999986},{"name":"D4","midi":62,"time":61.19999999999993,"velocity":0.5433070866141733,"duration":0.20000000000000284},{"name":"C4","midi":60,"time":61.399999999999935,"velocity":0.5433070866141733,"duration":0.20000000000000284},{"name":"D4","midi":62,"time":61.59999999999994,"velocity":0.5433070866141733,"duration":0.3999999999999986},{"name":"F4","midi":65,"time":61.999999999999936,"velocity":0.5433070866141733,"duration":0.3999999999999986},{"name":"G4","midi":67,"time":62.399999999999935,"velocity":0.5433070866141733,"duration":0.3999999999999986},{"name":"G4","midi":67,"time":62.79999999999993,"velocity":0.5433070866141733,"duration":0.20000000000000284},{"name":"F4","midi":65,"time":62.999999999999936,"velocity":0.5433070866141733,"duration":0.20000000000000284},{"name":"G4","midi":67,"time":63.19999999999994,"velocity":0.5433070866141733,"duration":1.1999999999999957},{"name":"C4","midi":60,"time":64.39999999999993,"velocity":0.5433070866141733,"duration":0.4000000000000057},{"name":"F4","midi":65,"time":64.79999999999994,"velocity":0.5433070866141733,"duration":1.2000000000000028},{"name":"F4","midi":65,"time":65.99999999999994,"velocity":0.5433070866141733,"duration":0.20000000000000284},{"name":"D#4","midi":63,"time":66.19999999999995,"velocity":0.5433070866141733,"duration":0.20000000000000284},{"name":"F4","midi":65,"time":66.39999999999995,"velocity":0.5433070866141733,"duration":1.2000000000000028},{"name":"A#3","midi":58,"time":67.59999999999995,"velocity":0.5433070866141733,"duration":0.4000000000000057},{"name":"D#4","midi":63,"time":67.99999999999996,"velocity":0.5433070866141733,"duration":0.4000000000000057},{"name":"A#3","midi":58,"time":83.99999999999997,"velocity":0.5433070866141733,"duration":0.7999999999999972},{"name":"D#4","midi":63,"time":84.79999999999997,"velocity":0.5433070866141733,"duration":0.7999999999999972},{"name":"C#4","midi":61,"time":85.99999999999997,"velocity":0.5433070866141733,"duration":0.4000000000000057},{"name":"C4","midi":60,"time":86.39999999999998,"velocity":0.5433070866141733,"duration":0.4000000000000057},{"name":"F4","midi":65,"time":86.79999999999998,"velocity":0.5433070866141733,"duration":0.7999999999999972},{"name":"D#4","midi":63,"time":87.59999999999998,"velocity":0.5433070866141733,"duration":0.4000000000000057},{"name":"C#4","midi":61,"time":87.99999999999999,"velocity":0.5433070866141733,"duration":0.4000000000000057},{"name":"C#4","midi":61,"time":88.39999999999999,"velocity":0.5433070866141733,"duration":0.20000000000000284},{"name":"C4","midi":60,"time":88.6,"velocity":0.5433070866141733,"duration":0.20000000000000284},{"name":"C#4","midi":61,"time":88.8,"velocity":0.5433070866141733,"duration":0.4000000000000057},{"name":"F4","midi":65,"time":89.2,"velocity":0.5433070866141733,"duration":0.4000000000000057},{"name":"A#3","midi":58,"time":89.60000000000001,"velocity":0.5433070866141733,"duration":0.4000000000000057},{"name":"D#4","midi":63,"time":90.00000000000001,"velocity":0.5433070866141733,"duration":0.7999999999999972},{"name":"C#4","midi":61,"time":90.80000000000001,"velocity":0.5433070866141733,"duration":0.4000000000000057},{"name":"C4","midi":60,"time":91.20000000000002,"velocity":0.5433070866141733,"duration":0.4000000000000057},{"name":"C4","midi":60,"time":91.60000000000002,"velocity":0.5433070866141733,"duration":0.20000000000000284},{"name":"A#3","midi":58,"time":91.80000000000003,"velocity":0.5433070866141733,"duration":0.20000000000000284},{"name":"C4","midi":60,"time":92.00000000000003,"velocity":0.5433070866141733,"duration":0.4000000000000057},{"name":"D#4","midi":63,"time":92.40000000000003,"velocity":0.5433070866141733,"duration":0.4000000000000057},{"name":"G#3","midi":56,"time":92.80000000000004,"velocity":0.5433070866141733,"duration":0.4000000000000057},{"name":"G#3","midi":56,"time":93.20000000000005,"velocity":0.5433070866141733,"duration":0.20000000000000284},{"name":"G3","midi":55,"time":93.40000000000005,"velocity":0.5433070866141733,"duration":0.20000000000000284},{"name":"G#3","midi":56,"time":93.60000000000005,"velocity":0.5433070866141733,"duration":0.4000000000000057},{"name":"A#3","midi":58,"time":94.00000000000006,"velocity":0.5433070866141733,"duration":0.20000000000000284},{"name":"G#3","midi":56,"time":94.20000000000006,"velocity":0.5433070866141733,"duration":0.20000000000000284},{"name":"G3","midi":55,"time":94.40000000000006,"velocity":0.5433070866141733,"duration":0.4000000000000057},{"name":"A#3","midi":58,"time":94.80000000000007,"velocity":0.5433070866141733,"duration":0.20000000000000284},{"name":"G#3","midi":56,"time":95.00000000000007,"velocity":0.5433070866141733,"duration":0.20000000000000284},{"name":"A#3","midi":58,"time":95.20000000000007,"velocity":0.5433070866141733,"duration":0.4000000000000057},{"name":"C4","midi":60,"time":95.60000000000008,"velocity":0.5433070866141733,"duration":0.4000000000000057},{"name":"D4","midi":62,"time":96.00000000000009,"velocity":0.5433070866141733,"duration":0.4000000000000057},{"name":"D4","midi":62,"time":96.40000000000009,"velocity":0.5433070866141733,"duration":0.20000000000000284},{"name":"C4","midi":60,"time":96.6000000000001,"velocity":0.5433070866141733,"duration":0.20000000000000284},{"name":"D4","midi":62,"time":96.8000000000001,"velocity":0.5433070866141733,"duration":0.4000000000000057},{"name":"F4","midi":65,"time":97.2000000000001,"velocity":0.5433070866141733,"duration":0.4000000000000057},{"name":"A#4","midi":70,"time":97.60000000000011,"velocity":0.5433070866141733,"duration":0.4000000000000057},{"name":"G4","midi":67,"time":98.00000000000011,"velocity":0.5433070866141733,"duration":0.4000000000000057},{"name":"D#4","midi":63,"time":98.40000000000012,"velocity":0.5433070866141733,"duration":1.2000000000000028},{"name":"C4","midi":60,"time":99.60000000000012,"velocity":0.5433070866141733,"duration":0.20000000000000284},{"name":"A#3","midi":58,"time":99.80000000000013,"velocity":0.5433070866141733,"duration":0.20000000000000284},{"name":"C4","midi":60,"time":100.00000000000013,"velocity":0.5433070866141733,"duration":0.4000000000000057},{"name":"D#4","midi":63,"time":100.40000000000013,"velocity":0.5433070866141733,"duration":0.4000000000000057},{"name":"F4","midi":65,"time":100.80000000000014,"velocity":0.5433070866141733,"duration":0.4000000000000057},{"name":"D4","midi":62,"time":101.20000000000014,"velocity":0.5433070866141733,"duration":0.4000000000000057},{"name":"G4","midi":67,"time":101.60000000000015,"velocity":0.5433070866141733,"duration":0.4000000000000057},{"name":"D4","midi":62,"time":102.00000000000016,"velocity":0.5433070866141733,"duration":0.4000000000000057},{"name":"D#4","midi":63,"time":102.40000000000016,"velocity":0.5433070866141733,"duration":0.4000000000000057},{"name":"F4","midi":65,"time":103.60000000000016,"velocity":0.5433070866141733,"duration":0.4000000000000057},{"name":"D#4","midi":63,"time":104.00000000000017,"velocity":0.5433070866141733,"duration":0.7999999999999972},{"name":"D4","midi":62,"time":105.20000000000017,"velocity":0.5433070866141733,"duration":0.4000000000000057},{"name":"C4","midi":60,"time":105.60000000000018,"velocity":0.5433070866141733,"duration":1.2000000000000028},{"name":"G#3","midi":56,"time":106.80000000000018,"velocity":0.5433070866141733,"duration":0.4000000000000057},{"name":"F3","midi":53,"time":107.20000000000019,"velocity":0.5433070866141733,"duration":0.7999999999999972},{"name":"C4","midi":60,"time":108.40000000000019,"velocity":0.5433070866141733,"duration":0.4000000000000057},{"name":"F3","midi":53,"time":108.8000000000002,"velocity":0.5433070866141733,"duration":0.4000000000000057},{"name":"F3","midi":53,"time":109.2000000000002,"velocity":0.5433070866141733,"duration":0.20000000000000284},{"name":"D#3","midi":51,"time":109.4000000000002,"velocity":0.5433070866141733,"duration":0.20000000000000284},{"name":"F3","midi":53,"time":109.60000000000021,"velocity":0.5433070866141733,"duration":0.4000000000000057},{"name":"A#3","midi":58,"time":110.00000000000021,"velocity":0.5433070866141733,"duration":0.4000000000000057},{"name":"G3","midi":55,"time":110.40000000000022,"velocity":0.5433070866141733,"duration":1.5999999999999943}],"controlChanges":{"7":[{"number":7,"time":0,"value":0.7874015748031497}],"10":[{"number":10,"time":0,"value":0.4409448818897638}]},"id":3,"name":"by","instrumentNumber":6,"instrument":"harpsichord","instrumentFamily":"piano","channelNumber":0,"isPercussion":false},{"startTime":0,"duration":112.00000000000021,"length":229,"notes":[{"name":"D#3","midi":51,"time":0,"velocity":0.5433070866141733,"duration":1.6},{"name":"A#3","midi":58,"time":1.6,"velocity":0.5433070866141733,"duration":0.8000000000000003},{"name":"G#3","midi":56,"time":2.8000000000000003,"velocity":0.5433070866141733,"duration":0.3999999999999999},{"name":"G3","midi":55,"time":3.2,"velocity":0.5433070866141733,"duration":0.3999999999999999},{"name":"C4","midi":60,"time":3.6,"velocity":0.5433070866141733,"duration":0.8000000000000003},{"name":"A#3","midi":58,"time":4.4,"velocity":0.5433070866141733,"duration":0.40000000000000036},{"name":"G#3","midi":56,"time":4.800000000000001,"velocity":0.5433070866141733,"duration":0.40000000000000036},{"name":"G#3","midi":56,"time":5.200000000000001,"velocity":0.5433070866141733,"duration":0.20000000000000018},{"name":"G3","midi":55,"time":5.400000000000001,"velocity":0.5433070866141733,"duration":0.20000000000000018},{"name":"G#3","midi":56,"time":5.600000000000001,"velocity":0.5433070866141733,"duration":0.40000000000000036},{"name":"C4","midi":60,"time":6.000000000000002,"velocity":0.5433070866141733,"duration":0.40000000000000036},{"name":"F3","midi":53,"time":6.400000000000002,"velocity":0.5433070866141733,"duration":0.40000000000000036},{"name":"A#3","midi":58,"time":6.8000000000000025,"velocity":0.5433070866141733,"duration":0.7999999999999998},{"name":"G#3","midi":56,"time":7.600000000000002,"velocity":0.5433070866141733,"duration":0.39999999999999947},{"name":"G3","midi":55,"time":8.000000000000002,"velocity":0.5433070866141733,"duration":0.40000000000000036},{"name":"G3","midi":55,"time":8.400000000000002,"velocity":0.5433070866141733,"duration":0.1999999999999993},{"name":"F3","midi":53,"time":8.600000000000001,"velocity":0.5433070866141733,"duration":0.1999999999999993},{"name":"G3","midi":55,"time":8.8,"velocity":0.5433070866141733,"duration":0.40000000000000036},{"name":"A#3","midi":58,"time":9.200000000000001,"velocity":0.5433070866141733,"duration":0.40000000000000036},{"name":"D#3","midi":51,"time":9.600000000000001,"velocity":0.5433070866141733,"duration":0.40000000000000036},{"name":"D#3","midi":51,"time":10.000000000000002,"velocity":0.5433070866141733,"duration":0.1999999999999993},{"name":"D3","midi":50,"time":10.200000000000001,"velocity":0.5433070866141733,"duration":0.1999999999999993},{"name":"D#3","midi":51,"time":10.4,"velocity":0.5433070866141733,"duration":0.40000000000000036},{"name":"G3","midi":55,"time":10.8,"velocity":0.5433070866141733,"duration":0.40000000000000036},{"name":"C3","midi":48,"time":11.200000000000001,"velocity":0.5433070866141733,"duration":0.40000000000000036},{"name":"D3","midi":50,"time":11.600000000000001,"velocity":0.5433070866141733,"duration":0.1999999999999993},{"name":"D#3","midi":51,"time":11.8,"velocity":0.5433070866141733,"duration":0.1999999999999993},{"name":"F3","midi":53,"time":12,"velocity":0.5433070866141733,"duration":0.8000000000000007},{"name":"A#2","midi":46,"time":12.8,"velocity":0.5433070866141733,"duration":0.8000000000000007},{"name":"A#3","midi":58,"time":13.600000000000001,"velocity":0.5433070866141733,"duration":1.5999999999999996},{"name":"A3","midi":57,"time":15.200000000000001,"velocity":0.5433070866141733,"duration":0.40000000000000036},{"name":"G3","midi":55,"time":15.600000000000001,"velocity":0.5433070866141733,"duration":0.3999999999999986},{"name":"A3","midi":57,"time":16,"velocity":0.5433070866141733,"duration":0.6000000000000014},{"name":"A#3","midi":58,"time":16.6,"velocity":0.5433070866141733,"duration":0.10000000000000142},{"name":"A3","midi":57,"time":16.700000000000003,"velocity":0.5433070866141733,"duration":0.10000000000000142},{"name":"G3","midi":55,"time":16.800000000000004,"velocity":0.5433070866141733,"duration":0.3999999999999986},{"name":"A3","midi":57,"time":17.200000000000003,"velocity":0.5433070866141733,"duration":0.3999999999999986},{"name":"A#3","midi":58,"time":17.6,"velocity":0.5433070866141733,"duration":0.3999999999999986},{"name":"A#2","midi":46,"time":18,"velocity":0.5433070866141733,"duration":0.3999999999999986},{"name":"A#3","midi":58,"time":18.4,"velocity":0.5433070866141733,"duration":0.3999999999999986},{"name":"G#3","midi":56,"time":18.799999999999997,"velocity":0.5433070866141733,"duration":0.3999999999999986},{"name":"G3","midi":55,"time":19.199999999999996,"velocity":0.5433070866141733,"duration":0.3999999999999986},{"name":"G2","midi":43,"time":19.599999999999994,"velocity":0.5433070866141733,"duration":0.3999999999999986},{"name":"G3","midi":55,"time":19.999999999999993,"velocity":0.5433070866141733,"duration":0.3999999999999986},{"name":"F3","midi":53,"time":20.39999999999999,"velocity":0.5433070866141733,"duration":0.3999999999999986},{"name":"D#3","midi":51,"time":20.79999999999999,"velocity":0.5433070866141733,"duration":0.3999999999999986},{"name":"F3","midi":53,"time":21.19999999999999,"velocity":0.5433070866141733,"duration":0.1999999999999993},{"name":"G3","midi":55,"time":21.399999999999988,"velocity":0.5433070866141733,"duration":0.1999999999999993},{"name":"G#3","midi":56,"time":21.599999999999987,"velocity":0.5433070866141733,"duration":1.1999999999999993},{"name":"G3","midi":55,"time":22.799999999999986,"velocity":0.5433070866141733,"duration":0.1999999999999993},{"name":"F3","midi":53,"time":22.999999999999986,"velocity":0.5433070866141733,"duration":0.1999999999999993},{"name":"G3","midi":55,"time":23.199999999999985,"velocity":0.5433070866141733,"duration":0.3999999999999986},{"name":"A#3","midi":58,"time":23.599999999999984,"velocity":0.5433070866141733,"duration":0.3999999999999986},{"name":"D#3","midi":51,"time":23.999999999999982,"velocity":0.5433070866141733,"duration":0.3999999999999986},{"name":"G#3","midi":56,"time":24.39999999999998,"velocity":0.5433070866141733,"duration":0.1999999999999993},{"name":"G3","midi":55,"time":24.59999999999998,"velocity":0.5433070866141733,"duration":0.1999999999999993},{"name":"G#3","midi":56,"time":24.79999999999998,"velocity":0.5433070866141733,"duration":0.3999999999999986},{"name":"C4","midi":60,"time":25.199999999999978,"velocity":0.5433070866141733,"duration":0.3999999999999986},{"name":"F3","midi":53,"time":25.599999999999977,"velocity":0.5433070866141733,"duration":1.1999999999999993},{"name":"G3","midi":55,"time":26.799999999999976,"velocity":0.5433070866141733,"duration":0.1999999999999993},{"name":"G#3","midi":56,"time":26.999999999999975,"velocity":0.5433070866141733,"duration":0.1999999999999993},{"name":"A#3","midi":58,"time":27.199999999999974,"velocity":0.5433070866141733,"duration":1.6000000000000014},{"name":"D#3","midi":51,"time":28.799999999999976,"velocity":0.5433070866141733,"duration":1.1999999999999993},{"name":"D3","midi":50,"time":29.999999999999975,"velocity":0.5433070866141733,"duration":0.3999999999999986},{"name":"C3","midi":48,"time":30.399999999999974,"velocity":0.5433070866141733,"duration":0.8000000000000007},{"name":"F3","midi":53,"time":31.599999999999973,"velocity":0.5433070866141733,"duration":0.3999999999999986},{"name":"A#2","midi":46,"time":31.99999999999997,"velocity":0.5433070866141733,"duration":2.3999999999999986},{"name":"A2","midi":45,"time":34.39999999999997,"velocity":0.5433070866141733,"duration":0.7999999999999972},{"name":"A#2","midi":46,"time":35.19999999999997,"velocity":0.5433070866141733,"duration":0.7999999999999972},{"name":"G2","midi":43,"time":36.39999999999996,"velocity":0.5433070866141733,"duration":0.3999999999999986},{"name":"C3","midi":48,"time":36.79999999999996,"velocity":0.5433070866141733,"duration":0.7999999999999972},{"name":"D#3","midi":51,"time":37.99999999999996,"velocity":0.5433070866141733,"duration":0.3999999999999986},{"name":"F3","midi":53,"time":38.399999999999956,"velocity":0.5433070866141733,"duration":0.7999999999999972},{"name":"F3","midi":53,"time":39.59999999999995,"velocity":0.5433070866141733,"duration":0.3999999999999986},{"name":"A#3","midi":58,"time":39.99999999999995,"velocity":0.5433070866141733,"duration":0.3999999999999986},{"name":"F3","midi":53,"time":40.39999999999995,"velocity":0.5433070866141733,"duration":0.3999999999999986},{"name":"A#3","midi":58,"time":40.79999999999995,"velocity":0.5433070866141733,"duration":0.3999999999999986},{"name":"A3","midi":57,"time":41.199999999999946,"velocity":0.5433070866141733,"duration":0.3999999999999986},{"name":"G3","midi":55,"time":41.599999999999945,"velocity":0.5433070866141733,"duration":0.3999999999999986},{"name":"D3","midi":50,"time":41.99999999999994,"velocity":0.5433070866141733,"duration":0.3999999999999986},{"name":"G3","midi":55,"time":42.39999999999994,"velocity":0.5433070866141733,"duration":0.3999999999999986},{"name":"F3","midi":53,"time":42.79999999999994,"velocity":0.5433070866141733,"duration":0.3999999999999986},{"name":"D#3","midi":51,"time":43.19999999999994,"velocity":0.5433070866141733,"duration":1.2000000000000028},{"name":"E3","midi":52,"time":44.39999999999994,"velocity":0.5433070866141733,"duration":0.3999999999999986},{"name":"F3","midi":53,"time":44.79999999999994,"velocity":0.5433070866141733,"duration":1.6000000000000014},{"name":"A#2","midi":46,"time":46.39999999999994,"velocity":0.5433070866141733,"duration":0.7999999999999972},{"name":"D#3","midi":51,"time":48.79999999999994,"velocity":0.5433070866141733,"duration":0.7999999999999972},{"name":"A#3","midi":58,"time":49.59999999999994,"velocity":0.5433070866141733,"duration":0.7999999999999972},{"name":"G#3","midi":56,"time":50.79999999999993,"velocity":0.5433070866141733,"duration":0.3999999999999986},{"name":"G3","midi":55,"time":51.19999999999993,"velocity":0.5433070866141733,"duration":0.3999999999999986},{"name":"C4","midi":60,"time":51.59999999999993,"velocity":0.5433070866141733,"duration":0.7999999999999972},{"name":"A#3","midi":58,"time":52.39999999999993,"velocity":0.5433070866141733,"duration":0.3999999999999986},{"name":"G#3","midi":56,"time":52.799999999999926,"velocity":0.5433070866141733,"duration":0.3999999999999986},{"name":"G#3","midi":56,"time":53.199999999999925,"velocity":0.5433070866141733,"duration":0.20000000000000284},{"name":"G3","midi":55,"time":53.39999999999993,"velocity":0.5433070866141733,"duration":0.20000000000000284},{"name":"G#3","midi":56,"time":53.59999999999993,"velocity":0.5433070866141733,"duration":0.3999999999999986},{"name":"C4","midi":60,"time":53.99999999999993,"velocity":0.5433070866141733,"duration":0.3999999999999986},{"name":"F3","midi":53,"time":54.39999999999993,"velocity":0.5433070866141733,"duration":0.3999999999999986},{"name":"A#3","midi":58,"time":54.799999999999926,"velocity":0.5433070866141733,"duration":0.7999999999999972},{"name":"G#3","midi":56,"time":55.59999999999992,"velocity":0.5433070866141733,"duration":0.3999999999999986},{"name":"G3","midi":55,"time":55.99999999999992,"velocity":0.5433070866141733,"duration":0.3999999999999986},{"name":"G3","midi":55,"time":56.39999999999992,"velocity":0.5433070866141733,"duration":0.20000000000000284},{"name":"F3","midi":53,"time":56.59999999999992,"velocity":0.5433070866141733,"duration":0.20000000000000284},{"name":"G3","midi":55,"time":56.799999999999926,"velocity":0.5433070866141733,"duration":0.3999999999999986},{"name":"A#3","midi":58,"time":57.199999999999925,"velocity":0.5433070866141733,"duration":0.3999999999999986},{"name":"D#3","midi":51,"time":57.59999999999992,"velocity":0.5433070866141733,"duration":0.3999999999999986},{"name":"D#3","midi":51,"time":57.99999999999992,"velocity":0.5433070866141733,"duration":0.20000000000000284},{"name":"D3","midi":50,"time":58.199999999999925,"velocity":0.5433070866141733,"duration":0.20000000000000284},{"name":"D#3","midi":51,"time":58.39999999999993,"velocity":0.5433070866141733,"duration":0.3999999999999986},{"name":"G3","midi":55,"time":58.799999999999926,"velocity":0.5433070866141733,"duration":0.3999999999999986},{"name":"C3","midi":48,"time":59.199999999999925,"velocity":0.5433070866141733,"duration":0.7999999999999972},{"name":"C4","midi":60,"time":59.99999999999992,"velocity":0.5433070866141733,"duration":0.7999999999999972},{"name":"A#3","midi":58,"time":60.79999999999992,"velocity":0.5433070866141733,"duration":0.3999999999999986},{"name":"A#3","midi":58,"time":61.19999999999992,"velocity":0.5433070866141733,"duration":0.20000000000000284},{"name":"G#3","midi":56,"time":61.39999999999992,"velocity":0.5433070866141733,"duration":0.20000000000000284},{"name":"A#3","midi":58,"time":61.59999999999992,"velocity":0.5433070866141733,"duration":0.3999999999999986},{"name":"D4","midi":62,"time":61.99999999999992,"velocity":0.5433070866141733,"duration":0.3999999999999986},{"name":"D#4","midi":63,"time":62.39999999999992,"velocity":0.5433070866141733,"duration":0.7999999999999972},{"name":"E4","midi":64,"time":63.599999999999916,"velocity":0.5433070866141733,"duration":0.3999999999999986},{"name":"F4","midi":65,"time":63.999999999999915,"velocity":0.5433070866141733,"duration":0.4000000000000057},{"name":"F3","midi":53,"time":64.39999999999992,"velocity":0.5433070866141733,"duration":0.20000000000000284},{"name":"E3","midi":52,"time":64.59999999999992,"velocity":0.5433070866141733,"duration":0.20000000000000284},{"name":"F3","midi":53,"time":64.79999999999993,"velocity":0.5433070866141733,"duration":0.4000000000000057},{"name":"A3","midi":57,"time":65.19999999999993,"velocity":0.5433070866141733,"duration":0.4000000000000057},{"name":"A#3","midi":58,"time":65.59999999999994,"velocity":0.5433070866141733,"duration":0.7999999999999972},{"name":"D4","midi":62,"time":66.79999999999994,"velocity":0.5433070866141733,"duration":0.4000000000000057},{"name":"D#4","midi":63,"time":67.19999999999995,"velocity":0.5433070866141733,"duration":0.4000000000000057},{"name":"D#3","midi":51,"time":67.59999999999995,"velocity":0.5433070866141733,"duration":0.4000000000000057},{"name":"D#4","midi":63,"time":67.99999999999996,"velocity":0.5433070866141733,"duration":0.20000000000000284},{"name":"D4","midi":62,"time":68.19999999999996,"velocity":0.5433070866141733,"duration":0.20000000000000284},{"name":"C4","midi":60,"time":68.39999999999996,"velocity":0.5433070866141733,"duration":0.20000000000000284},{"name":"A#3","midi":58,"time":68.59999999999997,"velocity":0.5433070866141733,"duration":0.20000000000000284},{"name":"C4","midi":60,"time":68.79999999999997,"velocity":0.5433070866141733,"duration":0.4000000000000057},{"name":"C3","midi":48,"time":69.19999999999997,"velocity":0.5433070866141733,"duration":0.4000000000000057},{"name":"C4","midi":60,"time":69.59999999999998,"velocity":0.5433070866141733,"duration":0.20000000000000284},{"name":"A#3","midi":58,"time":69.79999999999998,"velocity":0.5433070866141733,"duration":0.20000000000000284},{"name":"G#3","midi":56,"time":69.99999999999999,"velocity":0.5433070866141733,"duration":0.20000000000000284},{"name":"G3","midi":55,"time":70.19999999999999,"velocity":0.5433070866141733,"duration":0.20000000000000284},{"name":"G#3","midi":56,"time":70.39999999999999,"velocity":0.5433070866141733,"duration":0.4000000000000057},{"name":"G#2","midi":44,"time":70.8,"velocity":0.5433070866141733,"duration":0.4000000000000057},{"name":"G#3","midi":56,"time":71.2,"velocity":0.5433070866141733,"duration":0.4000000000000057},{"name":"G3","midi":55,"time":71.60000000000001,"velocity":0.5433070866141733,"duration":0.20000000000000284},{"name":"F3","midi":53,"time":71.80000000000001,"velocity":0.5433070866141733,"duration":0.20000000000000284},{"name":"G3","midi":55,"time":72.00000000000001,"velocity":0.5433070866141733,"duration":1.7999999999999972},{"name":"F3","midi":53,"time":73.80000000000001,"velocity":0.5433070866141733,"duration":0.20000000000000284},{"name":"G3","midi":55,"time":74.00000000000001,"velocity":0.5433070866141733,"duration":0.20000000000000284},{"name":"G#3","midi":56,"time":74.20000000000002,"velocity":0.5433070866141733,"duration":0.20000000000000284},{"name":"G3","midi":55,"time":74.40000000000002,"velocity":0.5433070866141733,"duration":0.20000000000000284},{"name":"F3","midi":53,"time":74.60000000000002,"velocity":0.5433070866141733,"duration":0.20000000000000284},{"name":"E3","midi":52,"time":74.80000000000003,"velocity":0.5433070866141733,"duration":0.20000000000000284},{"name":"D3","midi":50,"time":75.00000000000003,"velocity":0.5433070866141733,"duration":0.20000000000000284},{"name":"C3","midi":48,"time":75.20000000000003,"velocity":0.5433070866141733,"duration":1.7999999999999972},{"name":"A#2","midi":46,"time":77.00000000000003,"velocity":0.5433070866141733,"duration":0.20000000000000284},{"name":"C3","midi":48,"time":77.20000000000003,"velocity":0.5433070866141733,"duration":0.20000000000000284},{"name":"D3","midi":50,"time":77.40000000000003,"velocity":0.5433070866141733,"duration":0.20000000000000284},{"name":"C3","midi":48,"time":77.60000000000004,"velocity":0.5433070866141733,"duration":0.20000000000000284},{"name":"A#2","midi":46,"time":77.80000000000004,"velocity":0.5433070866141733,"duration":0.20000000000000284},{"name":"A2","midi":45,"time":78.00000000000004,"velocity":0.5433070866141733,"duration":0.20000000000000284},{"name":"G2","midi":43,"time":78.20000000000005,"velocity":0.5433070866141733,"duration":0.20000000000000284},{"name":"F2","midi":41,"time":78.40000000000005,"velocity":0.5433070866141733,"duration":1.7999999999999972},{"name":"D#3","midi":51,"time":80.20000000000005,"velocity":0.5433070866141733,"duration":0.20000000000000284},{"name":"F3","midi":53,"time":80.40000000000005,"velocity":0.5433070866141733,"duration":0.20000000000000284},{"name":"G3","midi":55,"time":80.60000000000005,"velocity":0.5433070866141733,"duration":0.20000000000000284},{"name":"F3","midi":53,"time":80.80000000000005,"velocity":0.5433070866141733,"duration":0.20000000000000284},{"name":"D#3","midi":51,"time":81.00000000000006,"velocity":0.5433070866141733,"duration":0.20000000000000284},{"name":"D3","midi":50,"time":81.20000000000006,"velocity":0.5433070866141733,"duration":0.20000000000000284},{"name":"C3","midi":48,"time":81.40000000000006,"velocity":0.5433070866141733,"duration":0.20000000000000284},{"name":"A#2","midi":46,"time":81.60000000000007,"velocity":0.5433070866141733,"duration":1.7999999999999972},{"name":"G#3","midi":56,"time":83.40000000000006,"velocity":0.5433070866141733,"duration":0.20000000000000284},{"name":"A#3","midi":58,"time":83.60000000000007,"velocity":0.5433070866141733,"duration":0.20000000000000284},{"name":"C4","midi":60,"time":83.80000000000007,"velocity":0.5433070866141733,"duration":0.20000000000000284},{"name":"A#3","midi":58,"time":84.00000000000007,"velocity":0.5433070866141733,"duration":0.20000000000000284},{"name":"G#3","midi":56,"time":84.20000000000007,"velocity":0.5433070866141733,"duration":0.20000000000000284},{"name":"G3","midi":55,"time":84.40000000000008,"velocity":0.5433070866141733,"duration":0.20000000000000284},{"name":"F3","midi":53,"time":84.60000000000008,"velocity":0.5433070866141733,"duration":0.20000000000000284},{"name":"G3","midi":55,"time":84.80000000000008,"velocity":0.5433070866141733,"duration":0.4000000000000057},{"name":"G#3","midi":56,"time":85.20000000000009,"velocity":0.5433070866141733,"duration":0.4000000000000057},{"name":"D3","midi":50,"time":85.6000000000001,"velocity":0.5433070866141733,"duration":0.4000000000000057},{"name":"E3","midi":52,"time":86.0000000000001,"velocity":0.5433070866141733,"duration":0.4000000000000057},{"name":"F3","midi":53,"time":86.4000000000001,"velocity":0.5433070866141733,"duration":1},{"name":"D#3","midi":51,"time":87.4000000000001,"velocity":0.5433070866141733,"duration":0.20000000000000284},{"name":"C#3","midi":49,"time":87.60000000000011,"velocity":0.5433070866141733,"duration":0.20000000000000284},{"name":"C3","midi":48,"time":87.80000000000011,"velocity":0.5433070866141733,"duration":0.20000000000000284},{"name":"A#2","midi":46,"time":88.00000000000011,"velocity":0.5433070866141733,"duration":1},{"name":"A#2","midi":46,"time":89.00000000000011,"velocity":0.5433070866141733,"duration":0.20000000000000284},{"name":"C3","midi":48,"time":89.20000000000012,"velocity":0.5433070866141733,"duration":0.20000000000000284},{"name":"C#3","midi":49,"time":89.40000000000012,"velocity":0.5433070866141733,"duration":0.20000000000000284},{"name":"D#3","midi":51,"time":89.60000000000012,"velocity":0.5433070866141733,"duration":1},{"name":"D#2","midi":39,"time":90.60000000000012,"velocity":0.5433070866141733,"duration":0.20000000000000284},{"name":"F2","midi":41,"time":90.80000000000013,"velocity":0.5433070866141733,"duration":0.20000000000000284},{"name":"G2","midi":43,"time":91.00000000000013,"velocity":0.5433070866141733,"duration":0.20000000000000284},{"name":"G#2","midi":44,"time":91.20000000000013,"velocity":0.5433070866141733,"duration":0.20000000000000284},{"name":"A#2","midi":46,"time":91.40000000000013,"velocity":0.5433070866141733,"duration":0.20000000000000284},{"name":"C3","midi":48,"time":91.60000000000014,"velocity":0.5433070866141733,"duration":0.20000000000000284},{"name":"C#3","midi":49,"time":91.80000000000014,"velocity":0.5433070866141733,"duration":0.20000000000000284},{"name":"D#3","midi":51,"time":92.00000000000014,"velocity":0.5433070866141733,"duration":1.5999999999999943},{"name":"D3","midi":50,"time":93.60000000000014,"velocity":0.5433070866141733,"duration":0.7999999999999972},{"name":"D#3","midi":51,"time":94.40000000000013,"velocity":0.5433070866141733,"duration":1.5999999999999943},{"name":"A#3","midi":58,"time":96.00000000000013,"velocity":0.5433070866141733,"duration":0.7999999999999972},{"name":"G#3","midi":56,"time":97.20000000000013,"velocity":0.5433070866141733,"duration":0.4000000000000057},{"name":"G3","midi":55,"time":97.60000000000014,"velocity":0.5433070866141733,"duration":0.4000000000000057},{"name":"C4","midi":60,"time":98.00000000000014,"velocity":0.5433070866141733,"duration":0.7999999999999972},{"name":"A#3","midi":58,"time":98.80000000000014,"velocity":0.5433070866141733,"duration":0.4000000000000057},{"name":"G#3","midi":56,"time":99.20000000000014,"velocity":0.5433070866141733,"duration":0.4000000000000057},{"name":"G#3","midi":56,"time":99.60000000000015,"velocity":0.5433070866141733,"duration":0.20000000000000284},{"name":"G3","midi":55,"time":99.80000000000015,"velocity":0.5433070866141733,"duration":0.20000000000000284},{"name":"G#3","midi":56,"time":100.00000000000016,"velocity":0.5433070866141733,"duration":0.4000000000000057},{"name":"C4","midi":60,"time":100.40000000000016,"velocity":0.5433070866141733,"duration":0.4000000000000057},{"name":"F3","midi":53,"time":100.80000000000017,"velocity":0.5433070866141733,"duration":0.4000000000000057},{"name":"A#3","midi":58,"time":101.20000000000017,"velocity":0.5433070866141733,"duration":0.7999999999999972},{"name":"G#3","midi":56,"time":102.00000000000017,"velocity":0.5433070866141733,"duration":0.4000000000000057},{"name":"G3","midi":55,"time":102.40000000000018,"velocity":0.5433070866141733,"duration":0.4000000000000057},{"name":"G3","midi":55,"time":102.80000000000018,"velocity":0.5433070866141733,"duration":0.20000000000000284},{"name":"F3","midi":53,"time":103.00000000000018,"velocity":0.5433070866141733,"duration":0.20000000000000284},{"name":"G3","midi":55,"time":103.20000000000019,"velocity":0.5433070866141733,"duration":0.4000000000000057},{"name":"A#3","midi":58,"time":103.6000000000002,"velocity":0.5433070866141733,"duration":0.4000000000000057},{"name":"D#3","midi":51,"time":104.0000000000002,"velocity":0.5433070866141733,"duration":0.4000000000000057},{"name":"D#3","midi":51,"time":104.4000000000002,"velocity":0.5433070866141733,"duration":0.20000000000000284},{"name":"D3","midi":50,"time":104.60000000000021,"velocity":0.5433070866141733,"duration":0.20000000000000284},{"name":"D#3","midi":51,"time":104.80000000000021,"velocity":0.5433070866141733,"duration":0.4000000000000057},{"name":"G3","midi":55,"time":105.20000000000022,"velocity":0.5433070866141733,"duration":0.4000000000000057},{"name":"C3","midi":48,"time":105.60000000000022,"velocity":0.5433070866141733,"duration":0.4000000000000057},{"name":"D3","midi":50,"time":106.00000000000023,"velocity":0.5433070866141733,"duration":0.20000000000000284},{"name":"D#3","midi":51,"time":106.20000000000023,"velocity":0.5433070866141733,"duration":0.20000000000000284},{"name":"F3","midi":53,"time":106.40000000000023,"velocity":0.5433070866141733,"duration":0.7999999999999972},{"name":"A#2","midi":46,"time":107.20000000000023,"velocity":0.5433070866141733,"duration":0.7999999999999972},{"name":"A2","midi":45,"time":108.00000000000023,"velocity":0.5433070866141733,"duration":0.7999999999999972},{"name":"A#2","midi":46,"time":108.80000000000022,"velocity":0.5433070866141733,"duration":1.5999999999999943},{"name":"D#2","midi":39,"time":110.40000000000022,"velocity":0.5433070866141733,"duration":1.5999999999999943}],"controlChanges":{"7":[{"number":7,"time":0,"value":0.7874015748031497}],"10":[{"number":10,"time":0,"value":0.3779527559055118}]},"id":4,"name":"Yo Tomita","instrumentNumber":6,"instrument":"harpsichord","instrumentFamily":"piano","channelNumber":0,"isPercussion":false}]}