{"header":{"PPQ":384,"timeSignature":[4,4],"bpm":120,"name":"--------"},"startTime":0,"duration":110.46614583333266,"tracks":[{"startTime":0,"duration":0,"length":0,"notes":[],"controlChanges":{},"id":0,"name":"--------"},{"startTime":0.0625,"duration":110.46614583333266,"length":851,"notes":[{"name":"C3","midi":48,"time":0.0625,"velocity":0.7637795275590551,"duration":0.8463541666666666},{"name":"C5","midi":72,"time":0.0625,"velocity":0.7637795275590551,"duration":0.28125},{"name":"G4","midi":67,"time":0.3450520833333333,"velocity":0.7637795275590551,"duration":0.28124999999999994},{"name":"D#5","midi":75,"time":0.6276041666666666,"velocity":0.7637795275590551,"duration":0.28125},{"name":"C4","midi":60,"time":0.91015625,"velocity":0.7637795275590551,"duration":0.8463541666666665},{"name":"D#5","midi":75,"time":0.91015625,"velocity":0.7637795275590551,"duration":0.28125},{"name":"C5","midi":72,"time":1.1927083333333333,"velocity":0.7637795275590551,"duration":0.28125},{"name":"G5","midi":79,"time":1.4752604166666665,"velocity":0.7637795275590551,"duration":0.28125},{"name":"B3","midi":59,"time":1.7578124999999998,"velocity":0.7637795275590551,"duration":0.28255208333333326},{"name":"G5","midi":79,"time":1.7578124999999998,"velocity":0.7637795275590551,"duration":0.140625},{"name":"F5","midi":77,"time":1.899739583333333,"velocity":0.7637795275590551,"duration":0.140625},{"name":"A3","midi":57,"time":2.0416666666666665,"velocity":0.7637795275590551,"duration":0.28125},{"name":"G5","midi":79,"time":2.0416666666666665,"velocity":0.7637795275590551,"duration":0.651041666666667},{"name":"G3","midi":55,"time":2.32421875,"velocity":0.7637795275590551,"duration":0.28125},{"name":"F4","midi":65,"time":2.6067708333333335,"velocity":0.7637795275590551,"duration":0.28125},{"name":"G4","midi":67,"time":2.6067708333333335,"velocity":0.7637795275590551,"duration":0.7161458333333335},{"name":"D#4","midi":63,"time":2.889322916666667,"velocity":0.7637795275590551,"duration":0.28125},{"name":"D4","midi":62,"time":3.1718750000000004,"velocity":0.7637795275590551,"duration":0.28125},{"name":"D#4","midi":63,"time":3.454427083333334,"velocity":0.7637795275590551,"duration":0.5638020833333339},{"name":"C5","midi":72,"time":3.454427083333334,"velocity":0.7637795275590551,"duration":0.28125},{"name":"D5","midi":74,"time":3.7369791666666674,"velocity":0.7637795275590551,"duration":0.28125000000000044},{"name":"C4","midi":60,"time":4.019531250000001,"velocity":0.7637795275590551,"duration":0.28125},{"name":"D#5","midi":75,"time":4.019531250000001,"velocity":0.7637795275590551,"duration":0.28125},{"name":"G#3","midi":56,"time":4.302083333333334,"velocity":0.7637795275590551,"duration":0.563802083333333},{"name":"F5","midi":77,"time":4.302083333333334,"velocity":0.7637795275590551,"duration":0.28125},{"name":"G5","midi":79,"time":4.584635416666667,"velocity":0.7637795275590551,"duration":0.28125},{"name":"F3","midi":53,"time":4.8671875,"velocity":0.7637795275590551,"duration":0.28125},{"name":"G#5","midi":80,"time":4.8671875,"velocity":0.7637795275590551,"duration":0.28125},{"name":"G3","midi":55,"time":5.149739583333333,"velocity":0.7637795275590551,"duration":0.563802083333333},{"name":"B4","midi":71,"time":5.149739583333333,"velocity":0.7637795275590551,"duration":0.28125},{"name":"G#5","midi":80,"time":5.432291666666666,"velocity":0.7637795275590551,"duration":0.28125},{"name":"A3","midi":57,"time":5.714843749999999,"velocity":0.7637795275590551,"duration":0.28125},{"name":"G5","midi":79,"time":5.714843749999999,"velocity":0.7637795275590551,"duration":0.28125},{"name":"B3","midi":59,"time":5.997395833333332,"velocity":0.7637795275590551,"duration":0.563802083333333},{"name":"F5","midi":77,"time":5.997395833333332,"velocity":0.7637795275590551,"duration":0.28125},{"name":"D#5","midi":75,"time":6.279947916666665,"velocity":0.7637795275590551,"duration":0.28125},{"name":"G3","midi":55,"time":6.562499999999998,"velocity":0.7637795275590551,"duration":0.27994791666666696},{"name":"D5","midi":74,"time":6.562499999999998,"velocity":0.7637795275590551,"duration":0.28125},{"name":"C4","midi":60,"time":6.845052083333331,"velocity":0.7637795275590551,"duration":0.28255208333333304},{"name":"D#5","midi":75,"time":6.845052083333331,"velocity":0.7637795275590551,"duration":0.140625},{"name":"D5","midi":74,"time":6.986979166666664,"velocity":0.7637795275590551,"duration":0.140625},{"name":"G3","midi":55,"time":7.128906249999997,"velocity":0.7637795275590551,"duration":0.28125},{"name":"D#5","midi":75,"time":7.128906249999997,"velocity":0.7637795275590551,"duration":0.563802083333333},{"name":"D#4","midi":63,"time":7.41145833333333,"velocity":0.7637795275590551,"duration":0.28125},{"name":"D#4","midi":63,"time":7.694010416666663,"velocity":0.7637795275590551,"duration":0.28125},{"name":"C5","midi":72,"time":7.694010416666663,"velocity":0.7637795275590551,"duration":1.1302083333333348},{"name":"C4","midi":60,"time":7.9765624999999964,"velocity":0.7637795275590551,"duration":0.28125},{"name":"G4","midi":67,"time":8.25911458333333,"velocity":0.7637795275590551,"duration":0.28125},{"name":"G4","midi":67,"time":8.541666666666664,"velocity":0.7637795275590551,"duration":0.140625},{"name":"F4","midi":65,"time":8.683593749999998,"velocity":0.7637795275590551,"duration":0.140625},{"name":"G4","midi":67,"time":8.825520833333332,"velocity":0.7637795275590551,"duration":0.5638020833333339},{"name":"B4","midi":71,"time":8.825520833333332,"velocity":0.7637795275590551,"duration":0.28125},{"name":"C5","midi":72,"time":9.108072916666666,"velocity":0.7637795275590551,"duration":0.28125},{"name":"G3","midi":55,"time":9.390625,"velocity":0.7637795275590551,"duration":0.8463541666666679},{"name":"D5","midi":74,"time":9.390625,"velocity":0.7637795275590551,"duration":0.28125},{"name":"D#5","midi":75,"time":9.673177083333334,"velocity":0.7637795275590551,"duration":0.28125},{"name":"F5","midi":77,"time":9.955729166666668,"velocity":0.7637795275590551,"duration":0.28125},{"name":"C4","midi":60,"time":10.238281250000002,"velocity":0.7637795275590551,"duration":0.28125},{"name":"D#5","midi":75,"time":10.238281250000002,"velocity":0.7637795275590551,"duration":0.28125},{"name":"D4","midi":62,"time":10.520833333333336,"velocity":0.7637795275590551,"duration":0.28125},{"name":"F5","midi":77,"time":10.520833333333336,"velocity":0.7637795275590551,"duration":0.28125},{"name":"D#4","midi":63,"time":10.80338541666667,"velocity":0.7637795275590551,"duration":0.28125},{"name":"D#5","midi":75,"time":10.80338541666667,"velocity":0.7637795275590551,"duration":0.28125},{"name":"F4","midi":65,"time":11.085937500000004,"velocity":0.7637795275590551,"duration":0.28125},{"name":"D5","midi":74,"time":11.085937500000004,"velocity":0.7637795275590551,"duration":0.28125},{"name":"G4","midi":67,"time":11.368489583333337,"velocity":0.7637795275590551,"duration":0.28125},{"name":"D#5","midi":75,"time":11.368489583333337,"velocity":0.7637795275590551,"duration":0.28125},{"name":"G#4","midi":68,"time":11.651041666666671,"velocity":0.7637795275590551,"duration":0.28125},{"name":"C5","midi":72,"time":11.651041666666671,"velocity":0.7637795275590551,"duration":0.28125},{"name":"B3","midi":59,"time":11.933593750000005,"velocity":0.7637795275590551,"duration":0.2825520833333339},{"name":"G5","midi":79,"time":11.933593750000005,"velocity":0.7637795275590551,"duration":0.140625},{"name":"F5","midi":77,"time":12.07552083333334,"velocity":0.7637795275590551,"duration":0.140625},{"name":"G#4","midi":68,"time":12.217447916666673,"velocity":0.7637795275590551,"duration":0.28125},{"name":"G5","midi":79,"time":12.217447916666673,"velocity":0.7637795275590551,"duration":1.9765625000000036},{"name":"G4","midi":67,"time":12.500000000000007,"velocity":0.7637795275590551,"duration":0.28125},{"name":"F4","midi":65,"time":12.782552083333341,"velocity":0.7637795275590551,"duration":0.28125},{"name":"D#4","midi":63,"time":13.065104166666675,"velocity":0.7637795275590551,"duration":0.28125},{"name":"D4","midi":62,"time":13.347656250000009,"velocity":0.7637795275590551,"duration":0.28125},{"name":"C4","midi":60,"time":13.630208333333343,"velocity":0.7637795275590551,"duration":0.28125},{"name":"D#4","midi":63,"time":13.630208333333343,"velocity":0.7637795275590551,"duration":0.5598958333333339},{"name":"G3","midi":55,"time":13.912760416666677,"velocity":0.7637795275590551,"duration":0.28125},{"name":"D#4","midi":63,"time":14.19531250000001,"velocity":0.7637795275590551,"duration":0.28125},{"name":"G5","midi":79,"time":14.19531250000001,"velocity":0.7637795275590551,"duration":0.28125},{"name":"D#4","midi":63,"time":14.477864583333345,"velocity":0.7637795275590551,"duration":0.2825520833333339},{"name":"C5","midi":72,"time":14.477864583333345,"velocity":0.7637795275590551,"duration":0.140625},{"name":"B4","midi":71,"time":14.619791666666679,"velocity":0.7637795275590551,"duration":0.140625},{"name":"C4","midi":60,"time":14.761718750000012,"velocity":0.7637795275590551,"duration":0.28125},{"name":"C5","midi":72,"time":14.761718750000012,"velocity":0.7637795275590551,"duration":0.28125},{"name":"G4","midi":67,"time":15.044270833333346,"velocity":0.7637795275590551,"duration":0.28125},{"name":"D#5","midi":75,"time":15.044270833333346,"velocity":0.7637795275590551,"duration":0.28125},{"name":"G#3","midi":56,"time":15.32682291666668,"velocity":0.7637795275590551,"duration":1.5624999999999911},{"name":"F4","midi":65,"time":15.32682291666668,"velocity":0.7637795275590551,"duration":0.5026041666666679},{"name":"C4","midi":60,"time":15.468750000000014,"velocity":0.7637795275590551,"duration":0.140625},{"name":"D4","midi":62,"time":15.610677083333348,"velocity":0.7637795275590551,"duration":0.140625},{"name":"D#4","midi":63,"time":15.752604166666682,"velocity":0.7637795275590551,"duration":0.140625},{"name":"F4","midi":65,"time":15.894531250000016,"velocity":0.7637795275590551,"duration":0.14062499999999822},{"name":"G4","midi":67,"time":16.036458333333346,"velocity":0.7637795275590551,"duration":0.140625},{"name":"G#4","midi":68,"time":16.17838541666668,"velocity":0.7637795275590551,"duration":0.140625},{"name":"A#4","midi":70,"time":16.32031250000001,"velocity":0.7637795275590551,"duration":0.140625},{"name":"G#4","midi":68,"time":16.462239583333343,"velocity":0.7637795275590551,"duration":0.140625},{"name":"G4","midi":67,"time":16.604166666666675,"velocity":0.7637795275590551,"duration":0.140625},{"name":"F4","midi":65,"time":16.746093750000007,"velocity":0.7637795275590551,"duration":0.140625},{"name":"D#4","midi":63,"time":16.88802083333334,"velocity":0.7637795275590551,"duration":0.140625},{"name":"A#3","midi":58,"time":17.02994791666667,"velocity":0.7637795275590551,"duration":0.28125},{"name":"D4","midi":62,"time":17.02994791666667,"velocity":0.7637795275590551,"duration":0.27994791666666785},{"name":"F3","midi":53,"time":17.312500000000004,"velocity":0.7637795275590551,"duration":0.28125},{"name":"D4","midi":62,"time":17.595052083333336,"velocity":0.7637795275590551,"duration":0.28125},{"name":"F5","midi":77,"time":17.595052083333336,"velocity":0.7637795275590551,"duration":0.28125},{"name":"D4","midi":62,"time":17.877604166666668,"velocity":0.7637795275590551,"duration":0.28125},{"name":"A#4","midi":70,"time":17.877604166666668,"velocity":0.7637795275590551,"duration":0.5638020833333321},{"name":"A#3","midi":58,"time":18.16015625,"velocity":0.7637795275590551,"duration":0.28125},{"name":"F4","midi":65,"time":18.442708333333332,"velocity":0.7637795275590551,"duration":0.28125},{"name":"D5","midi":74,"time":18.442708333333332,"velocity":0.7637795275590551,"duration":0.28125},{"name":"G3","midi":55,"time":18.725260416666664,"velocity":0.7637795275590551,"duration":1.5624999999999858},{"name":"D#4","midi":63,"time":18.725260416666664,"velocity":0.7637795275590551,"duration":0.5026041666666643},{"name":"A#3","midi":58,"time":18.867187499999996,"velocity":0.7637795275590551,"duration":0.140625},{"name":"C4","midi":60,"time":19.00911458333333,"velocity":0.7637795275590551,"duration":0.140625},{"name":"D4","midi":62,"time":19.15104166666666,"velocity":0.7637795275590551,"duration":0.140625},{"name":"D#4","midi":63,"time":19.292968749999993,"velocity":0.7637795275590551,"duration":0.140625},{"name":"F4","midi":65,"time":19.434895833333325,"velocity":0.7637795275590551,"duration":0.140625},{"name":"G4","midi":67,"time":19.576822916666657,"velocity":0.7637795275590551,"duration":0.140625},{"name":"G#4","midi":68,"time":19.71874999999999,"velocity":0.7637795275590551,"duration":0.140625},{"name":"G4","midi":67,"time":19.86067708333332,"velocity":0.7637795275590551,"duration":0.140625},{"name":"F4","midi":65,"time":20.002604166666654,"velocity":0.7637795275590551,"duration":0.140625},{"name":"D#4","midi":63,"time":20.144531249999986,"velocity":0.7637795275590551,"duration":0.140625},{"name":"D4","midi":62,"time":20.286458333333318,"velocity":0.7637795275590551,"duration":0.140625},{"name":"G#3","midi":56,"time":20.42838541666665,"velocity":0.7637795275590551,"duration":0.27994791666666785},{"name":"C4","midi":60,"time":20.42838541666665,"velocity":0.7637795275590551,"duration":0.5572916666666679},{"name":"F5","midi":77,"time":20.42838541666665,"velocity":0.7637795275590551,"duration":0.09244791666666785},{"name":"D#5","midi":75,"time":20.52213541666665,"velocity":0.7637795275590551,"duration":0.09244791666666785},{"name":"F5","midi":77,"time":20.61588541666665,"velocity":0.7637795275590551,"duration":0.09244791666666785},{"name":"D#3","midi":51,"time":20.70963541666665,"velocity":0.7637795275590551,"duration":0.27994791666666785},{"name":"D#5","midi":75,"time":20.70963541666665,"velocity":0.7637795275590551,"duration":0.09244791666666785},{"name":"F5","midi":77,"time":20.80338541666665,"velocity":0.7637795275590551,"duration":0.09244791666666785},{"name":"D#5","midi":75,"time":20.89713541666665,"velocity":0.7637795275590551,"duration":0.09244791666666785},{"name":"C4","midi":60,"time":20.99088541666665,"velocity":0.7637795275590551,"duration":0.27994791666666785},{"name":"F5","midi":77,"time":20.99088541666665,"velocity":0.7637795275590551,"duration":0.09244791666666785},{"name":"D#5","midi":75,"time":21.08463541666665,"velocity":0.7637795275590551,"duration":0.09244791666666785},{"name":"F5","midi":77,"time":21.17838541666665,"velocity":0.7637795275590551,"duration":0.09244791666666785},{"name":"C4","midi":60,"time":21.27213541666665,"velocity":0.7637795275590551,"duration":0.27994791666666785},{"name":"D#5","midi":75,"time":21.27213541666665,"velocity":0.7637795275590551,"duration":0.09244791666666785},{"name":"F5","midi":77,"time":21.36588541666665,"velocity":0.7637795275590551,"duration":0.09244791666666785},{"name":"D#5","midi":75,"time":21.45963541666665,"velocity":0.7637795275590551,"duration":0.09244791666666785},{"name":"G#3","midi":56,"time":21.55338541666665,"velocity":0.7637795275590551,"duration":0.27994791666666785},{"name":"F5","midi":77,"time":21.55338541666665,"velocity":0.7637795275590551,"duration":0.09244791666666785},{"name":"D#5","midi":75,"time":21.64713541666665,"velocity":0.7637795275590551,"duration":0.09244791666666785},{"name":"F5","midi":77,"time":21.74088541666665,"velocity":0.7637795275590551,"duration":0.09244791666666785},{"name":"D#4","midi":63,"time":21.83463541666665,"velocity":0.7637795275590551,"duration":0.27994791666666785},{"name":"C5","midi":72,"time":21.83463541666665,"velocity":0.7637795275590551,"duration":0.27994791666666785},{"name":"D#5","midi":75,"time":21.83463541666665,"velocity":0.7637795275590551,"duration":0.09244791666666785},{"name":"F5","midi":77,"time":21.92838541666665,"velocity":0.7637795275590551,"duration":0.09244791666666785},{"name":"D#5","midi":75,"time":22.02213541666665,"velocity":0.7637795275590551,"duration":0.09244791666666785},{"name":"G3","midi":55,"time":22.11588541666665,"velocity":0.7637795275590551,"duration":0.27994791666666785},{"name":"A#4","midi":70,"time":22.11588541666665,"velocity":0.7637795275590551,"duration":1.4049479166666679},{"name":"F5","midi":77,"time":22.11588541666665,"velocity":0.7637795275590551,"duration":0.09244791666666785},{"name":"D#5","midi":75,"time":22.20963541666665,"velocity":0.7637795275590551,"duration":0.09244791666666785},{"name":"F5","midi":77,"time":22.30338541666665,"velocity":0.7637795275590551,"duration":0.09244791666666785},{"name":"D#3","midi":51,"time":22.39713541666665,"velocity":0.7637795275590551,"duration":0.27994791666666785},{"name":"D#5","midi":75,"time":22.39713541666665,"velocity":0.7637795275590551,"duration":0.09244791666666785},{"name":"F5","midi":77,"time":22.49088541666665,"velocity":0.7637795275590551,"duration":0.09244791666666785},{"name":"D#5","midi":75,"time":22.58463541666665,"velocity":0.7637795275590551,"duration":0.09244791666666785},{"name":"A#3","midi":58,"time":22.67838541666665,"velocity":0.7637795275590551,"duration":0.27994791666666785},{"name":"F5","midi":77,"time":22.67838541666665,"velocity":0.7637795275590551,"duration":0.09244791666666785},{"name":"D#5","midi":75,"time":22.77213541666665,"velocity":0.7637795275590551,"duration":0.09244791666666785},{"name":"F5","midi":77,"time":22.86588541666665,"velocity":0.7637795275590551,"duration":0.09244791666666785},{"name":"A#3","midi":58,"time":22.95963541666665,"velocity":0.7637795275590551,"duration":0.27994791666666785},{"name":"D#5","midi":75,"time":22.95963541666665,"velocity":0.7637795275590551,"duration":0.09244791666666785},{"name":"F5","midi":77,"time":23.05338541666665,"velocity":0.7637795275590551,"duration":0.09244791666666785},{"name":"D#5","midi":75,"time":23.14713541666665,"velocity":0.7637795275590551,"duration":0.09244791666666785},{"name":"G3","midi":55,"time":23.24088541666665,"velocity":0.7637795275590551,"duration":0.27994791666666785},{"name":"F5","midi":77,"time":23.24088541666665,"velocity":0.7637795275590551,"duration":0.09244791666666785},{"name":"D#5","midi":75,"time":23.33463541666665,"velocity":0.7637795275590551,"duration":0.09244791666666785},{"name":"F5","midi":77,"time":23.42838541666665,"velocity":0.7637795275590551,"duration":0.09244791666666785},{"name":"D#4","midi":63,"time":23.52213541666665,"velocity":0.7637795275590551,"duration":0.27994791666666785},{"name":"C5","midi":72,"time":23.52213541666665,"velocity":0.7637795275590551,"duration":0.27994791666666785},{"name":"D#5","midi":75,"time":23.52213541666665,"velocity":0.7637795275590551,"duration":0.09244791666666785},{"name":"F5","midi":77,"time":23.61588541666665,"velocity":0.7637795275590551,"duration":0.09244791666666785},{"name":"D#5","midi":75,"time":23.723958333333318,"velocity":0.7637795275590551,"duration":0.6093749999999964},{"name":"F3","midi":53,"time":23.80338541666665,"velocity":0.7637795275590551,"duration":0.28125},{"name":"G#4","midi":68,"time":23.80338541666665,"velocity":0.7637795275590551,"duration":1.4114583333333286},{"name":"G3","midi":55,"time":24.085937499999982,"velocity":0.7637795275590551,"duration":0.28125},{"name":"G#3","midi":56,"time":24.368489583333314,"velocity":0.7637795275590551,"duration":0.28125},{"name":"F5","midi":77,"time":24.368489583333314,"velocity":0.7637795275590551,"duration":0.28125},{"name":"A#3","midi":58,"time":24.651041666666647,"velocity":0.7637795275590551,"duration":0.28125},{"name":"D5","midi":74,"time":24.651041666666647,"velocity":0.7637795275590551,"duration":1.1289062499999964},{"name":"C4","midi":60,"time":24.93359374999998,"velocity":0.7637795275590551,"duration":0.28125},{"name":"D4","midi":62,"time":25.21614583333331,"velocity":0.7637795275590551,"duration":0.28125},{"name":"A#4","midi":70,"time":25.21614583333331,"velocity":0.7637795275590551,"duration":0.28125},{"name":"D#3","midi":51,"time":25.498697916666643,"velocity":0.7637795275590551,"duration":0.8489583333333286},{"name":"G4","midi":67,"time":25.498697916666643,"velocity":0.7637795275590551,"duration":0.8489583333333286},{"name":"G5","midi":79,"time":25.781249999999975,"velocity":0.7637795275590551,"duration":0.140625},{"name":"F5","midi":77,"time":25.923177083333307,"velocity":0.7637795275590551,"duration":0.140625},{"name":"D#5","midi":75,"time":26.06510416666664,"velocity":0.7637795275590551,"duration":0.140625},{"name":"D5","midi":74,"time":26.20703124999997,"velocity":0.7637795275590551,"duration":0.140625},{"name":"D#4","midi":63,"time":26.348958333333304,"velocity":0.7637795275590551,"duration":0.140625},{"name":"C5","midi":72,"time":26.348958333333304,"velocity":0.7637795275590551,"duration":0.140625},{"name":"D4","midi":62,"time":26.490885416666636,"velocity":0.7637795275590551,"duration":0.140625},{"name":"D5","midi":74,"time":26.490885416666636,"velocity":0.7637795275590551,"duration":0.140625},{"name":"D#4","midi":63,"time":26.632812499999968,"velocity":0.7637795275590551,"duration":0.5664062499999964},{"name":"C5","midi":72,"time":26.632812499999968,"velocity":0.7637795275590551,"duration":0.140625},{"name":"A#4","midi":70,"time":26.7747395833333,"velocity":0.7637795275590551,"duration":0.140625},{"name":"A4","midi":69,"time":26.916666666666632,"velocity":0.7637795275590551,"duration":0.140625},{"name":"G4","midi":67,"time":27.058593749999964,"velocity":0.7637795275590551,"duration":0.140625},{"name":"D4","midi":62,"time":27.200520833333297,"velocity":0.7637795275590551,"duration":0.8489583333333286},{"name":"F#4","midi":66,"time":27.200520833333297,"velocity":0.7637795275590551,"duration":0.28125},{"name":"A5","midi":81,"time":27.48307291666663,"velocity":0.7637795275590551,"duration":0.140625},{"name":"G5","midi":79,"time":27.62499999999996,"velocity":0.7637795275590551,"duration":0.140625},{"name":"F#5","midi":78,"time":27.766927083333293,"velocity":0.7637795275590551,"duration":0.140625},{"name":"E5","midi":76,"time":27.908854166666625,"velocity":0.7637795275590551,"duration":0.140625},{"name":"F#3","midi":54,"time":28.050781249999957,"velocity":0.7637795275590551,"duration":0.8502604166666607},{"name":"D5","midi":74,"time":28.050781249999957,"velocity":0.7637795275590551,"duration":0.140625},{"name":"D#5","midi":75,"time":28.19270833333329,"velocity":0.7637795275590551,"duration":0.140625},{"name":"D5","midi":74,"time":28.33463541666662,"velocity":0.7637795275590551,"duration":0.140625},{"name":"C5","midi":72,"time":28.476562499999954,"velocity":0.7637795275590551,"duration":0.140625},{"name":"A#4","midi":70,"time":28.618489583333286,"velocity":0.7637795275590551,"duration":0.140625},{"name":"A4","midi":69,"time":28.760416666666618,"velocity":0.7637795275590551,"duration":0.140625},{"name":"G3","midi":55,"time":28.90234374999995,"velocity":0.7637795275590551,"duration":0.28125},{"name":"A#4","midi":70,"time":28.90234374999995,"velocity":0.7637795275590551,"duration":1.6940104166666607},{"name":"D3","midi":50,"time":29.184895833333282,"velocity":0.7637795275590551,"duration":0.28125},{"name":"A#3","midi":58,"time":29.467447916666615,"velocity":0.7637795275590551,"duration":0.28125},{"name":"A#3","midi":58,"time":29.749999999999947,"velocity":0.7637795275590551,"duration":0.28125},{"name":"G4","midi":67,"time":29.749999999999947,"velocity":0.7637795275590551,"duration":0.8463541666666643},{"name":"G3","midi":55,"time":30.03255208333328,"velocity":0.7637795275590551,"duration":0.28125},{"name":"D4","midi":62,"time":30.31510416666661,"velocity":0.7637795275590551,"duration":0.28125},{"name":"D4","midi":62,"time":30.597656249999943,"velocity":0.7637795275590551,"duration":0.5598958333333321},{"name":"F#4","midi":66,"time":30.597656249999943,"velocity":0.7637795275590551,"duration":0.28125},{"name":"A4","midi":69,"time":30.597656249999943,"velocity":0.7637795275590551,"duration":0.8463541666666643},{"name":"E4","midi":64,"time":30.880208333333275,"velocity":0.7637795275590551,"duration":0.28125},{"name":"D4","midi":62,"time":31.162760416666607,"velocity":0.7637795275590551,"duration":0.8463541666666643},{"name":"D3","midi":50,"time":31.44531249999994,"velocity":0.7637795275590551,"duration":0.8463541666666679},{"name":"C5","midi":72,"time":31.44531249999994,"velocity":0.7637795275590551,"duration":0.28125},{"name":"F#5","midi":78,"time":31.44531249999994,"velocity":0.7637795275590551,"duration":0.8463541666666679},{"name":"A#4","midi":70,"time":31.72786458333327,"velocity":0.7637795275590551,"duration":0.28125},{"name":"A4","midi":69,"time":32.01041666666661,"velocity":0.7637795275590551,"duration":0.28125},{"name":"G3","midi":55,"time":32.29296874999994,"velocity":0.7637795275590551,"duration":0.28125},{"name":"A#4","midi":70,"time":32.29296874999994,"velocity":0.7637795275590551,"duration":0.28125},{"name":"G5","midi":79,"time":32.29296874999994,"velocity":0.7637795275590551,"duration":1.128906250000007},{"name":"A3","midi":57,"time":32.57552083333328,"velocity":0.7637795275590551,"duration":0.28125},{"name":"C5","midi":72,"time":32.57552083333328,"velocity":0.7637795275590551,"duration":0.28125},{"name":"A#3","midi":58,"time":32.858072916666615,"velocity":0.7637795275590551,"duration":0.28125},{"name":"A#4","midi":70,"time":32.858072916666615,"velocity":0.7637795275590551,"duration":0.28125},{"name":"C4","midi":60,"time":33.14062499999995,"velocity":0.7637795275590551,"duration":0.28125},{"name":"A4","midi":69,"time":33.14062499999995,"velocity":0.7637795275590551,"duration":0.28125},{"name":"D4","midi":62,"time":33.423177083333286,"velocity":0.7637795275590551,"duration":0.28125},{"name":"A#4","midi":70,"time":33.423177083333286,"velocity":0.7637795275590551,"duration":0.28125},{"name":"D#4","midi":63,"time":33.70572916666662,"velocity":0.7637795275590551,"duration":0.28125},{"name":"G4","midi":67,"time":33.70572916666662,"velocity":0.7637795275590551,"duration":0.28125},{"name":"F#3","midi":54,"time":33.98828124999996,"velocity":0.7637795275590551,"duration":0.28125},{"name":"D5","midi":74,"time":33.98828124999996,"velocity":0.7637795275590551,"duration":0.3125},{"name":"D#4","midi":63,"time":34.27083333333329,"velocity":0.7637795275590551,"duration":0.28125},{"name":"C5","midi":72,"time":34.27083333333329,"velocity":0.7637795275590551,"duration":0.28125},{"name":"D4","midi":62,"time":34.55338541666663,"velocity":0.7637795275590551,"duration":0.28125},{"name":"A#4","midi":70,"time":34.55338541666663,"velocity":0.7637795275590551,"duration":0.28125},{"name":"C4","midi":60,"time":34.835937499999964,"velocity":0.7637795275590551,"duration":0.28125},{"name":"A4","midi":69,"time":34.835937499999964,"velocity":0.7637795275590551,"duration":0.28125},{"name":"A#3","midi":58,"time":35.1184895833333,"velocity":0.7637795275590551,"duration":0.28125},{"name":"G4","midi":67,"time":35.1184895833333,"velocity":0.7637795275590551,"duration":0.28125},{"name":"A3","midi":57,"time":35.401041666666636,"velocity":0.7637795275590551,"duration":0.28125},{"name":"F#4","midi":66,"time":35.401041666666636,"velocity":0.7637795275590551,"duration":0.2799479166666643},{"name":"A#3","midi":58,"time":35.68359374999997,"velocity":0.7637795275590551,"duration":0.8463541666666714},{"name":"G4","midi":67,"time":35.68359374999997,"velocity":0.7637795275590551,"duration":0.28125},{"name":"D4","midi":62,"time":35.96614583333331,"velocity":0.7637795275590551,"duration":0.28125},{"name":"A#4","midi":70,"time":36.24869791666664,"velocity":0.7637795275590551,"duration":0.28125},{"name":"G3","midi":55,"time":36.53124999999998,"velocity":0.7637795275590551,"duration":1.128906250000007},{"name":"D4","midi":62,"time":36.53124999999998,"velocity":0.7637795275590551,"duration":0.8463541666666714},{"name":"A#4","midi":70,"time":36.53124999999998,"velocity":0.7637795275590551,"duration":0.28125},{"name":"G4","midi":67,"time":36.813802083333314,"velocity":0.7637795275590551,"duration":0.28125},{"name":"D5","midi":74,"time":37.09635416666665,"velocity":0.7637795275590551,"duration":0.28125},{"name":"A4","midi":69,"time":37.378906249999986,"velocity":0.7637795275590551,"duration":0.8463541666666714},{"name":"D5","midi":74,"time":37.378906249999986,"velocity":0.7637795275590551,"duration":0.8463541666666714},{"name":"F#3","midi":54,"time":37.66145833333332,"velocity":0.7637795275590551,"duration":0.28125},{"name":"G3","midi":55,"time":37.94401041666666,"velocity":0.7637795275590551,"duration":0.28125},{"name":"A3","midi":57,"time":38.22656249999999,"velocity":0.7637795275590551,"duration":0.28125},{"name":"F#4","midi":66,"time":38.22656249999999,"velocity":0.7637795275590551,"duration":0.7812500000000071},{"name":"D4","midi":62,"time":38.22656249999999,"velocity":0.7637795275590551,"duration":0.8463541666666714},{"name":"A#3","midi":58,"time":38.50911458333333,"velocity":0.7637795275590551,"duration":0.28125},{"name":"C4","midi":60,"time":38.791666666666664,"velocity":0.7637795275590551,"duration":0.28125},{"name":"A#3","midi":58,"time":39.07421875,"velocity":0.7637795275590551,"duration":0.28125},{"name":"G4","midi":67,"time":39.07421875,"velocity":0.7637795275590551,"duration":0.5598958333333357},{"name":"C4","midi":60,"time":39.356770833333336,"velocity":0.7637795275590551,"duration":0.28125},{"name":"A4","midi":69,"time":39.356770833333336,"velocity":0.7637795275590551,"duration":0.28125},{"name":"A#3","midi":58,"time":39.63932291666667,"velocity":0.7637795275590551,"duration":0.28125},{"name":"A#4","midi":70,"time":39.63932291666667,"velocity":0.7637795275590551,"duration":0.28125},{"name":"A3","midi":57,"time":39.92187500000001,"velocity":0.7637795275590551,"duration":0.28125},{"name":"C5","midi":72,"time":39.92187500000001,"velocity":0.7637795275590551,"duration":0.28125},{"name":"A#3","midi":58,"time":40.20442708333334,"velocity":0.7637795275590551,"duration":0.28125},{"name":"D5","midi":74,"time":40.20442708333334,"velocity":0.7637795275590551,"duration":0.28125},{"name":"G3","midi":55,"time":40.48697916666668,"velocity":0.7637795275590551,"duration":0.28125},{"name":"D#5","midi":75,"time":40.48697916666668,"velocity":0.7637795275590551,"duration":0.28125},{"name":"D4","midi":62,"time":40.769531250000014,"velocity":0.7637795275590551,"duration":0.28125},{"name":"F#4","midi":66,"time":40.769531250000014,"velocity":0.7637795275590551,"duration":0.28125},{"name":"C4","midi":60,"time":41.05208333333335,"velocity":0.7637795275590551,"duration":0.28125},{"name":"D#5","midi":75,"time":41.05208333333335,"velocity":0.7637795275590551,"duration":0.28125},{"name":"A#3","midi":58,"time":41.334635416666686,"velocity":0.7637795275590551,"duration":0.28125},{"name":"D5","midi":74,"time":41.334635416666686,"velocity":0.7637795275590551,"duration":0.28125},{"name":"A3","midi":57,"time":41.61718750000002,"velocity":0.7637795275590551,"duration":0.28125},{"name":"C5","midi":72,"time":41.61718750000002,"velocity":0.7637795275590551,"duration":0.28125},{"name":"G3","midi":55,"time":41.89973958333336,"velocity":0.7637795275590551,"duration":0.28125},{"name":"A#4","midi":70,"time":41.89973958333336,"velocity":0.7637795275590551,"duration":0.28125},{"name":"F#3","midi":54,"time":42.18229166666669,"velocity":0.7637795275590551,"duration":0.28125},{"name":"A4","midi":69,"time":42.18229166666669,"velocity":0.7637795275590551,"duration":0.28125},{"name":"G3","midi":55,"time":42.46484375000003,"velocity":0.7637795275590551,"duration":0.5638020833333357},{"name":"G4","midi":67,"time":42.46484375000003,"velocity":0.7637795275590551,"duration":0.28125},{"name":"A#4","midi":70,"time":42.46484375000003,"velocity":0.7637795275590551,"duration":0.5598958333333357},{"name":"D4","midi":62,"time":42.747395833333364,"velocity":0.7637795275590551,"duration":0.28125},{"name":"D4","midi":62,"time":43.0299479166667,"velocity":0.7637795275590551,"duration":0.28125},{"name":"A#4","midi":70,"time":43.0299479166667,"velocity":0.7637795275590551,"duration":0.28125},{"name":"G3","midi":55,"time":43.312500000000036,"velocity":0.7637795275590551,"duration":0.5638020833333357},{"name":"A#4","midi":70,"time":43.312500000000036,"velocity":0.7637795275590551,"duration":0.28125},{"name":"G4","midi":67,"time":43.59505208333337,"velocity":0.7637795275590551,"duration":0.28125},{"name":"A#3","midi":58,"time":43.87760416666671,"velocity":0.7637795275590551,"duration":0.28125},{"name":"D5","midi":74,"time":43.87760416666671,"velocity":0.7637795275590551,"duration":0.28125},{"name":"C3","midi":48,"time":44.16015625000004,"velocity":0.7637795275590551,"duration":1.13411458333335},{"name":"D#4","midi":63,"time":44.16015625000004,"velocity":0.7637795275590551,"duration":1.13411458333335},{"name":"G4","midi":67,"time":44.30208333333338,"velocity":0.7637795275590551,"duration":0.140625},{"name":"A4","midi":69,"time":44.444010416666714,"velocity":0.7637795275590551,"duration":0.140625},{"name":"A#4","midi":70,"time":44.58593750000005,"velocity":0.7637795275590551,"duration":0.140625},{"name":"C5","midi":72,"time":44.727864583333385,"velocity":0.7637795275590551,"duration":0.140625},{"name":"D5","midi":74,"time":44.86979166666672,"velocity":0.7637795275590551,"duration":0.140625},{"name":"D#5","midi":75,"time":45.01171875000006,"velocity":0.7637795275590551,"duration":0.140625},{"name":"F5","midi":77,"time":45.15364583333339,"velocity":0.7637795275590551,"duration":0.140625},{"name":"D#5","midi":75,"time":45.29557291666673,"velocity":0.7637795275590551,"duration":0.140625},{"name":"D5","midi":74,"time":45.437500000000064,"velocity":0.7637795275590551,"duration":0.140625},{"name":"C5","midi":72,"time":45.5794270833334,"velocity":0.7637795275590551,"duration":0.140625},{"name":"A#4","midi":70,"time":45.721354166666735,"velocity":0.7637795275590551,"duration":0.140625},{"name":"F4","midi":65,"time":45.86328125000007,"velocity":0.7637795275590551,"duration":0.28125},{"name":"A4","midi":69,"time":45.86328125000007,"velocity":0.7637795275590551,"duration":0.5598958333333357},{"name":"C4","midi":60,"time":46.14583333333341,"velocity":0.7637795275590551,"duration":0.28125},{"name":"C4","midi":60,"time":46.42838541666674,"velocity":0.7637795275590551,"duration":0.28125},{"name":"A4","midi":69,"time":46.42838541666674,"velocity":0.7637795275590551,"duration":0.28125},{"name":"F3","midi":53,"time":46.71093750000008,"velocity":0.7637795275590551,"duration":0.5638020833333357},{"name":"A4","midi":69,"time":46.71093750000008,"velocity":0.7637795275590551,"duration":0.28125},{"name":"F4","midi":65,"time":46.993489583333414,"velocity":0.7637795275590551,"duration":0.28125},{"name":"A3","midi":57,"time":47.27604166666675,"velocity":0.7637795275590551,"duration":0.28125},{"name":"C5","midi":72,"time":47.27604166666675,"velocity":0.7637795275590551,"duration":0.28125},{"name":"A#2","midi":46,"time":47.558593750000085,"velocity":0.7637795275590551,"duration":1.7018229166666927},{"name":"D4","midi":62,"time":47.558593750000085,"velocity":0.7637795275590551,"duration":0.8502604166666785},{"name":"F4","midi":65,"time":47.70052083333342,"velocity":0.7637795275590551,"duration":0.140625},{"name":"G4","midi":67,"time":47.84244791666676,"velocity":0.7637795275590551,"duration":0.140625},{"name":"A4","midi":69,"time":47.98437500000009,"velocity":0.7637795275590551,"duration":0.140625},{"name":"A#4","midi":70,"time":48.12630208333343,"velocity":0.7637795275590551,"duration":0.140625},{"name":"C5","midi":72,"time":48.268229166666764,"velocity":0.7637795275590551,"duration":0.140625},{"name":"D5","midi":74,"time":48.4101562500001,"velocity":0.7637795275590551,"duration":0.140625},{"name":"D#5","midi":75,"time":48.552083333333435,"velocity":0.7637795275590551,"duration":0.140625},{"name":"D5","midi":74,"time":48.69401041666677,"velocity":0.7637795275590551,"duration":0.140625},{"name":"C5","midi":72,"time":48.83593750000011,"velocity":0.7637795275590551,"duration":0.140625},{"name":"A#4","midi":70,"time":48.97786458333344,"velocity":0.7637795275590551,"duration":0.140625},{"name":"A4","midi":69,"time":49.11979166666678,"velocity":0.7637795275590551,"duration":0.140625},{"name":"C3","midi":48,"time":49.261718750000114,"velocity":0.7637795275590551,"duration":0.0924479166666643},{"name":"D#4","midi":63,"time":49.261718750000114,"velocity":0.7637795275590551,"duration":0.2799479166666643},{"name":"G4","midi":67,"time":49.261718750000114,"velocity":0.7637795275590551,"duration":0.5572916666666643},{"name":"A#2","midi":46,"time":49.355468750000114,"velocity":0.7637795275590551,"duration":0.0924479166666643},{"name":"C3","midi":48,"time":49.449218750000114,"velocity":0.7637795275590551,"duration":0.0924479166666643},{"name":"A#2","midi":46,"time":49.542968750000114,"velocity":0.7637795275590551,"duration":0.0924479166666643},{"name":"A#3","midi":58,"time":49.542968750000114,"velocity":0.7637795275590551,"duration":0.2799479166666643},{"name":"C3","midi":48,"time":49.636718750000114,"velocity":0.7637795275590551,"duration":0.0924479166666643},{"name":"A#2","midi":46,"time":49.730468750000114,"velocity":0.7637795275590551,"duration":0.0924479166666643},{"name":"C3","midi":48,"time":49.824218750000114,"velocity":0.7637795275590551,"duration":0.0924479166666643},{"name":"G4","midi":67,"time":49.824218750000114,"velocity":0.7637795275590551,"duration":0.2799479166666643},{"name":"A#2","midi":46,"time":49.917968750000114,"velocity":0.7637795275590551,"duration":0.0924479166666643},{"name":"C3","midi":48,"time":50.011718750000114,"velocity":0.7637795275590551,"duration":0.0924479166666643},{"name":"A#2","midi":46,"time":50.105468750000114,"velocity":0.7637795275590551,"duration":0.0924479166666643},{"name":"G4","midi":67,"time":50.105468750000114,"velocity":0.7637795275590551,"duration":0.2799479166666643},{"name":"C3","midi":48,"time":50.199218750000114,"velocity":0.7637795275590551,"duration":0.0924479166666643},{"name":"A#2","midi":46,"time":50.292968750000114,"velocity":0.7637795275590551,"duration":0.0924479166666643},{"name":"C3","midi":48,"time":50.386718750000114,"velocity":0.7637795275590551,"duration":0.0924479166666643},{"name":"D#4","midi":63,"time":50.386718750000114,"velocity":0.7637795275590551,"duration":0.2799479166666643},{"name":"A#2","midi":46,"time":50.480468750000114,"velocity":0.7637795275590551,"duration":0.0924479166666643},{"name":"C3","midi":48,"time":50.574218750000114,"velocity":0.7637795275590551,"duration":0.0924479166666643},{"name":"A#2","midi":46,"time":50.667968750000114,"velocity":0.7637795275590551,"duration":0.0924479166666643},{"name":"A#4","midi":70,"time":50.667968750000114,"velocity":0.7637795275590551,"duration":0.2799479166666643},{"name":"G4","midi":67,"time":50.667968750000114,"velocity":0.7637795275590551,"duration":0.2799479166666643},{"name":"C3","midi":48,"time":50.761718750000114,"velocity":0.7637795275590551,"duration":0.0924479166666643},{"name":"A#2","midi":46,"time":50.855468750000114,"velocity":0.7637795275590551,"duration":0.0924479166666643},{"name":"C3","midi":48,"time":50.949218750000114,"velocity":0.7637795275590551,"duration":0.0924479166666643},{"name":"D4","midi":62,"time":50.949218750000114,"velocity":0.7637795275590551,"duration":0.2799479166666643},{"name":"F4","midi":65,"time":50.949218750000114,"velocity":0.7637795275590551,"duration":0.5572916666666643},{"name":"A#2","midi":46,"time":51.042968750000114,"velocity":0.7637795275590551,"duration":0.0924479166666643},{"name":"C3","midi":48,"time":51.136718750000114,"velocity":0.7637795275590551,"duration":0.0924479166666643},{"name":"A#2","midi":46,"time":51.230468750000114,"velocity":0.7637795275590551,"duration":0.0924479166666643},{"name":"A#3","midi":58,"time":51.230468750000114,"velocity":0.7637795275590551,"duration":0.2799479166666643},{"name":"C3","midi":48,"time":51.324218750000114,"velocity":0.7637795275590551,"duration":0.0924479166666643},{"name":"A#2","midi":46,"time":51.417968750000114,"velocity":0.7637795275590551,"duration":0.0924479166666643},{"name":"C3","midi":48,"time":51.511718750000114,"velocity":0.7637795275590551,"duration":0.0924479166666643},{"name":"F4","midi":65,"time":51.511718750000114,"velocity":0.7637795275590551,"duration":0.2799479166666643},{"name":"A#2","midi":46,"time":51.605468750000114,"velocity":0.7637795275590551,"duration":0.0924479166666643},{"name":"C3","midi":48,"time":51.699218750000114,"velocity":0.7637795275590551,"duration":0.0924479166666643},{"name":"A#2","midi":46,"time":51.792968750000114,"velocity":0.7637795275590551,"duration":0.0924479166666643},{"name":"F4","midi":65,"time":51.792968750000114,"velocity":0.7637795275590551,"duration":0.2799479166666643},{"name":"C3","midi":48,"time":51.886718750000114,"velocity":0.7637795275590551,"duration":0.0924479166666643},{"name":"A#2","midi":46,"time":51.980468750000114,"velocity":0.7637795275590551,"duration":0.0924479166666643},{"name":"C3","midi":48,"time":52.074218750000114,"velocity":0.7637795275590551,"duration":0.0924479166666643},{"name":"D4","midi":62,"time":52.074218750000114,"velocity":0.7637795275590551,"duration":0.2799479166666643},{"name":"A#2","midi":46,"time":52.167968750000114,"velocity":0.7637795275590551,"duration":0.0924479166666643},{"name":"C3","midi":48,"time":52.261718750000114,"velocity":0.7637795275590551,"duration":0.0924479166666643},{"name":"A#2","midi":46,"time":52.355468750000114,"velocity":0.7637795275590551,"duration":0.0924479166666643},{"name":"A#4","midi":70,"time":52.355468750000114,"velocity":0.7637795275590551,"duration":0.2799479166666643},{"name":"G4","midi":67,"time":52.355468750000114,"velocity":0.7637795275590551,"duration":0.2799479166666643},{"name":"C3","midi":48,"time":52.449218750000114,"velocity":0.7637795275590551,"duration":0.0924479166666643},{"name":"A#2","midi":46,"time":52.542968750000114,"velocity":0.7637795275590551,"duration":0.0924479166666643},{"name":"A#2","midi":46,"time":52.636718750000114,"velocity":0.7637795275590551,"duration":0.8463541666666714},{"name":"C4","midi":60,"time":52.636718750000114,"velocity":0.7637795275590551,"duration":0.28125},{"name":"D#4","midi":63,"time":52.636718750000114,"velocity":0.7637795275590551,"duration":0.2799479166666643},{"name":"D4","midi":62,"time":52.91927083333345,"velocity":0.7637795275590551,"duration":0.28125},{"name":"D#4","midi":63,"time":53.201822916666785,"velocity":0.7637795275590551,"duration":0.28125},{"name":"A2","midi":45,"time":53.48437500000012,"velocity":0.7637795275590551,"duration":0.8463541666666714},{"name":"F4","midi":65,"time":53.48437500000012,"velocity":0.7637795275590551,"duration":0.28125},{"name":"G4","midi":67,"time":53.76692708333346,"velocity":0.7637795275590551,"duration":0.28125},{"name":"A4","midi":69,"time":54.04947916666679,"velocity":0.7637795275590551,"duration":0.28125},{"name":"F4","midi":65,"time":54.04947916666679,"velocity":0.7637795275590551,"duration":0.28125},{"name":"A#3","midi":58,"time":54.33203125000013,"velocity":0.7637795275590551,"duration":0.5598958333333357},{"name":"D4","midi":62,"time":54.33203125000013,"velocity":0.7637795275590551,"duration":0.5638020833333357},{"name":"D3","midi":50,"time":54.614583333333464,"velocity":0.7637795275590551,"duration":0.140625},{"name":"C3","midi":48,"time":54.7565104166668,"velocity":0.7637795275590551,"duration":0.1393229166666643},{"name":"A#2","midi":46,"time":54.8971354166668,"velocity":0.7637795275590551,"duration":0.140625},{"name":"D5","midi":74,"time":54.8971354166668,"velocity":0.7637795275590551,"duration":0.2825520833333357},{"name":"A2","midi":45,"time":55.039062500000135,"velocity":0.7637795275590551,"duration":0.140625},{"name":"G2","midi":43,"time":55.18098958333347,"velocity":0.7637795275590551,"duration":0.140625},{"name":"A#4","midi":70,"time":55.18098958333347,"velocity":0.7637795275590551,"duration":1.4166666666666856},{"name":"A2","midi":45,"time":55.322916666666806,"velocity":0.7637795275590551,"duration":0.140625},{"name":"G2","midi":43,"time":55.46484375000014,"velocity":0.7637795275590551,"duration":0.140625},{"name":"F2","midi":41,"time":55.60677083333348,"velocity":0.7637795275590551,"duration":0.140625},{"name":"D#2","midi":39,"time":55.74869791666681,"velocity":0.7637795275590551,"duration":0.140625},{"name":"G4","midi":67,"time":55.74869791666681,"velocity":0.7637795275590551,"duration":0.2825520833333357},{"name":"D2","midi":38,"time":55.89062500000015,"velocity":0.7637795275590551,"duration":0.140625},{"name":"C2","midi":36,"time":56.032552083333485,"velocity":0.7637795275590551,"duration":0.28125},{"name":"D#4","midi":63,"time":56.032552083333485,"velocity":0.7637795275590551,"duration":1.4166666666666856},{"name":"D#3","midi":51,"time":56.31510416666682,"velocity":0.7637795275590551,"duration":0.140625},{"name":"D3","midi":50,"time":56.457031250000156,"velocity":0.7637795275590551,"duration":0.140625},{"name":"C3","midi":48,"time":56.59895833333349,"velocity":0.7637795275590551,"duration":0.140625},{"name":"D#5","midi":75,"time":56.59895833333349,"velocity":0.7637795275590551,"duration":0.2825520833333357},{"name":"A#2","midi":46,"time":56.74088541666683,"velocity":0.7637795275590551,"duration":0.140625},{"name":"A2","midi":45,"time":56.88281250000016,"velocity":0.7637795275590551,"duration":0.140625},{"name":"C5","midi":72,"time":56.88281250000016,"velocity":0.7637795275590551,"duration":1.1328125000000142},{"name":"A#2","midi":46,"time":57.0247395833335,"velocity":0.7637795275590551,"duration":0.140625},{"name":"A2","midi":45,"time":57.166666666666835,"velocity":0.7637795275590551,"duration":0.140625},{"name":"G2","midi":43,"time":57.30859375000017,"velocity":0.7637795275590551,"duration":0.140625},{"name":"F#2","midi":42,"time":57.450520833333506,"velocity":0.7637795275590551,"duration":0.140625},{"name":"A4","midi":69,"time":57.450520833333506,"velocity":0.7637795275590551,"duration":0.2825520833333357},{"name":"E2","midi":40,"time":57.59244791666684,"velocity":0.7637795275590551,"duration":0.140625},{"name":"D2","midi":38,"time":57.73437500000018,"velocity":0.7637795275590551,"duration":1.27473958333335},{"name":"F#4","midi":66,"time":57.73437500000018,"velocity":0.7637795275590551,"duration":0.8489583333333428},{"name":"D5","midi":74,"time":58.01692708333351,"velocity":0.7637795275590551,"duration":0.140625},{"name":"C5","midi":72,"time":58.15885416666685,"velocity":0.7637795275590551,"duration":0.140625},{"name":"A#4","midi":70,"time":58.300781250000185,"velocity":0.7637795275590551,"duration":0.140625},{"name":"A4","midi":69,"time":58.44270833333352,"velocity":0.7637795275590551,"duration":0.140625},{"name":"G4","midi":67,"time":58.584635416666856,"velocity":0.7637795275590551,"duration":0.140625},{"name":"A#4","midi":70,"time":58.584635416666856,"velocity":0.7637795275590551,"duration":1.13411458333335},{"name":"A4","midi":69,"time":58.72656250000019,"velocity":0.7637795275590551,"duration":0.140625},{"name":"G4","midi":67,"time":58.86848958333353,"velocity":0.7637795275590551,"duration":0.140625},{"name":"G2","midi":43,"time":59.01041666666686,"velocity":0.7637795275590551,"duration":0.140625},{"name":"F4","midi":65,"time":59.01041666666686,"velocity":0.7637795275590551,"duration":0.140625},{"name":"A2","midi":45,"time":59.1523437500002,"velocity":0.7637795275590551,"duration":0.140625},{"name":"D#4","midi":63,"time":59.1523437500002,"velocity":0.7637795275590551,"duration":0.140625},{"name":"A#2","midi":46,"time":59.294270833333535,"velocity":0.7637795275590551,"duration":0.140625},{"name":"D4","midi":62,"time":59.294270833333535,"velocity":0.7637795275590551,"duration":0.140625},{"name":"C3","midi":48,"time":59.43619791666687,"velocity":0.7637795275590551,"duration":0.140625},{"name":"D#4","midi":63,"time":59.43619791666687,"velocity":0.7637795275590551,"duration":1.13411458333335},{"name":"A#2","midi":46,"time":59.578125000000206,"velocity":0.7637795275590551,"duration":0.140625},{"name":"C3","midi":48,"time":59.72005208333354,"velocity":0.7637795275590551,"duration":0.140625},{"name":"A4","midi":69,"time":59.72005208333354,"velocity":0.7637795275590551,"duration":0.2825520833333357},{"name":"D3","midi":50,"time":59.86197916666688,"velocity":0.7637795275590551,"duration":0.140625},{"name":"D#3","midi":51,"time":60.00390625000021,"velocity":0.7637795275590551,"duration":0.140625},{"name":"G4","midi":67,"time":60.00390625000021,"velocity":0.7637795275590551,"duration":0.2825520833333357},{"name":"C3","midi":48,"time":60.14583333333355,"velocity":0.7637795275590551,"duration":0.140625},{"name":"D3","midi":50,"time":60.287760416666885,"velocity":0.7637795275590551,"duration":0.140625},{"name":"F#4","midi":66,"time":60.287760416666885,"velocity":0.7637795275590551,"duration":0.8502604166666785},{"name":"D#3","midi":51,"time":60.42968750000022,"velocity":0.7637795275590551,"duration":0.140625},{"name":"D3","midi":50,"time":60.571614583333556,"velocity":0.7637795275590551,"duration":0.140625},{"name":"A3","midi":57,"time":60.571614583333556,"velocity":0.7637795275590551,"duration":0.2825520833333357},{"name":"C3","midi":48,"time":60.71354166666689,"velocity":0.7637795275590551,"duration":0.140625},{"name":"A#2","midi":46,"time":60.85546875000023,"velocity":0.7637795275590551,"duration":0.140625},{"name":"C4","midi":60,"time":60.85546875000023,"velocity":0.7637795275590551,"duration":0.2825520833333357},{"name":"A2","midi":45,"time":60.99739583333356,"velocity":0.7637795275590551,"duration":0.140625},{"name":"G2","midi":43,"time":61.1393229166669,"velocity":0.7637795275590551,"duration":1.128906250000007},{"name":"A#3","midi":58,"time":61.1393229166669,"velocity":0.7637795275590551,"duration":0.5598958333333357},{"name":"G4","midi":67,"time":61.1393229166669,"velocity":0.7637795275590551,"duration":0.28125},{"name":"D4","midi":62,"time":61.421875000000234,"velocity":0.7637795275590551,"duration":0.28125},{"name":"A#4","midi":70,"time":61.70442708333357,"velocity":0.7637795275590551,"duration":0.28125},{"name":"A#4","midi":70,"time":61.986979166666906,"velocity":0.7637795275590551,"duration":0.28125},{"name":"G4","midi":67,"time":62.26953125000024,"velocity":0.7637795275590551,"duration":0.28125},{"name":"C#5","midi":73,"time":62.55208333333358,"velocity":0.7637795275590551,"duration":0.28125},{"name":"C#5","midi":73,"time":62.83463541666691,"velocity":0.7637795275590551,"duration":1.9843749999999858},{"name":"A#3","midi":58,"time":63.11718750000025,"velocity":0.7637795275590551,"duration":0.140625},{"name":"G#3","midi":56,"time":63.259114583333584,"velocity":0.7637795275590551,"duration":0.140625},{"name":"G3","midi":55,"time":63.40104166666692,"velocity":0.7637795275590551,"duration":0.140625},{"name":"A#4","midi":70,"time":63.40104166666692,"velocity":0.7637795275590551,"duration":0.2825520833333357},{"name":"F3","midi":53,"time":63.542968750000256,"velocity":0.7637795275590551,"duration":0.140625},{"name":"E3","midi":52,"time":63.68489583333359,"velocity":0.7637795275590551,"duration":0.140625},{"name":"G4","midi":67,"time":63.68489583333359,"velocity":0.7637795275590551,"duration":0.5664062499999929},{"name":"F3","midi":53,"time":63.82682291666693,"velocity":0.7637795275590551,"duration":0.140625},{"name":"E3","midi":52,"time":63.96875000000026,"velocity":0.7637795275590551,"duration":0.1406249999999929},{"name":"D3","midi":50,"time":64.11067708333358,"velocity":0.7637795275590551,"duration":0.140625},{"name":"C3","midi":48,"time":64.25260416666691,"velocity":0.7637795275590551,"duration":0.140625},{"name":"A#4","midi":70,"time":64.25260416666691,"velocity":0.7637795275590551,"duration":0.2825520833333286},{"name":"A#2","midi":46,"time":64.39453125000024,"velocity":0.7637795275590551,"duration":0.140625},{"name":"G#2","midi":44,"time":64.53645833333357,"velocity":0.7637795275590551,"duration":0.140625},{"name":"E4","midi":64,"time":64.53645833333357,"velocity":0.7637795275590551,"duration":0.5611979166666572},{"name":"F3","midi":53,"time":64.6783854166669,"velocity":0.7637795275590551,"duration":0.140625},{"name":"E3","midi":52,"time":64.82031250000023,"velocity":0.7637795275590551,"duration":0.140625},{"name":"A#4","midi":70,"time":64.82031250000023,"velocity":0.7637795275590551,"duration":0.28125},{"name":"D3","midi":50,"time":64.96223958333356,"velocity":0.7637795275590551,"duration":0.1393229166666714},{"name":"C3","midi":48,"time":65.10286458333356,"velocity":0.7637795275590551,"duration":0.140625},{"name":"E5","midi":76,"time":65.10286458333356,"velocity":0.7637795275590551,"duration":0.2825520833333286},{"name":"A#2","midi":46,"time":65.24479166666688,"velocity":0.7637795275590551,"duration":0.140625},{"name":"G#2","midi":44,"time":65.38671875000021,"velocity":0.7637795275590551,"duration":0.140625},{"name":"E5","midi":76,"time":65.38671875000021,"velocity":0.7637795275590551,"duration":0.2825520833333286},{"name":"A#2","midi":46,"time":65.52864583333354,"velocity":0.7637795275590551,"duration":0.140625},{"name":"G#2","midi":44,"time":65.67057291666687,"velocity":0.7637795275590551,"duration":0.140625},{"name":"C5","midi":72,"time":65.67057291666687,"velocity":0.7637795275590551,"duration":0.2825520833333286},{"name":"G2","midi":43,"time":65.8125000000002,"velocity":0.7637795275590551,"duration":0.140625},{"name":"F2","midi":41,"time":65.95442708333353,"velocity":0.7637795275590551,"duration":0.140625},{"name":"G5","midi":79,"time":65.95442708333353,"velocity":0.7637795275590551,"duration":0.2825520833333286},{"name":"E2","midi":40,"time":66.09635416666686,"velocity":0.7637795275590551,"duration":0.140625},{"name":"F2","midi":41,"time":66.23828125000018,"velocity":0.7637795275590551,"duration":0.709635416666643},{"name":"G#5","midi":80,"time":66.23828125000018,"velocity":0.7637795275590551,"duration":2.691406249999929},{"name":"F5","midi":77,"time":66.38020833333351,"velocity":0.7637795275590551,"duration":0.140625},{"name":"D#5","midi":75,"time":66.52213541666684,"velocity":0.7637795275590551,"duration":0.140625},{"name":"C#5","midi":73,"time":66.66406250000017,"velocity":0.7637795275590551,"duration":0.140625},{"name":"C5","midi":72,"time":66.8059895833335,"velocity":0.7637795275590551,"duration":0.140625},{"name":"A#4","midi":70,"time":66.94791666666683,"velocity":0.7637795275590551,"duration":0.140625},{"name":"G#4","midi":68,"time":67.08984375000016,"velocity":0.7637795275590551,"duration":0.140625},{"name":"A#4","midi":70,"time":67.23177083333348,"velocity":0.7637795275590551,"duration":0.140625},{"name":"G#4","midi":68,"time":67.37369791666681,"velocity":0.7637795275590551,"duration":0.140625},{"name":"G4","midi":67,"time":67.51562500000014,"velocity":0.7637795275590551,"duration":0.140625},{"name":"F4","midi":65,"time":67.65755208333347,"velocity":0.7637795275590551,"duration":0.140625},{"name":"D#4","midi":63,"time":67.7994791666668,"velocity":0.7637795275590551,"duration":0.140625},{"name":"D4","midi":62,"time":67.94140625000013,"velocity":0.7637795275590551,"duration":0.28125},{"name":"A#3","midi":58,"time":68.22395833333346,"velocity":0.7637795275590551,"duration":0.28125},{"name":"F4","midi":65,"time":68.50651041666679,"velocity":0.7637795275590551,"duration":0.28125},{"name":"F4","midi":65,"time":68.78906250000011,"velocity":0.7637795275590551,"duration":0.2825520833333286},{"name":"A#5","midi":82,"time":68.93098958333344,"velocity":0.7637795275590551,"duration":0.140625},{"name":"D4","midi":62,"time":69.07291666666677,"velocity":0.7637795275590551,"duration":0.2825520833333286},{"name":"G#5","midi":80,"time":69.07291666666677,"velocity":0.7637795275590551,"duration":0.140625},{"name":"G5","midi":79,"time":69.2148437500001,"velocity":0.7637795275590551,"duration":0.140625},{"name":"G#4","midi":68,"time":69.35677083333343,"velocity":0.7637795275590551,"duration":0.2825520833333286},{"name":"F5","midi":77,"time":69.35677083333343,"velocity":0.7637795275590551,"duration":0.140625},{"name":"D#5","midi":75,"time":69.49869791666676,"velocity":0.7637795275590551,"duration":0.140625},{"name":"G#4","midi":68,"time":69.64062500000009,"velocity":0.7637795275590551,"duration":1.9856770833332718},{"name":"D5","midi":74,"time":69.64062500000009,"velocity":0.7637795275590551,"duration":0.140625},{"name":"D#5","midi":75,"time":69.78255208333341,"velocity":0.7637795275590551,"duration":0.140625},{"name":"D5","midi":74,"time":69.92447916666674,"velocity":0.7637795275590551,"duration":0.140625},{"name":"C5","midi":72,"time":70.06640625000007,"velocity":0.7637795275590551,"duration":0.140625},{"name":"G4","midi":67,"time":70.2083333333334,"velocity":0.7637795275590551,"duration":0.2825520833333286},{"name":"A#4","midi":70,"time":70.2083333333334,"velocity":0.7637795275590551,"duration":0.140625},{"name":"C5","midi":72,"time":70.35026041666673,"velocity":0.7637795275590551,"duration":0.140625},{"name":"F4","midi":65,"time":70.49218750000006,"velocity":0.7637795275590551,"duration":0.5664062499999858},{"name":"D5","midi":74,"time":70.49218750000006,"velocity":0.7637795275590551,"duration":0.140625},{"name":"D#5","midi":75,"time":70.63411458333339,"velocity":0.7637795275590551,"duration":0.140625},{"name":"F5","midi":77,"time":70.77604166666671,"velocity":0.7637795275590551,"duration":0.140625},{"name":"G5","midi":79,"time":70.91796875000004,"velocity":0.7637795275590551,"duration":0.140625},{"name":"D#4","midi":63,"time":71.05989583333337,"velocity":0.7637795275590551,"duration":0.2825520833333286},{"name":"G#5","midi":80,"time":71.05989583333337,"velocity":0.7637795275590551,"duration":0.140625},{"name":"A#5","midi":82,"time":71.2018229166667,"velocity":0.7637795275590551,"duration":0.140625},{"name":"D4","midi":62,"time":71.34375000000003,"velocity":0.7637795275590551,"duration":0.5664062499999858},{"name":"C6","midi":84,"time":71.34375000000003,"velocity":0.7637795275590551,"duration":0.140625},{"name":"A#5","midi":82,"time":71.48567708333336,"velocity":0.7637795275590551,"duration":0.140625},{"name":"F4","midi":65,"time":71.62760416666669,"velocity":0.7637795275590551,"duration":0.2825520833333286},{"name":"G#5","midi":80,"time":71.62760416666669,"velocity":0.7637795275590551,"duration":0.140625},{"name":"G5","midi":79,"time":71.76953125000001,"velocity":0.7637795275590551,"duration":0.140625},{"name":"G#4","midi":68,"time":71.91145833333334,"velocity":0.7637795275590551,"duration":0.2825520833333286},{"name":"D5","midi":74,"time":71.91145833333334,"velocity":0.7637795275590551,"duration":0.2825520833333286},{"name":"F5","midi":77,"time":71.91145833333334,"velocity":0.7637795275590551,"duration":0.140625},{"name":"D#5","midi":75,"time":72.05338541666667,"velocity":0.7637795275590551,"duration":0.140625},{"name":"G4","midi":67,"time":72.1953125,"velocity":0.7637795275590551,"duration":0.5664062499999858},{"name":"D5","midi":74,"time":72.1953125,"velocity":0.7637795275590551,"duration":0.2825520833333286},{"name":"F5","midi":77,"time":72.1953125,"velocity":0.7637795275590551,"duration":0.140625},{"name":"G5","midi":79,"time":72.33723958333333,"velocity":0.7637795275590551,"duration":0.140625},{"name":"A#4","midi":70,"time":72.47916666666666,"velocity":0.7637795275590551,"duration":0.2825520833333286},{"name":"G#5","midi":80,"time":72.47916666666666,"velocity":0.7637795275590551,"duration":0.140625},{"name":"C6","midi":84,"time":72.62109374999999,"velocity":0.7637795275590551,"duration":0.140625},{"name":"F4","midi":65,"time":72.76302083333331,"velocity":0.7637795275590551,"duration":0.2825520833333286},{"name":"D5","midi":74,"time":72.76302083333331,"velocity":0.7637795275590551,"duration":0.2825520833333286},{"name":"A#5","midi":82,"time":72.76302083333331,"velocity":0.7637795275590551,"duration":0.140625},{"name":"G#5","midi":80,"time":72.90494791666664,"velocity":0.7637795275590551,"duration":0.140625},{"name":"D#4","midi":63,"time":73.04687499999997,"velocity":0.7637795275590551,"duration":0.140625},{"name":"D#5","midi":75,"time":73.04687499999997,"velocity":0.7637795275590551,"duration":1.9843749999999432},{"name":"G5","midi":79,"time":73.04687499999997,"velocity":0.7637795275590551,"duration":2.2669270833332718},{"name":"G3","midi":55,"time":73.1888020833333,"velocity":0.7637795275590551,"duration":0.140625},{"name":"G#3","midi":56,"time":73.33072916666663,"velocity":0.7637795275590551,"duration":0.140625},{"name":"A#3","midi":58,"time":73.47265624999996,"velocity":0.7637795275590551,"duration":0.140625},{"name":"C4","midi":60,"time":73.61458333333329,"velocity":0.7637795275590551,"duration":0.140625},{"name":"D4","midi":62,"time":73.75651041666661,"velocity":0.7637795275590551,"duration":0.140625},{"name":"D#4","midi":63,"time":73.89843749999994,"velocity":0.7637795275590551,"duration":0.140625},{"name":"F4","midi":65,"time":74.04036458333327,"velocity":0.7637795275590551,"duration":0.140625},{"name":"D#4","midi":63,"time":74.1822916666666,"velocity":0.7637795275590551,"duration":0.140625},{"name":"D4","midi":62,"time":74.32421874999993,"velocity":0.7637795275590551,"duration":0.140625},{"name":"C4","midi":60,"time":74.46614583333326,"velocity":0.7637795275590551,"duration":0.140625},{"name":"A#3","midi":58,"time":74.60807291666659,"velocity":0.7637795275590551,"duration":0.140625},{"name":"G#3","midi":56,"time":74.74999999999991,"velocity":0.7637795275590551,"duration":1.8359374999999716},{"name":"C5","midi":72,"time":75.03255208333324,"velocity":0.7637795275590551,"duration":1.1289062499999858},{"name":"G5","midi":79,"time":75.31510416666657,"velocity":0.7637795275590551,"duration":0.28125},{"name":"G5","midi":79,"time":75.5976562499999,"velocity":0.7637795275590551,"duration":0.28125},{"name":"D#5","midi":75,"time":75.88020833333323,"velocity":0.7637795275590551,"duration":0.28125},{"name":"D#5","midi":75,"time":76.16276041666656,"velocity":0.7637795275590551,"duration":0.28125},{"name":"C6","midi":84,"time":76.16276041666656,"velocity":0.7637795275590551,"duration":0.28125},{"name":"D5","midi":74,"time":76.44531249999989,"velocity":0.7637795275590551,"duration":1.9843749999999432},{"name":"F5","midi":77,"time":76.44531249999989,"velocity":0.7637795275590551,"duration":2.2669270833332718},{"name":"F3","midi":53,"time":76.58723958333321,"velocity":0.7637795275590551,"duration":0.140625},{"name":"G3","midi":55,"time":76.72916666666654,"velocity":0.7637795275590551,"duration":0.140625},{"name":"A3","midi":57,"time":76.87109374999987,"velocity":0.7637795275590551,"duration":0.140625},{"name":"B3","midi":59,"time":77.0130208333332,"velocity":0.7637795275590551,"duration":0.140625},{"name":"C4","midi":60,"time":77.15494791666653,"velocity":0.7637795275590551,"duration":0.140625},{"name":"D4","midi":62,"time":77.29687499999986,"velocity":0.7637795275590551,"duration":0.140625},{"name":"D#4","midi":63,"time":77.43880208333319,"velocity":0.7637795275590551,"duration":0.140625},{"name":"D4","midi":62,"time":77.58072916666652,"velocity":0.7637795275590551,"duration":0.140625},{"name":"C4","midi":60,"time":77.72265624999984,"velocity":0.7637795275590551,"duration":0.140625},{"name":"B3","midi":59,"time":77.86458333333317,"velocity":0.7637795275590551,"duration":0.140625},{"name":"A3","midi":57,"time":78.0065104166665,"velocity":0.7637795275590551,"duration":0.140625},{"name":"G3","midi":55,"time":78.14843749999983,"velocity":0.7637795275590551,"duration":1.8359374999999716},{"name":"B4","midi":71,"time":78.43098958333316,"velocity":0.7637795275590551,"duration":1.1289062499999858},{"name":"F5","midi":77,"time":78.71354166666649,"velocity":0.7637795275590551,"duration":0.28125},{"name":"F5","midi":77,"time":78.99609374999982,"velocity":0.7637795275590551,"duration":0.28125},{"name":"D5","midi":74,"time":79.27864583333314,"velocity":0.7637795275590551,"duration":0.28125},{"name":"D5","midi":74,"time":79.56119791666647,"velocity":0.7637795275590551,"duration":0.28125},{"name":"B5","midi":83,"time":79.56119791666647,"velocity":0.7637795275590551,"duration":0.28125},{"name":"C5","midi":72,"time":79.8437499999998,"velocity":0.7637795275590551,"duration":2.2604166666666003},{"name":"D#5","midi":75,"time":79.8437499999998,"velocity":0.7637795275590551,"duration":1.9843749999999432},{"name":"D#3","midi":51,"time":79.98567708333313,"velocity":0.7637795275590551,"duration":0.140625},{"name":"F3","midi":53,"time":80.12760416666646,"velocity":0.7637795275590551,"duration":0.140625},{"name":"G3","midi":55,"time":80.26953124999979,"velocity":0.7637795275590551,"duration":0.140625},{"name":"A3","midi":57,"time":80.41145833333312,"velocity":0.7637795275590551,"duration":0.140625},{"name":"B3","midi":59,"time":80.55338541666644,"velocity":0.7637795275590551,"duration":0.140625},{"name":"C4","midi":60,"time":80.69531249999977,"velocity":0.7637795275590551,"duration":0.140625},{"name":"D4","midi":62,"time":80.8372395833331,"velocity":0.7637795275590551,"duration":0.140625},{"name":"C4","midi":60,"time":80.97916666666643,"velocity":0.7637795275590551,"duration":0.140625},{"name":"A#3","midi":58,"time":81.12109374999976,"velocity":0.7637795275590551,"duration":0.140625},{"name":"G#3","midi":56,"time":81.26302083333309,"velocity":0.7637795275590551,"duration":0.140625},{"name":"G3","midi":55,"time":81.40494791666642,"velocity":0.7637795275590551,"duration":0.140625},{"name":"F3","midi":53,"time":81.54687499999974,"velocity":0.7637795275590551,"duration":2.550781249999929},{"name":"G#5","midi":80,"time":81.82942708333307,"velocity":0.7637795275590551,"duration":0.140625},{"name":"G5","midi":79,"time":81.9713541666664,"velocity":0.7637795275590551,"duration":0.140625},{"name":"F5","midi":77,"time":82.11328124999973,"velocity":0.7637795275590551,"duration":0.140625},{"name":"D#5","midi":75,"time":82.25520833333306,"velocity":0.7637795275590551,"duration":0.140625},{"name":"D5","midi":74,"time":82.39713541666639,"velocity":0.7637795275590551,"duration":0.1692708333333286},{"name":"D#5","midi":75,"time":82.53906249999972,"velocity":0.7637795275590551,"duration":0.140625},{"name":"D5","midi":74,"time":82.68098958333304,"velocity":0.7637795275590551,"duration":0.140625},{"name":"C5","midi":72,"time":82.82291666666637,"velocity":0.7637795275590551,"duration":0.140625},{"name":"B4","midi":71,"time":82.9648437499997,"velocity":0.7637795275590551,"duration":0.140625},{"name":"A4","midi":69,"time":83.10677083333303,"velocity":0.7637795275590551,"duration":0.140625},{"name":"B4","midi":71,"time":83.24869791666636,"velocity":0.7637795275590551,"duration":0.8489583333333144},{"name":"G4","midi":67,"time":83.53124999999969,"velocity":0.7637795275590551,"duration":0.140625},{"name":"F4","midi":65,"time":83.67317708333302,"velocity":0.7637795275590551,"duration":0.140625},{"name":"D#4","midi":63,"time":83.81510416666634,"velocity":0.7637795275590551,"duration":0.140625},{"name":"D4","midi":62,"time":83.95703124999967,"velocity":0.7637795275590551,"duration":0.140625},{"name":"D#3","midi":51,"time":84.098958333333,"velocity":0.7637795275590551,"duration":0.9921874999999716},{"name":"C4","midi":60,"time":84.098958333333,"velocity":0.7637795275590551,"duration":0.140625},{"name":"C5","midi":72,"time":84.098958333333,"velocity":0.7637795275590551,"duration":0.850260416666643},{"name":"D4","midi":62,"time":84.24088541666633,"velocity":0.7637795275590551,"duration":0.140625},{"name":"C4","midi":60,"time":84.38281249999966,"velocity":0.7637795275590551,"duration":0.140625},{"name":"A#3","midi":58,"time":84.52473958333299,"velocity":0.7637795275590551,"duration":0.140625},{"name":"G#3","midi":56,"time":84.66666666666632,"velocity":0.7637795275590551,"duration":0.140625},{"name":"G3","midi":55,"time":84.80859374999964,"velocity":0.7637795275590551,"duration":0.140625},{"name":"G#3","midi":56,"time":84.95052083333297,"velocity":0.7637795275590551,"duration":0.5664062499999858},{"name":"F5","midi":77,"time":84.95052083333297,"velocity":0.7637795275590551,"duration":2.266927083333286},{"name":"G3","midi":55,"time":85.0924479166663,"velocity":0.7637795275590551,"duration":0.140625},{"name":"F3","midi":53,"time":85.23437499999963,"velocity":0.7637795275590551,"duration":0.140625},{"name":"D#3","midi":51,"time":85.37630208333296,"velocity":0.7637795275590551,"duration":0.140625},{"name":"D3","midi":50,"time":85.51822916666629,"velocity":0.7637795275590551,"duration":0.140625},{"name":"G#4","midi":68,"time":85.51822916666629,"velocity":0.7637795275590551,"duration":0.5664062499999858},{"name":"C3","midi":48,"time":85.66015624999962,"velocity":0.7637795275590551,"duration":0.140625},{"name":"B2","midi":47,"time":85.80208333333294,"velocity":0.7637795275590551,"duration":0.140625},{"name":"C3","midi":48,"time":85.94401041666627,"velocity":0.7637795275590551,"duration":0.140625},{"name":"B2","midi":47,"time":86.0859374999996,"velocity":0.7637795275590551,"duration":0.140625},{"name":"F4","midi":65,"time":86.0859374999996,"velocity":0.7637795275590551,"duration":0.2825520833333286},{"name":"A2","midi":45,"time":86.22786458333293,"velocity":0.7637795275590551,"duration":0.140625},{"name":"G2","midi":43,"time":86.36979166666626,"velocity":0.7637795275590551,"duration":0.140625},{"name":"B4","midi":71,"time":86.36979166666626,"velocity":0.7637795275590551,"duration":0.5208333333333286},{"name":"F2","midi":41,"time":86.51171874999959,"velocity":0.7637795275590551,"duration":0.140625},{"name":"D#2","midi":39,"time":86.65364583333292,"velocity":0.7637795275590551,"duration":0.8463541666666714},{"name":"G4","midi":67,"time":86.93619791666626,"velocity":0.7637795275590551,"duration":0.28125},{"name":"C5","midi":72,"time":87.21874999999959,"velocity":0.7637795275590551,"duration":0.28125},{"name":"D#5","midi":75,"time":87.21874999999959,"velocity":0.7637795275590551,"duration":0.5638020833333286},{"name":"F2","midi":41,"time":87.50130208333292,"velocity":0.7637795275590551,"duration":0.8463541666666572},{"name":"G#4","midi":68,"time":87.50130208333292,"velocity":0.7637795275590551,"duration":1.1289062499999858},{"name":"D5","midi":74,"time":87.78385416666625,"velocity":0.7637795275590551,"duration":0.28125},{"name":"F5","midi":77,"time":88.06640624999957,"velocity":0.7637795275590551,"duration":0.28125},{"name":"G2","midi":43,"time":88.3489583333329,"velocity":0.7637795275590551,"duration":0.8463541666666572},{"name":"B4","midi":71,"time":88.3489583333329,"velocity":0.7637795275590551,"duration":0.8463541666666572},{"name":"G4","midi":67,"time":88.63151041666623,"velocity":0.7637795275590551,"duration":0.28125},{"name":"F4","midi":65,"time":88.91406249999956,"velocity":0.7637795275590551,"duration":0.28125},{"name":"A2","midi":45,"time":89.19661458333289,"velocity":0.7637795275590551,"duration":0.8463541666666572},{"name":"D#4","midi":63,"time":89.19661458333289,"velocity":0.7637795275590551,"duration":0.28125},{"name":"C5","midi":72,"time":89.19661458333289,"velocity":0.7637795275590551,"duration":0.8463541666666572},{"name":"D4","midi":62,"time":89.47916666666622,"velocity":0.7637795275590551,"duration":0.28125},{"name":"C4","midi":60,"time":89.76171874999955,"velocity":0.7637795275590551,"duration":0.28125},{"name":"B2","midi":47,"time":90.04427083333287,"velocity":0.7637795275590551,"duration":0.28125},{"name":"F4","midi":65,"time":90.04427083333287,"velocity":0.7637795275590551,"duration":0.5638020833333286},{"name":"D5","midi":74,"time":90.04427083333287,"velocity":0.7637795275590551,"duration":0.5638020833333286},{"name":"G2","midi":43,"time":90.3268229166662,"velocity":0.7637795275590551,"duration":0.28125},{"name":"C3","midi":48,"time":90.60937499999953,"velocity":0.7637795275590551,"duration":0.28125},{"name":"D#4","midi":63,"time":90.60937499999953,"velocity":0.7637795275590551,"duration":0.28125},{"name":"C5","midi":72,"time":90.60937499999953,"velocity":0.7637795275590551,"duration":0.8463541666666572},{"name":"G#2","midi":44,"time":90.89192708333286,"velocity":0.7637795275590551,"duration":0.28125},{"name":"D4","midi":62,"time":90.89192708333286,"velocity":0.7637795275590551,"duration":0.8463541666666572},{"name":"F2","midi":41,"time":91.17447916666619,"velocity":0.7637795275590551,"duration":0.28125},{"name":"G2","midi":43,"time":91.45703124999952,"velocity":0.7637795275590551,"duration":0.28125},{"name":"B4","midi":71,"time":91.45703124999952,"velocity":0.7637795275590551,"duration":0.28125},{"name":"C3","midi":48,"time":91.73958333333285,"velocity":0.7637795275590551,"duration":0.28125},{"name":"D#4","midi":63,"time":91.73958333333285,"velocity":0.7637795275590551,"duration":0.5598958333333286},{"name":"C5","midi":72,"time":91.73958333333285,"velocity":0.7637795275590551,"duration":0.5638020833333286},{"name":"G2","midi":43,"time":92.02213541666617,"velocity":0.7637795275590551,"duration":0.28125},{"name":"D#3","midi":51,"time":92.3046874999995,"velocity":0.7637795275590551,"duration":0.28125},{"name":"G5","midi":79,"time":92.3046874999995,"velocity":0.7637795275590551,"duration":0.28125},{"name":"D#3","midi":51,"time":92.58723958333283,"velocity":0.7637795275590551,"duration":0.28125},{"name":"C5","midi":72,"time":92.58723958333283,"velocity":0.7637795275590551,"duration":0.5638020833333286},{"name":"C3","midi":48,"time":92.86979166666616,"velocity":0.7637795275590551,"duration":0.28125},{"name":"G3","midi":55,"time":93.15234374999949,"velocity":0.7637795275590551,"duration":0.28125},{"name":"D#5","midi":75,"time":93.15234374999949,"velocity":0.7637795275590551,"duration":0.28125},{"name":"F3","midi":53,"time":93.43489583333282,"velocity":0.7637795275590551,"duration":0.2825520833333286},{"name":"G#4","midi":68,"time":93.43489583333282,"velocity":0.7637795275590551,"duration":0.709635416666643},{"name":"C4","midi":60,"time":93.57682291666615,"velocity":0.7637795275590551,"duration":0.140625},{"name":"C3","midi":48,"time":93.71874999999947,"velocity":0.7637795275590551,"duration":0.2825520833333286},{"name":"D4","midi":62,"time":93.71874999999947,"velocity":0.7637795275590551,"duration":0.140625},{"name":"D#4","midi":63,"time":93.8606770833328,"velocity":0.7637795275590551,"duration":0.140625},{"name":"G#3","midi":56,"time":94.00260416666613,"velocity":0.7637795275590551,"duration":0.2825520833333286},{"name":"F4","midi":65,"time":94.00260416666613,"velocity":0.7637795275590551,"duration":0.140625},{"name":"G4","midi":67,"time":94.14453124999946,"velocity":0.7637795275590551,"duration":0.140625},{"name":"G#3","midi":56,"time":94.28645833333279,"velocity":0.7637795275590551,"duration":0.2825520833333286},{"name":"G#4","midi":68,"time":94.28645833333279,"velocity":0.7637795275590551,"duration":0.140625},{"name":"A#4","midi":70,"time":94.42838541666612,"velocity":0.7637795275590551,"duration":0.140625},{"name":"F3","midi":53,"time":94.57031249999945,"velocity":0.7637795275590551,"duration":0.2825520833333286},{"name":"G#4","midi":68,"time":94.57031249999945,"velocity":0.7637795275590551,"duration":0.140625},{"name":"G4","midi":67,"time":94.71223958333277,"velocity":0.7637795275590551,"duration":0.140625},{"name":"C4","midi":60,"time":94.8541666666661,"velocity":0.7637795275590551,"duration":0.2825520833333286},{"name":"F4","midi":65,"time":94.8541666666661,"velocity":0.7637795275590551,"duration":0.140625},{"name":"D#4","midi":63,"time":94.99609374999943,"velocity":0.7637795275590551,"duration":0.140625},{"name":"A#3","midi":58,"time":95.13802083333276,"velocity":0.7637795275590551,"duration":0.8463541666666572},{"name":"D4","midi":62,"time":95.13802083333276,"velocity":0.7637795275590551,"duration":0.28125},{"name":"F3","midi":53,"time":95.42057291666609,"velocity":0.7637795275590551,"duration":0.28125},{"name":"D4","midi":62,"time":95.70312499999942,"velocity":0.7637795275590551,"duration":0.28125},{"name":"F5","midi":77,"time":95.70312499999942,"velocity":0.7637795275590551,"duration":0.28125},{"name":"D4","midi":62,"time":95.98567708333275,"velocity":0.7637795275590551,"duration":0.28125},{"name":"A#4","midi":70,"time":95.98567708333275,"velocity":0.7637795275590551,"duration":0.5638020833333286},{"name":"A#3","midi":58,"time":96.26822916666607,"velocity":0.7637795275590551,"duration":0.28125},{"name":"F4","midi":65,"time":96.5507812499994,"velocity":0.7637795275590551,"duration":0.28125},{"name":"D5","midi":74,"time":96.5507812499994,"velocity":0.7637795275590551,"duration":0.28125},{"name":"D#4","midi":63,"time":96.83333333333273,"velocity":0.7637795275590551,"duration":0.2825520833333286},{"name":"G4","midi":67,"time":96.83333333333273,"velocity":0.7637795275590551,"duration":0.140625},{"name":"A#4","midi":70,"time":96.97526041666606,"velocity":0.7637795275590551,"duration":0.140625},{"name":"A#3","midi":58,"time":97.11718749999939,"velocity":0.7637795275590551,"duration":0.2825520833333286},{"name":"C5","midi":72,"time":97.11718749999939,"velocity":0.7637795275590551,"duration":0.140625},{"name":"D5","midi":74,"time":97.25911458333272,"velocity":0.7637795275590551,"duration":0.140625},{"name":"G4","midi":67,"time":97.40104166666605,"velocity":0.7637795275590551,"duration":0.2825520833333286},{"name":"D#5","midi":75,"time":97.40104166666605,"velocity":0.7637795275590551,"duration":0.140625},{"name":"F5","midi":77,"time":97.54296874999937,"velocity":0.7637795275590551,"duration":0.140625},{"name":"G4","midi":67,"time":97.6848958333327,"velocity":0.7637795275590551,"duration":0.2825520833333286},{"name":"G5","midi":79,"time":97.6848958333327,"velocity":0.7637795275590551,"duration":0.140625},{"name":"G#5","midi":80,"time":97.82682291666603,"velocity":0.7637795275590551,"duration":0.140625},{"name":"D#4","midi":63,"time":97.96874999999936,"velocity":0.7637795275590551,"duration":0.2825520833333286},{"name":"G5","midi":79,"time":97.96874999999936,"velocity":0.7637795275590551,"duration":0.140625},{"name":"F5","midi":77,"time":98.11067708333269,"velocity":0.7637795275590551,"duration":0.140625},{"name":"A#4","midi":70,"time":98.25260416666602,"velocity":0.7637795275590551,"duration":0.2825520833333286},{"name":"D#5","midi":75,"time":98.25260416666602,"velocity":0.7637795275590551,"duration":0.140625},{"name":"D5","midi":74,"time":98.39453124999935,"velocity":0.7637795275590551,"duration":0.140625},{"name":"F3","midi":53,"time":98.53645833333267,"velocity":0.7637795275590551,"duration":0.2799479166666714},{"name":"G#4","midi":68,"time":98.53645833333267,"velocity":0.7637795275590551,"duration":1.4049479166666714},{"name":"D5","midi":74,"time":98.53645833333267,"velocity":0.7637795275590551,"duration":0.0924479166666714},{"name":"C5","midi":72,"time":98.63020833333267,"velocity":0.7637795275590551,"duration":0.0924479166666714},{"name":"D5","midi":74,"time":98.72395833333267,"velocity":0.7637795275590551,"duration":0.0924479166666714},{"name":"C3","midi":48,"time":98.81770833333267,"velocity":0.7637795275590551,"duration":0.2799479166666714},{"name":"C5","midi":72,"time":98.81770833333267,"velocity":0.7637795275590551,"duration":0.0924479166666714},{"name":"D5","midi":74,"time":98.91145833333267,"velocity":0.7637795275590551,"duration":0.0924479166666714},{"name":"C5","midi":72,"time":99.00520833333267,"velocity":0.7637795275590551,"duration":0.0924479166666714},{"name":"G#3","midi":56,"time":99.09895833333267,"velocity":0.7637795275590551,"duration":0.2799479166666714},{"name":"D5","midi":74,"time":99.09895833333267,"velocity":0.7637795275590551,"duration":0.0924479166666714},{"name":"C5","midi":72,"time":99.19270833333267,"velocity":0.7637795275590551,"duration":0.0924479166666714},{"name":"D5","midi":74,"time":99.28645833333267,"velocity":0.7637795275590551,"duration":0.0924479166666714},{"name":"G#3","midi":56,"time":99.38020833333267,"velocity":0.7637795275590551,"duration":0.2799479166666714},{"name":"C5","midi":72,"time":99.38020833333267,"velocity":0.7637795275590551,"duration":0.0924479166666714},{"name":"D5","midi":74,"time":99.47395833333267,"velocity":0.7637795275590551,"duration":0.0924479166666714},{"name":"C5","midi":72,"time":99.56770833333267,"velocity":0.7637795275590551,"duration":0.0924479166666714},{"name":"F3","midi":53,"time":99.66145833333267,"velocity":0.7637795275590551,"duration":0.2799479166666714},{"name":"D5","midi":74,"time":99.66145833333267,"velocity":0.7637795275590551,"duration":0.0924479166666714},{"name":"C5","midi":72,"time":99.75520833333267,"velocity":0.7637795275590551,"duration":0.0924479166666714},{"name":"D5","midi":74,"time":99.84895833333267,"velocity":0.7637795275590551,"duration":0.0924479166666714},{"name":"C4","midi":60,"time":99.94270833333267,"velocity":0.7637795275590551,"duration":0.2799479166666714},{"name":"G#4","midi":68,"time":99.94270833333267,"velocity":0.7637795275590551,"duration":0.2799479166666714},{"name":"C5","midi":72,"time":99.94270833333267,"velocity":0.7637795275590551,"duration":0.0924479166666714},{"name":"D5","midi":74,"time":100.03645833333267,"velocity":0.7637795275590551,"duration":0.0924479166666714},{"name":"C5","midi":72,"time":100.13020833333267,"velocity":0.7637795275590551,"duration":0.0924479166666714},{"name":"D#3","midi":51,"time":100.22395833333267,"velocity":0.7637795275590551,"duration":0.2799479166666714},{"name":"G4","midi":67,"time":100.22395833333267,"velocity":0.7637795275590551,"duration":1.4049479166666714},{"name":"D5","midi":74,"time":100.22395833333267,"velocity":0.7637795275590551,"duration":0.0924479166666714},{"name":"C5","midi":72,"time":100.31770833333267,"velocity":0.7637795275590551,"duration":0.0924479166666714},{"name":"D5","midi":74,"time":100.41145833333267,"velocity":0.7637795275590551,"duration":0.0924479166666714},{"name":"C3","midi":48,"time":100.50520833333267,"velocity":0.7637795275590551,"duration":0.2799479166666714},{"name":"C5","midi":72,"time":100.50520833333267,"velocity":0.7637795275590551,"duration":0.0924479166666714},{"name":"D5","midi":74,"time":100.59895833333267,"velocity":0.7637795275590551,"duration":0.0924479166666714},{"name":"C5","midi":72,"time":100.69270833333267,"velocity":0.7637795275590551,"duration":0.0924479166666714},{"name":"G3","midi":55,"time":100.78645833333267,"velocity":0.7637795275590551,"duration":0.2799479166666714},{"name":"D5","midi":74,"time":100.78645833333267,"velocity":0.7637795275590551,"duration":0.0924479166666714},{"name":"C5","midi":72,"time":100.88020833333267,"velocity":0.7637795275590551,"duration":0.0924479166666714},{"name":"D5","midi":74,"time":100.97395833333267,"velocity":0.7637795275590551,"duration":0.0924479166666714},{"name":"G3","midi":55,"time":101.06770833333267,"velocity":0.7637795275590551,"duration":0.2799479166666714},{"name":"C5","midi":72,"time":101.06770833333267,"velocity":0.7637795275590551,"duration":0.0924479166666714},{"name":"D5","midi":74,"time":101.16145833333267,"velocity":0.7637795275590551,"duration":0.0924479166666714},{"name":"C5","midi":72,"time":101.25520833333267,"velocity":0.7637795275590551,"duration":0.0924479166666714},{"name":"D#3","midi":51,"time":101.34895833333267,"velocity":0.7637795275590551,"duration":0.2799479166666714},{"name":"D5","midi":74,"time":101.34895833333267,"velocity":0.7637795275590551,"duration":0.0924479166666714},{"name":"C5","midi":72,"time":101.44270833333267,"velocity":0.7637795275590551,"duration":0.0924479166666714},{"name":"D5","midi":74,"time":101.53645833333267,"velocity":0.7637795275590551,"duration":0.0924479166666714},{"name":"C4","midi":60,"time":101.63020833333267,"velocity":0.7637795275590551,"duration":0.2799479166666714},{"name":"G#4","midi":68,"time":101.63020833333267,"velocity":0.7637795275590551,"duration":0.2799479166666714},{"name":"C5","midi":72,"time":101.63020833333267,"velocity":0.7637795275590551,"duration":0.0924479166666714},{"name":"D5","midi":74,"time":101.72395833333267,"velocity":0.7637795275590551,"duration":0.0924479166666714},{"name":"C5","midi":72,"time":101.81770833333267,"velocity":0.7637795275590551,"duration":0.9401041666666572},{"name":"D3","midi":50,"time":101.91145833333267,"velocity":0.7637795275590551,"duration":0.28125},{"name":"F4","midi":65,"time":101.91145833333267,"velocity":0.7637795275590551,"duration":1.838541666666643},{"name":"D#3","midi":51,"time":102.194010416666,"velocity":0.7637795275590551,"duration":0.28125},{"name":"F3","midi":53,"time":102.47656249999933,"velocity":0.7637795275590551,"duration":0.28125},{"name":"G3","midi":55,"time":102.77343749999933,"velocity":0.7637795275590551,"duration":0.28125},{"name":"B4","midi":71,"time":102.77343749999933,"velocity":0.7637795275590551,"duration":0.28125},{"name":"C5","midi":72,"time":103.06249999999933,"velocity":0.7637795275590551,"duration":0.28125},{"name":"A3","midi":57,"time":103.06249999999933,"velocity":0.7637795275590551,"duration":0.28125},{"name":"D5","midi":74,"time":103.34505208333266,"velocity":0.7637795275590551,"duration":0.28125},{"name":"B3","midi":59,"time":103.34505208333266,"velocity":0.7637795275590551,"duration":0.28125},{"name":"G4","midi":67,"time":103.62760416666599,"velocity":0.7637795275590551,"duration":1.65625},{"name":"D#3","midi":51,"time":103.62760416666599,"velocity":0.7637795275590551,"duration":1.8776041666666714},{"name":"G3","midi":55,"time":103.77213541666599,"velocity":0.7637795275590551,"duration":0.1432291666666714},{"name":"A3","midi":57,"time":103.91666666666599,"velocity":0.7637795275590551,"duration":0.1432291666666714},{"name":"B3","midi":59,"time":104.06119791666599,"velocity":0.7637795275590551,"duration":0.1432291666666714},{"name":"C4","midi":60,"time":104.20572916666599,"velocity":0.7637795275590551,"duration":0.1432291666666714},{"name":"D4","midi":62,"time":104.35026041666599,"velocity":0.7637795275590551,"duration":0.1432291666666714},{"name":"D#4","midi":63,"time":104.49479166666599,"velocity":0.7637795275590551,"duration":0.1432291666666714},{"name":"D4","midi":62,"time":104.63932291666599,"velocity":0.7637795275590551,"duration":0.1432291666666714},{"name":"C4","midi":60,"time":104.78385416666599,"velocity":0.7637795275590551,"duration":0.1432291666666714},{"name":"D4","midi":62,"time":104.92838541666599,"velocity":0.7637795275590551,"duration":0.1432291666666714},{"name":"D#4","midi":63,"time":105.07291666666599,"velocity":0.7637795275590551,"duration":0.1432291666666714},{"name":"F4","midi":65,"time":105.21744791666599,"velocity":0.7637795275590551,"duration":0.1432291666666714},{"name":"G4","midi":67,"time":105.36197916666599,"velocity":0.7637795275590551,"duration":1.3450520833333428},{"name":"B4","midi":71,"time":105.50651041666599,"velocity":0.7637795275590551,"duration":0.1432291666666714},{"name":"G3","midi":55,"time":105.50651041666599,"velocity":0.7637795275590551,"duration":0.1432291666666714},{"name":"C5","midi":72,"time":105.65104166666599,"velocity":0.7637795275590551,"duration":0.1432291666666714},{"name":"F3","midi":53,"time":105.65104166666599,"velocity":0.7637795275590551,"duration":0.1432291666666714},{"name":"D5","midi":74,"time":105.79557291666599,"velocity":0.7637795275590551,"duration":0.1432291666666714},{"name":"D#3","midi":51,"time":105.79557291666599,"velocity":0.7637795275590551,"duration":0.1432291666666714},{"name":"D#5","midi":75,"time":105.94010416666599,"velocity":0.7637795275590551,"duration":0.1432291666666714},{"name":"D3","midi":50,"time":105.94010416666599,"velocity":0.7637795275590551,"duration":0.1432291666666714},{"name":"F5","midi":77,"time":106.08463541666599,"velocity":0.7637795275590551,"duration":0.1432291666666714},{"name":"C3","midi":48,"time":106.08463541666599,"velocity":0.7637795275590551,"duration":0.1432291666666714},{"name":"G3","midi":55,"time":106.25520833333266,"velocity":0.7637795275590551,"duration":1.26171875},{"name":"G5","midi":79,"time":106.25520833333266,"velocity":0.7637795275590551,"duration":0.4765625},{"name":"D#4","midi":63,"time":106.72786458333266,"velocity":0.7637795275590551,"duration":0.4453125},{"name":"C5","midi":72,"time":106.72786458333266,"velocity":0.7637795275590551,"duration":0.4453125},{"name":"G2","midi":43,"time":107.20312499999933,"velocity":0.7637795275590551,"duration":0.4934895833333286},{"name":"D4","midi":62,"time":107.20312499999933,"velocity":0.7637795275590551,"duration":0.4934895833333286},{"name":"B4","midi":71,"time":107.20312499999933,"velocity":0.7637795275590551,"duration":0.4934895833333286},{"name":"C5","midi":72,"time":107.83463541666599,"velocity":0.7637795275590551,"duration":2.6315104166666714},{"name":"E4","midi":64,"time":107.83463541666599,"velocity":0.7637795275590551,"duration":2.6315104166666714},{"name":"C2","midi":36,"time":107.83463541666599,"velocity":0.7637795275590551,"duration":2.6315104166666714}],"controlChanges":{"7":[{"number":7,"time":0,"value":0.7874015748031497}]},"id":1,"name":"Piano 1","instrumentNumber":6,"instrument":"harpsichord","instrumentFamily":"piano","channelNumber":0,"isPercussion":false}]}