{"header":{"PPQ":220,"timeSignature":[4,4],"bpm":120,"name":""},"startTime":0,"duration":18.50454545454546,"tracks":[{"startTime":0,"duration":0,"length":0,"notes":[],"controlChanges":{},"id":0},{"startTime":0,"duration":18.50454545454546,"length":34,"notes":[{"name":"E4","midi":64,"time":0,"velocity":0.5669291338582677,"duration":0.525},{"name":"G3","midi":55,"time":0,"velocity":0.5511811023622047,"duration":2.213636363636364},{"name":"D4","midi":62,"time":0.5818181818181818,"velocity":0.5669291338582677,"duration":0.5250000000000001},{"name":"C4","midi":60,"time":1.1636363636363638,"velocity":0.5590551181102362,"duration":0.5250000000000001},{"name":"D4","midi":62,"time":1.7454545454545458,"velocity":0.6220472440944882,"duration":0.5249999999999997},{"name":"E4","midi":64,"time":2.327272727272727,"velocity":0.6692913385826772,"duration":0.5249999999999999},{"name":"G3","midi":55,"time":2.327272727272727,"velocity":0.6220472440944882,"duration":2.213636363636363},{"name":"E4","midi":64,"time":2.9090909090909087,"velocity":0.6141732283464567,"duration":0.5249999999999999},{"name":"E4","midi":64,"time":3.4909090909090903,"velocity":0.5826771653543307,"duration":1.0499999999999998},{"name":"D4","midi":62,"time":4.654545454545453,"velocity":0.5905511811023622,"duration":0.5250000000000004},{"name":"G3","midi":55,"time":4.654545454545453,"velocity":0.6062992125984252,"duration":2.213636363636364},{"name":"D4","midi":62,"time":5.236363636363635,"velocity":0.6062992125984252,"duration":0.5250000000000004},{"name":"D4","midi":62,"time":5.8181818181818175,"velocity":0.5905511811023622,"duration":1.0499999999999998},{"name":"E4","midi":64,"time":6.981818181818181,"velocity":0.6456692913385826,"duration":0.5250000000000004},{"name":"G3","midi":55,"time":6.981818181818181,"velocity":0.6220472440944882,"duration":2.2136363636363647},{"name":"G4","midi":67,"time":7.563636363636363,"velocity":0.6614173228346457,"duration":0.5250000000000004},{"name":"G4","midi":67,"time":8.145454545454545,"velocity":0.5905511811023622,"duration":1.0500000000000007},{"name":"E4","midi":64,"time":9.309090909090909,"velocity":0.5748031496062992,"duration":0.5250000000000004},{"name":"G3","midi":55,"time":9.309090909090909,"velocity":0.6141732283464567,"duration":2.2136363636363647},{"name":"D4","midi":62,"time":9.89090909090909,"velocity":0.5433070866141733,"duration":0.5250000000000004},{"name":"C4","midi":60,"time":10.472727272727273,"velocity":0.5590551181102362,"duration":0.5250000000000004},{"name":"D4","midi":62,"time":11.054545454545455,"velocity":0.6299212598425197,"duration":0.5250000000000004},{"name":"E4","midi":64,"time":11.636363636363637,"velocity":0.6614173228346457,"duration":0.5250000000000004},{"name":"G3","midi":55,"time":11.636363636363637,"velocity":0.6220472440944882,"duration":2.2136363636363647},{"name":"E4","midi":64,"time":12.218181818181819,"velocity":0.5984251968503937,"duration":0.5250000000000004},{"name":"E4","midi":64,"time":12.8,"velocity":0.5826771653543307,"duration":0.5250000000000004},{"name":"E4","midi":64,"time":13.381818181818183,"velocity":0.6062992125984252,"duration":0.5250000000000004},{"name":"D4","midi":62,"time":13.963636363636365,"velocity":0.5905511811023622,"duration":0.5250000000000004},{"name":"G3","midi":55,"time":13.963636363636365,"velocity":0.6141732283464567,"duration":2.2136363636363647},{"name":"D4","midi":62,"time":14.545454545454547,"velocity":0.5826771653543307,"duration":0.5250000000000004},{"name":"E4","midi":64,"time":15.127272727272729,"velocity":0.6377952755905512,"duration":0.5250000000000004},{"name":"D4","midi":62,"time":15.70909090909091,"velocity":0.5511811023622047,"duration":0.5250000000000021},{"name":"C4","midi":60,"time":16.290909090909096,"velocity":0.5748031496062992,"duration":2.2136363636363647},{"name":"E3","midi":52,"time":16.290909090909096,"velocity":0.5669291338582677,"duration":2.2136363636363647}],"controlChanges":{"10":[{"number":10,"time":0,"value":0.5433070866141733}],"32":[{"number":32,"time":0,"value":0}],"91":[{"number":91,"time":0,"value":0.4566929133858268}]},"id":1,"instrumentNumber":24,"instrument":"acoustic guitar (nylon)","instrumentFamily":"guitar","channelNumber":0,"isPercussion":false}]}