{"header":{"PPQ":384,"timeSignature":[4,4],"bpm":120,"name":"--------"},"startTime":0,"duration":516.6080729166625,"tracks":[{"startTime":0,"duration":0,"length":0,"notes":[],"controlChanges":{},"id":0,"name":"--------"},{"startTime":0,"duration":516.6080729166625,"length":3649,"notes":[{"name":"A4","midi":69,"time":0,"velocity":0.7401574803149606,"duration":4.11328125},{"name":"C5","midi":72,"time":0,"velocity":0.7401574803149606,"duration":1.54296875},{"name":"E5","midi":76,"time":0,"velocity":0.7401574803149606,"duration":1.54296875},{"name":"A5","midi":81,"time":0,"velocity":0.7401574803149606,"duration":1.54296875},{"name":"A2","midi":45,"time":0.12760416666666666,"velocity":0.7401574803149606,"duration":0.12630208333333334},{"name":"B2","midi":47,"time":0.2565104166666667,"velocity":0.7401574803149606,"duration":0.12630208333333331},{"name":"C3","midi":48,"time":0.3854166666666667,"velocity":0.7401574803149606,"duration":0.12630208333333331},{"name":"D3","midi":50,"time":0.5143229166666666,"velocity":0.7401574803149606,"duration":0.12630208333333337},{"name":"E3","midi":52,"time":0.6432291666666666,"velocity":0.7401574803149606,"duration":0.12630208333333337},{"name":"F#3","midi":54,"time":0.7721354166666666,"velocity":0.7401574803149606,"duration":0.12630208333333337},{"name":"G#3","midi":56,"time":0.9010416666666666,"velocity":0.7401574803149606,"duration":0.12630208333333337},{"name":"A3","midi":57,"time":1.0299479166666667,"velocity":0.7401574803149606,"duration":3.084635416666666},{"name":"C5","midi":72,"time":1.5442708333333333,"velocity":0.7401574803149606,"duration":0.5130208333333333},{"name":"E5","midi":76,"time":1.5442708333333333,"velocity":0.7401574803149606,"duration":0.5130208333333333},{"name":"F5","midi":77,"time":2.059895833333333,"velocity":0.7401574803149606,"duration":0.5130208333333335},{"name":"D5","midi":74,"time":2.059895833333333,"velocity":0.7401574803149606,"duration":0.5130208333333335},{"name":"E5","midi":76,"time":2.57421875,"velocity":0.7401574803149606,"duration":0.5130208333333335},{"name":"C5","midi":72,"time":2.57421875,"velocity":0.7401574803149606,"duration":0.5130208333333335},{"name":"F5","midi":77,"time":3.08984375,"velocity":0.7401574803149606,"duration":0.5130208333333335},{"name":"D5","midi":74,"time":3.08984375,"velocity":0.7401574803149606,"duration":0.5130208333333335},{"name":"D5","midi":74,"time":3.604166666666667,"velocity":0.7401574803149606,"duration":0.513020833333333},{"name":"B4","midi":71,"time":3.604166666666667,"velocity":0.7401574803149606,"duration":0.513020833333333},{"name":"E5","midi":76,"time":4.119791666666667,"velocity":0.7401574803149606,"duration":1.475260416666666},{"name":"C5","midi":72,"time":4.119791666666667,"velocity":0.7401574803149606,"duration":1.475260416666666},{"name":"A4","midi":69,"time":4.119791666666667,"velocity":0.7401574803149606,"duration":1.541666666666666},{"name":"A2","midi":45,"time":4.248697916666667,"velocity":0.7401574803149606,"duration":0.12630208333333304},{"name":"B2","midi":47,"time":4.376302083333333,"velocity":0.7401574803149606,"duration":0.12630208333333304},{"name":"C3","midi":48,"time":4.505208333333333,"velocity":0.7401574803149606,"duration":0.12630208333333304},{"name":"D3","midi":50,"time":4.634114583333333,"velocity":0.7401574803149606,"duration":0.12630208333333304},{"name":"E3","midi":52,"time":4.763020833333333,"velocity":0.7401574803149606,"duration":0.12630208333333304},{"name":"F#3","midi":54,"time":4.891927083333333,"velocity":0.7401574803149606,"duration":0.12630208333333304},{"name":"G#3","midi":56,"time":5.020833333333333,"velocity":0.7401574803149606,"duration":0.12630208333333304},{"name":"A3","midi":57,"time":5.149739583333333,"velocity":0.7401574803149606,"duration":3.084635416666665},{"name":"E4","midi":64,"time":5.6640625,"velocity":0.7401574803149606,"duration":0.513020833333333},{"name":"C5","midi":72,"time":5.6640625,"velocity":0.7401574803149606,"duration":0.513020833333333},{"name":"A4","midi":69,"time":5.6640625,"velocity":0.7401574803149606,"duration":0.513020833333333},{"name":"D5","midi":74,"time":6.1796875,"velocity":0.7401574803149606,"duration":0.513020833333333},{"name":"B4","midi":71,"time":6.1796875,"velocity":0.7401574803149606,"duration":0.513020833333333},{"name":"F4","midi":65,"time":6.1796875,"velocity":0.7401574803149606,"duration":0.513020833333333},{"name":"E4","midi":64,"time":6.694010416666666,"velocity":0.7401574803149606,"duration":0.513020833333333},{"name":"C5","midi":72,"time":6.694010416666666,"velocity":0.7401574803149606,"duration":0.513020833333333},{"name":"A4","midi":69,"time":6.694010416666666,"velocity":0.7401574803149606,"duration":0.513020833333333},{"name":"F4","midi":65,"time":7.209635416666666,"velocity":0.7401574803149606,"duration":0.513020833333333},{"name":"D5","midi":74,"time":7.209635416666666,"velocity":0.7401574803149606,"duration":0.513020833333333},{"name":"B4","midi":71,"time":7.209635416666666,"velocity":0.7401574803149606,"duration":0.513020833333333},{"name":"G#4","midi":68,"time":7.723958333333332,"velocity":0.7401574803149606,"duration":0.5130208333333321},{"name":"D4","midi":62,"time":7.723958333333332,"velocity":0.7401574803149606,"duration":0.5130208333333321},{"name":"B4","midi":71,"time":7.723958333333332,"velocity":0.7401574803149606,"duration":0.5130208333333321},{"name":"E4","midi":64,"time":8.23958333333333,"velocity":0.7401574803149606,"duration":1.5429687500000018},{"name":"C5","midi":72,"time":8.23958333333333,"velocity":0.7401574803149606,"duration":1.5429687500000018},{"name":"A4","midi":69,"time":8.23958333333333,"velocity":0.7401574803149606,"duration":1.5429687500000018},{"name":"A2","midi":45,"time":8.36848958333333,"velocity":0.7401574803149606,"duration":0.12630208333333393},{"name":"B2","midi":47,"time":8.49739583333333,"velocity":0.7401574803149606,"duration":0.12630208333333393},{"name":"C3","midi":48,"time":8.624999999999998,"velocity":0.7401574803149606,"duration":0.12630208333333393},{"name":"D3","midi":50,"time":8.753906249999998,"velocity":0.7401574803149606,"duration":0.12630208333333393},{"name":"E3","midi":52,"time":8.882812499999998,"velocity":0.7401574803149606,"duration":0.12630208333333393},{"name":"F#3","midi":54,"time":9.011718749999998,"velocity":0.7401574803149606,"duration":0.12630208333333393},{"name":"G#3","midi":56,"time":9.140624999999998,"velocity":0.7401574803149606,"duration":0.12630208333333393},{"name":"A3","midi":57,"time":9.269531249999998,"velocity":0.7401574803149606,"duration":0.5130208333333339},{"name":"F3","midi":53,"time":9.783854166666666,"velocity":0.7401574803149606,"duration":0.5091145833333339},{"name":"F4","midi":65,"time":9.783854166666666,"velocity":0.7401574803149606,"duration":0.5130208333333339},{"name":"D5","midi":74,"time":9.783854166666666,"velocity":0.7401574803149606,"duration":0.5130208333333339},{"name":"A4","midi":69,"time":9.783854166666666,"velocity":0.7401574803149606,"duration":0.5130208333333339},{"name":"D4","midi":62,"time":10.299479166666666,"velocity":0.7401574803149606,"duration":1.5429687500000018},{"name":"B4","midi":71,"time":10.299479166666666,"velocity":0.7401574803149606,"duration":1.5429687500000018},{"name":"G4","midi":67,"time":10.299479166666666,"velocity":0.7401574803149606,"duration":1.5429687500000018},{"name":"G2","midi":43,"time":10.428385416666666,"velocity":0.7401574803149606,"duration":0.12630208333333393},{"name":"A2","midi":45,"time":10.557291666666666,"velocity":0.7401574803149606,"duration":0.12630208333333393},{"name":"B2","midi":47,"time":10.686197916666666,"velocity":0.7401574803149606,"duration":0.12630208333333393},{"name":"C3","midi":48,"time":10.813802083333334,"velocity":0.7401574803149606,"duration":0.12630208333333393},{"name":"D3","midi":50,"time":10.942708333333334,"velocity":0.7401574803149606,"duration":0.12630208333333393},{"name":"E3","midi":52,"time":11.071614583333334,"velocity":0.7401574803149606,"duration":0.12630208333333393},{"name":"F3","midi":53,"time":11.200520833333334,"velocity":0.7401574803149606,"duration":0.12630208333333393},{"name":"G3","midi":55,"time":11.329427083333334,"velocity":0.7401574803149606,"duration":0.5130208333333339},{"name":"E3","midi":52,"time":11.843750000000002,"velocity":0.7401574803149606,"duration":0.5091145833333339},{"name":"E4","midi":64,"time":11.843750000000002,"velocity":0.7401574803149606,"duration":0.5130208333333339},{"name":"C5","midi":72,"time":11.843750000000002,"velocity":0.7401574803149606,"duration":0.5130208333333339},{"name":"G4","midi":67,"time":11.843750000000002,"velocity":0.7401574803149606,"duration":0.5130208333333339},{"name":"C4","midi":60,"time":12.359375000000002,"velocity":0.7401574803149606,"duration":1.5429687500000018},{"name":"A4","midi":69,"time":12.359375000000002,"velocity":0.7401574803149606,"duration":1.5429687500000018},{"name":"F4","midi":65,"time":12.359375000000002,"velocity":0.7401574803149606,"duration":1.5429687500000018},{"name":"F2","midi":41,"time":12.488281250000002,"velocity":0.7401574803149606,"duration":0.12630208333333393},{"name":"G2","midi":43,"time":12.617187500000002,"velocity":0.7401574803149606,"duration":0.12630208333333393},{"name":"A2","midi":45,"time":12.746093750000002,"velocity":0.7401574803149606,"duration":0.12630208333333393},{"name":"B2","midi":47,"time":12.875000000000002,"velocity":0.7401574803149606,"duration":0.12630208333333393},{"name":"C3","midi":48,"time":13.00260416666667,"velocity":0.7401574803149606,"duration":0.12630208333333393},{"name":"D3","midi":50,"time":13.13151041666667,"velocity":0.7401574803149606,"duration":0.12630208333333393},{"name":"E3","midi":52,"time":13.26041666666667,"velocity":0.7401574803149606,"duration":0.12630208333333393},{"name":"F3","midi":53,"time":13.38932291666667,"velocity":0.7401574803149606,"duration":0.5130208333333339},{"name":"D3","midi":50,"time":13.90494791666667,"velocity":0.7401574803149606,"duration":0.5091145833333339},{"name":"D4","midi":62,"time":13.90494791666667,"velocity":0.7401574803149606,"duration":0.5130208333333339},{"name":"B4","midi":71,"time":13.90494791666667,"velocity":0.7401574803149606,"duration":0.5130208333333339},{"name":"F4","midi":65,"time":13.90494791666667,"velocity":0.7401574803149606,"duration":0.5130208333333339},{"name":"B3","midi":59,"time":14.419270833333337,"velocity":0.7401574803149606,"duration":1.1562500000000018},{"name":"G#4","midi":68,"time":14.419270833333337,"velocity":0.7401574803149606,"duration":1.1562500000000018},{"name":"E4","midi":64,"time":14.419270833333337,"velocity":0.7401574803149606,"duration":1.1562500000000018},{"name":"E2","midi":40,"time":14.548177083333337,"velocity":0.7401574803149606,"duration":0.12630208333333393},{"name":"F#2","midi":42,"time":14.677083333333337,"velocity":0.7401574803149606,"duration":0.12630208333333393},{"name":"G#2","midi":44,"time":14.805989583333337,"velocity":0.7401574803149606,"duration":0.12630208333333393},{"name":"A2","midi":45,"time":14.934895833333337,"velocity":0.7401574803149606,"duration":0.12630208333333393},{"name":"B2","midi":47,"time":15.062500000000005,"velocity":0.7401574803149606,"duration":0.12630208333333393},{"name":"C3","midi":48,"time":15.191406250000005,"velocity":0.7401574803149606,"duration":0.12630208333333393},{"name":"D3","midi":50,"time":15.320312500000005,"velocity":0.7401574803149606,"duration":0.12630208333333393},{"name":"E3","midi":52,"time":15.449218750000005,"velocity":0.7401574803149606,"duration":0.5130208333333339},{"name":"E4","midi":64,"time":15.578125000000005,"velocity":0.7401574803149606,"duration":0.12630208333333393},{"name":"F#4","midi":66,"time":15.707031250000005,"velocity":0.7401574803149606,"duration":0.12630208333333393},{"name":"G#4","midi":68,"time":15.835937500000005,"velocity":0.7401574803149606,"duration":0.12630208333333393},{"name":"D3","midi":50,"time":15.964843750000005,"velocity":0.7401574803149606,"duration":0.5130208333333304},{"name":"A4","midi":69,"time":15.964843750000005,"velocity":0.7401574803149606,"duration":0.12630208333333393},{"name":"B4","midi":71,"time":16.093750000000007,"velocity":0.7401574803149606,"duration":0.12630208333333215},{"name":"C#5","midi":73,"time":16.22135416666667,"velocity":0.7401574803149606,"duration":0.12630208333333215},{"name":"D5","midi":74,"time":16.35026041666667,"velocity":0.7401574803149606,"duration":0.12630208333333215},{"name":"C#3","midi":49,"time":16.479166666666668,"velocity":0.7401574803149606,"duration":0.5130208333333321},{"name":"E5","midi":76,"time":16.479166666666668,"velocity":0.7401574803149606,"duration":0.12630208333333215},{"name":"C#5","midi":73,"time":16.608072916666668,"velocity":0.7401574803149606,"duration":0.12630208333333215},{"name":"A4","midi":69,"time":16.736979166666668,"velocity":0.7401574803149606,"duration":0.12630208333333215},{"name":"B4","midi":71,"time":16.865885416666668,"velocity":0.7401574803149606,"duration":0.12630208333333215},{"name":"E3","midi":52,"time":16.994791666666668,"velocity":0.7401574803149606,"duration":0.5130208333333286},{"name":"C#5","midi":73,"time":16.994791666666668,"velocity":0.7401574803149606,"duration":0.12630208333333215},{"name":"D5","midi":74,"time":17.123697916666668,"velocity":0.7401574803149606,"duration":0.12630208333333215},{"name":"E5","midi":76,"time":17.251302083333332,"velocity":0.7401574803149606,"duration":0.12630208333333215},{"name":"F5","midi":77,"time":17.380208333333332,"velocity":0.7401574803149606,"duration":0.12630208333333215},{"name":"C#3","midi":49,"time":17.50911458333333,"velocity":0.7401574803149606,"duration":0.5130208333333321},{"name":"G5","midi":79,"time":17.50911458333333,"velocity":0.7401574803149606,"duration":0.5130208333333321},{"name":"A2","midi":45,"time":18.02473958333333,"velocity":0.7401574803149606,"duration":0.5130208333333321},{"name":"A4","midi":69,"time":18.02473958333333,"velocity":0.7401574803149606,"duration":0.5130208333333321},{"name":"G5","midi":79,"time":18.02473958333333,"velocity":0.7401574803149606,"duration":0.5130208333333321},{"name":"E5","midi":76,"time":18.02473958333333,"velocity":0.7401574803149606,"duration":0.5130208333333321},{"name":"C#5","midi":73,"time":18.02473958333333,"velocity":0.7401574803149606,"duration":0.5130208333333321},{"name":"D3","midi":50,"time":18.539062499999993,"velocity":0.7401574803149606,"duration":0.12630208333333215},{"name":"A4","midi":69,"time":18.539062499999993,"velocity":0.7401574803149606,"duration":0.5130208333333321},{"name":"G5","midi":79,"time":18.539062499999993,"velocity":0.7401574803149606,"duration":0.5130208333333321},{"name":"E5","midi":76,"time":18.539062499999993,"velocity":0.7401574803149606,"duration":0.5130208333333321},{"name":"C#5","midi":73,"time":18.539062499999993,"velocity":0.7401574803149606,"duration":0.5130208333333321},{"name":"D2","midi":38,"time":18.667968749999993,"velocity":0.7401574803149606,"duration":0.12630208333333215},{"name":"E2","midi":40,"time":18.796874999999993,"velocity":0.7401574803149606,"duration":0.12630208333333215},{"name":"F#2","midi":42,"time":18.925781249999993,"velocity":0.7401574803149606,"duration":0.12630208333333215},{"name":"G2","midi":43,"time":19.054687499999993,"velocity":0.7401574803149606,"duration":0.12630208333333215},{"name":"F#5","midi":78,"time":19.054687499999993,"velocity":0.7401574803149606,"duration":0.6419270833333321},{"name":"D5","midi":74,"time":19.054687499999993,"velocity":0.7401574803149606,"duration":0.6419270833333321},{"name":"A2","midi":45,"time":19.183593749999993,"velocity":0.7401574803149606,"duration":0.12630208333333215},{"name":"B2","midi":47,"time":19.312499999999993,"velocity":0.7401574803149606,"duration":0.12630208333333215},{"name":"C3","midi":48,"time":19.440104166666657,"velocity":0.7401574803149606,"duration":0.12630208333333215},{"name":"D3","midi":50,"time":19.569010416666657,"velocity":0.7401574803149606,"duration":0.5130208333333321},{"name":"D4","midi":62,"time":19.697916666666657,"velocity":0.7401574803149606,"duration":0.12630208333333215},{"name":"E4","midi":64,"time":19.826822916666657,"velocity":0.7401574803149606,"duration":0.12630208333333215},{"name":"F#4","midi":66,"time":19.955729166666657,"velocity":0.7401574803149606,"duration":0.12630208333333215},{"name":"C3","midi":48,"time":20.084635416666657,"velocity":0.7401574803149606,"duration":0.5130208333333286},{"name":"G4","midi":67,"time":20.084635416666657,"velocity":0.7401574803149606,"duration":0.12630208333333215},{"name":"A4","midi":69,"time":20.213541666666657,"velocity":0.7401574803149606,"duration":0.12630208333333215},{"name":"B4","midi":71,"time":20.342447916666657,"velocity":0.7401574803149606,"duration":0.12630208333333215},{"name":"C5","midi":72,"time":20.47005208333332,"velocity":0.7401574803149606,"duration":0.12630208333333215},{"name":"B2","midi":47,"time":20.598958333333318,"velocity":0.7401574803149606,"duration":0.5130208333333321},{"name":"D5","midi":74,"time":20.598958333333318,"velocity":0.7401574803149606,"duration":0.12630208333333215},{"name":"B4","midi":71,"time":20.727864583333318,"velocity":0.7401574803149606,"duration":0.12630208333333215},{"name":"G4","midi":67,"time":20.856770833333318,"velocity":0.7401574803149606,"duration":0.12630208333333215},{"name":"A4","midi":69,"time":20.985677083333318,"velocity":0.7401574803149606,"duration":0.12630208333333215},{"name":"D3","midi":50,"time":21.114583333333318,"velocity":0.7401574803149606,"duration":0.5130208333333286},{"name":"B4","midi":71,"time":21.114583333333318,"velocity":0.7401574803149606,"duration":0.12630208333333215},{"name":"C5","midi":72,"time":21.243489583333318,"velocity":0.7401574803149606,"duration":0.12630208333333215},{"name":"D5","midi":74,"time":21.372395833333318,"velocity":0.7401574803149606,"duration":0.12630208333333215},{"name":"E5","midi":76,"time":21.499999999999982,"velocity":0.7401574803149606,"duration":0.12630208333333215},{"name":"B2","midi":47,"time":21.62890624999998,"velocity":0.7401574803149606,"duration":0.5130208333333321},{"name":"F5","midi":77,"time":21.62890624999998,"velocity":0.7401574803149606,"duration":0.5130208333333321},{"name":"G2","midi":43,"time":22.14453124999998,"velocity":0.7401574803149606,"duration":0.5130208333333321},{"name":"B4","midi":71,"time":22.14453124999998,"velocity":0.7401574803149606,"duration":0.5130208333333321},{"name":"G4","midi":67,"time":22.14453124999998,"velocity":0.7401574803149606,"duration":0.5130208333333321},{"name":"F5","midi":77,"time":22.14453124999998,"velocity":0.7401574803149606,"duration":0.5130208333333321},{"name":"D5","midi":74,"time":22.14453124999998,"velocity":0.7401574803149606,"duration":0.5130208333333321},{"name":"C3","midi":48,"time":22.658854166666643,"velocity":0.7401574803149606,"duration":0.12630208333333215},{"name":"B4","midi":71,"time":22.658854166666643,"velocity":0.7401574803149606,"duration":0.5130208333333321},{"name":"G4","midi":67,"time":22.658854166666643,"velocity":0.7401574803149606,"duration":0.5130208333333321},{"name":"F5","midi":77,"time":22.658854166666643,"velocity":0.7401574803149606,"duration":0.5130208333333321},{"name":"D5","midi":74,"time":22.658854166666643,"velocity":0.7401574803149606,"duration":0.5130208333333321},{"name":"C2","midi":36,"time":22.787760416666643,"velocity":0.7401574803149606,"duration":0.12630208333333215},{"name":"D2","midi":38,"time":22.916666666666643,"velocity":0.7401574803149606,"duration":0.12630208333333215},{"name":"E2","midi":40,"time":23.045572916666643,"velocity":0.7401574803149606,"duration":0.12630208333333215},{"name":"F2","midi":41,"time":23.174479166666643,"velocity":0.7401574803149606,"duration":0.12630208333333215},{"name":"C5","midi":72,"time":23.174479166666643,"velocity":0.7401574803149606,"duration":0.6419270833333321},{"name":"E5","midi":76,"time":23.174479166666643,"velocity":0.7401574803149606,"duration":0.6419270833333321},{"name":"G2","midi":43,"time":23.303385416666643,"velocity":0.7401574803149606,"duration":0.12630208333333215},{"name":"A2","midi":45,"time":23.432291666666643,"velocity":0.7401574803149606,"duration":0.12630208333333215},{"name":"B2","midi":47,"time":23.561197916666643,"velocity":0.7401574803149606,"duration":0.12630208333333215},{"name":"C3","midi":48,"time":23.688802083333307,"velocity":0.7401574803149606,"duration":0.5130208333333321},{"name":"C4","midi":60,"time":23.817708333333307,"velocity":0.7401574803149606,"duration":0.12630208333333215},{"name":"D4","midi":62,"time":23.946614583333307,"velocity":0.7401574803149606,"duration":0.12630208333333215},{"name":"E4","midi":64,"time":24.075520833333307,"velocity":0.7401574803149606,"duration":0.12630208333333215},{"name":"B2","midi":47,"time":24.204427083333307,"velocity":0.7401574803149606,"duration":0.5091145833333321},{"name":"F4","midi":65,"time":24.204427083333307,"velocity":0.7401574803149606,"duration":0.12630208333333215},{"name":"G4","midi":67,"time":24.333333333333307,"velocity":0.7401574803149606,"duration":0.12630208333333215},{"name":"A4","midi":69,"time":24.462239583333307,"velocity":0.7401574803149606,"duration":0.12630208333333215},{"name":"B4","midi":71,"time":24.591145833333307,"velocity":0.7401574803149606,"duration":0.12630208333333215},{"name":"C5","midi":72,"time":24.71874999999997,"velocity":0.7401574803149606,"duration":0.5130208333333321},{"name":"A2","midi":45,"time":24.84765624999997,"velocity":0.7401574803149606,"duration":0.12630208333333215},{"name":"B2","midi":47,"time":24.97656249999997,"velocity":0.7401574803149606,"duration":0.12630208333333215},{"name":"C3","midi":48,"time":25.10546874999997,"velocity":0.7401574803149606,"duration":0.12630208333333215},{"name":"D3","midi":50,"time":25.23437499999997,"velocity":0.7401574803149606,"duration":0.1263020833333357},{"name":"F4","midi":65,"time":25.23437499999997,"velocity":0.7401574803149606,"duration":0.1067708333333357},{"name":"E4","midi":64,"time":25.33463541666664,"velocity":0.7401574803149606,"duration":0.1067708333333357},{"name":"E3","midi":52,"time":25.363281249999975,"velocity":0.7401574803149606,"duration":0.12630208333333215},{"name":"F4","midi":65,"time":25.434895833333307,"velocity":0.7401574803149606,"duration":0.45182291666666785},{"name":"F3","midi":53,"time":25.492187499999975,"velocity":0.7401574803149606,"duration":0.12630208333333215},{"name":"G3","midi":55,"time":25.621093749999975,"velocity":0.7401574803149606,"duration":0.12630208333333215},{"name":"A3","midi":57,"time":25.749999999999975,"velocity":0.7401574803149606,"duration":0.5130208333333321},{"name":"G4","midi":67,"time":25.877604166666643,"velocity":0.7401574803149606,"duration":0.12630208333333215},{"name":"F4","midi":65,"time":26.006510416666643,"velocity":0.7401574803149606,"duration":0.12630208333333215},{"name":"E4","midi":64,"time":26.135416666666643,"velocity":0.7401574803149606,"duration":0.12630208333333215},{"name":"A2","midi":45,"time":26.26432291666664,"velocity":0.7401574803149606,"duration":0.5091145833333321},{"name":"F4","midi":65,"time":26.26432291666664,"velocity":0.7401574803149606,"duration":0.12630208333333215},{"name":"G4","midi":67,"time":26.39322916666664,"velocity":0.7401574803149606,"duration":0.12630208333333215},{"name":"A4","midi":69,"time":26.52213541666664,"velocity":0.7401574803149606,"duration":0.12630208333333215},{"name":"B4","midi":71,"time":26.65104166666664,"velocity":0.7401574803149606,"duration":0.12630208333333215},{"name":"C5","midi":72,"time":26.77994791666664,"velocity":0.7401574803149606,"duration":0.5130208333333321},{"name":"G2","midi":43,"time":26.907552083333307,"velocity":0.7401574803149606,"duration":0.12630208333333215},{"name":"A2","midi":45,"time":27.036458333333307,"velocity":0.7401574803149606,"duration":0.12630208333333215},{"name":"B2","midi":47,"time":27.165364583333307,"velocity":0.7401574803149606,"duration":0.12630208333333215},{"name":"C3","midi":48,"time":27.294270833333304,"velocity":0.7401574803149606,"duration":0.1263020833333357},{"name":"E4","midi":64,"time":27.294270833333304,"velocity":0.7401574803149606,"duration":0.1067708333333357},{"name":"D4","midi":62,"time":27.39453124999997,"velocity":0.7401574803149606,"duration":0.1067708333333357},{"name":"D3","midi":50,"time":27.423177083333307,"velocity":0.7401574803149606,"duration":0.12630208333333215},{"name":"E4","midi":64,"time":27.496093749999975,"velocity":0.7401574803149606,"duration":0.45182291666666785},{"name":"E3","midi":52,"time":27.552083333333307,"velocity":0.7401574803149606,"duration":0.12630208333333215},{"name":"F3","midi":53,"time":27.680989583333307,"velocity":0.7401574803149606,"duration":0.12630208333333215},{"name":"G3","midi":55,"time":27.809895833333307,"velocity":0.7401574803149606,"duration":0.5130208333333357},{"name":"F4","midi":65,"time":27.937499999999975,"velocity":0.7401574803149606,"duration":0.1263020833333357},{"name":"E4","midi":64,"time":28.06640624999998,"velocity":0.7401574803149606,"duration":0.12630208333333215},{"name":"D4","midi":62,"time":28.19531249999998,"velocity":0.7401574803149606,"duration":0.12630208333333215},{"name":"G2","midi":43,"time":28.324218749999975,"velocity":0.7401574803149606,"duration":0.5130208333333321},{"name":"E4","midi":64,"time":28.324218749999975,"velocity":0.7401574803149606,"duration":0.12630208333333215},{"name":"G4","midi":67,"time":28.453124999999975,"velocity":0.7401574803149606,"duration":0.12630208333333215},{"name":"A4","midi":69,"time":28.582031249999975,"velocity":0.7401574803149606,"duration":0.12630208333333215},{"name":"B4","midi":71,"time":28.710937499999975,"velocity":0.7401574803149606,"duration":0.12630208333333215},{"name":"F#2","midi":42,"time":28.839843749999975,"velocity":0.7401574803149606,"duration":0.25520833333333215},{"name":"C5","midi":72,"time":28.839843749999975,"velocity":0.7401574803149606,"duration":0.12630208333333215},{"name":"B4","midi":71,"time":28.968749999999975,"velocity":0.7401574803149606,"duration":0.12630208333333215},{"name":"A2","midi":45,"time":29.09635416666664,"velocity":0.7401574803149606,"duration":0.25520833333333215},{"name":"C5","midi":72,"time":29.09635416666664,"velocity":0.7401574803149606,"duration":0.12630208333333215},{"name":"D#5","midi":75,"time":29.22526041666664,"velocity":0.7401574803149606,"duration":0.12630208333333215},{"name":"C3","midi":48,"time":29.35416666666664,"velocity":0.7401574803149606,"duration":0.25520833333333215},{"name":"A4","midi":69,"time":29.35416666666664,"velocity":0.7401574803149606,"duration":0.12630208333333215},{"name":"G4","midi":67,"time":29.48307291666664,"velocity":0.7401574803149606,"duration":0.12630208333333215},{"name":"D#3","midi":51,"time":29.61197916666664,"velocity":0.7401574803149606,"duration":0.25520833333333215},{"name":"A4","midi":69,"time":29.61197916666664,"velocity":0.7401574803149606,"duration":0.12630208333333215},{"name":"C5","midi":72,"time":29.74088541666664,"velocity":0.7401574803149606,"duration":0.12630208333333215},{"name":"C3","midi":48,"time":29.86979166666664,"velocity":0.7401574803149606,"duration":0.25520833333333215},{"name":"F#4","midi":66,"time":29.86979166666664,"velocity":0.7401574803149606,"duration":0.12630208333333215},{"name":"E4","midi":64,"time":29.99869791666664,"velocity":0.7401574803149606,"duration":0.12630208333333215},{"name":"A2","midi":45,"time":30.126302083333304,"velocity":0.7401574803149606,"duration":0.25520833333333215},{"name":"F#4","midi":66,"time":30.126302083333304,"velocity":0.7401574803149606,"duration":0.12630208333333215},{"name":"A4","midi":69,"time":30.255208333333304,"velocity":0.7401574803149606,"duration":0.12630208333333215},{"name":"G2","midi":43,"time":30.384114583333304,"velocity":0.7401574803149606,"duration":0.25520833333333215},{"name":"D#4","midi":63,"time":30.384114583333304,"velocity":0.7401574803149606,"duration":0.12630208333333215},{"name":"D4","midi":62,"time":30.513020833333304,"velocity":0.7401574803149606,"duration":0.12630208333333215},{"name":"F#2","midi":42,"time":30.641927083333304,"velocity":0.7401574803149606,"duration":0.25520833333333215},{"name":"D#4","midi":63,"time":30.641927083333304,"velocity":0.7401574803149606,"duration":0.12630208333333215},{"name":"C5","midi":72,"time":30.770833333333304,"velocity":0.7401574803149606,"duration":0.12630208333333215},{"name":"F2","midi":41,"time":30.899739583333304,"velocity":0.7401574803149606,"duration":0.25520833333333215},{"name":"B4","midi":71,"time":30.899739583333304,"velocity":0.7401574803149606,"duration":0.12630208333333215},{"name":"A4","midi":69,"time":31.028645833333304,"velocity":0.7401574803149606,"duration":0.12630208333333215},{"name":"G#2","midi":44,"time":31.156249999999968,"velocity":0.7401574803149606,"duration":0.25520833333333215},{"name":"B4","midi":71,"time":31.156249999999968,"velocity":0.7401574803149606,"duration":0.12630208333333215},{"name":"D5","midi":74,"time":31.285156249999968,"velocity":0.7401574803149606,"duration":0.12630208333333215},{"name":"B2","midi":47,"time":31.414062499999968,"velocity":0.7401574803149606,"duration":0.25520833333333215},{"name":"G#4","midi":68,"time":31.414062499999968,"velocity":0.7401574803149606,"duration":0.12630208333333215},{"name":"G4","midi":67,"time":31.542968749999968,"velocity":0.7401574803149606,"duration":0.12630208333333215},{"name":"D3","midi":50,"time":31.671874999999968,"velocity":0.7401574803149606,"duration":0.25520833333333215},{"name":"G#4","midi":68,"time":31.671874999999968,"velocity":0.7401574803149606,"duration":0.12630208333333215},{"name":"B4","midi":71,"time":31.800781249999968,"velocity":0.7401574803149606,"duration":0.12630208333333215},{"name":"B2","midi":47,"time":31.929687499999968,"velocity":0.7401574803149606,"duration":0.25520833333333215},{"name":"F4","midi":65,"time":31.929687499999968,"velocity":0.7401574803149606,"duration":0.12630208333333215},{"name":"E4","midi":64,"time":32.058593749999964,"velocity":0.7401574803149606,"duration":0.1263020833333357},{"name":"G#2","midi":44,"time":32.187499999999964,"velocity":0.7401574803149606,"duration":0.2552083333333428},{"name":"F4","midi":65,"time":32.187499999999964,"velocity":0.7401574803149606,"duration":0.1263020833333357},{"name":"G#4","midi":68,"time":32.315104166666636,"velocity":0.7401574803149606,"duration":0.1263020833333357},{"name":"G2","midi":43,"time":32.44401041666664,"velocity":0.7401574803149606,"duration":0.2552083333333357},{"name":"D4","midi":62,"time":32.44401041666664,"velocity":0.7401574803149606,"duration":0.1263020833333357},{"name":"C4","midi":60,"time":32.57291666666664,"velocity":0.7401574803149606,"duration":0.1263020833333357},{"name":"F2","midi":41,"time":32.70182291666664,"velocity":0.7401574803149606,"duration":0.2552083333333357},{"name":"D4","midi":62,"time":32.70182291666664,"velocity":0.7401574803149606,"duration":0.1263020833333357},{"name":"B4","midi":71,"time":32.83072916666664,"velocity":0.7401574803149606,"duration":0.1263020833333357},{"name":"E2","midi":40,"time":32.95963541666664,"velocity":0.7401574803149606,"duration":0.1263020833333357},{"name":"C5","midi":72,"time":32.95963541666664,"velocity":0.7401574803149606,"duration":0.1263020833333357},{"name":"G2","midi":43,"time":33.08854166666664,"velocity":0.7401574803149606,"duration":0.1263020833333357},{"name":"B4","midi":71,"time":33.08854166666664,"velocity":0.7401574803149606,"duration":0.1263020833333357},{"name":"A2","midi":45,"time":33.21744791666664,"velocity":0.7401574803149606,"duration":0.1263020833333357},{"name":"A4","midi":69,"time":33.21744791666664,"velocity":0.7401574803149606,"duration":0.1263020833333357},{"name":"B2","midi":47,"time":33.345052083333314,"velocity":0.7401574803149606,"duration":0.1263020833333357},{"name":"G4","midi":67,"time":33.345052083333314,"velocity":0.7401574803149606,"duration":0.1263020833333357},{"name":"C3","midi":48,"time":33.473958333333314,"velocity":0.7401574803149606,"duration":0.1263020833333357},{"name":"F4","midi":65,"time":33.473958333333314,"velocity":0.7401574803149606,"duration":0.1263020833333357},{"name":"D3","midi":50,"time":33.602864583333314,"velocity":0.7401574803149606,"duration":0.1263020833333357},{"name":"E4","midi":64,"time":33.602864583333314,"velocity":0.7401574803149606,"duration":0.1263020833333357},{"name":"E3","midi":52,"time":33.731770833333314,"velocity":0.7401574803149606,"duration":0.1263020833333357},{"name":"D4","midi":62,"time":33.731770833333314,"velocity":0.7401574803149606,"duration":0.1263020833333357},{"name":"F3","midi":53,"time":33.860677083333314,"velocity":0.7401574803149606,"duration":0.1263020833333357},{"name":"C4","midi":60,"time":33.860677083333314,"velocity":0.7401574803149606,"duration":0.1145833333333357},{"name":"G3","midi":55,"time":33.989583333333314,"velocity":0.7401574803149606,"duration":0.5130208333333357},{"name":"D4","midi":62,"time":34.247395833333314,"velocity":0.7401574803149606,"duration":0.7708333333333428},{"name":"G2","midi":43,"time":34.503906249999986,"velocity":0.7401574803149606,"duration":0.5091145833333357},{"name":"F4","midi":65,"time":34.503906249999986,"velocity":0.7401574803149606,"duration":0.5091145833333357},{"name":"B4","midi":71,"time":34.761718749999986,"velocity":0.7401574803149606,"duration":0.2552083333333357},{"name":"E4","midi":64,"time":35.01953124999999,"velocity":0.7401574803149606,"duration":1.156250000000007},{"name":"G4","midi":67,"time":35.01953124999999,"velocity":0.7401574803149606,"duration":1.156250000000007},{"name":"C5","midi":72,"time":35.01953124999999,"velocity":0.7401574803149606,"duration":1.156250000000007},{"name":"C3","midi":48,"time":35.14843749999999,"velocity":0.7401574803149606,"duration":0.1263020833333357},{"name":"D3","midi":50,"time":35.27734374999999,"velocity":0.7401574803149606,"duration":0.1263020833333357},{"name":"E3","midi":52,"time":35.40624999999999,"velocity":0.7401574803149606,"duration":0.1263020833333357},{"name":"F3","midi":53,"time":35.533854166666664,"velocity":0.7401574803149606,"duration":0.1263020833333357},{"name":"G3","midi":55,"time":35.662760416666664,"velocity":0.7401574803149606,"duration":0.1263020833333357},{"name":"A3","midi":57,"time":35.791666666666664,"velocity":0.7401574803149606,"duration":0.1263020833333357},{"name":"B3","midi":59,"time":35.920572916666664,"velocity":0.7401574803149606,"duration":0.1263020833333357},{"name":"C4","midi":60,"time":36.049479166666664,"velocity":0.7401574803149606,"duration":0.5130208333333357},{"name":"G4","midi":67,"time":36.178385416666664,"velocity":0.7401574803149606,"duration":0.1263020833333357},{"name":"A4","midi":69,"time":36.307291666666664,"velocity":0.7401574803149606,"duration":0.1263020833333357},{"name":"B4","midi":71,"time":36.436197916666664,"velocity":0.7401574803149606,"duration":0.1263020833333357},{"name":"A#3","midi":58,"time":36.563802083333336,"velocity":0.7401574803149606,"duration":0.5130208333333357},{"name":"C5","midi":72,"time":36.563802083333336,"velocity":0.7401574803149606,"duration":0.1263020833333357},{"name":"D5","midi":74,"time":36.692708333333336,"velocity":0.7401574803149606,"duration":0.1263020833333357},{"name":"E5","midi":76,"time":36.821614583333336,"velocity":0.7401574803149606,"duration":0.1263020833333357},{"name":"F5","midi":77,"time":36.950520833333336,"velocity":0.7401574803149606,"duration":0.1263020833333357},{"name":"A3","midi":57,"time":37.079427083333336,"velocity":0.7401574803149606,"duration":0.2552083333333357},{"name":"G5","midi":79,"time":37.079427083333336,"velocity":0.7401574803149606,"duration":0.1263020833333357},{"name":"F5","midi":77,"time":37.208333333333336,"velocity":0.7401574803149606,"duration":0.1263020833333357},{"name":"E3","midi":52,"time":37.337239583333336,"velocity":0.7401574803149606,"duration":0.2552083333333357},{"name":"G5","midi":79,"time":37.337239583333336,"velocity":0.7401574803149606,"duration":0.1263020833333357},{"name":"A#5","midi":82,"time":37.466145833333336,"velocity":0.7401574803149606,"duration":0.1263020833333357},{"name":"C#3","midi":49,"time":37.59375000000001,"velocity":0.7401574803149606,"duration":0.2552083333333357},{"name":"E5","midi":76,"time":37.59375000000001,"velocity":0.7401574803149606,"duration":0.1263020833333357},{"name":"D5","midi":74,"time":37.72265625000001,"velocity":0.7401574803149606,"duration":0.1263020833333357},{"name":"A2","midi":45,"time":37.85156250000001,"velocity":0.7401574803149606,"duration":0.2552083333333357},{"name":"E5","midi":76,"time":37.85156250000001,"velocity":0.7401574803149606,"duration":0.1263020833333357},{"name":"G5","midi":79,"time":37.98046875000001,"velocity":0.7401574803149606,"duration":0.1263020833333357},{"name":"G3","midi":55,"time":38.10937500000001,"velocity":0.7401574803149606,"duration":0.2552083333333357},{"name":"C#5","midi":73,"time":38.10937500000001,"velocity":0.7401574803149606,"duration":0.1263020833333357},{"name":"B4","midi":71,"time":38.23828125000001,"velocity":0.7401574803149606,"duration":0.1263020833333357},{"name":"E3","midi":52,"time":38.36718750000001,"velocity":0.7401574803149606,"duration":0.2552083333333357},{"name":"C#5","midi":73,"time":38.36718750000001,"velocity":0.7401574803149606,"duration":0.1263020833333357},{"name":"E5","midi":76,"time":38.49609375000001,"velocity":0.7401574803149606,"duration":0.1263020833333357},{"name":"C#3","midi":49,"time":38.62500000000001,"velocity":0.7401574803149606,"duration":0.2552083333333428},{"name":"A4","midi":69,"time":38.62500000000001,"velocity":0.7401574803149606,"duration":0.1263020833333357},{"name":"G#4","midi":68,"time":38.75260416666668,"velocity":0.7401574803149606,"duration":0.1263020833333357},{"name":"A2","midi":45,"time":38.881510416666686,"velocity":0.7401574803149606,"duration":0.2552083333333357},{"name":"A4","midi":69,"time":38.881510416666686,"velocity":0.7401574803149606,"duration":0.1263020833333357},{"name":"E5","midi":76,"time":39.010416666666686,"velocity":0.7401574803149606,"duration":0.1263020833333357},{"name":"D3","midi":50,"time":39.139322916666686,"velocity":0.7401574803149606,"duration":0.2552083333333357},{"name":"F5","midi":77,"time":39.139322916666686,"velocity":0.7401574803149606,"duration":0.1263020833333357},{"name":"E5","midi":76,"time":39.268229166666686,"velocity":0.7401574803149606,"duration":0.1263020833333357},{"name":"E3","midi":52,"time":39.397135416666686,"velocity":0.7401574803149606,"duration":0.2552083333333357},{"name":"F5","midi":77,"time":39.397135416666686,"velocity":0.7401574803149606,"duration":0.1263020833333357},{"name":"A5","midi":81,"time":39.526041666666686,"velocity":0.7401574803149606,"duration":0.1263020833333357},{"name":"F3","midi":53,"time":39.654947916666686,"velocity":0.7401574803149606,"duration":0.2552083333333428},{"name":"D5","midi":74,"time":39.654947916666686,"velocity":0.7401574803149606,"duration":0.1263020833333357},{"name":"C5","midi":72,"time":39.78255208333336,"velocity":0.7401574803149606,"duration":0.1263020833333357},{"name":"E3","midi":52,"time":39.911458333333364,"velocity":0.7401574803149606,"duration":0.2552083333333357},{"name":"D5","midi":74,"time":39.911458333333364,"velocity":0.7401574803149606,"duration":0.1263020833333357},{"name":"F5","midi":77,"time":40.040364583333364,"velocity":0.7401574803149606,"duration":0.1263020833333357},{"name":"D3","midi":50,"time":40.169270833333364,"velocity":0.7401574803149606,"duration":0.2552083333333357},{"name":"B4","midi":71,"time":40.169270833333364,"velocity":0.7401574803149606,"duration":0.1263020833333357},{"name":"A4","midi":69,"time":40.298177083333364,"velocity":0.7401574803149606,"duration":0.1263020833333357},{"name":"C3","midi":48,"time":40.427083333333364,"velocity":0.7401574803149606,"duration":0.2552083333333357},{"name":"B4","midi":71,"time":40.427083333333364,"velocity":0.7401574803149606,"duration":0.1263020833333357},{"name":"D5","midi":74,"time":40.555989583333364,"velocity":0.7401574803149606,"duration":0.1263020833333357},{"name":"B2","midi":47,"time":40.684895833333364,"velocity":0.7401574803149606,"duration":0.2552083333333428},{"name":"G#4","midi":68,"time":40.684895833333364,"velocity":0.7401574803149606,"duration":0.1263020833333357},{"name":"F#4","midi":66,"time":40.812500000000036,"velocity":0.7401574803149606,"duration":0.1263020833333357},{"name":"A2","midi":45,"time":40.94140625000004,"velocity":0.7401574803149606,"duration":0.2552083333333357},{"name":"G#4","midi":68,"time":40.94140625000004,"velocity":0.7401574803149606,"duration":0.1263020833333357},{"name":"B4","midi":71,"time":41.07031250000004,"velocity":0.7401574803149606,"duration":0.1263020833333357},{"name":"G#2","midi":44,"time":41.19921875000004,"velocity":0.7401574803149606,"duration":0.2552083333333357},{"name":"D5","midi":74,"time":41.19921875000004,"velocity":0.7401574803149606,"duration":0.1263020833333357},{"name":"C5","midi":72,"time":41.32812500000004,"velocity":0.7401574803149606,"duration":0.1263020833333357},{"name":"A2","midi":45,"time":41.45703125000004,"velocity":0.7401574803149606,"duration":0.2552083333333357},{"name":"D5","midi":74,"time":41.45703125000004,"velocity":0.7401574803149606,"duration":0.1263020833333357},{"name":"F5","midi":77,"time":41.58593750000004,"velocity":0.7401574803149606,"duration":0.1263020833333357},{"name":"G#2","midi":44,"time":41.71484375000004,"velocity":0.7401574803149606,"duration":0.2552083333333357},{"name":"B4","midi":71,"time":41.71484375000004,"velocity":0.7401574803149606,"duration":0.1263020833333357},{"name":"A4","midi":69,"time":41.84375000000004,"velocity":0.7401574803149606,"duration":0.1263020833333357},{"name":"F#2","midi":42,"time":41.971354166666714,"velocity":0.7401574803149606,"duration":0.2552083333333357},{"name":"B4","midi":71,"time":41.971354166666714,"velocity":0.7401574803149606,"duration":0.1263020833333357},{"name":"D5","midi":74,"time":42.100260416666714,"velocity":0.7401574803149606,"duration":0.1263020833333357},{"name":"E2","midi":40,"time":42.229166666666714,"velocity":0.7401574803149606,"duration":0.2552083333333357},{"name":"G#4","midi":68,"time":42.229166666666714,"velocity":0.7401574803149606,"duration":0.1263020833333357},{"name":"F#4","midi":66,"time":42.358072916666714,"velocity":0.7401574803149606,"duration":0.1263020833333357},{"name":"F#2","midi":42,"time":42.486979166666714,"velocity":0.7401574803149606,"duration":0.2552083333333357},{"name":"G#4","midi":68,"time":42.486979166666714,"velocity":0.7401574803149606,"duration":0.1263020833333357},{"name":"B4","midi":71,"time":42.615885416666714,"velocity":0.7401574803149606,"duration":0.1263020833333357},{"name":"G#2","midi":44,"time":42.744791666666714,"velocity":0.7401574803149606,"duration":0.2552083333333357},{"name":"E4","midi":64,"time":42.744791666666714,"velocity":0.7401574803149606,"duration":0.1263020833333357},{"name":"D#4","midi":63,"time":42.873697916666714,"velocity":0.7401574803149606,"duration":0.1263020833333357},{"name":"E2","midi":40,"time":43.001302083333385,"velocity":0.7401574803149606,"duration":0.2552083333333357},{"name":"E4","midi":64,"time":43.001302083333385,"velocity":0.7401574803149606,"duration":0.1263020833333357},{"name":"B4","midi":71,"time":43.130208333333385,"velocity":0.7401574803149606,"duration":0.1263020833333357},{"name":"A2","midi":45,"time":43.259114583333385,"velocity":0.7401574803149606,"duration":0.2552083333333357},{"name":"C5","midi":72,"time":43.259114583333385,"velocity":0.7401574803149606,"duration":0.25390625},{"name":"A4","midi":69,"time":43.388020833333385,"velocity":0.7401574803149606,"duration":0.1263020833333357},{"name":"B2","midi":47,"time":43.516927083333385,"velocity":0.7401574803149606,"duration":0.2552083333333357},{"name":"E4","midi":64,"time":43.516927083333385,"velocity":0.7401574803149606,"duration":0.1263020833333357},{"name":"D#4","midi":63,"time":43.645833333333385,"velocity":0.7401574803149606,"duration":0.1263020833333357},{"name":"C3","midi":48,"time":43.774739583333385,"velocity":0.7401574803149606,"duration":0.2552083333333357},{"name":"E4","midi":64,"time":43.774739583333385,"velocity":0.7401574803149606,"duration":0.1263020833333357},{"name":"A4","midi":69,"time":43.903645833333385,"velocity":0.7401574803149606,"duration":0.1263020833333357},{"name":"B2","midi":47,"time":44.03125000000006,"velocity":0.7401574803149606,"duration":0.2552083333333357},{"name":"C5","midi":72,"time":44.03125000000006,"velocity":0.7401574803149606,"duration":0.1263020833333357},{"name":"D5","midi":74,"time":44.16015625000006,"velocity":0.7401574803149606,"duration":0.1263020833333357},{"name":"A2","midi":45,"time":44.28906250000006,"velocity":0.7401574803149606,"duration":0.2552083333333357},{"name":"C5","midi":72,"time":44.28906250000006,"velocity":0.7401574803149606,"duration":0.25390625},{"name":"A4","midi":69,"time":44.41796875000006,"velocity":0.7401574803149606,"duration":0.1263020833333357},{"name":"B2","midi":47,"time":44.54687500000006,"velocity":0.7401574803149606,"duration":0.2552083333333357},{"name":"E4","midi":64,"time":44.54687500000006,"velocity":0.7401574803149606,"duration":0.1263020833333357},{"name":"D#4","midi":63,"time":44.67578125000006,"velocity":0.7401574803149606,"duration":0.1263020833333357},{"name":"C3","midi":48,"time":44.80468750000006,"velocity":0.7401574803149606,"duration":0.2552083333333357},{"name":"E4","midi":64,"time":44.80468750000006,"velocity":0.7401574803149606,"duration":0.1263020833333357},{"name":"A4","midi":69,"time":44.93359375000006,"velocity":0.7401574803149606,"duration":0.1263020833333357},{"name":"B2","midi":47,"time":45.06250000000006,"velocity":0.7401574803149606,"duration":0.2552083333333428},{"name":"C5","midi":72,"time":45.06250000000006,"velocity":0.7401574803149606,"duration":0.1263020833333357},{"name":"D5","midi":74,"time":45.19010416666673,"velocity":0.7401574803149606,"duration":0.1263020833333357},{"name":"A2","midi":45,"time":45.319010416666735,"velocity":0.7401574803149606,"duration":0.2552083333333357},{"name":"C5","midi":72,"time":45.319010416666735,"velocity":0.7401574803149606,"duration":0.3216145833333357},{"name":"A4","midi":69,"time":45.447916666666735,"velocity":0.7401574803149606,"duration":0.1263020833333357},{"name":"B2","midi":47,"time":45.576822916666735,"velocity":0.7401574803149606,"duration":0.2552083333333357},{"name":"F#4","midi":66,"time":45.576822916666735,"velocity":0.7401574803149606,"duration":0.1263020833333357},{"name":"E4","midi":64,"time":45.705729166666735,"velocity":0.7401574803149606,"duration":0.1263020833333357},{"name":"C3","midi":48,"time":45.834635416666735,"velocity":0.7401574803149606,"duration":0.2552083333333357},{"name":"F#4","midi":66,"time":45.834635416666735,"velocity":0.7401574803149606,"duration":0.1263020833333357},{"name":"A4","midi":69,"time":45.963541666666735,"velocity":0.7401574803149606,"duration":0.1263020833333357},{"name":"B2","midi":47,"time":46.092447916666735,"velocity":0.7401574803149606,"duration":0.2552083333333428},{"name":"C5","midi":72,"time":46.092447916666735,"velocity":0.7401574803149606,"duration":0.1263020833333357},{"name":"D5","midi":74,"time":46.22005208333341,"velocity":0.7401574803149606,"duration":0.1263020833333357},{"name":"A2","midi":45,"time":46.348958333333414,"velocity":0.7401574803149606,"duration":0.2552083333333357},{"name":"C5","midi":72,"time":46.348958333333414,"velocity":0.7401574803149606,"duration":0.375},{"name":"A4","midi":69,"time":46.477864583333414,"velocity":0.7401574803149606,"duration":0.1263020833333357},{"name":"B2","midi":47,"time":46.606770833333414,"velocity":0.7401574803149606,"duration":0.2552083333333357},{"name":"F#4","midi":66,"time":46.606770833333414,"velocity":0.7401574803149606,"duration":0.1263020833333357},{"name":"E4","midi":64,"time":46.735677083333414,"velocity":0.7401574803149606,"duration":0.1263020833333357},{"name":"C3","midi":48,"time":46.864583333333414,"velocity":0.7401574803149606,"duration":0.2552083333333357},{"name":"F#4","midi":66,"time":46.864583333333414,"velocity":0.7401574803149606,"duration":0.1263020833333357},{"name":"A4","midi":69,"time":46.993489583333414,"velocity":0.7401574803149606,"duration":0.1263020833333357},{"name":"B2","midi":47,"time":47.122395833333414,"velocity":0.7401574803149606,"duration":0.2552083333333428},{"name":"C5","midi":72,"time":47.122395833333414,"velocity":0.7401574803149606,"duration":0.1263020833333357},{"name":"E5","midi":76,"time":47.250000000000085,"velocity":0.7401574803149606,"duration":0.1263020833333357},{"name":"A2","midi":45,"time":47.37890625000009,"velocity":0.7401574803149606,"duration":0.2552083333333357},{"name":"D#5","midi":75,"time":47.37890625000009,"velocity":0.7401574803149606,"duration":0.5091145833333357},{"name":"C5","midi":72,"time":47.50781250000009,"velocity":0.7401574803149606,"duration":0.1263020833333357},{"name":"B2","midi":47,"time":47.63671875000009,"velocity":0.7401574803149606,"duration":0.2552083333333357},{"name":"A4","midi":69,"time":47.63671875000009,"velocity":0.7401574803149606,"duration":0.1263020833333357},{"name":"G#4","midi":68,"time":47.76562500000009,"velocity":0.7401574803149606,"duration":0.1263020833333357},{"name":"C3","midi":48,"time":47.89453125000009,"velocity":0.7401574803149606,"duration":0.2552083333333357},{"name":"A4","midi":69,"time":47.89453125000009,"velocity":0.7401574803149606,"duration":0.1263020833333357},{"name":"C5","midi":72,"time":48.02343750000009,"velocity":0.7401574803149606,"duration":0.1263020833333357},{"name":"B2","midi":47,"time":48.15234375000009,"velocity":0.7401574803149606,"duration":0.2552083333333357},{"name":"D#5","midi":75,"time":48.15234375000009,"velocity":0.7401574803149606,"duration":0.1263020833333357},{"name":"E5","midi":76,"time":48.28125000000009,"velocity":0.7401574803149606,"duration":0.1263020833333357},{"name":"A2","midi":45,"time":48.408854166666764,"velocity":0.7401574803149606,"duration":0.2552083333333357},{"name":"D#5","midi":75,"time":48.408854166666764,"velocity":0.7401574803149606,"duration":0.5091145833333357},{"name":"C5","midi":72,"time":48.537760416666764,"velocity":0.7401574803149606,"duration":0.1263020833333357},{"name":"B2","midi":47,"time":48.666666666666764,"velocity":0.7401574803149606,"duration":0.2552083333333357},{"name":"A4","midi":69,"time":48.666666666666764,"velocity":0.7401574803149606,"duration":0.1263020833333357},{"name":"G#4","midi":68,"time":48.795572916666764,"velocity":0.7401574803149606,"duration":0.1263020833333357},{"name":"C3","midi":48,"time":48.924479166666764,"velocity":0.7401574803149606,"duration":0.2552083333333357},{"name":"A4","midi":69,"time":48.924479166666764,"velocity":0.7401574803149606,"duration":0.1263020833333357},{"name":"C5","midi":72,"time":49.053385416666764,"velocity":0.7401574803149606,"duration":0.1263020833333357},{"name":"A2","midi":45,"time":49.182291666666764,"velocity":0.7401574803149606,"duration":0.2552083333333357},{"name":"D#5","midi":75,"time":49.182291666666764,"velocity":0.7401574803149606,"duration":0.1263020833333357},{"name":"F#5","midi":78,"time":49.311197916666764,"velocity":0.7401574803149606,"duration":0.1263020833333357},{"name":"D#2","midi":39,"time":49.438802083333435,"velocity":0.7401574803149606,"duration":0.7708333333333357},{"name":"A5","midi":81,"time":49.438802083333435,"velocity":0.7401574803149606,"duration":0.1263020833333357},{"name":"G5","midi":79,"time":49.567708333333435,"velocity":0.7401574803149606,"duration":0.1263020833333357},{"name":"F#5","midi":78,"time":49.696614583333435,"velocity":0.7401574803149606,"duration":0.1263020833333357},{"name":"E5","midi":76,"time":49.825520833333435,"velocity":0.7401574803149606,"duration":0.1263020833333357},{"name":"D#5","midi":75,"time":49.954427083333435,"velocity":0.7401574803149606,"duration":0.1263020833333357},{"name":"C#5","midi":73,"time":50.083333333333435,"velocity":0.7401574803149606,"duration":0.1263020833333357},{"name":"B4","midi":71,"time":50.212239583333435,"velocity":0.7401574803149606,"duration":0.1263020833333357},{"name":"A#4","midi":70,"time":50.341145833333435,"velocity":0.7401574803149606,"duration":0.1263020833333357},{"name":"B2","midi":47,"time":50.46875000000011,"velocity":0.7401574803149606,"duration":0.5130208333333357},{"name":"B4","midi":71,"time":50.46875000000011,"velocity":0.7401574803149606,"duration":0.1263020833333357},{"name":"C#5","midi":73,"time":50.59765625000011,"velocity":0.7401574803149606,"duration":0.1263020833333357},{"name":"D#5","midi":75,"time":50.72656250000011,"velocity":0.7401574803149606,"duration":0.1263020833333357},{"name":"E5","midi":76,"time":50.85546875000011,"velocity":0.7401574803149606,"duration":0.1263020833333357},{"name":"A2","midi":45,"time":50.98437500000011,"velocity":0.7401574803149606,"duration":0.5130208333333357},{"name":"F#5","midi":78,"time":50.98437500000011,"velocity":0.7401574803149606,"duration":0.1263020833333357},{"name":"G5","midi":79,"time":51.11328125000011,"velocity":0.7401574803149606,"duration":0.1263020833333357},{"name":"A5","midi":81,"time":51.24218750000011,"velocity":0.7401574803149606,"duration":0.1263020833333357},{"name":"F#5","midi":78,"time":51.37109375000011,"velocity":0.7401574803149606,"duration":0.1263020833333357},{"name":"G2","midi":43,"time":51.50000000000011,"velocity":0.7401574803149606,"duration":0.1263020833333357},{"name":"B5","midi":83,"time":51.50000000000011,"velocity":0.7401574803149606,"duration":0.7708333333333428},{"name":"B2","midi":47,"time":51.62760416666678,"velocity":0.7401574803149606,"duration":0.1263020833333357},{"name":"C#3","midi":49,"time":51.75651041666678,"velocity":0.7401574803149606,"duration":0.1263020833333357},{"name":"D#3","midi":51,"time":51.88541666666678,"velocity":0.7401574803149606,"duration":0.1263020833333357},{"name":"E3","midi":52,"time":52.01432291666678,"velocity":0.7401574803149606,"duration":0.1263020833333357},{"name":"F#3","midi":54,"time":52.14322916666678,"velocity":0.7401574803149606,"duration":0.1263020833333357},{"name":"G3","midi":55,"time":52.272135416666785,"velocity":0.7401574803149606,"duration":0.1263020833333357},{"name":"E5","midi":76,"time":52.272135416666785,"velocity":0.7401574803149606,"duration":0.2552083333333357},{"name":"A3","midi":57,"time":52.401041666666785,"velocity":0.7401574803149606,"duration":0.1263020833333357},{"name":"B3","midi":59,"time":52.529947916666785,"velocity":0.7401574803149606,"duration":0.5130208333333357},{"name":"E5","midi":76,"time":52.529947916666785,"velocity":0.7401574803149606,"duration":0.5091145833333357},{"name":"G5","midi":79,"time":52.529947916666785,"velocity":0.7401574803149606,"duration":0.1067708333333357},{"name":"F#5","midi":78,"time":52.623697916666785,"velocity":0.7401574803149606,"duration":0.1067708333333357},{"name":"G5","midi":79,"time":52.717447916666785,"velocity":0.7401574803149606,"duration":0.3203125},{"name":"B2","midi":47,"time":53.04427083333346,"velocity":0.7401574803149606,"duration":0.5091145833333357},{"name":"D#5","midi":75,"time":53.04427083333346,"velocity":0.7401574803149606,"duration":0.5130208333333357},{"name":"B4","midi":71,"time":53.04427083333346,"velocity":0.7401574803149606,"duration":0.5130208333333357},{"name":"F#5","midi":78,"time":53.04427083333346,"velocity":0.7401574803149606,"duration":0.5130208333333357},{"name":"G4","midi":67,"time":53.55989583333346,"velocity":0.7401574803149606,"duration":1.54296875},{"name":"E5","midi":76,"time":53.55989583333346,"velocity":0.7401574803149606,"duration":1.54296875},{"name":"B4","midi":71,"time":53.55989583333346,"velocity":0.7401574803149606,"duration":1.54296875},{"name":"E3","midi":52,"time":53.68750000000012,"velocity":0.7401574803149606,"duration":0.1263020833333357},{"name":"F#3","midi":54,"time":53.81640625000012,"velocity":0.7401574803149606,"duration":0.1263020833333357},{"name":"G3","midi":55,"time":53.94531250000012,"velocity":0.7401574803149606,"duration":0.1263020833333357},{"name":"A3","midi":57,"time":54.07421875000012,"velocity":0.7401574803149606,"duration":0.1263020833333357},{"name":"B3","midi":59,"time":54.20312500000012,"velocity":0.7401574803149606,"duration":0.1263020833333357},{"name":"C#4","midi":61,"time":54.33203125000012,"velocity":0.7401574803149606,"duration":0.1263020833333357},{"name":"D#4","midi":63,"time":54.46093750000012,"velocity":0.7401574803149606,"duration":0.1263020833333357},{"name":"E4","midi":64,"time":54.58984375000012,"velocity":0.7401574803149606,"duration":3.21614583333335},{"name":"G5","midi":79,"time":55.10416666666679,"velocity":0.7401574803149606,"duration":0.5130208333333357},{"name":"B4","midi":71,"time":55.10416666666679,"velocity":0.7401574803149606,"duration":0.5130208333333357},{"name":"A5","midi":81,"time":55.61979166666679,"velocity":0.7401574803149606,"duration":0.5130208333333357},{"name":"C5","midi":72,"time":55.61979166666679,"velocity":0.7401574803149606,"duration":0.5130208333333357},{"name":"G5","midi":79,"time":56.134114583333464,"velocity":0.7401574803149606,"duration":0.5130208333333357},{"name":"B4","midi":71,"time":56.134114583333464,"velocity":0.7401574803149606,"duration":0.5130208333333357},{"name":"A5","midi":81,"time":56.649739583333464,"velocity":0.7401574803149606,"duration":0.5130208333333357},{"name":"C5","midi":72,"time":56.649739583333464,"velocity":0.7401574803149606,"duration":0.5130208333333357},{"name":"A4","midi":69,"time":57.164062500000135,"velocity":0.7401574803149606,"duration":0.5130208333333357},{"name":"F#5","midi":78,"time":57.164062500000135,"velocity":0.7401574803149606,"duration":0.5130208333333357},{"name":"G5","midi":79,"time":57.679687500000135,"velocity":0.7401574803149606,"duration":1.542968750000007},{"name":"B4","midi":71,"time":57.679687500000135,"velocity":0.7401574803149606,"duration":1.542968750000007},{"name":"E2","midi":40,"time":57.808593750000135,"velocity":0.7401574803149606,"duration":0.1263020833333357},{"name":"F#2","midi":42,"time":57.937500000000135,"velocity":0.7401574803149606,"duration":0.1263020833333357},{"name":"G2","midi":43,"time":58.065104166666806,"velocity":0.7401574803149606,"duration":0.1263020833333357},{"name":"A2","midi":45,"time":58.194010416666806,"velocity":0.7401574803149606,"duration":0.1263020833333357},{"name":"B2","midi":47,"time":58.322916666666806,"velocity":0.7401574803149606,"duration":0.1263020833333357},{"name":"C#3","midi":49,"time":58.451822916666806,"velocity":0.7401574803149606,"duration":0.1263020833333357},{"name":"D#3","midi":51,"time":58.580729166666806,"velocity":0.7401574803149606,"duration":0.1263020833333357},{"name":"E3","midi":52,"time":58.709635416666806,"velocity":0.7401574803149606,"duration":3.21614583333335},{"name":"G4","midi":67,"time":59.22395833333348,"velocity":0.7401574803149606,"duration":0.5130208333333357},{"name":"E5","midi":76,"time":59.22395833333348,"velocity":0.7401574803149606,"duration":0.5130208333333357},{"name":"B4","midi":71,"time":59.22395833333348,"velocity":0.7401574803149606,"duration":0.5130208333333357},{"name":"F#5","midi":78,"time":59.73958333333348,"velocity":0.7401574803149606,"duration":0.5130208333333357},{"name":"C5","midi":72,"time":59.73958333333348,"velocity":0.7401574803149606,"duration":0.5130208333333357},{"name":"A4","midi":69,"time":59.73958333333348,"velocity":0.7401574803149606,"duration":0.5130208333333357},{"name":"G4","midi":67,"time":60.25390625000015,"velocity":0.7401574803149606,"duration":0.5130208333333357},{"name":"E5","midi":76,"time":60.25390625000015,"velocity":0.7401574803149606,"duration":0.5130208333333357},{"name":"B4","midi":71,"time":60.25390625000015,"velocity":0.7401574803149606,"duration":0.5130208333333357},{"name":"F#5","midi":78,"time":60.76953125000015,"velocity":0.7401574803149606,"duration":0.5130208333333357},{"name":"A4","midi":69,"time":60.76953125000015,"velocity":0.7401574803149606,"duration":0.5130208333333357},{"name":"C5","midi":72,"time":60.76953125000015,"velocity":0.7401574803149606,"duration":0.5130208333333357},{"name":"A4","midi":69,"time":61.28385416666682,"velocity":0.7401574803149606,"duration":0.5130208333333357},{"name":"F#4","midi":66,"time":61.28385416666682,"velocity":0.7401574803149606,"duration":0.5130208333333357},{"name":"D#5","midi":75,"time":61.28385416666682,"velocity":0.7401574803149606,"duration":0.5130208333333357},{"name":"B4","midi":71,"time":61.79947916666682,"velocity":0.7401574803149606,"duration":1.542968750000007},{"name":"G4","midi":67,"time":61.79947916666682,"velocity":0.7401574803149606,"duration":1.542968750000007},{"name":"E5","midi":76,"time":61.79947916666682,"velocity":0.7401574803149606,"duration":1.542968750000007},{"name":"E3","midi":52,"time":61.92838541666682,"velocity":0.7401574803149606,"duration":0.1263020833333357},{"name":"F#3","midi":54,"time":62.05729166666682,"velocity":0.7401574803149606,"duration":0.1263020833333357},{"name":"G3","midi":55,"time":62.18619791666682,"velocity":0.7401574803149606,"duration":0.1263020833333357},{"name":"A3","midi":57,"time":62.31380208333349,"velocity":0.7401574803149606,"duration":0.1263020833333357},{"name":"B3","midi":59,"time":62.44270833333349,"velocity":0.7401574803149606,"duration":0.1263020833333357},{"name":"C#4","midi":61,"time":62.57161458333349,"velocity":0.7401574803149606,"duration":0.1263020833333357},{"name":"D#4","midi":63,"time":62.70052083333349,"velocity":0.7401574803149606,"duration":0.1263020833333357},{"name":"E4","midi":64,"time":62.82942708333349,"velocity":0.7401574803149606,"duration":0.5091145833333357},{"name":"G5","midi":79,"time":63.34375000000016,"velocity":0.7401574803149606,"duration":0.5130208333333357},{"name":"A#4","midi":70,"time":63.34375000000016,"velocity":0.7401574803149606,"duration":0.5130208333333357},{"name":"G5","midi":79,"time":63.85937500000016,"velocity":0.7401574803149606,"duration":0.5130208333333357},{"name":"A#4","midi":70,"time":63.85937500000016,"velocity":0.7401574803149606,"duration":0.5130208333333357},{"name":"A2","midi":45,"time":63.98828125000016,"velocity":0.7401574803149606,"duration":0.1263020833333357},{"name":"B2","midi":47,"time":64.11718750000017,"velocity":0.7401574803149606,"duration":0.1263020833333286},{"name":"C#3","midi":49,"time":64.24609375000017,"velocity":0.7401574803149606,"duration":0.1263020833333286},{"name":"D3","midi":50,"time":64.37500000000017,"velocity":0.7401574803149606,"duration":0.1263020833333286},{"name":"C#5","midi":73,"time":64.37500000000017,"velocity":0.7401574803149606,"duration":0.9388020833333286},{"name":"A4","midi":69,"time":64.37500000000017,"velocity":0.7401574803149606,"duration":0.9388020833333286},{"name":"E3","midi":52,"time":64.50260416666683,"velocity":0.7401574803149606,"duration":0.1263020833333286},{"name":"F3","midi":53,"time":64.63151041666683,"velocity":0.7401574803149606,"duration":0.1263020833333286},{"name":"G3","midi":55,"time":64.76041666666683,"velocity":0.7401574803149606,"duration":0.1263020833333286},{"name":"A3","midi":57,"time":64.88932291666683,"velocity":0.7401574803149606,"duration":1.0286458333333286},{"name":"G4","midi":67,"time":65.40494791666683,"velocity":0.7401574803149606,"duration":0.5130208333333286},{"name":"E5","midi":76,"time":65.40494791666683,"velocity":0.7401574803149606,"duration":0.5130208333333286},{"name":"E5","midi":76,"time":65.91927083333348,"velocity":0.7401574803149606,"duration":0.5130208333333286},{"name":"G4","midi":67,"time":65.91927083333348,"velocity":0.7401574803149606,"duration":0.5130208333333286},{"name":"D3","midi":50,"time":66.04817708333348,"velocity":0.7401574803149606,"duration":0.1263020833333286},{"name":"E3","midi":52,"time":66.17708333333348,"velocity":0.7401574803149606,"duration":0.1263020833333286},{"name":"F3","midi":53,"time":66.30598958333348,"velocity":0.7401574803149606,"duration":0.1263020833333286},{"name":"G3","midi":55,"time":66.43489583333348,"velocity":0.7401574803149606,"duration":0.1263020833333286},{"name":"F4","midi":65,"time":66.43489583333348,"velocity":0.7401574803149606,"duration":0.9388020833333286},{"name":"D5","midi":74,"time":66.43489583333348,"velocity":0.7401574803149606,"duration":0.9388020833333286},{"name":"A3","midi":57,"time":66.56250000000014,"velocity":0.7401574803149606,"duration":0.1263020833333286},{"name":"B3","midi":59,"time":66.69140625000014,"velocity":0.7401574803149606,"duration":0.1263020833333286},{"name":"C#4","midi":61,"time":66.82031250000014,"velocity":0.7401574803149606,"duration":0.1263020833333286},{"name":"D4","midi":62,"time":66.94921875000014,"velocity":0.7401574803149606,"duration":1.0286458333333286},{"name":"G#4","midi":68,"time":67.46484375000014,"velocity":0.7401574803149606,"duration":0.5130208333333286},{"name":"F5","midi":77,"time":67.46484375000014,"velocity":0.7401574803149606,"duration":0.5130208333333286},{"name":"F5","midi":77,"time":67.9791666666668,"velocity":0.7401574803149606,"duration":0.5130208333333286},{"name":"G#4","midi":68,"time":67.9791666666668,"velocity":0.7401574803149606,"duration":0.5130208333333286},{"name":"G2","midi":43,"time":68.1080729166668,"velocity":0.7401574803149606,"duration":0.1263020833333286},{"name":"A2","midi":45,"time":68.2369791666668,"velocity":0.7401574803149606,"duration":0.1263020833333286},{"name":"B2","midi":47,"time":68.3658854166668,"velocity":0.7401574803149606,"duration":0.1263020833333286},{"name":"C3","midi":48,"time":68.4947916666668,"velocity":0.7401574803149606,"duration":0.1263020833333286},{"name":"B4","midi":71,"time":68.4947916666668,"velocity":0.7401574803149606,"duration":1.0325520833333286},{"name":"G4","midi":67,"time":68.4947916666668,"velocity":0.7401574803149606,"duration":0.9388020833333286},{"name":"D3","midi":50,"time":68.6236979166668,"velocity":0.7401574803149606,"duration":0.1263020833333286},{"name":"E3","midi":52,"time":68.75130208333346,"velocity":0.7401574803149606,"duration":0.1263020833333286},{"name":"F3","midi":53,"time":68.88020833333346,"velocity":0.7401574803149606,"duration":0.1263020833333286},{"name":"G3","midi":55,"time":69.00911458333346,"velocity":0.7401574803149606,"duration":1.0286458333333428},{"name":"D5","midi":74,"time":69.52473958333346,"velocity":0.7401574803149606,"duration":0.5130208333333428},{"name":"F4","midi":65,"time":69.52473958333346,"velocity":0.7401574803149606,"duration":0.5130208333333428},{"name":"D5","midi":74,"time":70.03906250000013,"velocity":0.7401574803149606,"duration":0.5130208333333286},{"name":"F4","midi":65,"time":70.03906250000013,"velocity":0.7401574803149606,"duration":0.5130208333333286},{"name":"C3","midi":48,"time":70.16796875000013,"velocity":0.7401574803149606,"duration":0.1263020833333286},{"name":"D3","midi":50,"time":70.29687500000013,"velocity":0.7401574803149606,"duration":0.1263020833333286},{"name":"E3","midi":52,"time":70.42578125000013,"velocity":0.7401574803149606,"duration":0.1263020833333286},{"name":"F3","midi":53,"time":70.55468750000013,"velocity":0.7401574803149606,"duration":0.1263020833333286},{"name":"C5","midi":72,"time":70.55468750000013,"velocity":0.7401574803149606,"duration":0.6419270833333428},{"name":"E4","midi":64,"time":70.55468750000013,"velocity":0.7401574803149606,"duration":0.5091145833333286},{"name":"G3","midi":55,"time":70.68359375000013,"velocity":0.7401574803149606,"duration":0.1263020833333286},{"name":"A3","midi":57,"time":70.81250000000013,"velocity":0.7401574803149606,"duration":0.1263020833333286},{"name":"B3","midi":59,"time":70.94010416666679,"velocity":0.7401574803149606,"duration":0.1263020833333428},{"name":"C4","midi":60,"time":71.0690104166668,"velocity":0.7401574803149606,"duration":0.5130208333333286},{"name":"B4","midi":71,"time":71.1979166666668,"velocity":0.7401574803149606,"duration":0.1263020833333286},{"name":"C5","midi":72,"time":71.3268229166668,"velocity":0.7401574803149606,"duration":0.1263020833333286},{"name":"D5","midi":74,"time":71.4557291666668,"velocity":0.7401574803149606,"duration":0.1263020833333286},{"name":"E3","midi":52,"time":71.5846354166668,"velocity":0.7401574803149606,"duration":0.5130208333333144},{"name":"C5","midi":72,"time":71.5846354166668,"velocity":0.7401574803149606,"duration":0.1263020833333286},{"name":"B4","midi":71,"time":71.7135416666668,"velocity":0.7401574803149606,"duration":0.1263020833333286},{"name":"A4","midi":69,"time":71.8424479166668,"velocity":0.7401574803149606,"duration":0.1263020833333286},{"name":"G#4","midi":68,"time":71.97005208333346,"velocity":0.7401574803149606,"duration":0.1263020833333286},{"name":"F3","midi":53,"time":72.09895833333344,"velocity":0.7401574803149606,"duration":0.5130208333333286},{"name":"A4","midi":69,"time":72.09895833333344,"velocity":0.7401574803149606,"duration":0.1263020833333286},{"name":"C5","midi":72,"time":72.22786458333344,"velocity":0.7401574803149606,"duration":0.1263020833333286},{"name":"D5","midi":74,"time":72.35677083333344,"velocity":0.7401574803149606,"duration":0.1263020833333286},{"name":"E5","midi":76,"time":72.48567708333344,"velocity":0.7401574803149606,"duration":0.1263020833333286},{"name":"F#3","midi":54,"time":72.61458333333344,"velocity":0.7401574803149606,"duration":0.5130208333333144},{"name":"D5","midi":74,"time":72.61458333333344,"velocity":0.7401574803149606,"duration":0.1263020833333286},{"name":"C5","midi":72,"time":72.74348958333344,"velocity":0.7401574803149606,"duration":0.1263020833333286},{"name":"B4","midi":71,"time":72.87239583333344,"velocity":0.7401574803149606,"duration":0.1263020833333286},{"name":"A4","midi":69,"time":73.0000000000001,"velocity":0.7401574803149606,"duration":0.1263020833333286},{"name":"G3","midi":55,"time":73.12890625000009,"velocity":0.7401574803149606,"duration":0.5130208333333286},{"name":"B4","midi":71,"time":73.12890625000009,"velocity":0.7401574803149606,"duration":0.1263020833333286},{"name":"D5","midi":74,"time":73.25781250000009,"velocity":0.7401574803149606,"duration":0.1263020833333286},{"name":"E5","midi":76,"time":73.38671875000009,"velocity":0.7401574803149606,"duration":0.1263020833333286},{"name":"F5","midi":77,"time":73.51562500000009,"velocity":0.7401574803149606,"duration":0.1263020833333286},{"name":"G#3","midi":56,"time":73.64453125000009,"velocity":0.7401574803149606,"duration":0.5091145833333286},{"name":"E5","midi":76,"time":73.64453125000009,"velocity":0.7401574803149606,"duration":0.1263020833333286},{"name":"D5","midi":74,"time":73.77343750000009,"velocity":0.7401574803149606,"duration":0.1263020833333286},{"name":"C5","midi":72,"time":73.90234375000009,"velocity":0.7401574803149606,"duration":0.1263020833333286},{"name":"B4","midi":71,"time":74.03125000000009,"velocity":0.7401574803149606,"duration":0.1263020833333286},{"name":"C5","midi":72,"time":74.15885416666674,"velocity":0.7401574803149606,"duration":0.3216145833333286},{"name":"A3","midi":57,"time":74.28776041666674,"velocity":0.7401574803149606,"duration":0.1263020833333286},{"name":"B3","midi":59,"time":74.41666666666674,"velocity":0.7401574803149606,"duration":0.1263020833333286},{"name":"C4","midi":60,"time":74.54557291666674,"velocity":0.7401574803149606,"duration":0.1263020833333286},{"name":"D4","midi":62,"time":74.67447916666674,"velocity":0.7401574803149606,"duration":0.1263020833333286},{"name":"A4","midi":69,"time":74.67447916666674,"velocity":0.7401574803149606,"duration":0.5091145833333286},{"name":"E4","midi":64,"time":74.80338541666674,"velocity":0.7401574803149606,"duration":0.1263020833333286},{"name":"F#4","midi":66,"time":74.93229166666674,"velocity":0.7401574803149606,"duration":0.1263020833333286},{"name":"G#4","midi":68,"time":75.06119791666674,"velocity":0.7401574803149606,"duration":0.1263020833333286},{"name":"A4","midi":69,"time":75.1888020833334,"velocity":0.7401574803149606,"duration":0.5130208333333286},{"name":"E5","midi":76,"time":75.3177083333334,"velocity":0.7401574803149606,"duration":0.1263020833333286},{"name":"F5","midi":77,"time":75.4466145833334,"velocity":0.7401574803149606,"duration":0.1263020833333286},{"name":"G5","midi":79,"time":75.5755208333334,"velocity":0.7401574803149606,"duration":0.1263020833333286},{"name":"A3","midi":57,"time":75.7044270833334,"velocity":0.7401574803149606,"duration":0.5130208333333286},{"name":"F5","midi":77,"time":75.7044270833334,"velocity":0.7401574803149606,"duration":0.1263020833333286},{"name":"E5","midi":76,"time":75.8333333333334,"velocity":0.7401574803149606,"duration":0.1263020833333286},{"name":"D5","midi":74,"time":75.9622395833334,"velocity":0.7401574803149606,"duration":0.1263020833333286},{"name":"C#5","midi":73,"time":76.0911458333334,"velocity":0.7401574803149606,"duration":0.1263020833333286},{"name":"A#3","midi":58,"time":76.21875000000006,"velocity":0.7401574803149606,"duration":0.5130208333333286},{"name":"D5","midi":74,"time":76.21875000000006,"velocity":0.7401574803149606,"duration":0.1263020833333286},{"name":"F5","midi":77,"time":76.34765625000006,"velocity":0.7401574803149606,"duration":0.1263020833333286},{"name":"G5","midi":79,"time":76.47656250000006,"velocity":0.7401574803149606,"duration":0.1263020833333286},{"name":"A5","midi":81,"time":76.60546875000006,"velocity":0.7401574803149606,"duration":0.1263020833333286},{"name":"B3","midi":59,"time":76.73437500000006,"velocity":0.7401574803149606,"duration":0.5130208333333286},{"name":"G5","midi":79,"time":76.73437500000006,"velocity":0.7401574803149606,"duration":0.1263020833333286},{"name":"F5","midi":77,"time":76.86328125000006,"velocity":0.7401574803149606,"duration":0.1263020833333286},{"name":"E5","midi":76,"time":76.99218750000006,"velocity":0.7401574803149606,"duration":0.1263020833333286},{"name":"D5","midi":74,"time":77.12109375000006,"velocity":0.7401574803149606,"duration":0.1263020833333286},{"name":"C4","midi":60,"time":77.25000000000006,"velocity":0.7401574803149606,"duration":0.5130208333333144},{"name":"E5","midi":76,"time":77.25000000000006,"velocity":0.7401574803149606,"duration":0.1263020833333286},{"name":"G5","midi":79,"time":77.37760416666671,"velocity":0.7401574803149606,"duration":0.1263020833333286},{"name":"A5","midi":81,"time":77.50651041666671,"velocity":0.7401574803149606,"duration":0.1263020833333286},{"name":"A#5","midi":82,"time":77.63541666666671,"velocity":0.7401574803149606,"duration":0.1263020833333286},{"name":"C#4","midi":61,"time":77.7643229166667,"velocity":0.7401574803149606,"duration":0.5091145833333286},{"name":"A5","midi":81,"time":77.7643229166667,"velocity":0.7401574803149606,"duration":0.1263020833333286},{"name":"G5","midi":79,"time":77.8932291666667,"velocity":0.7401574803149606,"duration":0.1263020833333286},{"name":"F5","midi":77,"time":78.0221354166667,"velocity":0.7401574803149606,"duration":0.1263020833333286},{"name":"E5","midi":76,"time":78.1510416666667,"velocity":0.7401574803149606,"duration":0.1263020833333286},{"name":"F5","midi":77,"time":78.2799479166667,"velocity":0.7401574803149606,"duration":0.3216145833333428},{"name":"D4","midi":62,"time":78.40755208333337,"velocity":0.7401574803149606,"duration":0.1263020833333286},{"name":"E4","midi":64,"time":78.53645833333337,"velocity":0.7401574803149606,"duration":0.1263020833333428},{"name":"F4","midi":65,"time":78.66536458333339,"velocity":0.7401574803149606,"duration":0.1263020833333286},{"name":"G4","midi":67,"time":78.79427083333339,"velocity":0.7401574803149606,"duration":0.1263020833333286},{"name":"D5","midi":74,"time":78.79427083333339,"velocity":0.7401574803149606,"duration":0.5091145833333286},{"name":"A4","midi":69,"time":78.92317708333339,"velocity":0.7401574803149606,"duration":0.1263020833333286},{"name":"B4","midi":71,"time":79.05208333333339,"velocity":0.7401574803149606,"duration":0.1263020833333286},{"name":"C#5","midi":73,"time":79.18098958333339,"velocity":0.7401574803149606,"duration":0.1263020833333286},{"name":"D5","midi":74,"time":79.30989583333339,"velocity":0.7401574803149606,"duration":0.5130208333333286},{"name":"E5","midi":76,"time":79.43750000000006,"velocity":0.7401574803149606,"duration":0.1263020833333286},{"name":"F5","midi":77,"time":79.56640625000006,"velocity":0.7401574803149606,"duration":0.1263020833333286},{"name":"G5","midi":79,"time":79.69531250000006,"velocity":0.7401574803149606,"duration":0.1263020833333286},{"name":"D4","midi":62,"time":79.82421875000004,"velocity":0.7401574803149606,"duration":0.6419270833333286},{"name":"F5","midi":77,"time":79.82421875000004,"velocity":0.7401574803149606,"duration":0.1263020833333286},{"name":"E5","midi":76,"time":79.95312500000004,"velocity":0.7401574803149606,"duration":0.1263020833333286},{"name":"D5","midi":74,"time":80.08203125000004,"velocity":0.7401574803149606,"duration":0.1263020833333286},{"name":"C5","midi":72,"time":80.21093750000004,"velocity":0.7401574803149606,"duration":0.1263020833333286},{"name":"A#4","midi":70,"time":80.33984375000004,"velocity":0.7401574803149606,"duration":0.3216145833333286},{"name":"D4","midi":62,"time":80.46875000000004,"velocity":0.7401574803149606,"duration":0.1263020833333286},{"name":"C#4","midi":61,"time":80.5963541666667,"velocity":0.7401574803149606,"duration":0.1263020833333428},{"name":"D4","midi":62,"time":80.72526041666671,"velocity":0.7401574803149606,"duration":0.1263020833333286},{"name":"E4","midi":64,"time":80.85416666666671,"velocity":0.7401574803149606,"duration":0.1263020833333286},{"name":"F5","midi":77,"time":80.85416666666671,"velocity":0.7401574803149606,"duration":0.6419270833333286},{"name":"D4","midi":62,"time":80.98307291666671,"velocity":0.7401574803149606,"duration":0.1263020833333286},{"name":"C#4","midi":61,"time":81.11197916666671,"velocity":0.7401574803149606,"duration":0.1263020833333286},{"name":"D4","midi":62,"time":81.24088541666671,"velocity":0.7401574803149606,"duration":0.1263020833333286},{"name":"D3","midi":50,"time":81.36979166666671,"velocity":0.7401574803149606,"duration":0.5130208333333144},{"name":"D5","midi":74,"time":81.49869791666671,"velocity":0.7401574803149606,"duration":0.1263020833333286},{"name":"E5","midi":76,"time":81.62630208333337,"velocity":0.7401574803149606,"duration":0.1263020833333286},{"name":"F5","midi":77,"time":81.75520833333337,"velocity":0.7401574803149606,"duration":0.1263020833333286},{"name":"G#3","midi":56,"time":81.88411458333336,"velocity":0.7401574803149606,"duration":0.5091145833333286},{"name":"E5","midi":76,"time":81.88411458333336,"velocity":0.7401574803149606,"duration":0.1263020833333286},{"name":"D5","midi":74,"time":82.01302083333336,"velocity":0.7401574803149606,"duration":0.1263020833333286},{"name":"C5","midi":72,"time":82.14192708333336,"velocity":0.7401574803149606,"duration":0.1263020833333286},{"name":"B4","midi":71,"time":82.27083333333336,"velocity":0.7401574803149606,"duration":0.1263020833333286},{"name":"A4","midi":69,"time":82.39973958333336,"velocity":0.7401574803149606,"duration":0.3216145833333286},{"name":"C4","midi":60,"time":82.52864583333336,"velocity":0.7401574803149606,"duration":0.1263020833333286},{"name":"B3","midi":59,"time":82.65625000000001,"velocity":0.7401574803149606,"duration":0.1263020833333428},{"name":"C4","midi":60,"time":82.78515625000003,"velocity":0.7401574803149606,"duration":0.1263020833333286},{"name":"D4","midi":62,"time":82.91406250000003,"velocity":0.7401574803149606,"duration":0.1263020833333286},{"name":"E5","midi":76,"time":82.91406250000003,"velocity":0.7401574803149606,"duration":0.6419270833333286},{"name":"C4","midi":60,"time":83.04296875000003,"velocity":0.7401574803149606,"duration":0.1263020833333286},{"name":"B3","midi":59,"time":83.17187500000003,"velocity":0.7401574803149606,"duration":0.1263020833333286},{"name":"C4","midi":60,"time":83.30078125000003,"velocity":0.7401574803149606,"duration":0.1263020833333286},{"name":"C3","midi":48,"time":83.42968750000003,"velocity":0.7401574803149606,"duration":0.5130208333333144},{"name":"C5","midi":72,"time":83.55859375000003,"velocity":0.7401574803149606,"duration":0.1263020833333286},{"name":"D5","midi":74,"time":83.68750000000003,"velocity":0.7401574803149606,"duration":0.1263020833333286},{"name":"E5","midi":76,"time":83.81510416666669,"velocity":0.7401574803149606,"duration":0.1263020833333286},{"name":"A3","midi":57,"time":83.94401041666667,"velocity":0.7401574803149606,"duration":0.5091145833333286},{"name":"D5","midi":74,"time":83.94401041666667,"velocity":0.7401574803149606,"duration":0.1263020833333286},{"name":"C5","midi":72,"time":84.07291666666667,"velocity":0.7401574803149606,"duration":0.1263020833333286},{"name":"B4","midi":71,"time":84.20182291666667,"velocity":0.7401574803149606,"duration":0.1263020833333286},{"name":"A4","midi":69,"time":84.33072916666667,"velocity":0.7401574803149606,"duration":0.1263020833333286},{"name":"G#4","midi":68,"time":84.45963541666667,"velocity":0.7401574803149606,"duration":0.3216145833333286},{"name":"B3","midi":59,"time":84.58854166666667,"velocity":0.7401574803149606,"duration":0.1263020833333286},{"name":"A3","midi":57,"time":84.71744791666667,"velocity":0.7401574803149606,"duration":0.1263020833333286},{"name":"B3","midi":59,"time":84.84505208333333,"velocity":0.7401574803149606,"duration":0.1263020833333286},{"name":"C4","midi":60,"time":84.97395833333333,"velocity":0.7401574803149606,"duration":0.1263020833333286},{"name":"D5","midi":74,"time":84.97395833333333,"velocity":0.7401574803149606,"duration":0.6419270833333286},{"name":"B3","midi":59,"time":85.10286458333333,"velocity":0.7401574803149606,"duration":0.1263020833333286},{"name":"A3","midi":57,"time":85.23177083333333,"velocity":0.7401574803149606,"duration":0.1263020833333286},{"name":"B3","midi":59,"time":85.36067708333333,"velocity":0.7401574803149606,"duration":0.1263020833333286},{"name":"B2","midi":47,"time":85.48958333333333,"velocity":0.7401574803149606,"duration":0.5130208333333144},{"name":"A4","midi":69,"time":85.61848958333333,"velocity":0.7401574803149606,"duration":0.1263020833333286},{"name":"B4","midi":71,"time":85.74739583333333,"velocity":0.7401574803149606,"duration":0.1263020833333286},{"name":"C5","midi":72,"time":85.87499999999999,"velocity":0.7401574803149606,"duration":0.1263020833333286},{"name":"A3","midi":57,"time":86.00390624999997,"velocity":0.7401574803149606,"duration":0.5091145833333286},{"name":"B4","midi":71,"time":86.00390624999997,"velocity":0.7401574803149606,"duration":0.1263020833333286},{"name":"A4","midi":69,"time":86.13281249999997,"velocity":0.7401574803149606,"duration":0.1263020833333286},{"name":"G#4","midi":68,"time":86.26171874999997,"velocity":0.7401574803149606,"duration":0.1263020833333286},{"name":"F#4","midi":66,"time":86.39062499999997,"velocity":0.7401574803149606,"duration":0.1263020833333286},{"name":"E4","midi":64,"time":86.51953124999997,"velocity":0.7401574803149606,"duration":0.3216145833333286},{"name":"G#3","midi":56,"time":86.64843749999997,"velocity":0.7401574803149606,"duration":0.1263020833333286},{"name":"A3","midi":57,"time":86.77734374999997,"velocity":0.7401574803149606,"duration":0.1263020833333286},{"name":"B3","midi":59,"time":86.90624999999997,"velocity":0.7401574803149606,"duration":0.1263020833333286},{"name":"A3","midi":57,"time":87.03385416666663,"velocity":0.7401574803149606,"duration":0.1263020833333286},{"name":"D5","midi":74,"time":87.03385416666663,"velocity":0.7401574803149606,"duration":0.6419270833333286},{"name":"G#3","midi":56,"time":87.16276041666663,"velocity":0.7401574803149606,"duration":0.1263020833333286},{"name":"F#3","midi":54,"time":87.29166666666663,"velocity":0.7401574803149606,"duration":0.1263020833333286},{"name":"E3","midi":52,"time":87.42057291666663,"velocity":0.7401574803149606,"duration":0.1263020833333286},{"name":"E4","midi":64,"time":87.54947916666663,"velocity":0.7401574803149606,"duration":0.5130208333333286},{"name":"C5","midi":72,"time":87.67838541666663,"velocity":0.7401574803149606,"duration":0.1263020833333286},{"name":"B4","midi":71,"time":87.80729166666663,"velocity":0.7401574803149606,"duration":0.1263020833333286},{"name":"C5","midi":72,"time":87.93619791666663,"velocity":0.7401574803149606,"duration":0.1263020833333286},{"name":"D4","midi":62,"time":88.06380208333329,"velocity":0.7401574803149606,"duration":0.5130208333333286},{"name":"D5","midi":74,"time":88.06380208333329,"velocity":0.7401574803149606,"duration":0.1263020833333286},{"name":"E5","midi":76,"time":88.19270833333329,"velocity":0.7401574803149606,"duration":0.1263020833333286},{"name":"F#5","midi":78,"time":88.32161458333329,"velocity":0.7401574803149606,"duration":0.1263020833333286},{"name":"G#5","midi":80,"time":88.45052083333329,"velocity":0.7401574803149606,"duration":0.1263020833333286},{"name":"C4","midi":60,"time":88.57942708333329,"velocity":0.7401574803149606,"duration":0.5130208333333286},{"name":"A5","midi":81,"time":88.57942708333329,"velocity":0.7401574803149606,"duration":0.2552083333333286},{"name":"G5","midi":79,"time":88.83723958333329,"velocity":0.7401574803149606,"duration":0.1263020833333286},{"name":"F5","midi":77,"time":88.96614583333329,"velocity":0.7401574803149606,"duration":0.1263020833333286},{"name":"C3","midi":48,"time":89.09374999999994,"velocity":0.7401574803149606,"duration":0.2552083333333286},{"name":"E5","midi":76,"time":89.09374999999994,"velocity":0.7401574803149606,"duration":0.2552083333333286},{"name":"D3","midi":50,"time":89.35156249999994,"velocity":0.7401574803149606,"duration":0.2552083333333286},{"name":"D5","midi":74,"time":89.35156249999994,"velocity":0.7401574803149606,"duration":0.2552083333333286},{"name":"E3","midi":52,"time":89.60937499999994,"velocity":0.7401574803149606,"duration":1.0286458333333286},{"name":"A4","midi":69,"time":89.60937499999994,"velocity":0.7401574803149606,"duration":0.5130208333333286},{"name":"C5","midi":72,"time":89.60937499999994,"velocity":0.7401574803149606,"duration":0.5130208333333286},{"name":"E2","midi":40,"time":90.12499999999994,"velocity":0.7401574803149606,"duration":0.5091145833333286},{"name":"G#4","midi":68,"time":90.12499999999994,"velocity":0.7401574803149606,"duration":0.5130208333333286},{"name":"C5","midi":72,"time":90.12499999999994,"velocity":0.7401574803149606,"duration":0.0833333333333286},{"name":"B4","midi":71,"time":90.2096354166666,"velocity":0.7401574803149606,"duration":0.0833333333333286},{"name":"C5","midi":72,"time":90.2955729166666,"velocity":0.7401574803149606,"duration":0.0833333333333286},{"name":"B4","midi":71,"time":90.3815104166666,"velocity":0.7401574803149606,"duration":0.2526041666666714},{"name":"A4","midi":69,"time":90.6393229166666,"velocity":0.7401574803149606,"duration":0.4557291666666714},{"name":"F2","midi":41,"time":90.7682291666666,"velocity":0.7401574803149606,"duration":0.1263020833333286},{"name":"G2","midi":43,"time":90.8971354166666,"velocity":0.7401574803149606,"duration":0.1263020833333286},{"name":"A2","midi":45,"time":91.0260416666666,"velocity":0.7401574803149606,"duration":0.1263020833333428},{"name":"B2","midi":47,"time":91.15494791666661,"velocity":0.7401574803149606,"duration":0.1263020833333428},{"name":"E4","midi":64,"time":91.15494791666661,"velocity":0.7401574803149606,"duration":0.1002604166666714},{"name":"D4","midi":62,"time":91.24869791666661,"velocity":0.7401574803149606,"duration":0.1002604166666714},{"name":"C#3","midi":49,"time":91.28255208333329,"velocity":0.7401574803149606,"duration":0.1263020833333286},{"name":"E4","midi":64,"time":91.34244791666661,"velocity":0.7401574803149606,"duration":0.1002604166666714},{"name":"D3","midi":50,"time":91.41145833333329,"velocity":0.7401574803149606,"duration":0.1263020833333286},{"name":"D4","midi":62,"time":91.43619791666661,"velocity":0.7401574803149606,"duration":0.1002604166666714},{"name":"E4","midi":64,"time":91.52994791666661,"velocity":0.7401574803149606,"duration":0.1002604166666714},{"name":"E3","midi":52,"time":91.54036458333329,"velocity":0.7401574803149606,"duration":0.1263020833333286},{"name":"D4","midi":62,"time":91.62369791666661,"velocity":0.7401574803149606,"duration":0.1692708333333428},{"name":"F3","midi":53,"time":91.66927083333329,"velocity":0.7401574803149606,"duration":0.5130208333333286},{"name":"E4","midi":64,"time":91.79817708333329,"velocity":0.7401574803149606,"duration":0.1263020833333286},{"name":"D4","midi":62,"time":91.92708333333329,"velocity":0.7401574803149606,"duration":0.1263020833333286},{"name":"C4","midi":60,"time":92.05598958333329,"velocity":0.7401574803149606,"duration":0.1263020833333286},{"name":"F2","midi":41,"time":92.18489583333329,"velocity":0.7401574803149606,"duration":0.6419270833333286},{"name":"D4","midi":62,"time":92.18489583333329,"velocity":0.7401574803149606,"duration":0.1263020833333286},{"name":"E4","midi":64,"time":92.31249999999994,"velocity":0.7401574803149606,"duration":0.1263020833333286},{"name":"F#4","midi":66,"time":92.44140624999994,"velocity":0.7401574803149606,"duration":0.1263020833333286},{"name":"G#4","midi":68,"time":92.57031249999994,"velocity":0.7401574803149606,"duration":0.1263020833333286},{"name":"A4","midi":69,"time":92.69921874999994,"velocity":0.7401574803149606,"duration":0.4557291666666714},{"name":"E2","midi":40,"time":92.82812499999994,"velocity":0.7401574803149606,"duration":0.1263020833333286},{"name":"F#2","midi":42,"time":92.95703124999994,"velocity":0.7401574803149606,"duration":0.1263020833333286},{"name":"G#2","midi":44,"time":93.08593749999994,"velocity":0.7401574803149606,"duration":0.1263020833333428},{"name":"A2","midi":45,"time":93.21484374999996,"velocity":0.7401574803149606,"duration":0.1263020833333286},{"name":"D4","midi":62,"time":93.21484374999996,"velocity":0.7401574803149606,"duration":0.09375},{"name":"C4","midi":60,"time":93.30078124999996,"velocity":0.7401574803149606,"duration":0.09375},{"name":"B2","midi":47,"time":93.34374999999996,"velocity":0.7401574803149606,"duration":0.1263020833333286},{"name":"D4","midi":62,"time":93.38541666666663,"velocity":0.7401574803149606,"duration":0.09374999999998579},{"name":"C3","midi":48,"time":93.47135416666661,"velocity":0.7401574803149606,"duration":0.1263020833333286},{"name":"C4","midi":60,"time":93.47135416666661,"velocity":0.7401574803149606,"duration":0.09375},{"name":"D4","midi":62,"time":93.55729166666661,"velocity":0.7401574803149606,"duration":0.09375},{"name":"D3","midi":50,"time":93.60026041666661,"velocity":0.7401574803149606,"duration":0.1263020833333286},{"name":"C4","midi":60,"time":93.64322916666661,"velocity":0.7401574803149606,"duration":0.2057291666666714},{"name":"E3","midi":52,"time":93.72916666666661,"velocity":0.7401574803149606,"duration":0.5130208333333286},{"name":"D4","midi":62,"time":93.85807291666661,"velocity":0.7401574803149606,"duration":0.1263020833333286},{"name":"C4","midi":60,"time":93.98697916666661,"velocity":0.7401574803149606,"duration":0.1263020833333286},{"name":"B3","midi":59,"time":94.11588541666661,"velocity":0.7401574803149606,"duration":0.1263020833333286},{"name":"E2","midi":40,"time":94.24479166666661,"velocity":0.7401574803149606,"duration":0.5130208333333144},{"name":"C4","midi":60,"time":94.24479166666661,"velocity":0.7401574803149606,"duration":0.1263020833333286},{"name":"E4","midi":64,"time":94.37369791666661,"velocity":0.7401574803149606,"duration":0.1263020833333286},{"name":"F#4","midi":66,"time":94.50130208333327,"velocity":0.7401574803149606,"duration":0.1263020833333286},{"name":"G#4","midi":68,"time":94.63020833333327,"velocity":0.7401574803149606,"duration":0.1263020833333286},{"name":"D#2","midi":39,"time":94.75911458333326,"velocity":0.7401574803149606,"duration":0.2552083333333286},{"name":"A4","midi":69,"time":94.75911458333326,"velocity":0.7401574803149606,"duration":0.1263020833333286},{"name":"G#4","midi":68,"time":94.88802083333326,"velocity":0.7401574803149606,"duration":0.1263020833333286},{"name":"F#2","midi":42,"time":95.01692708333326,"velocity":0.7401574803149606,"duration":0.2552083333333286},{"name":"A4","midi":69,"time":95.01692708333326,"velocity":0.7401574803149606,"duration":0.1263020833333286},{"name":"C5","midi":72,"time":95.14583333333326,"velocity":0.7401574803149606,"duration":0.1263020833333286},{"name":"A2","midi":45,"time":95.27473958333326,"velocity":0.7401574803149606,"duration":0.2552083333333286},{"name":"F#4","midi":66,"time":95.27473958333326,"velocity":0.7401574803149606,"duration":0.1263020833333286},{"name":"E4","midi":64,"time":95.40364583333326,"velocity":0.7401574803149606,"duration":0.1263020833333286},{"name":"C3","midi":48,"time":95.53124999999991,"velocity":0.7401574803149606,"duration":0.2552083333333286},{"name":"F#4","midi":66,"time":95.53124999999991,"velocity":0.7401574803149606,"duration":0.1263020833333286},{"name":"A4","midi":69,"time":95.66015624999991,"velocity":0.7401574803149606,"duration":0.1263020833333286},{"name":"A2","midi":45,"time":95.78906249999991,"velocity":0.7401574803149606,"duration":0.2552083333333286},{"name":"D#4","midi":63,"time":95.78906249999991,"velocity":0.7401574803149606,"duration":0.1263020833333286},{"name":"C#4","midi":61,"time":95.91796874999991,"velocity":0.7401574803149606,"duration":0.1263020833333286},{"name":"F#2","midi":42,"time":96.04687499999991,"velocity":0.7401574803149606,"duration":0.2552083333333286},{"name":"D#4","midi":63,"time":96.04687499999991,"velocity":0.7401574803149606,"duration":0.1263020833333286},{"name":"F#4","midi":66,"time":96.17578124999991,"velocity":0.7401574803149606,"duration":0.1263020833333286},{"name":"E2","midi":40,"time":96.30468749999991,"velocity":0.7401574803149606,"duration":0.2552083333333286},{"name":"C4","midi":60,"time":96.30468749999991,"velocity":0.7401574803149606,"duration":0.1263020833333286},{"name":"B3","midi":59,"time":96.43359374999991,"velocity":0.7401574803149606,"duration":0.1263020833333286},{"name":"D#2","midi":39,"time":96.56249999999991,"velocity":0.7401574803149606,"duration":0.2552083333333144},{"name":"C4","midi":60,"time":96.56249999999991,"velocity":0.7401574803149606,"duration":0.1263020833333286},{"name":"A4","midi":69,"time":96.69010416666657,"velocity":0.7401574803149606,"duration":0.1263020833333286},{"name":"D2","midi":38,"time":96.81901041666656,"velocity":0.7401574803149606,"duration":0.2552083333333286},{"name":"G#4","midi":68,"time":96.81901041666656,"velocity":0.7401574803149606,"duration":0.1263020833333286},{"name":"F#4","midi":66,"time":96.94791666666656,"velocity":0.7401574803149606,"duration":0.1263020833333286},{"name":"F2","midi":41,"time":97.07682291666656,"velocity":0.7401574803149606,"duration":0.2552083333333286},{"name":"G#4","midi":68,"time":97.07682291666656,"velocity":0.7401574803149606,"duration":0.1263020833333286},{"name":"B4","midi":71,"time":97.20572916666656,"velocity":0.7401574803149606,"duration":0.1263020833333286},{"name":"G#2","midi":44,"time":97.33463541666656,"velocity":0.7401574803149606,"duration":0.2552083333333286},{"name":"F4","midi":65,"time":97.33463541666656,"velocity":0.7401574803149606,"duration":0.1263020833333286},{"name":"E4","midi":64,"time":97.46354166666656,"velocity":0.7401574803149606,"duration":0.1263020833333286},{"name":"B2","midi":47,"time":97.59244791666656,"velocity":0.7401574803149606,"duration":0.2552083333333144},{"name":"F4","midi":65,"time":97.59244791666656,"velocity":0.7401574803149606,"duration":0.1263020833333286},{"name":"G#4","midi":68,"time":97.72005208333321,"velocity":0.7401574803149606,"duration":0.1263020833333286},{"name":"G#2","midi":44,"time":97.8489583333332,"velocity":0.7401574803149606,"duration":0.2552083333333286},{"name":"D4","midi":62,"time":97.8489583333332,"velocity":0.7401574803149606,"duration":0.1263020833333286},{"name":"C4","midi":60,"time":97.9778645833332,"velocity":0.7401574803149606,"duration":0.1263020833333286},{"name":"F2","midi":41,"time":98.1067708333332,"velocity":0.7401574803149606,"duration":0.2552083333333286},{"name":"D4","midi":62,"time":98.1067708333332,"velocity":0.7401574803149606,"duration":0.1263020833333286},{"name":"F4","midi":65,"time":98.2356770833332,"velocity":0.7401574803149606,"duration":0.1263020833333286},{"name":"E2","midi":40,"time":98.3645833333332,"velocity":0.7401574803149606,"duration":0.2552083333333286},{"name":"B3","midi":59,"time":98.3645833333332,"velocity":0.7401574803149606,"duration":0.1263020833333286},{"name":"A3","midi":57,"time":98.4934895833332,"velocity":0.7401574803149606,"duration":0.1263020833333286},{"name":"D2","midi":38,"time":98.6223958333332,"velocity":0.7401574803149606,"duration":0.2552083333333144},{"name":"B3","midi":59,"time":98.6223958333332,"velocity":0.7401574803149606,"duration":0.1263020833333286},{"name":"G#4","midi":68,"time":98.74999999999986,"velocity":0.7401574803149606,"duration":0.1263020833333286},{"name":"C2","midi":36,"time":98.87890624999984,"velocity":0.7401574803149606,"duration":0.1263020833333286},{"name":"A4","midi":69,"time":98.87890624999984,"velocity":0.7401574803149606,"duration":0.1263020833333286},{"name":"E2","midi":40,"time":99.00781249999984,"velocity":0.7401574803149606,"duration":0.1263020833333286},{"name":"G#4","midi":68,"time":99.00781249999984,"velocity":0.7401574803149606,"duration":0.1263020833333286},{"name":"F#2","midi":42,"time":99.13671874999984,"velocity":0.7401574803149606,"duration":0.1263020833333286},{"name":"F#4","midi":66,"time":99.13671874999984,"velocity":0.7401574803149606,"duration":0.1263020833333286},{"name":"G#2","midi":44,"time":99.26562499999984,"velocity":0.7401574803149606,"duration":0.1263020833333286},{"name":"E4","midi":64,"time":99.26562499999984,"velocity":0.7401574803149606,"duration":0.1263020833333286},{"name":"A2","midi":45,"time":99.39453124999984,"velocity":0.7401574803149606,"duration":0.1263020833333286},{"name":"D4","midi":62,"time":99.39453124999984,"velocity":0.7401574803149606,"duration":0.1263020833333286},{"name":"B2","midi":47,"time":99.52343749999984,"velocity":0.7401574803149606,"duration":0.1263020833333286},{"name":"C4","midi":60,"time":99.52343749999984,"velocity":0.7401574803149606,"duration":0.1263020833333286},{"name":"C3","midi":48,"time":99.65234374999984,"velocity":0.7401574803149606,"duration":0.1184895833333286},{"name":"B3","midi":59,"time":99.65234374999984,"velocity":0.7401574803149606,"duration":0.1184895833333286},{"name":"D3","midi":50,"time":99.78124999999984,"velocity":0.7401574803149606,"duration":0.109375},{"name":"A3","midi":57,"time":99.78124999999984,"velocity":0.7401574803149606,"duration":0.109375},{"name":"E3","midi":52,"time":99.90885416666652,"velocity":0.7401574803149606,"duration":0.5130208333333286},{"name":"B3","midi":59,"time":100.16666666666652,"velocity":0.7401574803149606,"duration":0.7708333333333286},{"name":"E2","midi":40,"time":100.42447916666652,"velocity":0.7401574803149606,"duration":0.5091145833333286},{"name":"D4","midi":62,"time":100.42447916666652,"velocity":0.7401574803149606,"duration":0.5091145833333286},{"name":"G#4","midi":68,"time":100.68229166666652,"velocity":0.7401574803149606,"duration":0.2552083333333286},{"name":"A4","midi":69,"time":100.93880208333317,"velocity":0.7401574803149606,"duration":1.5429687499999858},{"name":"E4","midi":64,"time":100.93880208333317,"velocity":0.7401574803149606,"duration":1.5429687499999858},{"name":"C4","midi":60,"time":100.93880208333317,"velocity":0.7401574803149606,"duration":1.5429687499999858},{"name":"A2","midi":45,"time":101.06770833333317,"velocity":0.7401574803149606,"duration":0.1263020833333286},{"name":"B2","midi":47,"time":101.19661458333317,"velocity":0.7401574803149606,"duration":0.1263020833333286},{"name":"C3","midi":48,"time":101.32552083333317,"velocity":0.7401574803149606,"duration":0.1263020833333286},{"name":"D3","midi":50,"time":101.45442708333317,"velocity":0.7401574803149606,"duration":0.1263020833333286},{"name":"E3","midi":52,"time":101.58333333333317,"velocity":0.7401574803149606,"duration":0.1263020833333286},{"name":"F#3","midi":54,"time":101.71223958333317,"velocity":0.7401574803149606,"duration":0.1263020833333286},{"name":"G#3","midi":56,"time":101.84114583333317,"velocity":0.7401574803149606,"duration":0.1263020833333286},{"name":"A3","midi":57,"time":101.96874999999983,"velocity":0.7401574803149606,"duration":3.2161458333333144},{"name":"C5","midi":72,"time":102.48437499999983,"velocity":0.7401574803149606,"duration":0.5130208333333286},{"name":"E4","midi":64,"time":102.48437499999983,"velocity":0.7401574803149606,"duration":0.5130208333333286},{"name":"F4","midi":65,"time":102.99999999999983,"velocity":0.7401574803149606,"duration":0.5130208333333286},{"name":"D5","midi":74,"time":102.99999999999983,"velocity":0.7401574803149606,"duration":0.5130208333333286},{"name":"C5","midi":72,"time":103.51432291666649,"velocity":0.7401574803149606,"duration":0.5130208333333286},{"name":"E4","midi":64,"time":103.51432291666649,"velocity":0.7401574803149606,"duration":0.5130208333333286},{"name":"F4","midi":65,"time":104.02994791666649,"velocity":0.7401574803149606,"duration":0.5130208333333286},{"name":"D5","midi":74,"time":104.02994791666649,"velocity":0.7401574803149606,"duration":0.5130208333333286},{"name":"D4","midi":62,"time":104.54427083333314,"velocity":0.7401574803149606,"duration":0.5130208333333286},{"name":"B4","midi":71,"time":104.54427083333314,"velocity":0.7401574803149606,"duration":0.5130208333333286},{"name":"C5","midi":72,"time":105.05989583333314,"velocity":0.7401574803149606,"duration":1.54296875},{"name":"E4","midi":64,"time":105.05989583333314,"velocity":0.7401574803149606,"duration":1.54296875},{"name":"A2","midi":45,"time":105.18749999999982,"velocity":0.7401574803149606,"duration":0.1263020833333286},{"name":"B2","midi":47,"time":105.31640624999982,"velocity":0.7401574803149606,"duration":0.1263020833333286},{"name":"C3","midi":48,"time":105.44531249999982,"velocity":0.7401574803149606,"duration":0.1263020833333286},{"name":"D3","midi":50,"time":105.57421874999982,"velocity":0.7401574803149606,"duration":0.1263020833333286},{"name":"E3","midi":52,"time":105.70312499999982,"velocity":0.7401574803149606,"duration":0.1263020833333286},{"name":"F#3","midi":54,"time":105.83203124999982,"velocity":0.7401574803149606,"duration":0.1263020833333286},{"name":"G#3","midi":56,"time":105.96093749999982,"velocity":0.7401574803149606,"duration":0.1263020833333286},{"name":"A3","midi":57,"time":106.08984374999982,"velocity":0.7401574803149606,"duration":3.2161458333332718},{"name":"E5","midi":76,"time":106.60416666666647,"velocity":0.7401574803149606,"duration":0.5130208333333286},{"name":"C5","midi":72,"time":106.60416666666647,"velocity":0.7401574803149606,"duration":0.5130208333333286},{"name":"A4","midi":69,"time":106.60416666666647,"velocity":0.7401574803149606,"duration":0.5130208333333286},{"name":"F5","midi":77,"time":107.11979166666647,"velocity":0.7401574803149606,"duration":0.5130208333333286},{"name":"D5","midi":74,"time":107.11979166666647,"velocity":0.7401574803149606,"duration":0.5130208333333286},{"name":"A4","midi":69,"time":107.11979166666647,"velocity":0.7401574803149606,"duration":1.0286458333333144},{"name":"E5","midi":76,"time":107.63411458333313,"velocity":0.7401574803149606,"duration":0.5130208333333286},{"name":"C5","midi":72,"time":107.63411458333313,"velocity":0.7401574803149606,"duration":0.5130208333333286},{"name":"A4","midi":69,"time":108.14973958333312,"velocity":0.7401574803149606,"duration":1.0286458333333144},{"name":"F5","midi":77,"time":108.14973958333312,"velocity":0.7401574803149606,"duration":0.5130208333333286},{"name":"D5","midi":74,"time":108.14973958333312,"velocity":0.7401574803149606,"duration":0.5130208333333286},{"name":"B4","midi":71,"time":108.66406249999977,"velocity":0.7401574803149606,"duration":0.5130208333333286},{"name":"D5","midi":74,"time":108.66406249999977,"velocity":0.7401574803149606,"duration":0.5130208333333286},{"name":"C5","midi":72,"time":109.17968749999976,"velocity":0.7401574803149606,"duration":1.5429687499999858},{"name":"A4","midi":69,"time":109.17968749999976,"velocity":0.7401574803149606,"duration":0.9648437499999858},{"name":"E5","midi":76,"time":109.17968749999976,"velocity":0.7401574803149606,"duration":1.5429687499999858},{"name":"A3","midi":57,"time":109.30859374999976,"velocity":0.7401574803149606,"duration":0.1263020833333286},{"name":"B3","midi":59,"time":109.43749999999976,"velocity":0.7401574803149606,"duration":0.1263020833333286},{"name":"C4","midi":60,"time":109.56510416666642,"velocity":0.7401574803149606,"duration":0.1263020833333286},{"name":"D4","midi":62,"time":109.69401041666642,"velocity":0.7401574803149606,"duration":0.1263020833333286},{"name":"E4","midi":64,"time":109.82291666666642,"velocity":0.7401574803149606,"duration":0.1263020833333286},{"name":"F#4","midi":66,"time":109.95182291666642,"velocity":0.7401574803149606,"duration":0.1263020833333286},{"name":"G#4","midi":68,"time":110.08072916666642,"velocity":0.7401574803149606,"duration":0.1263020833333286},{"name":"A4","midi":69,"time":110.20963541666642,"velocity":0.7401574803149606,"duration":3.6028645833333},{"name":"A5","midi":81,"time":110.72395833333307,"velocity":0.7401574803149606,"duration":0.5130208333333286},{"name":"E5","midi":76,"time":110.72395833333307,"velocity":0.7401574803149606,"duration":0.5130208333333286},{"name":"C5","midi":72,"time":110.72395833333307,"velocity":0.7401574803149606,"duration":0.5130208333333286},{"name":"B5","midi":83,"time":111.23958333333307,"velocity":0.7401574803149606,"duration":0.5130208333333286},{"name":"D5","midi":74,"time":111.23958333333307,"velocity":0.7401574803149606,"duration":0.5130208333333286},{"name":"F5","midi":77,"time":111.23958333333307,"velocity":0.7401574803149606,"duration":0.5130208333333286},{"name":"A5","midi":81,"time":111.75390624999973,"velocity":0.7401574803149606,"duration":0.5130208333333286},{"name":"C5","midi":72,"time":111.75390624999973,"velocity":0.7401574803149606,"duration":0.5130208333333286},{"name":"E5","midi":76,"time":111.75390624999973,"velocity":0.7401574803149606,"duration":0.5130208333333286},{"name":"B5","midi":83,"time":112.26953124999973,"velocity":0.7401574803149606,"duration":0.5130208333333286},{"name":"D5","midi":74,"time":112.26953124999973,"velocity":0.7401574803149606,"duration":0.5130208333333286},{"name":"F5","midi":77,"time":112.26953124999973,"velocity":0.7401574803149606,"duration":0.5130208333333286},{"name":"G#5","midi":80,"time":112.78385416666639,"velocity":0.7401574803149606,"duration":0.5130208333333286},{"name":"D5","midi":74,"time":112.78385416666639,"velocity":0.7401574803149606,"duration":0.5130208333333286},{"name":"B4","midi":71,"time":112.78385416666639,"velocity":0.7401574803149606,"duration":0.5130208333333286},{"name":"C5","midi":72,"time":113.29947916666639,"velocity":0.7401574803149606,"duration":0.5130208333333286},{"name":"A5","midi":81,"time":113.29947916666639,"velocity":0.7401574803149606,"duration":1.5416666666666572},{"name":"E5","midi":76,"time":113.29947916666639,"velocity":0.7401574803149606,"duration":0.5130208333333286},{"name":"B2","midi":47,"time":113.81380208333304,"velocity":0.7401574803149606,"duration":0.5130208333333286},{"name":"D#5","midi":75,"time":113.81380208333304,"velocity":0.7401574803149606,"duration":0.5130208333333286},{"name":"C3","midi":48,"time":114.32942708333304,"velocity":0.7401574803149606,"duration":0.5130208333333286},{"name":"E5","midi":76,"time":114.32942708333304,"velocity":0.7401574803149606,"duration":0.5130208333333286},{"name":"D3","midi":50,"time":114.8437499999997,"velocity":0.7401574803149606,"duration":0.5130208333333286},{"name":"A4","midi":69,"time":114.8437499999997,"velocity":0.7401574803149606,"duration":0.5130208333333286},{"name":"F4","midi":65,"time":114.8437499999997,"velocity":0.7401574803149606,"duration":0.5130208333333286},{"name":"E3","midi":52,"time":115.3593749999997,"velocity":0.7401574803149606,"duration":0.9114583333333286},{"name":"C5","midi":72,"time":115.3593749999997,"velocity":0.7401574803149606,"duration":0.9114583333333286},{"name":"A4","midi":69,"time":115.3593749999997,"velocity":0.7401574803149606,"duration":0.9114583333333286},{"name":"E4","midi":64,"time":115.3593749999997,"velocity":0.7401574803149606,"duration":0.9114583333333286},{"name":"E2","midi":40,"time":116.38932291666636,"velocity":0.7401574803149606,"duration":0.9114583333333286},{"name":"B4","midi":71,"time":116.38932291666636,"velocity":0.7401574803149606,"duration":0.9114583333333286},{"name":"G#4","midi":68,"time":116.38932291666636,"velocity":0.7401574803149606,"duration":0.9114583333333286},{"name":"D4","midi":62,"time":116.38932291666636,"velocity":0.7401574803149606,"duration":0.9114583333333286},{"name":"C4","midi":60,"time":117.44010416666636,"velocity":0.7401574803149606,"duration":3.125},{"name":"E4","midi":64,"time":117.44010416666636,"velocity":0.7401574803149606,"duration":3.125},{"name":"A4","midi":69,"time":117.44010416666636,"velocity":0.7401574803149606,"duration":3.125},{"name":"A2","midi":45,"time":117.44010416666636,"velocity":0.7401574803149606,"duration":3.125},{"name":"A4","midi":69,"time":121.77083333333303,"velocity":0.7401574803149606,"duration":0.3255208333333286},{"name":"A4","midi":69,"time":122.10156249999969,"velocity":0.7401574803149606,"duration":0.1171875},{"name":"G#4","midi":68,"time":122.22265624999969,"velocity":0.7401574803149606,"duration":0.1171875},{"name":"A2","midi":45,"time":122.34374999999969,"velocity":0.7401574803149606,"duration":0.23828125},{"name":"A4","midi":69,"time":122.34374999999969,"velocity":0.7401574803149606,"duration":0.9622395833333428},{"name":"C3","midi":48,"time":122.58463541666636,"velocity":0.7401574803149606,"duration":0.23828125},{"name":"E3","midi":52,"time":122.82552083333303,"velocity":0.7401574803149606,"duration":0.23828125},{"name":"A3","midi":57,"time":123.06770833333303,"velocity":0.7401574803149606,"duration":0.4791666666666714},{"name":"A4","midi":69,"time":123.3085937499997,"velocity":0.7401574803149606,"duration":0.23828125},{"name":"G3","midi":55,"time":123.5507812499997,"velocity":0.7401574803149606,"duration":0.4791666666666714},{"name":"B4","midi":71,"time":123.5507812499997,"velocity":0.7401574803149606,"duration":0.23828125},{"name":"C5","midi":72,"time":123.79166666666637,"velocity":0.7401574803149606,"duration":0.23828125},{"name":"F3","midi":53,"time":124.03255208333304,"velocity":0.7401574803149606,"duration":0.4791666666666714},{"name":"D5","midi":74,"time":124.03255208333304,"velocity":0.7401574803149606,"duration":0.23828125},{"name":"E5","midi":76,"time":124.27473958333304,"velocity":0.7401574803149606,"duration":0.23828125},{"name":"D3","midi":50,"time":124.51562499999972,"velocity":0.7401574803149606,"duration":0.4791666666666714},{"name":"F5","midi":77,"time":124.51562499999972,"velocity":0.7401574803149606,"duration":0.23828125},{"name":"A4","midi":69,"time":124.75781249999972,"velocity":0.7401574803149606,"duration":0.23828125},{"name":"E3","midi":52,"time":124.99869791666639,"velocity":0.7401574803149606,"duration":0.4791666666666714},{"name":"G#4","midi":68,"time":124.99869791666639,"velocity":0.7401574803149606,"duration":0.23828125},{"name":"F5","midi":77,"time":125.23958333333306,"velocity":0.7401574803149606,"duration":0.23828125},{"name":"E2","midi":40,"time":125.48177083333306,"velocity":0.7401574803149606,"duration":0.4791666666666714},{"name":"E5","midi":76,"time":125.48177083333306,"velocity":0.7401574803149606,"duration":0.23828125},{"name":"D5","midi":74,"time":125.72265624999973,"velocity":0.7401574803149606,"duration":0.23828125},{"name":"A2","midi":45,"time":125.96484374999973,"velocity":0.7401574803149606,"duration":0.9544270833333428},{"name":"D5","midi":74,"time":125.96484374999973,"velocity":0.7401574803149606,"duration":0.23828125},{"name":"C5","midi":72,"time":126.2057291666664,"velocity":0.7401574803149606,"duration":0.23828125},{"name":"B4","midi":71,"time":126.44661458333307,"velocity":0.7401574803149606,"duration":0.23828125},{"name":"A4","midi":69,"time":126.68880208333307,"velocity":0.7401574803149606,"duration":0.23828125},{"name":"A5","midi":81,"time":126.92968749999974,"velocity":0.7401574803149606,"duration":0.1171875},{"name":"G#5","midi":80,"time":127.05078124999974,"velocity":0.7401574803149606,"duration":0.1171875},{"name":"A3","midi":57,"time":127.17187499999974,"velocity":0.7401574803149606,"duration":0.23828125},{"name":"A5","midi":81,"time":127.17187499999974,"velocity":0.7401574803149606,"duration":0.4791666666666714},{"name":"B3","midi":59,"time":127.41276041666642,"velocity":0.7401574803149606,"duration":0.23828125},{"name":"C4","midi":60,"time":127.65364583333309,"velocity":0.7401574803149606,"duration":0.23828125},{"name":"G5","midi":79,"time":127.65364583333309,"velocity":0.7401574803149606,"duration":0.23828125},{"name":"D4","midi":62,"time":127.89583333333309,"velocity":0.7401574803149606,"duration":0.23828125},{"name":"F5","midi":77,"time":127.89583333333309,"velocity":0.7401574803149606,"duration":0.23828125},{"name":"E4","midi":64,"time":128.13671874999974,"velocity":0.7401574803149606,"duration":0.23828125},{"name":"E5","midi":76,"time":128.13671874999974,"velocity":0.7401574803149606,"duration":0.23828125},{"name":"F4","midi":65,"time":128.37890624999974,"velocity":0.7401574803149606,"duration":0.23828125},{"name":"D5","midi":74,"time":128.37890624999974,"velocity":0.7401574803149606,"duration":0.23828125},{"name":"A3","midi":57,"time":128.6197916666664,"velocity":0.7401574803149606,"duration":0.23828125},{"name":"C5","midi":72,"time":128.6197916666664,"velocity":0.7401574803149606,"duration":0.23828125},{"name":"G#3","midi":56,"time":128.86067708333306,"velocity":0.7401574803149606,"duration":0.23828125},{"name":"B4","midi":71,"time":128.86067708333306,"velocity":0.7401574803149606,"duration":0.23828125},{"name":"F4","midi":65,"time":129.10286458333306,"velocity":0.7401574803149606,"duration":0.23828125},{"name":"A5","midi":81,"time":129.10286458333306,"velocity":0.7401574803149606,"duration":0.23828125},{"name":"E4","midi":64,"time":129.34374999999972,"velocity":0.7401574803149606,"duration":0.23828125},{"name":"G#5","midi":80,"time":129.34374999999972,"velocity":0.7401574803149606,"duration":0.23828125},{"name":"D4","midi":62,"time":129.58593749999972,"velocity":0.7401574803149606,"duration":0.23828125},{"name":"A5","midi":81,"time":129.58593749999972,"velocity":0.7401574803149606,"duration":0.1171875},{"name":"B5","midi":83,"time":129.70572916666637,"velocity":0.7401574803149606,"duration":0.1171875},{"name":"C4","midi":60,"time":129.82682291666637,"velocity":0.7401574803149606,"duration":0.23828125},{"name":"E5","midi":76,"time":129.82682291666637,"velocity":0.7401574803149606,"duration":1.2031249999999716},{"name":"E4","midi":64,"time":130.06770833333303,"velocity":0.7401574803149606,"duration":0.23828125},{"name":"F#4","midi":66,"time":130.30989583333303,"velocity":0.7401574803149606,"duration":0.23828125},{"name":"G#4","midi":68,"time":130.5507812499997,"velocity":0.7401574803149606,"duration":0.23828125},{"name":"A4","midi":69,"time":130.7929687499997,"velocity":0.7401574803149606,"duration":1.4453124999999716},{"name":"G5","midi":79,"time":131.03385416666634,"velocity":0.7401574803149606,"duration":0.23828125},{"name":"A3","midi":57,"time":131.274739583333,"velocity":0.7401574803149606,"duration":0.4791666666666572},{"name":"F5","midi":77,"time":131.274739583333,"velocity":0.7401574803149606,"duration":0.23828125},{"name":"E5","midi":76,"time":131.516927083333,"velocity":0.7401574803149606,"duration":0.23828125},{"name":"B3","midi":59,"time":131.75781249999966,"velocity":0.7401574803149606,"duration":0.9544270833333144},{"name":"D5","midi":74,"time":131.75781249999966,"velocity":0.7401574803149606,"duration":0.23828125},{"name":"C5","midi":72,"time":131.99999999999966,"velocity":0.7401574803149606,"duration":0.23828125},{"name":"A4","midi":69,"time":132.24088541666632,"velocity":0.7401574803149606,"duration":0.1171875},{"name":"B4","midi":71,"time":132.24088541666632,"velocity":0.7401574803149606,"duration":0.23828125},{"name":"G#4","midi":68,"time":132.36197916666632,"velocity":0.7401574803149606,"duration":0.1171875},{"name":"A4","midi":69,"time":132.48177083333297,"velocity":0.7401574803149606,"duration":0.703125},{"name":"C5","midi":72,"time":132.48177083333297,"velocity":0.7401574803149606,"duration":0.23828125},{"name":"E4","midi":64,"time":132.72395833333297,"velocity":0.7401574803149606,"duration":0.9544270833333144},{"name":"D5","midi":74,"time":132.72395833333297,"velocity":0.7401574803149606,"duration":0.23828125},{"name":"F5","midi":77,"time":132.96484374999963,"velocity":0.7401574803149606,"duration":0.23828125},{"name":"G#4","midi":68,"time":133.20703124999963,"velocity":0.7401574803149606,"duration":0.4765625},{"name":"E5","midi":76,"time":133.20703124999963,"velocity":0.7401574803149606,"duration":0.23828125},{"name":"D5","midi":74,"time":133.4479166666663,"velocity":0.7401574803149606,"duration":0.23828125},{"name":"A4","midi":69,"time":133.68880208333294,"velocity":0.7401574803149606,"duration":0.4765625},{"name":"C5","midi":72,"time":133.68880208333294,"velocity":0.7401574803149606,"duration":0.23828125},{"name":"B4","midi":71,"time":133.93098958333294,"velocity":0.7401574803149606,"duration":0.23828125},{"name":"E4","midi":64,"time":134.1718749999996,"velocity":0.7401574803149606,"duration":0.4791666666666572},{"name":"A4","midi":69,"time":134.1718749999996,"velocity":0.7401574803149606,"duration":0.23828125},{"name":"B4","midi":71,"time":134.4140624999996,"velocity":0.7401574803149606,"duration":0.23828125},{"name":"A3","midi":57,"time":134.65494791666626,"velocity":0.7401574803149606,"duration":0.23828125},{"name":"C5","midi":72,"time":134.65494791666626,"velocity":0.7401574803149606,"duration":0.23828125},{"name":"A4","midi":69,"time":134.89583333333292,"velocity":0.7401574803149606,"duration":0.23828125},{"name":"D5","midi":74,"time":134.89583333333292,"velocity":0.7401574803149606,"duration":0.23828125},{"name":"G4","midi":67,"time":135.13802083333292,"velocity":0.7401574803149606,"duration":0.23828125},{"name":"E5","midi":76,"time":135.13802083333292,"velocity":0.7401574803149606,"duration":0.23828125},{"name":"F4","midi":65,"time":135.37890624999957,"velocity":0.7401574803149606,"duration":0.23828125},{"name":"F5","midi":77,"time":135.37890624999957,"velocity":0.7401574803149606,"duration":0.23828125},{"name":"E4","midi":64,"time":135.62109374999957,"velocity":0.7401574803149606,"duration":0.23828125},{"name":"G5","midi":79,"time":135.62109374999957,"velocity":0.7401574803149606,"duration":1.2070312499999716},{"name":"D4","midi":62,"time":135.86197916666623,"velocity":0.7401574803149606,"duration":0.23828125},{"name":"F5","midi":77,"time":135.86197916666623,"velocity":0.7401574803149606,"duration":0.23828125},{"name":"C4","midi":60,"time":136.1028645833329,"velocity":0.7401574803149606,"duration":0.23828125},{"name":"E5","midi":76,"time":136.1028645833329,"velocity":0.7401574803149606,"duration":0.23828125},{"name":"D4","midi":62,"time":136.3450520833329,"velocity":0.7401574803149606,"duration":0.23828125},{"name":"D5","midi":74,"time":136.3450520833329,"velocity":0.7401574803149606,"duration":0.23828125},{"name":"E4","midi":64,"time":136.58593749999955,"velocity":0.7401574803149606,"duration":0.23828125},{"name":"C5","midi":72,"time":136.58593749999955,"velocity":0.7401574803149606,"duration":1.2070312499999716},{"name":"G4","midi":67,"time":136.82812499999955,"velocity":0.7401574803149606,"duration":0.23828125},{"name":"A#5","midi":82,"time":136.82812499999955,"velocity":0.7401574803149606,"duration":0.23828125},{"name":"F4","midi":65,"time":137.0690104166662,"velocity":0.7401574803149606,"duration":0.23828125},{"name":"A5","midi":81,"time":137.0690104166662,"velocity":0.7401574803149606,"duration":0.23828125},{"name":"E4","midi":64,"time":137.30989583333286,"velocity":0.7401574803149606,"duration":0.23828125},{"name":"G5","midi":79,"time":137.30989583333286,"velocity":0.7401574803149606,"duration":0.23828125},{"name":"D4","midi":62,"time":137.55208333333286,"velocity":0.7401574803149606,"duration":0.23828125},{"name":"F5","midi":77,"time":137.55208333333286,"velocity":0.7401574803149606,"duration":1.2070312499999716},{"name":"C4","midi":60,"time":137.79296874999952,"velocity":0.7401574803149606,"duration":0.23828125},{"name":"E5","midi":76,"time":137.79296874999952,"velocity":0.7401574803149606,"duration":0.23828125},{"name":"B3","midi":59,"time":138.03515624999952,"velocity":0.7401574803149606,"duration":0.23828125},{"name":"D5","midi":74,"time":138.03515624999952,"velocity":0.7401574803149606,"duration":0.23828125},{"name":"C4","midi":60,"time":138.27604166666617,"velocity":0.7401574803149606,"duration":0.23828125},{"name":"C5","midi":72,"time":138.27604166666617,"velocity":0.7401574803149606,"duration":0.23828125},{"name":"D4","midi":62,"time":138.51692708333283,"velocity":0.7401574803149606,"duration":0.23828125},{"name":"B4","midi":71,"time":138.51692708333283,"velocity":0.7401574803149606,"duration":0.703125},{"name":"F4","midi":65,"time":138.75911458333283,"velocity":0.7401574803149606,"duration":0.23828125},{"name":"A5","midi":81,"time":138.75911458333283,"velocity":0.7401574803149606,"duration":0.23828125},{"name":"E4","midi":64,"time":138.9999999999995,"velocity":0.7401574803149606,"duration":0.23828125},{"name":"G5","midi":79,"time":138.9999999999995,"velocity":0.7401574803149606,"duration":0.23828125},{"name":"D4","midi":62,"time":139.2421874999995,"velocity":0.7401574803149606,"duration":0.23828125},{"name":"B4","midi":71,"time":139.2421874999995,"velocity":0.7401574803149606,"duration":0.23828125},{"name":"F5","midi":77,"time":139.2421874999995,"velocity":0.7401574803149606,"duration":0.23828125},{"name":"C4","midi":60,"time":139.48307291666615,"velocity":0.7401574803149606,"duration":0.23828125},{"name":"C5","midi":72,"time":139.48307291666615,"velocity":0.7401574803149606,"duration":1.6835937499999716},{"name":"E5","midi":76,"time":139.48307291666615,"velocity":0.7401574803149606,"duration":0.1171875},{"name":"D5","midi":74,"time":139.60416666666615,"velocity":0.7401574803149606,"duration":0.1171875},{"name":"B3","midi":59,"time":139.7239583333328,"velocity":0.7401574803149606,"duration":0.23828125},{"name":"E5","midi":76,"time":139.7239583333328,"velocity":0.7401574803149606,"duration":0.4791666666666572},{"name":"A3","midi":57,"time":139.9661458333328,"velocity":0.7401574803149606,"duration":0.23828125},{"name":"G3","midi":55,"time":140.20703124999946,"velocity":0.7401574803149606,"duration":0.23828125},{"name":"E5","midi":76,"time":140.20703124999946,"velocity":0.7401574803149606,"duration":0.23828125},{"name":"F#3","midi":54,"time":140.44921874999946,"velocity":0.7401574803149606,"duration":0.23828125},{"name":"A5","midi":81,"time":140.44921874999946,"velocity":0.7401574803149606,"duration":0.7213541666666572},{"name":"E3","midi":52,"time":140.69010416666612,"velocity":0.7401574803149606,"duration":0.23828125},{"name":"D#3","midi":51,"time":140.93098958333277,"velocity":0.7401574803149606,"duration":0.23828125},{"name":"E3","midi":52,"time":141.17317708333277,"velocity":0.7401574803149606,"duration":0.23828125},{"name":"C5","midi":72,"time":141.17317708333277,"velocity":0.7401574803149606,"duration":0.23828125},{"name":"A5","midi":81,"time":141.17317708333277,"velocity":0.7401574803149606,"duration":0.23828125},{"name":"D#3","midi":51,"time":141.41406249999943,"velocity":0.7401574803149606,"duration":0.9544270833333144},{"name":"A5","midi":81,"time":141.41406249999943,"velocity":0.7401574803149606,"duration":0.23828125},{"name":"B4","midi":71,"time":141.41406249999943,"velocity":0.7401574803149606,"duration":1.6835937499999716},{"name":"G5","midi":79,"time":141.65624999999943,"velocity":0.7401574803149606,"duration":0.23828125},{"name":"A5","midi":81,"time":141.8971354166661,"velocity":0.7401574803149606,"duration":0.23828125},{"name":"F#5","midi":78,"time":142.13802083333275,"velocity":0.7401574803149606,"duration":0.23828125},{"name":"G5","midi":79,"time":142.38020833333275,"velocity":0.7401574803149606,"duration":0.7213541666666572},{"name":"E3","midi":52,"time":142.6210937499994,"velocity":0.7401574803149606,"duration":0.23828125},{"name":"F#3","midi":54,"time":142.8632812499994,"velocity":0.7401574803149606,"duration":0.23828125},{"name":"G3","midi":55,"time":143.10416666666606,"velocity":0.7401574803149606,"duration":0.23828125},{"name":"G5","midi":79,"time":143.10416666666606,"velocity":0.7401574803149606,"duration":0.23828125},{"name":"B4","midi":71,"time":143.10416666666606,"velocity":0.7401574803149606,"duration":0.23828125},{"name":"A3","midi":57,"time":143.34505208333272,"velocity":0.7401574803149606,"duration":0.23828125},{"name":"B4","midi":71,"time":143.34505208333272,"velocity":0.7401574803149606,"duration":0.9622395833333144},{"name":"G5","midi":79,"time":143.34505208333272,"velocity":0.7401574803149606,"duration":0.9622395833333144},{"name":"G3","midi":55,"time":143.58723958333272,"velocity":0.7401574803149606,"duration":0.23828125},{"name":"A3","midi":57,"time":143.82812499999937,"velocity":0.7401574803149606,"duration":0.23828125},{"name":"B3","midi":59,"time":144.07031249999937,"velocity":0.7401574803149606,"duration":0.23828125},{"name":"C4","midi":60,"time":144.31119791666603,"velocity":0.7401574803149606,"duration":0.23828125},{"name":"F5","midi":77,"time":144.31119791666603,"velocity":0.7401574803149606,"duration":0.4791666666666572},{"name":"A4","midi":69,"time":144.31119791666603,"velocity":0.7401574803149606,"duration":1.2070312499999716},{"name":"B3","midi":59,"time":144.5520833333327,"velocity":0.7401574803149606,"duration":0.23828125},{"name":"C4","midi":60,"time":144.7942708333327,"velocity":0.7401574803149606,"duration":0.23828125},{"name":"E5","midi":76,"time":144.7942708333327,"velocity":0.7401574803149606,"duration":0.4791666666666572},{"name":"A3","midi":57,"time":145.03515624999935,"velocity":0.7401574803149606,"duration":0.23828125},{"name":"B3","midi":59,"time":145.27734374999935,"velocity":0.7401574803149606,"duration":7.463541666666572},{"name":"D#5","midi":75,"time":145.27734374999935,"velocity":0.7401574803149606,"duration":0.9544270833333144},{"name":"C5","midi":72,"time":145.518229166666,"velocity":0.7401574803149606,"duration":0.23828125},{"name":"B4","midi":71,"time":145.75911458333266,"velocity":0.7401574803149606,"duration":0.23828125},{"name":"A4","midi":69,"time":146.00130208333266,"velocity":0.7401574803149606,"duration":0.23828125},{"name":"G4","midi":67,"time":146.24218749999932,"velocity":0.7401574803149606,"duration":0.23828125},{"name":"E5","midi":76,"time":146.24218749999932,"velocity":0.7401574803149606,"duration":0.4765625},{"name":"F#4","midi":66,"time":146.48437499999932,"velocity":0.7401574803149606,"duration":0.23828125},{"name":"E4","midi":64,"time":146.72526041666598,"velocity":0.7401574803149606,"duration":0.23828125},{"name":"F#5","midi":78,"time":146.72526041666598,"velocity":0.7401574803149606,"duration":0.4791666666666572},{"name":"D#4","midi":63,"time":146.96614583333263,"velocity":0.7401574803149606,"duration":0.23828125},{"name":"E4","midi":64,"time":147.20833333333263,"velocity":0.7401574803149606,"duration":1.6861979166666288},{"name":"G5","midi":79,"time":147.20833333333263,"velocity":0.7401574803149606,"duration":1.4453124999999716},{"name":"D#5","midi":75,"time":147.4492187499993,"velocity":0.7401574803149606,"duration":0.23828125},{"name":"E5","midi":76,"time":147.6914062499993,"velocity":0.7401574803149606,"duration":0.23828125},{"name":"B4","midi":71,"time":147.93229166666595,"velocity":0.7401574803149606,"duration":0.23828125},{"name":"C5","midi":72,"time":148.1731770833326,"velocity":0.7401574803149606,"duration":0.23828125},{"name":"A4","midi":69,"time":148.4153645833326,"velocity":0.7401574803149606,"duration":0.9544270833333144},{"name":"F#5","midi":78,"time":148.65624999999926,"velocity":0.7401574803149606,"duration":2.8893229166666288},{"name":"E4","midi":64,"time":148.89843749999926,"velocity":0.7401574803149606,"duration":0.23828125},{"name":"D#4","midi":63,"time":149.13932291666592,"velocity":0.7401574803149606,"duration":1.9270833333333144},{"name":"A4","midi":69,"time":149.37890624999926,"velocity":0.7401574803149606,"duration":0.23828125},{"name":"B4","midi":71,"time":149.62109374999926,"velocity":0.7401574803149606,"duration":0.23828125},{"name":"C5","midi":72,"time":149.86197916666592,"velocity":0.7401574803149606,"duration":0.23828125},{"name":"B4","midi":71,"time":150.10416666666592,"velocity":0.7401574803149606,"duration":0.23828125},{"name":"A4","midi":69,"time":150.34505208333258,"velocity":0.7401574803149606,"duration":0.23828125},{"name":"G4","midi":67,"time":150.58593749999923,"velocity":0.7401574803149606,"duration":0.23828125},{"name":"F#4","midi":66,"time":150.82812499999923,"velocity":0.7401574803149606,"duration":0.23828125},{"name":"E4","midi":64,"time":151.0690104166659,"velocity":0.7401574803149606,"duration":0.9622395833333428},{"name":"G4","midi":67,"time":151.0690104166659,"velocity":0.7401574803149606,"duration":0.703125},{"name":"B4","midi":71,"time":151.3111979166659,"velocity":0.7401574803149606,"duration":0.23828125},{"name":"E5","midi":76,"time":151.55208333333255,"velocity":0.7401574803149606,"duration":0.7031250000000284},{"name":"A4","midi":69,"time":151.79296874999923,"velocity":0.7401574803149606,"duration":0.23828125},{"name":"F#4","midi":66,"time":152.03515624999923,"velocity":0.7401574803149606,"duration":0.9544270833333428},{"name":"B4","midi":71,"time":152.03515624999923,"velocity":0.7401574803149606,"duration":1.20703125},{"name":"E5","midi":76,"time":152.27604166666592,"velocity":0.7401574803149606,"duration":0.23828125},{"name":"D#5","midi":75,"time":152.51822916666592,"velocity":0.7401574803149606,"duration":0.4791666666666572},{"name":"A3","midi":57,"time":152.75911458333258,"velocity":0.7401574803149606,"duration":0.23828125},{"name":"G#3","midi":56,"time":152.99999999999923,"velocity":0.7401574803149606,"duration":0.9622395833333144},{"name":"E4","midi":64,"time":152.99999999999923,"velocity":0.7401574803149606,"duration":2.8893229166666288},{"name":"D5","midi":74,"time":152.99999999999923,"velocity":0.7401574803149606,"duration":0.23828125},{"name":"C5","midi":72,"time":153.24218749999923,"velocity":0.7401574803149606,"duration":0.23828125},{"name":"B4","midi":71,"time":153.4830729166659,"velocity":0.7401574803149606,"duration":0.9544270833333144},{"name":"C5","midi":72,"time":153.7252604166659,"velocity":0.7401574803149606,"duration":0.23828125},{"name":"A3","midi":57,"time":153.96614583333255,"velocity":0.7401574803149606,"duration":0.9609374999999716},{"name":"C5","midi":72,"time":153.96614583333255,"velocity":0.7401574803149606,"duration":0.7200520833333144},{"name":"A4","midi":69,"time":154.44791666666586,"velocity":0.7401574803149606,"duration":0.703125},{"name":"B4","midi":71,"time":154.68880208333252,"velocity":0.7401574803149606,"duration":0.23828125},{"name":"E3","midi":52,"time":154.93098958333252,"velocity":0.7401574803149606,"duration":5.781249999999915},{"name":"B4","midi":71,"time":154.93098958333252,"velocity":0.7401574803149606,"duration":2.4140624999999716},{"name":"G#4","midi":68,"time":155.1718749999992,"velocity":0.7401574803149606,"duration":0.23828125},{"name":"A4","midi":69,"time":155.41276041666586,"velocity":0.7401574803149606,"duration":0.23828125},{"name":"F#4","midi":66,"time":155.65494791666586,"velocity":0.7401574803149606,"duration":0.23828125},{"name":"A4","midi":69,"time":155.89583333333252,"velocity":0.7401574803149606,"duration":0.1171875},{"name":"G#4","midi":68,"time":155.99088541666586,"velocity":0.7401574803149606,"duration":0.11718749999997158},{"name":"A4","midi":69,"time":156.08593749999918,"velocity":0.7401574803149606,"duration":0.11848958333331439},{"name":"D4","midi":62,"time":156.1380208333325,"velocity":0.7401574803149606,"duration":0.23828125},{"name":"G#4","midi":68,"time":156.18359374999915,"velocity":0.7401574803149606,"duration":0.90234375},{"name":"E4","midi":64,"time":156.37890624999915,"velocity":0.7401574803149606,"duration":0.23828125},{"name":"B3","midi":59,"time":156.6197916666658,"velocity":0.7401574803149606,"duration":0.23828125},{"name":"C4","midi":60,"time":156.8619791666658,"velocity":0.7401574803149606,"duration":1.203125},{"name":"E4","midi":64,"time":157.1028645833325,"velocity":0.7401574803149606,"duration":0.4765625},{"name":"A4","midi":69,"time":157.3450520833325,"velocity":0.7401574803149606,"duration":0.4765625},{"name":"E4","midi":64,"time":157.58593749999915,"velocity":0.7401574803149606,"duration":0.23828125},{"name":"A4","midi":69,"time":157.8268229166658,"velocity":0.7401574803149606,"duration":1.2044270833333144},{"name":"E4","midi":64,"time":157.8268229166658,"velocity":0.7401574803149606,"duration":0.1171875},{"name":"D#4","midi":63,"time":157.93749999999915,"velocity":0.7401574803149606,"duration":0.11848958333331439},{"name":"E4","midi":64,"time":158.04817708333246,"velocity":0.7401574803149606,"duration":0.1171875},{"name":"C4","midi":60,"time":158.0690104166658,"velocity":0.7401574803149606,"duration":0.23828125},{"name":"D#4","midi":63,"time":158.1588541666658,"velocity":0.7401574803149606,"duration":0.6197916666666572},{"name":"B3","midi":59,"time":158.30989583333246,"velocity":0.7401574803149606,"duration":0.23828125},{"name":"A3","midi":57,"time":158.55208333333246,"velocity":0.7401574803149606,"duration":0.2369791666666572},{"name":"B3","midi":59,"time":158.79166666666578,"velocity":0.7401574803149606,"duration":1.4453125},{"name":"E4","midi":64,"time":158.79166666666578,"velocity":0.7401574803149606,"duration":1.4453125},{"name":"G#4","midi":68,"time":159.03255208333246,"velocity":0.7401574803149606,"duration":0.23828125},{"name":"A4","midi":69,"time":159.27473958333246,"velocity":0.7401574803149606,"duration":0.23828125},{"name":"F#4","midi":66,"time":159.51562499999912,"velocity":0.7401574803149606,"duration":0.23828125},{"name":"G#4","midi":68,"time":159.75781249999912,"velocity":0.7401574803149606,"duration":0.1171875},{"name":"F#4","midi":66,"time":159.87760416666578,"velocity":0.7401574803149606,"duration":0.1171875},{"name":"G#4","midi":68,"time":159.99869791666578,"velocity":0.7401574803149606,"duration":0.4791666666666572},{"name":"B4","midi":71,"time":160.48177083333243,"velocity":0.7401574803149606,"duration":0.23828125},{"name":"B4","midi":71,"time":160.7226562499991,"velocity":0.7401574803149606,"duration":0.1171875},{"name":"A4","midi":69,"time":160.8437499999991,"velocity":0.7401574803149606,"duration":0.1171875},{"name":"E2","midi":40,"time":160.9648437499991,"velocity":0.7401574803149606,"duration":0.23828125},{"name":"B4","midi":71,"time":160.9648437499991,"velocity":0.7401574803149606,"duration":0.9622395833333144},{"name":"G#2","midi":44,"time":161.20572916666575,"velocity":0.7401574803149606,"duration":0.23828125},{"name":"B2","midi":47,"time":161.4466145833324,"velocity":0.7401574803149606,"duration":0.23828125},{"name":"E3","midi":52,"time":161.6888020833324,"velocity":0.7401574803149606,"duration":1.4453124999999716},{"name":"C5","midi":72,"time":161.92968749999906,"velocity":0.7401574803149606,"duration":0.23828125},{"name":"B4","midi":71,"time":162.17187499999906,"velocity":0.7401574803149606,"duration":0.23828125},{"name":"A4","midi":69,"time":162.41276041666572,"velocity":0.7401574803149606,"duration":0.23828125},{"name":"G#4","midi":68,"time":162.65364583333238,"velocity":0.7401574803149606,"duration":0.23828125},{"name":"A4","midi":69,"time":162.89583333333238,"velocity":0.7401574803149606,"duration":0.23828125},{"name":"F#3","midi":54,"time":163.13671874999903,"velocity":0.7401574803149606,"duration":0.4791666666666572},{"name":"B4","midi":71,"time":163.13671874999903,"velocity":0.7401574803149606,"duration":0.23828125},{"name":"G#4","midi":68,"time":163.37890624999903,"velocity":0.7401574803149606,"duration":0.23828125},{"name":"G#3","midi":56,"time":163.6197916666657,"velocity":0.7401574803149606,"duration":0.4791666666666572},{"name":"E4","midi":64,"time":163.6197916666657,"velocity":0.7401574803149606,"duration":0.23828125},{"name":"D5","midi":74,"time":163.86067708333235,"velocity":0.7401574803149606,"duration":0.23828125},{"name":"E3","midi":52,"time":164.10286458333235,"velocity":0.7401574803149606,"duration":0.4791666666666572},{"name":"C5","midi":72,"time":164.10286458333235,"velocity":0.7401574803149606,"duration":0.23828125},{"name":"B4","midi":71,"time":164.343749999999,"velocity":0.7401574803149606,"duration":0.23828125},{"name":"A3","midi":57,"time":164.585937499999,"velocity":0.7401574803149606,"duration":0.4791666666666572},{"name":"C5","midi":72,"time":164.585937499999,"velocity":0.7401574803149606,"duration":0.23828125},{"name":"D5","midi":74,"time":164.82682291666566,"velocity":0.7401574803149606,"duration":0.23828125},{"name":"G3","midi":55,"time":165.06770833333232,"velocity":0.7401574803149606,"duration":0.7213541666666572},{"name":"E5","midi":76,"time":165.06770833333232,"velocity":0.7401574803149606,"duration":0.23828125},{"name":"C5","midi":72,"time":165.30989583333232,"velocity":0.7401574803149606,"duration":0.23828125},{"name":"A4","midi":69,"time":165.55078124999898,"velocity":0.7401574803149606,"duration":0.23828125},{"name":"F3","midi":53,"time":165.79296874999898,"velocity":0.7401574803149606,"duration":0.23828125},{"name":"B4","midi":71,"time":165.79296874999898,"velocity":0.7401574803149606,"duration":0.23828125},{"name":"E3","midi":52,"time":166.03385416666563,"velocity":0.7401574803149606,"duration":0.23828125},{"name":"C#5","midi":73,"time":166.03385416666563,"velocity":0.7401574803149606,"duration":0.23828125},{"name":"D3","midi":50,"time":166.2747395833323,"velocity":0.7401574803149606,"duration":0.23828125},{"name":"D5","midi":74,"time":166.2747395833323,"velocity":0.7401574803149606,"duration":0.23828125},{"name":"C#3","midi":49,"time":166.5169270833323,"velocity":0.7401574803149606,"duration":0.23828125},{"name":"E5","midi":76,"time":166.5169270833323,"velocity":0.7401574803149606,"duration":0.23828125},{"name":"D3","midi":50,"time":166.75781249999895,"velocity":0.7401574803149606,"duration":0.23828125},{"name":"F5","midi":77,"time":166.75781249999895,"velocity":0.7401574803149606,"duration":0.23828125},{"name":"E3","midi":52,"time":166.99999999999895,"velocity":0.7401574803149606,"duration":0.23828125},{"name":"G5","midi":79,"time":166.99999999999895,"velocity":0.7401574803149606,"duration":0.23828125},{"name":"C#3","midi":49,"time":167.2408854166656,"velocity":0.7401574803149606,"duration":0.23828125},{"name":"E5","midi":76,"time":167.2408854166656,"velocity":0.7401574803149606,"duration":0.23828125},{"name":"A2","midi":45,"time":167.48177083333226,"velocity":0.7401574803149606,"duration":0.23828125},{"name":"C#5","midi":73,"time":167.48177083333226,"velocity":0.7401574803149606,"duration":0.23828125},{"name":"G3","midi":55,"time":167.72395833333226,"velocity":0.7401574803149606,"duration":0.23828125},{"name":"A#5","midi":82,"time":167.72395833333226,"velocity":0.7401574803149606,"duration":0.23828125},{"name":"F3","midi":53,"time":167.96484374999892,"velocity":0.7401574803149606,"duration":0.23828125},{"name":"A5","midi":81,"time":167.96484374999892,"velocity":0.7401574803149606,"duration":0.23828125},{"name":"E3","midi":52,"time":168.20703124999892,"velocity":0.7401574803149606,"duration":0.23828125},{"name":"G5","midi":79,"time":168.20703124999892,"velocity":0.7401574803149606,"duration":0.23828125},{"name":"D3","midi":50,"time":168.44791666666558,"velocity":0.7401574803149606,"duration":0.4791666666666572},{"name":"F5","midi":77,"time":168.44791666666558,"velocity":0.7401574803149606,"duration":0.23828125},{"name":"E5","midi":76,"time":168.68880208333223,"velocity":0.7401574803149606,"duration":0.23828125},{"name":"D2","midi":38,"time":168.93098958333223,"velocity":0.7401574803149606,"duration":0.7213541666666572},{"name":"F5","midi":77,"time":168.93098958333223,"velocity":0.7401574803149606,"duration":0.23828125},{"name":"D5","midi":74,"time":169.1718749999989,"velocity":0.7401574803149606,"duration":0.23828125},{"name":"A5","midi":81,"time":169.4140624999989,"velocity":0.7401574803149606,"duration":0.9544270833333144},{"name":"D3","midi":50,"time":169.65494791666555,"velocity":0.7401574803149606,"duration":0.23828125},{"name":"F5","midi":77,"time":169.65494791666555,"velocity":0.7401574803149606,"duration":0.23828125},{"name":"E3","midi":52,"time":169.8958333333322,"velocity":0.7401574803149606,"duration":0.23828125},{"name":"C#5","midi":73,"time":169.8958333333322,"velocity":0.7401574803149606,"duration":0.23828125},{"name":"F3","midi":53,"time":170.1380208333322,"velocity":0.7401574803149606,"duration":0.23828125},{"name":"D5","midi":74,"time":170.1380208333322,"velocity":0.7401574803149606,"duration":1.4453124999999716},{"name":"G3","midi":55,"time":170.37890624999886,"velocity":0.7401574803149606,"duration":0.23828125},{"name":"A#5","midi":82,"time":170.37890624999886,"velocity":0.7401574803149606,"duration":0.7213541666666572},{"name":"F3","midi":53,"time":170.62109374999886,"velocity":0.7401574803149606,"duration":0.23828125},{"name":"G3","midi":55,"time":170.86197916666552,"velocity":0.7401574803149606,"duration":0.23828125},{"name":"A3","midi":57,"time":171.10286458333218,"velocity":0.7401574803149606,"duration":0.23828125},{"name":"A5","midi":81,"time":171.10286458333218,"velocity":0.7401574803149606,"duration":0.23828125},{"name":"A#3","midi":58,"time":171.34505208333218,"velocity":0.7401574803149606,"duration":0.23828125},{"name":"G5","midi":79,"time":171.34505208333218,"velocity":0.7401574803149606,"duration":0.703125},{"name":"A3","midi":57,"time":171.58593749999883,"velocity":0.7401574803149606,"duration":0.23828125},{"name":"F5","midi":77,"time":171.58593749999883,"velocity":0.7401574803149606,"duration":0.23828125},{"name":"A#3","midi":58,"time":171.82812499999883,"velocity":0.7401574803149606,"duration":0.23828125},{"name":"E5","midi":76,"time":171.82812499999883,"velocity":0.7401574803149606,"duration":0.23828125},{"name":"G3","midi":55,"time":172.0690104166655,"velocity":0.7401574803149606,"duration":0.23828125},{"name":"F5","midi":77,"time":172.0690104166655,"velocity":0.7401574803149606,"duration":0.1171875},{"name":"G5","midi":79,"time":172.1901041666655,"velocity":0.7401574803149606,"duration":0.3502604166666572},{"name":"A3","midi":57,"time":172.30989583333215,"velocity":0.7401574803149606,"duration":3.845052083333286},{"name":"C#5","midi":73,"time":172.30989583333215,"velocity":0.7401574803149606,"duration":1.2044270833333144},{"name":"F5","midi":77,"time":172.5507812499988,"velocity":0.7401574803149606,"duration":0.23828125},{"name":"G5","midi":79,"time":172.79166666666546,"velocity":0.7401574803149606,"duration":0.23828125},{"name":"E5","midi":76,"time":173.03255208333212,"velocity":0.7401574803149606,"duration":0.23828125},{"name":"F5","midi":77,"time":173.27473958333212,"velocity":0.7401574803149606,"duration":0.4765625000000284},{"name":"D5","midi":74,"time":173.5156249999988,"velocity":0.7401574803149606,"duration":0.4765625},{"name":"E5","midi":76,"time":173.7578124999988,"velocity":0.7401574803149606,"duration":1.6835937499999716},{"name":"B4","midi":71,"time":173.99869791666546,"velocity":0.7401574803149606,"duration":0.23828125},{"name":"C#5","midi":73,"time":174.23958333333212,"velocity":0.7401574803149606,"duration":0.23828125},{"name":"A4","midi":69,"time":174.48177083333212,"velocity":0.7401574803149606,"duration":0.23828125},{"name":"A#4","midi":70,"time":174.72265624999878,"velocity":0.7401574803149606,"duration":0.4791666666666572},{"name":"G4","midi":67,"time":174.96484374999878,"velocity":0.7401574803149606,"duration":0.23828125},{"name":"F4","midi":65,"time":175.20572916666544,"velocity":0.7401574803149606,"duration":0.4791666666666856},{"name":"A4","midi":69,"time":175.20572916666544,"velocity":0.7401574803149606,"duration":0.4765625000000284},{"name":"D5","midi":74,"time":175.44661458333212,"velocity":0.7401574803149606,"duration":0.4765625},{"name":"E4","midi":64,"time":175.68880208333212,"velocity":0.7401574803149606,"duration":0.4778645833333144},{"name":"G4","midi":67,"time":175.68880208333212,"velocity":0.7401574803149606,"duration":0.7018229166666572},{"name":"C#5","midi":73,"time":175.92968749999878,"velocity":0.7401574803149606,"duration":0.2369791666666572},{"name":"D4","midi":62,"time":176.17057291666544,"velocity":0.7401574803149606,"duration":0.4791666666666856},{"name":"D5","midi":74,"time":176.17057291666544,"velocity":0.7401574803149606,"duration":1.20703125},{"name":"G4","midi":67,"time":176.41145833333212,"velocity":0.7401574803149606,"duration":0.23828125},{"name":"D3","midi":50,"time":176.65234374999878,"velocity":0.7401574803149606,"duration":0.7213541666666572},{"name":"F#4","midi":66,"time":176.65234374999878,"velocity":0.7401574803149606,"duration":0.23828125},{"name":"E4","midi":64,"time":176.89453124999878,"velocity":0.7401574803149606,"duration":0.23828125},{"name":"F#4","midi":66,"time":177.13541666666544,"velocity":0.7401574803149606,"duration":0.23828125},{"name":"D3","midi":50,"time":177.37760416666544,"velocity":0.7401574803149606,"duration":0.23828125},{"name":"E5","midi":76,"time":177.37760416666544,"velocity":0.7401574803149606,"duration":0.23828125},{"name":"E3","midi":52,"time":177.6184895833321,"velocity":0.7401574803149606,"duration":0.23828125},{"name":"D5","midi":74,"time":177.6184895833321,"velocity":0.7401574803149606,"duration":0.23828125},{"name":"F#3","midi":54,"time":177.85937499999875,"velocity":0.7401574803149606,"duration":0.23828125},{"name":"C5","midi":72,"time":177.85937499999875,"velocity":0.7401574803149606,"duration":0.23828125},{"name":"G3","midi":55,"time":178.10156249999875,"velocity":0.7401574803149606,"duration":0.23828125},{"name":"B4","midi":71,"time":178.10156249999875,"velocity":0.7401574803149606,"duration":0.23828125},{"name":"A3","midi":57,"time":178.3424479166654,"velocity":0.7401574803149606,"duration":0.23828125},{"name":"A4","midi":69,"time":178.3424479166654,"velocity":0.7401574803149606,"duration":0.23828125},{"name":"B3","midi":59,"time":178.5846354166654,"velocity":0.7401574803149606,"duration":0.23828125},{"name":"G4","midi":67,"time":178.5846354166654,"velocity":0.7401574803149606,"duration":0.23828125},{"name":"D3","midi":50,"time":178.82552083333206,"velocity":0.7401574803149606,"duration":0.23828125},{"name":"F#4","midi":66,"time":178.82552083333206,"velocity":0.7401574803149606,"duration":0.23828125},{"name":"C3","midi":48,"time":179.06640624999872,"velocity":0.7401574803149606,"duration":0.23828125},{"name":"E4","midi":64,"time":179.06640624999872,"velocity":0.7401574803149606,"duration":0.23828125},{"name":"B3","midi":59,"time":179.30859374999872,"velocity":0.7401574803149606,"duration":0.23828125},{"name":"G4","midi":67,"time":179.30859374999872,"velocity":0.7401574803149606,"duration":0.23828125},{"name":"A3","midi":57,"time":179.54947916666538,"velocity":0.7401574803149606,"duration":0.23828125},{"name":"F#4","midi":66,"time":179.54947916666538,"velocity":0.7401574803149606,"duration":0.23828125},{"name":"G3","midi":55,"time":179.79166666666538,"velocity":0.7401574803149606,"duration":0.23828125},{"name":"G4","midi":67,"time":179.79166666666538,"velocity":0.7401574803149606,"duration":0.23828125},{"name":"F#3","midi":54,"time":180.03255208333204,"velocity":0.7401574803149606,"duration":0.9544270833333144},{"name":"A4","midi":69,"time":180.03255208333204,"velocity":0.7401574803149606,"duration":1.2031249999999716},{"name":"E4","midi":64,"time":180.2734374999987,"velocity":0.7401574803149606,"duration":0.23828125},{"name":"D4","midi":62,"time":180.5156249999987,"velocity":0.7401574803149606,"duration":0.23828125},{"name":"C4","midi":60,"time":180.75651041666535,"velocity":0.7401574803149606,"duration":0.23828125},{"name":"B3","midi":59,"time":180.99869791666535,"velocity":0.7401574803149606,"duration":0.4791666666666572},{"name":"G3","midi":55,"time":180.99869791666535,"velocity":0.7401574803149606,"duration":0.4791666666666572},{"name":"A4","midi":69,"time":181.239583333332,"velocity":0.7401574803149606,"duration":0.23828125},{"name":"A3","midi":57,"time":181.48046874999866,"velocity":0.7401574803149606,"duration":0.4791666666666572},{"name":"C4","midi":60,"time":181.48046874999866,"velocity":0.7401574803149606,"duration":0.4791666666666572},{"name":"G4","midi":67,"time":181.48046874999866,"velocity":0.7401574803149606,"duration":0.23828125},{"name":"F#4","midi":66,"time":181.72265624999866,"velocity":0.7401574803149606,"duration":0.23828125},{"name":"B3","midi":59,"time":181.96354166666532,"velocity":0.7401574803149606,"duration":0.7213541666666572},{"name":"D4","midi":62,"time":181.96354166666532,"velocity":0.7401574803149606,"duration":0.7213541666666572},{"name":"G4","midi":67,"time":181.96354166666532,"velocity":0.7401574803149606,"duration":0.703125},{"name":"D5","midi":74,"time":182.20572916666532,"velocity":0.7401574803149606,"duration":0.23828125},{"name":"G5","midi":79,"time":182.44661458333198,"velocity":0.7401574803149606,"duration":0.703125},{"name":"E4","midi":64,"time":182.68749999999864,"velocity":0.7401574803149606,"duration":0.23828125},{"name":"C4","midi":60,"time":182.68749999999864,"velocity":0.7401574803149606,"duration":0.23828125},{"name":"A4","midi":69,"time":182.68749999999864,"velocity":0.7401574803149606,"duration":0.23828125},{"name":"D4","midi":62,"time":182.92968749999864,"velocity":0.7401574803149606,"duration":0.4791666666666856},{"name":"B4","midi":71,"time":182.92968749999864,"velocity":0.7401574803149606,"duration":0.4765625000000284},{"name":"G5","midi":79,"time":183.17057291666532,"velocity":0.7401574803149606,"duration":0.4765625},{"name":"C4","midi":60,"time":183.41276041666532,"velocity":0.7401574803149606,"duration":0.7031249999999716},{"name":"D3","midi":50,"time":183.41276041666532,"velocity":0.7401574803149606,"duration":0.4791666666666572},{"name":"A4","midi":69,"time":183.41276041666532,"velocity":0.7401574803149606,"duration":0.4765625},{"name":"F#5","midi":78,"time":183.65364583333198,"velocity":0.7401574803149606,"duration":0.23828125},{"name":"G3","midi":55,"time":183.89453124999864,"velocity":0.7401574803149606,"duration":1.4453124999999716},{"name":"G5","midi":79,"time":183.89453124999864,"velocity":0.7401574803149606,"duration":1.2031249999999716},{"name":"G4","midi":67,"time":183.89453124999864,"velocity":0.7401574803149606,"duration":1.2031249999999716},{"name":"C4","midi":60,"time":184.13671874999864,"velocity":0.7401574803149606,"duration":0.23828125},{"name":"B3","midi":59,"time":184.3776041666653,"velocity":0.7401574803149606,"duration":0.23828125},{"name":"A3","midi":57,"time":184.6197916666653,"velocity":0.7401574803149606,"duration":0.23828125},{"name":"B3","midi":59,"time":184.86067708333195,"velocity":0.7401574803149606,"duration":0.4791666666666572},{"name":"G4","midi":67,"time":185.1015624999986,"velocity":0.7401574803149606,"duration":0.23828125},{"name":"F3","midi":53,"time":185.3437499999986,"velocity":0.7401574803149606,"duration":0.4791666666666572},{"name":"A3","midi":57,"time":185.3437499999986,"velocity":0.7401574803149606,"duration":0.4791666666666572},{"name":"A4","midi":69,"time":185.3437499999986,"velocity":0.7401574803149606,"duration":0.23828125},{"name":"B4","midi":71,"time":185.58463541666526,"velocity":0.7401574803149606,"duration":0.23828125},{"name":"G3","midi":55,"time":185.82682291666526,"velocity":0.7401574803149606,"duration":0.4791666666666572},{"name":"E3","midi":52,"time":185.82682291666526,"velocity":0.7401574803149606,"duration":0.9544270833333144},{"name":"C5","midi":72,"time":185.82682291666526,"velocity":0.7401574803149606,"duration":0.23828125},{"name":"D5","midi":74,"time":186.06770833333192,"velocity":0.7401574803149606,"duration":0.23828125},{"name":"C4","midi":60,"time":186.30859374999858,"velocity":0.7401574803149606,"duration":0.9544270833333144},{"name":"E5","midi":76,"time":186.30859374999858,"velocity":0.7401574803149606,"duration":0.23828125},{"name":"G4","midi":67,"time":186.55078124999858,"velocity":0.7401574803149606,"duration":0.23828125},{"name":"A3","midi":57,"time":186.79166666666524,"velocity":0.7401574803149606,"duration":0.9544270833333144},{"name":"F4","midi":65,"time":186.79166666666524,"velocity":0.7401574803149606,"duration":0.23828125},{"name":"E5","midi":76,"time":187.03385416666524,"velocity":0.7401574803149606,"duration":0.23828125},{"name":"F4","midi":65,"time":187.2747395833319,"velocity":0.7401574803149606,"duration":1.2070312499999716},{"name":"D5","midi":74,"time":187.2747395833319,"velocity":0.7401574803149606,"duration":0.23828125},{"name":"C5","midi":72,"time":187.51562499999855,"velocity":0.7401574803149606,"duration":0.23828125},{"name":"G3","midi":55,"time":187.75781249999855,"velocity":0.7401574803149606,"duration":1.4453124999999716},{"name":"B4","midi":71,"time":187.75781249999855,"velocity":0.7401574803149606,"duration":0.23828125},{"name":"A4","midi":69,"time":187.9986979166652,"velocity":0.7401574803149606,"duration":0.23828125},{"name":"G4","midi":67,"time":188.2408854166652,"velocity":0.7401574803149606,"duration":0.7213541666666572},{"name":"F4","midi":65,"time":188.48177083333186,"velocity":0.7401574803149606,"duration":0.23828125},{"name":"E4","midi":64,"time":188.72265624999852,"velocity":0.7401574803149606,"duration":0.4791666666666572},{"name":"C5","midi":72,"time":188.96484374999852,"velocity":0.7401574803149606,"duration":0.4791666666666572},{"name":"G3","midi":55,"time":189.20572916666518,"velocity":0.7401574803149606,"duration":0.4791666666666572},{"name":"D4","midi":62,"time":189.20572916666518,"velocity":0.7401574803149606,"duration":0.4791666666666572},{"name":"B4","midi":71,"time":189.44791666666518,"velocity":0.7401574803149606,"duration":0.23828125},{"name":"C3","midi":48,"time":189.68880208333184,"velocity":0.7401574803149606,"duration":0.4791666666666572},{"name":"C4","midi":60,"time":189.68880208333184,"velocity":0.7401574803149606,"duration":1.4453124999999716},{"name":"E5","midi":76,"time":189.68880208333184,"velocity":0.7401574803149606,"duration":0.23828125},{"name":"B4","midi":71,"time":189.9296874999985,"velocity":0.7401574803149606,"duration":0.23828125},{"name":"E3","midi":52,"time":190.1718749999985,"velocity":0.7401574803149606,"duration":0.4791666666666572},{"name":"C5","midi":72,"time":190.1718749999985,"velocity":0.7401574803149606,"duration":0.23828125},{"name":"G#4","midi":68,"time":190.41276041666515,"velocity":0.7401574803149606,"duration":0.23828125},{"name":"F3","midi":53,"time":190.65494791666515,"velocity":0.7401574803149606,"duration":0.9544270833333144},{"name":"A4","midi":69,"time":190.65494791666515,"velocity":0.7401574803149606,"duration":0.23828125},{"name":"C5","midi":72,"time":190.8958333333318,"velocity":0.7401574803149606,"duration":0.23828125},{"name":"D4","midi":62,"time":191.13671874999847,"velocity":0.7401574803149606,"duration":0.4791666666666572},{"name":"B4","midi":71,"time":191.13671874999847,"velocity":0.7401574803149606,"duration":0.23828125},{"name":"A4","midi":69,"time":191.37890624999847,"velocity":0.7401574803149606,"duration":0.23828125},{"name":"E4","midi":64,"time":191.61979166666512,"velocity":0.7401574803149606,"duration":0.4765625},{"name":"E3","midi":52,"time":191.61979166666512,"velocity":0.7401574803149606,"duration":1.4453124999999716},{"name":"G#4","midi":68,"time":191.61979166666512,"velocity":0.7401574803149606,"duration":0.23828125},{"name":"F#4","midi":66,"time":191.86197916666512,"velocity":0.7401574803149606,"duration":0.23828125},{"name":"E4","midi":64,"time":192.10286458333178,"velocity":0.7401574803149606,"duration":0.7213541666666572},{"name":"D4","midi":62,"time":192.34374999999844,"velocity":0.7401574803149606,"duration":0.23828125},{"name":"C4","midi":60,"time":192.58593749999844,"velocity":0.7401574803149606,"duration":0.4791666666666572},{"name":"F5","midi":77,"time":192.8268229166651,"velocity":0.7401574803149606,"duration":0.23828125},{"name":"B3","midi":59,"time":193.0690104166651,"velocity":0.7401574803149606,"duration":0.4791666666666572},{"name":"G#3","midi":56,"time":193.0690104166651,"velocity":0.7401574803149606,"duration":0.4791666666666572},{"name":"E5","midi":76,"time":193.0690104166651,"velocity":0.7401574803149606,"duration":0.23828125},{"name":"D5","midi":74,"time":193.30989583333175,"velocity":0.7401574803149606,"duration":0.23828125},{"name":"A3","midi":57,"time":193.5507812499984,"velocity":0.7401574803149606,"duration":0.4791666666666572},{"name":"C#5","midi":73,"time":193.5507812499984,"velocity":0.7401574803149606,"duration":0.23828125},{"name":"D5","midi":74,"time":193.7929687499984,"velocity":0.7401574803149606,"duration":0.23828125},{"name":"G3","midi":55,"time":194.03385416666507,"velocity":0.7401574803149606,"duration":0.4791666666666572},{"name":"C#4","midi":61,"time":194.03385416666507,"velocity":0.7401574803149606,"duration":0.4791666666666572},{"name":"E5","midi":76,"time":194.03385416666507,"velocity":0.7401574803149606,"duration":0.23828125},{"name":"C#5","midi":73,"time":194.27604166666507,"velocity":0.7401574803149606,"duration":0.23828125},{"name":"F3","midi":53,"time":194.51692708333172,"velocity":0.7401574803149606,"duration":0.4791666666666572},{"name":"D4","midi":62,"time":194.51692708333172,"velocity":0.7401574803149606,"duration":0.4791666666666572},{"name":"A4","midi":69,"time":194.51692708333172,"velocity":0.7401574803149606,"duration":0.23828125},{"name":"G5","midi":79,"time":194.75781249999838,"velocity":0.7401574803149606,"duration":0.23828125},{"name":"C#4","midi":61,"time":194.99999999999838,"velocity":0.7401574803149606,"duration":0.4791666666666572},{"name":"A3","midi":57,"time":194.99999999999838,"velocity":0.7401574803149606,"duration":0.4791666666666572},{"name":"F5","midi":77,"time":194.99999999999838,"velocity":0.7401574803149606,"duration":0.23828125},{"name":"E5","midi":76,"time":195.24088541666504,"velocity":0.7401574803149606,"duration":0.23828125},{"name":"D3","midi":50,"time":195.48307291666504,"velocity":0.7401574803149606,"duration":0.4791666666666572},{"name":"D4","midi":62,"time":195.48307291666504,"velocity":0.7401574803149606,"duration":0.4791666666666572},{"name":"F5","midi":77,"time":195.48307291666504,"velocity":0.7401574803149606,"duration":0.23828125},{"name":"G5","midi":79,"time":195.7239583333317,"velocity":0.7401574803149606,"duration":0.23828125},{"name":"C3","midi":48,"time":195.96484374999835,"velocity":0.7401574803149606,"duration":0.4791666666666572},{"name":"E3","midi":52,"time":195.96484374999835,"velocity":0.7401574803149606,"duration":0.4791666666666572},{"name":"A5","midi":81,"time":195.96484374999835,"velocity":0.7401574803149606,"duration":0.23828125},{"name":"F5","midi":77,"time":196.20703124999835,"velocity":0.7401574803149606,"duration":0.23828125},{"name":"F3","midi":53,"time":196.447916666665,"velocity":0.7401574803149606,"duration":0.7018229166666572},{"name":"B2","midi":47,"time":196.447916666665,"velocity":0.7401574803149606,"duration":0.4778645833333144},{"name":"D5","midi":74,"time":196.447916666665,"velocity":0.7401574803149606,"duration":0.3502604166666572},{"name":"C5","midi":72,"time":196.690104166665,"velocity":0.7401574803149606,"duration":0.2369791666666572},{"name":"D3","midi":50,"time":196.92968749999832,"velocity":0.7401574803149606,"duration":0.9544270833333428},{"name":"B4","midi":71,"time":196.92968749999832,"velocity":0.7401574803149606,"duration":0.4023437500000284},{"name":"F#3","midi":54,"time":197.170572916665,"velocity":0.7401574803149606,"duration":0.23828125},{"name":"A4","midi":69,"time":197.170572916665,"velocity":0.7401574803149606,"duration":0.23828125},{"name":"G#3","midi":56,"time":197.412760416665,"velocity":0.7401574803149606,"duration":0.23828125},{"name":"E5","midi":76,"time":197.412760416665,"velocity":0.7401574803149606,"duration":0.703125},{"name":"B3","midi":59,"time":197.65364583333167,"velocity":0.7401574803149606,"duration":0.23828125},{"name":"G#4","midi":68,"time":197.65364583333167,"velocity":0.7401574803149606,"duration":0.23828125},{"name":"E3","midi":52,"time":197.89583333333167,"velocity":0.7401574803149606,"duration":0.23828125},{"name":"C3","midi":48,"time":197.89583333333167,"velocity":0.7401574803149606,"duration":0.23828125},{"name":"A4","midi":69,"time":197.89583333333167,"velocity":0.7401574803149606,"duration":0.4765625},{"name":"D3","midi":50,"time":198.13671874999832,"velocity":0.7401574803149606,"duration":0.23828125},{"name":"F5","midi":77,"time":198.13671874999832,"velocity":0.7401574803149606,"duration":0.23828125},{"name":"E3","midi":52,"time":198.37760416666498,"velocity":0.7401574803149606,"duration":0.23828125},{"name":"B4","midi":71,"time":198.37760416666498,"velocity":0.7401574803149606,"duration":0.703125},{"name":"D3","midi":50,"time":198.61979166666498,"velocity":0.7401574803149606,"duration":0.23828125},{"name":"A4","midi":69,"time":198.61979166666498,"velocity":0.7401574803149606,"duration":0.23828125},{"name":"E3","midi":52,"time":198.86067708333164,"velocity":0.7401574803149606,"duration":0.23828125},{"name":"G#4","midi":68,"time":198.86067708333164,"velocity":0.7401574803149606,"duration":0.4765625},{"name":"C3","midi":48,"time":199.10286458333164,"velocity":0.7401574803149606,"duration":0.23828125},{"name":"C5","midi":72,"time":199.10286458333164,"velocity":0.7401574803149606,"duration":0.23828125},{"name":"F3","midi":53,"time":199.3437499999983,"velocity":0.7401574803149606,"duration":0.23828125},{"name":"D5","midi":74,"time":199.3437499999983,"velocity":0.7401574803149606,"duration":2.161458333333286},{"name":"E3","midi":52,"time":199.58463541666495,"velocity":0.7401574803149606,"duration":0.23828125},{"name":"C5","midi":72,"time":199.58463541666495,"velocity":0.7401574803149606,"duration":0.23828125},{"name":"D3","midi":50,"time":199.82682291666495,"velocity":0.7401574803149606,"duration":0.23828125},{"name":"B4","midi":71,"time":199.82682291666495,"velocity":0.7401574803149606,"duration":0.23828125},{"name":"C3","midi":48,"time":200.0677083333316,"velocity":0.7401574803149606,"duration":0.23828125},{"name":"A4","midi":69,"time":200.0677083333316,"velocity":0.7401574803149606,"duration":0.23828125},{"name":"B2","midi":47,"time":200.3098958333316,"velocity":0.7401574803149606,"duration":0.23828125},{"name":"G#4","midi":68,"time":200.3098958333316,"velocity":0.7401574803149606,"duration":0.23828125},{"name":"C3","midi":48,"time":200.55078124999827,"velocity":0.7401574803149606,"duration":0.23828125},{"name":"A4","midi":69,"time":200.55078124999827,"velocity":0.7401574803149606,"duration":0.23828125},{"name":"D3","midi":50,"time":200.79166666666492,"velocity":0.7401574803149606,"duration":0.23828125},{"name":"G#4","midi":68,"time":200.79166666666492,"velocity":0.7401574803149606,"duration":0.23828125},{"name":"B2","midi":47,"time":201.03385416666492,"velocity":0.7401574803149606,"duration":0.23828125},{"name":"A4","midi":69,"time":201.03385416666492,"velocity":0.7401574803149606,"duration":0.1171875},{"name":"B4","midi":71,"time":201.15494791666492,"velocity":0.7401574803149606,"duration":0.1171875},{"name":"G#2","midi":44,"time":201.27473958333158,"velocity":0.7401574803149606,"duration":0.4778645833333144},{"name":"E4","midi":64,"time":201.27473958333158,"velocity":0.7401574803149606,"duration":0.7018229166666572},{"name":"C5","midi":72,"time":201.51562499999824,"velocity":0.7401574803149606,"duration":0.1171875},{"name":"B4","midi":71,"time":201.6354166666649,"velocity":0.7401574803149606,"duration":0.1171875},{"name":"A2","midi":45,"time":201.7565104166649,"velocity":0.7401574803149606,"duration":0.4791666666666572},{"name":"C5","midi":72,"time":201.7565104166649,"velocity":0.7401574803149606,"duration":0.23828125},{"name":"A4","midi":69,"time":201.99739583333155,"velocity":0.7401574803149606,"duration":0.9544270833333144},{"name":"C4","midi":60,"time":201.99739583333155,"velocity":0.7401574803149606,"duration":0.23828125},{"name":"E3","midi":52,"time":202.23958333333155,"velocity":0.7401574803149606,"duration":0.4791666666666572},{"name":"B3","midi":59,"time":202.23958333333155,"velocity":0.7401574803149606,"duration":0.23828125},{"name":"C4","midi":60,"time":202.4804687499982,"velocity":0.7401574803149606,"duration":0.23828125},{"name":"E2","midi":40,"time":202.7226562499982,"velocity":0.7401574803149606,"duration":0.4778645833333144},{"name":"D4","midi":62,"time":202.7226562499982,"velocity":0.7401574803149606,"duration":0.7122395833333144},{"name":"G#4","midi":68,"time":202.96223958333152,"velocity":0.7401574803149606,"duration":0.23828125},{"name":"A2","midi":45,"time":203.20312499999818,"velocity":0.7401574803149606,"duration":5.442708333333314},{"name":"A4","midi":69,"time":203.20312499999818,"velocity":0.7401574803149606,"duration":1.7682291666666572},{"name":"F3","midi":53,"time":203.45703124999818,"velocity":0.7401574803149606,"duration":0.25},{"name":"C#4","midi":61,"time":203.45703124999818,"velocity":0.7401574803149606,"duration":0.25},{"name":"G3","midi":55,"time":203.71093749999818,"velocity":0.7401574803149606,"duration":0.25},{"name":"E4","midi":64,"time":203.71093749999818,"velocity":0.7401574803149606,"duration":0.7565104166666572},{"name":"E3","midi":52,"time":203.96354166666484,"velocity":0.7401574803149606,"duration":0.25},{"name":"F3","midi":53,"time":204.21744791666484,"velocity":0.7401574803149606,"duration":0.25},{"name":"E3","midi":52,"time":204.47135416666484,"velocity":0.7401574803149606,"duration":0.25},{"name":"A3","midi":57,"time":204.47135416666484,"velocity":0.7401574803149606,"duration":0.25},{"name":"F3","midi":53,"time":204.7239583333315,"velocity":0.7401574803149606,"duration":0.25},{"name":"D4","midi":62,"time":204.7239583333315,"velocity":0.7401574803149606,"duration":0.76953125},{"name":"D3","midi":50,"time":204.9778645833315,"velocity":0.7401574803149606,"duration":0.25},{"name":"G#4","midi":68,"time":204.9778645833315,"velocity":0.7401574803149606,"duration":0.25},{"name":"E3","midi":52,"time":205.2317708333315,"velocity":0.7401574803149606,"duration":3.438802083333343},{"name":"A4","midi":69,"time":205.2317708333315,"velocity":0.7401574803149606,"duration":3.125},{"name":"C#4","midi":61,"time":205.51822916666484,"velocity":0.7401574803149606,"duration":0.2838541666666572},{"name":"D4","midi":62,"time":205.8059895833315,"velocity":0.7401574803149606,"duration":0.3385416666666572},{"name":"B3","midi":59,"time":206.1341145833315,"velocity":0.7401574803149606,"duration":0.390625},{"name":"C#4","midi":61,"time":206.56640624999815,"velocity":0.7401574803149606,"duration":1.8229166666666856},{"name":"A4","midi":69,"time":208.3763020833315,"velocity":0.7401574803149606,"duration":0.3645833333333428},{"name":"C4","midi":60,"time":208.81249999999818,"velocity":0.7401574803149606,"duration":0.703125},{"name":"A2","midi":45,"time":208.81249999999818,"velocity":0.7401574803149606,"duration":0.23828125},{"name":"E4","midi":64,"time":208.93359374999818,"velocity":0.7401574803149606,"duration":0.5833333333333428},{"name":"A4","midi":69,"time":209.05338541666484,"velocity":0.7401574803149606,"duration":0.4791666666666856},{"name":"E3","midi":52,"time":209.05338541666484,"velocity":0.7401574803149606,"duration":0.23828125},{"name":"A3","midi":57,"time":209.29557291666484,"velocity":0.7401574803149606,"duration":0.7213541666666856},{"name":"G#4","midi":68,"time":209.53645833333152,"velocity":0.7401574803149606,"duration":0.23828125},{"name":"A4","midi":69,"time":209.77864583333152,"velocity":0.7401574803149606,"duration":0.23828125},{"name":"B4","midi":71,"time":210.01953124999818,"velocity":0.7401574803149606,"duration":0.23828125},{"name":"G#3","midi":56,"time":210.01953124999818,"velocity":0.7401574803149606,"duration":0.23828125},{"name":"C5","midi":72,"time":210.26041666666484,"velocity":0.7401574803149606,"duration":0.23828125},{"name":"A3","midi":57,"time":210.26041666666484,"velocity":0.7401574803149606,"duration":0.23828125},{"name":"D5","midi":74,"time":210.50260416666484,"velocity":0.7401574803149606,"duration":0.23828125},{"name":"B3","midi":59,"time":210.50260416666484,"velocity":0.7401574803149606,"duration":0.23828125},{"name":"E5","midi":76,"time":210.7434895833315,"velocity":0.7401574803149606,"duration":0.4765625},{"name":"C4","midi":60,"time":210.7434895833315,"velocity":0.7401574803149606,"duration":0.23828125},{"name":"A4","midi":69,"time":210.9856770833315,"velocity":0.7401574803149606,"duration":0.3502604166666572},{"name":"D4","midi":62,"time":210.9856770833315,"velocity":0.7401574803149606,"duration":0.23828125},{"name":"E5","midi":76,"time":211.22656249999815,"velocity":0.7401574803149606,"duration":0.23828125},{"name":"E4","midi":64,"time":211.22656249999815,"velocity":0.7401574803149606,"duration":0.1171875},{"name":"D4","midi":62,"time":211.34765624999815,"velocity":0.7401574803149606,"duration":0.1171875},{"name":"F5","midi":77,"time":211.4674479166648,"velocity":0.7401574803149606,"duration":0.23828125},{"name":"C4","midi":60,"time":211.4674479166648,"velocity":0.7401574803149606,"duration":0.1171875},{"name":"D4","midi":62,"time":211.5885416666648,"velocity":0.7401574803149606,"duration":0.1171875},{"name":"A4","midi":69,"time":211.7096354166648,"velocity":0.7401574803149606,"duration":0.19010416666668561},{"name":"E4","midi":64,"time":211.7096354166648,"velocity":0.7401574803149606,"duration":0.23828125000002842},{"name":"G#4","midi":68,"time":211.89062499999815,"velocity":0.7401574803149606,"duration":0.1171875},{"name":"B3","midi":59,"time":211.9505208333315,"velocity":0.7401574803149606,"duration":0.2369791666666572},{"name":"A4","midi":69,"time":211.99999999999815,"velocity":0.7401574803149606,"duration":0.1171875},{"name":"G#4","midi":68,"time":212.0950520833315,"velocity":0.7401574803149606,"duration":0.1171875},{"name":"A4","midi":69,"time":212.19140624999815,"velocity":0.7401574803149606,"duration":0.1171875},{"name":"E3","midi":52,"time":212.19140624999815,"velocity":0.7401574803149606,"duration":0.23828125},{"name":"G#4","midi":68,"time":212.2864583333315,"velocity":0.7401574803149606,"duration":0.1171875},{"name":"A4","midi":69,"time":212.4322916666648,"velocity":0.7401574803149606,"duration":0.23828125},{"name":"F3","midi":53,"time":212.4322916666648,"velocity":0.7401574803149606,"duration":0.23828125},{"name":"B4","midi":71,"time":212.67317708333147,"velocity":0.7401574803149606,"duration":0.4427083333333428},{"name":"E3","midi":52,"time":212.67317708333147,"velocity":0.7401574803149606,"duration":0.23828125},{"name":"D3","midi":50,"time":212.91536458333147,"velocity":0.7401574803149606,"duration":0.23828125},{"name":"E4","midi":64,"time":213.15624999999812,"velocity":0.7401574803149606,"duration":0.4427083333333428},{"name":"C3","midi":48,"time":213.15624999999812,"velocity":0.7401574803149606,"duration":0.23828125},{"name":"B2","midi":47,"time":213.39843749999812,"velocity":0.7401574803149606,"duration":0.23828125},{"name":"D5","midi":74,"time":213.63932291666478,"velocity":0.7401574803149606,"duration":0.1171875},{"name":"A2","midi":45,"time":213.63932291666478,"velocity":0.7401574803149606,"duration":0.23828125},{"name":"C5","midi":72,"time":213.76041666666478,"velocity":0.7401574803149606,"duration":0.1171875},{"name":"D5","midi":74,"time":213.88020833333144,"velocity":0.7401574803149606,"duration":0.4791666666666572},{"name":"F3","midi":53,"time":213.88020833333144,"velocity":0.7401574803149606,"duration":0.23828125},{"name":"A2","midi":45,"time":214.12239583333144,"velocity":0.7401574803149606,"duration":0.23828125},{"name":"E5","midi":76,"time":214.3632812499981,"velocity":0.7401574803149606,"duration":0.23828125},{"name":"G#2","midi":44,"time":214.3632812499981,"velocity":0.7401574803149606,"duration":0.23828125},{"name":"D5","midi":74,"time":214.6054687499981,"velocity":0.7401574803149606,"duration":0.1171875},{"name":"A2","midi":45,"time":214.6054687499981,"velocity":0.7401574803149606,"duration":0.23828125000002842},{"name":"C5","midi":72,"time":214.70572916666475,"velocity":0.7401574803149606,"duration":0.11718750000002842},{"name":"D5","midi":74,"time":214.80598958333144,"velocity":0.7401574803149606,"duration":0.11718750000002842},{"name":"E2","midi":40,"time":214.84635416666478,"velocity":0.7401574803149606,"duration":0.23828125},{"name":"C5","midi":72,"time":214.90624999999812,"velocity":0.7401574803149606,"duration":0.1171875},{"name":"D5","midi":74,"time":215.00781249999812,"velocity":0.7401574803149606,"duration":0.1171875},{"name":"A2","midi":45,"time":215.08723958333144,"velocity":0.7401574803149606,"duration":0.23828125000002842},{"name":"C5","midi":72,"time":215.10807291666478,"velocity":0.7401574803149606,"duration":0.24088541666668561},{"name":"B4","midi":71,"time":215.32942708333147,"velocity":0.7401574803149606,"duration":0.23828125},{"name":"B2","midi":47,"time":215.32942708333147,"velocity":0.7401574803149606,"duration":0.23828125},{"name":"A4","midi":69,"time":215.57031249999812,"velocity":0.7401574803149606,"duration":0.23828125},{"name":"C3","midi":48,"time":215.57031249999812,"velocity":0.7401574803149606,"duration":0.23828125},{"name":"G#4","midi":68,"time":215.81249999999812,"velocity":0.7401574803149606,"duration":0.23828125},{"name":"B2","midi":47,"time":215.81249999999812,"velocity":0.7401574803149606,"duration":0.23828125},{"name":"A4","midi":69,"time":216.05338541666478,"velocity":0.7401574803149606,"duration":0.23828125},{"name":"C3","midi":48,"time":216.05338541666478,"velocity":0.7401574803149606,"duration":0.23828125},{"name":"B4","midi":71,"time":216.29427083333144,"velocity":0.7401574803149606,"duration":0.23828125},{"name":"D3","midi":50,"time":216.29427083333144,"velocity":0.7401574803149606,"duration":0.23828125},{"name":"G#4","midi":68,"time":216.53645833333144,"velocity":0.7401574803149606,"duration":0.703125},{"name":"C5","midi":72,"time":216.53645833333144,"velocity":0.7401574803149606,"duration":0.3593750000000284},{"name":"E3","midi":52,"time":216.53645833333144,"velocity":0.7401574803149606,"duration":0.1171875},{"name":"D3","midi":50,"time":216.6367187499981,"velocity":0.7401574803149606,"duration":0.11718750000002842},{"name":"E3","midi":52,"time":216.73697916666478,"velocity":0.7401574803149606,"duration":0.4765625},{"name":"B4","midi":71,"time":216.89843749999812,"velocity":0.7401574803149606,"duration":0.1171875},{"name":"C5","midi":72,"time":217.01953124999812,"velocity":0.7401574803149606,"duration":0.1171875},{"name":"E2","midi":40,"time":217.01953124999812,"velocity":0.7401574803149606,"duration":0.4791666666666572},{"name":"B4","midi":71,"time":217.13932291666478,"velocity":0.7401574803149606,"duration":0.1171875},{"name":"A4","midi":69,"time":217.26041666666478,"velocity":0.7401574803149606,"duration":0.23828125},{"name":"A4","midi":69,"time":217.50130208333144,"velocity":0.7401574803149606,"duration":0.7213541666666572},{"name":"A2","midi":45,"time":217.50130208333144,"velocity":0.7401574803149606,"duration":0.23828125},{"name":"A3","midi":57,"time":217.74348958333144,"velocity":0.7401574803149606,"duration":0.23828125},{"name":"G3","midi":55,"time":217.9843749999981,"velocity":0.7401574803149606,"duration":0.23828125},{"name":"A5","midi":81,"time":218.2265624999981,"velocity":0.7401574803149606,"duration":0.23828125},{"name":"F3","midi":53,"time":218.2265624999981,"velocity":0.7401574803149606,"duration":0.23828125},{"name":"G5","midi":79,"time":218.46744791666475,"velocity":0.7401574803149606,"duration":0.23828125},{"name":"E3","midi":52,"time":218.46744791666475,"velocity":0.7401574803149606,"duration":0.23828125},{"name":"F5","midi":77,"time":218.7083333333314,"velocity":0.7401574803149606,"duration":0.23828125},{"name":"D3","midi":50,"time":218.7083333333314,"velocity":0.7401574803149606,"duration":0.23828125},{"name":"E5","midi":76,"time":218.9505208333314,"velocity":0.7401574803149606,"duration":0.23828125},{"name":"C3","midi":48,"time":218.9505208333314,"velocity":0.7401574803149606,"duration":0.23828125},{"name":"D5","midi":74,"time":219.19140624999807,"velocity":0.7401574803149606,"duration":0.23828125},{"name":"D3","midi":50,"time":219.19140624999807,"velocity":0.7401574803149606,"duration":0.23828125},{"name":"C5","midi":72,"time":219.43359374999807,"velocity":0.7401574803149606,"duration":0.23828125},{"name":"E3","midi":52,"time":219.43359374999807,"velocity":0.7401574803149606,"duration":0.23828125},{"name":"G5","midi":79,"time":219.67447916666472,"velocity":0.7401574803149606,"duration":0.23828125},{"name":"D3","midi":50,"time":219.67447916666472,"velocity":0.7401574803149606,"duration":0.23828125},{"name":"C5","midi":72,"time":219.91536458333138,"velocity":0.7401574803149606,"duration":0.1171875},{"name":"E3","midi":52,"time":219.91536458333138,"velocity":0.7401574803149606,"duration":0.23828125},{"name":"A#4","midi":70,"time":220.03645833333138,"velocity":0.7401574803149606,"duration":0.1171875},{"name":"A4","midi":69,"time":220.15755208333138,"velocity":0.7401574803149606,"duration":0.1171875},{"name":"C3","midi":48,"time":220.15755208333138,"velocity":0.7401574803149606,"duration":0.23828125},{"name":"A#4","midi":70,"time":220.27734374999804,"velocity":0.7401574803149606,"duration":0.1171875},{"name":"A4","midi":69,"time":220.39843749999804,"velocity":0.7401574803149606,"duration":0.4791666666666572},{"name":"F3","midi":53,"time":220.39843749999804,"velocity":0.7401574803149606,"duration":0.23828125},{"name":"F2","midi":41,"time":220.64062499999804,"velocity":0.7401574803149606,"duration":0.23828125},{"name":"D5","midi":74,"time":220.8815104166647,"velocity":0.7401574803149606,"duration":0.7213541666666572},{"name":"F3","midi":53,"time":220.8815104166647,"velocity":0.7401574803149606,"duration":0.23828125},{"name":"E3","midi":52,"time":221.12239583333135,"velocity":0.7401574803149606,"duration":0.23828125},{"name":"F3","midi":53,"time":221.36458333333135,"velocity":0.7401574803149606,"duration":0.23828125},{"name":"C5","midi":72,"time":221.605468749998,"velocity":0.7401574803149606,"duration":0.23828125},{"name":"G3","midi":55,"time":221.605468749998,"velocity":0.7401574803149606,"duration":0.23828125},{"name":"F5","midi":77,"time":221.847656249998,"velocity":0.7401574803149606,"duration":0.23828125},{"name":"A3","midi":57,"time":221.847656249998,"velocity":0.7401574803149606,"duration":0.23828125},{"name":"D5","midi":74,"time":222.08854166666467,"velocity":0.7401574803149606,"duration":0.23828125},{"name":"B3","midi":59,"time":222.08854166666467,"velocity":0.7401574803149606,"duration":0.23828125},{"name":"E5","midi":76,"time":222.32942708333132,"velocity":0.7401574803149606,"duration":0.23828125},{"name":"C4","midi":60,"time":222.32942708333132,"velocity":0.7401574803149606,"duration":0.23828125},{"name":"F5","midi":77,"time":222.57161458333132,"velocity":0.7401574803149606,"duration":0.23828125},{"name":"F3","midi":53,"time":222.57161458333132,"velocity":0.7401574803149606,"duration":0.23828125},{"name":"G5","midi":79,"time":222.81249999999798,"velocity":0.7401574803149606,"duration":0.1171875},{"name":"C4","midi":60,"time":222.81249999999798,"velocity":0.7401574803149606,"duration":0.23828125},{"name":"F5","midi":77,"time":222.93359374999798,"velocity":0.7401574803149606,"duration":0.1171875},{"name":"E5","midi":76,"time":223.05468749999798,"velocity":0.7401574803149606,"duration":0.1171875},{"name":"D4","midi":62,"time":223.05468749999798,"velocity":0.7401574803149606,"duration":0.23828125},{"name":"F5","midi":77,"time":223.17447916666464,"velocity":0.7401574803149606,"duration":0.1171875},{"name":"G5","midi":79,"time":223.29557291666464,"velocity":0.7401574803149606,"duration":0.1171875},{"name":"F3","midi":53,"time":223.29557291666464,"velocity":0.7401574803149606,"duration":0.23828125},{"name":"F5","midi":77,"time":223.41666666666464,"velocity":0.7401574803149606,"duration":0.1171875},{"name":"E5","midi":76,"time":223.5364583333313,"velocity":0.7401574803149606,"duration":0.1171875},{"name":"E3","midi":52,"time":223.5364583333313,"velocity":0.7401574803149606,"duration":0.4791666666666572},{"name":"D5","midi":74,"time":223.6575520833313,"velocity":0.7401574803149606,"duration":0.1171875},{"name":"C5","midi":72,"time":223.7786458333313,"velocity":0.7401574803149606,"duration":0.23828125},{"name":"G5","midi":79,"time":224.01953124999795,"velocity":0.7401574803149606,"duration":0.23828125},{"name":"F3","midi":53,"time":224.01953124999795,"velocity":0.7401574803149606,"duration":0.23828125},{"name":"A#4","midi":70,"time":224.26171874999795,"velocity":0.7401574803149606,"duration":0.23828125},{"name":"G3","midi":55,"time":224.26171874999795,"velocity":0.7401574803149606,"duration":0.4791666666666572},{"name":"A4","midi":69,"time":224.5026041666646,"velocity":0.7401574803149606,"duration":0.23828125},{"name":"A#4","midi":70,"time":224.74348958333127,"velocity":0.7401574803149606,"duration":0.23828125},{"name":"C3","midi":48,"time":224.74348958333127,"velocity":0.7401574803149606,"duration":0.4791666666666572},{"name":"E5","midi":76,"time":224.98567708333127,"velocity":0.7401574803149606,"duration":0.23828125},{"name":"G5","midi":79,"time":225.22656249999793,"velocity":0.7401574803149606,"duration":0.23828125},{"name":"A#3","midi":58,"time":225.22656249999793,"velocity":0.7401574803149606,"duration":0.7213541666666572},{"name":"F5","midi":77,"time":225.46874999999793,"velocity":0.7401574803149606,"duration":0.23828125},{"name":"G5","midi":79,"time":225.70963541666458,"velocity":0.7401574803149606,"duration":0.23828125},{"name":"E5","midi":76,"time":225.95052083333124,"velocity":0.7401574803149606,"duration":0.23828125},{"name":"C4","midi":60,"time":225.95052083333124,"velocity":0.7401574803149606,"duration":0.23828125},{"name":"F5","midi":77,"time":226.19270833333124,"velocity":0.7401574803149606,"duration":0.23828125},{"name":"A#3","midi":58,"time":226.19270833333124,"velocity":0.7401574803149606,"duration":0.1171875},{"name":"A3","midi":57,"time":226.3124999999979,"velocity":0.7401574803149606,"duration":0.1171875},{"name":"E5","midi":76,"time":226.4335937499979,"velocity":0.7401574803149606,"duration":0.23828125},{"name":"A#3","midi":58,"time":226.4335937499979,"velocity":0.7401574803149606,"duration":0.1171875},{"name":"A3","midi":57,"time":226.5546874999979,"velocity":0.7401574803149606,"duration":0.359375},{"name":"D5","midi":74,"time":226.6757812499979,"velocity":0.7401574803149606,"duration":0.23828125},{"name":"C5","midi":72,"time":226.91666666666455,"velocity":0.7401574803149606,"duration":0.23828125},{"name":"G3","midi":55,"time":226.91666666666455,"velocity":0.7401574803149606,"duration":0.23828125},{"name":"D5","midi":74,"time":227.1575520833312,"velocity":0.7401574803149606,"duration":0.23828125},{"name":"F3","midi":53,"time":227.1575520833312,"velocity":0.7401574803149606,"duration":0.23828125},{"name":"C5","midi":72,"time":227.3997395833312,"velocity":0.7401574803149606,"duration":0.1171875},{"name":"E3","midi":52,"time":227.3997395833312,"velocity":0.7401574803149606,"duration":0.23828125},{"name":"B4","midi":71,"time":227.51953124999787,"velocity":0.7401574803149606,"duration":0.1171875},{"name":"C5","midi":72,"time":227.64062499999787,"velocity":0.7401574803149606,"duration":0.23828125},{"name":"D3","midi":50,"time":227.64062499999787,"velocity":0.7401574803149606,"duration":0.23828125},{"name":"D5","midi":74,"time":227.88281249999787,"velocity":0.7401574803149606,"duration":0.23828125},{"name":"C3","midi":48,"time":227.88281249999787,"velocity":0.7401574803149606,"duration":0.23828125},{"name":"E5","midi":76,"time":228.12369791666453,"velocity":0.7401574803149606,"duration":0.1888020833333428},{"name":"G3","midi":55,"time":228.12369791666453,"velocity":0.7401574803149606,"duration":0.9544270833333428},{"name":"D5","midi":74,"time":228.30468749999787,"velocity":0.7401574803149606,"duration":0.1171875},{"name":"E5","midi":76,"time":228.40494791666453,"velocity":0.7401574803149606,"duration":0.1171875},{"name":"D5","midi":74,"time":228.50651041666453,"velocity":0.7401574803149606,"duration":0.1171875},{"name":"E5","midi":76,"time":228.60677083333118,"velocity":0.7401574803149606,"duration":0.11718750000002842},{"name":"G2","midi":43,"time":228.60677083333118,"velocity":0.7401574803149606,"duration":0.4791666666666856},{"name":"D5","midi":74,"time":228.70703124999787,"velocity":0.7401574803149606,"duration":0.1171875},{"name":"C5","midi":72,"time":228.84765624999787,"velocity":0.7401574803149606,"duration":0.23828125},{"name":"C5","midi":72,"time":229.08984374999787,"velocity":0.7401574803149606,"duration":2.407552083333343},{"name":"C3","midi":48,"time":229.08984374999787,"velocity":0.7401574803149606,"duration":1.4414062500000284},{"name":"C2","midi":36,"time":229.57031249999787,"velocity":0.7401574803149606,"duration":2.4075520833333712},{"name":"G2","midi":43,"time":230.0520833333312,"velocity":0.7401574803149606,"duration":0.4778645833333428},{"name":"G4","midi":67,"time":230.53385416666455,"velocity":0.7401574803149606,"duration":0.9609375},{"name":"E4","midi":64,"time":230.53385416666455,"velocity":0.7401574803149606,"duration":0.9609375},{"name":"C3","midi":48,"time":230.53385416666455,"velocity":0.7401574803149606,"duration":1.4427083333333428},{"name":"E5","midi":76,"time":231.4973958333312,"velocity":0.7401574803149606,"duration":0.4778645833333428},{"name":"G4","midi":67,"time":231.97916666666458,"velocity":0.7401574803149606,"duration":0.703125},{"name":"C3","midi":48,"time":231.97916666666458,"velocity":0.7401574803149606,"duration":0.23828125},{"name":"C5","midi":72,"time":232.10026041666458,"velocity":0.7401574803149606,"duration":0.5833333333333428},{"name":"E5","midi":76,"time":232.22135416666458,"velocity":0.7401574803149606,"duration":0.4791666666666856},{"name":"G3","midi":55,"time":232.22135416666458,"velocity":0.7401574803149606,"duration":0.23828125},{"name":"C4","midi":60,"time":232.46223958333124,"velocity":0.7401574803149606,"duration":0.7213541666666856},{"name":"F5","midi":77,"time":232.70312499999793,"velocity":0.7401574803149606,"duration":0.23828125},{"name":"E5","midi":76,"time":232.94531249999793,"velocity":0.7401574803149606,"duration":0.23828125},{"name":"D5","midi":74,"time":233.18619791666458,"velocity":0.7401574803149606,"duration":0.23828125},{"name":"D4","midi":62,"time":233.18619791666458,"velocity":0.7401574803149606,"duration":0.23828125},{"name":"C5","midi":72,"time":233.42838541666458,"velocity":0.7401574803149606,"duration":0.23828125},{"name":"E4","midi":64,"time":233.42838541666458,"velocity":0.7401574803149606,"duration":0.23828125},{"name":"B4","midi":71,"time":233.66927083333124,"velocity":0.7401574803149606,"duration":0.23828125},{"name":"F4","midi":65,"time":233.66927083333124,"velocity":0.7401574803149606,"duration":0.23828125},{"name":"C5","midi":72,"time":233.9101562499979,"velocity":0.7401574803149606,"duration":0.23828125},{"name":"E4","midi":64,"time":233.9101562499979,"velocity":0.7401574803149606,"duration":0.23828125},{"name":"A4","midi":69,"time":234.1523437499979,"velocity":0.7401574803149606,"duration":0.23828125},{"name":"C4","midi":60,"time":234.1523437499979,"velocity":0.7401574803149606,"duration":0.23828125},{"name":"G5","midi":79,"time":234.39322916666455,"velocity":0.7401574803149606,"duration":0.23828125},{"name":"A3","midi":57,"time":234.39322916666455,"velocity":0.7401574803149606,"duration":0.23828125},{"name":"F#5","midi":78,"time":234.63541666666455,"velocity":0.7401574803149606,"duration":0.23828125},{"name":"D4","midi":62,"time":234.63541666666455,"velocity":0.7401574803149606,"duration":0.23828125},{"name":"A5","midi":81,"time":234.8763020833312,"velocity":0.7401574803149606,"duration":0.1171875},{"name":"B3","midi":59,"time":234.8763020833312,"velocity":0.7401574803149606,"duration":0.23828124999997158},{"name":"G5","midi":79,"time":234.97135416666455,"velocity":0.7401574803149606,"duration":0.11718749999997158},{"name":"A5","midi":81,"time":235.06640624999787,"velocity":0.7401574803149606,"duration":0.11848958333328596},{"name":"C4","midi":60,"time":235.11718749999784,"velocity":0.7401574803149606,"duration":0.23828125},{"name":"G5","midi":79,"time":235.1627604166645,"velocity":0.7401574803149606,"duration":0.1171875},{"name":"A5","midi":81,"time":235.25911458333115,"velocity":0.7401574803149606,"duration":0.11718750000002842},{"name":"G5","midi":79,"time":235.3541666666645,"velocity":0.7401574803149606,"duration":0.265625},{"name":"B3","midi":59,"time":235.35937499999784,"velocity":0.7401574803149606,"duration":0.23828125},{"name":"A5","midi":81,"time":235.6002604166645,"velocity":0.7401574803149606,"duration":0.23828125},{"name":"A3","midi":57,"time":235.6002604166645,"velocity":0.7401574803149606,"duration":0.23828125},{"name":"B5","midi":83,"time":235.8424479166645,"velocity":0.7401574803149606,"duration":0.4791666666666572},{"name":"G3","midi":55,"time":235.8424479166645,"velocity":0.7401574803149606,"duration":0.23828125},{"name":"F#3","midi":54,"time":236.08333333333115,"velocity":0.7401574803149606,"duration":0.23828125},{"name":"B4","midi":71,"time":236.3242187499978,"velocity":0.7401574803149606,"duration":0.4791666666666572},{"name":"E3","midi":52,"time":236.3242187499978,"velocity":0.7401574803149606,"duration":0.23828125},{"name":"D#3","midi":51,"time":236.5664062499978,"velocity":0.7401574803149606,"duration":0.23828125},{"name":"B4","midi":71,"time":236.80729166666447,"velocity":0.7401574803149606,"duration":0.23828125},{"name":"E3","midi":52,"time":236.80729166666447,"velocity":0.7401574803149606,"duration":0.23828125},{"name":"C5","midi":72,"time":237.04947916666447,"velocity":0.7401574803149606,"duration":0.4518229166666572},{"name":"A2","midi":45,"time":237.04947916666447,"velocity":0.7401574803149606,"duration":0.23828125},{"name":"A3","midi":57,"time":237.29036458333113,"velocity":0.7401574803149606,"duration":0.70703125},{"name":"D5","midi":74,"time":237.52994791666447,"velocity":0.7401574803149606,"duration":0.23828125},{"name":"C5","midi":72,"time":237.77213541666447,"velocity":0.7401574803149606,"duration":0.2734375},{"name":"B4","midi":71,"time":238.01302083333113,"velocity":0.7401574803149606,"duration":0.4518229166666572},{"name":"F#3","midi":54,"time":238.01302083333113,"velocity":0.7401574803149606,"duration":0.23828125},{"name":"D#3","midi":51,"time":238.25520833333113,"velocity":0.7401574803149606,"duration":0.23828125},{"name":"A5","midi":81,"time":238.49609374999778,"velocity":0.7401574803149606,"duration":0.23828125},{"name":"F#5","midi":78,"time":238.49609374999778,"velocity":0.7401574803149606,"duration":0.4765625},{"name":"B2","midi":47,"time":238.49609374999778,"velocity":0.7401574803149606,"duration":0.23828125},{"name":"G5","midi":79,"time":238.73697916666444,"velocity":0.7401574803149606,"duration":0.703125},{"name":"E3","midi":52,"time":238.73697916666444,"velocity":0.7401574803149606,"duration":0.4791666666666572},{"name":"E5","midi":76,"time":238.97916666666444,"velocity":0.7401574803149606,"duration":0.954427083333286},{"name":"A3","midi":57,"time":239.2200520833311,"velocity":0.7401574803149606,"duration":0.4791666666666572},{"name":"F#5","midi":78,"time":239.4622395833311,"velocity":0.7401574803149606,"duration":0.23828125},{"name":"G5","midi":79,"time":239.70312499999775,"velocity":0.7401574803149606,"duration":0.1171875},{"name":"B3","midi":59,"time":239.70312499999775,"velocity":0.7401574803149606,"duration":0.47786458333328596},{"name":"F#5","midi":78,"time":239.7981770833311,"velocity":0.7401574803149606,"duration":0.11718749999997158},{"name":"G5","midi":79,"time":239.8932291666644,"velocity":0.7401574803149606,"duration":0.11718749999997158},{"name":"F#5","midi":78,"time":239.98828124999773,"velocity":0.7401574803149606,"duration":0.4140624999999716},{"name":"D#5","midi":75,"time":240.18489583333104,"velocity":0.7401574803149606,"duration":0.4765625},{"name":"B2","midi":47,"time":240.18489583333104,"velocity":0.7401574803149606,"duration":0.4791666666666572},{"name":"E5","midi":76,"time":240.4257812499977,"velocity":0.7401574803149606,"duration":0.23828125},{"name":"E5","midi":76,"time":240.6679687499977,"velocity":0.7401574803149606,"duration":1.9283854166666288},{"name":"E3","midi":52,"time":240.6679687499977,"velocity":0.7401574803149606,"duration":0.7213541666666572},{"name":"B4","midi":71,"time":240.90885416666436,"velocity":0.7401574803149606,"duration":1.6835937499999716},{"name":"G#4","midi":68,"time":241.149739583331,"velocity":0.7401574803149606,"duration":1.6861979166666288},{"name":"D#3","midi":51,"time":241.391927083331,"velocity":0.7401574803149606,"duration":0.23828125},{"name":"E3","midi":52,"time":241.63281249999767,"velocity":0.7401574803149606,"duration":0.23828125},{"name":"F#3","midi":54,"time":241.87499999999767,"velocity":0.7401574803149606,"duration":0.23828125},{"name":"G#3","midi":56,"time":242.11588541666433,"velocity":0.7401574803149606,"duration":0.23828125},{"name":"A3","midi":57,"time":242.35677083333098,"velocity":0.7401574803149606,"duration":0.23828125},{"name":"G#3","midi":56,"time":242.59895833333098,"velocity":0.7401574803149606,"duration":0.23828125},{"name":"E5","midi":76,"time":242.83984374999764,"velocity":0.7401574803149606,"duration":0.23828125},{"name":"B3","midi":59,"time":242.83984374999764,"velocity":0.7401574803149606,"duration":0.23828125},{"name":"F#5","midi":78,"time":243.08203124999764,"velocity":0.7401574803149606,"duration":0.23828125},{"name":"D3","midi":50,"time":243.08203124999764,"velocity":0.7401574803149606,"duration":0.4791666666666572},{"name":"G#5","midi":80,"time":243.3229166666643,"velocity":0.7401574803149606,"duration":0.23828125},{"name":"G#5","midi":80,"time":243.56380208333096,"velocity":0.7401574803149606,"duration":0.23828125},{"name":"C#3","midi":49,"time":243.56380208333096,"velocity":0.7401574803149606,"duration":1.9283854166666288},{"name":"A5","midi":81,"time":243.80598958333096,"velocity":0.7401574803149606,"duration":0.4791666666666572},{"name":"E3","midi":52,"time":243.80598958333096,"velocity":0.7401574803149606,"duration":0.23828125},{"name":"F3","midi":53,"time":244.0468749999976,"velocity":0.7401574803149606,"duration":0.23828125},{"name":"B4","midi":71,"time":244.2890624999976,"velocity":0.7401574803149606,"duration":0.23828125},{"name":"G3","midi":55,"time":244.2890624999976,"velocity":0.7401574803149606,"duration":0.23828125},{"name":"C#5","midi":73,"time":244.52994791666427,"velocity":0.7401574803149606,"duration":0.23828125},{"name":"A3","midi":57,"time":244.52994791666427,"velocity":0.7401574803149606,"duration":0.23828125},{"name":"D5","midi":74,"time":244.77083333333093,"velocity":0.7401574803149606,"duration":0.23828125},{"name":"G3","midi":55,"time":244.77083333333093,"velocity":0.7401574803149606,"duration":0.23828125},{"name":"E5","midi":76,"time":245.01302083333093,"velocity":0.7401574803149606,"duration":0.23828125},{"name":"A#3","midi":58,"time":245.01302083333093,"velocity":0.7401574803149606,"duration":0.9544270833333144},{"name":"F5","midi":77,"time":245.25390624999758,"velocity":0.7401574803149606,"duration":0.23828125},{"name":"E5","midi":76,"time":245.49609374999758,"velocity":0.7401574803149606,"duration":0.23828125},{"name":"D3","midi":50,"time":245.49609374999758,"velocity":0.7401574803149606,"duration":0.4791666666666572},{"name":"G5","midi":79,"time":245.73697916666424,"velocity":0.7401574803149606,"duration":0.23828125},{"name":"A#4","midi":70,"time":245.9778645833309,"velocity":0.7401574803149606,"duration":0.23828125},{"name":"C#3","midi":49,"time":245.9778645833309,"velocity":0.7401574803149606,"duration":0.4791666666666572},{"name":"A4","midi":69,"time":246.2200520833309,"velocity":0.7401574803149606,"duration":0.23828125},{"name":"E5","midi":76,"time":246.46093749999756,"velocity":0.7401574803149606,"duration":0.23828125},{"name":"D3","midi":50,"time":246.46093749999756,"velocity":0.7401574803149606,"duration":0.23828125},{"name":"F5","midi":77,"time":246.70312499999756,"velocity":0.7401574803149606,"duration":0.4791666666666572},{"name":"C#3","midi":49,"time":246.70312499999756,"velocity":0.7401574803149606,"duration":0.23828125},{"name":"D3","midi":50,"time":246.9440104166642,"velocity":0.7401574803149606,"duration":0.23828125},{"name":"E5","midi":76,"time":247.18489583333087,"velocity":0.7401574803149606,"duration":0.23828125},{"name":"E3","midi":52,"time":247.18489583333087,"velocity":0.7401574803149606,"duration":0.23828125},{"name":"D5","midi":74,"time":247.42708333333087,"velocity":0.7401574803149606,"duration":0.23828125},{"name":"F3","midi":53,"time":247.42708333333087,"velocity":0.7401574803149606,"duration":0.23828125},{"name":"C5","midi":72,"time":247.66796874999753,"velocity":0.7401574803149606,"duration":0.23828125},{"name":"E3","midi":52,"time":247.66796874999753,"velocity":0.7401574803149606,"duration":0.23828125},{"name":"A#4","midi":70,"time":247.91015624999753,"velocity":0.7401574803149606,"duration":0.23828125},{"name":"D3","midi":50,"time":247.91015624999753,"velocity":0.7401574803149606,"duration":0.4791666666666572},{"name":"A4","midi":69,"time":248.15104166666418,"velocity":0.7401574803149606,"duration":0.23828125},{"name":"A#4","midi":70,"time":248.39192708333084,"velocity":0.7401574803149606,"duration":0.1171875},{"name":"D4","midi":62,"time":248.39192708333084,"velocity":0.7401574803149606,"duration":0.1171875},{"name":"A4","midi":69,"time":248.51302083333084,"velocity":0.7401574803149606,"duration":0.1171875},{"name":"C#4","midi":61,"time":248.51302083333084,"velocity":0.7401574803149606,"duration":0.1171875},{"name":"G4","midi":67,"time":248.63411458333084,"velocity":0.7401574803149606,"duration":0.23828125},{"name":"D4","midi":62,"time":248.63411458333084,"velocity":0.7401574803149606,"duration":0.4791666666666572},{"name":"E5","midi":76,"time":248.8749999999975,"velocity":0.7401574803149606,"duration":0.703125},{"name":"G4","midi":67,"time":249.1171874999975,"velocity":0.7401574803149606,"duration":0.23828125},{"name":"E4","midi":64,"time":249.1171874999975,"velocity":0.7401574803149606,"duration":0.23828125},{"name":"F#4","midi":66,"time":249.35807291666416,"velocity":0.7401574803149606,"duration":0.69921875},{"name":"D4","midi":62,"time":249.35807291666416,"velocity":0.7401574803149606,"duration":0.18619791666668561},{"name":"C4","midi":60,"time":249.5390624999975,"velocity":0.7401574803149606,"duration":0.1171875},{"name":"A4","midi":69,"time":249.59895833333084,"velocity":0.7401574803149606,"duration":0.2369791666666572},{"name":"D4","midi":62,"time":249.6445312499975,"velocity":0.7401574803149606,"duration":0.11588541666665719},{"name":"C4","midi":60,"time":249.7499999999975,"velocity":0.7401574803149606,"duration":0.11588541666665719},{"name":"D5","midi":74,"time":249.8398437499975,"velocity":0.7401574803149606,"duration":0.700520833333286},{"name":"D4","midi":62,"time":249.85416666666416,"velocity":0.7401574803149606,"duration":0.11588541666665719},{"name":"C4","midi":60,"time":249.9583333333308,"velocity":0.7401574803149606,"duration":0.11588541666665719},{"name":"B3","midi":59,"time":250.0638020833308,"velocity":0.7401574803149606,"duration":0.23828125},{"name":"G#4","midi":68,"time":250.07812499999747,"velocity":0.7401574803149606,"duration":0.23828125},{"name":"A4","midi":69,"time":250.31901041666413,"velocity":0.7401574803149606,"duration":0.9544270833333144},{"name":"A3","midi":57,"time":250.31901041666413,"velocity":0.7401574803149606,"duration":0.4791666666666572},{"name":"E5","midi":76,"time":250.56119791666413,"velocity":0.7401574803149606,"duration":0.23828125},{"name":"C5","midi":72,"time":250.80208333333078,"velocity":0.7401574803149606,"duration":0.23828125},{"name":"D3","midi":50,"time":250.80208333333078,"velocity":0.7401574803149606,"duration":0.4791666666666572},{"name":"B4","midi":71,"time":251.04427083333078,"velocity":0.7401574803149606,"duration":0.23828125},{"name":"G#4","midi":68,"time":251.28515624999744,"velocity":0.7401574803149606,"duration":0.9518229166666856},{"name":"C5","midi":72,"time":251.28515624999744,"velocity":0.7401574803149606,"duration":0.1901041666666572},{"name":"E3","midi":52,"time":251.28515624999744,"velocity":0.7401574803149606,"duration":0.4778645833333144},{"name":"B4","midi":71,"time":251.4752604166641,"velocity":0.7401574803149606,"duration":0.1171875},{"name":"C5","midi":72,"time":251.5768229166641,"velocity":0.7401574803149606,"duration":0.1171875},{"name":"B4","midi":71,"time":251.67708333333076,"velocity":0.7401574803149606,"duration":0.11588541666668561},{"name":"E2","midi":40,"time":251.76692708333076,"velocity":0.7401574803149606,"duration":0.47786458333337123},{"name":"C5","midi":72,"time":251.7760416666641,"velocity":0.7401574803149606,"duration":0.11718750000002842},{"name":"B4","midi":71,"time":251.87630208333078,"velocity":0.7401574803149606,"duration":0.1171875},{"name":"A4","midi":69,"time":252.00651041666413,"velocity":0.7401574803149606,"duration":0.23828125},{"name":"A4","midi":69,"time":252.24869791666413,"velocity":0.7401574803149606,"duration":4.575520833333314},{"name":"A2","midi":45,"time":252.24869791666413,"velocity":0.7401574803149606,"duration":4.575520833333314},{"name":"C3","midi":48,"time":252.82161458333078,"velocity":0.7401574803149606,"duration":0.5703125},{"name":"E3","midi":52,"time":253.39583333333078,"velocity":0.7401574803149606,"duration":0.5703125},{"name":"E4","midi":64,"time":253.97005208333078,"velocity":0.7401574803149606,"duration":2.8710937499999716},{"name":"C4","midi":60,"time":253.97005208333078,"velocity":0.7401574803149606,"duration":2.8710937499999716},{"name":"A3","midi":57,"time":253.97005208333078,"velocity":0.7401574803149606,"duration":2.8710937499999716},{"name":"A4","midi":69,"time":259.13932291666407,"velocity":0.7401574803149606,"duration":1.0182291666666288},{"name":"A3","midi":57,"time":259.13932291666407,"velocity":0.7401574803149606,"duration":2.057291666666572},{"name":"C5","midi":72,"time":259.32161458333076,"velocity":0.7401574803149606,"duration":0.8632812499999432},{"name":"D5","midi":74,"time":259.46354166666407,"velocity":0.7401574803149606,"duration":0.24088541666662877},{"name":"E5","midi":76,"time":259.6054687499974,"velocity":0.7401574803149606,"duration":0.2786458333333144},{"name":"E5","midi":76,"time":259.9114583333307,"velocity":0.7401574803149606,"duration":0.21614583333331439},{"name":"A4","midi":69,"time":260.1692708333307,"velocity":0.7401574803149606,"duration":2.0572916666666288},{"name":"C5","midi":72,"time":260.1692708333307,"velocity":0.7401574803149606,"duration":0.10677083333331439},{"name":"E5","midi":76,"time":260.1692708333307,"velocity":0.7401574803149606,"duration":1.5416666666666288},{"name":"A2","midi":45,"time":260.1692708333307,"velocity":0.7401574803149606,"duration":1.0260416666666288},{"name":"B4","midi":71,"time":260.276041666664,"velocity":0.7401574803149606,"duration":0.10677083333331439},{"name":"C5","midi":72,"time":260.38411458333064,"velocity":0.7401574803149606,"duration":1.8098958333333712},{"name":"A3","midi":57,"time":261.1992187499973,"velocity":0.7401574803149606,"duration":2.0572916666666856},{"name":"F5","midi":77,"time":261.713541666664,"velocity":0.7401574803149606,"duration":0.51171875},{"name":"F4","midi":65,"time":262.229166666664,"velocity":0.7401574803149606,"duration":0.76953125},{"name":"B4","midi":71,"time":262.229166666664,"velocity":0.7401574803149606,"duration":1.1549479166666856},{"name":"D5","midi":74,"time":262.229166666664,"velocity":0.7401574803149606,"duration":0.76953125},{"name":"D5","midi":74,"time":263.0013020833307,"velocity":0.7401574803149606,"duration":0.49609375},{"name":"E4","midi":64,"time":263.2591145833307,"velocity":0.7401574803149606,"duration":2.0572916666666856},{"name":"G#3","midi":56,"time":263.2591145833307,"velocity":0.7401574803149606,"duration":1.0182291666666856},{"name":"B4","midi":71,"time":263.4140624999974,"velocity":0.7401574803149606,"duration":1.8958333333333712},{"name":"C5","midi":72,"time":263.5703124999974,"velocity":0.7401574803149606,"duration":0.24088541666668561},{"name":"D5","midi":74,"time":263.72526041666407,"velocity":0.7401574803149606,"duration":1.0638020833333144},{"name":"F#3","midi":54,"time":264.2890624999974,"velocity":0.7401574803149606,"duration":0.51171875},{"name":"E5","midi":76,"time":264.80338541666407,"velocity":0.7401574803149606,"duration":0.51171875},{"name":"E3","midi":52,"time":264.80338541666407,"velocity":0.7401574803149606,"duration":0.51171875},{"name":"A4","midi":69,"time":265.31901041666407,"velocity":0.7401574803149606,"duration":1.1263020833333712},{"name":"E4","midi":64,"time":265.31901041666407,"velocity":0.7401574803149606,"duration":1.0260416666666856},{"name":"C5","midi":72,"time":265.31901041666407,"velocity":0.7401574803149606,"duration":1.2864583333333712},{"name":"A3","midi":57,"time":265.31901041666407,"velocity":0.7401574803149606,"duration":1.0260416666666856},{"name":"D4","midi":62,"time":266.34895833333076,"velocity":0.7401574803149606,"duration":1.0260416666666288},{"name":"F3","midi":53,"time":266.34895833333076,"velocity":0.7401574803149606,"duration":1.0260416666666288},{"name":"G#4","midi":68,"time":266.4830729166641,"velocity":0.7401574803149606,"duration":0.8893229166665719},{"name":"B4","midi":71,"time":266.61718749999744,"velocity":0.7401574803149606,"duration":0.17317708333331439},{"name":"A4","midi":69,"time":266.75130208333076,"velocity":0.7401574803149606,"duration":0.21354166666662877},{"name":"B4","midi":71,"time":266.88541666666407,"velocity":0.7401574803149606,"duration":0.4309895833333144},{"name":"C4","midi":60,"time":267.3789062499974,"velocity":0.7401574803149606,"duration":1.0182291666666856},{"name":"F#4","midi":66,"time":267.3789062499974,"velocity":0.7401574803149606,"duration":1.0182291666666856},{"name":"B4","midi":71,"time":267.3789062499974,"velocity":0.7401574803149606,"duration":0.25390625},{"name":"D#3","midi":51,"time":267.3789062499974,"velocity":0.7401574803149606,"duration":1.0260416666666856},{"name":"A4","midi":69,"time":267.6367187499974,"velocity":0.7401574803149606,"duration":0.25390625},{"name":"G#4","midi":68,"time":267.8945312499974,"velocity":0.7401574803149606,"duration":0.25390625},{"name":"A4","midi":69,"time":268.15104166666407,"velocity":0.7401574803149606,"duration":0.25390625},{"name":"A4","midi":69,"time":268.40885416666407,"velocity":0.7401574803149606,"duration":0.2591145833333144},{"name":"E4","midi":64,"time":268.40885416666407,"velocity":0.7401574803149606,"duration":1.546875},{"name":"B3","midi":59,"time":268.40885416666407,"velocity":0.7401574803149606,"duration":2.0572916666666288},{"name":"E3","midi":52,"time":268.40885416666407,"velocity":0.7401574803149606,"duration":1.0260416666666856},{"name":"G#4","midi":68,"time":268.66666666666407,"velocity":0.7401574803149606,"duration":0.16015625},{"name":"A4","midi":69,"time":268.79557291666407,"velocity":0.7401574803149606,"duration":0.16015625},{"name":"G#4","midi":68,"time":268.92447916666407,"velocity":0.7401574803149606,"duration":0.16015625},{"name":"A4","midi":69,"time":269.05338541666407,"velocity":0.7401574803149606,"duration":0.16015625},{"name":"G#4","midi":68,"time":269.18098958333076,"velocity":0.7401574803149606,"duration":0.7825520833333144},{"name":"E2","midi":40,"time":269.43880208333076,"velocity":0.7401574803149606,"duration":1.0260416666666288},{"name":"F#4","midi":66,"time":269.95442708333076,"velocity":0.7401574803149606,"duration":0.5117187499999432},{"name":"E4","midi":64,"time":270.4687499999974,"velocity":0.7401574803149606,"duration":1.0260416666666856},{"name":"E3","midi":52,"time":270.4687499999974,"velocity":0.7401574803149606,"duration":0.51171875},{"name":"D3","midi":50,"time":270.9843749999974,"velocity":0.7401574803149606,"duration":0.51171875},{"name":"A4","midi":69,"time":271.49869791666407,"velocity":0.7401574803149606,"duration":1.0182291666666288},{"name":"C#3","midi":49,"time":271.49869791666407,"velocity":0.7401574803149606,"duration":1.0260416666666288},{"name":"F5","midi":77,"time":271.6406249999974,"velocity":0.7401574803149606,"duration":0.125},{"name":"E5","midi":76,"time":271.78385416666407,"velocity":0.7401574803149606,"duration":0.125},{"name":"D5","midi":74,"time":271.9257812499974,"velocity":0.7401574803149606,"duration":0.125},{"name":"E5","midi":76,"time":272.0677083333307,"velocity":0.7401574803149606,"duration":0.25390625},{"name":"G5","midi":79,"time":272.272135416664,"velocity":0.7401574803149606,"duration":1.7968750000000568},{"name":"C#5","midi":73,"time":272.5286458333307,"velocity":0.7401574803149606,"duration":2.0572916666666856},{"name":"A2","midi":45,"time":272.5286458333307,"velocity":0.7401574803149606,"duration":1.0260416666666856},{"name":"A3","midi":57,"time":273.5585937499974,"velocity":0.7401574803149606,"duration":1.0260416666666856},{"name":"A5","midi":81,"time":274.0742187499974,"velocity":0.7401574803149606,"duration":0.51171875},{"name":"A4","midi":69,"time":274.58854166666407,"velocity":0.7401574803149606,"duration":1.0182291666666856},{"name":"G5","midi":79,"time":274.58854166666407,"velocity":0.7401574803149606,"duration":0.25390625},{"name":"D3","midi":50,"time":274.58854166666407,"velocity":0.7401574803149606,"duration":1.0260416666666856},{"name":"F5","midi":77,"time":274.84635416666407,"velocity":0.7401574803149606,"duration":0.25390625},{"name":"E5","midi":76,"time":275.10416666666407,"velocity":0.7401574803149606,"duration":0.25390625},{"name":"D5","midi":74,"time":275.36197916666407,"velocity":0.7401574803149606,"duration":0.25390625},{"name":"G4","midi":67,"time":275.61848958333076,"velocity":0.7401574803149606,"duration":1.5416666666666856},{"name":"C5","midi":72,"time":275.61848958333076,"velocity":0.7401574803149606,"duration":1.0260416666666856},{"name":"E3","midi":52,"time":275.61848958333076,"velocity":0.7401574803149606,"duration":1.0260416666666856},{"name":"C5","midi":72,"time":276.64843749999744,"velocity":0.7401574803149606,"duration":0.25390625},{"name":"F3","midi":53,"time":276.64843749999744,"velocity":0.7401574803149606,"duration":1.0260416666666856},{"name":"B4","midi":71,"time":276.90624999999744,"velocity":0.7401574803149606,"duration":0.25390625},{"name":"A4","midi":69,"time":277.16406249999744,"velocity":0.7401574803149606,"duration":0.25390625},{"name":"G4","midi":67,"time":277.42187499999744,"velocity":0.7401574803149606,"duration":0.25390625},{"name":"C5","midi":72,"time":277.6783854166641,"velocity":0.7401574803149606,"duration":2.57421875},{"name":"E3","midi":52,"time":277.6783854166641,"velocity":0.7401574803149606,"duration":1.0260416666666856},{"name":"B4","midi":71,"time":277.9361979166641,"velocity":0.7401574803149606,"duration":0.125},{"name":"A4","midi":69,"time":278.0651041666641,"velocity":0.7401574803149606,"duration":0.125},{"name":"G4","midi":67,"time":278.1940104166641,"velocity":0.7401574803149606,"duration":0.25390625},{"name":"F4","midi":65,"time":278.4518229166641,"velocity":0.7401574803149606,"duration":0.25390625},{"name":"E4","midi":64,"time":278.7096354166641,"velocity":0.7401574803149606,"duration":0.51171875},{"name":"F3","midi":53,"time":278.7096354166641,"velocity":0.7401574803149606,"duration":1.0260416666666856},{"name":"E4","midi":64,"time":279.2239583333308,"velocity":0.7401574803149606,"duration":0.51171875},{"name":"D4","midi":62,"time":279.7395833333308,"velocity":0.7401574803149606,"duration":1.0182291666666288},{"name":"G3","midi":55,"time":279.7395833333308,"velocity":0.7401574803149606,"duration":1.0260416666666288},{"name":"B4","midi":71,"time":280.25390624999744,"velocity":0.7401574803149606,"duration":0.51171875},{"name":"C5","midi":72,"time":280.76953124999744,"velocity":0.7401574803149606,"duration":0.7695312500000568},{"name":"E4","midi":64,"time":280.76953124999744,"velocity":0.7401574803149606,"duration":1.0182291666667425},{"name":"C3","midi":48,"time":280.76953124999744,"velocity":0.7401574803149606,"duration":0.125},{"name":"B2","midi":47,"time":280.87630208333076,"velocity":0.7401574803149606,"duration":0.12500000000005684},{"name":"C3","midi":48,"time":280.9830729166641,"velocity":0.7401574803149606,"duration":1.0182291666667425},{"name":"F4","midi":65,"time":281.0911458333308,"velocity":0.7401574803149606,"duration":0.1953125},{"name":"G4","midi":67,"time":281.2252604166641,"velocity":0.7401574803149606,"duration":0.5325520833333712},{"name":"C5","midi":72,"time":281.5416666666642,"velocity":0.7401574803149606,"duration":0.25390625},{"name":"G4","midi":67,"time":281.7994791666642,"velocity":0.7401574803149606,"duration":2.0572916666666856},{"name":"E4","midi":64,"time":281.7994791666642,"velocity":0.7401574803149606,"duration":2.0572916666666856},{"name":"C5","midi":72,"time":281.7994791666642,"velocity":0.7401574803149606,"duration":2.0572916666666856},{"name":"C2","midi":36,"time":281.7994791666642,"velocity":0.7401574803149606,"duration":2.0572916666666856},{"name":"G4","midi":67,"time":283.85937499999756,"velocity":0.7401574803149606,"duration":1.0182291666666856},{"name":"C4","midi":60,"time":283.85937499999756,"velocity":0.7401574803149606,"duration":1.0260416666666856},{"name":"C5","midi":72,"time":283.98828124999756,"velocity":0.7401574803149606,"duration":0.8893229166666856},{"name":"D5","midi":74,"time":284.11588541666424,"velocity":0.7401574803149606,"duration":0.24088541666668561},{"name":"E5","midi":76,"time":284.24479166666424,"velocity":0.7401574803149606,"duration":0.375},{"name":"E5","midi":76,"time":284.63151041666424,"velocity":0.7401574803149606,"duration":0.23307291666668561},{"name":"C5","midi":72,"time":284.88932291666424,"velocity":0.7401574803149606,"duration":2.0572916666666856},{"name":"E5","midi":76,"time":284.88932291666424,"velocity":0.7401574803149606,"duration":1.5416666666666856},{"name":"G4","midi":67,"time":284.88932291666424,"velocity":0.7401574803149606,"duration":2.0572916666666856},{"name":"C3","midi":48,"time":284.88932291666424,"velocity":0.7401574803149606,"duration":1.0260416666666856},{"name":"C4","midi":60,"time":285.9192708333309,"velocity":0.7401574803149606,"duration":1.0260416666666856},{"name":"F#5","midi":78,"time":286.4335937499976,"velocity":0.7401574803149606,"duration":0.51171875},{"name":"D5","midi":74,"time":286.9492187499976,"velocity":0.7401574803149606,"duration":1.0182291666666856},{"name":"G5","midi":79,"time":286.9492187499976,"velocity":0.7401574803149606,"duration":0.640625},{"name":"B3","midi":59,"time":286.9492187499976,"velocity":0.7401574803149606,"duration":2.0572916666666856},{"name":"A5","midi":81,"time":287.5924479166643,"velocity":0.7401574803149606,"duration":0.125},{"name":"G5","midi":79,"time":287.7213541666643,"velocity":0.7401574803149606,"duration":0.125},{"name":"F#5","midi":78,"time":287.8502604166643,"velocity":0.7401574803149606,"duration":0.125},{"name":"F#5","midi":78,"time":287.9791666666643,"velocity":0.7401574803149606,"duration":0.51171875},{"name":"D5","midi":74,"time":287.9791666666643,"velocity":0.7401574803149606,"duration":2.0572916666666856},{"name":"B2","midi":47,"time":287.9791666666643,"velocity":0.7401574803149606,"duration":1.0260416666666856},{"name":"G5","midi":79,"time":288.493489583331,"velocity":0.7401574803149606,"duration":0.125},{"name":"F#5","midi":78,"time":288.60156249999767,"velocity":0.7401574803149606,"duration":0.125},{"name":"G5","midi":79,"time":288.708333333331,"velocity":0.7401574803149606,"duration":0.85546875},{"name":"B3","midi":59,"time":289.009114583331,"velocity":0.7401574803149606,"duration":1.5416666666666856},{"name":"A5","midi":81,"time":289.57812499999767,"velocity":0.7401574803149606,"duration":0.22786458333331439},{"name":"B5","midi":83,"time":289.80859374999767,"velocity":0.7401574803149606,"duration":0.22786458333331439},{"name":"C5","midi":72,"time":290.03906249999767,"velocity":0.7401574803149606,"duration":3.0846354166667425},{"name":"F5","midi":77,"time":290.03906249999767,"velocity":0.7401574803149606,"duration":0.3828125},{"name":"E5","midi":76,"time":290.42578124999767,"velocity":0.7401574803149606,"duration":0.640625},{"name":"B3","midi":59,"time":290.55338541666436,"velocity":0.7401574803149606,"duration":0.51171875},{"name":"F#5","midi":78,"time":291.06901041666436,"velocity":0.7401574803149606,"duration":0.125},{"name":"A3","midi":57,"time":291.06901041666436,"velocity":0.7401574803149606,"duration":0.51171875},{"name":"G5","midi":79,"time":291.19791666666436,"velocity":0.7401574803149606,"duration":0.125},{"name":"A5","midi":81,"time":291.32682291666436,"velocity":0.7401574803149606,"duration":0.125},{"name":"G5","midi":79,"time":291.45572916666436,"velocity":0.7401574803149606,"duration":0.125},{"name":"F#5","midi":78,"time":291.58463541666436,"velocity":0.7401574803149606,"duration":0.25390625},{"name":"G3","midi":55,"time":291.58463541666436,"velocity":0.7401574803149606,"duration":0.51171875},{"name":"G5","midi":79,"time":291.84114583333104,"velocity":0.7401574803149606,"duration":0.25390625},{"name":"A5","midi":81,"time":292.09895833333104,"velocity":0.7401574803149606,"duration":0.76953125},{"name":"F#3","midi":54,"time":292.09895833333104,"velocity":0.7401574803149606,"duration":0.51171875},{"name":"A3","midi":57,"time":292.61458333333104,"velocity":0.7401574803149606,"duration":0.51171875},{"name":"F#5","midi":78,"time":292.8710937499977,"velocity":0.7401574803149606,"duration":0.25390625},{"name":"B4","midi":71,"time":293.1289062499977,"velocity":0.7401574803149606,"duration":2.0572916666666856},{"name":"E5","midi":76,"time":293.1289062499977,"velocity":0.7401574803149606,"duration":0.75},{"name":"B2","midi":47,"time":293.1289062499977,"velocity":0.7401574803149606,"duration":1.0260416666666856},{"name":"D#5","midi":75,"time":293.9010416666644,"velocity":0.7401574803149606,"duration":0.8046875},{"name":"B3","midi":59,"time":294.1588541666644,"velocity":0.7401574803149606,"duration":1.0260416666666856},{"name":"C#5","midi":73,"time":294.7278645833311,"velocity":0.7401574803149606,"duration":0.4557291666666856},{"name":"B4","midi":71,"time":295.1888020833311,"velocity":0.7401574803149606,"duration":1.0260416666666288},{"name":"B3","midi":59,"time":295.1888020833311,"velocity":0.7401574803149606,"duration":0.25390625},{"name":"A3","midi":57,"time":295.4466145833311,"velocity":0.7401574803149606,"duration":0.125},{"name":"B3","midi":59,"time":295.5755208333311,"velocity":0.7401574803149606,"duration":0.125},{"name":"A3","midi":57,"time":295.7044270833311,"velocity":0.7401574803149606,"duration":0.5091145833333144},{"name":"E5","midi":76,"time":296.2187499999977,"velocity":0.7401574803149606,"duration":0.76953125},{"name":"G3","midi":55,"time":296.2187499999977,"velocity":0.7401574803149606,"duration":0.51171875},{"name":"E3","midi":52,"time":296.7343749999977,"velocity":0.7401574803149606,"duration":0.51171875},{"name":"F#5","midi":78,"time":296.9908854166644,"velocity":0.7401574803149606,"duration":0.125},{"name":"G5","midi":79,"time":297.1197916666644,"velocity":0.7401574803149606,"duration":0.125},{"name":"G5","midi":79,"time":297.2486979166644,"velocity":0.7401574803149606,"duration":1.5416666666666856},{"name":"E4","midi":64,"time":297.2486979166644,"velocity":0.7401574803149606,"duration":0.51171875},{"name":"D4","midi":62,"time":297.7643229166644,"velocity":0.7401574803149606,"duration":0.51171875},{"name":"D4","midi":62,"time":298.2786458333311,"velocity":0.7401574803149606,"duration":0.51171875},{"name":"G5","midi":79,"time":298.7942708333311,"velocity":0.7401574803149606,"duration":0.51171875},{"name":"C#4","midi":61,"time":298.7942708333311,"velocity":0.7401574803149606,"duration":0.51171875},{"name":"A#4","midi":70,"time":299.3085937499978,"velocity":0.7401574803149606,"duration":1.0182291666666288},{"name":"C#4","midi":61,"time":299.3085937499978,"velocity":0.7401574803149606,"duration":0.51171875},{"name":"C#5","midi":73,"time":299.59635416666447,"velocity":0.7401574803149606,"duration":0.7499999999999432},{"name":"E5","midi":76,"time":299.8085937499978,"velocity":0.7401574803149606,"duration":0.5091145833333144},{"name":"C4","midi":60,"time":299.8242187499978,"velocity":0.7401574803149606,"duration":0.5117187499999432},{"name":"G5","midi":79,"time":300.0195312499978,"velocity":0.7401574803149606,"duration":0.2942708333333144},{"name":"D#5","midi":75,"time":300.3385416666644,"velocity":0.7401574803149606,"duration":1.0182291666666856},{"name":"G5","midi":79,"time":300.3385416666644,"velocity":0.7401574803149606,"duration":0.375},{"name":"A4","midi":69,"time":300.3385416666644,"velocity":0.7401574803149606,"duration":1.0182291666666856},{"name":"C4","midi":60,"time":300.3385416666644,"velocity":0.7401574803149606,"duration":0.51171875},{"name":"F#5","midi":78,"time":300.7252604166644,"velocity":0.7401574803149606,"duration":0.75},{"name":"B3","midi":59,"time":300.8541666666644,"velocity":0.7401574803149606,"duration":0.51171875},{"name":"B3","midi":59,"time":301.3684895833311,"velocity":0.7401574803149606,"duration":0.51171875},{"name":"G5","midi":79,"time":301.4973958333311,"velocity":0.7401574803149606,"duration":0.125},{"name":"F#5","midi":78,"time":301.6263020833311,"velocity":0.7401574803149606,"duration":0.125},{"name":"E5","midi":76,"time":301.7552083333311,"velocity":0.7401574803149606,"duration":0.125},{"name":"F#5","midi":78,"time":301.8841145833311,"velocity":0.7401574803149606,"duration":0.25390625},{"name":"A#3","midi":58,"time":301.8841145833311,"velocity":0.7401574803149606,"duration":0.51171875},{"name":"G5","midi":79,"time":302.1419270833311,"velocity":0.7401574803149606,"duration":0.25390625},{"name":"G4","midi":67,"time":302.3984374999978,"velocity":0.7401574803149606,"duration":1.0182291666666856},{"name":"C#5","midi":73,"time":302.3984374999978,"velocity":0.7401574803149606,"duration":0.640625},{"name":"A#3","midi":58,"time":302.3984374999978,"velocity":0.7401574803149606,"duration":0.51171875},{"name":"B3","midi":59,"time":302.9140624999978,"velocity":0.7401574803149606,"duration":0.51171875},{"name":"D#5","midi":75,"time":303.0429687499978,"velocity":0.7401574803149606,"duration":0.125},{"name":"C#5","midi":73,"time":303.1718749999978,"velocity":0.7401574803149606,"duration":0.125},{"name":"D#5","midi":75,"time":303.3007812499978,"velocity":0.7401574803149606,"duration":0.125},{"name":"E5","midi":76,"time":303.42838541666447,"velocity":0.7401574803149606,"duration":0.640625},{"name":"F#4","midi":66,"time":303.42838541666447,"velocity":0.7401574803149606,"duration":2.0572916666666856},{"name":"B3","midi":59,"time":303.42838541666447,"velocity":0.7401574803149606,"duration":0.125},{"name":"A#3","midi":58,"time":303.55729166666447,"velocity":0.7401574803149606,"duration":0.125},{"name":"B3","midi":59,"time":303.68619791666447,"velocity":0.7401574803149606,"duration":0.76953125},{"name":"D#5","midi":75,"time":304.07291666666447,"velocity":0.7401574803149606,"duration":0.125},{"name":"C#5","midi":73,"time":304.20182291666447,"velocity":0.7401574803149606,"duration":0.125},{"name":"D#5","midi":75,"time":304.33072916666447,"velocity":0.7401574803149606,"duration":0.125},{"name":"E5","midi":76,"time":304.45963541666447,"velocity":0.7401574803149606,"duration":0.17578125},{"name":"B2","midi":47,"time":304.45963541666447,"velocity":0.7401574803149606,"duration":1.0260416666666856},{"name":"D#5","midi":75,"time":304.64192708333115,"velocity":0.7401574803149606,"duration":0.125},{"name":"E5","midi":76,"time":304.74348958333115,"velocity":0.7401574803149606,"duration":0.125},{"name":"D#5","midi":75,"time":304.84505208333115,"velocity":0.7401574803149606,"duration":0.375},{"name":"E5","midi":76,"time":305.23177083333115,"velocity":0.7401574803149606,"duration":0.25390625},{"name":"E5","midi":76,"time":305.48958333333115,"velocity":0.7401574803149606,"duration":1.7968750000000568},{"name":"E3","midi":52,"time":305.48958333333115,"velocity":0.7401574803149606,"duration":0.125},{"name":"D#3","midi":51,"time":305.61718749999784,"velocity":0.7401574803149606,"duration":0.125},{"name":"B4","midi":71,"time":305.74609374999784,"velocity":0.7401574803149606,"duration":0.25390625},{"name":"E3","midi":52,"time":305.74609374999784,"velocity":0.7401574803149606,"duration":1.5416666666666856},{"name":"G4","midi":67,"time":306.00390624999784,"velocity":0.7401574803149606,"duration":0.25390625},{"name":"F#4","midi":66,"time":306.26171874999784,"velocity":0.7401574803149606,"duration":0.25390625},{"name":"G4","midi":67,"time":306.51953124999784,"velocity":0.7401574803149606,"duration":0.25390625},{"name":"E2","midi":40,"time":306.51953124999784,"velocity":0.7401574803149606,"duration":1.0260416666666856},{"name":"B4","midi":71,"time":306.7760416666645,"velocity":0.7401574803149606,"duration":0.25390625},{"name":"D#5","midi":75,"time":307.0338541666645,"velocity":0.7401574803149606,"duration":0.25390625},{"name":"E5","midi":76,"time":307.2916666666645,"velocity":0.7401574803149606,"duration":1.2864583333333712},{"name":"E4","midi":64,"time":307.5494791666645,"velocity":0.7401574803149606,"duration":1.0260416666666856},{"name":"E3","midi":52,"time":307.5494791666645,"velocity":0.7401574803149606,"duration":0.51171875},{"name":"D3","midi":50,"time":308.0638020833312,"velocity":0.7401574803149606,"duration":0.51171875},{"name":"A4","midi":69,"time":308.5794270833312,"velocity":0.7401574803149606,"duration":1.0182291666667425},{"name":"C#3","midi":49,"time":308.5794270833312,"velocity":0.7401574803149606,"duration":0.5117187500000568},{"name":"E5","midi":76,"time":308.7343749999979,"velocity":0.7401574803149606,"duration":0.8893229166667425},{"name":"F5","midi":77,"time":308.8906249999979,"velocity":0.7401574803149606,"duration":0.24088541666674246},{"name":"G5","midi":79,"time":309.0455729166646,"velocity":0.7401574803149606,"duration":0.29427083333337123},{"name":"E3","midi":52,"time":309.09374999999795,"velocity":0.7401574803149606,"duration":0.51171875},{"name":"A5","midi":81,"time":309.35156249999795,"velocity":0.7401574803149606,"duration":0.25390625},{"name":"G5","midi":79,"time":309.60937499999795,"velocity":0.7401574803149606,"duration":0.25390625},{"name":"C#5","midi":73,"time":309.60937499999795,"velocity":0.7401574803149606,"duration":2.0572916666666856},{"name":"A2","midi":45,"time":309.60937499999795,"velocity":0.7401574803149606,"duration":1.0260416666666856},{"name":"F5","midi":77,"time":309.86588541666464,"velocity":0.7401574803149606,"duration":0.10677083333337123},{"name":"G5","midi":79,"time":309.9661458333313,"velocity":0.7401574803149606,"duration":0.10677083333337123},{"name":"F5","midi":77,"time":310.0651041666647,"velocity":0.7401574803149606,"duration":0.10677083333331439},{"name":"G5","midi":79,"time":310.164062499998,"velocity":0.7401574803149606,"duration":0.10677083333331439},{"name":"F5","midi":77,"time":310.2630208333313,"velocity":0.7401574803149606,"duration":0.9166666666666856},{"name":"A3","midi":57,"time":310.63932291666464,"velocity":0.7401574803149606,"duration":1.0260416666666856},{"name":"E5","midi":76,"time":311.1536458333313,"velocity":0.7401574803149606,"duration":0.7044270833333144},{"name":"D5","midi":74,"time":311.6692708333313,"velocity":0.7401574803149606,"duration":1.0182291666666856},{"name":"D3","midi":50,"time":311.6692708333313,"velocity":0.7401574803149606,"duration":0.51171875},{"name":"G5","midi":79,"time":311.9270833333313,"velocity":0.7401574803149606,"duration":0.25390625},{"name":"F5","midi":77,"time":312.183593749998,"velocity":0.7401574803149606,"duration":0.25390625},{"name":"A3","midi":57,"time":312.183593749998,"velocity":0.7401574803149606,"duration":0.51171875},{"name":"E5","midi":76,"time":312.441406249998,"velocity":0.7401574803149606,"duration":0.25390625},{"name":"A4","midi":69,"time":312.699218749998,"velocity":0.7401574803149606,"duration":1.286458333333428},{"name":"E5","midi":76,"time":312.699218749998,"velocity":0.7401574803149606,"duration":0.3424479166666856},{"name":"D4","midi":62,"time":312.699218749998,"velocity":0.7401574803149606,"duration":0.5117187500000568},{"name":"F5","midi":77,"time":313.0481770833314,"velocity":0.7401574803149606,"duration":0.43359375000005684},{"name":"C4","midi":60,"time":313.21354166666475,"velocity":0.7401574803149606,"duration":0.51171875},{"name":"E5","midi":76,"time":313.47135416666475,"velocity":0.7401574803149606,"duration":0.25390625},{"name":"D5","midi":74,"time":313.72916666666475,"velocity":0.7401574803149606,"duration":1.5416666666666856},{"name":"B3","midi":59,"time":313.72916666666475,"velocity":0.7401574803149606,"duration":0.51171875},{"name":"G#4","midi":68,"time":313.98697916666475,"velocity":0.7401574803149606,"duration":0.25390625},{"name":"G4","midi":67,"time":314.24348958333144,"velocity":0.7401574803149606,"duration":0.25390625},{"name":"A3","midi":57,"time":314.24348958333144,"velocity":0.7401574803149606,"duration":0.51171875},{"name":"F#4","midi":66,"time":314.50130208333144,"velocity":0.7401574803149606,"duration":0.25390625},{"name":"F4","midi":65,"time":314.75911458333144,"velocity":0.7401574803149606,"duration":0.3216145833333144},{"name":"G#3","midi":56,"time":314.75911458333144,"velocity":0.7401574803149606,"duration":0.51171875},{"name":"E4","midi":64,"time":315.08072916666475,"velocity":0.7401574803149606,"duration":1.7135416666667425},{"name":"D5","midi":74,"time":315.2734374999981,"velocity":0.7401574803149606,"duration":0.125},{"name":"E3","midi":52,"time":315.2734374999981,"velocity":0.7401574803149606,"duration":0.51171875},{"name":"C5","midi":72,"time":315.4023437499981,"velocity":0.7401574803149606,"duration":0.125},{"name":"B4","midi":71,"time":315.5312499999981,"velocity":0.7401574803149606,"duration":0.25390625},{"name":"B4","midi":71,"time":315.7890624999981,"velocity":0.7401574803149606,"duration":0.25390625},{"name":"A3","midi":57,"time":315.7890624999981,"velocity":0.7401574803149606,"duration":0.51171875},{"name":"C5","midi":72,"time":316.0468749999981,"velocity":0.7401574803149606,"duration":0.51171875},{"name":"G3","midi":55,"time":316.3033854166648,"velocity":0.7401574803149606,"duration":0.51171875},{"name":"D5","midi":74,"time":316.5611979166648,"velocity":0.7401574803149606,"duration":0.25390625},{"name":"D4","midi":62,"time":316.8190104166648,"velocity":0.7401574803149606,"duration":1.0182291666666856},{"name":"C5","midi":72,"time":316.8190104166648,"velocity":0.7401574803149606,"duration":0.25390625},{"name":"F3","midi":53,"time":316.8190104166648,"velocity":0.7401574803149606,"duration":1.0182291666666856},{"name":"B4","midi":71,"time":317.0768229166648,"velocity":0.7401574803149606,"duration":0.14713541666668561},{"name":"C5","midi":72,"time":317.1627604166648,"velocity":0.7401574803149606,"duration":0.14713541666668561},{"name":"B4","midi":71,"time":317.2486979166648,"velocity":0.7401574803149606,"duration":0.3424479166666856},{"name":"B3","midi":59,"time":317.3346354166648,"velocity":0.7401574803149606,"duration":0.51171875},{"name":"A4","midi":69,"time":317.5911458333315,"velocity":0.7401574803149606,"duration":0.25390625},{"name":"E4","midi":64,"time":317.8489583333315,"velocity":0.7401574803149606,"duration":2.0572916666666856},{"name":"A4","midi":69,"time":317.8489583333315,"velocity":0.7401574803149606,"duration":1.0260416666666856},{"name":"C4","midi":60,"time":317.8489583333315,"velocity":0.7401574803149606,"duration":1.0260416666666856},{"name":"E3","midi":52,"time":317.8489583333315,"velocity":0.7401574803149606,"duration":2.574218750000057},{"name":"A4","midi":69,"time":318.8789062499982,"velocity":0.7401574803149606,"duration":0.13411458333331439},{"name":"C4","midi":60,"time":318.8789062499982,"velocity":0.7401574803149606,"duration":0.125},{"name":"G#4","midi":68,"time":319.0078124999982,"velocity":0.7401574803149606,"duration":0.13411458333331439},{"name":"B3","midi":59,"time":319.0078124999982,"velocity":0.7401574803149606,"duration":0.125},{"name":"A4","midi":69,"time":319.1367187499982,"velocity":0.7401574803149606,"duration":0.13411458333331439},{"name":"C4","midi":60,"time":319.1367187499982,"velocity":0.7401574803149606,"duration":0.125},{"name":"G#4","midi":68,"time":319.2656249999982,"velocity":0.7401574803149606,"duration":0.35546875},{"name":"B3","midi":59,"time":319.2656249999982,"velocity":0.7401574803149606,"duration":0.34765625},{"name":"A3","midi":57,"time":319.6249999999982,"velocity":0.7401574803149606,"duration":0.28125},{"name":"F#4","midi":66,"time":319.6249999999982,"velocity":0.7401574803149606,"duration":0.2786458333333144},{"name":"E4","midi":64,"time":319.90885416666487,"velocity":0.7401574803149606,"duration":1.0260416666666856},{"name":"B3","midi":59,"time":319.90885416666487,"velocity":0.7401574803149606,"duration":1.0260416666666856},{"name":"G#3","midi":56,"time":319.90885416666487,"velocity":0.7401574803149606,"duration":1.0182291666666856},{"name":"D3","midi":50,"time":320.42447916666487,"velocity":0.7401574803149606,"duration":0.51171875},{"name":"A3","midi":57,"time":320.93880208333155,"velocity":0.7401574803149606,"duration":1.0182291666666856},{"name":"C#3","midi":49,"time":320.93880208333155,"velocity":0.7401574803149606,"duration":0.51171875},{"name":"E4","midi":64,"time":321.06770833333155,"velocity":0.7401574803149606,"duration":0.8893229166666856},{"name":"F4","midi":65,"time":321.19661458333155,"velocity":0.7401574803149606,"duration":0.24088541666668561},{"name":"G4","midi":67,"time":321.32552083333155,"velocity":0.7401574803149606,"duration":0.375},{"name":"B2","midi":47,"time":321.45442708333155,"velocity":0.7401574803149606,"duration":0.51171875},{"name":"G4","midi":67,"time":321.71093749999824,"velocity":0.7401574803149606,"duration":0.25390625},{"name":"A3","midi":57,"time":321.96874999999824,"velocity":0.7401574803149606,"duration":1.5416666666666856},{"name":"E4","midi":64,"time":321.96874999999824,"velocity":0.7401574803149606,"duration":1.5416666666666856},{"name":"G4","midi":67,"time":321.96874999999824,"velocity":0.7401574803149606,"duration":1.5416666666666856},{"name":"C#3","midi":49,"time":321.96874999999824,"velocity":0.7401574803149606,"duration":0.51171875},{"name":"E3","midi":52,"time":322.48437499999824,"velocity":0.7401574803149606,"duration":0.51171875},{"name":"A2","midi":45,"time":322.9986979166649,"velocity":0.7401574803149606,"duration":0.51171875},{"name":"F#4","midi":66,"time":323.5143229166649,"velocity":0.7401574803149606,"duration":0.25390625},{"name":"B2","midi":47,"time":323.5143229166649,"velocity":0.7401574803149606,"duration":0.51171875},{"name":"E4","midi":64,"time":323.7721354166649,"velocity":0.7401574803149606,"duration":0.33723958333337123},{"name":"A3","midi":57,"time":324.0286458333316,"velocity":0.7401574803149606,"duration":1.0182291666666856},{"name":"C3","midi":48,"time":324.0286458333316,"velocity":0.7401574803149606,"duration":0.51171875},{"name":"D4","midi":62,"time":324.1575520833316,"velocity":0.7401574803149606,"duration":0.8893229166666856},{"name":"E4","midi":64,"time":324.2864583333316,"velocity":0.7401574803149606,"duration":0.24088541666668561},{"name":"F#4","midi":66,"time":324.4153645833316,"velocity":0.7401574803149606,"duration":0.375},{"name":"E3","midi":52,"time":324.5442708333316,"velocity":0.7401574803149606,"duration":0.51171875},{"name":"G#4","midi":68,"time":324.8020833333316,"velocity":0.7401574803149606,"duration":0.25390625},{"name":"B3","midi":59,"time":325.0585937499983,"velocity":0.7401574803149606,"duration":2.0572916666667425},{"name":"A4","midi":69,"time":325.0585937499983,"velocity":0.7401574803149606,"duration":0.2565104166666856},{"name":"D3","midi":50,"time":325.0585937499983,"velocity":0.7401574803149606,"duration":0.51171875},{"name":"G#4","midi":68,"time":325.3164062499983,"velocity":0.7401574803149606,"duration":0.125},{"name":"A4","midi":69,"time":325.4153645833316,"velocity":0.7401574803149606,"duration":0.125},{"name":"G#4","midi":68,"time":325.5156249999983,"velocity":0.7401574803149606,"duration":0.125},{"name":"F3","midi":53,"time":325.5742187499983,"velocity":0.7401574803149606,"duration":0.5117187500000568},{"name":"A4","midi":69,"time":325.6145833333316,"velocity":0.7401574803149606,"duration":0.12500000000005684},{"name":"G#4","midi":68,"time":325.713541666665,"velocity":0.7401574803149606,"duration":0.8763020833333712},{"name":"E3","midi":52,"time":326.08854166666504,"velocity":0.7401574803149606,"duration":0.51171875},{"name":"G#4","midi":68,"time":326.60416666666504,"velocity":0.7401574803149606,"duration":0.51171875},{"name":"D3","midi":50,"time":326.60416666666504,"velocity":0.7401574803149606,"duration":0.51171875},{"name":"A4","midi":69,"time":327.1184895833317,"velocity":0.7401574803149606,"duration":1.0078125},{"name":"C3","midi":48,"time":327.1184895833317,"velocity":0.7401574803149606,"duration":0.51171875},{"name":"G#4","midi":68,"time":327.2747395833317,"velocity":0.7401574803149606,"duration":0.125},{"name":"F#4","midi":66,"time":327.4296874999984,"velocity":0.7401574803149606,"duration":0.125},{"name":"E4","midi":64,"time":327.5859374999984,"velocity":0.7401574803149606,"duration":1.5546875},{"name":"A2","midi":45,"time":327.6341145833317,"velocity":0.7401574803149606,"duration":0.51171875},{"name":"D5","midi":74,"time":327.8919270833317,"velocity":0.7401574803149606,"duration":0.25390625},{"name":"D5","midi":74,"time":328.1484374999984,"velocity":0.7401574803149606,"duration":0.25390625},{"name":"A4","midi":69,"time":328.1484374999984,"velocity":0.7401574803149606,"duration":1.0481770833333712},{"name":"E3","midi":52,"time":328.1484374999984,"velocity":0.7401574803149606,"duration":1.0260416666666856},{"name":"C5","midi":72,"time":328.4062499999984,"velocity":0.7401574803149606,"duration":1.2864583333333712},{"name":"G#4","midi":68,"time":329.1783854166651,"velocity":0.7401574803149606,"duration":1.0182291666666856},{"name":"D4","midi":62,"time":329.1783854166651,"velocity":0.7401574803149606,"duration":1.0182291666666856},{"name":"E2","midi":40,"time":329.1783854166651,"velocity":0.7401574803149606,"duration":1.0260416666666856},{"name":"B4","midi":71,"time":329.4361979166651,"velocity":0.7401574803149606,"duration":0.25390625},{"name":"A4","midi":69,"time":329.6940104166651,"velocity":0.7401574803149606,"duration":0.25390625},{"name":"B4","midi":71,"time":329.9518229166651,"velocity":0.7401574803149606,"duration":0.25390625},{"name":"A4","midi":69,"time":330.2096354166651,"velocity":0.7401574803149606,"duration":1.296875},{"name":"A2","midi":45,"time":330.2096354166651,"velocity":0.7401574803149606,"duration":0.5299479166666856},{"name":"E3","midi":52,"time":330.74218749999847,"velocity":0.7401574803149606,"duration":0.5286458333333144},{"name":"D4","midi":62,"time":330.87499999999847,"velocity":0.7401574803149606,"duration":0.22005208333331439},{"name":"C4","midi":60,"time":331.00781249999847,"velocity":0.7401574803149606,"duration":0.23828125},{"name":"B3","midi":59,"time":331.14062499999847,"velocity":0.7401574803149606,"duration":0.13020833333331439},{"name":"C4","midi":60,"time":331.2747395833318,"velocity":0.7401574803149606,"duration":3.265624999999943},{"name":"A3","midi":57,"time":331.2747395833318,"velocity":0.7401574803149606,"duration":3.1940104166666288},{"name":"E4","midi":64,"time":331.4361979166651,"velocity":0.7401574803149606,"duration":3.0559895833333144},{"name":"A4","midi":69,"time":331.5976562499984,"velocity":0.7401574803149606,"duration":2.91796875},{"name":"E5","midi":76,"time":336.6106770833317,"velocity":0.7401574803149606,"duration":0.10677083333331439},{"name":"A2","midi":45,"time":336.6106770833317,"velocity":0.7401574803149606,"duration":0.43619791666662877},{"name":"D5","midi":74,"time":336.7200520833317,"velocity":0.7401574803149606,"duration":0.10677083333331439},{"name":"E5","midi":76,"time":336.83072916666504,"velocity":0.7401574803149606,"duration":0.43619791666662877},{"name":"G#2","midi":44,"time":337.05078124999835,"velocity":0.7401574803149606,"duration":0.43619791666662877},{"name":"D5","midi":74,"time":337.26953124999835,"velocity":0.7401574803149606,"duration":0.21614583333331439},{"name":"C5","midi":72,"time":337.48958333333167,"velocity":0.7401574803149606,"duration":0.21614583333331439},{"name":"A2","midi":45,"time":337.48958333333167,"velocity":0.7401574803149606,"duration":0.43619791666662877},{"name":"B4","midi":71,"time":337.709635416665,"velocity":0.7401574803149606,"duration":0.21614583333331439},{"name":"A4","midi":69,"time":337.9296874999983,"velocity":0.7401574803149606,"duration":0.21614583333331439},{"name":"B2","midi":47,"time":337.9296874999983,"velocity":0.7401574803149606,"duration":0.43619791666662877},{"name":"G#4","midi":68,"time":338.1497395833316,"velocity":0.7401574803149606,"duration":0.21614583333331439},{"name":"A4","midi":69,"time":338.3697916666649,"velocity":0.7401574803149606,"duration":0.21614583333331439},{"name":"C3","midi":48,"time":338.3697916666649,"velocity":0.7401574803149606,"duration":0.43619791666662877},{"name":"C5","midi":72,"time":338.58984374999824,"velocity":0.7401574803149606,"duration":0.21614583333331439},{"name":"F5","midi":77,"time":338.80989583333155,"velocity":0.7401574803149606,"duration":0.21614583333331439},{"name":"A2","midi":45,"time":338.80989583333155,"velocity":0.7401574803149606,"duration":0.43619791666662877},{"name":"E5","midi":76,"time":339.02994791666487,"velocity":0.7401574803149606,"duration":0.21614583333331439},{"name":"E5","midi":76,"time":339.2499999999982,"velocity":0.7401574803149606,"duration":0.15755208333331439},{"name":"B2","midi":47,"time":339.2499999999982,"velocity":0.7401574803149606,"duration":0.43750000000005684},{"name":"D5","midi":74,"time":339.4101562499982,"velocity":0.7401574803149606,"duration":0.09244791666668561},{"name":"E5","midi":76,"time":339.49088541666487,"velocity":0.7401574803149606,"duration":0.09244791666668561},{"name":"D5","midi":74,"time":339.57161458333155,"velocity":0.7401574803149606,"duration":0.32552083333337123},{"name":"A3","midi":57,"time":339.69140624999824,"velocity":0.7401574803149606,"duration":0.4361979166666856},{"name":"C5","midi":72,"time":339.9114583333316,"velocity":0.7401574803149606,"duration":0.21614583333331439},{"name":"B4","midi":71,"time":340.1302083333316,"velocity":0.7401574803149606,"duration":0.21614583333331439},{"name":"G#3","midi":56,"time":340.1302083333316,"velocity":0.7401574803149606,"duration":0.43619791666662877},{"name":"A4","midi":69,"time":340.3502604166649,"velocity":0.7401574803149606,"duration":0.21614583333331439},{"name":"G#4","midi":68,"time":340.57031249999824,"velocity":0.7401574803149606,"duration":0.21614583333331439},{"name":"B3","midi":59,"time":340.57031249999824,"velocity":0.7401574803149606,"duration":0.43619791666662877},{"name":"F#4","midi":66,"time":340.79036458333155,"velocity":0.7401574803149606,"duration":0.21614583333331439},{"name":"G#4","midi":68,"time":341.01041666666487,"velocity":0.7401574803149606,"duration":0.21614583333331439},{"name":"E3","midi":52,"time":341.01041666666487,"velocity":0.7401574803149606,"duration":0.43619791666662877},{"name":"B4","midi":71,"time":341.2304687499982,"velocity":0.7401574803149606,"duration":0.21614583333331439},{"name":"D5","midi":74,"time":341.4505208333315,"velocity":0.7401574803149606,"duration":0.21614583333331439},{"name":"G#3","midi":56,"time":341.4505208333315,"velocity":0.7401574803149606,"duration":0.43619791666662877},{"name":"E5","midi":76,"time":341.6705729166648,"velocity":0.7401574803149606,"duration":0.21614583333331439},{"name":"D5","midi":74,"time":341.8906249999981,"velocity":0.7401574803149606,"duration":0.21223958333337123},{"name":"A3","midi":57,"time":341.8906249999981,"velocity":0.7401574803149606,"duration":0.4375},{"name":"C5","midi":72,"time":342.0963541666648,"velocity":0.7401574803149606,"duration":0.10286458333337123},{"name":"D5","midi":74,"time":342.2005208333315,"velocity":0.7401574803149606,"duration":0.10286458333331439},{"name":"C5","midi":72,"time":342.3033854166648,"velocity":0.7401574803149606,"duration":0.24479166666662877},{"name":"G3","midi":55,"time":342.3320312499981,"velocity":0.7401574803149606,"duration":0.43619791666662877},{"name":"B4","midi":71,"time":342.55208333333144,"velocity":0.7401574803149606,"duration":0.21614583333331439},{"name":"A4","midi":69,"time":342.77213541666475,"velocity":0.7401574803149606,"duration":0.21614583333331439},{"name":"F3","midi":53,"time":342.77213541666475,"velocity":0.7401574803149606,"duration":0.43619791666662877},{"name":"G4","midi":67,"time":342.99088541666475,"velocity":0.7401574803149606,"duration":0.21614583333331439},{"name":"F4","midi":65,"time":343.21093749999807,"velocity":0.7401574803149606,"duration":0.21614583333331439},{"name":"E3","midi":52,"time":343.21093749999807,"velocity":0.7401574803149606,"duration":0.43619791666662877},{"name":"E4","midi":64,"time":343.4309895833314,"velocity":0.7401574803149606,"duration":0.21614583333331439},{"name":"D4","midi":62,"time":343.6510416666647,"velocity":0.7401574803149606,"duration":0.21614583333331439},{"name":"F3","midi":53,"time":343.6510416666647,"velocity":0.7401574803149606,"duration":0.43619791666662877},{"name":"C5","midi":72,"time":343.871093749998,"velocity":0.7401574803149606,"duration":0.21614583333331439},{"name":"B4","midi":71,"time":344.0911458333313,"velocity":0.7401574803149606,"duration":0.19401041666668561},{"name":"D3","midi":50,"time":344.0911458333313,"velocity":0.7401574803149606,"duration":0.4361979166666856},{"name":"C5","midi":72,"time":344.2786458333313,"velocity":0.7401574803149606,"duration":0.125},{"name":"A4","midi":69,"time":344.402343749998,"velocity":0.7401574803149606,"duration":0.09895833333331439},{"name":"A4","midi":69,"time":344.531249999998,"velocity":0.7401574803149606,"duration":0.2747395833333144},{"name":"E3","midi":52,"time":344.531249999998,"velocity":0.7401574803149606,"duration":0.4375},{"name":"G#4","midi":68,"time":344.8059895833313,"velocity":0.7401574803149606,"duration":0.10807291666668561},{"name":"A4","midi":69,"time":344.902343749998,"velocity":0.7401574803149606,"duration":0.10807291666668561},{"name":"B2","midi":47,"time":344.972656249998,"velocity":0.7401574803149606,"duration":0.43750000000005684},{"name":"G#4","midi":68,"time":344.9986979166647,"velocity":0.7401574803149606,"duration":0.10807291666668561},{"name":"A4","midi":69,"time":345.0963541666647,"velocity":0.7401574803149606,"duration":0.10807291666668561},{"name":"G#4","midi":68,"time":345.1927083333314,"velocity":0.7401574803149606,"duration":0.10807291666668561},{"name":"A4","midi":69,"time":345.28906249999807,"velocity":0.7401574803149606,"duration":0.10807291666668561},{"name":"G#4","midi":68,"time":345.38541666666475,"velocity":0.7401574803149606,"duration":0.6875},{"name":"E2","midi":40,"time":345.41406249999807,"velocity":0.7401574803149606,"duration":0.4361979166666856},{"name":"B2","midi":47,"time":345.85286458333144,"velocity":0.7401574803149606,"duration":0.43619791666662877},{"name":"F#4","midi":66,"time":346.07291666666475,"velocity":0.7401574803149606,"duration":0.21614583333331439},{"name":"E4","midi":64,"time":346.29296874999807,"velocity":0.7401574803149606,"duration":0.640625},{"name":"E3","midi":52,"time":346.29296874999807,"velocity":0.7401574803149606,"duration":0.4361979166666856},{"name":"D3","midi":50,"time":346.73307291666475,"velocity":0.7401574803149606,"duration":0.43619791666662877},{"name":"G5","midi":79,"time":347.1731770833314,"velocity":0.7401574803149606,"duration":0.10677083333331439},{"name":"C#3","midi":49,"time":347.1731770833314,"velocity":0.7401574803149606,"duration":0.43619791666662877},{"name":"F5","midi":77,"time":347.2825520833314,"velocity":0.7401574803149606,"duration":0.10677083333331439},{"name":"G5","midi":79,"time":347.3932291666647,"velocity":0.7401574803149606,"duration":0.43619791666662877},{"name":"E3","midi":52,"time":347.613281249998,"velocity":0.7401574803149606,"duration":0.43619791666662877},{"name":"F5","midi":77,"time":347.8333333333313,"velocity":0.7401574803149606,"duration":0.21614583333331439},{"name":"E5","midi":76,"time":348.05338541666464,"velocity":0.7401574803149606,"duration":0.21614583333331439},{"name":"A2","midi":45,"time":348.05338541666464,"velocity":0.7401574803149606,"duration":0.43619791666662877},{"name":"D5","midi":74,"time":348.27343749999795,"velocity":0.7401574803149606,"duration":0.21614583333331439},{"name":"C#5","midi":73,"time":348.49348958333127,"velocity":0.7401574803149606,"duration":0.21614583333331439},{"name":"B2","midi":47,"time":348.49348958333127,"velocity":0.7401574803149606,"duration":0.43619791666662877},{"name":"B4","midi":71,"time":348.71223958333127,"velocity":0.7401574803149606,"duration":0.21614583333331439},{"name":"A4","midi":69,"time":348.9322916666646,"velocity":0.7401574803149606,"duration":0.21614583333331439},{"name":"C#3","midi":49,"time":348.9322916666646,"velocity":0.7401574803149606,"duration":0.43619791666662877},{"name":"G5","midi":79,"time":349.1523437499979,"velocity":0.7401574803149606,"duration":0.21614583333331439},{"name":"F5","midi":77,"time":349.3723958333312,"velocity":0.7401574803149606,"duration":0.21614583333337123},{"name":"A2","midi":45,"time":349.3723958333312,"velocity":0.7401574803149606,"duration":0.43619791666674246},{"name":"G5","midi":79,"time":349.5468749999979,"velocity":0.7401574803149606,"duration":0.12630208333337123},{"name":"E5","midi":76,"time":349.6783854166646,"velocity":0.7401574803149606,"duration":0.12760416666668561},{"name":"E5","midi":76,"time":349.81249999999795,"velocity":0.7401574803149606,"duration":0.21614583333331439},{"name":"D3","midi":50,"time":349.81249999999795,"velocity":0.7401574803149606,"duration":0.4348958333333144},{"name":"F5","midi":77,"time":350.03255208333127,"velocity":0.7401574803149606,"duration":0.10677083333331439},{"name":"E5","midi":76,"time":350.0963541666646,"velocity":0.7401574803149606,"duration":0.10546875},{"name":"F5","midi":77,"time":350.1601562499979,"velocity":0.7401574803149606,"duration":0.30078125000005684},{"name":"E3","midi":52,"time":350.25130208333127,"velocity":0.7401574803149606,"duration":0.4361979166666856},{"name":"E5","midi":76,"time":350.47135416666464,"velocity":0.7401574803149606,"duration":0.21614583333331439},{"name":"D5","midi":74,"time":350.69140624999795,"velocity":0.7401574803149606,"duration":0.21614583333331439},{"name":"F3","midi":53,"time":350.69140624999795,"velocity":0.7401574803149606,"duration":0.43619791666662877},{"name":"E5","midi":76,"time":350.91145833333127,"velocity":0.7401574803149606,"duration":0.21614583333331439},{"name":"F5","midi":77,"time":351.1315104166646,"velocity":0.7401574803149606,"duration":0.21614583333331439},{"name":"D3","midi":50,"time":351.1315104166646,"velocity":0.7401574803149606,"duration":0.43619791666662877},{"name":"D5","midi":74,"time":351.3502604166646,"velocity":0.7401574803149606,"duration":0.21614583333331439},{"name":"C5","midi":72,"time":351.5703124999979,"velocity":0.7401574803149606,"duration":0.21614583333331439},{"name":"G3","midi":55,"time":351.5703124999979,"velocity":0.7401574803149606,"duration":0.43619791666662877},{"name":"B4","midi":71,"time":351.7903645833312,"velocity":0.7401574803149606,"duration":0.21614583333331439},{"name":"A4","midi":69,"time":352.0104166666645,"velocity":0.7401574803149606,"duration":0.21614583333331439},{"name":"F3","midi":53,"time":352.0104166666645,"velocity":0.7401574803149606,"duration":0.43619791666662877},{"name":"G4","midi":67,"time":352.23046874999784,"velocity":0.7401574803149606,"duration":0.21614583333331439},{"name":"C5","midi":72,"time":352.45052083333115,"velocity":0.7401574803149606,"duration":0.21614583333331439},{"name":"E3","midi":52,"time":352.45052083333115,"velocity":0.7401574803149606,"duration":0.21614583333331439},{"name":"F5","midi":77,"time":352.67057291666447,"velocity":0.7401574803149606,"duration":0.21614583333331439},{"name":"D3","midi":50,"time":352.67057291666447,"velocity":0.7401574803149606,"duration":0.21614583333331439},{"name":"E5","midi":76,"time":352.8906249999978,"velocity":0.7401574803149606,"duration":0.21614583333331439},{"name":"C3","midi":48,"time":352.8906249999978,"velocity":0.7401574803149606,"duration":0.21614583333331439},{"name":"A5","midi":81,"time":353.1106770833311,"velocity":0.7401574803149606,"duration":0.21614583333331439},{"name":"D3","midi":50,"time":353.1106770833311,"velocity":0.7401574803149606,"duration":0.21614583333331439},{"name":"G5","midi":79,"time":353.3307291666644,"velocity":0.7401574803149606,"duration":0.21614583333331439},{"name":"E3","midi":52,"time":353.3307291666644,"velocity":0.7401574803149606,"duration":0.21614583333331439},{"name":"B4","midi":71,"time":353.5507812499977,"velocity":0.7401574803149606,"duration":0.21614583333331439},{"name":"D3","midi":50,"time":353.5507812499977,"velocity":0.7401574803149606,"duration":0.21614583333331439},{"name":"C5","midi":72,"time":353.77083333333104,"velocity":0.7401574803149606,"duration":0.21614583333331439},{"name":"E3","midi":52,"time":353.77083333333104,"velocity":0.7401574803149606,"duration":0.21614583333331439},{"name":"F5","midi":77,"time":353.98958333333104,"velocity":0.7401574803149606,"duration":0.21614583333331439},{"name":"F3","midi":53,"time":353.98958333333104,"velocity":0.7401574803149606,"duration":0.21614583333331439},{"name":"E5","midi":76,"time":354.20963541666436,"velocity":0.7401574803149606,"duration":0.21614583333331439},{"name":"G3","midi":55,"time":354.20963541666436,"velocity":0.7401574803149606,"duration":0.4375},{"name":"D5","midi":74,"time":354.42968749999767,"velocity":0.7401574803149606,"duration":0.10807291666668561},{"name":"E5","midi":76,"time":354.50390624999767,"velocity":0.7401574803149606,"duration":0.10807291666668561},{"name":"D5","midi":74,"time":354.57812499999767,"velocity":0.7401574803149606,"duration":0.10807291666668561},{"name":"E5","midi":76,"time":354.65104166666436,"velocity":0.7401574803149606,"duration":0.10807291666668561},{"name":"G2","midi":43,"time":354.65104166666436,"velocity":0.7401574803149606,"duration":0.43750000000005684},{"name":"D5","midi":74,"time":354.72526041666436,"velocity":0.7401574803149606,"duration":0.16927083333337123},{"name":"C5","midi":72,"time":354.87239583333104,"velocity":0.7401574803149606,"duration":0.21614583333337123},{"name":"C5","midi":72,"time":355.0924479166644,"velocity":0.7401574803149606,"duration":0.10677083333331439},{"name":"C3","midi":48,"time":355.0924479166644,"velocity":0.7401574803149606,"duration":0.43619791666662877},{"name":"B4","midi":71,"time":355.2031249999977,"velocity":0.7401574803149606,"duration":0.10677083333331439},{"name":"C5","midi":72,"time":355.3124999999977,"velocity":0.7401574803149606,"duration":2.4153645833333712},{"name":"G2","midi":43,"time":355.53255208333104,"velocity":0.7401574803149606,"duration":0.4361979166666856},{"name":"E2","midi":40,"time":355.9726562499977,"velocity":0.7401574803149606,"duration":0.4361979166666856},{"name":"G2","midi":43,"time":356.4127604166644,"velocity":0.7401574803149606,"duration":0.4361979166666856},{"name":"C2","midi":36,"time":356.8515624999978,"velocity":0.7401574803149606,"duration":0.875},{"name":"C5","midi":72,"time":357.7304687499978,"velocity":0.7401574803149606,"duration":0.43619791666662877},{"name":"C3","midi":48,"time":357.7304687499978,"velocity":0.7401574803149606,"duration":0.21614583333331439},{"name":"E3","midi":52,"time":357.9505208333311,"velocity":0.7401574803149606,"duration":0.21614583333331439},{"name":"B4","midi":71,"time":358.1705729166644,"velocity":0.7401574803149606,"duration":0.43619791666662877},{"name":"G3","midi":55,"time":358.1705729166644,"velocity":0.7401574803149606,"duration":0.21614583333331439},{"name":"F3","midi":53,"time":358.3906249999977,"velocity":0.7401574803149606,"duration":0.21614583333331439},{"name":"C5","midi":72,"time":358.61067708333104,"velocity":0.7401574803149606,"duration":0.43619791666662877},{"name":"E3","midi":52,"time":358.61067708333104,"velocity":0.7401574803149606,"duration":0.21614583333331439},{"name":"D3","midi":50,"time":358.83072916666436,"velocity":0.7401574803149606,"duration":0.21614583333331439},{"name":"D5","midi":74,"time":359.05078124999767,"velocity":0.7401574803149606,"duration":0.43619791666662877},{"name":"C3","midi":48,"time":359.05078124999767,"velocity":0.7401574803149606,"duration":0.21614583333331439},{"name":"B2","midi":47,"time":359.270833333331,"velocity":0.7401574803149606,"duration":0.21614583333331439},{"name":"E5","midi":76,"time":359.4908854166643,"velocity":0.7401574803149606,"duration":0.43619791666662877},{"name":"C3","midi":48,"time":359.4908854166643,"velocity":0.7401574803149606,"duration":0.21614583333331439},{"name":"E3","midi":52,"time":359.7096354166643,"velocity":0.7401574803149606,"duration":0.21614583333331439},{"name":"F#5","midi":78,"time":359.9296874999976,"velocity":0.7401574803149606,"duration":0.43619791666662877},{"name":"D3","midi":50,"time":359.9296874999976,"velocity":0.7401574803149606,"duration":0.21614583333331439},{"name":"C3","midi":48,"time":360.1497395833309,"velocity":0.7401574803149606,"duration":0.21614583333331439},{"name":"G5","midi":79,"time":360.36979166666424,"velocity":0.7401574803149606,"duration":0.43619791666662877},{"name":"B2","midi":47,"time":360.36979166666424,"velocity":0.7401574803149606,"duration":0.21614583333331439},{"name":"E3","midi":52,"time":360.58984374999756,"velocity":0.7401574803149606,"duration":0.21614583333331439},{"name":"F#5","midi":78,"time":360.80989583333087,"velocity":0.7401574803149606,"duration":0.43619791666662877},{"name":"D3","midi":50,"time":360.80989583333087,"velocity":0.7401574803149606,"duration":0.21614583333331439},{"name":"C3","midi":48,"time":361.0299479166642,"velocity":0.7401574803149606,"duration":0.21614583333331439},{"name":"G5","midi":79,"time":361.2499999999975,"velocity":0.7401574803149606,"duration":0.43619791666662877},{"name":"B2","midi":47,"time":361.2499999999975,"velocity":0.7401574803149606,"duration":0.21614583333331439},{"name":"A2","midi":45,"time":361.4700520833308,"velocity":0.7401574803149606,"duration":0.21614583333331439},{"name":"B5","midi":83,"time":361.6901041666641,"velocity":0.7401574803149606,"duration":0.43619791666662877},{"name":"G2","midi":43,"time":361.6901041666641,"velocity":0.7401574803149606,"duration":0.21614583333331439},{"name":"F#2","midi":42,"time":361.91015624999744,"velocity":0.7401574803149606,"duration":0.21614583333331439},{"name":"E5","midi":76,"time":362.13020833333076,"velocity":0.7401574803149606,"duration":0.43619791666662877},{"name":"G2","midi":43,"time":362.13020833333076,"velocity":0.7401574803149606,"duration":0.21614583333331439},{"name":"B2","midi":47,"time":362.34895833333076,"velocity":0.7401574803149606,"duration":0.21614583333331439},{"name":"G5","midi":79,"time":362.56901041666407,"velocity":0.7401574803149606,"duration":0.43619791666662877},{"name":"E3","midi":52,"time":362.56901041666407,"velocity":0.7401574803149606,"duration":0.21614583333331439},{"name":"G3","midi":55,"time":362.7890624999974,"velocity":0.7401574803149606,"duration":0.21614583333331439},{"name":"C5","midi":72,"time":363.0091145833307,"velocity":0.7401574803149606,"duration":0.43619791666662877},{"name":"A2","midi":45,"time":363.0091145833307,"velocity":0.7401574803149606,"duration":0.21614583333331439},{"name":"G2","midi":43,"time":363.229166666664,"velocity":0.7401574803149606,"duration":0.21614583333331439},{"name":"G5","midi":79,"time":363.4492187499973,"velocity":0.7401574803149606,"duration":0.43619791666662877},{"name":"A2","midi":45,"time":363.4492187499973,"velocity":0.7401574803149606,"duration":0.21614583333331439},{"name":"B2","midi":47,"time":363.66927083333064,"velocity":0.7401574803149606,"duration":0.21614583333331439},{"name":"F#5","midi":78,"time":363.88932291666396,"velocity":0.7401574803149606,"duration":0.43619791666662877},{"name":"C3","midi":48,"time":363.88932291666396,"velocity":0.7401574803149606,"duration":0.21614583333331439},{"name":"D3","midi":50,"time":364.10937499999727,"velocity":0.7401574803149606,"duration":0.21614583333331439},{"name":"A5","midi":81,"time":364.3294270833306,"velocity":0.7401574803149606,"duration":0.43619791666662877},{"name":"C3","midi":48,"time":364.3294270833306,"velocity":0.7401574803149606,"duration":0.21614583333331439},{"name":"B2","midi":47,"time":364.5494791666639,"velocity":0.7401574803149606,"duration":0.21614583333331439},{"name":"D#5","midi":75,"time":364.7695312499972,"velocity":0.7401574803149606,"duration":0.43619791666662877},{"name":"A2","midi":45,"time":364.7695312499972,"velocity":0.7401574803149606,"duration":0.21614583333331439},{"name":"G2","midi":43,"time":364.98958333333053,"velocity":0.7401574803149606,"duration":0.21614583333331439},{"name":"E5","midi":76,"time":365.20833333333053,"velocity":0.7401574803149606,"duration":0.43619791666662877},{"name":"A2","midi":45,"time":365.20833333333053,"velocity":0.7401574803149606,"duration":0.21614583333331439},{"name":"F#2","midi":42,"time":365.42838541666384,"velocity":0.7401574803149606,"duration":0.21614583333331439},{"name":"E5","midi":76,"time":365.64843749999716,"velocity":0.7401574803149606,"duration":0.296875},{"name":"B2","midi":47,"time":365.64843749999716,"velocity":0.7401574803149606,"duration":0.21614583333331439},{"name":"F#3","midi":54,"time":365.8684895833305,"velocity":0.7401574803149606,"duration":0.21614583333337123},{"name":"D#5","midi":75,"time":365.9466145833305,"velocity":0.7401574803149606,"duration":0.10677083333337123},{"name":"E5","midi":76,"time":366.03124999999716,"velocity":0.7401574803149606,"duration":0.10677083333337123},{"name":"G3","midi":55,"time":366.08854166666384,"velocity":0.7401574803149606,"duration":0.21484375000005684},{"name":"D#5","midi":75,"time":366.11588541666384,"velocity":0.7401574803149606,"duration":0.10677083333337123},{"name":"E5","midi":76,"time":366.20052083333053,"velocity":0.7401574803149606,"duration":0.10677083333337123},{"name":"D#5","midi":75,"time":366.2838541666639,"velocity":0.7401574803149606,"duration":0.10677083333337123},{"name":"A3","midi":57,"time":366.3072916666639,"velocity":0.7401574803149606,"duration":0.21614583333337123},{"name":"E5","midi":76,"time":366.3684895833306,"velocity":0.7401574803149606,"duration":0.10677083333337123},{"name":"D#5","midi":75,"time":366.45312499999727,"velocity":0.7401574803149606,"duration":0.7486979166666288},{"name":"B3","midi":59,"time":366.52734374999727,"velocity":0.7401574803149606,"duration":0.21614583333331439},{"name":"C4","midi":60,"time":366.7473958333306,"velocity":0.7401574803149606,"duration":0.21614583333331439},{"name":"B3","midi":59,"time":366.9674479166639,"velocity":0.7401574803149606,"duration":0.21614583333331439},{"name":"C#5","midi":73,"time":367.1874999999972,"velocity":0.7401574803149606,"duration":0.21614583333337123},{"name":"A3","midi":57,"time":367.1874999999972,"velocity":0.7401574803149606,"duration":0.21614583333337123},{"name":"B4","midi":71,"time":367.4075520833306,"velocity":0.7401574803149606,"duration":0.640625},{"name":"G3","midi":55,"time":367.4075520833306,"velocity":0.7401574803149606,"duration":0.21614583333331439},{"name":"F#3","midi":54,"time":367.6276041666639,"velocity":0.7401574803149606,"duration":0.21614583333331439},{"name":"E3","midi":52,"time":367.8463541666639,"velocity":0.7401574803149606,"duration":0.21614583333337123},{"name":"D#3","midi":51,"time":368.06640624999727,"velocity":0.7401574803149606,"duration":0.21614583333331439},{"name":"G5","midi":79,"time":368.2864583333306,"velocity":0.7401574803149606,"duration":5.039062499999602},{"name":"E3","midi":52,"time":368.2864583333306,"velocity":0.7401574803149606,"duration":0.43619791666662877},{"name":"F#5","midi":78,"time":368.5065104166639,"velocity":0.7401574803149606,"duration":0.21614583333331439},{"name":"E5","midi":76,"time":368.7265624999972,"velocity":0.7401574803149606,"duration":0.21614583333331439},{"name":"F#3","midi":54,"time":368.7265624999972,"velocity":0.7401574803149606,"duration":0.43619791666662877},{"name":"D#5","midi":75,"time":368.94661458333053,"velocity":0.7401574803149606,"duration":0.21614583333331439},{"name":"E5","midi":76,"time":369.16666666666384,"velocity":0.7401574803149606,"duration":0.21614583333331439},{"name":"G3","midi":55,"time":369.16666666666384,"velocity":0.7401574803149606,"duration":0.43619791666662877},{"name":"B4","midi":71,"time":369.38671874999716,"velocity":0.7401574803149606,"duration":0.21614583333331439},{"name":"C5","midi":72,"time":369.6067708333305,"velocity":0.7401574803149606,"duration":0.21614583333331439},{"name":"E3","midi":52,"time":369.6067708333305,"velocity":0.7401574803149606,"duration":0.43619791666662877},{"name":"A4","midi":69,"time":369.8268229166638,"velocity":0.7401574803149606,"duration":0.21614583333331439},{"name":"B4","midi":71,"time":370.0468749999971,"velocity":0.7401574803149606,"duration":0.10677083333331439},{"name":"E4","midi":64,"time":370.0468749999971,"velocity":0.7401574803149606,"duration":0.21614583333331439},{"name":"A4","midi":69,"time":370.1562499999971,"velocity":0.7401574803149606,"duration":0.10677083333331439},{"name":"B4","midi":71,"time":370.2669270833304,"velocity":0.7401574803149606,"duration":0.6562499999999432},{"name":"F#4","midi":66,"time":370.2669270833304,"velocity":0.7401574803149606,"duration":0.21614583333331439},{"name":"G4","midi":67,"time":370.4856770833304,"velocity":0.7401574803149606,"duration":0.21614583333331439},{"name":"E4","midi":64,"time":370.70572916666373,"velocity":0.7401574803149606,"duration":0.21614583333331439},{"name":"C5","midi":72,"time":370.92578124999704,"velocity":0.7401574803149606,"duration":0.21614583333331439},{"name":"A4","midi":69,"time":370.92578124999704,"velocity":0.7401574803149606,"duration":0.43619791666662877},{"name":"D5","midi":74,"time":371.14583333333036,"velocity":0.7401574803149606,"duration":0.21614583333331439},{"name":"C5","midi":72,"time":371.3658854166637,"velocity":0.7401574803149606,"duration":0.21614583333331439},{"name":"A2","midi":45,"time":371.3658854166637,"velocity":0.7401574803149606,"duration":0.21614583333331439},{"name":"B4","midi":71,"time":371.585937499997,"velocity":0.7401574803149606,"duration":0.21614583333331439},{"name":"B2","midi":47,"time":371.585937499997,"velocity":0.7401574803149606,"duration":0.21614583333331439},{"name":"A4","midi":69,"time":371.8059895833303,"velocity":0.7401574803149606,"duration":0.21614583333331439},{"name":"C3","midi":48,"time":371.8059895833303,"velocity":0.7401574803149606,"duration":0.43619791666662877},{"name":"D5","midi":74,"time":372.0260416666636,"velocity":0.7401574803149606,"duration":0.21614583333331439},{"name":"C5","midi":72,"time":372.24609374999693,"velocity":0.7401574803149606,"duration":0.21614583333331439},{"name":"A2","midi":45,"time":372.24609374999693,"velocity":0.7401574803149606,"duration":0.43619791666662877},{"name":"F5","midi":77,"time":372.46614583333024,"velocity":0.7401574803149606,"duration":0.21614583333331439},{"name":"E5","midi":76,"time":372.68619791666356,"velocity":0.7401574803149606,"duration":0.21614583333331439},{"name":"A3","midi":57,"time":372.68619791666356,"velocity":0.7401574803149606,"duration":0.21614583333331439},{"name":"D#5","midi":75,"time":372.9062499999969,"velocity":0.7401574803149606,"duration":0.21614583333331439},{"name":"B3","midi":59,"time":372.9062499999969,"velocity":0.7401574803149606,"duration":0.21614583333331439},{"name":"E5","midi":76,"time":373.1263020833302,"velocity":0.7401574803149606,"duration":0.21614583333331439},{"name":"C4","midi":60,"time":373.1263020833302,"velocity":0.7401574803149606,"duration":0.21614583333331439},{"name":"G5","midi":79,"time":373.3450520833302,"velocity":0.7401574803149606,"duration":0.21614583333331439},{"name":"A3","midi":57,"time":373.3450520833302,"velocity":0.7401574803149606,"duration":0.21614583333331439},{"name":"F#5","midi":78,"time":373.5651041666635,"velocity":0.7401574803149606,"duration":0.8697916666666288},{"name":"D#4","midi":63,"time":373.5651041666635,"velocity":0.7401574803149606,"duration":0.8763020833333144},{"name":"C5","midi":72,"time":373.7851562499968,"velocity":0.7401574803149606,"duration":0.21614583333331439},{"name":"B4","midi":71,"time":374.00520833333013,"velocity":0.7401574803149606,"duration":0.21614583333331439},{"name":"A4","midi":69,"time":374.22526041666345,"velocity":0.7401574803149606,"duration":0.21614583333337123},{"name":"G4","midi":67,"time":374.4453124999968,"velocity":0.7401574803149606,"duration":0.6406249999999432},{"name":"E4","midi":64,"time":374.4453124999968,"velocity":0.7401574803149606,"duration":0.43619791666662877},{"name":"B4","midi":71,"time":374.66536458333013,"velocity":0.7401574803149606,"duration":0.21614583333331439},{"name":"E5","midi":76,"time":374.88541666666345,"velocity":0.7401574803149606,"duration":0.43359375},{"name":"A3","midi":57,"time":374.88541666666345,"velocity":0.7401574803149606,"duration":0.4361979166666856},{"name":"G4","midi":67,"time":375.10546874999676,"velocity":0.7401574803149606,"duration":0.21614583333337123},{"name":"F#4","midi":66,"time":375.32552083333013,"velocity":0.7401574803149606,"duration":0.8697916666666288},{"name":"B3","midi":59,"time":375.32552083333013,"velocity":0.7401574803149606,"duration":0.43619791666662877},{"name":"A4","midi":69,"time":375.54557291666345,"velocity":0.7401574803149606,"duration":0.21614583333331439},{"name":"E5","midi":76,"time":375.76562499999676,"velocity":0.7401574803149606,"duration":0.21614583333331439},{"name":"B2","midi":47,"time":375.76562499999676,"velocity":0.7401574803149606,"duration":0.43619791666662877},{"name":"D#5","midi":75,"time":375.98437499999676,"velocity":0.7401574803149606,"duration":0.21614583333331439},{"name":"E5","midi":76,"time":376.2044270833301,"velocity":0.7401574803149606,"duration":2.6328124999997726},{"name":"E2","midi":40,"time":376.2044270833301,"velocity":0.7401574803149606,"duration":1.096354166666572},{"name":"C5","midi":72,"time":376.4244791666634,"velocity":0.7401574803149606,"duration":0.21614583333331439},{"name":"B4","midi":71,"time":376.6445312499967,"velocity":0.7401574803149606,"duration":0.21614583333331439},{"name":"A4","midi":69,"time":376.86458333333,"velocity":0.7401574803149606,"duration":0.21614583333331439},{"name":"G#4","midi":68,"time":377.08463541666333,"velocity":0.7401574803149606,"duration":0.10677083333331439},{"name":"F#4","midi":66,"time":377.19531249999665,"velocity":0.7401574803149606,"duration":0.10677083333331439},{"name":"G#4","midi":68,"time":377.30468749999665,"velocity":0.7401574803149606,"duration":1.5364583333332007},{"name":"D#4","midi":63,"time":377.30468749999665,"velocity":0.7401574803149606,"duration":0.21614583333331439},{"name":"E4","midi":64,"time":377.52473958332996,"velocity":0.7401574803149606,"duration":0.21614583333331439},{"name":"B3","midi":59,"time":377.7447916666633,"velocity":0.7401574803149606,"duration":0.21614583333331439},{"name":"G#3","midi":56,"time":377.9648437499966,"velocity":0.7401574803149606,"duration":0.21614583333331439},{"name":"E3","midi":52,"time":378.1848958333299,"velocity":0.7401574803149606,"duration":0.21614583333331439},{"name":"B3","midi":59,"time":378.4049479166632,"velocity":0.7401574803149606,"duration":0.21614583333331439},{"name":"D3","midi":50,"time":378.62499999999653,"velocity":0.7401574803149606,"duration":0.21614583333331439},{"name":"E5","midi":76,"time":378.84374999999653,"velocity":0.7401574803149606,"duration":0.10677083333331439},{"name":"C#3","midi":49,"time":378.84374999999653,"velocity":0.7401574803149606,"duration":0.43619791666662877},{"name":"D5","midi":74,"time":378.95442708332985,"velocity":0.7401574803149606,"duration":0.10677083333331439},{"name":"E5","midi":76,"time":379.06380208332985,"velocity":0.7401574803149606,"duration":0.43619791666662877},{"name":"E3","midi":52,"time":379.28385416666316,"velocity":0.7401574803149606,"duration":0.43619791666662877},{"name":"D5","midi":74,"time":379.5039062499965,"velocity":0.7401574803149606,"duration":0.21614583333331439},{"name":"C#5","midi":73,"time":379.7239583333298,"velocity":0.7401574803149606,"duration":0.21614583333331439},{"name":"A3","midi":57,"time":379.7239583333298,"velocity":0.7401574803149606,"duration":0.43619791666662877},{"name":"B4","midi":71,"time":379.9440104166631,"velocity":0.7401574803149606,"duration":0.21614583333331439},{"name":"A4","midi":69,"time":380.1640624999964,"velocity":0.7401574803149606,"duration":0.21614583333331439},{"name":"G3","midi":55,"time":380.1640624999964,"velocity":0.7401574803149606,"duration":0.43619791666662877},{"name":"A#5","midi":82,"time":380.38411458332973,"velocity":0.7401574803149606,"duration":0.21614583333331439},{"name":"A5","midi":81,"time":380.60416666666305,"velocity":0.7401574803149606,"duration":0.21614583333331439},{"name":"F3","midi":53,"time":380.60416666666305,"velocity":0.7401574803149606,"duration":0.43619791666662877},{"name":"G5","midi":79,"time":380.82421874999636,"velocity":0.7401574803149606,"duration":0.21614583333331439},{"name":"F5","midi":77,"time":381.0442708333297,"velocity":0.7401574803149606,"duration":0.21614583333331439},{"name":"E3","midi":52,"time":381.0442708333297,"velocity":0.7401574803149606,"duration":0.43619791666662877},{"name":"G5","midi":79,"time":381.264322916663,"velocity":0.7401574803149606,"duration":0.10677083333331439},{"name":"E5","midi":76,"time":381.373697916663,"velocity":0.7401574803149606,"duration":0.10677083333331439},{"name":"E5","midi":76,"time":381.483072916663,"velocity":0.7401574803149606,"duration":0.21614583333331439},{"name":"D3","midi":50,"time":381.483072916663,"velocity":0.7401574803149606,"duration":0.4361979166666856},{"name":"F5","midi":77,"time":381.666666666663,"velocity":0.7401574803149606,"duration":0.10807291666662877},{"name":"E5","midi":76,"time":381.7513020833296,"velocity":0.7401574803149606,"duration":0.10677083333337123},{"name":"F5","midi":77,"time":381.8359374999963,"velocity":0.7401574803149606,"duration":0.3229166666666856},{"name":"C#3","midi":49,"time":381.9231770833297,"velocity":0.7401574803149606,"duration":0.43619791666662877},{"name":"E5","midi":76,"time":382.143229166663,"velocity":0.7401574803149606,"duration":0.21614583333331439},{"name":"D5","midi":74,"time":382.3632812499963,"velocity":0.7401574803149606,"duration":0.21614583333331439},{"name":"D3","midi":50,"time":382.3632812499963,"velocity":0.7401574803149606,"duration":0.43619791666662877},{"name":"C5","midi":72,"time":382.5833333333296,"velocity":0.7401574803149606,"duration":0.21614583333331439},{"name":"B4","midi":71,"time":382.80338541666293,"velocity":0.7401574803149606,"duration":0.21614583333331439},{"name":"E3","midi":52,"time":382.80338541666293,"velocity":0.7401574803149606,"duration":0.43619791666662877},{"name":"A4","midi":69,"time":383.02343749999625,"velocity":0.7401574803149606,"duration":0.21614583333331439},{"name":"G#4","midi":68,"time":383.24348958332956,"velocity":0.7401574803149606,"duration":0.21614583333331439},{"name":"F3","midi":53,"time":383.24348958332956,"velocity":0.7401574803149606,"duration":0.43619791666662877},{"name":"A4","midi":69,"time":383.4635416666629,"velocity":0.7401574803149606,"duration":0.21614583333331439},{"name":"B4","midi":71,"time":383.6835937499962,"velocity":0.7401574803149606,"duration":0.21614583333331439},{"name":"D3","midi":50,"time":383.6835937499962,"velocity":0.7401574803149606,"duration":0.43619791666662877},{"name":"C5","midi":72,"time":383.9036458333295,"velocity":0.7401574803149606,"duration":0.21614583333331439},{"name":"D5","midi":74,"time":384.1236979166628,"velocity":0.7401574803149606,"duration":0.21614583333331439},{"name":"B2","midi":47,"time":384.1236979166628,"velocity":0.7401574803149606,"duration":0.43619791666662877},{"name":"F5","midi":77,"time":384.3424479166628,"velocity":0.7401574803149606,"duration":0.21614583333331439},{"name":"E5","midi":76,"time":384.56249999999613,"velocity":0.7401574803149606,"duration":0.21614583333331439},{"name":"G#2","midi":44,"time":384.56249999999613,"velocity":0.7401574803149606,"duration":0.43619791666662877},{"name":"D5","midi":74,"time":384.78255208332945,"velocity":0.7401574803149606,"duration":0.21614583333331439},{"name":"C5","midi":72,"time":385.00260416666276,"velocity":0.7401574803149606,"duration":0.21614583333331439},{"name":"A2","midi":45,"time":385.00260416666276,"velocity":0.7401574803149606,"duration":0.43619791666662877},{"name":"G#4","midi":68,"time":385.2226562499961,"velocity":0.7401574803149606,"duration":0.21614583333331439},{"name":"A4","midi":69,"time":385.4427083333294,"velocity":0.7401574803149606,"duration":0.21614583333331439},{"name":"C3","midi":48,"time":385.4427083333294,"velocity":0.7401574803149606,"duration":0.43619791666662877},{"name":"F#4","midi":66,"time":385.6627604166627,"velocity":0.7401574803149606,"duration":0.21614583333331439},{"name":"D#4","midi":63,"time":385.882812499996,"velocity":0.7401574803149606,"duration":0.21614583333331439},{"name":"F#2","midi":42,"time":385.882812499996,"velocity":0.7401574803149606,"duration":0.43619791666662877},{"name":"C5","midi":72,"time":386.10286458332934,"velocity":0.7401574803149606,"duration":0.21614583333331439},{"name":"B4","midi":71,"time":386.32291666666265,"velocity":0.7401574803149606,"duration":0.21614583333337123},{"name":"B2","midi":47,"time":386.32291666666265,"velocity":0.7401574803149606,"duration":0.43489583333337123},{"name":"C5","midi":72,"time":386.49739583332934,"velocity":0.7401574803149606,"duration":0.12369791666668561},{"name":"A4","midi":69,"time":386.628906249996,"velocity":0.7401574803149606,"duration":0.125},{"name":"A4","midi":69,"time":386.761718749996,"velocity":0.7401574803149606,"duration":0.33203125},{"name":"E2","midi":40,"time":386.761718749996,"velocity":0.7401574803149606,"duration":0.21614583333331439},{"name":"B2","midi":47,"time":386.980468749996,"velocity":0.7401574803149606,"duration":0.21744791666668561},{"name":"G#4","midi":68,"time":387.09114583332934,"velocity":0.7401574803149606,"duration":0.10807291666668561},{"name":"A4","midi":69,"time":387.1744791666627,"velocity":0.7401574803149606,"duration":0.10807291666662877},{"name":"C3","midi":48,"time":387.2018229166627,"velocity":0.7401574803149606,"duration":0.21744791666668561},{"name":"G#4","midi":68,"time":387.257812499996,"velocity":0.7401574803149606,"duration":0.10807291666668561},{"name":"A4","midi":69,"time":387.339843749996,"velocity":0.7401574803149606,"duration":0.10807291666668561},{"name":"G#4","midi":68,"time":387.4231770833294,"velocity":0.7401574803149606,"duration":0.6562499999999432},{"name":"D3","midi":50,"time":387.4231770833294,"velocity":0.7401574803149606,"duration":0.21614583333331439},{"name":"E3","midi":52,"time":387.6432291666627,"velocity":0.7401574803149606,"duration":0.21614583333331439},{"name":"D#3","midi":51,"time":387.863281249996,"velocity":0.7401574803149606,"duration":0.21614583333331439},{"name":"F#4","midi":66,"time":388.08333333332934,"velocity":0.7401574803149606,"duration":0.43619791666662877},{"name":"E3","midi":52,"time":388.08333333332934,"velocity":0.7401574803149606,"duration":0.21614583333331439},{"name":"F#3","midi":54,"time":388.30338541666265,"velocity":0.7401574803149606,"duration":0.21614583333331439},{"name":"E4","midi":64,"time":388.52343749999596,"velocity":0.7401574803149606,"duration":0.43619791666662877},{"name":"G#3","midi":56,"time":388.52343749999596,"velocity":0.7401574803149606,"duration":0.21614583333331439},{"name":"E3","midi":52,"time":388.7434895833293,"velocity":0.7401574803149606,"duration":0.21614583333331439},{"name":"F#4","midi":66,"time":388.9635416666626,"velocity":0.7401574803149606,"duration":0.43619791666662877},{"name":"B3","midi":59,"time":388.9635416666626,"velocity":0.7401574803149606,"duration":0.21614583333331439},{"name":"D3","midi":50,"time":389.1835937499959,"velocity":0.7401574803149606,"duration":0.21614583333331439},{"name":"G4","midi":67,"time":389.4036458333292,"velocity":0.7401574803149606,"duration":0.65625},{"name":"C#3","midi":49,"time":389.4036458333292,"velocity":0.7401574803149606,"duration":0.21614583333331439},{"name":"E3","midi":52,"time":389.62369791666254,"velocity":0.7401574803149606,"duration":0.21614583333331439},{"name":"A2","midi":45,"time":389.84244791666254,"velocity":0.7401574803149606,"duration":0.7786458333333144},{"name":"F#4","midi":66,"time":390.0624999999959,"velocity":0.7401574803149606,"duration":0.21614583333331439},{"name":"E4","midi":64,"time":390.2825520833292,"velocity":0.7401574803149606,"duration":0.21614583333331439},{"name":"F#4","midi":66,"time":390.50260416666254,"velocity":0.7401574803149606,"duration":0.21614583333331439},{"name":"G4","midi":67,"time":390.72265624999585,"velocity":0.7401574803149606,"duration":0.21614583333331439},{"name":"A3","midi":57,"time":390.72265624999585,"velocity":0.7401574803149606,"duration":0.43619791666662877},{"name":"B4","midi":71,"time":390.94270833332916,"velocity":0.7401574803149606,"duration":0.21614583333331439},{"name":"A4","midi":69,"time":391.1627604166625,"velocity":0.7401574803149606,"duration":0.21614583333331439},{"name":"B3","midi":59,"time":391.1627604166625,"velocity":0.7401574803149606,"duration":0.43619791666662877},{"name":"G4","midi":67,"time":391.3828124999958,"velocity":0.7401574803149606,"duration":0.21614583333331439},{"name":"F#4","midi":66,"time":391.6028645833291,"velocity":0.7401574803149606,"duration":0.21614583333337123},{"name":"C#4","midi":61,"time":391.6028645833291,"velocity":0.7401574803149606,"duration":0.43489583333337123},{"name":"G4","midi":67,"time":391.7773437499958,"velocity":0.7401574803149606,"duration":0.12369791666668561},{"name":"E4","midi":64,"time":391.9088541666625,"velocity":0.7401574803149606,"duration":0.125},{"name":"F#4","midi":66,"time":392.0416666666625,"velocity":0.7401574803149606,"duration":0.21614583333331439},{"name":"D4","midi":62,"time":392.0416666666625,"velocity":0.7401574803149606,"duration":0.43619791666662877},{"name":"A4","midi":69,"time":392.2617187499958,"velocity":0.7401574803149606,"duration":0.21614583333331439},{"name":"B4","midi":71,"time":392.4804687499958,"velocity":0.7401574803149606,"duration":0.21614583333331439},{"name":"C4","midi":60,"time":392.4804687499958,"velocity":0.7401574803149606,"duration":0.43619791666662877},{"name":"C5","midi":72,"time":392.7005208333291,"velocity":0.7401574803149606,"duration":0.21614583333331439},{"name":"D5","midi":74,"time":392.9205729166624,"velocity":0.7401574803149606,"duration":0.21614583333331439},{"name":"B3","midi":59,"time":392.9205729166624,"velocity":0.7401574803149606,"duration":0.43619791666662877},{"name":"E5","midi":76,"time":393.14062499999574,"velocity":0.7401574803149606,"duration":0.21614583333331439},{"name":"F5","midi":77,"time":393.36067708332905,"velocity":0.7401574803149606,"duration":0.6406249999999432},{"name":"D4","midi":62,"time":393.36067708332905,"velocity":0.7401574803149606,"duration":0.43619791666662877},{"name":"A4","midi":69,"time":393.58072916666237,"velocity":0.7401574803149606,"duration":0.21614583333331439},{"name":"G#4","midi":68,"time":393.8007812499957,"velocity":0.7401574803149606,"duration":0.43359375},{"name":"E4","midi":64,"time":393.8007812499957,"velocity":0.7401574803149606,"duration":0.4361979166666856},{"name":"F5","midi":77,"time":394.020833333329,"velocity":0.7401574803149606,"duration":0.21614583333337123},{"name":"E5","midi":76,"time":394.24088541666237,"velocity":0.7401574803149606,"duration":0.21614583333331439},{"name":"D4","midi":62,"time":394.24088541666237,"velocity":0.7401574803149606,"duration":0.43619791666662877},{"name":"D5","midi":74,"time":394.4609374999957,"velocity":0.7401574803149606,"duration":0.21614583333331439},{"name":"E5","midi":76,"time":394.680989583329,"velocity":0.7401574803149606,"duration":1.1119791666666856},{"name":"C4","midi":60,"time":394.680989583329,"velocity":0.7401574803149606,"duration":0.44140625},{"name":"B4","midi":71,"time":394.903645833329,"velocity":0.7401574803149606,"duration":0.21875},{"name":"C5","midi":72,"time":395.126302083329,"velocity":0.7401574803149606,"duration":0.21875},{"name":"A3","midi":57,"time":395.126302083329,"velocity":0.7401574803149606,"duration":0.21875},{"name":"G#4","midi":68,"time":395.348958333329,"velocity":0.7401574803149606,"duration":0.21875},{"name":"B3","midi":59,"time":395.348958333329,"velocity":0.7401574803149606,"duration":0.21875},{"name":"A4","midi":69,"time":395.571614583329,"velocity":0.7401574803149606,"duration":0.8958333333333144},{"name":"C4","midi":60,"time":395.571614583329,"velocity":0.7401574803149606,"duration":0.44140625},{"name":"F5","midi":77,"time":395.794270833329,"velocity":0.7401574803149606,"duration":0.21875},{"name":"E5","midi":76,"time":396.016927083329,"velocity":0.7401574803149606,"duration":0.22786458333331439},{"name":"D4","midi":62,"time":396.016927083329,"velocity":0.7401574803149606,"duration":0.45703125},{"name":"D5","midi":74,"time":396.247395833329,"velocity":0.7401574803149606,"duration":0.2265625},{"name":"D5","midi":74,"time":396.4765624999957,"velocity":0.7401574803149606,"duration":0.11197916666668561},{"name":"E4","midi":64,"time":396.4765624999957,"velocity":0.7401574803149606,"duration":0.4583333333334281},{"name":"C5","midi":72,"time":396.59114583332905,"velocity":0.7401574803149606,"duration":0.11197916666668561},{"name":"D5","midi":74,"time":396.70703124999574,"velocity":0.7401574803149606,"duration":0.11197916666668561},{"name":"C5","midi":72,"time":396.8229166666624,"velocity":0.7401574803149606,"duration":0.11197916666668561},{"name":"B4","midi":71,"time":396.9374999999958,"velocity":0.7401574803149606,"duration":0.22786458333331439},{"name":"E3","midi":52,"time":396.9374999999958,"velocity":0.7401574803149606,"duration":0.4583333333333144},{"name":"A4","midi":69,"time":397.1679687499958,"velocity":0.7401574803149606,"duration":0.22786458333331439},{"name":"A4","midi":69,"time":397.3984374999958,"velocity":0.7401574803149606,"duration":3.109374999999943},{"name":"A3","midi":57,"time":397.3984374999958,"velocity":0.7401574803149606,"duration":0.9778645833333712},{"name":"E4","midi":64,"time":397.6445312499958,"velocity":0.7401574803149606,"duration":0.2421875},{"name":"C4","midi":60,"time":397.8893229166625,"velocity":0.7401574803149606,"duration":0.2421875},{"name":"E4","midi":64,"time":398.1354166666625,"velocity":0.7401574803149606,"duration":0.2421875},{"name":"A3","midi":57,"time":398.38020833332916,"velocity":0.7401574803149606,"duration":1.432291666666572},{"name":"E3","midi":52,"time":398.6471354166625,"velocity":0.7401574803149606,"duration":0.2630208333333144},{"name":"C3","midi":48,"time":398.9140624999958,"velocity":0.7401574803149606,"duration":0.2630208333333144},{"name":"E3","midi":52,"time":399.2083333333291,"velocity":0.7401574803149606,"duration":0.3997395833333144},{"name":"A2","midi":45,"time":399.6067708333291,"velocity":0.7401574803149606,"duration":2.464843749999943},{"name":"A2","midi":45,"time":402.21484374999574,"velocity":0.7401574803149606,"duration":0.26041666666662877},{"name":"E5","midi":76,"time":402.21484374999574,"velocity":0.7401574803149606,"duration":0.06380208333331439},{"name":"D5","midi":74,"time":402.29427083332905,"velocity":0.7401574803149606,"duration":0.06380208333331439},{"name":"E5","midi":76,"time":402.37239583332905,"velocity":0.7401574803149606,"duration":1.2369791666666856},{"name":"C3","midi":48,"time":402.47786458332905,"velocity":0.7401574803149606,"duration":0.26171875},{"name":"E3","midi":52,"time":402.74218749999574,"velocity":0.7401574803149606,"duration":0.26171875},{"name":"A3","midi":57,"time":403.00520833332905,"velocity":0.7401574803149606,"duration":0.26171875},{"name":"E3","midi":52,"time":403.26953124999574,"velocity":0.7401574803149606,"duration":0.26171875},{"name":"C3","midi":48,"time":403.5338541666624,"velocity":0.7401574803149606,"duration":0.26171875},{"name":"B2","midi":47,"time":403.7981770833291,"velocity":0.7401574803149606,"duration":0.26302083333337123},{"name":"F5","midi":77,"time":403.7981770833291,"velocity":0.7401574803149606,"duration":0.13020833333331439},{"name":"E5","midi":76,"time":403.9010416666624,"velocity":0.7401574803149606,"duration":0.13020833333337123},{"name":"D5","midi":74,"time":404.0052083333291,"velocity":0.7401574803149606,"duration":0.13151041666674246},{"name":"D3","midi":50,"time":404.06380208332916,"velocity":0.7401574803149606,"duration":0.26302083333337123},{"name":"E5","midi":76,"time":404.10937499999585,"velocity":0.7401574803149606,"duration":1.1875000000001137},{"name":"E3","midi":52,"time":404.3294270833292,"velocity":0.7401574803149606,"duration":0.26171875},{"name":"G#3","midi":56,"time":404.5937499999959,"velocity":0.7401574803149606,"duration":0.26171875},{"name":"E3","midi":52,"time":404.8580729166626,"velocity":0.7401574803149606,"duration":0.26171875},{"name":"D3","midi":50,"time":405.1223958333293,"velocity":0.7401574803149606,"duration":0.26171875},{"name":"C3","midi":48,"time":405.38671874999596,"velocity":0.7401574803149606,"duration":1.0520833333332575},{"name":"E4","midi":64,"time":405.38671874999596,"velocity":0.7401574803149606,"duration":0.17317708333331439},{"name":"F#4","midi":66,"time":405.56249999999596,"velocity":0.7401574803149606,"duration":0.17317708333331439},{"name":"G#4","midi":68,"time":405.73828124999596,"velocity":0.7401574803149606,"duration":0.17317708333331439},{"name":"E3","midi":52,"time":405.9127604166626,"velocity":0.7401574803149606,"duration":0.5247395833333144},{"name":"A4","midi":69,"time":405.9127604166626,"velocity":0.7401574803149606,"duration":0.17317708333331439},{"name":"B4","midi":71,"time":406.0885416666626,"velocity":0.7401574803149606,"duration":0.17317708333331439},{"name":"C5","midi":72,"time":406.2643229166626,"velocity":0.7401574803149606,"duration":0.17317708333331439},{"name":"B2","midi":47,"time":406.44010416666254,"velocity":0.7401574803149606,"duration":0.5247395833333144},{"name":"G#3","midi":56,"time":406.44010416666254,"velocity":0.7401574803149606,"duration":0.5247395833333144},{"name":"D5","midi":74,"time":406.44010416666254,"velocity":0.7401574803149606,"duration":0.17317708333331439},{"name":"C5","midi":72,"time":406.61588541666254,"velocity":0.7401574803149606,"duration":0.17317708333331439},{"name":"B4","midi":71,"time":406.79166666666254,"velocity":0.7401574803149606,"duration":0.17317708333331439},{"name":"A2","midi":45,"time":406.96744791666254,"velocity":0.7401574803149606,"duration":0.17317708333331439},{"name":"A3","midi":57,"time":406.96744791666254,"velocity":0.7401574803149606,"duration":0.17317708333331439},{"name":"B4","midi":71,"time":406.96744791666254,"velocity":0.7401574803149606,"duration":0.17317708333331439},{"name":"B2","midi":47,"time":407.14322916666254,"velocity":0.7401574803149606,"duration":0.171875},{"name":"C5","midi":72,"time":407.14322916666254,"velocity":0.7401574803149606,"duration":0.08463541666668561},{"name":"B4","midi":71,"time":407.21744791666254,"velocity":0.7401574803149606,"duration":0.08463541666668561},{"name":"C5","midi":72,"time":407.2903645833292,"velocity":0.7401574803149606,"duration":0.7005208333333144},{"name":"C3","midi":48,"time":407.3177083333292,"velocity":0.7401574803149606,"duration":0.17317708333331439},{"name":"D3","midi":50,"time":407.4934895833292,"velocity":0.7401574803149606,"duration":0.17317708333331439},{"name":"E3","midi":52,"time":407.6692708333292,"velocity":0.7401574803149606,"duration":0.17317708333331439},{"name":"F3","midi":53,"time":407.8450520833292,"velocity":0.7401574803149606,"duration":0.17447916666662877},{"name":"G3","midi":55,"time":408.02213541666254,"velocity":0.7401574803149606,"duration":0.17317708333331439},{"name":"B4","midi":71,"time":408.02213541666254,"velocity":0.7401574803149606,"duration":0.4661458333333144},{"name":"F3","midi":53,"time":408.19791666666254,"velocity":0.7401574803149606,"duration":0.17317708333331439},{"name":"E3","midi":52,"time":408.37369791666254,"velocity":0.7401574803149606,"duration":0.17317708333331439},{"name":"F3","midi":53,"time":408.54817708332916,"velocity":0.7401574803149606,"duration":1.0520833333333144},{"name":"A4","midi":69,"time":408.54817708332916,"velocity":0.7401574803149606,"duration":0.17317708333331439},{"name":"B4","midi":71,"time":408.72395833332916,"velocity":0.7401574803149606,"duration":0.17317708333331439},{"name":"C#5","midi":73,"time":408.89973958332916,"velocity":0.7401574803149606,"duration":0.17317708333331439},{"name":"A3","midi":57,"time":409.07552083332916,"velocity":0.7401574803149606,"duration":0.5247395833333144},{"name":"D5","midi":74,"time":409.07552083332916,"velocity":0.7401574803149606,"duration":0.17317708333331439},{"name":"E5","midi":76,"time":409.25130208332916,"velocity":0.7401574803149606,"duration":0.17317708333331439},{"name":"F5","midi":77,"time":409.42708333332916,"velocity":0.7401574803149606,"duration":0.17317708333331439},{"name":"E3","midi":52,"time":409.60286458332916,"velocity":0.7401574803149606,"duration":0.5247395833333144},{"name":"C#4","midi":61,"time":409.60286458332916,"velocity":0.7401574803149606,"duration":0.5247395833333144},{"name":"G5","midi":79,"time":409.60286458332916,"velocity":0.7401574803149606,"duration":0.17317708333331439},{"name":"F5","midi":77,"time":409.77864583332916,"velocity":0.7401574803149606,"duration":0.17317708333331439},{"name":"E5","midi":76,"time":409.95442708332916,"velocity":0.7401574803149606,"duration":0.17317708333331439},{"name":"D3","midi":50,"time":410.13020833332916,"velocity":0.7401574803149606,"duration":0.17317708333337123},{"name":"D4","midi":62,"time":410.13020833332916,"velocity":0.7401574803149606,"duration":0.17317708333337123},{"name":"F5","midi":77,"time":410.13020833332916,"velocity":0.7401574803149606,"duration":0.0859375},{"name":"E5","midi":76,"time":410.21093749999585,"velocity":0.7401574803149606,"duration":0.08463541666668561},{"name":"F5","midi":77,"time":410.28906249999585,"velocity":0.7401574803149606,"duration":0.8763020833333144},{"name":"E3","midi":52,"time":410.3059895833292,"velocity":0.7401574803149606,"duration":0.17317708333331439},{"name":"F3","midi":53,"time":410.4817708333292,"velocity":0.7401574803149606,"duration":0.17317708333331439},{"name":"G3","midi":55,"time":410.6575520833292,"velocity":0.7401574803149606,"duration":0.17317708333331439},{"name":"A3","midi":57,"time":410.8333333333292,"velocity":0.7401574803149606,"duration":0.17317708333331439},{"name":"B3","midi":59,"time":411.00781249999585,"velocity":0.7401574803149606,"duration":0.17317708333331439},{"name":"C4","midi":60,"time":411.18359374999585,"velocity":0.7401574803149606,"duration":0.17317708333331439},{"name":"E5","midi":76,"time":411.18359374999585,"velocity":0.7401574803149606,"duration":1.0533854166666856},{"name":"B3","midi":59,"time":411.35937499999585,"velocity":0.7401574803149606,"duration":0.17317708333331439},{"name":"A3","midi":57,"time":411.53515624999585,"velocity":0.7401574803149606,"duration":0.17317708333331439},{"name":"F4","midi":65,"time":411.71093749999585,"velocity":0.7401574803149606,"duration":0.5260416666666856},{"name":"F3","midi":53,"time":412.2395833333292,"velocity":0.7401574803149606,"duration":0.5260416666666856},{"name":"D5","midi":74,"time":412.2395833333292,"velocity":0.7401574803149606,"duration":0.26171875},{"name":"C5","midi":72,"time":412.5039062499959,"velocity":0.7401574803149606,"duration":0.26171875},{"name":"F4","midi":65,"time":412.7682291666626,"velocity":0.7401574803149606,"duration":0.5260416666666856},{"name":"B4","midi":71,"time":412.7682291666626,"velocity":0.7401574803149606,"duration":0.26171875},{"name":"A4","midi":69,"time":413.0325520833293,"velocity":0.7401574803149606,"duration":0.26171875},{"name":"E4","midi":64,"time":413.29687499999596,"velocity":0.7401574803149606,"duration":0.5247395833334281},{"name":"A4","midi":69,"time":413.29687499999596,"velocity":0.7401574803149606,"duration":0.26171875},{"name":"G#4","midi":68,"time":413.56119791666265,"velocity":0.7401574803149606,"duration":0.08463541666668561},{"name":"A4","midi":69,"time":413.62630208332934,"velocity":0.7401574803149606,"duration":0.08463541666668561},{"name":"G#4","midi":68,"time":413.691406249996,"velocity":0.7401574803149606,"duration":0.08463541666668561},{"name":"A4","midi":69,"time":413.757812499996,"velocity":0.7401574803149606,"duration":0.08463541666668561},{"name":"B3","midi":59,"time":413.8229166666627,"velocity":0.7401574803149606,"duration":0.26171875},{"name":"G#4","midi":68,"time":413.8229166666627,"velocity":0.7401574803149606,"duration":0.9661458333333712},{"name":"A3","midi":57,"time":414.0872395833294,"velocity":0.7401574803149606,"duration":0.26171875},{"name":"G#3","midi":56,"time":414.3515624999961,"velocity":0.7401574803149606,"duration":0.26171875},{"name":"F#3","midi":54,"time":414.61588541666276,"velocity":0.7401574803149606,"duration":0.26171875},{"name":"E3","midi":52,"time":414.88020833332945,"velocity":0.7401574803149606,"duration":0.0859375},{"name":"B4","midi":71,"time":414.88020833332945,"velocity":0.7401574803149606,"duration":0.26302083333337123},{"name":"D3","midi":50,"time":414.96874999999613,"velocity":0.7401574803149606,"duration":0.0859375},{"name":"E3","midi":52,"time":415.0572916666628,"velocity":0.7401574803149606,"duration":1.407552083333428},{"name":"G#4","midi":68,"time":415.1458333333295,"velocity":0.7401574803149606,"duration":0.26171875},{"name":"E4","midi":64,"time":415.4101562499962,"velocity":0.7401574803149606,"duration":0.26171875},{"name":"G#4","midi":68,"time":415.6744791666629,"velocity":0.7401574803149606,"duration":0.26171875},{"name":"B4","midi":71,"time":415.93880208332956,"velocity":0.7401574803149606,"duration":0.26171875},{"name":"D5","midi":74,"time":416.20312499999625,"velocity":0.7401574803149606,"duration":0.26171875},{"name":"E3","midi":52,"time":416.46744791666293,"velocity":0.7401574803149606,"duration":0.0859375},{"name":"C5","midi":72,"time":416.46744791666293,"velocity":0.7401574803149606,"duration":0.2630208333333144},{"name":"D3","midi":50,"time":416.55729166666293,"velocity":0.7401574803149606,"duration":0.0859375},{"name":"E3","midi":52,"time":416.64713541666293,"velocity":0.7401574803149606,"duration":1.4075520833333712},{"name":"A4","midi":69,"time":416.73307291666293,"velocity":0.7401574803149606,"duration":0.26171875},{"name":"E4","midi":64,"time":416.99609374999625,"velocity":0.7401574803149606,"duration":0.26171875},{"name":"A4","midi":69,"time":417.26041666666293,"velocity":0.7401574803149606,"duration":0.26171875},{"name":"C5","midi":72,"time":417.5247395833296,"velocity":0.7401574803149606,"duration":0.26171875},{"name":"E5","midi":76,"time":417.7890624999963,"velocity":0.7401574803149606,"duration":0.26171875},{"name":"E2","midi":40,"time":418.053385416663,"velocity":0.7401574803149606,"duration":0.17317708333331439},{"name":"B4","midi":71,"time":418.053385416663,"velocity":0.7401574803149606,"duration":0.5247395833333144},{"name":"G#4","midi":68,"time":418.053385416663,"velocity":0.7401574803149606,"duration":0.5247395833333144},{"name":"D5","midi":74,"time":418.053385416663,"velocity":0.7401574803149606,"duration":0.5247395833333144},{"name":"F#2","midi":42,"time":418.229166666663,"velocity":0.7401574803149606,"duration":0.17317708333331439},{"name":"G#2","midi":44,"time":418.404947916663,"velocity":0.7401574803149606,"duration":0.17317708333331439},{"name":"A2","midi":45,"time":418.580729166663,"velocity":0.7401574803149606,"duration":0.17317708333331439},{"name":"E4","midi":64,"time":418.580729166663,"velocity":0.7401574803149606,"duration":0.5247395833333144},{"name":"C5","midi":72,"time":418.580729166663,"velocity":0.7401574803149606,"duration":0.5247395833333144},{"name":"A4","midi":69,"time":418.580729166663,"velocity":0.7401574803149606,"duration":0.5247395833333144},{"name":"B2","midi":47,"time":418.756510416663,"velocity":0.7401574803149606,"duration":0.17317708333331439},{"name":"C3","midi":48,"time":418.932291666663,"velocity":0.7401574803149606,"duration":0.17317708333331439},{"name":"D3","midi":50,"time":419.108072916663,"velocity":0.7401574803149606,"duration":0.17317708333331439},{"name":"E4","midi":64,"time":419.108072916663,"velocity":0.7401574803149606,"duration":0.5247395833332575},{"name":"B4","midi":71,"time":419.108072916663,"velocity":0.7401574803149606,"duration":0.5247395833332575},{"name":"G#4","midi":68,"time":419.108072916663,"velocity":0.7401574803149606,"duration":0.5247395833332575},{"name":"C3","midi":48,"time":419.283854166663,"velocity":0.7401574803149606,"duration":0.17317708333331439},{"name":"B2","midi":47,"time":419.4583333333296,"velocity":0.7401574803149606,"duration":0.17317708333331439},{"name":"B2","midi":47,"time":419.63411458332956,"velocity":0.7401574803149606,"duration":0.5260416666666856},{"name":"G#4","midi":68,"time":419.63411458332956,"velocity":0.7401574803149606,"duration":0.5260416666666856},{"name":"E4","midi":64,"time":419.63411458332956,"velocity":0.7401574803149606,"duration":0.5260416666666856},{"name":"E5","midi":76,"time":419.63411458332956,"velocity":0.7401574803149606,"duration":0.5260416666666856},{"name":"B4","midi":71,"time":419.63411458332956,"velocity":0.7401574803149606,"duration":0.5260416666666856},{"name":"C3","midi":48,"time":420.16276041666293,"velocity":0.7401574803149606,"duration":0.0859375},{"name":"A4","midi":69,"time":420.16276041666293,"velocity":0.7401574803149606,"duration":0.26302083333337123},{"name":"B2","midi":47,"time":420.2513020833296,"velocity":0.7401574803149606,"duration":0.0859375},{"name":"C3","midi":48,"time":420.3398437499963,"velocity":0.7401574803149606,"duration":0.3502604166666856},{"name":"G#4","midi":68,"time":420.428385416663,"velocity":0.7401574803149606,"duration":0.26171875},{"name":"B2","midi":47,"time":420.6927083333297,"velocity":0.7401574803149606,"duration":0.5260416666666856},{"name":"A4","midi":69,"time":420.6927083333297,"velocity":0.7401574803149606,"duration":0.26171875},{"name":"B4","midi":71,"time":420.95703124999636,"velocity":0.7401574803149606,"duration":0.26171875},{"name":"A2","midi":45,"time":421.22135416666305,"velocity":0.7401574803149606,"duration":1.5781249999999432},{"name":"C5","midi":72,"time":421.22135416666305,"velocity":0.7401574803149606,"duration":0.17317708333331439},{"name":"B4","midi":71,"time":421.39713541666305,"velocity":0.7401574803149606,"duration":0.17317708333331439},{"name":"A4","midi":69,"time":421.57291666666305,"velocity":0.7401574803149606,"duration":0.17317708333331439},{"name":"E3","midi":52,"time":421.74869791666305,"velocity":0.7401574803149606,"duration":0.5247395833333144},{"name":"G4","midi":67,"time":421.74869791666305,"velocity":0.7401574803149606,"duration":0.17317708333331439},{"name":"F4","midi":65,"time":421.92447916666305,"velocity":0.7401574803149606,"duration":0.17317708333331439},{"name":"E4","midi":64,"time":422.10026041666305,"velocity":0.7401574803149606,"duration":0.17317708333331439},{"name":"F3","midi":53,"time":422.2747395833297,"velocity":0.7401574803149606,"duration":1.0520833333333144},{"name":"D4","midi":62,"time":422.2747395833297,"velocity":0.7401574803149606,"duration":0.17317708333331439},{"name":"E4","midi":64,"time":422.4505208333297,"velocity":0.7401574803149606,"duration":0.17317708333331439},{"name":"F4","midi":65,"time":422.6263020833297,"velocity":0.7401574803149606,"duration":0.17317708333331439},{"name":"B2","midi":47,"time":422.8020833333297,"velocity":0.7401574803149606,"duration":1.578125},{"name":"G4","midi":67,"time":422.8020833333297,"velocity":0.7401574803149606,"duration":0.17317708333331439},{"name":"A4","midi":69,"time":422.9778645833297,"velocity":0.7401574803149606,"duration":0.17317708333331439},{"name":"B4","midi":71,"time":423.1536458333297,"velocity":0.7401574803149606,"duration":0.17317708333331439},{"name":"E3","midi":52,"time":423.3294270833297,"velocity":0.7401574803149606,"duration":0.5247395833333144},{"name":"C5","midi":72,"time":423.3294270833297,"velocity":0.7401574803149606,"duration":0.17317708333331439},{"name":"D5","midi":74,"time":423.5052083333297,"velocity":0.7401574803149606,"duration":0.17317708333331439},{"name":"E5","midi":76,"time":423.6809895833297,"velocity":0.7401574803149606,"duration":0.17317708333331439},{"name":"D3","midi":50,"time":423.8567708333297,"velocity":0.7401574803149606,"duration":0.5247395833333144},{"name":"F5","midi":77,"time":423.8567708333297,"velocity":0.7401574803149606,"duration":0.17317708333331439},{"name":"E5","midi":76,"time":424.0325520833297,"velocity":0.7401574803149606,"duration":0.17317708333331439},{"name":"D5","midi":74,"time":424.2083333333297,"velocity":0.7401574803149606,"duration":0.17317708333331439},{"name":"E3","midi":52,"time":424.3841145833297,"velocity":0.7401574803149606,"duration":0.26171875},{"name":"G5","midi":79,"time":424.3841145833297,"velocity":0.7401574803149606,"duration":0.5260416666666856},{"name":"E2","midi":40,"time":424.64843749999636,"velocity":0.7401574803149606,"duration":0.26171875},{"name":"F2","midi":41,"time":424.9114583333297,"velocity":0.7401574803149606,"duration":0.26171875},{"name":"C5","midi":72,"time":424.9114583333297,"velocity":0.7401574803149606,"duration":0.5260416666666856},{"name":"E4","midi":64,"time":424.9114583333297,"velocity":0.7401574803149606,"duration":0.5260416666666856},{"name":"F3","midi":53,"time":425.17578124999636,"velocity":0.7401574803149606,"duration":0.26171875},{"name":"G2","midi":43,"time":425.44010416666305,"velocity":0.7401574803149606,"duration":0.26171875},{"name":"D4","midi":62,"time":425.44010416666305,"velocity":0.7401574803149606,"duration":0.5260416666666856},{"name":"B4","midi":71,"time":425.44010416666305,"velocity":0.7401574803149606,"duration":0.5260416666666856},{"name":"G3","midi":55,"time":425.70442708332973,"velocity":0.7401574803149606,"duration":0.26171875},{"name":"C3","midi":48,"time":425.9687499999964,"velocity":0.7401574803149606,"duration":0.17317708333331439},{"name":"D4","midi":62,"time":425.9687499999964,"velocity":0.7401574803149606,"duration":0.5247395833333144},{"name":"B4","midi":71,"time":425.9687499999964,"velocity":0.7401574803149606,"duration":0.5247395833333144},{"name":"C4","midi":60,"time":426.1445312499964,"velocity":0.7401574803149606,"duration":0.17317708333331439},{"name":"B3","midi":59,"time":426.3203124999964,"velocity":0.7401574803149606,"duration":0.17317708333331439},{"name":"A3","midi":57,"time":426.4960937499964,"velocity":0.7401574803149606,"duration":0.17317708333331439},{"name":"C5","midi":72,"time":426.4960937499964,"velocity":0.7401574803149606,"duration":1.0520833333333144},{"name":"E4","midi":64,"time":426.4960937499964,"velocity":0.7401574803149606,"duration":1.0520833333333144},{"name":"G3","midi":55,"time":426.6718749999964,"velocity":0.7401574803149606,"duration":0.17317708333331439},{"name":"F3","midi":53,"time":426.8476562499964,"velocity":0.7401574803149606,"duration":0.17317708333331439},{"name":"E3","midi":52,"time":427.0234374999964,"velocity":0.7401574803149606,"duration":0.17317708333331439},{"name":"F3","midi":53,"time":427.1992187499964,"velocity":0.7401574803149606,"duration":0.17317708333331439},{"name":"G3","midi":55,"time":427.3749999999964,"velocity":0.7401574803149606,"duration":0.17317708333331439},{"name":"C3","midi":48,"time":427.54947916666305,"velocity":0.7401574803149606,"duration":0.17187499999994316},{"name":"G5","midi":79,"time":427.54947916666305,"velocity":0.7401574803149606,"duration":0.06380208333331439},{"name":"F5","midi":77,"time":427.62890624999636,"velocity":0.7401574803149606,"duration":0.06380208333331439},{"name":"G5","midi":79,"time":427.7083333333297,"velocity":0.7401574803149606,"duration":1.3723958333333144},{"name":"G3","midi":55,"time":427.7239583333297,"velocity":0.7401574803149606,"duration":0.17317708333331439},{"name":"F3","midi":53,"time":427.8997395833297,"velocity":0.7401574803149606,"duration":0.17317708333331439},{"name":"E3","midi":52,"time":428.0755208333297,"velocity":0.7401574803149606,"duration":0.17317708333331439},{"name":"D3","midi":50,"time":428.2513020833297,"velocity":0.7401574803149606,"duration":0.17317708333331439},{"name":"C3","midi":48,"time":428.4270833333297,"velocity":0.7401574803149606,"duration":0.17317708333331439},{"name":"B2","midi":47,"time":428.6028645833297,"velocity":0.7401574803149606,"duration":0.17317708333331439},{"name":"C#3","midi":49,"time":428.7786458333297,"velocity":0.7401574803149606,"duration":0.17317708333331439},{"name":"D3","midi":50,"time":428.9544270833297,"velocity":0.7401574803149606,"duration":0.17317708333331439},{"name":"C#3","midi":49,"time":429.1302083333297,"velocity":0.7401574803149606,"duration":0.171875},{"name":"A5","midi":81,"time":429.1302083333297,"velocity":0.7401574803149606,"duration":0.08463541666662877},{"name":"G5","midi":79,"time":429.205729166663,"velocity":0.7401574803149606,"duration":0.08463541666668561},{"name":"F5","midi":77,"time":429.279947916663,"velocity":0.7401574803149606,"duration":0.08463541666668561},{"name":"A#3","midi":58,"time":429.30468749999636,"velocity":0.7401574803149606,"duration":0.17317708333331439},{"name":"G5","midi":79,"time":429.35546874999636,"velocity":0.7401574803149606,"duration":1.3164062499999432},{"name":"A3","midi":57,"time":429.48046874999636,"velocity":0.7401574803149606,"duration":0.17317708333331439},{"name":"G3","midi":55,"time":429.65624999999636,"velocity":0.7401574803149606,"duration":0.17317708333331439},{"name":"F3","midi":53,"time":429.83203124999636,"velocity":0.7401574803149606,"duration":0.17317708333331439},{"name":"E3","midi":52,"time":430.006510416663,"velocity":0.7401574803149606,"duration":0.17317708333331439},{"name":"D3","midi":50,"time":430.182291666663,"velocity":0.7401574803149606,"duration":0.17317708333331439},{"name":"E3","midi":52,"time":430.358072916663,"velocity":0.7401574803149606,"duration":0.17317708333331439},{"name":"F3","midi":53,"time":430.533854166663,"velocity":0.7401574803149606,"duration":0.17447916666662877},{"name":"E3","midi":52,"time":430.7109374999963,"velocity":0.7401574803149606,"duration":0.17317708333331439},{"name":"A#5","midi":82,"time":430.7109374999963,"velocity":0.7401574803149606,"duration":0.17317708333331439},{"name":"F3","midi":53,"time":430.8867187499963,"velocity":0.7401574803149606,"duration":0.17317708333331439},{"name":"A5","midi":81,"time":430.8867187499963,"velocity":0.7401574803149606,"duration":0.17317708333331439},{"name":"G3","midi":55,"time":431.0624999999963,"velocity":0.7401574803149606,"duration":0.17317708333331439},{"name":"G5","midi":79,"time":431.0624999999963,"velocity":0.7401574803149606,"duration":0.17317708333331439},{"name":"A3","midi":57,"time":431.2382812499963,"velocity":0.7401574803149606,"duration":0.5247395833333144},{"name":"F5","midi":77,"time":431.2382812499963,"velocity":0.7401574803149606,"duration":0.17317708333331439},{"name":"E5","midi":76,"time":431.4140624999963,"velocity":0.7401574803149606,"duration":0.17317708333331439},{"name":"D5","midi":74,"time":431.5898437499963,"velocity":0.7401574803149606,"duration":0.17317708333331439},{"name":"A2","midi":45,"time":431.7656249999963,"velocity":0.7401574803149606,"duration":0.5247395833333144},{"name":"C#5","midi":73,"time":431.7656249999963,"velocity":0.7401574803149606,"duration":0.17317708333331439},{"name":"D5","midi":74,"time":431.9414062499963,"velocity":0.7401574803149606,"duration":0.17317708333331439},{"name":"E5","midi":76,"time":432.1171874999963,"velocity":0.7401574803149606,"duration":0.17317708333331439},{"name":"D3","midi":50,"time":432.2929687499963,"velocity":0.7401574803149606,"duration":0.17317708333331439},{"name":"E5","midi":76,"time":432.2929687499963,"velocity":0.7401574803149606,"duration":0.5247395833332575},{"name":"E3","midi":52,"time":432.46744791666293,"velocity":0.7401574803149606,"duration":0.17317708333331439},{"name":"F3","midi":53,"time":432.64322916666293,"velocity":0.7401574803149606,"duration":0.17317708333331439},{"name":"G3","midi":55,"time":432.8190104166629,"velocity":0.7401574803149606,"duration":0.17317708333337123},{"name":"F5","midi":77,"time":432.8190104166629,"velocity":0.7401574803149606,"duration":0.06510416666668561},{"name":"E5","midi":76,"time":432.8854166666629,"velocity":0.7401574803149606,"duration":0.06510416666668561},{"name":"F5","midi":77,"time":432.95052083332956,"velocity":0.7401574803149606,"duration":0.38411458333337123},{"name":"A3","midi":57,"time":432.99479166666293,"velocity":0.7401574803149606,"duration":0.17317708333331439},{"name":"B3","midi":59,"time":433.17057291666293,"velocity":0.7401574803149606,"duration":0.17317708333331439},{"name":"C4","midi":60,"time":433.34635416666293,"velocity":0.7401574803149606,"duration":0.17317708333331439},{"name":"E5","midi":76,"time":433.34635416666293,"velocity":0.7401574803149606,"duration":0.5247395833333144},{"name":"B3","midi":59,"time":433.52213541666293,"velocity":0.7401574803149606,"duration":0.17317708333331439},{"name":"A3","midi":57,"time":433.69791666666293,"velocity":0.7401574803149606,"duration":0.17317708333331439},{"name":"B3","midi":59,"time":433.87369791666293,"velocity":0.7401574803149606,"duration":0.17317708333331439},{"name":"G#4","midi":68,"time":433.87369791666293,"velocity":0.7401574803149606,"duration":0.17317708333331439},{"name":"C4","midi":60,"time":434.04947916666293,"velocity":0.7401574803149606,"duration":0.17317708333331439},{"name":"A4","midi":69,"time":434.04947916666293,"velocity":0.7401574803149606,"duration":0.17317708333331439},{"name":"D4","midi":62,"time":434.22526041666293,"velocity":0.7401574803149606,"duration":0.17317708333331439},{"name":"B4","midi":71,"time":434.22526041666293,"velocity":0.7401574803149606,"duration":0.17317708333331439},{"name":"E4","midi":64,"time":434.40104166666293,"velocity":0.7401574803149606,"duration":0.17317708333331439},{"name":"C5","midi":72,"time":434.40104166666293,"velocity":0.7401574803149606,"duration":0.17317708333331439},{"name":"F#4","midi":66,"time":434.57682291666293,"velocity":0.7401574803149606,"duration":0.17317708333331439},{"name":"D5","midi":74,"time":434.57682291666293,"velocity":0.7401574803149606,"duration":0.17317708333331439},{"name":"G#4","midi":68,"time":434.75260416666293,"velocity":0.7401574803149606,"duration":0.17317708333331439},{"name":"E5","midi":76,"time":434.75260416666293,"velocity":0.7401574803149606,"duration":0.17317708333331439},{"name":"A4","midi":69,"time":434.92838541666293,"velocity":0.7401574803149606,"duration":0.17317708333331439},{"name":"F5","midi":77,"time":434.92838541666293,"velocity":0.7401574803149606,"duration":0.17317708333331439},{"name":"G4","midi":67,"time":435.10286458332956,"velocity":0.7401574803149606,"duration":0.17317708333331439},{"name":"E5","midi":76,"time":435.10286458332956,"velocity":0.7401574803149606,"duration":0.17317708333331439},{"name":"F4","midi":65,"time":435.27864583332956,"velocity":0.7401574803149606,"duration":0.17317708333331439},{"name":"D5","midi":74,"time":435.27864583332956,"velocity":0.7401574803149606,"duration":0.17317708333331439},{"name":"E4","midi":64,"time":435.45442708332956,"velocity":0.7401574803149606,"duration":0.17317708333331439},{"name":"A5","midi":81,"time":435.45442708332956,"velocity":0.7401574803149606,"duration":0.2630208333333144},{"name":"D4","midi":62,"time":435.63020833332956,"velocity":0.7401574803149606,"duration":0.17447916666662877},{"name":"G#5","midi":80,"time":435.7187499999962,"velocity":0.7401574803149606,"duration":0.0859375},{"name":"C4","midi":60,"time":435.8072916666629,"velocity":0.7401574803149606,"duration":0.17447916666668561},{"name":"A5","midi":81,"time":435.8072916666629,"velocity":0.7401574803149606,"duration":0.0859375},{"name":"G#5","midi":80,"time":435.89583333332956,"velocity":0.7401574803149606,"duration":0.0859375},{"name":"B3","midi":59,"time":435.98437499999625,"velocity":0.7401574803149606,"duration":0.17447916666668561},{"name":"A5","midi":81,"time":435.98437499999625,"velocity":0.7401574803149606,"duration":0.0859375},{"name":"G#5","midi":80,"time":436.07291666666293,"velocity":0.7401574803149606,"duration":0.0859375},{"name":"C4","midi":60,"time":436.1614583333296,"velocity":0.7401574803149606,"duration":0.17447916666668561},{"name":"A5","midi":81,"time":436.1614583333296,"velocity":0.7401574803149606,"duration":0.0859375},{"name":"G#5","midi":80,"time":436.2499999999963,"velocity":0.7401574803149606,"duration":0.0859375},{"name":"D4","midi":62,"time":436.338541666663,"velocity":0.7401574803149606,"duration":0.17447916666668561},{"name":"F#5","midi":78,"time":436.338541666663,"velocity":0.7401574803149606,"duration":0.0859375},{"name":"G#5","midi":80,"time":436.4270833333297,"velocity":0.7401574803149606,"duration":0.0859375},{"name":"C4","midi":60,"time":436.51562499999636,"velocity":0.7401574803149606,"duration":0.17317708333331439},{"name":"A5","midi":81,"time":436.51562499999636,"velocity":0.7401574803149606,"duration":0.7890625},{"name":"B3","midi":59,"time":436.69140624999636,"velocity":0.7401574803149606,"duration":0.17317708333331439},{"name":"A3","midi":57,"time":436.86718749999636,"velocity":0.7401574803149606,"duration":0.17317708333331439},{"name":"F3","midi":53,"time":437.04296874999636,"velocity":0.7401574803149606,"duration":0.17317708333331439},{"name":"E3","midi":52,"time":437.21874999999636,"velocity":0.7401574803149606,"duration":0.17447916666668561},{"name":"D#3","midi":51,"time":437.39583333332973,"velocity":0.7401574803149606,"duration":0.17317708333331439},{"name":"E3","midi":52,"time":437.57161458332973,"velocity":0.7401574803149606,"duration":0.08723958333337123},{"name":"E5","midi":76,"time":437.57161458332973,"velocity":0.7401574803149606,"duration":0.26953125},{"name":"D3","midi":50,"time":437.6484374999964,"velocity":0.7401574803149606,"duration":0.08723958333331439},{"name":"E3","midi":52,"time":437.7265624999964,"velocity":0.7401574803149606,"duration":0.9166666666665719},{"name":"D5","midi":74,"time":437.84244791666305,"velocity":0.7401574803149606,"duration":0.26953125},{"name":"E2","midi":40,"time":438.11328124999636,"velocity":0.7401574803149606,"duration":0.5403645833333144},{"name":"C5","midi":72,"time":438.11328124999636,"velocity":0.7401574803149606,"duration":0.26953125},{"name":"B4","midi":71,"time":438.3841145833297,"velocity":0.7401574803149606,"duration":0.26953125},{"name":"A2","midi":45,"time":438.654947916663,"velocity":0.7401574803149606,"duration":3.6822916666667425},{"name":"A4","midi":69,"time":438.654947916663,"velocity":0.7401574803149606,"duration":3.6822916666667425},{"name":"C3","midi":48,"time":439.2513020833297,"velocity":0.7401574803149606,"duration":0.296875},{"name":"E3","midi":52,"time":439.55078124999636,"velocity":0.7401574803149606,"duration":0.31770833333337123},{"name":"A3","midi":57,"time":439.85026041666305,"velocity":0.7401574803149606,"duration":2.48046875},{"name":"E5","midi":76,"time":443.24869791666305,"velocity":0.7401574803149606,"duration":0.24348958333331439},{"name":"E5","midi":76,"time":443.4934895833297,"velocity":0.7401574803149606,"duration":0.24348958333331439},{"name":"D5","midi":74,"time":443.7395833333297,"velocity":0.7401574803149606,"duration":0.24348958333331439},{"name":"C5","midi":72,"time":443.9843749999963,"velocity":0.7401574803149606,"duration":0.24348958333331439},{"name":"D5","midi":74,"time":444.2304687499963,"velocity":0.7401574803149606,"duration":0.11979166666668561},{"name":"C5","midi":72,"time":444.3515624999963,"velocity":0.7401574803149606,"duration":0.11979166666668561},{"name":"B4","midi":71,"time":444.4739583333297,"velocity":0.7401574803149606,"duration":0.24348958333331439},{"name":"A4","midi":69,"time":444.7200520833297,"velocity":0.7401574803149606,"duration":0.24348958333331439},{"name":"A4","midi":69,"time":444.9648437499963,"velocity":0.7401574803149606,"duration":0.9791666666666288},{"name":"G4","midi":67,"time":445.2109374999963,"velocity":0.7401574803149606,"duration":0.24348958333331439},{"name":"F4","midi":65,"time":445.45572916666293,"velocity":0.7401574803149606,"duration":0.24348958333331439},{"name":"F4","midi":65,"time":445.70182291666293,"velocity":0.7401574803149606,"duration":0.24348958333331439},{"name":"E4","midi":64,"time":445.94661458332956,"velocity":0.7401574803149606,"duration":0.24348958333331439},{"name":"A4","midi":69,"time":446.1914062499962,"velocity":0.7401574803149606,"duration":0.24348958333331439},{"name":"D4","midi":62,"time":446.1914062499962,"velocity":0.7401574803149606,"duration":0.24348958333331439},{"name":"B4","midi":71,"time":446.4374999999962,"velocity":0.7401574803149606,"duration":0.11979166666668561},{"name":"D4","midi":62,"time":446.4374999999962,"velocity":0.7401574803149606,"duration":0.11979166666668561},{"name":"E4","midi":64,"time":446.55989583332956,"velocity":0.7401574803149606,"duration":0.11979166666668561},{"name":"C5","midi":72,"time":446.55989583332956,"velocity":0.7401574803149606,"duration":0.11979166666668561},{"name":"D5","midi":74,"time":446.68098958332956,"velocity":0.7401574803149606,"duration":0.24348958333331439},{"name":"F4","midi":65,"time":446.68098958332956,"velocity":0.7401574803149606,"duration":0.24348958333331439},{"name":"E4","midi":64,"time":446.92708333332956,"velocity":0.7401574803149606,"duration":0.24348958333331439},{"name":"C5","midi":72,"time":446.92708333332956,"velocity":0.7401574803149606,"duration":0.24348958333331439},{"name":"B4","midi":71,"time":447.1718749999962,"velocity":0.7401574803149606,"duration":0.24348958333331439},{"name":"D4","midi":62,"time":447.1718749999962,"velocity":0.7401574803149606,"duration":0.24348958333331439},{"name":"G#4","midi":68,"time":447.4179687499962,"velocity":0.7401574803149606,"duration":0.24348958333331439},{"name":"B3","midi":59,"time":447.4179687499962,"velocity":0.7401574803149606,"duration":0.24348958333331439},{"name":"E3","midi":52,"time":447.6627604166628,"velocity":0.7401574803149606,"duration":0.24348958333331439},{"name":"C4","midi":60,"time":447.6627604166628,"velocity":0.7401574803149606,"duration":0.24348958333331439},{"name":"A4","midi":69,"time":447.6627604166628,"velocity":0.7401574803149606,"duration":0.24348958333331439},{"name":"E3","midi":52,"time":447.9088541666628,"velocity":0.7401574803149606,"duration":0.24348958333331439},{"name":"B3","midi":59,"time":447.9088541666628,"velocity":0.7401574803149606,"duration":0.48437499999994316},{"name":"A4","midi":69,"time":447.9088541666628,"velocity":0.7401574803149606,"duration":0.24348958333331439},{"name":"D3","midi":50,"time":448.15364583332945,"velocity":0.7401574803149606,"duration":0.24348958333331439},{"name":"G#4","midi":68,"time":448.15364583332945,"velocity":0.7401574803149606,"duration":0.24348958333331439},{"name":"C3","midi":48,"time":448.39973958332945,"velocity":0.7401574803149606,"duration":0.24348958333331439},{"name":"E4","midi":64,"time":448.39973958332945,"velocity":0.7401574803149606,"duration":0.24348958333331439},{"name":"C3","midi":48,"time":448.6445312499961,"velocity":0.7401574803149606,"duration":0.24218750000005684},{"name":"A4","midi":69,"time":448.6445312499961,"velocity":0.7401574803149606,"duration":0.11979166666668561},{"name":"B4","midi":71,"time":448.76692708332945,"velocity":0.7401574803149606,"duration":0.11979166666668561},{"name":"B2","midi":47,"time":448.8893229166628,"velocity":0.7401574803149606,"duration":0.24348958333325754},{"name":"C5","midi":72,"time":448.8893229166628,"velocity":0.7401574803149606,"duration":0.07942708333331439},{"name":"B4","midi":71,"time":448.9713541666628,"velocity":0.7401574803149606,"duration":0.07942708333331439},{"name":"C5","midi":72,"time":449.05208333332945,"velocity":0.7401574803149606,"duration":0.07942708333331439},{"name":"A2","midi":45,"time":449.1341145833294,"velocity":0.7401574803149606,"duration":0.24348958333331439},{"name":"B4","midi":71,"time":449.1341145833294,"velocity":0.7401574803149606,"duration":0.07942708333331439},{"name":"A4","midi":69,"time":449.2161458333294,"velocity":0.7401574803149606,"duration":0.07942708333331439},{"name":"B4","midi":71,"time":449.2981770833294,"velocity":0.7401574803149606,"duration":0.07942708333331439},{"name":"A2","midi":45,"time":449.3802083333294,"velocity":0.7401574803149606,"duration":0.24348958333331439},{"name":"C5","midi":72,"time":449.3802083333294,"velocity":0.7401574803149606,"duration":0.24348958333331439},{"name":"C3","midi":48,"time":449.624999999996,"velocity":0.7401574803149606,"duration":0.24218750000005684},{"name":"B4","midi":71,"time":449.624999999996,"velocity":0.7401574803149606,"duration":0.11979166666668561},{"name":"A4","midi":69,"time":449.7473958333294,"velocity":0.7401574803149606,"duration":0.11979166666668561},{"name":"E3","midi":52,"time":449.86979166666276,"velocity":0.7401574803149606,"duration":0.24348958333331439},{"name":"B4","midi":71,"time":449.86979166666276,"velocity":0.7401574803149606,"duration":0.24348958333331439},{"name":"A3","midi":57,"time":450.1145833333294,"velocity":0.7401574803149606,"duration":0.11979166666668561},{"name":"C5","midi":72,"time":450.1145833333294,"velocity":0.7401574803149606,"duration":0.11979166666668561},{"name":"B3","midi":59,"time":450.23697916666276,"velocity":0.7401574803149606,"duration":0.11979166666668561},{"name":"D5","midi":74,"time":450.23697916666276,"velocity":0.7401574803149606,"duration":0.11979166666668561},{"name":"C4","midi":60,"time":450.35937499999613,"velocity":0.7401574803149606,"duration":0.07942708333331439},{"name":"E5","midi":76,"time":450.35937499999613,"velocity":0.7401574803149606,"duration":0.07942708333331439},{"name":"B3","midi":59,"time":450.44140624999613,"velocity":0.7401574803149606,"duration":0.07942708333331439},{"name":"D5","midi":74,"time":450.44140624999613,"velocity":0.7401574803149606,"duration":0.07942708333331439},{"name":"C4","midi":60,"time":450.52213541666276,"velocity":0.7401574803149606,"duration":0.07942708333331439},{"name":"E5","midi":76,"time":450.52213541666276,"velocity":0.7401574803149606,"duration":0.07942708333331439},{"name":"B3","midi":59,"time":450.60416666666276,"velocity":0.7401574803149606,"duration":0.07942708333331439},{"name":"D5","midi":74,"time":450.60416666666276,"velocity":0.7401574803149606,"duration":0.07942708333331439},{"name":"A3","midi":57,"time":450.68619791666276,"velocity":0.7401574803149606,"duration":0.07942708333331439},{"name":"C5","midi":72,"time":450.68619791666276,"velocity":0.7401574803149606,"duration":0.07942708333331439},{"name":"B3","midi":59,"time":450.76822916666276,"velocity":0.7401574803149606,"duration":0.07942708333331439},{"name":"D5","midi":74,"time":450.76822916666276,"velocity":0.7401574803149606,"duration":0.07942708333331439},{"name":"C4","midi":60,"time":450.85026041666276,"velocity":0.7401574803149606,"duration":0.24348958333331439},{"name":"E5","midi":76,"time":450.85026041666276,"velocity":0.7401574803149606,"duration":0.24348958333331439},{"name":"B3","midi":59,"time":451.0950520833294,"velocity":0.7401574803149606,"duration":0.11979166666668561},{"name":"D5","midi":74,"time":451.0950520833294,"velocity":0.7401574803149606,"duration":0.11979166666668561},{"name":"A3","midi":57,"time":451.21744791666276,"velocity":0.7401574803149606,"duration":0.11979166666668561},{"name":"C5","midi":72,"time":451.21744791666276,"velocity":0.7401574803149606,"duration":0.11979166666668561},{"name":"B3","midi":59,"time":451.33984374999613,"velocity":0.7401574803149606,"duration":0.24348958333331439},{"name":"D5","midi":74,"time":451.33984374999613,"velocity":0.7401574803149606,"duration":0.24348958333331439},{"name":"C4","midi":60,"time":451.58463541666276,"velocity":0.7401574803149606,"duration":0.11979166666668561},{"name":"E5","midi":76,"time":451.58463541666276,"velocity":0.7401574803149606,"duration":0.11979166666668561},{"name":"D4","midi":62,"time":451.70703124999613,"velocity":0.7401574803149606,"duration":0.11979166666668561},{"name":"F5","midi":77,"time":451.70703124999613,"velocity":0.7401574803149606,"duration":0.11979166666668561},{"name":"E4","midi":64,"time":451.8294270833295,"velocity":0.7401574803149606,"duration":0.07942708333331439},{"name":"G5","midi":79,"time":451.8294270833295,"velocity":0.7401574803149606,"duration":0.07942708333331439},{"name":"D4","midi":62,"time":451.91015624999613,"velocity":0.7401574803149606,"duration":0.07942708333331439},{"name":"F5","midi":77,"time":451.91015624999613,"velocity":0.7401574803149606,"duration":0.07942708333331439},{"name":"E4","midi":64,"time":451.99218749999613,"velocity":0.7401574803149606,"duration":0.07942708333331439},{"name":"G5","midi":79,"time":451.99218749999613,"velocity":0.7401574803149606,"duration":0.07942708333331439},{"name":"D4","midi":62,"time":452.07421874999613,"velocity":0.7401574803149606,"duration":0.07942708333331439},{"name":"F5","midi":77,"time":452.07421874999613,"velocity":0.7401574803149606,"duration":0.07942708333331439},{"name":"C4","midi":60,"time":452.15624999999613,"velocity":0.7401574803149606,"duration":0.07942708333331439},{"name":"E5","midi":76,"time":452.15624999999613,"velocity":0.7401574803149606,"duration":0.07942708333331439},{"name":"D4","midi":62,"time":452.23828124999613,"velocity":0.7401574803149606,"duration":0.07942708333331439},{"name":"F5","midi":77,"time":452.23828124999613,"velocity":0.7401574803149606,"duration":0.07942708333331439},{"name":"E4","midi":64,"time":452.32031249999613,"velocity":0.7401574803149606,"duration":0.24348958333331439},{"name":"G5","midi":79,"time":452.32031249999613,"velocity":0.7401574803149606,"duration":0.9791666666665719},{"name":"D4","midi":62,"time":452.56510416666276,"velocity":0.7401574803149606,"duration":0.24348958333331439},{"name":"C#4","midi":61,"time":452.81119791666276,"velocity":0.7401574803149606,"duration":0.24348958333331439},{"name":"E5","midi":76,"time":452.81119791666276,"velocity":0.7401574803149606,"duration":0.24348958333331439},{"name":"C#4","midi":61,"time":453.0559895833294,"velocity":0.7401574803149606,"duration":0.24348958333331439},{"name":"A4","midi":69,"time":453.0559895833294,"velocity":0.7401574803149606,"duration":0.7317708333333712},{"name":"B3","midi":59,"time":453.3020833333294,"velocity":0.7401574803149606,"duration":0.2421875},{"name":"A5","midi":81,"time":453.3020833333294,"velocity":0.7401574803149606,"duration":0.11979166666668561},{"name":"G5","midi":79,"time":453.4231770833294,"velocity":0.7401574803149606,"duration":0.11979166666668561},{"name":"A3","midi":57,"time":453.5455729166627,"velocity":0.7401574803149606,"duration":0.24218750000005684},{"name":"F5","midi":77,"time":453.5455729166627,"velocity":0.7401574803149606,"duration":0.11979166666668561},{"name":"E5","midi":76,"time":453.6679687499961,"velocity":0.7401574803149606,"duration":0.11979166666668561},{"name":"D4","midi":62,"time":453.7890624999961,"velocity":0.7401574803149606,"duration":0.24348958333331439},{"name":"F5","midi":77,"time":453.7890624999961,"velocity":0.7401574803149606,"duration":0.9791666666666288},{"name":"C4","midi":60,"time":454.0351562499961,"velocity":0.7401574803149606,"duration":0.24348958333331439},{"name":"B3","midi":59,"time":454.2799479166627,"velocity":0.7401574803149606,"duration":0.24348958333331439},{"name":"D5","midi":74,"time":454.2799479166627,"velocity":0.7401574803149606,"duration":0.24348958333331439},{"name":"B3","midi":59,"time":454.5260416666627,"velocity":0.7401574803149606,"duration":0.24348958333331439},{"name":"G4","midi":67,"time":454.5260416666627,"velocity":0.7401574803149606,"duration":0.7317708333334281},{"name":"A3","midi":57,"time":454.77083333332934,"velocity":0.7401574803149606,"duration":0.24218750000005684},{"name":"G5","midi":79,"time":454.77083333332934,"velocity":0.7401574803149606,"duration":0.11979166666668561},{"name":"F5","midi":77,"time":454.8932291666627,"velocity":0.7401574803149606,"duration":0.11979166666668561},{"name":"G3","midi":55,"time":455.0156249999961,"velocity":0.7401574803149606,"duration":0.24218750000005684},{"name":"E5","midi":76,"time":455.0156249999961,"velocity":0.7401574803149606,"duration":0.11979166666668561},{"name":"D5","midi":74,"time":455.13802083332945,"velocity":0.7401574803149606,"duration":0.11979166666668561},{"name":"C4","midi":60,"time":455.25911458332945,"velocity":0.7401574803149606,"duration":0.24348958333331439},{"name":"E5","midi":76,"time":455.25911458332945,"velocity":0.7401574803149606,"duration":0.9791666666666288},{"name":"B3","midi":59,"time":455.50520833332945,"velocity":0.7401574803149606,"duration":0.24348958333331439},{"name":"A3","midi":57,"time":455.7499999999961,"velocity":0.7401574803149606,"duration":0.24348958333331439},{"name":"C5","midi":72,"time":455.7499999999961,"velocity":0.7401574803149606,"duration":0.24348958333331439},{"name":"A3","midi":57,"time":455.9960937499961,"velocity":0.7401574803149606,"duration":0.24348958333331439},{"name":"F4","midi":65,"time":455.9960937499961,"velocity":0.7401574803149606,"duration":1.4635416666667425},{"name":"G3","midi":55,"time":456.2408854166627,"velocity":0.7401574803149606,"duration":0.24218750000005684},{"name":"F5","midi":77,"time":456.2408854166627,"velocity":0.7401574803149606,"duration":0.11979166666668561},{"name":"E5","midi":76,"time":456.3632812499961,"velocity":0.7401574803149606,"duration":0.11979166666668561},{"name":"F3","midi":53,"time":456.48567708332945,"velocity":0.7401574803149606,"duration":0.2421875},{"name":"D5","midi":74,"time":456.48567708332945,"velocity":0.7401574803149606,"duration":0.11979166666668561},{"name":"C5","midi":72,"time":456.60677083332945,"velocity":0.7401574803149606,"duration":0.11979166666668561},{"name":"G3","midi":55,"time":456.72916666666276,"velocity":0.7401574803149606,"duration":3.17838541666697},{"name":"B4","midi":71,"time":456.72916666666276,"velocity":0.7401574803149606,"duration":0.24348958333331439},{"name":"C5","midi":72,"time":456.97526041666276,"velocity":0.7401574803149606,"duration":0.11979166666668561},{"name":"B4","midi":71,"time":457.09635416666276,"velocity":0.7401574803149606,"duration":0.11979166666668561},{"name":"A4","midi":69,"time":457.21874999999613,"velocity":0.7401574803149606,"duration":0.11979166666668561},{"name":"G4","midi":67,"time":457.3411458333295,"velocity":0.7401574803149606,"duration":0.11979166666662877},{"name":"E4","midi":64,"time":457.4635416666628,"velocity":0.7401574803149606,"duration":0.24348958333331439},{"name":"C5","midi":72,"time":457.4635416666628,"velocity":0.7401574803149606,"duration":0.24348958333331439},{"name":"F4","midi":65,"time":457.70833333332945,"velocity":0.7401574803149606,"duration":0.11979166666668561},{"name":"D5","midi":74,"time":457.70833333332945,"velocity":0.7401574803149606,"duration":0.11979166666668561},{"name":"E4","midi":64,"time":457.8307291666628,"velocity":0.7401574803149606,"duration":0.11979166666668561},{"name":"C5","midi":72,"time":457.8307291666628,"velocity":0.7401574803149606,"duration":0.11979166666668561},{"name":"B4","midi":71,"time":457.9531249999962,"velocity":0.7401574803149606,"duration":0.11979166666668561},{"name":"D4","midi":62,"time":457.9531249999962,"velocity":0.7401574803149606,"duration":0.11979166666668561},{"name":"C4","midi":60,"time":458.0742187499962,"velocity":0.7401574803149606,"duration":0.11979166666668561},{"name":"C5","midi":72,"time":458.0742187499962,"velocity":0.7401574803149606,"duration":0.11979166666668561},{"name":"B3","midi":59,"time":458.19661458332956,"velocity":0.7401574803149606,"duration":0.24348958333331439},{"name":"D5","midi":74,"time":458.19661458332956,"velocity":0.7401574803149606,"duration":0.24348958333331439},{"name":"E5","midi":76,"time":458.44270833332956,"velocity":0.7401574803149606,"duration":0.11979166666668561},{"name":"C4","midi":60,"time":458.44270833332956,"velocity":0.7401574803149606,"duration":0.11979166666668561},{"name":"B3","midi":59,"time":458.56380208332956,"velocity":0.7401574803149606,"duration":0.11979166666668561},{"name":"D5","midi":74,"time":458.56380208332956,"velocity":0.7401574803149606,"duration":0.11979166666668561},{"name":"C5","midi":72,"time":458.68619791666293,"velocity":0.7401574803149606,"duration":0.11979166666668561},{"name":"A3","midi":57,"time":458.68619791666293,"velocity":0.7401574803149606,"duration":0.11979166666668561},{"name":"B3","midi":59,"time":458.8085937499963,"velocity":0.7401574803149606,"duration":0.11979166666668561},{"name":"D5","midi":74,"time":458.8085937499963,"velocity":0.7401574803149606,"duration":0.11979166666668561},{"name":"E5","midi":76,"time":458.9296874999963,"velocity":0.7401574803149606,"duration":0.24348958333331439},{"name":"C4","midi":60,"time":458.9296874999963,"velocity":0.7401574803149606,"duration":0.24348958333331439},{"name":"F5","midi":77,"time":459.1757812499963,"velocity":0.7401574803149606,"duration":0.11979166666668561},{"name":"D4","midi":62,"time":459.1757812499963,"velocity":0.7401574803149606,"duration":0.11979166666668561},{"name":"E5","midi":76,"time":459.2981770833297,"velocity":0.7401574803149606,"duration":0.11979166666668561},{"name":"C4","midi":60,"time":459.2981770833297,"velocity":0.7401574803149606,"duration":0.11979166666668561},{"name":"B3","midi":59,"time":459.4192708333297,"velocity":0.7401574803149606,"duration":0.11979166666668561},{"name":"D5","midi":74,"time":459.4192708333297,"velocity":0.7401574803149606,"duration":0.11979166666668561},{"name":"E5","midi":76,"time":459.54166666666305,"velocity":0.7401574803149606,"duration":0.11979166666668561},{"name":"C4","midi":60,"time":459.54166666666305,"velocity":0.7401574803149606,"duration":0.11979166666668561},{"name":"F5","midi":77,"time":459.6640624999964,"velocity":0.7401574803149606,"duration":0.7343749999999432},{"name":"D4","midi":62,"time":459.6640624999964,"velocity":0.7401574803149606,"duration":0.7343749999999432},{"name":"F3","midi":53,"time":459.90885416666305,"velocity":0.7401574803149606,"duration":0.24348958333331439},{"name":"E3","midi":52,"time":460.15494791666305,"velocity":0.7401574803149606,"duration":0.24348958333331439},{"name":"E3","midi":52,"time":460.3997395833297,"velocity":0.7401574803149606,"duration":0.24348958333331439},{"name":"D3","midi":50,"time":460.6458333333297,"velocity":0.7401574803149606,"duration":0.24348958333331439},{"name":"C3","midi":48,"time":460.8906249999963,"velocity":0.7401574803149606,"duration":0.24348958333331439},{"name":"E5","midi":76,"time":460.8906249999963,"velocity":0.7401574803149606,"duration":0.24348958333331439},{"name":"G5","midi":79,"time":460.8906249999963,"velocity":0.7401574803149606,"duration":0.24348958333331439},{"name":"C3","midi":48,"time":461.1367187499963,"velocity":0.7401574803149606,"duration":0.48828124999994316},{"name":"C5","midi":72,"time":461.1367187499963,"velocity":0.7401574803149606,"duration":0.24348958333331439},{"name":"E5","midi":76,"time":461.1367187499963,"velocity":0.7401574803149606,"duration":0.24348958333331439},{"name":"B4","midi":71,"time":461.38151041666293,"velocity":0.7401574803149606,"duration":0.24348958333331439},{"name":"D5","midi":74,"time":461.38151041666293,"velocity":0.7401574803149606,"duration":0.24348958333331439},{"name":"F3","midi":53,"time":461.62760416666293,"velocity":0.7401574803149606,"duration":0.24348958333331439},{"name":"A4","midi":69,"time":461.62760416666293,"velocity":0.7401574803149606,"duration":0.4830729166665719},{"name":"C5","midi":72,"time":461.62760416666293,"velocity":0.7401574803149606,"duration":0.24348958333331439},{"name":"G3","midi":55,"time":461.87239583332956,"velocity":0.7401574803149606,"duration":0.48697916666662877},{"name":"C5","midi":72,"time":461.87239583332956,"velocity":0.7401574803149606,"duration":0.09505208333331439},{"name":"B4","midi":71,"time":461.9687499999962,"velocity":0.7401574803149606,"duration":0.07161458333331439},{"name":"C5","midi":72,"time":462.0429687499962,"velocity":0.7401574803149606,"duration":0.07161458333331439},{"name":"G4","midi":67,"time":462.1171874999962,"velocity":0.7401574803149606,"duration":0.24348958333331439},{"name":"B4","midi":71,"time":462.1171874999962,"velocity":0.7401574803149606,"duration":0.24348958333331439},{"name":"G2","midi":43,"time":462.3619791666628,"velocity":0.7401574803149606,"duration":0.24348958333331439},{"name":"F4","midi":65,"time":462.3619791666628,"velocity":0.7401574803149606,"duration":0.24348958333331439},{"name":"C5","midi":72,"time":462.3619791666628,"velocity":0.7401574803149606,"duration":0.24348958333331439},{"name":"C3","midi":48,"time":462.6080729166628,"velocity":0.7401574803149606,"duration":0.9791666666665719},{"name":"E4","midi":64,"time":462.6080729166628,"velocity":0.7401574803149606,"duration":1.9544270833332007},{"name":"C5","midi":72,"time":462.6080729166628,"velocity":0.7401574803149606,"duration":0.24348958333331439},{"name":"B4","midi":71,"time":462.85286458332945,"velocity":0.7401574803149606,"duration":0.24348958333331439},{"name":"A4","midi":69,"time":463.09895833332945,"velocity":0.7401574803149606,"duration":0.24348958333331439},{"name":"A4","midi":69,"time":463.3437499999961,"velocity":0.7401574803149606,"duration":0.24348958333331439},{"name":"G4","midi":67,"time":463.5898437499961,"velocity":0.7401574803149606,"duration":0.24348958333331439},{"name":"A2","midi":45,"time":463.8346354166627,"velocity":0.7401574803149606,"duration":0.24348958333331439},{"name":"F#4","midi":66,"time":463.8346354166627,"velocity":0.7401574803149606,"duration":0.24348958333331439},{"name":"D3","midi":50,"time":464.0807291666627,"velocity":0.7401574803149606,"duration":0.24348958333331439},{"name":"F#4","midi":66,"time":464.0807291666627,"velocity":0.7401574803149606,"duration":1.2265624999999432},{"name":"C3","midi":48,"time":464.32552083332934,"velocity":0.7401574803149606,"duration":0.24348958333337123},{"name":"B2","midi":47,"time":464.5716145833294,"velocity":0.7401574803149606,"duration":0.24348958333331439},{"name":"A3","midi":57,"time":464.5716145833294,"velocity":0.7401574803149606,"duration":0.24348958333331439},{"name":"B2","midi":47,"time":464.816406249996,"velocity":0.7401574803149606,"duration":0.24348958333331439},{"name":"D4","midi":62,"time":464.816406249996,"velocity":0.7401574803149606,"duration":0.24348958333331439},{"name":"A2","midi":45,"time":465.062499999996,"velocity":0.7401574803149606,"duration":0.24348958333331439},{"name":"C4","midi":60,"time":465.062499999996,"velocity":0.7401574803149606,"duration":0.24348958333331439},{"name":"G2","midi":43,"time":465.30729166666265,"velocity":0.7401574803149606,"duration":0.24348958333331439},{"name":"B3","midi":59,"time":465.30729166666265,"velocity":0.7401574803149606,"duration":0.24348958333331439},{"name":"F#4","midi":66,"time":465.30729166666265,"velocity":0.7401574803149606,"duration":0.24348958333331439},{"name":"G2","midi":43,"time":465.55338541666265,"velocity":0.7401574803149606,"duration":1.225260416666572},{"name":"B3","midi":59,"time":465.55338541666265,"velocity":0.7401574803149606,"duration":1.9544270833332007},{"name":"B4","midi":71,"time":465.55338541666265,"velocity":0.7401574803149606,"duration":0.24348958333331439},{"name":"A4","midi":69,"time":465.7981770833293,"velocity":0.7401574803149606,"duration":0.24348958333331439},{"name":"G4","midi":67,"time":466.0442708333293,"velocity":0.7401574803149606,"duration":0.24348958333331439},{"name":"G4","midi":67,"time":466.2890624999959,"velocity":0.7401574803149606,"duration":0.24348958333331439},{"name":"F#4","midi":66,"time":466.5351562499959,"velocity":0.7401574803149606,"duration":0.24348958333331439},{"name":"G2","midi":43,"time":466.77994791666254,"velocity":0.7401574803149606,"duration":0.24348958333331439},{"name":"E4","midi":64,"time":466.77994791666254,"velocity":0.7401574803149606,"duration":0.24348958333331439},{"name":"C3","midi":48,"time":467.02604166666254,"velocity":0.7401574803149606,"duration":0.24348958333331439},{"name":"E4","midi":64,"time":467.02604166666254,"velocity":0.7401574803149606,"duration":1.2265624999999432},{"name":"B2","midi":47,"time":467.27083333332916,"velocity":0.7401574803149606,"duration":0.24348958333337123},{"name":"A2","midi":45,"time":467.51562499999585,"velocity":0.7401574803149606,"duration":0.24348958333331439},{"name":"G3","midi":55,"time":467.51562499999585,"velocity":0.7401574803149606,"duration":0.24348958333331439},{"name":"A2","midi":45,"time":467.76171874999585,"velocity":0.7401574803149606,"duration":0.24348958333331439},{"name":"C4","midi":60,"time":467.76171874999585,"velocity":0.7401574803149606,"duration":0.24348958333331439},{"name":"G2","midi":43,"time":468.0065104166625,"velocity":0.7401574803149606,"duration":0.24348958333331439},{"name":"B3","midi":59,"time":468.0065104166625,"velocity":0.7401574803149606,"duration":0.24348958333331439},{"name":"F#2","midi":42,"time":468.2526041666625,"velocity":0.7401574803149606,"duration":0.24348958333331439},{"name":"E4","midi":64,"time":468.2526041666625,"velocity":0.7401574803149606,"duration":0.24348958333331439},{"name":"A3","midi":57,"time":468.2526041666625,"velocity":0.7401574803149606,"duration":0.24348958333331439},{"name":"F#2","midi":42,"time":468.4973958333291,"velocity":0.7401574803149606,"duration":0.24348958333331439},{"name":"A3","midi":57,"time":468.4973958333291,"velocity":0.7401574803149606,"duration":1.953125},{"name":"A4","midi":69,"time":468.4973958333291,"velocity":0.7401574803149606,"duration":0.24348958333331439},{"name":"G2","midi":43,"time":468.7434895833291,"velocity":0.7401574803149606,"duration":0.24348958333331439},{"name":"G4","midi":67,"time":468.7434895833291,"velocity":0.7401574803149606,"duration":0.24348958333331439},{"name":"A2","midi":45,"time":468.98828124999574,"velocity":0.7401574803149606,"duration":0.24348958333331439},{"name":"F#4","midi":66,"time":468.98828124999574,"velocity":0.7401574803149606,"duration":0.24348958333331439},{"name":"A2","midi":45,"time":469.23437499999574,"velocity":0.7401574803149606,"duration":0.24348958333331439},{"name":"F#4","midi":66,"time":469.23437499999574,"velocity":0.7401574803149606,"duration":0.24348958333331439},{"name":"B2","midi":47,"time":469.47916666666237,"velocity":0.7401574803149606,"duration":0.24218750000005684},{"name":"E4","midi":64,"time":469.47916666666237,"velocity":0.7401574803149606,"duration":0.11979166666668561},{"name":"D#4","midi":63,"time":469.60156249999574,"velocity":0.7401574803149606,"duration":0.11979166666668561},{"name":"C3","midi":48,"time":469.7239583333291,"velocity":0.7401574803149606,"duration":0.24348958333331439},{"name":"E4","midi":64,"time":469.7239583333291,"velocity":0.7401574803149606,"duration":0.24348958333331439},{"name":"B2","midi":47,"time":469.96874999999574,"velocity":0.7401574803149606,"duration":2.929687500000341},{"name":"D#4","midi":63,"time":469.96874999999574,"velocity":0.7401574803149606,"duration":0.24348958333331439},{"name":"E4","midi":64,"time":470.21484374999574,"velocity":0.7401574803149606,"duration":0.11979166666668561},{"name":"D#4","midi":63,"time":470.3372395833291,"velocity":0.7401574803149606,"duration":0.12109375},{"name":"C#4","midi":61,"time":470.4596354166624,"velocity":0.7401574803149606,"duration":0.11979166666668561},{"name":"B3","midi":59,"time":470.5820312499958,"velocity":0.7401574803149606,"duration":0.11979166666668561},{"name":"G3","midi":55,"time":470.70442708332916,"velocity":0.7401574803149606,"duration":0.24348958333331439},{"name":"E4","midi":64,"time":470.70442708332916,"velocity":0.7401574803149606,"duration":0.24348958333331439},{"name":"A3","midi":57,"time":470.9492187499958,"velocity":0.7401574803149606,"duration":0.11979166666668561},{"name":"F#4","midi":66,"time":470.9492187499958,"velocity":0.7401574803149606,"duration":0.11979166666668561},{"name":"G3","midi":55,"time":471.07161458332916,"velocity":0.7401574803149606,"duration":0.11979166666668561},{"name":"E4","midi":64,"time":471.07161458332916,"velocity":0.7401574803149606,"duration":0.11979166666668561},{"name":"F#3","midi":54,"time":471.19401041666254,"velocity":0.7401574803149606,"duration":0.11979166666668561},{"name":"D#4","midi":63,"time":471.19401041666254,"velocity":0.7401574803149606,"duration":0.11979166666668561},{"name":"E3","midi":52,"time":471.31510416666254,"velocity":0.7401574803149606,"duration":0.11979166666668561},{"name":"E4","midi":64,"time":471.31510416666254,"velocity":0.7401574803149606,"duration":0.11979166666668561},{"name":"D#3","midi":51,"time":471.4374999999959,"velocity":0.7401574803149606,"duration":0.24348958333331439},{"name":"F#4","midi":66,"time":471.4374999999959,"velocity":0.7401574803149606,"duration":0.24348958333331439},{"name":"E3","midi":52,"time":471.6835937499959,"velocity":0.7401574803149606,"duration":0.11979166666668561},{"name":"G4","midi":67,"time":471.6835937499959,"velocity":0.7401574803149606,"duration":0.11979166666668561},{"name":"D#3","midi":51,"time":471.8046874999959,"velocity":0.7401574803149606,"duration":0.11979166666668561},{"name":"F#4","midi":66,"time":471.8046874999959,"velocity":0.7401574803149606,"duration":0.11979166666668561},{"name":"C#3","midi":49,"time":471.9270833333293,"velocity":0.7401574803149606,"duration":0.11979166666668561},{"name":"E4","midi":64,"time":471.9270833333293,"velocity":0.7401574803149606,"duration":0.11979166666668561},{"name":"D#3","midi":51,"time":472.04947916666265,"velocity":0.7401574803149606,"duration":0.11979166666668561},{"name":"F#4","midi":66,"time":472.04947916666265,"velocity":0.7401574803149606,"duration":0.11979166666668561},{"name":"E3","midi":52,"time":472.171874999996,"velocity":0.7401574803149606,"duration":0.24348958333331439},{"name":"G4","midi":67,"time":472.171874999996,"velocity":0.7401574803149606,"duration":0.24348958333331439},{"name":"F#3","midi":54,"time":472.41666666666265,"velocity":0.7401574803149606,"duration":0.11979166666668561},{"name":"A4","midi":69,"time":472.41666666666265,"velocity":0.7401574803149606,"duration":0.11979166666668561},{"name":"E3","midi":52,"time":472.539062499996,"velocity":0.7401574803149606,"duration":0.11979166666668561},{"name":"G4","midi":67,"time":472.539062499996,"velocity":0.7401574803149606,"duration":0.11979166666668561},{"name":"D#3","midi":51,"time":472.6614583333294,"velocity":0.7401574803149606,"duration":0.11979166666668561},{"name":"F#4","midi":66,"time":472.6614583333294,"velocity":0.7401574803149606,"duration":0.11979166666668561},{"name":"E3","midi":52,"time":472.7825520833294,"velocity":0.7401574803149606,"duration":0.11979166666668561},{"name":"G4","midi":67,"time":472.7825520833294,"velocity":0.7401574803149606,"duration":0.11979166666668561},{"name":"F#3","midi":54,"time":472.90494791666276,"velocity":0.7401574803149606,"duration":0.24348958333331439},{"name":"A4","midi":69,"time":472.90494791666276,"velocity":0.7401574803149606,"duration":1.225260416666572},{"name":"E3","midi":52,"time":473.15104166666276,"velocity":0.7401574803149606,"duration":0.24348958333331439},{"name":"D#3","midi":51,"time":473.3958333333294,"velocity":0.7401574803149606,"duration":0.24348958333331439},{"name":"D#3","midi":51,"time":473.640624999996,"velocity":0.7401574803149606,"duration":0.24348958333331439},{"name":"C#3","midi":49,"time":473.886718749996,"velocity":0.7401574803149606,"duration":0.24348958333331439},{"name":"B2","midi":47,"time":474.13151041666265,"velocity":0.7401574803149606,"duration":0.24348958333331439},{"name":"D#3","midi":51,"time":474.13151041666265,"velocity":0.7401574803149606,"duration":0.24348958333331439},{"name":"B4","midi":71,"time":474.13151041666265,"velocity":0.7401574803149606,"duration":0.24348958333331439},{"name":"E2","midi":40,"time":474.37760416666265,"velocity":0.7401574803149606,"duration":0.24348958333331439},{"name":"G4","midi":67,"time":474.37760416666265,"velocity":0.7401574803149606,"duration":0.24348958333331439},{"name":"F#2","midi":42,"time":474.6223958333293,"velocity":0.7401574803149606,"duration":0.24218750000005684},{"name":"A4","midi":69,"time":474.6223958333293,"velocity":0.7401574803149606,"duration":0.11979166666668561},{"name":"G4","midi":67,"time":474.74479166666265,"velocity":0.7401574803149606,"duration":0.11979166666668561},{"name":"G2","midi":43,"time":474.867187499996,"velocity":0.7401574803149606,"duration":0.24218750000005684},{"name":"F#4","midi":66,"time":474.867187499996,"velocity":0.7401574803149606,"duration":0.11979166666668561},{"name":"E4","midi":64,"time":474.9895833333294,"velocity":0.7401574803149606,"duration":1.4635416666667993},{"name":"A2","midi":45,"time":475.1106770833294,"velocity":0.7401574803149606,"duration":0.24348958333331439},{"name":"C5","midi":72,"time":475.1106770833294,"velocity":0.7401574803149606,"duration":0.24348958333331439},{"name":"B2","midi":47,"time":475.3567708333294,"velocity":0.7401574803149606,"duration":0.11979166666668561},{"name":"D5","midi":74,"time":475.3567708333294,"velocity":0.7401574803149606,"duration":0.11979166666668561},{"name":"A2","midi":45,"time":475.47916666666276,"velocity":0.7401574803149606,"duration":0.11979166666668561},{"name":"C5","midi":72,"time":475.47916666666276,"velocity":0.7401574803149606,"duration":0.11979166666668561},{"name":"G2","midi":43,"time":475.60026041666276,"velocity":0.7401574803149606,"duration":0.11979166666668561},{"name":"B4","midi":71,"time":475.60026041666276,"velocity":0.7401574803149606,"duration":0.11979166666668561},{"name":"F#2","midi":42,"time":475.72265624999613,"velocity":0.7401574803149606,"duration":0.11979166666668561},{"name":"A4","midi":69,"time":475.72265624999613,"velocity":0.7401574803149606,"duration":0.11979166666668561},{"name":"G2","midi":43,"time":475.8450520833295,"velocity":0.7401574803149606,"duration":0.24348958333331439},{"name":"B4","midi":71,"time":475.8450520833295,"velocity":0.7401574803149606,"duration":0.24348958333331439},{"name":"A2","midi":45,"time":476.08984374999613,"velocity":0.7401574803149606,"duration":0.11979166666668561},{"name":"C5","midi":72,"time":476.08984374999613,"velocity":0.7401574803149606,"duration":0.11979166666668561},{"name":"G2","midi":43,"time":476.2122395833295,"velocity":0.7401574803149606,"duration":0.11979166666668561},{"name":"B4","midi":71,"time":476.2122395833295,"velocity":0.7401574803149606,"duration":0.11979166666668561},{"name":"F#2","midi":42,"time":476.3346354166629,"velocity":0.7401574803149606,"duration":0.11979166666662877},{"name":"A4","midi":69,"time":476.3346354166629,"velocity":0.7401574803149606,"duration":0.11979166666662877},{"name":"E2","midi":40,"time":476.4557291666628,"velocity":0.7401574803149606,"duration":0.11979166666668561},{"name":"G4","midi":67,"time":476.4557291666628,"velocity":0.7401574803149606,"duration":0.11979166666668561},{"name":"B2","midi":47,"time":476.5781249999962,"velocity":0.7401574803149606,"duration":0.2421875},{"name":"G4","midi":67,"time":476.5781249999962,"velocity":0.7401574803149606,"duration":0.07421875},{"name":"D#4","midi":63,"time":476.5781249999962,"velocity":0.7401574803149606,"duration":0.4869791666666856},{"name":"F#4","midi":66,"time":476.6549479166629,"velocity":0.7401574803149606,"duration":0.07421875},{"name":"G4","midi":67,"time":476.73177083332956,"velocity":0.7401574803149606,"duration":0.07421875},{"name":"F#4","midi":66,"time":476.8072916666629,"velocity":0.7401574803149606,"duration":0.26822916666662877},{"name":"A2","midi":45,"time":476.8229166666629,"velocity":0.7401574803149606,"duration":0.24348958333331439},{"name":"B2","midi":47,"time":477.0677083333295,"velocity":0.7401574803149606,"duration":0.24348958333331439},{"name":"E4","midi":64,"time":477.0677083333295,"velocity":0.7401574803149606,"duration":0.24348958333331439},{"name":"E2","midi":40,"time":477.3138020833295,"velocity":0.7401574803149606,"duration":0.24348958333331439},{"name":"E4","midi":64,"time":477.3138020833295,"velocity":0.7401574803149606,"duration":1.2252604166666288},{"name":"B2","midi":47,"time":477.55859374999613,"velocity":0.7401574803149606,"duration":0.24348958333331439},{"name":"E3","midi":52,"time":477.80468749999613,"velocity":0.7401574803149606,"duration":0.7330729166666856},{"name":"B3","midi":59,"time":478.0494791666628,"velocity":0.7401574803149606,"duration":0.4869791666666856},{"name":"G#3","midi":56,"time":478.0494791666628,"velocity":0.7401574803149606,"duration":0.4869791666666856},{"name":"B4","midi":71,"time":478.53906249999613,"velocity":0.7401574803149606,"duration":0.24348958333331439},{"name":"E4","midi":64,"time":478.78515624999613,"velocity":0.7401574803149606,"duration":0.24348958333331439},{"name":"F#4","midi":66,"time":479.02994791666276,"velocity":0.7401574803149606,"duration":0.24348958333331439},{"name":"G#4","midi":68,"time":479.27604166666276,"velocity":0.7401574803149606,"duration":0.24348958333331439},{"name":"G#4","midi":68,"time":479.5208333333294,"velocity":0.7401574803149606,"duration":0.24348958333331439},{"name":"A4","midi":69,"time":479.7669270833294,"velocity":0.7401574803149606,"duration":0.24348958333331439},{"name":"B4","midi":71,"time":480.011718749996,"velocity":0.7401574803149606,"duration":0.24348958333331439},{"name":"E4","midi":64,"time":480.011718749996,"velocity":0.7401574803149606,"duration":0.24348958333331439},{"name":"C5","midi":72,"time":480.25651041666265,"velocity":0.7401574803149606,"duration":0.9791666666666288},{"name":"A3","midi":57,"time":480.25651041666265,"velocity":0.7401574803149606,"duration":0.24348958333331439},{"name":"B3","midi":59,"time":480.50260416666265,"velocity":0.7401574803149606,"duration":0.24348958333331439},{"name":"C4","midi":60,"time":480.7473958333293,"velocity":0.7401574803149606,"duration":0.24348958333331439},{"name":"C4","midi":60,"time":480.9934895833293,"velocity":0.7401574803149606,"duration":0.24348958333331439},{"name":"D4","midi":62,"time":481.2382812499959,"velocity":0.7401574803149606,"duration":0.24348958333331439},{"name":"E4","midi":64,"time":481.4843749999959,"velocity":0.7401574803149606,"duration":0.24348958333331439},{"name":"C5","midi":72,"time":481.4843749999959,"velocity":0.7401574803149606,"duration":0.24348958333331439},{"name":"F4","midi":65,"time":481.72916666666254,"velocity":0.7401574803149606,"duration":0.11979166666668561},{"name":"D5","midi":74,"time":481.72916666666254,"velocity":0.7401574803149606,"duration":0.11979166666668561},{"name":"C5","midi":72,"time":481.8515624999959,"velocity":0.7401574803149606,"duration":0.11979166666668561},{"name":"E4","midi":64,"time":481.8515624999959,"velocity":0.7401574803149606,"duration":0.11979166666668561},{"name":"B4","midi":71,"time":481.9739583333293,"velocity":0.7401574803149606,"duration":0.24348958333331439},{"name":"D4","midi":62,"time":481.9739583333293,"velocity":0.7401574803149606,"duration":0.24348958333331439},{"name":"C5","midi":72,"time":482.2187499999959,"velocity":0.7401574803149606,"duration":0.24348958333331439},{"name":"E4","midi":64,"time":482.2187499999959,"velocity":0.7401574803149606,"duration":0.24348958333331439},{"name":"F4","midi":65,"time":482.4648437499959,"velocity":0.7401574803149606,"duration":0.11979166666668561},{"name":"D5","midi":74,"time":482.4648437499959,"velocity":0.7401574803149606,"duration":0.24088541666668561},{"name":"G4","midi":67,"time":482.5872395833293,"velocity":0.7401574803149606,"duration":0.11979166666662877},{"name":"F5","midi":77,"time":482.7083333333292,"velocity":0.7401574803149606,"duration":0.24088541666668561},{"name":"A4","midi":69,"time":482.7083333333292,"velocity":0.7401574803149606,"duration":0.11979166666668561},{"name":"B4","midi":71,"time":482.8307291666626,"velocity":0.7401574803149606,"duration":0.11979166666662877},{"name":"C4","midi":60,"time":482.9531249999959,"velocity":0.7401574803149606,"duration":0.24348958333331439},{"name":"E5","midi":76,"time":482.9531249999959,"velocity":0.7401574803149606,"duration":0.24348958333331439},{"name":"C5","midi":72,"time":482.9531249999959,"velocity":0.7401574803149606,"duration":0.24348958333331439},{"name":"G3","midi":55,"time":483.19791666666254,"velocity":0.7401574803149606,"duration":0.24348958333342807},{"name":"E5","midi":76,"time":483.19791666666254,"velocity":0.7401574803149606,"duration":0.08072916666668561},{"name":"B4","midi":71,"time":483.19791666666254,"velocity":0.7401574803149606,"duration":0.4843750000001137},{"name":"D5","midi":74,"time":483.2812499999959,"velocity":0.7401574803149606,"duration":0.08072916666668561},{"name":"E5","midi":76,"time":483.3645833333293,"velocity":0.7401574803149606,"duration":0.08072916666668561},{"name":"A3","midi":57,"time":483.44401041666265,"velocity":0.7401574803149606,"duration":0.24348958333331439},{"name":"D5","midi":74,"time":483.44791666666265,"velocity":0.7401574803149606,"duration":0.25390624999994316},{"name":"B3","midi":59,"time":483.6888020833293,"velocity":0.7401574803149606,"duration":0.24348958333331439},{"name":"G4","midi":67,"time":483.6888020833293,"velocity":0.7401574803149606,"duration":0.24348958333331439},{"name":"B3","midi":59,"time":483.9348958333293,"velocity":0.7401574803149606,"duration":0.2421875},{"name":"G5","midi":79,"time":483.9348958333293,"velocity":0.7401574803149606,"duration":0.11979166666668561},{"name":"F5","midi":77,"time":484.0559895833293,"velocity":0.7401574803149606,"duration":0.11979166666668561},{"name":"C4","midi":60,"time":484.1783854166626,"velocity":0.7401574803149606,"duration":0.24218750000005684},{"name":"E5","midi":76,"time":484.1783854166626,"velocity":0.7401574803149606,"duration":0.11979166666668561},{"name":"D5","midi":74,"time":484.30078124999596,"velocity":0.7401574803149606,"duration":0.11979166666668561},{"name":"D4","midi":62,"time":484.42317708332934,"velocity":0.7401574803149606,"duration":0.2421875},{"name":"C5","midi":72,"time":484.42317708332934,"velocity":0.7401574803149606,"duration":0.11979166666668561},{"name":"B4","midi":71,"time":484.54427083332934,"velocity":0.7401574803149606,"duration":0.11979166666668561},{"name":"E4","midi":64,"time":484.66666666666265,"velocity":0.7401574803149606,"duration":0.24218750000005684},{"name":"C5","midi":72,"time":484.66666666666265,"velocity":0.7401574803149606,"duration":0.11979166666668561},{"name":"D5","midi":74,"time":484.789062499996,"velocity":0.7401574803149606,"duration":0.11979166666668561},{"name":"C4","midi":60,"time":484.9114583333294,"velocity":0.7401574803149606,"duration":0.2421875},{"name":"E5","midi":76,"time":484.9114583333294,"velocity":0.7401574803149606,"duration":0.11979166666668561},{"name":"F5","midi":77,"time":485.0325520833294,"velocity":0.7401574803149606,"duration":0.11979166666668561},{"name":"E4","midi":64,"time":485.1549479166627,"velocity":0.7401574803149606,"duration":0.24218750000005684},{"name":"G5","midi":79,"time":485.1549479166627,"velocity":0.7401574803149606,"duration":0.11979166666668561},{"name":"E5","midi":76,"time":485.2773437499961,"velocity":0.7401574803149606,"duration":0.11979166666668561},{"name":"F4","midi":65,"time":485.39973958332945,"velocity":0.7401574803149606,"duration":0.2421875},{"name":"A5","midi":81,"time":485.39973958332945,"velocity":0.7401574803149606,"duration":0.11979166666668561},{"name":"G5","midi":79,"time":485.52083333332945,"velocity":0.7401574803149606,"duration":0.11979166666668561},{"name":"A4","midi":69,"time":485.64322916666276,"velocity":0.7401574803149606,"duration":0.24218750000005684},{"name":"F5","midi":77,"time":485.64322916666276,"velocity":0.7401574803149606,"duration":0.11979166666668561},{"name":"E5","midi":76,"time":485.76562499999613,"velocity":0.7401574803149606,"duration":0.11979166666668561},{"name":"F4","midi":65,"time":485.88671874999613,"velocity":0.7401574803149606,"duration":0.3645833333334281},{"name":"D5","midi":74,"time":485.88671874999613,"velocity":0.7401574803149606,"duration":0.11979166666668561},{"name":"C5","midi":72,"time":486.0091145833295,"velocity":0.7401574803149606,"duration":0.11979166666668561},{"name":"B4","midi":71,"time":486.1315104166629,"velocity":0.7401574803149606,"duration":0.24218750000005684},{"name":"G5","midi":79,"time":486.1315104166629,"velocity":0.7401574803149606,"duration":0.9739583333335418},{"name":"A4","midi":69,"time":486.25390624999625,"velocity":0.7401574803149606,"duration":0.11979166666668561},{"name":"G4","midi":67,"time":486.37499999999625,"velocity":0.7401574803149606,"duration":0.11979166666668561},{"name":"C5","midi":72,"time":486.37499999999625,"velocity":0.7401574803149606,"duration":0.24218750000005684},{"name":"F4","midi":65,"time":486.4973958333296,"velocity":0.7401574803149606,"duration":0.11979166666668561},{"name":"E4","midi":64,"time":486.619791666663,"velocity":0.7401574803149606,"duration":0.11979166666668561},{"name":"D5","midi":74,"time":486.619791666663,"velocity":0.7401574803149606,"duration":0.24218750000005684},{"name":"D4","midi":62,"time":486.74218749999636,"velocity":0.7401574803149606,"duration":0.11979166666668561},{"name":"C4","midi":60,"time":486.86328124999636,"velocity":0.7401574803149606,"duration":0.11979166666668561},{"name":"E5","midi":76,"time":486.86328124999636,"velocity":0.7401574803149606,"duration":0.9739583333334849},{"name":"B3","midi":59,"time":486.98567708332973,"velocity":0.7401574803149606,"duration":0.11979166666668561},{"name":"A3","midi":57,"time":487.1080729166631,"velocity":0.7401574803149606,"duration":0.11979166666668561},{"name":"A5","midi":81,"time":487.1080729166631,"velocity":0.7401574803149606,"duration":0.2421875},{"name":"G3","midi":55,"time":487.2291666666631,"velocity":0.7401574803149606,"duration":0.11979166666668561},{"name":"F3","midi":53,"time":487.3515624999964,"velocity":0.7401574803149606,"duration":0.11979166666668561},{"name":"G5","midi":79,"time":487.3515624999964,"velocity":0.7401574803149606,"duration":0.24218750000005684},{"name":"E3","midi":52,"time":487.4739583333298,"velocity":0.7401574803149606,"duration":0.11979166666668561},{"name":"D3","midi":50,"time":487.59635416666316,"velocity":0.7401574803149606,"duration":0.11979166666668561},{"name":"F5","midi":77,"time":487.59635416666316,"velocity":0.7401574803149606,"duration":0.9739583333334849},{"name":"E3","midi":52,"time":487.71744791666316,"velocity":0.7401574803149606,"duration":0.11979166666668561},{"name":"D3","midi":50,"time":487.83984374999653,"velocity":0.7401574803149606,"duration":0.11979166666668561},{"name":"A4","midi":69,"time":487.83984374999653,"velocity":0.7401574803149606,"duration":0.24218750000005684},{"name":"C3","midi":48,"time":487.9622395833299,"velocity":0.7401574803149606,"duration":0.11979166666668561},{"name":"B2","midi":47,"time":488.0846354166633,"velocity":0.7401574803149606,"duration":0.11979166666668561},{"name":"C5","midi":72,"time":488.0846354166633,"velocity":0.7401574803149606,"duration":0.2421875},{"name":"A2","midi":45,"time":488.2057291666633,"velocity":0.7401574803149606,"duration":0.11979166666668561},{"name":"G2","midi":43,"time":488.3281249999966,"velocity":0.7401574803149606,"duration":0.11979166666668561},{"name":"B4","midi":71,"time":488.3281249999966,"velocity":0.7401574803149606,"duration":0.7304687500001705},{"name":"A2","midi":45,"time":488.45052083332996,"velocity":0.7401574803149606,"duration":0.11979166666668561},{"name":"G2","midi":43,"time":488.57161458332996,"velocity":0.7401574803149606,"duration":0.11979166666668561},{"name":"G5","midi":79,"time":488.57161458332996,"velocity":0.7401574803149606,"duration":0.24218750000005684},{"name":"F2","midi":41,"time":488.69401041666333,"velocity":0.7401574803149606,"duration":0.11979166666668561},{"name":"E2","midi":40,"time":488.8164062499967,"velocity":0.7401574803149606,"duration":0.11979166666668561},{"name":"F5","midi":77,"time":488.8164062499967,"velocity":0.7401574803149606,"duration":0.24218750000005684},{"name":"D2","midi":38,"time":488.9388020833301,"velocity":0.7401574803149606,"duration":0.11979166666668561},{"name":"C2","midi":36,"time":489.0598958333301,"velocity":0.7401574803149606,"duration":0.48828125},{"name":"C5","midi":72,"time":489.0598958333301,"velocity":0.7401574803149606,"duration":0.24348958333331439},{"name":"E5","midi":76,"time":489.0598958333301,"velocity":0.7401574803149606,"duration":0.24348958333331439},{"name":"F5","midi":77,"time":489.3059895833301,"velocity":0.7401574803149606,"duration":0.24348958333331439},{"name":"D5","midi":74,"time":489.3059895833301,"velocity":0.7401574803149606,"duration":0.24348958333331439},{"name":"F2","midi":41,"time":489.5507812499967,"velocity":0.7401574803149606,"duration":0.24348958333331439},{"name":"E5","midi":76,"time":489.5507812499967,"velocity":0.7401574803149606,"duration":0.24348958333331439},{"name":"G5","midi":79,"time":489.5507812499967,"velocity":0.7401574803149606,"duration":0.24348958333331439},{"name":"G2","midi":43,"time":489.7968749999967,"velocity":0.7401574803149606,"duration":0.24348958333331439},{"name":"E5","midi":76,"time":489.7968749999967,"velocity":0.7401574803149606,"duration":0.08333333333331439},{"name":"B4","midi":71,"time":489.7968749999967,"velocity":0.7401574803149606,"duration":0.48437499999994316},{"name":"D5","midi":74,"time":489.8867187499967,"velocity":0.7401574803149606,"duration":0.08333333333331439},{"name":"E5","midi":76,"time":489.9765624999967,"velocity":0.7401574803149606,"duration":0.08203124999994316},{"name":"F2","midi":41,"time":490.04166666666333,"velocity":0.7401574803149606,"duration":0.24348958333331439},{"name":"D5","midi":74,"time":490.06510416666333,"velocity":0.7401574803149606,"duration":0.22526041666668561},{"name":"G2","midi":43,"time":490.28776041666333,"velocity":0.7401574803149606,"duration":0.24348958333337123},{"name":"C5","midi":72,"time":490.28776041666333,"velocity":0.7401574803149606,"duration":0.24348958333337123},{"name":"C2","midi":36,"time":490.53255208333,"velocity":0.7401574803149606,"duration":0.9791666666666288},{"name":"C5","midi":72,"time":490.53255208333,"velocity":0.7401574803149606,"duration":0.24348958333331439},{"name":"D5","midi":74,"time":490.77864583333,"velocity":0.7401574803149606,"duration":0.24348958333331439},{"name":"E5","midi":76,"time":491.02343749999665,"velocity":0.7401574803149606,"duration":0.24348958333331439},{"name":"E5","midi":76,"time":491.26953124999665,"velocity":0.7401574803149606,"duration":0.24348958333331439},{"name":"F5","midi":77,"time":491.5143229166633,"velocity":0.7401574803149606,"duration":0.24348958333331439},{"name":"E4","midi":64,"time":491.7604166666633,"velocity":0.7401574803149606,"duration":0.24348958333331439},{"name":"G5","midi":79,"time":491.7604166666633,"velocity":0.7401574803149606,"duration":0.24348958333331439},{"name":"E4","midi":64,"time":492.0052083333299,"velocity":0.7401574803149606,"duration":0.24348958333331439},{"name":"G5","midi":79,"time":492.0052083333299,"velocity":0.7401574803149606,"duration":0.9791666666666288},{"name":"C#5","midi":73,"time":492.0052083333299,"velocity":0.7401574803149606,"duration":0.7343749999999432},{"name":"D4","midi":62,"time":492.2513020833299,"velocity":0.7401574803149606,"duration":0.24348958333331439},{"name":"C#4","midi":61,"time":492.49609374999653,"velocity":0.7401574803149606,"duration":0.24348958333331439},{"name":"C#4","midi":61,"time":492.74218749999653,"velocity":0.7401574803149606,"duration":0.24348958333331439},{"name":"E5","midi":76,"time":492.74218749999653,"velocity":0.7401574803149606,"duration":0.4830729166666856},{"name":"B3","midi":59,"time":492.98697916666316,"velocity":0.7401574803149606,"duration":0.24218750000005684},{"name":"A5","midi":81,"time":492.98697916666316,"velocity":0.7401574803149606,"duration":0.11979166666668561},{"name":"G5","midi":79,"time":493.10937499999653,"velocity":0.7401574803149606,"duration":0.11979166666668561},{"name":"A3","midi":57,"time":493.2317708333299,"velocity":0.7401574803149606,"duration":0.2421875},{"name":"F5","midi":77,"time":493.2317708333299,"velocity":0.7401574803149606,"duration":0.11979166666668561},{"name":"E5","midi":76,"time":493.3528645833299,"velocity":0.7401574803149606,"duration":0.11979166666668561},{"name":"D4","midi":62,"time":493.4752604166632,"velocity":0.7401574803149606,"duration":0.24348958333331439},{"name":"F5","midi":77,"time":493.4752604166632,"velocity":0.7401574803149606,"duration":0.24348958333331439},{"name":"D5","midi":74,"time":493.4752604166632,"velocity":0.7401574803149606,"duration":0.4830729166666856},{"name":"E4","midi":64,"time":493.7213541666632,"velocity":0.7401574803149606,"duration":0.2421875},{"name":"G5","midi":79,"time":493.7213541666632,"velocity":0.7401574803149606,"duration":0.11979166666668561},{"name":"F5","midi":77,"time":493.8424479166632,"velocity":0.7401574803149606,"duration":0.11979166666668561},{"name":"F4","midi":65,"time":493.96484374999653,"velocity":0.7401574803149606,"duration":0.24218750000005684},{"name":"E5","midi":76,"time":493.96484374999653,"velocity":0.7401574803149606,"duration":0.11979166666668561},{"name":"D5","midi":74,"time":494.0872395833299,"velocity":0.7401574803149606,"duration":0.8528645833334281},{"name":"F4","midi":65,"time":494.2096354166633,"velocity":0.7401574803149606,"duration":0.24348958333331439},{"name":"A5","midi":81,"time":494.2096354166633,"velocity":0.7401574803149606,"duration":0.24348958333331439},{"name":"G4","midi":67,"time":494.4544270833299,"velocity":0.7401574803149606,"duration":0.24218750000005684},{"name":"A#5","midi":82,"time":494.4544270833299,"velocity":0.7401574803149606,"duration":0.11979166666668561},{"name":"A5","midi":81,"time":494.5768229166633,"velocity":0.7401574803149606,"duration":0.11979166666668561},{"name":"A4","midi":69,"time":494.69921874999665,"velocity":0.7401574803149606,"duration":0.2421875},{"name":"G5","midi":79,"time":494.69921874999665,"velocity":0.7401574803149606,"duration":0.11979166666668561},{"name":"F5","midi":77,"time":494.82031249999665,"velocity":0.7401574803149606,"duration":0.11979166666668561},{"name":"A#4","midi":70,"time":494.94270833332996,"velocity":0.7401574803149606,"duration":0.24348958333331439},{"name":"E5","midi":76,"time":494.94270833332996,"velocity":0.7401574803149606,"duration":0.24348958333331439},{"name":"C#5","midi":73,"time":494.94270833332996,"velocity":0.7401574803149606,"duration":0.24348958333331439},{"name":"A4","midi":69,"time":495.1874999999966,"velocity":0.7401574803149606,"duration":0.24348958333331439},{"name":"D5","midi":74,"time":495.1874999999966,"velocity":0.7401574803149606,"duration":0.24348958333331439},{"name":"F5","midi":77,"time":495.1874999999966,"velocity":0.7401574803149606,"duration":0.24348958333331439},{"name":"G4","midi":67,"time":495.4335937499966,"velocity":0.7401574803149606,"duration":0.24348958333331439},{"name":"G5","midi":79,"time":495.4335937499966,"velocity":0.7401574803149606,"duration":0.24348958333331439},{"name":"E5","midi":76,"time":495.4335937499966,"velocity":0.7401574803149606,"duration":0.24348958333331439},{"name":"G4","midi":67,"time":495.6783854166632,"velocity":0.7401574803149606,"duration":0.24348958333331439},{"name":"E5","midi":76,"time":495.6783854166632,"velocity":0.7401574803149606,"duration":0.24348958333331439},{"name":"G5","midi":79,"time":495.6783854166632,"velocity":0.7401574803149606,"duration":0.24348958333331439},{"name":"F4","midi":65,"time":495.9244791666632,"velocity":0.7401574803149606,"duration":0.24348958333331439},{"name":"F5","midi":77,"time":495.9244791666632,"velocity":0.7401574803149606,"duration":0.24348958333331439},{"name":"A5","midi":81,"time":495.9244791666632,"velocity":0.7401574803149606,"duration":0.24348958333331439},{"name":"E4","midi":64,"time":496.16927083332985,"velocity":0.7401574803149606,"duration":0.24348958333331439},{"name":"A#5","midi":82,"time":496.16927083332985,"velocity":0.7401574803149606,"duration":0.24348958333331439},{"name":"G5","midi":79,"time":496.16927083332985,"velocity":0.7401574803149606,"duration":0.24348958333331439},{"name":"E4","midi":64,"time":496.41536458332985,"velocity":0.7401574803149606,"duration":0.24348958333331439},{"name":"A#5","midi":82,"time":496.41536458332985,"velocity":0.7401574803149606,"duration":0.9765625000000568},{"name":"G5","midi":79,"time":496.41536458332985,"velocity":0.7401574803149606,"duration":0.9765625000000568},{"name":"G4","midi":67,"time":496.6601562499965,"velocity":0.7401574803149606,"duration":0.11979166666668561},{"name":"F4","midi":65,"time":496.78255208332985,"velocity":0.7401574803149606,"duration":0.11979166666668561},{"name":"E4","midi":64,"time":496.9049479166632,"velocity":0.7401574803149606,"duration":0.11979166666668561},{"name":"D4","midi":62,"time":497.0273437499966,"velocity":0.7401574803149606,"duration":0.11979166666668561},{"name":"C#4","midi":61,"time":497.1484374999966,"velocity":0.7401574803149606,"duration":0.24348958333331439},{"name":"D4","midi":62,"time":497.3945312499966,"velocity":0.7401574803149606,"duration":0.11979166666668561},{"name":"A5","midi":81,"time":497.3945312499966,"velocity":0.7401574803149606,"duration":0.24218750000005684},{"name":"F5","midi":77,"time":497.3945312499966,"velocity":0.7401574803149606,"duration":0.24218750000005684},{"name":"C#4","midi":61,"time":497.51692708332996,"velocity":0.7401574803149606,"duration":0.11979166666668561},{"name":"B3","midi":59,"time":497.63802083332996,"velocity":0.7401574803149606,"duration":0.11979166666668561},{"name":"G5","midi":79,"time":497.63802083332996,"velocity":0.7401574803149606,"duration":0.24218750000005684},{"name":"E5","midi":76,"time":497.63802083332996,"velocity":0.7401574803149606,"duration":0.24218750000005684},{"name":"A3","midi":57,"time":497.76041666666333,"velocity":0.7401574803149606,"duration":0.11979166666668561},{"name":"D4","midi":62,"time":497.8828124999967,"velocity":0.7401574803149606,"duration":0.24348958333331439},{"name":"F5","midi":77,"time":497.8828124999967,"velocity":0.7401574803149606,"duration":0.24348958333331439},{"name":"D5","midi":74,"time":497.8828124999967,"velocity":0.7401574803149606,"duration":0.4830729166666856},{"name":"F3","midi":53,"time":498.12760416666333,"velocity":0.7401574803149606,"duration":0.24218750000005684},{"name":"G5","midi":79,"time":498.12760416666333,"velocity":0.7401574803149606,"duration":0.11979166666668561},{"name":"F5","midi":77,"time":498.2499999999967,"velocity":0.7401574803149606,"duration":0.11979166666668561},{"name":"G3","midi":55,"time":498.3723958333301,"velocity":0.7401574803149606,"duration":0.2421875},{"name":"E5","midi":76,"time":498.3723958333301,"velocity":0.7401574803149606,"duration":0.11979166666668561},{"name":"D5","midi":74,"time":498.4934895833301,"velocity":0.7401574803149606,"duration":0.11979166666668561},{"name":"A3","midi":57,"time":498.6158854166634,"velocity":0.7401574803149606,"duration":0.24348958333331439},{"name":"E4","midi":64,"time":498.6158854166634,"velocity":0.7401574803149606,"duration":0.484375},{"name":"D5","midi":74,"time":498.6158854166634,"velocity":0.7401574803149606,"duration":0.08203125},{"name":"C#5","midi":73,"time":498.6992187499967,"velocity":0.7401574803149606,"duration":0.08203125},{"name":"D5","midi":74,"time":498.78255208333,"velocity":0.7401574803149606,"duration":0.08203125000005684},{"name":"G3","midi":55,"time":498.8619791666634,"velocity":0.7401574803149606,"duration":0.24348958333331439},{"name":"C#5","midi":73,"time":498.8658854166634,"velocity":0.7401574803149606,"duration":0.22786458333331439},{"name":"A3","midi":57,"time":499.10677083333,"velocity":0.7401574803149606,"duration":0.24348958333331439},{"name":"D5","midi":74,"time":499.10677083333,"velocity":0.7401574803149606,"duration":0.24348958333331439},{"name":"F4","midi":65,"time":499.10677083333,"velocity":0.7401574803149606,"duration":0.24348958333331439},{"name":"D3","midi":50,"time":499.35286458333,"velocity":0.7401574803149606,"duration":0.24348958333331439},{"name":"F4","midi":65,"time":499.35286458333,"velocity":0.7401574803149606,"duration":0.48828124999994316},{"name":"D5","midi":74,"time":499.35286458333,"velocity":0.7401574803149606,"duration":0.7343749999999432},{"name":"E3","midi":52,"time":499.59765624999665,"velocity":0.7401574803149606,"duration":0.24348958333331439},{"name":"F3","midi":53,"time":499.84374999999665,"velocity":0.7401574803149606,"duration":0.24348958333331439},{"name":"A4","midi":69,"time":499.84374999999665,"velocity":0.7401574803149606,"duration":0.24348958333331439},{"name":"F3","midi":53,"time":500.0885416666633,"velocity":0.7401574803149606,"duration":0.24348958333331439},{"name":"D5","midi":74,"time":500.0885416666633,"velocity":0.7401574803149606,"duration":0.9791666666666288},{"name":"G3","midi":55,"time":500.3346354166633,"velocity":0.7401574803149606,"duration":0.24348958333331439},{"name":"E5","midi":76,"time":500.3346354166633,"velocity":0.7401574803149606,"duration":0.24348958333331439},{"name":"A3","midi":57,"time":500.5794270833299,"velocity":0.7401574803149606,"duration":0.24348958333331439},{"name":"F5","midi":77,"time":500.5794270833299,"velocity":0.7401574803149606,"duration":0.24348958333331439},{"name":"B2","midi":47,"time":500.8255208333299,"velocity":0.7401574803149606,"duration":0.9791666666666288},{"name":"F5","midi":77,"time":500.8255208333299,"velocity":0.7401574803149606,"duration":1.4687499999999432},{"name":"C5","midi":72,"time":501.0703124999966,"velocity":0.7401574803149606,"duration":0.24348958333331439},{"name":"B4","midi":71,"time":501.3164062499966,"velocity":0.7401574803149606,"duration":0.24348958333331439},{"name":"B4","midi":71,"time":501.5611979166632,"velocity":0.7401574803149606,"duration":0.24348958333331439},{"name":"A4","midi":69,"time":501.8072916666632,"velocity":0.7401574803149606,"duration":0.24348958333331439},{"name":"B2","midi":47,"time":502.05208333332985,"velocity":0.7401574803149606,"duration":0.24348958333331439},{"name":"G4","midi":67,"time":502.05208333332985,"velocity":0.7401574803149606,"duration":0.24348958333331439},{"name":"C3","midi":48,"time":502.29817708332985,"velocity":0.7401574803149606,"duration":0.24348958333331439},{"name":"E5","midi":76,"time":502.29817708332985,"velocity":0.7401574803149606,"duration":0.24348958333331439},{"name":"D3","midi":50,"time":502.5429687499965,"velocity":0.7401574803149606,"duration":0.24348958333331439},{"name":"D5","midi":74,"time":502.5429687499965,"velocity":0.7401574803149606,"duration":0.24348958333331439},{"name":"E3","midi":52,"time":502.7877604166631,"velocity":0.7401574803149606,"duration":0.24348958333331439},{"name":"C5","midi":72,"time":502.7877604166631,"velocity":0.7401574803149606,"duration":0.24348958333331439},{"name":"E3","midi":52,"time":503.0338541666631,"velocity":0.7401574803149606,"duration":0.24348958333331439},{"name":"C5","midi":72,"time":503.0338541666631,"velocity":0.7401574803149606,"duration":0.9791666666665719},{"name":"F3","midi":53,"time":503.27864583332973,"velocity":0.7401574803149606,"duration":0.24348958333331439},{"name":"D5","midi":74,"time":503.27864583332973,"velocity":0.7401574803149606,"duration":0.24348958333331439},{"name":"G3","midi":55,"time":503.52473958332973,"velocity":0.7401574803149606,"duration":0.24348958333331439},{"name":"E5","midi":76,"time":503.52473958332973,"velocity":0.7401574803149606,"duration":0.24348958333331439},{"name":"A2","midi":45,"time":503.76953124999636,"velocity":0.7401574803149606,"duration":1.225260416666572},{"name":"E5","midi":76,"time":503.76953124999636,"velocity":0.7401574803149606,"duration":1.4687499999999432},{"name":"B4","midi":71,"time":504.01562499999636,"velocity":0.7401574803149606,"duration":0.24348958333331439},{"name":"A4","midi":69,"time":504.260416666663,"velocity":0.7401574803149606,"duration":0.24348958333331439},{"name":"A4","midi":69,"time":504.506510416663,"velocity":0.7401574803149606,"duration":0.24348958333331439},{"name":"G4","midi":67,"time":504.7513020833296,"velocity":0.7401574803149606,"duration":0.24348958333331439},{"name":"A2","midi":45,"time":504.9973958333296,"velocity":0.7401574803149606,"duration":0.24348958333337123},{"name":"F4","midi":65,"time":504.9973958333296,"velocity":0.7401574803149606,"duration":0.24348958333337123},{"name":"B2","midi":47,"time":505.2421874999963,"velocity":0.7401574803149606,"duration":0.24348958333331439},{"name":"F4","midi":65,"time":505.2421874999963,"velocity":0.7401574803149606,"duration":0.484375},{"name":"D5","midi":74,"time":505.2421874999963,"velocity":0.7401574803149606,"duration":0.24348958333331439},{"name":"C3","midi":48,"time":505.4882812499963,"velocity":0.7401574803149606,"duration":0.24348958333331439},{"name":"C5","midi":72,"time":505.4882812499963,"velocity":0.7401574803149606,"duration":0.24348958333331439},{"name":"D3","midi":50,"time":505.73307291666293,"velocity":0.7401574803149606,"duration":0.24348958333331439},{"name":"B4","midi":71,"time":505.73307291666293,"velocity":0.7401574803149606,"duration":0.24348958333331439},{"name":"D3","midi":50,"time":505.97916666666293,"velocity":0.7401574803149606,"duration":0.24348958333331439},{"name":"B4","midi":71,"time":505.97916666666293,"velocity":0.7401574803149606,"duration":0.9791666666665719},{"name":"E3","midi":52,"time":506.22395833332956,"velocity":0.7401574803149606,"duration":0.24348958333331439},{"name":"C5","midi":72,"time":506.22395833332956,"velocity":0.7401574803149606,"duration":0.24348958333331439},{"name":"F3","midi":53,"time":506.47005208332956,"velocity":0.7401574803149606,"duration":0.24348958333331439},{"name":"D5","midi":74,"time":506.47005208332956,"velocity":0.7401574803149606,"duration":0.24348958333331439},{"name":"G#2","midi":44,"time":506.7148437499962,"velocity":0.7401574803149606,"duration":0.24348958333331439},{"name":"D5","midi":74,"time":506.7148437499962,"velocity":0.7401574803149606,"duration":1.4687499999999432},{"name":"A2","midi":45,"time":506.9609374999962,"velocity":0.7401574803149606,"duration":0.24348958333331439},{"name":"A4","midi":69,"time":506.9609374999962,"velocity":0.7401574803149606,"duration":0.24348958333331439},{"name":"B2","midi":47,"time":507.2057291666628,"velocity":0.7401574803149606,"duration":0.24348958333331439},{"name":"G#4","midi":68,"time":507.2057291666628,"velocity":0.7401574803149606,"duration":0.24348958333331439},{"name":"E2","midi":40,"time":507.4518229166628,"velocity":0.7401574803149606,"duration":0.24348958333331439},{"name":"G#4","midi":68,"time":507.4518229166628,"velocity":0.7401574803149606,"duration":0.24348958333331439},{"name":"F#2","midi":42,"time":507.69661458332945,"velocity":0.7401574803149606,"duration":0.24348958333331439},{"name":"F#4","midi":66,"time":507.69661458332945,"velocity":0.7401574803149606,"duration":0.24348958333331439},{"name":"G#2","midi":44,"time":507.94270833332945,"velocity":0.7401574803149606,"duration":0.24348958333337123},{"name":"E4","midi":64,"time":507.94270833332945,"velocity":0.7401574803149606,"duration":0.24348958333337123},{"name":"A2","midi":45,"time":508.18749999999613,"velocity":0.7401574803149606,"duration":0.24348958333331439},{"name":"C5","midi":72,"time":508.18749999999613,"velocity":0.7401574803149606,"duration":0.24348958333331439},{"name":"E4","midi":64,"time":508.18749999999613,"velocity":0.7401574803149606,"duration":2.197916666666515},{"name":"B2","midi":47,"time":508.43359374999613,"velocity":0.7401574803149606,"duration":0.24348958333331439},{"name":"B4","midi":71,"time":508.43359374999613,"velocity":0.7401574803149606,"duration":0.24348958333331439},{"name":"C3","midi":48,"time":508.67838541666276,"velocity":0.7401574803149606,"duration":0.24348958333331439},{"name":"A4","midi":69,"time":508.67838541666276,"velocity":0.7401574803149606,"duration":0.24348958333331439},{"name":"C3","midi":48,"time":508.92447916666276,"velocity":0.7401574803149606,"duration":0.24348958333331439},{"name":"A4","midi":69,"time":508.92447916666276,"velocity":0.7401574803149606,"duration":0.24348958333331439},{"name":"B2","midi":47,"time":509.1692708333294,"velocity":0.7401574803149606,"duration":0.24348958333331439},{"name":"B4","midi":71,"time":509.1692708333294,"velocity":0.7401574803149606,"duration":0.24348958333331439},{"name":"A2","midi":45,"time":509.4153645833294,"velocity":0.7401574803149606,"duration":0.24348958333331439},{"name":"C5","midi":72,"time":509.4153645833294,"velocity":0.7401574803149606,"duration":0.24348958333331439},{"name":"D3","midi":50,"time":509.660156249996,"velocity":0.7401574803149606,"duration":0.24348958333331439},{"name":"F#4","midi":66,"time":509.660156249996,"velocity":0.7401574803149606,"duration":0.24348958333331439},{"name":"E3","midi":52,"time":509.906249999996,"velocity":0.7401574803149606,"duration":0.24348958333331439},{"name":"G#4","midi":68,"time":509.906249999996,"velocity":0.7401574803149606,"duration":0.24348958333331439},{"name":"F3","midi":53,"time":510.15104166666265,"velocity":0.7401574803149606,"duration":0.24348958333331439},{"name":"A4","midi":69,"time":510.15104166666265,"velocity":0.7401574803149606,"duration":0.24348958333331439},{"name":"F3","midi":53,"time":510.39713541666265,"velocity":0.7401574803149606,"duration":0.2421875},{"name":"B4","midi":71,"time":510.39713541666265,"velocity":0.7401574803149606,"duration":0.11979166666668561},{"name":"D4","midi":62,"time":510.39713541666265,"velocity":0.7401574803149606,"duration":1.2473958333333144},{"name":"A4","midi":69,"time":510.51822916666265,"velocity":0.7401574803149606,"duration":0.11979166666668561},{"name":"E3","midi":52,"time":510.64062499999596,"velocity":0.7401574803149606,"duration":0.24218750000005684},{"name":"B4","midi":71,"time":510.64062499999596,"velocity":0.7401574803149606,"duration":0.11979166666668561},{"name":"C5","midi":72,"time":510.76302083332934,"velocity":0.7401574803149606,"duration":0.11979166666668561},{"name":"D3","midi":50,"time":510.8854166666627,"velocity":0.7401574803149606,"duration":0.24348958333331439},{"name":"D5","midi":74,"time":510.8854166666627,"velocity":0.7401574803149606,"duration":0.24348958333331439},{"name":"E3","midi":52,"time":511.13020833332934,"velocity":0.7401574803149606,"duration":0.5130208333333144},{"name":"G#4","midi":68,"time":511.13020833332934,"velocity":0.7401574803149606,"duration":0.2552083333333144},{"name":"E4","midi":64,"time":511.38802083332934,"velocity":0.7401574803149606,"duration":0.2552083333333144},{"name":"D3","midi":50,"time":511.6458333333293,"velocity":0.7401574803149606,"duration":0.2552083333333144},{"name":"A4","midi":69,"time":511.6458333333293,"velocity":0.7401574803149606,"duration":0.5091145833332575},{"name":"C4","midi":60,"time":511.6458333333293,"velocity":0.7401574803149606,"duration":0.2552083333333144},{"name":"E3","midi":52,"time":511.9023437499959,"velocity":0.7401574803149606,"duration":0.5130208333333712},{"name":"B3","midi":59,"time":511.9023437499959,"velocity":0.7401574803149606,"duration":0.7708333333333712},{"name":"B4","midi":71,"time":512.1601562499959,"velocity":0.7401574803149606,"duration":0.25520833333337123},{"name":"E2","midi":40,"time":512.4179687499959,"velocity":0.7401574803149606,"duration":0.25520833333337123},{"name":"G#4","midi":68,"time":512.4179687499959,"velocity":0.7401574803149606,"duration":0.25520833333337123},{"name":"A2","midi":45,"time":512.6757812499959,"velocity":0.7401574803149606,"duration":3.90625},{"name":"A4","midi":69,"time":512.6757812499959,"velocity":0.7401574803149606,"duration":3.90625},{"name":"C#3","midi":49,"time":513.0247395833293,"velocity":0.7401574803149606,"duration":0.3515625},{"name":"E3","midi":52,"time":513.3736979166626,"velocity":0.7401574803149606,"duration":0.37760416666662877},{"name":"C#4","midi":61,"time":513.7851562499959,"velocity":0.7401574803149606,"duration":2.8229166666666288},{"name":"E4","midi":64,"time":513.7851562499959,"velocity":0.7401574803149606,"duration":2.8229166666666288},{"name":"A3","midi":57,"time":513.7851562499959,"velocity":0.7401574803149606,"duration":2.8229166666666288}],"controlChanges":{"7":[{"number":7,"time":0,"value":0.7874015748031497}]},"id":1,"name":"Harpsichord","instrumentNumber":6,"instrument":"harpsichord","instrumentFamily":"piano","channelNumber":0,"isPercussion":false}]}