{"header":{"PPQ":384,"timeSignature":[4,4],"bpm":120,"name":"--------"},"startTime":0,"duration":230.010416666665,"tracks":[{"startTime":0,"duration":0,"length":0,"notes":[],"controlChanges":{},"id":0,"name":"--------"},{"startTime":0.08333333333333333,"duration":230.010416666665,"length":1318,"notes":[{"name":"C4","midi":60,"time":0.08333333333333333,"velocity":0.84251968503937,"duration":1.5768229166666665},{"name":"E4","midi":64,"time":0.2799479166666667,"velocity":0.84251968503937,"duration":1.5768229166666665},{"name":"G4","midi":67,"time":0.47786458333333337,"velocity":0.84251968503937,"duration":0.5872395833333334},{"name":"C5","midi":72,"time":0.67578125,"velocity":0.84251968503937,"duration":0.5872395833333333},{"name":"E5","midi":76,"time":0.8723958333333334,"velocity":0.84251968503937,"duration":0.5872395833333331},{"name":"G4","midi":67,"time":1.0703125,"velocity":0.84251968503937,"duration":0.9830729166666665},{"name":"C5","midi":72,"time":1.2682291666666665,"velocity":0.84251968503937,"duration":0.9830729166666665},{"name":"E5","midi":76,"time":1.4648437499999998,"velocity":0.84251968503937,"duration":0.9830729166666667},{"name":"C4","midi":60,"time":1.6627604166666665,"velocity":0.84251968503937,"duration":1.5768229166666679},{"name":"E4","midi":64,"time":1.8606770833333333,"velocity":0.84251968503937,"duration":1.3776041666666676},{"name":"G4","midi":67,"time":2.0572916666666665,"velocity":0.84251968503937,"duration":0.5872395833333335},{"name":"C5","midi":72,"time":2.255208333333333,"velocity":0.84251968503937,"duration":0.5872395833333339},{"name":"E5","midi":76,"time":2.453125,"velocity":0.84251968503937,"duration":0.5872395833333339},{"name":"G4","midi":67,"time":2.6497395833333335,"velocity":0.84251968503937,"duration":0.7812500000000009},{"name":"C5","midi":72,"time":2.8476562500000004,"velocity":0.84251968503937,"duration":0.5924479166666674},{"name":"E5","midi":76,"time":3.0455729166666674,"velocity":0.84251968503937,"duration":0.9830729166666674},{"name":"C4","midi":60,"time":3.242187500000001,"velocity":0.84251968503937,"duration":1.576822916666666},{"name":"D4","midi":62,"time":3.440104166666668,"velocity":0.84251968503937,"duration":1.576822916666666},{"name":"A4","midi":69,"time":3.6380208333333344,"velocity":0.84251968503937,"duration":0.5872395833333335},{"name":"D5","midi":74,"time":3.834635416666668,"velocity":0.84251968503937,"duration":0.587239583333333},{"name":"F5","midi":77,"time":4.032552083333335,"velocity":0.84251968503937,"duration":0.5872395833333321},{"name":"A4","midi":69,"time":4.230468750000001,"velocity":0.84251968503937,"duration":0.9830729166666661},{"name":"D5","midi":74,"time":4.427083333333334,"velocity":0.84251968503937,"duration":0.9830729166666661},{"name":"F5","midi":77,"time":4.625,"velocity":0.84251968503937,"duration":0.9830729166666661},{"name":"C4","midi":60,"time":4.822916666666667,"velocity":0.84251968503937,"duration":1.5768229166666643},{"name":"D4","midi":62,"time":5.020833333333334,"velocity":0.84251968503937,"duration":1.5768229166666643},{"name":"A4","midi":69,"time":5.217447916666667,"velocity":0.84251968503937,"duration":0.5872395833333321},{"name":"D5","midi":74,"time":5.415364583333333,"velocity":0.84251968503937,"duration":0.5872395833333321},{"name":"F5","midi":77,"time":5.613281249999999,"velocity":0.84251968503937,"duration":0.5872395833333321},{"name":"A4","midi":69,"time":5.809895833333332,"velocity":0.84251968503937,"duration":0.7812499999999991},{"name":"D5","midi":74,"time":6.007812499999998,"velocity":0.84251968503937,"duration":0.983072916666667},{"name":"F5","midi":77,"time":6.205729166666664,"velocity":0.84251968503937,"duration":0.9830729166666679},{"name":"B3","midi":59,"time":6.402343749999998,"velocity":0.84251968503937,"duration":1.576822916666666},{"name":"D4","midi":62,"time":6.600260416666665,"velocity":0.84251968503937,"duration":1.5768229166666652},{"name":"G4","midi":67,"time":6.798177083333332,"velocity":0.84251968503937,"duration":0.587239583333333},{"name":"D5","midi":74,"time":6.994791666666665,"velocity":0.84251968503937,"duration":0.587239583333333},{"name":"F5","midi":77,"time":7.192708333333332,"velocity":0.84251968503937,"duration":0.5872395833333321},{"name":"G4","midi":67,"time":7.390624999999998,"velocity":0.84251968503937,"duration":0.9830729166666643},{"name":"D5","midi":74,"time":7.587239583333331,"velocity":0.84251968503937,"duration":0.9830729166666652},{"name":"F5","midi":77,"time":7.785156249999997,"velocity":0.84251968503937,"duration":0.983072916666667},{"name":"B3","midi":59,"time":7.983072916666664,"velocity":0.84251968503937,"duration":1.5768229166666696},{"name":"D4","midi":62,"time":8.179687499999996,"velocity":0.84251968503937,"duration":1.3776041666666714},{"name":"G4","midi":67,"time":8.377604166666663,"velocity":0.84251968503937,"duration":0.5872395833333357},{"name":"D5","midi":74,"time":8.57552083333333,"velocity":0.84251968503937,"duration":0.5872395833333357},{"name":"F5","midi":77,"time":8.772135416666664,"velocity":0.84251968503937,"duration":0.5872395833333357},{"name":"G4","midi":67,"time":8.970052083333332,"velocity":0.84251968503937,"duration":0.9830729166666696},{"name":"D5","midi":74,"time":9.16796875,"velocity":0.84251968503937,"duration":0.5924479166666679},{"name":"F5","midi":77,"time":9.364583333333334,"velocity":0.84251968503937,"duration":0.390625},{"name":"C4","midi":60,"time":9.5625,"velocity":0.84251968503937,"duration":1.5768229166666714},{"name":"E4","midi":64,"time":9.760416666666668,"velocity":0.84251968503937,"duration":1.5768229166666696},{"name":"G4","midi":67,"time":9.958333333333336,"velocity":0.84251968503937,"duration":0.5872395833333339},{"name":"C5","midi":72,"time":10.15494791666667,"velocity":0.84251968503937,"duration":0.5872395833333339},{"name":"E5","midi":76,"time":10.352864583333336,"velocity":0.84251968503937,"duration":0.5872395833333357},{"name":"G4","midi":67,"time":10.550781250000004,"velocity":0.84251968503937,"duration":0.9830729166666661},{"name":"C5","midi":72,"time":10.747395833333337,"velocity":0.84251968503937,"duration":0.9830729166666661},{"name":"E5","midi":76,"time":10.945312500000005,"velocity":0.84251968503937,"duration":0.9830729166666661},{"name":"C4","midi":60,"time":11.143229166666671,"velocity":0.84251968503937,"duration":1.5768229166666696},{"name":"E4","midi":64,"time":11.339843750000004,"velocity":0.84251968503937,"duration":1.5768229166666714},{"name":"G4","midi":67,"time":11.53776041666667,"velocity":0.84251968503937,"duration":0.5872395833333357},{"name":"C5","midi":72,"time":11.735677083333337,"velocity":0.84251968503937,"duration":0.5872395833333357},{"name":"E5","midi":76,"time":11.932291666666671,"velocity":0.84251968503937,"duration":0.5872395833333357},{"name":"G4","midi":67,"time":12.13020833333334,"velocity":0.84251968503937,"duration":0.7812500000000018},{"name":"C5","midi":72,"time":12.328125000000007,"velocity":0.84251968503937,"duration":0.9830729166666696},{"name":"E5","midi":76,"time":12.524739583333341,"velocity":0.84251968503937,"duration":0.7812500000000018},{"name":"C4","midi":60,"time":12.722656250000007,"velocity":0.84251968503937,"duration":1.5768229166666714},{"name":"E4","midi":64,"time":12.920572916666675,"velocity":0.84251968503937,"duration":1.5768229166666696},{"name":"A4","midi":69,"time":13.117187500000009,"velocity":0.84251968503937,"duration":0.5872395833333339},{"name":"E5","midi":76,"time":13.315104166666677,"velocity":0.84251968503937,"duration":0.5872395833333339},{"name":"A5","midi":81,"time":13.513020833333343,"velocity":0.84251968503937,"duration":0.5872395833333357},{"name":"A4","midi":69,"time":13.709635416666677,"velocity":0.84251968503937,"duration":0.9830729166666679},{"name":"E5","midi":76,"time":13.907552083333345,"velocity":0.84251968503937,"duration":0.9830729166666679},{"name":"A5","midi":81,"time":14.105468750000012,"velocity":0.84251968503937,"duration":0.9830729166666679},{"name":"C4","midi":60,"time":14.302083333333345,"velocity":0.84251968503937,"duration":1.5768229166666732},{"name":"E4","midi":64,"time":14.50000000000001,"velocity":0.84251968503937,"duration":1.3776041666666732},{"name":"A4","midi":69,"time":14.697916666666679,"velocity":0.84251968503937,"duration":0.5872395833333357},{"name":"E5","midi":76,"time":14.895833333333346,"velocity":0.84251968503937,"duration":0.5872395833333357},{"name":"A5","midi":81,"time":15.09244791666668,"velocity":0.84251968503937,"duration":0.5872395833333357},{"name":"A4","midi":69,"time":15.290364583333348,"velocity":0.84251968503937,"duration":0.9830729166666696},{"name":"E5","midi":76,"time":15.488281250000016,"velocity":0.84251968503937,"duration":0.5924479166666696},{"name":"A5","midi":81,"time":15.68489583333335,"velocity":0.84251968503937,"duration":0.5924479166666679},{"name":"C4","midi":60,"time":15.882812500000018,"velocity":0.84251968503937,"duration":1.5768229166666643},{"name":"D4","midi":62,"time":16.080729166666686,"velocity":0.84251968503937,"duration":1.5768229166666643},{"name":"F#4","midi":66,"time":16.277343750000018,"velocity":0.84251968503937,"duration":0.5872395833333357},{"name":"A4","midi":69,"time":16.475260416666686,"velocity":0.84251968503937,"duration":0.5872395833333321},{"name":"D5","midi":74,"time":16.673177083333353,"velocity":0.84251968503937,"duration":0.5872395833333286},{"name":"F#4","midi":66,"time":16.869791666666686,"velocity":0.84251968503937,"duration":0.9830729166666643},{"name":"A4","midi":69,"time":17.06770833333335,"velocity":0.84251968503937,"duration":0.9830729166666643},{"name":"D5","midi":74,"time":17.265625000000014,"velocity":0.84251968503937,"duration":0.9830729166666679},{"name":"C4","midi":60,"time":17.46223958333335,"velocity":0.84251968503937,"duration":1.5768229166666607},{"name":"D4","midi":62,"time":17.660156250000018,"velocity":0.84251968503937,"duration":1.5768229166666607},{"name":"F#4","midi":66,"time":17.858072916666682,"velocity":0.84251968503937,"duration":0.5872395833333321},{"name":"A4","midi":69,"time":18.054687500000014,"velocity":0.84251968503937,"duration":0.5872395833333321},{"name":"D5","midi":74,"time":18.252604166666682,"velocity":0.84251968503937,"duration":0.5872395833333286},{"name":"F#4","midi":66,"time":18.450520833333346,"velocity":0.84251968503937,"duration":0.5924479166666643},{"name":"A4","midi":69,"time":18.64713541666668,"velocity":0.84251968503937,"duration":0.6510416666666679},{"name":"D5","midi":74,"time":18.845052083333343,"velocity":0.84251968503937,"duration":0.7812500000000036},{"name":"B3","midi":59,"time":19.04296875000001,"velocity":0.84251968503937,"duration":1.5768229166666643},{"name":"D4","midi":62,"time":19.239583333333346,"velocity":0.84251968503937,"duration":1.5768229166666643},{"name":"G4","midi":67,"time":19.437500000000014,"velocity":0.84251968503937,"duration":0.5872395833333321},{"name":"D5","midi":74,"time":19.63541666666668,"velocity":0.84251968503937,"duration":0.5872395833333321},{"name":"G5","midi":79,"time":19.833333333333346,"velocity":0.84251968503937,"duration":0.5872395833333286},{"name":"G4","midi":67,"time":20.02994791666668,"velocity":0.84251968503937,"duration":0.9830729166666643},{"name":"D5","midi":74,"time":20.227864583333343,"velocity":0.84251968503937,"duration":0.9830729166666643},{"name":"G5","midi":79,"time":20.425781250000007,"velocity":0.84251968503937,"duration":0.9830729166666679},{"name":"B3","midi":59,"time":20.622395833333343,"velocity":0.84251968503937,"duration":1.5768229166666572},{"name":"D4","midi":62,"time":20.82031250000001,"velocity":0.84251968503937,"duration":1.3776041666666572},{"name":"G4","midi":67,"time":21.018229166666675,"velocity":0.84251968503937,"duration":0.5872395833333321},{"name":"D5","midi":74,"time":21.214843750000007,"velocity":0.84251968503937,"duration":0.5872395833333321},{"name":"G5","midi":79,"time":21.412760416666675,"velocity":0.84251968503937,"duration":0.5872395833333286},{"name":"G4","midi":67,"time":21.61067708333334,"velocity":0.84251968503937,"duration":0.9830729166666607},{"name":"D5","midi":74,"time":21.80729166666667,"velocity":0.84251968503937,"duration":0.5924479166666607},{"name":"G5","midi":79,"time":22.005208333333336,"velocity":0.84251968503937,"duration":0.39062499999999645},{"name":"B3","midi":59,"time":22.203125,"velocity":0.84251968503937,"duration":1.5768229166666607},{"name":"C4","midi":60,"time":22.399739583333332,"velocity":0.84251968503937,"duration":1.5768229166666643},{"name":"E4","midi":64,"time":22.59765625,"velocity":0.84251968503937,"duration":0.5872395833333321},{"name":"G4","midi":67,"time":22.795572916666668,"velocity":0.84251968503937,"duration":0.5872395833333286},{"name":"C5","midi":72,"time":22.9921875,"velocity":0.84251968503937,"duration":0.5872395833333286},{"name":"E4","midi":64,"time":23.190104166666664,"velocity":0.84251968503937,"duration":0.9830729166666643},{"name":"G4","midi":67,"time":23.38802083333333,"velocity":0.84251968503937,"duration":0.9830729166666679},{"name":"C5","midi":72,"time":23.58463541666666,"velocity":0.84251968503937,"duration":0.9830729166666679},{"name":"B3","midi":59,"time":23.78255208333333,"velocity":0.84251968503937,"duration":1.5768229166666643},{"name":"C4","midi":60,"time":23.980468749999996,"velocity":0.84251968503937,"duration":1.5768229166666643},{"name":"E4","midi":64,"time":24.17708333333333,"velocity":0.84251968503937,"duration":0.5872395833333321},{"name":"G4","midi":67,"time":24.374999999999996,"velocity":0.84251968503937,"duration":0.5872395833333321},{"name":"C5","midi":72,"time":24.57291666666666,"velocity":0.84251968503937,"duration":0.5872395833333321},{"name":"E4","midi":64,"time":24.77083333333333,"velocity":0.84251968503937,"duration":0.9830729166666679},{"name":"G4","midi":67,"time":24.96744791666666,"velocity":0.84251968503937,"duration":0.9830729166666679},{"name":"C5","midi":72,"time":25.165364583333325,"velocity":0.84251968503937,"duration":0.9830729166666679},{"name":"A3","midi":57,"time":25.363281249999993,"velocity":0.84251968503937,"duration":1.5768229166666607},{"name":"C4","midi":60,"time":25.55989583333333,"velocity":0.84251968503937,"duration":1.5768229166666607},{"name":"E4","midi":64,"time":25.757812499999996,"velocity":0.84251968503937,"duration":0.5872395833333286},{"name":"G4","midi":67,"time":25.95572916666666,"velocity":0.84251968503937,"duration":0.5872395833333286},{"name":"C5","midi":72,"time":26.152343749999993,"velocity":0.84251968503937,"duration":0.5872395833333286},{"name":"E4","midi":64,"time":26.350260416666657,"velocity":0.84251968503937,"duration":0.9830729166666643},{"name":"G4","midi":67,"time":26.54817708333332,"velocity":0.84251968503937,"duration":0.9830729166666679},{"name":"C5","midi":72,"time":26.744791666666654,"velocity":0.84251968503937,"duration":0.9830729166666679},{"name":"A3","midi":57,"time":26.94270833333332,"velocity":0.84251968503937,"duration":1.5768229166666572},{"name":"C4","midi":60,"time":27.14062499999999,"velocity":0.84251968503937,"duration":1.3776041666666572},{"name":"E4","midi":64,"time":27.33723958333332,"velocity":0.84251968503937,"duration":0.5872395833333321},{"name":"G4","midi":67,"time":27.53515624999999,"velocity":0.84251968503937,"duration":0.5872395833333286},{"name":"C5","midi":72,"time":27.733072916666654,"velocity":0.84251968503937,"duration":0.5872395833333286},{"name":"E4","midi":64,"time":27.929687499999986,"velocity":0.84251968503937,"duration":0.5924479166666607},{"name":"G4","midi":67,"time":28.12760416666665,"velocity":0.84251968503937,"duration":0.5924479166666643},{"name":"C5","midi":72,"time":28.325520833333314,"velocity":0.84251968503937,"duration":0.9830729166666679},{"name":"D3","midi":50,"time":28.522135416666647,"velocity":0.84251968503937,"duration":1.5768229166666679},{"name":"A3","midi":57,"time":28.720052083333314,"velocity":0.84251968503937,"duration":1.5768229166666679},{"name":"D4","midi":62,"time":28.917968749999982,"velocity":0.84251968503937,"duration":0.5872395833333321},{"name":"F#4","midi":66,"time":29.114583333333314,"velocity":0.84251968503937,"duration":0.5872395833333321},{"name":"C5","midi":72,"time":29.312499999999982,"velocity":0.84251968503937,"duration":0.5872395833333321},{"name":"D4","midi":62,"time":29.510416666666647,"velocity":0.84251968503937,"duration":0.9830729166666679},{"name":"F#4","midi":66,"time":29.708333333333314,"velocity":0.84251968503937,"duration":0.9830729166666679},{"name":"C5","midi":72,"time":29.904947916666647,"velocity":0.84251968503937,"duration":0.9830729166666679},{"name":"D3","midi":50,"time":30.102864583333314,"velocity":0.84251968503937,"duration":1.5768229166666572},{"name":"A3","midi":57,"time":30.300781249999982,"velocity":0.84251968503937,"duration":1.3776041666666572},{"name":"D4","midi":62,"time":30.497395833333314,"velocity":0.84251968503937,"duration":0.5872395833333321},{"name":"F#4","midi":66,"time":30.695312499999982,"velocity":0.84251968503937,"duration":0.5872395833333286},{"name":"C5","midi":72,"time":30.893229166666647,"velocity":0.84251968503937,"duration":0.5872395833333286},{"name":"D4","midi":62,"time":31.08984374999998,"velocity":0.84251968503937,"duration":0.9830729166666643},{"name":"F#4","midi":66,"time":31.287760416666643,"velocity":0.84251968503937,"duration":0.39062499999999645},{"name":"C5","midi":72,"time":31.485677083333307,"velocity":0.84251968503937,"duration":0.390625},{"name":"G3","midi":55,"time":31.68229166666664,"velocity":0.84251968503937,"duration":1.576822916666682},{"name":"B3","midi":59,"time":31.880208333333307,"velocity":0.84251968503937,"duration":1.5768229166666785},{"name":"D4","midi":62,"time":32.07812499999998,"velocity":0.84251968503937,"duration":0.5872395833333357},{"name":"G4","midi":67,"time":32.274739583333314,"velocity":0.84251968503937,"duration":0.5872395833333357},{"name":"B4","midi":71,"time":32.47265624999998,"velocity":0.84251968503937,"duration":0.5872395833333428},{"name":"D4","midi":62,"time":32.67057291666665,"velocity":0.84251968503937,"duration":0.9830729166666643},{"name":"G4","midi":67,"time":32.867187499999986,"velocity":0.84251968503937,"duration":0.9830729166666643},{"name":"B4","midi":71,"time":33.06510416666666,"velocity":0.84251968503937,"duration":0.9830729166666643},{"name":"G3","midi":55,"time":33.26302083333332,"velocity":0.84251968503937,"duration":1.5768229166666714},{"name":"B3","midi":59,"time":33.45963541666665,"velocity":0.84251968503937,"duration":1.3776041666666785},{"name":"D4","midi":62,"time":33.657552083333314,"velocity":0.84251968503937,"duration":0.5872395833333428},{"name":"G4","midi":67,"time":33.855468749999986,"velocity":0.84251968503937,"duration":0.5872395833333428},{"name":"B4","midi":71,"time":34.05208333333332,"velocity":0.84251968503937,"duration":0.5872395833333428},{"name":"D4","midi":62,"time":34.24999999999999,"velocity":0.84251968503937,"duration":0.78125},{"name":"G4","midi":67,"time":34.447916666666664,"velocity":0.84251968503937,"duration":0.9830729166666643},{"name":"B4","midi":71,"time":34.64583333333333,"velocity":0.84251968503937,"duration":0.390625},{"name":"G3","midi":55,"time":34.84244791666666,"velocity":0.84251968503937,"duration":1.5768229166666785},{"name":"A#3","midi":58,"time":35.04036458333333,"velocity":0.84251968503937,"duration":1.5768229166666714},{"name":"E4","midi":64,"time":35.23828124999999,"velocity":0.84251968503937,"duration":0.5872395833333357},{"name":"G4","midi":67,"time":35.43489583333333,"velocity":0.84251968503937,"duration":0.5872395833333357},{"name":"C#5","midi":73,"time":35.63281249999999,"velocity":0.84251968503937,"duration":0.5872395833333428},{"name":"E4","midi":64,"time":35.830729166666664,"velocity":0.84251968503937,"duration":0.9830729166666643},{"name":"G4","midi":67,"time":36.02734375,"velocity":0.84251968503937,"duration":0.9830729166666643},{"name":"C#5","midi":73,"time":36.22526041666667,"velocity":0.84251968503937,"duration":0.9830729166666643},{"name":"G3","midi":55,"time":36.423177083333336,"velocity":0.84251968503937,"duration":1.5768229166666785},{"name":"A#3","midi":58,"time":36.619791666666664,"velocity":0.84251968503937,"duration":1.3776041666666856},{"name":"E4","midi":64,"time":36.81770833333333,"velocity":0.84251968503937,"duration":0.5872395833333428},{"name":"G4","midi":67,"time":37.015625,"velocity":0.84251968503937,"duration":0.5872395833333428},{"name":"C#5","midi":73,"time":37.212239583333336,"velocity":0.84251968503937,"duration":0.5872395833333428},{"name":"E4","midi":64,"time":37.41015625000001,"velocity":0.84251968503937,"duration":0.7812500000000071},{"name":"G4","midi":67,"time":37.60807291666668,"velocity":0.84251968503937,"duration":0.5924479166666714},{"name":"C#5","midi":73,"time":37.804687500000014,"velocity":0.84251968503937,"duration":0.5924479166666714},{"name":"F3","midi":53,"time":38.00260416666668,"velocity":0.84251968503937,"duration":1.5768229166666785},{"name":"A3","midi":57,"time":38.20052083333335,"velocity":0.84251968503937,"duration":1.5768229166666714},{"name":"D4","midi":62,"time":38.397135416666686,"velocity":0.84251968503937,"duration":0.5872395833333286},{"name":"A4","midi":69,"time":38.59505208333335,"velocity":0.84251968503937,"duration":0.5872395833333357},{"name":"D5","midi":74,"time":38.792968750000014,"velocity":0.84251968503937,"duration":0.5872395833333428},{"name":"D4","midi":62,"time":38.98958333333335,"velocity":0.84251968503937,"duration":0.9830729166666714},{"name":"A4","midi":69,"time":39.18750000000002,"velocity":0.84251968503937,"duration":0.9830729166666714},{"name":"D5","midi":74,"time":39.38541666666669,"velocity":0.84251968503937,"duration":0.9830729166666714},{"name":"F3","midi":53,"time":39.58333333333336,"velocity":0.84251968503937,"duration":1.5768229166666856},{"name":"A3","midi":57,"time":39.779947916666686,"velocity":0.84251968503937,"duration":1.3776041666666927},{"name":"D4","midi":62,"time":39.97786458333336,"velocity":0.84251968503937,"duration":0.5872395833333428},{"name":"A4","midi":69,"time":40.17578125000003,"velocity":0.84251968503937,"duration":0.5872395833333428},{"name":"D5","midi":74,"time":40.372395833333364,"velocity":0.84251968503937,"duration":0.5872395833333428},{"name":"D4","midi":62,"time":40.570312500000036,"velocity":0.84251968503937,"duration":0.9830729166666714},{"name":"A4","midi":69,"time":40.76822916666671,"velocity":0.84251968503937,"duration":0.5924479166666643},{"name":"D5","midi":74,"time":40.96484375000004,"velocity":0.84251968503937,"duration":0.9830729166666643},{"name":"F3","midi":53,"time":41.16276041666671,"velocity":0.84251968503937,"duration":1.5768229166666785},{"name":"G#3","midi":56,"time":41.36067708333337,"velocity":0.84251968503937,"duration":1.5768229166666785},{"name":"D4","midi":62,"time":41.55729166666671,"velocity":0.84251968503937,"duration":0.5872395833333357},{"name":"F4","midi":65,"time":41.75520833333337,"velocity":0.84251968503937,"duration":0.5872395833333428},{"name":"B4","midi":71,"time":41.95312500000004,"velocity":0.84251968503937,"duration":0.5872395833333428},{"name":"D4","midi":62,"time":42.14973958333338,"velocity":0.84251968503937,"duration":0.9830729166666714},{"name":"F4","midi":65,"time":42.34765625000005,"velocity":0.84251968503937,"duration":0.9830729166666714},{"name":"B4","midi":71,"time":42.54557291666672,"velocity":0.84251968503937,"duration":0.9830729166666643},{"name":"F3","midi":53,"time":42.74218750000005,"velocity":0.84251968503937,"duration":1.5768229166666856},{"name":"G#3","midi":56,"time":42.940104166666714,"velocity":0.84251968503937,"duration":1.3776041666666856},{"name":"D4","midi":62,"time":43.138020833333385,"velocity":0.84251968503937,"duration":0.5872395833333357},{"name":"F4","midi":65,"time":43.33463541666672,"velocity":0.84251968503937,"duration":0.5872395833333357},{"name":"B4","midi":71,"time":43.532552083333385,"velocity":0.84251968503937,"duration":0.5872395833333428},{"name":"D4","midi":62,"time":43.73046875000006,"velocity":0.84251968503937,"duration":0.9830729166666856},{"name":"F4","midi":65,"time":43.92708333333339,"velocity":0.84251968503937,"duration":0.5924479166666785},{"name":"B4","midi":71,"time":44.125000000000064,"velocity":0.84251968503937,"duration":0.5924479166666785},{"name":"E3","midi":52,"time":44.322916666666735,"velocity":0.84251968503937,"duration":1.5768229166666785},{"name":"G3","midi":55,"time":44.52083333333341,"velocity":0.84251968503937,"duration":1.5768229166666714},{"name":"C4","midi":60,"time":44.71744791666674,"velocity":0.84251968503937,"duration":0.5872395833333286},{"name":"G4","midi":67,"time":44.91536458333341,"velocity":0.84251968503937,"duration":0.5872395833333357},{"name":"C5","midi":72,"time":45.11328125000007,"velocity":0.84251968503937,"duration":0.5872395833333428},{"name":"C4","midi":60,"time":45.30989583333341,"velocity":0.84251968503937,"duration":0.9830729166666714},{"name":"G4","midi":67,"time":45.50781250000008,"velocity":0.84251968503937,"duration":0.9830729166666714},{"name":"C5","midi":72,"time":45.70572916666675,"velocity":0.84251968503937,"duration":0.9830729166666643},{"name":"E3","midi":52,"time":45.90234375000008,"velocity":0.84251968503937,"duration":1.5768229166666856},{"name":"G3","midi":55,"time":46.10026041666674,"velocity":0.84251968503937,"duration":1.3776041666666856},{"name":"C4","midi":60,"time":46.298177083333414,"velocity":0.84251968503937,"duration":0.5872395833333357},{"name":"G4","midi":67,"time":46.49479166666675,"velocity":0.84251968503937,"duration":0.5872395833333357},{"name":"C5","midi":72,"time":46.692708333333414,"velocity":0.84251968503937,"duration":0.5872395833333428},{"name":"C4","midi":60,"time":46.890625000000085,"velocity":0.84251968503937,"duration":1.1822916666666785},{"name":"G4","midi":67,"time":47.08723958333342,"velocity":0.84251968503937,"duration":0.3906250000000071},{"name":"C5","midi":72,"time":47.28515625000009,"velocity":0.84251968503937,"duration":0.1927083333333357},{"name":"E3","midi":52,"time":47.483072916666764,"velocity":0.84251968503937,"duration":1.5768229166666714},{"name":"F3","midi":53,"time":47.6796875000001,"velocity":0.84251968503937,"duration":1.5768229166666643},{"name":"A3","midi":57,"time":47.877604166666764,"velocity":0.84251968503937,"duration":0.5872395833333357},{"name":"C4","midi":60,"time":48.07552083333343,"velocity":0.84251968503937,"duration":0.5859375000000071},{"name":"F4","midi":65,"time":48.272135416666764,"velocity":0.84251968503937,"duration":0.5872395833333357},{"name":"A3","midi":57,"time":48.470052083333435,"velocity":0.84251968503937,"duration":0.9830729166666643},{"name":"C4","midi":60,"time":48.6679687500001,"velocity":0.84251968503937,"duration":0.9830729166666714},{"name":"F4","midi":65,"time":48.864583333333435,"velocity":0.84251968503937,"duration":0.9830729166666714},{"name":"E3","midi":52,"time":49.0625000000001,"velocity":0.84251968503937,"duration":1.5768229166666856},{"name":"F3","midi":53,"time":49.260416666666764,"velocity":0.84251968503937,"duration":1.5768229166666856},{"name":"A3","midi":57,"time":49.458333333333435,"velocity":0.84251968503937,"duration":0.5872395833333428},{"name":"C4","midi":60,"time":49.65494791666677,"velocity":0.84251968503937,"duration":0.5872395833333428},{"name":"F4","midi":65,"time":49.85286458333344,"velocity":0.84251968503937,"duration":0.5872395833333428},{"name":"A3","midi":57,"time":50.050781250000114,"velocity":0.84251968503937,"duration":0.9830729166666643},{"name":"C4","midi":60,"time":50.24739583333345,"velocity":0.84251968503937,"duration":0.9830729166666643},{"name":"F4","midi":65,"time":50.44531250000012,"velocity":0.84251968503937,"duration":0.9830729166666643},{"name":"D3","midi":50,"time":50.643229166666785,"velocity":0.84251968503937,"duration":1.5768229166666785},{"name":"F3","midi":53,"time":50.839843750000114,"velocity":0.84251968503937,"duration":1.5768229166666785},{"name":"A3","midi":57,"time":51.03776041666678,"velocity":0.84251968503937,"duration":0.5872395833333428},{"name":"C4","midi":60,"time":51.23567708333345,"velocity":0.84251968503937,"duration":0.5872395833333428},{"name":"F4","midi":65,"time":51.432291666666785,"velocity":0.84251968503937,"duration":0.5872395833333428},{"name":"A3","midi":57,"time":51.63020833333346,"velocity":0.84251968503937,"duration":0.9830729166666714},{"name":"C4","midi":60,"time":51.82812500000013,"velocity":0.84251968503937,"duration":0.9830729166666643},{"name":"F4","midi":65,"time":52.024739583333464,"velocity":0.84251968503937,"duration":0.9830729166666643},{"name":"D3","midi":50,"time":52.22265625000013,"velocity":0.84251968503937,"duration":1.7682291666666856},{"name":"F3","midi":53,"time":52.42057291666679,"velocity":0.84251968503937,"duration":1.3776041666666856},{"name":"A3","midi":57,"time":52.61718750000013,"velocity":0.84251968503937,"duration":0.5872395833333357},{"name":"C4","midi":60,"time":52.81510416666679,"velocity":0.84251968503937,"duration":0.5872395833333428},{"name":"F4","midi":65,"time":53.013020833333464,"velocity":0.84251968503937,"duration":0.5872395833333428},{"name":"A3","midi":57,"time":53.2096354166668,"velocity":0.84251968503937,"duration":0.5924479166666785},{"name":"C4","midi":60,"time":53.40755208333347,"velocity":0.84251968503937,"duration":0.5924479166666785},{"name":"F4","midi":65,"time":53.60546875000014,"velocity":0.84251968503937,"duration":0.9830729166666714},{"name":"G2","midi":43,"time":53.80208333333348,"velocity":0.84251968503937,"duration":1.5768229166666785},{"name":"D3","midi":50,"time":54.00000000000015,"velocity":0.84251968503937,"duration":1.5768229166666714},{"name":"G3","midi":55,"time":54.19791666666681,"velocity":0.84251968503937,"duration":0.5872395833333357},{"name":"B3","midi":59,"time":54.39583333333348,"velocity":0.84251968503937,"duration":0.5872395833333428},{"name":"F4","midi":65,"time":54.59244791666681,"velocity":0.84251968503937,"duration":0.5872395833333428},{"name":"G3","midi":55,"time":54.790364583333485,"velocity":0.84251968503937,"duration":0.9830729166666714},{"name":"B3","midi":59,"time":54.988281250000156,"velocity":0.84251968503937,"duration":0.9830729166666643},{"name":"F4","midi":65,"time":55.18489583333349,"velocity":0.84251968503937,"duration":0.9830729166666643},{"name":"G2","midi":43,"time":55.382812500000156,"velocity":0.84251968503937,"duration":1.5768229166666856},{"name":"D3","midi":50,"time":55.58072916666682,"velocity":0.84251968503937,"duration":1.3776041666666856},{"name":"G3","midi":55,"time":55.777343750000156,"velocity":0.84251968503937,"duration":0.5872395833333357},{"name":"B3","midi":59,"time":55.97526041666682,"velocity":0.84251968503937,"duration":0.5872395833333428},{"name":"F4","midi":65,"time":56.17317708333349,"velocity":0.84251968503937,"duration":0.5872395833333428},{"name":"G3","midi":55,"time":56.36979166666683,"velocity":0.84251968503937,"duration":0.9830729166666785},{"name":"B3","midi":59,"time":56.5677083333335,"velocity":0.84251968503937,"duration":0.3906250000000071},{"name":"F4","midi":65,"time":56.76562500000017,"velocity":0.84251968503937,"duration":0.390625},{"name":"C3","midi":48,"time":56.962239583333506,"velocity":0.84251968503937,"duration":1.5768229166666785},{"name":"E3","midi":52,"time":57.16015625000017,"velocity":0.84251968503937,"duration":1.5768229166666785},{"name":"G3","midi":55,"time":57.35807291666684,"velocity":0.84251968503937,"duration":0.5872395833333357},{"name":"C4","midi":60,"time":57.55468750000018,"velocity":0.84251968503937,"duration":0.5872395833333357},{"name":"E4","midi":64,"time":57.75260416666684,"velocity":0.84251968503937,"duration":0.5872395833333428},{"name":"G3","midi":55,"time":57.95052083333351,"velocity":0.84251968503937,"duration":0.9830729166666643},{"name":"C4","midi":60,"time":58.14713541666685,"velocity":0.84251968503937,"duration":0.9830729166666643},{"name":"E4","midi":64,"time":58.34505208333352,"velocity":0.84251968503937,"duration":0.9830729166666643},{"name":"C3","midi":48,"time":58.542968750000185,"velocity":0.84251968503937,"duration":1.5768229166666785},{"name":"E3","midi":52,"time":58.73958333333351,"velocity":0.84251968503937,"duration":1.3776041666666856},{"name":"G3","midi":55,"time":58.93750000000018,"velocity":0.84251968503937,"duration":0.5872395833333428},{"name":"C4","midi":60,"time":59.13541666666685,"velocity":0.84251968503937,"duration":0.5872395833333428},{"name":"E4","midi":64,"time":59.33333333333352,"velocity":0.84251968503937,"duration":0.5872395833333428},{"name":"G3","midi":55,"time":59.529947916666856,"velocity":0.84251968503937,"duration":0.7812500000000071},{"name":"C4","midi":60,"time":59.72786458333353,"velocity":0.84251968503937,"duration":0.9830729166666714},{"name":"E4","midi":64,"time":59.9257812500002,"velocity":0.84251968503937,"duration":0.9830729166666643},{"name":"C3","midi":48,"time":60.12239583333353,"velocity":0.84251968503937,"duration":1.5768229166666785},{"name":"G3","midi":55,"time":60.3203125000002,"velocity":0.84251968503937,"duration":1.5768229166666714},{"name":"A#3","midi":58,"time":60.51822916666686,"velocity":0.84251968503937,"duration":0.5872395833333357},{"name":"C4","midi":60,"time":60.7148437500002,"velocity":0.84251968503937,"duration":0.5872395833333357},{"name":"E4","midi":64,"time":60.91276041666686,"velocity":0.84251968503937,"duration":0.5872395833333428},{"name":"A#3","midi":58,"time":61.110677083333535,"velocity":0.84251968503937,"duration":0.9830729166666643},{"name":"C4","midi":60,"time":61.30729166666687,"velocity":0.84251968503937,"duration":0.9830729166666643},{"name":"E4","midi":64,"time":61.50520833333354,"velocity":0.84251968503937,"duration":0.9830729166666643},{"name":"C3","midi":48,"time":61.703125000000206,"velocity":0.84251968503937,"duration":1.5768229166666785},{"name":"G3","midi":55,"time":61.899739583333535,"velocity":0.84251968503937,"duration":1.3776041666666856},{"name":"A#3","midi":58,"time":62.0976562500002,"velocity":0.84251968503937,"duration":0.5872395833333428},{"name":"C4","midi":60,"time":62.29557291666687,"velocity":0.84251968503937,"duration":0.5872395833333428},{"name":"E4","midi":64,"time":62.492187500000206,"velocity":0.84251968503937,"duration":0.5872395833333428},{"name":"A#3","midi":58,"time":62.69010416666688,"velocity":0.84251968503937,"duration":0.5924479166666714},{"name":"C4","midi":60,"time":62.88802083333355,"velocity":0.84251968503937,"duration":0.9830729166666643},{"name":"E4","midi":64,"time":63.084635416666885,"velocity":0.84251968503937,"duration":0.9830729166666572},{"name":"F2","midi":41,"time":63.28255208333355,"velocity":0.84251968503937,"duration":1.57682291666665},{"name":"F3","midi":53,"time":63.48046875000021,"velocity":0.84251968503937,"duration":1.5768229166666572},{"name":"A3","midi":57,"time":63.67708333333355,"velocity":0.84251968503937,"duration":0.5872395833333215},{"name":"C4","midi":60,"time":63.87500000000021,"velocity":0.84251968503937,"duration":0.5872395833333286},{"name":"E4","midi":64,"time":64.07291666666687,"velocity":0.84251968503937,"duration":0.5872395833333286},{"name":"A3","midi":57,"time":64.27083333333354,"velocity":0.84251968503937,"duration":0.9830729166666714},{"name":"C4","midi":60,"time":64.46744791666687,"velocity":0.84251968503937,"duration":0.9830729166666714},{"name":"E4","midi":64,"time":64.66536458333353,"velocity":0.84251968503937,"duration":0.9830729166666714},{"name":"F2","midi":41,"time":64.8632812500002,"velocity":0.84251968503937,"duration":1.576822916666643},{"name":"F3","midi":53,"time":65.05989583333354,"velocity":0.84251968503937,"duration":1.3776041666666288},{"name":"A3","midi":57,"time":65.25781250000021,"velocity":0.84251968503937,"duration":0.5872395833333144},{"name":"C4","midi":60,"time":65.45572916666687,"velocity":0.84251968503937,"duration":0.5872395833333144},{"name":"E4","midi":64,"time":65.6523437500002,"velocity":0.84251968503937,"duration":0.5872395833333144},{"name":"A3","midi":57,"time":65.85026041666686,"velocity":0.84251968503937,"duration":0.9830729166666572},{"name":"C4","midi":60,"time":66.04817708333351,"velocity":0.84251968503937,"duration":0.9830729166666714},{"name":"E4","midi":64,"time":66.24479166666684,"velocity":0.84251968503937,"duration":0.1927083333333286},{"name":"F#2","midi":42,"time":66.44270833333351,"velocity":0.84251968503937,"duration":1.5768229166666572},{"name":"C3","midi":48,"time":66.64062500000018,"velocity":0.84251968503937,"duration":1.5768229166666572},{"name":"A3","midi":57,"time":66.83723958333351,"velocity":0.84251968503937,"duration":0.5872395833333428},{"name":"C4","midi":60,"time":67.03515625000018,"velocity":0.84251968503937,"duration":0.5872395833333286},{"name":"D#4","midi":63,"time":67.23307291666686,"velocity":0.84251968503937,"duration":0.5872395833333144},{"name":"A3","midi":57,"time":67.42968750000018,"velocity":0.84251968503937,"duration":0.9830729166666572},{"name":"C4","midi":60,"time":67.62760416666684,"velocity":0.84251968503937,"duration":0.9830729166666572},{"name":"D#4","midi":63,"time":67.8255208333335,"velocity":0.84251968503937,"duration":0.9830729166666714},{"name":"F#2","midi":42,"time":68.02213541666684,"velocity":0.84251968503937,"duration":1.576822916666643},{"name":"C3","midi":48,"time":68.22005208333351,"velocity":0.84251968503937,"duration":1.377604166666643},{"name":"A3","midi":57,"time":68.41796875000017,"velocity":0.84251968503937,"duration":0.5872395833333286},{"name":"C4","midi":60,"time":68.6145833333335,"velocity":0.84251968503937,"duration":0.5872395833333286},{"name":"D#4","midi":63,"time":68.81250000000017,"velocity":0.84251968503937,"duration":0.5872395833333286},{"name":"A3","midi":57,"time":69.01041666666683,"velocity":0.84251968503937,"duration":0.390625},{"name":"C4","midi":60,"time":69.2083333333335,"velocity":0.84251968503937,"duration":0.9830729166666572},{"name":"D#4","midi":63,"time":69.40494791666683,"velocity":0.84251968503937,"duration":0.1927083333333286},{"name":"G#2","midi":44,"time":69.60286458333348,"velocity":0.84251968503937,"duration":1.5768229166666572},{"name":"F3","midi":53,"time":69.80078125000016,"velocity":0.84251968503937,"duration":1.5768229166666572},{"name":"B3","midi":59,"time":69.99739583333348,"velocity":0.84251968503937,"duration":0.5872395833333428},{"name":"C4","midi":60,"time":70.19531250000016,"velocity":0.84251968503937,"duration":0.390625},{"name":"D4","midi":62,"time":70.39322916666683,"velocity":0.84251968503937,"duration":0.5716145833333286},{"name":"B3","midi":59,"time":70.58984375000016,"velocity":0.84251968503937,"duration":0.9830729166666572},{"name":"C4","midi":60,"time":70.78776041666683,"velocity":0.84251968503937,"duration":0.3906249999999858},{"name":"D4","midi":62,"time":70.98567708333348,"velocity":0.84251968503937,"duration":0.9414062499999858},{"name":"G#2","midi":44,"time":71.18229166666681,"velocity":0.84251968503937,"duration":1.576822916666643},{"name":"F3","midi":53,"time":71.38020833333348,"velocity":0.84251968503937,"duration":1.576822916666643},{"name":"B3","midi":59,"time":71.57812500000014,"velocity":0.84251968503937,"duration":0.5872395833333286},{"name":"C4","midi":60,"time":71.77473958333347,"velocity":0.84251968503937,"duration":0.390625},{"name":"D4","midi":62,"time":71.97265625000014,"velocity":0.84251968503937,"duration":0.5872395833333144},{"name":"B3","midi":59,"time":72.1705729166668,"velocity":0.84251968503937,"duration":1.171875},{"name":"C4","midi":60,"time":72.36718750000013,"velocity":0.84251968503937,"duration":0.1927083333333286},{"name":"D4","midi":62,"time":72.56510416666679,"velocity":0.84251968503937,"duration":0.4244791666666856},{"name":"G2","midi":43,"time":72.76302083333346,"velocity":0.84251968503937,"duration":1.5768229166666572},{"name":"F3","midi":53,"time":72.9596354166668,"velocity":0.84251968503937,"duration":1.5768229166666572},{"name":"G3","midi":55,"time":73.15755208333347,"velocity":0.84251968503937,"duration":0.5872395833333144},{"name":"B3","midi":59,"time":73.35546875000013,"velocity":0.84251968503937,"duration":0.5872395833333144},{"name":"D4","midi":62,"time":73.55208333333346,"velocity":0.84251968503937,"duration":0.5872395833333144},{"name":"G3","midi":55,"time":73.75000000000011,"velocity":0.84251968503937,"duration":0.9830729166666714},{"name":"B3","midi":59,"time":73.94791666666677,"velocity":0.84251968503937,"duration":0.9830729166666714},{"name":"D4","midi":62,"time":74.14583333333344,"velocity":0.84251968503937,"duration":0.9830729166666714},{"name":"G2","midi":43,"time":74.34244791666679,"velocity":0.84251968503937,"duration":1.5768229166666288},{"name":"F3","midi":53,"time":74.54036458333346,"velocity":0.84251968503937,"duration":1.3776041666666288},{"name":"G3","midi":55,"time":74.73828125000011,"velocity":0.84251968503937,"duration":0.5872395833333286},{"name":"B3","midi":59,"time":74.93489583333344,"velocity":0.84251968503937,"duration":0.5872395833333286},{"name":"D4","midi":62,"time":75.13281250000011,"velocity":0.84251968503937,"duration":0.5872395833333144},{"name":"G3","midi":55,"time":75.33072916666677,"velocity":0.84251968503937,"duration":0.9830729166666288},{"name":"B3","midi":59,"time":75.5273437500001,"velocity":0.84251968503937,"duration":0.9830729166666288},{"name":"D4","midi":62,"time":75.72526041666676,"velocity":0.84251968503937,"duration":0.4427083333333144},{"name":"G2","midi":43,"time":75.92317708333341,"velocity":0.84251968503937,"duration":1.5768229166666146},{"name":"E3","midi":52,"time":76.11979166666674,"velocity":0.84251968503937,"duration":1.5768229166666288},{"name":"G3","midi":55,"time":76.3177083333334,"velocity":0.84251968503937,"duration":0.5872395833333144},{"name":"C4","midi":60,"time":76.51562500000006,"velocity":0.84251968503937,"duration":0.5872395833333144},{"name":"E4","midi":64,"time":76.71223958333339,"velocity":0.84251968503937,"duration":0.5872395833333144},{"name":"G3","midi":55,"time":76.91015625000004,"velocity":0.84251968503937,"duration":0.9830729166666572},{"name":"C4","midi":60,"time":77.1080729166667,"velocity":0.84251968503937,"duration":0.9830729166666714},{"name":"E4","midi":64,"time":77.30468750000003,"velocity":0.84251968503937,"duration":0.5755208333333428},{"name":"G2","midi":43,"time":77.5026041666667,"velocity":0.84251968503937,"duration":1.576822916666643},{"name":"E3","midi":52,"time":77.70052083333337,"velocity":0.84251968503937,"duration":1.377604166666643},{"name":"G3","midi":55,"time":77.8971354166667,"velocity":0.84251968503937,"duration":0.5872395833333428},{"name":"C4","midi":60,"time":78.09505208333337,"velocity":0.84251968503937,"duration":0.5872395833333286},{"name":"E4","midi":64,"time":78.29296875000004,"velocity":0.84251968503937,"duration":0.5872395833333144},{"name":"G3","midi":55,"time":78.48958333333337,"velocity":0.84251968503937,"duration":0.9830729166666288},{"name":"C4","midi":60,"time":78.68750000000003,"velocity":0.84251968503937,"duration":0.9830729166666288},{"name":"E4","midi":64,"time":78.88541666666669,"velocity":0.84251968503937,"duration":0.5755208333333144},{"name":"G2","midi":43,"time":79.08333333333334,"velocity":0.84251968503937,"duration":1.5768229166666146},{"name":"D3","midi":50,"time":79.27994791666667,"velocity":0.84251968503937,"duration":1.5768229166666288},{"name":"G3","midi":55,"time":79.47786458333333,"velocity":0.84251968503937,"duration":0.5872395833333144},{"name":"C4","midi":60,"time":79.67578124999999,"velocity":0.84251968503937,"duration":0.5872395833333144},{"name":"F4","midi":65,"time":79.87239583333331,"velocity":0.84251968503937,"duration":0.5872395833333144},{"name":"G3","midi":55,"time":80.07031249999997,"velocity":0.84251968503937,"duration":0.9830729166666572},{"name":"C4","midi":60,"time":80.26822916666663,"velocity":0.84251968503937,"duration":0.9830729166666714},{"name":"F4","midi":65,"time":80.46484374999996,"velocity":0.84251968503937,"duration":0.5755208333333428},{"name":"G2","midi":43,"time":80.66276041666663,"velocity":0.84251968503937,"duration":1.5768229166666572},{"name":"D3","midi":50,"time":80.8606770833333,"velocity":0.84251968503937,"duration":1.5768229166666572},{"name":"G3","midi":55,"time":81.05729166666663,"velocity":0.84251968503937,"duration":0.5872395833333428},{"name":"C4","midi":60,"time":81.2552083333333,"velocity":0.84251968503937,"duration":0.5872395833333286},{"name":"F4","midi":65,"time":81.45312499999997,"velocity":0.84251968503937,"duration":0.5872395833333144},{"name":"G3","midi":55,"time":81.6497395833333,"velocity":0.84251968503937,"duration":0.9830729166666572},{"name":"C4","midi":60,"time":81.84765624999996,"velocity":0.84251968503937,"duration":0.9830729166666572},{"name":"F4","midi":65,"time":82.04557291666661,"velocity":0.84251968503937,"duration":0.5755208333333428},{"name":"G2","midi":43,"time":82.24218749999996,"velocity":0.84251968503937,"duration":1.576822916666643},{"name":"D3","midi":50,"time":82.44010416666663,"velocity":0.84251968503937,"duration":1.576822916666643},{"name":"G3","midi":55,"time":82.63802083333329,"velocity":0.84251968503937,"duration":0.5872395833333286},{"name":"B3","midi":59,"time":82.83463541666661,"velocity":0.84251968503937,"duration":0.5872395833333286},{"name":"F4","midi":65,"time":83.03255208333329,"velocity":0.84251968503937,"duration":0.5872395833333144},{"name":"G3","midi":55,"time":83.23046874999994,"velocity":0.84251968503937,"duration":0.9830729166666572},{"name":"B3","midi":59,"time":83.42708333333327,"velocity":0.84251968503937,"duration":0.9830729166666572},{"name":"F4","midi":65,"time":83.62499999999993,"velocity":0.84251968503937,"duration":0.5755208333333428},{"name":"G2","midi":43,"time":83.8229166666666,"velocity":0.84251968503937,"duration":1.5768229166666288},{"name":"D3","midi":50,"time":84.02083333333327,"velocity":0.84251968503937,"duration":1.3776041666666288},{"name":"G3","midi":55,"time":84.2174479166666,"velocity":0.84251968503937,"duration":0.5872395833333286},{"name":"B3","midi":59,"time":84.41536458333326,"velocity":0.84251968503937,"duration":0.5872395833333286},{"name":"F4","midi":65,"time":84.61328124999993,"velocity":0.84251968503937,"duration":0.5872395833333144},{"name":"G3","midi":55,"time":84.80989583333326,"velocity":0.84251968503937,"duration":0.983072916666643},{"name":"B3","midi":59,"time":85.00781249999991,"velocity":0.84251968503937,"duration":0.7812499999999858},{"name":"F4","midi":65,"time":85.20572916666657,"velocity":0.84251968503937,"duration":0.390625},{"name":"G2","midi":43,"time":85.4023437499999,"velocity":0.84251968503937,"duration":1.576822916666643},{"name":"D#3","midi":51,"time":85.60026041666657,"velocity":0.84251968503937,"duration":1.576822916666643},{"name":"A3","midi":57,"time":85.79817708333323,"velocity":0.84251968503937,"duration":0.5872395833333286},{"name":"C4","midi":60,"time":85.99479166666656,"velocity":0.84251968503937,"duration":0.5872395833333286},{"name":"F#4","midi":66,"time":86.19270833333323,"velocity":0.84251968503937,"duration":0.5872395833333144},{"name":"A3","midi":57,"time":86.39062499999989,"velocity":0.84251968503937,"duration":0.9830729166666572},{"name":"C4","midi":60,"time":86.58723958333321,"velocity":0.84251968503937,"duration":0.9830729166666572},{"name":"F#4","midi":66,"time":86.78515624999987,"velocity":0.84251968503937,"duration":0.5755208333333428},{"name":"G2","midi":43,"time":86.98307291666654,"velocity":0.84251968503937,"duration":1.5768229166666288},{"name":"D#3","midi":51,"time":87.17968749999989,"velocity":0.84251968503937,"duration":1.3776041666666146},{"name":"A3","midi":57,"time":87.37760416666654,"velocity":0.84251968503937,"duration":0.5872395833333144},{"name":"C4","midi":60,"time":87.5755208333332,"velocity":0.84251968503937,"duration":0.5872395833333144},{"name":"F#4","midi":66,"time":87.77213541666653,"velocity":0.84251968503937,"duration":0.5872395833333144},{"name":"A3","midi":57,"time":87.97005208333319,"velocity":0.84251968503937,"duration":0.7812499999999858},{"name":"C4","midi":60,"time":88.16796874999984,"velocity":0.84251968503937,"duration":0.9830729166666572},{"name":"F#4","midi":66,"time":88.36458333333317,"velocity":0.84251968503937,"duration":0.390625},{"name":"G2","midi":43,"time":88.56249999999984,"velocity":0.84251968503937,"duration":1.576822916666643},{"name":"E3","midi":52,"time":88.7604166666665,"velocity":0.84251968503937,"duration":1.5768229166666572},{"name":"G3","midi":55,"time":88.95833333333317,"velocity":0.84251968503937,"duration":0.5872395833333286},{"name":"C4","midi":60,"time":89.1549479166665,"velocity":0.84251968503937,"duration":0.5872395833333286},{"name":"G4","midi":67,"time":89.35286458333317,"velocity":0.84251968503937,"duration":0.5872395833333144},{"name":"G3","midi":55,"time":89.55078124999983,"velocity":0.84251968503937,"duration":0.9830729166666572},{"name":"C4","midi":60,"time":89.74739583333316,"velocity":0.84251968503937,"duration":0.9830729166666572},{"name":"G4","midi":67,"time":89.94531249999982,"velocity":0.84251968503937,"duration":0.5755208333333428},{"name":"G2","midi":43,"time":90.14322916666649,"velocity":0.84251968503937,"duration":1.5768229166666288},{"name":"E3","midi":52,"time":90.33984374999983,"velocity":0.84251968503937,"duration":1.3776041666666146},{"name":"G3","midi":55,"time":90.53776041666649,"velocity":0.84251968503937,"duration":0.5872395833333144},{"name":"C4","midi":60,"time":90.73567708333314,"velocity":0.84251968503937,"duration":0.5872395833333144},{"name":"G4","midi":67,"time":90.93229166666647,"velocity":0.84251968503937,"duration":0.5872395833333144},{"name":"G3","midi":55,"time":91.13020833333313,"velocity":0.84251968503937,"duration":0.9869791666666572},{"name":"C4","midi":60,"time":91.32812499999979,"velocity":0.84251968503937,"duration":0.98828125},{"name":"G4","midi":67,"time":91.52473958333312,"velocity":0.84251968503937,"duration":0.5794270833333428},{"name":"G2","midi":43,"time":91.72265624999979,"velocity":0.84251968503937,"duration":1.5937499999999858},{"name":"D3","midi":50,"time":91.92187499999979,"velocity":0.84251968503937,"duration":1.5937499999999858},{"name":"G3","midi":55,"time":92.12239583333312,"velocity":0.84251968503937,"duration":0.59375},{"name":"C4","midi":60,"time":92.32161458333312,"velocity":0.84251968503937,"duration":0.59375},{"name":"F4","midi":65,"time":92.52083333333312,"velocity":0.84251968503937,"duration":0.59375},{"name":"G3","midi":55,"time":92.72005208333312,"velocity":0.84251968503937,"duration":0.9934895833333286},{"name":"C4","midi":60,"time":92.92057291666644,"velocity":0.84251968503937,"duration":0.9934895833333286},{"name":"F4","midi":65,"time":93.11979166666644,"velocity":0.84251968503937,"duration":0.58203125},{"name":"G2","midi":43,"time":93.31901041666644,"velocity":0.84251968503937,"duration":1.5937499999999858},{"name":"D3","midi":50,"time":93.51822916666644,"velocity":0.84251968503937,"duration":1.5976562499999858},{"name":"G3","midi":55,"time":93.71874999999977,"velocity":0.84251968503937,"duration":0.59375},{"name":"C4","midi":60,"time":93.91796874999977,"velocity":0.84251968503937,"duration":0.59375},{"name":"F4","midi":65,"time":94.11718749999977,"velocity":0.84251968503937,"duration":0.59375},{"name":"G3","midi":55,"time":94.31640624999977,"velocity":0.84251968503937,"duration":0.9986979166666572},{"name":"C4","midi":60,"time":94.5169270833331,"velocity":0.84251968503937,"duration":0.6015625},{"name":"F4","midi":65,"time":94.7161458333331,"velocity":0.84251968503937,"duration":0.5872395833333286},{"name":"G2","midi":43,"time":94.9153645833331,"velocity":0.84251968503937,"duration":1.6249999999999716},{"name":"D3","midi":50,"time":95.11979166666643,"velocity":0.84251968503937,"duration":1.6249999999999858},{"name":"G3","midi":55,"time":95.32031249999976,"velocity":0.84251968503937,"duration":0.6067708333333286},{"name":"B3","midi":59,"time":95.52473958333309,"velocity":0.84251968503937,"duration":0.6067708333333286},{"name":"F4","midi":65,"time":95.72786458333309,"velocity":0.84251968503937,"duration":0.6067708333333286},{"name":"G3","midi":55,"time":95.93229166666642,"velocity":0.84251968503937,"duration":1.01171875},{"name":"B3","midi":59,"time":96.13541666666642,"velocity":0.84251968503937,"duration":1.01171875},{"name":"F4","midi":65,"time":96.33984374999974,"velocity":0.84251968503937,"duration":0.5924479166666714},{"name":"G2","midi":43,"time":96.54296874999974,"velocity":0.84251968503937,"duration":1.625},{"name":"D3","midi":50,"time":96.74609374999974,"velocity":0.84251968503937,"duration":1.4192708333333286},{"name":"G3","midi":55,"time":96.94791666666642,"velocity":0.84251968503937,"duration":0.6067708333333286},{"name":"B3","midi":59,"time":97.15234374999974,"velocity":0.84251968503937,"duration":0.6067708333333286},{"name":"F4","midi":65,"time":97.35546874999974,"velocity":0.84251968503937,"duration":0.6067708333333286},{"name":"G3","midi":55,"time":97.55859374999974,"velocity":0.84251968503937,"duration":1.0299479166666714},{"name":"B3","midi":59,"time":97.76302083333307,"velocity":0.84251968503937,"duration":0.40234375},{"name":"F4","midi":65,"time":97.96614583333307,"velocity":0.84251968503937,"duration":0.6263020833333428},{"name":"C2","midi":36,"time":98.17057291666642,"velocity":0.84251968503937,"duration":1.6927083333333144},{"name":"C3","midi":48,"time":98.38151041666642,"velocity":0.84251968503937,"duration":1.7005208333333144},{"name":"G3","midi":55,"time":98.59374999999974,"velocity":0.84251968503937,"duration":0.6315104166666572},{"name":"A#3","midi":58,"time":98.80598958333307,"velocity":0.84251968503937,"duration":0.6315104166666572},{"name":"E4","midi":64,"time":99.0182291666664,"velocity":0.84251968503937,"duration":0.6315104166666572},{"name":"G3","midi":55,"time":99.2291666666664,"velocity":0.84251968503937,"duration":1.0716145833333286},{"name":"A#3","midi":58,"time":99.44140624999973,"velocity":0.84251968503937,"duration":1.0794270833333286},{"name":"E4","midi":64,"time":99.65364583333306,"velocity":0.84251968503937,"duration":1.0872395833333286},{"name":"C2","midi":36,"time":99.8658854166664,"velocity":0.84251968503937,"duration":1.7578124999999716},{"name":"C3","midi":48,"time":100.08593749999973,"velocity":0.84251968503937,"duration":1.772135416666643},{"name":"G3","midi":55,"time":100.30598958333306,"velocity":0.84251968503937,"duration":0.6562499999999858},{"name":"A#3","midi":58,"time":100.52604166666639,"velocity":0.84251968503937,"duration":0.6562499999999858},{"name":"E4","midi":64,"time":100.74609374999972,"velocity":0.84251968503937,"duration":0.6562499999999858},{"name":"G3","midi":55,"time":100.96614583333304,"velocity":0.84251968503937,"duration":0.66015625},{"name":"A#3","midi":58,"time":101.18619791666637,"velocity":0.84251968503937,"duration":0.4348958333333286},{"name":"E4","midi":64,"time":101.4062499999997,"velocity":0.84251968503937,"duration":0.4505208333333428},{"name":"C2","midi":36,"time":101.62630208333304,"velocity":0.84251968503937,"duration":3.800781249999986},{"name":"C3","midi":48,"time":101.86067708333304,"velocity":0.84251968503937,"duration":2.824218749999986},{"name":"F3","midi":53,"time":102.09505208333304,"velocity":0.84251968503937,"duration":1.8736979166666572},{"name":"A3","midi":57,"time":102.33072916666637,"velocity":0.84251968503937,"duration":0.9270833333333286},{"name":"C4","midi":60,"time":102.56510416666637,"velocity":0.84251968503937,"duration":0.46484375},{"name":"F4","midi":65,"time":102.79947916666637,"velocity":0.84251968503937,"duration":0.703125},{"name":"C4","midi":60,"time":103.03385416666637,"velocity":0.84251968503937,"duration":0.46484375},{"name":"A3","midi":57,"time":103.26822916666637,"velocity":0.84251968503937,"duration":0.46484375},{"name":"C4","midi":60,"time":103.50260416666637,"velocity":0.84251968503937,"duration":0.703125},{"name":"A3","midi":57,"time":103.73697916666637,"velocity":0.84251968503937,"duration":0.46484375},{"name":"F3","midi":53,"time":103.97135416666637,"velocity":0.84251968503937,"duration":0.46484375},{"name":"A3","midi":57,"time":104.20572916666637,"velocity":0.84251968503937,"duration":0.7291666666666572},{"name":"F3","midi":53,"time":104.4414062499997,"velocity":0.84251968503937,"duration":0.4947916666666572},{"name":"D3","midi":50,"time":104.6914062499997,"velocity":0.84251968503937,"duration":0.4947916666666572},{"name":"F3","midi":53,"time":104.94270833333303,"velocity":0.84251968503937,"duration":0.7565104166666714},{"name":"D3","midi":50,"time":105.19401041666636,"velocity":0.84251968503937,"duration":0.4986979166666714},{"name":"C2","midi":36,"time":105.4453124999997,"velocity":0.84251968503937,"duration":4.194010416666671},{"name":"B2","midi":47,"time":105.70052083333303,"velocity":0.84251968503937,"duration":4.229166666666686},{"name":"G4","midi":67,"time":105.95442708333303,"velocity":0.84251968503937,"duration":2.0364583333333286},{"name":"B4","midi":71,"time":106.20963541666636,"velocity":0.84251968503937,"duration":1.0091145833333286},{"name":"D5","midi":74,"time":106.46484374999969,"velocity":0.84251968503937,"duration":0.50390625},{"name":"F5","midi":77,"time":106.72005208333302,"velocity":0.84251968503937,"duration":0.7643229166666714},{"name":"D5","midi":74,"time":106.97526041666636,"velocity":0.84251968503937,"duration":0.50390625},{"name":"B4","midi":71,"time":107.23046874999969,"velocity":0.84251968503937,"duration":0.50390625},{"name":"D5","midi":74,"time":107.48567708333302,"velocity":0.84251968503937,"duration":0.763020833333357},{"name":"B4","midi":71,"time":107.74088541666636,"velocity":0.84251968503937,"duration":0.5013020833333428},{"name":"G4","midi":67,"time":107.99348958333303,"velocity":0.84251968503937,"duration":0.7916666666666714},{"name":"B4","midi":71,"time":108.24869791666637,"velocity":0.84251968503937,"duration":1.4088541666666714},{"name":"D4","midi":62,"time":108.5039062499997,"velocity":0.84251968503937,"duration":0.5690104166666714},{"name":"F4","midi":65,"time":108.79166666666637,"velocity":0.84251968503937,"duration":1.1432291666666714},{"name":"E4","midi":64,"time":109.07942708333304,"velocity":0.84251968503937,"duration":0.28515625},{"name":"D4","midi":62,"time":109.36848958333304,"velocity":0.84251968503937,"duration":0.5729166666666714},{"name":"C2","midi":36,"time":109.65755208333304,"velocity":0.84251968503937,"duration":6.233072916666686},{"name":"C3","midi":48,"time":110.09244791666639,"velocity":0.84251968503937,"duration":5.799479166666671},{"name":"E4","midi":64,"time":110.52473958333306,"velocity":0.84251968503937,"duration":5.3671875},{"name":"G4","midi":67,"time":110.95572916666639,"velocity":0.84251968503937,"duration":4.934895833333343},{"name":"C5","midi":72,"time":111.38802083333306,"velocity":0.84251968503937,"duration":4.502604166666671},{"name":"C4","midi":60,"time":116.39192708333306,"velocity":0.84251968503937,"duration":0.5},{"name":"D4","midi":62,"time":116.89192708333306,"velocity":0.84251968503937,"duration":0.4427083333333286},{"name":"E4","midi":64,"time":117.39192708333306,"velocity":0.84251968503937,"duration":0.4427083333333286},{"name":"F4","midi":65,"time":117.89192708333306,"velocity":0.84251968503937,"duration":0.7486979166666714},{"name":"G4","midi":67,"time":118.64192708333306,"velocity":0.84251968503937,"duration":0.1223958333333286},{"name":"F4","midi":65,"time":118.76822916666639,"velocity":0.84251968503937,"duration":0.1223958333333286},{"name":"E4","midi":64,"time":118.89322916666639,"velocity":0.84251968503937,"duration":0.4973958333333286},{"name":"A4","midi":69,"time":119.39322916666639,"velocity":0.84251968503937,"duration":0.4427083333333286},{"name":"D4","midi":62,"time":119.89322916666639,"velocity":0.84251968503937,"duration":0.46875},{"name":"G4","midi":67,"time":120.37499999999972,"velocity":0.84251968503937,"duration":0.1106770833333286},{"name":"F4","midi":65,"time":120.48177083333304,"velocity":0.84251968503937,"duration":0.1106770833333286},{"name":"G4","midi":67,"time":120.58854166666637,"velocity":0.84251968503937,"duration":0.6067708333333428},{"name":"A4","midi":69,"time":121.16536458333304,"velocity":0.84251968503937,"duration":0.24609375},{"name":"G4","midi":67,"time":121.41406249999972,"velocity":0.84251968503937,"duration":0.24609375},{"name":"F4","midi":65,"time":121.66276041666639,"velocity":0.84251968503937,"duration":0.24609375},{"name":"E4","midi":64,"time":121.91145833333306,"velocity":0.84251968503937,"duration":0.24609375},{"name":"F4","midi":65,"time":122.16015624999973,"velocity":0.84251968503937,"duration":0.24609375},{"name":"E4","midi":64,"time":122.41015624999973,"velocity":0.84251968503937,"duration":0.24609375},{"name":"G4","midi":67,"time":122.41015624999973,"velocity":0.84251968503937,"duration":0.4817708333333428},{"name":"D4","midi":62,"time":122.6588541666664,"velocity":0.84251968503937,"duration":0.24609375},{"name":"C4","midi":60,"time":122.90755208333307,"velocity":0.84251968503937,"duration":0.24609375},{"name":"A4","midi":69,"time":122.90755208333307,"velocity":0.84251968503937,"duration":0.3515625},{"name":"D4","midi":62,"time":123.15624999999974,"velocity":0.84251968503937,"duration":0.24609375},{"name":"C4","midi":60,"time":123.40494791666642,"velocity":0.84251968503937,"duration":0.24609375},{"name":"B4","midi":71,"time":123.40494791666642,"velocity":0.84251968503937,"duration":0.3515625},{"name":"B3","midi":59,"time":123.65364583333309,"velocity":0.84251968503937,"duration":0.24609375},{"name":"A3","midi":57,"time":123.90364583333309,"velocity":0.84251968503937,"duration":0.4973958333333286},{"name":"C5","midi":72,"time":123.90364583333309,"velocity":0.84251968503937,"duration":0.74609375},{"name":"F#4","midi":66,"time":124.40364583333309,"velocity":0.84251968503937,"duration":0.4973958333333286},{"name":"D5","midi":74,"time":124.65234374999976,"velocity":0.84251968503937,"duration":0.1223958333333286},{"name":"C5","midi":72,"time":124.77734374999976,"velocity":0.84251968503937,"duration":0.1223958333333286},{"name":"G4","midi":67,"time":124.90234374999974,"velocity":0.84251968503937,"duration":1.515625},{"name":"B4","midi":71,"time":124.90234374999974,"velocity":0.84251968503937,"duration":0.4973958333333286},{"name":"E5","midi":76,"time":125.40234374999974,"velocity":0.84251968503937,"duration":0.375},{"name":"A4","midi":69,"time":125.90234374999974,"velocity":0.84251968503937,"duration":0.4947916666666714},{"name":"F#4","midi":66,"time":126.40234374999974,"velocity":0.84251968503937,"duration":0.2486979166666572},{"name":"D5","midi":74,"time":126.40234374999974,"velocity":0.84251968503937,"duration":0.1223958333333286},{"name":"C5","midi":72,"time":126.52864583333307,"velocity":0.84251968503937,"duration":0.1223958333333286},{"name":"E4","midi":64,"time":126.65364583333307,"velocity":0.84251968503937,"duration":0.24609375},{"name":"D5","midi":74,"time":126.65364583333307,"velocity":0.84251968503937,"duration":0.4947916666666714},{"name":"F#4","midi":66,"time":126.90234374999974,"velocity":0.84251968503937,"duration":0.4947916666666714},{"name":"E5","midi":76,"time":127.15104166666642,"velocity":0.84251968503937,"duration":0.24609375},{"name":"D4","midi":62,"time":127.40104166666642,"velocity":0.84251968503937,"duration":0.4947916666666714},{"name":"D5","midi":74,"time":127.40104166666642,"velocity":0.84251968503937,"duration":0.24609375},{"name":"C5","midi":72,"time":127.64973958333309,"velocity":0.84251968503937,"duration":0.24609375},{"name":"G4","midi":67,"time":127.89843749999976,"velocity":0.84251968503937,"duration":0.2447916666666714},{"name":"B4","midi":71,"time":127.89843749999976,"velocity":0.84251968503937,"duration":0.2460937500000142},{"name":"G4","midi":67,"time":128.14713541666643,"velocity":0.84251968503937,"duration":0.24609375},{"name":"G3","midi":55,"time":128.3958333333331,"velocity":0.84251968503937,"duration":0.4947916666666572},{"name":"F4","midi":65,"time":128.3958333333331,"velocity":0.84251968503937,"duration":0.4947916666666572},{"name":"A4","midi":69,"time":128.3958333333331,"velocity":0.84251968503937,"duration":0.24609375},{"name":"B4","midi":71,"time":128.64453124999974,"velocity":0.84251968503937,"duration":0.24609375},{"name":"A3","midi":57,"time":128.89453124999974,"velocity":0.84251968503937,"duration":0.4296875},{"name":"E4","midi":64,"time":128.89453124999974,"velocity":0.84251968503937,"duration":0.4947916666666572},{"name":"C5","midi":72,"time":128.89453124999974,"velocity":0.84251968503937,"duration":0.24609375},{"name":"B4","midi":71,"time":129.1432291666664,"velocity":0.84251968503937,"duration":0.24609375},{"name":"B3","midi":59,"time":129.39192708333306,"velocity":0.84251968503937,"duration":0.4296875},{"name":"D4","midi":62,"time":129.39192708333306,"velocity":0.84251968503937,"duration":0.4947916666666572},{"name":"C5","midi":72,"time":129.39192708333306,"velocity":0.84251968503937,"duration":0.24609375},{"name":"D5","midi":74,"time":129.64062499999972,"velocity":0.84251968503937,"duration":0.24609375},{"name":"C4","midi":60,"time":129.88932291666637,"velocity":0.84251968503937,"duration":0.7434895833333144},{"name":"E5","midi":76,"time":129.88932291666637,"velocity":0.84251968503937,"duration":0.24609375},{"name":"D5","midi":74,"time":130.13932291666637,"velocity":0.84251968503937,"duration":0.24609375},{"name":"E5","midi":76,"time":130.38802083333303,"velocity":0.84251968503937,"duration":0.24609375},{"name":"D4","midi":62,"time":130.6367187499997,"velocity":0.84251968503937,"duration":0.12239583333334281},{"name":"F#5","midi":78,"time":130.6367187499997,"velocity":0.84251968503937,"duration":0.24869791666668561},{"name":"C4","midi":60,"time":130.7617187499997,"velocity":0.84251968503937,"duration":0.12239583333334281},{"name":"B3","midi":59,"time":130.88802083333303,"velocity":0.84251968503937,"duration":0.4973958333333428},{"name":"G5","midi":79,"time":130.88802083333303,"velocity":0.84251968503937,"duration":0.5052083333333428},{"name":"E4","midi":64,"time":131.38802083333303,"velocity":0.84251968503937,"duration":0.375},{"name":"G4","midi":67,"time":131.38802083333303,"velocity":0.84251968503937,"duration":0.9973958333333144},{"name":"B4","midi":71,"time":131.38802083333303,"velocity":0.84251968503937,"duration":0.4973958333333428},{"name":"A3","midi":57,"time":131.88802083333303,"velocity":0.84251968503937,"duration":0.4947916666666572},{"name":"C5","midi":72,"time":131.88802083333303,"velocity":0.84251968503937,"duration":0.4973958333333144},{"name":"D4","midi":62,"time":132.388020833333,"velocity":0.84251968503937,"duration":0.1822916666666572},{"name":"F4","midi":65,"time":132.388020833333,"velocity":0.84251968503937,"duration":0.2486979166666572},{"name":"A4","midi":69,"time":132.388020833333,"velocity":0.84251968503937,"duration":0.4973958333333428},{"name":"C4","midi":60,"time":132.513020833333,"velocity":0.84251968503937,"duration":0.1822916666666572},{"name":"D4","midi":62,"time":132.638020833333,"velocity":0.84251968503937,"duration":0.4934895833333428},{"name":"E4","midi":64,"time":132.638020833333,"velocity":0.84251968503937,"duration":0.24609375},{"name":"F4","midi":65,"time":132.8867187499997,"velocity":0.84251968503937,"duration":1.2421874999999716},{"name":"D5","midi":74,"time":132.8867187499997,"velocity":0.84251968503937,"duration":0.24609375},{"name":"E4","midi":64,"time":133.1367187499997,"velocity":0.84251968503937,"duration":0.24609375},{"name":"C5","midi":72,"time":133.1367187499997,"velocity":0.84251968503937,"duration":0.24609375},{"name":"D4","midi":62,"time":133.38541666666634,"velocity":0.84251968503937,"duration":0.24609375},{"name":"B4","midi":71,"time":133.38541666666634,"velocity":0.84251968503937,"duration":0.24609375},{"name":"C4","midi":60,"time":133.634114583333,"velocity":0.84251968503937,"duration":0.24609375},{"name":"A4","midi":69,"time":133.634114583333,"velocity":0.84251968503937,"duration":0.24609375},{"name":"B3","midi":59,"time":133.88281249999966,"velocity":0.84251968503937,"duration":0.4947916666666572},{"name":"G4","midi":67,"time":133.88281249999966,"velocity":0.84251968503937,"duration":0.7434895833333144},{"name":"F4","midi":65,"time":134.13151041666632,"velocity":0.84251968503937,"duration":0.24609375},{"name":"C3","midi":48,"time":134.38151041666632,"velocity":0.84251968503937,"duration":0.4947916666666572},{"name":"C4","midi":60,"time":134.38151041666632,"velocity":0.84251968503937,"duration":0.9934895833333144},{"name":"E4","midi":64,"time":134.38151041666632,"velocity":0.84251968503937,"duration":0.4947916666666572},{"name":"G4","midi":67,"time":134.63020833333297,"velocity":0.84251968503937,"duration":0.24609375},{"name":"D3","midi":50,"time":134.87890624999963,"velocity":0.84251968503937,"duration":0.46875},{"name":"D4","midi":62,"time":134.87890624999963,"velocity":0.84251968503937,"duration":0.9934895833333428},{"name":"F4","midi":65,"time":134.87890624999963,"velocity":0.84251968503937,"duration":0.24609375},{"name":"E4","midi":64,"time":135.1276041666663,"velocity":0.84251968503937,"duration":0.24609375},{"name":"E3","midi":52,"time":135.37630208333297,"velocity":0.84251968503937,"duration":0.46875},{"name":"A#3","midi":58,"time":135.37630208333297,"velocity":0.84251968503937,"duration":0.4947916666666572},{"name":"F4","midi":65,"time":135.37630208333297,"velocity":0.84251968503937,"duration":0.24609375},{"name":"G4","midi":67,"time":135.62499999999963,"velocity":0.84251968503937,"duration":0.24609375},{"name":"F3","midi":53,"time":135.87499999999963,"velocity":0.84251968503937,"duration":0.7434895833333144},{"name":"A3","midi":57,"time":135.87499999999963,"velocity":0.84251968503937,"duration":0.4947916666666572},{"name":"C4","midi":60,"time":135.87499999999963,"velocity":0.84251968503937,"duration":0.4947916666666572},{"name":"A4","midi":69,"time":135.87499999999963,"velocity":0.84251968503937,"duration":0.24609375},{"name":"G4","midi":67,"time":136.1236979166663,"velocity":0.84251968503937,"duration":0.24609375},{"name":"D4","midi":62,"time":136.37239583333294,"velocity":0.84251968503937,"duration":0.4947916666666856},{"name":"F4","midi":65,"time":136.37239583333294,"velocity":0.84251968503937,"duration":0.4934895833333428},{"name":"A4","midi":69,"time":136.37239583333294,"velocity":0.84251968503937,"duration":0.24609375},{"name":"G3","midi":55,"time":136.6210937499996,"velocity":0.84251968503937,"duration":0.12239583333334281},{"name":"B4","midi":71,"time":136.6210937499996,"velocity":0.84251968503937,"duration":0.24609375000002842},{"name":"F3","midi":53,"time":136.74739583333294,"velocity":0.84251968503937,"duration":0.12109375000002842},{"name":"E3","midi":52,"time":136.86979166666632,"velocity":0.84251968503937,"duration":0.4973958333333428},{"name":"G3","midi":55,"time":136.86979166666632,"velocity":0.84251968503937,"duration":0.4973958333333428},{"name":"C5","midi":72,"time":136.86979166666632,"velocity":0.84251968503937,"duration":1.9934895833333144},{"name":"G4","midi":67,"time":137.12109374999966,"velocity":0.84251968503937,"duration":0.24609375},{"name":"A3","midi":57,"time":137.36979166666632,"velocity":0.84251968503937,"duration":0.4166666666666572},{"name":"C4","midi":60,"time":137.36979166666632,"velocity":0.84251968503937,"duration":0.4934895833333144},{"name":"F4","midi":65,"time":137.36979166666632,"velocity":0.84251968503937,"duration":0.24609375},{"name":"E4","midi":64,"time":137.61848958333297,"velocity":0.84251968503937,"duration":0.24609375},{"name":"D3","midi":50,"time":137.86848958333297,"velocity":0.84251968503937,"duration":0.46875},{"name":"F4","midi":65,"time":137.86848958333297,"velocity":0.84251968503937,"duration":0.4973958333333428},{"name":"A3","midi":57,"time":138.11848958333297,"velocity":0.84251968503937,"duration":0.24609375},{"name":"G3","midi":55,"time":138.36848958333297,"velocity":0.84251968503937,"duration":0.7434895833333144},{"name":"B3","midi":59,"time":138.36848958333297,"velocity":0.84251968503937,"duration":0.24609375},{"name":"D4","midi":62,"time":138.36848958333297,"velocity":0.84251968503937,"duration":0.4817708333333144},{"name":"C4","midi":60,"time":138.61718749999963,"velocity":0.84251968503937,"duration":0.24609375},{"name":"D4","midi":62,"time":138.8580729166663,"velocity":0.84251968503937,"duration":1.0416666666666288},{"name":"G4","midi":67,"time":138.96223958333297,"velocity":0.84251968503937,"duration":1.8489583333332575},{"name":"B4","midi":71,"time":139.06640624999963,"velocity":0.84251968503937,"duration":1.1718749999999432},{"name":"A3","midi":57,"time":139.11458333333294,"velocity":0.84251968503937,"duration":0.24609375},{"name":"G3","midi":55,"time":139.3632812499996,"velocity":0.84251968503937,"duration":0.24609375},{"name":"F3","midi":53,"time":139.61197916666626,"velocity":0.84251968503937,"duration":0.24609375},{"name":"E3","midi":52,"time":139.86197916666626,"velocity":0.84251968503937,"duration":0.24609375},{"name":"G3","midi":55,"time":139.86197916666626,"velocity":0.84251968503937,"duration":1.4908854166666288},{"name":"F3","midi":53,"time":140.11067708333292,"velocity":0.84251968503937,"duration":0.24609375},{"name":"E3","midi":52,"time":140.35937499999957,"velocity":0.84251968503937,"duration":0.24609375},{"name":"C5","midi":72,"time":140.35937499999957,"velocity":0.84251968503937,"duration":0.4947916666666572},{"name":"D3","midi":50,"time":140.60807291666623,"velocity":0.84251968503937,"duration":0.24609375},{"name":"C3","midi":48,"time":140.8567708333329,"velocity":0.84251968503937,"duration":0.24609375},{"name":"D5","midi":74,"time":140.8567708333329,"velocity":0.84251968503937,"duration":0.4947916666666572},{"name":"D3","midi":50,"time":141.1067708333329,"velocity":0.84251968503937,"duration":0.24609375},{"name":"C3","midi":48,"time":141.35546874999955,"velocity":0.84251968503937,"duration":0.24609375},{"name":"G3","midi":55,"time":141.35546874999955,"velocity":0.84251968503937,"duration":0.4947916666666572},{"name":"E5","midi":76,"time":141.35546874999955,"velocity":0.84251968503937,"duration":0.4947916666666572},{"name":"B2","midi":47,"time":141.6041666666662,"velocity":0.84251968503937,"duration":0.24609375},{"name":"A2","midi":45,"time":141.85286458333286,"velocity":0.84251968503937,"duration":0.4973958333333428},{"name":"A3","midi":57,"time":141.85286458333286,"velocity":0.84251968503937,"duration":0.4973958333333428},{"name":"F5","midi":77,"time":141.85286458333286,"velocity":0.84251968503937,"duration":0.74609375},{"name":"D3","midi":50,"time":142.35286458333286,"velocity":0.84251968503937,"duration":0.4973958333333428},{"name":"B3","midi":59,"time":142.35286458333286,"velocity":0.84251968503937,"duration":0.4973958333333428},{"name":"G5","midi":79,"time":142.60156249999952,"velocity":0.84251968503937,"duration":0.12239583333334281},{"name":"F5","midi":77,"time":142.72786458333286,"velocity":0.84251968503937,"duration":0.12239583333334281},{"name":"A3","midi":57,"time":142.85286458333286,"velocity":0.84251968503937,"duration":0.4973958333333428},{"name":"C4","midi":60,"time":142.85286458333286,"velocity":0.84251968503937,"duration":0.74609375},{"name":"E5","midi":76,"time":142.85286458333286,"velocity":0.84251968503937,"duration":0.4973958333333428},{"name":"F#3","midi":54,"time":143.35286458333286,"velocity":0.84251968503937,"duration":0.4973958333333428},{"name":"A5","midi":81,"time":143.35286458333286,"velocity":0.84251968503937,"duration":0.390625},{"name":"D4","midi":62,"time":143.60156249999952,"velocity":0.84251968503937,"duration":0.12239583333334281},{"name":"C4","midi":60,"time":143.72656249999952,"velocity":0.84251968503937,"duration":0.12239583333334281},{"name":"G3","midi":55,"time":143.85286458333286,"velocity":0.84251968503937,"duration":0.24609375},{"name":"B3","midi":59,"time":143.85286458333286,"velocity":0.84251968503937,"duration":0.4947916666666572},{"name":"D5","midi":74,"time":143.85286458333286,"velocity":0.84251968503937,"duration":0.4973958333333144},{"name":"A3","midi":57,"time":144.10156249999952,"velocity":0.84251968503937,"duration":0.24609375},{"name":"A#3","midi":58,"time":144.35026041666617,"velocity":0.84251968503937,"duration":0.24869791666668561},{"name":"E4","midi":64,"time":144.35026041666617,"velocity":0.84251968503937,"duration":0.4973958333333428},{"name":"G5","midi":79,"time":144.35026041666617,"velocity":0.84251968503937,"duration":0.12239583333334281},{"name":"F5","midi":77,"time":144.47656249999952,"velocity":0.84251968503937,"duration":0.12239583333334281},{"name":"G3","midi":55,"time":144.60156249999952,"velocity":0.84251968503937,"duration":0.24609375},{"name":"G5","midi":79,"time":144.60156249999952,"velocity":0.84251968503937,"duration":0.4947916666666572},{"name":"C#3","midi":49,"time":144.85026041666617,"velocity":0.84251968503937,"duration":0.4947916666666572},{"name":"A3","midi":57,"time":144.85026041666617,"velocity":0.84251968503937,"duration":0.4947916666666572},{"name":"A5","midi":81,"time":145.09895833333283,"velocity":0.84251968503937,"duration":0.24609375},{"name":"D3","midi":50,"time":145.34895833333283,"velocity":0.84251968503937,"duration":0.4947916666666572},{"name":"D4","midi":62,"time":145.34895833333283,"velocity":0.84251968503937,"duration":0.7434895833333144},{"name":"G5","midi":79,"time":145.34895833333283,"velocity":0.84251968503937,"duration":0.24609375},{"name":"F5","midi":77,"time":145.5976562499995,"velocity":0.84251968503937,"duration":0.24609375},{"name":"A3","midi":57,"time":145.84635416666615,"velocity":0.84251968503937,"duration":0.9947916666666572},{"name":"E5","midi":76,"time":145.84635416666615,"velocity":0.84251968503937,"duration":0.4557291666666572},{"name":"E4","midi":64,"time":146.0950520833328,"velocity":0.84251968503937,"duration":0.24609375},{"name":"D4","midi":62,"time":146.34374999999946,"velocity":0.84251968503937,"duration":0.24869791666668561},{"name":"A5","midi":81,"time":146.34374999999946,"velocity":0.84251968503937,"duration":0.12239583333334281},{"name":"G5","midi":79,"time":146.4700520833328,"velocity":0.84251968503937,"duration":0.12239583333334281},{"name":"C4","midi":60,"time":146.5950520833328,"velocity":0.84251968503937,"duration":0.24609375},{"name":"A5","midi":81,"time":146.5950520833328,"velocity":0.84251968503937,"duration":0.4947916666666572},{"name":"E3","midi":52,"time":146.84374999999946,"velocity":0.84251968503937,"duration":0.9934895833333144},{"name":"B3","midi":59,"time":146.84374999999946,"velocity":0.84251968503937,"duration":0.4947916666666572},{"name":"B5","midi":83,"time":147.09244791666612,"velocity":0.84251968503937,"duration":0.24609375},{"name":"E4","midi":64,"time":147.34244791666612,"velocity":0.84251968503937,"duration":1.4908854166666288},{"name":"A5","midi":81,"time":147.34244791666612,"velocity":0.84251968503937,"duration":0.24609375},{"name":"G5","midi":79,"time":147.59114583333277,"velocity":0.84251968503937,"duration":0.24609375},{"name":"A3","midi":57,"time":147.83984374999943,"velocity":0.84251968503937,"duration":0.24609375},{"name":"F5","midi":77,"time":147.83984374999943,"velocity":0.84251968503937,"duration":1.9882812499999432},{"name":"B3","midi":59,"time":148.0885416666661,"velocity":0.84251968503937,"duration":0.24609375},{"name":"C4","midi":60,"time":148.33723958333275,"velocity":0.84251968503937,"duration":0.24609375},{"name":"G4","midi":67,"time":148.33723958333275,"velocity":0.84251968503937,"duration":0.4947916666666572},{"name":"D4","midi":62,"time":148.5859374999994,"velocity":0.84251968503937,"duration":0.24609375},{"name":"C4","midi":60,"time":148.8359374999994,"velocity":0.84251968503937,"duration":0.24609375},{"name":"D4","midi":62,"time":148.8359374999994,"velocity":0.84251968503937,"duration":0.9934895833333144},{"name":"A4","midi":69,"time":148.8359374999994,"velocity":0.84251968503937,"duration":0.4947916666666572},{"name":"B3","midi":59,"time":149.08463541666606,"velocity":0.84251968503937,"duration":0.24609375},{"name":"A3","midi":57,"time":149.33333333333272,"velocity":0.84251968503937,"duration":0.24609375},{"name":"B4","midi":71,"time":149.33333333333272,"velocity":0.84251968503937,"duration":0.4947916666666572},{"name":"G3","midi":55,"time":149.58203124999937,"velocity":0.84251968503937,"duration":0.24609375},{"name":"C4","midi":60,"time":149.83072916666606,"velocity":0.84251968503937,"duration":0.24609375},{"name":"C5","midi":72,"time":149.83072916666606,"velocity":0.84251968503937,"duration":0.7434895833333144},{"name":"E5","midi":76,"time":149.83072916666606,"velocity":0.84251968503937,"duration":0.7434895833333144},{"name":"B3","midi":59,"time":150.08072916666606,"velocity":0.84251968503937,"duration":0.24609375},{"name":"C4","midi":60,"time":150.32942708333272,"velocity":0.84251968503937,"duration":0.24609375},{"name":"A3","midi":57,"time":150.57812499999937,"velocity":0.84251968503937,"duration":0.24869791666668561},{"name":"D5","midi":74,"time":150.57812499999937,"velocity":0.84251968503937,"duration":0.12239583333334281},{"name":"F#5","midi":78,"time":150.57812499999937,"velocity":0.84251968503937,"duration":0.24869791666668561},{"name":"C5","midi":72,"time":150.70312499999937,"velocity":0.84251968503937,"duration":0.12239583333334281},{"name":"E4","midi":64,"time":150.82942708333272,"velocity":0.84251968503937,"duration":0.24609375},{"name":"B4","midi":71,"time":150.82942708333272,"velocity":0.84251968503937,"duration":0.4947916666666572},{"name":"G5","midi":79,"time":150.82942708333272,"velocity":0.84251968503937,"duration":1.9908854166666572},{"name":"D4","midi":62,"time":151.07812499999937,"velocity":0.84251968503937,"duration":0.24609375},{"name":"C4","midi":60,"time":151.32682291666603,"velocity":0.84251968503937,"duration":0.24609375},{"name":"E5","midi":76,"time":151.32682291666603,"velocity":0.84251968503937,"duration":0.4166666666666572},{"name":"B3","midi":59,"time":151.5755208333327,"velocity":0.84251968503937,"duration":0.24609375},{"name":"C4","midi":60,"time":151.82421874999935,"velocity":0.84251968503937,"duration":0.24609375},{"name":"A4","midi":69,"time":151.82421874999935,"velocity":0.84251968503937,"duration":0.4947916666666572},{"name":"A3","midi":57,"time":152.07421874999935,"velocity":0.84251968503937,"duration":0.24609375},{"name":"B3","midi":59,"time":152.322916666666,"velocity":0.84251968503937,"duration":0.24869791666668561},{"name":"B4","midi":71,"time":152.322916666666,"velocity":0.84251968503937,"duration":0.12239583333334281},{"name":"C5","midi":72,"time":152.447916666666,"velocity":0.84251968503937,"duration":0.12239583333334281},{"name":"C4","midi":60,"time":152.57291666666603,"velocity":0.84251968503937,"duration":0.24609375},{"name":"D5","midi":74,"time":152.57291666666603,"velocity":0.84251968503937,"duration":0.4947916666666572},{"name":"D4","midi":62,"time":152.82291666666603,"velocity":0.84251968503937,"duration":0.24609375},{"name":"F#5","midi":78,"time":152.82291666666603,"velocity":0.84251968503937,"duration":0.9934895833333144},{"name":"C4","midi":60,"time":153.0716145833327,"velocity":0.84251968503937,"duration":0.24609375},{"name":"E5","midi":76,"time":153.0716145833327,"velocity":0.84251968503937,"duration":0.24609375},{"name":"B3","midi":59,"time":153.32031249999935,"velocity":0.84251968503937,"duration":0.24609375},{"name":"D5","midi":74,"time":153.32031249999935,"velocity":0.84251968503937,"duration":0.24609375},{"name":"A3","midi":57,"time":153.569010416666,"velocity":0.84251968503937,"duration":0.24609375},{"name":"C5","midi":72,"time":153.569010416666,"velocity":0.84251968503937,"duration":0.24609375},{"name":"G3","midi":55,"time":153.8177083333327,"velocity":0.84251968503937,"duration":0.9869791666666856},{"name":"B4","midi":71,"time":153.8177083333327,"velocity":0.84251968503937,"duration":0.74609375},{"name":"G5","midi":79,"time":153.8177083333327,"velocity":0.84251968503937,"duration":0.24609375},{"name":"F5","midi":77,"time":154.0677083333327,"velocity":0.84251968503937,"duration":0.24609375},{"name":"G2","midi":43,"time":154.31640624999935,"velocity":0.84251968503937,"duration":0.49739583333337123},{"name":"E5","midi":76,"time":154.31640624999935,"velocity":0.84251968503937,"duration":0.24609375},{"name":"D5","midi":74,"time":154.56510416666603,"velocity":0.84251968503937,"duration":0.24869791666668561},{"name":"A2","midi":45,"time":154.81640624999937,"velocity":0.84251968503937,"duration":0.4947916666666572},{"name":"C5","midi":72,"time":154.81640624999937,"velocity":0.84251968503937,"duration":0.24609375},{"name":"D5","midi":74,"time":155.06510416666603,"velocity":0.84251968503937,"duration":0.24609375},{"name":"B2","midi":47,"time":155.3138020833327,"velocity":0.84251968503937,"duration":0.4947916666666572},{"name":"D4","midi":62,"time":155.3138020833327,"velocity":0.84251968503937,"duration":0.4947916666666572},{"name":"C5","midi":72,"time":155.3138020833327,"velocity":0.84251968503937,"duration":0.24609375},{"name":"B4","midi":71,"time":155.56249999999935,"velocity":0.84251968503937,"duration":0.24609375},{"name":"C3","midi":48,"time":155.811197916666,"velocity":0.84251968503937,"duration":0.7434895833333144},{"name":"E4","midi":64,"time":155.811197916666,"velocity":0.84251968503937,"duration":0.4947916666666572},{"name":"A4","midi":69,"time":155.811197916666,"velocity":0.84251968503937,"duration":0.24609375},{"name":"C5","midi":72,"time":156.061197916666,"velocity":0.84251968503937,"duration":0.24609375},{"name":"F#4","midi":66,"time":156.30989583333266,"velocity":0.84251968503937,"duration":0.4973958333333428},{"name":"B4","midi":71,"time":156.30989583333266,"velocity":0.84251968503937,"duration":0.24609375},{"name":"D3","midi":50,"time":156.55859374999932,"velocity":0.84251968503937,"duration":0.12239583333334281},{"name":"A4","midi":69,"time":156.55859374999932,"velocity":0.84251968503937,"duration":0.24869791666668561},{"name":"C3","midi":48,"time":156.68359374999932,"velocity":0.84251968503937,"duration":0.12239583333334281},{"name":"B2","midi":47,"time":156.80989583333266,"velocity":0.84251968503937,"duration":0.4973958333333428},{"name":"G4","midi":67,"time":156.80989583333266,"velocity":0.84251968503937,"duration":0.74609375},{"name":"E3","midi":52,"time":157.30989583333266,"velocity":0.84251968503937,"duration":0.46875},{"name":"A4","midi":69,"time":157.55859374999932,"velocity":0.84251968503937,"duration":0.12239583333334281},{"name":"G4","midi":67,"time":157.68359374999932,"velocity":0.84251968503937,"duration":0.12239583333334281},{"name":"A2","midi":45,"time":157.80989583333266,"velocity":0.84251968503937,"duration":0.4947916666666572},{"name":"F#4","midi":66,"time":157.80989583333266,"velocity":0.84251968503937,"duration":0.4973958333333428},{"name":"C5","midi":72,"time":158.05989583333266,"velocity":0.84251968503937,"duration":0.24609375},{"name":"D3","midi":50,"time":158.30989583333266,"velocity":0.84251968503937,"duration":0.12239583333334281},{"name":"B4","midi":71,"time":158.30989583333266,"velocity":0.84251968503937,"duration":0.24869791666668561},{"name":"C3","midi":48,"time":158.43489583333266,"velocity":0.84251968503937,"duration":0.12239583333334281},{"name":"D3","midi":50,"time":158.5598958333327,"velocity":0.84251968503937,"duration":0.4947916666666572},{"name":"A4","midi":69,"time":158.5598958333327,"velocity":0.84251968503937,"duration":0.24609375},{"name":"E4","midi":64,"time":158.80859374999935,"velocity":0.84251968503937,"duration":0.4947916666666572},{"name":"G#4","midi":68,"time":158.80859374999935,"velocity":0.84251968503937,"duration":0.4947916666666572},{"name":"E3","midi":52,"time":159.05859374999935,"velocity":0.84251968503937,"duration":0.24609375},{"name":"D3","midi":50,"time":159.307291666666,"velocity":0.84251968503937,"duration":0.2486979166666572},{"name":"A4","midi":69,"time":159.307291666666,"velocity":0.84251968503937,"duration":0.1822916666666572},{"name":"E5","midi":76,"time":159.307291666666,"velocity":0.84251968503937,"duration":0.4973958333333144},{"name":"G#4","midi":68,"time":159.432291666666,"velocity":0.84251968503937,"duration":0.1822916666666572},{"name":"C3","midi":48,"time":159.55859374999932,"velocity":0.84251968503937,"duration":0.24609375},{"name":"A4","midi":69,"time":159.55859374999932,"velocity":0.84251968503937,"duration":0.5013020833333144},{"name":"B2","midi":47,"time":159.80729166666598,"velocity":0.84251968503937,"duration":0.5143229166666572},{"name":"D5","midi":74,"time":159.80729166666598,"velocity":0.84251968503937,"duration":0.5143229166666572},{"name":"B4","midi":71,"time":160.0664062499993,"velocity":0.84251968503937,"duration":0.25390625},{"name":"E3","midi":52,"time":160.32291666666598,"velocity":0.84251968503937,"duration":1.01953125},{"name":"A4","midi":69,"time":160.32291666666598,"velocity":0.84251968503937,"duration":0.25390625},{"name":"C5","midi":72,"time":160.32291666666598,"velocity":0.84251968503937,"duration":0.25390625},{"name":"G#4","midi":68,"time":160.58072916666598,"velocity":0.84251968503937,"duration":0.25390625},{"name":"B4","midi":71,"time":160.58072916666598,"velocity":0.84251968503937,"duration":0.25390625},{"name":"F#3","midi":54,"time":160.83723958333263,"velocity":0.84251968503937,"duration":0.5143229166666856},{"name":"F#4","midi":66,"time":160.83723958333263,"velocity":0.84251968503937,"duration":0.5143229166666856},{"name":"A4","midi":69,"time":160.83723958333263,"velocity":0.84251968503937,"duration":0.25390625},{"name":"G#4","midi":68,"time":161.09505208333263,"velocity":0.84251968503937,"duration":0.2565104166666856},{"name":"D3","midi":50,"time":161.35416666666598,"velocity":0.84251968503937,"duration":0.51171875},{"name":"G#3","midi":56,"time":161.35416666666598,"velocity":0.84251968503937,"duration":0.51171875},{"name":"F4","midi":65,"time":161.35416666666598,"velocity":0.84251968503937,"duration":0.51171875},{"name":"A4","midi":69,"time":161.35416666666598,"velocity":0.84251968503937,"duration":0.25390625},{"name":"B4","midi":71,"time":161.61067708333263,"velocity":0.84251968503937,"duration":0.25390625},{"name":"C3","midi":48,"time":161.86848958333263,"velocity":0.84251968503937,"duration":0.51171875},{"name":"A3","midi":57,"time":161.86848958333263,"velocity":0.84251968503937,"duration":0.7682291666666572},{"name":"E4","midi":64,"time":161.86848958333263,"velocity":0.84251968503937,"duration":0.51171875},{"name":"C5","midi":72,"time":161.86848958333263,"velocity":0.84251968503937,"duration":0.25390625},{"name":"F#4","midi":66,"time":162.1249999999993,"velocity":0.84251968503937,"duration":0.25390625},{"name":"F3","midi":53,"time":162.3828124999993,"velocity":0.84251968503937,"duration":1.0286458333333428},{"name":"D4","midi":62,"time":162.3828124999993,"velocity":0.84251968503937,"duration":0.7708333333333428},{"name":"G#4","midi":68,"time":162.3828124999993,"velocity":0.84251968503937,"duration":0.25390625},{"name":"B3","midi":59,"time":162.63932291666595,"velocity":0.84251968503937,"duration":0.1263020833333428},{"name":"A4","midi":69,"time":162.63932291666595,"velocity":0.84251968503937,"duration":0.2565104166666856},{"name":"A3","midi":57,"time":162.7695312499993,"velocity":0.84251968503937,"duration":0.1263020833333428},{"name":"G#3","midi":56,"time":162.8984374999993,"velocity":0.84251968503937,"duration":0.51171875},{"name":"B4","midi":71,"time":162.8984374999993,"velocity":0.84251968503937,"duration":0.51171875},{"name":"E4","midi":64,"time":163.1562499999993,"velocity":0.84251968503937,"duration":0.25390625},{"name":"E3","midi":52,"time":163.41276041666598,"velocity":0.84251968503937,"duration":1.0260416666666572},{"name":"C4","midi":60,"time":163.41276041666598,"velocity":0.84251968503937,"duration":0.51171875},{"name":"F#4","midi":66,"time":163.41276041666598,"velocity":0.84251968503937,"duration":0.25390625},{"name":"A4","midi":69,"time":163.41276041666598,"velocity":0.84251968503937,"duration":0.25390625},{"name":"G#4","midi":68,"time":163.67057291666598,"velocity":0.84251968503937,"duration":0.25390625},{"name":"B4","midi":71,"time":163.67057291666598,"velocity":0.84251968503937,"duration":0.25390625},{"name":"F#3","midi":54,"time":163.92708333333263,"velocity":0.84251968503937,"duration":0.51171875},{"name":"A4","midi":69,"time":163.92708333333263,"velocity":0.84251968503937,"duration":0.25390625},{"name":"C5","midi":72,"time":163.92708333333263,"velocity":0.84251968503937,"duration":0.51171875},{"name":"G#4","midi":68,"time":164.18489583333263,"velocity":0.84251968503937,"duration":0.25390625},{"name":"D3","midi":50,"time":164.4414062499993,"velocity":0.84251968503937,"duration":1.0286458333333428},{"name":"B3","midi":59,"time":164.4414062499993,"velocity":0.84251968503937,"duration":0.1263020833333428},{"name":"A4","midi":69,"time":164.4414062499993,"velocity":0.84251968503937,"duration":0.2565104166666856},{"name":"F5","midi":77,"time":164.4414062499993,"velocity":0.84251968503937,"duration":0.5143229166666856},{"name":"A3","midi":57,"time":164.57161458333263,"velocity":0.84251968503937,"duration":0.1263020833333428},{"name":"B3","midi":59,"time":164.70182291666598,"velocity":0.84251968503937,"duration":0.51171875},{"name":"B4","midi":71,"time":164.70182291666598,"velocity":0.84251968503937,"duration":0.25390625},{"name":"G#4","midi":68,"time":164.95833333333263,"velocity":0.84251968503937,"duration":0.25390625},{"name":"E5","midi":76,"time":164.95833333333263,"velocity":0.84251968503937,"duration":0.51171875},{"name":"C4","midi":60,"time":165.21614583333263,"velocity":0.84251968503937,"duration":0.25390625},{"name":"F#4","midi":66,"time":165.21614583333263,"velocity":0.84251968503937,"duration":0.25390625},{"name":"E3","midi":52,"time":165.4726562499993,"velocity":0.84251968503937,"duration":0.51171875},{"name":"B3","midi":59,"time":165.4726562499993,"velocity":0.84251968503937,"duration":0.25390625},{"name":"G#4","midi":68,"time":165.4726562499993,"velocity":0.84251968503937,"duration":0.25390625},{"name":"D5","midi":74,"time":165.4726562499993,"velocity":0.84251968503937,"duration":0.7734375},{"name":"A3","midi":57,"time":165.7304687499993,"velocity":0.84251968503937,"duration":0.25390625},{"name":"A4","midi":69,"time":165.7304687499993,"velocity":0.84251968503937,"duration":0.25390625},{"name":"F3","midi":53,"time":165.98697916666595,"velocity":0.84251968503937,"duration":0.5143229166666572},{"name":"G#3","midi":56,"time":165.98697916666595,"velocity":0.84251968503937,"duration":0.5143229166666572},{"name":"B4","midi":71,"time":165.98697916666595,"velocity":0.84251968503937,"duration":0.51171875},{"name":"C5","midi":72,"time":166.1171874999993,"velocity":0.84251968503937,"duration":0.1263020833333428},{"name":"D5","midi":74,"time":166.2460937499993,"velocity":0.84251968503937,"duration":0.2421875},{"name":"E3","midi":52,"time":166.50390624999926,"velocity":0.84251968503937,"duration":0.25390625},{"name":"A3","midi":57,"time":166.50390624999926,"velocity":0.84251968503937,"duration":1.0299479166666856},{"name":"C5","midi":72,"time":166.50390624999926,"velocity":0.84251968503937,"duration":0.25390625},{"name":"D3","midi":50,"time":166.76041666666592,"velocity":0.84251968503937,"duration":0.25390625},{"name":"B4","midi":71,"time":166.76041666666592,"velocity":0.84251968503937,"duration":0.25390625},{"name":"E3","midi":52,"time":167.01822916666592,"velocity":0.84251968503937,"duration":1.0325520833333712},{"name":"C5","midi":72,"time":167.01822916666592,"velocity":0.84251968503937,"duration":0.2421875},{"name":"B4","midi":71,"time":167.27734374999926,"velocity":0.84251968503937,"duration":0.1263020833333428},{"name":"C5","midi":72,"time":167.36328124999926,"velocity":0.84251968503937,"duration":0.1263020833333428},{"name":"B4","midi":71,"time":167.44921874999926,"velocity":0.84251968503937,"duration":0.1263020833333428},{"name":"G#3","midi":56,"time":167.5364583333326,"velocity":0.84251968503937,"duration":0.5143229166666856},{"name":"C5","midi":72,"time":167.5364583333326,"velocity":0.84251968503937,"duration":0.1263020833333428},{"name":"B4","midi":71,"time":167.6223958333326,"velocity":0.84251968503937,"duration":0.19921875},{"name":"A4","midi":69,"time":167.79557291666595,"velocity":0.84251968503937,"duration":0.25390625},{"name":"A2","midi":45,"time":168.05208333333263,"velocity":0.84251968503937,"duration":1.171875},{"name":"A3","midi":57,"time":168.05208333333263,"velocity":0.84251968503937,"duration":1.0234375},{"name":"A4","midi":69,"time":168.05208333333263,"velocity":0.84251968503937,"duration":1.0234375},{"name":"C4","midi":60,"time":168.57161458333263,"velocity":0.84251968503937,"duration":0.5143229166666572},{"name":"D4","midi":62,"time":169.08723958333263,"velocity":0.84251968503937,"duration":0.5143229166666572},{"name":"G3","midi":55,"time":169.60416666666595,"velocity":0.84251968503937,"duration":0.5143229166666572},{"name":"E4","midi":64,"time":169.60416666666595,"velocity":0.84251968503937,"duration":0.5143229166666572},{"name":"A3","midi":57,"time":170.11979166666595,"velocity":0.84251968503937,"duration":0.5143229166666572},{"name":"F4","midi":65,"time":170.11979166666595,"velocity":0.84251968503937,"duration":0.7708333333333144},{"name":"B3","midi":59,"time":170.63671874999926,"velocity":0.84251968503937,"duration":0.5143229166666856},{"name":"G4","midi":67,"time":170.89322916666592,"velocity":0.84251968503937,"duration":0.1263020833333428},{"name":"F4","midi":65,"time":171.02343749999926,"velocity":0.84251968503937,"duration":0.1263020833333428},{"name":"C4","midi":60,"time":171.1523437499993,"velocity":0.84251968503937,"duration":0.7708333333333144},{"name":"E4","midi":64,"time":171.1523437499993,"velocity":0.84251968503937,"duration":0.5143229166666572},{"name":"A4","midi":69,"time":171.6692708333326,"velocity":0.84251968503937,"duration":0.46875},{"name":"D4","midi":62,"time":171.9270833333326,"velocity":0.84251968503937,"duration":0.1263020833333428},{"name":"C4","midi":60,"time":172.0559895833326,"velocity":0.84251968503937,"duration":0.1263020833333428},{"name":"B3","midi":59,"time":172.18619791666595,"velocity":0.84251968503937,"duration":0.5143229166666572},{"name":"D4","midi":62,"time":172.18619791666595,"velocity":0.84251968503937,"duration":0.5026041666666572},{"name":"G2","midi":43,"time":172.70182291666595,"velocity":0.84251968503937,"duration":0.5143229166666572},{"name":"E4","midi":64,"time":172.70182291666595,"velocity":0.84251968503937,"duration":0.5143229166666572},{"name":"G4","midi":67,"time":172.70182291666595,"velocity":0.84251968503937,"duration":0.7708333333333144},{"name":"A2","midi":45,"time":173.21874999999926,"velocity":0.84251968503937,"duration":0.51171875},{"name":"A3","midi":57,"time":173.21874999999926,"velocity":0.84251968503937,"duration":0.51171875},{"name":"A4","midi":69,"time":173.47526041666592,"velocity":0.84251968503937,"duration":0.25390625},{"name":"B2","midi":47,"time":173.73307291666592,"velocity":0.84251968503937,"duration":0.51171875},{"name":"D4","midi":62,"time":173.73307291666592,"velocity":0.84251968503937,"duration":1.0286458333333144},{"name":"G4","midi":67,"time":173.73307291666592,"velocity":0.84251968503937,"duration":0.25390625},{"name":"F4","midi":65,"time":173.98958333333258,"velocity":0.84251968503937,"duration":0.25390625},{"name":"C3","midi":48,"time":174.24739583333258,"velocity":0.84251968503937,"duration":0.7708333333333428},{"name":"E4","midi":64,"time":174.24739583333258,"velocity":0.84251968503937,"duration":0.5143229166666572},{"name":"G3","midi":55,"time":174.76302083333258,"velocity":0.84251968503937,"duration":0.5143229166666856},{"name":"E4","midi":64,"time":174.76302083333258,"velocity":0.84251968503937,"duration":0.5143229166666856},{"name":"G4","midi":67,"time":174.76302083333258,"velocity":0.84251968503937,"duration":0.5143229166666856},{"name":"D3","midi":50,"time":175.02083333333258,"velocity":0.84251968503937,"duration":0.1263020833333428},{"name":"C3","midi":48,"time":175.14973958333258,"velocity":0.84251968503937,"duration":0.1263020833333428},{"name":"B2","midi":47,"time":175.27994791666592,"velocity":0.84251968503937,"duration":0.5143229166666572},{"name":"D4","midi":62,"time":175.27994791666592,"velocity":0.84251968503937,"duration":1.0299479166666572},{"name":"F#4","midi":66,"time":175.27994791666592,"velocity":0.84251968503937,"duration":0.5143229166666572},{"name":"A4","midi":69,"time":175.27994791666592,"velocity":0.84251968503937,"duration":0.5143229166666572},{"name":"E3","midi":52,"time":175.79687499999923,"velocity":0.84251968503937,"duration":0.5143229166666856},{"name":"G4","midi":67,"time":175.79687499999923,"velocity":0.84251968503937,"duration":1.029947916666714},{"name":"B4","midi":71,"time":175.79687499999923,"velocity":0.84251968503937,"duration":0.5143229166666856},{"name":"A2","midi":45,"time":176.31249999999926,"velocity":0.84251968503937,"duration":0.4817708333333428},{"name":"C4","midi":60,"time":176.31249999999926,"velocity":0.84251968503937,"duration":0.5143229166666856},{"name":"C5","midi":72,"time":176.31249999999926,"velocity":0.84251968503937,"duration":0.7708333333333428},{"name":"D3","midi":50,"time":176.8294270833326,"velocity":0.84251968503937,"duration":0.7708333333333712},{"name":"A3","midi":57,"time":176.8294270833326,"velocity":0.84251968503937,"duration":0.5143229166666856},{"name":"F#4","midi":66,"time":176.8294270833326,"velocity":0.84251968503937,"duration":0.5143229166666856},{"name":"D5","midi":74,"time":177.08593749999926,"velocity":0.84251968503937,"duration":0.1263020833333428},{"name":"C5","midi":72,"time":177.2161458333326,"velocity":0.84251968503937,"duration":0.1263020833333428},{"name":"E4","midi":64,"time":177.34505208333263,"velocity":0.84251968503937,"duration":0.51171875},{"name":"G#4","midi":68,"time":177.34505208333263,"velocity":0.84251968503937,"duration":0.51171875},{"name":"B4","midi":71,"time":177.34505208333263,"velocity":0.84251968503937,"duration":0.51171875},{"name":"E3","midi":52,"time":177.60286458333263,"velocity":0.84251968503937,"duration":0.25390625},{"name":"D3","midi":50,"time":177.8593749999993,"velocity":0.84251968503937,"duration":0.25390625},{"name":"E4","midi":64,"time":177.8593749999993,"velocity":0.84251968503937,"duration":0.51171875},{"name":"A4","midi":69,"time":177.8593749999993,"velocity":0.84251968503937,"duration":1.0286458333333144},{"name":"C5","midi":72,"time":177.8593749999993,"velocity":0.84251968503937,"duration":0.51171875},{"name":"C3","midi":48,"time":178.1171874999993,"velocity":0.84251968503937,"duration":0.25390625},{"name":"B2","midi":47,"time":178.37369791666595,"velocity":0.84251968503937,"duration":0.5143229166666572},{"name":"D4","midi":62,"time":178.37369791666595,"velocity":0.84251968503937,"duration":0.51171875},{"name":"D5","midi":74,"time":178.37369791666595,"velocity":0.84251968503937,"duration":0.5143229166666572},{"name":"A#2","midi":46,"time":178.89062499999926,"velocity":0.84251968503937,"duration":0.5143229166666572},{"name":"G4","midi":67,"time":178.89062499999926,"velocity":0.84251968503937,"duration":0.5143229166666572},{"name":"E5","midi":76,"time":178.89062499999926,"velocity":0.84251968503937,"duration":0.5143229166666572},{"name":"A2","midi":45,"time":179.40624999999926,"velocity":0.84251968503937,"duration":0.5143229166666572},{"name":"A4","midi":69,"time":179.40624999999926,"velocity":0.84251968503937,"duration":0.5143229166666572},{"name":"F5","midi":77,"time":179.40624999999926,"velocity":0.84251968503937,"duration":0.7708333333333144},{"name":"G2","midi":43,"time":179.92317708333258,"velocity":0.84251968503937,"duration":0.5143229166666856},{"name":"B4","midi":71,"time":179.92317708333258,"velocity":0.84251968503937,"duration":0.5143229166666856},{"name":"G5","midi":79,"time":180.17968749999923,"velocity":0.84251968503937,"duration":0.1263020833333428},{"name":"F5","midi":77,"time":180.30989583333258,"velocity":0.84251968503937,"duration":0.1263020833333428},{"name":"A2","midi":45,"time":180.44010416666592,"velocity":0.84251968503937,"duration":0.5143229166666572},{"name":"C5","midi":72,"time":180.44010416666592,"velocity":0.84251968503937,"duration":0.7708333333333428},{"name":"E5","midi":76,"time":180.44010416666592,"velocity":0.84251968503937,"duration":0.5143229166666572},{"name":"F#3","midi":54,"time":180.95572916666592,"velocity":0.84251968503937,"duration":0.5143229166666572},{"name":"A3","midi":57,"time":180.95572916666592,"velocity":0.84251968503937,"duration":0.5143229166666572},{"name":"A5","midi":81,"time":180.95572916666592,"velocity":0.84251968503937,"duration":0.4947916666666572},{"name":"D5","midi":74,"time":181.21354166666592,"velocity":0.84251968503937,"duration":0.1263020833333428},{"name":"C5","midi":72,"time":181.34244791666592,"velocity":0.84251968503937,"duration":0.12630208333331439},{"name":"G3","midi":55,"time":181.47265624999923,"velocity":0.84251968503937,"duration":0.5143229166666572},{"name":"B3","midi":59,"time":181.47265624999923,"velocity":0.84251968503937,"duration":0.5143229166666572},{"name":"B4","midi":71,"time":181.47265624999923,"velocity":0.84251968503937,"duration":0.5143229166666572},{"name":"D5","midi":74,"time":181.47265624999923,"velocity":0.84251968503937,"duration":0.5143229166666572},{"name":"E3","midi":52,"time":181.98828124999923,"velocity":0.84251968503937,"duration":0.5143229166666856},{"name":"C#4","midi":61,"time":181.98828124999923,"velocity":0.84251968503937,"duration":0.5143229166666856},{"name":"E5","midi":76,"time":181.98828124999923,"velocity":0.84251968503937,"duration":0.5117187500000284},{"name":"F5","midi":77,"time":182.11848958333258,"velocity":0.84251968503937,"duration":0.1888020833333428},{"name":"G5","midi":79,"time":182.24739583333258,"velocity":0.84251968503937,"duration":0.5091145833333428},{"name":"D3","midi":50,"time":182.50520833333258,"velocity":0.84251968503937,"duration":1.029947916666714},{"name":"D4","midi":62,"time":182.50520833333258,"velocity":0.84251968503937,"duration":0.7708333333333712},{"name":"A4","midi":69,"time":182.50520833333258,"velocity":0.84251968503937,"duration":0.5143229166666856},{"name":"A5","midi":81,"time":182.76432291666592,"velocity":0.84251968503937,"duration":0.25390625},{"name":"D5","midi":74,"time":183.0208333333326,"velocity":0.84251968503937,"duration":0.7708333333333428},{"name":"G5","midi":79,"time":183.0208333333326,"velocity":0.84251968503937,"duration":0.25390625},{"name":"E4","midi":64,"time":183.2786458333326,"velocity":0.84251968503937,"duration":0.1263020833333428},{"name":"F5","midi":77,"time":183.2786458333326,"velocity":0.84251968503937,"duration":0.2565104166666856},{"name":"D4","midi":62,"time":183.40885416666595,"velocity":0.84251968503937,"duration":0.1263020833333428},{"name":"E3","midi":52,"time":183.53776041666595,"velocity":0.84251968503937,"duration":0.51171875},{"name":"C4","midi":60,"time":183.53776041666595,"velocity":0.84251968503937,"duration":0.51171875},{"name":"E5","midi":76,"time":183.53776041666595,"velocity":0.84251968503937,"duration":0.2526041666666572},{"name":"E5","midi":76,"time":183.79557291666595,"velocity":0.84251968503937,"duration":0.25390625},{"name":"F3","midi":53,"time":184.0520833333326,"velocity":0.84251968503937,"duration":0.51171875},{"name":"F4","midi":65,"time":184.0520833333326,"velocity":0.84251968503937,"duration":0.51171875},{"name":"D5","midi":74,"time":184.0520833333326,"velocity":0.84251968503937,"duration":0.25390625},{"name":"A5","midi":81,"time":184.0520833333326,"velocity":0.84251968503937,"duration":0.4947916666666572},{"name":"C5","midi":72,"time":184.3098958333326,"velocity":0.84251968503937,"duration":0.25390625},{"name":"G3","midi":55,"time":184.56640624999926,"velocity":0.84251968503937,"duration":0.7708333333333144},{"name":"B3","midi":59,"time":184.56640624999926,"velocity":0.84251968503937,"duration":0.5143229166666572},{"name":"B4","midi":71,"time":184.56640624999926,"velocity":0.84251968503937,"duration":0.5143229166666572},{"name":"D5","midi":74,"time":184.56640624999926,"velocity":0.84251968503937,"duration":0.5143229166666572},{"name":"E4","midi":64,"time":185.08333333333258,"velocity":0.84251968503937,"duration":0.7708333333333712},{"name":"G5","midi":79,"time":185.08333333333258,"velocity":0.84251968503937,"duration":0.5143229166666856},{"name":"A#5","midi":82,"time":185.08333333333258,"velocity":0.84251968503937,"duration":0.5143229166666856},{"name":"A3","midi":57,"time":185.33984374999923,"velocity":0.84251968503937,"duration":0.1263020833333428},{"name":"G3","midi":55,"time":185.47005208333258,"velocity":0.84251968503937,"duration":0.1263020833333428},{"name":"F3","midi":53,"time":185.5989583333326,"velocity":0.84251968503937,"duration":0.51171875},{"name":"C#5","midi":73,"time":185.5989583333326,"velocity":0.84251968503937,"duration":0.51171875},{"name":"A5","midi":81,"time":185.5989583333326,"velocity":0.84251968503937,"duration":0.51171875},{"name":"F4","midi":65,"time":185.8567708333326,"velocity":0.84251968503937,"duration":0.25390625},{"name":"A#3","midi":58,"time":186.11328124999926,"velocity":0.84251968503937,"duration":0.51171875},{"name":"E4","midi":64,"time":186.11328124999926,"velocity":0.84251968503937,"duration":0.25390625},{"name":"D5","midi":74,"time":186.11328124999926,"velocity":0.84251968503937,"duration":0.51171875},{"name":"G5","midi":79,"time":186.11328124999926,"velocity":0.84251968503937,"duration":0.25390625},{"name":"D4","midi":62,"time":186.37109374999926,"velocity":0.84251968503937,"duration":0.25390625},{"name":"F5","midi":77,"time":186.37109374999926,"velocity":0.84251968503937,"duration":0.25390625},{"name":"E3","midi":52,"time":186.62760416666592,"velocity":0.84251968503937,"duration":0.51171875},{"name":"C#4","midi":61,"time":186.62760416666592,"velocity":0.84251968503937,"duration":0.5091145833333428},{"name":"E5","midi":76,"time":186.62760416666592,"velocity":0.84251968503937,"duration":0.51171875},{"name":"G5","midi":79,"time":186.62760416666592,"velocity":0.84251968503937,"duration":0.25390625},{"name":"F5","midi":77,"time":186.88541666666592,"velocity":0.84251968503937,"duration":0.25390625},{"name":"A3","midi":57,"time":187.14192708333258,"velocity":0.84251968503937,"duration":0.7682291666666572},{"name":"C#5","midi":73,"time":187.14192708333258,"velocity":0.84251968503937,"duration":0.51171875},{"name":"G5","midi":79,"time":187.14192708333258,"velocity":0.84251968503937,"duration":0.25390625},{"name":"E5","midi":76,"time":187.39973958333258,"velocity":0.84251968503937,"duration":0.25390625},{"name":"D5","midi":74,"time":187.65624999999923,"velocity":0.84251968503937,"duration":0.51171875},{"name":"F5","midi":77,"time":187.65624999999923,"velocity":0.84251968503937,"duration":0.25390625},{"name":"A#3","midi":58,"time":187.91406249999923,"velocity":0.84251968503937,"duration":0.25390625},{"name":"G5","midi":79,"time":187.91406249999923,"velocity":0.84251968503937,"duration":0.25390625},{"name":"A3","midi":57,"time":188.1705729166659,"velocity":0.84251968503937,"duration":0.2565104166666856},{"name":"E5","midi":76,"time":188.1705729166659,"velocity":0.84251968503937,"duration":0.5156250000000284},{"name":"A5","midi":81,"time":188.1705729166659,"velocity":0.84251968503937,"duration":0.1263020833333428},{"name":"G5","midi":79,"time":188.30078124999923,"velocity":0.84251968503937,"duration":0.1263020833333428},{"name":"G3","midi":55,"time":188.42968749999923,"velocity":0.84251968503937,"duration":0.2565104166666856},{"name":"F5","midi":77,"time":188.42968749999923,"velocity":0.84251968503937,"duration":0.1263020833333428},{"name":"G5","midi":79,"time":188.55989583333258,"velocity":0.84251968503937,"duration":0.1263020833333428},{"name":"F3","midi":53,"time":188.68880208333258,"velocity":0.84251968503937,"duration":0.25390625},{"name":"A4","midi":69,"time":188.68880208333258,"velocity":0.84251968503937,"duration":0.5091145833333428},{"name":"A5","midi":81,"time":188.68880208333258,"velocity":0.84251968503937,"duration":0.25390625},{"name":"E3","midi":52,"time":188.94661458333258,"velocity":0.84251968503937,"duration":0.25390625},{"name":"C#5","midi":73,"time":188.94661458333258,"velocity":0.84251968503937,"duration":0.25390625},{"name":"F3","midi":53,"time":189.20312499999923,"velocity":0.84251968503937,"duration":0.25390625},{"name":"A3","midi":57,"time":189.20312499999923,"velocity":0.84251968503937,"duration":0.51171875},{"name":"D5","midi":74,"time":189.20312499999923,"velocity":0.84251968503937,"duration":0.25390625},{"name":"D3","midi":50,"time":189.46093749999923,"velocity":0.84251968503937,"duration":0.25390625},{"name":"G5","midi":79,"time":189.46093749999923,"velocity":0.84251968503937,"duration":0.24609375},{"name":"G3","midi":55,"time":189.7174479166659,"velocity":0.84251968503937,"duration":0.5143229166666856},{"name":"B3","midi":59,"time":189.7174479166659,"velocity":0.84251968503937,"duration":0.5143229166666856},{"name":"E5","midi":76,"time":189.7174479166659,"velocity":0.84251968503937,"duration":0.1341145833333428},{"name":"D5","midi":74,"time":189.84765624999923,"velocity":0.84251968503937,"duration":0.1263020833333428},{"name":"E5","midi":76,"time":189.97656249999923,"velocity":0.84251968503937,"duration":0.51171875},{"name":"A3","midi":57,"time":190.23437499999923,"velocity":0.84251968503937,"duration":0.51171875},{"name":"C#4","midi":61,"time":190.23437499999923,"velocity":0.84251968503937,"duration":0.51171875},{"name":"E4","midi":64,"time":190.23437499999923,"velocity":0.84251968503937,"duration":0.51171875},{"name":"D5","midi":74,"time":190.4908854166659,"velocity":0.84251968503937,"duration":0.25390625},{"name":"D3","midi":50,"time":190.7486979166659,"velocity":0.84251968503937,"duration":2.3203125000000284},{"name":"D4","midi":62,"time":190.7486979166659,"velocity":0.84251968503937,"duration":0.7708333333333144},{"name":"F#4","midi":66,"time":190.7486979166659,"velocity":0.84251968503937,"duration":0.5143229166666572},{"name":"D5","midi":74,"time":190.7486979166659,"velocity":0.84251968503937,"duration":0.7734374999999716},{"name":"G4","midi":67,"time":191.2656249999992,"velocity":0.84251968503937,"duration":0.5143229166666856},{"name":"E4","midi":64,"time":191.52213541666586,"velocity":0.84251968503937,"duration":0.1263020833333428},{"name":"D4","midi":62,"time":191.6523437499992,"velocity":0.84251968503937,"duration":0.1263020833333428},{"name":"C4","midi":60,"time":191.78124999999923,"velocity":0.84251968503937,"duration":0.5143229166666572},{"name":"A4","midi":69,"time":191.78124999999923,"velocity":0.84251968503937,"duration":0.7708333333333144},{"name":"F#4","midi":66,"time":192.29817708333255,"velocity":0.84251968503937,"duration":0.5143229166666856},{"name":"B4","midi":71,"time":192.5546874999992,"velocity":0.84251968503937,"duration":0.1263020833333428},{"name":"A4","midi":69,"time":192.68489583333255,"velocity":0.84251968503937,"duration":0.1263020833333428},{"name":"B3","midi":59,"time":192.81380208333258,"velocity":0.84251968503937,"duration":0.51171875},{"name":"G4","midi":67,"time":192.81380208333258,"velocity":0.84251968503937,"duration":0.51171875},{"name":"E3","midi":52,"time":193.07161458333258,"velocity":0.84251968503937,"duration":0.25390625},{"name":"D3","midi":50,"time":193.32812499999923,"velocity":0.84251968503937,"duration":0.25390625},{"name":"E4","midi":64,"time":193.32812499999923,"velocity":0.84251968503937,"duration":0.7682291666666572},{"name":"C5","midi":72,"time":193.32812499999923,"velocity":0.84251968503937,"duration":0.51171875},{"name":"C3","midi":48,"time":193.58593749999923,"velocity":0.84251968503937,"duration":0.25390625},{"name":"B2","midi":47,"time":193.8424479166659,"velocity":0.84251968503937,"duration":0.25390625},{"name":"F#4","midi":66,"time":193.8424479166659,"velocity":0.84251968503937,"duration":0.2526041666666572},{"name":"A2","midi":45,"time":194.1002604166659,"velocity":0.84251968503937,"duration":0.25390625},{"name":"F#4","midi":66,"time":194.1002604166659,"velocity":0.84251968503937,"duration":0.25390625},{"name":"G2","midi":43,"time":194.35677083333255,"velocity":0.84251968503937,"duration":0.25390625},{"name":"E4","midi":64,"time":194.35677083333255,"velocity":0.84251968503937,"duration":0.25390625},{"name":"B4","midi":71,"time":194.35677083333255,"velocity":0.84251968503937,"duration":0.7747395833333144},{"name":"F#2","midi":42,"time":194.61458333333255,"velocity":0.84251968503937,"duration":0.25390625},{"name":"D4","midi":62,"time":194.61458333333255,"velocity":0.84251968503937,"duration":0.25390625},{"name":"E2","midi":40,"time":194.8710937499992,"velocity":0.84251968503937,"duration":0.5234375},{"name":"C4","midi":60,"time":194.8710937499992,"velocity":0.84251968503937,"duration":1.8229166666666003},{"name":"C5","midi":72,"time":195.13541666666586,"velocity":0.84251968503937,"duration":0.2604166666666856},{"name":"E3","midi":52,"time":195.3984374999992,"velocity":0.84251968503937,"duration":0.5234374999999716},{"name":"B4","midi":71,"time":195.3984374999992,"velocity":0.84251968503937,"duration":0.2604166666666572},{"name":"A4","midi":69,"time":195.66145833333252,"velocity":0.84251968503937,"duration":0.2604166666666572},{"name":"F#3","midi":54,"time":195.92447916666583,"velocity":0.84251968503937,"duration":0.5234374999999716},{"name":"G4","midi":67,"time":195.92447916666583,"velocity":0.84251968503937,"duration":0.2604166666666572},{"name":"F#4","midi":66,"time":196.18749999999915,"velocity":0.84251968503937,"duration":0.2604166666666572},{"name":"G3","midi":55,"time":196.4518229166658,"velocity":0.84251968503937,"duration":1.0507812499999716},{"name":"E4","midi":64,"time":196.4518229166658,"velocity":0.84251968503937,"duration":0.2604166666666572},{"name":"G4","midi":67,"time":196.4518229166658,"velocity":0.84251968503937,"duration":0.5234374999999716},{"name":"D4","midi":62,"time":196.71484374999912,"velocity":0.84251968503937,"duration":0.2604166666666572},{"name":"E4","midi":64,"time":196.97786458333243,"velocity":0.84251968503937,"duration":1.0507812499999716},{"name":"A4","midi":69,"time":196.97786458333243,"velocity":0.84251968503937,"duration":0.5234375},{"name":"D4","midi":62,"time":197.24088541666578,"velocity":0.84251968503937,"duration":0.2604166666666572},{"name":"A3","midi":57,"time":197.50520833333243,"velocity":0.84251968503937,"duration":0.2604166666666572},{"name":"C4","midi":60,"time":197.50520833333243,"velocity":0.84251968503937,"duration":0.2604166666666572},{"name":"B4","midi":71,"time":197.50520833333243,"velocity":0.84251968503937,"duration":0.5234374999999716},{"name":"G3","midi":55,"time":197.76822916666575,"velocity":0.84251968503937,"duration":0.2604166666666572},{"name":"B3","midi":59,"time":197.76822916666575,"velocity":0.84251968503937,"duration":0.2604166666666572},{"name":"F#3","midi":54,"time":198.03124999999906,"velocity":0.84251968503937,"duration":0.5234374999999716},{"name":"A3","midi":57,"time":198.03124999999906,"velocity":0.84251968503937,"duration":0.2604166666666572},{"name":"D4","midi":62,"time":198.03124999999906,"velocity":0.84251968503937,"duration":1.3124999999999432},{"name":"C5","midi":72,"time":198.03124999999906,"velocity":0.84251968503937,"duration":0.7877604166666288},{"name":"G3","midi":55,"time":198.29427083333238,"velocity":0.84251968503937,"duration":0.2604166666666572},{"name":"D3","midi":50,"time":198.55859374999903,"velocity":0.84251968503937,"duration":0.5195312499999716},{"name":"A3","midi":57,"time":198.55859374999903,"velocity":0.84251968503937,"duration":0.2604166666666572},{"name":"F#3","midi":54,"time":198.82161458333235,"velocity":0.84251968503937,"duration":0.2591145833333428},{"name":"D5","midi":74,"time":198.82161458333235,"velocity":0.84251968503937,"duration":0.12890625},{"name":"C5","midi":72,"time":198.953124999999,"velocity":0.84251968503937,"duration":0.1263020833333428},{"name":"G3","midi":55,"time":199.08333333333235,"velocity":0.84251968503937,"duration":1.0429687499999432},{"name":"B4","midi":71,"time":199.08333333333235,"velocity":0.84251968503937,"duration":0.5234374999999716},{"name":"A4","midi":69,"time":199.34635416666566,"velocity":0.84251968503937,"duration":0.2604166666666572},{"name":"B3","midi":59,"time":199.60937499999898,"velocity":0.84251968503937,"duration":0.5234374999999716},{"name":"G4","midi":67,"time":199.60937499999898,"velocity":0.84251968503937,"duration":0.2604166666666572},{"name":"E5","midi":76,"time":199.60937499999898,"velocity":0.84251968503937,"duration":0.5234374999999716},{"name":"F4","midi":65,"time":199.8723958333323,"velocity":0.84251968503937,"duration":0.2604166666666572},{"name":"G3","midi":55,"time":200.1354166666656,"velocity":0.84251968503937,"duration":1.0507812499999716},{"name":"C4","midi":60,"time":200.1354166666656,"velocity":0.84251968503937,"duration":0.5234375},{"name":"E4","midi":64,"time":200.1354166666656,"velocity":0.84251968503937,"duration":0.2604166666666572},{"name":"A4","midi":69,"time":200.1354166666656,"velocity":0.84251968503937,"duration":0.5234375},{"name":"G4","midi":67,"time":200.39973958333226,"velocity":0.84251968503937,"duration":0.2604166666666856},{"name":"D4","midi":62,"time":200.6627604166656,"velocity":0.84251968503937,"duration":0.5234374999999716},{"name":"F4","midi":65,"time":200.6627604166656,"velocity":0.84251968503937,"duration":0.2604166666666572},{"name":"D5","midi":74,"time":200.6627604166656,"velocity":0.84251968503937,"duration":0.7877604166666288},{"name":"A4","midi":69,"time":200.92578124999892,"velocity":0.84251968503937,"duration":0.2604166666666572},{"name":"G3","midi":55,"time":201.18880208333223,"velocity":0.84251968503937,"duration":2.104166666666572},{"name":"E4","midi":64,"time":201.18880208333223,"velocity":0.84251968503937,"duration":0.7877604166666288},{"name":"G4","midi":67,"time":201.18880208333223,"velocity":0.84251968503937,"duration":1.0507812499999432},{"name":"E5","midi":76,"time":201.4531249999989,"velocity":0.84251968503937,"duration":0.2604166666666572},{"name":"D5","midi":74,"time":201.7161458333322,"velocity":0.84251968503937,"duration":0.2604166666666572},{"name":"F4","midi":65,"time":201.97916666666552,"velocity":0.84251968503937,"duration":0.12890625},{"name":"C5","midi":72,"time":201.97916666666552,"velocity":0.84251968503937,"duration":0.2604166666666572},{"name":"E4","midi":64,"time":202.11067708333218,"velocity":0.84251968503937,"duration":0.12890625},{"name":"D4","midi":62,"time":202.24218749999883,"velocity":0.84251968503937,"duration":0.5234375},{"name":"G4","midi":67,"time":202.24218749999883,"velocity":0.84251968503937,"duration":0.2604166666666572},{"name":"B4","midi":71,"time":202.24218749999883,"velocity":0.84251968503937,"duration":0.2604166666666572},{"name":"A4","midi":69,"time":202.5065104166655,"velocity":0.84251968503937,"duration":0.2604166666666856},{"name":"C5","midi":72,"time":202.5065104166655,"velocity":0.84251968503937,"duration":0.2604166666666856},{"name":"G4","midi":67,"time":202.76953124999883,"velocity":0.84251968503937,"duration":0.5234374999999716},{"name":"A#4","midi":70,"time":202.76953124999883,"velocity":0.84251968503937,"duration":0.5234374999999716},{"name":"D5","midi":74,"time":202.76953124999883,"velocity":0.84251968503937,"duration":0.2604166666666572},{"name":"E5","midi":76,"time":203.03255208333215,"velocity":0.84251968503937,"duration":0.2604166666666572},{"name":"A3","midi":57,"time":203.29557291666546,"velocity":0.84251968503937,"duration":1.0507812499999716},{"name":"C4","midi":60,"time":203.29557291666546,"velocity":0.84251968503937,"duration":0.5234375},{"name":"C5","midi":72,"time":203.29557291666546,"velocity":0.84251968503937,"duration":1.0507812499999716},{"name":"F5","midi":77,"time":203.29557291666546,"velocity":0.84251968503937,"duration":0.2604166666666572},{"name":"G5","midi":79,"time":203.55989583333212,"velocity":0.84251968503937,"duration":0.2604166666666856},{"name":"F4","midi":65,"time":203.82291666666546,"velocity":0.84251968503937,"duration":0.12890625},{"name":"A5","midi":81,"time":203.82291666666546,"velocity":0.84251968503937,"duration":0.2604166666666572},{"name":"E4","midi":64,"time":203.95442708333212,"velocity":0.84251968503937,"duration":0.12890625},{"name":"F4","midi":65,"time":204.08593749999878,"velocity":0.84251968503937,"duration":0.5234374999999716},{"name":"G5","midi":79,"time":204.08593749999878,"velocity":0.84251968503937,"duration":0.2604166666666572},{"name":"B3","midi":59,"time":204.3489583333321,"velocity":0.84251968503937,"duration":0.5234375},{"name":"D5","midi":74,"time":204.3489583333321,"velocity":0.84251968503937,"duration":0.5234375},{"name":"F5","midi":77,"time":204.3489583333321,"velocity":0.84251968503937,"duration":0.2604166666666572},{"name":"G4","midi":67,"time":204.61328124999875,"velocity":0.84251968503937,"duration":0.2604166666666856},{"name":"E5","midi":76,"time":204.61328124999875,"velocity":0.84251968503937,"duration":0.2604166666666856},{"name":"C4","midi":60,"time":204.8763020833321,"velocity":0.84251968503937,"duration":0.5234374999999716},{"name":"F4","midi":65,"time":204.8763020833321,"velocity":0.84251968503937,"duration":0.2604166666666572},{"name":"G4","midi":67,"time":204.8763020833321,"velocity":0.84251968503937,"duration":0.6406249999999432},{"name":"D5","midi":74,"time":204.8763020833321,"velocity":0.84251968503937,"duration":0.2604166666666572},{"name":"E4","midi":64,"time":205.1393229166654,"velocity":0.84251968503937,"duration":0.2604166666666572},{"name":"C5","midi":72,"time":205.1393229166654,"velocity":0.84251968503937,"duration":0.3281249999999716},{"name":"F3","midi":53,"time":205.40234374999872,"velocity":0.84251968503937,"duration":0.2604166666666572},{"name":"D4","midi":62,"time":205.40234374999872,"velocity":0.84251968503937,"duration":1.0507812499999432},{"name":"G4","midi":67,"time":205.53385416666538,"velocity":0.84251968503937,"duration":1.4401041666666003},{"name":"A3","midi":57,"time":205.66666666666538,"velocity":0.84251968503937,"duration":0.2604166666666572},{"name":"B4","midi":71,"time":205.66666666666538,"velocity":0.84251968503937,"duration":0.7890624999999432},{"name":"G3","midi":55,"time":205.9296874999987,"velocity":0.84251968503937,"duration":0.2604166666666572},{"name":"F3","midi":53,"time":206.192708333332,"velocity":0.84251968503937,"duration":0.2604166666666572},{"name":"E3","midi":52,"time":206.45572916666532,"velocity":0.84251968503937,"duration":0.2604166666666572},{"name":"E4","midi":64,"time":206.45572916666532,"velocity":0.84251968503937,"duration":0.5234375},{"name":"C5","midi":72,"time":206.45572916666532,"velocity":0.84251968503937,"duration":0.5234375},{"name":"D3","midi":50,"time":206.71874999999864,"velocity":0.84251968503937,"duration":0.2604166666666856},{"name":"C3","midi":48,"time":206.98307291666532,"velocity":0.84251968503937,"duration":0.2604166666666572},{"name":"D4","midi":62,"time":206.98307291666532,"velocity":0.84251968503937,"duration":1.0507812499999432},{"name":"F4","midi":65,"time":206.98307291666532,"velocity":0.84251968503937,"duration":0.5234374999999716},{"name":"D5","midi":74,"time":206.98307291666532,"velocity":0.84251968503937,"duration":0.5234374999999716},{"name":"B2","midi":47,"time":207.24609374999864,"velocity":0.84251968503937,"duration":0.2604166666666572},{"name":"C3","midi":48,"time":207.50911458333195,"velocity":0.84251968503937,"duration":0.2604166666666572},{"name":"G4","midi":67,"time":207.50911458333195,"velocity":0.84251968503937,"duration":0.5234374999999716},{"name":"D3","midi":50,"time":207.77213541666526,"velocity":0.84251968503937,"duration":0.2604166666666572},{"name":"E3","midi":52,"time":208.03645833333192,"velocity":0.84251968503937,"duration":0.2604166666666572},{"name":"G3","midi":55,"time":208.03645833333192,"velocity":0.84251968503937,"duration":0.5195312499999716},{"name":"E4","midi":64,"time":208.03645833333192,"velocity":0.84251968503937,"duration":0.5221354166666288},{"name":"C5","midi":72,"time":208.03645833333192,"velocity":0.84251968503937,"duration":1.048177083333286},{"name":"F3","midi":53,"time":208.29947916666524,"velocity":0.84251968503937,"duration":0.2591145833333144},{"name":"G3","midi":55,"time":208.5611979166652,"velocity":0.84251968503937,"duration":1.5859374999999716},{"name":"D4","midi":62,"time":208.5611979166652,"velocity":0.84251968503937,"duration":1.05078125},{"name":"G2","midi":43,"time":209.08723958333186,"velocity":0.84251968503937,"duration":0.5234375},{"name":"B4","midi":71,"time":209.08723958333186,"velocity":0.84251968503937,"duration":0.10677083333334281},{"name":"C5","midi":72,"time":209.19270833333186,"velocity":0.84251968503937,"duration":0.10677083333334281},{"name":"B4","midi":71,"time":209.29817708333186,"velocity":0.84251968503937,"duration":0.3229166666666572},{"name":"C3","midi":48,"time":209.61458333333186,"velocity":0.84251968503937,"duration":0.5299479166666572},{"name":"E4","midi":64,"time":209.61458333333186,"velocity":0.84251968503937,"duration":0.5325520833333144},{"name":"C5","midi":72,"time":209.61458333333186,"velocity":0.84251968503937,"duration":1.0677083333333144},{"name":"C3","midi":48,"time":210.14843749999852,"velocity":0.84251968503937,"duration":1.6015625},{"name":"A4","midi":69,"time":210.14843749999852,"velocity":0.84251968503937,"duration":1.0677083333333428},{"name":"D3","midi":50,"time":210.68359374999852,"velocity":0.84251968503937,"duration":0.5325520833333428},{"name":"B4","midi":71,"time":210.68359374999852,"velocity":0.84251968503937,"duration":0.5325520833333428},{"name":"E3","midi":52,"time":211.21874999999852,"velocity":0.84251968503937,"duration":0.5325520833333428},{"name":"G4","midi":67,"time":211.21874999999852,"velocity":0.84251968503937,"duration":1.0677083333333428},{"name":"A#4","midi":70,"time":211.21874999999852,"velocity":0.84251968503937,"duration":0.5325520833333428},{"name":"C3","midi":48,"time":211.75390624999852,"velocity":0.84251968503937,"duration":2.13671875},{"name":"F3","midi":53,"time":211.75390624999852,"velocity":0.84251968503937,"duration":0.7994791666666572},{"name":"A4","midi":69,"time":211.75390624999852,"velocity":0.84251968503937,"duration":0.5325520833333428},{"name":"F4","midi":65,"time":212.28906249999852,"velocity":0.84251968503937,"duration":0.532552083333286},{"name":"D5","midi":74,"time":212.28906249999852,"velocity":0.84251968503937,"duration":1.0677083333333144},{"name":"G3","midi":55,"time":212.55598958333184,"velocity":0.84251968503937,"duration":0.1315104166666572},{"name":"F3","midi":53,"time":212.69010416666515,"velocity":0.84251968503937,"duration":0.1315104166666572},{"name":"E3","midi":52,"time":212.82291666666515,"velocity":0.84251968503937,"duration":0.5325520833333428},{"name":"G4","midi":67,"time":212.82291666666515,"velocity":0.84251968503937,"duration":0.5325520833333428},{"name":"A3","midi":57,"time":213.35807291666518,"velocity":0.84251968503937,"duration":0.5325520833333428},{"name":"A4","midi":69,"time":213.35807291666518,"velocity":0.84251968503937,"duration":0.5325520833333428},{"name":"C5","midi":72,"time":213.35807291666518,"velocity":0.84251968503937,"duration":0.5325520833333428},{"name":"C3","midi":48,"time":213.89322916666518,"velocity":0.84251968503937,"duration":2.1367187499999147},{"name":"D3","midi":50,"time":213.89322916666518,"velocity":0.84251968503937,"duration":0.5325520833333428},{"name":"A#4","midi":70,"time":213.89322916666518,"velocity":0.84251968503937,"duration":0.7994791666666572},{"name":"D5","midi":74,"time":213.89322916666518,"velocity":0.84251968503937,"duration":0.5325520833333428},{"name":"G3","midi":55,"time":214.42838541666518,"velocity":0.84251968503937,"duration":0.7994791666666003},{"name":"E5","midi":76,"time":214.42838541666518,"velocity":0.84251968503937,"duration":0.532552083333286},{"name":"C5","midi":72,"time":214.6953124999985,"velocity":0.84251968503937,"duration":0.1315104166666572},{"name":"A#4","midi":70,"time":214.8294270833318,"velocity":0.84251968503937,"duration":0.1315104166666572},{"name":"A4","midi":69,"time":214.96354166666512,"velocity":0.84251968503937,"duration":0.5325520833333144},{"name":"F5","midi":77,"time":214.96354166666512,"velocity":0.84251968503937,"duration":1.3385416666666288},{"name":"A3","midi":57,"time":215.23046874999844,"velocity":0.84251968503937,"duration":0.2643229166666572},{"name":"G3","midi":55,"time":215.49739583333178,"velocity":0.84251968503937,"duration":0.2643229166666572},{"name":"D5","midi":74,"time":215.49739583333178,"velocity":0.84251968503937,"duration":0.5325520833333144},{"name":"F3","midi":53,"time":215.76562499999844,"velocity":0.84251968503937,"duration":0.2643229166666572},{"name":"C3","midi":48,"time":216.03255208333175,"velocity":0.84251968503937,"duration":2.169270833333229},{"name":"E3","midi":52,"time":216.03255208333175,"velocity":0.84251968503937,"duration":0.2682291666666572},{"name":"G4","midi":67,"time":216.03255208333175,"velocity":0.84251968503937,"duration":0.5403645833333144},{"name":"D3","midi":50,"time":216.3046874999984,"velocity":0.84251968503937,"duration":0.2682291666666572},{"name":"A5","midi":81,"time":216.3046874999984,"velocity":0.84251968503937,"duration":0.2682291666666572},{"name":"E3","midi":52,"time":216.57552083333172,"velocity":0.84251968503937,"duration":0.2682291666666572},{"name":"C5","midi":72,"time":216.57552083333172,"velocity":0.84251968503937,"duration":0.8124999999999716},{"name":"G5","midi":79,"time":216.57552083333172,"velocity":0.84251968503937,"duration":0.2682291666666572},{"name":"F3","midi":53,"time":216.84765624999838,"velocity":0.84251968503937,"duration":0.2682291666666572},{"name":"F5","midi":77,"time":216.84765624999838,"velocity":0.84251968503937,"duration":0.2682291666666572},{"name":"G3","midi":55,"time":217.1184895833317,"velocity":0.84251968503937,"duration":0.2682291666666572},{"name":"E5","midi":76,"time":217.1184895833317,"velocity":0.84251968503937,"duration":0.2682291666666572},{"name":"A3","midi":57,"time":217.39062499999835,"velocity":0.84251968503937,"duration":0.2682291666666572},{"name":"D5","midi":74,"time":217.39062499999835,"velocity":0.84251968503937,"duration":0.2682291666666572},{"name":"F5","midi":77,"time":217.39062499999835,"velocity":0.84251968503937,"duration":0.2682291666666572},{"name":"A#3","midi":58,"time":217.662760416665,"velocity":0.84251968503937,"duration":0.2682291666666572},{"name":"C5","midi":72,"time":217.662760416665,"velocity":0.84251968503937,"duration":0.2682291666666572},{"name":"E5","midi":76,"time":217.662760416665,"velocity":0.84251968503937,"duration":0.2682291666666572},{"name":"G3","midi":55,"time":217.93359374999832,"velocity":0.84251968503937,"duration":0.2682291666666572},{"name":"A#4","midi":70,"time":217.93359374999832,"velocity":0.84251968503937,"duration":0.2682291666666572},{"name":"D5","midi":74,"time":217.93359374999832,"velocity":0.84251968503937,"duration":0.2682291666666572},{"name":"C3","midi":48,"time":218.20572916666498,"velocity":0.84251968503937,"duration":2.2187500000000284},{"name":"A3","midi":57,"time":218.20572916666498,"velocity":0.84251968503937,"duration":0.2747395833333428},{"name":"A4","midi":69,"time":218.20572916666498,"velocity":0.84251968503937,"duration":0.2747395833333428},{"name":"C5","midi":72,"time":218.20572916666498,"velocity":0.84251968503937,"duration":2.2187500000000284},{"name":"E3","midi":52,"time":218.48307291666498,"velocity":0.84251968503937,"duration":0.2747395833333428},{"name":"A#4","midi":70,"time":218.48307291666498,"velocity":0.84251968503937,"duration":0.2747395833333428},{"name":"F3","midi":53,"time":218.76041666666498,"velocity":0.84251968503937,"duration":0.2747395833333428},{"name":"A4","midi":69,"time":218.76041666666498,"velocity":0.84251968503937,"duration":0.2747395833333428},{"name":"G3","midi":55,"time":219.03906249999832,"velocity":0.84251968503937,"duration":0.2747395833333428},{"name":"G4","midi":67,"time":219.03906249999832,"velocity":0.84251968503937,"duration":0.2747395833333428},{"name":"A3","midi":57,"time":219.31640624999832,"velocity":0.84251968503937,"duration":0.2747395833333428},{"name":"F4","midi":65,"time":219.31640624999832,"velocity":0.84251968503937,"duration":0.2747395833333428},{"name":"B3","midi":59,"time":219.59374999999832,"velocity":0.84251968503937,"duration":0.2747395833333428},{"name":"G4","midi":67,"time":219.59374999999832,"velocity":0.84251968503937,"duration":0.2747395833333428},{"name":"C4","midi":60,"time":219.87109374999832,"velocity":0.84251968503937,"duration":0.2747395833333428},{"name":"F4","midi":65,"time":219.87109374999832,"velocity":0.84251968503937,"duration":0.2747395833333428},{"name":"A3","midi":57,"time":220.14973958333167,"velocity":0.84251968503937,"duration":0.2747395833333428},{"name":"E4","midi":64,"time":220.14973958333167,"velocity":0.84251968503937,"duration":0.2747395833333428},{"name":"C3","midi":48,"time":220.42708333333167,"velocity":0.84251968503937,"duration":9.563802083333343},{"name":"B3","midi":59,"time":220.42708333333167,"velocity":0.84251968503937,"duration":2.3020833333333144},{"name":"D4","midi":62,"time":220.42708333333167,"velocity":0.84251968503937,"duration":2.0130208333333144},{"name":"G4","midi":67,"time":220.71484374999832,"velocity":0.84251968503937,"duration":0.1419270833333428},{"name":"A4","midi":69,"time":220.85937499999832,"velocity":0.84251968503937,"duration":0.1419270833333428},{"name":"B4","midi":71,"time":221.002604166665,"velocity":0.84251968503937,"duration":0.28515625},{"name":"C5","midi":72,"time":221.291666666665,"velocity":0.84251968503937,"duration":0.28515625},{"name":"D5","midi":74,"time":221.57942708333167,"velocity":0.84251968503937,"duration":0.28515625},{"name":"E5","midi":76,"time":221.86718749999832,"velocity":0.84251968503937,"duration":0.28515625},{"name":"F5","midi":77,"time":222.15494791666498,"velocity":0.84251968503937,"duration":0.7278645833333144},{"name":"G4","midi":67,"time":222.44270833333164,"velocity":0.84251968503937,"duration":0.28515625},{"name":"C4","midi":60,"time":222.73177083333164,"velocity":0.84251968503937,"duration":7.259114583333371},{"name":"A4","midi":69,"time":222.73177083333164,"velocity":0.84251968503937,"duration":1.23828125},{"name":"C5","midi":72,"time":222.88802083333164,"velocity":0.84251968503937,"duration":0.1510416666666572},{"name":"D5","midi":74,"time":223.04427083333164,"velocity":0.84251968503937,"duration":0.1510416666666572},{"name":"E5","midi":76,"time":223.20052083333164,"velocity":0.84251968503937,"duration":0.1510416666666572},{"name":"F5","midi":77,"time":223.35677083333164,"velocity":0.84251968503937,"duration":0.30859375},{"name":"G5","midi":79,"time":223.66927083333164,"velocity":0.84251968503937,"duration":0.3098958333333428},{"name":"A5","midi":81,"time":223.98437499999832,"velocity":0.84251968503937,"duration":1.1223958333333428},{"name":"F5","midi":77,"time":224.34505208333167,"velocity":0.84251968503937,"duration":0.37109375},{"name":"D5","midi":74,"time":224.73567708333167,"velocity":0.84251968503937,"duration":0.7434895833333428},{"name":"B5","midi":83,"time":225.111979166665,"velocity":0.84251968503937,"duration":0.37109375},{"name":"C6","midi":84,"time":225.50781249999835,"velocity":0.84251968503937,"duration":4.502604166666657},{"name":"E5","midi":76,"time":225.50781249999835,"velocity":0.84251968503937,"duration":4.502604166666657},{"name":"G5","midi":79,"time":225.50781249999835,"velocity":0.84251968503937,"duration":4.502604166666657}],"controlChanges":{"7":[{"number":7,"time":0,"value":0.7874015748031497}]},"id":1,"name":"Harpsichord","instrumentNumber":6,"instrument":"harpsichord","instrumentFamily":"piano","channelNumber":0,"isPercussion":false}]}