{"header":{"PPQ":384,"timeSignature":[4,4],"bpm":120,"name":"--------"},"startTime":0,"duration":313.48437499999966,"tracks":[{"startTime":0,"duration":0,"length":0,"notes":[],"controlChanges":{},"id":0,"name":"--------"},{"startTime":0.08463541666666667,"duration":313.48437499999966,"length":2345,"notes":[{"name":"D#3","midi":51,"time":0.08463541666666667,"velocity":0.7637795275590551,"duration":0.09375000000000001},{"name":"D3","midi":50,"time":0.17317708333333334,"velocity":0.7637795275590551,"duration":0.14713541666666666},{"name":"D#3","midi":51,"time":0.26171875,"velocity":0.7637795275590551,"duration":1.967447916666667},{"name":"G4","midi":67,"time":0.5598958333333334,"velocity":0.7637795275590551,"duration":0.14322916666666663},{"name":"G#4","midi":68,"time":0.6640625,"velocity":0.7637795275590551,"duration":0.14322916666666663},{"name":"A#4","midi":70,"time":0.7682291666666666,"velocity":0.7637795275590551,"duration":0.14322916666666663},{"name":"G#4","midi":68,"time":0.8723958333333333,"velocity":0.7637795275590551,"duration":0.14322916666666674},{"name":"G4","midi":67,"time":0.9765624999999999,"velocity":0.7637795275590551,"duration":0.14322916666666685},{"name":"F4","midi":65,"time":1.08203125,"velocity":0.7637795275590551,"duration":0.14322916666666674},{"name":"D#4","midi":63,"time":1.1861979166666667,"velocity":0.7637795275590551,"duration":1.5442708333333333},{"name":"C#5","midi":73,"time":1.2903645833333335,"velocity":0.7637795275590551,"duration":1.4609375},{"name":"G3","midi":55,"time":1.6705729166666667,"velocity":0.7637795275590551,"duration":0.15755208333333326},{"name":"G#3","midi":56,"time":1.78125,"velocity":0.7637795275590551,"duration":0.14322916666666674},{"name":"A#3","midi":58,"time":1.89453125,"velocity":0.7637795275590551,"duration":0.14322916666666696},{"name":"G#3","midi":56,"time":2.006510416666667,"velocity":0.7637795275590551,"duration":0.14322916666666652},{"name":"G3","midi":55,"time":2.1184895833333335,"velocity":0.7637795275590551,"duration":0.14322916666666696},{"name":"F3","midi":53,"time":2.2304687500000004,"velocity":0.7637795275590551,"duration":0.14322916666666652},{"name":"D#3","midi":51,"time":2.3437500000000004,"velocity":0.7637795275590551,"duration":4.545572916666668},{"name":"G#3","midi":56,"time":2.4544270833333335,"velocity":0.7637795275590551,"duration":1.4609374999999996},{"name":"C5","midi":72,"time":2.873697916666667,"velocity":0.7637795275590551,"duration":0.14322916666666652},{"name":"C#5","midi":73,"time":2.986979166666667,"velocity":0.7637795275590551,"duration":0.14322916666666652},{"name":"D#5","midi":75,"time":3.096354166666667,"velocity":0.7637795275590551,"duration":0.14322916666666652},{"name":"C#5","midi":73,"time":3.2005208333333335,"velocity":0.7637795275590551,"duration":0.14322916666666652},{"name":"C5","midi":72,"time":3.3046875,"velocity":0.7637795275590551,"duration":0.14322916666666652},{"name":"A#4","midi":70,"time":3.41015625,"velocity":0.7637795275590551,"duration":0.14322916666666652},{"name":"G#4","midi":68,"time":3.5143229166666665,"velocity":0.7637795275590551,"duration":1.5442708333333353},{"name":"F5","midi":77,"time":3.618489583333333,"velocity":0.7637795275590551,"duration":1.4609375000000018},{"name":"G#3","midi":56,"time":3.9986979166666665,"velocity":0.7637795275590551,"duration":0.15755208333333348},{"name":"A#3","midi":58,"time":4.109375,"velocity":0.7637795275590551,"duration":0.14322916666666696},{"name":"C4","midi":60,"time":4.22265625,"velocity":0.7637795275590551,"duration":0.14322916666666696},{"name":"A#3","midi":58,"time":4.333333333333334,"velocity":0.7637795275590551,"duration":0.14322916666666696},{"name":"G#3","midi":56,"time":4.446614583333334,"velocity":0.7637795275590551,"duration":0.14322916666666696},{"name":"G3","midi":55,"time":4.559895833333334,"velocity":0.7637795275590551,"duration":0.14322916666666696},{"name":"F3","midi":53,"time":4.670572916666668,"velocity":0.7637795275590551,"duration":0.14322916666666696},{"name":"D4","midi":62,"time":4.783854166666668,"velocity":0.7637795275590551,"duration":1.4609375000000009},{"name":"D5","midi":74,"time":5.201822916666668,"velocity":0.7637795275590551,"duration":0.14322916666666696},{"name":"D#5","midi":75,"time":5.315104166666668,"velocity":0.7637795275590551,"duration":0.14322916666666696},{"name":"F5","midi":77,"time":5.424479166666668,"velocity":0.7637795275590551,"duration":0.14322916666666696},{"name":"D#5","midi":75,"time":5.528645833333335,"velocity":0.7637795275590551,"duration":0.14322916666666696},{"name":"D5","midi":74,"time":5.634114583333335,"velocity":0.7637795275590551,"duration":0.14322916666666696},{"name":"C5","midi":72,"time":5.738281250000002,"velocity":0.7637795275590551,"duration":0.14322916666666696},{"name":"A#4","midi":70,"time":5.842447916666669,"velocity":0.7637795275590551,"duration":1.514322916666667},{"name":"G#5","midi":80,"time":5.947916666666669,"velocity":0.7637795275590551,"duration":1.4609375},{"name":"D4","midi":62,"time":6.312500000000002,"velocity":0.7637795275590551,"duration":0.15755208333333304},{"name":"D#4","midi":63,"time":6.433593750000002,"velocity":0.7637795275590551,"duration":0.14322916666666607},{"name":"F4","midi":65,"time":6.549479166666668,"velocity":0.7637795275590551,"duration":0.14322916666666696},{"name":"D#4","midi":63,"time":6.662760416666668,"velocity":0.7637795275590551,"duration":0.14322916666666696},{"name":"D4","midi":62,"time":6.774739583333335,"velocity":0.7637795275590551,"duration":0.14322916666666696},{"name":"C4","midi":60,"time":6.886718750000002,"velocity":0.7637795275590551,"duration":0.14322916666666696},{"name":"A#3","midi":58,"time":6.998697916666669,"velocity":0.7637795275590551,"duration":0.14322916666666696},{"name":"D#4","midi":63,"time":7.111979166666669,"velocity":0.7637795275590551,"duration":1.4609374999999991},{"name":"F5","midi":77,"time":7.535156250000002,"velocity":0.7637795275590551,"duration":0.14322916666666696},{"name":"G5","midi":79,"time":7.648437500000002,"velocity":0.7637795275590551,"duration":0.14322916666666696},{"name":"G#5","midi":80,"time":7.752604166666669,"velocity":0.7637795275590551,"duration":0.14322916666666696},{"name":"G5","midi":79,"time":7.856770833333336,"velocity":0.7637795275590551,"duration":0.14322916666666785},{"name":"F5","midi":77,"time":7.960937500000003,"velocity":0.7637795275590551,"duration":0.14322916666666696},{"name":"D#5","midi":75,"time":8.06510416666667,"velocity":0.7637795275590551,"duration":0.14322916666666607},{"name":"D5","midi":74,"time":8.169270833333336,"velocity":0.7637795275590551,"duration":0.14322916666666607},{"name":"D#5","midi":75,"time":8.274739583333336,"velocity":0.7637795275590551,"duration":1.3072916666666643},{"name":"G5","midi":79,"time":8.274739583333336,"velocity":0.7637795275590551,"duration":1.4609374999999964},{"name":"D#4","midi":63,"time":8.600260416666668,"velocity":0.7637795275590551,"duration":0.15755208333333393},{"name":"F4","midi":65,"time":8.721354166666668,"velocity":0.7637795275590551,"duration":0.14322916666666785},{"name":"G4","midi":67,"time":8.832031250000002,"velocity":0.7637795275590551,"duration":0.14322916666666785},{"name":"F4","midi":65,"time":8.95963541666667,"velocity":0.7637795275590551,"duration":0.14322916666666607},{"name":"D#4","midi":63,"time":9.079427083333336,"velocity":0.7637795275590551,"duration":0.14322916666666607},{"name":"D4","midi":62,"time":9.199218750000002,"velocity":0.7637795275590551,"duration":0.14322916666666607},{"name":"C4","midi":60,"time":9.319010416666668,"velocity":0.7637795275590551,"duration":0.14322916666666607},{"name":"A#3","midi":58,"time":9.438802083333334,"velocity":0.7637795275590551,"duration":0.4244791666666643},{"name":"D#5","midi":75,"time":9.721354166666666,"velocity":0.7637795275590551,"duration":0.15755208333333215},{"name":"C4","midi":60,"time":9.721354166666666,"velocity":0.7637795275590551,"duration":0.14322916666666607},{"name":"F5","midi":77,"time":9.852864583333332,"velocity":0.7637795275590551,"duration":0.14322916666666607},{"name":"D4","midi":62,"time":9.852864583333332,"velocity":0.7637795275590551,"duration":0.14322916666666607},{"name":"G5","midi":79,"time":9.970052083333332,"velocity":0.7637795275590551,"duration":0.14322916666666607},{"name":"D#4","midi":63,"time":9.970052083333332,"velocity":0.7637795275590551,"duration":0.14322916666666607},{"name":"F5","midi":77,"time":10.102864583333332,"velocity":0.7637795275590551,"duration":0.14322916666666607},{"name":"D4","midi":62,"time":10.102864583333332,"velocity":0.7637795275590551,"duration":0.14322916666666607},{"name":"C4","midi":60,"time":10.227864583333332,"velocity":0.7637795275590551,"duration":0.14322916666666607},{"name":"D#5","midi":75,"time":10.227864583333332,"velocity":0.7637795275590551,"duration":0.14322916666666607},{"name":"A#3","midi":58,"time":10.352864583333332,"velocity":0.7637795275590551,"duration":0.14322916666666607},{"name":"D5","midi":74,"time":10.352864583333332,"velocity":0.7637795275590551,"duration":0.14322916666666607},{"name":"C5","midi":72,"time":10.477864583333332,"velocity":0.7637795275590551,"duration":1.3020833333333321},{"name":"G#3","midi":56,"time":10.477864583333332,"velocity":0.7637795275590551,"duration":0.14322916666666607},{"name":"G3","midi":55,"time":10.602864583333332,"velocity":0.7637795275590551,"duration":0.4244791666666661},{"name":"C6","midi":84,"time":10.602864583333332,"velocity":0.7637795275590551,"duration":1.3072916666666643},{"name":"D#3","midi":51,"time":10.928385416666664,"velocity":0.7637795275590551,"duration":0.14322916666666785},{"name":"F3","midi":53,"time":11.048177083333332,"velocity":0.7637795275590551,"duration":0.14322916666666607},{"name":"G3","midi":55,"time":11.160156249999998,"velocity":0.7637795275590551,"duration":0.14322916666666607},{"name":"F3","midi":53,"time":11.287760416666664,"velocity":0.7637795275590551,"duration":0.14322916666666607},{"name":"D#3","midi":51,"time":11.40755208333333,"velocity":0.7637795275590551,"duration":0.14322916666666785},{"name":"D3","midi":50,"time":11.526041666666664,"velocity":0.7637795275590551,"duration":0.14322916666666607},{"name":"C3","midi":48,"time":11.647135416666664,"velocity":0.7637795275590551,"duration":0.14322916666666607},{"name":"F3","midi":53,"time":11.76692708333333,"velocity":0.7637795275590551,"duration":0.4544270833333339},{"name":"D5","midi":74,"time":11.76692708333333,"velocity":0.7637795275590551,"duration":1.1601562499999982},{"name":"C3","midi":48,"time":12.13020833333333,"velocity":0.7637795275590551,"duration":0.14322916666666785},{"name":"A5","midi":81,"time":12.13020833333333,"velocity":0.7637795275590551,"duration":0.14322916666666785},{"name":"D3","midi":50,"time":12.257812499999998,"velocity":0.7637795275590551,"duration":0.14322916666666607},{"name":"A#5","midi":82,"time":12.257812499999998,"velocity":0.7637795275590551,"duration":0.14322916666666607},{"name":"D#3","midi":51,"time":12.369791666666664,"velocity":0.7637795275590551,"duration":0.14322916666666607},{"name":"C6","midi":84,"time":12.369791666666664,"velocity":0.7637795275590551,"duration":0.14322916666666607},{"name":"A#5","midi":82,"time":12.48177083333333,"velocity":0.7637795275590551,"duration":0.14322916666666607},{"name":"D3","midi":50,"time":12.48177083333333,"velocity":0.7637795275590551,"duration":0.14322916666666607},{"name":"C3","midi":48,"time":12.593749999999996,"velocity":0.7637795275590551,"duration":0.14322916666666607},{"name":"A5","midi":81,"time":12.593749999999996,"velocity":0.7637795275590551,"duration":0.14322916666666607},{"name":"A#2","midi":46,"time":12.707031249999996,"velocity":0.7637795275590551,"duration":0.14322916666666607},{"name":"G5","midi":79,"time":12.707031249999996,"velocity":0.7637795275590551,"duration":0.14322916666666607},{"name":"A2","midi":45,"time":12.817708333333329,"velocity":0.7637795275590551,"duration":0.14322916666666607},{"name":"F5","midi":77,"time":12.817708333333329,"velocity":0.7637795275590551,"duration":0.14322916666666607},{"name":"D3","midi":50,"time":12.930989583333329,"velocity":0.7637795275590551,"duration":0.4231770833333339},{"name":"A#5","midi":82,"time":12.930989583333329,"velocity":0.7637795275590551,"duration":0.4231770833333339},{"name":"A#2","midi":46,"time":13.195312499999995,"velocity":0.7637795275590551,"duration":0.14322916666666785},{"name":"A5","midi":81,"time":13.195312499999995,"velocity":0.7637795275590551,"duration":0.14322916666666785},{"name":"C3","midi":48,"time":13.325520833333329,"velocity":0.7637795275590551,"duration":0.14322916666666785},{"name":"G5","midi":79,"time":13.325520833333329,"velocity":0.7637795275590551,"duration":0.14322916666666785},{"name":"D3","midi":50,"time":13.449218749999996,"velocity":0.7637795275590551,"duration":0.14322916666666607},{"name":"F5","midi":77,"time":13.449218749999996,"velocity":0.7637795275590551,"duration":0.14322916666666607},{"name":"C3","midi":48,"time":13.584635416666663,"velocity":0.7637795275590551,"duration":0.14322916666666607},{"name":"D#5","midi":75,"time":13.584635416666663,"velocity":0.7637795275590551,"duration":0.14322916666666607},{"name":"A#2","midi":46,"time":13.712239583333329,"velocity":0.7637795275590551,"duration":0.14322916666666607},{"name":"D5","midi":74,"time":13.712239583333329,"velocity":0.7637795275590551,"duration":0.14322916666666607},{"name":"A2","midi":45,"time":13.839843749999995,"velocity":0.7637795275590551,"duration":0.14322916666666607},{"name":"C5","midi":72,"time":13.839843749999995,"velocity":0.7637795275590551,"duration":0.14322916666666607},{"name":"G2","midi":43,"time":13.96744791666666,"velocity":0.7637795275590551,"duration":0.14322916666666607},{"name":"A#4","midi":70,"time":13.96744791666666,"velocity":0.7637795275590551,"duration":0.14322916666666607},{"name":"C3","midi":48,"time":14.095052083333327,"velocity":0.7637795275590551,"duration":1.0143229166666643},{"name":"D#5","midi":75,"time":14.095052083333327,"velocity":0.7637795275590551,"duration":0.14322916666666607},{"name":"D5","midi":74,"time":14.239583333333327,"velocity":0.7637795275590551,"duration":0.14322916666666607},{"name":"D#5","midi":75,"time":14.385416666666659,"velocity":0.7637795275590551,"duration":1.0156249999999982},{"name":"D#3","midi":51,"time":14.510416666666659,"velocity":0.7637795275590551,"duration":0.14322916666666607},{"name":"F3","midi":53,"time":14.631510416666659,"velocity":0.7637795275590551,"duration":0.14322916666666607},{"name":"G3","midi":55,"time":14.735677083333325,"velocity":0.7637795275590551,"duration":0.14322916666666607},{"name":"F3","midi":53,"time":14.839843749999991,"velocity":0.7637795275590551,"duration":0.14322916666666607},{"name":"D#3","midi":51,"time":14.945312499999991,"velocity":0.7637795275590551,"duration":0.14322916666666607},{"name":"D3","midi":50,"time":15.048177083333323,"velocity":0.7637795275590551,"duration":0.14322916666666785},{"name":"C3","midi":48,"time":15.152343749999991,"velocity":0.7637795275590551,"duration":1.302083333333334},{"name":"A3","midi":57,"time":15.257812499999991,"velocity":0.7637795275590551,"duration":1.1601562500000018},{"name":"D#5","midi":75,"time":15.731770833333323,"velocity":0.7637795275590551,"duration":0.14322916666666607},{"name":"F5","midi":77,"time":15.83203124999999,"velocity":0.7637795275590551,"duration":0.14322916666666607},{"name":"G5","midi":79,"time":15.92968749999999,"velocity":0.7637795275590551,"duration":0.14322916666666785},{"name":"F5","midi":77,"time":16.02734374999999,"velocity":0.7637795275590551,"duration":0.14322916666666785},{"name":"D#5","midi":75,"time":16.126302083333325,"velocity":0.7637795275590551,"duration":0.14322916666666785},{"name":"D5","midi":74,"time":16.223958333333325,"velocity":0.7637795275590551,"duration":0.14322916666666785},{"name":"C5","midi":72,"time":16.324218749999993,"velocity":0.7637795275590551,"duration":0.1432291666666643},{"name":"A#2","midi":46,"time":16.421874999999993,"velocity":0.7637795275590551,"duration":6.9752604166666},{"name":"A#3","midi":58,"time":16.421874999999993,"velocity":0.7637795275590551,"duration":2.911458333333293},{"name":"D5","midi":74,"time":16.421874999999993,"velocity":0.7637795275590551,"duration":0.09505208333333215},{"name":"C5","midi":72,"time":16.519531249999993,"velocity":0.7637795275590551,"duration":0.09505208333333215},{"name":"D5","midi":74,"time":16.615885416666657,"velocity":0.7637795275590551,"duration":0.09505208333333215},{"name":"D#5","midi":75,"time":16.71223958333332,"velocity":0.7637795275590551,"duration":0.09505208333333215},{"name":"D5","midi":74,"time":16.811197916666654,"velocity":0.7637795275590551,"duration":0.09505208333333215},{"name":"C5","midi":72,"time":16.907552083333318,"velocity":0.7637795275590551,"duration":0.09505208333333215},{"name":"A#4","midi":70,"time":17.003906249999982,"velocity":0.7637795275590551,"duration":0.09505208333333215},{"name":"A4","midi":69,"time":17.101562499999982,"velocity":0.7637795275590551,"duration":0.09505208333333215},{"name":"A#4","midi":70,"time":17.197916666666647,"velocity":0.7637795275590551,"duration":0.09505208333333215},{"name":"A4","midi":69,"time":17.29427083333331,"velocity":0.7637795275590551,"duration":0.09505208333333215},{"name":"A#4","midi":70,"time":17.39192708333331,"velocity":0.7637795275590551,"duration":0.09505208333333215},{"name":"C5","midi":72,"time":17.48958333333331,"velocity":0.7637795275590551,"duration":0.09505208333333215},{"name":"A#4","midi":70,"time":17.585937499999975,"velocity":0.7637795275590551,"duration":0.09505208333333215},{"name":"G#4","midi":68,"time":17.68229166666664,"velocity":0.7637795275590551,"duration":0.09505208333333215},{"name":"G4","midi":67,"time":17.77994791666664,"velocity":0.7637795275590551,"duration":0.09505208333333215},{"name":"F4","midi":65,"time":17.876302083333304,"velocity":0.7637795275590551,"duration":0.09505208333333215},{"name":"G4","midi":67,"time":17.973958333333304,"velocity":0.7637795275590551,"duration":0.09505208333333215},{"name":"F4","midi":65,"time":18.071614583333304,"velocity":0.7637795275590551,"duration":0.09505208333333215},{"name":"G4","midi":67,"time":18.167968749999968,"velocity":0.7637795275590551,"duration":0.09505208333333215},{"name":"G#4","midi":68,"time":18.264322916666632,"velocity":0.7637795275590551,"duration":0.09505208333333215},{"name":"G4","midi":67,"time":18.361979166666632,"velocity":0.7637795275590551,"duration":0.09505208333333215},{"name":"F4","midi":65,"time":18.458333333333297,"velocity":0.7637795275590551,"duration":0.09505208333333215},{"name":"D#4","midi":63,"time":18.555989583333297,"velocity":0.7637795275590551,"duration":0.09505208333333215},{"name":"D4","midi":62,"time":18.653645833333297,"velocity":0.7637795275590551,"duration":0.09505208333333215},{"name":"D#4","midi":63,"time":18.74999999999996,"velocity":0.7637795275590551,"duration":0.09505208333333215},{"name":"D4","midi":62,"time":18.846354166666625,"velocity":0.7637795275590551,"duration":0.09505208333333215},{"name":"D#4","midi":63,"time":18.944010416666625,"velocity":0.7637795275590551,"duration":0.09505208333333215},{"name":"F4","midi":65,"time":19.04036458333329,"velocity":0.7637795275590551,"duration":0.09505208333333215},{"name":"D#4","midi":63,"time":19.13802083333329,"velocity":0.7637795275590551,"duration":0.09505208333333215},{"name":"D4","midi":62,"time":19.23567708333329,"velocity":0.7637795275590551,"duration":0.09505208333333215},{"name":"C4","midi":60,"time":19.332031249999954,"velocity":0.7637795275590551,"duration":0.09505208333333215},{"name":"A#3","midi":58,"time":19.428385416666618,"velocity":0.7637795275590551,"duration":0.09505208333333215},{"name":"A3","midi":57,"time":19.526041666666618,"velocity":0.7637795275590551,"duration":3.153645833333311},{"name":"C4","midi":60,"time":19.768229166666618,"velocity":0.7637795275590551,"duration":0.09505208333333215},{"name":"D4","midi":62,"time":19.865885416666618,"velocity":0.7637795275590551,"duration":0.09505208333333215},{"name":"D#4","midi":63,"time":19.962239583333282,"velocity":0.7637795275590551,"duration":0.09505208333333215},{"name":"F4","midi":65,"time":20.058593749999947,"velocity":0.7637795275590551,"duration":0.09505208333333215},{"name":"G4","midi":67,"time":20.156249999999947,"velocity":0.7637795275590551,"duration":0.09505208333333215},{"name":"A4","midi":69,"time":20.253906249999947,"velocity":0.7637795275590551,"duration":0.09505208333333215},{"name":"A#4","midi":70,"time":20.35026041666661,"velocity":0.7637795275590551,"duration":0.09505208333333215},{"name":"C5","midi":72,"time":20.44791666666661,"velocity":0.7637795275590551,"duration":0.09505208333333215},{"name":"A4","midi":69,"time":20.544270833333275,"velocity":0.7637795275590551,"duration":0.09505208333333215},{"name":"F4","midi":65,"time":20.64062499999994,"velocity":0.7637795275590551,"duration":0.09505208333333215},{"name":"G4","midi":67,"time":20.73828124999994,"velocity":0.7637795275590551,"duration":0.09505208333333215},{"name":"A4","midi":69,"time":20.83593749999994,"velocity":0.7637795275590551,"duration":0.09505208333333215},{"name":"A#4","midi":70,"time":20.932291666666604,"velocity":0.7637795275590551,"duration":0.09505208333333215},{"name":"C5","midi":72,"time":21.028645833333268,"velocity":0.7637795275590551,"duration":0.09505208333333215},{"name":"D5","midi":74,"time":21.126302083333268,"velocity":0.7637795275590551,"duration":0.09505208333333215},{"name":"C5","midi":72,"time":21.222656249999932,"velocity":0.7637795275590551,"duration":1.1601562499999964},{"name":"D#5","midi":75,"time":21.222656249999932,"velocity":0.7637795275590551,"duration":0.28776041666666785},{"name":"F5","midi":77,"time":21.5143229166666,"velocity":0.7637795275590551,"duration":0.09505208333333215},{"name":"D#5","midi":75,"time":21.610677083333265,"velocity":0.7637795275590551,"duration":0.09505208333333215},{"name":"D5","midi":74,"time":21.708333333333265,"velocity":0.7637795275590551,"duration":0.09505208333333215},{"name":"D#5","midi":75,"time":21.80468749999993,"velocity":0.7637795275590551,"duration":0.8697916666666679},{"name":"D5","midi":74,"time":22.678385416666597,"velocity":0.7637795275590551,"duration":0.1432291666666643},{"name":"D5","midi":74,"time":22.822916666666593,"velocity":0.7637795275590551,"duration":0.8606770833333357},{"name":"F4","midi":65,"time":22.822916666666593,"velocity":0.7637795275590551,"duration":0.8606770833333357},{"name":"A#3","midi":58,"time":22.822916666666593,"velocity":0.7637795275590551,"duration":0.5729166666666679},{"name":"D#4","midi":63,"time":23.39973958333326,"velocity":0.7637795275590551,"duration":1.1484375000000036},{"name":"F3","midi":53,"time":23.975260416666597,"velocity":0.7637795275590551,"duration":0.5729166666666679},{"name":"D4","midi":62,"time":24.552083333333265,"velocity":0.7637795275590551,"duration":0.5729166666666679},{"name":"A#3","midi":58,"time":24.552083333333265,"velocity":0.7637795275590551,"duration":1.1484375000000036},{"name":"C4","midi":60,"time":25.1276041666666,"velocity":0.7637795275590551,"duration":1.1484375},{"name":"G#3","midi":56,"time":25.7018229166666,"velocity":0.7637795275590551,"duration":0.5729166666666679},{"name":"D#4","midi":63,"time":26.278645833333268,"velocity":0.7637795275590551,"duration":0.5729166666666679},{"name":"A#3","midi":58,"time":26.278645833333268,"velocity":0.7637795275590551,"duration":0.5729166666666679},{"name":"G3","midi":55,"time":26.278645833333268,"velocity":0.7637795275590551,"duration":1.1484375000000036},{"name":"G#4","midi":68,"time":26.854166666666604,"velocity":0.7637795275590551,"duration":1.1484375},{"name":"C4","midi":60,"time":26.854166666666604,"velocity":0.7637795275590551,"duration":0.5729166666666679},{"name":"D4","midi":62,"time":27.43098958333327,"velocity":0.7637795275590551,"duration":0.5729166666666643},{"name":"F3","midi":53,"time":27.43098958333327,"velocity":0.7637795275590551,"duration":0.5729166666666643},{"name":"A#4","midi":70,"time":28.006510416666604,"velocity":0.7637795275590551,"duration":0.5729166666666679},{"name":"G4","midi":67,"time":28.006510416666604,"velocity":0.7637795275590551,"duration":1.1484375000000036},{"name":"D#4","midi":63,"time":28.006510416666604,"velocity":0.7637795275590551,"duration":0.5729166666666679},{"name":"D#3","midi":51,"time":28.006510416666604,"velocity":0.7637795275590551,"duration":1.1484375000000036},{"name":"D#5","midi":75,"time":28.58203124999994,"velocity":0.7637795275590551,"duration":1.1484375},{"name":"C#4","midi":61,"time":28.58203124999994,"velocity":0.7637795275590551,"duration":0.5729166666666679},{"name":"F4","midi":65,"time":29.158854166666607,"velocity":0.7637795275590551,"duration":1.1484375},{"name":"C4","midi":60,"time":29.158854166666607,"velocity":0.7637795275590551,"duration":0.5729166666666643},{"name":"G#3","midi":56,"time":29.158854166666607,"velocity":0.7637795275590551,"duration":1.1484375},{"name":"D5","midi":74,"time":29.73437499999994,"velocity":0.7637795275590551,"duration":0.5729166666666679},{"name":"A#3","midi":58,"time":29.73437499999994,"velocity":0.7637795275590551,"duration":1.1484375},{"name":"D#5","midi":75,"time":30.311197916666607,"velocity":0.7637795275590551,"duration":0.5677083333333321},{"name":"G4","midi":67,"time":30.311197916666607,"velocity":0.7637795275590551,"duration":1.1484374999999964},{"name":"G3","midi":55,"time":30.311197916666607,"velocity":0.7637795275590551,"duration":0.5729166666666643},{"name":"D#4","midi":63,"time":30.885416666666604,"velocity":0.7637795275590551,"duration":1.1484374999999964},{"name":"C4","midi":60,"time":30.885416666666604,"velocity":0.7637795275590551,"duration":1.1484374999999964},{"name":"G#5","midi":80,"time":31.460937499999936,"velocity":0.7637795275590551,"duration":1.1484375},{"name":"C5","midi":72,"time":31.460937499999936,"velocity":0.7637795275590551,"duration":0.5729166666666643},{"name":"A#4","midi":70,"time":32.0377604166666,"velocity":0.7637795275590551,"duration":1.1484375},{"name":"F4","midi":65,"time":32.0377604166666,"velocity":0.7637795275590551,"duration":0.5677083333333357},{"name":"D4","midi":62,"time":32.0377604166666,"velocity":0.7637795275590551,"duration":0.5729166666666714},{"name":"G5","midi":79,"time":32.613281249999936,"velocity":0.7637795275590551,"duration":1.1484375},{"name":"D#4","midi":63,"time":32.613281249999936,"velocity":0.7637795275590551,"duration":0.5729166666666643},{"name":"C5","midi":72,"time":33.1901041666666,"velocity":0.7637795275590551,"duration":1.1484375},{"name":"G#3","midi":56,"time":33.1901041666666,"velocity":0.7637795275590551,"duration":1.1484375},{"name":"F5","midi":77,"time":33.765624999999936,"velocity":0.7637795275590551,"duration":0.28515625},{"name":"G#4","midi":68,"time":33.765624999999936,"velocity":0.7637795275590551,"duration":1.148437499999993},{"name":"D#5","midi":75,"time":34.0533854166666,"velocity":0.7637795275590551,"duration":0.28515625},{"name":"D5","midi":74,"time":34.341145833333265,"velocity":0.7637795275590551,"duration":0.5729166666666643},{"name":"A#4","midi":70,"time":34.341145833333265,"velocity":0.7637795275590551,"duration":2.0130208333333286},{"name":"A#3","midi":58,"time":34.341145833333265,"velocity":0.7637795275590551,"duration":2.8763020833333215},{"name":"D#5","midi":75,"time":34.91796874999993,"velocity":0.7637795275590551,"duration":1.1484375},{"name":"G4","midi":67,"time":34.91796874999993,"velocity":0.7637795275590551,"duration":0.5729166666666643},{"name":"F4","midi":65,"time":35.49218749999993,"velocity":0.7637795275590551,"duration":1.148437499999993},{"name":"D5","midi":74,"time":36.06901041666659,"velocity":0.7637795275590551,"duration":0.5729166666666643},{"name":"G#4","midi":68,"time":36.35677083333326,"velocity":0.7637795275590551,"duration":0.28515625},{"name":"E5","midi":76,"time":36.64453124999992,"velocity":0.7637795275590551,"duration":0.5729166666666643},{"name":"G4","midi":67,"time":36.64453124999992,"velocity":0.7637795275590551,"duration":0.5729166666666643},{"name":"C4","midi":60,"time":36.64453124999992,"velocity":0.7637795275590551,"duration":1.148437499999993},{"name":"F5","midi":77,"time":37.22005208333325,"velocity":0.7637795275590551,"duration":1.1484375},{"name":"C5","midi":72,"time":37.22005208333325,"velocity":0.7637795275590551,"duration":0.5729166666666643},{"name":"G#3","midi":56,"time":37.22005208333325,"velocity":0.7637795275590551,"duration":0.5729166666666643},{"name":"B4","midi":71,"time":37.796874999999915,"velocity":0.7637795275590551,"duration":0.5729166666666714},{"name":"D4","midi":62,"time":37.796874999999915,"velocity":0.7637795275590551,"duration":0.5729166666666714},{"name":"G3","midi":55,"time":37.796874999999915,"velocity":0.7637795275590551,"duration":0.5729166666666714},{"name":"D#5","midi":75,"time":38.37239583333325,"velocity":0.7637795275590551,"duration":0.5729166666666643},{"name":"C5","midi":72,"time":38.37239583333325,"velocity":0.7637795275590551,"duration":0.28515625},{"name":"D#4","midi":63,"time":38.37239583333325,"velocity":0.7637795275590551,"duration":0.5729166666666643},{"name":"C4","midi":60,"time":38.37239583333325,"velocity":0.7637795275590551,"duration":1.1484375},{"name":"A#4","midi":70,"time":38.660156249999915,"velocity":0.7637795275590551,"duration":0.28515625},{"name":"D5","midi":74,"time":38.949218749999915,"velocity":0.7637795275590551,"duration":0.5729166666666714},{"name":"G#4","midi":68,"time":38.949218749999915,"velocity":0.7637795275590551,"duration":0.5729166666666714},{"name":"F4","midi":65,"time":38.949218749999915,"velocity":0.7637795275590551,"duration":0.28515625},{"name":"D#4","midi":63,"time":39.23567708333325,"velocity":0.7637795275590551,"duration":0.28515625},{"name":"G5","midi":79,"time":39.52473958333325,"velocity":0.7637795275590551,"duration":1.148437499999993},{"name":"A#4","midi":70,"time":39.52473958333325,"velocity":0.7637795275590551,"duration":0.5729166666666643},{"name":"D4","midi":62,"time":39.52473958333325,"velocity":0.7637795275590551,"duration":0.5729166666666643},{"name":"A#3","midi":58,"time":39.52473958333325,"velocity":0.7637795275590551,"duration":0.5729166666666643},{"name":"G#4","midi":68,"time":40.10026041666658,"velocity":0.7637795275590551,"duration":1.7252604166666572},{"name":"D#4","midi":63,"time":40.10026041666658,"velocity":0.7637795275590551,"duration":0.5729166666666643},{"name":"C4","midi":60,"time":40.10026041666658,"velocity":0.7637795275590551,"duration":0.5729166666666643},{"name":"F5","midi":77,"time":40.67578124999991,"velocity":0.7637795275590551,"duration":1.148437499999993},{"name":"F4","midi":65,"time":40.67578124999991,"velocity":0.7637795275590551,"duration":0.5729166666666643},{"name":"D4","midi":62,"time":40.67578124999991,"velocity":0.7637795275590551,"duration":0.5729166666666643},{"name":"A#3","midi":58,"time":41.251302083333236,"velocity":0.7637795275590551,"duration":1.148437499999993},{"name":"G3","midi":55,"time":41.251302083333236,"velocity":0.7637795275590551,"duration":0.8606770833333286},{"name":"D#5","midi":75,"time":41.8281249999999,"velocity":0.7637795275590551,"duration":1.148437499999993},{"name":"G4","midi":67,"time":41.8281249999999,"velocity":0.7637795275590551,"duration":0.5729166666666643},{"name":"G#3","midi":56,"time":42.115885416666565,"velocity":0.7637795275590551,"duration":0.28515625},{"name":"F4","midi":65,"time":42.40364583333323,"velocity":0.7637795275590551,"duration":0.5729166666666643},{"name":"A#3","midi":58,"time":42.40364583333323,"velocity":0.7637795275590551,"duration":1.148437499999993},{"name":"D5","midi":74,"time":42.97916666666656,"velocity":0.7637795275590551,"duration":1.1484375},{"name":"G4","midi":67,"time":42.97916666666656,"velocity":0.7637795275590551,"duration":0.28515625},{"name":"A#2","midi":46,"time":42.97916666666656,"velocity":0.7637795275590551,"duration":0.5729166666666643},{"name":"G#4","midi":68,"time":43.26692708333322,"velocity":0.7637795275590551,"duration":0.28515625},{"name":"G4","midi":67,"time":43.55598958333322,"velocity":0.7637795275590551,"duration":1.1484375},{"name":"D#3","midi":51,"time":43.55598958333322,"velocity":0.7637795275590551,"duration":1.7252604166666643},{"name":"C5","midi":72,"time":44.13151041666656,"velocity":0.7637795275590551,"duration":0.28515625},{"name":"D#4","midi":63,"time":44.13151041666656,"velocity":0.7637795275590551,"duration":0.28515625},{"name":"A#4","midi":70,"time":44.41927083333322,"velocity":0.7637795275590551,"duration":0.28515625},{"name":"D4","midi":62,"time":44.41927083333322,"velocity":0.7637795275590551,"duration":0.28515625},{"name":"A4","midi":69,"time":44.70833333333322,"velocity":0.7637795275590551,"duration":0.5729166666666643},{"name":"F4","midi":65,"time":44.70833333333322,"velocity":0.7637795275590551,"duration":1.1484375},{"name":"C4","midi":60,"time":44.70833333333322,"velocity":0.7637795275590551,"duration":0.5729166666666643},{"name":"A#4","midi":70,"time":45.28255208333322,"velocity":0.7637795275590551,"duration":1.1484375},{"name":"D4","midi":62,"time":45.28255208333322,"velocity":0.7637795275590551,"duration":0.28515625},{"name":"D3","midi":50,"time":45.28255208333322,"velocity":0.7637795275590551,"duration":0.5729166666666643},{"name":"C4","midi":60,"time":45.57161458333322,"velocity":0.7637795275590551,"duration":0.28515625},{"name":"A#3","midi":58,"time":45.85807291666656,"velocity":0.7637795275590551,"duration":0.28515625},{"name":"G3","midi":55,"time":45.85807291666656,"velocity":0.7637795275590551,"duration":1.148437499999993},{"name":"G#3","midi":56,"time":46.14713541666656,"velocity":0.7637795275590551,"duration":0.28515625},{"name":"D#5","midi":75,"time":46.43489583333322,"velocity":0.7637795275590551,"duration":1.1484375},{"name":"D#4","midi":63,"time":46.43489583333322,"velocity":0.7637795275590551,"duration":0.2838541666666643},{"name":"A#3","midi":58,"time":46.43489583333322,"velocity":0.7637795275590551,"duration":0.5729166666666643},{"name":"D5","midi":74,"time":46.578124999999886,"velocity":0.7637795275590551,"duration":0.1419270833333357},{"name":"C5","midi":72,"time":46.722656249999886,"velocity":0.7637795275590551,"duration":0.1419270833333357},{"name":"A#4","midi":70,"time":46.867187499999886,"velocity":0.7637795275590551,"duration":0.1419270833333357},{"name":"A4","midi":69,"time":47.01041666666656,"velocity":0.7637795275590551,"duration":0.5729166666666643},{"name":"C4","midi":60,"time":47.01041666666656,"velocity":0.7637795275590551,"duration":0.5729166666666643},{"name":"F3","midi":53,"time":47.01041666666656,"velocity":0.7637795275590551,"duration":2.300781249999993},{"name":"D5","midi":74,"time":47.58723958333322,"velocity":0.7637795275590551,"duration":0.5729166666666714},{"name":"A#4","midi":70,"time":47.58723958333322,"velocity":0.7637795275590551,"duration":1.1484375},{"name":"D4","midi":62,"time":47.58723958333322,"velocity":0.7637795275590551,"duration":0.28515625},{"name":"D#4","midi":63,"time":47.87369791666656,"velocity":0.7637795275590551,"duration":0.28515625},{"name":"C5","midi":72,"time":48.16276041666656,"velocity":0.7637795275590551,"duration":1.148437499999993},{"name":"F4","midi":65,"time":48.16276041666656,"velocity":0.7637795275590551,"duration":0.8606770833333286},{"name":"G#4","midi":68,"time":48.738281249999886,"velocity":0.7637795275590551,"duration":0.5677083333333286},{"name":"D#4","midi":63,"time":49.02604166666655,"velocity":0.7637795275590551,"duration":0.28515625},{"name":"A#4","midi":70,"time":49.31510416666655,"velocity":0.7637795275590551,"duration":1.1484375000000142},{"name":"D4","midi":62,"time":49.31510416666655,"velocity":0.7637795275590551,"duration":0.28515625},{"name":"G3","midi":55,"time":49.31510416666655,"velocity":0.7637795275590551,"duration":0.7174479166666714},{"name":"A#3","midi":58,"time":49.601562499999886,"velocity":0.7637795275590551,"duration":0.2838541666666643},{"name":"D#4","midi":63,"time":49.890624999999886,"velocity":0.7637795275590551,"duration":1.148437500000007},{"name":"G4","midi":67,"time":49.890624999999886,"velocity":0.7637795275590551,"duration":1.148437500000007},{"name":"F3","midi":53,"time":50.035156249999886,"velocity":0.7637795275590551,"duration":0.1419270833333357},{"name":"D#3","midi":51,"time":50.17838541666656,"velocity":0.7637795275590551,"duration":0.1419270833333357},{"name":"D3","midi":50,"time":50.32161458333323,"velocity":0.7637795275590551,"duration":0.1419270833333357},{"name":"G#4","midi":68,"time":50.46614583333323,"velocity":0.7637795275590551,"duration":1.148437499999993},{"name":"C3","midi":48,"time":50.46614583333323,"velocity":0.7637795275590551,"duration":0.5729166666666643},{"name":"F4","midi":65,"time":51.04166666666656,"velocity":0.7637795275590551,"duration":1.148437499999993},{"name":"A#3","midi":58,"time":51.04166666666656,"velocity":0.7637795275590551,"duration":1.72265625},{"name":"D3","midi":50,"time":51.04166666666656,"velocity":0.7637795275590551,"duration":0.5729166666666643},{"name":"G4","midi":67,"time":51.617187499999886,"velocity":0.7637795275590551,"duration":1.7252604166666714},{"name":"D#3","midi":51,"time":51.617187499999886,"velocity":0.7637795275590551,"duration":0.7174479166666643},{"name":"D#4","midi":63,"time":52.19401041666655,"velocity":0.7637795275590551,"duration":0.28515625},{"name":"C#3","midi":49,"time":52.337239583333215,"velocity":0.7637795275590551,"duration":0.1419270833333357},{"name":"C#4","midi":61,"time":52.480468749999886,"velocity":0.7637795275590551,"duration":0.2851562500000071},{"name":"C3","midi":48,"time":52.480468749999886,"velocity":0.7637795275590551,"duration":0.1419270833333357},{"name":"A#2","midi":46,"time":52.62630208333322,"velocity":0.7637795275590551,"duration":0.1419270833333357},{"name":"C4","midi":60,"time":52.76953124999989,"velocity":0.7637795275590551,"duration":1.1484375},{"name":"G#2","midi":44,"time":52.76953124999989,"velocity":0.7637795275590551,"duration":1.1484375},{"name":"F4","midi":65,"time":53.34635416666656,"velocity":0.7637795275590551,"duration":0.28515625},{"name":"G#3","midi":56,"time":53.34635416666656,"velocity":0.7637795275590551,"duration":0.28515625},{"name":"D#4","midi":63,"time":53.63281249999989,"velocity":0.7637795275590551,"duration":0.28515625},{"name":"G3","midi":55,"time":53.63281249999989,"velocity":0.7637795275590551,"duration":0.28515625},{"name":"D4","midi":62,"time":53.92187499999989,"velocity":0.7637795275590551,"duration":1.148437499999993},{"name":"F3","midi":53,"time":53.92187499999989,"velocity":0.7637795275590551,"duration":0.5729166666666643},{"name":"A#2","midi":46,"time":53.92187499999989,"velocity":0.7637795275590551,"duration":1.148437499999993},{"name":"A#3","midi":58,"time":54.49739583333322,"velocity":0.7637795275590551,"duration":1.1666666666666643},{"name":"G3","midi":55,"time":54.49739583333322,"velocity":0.7637795275590551,"duration":0.28515625},{"name":"F3","midi":53,"time":54.785156249999886,"velocity":0.7637795275590551,"duration":0.28515625},{"name":"D#4","midi":63,"time":55.07291666666655,"velocity":0.7637795275590551,"duration":1.7890625},{"name":"D#3","midi":51,"time":55.07291666666655,"velocity":0.7637795275590551,"duration":0.88671875},{"name":"C3","midi":48,"time":55.07291666666655,"velocity":0.7637795275590551,"duration":1.18359375},{"name":"A3","midi":57,"time":55.66666666666655,"velocity":0.7637795275590551,"duration":0.5911458333333357},{"name":"F3","midi":53,"time":55.962239583333215,"velocity":0.7637795275590551,"duration":0.2942708333333357},{"name":"A#3","midi":58,"time":56.26041666666655,"velocity":0.7637795275590551,"duration":1.5403645833333286},{"name":"G3","midi":55,"time":56.26041666666655,"velocity":0.7637795275590551,"duration":0.6015625},{"name":"A#2","midi":46,"time":56.26041666666655,"velocity":0.7637795275590551,"duration":1.8502604166666643},{"name":"D4","midi":62,"time":56.864583333333215,"velocity":0.7637795275590551,"duration":0.30859375},{"name":"F3","midi":53,"time":56.864583333333215,"velocity":0.7637795275590551,"duration":0.30859375},{"name":"C4","midi":60,"time":57.18359374999988,"velocity":0.7637795275590551,"duration":0.30859375},{"name":"D#3","midi":51,"time":57.18359374999988,"velocity":0.7637795275590551,"duration":0.30859375},{"name":"D4","midi":62,"time":57.50260416666654,"velocity":0.7637795275590551,"duration":0.1536458333333357},{"name":"F3","midi":53,"time":57.50260416666654,"velocity":0.7637795275590551,"duration":0.6171875000000071},{"name":"A#4","midi":70,"time":57.665364583333215,"velocity":0.7637795275590551,"duration":0.1536458333333286},{"name":"C5","midi":72,"time":57.82291666666654,"velocity":0.7637795275590551,"duration":0.1536458333333357},{"name":"D5","midi":74,"time":57.977864583333215,"velocity":0.7637795275590551,"duration":0.1536458333333357},{"name":"D#3","midi":51,"time":58.13541666666655,"velocity":0.7637795275590551,"duration":1.2447916666666785},{"name":"C5","midi":72,"time":58.13541666666655,"velocity":0.7637795275590551,"duration":0.1536458333333357},{"name":"A#4","midi":70,"time":58.29036458333322,"velocity":0.7637795275590551,"duration":0.1536458333333357},{"name":"A4","midi":69,"time":58.44661458333322,"velocity":0.7637795275590551,"duration":0.1536458333333357},{"name":"G4","midi":67,"time":58.60286458333322,"velocity":0.7637795275590551,"duration":0.1536458333333357},{"name":"F4","midi":65,"time":58.75911458333322,"velocity":0.7637795275590551,"duration":0.30859375},{"name":"G4","midi":67,"time":59.07161458333322,"velocity":0.7637795275590551,"duration":0.1536458333333357},{"name":"A4","midi":69,"time":59.22656249999989,"velocity":0.7637795275590551,"duration":0.1536458333333357},{"name":"D3","midi":50,"time":59.38411458333323,"velocity":0.7637795275590551,"duration":0.6210937500000071},{"name":"A#4","midi":70,"time":59.38411458333323,"velocity":0.7637795275590551,"duration":0.1536458333333357},{"name":"A4","midi":69,"time":59.5390624999999,"velocity":0.7637795275590551,"duration":0.1536458333333357},{"name":"G4","midi":67,"time":59.6953124999999,"velocity":0.7637795275590551,"duration":0.1536458333333357},{"name":"F4","midi":65,"time":59.8515624999999,"velocity":0.7637795275590551,"duration":0.1536458333333357},{"name":"G3","midi":55,"time":60.0078124999999,"velocity":0.7637795275590551,"duration":1.2447916666666714},{"name":"D#4","midi":63,"time":60.0078124999999,"velocity":0.7637795275590551,"duration":0.1536458333333357},{"name":"D4","midi":62,"time":60.1640624999999,"velocity":0.7637795275590551,"duration":0.1536458333333357},{"name":"C4","midi":60,"time":60.3203124999999,"velocity":0.7637795275590551,"duration":0.1536458333333357},{"name":"A#3","midi":58,"time":60.47526041666657,"velocity":0.7637795275590551,"duration":0.1536458333333357},{"name":"D#4","midi":63,"time":60.63281249999991,"velocity":0.7637795275590551,"duration":0.30859375},{"name":"D#4","midi":63,"time":60.94531249999991,"velocity":0.7637795275590551,"duration":0.30859375},{"name":"F3","midi":53,"time":61.25651041666657,"velocity":0.7637795275590551,"duration":1.2447916666666785},{"name":"D#4","midi":63,"time":61.25651041666657,"velocity":0.7637795275590551,"duration":0.62109375},{"name":"G#4","midi":68,"time":61.41276041666657,"velocity":0.7637795275590551,"duration":0.1536458333333357},{"name":"A#4","midi":70,"time":61.56901041666657,"velocity":0.7637795275590551,"duration":0.1536458333333357},{"name":"C5","midi":72,"time":61.72526041666657,"velocity":0.7637795275590551,"duration":0.1536458333333357},{"name":"D4","midi":62,"time":61.88151041666657,"velocity":0.7637795275590551,"duration":0.6210937500000142},{"name":"A#4","midi":70,"time":61.88151041666657,"velocity":0.7637795275590551,"duration":0.1536458333333357},{"name":"G#4","midi":68,"time":62.03645833333324,"velocity":0.7637795275590551,"duration":0.1536458333333357},{"name":"G4","midi":67,"time":62.19401041666658,"velocity":0.7637795275590551,"duration":0.1536458333333357},{"name":"F4","midi":65,"time":62.34895833333325,"velocity":0.7637795275590551,"duration":0.1536458333333357},{"name":"D#3","midi":51,"time":62.50520833333325,"velocity":0.7637795275590551,"duration":0.9518229166666643},{"name":"D#4","midi":63,"time":62.50520833333325,"velocity":0.7637795275590551,"duration":0.6302083333333357},{"name":"G4","midi":67,"time":62.50520833333325,"velocity":0.7637795275590551,"duration":0.15625},{"name":"D#5","midi":75,"time":62.664062499999915,"velocity":0.7637795275590551,"duration":0.15625},{"name":"F5","midi":77,"time":62.824218749999915,"velocity":0.7637795275590551,"duration":0.15625},{"name":"G5","midi":79,"time":62.98177083333325,"velocity":0.7637795275590551,"duration":0.15625},{"name":"G#3","midi":56,"time":63.14192708333325,"velocity":0.7637795275590551,"duration":1.2708333333333357},{"name":"F5","midi":77,"time":63.14192708333325,"velocity":0.7637795275590551,"duration":0.15625},{"name":"D#5","midi":75,"time":63.30208333333325,"velocity":0.7637795275590551,"duration":0.15625},{"name":"F3","midi":53,"time":63.459635416666586,"velocity":0.7637795275590551,"duration":0.31640625},{"name":"D5","midi":74,"time":63.459635416666586,"velocity":0.7637795275590551,"duration":0.15625},{"name":"C5","midi":72,"time":63.619791666666586,"velocity":0.7637795275590551,"duration":0.15625},{"name":"G3","midi":55,"time":63.77864583333325,"velocity":0.7637795275590551,"duration":0.3164062500000071},{"name":"A#4","midi":70,"time":63.77864583333325,"velocity":0.7637795275590551,"duration":0.3164062500000071},{"name":"F3","midi":53,"time":64.09635416666659,"velocity":0.7637795275590551,"duration":0.31640625},{"name":"C5","midi":72,"time":64.09635416666659,"velocity":0.7637795275590551,"duration":0.15625},{"name":"D5","midi":74,"time":64.25651041666659,"velocity":0.7637795275590551,"duration":0.15625},{"name":"D#3","midi":51,"time":64.41406249999991,"velocity":0.7637795275590551,"duration":0.31640625},{"name":"G3","midi":55,"time":64.41406249999991,"velocity":0.7637795275590551,"duration":0.6302083333333286},{"name":"D#5","midi":75,"time":64.41406249999991,"velocity":0.7637795275590551,"duration":0.15625},{"name":"D5","midi":74,"time":64.57421874999991,"velocity":0.7637795275590551,"duration":0.15625},{"name":"D3","midi":50,"time":64.73437499999991,"velocity":0.7637795275590551,"duration":0.31640625},{"name":"C5","midi":72,"time":64.73437499999991,"velocity":0.7637795275590551,"duration":0.15625},{"name":"A#4","midi":70,"time":64.89192708333324,"velocity":0.7637795275590551,"duration":0.15625},{"name":"C3","midi":48,"time":65.05208333333324,"velocity":0.7637795275590551,"duration":0.15625},{"name":"C4","midi":60,"time":65.05208333333324,"velocity":0.7637795275590551,"duration":1.270833333333357},{"name":"G#4","midi":68,"time":65.05208333333324,"velocity":0.7637795275590551,"duration":0.15625},{"name":"D#3","midi":51,"time":65.21093749999991,"velocity":0.7637795275590551,"duration":0.15625},{"name":"G4","midi":67,"time":65.21093749999991,"velocity":0.7637795275590551,"duration":0.15625},{"name":"F3","midi":53,"time":65.36979166666659,"velocity":0.7637795275590551,"duration":0.15625},{"name":"F4","midi":65,"time":65.36979166666659,"velocity":0.7637795275590551,"duration":0.15625},{"name":"G3","midi":55,"time":65.52864583333326,"velocity":0.7637795275590551,"duration":0.15625},{"name":"D#4","midi":63,"time":65.52864583333326,"velocity":0.7637795275590551,"duration":0.15625},{"name":"F3","midi":53,"time":65.68749999999993,"velocity":0.7637795275590551,"duration":0.15625},{"name":"G#4","midi":68,"time":65.68749999999993,"velocity":0.7637795275590551,"duration":0.31640625},{"name":"D#3","midi":51,"time":65.8463541666666,"velocity":0.7637795275590551,"duration":0.15625},{"name":"D3","midi":50,"time":66.0065104166666,"velocity":0.7637795275590551,"duration":0.15625},{"name":"G#4","midi":68,"time":66.0065104166666,"velocity":0.7637795275590551,"duration":0.31640625},{"name":"C3","midi":48,"time":66.16536458333327,"velocity":0.7637795275590551,"duration":0.15625},{"name":"D#3","midi":51,"time":66.32421874999993,"velocity":0.7637795275590551,"duration":0.15625},{"name":"A#3","midi":58,"time":66.32421874999993,"velocity":0.7637795275590551,"duration":0.79296875},{"name":"G#4","midi":68,"time":66.32421874999993,"velocity":0.7637795275590551,"duration":0.6341145833333286},{"name":"D3","midi":50,"time":66.48437499999993,"velocity":0.7637795275590551,"duration":0.15625},{"name":"C3","midi":48,"time":66.64192708333326,"velocity":0.7637795275590551,"duration":0.15625},{"name":"A#2","midi":46,"time":66.80208333333326,"velocity":0.7637795275590551,"duration":0.15625},{"name":"D#3","midi":51,"time":66.96093749999993,"velocity":0.7637795275590551,"duration":0.31640625},{"name":"G4","midi":67,"time":66.96093749999993,"velocity":0.7637795275590551,"duration":1.2708333333333286},{"name":"D4","midi":62,"time":67.1197916666666,"velocity":0.7637795275590551,"duration":0.15625},{"name":"D3","midi":50,"time":67.27864583333326,"velocity":0.7637795275590551,"duration":0.31640625},{"name":"D#4","midi":63,"time":67.27864583333326,"velocity":0.7637795275590551,"duration":0.15625},{"name":"F4","midi":65,"time":67.43880208333326,"velocity":0.7637795275590551,"duration":0.15625},{"name":"C3","midi":48,"time":67.59765624999993,"velocity":0.7637795275590551,"duration":0.79296875},{"name":"D#4","midi":63,"time":67.59765624999993,"velocity":0.7637795275590551,"duration":0.15625},{"name":"D4","midi":62,"time":67.7565104166666,"velocity":0.7637795275590551,"duration":0.15625},{"name":"C4","midi":60,"time":67.9166666666666,"velocity":0.7637795275590551,"duration":0.15625},{"name":"A#3","midi":58,"time":68.07421874999993,"velocity":0.7637795275590551,"duration":0.15625},{"name":"D#4","midi":63,"time":68.23437499999993,"velocity":0.7637795275590551,"duration":0.31640625},{"name":"A4","midi":69,"time":68.23437499999993,"velocity":0.7637795275590551,"duration":0.6341145833333286},{"name":"C3","midi":48,"time":68.3932291666666,"velocity":0.7637795275590551,"duration":0.15625},{"name":"D3","midi":50,"time":68.55208333333326,"velocity":0.7637795275590551,"duration":0.15625},{"name":"C4","midi":60,"time":68.55208333333326,"velocity":0.7637795275590551,"duration":0.31640625},{"name":"D#3","midi":51,"time":68.71223958333326,"velocity":0.7637795275590551,"duration":0.15625},{"name":"D3","midi":50,"time":68.86979166666659,"velocity":0.7637795275590551,"duration":0.15625},{"name":"F4","midi":65,"time":68.86979166666659,"velocity":0.7637795275590551,"duration":0.79296875},{"name":"A#4","midi":70,"time":68.86979166666659,"velocity":0.7637795275590551,"duration":0.31640625},{"name":"C3","midi":48,"time":69.02994791666659,"velocity":0.7637795275590551,"duration":0.15625},{"name":"A#2","midi":46,"time":69.18880208333326,"velocity":0.7637795275590551,"duration":0.15625},{"name":"C5","midi":72,"time":69.18880208333326,"velocity":0.7637795275590551,"duration":0.31640625},{"name":"A2","midi":45,"time":69.34765624999993,"velocity":0.7637795275590551,"duration":0.15625},{"name":"A#2","midi":46,"time":69.50651041666659,"velocity":0.7637795275590551,"duration":0.6302083333333286},{"name":"D5","midi":74,"time":69.50651041666659,"velocity":0.7637795275590551,"duration":1.4518229166666572},{"name":"F4","midi":65,"time":69.66666666666659,"velocity":0.7637795275590551,"duration":0.15625},{"name":"A#3","midi":58,"time":69.82421874999991,"velocity":0.7637795275590551,"duration":0.31640625},{"name":"G4","midi":67,"time":69.82421874999991,"velocity":0.7637795275590551,"duration":0.15625},{"name":"G#4","midi":68,"time":69.98437499999991,"velocity":0.7637795275590551,"duration":0.15625},{"name":"D#3","midi":51,"time":70.14453124999991,"velocity":0.7637795275590551,"duration":1.3072916666666572},{"name":"A#3","midi":58,"time":70.14453124999991,"velocity":0.7637795275590551,"duration":0.65234375},{"name":"G4","midi":67,"time":70.14453124999991,"velocity":0.7637795275590551,"duration":0.16015625},{"name":"F4","midi":65,"time":70.30729166666659,"velocity":0.7637795275590551,"duration":0.16015625},{"name":"D#4","midi":63,"time":70.47135416666659,"velocity":0.7637795275590551,"duration":0.16015625},{"name":"D4","midi":62,"time":70.63541666666659,"velocity":0.7637795275590551,"duration":0.16015625},{"name":"D#4","midi":63,"time":70.79817708333324,"velocity":0.7637795275590551,"duration":0.6471354166666714},{"name":"G4","midi":67,"time":70.79817708333324,"velocity":0.7637795275590551,"duration":0.65234375},{"name":"D5","midi":74,"time":70.96223958333324,"velocity":0.7637795275590551,"duration":0.16015625},{"name":"C5","midi":72,"time":71.12630208333324,"velocity":0.7637795275590551,"duration":0.16015625},{"name":"A#4","midi":70,"time":71.28906249999991,"velocity":0.7637795275590551,"duration":0.16015625},{"name":"F4","midi":65,"time":71.4531249999999,"velocity":0.7637795275590551,"duration":1.3072916666666856},{"name":"A4","midi":69,"time":71.4531249999999,"velocity":0.7637795275590551,"duration":0.32421875},{"name":"F3","midi":53,"time":71.6171874999999,"velocity":0.7637795275590551,"duration":0.16015625},{"name":"G3","midi":55,"time":71.77994791666657,"velocity":0.7637795275590551,"duration":0.16015625},{"name":"A#4","midi":70,"time":71.77994791666657,"velocity":0.7637795275590551,"duration":0.16015625},{"name":"A3","midi":57,"time":71.94401041666657,"velocity":0.7637795275590551,"duration":0.16015625},{"name":"C5","midi":72,"time":71.94401041666657,"velocity":0.7637795275590551,"duration":0.16015625},{"name":"A#3","midi":58,"time":72.10677083333324,"velocity":0.7637795275590551,"duration":0.16015625},{"name":"D4","midi":62,"time":72.10677083333324,"velocity":0.7637795275590551,"duration":1.3072916666666714},{"name":"D5","midi":74,"time":72.10677083333324,"velocity":0.7637795275590551,"duration":1.4700520833333428},{"name":"A3","midi":57,"time":72.27083333333324,"velocity":0.7637795275590551,"duration":0.16015625},{"name":"G3","midi":55,"time":72.43489583333324,"velocity":0.7637795275590551,"duration":0.16015625},{"name":"F3","midi":53,"time":72.59765624999991,"velocity":0.7637795275590551,"duration":0.16015625},{"name":"D#3","midi":51,"time":72.76171874999991,"velocity":0.7637795275590551,"duration":0.16015625},{"name":"G4","midi":67,"time":72.76171874999991,"velocity":0.7637795275590551,"duration":1.3072916666666714},{"name":"D3","midi":50,"time":72.92578124999991,"velocity":0.7637795275590551,"duration":0.16015625},{"name":"C3","midi":48,"time":73.08854166666659,"velocity":0.7637795275590551,"duration":0.16015625},{"name":"A#2","midi":46,"time":73.25260416666659,"velocity":0.7637795275590551,"duration":0.16015625},{"name":"D#3","midi":51,"time":73.41666666666659,"velocity":0.7637795275590551,"duration":0.32421875},{"name":"D#4","midi":63,"time":73.41666666666659,"velocity":0.7637795275590551,"duration":0.32421875},{"name":"C5","midi":72,"time":73.58072916666659,"velocity":0.7637795275590551,"duration":0.16015625},{"name":"D#3","midi":51,"time":73.74479166666659,"velocity":0.7637795275590551,"duration":0.32421875},{"name":"D4","midi":62,"time":73.74479166666659,"velocity":0.7637795275590551,"duration":0.32421875},{"name":"D5","midi":74,"time":73.74479166666659,"velocity":0.7637795275590551,"duration":0.16015625},{"name":"D#5","midi":75,"time":73.90885416666659,"velocity":0.7637795275590551,"duration":0.16015625},{"name":"D#3","midi":51,"time":74.07161458333326,"velocity":0.7637795275590551,"duration":0.65234375},{"name":"C4","midi":60,"time":74.07161458333326,"velocity":0.7637795275590551,"duration":0.65234375},{"name":"F5","midi":77,"time":74.07161458333326,"velocity":0.7637795275590551,"duration":1.3072916666666714},{"name":"A4","midi":69,"time":74.23567708333326,"velocity":0.7637795275590551,"duration":0.16015625},{"name":"A#4","midi":70,"time":74.39973958333326,"velocity":0.7637795275590551,"duration":0.16015625},{"name":"C5","midi":72,"time":74.56249999999993,"velocity":0.7637795275590551,"duration":0.16015625},{"name":"D3","midi":50,"time":74.72656249999993,"velocity":0.7637795275590551,"duration":0.65234375},{"name":"D4","midi":62,"time":74.72656249999993,"velocity":0.7637795275590551,"duration":0.81640625},{"name":"A#4","midi":70,"time":74.72656249999993,"velocity":0.7637795275590551,"duration":0.16015625},{"name":"G#4","midi":68,"time":74.89062499999993,"velocity":0.7637795275590551,"duration":0.16015625},{"name":"G4","midi":67,"time":75.0533854166666,"velocity":0.7637795275590551,"duration":0.16015625},{"name":"F4","midi":65,"time":75.2174479166666,"velocity":0.7637795275590551,"duration":0.16015625},{"name":"G3","midi":55,"time":75.3815104166666,"velocity":0.7637795275590551,"duration":1.3072916666666714},{"name":"A#4","midi":70,"time":75.3815104166666,"velocity":0.7637795275590551,"duration":1.3072916666666714},{"name":"D4","midi":62,"time":75.54427083333326,"velocity":0.7637795275590551,"duration":0.16015625},{"name":"F5","midi":77,"time":75.54427083333326,"velocity":0.7637795275590551,"duration":0.16015625},{"name":"D#4","midi":63,"time":75.70833333333326,"velocity":0.7637795275590551,"duration":0.16015625},{"name":"G5","midi":79,"time":75.70833333333326,"velocity":0.7637795275590551,"duration":0.16015625},{"name":"F4","midi":65,"time":75.87239583333326,"velocity":0.7637795275590551,"duration":0.16015625},{"name":"G#5","midi":80,"time":75.87239583333326,"velocity":0.7637795275590551,"duration":0.16015625},{"name":"D#4","midi":63,"time":76.03515624999993,"velocity":0.7637795275590551,"duration":0.16015625},{"name":"G5","midi":79,"time":76.03515624999993,"velocity":0.7637795275590551,"duration":0.16015625},{"name":"D4","midi":62,"time":76.19921874999993,"velocity":0.7637795275590551,"duration":0.16015625},{"name":"F5","midi":77,"time":76.19921874999993,"velocity":0.7637795275590551,"duration":0.16015625},{"name":"C4","midi":60,"time":76.36328124999993,"velocity":0.7637795275590551,"duration":0.16015625},{"name":"D#5","midi":75,"time":76.36328124999993,"velocity":0.7637795275590551,"duration":0.16015625},{"name":"A#3","midi":58,"time":76.5260416666666,"velocity":0.7637795275590551,"duration":0.16015625},{"name":"D5","midi":74,"time":76.5260416666666,"velocity":0.7637795275590551,"duration":0.16015625},{"name":"C4","midi":60,"time":76.6901041666666,"velocity":0.7637795275590551,"duration":3.270833333333357},{"name":"D#5","midi":75,"time":76.6901041666666,"velocity":0.7637795275590551,"duration":1.4700520833333428},{"name":"G3","midi":55,"time":76.8541666666666,"velocity":0.7637795275590551,"duration":0.16015625},{"name":"A#4","midi":70,"time":76.8541666666666,"velocity":0.7637795275590551,"duration":0.16015625},{"name":"A3","midi":57,"time":77.01692708333327,"velocity":0.7637795275590551,"duration":0.16015625},{"name":"C5","midi":72,"time":77.01692708333327,"velocity":0.7637795275590551,"duration":0.16015625},{"name":"A#3","midi":58,"time":77.18098958333327,"velocity":0.7637795275590551,"duration":0.16015625},{"name":"D5","midi":74,"time":77.18098958333327,"velocity":0.7637795275590551,"duration":0.16015625},{"name":"A3","midi":57,"time":77.34505208333327,"velocity":0.7637795275590551,"duration":0.16015625},{"name":"C5","midi":72,"time":77.34505208333327,"velocity":0.7637795275590551,"duration":0.16015625},{"name":"G3","midi":55,"time":77.50781249999994,"velocity":0.7637795275590551,"duration":0.16015625},{"name":"A#4","midi":70,"time":77.50781249999994,"velocity":0.7637795275590551,"duration":0.16015625},{"name":"F3","midi":53,"time":77.67317708333327,"velocity":0.7637795275590551,"duration":0.16015625},{"name":"A4","midi":69,"time":77.67317708333327,"velocity":0.7637795275590551,"duration":0.16015625},{"name":"D#3","midi":51,"time":77.83723958333327,"velocity":0.7637795275590551,"duration":0.16015625},{"name":"G4","midi":67,"time":77.83723958333327,"velocity":0.7637795275590551,"duration":0.16015625},{"name":"F3","midi":53,"time":77.99999999999994,"velocity":0.7637795275590551,"duration":1.4700520833333428},{"name":"A4","midi":69,"time":77.99999999999994,"velocity":0.7637795275590551,"duration":1.6341145833333428},{"name":"D#5","midi":75,"time":78.16406249999994,"velocity":0.7637795275590551,"duration":0.16015625},{"name":"F5","midi":77,"time":78.32812499999994,"velocity":0.7637795275590551,"duration":0.16015625},{"name":"G5","midi":79,"time":78.49088541666661,"velocity":0.7637795275590551,"duration":0.16015625},{"name":"F5","midi":77,"time":78.65494791666661,"velocity":0.7637795275590551,"duration":0.16015625},{"name":"D#5","midi":75,"time":78.81901041666661,"velocity":0.7637795275590551,"duration":0.16015625},{"name":"D5","midi":74,"time":78.98177083333329,"velocity":0.7637795275590551,"duration":0.16015625},{"name":"C5","midi":72,"time":79.14583333333329,"velocity":0.7637795275590551,"duration":0.16015625},{"name":"D5","midi":74,"time":79.30989583333329,"velocity":0.7637795275590551,"duration":1.9609375000000142},{"name":"F#3","midi":54,"time":79.47265624999996,"velocity":0.7637795275590551,"duration":0.16015625},{"name":"G3","midi":55,"time":79.63671874999996,"velocity":0.7637795275590551,"duration":0.16015625},{"name":"D4","midi":62,"time":79.63671874999996,"velocity":0.7637795275590551,"duration":0.32421875},{"name":"A3","midi":57,"time":79.80078124999996,"velocity":0.7637795275590551,"duration":0.16015625},{"name":"G3","midi":55,"time":79.96354166666663,"velocity":0.7637795275590551,"duration":0.16015625},{"name":"A#3","midi":58,"time":79.96354166666663,"velocity":0.7637795275590551,"duration":0.81640625},{"name":"G4","midi":67,"time":79.96354166666663,"velocity":0.7637795275590551,"duration":0.32421875},{"name":"F3","midi":53,"time":80.12760416666663,"velocity":0.7637795275590551,"duration":0.16015625},{"name":"D#3","midi":51,"time":80.29166666666663,"velocity":0.7637795275590551,"duration":0.16015625},{"name":"F4","midi":65,"time":80.29166666666663,"velocity":0.7637795275590551,"duration":0.32421875},{"name":"D3","midi":50,"time":80.4544270833333,"velocity":0.7637795275590551,"duration":0.16015625},{"name":"C3","midi":48,"time":80.6184895833333,"velocity":0.7637795275590551,"duration":1.3072916666666714},{"name":"D#4","midi":63,"time":80.6184895833333,"velocity":0.7637795275590551,"duration":1.3072916666666714},{"name":"G3","midi":55,"time":80.7825520833333,"velocity":0.7637795275590551,"duration":0.16015625},{"name":"A3","midi":57,"time":80.94531249999997,"velocity":0.7637795275590551,"duration":0.16015625},{"name":"A#3","midi":58,"time":81.10937499999997,"velocity":0.7637795275590551,"duration":0.16015625},{"name":"A3","midi":57,"time":81.27343749999997,"velocity":0.7637795275590551,"duration":0.16015625},{"name":"C5","midi":72,"time":81.27343749999997,"velocity":0.7637795275590551,"duration":0.98046875},{"name":"G3","midi":55,"time":81.43619791666664,"velocity":0.7637795275590551,"duration":0.16015625},{"name":"F#3","midi":54,"time":81.60026041666664,"velocity":0.7637795275590551,"duration":0.16015625},{"name":"E3","midi":52,"time":81.76562499999997,"velocity":0.7637795275590551,"duration":0.16015625},{"name":"D3","midi":50,"time":81.92838541666664,"velocity":0.7637795275590551,"duration":1.3124999999999858},{"name":"F#3","midi":54,"time":81.92838541666664,"velocity":0.7637795275590551,"duration":0.3268229166666572},{"name":"D4","midi":62,"time":81.92838541666664,"velocity":0.7637795275590551,"duration":0.6549479166666572},{"name":"G3","midi":55,"time":82.25781249999997,"velocity":0.7637795275590551,"duration":0.6549479166666572},{"name":"A#4","midi":70,"time":82.25781249999997,"velocity":0.7637795275590551,"duration":0.3268229166666572},{"name":"C4","midi":60,"time":82.58593749999996,"velocity":0.7637795275590551,"duration":0.6549479166666714},{"name":"A4","midi":69,"time":82.58593749999996,"velocity":0.7637795275590551,"duration":0.6549479166666714},{"name":"F#3","midi":54,"time":82.91406249999996,"velocity":0.7637795275590551,"duration":0.32421875},{"name":"G2","midi":43,"time":83.2434895833333,"velocity":0.7637795275590551,"duration":0.328125},{"name":"A#3","midi":58,"time":83.2434895833333,"velocity":0.7637795275590551,"duration":0.4934895833333286},{"name":"G4","midi":67,"time":83.2434895833333,"velocity":0.7637795275590551,"duration":0.6549479166666572},{"name":"G3","midi":55,"time":83.41015624999997,"velocity":0.7637795275590551,"duration":0.1627604166666572},{"name":"G#3","midi":56,"time":83.5755208333333,"velocity":0.7637795275590551,"duration":0.1627604166666572},{"name":"A#3","midi":58,"time":83.74088541666663,"velocity":0.7637795275590551,"duration":0.1627604166666572},{"name":"G#3","midi":56,"time":83.90494791666661,"velocity":0.7637795275590551,"duration":0.1627604166666714},{"name":"D#4","midi":63,"time":83.90494791666661,"velocity":0.7637795275590551,"duration":1.3216145833333712},{"name":"G3","midi":55,"time":84.07031249999996,"velocity":0.7637795275590551,"duration":0.1627604166666714},{"name":"F3","midi":53,"time":84.23697916666663,"velocity":0.7637795275590551,"duration":0.1627604166666714},{"name":"D#3","midi":51,"time":84.40104166666663,"velocity":0.7637795275590551,"duration":0.3098958333333428},{"name":"A#3","midi":58,"time":84.5677083333333,"velocity":0.7637795275590551,"duration":0.6549479166666856},{"name":"F4","midi":65,"time":84.5677083333333,"velocity":0.7637795275590551,"duration":0.6588541666666856},{"name":"D3","midi":50,"time":84.73437499999997,"velocity":0.7637795275590551,"duration":0.1627604166666714},{"name":"D#3","midi":51,"time":84.89973958333331,"velocity":0.7637795275590551,"duration":0.1627604166666714},{"name":"F3","midi":53,"time":85.06510416666666,"velocity":0.7637795275590551,"duration":0.1627604166666572},{"name":"D#3","midi":51,"time":85.23046874999999,"velocity":0.7637795275590551,"duration":0.1627604166666714},{"name":"D4","midi":62,"time":85.23046874999999,"velocity":0.7637795275590551,"duration":0.657552083333357},{"name":"A#4","midi":70,"time":85.23046874999999,"velocity":0.7637795275590551,"duration":1.3203125000000426},{"name":"D3","midi":50,"time":85.39583333333333,"velocity":0.7637795275590551,"duration":0.1627604166666714},{"name":"C3","midi":48,"time":85.55989583333333,"velocity":0.7637795275590551,"duration":0.1627604166666714},{"name":"A#2","midi":46,"time":85.72526041666667,"velocity":0.7637795275590551,"duration":0.1627604166666714},{"name":"E3","midi":52,"time":85.89192708333334,"velocity":0.7637795275590551,"duration":0.6588541666666856},{"name":"G4","midi":67,"time":85.89192708333334,"velocity":0.7637795275590551,"duration":0.6588541666666856},{"name":"A#3","midi":58,"time":86.05859375000001,"velocity":0.7637795275590551,"duration":0.1627604166666714},{"name":"C4","midi":60,"time":86.22265625000001,"velocity":0.7637795275590551,"duration":0.1627604166666714},{"name":"C#4","midi":61,"time":86.38802083333336,"velocity":0.7637795275590551,"duration":0.1627604166666714},{"name":"F3","midi":53,"time":86.5533854166667,"velocity":0.7637795275590551,"duration":1.3190104166666856},{"name":"C4","midi":60,"time":86.5533854166667,"velocity":0.7637795275590551,"duration":0.1627604166666714},{"name":"F4","midi":65,"time":86.5533854166667,"velocity":0.7637795275590551,"duration":0.8229166666666714},{"name":"G#4","midi":68,"time":86.5533854166667,"velocity":0.7637795275590551,"duration":0.6575520833333428},{"name":"A#3","midi":58,"time":86.7174479166667,"velocity":0.7637795275590551,"duration":0.1627604166666714},{"name":"G#3","midi":56,"time":86.88411458333337,"velocity":0.7637795275590551,"duration":0.1627604166666714},{"name":"G3","midi":55,"time":87.04947916666671,"velocity":0.7637795275590551,"duration":0.1627604166666572},{"name":"G#3","midi":56,"time":87.2135416666667,"velocity":0.7637795275590551,"duration":0.3281250000000142},{"name":"C#5","midi":73,"time":87.2135416666667,"velocity":0.7637795275590551,"duration":1.4843750000000284},{"name":"F4","midi":65,"time":87.37890625000004,"velocity":0.7637795275590551,"duration":0.1627604166666714},{"name":"A#3","midi":58,"time":87.54427083333339,"velocity":0.7637795275590551,"duration":0.1627604166666714},{"name":"G4","midi":67,"time":87.54427083333339,"velocity":0.7637795275590551,"duration":0.1627604166666714},{"name":"C4","midi":60,"time":87.71093750000006,"velocity":0.7637795275590551,"duration":0.1627604166666572},{"name":"G#4","midi":68,"time":87.71093750000006,"velocity":0.7637795275590551,"duration":0.1627604166666572},{"name":"A#2","midi":46,"time":87.87500000000004,"velocity":0.7637795275590551,"duration":0.657552083333357},{"name":"A#3","midi":58,"time":87.87500000000004,"velocity":0.7637795275590551,"duration":0.3281250000000142},{"name":"G4","midi":67,"time":87.87500000000004,"velocity":0.7637795275590551,"duration":0.1627604166666714},{"name":"F4","midi":65,"time":88.04036458333339,"velocity":0.7637795275590551,"duration":0.1627604166666714},{"name":"G#3","midi":56,"time":88.20572916666673,"velocity":0.7637795275590551,"duration":0.328125},{"name":"E4","midi":64,"time":88.20572916666673,"velocity":0.7637795275590551,"duration":0.1627604166666714},{"name":"F4","midi":65,"time":88.36979166666673,"velocity":0.7637795275590551,"duration":0.1627604166666714},{"name":"C3","midi":48,"time":88.53515625000006,"velocity":0.7637795275590551,"duration":1.3190104166666856},{"name":"G3","midi":55,"time":88.53515625000006,"velocity":0.7637795275590551,"duration":0.6575520833333428},{"name":"E4","midi":64,"time":88.53515625000006,"velocity":0.7637795275590551,"duration":1.4843750000000142},{"name":"A#4","midi":70,"time":88.70182291666673,"velocity":0.7637795275590551,"duration":0.1627604166666714},{"name":"C5","midi":72,"time":88.86588541666673,"velocity":0.7637795275590551,"duration":0.1627604166666714},{"name":"C#5","midi":73,"time":89.03125000000007,"velocity":0.7637795275590551,"duration":0.1627604166666572},{"name":"G#3","midi":56,"time":89.1966145833334,"velocity":0.7637795275590551,"duration":1.4843750000000284},{"name":"C5","midi":72,"time":89.1966145833334,"velocity":0.7637795275590551,"duration":0.1627604166666714},{"name":"A#4","midi":70,"time":89.3606770833334,"velocity":0.7637795275590551,"duration":0.1627604166666714},{"name":"G#4","midi":68,"time":89.52604166666674,"velocity":0.7637795275590551,"duration":0.1627604166666714},{"name":"G4","midi":67,"time":89.69270833333341,"velocity":0.7637795275590551,"duration":0.1627604166666572},{"name":"C#3","midi":49,"time":89.85807291666674,"velocity":0.7637795275590551,"duration":1.3190104166666998},{"name":"F4","midi":65,"time":89.85807291666674,"velocity":0.7637795275590551,"duration":1.9791666666666998},{"name":"D#4","midi":63,"time":90.02213541666674,"velocity":0.7637795275590551,"duration":0.1627604166666714},{"name":"C#4","midi":61,"time":90.18750000000009,"velocity":0.7637795275590551,"duration":0.1627604166666714},{"name":"C4","midi":60,"time":90.35286458333343,"velocity":0.7637795275590551,"duration":0.1627604166666714},{"name":"A#3","midi":58,"time":90.51692708333343,"velocity":0.7637795275590551,"duration":0.8229166666666714},{"name":"G#3","midi":56,"time":90.6835937500001,"velocity":0.7637795275590551,"duration":0.1627604166666714},{"name":"G3","midi":55,"time":90.84895833333344,"velocity":0.7637795275590551,"duration":0.1627604166666714},{"name":"F3","midi":53,"time":91.01302083333344,"velocity":0.7637795275590551,"duration":0.1627604166666714},{"name":"C3","midi":48,"time":91.17838541666677,"velocity":0.7637795275590551,"duration":1.3190104166666998},{"name":"G3","midi":55,"time":91.17838541666677,"velocity":0.7637795275590551,"duration":1.149739583333357},{"name":"A#3","midi":58,"time":91.3437500000001,"velocity":0.7637795275590551,"duration":0.1627604166666714},{"name":"C4","midi":60,"time":91.5078125000001,"velocity":0.7637795275590551,"duration":0.1627604166666714},{"name":"C#4","midi":61,"time":91.67447916666677,"velocity":0.7637795275590551,"duration":0.1627604166666714},{"name":"C4","midi":60,"time":91.83984375000011,"velocity":0.7637795275590551,"duration":0.1627604166666714},{"name":"E4","midi":64,"time":91.83984375000011,"velocity":0.7637795275590551,"duration":0.657552083333357},{"name":"A#3","midi":58,"time":92.00520833333346,"velocity":0.7637795275590551,"duration":0.1627604166666714},{"name":"G#3","midi":56,"time":92.16927083333346,"velocity":0.7637795275590551,"duration":0.1627604166666714},{"name":"G3","midi":55,"time":92.3346354166668,"velocity":0.7637795275590551,"duration":0.1627604166666714},{"name":"F3","midi":53,"time":92.50000000000014,"velocity":0.7637795275590551,"duration":1.3203125000000284},{"name":"G#3","midi":56,"time":92.50000000000014,"velocity":0.7637795275590551,"duration":0.6549479166666856},{"name":"F4","midi":65,"time":92.50000000000014,"velocity":0.7637795275590551,"duration":0.6588541666666856},{"name":"F2","midi":41,"time":92.66666666666681,"velocity":0.7637795275590551,"duration":0.1627604166666714},{"name":"G2","midi":43,"time":92.83203125000016,"velocity":0.7637795275590551,"duration":0.1627604166666714},{"name":"G#2","midi":44,"time":92.9973958333335,"velocity":0.7637795275590551,"duration":0.1627604166666572},{"name":"G2","midi":43,"time":93.16145833333348,"velocity":0.7637795275590551,"duration":0.1627604166666714},{"name":"C5","midi":72,"time":93.16145833333348,"velocity":0.7637795275590551,"duration":1.3203125000000284},{"name":"F2","midi":41,"time":93.32682291666683,"velocity":0.7637795275590551,"duration":0.1627604166666714},{"name":"D#2","midi":39,"time":93.4934895833335,"velocity":0.7637795275590551,"duration":0.1627604166666714},{"name":"D2","midi":38,"time":93.65885416666684,"velocity":0.7637795275590551,"duration":0.1627604166666572},{"name":"G2","midi":43,"time":93.82291666666683,"velocity":0.7637795275590551,"duration":1.3203125000000426},{"name":"D3","midi":50,"time":93.82291666666683,"velocity":0.7637795275590551,"duration":0.6588541666666856},{"name":"F4","midi":65,"time":93.9895833333335,"velocity":0.7637795275590551,"duration":0.1627604166666714},{"name":"G4","midi":67,"time":94.15494791666684,"velocity":0.7637795275590551,"duration":0.1627604166666714},{"name":"G#4","midi":68,"time":94.32031250000018,"velocity":0.7637795275590551,"duration":0.1627604166666572},{"name":"G3","midi":55,"time":94.48567708333351,"velocity":0.7637795275590551,"duration":0.657552083333357},{"name":"G4","midi":67,"time":94.48567708333351,"velocity":0.7637795275590551,"duration":0.1627604166666714},{"name":"B4","midi":71,"time":94.48567708333351,"velocity":0.7637795275590551,"duration":0.657552083333357},{"name":"F4","midi":65,"time":94.65104166666686,"velocity":0.7637795275590551,"duration":0.1627604166666714},{"name":"D#4","midi":63,"time":94.81510416666686,"velocity":0.7637795275590551,"duration":0.1627604166666714},{"name":"D4","midi":62,"time":94.9804687500002,"velocity":0.7637795275590551,"duration":0.1627604166666714},{"name":"C3","midi":48,"time":95.14583333333354,"velocity":0.7637795275590551,"duration":1.3203125000000142},{"name":"C4","midi":60,"time":95.14583333333354,"velocity":0.7637795275590551,"duration":0.6588541666666714},{"name":"D#5","midi":75,"time":95.14583333333354,"velocity":0.7637795275590551,"duration":1.4856770833333428},{"name":"G4","midi":67,"time":95.31380208333354,"velocity":0.7637795275590551,"duration":0.1627604166666714},{"name":"G#4","midi":68,"time":95.47786458333354,"velocity":0.7637795275590551,"duration":0.1627604166666714},{"name":"A#4","midi":70,"time":95.64322916666688,"velocity":0.7637795275590551,"duration":0.1627604166666572},{"name":"D#3","midi":51,"time":95.80859375000021,"velocity":0.7637795275590551,"duration":0.6575520833333428},{"name":"G#4","midi":68,"time":95.80859375000021,"velocity":0.7637795275590551,"duration":0.1627604166666714},{"name":"G4","midi":67,"time":95.97265625000021,"velocity":0.7637795275590551,"duration":0.1627604166666714},{"name":"F4","midi":65,"time":96.13932291666688,"velocity":0.7637795275590551,"duration":0.1627604166666714},{"name":"D#4","midi":63,"time":96.30468750000023,"velocity":0.7637795275590551,"duration":0.1627604166666572},{"name":"F3","midi":53,"time":96.46875000000021,"velocity":0.7637795275590551,"duration":1.9791666666667567},{"name":"G#3","midi":56,"time":96.46875000000021,"velocity":0.7637795275590551,"duration":1.3190104166667282},{"name":"F4","midi":65,"time":96.46875000000021,"velocity":0.7637795275590551,"duration":1.3190104166667282},{"name":"D#5","midi":75,"time":96.63411458333356,"velocity":0.7637795275590551,"duration":0.1627604166666714},{"name":"F5","midi":77,"time":96.7994791666669,"velocity":0.7637795275590551,"duration":0.1627604166666714},{"name":"G5","midi":79,"time":96.96484375000024,"velocity":0.7637795275590551,"duration":0.1627604166666714},{"name":"F5","midi":77,"time":97.13020833333358,"velocity":0.7637795275590551,"duration":0.1627604166666714},{"name":"D#5","midi":75,"time":97.29557291666693,"velocity":0.7637795275590551,"duration":0.1627604166666714},{"name":"D5","midi":74,"time":97.46093750000027,"velocity":0.7637795275590551,"duration":0.1627604166666714},{"name":"C5","midi":72,"time":97.62500000000027,"velocity":0.7637795275590551,"duration":0.1627604166666714},{"name":"G3","midi":55,"time":97.79036458333361,"velocity":0.7637795275590551,"duration":0.657552083333357},{"name":"D4","midi":62,"time":97.79036458333361,"velocity":0.7637795275590551,"duration":0.657552083333357},{"name":"B4","midi":71,"time":97.79036458333361,"velocity":0.7637795275590551,"duration":0.1627604166666714},{"name":"F5","midi":77,"time":97.95572916666696,"velocity":0.7637795275590551,"duration":0.1627604166666714},{"name":"G5","midi":79,"time":98.1210937500003,"velocity":0.7637795275590551,"duration":0.1627604166666714},{"name":"G#5","midi":80,"time":98.28645833333364,"velocity":0.7637795275590551,"duration":0.1627604166666572},{"name":"D#3","midi":51,"time":98.45182291666697,"velocity":0.7637795275590551,"duration":0.657552083333357},{"name":"C4","midi":60,"time":98.45182291666697,"velocity":0.7637795275590551,"duration":1.6497395833333712},{"name":"D#4","midi":63,"time":98.45182291666697,"velocity":0.7637795275590551,"duration":0.9882812500000284},{"name":"G5","midi":79,"time":98.45182291666697,"velocity":0.7637795275590551,"duration":0.1627604166666714},{"name":"F5","midi":77,"time":98.61588541666697,"velocity":0.7637795275590551,"duration":0.1627604166666714},{"name":"D#5","midi":75,"time":98.78125000000031,"velocity":0.7637795275590551,"duration":0.1627604166666714},{"name":"D5","midi":74,"time":98.94661458333366,"velocity":0.7637795275590551,"duration":0.1627604166666714},{"name":"G#3","midi":56,"time":99.11328125000033,"velocity":0.7637795275590551,"duration":0.328125},{"name":"C5","midi":72,"time":99.11328125000033,"velocity":0.7637795275590551,"duration":0.1627604166666714},{"name":"B4","midi":71,"time":99.27734375000033,"velocity":0.7637795275590551,"duration":0.1627604166666714},{"name":"F3","midi":53,"time":99.44270833333366,"velocity":0.7637795275590551,"duration":0.3281250000000142},{"name":"G#4","midi":68,"time":99.44270833333366,"velocity":0.7637795275590551,"duration":0.3281250000000142},{"name":"C5","midi":72,"time":99.44270833333366,"velocity":0.7637795275590551,"duration":0.1627604166666714},{"name":"D5","midi":74,"time":99.608072916667,"velocity":0.7637795275590551,"duration":0.1627604166666714},{"name":"G3","midi":55,"time":99.772135416667,"velocity":0.7637795275590551,"duration":0.6549479166666714},{"name":"G4","midi":67,"time":99.772135416667,"velocity":0.7637795275590551,"duration":0.3294270833333428},{"name":"D#5","midi":75,"time":99.772135416667,"velocity":0.7637795275590551,"duration":0.1080729166666714},{"name":"D5","midi":74,"time":99.88411458333367,"velocity":0.7637795275590551,"duration":0.1080729166666714},{"name":"D#5","midi":75,"time":99.99348958333367,"velocity":0.7637795275590551,"duration":0.1080729166666714},{"name":"B3","midi":59,"time":100.10546875000034,"velocity":0.7637795275590551,"duration":0.3281249999999858},{"name":"F4","midi":65,"time":100.10546875000034,"velocity":0.7637795275590551,"duration":0.3281249999999858},{"name":"D5","midi":74,"time":100.10546875000034,"velocity":0.7637795275590551,"duration":0.1627604166666714},{"name":"C5","midi":72,"time":100.26953125000034,"velocity":0.7637795275590551,"duration":0.1627604166666572},{"name":"C5","midi":72,"time":100.44270833333366,"velocity":0.7637795275590551,"duration":0.6640625},{"name":"C4","midi":60,"time":100.44270833333366,"velocity":0.7637795275590551,"duration":0.6640625},{"name":"D#4","midi":63,"time":100.44270833333366,"velocity":0.7637795275590551,"duration":0.66796875},{"name":"C3","midi":48,"time":100.62500000000033,"velocity":0.7637795275590551,"duration":0.1653645833333286},{"name":"C#3","midi":49,"time":100.79296875000033,"velocity":0.7637795275590551,"duration":0.1653645833333286},{"name":"D#3","midi":51,"time":100.96093750000033,"velocity":0.7637795275590551,"duration":0.1640625},{"name":"G#4","midi":68,"time":101.12890625000033,"velocity":0.7637795275590551,"duration":1.3437499999999716},{"name":"C#3","midi":49,"time":101.12890625000033,"velocity":0.7637795275590551,"duration":0.1653645833333286},{"name":"C3","midi":48,"time":101.29557291666698,"velocity":0.7637795275590551,"duration":0.1653645833333286},{"name":"A#2","midi":46,"time":101.46484375000031,"velocity":0.7637795275590551,"duration":0.1653645833333286},{"name":"G#2","midi":44,"time":101.63281250000031,"velocity":0.7637795275590551,"duration":0.1653645833333286},{"name":"A#3","midi":58,"time":101.80078125000031,"velocity":0.7637795275590551,"duration":0.6705729166666572},{"name":"D#3","midi":51,"time":101.80078125000031,"velocity":0.7637795275590551,"duration":1.3424479166666288},{"name":"A#4","midi":70,"time":101.96875000000031,"velocity":0.7637795275590551,"duration":0.1653645833333286},{"name":"C5","midi":72,"time":102.13671875000031,"velocity":0.7637795275590551,"duration":0.1653645833333286},{"name":"C#5","midi":73,"time":102.30598958333364,"velocity":0.7637795275590551,"duration":0.1653645833333286},{"name":"C5","midi":72,"time":102.47395833333363,"velocity":0.7637795275590551,"duration":0.1653645833333286},{"name":"G4","midi":67,"time":102.47395833333363,"velocity":0.7637795275590551,"duration":0.4986979166666572},{"name":"D#4","midi":63,"time":102.47395833333363,"velocity":0.7637795275590551,"duration":1.3372395833333144},{"name":"A#4","midi":70,"time":102.64322916666696,"velocity":0.7637795275590551,"duration":0.1653645833333286},{"name":"G#4","midi":68,"time":102.80989583333361,"velocity":0.7637795275590551,"duration":0.1640625},{"name":"G4","midi":67,"time":102.97656250000028,"velocity":0.7637795275590551,"duration":0.1653645833333286},{"name":"C5","midi":72,"time":103.14583333333361,"velocity":0.7637795275590551,"duration":0.6614583333333286},{"name":"F4","midi":65,"time":103.14583333333361,"velocity":0.7637795275590551,"duration":0.33203125},{"name":"G#3","midi":56,"time":103.14583333333361,"velocity":0.7637795275590551,"duration":1.3411458333333002},{"name":"G4","midi":67,"time":103.47916666666694,"velocity":0.7637795275590551,"duration":0.1653645833333286},{"name":"G#4","midi":68,"time":103.64843750000027,"velocity":0.7637795275590551,"duration":0.1640625},{"name":"A#4","midi":70,"time":103.81510416666694,"velocity":0.7637795275590551,"duration":0.670572916666643},{"name":"D4","midi":62,"time":103.81510416666694,"velocity":0.7637795275590551,"duration":0.670572916666643},{"name":"G#4","midi":68,"time":103.98437500000027,"velocity":0.7637795275590551,"duration":0.1653645833333286},{"name":"G4","midi":67,"time":104.15104166666693,"velocity":0.7637795275590551,"duration":0.1653645833333286},{"name":"F4","midi":65,"time":104.31901041666693,"velocity":0.7637795275590551,"duration":0.1653645833333286},{"name":"A#4","midi":70,"time":104.48828125000024,"velocity":0.7637795275590551,"duration":1.2981770833333428},{"name":"G4","midi":67,"time":104.48828125000024,"velocity":0.7637795275590551,"duration":1.3489583333333428},{"name":"D#4","midi":63,"time":104.48828125000024,"velocity":0.7637795275590551,"duration":0.1653645833333286},{"name":"G3","midi":55,"time":104.48828125000024,"velocity":0.7637795275590551,"duration":0.8385416666666572},{"name":"D4","midi":62,"time":104.65625000000024,"velocity":0.7637795275590551,"duration":0.1653645833333286},{"name":"C4","midi":60,"time":104.82421875000024,"velocity":0.7637795275590551,"duration":0.1653645833333286},{"name":"A#3","midi":58,"time":104.99218750000024,"velocity":0.7637795275590551,"duration":0.1653645833333286},{"name":"D#5","midi":75,"time":105.16145833333357,"velocity":0.7637795275590551,"duration":0.3268229166666714},{"name":"F3","midi":53,"time":105.32942708333357,"velocity":0.7637795275590551,"duration":0.1653645833333428},{"name":"D#5","midi":75,"time":105.49739583333358,"velocity":0.7637795275590551,"duration":0.33203125},{"name":"G3","midi":55,"time":105.49739583333358,"velocity":0.7637795275590551,"duration":0.1653645833333286},{"name":"G#3","midi":56,"time":105.66536458333358,"velocity":0.7637795275590551,"duration":0.1640625},{"name":"D#5","midi":75,"time":105.83203125000026,"velocity":0.7637795275590551,"duration":0.670572916666643},{"name":"F4","midi":65,"time":105.83203125000026,"velocity":0.7637795275590551,"duration":1.510416666666643},{"name":"A#3","midi":58,"time":105.83203125000026,"velocity":0.7637795275590551,"duration":0.1653645833333286},{"name":"A#4","midi":70,"time":105.83203125000026,"velocity":0.7637795275590551,"duration":1.3437499999999716},{"name":"G#3","midi":56,"time":106.00130208333358,"velocity":0.7637795275590551,"duration":0.1653645833333286},{"name":"A#3","midi":58,"time":106.16796875000024,"velocity":0.7637795275590551,"duration":0.1653645833333286},{"name":"C4","midi":60,"time":106.33723958333357,"velocity":0.7637795275590551,"duration":0.1653645833333286},{"name":"D5","midi":74,"time":106.50520833333357,"velocity":0.7637795275590551,"duration":0.6705729166666572},{"name":"A#3","midi":58,"time":106.50520833333357,"velocity":0.7637795275590551,"duration":0.1653645833333286},{"name":"G#3","midi":56,"time":106.67317708333357,"velocity":0.7637795275590551,"duration":0.1653645833333286},{"name":"G3","midi":55,"time":106.84114583333357,"velocity":0.7637795275590551,"duration":0.1653645833333286},{"name":"F3","midi":53,"time":107.00911458333357,"velocity":0.7637795275590551,"duration":0.1653645833333286},{"name":"G5","midi":79,"time":107.1783854166669,"velocity":0.7637795275590551,"duration":2.016927083333286},{"name":"E3","midi":52,"time":107.1783854166669,"velocity":0.7637795275590551,"duration":1.3437499999999716},{"name":"A#3","midi":58,"time":107.3463541666669,"velocity":0.7637795275590551,"duration":0.1653645833333286},{"name":"C4","midi":60,"time":107.51562500000023,"velocity":0.7637795275590551,"duration":0.1653645833333286},{"name":"C#4","midi":61,"time":107.68229166666688,"velocity":0.7637795275590551,"duration":0.1653645833333286},{"name":"C4","midi":60,"time":107.85026041666688,"velocity":0.7637795275590551,"duration":0.1653645833333286},{"name":"A#3","midi":58,"time":108.01953125000021,"velocity":0.7637795275590551,"duration":0.1653645833333286},{"name":"G#3","midi":56,"time":108.18750000000021,"velocity":0.7637795275590551,"duration":0.1653645833333286},{"name":"G3","midi":55,"time":108.35546875000021,"velocity":0.7637795275590551,"duration":0.1653645833333286},{"name":"C4","midi":60,"time":108.5234375000002,"velocity":0.7637795275590551,"duration":1.3437499999999574},{"name":"G#3","midi":56,"time":108.5234375000002,"velocity":0.7637795275590551,"duration":1.3437499999999574},{"name":"A#4","midi":70,"time":108.69270833333353,"velocity":0.7637795275590551,"duration":0.1653645833333286},{"name":"C5","midi":72,"time":108.86067708333353,"velocity":0.7637795275590551,"duration":0.1653645833333286},{"name":"C#5","midi":73,"time":109.02734375000018,"velocity":0.7637795275590551,"duration":0.1653645833333286},{"name":"F5","midi":77,"time":109.19661458333351,"velocity":0.7637795275590551,"duration":0.670572916666643},{"name":"C5","midi":72,"time":109.19661458333351,"velocity":0.7637795275590551,"duration":0.1653645833333286},{"name":"A#4","midi":70,"time":109.36458333333351,"velocity":0.7637795275590551,"duration":0.1653645833333286},{"name":"G#4","midi":68,"time":109.53385416666684,"velocity":0.7637795275590551,"duration":0.1653645833333286},{"name":"G4","midi":67,"time":109.7005208333335,"velocity":0.7637795275590551,"duration":0.1653645833333286},{"name":"B4","midi":71,"time":109.86979166666683,"velocity":0.7637795275590551,"duration":0.6432291666666714},{"name":"F4","midi":65,"time":109.86979166666683,"velocity":0.7637795275590551,"duration":0.6432291666666714},{"name":"D4","midi":62,"time":109.86979166666683,"velocity":0.7637795275590551,"duration":0.6432291666666714},{"name":"F3","midi":53,"time":110.03776041666683,"velocity":0.7637795275590551,"duration":0.1653645833333286},{"name":"G3","midi":55,"time":110.20572916666683,"velocity":0.7637795275590551,"duration":0.1653645833333286},{"name":"G#3","midi":56,"time":110.37369791666683,"velocity":0.7637795275590551,"duration":0.1640625},{"name":"C5","midi":72,"time":110.5403645833335,"velocity":0.7637795275590551,"duration":0.3216145833333428},{"name":"D#4","midi":63,"time":110.5403645833335,"velocity":0.7637795275590551,"duration":0.3216145833333428},{"name":"G4","midi":67,"time":110.5403645833335,"velocity":0.7637795275590551,"duration":0.3216145833333428},{"name":"G3","midi":55,"time":110.5403645833335,"velocity":0.7637795275590551,"duration":0.1666666666666714},{"name":"F3","midi":53,"time":110.71093750000017,"velocity":0.7637795275590551,"duration":0.1666666666666714},{"name":"D5","midi":74,"time":110.88020833333351,"velocity":0.7637795275590551,"duration":0.3216145833333428},{"name":"B4","midi":71,"time":110.88020833333351,"velocity":0.7637795275590551,"duration":0.3216145833333428},{"name":"F4","midi":65,"time":110.88020833333351,"velocity":0.7637795275590551,"duration":0.3216145833333428},{"name":"D#3","midi":51,"time":110.88020833333351,"velocity":0.7637795275590551,"duration":0.1666666666666714},{"name":"D3","midi":50,"time":111.05078125000018,"velocity":0.7637795275590551,"duration":0.1666666666666714},{"name":"D#5","midi":75,"time":111.21875000000018,"velocity":0.7637795275590551,"duration":0.3216145833333428},{"name":"G4","midi":67,"time":111.21875000000018,"velocity":0.7637795275590551,"duration":0.3216145833333428},{"name":"C5","midi":72,"time":111.21875000000018,"velocity":0.7637795275590551,"duration":0.6432291666666856},{"name":"C3","midi":48,"time":111.21875000000018,"velocity":0.7637795275590551,"duration":0.1666666666666714},{"name":"B2","midi":47,"time":111.38932291666686,"velocity":0.7637795275590551,"duration":0.1666666666666714},{"name":"E5","midi":76,"time":111.55989583333353,"velocity":0.7637795275590551,"duration":0.3216145833333428},{"name":"G4","midi":67,"time":111.55989583333353,"velocity":0.7637795275590551,"duration":0.3216145833333428},{"name":"C3","midi":48,"time":111.55989583333353,"velocity":0.7637795275590551,"duration":0.1666666666666714},{"name":"C#3","midi":49,"time":111.72916666666687,"velocity":0.7637795275590551,"duration":0.1666666666666714},{"name":"F5","midi":77,"time":111.89973958333354,"velocity":0.7637795275590551,"duration":0.3216145833333286},{"name":"D5","midi":74,"time":111.89973958333354,"velocity":0.7637795275590551,"duration":0.3216145833333286},{"name":"G#4","midi":68,"time":111.89973958333354,"velocity":0.7637795275590551,"duration":0.3216145833333286},{"name":"C3","midi":48,"time":111.89973958333354,"velocity":0.7637795275590551,"duration":0.1666666666666714},{"name":"A#2","midi":46,"time":112.06770833333354,"velocity":0.7637795275590551,"duration":0.1666666666666572},{"name":"G5","midi":79,"time":112.2382812500002,"velocity":0.7637795275590551,"duration":0.3216145833333428},{"name":"A#4","midi":70,"time":112.2382812500002,"velocity":0.7637795275590551,"duration":0.3216145833333428},{"name":"E5","midi":76,"time":112.2382812500002,"velocity":0.7637795275590551,"duration":0.3216145833333428},{"name":"G#2","midi":44,"time":112.2382812500002,"velocity":0.7637795275590551,"duration":0.1666666666666714},{"name":"G2","midi":43,"time":112.40755208333354,"velocity":0.7637795275590551,"duration":0.1666666666666714},{"name":"G#5","midi":80,"time":112.57812500000021,"velocity":0.7637795275590551,"duration":1.5247395833333854},{"name":"F5","midi":77,"time":112.57812500000021,"velocity":0.7637795275590551,"duration":0.1666666666666714},{"name":"C5","midi":72,"time":112.57812500000021,"velocity":0.7637795275590551,"duration":0.1666666666666714},{"name":"F2","midi":41,"time":112.57812500000021,"velocity":0.7637795275590551,"duration":0.677083333333357},{"name":"D#5","midi":75,"time":112.74739583333356,"velocity":0.7637795275590551,"duration":0.1666666666666714},{"name":"F5","midi":77,"time":112.9166666666669,"velocity":0.7637795275590551,"duration":0.1666666666666714},{"name":"G5","midi":79,"time":113.08723958333357,"velocity":0.7637795275590551,"duration":0.1666666666666714},{"name":"F5","midi":77,"time":113.2565104166669,"velocity":0.7637795275590551,"duration":0.1666666666666714},{"name":"A#2","midi":46,"time":113.2565104166669,"velocity":0.7637795275590551,"duration":1.3554687500000568},{"name":"D#5","midi":75,"time":113.42708333333357,"velocity":0.7637795275590551,"duration":0.1666666666666714},{"name":"D5","midi":74,"time":113.59635416666691,"velocity":0.7637795275590551,"duration":0.1666666666666714},{"name":"C5","midi":72,"time":113.76562500000026,"velocity":0.7637795275590551,"duration":0.1666666666666714},{"name":"D5","midi":74,"time":113.9348958333336,"velocity":0.7637795275590551,"duration":1.5247395833333854},{"name":"G#5","midi":80,"time":114.10546875000027,"velocity":0.7637795275590551,"duration":0.1666666666666714},{"name":"A#5","midi":82,"time":114.27473958333361,"velocity":0.7637795275590551,"duration":0.1666666666666714},{"name":"C6","midi":84,"time":114.44531250000028,"velocity":0.7637795275590551,"duration":0.1666666666666714},{"name":"A#5","midi":82,"time":114.61458333333363,"velocity":0.7637795275590551,"duration":0.1666666666666714},{"name":"G2","midi":43,"time":114.61458333333363,"velocity":0.7637795275590551,"duration":0.677083333333357},{"name":"G#5","midi":80,"time":114.78385416666697,"velocity":0.7637795275590551,"duration":0.1666666666666714},{"name":"G5","midi":79,"time":114.95442708333364,"velocity":0.7637795275590551,"duration":0.1666666666666714},{"name":"F5","midi":77,"time":115.12369791666698,"velocity":0.7637795275590551,"duration":0.1666666666666714},{"name":"D#5","midi":75,"time":115.29427083333366,"velocity":0.7637795275590551,"duration":1.3554687500000142},{"name":"D#3","midi":51,"time":115.29427083333366,"velocity":0.7637795275590551,"duration":0.6770833333333428},{"name":"C3","midi":48,"time":115.29427083333366,"velocity":0.7637795275590551,"duration":1.3554687500000142},{"name":"A#4","midi":70,"time":115.46223958333366,"velocity":0.7637795275590551,"duration":0.1666666666666714},{"name":"C5","midi":72,"time":115.63281250000033,"velocity":0.7637795275590551,"duration":0.1666666666666714},{"name":"C#5","midi":73,"time":115.803385416667,"velocity":0.7637795275590551,"duration":0.1666666666666714},{"name":"C5","midi":72,"time":115.97265625000033,"velocity":0.7637795275590551,"duration":0.1666666666666714},{"name":"G#3","midi":56,"time":115.97265625000033,"velocity":0.7637795275590551,"duration":1.35546875},{"name":"A#4","midi":70,"time":116.143229166667,"velocity":0.7637795275590551,"duration":0.1666666666666714},{"name":"G#4","midi":68,"time":116.311197916667,"velocity":0.7637795275590551,"duration":0.1666666666666714},{"name":"G4","midi":67,"time":116.48177083333367,"velocity":0.7637795275590551,"duration":0.1666666666666714},{"name":"A#4","midi":70,"time":116.651041666667,"velocity":0.7637795275590551,"duration":0.6705729166666714},{"name":"F4","midi":65,"time":116.651041666667,"velocity":0.7637795275590551,"duration":0.3359375},{"name":"D3","midi":50,"time":116.651041666667,"velocity":0.7637795275590551,"duration":0.3359375},{"name":"G4","midi":67,"time":116.98958333333367,"velocity":0.7637795275590551,"duration":0.1666666666666714},{"name":"A#2","midi":46,"time":116.98958333333367,"velocity":0.7637795275590551,"duration":0.3359375},{"name":"G#4","midi":68,"time":117.16015625000034,"velocity":0.7637795275590551,"duration":0.1666666666666572},{"name":"A#4","midi":70,"time":117.330729166667,"velocity":0.7637795275590551,"duration":0.6705729166666714},{"name":"G3","midi":55,"time":117.330729166667,"velocity":0.7637795275590551,"duration":0.6770833333333286},{"name":"D#3","midi":51,"time":117.330729166667,"velocity":0.7637795275590551,"duration":0.3359375},{"name":"G#4","midi":68,"time":117.50000000000033,"velocity":0.7637795275590551,"duration":0.1666666666666714},{"name":"G4","midi":67,"time":117.670572916667,"velocity":0.7637795275590551,"duration":0.1666666666666714},{"name":"D3","midi":50,"time":117.670572916667,"velocity":0.7637795275590551,"duration":0.3359375},{"name":"F4","midi":65,"time":117.838541666667,"velocity":0.7637795275590551,"duration":0.1666666666666714},{"name":"D#4","midi":63,"time":118.00911458333366,"velocity":0.7637795275590551,"duration":0.1666666666666714},{"name":"C4","midi":60,"time":118.00911458333366,"velocity":0.7637795275590551,"duration":0.3346354166666714},{"name":"C3","midi":48,"time":118.00911458333366,"velocity":0.7637795275590551,"duration":1.0156249999999858},{"name":"D4","midi":62,"time":118.178385416667,"velocity":0.7637795275590551,"duration":0.1666666666666572},{"name":"C4","midi":60,"time":118.34895833333366,"velocity":0.7637795275590551,"duration":0.3346354166666572},{"name":"A#3","midi":58,"time":118.51822916666698,"velocity":0.7637795275590551,"duration":0.1666666666666572},{"name":"D#4","midi":63,"time":118.68750000000031,"velocity":0.7637795275590551,"duration":0.3359375},{"name":"A4","midi":69,"time":118.85807291666698,"velocity":0.7637795275590551,"duration":0.1666666666666572},{"name":"A#4","midi":70,"time":119.02734375000031,"velocity":0.7637795275590551,"duration":0.1666666666666714},{"name":"D#4","midi":63,"time":119.02734375000031,"velocity":0.7637795275590551,"duration":0.3359375},{"name":"A#2","midi":46,"time":119.02734375000031,"velocity":0.7637795275590551,"duration":0.3359375},{"name":"C5","midi":72,"time":119.19791666666698,"velocity":0.7637795275590551,"duration":0.1666666666666572},{"name":"F4","midi":65,"time":119.36718750000031,"velocity":0.7637795275590551,"duration":0.6822916666666714},{"name":"D#4","midi":63,"time":119.36718750000031,"velocity":0.7637795275590551,"duration":0.6822916666666714},{"name":"A2","midi":45,"time":119.36718750000031,"velocity":0.7637795275590551,"duration":0.6822916666666714},{"name":"A3","midi":57,"time":119.53776041666698,"velocity":0.7637795275590551,"duration":0.16796875},{"name":"A#3","midi":58,"time":119.70963541666698,"velocity":0.7637795275590551,"duration":0.16796875},{"name":"C4","midi":60,"time":119.88020833333366,"velocity":0.7637795275590551,"duration":0.16796875},{"name":"F4","midi":65,"time":120.05208333333366,"velocity":0.7637795275590551,"duration":0.68359375},{"name":"D4","midi":62,"time":120.05208333333366,"velocity":0.7637795275590551,"duration":0.68359375},{"name":"A#3","midi":58,"time":120.05208333333366,"velocity":0.7637795275590551,"duration":0.16796875},{"name":"A#2","midi":46,"time":120.05208333333366,"velocity":0.7637795275590551,"duration":0.6783854166666714},{"name":"G#3","midi":56,"time":120.22395833333366,"velocity":0.7637795275590551,"duration":0.16796875},{"name":"G3","midi":55,"time":120.39453125000033,"velocity":0.7637795275590551,"duration":0.16796875},{"name":"F3","midi":53,"time":120.565104166667,"velocity":0.7637795275590551,"duration":0.1692708333333286},{"name":"D#4","midi":63,"time":120.73828125000033,"velocity":0.7637795275590551,"duration":1.3671875},{"name":"F#3","midi":54,"time":120.73828125000033,"velocity":0.7637795275590551,"duration":0.6822916666666714},{"name":"C4","midi":60,"time":120.73828125000033,"velocity":0.7637795275590551,"duration":1.3671875},{"name":"A2","midi":45,"time":120.91015625000033,"velocity":0.7637795275590551,"duration":0.16796875},{"name":"A#2","midi":46,"time":121.080729166667,"velocity":0.7637795275590551,"duration":0.16796875},{"name":"C3","midi":48,"time":121.252604166667,"velocity":0.7637795275590551,"duration":0.16796875},{"name":"F3","midi":53,"time":121.424479166667,"velocity":0.7637795275590551,"duration":0.6822916666666572},{"name":"A#2","midi":46,"time":121.424479166667,"velocity":0.7637795275590551,"duration":0.16796875},{"name":"A2","midi":45,"time":121.59375000000033,"velocity":0.7637795275590551,"duration":0.16796875},{"name":"G2","midi":43,"time":121.76562500000033,"velocity":0.7637795275590551,"duration":0.16796875},{"name":"F2","midi":41,"time":121.93750000000033,"velocity":0.7637795275590551,"duration":0.16796875},{"name":"D4","midi":62,"time":122.10807291666698,"velocity":0.7637795275590551,"duration":0.6848958333333286},{"name":"F3","midi":53,"time":122.10807291666698,"velocity":0.7637795275590551,"duration":0.6848958333333286},{"name":"A#2","midi":46,"time":122.10807291666698,"velocity":0.7637795275590551,"duration":0.69140625},{"name":"F4","midi":65,"time":122.28255208333366,"velocity":0.7637795275590551,"duration":0.1692708333333286},{"name":"G4","midi":67,"time":122.45572916666698,"velocity":0.7637795275590551,"duration":0.1692708333333286},{"name":"G#4","midi":68,"time":122.62890625000031,"velocity":0.7637795275590551,"duration":0.1705729166666714},{"name":"G4","midi":67,"time":122.80208333333366,"velocity":0.7637795275590551,"duration":0.6848958333333286},{"name":"D#3","midi":51,"time":122.80208333333366,"velocity":0.7637795275590551,"duration":1.3828125},{"name":"F4","midi":65,"time":122.97656250000033,"velocity":0.7637795275590551,"duration":0.1692708333333286},{"name":"D#4","midi":63,"time":123.14973958333366,"velocity":0.7637795275590551,"duration":0.1692708333333286},{"name":"D4","midi":62,"time":123.32291666666698,"velocity":0.7637795275590551,"duration":0.1705729166666714},{"name":"G#4","midi":68,"time":123.49739583333366,"velocity":0.7637795275590551,"duration":1.553385416666643},{"name":"C4","midi":60,"time":123.49739583333366,"velocity":0.7637795275590551,"duration":0.34375},{"name":"D4","midi":62,"time":123.84375000000033,"velocity":0.7637795275590551,"duration":0.1692708333333286},{"name":"D#4","midi":63,"time":124.01692708333366,"velocity":0.7637795275590551,"duration":0.1692708333333286},{"name":"F4","midi":65,"time":124.19010416666698,"velocity":0.7637795275590551,"duration":0.1692708333333286},{"name":"D3","midi":50,"time":124.19010416666698,"velocity":0.7637795275590551,"duration":0.6888020833333286},{"name":"D#4","midi":63,"time":124.36197916666698,"velocity":0.7637795275590551,"duration":0.1692708333333286},{"name":"D4","midi":62,"time":124.53515625000031,"velocity":0.7637795275590551,"duration":0.1692708333333286},{"name":"C4","midi":60,"time":124.70703125000031,"velocity":0.7637795275590551,"duration":0.1692708333333286},{"name":"A#3","midi":58,"time":124.88020833333364,"velocity":0.7637795275590551,"duration":0.1692708333333286},{"name":"G3","midi":55,"time":124.88020833333364,"velocity":0.7637795275590551,"duration":0.3411458333333286},{"name":"F4","midi":65,"time":125.05338541666697,"velocity":0.7637795275590551,"duration":0.1692708333333286},{"name":"G#3","midi":56,"time":125.05338541666697,"velocity":0.7637795275590551,"duration":0.1692708333333286},{"name":"G4","midi":67,"time":125.2265625000003,"velocity":0.7637795275590551,"duration":0.1692708333333286},{"name":"G3","midi":55,"time":125.2265625000003,"velocity":0.7637795275590551,"duration":0.3411458333333286},{"name":"G#4","midi":68,"time":125.39973958333363,"velocity":0.7637795275590551,"duration":0.1692708333333286},{"name":"F3","midi":53,"time":125.39973958333363,"velocity":0.7637795275590551,"duration":0.1692708333333286},{"name":"G4","midi":67,"time":125.57031250000028,"velocity":0.7637795275590551,"duration":0.1692708333333286},{"name":"A#3","midi":58,"time":125.57031250000028,"velocity":0.7637795275590551,"duration":0.3424479166666572},{"name":"G3","midi":55,"time":125.57031250000028,"velocity":0.7637795275590551,"duration":0.3411458333333286},{"name":"F4","midi":65,"time":125.74348958333361,"velocity":0.7637795275590551,"duration":0.1692708333333286},{"name":"D#4","midi":63,"time":125.91666666666694,"velocity":0.7637795275590551,"duration":0.1692708333333286},{"name":"A#3","midi":58,"time":125.91666666666694,"velocity":0.7637795275590551,"duration":0.3424479166666572},{"name":"F3","midi":53,"time":125.91666666666694,"velocity":0.7637795275590551,"duration":0.3424479166666572},{"name":"D4","midi":62,"time":126.08984375000027,"velocity":0.7637795275590551,"duration":0.1692708333333286},{"name":"C4","midi":60,"time":126.2630208333336,"velocity":0.7637795275590551,"duration":0.8606770833333286},{"name":"A#3","midi":58,"time":126.2630208333336,"velocity":0.7637795275590551,"duration":0.1692708333333286},{"name":"E3","midi":52,"time":126.2630208333336,"velocity":0.7637795275590551,"duration":0.6888020833333286},{"name":"G3","midi":55,"time":126.43619791666693,"velocity":0.7637795275590551,"duration":0.1692708333333286},{"name":"A3","midi":57,"time":126.60807291666693,"velocity":0.7637795275590551,"duration":0.1692708333333286},{"name":"A#3","midi":58,"time":126.77994791666693,"velocity":0.7637795275590551,"duration":0.1692708333333286},{"name":"A3","midi":57,"time":126.95312500000026,"velocity":0.7637795275590551,"duration":0.85546875},{"name":"F3","midi":53,"time":126.95312500000026,"velocity":0.7637795275590551,"duration":0.3424479166666714},{"name":"C4","midi":60,"time":127.1263020833336,"velocity":0.7637795275590551,"duration":0.1692708333333286},{"name":"D4","midi":62,"time":127.29947916666693,"velocity":0.7637795275590551,"duration":0.1692708333333286},{"name":"D#3","midi":51,"time":127.29947916666693,"velocity":0.7637795275590551,"duration":0.3424479166666572},{"name":"D#4","midi":63,"time":127.47265625000026,"velocity":0.7637795275590551,"duration":0.1692708333333286},{"name":"F4","midi":65,"time":127.64453125000026,"velocity":0.7637795275590551,"duration":0.86328125},{"name":"D3","midi":50,"time":127.64453125000026,"velocity":0.7637795275590551,"duration":1.5546875000000284},{"name":"A3","midi":57,"time":127.81901041666693,"velocity":0.7637795275590551,"duration":0.1692708333333286},{"name":"B3","midi":59,"time":127.99218750000026,"velocity":0.7637795275590551,"duration":0.1692708333333428},{"name":"C4","midi":60,"time":128.16406250000026,"velocity":0.7637795275590551,"duration":0.1692708333333428},{"name":"B3","midi":59,"time":128.3372395833336,"velocity":0.7637795275590551,"duration":0.68359375},{"name":"D#4","midi":63,"time":128.5104166666669,"velocity":0.7637795275590551,"duration":0.1692708333333428},{"name":"F4","midi":65,"time":128.6822916666669,"velocity":0.7637795275590551,"duration":0.1692708333333428},{"name":"G4","midi":67,"time":128.85546875000026,"velocity":0.7637795275590551,"duration":0.17057291666668561},{"name":"G#4","midi":68,"time":129.02994791666694,"velocity":0.7637795275590551,"duration":1.7252604166667709},{"name":"D3","midi":50,"time":129.20312500000028,"velocity":0.7637795275590551,"duration":0.1692708333333428},{"name":"B3","midi":59,"time":129.37630208333363,"velocity":0.7637795275590551,"duration":0.3424479166666856},{"name":"D#3","midi":51,"time":129.37630208333363,"velocity":0.7637795275590551,"duration":0.1692708333333428},{"name":"F3","midi":53,"time":129.54817708333363,"velocity":0.7637795275590551,"duration":0.1692708333333428},{"name":"C4","midi":60,"time":129.72005208333366,"velocity":0.7637795275590551,"duration":0.3424479166666856},{"name":"D#3","midi":51,"time":129.72005208333366,"velocity":0.7637795275590551,"duration":0.1692708333333428},{"name":"D3","midi":50,"time":129.893229166667,"velocity":0.7637795275590551,"duration":0.1692708333333428},{"name":"D4","midi":62,"time":130.06640625000034,"velocity":0.7637795275590551,"duration":0.3424479166666856},{"name":"C3","midi":48,"time":130.06640625000034,"velocity":0.7637795275590551,"duration":0.1692708333333428},{"name":"B2","midi":47,"time":130.23958333333368,"velocity":0.7637795275590551,"duration":0.1692708333333428},{"name":"D#4","midi":63,"time":130.41276041666703,"velocity":0.7637795275590551,"duration":1.5546875000000853},{"name":"C3","midi":48,"time":130.41276041666703,"velocity":0.7637795275590551,"duration":0.1692708333333428},{"name":"B2","midi":47,"time":130.58593750000037,"velocity":0.7637795275590551,"duration":0.1692708333333428},{"name":"G4","midi":67,"time":130.75651041666706,"velocity":0.7637795275590551,"duration":0.3424479166666856},{"name":"C3","midi":48,"time":130.75651041666706,"velocity":0.7637795275590551,"duration":0.1692708333333428},{"name":"D3","midi":50,"time":130.9296875000004,"velocity":0.7637795275590551,"duration":0.1692708333333428},{"name":"G#4","midi":68,"time":131.10286458333374,"velocity":0.7637795275590551,"duration":0.3424479166666856},{"name":"C3","midi":48,"time":131.10286458333374,"velocity":0.7637795275590551,"duration":0.1692708333333428},{"name":"A#2","midi":46,"time":131.27604166666708,"velocity":0.7637795275590551,"duration":0.1692708333333428},{"name":"A#4","midi":70,"time":131.44921875000043,"velocity":0.7637795275590551,"duration":0.3424479166666856},{"name":"G#2","midi":44,"time":131.44921875000043,"velocity":0.7637795275590551,"duration":0.1692708333333428},{"name":"G2","midi":43,"time":131.62109375000043,"velocity":0.7637795275590551,"duration":0.1692708333333428},{"name":"C5","midi":72,"time":131.79427083333377,"velocity":0.7637795275590551,"duration":0.8763020833333428},{"name":"C3","midi":48,"time":131.79427083333377,"velocity":0.7637795275590551,"duration":0.7005208333333428},{"name":"G#2","midi":44,"time":131.79427083333377,"velocity":0.7637795275590551,"duration":1.4036458333333428},{"name":"D#4","midi":63,"time":131.97005208333377,"velocity":0.7637795275590551,"duration":0.171875},{"name":"F4","midi":65,"time":132.14453125000043,"velocity":0.7637795275590551,"duration":0.171875},{"name":"G4","midi":67,"time":132.32161458333377,"velocity":0.7637795275590551,"duration":0.171875},{"name":"F4","midi":65,"time":132.49739583333377,"velocity":0.7637795275590551,"duration":0.7005208333333428},{"name":"F3","midi":53,"time":132.49739583333377,"velocity":0.7637795275590551,"duration":1.4036458333333428},{"name":"D#5","midi":75,"time":132.67317708333377,"velocity":0.7637795275590551,"duration":0.171875},{"name":"D5","midi":74,"time":132.84895833333377,"velocity":0.7637795275590551,"duration":0.171875},{"name":"C5","midi":72,"time":133.02473958333377,"velocity":0.7637795275590551,"duration":0.171875},{"name":"B4","midi":71,"time":133.20052083333377,"velocity":0.7637795275590551,"duration":0.3489583333333428},{"name":"G4","midi":67,"time":133.20052083333377,"velocity":0.7637795275590551,"duration":1.4036458333333428},{"name":"G2","midi":43,"time":133.37630208333377,"velocity":0.7637795275590551,"duration":0.171875},{"name":"C5","midi":72,"time":133.55208333333377,"velocity":0.7637795275590551,"duration":0.171875},{"name":"A2","midi":45,"time":133.55208333333377,"velocity":0.7637795275590551,"duration":0.171875},{"name":"D5","midi":74,"time":133.72786458333377,"velocity":0.7637795275590551,"duration":0.171875},{"name":"B2","midi":47,"time":133.72786458333377,"velocity":0.7637795275590551,"duration":0.171875},{"name":"D#5","midi":75,"time":133.90364583333377,"velocity":0.7637795275590551,"duration":0.171875},{"name":"D#3","midi":51,"time":133.90364583333377,"velocity":0.7637795275590551,"duration":0.7005208333333428},{"name":"C3","midi":48,"time":133.90364583333377,"velocity":0.7637795275590551,"duration":0.8763020833333428},{"name":"D5","midi":74,"time":134.07942708333377,"velocity":0.7637795275590551,"duration":0.171875},{"name":"C5","midi":72,"time":134.25520833333377,"velocity":0.7637795275590551,"duration":0.171875},{"name":"A#4","midi":70,"time":134.43098958333377,"velocity":0.7637795275590551,"duration":0.171875},{"name":"G#4","midi":68,"time":134.6080729166671,"velocity":0.7637795275590551,"duration":0.171875},{"name":"G#3","midi":56,"time":134.6080729166671,"velocity":0.7637795275590551,"duration":1.4036458333333428},{"name":"G4","midi":67,"time":134.78255208333377,"velocity":0.7637795275590551,"duration":0.171875},{"name":"C3","midi":48,"time":134.78255208333377,"velocity":0.7637795275590551,"duration":0.171875},{"name":"F4","midi":65,"time":134.95833333333377,"velocity":0.7637795275590551,"duration":0.171875},{"name":"D3","midi":50,"time":134.95833333333377,"velocity":0.7637795275590551,"duration":0.171875},{"name":"D#4","midi":63,"time":135.13411458333377,"velocity":0.7637795275590551,"duration":0.171875},{"name":"D#3","midi":51,"time":135.13411458333377,"velocity":0.7637795275590551,"duration":0.171875},{"name":"D4","midi":62,"time":135.30989583333377,"velocity":0.7637795275590551,"duration":0.171875},{"name":"F3","midi":53,"time":135.30989583333377,"velocity":0.7637795275590551,"duration":0.3489583333333428},{"name":"D5","midi":74,"time":135.48567708333377,"velocity":0.7637795275590551,"duration":0.171875},{"name":"D#5","midi":75,"time":135.66145833333377,"velocity":0.7637795275590551,"duration":0.171875},{"name":"F3","midi":53,"time":135.66145833333377,"velocity":0.7637795275590551,"duration":0.3489583333333428},{"name":"F5","midi":77,"time":135.83723958333377,"velocity":0.7637795275590551,"duration":0.171875},{"name":"B4","midi":71,"time":136.0130208333338,"velocity":0.7637795275590551,"duration":0.3489583333333428},{"name":"D4","midi":62,"time":136.0130208333338,"velocity":0.7637795275590551,"duration":0.7005208333333428},{"name":"G3","midi":55,"time":136.0130208333338,"velocity":0.7637795275590551,"duration":1.4023437500000284},{"name":"F3","midi":53,"time":136.0130208333338,"velocity":0.7637795275590551,"duration":0.7005208333333428},{"name":"C5","midi":72,"time":136.3645833333338,"velocity":0.7637795275590551,"duration":0.171875},{"name":"D5","midi":74,"time":136.5403645833338,"velocity":0.7637795275590551,"duration":0.171875},{"name":"C5","midi":72,"time":136.71744791666714,"velocity":0.7637795275590551,"duration":0.171875},{"name":"G4","midi":67,"time":136.71744791666714,"velocity":0.7637795275590551,"duration":0.5208333333333428},{"name":"D#3","midi":51,"time":136.71744791666714,"velocity":0.7637795275590551,"duration":0.6992187500000284},{"name":"A#4","midi":70,"time":136.89322916666714,"velocity":0.7637795275590551,"duration":0.171875},{"name":"G#4","midi":68,"time":137.06901041666714,"velocity":0.7637795275590551,"duration":0.17057291666668561},{"name":"G4","midi":67,"time":137.24218750000048,"velocity":0.7637795275590551,"duration":0.8776041666666856},{"name":"C5","midi":72,"time":137.4179687500005,"velocity":0.7637795275590551,"duration":1.7552083333333428},{"name":"G#3","midi":56,"time":137.4179687500005,"velocity":0.7637795275590551,"duration":1.2200520833333428},{"name":"C4","midi":60,"time":137.5937500000005,"velocity":0.7637795275590551,"duration":0.171875},{"name":"C#4","midi":61,"time":137.7695312500005,"velocity":0.7637795275590551,"duration":0.171875},{"name":"D#4","midi":63,"time":137.9453125000005,"velocity":0.7637795275590551,"duration":0.171875},{"name":"F4","midi":65,"time":138.1210937500005,"velocity":0.7637795275590551,"duration":0.7005208333333428},{"name":"C#4","midi":61,"time":138.1210937500005,"velocity":0.7637795275590551,"duration":0.171875},{"name":"C4","midi":60,"time":138.2968750000005,"velocity":0.7637795275590551,"duration":0.171875},{"name":"A#3","midi":58,"time":138.4726562500005,"velocity":0.7637795275590551,"duration":0.171875},{"name":"G#3","midi":56,"time":138.6484375000005,"velocity":0.7637795275590551,"duration":0.171875},{"name":"A#4","midi":70,"time":138.8242187500005,"velocity":0.7637795275590551,"duration":1.7526041666666572},{"name":"G3","midi":55,"time":138.8242187500005,"velocity":0.7637795275590551,"duration":0.5104166666666572},{"name":"E3","midi":52,"time":139.0000000000005,"velocity":0.7637795275590551,"duration":0.171875},{"name":"D5","midi":74,"time":139.1757812500005,"velocity":0.7637795275590551,"duration":0.3463541666666572},{"name":"F3","midi":53,"time":139.1757812500005,"velocity":0.7637795275590551,"duration":0.1705729166666572},{"name":"G3","midi":55,"time":139.35026041666717,"velocity":0.7637795275590551,"duration":0.8736979166666572},{"name":"E5","midi":76,"time":139.5273437500005,"velocity":0.7637795275590551,"duration":0.6992187499999716},{"name":"F3","midi":53,"time":139.5273437500005,"velocity":0.7637795275590551,"duration":0.171875},{"name":"E3","midi":52,"time":139.7031250000005,"velocity":0.7637795275590551,"duration":0.171875},{"name":"D3","midi":50,"time":139.87760416666717,"velocity":0.7637795275590551,"duration":0.171875},{"name":"C3","midi":48,"time":140.05338541666717,"velocity":0.7637795275590551,"duration":0.1705729166666572},{"name":"F5","midi":77,"time":140.22786458333383,"velocity":0.7637795275590551,"duration":0.171875},{"name":"F3","midi":53,"time":140.22786458333383,"velocity":0.7637795275590551,"duration":1.9244791666666856},{"name":"C5","midi":72,"time":140.40364583333383,"velocity":0.7637795275590551,"duration":0.171875},{"name":"C#5","midi":73,"time":140.57942708333383,"velocity":0.7637795275590551,"duration":0.171875},{"name":"G#4","midi":68,"time":140.57942708333383,"velocity":0.7637795275590551,"duration":0.5247395833333428},{"name":"D#5","midi":75,"time":140.75520833333383,"velocity":0.7637795275590551,"duration":0.171875},{"name":"C#5","midi":73,"time":140.93098958333383,"velocity":0.7637795275590551,"duration":0.7005208333333428},{"name":"C5","midi":72,"time":141.10677083333383,"velocity":0.7637795275590551,"duration":0.171875},{"name":"G#3","midi":56,"time":141.10677083333383,"velocity":0.7637795275590551,"duration":0.171875},{"name":"A#4","midi":70,"time":141.28255208333383,"velocity":0.7637795275590551,"duration":0.171875},{"name":"A#3","midi":58,"time":141.28255208333383,"velocity":0.7637795275590551,"duration":0.171875},{"name":"G#4","midi":68,"time":141.45833333333383,"velocity":0.7637795275590551,"duration":0.171875},{"name":"C4","midi":60,"time":141.45833333333383,"velocity":0.7637795275590551,"duration":0.171875},{"name":"C#5","midi":73,"time":141.63411458333383,"velocity":0.7637795275590551,"duration":0.7005208333333428},{"name":"G4","midi":67,"time":141.63411458333383,"velocity":0.7637795275590551,"duration":0.7005208333333428},{"name":"A#3","midi":58,"time":141.63411458333383,"velocity":0.7637795275590551,"duration":0.171875},{"name":"G#3","midi":56,"time":141.80989583333383,"velocity":0.7637795275590551,"duration":0.171875},{"name":"G3","midi":55,"time":141.98697916666717,"velocity":0.7637795275590551,"duration":0.171875},{"name":"F3","midi":53,"time":142.16276041666717,"velocity":0.7637795275590551,"duration":0.171875},{"name":"C5","midi":72,"time":142.33723958333383,"velocity":0.7637795275590551,"duration":0.8776041666666572},{"name":"G3","midi":55,"time":142.33723958333383,"velocity":0.7637795275590551,"duration":0.6940104166666572},{"name":"D#3","midi":51,"time":142.33723958333383,"velocity":0.7637795275590551,"duration":0.171875},{"name":"C3","midi":48,"time":142.51302083333383,"velocity":0.7637795275590551,"duration":0.171875},{"name":"C#3","midi":49,"time":142.68880208333383,"velocity":0.7637795275590551,"duration":0.171875},{"name":"D#3","midi":51,"time":142.86458333333383,"velocity":0.7637795275590551,"duration":0.171875},{"name":"F5","midi":77,"time":143.04036458333383,"velocity":0.7637795275590551,"duration":1.201822916666572},{"name":"C#3","midi":49,"time":143.04036458333383,"velocity":0.7637795275590551,"duration":0.1744791666666572},{"name":"G#5","midi":80,"time":143.21744791666714,"velocity":0.7637795275590551,"duration":0.1744791666666572},{"name":"C3","midi":48,"time":143.21744791666714,"velocity":0.7637795275590551,"duration":0.1744791666666572},{"name":"A#5","midi":82,"time":143.39453125000045,"velocity":0.7637795275590551,"duration":0.1744791666666572},{"name":"A#2","midi":46,"time":143.39453125000045,"velocity":0.7637795275590551,"duration":0.1744791666666572},{"name":"C6","midi":84,"time":143.5729166666671,"velocity":0.7637795275590551,"duration":0.1744791666666572},{"name":"G#2","midi":44,"time":143.5729166666671,"velocity":0.7637795275590551,"duration":0.1744791666666572},{"name":"A#5","midi":82,"time":143.75000000000043,"velocity":0.7637795275590551,"duration":0.1744791666666572},{"name":"C#3","midi":49,"time":143.75000000000043,"velocity":0.7637795275590551,"duration":0.3515624999999716},{"name":"G#5","midi":80,"time":143.92708333333374,"velocity":0.7637795275590551,"duration":0.1744791666666572},{"name":"G5","midi":79,"time":144.10416666666706,"velocity":0.7637795275590551,"duration":0.17447916666668561},{"name":"C#3","midi":49,"time":144.10416666666706,"velocity":0.7637795275590551,"duration":0.3515625},{"name":"F5","midi":77,"time":144.2812500000004,"velocity":0.7637795275590551,"duration":0.1744791666666572},{"name":"G#5","midi":80,"time":144.45963541666706,"velocity":0.7637795275590551,"duration":0.1744791666666572},{"name":"D#5","midi":75,"time":144.45963541666706,"velocity":0.7637795275590551,"duration":0.5273437499999716},{"name":"C#3","midi":49,"time":144.45963541666706,"velocity":0.7637795275590551,"duration":0.7057291666666288},{"name":"G5","midi":79,"time":144.63671875000037,"velocity":0.7637795275590551,"duration":0.1744791666666572},{"name":"F5","midi":77,"time":144.81380208333368,"velocity":0.7637795275590551,"duration":0.17447916666668561},{"name":"D#5","midi":75,"time":144.99088541666703,"velocity":0.7637795275590551,"duration":0.3502604166666572},{"name":"G#5","midi":80,"time":145.16927083333368,"velocity":0.7637795275590551,"duration":1.4153645833332575},{"name":"C3","midi":48,"time":145.16927083333368,"velocity":0.7637795275590551,"duration":0.7057291666666288},{"name":"D#5","midi":75,"time":145.34635416666703,"velocity":0.7637795275590551,"duration":0.1744791666666572},{"name":"F5","midi":77,"time":145.52343750000034,"velocity":0.7637795275590551,"duration":0.1744791666666572},{"name":"F#5","midi":78,"time":145.70052083333366,"velocity":0.7637795275590551,"duration":0.1744791666666572},{"name":"F5","midi":77,"time":145.87760416666697,"velocity":0.7637795275590551,"duration":0.1744791666666572},{"name":"C#3","midi":49,"time":145.87760416666697,"velocity":0.7637795275590551,"duration":0.7057291666666288},{"name":"D#5","midi":75,"time":146.05598958333363,"velocity":0.7637795275590551,"duration":0.1744791666666572},{"name":"C#5","midi":73,"time":146.23307291666694,"velocity":0.7637795275590551,"duration":0.1744791666666572},{"name":"C5","midi":72,"time":146.41015625000026,"velocity":0.7637795275590551,"duration":0.17447916666668561},{"name":"G5","midi":79,"time":146.5872395833336,"velocity":0.7637795275590551,"duration":0.7057291666666572},{"name":"A#4","midi":70,"time":146.5872395833336,"velocity":0.7637795275590551,"duration":0.7005208333333144},{"name":"D#3","midi":51,"time":146.5872395833336,"velocity":0.7637795275590551,"duration":0.7057291666666572},{"name":"A#3","midi":58,"time":146.7630208333336,"velocity":0.7637795275590551,"duration":0.1744791666666572},{"name":"C4","midi":60,"time":146.94140625000026,"velocity":0.7637795275590551,"duration":0.1744791666666572},{"name":"C#4","midi":61,"time":147.11848958333357,"velocity":0.7637795275590551,"duration":0.17447916666668561},{"name":"G#5","midi":80,"time":147.2955729166669,"velocity":0.7637795275590551,"duration":0.3515625},{"name":"C4","midi":60,"time":147.2955729166669,"velocity":0.7637795275590551,"duration":0.7005208333333144},{"name":"G#3","midi":56,"time":147.2955729166669,"velocity":0.7637795275590551,"duration":0.7057291666666572},{"name":"A#4","midi":70,"time":147.47265625000026,"velocity":0.7637795275590551,"duration":0.1744791666666572},{"name":"D#5","midi":75,"time":147.64973958333357,"velocity":0.7637795275590551,"duration":0.3515625},{"name":"C5","midi":72,"time":147.64973958333357,"velocity":0.7637795275590551,"duration":0.1744791666666572},{"name":"C#5","midi":73,"time":147.82812500000023,"velocity":0.7637795275590551,"duration":0.17447916666668561},{"name":"G#5","midi":80,"time":148.00520833333357,"velocity":0.7637795275590551,"duration":1.415364583333286},{"name":"C5","midi":72,"time":148.00520833333357,"velocity":0.7637795275590551,"duration":0.1744791666666572},{"name":"F3","midi":53,"time":148.00520833333357,"velocity":0.7637795275590551,"duration":0.7057291666666288},{"name":"A#4","midi":70,"time":148.18229166666688,"velocity":0.7637795275590551,"duration":0.1744791666666572},{"name":"G#4","midi":68,"time":148.3593750000002,"velocity":0.7637795275590551,"duration":0.1744791666666572},{"name":"G4","midi":67,"time":148.53776041666686,"velocity":0.7637795275590551,"duration":0.17447916666668561},{"name":"F4","midi":65,"time":148.7148437500002,"velocity":0.7637795275590551,"duration":0.3515625},{"name":"A#3","midi":58,"time":148.7148437500002,"velocity":0.7637795275590551,"duration":0.7005208333333144},{"name":"D4","midi":62,"time":148.89192708333354,"velocity":0.7637795275590551,"duration":0.1744791666666572},{"name":"G4","midi":67,"time":149.06901041666686,"velocity":0.7637795275590551,"duration":0.1744791666666572},{"name":"D#4","midi":63,"time":149.06901041666686,"velocity":0.7637795275590551,"duration":0.1744791666666572},{"name":"G#4","midi":68,"time":149.24609375000017,"velocity":0.7637795275590551,"duration":0.17447916666668561},{"name":"F4","midi":65,"time":149.24609375000017,"velocity":0.7637795275590551,"duration":0.17447916666668561},{"name":"G5","midi":79,"time":149.42447916666686,"velocity":0.7637795275590551,"duration":0.7057291666666288},{"name":"A#4","midi":70,"time":149.42447916666686,"velocity":0.7637795275590551,"duration":0.1744791666666572},{"name":"D#4","midi":63,"time":149.42447916666686,"velocity":0.7637795275590551,"duration":0.700520833333286},{"name":"G#4","midi":68,"time":149.60156250000017,"velocity":0.7637795275590551,"duration":0.1744791666666572},{"name":"G4","midi":67,"time":149.77864583333348,"velocity":0.7637795275590551,"duration":0.1744791666666572},{"name":"F4","midi":65,"time":149.9557291666668,"velocity":0.7637795275590551,"duration":0.17447916666668561},{"name":"C6","midi":84,"time":150.13281250000014,"velocity":0.7637795275590551,"duration":1.4153645833332575},{"name":"D#4","midi":63,"time":150.13281250000014,"velocity":0.7637795275590551,"duration":0.3515625},{"name":"C4","midi":60,"time":150.3111979166668,"velocity":0.7637795275590551,"duration":0.17447916666668561},{"name":"F4","midi":65,"time":150.48828125000014,"velocity":0.7637795275590551,"duration":0.1744791666666572},{"name":"C#4","midi":61,"time":150.48828125000014,"velocity":0.7637795275590551,"duration":0.1744791666666572},{"name":"G4","midi":67,"time":150.66536458333346,"velocity":0.7637795275590551,"duration":0.1744791666666572},{"name":"D#4","midi":63,"time":150.66536458333346,"velocity":0.7637795275590551,"duration":0.1744791666666572},{"name":"G#4","midi":68,"time":150.84244791666677,"velocity":0.7637795275590551,"duration":0.3515624999999716},{"name":"C#4","midi":61,"time":150.84244791666677,"velocity":0.7637795275590551,"duration":0.1744791666666572},{"name":"C4","midi":60,"time":151.01953125000009,"velocity":0.7637795275590551,"duration":0.1744791666666572},{"name":"G#4","midi":68,"time":151.19791666666674,"velocity":0.7637795275590551,"duration":0.3515625},{"name":"A#3","midi":58,"time":151.19791666666674,"velocity":0.7637795275590551,"duration":0.1744791666666572},{"name":"G#3","midi":56,"time":151.37500000000006,"velocity":0.7637795275590551,"duration":0.17447916666668561},{"name":"A#5","midi":82,"time":151.5520833333334,"velocity":0.7637795275590551,"duration":0.8828124999999432},{"name":"G#4","midi":68,"time":151.5520833333334,"velocity":0.7637795275590551,"duration":0.1744791666666572},{"name":"D#4","midi":63,"time":151.5520833333334,"velocity":0.7637795275590551,"duration":1.4153645833332291},{"name":"G4","midi":67,"time":151.7291666666667,"velocity":0.7637795275590551,"duration":0.1744791666666572},{"name":"G#4","midi":68,"time":151.9049479166667,"velocity":0.7637795275590551,"duration":0.1744791666666572},{"name":"A#4","midi":70,"time":152.08333333333337,"velocity":0.7637795275590551,"duration":0.1744791666666572},{"name":"C5","midi":72,"time":152.26041666666669,"velocity":0.7637795275590551,"duration":1.4153645833332291},{"name":"A#5","midi":82,"time":152.4375,"velocity":0.7637795275590551,"duration":0.1744791666666572},{"name":"G#5","midi":80,"time":152.61458333333331,"velocity":0.7637795275590551,"duration":0.1744791666666572},{"name":"G5","midi":79,"time":152.79296874999997,"velocity":0.7637795275590551,"duration":0.1744791666666572},{"name":"F5","midi":77,"time":152.9700520833333,"velocity":0.7637795275590551,"duration":0.3515625},{"name":"D4","midi":62,"time":152.9700520833333,"velocity":0.7637795275590551,"duration":1.4153645833332575},{"name":"G5","midi":79,"time":153.32421874999994,"velocity":0.7637795275590551,"duration":0.1744791666666572},{"name":"G#5","midi":80,"time":153.50130208333326,"velocity":0.7637795275590551,"duration":0.1744791666666572},{"name":"G5","midi":79,"time":153.67968749999991,"velocity":0.7637795275590551,"duration":0.1744791666666572},{"name":"A#4","midi":70,"time":153.67968749999991,"velocity":0.7637795275590551,"duration":0.700520833333286},{"name":"F5","midi":77,"time":153.85677083333323,"velocity":0.7637795275590551,"duration":0.1744791666666572},{"name":"D#5","midi":75,"time":154.03385416666654,"velocity":0.7637795275590551,"duration":0.1744791666666572},{"name":"D5","midi":74,"time":154.21093749999986,"velocity":0.7637795275590551,"duration":0.17447916666668561},{"name":"D#5","midi":75,"time":154.3880208333332,"velocity":0.7637795275590551,"duration":1.4283854166666288},{"name":"C4","midi":60,"time":154.56901041666654,"velocity":0.7637795275590551,"duration":0.17578125},{"name":"F5","midi":77,"time":154.7473958333332,"velocity":0.7637795275590551,"duration":0.17578125},{"name":"C#4","midi":61,"time":154.7473958333332,"velocity":0.7637795275590551,"duration":0.17578125},{"name":"G5","midi":79,"time":154.9270833333332,"velocity":0.7637795275590551,"duration":0.17578125},{"name":"D#4","midi":63,"time":154.9270833333332,"velocity":0.7637795275590551,"duration":0.17578125},{"name":"G#5","midi":80,"time":155.10546874999986,"velocity":0.7637795275590551,"duration":0.3541666666666572},{"name":"C#4","midi":61,"time":155.10546874999986,"velocity":0.7637795275590551,"duration":0.17578125},{"name":"C4","midi":60,"time":155.28385416666652,"velocity":0.7637795275590551,"duration":0.17578125},{"name":"G#5","midi":80,"time":155.46354166666652,"velocity":0.7637795275590551,"duration":0.5325520833333144},{"name":"A#3","midi":58,"time":155.46354166666652,"velocity":0.7637795275590551,"duration":0.17578125},{"name":"G#3","midi":56,"time":155.64192708333317,"velocity":0.7637795275590551,"duration":0.17578125},{"name":"D5","midi":74,"time":155.82031249999983,"velocity":0.7637795275590551,"duration":0.7122395833333144},{"name":"A#3","midi":58,"time":155.82031249999983,"velocity":0.7637795275590551,"duration":1.427083333333286},{"name":"A#2","midi":46,"time":155.82031249999983,"velocity":0.7637795275590551,"duration":0.7122395833333144},{"name":"G5","midi":79,"time":155.99999999999983,"velocity":0.7637795275590551,"duration":0.17578125},{"name":"G#5","midi":80,"time":156.1783854166665,"velocity":0.7637795275590551,"duration":0.17578125},{"name":"A#5","midi":82,"time":156.35677083333314,"velocity":0.7637795275590551,"duration":0.17578125},{"name":"G#5","midi":80,"time":156.53645833333314,"velocity":0.7637795275590551,"duration":0.17578125},{"name":"D#5","midi":75,"time":156.53645833333314,"velocity":0.7637795275590551,"duration":0.5312499999999716},{"name":"D#3","midi":51,"time":156.53645833333314,"velocity":0.7637795275590551,"duration":1.430989583333286},{"name":"G5","midi":79,"time":156.7148437499998,"velocity":0.7637795275590551,"duration":0.17578125},{"name":"F5","midi":77,"time":156.89322916666646,"velocity":0.7637795275590551,"duration":0.17578125},{"name":"D#5","midi":75,"time":157.07291666666646,"velocity":0.7637795275590551,"duration":0.17578125},{"name":"F5","midi":77,"time":157.25130208333312,"velocity":0.7637795275590551,"duration":0.35546875},{"name":"C5","midi":72,"time":157.25130208333312,"velocity":0.7637795275590551,"duration":0.7083333333333144},{"name":"G#3","midi":56,"time":157.25130208333312,"velocity":0.7637795275590551,"duration":0.7083333333333144},{"name":"G5","midi":79,"time":157.61067708333312,"velocity":0.7637795275590551,"duration":0.17578125},{"name":"G#5","midi":80,"time":157.78906249999977,"velocity":0.7637795275590551,"duration":0.17708333333331439},{"name":"A#5","midi":82,"time":157.9700520833331,"velocity":0.7637795275590551,"duration":0.17578125},{"name":"D3","midi":50,"time":157.9700520833331,"velocity":0.7637795275590551,"duration":0.7122395833333144},{"name":"G#5","midi":80,"time":158.14843749999974,"velocity":0.7637795275590551,"duration":0.17578125},{"name":"F3","midi":53,"time":158.14843749999974,"velocity":0.7637795275590551,"duration":0.17578125},{"name":"G5","midi":79,"time":158.3268229166664,"velocity":0.7637795275590551,"duration":0.17578125},{"name":"G3","midi":55,"time":158.3268229166664,"velocity":0.7637795275590551,"duration":0.17578125},{"name":"F5","midi":77,"time":158.5065104166664,"velocity":0.7637795275590551,"duration":0.17578125},{"name":"G#3","midi":56,"time":158.5065104166664,"velocity":0.7637795275590551,"duration":0.17578125},{"name":"D#5","midi":75,"time":158.68489583333306,"velocity":0.7637795275590551,"duration":0.17578125},{"name":"A#3","midi":58,"time":158.68489583333306,"velocity":0.7637795275590551,"duration":0.7070312499999716},{"name":"G3","midi":55,"time":158.68489583333306,"velocity":0.7637795275590551,"duration":1.7903645833332575},{"name":"D5","midi":74,"time":158.86328124999972,"velocity":0.7637795275590551,"duration":0.17578125},{"name":"C5","midi":72,"time":159.04296874999972,"velocity":0.7637795275590551,"duration":0.17578125},{"name":"A#4","midi":70,"time":159.22135416666637,"velocity":0.7637795275590551,"duration":0.17708333333331439},{"name":"D#5","midi":75,"time":159.40104166666634,"velocity":0.7637795275590551,"duration":0.35546875},{"name":"G4","midi":67,"time":159.5820312499997,"velocity":0.7637795275590551,"duration":0.17578125},{"name":"A#3","midi":58,"time":159.5820312499997,"velocity":0.7637795275590551,"duration":0.17578125},{"name":"D#5","midi":75,"time":159.76041666666634,"velocity":0.7637795275590551,"duration":0.3541666666666572},{"name":"G#4","midi":68,"time":159.76041666666634,"velocity":0.7637795275590551,"duration":0.17578125},{"name":"C4","midi":60,"time":159.76041666666634,"velocity":0.7637795275590551,"duration":0.17578125},{"name":"A#4","midi":70,"time":159.94010416666634,"velocity":0.7637795275590551,"duration":0.17578125},{"name":"C#4","midi":61,"time":159.94010416666634,"velocity":0.7637795275590551,"duration":0.17578125},{"name":"D#5","midi":75,"time":160.118489583333,"velocity":0.7637795275590551,"duration":0.8906249999999716},{"name":"G#4","midi":68,"time":160.118489583333,"velocity":0.7637795275590551,"duration":0.17578125},{"name":"C4","midi":60,"time":160.118489583333,"velocity":0.7637795275590551,"duration":0.17578125},{"name":"G4","midi":67,"time":160.29687499999966,"velocity":0.7637795275590551,"duration":0.17578125},{"name":"A#3","midi":58,"time":160.29687499999966,"velocity":0.7637795275590551,"duration":0.17578125},{"name":"F4","midi":65,"time":160.47656249999966,"velocity":0.7637795275590551,"duration":0.17578125},{"name":"G#3","midi":56,"time":160.47656249999966,"velocity":0.7637795275590551,"duration":0.17578125},{"name":"D#4","midi":63,"time":160.65494791666632,"velocity":0.7637795275590551,"duration":0.17578125},{"name":"G3","midi":55,"time":160.65494791666632,"velocity":0.7637795275590551,"duration":0.17578125},{"name":"F4","midi":65,"time":160.83333333333297,"velocity":0.7637795275590551,"duration":0.8906249999999716},{"name":"G#3","midi":56,"time":160.83333333333297,"velocity":0.7637795275590551,"duration":1.0690104166666288},{"name":"D5","midi":74,"time":161.01302083333297,"velocity":0.7637795275590551,"duration":0.17578125},{"name":"G3","midi":55,"time":161.01302083333297,"velocity":0.7637795275590551,"duration":0.17578125},{"name":"D#5","midi":75,"time":161.19140624999963,"velocity":0.7637795275590551,"duration":0.17578125},{"name":"F3","midi":53,"time":161.19140624999963,"velocity":0.7637795275590551,"duration":0.17578125},{"name":"F5","midi":77,"time":161.3697916666663,"velocity":0.7637795275590551,"duration":0.17578125},{"name":"D#3","midi":51,"time":161.3697916666663,"velocity":0.7637795275590551,"duration":0.17578125},{"name":"A#4","midi":70,"time":161.5494791666663,"velocity":0.7637795275590551,"duration":2.1419270833332575},{"name":"D3","midi":50,"time":161.5494791666663,"velocity":0.7637795275590551,"duration":0.3541666666666572},{"name":"F4","midi":65,"time":161.72786458333294,"velocity":0.7637795275590551,"duration":0.17578125},{"name":"G4","midi":67,"time":161.9062499999996,"velocity":0.7637795275590551,"duration":0.17578125},{"name":"G3","midi":55,"time":161.9062499999996,"velocity":0.7637795275590551,"duration":0.17578125},{"name":"D#3","midi":51,"time":161.9062499999996,"velocity":0.7637795275590551,"duration":0.17578125},{"name":"G#4","midi":68,"time":162.0859374999996,"velocity":0.7637795275590551,"duration":0.17578125},{"name":"F3","midi":53,"time":162.0859374999996,"velocity":0.7637795275590551,"duration":0.17578125},{"name":"G4","midi":67,"time":162.26432291666626,"velocity":0.7637795275590551,"duration":0.17578125},{"name":"G3","midi":55,"time":162.26432291666626,"velocity":0.7637795275590551,"duration":0.8906249999999716},{"name":"D#3","midi":51,"time":162.26432291666626,"velocity":0.7637795275590551,"duration":0.17578125},{"name":"F4","midi":65,"time":162.44270833333292,"velocity":0.7637795275590551,"duration":0.17578125},{"name":"D3","midi":50,"time":162.44270833333292,"velocity":0.7637795275590551,"duration":0.17578125},{"name":"D#4","midi":63,"time":162.62239583333292,"velocity":0.7637795275590551,"duration":0.17578125},{"name":"C3","midi":48,"time":162.62239583333292,"velocity":0.7637795275590551,"duration":0.17578125},{"name":"C#4","midi":61,"time":162.80078124999957,"velocity":0.7637795275590551,"duration":0.17578125},{"name":"A#2","midi":46,"time":162.80078124999957,"velocity":0.7637795275590551,"duration":0.17578125},{"name":"C4","midi":60,"time":162.97916666666623,"velocity":0.7637795275590551,"duration":0.7122395833333144},{"name":"G#2","midi":44,"time":162.97916666666623,"velocity":0.7637795275590551,"duration":1.427083333333286},{"name":"D#3","midi":51,"time":163.15885416666623,"velocity":0.7637795275590551,"duration":0.17578125},{"name":"F3","midi":53,"time":163.3372395833329,"velocity":0.7637795275590551,"duration":0.17578125},{"name":"G3","midi":55,"time":163.51562499999955,"velocity":0.7637795275590551,"duration":0.17578125},{"name":"G#4","midi":68,"time":163.69531249999955,"velocity":0.7637795275590551,"duration":1.427083333333286},{"name":"F4","midi":65,"time":163.69531249999955,"velocity":0.7637795275590551,"duration":1.427083333333286},{"name":"F3","midi":53,"time":163.69531249999955,"velocity":0.7637795275590551,"duration":0.17578125},{"name":"D#3","midi":51,"time":163.8736979166662,"velocity":0.7637795275590551,"duration":0.17578125},{"name":"D3","midi":50,"time":164.05208333333286,"velocity":0.7637795275590551,"duration":0.17578125},{"name":"C3","midi":48,"time":164.23177083333286,"velocity":0.7637795275590551,"duration":0.17578125},{"name":"A#2","midi":46,"time":164.41015624999952,"velocity":0.7637795275590551,"duration":0.17578125},{"name":"D2","midi":38,"time":164.41015624999952,"velocity":0.7637795275590551,"duration":0.17578125},{"name":"G#3","midi":56,"time":164.58854166666617,"velocity":0.7637795275590551,"duration":0.17578125},{"name":"A#3","midi":58,"time":164.76822916666617,"velocity":0.7637795275590551,"duration":0.17578125},{"name":"C4","midi":60,"time":164.94661458333283,"velocity":0.7637795275590551,"duration":0.17578125},{"name":"G4","midi":67,"time":165.1249999999995,"velocity":0.7637795275590551,"duration":0.7135416666666572},{"name":"D#4","midi":63,"time":165.1249999999995,"velocity":0.7637795275590551,"duration":0.7135416666666572},{"name":"A#3","midi":58,"time":165.1249999999995,"velocity":0.7637795275590551,"duration":0.17578125},{"name":"D#3","midi":51,"time":165.1249999999995,"velocity":0.7637795275590551,"duration":0.70703125},{"name":"G#3","midi":56,"time":165.3046874999995,"velocity":0.7637795275590551,"duration":0.17578125},{"name":"G3","midi":55,"time":165.48307291666615,"velocity":0.7637795275590551,"duration":0.17578125},{"name":"F3","midi":53,"time":165.66276041666615,"velocity":0.7637795275590551,"duration":0.1770833333333428},{"name":"C5","midi":72,"time":165.84244791666615,"velocity":0.7637795275590551,"duration":1.430989583333286},{"name":"G#4","midi":68,"time":165.84244791666615,"velocity":0.7637795275590551,"duration":2.1380208333332575},{"name":"D#3","midi":51,"time":165.84244791666615,"velocity":0.7637795275590551,"duration":0.5221354166666572},{"name":"C3","midi":48,"time":166.02213541666615,"velocity":0.7637795275590551,"duration":0.17578125},{"name":"C#3","midi":49,"time":166.20182291666615,"velocity":0.7637795275590551,"duration":0.17708333333331439},{"name":"D#3","midi":51,"time":166.38151041666612,"velocity":0.7637795275590551,"duration":0.17578125},{"name":"C#3","midi":49,"time":166.56119791666612,"velocity":0.7637795275590551,"duration":0.17578125},{"name":"C3","midi":48,"time":166.73958333333277,"velocity":0.7637795275590551,"duration":0.17578125},{"name":"A#2","midi":46,"time":166.91796874999943,"velocity":0.7637795275590551,"duration":0.17578125},{"name":"G#2","midi":44,"time":167.09765624999943,"velocity":0.7637795275590551,"duration":0.17578125},{"name":"A#4","midi":70,"time":167.2760416666661,"velocity":0.7637795275590551,"duration":0.7122395833333144},{"name":"D#3","midi":51,"time":167.2760416666661,"velocity":0.7637795275590551,"duration":0.17578125},{"name":"D3","midi":50,"time":167.45442708333275,"velocity":0.7637795275590551,"duration":0.17578125},{"name":"C3","midi":48,"time":167.63411458333275,"velocity":0.7637795275590551,"duration":0.17578125},{"name":"A#2","midi":46,"time":167.8124999999994,"velocity":0.7637795275590551,"duration":0.17578125},{"name":"D#5","midi":75,"time":167.99088541666606,"velocity":0.7637795275590551,"duration":0.7070312499999716},{"name":"G4","midi":67,"time":167.99088541666606,"velocity":0.7637795275590551,"duration":0.7135416666666288},{"name":"G#3","midi":56,"time":167.99088541666606,"velocity":0.7637795275590551,"duration":0.17578125},{"name":"G3","midi":55,"time":168.17057291666606,"velocity":0.7637795275590551,"duration":0.17578125},{"name":"F3","midi":53,"time":168.34895833333272,"velocity":0.7637795275590551,"duration":0.17578125},{"name":"D#3","midi":51,"time":168.52734374999937,"velocity":0.7637795275590551,"duration":0.17708333333331439},{"name":"F4","midi":65,"time":168.7083333333327,"velocity":0.7637795275590551,"duration":0.7252604166666572},{"name":"A#3","midi":58,"time":168.7083333333327,"velocity":0.7637795275590551,"duration":2.897135416666657},{"name":"D#5","midi":75,"time":168.7083333333327,"velocity":0.7637795275590551,"duration":0.71875},{"name":"C4","midi":60,"time":168.88932291666603,"velocity":0.7637795275590551,"duration":0.1796875},{"name":"D4","midi":62,"time":169.0716145833327,"velocity":0.7637795275590551,"duration":0.1796875},{"name":"D#4","midi":63,"time":169.2552083333327,"velocity":0.7637795275590551,"duration":0.1796875},{"name":"D5","midi":74,"time":169.43619791666603,"velocity":0.7637795275590551,"duration":0.7252604166666572},{"name":"A#4","midi":70,"time":169.43619791666603,"velocity":0.7637795275590551,"duration":1.4518229166666572},{"name":"F4","midi":65,"time":169.43619791666603,"velocity":0.7637795275590551,"duration":0.1796875},{"name":"G#4","midi":68,"time":169.6184895833327,"velocity":0.7637795275590551,"duration":0.1796875},{"name":"G4","midi":67,"time":169.79947916666603,"velocity":0.7637795275590551,"duration":0.1796875},{"name":"F4","midi":65,"time":169.9817708333327,"velocity":0.7637795275590551,"duration":0.1796875},{"name":"F#5","midi":78,"time":170.16406249999935,"velocity":0.7637795275590551,"duration":1.4518229166666572},{"name":"D#4","midi":63,"time":170.16406249999935,"velocity":0.7637795275590551,"duration":0.1796875},{"name":"F4","midi":65,"time":170.3450520833327,"velocity":0.7637795275590551,"duration":0.1796875},{"name":"D#4","midi":63,"time":170.52734374999935,"velocity":0.7637795275590551,"duration":0.1796875},{"name":"D4","midi":62,"time":170.7083333333327,"velocity":0.7637795275590551,"duration":0.1796875},{"name":"A4","midi":69,"time":170.89062499999935,"velocity":0.7637795275590551,"duration":0.7252604166666572},{"name":"C4","midi":60,"time":170.89062499999935,"velocity":0.7637795275590551,"duration":0.1796875},{"name":"D#4","midi":63,"time":171.072916666666,"velocity":0.7637795275590551,"duration":0.1796875},{"name":"D4","midi":62,"time":171.25390624999935,"velocity":0.7637795275590551,"duration":0.1796875},{"name":"C4","midi":60,"time":171.436197916666,"velocity":0.7637795275590551,"duration":0.1796875},{"name":"F5","midi":77,"time":171.61718749999935,"velocity":0.7637795275590551,"duration":0.73046875},{"name":"D5","midi":74,"time":171.61718749999935,"velocity":0.7637795275590551,"duration":0.73046875},{"name":"G#4","midi":68,"time":171.61718749999935,"velocity":0.7637795275590551,"duration":0.73046875},{"name":"A#3","midi":58,"time":171.61718749999935,"velocity":0.7637795275590551,"duration":0.1809895833333428},{"name":"F3","midi":53,"time":171.8020833333327,"velocity":0.7637795275590551,"duration":0.1809895833333428},{"name":"D#3","midi":51,"time":171.9856770833327,"velocity":0.7637795275590551,"duration":0.1809895833333428},{"name":"D3","midi":50,"time":172.1692708333327,"velocity":0.7637795275590551,"duration":0.18098958333331439},{"name":"D#5","midi":75,"time":172.35156249999935,"velocity":0.7637795275590551,"duration":1.4661458333333428},{"name":"A#4","midi":70,"time":172.35156249999935,"velocity":0.7637795275590551,"duration":0.73046875},{"name":"G4","midi":67,"time":172.35156249999935,"velocity":0.7637795275590551,"duration":0.73046875},{"name":"D#3","midi":51,"time":172.35156249999935,"velocity":0.7637795275590551,"duration":0.1809895833333428},{"name":"F3","midi":53,"time":172.53515624999935,"velocity":0.7637795275590551,"duration":0.1809895833333428},{"name":"G3","midi":55,"time":172.71874999999935,"velocity":0.7637795275590551,"duration":0.1809895833333428},{"name":"G#3","midi":56,"time":172.90234374999935,"velocity":0.7637795275590551,"duration":0.1809895833333428},{"name":"F4","midi":65,"time":173.08463541666603,"velocity":0.7637795275590551,"duration":1.1015625},{"name":"A#4","midi":70,"time":173.08463541666603,"velocity":0.7637795275590551,"duration":1.1015625},{"name":"A#2","midi":46,"time":173.08463541666603,"velocity":0.7637795275590551,"duration":1.4700520833333428},{"name":"D5","midi":74,"time":173.8216145833327,"velocity":0.7637795275590551,"duration":0.7343750000000284},{"name":"G#4","midi":68,"time":174.19010416666603,"velocity":0.7637795275590551,"duration":0.3658854166666856},{"name":"D#5","midi":75,"time":174.55859374999937,"velocity":0.7637795275590551,"duration":1.4882812499999432},{"name":"G4","midi":67,"time":174.55859374999937,"velocity":0.7637795275590551,"duration":0.18359375},{"name":"D#3","midi":51,"time":174.55859374999937,"velocity":0.7637795275590551,"duration":1.4882812499999432},{"name":"A#4","midi":70,"time":174.74479166666603,"velocity":0.7637795275590551,"duration":0.18359375},{"name":"C5","midi":72,"time":174.93229166666603,"velocity":0.7637795275590551,"duration":0.18359375},{"name":"C#5","midi":73,"time":175.1184895833327,"velocity":0.7637795275590551,"duration":0.18359375},{"name":"C5","midi":72,"time":175.30468749999935,"velocity":0.7637795275590551,"duration":0.18359375},{"name":"G#3","midi":56,"time":175.30468749999935,"velocity":0.7637795275590551,"duration":1.4882812499999716},{"name":"A#4","midi":70,"time":175.490885416666,"velocity":0.7637795275590551,"duration":0.18359375},{"name":"G#4","midi":68,"time":175.67708333333266,"velocity":0.7637795275590551,"duration":0.18359375},{"name":"G4","midi":67,"time":175.86328124999932,"velocity":0.7637795275590551,"duration":0.18359375},{"name":"D5","midi":74,"time":176.05078124999932,"velocity":0.7637795275590551,"duration":0.7421875},{"name":"F4","midi":65,"time":176.05078124999932,"velocity":0.7637795275590551,"duration":0.3697916666666572},{"name":"D#3","midi":51,"time":176.05078124999932,"velocity":0.7637795275590551,"duration":2.26953125},{"name":"G4","midi":67,"time":176.42317708333263,"velocity":0.7637795275590551,"duration":0.18359375},{"name":"G#4","midi":68,"time":176.60807291666598,"velocity":0.7637795275590551,"duration":0.18359375},{"name":"C#5","midi":73,"time":176.79427083333266,"velocity":0.7637795275590551,"duration":0.9388020833333144},{"name":"A#4","midi":70,"time":176.79427083333266,"velocity":0.7637795275590551,"duration":0.18359375},{"name":"G3","midi":55,"time":176.79427083333266,"velocity":0.7637795275590551,"duration":0.7421874999999716},{"name":"G#4","midi":68,"time":176.98046874999932,"velocity":0.7637795275590551,"duration":0.18359375},{"name":"G4","midi":67,"time":177.16796874999932,"velocity":0.7637795275590551,"duration":0.18359375},{"name":"F4","midi":65,"time":177.35416666666598,"velocity":0.7637795275590551,"duration":0.18359375},{"name":"D#4","midi":63,"time":177.54036458333263,"velocity":0.7637795275590551,"duration":0.7786458333333428},{"name":"C4","midi":60,"time":177.54036458333263,"velocity":0.7637795275590551,"duration":1.5611979166666856},{"name":"A#4","midi":70,"time":177.73567708333263,"velocity":0.7637795275590551,"duration":0.1927083333333428},{"name":"C5","midi":72,"time":177.93229166666598,"velocity":0.7637795275590551,"duration":0.1927083333333428},{"name":"C#5","midi":73,"time":178.12760416666598,"velocity":0.7637795275590551,"duration":0.1927083333333428},{"name":"C5","midi":72,"time":178.32291666666598,"velocity":0.7637795275590551,"duration":0.1927083333333428},{"name":"G#4","midi":68,"time":178.32291666666598,"velocity":0.7637795275590551,"duration":0.5833333333333428},{"name":"D#3","midi":51,"time":178.32291666666598,"velocity":0.7637795275590551,"duration":5.903645833333314},{"name":"A#4","midi":70,"time":178.51822916666598,"velocity":0.7637795275590551,"duration":0.1927083333333428},{"name":"C5","midi":72,"time":178.71354166666598,"velocity":0.7637795275590551,"duration":0.1927083333333428},{"name":"G#4","midi":68,"time":178.91015624999932,"velocity":0.7637795275590551,"duration":0.4049479166666572},{"name":"D5","midi":74,"time":179.10546874999932,"velocity":0.7637795275590551,"duration":1.7083333333333144},{"name":"B3","midi":59,"time":179.10546874999932,"velocity":0.7637795275590551,"duration":1.7083333333333144},{"name":"G#4","midi":68,"time":179.32031249999932,"velocity":0.7637795275590551,"duration":0.2109375},{"name":"A#4","midi":70,"time":179.53255208333266,"velocity":0.7637795275590551,"duration":0.2109375},{"name":"B4","midi":71,"time":179.74739583333266,"velocity":0.7637795275590551,"duration":0.2109375},{"name":"A#4","midi":70,"time":179.96093749999932,"velocity":0.7637795275590551,"duration":0.2109375},{"name":"G#4","midi":68,"time":180.17447916666598,"velocity":0.7637795275590551,"duration":0.2109375},{"name":"G4","midi":67,"time":180.38932291666598,"velocity":0.7637795275590551,"duration":0.140625},{"name":"G#4","midi":68,"time":180.53645833333263,"velocity":0.7637795275590551,"duration":0.140625},{"name":"F4","midi":65,"time":180.6835937499993,"velocity":0.7637795275590551,"duration":0.140625},{"name":"A#3","midi":58,"time":180.83723958333263,"velocity":0.7637795275590551,"duration":3.39453125},{"name":"G4","midi":67,"time":180.83723958333263,"velocity":0.7637795275590551,"duration":3.434895833333343},{"name":"D#5","midi":75,"time":180.83723958333263,"velocity":0.7637795275590551,"duration":3.434895833333343},{"name":"A#4","midi":70,"time":185.13932291666598,"velocity":0.7637795275590551,"duration":0.2057291666666572},{"name":"G4","midi":67,"time":185.34895833333263,"velocity":0.7637795275590551,"duration":0.2057291666666572},{"name":"F4","midi":65,"time":185.55729166666595,"velocity":0.7637795275590551,"duration":0.2057291666666572},{"name":"G4","midi":67,"time":185.7669270833326,"velocity":0.7637795275590551,"duration":0.2057291666666572},{"name":"D#4","midi":63,"time":185.97656249999926,"velocity":0.7637795275590551,"duration":0.2057291666666572},{"name":"G#4","midi":68,"time":186.18489583333258,"velocity":0.7637795275590551,"duration":0.2057291666666572},{"name":"G4","midi":67,"time":186.39453124999923,"velocity":0.7637795275590551,"duration":0.2057291666666572},{"name":"G#4","midi":68,"time":186.6041666666659,"velocity":0.7637795275590551,"duration":0.2057291666666572},{"name":"C5","midi":72,"time":186.8124999999992,"velocity":0.7637795275590551,"duration":0.3802083333333428},{"name":"A#4","midi":70,"time":187.23177083333255,"velocity":0.7637795275590551,"duration":0.3802083333333428},{"name":"A4","midi":69,"time":188.0690104166659,"velocity":0.7637795275590551,"duration":0.2057291666666572},{"name":"F4","midi":65,"time":188.27864583333255,"velocity":0.7637795275590551,"duration":0.2057291666666572},{"name":"D#5","midi":75,"time":188.4882812499992,"velocity":0.7637795275590551,"duration":0.3802083333333428},{"name":"D5","midi":74,"time":188.9049479166659,"velocity":0.7637795275590551,"duration":0.3802083333333428},{"name":"D5","midi":74,"time":189.3229166666659,"velocity":0.7637795275590551,"duration":0.13671875},{"name":"C5","midi":72,"time":189.4635416666659,"velocity":0.7637795275590551,"duration":0.13671875},{"name":"D5","midi":74,"time":189.60286458333255,"velocity":0.7637795275590551,"duration":0.13671875},{"name":"C5","midi":72,"time":189.7421874999992,"velocity":0.7637795275590551,"duration":0.13671875},{"name":"A#4","midi":70,"time":189.88151041666586,"velocity":0.7637795275590551,"duration":0.13671875},{"name":"C5","midi":72,"time":190.02083333333252,"velocity":0.7637795275590551,"duration":0.13671875},{"name":"A#4","midi":70,"time":190.16015624999918,"velocity":0.7637795275590551,"duration":0.2057291666666572},{"name":"F5","midi":77,"time":190.36979166666583,"velocity":0.7637795275590551,"duration":0.2057291666666572},{"name":"D5","midi":74,"time":190.5794270833325,"velocity":0.7637795275590551,"duration":0.2057291666666572},{"name":"A#4","midi":70,"time":190.7877604166658,"velocity":0.7637795275590551,"duration":0.2057291666666572},{"name":"G#4","midi":68,"time":190.99739583333246,"velocity":0.7637795275590551,"duration":0.2057291666666572},{"name":"F5","midi":77,"time":191.20703124999912,"velocity":0.7637795275590551,"duration":0.2057291666666572},{"name":"D5","midi":74,"time":191.41536458333243,"velocity":0.7637795275590551,"duration":0.2057291666666572},{"name":"G#4","midi":68,"time":191.6249999999991,"velocity":0.7637795275590551,"duration":0.2057291666666572},{"name":"G4","midi":67,"time":191.83463541666575,"velocity":0.7637795275590551,"duration":0.4153645833333144},{"name":"D#4","midi":63,"time":191.83463541666575,"velocity":0.7637795275590551,"duration":0.2057291666666572},{"name":"D4","midi":62,"time":192.04296874999906,"velocity":0.7637795275590551,"duration":0.2057291666666572},{"name":"G#5","midi":80,"time":192.25260416666572,"velocity":0.7637795275590551,"duration":0.4153645833333144},{"name":"C4","midi":60,"time":192.25260416666572,"velocity":0.7637795275590551,"duration":0.2057291666666572},{"name":"D4","midi":62,"time":192.46093749999903,"velocity":0.7637795275590551,"duration":0.2057291666666572},{"name":"G5","midi":79,"time":192.66927083333238,"velocity":0.7637795275590551,"duration":0.4153645833333144},{"name":"A#3","midi":58,"time":192.66927083333238,"velocity":0.7637795275590551,"duration":0.2057291666666572},{"name":"D#4","midi":63,"time":192.87890624999903,"velocity":0.7637795275590551,"duration":0.2057291666666572},{"name":"F5","midi":77,"time":193.0885416666657,"velocity":0.7637795275590551,"duration":0.4153645833333144},{"name":"D4","midi":62,"time":193.0885416666657,"velocity":0.7637795275590551,"duration":0.2057291666666572},{"name":"D#4","midi":63,"time":193.296874999999,"velocity":0.7637795275590551,"duration":0.2057291666666572},{"name":"D#5","midi":75,"time":193.50651041666566,"velocity":0.7637795275590551,"duration":0.2057291666666572},{"name":"G4","midi":67,"time":193.50651041666566,"velocity":0.7637795275590551,"duration":0.3802083333333144},{"name":"C5","midi":72,"time":193.71614583333232,"velocity":0.7637795275590551,"duration":0.2057291666666572},{"name":"D5","midi":74,"time":193.92447916666563,"velocity":0.7637795275590551,"duration":0.2057291666666572},{"name":"F4","midi":65,"time":193.92447916666563,"velocity":0.7637795275590551,"duration":0.3802083333333144},{"name":"D#5","midi":75,"time":194.1341145833323,"velocity":0.7637795275590551,"duration":0.2057291666666572},{"name":"F5","midi":77,"time":194.34374999999895,"velocity":0.7637795275590551,"duration":1.0429687499999716},{"name":"D4","midi":62,"time":194.76171874999895,"velocity":0.7637795275590551,"duration":0.2057291666666572},{"name":"A#3","midi":58,"time":194.9713541666656,"velocity":0.7637795275590551,"duration":0.2057291666666572},{"name":"G#4","midi":68,"time":195.17968749999892,"velocity":0.7637795275590551,"duration":0.3802083333333144},{"name":"D#5","midi":75,"time":195.38932291666558,"velocity":0.7637795275590551,"duration":0.2057291666666572},{"name":"F5","midi":77,"time":195.59895833333223,"velocity":0.7637795275590551,"duration":0.2057291666666572},{"name":"G4","midi":67,"time":195.59895833333223,"velocity":0.7637795275590551,"duration":0.3802083333333144},{"name":"G5","midi":79,"time":195.8085937499989,"velocity":0.7637795275590551,"duration":0.2057291666666572},{"name":"G#5","midi":80,"time":196.0156249999989,"velocity":0.7637795275590551,"duration":0.2057291666666572},{"name":"G4","midi":67,"time":196.0156249999989,"velocity":0.7637795275590551,"duration":0.13671875},{"name":"F4","midi":65,"time":196.15494791666555,"velocity":0.7637795275590551,"duration":0.13671875},{"name":"F5","midi":77,"time":196.22526041666555,"velocity":0.7637795275590551,"duration":0.2057291666666572},{"name":"G4","midi":67,"time":196.2942708333322,"velocity":0.7637795275590551,"duration":0.13671875},{"name":"A#4","midi":70,"time":196.4348958333322,"velocity":0.7637795275590551,"duration":0.2057291666666572},{"name":"F4","midi":65,"time":196.4348958333322,"velocity":0.7637795275590551,"duration":0.13671875},{"name":"D#4","midi":63,"time":196.57421874999886,"velocity":0.7637795275590551,"duration":0.13671875},{"name":"G#5","midi":80,"time":196.64322916666552,"velocity":0.7637795275590551,"duration":0.2057291666666572},{"name":"F4","midi":65,"time":196.71354166666552,"velocity":0.7637795275590551,"duration":0.13671875},{"name":"G5","midi":79,"time":196.85286458333218,"velocity":0.7637795275590551,"duration":0.4153645833333144},{"name":"D#4","midi":63,"time":196.85286458333218,"velocity":0.7637795275590551,"duration":0.2057291666666572},{"name":"A#4","midi":70,"time":197.06249999999883,"velocity":0.7637795275590551,"duration":0.2057291666666572},{"name":"D#5","midi":75,"time":197.27083333333215,"velocity":0.7637795275590551,"duration":0.2057291666666572},{"name":"G4","midi":67,"time":197.27083333333215,"velocity":0.7637795275590551,"duration":0.2057291666666572},{"name":"G5","midi":79,"time":197.4804687499988,"velocity":0.7637795275590551,"duration":0.2057291666666572},{"name":"F4","midi":65,"time":197.4804687499988,"velocity":0.7637795275590551,"duration":0.2057291666666572},{"name":"C6","midi":84,"time":197.69010416666546,"velocity":0.7637795275590551,"duration":1.0442708333332575},{"name":"D#4","midi":63,"time":197.69010416666546,"velocity":0.7637795275590551,"duration":0.2057291666666572},{"name":"C5","midi":72,"time":197.89843749999878,"velocity":0.7637795275590551,"duration":0.2057291666666572},{"name":"A4","midi":69,"time":198.10807291666544,"velocity":0.7637795275590551,"duration":0.2057291666666572},{"name":"F4","midi":65,"time":198.3177083333321,"velocity":0.7637795275590551,"duration":0.2057291666666572},{"name":"D4","midi":62,"time":198.5260416666654,"velocity":0.7637795275590551,"duration":0.2057291666666572},{"name":"A4","midi":69,"time":198.73567708333206,"velocity":0.7637795275590551,"duration":0.2057291666666572},{"name":"D5","midi":74,"time":198.94531249999872,"velocity":0.7637795275590551,"duration":0.2057291666666572},{"name":"F4","midi":65,"time":198.94531249999872,"velocity":0.7637795275590551,"duration":0.2057291666666572},{"name":"F5","midi":77,"time":199.15364583333204,"velocity":0.7637795275590551,"duration":0.2057291666666572},{"name":"D#4","midi":63,"time":199.15364583333204,"velocity":0.7637795275590551,"duration":0.2057291666666572},{"name":"A#5","midi":82,"time":199.36197916666535,"velocity":0.7637795275590551,"duration":1.044270833333286},{"name":"C#4","midi":61,"time":199.36197916666535,"velocity":0.7637795275590551,"duration":0.2057291666666572},{"name":"A#4","midi":70,"time":199.571614583332,"velocity":0.7637795275590551,"duration":0.2057291666666572},{"name":"G4","midi":67,"time":199.77994791666532,"velocity":0.7637795275590551,"duration":0.2057291666666572},{"name":"C#4","midi":61,"time":199.98958333333198,"velocity":0.7637795275590551,"duration":0.2057291666666572},{"name":"C4","midi":60,"time":200.19921874999864,"velocity":0.7637795275590551,"duration":0.2057291666666572},{"name":"G4","midi":67,"time":200.40755208333198,"velocity":0.7637795275590551,"duration":0.2057291666666572},{"name":"C5","midi":72,"time":200.61718749999864,"velocity":0.7637795275590551,"duration":0.2057291666666572},{"name":"D#4","midi":63,"time":200.61718749999864,"velocity":0.7637795275590551,"duration":0.2057291666666572},{"name":"D#5","midi":75,"time":200.8268229166653,"velocity":0.7637795275590551,"duration":0.2057291666666572},{"name":"C4","midi":60,"time":200.8268229166653,"velocity":0.7637795275590551,"duration":0.2057291666666572},{"name":"G#5","midi":80,"time":201.0351562499986,"velocity":0.7637795275590551,"duration":0.4153645833333144},{"name":"D4","midi":62,"time":201.0351562499986,"velocity":0.7637795275590551,"duration":0.2057291666666572},{"name":"A#4","midi":70,"time":201.24479166666526,"velocity":0.7637795275590551,"duration":0.2057291666666572},{"name":"G5","midi":79,"time":201.45442708333192,"velocity":0.7637795275590551,"duration":0.4153645833333144},{"name":"D#4","midi":63,"time":201.45442708333192,"velocity":0.7637795275590551,"duration":0.2057291666666572},{"name":"C5","midi":72,"time":201.66406249999858,"velocity":0.7637795275590551,"duration":0.2057291666666572},{"name":"F5","midi":77,"time":201.8723958333319,"velocity":0.7637795275590551,"duration":0.833333333333286},{"name":"D5","midi":74,"time":201.8723958333319,"velocity":0.7637795275590551,"duration":0.4153645833333144},{"name":"A#3","midi":58,"time":201.8723958333319,"velocity":0.7637795275590551,"duration":0.2057291666666572},{"name":"G3","midi":55,"time":202.08203124999855,"velocity":0.7637795275590551,"duration":0.2057291666666572},{"name":"C#5","midi":73,"time":202.2916666666652,"velocity":0.7637795275590551,"duration":0.4153645833333144},{"name":"F3","midi":53,"time":202.2916666666652,"velocity":0.7637795275590551,"duration":0.2057291666666572},{"name":"G3","midi":55,"time":202.49999999999852,"velocity":0.7637795275590551,"duration":0.2057291666666572},{"name":"G5","midi":79,"time":202.70963541666518,"velocity":0.7637795275590551,"duration":0.4153645833333144},{"name":"C5","midi":72,"time":202.70963541666518,"velocity":0.7637795275590551,"duration":0.4153645833333144},{"name":"D#3","midi":51,"time":202.70963541666518,"velocity":0.7637795275590551,"duration":0.2057291666666572},{"name":"G#3","midi":56,"time":202.9179687499985,"velocity":0.7637795275590551,"duration":0.2057291666666572},{"name":"D5","midi":74,"time":203.12630208333184,"velocity":0.7637795275590551,"duration":0.4153645833333144},{"name":"A#4","midi":70,"time":203.12630208333184,"velocity":0.7637795275590551,"duration":0.4153645833333144},{"name":"G3","midi":55,"time":203.12630208333184,"velocity":0.7637795275590551,"duration":0.2057291666666572},{"name":"G#3","midi":56,"time":203.3359374999985,"velocity":0.7637795275590551,"duration":0.2057291666666572},{"name":"D#5","midi":75,"time":203.54557291666515,"velocity":0.7637795275590551,"duration":1.044270833333286},{"name":"G#4","midi":68,"time":203.54557291666515,"velocity":0.7637795275590551,"duration":0.2057291666666572},{"name":"C4","midi":60,"time":203.54557291666515,"velocity":0.7637795275590551,"duration":0.3802083333333144},{"name":"G4","midi":67,"time":203.75390624999847,"velocity":0.7637795275590551,"duration":0.2057291666666572},{"name":"G#4","midi":68,"time":203.96354166666512,"velocity":0.7637795275590551,"duration":0.2057291666666572},{"name":"A#3","midi":58,"time":203.96354166666512,"velocity":0.7637795275590551,"duration":0.3802083333333144},{"name":"A#4","midi":70,"time":204.17317708333178,"velocity":0.7637795275590551,"duration":0.2057291666666572},{"name":"C5","midi":72,"time":204.3815104166651,"velocity":0.7637795275590551,"duration":1.0429687499999716},{"name":"F5","midi":77,"time":204.80078124999844,"velocity":0.7637795275590551,"duration":0.4153645833333144},{"name":"A3","midi":57,"time":204.80078124999844,"velocity":0.7637795275590551,"duration":0.2057291666666572},{"name":"F3","midi":53,"time":205.00911458333175,"velocity":0.7637795275590551,"duration":0.2057291666666572},{"name":"G5","midi":79,"time":205.2187499999984,"velocity":0.7637795275590551,"duration":1.2526041666666288},{"name":"D#4","midi":63,"time":205.2187499999984,"velocity":0.7637795275590551,"duration":0.4153645833333144},{"name":"A#4","midi":70,"time":205.42838541666507,"velocity":0.7637795275590551,"duration":0.2057291666666572},{"name":"C5","midi":72,"time":205.63671874999838,"velocity":0.7637795275590551,"duration":0.2057291666666572},{"name":"D4","midi":62,"time":205.63671874999838,"velocity":0.7637795275590551,"duration":0.4153645833333144},{"name":"D5","midi":74,"time":205.84635416666504,"velocity":0.7637795275590551,"duration":0.2057291666666572},{"name":"D#5","midi":75,"time":206.0559895833317,"velocity":0.7637795275590551,"duration":0.2057291666666572},{"name":"D4","midi":62,"time":206.0559895833317,"velocity":0.7637795275590551,"duration":0.13671875},{"name":"C4","midi":60,"time":206.19531249999835,"velocity":0.7637795275590551,"duration":0.13671875},{"name":"C5","midi":72,"time":206.264322916665,"velocity":0.7637795275590551,"duration":0.20572916666668561},{"name":"D4","midi":62,"time":206.3333333333317,"velocity":0.7637795275590551,"duration":0.13671875},{"name":"A5","midi":81,"time":206.47265624999838,"velocity":0.7637795275590551,"duration":0.4153645833333144},{"name":"F4","midi":65,"time":206.47265624999838,"velocity":0.7637795275590551,"duration":0.2057291666666572},{"name":"C4","midi":60,"time":206.47265624999838,"velocity":0.7637795275590551,"duration":0.13671875},{"name":"A#3","midi":58,"time":206.61197916666504,"velocity":0.7637795275590551,"duration":0.13671875},{"name":"D#5","midi":75,"time":206.68229166666504,"velocity":0.7637795275590551,"duration":0.2057291666666572},{"name":"C4","midi":60,"time":206.7513020833317,"velocity":0.7637795275590551,"duration":0.13671875},{"name":"A#5","midi":82,"time":206.89062499999835,"velocity":0.7637795275590551,"duration":1.8802083333332291},{"name":"D5","midi":74,"time":206.89062499999835,"velocity":0.7637795275590551,"duration":0.4153645833333144},{"name":"A#3","midi":58,"time":206.89062499999835,"velocity":0.7637795275590551,"duration":0.2057291666666572},{"name":"F4","midi":65,"time":207.100260416665,"velocity":0.7637795275590551,"duration":0.2057291666666572},{"name":"F5","midi":77,"time":207.30989583333167,"velocity":0.7637795275590551,"duration":0.4153645833333144},{"name":"D4","midi":62,"time":207.30989583333167,"velocity":0.7637795275590551,"duration":0.2057291666666572},{"name":"A#3","midi":58,"time":207.51822916666498,"velocity":0.7637795275590551,"duration":0.2057291666666572},{"name":"D5","midi":74,"time":207.72786458333164,"velocity":0.7637795275590551,"duration":0.4153645833333144},{"name":"G#3","midi":56,"time":207.72786458333164,"velocity":0.7637795275590551,"duration":0.2057291666666572},{"name":"F4","midi":65,"time":207.9374999999983,"velocity":0.7637795275590551,"duration":0.2057291666666572},{"name":"A#4","midi":70,"time":208.14713541666495,"velocity":0.7637795275590551,"duration":0.4153645833333144},{"name":"D4","midi":62,"time":208.14713541666495,"velocity":0.7637795275590551,"duration":0.2057291666666572},{"name":"G#3","midi":56,"time":208.35546874999827,"velocity":0.7637795275590551,"duration":0.2057291666666572},{"name":"D#5","midi":75,"time":208.56510416666492,"velocity":0.7637795275590551,"duration":0.6093749999999716},{"name":"G3","midi":55,"time":208.56510416666492,"velocity":0.7637795275590551,"duration":0.3802083333333144},{"name":"A#5","midi":82,"time":208.77473958333158,"velocity":0.7637795275590551,"duration":0.2057291666666572},{"name":"G5","midi":79,"time":208.9830729166649,"velocity":0.7637795275590551,"duration":0.2057291666666572},{"name":"D#4","midi":63,"time":208.9830729166649,"velocity":0.7637795275590551,"duration":0.3802083333333144},{"name":"D#5","midi":75,"time":209.19270833333155,"velocity":0.7637795275590551,"duration":0.2057291666666572},{"name":"C#5","midi":73,"time":209.4023437499982,"velocity":0.7637795275590551,"duration":0.62109375},{"name":"A#5","midi":82,"time":209.61067708333155,"velocity":0.7637795275590551,"duration":0.2057291666666572},{"name":"G5","midi":79,"time":209.81901041666487,"velocity":0.7637795275590551,"duration":0.2044270833333428},{"name":"D#3","midi":51,"time":209.81901041666487,"velocity":0.7637795275590551,"duration":0.4140625},{"name":"C#5","midi":73,"time":210.0273437499982,"velocity":0.7637795275590551,"duration":0.2057291666666572},{"name":"C5","midi":72,"time":210.23567708333152,"velocity":0.7637795275590551,"duration":0.4153645833333144},{"name":"G#3","midi":56,"time":210.23567708333152,"velocity":0.7637795275590551,"duration":0.2057291666666572},{"name":"D#4","midi":63,"time":210.44531249999818,"velocity":0.7637795275590551,"duration":0.2057291666666572},{"name":"D#5","midi":75,"time":210.65494791666484,"velocity":0.7637795275590551,"duration":0.4153645833333144},{"name":"C4","midi":60,"time":210.65494791666484,"velocity":0.7637795275590551,"duration":0.2057291666666572},{"name":"G#3","midi":56,"time":210.86328124999815,"velocity":0.7637795275590551,"duration":0.2057291666666572},{"name":"G#5","midi":80,"time":211.0729166666648,"velocity":0.7637795275590551,"duration":1.0429687499999432},{"name":"C5","midi":72,"time":211.0729166666648,"velocity":0.7637795275590551,"duration":0.4153645833333144},{"name":"G3","midi":55,"time":211.0729166666648,"velocity":0.7637795275590551,"duration":0.2057291666666572},{"name":"D#4","midi":63,"time":211.28255208333147,"velocity":0.7637795275590551,"duration":0.2057291666666572},{"name":"G#4","midi":68,"time":211.49088541666478,"velocity":0.7637795275590551,"duration":0.4153645833333144},{"name":"C4","midi":60,"time":211.49088541666478,"velocity":0.7637795275590551,"duration":0.2057291666666572},{"name":"G3","midi":55,"time":211.70052083333144,"velocity":0.7637795275590551,"duration":0.2057291666666572},{"name":"D5","midi":74,"time":211.9101562499981,"velocity":0.7637795275590551,"duration":0.6093749999999716},{"name":"F3","midi":53,"time":211.9101562499981,"velocity":0.7637795275590551,"duration":0.3802083333333144},{"name":"G#5","midi":80,"time":212.1184895833314,"velocity":0.7637795275590551,"duration":0.2057291666666572},{"name":"F5","midi":77,"time":212.32812499999807,"velocity":0.7637795275590551,"duration":0.2057291666666572},{"name":"D4","midi":62,"time":212.32812499999807,"velocity":0.7637795275590551,"duration":0.3802083333333144},{"name":"D5","midi":74,"time":212.53776041666472,"velocity":0.7637795275590551,"duration":0.2057291666666572},{"name":"C5","midi":72,"time":212.74609374999804,"velocity":0.7637795275590551,"duration":0.609375},{"name":"G#5","midi":80,"time":212.95442708333138,"velocity":0.7637795275590551,"duration":0.2057291666666572},{"name":"F5","midi":77,"time":213.16406249999804,"velocity":0.7637795275590551,"duration":0.2057291666666572},{"name":"D3","midi":50,"time":213.16406249999804,"velocity":0.7637795275590551,"duration":0.4153645833333144},{"name":"C5","midi":72,"time":213.37239583333135,"velocity":0.7637795275590551,"duration":0.2057291666666572},{"name":"A#4","midi":70,"time":213.582031249998,"velocity":0.7637795275590551,"duration":0.4153645833333144},{"name":"G3","midi":55,"time":213.582031249998,"velocity":0.7637795275590551,"duration":0.2057291666666572},{"name":"D4","midi":62,"time":213.79166666666467,"velocity":0.7637795275590551,"duration":0.2057291666666572},{"name":"D5","midi":74,"time":213.99999999999798,"velocity":0.7637795275590551,"duration":0.4153645833333144},{"name":"A#3","midi":58,"time":213.99999999999798,"velocity":0.7637795275590551,"duration":0.2057291666666572},{"name":"G3","midi":55,"time":214.20963541666464,"velocity":0.7637795275590551,"duration":0.2057291666666572},{"name":"G5","midi":79,"time":214.4192708333313,"velocity":0.7637795275590551,"duration":1.8802083333332291},{"name":"A#4","midi":70,"time":214.4192708333313,"velocity":0.7637795275590551,"duration":0.4153645833333144},{"name":"F3","midi":53,"time":214.4192708333313,"velocity":0.7637795275590551,"duration":0.2057291666666572},{"name":"C#4","midi":61,"time":214.62890624999795,"velocity":0.7637795275590551,"duration":0.2057291666666572},{"name":"G4","midi":67,"time":214.83723958333127,"velocity":0.7637795275590551,"duration":0.4153645833333144},{"name":"A#3","midi":58,"time":214.83723958333127,"velocity":0.7637795275590551,"duration":0.2057291666666572},{"name":"F3","midi":53,"time":215.04687499999793,"velocity":0.7637795275590551,"duration":0.2057291666666572},{"name":"C5","midi":72,"time":215.25651041666458,"velocity":0.7637795275590551,"duration":0.4153645833333144},{"name":"E3","midi":52,"time":215.25651041666458,"velocity":0.7637795275590551,"duration":0.2057291666666572},{"name":"C4","midi":60,"time":215.4648437499979,"velocity":0.7637795275590551,"duration":0.2057291666666572},{"name":"A#4","midi":70,"time":215.67447916666455,"velocity":0.7637795275590551,"duration":0.4153645833333144},{"name":"G3","midi":55,"time":215.67447916666455,"velocity":0.7637795275590551,"duration":0.2057291666666572},{"name":"E3","midi":52,"time":215.8841145833312,"velocity":0.7637795275590551,"duration":0.2057291666666572},{"name":"G#4","midi":68,"time":216.09244791666453,"velocity":0.7637795275590551,"duration":1.0429687499999432},{"name":"F3","midi":53,"time":216.09244791666453,"velocity":0.7637795275590551,"duration":0.2057291666666572},{"name":"C5","midi":72,"time":216.30208333333118,"velocity":0.7637795275590551,"duration":0.2057291666666572},{"name":"C4","midi":60,"time":216.30208333333118,"velocity":0.7637795275590551,"duration":0.2057291666666572},{"name":"D5","midi":74,"time":216.5104166666645,"velocity":0.7637795275590551,"duration":0.2057291666666572},{"name":"G#3","midi":56,"time":216.5104166666645,"velocity":0.7637795275590551,"duration":0.2057291666666572},{"name":"D#5","midi":75,"time":216.7187499999978,"velocity":0.7637795275590551,"duration":0.2057291666666572},{"name":"F3","midi":53,"time":216.7187499999978,"velocity":0.7637795275590551,"duration":0.2057291666666572},{"name":"F5","midi":77,"time":216.92838541666447,"velocity":0.7637795275590551,"duration":1.2526041666666003},{"name":"D3","midi":50,"time":216.92838541666447,"velocity":0.7637795275590551,"duration":0.2057291666666572},{"name":"C5","midi":72,"time":217.13802083333113,"velocity":0.7637795275590551,"duration":0.2057291666666572},{"name":"A#3","midi":58,"time":217.13802083333113,"velocity":0.7637795275590551,"duration":0.2057291666666572},{"name":"A#4","midi":70,"time":217.34635416666444,"velocity":0.7637795275590551,"duration":0.2057291666666572},{"name":"F3","midi":53,"time":217.34635416666444,"velocity":0.7637795275590551,"duration":0.2057291666666572},{"name":"G#4","midi":68,"time":217.5559895833311,"velocity":0.7637795275590551,"duration":0.2057291666666572},{"name":"D3","midi":50,"time":217.5559895833311,"velocity":0.7637795275590551,"duration":0.2057291666666572},{"name":"G4","midi":67,"time":217.76562499999775,"velocity":0.7637795275590551,"duration":0.833333333333286},{"name":"D#3","midi":51,"time":217.76562499999775,"velocity":0.7637795275590551,"duration":0.2057291666666572},{"name":"A#3","midi":58,"time":217.97395833333107,"velocity":0.7637795275590551,"duration":0.2057291666666572},{"name":"D#5","midi":75,"time":218.18359374999773,"velocity":0.7637795275590551,"duration":0.6236979166666288},{"name":"G3","midi":55,"time":218.18359374999773,"velocity":0.7637795275590551,"duration":0.2057291666666572},{"name":"D#3","midi":51,"time":218.39322916666438,"velocity":0.7637795275590551,"duration":0.2057291666666572},{"name":"F4","midi":65,"time":218.6015624999977,"velocity":0.7637795275590551,"duration":0.825520833333286},{"name":"A#2","midi":46,"time":218.6015624999977,"velocity":0.7637795275590551,"duration":0.4153645833333144},{"name":"D5","midi":74,"time":218.81119791666436,"velocity":0.7637795275590551,"duration":0.2057291666666572},{"name":"C5","midi":72,"time":219.020833333331,"velocity":0.7637795275590551,"duration":0.2057291666666572},{"name":"G#3","midi":56,"time":219.020833333331,"velocity":0.7637795275590551,"duration":0.4140624999999716},{"name":"D5","midi":74,"time":219.22916666666433,"velocity":0.7637795275590551,"duration":0.20442708333331439},{"name":"A#4","midi":70,"time":219.43619791666433,"velocity":0.7637795275590551,"duration":0.825520833333286},{"name":"G3","midi":55,"time":219.43619791666433,"velocity":0.7637795275590551,"duration":0.4153645833333144},{"name":"D#5","midi":75,"time":219.64583333333098,"velocity":0.7637795275590551,"duration":0.2057291666666572},{"name":"D5","midi":74,"time":219.8541666666643,"velocity":0.7637795275590551,"duration":0.2057291666666572},{"name":"F3","midi":53,"time":219.8541666666643,"velocity":0.7637795275590551,"duration":0.4140624999999716},{"name":"D#5","midi":75,"time":220.06380208333096,"velocity":0.7637795275590551,"duration":0.20442708333331439},{"name":"G5","midi":79,"time":220.27213541666427,"velocity":0.7637795275590551,"duration":0.3802083333333144},{"name":"D#3","midi":51,"time":220.27213541666427,"velocity":0.7637795275590551,"duration":0.2057291666666572},{"name":"C3","midi":48,"time":220.48046874999758,"velocity":0.7637795275590551,"duration":0.2057291666666572},{"name":"F5","midi":77,"time":220.69010416666424,"velocity":0.7637795275590551,"duration":0.3802083333333144},{"name":"G#4","midi":68,"time":220.69010416666424,"velocity":0.7637795275590551,"duration":0.2057291666666572},{"name":"D3","midi":50,"time":220.69010416666424,"velocity":0.7637795275590551,"duration":0.2057291666666572},{"name":"G4","midi":67,"time":220.8997395833309,"velocity":0.7637795275590551,"duration":0.2057291666666572},{"name":"D#3","midi":51,"time":220.8997395833309,"velocity":0.7637795275590551,"duration":0.2057291666666572},{"name":"G#4","midi":68,"time":221.1080729166642,"velocity":0.7637795275590551,"duration":0.4153645833333428},{"name":"F3","midi":53,"time":221.1080729166642,"velocity":0.7637795275590551,"duration":1.0429687499999716},{"name":"D5","midi":74,"time":221.52734374999756,"velocity":0.7637795275590551,"duration":0.2057291666666572},{"name":"F4","midi":65,"time":221.52734374999756,"velocity":0.7637795275590551,"duration":0.4153645833333144},{"name":"A#4","midi":70,"time":221.7369791666642,"velocity":0.7637795275590551,"duration":0.2057291666666572},{"name":"G#5","midi":80,"time":221.94531249999753,"velocity":0.7637795275590551,"duration":0.3802083333333144},{"name":"D4","midi":62,"time":221.94531249999753,"velocity":0.7637795275590551,"duration":0.4153645833333144},{"name":"D#3","midi":51,"time":222.15494791666418,"velocity":0.7637795275590551,"duration":0.2057291666666572},{"name":"G5","midi":79,"time":222.36458333333084,"velocity":0.7637795275590551,"duration":0.3802083333333428},{"name":"D#5","midi":75,"time":222.36458333333084,"velocity":0.7637795275590551,"duration":0.8333333333333428},{"name":"F3","midi":53,"time":222.36458333333084,"velocity":0.7637795275590551,"duration":0.2057291666666572},{"name":"G3","midi":55,"time":222.57161458333084,"velocity":0.7637795275590551,"duration":0.20572916666668561},{"name":"G5","midi":79,"time":222.78124999999753,"velocity":0.7637795275590551,"duration":0.13671875},{"name":"G#3","midi":56,"time":222.78124999999753,"velocity":0.7637795275590551,"duration":0.2057291666666572},{"name":"F5","midi":77,"time":222.92057291666418,"velocity":0.7637795275590551,"duration":0.13671875},{"name":"F3","midi":53,"time":222.99088541666418,"velocity":0.7637795275590551,"duration":0.2057291666666572},{"name":"G5","midi":79,"time":223.05989583333084,"velocity":0.7637795275590551,"duration":0.13671875},{"name":"F5","midi":77,"time":223.19921874999753,"velocity":0.7637795275590551,"duration":0.13671875},{"name":"D5","midi":74,"time":223.19921874999753,"velocity":0.7637795275590551,"duration":0.4127604166666572},{"name":"A#2","midi":46,"time":223.19921874999753,"velocity":0.7637795275590551,"duration":0.2057291666666572},{"name":"G5","midi":79,"time":223.33854166666418,"velocity":0.7637795275590551,"duration":0.13671875},{"name":"G#3","midi":56,"time":223.40885416666418,"velocity":0.7637795275590551,"duration":0.2044270833333428},{"name":"F5","midi":77,"time":223.47786458333084,"velocity":0.7637795275590551,"duration":0.13541666666668561},{"name":"D#5","midi":75,"time":223.61718749999753,"velocity":0.7637795275590551,"duration":0.62109375},{"name":"G3","midi":55,"time":223.61718749999753,"velocity":0.7637795275590551,"duration":0.4153645833333428},{"name":"A#5","midi":82,"time":223.82552083333087,"velocity":0.7637795275590551,"duration":0.2057291666666572},{"name":"G5","midi":79,"time":224.03515624999753,"velocity":0.7637795275590551,"duration":0.2044270833333428},{"name":"A#3","midi":58,"time":224.03515624999753,"velocity":0.7637795275590551,"duration":0.4140625},{"name":"D#5","midi":75,"time":224.24348958333087,"velocity":0.7637795275590551,"duration":0.2057291666666572},{"name":"C#5","midi":73,"time":224.45182291666418,"velocity":0.7637795275590551,"duration":0.2057291666666572},{"name":"D#4","midi":63,"time":224.45182291666418,"velocity":0.7637795275590551,"duration":1.0429687499999716},{"name":"G3","midi":55,"time":224.45182291666418,"velocity":0.7637795275590551,"duration":0.4153645833333144},{"name":"A#5","midi":82,"time":224.66145833333084,"velocity":0.7637795275590551,"duration":0.2057291666666572},{"name":"G5","midi":79,"time":224.8710937499975,"velocity":0.7637795275590551,"duration":0.2057291666666572},{"name":"D#3","midi":51,"time":224.8710937499975,"velocity":0.7637795275590551,"duration":0.4153645833333144},{"name":"C#5","midi":73,"time":225.0781249999975,"velocity":0.7637795275590551,"duration":0.2057291666666572},{"name":"C5","midi":72,"time":225.28776041666416,"velocity":0.7637795275590551,"duration":0.3802083333333144},{"name":"G#3","midi":56,"time":225.28776041666416,"velocity":0.7637795275590551,"duration":0.4140624999999716},{"name":"D#4","midi":63,"time":225.4973958333308,"velocity":0.7637795275590551,"duration":0.2057291666666572},{"name":"G#5","midi":80,"time":225.70572916666413,"velocity":0.7637795275590551,"duration":0.3802083333333144},{"name":"C4","midi":60,"time":225.70572916666413,"velocity":0.7637795275590551,"duration":0.2057291666666572},{"name":"G#3","midi":56,"time":225.91536458333078,"velocity":0.7637795275590551,"duration":0.2057291666666572},{"name":"G3","midi":55,"time":226.12499999999744,"velocity":0.7637795275590551,"duration":0.2057291666666572},{"name":"D#4","midi":63,"time":226.33333333333076,"velocity":0.7637795275590551,"duration":0.2057291666666572},{"name":"G#4","midi":68,"time":226.5429687499974,"velocity":0.7637795275590551,"duration":0.4153645833333144},{"name":"C4","midi":60,"time":226.5429687499974,"velocity":0.7637795275590551,"duration":0.2057291666666572},{"name":"G3","midi":55,"time":226.75260416666407,"velocity":0.7637795275590551,"duration":0.2057291666666572},{"name":"D5","midi":74,"time":226.96093749999739,"velocity":0.7637795275590551,"duration":0.6210937499999716},{"name":"F3","midi":53,"time":226.96093749999739,"velocity":0.7637795275590551,"duration":0.4153645833333144},{"name":"G#5","midi":80,"time":227.17057291666404,"velocity":0.7637795275590551,"duration":0.2057291666666572},{"name":"F5","midi":77,"time":227.3802083333307,"velocity":0.7637795275590551,"duration":0.20442708333331439},{"name":"G#3","midi":56,"time":227.3802083333307,"velocity":0.7637795275590551,"duration":0.4140624999999716},{"name":"D5","midi":74,"time":227.58723958333067,"velocity":0.7637795275590551,"duration":0.2057291666666572},{"name":"C5","midi":72,"time":227.79687499999733,"velocity":0.7637795275590551,"duration":0.2057291666666572},{"name":"D4","midi":62,"time":227.79687499999733,"velocity":0.7637795275590551,"duration":1.0429687499999716},{"name":"F3","midi":53,"time":227.79687499999733,"velocity":0.7637795275590551,"duration":0.4153645833333144},{"name":"G#5","midi":80,"time":228.00520833333064,"velocity":0.7637795275590551,"duration":0.2057291666666572},{"name":"F5","midi":77,"time":228.21354166666399,"velocity":0.7637795275590551,"duration":0.2057291666666572},{"name":"D3","midi":50,"time":228.21354166666399,"velocity":0.7637795275590551,"duration":0.4153645833333144},{"name":"C5","midi":72,"time":228.42317708333064,"velocity":0.7637795275590551,"duration":0.2057291666666572},{"name":"B4","midi":71,"time":228.6328124999973,"velocity":0.7637795275590551,"duration":0.3802083333333428},{"name":"G3","midi":55,"time":228.6328124999973,"velocity":0.7637795275590551,"duration":0.4140625},{"name":"D4","midi":62,"time":228.84114583333064,"velocity":0.7637795275590551,"duration":0.2057291666666572},{"name":"G5","midi":79,"time":229.0507812499973,"velocity":0.7637795275590551,"duration":0.3802083333333144},{"name":"B3","midi":59,"time":229.0507812499973,"velocity":0.7637795275590551,"duration":0.2057291666666572},{"name":"G3","midi":55,"time":229.26041666666396,"velocity":0.7637795275590551,"duration":0.2057291666666572},{"name":"F3","midi":53,"time":229.47005208333061,"velocity":0.7637795275590551,"duration":0.2057291666666572},{"name":"D4","midi":62,"time":229.67838541666393,"velocity":0.7637795275590551,"duration":0.2057291666666572},{"name":"G4","midi":67,"time":229.8880208333306,"velocity":0.7637795275590551,"duration":0.4153645833333144},{"name":"B3","midi":59,"time":229.8880208333306,"velocity":0.7637795275590551,"duration":0.2057291666666572},{"name":"F3","midi":53,"time":230.09765624999724,"velocity":0.7637795275590551,"duration":0.2057291666666572},{"name":"C5","midi":72,"time":230.30598958333056,"velocity":0.7637795275590551,"duration":0.6210937499999716},{"name":"E3","midi":52,"time":230.30598958333056,"velocity":0.7637795275590551,"duration":0.4153645833333144},{"name":"G5","midi":79,"time":230.51562499999721,"velocity":0.7637795275590551,"duration":0.2057291666666572},{"name":"E5","midi":76,"time":230.72526041666387,"velocity":0.7637795275590551,"duration":0.20442708333331439},{"name":"G3","midi":55,"time":230.72526041666387,"velocity":0.7637795275590551,"duration":0.4140624999999716},{"name":"C5","midi":72,"time":230.93229166666384,"velocity":0.7637795275590551,"duration":0.2057291666666572},{"name":"A#4","midi":70,"time":231.1406249999972,"velocity":0.7637795275590551,"duration":0.2057291666666572},{"name":"C4","midi":60,"time":231.1406249999972,"velocity":0.7637795275590551,"duration":1.670572916666572},{"name":"E3","midi":52,"time":231.1406249999972,"velocity":0.7637795275590551,"duration":0.4153645833333144},{"name":"G5","midi":79,"time":231.35026041666384,"velocity":0.7637795275590551,"duration":0.2057291666666572},{"name":"E5","midi":76,"time":231.55859374999716,"velocity":0.7637795275590551,"duration":0.2057291666666572},{"name":"C3","midi":48,"time":231.55859374999716,"velocity":0.7637795275590551,"duration":0.4153645833333144},{"name":"A#4","midi":70,"time":231.76822916666382,"velocity":0.7637795275590551,"duration":0.2057291666666572},{"name":"A4","midi":69,"time":231.97786458333047,"velocity":0.7637795275590551,"duration":0.2057291666666572},{"name":"F3","midi":53,"time":231.97786458333047,"velocity":0.7637795275590551,"duration":0.4153645833333144},{"name":"G5","midi":79,"time":232.1861979166638,"velocity":0.7637795275590551,"duration":0.2057291666666572},{"name":"C5","midi":72,"time":232.39583333333044,"velocity":0.7637795275590551,"duration":0.2057291666666572},{"name":"D#3","midi":51,"time":232.39583333333044,"velocity":0.7637795275590551,"duration":0.4153645833333144},{"name":"G4","midi":67,"time":232.6054687499971,"velocity":0.7637795275590551,"duration":0.2057291666666572},{"name":"G#4","midi":68,"time":232.81380208333042,"velocity":0.7637795275590551,"duration":0.2057291666666572},{"name":"B3","midi":59,"time":232.81380208333042,"velocity":0.7637795275590551,"duration":0.4153645833333144},{"name":"D3","midi":50,"time":232.81380208333042,"velocity":0.7637795275590551,"duration":0.4153645833333144},{"name":"F5","midi":77,"time":233.02343749999707,"velocity":0.7637795275590551,"duration":0.2057291666666572},{"name":"D5","midi":74,"time":233.23307291666373,"velocity":0.7637795275590551,"duration":0.2057291666666572},{"name":"C4","midi":60,"time":233.23307291666373,"velocity":0.7637795275590551,"duration":0.4153645833333144},{"name":"C3","midi":48,"time":233.23307291666373,"velocity":0.7637795275590551,"duration":0.4153645833333144},{"name":"G#4","midi":68,"time":233.44140624999704,"velocity":0.7637795275590551,"duration":0.2057291666666572},{"name":"G4","midi":67,"time":233.6510416666637,"velocity":0.7637795275590551,"duration":0.825520833333286},{"name":"D4","midi":62,"time":233.6510416666637,"velocity":0.7637795275590551,"duration":0.2057291666666572},{"name":"B2","midi":47,"time":233.6510416666637,"velocity":0.7637795275590551,"duration":0.4153645833333144},{"name":"F5","midi":77,"time":233.86067708333036,"velocity":0.7637795275590551,"duration":0.2057291666666572},{"name":"D5","midi":74,"time":234.06901041666367,"velocity":0.7637795275590551,"duration":0.2057291666666572},{"name":"G2","midi":43,"time":234.06901041666367,"velocity":0.7637795275590551,"duration":0.4140624999999716},{"name":"B4","midi":71,"time":234.27864583333033,"velocity":0.7637795275590551,"duration":0.20442708333331439},{"name":"G4","midi":67,"time":234.4856770833303,"velocity":0.7637795275590551,"duration":0.62109375},{"name":"C3","midi":48,"time":234.4856770833303,"velocity":0.7637795275590551,"duration":0.4153645833333428},{"name":"D#5","midi":75,"time":234.69401041666364,"velocity":0.7637795275590551,"duration":0.2057291666666572},{"name":"C5","midi":72,"time":234.9036458333303,"velocity":0.7637795275590551,"duration":0.2044270833333428},{"name":"A#2","midi":46,"time":234.9036458333303,"velocity":0.7637795275590551,"duration":0.4140625},{"name":"G4","midi":67,"time":235.11197916666364,"velocity":0.7637795275590551,"duration":0.2057291666666572},{"name":"F#4","midi":66,"time":235.32031249999696,"velocity":0.7637795275590551,"duration":0.4127604166666572},{"name":"A2","midi":45,"time":235.32031249999696,"velocity":0.7637795275590551,"duration":0.4140625},{"name":"D#5","midi":75,"time":235.52994791666362,"velocity":0.7637795275590551,"duration":0.2044270833333428},{"name":"C5","midi":72,"time":235.73828124999696,"velocity":0.7637795275590551,"duration":0.2057291666666572},{"name":"A3","midi":57,"time":235.73828124999696,"velocity":0.7637795275590551,"duration":0.4153645833333144},{"name":"A4","midi":69,"time":235.94661458333027,"velocity":0.7637795275590551,"duration":0.2057291666666572},{"name":"F4","midi":65,"time":236.15624999999693,"velocity":0.7637795275590551,"duration":0.6093749999999716},{"name":"B3","midi":59,"time":236.15624999999693,"velocity":0.7637795275590551,"duration":0.4153645833333144},{"name":"D5","midi":74,"time":236.3658854166636,"velocity":0.7637795275590551,"duration":0.2057291666666572},{"name":"B4","midi":71,"time":236.5742187499969,"velocity":0.7637795275590551,"duration":0.2057291666666572},{"name":"G3","midi":55,"time":236.5742187499969,"velocity":0.7637795275590551,"duration":0.4153645833333144},{"name":"F4","midi":65,"time":236.78255208333022,"velocity":0.7637795275590551,"duration":0.2057291666666572},{"name":"E4","midi":64,"time":236.99218749999687,"velocity":0.7637795275590551,"duration":0.4127604166666856},{"name":"C4","midi":60,"time":236.99218749999687,"velocity":0.7637795275590551,"duration":0.4140625000000284},{"name":"D5","midi":74,"time":237.20052083333022,"velocity":0.7637795275590551,"duration":0.2044270833333428},{"name":"B4","midi":71,"time":237.40885416666356,"velocity":0.7637795275590551,"duration":0.2057291666666572},{"name":"G3","midi":55,"time":237.40885416666356,"velocity":0.7637795275590551,"duration":0.4153645833333144},{"name":"G4","midi":67,"time":237.61848958333022,"velocity":0.7637795275590551,"duration":0.2057291666666572},{"name":"D#4","midi":63,"time":237.82682291666353,"velocity":0.7637795275590551,"duration":0.6093749999999716},{"name":"G#3","midi":56,"time":237.82682291666353,"velocity":0.7637795275590551,"duration":0.4153645833333144},{"name":"C5","midi":72,"time":238.0364583333302,"velocity":0.7637795275590551,"duration":0.2057291666666572},{"name":"G4","midi":67,"time":238.24609374999685,"velocity":0.7637795275590551,"duration":0.2057291666666572},{"name":"D#3","midi":51,"time":238.24609374999685,"velocity":0.7637795275590551,"duration":0.4153645833333144},{"name":"D#4","midi":63,"time":238.4557291666635,"velocity":0.7637795275590551,"duration":0.2057291666666572},{"name":"D4","midi":62,"time":238.66406249999682,"velocity":0.7637795275590551,"duration":0.4127604166666572},{"name":"F3","midi":53,"time":238.66406249999682,"velocity":0.7637795275590551,"duration":0.4140625},{"name":"C5","midi":72,"time":238.87369791666347,"velocity":0.7637795275590551,"duration":0.2044270833333428},{"name":"G#4","midi":68,"time":239.08203124999682,"velocity":0.7637795275590551,"duration":0.2057291666666572},{"name":"D#3","midi":51,"time":239.08203124999682,"velocity":0.7637795275590551,"duration":0.2057291666666572},{"name":"F4","midi":65,"time":239.28906249999682,"velocity":0.7637795275590551,"duration":0.2057291666666572},{"name":"F3","midi":53,"time":239.28906249999682,"velocity":0.7637795275590551,"duration":0.2057291666666572},{"name":"D4","midi":62,"time":239.49869791666347,"velocity":0.7637795275590551,"duration":0.2057291666666572},{"name":"G3","midi":55,"time":239.49869791666347,"velocity":0.7637795275590551,"duration":0.4153645833333144},{"name":"B4","midi":71,"time":239.70833333333013,"velocity":0.7637795275590551,"duration":0.2057291666666572},{"name":"A4","midi":69,"time":239.91666666666345,"velocity":0.7637795275590551,"duration":0.2057291666666572},{"name":"G2","midi":43,"time":239.91666666666345,"velocity":0.7637795275590551,"duration":0.4153645833333144},{"name":"B4","midi":71,"time":240.1263020833301,"velocity":0.7637795275590551,"duration":0.2057291666666572},{"name":"C5","midi":72,"time":240.33593749999676,"velocity":0.7637795275590551,"duration":0.4153645833333144},{"name":"C4","midi":60,"time":240.33593749999676,"velocity":0.7637795275590551,"duration":0.2057291666666572},{"name":"C3","midi":48,"time":240.33593749999676,"velocity":0.7637795275590551,"duration":0.6093749999999716},{"name":"A#3","midi":58,"time":240.54427083333007,"velocity":0.7637795275590551,"duration":0.2057291666666572},{"name":"F5","midi":77,"time":240.75390624999673,"velocity":0.7637795275590551,"duration":0.4153645833333144},{"name":"G#3","midi":56,"time":240.75390624999673,"velocity":0.7637795275590551,"duration":0.2057291666666572},{"name":"A#3","midi":58,"time":240.9635416666634,"velocity":0.7637795275590551,"duration":0.2057291666666572},{"name":"D#5","midi":75,"time":241.1718749999967,"velocity":0.7637795275590551,"duration":0.4153645833333144},{"name":"G3","midi":55,"time":241.1718749999967,"velocity":0.7637795275590551,"duration":0.2057291666666572},{"name":"C4","midi":60,"time":241.38151041666336,"velocity":0.7637795275590551,"duration":0.2057291666666572},{"name":"D5","midi":74,"time":241.59114583333002,"velocity":0.7637795275590551,"duration":0.4153645833333144},{"name":"B3","midi":59,"time":241.59114583333002,"velocity":0.7637795275590551,"duration":0.2057291666666572},{"name":"C4","midi":60,"time":241.79947916666333,"velocity":0.7637795275590551,"duration":0.2057291666666572},{"name":"C5","midi":72,"time":242.00911458333,"velocity":0.7637795275590551,"duration":0.2057291666666572},{"name":"D#4","midi":63,"time":242.00911458333,"velocity":0.7637795275590551,"duration":0.3802083333333144},{"name":"A4","midi":69,"time":242.21874999999665,"velocity":0.7637795275590551,"duration":0.2057291666666572},{"name":"B4","midi":71,"time":242.42708333332996,"velocity":0.7637795275590551,"duration":0.2057291666666572},{"name":"D4","midi":62,"time":242.42708333332996,"velocity":0.7637795275590551,"duration":0.3802083333333144},{"name":"C5","midi":72,"time":242.63671874999662,"velocity":0.7637795275590551,"duration":0.2057291666666572},{"name":"D5","midi":74,"time":242.84505208332993,"velocity":0.7637795275590551,"duration":1.0429687499999716},{"name":"B3","midi":59,"time":243.26302083332993,"velocity":0.7637795275590551,"duration":0.2057291666666572},{"name":"G3","midi":55,"time":243.4726562499966,"velocity":0.7637795275590551,"duration":0.2057291666666572},{"name":"F4","midi":65,"time":243.6809895833299,"velocity":0.7637795275590551,"duration":0.3802083333333144},{"name":"C5","midi":72,"time":243.89062499999656,"velocity":0.7637795275590551,"duration":0.2057291666666572},{"name":"D5","midi":74,"time":244.10026041666322,"velocity":0.7637795275590551,"duration":0.2057291666666572},{"name":"D#4","midi":63,"time":244.10026041666322,"velocity":0.7637795275590551,"duration":0.3802083333333144},{"name":"D#5","midi":75,"time":244.30859374999653,"velocity":0.7637795275590551,"duration":0.2057291666666572},{"name":"F5","midi":77,"time":244.5182291666632,"velocity":0.7637795275590551,"duration":0.2057291666666572},{"name":"D#4","midi":63,"time":244.5182291666632,"velocity":0.7637795275590551,"duration":0.13671875},{"name":"D4","midi":62,"time":244.65755208332985,"velocity":0.7637795275590551,"duration":0.13671875},{"name":"D5","midi":74,"time":244.72786458332985,"velocity":0.7637795275590551,"duration":0.2057291666666572},{"name":"D#4","midi":63,"time":244.7968749999965,"velocity":0.7637795275590551,"duration":0.13671875},{"name":"G4","midi":67,"time":244.93619791666316,"velocity":0.7637795275590551,"duration":0.2057291666666572},{"name":"D4","midi":62,"time":244.93619791666316,"velocity":0.7637795275590551,"duration":0.13671875},{"name":"C4","midi":60,"time":245.07682291666316,"velocity":0.7637795275590551,"duration":0.13671875},{"name":"F5","midi":77,"time":245.14583333332982,"velocity":0.7637795275590551,"duration":0.2057291666666572},{"name":"D4","midi":62,"time":245.21614583332982,"velocity":0.7637795275590551,"duration":0.13671875},{"name":"D#5","midi":75,"time":245.35546874999648,"velocity":0.7637795275590551,"duration":0.2057291666666572},{"name":"C4","midi":60,"time":245.35546874999648,"velocity":0.7637795275590551,"duration":0.2057291666666572},{"name":"G5","midi":79,"time":245.56510416666313,"velocity":0.7637795275590551,"duration":0.2057291666666572},{"name":"B3","midi":59,"time":245.56510416666313,"velocity":0.7637795275590551,"duration":0.2057291666666572},{"name":"D#5","midi":75,"time":245.77343749999645,"velocity":0.7637795275590551,"duration":0.2057291666666572},{"name":"C4","midi":60,"time":245.77343749999645,"velocity":0.7637795275590551,"duration":0.2057291666666572},{"name":"D5","midi":74,"time":245.9830729166631,"velocity":0.7637795275590551,"duration":0.2057291666666572},{"name":"D#4","midi":63,"time":245.9830729166631,"velocity":0.7637795275590551,"duration":0.2057291666666572},{"name":"C5","midi":72,"time":246.19140624999642,"velocity":0.7637795275590551,"duration":0.2057291666666572},{"name":"G#4","midi":68,"time":246.19140624999642,"velocity":0.7637795275590551,"duration":1.0442708333332575},{"name":"C6","midi":84,"time":246.39973958332973,"velocity":0.7637795275590551,"duration":0.2057291666666572},{"name":"G#5","midi":80,"time":246.6093749999964,"velocity":0.7637795275590551,"duration":0.2057291666666572},{"name":"F5","midi":77,"time":246.81901041666305,"velocity":0.7637795275590551,"duration":0.2057291666666572},{"name":"D5","midi":74,"time":247.02734374999636,"velocity":0.7637795275590551,"duration":0.2057291666666572},{"name":"F5","midi":77,"time":247.23697916666302,"velocity":0.7637795275590551,"duration":0.2057291666666572},{"name":"D5","midi":74,"time":247.44661458332968,"velocity":0.7637795275590551,"duration":0.2057291666666572},{"name":"A#3","midi":58,"time":247.44661458332968,"velocity":0.7637795275590551,"duration":0.2057291666666572},{"name":"C5","midi":72,"time":247.654947916663,"velocity":0.7637795275590551,"duration":0.2057291666666572},{"name":"D4","midi":62,"time":247.654947916663,"velocity":0.7637795275590551,"duration":0.2057291666666572},{"name":"A#4","midi":70,"time":247.86458333332965,"velocity":0.7637795275590551,"duration":0.2057291666666572},{"name":"G4","midi":67,"time":247.86458333332965,"velocity":0.7637795275590551,"duration":1.044270833333286},{"name":"A#5","midi":82,"time":248.0742187499963,"velocity":0.7637795275590551,"duration":0.2057291666666572},{"name":"G5","midi":79,"time":248.28255208332962,"velocity":0.7637795275590551,"duration":0.2057291666666572},{"name":"D#5","midi":75,"time":248.49218749999628,"velocity":0.7637795275590551,"duration":0.2057291666666572},{"name":"C5","midi":72,"time":248.70182291666293,"velocity":0.7637795275590551,"duration":0.2057291666666572},{"name":"D#5","midi":75,"time":248.91015624999628,"velocity":0.7637795275590551,"duration":0.2057291666666572},{"name":"C5","midi":72,"time":249.11979166666293,"velocity":0.7637795275590551,"duration":0.2057291666666572},{"name":"G#3","midi":56,"time":249.11979166666293,"velocity":0.7637795275590551,"duration":0.2057291666666572},{"name":"A#4","midi":70,"time":249.3294270833296,"velocity":0.7637795275590551,"duration":0.2057291666666572},{"name":"C4","midi":60,"time":249.3294270833296,"velocity":0.7637795275590551,"duration":0.2057291666666572},{"name":"G#4","midi":68,"time":249.5377604166629,"velocity":0.7637795275590551,"duration":0.2057291666666572},{"name":"F4","midi":65,"time":249.5377604166629,"velocity":0.7637795275590551,"duration":1.0429687499999432},{"name":"G#5","midi":80,"time":249.74609374999622,"velocity":0.7637795275590551,"duration":0.2057291666666572},{"name":"F5","midi":77,"time":249.95572916666288,"velocity":0.7637795275590551,"duration":0.2057291666666572},{"name":"D5","midi":74,"time":250.1640624999962,"velocity":0.7637795275590551,"duration":0.2057291666666572},{"name":"B4","midi":71,"time":250.37369791666285,"velocity":0.7637795275590551,"duration":0.833333333333286},{"name":"G3","midi":55,"time":250.37369791666285,"velocity":0.7637795275590551,"duration":0.2057291666666572},{"name":"G4","midi":67,"time":250.5833333333295,"velocity":0.7637795275590551,"duration":0.2057291666666572},{"name":"D#3","midi":51,"time":250.5833333333295,"velocity":0.7637795275590551,"duration":0.2057291666666572},{"name":"G#4","midi":68,"time":250.79166666666282,"velocity":0.7637795275590551,"duration":0.8333333333333144},{"name":"D3","midi":50,"time":250.79166666666282,"velocity":0.7637795275590551,"duration":0.2057291666666572},{"name":"D#3","midi":51,"time":251.00130208332948,"velocity":0.7637795275590551,"duration":0.2057291666666572},{"name":"C5","midi":72,"time":251.21093749999613,"velocity":0.7637795275590551,"duration":1.2526041666666288},{"name":"C3","midi":48,"time":251.21093749999613,"velocity":0.7637795275590551,"duration":0.2057291666666572},{"name":"F3","midi":53,"time":251.4205729166628,"velocity":0.7637795275590551,"duration":0.20572916666668561},{"name":"G4","midi":67,"time":251.62890624999613,"velocity":0.7637795275590551,"duration":0.4153645833333144},{"name":"D#3","midi":51,"time":251.62890624999613,"velocity":0.7637795275590551,"duration":0.2057291666666572},{"name":"F3","midi":53,"time":251.8385416666628,"velocity":0.7637795275590551,"duration":0.2057291666666572},{"name":"F4","midi":65,"time":252.04817708332945,"velocity":0.7637795275590551,"duration":0.2057291666666572},{"name":"G#3","midi":56,"time":252.04817708332945,"velocity":0.7637795275590551,"duration":0.3802083333333144},{"name":"D#4","midi":63,"time":252.25651041666276,"velocity":0.7637795275590551,"duration":0.2057291666666572},{"name":"B4","midi":71,"time":252.46614583332942,"velocity":0.7637795275590551,"duration":0.4153645833333144},{"name":"F4","midi":65,"time":252.46614583332942,"velocity":0.7637795275590551,"duration":0.2057291666666572},{"name":"G3","midi":55,"time":252.46614583332942,"velocity":0.7637795275590551,"duration":0.3802083333333144},{"name":"G4","midi":67,"time":252.67578124999608,"velocity":0.7637795275590551,"duration":0.2057291666666572},{"name":"C5","midi":72,"time":252.8841145833294,"velocity":0.7637795275590551,"duration":0.2057291666666572},{"name":"A4","midi":69,"time":252.8841145833294,"velocity":0.7637795275590551,"duration":1.0429687499999432},{"name":"B4","midi":71,"time":253.09374999999605,"velocity":0.7637795275590551,"duration":0.2057291666666572},{"name":"C5","midi":72,"time":253.30208333332936,"velocity":0.7637795275590551,"duration":0.2057291666666572},{"name":"F#3","midi":54,"time":253.30208333332936,"velocity":0.7637795275590551,"duration":0.2057291666666572},{"name":"D5","midi":74,"time":253.51041666666268,"velocity":0.7637795275590551,"duration":0.2057291666666572},{"name":"D3","midi":50,"time":253.51041666666268,"velocity":0.7637795275590551,"duration":0.2057291666666572},{"name":"D#5","midi":75,"time":253.72005208332934,"velocity":0.7637795275590551,"duration":0.4153645833333144},{"name":"C4","midi":60,"time":253.72005208332934,"velocity":0.7637795275590551,"duration":0.3802083333333144},{"name":"G4","midi":67,"time":253.929687499996,"velocity":0.7637795275590551,"duration":0.2057291666666572},{"name":"D5","midi":74,"time":254.1380208333293,"velocity":0.7637795275590551,"duration":0.4153645833333144},{"name":"A4","midi":69,"time":254.1380208333293,"velocity":0.7637795275590551,"duration":0.2057291666666572},{"name":"A#3","midi":58,"time":254.1380208333293,"velocity":0.7637795275590551,"duration":0.3802083333333144},{"name":"A#4","midi":70,"time":254.34765624999596,"velocity":0.7637795275590551,"duration":0.2057291666666572},{"name":"E5","midi":76,"time":254.55729166666262,"velocity":0.7637795275590551,"duration":0.4153645833333144},{"name":"C5","midi":72,"time":254.55729166666262,"velocity":0.7637795275590551,"duration":0.2057291666666572},{"name":"A#3","midi":58,"time":254.55729166666262,"velocity":0.7637795275590551,"duration":0.13671875},{"name":"A3","midi":57,"time":254.69661458332928,"velocity":0.7637795275590551,"duration":0.13671875},{"name":"A4","midi":69,"time":254.76562499999594,"velocity":0.7637795275590551,"duration":0.2057291666666572},{"name":"A#3","midi":58,"time":254.83593749999594,"velocity":0.7637795275590551,"duration":0.13671875},{"name":"F#5","midi":78,"time":254.9752604166626,"velocity":0.7637795275590551,"duration":0.4153645833333144},{"name":"D4","midi":62,"time":254.9752604166626,"velocity":0.7637795275590551,"duration":0.2057291666666572},{"name":"A3","midi":57,"time":254.9752604166626,"velocity":0.7637795275590551,"duration":0.13671875},{"name":"G3","midi":55,"time":255.11458333332925,"velocity":0.7637795275590551,"duration":0.13671875},{"name":"C5","midi":72,"time":255.18489583332925,"velocity":0.7637795275590551,"duration":0.2057291666666572},{"name":"A3","midi":57,"time":255.2539062499959,"velocity":0.7637795275590551,"duration":0.13671875},{"name":"G5","midi":79,"time":255.39322916666256,"velocity":0.7637795275590551,"duration":0.2057291666666572},{"name":"A#4","midi":70,"time":255.39322916666256,"velocity":0.7637795275590551,"duration":0.8255208333333428},{"name":"G3","midi":55,"time":255.39322916666256,"velocity":0.7637795275590551,"duration":0.2057291666666572},{"name":"D5","midi":74,"time":255.60286458332922,"velocity":0.7637795275590551,"duration":0.2057291666666572},{"name":"A#3","midi":58,"time":255.60286458332922,"velocity":0.7637795275590551,"duration":0.2057291666666572},{"name":"C5","midi":72,"time":255.81249999999588,"velocity":0.7637795275590551,"duration":0.2057291666666572},{"name":"G#3","midi":56,"time":255.81249999999588,"velocity":0.7637795275590551,"duration":0.2057291666666572},{"name":"D5","midi":74,"time":256.0208333333292,"velocity":0.7637795275590551,"duration":0.20442708333337123},{"name":"A#3","midi":58,"time":256.0208333333292,"velocity":0.7637795275590551,"duration":0.20442708333337123},{"name":"A#4","midi":70,"time":256.2278645833293,"velocity":0.7637795275590551,"duration":0.8255208333334281},{"name":"G3","midi":55,"time":256.2278645833293,"velocity":0.7637795275590551,"duration":0.20572916666668561},{"name":"E5","midi":76,"time":256.43749999999596,"velocity":0.7637795275590551,"duration":0.20572916666668561},{"name":"G#3","midi":56,"time":256.43749999999596,"velocity":0.7637795275590551,"duration":0.20572916666668561},{"name":"D5","midi":74,"time":256.64583333332934,"velocity":0.7637795275590551,"duration":0.20572916666668561},{"name":"F3","midi":53,"time":256.64583333332934,"velocity":0.7637795275590551,"duration":0.20572916666668561},{"name":"E5","midi":76,"time":256.855468749996,"velocity":0.7637795275590551,"duration":0.20442708333337123},{"name":"G3","midi":55,"time":256.855468749996,"velocity":0.7637795275590551,"duration":0.20442708333337123},{"name":"G5","midi":79,"time":257.0638020833294,"velocity":0.7637795275590551,"duration":0.41536458333337123},{"name":"E3","midi":52,"time":257.0638020833294,"velocity":0.7637795275590551,"duration":0.20572916666668561},{"name":"C#5","midi":73,"time":257.27213541666276,"velocity":0.7637795275590551,"duration":0.20572916666668561},{"name":"C4","midi":60,"time":257.27213541666276,"velocity":0.7637795275590551,"duration":0.20572916666668561},{"name":"F5","midi":77,"time":257.48177083332945,"velocity":0.7637795275590551,"duration":1.2526041666667993},{"name":"C5","midi":72,"time":257.48177083332945,"velocity":0.7637795275590551,"duration":0.20572916666668561},{"name":"G#3","midi":56,"time":257.48177083332945,"velocity":0.7637795275590551,"duration":0.20572916666668561},{"name":"A#4","midi":70,"time":257.69140624999613,"velocity":0.7637795275590551,"duration":0.20572916666668561},{"name":"F3","midi":53,"time":257.69140624999613,"velocity":0.7637795275590551,"duration":0.20572916666668561},{"name":"G#4","midi":68,"time":257.8997395833295,"velocity":0.7637795275590551,"duration":0.20572916666668561},{"name":"C3","midi":48,"time":257.8997395833295,"velocity":0.7637795275590551,"duration":0.20572916666668561},{"name":"G4","midi":67,"time":258.1093749999962,"velocity":0.7637795275590551,"duration":0.20572916666668561},{"name":"F3","midi":53,"time":258.1093749999962,"velocity":0.7637795275590551,"duration":0.20572916666668561},{"name":"F4","midi":65,"time":258.3190104166629,"velocity":0.7637795275590551,"duration":0.20572916666668561},{"name":"C3","midi":48,"time":258.3190104166629,"velocity":0.7637795275590551,"duration":0.20572916666668561},{"name":"G4","midi":67,"time":258.52864583332956,"velocity":0.7637795275590551,"duration":0.20572916666668561},{"name":"G#2","midi":44,"time":258.52864583332956,"velocity":0.7637795275590551,"duration":0.20572916666668561},{"name":"F5","midi":77,"time":258.73697916666293,"velocity":0.7637795275590551,"duration":0.20572916666668561},{"name":"G#4","midi":68,"time":258.73697916666293,"velocity":0.7637795275590551,"duration":0.8255208333333712},{"name":"F2","midi":41,"time":258.73697916666293,"velocity":0.7637795275590551,"duration":0.20572916666668561},{"name":"C5","midi":72,"time":258.9466145833296,"velocity":0.7637795275590551,"duration":0.20572916666668561},{"name":"G#3","midi":56,"time":258.9466145833296,"velocity":0.7637795275590551,"duration":0.20572916666668561},{"name":"A#4","midi":70,"time":259.1562499999963,"velocity":0.7637795275590551,"duration":0.20572916666668561},{"name":"G3","midi":55,"time":259.1562499999963,"velocity":0.7637795275590551,"duration":0.20572916666668561},{"name":"C5","midi":72,"time":259.3632812499963,"velocity":0.7637795275590551,"duration":0.20442708333331439},{"name":"G#3","midi":56,"time":259.3632812499963,"velocity":0.7637795275590551,"duration":0.20442708333331439},{"name":"G#4","midi":68,"time":259.5716145833296,"velocity":0.7637795275590551,"duration":0.8255208333334281},{"name":"F3","midi":53,"time":259.5716145833296,"velocity":0.7637795275590551,"duration":0.20572916666668561},{"name":"D5","midi":74,"time":259.7812499999963,"velocity":0.7637795275590551,"duration":0.20572916666668561},{"name":"G3","midi":55,"time":259.7812499999963,"velocity":0.7637795275590551,"duration":0.20572916666668561},{"name":"C5","midi":72,"time":259.9895833333297,"velocity":0.7637795275590551,"duration":0.20572916666668561},{"name":"D#3","midi":51,"time":259.9895833333297,"velocity":0.7637795275590551,"duration":0.20572916666668561},{"name":"D5","midi":74,"time":260.19921874999636,"velocity":0.7637795275590551,"duration":0.20442708333337123},{"name":"F3","midi":53,"time":260.19921874999636,"velocity":0.7637795275590551,"duration":0.20442708333337123},{"name":"F5","midi":77,"time":260.40755208332973,"velocity":0.7637795275590551,"duration":0.41536458333337123},{"name":"D3","midi":50,"time":260.40755208332973,"velocity":0.7637795275590551,"duration":0.20572916666668561},{"name":"C5","midi":72,"time":260.6158854166631,"velocity":0.7637795275590551,"duration":0.20572916666668561},{"name":"A#3","midi":58,"time":260.6158854166631,"velocity":0.7637795275590551,"duration":0.20572916666668561},{"name":"D#5","midi":75,"time":260.8255208333298,"velocity":0.7637795275590551,"duration":0.6093750000000568},{"name":"A#4","midi":70,"time":260.8255208333298,"velocity":0.7637795275590551,"duration":0.20572916666668561},{"name":"G3","midi":55,"time":260.8255208333298,"velocity":0.7637795275590551,"duration":0.20572916666668561},{"name":"G#4","midi":68,"time":261.0351562499965,"velocity":0.7637795275590551,"duration":0.20572916666668561},{"name":"D#3","midi":51,"time":261.0351562499965,"velocity":0.7637795275590551,"duration":0.20572916666668561},{"name":"G4","midi":67,"time":261.24348958332985,"velocity":0.7637795275590551,"duration":0.20572916666668561},{"name":"A#2","midi":46,"time":261.24348958332985,"velocity":0.7637795275590551,"duration":0.20572916666668561},{"name":"F4","midi":65,"time":261.45312499999653,"velocity":0.7637795275590551,"duration":0.20572916666668561},{"name":"D#3","midi":51,"time":261.45312499999653,"velocity":0.7637795275590551,"duration":0.20572916666668561},{"name":"D#4","midi":63,"time":261.6627604166632,"velocity":0.7637795275590551,"duration":0.20572916666668561},{"name":"A#2","midi":46,"time":261.6627604166632,"velocity":0.7637795275590551,"duration":0.20572916666668561},{"name":"F4","midi":65,"time":261.8697916666632,"velocity":0.7637795275590551,"duration":0.20572916666668561},{"name":"G2","midi":43,"time":261.8697916666632,"velocity":0.7637795275590551,"duration":0.20572916666668561},{"name":"G4","midi":67,"time":262.0794270833299,"velocity":0.7637795275590551,"duration":0.8255208333334281},{"name":"D#2","midi":39,"time":262.0794270833299,"velocity":0.7637795275590551,"duration":0.41536458333337123},{"name":"A#4","midi":70,"time":262.2890624999966,"velocity":0.7637795275590551,"duration":0.20572916666668561},{"name":"D#5","midi":75,"time":262.49739583332996,"velocity":0.7637795275590551,"duration":0.20572916666668561},{"name":"D#3","midi":51,"time":262.49739583332996,"velocity":0.7637795275590551,"duration":0.41406250000005684},{"name":"C5","midi":72,"time":262.70703124999665,"velocity":0.7637795275590551,"duration":0.20442708333337123},{"name":"C#5","midi":73,"time":262.91536458333,"velocity":0.7637795275590551,"duration":0.8255208333333712},{"name":"F3","midi":53,"time":262.91536458333,"velocity":0.7637795275590551,"duration":0.4153645833333144},{"name":"A#4","midi":70,"time":263.12369791666333,"velocity":0.7637795275590551,"duration":0.20572916666668561},{"name":"G4","midi":67,"time":263.33333333333,"velocity":0.7637795275590551,"duration":0.20572916666668561},{"name":"G3","midi":55,"time":263.33333333333,"velocity":0.7637795275590551,"duration":0.41406250000005684},{"name":"D#4","midi":63,"time":263.5429687499967,"velocity":0.7637795275590551,"duration":0.41145833333337123},{"name":"G#3","midi":56,"time":263.74999999999676,"velocity":0.7637795275590551,"duration":0.4153645833333144},{"name":"C5","midi":72,"time":263.9596354166634,"velocity":0.7637795275590551,"duration":0.20572916666668561},{"name":"F5","midi":77,"time":264.1692708333301,"velocity":0.7637795275590551,"duration":0.20572916666668561},{"name":"F3","midi":53,"time":264.1692708333301,"velocity":0.7637795275590551,"duration":0.41536458333337123},{"name":"D5","midi":74,"time":264.3763020833301,"velocity":0.7637795275590551,"duration":0.20572916666668561},{"name":"D#5","midi":75,"time":264.58593749999676,"velocity":0.7637795275590551,"duration":0.8255208333334281},{"name":"G3","midi":55,"time":264.58593749999676,"velocity":0.7637795275590551,"duration":0.41536458333337123},{"name":"C5","midi":72,"time":264.79557291666345,"velocity":0.7637795275590551,"duration":0.20572916666668561},{"name":"A4","midi":69,"time":265.0039062499968,"velocity":0.7637795275590551,"duration":0.20572916666668561},{"name":"A3","midi":57,"time":265.0039062499968,"velocity":0.7637795275590551,"duration":0.41406250000005684},{"name":"F4","midi":65,"time":265.2135416666635,"velocity":0.7637795275590551,"duration":0.41145833333337123},{"name":"A#3","midi":58,"time":265.4218749999969,"velocity":0.7637795275590551,"duration":0.4153645833333144},{"name":"D5","midi":74,"time":265.6302083333302,"velocity":0.7637795275590551,"duration":0.20572916666668561},{"name":"G5","midi":79,"time":265.8398437499969,"velocity":0.7637795275590551,"duration":0.20572916666668561},{"name":"G3","midi":55,"time":265.8398437499969,"velocity":0.7637795275590551,"duration":0.41536458333337123},{"name":"D#5","midi":75,"time":266.04947916666356,"velocity":0.7637795275590551,"duration":0.20572916666668561},{"name":"F5","midi":77,"time":266.25781249999693,"velocity":0.7637795275590551,"duration":1.0416666666667425},{"name":"A3","midi":57,"time":266.25781249999693,"velocity":0.7637795275590551,"duration":0.41536458333337123},{"name":"D5","midi":74,"time":266.4674479166636,"velocity":0.7637795275590551,"duration":0.20572916666668561},{"name":"B4","midi":71,"time":266.6770833333303,"velocity":0.7637795275590551,"duration":0.20572916666668561},{"name":"B3","midi":59,"time":266.6770833333303,"velocity":0.7637795275590551,"duration":0.41536458333337123},{"name":"G4","midi":67,"time":266.8854166666637,"velocity":0.7637795275590551,"duration":0.4127604166666856},{"name":"C4","midi":60,"time":267.09505208333036,"velocity":0.7637795275590551,"duration":0.4140625},{"name":"D#5","midi":75,"time":267.30208333333036,"velocity":0.7637795275590551,"duration":0.20572916666668561},{"name":"G5","midi":79,"time":267.5104166666637,"velocity":0.7637795275590551,"duration":0.20572916666668561},{"name":"C3","midi":48,"time":267.5104166666637,"velocity":0.7637795275590551,"duration":0.41536458333337123},{"name":"A#5","midi":82,"time":267.72005208333036,"velocity":0.7637795275590551,"duration":0.20572916666668561},{"name":"G#5","midi":80,"time":267.92968749999704,"velocity":0.7637795275590551,"duration":0.609375},{"name":"D3","midi":50,"time":267.92968749999704,"velocity":0.7637795275590551,"duration":0.4153645833333144},{"name":"F5","midi":77,"time":268.13802083333036,"velocity":0.7637795275590551,"duration":0.20572916666668561},{"name":"A#4","midi":70,"time":268.34765624999704,"velocity":0.7637795275590551,"duration":0.4140625},{"name":"D#3","midi":51,"time":268.34765624999704,"velocity":0.7637795275590551,"duration":0.6236979166666288},{"name":"G5","midi":79,"time":268.55859374999704,"velocity":0.7637795275590551,"duration":0.20442708333331439},{"name":"F5","midi":77,"time":268.76692708333036,"velocity":0.7637795275590551,"duration":0.4153645833333144},{"name":"D3","midi":50,"time":268.9752604166637,"velocity":0.7637795275590551,"duration":0.20572916666668561},{"name":"G#5","midi":80,"time":269.18489583333036,"velocity":0.7637795275590551,"duration":0.41536458333337123},{"name":"F5","midi":77,"time":269.18489583333036,"velocity":0.7637795275590551,"duration":0.41536458333337123},{"name":"C3","midi":48,"time":269.18489583333036,"velocity":0.7637795275590551,"duration":0.20572916666668561},{"name":"D3","midi":50,"time":269.39453124999704,"velocity":0.7637795275590551,"duration":0.20572916666668561},{"name":"G5","midi":79,"time":269.6028645833304,"velocity":0.7637795275590551,"duration":0.41536458333337123},{"name":"D#5","midi":75,"time":269.6028645833304,"velocity":0.7637795275590551,"duration":0.41536458333337123},{"name":"A#2","midi":46,"time":269.6028645833304,"velocity":0.7637795275590551,"duration":0.20572916666668561},{"name":"D#3","midi":51,"time":269.8124999999971,"velocity":0.7637795275590551,"duration":0.20572916666668561},{"name":"F5","midi":77,"time":270.0221354166638,"velocity":0.7637795275590551,"duration":0.41536458333337123},{"name":"G#4","midi":68,"time":270.0221354166638,"velocity":0.7637795275590551,"duration":0.41536458333337123},{"name":"D3","midi":50,"time":270.0221354166638,"velocity":0.7637795275590551,"duration":0.20572916666668561},{"name":"D#3","midi":51,"time":270.23046874999716,"velocity":0.7637795275590551,"duration":0.20572916666668561},{"name":"D#5","midi":75,"time":270.4388020833305,"velocity":0.7637795275590551,"duration":0.20572916666668561},{"name":"A#4","midi":70,"time":270.4388020833305,"velocity":0.7637795275590551,"duration":0.41536458333337123},{"name":"G3","midi":55,"time":270.4388020833305,"velocity":0.7637795275590551,"duration":0.38020833333337123},{"name":"C5","midi":72,"time":270.64843749999716,"velocity":0.7637795275590551,"duration":0.20572916666668561},{"name":"D5","midi":74,"time":270.85677083333053,"velocity":0.7637795275590551,"duration":0.20572916666668561},{"name":"G#4","midi":68,"time":270.85677083333053,"velocity":0.7637795275590551,"duration":0.20572916666668561},{"name":"F3","midi":53,"time":270.85677083333053,"velocity":0.7637795275590551,"duration":0.38020833333337123},{"name":"D#5","midi":75,"time":271.0664062499972,"velocity":0.7637795275590551,"duration":0.20572916666668561},{"name":"G4","midi":67,"time":271.0664062499972,"velocity":0.7637795275590551,"duration":0.20572916666668561},{"name":"F5","midi":77,"time":271.2760416666639,"velocity":0.7637795275590551,"duration":1.0429687500001137},{"name":"G#4","midi":68,"time":271.2760416666639,"velocity":0.7637795275590551,"duration":0.20572916666668561},{"name":"D5","midi":74,"time":271.48437499999727,"velocity":0.7637795275590551,"duration":0.20572916666668561},{"name":"A#4","midi":70,"time":271.69401041666396,"velocity":0.7637795275590551,"duration":0.20572916666668561},{"name":"D3","midi":50,"time":271.69401041666396,"velocity":0.7637795275590551,"duration":0.20572916666668561},{"name":"F4","midi":65,"time":271.90364583333064,"velocity":0.7637795275590551,"duration":0.20572916666668561},{"name":"A#2","midi":46,"time":271.90364583333064,"velocity":0.7637795275590551,"duration":0.20572916666668561},{"name":"D4","midi":62,"time":272.111979166664,"velocity":0.7637795275590551,"duration":0.41536458333337123},{"name":"G#3","midi":56,"time":272.111979166664,"velocity":0.7637795275590551,"duration":0.38020833333337123},{"name":"D#5","midi":75,"time":272.3216145833307,"velocity":0.7637795275590551,"duration":0.20572916666668561},{"name":"F5","midi":77,"time":272.5312499999974,"velocity":0.7637795275590551,"duration":0.20572916666668561},{"name":"D#4","midi":63,"time":272.5312499999974,"velocity":0.7637795275590551,"duration":0.8333333333334281},{"name":"G3","midi":55,"time":272.5312499999974,"velocity":0.7637795275590551,"duration":0.38020833333337123},{"name":"G5","midi":79,"time":272.73958333333076,"velocity":0.7637795275590551,"duration":0.20572916666668561},{"name":"G#5","midi":80,"time":272.94921874999744,"velocity":0.7637795275590551,"duration":0.20572916666668561},{"name":"F3","midi":53,"time":272.94921874999744,"velocity":0.7637795275590551,"duration":0.8333333333334281},{"name":"F5","midi":77,"time":273.1588541666641,"velocity":0.7637795275590551,"duration":0.20572916666668561},{"name":"A#4","midi":70,"time":273.3671874999975,"velocity":0.7637795275590551,"duration":0.20572916666668561},{"name":"D4","midi":62,"time":273.3671874999975,"velocity":0.7637795275590551,"duration":0.41536458333337123},{"name":"G#5","midi":80,"time":273.5768229166642,"velocity":0.7637795275590551,"duration":0.20572916666668561},{"name":"G5","midi":79,"time":273.78645833333087,"velocity":0.7637795275590551,"duration":0.20572916666668561},{"name":"D#4","midi":63,"time":273.78645833333087,"velocity":0.7637795275590551,"duration":0.390625},{"name":"D#3","midi":51,"time":273.78645833333087,"velocity":0.7637795275590551,"duration":0.8255208333333712},{"name":"A#5","midi":82,"time":273.99348958333087,"velocity":0.7637795275590551,"duration":0.20572916666668561},{"name":"G5","midi":79,"time":274.20312499999756,"velocity":0.7637795275590551,"duration":0.20572916666668561},{"name":"D#2","midi":39,"time":274.20312499999756,"velocity":0.7637795275590551,"duration":0.4140625},{"name":"D#5","midi":75,"time":274.41276041666424,"velocity":0.7637795275590551,"duration":0.20442708333331439},{"name":"C#5","midi":73,"time":274.61979166666424,"velocity":0.7637795275590551,"duration":0.8333333333333712},{"name":"F2","midi":41,"time":274.61979166666424,"velocity":0.7637795275590551,"duration":0.41536458333337123},{"name":"A#4","midi":70,"time":274.8294270833309,"velocity":0.7637795275590551,"duration":0.20572916666668561},{"name":"G4","midi":67,"time":275.0390624999976,"velocity":0.7637795275590551,"duration":0.20572916666668561},{"name":"G2","midi":43,"time":275.0390624999976,"velocity":0.7637795275590551,"duration":0.4153645833333144},{"name":"D#4","midi":63,"time":275.2486979166643,"velocity":0.7637795275590551,"duration":0.20572916666662877},{"name":"C5","midi":72,"time":275.4570312499976,"velocity":0.7637795275590551,"duration":0.4127604166666856},{"name":"G#3","midi":56,"time":275.4570312499976,"velocity":0.7637795275590551,"duration":0.4127604166666856},{"name":"G#2","midi":44,"time":275.4570312499976,"velocity":0.7637795275590551,"duration":0.4140625},{"name":"C6","midi":84,"time":275.6666666666643,"velocity":0.7637795275590551,"duration":0.20442708333331439},{"name":"G#5","midi":80,"time":275.8749999999976,"velocity":0.7637795275590551,"duration":0.20572916666668561},{"name":"F2","midi":41,"time":275.8749999999976,"velocity":0.7637795275590551,"duration":0.41536458333337123},{"name":"F5","midi":77,"time":276.083333333331,"velocity":0.7637795275590551,"duration":0.20572916666668561},{"name":"D#5","midi":75,"time":276.29296874999767,"velocity":0.7637795275590551,"duration":0.8333333333333144},{"name":"G2","midi":43,"time":276.29296874999767,"velocity":0.7637795275590551,"duration":0.4153645833333144},{"name":"C5","midi":72,"time":276.501302083331,"velocity":0.7637795275590551,"duration":0.20572916666668561},{"name":"A4","midi":69,"time":276.7096354166643,"velocity":0.7637795275590551,"duration":0.20572916666668561},{"name":"A2","midi":45,"time":276.7096354166643,"velocity":0.7637795275590551,"duration":0.41536458333337123},{"name":"F4","midi":65,"time":276.919270833331,"velocity":0.7637795275590551,"duration":0.20572916666668561},{"name":"D5","midi":74,"time":277.12890624999767,"velocity":0.7637795275590551,"duration":0.20572916666668561},{"name":"A#3","midi":58,"time":277.12890624999767,"velocity":0.7637795275590551,"duration":0.8255208333334281},{"name":"A#2","midi":46,"time":277.12890624999767,"velocity":0.7637795275590551,"duration":0.41536458333337123},{"name":"F5","midi":77,"time":277.33723958333104,"velocity":0.7637795275590551,"duration":0.20572916666668561},{"name":"D5","midi":74,"time":277.5468749999977,"velocity":0.7637795275590551,"duration":0.20572916666668561},{"name":"A#2","midi":46,"time":277.5468749999977,"velocity":0.7637795275590551,"duration":0.41406250000005684},{"name":"A#4","midi":70,"time":277.7565104166644,"velocity":0.7637795275590551,"duration":0.20442708333337123},{"name":"G#4","midi":68,"time":277.96354166666447,"velocity":0.7637795275590551,"duration":1.0429687500001137},{"name":"C3","midi":48,"time":277.96354166666447,"velocity":0.7637795275590551,"duration":0.41536458333337123},{"name":"F4","midi":65,"time":278.17317708333115,"velocity":0.7637795275590551,"duration":0.20572916666668561},{"name":"D4","midi":62,"time":278.38281249999784,"velocity":0.7637795275590551,"duration":0.20572916666668561},{"name":"D3","midi":50,"time":278.38281249999784,"velocity":0.7637795275590551,"duration":0.41536458333337123},{"name":"A#3","midi":58,"time":278.5911458333312,"velocity":0.7637795275590551,"duration":0.20572916666668561},{"name":"D#3","midi":51,"time":278.8007812499979,"velocity":0.7637795275590551,"duration":2.7161458333336554},{"name":"G4","midi":67,"time":279.0104166666646,"velocity":0.7637795275590551,"duration":0.20572916666668561},{"name":"F4","midi":65,"time":279.21874999999795,"velocity":0.7637795275590551,"duration":0.20572916666668561},{"name":"C#4","midi":61,"time":279.21874999999795,"velocity":0.7637795275590551,"duration":0.41536458333337123},{"name":"G4","midi":67,"time":279.42838541666464,"velocity":0.7637795275590551,"duration":0.20572916666668561},{"name":"D#4","midi":63,"time":279.636718749998,"velocity":0.7637795275590551,"duration":0.20572916666668561},{"name":"C4","midi":60,"time":279.636718749998,"velocity":0.7637795275590551,"duration":0.41536458333337123},{"name":"G#4","midi":68,"time":279.8450520833314,"velocity":0.7637795275590551,"duration":0.20572916666668561},{"name":"G4","midi":67,"time":280.05468749999807,"velocity":0.7637795275590551,"duration":0.20572916666668561},{"name":"A#3","midi":58,"time":280.05468749999807,"velocity":0.7637795275590551,"duration":0.41536458333337123},{"name":"G#4","midi":68,"time":280.26432291666475,"velocity":0.7637795275590551,"duration":0.20572916666668561},{"name":"C5","midi":72,"time":280.4726562499981,"velocity":0.7637795275590551,"duration":0.41536458333337123},{"name":"G#3","midi":56,"time":280.4726562499981,"velocity":0.7637795275590551,"duration":0.20572916666668561},{"name":"G3","midi":55,"time":280.6822916666648,"velocity":0.7637795275590551,"duration":0.20572916666668561},{"name":"A#4","midi":70,"time":280.8919270833315,"velocity":0.7637795275590551,"duration":0.8333333333334281},{"name":"G#3","midi":56,"time":280.8919270833315,"velocity":0.7637795275590551,"duration":0.20572916666668561},{"name":"A#3","midi":58,"time":281.10026041666487,"velocity":0.7637795275590551,"duration":0.20572916666668561},{"name":"C4","midi":60,"time":281.30989583333155,"velocity":0.7637795275590551,"duration":1.0429687500001137},{"name":"D3","midi":50,"time":281.51953124999824,"velocity":0.7637795275590551,"duration":0.20572916666668561},{"name":"A4","midi":69,"time":281.7278645833316,"velocity":0.7637795275590551,"duration":0.20572916666668561},{"name":"D#3","midi":51,"time":281.7278645833316,"velocity":0.7637795275590551,"duration":0.20572916666668561},{"name":"F4","midi":65,"time":281.9374999999983,"velocity":0.7637795275590551,"duration":0.20572916666668561},{"name":"F3","midi":53,"time":281.9374999999983,"velocity":0.7637795275590551,"duration":0.20572916666668561},{"name":"D#5","midi":75,"time":282.147135416665,"velocity":0.7637795275590551,"duration":0.41536458333337123},{"name":"G3","midi":55,"time":282.147135416665,"velocity":0.7637795275590551,"duration":0.6236979166667425},{"name":"A#3","midi":58,"time":282.35677083333167,"velocity":0.7637795275590551,"duration":0.20572916666668561},{"name":"D5","midi":74,"time":282.56510416666504,"velocity":0.7637795275590551,"duration":0.41536458333337123},{"name":"C4","midi":60,"time":282.56510416666504,"velocity":0.7637795275590551,"duration":0.20572916666668561},{"name":"D4","midi":62,"time":282.7747395833317,"velocity":0.7637795275590551,"duration":0.20572916666668561},{"name":"F3","midi":53,"time":282.7747395833317,"velocity":0.7637795275590551,"duration":0.20572916666668561},{"name":"D5","midi":74,"time":282.9843749999984,"velocity":0.7637795275590551,"duration":0.13671875},{"name":"D#4","midi":63,"time":282.9843749999984,"velocity":0.7637795275590551,"duration":0.20572916666662877},{"name":"D#3","midi":51,"time":282.9843749999984,"velocity":0.7637795275590551,"duration":0.41536458333325754},{"name":"C5","midi":72,"time":283.1223958333317,"velocity":0.7637795275590551,"duration":0.13671874999994316},{"name":"C4","midi":60,"time":283.19140624999835,"velocity":0.7637795275590551,"duration":0.4153645833333144},{"name":"D5","midi":74,"time":283.26171874999835,"velocity":0.7637795275590551,"duration":0.13671875},{"name":"C5","midi":72,"time":283.401041666665,"velocity":0.7637795275590551,"duration":0.13671875},{"name":"F3","midi":53,"time":283.401041666665,"velocity":0.7637795275590551,"duration":0.41536458333337123},{"name":"A#4","midi":70,"time":283.54036458333167,"velocity":0.7637795275590551,"duration":0.13671875},{"name":"D#4","midi":63,"time":283.61067708333167,"velocity":0.7637795275590551,"duration":0.20572916666668561},{"name":"C5","midi":72,"time":283.67968749999835,"velocity":0.7637795275590551,"duration":0.13671875},{"name":"A#4","midi":70,"time":283.81901041666504,"velocity":0.7637795275590551,"duration":0.4153645833333144},{"name":"D4","midi":62,"time":283.81901041666504,"velocity":0.7637795275590551,"duration":0.390625},{"name":"A#2","midi":46,"time":283.81901041666504,"velocity":0.7637795275590551,"duration":0.20572916666668561},{"name":"F3","midi":53,"time":284.0286458333317,"velocity":0.7637795275590551,"duration":0.20572916666662877},{"name":"F5","midi":77,"time":284.23828124999835,"velocity":0.7637795275590551,"duration":0.41536458333337123},{"name":"D3","midi":50,"time":284.23828124999835,"velocity":0.7637795275590551,"duration":0.20572916666668561},{"name":"A#2","midi":46,"time":284.4466145833317,"velocity":0.7637795275590551,"duration":0.20572916666668561},{"name":"D5","midi":74,"time":284.6562499999984,"velocity":0.7637795275590551,"duration":0.41536458333337123},{"name":"G#2","midi":44,"time":284.6562499999984,"velocity":0.7637795275590551,"duration":0.20572916666668561},{"name":"F3","midi":53,"time":284.8658854166651,"velocity":0.7637795275590551,"duration":0.20572916666668561},{"name":"A#4","midi":70,"time":285.07421874999847,"velocity":0.7637795275590551,"duration":0.41536458333337123},{"name":"D3","midi":50,"time":285.07421874999847,"velocity":0.7637795275590551,"duration":0.20572916666668561},{"name":"G#2","midi":44,"time":285.28385416666515,"velocity":0.7637795275590551,"duration":0.20572916666668561},{"name":"A#5","midi":82,"time":285.49348958333184,"velocity":0.7637795275590551,"duration":2.088541666666856},{"name":"G2","midi":43,"time":285.49348958333184,"velocity":0.7637795275590551,"duration":0.3802083333333144},{"name":"A#4","midi":70,"time":285.70182291666515,"velocity":0.7637795275590551,"duration":0.20572916666668561},{"name":"D#5","midi":75,"time":285.91145833333184,"velocity":0.7637795275590551,"duration":0.20572916666668561},{"name":"G3","midi":55,"time":285.91145833333184,"velocity":0.7637795275590551,"duration":0.38020833333337123},{"name":"G5","midi":79,"time":286.1210937499985,"velocity":0.7637795275590551,"duration":0.20572916666668561},{"name":"C#5","midi":73,"time":286.3294270833319,"velocity":0.7637795275590551,"duration":0.20572916666668561},{"name":"A#4","midi":70,"time":286.53776041666526,"velocity":0.7637795275590551,"duration":0.20572916666668561},{"name":"C#5","midi":73,"time":286.74739583333195,"velocity":0.7637795275590551,"duration":0.20572916666668561},{"name":"D#2","midi":39,"time":286.74739583333195,"velocity":0.7637795275590551,"duration":0.41536458333337123},{"name":"G5","midi":79,"time":286.9557291666653,"velocity":0.7637795275590551,"duration":0.20572916666668561},{"name":"C5","midi":72,"time":287.165364583332,"velocity":0.7637795275590551,"duration":0.8255208333333712},{"name":"G#2","midi":44,"time":287.165364583332,"velocity":0.7637795275590551,"duration":0.20572916666668561},{"name":"D#3","midi":51,"time":287.3749999999987,"velocity":0.7637795275590551,"duration":0.20572916666668561},{"name":"D#5","midi":75,"time":287.583333333332,"velocity":0.7637795275590551,"duration":0.41406250000005684},{"name":"C3","midi":48,"time":287.583333333332,"velocity":0.7637795275590551,"duration":0.20572916666668561},{"name":"G#2","midi":44,"time":287.7929687499987,"velocity":0.7637795275590551,"duration":0.20442708333337123},{"name":"C5","midi":72,"time":288.00130208333206,"velocity":0.7637795275590551,"duration":0.8255208333334281},{"name":"G2","midi":43,"time":288.00130208333206,"velocity":0.7637795275590551,"duration":0.20572916666668561},{"name":"D#3","midi":51,"time":288.20963541666544,"velocity":0.7637795275590551,"duration":0.20572916666668561},{"name":"G#4","midi":68,"time":288.4192708333321,"velocity":0.7637795275590551,"duration":0.41406250000005684},{"name":"C3","midi":48,"time":288.4192708333321,"velocity":0.7637795275590551,"duration":0.20572916666668561},{"name":"G2","midi":43,"time":288.6289062499988,"velocity":0.7637795275590551,"duration":0.20442708333337123},{"name":"G#5","midi":80,"time":288.83593749999886,"velocity":0.7637795275590551,"duration":2.088541666666913},{"name":"F2","midi":41,"time":288.83593749999886,"velocity":0.7637795275590551,"duration":0.38020833333337123},{"name":"G#4","midi":68,"time":289.04557291666555,"velocity":0.7637795275590551,"duration":0.20572916666668561},{"name":"D5","midi":74,"time":289.2539062499989,"velocity":0.7637795275590551,"duration":0.20572916666668561},{"name":"F3","midi":53,"time":289.2539062499989,"velocity":0.7637795275590551,"duration":0.38020833333337123},{"name":"F5","midi":77,"time":289.4622395833323,"velocity":0.7637795275590551,"duration":0.20572916666668561},{"name":"C5","midi":72,"time":289.671874999999,"velocity":0.7637795275590551,"duration":0.20572916666668561},{"name":"G#4","midi":68,"time":289.88151041666566,"velocity":0.7637795275590551,"duration":0.20572916666668561},{"name":"C5","midi":72,"time":290.09114583333235,"velocity":0.7637795275590551,"duration":0.20572916666668561},{"name":"D2","midi":38,"time":290.09114583333235,"velocity":0.7637795275590551,"duration":0.41536458333337123},{"name":"F5","midi":77,"time":290.2994791666657,"velocity":0.7637795275590551,"duration":0.20572916666668561},{"name":"A#4","midi":70,"time":290.5091145833324,"velocity":0.7637795275590551,"duration":0.8255208333334281},{"name":"G2","midi":43,"time":290.5091145833324,"velocity":0.7637795275590551,"duration":0.20572916666668561},{"name":"D3","midi":50,"time":290.7187499999991,"velocity":0.7637795275590551,"duration":0.20572916666668561},{"name":"D5","midi":74,"time":290.92708333333246,"velocity":0.7637795275590551,"duration":0.41406250000005684},{"name":"A#2","midi":46,"time":290.92708333333246,"velocity":0.7637795275590551,"duration":0.20572916666668561},{"name":"G2","midi":43,"time":291.13671874999915,"velocity":0.7637795275590551,"duration":0.20442708333337123},{"name":"A#4","midi":70,"time":291.3450520833325,"velocity":0.7637795275590551,"duration":0.8255208333334281},{"name":"F2","midi":41,"time":291.3450520833325,"velocity":0.7637795275590551,"duration":0.20572916666668561},{"name":"C#3","midi":49,"time":291.5533854166659,"velocity":0.7637795275590551,"duration":0.20572916666668561},{"name":"G4","midi":67,"time":291.7630208333326,"velocity":0.7637795275590551,"duration":0.8242187500000568},{"name":"A#2","midi":46,"time":291.7630208333326,"velocity":0.7637795275590551,"duration":0.20572916666668561},{"name":"F2","midi":41,"time":291.97265624999926,"velocity":0.7637795275590551,"duration":0.20442708333337123},{"name":"G5","midi":79,"time":292.17838541666595,"velocity":0.7637795275590551,"duration":1.0416666666667425},{"name":"E2","midi":40,"time":292.17838541666595,"velocity":0.7637795275590551,"duration":0.20572916666668561},{"name":"C3","midi":48,"time":292.38802083333263,"velocity":0.7637795275590551,"duration":0.20442708333331439},{"name":"A#4","midi":70,"time":292.59635416666595,"velocity":0.7637795275590551,"duration":0.41536458333337123},{"name":"G2","midi":43,"time":292.59635416666595,"velocity":0.7637795275590551,"duration":0.20572916666668561},{"name":"E2","midi":40,"time":292.8046874999993,"velocity":0.7637795275590551,"duration":0.20572916666668561},{"name":"G#4","midi":68,"time":293.014322916666,"velocity":0.7637795275590551,"duration":1.6705729166668561},{"name":"F2","midi":41,"time":293.014322916666,"velocity":0.7637795275590551,"duration":0.20572916666668561},{"name":"C5","midi":72,"time":293.2239583333327,"velocity":0.7637795275590551,"duration":0.20572916666668561},{"name":"C3","midi":48,"time":293.2239583333327,"velocity":0.7637795275590551,"duration":0.20572916666668561},{"name":"D5","midi":74,"time":293.43229166666606,"velocity":0.7637795275590551,"duration":0.20572916666668561},{"name":"G#2","midi":44,"time":293.43229166666606,"velocity":0.7637795275590551,"duration":0.20572916666668561},{"name":"D#5","midi":75,"time":293.64192708333275,"velocity":0.7637795275590551,"duration":0.20572916666668561},{"name":"F2","midi":41,"time":293.64192708333275,"velocity":0.7637795275590551,"duration":0.20572916666668561},{"name":"F5","midi":77,"time":293.85156249999943,"velocity":0.7637795275590551,"duration":0.20572916666668561},{"name":"D2","midi":38,"time":293.85156249999943,"velocity":0.7637795275590551,"duration":0.20572916666668561},{"name":"D#5","midi":75,"time":294.0598958333328,"velocity":0.7637795275590551,"duration":0.20572916666668561},{"name":"A#2","midi":46,"time":294.0598958333328,"velocity":0.7637795275590551,"duration":0.20572916666668561},{"name":"D5","midi":74,"time":294.2695312499995,"velocity":0.7637795275590551,"duration":0.20572916666668561},{"name":"F2","midi":41,"time":294.2695312499995,"velocity":0.7637795275590551,"duration":0.20572916666668561},{"name":"C5","midi":72,"time":294.4791666666662,"velocity":0.7637795275590551,"duration":0.20572916666668561},{"name":"D2","midi":38,"time":294.4791666666662,"velocity":0.7637795275590551,"duration":0.20572916666668561},{"name":"A#4","midi":70,"time":294.6861979166662,"velocity":0.7637795275590551,"duration":0.20572916666668561},{"name":"G4","midi":67,"time":294.6861979166662,"velocity":0.7637795275590551,"duration":0.41536458333337123},{"name":"D#2","midi":39,"time":294.6861979166662,"velocity":0.7637795275590551,"duration":0.20572916666668561},{"name":"G#4","midi":68,"time":294.89583333333286,"velocity":0.7637795275590551,"duration":0.20572916666668561},{"name":"A#2","midi":46,"time":294.89583333333286,"velocity":0.7637795275590551,"duration":0.20572916666668561},{"name":"A#4","midi":70,"time":295.10546874999955,"velocity":0.7637795275590551,"duration":0.20572916666668561},{"name":"D#4","midi":63,"time":295.10546874999955,"velocity":0.7637795275590551,"duration":0.6236979166667425},{"name":"G2","midi":43,"time":295.10546874999955,"velocity":0.7637795275590551,"duration":0.20572916666668561},{"name":"C5","midi":72,"time":295.3138020833329,"velocity":0.7637795275590551,"duration":0.20572916666668561},{"name":"D#2","midi":39,"time":295.3138020833329,"velocity":0.7637795275590551,"duration":0.20572916666668561},{"name":"F4","midi":65,"time":295.5234374999996,"velocity":0.7637795275590551,"duration":1.2526041666667993},{"name":"A#2","midi":46,"time":295.5234374999996,"velocity":0.7637795275590551,"duration":0.41536458333337123},{"name":"D4","midi":62,"time":295.7330729166663,"velocity":0.7637795275590551,"duration":0.20572916666668561},{"name":"C4","midi":60,"time":295.94140624999966,"velocity":0.7637795275590551,"duration":0.20572916666668561},{"name":"F3","midi":53,"time":295.94140624999966,"velocity":0.7637795275590551,"duration":0.41536458333337123},{"name":"D4","midi":62,"time":296.15104166666634,"velocity":0.7637795275590551,"duration":0.20572916666668561},{"name":"A#3","midi":58,"time":296.36067708333303,"velocity":0.7637795275590551,"duration":0.20572916666668561},{"name":"D3","midi":50,"time":296.36067708333303,"velocity":0.7637795275590551,"duration":0.41536458333337123},{"name":"D#4","midi":63,"time":296.5690104166664,"velocity":0.7637795275590551,"duration":0.20572916666668561},{"name":"F4","midi":65,"time":296.7786458333331,"velocity":0.7637795275590551,"duration":0.41536458333337123},{"name":"D4","midi":62,"time":296.7786458333331,"velocity":0.7637795275590551,"duration":0.20572916666668561},{"name":"A#2","midi":46,"time":296.7786458333331,"velocity":0.7637795275590551,"duration":0.41536458333337123},{"name":"D#4","midi":63,"time":296.9882812499998,"velocity":0.7637795275590551,"duration":0.20572916666668561},{"name":"D#5","midi":75,"time":297.19791666666646,"velocity":0.7637795275590551,"duration":0.3802083333333144},{"name":"F#4","midi":66,"time":297.19791666666646,"velocity":0.7637795275590551,"duration":0.3802083333333144},{"name":"A3","midi":57,"time":297.19791666666646,"velocity":0.7637795275590551,"duration":0.390625},{"name":"D5","midi":74,"time":297.61588541666646,"velocity":0.7637795275590551,"duration":0.3802083333333144},{"name":"F4","midi":65,"time":297.61588541666646,"velocity":0.7637795275590551,"duration":0.3802083333333144},{"name":"G#3","midi":56,"time":297.61588541666646,"velocity":0.7637795275590551,"duration":0.390625},{"name":"G#3","midi":56,"time":298.2421874999998,"velocity":0.7637795275590551,"duration":0.20572916666668561},{"name":"D4","midi":62,"time":298.45182291666646,"velocity":0.7637795275590551,"duration":0.20572916666668561},{"name":"F3","midi":53,"time":298.45182291666646,"velocity":0.7637795275590551,"duration":0.20572916666668561},{"name":"A#3","midi":58,"time":298.66015624999983,"velocity":0.7637795275590551,"duration":0.20572916666668561},{"name":"D3","midi":50,"time":298.66015624999983,"velocity":0.7637795275590551,"duration":0.20572916666668561},{"name":"F5","midi":77,"time":298.8697916666665,"velocity":0.7637795275590551,"duration":0.4153645833333144},{"name":"G#4","midi":68,"time":298.8697916666665,"velocity":0.7637795275590551,"duration":0.4153645833333144},{"name":"A#2","midi":46,"time":298.8697916666665,"velocity":0.7637795275590551,"duration":0.4153645833333144},{"name":"D#5","midi":75,"time":299.2877604166665,"velocity":0.7637795275590551,"duration":0.8333333333333144},{"name":"G4","midi":67,"time":299.2877604166665,"velocity":0.7637795275590551,"duration":0.4153645833333144},{"name":"D#3","midi":51,"time":299.2877604166665,"velocity":0.7637795275590551,"duration":0.4153645833333144},{"name":"F4","midi":65,"time":299.70703124999983,"velocity":0.7637795275590551,"duration":0.8333333333333144},{"name":"A#3","midi":58,"time":299.70703124999983,"velocity":0.7637795275590551,"duration":0.4153645833333144},{"name":"D5","midi":74,"time":300.12499999999983,"velocity":0.7637795275590551,"duration":0.4153645833333144},{"name":"B3","midi":59,"time":300.12499999999983,"velocity":0.7637795275590551,"duration":0.4153645833333144},{"name":"D#5","midi":75,"time":300.54296874999983,"velocity":0.7637795275590551,"duration":0.21484375},{"name":"D#4","midi":63,"time":300.54296874999983,"velocity":0.7637795275590551,"duration":1.3138020833332575},{"name":"C4","midi":60,"time":300.54296874999983,"velocity":0.7637795275590551,"duration":1.0937499999999432},{"name":"G5","midi":79,"time":300.76302083333314,"velocity":0.7637795275590551,"duration":0.21484375},{"name":"D#5","midi":75,"time":300.98307291666646,"velocity":0.7637795275590551,"duration":0.21484375},{"name":"C5","midi":72,"time":301.20182291666646,"velocity":0.7637795275590551,"duration":0.21484375},{"name":"G#4","midi":68,"time":301.4218749999998,"velocity":0.7637795275590551,"duration":1.100260416666572},{"name":"C4","midi":60,"time":301.6419270833331,"velocity":0.7637795275590551,"duration":0.21484375},{"name":"F4","midi":65,"time":301.8619791666664,"velocity":0.7637795275590551,"duration":0.4348958333333144},{"name":"G#3","midi":56,"time":301.8619791666664,"velocity":0.7637795275590551,"duration":0.21484375},{"name":"F3","midi":53,"time":302.0820312499997,"velocity":0.7637795275590551,"duration":0.21484375},{"name":"A#3","midi":58,"time":302.30208333333303,"velocity":0.7637795275590551,"duration":1.3502604166666856},{"name":"D3","midi":50,"time":302.30208333333303,"velocity":0.7637795275590551,"duration":0.44791666666662877},{"name":"F5","midi":77,"time":302.52734374999966,"velocity":0.7637795275590551,"duration":0.22135416666668561},{"name":"D5","midi":74,"time":302.75260416666634,"velocity":0.7637795275590551,"duration":0.22135416666668561},{"name":"A#2","midi":46,"time":302.75260416666634,"velocity":0.7637795275590551,"duration":0.6731770833333712},{"name":"A#4","midi":70,"time":302.97916666666634,"velocity":0.7637795275590551,"duration":0.22135416666668561},{"name":"G4","midi":67,"time":303.20442708333303,"velocity":0.7637795275590551,"duration":0.4479166666666856},{"name":"D#3","midi":51,"time":303.4296874999997,"velocity":0.7637795275590551,"duration":0.22135416666668561},{"name":"D#5","midi":75,"time":303.6562499999997,"velocity":0.7637795275590551,"duration":0.4479166666666856},{"name":"F4","midi":65,"time":303.6562499999997,"velocity":0.7637795275590551,"duration":0.6822916666666856},{"name":"C3","midi":48,"time":303.6562499999997,"velocity":0.7637795275590551,"duration":0.22135416666668561},{"name":"G#2","midi":44,"time":303.8815104166664,"velocity":0.7637795275590551,"duration":0.22135416666668561},{"name":"G4","midi":67,"time":304.1080729166664,"velocity":0.7637795275590551,"duration":0.9348958333333144},{"name":"A#2","midi":46,"time":304.1080729166664,"velocity":0.7637795275590551,"duration":1.8736979166666288},{"name":"D4","midi":62,"time":304.3424479166664,"velocity":0.7637795275590551,"duration":0.23046875},{"name":"D#4","midi":63,"time":304.5781249999997,"velocity":0.7637795275590551,"duration":0.23046875},{"name":"A#3","midi":58,"time":304.8124999999997,"velocity":0.7637795275590551,"duration":0.4661458333333144},{"name":"F4","midi":65,"time":305.0468749999997,"velocity":0.7637795275590551,"duration":0.9348958333333144},{"name":"C4","midi":60,"time":305.2812499999997,"velocity":0.7637795275590551,"duration":0.23046875},{"name":"D4","midi":62,"time":305.51692708333303,"velocity":0.7637795275590551,"duration":0.23046875},{"name":"G#3","midi":56,"time":305.75260416666634,"velocity":0.7637795275590551,"duration":0.484375},{"name":"D#4","midi":63,"time":305.98697916666634,"velocity":0.7637795275590551,"duration":7.49609375},{"name":"D#2","midi":39,"time":305.98697916666634,"velocity":0.7637795275590551,"duration":7.49609375},{"name":"C#4","midi":61,"time":306.24218749999966,"velocity":0.7637795275590551,"duration":0.25},{"name":"A#3","midi":58,"time":306.49479166666634,"velocity":0.7637795275590551,"duration":0.25},{"name":"G3","midi":55,"time":306.74999999999966,"velocity":0.7637795275590551,"duration":0.50390625},{"name":"C4","midi":60,"time":307.005208333333,"velocity":0.7637795275590551,"duration":0.7421875},{"name":"G#3","midi":56,"time":307.26171874999966,"velocity":0.7637795275590551,"duration":0.25},{"name":"F3","midi":53,"time":307.51562499999966,"velocity":0.7637795275590551,"duration":0.50390625},{"name":"B3","midi":59,"time":307.770833333333,"velocity":0.7637795275590551,"duration":0.25130208333337123},{"name":"G3","midi":55,"time":308.02734374999966,"velocity":0.7637795275590551,"duration":5.45703125},{"name":"A#3","midi":58,"time":308.02734374999966,"velocity":0.7637795275590551,"duration":5.45703125}],"controlChanges":{"7":[{"number":7,"time":0,"value":0.7874015748031497}]},"id":1,"name":"Harpsichord","instrumentNumber":6,"instrument":"harpsichord","instrumentFamily":"piano","channelNumber":0,"isPercussion":false}]}