{"header":{"PPQ":240,"timeSignature":[4,4],"bpm":88.00002346667293,"name":"--------"},"startTime":0,"duration":59.99998400000009,"tracks":[{"startTime":0,"duration":0,"length":0,"notes":[],"controlChanges":{},"id":0,"name":"--------"},{"startTime":0.34090899999999996,"duration":59.99998399999991,"length":294,"notes":[{"name":"B4","midi":71,"time":0.34090899999999996,"velocity":0.7244094488188977,"duration":0.1704545},{"name":"A#4","midi":70,"time":0.5113635,"velocity":0.7244094488188977,"duration":0.17045449999999995},{"name":"B4","midi":71,"time":0.6818179999999999,"velocity":0.7244094488188977,"duration":0.27272719999999995},{"name":"F#4","midi":66,"time":1.022727,"velocity":0.7244094488188977,"duration":0.27272720000000006},{"name":"G4","midi":67,"time":1.363636,"velocity":0.7244094488188977,"duration":0.08522724999999998},{"name":"A4","midi":69,"time":1.44886325,"velocity":0.7244094488188977,"duration":0.08522724999999998},{"name":"G4","midi":67,"time":1.5340905,"velocity":0.7244094488188977,"duration":0.17045449999999995},{"name":"F#4","midi":66,"time":1.704545,"velocity":0.7244094488188977,"duration":0.3409089999999999},{"name":"B4","midi":71,"time":2.045454,"velocity":0.7244094488188977,"duration":0.27272719999999984},{"name":"F#4","midi":66,"time":2.386363,"velocity":0.7244094488188977,"duration":0.27272719999999984},{"name":"F#4","midi":66,"time":2.7272719999999997,"velocity":0.7244094488188977,"duration":0.08522724999999998},{"name":"G4","midi":67,"time":2.8124992499999997,"velocity":0.7244094488188977,"duration":0.08522724999999998},{"name":"F#4","midi":66,"time":2.8977264999999996,"velocity":0.7244094488188977,"duration":0.17045449999999995},{"name":"E4","midi":64,"time":3.0681809999999996,"velocity":0.7244094488188977,"duration":0.3409089999999999},{"name":"C#5","midi":73,"time":3.4090899999999995,"velocity":0.7244094488188977,"duration":0.27272719999999984},{"name":"E4","midi":64,"time":3.7499989999999994,"velocity":0.7244094488188977,"duration":0.27272719999999984},{"name":"E4","midi":64,"time":4.090907999999999,"velocity":0.7244094488188977,"duration":0.08522724999999998},{"name":"F#4","midi":66,"time":4.176135249999999,"velocity":0.7244094488188977,"duration":0.08522724999999998},{"name":"E4","midi":64,"time":4.261362499999999,"velocity":0.7244094488188977,"duration":0.17045449999999995},{"name":"D4","midi":62,"time":4.431816999999999,"velocity":0.7244094488188977,"duration":0.17045449999999995},{"name":"C#4","midi":61,"time":4.602271499999999,"velocity":0.7244094488188977,"duration":0.17045449999999995},{"name":"D4","midi":62,"time":4.772725999999999,"velocity":0.7244094488188977,"duration":0.17045449999999995},{"name":"E4","midi":64,"time":4.943180499999999,"velocity":0.7244094488188977,"duration":0.17045449999999995},{"name":"F#4","midi":66,"time":5.113634999999999,"velocity":0.7244094488188977,"duration":0.17045449999999995},{"name":"E4","midi":64,"time":5.2840894999999986,"velocity":0.7244094488188977,"duration":0.17045449999999995},{"name":"F#4","midi":66,"time":5.4545439999999985,"velocity":0.7244094488188977,"duration":0.08522724999999998},{"name":"E4","midi":64,"time":5.5397712499999985,"velocity":0.7244094488188977,"duration":0.08522724999999998},{"name":"F#4","midi":66,"time":5.6249984999999985,"velocity":0.7244094488188977,"duration":0.3409089999999999},{"name":"A4","midi":69,"time":6.306816499999998,"velocity":0.7244094488188977,"duration":0.17045449999999995},{"name":"G#4","midi":68,"time":6.477270999999998,"velocity":0.7244094488188977,"duration":0.17045449999999995},{"name":"A4","midi":69,"time":6.647725499999998,"velocity":0.7244094488188977,"duration":0.17045449999999995},{"name":"B4","midi":71,"time":6.818179999999998,"velocity":0.7244094488188977,"duration":0.17045449999999995},{"name":"C#5","midi":73,"time":6.988634499999998,"velocity":0.7244094488188977,"duration":0.17045449999999995},{"name":"B4","midi":71,"time":7.159088999999998,"velocity":0.7244094488188977,"duration":0.17045449999999995},{"name":"G#4","midi":68,"time":7.329543499999998,"velocity":0.7244094488188977,"duration":0.17045449999999995},{"name":"A4","midi":69,"time":7.499997999999998,"velocity":0.7244094488188977,"duration":0.17045449999999995},{"name":"B4","midi":71,"time":7.670452499999998,"velocity":0.7244094488188977,"duration":0.17045449999999995},{"name":"A4","midi":69,"time":7.840906999999998,"velocity":0.7244094488188977,"duration":0.17045449999999995},{"name":"F#4","midi":66,"time":8.011361499999998,"velocity":0.7244094488188977,"duration":0.17045449999999995},{"name":"G#4","midi":68,"time":8.181815999999998,"velocity":0.7244094488188977,"duration":0.17045449999999995},{"name":"A4","midi":69,"time":8.352270499999998,"velocity":0.7244094488188977,"duration":0.17045449999999995},{"name":"G#4","midi":68,"time":8.522724999999998,"velocity":0.7244094488188977,"duration":0.17045449999999995},{"name":"F#4","midi":66,"time":8.693179499999998,"velocity":0.7244094488188977,"duration":0.17045449999999995},{"name":"F4","midi":65,"time":8.863633999999998,"velocity":0.7244094488188977,"duration":0.17045449999999995},{"name":"G#4","midi":68,"time":9.034088499999998,"velocity":0.7244094488188977,"duration":0.17045449999999995},{"name":"F#4","midi":66,"time":9.204542999999997,"velocity":0.7244094488188977,"duration":0.17045449999999995},{"name":"F4","midi":65,"time":9.374997499999997,"velocity":0.7244094488188977,"duration":0.17045449999999995},{"name":"C#5","midi":73,"time":9.545451999999997,"velocity":0.7244094488188977,"duration":0.3409089999999999},{"name":"F#4","midi":66,"time":9.886360999999997,"velocity":0.7244094488188977,"duration":0.17045449999999995},{"name":"F4","midi":65,"time":10.056815499999997,"velocity":0.7244094488188977,"duration":0.17045449999999995},{"name":"F#4","midi":66,"time":10.227269999999997,"velocity":0.7244094488188977,"duration":0.17045449999999995},{"name":"A4","midi":69,"time":10.397724499999997,"velocity":0.7244094488188977,"duration":0.17045449999999995},{"name":"G#4","midi":68,"time":10.568178999999997,"velocity":0.7244094488188977,"duration":0.17045449999999995},{"name":"B4","midi":71,"time":10.738633499999997,"velocity":0.7244094488188977,"duration":0.17045449999999995},{"name":"A4","midi":69,"time":10.909087999999997,"velocity":0.7244094488188977,"duration":0.17045449999999995},{"name":"B4","midi":71,"time":11.079542499999997,"velocity":0.7244094488188977,"duration":0.17045449999999995},{"name":"C#5","midi":73,"time":11.249996999999997,"velocity":0.7244094488188977,"duration":0.17045449999999995},{"name":"D5","midi":74,"time":11.420451499999997,"velocity":0.7244094488188977,"duration":0.17045449999999995},{"name":"G#4","midi":68,"time":11.590905999999997,"velocity":0.7244094488188977,"duration":0.08522725000000086},{"name":"A4","midi":69,"time":11.676133249999998,"velocity":0.7244094488188977,"duration":0.08522725000000086},{"name":"G#4","midi":68,"time":11.761360499999999,"velocity":0.7244094488188977,"duration":0.3409089999999999},{"name":"F#4","midi":66,"time":12.102269499999998,"velocity":0.7244094488188977,"duration":0.17045449999999995},{"name":"F#4","midi":66,"time":12.272723999999998,"velocity":0.7244094488188977,"duration":0.3409089999999999},{"name":"F#5","midi":78,"time":12.613632999999998,"velocity":0.7244094488188977,"duration":0.17045449999999995},{"name":"F5","midi":77,"time":12.784087499999998,"velocity":0.7244094488188977,"duration":0.17045449999999995},{"name":"F#5","midi":78,"time":12.954541999999998,"velocity":0.7244094488188977,"duration":0.2727272000000003},{"name":"C#5","midi":73,"time":13.295450999999998,"velocity":0.7244094488188977,"duration":0.2727272000000003},{"name":"D5","midi":74,"time":13.636359999999998,"velocity":0.7244094488188977,"duration":0.08522725000000086},{"name":"E5","midi":76,"time":13.721587249999999,"velocity":0.7244094488188977,"duration":0.08522725000000086},{"name":"D5","midi":74,"time":13.8068145,"velocity":0.7244094488188977,"duration":0.17045449999999995},{"name":"C#5","midi":73,"time":13.977269,"velocity":0.7244094488188977,"duration":0.3409089999999999},{"name":"F#5","midi":78,"time":14.318178,"velocity":0.7244094488188977,"duration":0.2727272000000003},{"name":"C#5","midi":73,"time":14.659087,"velocity":0.7244094488188977,"duration":0.2727272000000003},{"name":"C#5","midi":73,"time":14.999996,"velocity":0.7244094488188977,"duration":0.08522725000000086},{"name":"D5","midi":74,"time":15.08522325,"velocity":0.7244094488188977,"duration":0.08522725000000086},{"name":"C#5","midi":73,"time":15.170450500000001,"velocity":0.7244094488188977,"duration":0.17045449999999995},{"name":"B4","midi":71,"time":15.340905000000001,"velocity":0.7244094488188977,"duration":0.3409089999999999},{"name":"G#5","midi":80,"time":15.681814000000001,"velocity":0.7244094488188977,"duration":0.2727272000000003},{"name":"B4","midi":71,"time":16.022723000000003,"velocity":0.7244094488188977,"duration":0.2727271999999985},{"name":"B4","midi":71,"time":16.363632000000003,"velocity":0.7244094488188977,"duration":0.08522724999999909},{"name":"C#5","midi":73,"time":16.44885925,"velocity":0.7244094488188977,"duration":0.08522724999999909},{"name":"B4","midi":71,"time":16.5340865,"velocity":0.7244094488188977,"duration":0.17045450000000173},{"name":"A4","midi":69,"time":16.704541000000003,"velocity":0.7244094488188977,"duration":0.17045450000000173},{"name":"G#4","midi":68,"time":16.874995500000004,"velocity":0.7244094488188977,"duration":0.17045450000000173},{"name":"A4","midi":69,"time":17.045450000000006,"velocity":0.7244094488188977,"duration":0.17045450000000173},{"name":"B4","midi":71,"time":17.215904500000008,"velocity":0.7244094488188977,"duration":0.17045450000000173},{"name":"A4","midi":69,"time":17.38635900000001,"velocity":0.7244094488188977,"duration":0.17045450000000173},{"name":"F4","midi":65,"time":17.55681350000001,"velocity":0.7244094488188977,"duration":0.17045450000000173},{"name":"F#4","midi":66,"time":17.727268000000013,"velocity":0.7244094488188977,"duration":0.3409089999999999},{"name":"F#5","midi":78,"time":18.068177000000013,"velocity":0.7244094488188977,"duration":0.17045450000000173},{"name":"E5","midi":76,"time":18.238631500000015,"velocity":0.7244094488188977,"duration":0.17045450000000173},{"name":"F#5","midi":78,"time":18.409086000000016,"velocity":0.7244094488188977,"duration":0.2727271999999985},{"name":"C#5","midi":73,"time":18.749995000000016,"velocity":0.7244094488188977,"duration":0.2727271999999985},{"name":"D5","midi":74,"time":19.090904000000016,"velocity":0.7244094488188977,"duration":0.17045450000000173},{"name":"E5","midi":76,"time":19.261358500000018,"velocity":0.7244094488188977,"duration":0.17045450000000173},{"name":"D5","midi":74,"time":19.43181300000002,"velocity":0.7244094488188977,"duration":0.17045450000000173},{"name":"B4","midi":71,"time":19.60226750000002,"velocity":0.7244094488188977,"duration":0.17045450000000173},{"name":"E5","midi":76,"time":19.772722000000023,"velocity":0.7244094488188977,"duration":0.17045450000000173},{"name":"B4","midi":71,"time":19.943176500000025,"velocity":0.7244094488188977,"duration":0.17045450000000173},{"name":"F#5","midi":78,"time":20.113631000000026,"velocity":0.7244094488188977,"duration":0.17045450000000173},{"name":"B4","midi":71,"time":20.284085500000028,"velocity":0.7244094488188977,"duration":0.17045450000000173},{"name":"G5","midi":79,"time":20.45454000000003,"velocity":0.7244094488188977,"duration":0.17045450000000173},{"name":"A5","midi":81,"time":20.62499450000003,"velocity":0.7244094488188977,"duration":0.17045450000000173},{"name":"G5","midi":79,"time":20.795449000000033,"velocity":0.7244094488188977,"duration":0.17045450000000173},{"name":"E5","midi":76,"time":20.965903500000035,"velocity":0.7244094488188977,"duration":0.17045450000000173},{"name":"A5","midi":81,"time":21.136358000000037,"velocity":0.7244094488188977,"duration":0.17045450000000173},{"name":"E5","midi":76,"time":21.30681250000004,"velocity":0.7244094488188977,"duration":0.17045450000000173},{"name":"B5","midi":83,"time":21.47726700000004,"velocity":0.7244094488188977,"duration":0.17045450000000173},{"name":"D5","midi":74,"time":21.647721500000042,"velocity":0.7244094488188977,"duration":0.17045450000000173},{"name":"C#5","midi":73,"time":21.818176000000044,"velocity":0.7244094488188977,"duration":0.17045450000000173},{"name":"D5","midi":74,"time":21.988630500000045,"velocity":0.7244094488188977,"duration":0.17045450000000173},{"name":"C#5","midi":73,"time":22.159085000000047,"velocity":0.7244094488188977,"duration":0.17045450000000173},{"name":"A4","midi":69,"time":22.32953950000005,"velocity":0.7244094488188977,"duration":0.17045450000000173},{"name":"D5","midi":74,"time":22.49999400000005,"velocity":0.7244094488188977,"duration":0.17045450000000173},{"name":"A4","midi":69,"time":22.670448500000052,"velocity":0.7244094488188977,"duration":0.17045450000000173},{"name":"E5","midi":76,"time":22.840903000000054,"velocity":0.7244094488188977,"duration":0.17045450000000173},{"name":"A4","midi":69,"time":23.011357500000056,"velocity":0.7244094488188977,"duration":0.17045450000000173},{"name":"F#5","midi":78,"time":23.181812000000058,"velocity":0.7244094488188977,"duration":0.17045450000000173},{"name":"G5","midi":79,"time":23.35226650000006,"velocity":0.7244094488188977,"duration":0.17045450000000173},{"name":"F#5","midi":78,"time":23.52272100000006,"velocity":0.7244094488188977,"duration":0.17045450000000173},{"name":"D5","midi":74,"time":23.693175500000063,"velocity":0.7244094488188977,"duration":0.17045450000000173},{"name":"G5","midi":79,"time":23.863630000000065,"velocity":0.7244094488188977,"duration":0.17045450000000173},{"name":"D5","midi":74,"time":24.034084500000066,"velocity":0.7244094488188977,"duration":0.17045450000000173},{"name":"A5","midi":81,"time":24.204539000000068,"velocity":0.7244094488188977,"duration":0.17045450000000173},{"name":"D5","midi":74,"time":24.37499350000007,"velocity":0.7244094488188977,"duration":0.17045450000000173},{"name":"B5","midi":83,"time":24.54544800000007,"velocity":0.7244094488188977,"duration":0.13636359999999925},{"name":"C6","midi":84,"time":24.71590250000007,"velocity":0.7244094488188977,"duration":0.13636359999999925},{"name":"B5","midi":83,"time":24.886357000000068,"velocity":0.7244094488188977,"duration":0.16761359166666523},{"name":"E5","midi":76,"time":25.056811500000066,"velocity":0.7244094488188977,"duration":0.13636359999999925},{"name":"A5","midi":81,"time":25.227266000000064,"velocity":0.7244094488188977,"duration":0.13636359999999925},{"name":"B5","midi":83,"time":25.397720500000062,"velocity":0.7244094488188977,"duration":0.13636359999999925},{"name":"A5","midi":81,"time":25.56817500000006,"velocity":0.7244094488188977,"duration":0.16761359166666523},{"name":"D5","midi":74,"time":25.73862950000006,"velocity":0.7244094488188977,"duration":0.13636359999999925},{"name":"G5","midi":79,"time":25.909084000000057,"velocity":0.7244094488188977,"duration":0.13636359999999925},{"name":"A5","midi":81,"time":26.079538500000055,"velocity":0.7244094488188977,"duration":0.13636359999999925},{"name":"G5","midi":79,"time":26.249993000000053,"velocity":0.7244094488188977,"duration":0.16761359166666523},{"name":"C#5","midi":73,"time":26.42044750000005,"velocity":0.7244094488188977,"duration":0.13636359999999925},{"name":"F#5","midi":78,"time":26.59090200000005,"velocity":0.7244094488188977,"duration":0.13636359999999925},{"name":"G5","midi":79,"time":26.761356500000048,"velocity":0.7244094488188977,"duration":0.13636359999999925},{"name":"F#5","midi":78,"time":26.931811000000046,"velocity":0.7244094488188977,"duration":0.16761359166666523},{"name":"D5","midi":74,"time":27.102265500000044,"velocity":0.7244094488188977,"duration":0.13636359999999925},{"name":"E5","midi":76,"time":27.272720000000042,"velocity":0.7244094488188977,"duration":0.3409089999999999},{"name":"G4","midi":67,"time":27.613629000000042,"velocity":0.7244094488188977,"duration":0.05681816666666606},{"name":"A4","midi":69,"time":27.67044716666671,"velocity":0.7244094488188977,"duration":0.05681816666666606},{"name":"G4","midi":67,"time":27.727265333333374,"velocity":0.7244094488188977,"duration":0.05681816666666606},{"name":"F#4","midi":66,"time":27.78408350000004,"velocity":0.7244094488188977,"duration":0.17045450000000173},{"name":"G4","midi":67,"time":27.954538000000042,"velocity":0.7244094488188977,"duration":0.2727271999999985},{"name":"E5","midi":76,"time":28.295447000000042,"velocity":0.7244094488188977,"duration":0.2727271999999985},{"name":"F#4","midi":66,"time":28.636356000000042,"velocity":0.7244094488188977,"duration":0.2727271999999985},{"name":"D5","midi":74,"time":28.977265000000042,"velocity":0.7244094488188977,"duration":0.2727271999999985},{"name":"E4","midi":64,"time":29.31817400000004,"velocity":0.7244094488188977,"duration":0.2727271999999985},{"name":"C#5","midi":73,"time":29.65908300000004,"velocity":0.7244094488188977,"duration":0.2727271999999985},{"name":"D5","midi":74,"time":29.99999200000004,"velocity":0.7244094488188977,"duration":0.3409089999999999},{"name":"F#4","midi":66,"time":30.852264500000043,"velocity":0.7244094488188977,"duration":0.17045450000000173},{"name":"E4","midi":64,"time":31.022719000000045,"velocity":0.7244094488188977,"duration":0.17045450000000173},{"name":"F#4","midi":66,"time":31.193173500000047,"velocity":0.7244094488188977,"duration":0.17045450000000173},{"name":"G4","midi":67,"time":31.36362800000005,"velocity":0.7244094488188977,"duration":0.17045450000000173},{"name":"A4","midi":69,"time":31.53408250000005,"velocity":0.7244094488188977,"duration":0.17045450000000173},{"name":"G4","midi":67,"time":31.70453700000005,"velocity":0.7244094488188977,"duration":0.17045450000000173},{"name":"E4","midi":64,"time":31.874991500000053,"velocity":0.7244094488188977,"duration":0.17045450000000173},{"name":"F#4","midi":66,"time":32.045446000000055,"velocity":0.7244094488188977,"duration":0.17045449999999818},{"name":"G4","midi":67,"time":32.21590050000005,"velocity":0.7244094488188977,"duration":0.17045449999999818},{"name":"F#4","midi":66,"time":32.38635500000005,"velocity":0.7244094488188977,"duration":0.17045449999999818},{"name":"D4","midi":62,"time":32.55680950000005,"velocity":0.7244094488188977,"duration":0.17045449999999818},{"name":"E4","midi":64,"time":32.72726400000005,"velocity":0.7244094488188977,"duration":0.17045449999999818},{"name":"F#4","midi":66,"time":32.897718500000046,"velocity":0.7244094488188977,"duration":0.17045449999999818},{"name":"E4","midi":64,"time":33.068173000000044,"velocity":0.7244094488188977,"duration":0.17045449999999818},{"name":"D4","midi":62,"time":33.23862750000004,"velocity":0.7244094488188977,"duration":0.17045449999999818},{"name":"C#4","midi":61,"time":33.40908200000004,"velocity":0.7244094488188977,"duration":0.17045449999999818},{"name":"E4","midi":64,"time":33.57953650000004,"velocity":0.7244094488188977,"duration":0.17045449999999818},{"name":"D4","midi":62,"time":33.74999100000004,"velocity":0.7244094488188977,"duration":0.17045449999999818},{"name":"C#4","midi":61,"time":33.920445500000035,"velocity":0.7244094488188977,"duration":0.17045449999999818},{"name":"D4","midi":62,"time":34.09090000000003,"velocity":0.7244094488188977,"duration":0.34090900000000346},{"name":"A4","midi":69,"time":34.43180900000004,"velocity":0.7244094488188977,"duration":0.34090900000000346},{"name":"D5","midi":74,"time":34.77271800000004,"velocity":0.7244094488188977,"duration":0.17045449999999818},{"name":"C#5","midi":73,"time":34.94317250000004,"velocity":0.7244094488188977,"duration":0.17045449999999818},{"name":"B4","midi":71,"time":35.11362700000004,"velocity":0.7244094488188977,"duration":0.17045449999999818},{"name":"D5","midi":74,"time":35.284081500000035,"velocity":0.7244094488188977,"duration":0.17045449999999818},{"name":"C#5","midi":73,"time":35.45453600000003,"velocity":0.7244094488188977,"duration":0.17045449999999818},{"name":"B4","midi":71,"time":35.62499050000003,"velocity":0.7244094488188977,"duration":0.17045449999999818},{"name":"A4","midi":69,"time":35.79544500000003,"velocity":0.7244094488188977,"duration":0.17045449999999818},{"name":"G#4","midi":68,"time":35.96589950000003,"velocity":0.7244094488188977,"duration":0.17045449999999818},{"name":"A4","midi":69,"time":36.136354000000026,"velocity":0.7244094488188977,"duration":0.2727271999999985},{"name":"E4","midi":64,"time":36.47726300000002,"velocity":0.7244094488188977,"duration":0.2727271999999985},{"name":"F#4","midi":66,"time":36.81817200000002,"velocity":0.7244094488188977,"duration":0.08522725000000264},{"name":"G4","midi":67,"time":36.90339925000002,"velocity":0.7244094488188977,"duration":0.08522725000000264},{"name":"F#4","midi":66,"time":36.988626500000024,"velocity":0.7244094488188977,"duration":0.17045449999999818},{"name":"E4","midi":64,"time":37.15908100000002,"velocity":0.7244094488188977,"duration":0.34090900000000346},{"name":"A4","midi":69,"time":37.499990000000025,"velocity":0.7244094488188977,"duration":0.2727271999999985},{"name":"E4","midi":64,"time":37.84089900000002,"velocity":0.7244094488188977,"duration":0.2727271999999985},{"name":"E4","midi":64,"time":38.18180800000002,"velocity":0.7244094488188977,"duration":0.08522725000000264},{"name":"F#4","midi":66,"time":38.26703525000002,"velocity":0.7244094488188977,"duration":0.08522725000000264},{"name":"E4","midi":64,"time":38.35226250000002,"velocity":0.7244094488188977,"duration":0.17045449999999818},{"name":"D4","midi":62,"time":38.52271700000002,"velocity":0.7244094488188977,"duration":0.34090900000000346},{"name":"B4","midi":71,"time":38.863626000000025,"velocity":0.7244094488188977,"duration":0.2727271999999985},{"name":"D4","midi":62,"time":39.20453500000002,"velocity":0.7244094488188977,"duration":0.2727271999999985},{"name":"D4","midi":62,"time":39.54544400000002,"velocity":0.7244094488188977,"duration":0.08522725000000264},{"name":"E4","midi":64,"time":39.63067125000002,"velocity":0.7244094488188977,"duration":0.08522725000000264},{"name":"D4","midi":62,"time":39.71589850000002,"velocity":0.7244094488188977,"duration":0.17045449999999818},{"name":"C#4","midi":61,"time":39.88635300000002,"velocity":0.7244094488188977,"duration":0.17045449999999818},{"name":"B3","midi":59,"time":40.05680750000002,"velocity":0.7244094488188977,"duration":0.17045449999999818},{"name":"C#4","midi":61,"time":40.22726200000002,"velocity":0.7244094488188977,"duration":0.17045449999999818},{"name":"D#4","midi":63,"time":40.397716500000016,"velocity":0.7244094488188977,"duration":0.17045449999999818},{"name":"E4","midi":64,"time":40.568171000000014,"velocity":0.7244094488188977,"duration":0.17045449999999818},{"name":"D#4","midi":63,"time":40.73862550000001,"velocity":0.7244094488188977,"duration":0.17045449999999818},{"name":"A4","midi":69,"time":40.90908000000001,"velocity":0.7244094488188977,"duration":0.17045449999999818},{"name":"F#4","midi":66,"time":41.07953450000001,"velocity":0.7244094488188977,"duration":0.17045449999999818},{"name":"G4","midi":67,"time":41.24998900000001,"velocity":0.7244094488188977,"duration":0.17045449999999818},{"name":"A4","midi":69,"time":41.420443500000005,"velocity":0.7244094488188977,"duration":0.17045449999999818},{"name":"G#4","midi":68,"time":41.590898,"velocity":0.7244094488188977,"duration":0.17045449999999818},{"name":"A#4","midi":70,"time":41.7613525,"velocity":0.7244094488188977,"duration":0.17045449999999818},{"name":"B4","midi":71,"time":41.931807,"velocity":0.7244094488188977,"duration":0.17045449999999818},{"name":"A#4","midi":70,"time":42.1022615,"velocity":0.7244094488188977,"duration":0.17045449999999818},{"name":"E5","midi":76,"time":42.272715999999996,"velocity":0.7244094488188977,"duration":0.17045449999999818},{"name":"C#5","midi":73,"time":42.443170499999994,"velocity":0.7244094488188977,"duration":0.17045449999999818},{"name":"D5","midi":74,"time":42.61362499999999,"velocity":0.7244094488188977,"duration":0.17045449999999818},{"name":"E5","midi":76,"time":42.78407949999999,"velocity":0.7244094488188977,"duration":0.17045449999999818},{"name":"D#5","midi":75,"time":42.95453399999999,"velocity":0.7244094488188977,"duration":0.17045449999999818},{"name":"F5","midi":77,"time":43.124988499999986,"velocity":0.7244094488188977,"duration":0.17045449999999818},{"name":"F#5","midi":78,"time":43.295442999999985,"velocity":0.7244094488188977,"duration":0.17045449999999818},{"name":"F5","midi":77,"time":43.46589749999998,"velocity":0.7244094488188977,"duration":0.17045449999999818},{"name":"B5","midi":83,"time":43.63635199999998,"velocity":0.7244094488188977,"duration":0.17045449999999818},{"name":"G#5","midi":80,"time":43.80680649999998,"velocity":0.7244094488188977,"duration":0.17045449999999818},{"name":"A5","midi":81,"time":43.97726099999998,"velocity":0.7244094488188977,"duration":0.17045449999999818},{"name":"B4","midi":71,"time":44.147715499999975,"velocity":0.7244094488188977,"duration":0.17045449999999818},{"name":"C#5","midi":73,"time":44.318169999999974,"velocity":0.7244094488188977,"duration":0.17045449999999818},{"name":"D#5","midi":75,"time":44.48862449999997,"velocity":0.7244094488188977,"duration":0.17045449999999818},{"name":"E5","midi":76,"time":44.65907899999997,"velocity":0.7244094488188977,"duration":0.17045449999999818},{"name":"D#5","midi":75,"time":44.82953349999997,"velocity":0.7244094488188977,"duration":0.17045449999999818},{"name":"A5","midi":81,"time":44.999987999999966,"velocity":0.7244094488188977,"duration":0.17045449999999818},{"name":"F#5","midi":78,"time":45.170442499999965,"velocity":0.7244094488188977,"duration":0.17045449999999818},{"name":"G5","midi":79,"time":45.34089699999996,"velocity":0.7244094488188977,"duration":0.17045449999999818},{"name":"A4","midi":69,"time":45.51135149999996,"velocity":0.7244094488188977,"duration":0.17045449999999818},{"name":"B4","midi":71,"time":45.68180599999996,"velocity":0.7244094488188977,"duration":0.17045449999999818},{"name":"C#5","midi":73,"time":45.85226049999996,"velocity":0.7244094488188977,"duration":0.17045449999999818},{"name":"D5","midi":74,"time":46.022714999999955,"velocity":0.7244094488188977,"duration":0.17045449999999818},{"name":"C#5","midi":73,"time":46.193169499999954,"velocity":0.7244094488188977,"duration":0.17045449999999818},{"name":"G5","midi":79,"time":46.36362399999995,"velocity":0.7244094488188977,"duration":0.17045449999999818},{"name":"E5","midi":76,"time":46.53407849999995,"velocity":0.7244094488188977,"duration":0.17045449999999818},{"name":"F#5","midi":78,"time":46.70453299999995,"velocity":0.7244094488188977,"duration":0.17045449999999818},{"name":"C#5","midi":73,"time":46.874987499999946,"velocity":0.7244094488188977,"duration":0.17045449999999818},{"name":"D5","midi":74,"time":47.045441999999944,"velocity":0.7244094488188977,"duration":0.17045449999999818},{"name":"E5","midi":76,"time":47.21589649999994,"velocity":0.7244094488188977,"duration":0.17045449999999818},{"name":"F#5","midi":78,"time":47.38635099999994,"velocity":0.7244094488188977,"duration":0.17045449999999818},{"name":"D5","midi":74,"time":47.55680549999994,"velocity":0.7244094488188977,"duration":0.17045449999999818},{"name":"E5","midi":76,"time":47.72725999999994,"velocity":0.7244094488188977,"duration":0.17045449999999818},{"name":"F#5","midi":78,"time":47.897714499999935,"velocity":0.7244094488188977,"duration":0.17045449999999818},{"name":"E5","midi":76,"time":48.06816899999993,"velocity":0.7244094488188977,"duration":0.17045449999999818},{"name":"C#5","midi":73,"time":48.23862349999993,"velocity":0.7244094488188977,"duration":0.17045449999999818},{"name":"D5","midi":74,"time":48.40907799999993,"velocity":0.7244094488188977,"duration":0.17045449999999818},{"name":"E5","midi":76,"time":48.57953249999993,"velocity":0.7244094488188977,"duration":0.17045449999999818},{"name":"D5","midi":74,"time":48.749986999999926,"velocity":0.7244094488188977,"duration":0.17045449999999818},{"name":"B4","midi":71,"time":48.920441499999924,"velocity":0.7244094488188977,"duration":0.17045449999999818},{"name":"C#5","midi":73,"time":49.09089599999992,"velocity":0.7244094488188977,"duration":0.17045449999999818},{"name":"D5","midi":74,"time":49.26135049999992,"velocity":0.7244094488188977,"duration":0.17045449999999818},{"name":"C#5","midi":73,"time":49.43180499999992,"velocity":0.7244094488188977,"duration":0.17045449999999818},{"name":"B4","midi":71,"time":49.60225949999992,"velocity":0.7244094488188977,"duration":0.17045449999999818},{"name":"A#4","midi":70,"time":49.772713999999915,"velocity":0.7244094488188977,"duration":0.17045449999999818},{"name":"B4","midi":71,"time":49.94316849999991,"velocity":0.7244094488188977,"duration":0.17045449999999818},{"name":"C#5","midi":73,"time":50.11362299999991,"velocity":0.7244094488188977,"duration":0.17045449999999818},{"name":"A#4","midi":70,"time":50.28407749999991,"velocity":0.7244094488188977,"duration":0.17045449999999818},{"name":"F#4","midi":66,"time":50.45453199999991,"velocity":0.7244094488188977,"duration":0.34090900000000346},{"name":"B4","midi":71,"time":50.79544099999991,"velocity":0.7244094488188977,"duration":0.17045449999999818},{"name":"A#4","midi":70,"time":50.96589549999991,"velocity":0.7244094488188977,"duration":0.17045449999999818},{"name":"B4","midi":71,"time":51.13634999999991,"velocity":0.7244094488188977,"duration":0.2727271999999985},{"name":"F#4","midi":66,"time":51.477258999999904,"velocity":0.7244094488188977,"duration":0.2727271999999985},{"name":"G4","midi":67,"time":51.8181679999999,"velocity":0.7244094488188977,"duration":0.08522725000000264},{"name":"A4","midi":69,"time":51.9033952499999,"velocity":0.7244094488188977,"duration":0.08522725000000264},{"name":"G4","midi":67,"time":51.988622499999906,"velocity":0.7244094488188977,"duration":0.17045449999999818},{"name":"F#4","midi":66,"time":52.159076999999904,"velocity":0.7244094488188977,"duration":0.34090900000000346},{"name":"B4","midi":71,"time":52.49998599999991,"velocity":0.7244094488188977,"duration":0.2727271999999985},{"name":"F#4","midi":66,"time":52.840894999999904,"velocity":0.7244094488188977,"duration":0.2727271999999985},{"name":"F#4","midi":66,"time":53.1818039999999,"velocity":0.7244094488188977,"duration":0.08522725000000264},{"name":"G4","midi":67,"time":53.2670312499999,"velocity":0.7244094488188977,"duration":0.08522725000000264},{"name":"F#4","midi":66,"time":53.352258499999905,"velocity":0.7244094488188977,"duration":0.17045449999999818},{"name":"E4","midi":64,"time":53.522712999999904,"velocity":0.7244094488188977,"duration":0.34090900000000346},{"name":"A#4","midi":70,"time":53.86362199999991,"velocity":0.7244094488188977,"duration":0.2727271999999985},{"name":"E4","midi":64,"time":54.2045309999999,"velocity":0.7244094488188977,"duration":0.2727271999999985},{"name":"E4","midi":64,"time":54.5454399999999,"velocity":0.7244094488188977,"duration":0.08522725000000264},{"name":"F#4","midi":66,"time":54.6306672499999,"velocity":0.7244094488188977,"duration":0.08522725000000264},{"name":"E4","midi":64,"time":54.715894499999905,"velocity":0.7244094488188977,"duration":0.17045449999999818},{"name":"D4","midi":62,"time":54.8863489999999,"velocity":0.7244094488188977,"duration":0.17045449999999818},{"name":"C#4","midi":61,"time":55.0568034999999,"velocity":0.7244094488188977,"duration":0.17045449999999818},{"name":"D4","midi":62,"time":55.2272579999999,"velocity":0.7244094488188977,"duration":0.17045449999999818},{"name":"F#4","midi":66,"time":55.3977124999999,"velocity":0.7244094488188977,"duration":0.17045449999999818},{"name":"E4","midi":64,"time":55.568166999999896,"velocity":0.7244094488188977,"duration":0.17045449999999818},{"name":"G4","midi":67,"time":55.738621499999894,"velocity":0.7244094488188977,"duration":0.17045449999999818},{"name":"F#4","midi":66,"time":55.90907599999989,"velocity":0.7244094488188977,"duration":0.5113635000000016},{"name":"D5","midi":74,"time":56.420439499999894,"velocity":0.7244094488188977,"duration":0.1363636000000028},{"name":"A#4","midi":70,"time":56.5908939999999,"velocity":0.7244094488188977,"duration":0.08522725000000264},{"name":"B4","midi":71,"time":56.6761212499999,"velocity":0.7244094488188977,"duration":0.08522725000000264},{"name":"A#4","midi":70,"time":56.761348499999905,"velocity":0.7244094488188977,"duration":0.34090900000000346},{"name":"B4","midi":71,"time":57.10225749999991,"velocity":0.7244094488188977,"duration":0.1420454166666687},{"name":"B4","midi":71,"time":57.27271199999991,"velocity":0.7244094488188977,"duration":2.7272719999999993}],"controlChanges":{"7":[{"number":7,"time":0,"value":0.7874015748031497}],"10":[{"number":10,"time":0,"value":0.6299212598425197}]},"id":1,"name":"Harpsichord RH","instrumentNumber":6,"instrument":"harpsichord","instrumentFamily":"piano","channelNumber":0,"isPercussion":false},{"startTime":0,"duration":59.99998400000009,"length":233,"notes":[{"name":"B2","midi":47,"time":0,"velocity":0.7244094488188977,"duration":0.4090907999999999},{"name":"D3","midi":50,"time":0.6818179999999999,"velocity":0.7244094488188977,"duration":0.40909079999999987},{"name":"E3","midi":52,"time":1.3636359999999998,"velocity":0.7244094488188977,"duration":0.4090908},{"name":"D3","midi":50,"time":2.045454,"velocity":0.7244094488188977,"duration":0.4090908},{"name":"C#3","midi":49,"time":2.7272719999999997,"velocity":0.7244094488188977,"duration":0.4090908},{"name":"A#2","midi":46,"time":3.4090899999999995,"velocity":0.7244094488188977,"duration":0.4090908},{"name":"B2","midi":47,"time":4.090908,"velocity":0.7244094488188977,"duration":0.40909079999999953},{"name":"G2","midi":43,"time":4.772726,"velocity":0.7244094488188977,"duration":0.40909079999999953},{"name":"F#2","midi":42,"time":5.454543999999999,"velocity":0.7244094488188977,"duration":0.3409089999999999},{"name":"F#3","midi":54,"time":5.795452999999999,"velocity":0.7244094488188977,"duration":0.17045449999999995},{"name":"F3","midi":53,"time":5.965907499999999,"velocity":0.7244094488188977,"duration":0.17045449999999995},{"name":"F#3","midi":54,"time":6.136361999999999,"velocity":0.7244094488188977,"duration":0.2727272000000003},{"name":"C#3","midi":49,"time":6.477270999999999,"velocity":0.7244094488188977,"duration":0.2727272000000003},{"name":"D3","midi":50,"time":6.818179999999999,"velocity":0.7244094488188977,"duration":0.08522724999999998},{"name":"E3","midi":52,"time":6.903407249999999,"velocity":0.7244094488188977,"duration":0.08522724999999998},{"name":"D3","midi":50,"time":6.988634499999999,"velocity":0.7244094488188977,"duration":0.17045449999999995},{"name":"C#3","midi":49,"time":7.159088999999999,"velocity":0.7244094488188977,"duration":0.3409089999999999},{"name":"F#3","midi":54,"time":7.499997999999999,"velocity":0.7244094488188977,"duration":0.2727272000000003},{"name":"C#3","midi":49,"time":7.840906999999999,"velocity":0.7244094488188977,"duration":0.2727271999999994},{"name":"C#3","midi":49,"time":8.181815999999998,"velocity":0.7244094488188977,"duration":0.08522725000000086},{"name":"D3","midi":50,"time":8.267043249999999,"velocity":0.7244094488188977,"duration":0.08522725000000086},{"name":"C#3","midi":49,"time":8.3522705,"velocity":0.7244094488188977,"duration":0.17045449999999995},{"name":"B2","midi":47,"time":8.522725,"velocity":0.7244094488188977,"duration":0.3409089999999999},{"name":"G#3","midi":56,"time":8.863634,"velocity":0.7244094488188977,"duration":0.2727272000000003},{"name":"B2","midi":47,"time":9.204543,"velocity":0.7244094488188977,"duration":0.2727272000000003},{"name":"B2","midi":47,"time":9.545452,"velocity":0.7244094488188977,"duration":0.08522725000000086},{"name":"C#3","midi":49,"time":9.63067925,"velocity":0.7244094488188977,"duration":0.08522725000000086},{"name":"B2","midi":47,"time":9.715906500000001,"velocity":0.7244094488188977,"duration":0.17045449999999995},{"name":"A2","midi":45,"time":9.886361,"velocity":0.7244094488188977,"duration":0.17045449999999995},{"name":"G#2","midi":44,"time":10.0568155,"velocity":0.7244094488188977,"duration":0.17045449999999995},{"name":"A2","midi":45,"time":10.22727,"velocity":0.7244094488188977,"duration":0.3409089999999999},{"name":"B2","midi":47,"time":10.568179,"velocity":0.7244094488188977,"duration":0.3409089999999999},{"name":"C#3","midi":49,"time":10.909088,"velocity":0.7244094488188977,"duration":0.2727272000000003},{"name":"B2","midi":47,"time":11.249997,"velocity":0.7244094488188977,"duration":0.2727272000000003},{"name":"C#3","midi":49,"time":11.590906,"velocity":0.7244094488188977,"duration":0.2727272000000003},{"name":"C#2","midi":37,"time":11.931815,"velocity":0.7244094488188977,"duration":0.2727272000000003},{"name":"F#2","midi":42,"time":12.272724,"velocity":0.7244094488188977,"duration":0.5113634999999999},{"name":"G#2","midi":44,"time":12.7840875,"velocity":0.7244094488188977,"duration":0.17045449999999995},{"name":"A2","midi":45,"time":12.954542,"velocity":0.7244094488188977,"duration":0.17045449999999995},{"name":"B2","midi":47,"time":13.1249965,"velocity":0.7244094488188977,"duration":0.17045449999999995},{"name":"G#2","midi":44,"time":13.295451,"velocity":0.7244094488188977,"duration":0.17045449999999995},{"name":"A2","midi":45,"time":13.4659055,"velocity":0.7244094488188977,"duration":0.17045449999999995},{"name":"B2","midi":47,"time":13.63636,"velocity":0.7244094488188977,"duration":0.17045449999999995},{"name":"C#3","midi":49,"time":13.8068145,"velocity":0.7244094488188977,"duration":0.17045449999999995},{"name":"B2","midi":47,"time":13.977269,"velocity":0.7244094488188977,"duration":0.17045449999999995},{"name":"G#2","midi":44,"time":14.1477235,"velocity":0.7244094488188977,"duration":0.17045449999999995},{"name":"A2","midi":45,"time":14.318178,"velocity":0.7244094488188977,"duration":0.17045449999999995},{"name":"B2","midi":47,"time":14.4886325,"velocity":0.7244094488188977,"duration":0.17045449999999995},{"name":"A2","midi":45,"time":14.659087,"velocity":0.7244094488188977,"duration":0.17045449999999995},{"name":"F#2","midi":42,"time":14.8295415,"velocity":0.7244094488188977,"duration":0.17045449999999995},{"name":"G#2","midi":44,"time":14.999996,"velocity":0.7244094488188977,"duration":0.17045449999999995},{"name":"A2","midi":45,"time":15.1704505,"velocity":0.7244094488188977,"duration":0.17045449999999995},{"name":"G#2","midi":44,"time":15.340905,"velocity":0.7244094488188977,"duration":0.17045449999999995},{"name":"F#2","midi":42,"time":15.5113595,"velocity":0.7244094488188977,"duration":0.17045449999999995},{"name":"F2","midi":41,"time":15.681814,"velocity":0.7244094488188977,"duration":0.17045449999999995},{"name":"G#2","midi":44,"time":15.8522685,"velocity":0.7244094488188977,"duration":0.17045449999999995},{"name":"F#2","midi":42,"time":16.022723,"velocity":0.7244094488188977,"duration":0.17045450000000173},{"name":"F2","midi":41,"time":16.1931775,"velocity":0.7244094488188977,"duration":0.17045450000000173},{"name":"F#2","midi":42,"time":16.363632000000003,"velocity":0.7244094488188977,"duration":0.3409089999999999},{"name":"F#3","midi":54,"time":16.704541000000003,"velocity":0.7244094488188977,"duration":0.17045450000000173},{"name":"F3","midi":53,"time":16.874995500000004,"velocity":0.7244094488188977,"duration":0.17045450000000173},{"name":"F#3","midi":54,"time":17.045450000000006,"velocity":0.7244094488188977,"duration":0.2727271999999985},{"name":"C#3","midi":49,"time":17.386359000000006,"velocity":0.7244094488188977,"duration":0.2727271999999985},{"name":"D3","midi":50,"time":17.727268000000006,"velocity":0.7244094488188977,"duration":0.3409089999999999},{"name":"D4","midi":62,"time":18.068177000000006,"velocity":0.7244094488188977,"duration":0.17045450000000173},{"name":"C#4","midi":61,"time":18.238631500000007,"velocity":0.7244094488188977,"duration":0.17045450000000173},{"name":"D4","midi":62,"time":18.40908600000001,"velocity":0.7244094488188977,"duration":0.17045450000000173},{"name":"E4","midi":64,"time":18.57954050000001,"velocity":0.7244094488188977,"duration":0.17045450000000173},{"name":"D4","midi":62,"time":18.749995000000013,"velocity":0.7244094488188977,"duration":0.17045450000000173},{"name":"A#3","midi":58,"time":18.920449500000014,"velocity":0.7244094488188977,"duration":0.17045450000000173},{"name":"B3","midi":59,"time":19.090904000000016,"velocity":0.7244094488188977,"duration":0.306818100000001},{"name":"A3","midi":57,"time":19.431813000000016,"velocity":0.7244094488188977,"duration":0.306818100000001},{"name":"G3","midi":55,"time":19.772722000000016,"velocity":0.7244094488188977,"duration":0.306818100000001},{"name":"F#3","midi":54,"time":20.113631000000016,"velocity":0.7244094488188977,"duration":0.306818100000001},{"name":"E3","midi":52,"time":20.454540000000016,"velocity":0.7244094488188977,"duration":0.306818100000001},{"name":"E2","midi":40,"time":20.795449000000016,"velocity":0.7244094488188977,"duration":0.306818100000001},{"name":"F#2","midi":42,"time":21.136358000000016,"velocity":0.7244094488188977,"duration":0.306818100000001},{"name":"G2","midi":43,"time":21.477267000000015,"velocity":0.7244094488188977,"duration":0.306818100000001},{"name":"A2","midi":45,"time":21.818176000000015,"velocity":0.7244094488188977,"duration":0.306818100000001},{"name":"G3","midi":55,"time":22.159085000000015,"velocity":0.7244094488188977,"duration":0.306818100000001},{"name":"F#3","midi":54,"time":22.499994000000015,"velocity":0.7244094488188977,"duration":0.306818100000001},{"name":"E3","midi":52,"time":22.840903000000015,"velocity":0.7244094488188977,"duration":0.306818100000001},{"name":"D3","midi":50,"time":23.181812000000015,"velocity":0.7244094488188977,"duration":0.306818100000001},{"name":"D2","midi":38,"time":23.522721000000015,"velocity":0.7244094488188977,"duration":0.306818100000001},{"name":"E2","midi":40,"time":23.863630000000015,"velocity":0.7244094488188977,"duration":0.306818100000001},{"name":"F#2","midi":42,"time":24.204539000000015,"velocity":0.7244094488188977,"duration":0.306818100000001},{"name":"G2","midi":43,"time":24.545448000000015,"velocity":0.7244094488188977,"duration":0.306818100000001},{"name":"G3","midi":55,"time":24.886357000000014,"velocity":0.7244094488188977,"duration":0.306818100000001},{"name":"F#3","midi":54,"time":25.227266000000014,"velocity":0.7244094488188977,"duration":0.306818100000001},{"name":"B3","midi":59,"time":25.568175000000014,"velocity":0.7244094488188977,"duration":0.306818100000001},{"name":"E3","midi":52,"time":25.909084000000014,"velocity":0.7244094488188977,"duration":0.306818100000001},{"name":"A3","midi":57,"time":26.249993000000014,"velocity":0.7244094488188977,"duration":0.306818100000001},{"name":"D3","midi":50,"time":26.590902000000014,"velocity":0.7244094488188977,"duration":0.306818100000001},{"name":"D4","midi":62,"time":26.931811000000014,"velocity":0.7244094488188977,"duration":0.5113635000000016},{"name":"E4","midi":64,"time":27.443174500000016,"velocity":0.7244094488188977,"duration":0.17045450000000173},{"name":"D4","midi":62,"time":27.613629000000017,"velocity":0.7244094488188977,"duration":0.17045450000000173},{"name":"B3","midi":59,"time":27.78408350000002,"velocity":0.7244094488188977,"duration":0.17045450000000173},{"name":"C#4","midi":61,"time":27.95453800000002,"velocity":0.7244094488188977,"duration":0.17045450000000173},{"name":"D4","midi":62,"time":28.124992500000022,"velocity":0.7244094488188977,"duration":0.17045450000000173},{"name":"C#4","midi":61,"time":28.295447000000024,"velocity":0.7244094488188977,"duration":0.17045450000000173},{"name":"A3","midi":57,"time":28.465901500000026,"velocity":0.7244094488188977,"duration":0.17045450000000173},{"name":"D4","midi":62,"time":28.636356000000028,"velocity":0.7244094488188977,"duration":0.17045450000000173},{"name":"C#4","midi":61,"time":28.80681050000003,"velocity":0.7244094488188977,"duration":0.17045450000000173},{"name":"B3","midi":59,"time":28.97726500000003,"velocity":0.7244094488188977,"duration":0.17045450000000173},{"name":"A3","midi":57,"time":29.147719500000033,"velocity":0.7244094488188977,"duration":0.17045450000000173},{"name":"G3","midi":55,"time":29.318174000000035,"velocity":0.7244094488188977,"duration":0.17045450000000173},{"name":"F#3","midi":54,"time":29.488628500000036,"velocity":0.7244094488188977,"duration":0.17045450000000173},{"name":"G3","midi":55,"time":29.659083000000038,"velocity":0.7244094488188977,"duration":0.17045450000000173},{"name":"A3","midi":57,"time":29.82953750000004,"velocity":0.7244094488188977,"duration":0.17045450000000173},{"name":"D3","midi":50,"time":29.99999200000004,"velocity":0.7244094488188977,"duration":0.3409089999999999},{"name":"D4","midi":62,"time":30.34090100000004,"velocity":0.7244094488188977,"duration":0.17045450000000173},{"name":"C#4","midi":61,"time":30.511355500000043,"velocity":0.7244094488188977,"duration":0.17045450000000173},{"name":"D4","midi":62,"time":30.681810000000045,"velocity":0.7244094488188977,"duration":0.306818100000001},{"name":"A3","midi":57,"time":31.022719000000045,"velocity":0.7244094488188977,"duration":0.306818100000001},{"name":"B3","midi":59,"time":31.363628000000045,"velocity":0.7244094488188977,"duration":0.08522724999999909},{"name":"C#4","midi":61,"time":31.448855250000044,"velocity":0.7244094488188977,"duration":0.08522724999999909},{"name":"B3","midi":59,"time":31.534082500000043,"velocity":0.7244094488188977,"duration":0.17045450000000173},{"name":"A3","midi":57,"time":31.704537000000045,"velocity":0.7244094488188977,"duration":0.34090900000000346},{"name":"D4","midi":62,"time":32.04544600000005,"velocity":0.7244094488188977,"duration":0.306818100000001},{"name":"A3","midi":57,"time":32.38635500000005,"velocity":0.7244094488188977,"duration":0.306818100000001},{"name":"A3","midi":57,"time":32.727264000000055,"velocity":0.7244094488188977,"duration":0.08522725000000264},{"name":"B3","midi":59,"time":32.81249125000006,"velocity":0.7244094488188977,"duration":0.08522725000000264},{"name":"A3","midi":57,"time":32.89771850000006,"velocity":0.7244094488188977,"duration":0.17045449999999818},{"name":"G3","midi":55,"time":33.06817300000006,"velocity":0.7244094488188977,"duration":0.34090900000000346},{"name":"E4","midi":64,"time":33.40908200000006,"velocity":0.7244094488188977,"duration":0.306818100000001},{"name":"G3","midi":55,"time":33.749991000000065,"velocity":0.7244094488188977,"duration":0.306818100000001},{"name":"G3","midi":55,"time":34.09090000000007,"velocity":0.7244094488188977,"duration":0.08522725000000264},{"name":"A3","midi":57,"time":34.17612725000007,"velocity":0.7244094488188977,"duration":0.08522725000000264},{"name":"G3","midi":55,"time":34.261354500000074,"velocity":0.7244094488188977,"duration":0.17045449999999818},{"name":"F#3","midi":54,"time":34.43180900000007,"velocity":0.7244094488188977,"duration":0.17045449999999818},{"name":"E3","midi":52,"time":34.60226350000007,"velocity":0.7244094488188977,"duration":0.17045449999999818},{"name":"F#3","midi":54,"time":34.77271800000007,"velocity":0.7244094488188977,"duration":0.17045449999999818},{"name":"G#3","midi":56,"time":34.94317250000007,"velocity":0.7244094488188977,"duration":0.17045449999999818},{"name":"A3","midi":57,"time":35.113627000000065,"velocity":0.7244094488188977,"duration":0.17045449999999818},{"name":"G#3","midi":56,"time":35.28408150000006,"velocity":0.7244094488188977,"duration":0.17045449999999818},{"name":"A3","midi":57,"time":35.45453600000006,"velocity":0.7244094488188977,"duration":0.306818100000001},{"name":"E3","midi":52,"time":35.795445000000065,"velocity":0.7244094488188977,"duration":0.306818100000001},{"name":"D3","midi":50,"time":36.13635400000007,"velocity":0.7244094488188977,"duration":0.17045449999999818},{"name":"C#3","midi":49,"time":36.306808500000066,"velocity":0.7244094488188977,"duration":0.17045449999999818},{"name":"B2","midi":47,"time":36.477263000000065,"velocity":0.7244094488188977,"duration":0.17045449999999818},{"name":"A2","midi":45,"time":36.64771750000006,"velocity":0.7244094488188977,"duration":0.17045449999999818},{"name":"D3","midi":50,"time":36.81817200000006,"velocity":0.7244094488188977,"duration":0.17045449999999818},{"name":"E3","midi":52,"time":36.98862650000006,"velocity":0.7244094488188977,"duration":0.17045449999999818},{"name":"D3","midi":50,"time":37.15908100000006,"velocity":0.7244094488188977,"duration":0.17045449999999818},{"name":"B2","midi":47,"time":37.329535500000055,"velocity":0.7244094488188977,"duration":0.17045449999999818},{"name":"C#3","midi":49,"time":37.499990000000054,"velocity":0.7244094488188977,"duration":0.17045449999999818},{"name":"D3","midi":50,"time":37.67044450000005,"velocity":0.7244094488188977,"duration":0.17045449999999818},{"name":"C#3","midi":49,"time":37.84089900000005,"velocity":0.7244094488188977,"duration":0.17045449999999818},{"name":"A2","midi":45,"time":38.01135350000005,"velocity":0.7244094488188977,"duration":0.17045449999999818},{"name":"B2","midi":47,"time":38.181808000000046,"velocity":0.7244094488188977,"duration":0.17045449999999818},{"name":"C#3","midi":49,"time":38.352262500000045,"velocity":0.7244094488188977,"duration":0.17045449999999818},{"name":"B2","midi":47,"time":38.52271700000004,"velocity":0.7244094488188977,"duration":0.17045449999999818},{"name":"A2","midi":45,"time":38.69317150000004,"velocity":0.7244094488188977,"duration":0.17045449999999818},{"name":"G#2","midi":44,"time":38.86362600000004,"velocity":0.7244094488188977,"duration":0.17045449999999818},{"name":"B2","midi":47,"time":39.03408050000004,"velocity":0.7244094488188977,"duration":0.17045449999999818},{"name":"A2","midi":45,"time":39.204535000000035,"velocity":0.7244094488188977,"duration":0.17045449999999818},{"name":"G#2","midi":44,"time":39.374989500000034,"velocity":0.7244094488188977,"duration":0.17045449999999818},{"name":"A2","midi":45,"time":39.54544400000003,"velocity":0.7244094488188977,"duration":0.306818100000001},{"name":"A3","midi":57,"time":39.886353000000035,"velocity":0.7244094488188977,"duration":0.306818100000001},{"name":"G3","midi":55,"time":40.22726200000004,"velocity":0.7244094488188977,"duration":0.306818100000001},{"name":"F#3","midi":54,"time":40.56817100000004,"velocity":0.7244094488188977,"duration":0.306818100000001},{"name":"E3","midi":52,"time":40.909080000000046,"velocity":0.7244094488188977,"duration":0.306818100000001},{"name":"E4","midi":64,"time":41.24998900000005,"velocity":0.7244094488188977,"duration":0.306818100000001},{"name":"D4","midi":62,"time":41.59089800000005,"velocity":0.7244094488188977,"duration":0.306818100000001},{"name":"C#4","midi":61,"time":41.931807000000056,"velocity":0.7244094488188977,"duration":0.306818100000001},{"name":"B3","midi":59,"time":42.27271600000006,"velocity":0.7244094488188977,"duration":0.306818100000001},{"name":"B2","midi":47,"time":42.61362500000006,"velocity":0.7244094488188977,"duration":0.306818100000001},{"name":"A2","midi":45,"time":42.954534000000066,"velocity":0.7244094488188977,"duration":0.306818100000001},{"name":"G#2","midi":44,"time":43.29544300000007,"velocity":0.7244094488188977,"duration":0.306818100000001},{"name":"F#2","midi":42,"time":43.63635200000007,"velocity":0.7244094488188977,"duration":0.34090900000000346},{"name":"F#3","midi":54,"time":43.97726100000008,"velocity":0.7244094488188977,"duration":0.17045449999999818},{"name":"G3","midi":55,"time":44.147715500000075,"velocity":0.7244094488188977,"duration":0.17045449999999818},{"name":"A3","midi":57,"time":44.31817000000007,"velocity":0.7244094488188977,"duration":0.306818100000001},{"name":"B3","midi":59,"time":44.65907900000008,"velocity":0.7244094488188977,"duration":0.306818100000001},{"name":"E3","midi":52,"time":44.99998800000008,"velocity":0.7244094488188977,"duration":0.34090900000000346},{"name":"E2","midi":40,"time":45.34089700000008,"velocity":0.7244094488188977,"duration":0.17045449999999818},{"name":"F#2","midi":42,"time":45.51135150000008,"velocity":0.7244094488188977,"duration":0.17045449999999818},{"name":"G2","midi":43,"time":45.68180600000008,"velocity":0.7244094488188977,"duration":0.34090900000000346},{"name":"A2","midi":45,"time":46.02271500000008,"velocity":0.7244094488188977,"duration":0.306818100000001},{"name":"D2","midi":38,"time":46.36362400000009,"velocity":0.7244094488188977,"duration":0.34090900000000346},{"name":"B3","midi":59,"time":46.70453300000009,"velocity":0.7244094488188977,"duration":0.17045449999999818},{"name":"A#3","midi":58,"time":46.87498750000009,"velocity":0.7244094488188977,"duration":0.17045449999999818},{"name":"B3","midi":59,"time":47.04544200000009,"velocity":0.7244094488188977,"duration":0.306818100000001},{"name":"F#3","midi":54,"time":47.38635100000009,"velocity":0.7244094488188977,"duration":0.306818100000001},{"name":"G3","midi":55,"time":47.72726000000009,"velocity":0.7244094488188977,"duration":0.08522725000000264},{"name":"A3","midi":57,"time":47.812487250000096,"velocity":0.7244094488188977,"duration":0.08522725000000264},{"name":"G3","midi":55,"time":47.8977145000001,"velocity":0.7244094488188977,"duration":0.17045449999999818},{"name":"F#3","midi":54,"time":48.0681690000001,"velocity":0.7244094488188977,"duration":0.34090900000000346},{"name":"B3","midi":59,"time":48.4090780000001,"velocity":0.7244094488188977,"duration":0.306818100000001},{"name":"F#3","midi":54,"time":48.749987000000104,"velocity":0.7244094488188977,"duration":0.306818100000001},{"name":"F#3","midi":54,"time":49.09089600000011,"velocity":0.7244094488188977,"duration":0.08522725000000264},{"name":"G3","midi":55,"time":49.17612325000011,"velocity":0.7244094488188977,"duration":0.08522725000000264},{"name":"F#3","midi":54,"time":49.26135050000011,"velocity":0.7244094488188977,"duration":0.17045449999999818},{"name":"E3","midi":52,"time":49.43180500000011,"velocity":0.7244094488188977,"duration":0.34090900000000346},{"name":"C#4","midi":61,"time":49.772714000000114,"velocity":0.7244094488188977,"duration":0.306818100000001},{"name":"E3","midi":52,"time":50.11362300000012,"velocity":0.7244094488188977,"duration":0.306818100000001},{"name":"E3","midi":52,"time":50.45453200000012,"velocity":0.7244094488188977,"duration":0.08522725000000264},{"name":"F#3","midi":54,"time":50.539759250000124,"velocity":0.7244094488188977,"duration":0.08522725000000264},{"name":"E3","midi":52,"time":50.62498650000013,"velocity":0.7244094488188977,"duration":0.17045449999999818},{"name":"D3","midi":50,"time":50.795441000000125,"velocity":0.7244094488188977,"duration":0.17045449999999818},{"name":"C#3","midi":49,"time":50.96589550000012,"velocity":0.7244094488188977,"duration":0.17045449999999818},{"name":"D3","midi":50,"time":51.13635000000012,"velocity":0.7244094488188977,"duration":0.17045449999999818},{"name":"B2","midi":47,"time":51.30680450000012,"velocity":0.7244094488188977,"duration":0.17045449999999818},{"name":"C#3","midi":49,"time":51.47725900000012,"velocity":0.7244094488188977,"duration":0.17045449999999818},{"name":"D3","midi":50,"time":51.647713500000116,"velocity":0.7244094488188977,"duration":0.17045449999999818},{"name":"E3","midi":52,"time":51.818168000000114,"velocity":0.7244094488188977,"duration":0.17045449999999818},{"name":"F#3","midi":54,"time":51.98862250000011,"velocity":0.7244094488188977,"duration":0.17045449999999818},{"name":"E3","midi":52,"time":52.15907700000011,"velocity":0.7244094488188977,"duration":0.17045449999999818},{"name":"C#3","midi":49,"time":52.32953150000011,"velocity":0.7244094488188977,"duration":0.17045449999999818},{"name":"D3","midi":50,"time":52.499986000000106,"velocity":0.7244094488188977,"duration":0.17045449999999818},{"name":"E3","midi":52,"time":52.670440500000105,"velocity":0.7244094488188977,"duration":0.17045449999999818},{"name":"D3","midi":50,"time":52.8408950000001,"velocity":0.7244094488188977,"duration":0.17045449999999818},{"name":"B2","midi":47,"time":53.0113495000001,"velocity":0.7244094488188977,"duration":0.17045449999999818},{"name":"C#3","midi":49,"time":53.1818040000001,"velocity":0.7244094488188977,"duration":0.17045449999999818},{"name":"D3","midi":50,"time":53.3522585000001,"velocity":0.7244094488188977,"duration":0.17045449999999818},{"name":"C#3","midi":49,"time":53.522713000000095,"velocity":0.7244094488188977,"duration":0.17045449999999818},{"name":"B2","midi":47,"time":53.693167500000094,"velocity":0.7244094488188977,"duration":0.17045449999999818},{"name":"A#2","midi":46,"time":53.86362200000009,"velocity":0.7244094488188977,"duration":0.17045449999999818},{"name":"C#3","midi":49,"time":54.03407650000009,"velocity":0.7244094488188977,"duration":0.17045449999999818},{"name":"B2","midi":47,"time":54.20453100000009,"velocity":0.7244094488188977,"duration":0.17045449999999818},{"name":"A#2","midi":46,"time":54.374985500000086,"velocity":0.7244094488188977,"duration":0.17045449999999818},{"name":"B2","midi":47,"time":54.545440000000085,"velocity":0.7244094488188977,"duration":0.34090900000000346},{"name":"B3","midi":59,"time":54.88634900000009,"velocity":0.7244094488188977,"duration":0.17045449999999818},{"name":"A#3","midi":58,"time":55.056803500000086,"velocity":0.7244094488188977,"duration":0.17045449999999818},{"name":"B3","midi":59,"time":55.227258000000084,"velocity":0.7244094488188977,"duration":0.34090900000000346},{"name":"G3","midi":55,"time":55.56816700000009,"velocity":0.7244094488188977,"duration":0.34090900000000346},{"name":"D3","midi":50,"time":55.90907600000009,"velocity":0.7244094488188977,"duration":0.17045449999999818},{"name":"F#3","midi":54,"time":56.07953050000009,"velocity":0.7244094488188977,"duration":0.17045449999999818},{"name":"E3","midi":52,"time":56.24998500000009,"velocity":0.7244094488188977,"duration":0.17045449999999818},{"name":"G3","midi":55,"time":56.420439500000086,"velocity":0.7244094488188977,"duration":0.17045449999999818},{"name":"F#3","midi":54,"time":56.590894000000084,"velocity":0.7244094488188977,"duration":0.2556817500000008},{"name":"F#2","midi":42,"time":56.93180300000009,"velocity":0.7244094488188977,"duration":0.2556817500000008},{"name":"B2","midi":47,"time":57.27271200000009,"velocity":0.7244094488188977,"duration":2.7272719999999993}],"controlChanges":{"7":[{"number":7,"time":0,"value":0.7874015748031497}],"10":[{"number":10,"time":0,"value":0.3700787401574803}]},"id":2,"name":"Harpsichord LH","instrumentNumber":6,"instrument":"harpsichord","instrumentFamily":"piano","channelNumber":0,"isPercussion":false}]}