{"header":{"PPQ":384,"timeSignature":[4,4],"bpm":120,"name":"--------"},"startTime":0,"duration":136.87239583333348,"tracks":[{"startTime":0,"duration":0,"length":0,"notes":[],"controlChanges":{},"id":0,"name":"--------"},{"startTime":0.125,"duration":136.87239583333348,"length":815,"notes":[{"name":"G3","midi":55,"time":0.125,"velocity":0.7401574803149606,"duration":1.2486979166666665},{"name":"D5","midi":74,"time":0.125,"velocity":0.7401574803149606,"duration":0.07552083333333331},{"name":"C5","midi":72,"time":0.20312499999999997,"velocity":0.7401574803149606,"duration":0.07552083333333334},{"name":"D5","midi":74,"time":0.28125,"velocity":0.7401574803149606,"duration":0.46614583333333326},{"name":"B3","midi":59,"time":0.4375,"velocity":0.7401574803149606,"duration":0.30989583333333326},{"name":"D4","midi":62,"time":0.7499999999999999,"velocity":0.7401574803149606,"duration":0.30989583333333337},{"name":"D5","midi":74,"time":0.7499999999999999,"velocity":0.7401574803149606,"duration":0.6223958333333334},{"name":"G4","midi":67,"time":1.0625,"velocity":0.7401574803149606,"duration":0.30989583333333326},{"name":"A3","midi":57,"time":1.3749999999999998,"velocity":0.7401574803149606,"duration":0.6184895833333333},{"name":"D5","midi":74,"time":1.3749999999999998,"velocity":0.7401574803149606,"duration":0.62109375},{"name":"F#4","midi":66,"time":1.6874999999999998,"velocity":0.7401574803149606,"duration":0.30859375},{"name":"B3","midi":59,"time":1.9986979166666665,"velocity":0.7401574803149606,"duration":0.6210937500000004},{"name":"D5","midi":74,"time":1.9986979166666665,"velocity":0.7401574803149606,"duration":0.07552083333333348},{"name":"C5","midi":72,"time":2.09765625,"velocity":0.7401574803149606,"duration":0.07552083333333348},{"name":"D5","midi":74,"time":2.1966145833333335,"velocity":0.7401574803149606,"duration":0.390625},{"name":"G4","midi":67,"time":2.3138020833333335,"velocity":0.7401574803149606,"duration":0.30859375},{"name":"G3","midi":55,"time":2.625,"velocity":0.7401574803149606,"duration":0.3098958333333335},{"name":"G5","midi":79,"time":2.625,"velocity":0.7401574803149606,"duration":0.3098958333333335},{"name":"A3","midi":57,"time":2.9375,"velocity":0.7401574803149606,"duration":0.3098958333333335},{"name":"F#5","midi":78,"time":2.9375,"velocity":0.7401574803149606,"duration":0.3098958333333335},{"name":"B3","midi":59,"time":3.25,"velocity":0.7401574803149606,"duration":0.3098958333333335},{"name":"G5","midi":79,"time":3.25,"velocity":0.7401574803149606,"duration":0.6223958333333335},{"name":"C4","midi":60,"time":3.5625,"velocity":0.7401574803149606,"duration":0.3098958333333335},{"name":"D4","midi":62,"time":3.875,"velocity":0.7401574803149606,"duration":0.6223958333333339},{"name":"B4","midi":71,"time":3.875,"velocity":0.7401574803149606,"duration":0.11067708333333348},{"name":"A4","midi":69,"time":3.9856770833333335,"velocity":0.7401574803149606,"duration":0.11067708333333348},{"name":"B4","midi":71,"time":4.096354166666667,"velocity":0.7401574803149606,"duration":0.37760416666666696},{"name":"C4","midi":60,"time":4.500000000000001,"velocity":0.7401574803149606,"duration":0.622395833333333},{"name":"A4","midi":69,"time":4.500000000000001,"velocity":0.7401574803149606,"duration":0.30989583333333304},{"name":"B4","midi":71,"time":4.812500000000001,"velocity":0.7401574803149606,"duration":0.15364583333333304},{"name":"C5","midi":72,"time":4.968750000000001,"velocity":0.7401574803149606,"duration":0.15364583333333304},{"name":"D4","midi":62,"time":5.125000000000001,"velocity":0.7401574803149606,"duration":0.622395833333333},{"name":"B4","midi":71,"time":5.125000000000001,"velocity":0.7401574803149606,"duration":0.30989583333333304},{"name":"A4","midi":69,"time":5.437500000000001,"velocity":0.7401574803149606,"duration":0.30989583333333304},{"name":"G3","midi":55,"time":5.750000000000001,"velocity":0.7401574803149606,"duration":0.6236979166666661},{"name":"C5","midi":72,"time":5.750000000000001,"velocity":0.7401574803149606,"duration":0.15364583333333304},{"name":"B4","midi":71,"time":5.923177083333334,"velocity":0.7401574803149606,"duration":0.15364583333333304},{"name":"C5","midi":72,"time":6.071614583333334,"velocity":0.7401574803149606,"duration":0.15364583333333304},{"name":"B4","midi":71,"time":6.220052083333334,"velocity":0.7401574803149606,"duration":0.15364583333333304},{"name":"A3","midi":57,"time":6.376302083333334,"velocity":0.7401574803149606,"duration":0.622395833333333},{"name":"A4","midi":69,"time":6.376302083333334,"velocity":0.7401574803149606,"duration":0.30989583333333304},{"name":"B4","midi":71,"time":6.688802083333334,"velocity":0.7401574803149606,"duration":0.30989583333333304},{"name":"B3","midi":59,"time":7.001302083333334,"velocity":0.7401574803149606,"duration":0.6223958333333339},{"name":"G4","midi":67,"time":7.001302083333334,"velocity":0.7401574803149606,"duration":0.45572916666666696},{"name":"C4","midi":60,"time":7.626302083333335,"velocity":0.7401574803149606,"duration":0.30989583333333304},{"name":"E5","midi":76,"time":7.626302083333335,"velocity":0.7401574803149606,"duration":0.07552083333333304},{"name":"D5","midi":74,"time":7.704427083333335,"velocity":0.7401574803149606,"duration":0.07552083333333304},{"name":"E5","midi":76,"time":7.782552083333335,"velocity":0.7401574803149606,"duration":0.46614583333333304},{"name":"B3","midi":59,"time":7.938802083333335,"velocity":0.7401574803149606,"duration":0.30989583333333304},{"name":"C4","midi":60,"time":8.251302083333334,"velocity":0.7401574803149606,"duration":0.3098958333333339},{"name":"E5","midi":76,"time":8.251302083333334,"velocity":0.7401574803149606,"duration":0.6223958333333339},{"name":"G3","midi":55,"time":8.563802083333334,"velocity":0.7401574803149606,"duration":0.3098958333333339},{"name":"E3","midi":52,"time":8.876302083333334,"velocity":0.7401574803149606,"duration":0.3098958333333339},{"name":"E5","midi":76,"time":8.876302083333334,"velocity":0.7401574803149606,"duration":0.6223958333333339},{"name":"G3","midi":55,"time":9.188802083333334,"velocity":0.7401574803149606,"duration":0.3098958333333339},{"name":"C3","midi":48,"time":9.501302083333334,"velocity":0.7401574803149606,"duration":1.872395833333334},{"name":"E5","midi":76,"time":9.501302083333334,"velocity":0.7401574803149606,"duration":0.07552083333333393},{"name":"D5","midi":74,"time":9.579427083333334,"velocity":0.7401574803149606,"duration":0.07552083333333393},{"name":"E5","midi":76,"time":9.657552083333334,"velocity":0.7401574803149606,"duration":0.4661458333333339},{"name":"E3","midi":52,"time":10.126302083333334,"velocity":0.7401574803149606,"duration":0.6223958333333339},{"name":"D5","midi":74,"time":10.126302083333334,"velocity":0.7401574803149606,"duration":0.3098958333333339},{"name":"C5","midi":72,"time":10.438802083333334,"velocity":0.7401574803149606,"duration":0.3098958333333339},{"name":"F#3","midi":54,"time":10.751302083333334,"velocity":0.7401574803149606,"duration":0.6223958333333339},{"name":"B4","midi":71,"time":10.751302083333334,"velocity":0.7401574803149606,"duration":0.3098958333333339},{"name":"A4","midi":69,"time":11.063802083333334,"velocity":0.7401574803149606,"duration":0.3098958333333339},{"name":"B2","midi":47,"time":11.376302083333334,"velocity":0.7401574803149606,"duration":0.6223958333333339},{"name":"G3","midi":55,"time":11.376302083333334,"velocity":0.7401574803149606,"duration":1.2486979166666679},{"name":"D5","midi":74,"time":11.376302083333334,"velocity":0.7401574803149606,"duration":0.6223958333333339},{"name":"C3","midi":48,"time":12.001302083333334,"velocity":0.7401574803149606,"duration":0.6223958333333339},{"name":"C5","midi":72,"time":12.001302083333334,"velocity":0.7401574803149606,"duration":0.3098958333333339},{"name":"B4","midi":71,"time":12.313802083333334,"velocity":0.7401574803149606,"duration":0.3098958333333339},{"name":"F#3","midi":54,"time":12.626302083333336,"velocity":0.7401574803149606,"duration":0.6223958333333339},{"name":"D3","midi":50,"time":12.626302083333336,"velocity":0.7401574803149606,"duration":0.6223958333333339},{"name":"A4","midi":69,"time":12.626302083333336,"velocity":0.7401574803149606,"duration":0.3098958333333339},{"name":"B4","midi":71,"time":12.938802083333336,"velocity":0.7401574803149606,"duration":0.3098958333333339},{"name":"G3","midi":55,"time":13.251302083333336,"velocity":0.7401574803149606,"duration":0.3098958333333339},{"name":"A4","midi":69,"time":13.251302083333336,"velocity":0.7401574803149606,"duration":0.9361979166666679},{"name":"D3","midi":50,"time":13.563802083333336,"velocity":0.7401574803149606,"duration":0.3098958333333339},{"name":"B2","midi":47,"time":13.876302083333336,"velocity":0.7401574803149606,"duration":0.3098958333333339},{"name":"D3","midi":50,"time":14.188802083333337,"velocity":0.7401574803149606,"duration":0.3098958333333339},{"name":"G4","midi":67,"time":14.188802083333337,"velocity":0.7401574803149606,"duration":0.6184895833333339},{"name":"G2","midi":43,"time":14.501302083333337,"velocity":0.7401574803149606,"duration":0.62109375},{"name":"D3","midi":50,"time":15.125000000000004,"velocity":0.7401574803149606,"duration":0.6184895833333339},{"name":"A4","midi":69,"time":15.125000000000004,"velocity":0.7401574803149606,"duration":0.07552083333333393},{"name":"G4","midi":67,"time":15.203125000000004,"velocity":0.7401574803149606,"duration":0.07552083333333393},{"name":"A4","midi":69,"time":15.281250000000004,"velocity":0.7401574803149606,"duration":0.46484375},{"name":"F#3","midi":54,"time":15.437500000000004,"velocity":0.7401574803149606,"duration":0.30859375},{"name":"A3","midi":57,"time":15.74869791666667,"velocity":0.7401574803149606,"duration":0.3098958333333339},{"name":"A4","midi":69,"time":15.74869791666667,"velocity":0.7401574803149606,"duration":0.6223958333333339},{"name":"D4","midi":62,"time":16.06119791666667,"velocity":0.7401574803149606,"duration":0.6184895833333321},{"name":"E3","midi":52,"time":16.37369791666667,"velocity":0.7401574803149606,"duration":0.45572916666666785},{"name":"A4","midi":69,"time":16.37369791666667,"velocity":0.7401574803149606,"duration":0.6223958333333357},{"name":"C#4","midi":61,"time":16.68619791666667,"velocity":0.7401574803149606,"duration":0.3098958333333357},{"name":"F#3","midi":54,"time":16.998697916666675,"velocity":0.7401574803149606,"duration":0.45572916666666785},{"name":"A4","midi":69,"time":16.998697916666675,"velocity":0.7401574803149606,"duration":0.6223958333333357},{"name":"D4","midi":62,"time":17.311197916666675,"velocity":0.7401574803149606,"duration":0.4557291666666714},{"name":"F#3","midi":54,"time":17.62369791666668,"velocity":0.7401574803149606,"duration":0.3098958333333357},{"name":"D5","midi":74,"time":17.62369791666668,"velocity":0.7401574803149606,"duration":0.3098958333333357},{"name":"E3","midi":52,"time":17.936197916666682,"velocity":0.7401574803149606,"duration":0.30989583333333215},{"name":"C#5","midi":73,"time":17.936197916666682,"velocity":0.7401574803149606,"duration":0.30989583333333215},{"name":"D3","midi":50,"time":18.248697916666682,"velocity":0.7401574803149606,"duration":0.30989583333333215},{"name":"D5","midi":74,"time":18.248697916666682,"velocity":0.7401574803149606,"duration":0.6223958333333321},{"name":"E3","midi":52,"time":18.561197916666682,"velocity":0.7401574803149606,"duration":0.30989583333333215},{"name":"F#3","midi":54,"time":18.873697916666682,"velocity":0.7401574803149606,"duration":0.30989583333333215},{"name":"A4","midi":69,"time":18.873697916666682,"velocity":0.7401574803149606,"duration":0.6223958333333321},{"name":"A3","midi":57,"time":19.186197916666682,"velocity":0.7401574803149606,"duration":0.30989583333333215},{"name":"G3","midi":55,"time":19.498697916666682,"velocity":0.7401574803149606,"duration":0.30989583333333215},{"name":"C5","midi":72,"time":19.498697916666682,"velocity":0.7401574803149606,"duration":0.15364583333333215},{"name":"B4","midi":71,"time":19.654947916666682,"velocity":0.7401574803149606,"duration":0.15364583333333215},{"name":"F#3","midi":54,"time":19.811197916666682,"velocity":0.7401574803149606,"duration":0.30989583333333215},{"name":"A4","midi":69,"time":19.811197916666682,"velocity":0.7401574803149606,"duration":0.15364583333333215},{"name":"B4","midi":71,"time":19.967447916666682,"velocity":0.7401574803149606,"duration":0.15364583333333215},{"name":"E3","midi":52,"time":20.123697916666682,"velocity":0.7401574803149606,"duration":0.30989583333333215},{"name":"C5","midi":72,"time":20.123697916666682,"velocity":0.7401574803149606,"duration":0.6223958333333321},{"name":"D3","midi":50,"time":20.436197916666682,"velocity":0.7401574803149606,"duration":0.30989583333333215},{"name":"G3","midi":55,"time":20.748697916666682,"velocity":0.7401574803149606,"duration":0.6223958333333357},{"name":"C5","midi":72,"time":20.748697916666682,"velocity":0.7401574803149606,"duration":0.20833333333333215},{"name":"B4","midi":71,"time":20.957031250000014,"velocity":0.7401574803149606,"duration":0.10416666666666785},{"name":"C5","midi":72,"time":21.061197916666682,"velocity":0.7401574803149606,"duration":0.10416666666666785},{"name":"B4","midi":71,"time":21.16536458333335,"velocity":0.7401574803149606,"duration":0.20963541666666785},{"name":"A3","midi":57,"time":21.373697916666686,"velocity":0.7401574803149606,"duration":0.62109375},{"name":"A4","midi":69,"time":21.373697916666686,"velocity":0.7401574803149606,"duration":0.30859375},{"name":"B4","midi":71,"time":21.684895833333353,"velocity":0.7401574803149606,"duration":0.30989583333333215},{"name":"B3","midi":59,"time":21.997395833333353,"velocity":0.7401574803149606,"duration":0.6223958333333357},{"name":"G4","midi":67,"time":21.997395833333353,"velocity":0.7401574803149606,"duration":0.45572916666666785},{"name":"E3","midi":52,"time":22.622395833333357,"velocity":0.7401574803149606,"duration":0.30989583333333215},{"name":"G5","midi":79,"time":22.622395833333357,"velocity":0.7401574803149606,"duration":0.07552083333333215},{"name":"F#5","midi":78,"time":22.700520833333357,"velocity":0.7401574803149606,"duration":0.07552083333333215},{"name":"G5","midi":79,"time":22.778645833333357,"velocity":0.7401574803149606,"duration":0.46614583333333215},{"name":"F#3","midi":54,"time":22.934895833333357,"velocity":0.7401574803149606,"duration":0.30989583333333215},{"name":"G3","midi":55,"time":23.247395833333357,"velocity":0.7401574803149606,"duration":0.30989583333333215},{"name":"G5","midi":79,"time":23.247395833333357,"velocity":0.7401574803149606,"duration":0.6223958333333321},{"name":"F#3","midi":54,"time":23.559895833333357,"velocity":0.7401574803149606,"duration":0.30989583333333215},{"name":"E3","midi":52,"time":23.872395833333357,"velocity":0.7401574803149606,"duration":0.30989583333333215},{"name":"G5","midi":79,"time":23.872395833333357,"velocity":0.7401574803149606,"duration":0.6223958333333321},{"name":"D3","midi":50,"time":24.184895833333357,"velocity":0.7401574803149606,"duration":0.30989583333333215},{"name":"C#3","midi":49,"time":24.497395833333357,"velocity":0.7401574803149606,"duration":0.6223958333333321},{"name":"G5","midi":79,"time":24.497395833333357,"velocity":0.7401574803149606,"duration":0.30989583333333215},{"name":"F#5","midi":78,"time":24.809895833333357,"velocity":0.7401574803149606,"duration":0.30989583333333215},{"name":"A3","midi":57,"time":25.122395833333357,"velocity":0.7401574803149606,"duration":0.6223958333333321},{"name":"E5","midi":76,"time":25.122395833333357,"velocity":0.7401574803149606,"duration":0.30989583333333215},{"name":"D5","midi":74,"time":25.434895833333357,"velocity":0.7401574803149606,"duration":0.30989583333333215},{"name":"G3","midi":55,"time":25.747395833333357,"velocity":0.7401574803149606,"duration":0.6223958333333321},{"name":"C#5","midi":73,"time":25.747395833333357,"velocity":0.7401574803149606,"duration":0.30989583333333215},{"name":"B4","midi":71,"time":26.059895833333357,"velocity":0.7401574803149606,"duration":0.30989583333333215},{"name":"F#3","midi":54,"time":26.372395833333357,"velocity":0.7401574803149606,"duration":1.2486979166666679},{"name":"A4","midi":69,"time":26.372395833333357,"velocity":0.7401574803149606,"duration":0.6223958333333321},{"name":"F#2","midi":42,"time":26.997395833333357,"velocity":0.7401574803149606,"duration":0.6223958333333357},{"name":"D5","midi":74,"time":26.997395833333357,"velocity":0.7401574803149606,"duration":0.45572916666666785},{"name":"A2","midi":45,"time":27.622395833333357,"velocity":0.7401574803149606,"duration":0.6223958333333393},{"name":"E3","midi":52,"time":27.622395833333357,"velocity":0.7401574803149606,"duration":0.6223958333333393},{"name":"D5","midi":74,"time":27.622395833333357,"velocity":0.7401574803149606,"duration":0.1015625},{"name":"C#5","midi":73,"time":27.726562500000025,"velocity":0.7401574803149606,"duration":0.1015625},{"name":"D5","midi":74,"time":27.830729166666693,"velocity":0.7401574803149606,"duration":0.1015625},{"name":"C#5","midi":73,"time":27.93489583333336,"velocity":0.7401574803149606,"duration":0.1015625},{"name":"B4","midi":71,"time":28.03906250000003,"velocity":0.7401574803149606,"duration":0.1015625},{"name":"C#5","midi":73,"time":28.143229166666696,"velocity":0.7401574803149606,"duration":0.1015625},{"name":"D3","midi":50,"time":28.247395833333364,"velocity":0.7401574803149606,"duration":0.30989583333333215},{"name":"D5","midi":74,"time":28.247395833333364,"velocity":0.7401574803149606,"duration":0.07552083333333215},{"name":"C#5","midi":73,"time":28.325520833333364,"velocity":0.7401574803149606,"duration":0.07552083333333215},{"name":"D5","midi":74,"time":28.403645833333364,"velocity":0.7401574803149606,"duration":1.2486979166666679},{"name":"A2","midi":45,"time":28.559895833333364,"velocity":0.7401574803149606,"duration":0.30989583333333215},{"name":"F#2","midi":42,"time":28.872395833333364,"velocity":0.7401574803149606,"duration":0.30989583333333215},{"name":"A2","midi":45,"time":29.184895833333364,"velocity":0.7401574803149606,"duration":0.30989583333333215},{"name":"D2","midi":38,"time":29.497395833333364,"velocity":0.7401574803149606,"duration":0.6223958333333357},{"name":"G5","midi":79,"time":30.153645833333368,"velocity":0.7401574803149606,"duration":0.6223958333333321},{"name":"E2","midi":40,"time":30.153645833333368,"velocity":0.7401574803149606,"duration":1.2486979166666643},{"name":"C5","midi":72,"time":30.778645833333368,"velocity":0.7401574803149606,"duration":0.07552083333333215},{"name":"B4","midi":71,"time":30.856770833333368,"velocity":0.7401574803149606,"duration":0.07552083333333215},{"name":"C5","midi":72,"time":30.934895833333368,"velocity":0.7401574803149606,"duration":0.46614583333333215},{"name":"C5","midi":72,"time":31.403645833333364,"velocity":0.7401574803149606,"duration":0.6223958333333357},{"name":"C5","midi":72,"time":32.028645833333364,"velocity":0.7401574803149606,"duration":0.6223958333333357},{"name":"A3","midi":57,"time":32.028645833333364,"velocity":0.7401574803149606,"duration":0.3098958333333357},{"name":"E3","midi":52,"time":32.341145833333364,"velocity":0.7401574803149606,"duration":0.3098958333333357},{"name":"E5","midi":76,"time":32.653645833333364,"velocity":0.7401574803149606,"duration":0.3098958333333357},{"name":"C3","midi":48,"time":32.653645833333364,"velocity":0.7401574803149606,"duration":0.3098958333333357},{"name":"D5","midi":74,"time":32.966145833333364,"velocity":0.7401574803149606,"duration":0.3098958333333357},{"name":"E3","midi":52,"time":32.966145833333364,"velocity":0.7401574803149606,"duration":0.3098958333333357},{"name":"C5","midi":72,"time":33.278645833333364,"velocity":0.7401574803149606,"duration":0.6223958333333357},{"name":"A2","midi":45,"time":33.278645833333364,"velocity":0.7401574803149606,"duration":0.3098958333333357},{"name":"C3","midi":48,"time":33.591145833333364,"velocity":0.7401574803149606,"duration":0.3098958333333357},{"name":"A5","midi":81,"time":33.903645833333364,"velocity":0.7401574803149606,"duration":0.6223958333333357},{"name":"F#2","midi":42,"time":33.903645833333364,"velocity":0.7401574803149606,"duration":1.2486979166666714},{"name":"C5","midi":72,"time":34.528645833333364,"velocity":0.7401574803149606,"duration":0.0755208333333357},{"name":"B4","midi":71,"time":34.606770833333364,"velocity":0.7401574803149606,"duration":0.0755208333333357},{"name":"C5","midi":72,"time":34.684895833333364,"velocity":0.7401574803149606,"duration":0.4661458333333357},{"name":"C5","midi":72,"time":35.15364583333337,"velocity":0.7401574803149606,"duration":0.6223958333333357},{"name":"B4","midi":71,"time":35.77864583333337,"velocity":0.7401574803149606,"duration":0.3098958333333357},{"name":"G2","midi":43,"time":35.77864583333337,"velocity":0.7401574803149606,"duration":0.3098958333333357},{"name":"D5","midi":74,"time":36.09114583333337,"velocity":0.7401574803149606,"duration":0.3098958333333357},{"name":"B2","midi":47,"time":36.09114583333337,"velocity":0.7401574803149606,"duration":0.3098958333333357},{"name":"C5","midi":72,"time":36.40364583333337,"velocity":0.7401574803149606,"duration":0.3098958333333357},{"name":"D3","midi":50,"time":36.40364583333337,"velocity":0.7401574803149606,"duration":0.3098958333333357},{"name":"B4","midi":71,"time":36.71614583333337,"velocity":0.7401574803149606,"duration":0.3098958333333357},{"name":"G3","midi":55,"time":36.71614583333337,"velocity":0.7401574803149606,"duration":0.3098958333333357},{"name":"A4","midi":69,"time":37.02864583333337,"velocity":0.7401574803149606,"duration":0.6223958333333357},{"name":"C3","midi":48,"time":37.02864583333337,"velocity":0.7401574803149606,"duration":0.3098958333333357},{"name":"F#3","midi":54,"time":37.34114583333337,"velocity":0.7401574803149606,"duration":0.3098958333333357},{"name":"D5","midi":74,"time":37.65364583333337,"velocity":0.7401574803149606,"duration":0.0755208333333357},{"name":"B2","midi":47,"time":37.65364583333337,"velocity":0.7401574803149606,"duration":0.3098958333333357},{"name":"C5","midi":72,"time":37.73177083333337,"velocity":0.7401574803149606,"duration":0.0755208333333357},{"name":"D5","midi":74,"time":37.80989583333337,"velocity":0.7401574803149606,"duration":0.4661458333333357},{"name":"D3","midi":50,"time":37.96614583333337,"velocity":0.7401574803149606,"duration":0.3098958333333357},{"name":"D5","midi":74,"time":38.27864583333337,"velocity":0.7401574803149606,"duration":0.6223958333333357},{"name":"F#3","midi":54,"time":38.27864583333337,"velocity":0.7401574803149606,"duration":0.3098958333333357},{"name":"G3","midi":55,"time":38.59114583333337,"velocity":0.7401574803149606,"duration":0.3098958333333357},{"name":"D5","midi":74,"time":38.90364583333337,"velocity":0.7401574803149606,"duration":0.6223958333333357},{"name":"A2","midi":45,"time":38.90364583333337,"velocity":0.7401574803149606,"duration":0.3098958333333357},{"name":"F#3","midi":54,"time":39.21614583333337,"velocity":0.7401574803149606,"duration":0.3098958333333357},{"name":"E5","midi":76,"time":39.52864583333337,"velocity":0.7401574803149606,"duration":0.0846354166666643},{"name":"G2","midi":43,"time":39.52864583333337,"velocity":0.7401574803149606,"duration":0.30859375},{"name":"D5","midi":74,"time":39.60677083333337,"velocity":0.7401574803149606,"duration":0.0846354166666643},{"name":"E5","midi":76,"time":39.68489583333337,"velocity":0.7401574803149606,"duration":0.0846354166666643},{"name":"D5","midi":74,"time":39.76302083333337,"velocity":0.7401574803149606,"duration":0.0833333333333286},{"name":"E5","midi":76,"time":39.839843750000036,"velocity":0.7401574803149606,"duration":0.0846354166666643},{"name":"F#2","midi":42,"time":39.839843750000036,"velocity":0.7401574803149606,"duration":0.30859375},{"name":"D5","midi":74,"time":39.917968750000036,"velocity":0.7401574803149606,"duration":0.0846354166666643},{"name":"E5","midi":76,"time":39.996093750000036,"velocity":0.7401574803149606,"duration":0.0846354166666643},{"name":"D5","midi":74,"time":40.074218750000036,"velocity":0.7401574803149606,"duration":0.0833333333333286},{"name":"E5","midi":76,"time":40.1510416666667,"velocity":0.7401574803149606,"duration":0.30859375},{"name":"G2","midi":43,"time":40.1510416666667,"velocity":0.7401574803149606,"duration":0.30859375},{"name":"F#5","midi":78,"time":40.462239583333364,"velocity":0.7401574803149606,"duration":0.3098958333333357},{"name":"A2","midi":45,"time":40.462239583333364,"velocity":0.7401574803149606,"duration":0.3098958333333357},{"name":"G5","midi":79,"time":40.774739583333364,"velocity":0.7401574803149606,"duration":0.6223958333333357},{"name":"B2","midi":47,"time":40.774739583333364,"velocity":0.7401574803149606,"duration":0.3098958333333357},{"name":"C3","midi":48,"time":41.087239583333364,"velocity":0.7401574803149606,"duration":0.3098958333333357},{"name":"B4","midi":71,"time":41.399739583333364,"velocity":0.7401574803149606,"duration":0.3098958333333357},{"name":"D3","midi":50,"time":41.399739583333364,"velocity":0.7401574803149606,"duration":1.8723958333333357},{"name":"C5","midi":72,"time":41.712239583333364,"velocity":0.7401574803149606,"duration":0.1536458333333357},{"name":"D5","midi":74,"time":41.868489583333364,"velocity":0.7401574803149606,"duration":0.1536458333333357},{"name":"C5","midi":72,"time":42.024739583333364,"velocity":0.7401574803149606,"duration":0.3098958333333357},{"name":"G3","midi":55,"time":42.024739583333364,"velocity":0.7401574803149606,"duration":0.6223958333333357},{"name":"B4","midi":71,"time":42.337239583333364,"velocity":0.7401574803149606,"duration":0.3098958333333357},{"name":"A4","midi":69,"time":42.649739583333364,"velocity":0.7401574803149606,"duration":0.3098958333333357},{"name":"F#3","midi":54,"time":42.649739583333364,"velocity":0.7401574803149606,"duration":0.6223958333333357},{"name":"B4","midi":71,"time":42.962239583333364,"velocity":0.7401574803149606,"duration":0.3098958333333357},{"name":"A4","midi":69,"time":43.274739583333364,"velocity":0.7401574803149606,"duration":0.9348958333333357},{"name":"G3","midi":55,"time":43.274739583333364,"velocity":0.7401574803149606,"duration":0.3098958333333357},{"name":"D3","midi":50,"time":43.587239583333364,"velocity":0.7401574803149606,"duration":0.3098958333333357},{"name":"B2","midi":47,"time":43.899739583333364,"velocity":0.7401574803149606,"duration":0.2890625},{"name":"G4","midi":67,"time":44.210937500000036,"velocity":0.7401574803149606,"duration":0.6184895833333357},{"name":"D3","midi":50,"time":44.210937500000036,"velocity":0.7401574803149606,"duration":0.2916666666666643},{"name":"G2","midi":43,"time":44.523437500000036,"velocity":0.7401574803149606,"duration":0.62109375},{"name":"G4","midi":67,"time":45.1471354166667,"velocity":0.7401574803149606,"duration":0.3098958333333357},{"name":"G3","midi":55,"time":45.1471354166667,"velocity":0.7401574803149606,"duration":1.8723958333333357},{"name":"A4","midi":69,"time":45.4596354166667,"velocity":0.7401574803149606,"duration":0.1536458333333357},{"name":"A#4","midi":70,"time":45.6158854166667,"velocity":0.7401574803149606,"duration":0.1536458333333357},{"name":"A4","midi":69,"time":45.7721354166667,"velocity":0.7401574803149606,"duration":0.3098958333333357},{"name":"A#3","midi":58,"time":45.7721354166667,"velocity":0.7401574803149606,"duration":0.6223958333333357},{"name":"G4","midi":67,"time":46.0846354166667,"velocity":0.7401574803149606,"duration":0.3098958333333357},{"name":"F#4","midi":66,"time":46.3971354166667,"velocity":0.7401574803149606,"duration":0.3098958333333357},{"name":"D4","midi":62,"time":46.3971354166667,"velocity":0.7401574803149606,"duration":0.6223958333333357},{"name":"G4","midi":67,"time":46.7096354166667,"velocity":0.7401574803149606,"duration":0.3098958333333357},{"name":"D#4","midi":63,"time":47.0221354166667,"velocity":0.7401574803149606,"duration":0.3098958333333357},{"name":"G3","midi":55,"time":47.0221354166667,"velocity":0.7401574803149606,"duration":1.87109375},{"name":"D4","midi":62,"time":47.3346354166667,"velocity":0.7401574803149606,"duration":0.1536458333333357},{"name":"C4","midi":60,"time":47.4908854166667,"velocity":0.7401574803149606,"duration":0.1536458333333357},{"name":"C5","midi":72,"time":47.6471354166667,"velocity":0.7401574803149606,"duration":0.2682291666666643},{"name":"A3","midi":57,"time":47.6471354166667,"velocity":0.7401574803149606,"duration":0.62109375},{"name":"D4","midi":62,"time":47.9596354166667,"velocity":0.7401574803149606,"duration":0.2682291666666643},{"name":"D#4","midi":63,"time":48.270833333333364,"velocity":0.7401574803149606,"duration":0.9348958333333357},{"name":"C4","midi":60,"time":48.270833333333364,"velocity":0.7401574803149606,"duration":0.6223958333333357},{"name":"F#3","midi":54,"time":48.895833333333364,"velocity":0.7401574803149606,"duration":1.8723958333333357},{"name":"C4","midi":60,"time":49.208333333333364,"velocity":0.7401574803149606,"duration":0.3098958333333357},{"name":"D4","midi":62,"time":49.520833333333364,"velocity":0.7401574803149606,"duration":0.3098958333333357},{"name":"A3","midi":57,"time":49.520833333333364,"velocity":0.7401574803149606,"duration":0.6223958333333357},{"name":"F#4","midi":66,"time":49.833333333333364,"velocity":0.7401574803149606,"duration":0.3098958333333357},{"name":"A4","midi":69,"time":50.145833333333364,"velocity":0.7401574803149606,"duration":0.3098958333333357},{"name":"D4","midi":62,"time":50.145833333333364,"velocity":0.7401574803149606,"duration":0.6223958333333357},{"name":"C5","midi":72,"time":50.458333333333364,"velocity":0.7401574803149606,"duration":0.3098958333333357},{"name":"A#4","midi":70,"time":50.770833333333364,"velocity":0.7401574803149606,"duration":0.3098958333333357},{"name":"G3","midi":55,"time":50.770833333333364,"velocity":0.7401574803149606,"duration":1.2486979166666714},{"name":"A4","midi":69,"time":51.083333333333364,"velocity":0.7401574803149606,"duration":0.3098958333333357},{"name":"A#4","midi":70,"time":51.395833333333364,"velocity":0.7401574803149606,"duration":0.3098958333333357},{"name":"D4","midi":62,"time":51.395833333333364,"velocity":0.7401574803149606,"duration":1.2486979166666785},{"name":"D5","midi":74,"time":51.708333333333364,"velocity":0.7401574803149606,"duration":0.3098958333333357},{"name":"G4","midi":67,"time":52.02083333333337,"velocity":0.7401574803149606,"duration":0.3098958333333357},{"name":"F3","midi":53,"time":52.02083333333337,"velocity":0.7401574803149606,"duration":0.6223958333333357},{"name":"A#4","midi":70,"time":52.33333333333337,"velocity":0.7401574803149606,"duration":0.3098958333333357},{"name":"C5","midi":72,"time":52.64583333333338,"velocity":0.7401574803149606,"duration":0.3098958333333357},{"name":"D#3","midi":51,"time":52.64583333333338,"velocity":0.7401574803149606,"duration":1.2486979166666714},{"name":"D5","midi":74,"time":52.95833333333338,"velocity":0.7401574803149606,"duration":0.1536458333333357},{"name":"D#5","midi":75,"time":53.11458333333338,"velocity":0.7401574803149606,"duration":0.1536458333333357},{"name":"D5","midi":74,"time":53.27083333333338,"velocity":0.7401574803149606,"duration":0.3098958333333357},{"name":"G3","midi":55,"time":53.27083333333338,"velocity":0.7401574803149606,"duration":1.2473958333333428},{"name":"C5","midi":72,"time":53.58333333333338,"velocity":0.7401574803149606,"duration":0.3098958333333357},{"name":"A#4","midi":70,"time":53.895833333333385,"velocity":0.7401574803149606,"duration":0.2682291666666643},{"name":"D3","midi":50,"time":53.895833333333385,"velocity":0.7401574803149606,"duration":0.62109375},{"name":"A4","midi":69,"time":54.208333333333385,"velocity":0.7401574803149606,"duration":0.2682291666666643},{"name":"D#5","midi":75,"time":54.51953125000006,"velocity":0.7401574803149606,"duration":0.3098958333333357},{"name":"C3","midi":48,"time":54.51953125000006,"velocity":0.7401574803149606,"duration":1.2486979166666714},{"name":"D5","midi":74,"time":54.83203125000006,"velocity":0.7401574803149606,"duration":0.3098958333333357},{"name":"D#5","midi":75,"time":55.14453125000006,"velocity":0.7401574803149606,"duration":0.3098958333333357},{"name":"G3","midi":55,"time":55.14453125000006,"velocity":0.7401574803149606,"duration":1.2473958333333428},{"name":"F5","midi":77,"time":55.45703125000006,"velocity":0.7401574803149606,"duration":0.1536458333333357},{"name":"G5","midi":79,"time":55.61328125000006,"velocity":0.7401574803149606,"duration":0.1536458333333357},{"name":"C5","midi":72,"time":55.769531250000064,"velocity":0.7401574803149606,"duration":0.2682291666666643},{"name":"A#2","midi":46,"time":55.769531250000064,"velocity":0.7401574803149606,"duration":0.62109375},{"name":"D#5","midi":75,"time":56.082031250000064,"velocity":0.7401574803149606,"duration":0.2682291666666643},{"name":"F4","midi":65,"time":56.393229166666735,"velocity":0.7401574803149606,"duration":0.3098958333333357},{"name":"F3","midi":53,"time":56.393229166666735,"velocity":0.7401574803149606,"duration":1.2486979166666714},{"name":"A2","midi":45,"time":56.393229166666735,"velocity":0.7401574803149606,"duration":0.6223958333333357},{"name":"D#5","midi":75,"time":56.705729166666735,"velocity":0.7401574803149606,"duration":0.3098958333333357},{"name":"D5","midi":74,"time":57.018229166666735,"velocity":0.7401574803149606,"duration":0.3098958333333357},{"name":"A#2","midi":46,"time":57.018229166666735,"velocity":0.7401574803149606,"duration":0.3098958333333357},{"name":"A#4","midi":70,"time":57.330729166666735,"velocity":0.7401574803149606,"duration":0.3098958333333357},{"name":"D3","midi":50,"time":57.330729166666735,"velocity":0.7401574803149606,"duration":0.3098958333333357},{"name":"F4","midi":65,"time":57.64322916666674,"velocity":0.7401574803149606,"duration":0.2682291666666643},{"name":"F3","midi":53,"time":57.64322916666674,"velocity":0.7401574803149606,"duration":0.30859375},{"name":"A4","midi":69,"time":57.95442708333341,"velocity":0.7401574803149606,"duration":0.2682291666666643},{"name":"F2","midi":41,"time":57.95442708333341,"velocity":0.7401574803149606,"duration":0.30859375},{"name":"A#4","midi":70,"time":58.26562500000007,"velocity":0.7401574803149606,"duration":0.1536458333333357},{"name":"A#2","midi":46,"time":58.26562500000007,"velocity":0.7401574803149606,"duration":0.3098958333333357},{"name":"A4","midi":69,"time":58.42187500000007,"velocity":0.7401574803149606,"duration":0.1536458333333357},{"name":"A#4","midi":70,"time":58.57812500000007,"velocity":0.7401574803149606,"duration":1.2486979166666643},{"name":"D3","midi":50,"time":58.57812500000007,"velocity":0.7401574803149606,"duration":0.3098958333333357},{"name":"F3","midi":53,"time":58.89062500000007,"velocity":0.7401574803149606,"duration":0.3098958333333357},{"name":"A3","midi":57,"time":59.20312500000007,"velocity":0.7401574803149606,"duration":0.3098958333333357},{"name":"A#3","midi":58,"time":59.51562500000007,"velocity":0.7401574803149606,"duration":0.6223958333333286},{"name":"D5","midi":74,"time":60.140625000000064,"velocity":0.7401574803149606,"duration":0.3098958333333357},{"name":"A#3","midi":58,"time":60.140625000000064,"velocity":0.7401574803149606,"duration":1.8723958333333357},{"name":"D#5","midi":75,"time":60.453125000000064,"velocity":0.7401574803149606,"duration":0.1536458333333357},{"name":"F5","midi":77,"time":60.609375000000064,"velocity":0.7401574803149606,"duration":0.1536458333333357},{"name":"D#5","midi":75,"time":60.765625000000064,"velocity":0.7401574803149606,"duration":0.3098958333333357},{"name":"D4","midi":62,"time":60.765625000000064,"velocity":0.7401574803149606,"duration":0.6223958333333357},{"name":"D5","midi":74,"time":61.078125000000064,"velocity":0.7401574803149606,"duration":0.3098958333333357},{"name":"C5","midi":72,"time":61.390625000000064,"velocity":0.7401574803149606,"duration":0.3098958333333357},{"name":"F4","midi":65,"time":61.390625000000064,"velocity":0.7401574803149606,"duration":0.6223958333333357},{"name":"D5","midi":74,"time":61.703125000000064,"velocity":0.7401574803149606,"duration":0.3098958333333357},{"name":"C5","midi":72,"time":62.015625000000064,"velocity":0.7401574803149606,"duration":0.3098958333333357},{"name":"G#3","midi":56,"time":62.015625000000064,"velocity":0.7401574803149606,"duration":1.87109375},{"name":"B4","midi":71,"time":62.328125000000064,"velocity":0.7401574803149606,"duration":0.3098958333333357},{"name":"G#5","midi":80,"time":62.640625000000064,"velocity":0.7401574803149606,"duration":0.2682291666666643},{"name":"B3","midi":59,"time":62.640625000000064,"velocity":0.7401574803149606,"duration":0.62109375},{"name":"D5","midi":74,"time":62.953125000000064,"velocity":0.7401574803149606,"duration":0.2682291666666643},{"name":"F5","midi":77,"time":63.26432291666673,"velocity":0.7401574803149606,"duration":0.0755208333333357},{"name":"D4","midi":62,"time":63.26432291666673,"velocity":0.7401574803149606,"duration":0.6223958333333357},{"name":"D#5","midi":75,"time":63.34244791666673,"velocity":0.7401574803149606,"duration":0.0755208333333357},{"name":"F5","midi":77,"time":63.42057291666673,"velocity":0.7401574803149606,"duration":0.7786458333333286},{"name":"G3","midi":55,"time":63.88932291666673,"velocity":0.7401574803149606,"duration":1.8723958333333286},{"name":"G#4","midi":68,"time":64.20182291666673,"velocity":0.7401574803149606,"duration":0.3098958333333286},{"name":"G4","midi":67,"time":64.51432291666673,"velocity":0.7401574803149606,"duration":0.3098958333333286},{"name":"C4","midi":60,"time":64.51432291666673,"velocity":0.7401574803149606,"duration":0.6223958333333286},{"name":"B4","midi":71,"time":64.82682291666673,"velocity":0.7401574803149606,"duration":0.3098958333333286},{"name":"D5","midi":74,"time":65.13932291666673,"velocity":0.7401574803149606,"duration":0.3098958333333286},{"name":"B3","midi":59,"time":65.13932291666673,"velocity":0.7401574803149606,"duration":0.6223958333333286},{"name":"F5","midi":77,"time":65.45182291666673,"velocity":0.7401574803149606,"duration":0.3098958333333286},{"name":"D#5","midi":75,"time":65.76432291666673,"velocity":0.7401574803149606,"duration":0.3098958333333286},{"name":"C4","midi":60,"time":65.76432291666673,"velocity":0.7401574803149606,"duration":1.87109375},{"name":"D5","midi":74,"time":66.07682291666673,"velocity":0.7401574803149606,"duration":0.3098958333333286},{"name":"D#5","midi":75,"time":66.38932291666673,"velocity":0.7401574803149606,"duration":0.3098958333333286},{"name":"G3","midi":55,"time":66.38932291666673,"velocity":0.7401574803149606,"duration":0.6223958333333286},{"name":"G5","midi":79,"time":66.70182291666673,"velocity":0.7401574803149606,"duration":0.3098958333333286},{"name":"C5","midi":72,"time":67.01432291666673,"velocity":0.7401574803149606,"duration":0.2682291666666714},{"name":"D#3","midi":51,"time":67.01432291666673,"velocity":0.7401574803149606,"duration":0.62109375},{"name":"D#5","midi":75,"time":67.32682291666673,"velocity":0.7401574803149606,"duration":0.2682291666666714},{"name":"A4","midi":69,"time":67.6380208333334,"velocity":0.7401574803149606,"duration":0.3098958333333286},{"name":"C3","midi":48,"time":67.6380208333334,"velocity":0.7401574803149606,"duration":1.2486979166666572},{"name":"A#4","midi":70,"time":67.9505208333334,"velocity":0.7401574803149606,"duration":0.1536458333333286},{"name":"C5","midi":72,"time":68.1067708333334,"velocity":0.7401574803149606,"duration":0.1536458333333286},{"name":"A#4","midi":70,"time":68.2630208333334,"velocity":0.7401574803149606,"duration":0.3098958333333286},{"name":"D#3","midi":51,"time":68.2630208333334,"velocity":0.7401574803149606,"duration":1.248697916666643},{"name":"A4","midi":69,"time":68.5755208333334,"velocity":0.7401574803149606,"duration":0.3098958333333286},{"name":"G4","midi":67,"time":68.88802083333339,"velocity":0.7401574803149606,"duration":0.3098958333333286},{"name":"A#2","midi":46,"time":68.88802083333339,"velocity":0.7401574803149606,"duration":0.6223958333333286},{"name":"F#4","midi":66,"time":69.20052083333339,"velocity":0.7401574803149606,"duration":0.3098958333333286},{"name":"D#5","midi":75,"time":69.51302083333337,"velocity":0.7401574803149606,"duration":0.2682291666666714},{"name":"A2","midi":45,"time":69.51302083333337,"velocity":0.7401574803149606,"duration":0.9361979166666572},{"name":"C5","midi":72,"time":69.82552083333337,"velocity":0.7401574803149606,"duration":0.2682291666666714},{"name":"D5","midi":74,"time":70.13802083333337,"velocity":0.7401574803149606,"duration":0.3098958333333286},{"name":"F#3","midi":54,"time":70.13802083333337,"velocity":0.7401574803149606,"duration":1.248697916666643},{"name":"F#5","midi":78,"time":70.45052083333336,"velocity":0.7401574803149606,"duration":0.1536458333333286},{"name":"G2","midi":43,"time":70.45052083333336,"velocity":0.7401574803149606,"duration":0.3098958333333286},{"name":"G5","midi":79,"time":70.60677083333336,"velocity":0.7401574803149606,"duration":0.1536458333333286},{"name":"A5","midi":81,"time":70.76302083333336,"velocity":0.7401574803149606,"duration":0.3098958333333286},{"name":"F#2","midi":42,"time":70.76302083333336,"velocity":0.7401574803149606,"duration":0.6223958333333286},{"name":"C5","midi":72,"time":71.07552083333336,"velocity":0.7401574803149606,"duration":0.3098958333333286},{"name":"A#4","midi":70,"time":71.38802083333334,"velocity":0.7401574803149606,"duration":0.3098958333333286},{"name":"G2","midi":43,"time":71.38802083333334,"velocity":0.7401574803149606,"duration":0.3098958333333286},{"name":"D#5","midi":75,"time":71.70052083333334,"velocity":0.7401574803149606,"duration":0.3098958333333286},{"name":"A2","midi":45,"time":71.70052083333334,"velocity":0.7401574803149606,"duration":0.3098958333333286},{"name":"D5","midi":74,"time":72.01302083333334,"velocity":0.7401574803149606,"duration":0.3098958333333286},{"name":"A#2","midi":46,"time":72.01302083333334,"velocity":0.7401574803149606,"duration":0.3098958333333286},{"name":"A4","midi":69,"time":72.32552083333334,"velocity":0.7401574803149606,"duration":0.3098958333333286},{"name":"C3","midi":48,"time":72.32552083333334,"velocity":0.7401574803149606,"duration":0.3098958333333286},{"name":"A#4","midi":70,"time":72.63802083333334,"velocity":0.7401574803149606,"duration":0.2682291666666714},{"name":"D3","midi":50,"time":72.63802083333334,"velocity":0.7401574803149606,"duration":0.30859375},{"name":"F#4","midi":66,"time":72.94921875000001,"velocity":0.7401574803149606,"duration":0.2682291666666714},{"name":"D2","midi":38,"time":72.94921875000001,"velocity":0.7401574803149606,"duration":0.30859375},{"name":"G4","midi":67,"time":73.26041666666669,"velocity":0.7401574803149606,"duration":1.6927083333333286},{"name":"G2","midi":43,"time":73.26041666666669,"velocity":0.7401574803149606,"duration":1.7578125},{"name":"B3","midi":59,"time":75.01041666666669,"velocity":0.7401574803149606,"duration":0.6223958333333286},{"name":"G3","midi":55,"time":75.01041666666669,"velocity":0.7401574803149606,"duration":3.7421875},{"name":"D4","midi":62,"time":75.01041666666669,"velocity":0.7401574803149606,"duration":0.6223958333333286},{"name":"C4","midi":60,"time":75.63541666666669,"velocity":0.7401574803149606,"duration":0.3098958333333286},{"name":"E4","midi":64,"time":75.63541666666669,"velocity":0.7401574803149606,"duration":0.3098958333333286},{"name":"B3","midi":59,"time":75.94791666666669,"velocity":0.7401574803149606,"duration":0.3098958333333286},{"name":"F#4","midi":66,"time":75.94791666666669,"velocity":0.7401574803149606,"duration":0.1536458333333286},{"name":"G4","midi":67,"time":76.10416666666669,"velocity":0.7401574803149606,"duration":0.1536458333333286},{"name":"A3","midi":57,"time":76.26041666666669,"velocity":0.7401574803149606,"duration":0.3098958333333286},{"name":"F#4","midi":66,"time":76.26041666666669,"velocity":0.7401574803149606,"duration":0.3098958333333286},{"name":"C4","midi":60,"time":76.57291666666669,"velocity":0.7401574803149606,"duration":0.3098958333333286},{"name":"G4","midi":67,"time":76.57291666666669,"velocity":0.7401574803149606,"duration":0.1536458333333286},{"name":"A4","midi":69,"time":76.72916666666669,"velocity":0.7401574803149606,"duration":0.1536458333333286},{"name":"B3","midi":59,"time":76.88541666666669,"velocity":0.7401574803149606,"duration":0.3085937499999858},{"name":"G4","midi":67,"time":76.88541666666669,"velocity":0.7401574803149606,"duration":0.1302083333333286},{"name":"F#4","midi":66,"time":77.02343750000001,"velocity":0.7401574803149606,"duration":0.1302083333333286},{"name":"G4","midi":67,"time":77.16145833333334,"velocity":0.7401574803149606,"duration":0.5690104166666714},{"name":"A3","midi":57,"time":77.19661458333334,"velocity":0.7401574803149606,"duration":0.3098958333333286},{"name":"B3","midi":59,"time":77.50911458333334,"velocity":0.7401574803149606,"duration":0.3098958333333428},{"name":"D4","midi":62,"time":77.82161458333336,"velocity":0.7401574803149606,"duration":0.3098958333333286},{"name":"A4","midi":69,"time":77.82161458333336,"velocity":0.7401574803149606,"duration":0.1536458333333286},{"name":"B4","midi":71,"time":77.97786458333336,"velocity":0.7401574803149606,"duration":0.1536458333333286},{"name":"C4","midi":60,"time":78.13411458333336,"velocity":0.7401574803149606,"duration":0.3098958333333286},{"name":"A4","midi":69,"time":78.13411458333336,"velocity":0.7401574803149606,"duration":0.3098958333333286},{"name":"E4","midi":64,"time":78.44661458333336,"velocity":0.7401574803149606,"duration":0.30859375},{"name":"B4","midi":71,"time":78.44661458333336,"velocity":0.7401574803149606,"duration":0.1536458333333286},{"name":"C5","midi":72,"time":78.60286458333336,"velocity":0.7401574803149606,"duration":0.15234375},{"name":"D4","midi":62,"time":78.75781250000003,"velocity":0.7401574803149606,"duration":0.6223958333333286},{"name":"B4","midi":71,"time":78.75781250000003,"velocity":0.7401574803149606,"duration":0.3098958333333286},{"name":"F#4","midi":66,"time":79.07031250000003,"velocity":0.7401574803149606,"duration":0.3098958333333286},{"name":"B3","midi":59,"time":79.38281250000003,"velocity":0.7401574803149606,"duration":1.2486979166666572},{"name":"G4","midi":67,"time":79.38281250000003,"velocity":0.7401574803149606,"duration":0.3098958333333286},{"name":"D4","midi":62,"time":79.69531250000003,"velocity":0.7401574803149606,"duration":0.3098958333333286},{"name":"G3","midi":55,"time":80.00781250000003,"velocity":0.7401574803149606,"duration":1.248697916666643},{"name":"E4","midi":64,"time":80.00781250000003,"velocity":0.7401574803149606,"duration":0.3098958333333286},{"name":"G4","midi":67,"time":80.32031250000003,"velocity":0.7401574803149606,"duration":0.3098958333333286},{"name":"A3","midi":57,"time":80.63281250000001,"velocity":0.7401574803149606,"duration":1.2486979166666714},{"name":"D4","midi":62,"time":80.63281250000001,"velocity":0.7401574803149606,"duration":0.6223958333333286},{"name":"F#3","midi":54,"time":81.2578125,"velocity":0.7401574803149606,"duration":0.622395833333357},{"name":"D4","midi":62,"time":81.2578125,"velocity":0.7401574803149606,"duration":0.1041666666666714},{"name":"C4","midi":60,"time":81.36197916666667,"velocity":0.7401574803149606,"duration":0.1041666666666714},{"name":"D4","midi":62,"time":81.46614583333334,"velocity":0.7401574803149606,"duration":0.1041666666666714},{"name":"C4","midi":60,"time":81.57031250000001,"velocity":0.7401574803149606,"duration":0.1041666666666714},{"name":"B3","midi":59,"time":81.67447916666669,"velocity":0.7401574803149606,"duration":0.1041666666666714},{"name":"C4","midi":60,"time":81.77864583333336,"velocity":0.7401574803149606,"duration":0.10416666666665719},{"name":"G3","midi":55,"time":81.88281250000001,"velocity":0.7401574803149606,"duration":0.6223958333333428},{"name":"B3","midi":59,"time":81.88281250000001,"velocity":0.7401574803149606,"duration":0.4557291666666714},{"name":"C3","midi":48,"time":82.50781250000003,"velocity":0.7401574803149606,"duration":0.3098958333333286},{"name":"E4","midi":64,"time":82.50781250000003,"velocity":0.7401574803149606,"duration":0.3098958333333286},{"name":"G3","midi":55,"time":82.82031250000003,"velocity":0.7401574803149606,"duration":0.3098958333333286},{"name":"D4","midi":62,"time":82.82031250000003,"velocity":0.7401574803149606,"duration":0.1536458333333286},{"name":"C4","midi":60,"time":82.97656250000003,"velocity":0.7401574803149606,"duration":0.1536458333333286},{"name":"B2","midi":47,"time":83.13281250000003,"velocity":0.7401574803149606,"duration":0.3098958333333286},{"name":"D4","midi":62,"time":83.13281250000003,"velocity":0.7401574803149606,"duration":0.3098958333333286},{"name":"G3","midi":55,"time":83.44531250000003,"velocity":0.7401574803149606,"duration":0.3098958333333286},{"name":"C4","midi":60,"time":83.44531250000003,"velocity":0.7401574803149606,"duration":0.1536458333333286},{"name":"B3","midi":59,"time":83.60156250000003,"velocity":0.7401574803149606,"duration":0.1536458333333286},{"name":"A2","midi":45,"time":83.75781250000003,"velocity":0.7401574803149606,"duration":0.3098958333333286},{"name":"C4","midi":60,"time":83.75781250000003,"velocity":0.7401574803149606,"duration":0.3098958333333286},{"name":"G3","midi":55,"time":84.07031250000003,"velocity":0.7401574803149606,"duration":0.3098958333333286},{"name":"B3","midi":59,"time":84.07031250000003,"velocity":0.7401574803149606,"duration":0.1536458333333286},{"name":"A3","midi":57,"time":84.22656250000003,"velocity":0.7401574803149606,"duration":0.1536458333333286},{"name":"B2","midi":47,"time":84.38281250000003,"velocity":0.7401574803149606,"duration":0.3098958333333286},{"name":"D4","midi":62,"time":84.38281250000003,"velocity":0.7401574803149606,"duration":0.3098958333333286},{"name":"G3","midi":55,"time":84.69531250000003,"velocity":0.7401574803149606,"duration":0.3098958333333286},{"name":"C4","midi":60,"time":84.69531250000003,"velocity":0.7401574803149606,"duration":0.1536458333333286},{"name":"B3","midi":59,"time":84.85156250000003,"velocity":0.7401574803149606,"duration":0.1536458333333286},{"name":"A2","midi":45,"time":85.00781250000003,"velocity":0.7401574803149606,"duration":0.3098958333333286},{"name":"C4","midi":60,"time":85.00781250000003,"velocity":0.7401574803149606,"duration":0.3098958333333286},{"name":"F#3","midi":54,"time":85.32031250000003,"velocity":0.7401574803149606,"duration":0.3098958333333286},{"name":"B3","midi":59,"time":85.32031250000003,"velocity":0.7401574803149606,"duration":0.1536458333333286},{"name":"A3","midi":57,"time":85.47656250000003,"velocity":0.7401574803149606,"duration":0.1536458333333286},{"name":"G2","midi":43,"time":85.63281250000003,"velocity":0.7401574803149606,"duration":0.3098958333333286},{"name":"B3","midi":59,"time":85.63281250000003,"velocity":0.7401574803149606,"duration":0.3098958333333286},{"name":"A2","midi":45,"time":85.94531250000003,"velocity":0.7401574803149606,"duration":0.1536458333333286},{"name":"A3","midi":57,"time":85.94531250000003,"velocity":0.7401574803149606,"duration":0.1536458333333286},{"name":"B2","midi":47,"time":86.10156250000003,"velocity":0.7401574803149606,"duration":0.1536458333333286},{"name":"G3","midi":55,"time":86.10156250000003,"velocity":0.7401574803149606,"duration":0.1536458333333286},{"name":"A2","midi":45,"time":86.25781250000003,"velocity":0.7401574803149606,"duration":0.3098958333333286},{"name":"F#3","midi":54,"time":86.25781250000003,"velocity":0.7401574803149606,"duration":0.3098958333333286},{"name":"B2","midi":47,"time":86.57031250000003,"velocity":0.7401574803149606,"duration":0.1536458333333286},{"name":"G3","midi":55,"time":86.57031250000003,"velocity":0.7401574803149606,"duration":0.3098958333333286},{"name":"C3","midi":48,"time":86.72656250000003,"velocity":0.7401574803149606,"duration":0.1536458333333286},{"name":"B2","midi":47,"time":86.88281250000003,"velocity":0.7401574803149606,"duration":0.3098958333333428},{"name":"A3","midi":57,"time":86.88281250000003,"velocity":0.7401574803149606,"duration":0.1015625},{"name":"G3","midi":55,"time":86.9869791666667,"velocity":0.7401574803149606,"duration":0.1015625},{"name":"A3","midi":57,"time":87.09114583333337,"velocity":0.7401574803149606,"duration":0.1015625},{"name":"C3","midi":48,"time":87.19531250000004,"velocity":0.7401574803149606,"duration":0.1536458333333428},{"name":"G3","midi":55,"time":87.19531250000004,"velocity":0.7401574803149606,"duration":0.1015625},{"name":"A3","midi":57,"time":87.29947916666671,"velocity":0.7401574803149606,"duration":0.10156250000001421},{"name":"D3","midi":50,"time":87.35156250000006,"velocity":0.7401574803149606,"duration":0.1536458333333428},{"name":"G3","midi":55,"time":87.4036458333334,"velocity":0.7401574803149606,"duration":0.1015625},{"name":"G2","midi":43,"time":87.50781250000007,"velocity":0.7401574803149606,"duration":0.3098958333333428},{"name":"A3","midi":57,"time":87.50781250000007,"velocity":0.7401574803149606,"duration":0.1015625},{"name":"G3","midi":55,"time":87.61197916666674,"velocity":0.7401574803149606,"duration":0.1015625},{"name":"A3","midi":57,"time":87.71614583333341,"velocity":0.7401574803149606,"duration":0.1015625},{"name":"A2","midi":45,"time":87.82031250000009,"velocity":0.7401574803149606,"duration":0.1536458333333428},{"name":"G3","midi":55,"time":87.82031250000009,"velocity":0.7401574803149606,"duration":0.1015625},{"name":"F#3","midi":54,"time":87.92447916666676,"velocity":0.7401574803149606,"duration":0.10156250000001421},{"name":"B2","midi":47,"time":87.9765625000001,"velocity":0.7401574803149606,"duration":0.1536458333333428},{"name":"G3","midi":55,"time":88.02864583333344,"velocity":0.7401574803149606,"duration":0.1015625},{"name":"D2","midi":38,"time":88.13281250000011,"velocity":0.7401574803149606,"duration":0.6223958333333286},{"name":"A3","midi":57,"time":88.13281250000011,"velocity":0.7401574803149606,"duration":0.3098958333333286},{"name":"G3","midi":55,"time":88.44531250000011,"velocity":0.7401574803149606,"duration":0.3098958333333286},{"name":"D3","midi":50,"time":88.75781250000011,"velocity":0.7401574803149606,"duration":0.6184895833333286},{"name":"F#3","midi":54,"time":88.75781250000011,"velocity":0.7401574803149606,"duration":0.3098958333333286},{"name":"E3","midi":52,"time":89.07031250000011,"velocity":0.7401574803149606,"duration":0.30859375},{"name":"D3","midi":50,"time":89.38151041666679,"velocity":0.7401574803149606,"duration":0.6223958333333286},{"name":"C3","midi":48,"time":89.69401041666679,"velocity":0.7401574803149606,"duration":0.3098958333333286},{"name":"B2","midi":47,"time":90.00651041666679,"velocity":0.7401574803149606,"duration":0.3098958333333286},{"name":"D4","midi":62,"time":90.00651041666679,"velocity":0.7401574803149606,"duration":0.6223958333333286},{"name":"C3","midi":48,"time":90.31901041666679,"velocity":0.7401574803149606,"duration":0.1536458333333286},{"name":"D3","midi":50,"time":90.47526041666679,"velocity":0.7401574803149606,"duration":0.1536458333333286},{"name":"C3","midi":48,"time":90.63151041666679,"velocity":0.7401574803149606,"duration":0.3098958333333286},{"name":"E4","midi":64,"time":90.63151041666679,"velocity":0.7401574803149606,"duration":0.3098958333333286},{"name":"D3","midi":50,"time":90.94401041666679,"velocity":0.7401574803149606,"duration":0.1536458333333286},{"name":"F#4","midi":66,"time":90.94401041666679,"velocity":0.7401574803149606,"duration":0.1536458333333286},{"name":"E3","midi":52,"time":91.10026041666679,"velocity":0.7401574803149606,"duration":0.1536458333333286},{"name":"G4","midi":67,"time":91.10026041666679,"velocity":0.7401574803149606,"duration":0.1536458333333286},{"name":"A2","midi":45,"time":91.25651041666679,"velocity":0.7401574803149606,"duration":0.3098958333333286},{"name":"F#4","midi":66,"time":91.25651041666679,"velocity":0.7401574803149606,"duration":0.3098958333333286},{"name":"B2","midi":47,"time":91.56901041666679,"velocity":0.7401574803149606,"duration":0.1536458333333286},{"name":"G4","midi":67,"time":91.56901041666679,"velocity":0.7401574803149606,"duration":0.1536458333333286},{"name":"C3","midi":48,"time":91.72526041666679,"velocity":0.7401574803149606,"duration":0.1536458333333286},{"name":"A4","midi":69,"time":91.72526041666679,"velocity":0.7401574803149606,"duration":0.1536458333333286},{"name":"B2","midi":47,"time":91.88151041666679,"velocity":0.7401574803149606,"duration":0.3098958333333286},{"name":"G4","midi":67,"time":91.88151041666679,"velocity":0.7401574803149606,"duration":0.1549479166666714},{"name":"F#4","midi":66,"time":92.03776041666679,"velocity":0.7401574803149606,"duration":0.1549479166666572},{"name":"C3","midi":48,"time":92.19401041666677,"velocity":0.7401574803149606,"duration":0.1536458333333286},{"name":"G4","midi":67,"time":92.19401041666677,"velocity":0.7401574803149606,"duration":0.6184895833333286},{"name":"D3","midi":50,"time":92.35026041666677,"velocity":0.7401574803149606,"duration":0.1536458333333286},{"name":"E3","midi":52,"time":92.50651041666677,"velocity":0.7401574803149606,"duration":0.30859375},{"name":"F#3","midi":54,"time":92.81770833333344,"velocity":0.7401574803149606,"duration":0.1536458333333286},{"name":"A4","midi":69,"time":92.81770833333344,"velocity":0.7401574803149606,"duration":0.1536458333333286},{"name":"G3","midi":55,"time":92.97395833333344,"velocity":0.7401574803149606,"duration":0.1536458333333286},{"name":"B4","midi":71,"time":92.97395833333344,"velocity":0.7401574803149606,"duration":0.1536458333333286},{"name":"F#3","midi":54,"time":93.13020833333344,"velocity":0.7401574803149606,"duration":0.3098958333333286},{"name":"A4","midi":69,"time":93.13020833333344,"velocity":0.7401574803149606,"duration":0.3098958333333286},{"name":"G3","midi":55,"time":93.44270833333344,"velocity":0.7401574803149606,"duration":0.1536458333333286},{"name":"B4","midi":71,"time":93.44270833333344,"velocity":0.7401574803149606,"duration":0.1536458333333286},{"name":"A3","midi":57,"time":93.59895833333344,"velocity":0.7401574803149606,"duration":0.1536458333333286},{"name":"C5","midi":72,"time":93.59895833333344,"velocity":0.7401574803149606,"duration":0.1536458333333286},{"name":"G3","midi":55,"time":93.75520833333344,"velocity":0.7401574803149606,"duration":0.3098958333333286},{"name":"B4","midi":71,"time":93.75520833333344,"velocity":0.7401574803149606,"duration":0.3098958333333286},{"name":"A3","midi":57,"time":94.06770833333344,"velocity":0.7401574803149606,"duration":0.3098958333333286},{"name":"F#4","midi":66,"time":94.06770833333344,"velocity":0.7401574803149606,"duration":0.3098958333333286},{"name":"B3","midi":59,"time":94.38020833333344,"velocity":0.7401574803149606,"duration":0.3098958333333286},{"name":"G4","midi":67,"time":94.38020833333344,"velocity":0.7401574803149606,"duration":0.3098958333333286},{"name":"G3","midi":55,"time":94.69270833333344,"velocity":0.7401574803149606,"duration":0.3098958333333286},{"name":"D4","midi":62,"time":94.69270833333344,"velocity":0.7401574803149606,"duration":0.3098958333333286},{"name":"C4","midi":60,"time":95.00520833333344,"velocity":0.7401574803149606,"duration":0.3098958333333286},{"name":"E4","midi":64,"time":95.00520833333344,"velocity":0.7401574803149606,"duration":0.3098958333333286},{"name":"B3","midi":59,"time":95.31770833333344,"velocity":0.7401574803149606,"duration":0.3098958333333286},{"name":"G4","midi":67,"time":95.31770833333344,"velocity":0.7401574803149606,"duration":0.3098958333333286},{"name":"A3","midi":57,"time":95.63020833333344,"velocity":0.7401574803149606,"duration":0.3098958333333286},{"name":"D4","midi":62,"time":95.63020833333344,"velocity":0.7401574803149606,"duration":0.3098958333333286},{"name":"E3","midi":52,"time":95.94270833333344,"velocity":0.7401574803149606,"duration":0.3098958333333428},{"name":"C4","midi":60,"time":95.94270833333344,"velocity":0.7401574803149606,"duration":0.1041666666666714},{"name":"D4","midi":62,"time":96.04687500000011,"velocity":0.7401574803149606,"duration":0.1041666666666714},{"name":"C4","midi":60,"time":96.15104166666679,"velocity":0.7401574803149606,"duration":0.1041666666666714},{"name":"F#3","midi":54,"time":96.25520833333346,"velocity":0.7401574803149606,"duration":0.3098958333333428},{"name":"D4","midi":62,"time":96.25520833333346,"velocity":0.7401574803149606,"duration":0.1041666666666714},{"name":"C4","midi":60,"time":96.35937500000013,"velocity":0.7401574803149606,"duration":0.1041666666666714},{"name":"D4","midi":62,"time":96.4635416666668,"velocity":0.7401574803149606,"duration":0.1041666666666714},{"name":"D3","midi":50,"time":96.56770833333347,"velocity":0.7401574803149606,"duration":0.3098958333333428},{"name":"C4","midi":60,"time":96.56770833333347,"velocity":0.7401574803149606,"duration":0.1041666666666714},{"name":"B3","midi":59,"time":96.67187500000014,"velocity":0.7401574803149606,"duration":0.1041666666666714},{"name":"C4","midi":60,"time":96.77604166666681,"velocity":0.7401574803149606,"duration":0.1041666666666714},{"name":"G3","midi":55,"time":96.88020833333348,"velocity":0.7401574803149606,"duration":0.3098958333333286},{"name":"B3","midi":59,"time":96.88020833333348,"velocity":0.7401574803149606,"duration":0.6223958333333286},{"name":"B2","midi":47,"time":97.19270833333348,"velocity":0.7401574803149606,"duration":0.3098958333333286},{"name":"C3","midi":48,"time":97.50520833333348,"velocity":0.7401574803149606,"duration":0.87890625},{"name":"E4","midi":64,"time":97.50520833333348,"velocity":0.7401574803149606,"duration":0.3098958333333286},{"name":"F#4","midi":66,"time":97.81770833333348,"velocity":0.7401574803149606,"duration":0.1536458333333286},{"name":"G4","midi":67,"time":97.97395833333348,"velocity":0.7401574803149606,"duration":0.1536458333333286},{"name":"A4","midi":69,"time":98.13020833333348,"velocity":0.7401574803149606,"duration":0.30859375},{"name":"D3","midi":50,"time":98.44140625000016,"velocity":0.7401574803149606,"duration":0.1536458333333286},{"name":"B4","midi":71,"time":98.44140625000016,"velocity":0.7401574803149606,"duration":0.1536458333333286},{"name":"E3","midi":52,"time":98.59765625000016,"velocity":0.7401574803149606,"duration":0.1536458333333286},{"name":"C5","midi":72,"time":98.59765625000016,"velocity":0.7401574803149606,"duration":0.1536458333333286},{"name":"A2","midi":45,"time":98.75390625000016,"velocity":0.7401574803149606,"duration":0.3098958333333286},{"name":"F#4","midi":66,"time":98.75390625000016,"velocity":0.7401574803149606,"duration":0.3098958333333286},{"name":"B2","midi":47,"time":99.06640625000016,"velocity":0.7401574803149606,"duration":0.1536458333333286},{"name":"G4","midi":67,"time":99.06640625000016,"velocity":0.7401574803149606,"duration":0.1536458333333286},{"name":"C3","midi":48,"time":99.22265625000016,"velocity":0.7401574803149606,"duration":0.1536458333333286},{"name":"A4","midi":69,"time":99.22265625000016,"velocity":0.7401574803149606,"duration":0.1536458333333286},{"name":"B2","midi":47,"time":99.37890625000016,"velocity":0.7401574803149606,"duration":0.87890625},{"name":"D4","midi":62,"time":99.37890625000016,"velocity":0.7401574803149606,"duration":0.3098958333333286},{"name":"E4","midi":64,"time":99.69140625000016,"velocity":0.7401574803149606,"duration":0.1536458333333286},{"name":"F#4","midi":66,"time":99.84765625000016,"velocity":0.7401574803149606,"duration":0.1536458333333286},{"name":"G4","midi":67,"time":100.00390625000016,"velocity":0.7401574803149606,"duration":0.30859375},{"name":"C3","midi":48,"time":100.31510416666683,"velocity":0.7401574803149606,"duration":0.1536458333333286},{"name":"A4","midi":69,"time":100.31510416666683,"velocity":0.7401574803149606,"duration":0.1536458333333286},{"name":"D3","midi":50,"time":100.47135416666683,"velocity":0.7401574803149606,"duration":0.1536458333333286},{"name":"B4","midi":71,"time":100.47135416666683,"velocity":0.7401574803149606,"duration":0.1536458333333286},{"name":"C3","midi":48,"time":100.62760416666683,"velocity":0.7401574803149606,"duration":0.3098958333333286},{"name":"E4","midi":64,"time":100.62760416666683,"velocity":0.7401574803149606,"duration":0.3098958333333286},{"name":"D3","midi":50,"time":100.94010416666683,"velocity":0.7401574803149606,"duration":0.1536458333333286},{"name":"F#4","midi":66,"time":100.94010416666683,"velocity":0.7401574803149606,"duration":0.1536458333333286},{"name":"E3","midi":52,"time":101.09635416666683,"velocity":0.7401574803149606,"duration":0.1536458333333286},{"name":"G4","midi":67,"time":101.09635416666683,"velocity":0.7401574803149606,"duration":0.1536458333333286},{"name":"A2","midi":45,"time":101.25260416666683,"velocity":0.7401574803149606,"duration":0.3098958333333286},{"name":"C4","midi":60,"time":101.25260416666683,"velocity":0.7401574803149606,"duration":0.3098958333333286},{"name":"B2","midi":47,"time":101.56510416666683,"velocity":0.7401574803149606,"duration":0.1536458333333286},{"name":"D4","midi":62,"time":101.56510416666683,"velocity":0.7401574803149606,"duration":0.1536458333333286},{"name":"C3","midi":48,"time":101.72135416666683,"velocity":0.7401574803149606,"duration":0.1536458333333286},{"name":"E4","midi":64,"time":101.72135416666683,"velocity":0.7401574803149606,"duration":0.1536458333333286},{"name":"D3","midi":50,"time":101.87760416666683,"velocity":0.7401574803149606,"duration":0.3098958333333286},{"name":"B3","midi":59,"time":101.87760416666683,"velocity":0.7401574803149606,"duration":0.2083333333333286},{"name":"A3","midi":57,"time":102.08593750000016,"velocity":0.7401574803149606,"duration":0.1041666666666714},{"name":"C3","midi":48,"time":102.19010416666683,"velocity":0.7401574803149606,"duration":0.3098958333333428},{"name":"B3","midi":59,"time":102.19010416666683,"velocity":0.7401574803149606,"duration":0.1041666666666714},{"name":"A3","midi":57,"time":102.2942708333335,"velocity":0.7401574803149606,"duration":0.1041666666666714},{"name":"B3","midi":59,"time":102.39843750000017,"velocity":0.7401574803149606,"duration":0.1041666666666714},{"name":"D3","midi":50,"time":102.50260416666684,"velocity":0.7401574803149606,"duration":0.3098958333333286},{"name":"A3","midi":57,"time":102.50260416666684,"velocity":0.7401574803149606,"duration":0.3098958333333286},{"name":"D2","midi":38,"time":102.81510416666684,"velocity":0.7401574803149606,"duration":0.3098958333333286},{"name":"G3","midi":55,"time":102.81510416666684,"velocity":0.7401574803149606,"duration":0.3098958333333286},{"name":"G2","midi":43,"time":103.12760416666684,"velocity":0.7401574803149606,"duration":0.3098958333333286},{"name":"G3","midi":55,"time":103.12760416666684,"velocity":0.7401574803149606,"duration":1.8723958333333286},{"name":"B2","midi":47,"time":103.44010416666684,"velocity":0.7401574803149606,"duration":0.3098958333333286},{"name":"D3","midi":50,"time":103.75260416666684,"velocity":0.7401574803149606,"duration":0.3098958333333286},{"name":"B2","midi":47,"time":104.06510416666684,"velocity":0.7401574803149606,"duration":0.3098958333333286},{"name":"G2","midi":43,"time":104.37760416666684,"velocity":0.7401574803149606,"duration":0.6223958333333286},{"name":"B4","midi":71,"time":105.02343750000017,"velocity":0.7401574803149606,"duration":0.9348958333333286},{"name":"G3","midi":55,"time":105.02343750000017,"velocity":0.7401574803149606,"duration":1.8723958333333286},{"name":"A3","midi":57,"time":105.64843750000017,"velocity":0.7401574803149606,"duration":0.3098958333333286},{"name":"A4","midi":69,"time":105.96093750000017,"velocity":0.7401574803149606,"duration":0.1536458333333286},{"name":"B3","midi":59,"time":105.96093750000017,"velocity":0.7401574803149606,"duration":0.3098958333333286},{"name":"G4","midi":67,"time":106.11718750000017,"velocity":0.7401574803149606,"duration":0.1536458333333286},{"name":"F#4","midi":66,"time":106.27343750000017,"velocity":0.7401574803149606,"duration":0.3098958333333286},{"name":"C4","midi":60,"time":106.27343750000017,"velocity":0.7401574803149606,"duration":0.3098958333333286},{"name":"G4","midi":67,"time":106.58593750000017,"velocity":0.7401574803149606,"duration":0.1536458333333286},{"name":"A3","midi":57,"time":106.58593750000017,"velocity":0.7401574803149606,"duration":0.3098958333333286},{"name":"E4","midi":64,"time":106.74218750000017,"velocity":0.7401574803149606,"duration":0.1536458333333286},{"name":"D#4","midi":63,"time":106.89843750000017,"velocity":0.7401574803149606,"duration":0.9348958333333286},{"name":"F#3","midi":54,"time":106.89843750000017,"velocity":0.7401574803149606,"duration":1.2486979166666572},{"name":"A3","midi":57,"time":107.21093750000017,"velocity":0.7401574803149606,"duration":0.3098958333333286},{"name":"B3","midi":59,"time":107.52343750000017,"velocity":0.7401574803149606,"duration":0.3098958333333286},{"name":"E4","midi":64,"time":107.83593750000017,"velocity":0.7401574803149606,"duration":0.1536458333333286},{"name":"C4","midi":60,"time":107.83593750000017,"velocity":0.7401574803149606,"duration":0.6184895833333144},{"name":"F#4","midi":66,"time":107.99218750000017,"velocity":0.7401574803149606,"duration":0.1536458333333286},{"name":"G4","midi":67,"time":108.14843750000016,"velocity":0.7401574803149606,"duration":0.30859375},{"name":"E3","midi":52,"time":108.14843750000016,"velocity":0.7401574803149606,"duration":0.6171875},{"name":"A4","midi":69,"time":108.45963541666683,"velocity":0.7401574803149606,"duration":0.1536458333333286},{"name":"C4","midi":60,"time":108.45963541666683,"velocity":0.7401574803149606,"duration":0.6171875},{"name":"B4","midi":71,"time":108.61588541666683,"velocity":0.7401574803149606,"duration":0.15234375},{"name":"C5","midi":72,"time":108.7708333333335,"velocity":0.7401574803149606,"duration":0.30859375},{"name":"D#3","midi":51,"time":108.7708333333335,"velocity":0.7401574803149606,"duration":1.87109375},{"name":"B4","midi":71,"time":109.08203125000017,"velocity":0.7401574803149606,"duration":0.1536458333333286},{"name":"C4","midi":60,"time":109.08203125000017,"velocity":0.7401574803149606,"duration":0.3098958333333286},{"name":"A4","midi":69,"time":109.23828125000017,"velocity":0.7401574803149606,"duration":0.1536458333333286},{"name":"D#5","midi":75,"time":109.39453125000017,"velocity":0.7401574803149606,"duration":0.3098958333333286},{"name":"B3","midi":59,"time":109.39453125000017,"velocity":0.7401574803149606,"duration":0.3098958333333286},{"name":"E5","midi":76,"time":109.70703125000017,"velocity":0.7401574803149606,"duration":0.1536458333333286},{"name":"A3","midi":57,"time":109.70703125000017,"velocity":0.7401574803149606,"duration":0.3098958333333286},{"name":"F#5","midi":78,"time":109.86328125000017,"velocity":0.7401574803149606,"duration":0.1536458333333286},{"name":"B4","midi":71,"time":110.01953125000017,"velocity":0.7401574803149606,"duration":0.3098958333333286},{"name":"G3","midi":55,"time":110.01953125000017,"velocity":0.7401574803149606,"duration":0.3098958333333286},{"name":"C5","midi":72,"time":110.33203125000017,"velocity":0.7401574803149606,"duration":0.1536458333333286},{"name":"F#3","midi":54,"time":110.33203125000017,"velocity":0.7401574803149606,"duration":0.3098958333333286},{"name":"A4","midi":69,"time":110.48828125000017,"velocity":0.7401574803149606,"duration":0.1536458333333286},{"name":"A4","midi":69,"time":110.64453125000017,"velocity":0.7401574803149606,"duration":0.2083333333333286},{"name":"E3","midi":52,"time":110.64453125000017,"velocity":0.7401574803149606,"duration":0.3098958333333286},{"name":"G4","midi":67,"time":110.8528645833335,"velocity":0.7401574803149606,"duration":0.1015625},{"name":"A4","midi":69,"time":110.95703125000017,"velocity":0.7401574803149606,"duration":0.1015625},{"name":"D#3","midi":51,"time":110.95703125000017,"velocity":0.7401574803149606,"duration":0.3098958333333428},{"name":"G4","midi":67,"time":111.06119791666684,"velocity":0.7401574803149606,"duration":0.1015625},{"name":"A4","midi":69,"time":111.16536458333351,"velocity":0.7401574803149606,"duration":0.1015625},{"name":"G4","midi":67,"time":111.26953125000018,"velocity":0.7401574803149606,"duration":0.3098958333333286},{"name":"E3","midi":52,"time":111.26953125000018,"velocity":0.7401574803149606,"duration":0.3098958333333286},{"name":"F#4","midi":66,"time":111.58203125000018,"velocity":0.7401574803149606,"duration":0.3098958333333286},{"name":"B2","midi":47,"time":111.58203125000018,"velocity":0.7401574803149606,"duration":0.3098958333333286},{"name":"E4","midi":64,"time":111.89453125000018,"velocity":0.7401574803149606,"duration":0.6223958333333286},{"name":"G2","midi":43,"time":111.89453125000018,"velocity":0.7401574803149606,"duration":0.3098958333333286},{"name":"B2","midi":47,"time":112.20703125000018,"velocity":0.7401574803149606,"duration":0.3098958333333286},{"name":"C#5","midi":73,"time":112.51953125000018,"velocity":0.7401574803149606,"duration":0.9348958333333286},{"name":"E2","midi":40,"time":112.51953125000018,"velocity":0.7401574803149606,"duration":0.3098958333333286},{"name":"E3","midi":52,"time":112.83203125000018,"velocity":0.7401574803149606,"duration":0.1536458333333286},{"name":"D3","midi":50,"time":112.98828125000018,"velocity":0.7401574803149606,"duration":0.1536458333333286},{"name":"E3","midi":52,"time":113.14453125000018,"velocity":0.7401574803149606,"duration":0.3098958333333286},{"name":"D5","midi":74,"time":113.45703125000018,"velocity":0.7401574803149606,"duration":0.1536458333333286},{"name":"F#3","midi":54,"time":113.45703125000018,"velocity":0.7401574803149606,"duration":0.3098958333333286},{"name":"E5","midi":76,"time":113.61328125000018,"velocity":0.7401574803149606,"duration":0.1536458333333286},{"name":"A#4","midi":70,"time":113.76953125000018,"velocity":0.7401574803149606,"duration":0.3098958333333286},{"name":"G3","midi":55,"time":113.76953125000018,"velocity":0.7401574803149606,"duration":0.3098958333333286},{"name":"B4","midi":71,"time":114.08203125000018,"velocity":0.7401574803149606,"duration":0.1536458333333286},{"name":"E3","midi":52,"time":114.08203125000018,"velocity":0.7401574803149606,"duration":0.3098958333333286},{"name":"C#5","midi":73,"time":114.23828125000018,"velocity":0.7401574803149606,"duration":0.1536458333333286},{"name":"F#4","midi":66,"time":114.39453125000018,"velocity":0.7401574803149606,"duration":0.9348958333333286},{"name":"A#3","midi":58,"time":114.39453125000018,"velocity":0.7401574803149606,"duration":1.2486979166666572},{"name":"G3","midi":55,"time":114.70703125000018,"velocity":0.7401574803149606,"duration":0.3098958333333286},{"name":"F#3","midi":54,"time":115.01953125000018,"velocity":0.7401574803149606,"duration":0.3098958333333286},{"name":"G#4","midi":68,"time":115.33203125000018,"velocity":0.7401574803149606,"duration":0.1536458333333286},{"name":"E3","midi":52,"time":115.33203125000018,"velocity":0.7401574803149606,"duration":0.3098958333333286},{"name":"A#4","midi":70,"time":115.48828125000018,"velocity":0.7401574803149606,"duration":0.1536458333333286},{"name":"B4","midi":71,"time":115.64453125000017,"velocity":0.7401574803149606,"duration":0.3098958333333286},{"name":"D3","midi":50,"time":115.64453125000017,"velocity":0.7401574803149606,"duration":0.3098958333333286},{"name":"C#5","midi":73,"time":115.95703125000017,"velocity":0.7401574803149606,"duration":0.1536458333333286},{"name":"B3","midi":59,"time":115.95703125000017,"velocity":0.7401574803149606,"duration":0.3098958333333286},{"name":"D5","midi":74,"time":116.11328125000017,"velocity":0.7401574803149606,"duration":0.1536458333333286},{"name":"E5","midi":76,"time":116.26953125000017,"velocity":0.7401574803149606,"duration":0.3098958333333286},{"name":"G3","midi":55,"time":116.26953125000017,"velocity":0.7401574803149606,"duration":0.3098958333333286},{"name":"F#5","midi":78,"time":116.58203125000017,"velocity":0.7401574803149606,"duration":0.1536458333333286},{"name":"E3","midi":52,"time":116.58203125000017,"velocity":0.7401574803149606,"duration":0.3098958333333286},{"name":"G5","midi":79,"time":116.73828125000017,"velocity":0.7401574803149606,"duration":0.1536458333333286},{"name":"D5","midi":74,"time":116.89453125000017,"velocity":0.7401574803149606,"duration":0.2083333333333286},{"name":"F#3","midi":54,"time":116.89453125000017,"velocity":0.7401574803149606,"duration":0.3098958333333286},{"name":"C#5","midi":73,"time":117.1028645833335,"velocity":0.7401574803149606,"duration":0.1041666666666714},{"name":"D5","midi":74,"time":117.20703125000017,"velocity":0.7401574803149606,"duration":0.1041666666666714},{"name":"E3","midi":52,"time":117.20703125000017,"velocity":0.7401574803149606,"duration":0.3098958333333428},{"name":"C#5","midi":73,"time":117.31119791666684,"velocity":0.7401574803149606,"duration":0.1041666666666714},{"name":"D5","midi":74,"time":117.41536458333351,"velocity":0.7401574803149606,"duration":0.1041666666666714},{"name":"C#5","midi":73,"time":117.51953125000018,"velocity":0.7401574803149606,"duration":0.3098958333333286},{"name":"F#3","midi":54,"time":117.51953125000018,"velocity":0.7401574803149606,"duration":0.3098958333333286},{"name":"B4","midi":71,"time":117.83203125000018,"velocity":0.7401574803149606,"duration":0.3098958333333286},{"name":"F#2","midi":42,"time":117.83203125000018,"velocity":0.7401574803149606,"duration":0.3098958333333286},{"name":"B4","midi":71,"time":118.14453125000018,"velocity":0.7401574803149606,"duration":1.5625},{"name":"B2","midi":47,"time":118.14453125000018,"velocity":0.7401574803149606,"duration":0.3098958333333286},{"name":"D3","midi":50,"time":118.45703125000018,"velocity":0.7401574803149606,"duration":0.3098958333333286},{"name":"F#3","midi":54,"time":118.76953125000018,"velocity":0.7401574803149606,"duration":0.3098958333333286},{"name":"D3","midi":50,"time":119.08203125000018,"velocity":0.7401574803149606,"duration":0.3098958333333286},{"name":"B2","midi":47,"time":119.39453125000018,"velocity":0.7401574803149606,"duration":0.3098958333333286},{"name":"D3","midi":50,"time":119.70703125000018,"velocity":0.7401574803149606,"duration":0.3098958333333286},{"name":"D4","midi":62,"time":120.01953125000018,"velocity":0.7401574803149606,"duration":0.9348958333333286},{"name":"G#2","midi":44,"time":120.01953125000018,"velocity":0.7401574803149606,"duration":0.3098958333333286},{"name":"B2","midi":47,"time":120.33203125000018,"velocity":0.7401574803149606,"duration":0.3098958333333286},{"name":"E3","midi":52,"time":120.64453125000018,"velocity":0.7401574803149606,"duration":0.3098958333333286},{"name":"E4","midi":64,"time":120.95703125000018,"velocity":0.7401574803149606,"duration":0.1536458333333286},{"name":"B2","midi":47,"time":120.95703125000018,"velocity":0.7401574803149606,"duration":0.3098958333333286},{"name":"F4","midi":65,"time":121.11328125000018,"velocity":0.7401574803149606,"duration":0.1536458333333286},{"name":"E4","midi":64,"time":121.26953125000018,"velocity":0.7401574803149606,"duration":0.3098958333333286},{"name":"G#2","midi":44,"time":121.26953125000018,"velocity":0.7401574803149606,"duration":0.3098958333333286},{"name":"F4","midi":65,"time":121.58203125000018,"velocity":0.7401574803149606,"duration":0.1536458333333286},{"name":"E3","midi":52,"time":121.58203125000018,"velocity":0.7401574803149606,"duration":0.3098958333333286},{"name":"D4","midi":62,"time":121.73828125000018,"velocity":0.7401574803149606,"duration":0.1536458333333286},{"name":"D4","midi":62,"time":121.89453125000018,"velocity":0.7401574803149606,"duration":0.2083333333333286},{"name":"A2","midi":45,"time":121.89453125000018,"velocity":0.7401574803149606,"duration":0.3098958333333286},{"name":"C4","midi":60,"time":122.10286458333351,"velocity":0.7401574803149606,"duration":0.1041666666666714},{"name":"D4","midi":62,"time":122.20703125000018,"velocity":0.7401574803149606,"duration":0.1041666666666714},{"name":"C3","midi":48,"time":122.20703125000018,"velocity":0.7401574803149606,"duration":0.3098958333333428},{"name":"C4","midi":60,"time":122.31119791666686,"velocity":0.7401574803149606,"duration":0.1041666666666714},{"name":"D4","midi":62,"time":122.41536458333353,"velocity":0.7401574803149606,"duration":0.1041666666666714},{"name":"C4","midi":60,"time":122.5195312500002,"velocity":0.7401574803149606,"duration":0.3098958333333286},{"name":"E3","midi":52,"time":122.5195312500002,"velocity":0.7401574803149606,"duration":0.3098958333333286},{"name":"B3","midi":59,"time":122.8320312500002,"velocity":0.7401574803149606,"duration":0.3098958333333286},{"name":"G3","midi":55,"time":122.8320312500002,"velocity":0.7401574803149606,"duration":0.3098958333333286},{"name":"C4","midi":60,"time":123.1445312500002,"velocity":0.7401574803149606,"duration":0.3098958333333286},{"name":"F#3","midi":54,"time":123.1445312500002,"velocity":0.7401574803149606,"duration":0.3098958333333286},{"name":"E4","midi":64,"time":123.4570312500002,"velocity":0.7401574803149606,"duration":0.3098958333333286},{"name":"E3","midi":52,"time":123.4570312500002,"velocity":0.7401574803149606,"duration":0.3098958333333286},{"name":"A4","midi":69,"time":123.7695312500002,"velocity":0.7401574803149606,"duration":0.9348958333333286},{"name":"F#3","midi":54,"time":123.7695312500002,"velocity":0.7401574803149606,"duration":0.3098958333333286},{"name":"G3","midi":55,"time":124.0820312500002,"velocity":0.7401574803149606,"duration":0.1536458333333286},{"name":"A3","midi":57,"time":124.2382812500002,"velocity":0.7401574803149606,"duration":0.1536458333333286},{"name":"D3","midi":50,"time":124.3945312500002,"velocity":0.7401574803149606,"duration":0.3098958333333286},{"name":"C4","midi":60,"time":124.7070312500002,"velocity":0.7401574803149606,"duration":0.3098958333333286},{"name":"E3","midi":52,"time":124.7070312500002,"velocity":0.7401574803149606,"duration":0.1536458333333286},{"name":"F#3","midi":54,"time":124.8632812500002,"velocity":0.7401574803149606,"duration":0.1536458333333286},{"name":"B3","midi":59,"time":125.0195312500002,"velocity":0.7401574803149606,"duration":0.3098958333333286},{"name":"G3","midi":55,"time":125.0195312500002,"velocity":0.7401574803149606,"duration":0.3098958333333286},{"name":"C4","midi":60,"time":125.3320312500002,"velocity":0.7401574803149606,"duration":0.1536458333333286},{"name":"A3","midi":57,"time":125.3320312500002,"velocity":0.7401574803149606,"duration":0.1536458333333286},{"name":"D4","midi":62,"time":125.4882812500002,"velocity":0.7401574803149606,"duration":0.1536458333333286},{"name":"B3","midi":59,"time":125.4882812500002,"velocity":0.7401574803149606,"duration":0.1536458333333286},{"name":"B3","midi":59,"time":125.6445312500002,"velocity":0.7401574803149606,"duration":0.3098958333333286},{"name":"D3","midi":50,"time":125.6445312500002,"velocity":0.7401574803149606,"duration":0.6223958333333286},{"name":"A3","midi":57,"time":125.9570312500002,"velocity":0.7401574803149606,"duration":0.3098958333333286},{"name":"G3","midi":55,"time":126.2695312500002,"velocity":0.7401574803149606,"duration":0.3098958333333286},{"name":"A2","midi":45,"time":126.2695312500002,"velocity":0.7401574803149606,"duration":0.6223958333333286},{"name":"F#3","midi":54,"time":126.5820312500002,"velocity":0.7401574803149606,"duration":0.3098958333333286},{"name":"E3","midi":52,"time":126.8945312500002,"velocity":0.7401574803149606,"duration":0.3098958333333286},{"name":"C3","midi":48,"time":126.8945312500002,"velocity":0.7401574803149606,"duration":0.6223958333333428},{"name":"D3","midi":50,"time":127.2070312500002,"velocity":0.7401574803149606,"duration":0.2604166666666714},{"name":"G3","midi":55,"time":127.51953125000021,"velocity":0.7401574803149606,"duration":0.9348958333333286},{"name":"B2","midi":47,"time":127.51953125000021,"velocity":0.7401574803149606,"duration":0.3098958333333286},{"name":"C3","midi":48,"time":127.83203125000021,"velocity":0.7401574803149606,"duration":0.1536458333333286},{"name":"D3","midi":50,"time":127.98828125000021,"velocity":0.7401574803149606,"duration":0.1536458333333286},{"name":"E3","midi":52,"time":128.1445312500002,"velocity":0.7401574803149606,"duration":0.3098958333333428},{"name":"A3","midi":57,"time":128.4570312500002,"velocity":0.7401574803149606,"duration":0.1536458333333428},{"name":"F#3","midi":54,"time":128.4570312500002,"velocity":0.7401574803149606,"duration":0.1536458333333428},{"name":"B3","midi":59,"time":128.6132812500002,"velocity":0.7401574803149606,"duration":0.1536458333333428},{"name":"G3","midi":55,"time":128.6132812500002,"velocity":0.7401574803149606,"duration":0.1536458333333428},{"name":"C4","midi":60,"time":128.7695312500002,"velocity":0.7401574803149606,"duration":0.3098958333333428},{"name":"A2","midi":45,"time":128.7695312500002,"velocity":0.7401574803149606,"duration":0.3098958333333428},{"name":"D4","midi":62,"time":129.0820312500002,"velocity":0.7401574803149606,"duration":0.1536458333333428},{"name":"B2","midi":47,"time":129.0820312500002,"velocity":0.7401574803149606,"duration":0.1536458333333428},{"name":"E4","midi":64,"time":129.2382812500002,"velocity":0.7401574803149606,"duration":0.1536458333333428},{"name":"C3","midi":48,"time":129.2382812500002,"velocity":0.7401574803149606,"duration":0.1536458333333428},{"name":"F#3","midi":54,"time":129.3945312500002,"velocity":0.7401574803149606,"duration":0.3098958333333428},{"name":"D3","midi":50,"time":129.3945312500002,"velocity":0.7401574803149606,"duration":0.3098958333333428},{"name":"G3","midi":55,"time":129.7070312500002,"velocity":0.7401574803149606,"duration":0.1536458333333428},{"name":"E3","midi":52,"time":129.7070312500002,"velocity":0.7401574803149606,"duration":0.1536458333333428},{"name":"A3","midi":57,"time":129.8632812500002,"velocity":0.7401574803149606,"duration":0.1536458333333428},{"name":"F#3","midi":54,"time":129.8632812500002,"velocity":0.7401574803149606,"duration":0.1536458333333428},{"name":"B3","midi":59,"time":130.0195312500002,"velocity":0.7401574803149606,"duration":0.3098958333333428},{"name":"G2","midi":43,"time":130.0195312500002,"velocity":0.7401574803149606,"duration":0.3098958333333428},{"name":"C4","midi":60,"time":130.3320312500002,"velocity":0.7401574803149606,"duration":0.1536458333333428},{"name":"A2","midi":45,"time":130.3320312500002,"velocity":0.7401574803149606,"duration":0.1536458333333428},{"name":"D4","midi":62,"time":130.4882812500002,"velocity":0.7401574803149606,"duration":0.1536458333333428},{"name":"B2","midi":47,"time":130.4882812500002,"velocity":0.7401574803149606,"duration":0.1536458333333428},{"name":"E4","midi":64,"time":130.6445312500002,"velocity":0.7401574803149606,"duration":0.3098958333333428},{"name":"C3","midi":48,"time":130.6445312500002,"velocity":0.7401574803149606,"duration":0.94140625},{"name":"F#4","midi":66,"time":130.9570312500002,"velocity":0.7401574803149606,"duration":0.1536458333333428},{"name":"G4","midi":67,"time":131.1132812500002,"velocity":0.7401574803149606,"duration":0.1536458333333428},{"name":"A4","midi":69,"time":131.2695312500002,"velocity":0.7401574803149606,"duration":0.31640625},{"name":"F#4","midi":66,"time":131.5898437500002,"velocity":0.7401574803149606,"duration":0.15625},{"name":"B2","midi":47,"time":131.5898437500002,"velocity":0.7401574803149606,"duration":0.15625},{"name":"G4","midi":67,"time":131.7500000000002,"velocity":0.7401574803149606,"duration":0.15625},{"name":"A2","midi":45,"time":131.7500000000002,"velocity":0.7401574803149606,"duration":0.15625},{"name":"C4","midi":60,"time":131.9101562500002,"velocity":0.7401574803149606,"duration":0.3229166666666572},{"name":"D3","midi":50,"time":131.9101562500002,"velocity":0.7401574803149606,"duration":0.3229166666666572},{"name":"B3","midi":59,"time":132.23697916666686,"velocity":0.7401574803149606,"duration":0.3229166666666572},{"name":"C3","midi":48,"time":132.23697916666686,"velocity":0.7401574803149606,"duration":0.3229166666666572},{"name":"A3","midi":57,"time":132.5638020833335,"velocity":0.7401574803149606,"duration":0.3229166666666572},{"name":"D3","midi":50,"time":132.5638020833335,"velocity":0.7401574803149606,"duration":0.3229166666666572},{"name":"G3","midi":55,"time":132.89062500000017,"velocity":0.7401574803149606,"duration":0.3229166666666572},{"name":"D2","midi":38,"time":132.89062500000017,"velocity":0.7401574803149606,"duration":0.3229166666666572},{"name":"G3","midi":55,"time":133.21744791666683,"velocity":0.7401574803149606,"duration":2.66796875},{"name":"G2","midi":43,"time":133.21744791666683,"velocity":0.7401574803149606,"duration":1.0963541666666572},{"name":"D3","midi":50,"time":133.58333333333348,"velocity":0.7401574803149606,"duration":0.3619791666666572},{"name":"B2","midi":47,"time":133.94921875000014,"velocity":0.7401574803149606,"duration":0.7239583333333428},{"name":"G2","midi":43,"time":134.31510416666683,"velocity":0.7401574803149606,"duration":0.3619791666666572},{"name":"G2","midi":43,"time":134.68098958333348,"velocity":0.7401574803149606,"duration":2.19140625}],"controlChanges":{"7":[{"number":7,"time":0,"value":0.7874015748031497}]},"id":1,"name":"Harpsichord","instrumentNumber":6,"instrument":"harpsichord","instrumentFamily":"piano","channelNumber":0,"isPercussion":false}]}