{"header":{"PPQ":120,"timeSignature":[4,4],"bpm":80,"name":"--------"},"startTime":0,"duration":105,"tracks":[{"startTime":0,"duration":0,"length":0,"notes":[],"controlChanges":{},"id":0,"name":"--------"},{"startTime":1.875,"duration":105,"length":305,"notes":[{"name":"G#4","midi":68,"time":1.875,"velocity":0.5433070866141733,"duration":0.1812499999999999},{"name":"C5","midi":72,"time":2.25,"velocity":0.5433070866141733,"duration":0.1812499999999999},{"name":"G#4","midi":68,"time":2.625,"velocity":0.5433070866141733,"duration":0.1812499999999999},{"name":"C#5","midi":73,"time":3,"velocity":0.5433070866141733,"duration":0.375},{"name":"B4","midi":71,"time":3.75,"velocity":0.5433070866141733,"duration":0.375},{"name":"A#4","midi":70,"time":4.5,"velocity":0.5433070866141733,"duration":0.1875},{"name":"G#4","midi":68,"time":4.6875,"velocity":0.5433070866141733,"duration":0.1875},{"name":"F#4","midi":66,"time":4.875,"velocity":0.5433070866141733,"duration":0.5625},{"name":"G#4","midi":68,"time":5.4375,"velocity":0.5433070866141733,"duration":0.1875},{"name":"A#4","midi":70,"time":5.625,"velocity":0.5433070866141733,"duration":0.1875},{"name":"F#4","midi":66,"time":5.8125,"velocity":0.5433070866141733,"duration":0.1875},{"name":"G#4","midi":68,"time":6,"velocity":0.5433070866141733,"duration":0.375},{"name":"C#5","midi":73,"time":6.75,"velocity":0.5433070866141733,"duration":0.375},{"name":"C#5","midi":73,"time":7.5,"velocity":0.5433070866141733,"duration":0.375},{"name":"C5","midi":72,"time":8.25,"velocity":0.5433070866141733,"duration":0.375},{"name":"C#5","midi":73,"time":9.375,"velocity":0.5433070866141733,"duration":0.18125000000000036},{"name":"F5","midi":77,"time":9.75,"velocity":0.5433070866141733,"duration":0.18125000000000036},{"name":"C#5","midi":73,"time":10.125,"velocity":0.5433070866141733,"duration":0.18125000000000036},{"name":"G#5","midi":80,"time":10.5,"velocity":0.5433070866141733,"duration":0.375},{"name":"F#5","midi":78,"time":11.25,"velocity":0.5433070866141733,"duration":0.375},{"name":"F5","midi":77,"time":12,"velocity":0.5433070866141733,"duration":0.1875},{"name":"D#5","midi":75,"time":12.1875,"velocity":0.5433070866141733,"duration":0.1875},{"name":"C#5","midi":73,"time":12.375,"velocity":0.5433070866141733,"duration":0.5625},{"name":"D#5","midi":75,"time":12.9375,"velocity":0.5433070866141733,"duration":0.1875},{"name":"F5","midi":77,"time":13.125,"velocity":0.5433070866141733,"duration":0.1875},{"name":"C#5","midi":73,"time":13.3125,"velocity":0.5433070866141733,"duration":0.1875},{"name":"D#5","midi":75,"time":13.6875,"velocity":0.5433070866141733,"duration":0.1875},{"name":"F#5","midi":78,"time":13.875,"velocity":0.5433070866141733,"duration":0.1875},{"name":"D#5","midi":75,"time":14.0625,"velocity":0.5433070866141733,"duration":0.1875},{"name":"G#5","midi":80,"time":14.25,"velocity":0.5433070866141733,"duration":0.375},{"name":"F#5","midi":78,"time":15,"velocity":0.5433070866141733,"duration":0.375},{"name":"F5","midi":77,"time":15.75,"velocity":0.5433070866141733,"duration":0.4624999999999986},{"name":"F5","midi":77,"time":16.3125,"velocity":0.5433070866141733,"duration":0.1875},{"name":"G5","midi":79,"time":16.5,"velocity":0.5433070866141733,"duration":0.375},{"name":"G#5","midi":80,"time":16.875,"velocity":0.5433070866141733,"duration":0.4624999999999986},{"name":"G#5","midi":80,"time":17.4375,"velocity":0.5433070866141733,"duration":0.1875},{"name":"G5","midi":79,"time":17.625,"velocity":0.5433070866141733,"duration":0.375},{"name":"G#5","midi":80,"time":18,"velocity":0.5433070866141733,"duration":0.375},{"name":"F4","midi":65,"time":21.375,"velocity":0.5433070866141733,"duration":0.18124999999999858},{"name":"G#4","midi":68,"time":21.75,"velocity":0.5433070866141733,"duration":0.18124999999999858},{"name":"F4","midi":65,"time":22.125,"velocity":0.5433070866141733,"duration":0.18124999999999858},{"name":"A#4","midi":70,"time":22.5,"velocity":0.5433070866141733,"duration":0.375},{"name":"G#4","midi":68,"time":23.25,"velocity":0.5433070866141733,"duration":0.375},{"name":"F#4","midi":66,"time":24,"velocity":0.5433070866141733,"duration":0.1875},{"name":"G#4","midi":68,"time":24.1875,"velocity":0.5433070866141733,"duration":0.1875},{"name":"A#4","midi":70,"time":24.375,"velocity":0.5433070866141733,"duration":0.1875},{"name":"C5","midi":72,"time":24.5625,"velocity":0.5433070866141733,"duration":0.1875},{"name":"D5","midi":74,"time":24.75,"velocity":0.5433070866141733,"duration":0.1875},{"name":"D#5","midi":75,"time":24.9375,"velocity":0.5433070866141733,"duration":0.1875},{"name":"F5","midi":77,"time":25.125,"velocity":0.5433070866141733,"duration":0.125},{"name":"D#5","midi":75,"time":25.21875,"velocity":0.5433070866141733,"duration":0.1374999999999993},{"name":"D5","midi":74,"time":25.3125,"velocity":0.5433070866141733,"duration":0.1875},{"name":"D#5","midi":75,"time":25.5,"velocity":0.5433070866141733,"duration":0.375},{"name":"D#5","midi":75,"time":26.625,"velocity":0.5433070866141733,"duration":0.18124999999999858},{"name":"C5","midi":72,"time":27,"velocity":0.5433070866141733,"duration":0.18124999999999858},{"name":"D#5","midi":75,"time":27.375,"velocity":0.5433070866141733,"duration":0.18124999999999858},{"name":"G#4","midi":68,"time":27.75,"velocity":0.5433070866141733,"duration":0.18124999999999858},{"name":"C#5","midi":73,"time":28.125,"velocity":0.5433070866141733,"duration":0.375},{"name":"A#4","midi":70,"time":28.5,"velocity":0.5433070866141733,"duration":0.375},{"name":"C5","midi":72,"time":29.25,"velocity":0.5433070866141733,"duration":0.375},{"name":"C#5","midi":73,"time":30,"velocity":0.5433070866141733,"duration":0.18124999999999858},{"name":"G#5","midi":80,"time":30.375,"velocity":0.5433070866141733,"duration":0.18124999999999858},{"name":"F5","midi":77,"time":30.75,"velocity":0.5433070866141733,"duration":0.18124999999999858},{"name":"G#5","midi":80,"time":31.125,"velocity":0.5433070866141733,"duration":0.18124999999999858},{"name":"C#5","midi":73,"time":31.5,"velocity":0.5433070866141733,"duration":0.375},{"name":"B4","midi":71,"time":32.4375,"velocity":0.5433070866141733,"duration":0.1875},{"name":"A#4","midi":70,"time":32.625,"velocity":0.5433070866141733,"duration":0.1875},{"name":"G#4","midi":68,"time":32.8125,"velocity":0.5433070866141733,"duration":0.1875},{"name":"A#4","midi":70,"time":33,"velocity":0.5433070866141733,"duration":0.9375},{"name":"A#4","midi":70,"time":33.9375,"velocity":0.5433070866141733,"duration":0.1875},{"name":"D#5","midi":75,"time":34.125,"velocity":0.5433070866141733,"duration":0.375},{"name":"G#4","midi":68,"time":34.5,"velocity":0.5433070866141733,"duration":0.9375},{"name":"G#4","midi":68,"time":35.4375,"velocity":0.5433070866141733,"duration":0.1875},{"name":"C#5","midi":73,"time":35.625,"velocity":0.5433070866141733,"duration":0.375},{"name":"F#4","midi":66,"time":36,"velocity":0.5433070866141733,"duration":0.9375},{"name":"F4","midi":65,"time":36.9375,"velocity":0.5433070866141733,"duration":0.1875},{"name":"F#4","midi":66,"time":37.125,"velocity":0.5433070866141733,"duration":0.375},{"name":"F4","midi":65,"time":37.5,"velocity":0.5433070866141733,"duration":0.9375},{"name":"D#4","midi":63,"time":38.4375,"velocity":0.5433070866141733,"duration":0.1875},{"name":"F4","midi":65,"time":38.625,"velocity":0.5433070866141733,"duration":0.9375},{"name":"F4","midi":65,"time":39.5625,"velocity":0.5433070866141733,"duration":0.1875},{"name":"D#4","midi":63,"time":39.75,"velocity":0.5433070866141733,"duration":0.75},{"name":"F4","midi":65,"time":40.5,"velocity":0.5433070866141733,"duration":0.375},{"name":"F5","midi":77,"time":41.625,"velocity":0.5433070866141733,"duration":0.18124999999999858},{"name":"C#5","midi":73,"time":42,"velocity":0.5433070866141733,"duration":0.18124999999999858},{"name":"F5","midi":77,"time":42.375,"velocity":0.5433070866141733,"duration":0.18124999999999858},{"name":"A#4","midi":70,"time":42.75,"velocity":0.5433070866141733,"duration":0.375},{"name":"A#5","midi":82,"time":43.875,"velocity":0.5433070866141733,"duration":0.18124999999999858},{"name":"G5","midi":79,"time":44.25,"velocity":0.5433070866141733,"duration":0.18124999999999858},{"name":"A#5","midi":82,"time":44.625,"velocity":0.5433070866141733,"duration":0.18124999999999858},{"name":"D#5","midi":75,"time":45,"velocity":0.5433070866141733,"duration":0.375},{"name":"F5","midi":77,"time":45.75,"velocity":0.5433070866141733,"duration":0.375},{"name":"F#5","midi":78,"time":46.5,"velocity":0.5433070866141733,"duration":0.1875},{"name":"G#5","midi":80,"time":46.6875,"velocity":0.5433070866141733,"duration":0.1875},{"name":"A#5","midi":82,"time":46.875,"velocity":0.5433070866141733,"duration":0.5625},{"name":"G#5","midi":80,"time":47.4375,"velocity":0.5433070866141733,"duration":0.1875},{"name":"F#5","midi":78,"time":47.625,"velocity":0.5433070866141733,"duration":0.1875},{"name":"G#5","midi":80,"time":47.8125,"velocity":0.5433070866141733,"duration":0.1875},{"name":"F5","midi":77,"time":48,"velocity":0.5433070866141733,"duration":0.1875},{"name":"F#5","midi":78,"time":48.1875,"velocity":0.5433070866141733,"duration":0.1875},{"name":"G#5","midi":80,"time":48.375,"velocity":0.5433070866141733,"duration":0.5625},{"name":"F#5","midi":78,"time":48.9375,"velocity":0.5433070866141733,"duration":0.1875},{"name":"F5","midi":77,"time":49.125,"velocity":0.5433070866141733,"duration":0.1875},{"name":"F#5","midi":78,"time":49.3125,"velocity":0.5433070866141733,"duration":0.1875},{"name":"D#5","midi":75,"time":49.5,"velocity":0.5433070866141733,"duration":0.1875},{"name":"G#5","midi":80,"time":49.6875,"velocity":0.5433070866141733,"duration":0.1875},{"name":"F#5","midi":78,"time":49.875,"velocity":0.5433070866141733,"duration":0.1875},{"name":"F5","midi":77,"time":50.0625,"velocity":0.5433070866141733,"duration":0.1875},{"name":"D#5","midi":75,"time":50.25,"velocity":0.5433070866141733,"duration":0.1875},{"name":"C#5","midi":73,"time":50.4375,"velocity":0.5433070866141733,"duration":0.1875},{"name":"C5","midi":72,"time":50.625,"velocity":0.5433070866141733,"duration":0.09375},{"name":"C#5","midi":73,"time":50.71875,"velocity":0.5433070866141733,"duration":0.09375},{"name":"D#5","midi":75,"time":50.8125,"velocity":0.5433070866141733,"duration":0.1875},{"name":"C#5","midi":73,"time":51,"velocity":0.5433070866141733,"duration":0.1875},{"name":"A#4","midi":70,"time":51.1875,"velocity":0.5433070866141733,"duration":0.1875},{"name":"C5","midi":72,"time":51.375,"velocity":0.5433070866141733,"duration":0.1875},{"name":"C#5","midi":73,"time":51.5625,"velocity":0.5433070866141733,"duration":0.1875},{"name":"D#5","midi":75,"time":51.75,"velocity":0.5433070866141733,"duration":0.1875},{"name":"F5","midi":77,"time":51.9375,"velocity":0.5433070866141733,"duration":0.1875},{"name":"F#5","midi":78,"time":52.125,"velocity":0.5433070866141733,"duration":0.09375},{"name":"F5","midi":77,"time":52.21875,"velocity":0.5433070866141733,"duration":0.09375},{"name":"D#5","midi":75,"time":52.3125,"velocity":0.5433070866141733,"duration":0.1875},{"name":"C#5","midi":73,"time":52.5,"velocity":0.5433070866141733,"duration":0.1875},{"name":"C5","midi":72,"time":52.6875,"velocity":0.5433070866141733,"duration":0.1875},{"name":"A#4","midi":70,"time":52.875,"velocity":0.5433070866141733,"duration":0.1875},{"name":"G#4","midi":68,"time":53.0625,"velocity":0.5433070866141733,"duration":0.1875},{"name":"C#5","midi":73,"time":53.25,"velocity":0.5433070866141733,"duration":0.375},{"name":"A#4","midi":70,"time":54,"velocity":0.5433070866141733,"duration":0.375},{"name":"F#5","midi":78,"time":54.75,"velocity":0.5433070866141733,"duration":0.375},{"name":"F#5","midi":78,"time":55.6875,"velocity":0.5433070866141733,"duration":0.1875},{"name":"F5","midi":77,"time":55.875,"velocity":0.5433070866141733,"duration":0.1875},{"name":"D#5","midi":75,"time":56.0625,"velocity":0.5433070866141733,"duration":0.1875},{"name":"F5","midi":77,"time":56.25,"velocity":0.5433070866141733,"duration":0.11874999999999858},{"name":"F#5","midi":78,"time":56.34375,"velocity":0.5433070866141733,"duration":0.125},{"name":"G#5","midi":80,"time":56.4375,"velocity":0.5433070866141733,"duration":0.13125000000000142},{"name":"C#5","midi":73,"time":56.625,"velocity":0.5433070866141733,"duration":0.13125000000000142},{"name":"D#5","midi":75,"time":56.71875,"velocity":0.5433070866141733,"duration":0.13750000000000284},{"name":"F5","midi":77,"time":56.8125,"velocity":0.5433070866141733,"duration":0.13750000000000284},{"name":"A#4","midi":70,"time":57,"velocity":0.5433070866141733,"duration":0.10625000000000284},{"name":"F5","midi":77,"time":57.1875,"velocity":0.5433070866141733,"duration":0.1875},{"name":"D#5","midi":75,"time":57.375,"velocity":0.5433070866141733,"duration":0.1875},{"name":"C#5","midi":73,"time":57.5625,"velocity":0.5433070866141733,"duration":0.1875},{"name":"D#5","midi":75,"time":57.75,"velocity":0.5433070866141733,"duration":0.14374999999999716},{"name":"F5","midi":77,"time":57.84375,"velocity":0.5433070866141733,"duration":0.16250000000000142},{"name":"F#5","midi":78,"time":57.9375,"velocity":0.5433070866141733,"duration":0.13750000000000284},{"name":"C5","midi":72,"time":58.125,"velocity":0.5433070866141733,"duration":0.14999999999999858},{"name":"C#5","midi":73,"time":58.21875,"velocity":0.5433070866141733,"duration":0.16250000000000142},{"name":"D#5","midi":75,"time":58.3125,"velocity":0.5433070866141733,"duration":0.13125000000000142},{"name":"G#4","midi":68,"time":58.5,"velocity":0.5433070866141733,"duration":0.11874999999999858},{"name":"D#5","midi":75,"time":58.6875,"velocity":0.5433070866141733,"duration":0.1875},{"name":"C#5","midi":73,"time":58.875,"velocity":0.5433070866141733,"duration":0.1875},{"name":"C5","midi":72,"time":59.0625,"velocity":0.5433070866141733,"duration":0.1875},{"name":"C#5","midi":73,"time":59.25,"velocity":0.5433070866141733,"duration":0.15625},{"name":"D#5","midi":75,"time":59.34375,"velocity":0.5433070866141733,"duration":0.13750000000000284},{"name":"F5","midi":77,"time":59.4375,"velocity":0.5433070866141733,"duration":0.15000000000000568},{"name":"G#4","midi":68,"time":59.62500000000001,"velocity":0.5433070866141733,"duration":0.13750000000000284},{"name":"A#4","midi":70,"time":59.71875000000001,"velocity":0.5433070866141733,"duration":0.13125000000000142},{"name":"B4","midi":71,"time":59.81250000000001,"velocity":0.5433070866141733,"duration":0.1875},{"name":"A#4","midi":70,"time":60.00000000000001,"velocity":0.5433070866141733,"duration":0.5625},{"name":"F#4","midi":66,"time":60.56250000000001,"velocity":0.5433070866141733,"duration":0.1875},{"name":"G#4","midi":68,"time":60.75000000000001,"velocity":0.5433070866141733,"duration":0.5625},{"name":"F4","midi":65,"time":61.31250000000001,"velocity":0.5433070866141733,"duration":0.1875},{"name":"F#4","midi":66,"time":61.50000000000001,"velocity":0.5433070866141733,"duration":0.5625},{"name":"D#4","midi":63,"time":62.06250000000001,"velocity":0.5433070866141733,"duration":0.1875},{"name":"F4","midi":65,"time":62.25000000000001,"velocity":0.5433070866141733,"duration":1.6875},{"name":"D#4","midi":63,"time":63.93750000000001,"velocity":0.5433070866141733,"duration":0.1874999999999929},{"name":"F#4","midi":66,"time":64.125,"velocity":0.5433070866141733,"duration":0.1875},{"name":"D#4","midi":63,"time":64.3125,"velocity":0.5433070866141733,"duration":0.1875},{"name":"C4","midi":60,"time":64.5,"velocity":0.5433070866141733,"duration":0.375},{"name":"C4","midi":60,"time":64.875,"velocity":0.5433070866141733,"duration":0.1875},{"name":"D#4","midi":63,"time":65.0625,"velocity":0.5433070866141733,"duration":0.1875},{"name":"G#4","midi":68,"time":65.25,"velocity":0.5433070866141733,"duration":0.5625},{"name":"F#4","midi":66,"time":65.8125,"velocity":0.5433070866141733,"duration":0.1875},{"name":"F4","midi":65,"time":66,"velocity":0.5433070866141733,"duration":0.375},{"name":"F4","midi":65,"time":66.375,"velocity":0.5433070866141733,"duration":0.1875},{"name":"G#4","midi":68,"time":66.5625,"velocity":0.5433070866141733,"duration":0.1875},{"name":"C#5","midi":73,"time":66.75,"velocity":0.5433070866141733,"duration":0.5625},{"name":"B4","midi":71,"time":67.3125,"velocity":0.5433070866141733,"duration":0.1875},{"name":"A#4","midi":70,"time":67.5,"velocity":0.5433070866141733,"duration":0.375},{"name":"A#4","midi":70,"time":67.875,"velocity":0.5433070866141733,"duration":0.1875},{"name":"C#5","midi":73,"time":68.0625,"velocity":0.5433070866141733,"duration":0.1875},{"name":"F#5","midi":78,"time":68.25,"velocity":0.5433070866141733,"duration":0.9375},{"name":"A#4","midi":70,"time":69.1875,"velocity":0.5433070866141733,"duration":0.1875},{"name":"C5","midi":72,"time":69.375,"velocity":0.5433070866141733,"duration":0.1875},{"name":"C#5","midi":73,"time":69.5625,"velocity":0.5433070866141733,"duration":0.1875},{"name":"D#5","midi":75,"time":69.75,"velocity":0.5433070866141733,"duration":0.1875},{"name":"F5","midi":77,"time":69.9375,"velocity":0.5433070866141733,"duration":0.1875},{"name":"F#5","midi":78,"time":70.125,"velocity":0.5433070866141733,"duration":0.125},{"name":"F5","midi":77,"time":70.21875,"velocity":0.5433070866141733,"duration":0.13750000000000284},{"name":"D#5","midi":75,"time":70.3125,"velocity":0.5433070866141733,"duration":0.1875},{"name":"F5","midi":77,"time":70.5,"velocity":0.5433070866141733,"duration":0.1875},{"name":"F#5","midi":78,"time":70.6875,"velocity":0.5433070866141733,"duration":0.1875},{"name":"F5","midi":77,"time":70.875,"velocity":0.5433070866141733,"duration":0.1875},{"name":"D#5","midi":75,"time":71.0625,"velocity":0.5433070866141733,"duration":0.1875},{"name":"C#5","midi":73,"time":71.25,"velocity":0.5433070866141733,"duration":0.1875},{"name":"C5","midi":72,"time":71.4375,"velocity":0.5433070866141733,"duration":0.1875},{"name":"A#4","midi":70,"time":71.625,"velocity":0.5433070866141733,"duration":0.13750000000000284},{"name":"C5","midi":72,"time":71.71875,"velocity":0.5433070866141733,"duration":0.14374999999999716},{"name":"C#5","midi":73,"time":71.8125,"velocity":0.5433070866141733,"duration":0.1875},{"name":"C5","midi":72,"time":72,"velocity":0.5433070866141733,"duration":0.18125000000000568},{"name":"G#5","midi":80,"time":72.375,"velocity":0.5433070866141733,"duration":0.18125000000000568},{"name":"F5","midi":77,"time":72.75,"velocity":0.5433070866141733,"duration":0.18125000000000568},{"name":"G#5","midi":80,"time":73.125,"velocity":0.5433070866141733,"duration":0.18125000000000568},{"name":"C#5","midi":73,"time":73.5,"velocity":0.5433070866141733,"duration":0.08750000000000568},{"name":"F5","midi":77,"time":73.6875,"velocity":0.5433070866141733,"duration":0.1875},{"name":"F#5","midi":78,"time":73.875,"velocity":0.5433070866141733,"duration":0.1875},{"name":"G#5","midi":80,"time":74.0625,"velocity":0.5433070866141733,"duration":0.1875},{"name":"A#5","midi":82,"time":74.25,"velocity":0.5433070866141733,"duration":0.1875},{"name":"C6","midi":84,"time":74.4375,"velocity":0.5433070866141733,"duration":0.1875},{"name":"C#6","midi":85,"time":74.625,"velocity":0.5433070866141733,"duration":0.1875},{"name":"A#5","midi":82,"time":74.8125,"velocity":0.5433070866141733,"duration":0.1875},{"name":"F#5","midi":78,"time":75,"velocity":0.5433070866141733,"duration":0.1875},{"name":"G#5","midi":80,"time":75.1875,"velocity":0.5433070866141733,"duration":0.1875},{"name":"F#5","midi":78,"time":75.375,"velocity":0.5433070866141733,"duration":0.1875},{"name":"F5","midi":77,"time":75.5625,"velocity":0.5433070866141733,"duration":0.1875},{"name":"D#5","midi":75,"time":75.75,"velocity":0.5433070866141733,"duration":0.1875},{"name":"C#5","midi":73,"time":75.9375,"velocity":0.5433070866141733,"duration":0.1875},{"name":"C5","midi":72,"time":76.125,"velocity":0.5433070866141733,"duration":0.125},{"name":"C#5","midi":73,"time":76.21875,"velocity":0.5433070866141733,"duration":0.125},{"name":"D#5","midi":75,"time":76.3125,"velocity":0.5433070866141733,"duration":0.1875},{"name":"G#4","midi":68,"time":76.5,"velocity":0.5433070866141733,"duration":1.6875},{"name":"C#4","midi":61,"time":78.1875,"velocity":0.5433070866141733,"duration":0.1875},{"name":"D#4","midi":63,"time":78.375,"velocity":0.5433070866141733,"duration":0.1875},{"name":"F4","midi":65,"time":78.5625,"velocity":0.5433070866141733,"duration":0.1875},{"name":"F#4","midi":66,"time":78.75,"velocity":0.5433070866141733,"duration":0.1875},{"name":"G#4","midi":68,"time":78.9375,"velocity":0.5433070866141733,"duration":0.1875},{"name":"A#4","midi":70,"time":79.125,"velocity":0.5433070866141733,"duration":0.1875},{"name":"F#4","midi":66,"time":79.3125,"velocity":0.5433070866141733,"duration":0.1875},{"name":"D#4","midi":63,"time":79.5,"velocity":0.5433070866141733,"duration":0.1875},{"name":"F4","midi":65,"time":79.6875,"velocity":0.5433070866141733,"duration":0.1875},{"name":"F#4","midi":66,"time":79.875,"velocity":0.5433070866141733,"duration":0.1875},{"name":"G#4","midi":68,"time":80.0625,"velocity":0.5433070866141733,"duration":0.1875},{"name":"A#4","midi":70,"time":80.25,"velocity":0.5433070866141733,"duration":0.1875},{"name":"C5","midi":72,"time":80.4375,"velocity":0.5433070866141733,"duration":0.1875},{"name":"C#5","midi":73,"time":80.625,"velocity":0.5433070866141733,"duration":0.13124999999999432},{"name":"C5","midi":72,"time":80.71875,"velocity":0.5433070866141733,"duration":0.13750000000000284},{"name":"A#4","midi":70,"time":80.8125,"velocity":0.5433070866141733,"duration":0.1875},{"name":"C5","midi":72,"time":81,"velocity":0.5433070866141733,"duration":0.18125000000000568},{"name":"D#5","midi":75,"time":81.375,"velocity":0.5433070866141733,"duration":0.1875},{"name":"C#5","midi":73,"time":81.5625,"velocity":0.5433070866141733,"duration":0.1875},{"name":"C5","midi":72,"time":81.75,"velocity":0.5433070866141733,"duration":0.2750000000000057},{"name":"D#5","midi":75,"time":82.125,"velocity":0.5433070866141733,"duration":0.2750000000000057},{"name":"G#4","midi":68,"time":82.5,"velocity":0.5433070866141733,"duration":0.2750000000000057},{"name":"C#5","midi":73,"time":82.875,"velocity":0.5433070866141733,"duration":0.2750000000000057},{"name":"E5","midi":76,"time":83.25,"velocity":0.5433070866141733,"duration":0.2750000000000057},{"name":"C#5","midi":73,"time":83.625,"velocity":0.5433070866141733,"duration":0.2750000000000057},{"name":"F#5","midi":78,"time":84,"velocity":0.5433070866141733,"duration":0.08750000000000568},{"name":"A5","midi":81,"time":84.1875,"velocity":0.5433070866141733,"duration":0.1875},{"name":"G#5","midi":80,"time":84.375,"velocity":0.5433070866141733,"duration":0.1875},{"name":"F#5","midi":78,"time":84.5625,"velocity":0.5433070866141733,"duration":0.1875},{"name":"E5","midi":76,"time":84.75,"velocity":0.5433070866141733,"duration":0.1875},{"name":"D#5","midi":75,"time":84.9375,"velocity":0.5433070866141733,"duration":0.1875},{"name":"C#5","midi":73,"time":85.125,"velocity":0.5433070866141733,"duration":0.11875000000000568},{"name":"D#5","midi":75,"time":85.21875,"velocity":0.5433070866141733,"duration":0.125},{"name":"E5","midi":76,"time":85.3125,"velocity":0.5433070866141733,"duration":0.1875},{"name":"G4","midi":67,"time":85.5,"velocity":0.5433070866141733,"duration":0.1875},{"name":"G#4","midi":68,"time":85.6875,"velocity":0.5433070866141733,"duration":0.1875},{"name":"A#4","midi":70,"time":85.875,"velocity":0.5433070866141733,"duration":0.1875},{"name":"C5","midi":72,"time":86.0625,"velocity":0.5433070866141733,"duration":0.1875},{"name":"C#5","midi":73,"time":86.25,"velocity":0.5433070866141733,"duration":0.1875},{"name":"D#5","midi":75,"time":86.4375,"velocity":0.5433070866141733,"duration":0.1875},{"name":"G4","midi":67,"time":86.625,"velocity":0.5433070866141733,"duration":0.375},{"name":"E5","midi":76,"time":86.625,"velocity":0.5433070866141733,"duration":0.13124999999999432},{"name":"D#5","midi":75,"time":86.71875,"velocity":0.5433070866141733,"duration":0.11249999999999716},{"name":"C#5","midi":73,"time":86.8125,"velocity":0.5433070866141733,"duration":0.1875},{"name":"C5","midi":72,"time":87,"velocity":0.5433070866141733,"duration":0.375},{"name":"G#4","midi":68,"time":87,"velocity":0.5433070866141733,"duration":0.375},{"name":"D#5","midi":75,"time":87.375,"velocity":0.5433070866141733,"duration":0.375},{"name":"G#5","midi":80,"time":87.75,"velocity":0.5433070866141733,"duration":1.5},{"name":"F#5","midi":78,"time":89.25,"velocity":0.5433070866141733,"duration":1.5},{"name":"F5","midi":77,"time":90.75,"velocity":0.5433070866141733,"duration":1.21875},{"name":"D#5","midi":75,"time":91.96875,"velocity":0.5433070866141733,"duration":0.125},{"name":"C#5","midi":73,"time":92.0625,"velocity":0.5433070866141733,"duration":0.125},{"name":"B4","midi":71,"time":92.15625,"velocity":0.5433070866141733,"duration":0.13750000000000284},{"name":"A#4","midi":70,"time":92.25,"velocity":0.5433070866141733,"duration":0.13124999999999432},{"name":"G#4","midi":68,"time":92.34375,"velocity":0.5433070866141733,"duration":0.13124999999999432},{"name":"F#4","midi":66,"time":92.4375,"velocity":0.5433070866141733,"duration":0.14374999999999716},{"name":"F4","midi":65,"time":92.53125,"velocity":0.5433070866141733,"duration":0.09375},{"name":"F#4","midi":66,"time":92.625,"velocity":0.5433070866141733,"duration":1.5},{"name":"F4","midi":65,"time":94.125,"velocity":0.5433070866141733,"duration":0.46875},{"name":"F4","midi":65,"time":94.59375,"velocity":0.5433070866141733,"duration":0.09375},{"name":"D#4","midi":63,"time":94.6875,"velocity":0.5433070866141733,"duration":0.09375},{"name":"C#4","midi":61,"time":94.78125,"velocity":0.5433070866141733,"duration":0.09375},{"name":"D#4","midi":63,"time":94.875,"velocity":0.5433070866141733,"duration":1.5},{"name":"C#4","midi":61,"time":96.375,"velocity":0.5433070866141733,"duration":0.5625},{"name":"C#4","midi":61,"time":96.9375,"velocity":0.5433070866141733,"duration":0.1875},{"name":"C4","midi":60,"time":97.125,"velocity":0.5433070866141733,"duration":0.375},{"name":"C#4","midi":61,"time":97.5,"velocity":0.5433070866141733,"duration":0.9375},{"name":"G#3","midi":56,"time":98.4375,"velocity":0.5433070866141733,"duration":0.1875},{"name":"B3","midi":59,"time":98.625,"velocity":0.5433070866141733,"duration":0.1875},{"name":"G#3","midi":56,"time":98.8125,"velocity":0.5433070866141733,"duration":0.1875},{"name":"A#3","midi":58,"time":99,"velocity":0.5433070866141733,"duration":0.9375},{"name":"A#3","midi":58,"time":99.9375,"velocity":0.5433070866141733,"duration":0.1875},{"name":"C#4","midi":61,"time":100.125,"velocity":0.5433070866141733,"duration":0.1875},{"name":"A#3","midi":58,"time":100.3125,"velocity":0.5433070866141733,"duration":0.1875},{"name":"D#4","midi":63,"time":100.5,"velocity":0.5433070866141733,"duration":0.9375},{"name":"F4","midi":65,"time":101.4375,"velocity":0.5433070866141733,"duration":0.1875},{"name":"F#4","midi":66,"time":101.625,"velocity":0.5433070866141733,"duration":0.5625},{"name":"F4","midi":65,"time":102.1875,"velocity":0.5433070866141733,"duration":0.1875},{"name":"D#4","midi":63,"time":102.375,"velocity":0.5433070866141733,"duration":0.1875},{"name":"F#4","midi":66,"time":102.5625,"velocity":0.5433070866141733,"duration":0.375},{"name":"A#4","midi":70,"time":102.9375,"velocity":0.5433070866141733,"duration":0.1875},{"name":"G#4","midi":68,"time":103.125,"velocity":0.5433070866141733,"duration":0.1875},{"name":"F#4","midi":66,"time":103.3125,"velocity":0.5433070866141733,"duration":0.1875},{"name":"F4","midi":65,"time":103.5,"velocity":0.5433070866141733,"duration":1.5}],"controlChanges":{"7":[{"number":7,"time":0,"value":0.7874015748031497}],"10":[{"number":10,"time":0,"value":0.6220472440944882}]},"id":1,"name":"BWV 872/2","instrumentNumber":6,"instrument":"harpsichord","instrumentFamily":"piano","channelNumber":0,"isPercussion":false},{"startTime":3.375,"duration":105,"length":268,"notes":[{"name":"G#4","midi":68,"time":3.375,"velocity":0.5433070866141733,"duration":0.2749999999999999},{"name":"F4","midi":65,"time":3.75,"velocity":0.5433070866141733,"duration":0.27500000000000036},{"name":"G#4","midi":68,"time":4.125,"velocity":0.5433070866141733,"duration":0.27500000000000036},{"name":"C#4","midi":61,"time":4.5,"velocity":0.5433070866141733,"duration":0.375},{"name":"D#4","midi":63,"time":5.25,"velocity":0.5433070866141733,"duration":0.375},{"name":"F4","midi":65,"time":6,"velocity":0.5433070866141733,"duration":0.1875},{"name":"F#4","midi":66,"time":6.1875,"velocity":0.5433070866141733,"duration":0.1875},{"name":"G#4","midi":68,"time":6.375,"velocity":0.5433070866141733,"duration":0.5625},{"name":"F#4","midi":66,"time":6.9375,"velocity":0.5433070866141733,"duration":0.1875},{"name":"F4","midi":65,"time":7.125,"velocity":0.5433070866141733,"duration":0.1875},{"name":"G#4","midi":68,"time":7.3125,"velocity":0.5433070866141733,"duration":0.1875},{"name":"D#4","midi":63,"time":7.5,"velocity":0.5433070866141733,"duration":0.1875},{"name":"F4","midi":65,"time":7.6875,"velocity":0.5433070866141733,"duration":0.1875},{"name":"F#4","midi":66,"time":7.875,"velocity":0.5433070866141733,"duration":0.5625},{"name":"F4","midi":65,"time":8.4375,"velocity":0.5433070866141733,"duration":0.1875},{"name":"D#4","midi":63,"time":8.625,"velocity":0.5433070866141733,"duration":0.1875},{"name":"F#4","midi":66,"time":8.8125,"velocity":0.5433070866141733,"duration":0.1875},{"name":"F4","midi":65,"time":9,"velocity":0.5433070866141733,"duration":0.375},{"name":"G#4","midi":68,"time":10.875,"velocity":0.5433070866141733,"duration":0.18125000000000036},{"name":"C5","midi":72,"time":11.25,"velocity":0.5433070866141733,"duration":0.18125000000000036},{"name":"G#4","midi":68,"time":11.625,"velocity":0.5433070866141733,"duration":0.18125000000000036},{"name":"C#5","midi":73,"time":12,"velocity":0.5433070866141733,"duration":0.375},{"name":"B4","midi":71,"time":12.75,"velocity":0.5433070866141733,"duration":0.375},{"name":"A#4","midi":70,"time":13.5,"velocity":0.5433070866141733,"duration":0.375},{"name":"A#4","midi":70,"time":14.4375,"velocity":0.5433070866141733,"duration":0.1875},{"name":"D5","midi":74,"time":14.625,"velocity":0.5433070866141733,"duration":0.1875},{"name":"A#4","midi":70,"time":14.8125,"velocity":0.5433070866141733,"duration":0.1875},{"name":"D#5","midi":75,"time":15,"velocity":0.5433070866141733,"duration":0.375},{"name":"D#5","midi":75,"time":15.9375,"velocity":0.5433070866141733,"duration":0.1875},{"name":"C#5","midi":73,"time":16.125,"velocity":0.5433070866141733,"duration":0.5625},{"name":"C5","midi":72,"time":16.6875,"velocity":0.5433070866141733,"duration":0.2749999999999986},{"name":"C5","midi":72,"time":17.0625,"velocity":0.5433070866141733,"duration":0.1875},{"name":"A#4","midi":70,"time":17.25,"velocity":0.5433070866141733,"duration":0.5562499999999986},{"name":"C#5","midi":73,"time":17.8125,"velocity":0.5433070866141733,"duration":0.1875},{"name":"C5","midi":72,"time":18,"velocity":0.5433070866141733,"duration":0.375},{"name":"G#3","midi":56,"time":19.875,"velocity":0.5433070866141733,"duration":0.18124999999999858},{"name":"C4","midi":60,"time":20.25,"velocity":0.5433070866141733,"duration":0.18124999999999858},{"name":"G#3","midi":56,"time":20.625,"velocity":0.5433070866141733,"duration":0.18124999999999858},{"name":"C#4","midi":61,"time":21,"velocity":0.5433070866141733,"duration":0.375},{"name":"B3","midi":59,"time":21.75,"velocity":0.5433070866141733,"duration":0.375},{"name":"A#3","midi":58,"time":22.5,"velocity":0.5433070866141733,"duration":0.1875},{"name":"C4","midi":60,"time":22.6875,"velocity":0.5433070866141733,"duration":0.1875},{"name":"D4","midi":62,"time":22.875,"velocity":0.5433070866141733,"duration":0.1875},{"name":"D#4","midi":63,"time":23.0625,"velocity":0.5433070866141733,"duration":0.1875},{"name":"F4","midi":65,"time":23.25,"velocity":0.5433070866141733,"duration":0.1875},{"name":"F#4","midi":66,"time":23.4375,"velocity":0.5433070866141733,"duration":0.1875},{"name":"G#4","midi":68,"time":23.625,"velocity":0.5433070866141733,"duration":0.13125000000000142},{"name":"F#4","midi":66,"time":23.71875,"velocity":0.5433070866141733,"duration":0.13125000000000142},{"name":"F4","midi":65,"time":23.8125,"velocity":0.5433070866141733,"duration":0.1875},{"name":"F#4","midi":66,"time":24,"velocity":0.5433070866141733,"duration":0.375},{"name":"F4","midi":65,"time":24.75,"velocity":0.5433070866141733,"duration":0.375},{"name":"A#4","midi":70,"time":25.875,"velocity":0.5433070866141733,"duration":0.18124999999999858},{"name":"F#4","midi":66,"time":26.25,"velocity":0.5433070866141733,"duration":0.18124999999999858},{"name":"A#4","midi":70,"time":26.625,"velocity":0.5433070866141733,"duration":0.18124999999999858},{"name":"D#4","midi":63,"time":27,"velocity":0.5433070866141733,"duration":0.18124999999999858},{"name":"F#4","midi":66,"time":27.375,"velocity":0.5433070866141733,"duration":0.375},{"name":"F4","midi":65,"time":27.75,"velocity":0.5433070866141733,"duration":0.375},{"name":"G#4","midi":68,"time":28.125,"velocity":0.5433070866141733,"duration":0.5625},{"name":"G#4","midi":68,"time":28.6875,"velocity":0.5433070866141733,"duration":0.1875},{"name":"F#4","midi":66,"time":28.875,"velocity":0.5433070866141733,"duration":0.1875},{"name":"F4","midi":65,"time":29.0625,"velocity":0.5433070866141733,"duration":0.1875},{"name":"D#4","midi":63,"time":29.25,"velocity":0.5433070866141733,"duration":0.1875},{"name":"C#4","midi":61,"time":29.4375,"velocity":0.5433070866141733,"duration":0.1875},{"name":"C4","midi":60,"time":29.625,"velocity":0.5433070866141733,"duration":0.13125000000000142},{"name":"C#4","midi":61,"time":29.71875,"velocity":0.5433070866141733,"duration":0.125},{"name":"D#4","midi":63,"time":29.8125,"velocity":0.5433070866141733,"duration":0.1875},{"name":"G#3","midi":56,"time":30,"velocity":0.5433070866141733,"duration":0.375},{"name":"C#4","midi":61,"time":31.125,"velocity":0.5433070866141733,"duration":0.18124999999999858},{"name":"F4","midi":65,"time":31.5,"velocity":0.5433070866141733,"duration":0.18124999999999858},{"name":"C#4","midi":61,"time":31.875,"velocity":0.5433070866141733,"duration":0.18124999999999858},{"name":"G#4","midi":68,"time":32.25,"velocity":0.5433070866141733,"duration":0.2749999999999986},{"name":"G#4","midi":68,"time":33.1875,"velocity":0.5433070866141733,"duration":0.1875},{"name":"F#4","midi":66,"time":33.375,"velocity":0.5433070866141733,"duration":0.1875},{"name":"F4","midi":65,"time":33.5625,"velocity":0.5433070866141733,"duration":0.1875},{"name":"F#4","midi":66,"time":33.75,"velocity":0.5433070866141733,"duration":0.53125},{"name":"F#4","midi":66,"time":34.3125,"velocity":0.5433070866141733,"duration":0.33124999999999716},{"name":"F#4","midi":66,"time":34.6875,"velocity":0.5433070866141733,"duration":0.1875},{"name":"F4","midi":65,"time":34.875,"velocity":0.5433070866141733,"duration":0.1875},{"name":"D#4","midi":63,"time":35.0625,"velocity":0.5433070866141733,"duration":0.1875},{"name":"F4","midi":65,"time":35.25,"velocity":0.5433070866141733,"duration":0.5187499999999972},{"name":"F4","midi":65,"time":35.8125,"velocity":0.5433070866141733,"duration":0.3374999999999986},{"name":"F4","midi":65,"time":36.1875,"velocity":0.5433070866141733,"duration":0.1875},{"name":"D#4","midi":63,"time":36.375,"velocity":0.5433070866141733,"duration":0.1875},{"name":"C#4","midi":61,"time":36.5625,"velocity":0.5433070866141733,"duration":0.1875},{"name":"D#4","midi":63,"time":36.75,"velocity":0.5433070866141733,"duration":0.5249999999999986},{"name":"D#4","midi":63,"time":37.3125,"velocity":0.5433070866141733,"duration":0.33124999999999716},{"name":"D#4","midi":63,"time":37.6875,"velocity":0.5433070866141733,"duration":0.1875},{"name":"C#4","midi":61,"time":37.875,"velocity":0.5433070866141733,"duration":0.1875},{"name":"C4","midi":60,"time":38.0625,"velocity":0.5433070866141733,"duration":0.1875},{"name":"C#4","midi":61,"time":38.25,"velocity":0.5433070866141733,"duration":0.5625},{"name":"C4","midi":60,"time":38.8125,"velocity":0.5433070866141733,"duration":0.1875},{"name":"A#3","midi":58,"time":39,"velocity":0.5433070866141733,"duration":0.1875},{"name":"A3","midi":57,"time":39.1875,"velocity":0.5433070866141733,"duration":0.1875},{"name":"A#3","midi":58,"time":39.375,"velocity":0.5433070866141733,"duration":0.5625},{"name":"C#4","midi":61,"time":39.9375,"velocity":0.5433070866141733,"duration":0.1875},{"name":"C4","midi":60,"time":40.125,"velocity":0.5433070866141733,"duration":0.1875},{"name":"A#3","midi":58,"time":40.3125,"velocity":0.5433070866141733,"duration":0.1875},{"name":"A3","midi":57,"time":40.5,"velocity":0.5433070866141733,"duration":0.375},{"name":"A#3","midi":58,"time":42.375,"velocity":0.5433070866141733,"duration":0.20624999999999716},{"name":"D4","midi":62,"time":42.75,"velocity":0.5433070866141733,"duration":0.20624999999999716},{"name":"A#3","midi":58,"time":43.125,"velocity":0.5433070866141733,"duration":0.21875},{"name":"D#4","midi":63,"time":43.5,"velocity":0.5433070866141733,"duration":0.375},{"name":"C#4","midi":61,"time":44.25,"velocity":0.5433070866141733,"duration":0.375},{"name":"C4","midi":60,"time":45,"velocity":0.5433070866141733,"duration":0.1875},{"name":"A#3","midi":58,"time":45.1875,"velocity":0.5433070866141733,"duration":0.1875},{"name":"G#3","midi":56,"time":45.375,"velocity":0.5433070866141733,"duration":0.5625},{"name":"A#3","midi":58,"time":45.9375,"velocity":0.5433070866141733,"duration":0.1875},{"name":"B3","midi":59,"time":46.125,"velocity":0.5433070866141733,"duration":0.13125000000000142},{"name":"A#3","midi":58,"time":46.21875,"velocity":0.5433070866141733,"duration":0.13125000000000142},{"name":"G#3","midi":56,"time":46.3125,"velocity":0.5433070866141733,"duration":0.1875},{"name":"A#3","midi":58,"time":46.5,"velocity":0.5433070866141733,"duration":0.1875},{"name":"C4","midi":60,"time":46.6875,"velocity":0.5433070866141733,"duration":0.1875},{"name":"C#4","midi":61,"time":46.875,"velocity":0.5433070866141733,"duration":0.13750000000000284},{"name":"C4","midi":60,"time":46.96875,"velocity":0.5433070866141733,"duration":0.14374999999999716},{"name":"A#3","midi":58,"time":47.0625,"velocity":0.5433070866141733,"duration":0.1875},{"name":"C4","midi":60,"time":47.25,"velocity":0.5433070866141733,"duration":0.1875},{"name":"C#4","midi":61,"time":47.4375,"velocity":0.5433070866141733,"duration":0.1875},{"name":"D#4","midi":63,"time":47.625,"velocity":0.5433070866141733,"duration":0.14374999999999716},{"name":"C#4","midi":61,"time":47.71875,"velocity":0.5433070866141733,"duration":0.125},{"name":"C4","midi":60,"time":47.8125,"velocity":0.5433070866141733,"duration":0.1875},{"name":"C#4","midi":61,"time":48,"velocity":0.5433070866141733,"duration":1.8500000000000014},{"name":"C#4","midi":61,"time":49.862500000000004,"velocity":0.5433070866141733,"duration":0.18124999999999858},{"name":"C4","midi":60,"time":50.25,"velocity":0.5433070866141733,"duration":0.18124999999999858},{"name":"F4","midi":65,"time":50.625,"velocity":0.5433070866141733,"duration":0.18124999999999858},{"name":"A#3","midi":58,"time":51,"velocity":0.5433070866141733,"duration":1.125},{"name":"D#4","midi":63,"time":52.125,"velocity":0.5433070866141733,"duration":0.375},{"name":"G#3","midi":56,"time":52.5,"velocity":0.5433070866141733,"duration":0.75},{"name":"G#4","midi":68,"time":53.4375,"velocity":0.5433070866141733,"duration":0.1875},{"name":"F4","midi":65,"time":53.625,"velocity":0.5433070866141733,"duration":0.1875},{"name":"G#4","midi":68,"time":53.8125,"velocity":0.5433070866141733,"duration":0.1875},{"name":"C#4","midi":61,"time":54,"velocity":0.5433070866141733,"duration":0.375},{"name":"C4","midi":60,"time":54.9375,"velocity":0.5433070866141733,"duration":0.1875},{"name":"G#3","midi":56,"time":55.125,"velocity":0.5433070866141733,"duration":0.1875},{"name":"C4","midi":60,"time":55.3125,"velocity":0.5433070866141733,"duration":0.1875},{"name":"C#4","midi":61,"time":55.5,"velocity":0.5433070866141733,"duration":0.375},{"name":"G#3","midi":56,"time":55.875,"velocity":0.5433070866141733,"duration":0.375},{"name":"C#4","midi":61,"time":56.25,"velocity":0.5433070866141733,"duration":1.125},{"name":"A#3","midi":58,"time":57.375,"velocity":0.5433070866141733,"duration":0.375},{"name":"F#3","midi":54,"time":57.75,"velocity":0.5433070866141733,"duration":1.125},{"name":"G#3","midi":56,"time":58.875,"velocity":0.5433070866141733,"duration":0.375},{"name":"F3","midi":53,"time":59.25,"velocity":0.5433070866141733,"duration":0.375},{"name":"F4","midi":65,"time":59.625,"velocity":0.5433070866141733,"duration":0.5625},{"name":"C#4","midi":61,"time":60.1875,"velocity":0.5433070866141733,"duration":0.1875},{"name":"D#4","midi":63,"time":60.375,"velocity":0.5433070866141733,"duration":0.5625},{"name":"C4","midi":60,"time":60.9375,"velocity":0.5433070866141733,"duration":0.1875},{"name":"C#4","midi":61,"time":61.125,"velocity":0.5433070866141733,"duration":0.5625},{"name":"A#3","midi":58,"time":61.6875,"velocity":0.5433070866141733,"duration":0.1875},{"name":"C4","midi":60,"time":61.875,"velocity":0.5433070866141733,"duration":0.375},{"name":"C#4","midi":61,"time":62.4375,"velocity":0.5433070866141733,"duration":0.1875},{"name":"G#3","midi":56,"time":62.625,"velocity":0.5433070866141733,"duration":0.1875},{"name":"B3","midi":59,"time":62.8125,"velocity":0.5433070866141733,"duration":0.1875},{"name":"A#3","midi":58,"time":63,"velocity":0.5433070866141733,"duration":1.5},{"name":"G#3","midi":56,"time":64.6875,"velocity":0.5433070866141733,"duration":0.75},{"name":"C#4","midi":61,"time":65.4375,"velocity":0.5433070866141733,"duration":0.1875},{"name":"C4","midi":60,"time":65.625,"velocity":0.5433070866141733,"duration":0.375},{"name":"C#4","midi":61,"time":66.1875,"velocity":0.5433070866141733,"duration":0.75},{"name":"F#4","midi":66,"time":66.9375,"velocity":0.5433070866141733,"duration":0.1875},{"name":"F4","midi":65,"time":67.125,"velocity":0.5433070866141733,"duration":0.375},{"name":"F#4","midi":66,"time":67.6875,"velocity":0.5433070866141733,"duration":0.75},{"name":"B4","midi":71,"time":68.4375,"velocity":0.5433070866141733,"duration":0.1875},{"name":"A#4","midi":70,"time":68.625,"velocity":0.5433070866141733,"duration":0.1875},{"name":"D#5","midi":75,"time":68.8125,"velocity":0.5433070866141733,"duration":0.1875},{"name":"G#4","midi":68,"time":69,"velocity":0.5433070866141733,"duration":0.375},{"name":"C4","midi":60,"time":70.6875,"velocity":0.5433070866141733,"duration":0.1875},{"name":"C#4","midi":61,"time":70.875,"velocity":0.5433070866141733,"duration":0.1875},{"name":"D#4","midi":63,"time":71.0625,"velocity":0.5433070866141733,"duration":0.1875},{"name":"F4","midi":65,"time":71.25,"velocity":0.5433070866141733,"duration":0.1875},{"name":"G4","midi":67,"time":71.4375,"velocity":0.5433070866141733,"duration":0.1875},{"name":"G#4","midi":68,"time":71.625,"velocity":0.5433070866141733,"duration":0.1875},{"name":"G4","midi":67,"time":71.8125,"velocity":0.5433070866141733,"duration":0.1875},{"name":"G#4","midi":68,"time":72,"velocity":0.5433070866141733,"duration":0.375},{"name":"C#4","midi":61,"time":72.75,"velocity":0.5433070866141733,"duration":0.6500000000000057},{"name":"F4","midi":65,"time":73.5,"velocity":0.5433070866141733,"duration":0.6500000000000057},{"name":"C#4","midi":61,"time":74.25,"velocity":0.5433070866141733,"duration":0.6500000000000057},{"name":"F#4","midi":66,"time":75,"velocity":0.5433070866141733,"duration":0.375},{"name":"F#4","midi":66,"time":76.125,"velocity":0.5433070866141733,"duration":0.5625},{"name":"A#4","midi":70,"time":76.6875,"velocity":0.5433070866141733,"duration":0.1875},{"name":"G#4","midi":68,"time":76.875,"velocity":0.5433070866141733,"duration":0.1875},{"name":"F#4","midi":66,"time":77.0625,"velocity":0.5433070866141733,"duration":0.1875},{"name":"F4","midi":65,"time":77.25,"velocity":0.5433070866141733,"duration":0.1875},{"name":"D#4","midi":63,"time":77.4375,"velocity":0.5433070866141733,"duration":0.1875},{"name":"C#4","midi":61,"time":77.625,"velocity":0.5433070866141733,"duration":0.11875000000000568},{"name":"D#4","midi":63,"time":77.71875,"velocity":0.5433070866141733,"duration":0.125},{"name":"F4","midi":65,"time":77.8125,"velocity":0.5433070866141733,"duration":0.1875},{"name":"A#3","midi":58,"time":78,"velocity":0.5433070866141733,"duration":0.75},{"name":"D#4","midi":63,"time":79.125,"velocity":0.5433070866141733,"duration":0.2750000000000057},{"name":"A#3","midi":58,"time":79.5,"velocity":0.5433070866141733,"duration":0.2750000000000057},{"name":"D#4","midi":63,"time":79.875,"velocity":0.5433070866141733,"duration":0.2750000000000057},{"name":"F#3","midi":54,"time":80.25,"velocity":0.5433070866141733,"duration":0.2750000000000057},{"name":"F#4","midi":66,"time":80.625,"velocity":0.5433070866141733,"duration":0.5625},{"name":"G#4","midi":68,"time":81.1875,"velocity":0.5433070866141733,"duration":0.1875},{"name":"F#4","midi":66,"time":81.375,"velocity":0.5433070866141733,"duration":0.1875},{"name":"E4","midi":64,"time":81.5625,"velocity":0.5433070866141733,"duration":0.1875},{"name":"D#4","midi":63,"time":81.75,"velocity":0.5433070866141733,"duration":0.1875},{"name":"C#4","midi":61,"time":81.9375,"velocity":0.5433070866141733,"duration":0.1875},{"name":"C4","midi":60,"time":82.125,"velocity":0.5433070866141733,"duration":0.13750000000000284},{"name":"C#4","midi":61,"time":82.21875,"velocity":0.5433070866141733,"duration":0.125},{"name":"D#4","midi":63,"time":82.3125,"velocity":0.5433070866141733,"duration":0.1875},{"name":"E4","midi":64,"time":82.5,"velocity":0.5433070866141733,"duration":0.1875},{"name":"F#4","midi":66,"time":82.6875,"velocity":0.5433070866141733,"duration":0.1875},{"name":"E4","midi":64,"time":82.875,"velocity":0.5433070866141733,"duration":0.1875},{"name":"D#4","midi":63,"time":83.0625,"velocity":0.5433070866141733,"duration":0.1875},{"name":"C#4","midi":61,"time":83.25,"velocity":0.5433070866141733,"duration":0.1875},{"name":"C4","midi":60,"time":83.4375,"velocity":0.5433070866141733,"duration":0.1875},{"name":"A#3","midi":58,"time":83.625,"velocity":0.5433070866141733,"duration":0.13750000000000284},{"name":"C4","midi":60,"time":83.71875,"velocity":0.5433070866141733,"duration":0.13124999999999432},{"name":"C#4","midi":61,"time":83.8125,"velocity":0.5433070866141733,"duration":0.1875},{"name":"C4","midi":60,"time":84,"velocity":0.5433070866141733,"duration":0.2750000000000057},{"name":"D#4","midi":63,"time":84.375,"velocity":0.5433070866141733,"duration":0.2750000000000057},{"name":"C#4","midi":61,"time":84.75,"velocity":0.5433070866141733,"duration":0.2750000000000057},{"name":"E4","midi":64,"time":85.125,"velocity":0.5433070866141733,"duration":0.2750000000000057},{"name":"A#3","midi":58,"time":85.5,"velocity":0.5433070866141733,"duration":0.375},{"name":"C#4","midi":61,"time":85.875,"velocity":0.5433070866141733,"duration":1.1187500000000057},{"name":"E4","midi":64,"time":86.25,"velocity":0.5433070866141733,"duration":0.75},{"name":"D#4","midi":63,"time":87,"velocity":0.5433070866141733,"duration":0.375},{"name":"F5","midi":77,"time":88.125,"velocity":0.5433070866141733,"duration":0.2750000000000057},{"name":"D5","midi":74,"time":88.5,"velocity":0.5433070866141733,"duration":0.2750000000000057},{"name":"F5","midi":77,"time":88.875,"velocity":0.5433070866141733,"duration":0.2750000000000057},{"name":"A#4","midi":70,"time":89.25,"velocity":0.5433070866141733,"duration":0.2750000000000057},{"name":"D#5","midi":75,"time":89.625,"velocity":0.5433070866141733,"duration":0.2750000000000057},{"name":"C5","midi":72,"time":90,"velocity":0.5433070866141733,"duration":0.2750000000000057},{"name":"D#5","midi":75,"time":90.375,"velocity":0.5433070866141733,"duration":0.2750000000000057},{"name":"G#4","midi":68,"time":90.75,"velocity":0.5433070866141733,"duration":0.2750000000000057},{"name":"C#5","midi":73,"time":91.125,"velocity":0.5433070866141733,"duration":0.2750000000000057},{"name":"A#4","midi":70,"time":91.5,"velocity":0.5433070866141733,"duration":0.1875},{"name":"C#5","midi":73,"time":91.6875,"velocity":0.5433070866141733,"duration":0.1875},{"name":"F#4","midi":66,"time":91.875,"velocity":0.5433070866141733,"duration":0.375},{"name":"F4","midi":65,"time":92.71875,"velocity":0.5433070866141733,"duration":0.125},{"name":"D#4","midi":63,"time":92.8125,"velocity":0.5433070866141733,"duration":0.125},{"name":"C#4","midi":61,"time":92.90625,"velocity":0.5433070866141733,"duration":0.13124999999999432},{"name":"C4","midi":60,"time":93,"velocity":0.5433070866141733,"duration":0.1875},{"name":"D#4","midi":63,"time":93.1875,"velocity":0.5433070866141733,"duration":0.1875},{"name":"D#4","midi":63,"time":93.1875,"velocity":0.5433070866141733,"duration":0.9375},{"name":"G#3","midi":56,"time":93.375,"velocity":0.5433070866141733,"duration":1.125},{"name":"F#3","midi":54,"time":93.46875,"velocity":0.5433070866141733,"duration":0.13750000000000284},{"name":"F3","midi":53,"time":93.5625,"velocity":0.5433070866141733,"duration":0.125},{"name":"D#3","midi":51,"time":93.65625,"velocity":0.5433070866141733,"duration":0.13124999999999432},{"name":"F3","midi":53,"time":93.75,"velocity":0.5433070866141733,"duration":0.14374999999999716},{"name":"D#3","midi":51,"time":93.84375,"velocity":0.5433070866141733,"duration":0.13750000000000284},{"name":"C#3","midi":49,"time":93.9375,"velocity":0.5433070866141733,"duration":0.125},{"name":"C3","midi":48,"time":94.03125,"velocity":0.5433070866141733,"duration":0.09375},{"name":"C#4","midi":61,"time":94.125,"velocity":0.5433070866141733,"duration":0.84375},{"name":"C#3","midi":49,"time":94.125,"velocity":0.5433070866141733,"duration":0.375},{"name":"G3","midi":55,"time":94.875,"velocity":0.5433070866141733,"duration":0.375},{"name":"C#4","midi":61,"time":94.96875,"velocity":0.5433070866141733,"duration":0.13750000000000284},{"name":"C4","midi":60,"time":95.0625,"velocity":0.5433070866141733,"duration":0.125},{"name":"A#3","midi":58,"time":95.15625,"velocity":0.5433070866141733,"duration":0.13124999999999432},{"name":"C4","midi":60,"time":95.25,"velocity":0.5433070866141733,"duration":0.9375},{"name":"G#3","midi":56,"time":95.25,"velocity":0.5433070866141733,"duration":0.75},{"name":"G#3","midi":56,"time":96.1875,"velocity":0.5433070866141733,"duration":0.375},{"name":"G3","midi":55,"time":96.5625,"velocity":0.5433070866141733,"duration":0.1875},{"name":"G#3","midi":56,"time":96.75,"velocity":0.5433070866141733,"duration":0.5625},{"name":"G#2","midi":44,"time":96.75,"velocity":0.5433070866141733,"duration":0.75},{"name":"F#3","midi":54,"time":97.3125,"velocity":0.5433070866141733,"duration":0.375},{"name":"C#2","midi":37,"time":97.5,"velocity":0.5433070866141733,"duration":7.5},{"name":"F#3","midi":54,"time":97.6875,"velocity":0.5433070866141733,"duration":0.1875},{"name":"F3","midi":53,"time":97.875,"velocity":0.5433070866141733,"duration":0.1875},{"name":"D#3","midi":51,"time":98.0625,"velocity":0.5433070866141733,"duration":0.1875},{"name":"F3","midi":53,"time":98.25,"velocity":0.5433070866141733,"duration":0.9375},{"name":"G#3","midi":56,"time":99.1875,"velocity":0.5433070866141733,"duration":0.1875},{"name":"F#3","midi":54,"time":99.375,"velocity":0.5433070866141733,"duration":0.1875},{"name":"F3","midi":53,"time":99.5625,"velocity":0.5433070866141733,"duration":0.1875},{"name":"F#3","midi":54,"time":99.75,"velocity":0.5433070866141733,"duration":1.5},{"name":"G#3","midi":56,"time":101.8125,"velocity":0.5433070866141733,"duration":0.1875},{"name":"A#3","midi":58,"time":102,"velocity":0.5433070866141733,"duration":0.75},{"name":"C4","midi":60,"time":102.75,"velocity":0.5433070866141733,"duration":0.75},{"name":"C#4","midi":61,"time":103.5,"velocity":0.5433070866141733,"duration":1.5},{"name":"G#3","midi":56,"time":103.5,"velocity":0.5433070866141733,"duration":1.5}],"controlChanges":{"7":[{"number":7,"time":0,"value":0.7874015748031497}]},"id":2,"name":"Sequenced","instrumentNumber":6,"instrument":"harpsichord","instrumentFamily":"piano","channelNumber":0,"isPercussion":false},{"startTime":0.375,"duration":105,"length":250,"notes":[{"name":"C#3","midi":49,"time":0.375,"velocity":0.5433070866141733,"duration":0.18125000000000002},{"name":"F3","midi":53,"time":0.75,"velocity":0.5433070866141733,"duration":0.18125000000000002},{"name":"C#3","midi":49,"time":1.125,"velocity":0.5433070866141733,"duration":0.1812499999999999},{"name":"G#3","midi":56,"time":1.5,"velocity":0.5433070866141733,"duration":0.2749999999999999},{"name":"F#3","midi":54,"time":2.25,"velocity":0.5433070866141733,"duration":0.375},{"name":"F3","midi":53,"time":3,"velocity":0.5433070866141733,"duration":0.1875},{"name":"D#3","midi":51,"time":3.1875,"velocity":0.5433070866141733,"duration":0.1875},{"name":"C#3","midi":49,"time":3.375,"velocity":0.5433070866141733,"duration":0.5625},{"name":"D#3","midi":51,"time":3.9375,"velocity":0.5433070866141733,"duration":0.1875},{"name":"F3","midi":53,"time":4.125,"velocity":0.5433070866141733,"duration":0.1875},{"name":"C#3","midi":49,"time":4.3125,"velocity":0.5433070866141733,"duration":0.1875},{"name":"F#3","midi":54,"time":4.5,"velocity":0.5433070866141733,"duration":0.375},{"name":"F#2","midi":42,"time":5.25,"velocity":0.5433070866141733,"duration":0.375},{"name":"C#3","midi":49,"time":6.375,"velocity":0.5433070866141733,"duration":0.18125000000000036},{"name":"A#2","midi":46,"time":6.75,"velocity":0.5433070866141733,"duration":0.18125000000000036},{"name":"C#3","midi":49,"time":7.125,"velocity":0.5433070866141733,"duration":0.18125000000000036},{"name":"F#2","midi":42,"time":7.5,"velocity":0.5433070866141733,"duration":0.18125000000000036},{"name":"A#2","midi":46,"time":7.875,"velocity":0.5433070866141733,"duration":0.18125000000000036},{"name":"D#2","midi":39,"time":8.25,"velocity":0.5433070866141733,"duration":0.18125000000000036},{"name":"G#2","midi":44,"time":8.625,"velocity":0.5433070866141733,"duration":0.18125000000000036},{"name":"C#2","midi":37,"time":9,"velocity":0.5433070866141733,"duration":0.375},{"name":"C#4","midi":61,"time":10.125,"velocity":0.5433070866141733,"duration":0.18125000000000036},{"name":"C4","midi":60,"time":10.5,"velocity":0.5433070866141733,"duration":0.18125000000000036},{"name":"D#4","midi":63,"time":10.875,"velocity":0.5433070866141733,"duration":0.18125000000000036},{"name":"G#3","midi":56,"time":11.25,"velocity":0.5433070866141733,"duration":0.375},{"name":"C#3","midi":49,"time":12.375,"velocity":0.5433070866141733,"duration":0.18125000000000036},{"name":"F3","midi":53,"time":12.75,"velocity":0.5433070866141733,"duration":0.18125000000000036},{"name":"C#3","midi":49,"time":13.125,"velocity":0.5433070866141733,"duration":0.18125000000000036},{"name":"F#3","midi":54,"time":13.5,"velocity":0.5433070866141733,"duration":0.375},{"name":"F3","midi":53,"time":14.25,"velocity":0.5433070866141733,"duration":0.375},{"name":"D#3","midi":51,"time":15.1875,"velocity":0.5433070866141733,"duration":0.1875},{"name":"C3","midi":48,"time":15.375,"velocity":0.5433070866141733,"duration":0.1875},{"name":"D#3","midi":51,"time":15.5625,"velocity":0.5433070866141733,"duration":0.1875},{"name":"A2","midi":45,"time":15.75,"velocity":0.5433070866141733,"duration":0.375},{"name":"A#2","midi":46,"time":16.125,"velocity":0.5433070866141733,"duration":0.2749999999999986},{"name":"D#2","midi":39,"time":16.5,"velocity":0.5433070866141733,"duration":0.2749999999999986},{"name":"F2","midi":41,"time":16.875,"velocity":0.5433070866141733,"duration":0.2749999999999986},{"name":"C#2","midi":37,"time":17.25,"velocity":0.5433070866141733,"duration":0.2749999999999986},{"name":"D#2","midi":39,"time":17.625,"velocity":0.5433070866141733,"duration":0.2749999999999986},{"name":"G#2","midi":44,"time":18.375,"velocity":0.5433070866141733,"duration":0.18124999999999858},{"name":"C3","midi":48,"time":18.75,"velocity":0.5433070866141733,"duration":0.18124999999999858},{"name":"G#2","midi":44,"time":19.125,"velocity":0.5433070866141733,"duration":0.18124999999999858},{"name":"C#3","midi":49,"time":19.5,"velocity":0.5433070866141733,"duration":0.375},{"name":"C3","midi":48,"time":20.25,"velocity":0.5433070866141733,"duration":0.375},{"name":"A#2","midi":46,"time":21,"velocity":0.5433070866141733,"duration":0.1875},{"name":"C3","midi":48,"time":21.1875,"velocity":0.5433070866141733,"duration":0.1875},{"name":"C#3","midi":49,"time":21.375,"velocity":0.5433070866141733,"duration":0.1875},{"name":"D#3","midi":51,"time":21.5625,"velocity":0.5433070866141733,"duration":0.1875},{"name":"F3","midi":53,"time":21.75,"velocity":0.5433070866141733,"duration":0.1875},{"name":"F#3","midi":54,"time":21.9375,"velocity":0.5433070866141733,"duration":0.1875},{"name":"G#3","midi":56,"time":22.125,"velocity":0.5433070866141733,"duration":0.11874999999999858},{"name":"F#3","midi":54,"time":22.21875,"velocity":0.5433070866141733,"duration":0.11874999999999858},{"name":"F3","midi":53,"time":22.3125,"velocity":0.5433070866141733,"duration":0.1875},{"name":"F#3","midi":54,"time":22.5,"velocity":0.5433070866141733,"duration":0.375},{"name":"D3","midi":50,"time":23.25,"velocity":0.5433070866141733,"duration":0.375},{"name":"D#3","midi":51,"time":24,"velocity":0.5433070866141733,"duration":0.375},{"name":"A#3","midi":58,"time":25.125,"velocity":0.5433070866141733,"duration":0.18124999999999858},{"name":"F#3","midi":54,"time":25.5,"velocity":0.5433070866141733,"duration":0.18124999999999858},{"name":"A#3","midi":58,"time":25.875,"velocity":0.5433070866141733,"duration":0.18124999999999858},{"name":"D#3","midi":51,"time":26.25,"velocity":0.5433070866141733,"duration":0.18124999999999858},{"name":"G3","midi":55,"time":26.625,"velocity":0.5433070866141733,"duration":0.18124999999999858},{"name":"G#3","midi":56,"time":27,"velocity":0.5433070866141733,"duration":0.1875},{"name":"G#2","midi":44,"time":27.1875,"velocity":0.5433070866141733,"duration":0.1875},{"name":"A#2","midi":46,"time":27.375,"velocity":0.5433070866141733,"duration":0.1875},{"name":"C3","midi":48,"time":27.5625,"velocity":0.5433070866141733,"duration":0.1875},{"name":"C#3","midi":49,"time":27.75,"velocity":0.5433070866141733,"duration":0.1875},{"name":"D#3","midi":51,"time":27.9375,"velocity":0.5433070866141733,"duration":0.1875},{"name":"F3","midi":53,"time":28.125,"velocity":0.5433070866141733,"duration":0.125},{"name":"D#3","midi":51,"time":28.21875,"velocity":0.5433070866141733,"duration":0.125},{"name":"C#3","midi":49,"time":28.3125,"velocity":0.5433070866141733,"duration":0.1875},{"name":"F#3","midi":54,"time":28.5,"velocity":0.5433070866141733,"duration":0.18124999999999858},{"name":"D#3","midi":51,"time":28.875,"velocity":0.5433070866141733,"duration":0.18124999999999858},{"name":"G#3","midi":56,"time":29.625,"velocity":0.5433070866141733,"duration":0.18124999999999858},{"name":"F3","midi":53,"time":30,"velocity":0.5433070866141733,"duration":0.18124999999999858},{"name":"G#3","midi":56,"time":30.375,"velocity":0.5433070866141733,"duration":0.18124999999999858},{"name":"C#3","midi":49,"time":30.75,"velocity":0.5433070866141733,"duration":0.2749999999999986},{"name":"C#3","midi":49,"time":31.875,"velocity":0.5433070866141733,"duration":0.18124999999999858},{"name":"F3","midi":53,"time":32.25,"velocity":0.5433070866141733,"duration":0.18124999999999858},{"name":"C#3","midi":49,"time":32.625,"velocity":0.5433070866141733,"duration":0.18124999999999858},{"name":"F#3","midi":54,"time":33,"velocity":0.5433070866141733,"duration":0.18124999999999858},{"name":"A#3","midi":58,"time":33.375,"velocity":0.5433070866141733,"duration":0.18124999999999858},{"name":"D#3","midi":51,"time":33.75,"velocity":0.5433070866141733,"duration":0.18124999999999858},{"name":"F#3","midi":54,"time":34.125,"velocity":0.5433070866141733,"duration":0.18124999999999858},{"name":"C3","midi":48,"time":34.5,"velocity":0.5433070866141733,"duration":0.18124999999999858},{"name":"G#3","midi":56,"time":34.875,"velocity":0.5433070866141733,"duration":0.18124999999999858},{"name":"C#3","midi":49,"time":35.25,"velocity":0.5433070866141733,"duration":0.18124999999999858},{"name":"F3","midi":53,"time":35.625,"velocity":0.5433070866141733,"duration":0.18124999999999858},{"name":"A#2","midi":46,"time":36,"velocity":0.5433070866141733,"duration":0.18124999999999858},{"name":"F#3","midi":54,"time":36.375,"velocity":0.5433070866141733,"duration":0.18124999999999858},{"name":"C3","midi":48,"time":36.75,"velocity":0.5433070866141733,"duration":0.18124999999999858},{"name":"D#3","midi":51,"time":37.125,"velocity":0.5433070866141733,"duration":0.18124999999999858},{"name":"A2","midi":45,"time":37.5,"velocity":0.5433070866141733,"duration":0.18124999999999858},{"name":"F2","midi":41,"time":37.875,"velocity":0.5433070866141733,"duration":0.2749999999999986},{"name":"A#2","midi":46,"time":38.25,"velocity":0.5433070866141733,"duration":0.2749999999999986},{"name":"G#2","midi":44,"time":38.625,"velocity":0.5433070866141733,"duration":0.2749999999999986},{"name":"F#2","midi":42,"time":39,"velocity":0.5433070866141733,"duration":0.2749999999999986},{"name":"F2","midi":41,"time":39.375,"velocity":0.5433070866141733,"duration":0.2749999999999986},{"name":"G#2","midi":44,"time":39.75,"velocity":0.5433070866141733,"duration":0.10000000000000142},{"name":"F#2","midi":42,"time":39.83125,"velocity":0.5433070866141733,"duration":0.012500000000002842},{"name":"G#2","midi":44,"time":39.86875,"velocity":0.5433070866141733,"duration":0.08749999999999858},{"name":"F#2","midi":42,"time":39.925,"velocity":0.5433070866141733,"duration":0.08750000000000568},{"name":"G#2","midi":44,"time":39.96875,"velocity":0.5433070866141733,"duration":0.08749999999999858},{"name":"F#2","midi":42,"time":40.03125,"velocity":0.5433070866141733,"duration":0.08749999999999858},{"name":"G#2","midi":44,"time":40.08125,"velocity":0.5433070866141733,"duration":0.08749999999999858},{"name":"F#2","midi":42,"time":40.15,"velocity":0.5433070866141733,"duration":0.08749999999999858},{"name":"G#2","midi":44,"time":40.193749999999994,"velocity":0.5433070866141733,"duration":0.08749999999999858},{"name":"F#2","midi":42,"time":40.256249999999994,"velocity":0.5433070866141733,"duration":0.08749999999999858},{"name":"F2","midi":41,"time":40.349999999999994,"velocity":0.5433070866141733,"duration":0.08749999999999858},{"name":"F#2","midi":42,"time":40.40624999999999,"velocity":0.5433070866141733,"duration":0.08749999999999858},{"name":"F2","midi":41,"time":40.49999999999999,"velocity":0.5433070866141733,"duration":0.2749999999999986},{"name":"F3","midi":53,"time":40.87499999999999,"velocity":0.5433070866141733,"duration":0.18124999999999858},{"name":"A3","midi":57,"time":41.24999999999999,"velocity":0.5433070866141733,"duration":0.18124999999999858},{"name":"F3","midi":53,"time":41.62499999999999,"velocity":0.5433070866141733,"duration":0.18124999999999858},{"name":"A#3","midi":58,"time":41.99999999999999,"velocity":0.5433070866141733,"duration":0.16875000000000284},{"name":"G#3","midi":56,"time":42.74999999999999,"velocity":0.5433070866141733,"duration":0.375},{"name":"G3","midi":55,"time":43.49999999999999,"velocity":0.5433070866141733,"duration":0.1875},{"name":"F3","midi":53,"time":43.68749999999999,"velocity":0.5433070866141733,"duration":0.1875},{"name":"D#3","midi":51,"time":43.87499999999999,"velocity":0.5433070866141733,"duration":0.5625},{"name":"F3","midi":53,"time":44.43749999999999,"velocity":0.5433070866141733,"duration":0.1875},{"name":"G3","midi":55,"time":44.62499999999999,"velocity":0.5433070866141733,"duration":0.13750000000000284},{"name":"F3","midi":53,"time":44.71874999999999,"velocity":0.5433070866141733,"duration":0.13750000000000284},{"name":"D#3","midi":51,"time":44.81249999999999,"velocity":0.5433070866141733,"duration":0.1875},{"name":"G#3","midi":56,"time":44.99999999999999,"velocity":0.5433070866141733,"duration":0.375},{"name":"C#3","midi":49,"time":48.37499999999999,"velocity":0.5433070866141733,"duration":0.2749999999999986},{"name":"F3","midi":53,"time":48.74999999999999,"velocity":0.5433070866141733,"duration":0.2749999999999986},{"name":"C#3","midi":49,"time":49.12499999999999,"velocity":0.5433070866141733,"duration":0.2749999999999986},{"name":"G#3","midi":56,"time":49.49999999999999,"velocity":0.5433070866141733,"duration":1.875},{"name":"G#3","midi":56,"time":51.37499999999999,"velocity":0.5433070866141733,"duration":0.375},{"name":"F#3","midi":54,"time":51.74999999999999,"velocity":0.5433070866141733,"duration":1.125},{"name":"F#3","midi":54,"time":52.87499999999999,"velocity":0.5433070866141733,"duration":0.3687499999999986},{"name":"F3","midi":53,"time":53.24999999999999,"velocity":0.5433070866141733,"duration":0.375},{"name":"A#3","midi":58,"time":54.18749999999999,"velocity":0.5433070866141733,"duration":0.1875},{"name":"F#3","midi":54,"time":54.37499999999999,"velocity":0.5433070866141733,"duration":0.1875},{"name":"A#3","midi":58,"time":54.56249999999999,"velocity":0.5433070866141733,"duration":0.1875},{"name":"D#3","midi":51,"time":54.74999999999999,"velocity":0.5433070866141733,"duration":0.375},{"name":"C#3","midi":49,"time":55.49999999999999,"velocity":0.5433070866141733,"duration":0.375},{"name":"C#3","midi":49,"time":56.43749999999999,"velocity":0.5433070866141733,"duration":0.1875},{"name":"F3","midi":53,"time":56.62499999999999,"velocity":0.5433070866141733,"duration":0.1875},{"name":"C#3","midi":49,"time":56.81249999999999,"velocity":0.5433070866141733,"duration":0.1875},{"name":"F#3","midi":54,"time":56.99999999999999,"velocity":0.5433070866141733,"duration":0.375},{"name":"D#3","midi":51,"time":58.12499999999999,"velocity":0.5433070866141733,"duration":0.375},{"name":"C3","midi":48,"time":58.49999999999999,"velocity":0.5433070866141733,"duration":0.375},{"name":"C#3","midi":49,"time":59.62499999999999,"velocity":0.5433070866141733,"duration":0.2749999999999986},{"name":"F#2","midi":42,"time":59.99999999999999,"velocity":0.5433070866141733,"duration":0.2749999999999986},{"name":"F#3","midi":54,"time":60.37499999999999,"velocity":0.5433070866141733,"duration":0.2749999999999986},{"name":"F3","midi":53,"time":60.74999999999999,"velocity":0.5433070866141733,"duration":0.2749999999999986},{"name":"A#2","midi":46,"time":61.12499999999999,"velocity":0.5433070866141733,"duration":0.2749999999999986},{"name":"D#3","midi":51,"time":61.49999999999999,"velocity":0.5433070866141733,"duration":0.2749999999999986},{"name":"G#2","midi":44,"time":61.87499999999999,"velocity":0.5433070866141733,"duration":0.2749999999999986},{"name":"C#3","midi":49,"time":62.24999999999999,"velocity":0.5433070866141733,"duration":0.2749999999999986},{"name":"C#2","midi":37,"time":62.62499999999999,"velocity":0.5433070866141733,"duration":0.2749999999999986},{"name":"F#2","midi":42,"time":62.99999999999999,"velocity":0.5433070866141733,"duration":0.08749999999999858},{"name":"C#3","midi":49,"time":63.18749999999999,"velocity":0.5433070866141733,"duration":0.1875},{"name":"A#2","midi":46,"time":63.37499999999999,"velocity":0.5433070866141733,"duration":0.1875},{"name":"C#3","midi":49,"time":63.56249999999999,"velocity":0.5433070866141733,"duration":0.1875},{"name":"F#3","midi":54,"time":63.74999999999999,"velocity":0.5433070866141733,"duration":1.125000000000007},{"name":"F#3","midi":54,"time":64.875,"velocity":0.5433070866141733,"duration":0.2750000000000057},{"name":"F3","midi":53,"time":65.25,"velocity":0.5433070866141733,"duration":0.2750000000000057},{"name":"G#3","midi":56,"time":65.625,"velocity":0.5433070866141733,"duration":0.2750000000000057},{"name":"C#3","midi":49,"time":66,"velocity":0.5433070866141733,"duration":0.2750000000000057},{"name":"B3","midi":59,"time":66.375,"velocity":0.5433070866141733,"duration":0.2750000000000057},{"name":"A#3","midi":58,"time":66.75,"velocity":0.5433070866141733,"duration":0.2750000000000057},{"name":"C#4","midi":61,"time":67.125,"velocity":0.5433070866141733,"duration":0.2750000000000057},{"name":"F#3","midi":54,"time":67.5,"velocity":0.5433070866141733,"duration":0.2750000000000057},{"name":"F3","midi":53,"time":67.875,"velocity":0.5433070866141733,"duration":0.2750000000000057},{"name":"D#3","midi":51,"time":68.25,"velocity":0.5433070866141733,"duration":0.2750000000000057},{"name":"F#3","midi":54,"time":68.625,"velocity":0.5433070866141733,"duration":0.2750000000000057},{"name":"C3","midi":48,"time":69,"velocity":0.5433070866141733,"duration":0.2750000000000057},{"name":"G#3","midi":56,"time":69.375,"velocity":0.5433070866141733,"duration":0.2750000000000057},{"name":"C4","midi":60,"time":69.75,"velocity":0.5433070866141733,"duration":0.2750000000000057},{"name":"G#3","midi":56,"time":70.125,"velocity":0.5433070866141733,"duration":0.2750000000000057},{"name":"C#4","midi":61,"time":70.5,"velocity":0.5433070866141733,"duration":0.2750000000000057},{"name":"A#3","midi":58,"time":71.25,"velocity":0.5433070866141733,"duration":0.375},{"name":"G#3","midi":56,"time":72.1875,"velocity":0.5433070866141733,"duration":0.1875},{"name":"A#3","midi":58,"time":72.375,"velocity":0.5433070866141733,"duration":0.1875},{"name":"C4","midi":60,"time":72.5625,"velocity":0.5433070866141733,"duration":0.1875},{"name":"C#4","midi":61,"time":72.75,"velocity":0.5433070866141733,"duration":0.1875},{"name":"D#4","midi":63,"time":72.9375,"velocity":0.5433070866141733,"duration":0.1875},{"name":"F4","midi":65,"time":73.125,"velocity":0.5433070866141733,"duration":0.1875},{"name":"C#4","midi":61,"time":73.3125,"velocity":0.5433070866141733,"duration":0.1875},{"name":"A#3","midi":58,"time":73.5,"velocity":0.5433070866141733,"duration":0.2750000000000057},{"name":"A#3","midi":58,"time":73.875,"velocity":0.5433070866141733,"duration":0.2750000000000057},{"name":"C#4","midi":61,"time":74.25,"velocity":0.5433070866141733,"duration":0.2750000000000057},{"name":"A#3","midi":58,"time":74.625,"velocity":0.5433070866141733,"duration":0.2750000000000057},{"name":"D#4","midi":63,"time":75,"velocity":0.5433070866141733,"duration":0.2750000000000057},{"name":"D#3","midi":51,"time":75.375,"velocity":0.5433070866141733,"duration":0.2750000000000057},{"name":"C3","midi":48,"time":75.75,"velocity":0.5433070866141733,"duration":0.2750000000000057},{"name":"D#3","midi":51,"time":76.125,"velocity":0.5433070866141733,"duration":0.2750000000000057},{"name":"F3","midi":53,"time":76.5,"velocity":0.5433070866141733,"duration":0.2750000000000057},{"name":"F2","midi":41,"time":76.875,"velocity":0.5433070866141733,"duration":0.2750000000000057},{"name":"C#2","midi":37,"time":77.25,"velocity":0.5433070866141733,"duration":0.2750000000000057},{"name":"F2","midi":41,"time":77.625,"velocity":0.5433070866141733,"duration":0.2750000000000057},{"name":"F#2","midi":42,"time":78,"velocity":0.5433070866141733,"duration":0.75},{"name":"D#3","midi":51,"time":78.75,"velocity":0.5433070866141733,"duration":0.75},{"name":"F#3","midi":54,"time":79.5,"velocity":0.5433070866141733,"duration":0.75},{"name":"D#3","midi":51,"time":80.25,"velocity":0.5433070866141733,"duration":0.75},{"name":"G#3","midi":56,"time":81,"velocity":0.5433070866141733,"duration":6.1875},{"name":"A#3","midi":58,"time":87.1875,"velocity":0.5433070866141733,"duration":0.1875},{"name":"G#3","midi":56,"time":87.375,"velocity":0.5433070866141733,"duration":0.1875},{"name":"F#3","midi":54,"time":87.5625,"velocity":0.5433070866141733,"duration":0.1875},{"name":"F3","midi":53,"time":87.75,"velocity":0.5433070866141733,"duration":0.1875},{"name":"D#3","midi":51,"time":87.9375,"velocity":0.5433070866141733,"duration":0.1875},{"name":"D3","midi":50,"time":88.125,"velocity":0.5433070866141733,"duration":0.13124999999999432},{"name":"D#3","midi":51,"time":88.21875,"velocity":0.5433070866141733,"duration":0.125},{"name":"F3","midi":53,"time":88.3125,"velocity":0.5433070866141733,"duration":0.1875},{"name":"A#2","midi":46,"time":88.5,"velocity":0.5433070866141733,"duration":0.1875},{"name":"A#3","midi":58,"time":88.6875,"velocity":0.5433070866141733,"duration":0.1875},{"name":"C4","midi":60,"time":88.875,"velocity":0.5433070866141733,"duration":0.1875},{"name":"D4","midi":62,"time":89.0625,"velocity":0.5433070866141733,"duration":0.1875},{"name":"D#4","midi":63,"time":89.25,"velocity":0.5433070866141733,"duration":0.1875},{"name":"F4","midi":65,"time":89.4375,"velocity":0.5433070866141733,"duration":0.1875},{"name":"F#4","midi":66,"time":89.625,"velocity":0.5433070866141733,"duration":0.125},{"name":"F4","midi":65,"time":89.71875,"velocity":0.5433070866141733,"duration":0.11875000000000568},{"name":"D#4","midi":63,"time":89.8125,"velocity":0.5433070866141733,"duration":0.1875},{"name":"G#4","midi":68,"time":90,"velocity":0.5433070866141733,"duration":0.1875},{"name":"F#4","midi":66,"time":90.1875,"velocity":0.5433070866141733,"duration":0.1875},{"name":"F4","midi":65,"time":90.375,"velocity":0.5433070866141733,"duration":0.1875},{"name":"D#4","midi":63,"time":90.5625,"velocity":0.5433070866141733,"duration":0.1875},{"name":"C#4","midi":61,"time":90.75,"velocity":0.5433070866141733,"duration":0.1875},{"name":"B3","midi":59,"time":90.9375,"velocity":0.5433070866141733,"duration":0.1875},{"name":"A#3","midi":58,"time":91.125,"velocity":0.5433070866141733,"duration":0.13124999999999432},{"name":"B3","midi":59,"time":91.21875,"velocity":0.5433070866141733,"duration":0.125},{"name":"C#4","midi":61,"time":91.3125,"velocity":0.5433070866141733,"duration":0.1875},{"name":"F#3","midi":54,"time":91.5,"velocity":0.5433070866141733,"duration":0.375},{"name":"D#2","midi":39,"time":91.875,"velocity":0.5433070866141733,"duration":0.375},{"name":"F#2","midi":42,"time":92.25,"velocity":0.5433070866141733,"duration":0.375},{"name":"D#2","midi":39,"time":92.625,"velocity":0.5433070866141733,"duration":0.375},{"name":"G#2","midi":44,"time":93,"velocity":0.5433070866141733,"duration":1.21875},{"name":"A#2","midi":46,"time":94.21875,"velocity":0.5433070866141733,"duration":0.09375},{"name":"G#2","midi":44,"time":94.3125,"velocity":0.5433070866141733,"duration":0.09375},{"name":"G2","midi":43,"time":94.40625,"velocity":0.5433070866141733,"duration":0.09375},{"name":"G#2","midi":44,"time":94.5,"velocity":0.5433070866141733,"duration":0.84375},{"name":"A#2","midi":46,"time":95.34375,"velocity":0.5433070866141733,"duration":0.09375},{"name":"C3","midi":48,"time":95.4375,"velocity":0.5433070866141733,"duration":0.125},{"name":"C#3","midi":49,"time":95.53125,"velocity":0.5433070866141733,"duration":0.14374999999999716},{"name":"D#3","midi":51,"time":95.625,"velocity":0.5433070866141733,"duration":0.14374999999999716},{"name":"F3","midi":53,"time":95.71875,"velocity":0.5433070866141733,"duration":0.14374999999999716},{"name":"F#3","midi":54,"time":95.8125,"velocity":0.5433070866141733,"duration":0.13750000000000284},{"name":"D#3","midi":51,"time":95.90625,"velocity":0.5433070866141733,"duration":0.13124999999999432},{"name":"F3","midi":53,"time":96,"velocity":0.5433070866141733,"duration":0.375},{"name":"E3","midi":52,"time":96.375,"velocity":0.5433070866141733,"duration":0.375},{"name":"D#3","midi":51,"time":96.75,"velocity":0.5433070866141733,"duration":0.75},{"name":"C#3","midi":49,"time":97.5,"velocity":0.5433070866141733,"duration":3.1875},{"name":"C#3","midi":49,"time":100.6875,"velocity":0.5433070866141733,"duration":0.1875},{"name":"C3","midi":48,"time":100.875,"velocity":0.5433070866141733,"duration":0.1875},{"name":"A#2","midi":46,"time":101.0625,"velocity":0.5433070866141733,"duration":0.1875},{"name":"C3","midi":48,"time":101.25,"velocity":0.5433070866141733,"duration":0.75},{"name":"C#3","midi":49,"time":102,"velocity":0.5433070866141733,"duration":0.75},{"name":"D#3","midi":51,"time":102.75,"velocity":0.5433070866141733,"duration":0.75},{"name":"C#3","midi":49,"time":103.5,"velocity":0.5433070866141733,"duration":1.5}],"controlChanges":{"7":[{"number":7,"time":0,"value":0.7874015748031497}],"10":[{"number":10,"time":0,"value":0.3779527559055118}]},"id":3,"name":"by Yo Tomita","instrumentNumber":6,"instrument":"harpsichord","instrumentFamily":"piano","channelNumber":0,"isPercussion":false}]}